{"metadata": {"schema_version": "0.1", "title": "RWC-MDB-P-2001 No. 85: Waiting for the moment / Jeff Manning", "copyright": "RWC Music Database. Copyright (C) 2001 Real World Computing Partnership (contact: Masataka GOTO <m.goto@aist.go.jp>)", "source_filename": "RM-P085.SMF_SYNC.MID", "source_format": "midi"}, "resolution": 480, "tempos": [{"time": 0, "qpm": 58.25242718446602}, {"time": 480, "qpm": 96.7741935483871}, {"time": 960, "qpm": 98.36065573770492}, {"time": 2880, "qpm": 96.7741935483871}, {"time": 3360, "qpm": 98.36065573770492}, {"time": 4800, "qpm": 96.7741935483871}, {"time": 5280, "qpm": 98.36065573770492}, {"time": 6720, "qpm": 96.7741935483871}, {"time": 7200, "qpm": 98.36065573770492}, {"time": 9120, "qpm": 96.7741935483871}, {"time": 9600, "qpm": 98.36065573770492}, {"time": 11520, "qpm": 96.7741935483871}, {"time": 12000, "qpm": 98.36065573770492}, {"time": 12960, "qpm": 96.7741935483871}, {"time": 13440, "qpm": 98.36065573770492}, {"time": 15360, "qpm": 96.7741935483871}, {"time": 15840, "qpm": 98.36065573770492}, {"time": 17760, "qpm": 96.7741935483871}, {"time": 18240, "qpm": 98.36065573770492}, {"time": 19680, "qpm": 96.7741935483871}, {"time": 20160, "qpm": 98.36065573770492}, {"time": 21600, "qpm": 96.7741935483871}, {"time": 22080, "qpm": 98.36065573770492}, {"time": 24000, "qpm": 96.7741935483871}, {"time": 24480, "qpm": 98.36065573770492}, {"time": 25920, "qpm": 96.7741935483871}, {"time": 26400, "qpm": 98.36065573770492}, {"time": 28320, "qpm": 96.7741935483871}, {"time": 28800, "qpm": 98.36065573770492}, {"time": 30240, "qpm": 96.7741935483871}, {"time": 30720, "qpm": 98.36065573770492}, {"time": 32640, "qpm": 96.7741935483871}, {"time": 33120, "qpm": 98.36065573770492}, {"time": 34560, "qpm": 96.7741935483871}, {"time": 35040, "qpm": 98.36065573770492}, {"time": 36960, "qpm": 96.7741935483871}, {"time": 37440, "qpm": 98.36065573770492}, {"time": 38880, "qpm": 96.7741935483871}, {"time": 39360, "qpm": 98.36065573770492}, {"time": 41280, "qpm": 96.7741935483871}, {"time": 41760, "qpm": 98.36065573770492}, {"time": 43680, "qpm": 96.7741935483871}, {"time": 44160, "qpm": 98.36065573770492}, {"time": 45120, "qpm": 96.7741935483871}, {"time": 45600, "qpm": 98.36065573770492}, {"time": 47520, "qpm": 96.7741935483871}, {"time": 48000, "qpm": 98.36065573770492}, {"time": 49920, "qpm": 96.7741935483871}, {"time": 50400, "qpm": 98.36065573770492}, {"time": 51840, "qpm": 96.7741935483871}, {"time": 52320, "qpm": 98.36065573770492}, {"time": 53760, "qpm": 96.7741935483871}, {"time": 54240, "qpm": 98.36065573770492}, {"time": 56160, "qpm": 96.7741935483871}, {"time": 56640, "qpm": 98.36065573770492}, {"time": 58560, "qpm": 96.7741935483871}, {"time": 59040, "qpm": 98.36065573770492}, {"time": 60480, "qpm": 96.7741935483871}, {"time": 60960, "qpm": 98.36065573770492}, {"time": 62400, "qpm": 96.7741935483871}, {"time": 62880, "qpm": 98.36065573770492}, {"time": 64800, "qpm": 96.7741935483871}, {"time": 65280, "qpm": 98.36065573770492}, {"time": 66720, "qpm": 96.7741935483871}, {"time": 67200, "qpm": 98.36065573770492}, {"time": 69120, "qpm": 96.7741935483871}, {"time": 69600, "qpm": 98.36065573770492}, {"time": 71040, "qpm": 96.7741935483871}, {"time": 71520, "qpm": 98.36065573770492}, {"time": 72960, "qpm": 96.7741935483871}, {"time": 73440, "qpm": 98.36065573770492}, {"time": 75360, "qpm": 96.7741935483871}, {"time": 75840, "qpm": 98.36065573770492}, {"time": 77760, "qpm": 96.7741935483871}, {"time": 78240, "qpm": 98.36065573770492}, {"time": 79680, "qpm": 96.7741935483871}, {"time": 80160, "qpm": 98.36065573770492}, {"time": 81600, "qpm": 96.7741935483871}, {"time": 82080, "qpm": 98.36065573770492}, {"time": 84000, "qpm": 96.7741935483871}, {"time": 84480, "qpm": 98.36065573770492}, {"time": 85920, "qpm": 96.7741935483871}, {"time": 86400, "qpm": 98.36065573770492}, {"time": 88320, "qpm": 96.7741935483871}, {"time": 88800, "qpm": 98.36065573770492}, {"time": 90720, "qpm": 96.7741935483871}, {"time": 91200, "qpm": 98.36065573770492}, {"time": 92160, "qpm": 96.7741935483871}, {"time": 92640, "qpm": 98.36065573770492}, {"time": 94560, "qpm": 96.7741935483871}, {"time": 95040, "qpm": 98.36065573770492}, {"time": 96960, "qpm": 96.7741935483871}, {"time": 97440, "qpm": 98.36065573770492}, {"time": 98880, "qpm": 96.7741935483871}, {"time": 99360, "qpm": 98.36065573770492}, {"time": 101280, "qpm": 96.7741935483871}, {"time": 101760, "qpm": 98.36065573770492}, {"time": 103200, "qpm": 96.7741935483871}, {"time": 103680, "qpm": 98.36065573770492}, {"time": 105120, "qpm": 96.7741935483871}, {"time": 105600, "qpm": 98.36065573770492}, {"time": 107520, "qpm": 96.7741935483871}, {"time": 108000, "qpm": 98.36065573770492}, {"time": 109920, "qpm": 96.7741935483871}, {"time": 110400, "qpm": 98.36065573770492}, {"time": 111840, "qpm": 96.7741935483871}, {"time": 112320, "qpm": 98.36065573770492}, {"time": 113760, "qpm": 96.7741935483871}, {"time": 114240, "qpm": 98.36065573770492}, {"time": 116160, "qpm": 96.7741935483871}, {"time": 116640, "qpm": 98.36065573770492}, {"time": 118080, "qpm": 96.7741935483871}, {"time": 118560, "qpm": 98.36065573770492}, {"time": 120480, "qpm": 96.7741935483871}, {"time": 120960, "qpm": 98.36065573770492}, {"time": 122880, "qpm": 96.7741935483871}, {"time": 123360, "qpm": 98.36065573770492}, {"time": 124800, "qpm": 96.7741935483871}, {"time": 125280, "qpm": 98.36065573770492}, {"time": 126720, "qpm": 96.7741935483871}, {"time": 127200, "qpm": 98.36065573770492}, {"time": 129120, "qpm": 96.7741935483871}, {"time": 129600, "qpm": 98.36065573770492}, {"time": 131040, "qpm": 96.7741935483871}, {"time": 131520, "qpm": 98.36065573770492}, {"time": 133440, "qpm": 96.7741935483871}, {"time": 133920, "qpm": 98.36065573770492}, {"time": 135360, "qpm": 96.7741935483871}, {"time": 135840, "qpm": 98.36065573770492}, {"time": 137280, "qpm": 96.7741935483871}, {"time": 137760, "qpm": 98.36065573770492}, {"time": 139680, "qpm": 96.7741935483871}, {"time": 140160, "qpm": 98.36065573770492}, {"time": 142080, "qpm": 96.7741935483871}, {"time": 142560, "qpm": 98.36065573770492}, {"time": 144000, "qpm": 96.7741935483871}, {"time": 144480, "qpm": 98.36065573770492}, {"time": 146400, "qpm": 96.7741935483871}, {"time": 146880, "qpm": 98.36065573770492}, {"time": 148320, "qpm": 96.7741935483871}, {"time": 148800, "qpm": 98.36065573770492}, {"time": 150240, "qpm": 96.7741935483871}, {"time": 150720, "qpm": 98.36065573770492}, {"time": 152640, "qpm": 96.7741935483871}, {"time": 153120, "qpm": 98.36065573770492}, {"time": 155040, "qpm": 96.7741935483871}, {"time": 155520, "qpm": 98.36065573770492}, {"time": 156960, "qpm": 96.7741935483871}, {"time": 157440, "qpm": 98.36065573770492}, {"time": 158880, "qpm": 96.7741935483871}, {"time": 159360, "qpm": 98.36065573770492}, {"time": 161280, "qpm": 96.7741935483871}, {"time": 161760, "qpm": 98.36065573770492}], "key_signatures": [{"time": 0, "root": 0, "mode": "major"}], "time_signatures": [{"time": 0, "numerator": 1, "denominator": 4}, {"time": 480, "numerator": 4, "denominator": 4}], "tracks": [{"program": 0, "is_drum": false, "name": "Piano", "notes": [{"time": 4318, "pitch": 58, "duration": 1919, "velocity": 111}, {"time": 4318, "pitch": 62, "duration": 1919, "velocity": 103}, {"time": 4318, "pitch": 65, "duration": 1919, "velocity": 105}, {"time": 4318, "pitch": 70, "duration": 1919, "velocity": 110}, {"time": 4318, "pitch": 86, "duration": 143, "velocity": 127}, {"time": 4478, "pitch": 84, "duration": 68, "velocity": 122}, {"time": 4558, "pitch": 86, "duration": 144, "velocity": 127}, {"time": 4719, "pitch": 84, "duration": 68, "velocity": 124}, {"time": 4799, "pitch": 86, "duration": 144, "velocity": 127}, {"time": 4960, "pitch": 89, "duration": 68, "velocity": 127}, {"time": 5281, "pitch": 86, "duration": 144, "velocity": 127}, {"time": 5442, "pitch": 84, "duration": 68, "velocity": 121}, {"time": 5522, "pitch": 86, "duration": 144, "velocity": 127}, {"time": 5683, "pitch": 84, "duration": 68, "velocity": 118}, {"time": 5763, "pitch": 86, "duration": 141, "velocity": 127}, {"time": 5921, "pitch": 89, "duration": 67, "velocity": 127}, {"time": 6237, "pitch": 58, "duration": 1927, "velocity": 111}, {"time": 6237, "pitch": 60, "duration": 1927, "velocity": 106}, {"time": 6237, "pitch": 65, "duration": 1927, "velocity": 114}, {"time": 6237, "pitch": 70, "duration": 1927, "velocity": 117}, {"time": 6237, "pitch": 84, "duration": 143, "velocity": 127}, {"time": 6397, "pitch": 82, "duration": 69, "velocity": 121}, {"time": 6478, "pitch": 84, "duration": 143, "velocity": 127}, {"time": 6638, "pitch": 82, "duration": 69, "velocity": 125}, {"time": 6719, "pitch": 84, "duration": 143, "velocity": 127}, {"time": 6879, "pitch": 89, "duration": 68, "velocity": 124}, {"time": 7120, "pitch": 84, "duration": 144, "velocity": 127}, {"time": 8164, "pitch": 58, "duration": 1919, "velocity": 112}, {"time": 8164, "pitch": 63, "duration": 1919, "velocity": 103}, {"time": 8164, "pitch": 67, "duration": 1919, "velocity": 107}, {"time": 8164, "pitch": 70, "duration": 1919, "velocity": 116}, {"time": 8164, "pitch": 87, "duration": 141, "velocity": 127}, {"time": 8322, "pitch": 86, "duration": 67, "velocity": 123}, {"time": 8401, "pitch": 87, "duration": 141, "velocity": 119}, {"time": 8559, "pitch": 86, "duration": 67, "velocity": 125}, {"time": 8638, "pitch": 87, "duration": 143, "velocity": 127}, {"time": 8798, "pitch": 89, "duration": 69, "velocity": 126}, {"time": 9120, "pitch": 87, "duration": 143, "velocity": 127}, {"time": 9280, "pitch": 86, "duration": 68, "velocity": 124}, {"time": 9360, "pitch": 87, "duration": 144, "velocity": 127}, {"time": 9521, "pitch": 86, "duration": 68, "velocity": 127}, {"time": 9601, "pitch": 87, "duration": 144, "velocity": 125}, {"time": 9762, "pitch": 89, "duration": 68, "velocity": 126}, {"time": 10083, "pitch": 53, "duration": 1919, "velocity": 108}, {"time": 10083, "pitch": 60, "duration": 1919, "velocity": 107}, {"time": 10083, "pitch": 65, "duration": 1919, "velocity": 109}, {"time": 10083, "pitch": 69, "duration": 1919, "velocity": 113}, {"time": 10083, "pitch": 84, "duration": 141, "velocity": 127}, {"time": 10241, "pitch": 82, "duration": 67, "velocity": 120}, {"time": 10320, "pitch": 84, "duration": 141, "velocity": 127}, {"time": 10478, "pitch": 82, "duration": 67, "velocity": 125}, {"time": 10557, "pitch": 84, "duration": 143, "velocity": 127}, {"time": 10718, "pitch": 89, "duration": 68, "velocity": 122}, {"time": 10958, "pitch": 84, "duration": 144, "velocity": 124}, {"time": 12002, "pitch": 58, "duration": 1919, "velocity": 111}, {"time": 12002, "pitch": 62, "duration": 1919, "velocity": 103}, {"time": 12002, "pitch": 65, "duration": 1919, "velocity": 105}, {"time": 12002, "pitch": 70, "duration": 1919, "velocity": 110}, {"time": 13921, "pitch": 58, "duration": 1920, "velocity": 111}, {"time": 13921, "pitch": 63, "duration": 1920, "velocity": 103}, {"time": 13921, "pitch": 67, "duration": 1920, "velocity": 105}, {"time": 13921, "pitch": 70, "duration": 1920, "velocity": 110}, {"time": 15841, "pitch": 58, "duration": 1919, "velocity": 111}, {"time": 15841, "pitch": 62, "duration": 1919, "velocity": 103}, {"time": 15841, "pitch": 65, "duration": 1919, "velocity": 105}, {"time": 15841, "pitch": 70, "duration": 1919, "velocity": 110}, {"time": 17760, "pitch": 53, "duration": 1919, "velocity": 108}, {"time": 17760, "pitch": 60, "duration": 1919, "velocity": 107}, {"time": 17760, "pitch": 65, "duration": 1919, "velocity": 109}, {"time": 17760, "pitch": 69, "duration": 1919, "velocity": 113}, {"time": 18723, "pitch": 46, "duration": 79, "velocity": 127}, {"time": 18881, "pitch": 46, "duration": 79, "velocity": 127}, {"time": 18960, "pitch": 45, "duration": 79, "velocity": 125}, {"time": 19197, "pitch": 43, "duration": 81, "velocity": 123}, {"time": 19438, "pitch": 41, "duration": 80, "velocity": 126}, {"time": 19599, "pitch": 46, "duration": 80, "velocity": 127}, {"time": 19679, "pitch": 58, "duration": 1919, "velocity": 111}, {"time": 19679, "pitch": 62, "duration": 1919, "velocity": 103}, {"time": 19679, "pitch": 65, "duration": 1919, "velocity": 105}, {"time": 19679, "pitch": 70, "duration": 1919, "velocity": 110}, {"time": 21598, "pitch": 58, "duration": 1919, "velocity": 111}, {"time": 21598, "pitch": 63, "duration": 1919, "velocity": 103}, {"time": 21598, "pitch": 67, "duration": 1919, "velocity": 105}, {"time": 21598, "pitch": 70, "duration": 1919, "velocity": 110}, {"time": 23517, "pitch": 58, "duration": 964, "velocity": 111}, {"time": 23517, "pitch": 62, "duration": 964, "velocity": 103}, {"time": 23517, "pitch": 65, "duration": 964, "velocity": 105}, {"time": 23517, "pitch": 70, "duration": 964, "velocity": 110}, {"time": 24481, "pitch": 46, "duration": 80, "velocity": 127}, {"time": 24481, "pitch": 53, "duration": 956, "velocity": 108}, {"time": 24481, "pitch": 60, "duration": 956, "velocity": 107}, {"time": 24481, "pitch": 65, "duration": 956, "velocity": 109}, {"time": 24481, "pitch": 69, "duration": 956, "velocity": 113}, {"time": 24642, "pitch": 46, "duration": 80, "velocity": 127}, {"time": 24722, "pitch": 45, "duration": 80, "velocity": 125}, {"time": 24963, "pitch": 43, "duration": 79, "velocity": 123}, {"time": 25200, "pitch": 45, "duration": 79, "velocity": 126}, {"time": 25358, "pitch": 46, "duration": 79, "velocity": 127}, {"time": 25437, "pitch": 58, "duration": 1927, "velocity": 111}, {"time": 25437, "pitch": 62, "duration": 1927, "velocity": 103}, {"time": 25437, "pitch": 65, "duration": 1927, "velocity": 105}, {"time": 25437, "pitch": 70, "duration": 1927, "velocity": 110}, {"time": 27364, "pitch": 63, "duration": 1919, "velocity": 103}, {"time": 27364, "pitch": 67, "duration": 1919, "velocity": 105}, {"time": 27364, "pitch": 70, "duration": 1919, "velocity": 110}, {"time": 29283, "pitch": 62, "duration": 1919, "velocity": 103}, {"time": 29283, "pitch": 65, "duration": 1919, "velocity": 105}, {"time": 29283, "pitch": 70, "duration": 1919, "velocity": 110}, {"time": 31202, "pitch": 64, "duration": 1919, "velocity": 103}, {"time": 31202, "pitch": 67, "duration": 1919, "velocity": 105}, {"time": 31202, "pitch": 72, "duration": 1919, "velocity": 110}, {"time": 33121, "pitch": 60, "duration": 956, "velocity": 107}, {"time": 33121, "pitch": 65, "duration": 956, "velocity": 109}, {"time": 33121, "pitch": 69, "duration": 956, "velocity": 113}, {"time": 35040, "pitch": 62, "duration": 1920, "velocity": 103}, {"time": 35040, "pitch": 65, "duration": 1920, "velocity": 105}, {"time": 35040, "pitch": 70, "duration": 1920, "velocity": 110}, {"time": 36960, "pitch": 62, "duration": 963, "velocity": 102}, {"time": 36960, "pitch": 65, "duration": 963, "velocity": 112}, {"time": 36960, "pitch": 69, "duration": 963, "velocity": 117}, {"time": 37923, "pitch": 62, "duration": 474, "velocity": 103}, {"time": 37923, "pitch": 67, "duration": 474, "velocity": 111}, {"time": 37923, "pitch": 70, "duration": 474, "velocity": 110}, {"time": 38879, "pitch": 62, "duration": 963, "velocity": 103}, {"time": 38879, "pitch": 65, "duration": 963, "velocity": 105}, {"time": 38879, "pitch": 70, "duration": 963, "velocity": 110}, {"time": 39842, "pitch": 64, "duration": 956, "velocity": 103}, {"time": 39842, "pitch": 67, "duration": 956, "velocity": 105}, {"time": 39842, "pitch": 72, "duration": 956, "velocity": 110}, {"time": 40798, "pitch": 60, "duration": 964, "velocity": 103}, {"time": 40798, "pitch": 65, "duration": 964, "velocity": 105}, {"time": 40798, "pitch": 69, "duration": 964, "velocity": 110}, {"time": 41762, "pitch": 62, "duration": 955, "velocity": 103}, {"time": 41762, "pitch": 65, "duration": 955, "velocity": 105}, {"time": 41762, "pitch": 70, "duration": 955, "velocity": 110}, {"time": 42717, "pitch": 62, "duration": 1920, "velocity": 103}, {"time": 42717, "pitch": 65, "duration": 1920, "velocity": 105}, {"time": 42717, "pitch": 70, "duration": 1920, "velocity": 110}, {"time": 44637, "pitch": 62, "duration": 963, "velocity": 102}, {"time": 44637, "pitch": 65, "duration": 963, "velocity": 112}, {"time": 44637, "pitch": 69, "duration": 963, "velocity": 117}, {"time": 45600, "pitch": 62, "duration": 482, "velocity": 103}, {"time": 45600, "pitch": 67, "duration": 482, "velocity": 111}, {"time": 45600, "pitch": 70, "duration": 482, "velocity": 110}, {"time": 46563, "pitch": 62, "duration": 956, "velocity": 103}, {"time": 46563, "pitch": 65, "duration": 956, "velocity": 105}, {"time": 46563, "pitch": 70, "duration": 956, "velocity": 110}, {"time": 47519, "pitch": 64, "duration": 964, "velocity": 103}, {"time": 47519, "pitch": 67, "duration": 964, "velocity": 105}, {"time": 47519, "pitch": 72, "duration": 964, "velocity": 110}, {"time": 48483, "pitch": 60, "duration": 955, "velocity": 103}, {"time": 48483, "pitch": 65, "duration": 955, "velocity": 105}, {"time": 48483, "pitch": 69, "duration": 955, "velocity": 110}, {"time": 49438, "pitch": 62, "duration": 964, "velocity": 103}, {"time": 49438, "pitch": 65, "duration": 964, "velocity": 105}, {"time": 49438, "pitch": 70, "duration": 964, "velocity": 110}, {"time": 50402, "pitch": 49, "duration": 221, "velocity": 109}, {"time": 50402, "pitch": 61, "duration": 1919, "velocity": 109}, {"time": 50402, "pitch": 65, "duration": 1919, "velocity": 114}, {"time": 50402, "pitch": 68, "duration": 1919, "velocity": 111}, {"time": 50402, "pitch": 89, "duration": 143, "velocity": 127}, {"time": 50563, "pitch": 88, "duration": 68, "velocity": 122}, {"time": 50643, "pitch": 46, "duration": 221, "velocity": 105}, {"time": 50643, "pitch": 89, "duration": 143, "velocity": 127}, {"time": 50803, "pitch": 88, "duration": 69, "velocity": 124}, {"time": 50884, "pitch": 44, "duration": 217, "velocity": 104}, {"time": 50884, "pitch": 89, "duration": 141, "velocity": 127}, {"time": 51042, "pitch": 92, "duration": 67, "velocity": 127}, {"time": 51121, "pitch": 46, "duration": 217, "velocity": 105}, {"time": 51358, "pitch": 49, "duration": 220, "velocity": 109}, {"time": 51358, "pitch": 89, "duration": 143, "velocity": 127}, {"time": 51518, "pitch": 88, "duration": 68, "velocity": 121}, {"time": 51598, "pitch": 46, "duration": 221, "velocity": 110}, {"time": 51598, "pitch": 89, "duration": 144, "velocity": 127}, {"time": 51759, "pitch": 88, "duration": 68, "velocity": 118}, {"time": 51839, "pitch": 44, "duration": 221, "velocity": 108}, {"time": 51839, "pitch": 89, "duration": 144, "velocity": 127}, {"time": 52000, "pitch": 92, "duration": 68, "velocity": 127}, {"time": 52080, "pitch": 46, "duration": 221, "velocity": 102}, {"time": 52321, "pitch": 44, "duration": 121, "velocity": 108}, {"time": 52321, "pitch": 60, "duration": 1919, "velocity": 102}, {"time": 52321, "pitch": 63, "duration": 1919, "velocity": 105}, {"time": 52321, "pitch": 68, "duration": 1919, "velocity": 117}, {"time": 52321, "pitch": 87, "duration": 144, "velocity": 127}, {"time": 52482, "pitch": 85, "duration": 68, "velocity": 121}, {"time": 52562, "pitch": 44, "duration": 221, "velocity": 107}, {"time": 52562, "pitch": 87, "duration": 144, "velocity": 127}, {"time": 52723, "pitch": 85, "duration": 68, "velocity": 125}, {"time": 52803, "pitch": 46, "duration": 118, "velocity": 99}, {"time": 52803, "pitch": 87, "duration": 141, "velocity": 127}, {"time": 52961, "pitch": 92, "duration": 67, "velocity": 124}, {"time": 53040, "pitch": 46, "duration": 217, "velocity": 105}, {"time": 53198, "pitch": 87, "duration": 142, "velocity": 127}, {"time": 53277, "pitch": 48, "duration": 120, "velocity": 101}, {"time": 53518, "pitch": 48, "duration": 220, "velocity": 107}, {"time": 53759, "pitch": 44, "duration": 120, "velocity": 111}, {"time": 53999, "pitch": 44, "duration": 221, "velocity": 106}, {"time": 54240, "pitch": 41, "duration": 121, "velocity": 103}, {"time": 54240, "pitch": 60, "duration": 1920, "velocity": 107}, {"time": 54240, "pitch": 65, "duration": 1920, "velocity": 105}, {"time": 54240, "pitch": 69, "duration": 1920, "velocity": 118}, {"time": 54240, "pitch": 81, "duration": 144, "velocity": 127}, {"time": 54240, "pitch": 93, "duration": 144, "velocity": 127}, {"time": 54401, "pitch": 77, "duration": 68, "velocity": 122}, {"time": 54401, "pitch": 89, "duration": 68, "velocity": 122}, {"time": 54481, "pitch": 41, "duration": 121, "velocity": 111}, {"time": 54481, "pitch": 81, "duration": 144, "velocity": 127}, {"time": 54481, "pitch": 93, "duration": 144, "velocity": 127}, {"time": 54642, "pitch": 77, "duration": 68, "velocity": 124}, {"time": 54642, "pitch": 89, "duration": 68, "velocity": 124}, {"time": 54722, "pitch": 41, "duration": 121, "velocity": 101}, {"time": 54722, "pitch": 81, "duration": 144, "velocity": 127}, {"time": 54722, "pitch": 93, "duration": 144, "velocity": 127}, {"time": 54883, "pitch": 84, "duration": 68, "velocity": 127}, {"time": 54883, "pitch": 96, "duration": 68, "velocity": 127}, {"time": 54963, "pitch": 41, "duration": 120, "velocity": 99}, {"time": 55124, "pitch": 81, "duration": 63, "velocity": 127}, {"time": 55124, "pitch": 93, "duration": 63, "velocity": 127}, {"time": 55204, "pitch": 41, "duration": 118, "velocity": 104}, {"time": 55441, "pitch": 41, "duration": 118, "velocity": 107}, {"time": 55678, "pitch": 41, "duration": 120, "velocity": 104}, {"time": 55919, "pitch": 41, "duration": 120, "velocity": 114}, {"time": 56160, "pitch": 42, "duration": 120, "velocity": 108}, {"time": 56160, "pitch": 58, "duration": 963, "velocity": 107}, {"time": 56160, "pitch": 61, "duration": 963, "velocity": 113}, {"time": 56160, "pitch": 66, "duration": 963, "velocity": 118}, {"time": 56160, "pitch": 82, "duration": 143, "velocity": 127}, {"time": 56160, "pitch": 94, "duration": 143, "velocity": 127}, {"time": 56320, "pitch": 78, "duration": 68, "velocity": 122}, {"time": 56320, "pitch": 90, "duration": 68, "velocity": 122}, {"time": 56400, "pitch": 42, "duration": 121, "velocity": 111}, {"time": 56400, "pitch": 82, "duration": 144, "velocity": 127}, {"time": 56400, "pitch": 94, "duration": 144, "velocity": 127}, {"time": 56561, "pitch": 78, "duration": 68, "velocity": 124}, {"time": 56561, "pitch": 90, "duration": 68, "velocity": 124}, {"time": 56641, "pitch": 42, "duration": 121, "velocity": 106}, {"time": 56641, "pitch": 82, "duration": 144, "velocity": 127}, {"time": 56641, "pitch": 94, "duration": 144, "velocity": 127}, {"time": 56802, "pitch": 85, "duration": 68, "velocity": 127}, {"time": 56802, "pitch": 97, "duration": 68, "velocity": 127}, {"time": 56882, "pitch": 42, "duration": 121, "velocity": 107}, {"time": 57043, "pitch": 84, "duration": 63, "velocity": 127}, {"time": 57043, "pitch": 96, "duration": 63, "velocity": 127}, {"time": 57123, "pitch": 44, "duration": 119, "velocity": 107}, {"time": 57123, "pitch": 60, "duration": 956, "velocity": 104}, {"time": 57123, "pitch": 63, "duration": 956, "velocity": 111}, {"time": 57123, "pitch": 68, "duration": 956, "velocity": 114}, {"time": 57360, "pitch": 44, "duration": 119, "velocity": 102}, {"time": 57597, "pitch": 44, "duration": 120, "velocity": 107}, {"time": 57838, "pitch": 44, "duration": 120, "velocity": 105}, {"time": 58079, "pitch": 58, "duration": 1919, "velocity": 111}, {"time": 58079, "pitch": 62, "duration": 1919, "velocity": 103}, {"time": 58079, "pitch": 65, "duration": 1919, "velocity": 105}, {"time": 58079, "pitch": 70, "duration": 1919, "velocity": 110}, {"time": 59998, "pitch": 58, "duration": 1919, "velocity": 111}, {"time": 59998, "pitch": 63, "duration": 1919, "velocity": 103}, {"time": 59998, "pitch": 67, "duration": 1919, "velocity": 105}, {"time": 59998, "pitch": 70, "duration": 1919, "velocity": 110}, {"time": 61917, "pitch": 58, "duration": 1919, "velocity": 111}, {"time": 61917, "pitch": 62, "duration": 1919, "velocity": 103}, {"time": 61917, "pitch": 65, "duration": 1919, "velocity": 105}, {"time": 61917, "pitch": 70, "duration": 1919, "velocity": 110}, {"time": 63836, "pitch": 53, "duration": 1927, "velocity": 108}, {"time": 63836, "pitch": 60, "duration": 1927, "velocity": 107}, {"time": 63836, "pitch": 65, "duration": 1927, "velocity": 109}, {"time": 63836, "pitch": 69, "duration": 1927, "velocity": 113}, {"time": 64800, "pitch": 46, "duration": 80, "velocity": 127}, {"time": 64960, "pitch": 46, "duration": 81, "velocity": 127}, {"time": 65041, "pitch": 45, "duration": 80, "velocity": 125}, {"time": 65282, "pitch": 43, "duration": 80, "velocity": 123}, {"time": 65523, "pitch": 41, "duration": 80, "velocity": 126}, {"time": 65683, "pitch": 46, "duration": 80, "velocity": 127}, {"time": 65763, "pitch": 58, "duration": 1920, "velocity": 111}, {"time": 65763, "pitch": 62, "duration": 1920, "velocity": 103}, {"time": 65763, "pitch": 65, "duration": 1920, "velocity": 105}, {"time": 65763, "pitch": 70, "duration": 1920, "velocity": 110}, {"time": 67683, "pitch": 58, "duration": 1919, "velocity": 111}, {"time": 67683, "pitch": 63, "duration": 1919, "velocity": 103}, {"time": 67683, "pitch": 67, "duration": 1919, "velocity": 105}, {"time": 67683, "pitch": 70, "duration": 1919, "velocity": 110}, {"time": 69602, "pitch": 58, "duration": 955, "velocity": 111}, {"time": 69602, "pitch": 62, "duration": 955, "velocity": 103}, {"time": 69602, "pitch": 65, "duration": 955, "velocity": 105}, {"time": 69602, "pitch": 70, "duration": 955, "velocity": 110}, {"time": 70557, "pitch": 46, "duration": 81, "velocity": 127}, {"time": 70557, "pitch": 53, "duration": 964, "velocity": 108}, {"time": 70557, "pitch": 60, "duration": 964, "velocity": 107}, {"time": 70557, "pitch": 65, "duration": 964, "velocity": 109}, {"time": 70557, "pitch": 69, "duration": 964, "velocity": 113}, {"time": 70718, "pitch": 46, "duration": 80, "velocity": 127}, {"time": 70798, "pitch": 45, "duration": 81, "velocity": 125}, {"time": 71039, "pitch": 43, "duration": 81, "velocity": 123}, {"time": 71280, "pitch": 45, "duration": 80, "velocity": 126}, {"time": 71441, "pitch": 46, "duration": 80, "velocity": 127}, {"time": 71521, "pitch": 58, "duration": 1919, "velocity": 111}, {"time": 71521, "pitch": 62, "duration": 1919, "velocity": 103}, {"time": 71521, "pitch": 65, "duration": 1919, "velocity": 105}, {"time": 71521, "pitch": 70, "duration": 1919, "velocity": 110}, {"time": 73440, "pitch": 63, "duration": 1919, "velocity": 103}, {"time": 73440, "pitch": 67, "duration": 1919, "velocity": 105}, {"time": 73440, "pitch": 70, "duration": 1919, "velocity": 110}, {"time": 75359, "pitch": 62, "duration": 1920, "velocity": 103}, {"time": 75359, "pitch": 65, "duration": 1920, "velocity": 105}, {"time": 75359, "pitch": 70, "duration": 1920, "velocity": 110}, {"time": 77279, "pitch": 64, "duration": 1919, "velocity": 103}, {"time": 77279, "pitch": 67, "duration": 1919, "velocity": 105}, {"time": 77279, "pitch": 72, "duration": 1919, "velocity": 110}, {"time": 79198, "pitch": 60, "duration": 963, "velocity": 107}, {"time": 79198, "pitch": 65, "duration": 963, "velocity": 109}, {"time": 79198, "pitch": 69, "duration": 963, "velocity": 113}, {"time": 81117, "pitch": 62, "duration": 1919, "velocity": 103}, {"time": 81117, "pitch": 65, "duration": 1919, "velocity": 105}, {"time": 81117, "pitch": 70, "duration": 1919, "velocity": 110}, {"time": 83036, "pitch": 62, "duration": 964, "velocity": 102}, {"time": 83036, "pitch": 65, "duration": 964, "velocity": 112}, {"time": 83036, "pitch": 69, "duration": 964, "velocity": 117}, {"time": 84000, "pitch": 62, "duration": 481, "velocity": 103}, {"time": 84000, "pitch": 67, "duration": 481, "velocity": 111}, {"time": 84000, "pitch": 70, "duration": 481, "velocity": 110}, {"time": 84963, "pitch": 62, "duration": 956, "velocity": 103}, {"time": 84963, "pitch": 65, "duration": 956, "velocity": 105}, {"time": 84963, "pitch": 70, "duration": 956, "velocity": 110}, {"time": 85919, "pitch": 64, "duration": 963, "velocity": 103}, {"time": 85919, "pitch": 67, "duration": 963, "velocity": 105}, {"time": 85919, "pitch": 72, "duration": 963, "velocity": 110}, {"time": 86882, "pitch": 60, "duration": 956, "velocity": 103}, {"time": 86882, "pitch": 65, "duration": 956, "velocity": 105}, {"time": 86882, "pitch": 69, "duration": 956, "velocity": 110}, {"time": 87838, "pitch": 62, "duration": 964, "velocity": 103}, {"time": 87838, "pitch": 65, "duration": 964, "velocity": 105}, {"time": 87838, "pitch": 70, "duration": 964, "velocity": 110}, {"time": 88802, "pitch": 62, "duration": 1919, "velocity": 103}, {"time": 88802, "pitch": 65, "duration": 1919, "velocity": 105}, {"time": 88802, "pitch": 70, "duration": 1919, "velocity": 110}, {"time": 90721, "pitch": 62, "duration": 956, "velocity": 102}, {"time": 90721, "pitch": 65, "duration": 956, "velocity": 112}, {"time": 90721, "pitch": 69, "duration": 956, "velocity": 117}, {"time": 91677, "pitch": 62, "duration": 481, "velocity": 103}, {"time": 91677, "pitch": 67, "duration": 481, "velocity": 111}, {"time": 91677, "pitch": 70, "duration": 481, "velocity": 110}, {"time": 92640, "pitch": 62, "duration": 963, "velocity": 103}, {"time": 92640, "pitch": 65, "duration": 963, "velocity": 105}, {"time": 92640, "pitch": 70, "duration": 963, "velocity": 110}, {"time": 93603, "pitch": 64, "duration": 956, "velocity": 103}, {"time": 93603, "pitch": 67, "duration": 956, "velocity": 105}, {"time": 93603, "pitch": 72, "duration": 956, "velocity": 110}, {"time": 94559, "pitch": 60, "duration": 964, "velocity": 103}, {"time": 94559, "pitch": 65, "duration": 964, "velocity": 105}, {"time": 94559, "pitch": 69, "duration": 964, "velocity": 110}, {"time": 95523, "pitch": 62, "duration": 955, "velocity": 103}, {"time": 95523, "pitch": 65, "duration": 955, "velocity": 105}, {"time": 95523, "pitch": 70, "duration": 955, "velocity": 110}, {"time": 96478, "pitch": 58, "duration": 1920, "velocity": 111}, {"time": 96478, "pitch": 62, "duration": 1920, "velocity": 103}, {"time": 96478, "pitch": 65, "duration": 1920, "velocity": 105}, {"time": 96478, "pitch": 70, "duration": 1920, "velocity": 110}, {"time": 96478, "pitch": 86, "duration": 144, "velocity": 127}, {"time": 96639, "pitch": 84, "duration": 68, "velocity": 122}, {"time": 96719, "pitch": 86, "duration": 144, "velocity": 127}, {"time": 96880, "pitch": 84, "duration": 68, "velocity": 124}, {"time": 96960, "pitch": 86, "duration": 144, "velocity": 127}, {"time": 97121, "pitch": 89, "duration": 68, "velocity": 127}, {"time": 97442, "pitch": 86, "duration": 143, "velocity": 127}, {"time": 97603, "pitch": 84, "duration": 68, "velocity": 121}, {"time": 97683, "pitch": 86, "duration": 143, "velocity": 127}, {"time": 97843, "pitch": 84, "duration": 69, "velocity": 118}, {"time": 97924, "pitch": 86, "duration": 141, "velocity": 127}, {"time": 98082, "pitch": 89, "duration": 67, "velocity": 127}, {"time": 98398, "pitch": 58, "duration": 1919, "velocity": 111}, {"time": 98398, "pitch": 60, "duration": 1919, "velocity": 106}, {"time": 98398, "pitch": 65, "duration": 1919, "velocity": 114}, {"time": 98398, "pitch": 70, "duration": 1919, "velocity": 117}, {"time": 98398, "pitch": 84, "duration": 143, "velocity": 127}, {"time": 98558, "pitch": 82, "duration": 68, "velocity": 121}, {"time": 98638, "pitch": 84, "duration": 144, "velocity": 127}, {"time": 98799, "pitch": 82, "duration": 68, "velocity": 125}, {"time": 98879, "pitch": 84, "duration": 144, "velocity": 127}, {"time": 99040, "pitch": 89, "duration": 68, "velocity": 124}, {"time": 99281, "pitch": 84, "duration": 143, "velocity": 127}, {"time": 100317, "pitch": 58, "duration": 1927, "velocity": 112}, {"time": 100317, "pitch": 63, "duration": 1927, "velocity": 103}, {"time": 100317, "pitch": 67, "duration": 1927, "velocity": 107}, {"time": 100317, "pitch": 70, "duration": 1927, "velocity": 116}, {"time": 100317, "pitch": 87, "duration": 143, "velocity": 127}, {"time": 100477, "pitch": 86, "duration": 69, "velocity": 123}, {"time": 100558, "pitch": 87, "duration": 143, "velocity": 119}, {"time": 100718, "pitch": 86, "duration": 69, "velocity": 125}, {"time": 100799, "pitch": 87, "duration": 143, "velocity": 127}, {"time": 100959, "pitch": 89, "duration": 68, "velocity": 126}, {"time": 101280, "pitch": 87, "duration": 144, "velocity": 127}, {"time": 101441, "pitch": 86, "duration": 68, "velocity": 124}, {"time": 101521, "pitch": 87, "duration": 144, "velocity": 127}, {"time": 101682, "pitch": 86, "duration": 68, "velocity": 127}, {"time": 101762, "pitch": 87, "duration": 144, "velocity": 125}, {"time": 101923, "pitch": 89, "duration": 68, "velocity": 126}, {"time": 102244, "pitch": 53, "duration": 1919, "velocity": 108}, {"time": 102244, "pitch": 60, "duration": 1919, "velocity": 107}, {"time": 102244, "pitch": 65, "duration": 1919, "velocity": 109}, {"time": 102244, "pitch": 69, "duration": 1919, "velocity": 113}, {"time": 102244, "pitch": 84, "duration": 141, "velocity": 127}, {"time": 102402, "pitch": 82, "duration": 67, "velocity": 120}, {"time": 102481, "pitch": 84, "duration": 141, "velocity": 127}, {"time": 102639, "pitch": 82, "duration": 67, "velocity": 125}, {"time": 102718, "pitch": 84, "duration": 143, "velocity": 127}, {"time": 102878, "pitch": 89, "duration": 69, "velocity": 122}, {"time": 103119, "pitch": 84, "duration": 144, "velocity": 124}, {"time": 104163, "pitch": 58, "duration": 1919, "velocity": 111}, {"time": 104163, "pitch": 62, "duration": 1919, "velocity": 103}, {"time": 104163, "pitch": 65, "duration": 1919, "velocity": 105}, {"time": 104163, "pitch": 70, "duration": 1919, "velocity": 110}, {"time": 106082, "pitch": 58, "duration": 1919, "velocity": 111}, {"time": 106082, "pitch": 63, "duration": 1919, "velocity": 103}, {"time": 106082, "pitch": 67, "duration": 1919, "velocity": 105}, {"time": 106082, "pitch": 70, "duration": 1919, "velocity": 110}, {"time": 108001, "pitch": 58, "duration": 1920, "velocity": 111}, {"time": 108001, "pitch": 62, "duration": 1920, "velocity": 103}, {"time": 108001, "pitch": 65, "duration": 1920, "velocity": 105}, {"time": 108001, "pitch": 70, "duration": 1920, "velocity": 110}, {"time": 109921, "pitch": 53, "duration": 1919, "velocity": 108}, {"time": 109921, "pitch": 60, "duration": 1919, "velocity": 107}, {"time": 109921, "pitch": 65, "duration": 1919, "velocity": 109}, {"time": 109921, "pitch": 69, "duration": 1919, "velocity": 113}, {"time": 110876, "pitch": 46, "duration": 81, "velocity": 127}, {"time": 111037, "pitch": 46, "duration": 80, "velocity": 127}, {"time": 111117, "pitch": 45, "duration": 81, "velocity": 125}, {"time": 111358, "pitch": 43, "duration": 80, "velocity": 123}, {"time": 111599, "pitch": 41, "duration": 80, "velocity": 126}, {"time": 111760, "pitch": 46, "duration": 80, "velocity": 127}, {"time": 111840, "pitch": 58, "duration": 1919, "velocity": 111}, {"time": 111840, "pitch": 62, "duration": 1919, "velocity": 103}, {"time": 111840, "pitch": 65, "duration": 1919, "velocity": 105}, {"time": 111840, "pitch": 70, "duration": 1919, "velocity": 110}, {"time": 113759, "pitch": 58, "duration": 1919, "velocity": 111}, {"time": 113759, "pitch": 63, "duration": 1919, "velocity": 103}, {"time": 113759, "pitch": 67, "duration": 1919, "velocity": 105}, {"time": 113759, "pitch": 70, "duration": 1919, "velocity": 110}, {"time": 115678, "pitch": 58, "duration": 964, "velocity": 111}, {"time": 115678, "pitch": 62, "duration": 964, "velocity": 103}, {"time": 115678, "pitch": 65, "duration": 964, "velocity": 105}, {"time": 115678, "pitch": 70, "duration": 964, "velocity": 110}, {"time": 116642, "pitch": 46, "duration": 80, "velocity": 127}, {"time": 116642, "pitch": 53, "duration": 955, "velocity": 108}, {"time": 116642, "pitch": 60, "duration": 955, "velocity": 107}, {"time": 116642, "pitch": 65, "duration": 955, "velocity": 109}, {"time": 116642, "pitch": 69, "duration": 955, "velocity": 113}, {"time": 116802, "pitch": 46, "duration": 81, "velocity": 127}, {"time": 116883, "pitch": 45, "duration": 80, "velocity": 125}, {"time": 117123, "pitch": 43, "duration": 79, "velocity": 123}, {"time": 117360, "pitch": 45, "duration": 79, "velocity": 126}, {"time": 117518, "pitch": 46, "duration": 79, "velocity": 127}, {"time": 117597, "pitch": 58, "duration": 1920, "velocity": 111}, {"time": 117597, "pitch": 62, "duration": 1920, "velocity": 103}, {"time": 117597, "pitch": 65, "duration": 1920, "velocity": 105}, {"time": 117597, "pitch": 70, "duration": 1920, "velocity": 110}, {"time": 119517, "pitch": 63, "duration": 1927, "velocity": 103}, {"time": 119517, "pitch": 67, "duration": 1927, "velocity": 105}, {"time": 119517, "pitch": 70, "duration": 1927, "velocity": 110}, {"time": 121444, "pitch": 62, "duration": 1919, "velocity": 103}, {"time": 121444, "pitch": 65, "duration": 1919, "velocity": 105}, {"time": 121444, "pitch": 70, "duration": 1919, "velocity": 110}, {"time": 123363, "pitch": 64, "duration": 1919, "velocity": 103}, {"time": 123363, "pitch": 67, "duration": 1919, "velocity": 105}, {"time": 123363, "pitch": 72, "duration": 1919, "velocity": 110}, {"time": 125282, "pitch": 60, "duration": 956, "velocity": 107}, {"time": 125282, "pitch": 65, "duration": 956, "velocity": 109}, {"time": 125282, "pitch": 69, "duration": 956, "velocity": 113}, {"time": 127201, "pitch": 62, "duration": 1920, "velocity": 103}, {"time": 127201, "pitch": 65, "duration": 1920, "velocity": 105}, {"time": 127201, "pitch": 70, "duration": 1920, "velocity": 110}, {"time": 129121, "pitch": 62, "duration": 955, "velocity": 102}, {"time": 129121, "pitch": 65, "duration": 955, "velocity": 112}, {"time": 129121, "pitch": 69, "duration": 955, "velocity": 117}, {"time": 130076, "pitch": 62, "duration": 482, "velocity": 103}, {"time": 130076, "pitch": 67, "duration": 482, "velocity": 111}, {"time": 130076, "pitch": 70, "duration": 482, "velocity": 110}, {"time": 131040, "pitch": 62, "duration": 963, "velocity": 103}, {"time": 131040, "pitch": 65, "duration": 963, "velocity": 105}, {"time": 131040, "pitch": 70, "duration": 963, "velocity": 110}, {"time": 132003, "pitch": 64, "duration": 956, "velocity": 103}, {"time": 132003, "pitch": 67, "duration": 956, "velocity": 105}, {"time": 132003, "pitch": 72, "duration": 956, "velocity": 110}, {"time": 132959, "pitch": 60, "duration": 963, "velocity": 103}, {"time": 132959, "pitch": 65, "duration": 963, "velocity": 105}, {"time": 132959, "pitch": 69, "duration": 963, "velocity": 110}, {"time": 133922, "pitch": 62, "duration": 956, "velocity": 103}, {"time": 133922, "pitch": 65, "duration": 956, "velocity": 105}, {"time": 133922, "pitch": 70, "duration": 956, "velocity": 110}, {"time": 134878, "pitch": 62, "duration": 1919, "velocity": 103}, {"time": 134878, "pitch": 65, "duration": 1919, "velocity": 105}, {"time": 134878, "pitch": 70, "duration": 1919, "velocity": 110}, {"time": 136797, "pitch": 62, "duration": 964, "velocity": 102}, {"time": 136797, "pitch": 65, "duration": 964, "velocity": 112}, {"time": 136797, "pitch": 69, "duration": 964, "velocity": 117}, {"time": 137761, "pitch": 62, "duration": 482, "velocity": 103}, {"time": 137761, "pitch": 67, "duration": 482, "velocity": 111}, {"time": 137761, "pitch": 70, "duration": 482, "velocity": 110}, {"time": 138717, "pitch": 62, "duration": 963, "velocity": 103}, {"time": 138717, "pitch": 65, "duration": 963, "velocity": 105}, {"time": 138717, "pitch": 70, "duration": 963, "velocity": 110}, {"time": 139680, "pitch": 64, "duration": 963, "velocity": 103}, {"time": 139680, "pitch": 67, "duration": 963, "velocity": 105}, {"time": 139680, "pitch": 72, "duration": 963, "velocity": 110}, {"time": 140643, "pitch": 60, "duration": 956, "velocity": 103}, {"time": 140643, "pitch": 65, "duration": 956, "velocity": 105}, {"time": 140643, "pitch": 69, "duration": 956, "velocity": 110}, {"time": 141599, "pitch": 62, "duration": 964, "velocity": 103}, {"time": 141599, "pitch": 65, "duration": 964, "velocity": 105}, {"time": 141599, "pitch": 70, "duration": 964, "velocity": 110}, {"time": 142563, "pitch": 49, "duration": 217, "velocity": 114}, {"time": 142563, "pitch": 61, "duration": 1919, "velocity": 105}, {"time": 142563, "pitch": 65, "duration": 1919, "velocity": 105}, {"time": 142563, "pitch": 68, "duration": 1919, "velocity": 111}, {"time": 142563, "pitch": 89, "duration": 141, "velocity": 127}, {"time": 142721, "pitch": 88, "duration": 67, "velocity": 122}, {"time": 142800, "pitch": 46, "duration": 217, "velocity": 104}, {"time": 142800, "pitch": 89, "duration": 141, "velocity": 127}, {"time": 142958, "pitch": 88, "duration": 67, "velocity": 124}, {"time": 143037, "pitch": 44, "duration": 220, "velocity": 100}, {"time": 143037, "pitch": 89, "duration": 143, "velocity": 127}, {"time": 143197, "pitch": 92, "duration": 68, "velocity": 127}, {"time": 143278, "pitch": 46, "duration": 220, "velocity": 106}, {"time": 143518, "pitch": 49, "duration": 221, "velocity": 101}, {"time": 143518, "pitch": 89, "duration": 144, "velocity": 127}, {"time": 143679, "pitch": 88, "duration": 68, "velocity": 121}, {"time": 143759, "pitch": 46, "duration": 221, "velocity": 103}, {"time": 143759, "pitch": 89, "duration": 144, "velocity": 127}, {"time": 143920, "pitch": 88, "duration": 68, "velocity": 118}, {"time": 144000, "pitch": 44, "duration": 221, "velocity": 102}, {"time": 144000, "pitch": 89, "duration": 144, "velocity": 127}, {"time": 144161, "pitch": 92, "duration": 68, "velocity": 127}, {"time": 144241, "pitch": 46, "duration": 221, "velocity": 104}, {"time": 144482, "pitch": 44, "duration": 221, "velocity": 109}, {"time": 144482, "pitch": 60, "duration": 1919, "velocity": 101}, {"time": 144482, "pitch": 63, "duration": 1919, "velocity": 108}, {"time": 144482, "pitch": 68, "duration": 1919, "velocity": 111}, {"time": 144482, "pitch": 87, "duration": 143, "velocity": 127}, {"time": 144643, "pitch": 85, "duration": 68, "velocity": 121}, {"time": 144723, "pitch": 44, "duration": 221, "velocity": 109}, {"time": 144723, "pitch": 87, "duration": 143, "velocity": 127}, {"time": 144883, "pitch": 85, "duration": 69, "velocity": 125}, {"time": 144964, "pitch": 46, "duration": 217, "velocity": 101}, {"time": 144964, "pitch": 87, "duration": 141, "velocity": 127}, {"time": 145122, "pitch": 92, "duration": 67, "velocity": 124}, {"time": 145201, "pitch": 46, "duration": 217, "velocity": 115}, {"time": 145359, "pitch": 87, "duration": 142, "velocity": 127}, {"time": 145438, "pitch": 48, "duration": 220, "velocity": 104}, {"time": 145678, "pitch": 48, "duration": 221, "velocity": 103}, {"time": 145919, "pitch": 44, "duration": 221, "velocity": 106}, {"time": 146160, "pitch": 44, "duration": 221, "velocity": 104}, {"time": 146401, "pitch": 41, "duration": 121, "velocity": 106}, {"time": 146401, "pitch": 60, "duration": 1919, "velocity": 107}, {"time": 146401, "pitch": 65, "duration": 1919, "velocity": 113}, {"time": 146401, "pitch": 69, "duration": 1919, "velocity": 114}, {"time": 146401, "pitch": 81, "duration": 144, "velocity": 127}, {"time": 146401, "pitch": 93, "duration": 144, "velocity": 127}, {"time": 146562, "pitch": 77, "duration": 68, "velocity": 122}, {"time": 146562, "pitch": 89, "duration": 68, "velocity": 122}, {"time": 146642, "pitch": 41, "duration": 120, "velocity": 103}, {"time": 146642, "pitch": 81, "duration": 144, "velocity": 127}, {"time": 146642, "pitch": 93, "duration": 144, "velocity": 127}, {"time": 146803, "pitch": 77, "duration": 68, "velocity": 124}, {"time": 146803, "pitch": 89, "duration": 68, "velocity": 124}, {"time": 146883, "pitch": 41, "duration": 118, "velocity": 100}, {"time": 146883, "pitch": 81, "duration": 141, "velocity": 127}, {"time": 146883, "pitch": 93, "duration": 141, "velocity": 127}, {"time": 147041, "pitch": 84, "duration": 67, "velocity": 127}, {"time": 147041, "pitch": 96, "duration": 67, "velocity": 127}, {"time": 147120, "pitch": 41, "duration": 118, "velocity": 104}, {"time": 147278, "pitch": 81, "duration": 62, "velocity": 127}, {"time": 147278, "pitch": 93, "duration": 62, "velocity": 127}, {"time": 147357, "pitch": 41, "duration": 120, "velocity": 105}, {"time": 147598, "pitch": 41, "duration": 120, "velocity": 107}, {"time": 147839, "pitch": 41, "duration": 120, "velocity": 107}, {"time": 148079, "pitch": 41, "duration": 121, "velocity": 109}, {"time": 148320, "pitch": 42, "duration": 221, "velocity": 107}, {"time": 148320, "pitch": 58, "duration": 964, "velocity": 102}, {"time": 148320, "pitch": 61, "duration": 964, "velocity": 112}, {"time": 148320, "pitch": 66, "duration": 964, "velocity": 117}, {"time": 148320, "pitch": 82, "duration": 144, "velocity": 127}, {"time": 148320, "pitch": 94, "duration": 144, "velocity": 127}, {"time": 148481, "pitch": 78, "duration": 68, "velocity": 122}, {"time": 148481, "pitch": 90, "duration": 68, "velocity": 122}, {"time": 148561, "pitch": 41, "duration": 221, "velocity": 100}, {"time": 148561, "pitch": 82, "duration": 144, "velocity": 127}, {"time": 148561, "pitch": 94, "duration": 144, "velocity": 127}, {"time": 148722, "pitch": 78, "duration": 68, "velocity": 124}, {"time": 148722, "pitch": 90, "duration": 68, "velocity": 124}, {"time": 148802, "pitch": 42, "duration": 121, "velocity": 107}, {"time": 148802, "pitch": 82, "duration": 144, "velocity": 127}, {"time": 148802, "pitch": 94, "duration": 144, "velocity": 127}, {"time": 148963, "pitch": 85, "duration": 68, "velocity": 127}, {"time": 148963, "pitch": 97, "duration": 68, "velocity": 127}, {"time": 149043, "pitch": 42, "duration": 221, "velocity": 113}, {"time": 149204, "pitch": 84, "duration": 63, "velocity": 127}, {"time": 149204, "pitch": 96, "duration": 63, "velocity": 127}, {"time": 149284, "pitch": 44, "duration": 217, "velocity": 111}, {"time": 149284, "pitch": 60, "duration": 956, "velocity": 103}, {"time": 149284, "pitch": 63, "duration": 956, "velocity": 111}, {"time": 149284, "pitch": 68, "duration": 956, "velocity": 110}, {"time": 149521, "pitch": 44, "duration": 118, "velocity": 111}, {"time": 149758, "pitch": 44, "duration": 120, "velocity": 107}, {"time": 149999, "pitch": 44, "duration": 220, "velocity": 103}, {"time": 150240, "pitch": 49, "duration": 220, "velocity": 109}, {"time": 150240, "pitch": 61, "duration": 1919, "velocity": 109}, {"time": 150240, "pitch": 65, "duration": 1919, "velocity": 114}, {"time": 150240, "pitch": 68, "duration": 1919, "velocity": 111}, {"time": 150240, "pitch": 89, "duration": 143, "velocity": 127}, {"time": 150400, "pitch": 88, "duration": 68, "velocity": 122}, {"time": 150480, "pitch": 46, "duration": 221, "velocity": 105}, {"time": 150480, "pitch": 89, "duration": 144, "velocity": 127}, {"time": 150641, "pitch": 88, "duration": 68, "velocity": 124}, {"time": 150721, "pitch": 44, "duration": 221, "velocity": 104}, {"time": 150721, "pitch": 89, "duration": 144, "velocity": 127}, {"time": 150882, "pitch": 92, "duration": 68, "velocity": 127}, {"time": 150962, "pitch": 46, "duration": 221, "velocity": 105}, {"time": 151203, "pitch": 49, "duration": 217, "velocity": 109}, {"time": 151203, "pitch": 89, "duration": 141, "velocity": 127}, {"time": 151361, "pitch": 88, "duration": 67, "velocity": 121}, {"time": 151440, "pitch": 46, "duration": 217, "velocity": 110}, {"time": 151440, "pitch": 89, "duration": 141, "velocity": 127}, {"time": 151598, "pitch": 88, "duration": 67, "velocity": 118}, {"time": 151677, "pitch": 44, "duration": 221, "velocity": 108}, {"time": 151677, "pitch": 89, "duration": 144, "velocity": 127}, {"time": 151838, "pitch": 92, "duration": 68, "velocity": 127}, {"time": 151918, "pitch": 46, "duration": 221, "velocity": 102}, {"time": 152159, "pitch": 44, "duration": 120, "velocity": 108}, {"time": 152159, "pitch": 60, "duration": 1919, "velocity": 102}, {"time": 152159, "pitch": 63, "duration": 1919, "velocity": 105}, {"time": 152159, "pitch": 68, "duration": 1919, "velocity": 117}, {"time": 152159, "pitch": 87, "duration": 143, "velocity": 127}, {"time": 152319, "pitch": 85, "duration": 69, "velocity": 121}, {"time": 152400, "pitch": 44, "duration": 220, "velocity": 107}, {"time": 152400, "pitch": 87, "duration": 143, "velocity": 127}, {"time": 152560, "pitch": 85, "duration": 68, "velocity": 125}, {"time": 152641, "pitch": 46, "duration": 120, "velocity": 99}, {"time": 152641, "pitch": 87, "duration": 143, "velocity": 127}, {"time": 152801, "pitch": 92, "duration": 68, "velocity": 124}, {"time": 152881, "pitch": 46, "duration": 221, "velocity": 105}, {"time": 153042, "pitch": 87, "duration": 142, "velocity": 127}, {"time": 153122, "pitch": 48, "duration": 119, "velocity": 101}, {"time": 153359, "pitch": 48, "duration": 217, "velocity": 107}, {"time": 153596, "pitch": 44, "duration": 121, "velocity": 111}, {"time": 153837, "pitch": 44, "duration": 221, "velocity": 106}, {"time": 154078, "pitch": 41, "duration": 120, "velocity": 103}, {"time": 154078, "pitch": 60, "duration": 1919, "velocity": 107}, {"time": 154078, "pitch": 65, "duration": 1919, "velocity": 105}, {"time": 154078, "pitch": 69, "duration": 1919, "velocity": 118}, {"time": 154078, "pitch": 81, "duration": 143, "velocity": 127}, {"time": 154078, "pitch": 93, "duration": 143, "velocity": 127}, {"time": 154239, "pitch": 77, "duration": 68, "velocity": 122}, {"time": 154239, "pitch": 89, "duration": 68, "velocity": 122}, {"time": 154319, "pitch": 41, "duration": 120, "velocity": 111}, {"time": 154319, "pitch": 81, "duration": 143, "velocity": 127}, {"time": 154319, "pitch": 93, "duration": 143, "velocity": 127}, {"time": 154479, "pitch": 77, "duration": 69, "velocity": 124}, {"time": 154479, "pitch": 89, "duration": 69, "velocity": 124}, {"time": 154560, "pitch": 41, "duration": 120, "velocity": 101}, {"time": 154560, "pitch": 81, "duration": 143, "velocity": 127}, {"time": 154560, "pitch": 93, "duration": 143, "velocity": 127}, {"time": 154720, "pitch": 84, "duration": 69, "velocity": 127}, {"time": 154720, "pitch": 96, "duration": 69, "velocity": 127}, {"time": 154801, "pitch": 41, "duration": 120, "velocity": 99}, {"time": 154961, "pitch": 81, "duration": 63, "velocity": 127}, {"time": 154961, "pitch": 93, "duration": 63, "velocity": 127}, {"time": 155041, "pitch": 41, "duration": 121, "velocity": 104}, {"time": 155282, "pitch": 41, "duration": 121, "velocity": 107}, {"time": 155523, "pitch": 41, "duration": 119, "velocity": 104}, {"time": 155760, "pitch": 41, "duration": 119, "velocity": 114}, {"time": 155997, "pitch": 42, "duration": 121, "velocity": 108}, {"time": 155997, "pitch": 58, "duration": 964, "velocity": 107}, {"time": 155997, "pitch": 61, "duration": 964, "velocity": 113}, {"time": 155997, "pitch": 66, "duration": 964, "velocity": 118}, {"time": 155997, "pitch": 82, "duration": 144, "velocity": 127}, {"time": 155997, "pitch": 94, "duration": 144, "velocity": 127}, {"time": 156158, "pitch": 78, "duration": 68, "velocity": 122}, {"time": 156158, "pitch": 90, "duration": 68, "velocity": 122}, {"time": 156238, "pitch": 42, "duration": 120, "velocity": 111}, {"time": 156238, "pitch": 82, "duration": 144, "velocity": 127}, {"time": 156238, "pitch": 94, "duration": 144, "velocity": 127}, {"time": 156399, "pitch": 78, "duration": 68, "velocity": 124}, {"time": 156399, "pitch": 90, "duration": 68, "velocity": 124}, {"time": 156479, "pitch": 42, "duration": 120, "velocity": 106}, {"time": 156479, "pitch": 82, "duration": 143, "velocity": 127}, {"time": 156479, "pitch": 94, "duration": 143, "velocity": 127}, {"time": 156639, "pitch": 85, "duration": 69, "velocity": 127}, {"time": 156639, "pitch": 97, "duration": 69, "velocity": 127}, {"time": 156720, "pitch": 42, "duration": 120, "velocity": 107}, {"time": 156880, "pitch": 84, "duration": 64, "velocity": 127}, {"time": 156880, "pitch": 96, "duration": 64, "velocity": 127}, {"time": 156961, "pitch": 44, "duration": 120, "velocity": 107}, {"time": 156961, "pitch": 60, "duration": 963, "velocity": 104}, {"time": 156961, "pitch": 63, "duration": 963, "velocity": 111}, {"time": 156961, "pitch": 68, "duration": 963, "velocity": 114}, {"time": 157202, "pitch": 44, "duration": 120, "velocity": 102}, {"time": 157442, "pitch": 44, "duration": 121, "velocity": 107}, {"time": 157683, "pitch": 44, "duration": 121, "velocity": 105}, {"time": 157924, "pitch": 58, "duration": 3839, "velocity": 113}, {"time": 157924, "pitch": 62, "duration": 3839, "velocity": 108}, {"time": 157924, "pitch": 65, "duration": 3839, "velocity": 108}, {"time": 157924, "pitch": 70, "duration": 3839, "velocity": 111}, {"time": 2398, "pitch": 45, "duration": 49, "velocity": 116}, {"time": 2478, "pitch": 46, "duration": 35, "velocity": 121}, {"time": 2561, "pitch": 46, "duration": 57, "velocity": 123}, {"time": 2642, "pitch": 46, "duration": 228, "velocity": 124}, {"time": 2886, "pitch": 46, "duration": 444, "velocity": 125}, {"time": 4002, "pitch": 34, "duration": 48, "velocity": 120}, {"time": 4081, "pitch": 34, "duration": 142, "velocity": 120}, {"time": 4239, "pitch": 34, "duration": 48, "velocity": 118}, {"time": 4318, "pitch": 34, "duration": 120, "velocity": 123}, {"time": 4558, "pitch": 34, "duration": 121, "velocity": 121}, {"time": 4799, "pitch": 34, "duration": 362, "velocity": 121}, {"time": 5201, "pitch": 34, "duration": 120, "velocity": 123}, {"time": 5442, "pitch": 34, "duration": 120, "velocity": 123}, {"time": 5683, "pitch": 34, "duration": 80, "velocity": 123}, {"time": 5763, "pitch": 34, "duration": 355, "velocity": 125}, {"time": 6237, "pitch": 34, "duration": 120, "velocity": 124}, {"time": 6478, "pitch": 34, "duration": 120, "velocity": 125}, {"time": 6719, "pitch": 34, "duration": 361, "velocity": 124}, {"time": 7120, "pitch": 34, "duration": 120, "velocity": 125}, {"time": 7361, "pitch": 34, "duration": 120, "velocity": 125}, {"time": 7602, "pitch": 34, "duration": 80, "velocity": 125}, {"time": 7682, "pitch": 34, "duration": 361, "velocity": 121}, {"time": 8164, "pitch": 34, "duration": 118, "velocity": 124}, {"time": 8401, "pitch": 34, "duration": 118, "velocity": 123}, {"time": 8638, "pitch": 34, "duration": 361, "velocity": 123}, {"time": 9039, "pitch": 34, "duration": 121, "velocity": 125}, {"time": 9280, "pitch": 34, "duration": 121, "velocity": 124}, {"time": 9521, "pitch": 34, "duration": 80, "velocity": 123}, {"time": 9601, "pitch": 34, "duration": 362, "velocity": 124}, {"time": 10083, "pitch": 29, "duration": 119, "velocity": 125}, {"time": 10320, "pitch": 29, "duration": 119, "velocity": 125}, {"time": 10557, "pitch": 29, "duration": 361, "velocity": 125}, {"time": 10958, "pitch": 29, "duration": 121, "velocity": 125}, {"time": 11199, "pitch": 29, "duration": 81, "velocity": 124}, {"time": 11280, "pitch": 29, "duration": 80, "velocity": 125}, {"time": 12160, "pitch": 34, "duration": 73, "velocity": 121}, {"time": 12397, "pitch": 34, "duration": 63, "velocity": 122}, {"time": 12476, "pitch": 41, "duration": 153, "velocity": 120}, {"time": 12637, "pitch": 41, "duration": 49, "velocity": 120}, {"time": 12717, "pitch": 34, "duration": 230, "velocity": 125}, {"time": 12958, "pitch": 34, "duration": 109, "velocity": 123}, {"time": 13199, "pitch": 34, "duration": 109, "velocity": 123}, {"time": 13841, "pitch": 39, "duration": 78, "velocity": 122}, {"time": 14082, "pitch": 39, "duration": 74, "velocity": 119}, {"time": 14323, "pitch": 39, "duration": 64, "velocity": 120}, {"time": 14403, "pitch": 34, "duration": 150, "velocity": 122}, {"time": 14561, "pitch": 34, "duration": 49, "velocity": 122}, {"time": 14640, "pitch": 39, "duration": 226, "velocity": 123}, {"time": 14877, "pitch": 39, "duration": 110, "velocity": 125}, {"time": 15118, "pitch": 39, "duration": 109, "velocity": 125}, {"time": 15760, "pitch": 39, "duration": 79, "velocity": 122}, {"time": 16001, "pitch": 34, "duration": 75, "velocity": 119}, {"time": 16242, "pitch": 34, "duration": 64, "velocity": 122}, {"time": 16322, "pitch": 41, "duration": 150, "velocity": 122}, {"time": 16480, "pitch": 41, "duration": 49, "velocity": 120}, {"time": 16559, "pitch": 34, "duration": 227, "velocity": 124}, {"time": 16796, "pitch": 34, "duration": 110, "velocity": 121}, {"time": 17037, "pitch": 34, "duration": 110, "velocity": 125}, {"time": 17760, "pitch": 29, "duration": 21, "velocity": 120}, {"time": 17920, "pitch": 29, "duration": 100, "velocity": 118}, {"time": 18161, "pitch": 29, "duration": 75, "velocity": 123}, {"time": 18242, "pitch": 36, "duration": 189, "velocity": 121}, {"time": 18482, "pitch": 29, "duration": 185, "velocity": 123}, {"time": 18723, "pitch": 41, "duration": 108, "velocity": 121}, {"time": 18960, "pitch": 41, "duration": 108, "velocity": 124}, {"time": 19599, "pitch": 41, "duration": 78, "velocity": 120}, {"time": 19840, "pitch": 34, "duration": 74, "velocity": 120}, {"time": 20081, "pitch": 34, "duration": 64, "velocity": 120}, {"time": 20161, "pitch": 41, "duration": 152, "velocity": 120}, {"time": 20321, "pitch": 41, "duration": 50, "velocity": 121}, {"time": 20402, "pitch": 34, "duration": 230, "velocity": 125}, {"time": 20643, "pitch": 34, "duration": 107, "velocity": 123}, {"time": 20880, "pitch": 34, "duration": 107, "velocity": 123}, {"time": 21518, "pitch": 39, "duration": 78, "velocity": 120}, {"time": 21759, "pitch": 39, "duration": 74, "velocity": 119}, {"time": 22000, "pitch": 39, "duration": 64, "velocity": 120}, {"time": 22080, "pitch": 34, "duration": 153, "velocity": 121}, {"time": 22241, "pitch": 34, "duration": 49, "velocity": 122}, {"time": 22321, "pitch": 39, "duration": 230, "velocity": 121}, {"time": 22562, "pitch": 39, "duration": 109, "velocity": 123}, {"time": 22803, "pitch": 39, "duration": 109, "velocity": 125}, {"time": 23438, "pitch": 39, "duration": 78, "velocity": 119}, {"time": 23678, "pitch": 34, "duration": 74, "velocity": 120}, {"time": 23919, "pitch": 34, "duration": 64, "velocity": 120}, {"time": 23999, "pitch": 41, "duration": 153, "velocity": 120}, {"time": 24160, "pitch": 41, "duration": 49, "velocity": 121}, {"time": 24240, "pitch": 34, "duration": 230, "velocity": 125}, {"time": 24481, "pitch": 41, "duration": 109, "velocity": 121}, {"time": 24722, "pitch": 41, "duration": 109, "velocity": 124}, {"time": 25358, "pitch": 34, "duration": 77, "velocity": 120}, {"time": 25597, "pitch": 34, "duration": 74, "velocity": 121}, {"time": 25838, "pitch": 34, "duration": 64, "velocity": 123}, {"time": 25918, "pitch": 41, "duration": 153, "velocity": 122}, {"time": 26079, "pitch": 41, "duration": 49, "velocity": 120}, {"time": 26159, "pitch": 34, "duration": 230, "velocity": 125}, {"time": 26400, "pitch": 34, "duration": 110, "velocity": 125}, {"time": 26641, "pitch": 34, "duration": 109, "velocity": 125}, {"time": 27364, "pitch": 27, "duration": 118, "velocity": 123}, {"time": 27601, "pitch": 27, "duration": 118, "velocity": 124}, {"time": 27838, "pitch": 27, "duration": 120, "velocity": 125}, {"time": 28078, "pitch": 27, "duration": 121, "velocity": 121}, {"time": 28319, "pitch": 27, "duration": 121, "velocity": 123}, {"time": 28560, "pitch": 27, "duration": 101, "velocity": 121}, {"time": 28681, "pitch": 39, "duration": 341, "velocity": 125}, {"time": 29042, "pitch": 27, "duration": 120, "velocity": 125}, {"time": 29283, "pitch": 34, "duration": 118, "velocity": 121}, {"time": 29520, "pitch": 34, "duration": 118, "velocity": 121}, {"time": 29757, "pitch": 34, "duration": 221, "velocity": 123}, {"time": 30158, "pitch": 34, "duration": 121, "velocity": 125}, {"time": 30399, "pitch": 34, "duration": 121, "velocity": 121}, {"time": 30640, "pitch": 34, "duration": 80, "velocity": 124}, {"time": 30720, "pitch": 34, "duration": 362, "velocity": 124}, {"time": 31202, "pitch": 36, "duration": 121, "velocity": 121}, {"time": 31443, "pitch": 36, "duration": 120, "velocity": 125}, {"time": 31684, "pitch": 36, "duration": 217, "velocity": 123}, {"time": 32079, "pitch": 36, "duration": 119, "velocity": 123}, {"time": 32318, "pitch": 36, "duration": 121, "velocity": 125}, {"time": 32559, "pitch": 36, "duration": 81, "velocity": 125}, {"time": 32640, "pitch": 36, "duration": 361, "velocity": 125}, {"time": 33121, "pitch": 29, "duration": 121, "velocity": 125}, {"time": 33362, "pitch": 29, "duration": 121, "velocity": 123}, {"time": 33603, "pitch": 29, "duration": 356, "velocity": 123}, {"time": 33998, "pitch": 29, "duration": 119, "velocity": 121}, {"time": 34238, "pitch": 29, "duration": 80, "velocity": 123}, {"time": 34318, "pitch": 29, "duration": 80, "velocity": 121}, {"time": 35040, "pitch": 34, "duration": 121, "velocity": 125}, {"time": 35281, "pitch": 34, "duration": 121, "velocity": 124}, {"time": 35522, "pitch": 34, "duration": 217, "velocity": 124}, {"time": 35917, "pitch": 34, "duration": 119, "velocity": 121}, {"time": 36157, "pitch": 34, "duration": 120, "velocity": 123}, {"time": 36398, "pitch": 34, "duration": 80, "velocity": 125}, {"time": 36478, "pitch": 34, "duration": 361, "velocity": 121}, {"time": 36960, "pitch": 38, "duration": 120, "velocity": 123}, {"time": 37201, "pitch": 38, "duration": 120, "velocity": 121}, {"time": 37441, "pitch": 38, "duration": 221, "velocity": 121}, {"time": 37843, "pitch": 31, "duration": 120, "velocity": 125}, {"time": 38081, "pitch": 31, "duration": 119, "velocity": 124}, {"time": 38318, "pitch": 31, "duration": 79, "velocity": 125}, {"time": 38397, "pitch": 39, "duration": 361, "velocity": 123}, {"time": 38879, "pitch": 34, "duration": 120, "velocity": 125}, {"time": 39120, "pitch": 34, "duration": 120, "velocity": 124}, {"time": 39361, "pitch": 34, "duration": 220, "velocity": 123}, {"time": 39762, "pitch": 36, "duration": 120, "velocity": 123}, {"time": 40000, "pitch": 36, "duration": 119, "velocity": 124}, {"time": 40237, "pitch": 36, "duration": 79, "velocity": 121}, {"time": 40316, "pitch": 36, "duration": 362, "velocity": 124}, {"time": 40798, "pitch": 29, "duration": 121, "velocity": 123}, {"time": 41039, "pitch": 29, "duration": 120, "velocity": 121}, {"time": 41280, "pitch": 29, "duration": 221, "velocity": 125}, {"time": 41681, "pitch": 34, "duration": 121, "velocity": 124}, {"time": 41922, "pitch": 34, "duration": 121, "velocity": 123}, {"time": 42163, "pitch": 34, "duration": 80, "velocity": 124}, {"time": 42243, "pitch": 34, "duration": 356, "velocity": 120}, {"time": 42717, "pitch": 34, "duration": 121, "velocity": 125}, {"time": 42958, "pitch": 34, "duration": 121, "velocity": 124}, {"time": 43199, "pitch": 34, "duration": 221, "velocity": 124}, {"time": 43601, "pitch": 34, "duration": 120, "velocity": 124}, {"time": 43841, "pitch": 34, "duration": 121, "velocity": 124}, {"time": 44082, "pitch": 34, "duration": 81, "velocity": 125}, {"time": 44163, "pitch": 34, "duration": 355, "velocity": 121}, {"time": 44637, "pitch": 38, "duration": 120, "velocity": 123}, {"time": 44877, "pitch": 38, "duration": 121, "velocity": 123}, {"time": 45118, "pitch": 38, "duration": 221, "velocity": 124}, {"time": 45520, "pitch": 31, "duration": 120, "velocity": 123}, {"time": 45761, "pitch": 31, "duration": 120, "velocity": 124}, {"time": 46001, "pitch": 31, "duration": 81, "velocity": 123}, {"time": 46082, "pitch": 39, "duration": 361, "velocity": 123}, {"time": 46563, "pitch": 34, "duration": 119, "velocity": 123}, {"time": 46800, "pitch": 34, "duration": 119, "velocity": 124}, {"time": 47037, "pitch": 34, "duration": 221, "velocity": 123}, {"time": 47439, "pitch": 36, "duration": 120, "velocity": 124}, {"time": 47680, "pitch": 36, "duration": 120, "velocity": 123}, {"time": 47921, "pitch": 36, "duration": 80, "velocity": 121}, {"time": 48001, "pitch": 36, "duration": 361, "velocity": 123}, {"time": 48483, "pitch": 29, "duration": 118, "velocity": 121}, {"time": 48720, "pitch": 29, "duration": 118, "velocity": 125}, {"time": 48957, "pitch": 29, "duration": 220, "velocity": 121}, {"time": 49358, "pitch": 34, "duration": 121, "velocity": 123}, {"time": 49599, "pitch": 34, "duration": 120, "velocity": 124}, {"time": 49840, "pitch": 34, "duration": 80, "velocity": 123}, {"time": 49920, "pitch": 34, "duration": 361, "velocity": 123}, {"time": 50402, "pitch": 37, "duration": 221, "velocity": 123}, {"time": 50643, "pitch": 34, "duration": 221, "velocity": 124}, {"time": 50884, "pitch": 32, "duration": 217, "velocity": 123}, {"time": 51121, "pitch": 34, "duration": 217, "velocity": 121}, {"time": 51358, "pitch": 37, "duration": 220, "velocity": 124}, {"time": 51598, "pitch": 34, "duration": 221, "velocity": 121}, {"time": 51839, "pitch": 32, "duration": 221, "velocity": 124}, {"time": 52080, "pitch": 34, "duration": 221, "velocity": 123}, {"time": 52321, "pitch": 32, "duration": 121, "velocity": 125}, {"time": 52562, "pitch": 32, "duration": 221, "velocity": 125}, {"time": 52803, "pitch": 34, "duration": 118, "velocity": 122}, {"time": 53040, "pitch": 34, "duration": 217, "velocity": 125}, {"time": 53277, "pitch": 36, "duration": 120, "velocity": 123}, {"time": 53518, "pitch": 36, "duration": 220, "velocity": 124}, {"time": 53759, "pitch": 32, "duration": 120, "velocity": 121}, {"time": 53999, "pitch": 32, "duration": 221, "velocity": 124}, {"time": 54240, "pitch": 29, "duration": 121, "velocity": 124}, {"time": 54481, "pitch": 29, "duration": 121, "velocity": 123}, {"time": 54722, "pitch": 29, "duration": 121, "velocity": 120}, {"time": 54963, "pitch": 29, "duration": 120, "velocity": 122}, {"time": 55204, "pitch": 29, "duration": 118, "velocity": 121}, {"time": 55441, "pitch": 29, "duration": 118, "velocity": 123}, {"time": 55678, "pitch": 29, "duration": 120, "velocity": 123}, {"time": 55919, "pitch": 29, "duration": 120, "velocity": 125}, {"time": 56160, "pitch": 30, "duration": 120, "velocity": 121}, {"time": 56400, "pitch": 30, "duration": 121, "velocity": 123}, {"time": 56641, "pitch": 30, "duration": 121, "velocity": 121}, {"time": 56882, "pitch": 30, "duration": 121, "velocity": 123}, {"time": 57123, "pitch": 32, "duration": 119, "velocity": 123}, {"time": 57360, "pitch": 32, "duration": 119, "velocity": 124}, {"time": 57597, "pitch": 32, "duration": 120, "velocity": 124}, {"time": 57838, "pitch": 32, "duration": 120, "velocity": 123}, {"time": 58239, "pitch": 34, "duration": 75, "velocity": 121}, {"time": 58480, "pitch": 34, "duration": 64, "velocity": 120}, {"time": 58560, "pitch": 41, "duration": 153, "velocity": 121}, {"time": 58721, "pitch": 41, "duration": 49, "velocity": 122}, {"time": 58801, "pitch": 34, "duration": 230, "velocity": 124}, {"time": 59042, "pitch": 34, "duration": 108, "velocity": 124}, {"time": 59279, "pitch": 34, "duration": 108, "velocity": 123}, {"time": 59918, "pitch": 39, "duration": 78, "velocity": 122}, {"time": 60159, "pitch": 39, "duration": 74, "velocity": 121}, {"time": 60399, "pitch": 39, "duration": 65, "velocity": 122}, {"time": 60480, "pitch": 34, "duration": 152, "velocity": 121}, {"time": 60640, "pitch": 34, "duration": 49, "velocity": 122}, {"time": 60721, "pitch": 39, "duration": 229, "velocity": 125}, {"time": 60961, "pitch": 39, "duration": 110, "velocity": 125}, {"time": 61202, "pitch": 39, "duration": 110, "velocity": 125}, {"time": 61838, "pitch": 39, "duration": 77, "velocity": 119}, {"time": 62078, "pitch": 34, "duration": 74, "velocity": 122}, {"time": 62319, "pitch": 34, "duration": 64, "velocity": 124}, {"time": 62399, "pitch": 41, "duration": 152, "velocity": 121}, {"time": 62559, "pitch": 41, "duration": 50, "velocity": 120}, {"time": 62640, "pitch": 34, "duration": 230, "velocity": 123}, {"time": 62881, "pitch": 34, "duration": 109, "velocity": 121}, {"time": 63122, "pitch": 34, "duration": 109, "velocity": 123}, {"time": 63836, "pitch": 29, "duration": 21, "velocity": 122}, {"time": 63997, "pitch": 29, "duration": 99, "velocity": 120}, {"time": 64238, "pitch": 29, "duration": 74, "velocity": 121}, {"time": 64318, "pitch": 36, "duration": 190, "velocity": 118}, {"time": 64559, "pitch": 29, "duration": 185, "velocity": 120}, {"time": 64800, "pitch": 41, "duration": 109, "velocity": 123}, {"time": 65041, "pitch": 41, "duration": 109, "velocity": 124}, {"time": 65683, "pitch": 41, "duration": 78, "velocity": 121}, {"time": 65921, "pitch": 34, "duration": 73, "velocity": 121}, {"time": 66158, "pitch": 34, "duration": 64, "velocity": 120}, {"time": 66237, "pitch": 41, "duration": 153, "velocity": 122}, {"time": 66398, "pitch": 41, "duration": 49, "velocity": 120}, {"time": 66478, "pitch": 34, "duration": 230, "velocity": 121}, {"time": 66719, "pitch": 34, "duration": 109, "velocity": 123}, {"time": 66960, "pitch": 34, "duration": 109, "velocity": 124}, {"time": 67602, "pitch": 39, "duration": 79, "velocity": 119}, {"time": 67841, "pitch": 39, "duration": 73, "velocity": 121}, {"time": 68078, "pitch": 39, "duration": 63, "velocity": 124}, {"time": 68157, "pitch": 34, "duration": 152, "velocity": 120}, {"time": 68317, "pitch": 34, "duration": 49, "velocity": 122}, {"time": 68397, "pitch": 39, "duration": 230, "velocity": 123}, {"time": 68638, "pitch": 39, "duration": 110, "velocity": 125}, {"time": 68879, "pitch": 39, "duration": 110, "velocity": 124}, {"time": 69521, "pitch": 39, "duration": 79, "velocity": 119}, {"time": 69762, "pitch": 34, "duration": 75, "velocity": 119}, {"time": 70003, "pitch": 34, "duration": 64, "velocity": 124}, {"time": 70083, "pitch": 41, "duration": 151, "velocity": 122}, {"time": 70241, "pitch": 41, "duration": 49, "velocity": 122}, {"time": 70320, "pitch": 34, "duration": 227, "velocity": 121}, {"time": 70557, "pitch": 41, "duration": 110, "velocity": 124}, {"time": 70798, "pitch": 41, "duration": 110, "velocity": 123}, {"time": 71441, "pitch": 34, "duration": 78, "velocity": 120}, {"time": 71682, "pitch": 34, "duration": 74, "velocity": 119}, {"time": 71922, "pitch": 34, "duration": 65, "velocity": 120}, {"time": 72003, "pitch": 41, "duration": 150, "velocity": 119}, {"time": 72161, "pitch": 41, "duration": 48, "velocity": 120}, {"time": 72240, "pitch": 34, "duration": 226, "velocity": 121}, {"time": 72477, "pitch": 34, "duration": 109, "velocity": 125}, {"time": 72718, "pitch": 34, "duration": 109, "velocity": 121}, {"time": 73440, "pitch": 27, "duration": 121, "velocity": 125}, {"time": 73681, "pitch": 27, "duration": 120, "velocity": 124}, {"time": 73922, "pitch": 27, "duration": 120, "velocity": 123}, {"time": 74163, "pitch": 27, "duration": 120, "velocity": 121}, {"time": 74404, "pitch": 27, "duration": 118, "velocity": 121}, {"time": 74641, "pitch": 27, "duration": 98, "velocity": 124}, {"time": 74759, "pitch": 39, "duration": 339, "velocity": 123}, {"time": 75118, "pitch": 27, "duration": 121, "velocity": 124}, {"time": 75359, "pitch": 34, "duration": 121, "velocity": 125}, {"time": 75600, "pitch": 34, "duration": 121, "velocity": 123}, {"time": 75841, "pitch": 34, "duration": 221, "velocity": 121}, {"time": 76243, "pitch": 34, "duration": 119, "velocity": 123}, {"time": 76481, "pitch": 34, "duration": 118, "velocity": 121}, {"time": 76718, "pitch": 34, "duration": 79, "velocity": 121}, {"time": 76797, "pitch": 34, "duration": 361, "velocity": 121}, {"time": 77279, "pitch": 36, "duration": 120, "velocity": 125}, {"time": 77519, "pitch": 36, "duration": 121, "velocity": 125}, {"time": 77760, "pitch": 36, "duration": 221, "velocity": 124}, {"time": 78162, "pitch": 36, "duration": 120, "velocity": 125}, {"time": 78403, "pitch": 36, "duration": 120, "velocity": 124}, {"time": 78644, "pitch": 36, "duration": 80, "velocity": 121}, {"time": 78724, "pitch": 36, "duration": 355, "velocity": 123}, {"time": 79198, "pitch": 29, "duration": 120, "velocity": 121}, {"time": 79439, "pitch": 29, "duration": 120, "velocity": 121}, {"time": 79680, "pitch": 29, "duration": 361, "velocity": 121}, {"time": 80081, "pitch": 29, "duration": 120, "velocity": 121}, {"time": 80322, "pitch": 29, "duration": 80, "velocity": 121}, {"time": 80402, "pitch": 29, "duration": 80, "velocity": 125}, {"time": 81117, "pitch": 34, "duration": 120, "velocity": 125}, {"time": 81358, "pitch": 34, "duration": 120, "velocity": 125}, {"time": 81599, "pitch": 34, "duration": 221, "velocity": 125}, {"time": 82000, "pitch": 34, "duration": 121, "velocity": 121}, {"time": 82241, "pitch": 34, "duration": 121, "velocity": 121}, {"time": 82482, "pitch": 34, "duration": 80, "velocity": 121}, {"time": 82562, "pitch": 34, "duration": 356, "velocity": 124}, {"time": 83036, "pitch": 38, "duration": 121, "velocity": 124}, {"time": 83277, "pitch": 38, "duration": 120, "velocity": 121}, {"time": 83518, "pitch": 38, "duration": 221, "velocity": 121}, {"time": 83919, "pitch": 31, "duration": 121, "velocity": 121}, {"time": 84160, "pitch": 31, "duration": 121, "velocity": 121}, {"time": 84401, "pitch": 31, "duration": 80, "velocity": 121}, {"time": 84481, "pitch": 39, "duration": 362, "velocity": 125}, {"time": 84963, "pitch": 34, "duration": 119, "velocity": 125}, {"time": 85200, "pitch": 34, "duration": 119, "velocity": 121}, {"time": 85437, "pitch": 34, "duration": 221, "velocity": 124}, {"time": 85839, "pitch": 36, "duration": 120, "velocity": 121}, {"time": 86079, "pitch": 36, "duration": 121, "velocity": 123}, {"time": 86320, "pitch": 36, "duration": 81, "velocity": 123}, {"time": 86401, "pitch": 36, "duration": 361, "velocity": 121}, {"time": 86882, "pitch": 29, "duration": 119, "velocity": 125}, {"time": 87119, "pitch": 29, "duration": 119, "velocity": 125}, {"time": 87356, "pitch": 29, "duration": 221, "velocity": 124}, {"time": 87758, "pitch": 34, "duration": 120, "velocity": 121}, {"time": 87999, "pitch": 34, "duration": 120, "velocity": 125}, {"time": 88240, "pitch": 34, "duration": 80, "velocity": 125}, {"time": 88320, "pitch": 34, "duration": 361, "velocity": 122}, {"time": 88802, "pitch": 34, "duration": 120, "velocity": 125}, {"time": 89043, "pitch": 34, "duration": 120, "velocity": 124}, {"time": 89283, "pitch": 34, "duration": 218, "velocity": 121}, {"time": 89678, "pitch": 34, "duration": 119, "velocity": 121}, {"time": 89918, "pitch": 34, "duration": 120, "velocity": 124}, {"time": 90159, "pitch": 34, "duration": 80, "velocity": 125}, {"time": 90239, "pitch": 34, "duration": 361, "velocity": 124}, {"time": 90721, "pitch": 38, "duration": 120, "velocity": 124}, {"time": 90962, "pitch": 38, "duration": 120, "velocity": 125}, {"time": 91203, "pitch": 38, "duration": 217, "velocity": 124}, {"time": 91598, "pitch": 31, "duration": 119, "velocity": 123}, {"time": 91837, "pitch": 31, "duration": 121, "velocity": 124}, {"time": 92078, "pitch": 31, "duration": 80, "velocity": 125}, {"time": 92158, "pitch": 39, "duration": 362, "velocity": 121}, {"time": 92640, "pitch": 34, "duration": 120, "velocity": 125}, {"time": 92881, "pitch": 34, "duration": 120, "velocity": 121}, {"time": 93122, "pitch": 34, "duration": 221, "velocity": 124}, {"time": 93523, "pitch": 36, "duration": 120, "velocity": 124}, {"time": 93761, "pitch": 36, "duration": 119, "velocity": 121}, {"time": 93998, "pitch": 36, "duration": 79, "velocity": 123}, {"time": 94077, "pitch": 36, "duration": 362, "velocity": 123}, {"time": 94559, "pitch": 29, "duration": 121, "velocity": 121}, {"time": 94800, "pitch": 29, "duration": 121, "velocity": 124}, {"time": 95041, "pitch": 29, "duration": 221, "velocity": 125}, {"time": 95442, "pitch": 34, "duration": 120, "velocity": 123}, {"time": 95681, "pitch": 34, "duration": 118, "velocity": 124}, {"time": 95918, "pitch": 34, "duration": 79, "velocity": 125}, {"time": 95997, "pitch": 34, "duration": 361, "velocity": 123}, {"time": 96478, "pitch": 34, "duration": 121, "velocity": 124}, {"time": 96719, "pitch": 34, "duration": 121, "velocity": 123}, {"time": 96960, "pitch": 34, "duration": 362, "velocity": 121}, {"time": 97362, "pitch": 34, "duration": 120, "velocity": 121}, {"time": 97603, "pitch": 34, "duration": 120, "velocity": 125}, {"time": 97843, "pitch": 34, "duration": 81, "velocity": 124}, {"time": 97924, "pitch": 34, "duration": 355, "velocity": 121}, {"time": 98398, "pitch": 34, "duration": 120, "velocity": 124}, {"time": 98638, "pitch": 34, "duration": 121, "velocity": 121}, {"time": 98879, "pitch": 34, "duration": 362, "velocity": 123}, {"time": 99281, "pitch": 34, "duration": 120, "velocity": 123}, {"time": 99522, "pitch": 34, "duration": 120, "velocity": 124}, {"time": 99763, "pitch": 34, "duration": 80, "velocity": 121}, {"time": 99843, "pitch": 34, "duration": 355, "velocity": 125}, {"time": 100317, "pitch": 34, "duration": 120, "velocity": 125}, {"time": 100558, "pitch": 34, "duration": 120, "velocity": 125}, {"time": 100799, "pitch": 34, "duration": 361, "velocity": 124}, {"time": 101200, "pitch": 34, "duration": 120, "velocity": 121}, {"time": 101441, "pitch": 34, "duration": 120, "velocity": 124}, {"time": 101682, "pitch": 34, "duration": 80, "velocity": 125}, {"time": 101762, "pitch": 34, "duration": 361, "velocity": 121}, {"time": 102244, "pitch": 29, "duration": 118, "velocity": 124}, {"time": 102481, "pitch": 29, "duration": 118, "velocity": 123}, {"time": 102718, "pitch": 29, "duration": 361, "velocity": 121}, {"time": 103119, "pitch": 29, "duration": 121, "velocity": 123}, {"time": 103360, "pitch": 29, "duration": 80, "velocity": 125}, {"time": 103440, "pitch": 29, "duration": 81, "velocity": 121}, {"time": 104321, "pitch": 34, "duration": 73, "velocity": 121}, {"time": 104558, "pitch": 34, "duration": 63, "velocity": 122}, {"time": 104637, "pitch": 41, "duration": 153, "velocity": 122}, {"time": 104798, "pitch": 41, "duration": 49, "velocity": 121}, {"time": 104878, "pitch": 34, "duration": 230, "velocity": 121}, {"time": 105119, "pitch": 34, "duration": 109, "velocity": 121}, {"time": 105360, "pitch": 34, "duration": 109, "velocity": 121}, {"time": 106002, "pitch": 39, "duration": 78, "velocity": 120}, {"time": 106240, "pitch": 39, "duration": 73, "velocity": 119}, {"time": 106477, "pitch": 39, "duration": 63, "velocity": 122}, {"time": 106556, "pitch": 34, "duration": 153, "velocity": 122}, {"time": 106717, "pitch": 34, "duration": 49, "velocity": 122}, {"time": 106797, "pitch": 39, "duration": 230, "velocity": 125}, {"time": 107038, "pitch": 39, "duration": 109, "velocity": 123}, {"time": 107279, "pitch": 39, "duration": 109, "velocity": 125}, {"time": 107921, "pitch": 39, "duration": 78, "velocity": 121}, {"time": 108162, "pitch": 34, "duration": 74, "velocity": 121}, {"time": 108403, "pitch": 34, "duration": 64, "velocity": 123}, {"time": 108483, "pitch": 41, "duration": 150, "velocity": 122}, {"time": 108641, "pitch": 41, "duration": 49, "velocity": 121}, {"time": 108720, "pitch": 34, "duration": 226, "velocity": 124}, {"time": 108957, "pitch": 34, "duration": 110, "velocity": 123}, {"time": 109198, "pitch": 34, "duration": 109, "velocity": 123}, {"time": 109921, "pitch": 29, "duration": 21, "velocity": 119}, {"time": 110081, "pitch": 29, "duration": 100, "velocity": 121}, {"time": 110322, "pitch": 29, "duration": 74, "velocity": 123}, {"time": 110402, "pitch": 36, "duration": 187, "velocity": 118}, {"time": 110639, "pitch": 29, "duration": 182, "velocity": 120}, {"time": 110876, "pitch": 41, "duration": 110, "velocity": 124}, {"time": 111117, "pitch": 41, "duration": 110, "velocity": 124}, {"time": 111760, "pitch": 41, "duration": 78, "velocity": 120}, {"time": 112000, "pitch": 34, "duration": 75, "velocity": 120}, {"time": 112241, "pitch": 34, "duration": 65, "velocity": 120}, {"time": 112322, "pitch": 41, "duration": 152, "velocity": 120}, {"time": 112482, "pitch": 41, "duration": 49, "velocity": 120}, {"time": 112563, "pitch": 34, "duration": 229, "velocity": 121}, {"time": 112803, "pitch": 34, "duration": 108, "velocity": 124}, {"time": 113040, "pitch": 34, "duration": 108, "velocity": 121}, {"time": 113679, "pitch": 39, "duration": 78, "velocity": 119}, {"time": 113920, "pitch": 39, "duration": 74, "velocity": 120}, {"time": 114161, "pitch": 39, "duration": 64, "velocity": 124}, {"time": 114241, "pitch": 34, "duration": 152, "velocity": 122}, {"time": 114401, "pitch": 34, "duration": 50, "velocity": 120}, {"time": 114482, "pitch": 39, "duration": 230, "velocity": 121}, {"time": 114723, "pitch": 39, "duration": 107, "velocity": 124}, {"time": 114960, "pitch": 39, "duration": 107, "velocity": 123}, {"time": 115598, "pitch": 39, "duration": 78, "velocity": 119}, {"time": 115839, "pitch": 34, "duration": 74, "velocity": 121}, {"time": 116080, "pitch": 34, "duration": 64, "velocity": 122}, {"time": 116160, "pitch": 41, "duration": 153, "velocity": 120}, {"time": 116321, "pitch": 41, "duration": 49, "velocity": 122}, {"time": 116401, "pitch": 34, "duration": 230, "velocity": 125}, {"time": 116642, "pitch": 41, "duration": 109, "velocity": 123}, {"time": 116883, "pitch": 41, "duration": 109, "velocity": 121}, {"time": 117518, "pitch": 34, "duration": 78, "velocity": 120}, {"time": 117758, "pitch": 34, "duration": 74, "velocity": 120}, {"time": 117999, "pitch": 34, "duration": 64, "velocity": 122}, {"time": 118079, "pitch": 41, "duration": 153, "velocity": 122}, {"time": 118240, "pitch": 41, "duration": 49, "velocity": 120}, {"time": 118320, "pitch": 34, "duration": 230, "velocity": 125}, {"time": 118561, "pitch": 34, "duration": 109, "velocity": 121}, {"time": 118802, "pitch": 34, "duration": 109, "velocity": 124}, {"time": 119517, "pitch": 27, "duration": 120, "velocity": 121}, {"time": 119758, "pitch": 27, "duration": 120, "velocity": 121}, {"time": 119998, "pitch": 27, "duration": 121, "velocity": 124}, {"time": 120239, "pitch": 27, "duration": 121, "velocity": 124}, {"time": 120480, "pitch": 27, "duration": 121, "velocity": 125}, {"time": 120721, "pitch": 27, "duration": 100, "velocity": 125}, {"time": 120842, "pitch": 39, "duration": 341, "velocity": 121}, {"time": 121203, "pitch": 27, "duration": 120, "velocity": 121}, {"time": 121444, "pitch": 34, "duration": 118, "velocity": 124}, {"time": 121681, "pitch": 34, "duration": 118, "velocity": 123}, {"time": 121918, "pitch": 34, "duration": 220, "velocity": 124}, {"time": 122319, "pitch": 34, "duration": 121, "velocity": 121}, {"time": 122560, "pitch": 34, "duration": 120, "velocity": 123}, {"time": 122801, "pitch": 34, "duration": 80, "velocity": 124}, {"time": 122881, "pitch": 34, "duration": 361, "velocity": 124}, {"time": 123363, "pitch": 36, "duration": 118, "velocity": 125}, {"time": 123600, "pitch": 36, "duration": 118, "velocity": 125}, {"time": 123837, "pitch": 36, "duration": 221, "velocity": 121}, {"time": 124238, "pitch": 36, "duration": 121, "velocity": 124}, {"time": 124479, "pitch": 36, "duration": 121, "velocity": 124}, {"time": 124720, "pitch": 36, "duration": 80, "velocity": 124}, {"time": 124800, "pitch": 36, "duration": 362, "velocity": 123}, {"time": 125282, "pitch": 29, "duration": 121, "velocity": 125}, {"time": 125523, "pitch": 29, "duration": 120, "velocity": 125}, {"time": 125764, "pitch": 29, "duration": 355, "velocity": 123}, {"time": 126159, "pitch": 29, "duration": 119, "velocity": 125}, {"time": 126398, "pitch": 29, "duration": 81, "velocity": 124}, {"time": 126479, "pitch": 29, "duration": 80, "velocity": 124}, {"time": 127201, "pitch": 34, "duration": 121, "velocity": 123}, {"time": 127442, "pitch": 34, "duration": 121, "velocity": 121}, {"time": 127683, "pitch": 34, "duration": 217, "velocity": 121}, {"time": 128078, "pitch": 34, "duration": 119, "velocity": 123}, {"time": 128318, "pitch": 34, "duration": 120, "velocity": 124}, {"time": 128558, "pitch": 34, "duration": 81, "velocity": 121}, {"time": 128639, "pitch": 34, "duration": 361, "velocity": 121}, {"time": 129121, "pitch": 38, "duration": 120, "velocity": 121}, {"time": 129361, "pitch": 38, "duration": 121, "velocity": 124}, {"time": 129602, "pitch": 38, "duration": 217, "velocity": 125}, {"time": 129997, "pitch": 31, "duration": 119, "velocity": 125}, {"time": 130237, "pitch": 31, "duration": 120, "velocity": 124}, {"time": 130478, "pitch": 31, "duration": 80, "velocity": 125}, {"time": 130558, "pitch": 39, "duration": 361, "velocity": 123}, {"time": 131040, "pitch": 34, "duration": 120, "velocity": 124}, {"time": 131281, "pitch": 34, "duration": 120, "velocity": 124}, {"time": 131521, "pitch": 34, "duration": 221, "velocity": 125}, {"time": 131923, "pitch": 36, "duration": 120, "velocity": 125}, {"time": 132161, "pitch": 36, "duration": 119, "velocity": 123}, {"time": 132398, "pitch": 36, "duration": 79, "velocity": 124}, {"time": 132477, "pitch": 36, "duration": 361, "velocity": 125}, {"time": 132959, "pitch": 29, "duration": 120, "velocity": 123}, {"time": 133200, "pitch": 29, "duration": 120, "velocity": 123}, {"time": 133441, "pitch": 29, "duration": 220, "velocity": 125}, {"time": 133842, "pitch": 34, "duration": 120, "velocity": 124}, {"time": 134080, "pitch": 34, "duration": 119, "velocity": 125}, {"time": 134317, "pitch": 34, "duration": 79, "velocity": 124}, {"time": 134396, "pitch": 34, "duration": 362, "velocity": 122}, {"time": 134878, "pitch": 34, "duration": 121, "velocity": 123}, {"time": 135119, "pitch": 34, "duration": 120, "velocity": 121}, {"time": 135360, "pitch": 34, "duration": 221, "velocity": 121}, {"time": 135761, "pitch": 34, "duration": 121, "velocity": 123}, {"time": 136002, "pitch": 34, "duration": 121, "velocity": 124}, {"time": 136243, "pitch": 34, "duration": 80, "velocity": 125}, {"time": 136323, "pitch": 34, "duration": 356, "velocity": 124}, {"time": 136797, "pitch": 38, "duration": 121, "velocity": 125}, {"time": 137038, "pitch": 38, "duration": 121, "velocity": 124}, {"time": 137279, "pitch": 38, "duration": 221, "velocity": 124}, {"time": 137681, "pitch": 31, "duration": 120, "velocity": 123}, {"time": 137921, "pitch": 31, "duration": 121, "velocity": 121}, {"time": 138162, "pitch": 31, "duration": 81, "velocity": 121}, {"time": 138243, "pitch": 39, "duration": 355, "velocity": 121}, {"time": 138717, "pitch": 34, "duration": 120, "velocity": 124}, {"time": 138957, "pitch": 34, "duration": 121, "velocity": 125}, {"time": 139198, "pitch": 34, "duration": 221, "velocity": 123}, {"time": 139600, "pitch": 36, "duration": 120, "velocity": 125}, {"time": 139841, "pitch": 36, "duration": 120, "velocity": 121}, {"time": 140081, "pitch": 36, "duration": 81, "velocity": 123}, {"time": 140162, "pitch": 36, "duration": 361, "velocity": 125}, {"time": 140643, "pitch": 29, "duration": 119, "velocity": 121}, {"time": 140880, "pitch": 29, "duration": 119, "velocity": 125}, {"time": 141117, "pitch": 29, "duration": 221, "velocity": 124}, {"time": 141519, "pitch": 34, "duration": 120, "velocity": 121}, {"time": 141760, "pitch": 34, "duration": 120, "velocity": 125}, {"time": 142001, "pitch": 34, "duration": 80, "velocity": 125}, {"time": 142081, "pitch": 34, "duration": 361, "velocity": 122}, {"time": 142563, "pitch": 37, "duration": 217, "velocity": 124}, {"time": 142800, "pitch": 34, "duration": 217, "velocity": 121}, {"time": 143037, "pitch": 32, "duration": 220, "velocity": 123}, {"time": 143278, "pitch": 34, "duration": 220, "velocity": 125}, {"time": 143518, "pitch": 37, "duration": 221, "velocity": 123}, {"time": 143759, "pitch": 34, "duration": 221, "velocity": 125}, {"time": 144000, "pitch": 32, "duration": 221, "velocity": 125}, {"time": 144241, "pitch": 34, "duration": 221, "velocity": 124}, {"time": 144482, "pitch": 32, "duration": 221, "velocity": 121}, {"time": 144723, "pitch": 32, "duration": 221, "velocity": 123}, {"time": 144964, "pitch": 34, "duration": 217, "velocity": 123}, {"time": 145201, "pitch": 34, "duration": 217, "velocity": 125}, {"time": 145438, "pitch": 36, "duration": 220, "velocity": 124}, {"time": 145678, "pitch": 36, "duration": 221, "velocity": 125}, {"time": 145919, "pitch": 32, "duration": 221, "velocity": 123}, {"time": 146160, "pitch": 32, "duration": 221, "velocity": 124}, {"time": 146401, "pitch": 29, "duration": 121, "velocity": 121}, {"time": 146642, "pitch": 29, "duration": 120, "velocity": 123}, {"time": 146883, "pitch": 29, "duration": 118, "velocity": 120}, {"time": 147120, "pitch": 29, "duration": 118, "velocity": 124}, {"time": 147357, "pitch": 29, "duration": 120, "velocity": 124}, {"time": 147598, "pitch": 29, "duration": 120, "velocity": 123}, {"time": 147839, "pitch": 29, "duration": 120, "velocity": 125}, {"time": 148079, "pitch": 29, "duration": 121, "velocity": 124}, {"time": 148320, "pitch": 30, "duration": 221, "velocity": 125}, {"time": 148561, "pitch": 29, "duration": 221, "velocity": 123}, {"time": 148802, "pitch": 30, "duration": 121, "velocity": 125}, {"time": 149043, "pitch": 30, "duration": 221, "velocity": 123}, {"time": 149284, "pitch": 32, "duration": 217, "velocity": 124}, {"time": 149521, "pitch": 32, "duration": 118, "velocity": 123}, {"time": 149758, "pitch": 32, "duration": 120, "velocity": 125}, {"time": 149999, "pitch": 32, "duration": 220, "velocity": 124}, {"time": 150240, "pitch": 37, "duration": 220, "velocity": 124}, {"time": 150480, "pitch": 34, "duration": 221, "velocity": 121}, {"time": 150721, "pitch": 32, "duration": 221, "velocity": 125}, {"time": 150962, "pitch": 34, "duration": 221, "velocity": 121}, {"time": 151203, "pitch": 37, "duration": 217, "velocity": 123}, {"time": 151440, "pitch": 34, "duration": 217, "velocity": 123}, {"time": 151677, "pitch": 32, "duration": 221, "velocity": 123}, {"time": 151918, "pitch": 34, "duration": 221, "velocity": 123}, {"time": 152159, "pitch": 32, "duration": 120, "velocity": 121}, {"time": 152400, "pitch": 32, "duration": 220, "velocity": 123}, {"time": 152641, "pitch": 34, "duration": 120, "velocity": 120}, {"time": 152881, "pitch": 34, "duration": 221, "velocity": 125}, {"time": 153122, "pitch": 36, "duration": 119, "velocity": 124}, {"time": 153359, "pitch": 36, "duration": 217, "velocity": 124}, {"time": 153596, "pitch": 32, "duration": 121, "velocity": 121}, {"time": 153837, "pitch": 32, "duration": 221, "velocity": 125}, {"time": 154078, "pitch": 29, "duration": 120, "velocity": 121}, {"time": 154319, "pitch": 29, "duration": 120, "velocity": 121}, {"time": 154560, "pitch": 29, "duration": 120, "velocity": 124}, {"time": 154801, "pitch": 29, "duration": 120, "velocity": 122}, {"time": 155041, "pitch": 29, "duration": 121, "velocity": 125}, {"time": 155282, "pitch": 29, "duration": 121, "velocity": 125}, {"time": 155523, "pitch": 29, "duration": 119, "velocity": 125}, {"time": 155760, "pitch": 29, "duration": 119, "velocity": 123}, {"time": 155997, "pitch": 30, "duration": 121, "velocity": 125}, {"time": 156238, "pitch": 30, "duration": 120, "velocity": 123}, {"time": 156479, "pitch": 30, "duration": 120, "velocity": 124}, {"time": 156720, "pitch": 30, "duration": 120, "velocity": 125}, {"time": 156961, "pitch": 32, "duration": 120, "velocity": 123}, {"time": 157202, "pitch": 32, "duration": 120, "velocity": 124}, {"time": 157442, "pitch": 32, "duration": 121, "velocity": 121}, {"time": 157683, "pitch": 32, "duration": 121, "velocity": 121}, {"time": 157924, "pitch": 34, "duration": 3839, "velocity": 123}, {"time": 3602, "pitch": 55, "duration": 72, "velocity": 106}, {"time": 3602, "pitch": 58, "duration": 74, "velocity": 106}, {"time": 3609, "pitch": 63, "duration": 72, "velocity": 106}, {"time": 4001, "pitch": 55, "duration": 2, "velocity": 60}, {"time": 4001, "pitch": 58, "duration": 2, "velocity": 62}, {"time": 4003, "pitch": 63, "duration": 2, "velocity": 64}, {"time": 4081, "pitch": 63, "duration": 73, "velocity": 104}, {"time": 4083, "pitch": 58, "duration": 76, "velocity": 103}, {"time": 4084, "pitch": 55, "duration": 73, "velocity": 104}, {"time": 4558, "pitch": 58, "duration": 101, "velocity": 106}, {"time": 4569, "pitch": 62, "duration": 90, "velocity": 110}, {"time": 4579, "pitch": 65, "duration": 80, "velocity": 113}, {"time": 4589, "pitch": 70, "duration": 70, "velocity": 120}, {"time": 5040, "pitch": 58, "duration": 101, "velocity": 102}, {"time": 5050, "pitch": 62, "duration": 91, "velocity": 106}, {"time": 5060, "pitch": 65, "duration": 81, "velocity": 108}, {"time": 5070, "pitch": 70, "duration": 71, "velocity": 114}, {"time": 5522, "pitch": 58, "duration": 100, "velocity": 107}, {"time": 5532, "pitch": 62, "duration": 90, "velocity": 103}, {"time": 5542, "pitch": 65, "duration": 80, "velocity": 112}, {"time": 5552, "pitch": 70, "duration": 70, "velocity": 119}, {"time": 6000, "pitch": 58, "duration": 99, "velocity": 96}, {"time": 6010, "pitch": 62, "duration": 89, "velocity": 102}, {"time": 6020, "pitch": 65, "duration": 79, "velocity": 113}, {"time": 6029, "pitch": 70, "duration": 70, "velocity": 113}, {"time": 6478, "pitch": 60, "duration": 110, "velocity": 111}, {"time": 6488, "pitch": 65, "duration": 100, "velocity": 111}, {"time": 6498, "pitch": 69, "duration": 90, "velocity": 116}, {"time": 6959, "pitch": 60, "duration": 111, "velocity": 105}, {"time": 6969, "pitch": 65, "duration": 101, "velocity": 114}, {"time": 6980, "pitch": 69, "duration": 90, "velocity": 114}, {"time": 7441, "pitch": 60, "duration": 111, "velocity": 108}, {"time": 7451, "pitch": 65, "duration": 101, "velocity": 108}, {"time": 7461, "pitch": 69, "duration": 91, "velocity": 119}, {"time": 7923, "pitch": 60, "duration": 110, "velocity": 101}, {"time": 7933, "pitch": 65, "duration": 100, "velocity": 109}, {"time": 7943, "pitch": 69, "duration": 90, "velocity": 112}, {"time": 8401, "pitch": 58, "duration": 108, "velocity": 109}, {"time": 8401, "pitch": 63, "duration": 99, "velocity": 108}, {"time": 8411, "pitch": 67, "duration": 89, "velocity": 113}, {"time": 8421, "pitch": 70, "duration": 79, "velocity": 122}, {"time": 8879, "pitch": 58, "duration": 110, "velocity": 104}, {"time": 8879, "pitch": 63, "duration": 100, "velocity": 107}, {"time": 8889, "pitch": 67, "duration": 90, "velocity": 106}, {"time": 8899, "pitch": 70, "duration": 80, "velocity": 115}, {"time": 9360, "pitch": 58, "duration": 111, "velocity": 101}, {"time": 9360, "pitch": 63, "duration": 101, "velocity": 104}, {"time": 9370, "pitch": 67, "duration": 91, "velocity": 116}, {"time": 9380, "pitch": 70, "duration": 81, "velocity": 122}, {"time": 9842, "pitch": 58, "duration": 111, "velocity": 100}, {"time": 9842, "pitch": 63, "duration": 101, "velocity": 109}, {"time": 9852, "pitch": 67, "duration": 91, "velocity": 112}, {"time": 9862, "pitch": 70, "duration": 81, "velocity": 114}, {"time": 10320, "pitch": 60, "duration": 109, "velocity": 105}, {"time": 10330, "pitch": 65, "duration": 99, "velocity": 115}, {"time": 10340, "pitch": 69, "duration": 89, "velocity": 119}, {"time": 10798, "pitch": 60, "duration": 110, "velocity": 105}, {"time": 10808, "pitch": 65, "duration": 100, "velocity": 110}, {"time": 10818, "pitch": 69, "duration": 90, "velocity": 115}, {"time": 11280, "pitch": 60, "duration": 110, "velocity": 108}, {"time": 11290, "pitch": 65, "duration": 100, "velocity": 108}, {"time": 11300, "pitch": 69, "duration": 90, "velocity": 116}, {"time": 12239, "pitch": 58, "duration": 99, "velocity": 104}, {"time": 12249, "pitch": 62, "duration": 89, "velocity": 111}, {"time": 12259, "pitch": 65, "duration": 79, "velocity": 113}, {"time": 12269, "pitch": 70, "duration": 69, "velocity": 117}, {"time": 12717, "pitch": 58, "duration": 100, "velocity": 100}, {"time": 12727, "pitch": 62, "duration": 90, "velocity": 103}, {"time": 12737, "pitch": 65, "duration": 80, "velocity": 111}, {"time": 12747, "pitch": 70, "duration": 70, "velocity": 113}, {"time": 13199, "pitch": 58, "duration": 100, "velocity": 105}, {"time": 13209, "pitch": 62, "duration": 90, "velocity": 104}, {"time": 13219, "pitch": 65, "duration": 80, "velocity": 116}, {"time": 13229, "pitch": 70, "duration": 70, "velocity": 116}, {"time": 13681, "pitch": 58, "duration": 100, "velocity": 104}, {"time": 13691, "pitch": 62, "duration": 90, "velocity": 104}, {"time": 13701, "pitch": 65, "duration": 80, "velocity": 114}, {"time": 13711, "pitch": 70, "duration": 70, "velocity": 116}, {"time": 14162, "pitch": 58, "duration": 111, "velocity": 108}, {"time": 14162, "pitch": 63, "duration": 101, "velocity": 107}, {"time": 14172, "pitch": 67, "duration": 91, "velocity": 112}, {"time": 14182, "pitch": 70, "duration": 81, "velocity": 122}, {"time": 14640, "pitch": 58, "duration": 109, "velocity": 103}, {"time": 14640, "pitch": 63, "duration": 99, "velocity": 107}, {"time": 14650, "pitch": 67, "duration": 89, "velocity": 105}, {"time": 14660, "pitch": 70, "duration": 79, "velocity": 111}, {"time": 15118, "pitch": 58, "duration": 110, "velocity": 105}, {"time": 15118, "pitch": 63, "duration": 100, "velocity": 111}, {"time": 15128, "pitch": 67, "duration": 90, "velocity": 110}, {"time": 15138, "pitch": 70, "duration": 80, "velocity": 116}, {"time": 15600, "pitch": 58, "duration": 110, "velocity": 100}, {"time": 15600, "pitch": 63, "duration": 100, "velocity": 106}, {"time": 15610, "pitch": 67, "duration": 90, "velocity": 110}, {"time": 15620, "pitch": 70, "duration": 80, "velocity": 110}, {"time": 16082, "pitch": 58, "duration": 100, "velocity": 104}, {"time": 16092, "pitch": 62, "duration": 90, "velocity": 111}, {"time": 16102, "pitch": 65, "duration": 80, "velocity": 113}, {"time": 16112, "pitch": 70, "duration": 70, "velocity": 117}, {"time": 16559, "pitch": 58, "duration": 99, "velocity": 100}, {"time": 16569, "pitch": 62, "duration": 89, "velocity": 103}, {"time": 16579, "pitch": 65, "duration": 79, "velocity": 111}, {"time": 16589, "pitch": 70, "duration": 69, "velocity": 113}, {"time": 17037, "pitch": 58, "duration": 101, "velocity": 105}, {"time": 17047, "pitch": 62, "duration": 91, "velocity": 104}, {"time": 17057, "pitch": 65, "duration": 81, "velocity": 116}, {"time": 17067, "pitch": 70, "duration": 71, "velocity": 116}, {"time": 17519, "pitch": 58, "duration": 100, "velocity": 104}, {"time": 17529, "pitch": 62, "duration": 90, "velocity": 104}, {"time": 17539, "pitch": 65, "duration": 80, "velocity": 114}, {"time": 17549, "pitch": 70, "duration": 70, "velocity": 116}, {"time": 18001, "pitch": 60, "duration": 110, "velocity": 106}, {"time": 18011, "pitch": 65, "duration": 100, "velocity": 112}, {"time": 18021, "pitch": 69, "duration": 90, "velocity": 122}, {"time": 18482, "pitch": 60, "duration": 111, "velocity": 106}, {"time": 18493, "pitch": 65, "duration": 100, "velocity": 113}, {"time": 18503, "pitch": 69, "duration": 90, "velocity": 118}, {"time": 18960, "pitch": 60, "duration": 109, "velocity": 111}, {"time": 18970, "pitch": 65, "duration": 99, "velocity": 111}, {"time": 18980, "pitch": 69, "duration": 89, "velocity": 121}, {"time": 19438, "pitch": 60, "duration": 111, "velocity": 109}, {"time": 19448, "pitch": 65, "duration": 101, "velocity": 106}, {"time": 19458, "pitch": 69, "duration": 91, "velocity": 119}, {"time": 19920, "pitch": 58, "duration": 100, "velocity": 104}, {"time": 19930, "pitch": 62, "duration": 90, "velocity": 111}, {"time": 19940, "pitch": 65, "duration": 80, "velocity": 113}, {"time": 19950, "pitch": 70, "duration": 70, "velocity": 117}, {"time": 20402, "pitch": 58, "duration": 100, "velocity": 100}, {"time": 20412, "pitch": 62, "duration": 90, "velocity": 103}, {"time": 20422, "pitch": 65, "duration": 80, "velocity": 111}, {"time": 20432, "pitch": 70, "duration": 70, "velocity": 113}, {"time": 20880, "pitch": 58, "duration": 98, "velocity": 105}, {"time": 20889, "pitch": 62, "duration": 89, "velocity": 104}, {"time": 20899, "pitch": 65, "duration": 79, "velocity": 116}, {"time": 20909, "pitch": 70, "duration": 69, "velocity": 116}, {"time": 21357, "pitch": 58, "duration": 101, "velocity": 104}, {"time": 21367, "pitch": 62, "duration": 91, "velocity": 104}, {"time": 21377, "pitch": 65, "duration": 81, "velocity": 114}, {"time": 21387, "pitch": 70, "duration": 71, "velocity": 116}, {"time": 21839, "pitch": 58, "duration": 111, "velocity": 108}, {"time": 21839, "pitch": 63, "duration": 100, "velocity": 107}, {"time": 21849, "pitch": 67, "duration": 90, "velocity": 112}, {"time": 21859, "pitch": 70, "duration": 80, "velocity": 122}, {"time": 22321, "pitch": 58, "duration": 110, "velocity": 103}, {"time": 22321, "pitch": 63, "duration": 100, "velocity": 107}, {"time": 22331, "pitch": 67, "duration": 90, "velocity": 105}, {"time": 22341, "pitch": 70, "duration": 80, "velocity": 111}, {"time": 22803, "pitch": 58, "duration": 110, "velocity": 105}, {"time": 22803, "pitch": 63, "duration": 100, "velocity": 111}, {"time": 22813, "pitch": 67, "duration": 90, "velocity": 110}, {"time": 22823, "pitch": 70, "duration": 80, "velocity": 116}, {"time": 23280, "pitch": 58, "duration": 109, "velocity": 100}, {"time": 23280, "pitch": 63, "duration": 99, "velocity": 106}, {"time": 23290, "pitch": 67, "duration": 89, "velocity": 110}, {"time": 23300, "pitch": 70, "duration": 79, "velocity": 110}, {"time": 23758, "pitch": 58, "duration": 101, "velocity": 104}, {"time": 23768, "pitch": 62, "duration": 91, "velocity": 111}, {"time": 23778, "pitch": 65, "duration": 81, "velocity": 113}, {"time": 23788, "pitch": 70, "duration": 71, "velocity": 117}, {"time": 24240, "pitch": 58, "duration": 100, "velocity": 100}, {"time": 24250, "pitch": 62, "duration": 90, "velocity": 103}, {"time": 24260, "pitch": 65, "duration": 80, "velocity": 111}, {"time": 24270, "pitch": 70, "duration": 70, "velocity": 113}, {"time": 24722, "pitch": 60, "duration": 110, "velocity": 111}, {"time": 24732, "pitch": 65, "duration": 100, "velocity": 111}, {"time": 24742, "pitch": 69, "duration": 90, "velocity": 121}, {"time": 25200, "pitch": 60, "duration": 108, "velocity": 109}, {"time": 25210, "pitch": 65, "duration": 98, "velocity": 106}, {"time": 25219, "pitch": 69, "duration": 89, "velocity": 119}, {"time": 25678, "pitch": 58, "duration": 100, "velocity": 104}, {"time": 25688, "pitch": 62, "duration": 90, "velocity": 111}, {"time": 25698, "pitch": 65, "duration": 80, "velocity": 113}, {"time": 25708, "pitch": 70, "duration": 70, "velocity": 117}, {"time": 26159, "pitch": 58, "duration": 101, "velocity": 100}, {"time": 26169, "pitch": 62, "duration": 91, "velocity": 103}, {"time": 26179, "pitch": 65, "duration": 81, "velocity": 111}, {"time": 26189, "pitch": 70, "duration": 71, "velocity": 113}, {"time": 26641, "pitch": 58, "duration": 100, "velocity": 105}, {"time": 26651, "pitch": 62, "duration": 90, "velocity": 104}, {"time": 26661, "pitch": 65, "duration": 80, "velocity": 116}, {"time": 26671, "pitch": 70, "duration": 70, "velocity": 116}, {"time": 27123, "pitch": 58, "duration": 100, "velocity": 104}, {"time": 27133, "pitch": 62, "duration": 90, "velocity": 104}, {"time": 27143, "pitch": 65, "duration": 80, "velocity": 114}, {"time": 27153, "pitch": 70, "duration": 70, "velocity": 116}, {"time": 27601, "pitch": 58, "duration": 108, "velocity": 108}, {"time": 27601, "pitch": 63, "duration": 98, "velocity": 107}, {"time": 27611, "pitch": 67, "duration": 88, "velocity": 112}, {"time": 27620, "pitch": 70, "duration": 79, "velocity": 122}, {"time": 28078, "pitch": 58, "duration": 111, "velocity": 103}, {"time": 28078, "pitch": 63, "duration": 101, "velocity": 107}, {"time": 28089, "pitch": 67, "duration": 90, "velocity": 105}, {"time": 28099, "pitch": 70, "duration": 80, "velocity": 111}, {"time": 28560, "pitch": 58, "duration": 111, "velocity": 105}, {"time": 28560, "pitch": 63, "duration": 101, "velocity": 111}, {"time": 28570, "pitch": 67, "duration": 91, "velocity": 110}, {"time": 28580, "pitch": 70, "duration": 81, "velocity": 116}, {"time": 29042, "pitch": 58, "duration": 110, "velocity": 100}, {"time": 29042, "pitch": 63, "duration": 100, "velocity": 106}, {"time": 29052, "pitch": 67, "duration": 90, "velocity": 110}, {"time": 29062, "pitch": 70, "duration": 80, "velocity": 110}, {"time": 29520, "pitch": 58, "duration": 99, "velocity": 104}, {"time": 29530, "pitch": 62, "duration": 89, "velocity": 111}, {"time": 29540, "pitch": 65, "duration": 79, "velocity": 113}, {"time": 29549, "pitch": 70, "duration": 70, "velocity": 117}, {"time": 29998, "pitch": 58, "duration": 100, "velocity": 100}, {"time": 30008, "pitch": 62, "duration": 90, "velocity": 103}, {"time": 30018, "pitch": 65, "duration": 80, "velocity": 111}, {"time": 30028, "pitch": 70, "duration": 70, "velocity": 113}, {"time": 30479, "pitch": 58, "duration": 101, "velocity": 105}, {"time": 30489, "pitch": 62, "duration": 91, "velocity": 104}, {"time": 30500, "pitch": 65, "duration": 80, "velocity": 116}, {"time": 30510, "pitch": 70, "duration": 70, "velocity": 116}, {"time": 30961, "pitch": 58, "duration": 101, "velocity": 104}, {"time": 30971, "pitch": 62, "duration": 91, "velocity": 104}, {"time": 30981, "pitch": 65, "duration": 81, "velocity": 114}, {"time": 30991, "pitch": 70, "duration": 71, "velocity": 116}, {"time": 31443, "pitch": 60, "duration": 100, "velocity": 104}, {"time": 31453, "pitch": 64, "duration": 90, "velocity": 111}, {"time": 31463, "pitch": 67, "duration": 80, "velocity": 113}, {"time": 31473, "pitch": 72, "duration": 70, "velocity": 117}, {"time": 31921, "pitch": 60, "duration": 99, "velocity": 100}, {"time": 31931, "pitch": 64, "duration": 89, "velocity": 103}, {"time": 31941, "pitch": 67, "duration": 79, "velocity": 111}, {"time": 31950, "pitch": 72, "duration": 70, "velocity": 113}, {"time": 32399, "pitch": 60, "duration": 100, "velocity": 105}, {"time": 32409, "pitch": 64, "duration": 90, "velocity": 104}, {"time": 32419, "pitch": 67, "duration": 80, "velocity": 116}, {"time": 32429, "pitch": 72, "duration": 70, "velocity": 116}, {"time": 32880, "pitch": 60, "duration": 101, "velocity": 104}, {"time": 32890, "pitch": 64, "duration": 91, "velocity": 104}, {"time": 32900, "pitch": 67, "duration": 81, "velocity": 114}, {"time": 32911, "pitch": 72, "duration": 70, "velocity": 116}, {"time": 33131, "pitch": 60, "duration": 111, "velocity": 118}, {"time": 33141, "pitch": 65, "duration": 101, "velocity": 110}, {"time": 33151, "pitch": 69, "duration": 91, "velocity": 112}, {"time": 33161, "pitch": 72, "duration": 81, "velocity": 102}, {"time": 33372, "pitch": 60, "duration": 111, "velocity": 112}, {"time": 33382, "pitch": 65, "duration": 101, "velocity": 114}, {"time": 33392, "pitch": 69, "duration": 91, "velocity": 102}, {"time": 33402, "pitch": 72, "duration": 81, "velocity": 99}, {"time": 33613, "pitch": 60, "duration": 227, "velocity": 115}, {"time": 33623, "pitch": 65, "duration": 217, "velocity": 111}, {"time": 33633, "pitch": 69, "duration": 207, "velocity": 107}, {"time": 33643, "pitch": 72, "duration": 197, "velocity": 105}, {"time": 33840, "pitch": 72, "duration": 10, "velocity": 101}, {"time": 33850, "pitch": 69, "duration": 10, "velocity": 107}, {"time": 33860, "pitch": 65, "duration": 10, "velocity": 114}, {"time": 33870, "pitch": 60, "duration": 10, "velocity": 113}, {"time": 34008, "pitch": 60, "duration": 109, "velocity": 113}, {"time": 34018, "pitch": 65, "duration": 99, "velocity": 110}, {"time": 34028, "pitch": 69, "duration": 89, "velocity": 107}, {"time": 34038, "pitch": 72, "duration": 79, "velocity": 104}, {"time": 34248, "pitch": 60, "duration": 70, "velocity": 113}, {"time": 34258, "pitch": 65, "duration": 60, "velocity": 107}, {"time": 34268, "pitch": 69, "duration": 50, "velocity": 107}, {"time": 34278, "pitch": 72, "duration": 40, "velocity": 96}, {"time": 34318, "pitch": 72, "duration": 120, "velocity": 101}, {"time": 34328, "pitch": 69, "duration": 110, "velocity": 105}, {"time": 34338, "pitch": 65, "duration": 100, "velocity": 111}, {"time": 34348, "pitch": 60, "duration": 90, "velocity": 123}, {"time": 35281, "pitch": 58, "duration": 101, "velocity": 104}, {"time": 35291, "pitch": 62, "duration": 91, "velocity": 108}, {"time": 35301, "pitch": 65, "duration": 81, "velocity": 115}, {"time": 35311, "pitch": 70, "duration": 71, "velocity": 123}, {"time": 35759, "pitch": 58, "duration": 99, "velocity": 104}, {"time": 35769, "pitch": 62, "duration": 89, "velocity": 106}, {"time": 35779, "pitch": 65, "duration": 79, "velocity": 109}, {"time": 35789, "pitch": 70, "duration": 69, "velocity": 118}, {"time": 36237, "pitch": 58, "duration": 100, "velocity": 104}, {"time": 36247, "pitch": 62, "duration": 90, "velocity": 109}, {"time": 36257, "pitch": 65, "duration": 80, "velocity": 110}, {"time": 36267, "pitch": 70, "duration": 70, "velocity": 116}, {"time": 36719, "pitch": 58, "duration": 100, "velocity": 103}, {"time": 36729, "pitch": 62, "duration": 90, "velocity": 105}, {"time": 36739, "pitch": 65, "duration": 80, "velocity": 105}, {"time": 36749, "pitch": 70, "duration": 70, "velocity": 110}, {"time": 37201, "pitch": 57, "duration": 110, "velocity": 105}, {"time": 37211, "pitch": 62, "duration": 100, "velocity": 111}, {"time": 37221, "pitch": 65, "duration": 90, "velocity": 117}, {"time": 37682, "pitch": 57, "duration": 111, "velocity": 106}, {"time": 37692, "pitch": 62, "duration": 101, "velocity": 114}, {"time": 37702, "pitch": 65, "duration": 91, "velocity": 110}, {"time": 38160, "pitch": 58, "duration": 109, "velocity": 103}, {"time": 38170, "pitch": 62, "duration": 99, "velocity": 111}, {"time": 38180, "pitch": 67, "duration": 89, "velocity": 114}, {"time": 38648, "pitch": 58, "duration": 100, "velocity": 109}, {"time": 38658, "pitch": 63, "duration": 90, "velocity": 114}, {"time": 39120, "pitch": 58, "duration": 100, "velocity": 104}, {"time": 39130, "pitch": 62, "duration": 90, "velocity": 108}, {"time": 39140, "pitch": 65, "duration": 80, "velocity": 115}, {"time": 39150, "pitch": 70, "duration": 70, "velocity": 123}, {"time": 39602, "pitch": 58, "duration": 100, "velocity": 104}, {"time": 39612, "pitch": 62, "duration": 90, "velocity": 106}, {"time": 39622, "pitch": 65, "duration": 80, "velocity": 109}, {"time": 39632, "pitch": 70, "duration": 70, "velocity": 118}, {"time": 40079, "pitch": 60, "duration": 99, "velocity": 104}, {"time": 40089, "pitch": 64, "duration": 89, "velocity": 109}, {"time": 40099, "pitch": 67, "duration": 79, "velocity": 110}, {"time": 40109, "pitch": 72, "duration": 69, "velocity": 116}, {"time": 40557, "pitch": 60, "duration": 101, "velocity": 103}, {"time": 40567, "pitch": 64, "duration": 91, "velocity": 105}, {"time": 40577, "pitch": 67, "duration": 81, "velocity": 105}, {"time": 40587, "pitch": 72, "duration": 71, "velocity": 110}, {"time": 41039, "pitch": 60, "duration": 110, "velocity": 106}, {"time": 41049, "pitch": 65, "duration": 100, "velocity": 112}, {"time": 41059, "pitch": 69, "duration": 90, "velocity": 122}, {"time": 41521, "pitch": 60, "duration": 110, "velocity": 106}, {"time": 41531, "pitch": 65, "duration": 100, "velocity": 113}, {"time": 41541, "pitch": 69, "duration": 90, "velocity": 118}, {"time": 42002, "pitch": 58, "duration": 101, "velocity": 104}, {"time": 42013, "pitch": 62, "duration": 90, "velocity": 109}, {"time": 42023, "pitch": 65, "duration": 80, "velocity": 110}, {"time": 42033, "pitch": 70, "duration": 70, "velocity": 116}, {"time": 42480, "pitch": 58, "duration": 99, "velocity": 103}, {"time": 42490, "pitch": 62, "duration": 89, "velocity": 105}, {"time": 42500, "pitch": 65, "duration": 79, "velocity": 105}, {"time": 42510, "pitch": 70, "duration": 69, "velocity": 110}, {"time": 42958, "pitch": 58, "duration": 101, "velocity": 104}, {"time": 42968, "pitch": 62, "duration": 91, "velocity": 108}, {"time": 42978, "pitch": 65, "duration": 81, "velocity": 115}, {"time": 42988, "pitch": 70, "duration": 71, "velocity": 123}, {"time": 43440, "pitch": 58, "duration": 100, "velocity": 104}, {"time": 43450, "pitch": 62, "duration": 90, "velocity": 106}, {"time": 43460, "pitch": 65, "duration": 80, "velocity": 109}, {"time": 43470, "pitch": 70, "duration": 70, "velocity": 118}, {"time": 43922, "pitch": 58, "duration": 100, "velocity": 104}, {"time": 43932, "pitch": 62, "duration": 90, "velocity": 109}, {"time": 43942, "pitch": 65, "duration": 80, "velocity": 110}, {"time": 43952, "pitch": 70, "duration": 70, "velocity": 116}, {"time": 44400, "pitch": 58, "duration": 98, "velocity": 103}, {"time": 44409, "pitch": 62, "duration": 89, "velocity": 105}, {"time": 44419, "pitch": 65, "duration": 79, "velocity": 105}, {"time": 44429, "pitch": 70, "duration": 69, "velocity": 110}, {"time": 44877, "pitch": 57, "duration": 111, "velocity": 105}, {"time": 44887, "pitch": 62, "duration": 101, "velocity": 111}, {"time": 44897, "pitch": 65, "duration": 91, "velocity": 117}, {"time": 45359, "pitch": 57, "duration": 111, "velocity": 106}, {"time": 45369, "pitch": 62, "duration": 101, "velocity": 114}, {"time": 45379, "pitch": 65, "duration": 91, "velocity": 110}, {"time": 45841, "pitch": 58, "duration": 110, "velocity": 103}, {"time": 45851, "pitch": 62, "duration": 100, "velocity": 111}, {"time": 45861, "pitch": 67, "duration": 90, "velocity": 114}, {"time": 46333, "pitch": 58, "duration": 100, "velocity": 109}, {"time": 46343, "pitch": 63, "duration": 90, "velocity": 114}, {"time": 46800, "pitch": 58, "duration": 99, "velocity": 104}, {"time": 46810, "pitch": 62, "duration": 89, "velocity": 108}, {"time": 46820, "pitch": 65, "duration": 79, "velocity": 115}, {"time": 46830, "pitch": 70, "duration": 69, "velocity": 123}, {"time": 47278, "pitch": 58, "duration": 101, "velocity": 104}, {"time": 47288, "pitch": 62, "duration": 91, "velocity": 106}, {"time": 47298, "pitch": 65, "duration": 81, "velocity": 109}, {"time": 47308, "pitch": 70, "duration": 71, "velocity": 118}, {"time": 47760, "pitch": 60, "duration": 100, "velocity": 104}, {"time": 47770, "pitch": 64, "duration": 90, "velocity": 109}, {"time": 47780, "pitch": 67, "duration": 80, "velocity": 110}, {"time": 47790, "pitch": 72, "duration": 70, "velocity": 116}, {"time": 48242, "pitch": 60, "duration": 100, "velocity": 103}, {"time": 48252, "pitch": 64, "duration": 90, "velocity": 105}, {"time": 48262, "pitch": 67, "duration": 80, "velocity": 105}, {"time": 48272, "pitch": 72, "duration": 70, "velocity": 110}, {"time": 48720, "pitch": 60, "duration": 108, "velocity": 106}, {"time": 48730, "pitch": 65, "duration": 98, "velocity": 112}, {"time": 48739, "pitch": 69, "duration": 89, "velocity": 122}, {"time": 49198, "pitch": 60, "duration": 110, "velocity": 106}, {"time": 49208, "pitch": 65, "duration": 100, "velocity": 113}, {"time": 49218, "pitch": 69, "duration": 90, "velocity": 118}, {"time": 49679, "pitch": 58, "duration": 101, "velocity": 104}, {"time": 49689, "pitch": 62, "duration": 91, "velocity": 109}, {"time": 49699, "pitch": 65, "duration": 81, "velocity": 110}, {"time": 49709, "pitch": 70, "duration": 71, "velocity": 116}, {"time": 50161, "pitch": 58, "duration": 100, "velocity": 103}, {"time": 50171, "pitch": 62, "duration": 90, "velocity": 105}, {"time": 50181, "pitch": 65, "duration": 80, "velocity": 105}, {"time": 50191, "pitch": 70, "duration": 70, "velocity": 110}, {"time": 50643, "pitch": 61, "duration": 100, "velocity": 109}, {"time": 50653, "pitch": 65, "duration": 90, "velocity": 111}, {"time": 50663, "pitch": 68, "duration": 80, "velocity": 110}, {"time": 51121, "pitch": 61, "duration": 98, "velocity": 103}, {"time": 51131, "pitch": 65, "duration": 88, "velocity": 108}, {"time": 51140, "pitch": 68, "duration": 79, "velocity": 113}, {"time": 51598, "pitch": 61, "duration": 101, "velocity": 107}, {"time": 51609, "pitch": 65, "duration": 90, "velocity": 103}, {"time": 51619, "pitch": 68, "duration": 80, "velocity": 114}, {"time": 52080, "pitch": 61, "duration": 101, "velocity": 95}, {"time": 52090, "pitch": 65, "duration": 91, "velocity": 105}, {"time": 52100, "pitch": 68, "duration": 81, "velocity": 110}, {"time": 52572, "pitch": 60, "duration": 110, "velocity": 106}, {"time": 52582, "pitch": 63, "duration": 100, "velocity": 111}, {"time": 52592, "pitch": 68, "duration": 90, "velocity": 113}, {"time": 53050, "pitch": 60, "duration": 108, "velocity": 107}, {"time": 53060, "pitch": 63, "duration": 98, "velocity": 105}, {"time": 53069, "pitch": 68, "duration": 89, "velocity": 115}, {"time": 53528, "pitch": 60, "duration": 110, "velocity": 105}, {"time": 53538, "pitch": 63, "duration": 100, "velocity": 111}, {"time": 53548, "pitch": 68, "duration": 90, "velocity": 119}, {"time": 54009, "pitch": 60, "duration": 111, "velocity": 101}, {"time": 54020, "pitch": 63, "duration": 100, "velocity": 110}, {"time": 54030, "pitch": 68, "duration": 90, "velocity": 115}, {"time": 54481, "pitch": 60, "duration": 111, "velocity": 112}, {"time": 54491, "pitch": 65, "duration": 101, "velocity": 115}, {"time": 54501, "pitch": 69, "duration": 91, "velocity": 119}, {"time": 54963, "pitch": 60, "duration": 110, "velocity": 104}, {"time": 54973, "pitch": 65, "duration": 100, "velocity": 106}, {"time": 54983, "pitch": 69, "duration": 90, "velocity": 119}, {"time": 55441, "pitch": 60, "duration": 108, "velocity": 111}, {"time": 55451, "pitch": 65, "duration": 98, "velocity": 109}, {"time": 55461, "pitch": 69, "duration": 88, "velocity": 121}, {"time": 55919, "pitch": 60, "duration": 110, "velocity": 102}, {"time": 55929, "pitch": 65, "duration": 100, "velocity": 106}, {"time": 55939, "pitch": 69, "duration": 90, "velocity": 115}, {"time": 56410, "pitch": 58, "duration": 111, "velocity": 106}, {"time": 56420, "pitch": 61, "duration": 101, "velocity": 111}, {"time": 56431, "pitch": 66, "duration": 90, "velocity": 119}, {"time": 56892, "pitch": 58, "duration": 111, "velocity": 109}, {"time": 56902, "pitch": 61, "duration": 101, "velocity": 114}, {"time": 56912, "pitch": 66, "duration": 91, "velocity": 115}, {"time": 57370, "pitch": 60, "duration": 109, "velocity": 109}, {"time": 57380, "pitch": 63, "duration": 99, "velocity": 115}, {"time": 57390, "pitch": 68, "duration": 89, "velocity": 114}, {"time": 57848, "pitch": 60, "duration": 110, "velocity": 106}, {"time": 57858, "pitch": 63, "duration": 100, "velocity": 111}, {"time": 57868, "pitch": 68, "duration": 90, "velocity": 114}, {"time": 58320, "pitch": 58, "duration": 100, "velocity": 104}, {"time": 58330, "pitch": 62, "duration": 90, "velocity": 111}, {"time": 58340, "pitch": 65, "duration": 80, "velocity": 113}, {"time": 58350, "pitch": 70, "duration": 70, "velocity": 117}, {"time": 58801, "pitch": 58, "duration": 101, "velocity": 100}, {"time": 58811, "pitch": 62, "duration": 91, "velocity": 103}, {"time": 58821, "pitch": 65, "duration": 81, "velocity": 111}, {"time": 58831, "pitch": 70, "duration": 71, "velocity": 113}, {"time": 59279, "pitch": 58, "duration": 99, "velocity": 105}, {"time": 59289, "pitch": 62, "duration": 89, "velocity": 104}, {"time": 59299, "pitch": 65, "duration": 79, "velocity": 116}, {"time": 59309, "pitch": 70, "duration": 69, "velocity": 116}, {"time": 59757, "pitch": 58, "duration": 100, "velocity": 104}, {"time": 59767, "pitch": 62, "duration": 90, "velocity": 104}, {"time": 59777, "pitch": 65, "duration": 80, "velocity": 114}, {"time": 59787, "pitch": 70, "duration": 70, "velocity": 116}, {"time": 60239, "pitch": 58, "duration": 110, "velocity": 108}, {"time": 60239, "pitch": 63, "duration": 100, "velocity": 107}, {"time": 60249, "pitch": 67, "duration": 90, "velocity": 112}, {"time": 60259, "pitch": 70, "duration": 80, "velocity": 122}, {"time": 60721, "pitch": 58, "duration": 110, "velocity": 103}, {"time": 60721, "pitch": 63, "duration": 100, "velocity": 107}, {"time": 60731, "pitch": 67, "duration": 90, "velocity": 105}, {"time": 60741, "pitch": 70, "duration": 80, "velocity": 111}, {"time": 61202, "pitch": 58, "duration": 111, "velocity": 105}, {"time": 61202, "pitch": 63, "duration": 101, "velocity": 111}, {"time": 61212, "pitch": 67, "duration": 91, "velocity": 110}, {"time": 61222, "pitch": 70, "duration": 81, "velocity": 116}, {"time": 61680, "pitch": 58, "duration": 109, "velocity": 100}, {"time": 61680, "pitch": 63, "duration": 99, "velocity": 106}, {"time": 61690, "pitch": 67, "duration": 89, "velocity": 110}, {"time": 61700, "pitch": 70, "duration": 79, "velocity": 110}, {"time": 62158, "pitch": 58, "duration": 100, "velocity": 104}, {"time": 62168, "pitch": 62, "duration": 90, "velocity": 111}, {"time": 62178, "pitch": 65, "duration": 80, "velocity": 113}, {"time": 62188, "pitch": 70, "duration": 70, "velocity": 117}, {"time": 62640, "pitch": 58, "duration": 100, "velocity": 100}, {"time": 62650, "pitch": 62, "duration": 90, "velocity": 103}, {"time": 62660, "pitch": 65, "duration": 80, "velocity": 111}, {"time": 62670, "pitch": 70, "duration": 70, "velocity": 113}, {"time": 63122, "pitch": 58, "duration": 100, "velocity": 105}, {"time": 63132, "pitch": 62, "duration": 90, "velocity": 104}, {"time": 63142, "pitch": 65, "duration": 80, "velocity": 116}, {"time": 63152, "pitch": 70, "duration": 70, "velocity": 116}, {"time": 63599, "pitch": 58, "duration": 99, "velocity": 104}, {"time": 63609, "pitch": 62, "duration": 89, "velocity": 104}, {"time": 63619, "pitch": 65, "duration": 79, "velocity": 114}, {"time": 63629, "pitch": 70, "duration": 69, "velocity": 116}, {"time": 64077, "pitch": 60, "duration": 111, "velocity": 106}, {"time": 64087, "pitch": 65, "duration": 101, "velocity": 112}, {"time": 64097, "pitch": 69, "duration": 91, "velocity": 122}, {"time": 64559, "pitch": 60, "duration": 110, "velocity": 106}, {"time": 64569, "pitch": 65, "duration": 100, "velocity": 113}, {"time": 64579, "pitch": 69, "duration": 90, "velocity": 118}, {"time": 65041, "pitch": 60, "duration": 110, "velocity": 111}, {"time": 65051, "pitch": 65, "duration": 100, "velocity": 111}, {"time": 65061, "pitch": 69, "duration": 90, "velocity": 121}, {"time": 65523, "pitch": 60, "duration": 110, "velocity": 109}, {"time": 65533, "pitch": 65, "duration": 100, "velocity": 106}, {"time": 65543, "pitch": 69, "duration": 90, "velocity": 119}, {"time": 66000, "pitch": 58, "duration": 99, "velocity": 104}, {"time": 66010, "pitch": 62, "duration": 89, "velocity": 111}, {"time": 66020, "pitch": 65, "duration": 79, "velocity": 113}, {"time": 66030, "pitch": 70, "duration": 69, "velocity": 117}, {"time": 66478, "pitch": 58, "duration": 101, "velocity": 100}, {"time": 66488, "pitch": 62, "duration": 91, "velocity": 103}, {"time": 66498, "pitch": 65, "duration": 81, "velocity": 111}, {"time": 66508, "pitch": 70, "duration": 71, "velocity": 113}, {"time": 66960, "pitch": 58, "duration": 100, "velocity": 105}, {"time": 66970, "pitch": 62, "duration": 90, "velocity": 104}, {"time": 66980, "pitch": 65, "duration": 80, "velocity": 116}, {"time": 66990, "pitch": 70, "duration": 70, "velocity": 116}, {"time": 67442, "pitch": 58, "duration": 100, "velocity": 104}, {"time": 67452, "pitch": 62, "duration": 90, "velocity": 104}, {"time": 67462, "pitch": 65, "duration": 80, "velocity": 114}, {"time": 67472, "pitch": 70, "duration": 70, "velocity": 116}, {"time": 67920, "pitch": 58, "duration": 108, "velocity": 108}, {"time": 67920, "pitch": 63, "duration": 98, "velocity": 107}, {"time": 67929, "pitch": 67, "duration": 89, "velocity": 112}, {"time": 67939, "pitch": 70, "duration": 79, "velocity": 122}, {"time": 68397, "pitch": 58, "duration": 111, "velocity": 103}, {"time": 68397, "pitch": 63, "duration": 101, "velocity": 107}, {"time": 68407, "pitch": 67, "duration": 91, "velocity": 105}, {"time": 68417, "pitch": 70, "duration": 81, "velocity": 111}, {"time": 68879, "pitch": 58, "duration": 111, "velocity": 105}, {"time": 68879, "pitch": 63, "duration": 100, "velocity": 111}, {"time": 68889, "pitch": 67, "duration": 90, "velocity": 110}, {"time": 68899, "pitch": 70, "duration": 80, "velocity": 116}, {"time": 69361, "pitch": 58, "duration": 110, "velocity": 100}, {"time": 69361, "pitch": 63, "duration": 100, "velocity": 106}, {"time": 69371, "pitch": 67, "duration": 90, "velocity": 110}, {"time": 69381, "pitch": 70, "duration": 80, "velocity": 110}, {"time": 69843, "pitch": 58, "duration": 100, "velocity": 104}, {"time": 69853, "pitch": 62, "duration": 90, "velocity": 111}, {"time": 69863, "pitch": 65, "duration": 80, "velocity": 113}, {"time": 69873, "pitch": 70, "duration": 70, "velocity": 117}, {"time": 70320, "pitch": 58, "duration": 99, "velocity": 100}, {"time": 70330, "pitch": 62, "duration": 89, "velocity": 103}, {"time": 70340, "pitch": 65, "duration": 79, "velocity": 111}, {"time": 70350, "pitch": 70, "duration": 69, "velocity": 113}, {"time": 70798, "pitch": 60, "duration": 111, "velocity": 111}, {"time": 70808, "pitch": 65, "duration": 101, "velocity": 111}, {"time": 70818, "pitch": 69, "duration": 91, "velocity": 121}, {"time": 71280, "pitch": 60, "duration": 110, "velocity": 109}, {"time": 71290, "pitch": 65, "duration": 100, "velocity": 106}, {"time": 71300, "pitch": 69, "duration": 90, "velocity": 119}, {"time": 71762, "pitch": 58, "duration": 100, "velocity": 104}, {"time": 71772, "pitch": 62, "duration": 90, "velocity": 111}, {"time": 71782, "pitch": 65, "duration": 80, "velocity": 113}, {"time": 71792, "pitch": 70, "duration": 70, "velocity": 117}, {"time": 72240, "pitch": 58, "duration": 98, "velocity": 100}, {"time": 72250, "pitch": 62, "duration": 88, "velocity": 103}, {"time": 72259, "pitch": 65, "duration": 79, "velocity": 111}, {"time": 72269, "pitch": 70, "duration": 69, "velocity": 113}, {"time": 72718, "pitch": 58, "duration": 100, "velocity": 105}, {"time": 72728, "pitch": 62, "duration": 90, "velocity": 104}, {"time": 72738, "pitch": 65, "duration": 80, "velocity": 116}, {"time": 72748, "pitch": 70, "duration": 70, "velocity": 116}, {"time": 73199, "pitch": 58, "duration": 101, "velocity": 104}, {"time": 73209, "pitch": 62, "duration": 91, "velocity": 104}, {"time": 73219, "pitch": 65, "duration": 81, "velocity": 114}, {"time": 73229, "pitch": 70, "duration": 71, "velocity": 116}, {"time": 73681, "pitch": 58, "duration": 110, "velocity": 108}, {"time": 73681, "pitch": 63, "duration": 100, "velocity": 107}, {"time": 73691, "pitch": 67, "duration": 90, "velocity": 112}, {"time": 73701, "pitch": 70, "duration": 80, "velocity": 122}, {"time": 74163, "pitch": 58, "duration": 110, "velocity": 103}, {"time": 74163, "pitch": 63, "duration": 100, "velocity": 107}, {"time": 74173, "pitch": 67, "duration": 90, "velocity": 105}, {"time": 74183, "pitch": 70, "duration": 80, "velocity": 111}, {"time": 74641, "pitch": 58, "duration": 108, "velocity": 105}, {"time": 74641, "pitch": 63, "duration": 98, "velocity": 111}, {"time": 74651, "pitch": 67, "duration": 88, "velocity": 110}, {"time": 74660, "pitch": 70, "duration": 79, "velocity": 116}, {"time": 75118, "pitch": 58, "duration": 111, "velocity": 100}, {"time": 75118, "pitch": 63, "duration": 101, "velocity": 106}, {"time": 75129, "pitch": 67, "duration": 90, "velocity": 110}, {"time": 75139, "pitch": 70, "duration": 80, "velocity": 110}, {"time": 75600, "pitch": 58, "duration": 101, "velocity": 104}, {"time": 75610, "pitch": 62, "duration": 91, "velocity": 111}, {"time": 75620, "pitch": 65, "duration": 81, "velocity": 113}, {"time": 75630, "pitch": 70, "duration": 71, "velocity": 117}, {"time": 76082, "pitch": 58, "duration": 100, "velocity": 100}, {"time": 76092, "pitch": 62, "duration": 90, "velocity": 103}, {"time": 76102, "pitch": 65, "duration": 80, "velocity": 111}, {"time": 76112, "pitch": 70, "duration": 70, "velocity": 113}, {"time": 76560, "pitch": 58, "duration": 99, "velocity": 105}, {"time": 76570, "pitch": 62, "duration": 89, "velocity": 104}, {"time": 76580, "pitch": 65, "duration": 79, "velocity": 116}, {"time": 76589, "pitch": 70, "duration": 70, "velocity": 116}, {"time": 77038, "pitch": 58, "duration": 100, "velocity": 104}, {"time": 77048, "pitch": 62, "duration": 90, "velocity": 104}, {"time": 77058, "pitch": 65, "duration": 80, "velocity": 114}, {"time": 77068, "pitch": 70, "duration": 70, "velocity": 116}, {"time": 77519, "pitch": 60, "duration": 101, "velocity": 104}, {"time": 77529, "pitch": 64, "duration": 91, "velocity": 111}, {"time": 77540, "pitch": 67, "duration": 80, "velocity": 113}, {"time": 77550, "pitch": 72, "duration": 70, "velocity": 117}, {"time": 78001, "pitch": 60, "duration": 101, "velocity": 100}, {"time": 78011, "pitch": 64, "duration": 91, "velocity": 103}, {"time": 78021, "pitch": 67, "duration": 81, "velocity": 111}, {"time": 78031, "pitch": 72, "duration": 71, "velocity": 113}, {"time": 78483, "pitch": 60, "duration": 100, "velocity": 105}, {"time": 78493, "pitch": 64, "duration": 90, "velocity": 104}, {"time": 78503, "pitch": 67, "duration": 80, "velocity": 116}, {"time": 78513, "pitch": 72, "duration": 70, "velocity": 116}, {"time": 78961, "pitch": 60, "duration": 99, "velocity": 104}, {"time": 78971, "pitch": 64, "duration": 89, "velocity": 104}, {"time": 78981, "pitch": 67, "duration": 79, "velocity": 114}, {"time": 78990, "pitch": 72, "duration": 70, "velocity": 116}, {"time": 79208, "pitch": 60, "duration": 110, "velocity": 118}, {"time": 79218, "pitch": 65, "duration": 100, "velocity": 110}, {"time": 79228, "pitch": 69, "duration": 90, "velocity": 112}, {"time": 79238, "pitch": 72, "duration": 80, "velocity": 102}, {"time": 79449, "pitch": 60, "duration": 110, "velocity": 112}, {"time": 79459, "pitch": 65, "duration": 100, "velocity": 114}, {"time": 79469, "pitch": 69, "duration": 90, "velocity": 102}, {"time": 79479, "pitch": 72, "duration": 80, "velocity": 99}, {"time": 79690, "pitch": 60, "duration": 230, "velocity": 115}, {"time": 79700, "pitch": 65, "duration": 220, "velocity": 111}, {"time": 79710, "pitch": 69, "duration": 210, "velocity": 107}, {"time": 79720, "pitch": 72, "duration": 200, "velocity": 105}, {"time": 79920, "pitch": 72, "duration": 10, "velocity": 101}, {"time": 79930, "pitch": 69, "duration": 10, "velocity": 107}, {"time": 79940, "pitch": 65, "duration": 11, "velocity": 114}, {"time": 79951, "pitch": 60, "duration": 10, "velocity": 113}, {"time": 80091, "pitch": 60, "duration": 110, "velocity": 113}, {"time": 80101, "pitch": 65, "duration": 100, "velocity": 110}, {"time": 80111, "pitch": 69, "duration": 90, "velocity": 107}, {"time": 80121, "pitch": 72, "duration": 80, "velocity": 104}, {"time": 80332, "pitch": 60, "duration": 70, "velocity": 113}, {"time": 80342, "pitch": 65, "duration": 60, "velocity": 107}, {"time": 80352, "pitch": 69, "duration": 50, "velocity": 107}, {"time": 80362, "pitch": 72, "duration": 40, "velocity": 96}, {"time": 80402, "pitch": 72, "duration": 121, "velocity": 101}, {"time": 80412, "pitch": 69, "duration": 111, "velocity": 105}, {"time": 80422, "pitch": 65, "duration": 101, "velocity": 111}, {"time": 80432, "pitch": 60, "duration": 91, "velocity": 123}, {"time": 81358, "pitch": 58, "duration": 100, "velocity": 104}, {"time": 81368, "pitch": 62, "duration": 90, "velocity": 108}, {"time": 81378, "pitch": 65, "duration": 80, "velocity": 115}, {"time": 81388, "pitch": 70, "duration": 70, "velocity": 123}, {"time": 81840, "pitch": 58, "duration": 100, "velocity": 104}, {"time": 81850, "pitch": 62, "duration": 90, "velocity": 106}, {"time": 81860, "pitch": 65, "duration": 80, "velocity": 109}, {"time": 81870, "pitch": 70, "duration": 70, "velocity": 118}, {"time": 82321, "pitch": 58, "duration": 101, "velocity": 104}, {"time": 82331, "pitch": 62, "duration": 91, "velocity": 109}, {"time": 82341, "pitch": 65, "duration": 81, "velocity": 110}, {"time": 82351, "pitch": 70, "duration": 71, "velocity": 116}, {"time": 82799, "pitch": 58, "duration": 99, "velocity": 103}, {"time": 82809, "pitch": 62, "duration": 89, "velocity": 105}, {"time": 82819, "pitch": 65, "duration": 79, "velocity": 105}, {"time": 82829, "pitch": 70, "duration": 69, "velocity": 110}, {"time": 83277, "pitch": 57, "duration": 110, "velocity": 105}, {"time": 83287, "pitch": 62, "duration": 100, "velocity": 111}, {"time": 83297, "pitch": 65, "duration": 90, "velocity": 117}, {"time": 83759, "pitch": 57, "duration": 110, "velocity": 106}, {"time": 83769, "pitch": 62, "duration": 100, "velocity": 114}, {"time": 83779, "pitch": 65, "duration": 90, "velocity": 110}, {"time": 84241, "pitch": 58, "duration": 110, "velocity": 103}, {"time": 84251, "pitch": 62, "duration": 100, "velocity": 111}, {"time": 84261, "pitch": 67, "duration": 90, "velocity": 114}, {"time": 84732, "pitch": 58, "duration": 101, "velocity": 109}, {"time": 84742, "pitch": 63, "duration": 91, "velocity": 114}, {"time": 85200, "pitch": 58, "duration": 99, "velocity": 104}, {"time": 85210, "pitch": 62, "duration": 89, "velocity": 108}, {"time": 85220, "pitch": 65, "duration": 79, "velocity": 115}, {"time": 85230, "pitch": 70, "duration": 69, "velocity": 123}, {"time": 85678, "pitch": 58, "duration": 100, "velocity": 104}, {"time": 85688, "pitch": 62, "duration": 90, "velocity": 106}, {"time": 85698, "pitch": 65, "duration": 80, "velocity": 109}, {"time": 85708, "pitch": 70, "duration": 70, "velocity": 118}, {"time": 86160, "pitch": 60, "duration": 100, "velocity": 104}, {"time": 86170, "pitch": 64, "duration": 90, "velocity": 109}, {"time": 86180, "pitch": 67, "duration": 80, "velocity": 110}, {"time": 86190, "pitch": 72, "duration": 70, "velocity": 116}, {"time": 86642, "pitch": 60, "duration": 100, "velocity": 103}, {"time": 86652, "pitch": 64, "duration": 90, "velocity": 105}, {"time": 86662, "pitch": 67, "duration": 80, "velocity": 105}, {"time": 86672, "pitch": 72, "duration": 70, "velocity": 110}, {"time": 87119, "pitch": 60, "duration": 109, "velocity": 106}, {"time": 87129, "pitch": 65, "duration": 99, "velocity": 112}, {"time": 87139, "pitch": 69, "duration": 89, "velocity": 122}, {"time": 87597, "pitch": 60, "duration": 111, "velocity": 106}, {"time": 87607, "pitch": 65, "duration": 101, "velocity": 113}, {"time": 87617, "pitch": 69, "duration": 91, "velocity": 118}, {"time": 88079, "pitch": 58, "duration": 100, "velocity": 104}, {"time": 88089, "pitch": 62, "duration": 90, "velocity": 109}, {"time": 88099, "pitch": 65, "duration": 80, "velocity": 110}, {"time": 88109, "pitch": 70, "duration": 70, "velocity": 116}, {"time": 88561, "pitch": 58, "duration": 100, "velocity": 103}, {"time": 88571, "pitch": 62, "duration": 90, "velocity": 105}, {"time": 88581, "pitch": 65, "duration": 80, "velocity": 105}, {"time": 88591, "pitch": 70, "duration": 70, "velocity": 110}, {"time": 89043, "pitch": 58, "duration": 100, "velocity": 104}, {"time": 89053, "pitch": 62, "duration": 90, "velocity": 108}, {"time": 89063, "pitch": 65, "duration": 80, "velocity": 115}, {"time": 89073, "pitch": 70, "duration": 70, "velocity": 123}, {"time": 89520, "pitch": 58, "duration": 99, "velocity": 104}, {"time": 89530, "pitch": 62, "duration": 89, "velocity": 106}, {"time": 89540, "pitch": 65, "duration": 79, "velocity": 109}, {"time": 89550, "pitch": 70, "duration": 69, "velocity": 118}, {"time": 89998, "pitch": 58, "duration": 101, "velocity": 104}, {"time": 90008, "pitch": 62, "duration": 91, "velocity": 109}, {"time": 90018, "pitch": 65, "duration": 81, "velocity": 110}, {"time": 90028, "pitch": 70, "duration": 71, "velocity": 116}, {"time": 90480, "pitch": 58, "duration": 100, "velocity": 103}, {"time": 90490, "pitch": 62, "duration": 90, "velocity": 105}, {"time": 90500, "pitch": 65, "duration": 80, "velocity": 105}, {"time": 90510, "pitch": 70, "duration": 70, "velocity": 110}, {"time": 90962, "pitch": 57, "duration": 110, "velocity": 105}, {"time": 90972, "pitch": 62, "duration": 100, "velocity": 111}, {"time": 90982, "pitch": 65, "duration": 90, "velocity": 117}, {"time": 91440, "pitch": 57, "duration": 108, "velocity": 106}, {"time": 91449, "pitch": 62, "duration": 99, "velocity": 114}, {"time": 91459, "pitch": 65, "duration": 89, "velocity": 110}, {"time": 91917, "pitch": 58, "duration": 111, "velocity": 103}, {"time": 91927, "pitch": 62, "duration": 101, "velocity": 111}, {"time": 91937, "pitch": 67, "duration": 91, "velocity": 114}, {"time": 92409, "pitch": 58, "duration": 101, "velocity": 109}, {"time": 92419, "pitch": 63, "duration": 91, "velocity": 114}, {"time": 92881, "pitch": 58, "duration": 100, "velocity": 104}, {"time": 92891, "pitch": 62, "duration": 90, "velocity": 108}, {"time": 92901, "pitch": 65, "duration": 80, "velocity": 115}, {"time": 92911, "pitch": 70, "duration": 70, "velocity": 123}, {"time": 93363, "pitch": 58, "duration": 100, "velocity": 104}, {"time": 93373, "pitch": 62, "duration": 90, "velocity": 106}, {"time": 93383, "pitch": 65, "duration": 80, "velocity": 109}, {"time": 93393, "pitch": 70, "duration": 70, "velocity": 118}, {"time": 93840, "pitch": 60, "duration": 99, "velocity": 104}, {"time": 93850, "pitch": 64, "duration": 89, "velocity": 109}, {"time": 93860, "pitch": 67, "duration": 79, "velocity": 110}, {"time": 93870, "pitch": 72, "duration": 69, "velocity": 116}, {"time": 94318, "pitch": 60, "duration": 101, "velocity": 103}, {"time": 94328, "pitch": 64, "duration": 91, "velocity": 105}, {"time": 94338, "pitch": 67, "duration": 81, "velocity": 105}, {"time": 94348, "pitch": 72, "duration": 71, "velocity": 110}, {"time": 94800, "pitch": 60, "duration": 111, "velocity": 106}, {"time": 94810, "pitch": 65, "duration": 101, "velocity": 112}, {"time": 94820, "pitch": 69, "duration": 91, "velocity": 122}, {"time": 95282, "pitch": 60, "duration": 110, "velocity": 106}, {"time": 95292, "pitch": 65, "duration": 100, "velocity": 113}, {"time": 95302, "pitch": 69, "duration": 90, "velocity": 118}, {"time": 95760, "pitch": 58, "duration": 98, "velocity": 104}, {"time": 95770, "pitch": 62, "duration": 88, "velocity": 109}, {"time": 95779, "pitch": 65, "duration": 79, "velocity": 110}, {"time": 95789, "pitch": 70, "duration": 69, "velocity": 116}, {"time": 96238, "pitch": 58, "duration": 100, "velocity": 103}, {"time": 96248, "pitch": 62, "duration": 90, "velocity": 105}, {"time": 96258, "pitch": 65, "duration": 80, "velocity": 105}, {"time": 96268, "pitch": 70, "duration": 70, "velocity": 110}, {"time": 96719, "pitch": 58, "duration": 101, "velocity": 106}, {"time": 96729, "pitch": 62, "duration": 91, "velocity": 110}, {"time": 96739, "pitch": 65, "duration": 81, "velocity": 113}, {"time": 96749, "pitch": 70, "duration": 71, "velocity": 120}, {"time": 97201, "pitch": 58, "duration": 100, "velocity": 102}, {"time": 97211, "pitch": 62, "duration": 90, "velocity": 106}, {"time": 97221, "pitch": 65, "duration": 80, "velocity": 108}, {"time": 97231, "pitch": 70, "duration": 70, "velocity": 114}, {"time": 97683, "pitch": 58, "duration": 100, "velocity": 107}, {"time": 97693, "pitch": 62, "duration": 90, "velocity": 103}, {"time": 97703, "pitch": 65, "duration": 80, "velocity": 112}, {"time": 97713, "pitch": 70, "duration": 70, "velocity": 119}, {"time": 98161, "pitch": 58, "duration": 98, "velocity": 96}, {"time": 98171, "pitch": 62, "duration": 88, "velocity": 102}, {"time": 98180, "pitch": 65, "duration": 79, "velocity": 113}, {"time": 98190, "pitch": 70, "duration": 69, "velocity": 113}, {"time": 98638, "pitch": 60, "duration": 111, "velocity": 111}, {"time": 98649, "pitch": 65, "duration": 100, "velocity": 111}, {"time": 98659, "pitch": 69, "duration": 90, "velocity": 116}, {"time": 99120, "pitch": 60, "duration": 111, "velocity": 105}, {"time": 99130, "pitch": 65, "duration": 101, "velocity": 114}, {"time": 99140, "pitch": 69, "duration": 91, "velocity": 114}, {"time": 99602, "pitch": 60, "duration": 110, "velocity": 108}, {"time": 99612, "pitch": 65, "duration": 100, "velocity": 108}, {"time": 99622, "pitch": 69, "duration": 90, "velocity": 119}, {"time": 100080, "pitch": 60, "duration": 108, "velocity": 101}, {"time": 100090, "pitch": 65, "duration": 98, "velocity": 109}, {"time": 100100, "pitch": 69, "duration": 88, "velocity": 112}, {"time": 100558, "pitch": 58, "duration": 110, "velocity": 109}, {"time": 100558, "pitch": 63, "duration": 100, "velocity": 108}, {"time": 100568, "pitch": 67, "duration": 90, "velocity": 113}, {"time": 100578, "pitch": 70, "duration": 80, "velocity": 122}, {"time": 101039, "pitch": 58, "duration": 111, "velocity": 104}, {"time": 101039, "pitch": 63, "duration": 101, "velocity": 107}, {"time": 101049, "pitch": 67, "duration": 91, "velocity": 106}, {"time": 101060, "pitch": 70, "duration": 80, "velocity": 115}, {"time": 101521, "pitch": 58, "duration": 111, "velocity": 101}, {"time": 101521, "pitch": 63, "duration": 101, "velocity": 104}, {"time": 101531, "pitch": 67, "duration": 91, "velocity": 116}, {"time": 101541, "pitch": 70, "duration": 81, "velocity": 122}, {"time": 102003, "pitch": 58, "duration": 110, "velocity": 100}, {"time": 102003, "pitch": 63, "duration": 100, "velocity": 109}, {"time": 102013, "pitch": 67, "duration": 90, "velocity": 112}, {"time": 102023, "pitch": 70, "duration": 80, "velocity": 114}, {"time": 102481, "pitch": 60, "duration": 108, "velocity": 105}, {"time": 102491, "pitch": 65, "duration": 98, "velocity": 115}, {"time": 102501, "pitch": 69, "duration": 88, "velocity": 119}, {"time": 102959, "pitch": 60, "duration": 110, "velocity": 105}, {"time": 102969, "pitch": 65, "duration": 100, "velocity": 110}, {"time": 102979, "pitch": 69, "duration": 90, "velocity": 115}, {"time": 103440, "pitch": 60, "duration": 111, "velocity": 108}, {"time": 103450, "pitch": 65, "duration": 101, "velocity": 108}, {"time": 103460, "pitch": 69, "duration": 91, "velocity": 116}, {"time": 104400, "pitch": 58, "duration": 99, "velocity": 104}, {"time": 104410, "pitch": 62, "duration": 89, "velocity": 111}, {"time": 104420, "pitch": 65, "duration": 79, "velocity": 113}, {"time": 104430, "pitch": 70, "duration": 69, "velocity": 117}, {"time": 104878, "pitch": 58, "duration": 100, "velocity": 100}, {"time": 104888, "pitch": 62, "duration": 90, "velocity": 103}, {"time": 104898, "pitch": 65, "duration": 80, "velocity": 111}, {"time": 104908, "pitch": 70, "duration": 70, "velocity": 113}, {"time": 105360, "pitch": 58, "duration": 100, "velocity": 105}, {"time": 105370, "pitch": 62, "duration": 90, "velocity": 104}, {"time": 105380, "pitch": 65, "duration": 80, "velocity": 116}, {"time": 105390, "pitch": 70, "duration": 70, "velocity": 116}, {"time": 105841, "pitch": 58, "duration": 101, "velocity": 104}, {"time": 105851, "pitch": 62, "duration": 91, "velocity": 104}, {"time": 105861, "pitch": 65, "duration": 81, "velocity": 114}, {"time": 105871, "pitch": 70, "duration": 71, "velocity": 116}, {"time": 106319, "pitch": 58, "duration": 109, "velocity": 108}, {"time": 106319, "pitch": 63, "duration": 99, "velocity": 107}, {"time": 106329, "pitch": 67, "duration": 89, "velocity": 112}, {"time": 106339, "pitch": 70, "duration": 79, "velocity": 122}, {"time": 106797, "pitch": 58, "duration": 110, "velocity": 103}, {"time": 106797, "pitch": 63, "duration": 100, "velocity": 107}, {"time": 106807, "pitch": 67, "duration": 90, "velocity": 105}, {"time": 106817, "pitch": 70, "duration": 80, "velocity": 111}, {"time": 107279, "pitch": 58, "duration": 110, "velocity": 105}, {"time": 107279, "pitch": 63, "duration": 100, "velocity": 111}, {"time": 107289, "pitch": 67, "duration": 90, "velocity": 110}, {"time": 107299, "pitch": 70, "duration": 80, "velocity": 116}, {"time": 107761, "pitch": 58, "duration": 110, "velocity": 100}, {"time": 107761, "pitch": 63, "duration": 100, "velocity": 106}, {"time": 107771, "pitch": 67, "duration": 90, "velocity": 110}, {"time": 107781, "pitch": 70, "duration": 80, "velocity": 110}, {"time": 108242, "pitch": 58, "duration": 101, "velocity": 104}, {"time": 108252, "pitch": 62, "duration": 91, "velocity": 111}, {"time": 108262, "pitch": 65, "duration": 81, "velocity": 113}, {"time": 108272, "pitch": 70, "duration": 71, "velocity": 117}, {"time": 108720, "pitch": 58, "duration": 99, "velocity": 100}, {"time": 108730, "pitch": 62, "duration": 89, "velocity": 103}, {"time": 108740, "pitch": 65, "duration": 79, "velocity": 111}, {"time": 108750, "pitch": 70, "duration": 69, "velocity": 113}, {"time": 109198, "pitch": 58, "duration": 100, "velocity": 105}, {"time": 109208, "pitch": 62, "duration": 90, "velocity": 104}, {"time": 109218, "pitch": 65, "duration": 80, "velocity": 116}, {"time": 109228, "pitch": 70, "duration": 70, "velocity": 116}, {"time": 109680, "pitch": 58, "duration": 100, "velocity": 104}, {"time": 109690, "pitch": 62, "duration": 90, "velocity": 104}, {"time": 109700, "pitch": 65, "duration": 80, "velocity": 114}, {"time": 109710, "pitch": 70, "duration": 70, "velocity": 116}, {"time": 110162, "pitch": 60, "duration": 110, "velocity": 106}, {"time": 110172, "pitch": 65, "duration": 100, "velocity": 112}, {"time": 110182, "pitch": 69, "duration": 90, "velocity": 122}, {"time": 110639, "pitch": 60, "duration": 109, "velocity": 106}, {"time": 110649, "pitch": 65, "duration": 99, "velocity": 113}, {"time": 110659, "pitch": 69, "duration": 89, "velocity": 118}, {"time": 111117, "pitch": 60, "duration": 111, "velocity": 111}, {"time": 111127, "pitch": 65, "duration": 101, "velocity": 111}, {"time": 111137, "pitch": 69, "duration": 91, "velocity": 121}, {"time": 111599, "pitch": 60, "duration": 110, "velocity": 109}, {"time": 111609, "pitch": 65, "duration": 100, "velocity": 106}, {"time": 111619, "pitch": 69, "duration": 90, "velocity": 119}, {"time": 112081, "pitch": 58, "duration": 100, "velocity": 104}, {"time": 112091, "pitch": 62, "duration": 90, "velocity": 111}, {"time": 112101, "pitch": 65, "duration": 80, "velocity": 113}, {"time": 112111, "pitch": 70, "duration": 70, "velocity": 117}, {"time": 112563, "pitch": 58, "duration": 100, "velocity": 100}, {"time": 112573, "pitch": 62, "duration": 90, "velocity": 103}, {"time": 112583, "pitch": 65, "duration": 80, "velocity": 111}, {"time": 112593, "pitch": 70, "duration": 70, "velocity": 113}, {"time": 113040, "pitch": 58, "duration": 99, "velocity": 105}, {"time": 113050, "pitch": 62, "duration": 89, "velocity": 104}, {"time": 113060, "pitch": 65, "duration": 79, "velocity": 116}, {"time": 113070, "pitch": 70, "duration": 69, "velocity": 116}, {"time": 113518, "pitch": 58, "duration": 101, "velocity": 104}, {"time": 113528, "pitch": 62, "duration": 91, "velocity": 104}, {"time": 113538, "pitch": 65, "duration": 81, "velocity": 114}, {"time": 113548, "pitch": 70, "duration": 71, "velocity": 116}, {"time": 114000, "pitch": 58, "duration": 110, "velocity": 108}, {"time": 114000, "pitch": 63, "duration": 100, "velocity": 107}, {"time": 114010, "pitch": 67, "duration": 90, "velocity": 112}, {"time": 114020, "pitch": 70, "duration": 80, "velocity": 122}, {"time": 114482, "pitch": 58, "duration": 110, "velocity": 103}, {"time": 114482, "pitch": 63, "duration": 100, "velocity": 107}, {"time": 114492, "pitch": 67, "duration": 90, "velocity": 105}, {"time": 114502, "pitch": 70, "duration": 80, "velocity": 111}, {"time": 114960, "pitch": 58, "duration": 108, "velocity": 105}, {"time": 114960, "pitch": 63, "duration": 98, "velocity": 111}, {"time": 114969, "pitch": 67, "duration": 89, "velocity": 110}, {"time": 114979, "pitch": 70, "duration": 79, "velocity": 116}, {"time": 115437, "pitch": 58, "duration": 111, "velocity": 100}, {"time": 115437, "pitch": 63, "duration": 101, "velocity": 106}, {"time": 115447, "pitch": 67, "duration": 91, "velocity": 110}, {"time": 115457, "pitch": 70, "duration": 81, "velocity": 110}, {"time": 115919, "pitch": 58, "duration": 101, "velocity": 104}, {"time": 115929, "pitch": 62, "duration": 91, "velocity": 111}, {"time": 115939, "pitch": 65, "duration": 81, "velocity": 113}, {"time": 115949, "pitch": 70, "duration": 71, "velocity": 117}, {"time": 116401, "pitch": 58, "duration": 100, "velocity": 100}, {"time": 116411, "pitch": 62, "duration": 90, "velocity": 103}, {"time": 116421, "pitch": 65, "duration": 80, "velocity": 111}, {"time": 116431, "pitch": 70, "duration": 70, "velocity": 113}, {"time": 116883, "pitch": 60, "duration": 110, "velocity": 111}, {"time": 116893, "pitch": 65, "duration": 100, "velocity": 111}, {"time": 116903, "pitch": 69, "duration": 90, "velocity": 121}, {"time": 117360, "pitch": 60, "duration": 109, "velocity": 109}, {"time": 117370, "pitch": 65, "duration": 99, "velocity": 106}, {"time": 117380, "pitch": 69, "duration": 89, "velocity": 119}, {"time": 117838, "pitch": 58, "duration": 101, "velocity": 104}, {"time": 117848, "pitch": 62, "duration": 91, "velocity": 111}, {"time": 117858, "pitch": 65, "duration": 81, "velocity": 113}, {"time": 117868, "pitch": 70, "duration": 71, "velocity": 117}, {"time": 118320, "pitch": 58, "duration": 100, "velocity": 100}, {"time": 118330, "pitch": 62, "duration": 90, "velocity": 103}, {"time": 118340, "pitch": 65, "duration": 80, "velocity": 111}, {"time": 118350, "pitch": 70, "duration": 70, "velocity": 113}, {"time": 118802, "pitch": 58, "duration": 100, "velocity": 105}, {"time": 118812, "pitch": 62, "duration": 90, "velocity": 104}, {"time": 118822, "pitch": 65, "duration": 80, "velocity": 116}, {"time": 118832, "pitch": 70, "duration": 70, "velocity": 116}, {"time": 119280, "pitch": 58, "duration": 98, "velocity": 104}, {"time": 119290, "pitch": 62, "duration": 88, "velocity": 104}, {"time": 119299, "pitch": 65, "duration": 79, "velocity": 114}, {"time": 119309, "pitch": 70, "duration": 69, "velocity": 116}, {"time": 119758, "pitch": 58, "duration": 110, "velocity": 108}, {"time": 119758, "pitch": 63, "duration": 100, "velocity": 107}, {"time": 119768, "pitch": 67, "duration": 90, "velocity": 112}, {"time": 119778, "pitch": 70, "duration": 80, "velocity": 122}, {"time": 120239, "pitch": 58, "duration": 111, "velocity": 103}, {"time": 120239, "pitch": 63, "duration": 101, "velocity": 107}, {"time": 120249, "pitch": 67, "duration": 91, "velocity": 105}, {"time": 120259, "pitch": 70, "duration": 81, "velocity": 111}, {"time": 120721, "pitch": 58, "duration": 110, "velocity": 105}, {"time": 120721, "pitch": 63, "duration": 100, "velocity": 111}, {"time": 120731, "pitch": 67, "duration": 90, "velocity": 110}, {"time": 120741, "pitch": 70, "duration": 80, "velocity": 116}, {"time": 121203, "pitch": 58, "duration": 110, "velocity": 100}, {"time": 121203, "pitch": 63, "duration": 100, "velocity": 106}, {"time": 121213, "pitch": 67, "duration": 90, "velocity": 110}, {"time": 121223, "pitch": 70, "duration": 80, "velocity": 110}, {"time": 121681, "pitch": 58, "duration": 98, "velocity": 104}, {"time": 121691, "pitch": 62, "duration": 88, "velocity": 111}, {"time": 121700, "pitch": 65, "duration": 79, "velocity": 113}, {"time": 121710, "pitch": 70, "duration": 69, "velocity": 117}, {"time": 122158, "pitch": 58, "duration": 101, "velocity": 100}, {"time": 122169, "pitch": 62, "duration": 90, "velocity": 103}, {"time": 122179, "pitch": 65, "duration": 80, "velocity": 111}, {"time": 122189, "pitch": 70, "duration": 70, "velocity": 113}, {"time": 122640, "pitch": 58, "duration": 101, "velocity": 105}, {"time": 122650, "pitch": 62, "duration": 91, "velocity": 104}, {"time": 122660, "pitch": 65, "duration": 81, "velocity": 116}, {"time": 122670, "pitch": 70, "duration": 71, "velocity": 116}, {"time": 123122, "pitch": 58, "duration": 100, "velocity": 104}, {"time": 123132, "pitch": 62, "duration": 90, "velocity": 104}, {"time": 123142, "pitch": 65, "duration": 80, "velocity": 114}, {"time": 123152, "pitch": 70, "duration": 70, "velocity": 116}, {"time": 123600, "pitch": 60, "duration": 99, "velocity": 104}, {"time": 123610, "pitch": 64, "duration": 89, "velocity": 111}, {"time": 123620, "pitch": 67, "duration": 79, "velocity": 113}, {"time": 123629, "pitch": 72, "duration": 70, "velocity": 117}, {"time": 124078, "pitch": 60, "duration": 100, "velocity": 100}, {"time": 124088, "pitch": 64, "duration": 90, "velocity": 103}, {"time": 124098, "pitch": 67, "duration": 80, "velocity": 111}, {"time": 124108, "pitch": 72, "duration": 70, "velocity": 113}, {"time": 124559, "pitch": 60, "duration": 101, "velocity": 105}, {"time": 124569, "pitch": 64, "duration": 91, "velocity": 104}, {"time": 124580, "pitch": 67, "duration": 80, "velocity": 116}, {"time": 124590, "pitch": 72, "duration": 70, "velocity": 116}, {"time": 125041, "pitch": 60, "duration": 101, "velocity": 104}, {"time": 125051, "pitch": 64, "duration": 91, "velocity": 104}, {"time": 125061, "pitch": 67, "duration": 81, "velocity": 114}, {"time": 125071, "pitch": 72, "duration": 71, "velocity": 116}, {"time": 125292, "pitch": 60, "duration": 111, "velocity": 118}, {"time": 125302, "pitch": 65, "duration": 101, "velocity": 110}, {"time": 125312, "pitch": 69, "duration": 91, "velocity": 112}, {"time": 125322, "pitch": 72, "duration": 81, "velocity": 102}, {"time": 125533, "pitch": 60, "duration": 110, "velocity": 112}, {"time": 125543, "pitch": 65, "duration": 100, "velocity": 114}, {"time": 125553, "pitch": 69, "duration": 90, "velocity": 102}, {"time": 125563, "pitch": 72, "duration": 80, "velocity": 99}, {"time": 125774, "pitch": 60, "duration": 227, "velocity": 115}, {"time": 125784, "pitch": 65, "duration": 217, "velocity": 111}, {"time": 125793, "pitch": 69, "duration": 208, "velocity": 107}, {"time": 125803, "pitch": 72, "duration": 198, "velocity": 105}, {"time": 126001, "pitch": 72, "duration": 10, "velocity": 101}, {"time": 126011, "pitch": 69, "duration": 10, "velocity": 107}, {"time": 126021, "pitch": 65, "duration": 9, "velocity": 114}, {"time": 126030, "pitch": 60, "duration": 10, "velocity": 113}, {"time": 126169, "pitch": 60, "duration": 109, "velocity": 113}, {"time": 126179, "pitch": 65, "duration": 99, "velocity": 110}, {"time": 126188, "pitch": 69, "duration": 90, "velocity": 107}, {"time": 126198, "pitch": 72, "duration": 80, "velocity": 104}, {"time": 126408, "pitch": 60, "duration": 71, "velocity": 113}, {"time": 126418, "pitch": 65, "duration": 61, "velocity": 107}, {"time": 126428, "pitch": 69, "duration": 51, "velocity": 107}, {"time": 126439, "pitch": 72, "duration": 40, "velocity": 96}, {"time": 126479, "pitch": 72, "duration": 120, "velocity": 101}, {"time": 126489, "pitch": 69, "duration": 110, "velocity": 105}, {"time": 126499, "pitch": 65, "duration": 100, "velocity": 111}, {"time": 126509, "pitch": 60, "duration": 90, "velocity": 123}, {"time": 127442, "pitch": 58, "duration": 101, "velocity": 104}, {"time": 127452, "pitch": 62, "duration": 91, "velocity": 108}, {"time": 127462, "pitch": 65, "duration": 81, "velocity": 115}, {"time": 127472, "pitch": 70, "duration": 71, "velocity": 123}, {"time": 127920, "pitch": 58, "duration": 99, "velocity": 104}, {"time": 127930, "pitch": 62, "duration": 89, "velocity": 106}, {"time": 127940, "pitch": 65, "duration": 79, "velocity": 109}, {"time": 127950, "pitch": 70, "duration": 69, "velocity": 118}, {"time": 128398, "pitch": 58, "duration": 100, "velocity": 104}, {"time": 128408, "pitch": 62, "duration": 90, "velocity": 109}, {"time": 128418, "pitch": 65, "duration": 80, "velocity": 110}, {"time": 128428, "pitch": 70, "duration": 70, "velocity": 116}, {"time": 128880, "pitch": 58, "duration": 100, "velocity": 103}, {"time": 128890, "pitch": 62, "duration": 90, "velocity": 105}, {"time": 128900, "pitch": 65, "duration": 80, "velocity": 105}, {"time": 128910, "pitch": 70, "duration": 70, "velocity": 110}, {"time": 129361, "pitch": 57, "duration": 111, "velocity": 105}, {"time": 129371, "pitch": 62, "duration": 101, "velocity": 111}, {"time": 129381, "pitch": 65, "duration": 91, "velocity": 117}, {"time": 129839, "pitch": 57, "duration": 109, "velocity": 106}, {"time": 129849, "pitch": 62, "duration": 99, "velocity": 114}, {"time": 129859, "pitch": 65, "duration": 89, "velocity": 110}, {"time": 130317, "pitch": 58, "duration": 110, "velocity": 103}, {"time": 130327, "pitch": 62, "duration": 100, "velocity": 111}, {"time": 130337, "pitch": 67, "duration": 90, "velocity": 114}, {"time": 130809, "pitch": 58, "duration": 100, "velocity": 109}, {"time": 130819, "pitch": 63, "duration": 90, "velocity": 114}, {"time": 131281, "pitch": 58, "duration": 100, "velocity": 104}, {"time": 131291, "pitch": 62, "duration": 90, "velocity": 108}, {"time": 131301, "pitch": 65, "duration": 80, "velocity": 115}, {"time": 131311, "pitch": 70, "duration": 70, "velocity": 123}, {"time": 131762, "pitch": 58, "duration": 101, "velocity": 104}, {"time": 131772, "pitch": 62, "duration": 91, "velocity": 106}, {"time": 131782, "pitch": 65, "duration": 81, "velocity": 109}, {"time": 131792, "pitch": 70, "duration": 71, "velocity": 118}, {"time": 132240, "pitch": 60, "duration": 99, "velocity": 104}, {"time": 132250, "pitch": 64, "duration": 89, "velocity": 109}, {"time": 132260, "pitch": 67, "duration": 79, "velocity": 110}, {"time": 132270, "pitch": 72, "duration": 69, "velocity": 116}, {"time": 132718, "pitch": 60, "duration": 100, "velocity": 103}, {"time": 132728, "pitch": 64, "duration": 90, "velocity": 105}, {"time": 132738, "pitch": 67, "duration": 80, "velocity": 105}, {"time": 132748, "pitch": 72, "duration": 70, "velocity": 110}, {"time": 133200, "pitch": 60, "duration": 110, "velocity": 106}, {"time": 133210, "pitch": 65, "duration": 100, "velocity": 112}, {"time": 133220, "pitch": 69, "duration": 90, "velocity": 122}, {"time": 133682, "pitch": 60, "duration": 110, "velocity": 106}, {"time": 133692, "pitch": 65, "duration": 100, "velocity": 113}, {"time": 133702, "pitch": 69, "duration": 90, "velocity": 118}, {"time": 134159, "pitch": 58, "duration": 99, "velocity": 104}, {"time": 134169, "pitch": 62, "duration": 89, "velocity": 109}, {"time": 134179, "pitch": 65, "duration": 79, "velocity": 110}, {"time": 134189, "pitch": 70, "duration": 69, "velocity": 116}, {"time": 134637, "pitch": 58, "duration": 101, "velocity": 103}, {"time": 134647, "pitch": 62, "duration": 91, "velocity": 105}, {"time": 134657, "pitch": 65, "duration": 81, "velocity": 105}, {"time": 134667, "pitch": 70, "duration": 71, "velocity": 110}, {"time": 135119, "pitch": 58, "duration": 100, "velocity": 104}, {"time": 135129, "pitch": 62, "duration": 90, "velocity": 108}, {"time": 135139, "pitch": 65, "duration": 80, "velocity": 115}, {"time": 135149, "pitch": 70, "duration": 70, "velocity": 123}, {"time": 135601, "pitch": 58, "duration": 100, "velocity": 104}, {"time": 135611, "pitch": 62, "duration": 90, "velocity": 106}, {"time": 135621, "pitch": 65, "duration": 80, "velocity": 109}, {"time": 135631, "pitch": 70, "duration": 70, "velocity": 118}, {"time": 136083, "pitch": 58, "duration": 100, "velocity": 104}, {"time": 136093, "pitch": 62, "duration": 90, "velocity": 109}, {"time": 136103, "pitch": 65, "duration": 80, "velocity": 110}, {"time": 136113, "pitch": 70, "duration": 70, "velocity": 116}, {"time": 136560, "pitch": 58, "duration": 99, "velocity": 103}, {"time": 136570, "pitch": 62, "duration": 89, "velocity": 105}, {"time": 136580, "pitch": 65, "duration": 79, "velocity": 105}, {"time": 136590, "pitch": 70, "duration": 69, "velocity": 110}, {"time": 137038, "pitch": 57, "duration": 111, "velocity": 105}, {"time": 137048, "pitch": 62, "duration": 101, "velocity": 111}, {"time": 137058, "pitch": 65, "duration": 91, "velocity": 117}, {"time": 137520, "pitch": 57, "duration": 110, "velocity": 106}, {"time": 137530, "pitch": 62, "duration": 100, "velocity": 114}, {"time": 137540, "pitch": 65, "duration": 90, "velocity": 110}, {"time": 138002, "pitch": 58, "duration": 110, "velocity": 103}, {"time": 138012, "pitch": 62, "duration": 100, "velocity": 111}, {"time": 138022, "pitch": 67, "duration": 90, "velocity": 114}, {"time": 138489, "pitch": 58, "duration": 99, "velocity": 109}, {"time": 138499, "pitch": 63, "duration": 89, "velocity": 114}, {"time": 138957, "pitch": 58, "duration": 101, "velocity": 104}, {"time": 138967, "pitch": 62, "duration": 91, "velocity": 108}, {"time": 138977, "pitch": 65, "duration": 81, "velocity": 115}, {"time": 138987, "pitch": 70, "duration": 71, "velocity": 123}, {"time": 139439, "pitch": 58, "duration": 101, "velocity": 104}, {"time": 139449, "pitch": 62, "duration": 91, "velocity": 106}, {"time": 139459, "pitch": 65, "duration": 81, "velocity": 109}, {"time": 139469, "pitch": 70, "duration": 71, "velocity": 118}, {"time": 139921, "pitch": 60, "duration": 100, "velocity": 104}, {"time": 139931, "pitch": 64, "duration": 90, "velocity": 109}, {"time": 139941, "pitch": 67, "duration": 80, "velocity": 110}, {"time": 139951, "pitch": 72, "duration": 70, "velocity": 116}, {"time": 140403, "pitch": 60, "duration": 100, "velocity": 103}, {"time": 140413, "pitch": 64, "duration": 90, "velocity": 105}, {"time": 140423, "pitch": 67, "duration": 80, "velocity": 105}, {"time": 140433, "pitch": 72, "duration": 70, "velocity": 110}, {"time": 140880, "pitch": 60, "duration": 109, "velocity": 106}, {"time": 140890, "pitch": 65, "duration": 99, "velocity": 112}, {"time": 140900, "pitch": 69, "duration": 89, "velocity": 122}, {"time": 141358, "pitch": 60, "duration": 111, "velocity": 106}, {"time": 141368, "pitch": 65, "duration": 101, "velocity": 113}, {"time": 141378, "pitch": 69, "duration": 91, "velocity": 118}, {"time": 141840, "pitch": 58, "duration": 100, "velocity": 104}, {"time": 141850, "pitch": 62, "duration": 90, "velocity": 109}, {"time": 141860, "pitch": 65, "duration": 80, "velocity": 110}, {"time": 141870, "pitch": 70, "duration": 70, "velocity": 116}, {"time": 142322, "pitch": 58, "duration": 100, "velocity": 103}, {"time": 142332, "pitch": 62, "duration": 90, "velocity": 105}, {"time": 142342, "pitch": 65, "duration": 80, "velocity": 105}, {"time": 142352, "pitch": 70, "duration": 70, "velocity": 110}, {"time": 142800, "pitch": 61, "duration": 98, "velocity": 100}, {"time": 142810, "pitch": 65, "duration": 88, "velocity": 106}, {"time": 142819, "pitch": 68, "duration": 79, "velocity": 116}, {"time": 143278, "pitch": 61, "duration": 100, "velocity": 104}, {"time": 143288, "pitch": 65, "duration": 90, "velocity": 108}, {"time": 143298, "pitch": 68, "duration": 80, "velocity": 109}, {"time": 143759, "pitch": 61, "duration": 101, "velocity": 104}, {"time": 143769, "pitch": 65, "duration": 91, "velocity": 112}, {"time": 143779, "pitch": 68, "duration": 81, "velocity": 116}, {"time": 144241, "pitch": 61, "duration": 100, "velocity": 96}, {"time": 144251, "pitch": 65, "duration": 90, "velocity": 101}, {"time": 144261, "pitch": 68, "duration": 80, "velocity": 108}, {"time": 144733, "pitch": 60, "duration": 110, "velocity": 103}, {"time": 144743, "pitch": 63, "duration": 100, "velocity": 110}, {"time": 144753, "pitch": 68, "duration": 90, "velocity": 119}, {"time": 145211, "pitch": 60, "duration": 108, "velocity": 109}, {"time": 145220, "pitch": 63, "duration": 99, "velocity": 109}, {"time": 145230, "pitch": 68, "duration": 89, "velocity": 117}, {"time": 145689, "pitch": 60, "duration": 110, "velocity": 110}, {"time": 145699, "pitch": 63, "duration": 100, "velocity": 110}, {"time": 145709, "pitch": 68, "duration": 90, "velocity": 121}, {"time": 146170, "pitch": 60, "duration": 111, "velocity": 105}, {"time": 146180, "pitch": 63, "duration": 101, "velocity": 112}, {"time": 146190, "pitch": 68, "duration": 91, "velocity": 113}, {"time": 146642, "pitch": 60, "duration": 110, "velocity": 114}, {"time": 146652, "pitch": 65, "duration": 100, "velocity": 113}, {"time": 146662, "pitch": 69, "duration": 90, "velocity": 123}, {"time": 147120, "pitch": 60, "duration": 108, "velocity": 103}, {"time": 147130, "pitch": 65, "duration": 98, "velocity": 108}, {"time": 147140, "pitch": 69, "duration": 88, "velocity": 112}, {"time": 147598, "pitch": 60, "duration": 110, "velocity": 110}, {"time": 147608, "pitch": 65, "duration": 100, "velocity": 110}, {"time": 147618, "pitch": 69, "duration": 90, "velocity": 116}, {"time": 148079, "pitch": 60, "duration": 111, "velocity": 104}, {"time": 148090, "pitch": 65, "duration": 100, "velocity": 106}, {"time": 148100, "pitch": 69, "duration": 90, "velocity": 112}, {"time": 148571, "pitch": 58, "duration": 111, "velocity": 114}, {"time": 148581, "pitch": 61, "duration": 101, "velocity": 110}, {"time": 148591, "pitch": 66, "duration": 91, "velocity": 118}, {"time": 149053, "pitch": 58, "duration": 110, "velocity": 109}, {"time": 149063, "pitch": 61, "duration": 100, "velocity": 107}, {"time": 149073, "pitch": 66, "duration": 90, "velocity": 110}, {"time": 149531, "pitch": 60, "duration": 108, "velocity": 107}, {"time": 149541, "pitch": 63, "duration": 98, "velocity": 116}, {"time": 149550, "pitch": 68, "duration": 89, "velocity": 122}, {"time": 150009, "pitch": 60, "duration": 110, "velocity": 108}, {"time": 150019, "pitch": 63, "duration": 100, "velocity": 109}, {"time": 150029, "pitch": 68, "duration": 90, "velocity": 118}, {"time": 150480, "pitch": 61, "duration": 101, "velocity": 109}, {"time": 150490, "pitch": 65, "duration": 91, "velocity": 111}, {"time": 150501, "pitch": 68, "duration": 80, "velocity": 110}, {"time": 150962, "pitch": 61, "duration": 101, "velocity": 103}, {"time": 150972, "pitch": 65, "duration": 91, "velocity": 108}, {"time": 150982, "pitch": 68, "duration": 81, "velocity": 113}, {"time": 151440, "pitch": 61, "duration": 99, "velocity": 107}, {"time": 151450, "pitch": 65, "duration": 89, "velocity": 103}, {"time": 151460, "pitch": 68, "duration": 79, "velocity": 114}, {"time": 151918, "pitch": 61, "duration": 100, "velocity": 95}, {"time": 151928, "pitch": 65, "duration": 90, "velocity": 105}, {"time": 151938, "pitch": 68, "duration": 80, "velocity": 110}, {"time": 152410, "pitch": 60, "duration": 110, "velocity": 106}, {"time": 152420, "pitch": 63, "duration": 100, "velocity": 111}, {"time": 152430, "pitch": 68, "duration": 90, "velocity": 113}, {"time": 152891, "pitch": 60, "duration": 111, "velocity": 107}, {"time": 152901, "pitch": 63, "duration": 101, "velocity": 105}, {"time": 152912, "pitch": 68, "duration": 90, "velocity": 115}, {"time": 153369, "pitch": 60, "duration": 109, "velocity": 105}, {"time": 153379, "pitch": 63, "duration": 99, "velocity": 111}, {"time": 153389, "pitch": 68, "duration": 89, "velocity": 119}, {"time": 153847, "pitch": 60, "duration": 110, "velocity": 101}, {"time": 153857, "pitch": 63, "duration": 100, "velocity": 110}, {"time": 153867, "pitch": 68, "duration": 90, "velocity": 115}, {"time": 154319, "pitch": 60, "duration": 110, "velocity": 112}, {"time": 154329, "pitch": 65, "duration": 100, "velocity": 115}, {"time": 154339, "pitch": 69, "duration": 90, "velocity": 119}, {"time": 154801, "pitch": 60, "duration": 110, "velocity": 104}, {"time": 154811, "pitch": 65, "duration": 100, "velocity": 106}, {"time": 154821, "pitch": 69, "duration": 90, "velocity": 119}, {"time": 155282, "pitch": 60, "duration": 111, "velocity": 111}, {"time": 155292, "pitch": 65, "duration": 101, "velocity": 109}, {"time": 155302, "pitch": 69, "duration": 91, "velocity": 121}, {"time": 155760, "pitch": 60, "duration": 109, "velocity": 102}, {"time": 155770, "pitch": 65, "duration": 99, "velocity": 106}, {"time": 155780, "pitch": 69, "duration": 89, "velocity": 115}, {"time": 156248, "pitch": 58, "duration": 110, "velocity": 106}, {"time": 156258, "pitch": 61, "duration": 100, "velocity": 111}, {"time": 156268, "pitch": 66, "duration": 90, "velocity": 119}, {"time": 156730, "pitch": 58, "duration": 110, "velocity": 109}, {"time": 156740, "pitch": 61, "duration": 100, "velocity": 114}, {"time": 156750, "pitch": 66, "duration": 90, "velocity": 115}, {"time": 157212, "pitch": 60, "duration": 110, "velocity": 109}, {"time": 157222, "pitch": 63, "duration": 100, "velocity": 115}, {"time": 157232, "pitch": 68, "duration": 90, "velocity": 114}, {"time": 157693, "pitch": 60, "duration": 111, "velocity": 106}, {"time": 157703, "pitch": 63, "duration": 101, "velocity": 111}, {"time": 157713, "pitch": 68, "duration": 91, "velocity": 114}, {"time": 157943, "pitch": 58, "duration": 3820, "velocity": 102}, {"time": 157953, "pitch": 62, "duration": 3810, "velocity": 107}, {"time": 157963, "pitch": 65, "duration": 3800, "velocity": 112}, {"time": 157974, "pitch": 70, "duration": 3789, "velocity": 124}, {"time": 12002, "pitch": 70, "duration": 131, "velocity": 114}, {"time": 12239, "pitch": 70, "duration": 131, "velocity": 113}, {"time": 12476, "pitch": 65, "duration": 112, "velocity": 115}, {"time": 12717, "pitch": 67, "duration": 133, "velocity": 112}, {"time": 12958, "pitch": 70, "duration": 133, "velocity": 114}, {"time": 13119, "pitch": 70, "duration": 69, "velocity": 113}, {"time": 13199, "pitch": 74, "duration": 189, "velocity": 112}, {"time": 13921, "pitch": 75, "duration": 241, "velocity": 114}, {"time": 14403, "pitch": 67, "duration": 110, "velocity": 115}, {"time": 14640, "pitch": 70, "duration": 122, "velocity": 115}, {"time": 14877, "pitch": 75, "duration": 124, "velocity": 115}, {"time": 15118, "pitch": 67, "duration": 190, "velocity": 115}, {"time": 15841, "pitch": 70, "duration": 132, "velocity": 115}, {"time": 16082, "pitch": 70, "duration": 132, "velocity": 115}, {"time": 16322, "pitch": 65, "duration": 110, "velocity": 115}, {"time": 16559, "pitch": 67, "duration": 131, "velocity": 115}, {"time": 16796, "pitch": 70, "duration": 124, "velocity": 115}, {"time": 17037, "pitch": 74, "duration": 190, "velocity": 113}, {"time": 17760, "pitch": 77, "duration": 241, "velocity": 112}, {"time": 18242, "pitch": 75, "duration": 240, "velocity": 112}, {"time": 18723, "pitch": 74, "duration": 119, "velocity": 114}, {"time": 18881, "pitch": 74, "duration": 79, "velocity": 100}, {"time": 18960, "pitch": 72, "duration": 187, "velocity": 114}, {"time": 19679, "pitch": 70, "duration": 133, "velocity": 113}, {"time": 19920, "pitch": 70, "duration": 132, "velocity": 113}, {"time": 20161, "pitch": 65, "duration": 111, "velocity": 113}, {"time": 20402, "pitch": 67, "duration": 132, "velocity": 114}, {"time": 20643, "pitch": 70, "duration": 131, "velocity": 114}, {"time": 20801, "pitch": 70, "duration": 68, "velocity": 112}, {"time": 20880, "pitch": 74, "duration": 186, "velocity": 112}, {"time": 21598, "pitch": 75, "duration": 241, "velocity": 115}, {"time": 22080, "pitch": 67, "duration": 111, "velocity": 113}, {"time": 22321, "pitch": 70, "duration": 123, "velocity": 115}, {"time": 22562, "pitch": 75, "duration": 123, "velocity": 114}, {"time": 22803, "pitch": 67, "duration": 189, "velocity": 115}, {"time": 23517, "pitch": 70, "duration": 161, "velocity": 112}, {"time": 23758, "pitch": 70, "duration": 161, "velocity": 112}, {"time": 23999, "pitch": 65, "duration": 112, "velocity": 114}, {"time": 24240, "pitch": 67, "duration": 133, "velocity": 112}, {"time": 24481, "pitch": 70, "duration": 126, "velocity": 114}, {"time": 24722, "pitch": 69, "duration": 111, "velocity": 114}, {"time": 24963, "pitch": 67, "duration": 124, "velocity": 113}, {"time": 25200, "pitch": 69, "duration": 109, "velocity": 113}, {"time": 25358, "pitch": 70, "duration": 440, "velocity": 114}, {"time": 27601, "pitch": 66, "duration": 194, "velocity": 112}, {"time": 27838, "pitch": 67, "duration": 202, "velocity": 111}, {"time": 28078, "pitch": 75, "duration": 205, "velocity": 110}, {"time": 28319, "pitch": 70, "duration": 737, "velocity": 110}, {"time": 29520, "pitch": 65, "duration": 199, "velocity": 111}, {"time": 29757, "pitch": 65, "duration": 205, "velocity": 111}, {"time": 29998, "pitch": 74, "duration": 197, "velocity": 109}, {"time": 30239, "pitch": 70, "duration": 736, "velocity": 110}, {"time": 31202, "pitch": 70, "duration": 133, "velocity": 113}, {"time": 31363, "pitch": 70, "duration": 68, "velocity": 114}, {"time": 31443, "pitch": 70, "duration": 132, "velocity": 113}, {"time": 31684, "pitch": 70, "duration": 124, "velocity": 114}, {"time": 31921, "pitch": 67, "duration": 109, "velocity": 115}, {"time": 32158, "pitch": 70, "duration": 123, "velocity": 114}, {"time": 32559, "pitch": 65, "duration": 60, "velocity": 115}, {"time": 32640, "pitch": 67, "duration": 132, "velocity": 114}, {"time": 32800, "pitch": 65, "duration": 68, "velocity": 115}, {"time": 32880, "pitch": 67, "duration": 133, "velocity": 112}, {"time": 33041, "pitch": 65, "duration": 562, "velocity": 102}, {"time": 35040, "pitch": 70, "duration": 133, "velocity": 114}, {"time": 35201, "pitch": 70, "duration": 68, "velocity": 115}, {"time": 35281, "pitch": 67, "duration": 133, "velocity": 112}, {"time": 35522, "pitch": 70, "duration": 131, "velocity": 112}, {"time": 35680, "pitch": 70, "duration": 67, "velocity": 112}, {"time": 35759, "pitch": 67, "duration": 131, "velocity": 115}, {"time": 35996, "pitch": 70, "duration": 133, "velocity": 114}, {"time": 36157, "pitch": 67, "duration": 132, "velocity": 113}, {"time": 36398, "pitch": 70, "duration": 321, "velocity": 113}, {"time": 36960, "pitch": 74, "duration": 132, "velocity": 113}, {"time": 37120, "pitch": 74, "duration": 69, "velocity": 112}, {"time": 37201, "pitch": 69, "duration": 132, "velocity": 113}, {"time": 37441, "pitch": 65, "duration": 133, "velocity": 115}, {"time": 37602, "pitch": 65, "duration": 68, "velocity": 112}, {"time": 37682, "pitch": 69, "duration": 133, "velocity": 113}, {"time": 37923, "pitch": 72, "duration": 131, "velocity": 115}, {"time": 38081, "pitch": 74, "duration": 131, "velocity": 115}, {"time": 38318, "pitch": 70, "duration": 320, "velocity": 113}, {"time": 39120, "pitch": 70, "duration": 132, "velocity": 115}, {"time": 39361, "pitch": 70, "duration": 132, "velocity": 114}, {"time": 39521, "pitch": 70, "duration": 68, "velocity": 115}, {"time": 39602, "pitch": 70, "duration": 240, "velocity": 115}, {"time": 40079, "pitch": 72, "duration": 131, "velocity": 112}, {"time": 40316, "pitch": 72, "duration": 133, "velocity": 115}, {"time": 40477, "pitch": 72, "duration": 68, "velocity": 114}, {"time": 40557, "pitch": 72, "duration": 133, "velocity": 115}, {"time": 40798, "pitch": 74, "duration": 133, "velocity": 112}, {"time": 40959, "pitch": 73, "duration": 68, "velocity": 113}, {"time": 41039, "pitch": 72, "duration": 132, "velocity": 113}, {"time": 41200, "pitch": 71, "duration": 68, "velocity": 113}, {"time": 41280, "pitch": 70, "duration": 132, "velocity": 112}, {"time": 41440, "pitch": 69, "duration": 69, "velocity": 112}, {"time": 41521, "pitch": 67, "duration": 132, "velocity": 112}, {"time": 41762, "pitch": 72, "duration": 132, "velocity": 115}, {"time": 41922, "pitch": 74, "duration": 133, "velocity": 114}, {"time": 42163, "pitch": 70, "duration": 317, "velocity": 114}, {"time": 42717, "pitch": 70, "duration": 133, "velocity": 113}, {"time": 42878, "pitch": 70, "duration": 68, "velocity": 114}, {"time": 42958, "pitch": 67, "duration": 133, "velocity": 115}, {"time": 43199, "pitch": 70, "duration": 133, "velocity": 114}, {"time": 43360, "pitch": 70, "duration": 68, "velocity": 113}, {"time": 43440, "pitch": 67, "duration": 132, "velocity": 114}, {"time": 43681, "pitch": 70, "duration": 132, "velocity": 114}, {"time": 43841, "pitch": 67, "duration": 133, "velocity": 113}, {"time": 44082, "pitch": 70, "duration": 199, "velocity": 114}, {"time": 44637, "pitch": 74, "duration": 132, "velocity": 115}, {"time": 44797, "pitch": 74, "duration": 68, "velocity": 114}, {"time": 44877, "pitch": 69, "duration": 133, "velocity": 114}, {"time": 45118, "pitch": 65, "duration": 133, "velocity": 112}, {"time": 45279, "pitch": 65, "duration": 68, "velocity": 115}, {"time": 45359, "pitch": 69, "duration": 133, "velocity": 114}, {"time": 45600, "pitch": 72, "duration": 132, "velocity": 115}, {"time": 45761, "pitch": 74, "duration": 132, "velocity": 112}, {"time": 46001, "pitch": 70, "duration": 322, "velocity": 115}, {"time": 46800, "pitch": 70, "duration": 131, "velocity": 112}, {"time": 47037, "pitch": 70, "duration": 133, "velocity": 114}, {"time": 47198, "pitch": 70, "duration": 68, "velocity": 115}, {"time": 47278, "pitch": 70, "duration": 241, "velocity": 114}, {"time": 47760, "pitch": 72, "duration": 133, "velocity": 115}, {"time": 48001, "pitch": 72, "duration": 132, "velocity": 113}, {"time": 48162, "pitch": 72, "duration": 68, "velocity": 114}, {"time": 48242, "pitch": 72, "duration": 120, "velocity": 112}, {"time": 48483, "pitch": 74, "duration": 130, "velocity": 113}, {"time": 48641, "pitch": 73, "duration": 67, "velocity": 113}, {"time": 48720, "pitch": 72, "duration": 130, "velocity": 113}, {"time": 48878, "pitch": 71, "duration": 67, "velocity": 115}, {"time": 48957, "pitch": 70, "duration": 132, "velocity": 113}, {"time": 49117, "pitch": 69, "duration": 68, "velocity": 113}, {"time": 49198, "pitch": 67, "duration": 132, "velocity": 112}, {"time": 49438, "pitch": 72, "duration": 133, "velocity": 115}, {"time": 49599, "pitch": 74, "duration": 132, "velocity": 112}, {"time": 49840, "pitch": 70, "duration": 321, "velocity": 112}, {"time": 58079, "pitch": 70, "duration": 120, "velocity": 115}, {"time": 58242, "pitch": 70, "duration": 78, "velocity": 113}, {"time": 58320, "pitch": 70, "duration": 120, "velocity": 113}, {"time": 58560, "pitch": 65, "duration": 112, "velocity": 114}, {"time": 58801, "pitch": 67, "duration": 133, "velocity": 114}, {"time": 59042, "pitch": 70, "duration": 132, "velocity": 114}, {"time": 59200, "pitch": 70, "duration": 68, "velocity": 113}, {"time": 59279, "pitch": 74, "duration": 187, "velocity": 114}, {"time": 59998, "pitch": 75, "duration": 361, "velocity": 114}, {"time": 60480, "pitch": 67, "duration": 111, "velocity": 112}, {"time": 60721, "pitch": 70, "duration": 123, "velocity": 113}, {"time": 60961, "pitch": 75, "duration": 124, "velocity": 114}, {"time": 61202, "pitch": 67, "duration": 190, "velocity": 114}, {"time": 61917, "pitch": 70, "duration": 121, "velocity": 115}, {"time": 62078, "pitch": 70, "duration": 80, "velocity": 114}, {"time": 62158, "pitch": 70, "duration": 120, "velocity": 113}, {"time": 62399, "pitch": 65, "duration": 111, "velocity": 114}, {"time": 62640, "pitch": 67, "duration": 132, "velocity": 115}, {"time": 62881, "pitch": 70, "duration": 123, "velocity": 114}, {"time": 63122, "pitch": 74, "duration": 240, "velocity": 114}, {"time": 63836, "pitch": 77, "duration": 173, "velocity": 114}, {"time": 64318, "pitch": 75, "duration": 263, "velocity": 114}, {"time": 64800, "pitch": 74, "duration": 120, "velocity": 112}, {"time": 64960, "pitch": 74, "duration": 81, "velocity": 114}, {"time": 65041, "pitch": 72, "duration": 189, "velocity": 115}, {"time": 65763, "pitch": 70, "duration": 131, "velocity": 114}, {"time": 66000, "pitch": 70, "duration": 131, "velocity": 115}, {"time": 66237, "pitch": 67, "duration": 161, "velocity": 112}, {"time": 66398, "pitch": 65, "duration": 80, "velocity": 112}, {"time": 66478, "pitch": 67, "duration": 161, "velocity": 115}, {"time": 66719, "pitch": 70, "duration": 134, "velocity": 114}, {"time": 66880, "pitch": 70, "duration": 69, "velocity": 112}, {"time": 66960, "pitch": 74, "duration": 361, "velocity": 115}, {"time": 67683, "pitch": 75, "duration": 355, "velocity": 113}, {"time": 68157, "pitch": 67, "duration": 111, "velocity": 115}, {"time": 68397, "pitch": 70, "duration": 124, "velocity": 115}, {"time": 68638, "pitch": 75, "duration": 124, "velocity": 113}, {"time": 68879, "pitch": 67, "duration": 361, "velocity": 114}, {"time": 69602, "pitch": 70, "duration": 160, "velocity": 114}, {"time": 69843, "pitch": 69, "duration": 160, "velocity": 113}, {"time": 70083, "pitch": 65, "duration": 158, "velocity": 112}, {"time": 70320, "pitch": 67, "duration": 158, "velocity": 113}, {"time": 70557, "pitch": 70, "duration": 161, "velocity": 115}, {"time": 70798, "pitch": 69, "duration": 161, "velocity": 114}, {"time": 71039, "pitch": 67, "duration": 161, "velocity": 112}, {"time": 71280, "pitch": 69, "duration": 161, "velocity": 115}, {"time": 71521, "pitch": 70, "duration": 679, "velocity": 115}, {"time": 73681, "pitch": 67, "duration": 198, "velocity": 110}, {"time": 73922, "pitch": 67, "duration": 203, "velocity": 111}, {"time": 74163, "pitch": 75, "duration": 205, "velocity": 110}, {"time": 74404, "pitch": 70, "duration": 729, "velocity": 111}, {"time": 75600, "pitch": 65, "duration": 203, "velocity": 112}, {"time": 75841, "pitch": 65, "duration": 205, "velocity": 110}, {"time": 76082, "pitch": 74, "duration": 198, "velocity": 111}, {"time": 76323, "pitch": 70, "duration": 729, "velocity": 110}, {"time": 77279, "pitch": 70, "duration": 132, "velocity": 114}, {"time": 77439, "pitch": 70, "duration": 68, "velocity": 115}, {"time": 77519, "pitch": 70, "duration": 133, "velocity": 113}, {"time": 77760, "pitch": 70, "duration": 127, "velocity": 115}, {"time": 78001, "pitch": 67, "duration": 112, "velocity": 112}, {"time": 78242, "pitch": 70, "duration": 241, "velocity": 115}, {"time": 78644, "pitch": 65, "duration": 68, "velocity": 112}, {"time": 78724, "pitch": 67, "duration": 130, "velocity": 115}, {"time": 78882, "pitch": 65, "duration": 67, "velocity": 114}, {"time": 78961, "pitch": 67, "duration": 158, "velocity": 115}, {"time": 79119, "pitch": 65, "duration": 440, "velocity": 102}, {"time": 81117, "pitch": 70, "duration": 132, "velocity": 113}, {"time": 81278, "pitch": 70, "duration": 68, "velocity": 115}, {"time": 81358, "pitch": 67, "duration": 132, "velocity": 115}, {"time": 81599, "pitch": 70, "duration": 132, "velocity": 112}, {"time": 81759, "pitch": 70, "duration": 69, "velocity": 112}, {"time": 81840, "pitch": 67, "duration": 132, "velocity": 115}, {"time": 82080, "pitch": 70, "duration": 133, "velocity": 113}, {"time": 82241, "pitch": 67, "duration": 133, "velocity": 113}, {"time": 82482, "pitch": 70, "duration": 317, "velocity": 112}, {"time": 83036, "pitch": 74, "duration": 133, "velocity": 114}, {"time": 83197, "pitch": 74, "duration": 68, "velocity": 112}, {"time": 83277, "pitch": 69, "duration": 133, "velocity": 113}, {"time": 83518, "pitch": 65, "duration": 132, "velocity": 113}, {"time": 83679, "pitch": 65, "duration": 68, "velocity": 115}, {"time": 83759, "pitch": 69, "duration": 132, "velocity": 115}, {"time": 84000, "pitch": 72, "duration": 132, "velocity": 113}, {"time": 84160, "pitch": 74, "duration": 133, "velocity": 114}, {"time": 84401, "pitch": 70, "duration": 321, "velocity": 114}, {"time": 85200, "pitch": 70, "duration": 131, "velocity": 114}, {"time": 85437, "pitch": 70, "duration": 133, "velocity": 114}, {"time": 85598, "pitch": 70, "duration": 68, "velocity": 112}, {"time": 85678, "pitch": 70, "duration": 361, "velocity": 112}, {"time": 86160, "pitch": 72, "duration": 132, "velocity": 112}, {"time": 86401, "pitch": 72, "duration": 132, "velocity": 114}, {"time": 86561, "pitch": 72, "duration": 68, "velocity": 113}, {"time": 86642, "pitch": 72, "duration": 132, "velocity": 113}, {"time": 86882, "pitch": 74, "duration": 131, "velocity": 115}, {"time": 87040, "pitch": 73, "duration": 68, "velocity": 112}, {"time": 87119, "pitch": 72, "duration": 131, "velocity": 113}, {"time": 87277, "pitch": 71, "duration": 68, "velocity": 115}, {"time": 87356, "pitch": 70, "duration": 133, "velocity": 115}, {"time": 87517, "pitch": 69, "duration": 68, "velocity": 115}, {"time": 87597, "pitch": 67, "duration": 133, "velocity": 113}, {"time": 87838, "pitch": 72, "duration": 133, "velocity": 113}, {"time": 87999, "pitch": 74, "duration": 132, "velocity": 112}, {"time": 88240, "pitch": 70, "duration": 321, "velocity": 115}, {"time": 88802, "pitch": 70, "duration": 132, "velocity": 113}, {"time": 88962, "pitch": 70, "duration": 68, "velocity": 113}, {"time": 89043, "pitch": 67, "duration": 132, "velocity": 114}, {"time": 89283, "pitch": 70, "duration": 131, "velocity": 115}, {"time": 89441, "pitch": 70, "duration": 67, "velocity": 115}, {"time": 89520, "pitch": 67, "duration": 131, "velocity": 114}, {"time": 89757, "pitch": 70, "duration": 133, "velocity": 115}, {"time": 89918, "pitch": 67, "duration": 132, "velocity": 113}, {"time": 90159, "pitch": 70, "duration": 321, "velocity": 115}, {"time": 90721, "pitch": 74, "duration": 132, "velocity": 112}, {"time": 90881, "pitch": 74, "duration": 69, "velocity": 114}, {"time": 90962, "pitch": 69, "duration": 132, "velocity": 113}, {"time": 91203, "pitch": 65, "duration": 130, "velocity": 114}, {"time": 91361, "pitch": 65, "duration": 67, "velocity": 115}, {"time": 91440, "pitch": 69, "duration": 130, "velocity": 113}, {"time": 91677, "pitch": 72, "duration": 132, "velocity": 112}, {"time": 91837, "pitch": 74, "duration": 133, "velocity": 115}, {"time": 92078, "pitch": 70, "duration": 442, "velocity": 114}, {"time": 92881, "pitch": 70, "duration": 132, "velocity": 113}, {"time": 93122, "pitch": 70, "duration": 132, "velocity": 113}, {"time": 93282, "pitch": 70, "duration": 69, "velocity": 112}, {"time": 93363, "pitch": 70, "duration": 132, "velocity": 114}, {"time": 93840, "pitch": 72, "duration": 131, "velocity": 115}, {"time": 94077, "pitch": 72, "duration": 133, "velocity": 114}, {"time": 94238, "pitch": 72, "duration": 68, "velocity": 112}, {"time": 94318, "pitch": 72, "duration": 133, "velocity": 113}, {"time": 94559, "pitch": 74, "duration": 133, "velocity": 115}, {"time": 94720, "pitch": 73, "duration": 68, "velocity": 112}, {"time": 94800, "pitch": 72, "duration": 133, "velocity": 113}, {"time": 94961, "pitch": 71, "duration": 68, "velocity": 115}, {"time": 95041, "pitch": 70, "duration": 132, "velocity": 114}, {"time": 95202, "pitch": 69, "duration": 68, "velocity": 115}, {"time": 95282, "pitch": 67, "duration": 132, "velocity": 115}, {"time": 95523, "pitch": 72, "duration": 130, "velocity": 114}, {"time": 95681, "pitch": 74, "duration": 130, "velocity": 115}, {"time": 95918, "pitch": 70, "duration": 320, "velocity": 112}, {"time": 104163, "pitch": 70, "duration": 119, "velocity": 115}, {"time": 104321, "pitch": 70, "duration": 79, "velocity": 112}, {"time": 104400, "pitch": 70, "duration": 119, "velocity": 115}, {"time": 104637, "pitch": 65, "duration": 111, "velocity": 114}, {"time": 104878, "pitch": 67, "duration": 132, "velocity": 115}, {"time": 105119, "pitch": 70, "duration": 133, "velocity": 113}, {"time": 105279, "pitch": 70, "duration": 70, "velocity": 115}, {"time": 105360, "pitch": 74, "duration": 189, "velocity": 114}, {"time": 106082, "pitch": 75, "duration": 356, "velocity": 114}, {"time": 106556, "pitch": 67, "duration": 112, "velocity": 115}, {"time": 106797, "pitch": 70, "duration": 123, "velocity": 115}, {"time": 107038, "pitch": 75, "duration": 123, "velocity": 113}, {"time": 107279, "pitch": 67, "duration": 190, "velocity": 113}, {"time": 108001, "pitch": 70, "duration": 121, "velocity": 115}, {"time": 108162, "pitch": 70, "duration": 80, "velocity": 114}, {"time": 108242, "pitch": 70, "duration": 121, "velocity": 112}, {"time": 108483, "pitch": 65, "duration": 110, "velocity": 112}, {"time": 108720, "pitch": 67, "duration": 131, "velocity": 114}, {"time": 108957, "pitch": 70, "duration": 124, "velocity": 112}, {"time": 109198, "pitch": 74, "duration": 190, "velocity": 115}, {"time": 109921, "pitch": 77, "duration": 241, "velocity": 112}, {"time": 110402, "pitch": 75, "duration": 259, "velocity": 114}, {"time": 110876, "pitch": 74, "duration": 124, "velocity": 113}, {"time": 111117, "pitch": 72, "duration": 190, "velocity": 112}, {"time": 111840, "pitch": 70, "duration": 132, "velocity": 115}, {"time": 112081, "pitch": 70, "duration": 132, "velocity": 114}, {"time": 112322, "pitch": 65, "duration": 111, "velocity": 114}, {"time": 112563, "pitch": 67, "duration": 132, "velocity": 112}, {"time": 112803, "pitch": 70, "duration": 132, "velocity": 115}, {"time": 112961, "pitch": 70, "duration": 68, "velocity": 115}, {"time": 113040, "pitch": 74, "duration": 187, "velocity": 113}, {"time": 113759, "pitch": 75, "duration": 361, "velocity": 113}, {"time": 114241, "pitch": 67, "duration": 111, "velocity": 114}, {"time": 114482, "pitch": 70, "duration": 123, "velocity": 114}, {"time": 114723, "pitch": 75, "duration": 121, "velocity": 112}, {"time": 114960, "pitch": 67, "duration": 186, "velocity": 113}, {"time": 115678, "pitch": 70, "duration": 133, "velocity": 112}, {"time": 115919, "pitch": 70, "duration": 133, "velocity": 115}, {"time": 116160, "pitch": 65, "duration": 111, "velocity": 113}, {"time": 116401, "pitch": 67, "duration": 132, "velocity": 114}, {"time": 116642, "pitch": 70, "duration": 126, "velocity": 112}, {"time": 116883, "pitch": 69, "duration": 111, "velocity": 113}, {"time": 117123, "pitch": 67, "duration": 125, "velocity": 114}, {"time": 117360, "pitch": 69, "duration": 110, "velocity": 112}, {"time": 117518, "pitch": 70, "duration": 441, "velocity": 115}, {"time": 119758, "pitch": 66, "duration": 197, "velocity": 111}, {"time": 119998, "pitch": 67, "duration": 203, "velocity": 110}, {"time": 120239, "pitch": 75, "duration": 205, "velocity": 109}, {"time": 120480, "pitch": 70, "duration": 737, "velocity": 111}, {"time": 121681, "pitch": 65, "duration": 199, "velocity": 109}, {"time": 121918, "pitch": 65, "duration": 204, "velocity": 109}, {"time": 122158, "pitch": 74, "duration": 198, "velocity": 111}, {"time": 122399, "pitch": 70, "duration": 737, "velocity": 110}, {"time": 123363, "pitch": 70, "duration": 130, "velocity": 114}, {"time": 123521, "pitch": 70, "duration": 67, "velocity": 113}, {"time": 123600, "pitch": 70, "duration": 130, "velocity": 114}, {"time": 123837, "pitch": 70, "duration": 126, "velocity": 115}, {"time": 124078, "pitch": 67, "duration": 111, "velocity": 115}, {"time": 124319, "pitch": 70, "duration": 123, "velocity": 112}, {"time": 124720, "pitch": 65, "duration": 68, "velocity": 114}, {"time": 124800, "pitch": 67, "duration": 133, "velocity": 113}, {"time": 124961, "pitch": 65, "duration": 68, "velocity": 114}, {"time": 125041, "pitch": 67, "duration": 161, "velocity": 113}, {"time": 125202, "pitch": 65, "duration": 441, "velocity": 102}, {"time": 127201, "pitch": 70, "duration": 133, "velocity": 114}, {"time": 127362, "pitch": 70, "duration": 68, "velocity": 114}, {"time": 127442, "pitch": 67, "duration": 133, "velocity": 115}, {"time": 127683, "pitch": 70, "duration": 130, "velocity": 114}, {"time": 127841, "pitch": 70, "duration": 67, "velocity": 115}, {"time": 127920, "pitch": 67, "duration": 130, "velocity": 114}, {"time": 128157, "pitch": 70, "duration": 132, "velocity": 113}, {"time": 128318, "pitch": 67, "duration": 132, "velocity": 112}, {"time": 128558, "pitch": 70, "duration": 322, "velocity": 112}, {"time": 129121, "pitch": 74, "duration": 132, "velocity": 113}, {"time": 129281, "pitch": 74, "duration": 68, "velocity": 114}, {"time": 129361, "pitch": 69, "duration": 133, "velocity": 113}, {"time": 129602, "pitch": 65, "duration": 131, "velocity": 112}, {"time": 129760, "pitch": 65, "duration": 67, "velocity": 112}, {"time": 129839, "pitch": 69, "duration": 131, "velocity": 113}, {"time": 130076, "pitch": 72, "duration": 133, "velocity": 114}, {"time": 130237, "pitch": 74, "duration": 132, "velocity": 115}, {"time": 130478, "pitch": 70, "duration": 441, "velocity": 113}, {"time": 131281, "pitch": 70, "duration": 132, "velocity": 114}, {"time": 131521, "pitch": 70, "duration": 133, "velocity": 113}, {"time": 131682, "pitch": 70, "duration": 68, "velocity": 114}, {"time": 131762, "pitch": 70, "duration": 133, "velocity": 112}, {"time": 132240, "pitch": 72, "duration": 131, "velocity": 112}, {"time": 132477, "pitch": 72, "duration": 133, "velocity": 114}, {"time": 132638, "pitch": 72, "duration": 68, "velocity": 114}, {"time": 132718, "pitch": 72, "duration": 133, "velocity": 113}, {"time": 132959, "pitch": 74, "duration": 132, "velocity": 115}, {"time": 133119, "pitch": 73, "duration": 69, "velocity": 114}, {"time": 133200, "pitch": 72, "duration": 132, "velocity": 114}, {"time": 133360, "pitch": 71, "duration": 69, "velocity": 114}, {"time": 133441, "pitch": 70, "duration": 132, "velocity": 115}, {"time": 133601, "pitch": 69, "duration": 69, "velocity": 115}, {"time": 133682, "pitch": 67, "duration": 132, "velocity": 112}, {"time": 133922, "pitch": 72, "duration": 131, "velocity": 113}, {"time": 134080, "pitch": 74, "duration": 131, "velocity": 112}, {"time": 134317, "pitch": 70, "duration": 200, "velocity": 114}, {"time": 134878, "pitch": 70, "duration": 133, "velocity": 113}, {"time": 135039, "pitch": 70, "duration": 68, "velocity": 114}, {"time": 135119, "pitch": 67, "duration": 132, "velocity": 115}, {"time": 135360, "pitch": 70, "duration": 132, "velocity": 114}, {"time": 135520, "pitch": 70, "duration": 69, "velocity": 112}, {"time": 135601, "pitch": 67, "duration": 132, "velocity": 115}, {"time": 135842, "pitch": 70, "duration": 132, "velocity": 113}, {"time": 136002, "pitch": 67, "duration": 133, "velocity": 115}, {"time": 136243, "pitch": 70, "duration": 199, "velocity": 113}, {"time": 136797, "pitch": 74, "duration": 133, "velocity": 113}, {"time": 136958, "pitch": 74, "duration": 68, "velocity": 115}, {"time": 137038, "pitch": 69, "duration": 133, "velocity": 114}, {"time": 137279, "pitch": 65, "duration": 133, "velocity": 114}, {"time": 137440, "pitch": 65, "duration": 68, "velocity": 113}, {"time": 137520, "pitch": 69, "duration": 132, "velocity": 115}, {"time": 137761, "pitch": 72, "duration": 132, "velocity": 114}, {"time": 137921, "pitch": 74, "duration": 133, "velocity": 113}, {"time": 138162, "pitch": 70, "duration": 436, "velocity": 112}, {"time": 138957, "pitch": 70, "duration": 133, "velocity": 113}, {"time": 139198, "pitch": 70, "duration": 133, "velocity": 113}, {"time": 139359, "pitch": 70, "duration": 68, "velocity": 113}, {"time": 139439, "pitch": 70, "duration": 133, "velocity": 112}, {"time": 139921, "pitch": 72, "duration": 132, "velocity": 114}, {"time": 140162, "pitch": 72, "duration": 132, "velocity": 112}, {"time": 140322, "pitch": 72, "duration": 69, "velocity": 115}, {"time": 140403, "pitch": 72, "duration": 132, "velocity": 114}, {"time": 140643, "pitch": 74, "duration": 131, "velocity": 113}, {"time": 140801, "pitch": 73, "duration": 68, "velocity": 112}, {"time": 140880, "pitch": 72, "duration": 131, "velocity": 114}, {"time": 141038, "pitch": 71, "duration": 68, "velocity": 112}, {"time": 141117, "pitch": 70, "duration": 133, "velocity": 114}, {"time": 141278, "pitch": 69, "duration": 68, "velocity": 114}, {"time": 141358, "pitch": 67, "duration": 133, "velocity": 114}, {"time": 141599, "pitch": 72, "duration": 133, "velocity": 112}, {"time": 141760, "pitch": 74, "duration": 132, "velocity": 113}, {"time": 142001, "pitch": 70, "duration": 441, "velocity": 112}, {"time": 480, "pitch": 53, "duration": 232, "velocity": 102}, {"time": 480, "pitch": 58, "duration": 233, "velocity": 111}, {"time": 480, "pitch": 62, "duration": 234, "velocity": 114}, {"time": 719, "pitch": 58, "duration": 233, "velocity": 107}, {"time": 721, "pitch": 53, "duration": 233, "velocity": 103}, {"time": 721, "pitch": 62, "duration": 233, "velocity": 103}, {"time": 962, "pitch": 53, "duration": 393, "velocity": 109}, {"time": 963, "pitch": 58, "duration": 390, "velocity": 114}, {"time": 963, "pitch": 62, "duration": 353, "velocity": 103}, {"time": 1361, "pitch": 63, "duration": 77, "velocity": 117}, {"time": 1363, "pitch": 58, "duration": 75, "velocity": 125}, {"time": 1364, "pitch": 55, "duration": 74, "velocity": 117}, {"time": 1600, "pitch": 58, "duration": 73, "velocity": 94}, {"time": 1601, "pitch": 63, "duration": 229, "velocity": 120}, {"time": 1690, "pitch": 58, "duration": 140, "velocity": 111}, {"time": 1839, "pitch": 58, "duration": 231, "velocity": 108}, {"time": 1839, "pitch": 63, "duration": 231, "velocity": 112}, {"time": 1918, "pitch": 55, "duration": 232, "velocity": 103}, {"time": 2076, "pitch": 58, "duration": 293, "velocity": 114}, {"time": 2078, "pitch": 63, "duration": 293, "velocity": 119}, {"time": 2159, "pitch": 51, "duration": 234, "velocity": 120}, {"time": 2398, "pitch": 57, "duration": 233, "velocity": 102}, {"time": 2398, "pitch": 60, "duration": 232, "velocity": 111}, {"time": 2398, "pitch": 65, "duration": 232, "velocity": 114}, {"time": 2639, "pitch": 65, "duration": 233, "velocity": 103}, {"time": 2640, "pitch": 57, "duration": 233, "velocity": 103}, {"time": 2640, "pitch": 60, "duration": 233, "velocity": 107}, {"time": 2880, "pitch": 57, "duration": 394, "velocity": 109}, {"time": 2880, "pitch": 65, "duration": 353, "velocity": 103}, {"time": 2881, "pitch": 60, "duration": 391, "velocity": 114}, {"time": 3281, "pitch": 55, "duration": 76, "velocity": 117}, {"time": 3282, "pitch": 63, "duration": 75, "velocity": 117}, {"time": 3284, "pitch": 58, "duration": 73, "velocity": 125}, {"time": 3522, "pitch": 63, "duration": 232, "velocity": 120}, {"time": 3523, "pitch": 58, "duration": 75, "velocity": 94}, {"time": 3614, "pitch": 58, "duration": 142, "velocity": 111}, {"time": 3762, "pitch": 58, "duration": 231, "velocity": 108}, {"time": 3762, "pitch": 63, "duration": 231, "velocity": 112}, {"time": 3843, "pitch": 55, "duration": 229, "velocity": 103}, {"time": 4001, "pitch": 58, "duration": 288, "velocity": 114}, {"time": 4004, "pitch": 63, "duration": 288, "velocity": 119}, {"time": 4082, "pitch": 51, "duration": 231, "velocity": 120}, {"time": 4328, "pitch": 53, "duration": 110, "velocity": 110}, {"time": 4338, "pitch": 58, "duration": 100, "velocity": 107}, {"time": 4348, "pitch": 62, "duration": 90, "velocity": 103}, {"time": 4358, "pitch": 65, "duration": 80, "velocity": 93}, {"time": 4569, "pitch": 53, "duration": 110, "velocity": 108}, {"time": 4579, "pitch": 58, "duration": 100, "velocity": 96}, {"time": 4589, "pitch": 62, "duration": 90, "velocity": 98}, {"time": 4599, "pitch": 65, "duration": 80, "velocity": 87}, {"time": 4809, "pitch": 53, "duration": 231, "velocity": 112}, {"time": 4819, "pitch": 58, "duration": 221, "velocity": 102}, {"time": 4829, "pitch": 62, "duration": 211, "velocity": 98}, {"time": 4840, "pitch": 65, "duration": 200, "velocity": 88}, {"time": 5040, "pitch": 65, "duration": 10, "velocity": 89}, {"time": 5050, "pitch": 62, "duration": 10, "velocity": 99}, {"time": 5060, "pitch": 58, "duration": 10, "velocity": 101}, {"time": 5070, "pitch": 53, "duration": 10, "velocity": 109}, {"time": 5211, "pitch": 53, "duration": 110, "velocity": 104}, {"time": 5221, "pitch": 58, "duration": 100, "velocity": 96}, {"time": 5231, "pitch": 62, "duration": 90, "velocity": 98}, {"time": 5241, "pitch": 65, "duration": 80, "velocity": 94}, {"time": 5452, "pitch": 53, "duration": 110, "velocity": 106}, {"time": 5462, "pitch": 58, "duration": 100, "velocity": 103}, {"time": 5472, "pitch": 62, "duration": 90, "velocity": 97}, {"time": 5482, "pitch": 65, "duration": 80, "velocity": 85}, {"time": 5693, "pitch": 53, "duration": 70, "velocity": 100}, {"time": 5703, "pitch": 58, "duration": 60, "velocity": 101}, {"time": 5713, "pitch": 62, "duration": 50, "velocity": 93}, {"time": 5723, "pitch": 65, "duration": 40, "velocity": 87}, {"time": 5763, "pitch": 65, "duration": 237, "velocity": 97}, {"time": 5773, "pitch": 62, "duration": 227, "velocity": 103}, {"time": 5783, "pitch": 58, "duration": 217, "velocity": 99}, {"time": 5792, "pitch": 53, "duration": 208, "velocity": 106}, {"time": 6010, "pitch": 53, "duration": 10, "velocity": 103}, {"time": 6020, "pitch": 58, "duration": 9, "velocity": 104}, {"time": 6029, "pitch": 62, "duration": 10, "velocity": 91}, {"time": 6039, "pitch": 65, "duration": 10, "velocity": 89}, {"time": 6158, "pitch": 65, "duration": 10, "velocity": 85}, {"time": 6168, "pitch": 62, "duration": 10, "velocity": 90}, {"time": 6178, "pitch": 58, "duration": 9, "velocity": 99}, {"time": 6187, "pitch": 53, "duration": 10, "velocity": 105}, {"time": 6257, "pitch": 53, "duration": 100, "velocity": 107}, {"time": 6267, "pitch": 57, "duration": 90, "velocity": 98}, {"time": 6277, "pitch": 60, "duration": 80, "velocity": 97}, {"time": 6498, "pitch": 53, "duration": 100, "velocity": 104}, {"time": 6508, "pitch": 57, "duration": 90, "velocity": 91}, {"time": 6518, "pitch": 60, "duration": 80, "velocity": 87}, {"time": 6739, "pitch": 53, "duration": 220, "velocity": 99}, {"time": 6749, "pitch": 57, "duration": 210, "velocity": 102}, {"time": 6759, "pitch": 60, "duration": 200, "velocity": 93}, {"time": 6959, "pitch": 60, "duration": 10, "velocity": 93}, {"time": 6969, "pitch": 57, "duration": 11, "velocity": 95}, {"time": 6980, "pitch": 53, "duration": 10, "velocity": 103}, {"time": 7140, "pitch": 53, "duration": 100, "velocity": 95}, {"time": 7150, "pitch": 57, "duration": 90, "velocity": 94}, {"time": 7160, "pitch": 60, "duration": 80, "velocity": 92}, {"time": 7381, "pitch": 53, "duration": 100, "velocity": 100}, {"time": 7391, "pitch": 57, "duration": 90, "velocity": 98}, {"time": 7401, "pitch": 60, "duration": 80, "velocity": 91}, {"time": 7622, "pitch": 53, "duration": 60, "velocity": 96}, {"time": 7632, "pitch": 57, "duration": 50, "velocity": 91}, {"time": 7642, "pitch": 60, "duration": 40, "velocity": 92}, {"time": 7682, "pitch": 60, "duration": 241, "velocity": 93}, {"time": 7692, "pitch": 57, "duration": 231, "velocity": 96}, {"time": 7702, "pitch": 53, "duration": 221, "velocity": 105}, {"time": 7943, "pitch": 53, "duration": 10, "velocity": 98}, {"time": 7953, "pitch": 57, "duration": 10, "velocity": 98}, {"time": 7963, "pitch": 60, "duration": 10, "velocity": 85}, {"time": 8084, "pitch": 60, "duration": 10, "velocity": 90}, {"time": 8094, "pitch": 57, "duration": 10, "velocity": 98}, {"time": 8104, "pitch": 53, "duration": 10, "velocity": 99}, {"time": 8174, "pitch": 58, "duration": 108, "velocity": 108}, {"time": 8184, "pitch": 63, "duration": 98, "velocity": 101}, {"time": 8193, "pitch": 67, "duration": 89, "velocity": 96}, {"time": 8411, "pitch": 58, "duration": 108, "velocity": 102}, {"time": 8421, "pitch": 63, "duration": 98, "velocity": 97}, {"time": 8430, "pitch": 67, "duration": 89, "velocity": 95}, {"time": 8648, "pitch": 58, "duration": 231, "velocity": 111}, {"time": 8658, "pitch": 63, "duration": 221, "velocity": 104}, {"time": 8668, "pitch": 67, "duration": 211, "velocity": 97}, {"time": 8889, "pitch": 67, "duration": 10, "velocity": 99}, {"time": 8899, "pitch": 63, "duration": 10, "velocity": 99}, {"time": 8909, "pitch": 58, "duration": 10, "velocity": 107}, {"time": 9049, "pitch": 58, "duration": 111, "velocity": 106}, {"time": 9059, "pitch": 63, "duration": 101, "velocity": 100}, {"time": 9069, "pitch": 67, "duration": 91, "velocity": 94}, {"time": 9290, "pitch": 58, "duration": 111, "velocity": 104}, {"time": 9300, "pitch": 63, "duration": 101, "velocity": 104}, {"time": 9310, "pitch": 67, "duration": 91, "velocity": 91}, {"time": 9531, "pitch": 58, "duration": 70, "velocity": 101}, {"time": 9541, "pitch": 63, "duration": 60, "velocity": 104}, {"time": 9551, "pitch": 67, "duration": 50, "velocity": 93}, {"time": 9611, "pitch": 67, "duration": 231, "velocity": 98}, {"time": 9621, "pitch": 63, "duration": 221, "velocity": 100}, {"time": 9631, "pitch": 58, "duration": 211, "velocity": 110}, {"time": 9852, "pitch": 58, "duration": 10, "velocity": 102}, {"time": 9862, "pitch": 63, "duration": 10, "velocity": 104}, {"time": 9872, "pitch": 67, "duration": 10, "velocity": 98}, {"time": 10013, "pitch": 67, "duration": 10, "velocity": 93}, {"time": 10023, "pitch": 63, "duration": 10, "velocity": 101}, {"time": 10033, "pitch": 58, "duration": 10, "velocity": 100}, {"time": 10103, "pitch": 53, "duration": 99, "velocity": 100}, {"time": 10113, "pitch": 57, "duration": 89, "velocity": 102}, {"time": 10123, "pitch": 60, "duration": 79, "velocity": 92}, {"time": 10340, "pitch": 53, "duration": 99, "velocity": 104}, {"time": 10350, "pitch": 57, "duration": 89, "velocity": 92}, {"time": 10360, "pitch": 60, "duration": 79, "velocity": 89}, {"time": 10577, "pitch": 53, "duration": 221, "velocity": 101}, {"time": 10587, "pitch": 57, "duration": 211, "velocity": 97}, {"time": 10597, "pitch": 60, "duration": 201, "velocity": 95}, {"time": 10798, "pitch": 60, "duration": 10, "velocity": 91}, {"time": 10808, "pitch": 57, "duration": 10, "velocity": 97}, {"time": 10818, "pitch": 53, "duration": 10, "velocity": 104}, {"time": 10978, "pitch": 53, "duration": 101, "velocity": 100}, {"time": 10989, "pitch": 57, "duration": 90, "velocity": 97}, {"time": 10999, "pitch": 60, "duration": 80, "velocity": 94}, {"time": 11219, "pitch": 53, "duration": 61, "velocity": 97}, {"time": 11229, "pitch": 57, "duration": 51, "velocity": 97}, {"time": 11239, "pitch": 60, "duration": 41, "velocity": 86}, {"time": 11280, "pitch": 60, "duration": 120, "velocity": 91}, {"time": 11290, "pitch": 57, "duration": 110, "velocity": 95}, {"time": 11300, "pitch": 53, "duration": 100, "velocity": 101}, {"time": 18723, "pitch": 58, "duration": 79, "velocity": 127}, {"time": 18881, "pitch": 58, "duration": 79, "velocity": 119}, {"time": 18960, "pitch": 57, "duration": 79, "velocity": 115}, {"time": 19197, "pitch": 55, "duration": 81, "velocity": 113}, {"time": 19438, "pitch": 53, "duration": 80, "velocity": 116}, {"time": 19599, "pitch": 58, "duration": 80, "velocity": 119}, {"time": 24481, "pitch": 58, "duration": 80, "velocity": 127}, {"time": 24642, "pitch": 58, "duration": 80, "velocity": 119}, {"time": 24722, "pitch": 57, "duration": 80, "velocity": 115}, {"time": 24963, "pitch": 55, "duration": 79, "velocity": 113}, {"time": 25200, "pitch": 57, "duration": 79, "velocity": 116}, {"time": 25358, "pitch": 58, "duration": 79, "velocity": 119}, {"time": 50422, "pitch": 61, "duration": 100, "velocity": 105}, {"time": 50432, "pitch": 65, "duration": 90, "velocity": 96}, {"time": 50442, "pitch": 68, "duration": 80, "velocity": 95}, {"time": 50663, "pitch": 61, "duration": 100, "velocity": 101}, {"time": 50673, "pitch": 65, "duration": 90, "velocity": 91}, {"time": 50683, "pitch": 68, "duration": 80, "velocity": 90}, {"time": 50903, "pitch": 61, "duration": 218, "velocity": 99}, {"time": 50913, "pitch": 65, "duration": 208, "velocity": 97}, {"time": 50923, "pitch": 68, "duration": 198, "velocity": 91}, {"time": 51121, "pitch": 68, "duration": 10, "velocity": 95}, {"time": 51131, "pitch": 65, "duration": 9, "velocity": 95}, {"time": 51140, "pitch": 61, "duration": 10, "velocity": 106}, {"time": 51298, "pitch": 61, "duration": 100, "velocity": 95}, {"time": 51308, "pitch": 65, "duration": 90, "velocity": 93}, {"time": 51318, "pitch": 68, "duration": 80, "velocity": 88}, {"time": 51538, "pitch": 61, "duration": 101, "velocity": 104}, {"time": 51548, "pitch": 65, "duration": 91, "velocity": 97}, {"time": 51558, "pitch": 68, "duration": 81, "velocity": 93}, {"time": 51779, "pitch": 61, "duration": 60, "velocity": 103}, {"time": 51789, "pitch": 65, "duration": 50, "velocity": 99}, {"time": 51799, "pitch": 68, "duration": 40, "velocity": 85}, {"time": 51859, "pitch": 61, "duration": 221, "velocity": 101}, {"time": 51869, "pitch": 65, "duration": 211, "velocity": 107}, {"time": 51880, "pitch": 68, "duration": 200, "velocity": 110}, {"time": 52100, "pitch": 61, "duration": 10, "velocity": 102}, {"time": 52110, "pitch": 65, "duration": 10, "velocity": 95}, {"time": 52120, "pitch": 68, "duration": 10, "velocity": 88}, {"time": 52261, "pitch": 61, "duration": 10, "velocity": 97}, {"time": 52271, "pitch": 65, "duration": 10, "velocity": 107}, {"time": 52281, "pitch": 68, "duration": 10, "velocity": 112}, {"time": 52341, "pitch": 56, "duration": 101, "velocity": 104}, {"time": 52351, "pitch": 60, "duration": 91, "velocity": 96}, {"time": 52361, "pitch": 63, "duration": 81, "velocity": 91}, {"time": 52582, "pitch": 56, "duration": 100, "velocity": 99}, {"time": 52592, "pitch": 60, "duration": 90, "velocity": 98}, {"time": 52602, "pitch": 63, "duration": 80, "velocity": 86}, {"time": 52823, "pitch": 56, "duration": 217, "velocity": 107}, {"time": 52832, "pitch": 60, "duration": 208, "velocity": 95}, {"time": 52842, "pitch": 63, "duration": 198, "velocity": 89}, {"time": 53040, "pitch": 63, "duration": 10, "velocity": 95}, {"time": 53050, "pitch": 60, "duration": 10, "velocity": 93}, {"time": 53060, "pitch": 56, "duration": 9, "velocity": 100}, {"time": 53218, "pitch": 56, "duration": 99, "velocity": 97}, {"time": 53227, "pitch": 60, "duration": 90, "velocity": 99}, {"time": 53237, "pitch": 63, "duration": 80, "velocity": 87}, {"time": 53457, "pitch": 56, "duration": 101, "velocity": 99}, {"time": 53467, "pitch": 60, "duration": 91, "velocity": 95}, {"time": 53478, "pitch": 63, "duration": 80, "velocity": 89}, {"time": 53698, "pitch": 56, "duration": 61, "velocity": 98}, {"time": 53708, "pitch": 60, "duration": 51, "velocity": 90}, {"time": 53718, "pitch": 63, "duration": 41, "velocity": 90}, {"time": 53759, "pitch": 63, "duration": 240, "velocity": 95}, {"time": 53769, "pitch": 60, "duration": 230, "velocity": 99}, {"time": 53779, "pitch": 56, "duration": 220, "velocity": 108}, {"time": 54020, "pitch": 56, "duration": 10, "velocity": 97}, {"time": 54030, "pitch": 60, "duration": 10, "velocity": 92}, {"time": 54040, "pitch": 63, "duration": 10, "velocity": 87}, {"time": 54160, "pitch": 63, "duration": 10, "velocity": 94}, {"time": 54170, "pitch": 60, "duration": 10, "velocity": 93}, {"time": 54180, "pitch": 56, "duration": 10, "velocity": 103}, {"time": 54260, "pitch": 53, "duration": 101, "velocity": 103}, {"time": 54270, "pitch": 57, "duration": 91, "velocity": 98}, {"time": 54280, "pitch": 60, "duration": 81, "velocity": 93}, {"time": 54501, "pitch": 53, "duration": 101, "velocity": 101}, {"time": 54511, "pitch": 57, "duration": 91, "velocity": 99}, {"time": 54521, "pitch": 60, "duration": 81, "velocity": 94}, {"time": 54742, "pitch": 53, "duration": 221, "velocity": 104}, {"time": 54752, "pitch": 57, "duration": 211, "velocity": 94}, {"time": 54762, "pitch": 60, "duration": 201, "velocity": 92}, {"time": 54963, "pitch": 60, "duration": 10, "velocity": 88}, {"time": 54973, "pitch": 57, "duration": 10, "velocity": 97}, {"time": 54983, "pitch": 53, "duration": 10, "velocity": 106}, {"time": 55144, "pitch": 53, "duration": 99, "velocity": 104}, {"time": 55154, "pitch": 57, "duration": 89, "velocity": 93}, {"time": 55164, "pitch": 60, "duration": 79, "velocity": 92}, {"time": 55382, "pitch": 53, "duration": 98, "velocity": 101}, {"time": 55391, "pitch": 57, "duration": 89, "velocity": 99}, {"time": 55401, "pitch": 60, "duration": 79, "velocity": 94}, {"time": 55619, "pitch": 53, "duration": 59, "velocity": 95}, {"time": 55628, "pitch": 57, "duration": 50, "velocity": 90}, {"time": 55638, "pitch": 60, "duration": 40, "velocity": 91}, {"time": 55678, "pitch": 60, "duration": 241, "velocity": 95}, {"time": 55688, "pitch": 57, "duration": 231, "velocity": 103}, {"time": 55698, "pitch": 53, "duration": 221, "velocity": 106}, {"time": 55939, "pitch": 53, "duration": 10, "velocity": 98}, {"time": 55949, "pitch": 57, "duration": 10, "velocity": 97}, {"time": 55959, "pitch": 60, "duration": 10, "velocity": 90}, {"time": 56079, "pitch": 60, "duration": 10, "velocity": 87}, {"time": 56089, "pitch": 57, "duration": 10, "velocity": 96}, {"time": 56099, "pitch": 53, "duration": 10, "velocity": 102}, {"time": 56180, "pitch": 54, "duration": 100, "velocity": 104}, {"time": 56190, "pitch": 58, "duration": 90, "velocity": 96}, {"time": 56200, "pitch": 61, "duration": 80, "velocity": 94}, {"time": 56420, "pitch": 54, "duration": 101, "velocity": 97}, {"time": 56431, "pitch": 58, "duration": 90, "velocity": 98}, {"time": 56441, "pitch": 61, "duration": 80, "velocity": 93}, {"time": 56661, "pitch": 54, "duration": 221, "velocity": 105}, {"time": 56671, "pitch": 58, "duration": 211, "velocity": 93}, {"time": 56681, "pitch": 61, "duration": 201, "velocity": 89}, {"time": 56882, "pitch": 61, "duration": 10, "velocity": 93}, {"time": 56892, "pitch": 58, "duration": 10, "velocity": 94}, {"time": 56902, "pitch": 54, "duration": 10, "velocity": 99}, {"time": 57063, "pitch": 56, "duration": 100, "velocity": 99}, {"time": 57073, "pitch": 60, "duration": 90, "velocity": 92}, {"time": 57083, "pitch": 63, "duration": 80, "velocity": 89}, {"time": 57301, "pitch": 56, "duration": 99, "velocity": 96}, {"time": 57311, "pitch": 60, "duration": 89, "velocity": 91}, {"time": 57321, "pitch": 63, "duration": 79, "velocity": 94}, {"time": 57538, "pitch": 56, "duration": 59, "velocity": 96}, {"time": 57548, "pitch": 60, "duration": 49, "velocity": 91}, {"time": 57558, "pitch": 63, "duration": 39, "velocity": 92}, {"time": 57597, "pitch": 63, "duration": 241, "velocity": 90}, {"time": 57607, "pitch": 60, "duration": 231, "velocity": 95}, {"time": 57617, "pitch": 56, "duration": 221, "velocity": 101}, {"time": 57858, "pitch": 56, "duration": 10, "velocity": 99}, {"time": 57868, "pitch": 60, "duration": 10, "velocity": 94}, {"time": 57878, "pitch": 63, "duration": 10, "velocity": 89}, {"time": 57998, "pitch": 63, "duration": 10, "velocity": 93}, {"time": 58008, "pitch": 60, "duration": 11, "velocity": 93}, {"time": 58019, "pitch": 56, "duration": 10, "velocity": 104}, {"time": 64800, "pitch": 58, "duration": 80, "velocity": 127}, {"time": 64960, "pitch": 58, "duration": 81, "velocity": 119}, {"time": 65041, "pitch": 57, "duration": 80, "velocity": 115}, {"time": 65282, "pitch": 55, "duration": 80, "velocity": 113}, {"time": 65523, "pitch": 53, "duration": 80, "velocity": 116}, {"time": 65683, "pitch": 58, "duration": 80, "velocity": 119}, {"time": 70557, "pitch": 58, "duration": 81, "velocity": 127}, {"time": 70718, "pitch": 58, "duration": 80, "velocity": 119}, {"time": 70798, "pitch": 57, "duration": 81, "velocity": 115}, {"time": 71039, "pitch": 55, "duration": 81, "velocity": 113}, {"time": 71280, "pitch": 57, "duration": 80, "velocity": 116}, {"time": 71441, "pitch": 58, "duration": 80, "velocity": 119}, {"time": 96488, "pitch": 53, "duration": 111, "velocity": 110}, {"time": 96498, "pitch": 58, "duration": 101, "velocity": 107}, {"time": 96509, "pitch": 62, "duration": 90, "velocity": 103}, {"time": 96519, "pitch": 65, "duration": 80, "velocity": 93}, {"time": 96729, "pitch": 53, "duration": 111, "velocity": 108}, {"time": 96739, "pitch": 58, "duration": 101, "velocity": 96}, {"time": 96749, "pitch": 62, "duration": 91, "velocity": 98}, {"time": 96759, "pitch": 65, "duration": 81, "velocity": 87}, {"time": 96970, "pitch": 53, "duration": 231, "velocity": 112}, {"time": 96980, "pitch": 58, "duration": 221, "velocity": 102}, {"time": 96990, "pitch": 62, "duration": 211, "velocity": 98}, {"time": 97000, "pitch": 65, "duration": 201, "velocity": 88}, {"time": 97201, "pitch": 65, "duration": 10, "velocity": 89}, {"time": 97211, "pitch": 62, "duration": 10, "velocity": 99}, {"time": 97221, "pitch": 58, "duration": 10, "velocity": 101}, {"time": 97231, "pitch": 53, "duration": 10, "velocity": 109}, {"time": 97372, "pitch": 53, "duration": 110, "velocity": 104}, {"time": 97382, "pitch": 58, "duration": 100, "velocity": 96}, {"time": 97392, "pitch": 62, "duration": 90, "velocity": 98}, {"time": 97402, "pitch": 65, "duration": 80, "velocity": 94}, {"time": 97613, "pitch": 53, "duration": 110, "velocity": 106}, {"time": 97623, "pitch": 58, "duration": 100, "velocity": 103}, {"time": 97633, "pitch": 62, "duration": 90, "velocity": 97}, {"time": 97643, "pitch": 65, "duration": 80, "velocity": 85}, {"time": 97853, "pitch": 53, "duration": 71, "velocity": 100}, {"time": 97863, "pitch": 58, "duration": 61, "velocity": 101}, {"time": 97874, "pitch": 62, "duration": 50, "velocity": 93}, {"time": 97884, "pitch": 65, "duration": 40, "velocity": 87}, {"time": 97924, "pitch": 65, "duration": 237, "velocity": 97}, {"time": 97934, "pitch": 62, "duration": 227, "velocity": 103}, {"time": 97943, "pitch": 58, "duration": 218, "velocity": 99}, {"time": 97953, "pitch": 53, "duration": 208, "velocity": 106}, {"time": 98171, "pitch": 53, "duration": 9, "velocity": 103}, {"time": 98180, "pitch": 58, "duration": 10, "velocity": 104}, {"time": 98190, "pitch": 62, "duration": 10, "velocity": 91}, {"time": 98200, "pitch": 65, "duration": 10, "velocity": 89}, {"time": 98319, "pitch": 65, "duration": 10, "velocity": 85}, {"time": 98329, "pitch": 62, "duration": 9, "velocity": 90}, {"time": 98338, "pitch": 58, "duration": 10, "velocity": 99}, {"time": 98348, "pitch": 53, "duration": 10, "velocity": 105}, {"time": 98418, "pitch": 53, "duration": 100, "velocity": 107}, {"time": 98428, "pitch": 57, "duration": 90, "velocity": 98}, {"time": 98438, "pitch": 60, "duration": 80, "velocity": 97}, {"time": 98659, "pitch": 53, "duration": 100, "velocity": 104}, {"time": 98669, "pitch": 57, "duration": 90, "velocity": 91}, {"time": 98679, "pitch": 60, "duration": 80, "velocity": 87}, {"time": 98899, "pitch": 53, "duration": 221, "velocity": 99}, {"time": 98909, "pitch": 57, "duration": 211, "velocity": 102}, {"time": 98920, "pitch": 60, "duration": 200, "velocity": 93}, {"time": 99120, "pitch": 60, "duration": 10, "velocity": 93}, {"time": 99130, "pitch": 57, "duration": 10, "velocity": 95}, {"time": 99140, "pitch": 53, "duration": 10, "velocity": 103}, {"time": 99301, "pitch": 53, "duration": 100, "velocity": 95}, {"time": 99311, "pitch": 57, "duration": 90, "velocity": 94}, {"time": 99321, "pitch": 60, "duration": 80, "velocity": 92}, {"time": 99542, "pitch": 53, "duration": 100, "velocity": 100}, {"time": 99552, "pitch": 57, "duration": 90, "velocity": 98}, {"time": 99562, "pitch": 60, "duration": 80, "velocity": 91}, {"time": 99783, "pitch": 53, "duration": 60, "velocity": 96}, {"time": 99793, "pitch": 57, "duration": 50, "velocity": 91}, {"time": 99803, "pitch": 60, "duration": 40, "velocity": 92}, {"time": 99843, "pitch": 60, "duration": 237, "velocity": 93}, {"time": 99853, "pitch": 57, "duration": 227, "velocity": 96}, {"time": 99863, "pitch": 53, "duration": 217, "velocity": 105}, {"time": 100100, "pitch": 53, "duration": 9, "velocity": 98}, {"time": 100109, "pitch": 57, "duration": 10, "velocity": 98}, {"time": 100119, "pitch": 60, "duration": 10, "velocity": 85}, {"time": 100238, "pitch": 60, "duration": 10, "velocity": 90}, {"time": 100248, "pitch": 57, "duration": 10, "velocity": 98}, {"time": 100258, "pitch": 53, "duration": 9, "velocity": 99}, {"time": 100327, "pitch": 58, "duration": 110, "velocity": 108}, {"time": 100337, "pitch": 63, "duration": 100, "velocity": 101}, {"time": 100347, "pitch": 67, "duration": 90, "velocity": 96}, {"time": 100568, "pitch": 58, "duration": 110, "velocity": 102}, {"time": 100578, "pitch": 63, "duration": 100, "velocity": 97}, {"time": 100588, "pitch": 67, "duration": 90, "velocity": 95}, {"time": 100809, "pitch": 58, "duration": 230, "velocity": 111}, {"time": 100819, "pitch": 63, "duration": 220, "velocity": 104}, {"time": 100829, "pitch": 67, "duration": 210, "velocity": 97}, {"time": 101049, "pitch": 67, "duration": 11, "velocity": 99}, {"time": 101060, "pitch": 63, "duration": 10, "velocity": 99}, {"time": 101070, "pitch": 58, "duration": 10, "velocity": 107}, {"time": 101210, "pitch": 58, "duration": 110, "velocity": 106}, {"time": 101220, "pitch": 63, "duration": 100, "velocity": 100}, {"time": 101230, "pitch": 67, "duration": 90, "velocity": 94}, {"time": 101451, "pitch": 58, "duration": 110, "velocity": 104}, {"time": 101461, "pitch": 63, "duration": 100, "velocity": 104}, {"time": 101471, "pitch": 67, "duration": 90, "velocity": 91}, {"time": 101692, "pitch": 58, "duration": 70, "velocity": 101}, {"time": 101702, "pitch": 63, "duration": 60, "velocity": 104}, {"time": 101712, "pitch": 67, "duration": 50, "velocity": 93}, {"time": 101772, "pitch": 67, "duration": 231, "velocity": 98}, {"time": 101782, "pitch": 63, "duration": 221, "velocity": 100}, {"time": 101792, "pitch": 58, "duration": 211, "velocity": 110}, {"time": 102013, "pitch": 58, "duration": 10, "velocity": 102}, {"time": 102023, "pitch": 63, "duration": 10, "velocity": 104}, {"time": 102033, "pitch": 67, "duration": 10, "velocity": 98}, {"time": 102174, "pitch": 67, "duration": 10, "velocity": 93}, {"time": 102184, "pitch": 63, "duration": 10, "velocity": 101}, {"time": 102194, "pitch": 58, "duration": 10, "velocity": 100}, {"time": 102264, "pitch": 53, "duration": 98, "velocity": 100}, {"time": 102273, "pitch": 57, "duration": 89, "velocity": 102}, {"time": 102283, "pitch": 60, "duration": 79, "velocity": 92}, {"time": 102501, "pitch": 53, "duration": 98, "velocity": 104}, {"time": 102510, "pitch": 57, "duration": 89, "velocity": 92}, {"time": 102520, "pitch": 60, "duration": 79, "velocity": 89}, {"time": 102738, "pitch": 53, "duration": 221, "velocity": 101}, {"time": 102748, "pitch": 57, "duration": 211, "velocity": 97}, {"time": 102758, "pitch": 60, "duration": 201, "velocity": 95}, {"time": 102959, "pitch": 60, "duration": 10, "velocity": 91}, {"time": 102969, "pitch": 57, "duration": 10, "velocity": 97}, {"time": 102979, "pitch": 53, "duration": 10, "velocity": 104}, {"time": 103139, "pitch": 53, "duration": 101, "velocity": 100}, {"time": 103149, "pitch": 57, "duration": 91, "velocity": 97}, {"time": 103159, "pitch": 60, "duration": 81, "velocity": 94}, {"time": 103380, "pitch": 53, "duration": 60, "velocity": 97}, {"time": 103390, "pitch": 57, "duration": 50, "velocity": 97}, {"time": 103400, "pitch": 60, "duration": 40, "velocity": 86}, {"time": 103440, "pitch": 60, "duration": 121, "velocity": 91}, {"time": 103450, "pitch": 57, "duration": 111, "velocity": 95}, {"time": 103460, "pitch": 53, "duration": 101, "velocity": 101}, {"time": 110876, "pitch": 58, "duration": 81, "velocity": 127}, {"time": 111037, "pitch": 58, "duration": 80, "velocity": 119}, {"time": 111117, "pitch": 57, "duration": 81, "velocity": 115}, {"time": 111358, "pitch": 55, "duration": 80, "velocity": 113}, {"time": 111599, "pitch": 53, "duration": 80, "velocity": 116}, {"time": 111760, "pitch": 58, "duration": 80, "velocity": 119}, {"time": 116642, "pitch": 58, "duration": 80, "velocity": 127}, {"time": 116802, "pitch": 58, "duration": 81, "velocity": 119}, {"time": 116883, "pitch": 57, "duration": 80, "velocity": 115}, {"time": 117123, "pitch": 55, "duration": 79, "velocity": 113}, {"time": 117360, "pitch": 57, "duration": 79, "velocity": 116}, {"time": 117518, "pitch": 58, "duration": 79, "velocity": 119}, {"time": 142582, "pitch": 61, "duration": 99, "velocity": 107}, {"time": 142592, "pitch": 65, "duration": 89, "velocity": 103}, {"time": 142602, "pitch": 68, "duration": 79, "velocity": 97}, {"time": 142819, "pitch": 61, "duration": 99, "velocity": 99}, {"time": 142829, "pitch": 65, "duration": 89, "velocity": 91}, {"time": 142839, "pitch": 68, "duration": 79, "velocity": 85}, {"time": 143057, "pitch": 61, "duration": 221, "velocity": 102}, {"time": 143067, "pitch": 65, "duration": 211, "velocity": 95}, {"time": 143077, "pitch": 68, "duration": 201, "velocity": 96}, {"time": 143278, "pitch": 68, "duration": 10, "velocity": 89}, {"time": 143288, "pitch": 65, "duration": 10, "velocity": 93}, {"time": 143298, "pitch": 61, "duration": 10, "velocity": 99}, {"time": 143458, "pitch": 61, "duration": 101, "velocity": 98}, {"time": 143468, "pitch": 65, "duration": 91, "velocity": 92}, {"time": 143478, "pitch": 68, "duration": 81, "velocity": 90}, {"time": 143699, "pitch": 61, "duration": 100, "velocity": 102}, {"time": 143709, "pitch": 65, "duration": 90, "velocity": 95}, {"time": 143719, "pitch": 68, "duration": 80, "velocity": 86}, {"time": 143940, "pitch": 61, "duration": 60, "velocity": 103}, {"time": 143950, "pitch": 65, "duration": 50, "velocity": 94}, {"time": 143960, "pitch": 68, "duration": 40, "velocity": 91}, {"time": 144020, "pitch": 61, "duration": 221, "velocity": 101}, {"time": 144030, "pitch": 65, "duration": 211, "velocity": 113}, {"time": 144040, "pitch": 68, "duration": 201, "velocity": 114}, {"time": 144261, "pitch": 61, "duration": 10, "velocity": 100}, {"time": 144271, "pitch": 65, "duration": 10, "velocity": 92}, {"time": 144281, "pitch": 68, "duration": 10, "velocity": 85}, {"time": 144422, "pitch": 61, "duration": 10, "velocity": 100}, {"time": 144432, "pitch": 65, "duration": 10, "velocity": 104}, {"time": 144442, "pitch": 68, "duration": 10, "velocity": 114}, {"time": 144502, "pitch": 56, "duration": 100, "velocity": 106}, {"time": 144512, "pitch": 60, "duration": 90, "velocity": 98}, {"time": 144522, "pitch": 63, "duration": 80, "velocity": 95}, {"time": 144743, "pitch": 56, "duration": 100, "velocity": 99}, {"time": 144753, "pitch": 60, "duration": 90, "velocity": 99}, {"time": 144763, "pitch": 63, "duration": 80, "velocity": 94}, {"time": 144983, "pitch": 56, "duration": 218, "velocity": 103}, {"time": 144993, "pitch": 60, "duration": 208, "velocity": 98}, {"time": 145003, "pitch": 63, "duration": 198, "velocity": 97}, {"time": 145201, "pitch": 63, "duration": 10, "velocity": 91}, {"time": 145211, "pitch": 60, "duration": 9, "velocity": 98}, {"time": 145220, "pitch": 56, "duration": 10, "velocity": 101}, {"time": 145378, "pitch": 56, "duration": 100, "velocity": 95}, {"time": 145388, "pitch": 60, "duration": 90, "velocity": 95}, {"time": 145398, "pitch": 63, "duration": 80, "velocity": 86}, {"time": 145618, "pitch": 56, "duration": 101, "velocity": 99}, {"time": 145628, "pitch": 60, "duration": 91, "velocity": 90}, {"time": 145638, "pitch": 63, "duration": 81, "velocity": 93}, {"time": 145859, "pitch": 56, "duration": 60, "velocity": 97}, {"time": 145869, "pitch": 60, "duration": 50, "velocity": 98}, {"time": 145879, "pitch": 63, "duration": 40, "velocity": 93}, {"time": 145919, "pitch": 63, "duration": 241, "velocity": 96}, {"time": 145929, "pitch": 60, "duration": 231, "velocity": 94}, {"time": 145939, "pitch": 56, "duration": 221, "velocity": 99}, {"time": 146180, "pitch": 56, "duration": 10, "velocity": 104}, {"time": 146190, "pitch": 60, "duration": 10, "velocity": 94}, {"time": 146200, "pitch": 63, "duration": 10, "velocity": 89}, {"time": 146321, "pitch": 63, "duration": 10, "velocity": 92}, {"time": 146331, "pitch": 60, "duration": 10, "velocity": 90}, {"time": 146341, "pitch": 56, "duration": 10, "velocity": 95}, {"time": 146421, "pitch": 53, "duration": 101, "velocity": 103}, {"time": 146431, "pitch": 57, "duration": 91, "velocity": 101}, {"time": 146441, "pitch": 60, "duration": 81, "velocity": 96}, {"time": 146662, "pitch": 53, "duration": 100, "velocity": 100}, {"time": 146672, "pitch": 57, "duration": 90, "velocity": 97}, {"time": 146682, "pitch": 60, "duration": 80, "velocity": 90}, {"time": 146903, "pitch": 53, "duration": 217, "velocity": 107}, {"time": 146912, "pitch": 57, "duration": 208, "velocity": 93}, {"time": 146922, "pitch": 60, "duration": 198, "velocity": 93}, {"time": 147120, "pitch": 60, "duration": 10, "velocity": 89}, {"time": 147130, "pitch": 57, "duration": 10, "velocity": 97}, {"time": 147140, "pitch": 53, "duration": 9, "velocity": 102}, {"time": 147298, "pitch": 53, "duration": 99, "velocity": 97}, {"time": 147307, "pitch": 57, "duration": 90, "velocity": 92}, {"time": 147317, "pitch": 60, "duration": 80, "velocity": 93}, {"time": 147537, "pitch": 53, "duration": 101, "velocity": 98}, {"time": 147548, "pitch": 57, "duration": 90, "velocity": 98}, {"time": 147558, "pitch": 60, "duration": 80, "velocity": 85}, {"time": 147778, "pitch": 53, "duration": 61, "velocity": 95}, {"time": 147788, "pitch": 57, "duration": 51, "velocity": 95}, {"time": 147798, "pitch": 60, "duration": 41, "velocity": 91}, {"time": 147839, "pitch": 60, "duration": 240, "velocity": 91}, {"time": 147849, "pitch": 57, "duration": 230, "velocity": 103}, {"time": 147859, "pitch": 53, "duration": 220, "velocity": 106}, {"time": 148100, "pitch": 53, "duration": 10, "velocity": 100}, {"time": 148110, "pitch": 57, "duration": 10, "velocity": 99}, {"time": 148120, "pitch": 60, "duration": 10, "velocity": 90}, {"time": 148240, "pitch": 60, "duration": 10, "velocity": 92}, {"time": 148250, "pitch": 57, "duration": 10, "velocity": 96}, {"time": 148260, "pitch": 53, "duration": 10, "velocity": 97}, {"time": 148340, "pitch": 54, "duration": 101, "velocity": 102}, {"time": 148350, "pitch": 58, "duration": 91, "velocity": 95}, {"time": 148360, "pitch": 61, "duration": 81, "velocity": 98}, {"time": 148581, "pitch": 54, "duration": 101, "velocity": 100}, {"time": 148591, "pitch": 58, "duration": 91, "velocity": 90}, {"time": 148601, "pitch": 61, "duration": 81, "velocity": 93}, {"time": 148822, "pitch": 54, "duration": 221, "velocity": 99}, {"time": 148832, "pitch": 58, "duration": 211, "velocity": 98}, {"time": 148842, "pitch": 61, "duration": 201, "velocity": 92}, {"time": 149043, "pitch": 61, "duration": 10, "velocity": 91}, {"time": 149053, "pitch": 58, "duration": 10, "velocity": 98}, {"time": 149063, "pitch": 54, "duration": 10, "velocity": 98}, {"time": 149224, "pitch": 56, "duration": 99, "velocity": 95}, {"time": 149234, "pitch": 60, "duration": 89, "velocity": 91}, {"time": 149244, "pitch": 63, "duration": 79, "velocity": 90}, {"time": 149462, "pitch": 56, "duration": 98, "velocity": 98}, {"time": 149471, "pitch": 60, "duration": 89, "velocity": 98}, {"time": 149481, "pitch": 63, "duration": 79, "velocity": 87}, {"time": 149699, "pitch": 56, "duration": 59, "velocity": 104}, {"time": 149708, "pitch": 60, "duration": 50, "velocity": 90}, {"time": 149718, "pitch": 63, "duration": 40, "velocity": 93}, {"time": 149758, "pitch": 63, "duration": 241, "velocity": 91}, {"time": 149768, "pitch": 60, "duration": 231, "velocity": 98}, {"time": 149778, "pitch": 56, "duration": 221, "velocity": 99}, {"time": 150019, "pitch": 56, "duration": 10, "velocity": 101}, {"time": 150029, "pitch": 60, "duration": 10, "velocity": 92}, {"time": 150039, "pitch": 63, "duration": 10, "velocity": 94}, {"time": 150159, "pitch": 63, "duration": 10, "velocity": 85}, {"time": 150169, "pitch": 60, "duration": 10, "velocity": 93}, {"time": 150179, "pitch": 56, "duration": 10, "velocity": 96}, {"time": 150260, "pitch": 61, "duration": 100, "velocity": 105}, {"time": 150270, "pitch": 65, "duration": 90, "velocity": 96}, {"time": 150280, "pitch": 68, "duration": 80, "velocity": 95}, {"time": 150501, "pitch": 61, "duration": 100, "velocity": 101}, {"time": 150511, "pitch": 65, "duration": 90, "velocity": 91}, {"time": 150521, "pitch": 68, "duration": 80, "velocity": 90}, {"time": 150741, "pitch": 61, "duration": 221, "velocity": 99}, {"time": 150751, "pitch": 65, "duration": 211, "velocity": 97}, {"time": 150761, "pitch": 68, "duration": 201, "velocity": 91}, {"time": 150962, "pitch": 68, "duration": 10, "velocity": 95}, {"time": 150972, "pitch": 65, "duration": 10, "velocity": 95}, {"time": 150982, "pitch": 61, "duration": 10, "velocity": 106}, {"time": 151143, "pitch": 61, "duration": 100, "velocity": 95}, {"time": 151153, "pitch": 65, "duration": 90, "velocity": 93}, {"time": 151163, "pitch": 68, "duration": 80, "velocity": 88}, {"time": 151381, "pitch": 61, "duration": 99, "velocity": 104}, {"time": 151391, "pitch": 65, "duration": 89, "velocity": 97}, {"time": 151401, "pitch": 68, "duration": 79, "velocity": 93}, {"time": 151618, "pitch": 61, "duration": 59, "velocity": 103}, {"time": 151628, "pitch": 65, "duration": 49, "velocity": 99}, {"time": 151638, "pitch": 68, "duration": 39, "velocity": 85}, {"time": 151697, "pitch": 61, "duration": 221, "velocity": 101}, {"time": 151707, "pitch": 65, "duration": 211, "velocity": 107}, {"time": 151717, "pitch": 68, "duration": 201, "velocity": 110}, {"time": 151938, "pitch": 61, "duration": 10, "velocity": 102}, {"time": 151948, "pitch": 65, "duration": 10, "velocity": 95}, {"time": 151958, "pitch": 68, "duration": 10, "velocity": 88}, {"time": 152099, "pitch": 61, "duration": 10, "velocity": 97}, {"time": 152109, "pitch": 65, "duration": 10, "velocity": 107}, {"time": 152119, "pitch": 68, "duration": 10, "velocity": 112}, {"time": 152179, "pitch": 56, "duration": 100, "velocity": 104}, {"time": 152189, "pitch": 60, "duration": 90, "velocity": 96}, {"time": 152199, "pitch": 63, "duration": 80, "velocity": 91}, {"time": 152420, "pitch": 56, "duration": 100, "velocity": 99}, {"time": 152430, "pitch": 60, "duration": 90, "velocity": 98}, {"time": 152440, "pitch": 63, "duration": 80, "velocity": 86}, {"time": 152661, "pitch": 56, "duration": 220, "velocity": 107}, {"time": 152671, "pitch": 60, "duration": 210, "velocity": 95}, {"time": 152681, "pitch": 63, "duration": 200, "velocity": 89}, {"time": 152881, "pitch": 63, "duration": 10, "velocity": 95}, {"time": 152891, "pitch": 60, "duration": 10, "velocity": 93}, {"time": 152901, "pitch": 56, "duration": 11, "velocity": 100}, {"time": 153062, "pitch": 56, "duration": 100, "velocity": 97}, {"time": 153072, "pitch": 60, "duration": 90, "velocity": 99}, {"time": 153082, "pitch": 63, "duration": 80, "velocity": 87}, {"time": 153300, "pitch": 56, "duration": 99, "velocity": 99}, {"time": 153310, "pitch": 60, "duration": 89, "velocity": 95}, {"time": 153320, "pitch": 63, "duration": 79, "velocity": 89}, {"time": 153537, "pitch": 56, "duration": 59, "velocity": 98}, {"time": 153547, "pitch": 60, "duration": 49, "velocity": 90}, {"time": 153557, "pitch": 63, "duration": 39, "velocity": 90}, {"time": 153596, "pitch": 63, "duration": 241, "velocity": 95}, {"time": 153606, "pitch": 60, "duration": 231, "velocity": 99}, {"time": 153616, "pitch": 56, "duration": 221, "velocity": 108}, {"time": 153857, "pitch": 56, "duration": 10, "velocity": 97}, {"time": 153867, "pitch": 60, "duration": 10, "velocity": 92}, {"time": 153877, "pitch": 63, "duration": 10, "velocity": 87}, {"time": 153998, "pitch": 63, "duration": 10, "velocity": 94}, {"time": 154008, "pitch": 60, "duration": 10, "velocity": 93}, {"time": 154018, "pitch": 56, "duration": 10, "velocity": 103}, {"time": 154098, "pitch": 53, "duration": 100, "velocity": 103}, {"time": 154108, "pitch": 57, "duration": 90, "velocity": 98}, {"time": 154118, "pitch": 60, "duration": 80, "velocity": 93}, {"time": 154339, "pitch": 53, "duration": 100, "velocity": 101}, {"time": 154349, "pitch": 57, "duration": 90, "velocity": 99}, {"time": 154359, "pitch": 60, "duration": 80, "velocity": 94}, {"time": 154580, "pitch": 53, "duration": 221, "velocity": 104}, {"time": 154590, "pitch": 57, "duration": 211, "velocity": 94}, {"time": 154600, "pitch": 60, "duration": 201, "velocity": 92}, {"time": 154801, "pitch": 60, "duration": 10, "velocity": 88}, {"time": 154811, "pitch": 57, "duration": 10, "velocity": 97}, {"time": 154821, "pitch": 53, "duration": 10, "velocity": 106}, {"time": 154981, "pitch": 53, "duration": 101, "velocity": 104}, {"time": 154991, "pitch": 57, "duration": 91, "velocity": 93}, {"time": 155001, "pitch": 60, "duration": 81, "velocity": 92}, {"time": 155222, "pitch": 53, "duration": 101, "velocity": 101}, {"time": 155232, "pitch": 57, "duration": 91, "velocity": 99}, {"time": 155242, "pitch": 60, "duration": 81, "velocity": 94}, {"time": 155463, "pitch": 53, "duration": 60, "velocity": 95}, {"time": 155473, "pitch": 57, "duration": 50, "velocity": 90}, {"time": 155483, "pitch": 60, "duration": 40, "velocity": 91}, {"time": 155523, "pitch": 60, "duration": 237, "velocity": 95}, {"time": 155533, "pitch": 57, "duration": 227, "velocity": 103}, {"time": 155543, "pitch": 53, "duration": 217, "velocity": 106}, {"time": 155780, "pitch": 53, "duration": 10, "velocity": 98}, {"time": 155790, "pitch": 57, "duration": 10, "velocity": 97}, {"time": 155800, "pitch": 60, "duration": 10, "velocity": 90}, {"time": 155918, "pitch": 60, "duration": 10, "velocity": 87}, {"time": 155928, "pitch": 57, "duration": 10, "velocity": 96}, {"time": 155938, "pitch": 53, "duration": 10, "velocity": 102}, {"time": 156017, "pitch": 54, "duration": 101, "velocity": 104}, {"time": 156027, "pitch": 58, "duration": 91, "velocity": 96}, {"time": 156037, "pitch": 61, "duration": 81, "velocity": 94}, {"time": 156258, "pitch": 54, "duration": 100, "velocity": 97}, {"time": 156268, "pitch": 58, "duration": 90, "velocity": 98}, {"time": 156278, "pitch": 61, "duration": 80, "velocity": 93}, {"time": 156499, "pitch": 54, "duration": 221, "velocity": 105}, {"time": 156509, "pitch": 58, "duration": 211, "velocity": 93}, {"time": 156519, "pitch": 61, "duration": 201, "velocity": 89}, {"time": 156720, "pitch": 61, "duration": 10, "velocity": 93}, {"time": 156730, "pitch": 58, "duration": 10, "velocity": 94}, {"time": 156740, "pitch": 54, "duration": 10, "velocity": 99}, {"time": 156900, "pitch": 56, "duration": 101, "velocity": 99}, {"time": 156910, "pitch": 60, "duration": 91, "velocity": 92}, {"time": 156921, "pitch": 63, "duration": 80, "velocity": 89}, {"time": 157141, "pitch": 56, "duration": 101, "velocity": 96}, {"time": 157151, "pitch": 60, "duration": 91, "velocity": 91}, {"time": 157161, "pitch": 63, "duration": 81, "velocity": 94}, {"time": 157382, "pitch": 56, "duration": 60, "velocity": 96}, {"time": 157392, "pitch": 60, "duration": 50, "velocity": 91}, {"time": 157402, "pitch": 63, "duration": 40, "velocity": 92}, {"time": 157442, "pitch": 63, "duration": 241, "velocity": 90}, {"time": 157452, "pitch": 60, "duration": 231, "velocity": 95}, {"time": 157462, "pitch": 56, "duration": 221, "velocity": 101}, {"time": 157703, "pitch": 56, "duration": 10, "velocity": 99}, {"time": 157713, "pitch": 60, "duration": 11, "velocity": 94}, {"time": 157724, "pitch": 63, "duration": 10, "velocity": 89}, {"time": 157844, "pitch": 63, "duration": 10, "velocity": 93}, {"time": 157854, "pitch": 60, "duration": 10, "velocity": 93}, {"time": 157864, "pitch": 56, "duration": 10, "velocity": 104}, {"time": 157934, "pitch": 53, "duration": 3829, "velocity": 110}, {"time": 157943, "pitch": 58, "duration": 3820, "velocity": 108}, {"time": 157953, "pitch": 62, "duration": 3810, "velocity": 98}, {"time": 157963, "pitch": 65, "duration": 3800, "velocity": 94}, {"time": 4002, "pitch": 46, "duration": 48, "velocity": 96}, {"time": 4081, "pitch": 46, "duration": 142, "velocity": 93}, {"time": 4239, "pitch": 46, "duration": 48, "velocity": 93}, {"time": 4318, "pitch": 46, "duration": 120, "velocity": 105}, {"time": 4558, "pitch": 46, "duration": 121, "velocity": 98}, {"time": 4799, "pitch": 46, "duration": 362, "velocity": 104}, {"time": 5201, "pitch": 46, "duration": 120, "velocity": 100}, {"time": 5442, "pitch": 46, "duration": 120, "velocity": 106}, {"time": 5683, "pitch": 46, "duration": 80, "velocity": 104}, {"time": 5763, "pitch": 46, "duration": 355, "velocity": 103}, {"time": 6237, "pitch": 46, "duration": 120, "velocity": 95}, {"time": 6478, "pitch": 46, "duration": 120, "velocity": 102}, {"time": 6719, "pitch": 46, "duration": 361, "velocity": 98}, {"time": 7120, "pitch": 46, "duration": 120, "velocity": 103}, {"time": 7361, "pitch": 46, "duration": 120, "velocity": 102}, {"time": 7602, "pitch": 46, "duration": 80, "velocity": 104}, {"time": 7682, "pitch": 46, "duration": 361, "velocity": 99}, {"time": 8164, "pitch": 46, "duration": 118, "velocity": 103}, {"time": 8401, "pitch": 46, "duration": 118, "velocity": 101}, {"time": 8638, "pitch": 46, "duration": 361, "velocity": 105}, {"time": 9039, "pitch": 46, "duration": 121, "velocity": 102}, {"time": 9280, "pitch": 46, "duration": 121, "velocity": 110}, {"time": 9521, "pitch": 46, "duration": 80, "velocity": 104}, {"time": 9601, "pitch": 46, "duration": 362, "velocity": 100}, {"time": 10083, "pitch": 41, "duration": 119, "velocity": 99}, {"time": 10320, "pitch": 41, "duration": 119, "velocity": 100}, {"time": 10557, "pitch": 41, "duration": 361, "velocity": 110}, {"time": 10958, "pitch": 41, "duration": 121, "velocity": 102}, {"time": 11199, "pitch": 41, "duration": 81, "velocity": 102}, {"time": 11280, "pitch": 41, "duration": 80, "velocity": 100}, {"time": 12160, "pitch": 46, "duration": 73, "velocity": 104}, {"time": 12397, "pitch": 46, "duration": 63, "velocity": 106}, {"time": 12476, "pitch": 53, "duration": 153, "velocity": 104}, {"time": 12637, "pitch": 53, "duration": 49, "velocity": 105}, {"time": 12717, "pitch": 46, "duration": 230, "velocity": 107}, {"time": 12958, "pitch": 46, "duration": 109, "velocity": 107}, {"time": 13199, "pitch": 46, "duration": 109, "velocity": 107}, {"time": 13841, "pitch": 51, "duration": 78, "velocity": 104}, {"time": 14082, "pitch": 51, "duration": 74, "velocity": 104}, {"time": 14323, "pitch": 51, "duration": 64, "velocity": 106}, {"time": 14403, "pitch": 46, "duration": 150, "velocity": 104}, {"time": 14561, "pitch": 46, "duration": 49, "velocity": 105}, {"time": 14640, "pitch": 51, "duration": 226, "velocity": 107}, {"time": 14877, "pitch": 51, "duration": 110, "velocity": 107}, {"time": 15118, "pitch": 51, "duration": 109, "velocity": 107}, {"time": 15760, "pitch": 51, "duration": 79, "velocity": 104}, {"time": 16001, "pitch": 46, "duration": 75, "velocity": 104}, {"time": 16242, "pitch": 46, "duration": 64, "velocity": 106}, {"time": 16322, "pitch": 53, "duration": 150, "velocity": 104}, {"time": 16480, "pitch": 53, "duration": 49, "velocity": 105}, {"time": 16559, "pitch": 46, "duration": 227, "velocity": 107}, {"time": 16796, "pitch": 46, "duration": 110, "velocity": 107}, {"time": 17037, "pitch": 46, "duration": 110, "velocity": 107}, {"time": 17760, "pitch": 41, "duration": 21, "velocity": 104}, {"time": 17920, "pitch": 41, "duration": 100, "velocity": 103}, {"time": 18161, "pitch": 41, "duration": 75, "velocity": 107}, {"time": 18242, "pitch": 48, "duration": 189, "velocity": 103}, {"time": 18482, "pitch": 41, "duration": 185, "velocity": 106}, {"time": 18723, "pitch": 46, "duration": 79, "velocity": 127}, {"time": 18881, "pitch": 46, "duration": 79, "velocity": 119}, {"time": 18960, "pitch": 45, "duration": 79, "velocity": 115}, {"time": 19197, "pitch": 43, "duration": 81, "velocity": 113}, {"time": 19438, "pitch": 41, "duration": 80, "velocity": 116}, {"time": 19599, "pitch": 46, "duration": 80, "velocity": 119}, {"time": 19840, "pitch": 46, "duration": 74, "velocity": 104}, {"time": 20081, "pitch": 46, "duration": 64, "velocity": 106}, {"time": 20161, "pitch": 53, "duration": 152, "velocity": 104}, {"time": 20321, "pitch": 53, "duration": 50, "velocity": 105}, {"time": 20402, "pitch": 46, "duration": 230, "velocity": 107}, {"time": 20643, "pitch": 46, "duration": 107, "velocity": 107}, {"time": 20880, "pitch": 46, "duration": 107, "velocity": 107}, {"time": 21518, "pitch": 51, "duration": 78, "velocity": 104}, {"time": 21759, "pitch": 51, "duration": 74, "velocity": 104}, {"time": 22000, "pitch": 51, "duration": 64, "velocity": 106}, {"time": 22080, "pitch": 46, "duration": 153, "velocity": 104}, {"time": 22241, "pitch": 46, "duration": 49, "velocity": 105}, {"time": 22321, "pitch": 51, "duration": 230, "velocity": 107}, {"time": 22562, "pitch": 51, "duration": 109, "velocity": 107}, {"time": 22803, "pitch": 51, "duration": 109, "velocity": 107}, {"time": 23438, "pitch": 51, "duration": 78, "velocity": 104}, {"time": 23678, "pitch": 46, "duration": 74, "velocity": 104}, {"time": 23919, "pitch": 46, "duration": 64, "velocity": 106}, {"time": 23999, "pitch": 53, "duration": 153, "velocity": 104}, {"time": 24160, "pitch": 53, "duration": 49, "velocity": 105}, {"time": 24240, "pitch": 46, "duration": 230, "velocity": 107}, {"time": 24481, "pitch": 46, "duration": 80, "velocity": 127}, {"time": 24642, "pitch": 46, "duration": 80, "velocity": 119}, {"time": 24722, "pitch": 45, "duration": 80, "velocity": 115}, {"time": 24963, "pitch": 43, "duration": 79, "velocity": 113}, {"time": 25200, "pitch": 45, "duration": 79, "velocity": 116}, {"time": 25358, "pitch": 46, "duration": 79, "velocity": 119}, {"time": 25597, "pitch": 46, "duration": 74, "velocity": 104}, {"time": 25838, "pitch": 46, "duration": 64, "velocity": 106}, {"time": 25918, "pitch": 53, "duration": 153, "velocity": 104}, {"time": 26079, "pitch": 53, "duration": 49, "velocity": 105}, {"time": 26159, "pitch": 46, "duration": 230, "velocity": 107}, {"time": 26400, "pitch": 46, "duration": 110, "velocity": 107}, {"time": 26641, "pitch": 46, "duration": 109, "velocity": 107}, {"time": 27364, "pitch": 51, "duration": 118, "velocity": 100}, {"time": 27601, "pitch": 51, "duration": 118, "velocity": 98}, {"time": 27838, "pitch": 51, "duration": 120, "velocity": 99}, {"time": 28078, "pitch": 51, "duration": 121, "velocity": 106}, {"time": 28319, "pitch": 51, "duration": 121, "velocity": 107}, {"time": 28560, "pitch": 51, "duration": 101, "velocity": 109}, {"time": 28681, "pitch": 51, "duration": 341, "velocity": 104}, {"time": 29042, "pitch": 51, "duration": 120, "velocity": 98}, {"time": 29283, "pitch": 46, "duration": 118, "velocity": 101}, {"time": 29520, "pitch": 46, "duration": 118, "velocity": 101}, {"time": 29757, "pitch": 46, "duration": 221, "velocity": 102}, {"time": 30158, "pitch": 46, "duration": 121, "velocity": 98}, {"time": 30399, "pitch": 46, "duration": 121, "velocity": 98}, {"time": 30640, "pitch": 46, "duration": 80, "velocity": 98}, {"time": 30720, "pitch": 46, "duration": 362, "velocity": 105}, {"time": 31202, "pitch": 48, "duration": 121, "velocity": 108}, {"time": 31443, "pitch": 48, "duration": 120, "velocity": 104}, {"time": 31684, "pitch": 48, "duration": 217, "velocity": 108}, {"time": 32079, "pitch": 48, "duration": 119, "velocity": 103}, {"time": 32318, "pitch": 48, "duration": 121, "velocity": 108}, {"time": 32559, "pitch": 48, "duration": 81, "velocity": 101}, {"time": 32640, "pitch": 48, "duration": 361, "velocity": 101}, {"time": 33121, "pitch": 41, "duration": 121, "velocity": 99}, {"time": 33362, "pitch": 41, "duration": 121, "velocity": 100}, {"time": 33603, "pitch": 41, "duration": 356, "velocity": 110}, {"time": 33998, "pitch": 41, "duration": 119, "velocity": 102}, {"time": 34238, "pitch": 41, "duration": 80, "velocity": 102}, {"time": 34318, "pitch": 41, "duration": 80, "velocity": 100}, {"time": 35040, "pitch": 46, "duration": 121, "velocity": 105}, {"time": 35281, "pitch": 46, "duration": 121, "velocity": 106}, {"time": 35522, "pitch": 46, "duration": 217, "velocity": 109}, {"time": 35917, "pitch": 46, "duration": 119, "velocity": 107}, {"time": 36157, "pitch": 46, "duration": 120, "velocity": 98}, {"time": 36398, "pitch": 46, "duration": 80, "velocity": 102}, {"time": 36478, "pitch": 46, "duration": 361, "velocity": 106}, {"time": 36960, "pitch": 50, "duration": 120, "velocity": 105}, {"time": 37201, "pitch": 50, "duration": 120, "velocity": 101}, {"time": 37441, "pitch": 50, "duration": 221, "velocity": 101}, {"time": 37843, "pitch": 43, "duration": 120, "velocity": 103}, {"time": 38081, "pitch": 43, "duration": 119, "velocity": 97}, {"time": 38318, "pitch": 43, "duration": 79, "velocity": 106}, {"time": 38397, "pitch": 51, "duration": 361, "velocity": 105}, {"time": 38879, "pitch": 46, "duration": 120, "velocity": 105}, {"time": 39120, "pitch": 46, "duration": 120, "velocity": 106}, {"time": 39361, "pitch": 46, "duration": 220, "velocity": 109}, {"time": 39762, "pitch": 48, "duration": 120, "velocity": 107}, {"time": 40000, "pitch": 48, "duration": 119, "velocity": 98}, {"time": 40237, "pitch": 48, "duration": 79, "velocity": 102}, {"time": 40316, "pitch": 48, "duration": 362, "velocity": 106}, {"time": 40798, "pitch": 41, "duration": 121, "velocity": 104}, {"time": 41039, "pitch": 41, "duration": 120, "velocity": 109}, {"time": 41280, "pitch": 41, "duration": 221, "velocity": 101}, {"time": 41681, "pitch": 46, "duration": 121, "velocity": 106}, {"time": 41922, "pitch": 46, "duration": 121, "velocity": 102}, {"time": 42163, "pitch": 46, "duration": 80, "velocity": 105}, {"time": 42243, "pitch": 46, "duration": 356, "velocity": 96}, {"time": 42717, "pitch": 46, "duration": 121, "velocity": 105}, {"time": 42958, "pitch": 46, "duration": 121, "velocity": 106}, {"time": 43199, "pitch": 46, "duration": 221, "velocity": 109}, {"time": 43601, "pitch": 46, "duration": 120, "velocity": 107}, {"time": 43841, "pitch": 46, "duration": 121, "velocity": 98}, {"time": 44082, "pitch": 46, "duration": 81, "velocity": 102}, {"time": 44163, "pitch": 46, "duration": 355, "velocity": 106}, {"time": 44637, "pitch": 50, "duration": 120, "velocity": 105}, {"time": 44877, "pitch": 50, "duration": 121, "velocity": 101}, {"time": 45118, "pitch": 50, "duration": 221, "velocity": 101}, {"time": 45520, "pitch": 43, "duration": 120, "velocity": 103}, {"time": 45761, "pitch": 43, "duration": 120, "velocity": 97}, {"time": 46001, "pitch": 43, "duration": 81, "velocity": 106}, {"time": 46082, "pitch": 51, "duration": 361, "velocity": 105}, {"time": 46563, "pitch": 46, "duration": 119, "velocity": 105}, {"time": 46800, "pitch": 46, "duration": 119, "velocity": 106}, {"time": 47037, "pitch": 46, "duration": 221, "velocity": 109}, {"time": 47439, "pitch": 48, "duration": 120, "velocity": 107}, {"time": 47680, "pitch": 48, "duration": 120, "velocity": 98}, {"time": 47921, "pitch": 48, "duration": 80, "velocity": 102}, {"time": 48001, "pitch": 48, "duration": 361, "velocity": 106}, {"time": 48483, "pitch": 41, "duration": 118, "velocity": 104}, {"time": 48720, "pitch": 41, "duration": 118, "velocity": 109}, {"time": 48957, "pitch": 41, "duration": 220, "velocity": 101}, {"time": 49358, "pitch": 46, "duration": 121, "velocity": 106}, {"time": 49599, "pitch": 46, "duration": 120, "velocity": 102}, {"time": 49840, "pitch": 46, "duration": 80, "velocity": 105}, {"time": 49920, "pitch": 46, "duration": 361, "velocity": 96}, {"time": 50402, "pitch": 49, "duration": 221, "velocity": 117}, {"time": 50643, "pitch": 46, "duration": 221, "velocity": 117}, {"time": 50884, "pitch": 44, "duration": 217, "velocity": 117}, {"time": 51121, "pitch": 46, "duration": 217, "velocity": 117}, {"time": 51358, "pitch": 49, "duration": 220, "velocity": 117}, {"time": 51598, "pitch": 46, "duration": 221, "velocity": 117}, {"time": 51839, "pitch": 44, "duration": 221, "velocity": 117}, {"time": 52080, "pitch": 46, "duration": 221, "velocity": 117}, {"time": 52321, "pitch": 44, "duration": 121, "velocity": 117}, {"time": 52562, "pitch": 44, "duration": 221, "velocity": 117}, {"time": 52803, "pitch": 46, "duration": 118, "velocity": 114}, {"time": 53040, "pitch": 46, "duration": 217, "velocity": 117}, {"time": 53277, "pitch": 48, "duration": 120, "velocity": 116}, {"time": 53518, "pitch": 48, "duration": 220, "velocity": 117}, {"time": 53759, "pitch": 44, "duration": 120, "velocity": 117}, {"time": 53999, "pitch": 44, "duration": 221, "velocity": 117}, {"time": 54240, "pitch": 41, "duration": 121, "velocity": 117}, {"time": 54481, "pitch": 41, "duration": 121, "velocity": 117}, {"time": 54722, "pitch": 41, "duration": 121, "velocity": 116}, {"time": 54963, "pitch": 41, "duration": 120, "velocity": 114}, {"time": 55204, "pitch": 41, "duration": 118, "velocity": 117}, {"time": 55441, "pitch": 41, "duration": 118, "velocity": 117}, {"time": 55678, "pitch": 41, "duration": 120, "velocity": 117}, {"time": 55919, "pitch": 41, "duration": 120, "velocity": 117}, {"time": 56160, "pitch": 42, "duration": 120, "velocity": 117}, {"time": 56400, "pitch": 42, "duration": 121, "velocity": 117}, {"time": 56641, "pitch": 42, "duration": 121, "velocity": 117}, {"time": 56882, "pitch": 42, "duration": 121, "velocity": 117}, {"time": 57123, "pitch": 44, "duration": 119, "velocity": 117}, {"time": 57360, "pitch": 44, "duration": 119, "velocity": 117}, {"time": 57597, "pitch": 44, "duration": 120, "velocity": 117}, {"time": 57838, "pitch": 44, "duration": 120, "velocity": 117}, {"time": 58239, "pitch": 46, "duration": 75, "velocity": 104}, {"time": 58480, "pitch": 46, "duration": 64, "velocity": 106}, {"time": 58560, "pitch": 53, "duration": 153, "velocity": 104}, {"time": 58721, "pitch": 53, "duration": 49, "velocity": 105}, {"time": 58801, "pitch": 46, "duration": 230, "velocity": 107}, {"time": 59042, "pitch": 46, "duration": 108, "velocity": 107}, {"time": 59279, "pitch": 46, "duration": 108, "velocity": 107}, {"time": 59918, "pitch": 51, "duration": 78, "velocity": 104}, {"time": 60159, "pitch": 51, "duration": 74, "velocity": 104}, {"time": 60399, "pitch": 51, "duration": 65, "velocity": 106}, {"time": 60480, "pitch": 46, "duration": 152, "velocity": 104}, {"time": 60640, "pitch": 46, "duration": 49, "velocity": 105}, {"time": 60721, "pitch": 51, "duration": 229, "velocity": 107}, {"time": 60961, "pitch": 51, "duration": 110, "velocity": 107}, {"time": 61202, "pitch": 51, "duration": 110, "velocity": 107}, {"time": 61838, "pitch": 51, "duration": 77, "velocity": 104}, {"time": 62078, "pitch": 46, "duration": 74, "velocity": 104}, {"time": 62319, "pitch": 46, "duration": 64, "velocity": 106}, {"time": 62399, "pitch": 53, "duration": 152, "velocity": 104}, {"time": 62559, "pitch": 53, "duration": 50, "velocity": 105}, {"time": 62640, "pitch": 46, "duration": 230, "velocity": 107}, {"time": 62881, "pitch": 46, "duration": 109, "velocity": 107}, {"time": 63122, "pitch": 46, "duration": 109, "velocity": 107}, {"time": 63836, "pitch": 41, "duration": 21, "velocity": 104}, {"time": 63997, "pitch": 41, "duration": 99, "velocity": 103}, {"time": 64238, "pitch": 41, "duration": 74, "velocity": 107}, {"time": 64318, "pitch": 48, "duration": 190, "velocity": 103}, {"time": 64559, "pitch": 41, "duration": 185, "velocity": 106}, {"time": 64800, "pitch": 46, "duration": 80, "velocity": 127}, {"time": 64960, "pitch": 46, "duration": 81, "velocity": 119}, {"time": 65041, "pitch": 45, "duration": 80, "velocity": 115}, {"time": 65282, "pitch": 43, "duration": 80, "velocity": 113}, {"time": 65523, "pitch": 41, "duration": 80, "velocity": 116}, {"time": 65683, "pitch": 46, "duration": 80, "velocity": 119}, {"time": 65921, "pitch": 46, "duration": 73, "velocity": 104}, {"time": 66158, "pitch": 46, "duration": 64, "velocity": 106}, {"time": 66237, "pitch": 53, "duration": 153, "velocity": 104}, {"time": 66398, "pitch": 53, "duration": 49, "velocity": 105}, {"time": 66478, "pitch": 46, "duration": 230, "velocity": 107}, {"time": 66719, "pitch": 46, "duration": 109, "velocity": 107}, {"time": 66960, "pitch": 46, "duration": 109, "velocity": 107}, {"time": 67602, "pitch": 51, "duration": 79, "velocity": 104}, {"time": 67841, "pitch": 51, "duration": 73, "velocity": 104}, {"time": 68078, "pitch": 51, "duration": 63, "velocity": 106}, {"time": 68157, "pitch": 46, "duration": 152, "velocity": 104}, {"time": 68317, "pitch": 46, "duration": 49, "velocity": 105}, {"time": 68397, "pitch": 51, "duration": 230, "velocity": 107}, {"time": 68638, "pitch": 51, "duration": 110, "velocity": 107}, {"time": 68879, "pitch": 51, "duration": 110, "velocity": 107}, {"time": 69521, "pitch": 51, "duration": 79, "velocity": 104}, {"time": 69762, "pitch": 46, "duration": 75, "velocity": 104}, {"time": 70003, "pitch": 46, "duration": 64, "velocity": 106}, {"time": 70083, "pitch": 53, "duration": 151, "velocity": 104}, {"time": 70241, "pitch": 53, "duration": 49, "velocity": 105}, {"time": 70320, "pitch": 46, "duration": 227, "velocity": 107}, {"time": 70557, "pitch": 46, "duration": 81, "velocity": 127}, {"time": 70718, "pitch": 46, "duration": 80, "velocity": 119}, {"time": 70798, "pitch": 45, "duration": 81, "velocity": 115}, {"time": 71039, "pitch": 43, "duration": 81, "velocity": 113}, {"time": 71280, "pitch": 45, "duration": 80, "velocity": 116}, {"time": 71441, "pitch": 46, "duration": 80, "velocity": 119}, {"time": 71682, "pitch": 46, "duration": 74, "velocity": 104}, {"time": 71922, "pitch": 46, "duration": 65, "velocity": 106}, {"time": 72003, "pitch": 53, "duration": 150, "velocity": 104}, {"time": 72161, "pitch": 53, "duration": 48, "velocity": 105}, {"time": 72240, "pitch": 46, "duration": 226, "velocity": 107}, {"time": 72477, "pitch": 46, "duration": 109, "velocity": 107}, {"time": 72718, "pitch": 46, "duration": 109, "velocity": 107}, {"time": 73440, "pitch": 51, "duration": 121, "velocity": 100}, {"time": 73681, "pitch": 51, "duration": 120, "velocity": 98}, {"time": 73922, "pitch": 51, "duration": 120, "velocity": 99}, {"time": 74163, "pitch": 51, "duration": 120, "velocity": 106}, {"time": 74404, "pitch": 51, "duration": 118, "velocity": 107}, {"time": 74641, "pitch": 51, "duration": 98, "velocity": 109}, {"time": 74759, "pitch": 51, "duration": 339, "velocity": 104}, {"time": 75118, "pitch": 51, "duration": 121, "velocity": 98}, {"time": 75359, "pitch": 46, "duration": 121, "velocity": 101}, {"time": 75600, "pitch": 46, "duration": 121, "velocity": 101}, {"time": 75841, "pitch": 46, "duration": 221, "velocity": 102}, {"time": 76243, "pitch": 46, "duration": 119, "velocity": 98}, {"time": 76481, "pitch": 46, "duration": 118, "velocity": 98}, {"time": 76718, "pitch": 46, "duration": 79, "velocity": 98}, {"time": 76797, "pitch": 46, "duration": 361, "velocity": 105}, {"time": 77279, "pitch": 48, "duration": 120, "velocity": 108}, {"time": 77519, "pitch": 48, "duration": 121, "velocity": 104}, {"time": 77760, "pitch": 48, "duration": 221, "velocity": 108}, {"time": 78162, "pitch": 48, "duration": 120, "velocity": 103}, {"time": 78403, "pitch": 48, "duration": 120, "velocity": 108}, {"time": 78644, "pitch": 48, "duration": 80, "velocity": 101}, {"time": 78724, "pitch": 48, "duration": 355, "velocity": 101}, {"time": 79198, "pitch": 41, "duration": 120, "velocity": 99}, {"time": 79439, "pitch": 41, "duration": 120, "velocity": 100}, {"time": 79680, "pitch": 41, "duration": 361, "velocity": 110}, {"time": 80081, "pitch": 41, "duration": 120, "velocity": 102}, {"time": 80322, "pitch": 41, "duration": 80, "velocity": 102}, {"time": 80402, "pitch": 41, "duration": 80, "velocity": 100}, {"time": 81117, "pitch": 46, "duration": 120, "velocity": 105}, {"time": 81358, "pitch": 46, "duration": 120, "velocity": 106}, {"time": 81599, "pitch": 46, "duration": 221, "velocity": 109}, {"time": 82000, "pitch": 46, "duration": 121, "velocity": 107}, {"time": 82241, "pitch": 46, "duration": 121, "velocity": 98}, {"time": 82482, "pitch": 46, "duration": 80, "velocity": 102}, {"time": 82562, "pitch": 46, "duration": 356, "velocity": 106}, {"time": 83036, "pitch": 50, "duration": 121, "velocity": 105}, {"time": 83277, "pitch": 50, "duration": 120, "velocity": 101}, {"time": 83518, "pitch": 50, "duration": 221, "velocity": 101}, {"time": 83919, "pitch": 43, "duration": 121, "velocity": 103}, {"time": 84160, "pitch": 43, "duration": 121, "velocity": 97}, {"time": 84401, "pitch": 43, "duration": 80, "velocity": 106}, {"time": 84481, "pitch": 51, "duration": 362, "velocity": 105}, {"time": 84963, "pitch": 46, "duration": 119, "velocity": 105}, {"time": 85200, "pitch": 46, "duration": 119, "velocity": 106}, {"time": 85437, "pitch": 46, "duration": 221, "velocity": 109}, {"time": 85839, "pitch": 48, "duration": 120, "velocity": 107}, {"time": 86079, "pitch": 48, "duration": 121, "velocity": 98}, {"time": 86320, "pitch": 48, "duration": 81, "velocity": 102}, {"time": 86401, "pitch": 48, "duration": 361, "velocity": 106}, {"time": 86882, "pitch": 41, "duration": 119, "velocity": 104}, {"time": 87119, "pitch": 41, "duration": 119, "velocity": 109}, {"time": 87356, "pitch": 41, "duration": 221, "velocity": 101}, {"time": 87758, "pitch": 46, "duration": 120, "velocity": 106}, {"time": 87999, "pitch": 46, "duration": 120, "velocity": 102}, {"time": 88240, "pitch": 46, "duration": 80, "velocity": 105}, {"time": 88320, "pitch": 46, "duration": 361, "velocity": 96}, {"time": 88802, "pitch": 46, "duration": 120, "velocity": 105}, {"time": 89043, "pitch": 46, "duration": 120, "velocity": 106}, {"time": 89283, "pitch": 46, "duration": 218, "velocity": 109}, {"time": 89678, "pitch": 46, "duration": 119, "velocity": 107}, {"time": 89918, "pitch": 46, "duration": 120, "velocity": 98}, {"time": 90159, "pitch": 46, "duration": 80, "velocity": 102}, {"time": 90239, "pitch": 46, "duration": 361, "velocity": 106}, {"time": 90721, "pitch": 50, "duration": 120, "velocity": 105}, {"time": 90962, "pitch": 50, "duration": 120, "velocity": 101}, {"time": 91203, "pitch": 50, "duration": 217, "velocity": 101}, {"time": 91598, "pitch": 43, "duration": 119, "velocity": 103}, {"time": 91837, "pitch": 43, "duration": 121, "velocity": 97}, {"time": 92078, "pitch": 43, "duration": 80, "velocity": 106}, {"time": 92158, "pitch": 51, "duration": 362, "velocity": 105}, {"time": 92640, "pitch": 46, "duration": 120, "velocity": 105}, {"time": 92881, "pitch": 46, "duration": 120, "velocity": 106}, {"time": 93122, "pitch": 46, "duration": 221, "velocity": 109}, {"time": 93523, "pitch": 48, "duration": 120, "velocity": 107}, {"time": 93761, "pitch": 48, "duration": 119, "velocity": 98}, {"time": 93998, "pitch": 48, "duration": 79, "velocity": 102}, {"time": 94077, "pitch": 48, "duration": 362, "velocity": 106}, {"time": 94559, "pitch": 41, "duration": 121, "velocity": 104}, {"time": 94800, "pitch": 41, "duration": 121, "velocity": 109}, {"time": 95041, "pitch": 41, "duration": 221, "velocity": 101}, {"time": 95442, "pitch": 46, "duration": 120, "velocity": 106}, {"time": 95681, "pitch": 46, "duration": 118, "velocity": 102}, {"time": 95918, "pitch": 46, "duration": 79, "velocity": 105}, {"time": 95997, "pitch": 46, "duration": 361, "velocity": 96}, {"time": 96478, "pitch": 46, "duration": 121, "velocity": 105}, {"time": 96719, "pitch": 46, "duration": 121, "velocity": 98}, {"time": 96960, "pitch": 46, "duration": 362, "velocity": 104}, {"time": 97362, "pitch": 46, "duration": 120, "velocity": 100}, {"time": 97603, "pitch": 46, "duration": 120, "velocity": 106}, {"time": 97843, "pitch": 46, "duration": 81, "velocity": 104}, {"time": 97924, "pitch": 46, "duration": 355, "velocity": 103}, {"time": 98398, "pitch": 46, "duration": 120, "velocity": 95}, {"time": 98638, "pitch": 46, "duration": 121, "velocity": 102}, {"time": 98879, "pitch": 46, "duration": 362, "velocity": 98}, {"time": 99281, "pitch": 46, "duration": 120, "velocity": 103}, {"time": 99522, "pitch": 46, "duration": 120, "velocity": 102}, {"time": 99763, "pitch": 46, "duration": 80, "velocity": 104}, {"time": 99843, "pitch": 46, "duration": 355, "velocity": 99}, {"time": 100317, "pitch": 46, "duration": 120, "velocity": 103}, {"time": 100558, "pitch": 46, "duration": 120, "velocity": 101}, {"time": 100799, "pitch": 46, "duration": 361, "velocity": 105}, {"time": 101200, "pitch": 46, "duration": 120, "velocity": 102}, {"time": 101441, "pitch": 46, "duration": 120, "velocity": 110}, {"time": 101682, "pitch": 46, "duration": 80, "velocity": 104}, {"time": 101762, "pitch": 46, "duration": 361, "velocity": 100}, {"time": 102244, "pitch": 41, "duration": 118, "velocity": 99}, {"time": 102481, "pitch": 41, "duration": 118, "velocity": 100}, {"time": 102718, "pitch": 41, "duration": 361, "velocity": 110}, {"time": 103119, "pitch": 41, "duration": 121, "velocity": 102}, {"time": 103360, "pitch": 41, "duration": 80, "velocity": 102}, {"time": 103440, "pitch": 41, "duration": 81, "velocity": 100}, {"time": 104321, "pitch": 46, "duration": 73, "velocity": 104}, {"time": 104558, "pitch": 46, "duration": 63, "velocity": 106}, {"time": 104637, "pitch": 53, "duration": 153, "velocity": 104}, {"time": 104798, "pitch": 53, "duration": 49, "velocity": 105}, {"time": 104878, "pitch": 46, "duration": 230, "velocity": 107}, {"time": 105119, "pitch": 46, "duration": 109, "velocity": 107}, {"time": 105360, "pitch": 46, "duration": 109, "velocity": 107}, {"time": 106002, "pitch": 51, "duration": 78, "velocity": 104}, {"time": 106240, "pitch": 51, "duration": 73, "velocity": 104}, {"time": 106477, "pitch": 51, "duration": 63, "velocity": 106}, {"time": 106556, "pitch": 46, "duration": 153, "velocity": 104}, {"time": 106717, "pitch": 46, "duration": 49, "velocity": 105}, {"time": 106797, "pitch": 51, "duration": 230, "velocity": 107}, {"time": 107038, "pitch": 51, "duration": 109, "velocity": 107}, {"time": 107279, "pitch": 51, "duration": 109, "velocity": 107}, {"time": 107921, "pitch": 51, "duration": 78, "velocity": 104}, {"time": 108162, "pitch": 46, "duration": 74, "velocity": 104}, {"time": 108403, "pitch": 46, "duration": 64, "velocity": 106}, {"time": 108483, "pitch": 53, "duration": 150, "velocity": 104}, {"time": 108641, "pitch": 53, "duration": 49, "velocity": 105}, {"time": 108720, "pitch": 46, "duration": 226, "velocity": 107}, {"time": 108957, "pitch": 46, "duration": 110, "velocity": 107}, {"time": 109198, "pitch": 46, "duration": 109, "velocity": 107}, {"time": 109921, "pitch": 41, "duration": 21, "velocity": 104}, {"time": 110081, "pitch": 41, "duration": 100, "velocity": 103}, {"time": 110322, "pitch": 41, "duration": 74, "velocity": 107}, {"time": 110402, "pitch": 48, "duration": 187, "velocity": 103}, {"time": 110639, "pitch": 41, "duration": 182, "velocity": 106}, {"time": 110876, "pitch": 46, "duration": 81, "velocity": 127}, {"time": 111037, "pitch": 46, "duration": 80, "velocity": 119}, {"time": 111117, "pitch": 45, "duration": 81, "velocity": 115}, {"time": 111358, "pitch": 43, "duration": 80, "velocity": 113}, {"time": 111599, "pitch": 41, "duration": 80, "velocity": 116}, {"time": 111760, "pitch": 46, "duration": 80, "velocity": 119}, {"time": 112000, "pitch": 46, "duration": 75, "velocity": 104}, {"time": 112241, "pitch": 46, "duration": 65, "velocity": 106}, {"time": 112322, "pitch": 53, "duration": 152, "velocity": 104}, {"time": 112482, "pitch": 53, "duration": 49, "velocity": 105}, {"time": 112563, "pitch": 46, "duration": 229, "velocity": 107}, {"time": 112803, "pitch": 46, "duration": 108, "velocity": 107}, {"time": 113040, "pitch": 46, "duration": 108, "velocity": 107}, {"time": 113679, "pitch": 51, "duration": 78, "velocity": 104}, {"time": 113920, "pitch": 51, "duration": 74, "velocity": 104}, {"time": 114161, "pitch": 51, "duration": 64, "velocity": 106}, {"time": 114241, "pitch": 46, "duration": 152, "velocity": 104}, {"time": 114401, "pitch": 46, "duration": 50, "velocity": 105}, {"time": 114482, "pitch": 51, "duration": 230, "velocity": 107}, {"time": 114723, "pitch": 51, "duration": 107, "velocity": 107}, {"time": 114960, "pitch": 51, "duration": 107, "velocity": 107}, {"time": 115598, "pitch": 51, "duration": 78, "velocity": 104}, {"time": 115839, "pitch": 46, "duration": 74, "velocity": 104}, {"time": 116080, "pitch": 46, "duration": 64, "velocity": 106}, {"time": 116160, "pitch": 53, "duration": 153, "velocity": 104}, {"time": 116321, "pitch": 53, "duration": 49, "velocity": 105}, {"time": 116401, "pitch": 46, "duration": 230, "velocity": 107}, {"time": 116642, "pitch": 46, "duration": 80, "velocity": 127}, {"time": 116802, "pitch": 46, "duration": 81, "velocity": 119}, {"time": 116883, "pitch": 45, "duration": 80, "velocity": 115}, {"time": 117123, "pitch": 43, "duration": 79, "velocity": 113}, {"time": 117360, "pitch": 45, "duration": 79, "velocity": 116}, {"time": 117518, "pitch": 46, "duration": 79, "velocity": 119}, {"time": 117758, "pitch": 46, "duration": 74, "velocity": 104}, {"time": 117999, "pitch": 46, "duration": 64, "velocity": 106}, {"time": 118079, "pitch": 53, "duration": 153, "velocity": 104}, {"time": 118240, "pitch": 53, "duration": 49, "velocity": 105}, {"time": 118320, "pitch": 46, "duration": 230, "velocity": 107}, {"time": 118561, "pitch": 46, "duration": 109, "velocity": 107}, {"time": 118802, "pitch": 46, "duration": 109, "velocity": 107}, {"time": 119517, "pitch": 51, "duration": 120, "velocity": 100}, {"time": 119758, "pitch": 51, "duration": 120, "velocity": 98}, {"time": 119998, "pitch": 51, "duration": 121, "velocity": 99}, {"time": 120239, "pitch": 51, "duration": 121, "velocity": 106}, {"time": 120480, "pitch": 51, "duration": 121, "velocity": 107}, {"time": 120721, "pitch": 51, "duration": 100, "velocity": 109}, {"time": 120842, "pitch": 51, "duration": 341, "velocity": 104}, {"time": 121203, "pitch": 51, "duration": 120, "velocity": 98}, {"time": 121444, "pitch": 46, "duration": 118, "velocity": 101}, {"time": 121681, "pitch": 46, "duration": 118, "velocity": 101}, {"time": 121918, "pitch": 46, "duration": 220, "velocity": 102}, {"time": 122319, "pitch": 46, "duration": 121, "velocity": 98}, {"time": 122560, "pitch": 46, "duration": 120, "velocity": 98}, {"time": 122801, "pitch": 46, "duration": 80, "velocity": 98}, {"time": 122881, "pitch": 46, "duration": 361, "velocity": 105}, {"time": 123363, "pitch": 48, "duration": 118, "velocity": 108}, {"time": 123600, "pitch": 48, "duration": 118, "velocity": 104}, {"time": 123837, "pitch": 48, "duration": 221, "velocity": 108}, {"time": 124238, "pitch": 48, "duration": 121, "velocity": 103}, {"time": 124479, "pitch": 48, "duration": 121, "velocity": 108}, {"time": 124720, "pitch": 48, "duration": 80, "velocity": 101}, {"time": 124800, "pitch": 48, "duration": 362, "velocity": 101}, {"time": 125282, "pitch": 41, "duration": 121, "velocity": 99}, {"time": 125523, "pitch": 41, "duration": 120, "velocity": 100}, {"time": 125764, "pitch": 41, "duration": 355, "velocity": 110}, {"time": 126159, "pitch": 41, "duration": 119, "velocity": 102}, {"time": 126398, "pitch": 41, "duration": 81, "velocity": 102}, {"time": 126479, "pitch": 41, "duration": 80, "velocity": 100}, {"time": 127201, "pitch": 46, "duration": 121, "velocity": 105}, {"time": 127442, "pitch": 46, "duration": 121, "velocity": 106}, {"time": 127683, "pitch": 46, "duration": 217, "velocity": 109}, {"time": 128078, "pitch": 46, "duration": 119, "velocity": 107}, {"time": 128318, "pitch": 46, "duration": 120, "velocity": 98}, {"time": 128558, "pitch": 46, "duration": 81, "velocity": 102}, {"time": 128639, "pitch": 46, "duration": 361, "velocity": 106}, {"time": 129121, "pitch": 50, "duration": 120, "velocity": 105}, {"time": 129361, "pitch": 50, "duration": 121, "velocity": 101}, {"time": 129602, "pitch": 50, "duration": 217, "velocity": 101}, {"time": 129997, "pitch": 43, "duration": 119, "velocity": 103}, {"time": 130237, "pitch": 43, "duration": 120, "velocity": 97}, {"time": 130478, "pitch": 43, "duration": 80, "velocity": 106}, {"time": 130558, "pitch": 51, "duration": 361, "velocity": 105}, {"time": 131040, "pitch": 46, "duration": 120, "velocity": 105}, {"time": 131281, "pitch": 46, "duration": 120, "velocity": 106}, {"time": 131521, "pitch": 46, "duration": 221, "velocity": 109}, {"time": 131923, "pitch": 48, "duration": 120, "velocity": 107}, {"time": 132161, "pitch": 48, "duration": 119, "velocity": 98}, {"time": 132398, "pitch": 48, "duration": 79, "velocity": 102}, {"time": 132477, "pitch": 48, "duration": 361, "velocity": 106}, {"time": 132959, "pitch": 41, "duration": 120, "velocity": 104}, {"time": 133200, "pitch": 41, "duration": 120, "velocity": 109}, {"time": 133441, "pitch": 41, "duration": 220, "velocity": 101}, {"time": 133842, "pitch": 46, "duration": 120, "velocity": 106}, {"time": 134080, "pitch": 46, "duration": 119, "velocity": 102}, {"time": 134317, "pitch": 46, "duration": 79, "velocity": 105}, {"time": 134396, "pitch": 46, "duration": 362, "velocity": 96}, {"time": 134878, "pitch": 46, "duration": 121, "velocity": 105}, {"time": 135119, "pitch": 46, "duration": 120, "velocity": 106}, {"time": 135360, "pitch": 46, "duration": 221, "velocity": 109}, {"time": 135761, "pitch": 46, "duration": 121, "velocity": 107}, {"time": 136002, "pitch": 46, "duration": 121, "velocity": 98}, {"time": 136243, "pitch": 46, "duration": 80, "velocity": 102}, {"time": 136323, "pitch": 46, "duration": 356, "velocity": 106}, {"time": 136797, "pitch": 50, "duration": 121, "velocity": 105}, {"time": 137038, "pitch": 50, "duration": 121, "velocity": 101}, {"time": 137279, "pitch": 50, "duration": 221, "velocity": 101}, {"time": 137681, "pitch": 43, "duration": 120, "velocity": 103}, {"time": 137921, "pitch": 43, "duration": 121, "velocity": 97}, {"time": 138162, "pitch": 43, "duration": 81, "velocity": 106}, {"time": 138243, "pitch": 51, "duration": 355, "velocity": 105}, {"time": 138717, "pitch": 46, "duration": 120, "velocity": 105}, {"time": 138957, "pitch": 46, "duration": 121, "velocity": 106}, {"time": 139198, "pitch": 46, "duration": 221, "velocity": 109}, {"time": 139600, "pitch": 48, "duration": 120, "velocity": 107}, {"time": 139841, "pitch": 48, "duration": 120, "velocity": 98}, {"time": 140081, "pitch": 48, "duration": 81, "velocity": 102}, {"time": 140162, "pitch": 48, "duration": 361, "velocity": 106}, {"time": 140643, "pitch": 41, "duration": 119, "velocity": 104}, {"time": 140880, "pitch": 41, "duration": 119, "velocity": 109}, {"time": 141117, "pitch": 41, "duration": 221, "velocity": 101}, {"time": 141519, "pitch": 46, "duration": 120, "velocity": 106}, {"time": 141760, "pitch": 46, "duration": 120, "velocity": 102}, {"time": 142001, "pitch": 46, "duration": 80, "velocity": 105}, {"time": 142081, "pitch": 46, "duration": 361, "velocity": 96}, {"time": 142563, "pitch": 49, "duration": 217, "velocity": 117}, {"time": 142800, "pitch": 46, "duration": 217, "velocity": 117}, {"time": 143037, "pitch": 44, "duration": 220, "velocity": 115}, {"time": 143278, "pitch": 46, "duration": 220, "velocity": 117}, {"time": 143518, "pitch": 49, "duration": 221, "velocity": 116}, {"time": 143759, "pitch": 46, "duration": 221, "velocity": 117}, {"time": 144000, "pitch": 44, "duration": 221, "velocity": 117}, {"time": 144241, "pitch": 46, "duration": 221, "velocity": 117}, {"time": 144482, "pitch": 44, "duration": 221, "velocity": 117}, {"time": 144723, "pitch": 44, "duration": 221, "velocity": 117}, {"time": 144964, "pitch": 46, "duration": 217, "velocity": 116}, {"time": 145201, "pitch": 46, "duration": 217, "velocity": 117}, {"time": 145438, "pitch": 48, "duration": 220, "velocity": 117}, {"time": 145678, "pitch": 48, "duration": 221, "velocity": 117}, {"time": 145919, "pitch": 44, "duration": 221, "velocity": 117}, {"time": 146160, "pitch": 44, "duration": 221, "velocity": 117}, {"time": 146401, "pitch": 41, "duration": 121, "velocity": 117}, {"time": 146642, "pitch": 41, "duration": 120, "velocity": 117}, {"time": 146883, "pitch": 41, "duration": 118, "velocity": 115}, {"time": 147120, "pitch": 41, "duration": 118, "velocity": 117}, {"time": 147357, "pitch": 41, "duration": 120, "velocity": 117}, {"time": 147598, "pitch": 41, "duration": 120, "velocity": 117}, {"time": 147839, "pitch": 41, "duration": 120, "velocity": 117}, {"time": 148079, "pitch": 41, "duration": 121, "velocity": 117}, {"time": 148320, "pitch": 42, "duration": 221, "velocity": 117}, {"time": 148561, "pitch": 41, "duration": 221, "velocity": 115}, {"time": 148802, "pitch": 42, "duration": 121, "velocity": 117}, {"time": 149043, "pitch": 42, "duration": 221, "velocity": 117}, {"time": 149284, "pitch": 44, "duration": 217, "velocity": 117}, {"time": 149521, "pitch": 44, "duration": 118, "velocity": 117}, {"time": 149758, "pitch": 44, "duration": 120, "velocity": 117}, {"time": 149999, "pitch": 44, "duration": 220, "velocity": 117}, {"time": 150240, "pitch": 49, "duration": 220, "velocity": 117}, {"time": 150480, "pitch": 46, "duration": 221, "velocity": 117}, {"time": 150721, "pitch": 44, "duration": 221, "velocity": 117}, {"time": 150962, "pitch": 46, "duration": 221, "velocity": 117}, {"time": 151203, "pitch": 49, "duration": 217, "velocity": 117}, {"time": 151440, "pitch": 46, "duration": 217, "velocity": 117}, {"time": 151677, "pitch": 44, "duration": 221, "velocity": 117}, {"time": 151918, "pitch": 46, "duration": 221, "velocity": 117}, {"time": 152159, "pitch": 44, "duration": 120, "velocity": 117}, {"time": 152400, "pitch": 44, "duration": 220, "velocity": 117}, {"time": 152641, "pitch": 46, "duration": 120, "velocity": 114}, {"time": 152881, "pitch": 46, "duration": 221, "velocity": 117}, {"time": 153122, "pitch": 48, "duration": 119, "velocity": 116}, {"time": 153359, "pitch": 48, "duration": 217, "velocity": 117}, {"time": 153596, "pitch": 44, "duration": 121, "velocity": 117}, {"time": 153837, "pitch": 44, "duration": 221, "velocity": 117}, {"time": 154078, "pitch": 41, "duration": 120, "velocity": 117}, {"time": 154319, "pitch": 41, "duration": 120, "velocity": 117}, {"time": 154560, "pitch": 41, "duration": 120, "velocity": 116}, {"time": 154801, "pitch": 41, "duration": 120, "velocity": 114}, {"time": 155041, "pitch": 41, "duration": 121, "velocity": 117}, {"time": 155282, "pitch": 41, "duration": 121, "velocity": 117}, {"time": 155523, "pitch": 41, "duration": 119, "velocity": 117}, {"time": 155760, "pitch": 41, "duration": 119, "velocity": 117}, {"time": 155997, "pitch": 42, "duration": 121, "velocity": 117}, {"time": 156238, "pitch": 42, "duration": 120, "velocity": 117}, {"time": 156479, "pitch": 42, "duration": 120, "velocity": 117}, {"time": 156720, "pitch": 42, "duration": 120, "velocity": 117}, {"time": 156961, "pitch": 44, "duration": 120, "velocity": 117}, {"time": 157202, "pitch": 44, "duration": 120, "velocity": 117}, {"time": 157442, "pitch": 44, "duration": 121, "velocity": 117}, {"time": 157683, "pitch": 44, "duration": 121, "velocity": 117}, {"time": 157924, "pitch": 46, "duration": 3839, "velocity": 117}, {"time": 4318, "pitch": 58, "duration": 1919, "velocity": 101}, {"time": 4318, "pitch": 62, "duration": 1919, "velocity": 93}, {"time": 4318, "pitch": 65, "duration": 1919, "velocity": 95}, {"time": 4318, "pitch": 70, "duration": 1919, "velocity": 100}, {"time": 6237, "pitch": 58, "duration": 1927, "velocity": 101}, {"time": 6237, "pitch": 60, "duration": 1927, "velocity": 96}, {"time": 6237, "pitch": 65, "duration": 1927, "velocity": 104}, {"time": 6237, "pitch": 70, "duration": 1927, "velocity": 107}, {"time": 8164, "pitch": 58, "duration": 1919, "velocity": 102}, {"time": 8164, "pitch": 63, "duration": 1919, "velocity": 93}, {"time": 8164, "pitch": 67, "duration": 1919, "velocity": 97}, {"time": 8164, "pitch": 70, "duration": 1919, "velocity": 106}, {"time": 10083, "pitch": 53, "duration": 1919, "velocity": 98}, {"time": 10083, "pitch": 60, "duration": 1919, "velocity": 97}, {"time": 10083, "pitch": 65, "duration": 1919, "velocity": 99}, {"time": 10083, "pitch": 69, "duration": 1919, "velocity": 103}, {"time": 27364, "pitch": 63, "duration": 1919, "velocity": 103}, {"time": 27364, "pitch": 67, "duration": 1919, "velocity": 105}, {"time": 27364, "pitch": 70, "duration": 1919, "velocity": 110}, {"time": 29283, "pitch": 62, "duration": 1919, "velocity": 103}, {"time": 29283, "pitch": 65, "duration": 1919, "velocity": 105}, {"time": 29283, "pitch": 70, "duration": 1919, "velocity": 110}, {"time": 31202, "pitch": 64, "duration": 1919, "velocity": 103}, {"time": 31202, "pitch": 67, "duration": 1919, "velocity": 105}, {"time": 31202, "pitch": 72, "duration": 1919, "velocity": 110}, {"time": 33121, "pitch": 60, "duration": 956, "velocity": 107}, {"time": 33121, "pitch": 65, "duration": 956, "velocity": 109}, {"time": 33121, "pitch": 69, "duration": 956, "velocity": 113}, {"time": 35040, "pitch": 62, "duration": 1920, "velocity": 103}, {"time": 35040, "pitch": 65, "duration": 1920, "velocity": 105}, {"time": 35040, "pitch": 70, "duration": 1920, "velocity": 110}, {"time": 36960, "pitch": 62, "duration": 963, "velocity": 102}, {"time": 36960, "pitch": 65, "duration": 963, "velocity": 112}, {"time": 36960, "pitch": 69, "duration": 963, "velocity": 117}, {"time": 37923, "pitch": 62, "duration": 474, "velocity": 103}, {"time": 37923, "pitch": 67, "duration": 474, "velocity": 111}, {"time": 37923, "pitch": 70, "duration": 474, "velocity": 110}, {"time": 38879, "pitch": 62, "duration": 963, "velocity": 103}, {"time": 38879, "pitch": 65, "duration": 963, "velocity": 105}, {"time": 38879, "pitch": 70, "duration": 963, "velocity": 110}, {"time": 39842, "pitch": 64, "duration": 956, "velocity": 103}, {"time": 39842, "pitch": 67, "duration": 956, "velocity": 105}, {"time": 39842, "pitch": 72, "duration": 956, "velocity": 110}, {"time": 40798, "pitch": 60, "duration": 964, "velocity": 103}, {"time": 40798, "pitch": 65, "duration": 964, "velocity": 105}, {"time": 40798, "pitch": 69, "duration": 964, "velocity": 110}, {"time": 41762, "pitch": 62, "duration": 955, "velocity": 103}, {"time": 41762, "pitch": 65, "duration": 955, "velocity": 105}, {"time": 41762, "pitch": 70, "duration": 955, "velocity": 110}, {"time": 42717, "pitch": 62, "duration": 1920, "velocity": 103}, {"time": 42717, "pitch": 65, "duration": 1920, "velocity": 105}, {"time": 42717, "pitch": 70, "duration": 1920, "velocity": 110}, {"time": 44637, "pitch": 62, "duration": 963, "velocity": 102}, {"time": 44637, "pitch": 65, "duration": 963, "velocity": 112}, {"time": 44637, "pitch": 69, "duration": 963, "velocity": 117}, {"time": 45600, "pitch": 62, "duration": 482, "velocity": 103}, {"time": 45600, "pitch": 67, "duration": 482, "velocity": 111}, {"time": 45600, "pitch": 70, "duration": 482, "velocity": 110}, {"time": 46563, "pitch": 62, "duration": 956, "velocity": 103}, {"time": 46563, "pitch": 65, "duration": 956, "velocity": 105}, {"time": 46563, "pitch": 70, "duration": 956, "velocity": 110}, {"time": 47519, "pitch": 64, "duration": 964, "velocity": 103}, {"time": 47519, "pitch": 67, "duration": 964, "velocity": 105}, {"time": 47519, "pitch": 72, "duration": 964, "velocity": 110}, {"time": 48483, "pitch": 60, "duration": 955, "velocity": 103}, {"time": 48483, "pitch": 65, "duration": 955, "velocity": 105}, {"time": 48483, "pitch": 69, "duration": 955, "velocity": 110}, {"time": 49438, "pitch": 62, "duration": 964, "velocity": 103}, {"time": 49438, "pitch": 65, "duration": 964, "velocity": 105}, {"time": 49438, "pitch": 70, "duration": 964, "velocity": 110}, {"time": 50402, "pitch": 61, "duration": 1919, "velocity": 109}, {"time": 50402, "pitch": 65, "duration": 1919, "velocity": 114}, {"time": 50402, "pitch": 68, "duration": 1919, "velocity": 111}, {"time": 52321, "pitch": 60, "duration": 1919, "velocity": 102}, {"time": 52321, "pitch": 63, "duration": 1919, "velocity": 105}, {"time": 52321, "pitch": 68, "duration": 1919, "velocity": 117}, {"time": 54240, "pitch": 60, "duration": 1920, "velocity": 107}, {"time": 54240, "pitch": 65, "duration": 1920, "velocity": 105}, {"time": 54240, "pitch": 69, "duration": 1920, "velocity": 118}, {"time": 56160, "pitch": 58, "duration": 963, "velocity": 107}, {"time": 56160, "pitch": 61, "duration": 963, "velocity": 113}, {"time": 56160, "pitch": 66, "duration": 963, "velocity": 118}, {"time": 57123, "pitch": 60, "duration": 956, "velocity": 104}, {"time": 57123, "pitch": 63, "duration": 956, "velocity": 111}, {"time": 57123, "pitch": 68, "duration": 956, "velocity": 114}, {"time": 73440, "pitch": 63, "duration": 1919, "velocity": 103}, {"time": 73440, "pitch": 67, "duration": 1919, "velocity": 105}, {"time": 73440, "pitch": 70, "duration": 1919, "velocity": 110}, {"time": 75359, "pitch": 62, "duration": 1920, "velocity": 103}, {"time": 75359, "pitch": 65, "duration": 1920, "velocity": 105}, {"time": 75359, "pitch": 70, "duration": 1920, "velocity": 110}, {"time": 77279, "pitch": 64, "duration": 1919, "velocity": 103}, {"time": 77279, "pitch": 67, "duration": 1919, "velocity": 105}, {"time": 77279, "pitch": 72, "duration": 1919, "velocity": 110}, {"time": 79198, "pitch": 60, "duration": 963, "velocity": 107}, {"time": 79198, "pitch": 65, "duration": 963, "velocity": 109}, {"time": 79198, "pitch": 69, "duration": 963, "velocity": 113}, {"time": 81117, "pitch": 62, "duration": 1919, "velocity": 103}, {"time": 81117, "pitch": 65, "duration": 1919, "velocity": 105}, {"time": 81117, "pitch": 70, "duration": 1919, "velocity": 110}, {"time": 83036, "pitch": 62, "duration": 964, "velocity": 102}, {"time": 83036, "pitch": 65, "duration": 964, "velocity": 112}, {"time": 83036, "pitch": 69, "duration": 964, "velocity": 117}, {"time": 84000, "pitch": 62, "duration": 481, "velocity": 103}, {"time": 84000, "pitch": 67, "duration": 481, "velocity": 111}, {"time": 84000, "pitch": 70, "duration": 481, "velocity": 110}, {"time": 84963, "pitch": 62, "duration": 956, "velocity": 103}, {"time": 84963, "pitch": 65, "duration": 956, "velocity": 105}, {"time": 84963, "pitch": 70, "duration": 956, "velocity": 110}, {"time": 85919, "pitch": 64, "duration": 963, "velocity": 103}, {"time": 85919, "pitch": 67, "duration": 963, "velocity": 105}, {"time": 85919, "pitch": 72, "duration": 963, "velocity": 110}, {"time": 86882, "pitch": 60, "duration": 956, "velocity": 103}, {"time": 86882, "pitch": 65, "duration": 956, "velocity": 105}, {"time": 86882, "pitch": 69, "duration": 956, "velocity": 110}, {"time": 87838, "pitch": 62, "duration": 964, "velocity": 103}, {"time": 87838, "pitch": 65, "duration": 964, "velocity": 105}, {"time": 87838, "pitch": 70, "duration": 964, "velocity": 110}, {"time": 88802, "pitch": 62, "duration": 1919, "velocity": 103}, {"time": 88802, "pitch": 65, "duration": 1919, "velocity": 105}, {"time": 88802, "pitch": 70, "duration": 1919, "velocity": 110}, {"time": 90721, "pitch": 62, "duration": 956, "velocity": 102}, {"time": 90721, "pitch": 65, "duration": 956, "velocity": 112}, {"time": 90721, "pitch": 69, "duration": 956, "velocity": 117}, {"time": 91677, "pitch": 62, "duration": 481, "velocity": 103}, {"time": 91677, "pitch": 67, "duration": 481, "velocity": 111}, {"time": 91677, "pitch": 70, "duration": 481, "velocity": 110}, {"time": 92640, "pitch": 62, "duration": 963, "velocity": 103}, {"time": 92640, "pitch": 65, "duration": 963, "velocity": 105}, {"time": 92640, "pitch": 70, "duration": 963, "velocity": 110}, {"time": 93603, "pitch": 64, "duration": 956, "velocity": 103}, {"time": 93603, "pitch": 67, "duration": 956, "velocity": 105}, {"time": 93603, "pitch": 72, "duration": 956, "velocity": 110}, {"time": 94559, "pitch": 60, "duration": 964, "velocity": 103}, {"time": 94559, "pitch": 65, "duration": 964, "velocity": 105}, {"time": 94559, "pitch": 69, "duration": 964, "velocity": 110}, {"time": 95523, "pitch": 62, "duration": 955, "velocity": 103}, {"time": 95523, "pitch": 65, "duration": 955, "velocity": 105}, {"time": 95523, "pitch": 70, "duration": 955, "velocity": 110}, {"time": 96478, "pitch": 58, "duration": 1920, "velocity": 101}, {"time": 96478, "pitch": 62, "duration": 1920, "velocity": 93}, {"time": 96478, "pitch": 65, "duration": 1920, "velocity": 95}, {"time": 96478, "pitch": 70, "duration": 1920, "velocity": 100}, {"time": 98398, "pitch": 58, "duration": 1919, "velocity": 101}, {"time": 98398, "pitch": 60, "duration": 1919, "velocity": 96}, {"time": 98398, "pitch": 65, "duration": 1919, "velocity": 104}, {"time": 98398, "pitch": 70, "duration": 1919, "velocity": 107}, {"time": 100317, "pitch": 58, "duration": 1927, "velocity": 102}, {"time": 100317, "pitch": 63, "duration": 1927, "velocity": 93}, {"time": 100317, "pitch": 67, "duration": 1927, "velocity": 97}, {"time": 100317, "pitch": 70, "duration": 1927, "velocity": 106}, {"time": 102244, "pitch": 53, "duration": 1919, "velocity": 98}, {"time": 102244, "pitch": 60, "duration": 1919, "velocity": 97}, {"time": 102244, "pitch": 65, "duration": 1919, "velocity": 99}, {"time": 102244, "pitch": 69, "duration": 1919, "velocity": 103}, {"time": 119517, "pitch": 63, "duration": 1927, "velocity": 103}, {"time": 119517, "pitch": 67, "duration": 1927, "velocity": 105}, {"time": 119517, "pitch": 70, "duration": 1927, "velocity": 110}, {"time": 121444, "pitch": 62, "duration": 1919, "velocity": 103}, {"time": 121444, "pitch": 65, "duration": 1919, "velocity": 105}, {"time": 121444, "pitch": 70, "duration": 1919, "velocity": 110}, {"time": 123363, "pitch": 64, "duration": 1919, "velocity": 103}, {"time": 123363, "pitch": 67, "duration": 1919, "velocity": 105}, {"time": 123363, "pitch": 72, "duration": 1919, "velocity": 110}, {"time": 125282, "pitch": 60, "duration": 956, "velocity": 107}, {"time": 125282, "pitch": 65, "duration": 956, "velocity": 109}, {"time": 125282, "pitch": 69, "duration": 956, "velocity": 113}, {"time": 127201, "pitch": 62, "duration": 1920, "velocity": 103}, {"time": 127201, "pitch": 65, "duration": 1920, "velocity": 105}, {"time": 127201, "pitch": 70, "duration": 1920, "velocity": 110}, {"time": 129121, "pitch": 62, "duration": 955, "velocity": 102}, {"time": 129121, "pitch": 65, "duration": 955, "velocity": 112}, {"time": 129121, "pitch": 69, "duration": 955, "velocity": 117}, {"time": 130076, "pitch": 62, "duration": 482, "velocity": 103}, {"time": 130076, "pitch": 67, "duration": 482, "velocity": 111}, {"time": 130076, "pitch": 70, "duration": 482, "velocity": 110}, {"time": 131040, "pitch": 62, "duration": 963, "velocity": 103}, {"time": 131040, "pitch": 65, "duration": 963, "velocity": 105}, {"time": 131040, "pitch": 70, "duration": 963, "velocity": 110}, {"time": 132003, "pitch": 64, "duration": 956, "velocity": 103}, {"time": 132003, "pitch": 67, "duration": 956, "velocity": 105}, {"time": 132003, "pitch": 72, "duration": 956, "velocity": 110}, {"time": 132959, "pitch": 60, "duration": 963, "velocity": 103}, {"time": 132959, "pitch": 65, "duration": 963, "velocity": 105}, {"time": 132959, "pitch": 69, "duration": 963, "velocity": 110}, {"time": 133922, "pitch": 62, "duration": 956, "velocity": 103}, {"time": 133922, "pitch": 65, "duration": 956, "velocity": 105}, {"time": 133922, "pitch": 70, "duration": 956, "velocity": 110}, {"time": 134878, "pitch": 62, "duration": 1919, "velocity": 103}, {"time": 134878, "pitch": 65, "duration": 1919, "velocity": 105}, {"time": 134878, "pitch": 70, "duration": 1919, "velocity": 110}, {"time": 136797, "pitch": 62, "duration": 964, "velocity": 102}, {"time": 136797, "pitch": 65, "duration": 964, "velocity": 112}, {"time": 136797, "pitch": 69, "duration": 964, "velocity": 117}, {"time": 137761, "pitch": 62, "duration": 482, "velocity": 103}, {"time": 137761, "pitch": 67, "duration": 482, "velocity": 111}, {"time": 137761, "pitch": 70, "duration": 482, "velocity": 110}, {"time": 138717, "pitch": 62, "duration": 963, "velocity": 103}, {"time": 138717, "pitch": 65, "duration": 963, "velocity": 105}, {"time": 138717, "pitch": 70, "duration": 963, "velocity": 110}, {"time": 139680, "pitch": 64, "duration": 963, "velocity": 103}, {"time": 139680, "pitch": 67, "duration": 963, "velocity": 105}, {"time": 139680, "pitch": 72, "duration": 963, "velocity": 110}, {"time": 140643, "pitch": 60, "duration": 956, "velocity": 103}, {"time": 140643, "pitch": 65, "duration": 956, "velocity": 105}, {"time": 140643, "pitch": 69, "duration": 956, "velocity": 110}, {"time": 141599, "pitch": 62, "duration": 964, "velocity": 103}, {"time": 141599, "pitch": 65, "duration": 964, "velocity": 105}, {"time": 141599, "pitch": 70, "duration": 964, "velocity": 110}, {"time": 142563, "pitch": 61, "duration": 1919, "velocity": 105}, {"time": 142563, "pitch": 65, "duration": 1919, "velocity": 105}, {"time": 142563, "pitch": 68, "duration": 1919, "velocity": 111}, {"time": 144482, "pitch": 60, "duration": 1919, "velocity": 101}, {"time": 144482, "pitch": 63, "duration": 1919, "velocity": 108}, {"time": 144482, "pitch": 68, "duration": 1919, "velocity": 111}, {"time": 146401, "pitch": 60, "duration": 1919, "velocity": 107}, {"time": 146401, "pitch": 65, "duration": 1919, "velocity": 113}, {"time": 146401, "pitch": 69, "duration": 1919, "velocity": 114}, {"time": 148320, "pitch": 58, "duration": 964, "velocity": 102}, {"time": 148320, "pitch": 61, "duration": 964, "velocity": 112}, {"time": 148320, "pitch": 66, "duration": 964, "velocity": 117}, {"time": 149284, "pitch": 60, "duration": 956, "velocity": 103}, {"time": 149284, "pitch": 63, "duration": 956, "velocity": 111}, {"time": 149284, "pitch": 68, "duration": 956, "velocity": 110}, {"time": 150240, "pitch": 61, "duration": 1919, "velocity": 109}, {"time": 150240, "pitch": 65, "duration": 1919, "velocity": 114}, {"time": 150240, "pitch": 68, "duration": 1919, "velocity": 111}, {"time": 152159, "pitch": 60, "duration": 1919, "velocity": 102}, {"time": 152159, "pitch": 63, "duration": 1919, "velocity": 105}, {"time": 152159, "pitch": 68, "duration": 1919, "velocity": 117}, {"time": 154078, "pitch": 60, "duration": 1919, "velocity": 107}, {"time": 154078, "pitch": 65, "duration": 1919, "velocity": 105}, {"time": 154078, "pitch": 69, "duration": 1919, "velocity": 118}, {"time": 155997, "pitch": 58, "duration": 964, "velocity": 107}, {"time": 155997, "pitch": 61, "duration": 964, "velocity": 113}, {"time": 155997, "pitch": 66, "duration": 964, "velocity": 118}, {"time": 156961, "pitch": 60, "duration": 963, "velocity": 104}, {"time": 156961, "pitch": 63, "duration": 963, "velocity": 111}, {"time": 156961, "pitch": 68, "duration": 963, "velocity": 114}, {"time": 157924, "pitch": 58, "duration": 3839, "velocity": 113}, {"time": 157924, "pitch": 62, "duration": 3839, "velocity": 108}, {"time": 157924, "pitch": 65, "duration": 3839, "velocity": 108}, {"time": 157924, "pitch": 70, "duration": 3839, "velocity": 111}, {"time": 5921, "pitch": 62, "duration": 38, "velocity": 99}, {"time": 5921, "pitch": 65, "duration": 41, "velocity": 109}, {"time": 5921, "pitch": 70, "duration": 41, "velocity": 109}, {"time": 6000, "pitch": 62, "duration": 147, "velocity": 91}, {"time": 6000, "pitch": 67, "duration": 155, "velocity": 117}, {"time": 6000, "pitch": 72, "duration": 155, "velocity": 117}, {"time": 6158, "pitch": 62, "duration": 37, "velocity": 101}, {"time": 6158, "pitch": 65, "duration": 37, "velocity": 112}, {"time": 6158, "pitch": 70, "duration": 37, "velocity": 112}, {"time": 7843, "pitch": 62, "duration": 39, "velocity": 99}, {"time": 7843, "pitch": 65, "duration": 42, "velocity": 109}, {"time": 7843, "pitch": 70, "duration": 42, "velocity": 109}, {"time": 7923, "pitch": 62, "duration": 150, "velocity": 91}, {"time": 7923, "pitch": 67, "duration": 158, "velocity": 117}, {"time": 7923, "pitch": 72, "duration": 158, "velocity": 117}, {"time": 8084, "pitch": 62, "duration": 38, "velocity": 101}, {"time": 8084, "pitch": 65, "duration": 38, "velocity": 112}, {"time": 8084, "pitch": 70, "duration": 38, "velocity": 112}, {"time": 9762, "pitch": 62, "duration": 39, "velocity": 99}, {"time": 9762, "pitch": 65, "duration": 42, "velocity": 109}, {"time": 9762, "pitch": 70, "duration": 42, "velocity": 109}, {"time": 9842, "pitch": 62, "duration": 150, "velocity": 91}, {"time": 9842, "pitch": 67, "duration": 158, "velocity": 117}, {"time": 9842, "pitch": 72, "duration": 158, "velocity": 117}, {"time": 10003, "pitch": 62, "duration": 38, "velocity": 101}, {"time": 10003, "pitch": 65, "duration": 38, "velocity": 112}, {"time": 10003, "pitch": 70, "duration": 38, "velocity": 112}, {"time": 13600, "pitch": 70, "duration": 46, "velocity": 115}, {"time": 13600, "pitch": 74, "duration": 46, "velocity": 115}, {"time": 13600, "pitch": 77, "duration": 46, "velocity": 115}, {"time": 13681, "pitch": 70, "duration": 128, "velocity": 109}, {"time": 13681, "pitch": 74, "duration": 128, "velocity": 109}, {"time": 13681, "pitch": 77, "duration": 128, "velocity": 109}, {"time": 13842, "pitch": 70, "duration": 39, "velocity": 108}, {"time": 13842, "pitch": 74, "duration": 39, "velocity": 108}, {"time": 13842, "pitch": 77, "duration": 39, "velocity": 108}, {"time": 19358, "pitch": 62, "duration": 39, "velocity": 99}, {"time": 19358, "pitch": 65, "duration": 42, "velocity": 109}, {"time": 19358, "pitch": 70, "duration": 42, "velocity": 109}, {"time": 19438, "pitch": 62, "duration": 150, "velocity": 91}, {"time": 19438, "pitch": 67, "duration": 158, "velocity": 117}, {"time": 19438, "pitch": 72, "duration": 158, "velocity": 117}, {"time": 19599, "pitch": 62, "duration": 38, "velocity": 101}, {"time": 19599, "pitch": 65, "duration": 38, "velocity": 112}, {"time": 19599, "pitch": 70, "duration": 38, "velocity": 112}, {"time": 21277, "pitch": 70, "duration": 46, "velocity": 115}, {"time": 21277, "pitch": 74, "duration": 46, "velocity": 115}, {"time": 21277, "pitch": 77, "duration": 46, "velocity": 115}, {"time": 21357, "pitch": 70, "duration": 129, "velocity": 109}, {"time": 21357, "pitch": 74, "duration": 129, "velocity": 109}, {"time": 21357, "pitch": 77, "duration": 129, "velocity": 109}, {"time": 21519, "pitch": 70, "duration": 39, "velocity": 108}, {"time": 21519, "pitch": 74, "duration": 39, "velocity": 108}, {"time": 21519, "pitch": 77, "duration": 39, "velocity": 108}, {"time": 25678, "pitch": 70, "duration": 160, "velocity": 125}, {"time": 25678, "pitch": 82, "duration": 160, "velocity": 125}, {"time": 25918, "pitch": 67, "duration": 121, "velocity": 121}, {"time": 25918, "pitch": 79, "duration": 121, "velocity": 121}, {"time": 26079, "pitch": 70, "duration": 80, "velocity": 120}, {"time": 26079, "pitch": 82, "duration": 80, "velocity": 120}, {"time": 26320, "pitch": 70, "duration": 115, "velocity": 127}, {"time": 26320, "pitch": 82, "duration": 115, "velocity": 127}, {"time": 27601, "pitch": 66, "duration": 199, "velocity": 114}, {"time": 27838, "pitch": 67, "duration": 204, "velocity": 114}, {"time": 28078, "pitch": 75, "duration": 198, "velocity": 114}, {"time": 28319, "pitch": 70, "duration": 737, "velocity": 115}, {"time": 29520, "pitch": 65, "duration": 199, "velocity": 114}, {"time": 29757, "pitch": 65, "duration": 205, "velocity": 114}, {"time": 29998, "pitch": 74, "duration": 197, "velocity": 114}, {"time": 30239, "pitch": 70, "duration": 736, "velocity": 115}, {"time": 33362, "pitch": 60, "duration": 203, "velocity": 114}, {"time": 33362, "pitch": 65, "duration": 203, "velocity": 114}, {"time": 33603, "pitch": 62, "duration": 201, "velocity": 114}, {"time": 33603, "pitch": 67, "duration": 201, "velocity": 114}, {"time": 33840, "pitch": 63, "duration": 195, "velocity": 114}, {"time": 33840, "pitch": 68, "duration": 195, "velocity": 114}, {"time": 34077, "pitch": 65, "duration": 255, "velocity": 115}, {"time": 34077, "pitch": 69, "duration": 255, "velocity": 115}, {"time": 35281, "pitch": 65, "duration": 70, "velocity": 109}, {"time": 35281, "pitch": 70, "duration": 70, "velocity": 109}, {"time": 35442, "pitch": 65, "duration": 86, "velocity": 109}, {"time": 35442, "pitch": 70, "duration": 86, "velocity": 109}, {"time": 35680, "pitch": 65, "duration": 69, "velocity": 109}, {"time": 35680, "pitch": 70, "duration": 69, "velocity": 109}, {"time": 35759, "pitch": 65, "duration": 81, "velocity": 109}, {"time": 35759, "pitch": 70, "duration": 81, "velocity": 109}, {"time": 35996, "pitch": 65, "duration": 86, "velocity": 109}, {"time": 35996, "pitch": 70, "duration": 86, "velocity": 109}, {"time": 36237, "pitch": 65, "duration": 78, "velocity": 109}, {"time": 36237, "pitch": 70, "duration": 78, "velocity": 109}, {"time": 36398, "pitch": 65, "duration": 86, "velocity": 109}, {"time": 36398, "pitch": 70, "duration": 86, "velocity": 109}, {"time": 36639, "pitch": 65, "duration": 70, "velocity": 109}, {"time": 36639, "pitch": 70, "duration": 70, "velocity": 109}, {"time": 36719, "pitch": 65, "duration": 82, "velocity": 109}, {"time": 36719, "pitch": 70, "duration": 82, "velocity": 109}, {"time": 37201, "pitch": 65, "duration": 69, "velocity": 109}, {"time": 37201, "pitch": 69, "duration": 69, "velocity": 109}, {"time": 37361, "pitch": 65, "duration": 86, "velocity": 109}, {"time": 37361, "pitch": 69, "duration": 86, "velocity": 109}, {"time": 37602, "pitch": 65, "duration": 70, "velocity": 109}, {"time": 37602, "pitch": 69, "duration": 70, "velocity": 109}, {"time": 37682, "pitch": 65, "duration": 83, "velocity": 109}, {"time": 37682, "pitch": 69, "duration": 83, "velocity": 109}, {"time": 37923, "pitch": 67, "duration": 85, "velocity": 109}, {"time": 37923, "pitch": 70, "duration": 85, "velocity": 109}, {"time": 38160, "pitch": 67, "duration": 77, "velocity": 109}, {"time": 38160, "pitch": 70, "duration": 77, "velocity": 109}, {"time": 38318, "pitch": 67, "duration": 85, "velocity": 109}, {"time": 38318, "pitch": 70, "duration": 85, "velocity": 109}, {"time": 38558, "pitch": 67, "duration": 70, "velocity": 109}, {"time": 38558, "pitch": 70, "duration": 70, "velocity": 109}, {"time": 38638, "pitch": 67, "duration": 82, "velocity": 109}, {"time": 38638, "pitch": 70, "duration": 82, "velocity": 109}, {"time": 39120, "pitch": 70, "duration": 231, "velocity": 119}, {"time": 40079, "pitch": 72, "duration": 227, "velocity": 119}, {"time": 42002, "pitch": 70, "duration": 161, "velocity": 125}, {"time": 42002, "pitch": 82, "duration": 161, "velocity": 125}, {"time": 42243, "pitch": 67, "duration": 119, "velocity": 121}, {"time": 42243, "pitch": 79, "duration": 119, "velocity": 121}, {"time": 42401, "pitch": 70, "duration": 79, "velocity": 120}, {"time": 42401, "pitch": 82, "duration": 79, "velocity": 120}, {"time": 42638, "pitch": 70, "duration": 79, "velocity": 127}, {"time": 42638, "pitch": 82, "duration": 79, "velocity": 127}, {"time": 42958, "pitch": 65, "duration": 69, "velocity": 109}, {"time": 42958, "pitch": 70, "duration": 69, "velocity": 109}, {"time": 43119, "pitch": 65, "duration": 86, "velocity": 109}, {"time": 43119, "pitch": 70, "duration": 86, "velocity": 109}, {"time": 43360, "pitch": 65, "duration": 70, "velocity": 109}, {"time": 43360, "pitch": 70, "duration": 70, "velocity": 109}, {"time": 43440, "pitch": 65, "duration": 82, "velocity": 109}, {"time": 43440, "pitch": 70, "duration": 82, "velocity": 109}, {"time": 43681, "pitch": 65, "duration": 86, "velocity": 109}, {"time": 43681, "pitch": 70, "duration": 86, "velocity": 109}, {"time": 43922, "pitch": 65, "duration": 78, "velocity": 109}, {"time": 43922, "pitch": 70, "duration": 78, "velocity": 109}, {"time": 44082, "pitch": 65, "duration": 86, "velocity": 109}, {"time": 44082, "pitch": 70, "duration": 86, "velocity": 109}, {"time": 44321, "pitch": 65, "duration": 69, "velocity": 109}, {"time": 44321, "pitch": 70, "duration": 69, "velocity": 109}, {"time": 44400, "pitch": 65, "duration": 81, "velocity": 109}, {"time": 44400, "pitch": 70, "duration": 81, "velocity": 109}, {"time": 44877, "pitch": 65, "duration": 70, "velocity": 109}, {"time": 44877, "pitch": 69, "duration": 70, "velocity": 109}, {"time": 45038, "pitch": 65, "duration": 86, "velocity": 109}, {"time": 45038, "pitch": 69, "duration": 86, "velocity": 109}, {"time": 45279, "pitch": 65, "duration": 70, "velocity": 109}, {"time": 45279, "pitch": 69, "duration": 70, "velocity": 109}, {"time": 45359, "pitch": 65, "duration": 82, "velocity": 109}, {"time": 45359, "pitch": 69, "duration": 82, "velocity": 109}, {"time": 45600, "pitch": 67, "duration": 86, "velocity": 109}, {"time": 45600, "pitch": 70, "duration": 86, "velocity": 109}, {"time": 45841, "pitch": 67, "duration": 78, "velocity": 109}, {"time": 45841, "pitch": 70, "duration": 78, "velocity": 109}, {"time": 46001, "pitch": 67, "duration": 87, "velocity": 109}, {"time": 46001, "pitch": 70, "duration": 87, "velocity": 109}, {"time": 46242, "pitch": 67, "duration": 71, "velocity": 109}, {"time": 46242, "pitch": 70, "duration": 71, "velocity": 109}, {"time": 46323, "pitch": 67, "duration": 82, "velocity": 109}, {"time": 46323, "pitch": 70, "duration": 82, "velocity": 109}, {"time": 46800, "pitch": 70, "duration": 228, "velocity": 119}, {"time": 47760, "pitch": 72, "duration": 231, "velocity": 119}, {"time": 49679, "pitch": 70, "duration": 161, "velocity": 125}, {"time": 49679, "pitch": 82, "duration": 161, "velocity": 125}, {"time": 49920, "pitch": 67, "duration": 121, "velocity": 121}, {"time": 49920, "pitch": 79, "duration": 121, "velocity": 121}, {"time": 50081, "pitch": 70, "duration": 80, "velocity": 120}, {"time": 50081, "pitch": 82, "duration": 80, "velocity": 120}, {"time": 50322, "pitch": 70, "duration": 80, "velocity": 127}, {"time": 50322, "pitch": 82, "duration": 80, "velocity": 127}, {"time": 56160, "pitch": 66, "duration": 942, "velocity": 99}, {"time": 56160, "pitch": 70, "duration": 942, "velocity": 99}, {"time": 57123, "pitch": 68, "duration": 952, "velocity": 99}, {"time": 57123, "pitch": 72, "duration": 952, "velocity": 99}, {"time": 58320, "pitch": 70, "duration": 230, "velocity": 99}, {"time": 60159, "pitch": 70, "duration": 235, "velocity": 119}, {"time": 60159, "pitch": 82, "duration": 235, "velocity": 119}, {"time": 60399, "pitch": 67, "duration": 41, "velocity": 123}, {"time": 60399, "pitch": 79, "duration": 41, "velocity": 123}, {"time": 60480, "pitch": 70, "duration": 120, "velocity": 116}, {"time": 60480, "pitch": 82, "duration": 120, "velocity": 116}, {"time": 60640, "pitch": 70, "duration": 45, "velocity": 122}, {"time": 60640, "pitch": 82, "duration": 45, "velocity": 122}, {"time": 60721, "pitch": 67, "duration": 150, "velocity": 114}, {"time": 60721, "pitch": 79, "duration": 150, "velocity": 114}, {"time": 60881, "pitch": 70, "duration": 60, "velocity": 113}, {"time": 60881, "pitch": 82, "duration": 60, "velocity": 113}, {"time": 64077, "pitch": 65, "duration": 161, "velocity": 116}, {"time": 64077, "pitch": 77, "duration": 161, "velocity": 116}, {"time": 64318, "pitch": 63, "duration": 121, "velocity": 119}, {"time": 64318, "pitch": 75, "duration": 121, "velocity": 119}, {"time": 64479, "pitch": 65, "duration": 80, "velocity": 125}, {"time": 64479, "pitch": 77, "duration": 80, "velocity": 125}, {"time": 64720, "pitch": 65, "duration": 115, "velocity": 121}, {"time": 64720, "pitch": 77, "duration": 115, "velocity": 121}, {"time": 66000, "pitch": 70, "duration": 227, "velocity": 123}, {"time": 66000, "pitch": 82, "duration": 227, "velocity": 123}, {"time": 67841, "pitch": 70, "duration": 232, "velocity": 114}, {"time": 67841, "pitch": 82, "duration": 232, "velocity": 114}, {"time": 68078, "pitch": 67, "duration": 39, "velocity": 115}, {"time": 68078, "pitch": 79, "duration": 39, "velocity": 115}, {"time": 68157, "pitch": 70, "duration": 120, "velocity": 122}, {"time": 68157, "pitch": 82, "duration": 120, "velocity": 122}, {"time": 68317, "pitch": 70, "duration": 45, "velocity": 127}, {"time": 68317, "pitch": 82, "duration": 45, "velocity": 127}, {"time": 68397, "pitch": 67, "duration": 151, "velocity": 118}, {"time": 68397, "pitch": 79, "duration": 151, "velocity": 118}, {"time": 68558, "pitch": 70, "duration": 60, "velocity": 119}, {"time": 68558, "pitch": 82, "duration": 60, "velocity": 119}, {"time": 71762, "pitch": 70, "duration": 160, "velocity": 125}, {"time": 71762, "pitch": 82, "duration": 160, "velocity": 125}, {"time": 72003, "pitch": 67, "duration": 118, "velocity": 121}, {"time": 72003, "pitch": 79, "duration": 118, "velocity": 121}, {"time": 72161, "pitch": 70, "duration": 79, "velocity": 120}, {"time": 72161, "pitch": 82, "duration": 79, "velocity": 120}, {"time": 72398, "pitch": 70, "duration": 114, "velocity": 127}, {"time": 72398, "pitch": 82, "duration": 114, "velocity": 127}, {"time": 73681, "pitch": 67, "duration": 203, "velocity": 114}, {"time": 73922, "pitch": 67, "duration": 205, "velocity": 114}, {"time": 74163, "pitch": 75, "duration": 198, "velocity": 114}, {"time": 74404, "pitch": 70, "duration": 729, "velocity": 115}, {"time": 75600, "pitch": 65, "duration": 203, "velocity": 114}, {"time": 75841, "pitch": 65, "duration": 205, "velocity": 114}, {"time": 76082, "pitch": 74, "duration": 198, "velocity": 114}, {"time": 76323, "pitch": 70, "duration": 729, "velocity": 115}, {"time": 79439, "pitch": 60, "duration": 202, "velocity": 114}, {"time": 79439, "pitch": 65, "duration": 202, "velocity": 114}, {"time": 79680, "pitch": 62, "duration": 204, "velocity": 114}, {"time": 79680, "pitch": 67, "duration": 204, "velocity": 114}, {"time": 79920, "pitch": 63, "duration": 198, "velocity": 114}, {"time": 79920, "pitch": 68, "duration": 198, "velocity": 114}, {"time": 80161, "pitch": 65, "duration": 255, "velocity": 115}, {"time": 80161, "pitch": 69, "duration": 255, "velocity": 115}, {"time": 81358, "pitch": 65, "duration": 69, "velocity": 109}, {"time": 81358, "pitch": 70, "duration": 69, "velocity": 109}, {"time": 81518, "pitch": 65, "duration": 87, "velocity": 109}, {"time": 81518, "pitch": 70, "duration": 87, "velocity": 109}, {"time": 81759, "pitch": 65, "duration": 71, "velocity": 109}, {"time": 81759, "pitch": 70, "duration": 71, "velocity": 109}, {"time": 81840, "pitch": 65, "duration": 82, "velocity": 109}, {"time": 81840, "pitch": 70, "duration": 82, "velocity": 109}, {"time": 82080, "pitch": 65, "duration": 87, "velocity": 109}, {"time": 82080, "pitch": 70, "duration": 87, "velocity": 109}, {"time": 82321, "pitch": 65, "duration": 79, "velocity": 109}, {"time": 82321, "pitch": 70, "duration": 79, "velocity": 109}, {"time": 82482, "pitch": 65, "duration": 86, "velocity": 109}, {"time": 82482, "pitch": 70, "duration": 86, "velocity": 109}, {"time": 82720, "pitch": 65, "duration": 69, "velocity": 109}, {"time": 82720, "pitch": 70, "duration": 69, "velocity": 109}, {"time": 82799, "pitch": 65, "duration": 81, "velocity": 109}, {"time": 82799, "pitch": 70, "duration": 81, "velocity": 109}, {"time": 83277, "pitch": 65, "duration": 69, "velocity": 109}, {"time": 83277, "pitch": 69, "duration": 69, "velocity": 109}, {"time": 83438, "pitch": 65, "duration": 86, "velocity": 109}, {"time": 83438, "pitch": 69, "duration": 86, "velocity": 109}, {"time": 83679, "pitch": 65, "duration": 70, "velocity": 109}, {"time": 83679, "pitch": 69, "duration": 70, "velocity": 109}, {"time": 83759, "pitch": 65, "duration": 82, "velocity": 109}, {"time": 83759, "pitch": 69, "duration": 82, "velocity": 109}, {"time": 84000, "pitch": 67, "duration": 86, "velocity": 109}, {"time": 84000, "pitch": 70, "duration": 86, "velocity": 109}, {"time": 84241, "pitch": 67, "duration": 78, "velocity": 109}, {"time": 84241, "pitch": 70, "duration": 78, "velocity": 109}, {"time": 84401, "pitch": 67, "duration": 86, "velocity": 109}, {"time": 84401, "pitch": 70, "duration": 86, "velocity": 109}, {"time": 84642, "pitch": 67, "duration": 70, "velocity": 109}, {"time": 84642, "pitch": 70, "duration": 70, "velocity": 109}, {"time": 84722, "pitch": 67, "duration": 83, "velocity": 109}, {"time": 84722, "pitch": 70, "duration": 83, "velocity": 109}, {"time": 85200, "pitch": 70, "duration": 227, "velocity": 119}, {"time": 86160, "pitch": 72, "duration": 231, "velocity": 119}, {"time": 88079, "pitch": 70, "duration": 161, "velocity": 125}, {"time": 88079, "pitch": 82, "duration": 161, "velocity": 125}, {"time": 88320, "pitch": 67, "duration": 120, "velocity": 121}, {"time": 88320, "pitch": 79, "duration": 120, "velocity": 121}, {"time": 88480, "pitch": 70, "duration": 81, "velocity": 120}, {"time": 88480, "pitch": 82, "duration": 81, "velocity": 120}, {"time": 88721, "pitch": 70, "duration": 81, "velocity": 127}, {"time": 88721, "pitch": 82, "duration": 81, "velocity": 127}, {"time": 89043, "pitch": 65, "duration": 69, "velocity": 109}, {"time": 89043, "pitch": 70, "duration": 69, "velocity": 109}, {"time": 89203, "pitch": 65, "duration": 86, "velocity": 109}, {"time": 89203, "pitch": 70, "duration": 86, "velocity": 109}, {"time": 89441, "pitch": 65, "duration": 69, "velocity": 109}, {"time": 89441, "pitch": 70, "duration": 69, "velocity": 109}, {"time": 89520, "pitch": 65, "duration": 81, "velocity": 109}, {"time": 89520, "pitch": 70, "duration": 81, "velocity": 109}, {"time": 89757, "pitch": 65, "duration": 87, "velocity": 109}, {"time": 89757, "pitch": 70, "duration": 87, "velocity": 109}, {"time": 89998, "pitch": 65, "duration": 78, "velocity": 109}, {"time": 89998, "pitch": 70, "duration": 78, "velocity": 109}, {"time": 90159, "pitch": 65, "duration": 86, "velocity": 109}, {"time": 90159, "pitch": 70, "duration": 86, "velocity": 109}, {"time": 90400, "pitch": 65, "duration": 70, "velocity": 109}, {"time": 90400, "pitch": 70, "duration": 70, "velocity": 109}, {"time": 90480, "pitch": 65, "duration": 82, "velocity": 109}, {"time": 90480, "pitch": 70, "duration": 82, "velocity": 109}, {"time": 90962, "pitch": 65, "duration": 69, "velocity": 109}, {"time": 90962, "pitch": 69, "duration": 69, "velocity": 109}, {"time": 91122, "pitch": 65, "duration": 86, "velocity": 109}, {"time": 91122, "pitch": 69, "duration": 86, "velocity": 109}, {"time": 91361, "pitch": 65, "duration": 69, "velocity": 109}, {"time": 91361, "pitch": 69, "duration": 69, "velocity": 109}, {"time": 91440, "pitch": 65, "duration": 81, "velocity": 109}, {"time": 91440, "pitch": 69, "duration": 81, "velocity": 109}, {"time": 91677, "pitch": 67, "duration": 86, "velocity": 109}, {"time": 91677, "pitch": 70, "duration": 86, "velocity": 109}, {"time": 91917, "pitch": 67, "duration": 79, "velocity": 109}, {"time": 91917, "pitch": 70, "duration": 79, "velocity": 109}, {"time": 92078, "pitch": 67, "duration": 86, "velocity": 109}, {"time": 92078, "pitch": 70, "duration": 86, "velocity": 109}, {"time": 92319, "pitch": 67, "duration": 70, "velocity": 109}, {"time": 92319, "pitch": 70, "duration": 70, "velocity": 109}, {"time": 92399, "pitch": 67, "duration": 82, "velocity": 109}, {"time": 92399, "pitch": 70, "duration": 82, "velocity": 109}, {"time": 92881, "pitch": 70, "duration": 231, "velocity": 119}, {"time": 93840, "pitch": 72, "duration": 228, "velocity": 119}, {"time": 95760, "pitch": 70, "duration": 158, "velocity": 125}, {"time": 95760, "pitch": 82, "duration": 158, "velocity": 125}, {"time": 95997, "pitch": 67, "duration": 120, "velocity": 121}, {"time": 95997, "pitch": 79, "duration": 120, "velocity": 121}, {"time": 96157, "pitch": 70, "duration": 81, "velocity": 120}, {"time": 96157, "pitch": 82, "duration": 81, "velocity": 120}, {"time": 96398, "pitch": 70, "duration": 80, "velocity": 127}, {"time": 96398, "pitch": 82, "duration": 80, "velocity": 127}, {"time": 98082, "pitch": 62, "duration": 38, "velocity": 99}, {"time": 98082, "pitch": 65, "duration": 41, "velocity": 109}, {"time": 98082, "pitch": 70, "duration": 41, "velocity": 109}, {"time": 98161, "pitch": 62, "duration": 147, "velocity": 91}, {"time": 98161, "pitch": 67, "duration": 155, "velocity": 117}, {"time": 98161, "pitch": 72, "duration": 155, "velocity": 117}, {"time": 98319, "pitch": 62, "duration": 37, "velocity": 101}, {"time": 98319, "pitch": 65, "duration": 37, "velocity": 112}, {"time": 98319, "pitch": 70, "duration": 37, "velocity": 112}, {"time": 100001, "pitch": 62, "duration": 38, "velocity": 99}, {"time": 100001, "pitch": 65, "duration": 41, "velocity": 109}, {"time": 100001, "pitch": 70, "duration": 41, "velocity": 109}, {"time": 100080, "pitch": 62, "duration": 147, "velocity": 91}, {"time": 100080, "pitch": 67, "duration": 155, "velocity": 117}, {"time": 100080, "pitch": 72, "duration": 155, "velocity": 117}, {"time": 100238, "pitch": 62, "duration": 37, "velocity": 101}, {"time": 100238, "pitch": 65, "duration": 37, "velocity": 112}, {"time": 100238, "pitch": 70, "duration": 37, "velocity": 112}, {"time": 101923, "pitch": 62, "duration": 39, "velocity": 99}, {"time": 101923, "pitch": 65, "duration": 42, "velocity": 109}, {"time": 101923, "pitch": 70, "duration": 42, "velocity": 109}, {"time": 102003, "pitch": 62, "duration": 150, "velocity": 91}, {"time": 102003, "pitch": 67, "duration": 158, "velocity": 117}, {"time": 102003, "pitch": 72, "duration": 158, "velocity": 117}, {"time": 102164, "pitch": 62, "duration": 38, "velocity": 101}, {"time": 102164, "pitch": 65, "duration": 38, "velocity": 112}, {"time": 102164, "pitch": 70, "duration": 38, "velocity": 112}, {"time": 104400, "pitch": 70, "duration": 227, "velocity": 99}, {"time": 106240, "pitch": 70, "duration": 232, "velocity": 119}, {"time": 106240, "pitch": 82, "duration": 232, "velocity": 119}, {"time": 106477, "pitch": 67, "duration": 40, "velocity": 123}, {"time": 106477, "pitch": 79, "duration": 40, "velocity": 123}, {"time": 106556, "pitch": 70, "duration": 121, "velocity": 116}, {"time": 106556, "pitch": 82, "duration": 121, "velocity": 116}, {"time": 106717, "pitch": 70, "duration": 45, "velocity": 122}, {"time": 106717, "pitch": 82, "duration": 45, "velocity": 122}, {"time": 106797, "pitch": 67, "duration": 151, "velocity": 114}, {"time": 106797, "pitch": 79, "duration": 151, "velocity": 114}, {"time": 106958, "pitch": 70, "duration": 60, "velocity": 113}, {"time": 106958, "pitch": 82, "duration": 60, "velocity": 113}, {"time": 110162, "pitch": 65, "duration": 160, "velocity": 116}, {"time": 110162, "pitch": 77, "duration": 160, "velocity": 116}, {"time": 110402, "pitch": 63, "duration": 119, "velocity": 119}, {"time": 110402, "pitch": 75, "duration": 119, "velocity": 119}, {"time": 110560, "pitch": 65, "duration": 79, "velocity": 125}, {"time": 110560, "pitch": 77, "duration": 79, "velocity": 125}, {"time": 110797, "pitch": 65, "duration": 114, "velocity": 121}, {"time": 110797, "pitch": 77, "duration": 114, "velocity": 121}, {"time": 112081, "pitch": 70, "duration": 231, "velocity": 123}, {"time": 112081, "pitch": 82, "duration": 231, "velocity": 123}, {"time": 113920, "pitch": 70, "duration": 236, "velocity": 114}, {"time": 113920, "pitch": 82, "duration": 236, "velocity": 114}, {"time": 114161, "pitch": 67, "duration": 40, "velocity": 115}, {"time": 114161, "pitch": 79, "duration": 40, "velocity": 115}, {"time": 114241, "pitch": 70, "duration": 120, "velocity": 122}, {"time": 114241, "pitch": 82, "duration": 120, "velocity": 122}, {"time": 114401, "pitch": 70, "duration": 46, "velocity": 127}, {"time": 114401, "pitch": 82, "duration": 46, "velocity": 127}, {"time": 114482, "pitch": 67, "duration": 150, "velocity": 118}, {"time": 114482, "pitch": 79, "duration": 150, "velocity": 118}, {"time": 114642, "pitch": 70, "duration": 61, "velocity": 119}, {"time": 114642, "pitch": 82, "duration": 61, "velocity": 119}, {"time": 117838, "pitch": 70, "duration": 161, "velocity": 125}, {"time": 117838, "pitch": 82, "duration": 161, "velocity": 125}, {"time": 118079, "pitch": 67, "duration": 121, "velocity": 121}, {"time": 118079, "pitch": 79, "duration": 121, "velocity": 121}, {"time": 118240, "pitch": 70, "duration": 80, "velocity": 120}, {"time": 118240, "pitch": 82, "duration": 80, "velocity": 120}, {"time": 118481, "pitch": 70, "duration": 115, "velocity": 127}, {"time": 118481, "pitch": 82, "duration": 115, "velocity": 127}, {"time": 119758, "pitch": 66, "duration": 202, "velocity": 114}, {"time": 119998, "pitch": 67, "duration": 205, "velocity": 114}, {"time": 120239, "pitch": 75, "duration": 198, "velocity": 114}, {"time": 120480, "pitch": 70, "duration": 737, "velocity": 115}, {"time": 121681, "pitch": 65, "duration": 199, "velocity": 114}, {"time": 121918, "pitch": 65, "duration": 204, "velocity": 114}, {"time": 122158, "pitch": 74, "duration": 198, "velocity": 114}, {"time": 122399, "pitch": 70, "duration": 737, "velocity": 115}, {"time": 125523, "pitch": 60, "duration": 203, "velocity": 114}, {"time": 125523, "pitch": 65, "duration": 203, "velocity": 114}, {"time": 125764, "pitch": 62, "duration": 201, "velocity": 114}, {"time": 125764, "pitch": 67, "duration": 201, "velocity": 114}, {"time": 126001, "pitch": 63, "duration": 194, "velocity": 114}, {"time": 126001, "pitch": 68, "duration": 194, "velocity": 114}, {"time": 126238, "pitch": 65, "duration": 255, "velocity": 115}, {"time": 126238, "pitch": 69, "duration": 255, "velocity": 115}, {"time": 127442, "pitch": 65, "duration": 69, "velocity": 109}, {"time": 127442, "pitch": 70, "duration": 69, "velocity": 109}, {"time": 127603, "pitch": 65, "duration": 86, "velocity": 109}, {"time": 127603, "pitch": 70, "duration": 86, "velocity": 109}, {"time": 127841, "pitch": 65, "duration": 69, "velocity": 109}, {"time": 127841, "pitch": 70, "duration": 69, "velocity": 109}, {"time": 127920, "pitch": 65, "duration": 81, "velocity": 109}, {"time": 127920, "pitch": 70, "duration": 81, "velocity": 109}, {"time": 128157, "pitch": 65, "duration": 86, "velocity": 109}, {"time": 128157, "pitch": 70, "duration": 86, "velocity": 109}, {"time": 128398, "pitch": 65, "duration": 78, "velocity": 109}, {"time": 128398, "pitch": 70, "duration": 78, "velocity": 109}, {"time": 128558, "pitch": 65, "duration": 87, "velocity": 109}, {"time": 128558, "pitch": 70, "duration": 87, "velocity": 109}, {"time": 128799, "pitch": 65, "duration": 71, "velocity": 109}, {"time": 128799, "pitch": 70, "duration": 71, "velocity": 109}, {"time": 128880, "pitch": 65, "duration": 82, "velocity": 109}, {"time": 128880, "pitch": 70, "duration": 82, "velocity": 109}, {"time": 129361, "pitch": 65, "duration": 70, "velocity": 109}, {"time": 129361, "pitch": 69, "duration": 70, "velocity": 109}, {"time": 129522, "pitch": 65, "duration": 86, "velocity": 109}, {"time": 129522, "pitch": 69, "duration": 86, "velocity": 109}, {"time": 129760, "pitch": 65, "duration": 69, "velocity": 109}, {"time": 129760, "pitch": 69, "duration": 69, "velocity": 109}, {"time": 129839, "pitch": 65, "duration": 81, "velocity": 109}, {"time": 129839, "pitch": 69, "duration": 81, "velocity": 109}, {"time": 130076, "pitch": 67, "duration": 86, "velocity": 109}, {"time": 130076, "pitch": 70, "duration": 86, "velocity": 109}, {"time": 130317, "pitch": 67, "duration": 78, "velocity": 109}, {"time": 130317, "pitch": 70, "duration": 78, "velocity": 109}, {"time": 130478, "pitch": 67, "duration": 86, "velocity": 109}, {"time": 130478, "pitch": 70, "duration": 86, "velocity": 109}, {"time": 130719, "pitch": 67, "duration": 70, "velocity": 109}, {"time": 130719, "pitch": 70, "duration": 70, "velocity": 109}, {"time": 130799, "pitch": 67, "duration": 82, "velocity": 109}, {"time": 130799, "pitch": 70, "duration": 82, "velocity": 109}, {"time": 131281, "pitch": 70, "duration": 230, "velocity": 119}, {"time": 132240, "pitch": 72, "duration": 227, "velocity": 119}, {"time": 134159, "pitch": 70, "duration": 158, "velocity": 125}, {"time": 134159, "pitch": 82, "duration": 158, "velocity": 125}, {"time": 134396, "pitch": 67, "duration": 121, "velocity": 121}, {"time": 134396, "pitch": 79, "duration": 121, "velocity": 121}, {"time": 134557, "pitch": 70, "duration": 80, "velocity": 120}, {"time": 134557, "pitch": 82, "duration": 80, "velocity": 120}, {"time": 134798, "pitch": 70, "duration": 80, "velocity": 127}, {"time": 134798, "pitch": 82, "duration": 80, "velocity": 127}, {"time": 135119, "pitch": 65, "duration": 69, "velocity": 109}, {"time": 135119, "pitch": 70, "duration": 69, "velocity": 109}, {"time": 135280, "pitch": 65, "duration": 86, "velocity": 109}, {"time": 135280, "pitch": 70, "duration": 86, "velocity": 109}, {"time": 135520, "pitch": 65, "duration": 71, "velocity": 109}, {"time": 135520, "pitch": 70, "duration": 71, "velocity": 109}, {"time": 135601, "pitch": 65, "duration": 82, "velocity": 109}, {"time": 135601, "pitch": 70, "duration": 82, "velocity": 109}, {"time": 135842, "pitch": 65, "duration": 86, "velocity": 109}, {"time": 135842, "pitch": 70, "duration": 86, "velocity": 109}, {"time": 136083, "pitch": 65, "duration": 78, "velocity": 109}, {"time": 136083, "pitch": 70, "duration": 78, "velocity": 109}, {"time": 136243, "pitch": 65, "duration": 86, "velocity": 109}, {"time": 136243, "pitch": 70, "duration": 86, "velocity": 109}, {"time": 136481, "pitch": 65, "duration": 69, "velocity": 109}, {"time": 136481, "pitch": 70, "duration": 69, "velocity": 109}, {"time": 136560, "pitch": 65, "duration": 81, "velocity": 109}, {"time": 136560, "pitch": 70, "duration": 81, "velocity": 109}, {"time": 137038, "pitch": 65, "duration": 69, "velocity": 109}, {"time": 137038, "pitch": 69, "duration": 69, "velocity": 109}, {"time": 137199, "pitch": 65, "duration": 86, "velocity": 109}, {"time": 137199, "pitch": 69, "duration": 86, "velocity": 109}, {"time": 137440, "pitch": 65, "duration": 70, "velocity": 109}, {"time": 137440, "pitch": 69, "duration": 70, "velocity": 109}, {"time": 137520, "pitch": 65, "duration": 82, "velocity": 109}, {"time": 137520, "pitch": 69, "duration": 82, "velocity": 109}, {"time": 137761, "pitch": 67, "duration": 86, "velocity": 109}, {"time": 137761, "pitch": 70, "duration": 86, "velocity": 109}, {"time": 138002, "pitch": 67, "duration": 78, "velocity": 109}, {"time": 138002, "pitch": 70, "duration": 78, "velocity": 109}, {"time": 138162, "pitch": 67, "duration": 86, "velocity": 109}, {"time": 138162, "pitch": 70, "duration": 86, "velocity": 109}, {"time": 138401, "pitch": 67, "duration": 69, "velocity": 109}, {"time": 138401, "pitch": 70, "duration": 69, "velocity": 109}, {"time": 138480, "pitch": 67, "duration": 81, "velocity": 109}, {"time": 138480, "pitch": 70, "duration": 81, "velocity": 109}, {"time": 138957, "pitch": 70, "duration": 231, "velocity": 119}, {"time": 139921, "pitch": 72, "duration": 231, "velocity": 119}, {"time": 141840, "pitch": 70, "duration": 161, "velocity": 125}, {"time": 141840, "pitch": 82, "duration": 161, "velocity": 125}, {"time": 142081, "pitch": 67, "duration": 120, "velocity": 121}, {"time": 142081, "pitch": 79, "duration": 120, "velocity": 121}, {"time": 142242, "pitch": 70, "duration": 80, "velocity": 120}, {"time": 142242, "pitch": 82, "duration": 80, "velocity": 120}, {"time": 142482, "pitch": 70, "duration": 81, "velocity": 127}, {"time": 142482, "pitch": 82, "duration": 81, "velocity": 127}, {"time": 142563, "pitch": 70, "duration": 34, "velocity": 127}, {"time": 142563, "pitch": 82, "duration": 34, "velocity": 127}, {"time": 148320, "pitch": 66, "duration": 943, "velocity": 99}, {"time": 148320, "pitch": 70, "duration": 943, "velocity": 99}, {"time": 149284, "pitch": 68, "duration": 952, "velocity": 99}, {"time": 149284, "pitch": 72, "duration": 952, "velocity": 99}, {"time": 155997, "pitch": 66, "duration": 943, "velocity": 99}, {"time": 155997, "pitch": 70, "duration": 943, "velocity": 99}, {"time": 156961, "pitch": 68, "duration": 959, "velocity": 99}, {"time": 156961, "pitch": 72, "duration": 959, "velocity": 99}, {"time": 157924, "pitch": 70, "duration": 3835, "velocity": 99}, {"time": 157924, "pitch": 74, "duration": 3835, "velocity": 99}, {"time": 5921, "pitch": 74, "duration": 38, "velocity": 99}, {"time": 5921, "pitch": 77, "duration": 41, "velocity": 109}, {"time": 5921, "pitch": 82, "duration": 41, "velocity": 109}, {"time": 6000, "pitch": 74, "duration": 147, "velocity": 91}, {"time": 6000, "pitch": 79, "duration": 155, "velocity": 117}, {"time": 6000, "pitch": 84, "duration": 155, "velocity": 117}, {"time": 6158, "pitch": 74, "duration": 37, "velocity": 101}, {"time": 6158, "pitch": 77, "duration": 37, "velocity": 112}, {"time": 6158, "pitch": 82, "duration": 37, "velocity": 112}, {"time": 7843, "pitch": 74, "duration": 39, "velocity": 99}, {"time": 7843, "pitch": 77, "duration": 42, "velocity": 109}, {"time": 7843, "pitch": 82, "duration": 42, "velocity": 109}, {"time": 7923, "pitch": 74, "duration": 150, "velocity": 91}, {"time": 7923, "pitch": 79, "duration": 158, "velocity": 117}, {"time": 7923, "pitch": 84, "duration": 158, "velocity": 117}, {"time": 8084, "pitch": 74, "duration": 38, "velocity": 101}, {"time": 8084, "pitch": 77, "duration": 38, "velocity": 112}, {"time": 8084, "pitch": 82, "duration": 38, "velocity": 112}, {"time": 9762, "pitch": 74, "duration": 39, "velocity": 99}, {"time": 9762, "pitch": 77, "duration": 42, "velocity": 109}, {"time": 9762, "pitch": 82, "duration": 42, "velocity": 109}, {"time": 9842, "pitch": 74, "duration": 150, "velocity": 91}, {"time": 9842, "pitch": 79, "duration": 158, "velocity": 117}, {"time": 9842, "pitch": 84, "duration": 158, "velocity": 117}, {"time": 10003, "pitch": 74, "duration": 38, "velocity": 101}, {"time": 10003, "pitch": 77, "duration": 38, "velocity": 112}, {"time": 10003, "pitch": 82, "duration": 38, "velocity": 112}, {"time": 13600, "pitch": 70, "duration": 46, "velocity": 115}, {"time": 13600, "pitch": 74, "duration": 46, "velocity": 115}, {"time": 13600, "pitch": 77, "duration": 46, "velocity": 115}, {"time": 13681, "pitch": 70, "duration": 128, "velocity": 109}, {"time": 13681, "pitch": 74, "duration": 128, "velocity": 109}, {"time": 13681, "pitch": 77, "duration": 128, "velocity": 109}, {"time": 13842, "pitch": 70, "duration": 39, "velocity": 108}, {"time": 13842, "pitch": 74, "duration": 39, "velocity": 108}, {"time": 13842, "pitch": 77, "duration": 39, "velocity": 108}, {"time": 19358, "pitch": 62, "duration": 39, "velocity": 99}, {"time": 19358, "pitch": 65, "duration": 42, "velocity": 109}, {"time": 19358, "pitch": 70, "duration": 42, "velocity": 109}, {"time": 19438, "pitch": 62, "duration": 150, "velocity": 91}, {"time": 19438, "pitch": 67, "duration": 158, "velocity": 117}, {"time": 19438, "pitch": 72, "duration": 158, "velocity": 117}, {"time": 19599, "pitch": 62, "duration": 38, "velocity": 101}, {"time": 19599, "pitch": 65, "duration": 38, "velocity": 112}, {"time": 19599, "pitch": 70, "duration": 38, "velocity": 112}, {"time": 21277, "pitch": 70, "duration": 46, "velocity": 115}, {"time": 21277, "pitch": 74, "duration": 46, "velocity": 115}, {"time": 21277, "pitch": 77, "duration": 46, "velocity": 115}, {"time": 21357, "pitch": 70, "duration": 129, "velocity": 109}, {"time": 21357, "pitch": 74, "duration": 129, "velocity": 109}, {"time": 21357, "pitch": 77, "duration": 129, "velocity": 109}, {"time": 21519, "pitch": 70, "duration": 39, "velocity": 108}, {"time": 21519, "pitch": 74, "duration": 39, "velocity": 108}, {"time": 21519, "pitch": 77, "duration": 39, "velocity": 108}, {"time": 25678, "pitch": 70, "duration": 160, "velocity": 125}, {"time": 25918, "pitch": 67, "duration": 121, "velocity": 121}, {"time": 26079, "pitch": 70, "duration": 80, "velocity": 120}, {"time": 26320, "pitch": 70, "duration": 115, "velocity": 127}, {"time": 27601, "pitch": 66, "duration": 199, "velocity": 114}, {"time": 27838, "pitch": 67, "duration": 204, "velocity": 114}, {"time": 28078, "pitch": 75, "duration": 198, "velocity": 114}, {"time": 28319, "pitch": 70, "duration": 737, "velocity": 115}, {"time": 29520, "pitch": 65, "duration": 199, "velocity": 114}, {"time": 29757, "pitch": 65, "duration": 205, "velocity": 114}, {"time": 29998, "pitch": 74, "duration": 197, "velocity": 114}, {"time": 30239, "pitch": 70, "duration": 736, "velocity": 115}, {"time": 33362, "pitch": 60, "duration": 203, "velocity": 114}, {"time": 33362, "pitch": 65, "duration": 203, "velocity": 114}, {"time": 33603, "pitch": 62, "duration": 201, "velocity": 114}, {"time": 33603, "pitch": 67, "duration": 201, "velocity": 114}, {"time": 33840, "pitch": 63, "duration": 195, "velocity": 114}, {"time": 33840, "pitch": 68, "duration": 195, "velocity": 114}, {"time": 34077, "pitch": 65, "duration": 255, "velocity": 115}, {"time": 34077, "pitch": 69, "duration": 255, "velocity": 115}, {"time": 35281, "pitch": 65, "duration": 70, "velocity": 109}, {"time": 35281, "pitch": 70, "duration": 70, "velocity": 109}, {"time": 35442, "pitch": 65, "duration": 86, "velocity": 109}, {"time": 35442, "pitch": 70, "duration": 86, "velocity": 109}, {"time": 35680, "pitch": 65, "duration": 69, "velocity": 109}, {"time": 35680, "pitch": 70, "duration": 69, "velocity": 109}, {"time": 35759, "pitch": 65, "duration": 81, "velocity": 109}, {"time": 35759, "pitch": 70, "duration": 81, "velocity": 109}, {"time": 35996, "pitch": 65, "duration": 86, "velocity": 109}, {"time": 35996, "pitch": 70, "duration": 86, "velocity": 109}, {"time": 36237, "pitch": 65, "duration": 78, "velocity": 109}, {"time": 36237, "pitch": 70, "duration": 78, "velocity": 109}, {"time": 36398, "pitch": 65, "duration": 86, "velocity": 109}, {"time": 36398, "pitch": 70, "duration": 86, "velocity": 109}, {"time": 36639, "pitch": 65, "duration": 70, "velocity": 109}, {"time": 36639, "pitch": 70, "duration": 70, "velocity": 109}, {"time": 36719, "pitch": 65, "duration": 82, "velocity": 109}, {"time": 36719, "pitch": 70, "duration": 82, "velocity": 109}, {"time": 37201, "pitch": 65, "duration": 69, "velocity": 109}, {"time": 37201, "pitch": 69, "duration": 69, "velocity": 109}, {"time": 37361, "pitch": 65, "duration": 86, "velocity": 109}, {"time": 37361, "pitch": 69, "duration": 86, "velocity": 109}, {"time": 37602, "pitch": 65, "duration": 70, "velocity": 109}, {"time": 37602, "pitch": 69, "duration": 70, "velocity": 109}, {"time": 37682, "pitch": 65, "duration": 83, "velocity": 109}, {"time": 37682, "pitch": 69, "duration": 83, "velocity": 109}, {"time": 37923, "pitch": 67, "duration": 85, "velocity": 109}, {"time": 37923, "pitch": 70, "duration": 85, "velocity": 109}, {"time": 38160, "pitch": 67, "duration": 77, "velocity": 109}, {"time": 38160, "pitch": 70, "duration": 77, "velocity": 109}, {"time": 38318, "pitch": 67, "duration": 85, "velocity": 109}, {"time": 38318, "pitch": 70, "duration": 85, "velocity": 109}, {"time": 38558, "pitch": 67, "duration": 70, "velocity": 109}, {"time": 38558, "pitch": 70, "duration": 70, "velocity": 109}, {"time": 38638, "pitch": 67, "duration": 82, "velocity": 109}, {"time": 38638, "pitch": 70, "duration": 82, "velocity": 109}, {"time": 39120, "pitch": 70, "duration": 231, "velocity": 119}, {"time": 40079, "pitch": 72, "duration": 227, "velocity": 119}, {"time": 42002, "pitch": 70, "duration": 161, "velocity": 125}, {"time": 42243, "pitch": 67, "duration": 119, "velocity": 121}, {"time": 42401, "pitch": 70, "duration": 79, "velocity": 120}, {"time": 42638, "pitch": 70, "duration": 79, "velocity": 127}, {"time": 42958, "pitch": 65, "duration": 69, "velocity": 109}, {"time": 42958, "pitch": 70, "duration": 69, "velocity": 109}, {"time": 43119, "pitch": 65, "duration": 86, "velocity": 109}, {"time": 43119, "pitch": 70, "duration": 86, "velocity": 109}, {"time": 43360, "pitch": 65, "duration": 70, "velocity": 109}, {"time": 43360, "pitch": 70, "duration": 70, "velocity": 109}, {"time": 43440, "pitch": 65, "duration": 82, "velocity": 109}, {"time": 43440, "pitch": 70, "duration": 82, "velocity": 109}, {"time": 43681, "pitch": 65, "duration": 86, "velocity": 109}, {"time": 43681, "pitch": 70, "duration": 86, "velocity": 109}, {"time": 43922, "pitch": 65, "duration": 78, "velocity": 109}, {"time": 43922, "pitch": 70, "duration": 78, "velocity": 109}, {"time": 44082, "pitch": 65, "duration": 86, "velocity": 109}, {"time": 44082, "pitch": 70, "duration": 86, "velocity": 109}, {"time": 44321, "pitch": 65, "duration": 69, "velocity": 109}, {"time": 44321, "pitch": 70, "duration": 69, "velocity": 109}, {"time": 44400, "pitch": 65, "duration": 81, "velocity": 109}, {"time": 44400, "pitch": 70, "duration": 81, "velocity": 109}, {"time": 44877, "pitch": 65, "duration": 70, "velocity": 109}, {"time": 44877, "pitch": 69, "duration": 70, "velocity": 109}, {"time": 45038, "pitch": 65, "duration": 86, "velocity": 109}, {"time": 45038, "pitch": 69, "duration": 86, "velocity": 109}, {"time": 45279, "pitch": 65, "duration": 70, "velocity": 109}, {"time": 45279, "pitch": 69, "duration": 70, "velocity": 109}, {"time": 45359, "pitch": 65, "duration": 82, "velocity": 109}, {"time": 45359, "pitch": 69, "duration": 82, "velocity": 109}, {"time": 45600, "pitch": 67, "duration": 86, "velocity": 109}, {"time": 45600, "pitch": 70, "duration": 86, "velocity": 109}, {"time": 45841, "pitch": 67, "duration": 78, "velocity": 109}, {"time": 45841, "pitch": 70, "duration": 78, "velocity": 109}, {"time": 46001, "pitch": 67, "duration": 87, "velocity": 109}, {"time": 46001, "pitch": 70, "duration": 87, "velocity": 109}, {"time": 46242, "pitch": 67, "duration": 71, "velocity": 109}, {"time": 46242, "pitch": 70, "duration": 71, "velocity": 109}, {"time": 46323, "pitch": 67, "duration": 82, "velocity": 109}, {"time": 46323, "pitch": 70, "duration": 82, "velocity": 109}, {"time": 46800, "pitch": 70, "duration": 228, "velocity": 119}, {"time": 47760, "pitch": 72, "duration": 231, "velocity": 119}, {"time": 49679, "pitch": 70, "duration": 161, "velocity": 125}, {"time": 49920, "pitch": 67, "duration": 121, "velocity": 121}, {"time": 50081, "pitch": 70, "duration": 80, "velocity": 120}, {"time": 50322, "pitch": 70, "duration": 80, "velocity": 127}, {"time": 56160, "pitch": 66, "duration": 942, "velocity": 119}, {"time": 56160, "pitch": 70, "duration": 942, "velocity": 119}, {"time": 57123, "pitch": 68, "duration": 952, "velocity": 119}, {"time": 57123, "pitch": 72, "duration": 952, "velocity": 119}, {"time": 58320, "pitch": 58, "duration": 230, "velocity": 99}, {"time": 58320, "pitch": 70, "duration": 230, "velocity": 99}, {"time": 60159, "pitch": 70, "duration": 235, "velocity": 119}, {"time": 60399, "pitch": 67, "duration": 41, "velocity": 123}, {"time": 60480, "pitch": 70, "duration": 120, "velocity": 116}, {"time": 60640, "pitch": 70, "duration": 45, "velocity": 122}, {"time": 60721, "pitch": 67, "duration": 150, "velocity": 114}, {"time": 60881, "pitch": 70, "duration": 60, "velocity": 113}, {"time": 64077, "pitch": 65, "duration": 161, "velocity": 116}, {"time": 64318, "pitch": 63, "duration": 121, "velocity": 119}, {"time": 64479, "pitch": 65, "duration": 80, "velocity": 125}, {"time": 64720, "pitch": 65, "duration": 115, "velocity": 121}, {"time": 66000, "pitch": 70, "duration": 227, "velocity": 123}, {"time": 67841, "pitch": 70, "duration": 232, "velocity": 114}, {"time": 68078, "pitch": 67, "duration": 39, "velocity": 115}, {"time": 68157, "pitch": 70, "duration": 120, "velocity": 122}, {"time": 68317, "pitch": 70, "duration": 45, "velocity": 127}, {"time": 68397, "pitch": 67, "duration": 151, "velocity": 118}, {"time": 68558, "pitch": 70, "duration": 60, "velocity": 119}, {"time": 71762, "pitch": 70, "duration": 160, "velocity": 125}, {"time": 72003, "pitch": 67, "duration": 118, "velocity": 121}, {"time": 72161, "pitch": 70, "duration": 79, "velocity": 120}, {"time": 72398, "pitch": 70, "duration": 114, "velocity": 127}, {"time": 73681, "pitch": 67, "duration": 203, "velocity": 114}, {"time": 73922, "pitch": 67, "duration": 205, "velocity": 114}, {"time": 74163, "pitch": 75, "duration": 198, "velocity": 114}, {"time": 74404, "pitch": 70, "duration": 729, "velocity": 115}, {"time": 75600, "pitch": 65, "duration": 203, "velocity": 114}, {"time": 75841, "pitch": 65, "duration": 205, "velocity": 114}, {"time": 76082, "pitch": 74, "duration": 198, "velocity": 114}, {"time": 76323, "pitch": 70, "duration": 729, "velocity": 115}, {"time": 79439, "pitch": 60, "duration": 202, "velocity": 114}, {"time": 79439, "pitch": 65, "duration": 202, "velocity": 114}, {"time": 79680, "pitch": 62, "duration": 204, "velocity": 114}, {"time": 79680, "pitch": 67, "duration": 204, "velocity": 114}, {"time": 79920, "pitch": 63, "duration": 198, "velocity": 114}, {"time": 79920, "pitch": 68, "duration": 198, "velocity": 114}, {"time": 80161, "pitch": 65, "duration": 255, "velocity": 115}, {"time": 80161, "pitch": 69, "duration": 255, "velocity": 115}, {"time": 81358, "pitch": 65, "duration": 69, "velocity": 109}, {"time": 81358, "pitch": 70, "duration": 69, "velocity": 109}, {"time": 81518, "pitch": 65, "duration": 87, "velocity": 109}, {"time": 81518, "pitch": 70, "duration": 87, "velocity": 109}, {"time": 81759, "pitch": 65, "duration": 71, "velocity": 109}, {"time": 81759, "pitch": 70, "duration": 71, "velocity": 109}, {"time": 81840, "pitch": 65, "duration": 82, "velocity": 109}, {"time": 81840, "pitch": 70, "duration": 82, "velocity": 109}, {"time": 82080, "pitch": 65, "duration": 87, "velocity": 109}, {"time": 82080, "pitch": 70, "duration": 87, "velocity": 109}, {"time": 82321, "pitch": 65, "duration": 79, "velocity": 109}, {"time": 82321, "pitch": 70, "duration": 79, "velocity": 109}, {"time": 82482, "pitch": 65, "duration": 86, "velocity": 109}, {"time": 82482, "pitch": 70, "duration": 86, "velocity": 109}, {"time": 82720, "pitch": 65, "duration": 69, "velocity": 109}, {"time": 82720, "pitch": 70, "duration": 69, "velocity": 109}, {"time": 82799, "pitch": 65, "duration": 81, "velocity": 109}, {"time": 82799, "pitch": 70, "duration": 81, "velocity": 109}, {"time": 83277, "pitch": 65, "duration": 69, "velocity": 109}, {"time": 83277, "pitch": 69, "duration": 69, "velocity": 109}, {"time": 83438, "pitch": 65, "duration": 86, "velocity": 109}, {"time": 83438, "pitch": 69, "duration": 86, "velocity": 109}, {"time": 83679, "pitch": 65, "duration": 70, "velocity": 109}, {"time": 83679, "pitch": 69, "duration": 70, "velocity": 109}, {"time": 83759, "pitch": 65, "duration": 82, "velocity": 109}, {"time": 83759, "pitch": 69, "duration": 82, "velocity": 109}, {"time": 84000, "pitch": 67, "duration": 86, "velocity": 109}, {"time": 84000, "pitch": 70, "duration": 86, "velocity": 109}, {"time": 84241, "pitch": 67, "duration": 78, "velocity": 109}, {"time": 84241, "pitch": 70, "duration": 78, "velocity": 109}, {"time": 84401, "pitch": 67, "duration": 86, "velocity": 109}, {"time": 84401, "pitch": 70, "duration": 86, "velocity": 109}, {"time": 84642, "pitch": 67, "duration": 70, "velocity": 109}, {"time": 84642, "pitch": 70, "duration": 70, "velocity": 109}, {"time": 84722, "pitch": 67, "duration": 83, "velocity": 109}, {"time": 84722, "pitch": 70, "duration": 83, "velocity": 109}, {"time": 85200, "pitch": 70, "duration": 227, "velocity": 119}, {"time": 86160, "pitch": 72, "duration": 231, "velocity": 119}, {"time": 88079, "pitch": 70, "duration": 161, "velocity": 125}, {"time": 88320, "pitch": 67, "duration": 120, "velocity": 121}, {"time": 88480, "pitch": 70, "duration": 81, "velocity": 120}, {"time": 88721, "pitch": 70, "duration": 81, "velocity": 127}, {"time": 89043, "pitch": 65, "duration": 69, "velocity": 109}, {"time": 89043, "pitch": 70, "duration": 69, "velocity": 109}, {"time": 89203, "pitch": 65, "duration": 86, "velocity": 109}, {"time": 89203, "pitch": 70, "duration": 86, "velocity": 109}, {"time": 89441, "pitch": 65, "duration": 69, "velocity": 109}, {"time": 89441, "pitch": 70, "duration": 69, "velocity": 109}, {"time": 89520, "pitch": 65, "duration": 81, "velocity": 109}, {"time": 89520, "pitch": 70, "duration": 81, "velocity": 109}, {"time": 89757, "pitch": 65, "duration": 87, "velocity": 109}, {"time": 89757, "pitch": 70, "duration": 87, "velocity": 109}, {"time": 89998, "pitch": 65, "duration": 78, "velocity": 109}, {"time": 89998, "pitch": 70, "duration": 78, "velocity": 109}, {"time": 90159, "pitch": 65, "duration": 86, "velocity": 109}, {"time": 90159, "pitch": 70, "duration": 86, "velocity": 109}, {"time": 90400, "pitch": 65, "duration": 70, "velocity": 109}, {"time": 90400, "pitch": 70, "duration": 70, "velocity": 109}, {"time": 90480, "pitch": 65, "duration": 82, "velocity": 109}, {"time": 90480, "pitch": 70, "duration": 82, "velocity": 109}, {"time": 90962, "pitch": 65, "duration": 69, "velocity": 109}, {"time": 90962, "pitch": 69, "duration": 69, "velocity": 109}, {"time": 91122, "pitch": 65, "duration": 86, "velocity": 109}, {"time": 91122, "pitch": 69, "duration": 86, "velocity": 109}, {"time": 91361, "pitch": 65, "duration": 69, "velocity": 109}, {"time": 91361, "pitch": 69, "duration": 69, "velocity": 109}, {"time": 91440, "pitch": 65, "duration": 81, "velocity": 109}, {"time": 91440, "pitch": 69, "duration": 81, "velocity": 109}, {"time": 91677, "pitch": 67, "duration": 86, "velocity": 109}, {"time": 91677, "pitch": 70, "duration": 86, "velocity": 109}, {"time": 91917, "pitch": 67, "duration": 79, "velocity": 109}, {"time": 91917, "pitch": 70, "duration": 79, "velocity": 109}, {"time": 92078, "pitch": 67, "duration": 86, "velocity": 109}, {"time": 92078, "pitch": 70, "duration": 86, "velocity": 109}, {"time": 92319, "pitch": 67, "duration": 70, "velocity": 109}, {"time": 92319, "pitch": 70, "duration": 70, "velocity": 109}, {"time": 92399, "pitch": 67, "duration": 82, "velocity": 109}, {"time": 92399, "pitch": 70, "duration": 82, "velocity": 109}, {"time": 92881, "pitch": 70, "duration": 231, "velocity": 119}, {"time": 93840, "pitch": 72, "duration": 228, "velocity": 119}, {"time": 95760, "pitch": 70, "duration": 158, "velocity": 125}, {"time": 95997, "pitch": 67, "duration": 120, "velocity": 121}, {"time": 96157, "pitch": 70, "duration": 81, "velocity": 120}, {"time": 96398, "pitch": 70, "duration": 80, "velocity": 127}, {"time": 98082, "pitch": 74, "duration": 38, "velocity": 99}, {"time": 98082, "pitch": 77, "duration": 41, "velocity": 109}, {"time": 98082, "pitch": 82, "duration": 41, "velocity": 109}, {"time": 98161, "pitch": 74, "duration": 147, "velocity": 91}, {"time": 98161, "pitch": 79, "duration": 155, "velocity": 117}, {"time": 98161, "pitch": 84, "duration": 155, "velocity": 117}, {"time": 98319, "pitch": 74, "duration": 37, "velocity": 101}, {"time": 98319, "pitch": 77, "duration": 37, "velocity": 112}, {"time": 98319, "pitch": 82, "duration": 37, "velocity": 112}, {"time": 100001, "pitch": 74, "duration": 38, "velocity": 99}, {"time": 100001, "pitch": 77, "duration": 41, "velocity": 109}, {"time": 100001, "pitch": 82, "duration": 41, "velocity": 109}, {"time": 100080, "pitch": 74, "duration": 147, "velocity": 91}, {"time": 100080, "pitch": 79, "duration": 155, "velocity": 117}, {"time": 100080, "pitch": 84, "duration": 155, "velocity": 117}, {"time": 100238, "pitch": 74, "duration": 37, "velocity": 101}, {"time": 100238, "pitch": 77, "duration": 37, "velocity": 112}, {"time": 100238, "pitch": 82, "duration": 37, "velocity": 112}, {"time": 101923, "pitch": 74, "duration": 39, "velocity": 99}, {"time": 101923, "pitch": 77, "duration": 42, "velocity": 109}, {"time": 101923, "pitch": 82, "duration": 42, "velocity": 109}, {"time": 102003, "pitch": 74, "duration": 150, "velocity": 91}, {"time": 102003, "pitch": 79, "duration": 158, "velocity": 117}, {"time": 102003, "pitch": 84, "duration": 158, "velocity": 117}, {"time": 102164, "pitch": 74, "duration": 38, "velocity": 101}, {"time": 102164, "pitch": 77, "duration": 38, "velocity": 112}, {"time": 102164, "pitch": 82, "duration": 38, "velocity": 112}, {"time": 104400, "pitch": 58, "duration": 227, "velocity": 99}, {"time": 104400, "pitch": 70, "duration": 227, "velocity": 99}, {"time": 106240, "pitch": 70, "duration": 232, "velocity": 119}, {"time": 106477, "pitch": 67, "duration": 40, "velocity": 123}, {"time": 106556, "pitch": 70, "duration": 121, "velocity": 116}, {"time": 106717, "pitch": 70, "duration": 45, "velocity": 122}, {"time": 106797, "pitch": 67, "duration": 151, "velocity": 114}, {"time": 106958, "pitch": 70, "duration": 60, "velocity": 113}, {"time": 110162, "pitch": 65, "duration": 160, "velocity": 116}, {"time": 110402, "pitch": 63, "duration": 119, "velocity": 119}, {"time": 110560, "pitch": 65, "duration": 79, "velocity": 125}, {"time": 110797, "pitch": 65, "duration": 114, "velocity": 121}, {"time": 112081, "pitch": 70, "duration": 231, "velocity": 123}, {"time": 113920, "pitch": 70, "duration": 236, "velocity": 114}, {"time": 114161, "pitch": 67, "duration": 40, "velocity": 115}, {"time": 114241, "pitch": 70, "duration": 120, "velocity": 122}, {"time": 114401, "pitch": 70, "duration": 46, "velocity": 127}, {"time": 114482, "pitch": 67, "duration": 150, "velocity": 118}, {"time": 114642, "pitch": 70, "duration": 61, "velocity": 119}, {"time": 117838, "pitch": 70, "duration": 161, "velocity": 125}, {"time": 118079, "pitch": 67, "duration": 121, "velocity": 121}, {"time": 118240, "pitch": 70, "duration": 80, "velocity": 120}, {"time": 118481, "pitch": 70, "duration": 115, "velocity": 127}, {"time": 119758, "pitch": 66, "duration": 202, "velocity": 114}, {"time": 119998, "pitch": 67, "duration": 205, "velocity": 114}, {"time": 120239, "pitch": 75, "duration": 198, "velocity": 114}, {"time": 120480, "pitch": 70, "duration": 737, "velocity": 115}, {"time": 121681, "pitch": 65, "duration": 199, "velocity": 114}, {"time": 121918, "pitch": 65, "duration": 204, "velocity": 114}, {"time": 122158, "pitch": 74, "duration": 198, "velocity": 114}, {"time": 122399, "pitch": 70, "duration": 737, "velocity": 115}, {"time": 125523, "pitch": 60, "duration": 203, "velocity": 114}, {"time": 125523, "pitch": 65, "duration": 203, "velocity": 114}, {"time": 125764, "pitch": 62, "duration": 201, "velocity": 114}, {"time": 125764, "pitch": 67, "duration": 201, "velocity": 114}, {"time": 126001, "pitch": 63, "duration": 194, "velocity": 114}, {"time": 126001, "pitch": 68, "duration": 194, "velocity": 114}, {"time": 126238, "pitch": 65, "duration": 255, "velocity": 115}, {"time": 126238, "pitch": 69, "duration": 255, "velocity": 115}, {"time": 127442, "pitch": 65, "duration": 69, "velocity": 109}, {"time": 127442, "pitch": 70, "duration": 69, "velocity": 109}, {"time": 127603, "pitch": 65, "duration": 86, "velocity": 109}, {"time": 127603, "pitch": 70, "duration": 86, "velocity": 109}, {"time": 127841, "pitch": 65, "duration": 69, "velocity": 109}, {"time": 127841, "pitch": 70, "duration": 69, "velocity": 109}, {"time": 127920, "pitch": 65, "duration": 81, "velocity": 109}, {"time": 127920, "pitch": 70, "duration": 81, "velocity": 109}, {"time": 128157, "pitch": 65, "duration": 86, "velocity": 109}, {"time": 128157, "pitch": 70, "duration": 86, "velocity": 109}, {"time": 128398, "pitch": 65, "duration": 78, "velocity": 109}, {"time": 128398, "pitch": 70, "duration": 78, "velocity": 109}, {"time": 128558, "pitch": 65, "duration": 87, "velocity": 109}, {"time": 128558, "pitch": 70, "duration": 87, "velocity": 109}, {"time": 128799, "pitch": 65, "duration": 71, "velocity": 109}, {"time": 128799, "pitch": 70, "duration": 71, "velocity": 109}, {"time": 128880, "pitch": 65, "duration": 82, "velocity": 109}, {"time": 128880, "pitch": 70, "duration": 82, "velocity": 109}, {"time": 129361, "pitch": 65, "duration": 70, "velocity": 109}, {"time": 129361, "pitch": 69, "duration": 70, "velocity": 109}, {"time": 129522, "pitch": 65, "duration": 86, "velocity": 109}, {"time": 129522, "pitch": 69, "duration": 86, "velocity": 109}, {"time": 129760, "pitch": 65, "duration": 69, "velocity": 109}, {"time": 129760, "pitch": 69, "duration": 69, "velocity": 109}, {"time": 129839, "pitch": 65, "duration": 81, "velocity": 109}, {"time": 129839, "pitch": 69, "duration": 81, "velocity": 109}, {"time": 130076, "pitch": 67, "duration": 86, "velocity": 109}, {"time": 130076, "pitch": 70, "duration": 86, "velocity": 109}, {"time": 130317, "pitch": 67, "duration": 78, "velocity": 109}, {"time": 130317, "pitch": 70, "duration": 78, "velocity": 109}, {"time": 130478, "pitch": 67, "duration": 86, "velocity": 109}, {"time": 130478, "pitch": 70, "duration": 86, "velocity": 109}, {"time": 130719, "pitch": 67, "duration": 70, "velocity": 109}, {"time": 130719, "pitch": 70, "duration": 70, "velocity": 109}, {"time": 130799, "pitch": 67, "duration": 82, "velocity": 109}, {"time": 130799, "pitch": 70, "duration": 82, "velocity": 109}, {"time": 131281, "pitch": 70, "duration": 230, "velocity": 119}, {"time": 132240, "pitch": 72, "duration": 227, "velocity": 119}, {"time": 134159, "pitch": 70, "duration": 158, "velocity": 125}, {"time": 134396, "pitch": 67, "duration": 121, "velocity": 121}, {"time": 134557, "pitch": 70, "duration": 80, "velocity": 120}, {"time": 134798, "pitch": 70, "duration": 80, "velocity": 127}, {"time": 135119, "pitch": 65, "duration": 69, "velocity": 109}, {"time": 135119, "pitch": 70, "duration": 69, "velocity": 109}, {"time": 135280, "pitch": 65, "duration": 86, "velocity": 109}, {"time": 135280, "pitch": 70, "duration": 86, "velocity": 109}, {"time": 135520, "pitch": 65, "duration": 71, "velocity": 109}, {"time": 135520, "pitch": 70, "duration": 71, "velocity": 109}, {"time": 135601, "pitch": 65, "duration": 82, "velocity": 109}, {"time": 135601, "pitch": 70, "duration": 82, "velocity": 109}, {"time": 135842, "pitch": 65, "duration": 86, "velocity": 109}, {"time": 135842, "pitch": 70, "duration": 86, "velocity": 109}, {"time": 136083, "pitch": 65, "duration": 78, "velocity": 109}, {"time": 136083, "pitch": 70, "duration": 78, "velocity": 109}, {"time": 136243, "pitch": 65, "duration": 86, "velocity": 109}, {"time": 136243, "pitch": 70, "duration": 86, "velocity": 109}, {"time": 136481, "pitch": 65, "duration": 69, "velocity": 109}, {"time": 136481, "pitch": 70, "duration": 69, "velocity": 109}, {"time": 136560, "pitch": 65, "duration": 81, "velocity": 109}, {"time": 136560, "pitch": 70, "duration": 81, "velocity": 109}, {"time": 137038, "pitch": 65, "duration": 69, "velocity": 109}, {"time": 137038, "pitch": 69, "duration": 69, "velocity": 109}, {"time": 137199, "pitch": 65, "duration": 86, "velocity": 109}, {"time": 137199, "pitch": 69, "duration": 86, "velocity": 109}, {"time": 137440, "pitch": 65, "duration": 70, "velocity": 109}, {"time": 137440, "pitch": 69, "duration": 70, "velocity": 109}, {"time": 137520, "pitch": 65, "duration": 82, "velocity": 109}, {"time": 137520, "pitch": 69, "duration": 82, "velocity": 109}, {"time": 137761, "pitch": 67, "duration": 86, "velocity": 109}, {"time": 137761, "pitch": 70, "duration": 86, "velocity": 109}, {"time": 138002, "pitch": 67, "duration": 78, "velocity": 109}, {"time": 138002, "pitch": 70, "duration": 78, "velocity": 109}, {"time": 138162, "pitch": 67, "duration": 86, "velocity": 109}, {"time": 138162, "pitch": 70, "duration": 86, "velocity": 109}, {"time": 138401, "pitch": 67, "duration": 69, "velocity": 109}, {"time": 138401, "pitch": 70, "duration": 69, "velocity": 109}, {"time": 138480, "pitch": 67, "duration": 81, "velocity": 109}, {"time": 138480, "pitch": 70, "duration": 81, "velocity": 109}, {"time": 138957, "pitch": 70, "duration": 231, "velocity": 119}, {"time": 139921, "pitch": 72, "duration": 231, "velocity": 119}, {"time": 141840, "pitch": 70, "duration": 161, "velocity": 125}, {"time": 142081, "pitch": 67, "duration": 120, "velocity": 121}, {"time": 142242, "pitch": 70, "duration": 80, "velocity": 120}, {"time": 142482, "pitch": 70, "duration": 81, "velocity": 127}, {"time": 142563, "pitch": 82, "duration": 34, "velocity": 127}, {"time": 148320, "pitch": 66, "duration": 943, "velocity": 119}, {"time": 148320, "pitch": 70, "duration": 943, "velocity": 119}, {"time": 149284, "pitch": 68, "duration": 952, "velocity": 119}, {"time": 149284, "pitch": 72, "duration": 952, "velocity": 119}, {"time": 155997, "pitch": 66, "duration": 943, "velocity": 119}, {"time": 155997, "pitch": 70, "duration": 943, "velocity": 119}, {"time": 156961, "pitch": 68, "duration": 959, "velocity": 119}, {"time": 156961, "pitch": 72, "duration": 959, "velocity": 119}, {"time": 157924, "pitch": 70, "duration": 3835, "velocity": 119}, {"time": 157924, "pitch": 74, "duration": 3835, "velocity": 99}, {"time": 480, "pitch": 42, "duration": 29, "velocity": 80}, {"time": 720, "pitch": 44, "duration": 30, "velocity": 90}, {"time": 961, "pitch": 42, "duration": 30, "velocity": 84}, {"time": 1202, "pitch": 44, "duration": 30, "velocity": 90}, {"time": 1443, "pitch": 42, "duration": 29, "velocity": 80}, {"time": 1680, "pitch": 44, "duration": 29, "velocity": 90}, {"time": 1917, "pitch": 42, "duration": 30, "velocity": 80}, {"time": 2158, "pitch": 44, "duration": 30, "velocity": 90}, {"time": 2318, "pitch": 35, "duration": 30, "velocity": 72}, {"time": 2398, "pitch": 35, "duration": 31, "velocity": 92}, {"time": 2398, "pitch": 46, "duration": 31, "velocity": 90}, {"time": 2639, "pitch": 44, "duration": 30, "velocity": 90}, {"time": 2880, "pitch": 42, "duration": 30, "velocity": 80}, {"time": 3121, "pitch": 44, "duration": 30, "velocity": 90}, {"time": 3278, "pitch": 35, "duration": 30, "velocity": 90}, {"time": 3362, "pitch": 38, "duration": 30, "velocity": 127}, {"time": 3362, "pitch": 42, "duration": 30, "velocity": 84}, {"time": 3521, "pitch": 35, "duration": 30, "velocity": 90}, {"time": 3602, "pitch": 44, "duration": 30, "velocity": 90}, {"time": 3605, "pitch": 38, "duration": 30, "velocity": 127}, {"time": 3760, "pitch": 35, "duration": 30, "velocity": 92}, {"time": 3844, "pitch": 42, "duration": 29, "velocity": 90}, {"time": 3845, "pitch": 35, "duration": 29, "velocity": 92}, {"time": 4001, "pitch": 38, "duration": 29, "velocity": 127}, {"time": 4003, "pitch": 35, "duration": 29, "velocity": 92}, {"time": 4080, "pitch": 38, "duration": 29, "velocity": 127}, {"time": 4081, "pitch": 46, "duration": 29, "velocity": 100}, {"time": 4239, "pitch": 38, "duration": 29, "velocity": 125}, {"time": 4318, "pitch": 35, "duration": 10, "velocity": 109}, {"time": 4318, "pitch": 41, "duration": 10, "velocity": 97}, {"time": 4318, "pitch": 45, "duration": 10, "velocity": 77}, {"time": 4558, "pitch": 35, "duration": 11, "velocity": 91}, {"time": 4558, "pitch": 41, "duration": 11, "velocity": 85}, {"time": 4558, "pitch": 45, "duration": 11, "velocity": 64}, {"time": 4799, "pitch": 35, "duration": 10, "velocity": 92}, {"time": 4799, "pitch": 41, "duration": 10, "velocity": 97}, {"time": 4799, "pitch": 45, "duration": 10, "velocity": 85}, {"time": 5201, "pitch": 35, "duration": 10, "velocity": 104}, {"time": 5201, "pitch": 41, "duration": 10, "velocity": 80}, {"time": 5201, "pitch": 45, "duration": 10, "velocity": 65}, {"time": 5281, "pitch": 45, "duration": 10, "velocity": 95}, {"time": 5442, "pitch": 35, "duration": 10, "velocity": 94}, {"time": 5442, "pitch": 41, "duration": 10, "velocity": 97}, {"time": 5442, "pitch": 45, "duration": 10, "velocity": 65}, {"time": 5683, "pitch": 35, "duration": 10, "velocity": 98}, {"time": 5683, "pitch": 41, "duration": 10, "velocity": 78}, {"time": 5683, "pitch": 45, "duration": 10, "velocity": 77}, {"time": 5763, "pitch": 35, "duration": 10, "velocity": 107}, {"time": 5763, "pitch": 41, "duration": 10, "velocity": 93}, {"time": 5763, "pitch": 45, "duration": 10, "velocity": 94}, {"time": 6000, "pitch": 38, "duration": 10, "velocity": 120}, {"time": 6000, "pitch": 40, "duration": 10, "velocity": 124}, {"time": 6237, "pitch": 35, "duration": 10, "velocity": 109}, {"time": 6237, "pitch": 41, "duration": 10, "velocity": 100}, {"time": 6237, "pitch": 45, "duration": 10, "velocity": 82}, {"time": 6478, "pitch": 35, "duration": 10, "velocity": 89}, {"time": 6478, "pitch": 41, "duration": 10, "velocity": 80}, {"time": 6478, "pitch": 45, "duration": 10, "velocity": 66}, {"time": 6719, "pitch": 35, "duration": 10, "velocity": 89}, {"time": 6719, "pitch": 41, "duration": 10, "velocity": 97}, {"time": 6719, "pitch": 45, "duration": 10, "velocity": 85}, {"time": 7120, "pitch": 35, "duration": 10, "velocity": 108}, {"time": 7120, "pitch": 41, "duration": 10, "velocity": 81}, {"time": 7120, "pitch": 45, "duration": 10, "velocity": 64}, {"time": 7200, "pitch": 45, "duration": 10, "velocity": 94}, {"time": 7361, "pitch": 35, "duration": 10, "velocity": 90}, {"time": 7361, "pitch": 41, "duration": 10, "velocity": 93}, {"time": 7361, "pitch": 45, "duration": 10, "velocity": 68}, {"time": 7602, "pitch": 35, "duration": 10, "velocity": 97}, {"time": 7602, "pitch": 41, "duration": 10, "velocity": 82}, {"time": 7602, "pitch": 45, "duration": 10, "velocity": 79}, {"time": 7682, "pitch": 35, "duration": 10, "velocity": 112}, {"time": 7682, "pitch": 41, "duration": 10, "velocity": 91}, {"time": 7682, "pitch": 45, "duration": 10, "velocity": 95}, {"time": 7923, "pitch": 38, "duration": 10, "velocity": 123}, {"time": 7923, "pitch": 40, "duration": 10, "velocity": 123}, {"time": 8164, "pitch": 35, "duration": 10, "velocity": 105}, {"time": 8164, "pitch": 41, "duration": 10, "velocity": 100}, {"time": 8164, "pitch": 45, "duration": 10, "velocity": 86}, {"time": 8401, "pitch": 35, "duration": 10, "velocity": 91}, {"time": 8401, "pitch": 41, "duration": 10, "velocity": 81}, {"time": 8401, "pitch": 45, "duration": 10, "velocity": 67}, {"time": 8638, "pitch": 35, "duration": 10, "velocity": 98}, {"time": 8638, "pitch": 41, "duration": 10, "velocity": 95}, {"time": 8638, "pitch": 45, "duration": 10, "velocity": 79}, {"time": 9039, "pitch": 35, "duration": 10, "velocity": 108}, {"time": 9039, "pitch": 41, "duration": 10, "velocity": 77}, {"time": 9039, "pitch": 45, "duration": 10, "velocity": 65}, {"time": 9120, "pitch": 45, "duration": 10, "velocity": 95}, {"time": 9280, "pitch": 35, "duration": 10, "velocity": 95}, {"time": 9280, "pitch": 41, "duration": 10, "velocity": 97}, {"time": 9280, "pitch": 45, "duration": 10, "velocity": 72}, {"time": 9521, "pitch": 35, "duration": 10, "velocity": 93}, {"time": 9521, "pitch": 41, "duration": 10, "velocity": 85}, {"time": 9521, "pitch": 45, "duration": 10, "velocity": 80}, {"time": 9601, "pitch": 35, "duration": 10, "velocity": 104}, {"time": 9601, "pitch": 41, "duration": 10, "velocity": 95}, {"time": 9601, "pitch": 45, "duration": 10, "velocity": 92}, {"time": 9842, "pitch": 38, "duration": 10, "velocity": 127}, {"time": 9842, "pitch": 40, "duration": 10, "velocity": 122}, {"time": 10083, "pitch": 35, "duration": 10, "velocity": 108}, {"time": 10083, "pitch": 41, "duration": 10, "velocity": 94}, {"time": 10083, "pitch": 45, "duration": 10, "velocity": 81}, {"time": 10320, "pitch": 35, "duration": 10, "velocity": 93}, {"time": 10320, "pitch": 41, "duration": 10, "velocity": 81}, {"time": 10320, "pitch": 45, "duration": 10, "velocity": 72}, {"time": 10557, "pitch": 35, "duration": 10, "velocity": 90}, {"time": 10557, "pitch": 41, "duration": 10, "velocity": 94}, {"time": 10557, "pitch": 45, "duration": 10, "velocity": 83}, {"time": 10958, "pitch": 35, "duration": 10, "velocity": 105}, {"time": 10958, "pitch": 38, "duration": 10, "velocity": 107}, {"time": 10958, "pitch": 40, "duration": 10, "velocity": 92}, {"time": 10958, "pitch": 45, "duration": 10, "velocity": 81}, {"time": 11199, "pitch": 38, "duration": 10, "velocity": 113}, {"time": 11199, "pitch": 40, "duration": 10, "velocity": 99}, {"time": 11280, "pitch": 38, "duration": 10, "velocity": 121}, {"time": 11280, "pitch": 40, "duration": 10, "velocity": 123}, {"time": 12002, "pitch": 42, "duration": 30, "velocity": 84}, {"time": 12002, "pitch": 49, "duration": 10, "velocity": 90}, {"time": 12160, "pitch": 35, "duration": 30, "velocity": 103}, {"time": 12239, "pitch": 26, "duration": 30, "velocity": 127}, {"time": 12239, "pitch": 38, "duration": 30, "velocity": 127}, {"time": 12239, "pitch": 42, "duration": 30, "velocity": 90}, {"time": 12397, "pitch": 35, "duration": 30, "velocity": 103}, {"time": 12476, "pitch": 35, "duration": 30, "velocity": 103}, {"time": 12476, "pitch": 42, "duration": 30, "velocity": 84}, {"time": 12717, "pitch": 26, "duration": 30, "velocity": 127}, {"time": 12717, "pitch": 38, "duration": 30, "velocity": 127}, {"time": 12717, "pitch": 42, "duration": 30, "velocity": 90}, {"time": 12958, "pitch": 35, "duration": 30, "velocity": 103}, {"time": 12958, "pitch": 42, "duration": 30, "velocity": 84}, {"time": 13199, "pitch": 26, "duration": 30, "velocity": 127}, {"time": 13199, "pitch": 38, "duration": 30, "velocity": 127}, {"time": 13199, "pitch": 42, "duration": 30, "velocity": 90}, {"time": 13681, "pitch": 26, "duration": 30, "velocity": 127}, {"time": 13681, "pitch": 38, "duration": 30, "velocity": 127}, {"time": 13681, "pitch": 42, "duration": 30, "velocity": 100}, {"time": 13841, "pitch": 35, "duration": 30, "velocity": 103}, {"time": 13921, "pitch": 42, "duration": 31, "velocity": 84}, {"time": 14082, "pitch": 35, "duration": 30, "velocity": 103}, {"time": 14162, "pitch": 26, "duration": 30, "velocity": 127}, {"time": 14162, "pitch": 38, "duration": 30, "velocity": 127}, {"time": 14162, "pitch": 42, "duration": 30, "velocity": 90}, {"time": 14323, "pitch": 35, "duration": 30, "velocity": 103}, {"time": 14403, "pitch": 35, "duration": 30, "velocity": 103}, {"time": 14403, "pitch": 42, "duration": 30, "velocity": 84}, {"time": 14640, "pitch": 26, "duration": 30, "velocity": 127}, {"time": 14640, "pitch": 38, "duration": 30, "velocity": 127}, {"time": 14640, "pitch": 42, "duration": 30, "velocity": 90}, {"time": 14877, "pitch": 35, "duration": 30, "velocity": 103}, {"time": 14877, "pitch": 42, "duration": 30, "velocity": 84}, {"time": 15118, "pitch": 26, "duration": 30, "velocity": 127}, {"time": 15118, "pitch": 38, "duration": 30, "velocity": 127}, {"time": 15118, "pitch": 42, "duration": 30, "velocity": 90}, {"time": 15600, "pitch": 26, "duration": 30, "velocity": 127}, {"time": 15600, "pitch": 38, "duration": 30, "velocity": 127}, {"time": 15600, "pitch": 42, "duration": 30, "velocity": 100}, {"time": 15760, "pitch": 35, "duration": 30, "velocity": 103}, {"time": 15841, "pitch": 42, "duration": 30, "velocity": 84}, {"time": 16001, "pitch": 35, "duration": 30, "velocity": 103}, {"time": 16082, "pitch": 26, "duration": 30, "velocity": 127}, {"time": 16082, "pitch": 38, "duration": 30, "velocity": 127}, {"time": 16082, "pitch": 42, "duration": 30, "velocity": 90}, {"time": 16242, "pitch": 35, "duration": 30, "velocity": 103}, {"time": 16322, "pitch": 35, "duration": 30, "velocity": 103}, {"time": 16322, "pitch": 42, "duration": 30, "velocity": 84}, {"time": 16559, "pitch": 26, "duration": 30, "velocity": 127}, {"time": 16559, "pitch": 38, "duration": 30, "velocity": 127}, {"time": 16559, "pitch": 42, "duration": 30, "velocity": 90}, {"time": 16796, "pitch": 35, "duration": 30, "velocity": 103}, {"time": 16796, "pitch": 42, "duration": 30, "velocity": 84}, {"time": 17037, "pitch": 26, "duration": 30, "velocity": 127}, {"time": 17037, "pitch": 38, "duration": 30, "velocity": 127}, {"time": 17037, "pitch": 42, "duration": 30, "velocity": 90}, {"time": 17519, "pitch": 26, "duration": 30, "velocity": 127}, {"time": 17519, "pitch": 38, "duration": 30, "velocity": 127}, {"time": 17519, "pitch": 42, "duration": 30, "velocity": 100}, {"time": 17680, "pitch": 35, "duration": 30, "velocity": 103}, {"time": 17760, "pitch": 42, "duration": 30, "velocity": 84}, {"time": 17920, "pitch": 35, "duration": 31, "velocity": 103}, {"time": 18001, "pitch": 26, "duration": 30, "velocity": 127}, {"time": 18001, "pitch": 38, "duration": 30, "velocity": 127}, {"time": 18001, "pitch": 42, "duration": 30, "velocity": 90}, {"time": 18161, "pitch": 35, "duration": 30, "velocity": 103}, {"time": 18242, "pitch": 35, "duration": 30, "velocity": 103}, {"time": 18242, "pitch": 42, "duration": 30, "velocity": 84}, {"time": 18482, "pitch": 26, "duration": 31, "velocity": 127}, {"time": 18482, "pitch": 38, "duration": 31, "velocity": 127}, {"time": 18482, "pitch": 42, "duration": 31, "velocity": 90}, {"time": 18723, "pitch": 35, "duration": 30, "velocity": 103}, {"time": 18723, "pitch": 42, "duration": 30, "velocity": 84}, {"time": 18960, "pitch": 26, "duration": 30, "velocity": 127}, {"time": 18960, "pitch": 38, "duration": 30, "velocity": 127}, {"time": 18960, "pitch": 42, "duration": 30, "velocity": 90}, {"time": 19438, "pitch": 26, "duration": 30, "velocity": 127}, {"time": 19438, "pitch": 38, "duration": 30, "velocity": 127}, {"time": 19438, "pitch": 42, "duration": 30, "velocity": 100}, {"time": 19599, "pitch": 35, "duration": 30, "velocity": 103}, {"time": 19679, "pitch": 42, "duration": 30, "velocity": 84}, {"time": 19840, "pitch": 35, "duration": 30, "velocity": 103}, {"time": 19920, "pitch": 26, "duration": 30, "velocity": 127}, {"time": 19920, "pitch": 38, "duration": 30, "velocity": 127}, {"time": 19920, "pitch": 42, "duration": 30, "velocity": 90}, {"time": 20081, "pitch": 35, "duration": 30, "velocity": 103}, {"time": 20161, "pitch": 35, "duration": 30, "velocity": 103}, {"time": 20161, "pitch": 42, "duration": 30, "velocity": 84}, {"time": 20402, "pitch": 26, "duration": 30, "velocity": 127}, {"time": 20402, "pitch": 38, "duration": 30, "velocity": 127}, {"time": 20402, "pitch": 42, "duration": 30, "velocity": 90}, {"time": 20643, "pitch": 35, "duration": 29, "velocity": 103}, {"time": 20643, "pitch": 42, "duration": 29, "velocity": 84}, {"time": 20880, "pitch": 26, "duration": 29, "velocity": 127}, {"time": 20880, "pitch": 38, "duration": 29, "velocity": 127}, {"time": 20880, "pitch": 42, "duration": 29, "velocity": 90}, {"time": 21357, "pitch": 26, "duration": 30, "velocity": 127}, {"time": 21357, "pitch": 38, "duration": 30, "velocity": 127}, {"time": 21357, "pitch": 42, "duration": 30, "velocity": 100}, {"time": 21518, "pitch": 35, "duration": 30, "velocity": 103}, {"time": 21598, "pitch": 42, "duration": 30, "velocity": 84}, {"time": 21759, "pitch": 35, "duration": 30, "velocity": 103}, {"time": 21839, "pitch": 26, "duration": 30, "velocity": 127}, {"time": 21839, "pitch": 38, "duration": 30, "velocity": 127}, {"time": 21839, "pitch": 42, "duration": 30, "velocity": 90}, {"time": 22000, "pitch": 35, "duration": 30, "velocity": 103}, {"time": 22080, "pitch": 35, "duration": 30, "velocity": 103}, {"time": 22080, "pitch": 42, "duration": 30, "velocity": 84}, {"time": 22321, "pitch": 26, "duration": 30, "velocity": 127}, {"time": 22321, "pitch": 38, "duration": 30, "velocity": 127}, {"time": 22321, "pitch": 42, "duration": 30, "velocity": 90}, {"time": 22562, "pitch": 35, "duration": 30, "velocity": 103}, {"time": 22562, "pitch": 42, "duration": 30, "velocity": 84}, {"time": 22803, "pitch": 26, "duration": 30, "velocity": 127}, {"time": 22803, "pitch": 38, "duration": 30, "velocity": 127}, {"time": 22803, "pitch": 42, "duration": 30, "velocity": 90}, {"time": 23280, "pitch": 26, "duration": 30, "velocity": 127}, {"time": 23280, "pitch": 38, "duration": 30, "velocity": 127}, {"time": 23280, "pitch": 42, "duration": 30, "velocity": 100}, {"time": 23438, "pitch": 35, "duration": 30, "velocity": 103}, {"time": 23517, "pitch": 42, "duration": 31, "velocity": 84}, {"time": 23678, "pitch": 35, "duration": 30, "velocity": 103}, {"time": 23758, "pitch": 26, "duration": 30, "velocity": 127}, {"time": 23758, "pitch": 38, "duration": 30, "velocity": 127}, {"time": 23758, "pitch": 42, "duration": 30, "velocity": 90}, {"time": 23919, "pitch": 35, "duration": 30, "velocity": 103}, {"time": 23999, "pitch": 35, "duration": 30, "velocity": 103}, {"time": 23999, "pitch": 42, "duration": 30, "velocity": 84}, {"time": 24240, "pitch": 26, "duration": 30, "velocity": 127}, {"time": 24240, "pitch": 38, "duration": 30, "velocity": 127}, {"time": 24240, "pitch": 42, "duration": 30, "velocity": 90}, {"time": 24481, "pitch": 35, "duration": 30, "velocity": 103}, {"time": 24481, "pitch": 42, "duration": 30, "velocity": 84}, {"time": 24722, "pitch": 26, "duration": 30, "velocity": 127}, {"time": 24722, "pitch": 38, "duration": 30, "velocity": 127}, {"time": 24722, "pitch": 42, "duration": 30, "velocity": 90}, {"time": 25200, "pitch": 26, "duration": 29, "velocity": 127}, {"time": 25200, "pitch": 38, "duration": 29, "velocity": 127}, {"time": 25200, "pitch": 42, "duration": 29, "velocity": 100}, {"time": 25358, "pitch": 35, "duration": 29, "velocity": 103}, {"time": 25437, "pitch": 42, "duration": 30, "velocity": 84}, {"time": 25597, "pitch": 35, "duration": 30, "velocity": 103}, {"time": 25678, "pitch": 26, "duration": 30, "velocity": 127}, {"time": 25678, "pitch": 38, "duration": 30, "velocity": 127}, {"time": 25678, "pitch": 42, "duration": 30, "velocity": 90}, {"time": 25838, "pitch": 35, "duration": 30, "velocity": 103}, {"time": 25918, "pitch": 35, "duration": 31, "velocity": 103}, {"time": 25918, "pitch": 42, "duration": 31, "velocity": 84}, {"time": 26159, "pitch": 26, "duration": 30, "velocity": 127}, {"time": 26159, "pitch": 38, "duration": 30, "velocity": 127}, {"time": 26159, "pitch": 42, "duration": 30, "velocity": 90}, {"time": 26400, "pitch": 35, "duration": 30, "velocity": 103}, {"time": 26400, "pitch": 42, "duration": 30, "velocity": 84}, {"time": 26641, "pitch": 26, "duration": 30, "velocity": 127}, {"time": 26641, "pitch": 38, "duration": 30, "velocity": 127}, {"time": 26641, "pitch": 42, "duration": 30, "velocity": 90}, {"time": 26882, "pitch": 35, "duration": 10, "velocity": 109}, {"time": 26882, "pitch": 42, "duration": 10, "velocity": 111}, {"time": 27043, "pitch": 40, "duration": 10, "velocity": 109}, {"time": 27123, "pitch": 40, "duration": 10, "velocity": 114}, {"time": 27364, "pitch": 35, "duration": 10, "velocity": 115}, {"time": 27364, "pitch": 49, "duration": 10, "velocity": 90}, {"time": 27601, "pitch": 40, "duration": 10, "velocity": 106}, {"time": 27601, "pitch": 46, "duration": 10, "velocity": 79}, {"time": 27838, "pitch": 35, "duration": 10, "velocity": 101}, {"time": 27838, "pitch": 46, "duration": 10, "velocity": 77}, {"time": 28078, "pitch": 40, "duration": 11, "velocity": 108}, {"time": 28078, "pitch": 46, "duration": 11, "velocity": 58}, {"time": 28319, "pitch": 35, "duration": 10, "velocity": 112}, {"time": 28319, "pitch": 46, "duration": 10, "velocity": 91}, {"time": 28560, "pitch": 40, "duration": 10, "velocity": 112}, {"time": 28560, "pitch": 46, "duration": 10, "velocity": 72}, {"time": 28721, "pitch": 35, "duration": 10, "velocity": 110}, {"time": 28801, "pitch": 46, "duration": 10, "velocity": 73}, {"time": 28962, "pitch": 35, "duration": 10, "velocity": 102}, {"time": 29042, "pitch": 40, "duration": 10, "velocity": 111}, {"time": 29042, "pitch": 46, "duration": 10, "velocity": 58}, {"time": 29283, "pitch": 35, "duration": 10, "velocity": 113}, {"time": 29283, "pitch": 46, "duration": 10, "velocity": 90}, {"time": 29520, "pitch": 40, "duration": 10, "velocity": 110}, {"time": 29520, "pitch": 46, "duration": 10, "velocity": 79}, {"time": 29757, "pitch": 35, "duration": 10, "velocity": 96}, {"time": 29757, "pitch": 46, "duration": 10, "velocity": 80}, {"time": 29998, "pitch": 40, "duration": 10, "velocity": 110}, {"time": 29998, "pitch": 46, "duration": 10, "velocity": 64}, {"time": 30239, "pitch": 35, "duration": 10, "velocity": 112}, {"time": 30239, "pitch": 46, "duration": 10, "velocity": 89}, {"time": 30479, "pitch": 40, "duration": 10, "velocity": 114}, {"time": 30479, "pitch": 46, "duration": 10, "velocity": 72}, {"time": 30640, "pitch": 35, "duration": 10, "velocity": 116}, {"time": 30720, "pitch": 46, "duration": 10, "velocity": 80}, {"time": 30881, "pitch": 35, "duration": 10, "velocity": 94}, {"time": 30961, "pitch": 40, "duration": 10, "velocity": 109}, {"time": 30961, "pitch": 46, "duration": 10, "velocity": 59}, {"time": 31202, "pitch": 35, "duration": 10, "velocity": 110}, {"time": 31202, "pitch": 46, "duration": 10, "velocity": 89}, {"time": 31443, "pitch": 40, "duration": 10, "velocity": 107}, {"time": 31443, "pitch": 46, "duration": 10, "velocity": 81}, {"time": 31684, "pitch": 35, "duration": 10, "velocity": 101}, {"time": 31684, "pitch": 46, "duration": 10, "velocity": 73}, {"time": 31921, "pitch": 40, "duration": 10, "velocity": 107}, {"time": 31921, "pitch": 46, "duration": 10, "velocity": 66}, {"time": 32158, "pitch": 35, "duration": 10, "velocity": 110}, {"time": 32158, "pitch": 46, "duration": 10, "velocity": 90}, {"time": 32399, "pitch": 40, "duration": 10, "velocity": 115}, {"time": 32399, "pitch": 46, "duration": 10, "velocity": 76}, {"time": 32559, "pitch": 35, "duration": 10, "velocity": 112}, {"time": 32640, "pitch": 46, "duration": 10, "velocity": 78}, {"time": 32800, "pitch": 35, "duration": 10, "velocity": 94}, {"time": 32880, "pitch": 40, "duration": 10, "velocity": 108}, {"time": 32880, "pitch": 46, "duration": 10, "velocity": 66}, {"time": 33121, "pitch": 35, "duration": 10, "velocity": 108}, {"time": 33121, "pitch": 46, "duration": 10, "velocity": 95}, {"time": 33362, "pitch": 40, "duration": 10, "velocity": 113}, {"time": 33362, "pitch": 46, "duration": 10, "velocity": 81}, {"time": 33603, "pitch": 35, "duration": 10, "velocity": 103}, {"time": 33603, "pitch": 46, "duration": 10, "velocity": 73}, {"time": 33840, "pitch": 40, "duration": 10, "velocity": 108}, {"time": 33840, "pitch": 46, "duration": 10, "velocity": 59}, {"time": 33998, "pitch": 35, "duration": 10, "velocity": 110}, {"time": 33998, "pitch": 40, "duration": 10, "velocity": 92}, {"time": 33998, "pitch": 45, "duration": 10, "velocity": 86}, {"time": 34238, "pitch": 40, "duration": 10, "velocity": 99}, {"time": 34318, "pitch": 40, "duration": 10, "velocity": 123}, {"time": 35040, "pitch": 35, "duration": 11, "velocity": 114}, {"time": 35040, "pitch": 46, "duration": 11, "velocity": 94}, {"time": 35040, "pitch": 49, "duration": 11, "velocity": 90}, {"time": 35281, "pitch": 40, "duration": 10, "velocity": 113}, {"time": 35281, "pitch": 46, "duration": 10, "velocity": 72}, {"time": 35522, "pitch": 35, "duration": 10, "velocity": 100}, {"time": 35522, "pitch": 46, "duration": 10, "velocity": 79}, {"time": 35759, "pitch": 40, "duration": 10, "velocity": 107}, {"time": 35759, "pitch": 46, "duration": 10, "velocity": 61}, {"time": 35996, "pitch": 35, "duration": 10, "velocity": 111}, {"time": 35996, "pitch": 46, "duration": 10, "velocity": 86}, {"time": 36237, "pitch": 40, "duration": 10, "velocity": 106}, {"time": 36237, "pitch": 46, "duration": 10, "velocity": 80}, {"time": 36398, "pitch": 35, "duration": 10, "velocity": 108}, {"time": 36478, "pitch": 46, "duration": 10, "velocity": 81}, {"time": 36639, "pitch": 35, "duration": 10, "velocity": 98}, {"time": 36719, "pitch": 40, "duration": 10, "velocity": 115}, {"time": 36719, "pitch": 46, "duration": 10, "velocity": 64}, {"time": 36960, "pitch": 35, "duration": 10, "velocity": 116}, {"time": 36960, "pitch": 46, "duration": 10, "velocity": 92}, {"time": 37201, "pitch": 40, "duration": 10, "velocity": 113}, {"time": 37201, "pitch": 46, "duration": 10, "velocity": 81}, {"time": 37441, "pitch": 35, "duration": 10, "velocity": 103}, {"time": 37441, "pitch": 46, "duration": 10, "velocity": 76}, {"time": 37682, "pitch": 40, "duration": 10, "velocity": 112}, {"time": 37682, "pitch": 46, "duration": 10, "velocity": 61}, {"time": 37923, "pitch": 35, "duration": 10, "velocity": 115}, {"time": 37923, "pitch": 46, "duration": 10, "velocity": 87}, {"time": 38160, "pitch": 40, "duration": 10, "velocity": 112}, {"time": 38160, "pitch": 46, "duration": 10, "velocity": 78}, {"time": 38318, "pitch": 35, "duration": 10, "velocity": 116}, {"time": 38397, "pitch": 46, "duration": 10, "velocity": 73}, {"time": 38558, "pitch": 35, "duration": 10, "velocity": 97}, {"time": 38638, "pitch": 40, "duration": 10, "velocity": 114}, {"time": 38638, "pitch": 46, "duration": 10, "velocity": 60}, {"time": 38879, "pitch": 35, "duration": 10, "velocity": 117}, {"time": 38879, "pitch": 46, "duration": 10, "velocity": 86}, {"time": 38879, "pitch": 49, "duration": 10, "velocity": 90}, {"time": 39120, "pitch": 40, "duration": 10, "velocity": 111}, {"time": 39120, "pitch": 46, "duration": 10, "velocity": 80}, {"time": 39361, "pitch": 35, "duration": 10, "velocity": 94}, {"time": 39361, "pitch": 46, "duration": 10, "velocity": 78}, {"time": 39602, "pitch": 40, "duration": 10, "velocity": 107}, {"time": 39602, "pitch": 46, "duration": 10, "velocity": 66}, {"time": 39842, "pitch": 35, "duration": 10, "velocity": 111}, {"time": 39842, "pitch": 46, "duration": 10, "velocity": 95}, {"time": 40079, "pitch": 40, "duration": 10, "velocity": 114}, {"time": 40079, "pitch": 46, "duration": 10, "velocity": 77}, {"time": 40237, "pitch": 35, "duration": 10, "velocity": 117}, {"time": 40316, "pitch": 46, "duration": 10, "velocity": 76}, {"time": 40477, "pitch": 35, "duration": 10, "velocity": 95}, {"time": 40557, "pitch": 40, "duration": 10, "velocity": 108}, {"time": 40557, "pitch": 46, "duration": 10, "velocity": 58}, {"time": 40798, "pitch": 35, "duration": 10, "velocity": 109}, {"time": 40798, "pitch": 46, "duration": 10, "velocity": 88}, {"time": 41039, "pitch": 40, "duration": 10, "velocity": 110}, {"time": 41039, "pitch": 46, "duration": 10, "velocity": 74}, {"time": 41280, "pitch": 35, "duration": 10, "velocity": 96}, {"time": 41280, "pitch": 46, "duration": 10, "velocity": 74}, {"time": 41521, "pitch": 40, "duration": 10, "velocity": 110}, {"time": 41521, "pitch": 46, "duration": 10, "velocity": 63}, {"time": 41762, "pitch": 35, "duration": 10, "velocity": 108}, {"time": 41762, "pitch": 46, "duration": 10, "velocity": 86}, {"time": 42002, "pitch": 40, "duration": 11, "velocity": 110}, {"time": 42002, "pitch": 46, "duration": 11, "velocity": 78}, {"time": 42163, "pitch": 35, "duration": 10, "velocity": 112}, {"time": 42243, "pitch": 46, "duration": 10, "velocity": 77}, {"time": 42401, "pitch": 35, "duration": 10, "velocity": 94}, {"time": 42401, "pitch": 40, "duration": 10, "velocity": 112}, {"time": 42480, "pitch": 40, "duration": 10, "velocity": 112}, {"time": 42717, "pitch": 35, "duration": 10, "velocity": 114}, {"time": 42717, "pitch": 46, "duration": 10, "velocity": 94}, {"time": 42717, "pitch": 49, "duration": 10, "velocity": 90}, {"time": 42958, "pitch": 40, "duration": 10, "velocity": 113}, {"time": 42958, "pitch": 46, "duration": 10, "velocity": 72}, {"time": 43199, "pitch": 35, "duration": 10, "velocity": 100}, {"time": 43199, "pitch": 46, "duration": 10, "velocity": 79}, {"time": 43440, "pitch": 40, "duration": 10, "velocity": 107}, {"time": 43440, "pitch": 46, "duration": 10, "velocity": 61}, {"time": 43681, "pitch": 35, "duration": 10, "velocity": 111}, {"time": 43681, "pitch": 46, "duration": 10, "velocity": 86}, {"time": 43922, "pitch": 40, "duration": 10, "velocity": 106}, {"time": 43922, "pitch": 46, "duration": 10, "velocity": 80}, {"time": 44082, "pitch": 35, "duration": 10, "velocity": 108}, {"time": 44163, "pitch": 46, "duration": 9, "velocity": 81}, {"time": 44321, "pitch": 35, "duration": 9, "velocity": 98}, {"time": 44400, "pitch": 40, "duration": 9, "velocity": 115}, {"time": 44400, "pitch": 46, "duration": 9, "velocity": 64}, {"time": 44637, "pitch": 35, "duration": 10, "velocity": 116}, {"time": 44637, "pitch": 46, "duration": 10, "velocity": 92}, {"time": 44877, "pitch": 40, "duration": 10, "velocity": 113}, {"time": 44877, "pitch": 46, "duration": 10, "velocity": 81}, {"time": 45118, "pitch": 35, "duration": 10, "velocity": 103}, {"time": 45118, "pitch": 46, "duration": 10, "velocity": 76}, {"time": 45359, "pitch": 40, "duration": 10, "velocity": 112}, {"time": 45359, "pitch": 46, "duration": 10, "velocity": 61}, {"time": 45600, "pitch": 35, "duration": 10, "velocity": 115}, {"time": 45600, "pitch": 46, "duration": 10, "velocity": 87}, {"time": 45841, "pitch": 40, "duration": 10, "velocity": 112}, {"time": 45841, "pitch": 46, "duration": 10, "velocity": 78}, {"time": 46001, "pitch": 35, "duration": 11, "velocity": 116}, {"time": 46082, "pitch": 46, "duration": 10, "velocity": 73}, {"time": 46242, "pitch": 35, "duration": 10, "velocity": 97}, {"time": 46323, "pitch": 40, "duration": 10, "velocity": 114}, {"time": 46323, "pitch": 46, "duration": 10, "velocity": 60}, {"time": 46563, "pitch": 35, "duration": 10, "velocity": 117}, {"time": 46563, "pitch": 46, "duration": 10, "velocity": 86}, {"time": 46563, "pitch": 49, "duration": 10, "velocity": 90}, {"time": 46800, "pitch": 40, "duration": 10, "velocity": 111}, {"time": 46800, "pitch": 46, "duration": 10, "velocity": 80}, {"time": 47037, "pitch": 35, "duration": 10, "velocity": 94}, {"time": 47037, "pitch": 46, "duration": 10, "velocity": 78}, {"time": 47278, "pitch": 40, "duration": 10, "velocity": 107}, {"time": 47278, "pitch": 46, "duration": 10, "velocity": 66}, {"time": 47519, "pitch": 35, "duration": 10, "velocity": 111}, {"time": 47519, "pitch": 46, "duration": 10, "velocity": 95}, {"time": 47760, "pitch": 40, "duration": 10, "velocity": 114}, {"time": 47760, "pitch": 46, "duration": 10, "velocity": 77}, {"time": 47921, "pitch": 35, "duration": 10, "velocity": 117}, {"time": 48001, "pitch": 46, "duration": 10, "velocity": 76}, {"time": 48162, "pitch": 35, "duration": 10, "velocity": 95}, {"time": 48242, "pitch": 40, "duration": 10, "velocity": 108}, {"time": 48242, "pitch": 46, "duration": 10, "velocity": 58}, {"time": 48483, "pitch": 35, "duration": 10, "velocity": 109}, {"time": 48483, "pitch": 46, "duration": 10, "velocity": 88}, {"time": 48720, "pitch": 40, "duration": 10, "velocity": 110}, {"time": 48720, "pitch": 46, "duration": 10, "velocity": 74}, {"time": 48957, "pitch": 35, "duration": 10, "velocity": 96}, {"time": 48957, "pitch": 46, "duration": 10, "velocity": 74}, {"time": 49198, "pitch": 40, "duration": 10, "velocity": 110}, {"time": 49198, "pitch": 46, "duration": 10, "velocity": 63}, {"time": 49438, "pitch": 35, "duration": 10, "velocity": 108}, {"time": 49438, "pitch": 46, "duration": 10, "velocity": 86}, {"time": 49679, "pitch": 40, "duration": 10, "velocity": 110}, {"time": 49679, "pitch": 46, "duration": 10, "velocity": 78}, {"time": 49840, "pitch": 35, "duration": 10, "velocity": 112}, {"time": 49920, "pitch": 46, "duration": 10, "velocity": 77}, {"time": 50081, "pitch": 35, "duration": 10, "velocity": 94}, {"time": 50081, "pitch": 40, "duration": 10, "velocity": 112}, {"time": 50161, "pitch": 40, "duration": 10, "velocity": 112}, {"time": 50402, "pitch": 35, "duration": 10, "velocity": 109}, {"time": 50402, "pitch": 41, "duration": 10, "velocity": 97}, {"time": 50402, "pitch": 45, "duration": 10, "velocity": 77}, {"time": 50643, "pitch": 35, "duration": 10, "velocity": 91}, {"time": 50643, "pitch": 41, "duration": 10, "velocity": 85}, {"time": 50643, "pitch": 45, "duration": 10, "velocity": 64}, {"time": 50884, "pitch": 35, "duration": 10, "velocity": 92}, {"time": 50884, "pitch": 41, "duration": 10, "velocity": 97}, {"time": 50884, "pitch": 45, "duration": 10, "velocity": 85}, {"time": 51279, "pitch": 35, "duration": 10, "velocity": 104}, {"time": 51279, "pitch": 41, "duration": 10, "velocity": 80}, {"time": 51279, "pitch": 45, "duration": 10, "velocity": 65}, {"time": 51358, "pitch": 45, "duration": 10, "velocity": 95}, {"time": 51518, "pitch": 35, "duration": 10, "velocity": 94}, {"time": 51518, "pitch": 41, "duration": 10, "velocity": 97}, {"time": 51518, "pitch": 45, "duration": 10, "velocity": 65}, {"time": 51759, "pitch": 35, "duration": 10, "velocity": 98}, {"time": 51759, "pitch": 41, "duration": 10, "velocity": 78}, {"time": 51759, "pitch": 45, "duration": 10, "velocity": 77}, {"time": 51839, "pitch": 35, "duration": 10, "velocity": 107}, {"time": 51839, "pitch": 41, "duration": 10, "velocity": 93}, {"time": 51839, "pitch": 45, "duration": 10, "velocity": 94}, {"time": 52080, "pitch": 38, "duration": 10, "velocity": 120}, {"time": 52080, "pitch": 40, "duration": 10, "velocity": 124}, {"time": 52321, "pitch": 35, "duration": 10, "velocity": 109}, {"time": 52321, "pitch": 41, "duration": 10, "velocity": 100}, {"time": 52321, "pitch": 45, "duration": 10, "velocity": 82}, {"time": 52562, "pitch": 35, "duration": 10, "velocity": 89}, {"time": 52562, "pitch": 41, "duration": 10, "velocity": 80}, {"time": 52562, "pitch": 45, "duration": 10, "velocity": 66}, {"time": 52803, "pitch": 35, "duration": 10, "velocity": 89}, {"time": 52803, "pitch": 41, "duration": 10, "velocity": 97}, {"time": 52803, "pitch": 45, "duration": 10, "velocity": 85}, {"time": 53198, "pitch": 35, "duration": 10, "velocity": 108}, {"time": 53198, "pitch": 41, "duration": 10, "velocity": 81}, {"time": 53198, "pitch": 45, "duration": 10, "velocity": 64}, {"time": 53277, "pitch": 45, "duration": 10, "velocity": 94}, {"time": 53437, "pitch": 35, "duration": 10, "velocity": 90}, {"time": 53437, "pitch": 41, "duration": 10, "velocity": 93}, {"time": 53437, "pitch": 45, "duration": 10, "velocity": 68}, {"time": 53678, "pitch": 35, "duration": 10, "velocity": 97}, {"time": 53678, "pitch": 41, "duration": 10, "velocity": 82}, {"time": 53678, "pitch": 45, "duration": 10, "velocity": 79}, {"time": 53759, "pitch": 35, "duration": 10, "velocity": 112}, {"time": 53759, "pitch": 41, "duration": 10, "velocity": 91}, {"time": 53759, "pitch": 45, "duration": 10, "velocity": 95}, {"time": 53999, "pitch": 38, "duration": 10, "velocity": 123}, {"time": 53999, "pitch": 40, "duration": 10, "velocity": 123}, {"time": 54240, "pitch": 35, "duration": 10, "velocity": 105}, {"time": 54240, "pitch": 41, "duration": 10, "velocity": 100}, {"time": 54240, "pitch": 45, "duration": 10, "velocity": 86}, {"time": 54481, "pitch": 35, "duration": 10, "velocity": 91}, {"time": 54481, "pitch": 41, "duration": 10, "velocity": 81}, {"time": 54481, "pitch": 45, "duration": 10, "velocity": 67}, {"time": 54722, "pitch": 35, "duration": 10, "velocity": 98}, {"time": 54722, "pitch": 41, "duration": 10, "velocity": 95}, {"time": 54722, "pitch": 45, "duration": 10, "velocity": 79}, {"time": 55124, "pitch": 35, "duration": 10, "velocity": 108}, {"time": 55124, "pitch": 41, "duration": 10, "velocity": 77}, {"time": 55124, "pitch": 45, "duration": 10, "velocity": 65}, {"time": 55204, "pitch": 45, "duration": 10, "velocity": 95}, {"time": 55362, "pitch": 35, "duration": 10, "velocity": 95}, {"time": 55362, "pitch": 41, "duration": 10, "velocity": 97}, {"time": 55362, "pitch": 45, "duration": 10, "velocity": 72}, {"time": 55599, "pitch": 35, "duration": 10, "velocity": 93}, {"time": 55599, "pitch": 41, "duration": 10, "velocity": 85}, {"time": 55599, "pitch": 45, "duration": 10, "velocity": 80}, {"time": 55678, "pitch": 35, "duration": 10, "velocity": 104}, {"time": 55678, "pitch": 41, "duration": 10, "velocity": 95}, {"time": 55678, "pitch": 45, "duration": 10, "velocity": 92}, {"time": 55919, "pitch": 38, "duration": 10, "velocity": 127}, {"time": 55919, "pitch": 40, "duration": 10, "velocity": 122}, {"time": 56160, "pitch": 35, "duration": 10, "velocity": 109}, {"time": 56160, "pitch": 41, "duration": 10, "velocity": 100}, {"time": 56160, "pitch": 45, "duration": 10, "velocity": 82}, {"time": 56400, "pitch": 35, "duration": 10, "velocity": 89}, {"time": 56400, "pitch": 41, "duration": 10, "velocity": 80}, {"time": 56400, "pitch": 45, "duration": 10, "velocity": 66}, {"time": 56641, "pitch": 35, "duration": 10, "velocity": 89}, {"time": 56641, "pitch": 41, "duration": 10, "velocity": 97}, {"time": 56641, "pitch": 45, "duration": 10, "velocity": 85}, {"time": 57043, "pitch": 35, "duration": 10, "velocity": 108}, {"time": 57043, "pitch": 41, "duration": 10, "velocity": 81}, {"time": 57043, "pitch": 45, "duration": 10, "velocity": 64}, {"time": 57123, "pitch": 45, "duration": 10, "velocity": 94}, {"time": 57281, "pitch": 35, "duration": 10, "velocity": 90}, {"time": 57281, "pitch": 41, "duration": 10, "velocity": 93}, {"time": 57281, "pitch": 45, "duration": 10, "velocity": 68}, {"time": 57518, "pitch": 35, "duration": 10, "velocity": 97}, {"time": 57518, "pitch": 41, "duration": 10, "velocity": 82}, {"time": 57518, "pitch": 45, "duration": 10, "velocity": 79}, {"time": 57597, "pitch": 35, "duration": 10, "velocity": 112}, {"time": 57597, "pitch": 41, "duration": 10, "velocity": 91}, {"time": 57597, "pitch": 45, "duration": 10, "velocity": 95}, {"time": 57838, "pitch": 38, "duration": 10, "velocity": 123}, {"time": 57838, "pitch": 40, "duration": 10, "velocity": 123}, {"time": 58079, "pitch": 42, "duration": 30, "velocity": 84}, {"time": 58079, "pitch": 49, "duration": 10, "velocity": 90}, {"time": 58239, "pitch": 35, "duration": 30, "velocity": 103}, {"time": 58320, "pitch": 26, "duration": 30, "velocity": 127}, {"time": 58320, "pitch": 38, "duration": 30, "velocity": 127}, {"time": 58320, "pitch": 42, "duration": 30, "velocity": 90}, {"time": 58480, "pitch": 35, "duration": 30, "velocity": 103}, {"time": 58560, "pitch": 35, "duration": 31, "velocity": 103}, {"time": 58560, "pitch": 42, "duration": 31, "velocity": 84}, {"time": 58801, "pitch": 26, "duration": 30, "velocity": 127}, {"time": 58801, "pitch": 38, "duration": 30, "velocity": 127}, {"time": 58801, "pitch": 42, "duration": 30, "velocity": 90}, {"time": 59042, "pitch": 35, "duration": 30, "velocity": 103}, {"time": 59042, "pitch": 42, "duration": 30, "velocity": 84}, {"time": 59279, "pitch": 26, "duration": 30, "velocity": 127}, {"time": 59279, "pitch": 38, "duration": 30, "velocity": 127}, {"time": 59279, "pitch": 42, "duration": 30, "velocity": 90}, {"time": 59757, "pitch": 26, "duration": 30, "velocity": 127}, {"time": 59757, "pitch": 38, "duration": 30, "velocity": 127}, {"time": 59757, "pitch": 42, "duration": 30, "velocity": 100}, {"time": 59918, "pitch": 35, "duration": 30, "velocity": 103}, {"time": 59998, "pitch": 42, "duration": 30, "velocity": 84}, {"time": 60159, "pitch": 35, "duration": 30, "velocity": 103}, {"time": 60239, "pitch": 26, "duration": 30, "velocity": 127}, {"time": 60239, "pitch": 38, "duration": 30, "velocity": 127}, {"time": 60239, "pitch": 42, "duration": 30, "velocity": 90}, {"time": 60399, "pitch": 35, "duration": 31, "velocity": 103}, {"time": 60480, "pitch": 35, "duration": 30, "velocity": 103}, {"time": 60480, "pitch": 42, "duration": 30, "velocity": 84}, {"time": 60721, "pitch": 26, "duration": 30, "velocity": 127}, {"time": 60721, "pitch": 38, "duration": 30, "velocity": 127}, {"time": 60721, "pitch": 42, "duration": 30, "velocity": 90}, {"time": 60961, "pitch": 35, "duration": 31, "velocity": 103}, {"time": 60961, "pitch": 42, "duration": 31, "velocity": 84}, {"time": 61202, "pitch": 26, "duration": 30, "velocity": 127}, {"time": 61202, "pitch": 38, "duration": 30, "velocity": 127}, {"time": 61202, "pitch": 42, "duration": 30, "velocity": 90}, {"time": 61680, "pitch": 26, "duration": 30, "velocity": 127}, {"time": 61680, "pitch": 38, "duration": 30, "velocity": 127}, {"time": 61680, "pitch": 42, "duration": 30, "velocity": 100}, {"time": 61838, "pitch": 35, "duration": 30, "velocity": 103}, {"time": 61917, "pitch": 42, "duration": 30, "velocity": 84}, {"time": 62078, "pitch": 35, "duration": 30, "velocity": 103}, {"time": 62158, "pitch": 26, "duration": 30, "velocity": 127}, {"time": 62158, "pitch": 38, "duration": 30, "velocity": 127}, {"time": 62158, "pitch": 42, "duration": 30, "velocity": 90}, {"time": 62319, "pitch": 35, "duration": 30, "velocity": 103}, {"time": 62399, "pitch": 35, "duration": 30, "velocity": 103}, {"time": 62399, "pitch": 42, "duration": 30, "velocity": 84}, {"time": 62640, "pitch": 26, "duration": 30, "velocity": 127}, {"time": 62640, "pitch": 38, "duration": 30, "velocity": 127}, {"time": 62640, "pitch": 42, "duration": 30, "velocity": 90}, {"time": 62881, "pitch": 35, "duration": 30, "velocity": 103}, {"time": 62881, "pitch": 42, "duration": 30, "velocity": 84}, {"time": 63122, "pitch": 26, "duration": 30, "velocity": 127}, {"time": 63122, "pitch": 38, "duration": 30, "velocity": 127}, {"time": 63122, "pitch": 42, "duration": 30, "velocity": 90}, {"time": 63599, "pitch": 26, "duration": 30, "velocity": 127}, {"time": 63599, "pitch": 38, "duration": 30, "velocity": 127}, {"time": 63599, "pitch": 42, "duration": 30, "velocity": 100}, {"time": 63757, "pitch": 35, "duration": 30, "velocity": 103}, {"time": 63836, "pitch": 42, "duration": 30, "velocity": 84}, {"time": 63997, "pitch": 35, "duration": 30, "velocity": 103}, {"time": 64077, "pitch": 26, "duration": 30, "velocity": 127}, {"time": 64077, "pitch": 38, "duration": 30, "velocity": 127}, {"time": 64077, "pitch": 42, "duration": 30, "velocity": 90}, {"time": 64238, "pitch": 35, "duration": 30, "velocity": 103}, {"time": 64318, "pitch": 35, "duration": 30, "velocity": 103}, {"time": 64318, "pitch": 42, "duration": 30, "velocity": 84}, {"time": 64559, "pitch": 26, "duration": 30, "velocity": 127}, {"time": 64559, "pitch": 38, "duration": 30, "velocity": 127}, {"time": 64559, "pitch": 42, "duration": 30, "velocity": 90}, {"time": 64800, "pitch": 35, "duration": 30, "velocity": 103}, {"time": 64800, "pitch": 42, "duration": 30, "velocity": 84}, {"time": 65041, "pitch": 26, "duration": 30, "velocity": 127}, {"time": 65041, "pitch": 38, "duration": 30, "velocity": 127}, {"time": 65041, "pitch": 42, "duration": 30, "velocity": 90}, {"time": 65523, "pitch": 26, "duration": 30, "velocity": 127}, {"time": 65523, "pitch": 38, "duration": 30, "velocity": 127}, {"time": 65523, "pitch": 42, "duration": 30, "velocity": 100}, {"time": 65683, "pitch": 35, "duration": 30, "velocity": 103}, {"time": 65763, "pitch": 42, "duration": 30, "velocity": 84}, {"time": 65921, "pitch": 35, "duration": 30, "velocity": 103}, {"time": 66000, "pitch": 26, "duration": 30, "velocity": 127}, {"time": 66000, "pitch": 38, "duration": 30, "velocity": 127}, {"time": 66000, "pitch": 42, "duration": 30, "velocity": 90}, {"time": 66158, "pitch": 35, "duration": 30, "velocity": 103}, {"time": 66237, "pitch": 35, "duration": 30, "velocity": 103}, {"time": 66237, "pitch": 42, "duration": 30, "velocity": 84}, {"time": 66478, "pitch": 26, "duration": 30, "velocity": 127}, {"time": 66478, "pitch": 38, "duration": 30, "velocity": 127}, {"time": 66478, "pitch": 42, "duration": 30, "velocity": 90}, {"time": 66719, "pitch": 35, "duration": 30, "velocity": 103}, {"time": 66719, "pitch": 42, "duration": 30, "velocity": 84}, {"time": 66960, "pitch": 26, "duration": 30, "velocity": 127}, {"time": 66960, "pitch": 38, "duration": 30, "velocity": 127}, {"time": 66960, "pitch": 42, "duration": 30, "velocity": 90}, {"time": 67442, "pitch": 26, "duration": 30, "velocity": 127}, {"time": 67442, "pitch": 38, "duration": 30, "velocity": 127}, {"time": 67442, "pitch": 42, "duration": 30, "velocity": 100}, {"time": 67602, "pitch": 35, "duration": 30, "velocity": 103}, {"time": 67683, "pitch": 42, "duration": 29, "velocity": 84}, {"time": 67841, "pitch": 35, "duration": 29, "velocity": 103}, {"time": 67920, "pitch": 26, "duration": 29, "velocity": 127}, {"time": 67920, "pitch": 38, "duration": 29, "velocity": 127}, {"time": 67920, "pitch": 42, "duration": 29, "velocity": 90}, {"time": 68078, "pitch": 35, "duration": 29, "velocity": 103}, {"time": 68157, "pitch": 35, "duration": 30, "velocity": 103}, {"time": 68157, "pitch": 42, "duration": 30, "velocity": 84}, {"time": 68397, "pitch": 26, "duration": 30, "velocity": 127}, {"time": 68397, "pitch": 38, "duration": 30, "velocity": 127}, {"time": 68397, "pitch": 42, "duration": 30, "velocity": 90}, {"time": 68638, "pitch": 35, "duration": 30, "velocity": 103}, {"time": 68638, "pitch": 42, "duration": 30, "velocity": 84}, {"time": 68879, "pitch": 26, "duration": 30, "velocity": 127}, {"time": 68879, "pitch": 38, "duration": 30, "velocity": 127}, {"time": 68879, "pitch": 42, "duration": 30, "velocity": 90}, {"time": 69361, "pitch": 26, "duration": 30, "velocity": 127}, {"time": 69361, "pitch": 38, "duration": 30, "velocity": 127}, {"time": 69361, "pitch": 42, "duration": 30, "velocity": 100}, {"time": 69521, "pitch": 35, "duration": 31, "velocity": 103}, {"time": 69602, "pitch": 42, "duration": 30, "velocity": 84}, {"time": 69762, "pitch": 35, "duration": 30, "velocity": 103}, {"time": 69843, "pitch": 26, "duration": 30, "velocity": 127}, {"time": 69843, "pitch": 38, "duration": 30, "velocity": 127}, {"time": 69843, "pitch": 42, "duration": 30, "velocity": 90}, {"time": 70003, "pitch": 35, "duration": 30, "velocity": 103}, {"time": 70083, "pitch": 35, "duration": 30, "velocity": 103}, {"time": 70083, "pitch": 42, "duration": 30, "velocity": 84}, {"time": 70320, "pitch": 26, "duration": 30, "velocity": 127}, {"time": 70320, "pitch": 38, "duration": 30, "velocity": 127}, {"time": 70320, "pitch": 42, "duration": 30, "velocity": 90}, {"time": 70557, "pitch": 35, "duration": 31, "velocity": 103}, {"time": 70557, "pitch": 42, "duration": 31, "velocity": 84}, {"time": 70798, "pitch": 26, "duration": 30, "velocity": 127}, {"time": 70798, "pitch": 38, "duration": 30, "velocity": 127}, {"time": 70798, "pitch": 42, "duration": 30, "velocity": 90}, {"time": 71280, "pitch": 26, "duration": 30, "velocity": 127}, {"time": 71280, "pitch": 38, "duration": 30, "velocity": 127}, {"time": 71280, "pitch": 42, "duration": 30, "velocity": 100}, {"time": 71441, "pitch": 35, "duration": 30, "velocity": 103}, {"time": 71521, "pitch": 42, "duration": 30, "velocity": 84}, {"time": 71682, "pitch": 35, "duration": 30, "velocity": 103}, {"time": 71762, "pitch": 26, "duration": 30, "velocity": 127}, {"time": 71762, "pitch": 38, "duration": 30, "velocity": 127}, {"time": 71762, "pitch": 42, "duration": 30, "velocity": 90}, {"time": 71922, "pitch": 35, "duration": 31, "velocity": 103}, {"time": 72003, "pitch": 35, "duration": 29, "velocity": 103}, {"time": 72003, "pitch": 42, "duration": 29, "velocity": 84}, {"time": 72240, "pitch": 26, "duration": 29, "velocity": 127}, {"time": 72240, "pitch": 38, "duration": 29, "velocity": 127}, {"time": 72240, "pitch": 42, "duration": 29, "velocity": 90}, {"time": 72477, "pitch": 35, "duration": 30, "velocity": 103}, {"time": 72477, "pitch": 42, "duration": 30, "velocity": 84}, {"time": 72718, "pitch": 26, "duration": 30, "velocity": 127}, {"time": 72718, "pitch": 38, "duration": 30, "velocity": 127}, {"time": 72718, "pitch": 42, "duration": 30, "velocity": 90}, {"time": 72958, "pitch": 35, "duration": 10, "velocity": 109}, {"time": 72958, "pitch": 42, "duration": 10, "velocity": 111}, {"time": 73119, "pitch": 40, "duration": 10, "velocity": 109}, {"time": 73199, "pitch": 40, "duration": 10, "velocity": 114}, {"time": 73440, "pitch": 35, "duration": 10, "velocity": 115}, {"time": 73440, "pitch": 49, "duration": 10, "velocity": 90}, {"time": 73681, "pitch": 40, "duration": 10, "velocity": 106}, {"time": 73681, "pitch": 46, "duration": 10, "velocity": 79}, {"time": 73922, "pitch": 35, "duration": 10, "velocity": 101}, {"time": 73922, "pitch": 46, "duration": 10, "velocity": 77}, {"time": 74163, "pitch": 40, "duration": 10, "velocity": 108}, {"time": 74163, "pitch": 46, "duration": 10, "velocity": 58}, {"time": 74404, "pitch": 35, "duration": 10, "velocity": 112}, {"time": 74404, "pitch": 46, "duration": 10, "velocity": 91}, {"time": 74641, "pitch": 40, "duration": 10, "velocity": 112}, {"time": 74641, "pitch": 46, "duration": 10, "velocity": 72}, {"time": 74799, "pitch": 35, "duration": 10, "velocity": 110}, {"time": 74878, "pitch": 46, "duration": 10, "velocity": 73}, {"time": 75038, "pitch": 35, "duration": 10, "velocity": 102}, {"time": 75118, "pitch": 40, "duration": 11, "velocity": 111}, {"time": 75118, "pitch": 46, "duration": 11, "velocity": 58}, {"time": 75359, "pitch": 35, "duration": 10, "velocity": 113}, {"time": 75359, "pitch": 46, "duration": 10, "velocity": 90}, {"time": 75600, "pitch": 40, "duration": 10, "velocity": 110}, {"time": 75600, "pitch": 46, "duration": 10, "velocity": 79}, {"time": 75841, "pitch": 35, "duration": 10, "velocity": 96}, {"time": 75841, "pitch": 46, "duration": 10, "velocity": 80}, {"time": 76082, "pitch": 40, "duration": 10, "velocity": 110}, {"time": 76082, "pitch": 46, "duration": 10, "velocity": 64}, {"time": 76323, "pitch": 35, "duration": 10, "velocity": 112}, {"time": 76323, "pitch": 46, "duration": 10, "velocity": 89}, {"time": 76560, "pitch": 40, "duration": 10, "velocity": 114}, {"time": 76560, "pitch": 46, "duration": 10, "velocity": 72}, {"time": 76718, "pitch": 35, "duration": 10, "velocity": 116}, {"time": 76797, "pitch": 46, "duration": 10, "velocity": 80}, {"time": 76957, "pitch": 35, "duration": 10, "velocity": 94}, {"time": 77038, "pitch": 40, "duration": 10, "velocity": 109}, {"time": 77038, "pitch": 46, "duration": 10, "velocity": 59}, {"time": 77279, "pitch": 35, "duration": 10, "velocity": 110}, {"time": 77279, "pitch": 46, "duration": 10, "velocity": 89}, {"time": 77519, "pitch": 40, "duration": 10, "velocity": 107}, {"time": 77519, "pitch": 46, "duration": 10, "velocity": 81}, {"time": 77760, "pitch": 35, "duration": 10, "velocity": 101}, {"time": 77760, "pitch": 46, "duration": 10, "velocity": 73}, {"time": 78001, "pitch": 40, "duration": 10, "velocity": 107}, {"time": 78001, "pitch": 46, "duration": 10, "velocity": 66}, {"time": 78242, "pitch": 35, "duration": 10, "velocity": 110}, {"time": 78242, "pitch": 46, "duration": 10, "velocity": 90}, {"time": 78483, "pitch": 40, "duration": 10, "velocity": 115}, {"time": 78483, "pitch": 46, "duration": 10, "velocity": 76}, {"time": 78644, "pitch": 35, "duration": 10, "velocity": 112}, {"time": 78724, "pitch": 46, "duration": 10, "velocity": 78}, {"time": 78882, "pitch": 35, "duration": 10, "velocity": 94}, {"time": 78961, "pitch": 40, "duration": 10, "velocity": 108}, {"time": 78961, "pitch": 46, "duration": 10, "velocity": 66}, {"time": 79198, "pitch": 35, "duration": 10, "velocity": 108}, {"time": 79198, "pitch": 46, "duration": 10, "velocity": 95}, {"time": 79439, "pitch": 40, "duration": 10, "velocity": 113}, {"time": 79439, "pitch": 46, "duration": 10, "velocity": 81}, {"time": 79680, "pitch": 35, "duration": 10, "velocity": 103}, {"time": 79680, "pitch": 46, "duration": 10, "velocity": 73}, {"time": 79920, "pitch": 40, "duration": 10, "velocity": 108}, {"time": 79920, "pitch": 46, "duration": 10, "velocity": 59}, {"time": 80081, "pitch": 35, "duration": 10, "velocity": 110}, {"time": 80081, "pitch": 40, "duration": 10, "velocity": 92}, {"time": 80081, "pitch": 45, "duration": 10, "velocity": 86}, {"time": 80322, "pitch": 40, "duration": 10, "velocity": 99}, {"time": 80402, "pitch": 40, "duration": 10, "velocity": 123}, {"time": 81117, "pitch": 35, "duration": 10, "velocity": 114}, {"time": 81117, "pitch": 46, "duration": 10, "velocity": 94}, {"time": 81117, "pitch": 49, "duration": 10, "velocity": 90}, {"time": 81358, "pitch": 40, "duration": 10, "velocity": 113}, {"time": 81358, "pitch": 46, "duration": 10, "velocity": 72}, {"time": 81599, "pitch": 35, "duration": 10, "velocity": 100}, {"time": 81599, "pitch": 46, "duration": 10, "velocity": 79}, {"time": 81840, "pitch": 40, "duration": 10, "velocity": 107}, {"time": 81840, "pitch": 46, "duration": 10, "velocity": 61}, {"time": 82080, "pitch": 35, "duration": 11, "velocity": 111}, {"time": 82080, "pitch": 46, "duration": 11, "velocity": 86}, {"time": 82321, "pitch": 40, "duration": 10, "velocity": 106}, {"time": 82321, "pitch": 46, "duration": 10, "velocity": 80}, {"time": 82482, "pitch": 35, "duration": 10, "velocity": 108}, {"time": 82562, "pitch": 46, "duration": 10, "velocity": 81}, {"time": 82720, "pitch": 35, "duration": 10, "velocity": 98}, {"time": 82799, "pitch": 40, "duration": 10, "velocity": 115}, {"time": 82799, "pitch": 46, "duration": 10, "velocity": 64}, {"time": 83036, "pitch": 35, "duration": 10, "velocity": 116}, {"time": 83036, "pitch": 46, "duration": 10, "velocity": 92}, {"time": 83277, "pitch": 40, "duration": 10, "velocity": 113}, {"time": 83277, "pitch": 46, "duration": 10, "velocity": 81}, {"time": 83518, "pitch": 35, "duration": 10, "velocity": 103}, {"time": 83518, "pitch": 46, "duration": 10, "velocity": 76}, {"time": 83759, "pitch": 40, "duration": 10, "velocity": 112}, {"time": 83759, "pitch": 46, "duration": 10, "velocity": 61}, {"time": 84000, "pitch": 35, "duration": 10, "velocity": 115}, {"time": 84000, "pitch": 46, "duration": 10, "velocity": 87}, {"time": 84241, "pitch": 40, "duration": 10, "velocity": 112}, {"time": 84241, "pitch": 46, "duration": 10, "velocity": 78}, {"time": 84401, "pitch": 35, "duration": 10, "velocity": 116}, {"time": 84481, "pitch": 46, "duration": 10, "velocity": 73}, {"time": 84642, "pitch": 35, "duration": 10, "velocity": 97}, {"time": 84722, "pitch": 40, "duration": 10, "velocity": 114}, {"time": 84722, "pitch": 46, "duration": 10, "velocity": 60}, {"time": 84963, "pitch": 35, "duration": 10, "velocity": 117}, {"time": 84963, "pitch": 46, "duration": 10, "velocity": 86}, {"time": 84963, "pitch": 49, "duration": 10, "velocity": 90}, {"time": 85200, "pitch": 40, "duration": 10, "velocity": 111}, {"time": 85200, "pitch": 46, "duration": 10, "velocity": 80}, {"time": 85437, "pitch": 35, "duration": 10, "velocity": 94}, {"time": 85437, "pitch": 46, "duration": 10, "velocity": 78}, {"time": 85678, "pitch": 40, "duration": 10, "velocity": 107}, {"time": 85678, "pitch": 46, "duration": 10, "velocity": 66}, {"time": 85919, "pitch": 35, "duration": 10, "velocity": 111}, {"time": 85919, "pitch": 46, "duration": 10, "velocity": 95}, {"time": 86160, "pitch": 40, "duration": 10, "velocity": 114}, {"time": 86160, "pitch": 46, "duration": 10, "velocity": 77}, {"time": 86320, "pitch": 35, "duration": 10, "velocity": 117}, {"time": 86401, "pitch": 46, "duration": 10, "velocity": 76}, {"time": 86561, "pitch": 35, "duration": 10, "velocity": 95}, {"time": 86642, "pitch": 40, "duration": 10, "velocity": 108}, {"time": 86642, "pitch": 46, "duration": 10, "velocity": 58}, {"time": 86882, "pitch": 35, "duration": 10, "velocity": 109}, {"time": 86882, "pitch": 46, "duration": 10, "velocity": 88}, {"time": 87119, "pitch": 40, "duration": 10, "velocity": 110}, {"time": 87119, "pitch": 46, "duration": 10, "velocity": 74}, {"time": 87356, "pitch": 35, "duration": 10, "velocity": 96}, {"time": 87356, "pitch": 46, "duration": 10, "velocity": 74}, {"time": 87597, "pitch": 40, "duration": 10, "velocity": 110}, {"time": 87597, "pitch": 46, "duration": 10, "velocity": 63}, {"time": 87838, "pitch": 35, "duration": 10, "velocity": 108}, {"time": 87838, "pitch": 46, "duration": 10, "velocity": 86}, {"time": 88079, "pitch": 40, "duration": 10, "velocity": 110}, {"time": 88079, "pitch": 46, "duration": 10, "velocity": 78}, {"time": 88240, "pitch": 35, "duration": 10, "velocity": 112}, {"time": 88320, "pitch": 46, "duration": 10, "velocity": 77}, {"time": 88480, "pitch": 35, "duration": 10, "velocity": 94}, {"time": 88480, "pitch": 40, "duration": 10, "velocity": 112}, {"time": 88561, "pitch": 40, "duration": 10, "velocity": 112}, {"time": 88802, "pitch": 35, "duration": 10, "velocity": 114}, {"time": 88802, "pitch": 46, "duration": 10, "velocity": 94}, {"time": 88802, "pitch": 49, "duration": 10, "velocity": 90}, {"time": 89043, "pitch": 40, "duration": 10, "velocity": 113}, {"time": 89043, "pitch": 46, "duration": 10, "velocity": 72}, {"time": 89283, "pitch": 35, "duration": 10, "velocity": 100}, {"time": 89283, "pitch": 46, "duration": 10, "velocity": 79}, {"time": 89520, "pitch": 40, "duration": 10, "velocity": 107}, {"time": 89520, "pitch": 46, "duration": 10, "velocity": 61}, {"time": 89757, "pitch": 35, "duration": 10, "velocity": 111}, {"time": 89757, "pitch": 46, "duration": 10, "velocity": 86}, {"time": 89998, "pitch": 40, "duration": 10, "velocity": 106}, {"time": 89998, "pitch": 46, "duration": 10, "velocity": 80}, {"time": 90159, "pitch": 35, "duration": 10, "velocity": 108}, {"time": 90239, "pitch": 46, "duration": 10, "velocity": 81}, {"time": 90400, "pitch": 35, "duration": 10, "velocity": 98}, {"time": 90480, "pitch": 40, "duration": 10, "velocity": 115}, {"time": 90480, "pitch": 46, "duration": 10, "velocity": 64}, {"time": 90721, "pitch": 35, "duration": 10, "velocity": 116}, {"time": 90721, "pitch": 46, "duration": 10, "velocity": 92}, {"time": 90962, "pitch": 40, "duration": 10, "velocity": 113}, {"time": 90962, "pitch": 46, "duration": 10, "velocity": 81}, {"time": 91203, "pitch": 35, "duration": 9, "velocity": 103}, {"time": 91203, "pitch": 46, "duration": 9, "velocity": 76}, {"time": 91440, "pitch": 40, "duration": 9, "velocity": 112}, {"time": 91440, "pitch": 46, "duration": 9, "velocity": 61}, {"time": 91677, "pitch": 35, "duration": 10, "velocity": 115}, {"time": 91677, "pitch": 46, "duration": 10, "velocity": 87}, {"time": 91917, "pitch": 40, "duration": 10, "velocity": 112}, {"time": 91917, "pitch": 46, "duration": 10, "velocity": 78}, {"time": 92078, "pitch": 35, "duration": 10, "velocity": 116}, {"time": 92158, "pitch": 46, "duration": 10, "velocity": 73}, {"time": 92319, "pitch": 35, "duration": 10, "velocity": 97}, {"time": 92399, "pitch": 40, "duration": 10, "velocity": 114}, {"time": 92399, "pitch": 46, "duration": 10, "velocity": 60}, {"time": 92640, "pitch": 35, "duration": 10, "velocity": 117}, {"time": 92640, "pitch": 46, "duration": 10, "velocity": 86}, {"time": 92640, "pitch": 49, "duration": 10, "velocity": 90}, {"time": 92881, "pitch": 40, "duration": 10, "velocity": 111}, {"time": 92881, "pitch": 46, "duration": 10, "velocity": 80}, {"time": 93122, "pitch": 35, "duration": 10, "velocity": 94}, {"time": 93122, "pitch": 46, "duration": 10, "velocity": 78}, {"time": 93363, "pitch": 40, "duration": 10, "velocity": 107}, {"time": 93363, "pitch": 46, "duration": 10, "velocity": 66}, {"time": 93603, "pitch": 35, "duration": 10, "velocity": 111}, {"time": 93603, "pitch": 46, "duration": 10, "velocity": 95}, {"time": 93840, "pitch": 40, "duration": 10, "velocity": 114}, {"time": 93840, "pitch": 46, "duration": 10, "velocity": 77}, {"time": 93998, "pitch": 35, "duration": 10, "velocity": 117}, {"time": 94077, "pitch": 46, "duration": 10, "velocity": 76}, {"time": 94238, "pitch": 35, "duration": 10, "velocity": 95}, {"time": 94318, "pitch": 40, "duration": 10, "velocity": 108}, {"time": 94318, "pitch": 46, "duration": 10, "velocity": 58}, {"time": 94559, "pitch": 35, "duration": 10, "velocity": 109}, {"time": 94559, "pitch": 46, "duration": 10, "velocity": 88}, {"time": 94800, "pitch": 40, "duration": 10, "velocity": 110}, {"time": 94800, "pitch": 46, "duration": 10, "velocity": 74}, {"time": 95041, "pitch": 35, "duration": 10, "velocity": 96}, {"time": 95041, "pitch": 46, "duration": 10, "velocity": 74}, {"time": 95282, "pitch": 40, "duration": 10, "velocity": 110}, {"time": 95282, "pitch": 46, "duration": 10, "velocity": 63}, {"time": 95523, "pitch": 35, "duration": 10, "velocity": 108}, {"time": 95523, "pitch": 46, "duration": 10, "velocity": 86}, {"time": 95760, "pitch": 40, "duration": 10, "velocity": 110}, {"time": 95760, "pitch": 46, "duration": 10, "velocity": 78}, {"time": 95918, "pitch": 35, "duration": 10, "velocity": 112}, {"time": 95997, "pitch": 46, "duration": 10, "velocity": 77}, {"time": 96157, "pitch": 35, "duration": 10, "velocity": 94}, {"time": 96157, "pitch": 40, "duration": 10, "velocity": 112}, {"time": 96238, "pitch": 40, "duration": 10, "velocity": 112}, {"time": 96478, "pitch": 35, "duration": 10, "velocity": 109}, {"time": 96478, "pitch": 41, "duration": 10, "velocity": 97}, {"time": 96478, "pitch": 45, "duration": 10, "velocity": 77}, {"time": 96719, "pitch": 35, "duration": 10, "velocity": 91}, {"time": 96719, "pitch": 41, "duration": 10, "velocity": 85}, {"time": 96719, "pitch": 45, "duration": 10, "velocity": 64}, {"time": 96960, "pitch": 35, "duration": 10, "velocity": 92}, {"time": 96960, "pitch": 41, "duration": 10, "velocity": 97}, {"time": 96960, "pitch": 45, "duration": 10, "velocity": 85}, {"time": 97362, "pitch": 35, "duration": 10, "velocity": 104}, {"time": 97362, "pitch": 41, "duration": 10, "velocity": 80}, {"time": 97362, "pitch": 45, "duration": 10, "velocity": 65}, {"time": 97442, "pitch": 45, "duration": 10, "velocity": 95}, {"time": 97603, "pitch": 35, "duration": 10, "velocity": 94}, {"time": 97603, "pitch": 41, "duration": 10, "velocity": 97}, {"time": 97603, "pitch": 45, "duration": 10, "velocity": 65}, {"time": 97843, "pitch": 35, "duration": 10, "velocity": 98}, {"time": 97843, "pitch": 41, "duration": 10, "velocity": 78}, {"time": 97843, "pitch": 45, "duration": 10, "velocity": 77}, {"time": 97924, "pitch": 35, "duration": 10, "velocity": 107}, {"time": 97924, "pitch": 41, "duration": 10, "velocity": 93}, {"time": 97924, "pitch": 45, "duration": 10, "velocity": 94}, {"time": 98161, "pitch": 38, "duration": 10, "velocity": 120}, {"time": 98161, "pitch": 40, "duration": 10, "velocity": 124}, {"time": 98398, "pitch": 35, "duration": 10, "velocity": 109}, {"time": 98398, "pitch": 41, "duration": 10, "velocity": 100}, {"time": 98398, "pitch": 45, "duration": 10, "velocity": 82}, {"time": 98638, "pitch": 35, "duration": 11, "velocity": 89}, {"time": 98638, "pitch": 41, "duration": 11, "velocity": 80}, {"time": 98638, "pitch": 45, "duration": 11, "velocity": 66}, {"time": 98879, "pitch": 35, "duration": 10, "velocity": 89}, {"time": 98879, "pitch": 41, "duration": 10, "velocity": 97}, {"time": 98879, "pitch": 45, "duration": 10, "velocity": 85}, {"time": 99281, "pitch": 35, "duration": 10, "velocity": 108}, {"time": 99281, "pitch": 41, "duration": 10, "velocity": 81}, {"time": 99281, "pitch": 45, "duration": 10, "velocity": 64}, {"time": 99361, "pitch": 45, "duration": 10, "velocity": 94}, {"time": 99522, "pitch": 35, "duration": 10, "velocity": 90}, {"time": 99522, "pitch": 41, "duration": 10, "velocity": 93}, {"time": 99522, "pitch": 45, "duration": 10, "velocity": 68}, {"time": 99763, "pitch": 35, "duration": 10, "velocity": 97}, {"time": 99763, "pitch": 41, "duration": 10, "velocity": 82}, {"time": 99763, "pitch": 45, "duration": 10, "velocity": 79}, {"time": 99843, "pitch": 35, "duration": 10, "velocity": 112}, {"time": 99843, "pitch": 41, "duration": 10, "velocity": 91}, {"time": 99843, "pitch": 45, "duration": 10, "velocity": 95}, {"time": 100080, "pitch": 38, "duration": 10, "velocity": 123}, {"time": 100080, "pitch": 40, "duration": 10, "velocity": 123}, {"time": 100317, "pitch": 35, "duration": 10, "velocity": 105}, {"time": 100317, "pitch": 41, "duration": 10, "velocity": 100}, {"time": 100317, "pitch": 45, "duration": 10, "velocity": 86}, {"time": 100558, "pitch": 35, "duration": 10, "velocity": 91}, {"time": 100558, "pitch": 41, "duration": 10, "velocity": 81}, {"time": 100558, "pitch": 45, "duration": 10, "velocity": 67}, {"time": 100799, "pitch": 35, "duration": 10, "velocity": 98}, {"time": 100799, "pitch": 41, "duration": 10, "velocity": 95}, {"time": 100799, "pitch": 45, "duration": 10, "velocity": 79}, {"time": 101200, "pitch": 35, "duration": 10, "velocity": 108}, {"time": 101200, "pitch": 41, "duration": 10, "velocity": 77}, {"time": 101200, "pitch": 45, "duration": 10, "velocity": 65}, {"time": 101280, "pitch": 45, "duration": 10, "velocity": 95}, {"time": 101441, "pitch": 35, "duration": 10, "velocity": 95}, {"time": 101441, "pitch": 41, "duration": 10, "velocity": 97}, {"time": 101441, "pitch": 45, "duration": 10, "velocity": 72}, {"time": 101682, "pitch": 35, "duration": 10, "velocity": 93}, {"time": 101682, "pitch": 41, "duration": 10, "velocity": 85}, {"time": 101682, "pitch": 45, "duration": 10, "velocity": 80}, {"time": 101762, "pitch": 35, "duration": 10, "velocity": 104}, {"time": 101762, "pitch": 41, "duration": 10, "velocity": 95}, {"time": 101762, "pitch": 45, "duration": 10, "velocity": 92}, {"time": 102003, "pitch": 38, "duration": 10, "velocity": 127}, {"time": 102003, "pitch": 40, "duration": 10, "velocity": 122}, {"time": 102244, "pitch": 35, "duration": 10, "velocity": 108}, {"time": 102244, "pitch": 41, "duration": 10, "velocity": 94}, {"time": 102244, "pitch": 45, "duration": 10, "velocity": 81}, {"time": 102481, "pitch": 35, "duration": 10, "velocity": 93}, {"time": 102481, "pitch": 41, "duration": 10, "velocity": 81}, {"time": 102481, "pitch": 45, "duration": 10, "velocity": 72}, {"time": 102718, "pitch": 35, "duration": 10, "velocity": 90}, {"time": 102718, "pitch": 41, "duration": 10, "velocity": 94}, {"time": 102718, "pitch": 45, "duration": 10, "velocity": 83}, {"time": 103119, "pitch": 35, "duration": 10, "velocity": 105}, {"time": 103119, "pitch": 38, "duration": 10, "velocity": 107}, {"time": 103119, "pitch": 40, "duration": 10, "velocity": 92}, {"time": 103119, "pitch": 45, "duration": 10, "velocity": 81}, {"time": 103360, "pitch": 38, "duration": 10, "velocity": 113}, {"time": 103360, "pitch": 40, "duration": 10, "velocity": 99}, {"time": 103440, "pitch": 38, "duration": 10, "velocity": 121}, {"time": 103440, "pitch": 40, "duration": 10, "velocity": 123}, {"time": 104163, "pitch": 42, "duration": 30, "velocity": 84}, {"time": 104163, "pitch": 49, "duration": 10, "velocity": 90}, {"time": 104321, "pitch": 35, "duration": 30, "velocity": 103}, {"time": 104400, "pitch": 26, "duration": 30, "velocity": 127}, {"time": 104400, "pitch": 38, "duration": 30, "velocity": 127}, {"time": 104400, "pitch": 42, "duration": 30, "velocity": 90}, {"time": 104558, "pitch": 35, "duration": 30, "velocity": 103}, {"time": 104637, "pitch": 35, "duration": 30, "velocity": 103}, {"time": 104637, "pitch": 42, "duration": 30, "velocity": 84}, {"time": 104878, "pitch": 26, "duration": 30, "velocity": 127}, {"time": 104878, "pitch": 38, "duration": 30, "velocity": 127}, {"time": 104878, "pitch": 42, "duration": 30, "velocity": 90}, {"time": 105119, "pitch": 35, "duration": 30, "velocity": 103}, {"time": 105119, "pitch": 42, "duration": 30, "velocity": 84}, {"time": 105360, "pitch": 26, "duration": 30, "velocity": 127}, {"time": 105360, "pitch": 38, "duration": 30, "velocity": 127}, {"time": 105360, "pitch": 42, "duration": 30, "velocity": 90}, {"time": 105841, "pitch": 26, "duration": 30, "velocity": 127}, {"time": 105841, "pitch": 38, "duration": 30, "velocity": 127}, {"time": 105841, "pitch": 42, "duration": 30, "velocity": 100}, {"time": 106002, "pitch": 35, "duration": 30, "velocity": 103}, {"time": 106082, "pitch": 42, "duration": 30, "velocity": 84}, {"time": 106240, "pitch": 35, "duration": 30, "velocity": 103}, {"time": 106319, "pitch": 26, "duration": 30, "velocity": 127}, {"time": 106319, "pitch": 38, "duration": 30, "velocity": 127}, {"time": 106319, "pitch": 42, "duration": 30, "velocity": 90}, {"time": 106477, "pitch": 35, "duration": 30, "velocity": 103}, {"time": 106556, "pitch": 35, "duration": 30, "velocity": 103}, {"time": 106556, "pitch": 42, "duration": 30, "velocity": 84}, {"time": 106797, "pitch": 26, "duration": 30, "velocity": 127}, {"time": 106797, "pitch": 38, "duration": 30, "velocity": 127}, {"time": 106797, "pitch": 42, "duration": 30, "velocity": 90}, {"time": 107038, "pitch": 35, "duration": 30, "velocity": 103}, {"time": 107038, "pitch": 42, "duration": 30, "velocity": 84}, {"time": 107279, "pitch": 26, "duration": 30, "velocity": 127}, {"time": 107279, "pitch": 38, "duration": 30, "velocity": 127}, {"time": 107279, "pitch": 42, "duration": 30, "velocity": 90}, {"time": 107761, "pitch": 26, "duration": 30, "velocity": 127}, {"time": 107761, "pitch": 38, "duration": 30, "velocity": 127}, {"time": 107761, "pitch": 42, "duration": 30, "velocity": 100}, {"time": 107921, "pitch": 35, "duration": 30, "velocity": 103}, {"time": 108001, "pitch": 42, "duration": 31, "velocity": 84}, {"time": 108162, "pitch": 35, "duration": 30, "velocity": 103}, {"time": 108242, "pitch": 26, "duration": 30, "velocity": 127}, {"time": 108242, "pitch": 38, "duration": 30, "velocity": 127}, {"time": 108242, "pitch": 42, "duration": 30, "velocity": 90}, {"time": 108403, "pitch": 35, "duration": 30, "velocity": 103}, {"time": 108483, "pitch": 35, "duration": 30, "velocity": 103}, {"time": 108483, "pitch": 42, "duration": 30, "velocity": 84}, {"time": 108720, "pitch": 26, "duration": 30, "velocity": 127}, {"time": 108720, "pitch": 38, "duration": 30, "velocity": 127}, {"time": 108720, "pitch": 42, "duration": 30, "velocity": 90}, {"time": 108957, "pitch": 35, "duration": 30, "velocity": 103}, {"time": 108957, "pitch": 42, "duration": 30, "velocity": 84}, {"time": 109198, "pitch": 26, "duration": 30, "velocity": 127}, {"time": 109198, "pitch": 38, "duration": 30, "velocity": 127}, {"time": 109198, "pitch": 42, "duration": 30, "velocity": 90}, {"time": 109680, "pitch": 26, "duration": 30, "velocity": 127}, {"time": 109680, "pitch": 38, "duration": 30, "velocity": 127}, {"time": 109680, "pitch": 42, "duration": 30, "velocity": 100}, {"time": 109840, "pitch": 35, "duration": 30, "velocity": 103}, {"time": 109921, "pitch": 42, "duration": 30, "velocity": 84}, {"time": 110081, "pitch": 35, "duration": 30, "velocity": 103}, {"time": 110162, "pitch": 26, "duration": 30, "velocity": 127}, {"time": 110162, "pitch": 38, "duration": 30, "velocity": 127}, {"time": 110162, "pitch": 42, "duration": 30, "velocity": 90}, {"time": 110322, "pitch": 35, "duration": 30, "velocity": 103}, {"time": 110402, "pitch": 35, "duration": 30, "velocity": 103}, {"time": 110402, "pitch": 42, "duration": 30, "velocity": 84}, {"time": 110639, "pitch": 26, "duration": 30, "velocity": 127}, {"time": 110639, "pitch": 38, "duration": 30, "velocity": 127}, {"time": 110639, "pitch": 42, "duration": 30, "velocity": 90}, {"time": 110876, "pitch": 35, "duration": 30, "velocity": 103}, {"time": 110876, "pitch": 42, "duration": 30, "velocity": 84}, {"time": 111117, "pitch": 26, "duration": 30, "velocity": 127}, {"time": 111117, "pitch": 38, "duration": 30, "velocity": 127}, {"time": 111117, "pitch": 42, "duration": 30, "velocity": 90}, {"time": 111599, "pitch": 26, "duration": 30, "velocity": 127}, {"time": 111599, "pitch": 38, "duration": 30, "velocity": 127}, {"time": 111599, "pitch": 42, "duration": 30, "velocity": 100}, {"time": 111760, "pitch": 35, "duration": 30, "velocity": 103}, {"time": 111840, "pitch": 42, "duration": 30, "velocity": 84}, {"time": 112000, "pitch": 35, "duration": 31, "velocity": 103}, {"time": 112081, "pitch": 26, "duration": 30, "velocity": 127}, {"time": 112081, "pitch": 38, "duration": 30, "velocity": 127}, {"time": 112081, "pitch": 42, "duration": 30, "velocity": 90}, {"time": 112241, "pitch": 35, "duration": 30, "velocity": 103}, {"time": 112322, "pitch": 35, "duration": 30, "velocity": 103}, {"time": 112322, "pitch": 42, "duration": 30, "velocity": 84}, {"time": 112563, "pitch": 26, "duration": 30, "velocity": 127}, {"time": 112563, "pitch": 38, "duration": 30, "velocity": 127}, {"time": 112563, "pitch": 42, "duration": 30, "velocity": 90}, {"time": 112803, "pitch": 35, "duration": 30, "velocity": 103}, {"time": 112803, "pitch": 42, "duration": 30, "velocity": 84}, {"time": 113040, "pitch": 26, "duration": 30, "velocity": 127}, {"time": 113040, "pitch": 38, "duration": 30, "velocity": 127}, {"time": 113040, "pitch": 42, "duration": 30, "velocity": 90}, {"time": 113518, "pitch": 26, "duration": 30, "velocity": 127}, {"time": 113518, "pitch": 38, "duration": 30, "velocity": 127}, {"time": 113518, "pitch": 42, "duration": 30, "velocity": 100}, {"time": 113679, "pitch": 35, "duration": 30, "velocity": 103}, {"time": 113759, "pitch": 42, "duration": 30, "velocity": 84}, {"time": 113920, "pitch": 35, "duration": 30, "velocity": 103}, {"time": 114000, "pitch": 26, "duration": 30, "velocity": 127}, {"time": 114000, "pitch": 38, "duration": 30, "velocity": 127}, {"time": 114000, "pitch": 42, "duration": 30, "velocity": 90}, {"time": 114161, "pitch": 35, "duration": 30, "velocity": 103}, {"time": 114241, "pitch": 35, "duration": 30, "velocity": 103}, {"time": 114241, "pitch": 42, "duration": 30, "velocity": 84}, {"time": 114482, "pitch": 26, "duration": 30, "velocity": 127}, {"time": 114482, "pitch": 38, "duration": 30, "velocity": 127}, {"time": 114482, "pitch": 42, "duration": 30, "velocity": 90}, {"time": 114723, "pitch": 35, "duration": 29, "velocity": 103}, {"time": 114723, "pitch": 42, "duration": 29, "velocity": 84}, {"time": 114960, "pitch": 26, "duration": 29, "velocity": 127}, {"time": 114960, "pitch": 38, "duration": 29, "velocity": 127}, {"time": 114960, "pitch": 42, "duration": 29, "velocity": 90}, {"time": 115437, "pitch": 26, "duration": 30, "velocity": 127}, {"time": 115437, "pitch": 38, "duration": 30, "velocity": 127}, {"time": 115437, "pitch": 42, "duration": 30, "velocity": 100}, {"time": 115598, "pitch": 35, "duration": 30, "velocity": 103}, {"time": 115678, "pitch": 42, "duration": 30, "velocity": 84}, {"time": 115839, "pitch": 35, "duration": 30, "velocity": 103}, {"time": 115919, "pitch": 26, "duration": 30, "velocity": 127}, {"time": 115919, "pitch": 38, "duration": 30, "velocity": 127}, {"time": 115919, "pitch": 42, "duration": 30, "velocity": 90}, {"time": 116080, "pitch": 35, "duration": 30, "velocity": 103}, {"time": 116160, "pitch": 35, "duration": 30, "velocity": 103}, {"time": 116160, "pitch": 42, "duration": 30, "velocity": 84}, {"time": 116401, "pitch": 26, "duration": 30, "velocity": 127}, {"time": 116401, "pitch": 38, "duration": 30, "velocity": 127}, {"time": 116401, "pitch": 42, "duration": 30, "velocity": 90}, {"time": 116642, "pitch": 35, "duration": 30, "velocity": 103}, {"time": 116642, "pitch": 42, "duration": 30, "velocity": 84}, {"time": 116883, "pitch": 26, "duration": 30, "velocity": 127}, {"time": 116883, "pitch": 38, "duration": 30, "velocity": 127}, {"time": 116883, "pitch": 42, "duration": 30, "velocity": 90}, {"time": 117360, "pitch": 26, "duration": 30, "velocity": 127}, {"time": 117360, "pitch": 38, "duration": 30, "velocity": 127}, {"time": 117360, "pitch": 42, "duration": 30, "velocity": 100}, {"time": 117518, "pitch": 35, "duration": 30, "velocity": 103}, {"time": 117597, "pitch": 42, "duration": 31, "velocity": 84}, {"time": 117758, "pitch": 35, "duration": 30, "velocity": 103}, {"time": 117838, "pitch": 26, "duration": 30, "velocity": 127}, {"time": 117838, "pitch": 38, "duration": 30, "velocity": 127}, {"time": 117838, "pitch": 42, "duration": 30, "velocity": 90}, {"time": 117999, "pitch": 35, "duration": 30, "velocity": 103}, {"time": 118079, "pitch": 35, "duration": 30, "velocity": 103}, {"time": 118079, "pitch": 42, "duration": 30, "velocity": 84}, {"time": 118320, "pitch": 26, "duration": 30, "velocity": 127}, {"time": 118320, "pitch": 38, "duration": 30, "velocity": 127}, {"time": 118320, "pitch": 42, "duration": 30, "velocity": 90}, {"time": 118561, "pitch": 35, "duration": 30, "velocity": 103}, {"time": 118561, "pitch": 42, "duration": 30, "velocity": 84}, {"time": 118802, "pitch": 26, "duration": 30, "velocity": 127}, {"time": 118802, "pitch": 38, "duration": 30, "velocity": 127}, {"time": 118802, "pitch": 42, "duration": 30, "velocity": 90}, {"time": 119043, "pitch": 35, "duration": 10, "velocity": 109}, {"time": 119043, "pitch": 42, "duration": 10, "velocity": 111}, {"time": 119201, "pitch": 40, "duration": 10, "velocity": 109}, {"time": 119280, "pitch": 40, "duration": 10, "velocity": 114}, {"time": 119517, "pitch": 35, "duration": 10, "velocity": 115}, {"time": 119517, "pitch": 49, "duration": 10, "velocity": 90}, {"time": 119758, "pitch": 40, "duration": 10, "velocity": 106}, {"time": 119758, "pitch": 46, "duration": 10, "velocity": 79}, {"time": 119998, "pitch": 35, "duration": 10, "velocity": 101}, {"time": 119998, "pitch": 46, "duration": 10, "velocity": 77}, {"time": 120239, "pitch": 40, "duration": 10, "velocity": 108}, {"time": 120239, "pitch": 46, "duration": 10, "velocity": 58}, {"time": 120480, "pitch": 35, "duration": 10, "velocity": 112}, {"time": 120480, "pitch": 46, "duration": 10, "velocity": 91}, {"time": 120721, "pitch": 40, "duration": 10, "velocity": 112}, {"time": 120721, "pitch": 46, "duration": 10, "velocity": 72}, {"time": 120882, "pitch": 35, "duration": 10, "velocity": 110}, {"time": 120962, "pitch": 46, "duration": 10, "velocity": 73}, {"time": 121123, "pitch": 35, "duration": 10, "velocity": 102}, {"time": 121203, "pitch": 40, "duration": 10, "velocity": 111}, {"time": 121203, "pitch": 46, "duration": 10, "velocity": 58}, {"time": 121444, "pitch": 35, "duration": 10, "velocity": 113}, {"time": 121444, "pitch": 46, "duration": 10, "velocity": 90}, {"time": 121681, "pitch": 40, "duration": 10, "velocity": 110}, {"time": 121681, "pitch": 46, "duration": 10, "velocity": 79}, {"time": 121918, "pitch": 35, "duration": 10, "velocity": 96}, {"time": 121918, "pitch": 46, "duration": 10, "velocity": 80}, {"time": 122158, "pitch": 40, "duration": 11, "velocity": 110}, {"time": 122158, "pitch": 46, "duration": 11, "velocity": 64}, {"time": 122399, "pitch": 35, "duration": 10, "velocity": 112}, {"time": 122399, "pitch": 46, "duration": 10, "velocity": 89}, {"time": 122640, "pitch": 40, "duration": 10, "velocity": 114}, {"time": 122640, "pitch": 46, "duration": 10, "velocity": 72}, {"time": 122801, "pitch": 35, "duration": 10, "velocity": 116}, {"time": 122881, "pitch": 46, "duration": 10, "velocity": 80}, {"time": 123042, "pitch": 35, "duration": 10, "velocity": 94}, {"time": 123122, "pitch": 40, "duration": 10, "velocity": 109}, {"time": 123122, "pitch": 46, "duration": 10, "velocity": 59}, {"time": 123363, "pitch": 35, "duration": 10, "velocity": 110}, {"time": 123363, "pitch": 46, "duration": 10, "velocity": 89}, {"time": 123600, "pitch": 40, "duration": 10, "velocity": 107}, {"time": 123600, "pitch": 46, "duration": 10, "velocity": 81}, {"time": 123837, "pitch": 35, "duration": 10, "velocity": 101}, {"time": 123837, "pitch": 46, "duration": 10, "velocity": 73}, {"time": 124078, "pitch": 40, "duration": 10, "velocity": 107}, {"time": 124078, "pitch": 46, "duration": 10, "velocity": 66}, {"time": 124319, "pitch": 35, "duration": 10, "velocity": 110}, {"time": 124319, "pitch": 46, "duration": 10, "velocity": 90}, {"time": 124559, "pitch": 40, "duration": 10, "velocity": 115}, {"time": 124559, "pitch": 46, "duration": 10, "velocity": 76}, {"time": 124720, "pitch": 35, "duration": 10, "velocity": 112}, {"time": 124800, "pitch": 46, "duration": 10, "velocity": 78}, {"time": 124961, "pitch": 35, "duration": 10, "velocity": 94}, {"time": 125041, "pitch": 40, "duration": 10, "velocity": 108}, {"time": 125041, "pitch": 46, "duration": 10, "velocity": 66}, {"time": 125282, "pitch": 35, "duration": 10, "velocity": 108}, {"time": 125282, "pitch": 46, "duration": 10, "velocity": 95}, {"time": 125523, "pitch": 40, "duration": 10, "velocity": 113}, {"time": 125523, "pitch": 46, "duration": 10, "velocity": 81}, {"time": 125764, "pitch": 35, "duration": 10, "velocity": 103}, {"time": 125764, "pitch": 46, "duration": 10, "velocity": 73}, {"time": 126001, "pitch": 40, "duration": 10, "velocity": 108}, {"time": 126001, "pitch": 46, "duration": 10, "velocity": 59}, {"time": 126159, "pitch": 35, "duration": 10, "velocity": 110}, {"time": 126159, "pitch": 40, "duration": 10, "velocity": 92}, {"time": 126159, "pitch": 45, "duration": 10, "velocity": 86}, {"time": 126398, "pitch": 40, "duration": 10, "velocity": 99}, {"time": 126479, "pitch": 40, "duration": 10, "velocity": 123}, {"time": 127201, "pitch": 35, "duration": 10, "velocity": 114}, {"time": 127201, "pitch": 46, "duration": 10, "velocity": 94}, {"time": 127201, "pitch": 49, "duration": 10, "velocity": 90}, {"time": 127442, "pitch": 40, "duration": 10, "velocity": 113}, {"time": 127442, "pitch": 46, "duration": 10, "velocity": 72}, {"time": 127683, "pitch": 35, "duration": 10, "velocity": 100}, {"time": 127683, "pitch": 46, "duration": 10, "velocity": 79}, {"time": 127920, "pitch": 40, "duration": 10, "velocity": 107}, {"time": 127920, "pitch": 46, "duration": 10, "velocity": 61}, {"time": 128157, "pitch": 35, "duration": 10, "velocity": 111}, {"time": 128157, "pitch": 46, "duration": 10, "velocity": 86}, {"time": 128398, "pitch": 40, "duration": 10, "velocity": 106}, {"time": 128398, "pitch": 46, "duration": 10, "velocity": 80}, {"time": 128558, "pitch": 35, "duration": 10, "velocity": 108}, {"time": 128639, "pitch": 46, "duration": 10, "velocity": 81}, {"time": 128799, "pitch": 35, "duration": 10, "velocity": 98}, {"time": 128880, "pitch": 40, "duration": 10, "velocity": 115}, {"time": 128880, "pitch": 46, "duration": 10, "velocity": 64}, {"time": 129121, "pitch": 35, "duration": 10, "velocity": 116}, {"time": 129121, "pitch": 46, "duration": 10, "velocity": 92}, {"time": 129361, "pitch": 40, "duration": 10, "velocity": 113}, {"time": 129361, "pitch": 46, "duration": 10, "velocity": 81}, {"time": 129602, "pitch": 35, "duration": 10, "velocity": 103}, {"time": 129602, "pitch": 46, "duration": 10, "velocity": 76}, {"time": 129839, "pitch": 40, "duration": 10, "velocity": 112}, {"time": 129839, "pitch": 46, "duration": 10, "velocity": 61}, {"time": 130076, "pitch": 35, "duration": 10, "velocity": 115}, {"time": 130076, "pitch": 46, "duration": 10, "velocity": 87}, {"time": 130317, "pitch": 40, "duration": 10, "velocity": 112}, {"time": 130317, "pitch": 46, "duration": 10, "velocity": 78}, {"time": 130478, "pitch": 35, "duration": 10, "velocity": 116}, {"time": 130558, "pitch": 46, "duration": 10, "velocity": 73}, {"time": 130719, "pitch": 35, "duration": 10, "velocity": 97}, {"time": 130799, "pitch": 40, "duration": 10, "velocity": 114}, {"time": 130799, "pitch": 46, "duration": 10, "velocity": 60}, {"time": 131040, "pitch": 35, "duration": 10, "velocity": 117}, {"time": 131040, "pitch": 46, "duration": 10, "velocity": 86}, {"time": 131040, "pitch": 49, "duration": 10, "velocity": 90}, {"time": 131281, "pitch": 40, "duration": 10, "velocity": 111}, {"time": 131281, "pitch": 46, "duration": 10, "velocity": 80}, {"time": 131521, "pitch": 35, "duration": 11, "velocity": 94}, {"time": 131521, "pitch": 46, "duration": 11, "velocity": 78}, {"time": 131762, "pitch": 40, "duration": 10, "velocity": 107}, {"time": 131762, "pitch": 46, "duration": 10, "velocity": 66}, {"time": 132003, "pitch": 35, "duration": 10, "velocity": 111}, {"time": 132003, "pitch": 46, "duration": 10, "velocity": 95}, {"time": 132240, "pitch": 40, "duration": 10, "velocity": 114}, {"time": 132240, "pitch": 46, "duration": 10, "velocity": 77}, {"time": 132398, "pitch": 35, "duration": 10, "velocity": 117}, {"time": 132477, "pitch": 46, "duration": 10, "velocity": 76}, {"time": 132638, "pitch": 35, "duration": 10, "velocity": 95}, {"time": 132718, "pitch": 40, "duration": 10, "velocity": 108}, {"time": 132718, "pitch": 46, "duration": 10, "velocity": 58}, {"time": 132959, "pitch": 35, "duration": 10, "velocity": 109}, {"time": 132959, "pitch": 46, "duration": 10, "velocity": 88}, {"time": 133200, "pitch": 40, "duration": 10, "velocity": 110}, {"time": 133200, "pitch": 46, "duration": 10, "velocity": 74}, {"time": 133441, "pitch": 35, "duration": 10, "velocity": 96}, {"time": 133441, "pitch": 46, "duration": 10, "velocity": 74}, {"time": 133682, "pitch": 40, "duration": 10, "velocity": 110}, {"time": 133682, "pitch": 46, "duration": 10, "velocity": 63}, {"time": 133922, "pitch": 35, "duration": 10, "velocity": 108}, {"time": 133922, "pitch": 46, "duration": 10, "velocity": 86}, {"time": 134159, "pitch": 40, "duration": 10, "velocity": 110}, {"time": 134159, "pitch": 46, "duration": 10, "velocity": 78}, {"time": 134317, "pitch": 35, "duration": 10, "velocity": 112}, {"time": 134396, "pitch": 46, "duration": 10, "velocity": 77}, {"time": 134557, "pitch": 35, "duration": 10, "velocity": 94}, {"time": 134557, "pitch": 40, "duration": 10, "velocity": 112}, {"time": 134637, "pitch": 40, "duration": 10, "velocity": 112}, {"time": 134878, "pitch": 35, "duration": 10, "velocity": 114}, {"time": 134878, "pitch": 46, "duration": 10, "velocity": 94}, {"time": 134878, "pitch": 49, "duration": 10, "velocity": 90}, {"time": 135119, "pitch": 40, "duration": 10, "velocity": 113}, {"time": 135119, "pitch": 46, "duration": 10, "velocity": 72}, {"time": 135360, "pitch": 35, "duration": 10, "velocity": 100}, {"time": 135360, "pitch": 46, "duration": 10, "velocity": 79}, {"time": 135601, "pitch": 40, "duration": 10, "velocity": 107}, {"time": 135601, "pitch": 46, "duration": 10, "velocity": 61}, {"time": 135842, "pitch": 35, "duration": 10, "velocity": 111}, {"time": 135842, "pitch": 46, "duration": 10, "velocity": 86}, {"time": 136083, "pitch": 40, "duration": 10, "velocity": 106}, {"time": 136083, "pitch": 46, "duration": 10, "velocity": 80}, {"time": 136243, "pitch": 35, "duration": 10, "velocity": 108}, {"time": 136323, "pitch": 46, "duration": 10, "velocity": 81}, {"time": 136481, "pitch": 35, "duration": 10, "velocity": 98}, {"time": 136560, "pitch": 40, "duration": 10, "velocity": 115}, {"time": 136560, "pitch": 46, "duration": 10, "velocity": 64}, {"time": 136797, "pitch": 35, "duration": 10, "velocity": 116}, {"time": 136797, "pitch": 46, "duration": 10, "velocity": 92}, {"time": 137038, "pitch": 40, "duration": 10, "velocity": 113}, {"time": 137038, "pitch": 46, "duration": 10, "velocity": 81}, {"time": 137279, "pitch": 35, "duration": 10, "velocity": 103}, {"time": 137279, "pitch": 46, "duration": 10, "velocity": 76}, {"time": 137520, "pitch": 40, "duration": 10, "velocity": 112}, {"time": 137520, "pitch": 46, "duration": 10, "velocity": 61}, {"time": 137761, "pitch": 35, "duration": 10, "velocity": 115}, {"time": 137761, "pitch": 46, "duration": 10, "velocity": 87}, {"time": 138002, "pitch": 40, "duration": 10, "velocity": 112}, {"time": 138002, "pitch": 46, "duration": 10, "velocity": 78}, {"time": 138162, "pitch": 35, "duration": 10, "velocity": 116}, {"time": 138243, "pitch": 46, "duration": 9, "velocity": 73}, {"time": 138401, "pitch": 35, "duration": 9, "velocity": 97}, {"time": 138480, "pitch": 40, "duration": 9, "velocity": 114}, {"time": 138480, "pitch": 46, "duration": 9, "velocity": 60}, {"time": 138717, "pitch": 35, "duration": 10, "velocity": 117}, {"time": 138717, "pitch": 46, "duration": 10, "velocity": 86}, {"time": 138717, "pitch": 49, "duration": 10, "velocity": 90}, {"time": 138957, "pitch": 40, "duration": 10, "velocity": 111}, {"time": 138957, "pitch": 46, "duration": 10, "velocity": 80}, {"time": 139198, "pitch": 35, "duration": 10, "velocity": 94}, {"time": 139198, "pitch": 46, "duration": 10, "velocity": 78}, {"time": 139439, "pitch": 40, "duration": 10, "velocity": 107}, {"time": 139439, "pitch": 46, "duration": 10, "velocity": 66}, {"time": 139680, "pitch": 35, "duration": 10, "velocity": 111}, {"time": 139680, "pitch": 46, "duration": 10, "velocity": 95}, {"time": 139921, "pitch": 40, "duration": 10, "velocity": 114}, {"time": 139921, "pitch": 46, "duration": 10, "velocity": 77}, {"time": 140081, "pitch": 35, "duration": 11, "velocity": 117}, {"time": 140162, "pitch": 46, "duration": 10, "velocity": 76}, {"time": 140322, "pitch": 35, "duration": 10, "velocity": 95}, {"time": 140403, "pitch": 40, "duration": 10, "velocity": 108}, {"time": 140403, "pitch": 46, "duration": 10, "velocity": 58}, {"time": 140643, "pitch": 35, "duration": 10, "velocity": 109}, {"time": 140643, "pitch": 46, "duration": 10, "velocity": 88}, {"time": 140880, "pitch": 40, "duration": 10, "velocity": 110}, {"time": 140880, "pitch": 46, "duration": 10, "velocity": 74}, {"time": 141117, "pitch": 35, "duration": 10, "velocity": 96}, {"time": 141117, "pitch": 46, "duration": 10, "velocity": 74}, {"time": 141358, "pitch": 40, "duration": 10, "velocity": 110}, {"time": 141358, "pitch": 46, "duration": 10, "velocity": 63}, {"time": 141599, "pitch": 35, "duration": 10, "velocity": 108}, {"time": 141599, "pitch": 46, "duration": 10, "velocity": 86}, {"time": 141840, "pitch": 40, "duration": 10, "velocity": 110}, {"time": 141840, "pitch": 46, "duration": 10, "velocity": 78}, {"time": 142001, "pitch": 35, "duration": 10, "velocity": 112}, {"time": 142081, "pitch": 46, "duration": 10, "velocity": 77}, {"time": 142242, "pitch": 35, "duration": 10, "velocity": 94}, {"time": 142242, "pitch": 40, "duration": 10, "velocity": 112}, {"time": 142322, "pitch": 40, "duration": 10, "velocity": 112}, {"time": 142563, "pitch": 35, "duration": 10, "velocity": 109}, {"time": 142563, "pitch": 41, "duration": 10, "velocity": 97}, {"time": 142563, "pitch": 45, "duration": 10, "velocity": 77}, {"time": 142800, "pitch": 35, "duration": 10, "velocity": 91}, {"time": 142800, "pitch": 41, "duration": 10, "velocity": 85}, {"time": 142800, "pitch": 45, "duration": 10, "velocity": 64}, {"time": 143037, "pitch": 35, "duration": 10, "velocity": 92}, {"time": 143037, "pitch": 41, "duration": 10, "velocity": 97}, {"time": 143037, "pitch": 45, "duration": 10, "velocity": 85}, {"time": 143438, "pitch": 35, "duration": 10, "velocity": 104}, {"time": 143438, "pitch": 41, "duration": 10, "velocity": 80}, {"time": 143438, "pitch": 45, "duration": 10, "velocity": 65}, {"time": 143518, "pitch": 45, "duration": 10, "velocity": 95}, {"time": 143679, "pitch": 35, "duration": 10, "velocity": 94}, {"time": 143679, "pitch": 41, "duration": 10, "velocity": 97}, {"time": 143679, "pitch": 45, "duration": 10, "velocity": 65}, {"time": 143920, "pitch": 35, "duration": 10, "velocity": 98}, {"time": 143920, "pitch": 41, "duration": 10, "velocity": 78}, {"time": 143920, "pitch": 45, "duration": 10, "velocity": 77}, {"time": 144000, "pitch": 35, "duration": 10, "velocity": 107}, {"time": 144000, "pitch": 41, "duration": 10, "velocity": 93}, {"time": 144000, "pitch": 45, "duration": 10, "velocity": 94}, {"time": 144241, "pitch": 40, "duration": 10, "velocity": 124}, {"time": 144482, "pitch": 35, "duration": 10, "velocity": 109}, {"time": 144482, "pitch": 41, "duration": 10, "velocity": 100}, {"time": 144482, "pitch": 45, "duration": 10, "velocity": 82}, {"time": 144723, "pitch": 35, "duration": 10, "velocity": 89}, {"time": 144723, "pitch": 41, "duration": 10, "velocity": 80}, {"time": 144723, "pitch": 45, "duration": 10, "velocity": 66}, {"time": 144964, "pitch": 35, "duration": 10, "velocity": 89}, {"time": 144964, "pitch": 41, "duration": 10, "velocity": 97}, {"time": 144964, "pitch": 45, "duration": 10, "velocity": 85}, {"time": 145359, "pitch": 35, "duration": 10, "velocity": 108}, {"time": 145359, "pitch": 41, "duration": 10, "velocity": 81}, {"time": 145359, "pitch": 45, "duration": 10, "velocity": 64}, {"time": 145438, "pitch": 45, "duration": 10, "velocity": 94}, {"time": 145598, "pitch": 35, "duration": 10, "velocity": 90}, {"time": 145598, "pitch": 41, "duration": 10, "velocity": 93}, {"time": 145598, "pitch": 45, "duration": 10, "velocity": 68}, {"time": 145839, "pitch": 35, "duration": 10, "velocity": 97}, {"time": 145839, "pitch": 41, "duration": 10, "velocity": 82}, {"time": 145839, "pitch": 45, "duration": 10, "velocity": 79}, {"time": 145919, "pitch": 35, "duration": 10, "velocity": 112}, {"time": 145919, "pitch": 41, "duration": 10, "velocity": 91}, {"time": 145919, "pitch": 45, "duration": 10, "velocity": 95}, {"time": 146160, "pitch": 40, "duration": 10, "velocity": 123}, {"time": 146401, "pitch": 35, "duration": 10, "velocity": 105}, {"time": 146401, "pitch": 41, "duration": 10, "velocity": 100}, {"time": 146401, "pitch": 45, "duration": 10, "velocity": 86}, {"time": 146642, "pitch": 35, "duration": 10, "velocity": 91}, {"time": 146642, "pitch": 41, "duration": 10, "velocity": 81}, {"time": 146642, "pitch": 45, "duration": 10, "velocity": 67}, {"time": 146883, "pitch": 35, "duration": 10, "velocity": 98}, {"time": 146883, "pitch": 41, "duration": 10, "velocity": 95}, {"time": 146883, "pitch": 45, "duration": 10, "velocity": 79}, {"time": 147278, "pitch": 35, "duration": 10, "velocity": 108}, {"time": 147278, "pitch": 41, "duration": 10, "velocity": 77}, {"time": 147278, "pitch": 45, "duration": 10, "velocity": 65}, {"time": 147357, "pitch": 45, "duration": 10, "velocity": 95}, {"time": 147517, "pitch": 35, "duration": 10, "velocity": 95}, {"time": 147517, "pitch": 41, "duration": 10, "velocity": 97}, {"time": 147517, "pitch": 45, "duration": 10, "velocity": 72}, {"time": 147758, "pitch": 35, "duration": 10, "velocity": 93}, {"time": 147758, "pitch": 41, "duration": 10, "velocity": 85}, {"time": 147758, "pitch": 45, "duration": 10, "velocity": 80}, {"time": 147839, "pitch": 35, "duration": 10, "velocity": 104}, {"time": 147839, "pitch": 41, "duration": 10, "velocity": 95}, {"time": 147839, "pitch": 45, "duration": 10, "velocity": 92}, {"time": 148079, "pitch": 40, "duration": 11, "velocity": 122}, {"time": 148320, "pitch": 35, "duration": 10, "velocity": 109}, {"time": 148320, "pitch": 41, "duration": 10, "velocity": 100}, {"time": 148320, "pitch": 45, "duration": 10, "velocity": 82}, {"time": 148561, "pitch": 35, "duration": 10, "velocity": 89}, {"time": 148561, "pitch": 41, "duration": 10, "velocity": 80}, {"time": 148561, "pitch": 45, "duration": 10, "velocity": 66}, {"time": 148802, "pitch": 35, "duration": 10, "velocity": 89}, {"time": 148802, "pitch": 41, "duration": 10, "velocity": 97}, {"time": 148802, "pitch": 45, "duration": 10, "velocity": 85}, {"time": 149204, "pitch": 35, "duration": 10, "velocity": 108}, {"time": 149204, "pitch": 41, "duration": 10, "velocity": 81}, {"time": 149204, "pitch": 45, "duration": 10, "velocity": 64}, {"time": 149284, "pitch": 45, "duration": 10, "velocity": 94}, {"time": 149442, "pitch": 35, "duration": 10, "velocity": 90}, {"time": 149442, "pitch": 41, "duration": 10, "velocity": 93}, {"time": 149442, "pitch": 45, "duration": 10, "velocity": 68}, {"time": 149679, "pitch": 35, "duration": 10, "velocity": 97}, {"time": 149679, "pitch": 41, "duration": 10, "velocity": 82}, {"time": 149679, "pitch": 45, "duration": 10, "velocity": 79}, {"time": 149758, "pitch": 35, "duration": 10, "velocity": 112}, {"time": 149758, "pitch": 41, "duration": 10, "velocity": 91}, {"time": 149758, "pitch": 45, "duration": 10, "velocity": 95}, {"time": 149999, "pitch": 40, "duration": 10, "velocity": 123}, {"time": 150240, "pitch": 35, "duration": 10, "velocity": 116}, {"time": 150240, "pitch": 46, "duration": 10, "velocity": 92}, {"time": 150480, "pitch": 40, "duration": 10, "velocity": 113}, {"time": 150480, "pitch": 46, "duration": 10, "velocity": 81}, {"time": 150721, "pitch": 35, "duration": 10, "velocity": 103}, {"time": 150721, "pitch": 46, "duration": 10, "velocity": 76}, {"time": 150962, "pitch": 40, "duration": 10, "velocity": 112}, {"time": 150962, "pitch": 46, "duration": 10, "velocity": 61}, {"time": 151203, "pitch": 35, "duration": 10, "velocity": 115}, {"time": 151203, "pitch": 46, "duration": 10, "velocity": 87}, {"time": 151440, "pitch": 40, "duration": 10, "velocity": 112}, {"time": 151440, "pitch": 46, "duration": 10, "velocity": 78}, {"time": 151598, "pitch": 35, "duration": 10, "velocity": 116}, {"time": 151677, "pitch": 46, "duration": 10, "velocity": 73}, {"time": 151838, "pitch": 35, "duration": 10, "velocity": 97}, {"time": 151918, "pitch": 40, "duration": 10, "velocity": 114}, {"time": 151918, "pitch": 46, "duration": 10, "velocity": 60}, {"time": 152159, "pitch": 35, "duration": 10, "velocity": 116}, {"time": 152159, "pitch": 46, "duration": 10, "velocity": 92}, {"time": 152400, "pitch": 40, "duration": 10, "velocity": 113}, {"time": 152400, "pitch": 46, "duration": 10, "velocity": 81}, {"time": 152641, "pitch": 35, "duration": 10, "velocity": 103}, {"time": 152641, "pitch": 46, "duration": 10, "velocity": 76}, {"time": 152881, "pitch": 40, "duration": 10, "velocity": 112}, {"time": 152881, "pitch": 46, "duration": 10, "velocity": 61}, {"time": 153122, "pitch": 35, "duration": 10, "velocity": 115}, {"time": 153122, "pitch": 46, "duration": 10, "velocity": 87}, {"time": 153359, "pitch": 40, "duration": 10, "velocity": 112}, {"time": 153359, "pitch": 46, "duration": 10, "velocity": 78}, {"time": 153517, "pitch": 35, "duration": 10, "velocity": 116}, {"time": 153596, "pitch": 46, "duration": 10, "velocity": 73}, {"time": 153757, "pitch": 35, "duration": 10, "velocity": 97}, {"time": 153837, "pitch": 40, "duration": 10, "velocity": 114}, {"time": 153837, "pitch": 46, "duration": 10, "velocity": 60}, {"time": 154078, "pitch": 35, "duration": 10, "velocity": 116}, {"time": 154078, "pitch": 46, "duration": 10, "velocity": 92}, {"time": 154319, "pitch": 40, "duration": 10, "velocity": 113}, {"time": 154319, "pitch": 46, "duration": 10, "velocity": 81}, {"time": 154560, "pitch": 35, "duration": 10, "velocity": 103}, {"time": 154560, "pitch": 46, "duration": 10, "velocity": 76}, {"time": 154801, "pitch": 40, "duration": 10, "velocity": 112}, {"time": 154801, "pitch": 46, "duration": 10, "velocity": 61}, {"time": 155041, "pitch": 35, "duration": 11, "velocity": 115}, {"time": 155041, "pitch": 46, "duration": 11, "velocity": 87}, {"time": 155282, "pitch": 40, "duration": 10, "velocity": 112}, {"time": 155282, "pitch": 46, "duration": 10, "velocity": 78}, {"time": 155443, "pitch": 35, "duration": 10, "velocity": 116}, {"time": 155523, "pitch": 46, "duration": 10, "velocity": 73}, {"time": 155681, "pitch": 35, "duration": 10, "velocity": 97}, {"time": 155760, "pitch": 40, "duration": 10, "velocity": 114}, {"time": 155760, "pitch": 46, "duration": 10, "velocity": 60}, {"time": 155997, "pitch": 35, "duration": 10, "velocity": 109}, {"time": 155997, "pitch": 46, "duration": 10, "velocity": 88}, {"time": 156238, "pitch": 40, "duration": 10, "velocity": 110}, {"time": 156238, "pitch": 46, "duration": 10, "velocity": 74}, {"time": 156479, "pitch": 35, "duration": 10, "velocity": 96}, {"time": 156479, "pitch": 46, "duration": 10, "velocity": 74}, {"time": 156720, "pitch": 40, "duration": 10, "velocity": 110}, {"time": 156720, "pitch": 46, "duration": 10, "velocity": 63}, {"time": 156961, "pitch": 35, "duration": 10, "velocity": 116}, {"time": 156961, "pitch": 40, "duration": 10, "velocity": 115}, {"time": 157041, "pitch": 45, "duration": 10, "velocity": 85}, {"time": 157121, "pitch": 41, "duration": 10, "velocity": 88}, {"time": 157202, "pitch": 41, "duration": 10, "velocity": 97}, {"time": 157282, "pitch": 45, "duration": 10, "velocity": 89}, {"time": 157362, "pitch": 41, "duration": 10, "velocity": 86}, {"time": 157442, "pitch": 35, "duration": 10, "velocity": 98}, {"time": 157442, "pitch": 40, "duration": 10, "velocity": 110}, {"time": 157522, "pitch": 45, "duration": 11, "velocity": 88}, {"time": 157603, "pitch": 41, "duration": 10, "velocity": 87}, {"time": 157683, "pitch": 41, "duration": 10, "velocity": 96}, {"time": 157763, "pitch": 45, "duration": 10, "velocity": 84}, {"time": 157844, "pitch": 41, "duration": 10, "velocity": 89}, {"time": 157924, "pitch": 35, "duration": 10, "velocity": 116}, {"time": 157924, "pitch": 49, "duration": 10, "velocity": 90}, {"time": 2880, "pitch": 54, "duration": 241, "velocity": 90}, {"time": 3844, "pitch": 54, "duration": 118, "velocity": 90}, {"time": 4318, "pitch": 84, "duration": 1563, "velocity": 101}, {"time": 5281, "pitch": 54, "duration": 121, "velocity": 127}, {"time": 5522, "pitch": 54, "duration": 120, "velocity": 127}, {"time": 5763, "pitch": 50, "duration": 53, "velocity": 54}, {"time": 5842, "pitch": 50, "duration": 59, "velocity": 53}, {"time": 5921, "pitch": 50, "duration": 59, "velocity": 53}, {"time": 6000, "pitch": 50, "duration": 39, "velocity": 52}, {"time": 6000, "pitch": 57, "duration": 357, "velocity": 92}, {"time": 7200, "pitch": 54, "duration": 121, "velocity": 127}, {"time": 7441, "pitch": 54, "duration": 121, "velocity": 127}, {"time": 7682, "pitch": 50, "duration": 54, "velocity": 54}, {"time": 7762, "pitch": 50, "duration": 61, "velocity": 53}, {"time": 7843, "pitch": 50, "duration": 60, "velocity": 53}, {"time": 7923, "pitch": 50, "duration": 40, "velocity": 52}, {"time": 7923, "pitch": 57, "duration": 359, "velocity": 92}, {"time": 8164, "pitch": 84, "duration": 1558, "velocity": 101}, {"time": 9120, "pitch": 54, "duration": 120, "velocity": 127}, {"time": 9360, "pitch": 54, "duration": 121, "velocity": 127}, {"time": 9601, "pitch": 50, "duration": 54, "velocity": 54}, {"time": 9682, "pitch": 50, "duration": 60, "velocity": 53}, {"time": 9762, "pitch": 50, "duration": 60, "velocity": 53}, {"time": 9842, "pitch": 50, "duration": 40, "velocity": 52}, {"time": 9842, "pitch": 57, "duration": 360, "velocity": 92}, {"time": 10958, "pitch": 39, "duration": 121, "velocity": 127}, {"time": 11199, "pitch": 39, "duration": 121, "velocity": 127}, {"time": 11280, "pitch": 39, "duration": 40, "velocity": 127}, {"time": 12958, "pitch": 39, "duration": 120, "velocity": 127}, {"time": 13199, "pitch": 39, "duration": 120, "velocity": 127}, {"time": 13440, "pitch": 70, "duration": 54, "velocity": 104}, {"time": 13520, "pitch": 70, "duration": 60, "velocity": 103}, {"time": 13600, "pitch": 70, "duration": 60, "velocity": 103}, {"time": 13681, "pitch": 70, "duration": 40, "velocity": 102}, {"time": 14877, "pitch": 39, "duration": 121, "velocity": 127}, {"time": 15118, "pitch": 39, "duration": 120, "velocity": 127}, {"time": 15359, "pitch": 70, "duration": 54, "velocity": 104}, {"time": 15439, "pitch": 70, "duration": 60, "velocity": 103}, {"time": 15519, "pitch": 70, "duration": 61, "velocity": 103}, {"time": 15600, "pitch": 70, "duration": 40, "velocity": 102}, {"time": 16796, "pitch": 39, "duration": 121, "velocity": 127}, {"time": 17037, "pitch": 39, "duration": 121, "velocity": 127}, {"time": 17278, "pitch": 70, "duration": 54, "velocity": 104}, {"time": 17358, "pitch": 70, "duration": 61, "velocity": 103}, {"time": 17439, "pitch": 70, "duration": 60, "velocity": 103}, {"time": 17519, "pitch": 70, "duration": 40, "velocity": 102}, {"time": 18723, "pitch": 39, "duration": 119, "velocity": 127}, {"time": 18960, "pitch": 39, "duration": 119, "velocity": 127}, {"time": 19197, "pitch": 70, "duration": 54, "velocity": 104}, {"time": 19278, "pitch": 70, "duration": 60, "velocity": 103}, {"time": 19358, "pitch": 70, "duration": 60, "velocity": 103}, {"time": 19438, "pitch": 70, "duration": 40, "velocity": 102}, {"time": 20643, "pitch": 39, "duration": 118, "velocity": 127}, {"time": 20880, "pitch": 39, "duration": 118, "velocity": 127}, {"time": 21117, "pitch": 70, "duration": 54, "velocity": 104}, {"time": 21197, "pitch": 70, "duration": 60, "velocity": 103}, {"time": 21277, "pitch": 70, "duration": 60, "velocity": 103}, {"time": 21357, "pitch": 70, "duration": 41, "velocity": 102}, {"time": 22562, "pitch": 39, "duration": 120, "velocity": 127}, {"time": 22803, "pitch": 39, "duration": 120, "velocity": 127}, {"time": 23043, "pitch": 70, "duration": 54, "velocity": 104}, {"time": 23122, "pitch": 70, "duration": 60, "velocity": 103}, {"time": 23201, "pitch": 70, "duration": 60, "velocity": 103}, {"time": 23280, "pitch": 70, "duration": 40, "velocity": 102}, {"time": 24481, "pitch": 39, "duration": 120, "velocity": 127}, {"time": 24722, "pitch": 39, "duration": 120, "velocity": 127}, {"time": 24963, "pitch": 70, "duration": 53, "velocity": 104}, {"time": 25042, "pitch": 70, "duration": 59, "velocity": 103}, {"time": 25121, "pitch": 70, "duration": 59, "velocity": 103}, {"time": 25200, "pitch": 70, "duration": 39, "velocity": 102}, {"time": 50402, "pitch": 57, "duration": 120, "velocity": 92}, {"time": 50402, "pitch": 84, "duration": 1558, "velocity": 101}, {"time": 51358, "pitch": 39, "duration": 120, "velocity": 127}, {"time": 51598, "pitch": 39, "duration": 121, "velocity": 127}, {"time": 51839, "pitch": 50, "duration": 55, "velocity": 54}, {"time": 51920, "pitch": 50, "duration": 60, "velocity": 53}, {"time": 52000, "pitch": 50, "duration": 60, "velocity": 53}, {"time": 52080, "pitch": 50, "duration": 40, "velocity": 52}, {"time": 52080, "pitch": 57, "duration": 362, "velocity": 92}, {"time": 53277, "pitch": 39, "duration": 120, "velocity": 127}, {"time": 53518, "pitch": 39, "duration": 120, "velocity": 127}, {"time": 53759, "pitch": 50, "duration": 54, "velocity": 54}, {"time": 53839, "pitch": 50, "duration": 60, "velocity": 53}, {"time": 53919, "pitch": 50, "duration": 60, "velocity": 53}, {"time": 53999, "pitch": 50, "duration": 41, "velocity": 52}, {"time": 53999, "pitch": 57, "duration": 362, "velocity": 92}, {"time": 55204, "pitch": 39, "duration": 118, "velocity": 127}, {"time": 55441, "pitch": 39, "duration": 118, "velocity": 127}, {"time": 55678, "pitch": 50, "duration": 54, "velocity": 54}, {"time": 55758, "pitch": 50, "duration": 60, "velocity": 53}, {"time": 55838, "pitch": 50, "duration": 61, "velocity": 53}, {"time": 55919, "pitch": 50, "duration": 40, "velocity": 52}, {"time": 55919, "pitch": 57, "duration": 361, "velocity": 92}, {"time": 57123, "pitch": 39, "duration": 119, "velocity": 127}, {"time": 57360, "pitch": 39, "duration": 119, "velocity": 127}, {"time": 57597, "pitch": 50, "duration": 54, "velocity": 54}, {"time": 57677, "pitch": 50, "duration": 60, "velocity": 53}, {"time": 57758, "pitch": 50, "duration": 60, "velocity": 53}, {"time": 57838, "pitch": 50, "duration": 40, "velocity": 52}, {"time": 57838, "pitch": 57, "duration": 241, "velocity": 92}, {"time": 59042, "pitch": 39, "duration": 119, "velocity": 127}, {"time": 59279, "pitch": 39, "duration": 119, "velocity": 127}, {"time": 59516, "pitch": 70, "duration": 54, "velocity": 104}, {"time": 59596, "pitch": 70, "duration": 61, "velocity": 103}, {"time": 59677, "pitch": 70, "duration": 60, "velocity": 103}, {"time": 59757, "pitch": 70, "duration": 40, "velocity": 102}, {"time": 60961, "pitch": 39, "duration": 121, "velocity": 127}, {"time": 61202, "pitch": 39, "duration": 121, "velocity": 127}, {"time": 61443, "pitch": 70, "duration": 53, "velocity": 104}, {"time": 61522, "pitch": 70, "duration": 59, "velocity": 103}, {"time": 61601, "pitch": 70, "duration": 59, "velocity": 103}, {"time": 61680, "pitch": 70, "duration": 40, "velocity": 102}, {"time": 62881, "pitch": 39, "duration": 120, "velocity": 127}, {"time": 63122, "pitch": 39, "duration": 120, "velocity": 127}, {"time": 63362, "pitch": 70, "duration": 54, "velocity": 104}, {"time": 63441, "pitch": 70, "duration": 60, "velocity": 103}, {"time": 63520, "pitch": 70, "duration": 60, "velocity": 103}, {"time": 63599, "pitch": 70, "duration": 40, "velocity": 102}, {"time": 64800, "pitch": 39, "duration": 120, "velocity": 127}, {"time": 65041, "pitch": 39, "duration": 120, "velocity": 127}, {"time": 65282, "pitch": 70, "duration": 54, "velocity": 104}, {"time": 65362, "pitch": 70, "duration": 60, "velocity": 103}, {"time": 65442, "pitch": 70, "duration": 60, "velocity": 103}, {"time": 65523, "pitch": 70, "duration": 40, "velocity": 102}, {"time": 66719, "pitch": 39, "duration": 120, "velocity": 127}, {"time": 66960, "pitch": 39, "duration": 120, "velocity": 127}, {"time": 67201, "pitch": 70, "duration": 54, "velocity": 104}, {"time": 67281, "pitch": 70, "duration": 60, "velocity": 103}, {"time": 67361, "pitch": 70, "duration": 61, "velocity": 103}, {"time": 67442, "pitch": 70, "duration": 40, "velocity": 102}, {"time": 68638, "pitch": 39, "duration": 121, "velocity": 127}, {"time": 68879, "pitch": 39, "duration": 121, "velocity": 127}, {"time": 69120, "pitch": 70, "duration": 54, "velocity": 104}, {"time": 69200, "pitch": 70, "duration": 61, "velocity": 103}, {"time": 69281, "pitch": 70, "duration": 60, "velocity": 103}, {"time": 69361, "pitch": 70, "duration": 40, "velocity": 102}, {"time": 70557, "pitch": 39, "duration": 121, "velocity": 127}, {"time": 70798, "pitch": 39, "duration": 121, "velocity": 127}, {"time": 71039, "pitch": 70, "duration": 54, "velocity": 104}, {"time": 71120, "pitch": 70, "duration": 60, "velocity": 103}, {"time": 71200, "pitch": 70, "duration": 60, "velocity": 103}, {"time": 71280, "pitch": 70, "duration": 40, "velocity": 102}, {"time": 96478, "pitch": 84, "duration": 1564, "velocity": 101}, {"time": 97442, "pitch": 54, "duration": 120, "velocity": 127}, {"time": 97683, "pitch": 54, "duration": 120, "velocity": 127}, {"time": 97924, "pitch": 50, "duration": 53, "velocity": 54}, {"time": 98003, "pitch": 50, "duration": 59, "velocity": 53}, {"time": 98082, "pitch": 50, "duration": 59, "velocity": 53}, {"time": 98161, "pitch": 50, "duration": 39, "velocity": 52}, {"time": 98161, "pitch": 57, "duration": 357, "velocity": 92}, {"time": 99361, "pitch": 54, "duration": 121, "velocity": 127}, {"time": 99602, "pitch": 54, "duration": 120, "velocity": 127}, {"time": 99843, "pitch": 50, "duration": 53, "velocity": 54}, {"time": 99922, "pitch": 50, "duration": 59, "velocity": 53}, {"time": 100001, "pitch": 50, "duration": 59, "velocity": 53}, {"time": 100080, "pitch": 50, "duration": 39, "velocity": 52}, {"time": 100080, "pitch": 57, "duration": 357, "velocity": 92}, {"time": 100317, "pitch": 84, "duration": 1566, "velocity": 101}, {"time": 101280, "pitch": 54, "duration": 121, "velocity": 127}, {"time": 101521, "pitch": 54, "duration": 121, "velocity": 127}, {"time": 101762, "pitch": 50, "duration": 54, "velocity": 54}, {"time": 101842, "pitch": 50, "duration": 61, "velocity": 53}, {"time": 101923, "pitch": 50, "duration": 60, "velocity": 53}, {"time": 102003, "pitch": 50, "duration": 40, "velocity": 52}, {"time": 102003, "pitch": 57, "duration": 359, "velocity": 92}, {"time": 103119, "pitch": 39, "duration": 121, "velocity": 127}, {"time": 103360, "pitch": 39, "duration": 121, "velocity": 127}, {"time": 103440, "pitch": 39, "duration": 41, "velocity": 127}, {"time": 105119, "pitch": 39, "duration": 120, "velocity": 127}, {"time": 105360, "pitch": 39, "duration": 120, "velocity": 127}, {"time": 105600, "pitch": 70, "duration": 55, "velocity": 104}, {"time": 105681, "pitch": 70, "duration": 60, "velocity": 103}, {"time": 105761, "pitch": 70, "duration": 60, "velocity": 103}, {"time": 105841, "pitch": 70, "duration": 41, "velocity": 102}, {"time": 107038, "pitch": 39, "duration": 120, "velocity": 127}, {"time": 107279, "pitch": 39, "duration": 120, "velocity": 127}, {"time": 107520, "pitch": 70, "duration": 54, "velocity": 104}, {"time": 107600, "pitch": 70, "duration": 60, "velocity": 103}, {"time": 107680, "pitch": 70, "duration": 61, "velocity": 103}, {"time": 107761, "pitch": 70, "duration": 40, "velocity": 102}, {"time": 108957, "pitch": 39, "duration": 121, "velocity": 127}, {"time": 109198, "pitch": 39, "duration": 120, "velocity": 127}, {"time": 109439, "pitch": 70, "duration": 54, "velocity": 104}, {"time": 109519, "pitch": 70, "duration": 60, "velocity": 103}, {"time": 109599, "pitch": 70, "duration": 61, "velocity": 103}, {"time": 109680, "pitch": 70, "duration": 40, "velocity": 102}, {"time": 110876, "pitch": 39, "duration": 121, "velocity": 127}, {"time": 111117, "pitch": 39, "duration": 121, "velocity": 127}, {"time": 111358, "pitch": 70, "duration": 54, "velocity": 104}, {"time": 111438, "pitch": 70, "duration": 61, "velocity": 103}, {"time": 111519, "pitch": 70, "duration": 60, "velocity": 103}, {"time": 111599, "pitch": 70, "duration": 40, "velocity": 102}, {"time": 112803, "pitch": 39, "duration": 119, "velocity": 127}, {"time": 113040, "pitch": 39, "duration": 119, "velocity": 127}, {"time": 113277, "pitch": 70, "duration": 54, "velocity": 104}, {"time": 113358, "pitch": 70, "duration": 60, "velocity": 103}, {"time": 113438, "pitch": 70, "duration": 60, "velocity": 103}, {"time": 113518, "pitch": 70, "duration": 40, "velocity": 102}, {"time": 114723, "pitch": 39, "duration": 118, "velocity": 127}, {"time": 114960, "pitch": 39, "duration": 118, "velocity": 127}, {"time": 115197, "pitch": 70, "duration": 54, "velocity": 104}, {"time": 115277, "pitch": 70, "duration": 60, "velocity": 103}, {"time": 115357, "pitch": 70, "duration": 60, "velocity": 103}, {"time": 115437, "pitch": 70, "duration": 41, "velocity": 102}, {"time": 116642, "pitch": 39, "duration": 120, "velocity": 127}, {"time": 116883, "pitch": 39, "duration": 120, "velocity": 127}, {"time": 117123, "pitch": 70, "duration": 54, "velocity": 104}, {"time": 117202, "pitch": 70, "duration": 60, "velocity": 103}, {"time": 117281, "pitch": 70, "duration": 60, "velocity": 103}, {"time": 117360, "pitch": 70, "duration": 40, "velocity": 102}, {"time": 142563, "pitch": 84, "duration": 1558, "velocity": 101}, {"time": 143518, "pitch": 39, "duration": 121, "velocity": 127}, {"time": 143759, "pitch": 39, "duration": 121, "velocity": 127}, {"time": 144000, "pitch": 50, "duration": 54, "velocity": 54}, {"time": 144080, "pitch": 50, "duration": 61, "velocity": 53}, {"time": 144161, "pitch": 50, "duration": 60, "velocity": 53}, {"time": 144241, "pitch": 50, "duration": 40, "velocity": 52}, {"time": 144241, "pitch": 57, "duration": 361, "velocity": 92}, {"time": 145438, "pitch": 39, "duration": 120, "velocity": 127}, {"time": 145678, "pitch": 39, "duration": 121, "velocity": 127}, {"time": 145919, "pitch": 50, "duration": 55, "velocity": 54}, {"time": 146000, "pitch": 50, "duration": 60, "velocity": 53}, {"time": 146080, "pitch": 50, "duration": 60, "velocity": 53}, {"time": 146160, "pitch": 50, "duration": 40, "velocity": 52}, {"time": 146160, "pitch": 57, "duration": 362, "velocity": 92}, {"time": 147357, "pitch": 39, "duration": 120, "velocity": 127}, {"time": 147598, "pitch": 39, "duration": 120, "velocity": 127}, {"time": 147839, "pitch": 50, "duration": 54, "velocity": 54}, {"time": 147919, "pitch": 50, "duration": 60, "velocity": 53}, {"time": 147999, "pitch": 50, "duration": 60, "velocity": 53}, {"time": 148079, "pitch": 50, "duration": 41, "velocity": 52}, {"time": 148079, "pitch": 57, "duration": 362, "velocity": 92}, {"time": 149284, "pitch": 39, "duration": 118, "velocity": 127}, {"time": 149521, "pitch": 39, "duration": 118, "velocity": 127}, {"time": 149758, "pitch": 50, "duration": 54, "velocity": 54}, {"time": 149838, "pitch": 50, "duration": 60, "velocity": 53}, {"time": 149918, "pitch": 50, "duration": 61, "velocity": 53}, {"time": 149999, "pitch": 50, "duration": 40, "velocity": 52}, {"time": 149999, "pitch": 57, "duration": 361, "velocity": 92}, {"time": 150240, "pitch": 84, "duration": 1557, "velocity": 101}, {"time": 151203, "pitch": 39, "duration": 119, "velocity": 127}, {"time": 151440, "pitch": 39, "duration": 119, "velocity": 127}, {"time": 151677, "pitch": 50, "duration": 54, "velocity": 54}, {"time": 151757, "pitch": 50, "duration": 60, "velocity": 53}, {"time": 151838, "pitch": 50, "duration": 60, "velocity": 53}, {"time": 151918, "pitch": 50, "duration": 40, "velocity": 52}, {"time": 151918, "pitch": 57, "duration": 361, "velocity": 92}, {"time": 153122, "pitch": 39, "duration": 119, "velocity": 127}, {"time": 153359, "pitch": 39, "duration": 119, "velocity": 127}, {"time": 153596, "pitch": 50, "duration": 54, "velocity": 54}, {"time": 153676, "pitch": 50, "duration": 61, "velocity": 53}, {"time": 153757, "pitch": 50, "duration": 60, "velocity": 53}, {"time": 153837, "pitch": 50, "duration": 40, "velocity": 52}, {"time": 153837, "pitch": 57, "duration": 361, "velocity": 92}, {"time": 155041, "pitch": 39, "duration": 121, "velocity": 127}, {"time": 155282, "pitch": 39, "duration": 121, "velocity": 127}, {"time": 155523, "pitch": 50, "duration": 54, "velocity": 54}, {"time": 155602, "pitch": 50, "duration": 59, "velocity": 53}, {"time": 155681, "pitch": 50, "duration": 59, "velocity": 53}, {"time": 155760, "pitch": 50, "duration": 40, "velocity": 52}, {"time": 155760, "pitch": 57, "duration": 358, "velocity": 92}, {"time": 156961, "pitch": 39, "duration": 120, "velocity": 127}, {"time": 157202, "pitch": 39, "duration": 120, "velocity": 127}, {"time": 157442, "pitch": 50, "duration": 55, "velocity": 54}, {"time": 157522, "pitch": 50, "duration": 61, "velocity": 53}, {"time": 157603, "pitch": 50, "duration": 61, "velocity": 53}, {"time": 157683, "pitch": 50, "duration": 41, "velocity": 52}, {"time": 157683, "pitch": 57, "duration": 360, "velocity": 92}, {"time": 480, "pitch": 101, "duration": 505, "velocity": 110}, {"time": 961, "pitch": 94, "duration": 472, "velocity": 110}, {"time": 1443, "pitch": 96, "duration": 492, "velocity": 110}, {"time": 1917, "pitch": 103, "duration": 466, "velocity": 110}, {"time": 2398, "pitch": 101, "duration": 507, "velocity": 110}, {"time": 2880, "pitch": 94, "duration": 484, "velocity": 110}, {"time": 3362, "pitch": 96, "duration": 474, "velocity": 110}, {"time": 3844, "pitch": 89, "duration": 345, "velocity": 110}, {"time": 4318, "pitch": 101, "duration": 253, "velocity": 110}, {"time": 4558, "pitch": 94, "duration": 242, "velocity": 110}, {"time": 4799, "pitch": 96, "duration": 237, "velocity": 110}, {"time": 5040, "pitch": 89, "duration": 176, "velocity": 110}, {"time": 5281, "pitch": 101, "duration": 253, "velocity": 110}, {"time": 5522, "pitch": 94, "duration": 242, "velocity": 110}, {"time": 5763, "pitch": 96, "duration": 233, "velocity": 110}, {"time": 6000, "pitch": 89, "duration": 173, "velocity": 110}, {"time": 6237, "pitch": 101, "duration": 253, "velocity": 110}, {"time": 6478, "pitch": 94, "duration": 242, "velocity": 110}, {"time": 6719, "pitch": 96, "duration": 236, "velocity": 110}, {"time": 6959, "pitch": 89, "duration": 176, "velocity": 110}, {"time": 7200, "pitch": 101, "duration": 253, "velocity": 110}, {"time": 7441, "pitch": 94, "duration": 242, "velocity": 110}, {"time": 7682, "pitch": 96, "duration": 237, "velocity": 110}, {"time": 7923, "pitch": 89, "duration": 176, "velocity": 110}, {"time": 8164, "pitch": 101, "duration": 249, "velocity": 110}, {"time": 8401, "pitch": 94, "duration": 238, "velocity": 110}, {"time": 8638, "pitch": 96, "duration": 237, "velocity": 110}, {"time": 8879, "pitch": 89, "duration": 175, "velocity": 110}, {"time": 9120, "pitch": 101, "duration": 252, "velocity": 110}, {"time": 9360, "pitch": 94, "duration": 242, "velocity": 110}, {"time": 9601, "pitch": 96, "duration": 237, "velocity": 110}, {"time": 9842, "pitch": 89, "duration": 176, "velocity": 110}, {"time": 10083, "pitch": 101, "duration": 249, "velocity": 110}, {"time": 10320, "pitch": 94, "duration": 238, "velocity": 110}, {"time": 10557, "pitch": 96, "duration": 237, "velocity": 110}, {"time": 10798, "pitch": 89, "duration": 175, "velocity": 110}, {"time": 18723, "pitch": 94, "duration": 79, "velocity": 117}, {"time": 18881, "pitch": 94, "duration": 79, "velocity": 109}, {"time": 18960, "pitch": 93, "duration": 79, "velocity": 105}, {"time": 19197, "pitch": 91, "duration": 81, "velocity": 103}, {"time": 19438, "pitch": 89, "duration": 80, "velocity": 106}, {"time": 19599, "pitch": 94, "duration": 80, "velocity": 109}, {"time": 24481, "pitch": 94, "duration": 80, "velocity": 117}, {"time": 24642, "pitch": 94, "duration": 80, "velocity": 109}, {"time": 24722, "pitch": 93, "duration": 80, "velocity": 105}, {"time": 24963, "pitch": 91, "duration": 79, "velocity": 103}, {"time": 25200, "pitch": 93, "duration": 79, "velocity": 106}, {"time": 25358, "pitch": 94, "duration": 79, "velocity": 109}, {"time": 50402, "pitch": 104, "duration": 253, "velocity": 110}, {"time": 50643, "pitch": 97, "duration": 242, "velocity": 110}, {"time": 50884, "pitch": 99, "duration": 233, "velocity": 110}, {"time": 51121, "pitch": 92, "duration": 172, "velocity": 110}, {"time": 51358, "pitch": 104, "duration": 253, "velocity": 110}, {"time": 51598, "pitch": 97, "duration": 242, "velocity": 110}, {"time": 51839, "pitch": 99, "duration": 237, "velocity": 110}, {"time": 52080, "pitch": 92, "duration": 176, "velocity": 110}, {"time": 52321, "pitch": 111, "duration": 253, "velocity": 110}, {"time": 52562, "pitch": 104, "duration": 242, "velocity": 110}, {"time": 52803, "pitch": 106, "duration": 233, "velocity": 110}, {"time": 53040, "pitch": 99, "duration": 173, "velocity": 110}, {"time": 53277, "pitch": 111, "duration": 253, "velocity": 110}, {"time": 53518, "pitch": 104, "duration": 242, "velocity": 110}, {"time": 53759, "pitch": 106, "duration": 236, "velocity": 110}, {"time": 53999, "pitch": 99, "duration": 176, "velocity": 110}, {"time": 54240, "pitch": 108, "duration": 253, "velocity": 110}, {"time": 54481, "pitch": 101, "duration": 242, "velocity": 110}, {"time": 54722, "pitch": 103, "duration": 237, "velocity": 110}, {"time": 54963, "pitch": 96, "duration": 176, "velocity": 110}, {"time": 55204, "pitch": 108, "duration": 249, "velocity": 110}, {"time": 55441, "pitch": 101, "duration": 238, "velocity": 110}, {"time": 55678, "pitch": 103, "duration": 237, "velocity": 110}, {"time": 55919, "pitch": 96, "duration": 175, "velocity": 110}, {"time": 56160, "pitch": 109, "duration": 252, "velocity": 110}, {"time": 56400, "pitch": 102, "duration": 242, "velocity": 110}, {"time": 56641, "pitch": 104, "duration": 237, "velocity": 110}, {"time": 56882, "pitch": 97, "duration": 176, "velocity": 110}, {"time": 57123, "pitch": 111, "duration": 249, "velocity": 110}, {"time": 57360, "pitch": 104, "duration": 238, "velocity": 110}, {"time": 57597, "pitch": 106, "duration": 237, "velocity": 110}, {"time": 57838, "pitch": 99, "duration": 175, "velocity": 110}, {"time": 64800, "pitch": 94, "duration": 80, "velocity": 117}, {"time": 64960, "pitch": 94, "duration": 81, "velocity": 109}, {"time": 65041, "pitch": 93, "duration": 80, "velocity": 105}, {"time": 65282, "pitch": 91, "duration": 80, "velocity": 103}, {"time": 65523, "pitch": 89, "duration": 80, "velocity": 106}, {"time": 65683, "pitch": 94, "duration": 80, "velocity": 109}, {"time": 70557, "pitch": 94, "duration": 81, "velocity": 117}, {"time": 70718, "pitch": 94, "duration": 80, "velocity": 109}, {"time": 70798, "pitch": 93, "duration": 81, "velocity": 105}, {"time": 71039, "pitch": 91, "duration": 81, "velocity": 103}, {"time": 71280, "pitch": 93, "duration": 80, "velocity": 106}, {"time": 71441, "pitch": 94, "duration": 80, "velocity": 109}, {"time": 96478, "pitch": 101, "duration": 253, "velocity": 110}, {"time": 96719, "pitch": 94, "duration": 242, "velocity": 110}, {"time": 96960, "pitch": 96, "duration": 237, "velocity": 110}, {"time": 97201, "pitch": 89, "duration": 176, "velocity": 110}, {"time": 97442, "pitch": 101, "duration": 253, "velocity": 110}, {"time": 97683, "pitch": 94, "duration": 242, "velocity": 110}, {"time": 97924, "pitch": 96, "duration": 233, "velocity": 110}, {"time": 98161, "pitch": 89, "duration": 172, "velocity": 110}, {"time": 98398, "pitch": 101, "duration": 253, "velocity": 110}, {"time": 98638, "pitch": 94, "duration": 242, "velocity": 110}, {"time": 98879, "pitch": 96, "duration": 237, "velocity": 110}, {"time": 99120, "pitch": 89, "duration": 176, "velocity": 110}, {"time": 99361, "pitch": 101, "duration": 253, "velocity": 110}, {"time": 99602, "pitch": 94, "duration": 242, "velocity": 110}, {"time": 99843, "pitch": 96, "duration": 233, "velocity": 110}, {"time": 100080, "pitch": 89, "duration": 173, "velocity": 110}, {"time": 100317, "pitch": 101, "duration": 253, "velocity": 110}, {"time": 100558, "pitch": 94, "duration": 242, "velocity": 110}, {"time": 100799, "pitch": 96, "duration": 236, "velocity": 110}, {"time": 101039, "pitch": 89, "duration": 176, "velocity": 110}, {"time": 101280, "pitch": 101, "duration": 253, "velocity": 110}, {"time": 101521, "pitch": 94, "duration": 242, "velocity": 110}, {"time": 101762, "pitch": 96, "duration": 237, "velocity": 110}, {"time": 102003, "pitch": 89, "duration": 176, "velocity": 110}, {"time": 102244, "pitch": 101, "duration": 249, "velocity": 110}, {"time": 102481, "pitch": 94, "duration": 238, "velocity": 110}, {"time": 102718, "pitch": 96, "duration": 237, "velocity": 110}, {"time": 102959, "pitch": 89, "duration": 175, "velocity": 110}, {"time": 110876, "pitch": 94, "duration": 81, "velocity": 117}, {"time": 111037, "pitch": 94, "duration": 80, "velocity": 109}, {"time": 111117, "pitch": 93, "duration": 81, "velocity": 105}, {"time": 111358, "pitch": 91, "duration": 80, "velocity": 103}, {"time": 111599, "pitch": 89, "duration": 80, "velocity": 106}, {"time": 111760, "pitch": 94, "duration": 80, "velocity": 109}, {"time": 116642, "pitch": 94, "duration": 80, "velocity": 117}, {"time": 116802, "pitch": 94, "duration": 81, "velocity": 109}, {"time": 116883, "pitch": 93, "duration": 80, "velocity": 105}, {"time": 117123, "pitch": 91, "duration": 79, "velocity": 103}, {"time": 117360, "pitch": 93, "duration": 79, "velocity": 106}, {"time": 117518, "pitch": 94, "duration": 79, "velocity": 109}, {"time": 142563, "pitch": 104, "duration": 249, "velocity": 110}, {"time": 142800, "pitch": 97, "duration": 238, "velocity": 110}, {"time": 143037, "pitch": 99, "duration": 237, "velocity": 110}, {"time": 143278, "pitch": 92, "duration": 175, "velocity": 110}, {"time": 143518, "pitch": 104, "duration": 253, "velocity": 110}, {"time": 143759, "pitch": 97, "duration": 242, "velocity": 110}, {"time": 144000, "pitch": 99, "duration": 237, "velocity": 110}, {"time": 144241, "pitch": 92, "duration": 176, "velocity": 110}, {"time": 144482, "pitch": 111, "duration": 253, "velocity": 110}, {"time": 144723, "pitch": 104, "duration": 242, "velocity": 110}, {"time": 144964, "pitch": 106, "duration": 233, "velocity": 110}, {"time": 145201, "pitch": 99, "duration": 172, "velocity": 110}, {"time": 145438, "pitch": 111, "duration": 253, "velocity": 110}, {"time": 145678, "pitch": 104, "duration": 242, "velocity": 110}, {"time": 145919, "pitch": 106, "duration": 237, "velocity": 110}, {"time": 146160, "pitch": 99, "duration": 176, "velocity": 110}, {"time": 146401, "pitch": 108, "duration": 253, "velocity": 110}, {"time": 146642, "pitch": 101, "duration": 242, "velocity": 110}, {"time": 146883, "pitch": 103, "duration": 233, "velocity": 110}, {"time": 147120, "pitch": 96, "duration": 173, "velocity": 110}, {"time": 147357, "pitch": 108, "duration": 253, "velocity": 110}, {"time": 147598, "pitch": 101, "duration": 242, "velocity": 110}, {"time": 147839, "pitch": 103, "duration": 236, "velocity": 110}, {"time": 148079, "pitch": 96, "duration": 176, "velocity": 110}, {"time": 148320, "pitch": 109, "duration": 253, "velocity": 110}, {"time": 148561, "pitch": 102, "duration": 242, "velocity": 110}, {"time": 148802, "pitch": 104, "duration": 237, "velocity": 110}, {"time": 149043, "pitch": 97, "duration": 176, "velocity": 110}, {"time": 149284, "pitch": 111, "duration": 249, "velocity": 110}, {"time": 149521, "pitch": 104, "duration": 238, "velocity": 110}, {"time": 149758, "pitch": 106, "duration": 237, "velocity": 110}, {"time": 149999, "pitch": 99, "duration": 175, "velocity": 110}, {"time": 150240, "pitch": 104, "duration": 252, "velocity": 110}, {"time": 150480, "pitch": 97, "duration": 242, "velocity": 110}, {"time": 150721, "pitch": 99, "duration": 237, "velocity": 110}, {"time": 150962, "pitch": 92, "duration": 176, "velocity": 110}, {"time": 151203, "pitch": 104, "duration": 249, "velocity": 110}, {"time": 151440, "pitch": 97, "duration": 238, "velocity": 110}, {"time": 151677, "pitch": 99, "duration": 237, "velocity": 110}, {"time": 151918, "pitch": 92, "duration": 176, "velocity": 110}, {"time": 152159, "pitch": 111, "duration": 253, "velocity": 110}, {"time": 152400, "pitch": 104, "duration": 242, "velocity": 110}, {"time": 152641, "pitch": 106, "duration": 236, "velocity": 110}, {"time": 152881, "pitch": 99, "duration": 176, "velocity": 110}, {"time": 153122, "pitch": 111, "duration": 249, "velocity": 110}, {"time": 153359, "pitch": 104, "duration": 238, "velocity": 110}, {"time": 153596, "pitch": 106, "duration": 237, "velocity": 110}, {"time": 153837, "pitch": 99, "duration": 176, "velocity": 110}, {"time": 154078, "pitch": 108, "duration": 253, "velocity": 110}, {"time": 154319, "pitch": 101, "duration": 242, "velocity": 110}, {"time": 154560, "pitch": 103, "duration": 237, "velocity": 110}, {"time": 154801, "pitch": 96, "duration": 175, "velocity": 110}, {"time": 155041, "pitch": 108, "duration": 253, "velocity": 110}, {"time": 155282, "pitch": 101, "duration": 242, "velocity": 110}, {"time": 155523, "pitch": 103, "duration": 233, "velocity": 110}, {"time": 155760, "pitch": 96, "duration": 173, "velocity": 110}, {"time": 155997, "pitch": 109, "duration": 253, "velocity": 110}, {"time": 156238, "pitch": 102, "duration": 242, "velocity": 110}, {"time": 156479, "pitch": 104, "duration": 237, "velocity": 110}, {"time": 156720, "pitch": 97, "duration": 175, "velocity": 110}, {"time": 156961, "pitch": 111, "duration": 253, "velocity": 110}, {"time": 157202, "pitch": 104, "duration": 241, "velocity": 110}, {"time": 157442, "pitch": 106, "duration": 237, "velocity": 110}, {"time": 157683, "pitch": 99, "duration": 176, "velocity": 110}, {"time": 480, "pitch": 89, "duration": 505, "velocity": 91}, {"time": 480, "pitch": 101, "duration": 505, "velocity": 91}, {"time": 961, "pitch": 82, "duration": 472, "velocity": 91}, {"time": 961, "pitch": 94, "duration": 472, "velocity": 91}, {"time": 1443, "pitch": 84, "duration": 492, "velocity": 91}, {"time": 1443, "pitch": 96, "duration": 492, "velocity": 91}, {"time": 1917, "pitch": 91, "duration": 466, "velocity": 91}, {"time": 1917, "pitch": 103, "duration": 466, "velocity": 91}, {"time": 2398, "pitch": 89, "duration": 507, "velocity": 90}, {"time": 2398, "pitch": 101, "duration": 507, "velocity": 90}, {"time": 2880, "pitch": 82, "duration": 484, "velocity": 90}, {"time": 2880, "pitch": 94, "duration": 484, "velocity": 90}, {"time": 3362, "pitch": 84, "duration": 474, "velocity": 90}, {"time": 3362, "pitch": 96, "duration": 474, "velocity": 90}, {"time": 3844, "pitch": 77, "duration": 345, "velocity": 90}, {"time": 3844, "pitch": 89, "duration": 345, "velocity": 90}, {"time": 4318, "pitch": 89, "duration": 253, "velocity": 90}, {"time": 4318, "pitch": 101, "duration": 253, "velocity": 90}, {"time": 4558, "pitch": 82, "duration": 242, "velocity": 90}, {"time": 4558, "pitch": 94, "duration": 242, "velocity": 90}, {"time": 4799, "pitch": 84, "duration": 237, "velocity": 90}, {"time": 4799, "pitch": 96, "duration": 237, "velocity": 90}, {"time": 5040, "pitch": 77, "duration": 176, "velocity": 90}, {"time": 5040, "pitch": 89, "duration": 176, "velocity": 90}, {"time": 5281, "pitch": 89, "duration": 253, "velocity": 90}, {"time": 5281, "pitch": 101, "duration": 253, "velocity": 90}, {"time": 5522, "pitch": 82, "duration": 242, "velocity": 90}, {"time": 5522, "pitch": 94, "duration": 242, "velocity": 90}, {"time": 5763, "pitch": 84, "duration": 233, "velocity": 90}, {"time": 5763, "pitch": 96, "duration": 233, "velocity": 90}, {"time": 6000, "pitch": 77, "duration": 173, "velocity": 90}, {"time": 6000, "pitch": 89, "duration": 173, "velocity": 90}, {"time": 6237, "pitch": 89, "duration": 253, "velocity": 90}, {"time": 6237, "pitch": 101, "duration": 253, "velocity": 90}, {"time": 6478, "pitch": 82, "duration": 242, "velocity": 90}, {"time": 6478, "pitch": 94, "duration": 242, "velocity": 90}, {"time": 6719, "pitch": 84, "duration": 236, "velocity": 90}, {"time": 6719, "pitch": 96, "duration": 236, "velocity": 90}, {"time": 6959, "pitch": 77, "duration": 176, "velocity": 90}, {"time": 6959, "pitch": 89, "duration": 176, "velocity": 90}, {"time": 7200, "pitch": 89, "duration": 253, "velocity": 90}, {"time": 7200, "pitch": 101, "duration": 253, "velocity": 90}, {"time": 7441, "pitch": 82, "duration": 242, "velocity": 90}, {"time": 7441, "pitch": 94, "duration": 242, "velocity": 90}, {"time": 7682, "pitch": 84, "duration": 237, "velocity": 90}, {"time": 7682, "pitch": 96, "duration": 237, "velocity": 90}, {"time": 7923, "pitch": 77, "duration": 176, "velocity": 90}, {"time": 7923, "pitch": 89, "duration": 176, "velocity": 90}, {"time": 8164, "pitch": 89, "duration": 249, "velocity": 90}, {"time": 8164, "pitch": 101, "duration": 249, "velocity": 90}, {"time": 8401, "pitch": 82, "duration": 238, "velocity": 90}, {"time": 8401, "pitch": 94, "duration": 238, "velocity": 90}, {"time": 8638, "pitch": 84, "duration": 237, "velocity": 90}, {"time": 8638, "pitch": 96, "duration": 237, "velocity": 90}, {"time": 8879, "pitch": 77, "duration": 175, "velocity": 90}, {"time": 8879, "pitch": 89, "duration": 175, "velocity": 90}, {"time": 9120, "pitch": 89, "duration": 252, "velocity": 90}, {"time": 9120, "pitch": 101, "duration": 252, "velocity": 90}, {"time": 9360, "pitch": 82, "duration": 242, "velocity": 90}, {"time": 9360, "pitch": 94, "duration": 242, "velocity": 90}, {"time": 9601, "pitch": 84, "duration": 237, "velocity": 90}, {"time": 9601, "pitch": 96, "duration": 237, "velocity": 90}, {"time": 9842, "pitch": 77, "duration": 176, "velocity": 90}, {"time": 9842, "pitch": 89, "duration": 176, "velocity": 90}, {"time": 10083, "pitch": 89, "duration": 249, "velocity": 90}, {"time": 10083, "pitch": 101, "duration": 249, "velocity": 90}, {"time": 10320, "pitch": 82, "duration": 238, "velocity": 90}, {"time": 10320, "pitch": 94, "duration": 238, "velocity": 90}, {"time": 10557, "pitch": 84, "duration": 237, "velocity": 90}, {"time": 10557, "pitch": 96, "duration": 237, "velocity": 90}, {"time": 10798, "pitch": 77, "duration": 175, "velocity": 90}, {"time": 10798, "pitch": 89, "duration": 175, "velocity": 90}, {"time": 18723, "pitch": 94, "duration": 79, "velocity": 87}, {"time": 18881, "pitch": 94, "duration": 79, "velocity": 79}, {"time": 18960, "pitch": 93, "duration": 79, "velocity": 75}, {"time": 19197, "pitch": 91, "duration": 81, "velocity": 73}, {"time": 19438, "pitch": 89, "duration": 80, "velocity": 76}, {"time": 19599, "pitch": 94, "duration": 80, "velocity": 79}, {"time": 24481, "pitch": 94, "duration": 80, "velocity": 87}, {"time": 24642, "pitch": 94, "duration": 80, "velocity": 79}, {"time": 24722, "pitch": 93, "duration": 80, "velocity": 75}, {"time": 24963, "pitch": 91, "duration": 79, "velocity": 73}, {"time": 25200, "pitch": 93, "duration": 79, "velocity": 76}, {"time": 25358, "pitch": 94, "duration": 79, "velocity": 79}, {"time": 50402, "pitch": 92, "duration": 253, "velocity": 90}, {"time": 50402, "pitch": 104, "duration": 253, "velocity": 90}, {"time": 50643, "pitch": 85, "duration": 242, "velocity": 90}, {"time": 50643, "pitch": 97, "duration": 242, "velocity": 90}, {"time": 50884, "pitch": 87, "duration": 233, "velocity": 90}, {"time": 50884, "pitch": 99, "duration": 233, "velocity": 90}, {"time": 51121, "pitch": 80, "duration": 172, "velocity": 90}, {"time": 51121, "pitch": 92, "duration": 172, "velocity": 90}, {"time": 51358, "pitch": 92, "duration": 253, "velocity": 90}, {"time": 51358, "pitch": 104, "duration": 253, "velocity": 90}, {"time": 51598, "pitch": 85, "duration": 242, "velocity": 90}, {"time": 51598, "pitch": 97, "duration": 242, "velocity": 90}, {"time": 51839, "pitch": 87, "duration": 237, "velocity": 90}, {"time": 51839, "pitch": 99, "duration": 237, "velocity": 90}, {"time": 52080, "pitch": 80, "duration": 176, "velocity": 90}, {"time": 52080, "pitch": 92, "duration": 176, "velocity": 90}, {"time": 52321, "pitch": 99, "duration": 253, "velocity": 90}, {"time": 52321, "pitch": 111, "duration": 253, "velocity": 90}, {"time": 52562, "pitch": 92, "duration": 242, "velocity": 90}, {"time": 52562, "pitch": 104, "duration": 242, "velocity": 90}, {"time": 52803, "pitch": 94, "duration": 233, "velocity": 90}, {"time": 52803, "pitch": 106, "duration": 233, "velocity": 90}, {"time": 53040, "pitch": 87, "duration": 173, "velocity": 90}, {"time": 53040, "pitch": 99, "duration": 173, "velocity": 90}, {"time": 53277, "pitch": 99, "duration": 253, "velocity": 90}, {"time": 53277, "pitch": 111, "duration": 253, "velocity": 90}, {"time": 53518, "pitch": 92, "duration": 242, "velocity": 90}, {"time": 53518, "pitch": 104, "duration": 242, "velocity": 90}, {"time": 53759, "pitch": 94, "duration": 236, "velocity": 90}, {"time": 53759, "pitch": 106, "duration": 236, "velocity": 90}, {"time": 53999, "pitch": 87, "duration": 176, "velocity": 90}, {"time": 53999, "pitch": 99, "duration": 176, "velocity": 90}, {"time": 54240, "pitch": 96, "duration": 253, "velocity": 90}, {"time": 54240, "pitch": 108, "duration": 253, "velocity": 90}, {"time": 54481, "pitch": 89, "duration": 242, "velocity": 90}, {"time": 54481, "pitch": 101, "duration": 242, "velocity": 90}, {"time": 54722, "pitch": 91, "duration": 237, "velocity": 90}, {"time": 54722, "pitch": 103, "duration": 237, "velocity": 90}, {"time": 54963, "pitch": 84, "duration": 176, "velocity": 90}, {"time": 54963, "pitch": 96, "duration": 176, "velocity": 90}, {"time": 55204, "pitch": 96, "duration": 249, "velocity": 90}, {"time": 55204, "pitch": 108, "duration": 249, "velocity": 90}, {"time": 55441, "pitch": 89, "duration": 238, "velocity": 90}, {"time": 55441, "pitch": 101, "duration": 238, "velocity": 90}, {"time": 55678, "pitch": 91, "duration": 237, "velocity": 90}, {"time": 55678, "pitch": 103, "duration": 237, "velocity": 90}, {"time": 55919, "pitch": 84, "duration": 175, "velocity": 90}, {"time": 55919, "pitch": 96, "duration": 175, "velocity": 90}, {"time": 56160, "pitch": 97, "duration": 252, "velocity": 90}, {"time": 56160, "pitch": 109, "duration": 252, "velocity": 90}, {"time": 56400, "pitch": 90, "duration": 242, "velocity": 90}, {"time": 56400, "pitch": 102, "duration": 242, "velocity": 90}, {"time": 56641, "pitch": 92, "duration": 237, "velocity": 90}, {"time": 56641, "pitch": 104, "duration": 237, "velocity": 90}, {"time": 56882, "pitch": 85, "duration": 176, "velocity": 90}, {"time": 56882, "pitch": 97, "duration": 176, "velocity": 90}, {"time": 57123, "pitch": 99, "duration": 249, "velocity": 90}, {"time": 57123, "pitch": 111, "duration": 249, "velocity": 90}, {"time": 57360, "pitch": 92, "duration": 238, "velocity": 90}, {"time": 57360, "pitch": 104, "duration": 238, "velocity": 90}, {"time": 57597, "pitch": 94, "duration": 237, "velocity": 90}, {"time": 57597, "pitch": 106, "duration": 237, "velocity": 90}, {"time": 57838, "pitch": 87, "duration": 175, "velocity": 90}, {"time": 57838, "pitch": 99, "duration": 175, "velocity": 90}, {"time": 64800, "pitch": 94, "duration": 80, "velocity": 87}, {"time": 64960, "pitch": 94, "duration": 81, "velocity": 79}, {"time": 65041, "pitch": 93, "duration": 80, "velocity": 75}, {"time": 65282, "pitch": 91, "duration": 80, "velocity": 73}, {"time": 65523, "pitch": 89, "duration": 80, "velocity": 76}, {"time": 65683, "pitch": 94, "duration": 80, "velocity": 79}, {"time": 70557, "pitch": 94, "duration": 81, "velocity": 87}, {"time": 70718, "pitch": 94, "duration": 80, "velocity": 79}, {"time": 70798, "pitch": 93, "duration": 81, "velocity": 75}, {"time": 71039, "pitch": 91, "duration": 81, "velocity": 73}, {"time": 71280, "pitch": 93, "duration": 80, "velocity": 76}, {"time": 71441, "pitch": 94, "duration": 80, "velocity": 79}, {"time": 96478, "pitch": 89, "duration": 253, "velocity": 90}, {"time": 96478, "pitch": 101, "duration": 253, "velocity": 90}, {"time": 96719, "pitch": 82, "duration": 242, "velocity": 90}, {"time": 96719, "pitch": 94, "duration": 242, "velocity": 90}, {"time": 96960, "pitch": 84, "duration": 237, "velocity": 90}, {"time": 96960, "pitch": 96, "duration": 237, "velocity": 90}, {"time": 97201, "pitch": 77, "duration": 176, "velocity": 90}, {"time": 97201, "pitch": 89, "duration": 176, "velocity": 90}, {"time": 97442, "pitch": 89, "duration": 253, "velocity": 90}, {"time": 97442, "pitch": 101, "duration": 253, "velocity": 90}, {"time": 97683, "pitch": 82, "duration": 242, "velocity": 90}, {"time": 97683, "pitch": 94, "duration": 242, "velocity": 90}, {"time": 97924, "pitch": 84, "duration": 233, "velocity": 90}, {"time": 97924, "pitch": 96, "duration": 233, "velocity": 90}, {"time": 98161, "pitch": 77, "duration": 172, "velocity": 90}, {"time": 98161, "pitch": 89, "duration": 172, "velocity": 90}, {"time": 98398, "pitch": 89, "duration": 253, "velocity": 90}, {"time": 98398, "pitch": 101, "duration": 253, "velocity": 90}, {"time": 98638, "pitch": 82, "duration": 242, "velocity": 90}, {"time": 98638, "pitch": 94, "duration": 242, "velocity": 90}, {"time": 98879, "pitch": 84, "duration": 237, "velocity": 90}, {"time": 98879, "pitch": 96, "duration": 237, "velocity": 90}, {"time": 99120, "pitch": 77, "duration": 176, "velocity": 90}, {"time": 99120, "pitch": 89, "duration": 176, "velocity": 90}, {"time": 99361, "pitch": 89, "duration": 253, "velocity": 90}, {"time": 99361, "pitch": 101, "duration": 253, "velocity": 90}, {"time": 99602, "pitch": 82, "duration": 242, "velocity": 90}, {"time": 99602, "pitch": 94, "duration": 242, "velocity": 90}, {"time": 99843, "pitch": 84, "duration": 233, "velocity": 90}, {"time": 99843, "pitch": 96, "duration": 233, "velocity": 90}, {"time": 100080, "pitch": 77, "duration": 173, "velocity": 90}, {"time": 100080, "pitch": 89, "duration": 173, "velocity": 90}, {"time": 100317, "pitch": 89, "duration": 253, "velocity": 90}, {"time": 100317, "pitch": 101, "duration": 253, "velocity": 90}, {"time": 100558, "pitch": 82, "duration": 242, "velocity": 90}, {"time": 100558, "pitch": 94, "duration": 242, "velocity": 90}, {"time": 100799, "pitch": 84, "duration": 236, "velocity": 90}, {"time": 100799, "pitch": 96, "duration": 236, "velocity": 90}, {"time": 101039, "pitch": 77, "duration": 176, "velocity": 90}, {"time": 101039, "pitch": 89, "duration": 176, "velocity": 90}, {"time": 101280, "pitch": 89, "duration": 253, "velocity": 90}, {"time": 101280, "pitch": 101, "duration": 253, "velocity": 90}, {"time": 101521, "pitch": 82, "duration": 242, "velocity": 90}, {"time": 101521, "pitch": 94, "duration": 242, "velocity": 90}, {"time": 101762, "pitch": 84, "duration": 237, "velocity": 90}, {"time": 101762, "pitch": 96, "duration": 237, "velocity": 90}, {"time": 102003, "pitch": 77, "duration": 176, "velocity": 90}, {"time": 102003, "pitch": 89, "duration": 176, "velocity": 90}, {"time": 102244, "pitch": 89, "duration": 249, "velocity": 90}, {"time": 102244, "pitch": 101, "duration": 249, "velocity": 90}, {"time": 102481, "pitch": 82, "duration": 238, "velocity": 90}, {"time": 102481, "pitch": 94, "duration": 238, "velocity": 90}, {"time": 102718, "pitch": 84, "duration": 237, "velocity": 90}, {"time": 102718, "pitch": 96, "duration": 237, "velocity": 90}, {"time": 102959, "pitch": 77, "duration": 175, "velocity": 90}, {"time": 102959, "pitch": 89, "duration": 175, "velocity": 90}, {"time": 110876, "pitch": 94, "duration": 81, "velocity": 87}, {"time": 111037, "pitch": 94, "duration": 80, "velocity": 79}, {"time": 111117, "pitch": 93, "duration": 81, "velocity": 75}, {"time": 111358, "pitch": 91, "duration": 80, "velocity": 73}, {"time": 111599, "pitch": 89, "duration": 80, "velocity": 76}, {"time": 111760, "pitch": 94, "duration": 80, "velocity": 79}, {"time": 116642, "pitch": 94, "duration": 80, "velocity": 87}, {"time": 116802, "pitch": 94, "duration": 81, "velocity": 79}, {"time": 116883, "pitch": 93, "duration": 80, "velocity": 75}, {"time": 117123, "pitch": 91, "duration": 79, "velocity": 73}, {"time": 117360, "pitch": 93, "duration": 79, "velocity": 76}, {"time": 117518, "pitch": 94, "duration": 79, "velocity": 79}, {"time": 142563, "pitch": 92, "duration": 249, "velocity": 90}, {"time": 142563, "pitch": 104, "duration": 249, "velocity": 90}, {"time": 142800, "pitch": 85, "duration": 238, "velocity": 90}, {"time": 142800, "pitch": 97, "duration": 238, "velocity": 90}, {"time": 143037, "pitch": 87, "duration": 237, "velocity": 90}, {"time": 143037, "pitch": 99, "duration": 237, "velocity": 90}, {"time": 143278, "pitch": 80, "duration": 175, "velocity": 90}, {"time": 143278, "pitch": 92, "duration": 175, "velocity": 90}, {"time": 143518, "pitch": 92, "duration": 253, "velocity": 90}, {"time": 143518, "pitch": 104, "duration": 253, "velocity": 90}, {"time": 143759, "pitch": 85, "duration": 242, "velocity": 90}, {"time": 143759, "pitch": 97, "duration": 242, "velocity": 90}, {"time": 144000, "pitch": 87, "duration": 237, "velocity": 90}, {"time": 144000, "pitch": 99, "duration": 237, "velocity": 90}, {"time": 144241, "pitch": 80, "duration": 176, "velocity": 90}, {"time": 144241, "pitch": 92, "duration": 176, "velocity": 90}, {"time": 144482, "pitch": 99, "duration": 253, "velocity": 90}, {"time": 144482, "pitch": 111, "duration": 253, "velocity": 90}, {"time": 144723, "pitch": 92, "duration": 242, "velocity": 90}, {"time": 144723, "pitch": 104, "duration": 242, "velocity": 90}, {"time": 144964, "pitch": 94, "duration": 233, "velocity": 90}, {"time": 144964, "pitch": 106, "duration": 233, "velocity": 90}, {"time": 145201, "pitch": 87, "duration": 172, "velocity": 90}, {"time": 145201, "pitch": 99, "duration": 172, "velocity": 90}, {"time": 145438, "pitch": 99, "duration": 253, "velocity": 90}, {"time": 145438, "pitch": 111, "duration": 253, "velocity": 90}, {"time": 145678, "pitch": 92, "duration": 242, "velocity": 90}, {"time": 145678, "pitch": 104, "duration": 242, "velocity": 90}, {"time": 145919, "pitch": 94, "duration": 237, "velocity": 90}, {"time": 145919, "pitch": 106, "duration": 237, "velocity": 90}, {"time": 146160, "pitch": 87, "duration": 176, "velocity": 90}, {"time": 146160, "pitch": 99, "duration": 176, "velocity": 90}, {"time": 146401, "pitch": 96, "duration": 253, "velocity": 90}, {"time": 146401, "pitch": 108, "duration": 253, "velocity": 90}, {"time": 146642, "pitch": 89, "duration": 242, "velocity": 90}, {"time": 146642, "pitch": 101, "duration": 242, "velocity": 90}, {"time": 146883, "pitch": 91, "duration": 233, "velocity": 90}, {"time": 146883, "pitch": 103, "duration": 233, "velocity": 90}, {"time": 147120, "pitch": 84, "duration": 173, "velocity": 90}, {"time": 147120, "pitch": 96, "duration": 173, "velocity": 90}, {"time": 147357, "pitch": 96, "duration": 253, "velocity": 90}, {"time": 147357, "pitch": 108, "duration": 253, "velocity": 90}, {"time": 147598, "pitch": 89, "duration": 242, "velocity": 90}, {"time": 147598, "pitch": 101, "duration": 242, "velocity": 90}, {"time": 147839, "pitch": 91, "duration": 236, "velocity": 90}, {"time": 147839, "pitch": 103, "duration": 236, "velocity": 90}, {"time": 148079, "pitch": 84, "duration": 176, "velocity": 90}, {"time": 148079, "pitch": 96, "duration": 176, "velocity": 90}, {"time": 148320, "pitch": 97, "duration": 253, "velocity": 90}, {"time": 148320, "pitch": 109, "duration": 253, "velocity": 90}, {"time": 148561, "pitch": 90, "duration": 242, "velocity": 90}, {"time": 148561, "pitch": 102, "duration": 242, "velocity": 90}, {"time": 148802, "pitch": 92, "duration": 237, "velocity": 90}, {"time": 148802, "pitch": 104, "duration": 237, "velocity": 90}, {"time": 149043, "pitch": 85, "duration": 176, "velocity": 90}, {"time": 149043, "pitch": 97, "duration": 176, "velocity": 90}, {"time": 149284, "pitch": 99, "duration": 249, "velocity": 90}, {"time": 149284, "pitch": 111, "duration": 249, "velocity": 90}, {"time": 149521, "pitch": 92, "duration": 238, "velocity": 90}, {"time": 149521, "pitch": 104, "duration": 238, "velocity": 90}, {"time": 149758, "pitch": 94, "duration": 237, "velocity": 90}, {"time": 149758, "pitch": 106, "duration": 237, "velocity": 90}, {"time": 149999, "pitch": 87, "duration": 175, "velocity": 90}, {"time": 149999, "pitch": 99, "duration": 175, "velocity": 90}, {"time": 150240, "pitch": 92, "duration": 252, "velocity": 90}, {"time": 150240, "pitch": 104, "duration": 252, "velocity": 90}, {"time": 150480, "pitch": 85, "duration": 242, "velocity": 90}, {"time": 150480, "pitch": 97, "duration": 242, "velocity": 90}, {"time": 150721, "pitch": 87, "duration": 237, "velocity": 90}, {"time": 150721, "pitch": 99, "duration": 237, "velocity": 90}, {"time": 150962, "pitch": 80, "duration": 176, "velocity": 90}, {"time": 150962, "pitch": 92, "duration": 176, "velocity": 90}, {"time": 151203, "pitch": 92, "duration": 249, "velocity": 90}, {"time": 151203, "pitch": 104, "duration": 249, "velocity": 90}, {"time": 151440, "pitch": 85, "duration": 238, "velocity": 90}, {"time": 151440, "pitch": 97, "duration": 238, "velocity": 90}, {"time": 151677, "pitch": 87, "duration": 237, "velocity": 90}, {"time": 151677, "pitch": 99, "duration": 237, "velocity": 90}, {"time": 151918, "pitch": 80, "duration": 176, "velocity": 90}, {"time": 151918, "pitch": 92, "duration": 176, "velocity": 90}, {"time": 152159, "pitch": 99, "duration": 253, "velocity": 90}, {"time": 152159, "pitch": 111, "duration": 253, "velocity": 90}, {"time": 152400, "pitch": 92, "duration": 242, "velocity": 90}, {"time": 152400, "pitch": 104, "duration": 242, "velocity": 90}, {"time": 152641, "pitch": 94, "duration": 236, "velocity": 90}, {"time": 152641, "pitch": 106, "duration": 236, "velocity": 90}, {"time": 152881, "pitch": 87, "duration": 176, "velocity": 90}, {"time": 152881, "pitch": 99, "duration": 176, "velocity": 90}, {"time": 153122, "pitch": 99, "duration": 249, "velocity": 90}, {"time": 153122, "pitch": 111, "duration": 249, "velocity": 90}, {"time": 153359, "pitch": 92, "duration": 238, "velocity": 90}, {"time": 153359, "pitch": 104, "duration": 238, "velocity": 90}, {"time": 153596, "pitch": 94, "duration": 237, "velocity": 90}, {"time": 153596, "pitch": 106, "duration": 237, "velocity": 90}, {"time": 153837, "pitch": 87, "duration": 176, "velocity": 90}, {"time": 153837, "pitch": 99, "duration": 176, "velocity": 90}, {"time": 154078, "pitch": 96, "duration": 253, "velocity": 90}, {"time": 154078, "pitch": 108, "duration": 253, "velocity": 90}, {"time": 154319, "pitch": 89, "duration": 242, "velocity": 90}, {"time": 154319, "pitch": 101, "duration": 242, "velocity": 90}, {"time": 154560, "pitch": 91, "duration": 237, "velocity": 90}, {"time": 154560, "pitch": 103, "duration": 237, "velocity": 90}, {"time": 154801, "pitch": 84, "duration": 175, "velocity": 90}, {"time": 154801, "pitch": 96, "duration": 175, "velocity": 90}, {"time": 155041, "pitch": 96, "duration": 253, "velocity": 90}, {"time": 155041, "pitch": 108, "duration": 253, "velocity": 90}, {"time": 155282, "pitch": 89, "duration": 242, "velocity": 90}, {"time": 155282, "pitch": 101, "duration": 242, "velocity": 90}, {"time": 155523, "pitch": 91, "duration": 233, "velocity": 90}, {"time": 155523, "pitch": 103, "duration": 233, "velocity": 90}, {"time": 155760, "pitch": 84, "duration": 173, "velocity": 90}, {"time": 155760, "pitch": 96, "duration": 173, "velocity": 90}, {"time": 155997, "pitch": 97, "duration": 253, "velocity": 90}, {"time": 155997, "pitch": 109, "duration": 253, "velocity": 90}, {"time": 156238, "pitch": 90, "duration": 242, "velocity": 90}, {"time": 156238, "pitch": 102, "duration": 242, "velocity": 90}, {"time": 156479, "pitch": 92, "duration": 237, "velocity": 90}, {"time": 156479, "pitch": 104, "duration": 237, "velocity": 90}, {"time": 156720, "pitch": 85, "duration": 175, "velocity": 90}, {"time": 156720, "pitch": 97, "duration": 175, "velocity": 90}, {"time": 156961, "pitch": 99, "duration": 253, "velocity": 90}, {"time": 156961, "pitch": 111, "duration": 253, "velocity": 90}, {"time": 157202, "pitch": 92, "duration": 241, "velocity": 90}, {"time": 157202, "pitch": 104, "duration": 241, "velocity": 90}, {"time": 157442, "pitch": 94, "duration": 237, "velocity": 90}, {"time": 157442, "pitch": 106, "duration": 237, "velocity": 90}, {"time": 157683, "pitch": 87, "duration": 176, "velocity": 90}, {"time": 157683, "pitch": 99, "duration": 176, "velocity": 90}, {"time": 4318, "pitch": 86, "duration": 143, "velocity": 112}, {"time": 4478, "pitch": 84, "duration": 68, "velocity": 107}, {"time": 4558, "pitch": 86, "duration": 144, "velocity": 112}, {"time": 4719, "pitch": 84, "duration": 68, "velocity": 109}, {"time": 4799, "pitch": 86, "duration": 144, "velocity": 112}, {"time": 4960, "pitch": 89, "duration": 68, "velocity": 112}, {"time": 5281, "pitch": 86, "duration": 144, "velocity": 112}, {"time": 5442, "pitch": 84, "duration": 68, "velocity": 106}, {"time": 5522, "pitch": 86, "duration": 144, "velocity": 112}, {"time": 5683, "pitch": 84, "duration": 68, "velocity": 103}, {"time": 5763, "pitch": 86, "duration": 141, "velocity": 112}, {"time": 5921, "pitch": 89, "duration": 67, "velocity": 112}, {"time": 6237, "pitch": 84, "duration": 143, "velocity": 112}, {"time": 6397, "pitch": 82, "duration": 69, "velocity": 106}, {"time": 6478, "pitch": 84, "duration": 143, "velocity": 112}, {"time": 6638, "pitch": 82, "duration": 69, "velocity": 110}, {"time": 6719, "pitch": 84, "duration": 143, "velocity": 112}, {"time": 6879, "pitch": 89, "duration": 68, "velocity": 109}, {"time": 7120, "pitch": 84, "duration": 144, "velocity": 112}, {"time": 8164, "pitch": 87, "duration": 141, "velocity": 112}, {"time": 8322, "pitch": 86, "duration": 67, "velocity": 108}, {"time": 8401, "pitch": 87, "duration": 141, "velocity": 104}, {"time": 8559, "pitch": 86, "duration": 67, "velocity": 110}, {"time": 8638, "pitch": 87, "duration": 143, "velocity": 112}, {"time": 8798, "pitch": 89, "duration": 69, "velocity": 111}, {"time": 9120, "pitch": 87, "duration": 143, "velocity": 112}, {"time": 9280, "pitch": 86, "duration": 68, "velocity": 109}, {"time": 9360, "pitch": 87, "duration": 144, "velocity": 112}, {"time": 9521, "pitch": 86, "duration": 68, "velocity": 112}, {"time": 9601, "pitch": 87, "duration": 144, "velocity": 110}, {"time": 9762, "pitch": 89, "duration": 68, "velocity": 111}, {"time": 10083, "pitch": 84, "duration": 141, "velocity": 112}, {"time": 10241, "pitch": 82, "duration": 67, "velocity": 105}, {"time": 10320, "pitch": 84, "duration": 141, "velocity": 112}, {"time": 10478, "pitch": 82, "duration": 67, "velocity": 110}, {"time": 10557, "pitch": 84, "duration": 143, "velocity": 112}, {"time": 10718, "pitch": 89, "duration": 68, "velocity": 107}, {"time": 10958, "pitch": 84, "duration": 144, "velocity": 109}, {"time": 18723, "pitch": 70, "duration": 79, "velocity": 107}, {"time": 18881, "pitch": 70, "duration": 79, "velocity": 107}, {"time": 18960, "pitch": 69, "duration": 79, "velocity": 105}, {"time": 19197, "pitch": 67, "duration": 81, "velocity": 103}, {"time": 19438, "pitch": 65, "duration": 80, "velocity": 106}, {"time": 19599, "pitch": 70, "duration": 80, "velocity": 107}, {"time": 24481, "pitch": 70, "duration": 80, "velocity": 107}, {"time": 24642, "pitch": 70, "duration": 80, "velocity": 107}, {"time": 24722, "pitch": 69, "duration": 80, "velocity": 105}, {"time": 24963, "pitch": 67, "duration": 79, "velocity": 103}, {"time": 25200, "pitch": 69, "duration": 79, "velocity": 106}, {"time": 25358, "pitch": 70, "duration": 79, "velocity": 107}, {"time": 50402, "pitch": 77, "duration": 143, "velocity": 112}, {"time": 50563, "pitch": 76, "duration": 68, "velocity": 107}, {"time": 50643, "pitch": 77, "duration": 143, "velocity": 112}, {"time": 50803, "pitch": 76, "duration": 69, "velocity": 109}, {"time": 50884, "pitch": 77, "duration": 141, "velocity": 112}, {"time": 51042, "pitch": 80, "duration": 67, "velocity": 112}, {"time": 51358, "pitch": 77, "duration": 143, "velocity": 112}, {"time": 51518, "pitch": 76, "duration": 68, "velocity": 106}, {"time": 51598, "pitch": 77, "duration": 144, "velocity": 112}, {"time": 51759, "pitch": 76, "duration": 68, "velocity": 103}, {"time": 51839, "pitch": 77, "duration": 144, "velocity": 112}, {"time": 52000, "pitch": 80, "duration": 68, "velocity": 112}, {"time": 52321, "pitch": 75, "duration": 144, "velocity": 112}, {"time": 52482, "pitch": 73, "duration": 68, "velocity": 106}, {"time": 52562, "pitch": 75, "duration": 144, "velocity": 112}, {"time": 52723, "pitch": 73, "duration": 68, "velocity": 110}, {"time": 52803, "pitch": 75, "duration": 141, "velocity": 112}, {"time": 52961, "pitch": 80, "duration": 67, "velocity": 109}, {"time": 53198, "pitch": 75, "duration": 142, "velocity": 112}, {"time": 54240, "pitch": 69, "duration": 144, "velocity": 112}, {"time": 54240, "pitch": 81, "duration": 144, "velocity": 112}, {"time": 54401, "pitch": 65, "duration": 68, "velocity": 107}, {"time": 54401, "pitch": 77, "duration": 68, "velocity": 107}, {"time": 54481, "pitch": 69, "duration": 144, "velocity": 112}, {"time": 54481, "pitch": 81, "duration": 144, "velocity": 112}, {"time": 54642, "pitch": 65, "duration": 68, "velocity": 109}, {"time": 54642, "pitch": 77, "duration": 68, "velocity": 109}, {"time": 54722, "pitch": 69, "duration": 144, "velocity": 112}, {"time": 54722, "pitch": 81, "duration": 144, "velocity": 112}, {"time": 54883, "pitch": 72, "duration": 68, "velocity": 112}, {"time": 54883, "pitch": 84, "duration": 68, "velocity": 112}, {"time": 55124, "pitch": 69, "duration": 63, "velocity": 112}, {"time": 55124, "pitch": 81, "duration": 63, "velocity": 112}, {"time": 56160, "pitch": 70, "duration": 143, "velocity": 112}, {"time": 56160, "pitch": 82, "duration": 143, "velocity": 112}, {"time": 56320, "pitch": 66, "duration": 68, "velocity": 107}, {"time": 56320, "pitch": 78, "duration": 68, "velocity": 107}, {"time": 56400, "pitch": 70, "duration": 144, "velocity": 112}, {"time": 56400, "pitch": 82, "duration": 144, "velocity": 112}, {"time": 56561, "pitch": 66, "duration": 68, "velocity": 109}, {"time": 56561, "pitch": 78, "duration": 68, "velocity": 109}, {"time": 56641, "pitch": 70, "duration": 144, "velocity": 112}, {"time": 56641, "pitch": 82, "duration": 144, "velocity": 112}, {"time": 56802, "pitch": 73, "duration": 68, "velocity": 112}, {"time": 56802, "pitch": 85, "duration": 68, "velocity": 112}, {"time": 57043, "pitch": 72, "duration": 63, "velocity": 112}, {"time": 57043, "pitch": 84, "duration": 63, "velocity": 112}, {"time": 64800, "pitch": 70, "duration": 80, "velocity": 107}, {"time": 64960, "pitch": 70, "duration": 81, "velocity": 107}, {"time": 65041, "pitch": 69, "duration": 80, "velocity": 105}, {"time": 65282, "pitch": 67, "duration": 80, "velocity": 103}, {"time": 65523, "pitch": 65, "duration": 80, "velocity": 106}, {"time": 65683, "pitch": 70, "duration": 80, "velocity": 107}, {"time": 70557, "pitch": 70, "duration": 81, "velocity": 107}, {"time": 70718, "pitch": 70, "duration": 80, "velocity": 107}, {"time": 70798, "pitch": 69, "duration": 81, "velocity": 105}, {"time": 71039, "pitch": 67, "duration": 81, "velocity": 103}, {"time": 71280, "pitch": 69, "duration": 80, "velocity": 106}, {"time": 71441, "pitch": 70, "duration": 80, "velocity": 107}, {"time": 96478, "pitch": 86, "duration": 144, "velocity": 112}, {"time": 96639, "pitch": 84, "duration": 68, "velocity": 107}, {"time": 96719, "pitch": 86, "duration": 144, "velocity": 112}, {"time": 96880, "pitch": 84, "duration": 68, "velocity": 109}, {"time": 96960, "pitch": 86, "duration": 144, "velocity": 112}, {"time": 97121, "pitch": 89, "duration": 68, "velocity": 112}, {"time": 97442, "pitch": 86, "duration": 143, "velocity": 112}, {"time": 97603, "pitch": 84, "duration": 68, "velocity": 106}, {"time": 97683, "pitch": 86, "duration": 143, "velocity": 112}, {"time": 97843, "pitch": 84, "duration": 69, "velocity": 103}, {"time": 97924, "pitch": 86, "duration": 141, "velocity": 112}, {"time": 98082, "pitch": 89, "duration": 67, "velocity": 112}, {"time": 98398, "pitch": 84, "duration": 143, "velocity": 112}, {"time": 98558, "pitch": 82, "duration": 68, "velocity": 106}, {"time": 98638, "pitch": 84, "duration": 144, "velocity": 112}, {"time": 98799, "pitch": 82, "duration": 68, "velocity": 110}, {"time": 98879, "pitch": 84, "duration": 144, "velocity": 112}, {"time": 99040, "pitch": 89, "duration": 68, "velocity": 109}, {"time": 99281, "pitch": 84, "duration": 143, "velocity": 112}, {"time": 100317, "pitch": 87, "duration": 143, "velocity": 112}, {"time": 100477, "pitch": 86, "duration": 69, "velocity": 108}, {"time": 100558, "pitch": 87, "duration": 143, "velocity": 104}, {"time": 100718, "pitch": 86, "duration": 69, "velocity": 110}, {"time": 100799, "pitch": 87, "duration": 143, "velocity": 112}, {"time": 100959, "pitch": 89, "duration": 68, "velocity": 111}, {"time": 101280, "pitch": 87, "duration": 144, "velocity": 112}, {"time": 101441, "pitch": 86, "duration": 68, "velocity": 109}, {"time": 101521, "pitch": 87, "duration": 144, "velocity": 112}, {"time": 101682, "pitch": 86, "duration": 68, "velocity": 112}, {"time": 101762, "pitch": 87, "duration": 144, "velocity": 110}, {"time": 101923, "pitch": 89, "duration": 68, "velocity": 111}, {"time": 102244, "pitch": 84, "duration": 141, "velocity": 112}, {"time": 102402, "pitch": 82, "duration": 67, "velocity": 105}, {"time": 102481, "pitch": 84, "duration": 141, "velocity": 112}, {"time": 102639, "pitch": 82, "duration": 67, "velocity": 110}, {"time": 102718, "pitch": 84, "duration": 143, "velocity": 112}, {"time": 102878, "pitch": 89, "duration": 69, "velocity": 107}, {"time": 103119, "pitch": 84, "duration": 144, "velocity": 109}, {"time": 110876, "pitch": 70, "duration": 81, "velocity": 107}, {"time": 111037, "pitch": 70, "duration": 80, "velocity": 107}, {"time": 111117, "pitch": 69, "duration": 81, "velocity": 105}, {"time": 111358, "pitch": 67, "duration": 80, "velocity": 103}, {"time": 111599, "pitch": 65, "duration": 80, "velocity": 106}, {"time": 111760, "pitch": 70, "duration": 80, "velocity": 107}, {"time": 116642, "pitch": 70, "duration": 80, "velocity": 107}, {"time": 116802, "pitch": 70, "duration": 81, "velocity": 107}, {"time": 116883, "pitch": 69, "duration": 80, "velocity": 105}, {"time": 117123, "pitch": 67, "duration": 79, "velocity": 103}, {"time": 117360, "pitch": 69, "duration": 79, "velocity": 106}, {"time": 117518, "pitch": 70, "duration": 79, "velocity": 107}, {"time": 142563, "pitch": 77, "duration": 141, "velocity": 112}, {"time": 142721, "pitch": 76, "duration": 67, "velocity": 107}, {"time": 142800, "pitch": 77, "duration": 141, "velocity": 112}, {"time": 142958, "pitch": 76, "duration": 67, "velocity": 109}, {"time": 143037, "pitch": 77, "duration": 143, "velocity": 112}, {"time": 143197, "pitch": 80, "duration": 68, "velocity": 112}, {"time": 143518, "pitch": 77, "duration": 144, "velocity": 112}, {"time": 143679, "pitch": 76, "duration": 68, "velocity": 106}, {"time": 143759, "pitch": 77, "duration": 144, "velocity": 112}, {"time": 143920, "pitch": 76, "duration": 68, "velocity": 103}, {"time": 144000, "pitch": 77, "duration": 144, "velocity": 112}, {"time": 144161, "pitch": 80, "duration": 68, "velocity": 112}, {"time": 144482, "pitch": 75, "duration": 143, "velocity": 112}, {"time": 144643, "pitch": 73, "duration": 68, "velocity": 106}, {"time": 144723, "pitch": 75, "duration": 143, "velocity": 112}, {"time": 144883, "pitch": 73, "duration": 69, "velocity": 110}, {"time": 144964, "pitch": 75, "duration": 141, "velocity": 112}, {"time": 145122, "pitch": 80, "duration": 67, "velocity": 109}, {"time": 145359, "pitch": 75, "duration": 142, "velocity": 112}, {"time": 146401, "pitch": 69, "duration": 144, "velocity": 112}, {"time": 146401, "pitch": 81, "duration": 144, "velocity": 112}, {"time": 146562, "pitch": 65, "duration": 68, "velocity": 107}, {"time": 146562, "pitch": 77, "duration": 68, "velocity": 107}, {"time": 146642, "pitch": 69, "duration": 144, "velocity": 112}, {"time": 146642, "pitch": 81, "duration": 144, "velocity": 112}, {"time": 146803, "pitch": 65, "duration": 68, "velocity": 109}, {"time": 146803, "pitch": 77, "duration": 68, "velocity": 109}, {"time": 146883, "pitch": 69, "duration": 141, "velocity": 112}, {"time": 146883, "pitch": 81, "duration": 141, "velocity": 112}, {"time": 147041, "pitch": 72, "duration": 67, "velocity": 112}, {"time": 147041, "pitch": 84, "duration": 67, "velocity": 112}, {"time": 147278, "pitch": 69, "duration": 62, "velocity": 112}, {"time": 147278, "pitch": 81, "duration": 62, "velocity": 112}, {"time": 148320, "pitch": 70, "duration": 144, "velocity": 112}, {"time": 148320, "pitch": 82, "duration": 144, "velocity": 112}, {"time": 148481, "pitch": 66, "duration": 68, "velocity": 107}, {"time": 148481, "pitch": 78, "duration": 68, "velocity": 107}, {"time": 148561, "pitch": 70, "duration": 144, "velocity": 112}, {"time": 148561, "pitch": 82, "duration": 144, "velocity": 112}, {"time": 148722, "pitch": 66, "duration": 68, "velocity": 109}, {"time": 148722, "pitch": 78, "duration": 68, "velocity": 109}, {"time": 148802, "pitch": 70, "duration": 144, "velocity": 112}, {"time": 148802, "pitch": 82, "duration": 144, "velocity": 112}, {"time": 148963, "pitch": 73, "duration": 68, "velocity": 112}, {"time": 148963, "pitch": 85, "duration": 68, "velocity": 112}, {"time": 149204, "pitch": 72, "duration": 63, "velocity": 112}, {"time": 149204, "pitch": 84, "duration": 63, "velocity": 112}, {"time": 150240, "pitch": 77, "duration": 143, "velocity": 112}, {"time": 150400, "pitch": 76, "duration": 68, "velocity": 107}, {"time": 150480, "pitch": 77, "duration": 144, "velocity": 112}, {"time": 150641, "pitch": 76, "duration": 68, "velocity": 109}, {"time": 150721, "pitch": 77, "duration": 144, "velocity": 112}, {"time": 150882, "pitch": 80, "duration": 68, "velocity": 112}, {"time": 151203, "pitch": 77, "duration": 141, "velocity": 112}, {"time": 151361, "pitch": 76, "duration": 67, "velocity": 106}, {"time": 151440, "pitch": 77, "duration": 141, "velocity": 112}, {"time": 151598, "pitch": 76, "duration": 67, "velocity": 103}, {"time": 151677, "pitch": 77, "duration": 144, "velocity": 112}, {"time": 151838, "pitch": 80, "duration": 68, "velocity": 112}, {"time": 152159, "pitch": 75, "duration": 143, "velocity": 112}, {"time": 152319, "pitch": 73, "duration": 69, "velocity": 106}, {"time": 152400, "pitch": 75, "duration": 143, "velocity": 112}, {"time": 152560, "pitch": 73, "duration": 68, "velocity": 110}, {"time": 152641, "pitch": 75, "duration": 143, "velocity": 112}, {"time": 152801, "pitch": 80, "duration": 68, "velocity": 109}, {"time": 153042, "pitch": 75, "duration": 142, "velocity": 112}, {"time": 154078, "pitch": 69, "duration": 143, "velocity": 112}, {"time": 154078, "pitch": 81, "duration": 143, "velocity": 112}, {"time": 154239, "pitch": 65, "duration": 68, "velocity": 107}, {"time": 154239, "pitch": 77, "duration": 68, "velocity": 107}, {"time": 154319, "pitch": 69, "duration": 143, "velocity": 112}, {"time": 154319, "pitch": 81, "duration": 143, "velocity": 112}, {"time": 154479, "pitch": 65, "duration": 69, "velocity": 109}, {"time": 154479, "pitch": 77, "duration": 69, "velocity": 109}, {"time": 154560, "pitch": 69, "duration": 143, "velocity": 112}, {"time": 154560, "pitch": 81, "duration": 143, "velocity": 112}, {"time": 154720, "pitch": 72, "duration": 69, "velocity": 112}, {"time": 154720, "pitch": 84, "duration": 69, "velocity": 112}, {"time": 154961, "pitch": 69, "duration": 63, "velocity": 112}, {"time": 154961, "pitch": 81, "duration": 63, "velocity": 112}, {"time": 155997, "pitch": 70, "duration": 144, "velocity": 112}, {"time": 155997, "pitch": 82, "duration": 144, "velocity": 112}, {"time": 156158, "pitch": 66, "duration": 68, "velocity": 107}, {"time": 156158, "pitch": 78, "duration": 68, "velocity": 107}, {"time": 156238, "pitch": 70, "duration": 144, "velocity": 112}, {"time": 156238, "pitch": 82, "duration": 144, "velocity": 112}, {"time": 156399, "pitch": 66, "duration": 68, "velocity": 109}, {"time": 156399, "pitch": 78, "duration": 68, "velocity": 109}, {"time": 156479, "pitch": 70, "duration": 143, "velocity": 112}, {"time": 156479, "pitch": 82, "duration": 143, "velocity": 112}, {"time": 156639, "pitch": 73, "duration": 69, "velocity": 112}, {"time": 156639, "pitch": 85, "duration": 69, "velocity": 112}, {"time": 156880, "pitch": 72, "duration": 64, "velocity": 112}, {"time": 156880, "pitch": 84, "duration": 64, "velocity": 112}, {"time": 2960, "pitch": 69, "duration": 41, "velocity": 65}, {"time": 2960, "pitch": 73, "duration": 41, "velocity": 65}, {"time": 3001, "pitch": 70, "duration": 40, "velocity": 67}, {"time": 3001, "pitch": 74, "duration": 40, "velocity": 67}, {"time": 3041, "pitch": 71, "duration": 40, "velocity": 68}, {"time": 3041, "pitch": 75, "duration": 40, "velocity": 68}, {"time": 3081, "pitch": 72, "duration": 40, "velocity": 70}, {"time": 3081, "pitch": 76, "duration": 40, "velocity": 70}, {"time": 3121, "pitch": 73, "duration": 40, "velocity": 72}, {"time": 3121, "pitch": 77, "duration": 40, "velocity": 72}, {"time": 3161, "pitch": 74, "duration": 40, "velocity": 74}, {"time": 3161, "pitch": 78, "duration": 40, "velocity": 74}, {"time": 3201, "pitch": 75, "duration": 40, "velocity": 75}, {"time": 3201, "pitch": 79, "duration": 40, "velocity": 75}, {"time": 3241, "pitch": 76, "duration": 41, "velocity": 77}, {"time": 3241, "pitch": 80, "duration": 41, "velocity": 77}, {"time": 3287, "pitch": 69, "duration": 40, "velocity": 79}, {"time": 3287, "pitch": 73, "duration": 40, "velocity": 79}, {"time": 3327, "pitch": 70, "duration": 40, "velocity": 81}, {"time": 3327, "pitch": 74, "duration": 40, "velocity": 81}, {"time": 3367, "pitch": 71, "duration": 40, "velocity": 83}, {"time": 3367, "pitch": 75, "duration": 40, "velocity": 83}, {"time": 3407, "pitch": 72, "duration": 40, "velocity": 84}, {"time": 3407, "pitch": 76, "duration": 40, "velocity": 84}, {"time": 3447, "pitch": 73, "duration": 40, "velocity": 86}, {"time": 3447, "pitch": 77, "duration": 40, "velocity": 86}, {"time": 3487, "pitch": 74, "duration": 41, "velocity": 88}, {"time": 3487, "pitch": 78, "duration": 41, "velocity": 88}, {"time": 3528, "pitch": 75, "duration": 40, "velocity": 89}, {"time": 3528, "pitch": 79, "duration": 40, "velocity": 89}, {"time": 3568, "pitch": 76, "duration": 40, "velocity": 91}, {"time": 3568, "pitch": 80, "duration": 40, "velocity": 91}, {"time": 3603, "pitch": 69, "duration": 40, "velocity": 93}, {"time": 3603, "pitch": 73, "duration": 40, "velocity": 93}, {"time": 3643, "pitch": 70, "duration": 40, "velocity": 94}, {"time": 3643, "pitch": 74, "duration": 40, "velocity": 94}, {"time": 3683, "pitch": 71, "duration": 40, "velocity": 96}, {"time": 3683, "pitch": 75, "duration": 40, "velocity": 96}, {"time": 3723, "pitch": 72, "duration": 40, "velocity": 98}, {"time": 3723, "pitch": 76, "duration": 40, "velocity": 98}, {"time": 3763, "pitch": 73, "duration": 41, "velocity": 100}, {"time": 3763, "pitch": 77, "duration": 41, "velocity": 100}, {"time": 3804, "pitch": 74, "duration": 40, "velocity": 101}, {"time": 3804, "pitch": 78, "duration": 40, "velocity": 101}, {"time": 3844, "pitch": 75, "duration": 39, "velocity": 103}, {"time": 3844, "pitch": 79, "duration": 39, "velocity": 103}, {"time": 3883, "pitch": 76, "duration": 40, "velocity": 105}, {"time": 3883, "pitch": 80, "duration": 40, "velocity": 105}, {"time": 3923, "pitch": 69, "duration": 39, "velocity": 107}, {"time": 3923, "pitch": 73, "duration": 39, "velocity": 107}, {"time": 3962, "pitch": 70, "duration": 40, "velocity": 108}, {"time": 3962, "pitch": 74, "duration": 40, "velocity": 108}, {"time": 4002, "pitch": 71, "duration": 39, "velocity": 110}, {"time": 4002, "pitch": 75, "duration": 39, "velocity": 110}, {"time": 4041, "pitch": 72, "duration": 40, "velocity": 112}, {"time": 4041, "pitch": 76, "duration": 40, "velocity": 112}, {"time": 4081, "pitch": 73, "duration": 39, "velocity": 114}, {"time": 4081, "pitch": 77, "duration": 39, "velocity": 114}, {"time": 4120, "pitch": 74, "duration": 40, "velocity": 115}, {"time": 4120, "pitch": 78, "duration": 40, "velocity": 115}, {"time": 4160, "pitch": 75, "duration": 39, "velocity": 117}, {"time": 4160, "pitch": 79, "duration": 39, "velocity": 117}, {"time": 4199, "pitch": 76, "duration": 40, "velocity": 119}, {"time": 4199, "pitch": 80, "duration": 40, "velocity": 119}, {"time": 35040, "pitch": 70, "duration": 133, "velocity": 114}, {"time": 35201, "pitch": 70, "duration": 68, "velocity": 115}, {"time": 35281, "pitch": 67, "duration": 133, "velocity": 112}, {"time": 35522, "pitch": 70, "duration": 131, "velocity": 112}, {"time": 35680, "pitch": 70, "duration": 67, "velocity": 112}, {"time": 35759, "pitch": 67, "duration": 131, "velocity": 115}, {"time": 35996, "pitch": 70, "duration": 133, "velocity": 114}, {"time": 36157, "pitch": 67, "duration": 132, "velocity": 113}, {"time": 36398, "pitch": 70, "duration": 68, "velocity": 113}, {"time": 36960, "pitch": 74, "duration": 132, "velocity": 113}, {"time": 37120, "pitch": 74, "duration": 69, "velocity": 112}, {"time": 37201, "pitch": 69, "duration": 132, "velocity": 113}, {"time": 37441, "pitch": 65, "duration": 133, "velocity": 115}, {"time": 37602, "pitch": 65, "duration": 68, "velocity": 112}, {"time": 37682, "pitch": 69, "duration": 133, "velocity": 113}, {"time": 37923, "pitch": 72, "duration": 131, "velocity": 115}, {"time": 38081, "pitch": 74, "duration": 131, "velocity": 115}, {"time": 38318, "pitch": 70, "duration": 67, "velocity": 113}, {"time": 39120, "pitch": 70, "duration": 132, "velocity": 115}, {"time": 39361, "pitch": 70, "duration": 132, "velocity": 114}, {"time": 39521, "pitch": 70, "duration": 68, "velocity": 115}, {"time": 39602, "pitch": 70, "duration": 132, "velocity": 115}, {"time": 40079, "pitch": 72, "duration": 131, "velocity": 112}, {"time": 40316, "pitch": 72, "duration": 133, "velocity": 115}, {"time": 40477, "pitch": 72, "duration": 68, "velocity": 114}, {"time": 40557, "pitch": 72, "duration": 133, "velocity": 115}, {"time": 40798, "pitch": 74, "duration": 133, "velocity": 112}, {"time": 40959, "pitch": 73, "duration": 68, "velocity": 113}, {"time": 41039, "pitch": 72, "duration": 132, "velocity": 113}, {"time": 41200, "pitch": 71, "duration": 68, "velocity": 113}, {"time": 41280, "pitch": 70, "duration": 132, "velocity": 112}, {"time": 41440, "pitch": 69, "duration": 69, "velocity": 112}, {"time": 41521, "pitch": 67, "duration": 132, "velocity": 112}, {"time": 41762, "pitch": 72, "duration": 132, "velocity": 115}, {"time": 41922, "pitch": 74, "duration": 133, "velocity": 114}, {"time": 42163, "pitch": 70, "duration": 68, "velocity": 114}, {"time": 42717, "pitch": 70, "duration": 133, "velocity": 113}, {"time": 42878, "pitch": 70, "duration": 68, "velocity": 114}, {"time": 42958, "pitch": 67, "duration": 133, "velocity": 115}, {"time": 43199, "pitch": 70, "duration": 133, "velocity": 114}, {"time": 43360, "pitch": 70, "duration": 68, "velocity": 113}, {"time": 43440, "pitch": 67, "duration": 132, "velocity": 114}, {"time": 43681, "pitch": 70, "duration": 132, "velocity": 114}, {"time": 43841, "pitch": 67, "duration": 133, "velocity": 113}, {"time": 44082, "pitch": 70, "duration": 69, "velocity": 114}, {"time": 44637, "pitch": 74, "duration": 132, "velocity": 115}, {"time": 44797, "pitch": 74, "duration": 68, "velocity": 114}, {"time": 44877, "pitch": 69, "duration": 133, "velocity": 114}, {"time": 45118, "pitch": 65, "duration": 133, "velocity": 112}, {"time": 45279, "pitch": 65, "duration": 68, "velocity": 115}, {"time": 45359, "pitch": 69, "duration": 133, "velocity": 114}, {"time": 45600, "pitch": 72, "duration": 132, "velocity": 115}, {"time": 45761, "pitch": 74, "duration": 132, "velocity": 112}, {"time": 46001, "pitch": 70, "duration": 69, "velocity": 115}, {"time": 46800, "pitch": 70, "duration": 131, "velocity": 112}, {"time": 47037, "pitch": 70, "duration": 133, "velocity": 114}, {"time": 47198, "pitch": 70, "duration": 68, "velocity": 115}, {"time": 47278, "pitch": 70, "duration": 133, "velocity": 114}, {"time": 47760, "pitch": 72, "duration": 133, "velocity": 115}, {"time": 48001, "pitch": 72, "duration": 132, "velocity": 113}, {"time": 48162, "pitch": 72, "duration": 68, "velocity": 114}, {"time": 48242, "pitch": 72, "duration": 132, "velocity": 112}, {"time": 48483, "pitch": 74, "duration": 130, "velocity": 113}, {"time": 48641, "pitch": 73, "duration": 67, "velocity": 113}, {"time": 48720, "pitch": 72, "duration": 130, "velocity": 113}, {"time": 48878, "pitch": 71, "duration": 67, "velocity": 115}, {"time": 48957, "pitch": 70, "duration": 132, "velocity": 113}, {"time": 49117, "pitch": 69, "duration": 68, "velocity": 113}, {"time": 49198, "pitch": 67, "duration": 132, "velocity": 112}, {"time": 49438, "pitch": 72, "duration": 133, "velocity": 115}, {"time": 49599, "pitch": 74, "duration": 132, "velocity": 112}, {"time": 49840, "pitch": 70, "duration": 68, "velocity": 112}, {"time": 81117, "pitch": 70, "duration": 132, "velocity": 114}, {"time": 81278, "pitch": 70, "duration": 68, "velocity": 115}, {"time": 81358, "pitch": 67, "duration": 132, "velocity": 112}, {"time": 81599, "pitch": 70, "duration": 132, "velocity": 112}, {"time": 81759, "pitch": 70, "duration": 69, "velocity": 112}, {"time": 81840, "pitch": 67, "duration": 132, "velocity": 115}, {"time": 82080, "pitch": 70, "duration": 133, "velocity": 114}, {"time": 82241, "pitch": 67, "duration": 133, "velocity": 113}, {"time": 82482, "pitch": 70, "duration": 68, "velocity": 113}, {"time": 83036, "pitch": 74, "duration": 133, "velocity": 113}, {"time": 83197, "pitch": 74, "duration": 68, "velocity": 112}, {"time": 83277, "pitch": 69, "duration": 133, "velocity": 113}, {"time": 83518, "pitch": 65, "duration": 132, "velocity": 115}, {"time": 83679, "pitch": 65, "duration": 68, "velocity": 112}, {"time": 83759, "pitch": 69, "duration": 132, "velocity": 113}, {"time": 84000, "pitch": 72, "duration": 132, "velocity": 115}, {"time": 84160, "pitch": 74, "duration": 133, "velocity": 115}, {"time": 84401, "pitch": 70, "duration": 68, "velocity": 113}, {"time": 85200, "pitch": 70, "duration": 131, "velocity": 115}, {"time": 85437, "pitch": 70, "duration": 133, "velocity": 114}, {"time": 85598, "pitch": 70, "duration": 68, "velocity": 115}, {"time": 85678, "pitch": 70, "duration": 132, "velocity": 115}, {"time": 86160, "pitch": 72, "duration": 132, "velocity": 112}, {"time": 86401, "pitch": 72, "duration": 132, "velocity": 115}, {"time": 86561, "pitch": 72, "duration": 68, "velocity": 114}, {"time": 86642, "pitch": 72, "duration": 132, "velocity": 115}, {"time": 86882, "pitch": 74, "duration": 131, "velocity": 112}, {"time": 87040, "pitch": 73, "duration": 68, "velocity": 113}, {"time": 87119, "pitch": 72, "duration": 131, "velocity": 113}, {"time": 87277, "pitch": 71, "duration": 68, "velocity": 113}, {"time": 87356, "pitch": 70, "duration": 133, "velocity": 112}, {"time": 87517, "pitch": 69, "duration": 68, "velocity": 112}, {"time": 87597, "pitch": 67, "duration": 133, "velocity": 112}, {"time": 87838, "pitch": 72, "duration": 133, "velocity": 115}, {"time": 87999, "pitch": 74, "duration": 132, "velocity": 114}, {"time": 88240, "pitch": 70, "duration": 68, "velocity": 114}, {"time": 88802, "pitch": 70, "duration": 132, "velocity": 113}, {"time": 88962, "pitch": 70, "duration": 68, "velocity": 114}, {"time": 89043, "pitch": 67, "duration": 132, "velocity": 115}, {"time": 89283, "pitch": 70, "duration": 131, "velocity": 114}, {"time": 89441, "pitch": 70, "duration": 67, "velocity": 113}, {"time": 89520, "pitch": 67, "duration": 131, "velocity": 114}, {"time": 89757, "pitch": 70, "duration": 133, "velocity": 114}, {"time": 89918, "pitch": 67, "duration": 132, "velocity": 113}, {"time": 90159, "pitch": 70, "duration": 68, "velocity": 114}, {"time": 90721, "pitch": 74, "duration": 132, "velocity": 115}, {"time": 90881, "pitch": 74, "duration": 69, "velocity": 114}, {"time": 90962, "pitch": 69, "duration": 132, "velocity": 114}, {"time": 91203, "pitch": 65, "duration": 130, "velocity": 112}, {"time": 91361, "pitch": 65, "duration": 67, "velocity": 115}, {"time": 91440, "pitch": 69, "duration": 130, "velocity": 114}, {"time": 91677, "pitch": 72, "duration": 132, "velocity": 115}, {"time": 91837, "pitch": 74, "duration": 133, "velocity": 112}, {"time": 92078, "pitch": 70, "duration": 68, "velocity": 115}, {"time": 92881, "pitch": 70, "duration": 132, "velocity": 112}, {"time": 93122, "pitch": 70, "duration": 132, "velocity": 114}, {"time": 93282, "pitch": 70, "duration": 69, "velocity": 115}, {"time": 93363, "pitch": 70, "duration": 132, "velocity": 114}, {"time": 93840, "pitch": 72, "duration": 131, "velocity": 115}, {"time": 94077, "pitch": 72, "duration": 133, "velocity": 113}, {"time": 94238, "pitch": 72, "duration": 68, "velocity": 114}, {"time": 94318, "pitch": 72, "duration": 133, "velocity": 112}, {"time": 94559, "pitch": 74, "duration": 133, "velocity": 113}, {"time": 94720, "pitch": 73, "duration": 68, "velocity": 113}, {"time": 94800, "pitch": 72, "duration": 133, "velocity": 113}, {"time": 94961, "pitch": 71, "duration": 68, "velocity": 115}, {"time": 95041, "pitch": 70, "duration": 132, "velocity": 113}, {"time": 95202, "pitch": 69, "duration": 68, "velocity": 113}, {"time": 95282, "pitch": 67, "duration": 132, "velocity": 112}, {"time": 95523, "pitch": 72, "duration": 130, "velocity": 115}, {"time": 95681, "pitch": 74, "duration": 130, "velocity": 112}, {"time": 95918, "pitch": 70, "duration": 67, "velocity": 112}, {"time": 127201, "pitch": 70, "duration": 133, "velocity": 114}, {"time": 127362, "pitch": 70, "duration": 68, "velocity": 115}, {"time": 127442, "pitch": 67, "duration": 133, "velocity": 112}, {"time": 127683, "pitch": 70, "duration": 130, "velocity": 112}, {"time": 127841, "pitch": 70, "duration": 67, "velocity": 112}, {"time": 127920, "pitch": 67, "duration": 130, "velocity": 115}, {"time": 128157, "pitch": 70, "duration": 132, "velocity": 114}, {"time": 128318, "pitch": 67, "duration": 132, "velocity": 113}, {"time": 128558, "pitch": 70, "duration": 69, "velocity": 113}, {"time": 129121, "pitch": 74, "duration": 132, "velocity": 113}, {"time": 129281, "pitch": 74, "duration": 68, "velocity": 112}, {"time": 129361, "pitch": 69, "duration": 133, "velocity": 113}, {"time": 129602, "pitch": 65, "duration": 131, "velocity": 115}, {"time": 129760, "pitch": 65, "duration": 67, "velocity": 112}, {"time": 129839, "pitch": 69, "duration": 131, "velocity": 113}, {"time": 130076, "pitch": 72, "duration": 133, "velocity": 115}, {"time": 130237, "pitch": 74, "duration": 132, "velocity": 115}, {"time": 130478, "pitch": 70, "duration": 68, "velocity": 113}, {"time": 131281, "pitch": 70, "duration": 132, "velocity": 115}, {"time": 131521, "pitch": 70, "duration": 133, "velocity": 114}, {"time": 131682, "pitch": 70, "duration": 68, "velocity": 115}, {"time": 131762, "pitch": 70, "duration": 133, "velocity": 115}, {"time": 132240, "pitch": 72, "duration": 131, "velocity": 112}, {"time": 132477, "pitch": 72, "duration": 133, "velocity": 115}, {"time": 132638, "pitch": 72, "duration": 68, "velocity": 114}, {"time": 132718, "pitch": 72, "duration": 133, "velocity": 115}, {"time": 132959, "pitch": 74, "duration": 132, "velocity": 112}, {"time": 133119, "pitch": 73, "duration": 69, "velocity": 113}, {"time": 133200, "pitch": 72, "duration": 132, "velocity": 113}, {"time": 133360, "pitch": 71, "duration": 69, "velocity": 113}, {"time": 133441, "pitch": 70, "duration": 132, "velocity": 112}, {"time": 133601, "pitch": 69, "duration": 69, "velocity": 112}, {"time": 133682, "pitch": 67, "duration": 132, "velocity": 112}, {"time": 133922, "pitch": 72, "duration": 131, "velocity": 115}, {"time": 134080, "pitch": 74, "duration": 131, "velocity": 114}, {"time": 134317, "pitch": 70, "duration": 68, "velocity": 114}, {"time": 134878, "pitch": 70, "duration": 133, "velocity": 113}, {"time": 135039, "pitch": 70, "duration": 68, "velocity": 114}, {"time": 135119, "pitch": 67, "duration": 132, "velocity": 115}, {"time": 135360, "pitch": 70, "duration": 132, "velocity": 114}, {"time": 135520, "pitch": 70, "duration": 69, "velocity": 113}, {"time": 135601, "pitch": 67, "duration": 132, "velocity": 114}, {"time": 135842, "pitch": 70, "duration": 132, "velocity": 114}, {"time": 136002, "pitch": 67, "duration": 133, "velocity": 113}, {"time": 136243, "pitch": 70, "duration": 68, "velocity": 114}, {"time": 136797, "pitch": 74, "duration": 133, "velocity": 115}, {"time": 136958, "pitch": 74, "duration": 68, "velocity": 114}, {"time": 137038, "pitch": 69, "duration": 133, "velocity": 114}, {"time": 137279, "pitch": 65, "duration": 133, "velocity": 112}, {"time": 137440, "pitch": 65, "duration": 68, "velocity": 115}, {"time": 137520, "pitch": 69, "duration": 132, "velocity": 114}, {"time": 137761, "pitch": 72, "duration": 132, "velocity": 115}, {"time": 137921, "pitch": 74, "duration": 133, "velocity": 112}, {"time": 138162, "pitch": 70, "duration": 69, "velocity": 115}, {"time": 138957, "pitch": 70, "duration": 133, "velocity": 112}, {"time": 139198, "pitch": 70, "duration": 133, "velocity": 114}, {"time": 139359, "pitch": 70, "duration": 68, "velocity": 115}, {"time": 139439, "pitch": 70, "duration": 133, "velocity": 114}, {"time": 139921, "pitch": 72, "duration": 132, "velocity": 115}, {"time": 140162, "pitch": 72, "duration": 132, "velocity": 113}, {"time": 140322, "pitch": 72, "duration": 69, "velocity": 114}, {"time": 140403, "pitch": 72, "duration": 132, "velocity": 112}, {"time": 140643, "pitch": 74, "duration": 131, "velocity": 113}, {"time": 140801, "pitch": 73, "duration": 68, "velocity": 113}, {"time": 140880, "pitch": 72, "duration": 131, "velocity": 113}, {"time": 141038, "pitch": 71, "duration": 68, "velocity": 115}, {"time": 141117, "pitch": 70, "duration": 133, "velocity": 113}, {"time": 141278, "pitch": 69, "duration": 68, "velocity": 113}, {"time": 141358, "pitch": 67, "duration": 133, "velocity": 112}, {"time": 141599, "pitch": 72, "duration": 133, "velocity": 115}, {"time": 141760, "pitch": 74, "duration": 132, "velocity": 112}, {"time": 142001, "pitch": 70, "duration": 68, "velocity": 112}, {"time": 156559, "pitch": 69, "duration": 40, "velocity": 65}, {"time": 156559, "pitch": 73, "duration": 40, "velocity": 65}, {"time": 156599, "pitch": 70, "duration": 40, "velocity": 67}, {"time": 156599, "pitch": 74, "duration": 40, "velocity": 67}, {"time": 156639, "pitch": 71, "duration": 41, "velocity": 68}, {"time": 156639, "pitch": 75, "duration": 41, "velocity": 68}, {"time": 156680, "pitch": 72, "duration": 40, "velocity": 70}, {"time": 156680, "pitch": 76, "duration": 40, "velocity": 70}, {"time": 156720, "pitch": 73, "duration": 40, "velocity": 72}, {"time": 156720, "pitch": 77, "duration": 40, "velocity": 72}, {"time": 156760, "pitch": 74, "duration": 40, "velocity": 74}, {"time": 156760, "pitch": 78, "duration": 40, "velocity": 74}, {"time": 156800, "pitch": 75, "duration": 40, "velocity": 75}, {"time": 156800, "pitch": 79, "duration": 40, "velocity": 75}, {"time": 156840, "pitch": 76, "duration": 40, "velocity": 77}, {"time": 156840, "pitch": 80, "duration": 40, "velocity": 77}, {"time": 156885, "pitch": 69, "duration": 41, "velocity": 79}, {"time": 156885, "pitch": 73, "duration": 41, "velocity": 79}, {"time": 156926, "pitch": 70, "duration": 40, "velocity": 81}, {"time": 156926, "pitch": 74, "duration": 40, "velocity": 81}, {"time": 156966, "pitch": 71, "duration": 40, "velocity": 83}, {"time": 156966, "pitch": 75, "duration": 40, "velocity": 83}, {"time": 157006, "pitch": 72, "duration": 40, "velocity": 84}, {"time": 157006, "pitch": 76, "duration": 40, "velocity": 84}, {"time": 157046, "pitch": 73, "duration": 40, "velocity": 86}, {"time": 157046, "pitch": 77, "duration": 40, "velocity": 86}, {"time": 157086, "pitch": 74, "duration": 40, "velocity": 88}, {"time": 157086, "pitch": 78, "duration": 40, "velocity": 88}, {"time": 157126, "pitch": 75, "duration": 40, "velocity": 89}, {"time": 157126, "pitch": 79, "duration": 40, "velocity": 89}, {"time": 157166, "pitch": 76, "duration": 41, "velocity": 91}, {"time": 157166, "pitch": 80, "duration": 41, "velocity": 91}, {"time": 157202, "pitch": 69, "duration": 40, "velocity": 93}, {"time": 157202, "pitch": 73, "duration": 40, "velocity": 93}, {"time": 157242, "pitch": 70, "duration": 40, "velocity": 94}, {"time": 157242, "pitch": 74, "duration": 40, "velocity": 94}, {"time": 157282, "pitch": 71, "duration": 40, "velocity": 96}, {"time": 157282, "pitch": 75, "duration": 40, "velocity": 96}, {"time": 157322, "pitch": 72, "duration": 40, "velocity": 98}, {"time": 157322, "pitch": 76, "duration": 40, "velocity": 98}, {"time": 157362, "pitch": 73, "duration": 40, "velocity": 100}, {"time": 157362, "pitch": 77, "duration": 40, "velocity": 100}, {"time": 157402, "pitch": 74, "duration": 40, "velocity": 101}, {"time": 157402, "pitch": 78, "duration": 40, "velocity": 101}, {"time": 157442, "pitch": 75, "duration": 41, "velocity": 103}, {"time": 157442, "pitch": 79, "duration": 41, "velocity": 103}, {"time": 157483, "pitch": 76, "duration": 39, "velocity": 105}, {"time": 157483, "pitch": 80, "duration": 39, "velocity": 105}, {"time": 157522, "pitch": 69, "duration": 41, "velocity": 107}, {"time": 157522, "pitch": 73, "duration": 41, "velocity": 107}, {"time": 157563, "pitch": 70, "duration": 40, "velocity": 108}, {"time": 157563, "pitch": 74, "duration": 40, "velocity": 108}, {"time": 157603, "pitch": 71, "duration": 40, "velocity": 110}, {"time": 157603, "pitch": 75, "duration": 40, "velocity": 110}, {"time": 157643, "pitch": 72, "duration": 40, "velocity": 112}, {"time": 157643, "pitch": 76, "duration": 40, "velocity": 112}, {"time": 157683, "pitch": 73, "duration": 41, "velocity": 114}, {"time": 157683, "pitch": 77, "duration": 41, "velocity": 114}, {"time": 157724, "pitch": 74, "duration": 39, "velocity": 115}, {"time": 157724, "pitch": 78, "duration": 39, "velocity": 115}, {"time": 157763, "pitch": 75, "duration": 41, "velocity": 117}, {"time": 157763, "pitch": 79, "duration": 41, "velocity": 117}, {"time": 157804, "pitch": 76, "duration": 40, "velocity": 119}, {"time": 157804, "pitch": 80, "duration": 40, "velocity": 119}, {"time": 12160, "pitch": 65, "duration": 73, "velocity": 110}, {"time": 12160, "pitch": 70, "duration": 73, "velocity": 120}, {"time": 12397, "pitch": 65, "duration": 63, "velocity": 110}, {"time": 12397, "pitch": 70, "duration": 63, "velocity": 120}, {"time": 12476, "pitch": 62, "duration": 153, "velocity": 110}, {"time": 12476, "pitch": 65, "duration": 153, "velocity": 120}, {"time": 12717, "pitch": 65, "duration": 230, "velocity": 110}, {"time": 12717, "pitch": 70, "duration": 230, "velocity": 120}, {"time": 12958, "pitch": 65, "duration": 109, "velocity": 110}, {"time": 12958, "pitch": 70, "duration": 109, "velocity": 120}, {"time": 13199, "pitch": 65, "duration": 109, "velocity": 110}, {"time": 13199, "pitch": 70, "duration": 109, "velocity": 120}, {"time": 14082, "pitch": 67, "duration": 74, "velocity": 110}, {"time": 14082, "pitch": 70, "duration": 74, "velocity": 120}, {"time": 14323, "pitch": 67, "duration": 64, "velocity": 110}, {"time": 14323, "pitch": 70, "duration": 64, "velocity": 120}, {"time": 14403, "pitch": 63, "duration": 150, "velocity": 110}, {"time": 14403, "pitch": 67, "duration": 150, "velocity": 120}, {"time": 14640, "pitch": 67, "duration": 226, "velocity": 110}, {"time": 14640, "pitch": 70, "duration": 226, "velocity": 120}, {"time": 14877, "pitch": 67, "duration": 110, "velocity": 110}, {"time": 14877, "pitch": 70, "duration": 110, "velocity": 120}, {"time": 15118, "pitch": 67, "duration": 109, "velocity": 110}, {"time": 15118, "pitch": 70, "duration": 109, "velocity": 120}, {"time": 16001, "pitch": 65, "duration": 75, "velocity": 110}, {"time": 16001, "pitch": 70, "duration": 75, "velocity": 120}, {"time": 16242, "pitch": 65, "duration": 64, "velocity": 110}, {"time": 16242, "pitch": 70, "duration": 64, "velocity": 120}, {"time": 16322, "pitch": 62, "duration": 150, "velocity": 110}, {"time": 16322, "pitch": 65, "duration": 150, "velocity": 120}, {"time": 16559, "pitch": 65, "duration": 227, "velocity": 110}, {"time": 16559, "pitch": 70, "duration": 227, "velocity": 120}, {"time": 16796, "pitch": 65, "duration": 110, "velocity": 110}, {"time": 16796, "pitch": 70, "duration": 110, "velocity": 120}, {"time": 17037, "pitch": 65, "duration": 110, "velocity": 110}, {"time": 17037, "pitch": 70, "duration": 110, "velocity": 120}, {"time": 17920, "pitch": 65, "duration": 75, "velocity": 110}, {"time": 17920, "pitch": 69, "duration": 75, "velocity": 120}, {"time": 18161, "pitch": 65, "duration": 65, "velocity": 110}, {"time": 18161, "pitch": 69, "duration": 65, "velocity": 120}, {"time": 18242, "pitch": 60, "duration": 152, "velocity": 110}, {"time": 18242, "pitch": 65, "duration": 152, "velocity": 120}, {"time": 18482, "pitch": 65, "duration": 230, "velocity": 110}, {"time": 18482, "pitch": 69, "duration": 230, "velocity": 120}, {"time": 18723, "pitch": 65, "duration": 108, "velocity": 110}, {"time": 18723, "pitch": 69, "duration": 108, "velocity": 120}, {"time": 18960, "pitch": 65, "duration": 108, "velocity": 110}, {"time": 18960, "pitch": 69, "duration": 108, "velocity": 120}, {"time": 19840, "pitch": 65, "duration": 74, "velocity": 110}, {"time": 19840, "pitch": 70, "duration": 74, "velocity": 120}, {"time": 20081, "pitch": 65, "duration": 64, "velocity": 110}, {"time": 20081, "pitch": 70, "duration": 64, "velocity": 120}, {"time": 20161, "pitch": 62, "duration": 152, "velocity": 110}, {"time": 20161, "pitch": 65, "duration": 152, "velocity": 120}, {"time": 20402, "pitch": 65, "duration": 230, "velocity": 110}, {"time": 20402, "pitch": 70, "duration": 230, "velocity": 120}, {"time": 20643, "pitch": 65, "duration": 107, "velocity": 110}, {"time": 20643, "pitch": 70, "duration": 107, "velocity": 120}, {"time": 20880, "pitch": 65, "duration": 107, "velocity": 110}, {"time": 20880, "pitch": 70, "duration": 107, "velocity": 120}, {"time": 21759, "pitch": 67, "duration": 74, "velocity": 110}, {"time": 21759, "pitch": 70, "duration": 74, "velocity": 120}, {"time": 22000, "pitch": 67, "duration": 64, "velocity": 110}, {"time": 22000, "pitch": 70, "duration": 64, "velocity": 120}, {"time": 22080, "pitch": 63, "duration": 153, "velocity": 110}, {"time": 22080, "pitch": 67, "duration": 153, "velocity": 120}, {"time": 22321, "pitch": 67, "duration": 230, "velocity": 110}, {"time": 22321, "pitch": 70, "duration": 230, "velocity": 120}, {"time": 22562, "pitch": 67, "duration": 109, "velocity": 110}, {"time": 22562, "pitch": 70, "duration": 109, "velocity": 120}, {"time": 22803, "pitch": 67, "duration": 109, "velocity": 110}, {"time": 22803, "pitch": 70, "duration": 109, "velocity": 120}, {"time": 23678, "pitch": 65, "duration": 74, "velocity": 110}, {"time": 23678, "pitch": 70, "duration": 74, "velocity": 120}, {"time": 23919, "pitch": 65, "duration": 64, "velocity": 110}, {"time": 23919, "pitch": 70, "duration": 64, "velocity": 120}, {"time": 23999, "pitch": 62, "duration": 153, "velocity": 110}, {"time": 23999, "pitch": 65, "duration": 153, "velocity": 120}, {"time": 24240, "pitch": 65, "duration": 230, "velocity": 110}, {"time": 24240, "pitch": 70, "duration": 230, "velocity": 120}, {"time": 24481, "pitch": 65, "duration": 109, "velocity": 110}, {"time": 24481, "pitch": 69, "duration": 109, "velocity": 120}, {"time": 24722, "pitch": 65, "duration": 109, "velocity": 110}, {"time": 24722, "pitch": 69, "duration": 109, "velocity": 120}, {"time": 25597, "pitch": 65, "duration": 74, "velocity": 110}, {"time": 25597, "pitch": 70, "duration": 74, "velocity": 120}, {"time": 25838, "pitch": 65, "duration": 64, "velocity": 110}, {"time": 25838, "pitch": 70, "duration": 64, "velocity": 120}, {"time": 25918, "pitch": 62, "duration": 153, "velocity": 110}, {"time": 25918, "pitch": 65, "duration": 153, "velocity": 120}, {"time": 26159, "pitch": 65, "duration": 230, "velocity": 110}, {"time": 26159, "pitch": 70, "duration": 230, "velocity": 120}, {"time": 26400, "pitch": 65, "duration": 110, "velocity": 110}, {"time": 26400, "pitch": 70, "duration": 110, "velocity": 120}, {"time": 26641, "pitch": 65, "duration": 109, "velocity": 110}, {"time": 26641, "pitch": 70, "duration": 109, "velocity": 120}, {"time": 27364, "pitch": 58, "duration": 1917, "velocity": 91}, {"time": 27364, "pitch": 63, "duration": 1917, "velocity": 91}, {"time": 27364, "pitch": 67, "duration": 1917, "velocity": 91}, {"time": 29283, "pitch": 58, "duration": 1917, "velocity": 91}, {"time": 29283, "pitch": 62, "duration": 1917, "velocity": 91}, {"time": 29283, "pitch": 65, "duration": 1917, "velocity": 91}, {"time": 31202, "pitch": 60, "duration": 1917, "velocity": 91}, {"time": 31202, "pitch": 64, "duration": 1917, "velocity": 91}, {"time": 31202, "pitch": 67, "duration": 1917, "velocity": 91}, {"time": 33121, "pitch": 60, "duration": 954, "velocity": 91}, {"time": 33121, "pitch": 65, "duration": 954, "velocity": 91}, {"time": 33121, "pitch": 69, "duration": 954, "velocity": 91}, {"time": 35281, "pitch": 65, "duration": 70, "velocity": 124}, {"time": 35281, "pitch": 70, "duration": 70, "velocity": 124}, {"time": 35442, "pitch": 65, "duration": 86, "velocity": 124}, {"time": 35442, "pitch": 70, "duration": 86, "velocity": 124}, {"time": 35680, "pitch": 65, "duration": 69, "velocity": 124}, {"time": 35680, "pitch": 70, "duration": 69, "velocity": 124}, {"time": 35759, "pitch": 65, "duration": 81, "velocity": 124}, {"time": 35759, "pitch": 70, "duration": 81, "velocity": 124}, {"time": 35996, "pitch": 65, "duration": 86, "velocity": 124}, {"time": 35996, "pitch": 70, "duration": 86, "velocity": 124}, {"time": 36237, "pitch": 65, "duration": 78, "velocity": 124}, {"time": 36237, "pitch": 70, "duration": 78, "velocity": 124}, {"time": 36398, "pitch": 65, "duration": 86, "velocity": 124}, {"time": 36398, "pitch": 70, "duration": 86, "velocity": 124}, {"time": 36639, "pitch": 65, "duration": 70, "velocity": 124}, {"time": 36639, "pitch": 70, "duration": 70, "velocity": 124}, {"time": 36719, "pitch": 65, "duration": 82, "velocity": 124}, {"time": 36719, "pitch": 70, "duration": 82, "velocity": 124}, {"time": 37201, "pitch": 65, "duration": 69, "velocity": 124}, {"time": 37201, "pitch": 69, "duration": 69, "velocity": 124}, {"time": 37361, "pitch": 65, "duration": 86, "velocity": 124}, {"time": 37361, "pitch": 69, "duration": 86, "velocity": 124}, {"time": 37602, "pitch": 65, "duration": 70, "velocity": 124}, {"time": 37602, "pitch": 69, "duration": 70, "velocity": 124}, {"time": 37682, "pitch": 65, "duration": 83, "velocity": 124}, {"time": 37682, "pitch": 69, "duration": 83, "velocity": 124}, {"time": 37923, "pitch": 67, "duration": 85, "velocity": 124}, {"time": 37923, "pitch": 70, "duration": 85, "velocity": 124}, {"time": 38160, "pitch": 67, "duration": 77, "velocity": 124}, {"time": 38160, "pitch": 70, "duration": 77, "velocity": 124}, {"time": 38318, "pitch": 67, "duration": 85, "velocity": 124}, {"time": 38318, "pitch": 70, "duration": 85, "velocity": 124}, {"time": 38558, "pitch": 67, "duration": 70, "velocity": 124}, {"time": 38558, "pitch": 70, "duration": 70, "velocity": 124}, {"time": 38638, "pitch": 67, "duration": 82, "velocity": 124}, {"time": 38638, "pitch": 70, "duration": 82, "velocity": 124}, {"time": 38879, "pitch": 58, "duration": 961, "velocity": 91}, {"time": 38879, "pitch": 65, "duration": 961, "velocity": 91}, {"time": 38879, "pitch": 70, "duration": 961, "velocity": 91}, {"time": 39842, "pitch": 60, "duration": 954, "velocity": 91}, {"time": 39842, "pitch": 64, "duration": 954, "velocity": 91}, {"time": 39842, "pitch": 67, "duration": 954, "velocity": 91}, {"time": 40798, "pitch": 60, "duration": 962, "velocity": 91}, {"time": 40798, "pitch": 65, "duration": 962, "velocity": 91}, {"time": 40798, "pitch": 69, "duration": 962, "velocity": 91}, {"time": 41762, "pitch": 58, "duration": 953, "velocity": 91}, {"time": 41762, "pitch": 62, "duration": 953, "velocity": 91}, {"time": 41762, "pitch": 65, "duration": 953, "velocity": 91}, {"time": 42958, "pitch": 65, "duration": 69, "velocity": 124}, {"time": 42958, "pitch": 70, "duration": 69, "velocity": 124}, {"time": 43119, "pitch": 65, "duration": 86, "velocity": 124}, {"time": 43119, "pitch": 70, "duration": 86, "velocity": 124}, {"time": 43360, "pitch": 65, "duration": 70, "velocity": 124}, {"time": 43360, "pitch": 70, "duration": 70, "velocity": 124}, {"time": 43440, "pitch": 65, "duration": 82, "velocity": 124}, {"time": 43440, "pitch": 70, "duration": 82, "velocity": 124}, {"time": 43681, "pitch": 65, "duration": 86, "velocity": 124}, {"time": 43681, "pitch": 70, "duration": 86, "velocity": 124}, {"time": 43922, "pitch": 65, "duration": 78, "velocity": 124}, {"time": 43922, "pitch": 70, "duration": 78, "velocity": 124}, {"time": 44082, "pitch": 65, "duration": 86, "velocity": 124}, {"time": 44082, "pitch": 70, "duration": 86, "velocity": 124}, {"time": 44321, "pitch": 65, "duration": 69, "velocity": 124}, {"time": 44321, "pitch": 70, "duration": 69, "velocity": 124}, {"time": 44400, "pitch": 65, "duration": 81, "velocity": 124}, {"time": 44400, "pitch": 70, "duration": 81, "velocity": 124}, {"time": 44877, "pitch": 65, "duration": 70, "velocity": 124}, {"time": 44877, "pitch": 69, "duration": 70, "velocity": 124}, {"time": 45038, "pitch": 65, "duration": 86, "velocity": 124}, {"time": 45038, "pitch": 69, "duration": 86, "velocity": 124}, {"time": 45279, "pitch": 65, "duration": 70, "velocity": 124}, {"time": 45279, "pitch": 69, "duration": 70, "velocity": 124}, {"time": 45359, "pitch": 65, "duration": 82, "velocity": 124}, {"time": 45359, "pitch": 69, "duration": 82, "velocity": 124}, {"time": 45600, "pitch": 67, "duration": 86, "velocity": 124}, {"time": 45600, "pitch": 70, "duration": 86, "velocity": 124}, {"time": 45841, "pitch": 67, "duration": 78, "velocity": 124}, {"time": 45841, "pitch": 70, "duration": 78, "velocity": 124}, {"time": 46001, "pitch": 67, "duration": 87, "velocity": 124}, {"time": 46001, "pitch": 70, "duration": 87, "velocity": 124}, {"time": 46242, "pitch": 67, "duration": 71, "velocity": 124}, {"time": 46242, "pitch": 70, "duration": 71, "velocity": 124}, {"time": 46323, "pitch": 67, "duration": 82, "velocity": 124}, {"time": 46323, "pitch": 70, "duration": 82, "velocity": 124}, {"time": 46563, "pitch": 58, "duration": 954, "velocity": 91}, {"time": 46563, "pitch": 65, "duration": 954, "velocity": 91}, {"time": 46563, "pitch": 70, "duration": 954, "velocity": 91}, {"time": 47519, "pitch": 60, "duration": 962, "velocity": 91}, {"time": 47519, "pitch": 64, "duration": 962, "velocity": 91}, {"time": 47519, "pitch": 67, "duration": 962, "velocity": 91}, {"time": 48483, "pitch": 60, "duration": 953, "velocity": 91}, {"time": 48483, "pitch": 65, "duration": 953, "velocity": 91}, {"time": 48483, "pitch": 69, "duration": 953, "velocity": 91}, {"time": 49438, "pitch": 58, "duration": 962, "velocity": 91}, {"time": 49438, "pitch": 62, "duration": 962, "velocity": 91}, {"time": 49438, "pitch": 65, "duration": 962, "velocity": 91}, {"time": 58239, "pitch": 65, "duration": 75, "velocity": 110}, {"time": 58239, "pitch": 70, "duration": 75, "velocity": 120}, {"time": 58480, "pitch": 65, "duration": 64, "velocity": 110}, {"time": 58480, "pitch": 70, "duration": 64, "velocity": 120}, {"time": 58560, "pitch": 62, "duration": 153, "velocity": 110}, {"time": 58560, "pitch": 65, "duration": 153, "velocity": 120}, {"time": 58801, "pitch": 65, "duration": 230, "velocity": 110}, {"time": 58801, "pitch": 70, "duration": 230, "velocity": 120}, {"time": 59042, "pitch": 65, "duration": 108, "velocity": 110}, {"time": 59042, "pitch": 70, "duration": 108, "velocity": 120}, {"time": 59279, "pitch": 65, "duration": 108, "velocity": 110}, {"time": 59279, "pitch": 70, "duration": 108, "velocity": 120}, {"time": 60159, "pitch": 67, "duration": 74, "velocity": 110}, {"time": 60159, "pitch": 70, "duration": 74, "velocity": 120}, {"time": 60399, "pitch": 67, "duration": 65, "velocity": 110}, {"time": 60399, "pitch": 70, "duration": 65, "velocity": 120}, {"time": 60480, "pitch": 63, "duration": 152, "velocity": 110}, {"time": 60480, "pitch": 67, "duration": 152, "velocity": 120}, {"time": 60721, "pitch": 67, "duration": 229, "velocity": 110}, {"time": 60721, "pitch": 70, "duration": 229, "velocity": 120}, {"time": 60961, "pitch": 67, "duration": 110, "velocity": 110}, {"time": 60961, "pitch": 70, "duration": 110, "velocity": 120}, {"time": 61202, "pitch": 67, "duration": 110, "velocity": 110}, {"time": 61202, "pitch": 70, "duration": 110, "velocity": 120}, {"time": 62078, "pitch": 65, "duration": 74, "velocity": 110}, {"time": 62078, "pitch": 70, "duration": 74, "velocity": 120}, {"time": 62319, "pitch": 65, "duration": 64, "velocity": 110}, {"time": 62319, "pitch": 70, "duration": 64, "velocity": 120}, {"time": 62399, "pitch": 62, "duration": 152, "velocity": 110}, {"time": 62399, "pitch": 65, "duration": 152, "velocity": 120}, {"time": 62640, "pitch": 65, "duration": 230, "velocity": 110}, {"time": 62640, "pitch": 70, "duration": 230, "velocity": 120}, {"time": 62881, "pitch": 65, "duration": 109, "velocity": 110}, {"time": 62881, "pitch": 70, "duration": 109, "velocity": 120}, {"time": 63122, "pitch": 65, "duration": 109, "velocity": 110}, {"time": 63122, "pitch": 70, "duration": 109, "velocity": 120}, {"time": 63997, "pitch": 65, "duration": 74, "velocity": 110}, {"time": 63997, "pitch": 69, "duration": 74, "velocity": 120}, {"time": 64238, "pitch": 65, "duration": 64, "velocity": 110}, {"time": 64238, "pitch": 69, "duration": 64, "velocity": 120}, {"time": 64318, "pitch": 60, "duration": 153, "velocity": 110}, {"time": 64318, "pitch": 65, "duration": 153, "velocity": 120}, {"time": 64559, "pitch": 65, "duration": 230, "velocity": 110}, {"time": 64559, "pitch": 69, "duration": 230, "velocity": 120}, {"time": 64800, "pitch": 65, "duration": 109, "velocity": 110}, {"time": 64800, "pitch": 69, "duration": 109, "velocity": 120}, {"time": 65041, "pitch": 65, "duration": 109, "velocity": 110}, {"time": 65041, "pitch": 69, "duration": 109, "velocity": 120}, {"time": 65921, "pitch": 65, "duration": 73, "velocity": 110}, {"time": 65921, "pitch": 70, "duration": 73, "velocity": 120}, {"time": 66158, "pitch": 65, "duration": 64, "velocity": 110}, {"time": 66158, "pitch": 70, "duration": 64, "velocity": 120}, {"time": 66237, "pitch": 62, "duration": 153, "velocity": 110}, {"time": 66237, "pitch": 65, "duration": 153, "velocity": 120}, {"time": 66478, "pitch": 65, "duration": 230, "velocity": 110}, {"time": 66478, "pitch": 70, "duration": 230, "velocity": 120}, {"time": 66719, "pitch": 65, "duration": 109, "velocity": 110}, {"time": 66719, "pitch": 70, "duration": 109, "velocity": 120}, {"time": 66960, "pitch": 65, "duration": 109, "velocity": 110}, {"time": 66960, "pitch": 70, "duration": 109, "velocity": 120}, {"time": 67841, "pitch": 67, "duration": 73, "velocity": 110}, {"time": 67841, "pitch": 70, "duration": 73, "velocity": 120}, {"time": 68078, "pitch": 67, "duration": 63, "velocity": 110}, {"time": 68078, "pitch": 70, "duration": 63, "velocity": 120}, {"time": 68157, "pitch": 63, "duration": 152, "velocity": 110}, {"time": 68157, "pitch": 67, "duration": 152, "velocity": 120}, {"time": 68397, "pitch": 67, "duration": 230, "velocity": 110}, {"time": 68397, "pitch": 70, "duration": 230, "velocity": 120}, {"time": 68638, "pitch": 67, "duration": 110, "velocity": 110}, {"time": 68638, "pitch": 70, "duration": 110, "velocity": 120}, {"time": 68879, "pitch": 67, "duration": 110, "velocity": 110}, {"time": 68879, "pitch": 70, "duration": 110, "velocity": 120}, {"time": 69762, "pitch": 65, "duration": 75, "velocity": 110}, {"time": 69762, "pitch": 70, "duration": 75, "velocity": 120}, {"time": 70003, "pitch": 65, "duration": 64, "velocity": 110}, {"time": 70003, "pitch": 70, "duration": 64, "velocity": 120}, {"time": 70083, "pitch": 62, "duration": 151, "velocity": 110}, {"time": 70083, "pitch": 65, "duration": 151, "velocity": 120}, {"time": 70320, "pitch": 65, "duration": 227, "velocity": 110}, {"time": 70320, "pitch": 70, "duration": 227, "velocity": 120}, {"time": 70557, "pitch": 65, "duration": 110, "velocity": 110}, {"time": 70557, "pitch": 69, "duration": 110, "velocity": 120}, {"time": 70798, "pitch": 65, "duration": 110, "velocity": 110}, {"time": 70798, "pitch": 69, "duration": 110, "velocity": 120}, {"time": 71682, "pitch": 65, "duration": 74, "velocity": 110}, {"time": 71682, "pitch": 70, "duration": 74, "velocity": 120}, {"time": 71922, "pitch": 65, "duration": 65, "velocity": 110}, {"time": 71922, "pitch": 70, "duration": 65, "velocity": 120}, {"time": 72003, "pitch": 62, "duration": 150, "velocity": 110}, {"time": 72003, "pitch": 65, "duration": 150, "velocity": 120}, {"time": 72240, "pitch": 65, "duration": 226, "velocity": 110}, {"time": 72240, "pitch": 70, "duration": 226, "velocity": 120}, {"time": 72477, "pitch": 65, "duration": 109, "velocity": 110}, {"time": 72477, "pitch": 70, "duration": 109, "velocity": 120}, {"time": 72718, "pitch": 65, "duration": 109, "velocity": 110}, {"time": 72718, "pitch": 70, "duration": 109, "velocity": 120}, {"time": 73440, "pitch": 58, "duration": 1917, "velocity": 91}, {"time": 73440, "pitch": 63, "duration": 1917, "velocity": 91}, {"time": 73440, "pitch": 67, "duration": 1917, "velocity": 91}, {"time": 75359, "pitch": 58, "duration": 1918, "velocity": 91}, {"time": 75359, "pitch": 62, "duration": 1918, "velocity": 91}, {"time": 75359, "pitch": 65, "duration": 1918, "velocity": 91}, {"time": 77279, "pitch": 60, "duration": 1917, "velocity": 91}, {"time": 77279, "pitch": 64, "duration": 1917, "velocity": 91}, {"time": 77279, "pitch": 67, "duration": 1917, "velocity": 91}, {"time": 79198, "pitch": 60, "duration": 961, "velocity": 91}, {"time": 79198, "pitch": 65, "duration": 961, "velocity": 91}, {"time": 79198, "pitch": 69, "duration": 961, "velocity": 91}, {"time": 81358, "pitch": 65, "duration": 69, "velocity": 124}, {"time": 81358, "pitch": 70, "duration": 69, "velocity": 124}, {"time": 81518, "pitch": 65, "duration": 87, "velocity": 124}, {"time": 81518, "pitch": 70, "duration": 87, "velocity": 124}, {"time": 81759, "pitch": 65, "duration": 71, "velocity": 124}, {"time": 81759, "pitch": 70, "duration": 71, "velocity": 124}, {"time": 81840, "pitch": 65, "duration": 82, "velocity": 124}, {"time": 81840, "pitch": 70, "duration": 82, "velocity": 124}, {"time": 82080, "pitch": 65, "duration": 87, "velocity": 124}, {"time": 82080, "pitch": 70, "duration": 87, "velocity": 124}, {"time": 82321, "pitch": 65, "duration": 79, "velocity": 124}, {"time": 82321, "pitch": 70, "duration": 79, "velocity": 124}, {"time": 82482, "pitch": 65, "duration": 86, "velocity": 124}, {"time": 82482, "pitch": 70, "duration": 86, "velocity": 124}, {"time": 82720, "pitch": 65, "duration": 69, "velocity": 124}, {"time": 82720, "pitch": 70, "duration": 69, "velocity": 124}, {"time": 82799, "pitch": 65, "duration": 81, "velocity": 124}, {"time": 82799, "pitch": 70, "duration": 81, "velocity": 124}, {"time": 83277, "pitch": 65, "duration": 69, "velocity": 124}, {"time": 83277, "pitch": 69, "duration": 69, "velocity": 124}, {"time": 83438, "pitch": 65, "duration": 86, "velocity": 124}, {"time": 83438, "pitch": 69, "duration": 86, "velocity": 124}, {"time": 83679, "pitch": 65, "duration": 70, "velocity": 124}, {"time": 83679, "pitch": 69, "duration": 70, "velocity": 124}, {"time": 83759, "pitch": 65, "duration": 82, "velocity": 124}, {"time": 83759, "pitch": 69, "duration": 82, "velocity": 124}, {"time": 84000, "pitch": 67, "duration": 86, "velocity": 124}, {"time": 84000, "pitch": 70, "duration": 86, "velocity": 124}, {"time": 84241, "pitch": 67, "duration": 78, "velocity": 124}, {"time": 84241, "pitch": 70, "duration": 78, "velocity": 124}, {"time": 84401, "pitch": 67, "duration": 86, "velocity": 124}, {"time": 84401, "pitch": 70, "duration": 86, "velocity": 124}, {"time": 84642, "pitch": 67, "duration": 70, "velocity": 124}, {"time": 84642, "pitch": 70, "duration": 70, "velocity": 124}, {"time": 84722, "pitch": 67, "duration": 83, "velocity": 124}, {"time": 84722, "pitch": 70, "duration": 83, "velocity": 124}, {"time": 84963, "pitch": 58, "duration": 954, "velocity": 91}, {"time": 84963, "pitch": 65, "duration": 954, "velocity": 91}, {"time": 84963, "pitch": 70, "duration": 954, "velocity": 91}, {"time": 85919, "pitch": 60, "duration": 961, "velocity": 91}, {"time": 85919, "pitch": 64, "duration": 961, "velocity": 91}, {"time": 85919, "pitch": 67, "duration": 961, "velocity": 91}, {"time": 86882, "pitch": 60, "duration": 954, "velocity": 91}, {"time": 86882, "pitch": 65, "duration": 954, "velocity": 91}, {"time": 86882, "pitch": 69, "duration": 954, "velocity": 91}, {"time": 87838, "pitch": 58, "duration": 962, "velocity": 91}, {"time": 87838, "pitch": 62, "duration": 962, "velocity": 91}, {"time": 87838, "pitch": 65, "duration": 962, "velocity": 91}, {"time": 89043, "pitch": 65, "duration": 69, "velocity": 124}, {"time": 89043, "pitch": 70, "duration": 69, "velocity": 124}, {"time": 89203, "pitch": 65, "duration": 86, "velocity": 124}, {"time": 89203, "pitch": 70, "duration": 86, "velocity": 124}, {"time": 89441, "pitch": 65, "duration": 69, "velocity": 124}, {"time": 89441, "pitch": 70, "duration": 69, "velocity": 124}, {"time": 89520, "pitch": 65, "duration": 81, "velocity": 124}, {"time": 89520, "pitch": 70, "duration": 81, "velocity": 124}, {"time": 89757, "pitch": 65, "duration": 87, "velocity": 124}, {"time": 89757, "pitch": 70, "duration": 87, "velocity": 124}, {"time": 89998, "pitch": 65, "duration": 78, "velocity": 124}, {"time": 89998, "pitch": 70, "duration": 78, "velocity": 124}, {"time": 90159, "pitch": 65, "duration": 86, "velocity": 124}, {"time": 90159, "pitch": 70, "duration": 86, "velocity": 124}, {"time": 90400, "pitch": 65, "duration": 70, "velocity": 124}, {"time": 90400, "pitch": 70, "duration": 70, "velocity": 124}, {"time": 90480, "pitch": 65, "duration": 82, "velocity": 124}, {"time": 90480, "pitch": 70, "duration": 82, "velocity": 124}, {"time": 90962, "pitch": 65, "duration": 69, "velocity": 124}, {"time": 90962, "pitch": 69, "duration": 69, "velocity": 124}, {"time": 91122, "pitch": 65, "duration": 86, "velocity": 124}, {"time": 91122, "pitch": 69, "duration": 86, "velocity": 124}, {"time": 91361, "pitch": 65, "duration": 69, "velocity": 124}, {"time": 91361, "pitch": 69, "duration": 69, "velocity": 124}, {"time": 91440, "pitch": 65, "duration": 81, "velocity": 124}, {"time": 91440, "pitch": 69, "duration": 81, "velocity": 124}, {"time": 91677, "pitch": 67, "duration": 86, "velocity": 124}, {"time": 91677, "pitch": 70, "duration": 86, "velocity": 124}, {"time": 91917, "pitch": 67, "duration": 79, "velocity": 124}, {"time": 91917, "pitch": 70, "duration": 79, "velocity": 124}, {"time": 92078, "pitch": 67, "duration": 86, "velocity": 124}, {"time": 92078, "pitch": 70, "duration": 86, "velocity": 124}, {"time": 92319, "pitch": 67, "duration": 70, "velocity": 124}, {"time": 92319, "pitch": 70, "duration": 70, "velocity": 124}, {"time": 92399, "pitch": 67, "duration": 82, "velocity": 124}, {"time": 92399, "pitch": 70, "duration": 82, "velocity": 124}, {"time": 92640, "pitch": 58, "duration": 962, "velocity": 91}, {"time": 92640, "pitch": 65, "duration": 962, "velocity": 91}, {"time": 92640, "pitch": 70, "duration": 962, "velocity": 91}, {"time": 93603, "pitch": 60, "duration": 954, "velocity": 91}, {"time": 93603, "pitch": 64, "duration": 954, "velocity": 91}, {"time": 93603, "pitch": 67, "duration": 954, "velocity": 91}, {"time": 94559, "pitch": 60, "duration": 962, "velocity": 91}, {"time": 94559, "pitch": 65, "duration": 962, "velocity": 91}, {"time": 94559, "pitch": 69, "duration": 962, "velocity": 91}, {"time": 95523, "pitch": 58, "duration": 953, "velocity": 91}, {"time": 95523, "pitch": 62, "duration": 953, "velocity": 91}, {"time": 95523, "pitch": 65, "duration": 953, "velocity": 91}, {"time": 104321, "pitch": 65, "duration": 73, "velocity": 110}, {"time": 104321, "pitch": 70, "duration": 73, "velocity": 120}, {"time": 104558, "pitch": 65, "duration": 63, "velocity": 110}, {"time": 104558, "pitch": 70, "duration": 63, "velocity": 120}, {"time": 104637, "pitch": 62, "duration": 153, "velocity": 110}, {"time": 104637, "pitch": 65, "duration": 153, "velocity": 120}, {"time": 104878, "pitch": 65, "duration": 230, "velocity": 110}, {"time": 104878, "pitch": 70, "duration": 230, "velocity": 120}, {"time": 105119, "pitch": 65, "duration": 109, "velocity": 110}, {"time": 105119, "pitch": 70, "duration": 109, "velocity": 120}, {"time": 105360, "pitch": 65, "duration": 109, "velocity": 110}, {"time": 105360, "pitch": 70, "duration": 109, "velocity": 120}, {"time": 106240, "pitch": 67, "duration": 73, "velocity": 110}, {"time": 106240, "pitch": 70, "duration": 73, "velocity": 120}, {"time": 106477, "pitch": 67, "duration": 63, "velocity": 110}, {"time": 106477, "pitch": 70, "duration": 63, "velocity": 120}, {"time": 106556, "pitch": 63, "duration": 153, "velocity": 110}, {"time": 106556, "pitch": 67, "duration": 153, "velocity": 120}, {"time": 106797, "pitch": 67, "duration": 230, "velocity": 110}, {"time": 106797, "pitch": 70, "duration": 230, "velocity": 120}, {"time": 107038, "pitch": 67, "duration": 109, "velocity": 110}, {"time": 107038, "pitch": 70, "duration": 109, "velocity": 120}, {"time": 107279, "pitch": 67, "duration": 109, "velocity": 110}, {"time": 107279, "pitch": 70, "duration": 109, "velocity": 120}, {"time": 108162, "pitch": 65, "duration": 74, "velocity": 110}, {"time": 108162, "pitch": 70, "duration": 74, "velocity": 120}, {"time": 108403, "pitch": 65, "duration": 64, "velocity": 110}, {"time": 108403, "pitch": 70, "duration": 64, "velocity": 120}, {"time": 108483, "pitch": 62, "duration": 150, "velocity": 110}, {"time": 108483, "pitch": 65, "duration": 150, "velocity": 120}, {"time": 108720, "pitch": 65, "duration": 226, "velocity": 110}, {"time": 108720, "pitch": 70, "duration": 226, "velocity": 120}, {"time": 108957, "pitch": 65, "duration": 110, "velocity": 110}, {"time": 108957, "pitch": 70, "duration": 110, "velocity": 120}, {"time": 109198, "pitch": 65, "duration": 109, "velocity": 110}, {"time": 109198, "pitch": 70, "duration": 109, "velocity": 120}, {"time": 110081, "pitch": 65, "duration": 75, "velocity": 110}, {"time": 110081, "pitch": 69, "duration": 75, "velocity": 120}, {"time": 110322, "pitch": 65, "duration": 64, "velocity": 110}, {"time": 110322, "pitch": 69, "duration": 64, "velocity": 120}, {"time": 110402, "pitch": 60, "duration": 150, "velocity": 110}, {"time": 110402, "pitch": 65, "duration": 150, "velocity": 120}, {"time": 110639, "pitch": 65, "duration": 227, "velocity": 110}, {"time": 110639, "pitch": 69, "duration": 227, "velocity": 120}, {"time": 110876, "pitch": 65, "duration": 110, "velocity": 110}, {"time": 110876, "pitch": 69, "duration": 110, "velocity": 120}, {"time": 111117, "pitch": 65, "duration": 110, "velocity": 110}, {"time": 111117, "pitch": 69, "duration": 110, "velocity": 120}, {"time": 112000, "pitch": 65, "duration": 75, "velocity": 110}, {"time": 112000, "pitch": 70, "duration": 75, "velocity": 120}, {"time": 112241, "pitch": 65, "duration": 65, "velocity": 110}, {"time": 112241, "pitch": 70, "duration": 65, "velocity": 120}, {"time": 112322, "pitch": 62, "duration": 152, "velocity": 110}, {"time": 112322, "pitch": 65, "duration": 152, "velocity": 120}, {"time": 112563, "pitch": 65, "duration": 229, "velocity": 110}, {"time": 112563, "pitch": 70, "duration": 229, "velocity": 120}, {"time": 112803, "pitch": 65, "duration": 108, "velocity": 110}, {"time": 112803, "pitch": 70, "duration": 108, "velocity": 120}, {"time": 113040, "pitch": 65, "duration": 108, "velocity": 110}, {"time": 113040, "pitch": 70, "duration": 108, "velocity": 120}, {"time": 113920, "pitch": 67, "duration": 74, "velocity": 110}, {"time": 113920, "pitch": 70, "duration": 74, "velocity": 120}, {"time": 114161, "pitch": 67, "duration": 64, "velocity": 110}, {"time": 114161, "pitch": 70, "duration": 64, "velocity": 120}, {"time": 114241, "pitch": 63, "duration": 152, "velocity": 110}, {"time": 114241, "pitch": 67, "duration": 152, "velocity": 120}, {"time": 114482, "pitch": 67, "duration": 230, "velocity": 110}, {"time": 114482, "pitch": 70, "duration": 230, "velocity": 120}, {"time": 114723, "pitch": 67, "duration": 107, "velocity": 110}, {"time": 114723, "pitch": 70, "duration": 107, "velocity": 120}, {"time": 114960, "pitch": 67, "duration": 107, "velocity": 110}, {"time": 114960, "pitch": 70, "duration": 107, "velocity": 120}, {"time": 115839, "pitch": 65, "duration": 74, "velocity": 110}, {"time": 115839, "pitch": 70, "duration": 74, "velocity": 120}, {"time": 116080, "pitch": 65, "duration": 64, "velocity": 110}, {"time": 116080, "pitch": 70, "duration": 64, "velocity": 120}, {"time": 116160, "pitch": 62, "duration": 153, "velocity": 110}, {"time": 116160, "pitch": 65, "duration": 153, "velocity": 120}, {"time": 116401, "pitch": 65, "duration": 230, "velocity": 110}, {"time": 116401, "pitch": 70, "duration": 230, "velocity": 120}, {"time": 116642, "pitch": 65, "duration": 109, "velocity": 110}, {"time": 116642, "pitch": 69, "duration": 109, "velocity": 120}, {"time": 116883, "pitch": 65, "duration": 109, "velocity": 110}, {"time": 116883, "pitch": 69, "duration": 109, "velocity": 120}, {"time": 117758, "pitch": 65, "duration": 74, "velocity": 110}, {"time": 117758, "pitch": 70, "duration": 74, "velocity": 120}, {"time": 117999, "pitch": 65, "duration": 64, "velocity": 110}, {"time": 117999, "pitch": 70, "duration": 64, "velocity": 120}, {"time": 118079, "pitch": 62, "duration": 153, "velocity": 110}, {"time": 118079, "pitch": 65, "duration": 153, "velocity": 120}, {"time": 118320, "pitch": 65, "duration": 230, "velocity": 110}, {"time": 118320, "pitch": 70, "duration": 230, "velocity": 120}, {"time": 118561, "pitch": 65, "duration": 109, "velocity": 110}, {"time": 118561, "pitch": 70, "duration": 109, "velocity": 120}, {"time": 118802, "pitch": 65, "duration": 109, "velocity": 110}, {"time": 118802, "pitch": 70, "duration": 109, "velocity": 120}, {"time": 119517, "pitch": 58, "duration": 1925, "velocity": 91}, {"time": 119517, "pitch": 63, "duration": 1925, "velocity": 91}, {"time": 119517, "pitch": 67, "duration": 1925, "velocity": 91}, {"time": 121444, "pitch": 58, "duration": 1917, "velocity": 91}, {"time": 121444, "pitch": 62, "duration": 1917, "velocity": 91}, {"time": 121444, "pitch": 65, "duration": 1917, "velocity": 91}, {"time": 123363, "pitch": 60, "duration": 1917, "velocity": 91}, {"time": 123363, "pitch": 64, "duration": 1917, "velocity": 91}, {"time": 123363, "pitch": 67, "duration": 1917, "velocity": 91}, {"time": 125282, "pitch": 60, "duration": 954, "velocity": 91}, {"time": 125282, "pitch": 65, "duration": 954, "velocity": 91}, {"time": 125282, "pitch": 69, "duration": 954, "velocity": 91}, {"time": 127442, "pitch": 65, "duration": 69, "velocity": 124}, {"time": 127442, "pitch": 70, "duration": 69, "velocity": 124}, {"time": 127603, "pitch": 65, "duration": 86, "velocity": 124}, {"time": 127603, "pitch": 70, "duration": 86, "velocity": 124}, {"time": 127841, "pitch": 65, "duration": 69, "velocity": 124}, {"time": 127841, "pitch": 70, "duration": 69, "velocity": 124}, {"time": 127920, "pitch": 65, "duration": 81, "velocity": 124}, {"time": 127920, "pitch": 70, "duration": 81, "velocity": 124}, {"time": 128157, "pitch": 65, "duration": 86, "velocity": 124}, {"time": 128157, "pitch": 70, "duration": 86, "velocity": 124}, {"time": 128398, "pitch": 65, "duration": 78, "velocity": 124}, {"time": 128398, "pitch": 70, "duration": 78, "velocity": 124}, {"time": 128558, "pitch": 65, "duration": 87, "velocity": 124}, {"time": 128558, "pitch": 70, "duration": 87, "velocity": 124}, {"time": 128799, "pitch": 65, "duration": 71, "velocity": 124}, {"time": 128799, "pitch": 70, "duration": 71, "velocity": 124}, {"time": 128880, "pitch": 65, "duration": 82, "velocity": 124}, {"time": 128880, "pitch": 70, "duration": 82, "velocity": 124}, {"time": 129361, "pitch": 65, "duration": 70, "velocity": 124}, {"time": 129361, "pitch": 69, "duration": 70, "velocity": 124}, {"time": 129522, "pitch": 65, "duration": 86, "velocity": 124}, {"time": 129522, "pitch": 69, "duration": 86, "velocity": 124}, {"time": 129760, "pitch": 65, "duration": 69, "velocity": 124}, {"time": 129760, "pitch": 69, "duration": 69, "velocity": 124}, {"time": 129839, "pitch": 65, "duration": 81, "velocity": 124}, {"time": 129839, "pitch": 69, "duration": 81, "velocity": 124}, {"time": 130076, "pitch": 67, "duration": 86, "velocity": 124}, {"time": 130076, "pitch": 70, "duration": 86, "velocity": 124}, {"time": 130317, "pitch": 67, "duration": 78, "velocity": 124}, {"time": 130317, "pitch": 70, "duration": 78, "velocity": 124}, {"time": 130478, "pitch": 67, "duration": 86, "velocity": 124}, {"time": 130478, "pitch": 70, "duration": 86, "velocity": 124}, {"time": 130719, "pitch": 67, "duration": 70, "velocity": 124}, {"time": 130719, "pitch": 70, "duration": 70, "velocity": 124}, {"time": 130799, "pitch": 67, "duration": 82, "velocity": 124}, {"time": 130799, "pitch": 70, "duration": 82, "velocity": 124}, {"time": 131040, "pitch": 58, "duration": 961, "velocity": 91}, {"time": 131040, "pitch": 65, "duration": 961, "velocity": 91}, {"time": 131040, "pitch": 70, "duration": 961, "velocity": 91}, {"time": 132003, "pitch": 60, "duration": 954, "velocity": 91}, {"time": 132003, "pitch": 64, "duration": 954, "velocity": 91}, {"time": 132003, "pitch": 67, "duration": 954, "velocity": 91}, {"time": 132959, "pitch": 60, "duration": 961, "velocity": 91}, {"time": 132959, "pitch": 65, "duration": 961, "velocity": 91}, {"time": 132959, "pitch": 69, "duration": 961, "velocity": 91}, {"time": 133922, "pitch": 58, "duration": 954, "velocity": 91}, {"time": 133922, "pitch": 62, "duration": 954, "velocity": 91}, {"time": 133922, "pitch": 65, "duration": 954, "velocity": 91}, {"time": 135119, "pitch": 65, "duration": 69, "velocity": 124}, {"time": 135119, "pitch": 70, "duration": 69, "velocity": 124}, {"time": 135280, "pitch": 65, "duration": 86, "velocity": 124}, {"time": 135280, "pitch": 70, "duration": 86, "velocity": 124}, {"time": 135520, "pitch": 65, "duration": 71, "velocity": 124}, {"time": 135520, "pitch": 70, "duration": 71, "velocity": 124}, {"time": 135601, "pitch": 65, "duration": 82, "velocity": 124}, {"time": 135601, "pitch": 70, "duration": 82, "velocity": 124}, {"time": 135842, "pitch": 65, "duration": 86, "velocity": 124}, {"time": 135842, "pitch": 70, "duration": 86, "velocity": 124}, {"time": 136083, "pitch": 65, "duration": 78, "velocity": 124}, {"time": 136083, "pitch": 70, "duration": 78, "velocity": 124}, {"time": 136243, "pitch": 65, "duration": 86, "velocity": 124}, {"time": 136243, "pitch": 70, "duration": 86, "velocity": 124}, {"time": 136481, "pitch": 65, "duration": 69, "velocity": 124}, {"time": 136481, "pitch": 70, "duration": 69, "velocity": 124}, {"time": 136560, "pitch": 65, "duration": 81, "velocity": 124}, {"time": 136560, "pitch": 70, "duration": 81, "velocity": 124}, {"time": 137038, "pitch": 65, "duration": 69, "velocity": 124}, {"time": 137038, "pitch": 69, "duration": 69, "velocity": 124}, {"time": 137199, "pitch": 65, "duration": 86, "velocity": 124}, {"time": 137199, "pitch": 69, "duration": 86, "velocity": 124}, {"time": 137440, "pitch": 65, "duration": 70, "velocity": 124}, {"time": 137440, "pitch": 69, "duration": 70, "velocity": 124}, {"time": 137520, "pitch": 65, "duration": 82, "velocity": 124}, {"time": 137520, "pitch": 69, "duration": 82, "velocity": 124}, {"time": 137761, "pitch": 67, "duration": 86, "velocity": 124}, {"time": 137761, "pitch": 70, "duration": 86, "velocity": 124}, {"time": 138002, "pitch": 67, "duration": 78, "velocity": 124}, {"time": 138002, "pitch": 70, "duration": 78, "velocity": 124}, {"time": 138162, "pitch": 67, "duration": 86, "velocity": 124}, {"time": 138162, "pitch": 70, "duration": 86, "velocity": 124}, {"time": 138401, "pitch": 67, "duration": 69, "velocity": 124}, {"time": 138401, "pitch": 70, "duration": 69, "velocity": 124}, {"time": 138480, "pitch": 67, "duration": 81, "velocity": 124}, {"time": 138480, "pitch": 70, "duration": 81, "velocity": 124}, {"time": 138717, "pitch": 58, "duration": 961, "velocity": 91}, {"time": 138717, "pitch": 65, "duration": 961, "velocity": 91}, {"time": 138717, "pitch": 70, "duration": 961, "velocity": 91}, {"time": 139680, "pitch": 60, "duration": 962, "velocity": 91}, {"time": 139680, "pitch": 64, "duration": 962, "velocity": 91}, {"time": 139680, "pitch": 67, "duration": 962, "velocity": 91}, {"time": 140643, "pitch": 60, "duration": 954, "velocity": 91}, {"time": 140643, "pitch": 65, "duration": 954, "velocity": 91}, {"time": 140643, "pitch": 69, "duration": 954, "velocity": 91}, {"time": 141599, "pitch": 58, "duration": 962, "velocity": 91}, {"time": 141599, "pitch": 62, "duration": 962, "velocity": 91}, {"time": 141599, "pitch": 65, "duration": 962, "velocity": 91}]}]}