{"metadata": {"schema_version": "0.1", "title": "RWC-MDB-P-2001 No. 47: Deaetakara / Satoshi Kumasaka", "copyright": "RWC Music Database. Copyright (C) 2001 Real World Computing Partnership (contact: Masataka GOTO <m.goto@aist.go.jp>)", "source_filename": "RM-P047.SMF_SYNC.MID", "source_format": "midi"}, "resolution": 480, "tempos": [{"time": 0, "qpm": 44.11764705882353}, {"time": 480, "qpm": 95.23809523809524}, {"time": 960, "qpm": 93.75}, {"time": 3360, "qpm": 95.23809523809524}, {"time": 3840, "qpm": 93.75}, {"time": 6240, "qpm": 95.23809523809524}, {"time": 6720, "qpm": 93.75}, {"time": 9120, "qpm": 95.23809523809524}, {"time": 9600, "qpm": 93.75}, {"time": 12000, "qpm": 95.23809523809524}, {"time": 12480, "qpm": 93.75}, {"time": 14880, "qpm": 95.23809523809524}, {"time": 15360, "qpm": 93.75}, {"time": 17760, "qpm": 95.23809523809524}, {"time": 18240, "qpm": 93.75}, {"time": 21120, "qpm": 95.23809523809524}, {"time": 21600, "qpm": 93.75}, {"time": 23520, "qpm": 95.23809523809524}, {"time": 24000, "qpm": 93.75}, {"time": 26400, "qpm": 95.23809523809524}, {"time": 26880, "qpm": 93.75}, {"time": 29280, "qpm": 95.23809523809524}, {"time": 29760, "qpm": 93.75}, {"time": 31680, "qpm": 95.23809523809524}, {"time": 32160, "qpm": 93.75}, {"time": 34560, "qpm": 95.23809523809524}, {"time": 35040, "qpm": 93.75}, {"time": 37440, "qpm": 95.23809523809524}, {"time": 37920, "qpm": 93.75}, {"time": 40320, "qpm": 95.23809523809524}, {"time": 40800, "qpm": 93.75}, {"time": 43200, "qpm": 95.23809523809524}, {"time": 43680, "qpm": 93.75}, {"time": 46080, "qpm": 95.23809523809524}, {"time": 46560, "qpm": 93.75}, {"time": 48960, "qpm": 95.23809523809524}, {"time": 49440, "qpm": 93.75}, {"time": 51360, "qpm": 95.23809523809524}, {"time": 51840, "qpm": 93.75}, {"time": 54240, "qpm": 95.23809523809524}, {"time": 54720, "qpm": 93.75}, {"time": 57120, "qpm": 95.23809523809524}, {"time": 57600, "qpm": 93.75}, {"time": 60000, "qpm": 95.23809523809524}, {"time": 60480, "qpm": 93.75}, {"time": 62880, "qpm": 95.23809523809524}, {"time": 63360, "qpm": 93.75}, {"time": 65280, "qpm": 95.23809523809524}, {"time": 65760, "qpm": 93.75}, {"time": 68640, "qpm": 95.23809523809524}, {"time": 69120, "qpm": 93.75}, {"time": 71040, "qpm": 95.23809523809524}, {"time": 71520, "qpm": 93.75}, {"time": 73920, "qpm": 95.23809523809524}, {"time": 74400, "qpm": 93.75}, {"time": 76320, "qpm": 95.23809523809524}, {"time": 76800, "qpm": 93.75}, {"time": 79200, "qpm": 95.23809523809524}, {"time": 79680, "qpm": 93.75}, {"time": 82080, "qpm": 95.23809523809524}, {"time": 82560, "qpm": 93.75}, {"time": 85440, "qpm": 95.23809523809524}, {"time": 85920, "qpm": 93.75}, {"time": 87840, "qpm": 95.23809523809524}, {"time": 88320, "qpm": 93.75}, {"time": 90720, "qpm": 95.23809523809524}, {"time": 91200, "qpm": 93.75}, {"time": 93600, "qpm": 95.23809523809524}, {"time": 94080, "qpm": 93.75}, {"time": 96960, "qpm": 95.23809523809524}, {"time": 97440, "qpm": 93.75}, {"time": 99360, "qpm": 95.23809523809524}, {"time": 99840, "qpm": 93.75}, {"time": 102240, "qpm": 95.23809523809524}, {"time": 102720, "qpm": 93.75}, {"time": 105120, "qpm": 95.23809523809524}, {"time": 105600, "qpm": 93.75}, {"time": 108000, "qpm": 95.23809523809524}, {"time": 108480, "qpm": 93.75}, {"time": 110880, "qpm": 95.23809523809524}, {"time": 111360, "qpm": 93.75}, {"time": 113760, "qpm": 95.23809523809524}, {"time": 114240, "qpm": 93.75}, {"time": 116640, "qpm": 95.23809523809524}, {"time": 117120, "qpm": 93.75}, {"time": 120480, "qpm": 95.23809523809524}, {"time": 120960, "qpm": 93.75}, {"time": 121920, "qpm": 95.23809523809524}, {"time": 122880, "qpm": 93.75}, {"time": 127200, "qpm": 95.23809523809524}, {"time": 127680, "qpm": 93.75}, {"time": 130560, "qpm": 95.23809523809524}, {"time": 131040, "qpm": 93.75}, {"time": 132960, "qpm": 95.23809523809524}, {"time": 133440, "qpm": 93.75}, {"time": 135840, "qpm": 95.23809523809524}, {"time": 136320, "qpm": 93.75}, {"time": 139200, "qpm": 95.23809523809524}, {"time": 139680, "qpm": 93.75}, {"time": 141600, "qpm": 95.23809523809524}, {"time": 142080, "qpm": 93.75}, {"time": 144000, "qpm": 95.23809523809524}, {"time": 144480, "qpm": 93.75}, {"time": 147360, "qpm": 95.23809523809524}, {"time": 147840, "qpm": 90.9090909090909}, {"time": 148320, "qpm": 88.23529411764706}, {"time": 148800, "qpm": 81.08108108108108}, {"time": 149280, "qpm": 73.17073170731707}, {"time": 149760, "qpm": 61.224489795918366}, {"time": 150240, "qpm": 41.95804195804196}], "key_signatures": [{"time": 0, "root": 0, "mode": "major"}], "time_signatures": [{"time": 0, "numerator": 2, "denominator": 4}, {"time": 960, "numerator": 4, "denominator": 4}], "tracks": [{"program": 0, "is_drum": false, "name": "Piano", "notes": [{"time": 718, "pitch": 45, "duration": 31, "velocity": 52}, {"time": 726, "pitch": 47, "duration": 44, "velocity": 47}, {"time": 739, "pitch": 48, "duration": 50, "velocity": 38}, {"time": 752, "pitch": 50, "duration": 57, "velocity": 41}, {"time": 765, "pitch": 52, "duration": 67, "velocity": 48}, {"time": 778, "pitch": 53, "duration": 79, "velocity": 53}, {"time": 790, "pitch": 55, "duration": 95, "velocity": 56}, {"time": 817, "pitch": 57, "duration": 104, "velocity": 47}, {"time": 846, "pitch": 59, "duration": 117, "velocity": 47}, {"time": 871, "pitch": 60, "duration": 118, "velocity": 53}, {"time": 911, "pitch": 62, "duration": 100, "velocity": 43}, {"time": 957, "pitch": 48, "duration": 685, "velocity": 67}, {"time": 957, "pitch": 55, "duration": 274, "velocity": 67}, {"time": 957, "pitch": 64, "duration": 284, "velocity": 64}, {"time": 1443, "pitch": 55, "duration": 362, "velocity": 72}, {"time": 1443, "pitch": 60, "duration": 317, "velocity": 71}, {"time": 1443, "pitch": 64, "duration": 309, "velocity": 66}, {"time": 1922, "pitch": 43, "duration": 779, "velocity": 69}, {"time": 1922, "pitch": 55, "duration": 274, "velocity": 75}, {"time": 1922, "pitch": 59, "duration": 284, "velocity": 78}, {"time": 1922, "pitch": 62, "duration": 287, "velocity": 69}, {"time": 2400, "pitch": 55, "duration": 290, "velocity": 71}, {"time": 2400, "pitch": 59, "duration": 309, "velocity": 75}, {"time": 2400, "pitch": 62, "duration": 326, "velocity": 70}, {"time": 2879, "pitch": 45, "duration": 805, "velocity": 74}, {"time": 2879, "pitch": 57, "duration": 323, "velocity": 75}, {"time": 2879, "pitch": 60, "duration": 322, "velocity": 77}, {"time": 2879, "pitch": 64, "duration": 329, "velocity": 71}, {"time": 3358, "pitch": 57, "duration": 294, "velocity": 79}, {"time": 3358, "pitch": 60, "duration": 303, "velocity": 84}, {"time": 3358, "pitch": 64, "duration": 305, "velocity": 78}, {"time": 3836, "pitch": 43, "duration": 781, "velocity": 66}, {"time": 3836, "pitch": 55, "duration": 306, "velocity": 78}, {"time": 3836, "pitch": 59, "duration": 307, "velocity": 86}, {"time": 3836, "pitch": 62, "duration": 306, "velocity": 75}, {"time": 4323, "pitch": 55, "duration": 259, "velocity": 79}, {"time": 4323, "pitch": 59, "duration": 248, "velocity": 88}, {"time": 4323, "pitch": 62, "duration": 253, "velocity": 81}, {"time": 4801, "pitch": 41, "duration": 850, "velocity": 67}, {"time": 4801, "pitch": 53, "duration": 298, "velocity": 78}, {"time": 4801, "pitch": 57, "duration": 303, "velocity": 93}, {"time": 4801, "pitch": 60, "duration": 297, "velocity": 81}, {"time": 5280, "pitch": 53, "duration": 350, "velocity": 78}, {"time": 5280, "pitch": 57, "duration": 364, "velocity": 87}, {"time": 5280, "pitch": 60, "duration": 375, "velocity": 82}, {"time": 5759, "pitch": 43, "duration": 694, "velocity": 74}, {"time": 5759, "pitch": 55, "duration": 301, "velocity": 79}, {"time": 5759, "pitch": 59, "duration": 310, "velocity": 90}, {"time": 5759, "pitch": 62, "duration": 310, "velocity": 84}, {"time": 6237, "pitch": 55, "duration": 257, "velocity": 83}, {"time": 6237, "pitch": 59, "duration": 235, "velocity": 93}, {"time": 6237, "pitch": 62, "duration": 239, "velocity": 84}, {"time": 6679, "pitch": 48, "duration": 733, "velocity": 57}, {"time": 6724, "pitch": 55, "duration": 327, "velocity": 67}, {"time": 6724, "pitch": 60, "duration": 317, "velocity": 68}, {"time": 6724, "pitch": 64, "duration": 316, "velocity": 66}, {"time": 7202, "pitch": 55, "duration": 356, "velocity": 68}, {"time": 7202, "pitch": 60, "duration": 298, "velocity": 69}, {"time": 7202, "pitch": 64, "duration": 289, "velocity": 67}, {"time": 7681, "pitch": 43, "duration": 743, "velocity": 71}, {"time": 7681, "pitch": 55, "duration": 285, "velocity": 60}, {"time": 7681, "pitch": 59, "duration": 274, "velocity": 72}, {"time": 7681, "pitch": 62, "duration": 276, "velocity": 63}, {"time": 8160, "pitch": 55, "duration": 254, "velocity": 59}, {"time": 8160, "pitch": 59, "duration": 249, "velocity": 71}, {"time": 8160, "pitch": 62, "duration": 252, "velocity": 64}, {"time": 8638, "pitch": 48, "duration": 220, "velocity": 67}, {"time": 8638, "pitch": 55, "duration": 833, "velocity": 64}, {"time": 8638, "pitch": 60, "duration": 807, "velocity": 69}, {"time": 8638, "pitch": 64, "duration": 791, "velocity": 67}, {"time": 9117, "pitch": 48, "duration": 234, "velocity": 89}, {"time": 9603, "pitch": 43, "duration": 237, "velocity": 73}, {"time": 9603, "pitch": 55, "duration": 781, "velocity": 67}, {"time": 9603, "pitch": 59, "duration": 793, "velocity": 78}, {"time": 9603, "pitch": 62, "duration": 800, "velocity": 68}, {"time": 10082, "pitch": 43, "duration": 266, "velocity": 95}, {"time": 10560, "pitch": 45, "duration": 227, "velocity": 83}, {"time": 10560, "pitch": 57, "duration": 763, "velocity": 75}, {"time": 10560, "pitch": 60, "duration": 763, "velocity": 84}, {"time": 10560, "pitch": 64, "duration": 753, "velocity": 81}, {"time": 11039, "pitch": 45, "duration": 236, "velocity": 84}, {"time": 11518, "pitch": 43, "duration": 276, "velocity": 84}, {"time": 11518, "pitch": 55, "duration": 790, "velocity": 79}, {"time": 11518, "pitch": 59, "duration": 789, "velocity": 88}, {"time": 11518, "pitch": 62, "duration": 773, "velocity": 78}, {"time": 11997, "pitch": 43, "duration": 234, "velocity": 78}, {"time": 12483, "pitch": 41, "duration": 246, "velocity": 86}, {"time": 12483, "pitch": 53, "duration": 765, "velocity": 71}, {"time": 12483, "pitch": 57, "duration": 767, "velocity": 78}, {"time": 12483, "pitch": 60, "duration": 797, "velocity": 73}, {"time": 12961, "pitch": 41, "duration": 255, "velocity": 78}, {"time": 13440, "pitch": 40, "duration": 263, "velocity": 93}, {"time": 13440, "pitch": 52, "duration": 840, "velocity": 69}, {"time": 13440, "pitch": 55, "duration": 852, "velocity": 79}, {"time": 13440, "pitch": 60, "duration": 899, "velocity": 48}, {"time": 13919, "pitch": 40, "duration": 274, "velocity": 86}, {"time": 14397, "pitch": 41, "duration": 243, "velocity": 80}, {"time": 14397, "pitch": 53, "duration": 793, "velocity": 78}, {"time": 14397, "pitch": 57, "duration": 816, "velocity": 83}, {"time": 14397, "pitch": 60, "duration": 823, "velocity": 68}, {"time": 14884, "pitch": 41, "duration": 276, "velocity": 90}, {"time": 15362, "pitch": 43, "duration": 226, "velocity": 70}, {"time": 15362, "pitch": 55, "duration": 743, "velocity": 61}, {"time": 15362, "pitch": 59, "duration": 755, "velocity": 67}, {"time": 15362, "pitch": 62, "duration": 761, "velocity": 62}, {"time": 15841, "pitch": 43, "duration": 277, "velocity": 88}, {"time": 16320, "pitch": 48, "duration": 225, "velocity": 79}, {"time": 16320, "pitch": 55, "duration": 772, "velocity": 67}, {"time": 16320, "pitch": 60, "duration": 745, "velocity": 71}, {"time": 16320, "pitch": 64, "duration": 736, "velocity": 69}, {"time": 16798, "pitch": 48, "duration": 241, "velocity": 85}, {"time": 17277, "pitch": 43, "duration": 266, "velocity": 81}, {"time": 17277, "pitch": 55, "duration": 821, "velocity": 63}, {"time": 17277, "pitch": 59, "duration": 833, "velocity": 70}, {"time": 17277, "pitch": 62, "duration": 848, "velocity": 69}, {"time": 17763, "pitch": 43, "duration": 284, "velocity": 82}, {"time": 18242, "pitch": 45, "duration": 210, "velocity": 72}, {"time": 18242, "pitch": 57, "duration": 746, "velocity": 70}, {"time": 18242, "pitch": 60, "duration": 769, "velocity": 80}, {"time": 18242, "pitch": 64, "duration": 850, "velocity": 75}, {"time": 18720, "pitch": 45, "duration": 230, "velocity": 89}, {"time": 19199, "pitch": 43, "duration": 256, "velocity": 89}, {"time": 19199, "pitch": 55, "duration": 763, "velocity": 75}, {"time": 19199, "pitch": 59, "duration": 766, "velocity": 96}, {"time": 19199, "pitch": 64, "duration": 770, "velocity": 63}, {"time": 19678, "pitch": 43, "duration": 236, "velocity": 93}, {"time": 20157, "pitch": 41, "duration": 256, "velocity": 86}, {"time": 20157, "pitch": 53, "duration": 790, "velocity": 76}, {"time": 20157, "pitch": 57, "duration": 794, "velocity": 84}, {"time": 20157, "pitch": 60, "duration": 789, "velocity": 76}, {"time": 20643, "pitch": 41, "duration": 257, "velocity": 88}, {"time": 21121, "pitch": 40, "duration": 255, "velocity": 78}, {"time": 21121, "pitch": 52, "duration": 778, "velocity": 69}, {"time": 21121, "pitch": 55, "duration": 802, "velocity": 77}, {"time": 21121, "pitch": 60, "duration": 833, "velocity": 61}, {"time": 21600, "pitch": 40, "duration": 268, "velocity": 106}, {"time": 22079, "pitch": 41, "duration": 254, "velocity": 69}, {"time": 22079, "pitch": 53, "duration": 917, "velocity": 76}, {"time": 22079, "pitch": 57, "duration": 922, "velocity": 86}, {"time": 22079, "pitch": 60, "duration": 911, "velocity": 61}, {"time": 22557, "pitch": 41, "duration": 268, "velocity": 90}, {"time": 23044, "pitch": 48, "duration": 256, "velocity": 87}, {"time": 23044, "pitch": 52, "duration": 474, "velocity": 75}, {"time": 23044, "pitch": 55, "duration": 474, "velocity": 86}, {"time": 23044, "pitch": 60, "duration": 474, "velocity": 69}, {"time": 23522, "pitch": 47, "duration": 437, "velocity": 92}, {"time": 23522, "pitch": 52, "duration": 475, "velocity": 75}, {"time": 23522, "pitch": 55, "duration": 475, "velocity": 86}, {"time": 23522, "pitch": 59, "duration": 475, "velocity": 69}, {"time": 24001, "pitch": 45, "duration": 798, "velocity": 64}, {"time": 24001, "pitch": 64, "duration": 242, "velocity": 67}, {"time": 24240, "pitch": 60, "duration": 257, "velocity": 65}, {"time": 24480, "pitch": 57, "duration": 236, "velocity": 63}, {"time": 24719, "pitch": 60, "duration": 272, "velocity": 67}, {"time": 24958, "pitch": 43, "duration": 765, "velocity": 70}, {"time": 24958, "pitch": 62, "duration": 283, "velocity": 67}, {"time": 25198, "pitch": 59, "duration": 239, "velocity": 57}, {"time": 25437, "pitch": 55, "duration": 274, "velocity": 59}, {"time": 25680, "pitch": 59, "duration": 297, "velocity": 71}, {"time": 25923, "pitch": 41, "duration": 765, "velocity": 67}, {"time": 25923, "pitch": 60, "duration": 269, "velocity": 72}, {"time": 26163, "pitch": 57, "duration": 242, "velocity": 71}, {"time": 26402, "pitch": 53, "duration": 234, "velocity": 64}, {"time": 26641, "pitch": 57, "duration": 304, "velocity": 67}, {"time": 26881, "pitch": 43, "duration": 817, "velocity": 62}, {"time": 26881, "pitch": 60, "duration": 297, "velocity": 66}, {"time": 27120, "pitch": 59, "duration": 240, "velocity": 67}, {"time": 27359, "pitch": 62, "duration": 243, "velocity": 67}, {"time": 27599, "pitch": 59, "duration": 267, "velocity": 67}, {"time": 27838, "pitch": 45, "duration": 683, "velocity": 72}, {"time": 27838, "pitch": 64, "duration": 276, "velocity": 57}, {"time": 28077, "pitch": 60, "duration": 257, "velocity": 54}, {"time": 28317, "pitch": 57, "duration": 290, "velocity": 63}, {"time": 28560, "pitch": 60, "duration": 272, "velocity": 66}, {"time": 28803, "pitch": 43, "duration": 898, "velocity": 66}, {"time": 28803, "pitch": 62, "duration": 293, "velocity": 53}, {"time": 29042, "pitch": 59, "duration": 235, "velocity": 53}, {"time": 29281, "pitch": 55, "duration": 304, "velocity": 57}, {"time": 29521, "pitch": 59, "duration": 267, "velocity": 65}, {"time": 29760, "pitch": 41, "duration": 853, "velocity": 65}, {"time": 29760, "pitch": 60, "duration": 251, "velocity": 75}, {"time": 29999, "pitch": 57, "duration": 273, "velocity": 73}, {"time": 30239, "pitch": 53, "duration": 238, "velocity": 67}, {"time": 30478, "pitch": 57, "duration": 271, "velocity": 70}, {"time": 30717, "pitch": 43, "duration": 758, "velocity": 73}, {"time": 30717, "pitch": 60, "duration": 280, "velocity": 70}, {"time": 30961, "pitch": 59, "duration": 243, "velocity": 61}, {"time": 31204, "pitch": 62, "duration": 247, "velocity": 50}, {"time": 31443, "pitch": 59, "duration": 216, "velocity": 85}, {"time": 31682, "pitch": 45, "duration": 759, "velocity": 72}, {"time": 31682, "pitch": 57, "duration": 67, "velocity": 71}, {"time": 31682, "pitch": 60, "duration": 76, "velocity": 72}, {"time": 31682, "pitch": 64, "duration": 70, "velocity": 65}, {"time": 31922, "pitch": 57, "duration": 54, "velocity": 69}, {"time": 31922, "pitch": 60, "duration": 62, "velocity": 75}, {"time": 31922, "pitch": 64, "duration": 58, "velocity": 67}, {"time": 32161, "pitch": 57, "duration": 57, "velocity": 78}, {"time": 32161, "pitch": 60, "duration": 60, "velocity": 83}, {"time": 32161, "pitch": 64, "duration": 61, "velocity": 74}, {"time": 32400, "pitch": 57, "duration": 75, "velocity": 71}, {"time": 32400, "pitch": 60, "duration": 83, "velocity": 78}, {"time": 32400, "pitch": 64, "duration": 72, "velocity": 67}, {"time": 32640, "pitch": 44, "duration": 842, "velocity": 69}, {"time": 32640, "pitch": 56, "duration": 63, "velocity": 63}, {"time": 32640, "pitch": 60, "duration": 44, "velocity": 52}, {"time": 32640, "pitch": 64, "duration": 66, "velocity": 62}, {"time": 32879, "pitch": 56, "duration": 72, "velocity": 78}, {"time": 32879, "pitch": 60, "duration": 55, "velocity": 72}, {"time": 32879, "pitch": 64, "duration": 48, "velocity": 61}, {"time": 33118, "pitch": 56, "duration": 72, "velocity": 71}, {"time": 33118, "pitch": 60, "duration": 60, "velocity": 82}, {"time": 33118, "pitch": 64, "duration": 53, "velocity": 69}, {"time": 33358, "pitch": 56, "duration": 87, "velocity": 71}, {"time": 33358, "pitch": 60, "duration": 68, "velocity": 78}, {"time": 33358, "pitch": 64, "duration": 75, "velocity": 67}, {"time": 33597, "pitch": 43, "duration": 782, "velocity": 60}, {"time": 33597, "pitch": 55, "duration": 64, "velocity": 72}, {"time": 33597, "pitch": 60, "duration": 75, "velocity": 75}, {"time": 33597, "pitch": 64, "duration": 85, "velocity": 66}, {"time": 33840, "pitch": 55, "duration": 72, "velocity": 67}, {"time": 33840, "pitch": 60, "duration": 69, "velocity": 70}, {"time": 33840, "pitch": 64, "duration": 79, "velocity": 59}, {"time": 34083, "pitch": 55, "duration": 69, "velocity": 67}, {"time": 34083, "pitch": 60, "duration": 73, "velocity": 70}, {"time": 34083, "pitch": 64, "duration": 75, "velocity": 60}, {"time": 34323, "pitch": 55, "duration": 62, "velocity": 64}, {"time": 34323, "pitch": 60, "duration": 87, "velocity": 75}, {"time": 34323, "pitch": 64, "duration": 82, "velocity": 63}, {"time": 34562, "pitch": 42, "duration": 840, "velocity": 70}, {"time": 34562, "pitch": 54, "duration": 65, "velocity": 77}, {"time": 34562, "pitch": 60, "duration": 88, "velocity": 75}, {"time": 34562, "pitch": 64, "duration": 109, "velocity": 71}, {"time": 34801, "pitch": 54, "duration": 80, "velocity": 66}, {"time": 34801, "pitch": 60, "duration": 77, "velocity": 70}, {"time": 34801, "pitch": 64, "duration": 45, "velocity": 56}, {"time": 35041, "pitch": 54, "duration": 81, "velocity": 66}, {"time": 35041, "pitch": 60, "duration": 65, "velocity": 64}, {"time": 35041, "pitch": 64, "duration": 67, "velocity": 67}, {"time": 35280, "pitch": 54, "duration": 83, "velocity": 59}, {"time": 35280, "pitch": 60, "duration": 61, "velocity": 64}, {"time": 35280, "pitch": 64, "duration": 61, "velocity": 55}, {"time": 35519, "pitch": 41, "duration": 860, "velocity": 58}, {"time": 35519, "pitch": 53, "duration": 423, "velocity": 75}, {"time": 35519, "pitch": 57, "duration": 437, "velocity": 82}, {"time": 35519, "pitch": 60, "duration": 423, "velocity": 68}, {"time": 35998, "pitch": 53, "duration": 411, "velocity": 68}, {"time": 35998, "pitch": 57, "duration": 455, "velocity": 75}, {"time": 35998, "pitch": 60, "duration": 424, "velocity": 67}, {"time": 36477, "pitch": 41, "duration": 342, "velocity": 84}, {"time": 36720, "pitch": 53, "duration": 488, "velocity": 53}, {"time": 36720, "pitch": 57, "duration": 512, "velocity": 59}, {"time": 36720, "pitch": 60, "duration": 534, "velocity": 58}, {"time": 36963, "pitch": 41, "duration": 242, "velocity": 82}, {"time": 37441, "pitch": 43, "duration": 1671, "velocity": 65}, {"time": 37441, "pitch": 55, "duration": 326, "velocity": 71}, {"time": 37441, "pitch": 59, "duration": 322, "velocity": 72}, {"time": 37441, "pitch": 62, "duration": 326, "velocity": 67}, {"time": 37920, "pitch": 55, "duration": 327, "velocity": 67}, {"time": 37920, "pitch": 59, "duration": 339, "velocity": 75}, {"time": 37920, "pitch": 62, "duration": 342, "velocity": 68}, {"time": 38399, "pitch": 55, "duration": 347, "velocity": 75}, {"time": 38399, "pitch": 59, "duration": 367, "velocity": 78}, {"time": 38399, "pitch": 62, "duration": 372, "velocity": 71}, {"time": 38399, "pitch": 65, "duration": 372, "velocity": 71}, {"time": 38877, "pitch": 55, "duration": 297, "velocity": 75}, {"time": 38877, "pitch": 59, "duration": 291, "velocity": 81}, {"time": 38877, "pitch": 62, "duration": 298, "velocity": 71}, {"time": 38877, "pitch": 65, "duration": 298, "velocity": 71}, {"time": 39364, "pitch": 48, "duration": 707, "velocity": 67}, {"time": 39364, "pitch": 55, "duration": 312, "velocity": 69}, {"time": 39364, "pitch": 60, "duration": 304, "velocity": 75}, {"time": 39364, "pitch": 64, "duration": 310, "velocity": 70}, {"time": 39842, "pitch": 55, "duration": 395, "velocity": 73}, {"time": 39842, "pitch": 60, "duration": 265, "velocity": 76}, {"time": 39842, "pitch": 64, "duration": 253, "velocity": 74}, {"time": 40321, "pitch": 41, "duration": 772, "velocity": 67}, {"time": 40321, "pitch": 53, "duration": 302, "velocity": 81}, {"time": 40321, "pitch": 57, "duration": 313, "velocity": 81}, {"time": 40321, "pitch": 60, "duration": 298, "velocity": 73}, {"time": 40800, "pitch": 53, "duration": 285, "velocity": 73}, {"time": 40800, "pitch": 57, "duration": 363, "velocity": 80}, {"time": 40800, "pitch": 60, "duration": 371, "velocity": 69}, {"time": 41278, "pitch": 43, "duration": 796, "velocity": 68}, {"time": 41278, "pitch": 55, "duration": 350, "velocity": 76}, {"time": 41278, "pitch": 59, "duration": 361, "velocity": 86}, {"time": 41278, "pitch": 62, "duration": 362, "velocity": 78}, {"time": 41757, "pitch": 55, "duration": 242, "velocity": 77}, {"time": 41757, "pitch": 59, "duration": 202, "velocity": 78}, {"time": 41757, "pitch": 62, "duration": 242, "velocity": 70}, {"time": 42000, "pitch": 56, "duration": 601, "velocity": 69}, {"time": 42000, "pitch": 59, "duration": 601, "velocity": 59}, {"time": 42000, "pitch": 62, "duration": 721, "velocity": 62}, {"time": 42722, "pitch": 56, "duration": 216, "velocity": 67}, {"time": 42722, "pitch": 59, "duration": 243, "velocity": 77}, {"time": 42722, "pitch": 62, "duration": 309, "velocity": 70}, {"time": 43201, "pitch": 45, "duration": 564, "velocity": 73}, {"time": 43201, "pitch": 57, "duration": 172, "velocity": 76}, {"time": 43201, "pitch": 60, "duration": 314, "velocity": 76}, {"time": 43201, "pitch": 64, "duration": 309, "velocity": 66}, {"time": 43440, "pitch": 57, "duration": 58, "velocity": 48}, {"time": 43679, "pitch": 57, "duration": 96, "velocity": 84}, {"time": 43679, "pitch": 60, "duration": 107, "velocity": 90}, {"time": 43679, "pitch": 64, "duration": 108, "velocity": 80}, {"time": 43919, "pitch": 43, "duration": 949, "velocity": 86}, {"time": 43919, "pitch": 55, "duration": 365, "velocity": 88}, {"time": 43919, "pitch": 59, "duration": 370, "velocity": 107}, {"time": 43919, "pitch": 64, "duration": 388, "velocity": 85}, {"time": 44397, "pitch": 55, "duration": 79, "velocity": 71}, {"time": 44397, "pitch": 59, "duration": 95, "velocity": 84}, {"time": 44397, "pitch": 64, "duration": 99, "velocity": 70}, {"time": 44637, "pitch": 55, "duration": 303, "velocity": 72}, {"time": 44637, "pitch": 59, "duration": 317, "velocity": 83}, {"time": 44637, "pitch": 64, "duration": 321, "velocity": 68}, {"time": 45123, "pitch": 41, "duration": 655, "velocity": 82}, {"time": 45123, "pitch": 53, "duration": 125, "velocity": 86}, {"time": 45123, "pitch": 57, "duration": 139, "velocity": 101}, {"time": 45123, "pitch": 60, "duration": 137, "velocity": 86}, {"time": 45362, "pitch": 53, "duration": 46, "velocity": 71}, {"time": 45362, "pitch": 57, "duration": 50, "velocity": 86}, {"time": 45362, "pitch": 60, "duration": 44, "velocity": 74}, {"time": 45601, "pitch": 53, "duration": 167, "velocity": 80}, {"time": 45601, "pitch": 57, "duration": 192, "velocity": 95}, {"time": 45601, "pitch": 60, "duration": 202, "velocity": 81}, {"time": 45841, "pitch": 43, "duration": 944, "velocity": 82}, {"time": 45841, "pitch": 55, "duration": 392, "velocity": 83}, {"time": 45841, "pitch": 59, "duration": 391, "velocity": 85}, {"time": 45841, "pitch": 62, "duration": 400, "velocity": 86}, {"time": 46319, "pitch": 55, "duration": 43, "velocity": 77}, {"time": 46319, "pitch": 59, "duration": 50, "velocity": 87}, {"time": 46319, "pitch": 62, "duration": 43, "velocity": 72}, {"time": 46559, "pitch": 55, "duration": 284, "velocity": 95}, {"time": 46559, "pitch": 59, "duration": 272, "velocity": 106}, {"time": 46559, "pitch": 62, "duration": 284, "velocity": 93}, {"time": 47037, "pitch": 55, "duration": 281, "velocity": 72}, {"time": 47037, "pitch": 60, "duration": 274, "velocity": 84}, {"time": 47037, "pitch": 64, "duration": 283, "velocity": 78}, {"time": 47524, "pitch": 55, "duration": 391, "velocity": 77}, {"time": 47524, "pitch": 60, "duration": 367, "velocity": 86}, {"time": 47524, "pitch": 64, "duration": 364, "velocity": 84}, {"time": 48002, "pitch": 41, "duration": 793, "velocity": 73}, {"time": 48002, "pitch": 53, "duration": 282, "velocity": 74}, {"time": 48002, "pitch": 57, "duration": 282, "velocity": 84}, {"time": 48002, "pitch": 60, "duration": 276, "velocity": 78}, {"time": 48481, "pitch": 53, "duration": 286, "velocity": 78}, {"time": 48481, "pitch": 57, "duration": 336, "velocity": 85}, {"time": 48481, "pitch": 60, "duration": 360, "velocity": 78}, {"time": 48960, "pitch": 43, "duration": 597, "velocity": 68}, {"time": 48960, "pitch": 55, "duration": 277, "velocity": 71}, {"time": 48960, "pitch": 59, "duration": 282, "velocity": 79}, {"time": 48960, "pitch": 62, "duration": 297, "velocity": 70}, {"time": 49438, "pitch": 55, "duration": 239, "velocity": 83}, {"time": 49438, "pitch": 59, "duration": 239, "velocity": 93}, {"time": 49438, "pitch": 62, "duration": 239, "velocity": 84}, {"time": 49678, "pitch": 44, "duration": 781, "velocity": 72}, {"time": 49678, "pitch": 56, "duration": 724, "velocity": 74}, {"time": 49678, "pitch": 59, "duration": 603, "velocity": 66}, {"time": 49678, "pitch": 62, "duration": 603, "velocity": 67}, {"time": 50403, "pitch": 56, "duration": 181, "velocity": 69}, {"time": 50403, "pitch": 59, "duration": 129, "velocity": 78}, {"time": 50403, "pitch": 62, "duration": 312, "velocity": 70}, {"time": 50882, "pitch": 45, "duration": 573, "velocity": 73}, {"time": 50882, "pitch": 57, "duration": 165, "velocity": 85}, {"time": 50882, "pitch": 60, "duration": 161, "velocity": 85}, {"time": 50882, "pitch": 64, "duration": 183, "velocity": 80}, {"time": 51121, "pitch": 57, "duration": 35, "velocity": 69}, {"time": 51121, "pitch": 60, "duration": 46, "velocity": 76}, {"time": 51121, "pitch": 64, "duration": 38, "velocity": 65}, {"time": 51361, "pitch": 57, "duration": 82, "velocity": 88}, {"time": 51361, "pitch": 60, "duration": 79, "velocity": 90}, {"time": 51361, "pitch": 64, "duration": 87, "velocity": 84}, {"time": 51600, "pitch": 43, "duration": 713, "velocity": 69}, {"time": 51600, "pitch": 55, "duration": 329, "velocity": 88}, {"time": 51600, "pitch": 59, "duration": 339, "velocity": 101}, {"time": 51600, "pitch": 62, "duration": 335, "velocity": 84}, {"time": 52079, "pitch": 55, "duration": 464, "velocity": 84}, {"time": 52079, "pitch": 59, "duration": 479, "velocity": 99}, {"time": 52079, "pitch": 62, "duration": 481, "velocity": 86}, {"time": 52557, "pitch": 43, "duration": 132, "velocity": 67}, {"time": 52797, "pitch": 41, "duration": 694, "velocity": 73}, {"time": 52797, "pitch": 53, "duration": 108, "velocity": 78}, {"time": 52797, "pitch": 57, "duration": 120, "velocity": 89}, {"time": 52797, "pitch": 60, "duration": 123, "velocity": 81}, {"time": 53040, "pitch": 53, "duration": 45, "velocity": 72}, {"time": 53040, "pitch": 57, "duration": 51, "velocity": 84}, {"time": 53040, "pitch": 60, "duration": 49, "velocity": 75}, {"time": 53283, "pitch": 53, "duration": 193, "velocity": 81}, {"time": 53283, "pitch": 57, "duration": 218, "velocity": 86}, {"time": 53283, "pitch": 60, "duration": 224, "velocity": 80}, {"time": 53522, "pitch": 43, "duration": 778, "velocity": 68}, {"time": 53522, "pitch": 55, "duration": 356, "velocity": 78}, {"time": 53522, "pitch": 59, "duration": 363, "velocity": 83}, {"time": 53522, "pitch": 62, "duration": 370, "velocity": 72}, {"time": 54001, "pitch": 55, "duration": 489, "velocity": 74}, {"time": 54001, "pitch": 59, "duration": 499, "velocity": 85}, {"time": 54001, "pitch": 62, "duration": 496, "velocity": 78}, {"time": 54479, "pitch": 43, "duration": 148, "velocity": 77}, {"time": 54708, "pitch": 41, "duration": 1809, "velocity": 72}, {"time": 54719, "pitch": 53, "duration": 345, "velocity": 81}, {"time": 54719, "pitch": 57, "duration": 352, "velocity": 92}, {"time": 54719, "pitch": 60, "duration": 352, "velocity": 84}, {"time": 55198, "pitch": 53, "duration": 351, "velocity": 79}, {"time": 55198, "pitch": 57, "duration": 371, "velocity": 86}, {"time": 55198, "pitch": 60, "duration": 368, "velocity": 80}, {"time": 55684, "pitch": 53, "duration": 348, "velocity": 80}, {"time": 55684, "pitch": 57, "duration": 367, "velocity": 95}, {"time": 55684, "pitch": 60, "duration": 367, "velocity": 83}, {"time": 56162, "pitch": 53, "duration": 353, "velocity": 75}, {"time": 56162, "pitch": 57, "duration": 351, "velocity": 81}, {"time": 56162, "pitch": 60, "duration": 370, "velocity": 71}, {"time": 56641, "pitch": 36, "duration": 1901, "velocity": 49}, {"time": 56641, "pitch": 52, "duration": 365, "velocity": 44}, {"time": 56641, "pitch": 55, "duration": 413, "velocity": 70}, {"time": 56641, "pitch": 60, "duration": 424, "velocity": 64}, {"time": 57120, "pitch": 52, "duration": 355, "velocity": 70}, {"time": 57120, "pitch": 55, "duration": 366, "velocity": 74}, {"time": 57120, "pitch": 60, "duration": 376, "velocity": 59}, {"time": 57598, "pitch": 52, "duration": 934, "velocity": 71}, {"time": 57598, "pitch": 55, "duration": 941, "velocity": 77}, {"time": 57598, "pitch": 60, "duration": 943, "velocity": 71}, {"time": 58563, "pitch": 55, "duration": 828, "velocity": 64}, {"time": 58563, "pitch": 60, "duration": 802, "velocity": 69}, {"time": 58563, "pitch": 64, "duration": 786, "velocity": 67}, {"time": 59042, "pitch": 48, "duration": 230, "velocity": 89}, {"time": 59521, "pitch": 43, "duration": 237, "velocity": 73}, {"time": 59521, "pitch": 55, "duration": 780, "velocity": 67}, {"time": 59521, "pitch": 59, "duration": 792, "velocity": 78}, {"time": 59521, "pitch": 62, "duration": 799, "velocity": 68}, {"time": 59999, "pitch": 43, "duration": 267, "velocity": 95}, {"time": 60478, "pitch": 45, "duration": 226, "velocity": 83}, {"time": 60478, "pitch": 57, "duration": 767, "velocity": 75}, {"time": 60478, "pitch": 60, "duration": 767, "velocity": 84}, {"time": 60478, "pitch": 64, "duration": 757, "velocity": 81}, {"time": 60957, "pitch": 45, "duration": 239, "velocity": 84}, {"time": 61443, "pitch": 43, "duration": 276, "velocity": 84}, {"time": 61443, "pitch": 55, "duration": 786, "velocity": 79}, {"time": 61443, "pitch": 59, "duration": 785, "velocity": 88}, {"time": 61443, "pitch": 62, "duration": 769, "velocity": 78}, {"time": 61921, "pitch": 43, "duration": 232, "velocity": 78}, {"time": 62400, "pitch": 41, "duration": 246, "velocity": 86}, {"time": 62400, "pitch": 53, "duration": 765, "velocity": 71}, {"time": 62400, "pitch": 57, "duration": 767, "velocity": 78}, {"time": 62400, "pitch": 60, "duration": 798, "velocity": 73}, {"time": 62879, "pitch": 41, "duration": 254, "velocity": 78}, {"time": 63358, "pitch": 40, "duration": 267, "velocity": 93}, {"time": 63358, "pitch": 52, "duration": 847, "velocity": 69}, {"time": 63358, "pitch": 55, "duration": 859, "velocity": 79}, {"time": 63358, "pitch": 60, "duration": 906, "velocity": 48}, {"time": 63844, "pitch": 40, "duration": 274, "velocity": 86}, {"time": 64322, "pitch": 41, "duration": 240, "velocity": 80}, {"time": 64322, "pitch": 53, "duration": 785, "velocity": 78}, {"time": 64322, "pitch": 57, "duration": 808, "velocity": 83}, {"time": 64322, "pitch": 60, "duration": 815, "velocity": 68}, {"time": 64801, "pitch": 41, "duration": 276, "velocity": 90}, {"time": 65280, "pitch": 43, "duration": 225, "velocity": 70}, {"time": 65280, "pitch": 55, "duration": 743, "velocity": 61}, {"time": 65280, "pitch": 59, "duration": 755, "velocity": 67}, {"time": 65280, "pitch": 62, "duration": 761, "velocity": 62}, {"time": 65758, "pitch": 43, "duration": 278, "velocity": 88}, {"time": 66237, "pitch": 48, "duration": 229, "velocity": 79}, {"time": 66237, "pitch": 55, "duration": 780, "velocity": 67}, {"time": 66237, "pitch": 60, "duration": 753, "velocity": 71}, {"time": 66237, "pitch": 64, "duration": 744, "velocity": 69}, {"time": 66723, "pitch": 48, "duration": 241, "velocity": 85}, {"time": 67202, "pitch": 43, "duration": 262, "velocity": 81}, {"time": 67202, "pitch": 55, "duration": 814, "velocity": 63}, {"time": 67202, "pitch": 59, "duration": 826, "velocity": 70}, {"time": 67202, "pitch": 62, "duration": 841, "velocity": 69}, {"time": 67681, "pitch": 43, "duration": 284, "velocity": 82}, {"time": 68159, "pitch": 45, "duration": 211, "velocity": 72}, {"time": 68159, "pitch": 57, "duration": 746, "velocity": 70}, {"time": 68159, "pitch": 60, "duration": 769, "velocity": 80}, {"time": 68159, "pitch": 64, "duration": 851, "velocity": 75}, {"time": 68638, "pitch": 45, "duration": 229, "velocity": 89}, {"time": 69117, "pitch": 43, "duration": 260, "velocity": 89}, {"time": 69117, "pitch": 55, "duration": 770, "velocity": 75}, {"time": 69117, "pitch": 59, "duration": 773, "velocity": 96}, {"time": 69117, "pitch": 64, "duration": 777, "velocity": 63}, {"time": 69603, "pitch": 43, "duration": 236, "velocity": 93}, {"time": 70082, "pitch": 41, "duration": 252, "velocity": 86}, {"time": 70082, "pitch": 53, "duration": 782, "velocity": 76}, {"time": 70082, "pitch": 57, "duration": 786, "velocity": 84}, {"time": 70082, "pitch": 60, "duration": 781, "velocity": 76}, {"time": 70560, "pitch": 41, "duration": 257, "velocity": 88}, {"time": 71039, "pitch": 40, "duration": 254, "velocity": 78}, {"time": 71039, "pitch": 52, "duration": 782, "velocity": 69}, {"time": 71039, "pitch": 55, "duration": 807, "velocity": 77}, {"time": 71039, "pitch": 60, "duration": 838, "velocity": 61}, {"time": 71518, "pitch": 40, "duration": 272, "velocity": 106}, {"time": 72004, "pitch": 41, "duration": 254, "velocity": 69}, {"time": 72004, "pitch": 53, "duration": 910, "velocity": 76}, {"time": 72004, "pitch": 57, "duration": 915, "velocity": 86}, {"time": 72004, "pitch": 60, "duration": 904, "velocity": 61}, {"time": 72482, "pitch": 41, "duration": 264, "velocity": 90}, {"time": 72961, "pitch": 48, "duration": 256, "velocity": 87}, {"time": 72961, "pitch": 52, "duration": 475, "velocity": 75}, {"time": 72961, "pitch": 55, "duration": 475, "velocity": 86}, {"time": 72961, "pitch": 60, "duration": 475, "velocity": 69}, {"time": 73440, "pitch": 47, "duration": 437, "velocity": 92}, {"time": 73440, "pitch": 52, "duration": 474, "velocity": 75}, {"time": 73440, "pitch": 55, "duration": 474, "velocity": 86}, {"time": 73440, "pitch": 59, "duration": 474, "velocity": 69}, {"time": 73918, "pitch": 45, "duration": 803, "velocity": 64}, {"time": 73918, "pitch": 64, "duration": 243, "velocity": 67}, {"time": 74158, "pitch": 60, "duration": 256, "velocity": 65}, {"time": 74397, "pitch": 57, "duration": 240, "velocity": 63}, {"time": 74640, "pitch": 60, "duration": 276, "velocity": 67}, {"time": 74883, "pitch": 43, "duration": 760, "velocity": 70}, {"time": 74883, "pitch": 62, "duration": 283, "velocity": 67}, {"time": 75123, "pitch": 59, "duration": 239, "velocity": 57}, {"time": 75362, "pitch": 55, "duration": 270, "velocity": 59}, {"time": 75601, "pitch": 59, "duration": 294, "velocity": 71}, {"time": 75841, "pitch": 41, "duration": 765, "velocity": 67}, {"time": 75841, "pitch": 60, "duration": 269, "velocity": 72}, {"time": 76080, "pitch": 57, "duration": 242, "velocity": 71}, {"time": 76319, "pitch": 53, "duration": 235, "velocity": 64}, {"time": 76559, "pitch": 57, "duration": 304, "velocity": 67}, {"time": 76798, "pitch": 43, "duration": 823, "velocity": 62}, {"time": 76798, "pitch": 60, "duration": 297, "velocity": 66}, {"time": 77037, "pitch": 59, "duration": 241, "velocity": 67}, {"time": 77277, "pitch": 62, "duration": 246, "velocity": 67}, {"time": 77520, "pitch": 59, "duration": 271, "velocity": 67}, {"time": 77763, "pitch": 45, "duration": 680, "velocity": 72}, {"time": 77763, "pitch": 64, "duration": 276, "velocity": 57}, {"time": 78002, "pitch": 60, "duration": 256, "velocity": 54}, {"time": 78242, "pitch": 57, "duration": 286, "velocity": 63}, {"time": 78481, "pitch": 60, "duration": 268, "velocity": 66}, {"time": 78720, "pitch": 43, "duration": 899, "velocity": 66}, {"time": 78720, "pitch": 62, "duration": 293, "velocity": 53}, {"time": 78960, "pitch": 59, "duration": 235, "velocity": 53}, {"time": 79199, "pitch": 55, "duration": 303, "velocity": 57}, {"time": 79438, "pitch": 59, "duration": 267, "velocity": 65}, {"time": 79678, "pitch": 41, "duration": 858, "velocity": 65}, {"time": 79678, "pitch": 60, "duration": 251, "velocity": 75}, {"time": 79917, "pitch": 57, "duration": 273, "velocity": 73}, {"time": 80156, "pitch": 53, "duration": 242, "velocity": 67}, {"time": 80399, "pitch": 57, "duration": 274, "velocity": 70}, {"time": 80642, "pitch": 43, "duration": 750, "velocity": 73}, {"time": 80642, "pitch": 60, "duration": 276, "velocity": 70}, {"time": 80882, "pitch": 59, "duration": 239, "velocity": 61}, {"time": 81121, "pitch": 62, "duration": 247, "velocity": 50}, {"time": 81360, "pitch": 59, "duration": 217, "velocity": 85}, {"time": 81600, "pitch": 45, "duration": 759, "velocity": 72}, {"time": 81600, "pitch": 57, "duration": 67, "velocity": 71}, {"time": 81600, "pitch": 60, "duration": 76, "velocity": 72}, {"time": 81600, "pitch": 64, "duration": 70, "velocity": 65}, {"time": 81839, "pitch": 57, "duration": 55, "velocity": 69}, {"time": 81839, "pitch": 60, "duration": 63, "velocity": 75}, {"time": 81839, "pitch": 64, "duration": 59, "velocity": 67}, {"time": 82078, "pitch": 57, "duration": 57, "velocity": 78}, {"time": 82078, "pitch": 60, "duration": 60, "velocity": 83}, {"time": 82078, "pitch": 64, "duration": 61, "velocity": 74}, {"time": 82318, "pitch": 57, "duration": 75, "velocity": 71}, {"time": 82318, "pitch": 60, "duration": 83, "velocity": 78}, {"time": 82318, "pitch": 64, "duration": 72, "velocity": 67}, {"time": 82557, "pitch": 44, "duration": 850, "velocity": 69}, {"time": 82557, "pitch": 56, "duration": 65, "velocity": 63}, {"time": 82557, "pitch": 60, "duration": 45, "velocity": 52}, {"time": 82557, "pitch": 64, "duration": 68, "velocity": 62}, {"time": 82800, "pitch": 56, "duration": 73, "velocity": 78}, {"time": 82800, "pitch": 60, "duration": 56, "velocity": 72}, {"time": 82800, "pitch": 64, "duration": 49, "velocity": 61}, {"time": 83043, "pitch": 56, "duration": 72, "velocity": 71}, {"time": 83043, "pitch": 60, "duration": 60, "velocity": 82}, {"time": 83043, "pitch": 64, "duration": 53, "velocity": 69}, {"time": 83283, "pitch": 56, "duration": 87, "velocity": 71}, {"time": 83283, "pitch": 60, "duration": 68, "velocity": 78}, {"time": 83283, "pitch": 64, "duration": 75, "velocity": 67}, {"time": 83522, "pitch": 43, "duration": 775, "velocity": 60}, {"time": 83522, "pitch": 55, "duration": 63, "velocity": 72}, {"time": 83522, "pitch": 60, "duration": 74, "velocity": 75}, {"time": 83522, "pitch": 64, "duration": 84, "velocity": 66}, {"time": 83761, "pitch": 55, "duration": 71, "velocity": 67}, {"time": 83761, "pitch": 60, "duration": 68, "velocity": 70}, {"time": 83761, "pitch": 64, "duration": 78, "velocity": 59}, {"time": 84001, "pitch": 55, "duration": 68, "velocity": 67}, {"time": 84001, "pitch": 60, "duration": 72, "velocity": 70}, {"time": 84001, "pitch": 64, "duration": 74, "velocity": 60}, {"time": 84240, "pitch": 55, "duration": 63, "velocity": 64}, {"time": 84240, "pitch": 60, "duration": 88, "velocity": 75}, {"time": 84240, "pitch": 64, "duration": 83, "velocity": 63}, {"time": 84479, "pitch": 42, "duration": 840, "velocity": 70}, {"time": 84479, "pitch": 54, "duration": 65, "velocity": 77}, {"time": 84479, "pitch": 60, "duration": 88, "velocity": 75}, {"time": 84479, "pitch": 64, "duration": 109, "velocity": 71}, {"time": 84719, "pitch": 54, "duration": 79, "velocity": 66}, {"time": 84719, "pitch": 60, "duration": 76, "velocity": 70}, {"time": 84719, "pitch": 64, "duration": 45, "velocity": 56}, {"time": 84958, "pitch": 54, "duration": 82, "velocity": 66}, {"time": 84958, "pitch": 60, "duration": 66, "velocity": 64}, {"time": 84958, "pitch": 64, "duration": 68, "velocity": 67}, {"time": 85197, "pitch": 54, "duration": 83, "velocity": 59}, {"time": 85197, "pitch": 60, "duration": 61, "velocity": 64}, {"time": 85197, "pitch": 64, "duration": 61, "velocity": 55}, {"time": 85437, "pitch": 41, "duration": 867, "velocity": 58}, {"time": 85437, "pitch": 53, "duration": 429, "velocity": 75}, {"time": 85437, "pitch": 57, "duration": 443, "velocity": 82}, {"time": 85437, "pitch": 60, "duration": 429, "velocity": 68}, {"time": 85923, "pitch": 53, "duration": 411, "velocity": 68}, {"time": 85923, "pitch": 57, "duration": 455, "velocity": 75}, {"time": 85923, "pitch": 60, "duration": 424, "velocity": 67}, {"time": 86402, "pitch": 41, "duration": 337, "velocity": 84}, {"time": 86641, "pitch": 53, "duration": 485, "velocity": 53}, {"time": 86641, "pitch": 57, "duration": 508, "velocity": 59}, {"time": 86641, "pitch": 60, "duration": 530, "velocity": 58}, {"time": 86880, "pitch": 41, "duration": 243, "velocity": 82}, {"time": 87359, "pitch": 43, "duration": 1675, "velocity": 65}, {"time": 87359, "pitch": 55, "duration": 325, "velocity": 71}, {"time": 87359, "pitch": 59, "duration": 321, "velocity": 72}, {"time": 87359, "pitch": 62, "duration": 325, "velocity": 67}, {"time": 87838, "pitch": 55, "duration": 327, "velocity": 67}, {"time": 87838, "pitch": 59, "duration": 339, "velocity": 75}, {"time": 87838, "pitch": 62, "duration": 342, "velocity": 68}, {"time": 88316, "pitch": 55, "duration": 353, "velocity": 75}, {"time": 88316, "pitch": 59, "duration": 373, "velocity": 78}, {"time": 88316, "pitch": 62, "duration": 378, "velocity": 71}, {"time": 88316, "pitch": 65, "duration": 378, "velocity": 71}, {"time": 88802, "pitch": 55, "duration": 293, "velocity": 75}, {"time": 88802, "pitch": 59, "duration": 287, "velocity": 81}, {"time": 88802, "pitch": 62, "duration": 294, "velocity": 71}, {"time": 88802, "pitch": 65, "duration": 294, "velocity": 71}, {"time": 89281, "pitch": 48, "duration": 707, "velocity": 67}, {"time": 89281, "pitch": 55, "duration": 312, "velocity": 69}, {"time": 89281, "pitch": 60, "duration": 304, "velocity": 75}, {"time": 89281, "pitch": 64, "duration": 310, "velocity": 70}, {"time": 89760, "pitch": 55, "duration": 395, "velocity": 73}, {"time": 89760, "pitch": 60, "duration": 264, "velocity": 76}, {"time": 89760, "pitch": 64, "duration": 252, "velocity": 74}, {"time": 90238, "pitch": 41, "duration": 777, "velocity": 67}, {"time": 90238, "pitch": 53, "duration": 303, "velocity": 81}, {"time": 90238, "pitch": 57, "duration": 314, "velocity": 81}, {"time": 90238, "pitch": 60, "duration": 299, "velocity": 73}, {"time": 90717, "pitch": 53, "duration": 290, "velocity": 73}, {"time": 90717, "pitch": 57, "duration": 369, "velocity": 80}, {"time": 90717, "pitch": 60, "duration": 377, "velocity": 69}, {"time": 91203, "pitch": 43, "duration": 717, "velocity": 68}, {"time": 91203, "pitch": 55, "duration": 350, "velocity": 76}, {"time": 91203, "pitch": 59, "duration": 361, "velocity": 86}, {"time": 91203, "pitch": 62, "duration": 362, "velocity": 78}, {"time": 91682, "pitch": 55, "duration": 238, "velocity": 77}, {"time": 91682, "pitch": 59, "duration": 238, "velocity": 78}, {"time": 91682, "pitch": 62, "duration": 238, "velocity": 70}, {"time": 91921, "pitch": 44, "duration": 784, "velocity": 71}, {"time": 91921, "pitch": 56, "duration": 717, "velocity": 69}, {"time": 91921, "pitch": 59, "duration": 598, "velocity": 59}, {"time": 91921, "pitch": 62, "duration": 598, "velocity": 62}, {"time": 92639, "pitch": 56, "duration": 217, "velocity": 67}, {"time": 92639, "pitch": 59, "duration": 244, "velocity": 77}, {"time": 92639, "pitch": 62, "duration": 310, "velocity": 70}, {"time": 93118, "pitch": 45, "duration": 566, "velocity": 73}, {"time": 93118, "pitch": 57, "duration": 173, "velocity": 76}, {"time": 93118, "pitch": 60, "duration": 314, "velocity": 76}, {"time": 93118, "pitch": 64, "duration": 309, "velocity": 66}, {"time": 93357, "pitch": 57, "duration": 58, "velocity": 48}, {"time": 93597, "pitch": 57, "duration": 97, "velocity": 84}, {"time": 93597, "pitch": 60, "duration": 108, "velocity": 90}, {"time": 93597, "pitch": 64, "duration": 109, "velocity": 80}, {"time": 93840, "pitch": 43, "duration": 949, "velocity": 86}, {"time": 93840, "pitch": 55, "duration": 369, "velocity": 88}, {"time": 93840, "pitch": 59, "duration": 374, "velocity": 107}, {"time": 93840, "pitch": 64, "duration": 391, "velocity": 85}, {"time": 94322, "pitch": 55, "duration": 79, "velocity": 71}, {"time": 94322, "pitch": 59, "duration": 95, "velocity": 84}, {"time": 94322, "pitch": 64, "duration": 99, "velocity": 70}, {"time": 94562, "pitch": 55, "duration": 299, "velocity": 72}, {"time": 94562, "pitch": 59, "duration": 312, "velocity": 83}, {"time": 94562, "pitch": 64, "duration": 316, "velocity": 68}, {"time": 95040, "pitch": 41, "duration": 655, "velocity": 82}, {"time": 95040, "pitch": 53, "duration": 126, "velocity": 86}, {"time": 95040, "pitch": 57, "duration": 140, "velocity": 101}, {"time": 95040, "pitch": 60, "duration": 138, "velocity": 86}, {"time": 95280, "pitch": 53, "duration": 45, "velocity": 71}, {"time": 95280, "pitch": 57, "duration": 49, "velocity": 86}, {"time": 95280, "pitch": 60, "duration": 43, "velocity": 74}, {"time": 95519, "pitch": 53, "duration": 166, "velocity": 80}, {"time": 95519, "pitch": 57, "duration": 191, "velocity": 95}, {"time": 95519, "pitch": 60, "duration": 201, "velocity": 81}, {"time": 95758, "pitch": 43, "duration": 948, "velocity": 82}, {"time": 95758, "pitch": 55, "duration": 392, "velocity": 83}, {"time": 95758, "pitch": 59, "duration": 391, "velocity": 85}, {"time": 95758, "pitch": 62, "duration": 400, "velocity": 86}, {"time": 96237, "pitch": 55, "duration": 43, "velocity": 77}, {"time": 96237, "pitch": 59, "duration": 50, "velocity": 87}, {"time": 96237, "pitch": 62, "duration": 43, "velocity": 72}, {"time": 96476, "pitch": 55, "duration": 289, "velocity": 95}, {"time": 96476, "pitch": 59, "duration": 277, "velocity": 106}, {"time": 96476, "pitch": 62, "duration": 289, "velocity": 93}, {"time": 96962, "pitch": 48, "duration": 627, "velocity": 66}, {"time": 96962, "pitch": 55, "duration": 277, "velocity": 72}, {"time": 96962, "pitch": 60, "duration": 270, "velocity": 84}, {"time": 96962, "pitch": 64, "duration": 279, "velocity": 78}, {"time": 97441, "pitch": 55, "duration": 391, "velocity": 77}, {"time": 97441, "pitch": 60, "duration": 367, "velocity": 86}, {"time": 97441, "pitch": 64, "duration": 364, "velocity": 84}, {"time": 97920, "pitch": 41, "duration": 793, "velocity": 73}, {"time": 97920, "pitch": 53, "duration": 281, "velocity": 74}, {"time": 97920, "pitch": 57, "duration": 281, "velocity": 84}, {"time": 97920, "pitch": 60, "duration": 275, "velocity": 78}, {"time": 98399, "pitch": 53, "duration": 286, "velocity": 78}, {"time": 98399, "pitch": 57, "duration": 336, "velocity": 85}, {"time": 98399, "pitch": 60, "duration": 360, "velocity": 78}, {"time": 98877, "pitch": 43, "duration": 605, "velocity": 68}, {"time": 98877, "pitch": 55, "duration": 282, "velocity": 71}, {"time": 98877, "pitch": 59, "duration": 287, "velocity": 79}, {"time": 98877, "pitch": 62, "duration": 302, "velocity": 70}, {"time": 99363, "pitch": 55, "duration": 119, "velocity": 83}, {"time": 99363, "pitch": 59, "duration": 119, "velocity": 93}, {"time": 99363, "pitch": 62, "duration": 239, "velocity": 84}, {"time": 99603, "pitch": 44, "duration": 774, "velocity": 72}, {"time": 99603, "pitch": 56, "duration": 597, "velocity": 74}, {"time": 99603, "pitch": 59, "duration": 597, "velocity": 66}, {"time": 99603, "pitch": 62, "duration": 597, "velocity": 67}, {"time": 100321, "pitch": 56, "duration": 180, "velocity": 69}, {"time": 100321, "pitch": 59, "duration": 128, "velocity": 78}, {"time": 100321, "pitch": 62, "duration": 312, "velocity": 70}, {"time": 100799, "pitch": 45, "duration": 574, "velocity": 73}, {"time": 100799, "pitch": 57, "duration": 166, "velocity": 85}, {"time": 100799, "pitch": 60, "duration": 162, "velocity": 85}, {"time": 100799, "pitch": 64, "duration": 184, "velocity": 80}, {"time": 101039, "pitch": 57, "duration": 35, "velocity": 69}, {"time": 101039, "pitch": 60, "duration": 46, "velocity": 76}, {"time": 101039, "pitch": 64, "duration": 38, "velocity": 65}, {"time": 101278, "pitch": 57, "duration": 83, "velocity": 88}, {"time": 101278, "pitch": 60, "duration": 80, "velocity": 90}, {"time": 101278, "pitch": 64, "duration": 88, "velocity": 84}, {"time": 101517, "pitch": 43, "duration": 721, "velocity": 69}, {"time": 101517, "pitch": 55, "duration": 331, "velocity": 88}, {"time": 101517, "pitch": 59, "duration": 341, "velocity": 101}, {"time": 101517, "pitch": 62, "duration": 337, "velocity": 84}, {"time": 102000, "pitch": 55, "duration": 468, "velocity": 84}, {"time": 102000, "pitch": 59, "duration": 483, "velocity": 99}, {"time": 102000, "pitch": 62, "duration": 485, "velocity": 86}, {"time": 102482, "pitch": 43, "duration": 132, "velocity": 67}, {"time": 102722, "pitch": 41, "duration": 687, "velocity": 73}, {"time": 102722, "pitch": 53, "duration": 106, "velocity": 78}, {"time": 102722, "pitch": 57, "duration": 118, "velocity": 89}, {"time": 102722, "pitch": 60, "duration": 121, "velocity": 81}, {"time": 102961, "pitch": 53, "duration": 45, "velocity": 72}, {"time": 102961, "pitch": 57, "duration": 51, "velocity": 84}, {"time": 102961, "pitch": 60, "duration": 49, "velocity": 75}, {"time": 103200, "pitch": 53, "duration": 194, "velocity": 81}, {"time": 103200, "pitch": 57, "duration": 219, "velocity": 86}, {"time": 103200, "pitch": 60, "duration": 225, "velocity": 80}, {"time": 103440, "pitch": 43, "duration": 777, "velocity": 68}, {"time": 103440, "pitch": 55, "duration": 356, "velocity": 78}, {"time": 103440, "pitch": 59, "duration": 363, "velocity": 83}, {"time": 103440, "pitch": 62, "duration": 370, "velocity": 72}, {"time": 103918, "pitch": 55, "duration": 490, "velocity": 74}, {"time": 103918, "pitch": 59, "duration": 500, "velocity": 85}, {"time": 103918, "pitch": 62, "duration": 497, "velocity": 78}, {"time": 104397, "pitch": 43, "duration": 148, "velocity": 77}, {"time": 104636, "pitch": 48, "duration": 252, "velocity": 67}, {"time": 104636, "pitch": 55, "duration": 319, "velocity": 67}, {"time": 104636, "pitch": 60, "duration": 331, "velocity": 67}, {"time": 104636, "pitch": 64, "duration": 334, "velocity": 65}, {"time": 105122, "pitch": 48, "duration": 263, "velocity": 69}, {"time": 105122, "pitch": 55, "duration": 321, "velocity": 65}, {"time": 105122, "pitch": 60, "duration": 334, "velocity": 62}, {"time": 105122, "pitch": 64, "duration": 321, "velocity": 59}, {"time": 105601, "pitch": 48, "duration": 246, "velocity": 81}, {"time": 105601, "pitch": 55, "duration": 327, "velocity": 61}, {"time": 105601, "pitch": 60, "duration": 339, "velocity": 64}, {"time": 105601, "pitch": 64, "duration": 329, "velocity": 63}, {"time": 106080, "pitch": 48, "duration": 254, "velocity": 71}, {"time": 106080, "pitch": 55, "duration": 315, "velocity": 58}, {"time": 106080, "pitch": 60, "duration": 296, "velocity": 58}, {"time": 106080, "pitch": 64, "duration": 296, "velocity": 60}, {"time": 106559, "pitch": 43, "duration": 320, "velocity": 78}, {"time": 106559, "pitch": 55, "duration": 300, "velocity": 57}, {"time": 106559, "pitch": 59, "duration": 304, "velocity": 69}, {"time": 106559, "pitch": 62, "duration": 304, "velocity": 63}, {"time": 107037, "pitch": 43, "duration": 242, "velocity": 83}, {"time": 107037, "pitch": 55, "duration": 307, "velocity": 67}, {"time": 107037, "pitch": 59, "duration": 310, "velocity": 71}, {"time": 107037, "pitch": 62, "duration": 312, "velocity": 66}, {"time": 107523, "pitch": 43, "duration": 236, "velocity": 82}, {"time": 107523, "pitch": 55, "duration": 297, "velocity": 65}, {"time": 107523, "pitch": 59, "duration": 299, "velocity": 70}, {"time": 107523, "pitch": 62, "duration": 304, "velocity": 65}, {"time": 108002, "pitch": 43, "duration": 244, "velocity": 80}, {"time": 108002, "pitch": 55, "duration": 301, "velocity": 65}, {"time": 108002, "pitch": 59, "duration": 304, "velocity": 71}, {"time": 108002, "pitch": 62, "duration": 333, "velocity": 63}, {"time": 108481, "pitch": 45, "duration": 256, "velocity": 67}, {"time": 108481, "pitch": 57, "duration": 292, "velocity": 67}, {"time": 108481, "pitch": 60, "duration": 301, "velocity": 67}, {"time": 108481, "pitch": 64, "duration": 290, "velocity": 57}, {"time": 108959, "pitch": 45, "duration": 243, "velocity": 78}, {"time": 108959, "pitch": 57, "duration": 303, "velocity": 71}, {"time": 108959, "pitch": 60, "duration": 301, "velocity": 67}, {"time": 108959, "pitch": 64, "duration": 300, "velocity": 61}, {"time": 109438, "pitch": 45, "duration": 246, "velocity": 81}, {"time": 109438, "pitch": 57, "duration": 340, "velocity": 71}, {"time": 109438, "pitch": 60, "duration": 336, "velocity": 67}, {"time": 109438, "pitch": 64, "duration": 334, "velocity": 62}, {"time": 109917, "pitch": 43, "duration": 105, "velocity": 78}, {"time": 109917, "pitch": 55, "duration": 86, "velocity": 63}, {"time": 109917, "pitch": 59, "duration": 94, "velocity": 65}, {"time": 109917, "pitch": 62, "duration": 106, "velocity": 57}, {"time": 110160, "pitch": 41, "duration": 307, "velocity": 71}, {"time": 110160, "pitch": 53, "duration": 414, "velocity": 71}, {"time": 110160, "pitch": 57, "duration": 420, "velocity": 70}, {"time": 110160, "pitch": 60, "duration": 411, "velocity": 68}, {"time": 110642, "pitch": 41, "duration": 316, "velocity": 84}, {"time": 110882, "pitch": 53, "duration": 305, "velocity": 67}, {"time": 110882, "pitch": 57, "duration": 326, "velocity": 73}, {"time": 110882, "pitch": 60, "duration": 345, "velocity": 68}, {"time": 111121, "pitch": 41, "duration": 172, "velocity": 84}, {"time": 111360, "pitch": 43, "duration": 257, "velocity": 75}, {"time": 111360, "pitch": 55, "duration": 298, "velocity": 58}, {"time": 111360, "pitch": 59, "duration": 299, "velocity": 65}, {"time": 111360, "pitch": 62, "duration": 290, "velocity": 55}, {"time": 111839, "pitch": 43, "duration": 264, "velocity": 90}, {"time": 111839, "pitch": 55, "duration": 301, "velocity": 71}, {"time": 111839, "pitch": 59, "duration": 292, "velocity": 73}, {"time": 111839, "pitch": 62, "duration": 294, "velocity": 68}, {"time": 112318, "pitch": 48, "duration": 260, "velocity": 56}, {"time": 112318, "pitch": 55, "duration": 290, "velocity": 61}, {"time": 112318, "pitch": 60, "duration": 303, "velocity": 66}, {"time": 112318, "pitch": 64, "duration": 301, "velocity": 59}, {"time": 112796, "pitch": 48, "duration": 251, "velocity": 78}, {"time": 112796, "pitch": 55, "duration": 269, "velocity": 64}, {"time": 112796, "pitch": 60, "duration": 289, "velocity": 64}, {"time": 112796, "pitch": 64, "duration": 287, "velocity": 58}, {"time": 113283, "pitch": 48, "duration": 244, "velocity": 80}, {"time": 113283, "pitch": 55, "duration": 294, "velocity": 65}, {"time": 113283, "pitch": 60, "duration": 297, "velocity": 61}, {"time": 113283, "pitch": 64, "duration": 297, "velocity": 60}, {"time": 113761, "pitch": 48, "duration": 258, "velocity": 81}, {"time": 113761, "pitch": 55, "duration": 330, "velocity": 64}, {"time": 113761, "pitch": 60, "duration": 313, "velocity": 60}, {"time": 113761, "pitch": 64, "duration": 310, "velocity": 58}, {"time": 114240, "pitch": 43, "duration": 301, "velocity": 65}, {"time": 114240, "pitch": 55, "duration": 270, "velocity": 57}, {"time": 114240, "pitch": 59, "duration": 259, "velocity": 70}, {"time": 114240, "pitch": 62, "duration": 270, "velocity": 63}, {"time": 114719, "pitch": 43, "duration": 259, "velocity": 72}, {"time": 114719, "pitch": 55, "duration": 287, "velocity": 68}, {"time": 114719, "pitch": 59, "duration": 294, "velocity": 71}, {"time": 114719, "pitch": 62, "duration": 304, "velocity": 64}, {"time": 115197, "pitch": 43, "duration": 233, "velocity": 82}, {"time": 115197, "pitch": 55, "duration": 291, "velocity": 65}, {"time": 115197, "pitch": 59, "duration": 290, "velocity": 68}, {"time": 115197, "pitch": 62, "duration": 299, "velocity": 60}, {"time": 115683, "pitch": 43, "duration": 276, "velocity": 84}, {"time": 115683, "pitch": 55, "duration": 290, "velocity": 64}, {"time": 115683, "pitch": 59, "duration": 296, "velocity": 68}, {"time": 115683, "pitch": 62, "duration": 322, "velocity": 63}, {"time": 116162, "pitch": 45, "duration": 276, "velocity": 65}, {"time": 116162, "pitch": 57, "duration": 308, "velocity": 67}, {"time": 116162, "pitch": 60, "duration": 313, "velocity": 63}, {"time": 116162, "pitch": 64, "duration": 300, "velocity": 56}, {"time": 116641, "pitch": 45, "duration": 248, "velocity": 72}, {"time": 116641, "pitch": 57, "duration": 331, "velocity": 70}, {"time": 116641, "pitch": 60, "duration": 337, "velocity": 66}, {"time": 116641, "pitch": 64, "duration": 340, "velocity": 62}, {"time": 117119, "pitch": 45, "duration": 241, "velocity": 83}, {"time": 117119, "pitch": 57, "duration": 309, "velocity": 69}, {"time": 117119, "pitch": 60, "duration": 310, "velocity": 67}, {"time": 117119, "pitch": 64, "duration": 320, "velocity": 59}, {"time": 117598, "pitch": 43, "duration": 115, "velocity": 81}, {"time": 117598, "pitch": 55, "duration": 82, "velocity": 63}, {"time": 117598, "pitch": 59, "duration": 97, "velocity": 67}, {"time": 117598, "pitch": 62, "duration": 107, "velocity": 55}, {"time": 117837, "pitch": 41, "duration": 322, "velocity": 72}, {"time": 117837, "pitch": 53, "duration": 404, "velocity": 61}, {"time": 117837, "pitch": 57, "duration": 401, "velocity": 69}, {"time": 117837, "pitch": 60, "duration": 391, "velocity": 63}, {"time": 118320, "pitch": 41, "duration": 450, "velocity": 85}, {"time": 118563, "pitch": 53, "duration": 288, "velocity": 64}, {"time": 118563, "pitch": 57, "duration": 304, "velocity": 71}, {"time": 118563, "pitch": 60, "duration": 318, "velocity": 62}, {"time": 119042, "pitch": 43, "duration": 266, "velocity": 67}, {"time": 119042, "pitch": 55, "duration": 363, "velocity": 61}, {"time": 119042, "pitch": 59, "duration": 358, "velocity": 71}, {"time": 119042, "pitch": 62, "duration": 400, "velocity": 67}, {"time": 119520, "pitch": 41, "duration": 285, "velocity": 84}, {"time": 119520, "pitch": 53, "duration": 306, "velocity": 67}, {"time": 119520, "pitch": 57, "duration": 314, "velocity": 69}, {"time": 119640, "pitch": 62, "duration": 312, "velocity": 56}, {"time": 119640, "pitch": 63, "duration": 312, "velocity": 56}, {"time": 119999, "pitch": 40, "duration": 289, "velocity": 61}, {"time": 119999, "pitch": 52, "duration": 324, "velocity": 61}, {"time": 119999, "pitch": 55, "duration": 330, "velocity": 67}, {"time": 119999, "pitch": 59, "duration": 330, "velocity": 67}, {"time": 120478, "pitch": 40, "duration": 258, "velocity": 79}, {"time": 120478, "pitch": 52, "duration": 273, "velocity": 67}, {"time": 120478, "pitch": 55, "duration": 286, "velocity": 66}, {"time": 120478, "pitch": 59, "duration": 287, "velocity": 67}, {"time": 120956, "pitch": 40, "duration": 253, "velocity": 75}, {"time": 120956, "pitch": 52, "duration": 342, "velocity": 64}, {"time": 120956, "pitch": 55, "duration": 361, "velocity": 64}, {"time": 120956, "pitch": 59, "duration": 342, "velocity": 60}, {"time": 121443, "pitch": 40, "duration": 260, "velocity": 89}, {"time": 121443, "pitch": 52, "duration": 281, "velocity": 56}, {"time": 121443, "pitch": 55, "duration": 295, "velocity": 56}, {"time": 121443, "pitch": 59, "duration": 222, "velocity": 53}, {"time": 121443, "pitch": 62, "duration": 316, "velocity": 60}, {"time": 121921, "pitch": 41, "duration": 273, "velocity": 77}, {"time": 121921, "pitch": 53, "duration": 311, "velocity": 63}, {"time": 121921, "pitch": 57, "duration": 318, "velocity": 69}, {"time": 121921, "pitch": 60, "duration": 319, "velocity": 63}, {"time": 122400, "pitch": 41, "duration": 264, "velocity": 80}, {"time": 122400, "pitch": 53, "duration": 296, "velocity": 66}, {"time": 122400, "pitch": 57, "duration": 308, "velocity": 70}, {"time": 122400, "pitch": 60, "duration": 308, "velocity": 62}, {"time": 122879, "pitch": 41, "duration": 245, "velocity": 80}, {"time": 122879, "pitch": 53, "duration": 318, "velocity": 64}, {"time": 122879, "pitch": 57, "duration": 331, "velocity": 68}, {"time": 122879, "pitch": 60, "duration": 337, "velocity": 57}, {"time": 123357, "pitch": 40, "duration": 283, "velocity": 74}, {"time": 123357, "pitch": 52, "duration": 273, "velocity": 59}, {"time": 123357, "pitch": 55, "duration": 285, "velocity": 58}, {"time": 123357, "pitch": 60, "duration": 307, "velocity": 46}, {"time": 123843, "pitch": 38, "duration": 254, "velocity": 66}, {"time": 123843, "pitch": 50, "duration": 289, "velocity": 65}, {"time": 123843, "pitch": 53, "duration": 296, "velocity": 63}, {"time": 123843, "pitch": 57, "duration": 293, "velocity": 63}, {"time": 124322, "pitch": 38, "duration": 246, "velocity": 81}, {"time": 124322, "pitch": 50, "duration": 284, "velocity": 63}, {"time": 124322, "pitch": 53, "duration": 292, "velocity": 67}, {"time": 124322, "pitch": 57, "duration": 299, "velocity": 66}, {"time": 124801, "pitch": 38, "duration": 248, "velocity": 80}, {"time": 124801, "pitch": 50, "duration": 305, "velocity": 67}, {"time": 124801, "pitch": 53, "duration": 328, "velocity": 67}, {"time": 124801, "pitch": 57, "duration": 298, "velocity": 70}, {"time": 125279, "pitch": 38, "duration": 265, "velocity": 82}, {"time": 125279, "pitch": 50, "duration": 295, "velocity": 59}, {"time": 125279, "pitch": 53, "duration": 300, "velocity": 64}, {"time": 125279, "pitch": 57, "duration": 249, "velocity": 58}, {"time": 125279, "pitch": 60, "duration": 325, "velocity": 63}, {"time": 125758, "pitch": 40, "duration": 278, "velocity": 67}, {"time": 125758, "pitch": 52, "duration": 313, "velocity": 55}, {"time": 125758, "pitch": 55, "duration": 329, "velocity": 62}, {"time": 125758, "pitch": 59, "duration": 317, "velocity": 63}, {"time": 126237, "pitch": 40, "duration": 265, "velocity": 80}, {"time": 126237, "pitch": 52, "duration": 315, "velocity": 57}, {"time": 126237, "pitch": 55, "duration": 321, "velocity": 64}, {"time": 126237, "pitch": 59, "duration": 321, "velocity": 61}, {"time": 126723, "pitch": 40, "duration": 247, "velocity": 84}, {"time": 126723, "pitch": 52, "duration": 295, "velocity": 65}, {"time": 126723, "pitch": 55, "duration": 305, "velocity": 66}, {"time": 126723, "pitch": 59, "duration": 303, "velocity": 65}, {"time": 127202, "pitch": 40, "duration": 264, "velocity": 75}, {"time": 127202, "pitch": 52, "duration": 305, "velocity": 65}, {"time": 127202, "pitch": 55, "duration": 328, "velocity": 66}, {"time": 127202, "pitch": 59, "duration": 350, "velocity": 65}, {"time": 127680, "pitch": 41, "duration": 257, "velocity": 76}, {"time": 127680, "pitch": 53, "duration": 298, "velocity": 65}, {"time": 127680, "pitch": 57, "duration": 313, "velocity": 68}, {"time": 127680, "pitch": 60, "duration": 308, "velocity": 66}, {"time": 128159, "pitch": 41, "duration": 246, "velocity": 80}, {"time": 128159, "pitch": 53, "duration": 270, "velocity": 67}, {"time": 128159, "pitch": 57, "duration": 281, "velocity": 67}, {"time": 128159, "pitch": 60, "duration": 281, "velocity": 60}, {"time": 128638, "pitch": 41, "duration": 222, "velocity": 74}, {"time": 128638, "pitch": 53, "duration": 327, "velocity": 68}, {"time": 128638, "pitch": 57, "duration": 328, "velocity": 67}, {"time": 128638, "pitch": 60, "duration": 331, "velocity": 59}, {"time": 129116, "pitch": 41, "duration": 285, "velocity": 76}, {"time": 129116, "pitch": 53, "duration": 304, "velocity": 63}, {"time": 129116, "pitch": 57, "duration": 320, "velocity": 69}, {"time": 129116, "pitch": 60, "duration": 343, "velocity": 59}, {"time": 129603, "pitch": 43, "duration": 259, "velocity": 84}, {"time": 129603, "pitch": 55, "duration": 316, "velocity": 70}, {"time": 129603, "pitch": 59, "duration": 321, "velocity": 72}, {"time": 129603, "pitch": 62, "duration": 310, "velocity": 70}, {"time": 130081, "pitch": 43, "duration": 253, "velocity": 84}, {"time": 130081, "pitch": 55, "duration": 284, "velocity": 67}, {"time": 130081, "pitch": 59, "duration": 285, "velocity": 70}, {"time": 130081, "pitch": 62, "duration": 292, "velocity": 66}, {"time": 130560, "pitch": 43, "duration": 275, "velocity": 81}, {"time": 130560, "pitch": 55, "duration": 287, "velocity": 66}, {"time": 130560, "pitch": 59, "duration": 292, "velocity": 69}, {"time": 130560, "pitch": 62, "duration": 297, "velocity": 64}, {"time": 131039, "pitch": 43, "duration": 243, "velocity": 85}, {"time": 131039, "pitch": 55, "duration": 298, "velocity": 67}, {"time": 131039, "pitch": 59, "duration": 304, "velocity": 67}, {"time": 131039, "pitch": 62, "duration": 314, "velocity": 60}, {"time": 131517, "pitch": 48, "duration": 715, "velocity": 67}, {"time": 131517, "pitch": 55, "duration": 317, "velocity": 69}, {"time": 131517, "pitch": 60, "duration": 309, "velocity": 75}, {"time": 131517, "pitch": 64, "duration": 315, "velocity": 70}, {"time": 132003, "pitch": 55, "duration": 395, "velocity": 73}, {"time": 132003, "pitch": 60, "duration": 265, "velocity": 76}, {"time": 132003, "pitch": 64, "duration": 253, "velocity": 74}, {"time": 132482, "pitch": 41, "duration": 772, "velocity": 67}, {"time": 132482, "pitch": 53, "duration": 302, "velocity": 81}, {"time": 132482, "pitch": 57, "duration": 313, "velocity": 81}, {"time": 132482, "pitch": 60, "duration": 298, "velocity": 73}, {"time": 132961, "pitch": 53, "duration": 285, "velocity": 73}, {"time": 132961, "pitch": 57, "duration": 363, "velocity": 80}, {"time": 132961, "pitch": 60, "duration": 371, "velocity": 69}, {"time": 133439, "pitch": 43, "duration": 598, "velocity": 68}, {"time": 133439, "pitch": 55, "duration": 351, "velocity": 76}, {"time": 133439, "pitch": 59, "duration": 361, "velocity": 86}, {"time": 133439, "pitch": 62, "duration": 362, "velocity": 78}, {"time": 133918, "pitch": 55, "duration": 239, "velocity": 77}, {"time": 133918, "pitch": 59, "duration": 239, "velocity": 78}, {"time": 133918, "pitch": 62, "duration": 239, "velocity": 70}, {"time": 134157, "pitch": 44, "duration": 792, "velocity": 71}, {"time": 134157, "pitch": 56, "duration": 603, "velocity": 69}, {"time": 134157, "pitch": 59, "duration": 603, "velocity": 59}, {"time": 134157, "pitch": 62, "duration": 603, "velocity": 62}, {"time": 134883, "pitch": 56, "duration": 216, "velocity": 67}, {"time": 134883, "pitch": 59, "duration": 243, "velocity": 77}, {"time": 134883, "pitch": 62, "duration": 309, "velocity": 70}, {"time": 135362, "pitch": 45, "duration": 564, "velocity": 73}, {"time": 135362, "pitch": 57, "duration": 172, "velocity": 76}, {"time": 135362, "pitch": 60, "duration": 314, "velocity": 76}, {"time": 135362, "pitch": 64, "duration": 309, "velocity": 66}, {"time": 135601, "pitch": 57, "duration": 58, "velocity": 48}, {"time": 135840, "pitch": 57, "duration": 96, "velocity": 84}, {"time": 135840, "pitch": 60, "duration": 107, "velocity": 90}, {"time": 135840, "pitch": 64, "duration": 108, "velocity": 80}, {"time": 136080, "pitch": 43, "duration": 945, "velocity": 86}, {"time": 136080, "pitch": 55, "duration": 365, "velocity": 88}, {"time": 136080, "pitch": 59, "duration": 370, "velocity": 107}, {"time": 136080, "pitch": 64, "duration": 388, "velocity": 85}, {"time": 136558, "pitch": 55, "duration": 79, "velocity": 71}, {"time": 136558, "pitch": 59, "duration": 95, "velocity": 84}, {"time": 136558, "pitch": 64, "duration": 99, "velocity": 70}, {"time": 136798, "pitch": 55, "duration": 299, "velocity": 72}, {"time": 136798, "pitch": 59, "duration": 312, "velocity": 83}, {"time": 136798, "pitch": 64, "duration": 316, "velocity": 68}, {"time": 137276, "pitch": 41, "duration": 663, "velocity": 82}, {"time": 137276, "pitch": 53, "duration": 128, "velocity": 86}, {"time": 137276, "pitch": 57, "duration": 142, "velocity": 101}, {"time": 137276, "pitch": 60, "duration": 140, "velocity": 86}, {"time": 137519, "pitch": 53, "duration": 47, "velocity": 71}, {"time": 137519, "pitch": 57, "duration": 51, "velocity": 86}, {"time": 137519, "pitch": 60, "duration": 45, "velocity": 74}, {"time": 137763, "pitch": 53, "duration": 166, "velocity": 80}, {"time": 137763, "pitch": 57, "duration": 191, "velocity": 95}, {"time": 137763, "pitch": 60, "duration": 201, "velocity": 81}, {"time": 138002, "pitch": 43, "duration": 944, "velocity": 82}, {"time": 138002, "pitch": 55, "duration": 392, "velocity": 83}, {"time": 138002, "pitch": 59, "duration": 391, "velocity": 85}, {"time": 138002, "pitch": 62, "duration": 400, "velocity": 86}, {"time": 138481, "pitch": 55, "duration": 42, "velocity": 77}, {"time": 138481, "pitch": 59, "duration": 49, "velocity": 87}, {"time": 138481, "pitch": 62, "duration": 42, "velocity": 72}, {"time": 138720, "pitch": 55, "duration": 284, "velocity": 95}, {"time": 138720, "pitch": 59, "duration": 272, "velocity": 106}, {"time": 138720, "pitch": 62, "duration": 284, "velocity": 93}, {"time": 139199, "pitch": 36, "duration": 810, "velocity": 69}, {"time": 139199, "pitch": 48, "duration": 628, "velocity": 66}, {"time": 139199, "pitch": 55, "duration": 276, "velocity": 72}, {"time": 139199, "pitch": 60, "duration": 269, "velocity": 84}, {"time": 139199, "pitch": 64, "duration": 278, "velocity": 78}, {"time": 139677, "pitch": 55, "duration": 397, "velocity": 77}, {"time": 139677, "pitch": 60, "duration": 373, "velocity": 86}, {"time": 139677, "pitch": 64, "duration": 370, "velocity": 84}, {"time": 140163, "pitch": 41, "duration": 793, "velocity": 73}, {"time": 140163, "pitch": 53, "duration": 282, "velocity": 74}, {"time": 140163, "pitch": 57, "duration": 282, "velocity": 84}, {"time": 140163, "pitch": 60, "duration": 276, "velocity": 78}, {"time": 140642, "pitch": 53, "duration": 286, "velocity": 78}, {"time": 140642, "pitch": 57, "duration": 336, "velocity": 85}, {"time": 140642, "pitch": 60, "duration": 360, "velocity": 78}, {"time": 141121, "pitch": 43, "duration": 597, "velocity": 68}, {"time": 141121, "pitch": 55, "duration": 277, "velocity": 71}, {"time": 141121, "pitch": 59, "duration": 282, "velocity": 79}, {"time": 141121, "pitch": 62, "duration": 297, "velocity": 70}, {"time": 141600, "pitch": 55, "duration": 238, "velocity": 83}, {"time": 141600, "pitch": 59, "duration": 238, "velocity": 93}, {"time": 141600, "pitch": 62, "duration": 238, "velocity": 84}, {"time": 141839, "pitch": 44, "duration": 775, "velocity": 72}, {"time": 141839, "pitch": 56, "duration": 597, "velocity": 74}, {"time": 141839, "pitch": 59, "duration": 597, "velocity": 66}, {"time": 141839, "pitch": 62, "duration": 597, "velocity": 67}, {"time": 142557, "pitch": 56, "duration": 183, "velocity": 69}, {"time": 142557, "pitch": 59, "duration": 130, "velocity": 78}, {"time": 142557, "pitch": 62, "duration": 317, "velocity": 70}, {"time": 143043, "pitch": 45, "duration": 573, "velocity": 73}, {"time": 143043, "pitch": 57, "duration": 166, "velocity": 85}, {"time": 143043, "pitch": 60, "duration": 162, "velocity": 85}, {"time": 143043, "pitch": 64, "duration": 184, "velocity": 80}, {"time": 143282, "pitch": 57, "duration": 35, "velocity": 69}, {"time": 143282, "pitch": 60, "duration": 46, "velocity": 76}, {"time": 143282, "pitch": 64, "duration": 38, "velocity": 65}, {"time": 143522, "pitch": 57, "duration": 82, "velocity": 88}, {"time": 143522, "pitch": 60, "duration": 79, "velocity": 90}, {"time": 143522, "pitch": 64, "duration": 87, "velocity": 84}, {"time": 143761, "pitch": 43, "duration": 713, "velocity": 69}, {"time": 143761, "pitch": 55, "duration": 329, "velocity": 88}, {"time": 143761, "pitch": 59, "duration": 339, "velocity": 101}, {"time": 143761, "pitch": 62, "duration": 335, "velocity": 84}, {"time": 144240, "pitch": 55, "duration": 464, "velocity": 84}, {"time": 144240, "pitch": 59, "duration": 479, "velocity": 99}, {"time": 144240, "pitch": 62, "duration": 481, "velocity": 86}, {"time": 144718, "pitch": 43, "duration": 132, "velocity": 67}, {"time": 144958, "pitch": 41, "duration": 690, "velocity": 73}, {"time": 144958, "pitch": 53, "duration": 106, "velocity": 78}, {"time": 144958, "pitch": 57, "duration": 118, "velocity": 89}, {"time": 144958, "pitch": 60, "duration": 121, "velocity": 81}, {"time": 145197, "pitch": 53, "duration": 45, "velocity": 72}, {"time": 145197, "pitch": 57, "duration": 51, "velocity": 84}, {"time": 145197, "pitch": 60, "duration": 49, "velocity": 75}, {"time": 145436, "pitch": 53, "duration": 197, "velocity": 81}, {"time": 145436, "pitch": 57, "duration": 222, "velocity": 86}, {"time": 145436, "pitch": 60, "duration": 228, "velocity": 80}, {"time": 145680, "pitch": 43, "duration": 781, "velocity": 68}, {"time": 145680, "pitch": 55, "duration": 359, "velocity": 78}, {"time": 145680, "pitch": 59, "duration": 366, "velocity": 83}, {"time": 145680, "pitch": 62, "duration": 373, "velocity": 72}, {"time": 146162, "pitch": 55, "duration": 490, "velocity": 74}, {"time": 146162, "pitch": 59, "duration": 500, "velocity": 85}, {"time": 146162, "pitch": 62, "duration": 497, "velocity": 78}, {"time": 146641, "pitch": 43, "duration": 147, "velocity": 77}, {"time": 146880, "pitch": 41, "duration": 1809, "velocity": 72}, {"time": 146880, "pitch": 53, "duration": 345, "velocity": 81}, {"time": 146880, "pitch": 57, "duration": 352, "velocity": 92}, {"time": 146880, "pitch": 60, "duration": 352, "velocity": 84}, {"time": 147359, "pitch": 53, "duration": 346, "velocity": 79}, {"time": 147359, "pitch": 57, "duration": 366, "velocity": 86}, {"time": 147359, "pitch": 60, "duration": 363, "velocity": 80}, {"time": 147837, "pitch": 53, "duration": 354, "velocity": 80}, {"time": 147837, "pitch": 57, "duration": 373, "velocity": 95}, {"time": 147837, "pitch": 60, "duration": 373, "velocity": 83}, {"time": 148323, "pitch": 53, "duration": 354, "velocity": 75}, {"time": 148323, "pitch": 57, "duration": 352, "velocity": 81}, {"time": 148323, "pitch": 60, "duration": 370, "velocity": 71}, {"time": 148807, "pitch": 52, "duration": 1022, "velocity": 44}, {"time": 148807, "pitch": 55, "duration": 1139, "velocity": 70}, {"time": 148807, "pitch": 60, "duration": 1166, "velocity": 64}, {"time": 150112, "pitch": 52, "duration": 302, "velocity": 70}, {"time": 150112, "pitch": 55, "duration": 308, "velocity": 74}, {"time": 150112, "pitch": 60, "duration": 314, "velocity": 59}, {"time": 150491, "pitch": 52, "duration": 2108, "velocity": 71}, {"time": 150491, "pitch": 55, "duration": 2108, "velocity": 77}, {"time": 150491, "pitch": 60, "duration": 2108, "velocity": 71}, {"time": 957, "pitch": 36, "duration": 505, "velocity": 91}, {"time": 1682, "pitch": 36, "duration": 259, "velocity": 88}, {"time": 1922, "pitch": 31, "duration": 572, "velocity": 82}, {"time": 2640, "pitch": 31, "duration": 234, "velocity": 94}, {"time": 2879, "pitch": 33, "duration": 646, "velocity": 91}, {"time": 3597, "pitch": 33, "duration": 232, "velocity": 91}, {"time": 3836, "pitch": 31, "duration": 581, "velocity": 81}, {"time": 4562, "pitch": 31, "duration": 246, "velocity": 84}, {"time": 4801, "pitch": 29, "duration": 552, "velocity": 87}, {"time": 5519, "pitch": 29, "duration": 276, "velocity": 88}, {"time": 5759, "pitch": 31, "duration": 553, "velocity": 86}, {"time": 6480, "pitch": 31, "duration": 244, "velocity": 110}, {"time": 6724, "pitch": 36, "duration": 519, "velocity": 86}, {"time": 7442, "pitch": 36, "duration": 258, "velocity": 93}, {"time": 7681, "pitch": 31, "duration": 533, "velocity": 85}, {"time": 8399, "pitch": 31, "duration": 248, "velocity": 78}, {"time": 8638, "pitch": 36, "duration": 584, "velocity": 93}, {"time": 9360, "pitch": 36, "duration": 223, "velocity": 92}, {"time": 9603, "pitch": 31, "duration": 522, "velocity": 72}, {"time": 10321, "pitch": 31, "duration": 239, "velocity": 82}, {"time": 10560, "pitch": 33, "duration": 537, "velocity": 84}, {"time": 11278, "pitch": 33, "duration": 242, "velocity": 85}, {"time": 11518, "pitch": 31, "duration": 566, "velocity": 79}, {"time": 12240, "pitch": 31, "duration": 246, "velocity": 89}, {"time": 12483, "pitch": 29, "duration": 542, "velocity": 77}, {"time": 13201, "pitch": 29, "duration": 204, "velocity": 88}, {"time": 13440, "pitch": 28, "duration": 535, "velocity": 83}, {"time": 14158, "pitch": 28, "duration": 254, "velocity": 85}, {"time": 14397, "pitch": 29, "duration": 518, "velocity": 88}, {"time": 15123, "pitch": 29, "duration": 254, "velocity": 92}, {"time": 15362, "pitch": 31, "duration": 561, "velocity": 94}, {"time": 16080, "pitch": 31, "duration": 260, "velocity": 93}, {"time": 16320, "pitch": 36, "duration": 538, "velocity": 84}, {"time": 17038, "pitch": 36, "duration": 253, "velocity": 88}, {"time": 17277, "pitch": 31, "duration": 551, "velocity": 84}, {"time": 18002, "pitch": 31, "duration": 253, "velocity": 86}, {"time": 18242, "pitch": 33, "duration": 560, "velocity": 84}, {"time": 18960, "pitch": 33, "duration": 240, "velocity": 96}, {"time": 19199, "pitch": 31, "duration": 587, "velocity": 81}, {"time": 19917, "pitch": 31, "duration": 230, "velocity": 98}, {"time": 20157, "pitch": 29, "duration": 590, "velocity": 80}, {"time": 20882, "pitch": 29, "duration": 238, "velocity": 83}, {"time": 21121, "pitch": 28, "duration": 568, "velocity": 82}, {"time": 21839, "pitch": 28, "duration": 243, "velocity": 91}, {"time": 22079, "pitch": 29, "duration": 585, "velocity": 90}, {"time": 22801, "pitch": 29, "duration": 251, "velocity": 98}, {"time": 23044, "pitch": 36, "duration": 474, "velocity": 90}, {"time": 23522, "pitch": 35, "duration": 487, "velocity": 98}, {"time": 24001, "pitch": 33, "duration": 597, "velocity": 93}, {"time": 24719, "pitch": 33, "duration": 278, "velocity": 95}, {"time": 24958, "pitch": 31, "duration": 675, "velocity": 91}, {"time": 25680, "pitch": 31, "duration": 243, "velocity": 81}, {"time": 25923, "pitch": 29, "duration": 574, "velocity": 86}, {"time": 26641, "pitch": 29, "duration": 247, "velocity": 89}, {"time": 26881, "pitch": 31, "duration": 454, "velocity": 94}, {"time": 27359, "pitch": 31, "duration": 239, "velocity": 100}, {"time": 27599, "pitch": 31, "duration": 238, "velocity": 100}, {"time": 27838, "pitch": 33, "duration": 571, "velocity": 90}, {"time": 28560, "pitch": 33, "duration": 258, "velocity": 98}, {"time": 28803, "pitch": 31, "duration": 593, "velocity": 94}, {"time": 29521, "pitch": 31, "duration": 264, "velocity": 97}, {"time": 29760, "pitch": 29, "duration": 584, "velocity": 90}, {"time": 30478, "pitch": 29, "duration": 238, "velocity": 103}, {"time": 30717, "pitch": 31, "duration": 454, "velocity": 94}, {"time": 31204, "pitch": 31, "duration": 434, "velocity": 102}, {"time": 31682, "pitch": 33, "duration": 118, "velocity": 96}, {"time": 31922, "pitch": 33, "duration": 96, "velocity": 106}, {"time": 32161, "pitch": 33, "duration": 105, "velocity": 109}, {"time": 32400, "pitch": 33, "duration": 150, "velocity": 100}, {"time": 32640, "pitch": 32, "duration": 96, "velocity": 89}, {"time": 32879, "pitch": 32, "duration": 135, "velocity": 95}, {"time": 33118, "pitch": 32, "duration": 108, "velocity": 92}, {"time": 33358, "pitch": 32, "duration": 189, "velocity": 94}, {"time": 33597, "pitch": 31, "duration": 120, "velocity": 91}, {"time": 33840, "pitch": 31, "duration": 82, "velocity": 85}, {"time": 34083, "pitch": 31, "duration": 89, "velocity": 89}, {"time": 34323, "pitch": 31, "duration": 195, "velocity": 91}, {"time": 34562, "pitch": 30, "duration": 90, "velocity": 88}, {"time": 34801, "pitch": 30, "duration": 93, "velocity": 87}, {"time": 35041, "pitch": 30, "duration": 93, "velocity": 86}, {"time": 35280, "pitch": 30, "duration": 193, "velocity": 90}, {"time": 35519, "pitch": 29, "duration": 589, "velocity": 90}, {"time": 36237, "pitch": 29, "duration": 114, "velocity": 90}, {"time": 36477, "pitch": 29, "duration": 411, "velocity": 90}, {"time": 36971, "pitch": 29, "duration": 349, "velocity": 93}, {"time": 37441, "pitch": 31, "duration": 166, "velocity": 93}, {"time": 37681, "pitch": 31, "duration": 137, "velocity": 83}, {"time": 37920, "pitch": 31, "duration": 138, "velocity": 89}, {"time": 38159, "pitch": 31, "duration": 138, "velocity": 83}, {"time": 38399, "pitch": 31, "duration": 132, "velocity": 85}, {"time": 38638, "pitch": 31, "duration": 132, "velocity": 78}, {"time": 38877, "pitch": 31, "duration": 165, "velocity": 79}, {"time": 39121, "pitch": 31, "duration": 160, "velocity": 96}, {"time": 39364, "pitch": 36, "duration": 597, "velocity": 88}, {"time": 40082, "pitch": 36, "duration": 153, "velocity": 94}, {"time": 40321, "pitch": 29, "duration": 597, "velocity": 93}, {"time": 41039, "pitch": 29, "duration": 119, "velocity": 88}, {"time": 41278, "pitch": 31, "duration": 600, "velocity": 96}, {"time": 42000, "pitch": 32, "duration": 362, "velocity": 93}, {"time": 42483, "pitch": 28, "duration": 238, "velocity": 106}, {"time": 42722, "pitch": 26, "duration": 238, "velocity": 85}, {"time": 42961, "pitch": 23, "duration": 239, "velocity": 82}, {"time": 43201, "pitch": 33, "duration": 597, "velocity": 95}, {"time": 43919, "pitch": 31, "duration": 295, "velocity": 94}, {"time": 44278, "pitch": 31, "duration": 79, "velocity": 94}, {"time": 44397, "pitch": 31, "duration": 239, "velocity": 80}, {"time": 44637, "pitch": 28, "duration": 182, "velocity": 86}, {"time": 44880, "pitch": 31, "duration": 210, "velocity": 87}, {"time": 45123, "pitch": 29, "duration": 597, "velocity": 78}, {"time": 45841, "pitch": 31, "duration": 238, "velocity": 94}, {"time": 46200, "pitch": 31, "duration": 78, "velocity": 97}, {"time": 46319, "pitch": 38, "duration": 239, "velocity": 97}, {"time": 46559, "pitch": 31, "duration": 358, "velocity": 102}, {"time": 47037, "pitch": 36, "duration": 605, "velocity": 92}, {"time": 47763, "pitch": 36, "duration": 238, "velocity": 92}, {"time": 48002, "pitch": 29, "duration": 372, "velocity": 84}, {"time": 48481, "pitch": 29, "duration": 180, "velocity": 86}, {"time": 48720, "pitch": 29, "duration": 119, "velocity": 86}, {"time": 48840, "pitch": 30, "duration": 119, "velocity": 86}, {"time": 48960, "pitch": 31, "duration": 597, "velocity": 94}, {"time": 49678, "pitch": 32, "duration": 360, "velocity": 92}, {"time": 50160, "pitch": 29, "duration": 242, "velocity": 86}, {"time": 50403, "pitch": 35, "duration": 239, "velocity": 92}, {"time": 50643, "pitch": 34, "duration": 238, "velocity": 86}, {"time": 50882, "pitch": 33, "duration": 597, "velocity": 87}, {"time": 51600, "pitch": 31, "duration": 358, "velocity": 80}, {"time": 51959, "pitch": 31, "duration": 82, "velocity": 92}, {"time": 52079, "pitch": 31, "duration": 238, "velocity": 92}, {"time": 52318, "pitch": 28, "duration": 478, "velocity": 97}, {"time": 52797, "pitch": 29, "duration": 429, "velocity": 88}, {"time": 53283, "pitch": 29, "duration": 254, "velocity": 100}, {"time": 53522, "pitch": 31, "duration": 403, "velocity": 92}, {"time": 54001, "pitch": 31, "duration": 238, "velocity": 89}, {"time": 54240, "pitch": 33, "duration": 238, "velocity": 89}, {"time": 54479, "pitch": 31, "duration": 239, "velocity": 89}, {"time": 54719, "pitch": 29, "duration": 599, "velocity": 89}, {"time": 55441, "pitch": 29, "duration": 170, "velocity": 86}, {"time": 55684, "pitch": 29, "duration": 195, "velocity": 88}, {"time": 55923, "pitch": 29, "duration": 195, "velocity": 88}, {"time": 56162, "pitch": 29, "duration": 239, "velocity": 88}, {"time": 56402, "pitch": 34, "duration": 238, "velocity": 89}, {"time": 56641, "pitch": 36, "duration": 180, "velocity": 95}, {"time": 56880, "pitch": 36, "duration": 180, "velocity": 95}, {"time": 57120, "pitch": 36, "duration": 179, "velocity": 94}, {"time": 57359, "pitch": 36, "duration": 144, "velocity": 94}, {"time": 57598, "pitch": 36, "duration": 119, "velocity": 92}, {"time": 57838, "pitch": 31, "duration": 421, "velocity": 94}, {"time": 58320, "pitch": 31, "duration": 215, "velocity": 94}, {"time": 58563, "pitch": 36, "duration": 583, "velocity": 93}, {"time": 59281, "pitch": 36, "duration": 220, "velocity": 92}, {"time": 59521, "pitch": 31, "duration": 521, "velocity": 72}, {"time": 60239, "pitch": 31, "duration": 239, "velocity": 82}, {"time": 60478, "pitch": 33, "duration": 537, "velocity": 84}, {"time": 61200, "pitch": 33, "duration": 245, "velocity": 85}, {"time": 61443, "pitch": 31, "duration": 564, "velocity": 79}, {"time": 62161, "pitch": 31, "duration": 242, "velocity": 89}, {"time": 62400, "pitch": 29, "duration": 543, "velocity": 77}, {"time": 63118, "pitch": 29, "duration": 205, "velocity": 88}, {"time": 63358, "pitch": 28, "duration": 542, "velocity": 83}, {"time": 64083, "pitch": 28, "duration": 253, "velocity": 85}, {"time": 64322, "pitch": 29, "duration": 511, "velocity": 88}, {"time": 65040, "pitch": 29, "duration": 255, "velocity": 92}, {"time": 65280, "pitch": 31, "duration": 470, "velocity": 94}, {"time": 65758, "pitch": 31, "duration": 451, "velocity": 93}, {"time": 66237, "pitch": 36, "duration": 546, "velocity": 84}, {"time": 66963, "pitch": 36, "duration": 253, "velocity": 88}, {"time": 67202, "pitch": 31, "duration": 543, "velocity": 84}, {"time": 67920, "pitch": 31, "duration": 252, "velocity": 86}, {"time": 68159, "pitch": 33, "duration": 561, "velocity": 84}, {"time": 68877, "pitch": 33, "duration": 241, "velocity": 96}, {"time": 69117, "pitch": 31, "duration": 594, "velocity": 81}, {"time": 69842, "pitch": 31, "duration": 230, "velocity": 98}, {"time": 70082, "pitch": 29, "duration": 583, "velocity": 80}, {"time": 70800, "pitch": 29, "duration": 238, "velocity": 83}, {"time": 71039, "pitch": 28, "duration": 569, "velocity": 82}, {"time": 71761, "pitch": 28, "duration": 246, "velocity": 91}, {"time": 72004, "pitch": 29, "duration": 583, "velocity": 90}, {"time": 72722, "pitch": 29, "duration": 247, "velocity": 98}, {"time": 72961, "pitch": 36, "duration": 475, "velocity": 90}, {"time": 73440, "pitch": 35, "duration": 486, "velocity": 98}, {"time": 73918, "pitch": 33, "duration": 600, "velocity": 93}, {"time": 74640, "pitch": 33, "duration": 242, "velocity": 95}, {"time": 74883, "pitch": 31, "duration": 672, "velocity": 91}, {"time": 75601, "pitch": 31, "duration": 240, "velocity": 81}, {"time": 75841, "pitch": 29, "duration": 573, "velocity": 86}, {"time": 76559, "pitch": 29, "duration": 238, "velocity": 89}, {"time": 76798, "pitch": 31, "duration": 431, "velocity": 94}, {"time": 77277, "pitch": 31, "duration": 206, "velocity": 100}, {"time": 77520, "pitch": 32, "duration": 202, "velocity": 100}, {"time": 77763, "pitch": 33, "duration": 569, "velocity": 98}, {"time": 78481, "pitch": 33, "duration": 254, "velocity": 106}, {"time": 78720, "pitch": 31, "duration": 594, "velocity": 102}, {"time": 79438, "pitch": 31, "duration": 204, "velocity": 105}, {"time": 79678, "pitch": 29, "duration": 586, "velocity": 98}, {"time": 80399, "pitch": 29, "duration": 227, "velocity": 112}, {"time": 80642, "pitch": 31, "duration": 583, "velocity": 102}, {"time": 81360, "pitch": 31, "duration": 232, "velocity": 111}, {"time": 81600, "pitch": 33, "duration": 131, "velocity": 104}, {"time": 81839, "pitch": 33, "duration": 97, "velocity": 115}, {"time": 82078, "pitch": 33, "duration": 105, "velocity": 118}, {"time": 82318, "pitch": 33, "duration": 219, "velocity": 109}, {"time": 82557, "pitch": 32, "duration": 98, "velocity": 96}, {"time": 82800, "pitch": 32, "duration": 137, "velocity": 103}, {"time": 83043, "pitch": 32, "duration": 108, "velocity": 100}, {"time": 83283, "pitch": 32, "duration": 199, "velocity": 102}, {"time": 83522, "pitch": 31, "duration": 118, "velocity": 99}, {"time": 83761, "pitch": 31, "duration": 81, "velocity": 92}, {"time": 84001, "pitch": 31, "duration": 88, "velocity": 96}, {"time": 84240, "pitch": 31, "duration": 199, "velocity": 99}, {"time": 84479, "pitch": 30, "duration": 90, "velocity": 79}, {"time": 84719, "pitch": 30, "duration": 92, "velocity": 94}, {"time": 84958, "pitch": 30, "duration": 94, "velocity": 93}, {"time": 85197, "pitch": 30, "duration": 160, "velocity": 98}, {"time": 85437, "pitch": 29, "duration": 605, "velocity": 98}, {"time": 86162, "pitch": 29, "duration": 291, "velocity": 103}, {"time": 86521, "pitch": 29, "duration": 80, "velocity": 103}, {"time": 86641, "pitch": 29, "duration": 191, "velocity": 103}, {"time": 86880, "pitch": 29, "duration": 200, "velocity": 103}, {"time": 87120, "pitch": 29, "duration": 211, "velocity": 101}, {"time": 87359, "pitch": 31, "duration": 144, "velocity": 101}, {"time": 87598, "pitch": 31, "duration": 144, "velocity": 101}, {"time": 87838, "pitch": 31, "duration": 119, "velocity": 90}, {"time": 88077, "pitch": 38, "duration": 238, "velocity": 90}, {"time": 88316, "pitch": 43, "duration": 242, "velocity": 120}, {"time": 88559, "pitch": 38, "duration": 134, "velocity": 107}, {"time": 88802, "pitch": 31, "duration": 227, "velocity": 98}, {"time": 89042, "pitch": 31, "duration": 238, "velocity": 109}, {"time": 89281, "pitch": 36, "duration": 597, "velocity": 95}, {"time": 89999, "pitch": 36, "duration": 119, "velocity": 102}, {"time": 90238, "pitch": 29, "duration": 600, "velocity": 89}, {"time": 90960, "pitch": 29, "duration": 121, "velocity": 95}, {"time": 91203, "pitch": 31, "duration": 598, "velocity": 104}, {"time": 91921, "pitch": 32, "duration": 478, "velocity": 101}, {"time": 92400, "pitch": 28, "duration": 407, "velocity": 85}, {"time": 92879, "pitch": 35, "duration": 238, "velocity": 89}, {"time": 93118, "pitch": 33, "duration": 213, "velocity": 103}, {"time": 93357, "pitch": 33, "duration": 239, "velocity": 93}, {"time": 93597, "pitch": 33, "duration": 260, "velocity": 107}, {"time": 93840, "pitch": 31, "duration": 392, "velocity": 102}, {"time": 94322, "pitch": 31, "duration": 115, "velocity": 87}, {"time": 94562, "pitch": 31, "duration": 113, "velocity": 93}, {"time": 94801, "pitch": 31, "duration": 119, "velocity": 94}, {"time": 95040, "pitch": 29, "duration": 108, "velocity": 97}, {"time": 95280, "pitch": 29, "duration": 94, "velocity": 95}, {"time": 95519, "pitch": 29, "duration": 238, "velocity": 103}, {"time": 95758, "pitch": 31, "duration": 394, "velocity": 102}, {"time": 96237, "pitch": 38, "duration": 238, "velocity": 105}, {"time": 96476, "pitch": 31, "duration": 162, "velocity": 111}, {"time": 96719, "pitch": 31, "duration": 242, "velocity": 94}, {"time": 96962, "pitch": 36, "duration": 598, "velocity": 100}, {"time": 97680, "pitch": 36, "duration": 239, "velocity": 103}, {"time": 97920, "pitch": 29, "duration": 597, "velocity": 77}, {"time": 98638, "pitch": 29, "duration": 119, "velocity": 93}, {"time": 98877, "pitch": 31, "duration": 605, "velocity": 102}, {"time": 99603, "pitch": 32, "duration": 358, "velocity": 115}, {"time": 100081, "pitch": 27, "duration": 239, "velocity": 93}, {"time": 100321, "pitch": 32, "duration": 131, "velocity": 100}, {"time": 100560, "pitch": 32, "duration": 243, "velocity": 93}, {"time": 100799, "pitch": 33, "duration": 598, "velocity": 94}, {"time": 101517, "pitch": 31, "duration": 401, "velocity": 87}, {"time": 102000, "pitch": 31, "duration": 242, "velocity": 100}, {"time": 102243, "pitch": 28, "duration": 238, "velocity": 103}, {"time": 102482, "pitch": 31, "duration": 239, "velocity": 105}, {"time": 102722, "pitch": 29, "duration": 597, "velocity": 95}, {"time": 103440, "pitch": 31, "duration": 403, "velocity": 100}, {"time": 103918, "pitch": 31, "duration": 134, "velocity": 96}, {"time": 104158, "pitch": 31, "duration": 238, "velocity": 96}, {"time": 104397, "pitch": 31, "duration": 238, "velocity": 96}, {"time": 104636, "pitch": 36, "duration": 135, "velocity": 87}, {"time": 104879, "pitch": 36, "duration": 89, "velocity": 89}, {"time": 105122, "pitch": 36, "duration": 101, "velocity": 88}, {"time": 105362, "pitch": 36, "duration": 89, "velocity": 89}, {"time": 105601, "pitch": 36, "duration": 97, "velocity": 87}, {"time": 105841, "pitch": 36, "duration": 94, "velocity": 88}, {"time": 106080, "pitch": 36, "duration": 105, "velocity": 87}, {"time": 106319, "pitch": 36, "duration": 119, "velocity": 89}, {"time": 106559, "pitch": 31, "duration": 93, "velocity": 87}, {"time": 106798, "pitch": 31, "duration": 103, "velocity": 87}, {"time": 107037, "pitch": 31, "duration": 108, "velocity": 99}, {"time": 107280, "pitch": 31, "duration": 104, "velocity": 88}, {"time": 107523, "pitch": 31, "duration": 93, "velocity": 90}, {"time": 107763, "pitch": 31, "duration": 83, "velocity": 93}, {"time": 108002, "pitch": 31, "duration": 89, "velocity": 95}, {"time": 108241, "pitch": 31, "duration": 119, "velocity": 101}, {"time": 108361, "pitch": 32, "duration": 119, "velocity": 94}, {"time": 108481, "pitch": 33, "duration": 118, "velocity": 94}, {"time": 108720, "pitch": 33, "duration": 76, "velocity": 105}, {"time": 108959, "pitch": 33, "duration": 90, "velocity": 95}, {"time": 109199, "pitch": 33, "duration": 79, "velocity": 103}, {"time": 109438, "pitch": 33, "duration": 75, "velocity": 103}, {"time": 109677, "pitch": 31, "duration": 119, "velocity": 114}, {"time": 109917, "pitch": 31, "duration": 208, "velocity": 105}, {"time": 110160, "pitch": 29, "duration": 315, "velocity": 110}, {"time": 110523, "pitch": 29, "duration": 118, "velocity": 110}, {"time": 110642, "pitch": 29, "duration": 192, "velocity": 90}, {"time": 110882, "pitch": 29, "duration": 183, "velocity": 98}, {"time": 111121, "pitch": 29, "duration": 183, "velocity": 102}, {"time": 111360, "pitch": 31, "duration": 200, "velocity": 101}, {"time": 111600, "pitch": 31, "duration": 159, "velocity": 90}, {"time": 111839, "pitch": 33, "duration": 183, "velocity": 107}, {"time": 112078, "pitch": 31, "duration": 185, "velocity": 89}, {"time": 112318, "pitch": 36, "duration": 141, "velocity": 100}, {"time": 112557, "pitch": 36, "duration": 109, "velocity": 82}, {"time": 112796, "pitch": 36, "duration": 110, "velocity": 89}, {"time": 113039, "pitch": 36, "duration": 99, "velocity": 85}, {"time": 113283, "pitch": 36, "duration": 94, "velocity": 92}, {"time": 113522, "pitch": 36, "duration": 98, "velocity": 94}, {"time": 113761, "pitch": 36, "duration": 88, "velocity": 92}, {"time": 114001, "pitch": 40, "duration": 119, "velocity": 98}, {"time": 114240, "pitch": 31, "duration": 166, "velocity": 97}, {"time": 114479, "pitch": 31, "duration": 93, "velocity": 89}, {"time": 114719, "pitch": 31, "duration": 98, "velocity": 91}, {"time": 114958, "pitch": 31, "duration": 101, "velocity": 93}, {"time": 115197, "pitch": 31, "duration": 98, "velocity": 92}, {"time": 115440, "pitch": 31, "duration": 85, "velocity": 100}, {"time": 115683, "pitch": 38, "duration": 86, "velocity": 94}, {"time": 115923, "pitch": 31, "duration": 126, "velocity": 89}, {"time": 116162, "pitch": 33, "duration": 121, "velocity": 92}, {"time": 116401, "pitch": 33, "duration": 102, "velocity": 87}, {"time": 116641, "pitch": 33, "duration": 90, "velocity": 90}, {"time": 116880, "pitch": 33, "duration": 106, "velocity": 85}, {"time": 117119, "pitch": 33, "duration": 89, "velocity": 95}, {"time": 117359, "pitch": 33, "duration": 251, "velocity": 101}, {"time": 117598, "pitch": 31, "duration": 216, "velocity": 105}, {"time": 117837, "pitch": 29, "duration": 353, "velocity": 109}, {"time": 118320, "pitch": 29, "duration": 85, "velocity": 94}, {"time": 118563, "pitch": 29, "duration": 80, "velocity": 98}, {"time": 118802, "pitch": 29, "duration": 244, "velocity": 101}, {"time": 119042, "pitch": 31, "duration": 203, "velocity": 110}, {"time": 119281, "pitch": 31, "duration": 243, "velocity": 107}, {"time": 119520, "pitch": 29, "duration": 239, "velocity": 107}, {"time": 119760, "pitch": 29, "duration": 243, "velocity": 107}, {"time": 119999, "pitch": 28, "duration": 81, "velocity": 84}, {"time": 120238, "pitch": 28, "duration": 96, "velocity": 92}, {"time": 120478, "pitch": 28, "duration": 103, "velocity": 90}, {"time": 120717, "pitch": 28, "duration": 85, "velocity": 101}, {"time": 120956, "pitch": 28, "duration": 107, "velocity": 94}, {"time": 121199, "pitch": 28, "duration": 105, "velocity": 92}, {"time": 121443, "pitch": 28, "duration": 94, "velocity": 92}, {"time": 121682, "pitch": 28, "duration": 155, "velocity": 100}, {"time": 121921, "pitch": 29, "duration": 96, "velocity": 115}, {"time": 122161, "pitch": 29, "duration": 86, "velocity": 104}, {"time": 122400, "pitch": 29, "duration": 96, "velocity": 95}, {"time": 122639, "pitch": 29, "duration": 93, "velocity": 95}, {"time": 122879, "pitch": 29, "duration": 104, "velocity": 99}, {"time": 123118, "pitch": 29, "duration": 101, "velocity": 95}, {"time": 123357, "pitch": 28, "duration": 106, "velocity": 92}, {"time": 123600, "pitch": 28, "duration": 119, "velocity": 84}, {"time": 123843, "pitch": 38, "duration": 178, "velocity": 110}, {"time": 124083, "pitch": 38, "duration": 97, "velocity": 89}, {"time": 124322, "pitch": 38, "duration": 83, "velocity": 88}, {"time": 124561, "pitch": 38, "duration": 93, "velocity": 99}, {"time": 124801, "pitch": 38, "duration": 100, "velocity": 96}, {"time": 125040, "pitch": 38, "duration": 99, "velocity": 99}, {"time": 125279, "pitch": 38, "duration": 112, "velocity": 93}, {"time": 125519, "pitch": 39, "duration": 238, "velocity": 95}, {"time": 125758, "pitch": 40, "duration": 238, "velocity": 102}, {"time": 125997, "pitch": 40, "duration": 239, "velocity": 104}, {"time": 126237, "pitch": 35, "duration": 190, "velocity": 102}, {"time": 126480, "pitch": 40, "duration": 207, "velocity": 96}, {"time": 126723, "pitch": 40, "duration": 238, "velocity": 100}, {"time": 126962, "pitch": 35, "duration": 423, "velocity": 91}, {"time": 127441, "pitch": 35, "duration": 191, "velocity": 100}, {"time": 127680, "pitch": 29, "duration": 128, "velocity": 99}, {"time": 127920, "pitch": 29, "duration": 93, "velocity": 90}, {"time": 128159, "pitch": 29, "duration": 90, "velocity": 85}, {"time": 128398, "pitch": 29, "duration": 92, "velocity": 90}, {"time": 128638, "pitch": 29, "duration": 100, "velocity": 96}, {"time": 128877, "pitch": 29, "duration": 99, "velocity": 90}, {"time": 129116, "pitch": 29, "duration": 97, "velocity": 103}, {"time": 129359, "pitch": 29, "duration": 207, "velocity": 100}, {"time": 129603, "pitch": 31, "duration": 81, "velocity": 103}, {"time": 129842, "pitch": 31, "duration": 94, "velocity": 103}, {"time": 130081, "pitch": 31, "duration": 87, "velocity": 103}, {"time": 130321, "pitch": 31, "duration": 84, "velocity": 111}, {"time": 130560, "pitch": 31, "duration": 83, "velocity": 106}, {"time": 130799, "pitch": 38, "duration": 224, "velocity": 104}, {"time": 131039, "pitch": 43, "duration": 199, "velocity": 101}, {"time": 131278, "pitch": 38, "duration": 223, "velocity": 114}, {"time": 131517, "pitch": 36, "duration": 665, "velocity": 95}, {"time": 132243, "pitch": 36, "duration": 178, "velocity": 102}, {"time": 132482, "pitch": 29, "duration": 657, "velocity": 89}, {"time": 133200, "pitch": 29, "duration": 179, "velocity": 95}, {"time": 133439, "pitch": 31, "duration": 658, "velocity": 104}, {"time": 134157, "pitch": 32, "duration": 360, "velocity": 105}, {"time": 134640, "pitch": 32, "duration": 181, "velocity": 105}, {"time": 134883, "pitch": 28, "duration": 238, "velocity": 87}, {"time": 135122, "pitch": 32, "duration": 179, "velocity": 89}, {"time": 135362, "pitch": 33, "duration": 597, "velocity": 103}, {"time": 136080, "pitch": 31, "duration": 389, "velocity": 102}, {"time": 136558, "pitch": 31, "duration": 239, "velocity": 87}, {"time": 136798, "pitch": 28, "duration": 238, "velocity": 93}, {"time": 137037, "pitch": 31, "duration": 179, "velocity": 94}, {"time": 137276, "pitch": 29, "duration": 605, "velocity": 99}, {"time": 138002, "pitch": 31, "duration": 298, "velocity": 102}, {"time": 138361, "pitch": 31, "duration": 119, "velocity": 102}, {"time": 138481, "pitch": 31, "duration": 238, "velocity": 102}, {"time": 138720, "pitch": 31, "duration": 223, "velocity": 111}, {"time": 138959, "pitch": 31, "duration": 179, "velocity": 94}, {"time": 139199, "pitch": 36, "duration": 599, "velocity": 100}, {"time": 139920, "pitch": 36, "duration": 182, "velocity": 103}, {"time": 140163, "pitch": 29, "duration": 598, "velocity": 77}, {"time": 140881, "pitch": 29, "duration": 179, "velocity": 93}, {"time": 141121, "pitch": 31, "duration": 178, "velocity": 102}, {"time": 141360, "pitch": 31, "duration": 478, "velocity": 102}, {"time": 141839, "pitch": 32, "duration": 478, "velocity": 100}, {"time": 142318, "pitch": 35, "duration": 481, "velocity": 100}, {"time": 142800, "pitch": 32, "duration": 247, "velocity": 93}, {"time": 143043, "pitch": 33, "duration": 657, "velocity": 100}, {"time": 143761, "pitch": 31, "duration": 398, "velocity": 104}, {"time": 144240, "pitch": 31, "duration": 238, "velocity": 100}, {"time": 144479, "pitch": 33, "duration": 179, "velocity": 103}, {"time": 144718, "pitch": 31, "duration": 239, "velocity": 105}, {"time": 144958, "pitch": 29, "duration": 599, "velocity": 105}, {"time": 145680, "pitch": 43, "duration": 421, "velocity": 104}, {"time": 146162, "pitch": 38, "duration": 238, "velocity": 100}, {"time": 146401, "pitch": 43, "duration": 463, "velocity": 96}, {"time": 146880, "pitch": 41, "duration": 657, "velocity": 96}, {"time": 147598, "pitch": 41, "duration": 178, "velocity": 93}, {"time": 147837, "pitch": 41, "duration": 845, "velocity": 96}, {"time": 148807, "pitch": 36, "duration": 1302, "velocity": 103}, {"time": 150112, "pitch": 36, "duration": 379, "velocity": 102}, {"time": 150491, "pitch": 36, "duration": 2108, "velocity": 100}, {"time": 801, "pitch": 52, "duration": 682, "velocity": 82}, {"time": 877, "pitch": 55, "duration": 646, "velocity": 90}, {"time": 917, "pitch": 57, "duration": 869, "velocity": 90}, {"time": 969, "pitch": 62, "duration": 474, "velocity": 104}, {"time": 1443, "pitch": 62, "duration": 479, "velocity": 98}, {"time": 1922, "pitch": 55, "duration": 280, "velocity": 98}, {"time": 2161, "pitch": 62, "duration": 255, "velocity": 105}, {"time": 2400, "pitch": 67, "duration": 270, "velocity": 103}, {"time": 2640, "pitch": 62, "duration": 241, "velocity": 104}, {"time": 2879, "pitch": 60, "duration": 278, "velocity": 108}, {"time": 3118, "pitch": 55, "duration": 278, "velocity": 79}, {"time": 3358, "pitch": 67, "duration": 284, "velocity": 96}, {"time": 3597, "pitch": 62, "duration": 323, "velocity": 100}, {"time": 3836, "pitch": 59, "duration": 268, "velocity": 106}, {"time": 4080, "pitch": 55, "duration": 322, "velocity": 83}, {"time": 4323, "pitch": 67, "duration": 291, "velocity": 96}, {"time": 4562, "pitch": 62, "duration": 251, "velocity": 98}, {"time": 4801, "pitch": 59, "duration": 321, "velocity": 86}, {"time": 5041, "pitch": 53, "duration": 361, "velocity": 87}, {"time": 5280, "pitch": 59, "duration": 270, "velocity": 103}, {"time": 5280, "pitch": 67, "duration": 272, "velocity": 97}, {"time": 5519, "pitch": 62, "duration": 306, "velocity": 106}, {"time": 5759, "pitch": 59, "duration": 300, "velocity": 103}, {"time": 5998, "pitch": 55, "duration": 327, "velocity": 96}, {"time": 6237, "pitch": 59, "duration": 302, "velocity": 106}, {"time": 6237, "pitch": 67, "duration": 326, "velocity": 96}, {"time": 6480, "pitch": 62, "duration": 267, "velocity": 103}, {"time": 6724, "pitch": 60, "duration": 288, "velocity": 110}, {"time": 6963, "pitch": 55, "duration": 275, "velocity": 89}, {"time": 7202, "pitch": 60, "duration": 313, "velocity": 102}, {"time": 7202, "pitch": 67, "duration": 289, "velocity": 88}, {"time": 7442, "pitch": 55, "duration": 314, "velocity": 96}, {"time": 7681, "pitch": 59, "duration": 148, "velocity": 96}, {"time": 7801, "pitch": 55, "duration": 89, "velocity": 85}, {"time": 7920, "pitch": 55, "duration": 218, "velocity": 85}, {"time": 8160, "pitch": 55, "duration": 508, "velocity": 81}, {"time": 23762, "pitch": 55, "duration": 89, "velocity": 80}, {"time": 23763, "pitch": 59, "duration": 89, "velocity": 82}, {"time": 23764, "pitch": 62, "duration": 89, "velocity": 90}, {"time": 23881, "pitch": 62, "duration": 123, "velocity": 80}, {"time": 23882, "pitch": 59, "duration": 121, "velocity": 85}, {"time": 23883, "pitch": 55, "duration": 122, "velocity": 90}, {"time": 24001, "pitch": 57, "duration": 291, "velocity": 91}, {"time": 24240, "pitch": 52, "duration": 285, "velocity": 86}, {"time": 24480, "pitch": 64, "duration": 329, "velocity": 92}, {"time": 24719, "pitch": 60, "duration": 325, "velocity": 88}, {"time": 24958, "pitch": 59, "duration": 293, "velocity": 92}, {"time": 25198, "pitch": 55, "duration": 337, "velocity": 76}, {"time": 25437, "pitch": 64, "duration": 326, "velocity": 85}, {"time": 25680, "pitch": 59, "duration": 158, "velocity": 87}, {"time": 25923, "pitch": 57, "duration": 271, "velocity": 91}, {"time": 26163, "pitch": 53, "duration": 322, "velocity": 89}, {"time": 26402, "pitch": 64, "duration": 321, "velocity": 89}, {"time": 26641, "pitch": 60, "duration": 325, "velocity": 90}, {"time": 26881, "pitch": 59, "duration": 310, "velocity": 91}, {"time": 27120, "pitch": 55, "duration": 328, "velocity": 79}, {"time": 27359, "pitch": 64, "duration": 339, "velocity": 86}, {"time": 27599, "pitch": 59, "duration": 204, "velocity": 91}, {"time": 27838, "pitch": 57, "duration": 347, "velocity": 90}, {"time": 28077, "pitch": 52, "duration": 332, "velocity": 88}, {"time": 28317, "pitch": 64, "duration": 382, "velocity": 81}, {"time": 28560, "pitch": 60, "duration": 266, "velocity": 86}, {"time": 28803, "pitch": 59, "duration": 351, "velocity": 90}, {"time": 29042, "pitch": 55, "duration": 329, "velocity": 82}, {"time": 29281, "pitch": 64, "duration": 307, "velocity": 81}, {"time": 29521, "pitch": 59, "duration": 204, "velocity": 92}, {"time": 29760, "pitch": 57, "duration": 318, "velocity": 85}, {"time": 29999, "pitch": 53, "duration": 341, "velocity": 96}, {"time": 30239, "pitch": 64, "duration": 300, "velocity": 88}, {"time": 30478, "pitch": 60, "duration": 292, "velocity": 89}, {"time": 30717, "pitch": 59, "duration": 335, "velocity": 88}, {"time": 30961, "pitch": 55, "duration": 362, "velocity": 77}, {"time": 31204, "pitch": 59, "duration": 403, "velocity": 85}, {"time": 31443, "pitch": 64, "duration": 225, "velocity": 74}, {"time": 31682, "pitch": 57, "duration": 930, "velocity": 90}, {"time": 32640, "pitch": 56, "duration": 915, "velocity": 89}, {"time": 33597, "pitch": 55, "duration": 939, "velocity": 84}, {"time": 34562, "pitch": 54, "duration": 849, "velocity": 85}, {"time": 35519, "pitch": 53, "duration": 316, "velocity": 94}, {"time": 35759, "pitch": 55, "duration": 310, "velocity": 91}, {"time": 35998, "pitch": 60, "duration": 260, "velocity": 90}, {"time": 36237, "pitch": 55, "duration": 521, "velocity": 94}, {"time": 36720, "pitch": 60, "duration": 272, "velocity": 93}, {"time": 36963, "pitch": 53, "duration": 269, "velocity": 83}, {"time": 37202, "pitch": 55, "duration": 192, "velocity": 89}, {"time": 37920, "pitch": 59, "duration": 202, "velocity": 94}, {"time": 37921, "pitch": 62, "duration": 152, "velocity": 95}, {"time": 37922, "pitch": 67, "duration": 149, "velocity": 96}, {"time": 38877, "pitch": 59, "duration": 216, "velocity": 90}, {"time": 38878, "pitch": 62, "duration": 206, "velocity": 95}, {"time": 38879, "pitch": 67, "duration": 193, "velocity": 98}, {"time": 39842, "pitch": 60, "duration": 177, "velocity": 90}, {"time": 39843, "pitch": 64, "duration": 201, "velocity": 95}, {"time": 39844, "pitch": 67, "duration": 191, "velocity": 99}, {"time": 40800, "pitch": 57, "duration": 193, "velocity": 90}, {"time": 40800, "pitch": 60, "duration": 197, "velocity": 95}, {"time": 40802, "pitch": 65, "duration": 217, "velocity": 102}, {"time": 41757, "pitch": 59, "duration": 189, "velocity": 90}, {"time": 41758, "pitch": 62, "duration": 185, "velocity": 95}, {"time": 41759, "pitch": 67, "duration": 191, "velocity": 101}, {"time": 42722, "pitch": 59, "duration": 163, "velocity": 90}, {"time": 42723, "pitch": 64, "duration": 172, "velocity": 95}, {"time": 42724, "pitch": 68, "duration": 167, "velocity": 100}, {"time": 43201, "pitch": 69, "duration": 329, "velocity": 90}, {"time": 43204, "pitch": 60, "duration": 333, "velocity": 95}, {"time": 43209, "pitch": 64, "duration": 355, "velocity": 100}, {"time": 43919, "pitch": 55, "duration": 611, "velocity": 90}, {"time": 43925, "pitch": 59, "duration": 615, "velocity": 95}, {"time": 43927, "pitch": 64, "duration": 616, "velocity": 100}, {"time": 44637, "pitch": 55, "duration": 216, "velocity": 85}, {"time": 44637, "pitch": 59, "duration": 228, "velocity": 84}, {"time": 44637, "pitch": 64, "duration": 216, "velocity": 85}, {"time": 45123, "pitch": 53, "duration": 637, "velocity": 99}, {"time": 45362, "pitch": 57, "duration": 463, "velocity": 87}, {"time": 45601, "pitch": 60, "duration": 215, "velocity": 90}, {"time": 45841, "pitch": 55, "duration": 345, "velocity": 95}, {"time": 45842, "pitch": 59, "duration": 387, "velocity": 98}, {"time": 45843, "pitch": 62, "duration": 373, "velocity": 90}, {"time": 46319, "pitch": 55, "duration": 124, "velocity": 95}, {"time": 46321, "pitch": 59, "duration": 145, "velocity": 98}, {"time": 46325, "pitch": 62, "duration": 132, "velocity": 90}, {"time": 46559, "pitch": 59, "duration": 300, "velocity": 95}, {"time": 46559, "pitch": 62, "duration": 304, "velocity": 98}, {"time": 46559, "pitch": 67, "duration": 299, "velocity": 94}, {"time": 47524, "pitch": 55, "duration": 171, "velocity": 86}, {"time": 47525, "pitch": 60, "duration": 138, "velocity": 88}, {"time": 47526, "pitch": 64, "duration": 161, "velocity": 90}, {"time": 48481, "pitch": 57, "duration": 132, "velocity": 84}, {"time": 48482, "pitch": 60, "duration": 163, "velocity": 85}, {"time": 48483, "pitch": 65, "duration": 146, "velocity": 92}, {"time": 49438, "pitch": 55, "duration": 114, "velocity": 90}, {"time": 49439, "pitch": 59, "duration": 145, "velocity": 95}, {"time": 49440, "pitch": 62, "duration": 132, "velocity": 98}, {"time": 49678, "pitch": 56, "duration": 354, "velocity": 90}, {"time": 49679, "pitch": 59, "duration": 362, "velocity": 95}, {"time": 49680, "pitch": 64, "duration": 358, "velocity": 98}, {"time": 50160, "pitch": 56, "duration": 91, "velocity": 90}, {"time": 50161, "pitch": 59, "duration": 92, "velocity": 95}, {"time": 50162, "pitch": 64, "duration": 89, "velocity": 98}, {"time": 50403, "pitch": 56, "duration": 359, "velocity": 90}, {"time": 50404, "pitch": 59, "duration": 350, "velocity": 95}, {"time": 50405, "pitch": 64, "duration": 357, "velocity": 98}, {"time": 50882, "pitch": 57, "duration": 319, "velocity": 90}, {"time": 50883, "pitch": 60, "duration": 375, "velocity": 95}, {"time": 50884, "pitch": 64, "duration": 335, "velocity": 98}, {"time": 51600, "pitch": 55, "duration": 350, "velocity": 90}, {"time": 51601, "pitch": 59, "duration": 354, "velocity": 95}, {"time": 51602, "pitch": 64, "duration": 359, "velocity": 98}, {"time": 52079, "pitch": 64, "duration": 106, "velocity": 98}, {"time": 52080, "pitch": 59, "duration": 106, "velocity": 95}, {"time": 52081, "pitch": 55, "duration": 103, "velocity": 90}, {"time": 52318, "pitch": 55, "duration": 265, "velocity": 90}, {"time": 52319, "pitch": 59, "duration": 278, "velocity": 95}, {"time": 52320, "pitch": 64, "duration": 281, "velocity": 98}, {"time": 52797, "pitch": 53, "duration": 259, "velocity": 102}, {"time": 53040, "pitch": 57, "duration": 279, "velocity": 89}, {"time": 53283, "pitch": 60, "duration": 252, "velocity": 84}, {"time": 53522, "pitch": 55, "duration": 498, "velocity": 99}, {"time": 54001, "pitch": 59, "duration": 255, "velocity": 87}, {"time": 54240, "pitch": 62, "duration": 459, "velocity": 103}, {"time": 55441, "pitch": 53, "duration": 373, "velocity": 90}, {"time": 55442, "pitch": 55, "duration": 369, "velocity": 95}, {"time": 55443, "pitch": 60, "duration": 378, "velocity": 99}, {"time": 55923, "pitch": 53, "duration": 136, "velocity": 90}, {"time": 55924, "pitch": 55, "duration": 136, "velocity": 95}, {"time": 55925, "pitch": 60, "duration": 149, "velocity": 102}, {"time": 56162, "pitch": 53, "duration": 336, "velocity": 90}, {"time": 56163, "pitch": 55, "duration": 329, "velocity": 95}, {"time": 56164, "pitch": 60, "duration": 342, "velocity": 103}, {"time": 56641, "pitch": 52, "duration": 366, "velocity": 90}, {"time": 56642, "pitch": 55, "duration": 398, "velocity": 95}, {"time": 56643, "pitch": 60, "duration": 395, "velocity": 99}, {"time": 57120, "pitch": 52, "duration": 171, "velocity": 90}, {"time": 57121, "pitch": 55, "duration": 208, "velocity": 95}, {"time": 57122, "pitch": 60, "duration": 226, "velocity": 99}, {"time": 57361, "pitch": 62, "duration": 507, "velocity": 100}, {"time": 57838, "pitch": 64, "duration": 559, "velocity": 97}, {"time": 72961, "pitch": 52, "duration": 348, "velocity": 89}, {"time": 72961, "pitch": 55, "duration": 367, "velocity": 86}, {"time": 72961, "pitch": 60, "duration": 375, "velocity": 91}, {"time": 73440, "pitch": 55, "duration": 312, "velocity": 86}, {"time": 73440, "pitch": 59, "duration": 324, "velocity": 91}, {"time": 73440, "pitch": 62, "duration": 324, "velocity": 96}, {"time": 73918, "pitch": 57, "duration": 292, "velocity": 91}, {"time": 74158, "pitch": 52, "duration": 285, "velocity": 86}, {"time": 74397, "pitch": 64, "duration": 334, "velocity": 92}, {"time": 74640, "pitch": 60, "duration": 329, "velocity": 88}, {"time": 74883, "pitch": 59, "duration": 292, "velocity": 92}, {"time": 75123, "pitch": 55, "duration": 336, "velocity": 76}, {"time": 75362, "pitch": 64, "duration": 321, "velocity": 85}, {"time": 75601, "pitch": 59, "duration": 156, "velocity": 87}, {"time": 75841, "pitch": 57, "duration": 271, "velocity": 91}, {"time": 76080, "pitch": 53, "duration": 322, "velocity": 89}, {"time": 76319, "pitch": 64, "duration": 321, "velocity": 89}, {"time": 76559, "pitch": 60, "duration": 325, "velocity": 90}, {"time": 76798, "pitch": 59, "duration": 310, "velocity": 91}, {"time": 77037, "pitch": 55, "duration": 330, "velocity": 79}, {"time": 77277, "pitch": 64, "duration": 344, "velocity": 86}, {"time": 77520, "pitch": 59, "duration": 207, "velocity": 91}, {"time": 77763, "pitch": 57, "duration": 347, "velocity": 90}, {"time": 78002, "pitch": 52, "duration": 330, "velocity": 88}, {"time": 78242, "pitch": 64, "duration": 376, "velocity": 81}, {"time": 78481, "pitch": 60, "duration": 262, "velocity": 86}, {"time": 78720, "pitch": 59, "duration": 351, "velocity": 90}, {"time": 78960, "pitch": 55, "duration": 329, "velocity": 82}, {"time": 79199, "pitch": 64, "duration": 306, "velocity": 81}, {"time": 79438, "pitch": 59, "duration": 205, "velocity": 92}, {"time": 79678, "pitch": 57, "duration": 318, "velocity": 85}, {"time": 79917, "pitch": 53, "duration": 343, "velocity": 96}, {"time": 80156, "pitch": 64, "duration": 305, "velocity": 88}, {"time": 80399, "pitch": 60, "duration": 295, "velocity": 89}, {"time": 80642, "pitch": 59, "duration": 330, "velocity": 88}, {"time": 80882, "pitch": 55, "duration": 359, "velocity": 77}, {"time": 81121, "pitch": 59, "duration": 403, "velocity": 85}, {"time": 81360, "pitch": 64, "duration": 226, "velocity": 74}, {"time": 81600, "pitch": 69, "duration": 1031, "velocity": 96}, {"time": 82557, "pitch": 68, "duration": 984, "velocity": 88}, {"time": 83522, "pitch": 67, "duration": 988, "velocity": 80}, {"time": 84479, "pitch": 66, "duration": 958, "velocity": 85}, {"time": 85680, "pitch": 55, "duration": 268, "velocity": 91}, {"time": 85923, "pitch": 57, "duration": 247, "velocity": 97}, {"time": 86162, "pitch": 67, "duration": 502, "velocity": 84}, {"time": 86641, "pitch": 65, "duration": 532, "velocity": 102}, {"time": 87598, "pitch": 55, "duration": 564, "velocity": 9}, {"time": 87599, "pitch": 59, "duration": 599, "velocity": 96}, {"time": 87600, "pitch": 62, "duration": 602, "velocity": 104}, {"time": 88316, "pitch": 55, "duration": 301, "velocity": 88}, {"time": 88317, "pitch": 59, "duration": 316, "velocity": 90}, {"time": 88318, "pitch": 62, "duration": 325, "velocity": 92}, {"time": 88802, "pitch": 55, "duration": 254, "velocity": 90}, {"time": 88803, "pitch": 59, "duration": 270, "velocity": 92}, {"time": 88804, "pitch": 62, "duration": 281, "velocity": 90}, {"time": 89281, "pitch": 55, "duration": 137, "velocity": 90}, {"time": 89282, "pitch": 60, "duration": 120, "velocity": 92}, {"time": 89283, "pitch": 64, "duration": 129, "velocity": 95}, {"time": 89503, "pitch": 64, "duration": 154, "velocity": 90}, {"time": 89520, "pitch": 55, "duration": 44, "velocity": 95}, {"time": 89521, "pitch": 60, "duration": 40, "velocity": 100}, {"time": 89760, "pitch": 55, "duration": 152, "velocity": 90}, {"time": 89761, "pitch": 60, "duration": 146, "velocity": 92}, {"time": 89762, "pitch": 64, "duration": 154, "velocity": 95}, {"time": 90717, "pitch": 53, "duration": 144, "velocity": 90}, {"time": 90718, "pitch": 57, "duration": 164, "velocity": 96}, {"time": 90719, "pitch": 60, "duration": 179, "velocity": 95}, {"time": 91682, "pitch": 55, "duration": 144, "velocity": 90}, {"time": 91683, "pitch": 59, "duration": 152, "velocity": 95}, {"time": 91684, "pitch": 62, "duration": 147, "velocity": 101}, {"time": 92639, "pitch": 56, "duration": 162, "velocity": 90}, {"time": 92640, "pitch": 59, "duration": 171, "velocity": 95}, {"time": 92641, "pitch": 64, "duration": 182, "velocity": 100}, {"time": 93118, "pitch": 57, "duration": 283, "velocity": 88}, {"time": 93357, "pitch": 60, "duration": 256, "velocity": 88}, {"time": 93597, "pitch": 64, "duration": 250, "velocity": 89}, {"time": 93840, "pitch": 55, "duration": 532, "velocity": 93}, {"time": 94322, "pitch": 59, "duration": 206, "velocity": 87}, {"time": 94562, "pitch": 59, "duration": 145, "velocity": 94}, {"time": 94681, "pitch": 64, "duration": 140, "velocity": 88}, {"time": 94801, "pitch": 59, "duration": 133, "velocity": 93}, {"time": 95040, "pitch": 53, "duration": 274, "velocity": 92}, {"time": 95280, "pitch": 57, "duration": 266, "velocity": 90}, {"time": 95519, "pitch": 65, "duration": 247, "velocity": 91}, {"time": 95758, "pitch": 55, "duration": 506, "velocity": 92}, {"time": 96237, "pitch": 67, "duration": 511, "velocity": 78}, {"time": 96962, "pitch": 60, "duration": 314, "velocity": 82}, {"time": 97202, "pitch": 64, "duration": 282, "velocity": 70}, {"time": 97441, "pitch": 67, "duration": 302, "velocity": 97}, {"time": 97680, "pitch": 60, "duration": 308, "velocity": 76}, {"time": 97920, "pitch": 57, "duration": 264, "velocity": 74}, {"time": 98159, "pitch": 60, "duration": 292, "velocity": 86}, {"time": 98399, "pitch": 67, "duration": 227, "velocity": 94}, {"time": 98638, "pitch": 60, "duration": 138, "velocity": 81}, {"time": 98877, "pitch": 59, "duration": 283, "velocity": 82}, {"time": 99120, "pitch": 55, "duration": 275, "velocity": 59}, {"time": 99363, "pitch": 59, "duration": 278, "velocity": 76}, {"time": 99603, "pitch": 56, "duration": 491, "velocity": 83}, {"time": 100081, "pitch": 59, "duration": 296, "velocity": 85}, {"time": 100321, "pitch": 68, "duration": 213, "velocity": 82}, {"time": 100560, "pitch": 59, "duration": 143, "velocity": 83}, {"time": 100799, "pitch": 60, "duration": 539, "velocity": 90}, {"time": 100800, "pitch": 64, "duration": 512, "velocity": 95}, {"time": 100801, "pitch": 69, "duration": 455, "velocity": 99}, {"time": 101517, "pitch": 55, "duration": 906, "velocity": 82}, {"time": 101518, "pitch": 59, "duration": 933, "velocity": 93}, {"time": 101519, "pitch": 64, "duration": 920, "velocity": 100}, {"time": 102482, "pitch": 59, "duration": 124, "velocity": 90}, {"time": 102483, "pitch": 55, "duration": 119, "velocity": 95}, {"time": 102484, "pitch": 64, "duration": 122, "velocity": 100}, {"time": 102722, "pitch": 62, "duration": 309, "velocity": 98}, {"time": 102961, "pitch": 60, "duration": 285, "velocity": 84}, {"time": 103200, "pitch": 62, "duration": 244, "velocity": 88}, {"time": 103440, "pitch": 64, "duration": 404, "velocity": 98}, {"time": 103918, "pitch": 64, "duration": 512, "velocity": 93}, {"time": 104636, "pitch": 48, "duration": 109, "velocity": 97}, {"time": 104639, "pitch": 55, "duration": 99, "velocity": 94}, {"time": 104879, "pitch": 48, "duration": 100, "velocity": 91}, {"time": 104880, "pitch": 55, "duration": 90, "velocity": 94}, {"time": 105122, "pitch": 48, "duration": 97, "velocity": 93}, {"time": 105123, "pitch": 55, "duration": 96, "velocity": 98}, {"time": 105362, "pitch": 48, "duration": 91, "velocity": 93}, {"time": 105363, "pitch": 55, "duration": 91, "velocity": 96}, {"time": 105601, "pitch": 48, "duration": 89, "velocity": 100}, {"time": 105602, "pitch": 55, "duration": 90, "velocity": 98}, {"time": 105841, "pitch": 48, "duration": 85, "velocity": 96}, {"time": 105842, "pitch": 55, "duration": 85, "velocity": 96}, {"time": 106080, "pitch": 48, "duration": 89, "velocity": 99}, {"time": 106081, "pitch": 55, "duration": 93, "velocity": 98}, {"time": 106319, "pitch": 48, "duration": 76, "velocity": 99}, {"time": 106320, "pitch": 55, "duration": 78, "velocity": 98}, {"time": 106559, "pitch": 43, "duration": 112, "velocity": 90}, {"time": 106560, "pitch": 50, "duration": 111, "velocity": 93}, {"time": 106798, "pitch": 43, "duration": 99, "velocity": 91}, {"time": 106799, "pitch": 50, "duration": 94, "velocity": 94}, {"time": 107037, "pitch": 43, "duration": 99, "velocity": 99}, {"time": 107038, "pitch": 50, "duration": 99, "velocity": 100}, {"time": 107280, "pitch": 43, "duration": 101, "velocity": 87}, {"time": 107281, "pitch": 50, "duration": 97, "velocity": 92}, {"time": 107523, "pitch": 43, "duration": 104, "velocity": 91}, {"time": 107524, "pitch": 50, "duration": 108, "velocity": 98}, {"time": 107763, "pitch": 43, "duration": 90, "velocity": 86}, {"time": 107764, "pitch": 50, "duration": 95, "velocity": 96}, {"time": 108002, "pitch": 43, "duration": 92, "velocity": 84}, {"time": 108003, "pitch": 50, "duration": 102, "velocity": 97}, {"time": 108241, "pitch": 43, "duration": 107, "velocity": 88}, {"time": 108242, "pitch": 50, "duration": 111, "velocity": 90}, {"time": 108481, "pitch": 45, "duration": 98, "velocity": 97}, {"time": 108482, "pitch": 52, "duration": 87, "velocity": 94}, {"time": 108720, "pitch": 45, "duration": 90, "velocity": 91}, {"time": 108721, "pitch": 52, "duration": 84, "velocity": 97}, {"time": 108959, "pitch": 45, "duration": 89, "velocity": 91}, {"time": 108960, "pitch": 52, "duration": 84, "velocity": 97}, {"time": 109199, "pitch": 45, "duration": 89, "velocity": 86}, {"time": 109200, "pitch": 52, "duration": 85, "velocity": 94}, {"time": 109438, "pitch": 45, "duration": 85, "velocity": 88}, {"time": 109439, "pitch": 52, "duration": 80, "velocity": 93}, {"time": 109677, "pitch": 45, "duration": 114, "velocity": 90}, {"time": 109678, "pitch": 52, "duration": 104, "velocity": 97}, {"time": 109917, "pitch": 43, "duration": 86, "velocity": 96}, {"time": 109918, "pitch": 50, "duration": 78, "velocity": 103}, {"time": 110160, "pitch": 41, "duration": 378, "velocity": 106}, {"time": 110161, "pitch": 48, "duration": 369, "velocity": 106}, {"time": 110642, "pitch": 41, "duration": 84, "velocity": 92}, {"time": 110643, "pitch": 48, "duration": 72, "velocity": 97}, {"time": 110882, "pitch": 41, "duration": 88, "velocity": 91}, {"time": 110883, "pitch": 48, "duration": 82, "velocity": 98}, {"time": 111121, "pitch": 41, "duration": 89, "velocity": 93}, {"time": 111122, "pitch": 48, "duration": 87, "velocity": 99}, {"time": 111360, "pitch": 43, "duration": 89, "velocity": 97}, {"time": 111361, "pitch": 50, "duration": 79, "velocity": 99}, {"time": 111600, "pitch": 43, "duration": 91, "velocity": 91}, {"time": 111601, "pitch": 50, "duration": 79, "velocity": 98}, {"time": 111839, "pitch": 43, "duration": 115, "velocity": 90}, {"time": 111840, "pitch": 50, "duration": 100, "velocity": 100}, {"time": 112078, "pitch": 43, "duration": 84, "velocity": 96}, {"time": 112079, "pitch": 50, "duration": 93, "velocity": 100}, {"time": 112318, "pitch": 48, "duration": 81, "velocity": 97}, {"time": 112319, "pitch": 55, "duration": 72, "velocity": 98}, {"time": 112557, "pitch": 48, "duration": 78, "velocity": 93}, {"time": 112558, "pitch": 55, "duration": 69, "velocity": 96}, {"time": 112796, "pitch": 48, "duration": 97, "velocity": 98}, {"time": 112797, "pitch": 55, "duration": 95, "velocity": 98}, {"time": 113039, "pitch": 48, "duration": 96, "velocity": 92}, {"time": 113040, "pitch": 55, "duration": 90, "velocity": 93}, {"time": 113283, "pitch": 48, "duration": 114, "velocity": 93}, {"time": 113284, "pitch": 55, "duration": 109, "velocity": 97}, {"time": 113522, "pitch": 48, "duration": 102, "velocity": 96}, {"time": 113523, "pitch": 55, "duration": 98, "velocity": 99}, {"time": 113761, "pitch": 48, "duration": 91, "velocity": 97}, {"time": 113762, "pitch": 55, "duration": 93, "velocity": 100}, {"time": 114001, "pitch": 48, "duration": 84, "velocity": 100}, {"time": 114002, "pitch": 55, "duration": 74, "velocity": 100}, {"time": 114240, "pitch": 43, "duration": 86, "velocity": 100}, {"time": 114241, "pitch": 50, "duration": 68, "velocity": 73}, {"time": 114479, "pitch": 43, "duration": 85, "velocity": 91}, {"time": 114480, "pitch": 50, "duration": 68, "velocity": 99}, {"time": 114719, "pitch": 43, "duration": 94, "velocity": 96}, {"time": 114720, "pitch": 50, "duration": 87, "velocity": 102}, {"time": 114958, "pitch": 43, "duration": 106, "velocity": 85}, {"time": 114959, "pitch": 50, "duration": 93, "velocity": 97}, {"time": 115197, "pitch": 43, "duration": 108, "velocity": 91}, {"time": 115198, "pitch": 50, "duration": 103, "velocity": 97}, {"time": 115440, "pitch": 43, "duration": 103, "velocity": 91}, {"time": 115441, "pitch": 50, "duration": 89, "velocity": 99}, {"time": 115683, "pitch": 43, "duration": 87, "velocity": 93}, {"time": 115684, "pitch": 50, "duration": 83, "velocity": 102}, {"time": 115923, "pitch": 43, "duration": 102, "velocity": 92}, {"time": 115924, "pitch": 50, "duration": 97, "velocity": 101}, {"time": 116162, "pitch": 45, "duration": 95, "velocity": 91}, {"time": 116163, "pitch": 52, "duration": 91, "velocity": 101}, {"time": 116401, "pitch": 45, "duration": 99, "velocity": 92}, {"time": 116402, "pitch": 52, "duration": 87, "velocity": 97}, {"time": 116641, "pitch": 45, "duration": 95, "velocity": 94}, {"time": 116642, "pitch": 52, "duration": 86, "velocity": 98}, {"time": 116880, "pitch": 45, "duration": 91, "velocity": 89}, {"time": 116881, "pitch": 52, "duration": 83, "velocity": 94}, {"time": 117119, "pitch": 45, "duration": 81, "velocity": 90}, {"time": 117120, "pitch": 52, "duration": 68, "velocity": 96}, {"time": 117359, "pitch": 45, "duration": 94, "velocity": 86}, {"time": 117360, "pitch": 52, "duration": 94, "velocity": 92}, {"time": 117598, "pitch": 43, "duration": 90, "velocity": 97}, {"time": 117599, "pitch": 50, "duration": 86, "velocity": 102}, {"time": 117837, "pitch": 41, "duration": 378, "velocity": 106}, {"time": 117838, "pitch": 48, "duration": 368, "velocity": 106}, {"time": 118320, "pitch": 41, "duration": 113, "velocity": 90}, {"time": 118321, "pitch": 48, "duration": 87, "velocity": 87}, {"time": 118563, "pitch": 41, "duration": 94, "velocity": 93}, {"time": 118564, "pitch": 48, "duration": 86, "velocity": 96}, {"time": 118802, "pitch": 41, "duration": 139, "velocity": 88}, {"time": 118803, "pitch": 48, "duration": 138, "velocity": 93}, {"time": 119042, "pitch": 43, "duration": 115, "velocity": 92}, {"time": 119043, "pitch": 50, "duration": 96, "velocity": 98}, {"time": 119281, "pitch": 43, "duration": 128, "velocity": 88}, {"time": 119282, "pitch": 50, "duration": 108, "velocity": 98}, {"time": 119520, "pitch": 41, "duration": 121, "velocity": 99}, {"time": 119521, "pitch": 48, "duration": 96, "velocity": 99}, {"time": 119760, "pitch": 41, "duration": 102, "velocity": 96}, {"time": 119761, "pitch": 48, "duration": 111, "velocity": 98}, {"time": 119999, "pitch": 52, "duration": 517, "velocity": 87}, {"time": 120238, "pitch": 55, "duration": 294, "velocity": 88}, {"time": 120478, "pitch": 59, "duration": 292, "velocity": 96}, {"time": 120717, "pitch": 67, "duration": 500, "velocity": 90}, {"time": 121199, "pitch": 59, "duration": 499, "velocity": 90}, {"time": 121921, "pitch": 53, "duration": 271, "velocity": 102}, {"time": 122161, "pitch": 55, "duration": 299, "velocity": 93}, {"time": 122400, "pitch": 60, "duration": 262, "velocity": 91}, {"time": 122639, "pitch": 53, "duration": 670, "velocity": 90}, {"time": 123357, "pitch": 60, "duration": 293, "velocity": 81}, {"time": 123600, "pitch": 53, "duration": 247, "velocity": 94}, {"time": 123843, "pitch": 57, "duration": 485, "velocity": 92}, {"time": 123843, "pitch": 65, "duration": 504, "velocity": 97}, {"time": 124322, "pitch": 60, "duration": 321, "velocity": 97}, {"time": 124561, "pitch": 57, "duration": 302, "velocity": 84}, {"time": 124801, "pitch": 60, "duration": 299, "velocity": 98}, {"time": 125040, "pitch": 65, "duration": 502, "velocity": 100}, {"time": 125519, "pitch": 60, "duration": 203, "velocity": 91}, {"time": 125758, "pitch": 55, "duration": 568, "velocity": 82}, {"time": 125758, "pitch": 64, "duration": 494, "velocity": 83}, {"time": 126237, "pitch": 59, "duration": 314, "velocity": 85}, {"time": 126480, "pitch": 64, "duration": 275, "velocity": 82}, {"time": 126723, "pitch": 67, "duration": 258, "velocity": 79}, {"time": 126962, "pitch": 64, "duration": 278, "velocity": 78}, {"time": 127202, "pitch": 67, "duration": 321, "velocity": 71}, {"time": 127680, "pitch": 57, "duration": 677, "velocity": 80}, {"time": 127680, "pitch": 65, "duration": 739, "velocity": 86}, {"time": 128398, "pitch": 57, "duration": 274, "velocity": 81}, {"time": 128638, "pitch": 60, "duration": 239, "velocity": 98}, {"time": 128877, "pitch": 69, "duration": 541, "velocity": 88}, {"time": 129603, "pitch": 55, "duration": 383, "velocity": 81}, {"time": 129604, "pitch": 59, "duration": 399, "velocity": 82}, {"time": 129605, "pitch": 62, "duration": 401, "velocity": 85}, {"time": 130081, "pitch": 55, "duration": 138, "velocity": 84}, {"time": 130082, "pitch": 59, "duration": 130, "velocity": 86}, {"time": 130083, "pitch": 62, "duration": 141, "velocity": 89}, {"time": 130321, "pitch": 55, "duration": 70, "velocity": 86}, {"time": 130322, "pitch": 59, "duration": 73, "velocity": 88}, {"time": 130323, "pitch": 62, "duration": 84, "velocity": 94}, {"time": 130560, "pitch": 55, "duration": 103, "velocity": 88}, {"time": 130561, "pitch": 59, "duration": 95, "velocity": 90}, {"time": 130562, "pitch": 62, "duration": 110, "velocity": 93}, {"time": 130799, "pitch": 55, "duration": 92, "velocity": 89}, {"time": 130800, "pitch": 59, "duration": 76, "velocity": 91}, {"time": 130801, "pitch": 62, "duration": 98, "velocity": 97}, {"time": 131039, "pitch": 55, "duration": 114, "velocity": 90}, {"time": 131040, "pitch": 59, "duration": 115, "velocity": 92}, {"time": 131041, "pitch": 62, "duration": 118, "velocity": 95}, {"time": 131278, "pitch": 55, "duration": 104, "velocity": 92}, {"time": 131279, "pitch": 59, "duration": 96, "velocity": 94}, {"time": 131280, "pitch": 62, "duration": 113, "velocity": 100}, {"time": 131517, "pitch": 60, "duration": 282, "velocity": 100}, {"time": 131760, "pitch": 64, "duration": 266, "velocity": 86}, {"time": 132003, "pitch": 67, "duration": 263, "velocity": 97}, {"time": 132243, "pitch": 60, "duration": 281, "velocity": 76}, {"time": 132482, "pitch": 53, "duration": 309, "velocity": 89}, {"time": 132721, "pitch": 60, "duration": 289, "velocity": 86}, {"time": 132961, "pitch": 65, "duration": 235, "velocity": 101}, {"time": 133200, "pitch": 60, "duration": 276, "velocity": 84}, {"time": 133439, "pitch": 55, "duration": 244, "velocity": 96}, {"time": 133679, "pitch": 59, "duration": 542, "velocity": 86}, {"time": 133918, "pitch": 67, "duration": 138, "velocity": 74}, {"time": 134157, "pitch": 56, "duration": 470, "velocity": 99}, {"time": 134640, "pitch": 59, "duration": 323, "velocity": 94}, {"time": 134883, "pitch": 64, "duration": 252, "velocity": 96}, {"time": 135122, "pitch": 59, "duration": 137, "velocity": 84}, {"time": 135362, "pitch": 57, "duration": 608, "velocity": 98}, {"time": 135601, "pitch": 60, "duration": 339, "velocity": 76}, {"time": 135840, "pitch": 64, "duration": 158, "velocity": 80}, {"time": 136068, "pitch": 55, "duration": 581, "velocity": 96}, {"time": 136080, "pitch": 59, "duration": 722, "velocity": 96}, {"time": 136136, "pitch": 62, "duration": 663, "velocity": 100}, {"time": 136798, "pitch": 55, "duration": 286, "velocity": 98}, {"time": 137037, "pitch": 59, "duration": 233, "velocity": 97}, {"time": 137276, "pitch": 53, "duration": 600, "velocity": 102}, {"time": 137519, "pitch": 57, "duration": 410, "velocity": 82}, {"time": 137763, "pitch": 60, "duration": 197, "velocity": 80}, {"time": 138002, "pitch": 55, "duration": 702, "velocity": 108}, {"time": 138481, "pitch": 59, "duration": 252, "velocity": 88}, {"time": 138720, "pitch": 62, "duration": 247, "velocity": 96}, {"time": 138959, "pitch": 55, "duration": 200, "velocity": 87}, {"time": 139199, "pitch": 55, "duration": 856, "velocity": 89}, {"time": 139438, "pitch": 60, "duration": 362, "velocity": 85}, {"time": 139677, "pitch": 64, "duration": 460, "velocity": 91}, {"time": 139920, "pitch": 60, "duration": 241, "velocity": 87}, {"time": 140163, "pitch": 53, "duration": 866, "velocity": 92}, {"time": 140403, "pitch": 57, "duration": 382, "velocity": 82}, {"time": 140642, "pitch": 60, "duration": 492, "velocity": 89}, {"time": 140881, "pitch": 57, "duration": 247, "velocity": 76}, {"time": 141121, "pitch": 55, "duration": 566, "velocity": 96}, {"time": 141360, "pitch": 59, "duration": 419, "velocity": 84}, {"time": 141600, "pitch": 62, "duration": 204, "velocity": 90}, {"time": 141839, "pitch": 56, "duration": 1127, "velocity": 96}, {"time": 142318, "pitch": 59, "duration": 315, "velocity": 86}, {"time": 142557, "pitch": 64, "duration": 282, "velocity": 86}, {"time": 142800, "pitch": 59, "duration": 165, "velocity": 94}, {"time": 143015, "pitch": 57, "duration": 331, "velocity": 91}, {"time": 143043, "pitch": 60, "duration": 432, "velocity": 92}, {"time": 143083, "pitch": 64, "duration": 451, "velocity": 100}, {"time": 143522, "pitch": 57, "duration": 197, "velocity": 87}, {"time": 143761, "pitch": 55, "duration": 426, "velocity": 102}, {"time": 143761, "pitch": 59, "duration": 535, "velocity": 97}, {"time": 143761, "pitch": 62, "duration": 494, "velocity": 98}, {"time": 144240, "pitch": 55, "duration": 680, "velocity": 86}, {"time": 144479, "pitch": 59, "duration": 265, "velocity": 98}, {"time": 144718, "pitch": 62, "duration": 238, "velocity": 97}, {"time": 144958, "pitch": 53, "duration": 617, "velocity": 103}, {"time": 145197, "pitch": 55, "duration": 439, "velocity": 89}, {"time": 145436, "pitch": 60, "duration": 213, "velocity": 90}, {"time": 145680, "pitch": 55, "duration": 1109, "velocity": 100}, {"time": 146162, "pitch": 59, "duration": 289, "velocity": 93}, {"time": 146401, "pitch": 62, "duration": 296, "velocity": 101}, {"time": 146641, "pitch": 59, "duration": 229, "velocity": 80}, {"time": 146880, "pitch": 57, "duration": 432, "velocity": 90}, {"time": 146881, "pitch": 60, "duration": 417, "velocity": 95}, {"time": 146882, "pitch": 64, "duration": 425, "velocity": 99}, {"time": 147359, "pitch": 57, "duration": 368, "velocity": 90}, {"time": 147360, "pitch": 60, "duration": 356, "velocity": 95}, {"time": 147361, "pitch": 64, "duration": 350, "velocity": 98}, {"time": 147837, "pitch": 57, "duration": 386, "velocity": 80}, {"time": 147838, "pitch": 60, "duration": 371, "velocity": 90}, {"time": 147839, "pitch": 64, "duration": 366, "velocity": 95}, {"time": 148323, "pitch": 57, "duration": 407, "velocity": 80}, {"time": 148324, "pitch": 60, "duration": 390, "velocity": 95}, {"time": 148325, "pitch": 64, "duration": 381, "velocity": 100}, {"time": 148807, "pitch": 60, "duration": 1002, "velocity": 83}, {"time": 148810, "pitch": 64, "duration": 987, "velocity": 95}, {"time": 148813, "pitch": 67, "duration": 1035, "velocity": 90}, {"time": 150112, "pitch": 60, "duration": 242, "velocity": 91}, {"time": 150114, "pitch": 64, "duration": 258, "velocity": 95}, {"time": 150117, "pitch": 67, "duration": 270, "velocity": 98}, {"time": 150473, "pitch": 60, "duration": 1949, "velocity": 90}, {"time": 150491, "pitch": 67, "duration": 1963, "velocity": 81}, {"time": 150509, "pitch": 72, "duration": 1916, "velocity": 88}, {"time": 8638, "pitch": 76, "duration": 470, "velocity": 117}, {"time": 9117, "pitch": 74, "duration": 226, "velocity": 113}, {"time": 9360, "pitch": 72, "duration": 282, "velocity": 100}, {"time": 9603, "pitch": 71, "duration": 560, "velocity": 107}, {"time": 10321, "pitch": 71, "duration": 255, "velocity": 115}, {"time": 10560, "pitch": 72, "duration": 266, "velocity": 107}, {"time": 10800, "pitch": 71, "duration": 249, "velocity": 106}, {"time": 11039, "pitch": 69, "duration": 273, "velocity": 101}, {"time": 11278, "pitch": 67, "duration": 82, "velocity": 96}, {"time": 11398, "pitch": 67, "duration": 713, "velocity": 100}, {"time": 12240, "pitch": 67, "duration": 288, "velocity": 97}, {"time": 12483, "pitch": 69, "duration": 252, "velocity": 102}, {"time": 12722, "pitch": 67, "duration": 275, "velocity": 99}, {"time": 12961, "pitch": 69, "duration": 257, "velocity": 108}, {"time": 13201, "pitch": 71, "duration": 256, "velocity": 103}, {"time": 13440, "pitch": 72, "duration": 715, "velocity": 97}, {"time": 14158, "pitch": 76, "duration": 272, "velocity": 95}, {"time": 14397, "pitch": 77, "duration": 272, "velocity": 92}, {"time": 14640, "pitch": 76, "duration": 254, "velocity": 109}, {"time": 14884, "pitch": 74, "duration": 259, "velocity": 118}, {"time": 15123, "pitch": 72, "duration": 255, "velocity": 104}, {"time": 15362, "pitch": 74, "duration": 671, "velocity": 114}, {"time": 16320, "pitch": 76, "duration": 491, "velocity": 115}, {"time": 16798, "pitch": 74, "duration": 210, "velocity": 111}, {"time": 17038, "pitch": 72, "duration": 280, "velocity": 95}, {"time": 17277, "pitch": 71, "duration": 576, "velocity": 104}, {"time": 18002, "pitch": 71, "duration": 267, "velocity": 105}, {"time": 18242, "pitch": 72, "duration": 268, "velocity": 107}, {"time": 18481, "pitch": 71, "duration": 241, "velocity": 101}, {"time": 18720, "pitch": 69, "duration": 265, "velocity": 96}, {"time": 18960, "pitch": 67, "duration": 99, "velocity": 93}, {"time": 19080, "pitch": 67, "duration": 670, "velocity": 101}, {"time": 19917, "pitch": 67, "duration": 279, "velocity": 103}, {"time": 20157, "pitch": 69, "duration": 264, "velocity": 95}, {"time": 20400, "pitch": 67, "duration": 281, "velocity": 100}, {"time": 20643, "pitch": 69, "duration": 252, "velocity": 103}, {"time": 20882, "pitch": 71, "duration": 243, "velocity": 91}, {"time": 21121, "pitch": 72, "duration": 593, "velocity": 93}, {"time": 21839, "pitch": 76, "duration": 236, "velocity": 96}, {"time": 22079, "pitch": 77, "duration": 261, "velocity": 93}, {"time": 22318, "pitch": 76, "duration": 240, "velocity": 115}, {"time": 22557, "pitch": 74, "duration": 235, "velocity": 101}, {"time": 22801, "pitch": 76, "duration": 268, "velocity": 110}, {"time": 23044, "pitch": 72, "duration": 459, "velocity": 103}, {"time": 24001, "pitch": 69, "duration": 589, "velocity": 97}, {"time": 24719, "pitch": 69, "duration": 277, "velocity": 112}, {"time": 24958, "pitch": 71, "duration": 244, "velocity": 104}, {"time": 25198, "pitch": 69, "duration": 277, "velocity": 100}, {"time": 25437, "pitch": 71, "duration": 512, "velocity": 107}, {"time": 25923, "pitch": 72, "duration": 781, "velocity": 97}, {"time": 26881, "pitch": 74, "duration": 237, "velocity": 107}, {"time": 27120, "pitch": 72, "duration": 276, "velocity": 104}, {"time": 27359, "pitch": 74, "duration": 497, "velocity": 101}, {"time": 27838, "pitch": 76, "duration": 625, "velocity": 103}, {"time": 28560, "pitch": 76, "duration": 244, "velocity": 107}, {"time": 28803, "pitch": 74, "duration": 266, "velocity": 92}, {"time": 29042, "pitch": 72, "duration": 261, "velocity": 104}, {"time": 29281, "pitch": 71, "duration": 490, "velocity": 103}, {"time": 29760, "pitch": 72, "duration": 1116, "velocity": 98}, {"time": 31204, "pitch": 72, "duration": 259, "velocity": 106}, {"time": 31443, "pitch": 74, "duration": 275, "velocity": 109}, {"time": 31682, "pitch": 76, "duration": 168, "velocity": 106}, {"time": 31922, "pitch": 76, "duration": 146, "velocity": 107}, {"time": 32161, "pitch": 76, "duration": 104, "velocity": 107}, {"time": 32400, "pitch": 76, "duration": 208, "velocity": 104}, {"time": 32640, "pitch": 74, "duration": 154, "velocity": 106}, {"time": 32879, "pitch": 74, "duration": 140, "velocity": 107}, {"time": 33118, "pitch": 74, "duration": 223, "velocity": 108}, {"time": 33358, "pitch": 76, "duration": 254, "velocity": 101}, {"time": 33597, "pitch": 72, "duration": 140, "velocity": 102}, {"time": 33840, "pitch": 72, "duration": 124, "velocity": 99}, {"time": 34083, "pitch": 72, "duration": 216, "velocity": 100}, {"time": 34323, "pitch": 74, "duration": 226, "velocity": 108}, {"time": 34562, "pitch": 76, "duration": 498, "velocity": 106}, {"time": 35041, "pitch": 74, "duration": 299, "velocity": 106}, {"time": 35280, "pitch": 72, "duration": 202, "velocity": 102}, {"time": 35519, "pitch": 72, "duration": 1043, "velocity": 104}, {"time": 36720, "pitch": 72, "duration": 496, "velocity": 102}, {"time": 37202, "pitch": 74, "duration": 258, "velocity": 101}, {"time": 37441, "pitch": 76, "duration": 502, "velocity": 107}, {"time": 37920, "pitch": 74, "duration": 456, "velocity": 102}, {"time": 38399, "pitch": 77, "duration": 522, "velocity": 112}, {"time": 38877, "pitch": 76, "duration": 396, "velocity": 102}, {"time": 39364, "pitch": 79, "duration": 144, "velocity": 107}, {"time": 39603, "pitch": 79, "duration": 150, "velocity": 109}, {"time": 39842, "pitch": 79, "duration": 139, "velocity": 103}, {"time": 40082, "pitch": 79, "duration": 175, "velocity": 107}, {"time": 40321, "pitch": 77, "duration": 246, "velocity": 111}, {"time": 40560, "pitch": 76, "duration": 239, "velocity": 103}, {"time": 40800, "pitch": 74, "duration": 274, "velocity": 102}, {"time": 41039, "pitch": 72, "duration": 231, "velocity": 100}, {"time": 41278, "pitch": 74, "duration": 434, "velocity": 111}, {"time": 41757, "pitch": 76, "duration": 182, "velocity": 106}, {"time": 42000, "pitch": 77, "duration": 489, "velocity": 113}, {"time": 42483, "pitch": 76, "duration": 241, "velocity": 103}, {"time": 42722, "pitch": 74, "duration": 236, "velocity": 99}, {"time": 42961, "pitch": 76, "duration": 263, "velocity": 99}, {"time": 43201, "pitch": 72, "duration": 341, "velocity": 101}, {"time": 43679, "pitch": 81, "duration": 245, "velocity": 99}, {"time": 43919, "pitch": 79, "duration": 442, "velocity": 107}, {"time": 44397, "pitch": 76, "duration": 412, "velocity": 104}, {"time": 44880, "pitch": 76, "duration": 167, "velocity": 107}, {"time": 45123, "pitch": 77, "duration": 251, "velocity": 111}, {"time": 45362, "pitch": 76, "duration": 236, "velocity": 90}, {"time": 45601, "pitch": 77, "duration": 213, "velocity": 106}, {"time": 45841, "pitch": 79, "duration": 785, "velocity": 109}, {"time": 46798, "pitch": 76, "duration": 100, "velocity": 97}, {"time": 46918, "pitch": 77, "duration": 131, "velocity": 108}, {"time": 47037, "pitch": 79, "duration": 150, "velocity": 108}, {"time": 47281, "pitch": 79, "duration": 132, "velocity": 96}, {"time": 47524, "pitch": 79, "duration": 133, "velocity": 106}, {"time": 47763, "pitch": 79, "duration": 184, "velocity": 93}, {"time": 48002, "pitch": 77, "duration": 269, "velocity": 104}, {"time": 48242, "pitch": 76, "duration": 223, "velocity": 100}, {"time": 48481, "pitch": 74, "duration": 216, "velocity": 101}, {"time": 48720, "pitch": 72, "duration": 232, "velocity": 92}, {"time": 48960, "pitch": 74, "duration": 294, "velocity": 98}, {"time": 49438, "pitch": 76, "duration": 258, "velocity": 112}, {"time": 49678, "pitch": 77, "duration": 512, "velocity": 109}, {"time": 50160, "pitch": 76, "duration": 235, "velocity": 101}, {"time": 50403, "pitch": 74, "duration": 244, "velocity": 99}, {"time": 50643, "pitch": 76, "duration": 249, "velocity": 98}, {"time": 50882, "pitch": 72, "duration": 439, "velocity": 101}, {"time": 51361, "pitch": 81, "duration": 198, "velocity": 98}, {"time": 51600, "pitch": 79, "duration": 427, "velocity": 106}, {"time": 52079, "pitch": 76, "duration": 358, "velocity": 104}, {"time": 52557, "pitch": 76, "duration": 239, "velocity": 104}, {"time": 52797, "pitch": 77, "duration": 248, "velocity": 111}, {"time": 53040, "pitch": 76, "duration": 223, "velocity": 94}, {"time": 53283, "pitch": 77, "duration": 291, "velocity": 101}, {"time": 53522, "pitch": 79, "duration": 483, "velocity": 106}, {"time": 54001, "pitch": 71, "duration": 454, "velocity": 96}, {"time": 54479, "pitch": 72, "duration": 2067, "velocity": 99}, {"time": 58563, "pitch": 76, "duration": 470, "velocity": 117}, {"time": 59042, "pitch": 74, "duration": 222, "velocity": 113}, {"time": 59281, "pitch": 72, "duration": 279, "velocity": 100}, {"time": 59521, "pitch": 71, "duration": 559, "velocity": 107}, {"time": 60239, "pitch": 71, "duration": 255, "velocity": 115}, {"time": 60478, "pitch": 72, "duration": 265, "velocity": 107}, {"time": 60717, "pitch": 71, "duration": 250, "velocity": 106}, {"time": 60957, "pitch": 69, "duration": 277, "velocity": 101}, {"time": 61200, "pitch": 67, "duration": 83, "velocity": 96}, {"time": 61321, "pitch": 67, "duration": 713, "velocity": 100}, {"time": 62161, "pitch": 67, "duration": 284, "velocity": 97}, {"time": 62400, "pitch": 69, "duration": 252, "velocity": 102}, {"time": 62640, "pitch": 67, "duration": 225, "velocity": 99}, {"time": 62879, "pitch": 69, "duration": 256, "velocity": 108}, {"time": 63118, "pitch": 71, "duration": 257, "velocity": 103}, {"time": 63358, "pitch": 72, "duration": 599, "velocity": 97}, {"time": 64083, "pitch": 76, "duration": 82, "velocity": 100}, {"time": 64203, "pitch": 76, "duration": 119, "velocity": 100}, {"time": 64322, "pitch": 77, "duration": 268, "velocity": 92}, {"time": 64562, "pitch": 76, "duration": 249, "velocity": 109}, {"time": 64801, "pitch": 74, "duration": 259, "velocity": 118}, {"time": 65040, "pitch": 72, "duration": 256, "velocity": 104}, {"time": 65280, "pitch": 74, "duration": 671, "velocity": 114}, {"time": 66237, "pitch": 76, "duration": 499, "velocity": 115}, {"time": 66723, "pitch": 74, "duration": 210, "velocity": 111}, {"time": 66963, "pitch": 72, "duration": 280, "velocity": 95}, {"time": 67202, "pitch": 71, "duration": 568, "velocity": 104}, {"time": 67920, "pitch": 71, "duration": 266, "velocity": 105}, {"time": 68159, "pitch": 72, "duration": 269, "velocity": 107}, {"time": 68399, "pitch": 71, "duration": 241, "velocity": 101}, {"time": 68638, "pitch": 69, "duration": 264, "velocity": 96}, {"time": 68877, "pitch": 67, "duration": 99, "velocity": 93}, {"time": 68997, "pitch": 67, "duration": 678, "velocity": 101}, {"time": 69842, "pitch": 67, "duration": 278, "velocity": 103}, {"time": 70082, "pitch": 69, "duration": 260, "velocity": 95}, {"time": 70321, "pitch": 67, "duration": 277, "velocity": 100}, {"time": 70560, "pitch": 69, "duration": 252, "velocity": 103}, {"time": 70800, "pitch": 71, "duration": 243, "velocity": 91}, {"time": 71039, "pitch": 72, "duration": 594, "velocity": 93}, {"time": 71761, "pitch": 76, "duration": 239, "velocity": 96}, {"time": 72004, "pitch": 77, "duration": 261, "velocity": 93}, {"time": 72243, "pitch": 76, "duration": 240, "velocity": 115}, {"time": 72482, "pitch": 74, "duration": 232, "velocity": 101}, {"time": 72722, "pitch": 76, "duration": 264, "velocity": 110}, {"time": 72961, "pitch": 72, "duration": 460, "velocity": 103}, {"time": 73918, "pitch": 69, "duration": 592, "velocity": 97}, {"time": 74640, "pitch": 69, "duration": 281, "velocity": 112}, {"time": 74883, "pitch": 71, "duration": 244, "velocity": 104}, {"time": 75123, "pitch": 69, "duration": 277, "velocity": 100}, {"time": 75362, "pitch": 71, "duration": 505, "velocity": 107}, {"time": 75841, "pitch": 72, "duration": 780, "velocity": 97}, {"time": 76798, "pitch": 74, "duration": 237, "velocity": 107}, {"time": 77037, "pitch": 72, "duration": 277, "velocity": 104}, {"time": 77277, "pitch": 74, "duration": 504, "velocity": 101}, {"time": 77763, "pitch": 76, "duration": 623, "velocity": 103}, {"time": 78481, "pitch": 76, "duration": 240, "velocity": 107}, {"time": 78720, "pitch": 74, "duration": 266, "velocity": 92}, {"time": 78960, "pitch": 72, "duration": 261, "velocity": 104}, {"time": 79199, "pitch": 71, "duration": 490, "velocity": 103}, {"time": 79678, "pitch": 72, "duration": 1121, "velocity": 98}, {"time": 81121, "pitch": 72, "duration": 259, "velocity": 106}, {"time": 81360, "pitch": 74, "duration": 276, "velocity": 109}, {"time": 81600, "pitch": 76, "duration": 167, "velocity": 106}, {"time": 81839, "pitch": 76, "duration": 147, "velocity": 107}, {"time": 82078, "pitch": 76, "duration": 104, "velocity": 107}, {"time": 82318, "pitch": 76, "duration": 207, "velocity": 104}, {"time": 82557, "pitch": 74, "duration": 157, "velocity": 106}, {"time": 82800, "pitch": 74, "duration": 142, "velocity": 107}, {"time": 83043, "pitch": 74, "duration": 223, "velocity": 108}, {"time": 83283, "pitch": 76, "duration": 254, "velocity": 101}, {"time": 83522, "pitch": 72, "duration": 138, "velocity": 102}, {"time": 83761, "pitch": 72, "duration": 122, "velocity": 99}, {"time": 84001, "pitch": 72, "duration": 215, "velocity": 100}, {"time": 84240, "pitch": 74, "duration": 226, "velocity": 108}, {"time": 84479, "pitch": 76, "duration": 168, "velocity": 121}, {"time": 84719, "pitch": 76, "duration": 239, "velocity": 121}, {"time": 84958, "pitch": 74, "duration": 299, "velocity": 106}, {"time": 85197, "pitch": 72, "duration": 203, "velocity": 102}, {"time": 85437, "pitch": 72, "duration": 1048, "velocity": 104}, {"time": 86641, "pitch": 72, "duration": 493, "velocity": 102}, {"time": 87120, "pitch": 74, "duration": 258, "velocity": 101}, {"time": 87359, "pitch": 76, "duration": 502, "velocity": 107}, {"time": 87838, "pitch": 74, "duration": 455, "velocity": 102}, {"time": 88316, "pitch": 77, "duration": 529, "velocity": 112}, {"time": 88802, "pitch": 76, "duration": 389, "velocity": 102}, {"time": 89281, "pitch": 79, "duration": 145, "velocity": 107}, {"time": 89520, "pitch": 79, "duration": 150, "velocity": 109}, {"time": 89760, "pitch": 79, "duration": 138, "velocity": 103}, {"time": 89999, "pitch": 79, "duration": 176, "velocity": 107}, {"time": 90238, "pitch": 77, "duration": 247, "velocity": 111}, {"time": 90478, "pitch": 76, "duration": 238, "velocity": 103}, {"time": 90717, "pitch": 74, "duration": 279, "velocity": 102}, {"time": 90960, "pitch": 72, "duration": 235, "velocity": 100}, {"time": 91203, "pitch": 74, "duration": 434, "velocity": 111}, {"time": 91682, "pitch": 76, "duration": 180, "velocity": 106}, {"time": 91921, "pitch": 77, "duration": 485, "velocity": 113}, {"time": 92400, "pitch": 76, "duration": 241, "velocity": 103}, {"time": 92639, "pitch": 74, "duration": 237, "velocity": 99}, {"time": 92879, "pitch": 76, "duration": 263, "velocity": 99}, {"time": 93118, "pitch": 72, "duration": 341, "velocity": 101}, {"time": 93597, "pitch": 81, "duration": 248, "velocity": 99}, {"time": 93840, "pitch": 79, "duration": 446, "velocity": 107}, {"time": 94322, "pitch": 76, "duration": 409, "velocity": 104}, {"time": 94801, "pitch": 76, "duration": 164, "velocity": 107}, {"time": 95040, "pitch": 77, "duration": 252, "velocity": 111}, {"time": 95280, "pitch": 76, "duration": 236, "velocity": 90}, {"time": 95519, "pitch": 77, "duration": 212, "velocity": 106}, {"time": 95758, "pitch": 79, "duration": 786, "velocity": 109}, {"time": 96719, "pitch": 76, "duration": 102, "velocity": 97}, {"time": 96841, "pitch": 77, "duration": 132, "velocity": 108}, {"time": 96962, "pitch": 79, "duration": 148, "velocity": 108}, {"time": 97202, "pitch": 79, "duration": 130, "velocity": 96}, {"time": 97441, "pitch": 79, "duration": 134, "velocity": 106}, {"time": 97680, "pitch": 79, "duration": 185, "velocity": 93}, {"time": 97920, "pitch": 77, "duration": 268, "velocity": 104}, {"time": 98159, "pitch": 76, "duration": 224, "velocity": 100}, {"time": 98399, "pitch": 74, "duration": 216, "velocity": 101}, {"time": 98638, "pitch": 72, "duration": 231, "velocity": 92}, {"time": 98877, "pitch": 74, "duration": 299, "velocity": 98}, {"time": 99363, "pitch": 76, "duration": 258, "velocity": 112}, {"time": 99603, "pitch": 77, "duration": 507, "velocity": 109}, {"time": 100081, "pitch": 76, "duration": 232, "velocity": 101}, {"time": 100321, "pitch": 74, "duration": 243, "velocity": 99}, {"time": 100560, "pitch": 76, "duration": 249, "velocity": 98}, {"time": 100799, "pitch": 72, "duration": 439, "velocity": 101}, {"time": 101278, "pitch": 81, "duration": 199, "velocity": 98}, {"time": 101517, "pitch": 79, "duration": 430, "velocity": 106}, {"time": 102000, "pitch": 76, "duration": 362, "velocity": 104}, {"time": 102482, "pitch": 76, "duration": 239, "velocity": 104}, {"time": 102722, "pitch": 77, "duration": 244, "velocity": 111}, {"time": 102961, "pitch": 76, "duration": 219, "velocity": 94}, {"time": 103200, "pitch": 77, "duration": 291, "velocity": 101}, {"time": 103440, "pitch": 79, "duration": 482, "velocity": 106}, {"time": 103918, "pitch": 71, "duration": 454, "velocity": 96}, {"time": 104397, "pitch": 72, "duration": 2067, "velocity": 99}, {"time": 119999, "pitch": 76, "duration": 1138, "velocity": 114}, {"time": 121199, "pitch": 71, "duration": 376, "velocity": 101}, {"time": 121682, "pitch": 71, "duration": 288, "velocity": 105}, {"time": 121921, "pitch": 72, "duration": 1583, "velocity": 105}, {"time": 123843, "pitch": 74, "duration": 1183, "velocity": 101}, {"time": 125040, "pitch": 72, "duration": 490, "velocity": 95}, {"time": 125519, "pitch": 74, "duration": 275, "velocity": 99}, {"time": 125758, "pitch": 76, "duration": 485, "velocity": 89}, {"time": 126237, "pitch": 71, "duration": 82, "velocity": 101}, {"time": 126480, "pitch": 71, "duration": 1025, "velocity": 101}, {"time": 127680, "pitch": 72, "duration": 1017, "velocity": 114}, {"time": 128877, "pitch": 72, "duration": 235, "velocity": 110}, {"time": 129116, "pitch": 71, "duration": 239, "velocity": 102}, {"time": 129359, "pitch": 72, "duration": 240, "velocity": 106}, {"time": 129603, "pitch": 74, "duration": 470, "velocity": 111}, {"time": 130081, "pitch": 76, "duration": 487, "velocity": 97}, {"time": 130560, "pitch": 77, "duration": 475, "velocity": 101}, {"time": 131039, "pitch": 76, "duration": 238, "velocity": 101}, {"time": 131278, "pitch": 77, "duration": 238, "velocity": 101}, {"time": 131517, "pitch": 79, "duration": 147, "velocity": 107}, {"time": 131760, "pitch": 79, "duration": 152, "velocity": 109}, {"time": 132003, "pitch": 79, "duration": 139, "velocity": 103}, {"time": 132243, "pitch": 79, "duration": 175, "velocity": 107}, {"time": 132482, "pitch": 77, "duration": 246, "velocity": 111}, {"time": 132721, "pitch": 76, "duration": 239, "velocity": 103}, {"time": 132961, "pitch": 74, "duration": 274, "velocity": 102}, {"time": 133200, "pitch": 72, "duration": 232, "velocity": 100}, {"time": 133439, "pitch": 74, "duration": 434, "velocity": 111}, {"time": 133918, "pitch": 76, "duration": 180, "velocity": 106}, {"time": 134157, "pitch": 77, "duration": 489, "velocity": 113}, {"time": 134640, "pitch": 76, "duration": 245, "velocity": 103}, {"time": 134883, "pitch": 74, "duration": 236, "velocity": 99}, {"time": 135122, "pitch": 76, "duration": 264, "velocity": 99}, {"time": 135362, "pitch": 72, "duration": 289, "velocity": 101}, {"time": 135840, "pitch": 81, "duration": 245, "velocity": 99}, {"time": 136080, "pitch": 79, "duration": 442, "velocity": 107}, {"time": 136558, "pitch": 76, "duration": 409, "velocity": 104}, {"time": 137037, "pitch": 76, "duration": 165, "velocity": 107}, {"time": 137276, "pitch": 77, "duration": 256, "velocity": 111}, {"time": 137519, "pitch": 76, "duration": 241, "velocity": 90}, {"time": 137763, "pitch": 77, "duration": 212, "velocity": 106}, {"time": 138002, "pitch": 79, "duration": 785, "velocity": 109}, {"time": 138959, "pitch": 76, "duration": 100, "velocity": 97}, {"time": 139079, "pitch": 77, "duration": 131, "velocity": 108}, {"time": 139199, "pitch": 79, "duration": 147, "velocity": 108}, {"time": 139438, "pitch": 79, "duration": 131, "velocity": 96}, {"time": 139677, "pitch": 79, "duration": 136, "velocity": 106}, {"time": 139920, "pitch": 79, "duration": 188, "velocity": 93}, {"time": 140163, "pitch": 77, "duration": 269, "velocity": 104}, {"time": 140403, "pitch": 76, "duration": 223, "velocity": 100}, {"time": 140642, "pitch": 74, "duration": 217, "velocity": 101}, {"time": 140881, "pitch": 72, "duration": 232, "velocity": 92}, {"time": 141121, "pitch": 74, "duration": 294, "velocity": 98}, {"time": 141600, "pitch": 76, "duration": 257, "velocity": 112}, {"time": 141839, "pitch": 77, "duration": 507, "velocity": 109}, {"time": 142318, "pitch": 76, "duration": 231, "velocity": 101}, {"time": 142557, "pitch": 74, "duration": 247, "velocity": 99}, {"time": 142800, "pitch": 76, "duration": 253, "velocity": 98}, {"time": 143043, "pitch": 72, "duration": 439, "velocity": 101}, {"time": 143522, "pitch": 81, "duration": 198, "velocity": 98}, {"time": 143761, "pitch": 79, "duration": 427, "velocity": 106}, {"time": 144240, "pitch": 76, "duration": 420, "velocity": 104}, {"time": 144718, "pitch": 76, "duration": 239, "velocity": 104}, {"time": 144958, "pitch": 77, "duration": 244, "velocity": 111}, {"time": 145197, "pitch": 76, "duration": 219, "velocity": 94}, {"time": 145436, "pitch": 77, "duration": 296, "velocity": 101}, {"time": 145680, "pitch": 79, "duration": 486, "velocity": 106}, {"time": 146162, "pitch": 71, "duration": 454, "velocity": 96}, {"time": 146641, "pitch": 72, "duration": 2066, "velocity": 99}, {"time": 836, "pitch": 50, "duration": 61, "velocity": 89}, {"time": 866, "pitch": 52, "duration": 71, "velocity": 57}, {"time": 903, "pitch": 53, "duration": 75, "velocity": 74}, {"time": 942, "pitch": 55, "duration": 72, "velocity": 71}, {"time": 957, "pitch": 76, "duration": 1454, "velocity": 100}, {"time": 972, "pitch": 67, "duration": 3963, "velocity": 72}, {"time": 2400, "pitch": 74, "duration": 257, "velocity": 78}, {"time": 2640, "pitch": 72, "duration": 127, "velocity": 62}, {"time": 2879, "pitch": 72, "duration": 1300, "velocity": 65}, {"time": 4080, "pitch": 71, "duration": 431, "velocity": 75}, {"time": 4562, "pitch": 69, "duration": 221, "velocity": 69}, {"time": 4801, "pitch": 71, "duration": 239, "velocity": 83}, {"time": 5041, "pitch": 67, "duration": 143, "velocity": 81}, {"time": 5280, "pitch": 67, "duration": 717, "velocity": 81}, {"time": 5998, "pitch": 72, "duration": 119, "velocity": 81}, {"time": 6237, "pitch": 74, "duration": 264, "velocity": 81}, {"time": 6480, "pitch": 76, "duration": 146, "velocity": 91}, {"time": 6724, "pitch": 76, "duration": 582, "velocity": 95}, {"time": 7322, "pitch": 77, "duration": 153, "velocity": 93}, {"time": 7442, "pitch": 76, "duration": 236, "velocity": 84}, {"time": 7681, "pitch": 74, "duration": 695, "velocity": 80}, {"time": 8399, "pitch": 72, "duration": 115, "velocity": 87}, {"time": 8519, "pitch": 71, "duration": 114, "velocity": 69}, {"time": 8646, "pitch": 72, "duration": 1802, "velocity": 83}, {"time": 31466, "pitch": 43, "duration": 23, "velocity": 58}, {"time": 31468, "pitch": 45, "duration": 48, "velocity": 67}, {"time": 31474, "pitch": 47, "duration": 66, "velocity": 66}, {"time": 31479, "pitch": 48, "duration": 83, "velocity": 59}, {"time": 31487, "pitch": 50, "duration": 94, "velocity": 63}, {"time": 31536, "pitch": 52, "duration": 67, "velocity": 34}, {"time": 31556, "pitch": 53, "duration": 67, "velocity": 47}, {"time": 31574, "pitch": 55, "duration": 72, "velocity": 53}, {"time": 31591, "pitch": 57, "duration": 80, "velocity": 53}, {"time": 31605, "pitch": 58, "duration": 19, "velocity": 63}, {"time": 31609, "pitch": 59, "duration": 87, "velocity": 127}, {"time": 31626, "pitch": 60, "duration": 87, "velocity": 102}, {"time": 31639, "pitch": 61, "duration": 24, "velocity": 102}, {"time": 31654, "pitch": 62, "duration": 75, "velocity": 102}, {"time": 31682, "pitch": 69, "duration": 954, "velocity": 102}, {"time": 31682, "pitch": 76, "duration": 3784, "velocity": 102}, {"time": 31690, "pitch": 64, "duration": 52, "velocity": 102}, {"time": 32640, "pitch": 68, "duration": 953, "velocity": 92}, {"time": 33597, "pitch": 67, "duration": 961, "velocity": 109}, {"time": 34562, "pitch": 66, "duration": 881, "velocity": 127}, {"time": 35519, "pitch": 65, "duration": 1757, "velocity": 74}, {"time": 35519, "pitch": 69, "duration": 1785, "velocity": 104}, {"time": 35519, "pitch": 72, "duration": 1657, "velocity": 1}, {"time": 37222, "pitch": 50, "duration": 43, "velocity": 64}, {"time": 37233, "pitch": 52, "duration": 54, "velocity": 67}, {"time": 37245, "pitch": 53, "duration": 64, "velocity": 65}, {"time": 37257, "pitch": 55, "duration": 76, "velocity": 57}, {"time": 37272, "pitch": 57, "duration": 84, "velocity": 50}, {"time": 37301, "pitch": 59, "duration": 80, "velocity": 40}, {"time": 37323, "pitch": 60, "duration": 84, "velocity": 37}, {"time": 37345, "pitch": 62, "duration": 89, "velocity": 52}, {"time": 37371, "pitch": 64, "duration": 86, "velocity": 54}, {"time": 37409, "pitch": 65, "duration": 53, "velocity": 56}, {"time": 37441, "pitch": 67, "duration": 1561, "velocity": 60}, {"time": 37441, "pitch": 71, "duration": 1525, "velocity": 71}, {"time": 37441, "pitch": 74, "duration": 1532, "velocity": 75}, {"time": 38804, "pitch": 39, "duration": 101, "velocity": 60}, {"time": 38806, "pitch": 37, "duration": 78, "velocity": 64}, {"time": 38838, "pitch": 36, "duration": 69, "velocity": 48}, {"time": 38863, "pitch": 38, "duration": 66, "velocity": 31}, {"time": 38880, "pitch": 40, "duration": 71, "velocity": 53}, {"time": 38893, "pitch": 41, "duration": 82, "velocity": 58}, {"time": 38896, "pitch": 42, "duration": 43, "velocity": 46}, {"time": 38899, "pitch": 43, "duration": 104, "velocity": 67}, {"time": 38901, "pitch": 44, "duration": 13, "velocity": 62}, {"time": 38910, "pitch": 45, "duration": 110, "velocity": 68}, {"time": 38915, "pitch": 46, "duration": 77, "velocity": 67}, {"time": 38923, "pitch": 44, "duration": 44, "velocity": 68}, {"time": 38942, "pitch": 47, "duration": 100, "velocity": 49}, {"time": 38959, "pitch": 49, "duration": 19, "velocity": 55}, {"time": 38973, "pitch": 48, "duration": 95, "velocity": 47}, {"time": 38988, "pitch": 49, "duration": 34, "velocity": 73}, {"time": 38995, "pitch": 50, "duration": 93, "velocity": 48}, {"time": 39012, "pitch": 52, "duration": 112, "velocity": 52}, {"time": 39018, "pitch": 51, "duration": 25, "velocity": 75}, {"time": 39035, "pitch": 53, "duration": 135, "velocity": 53}, {"time": 39045, "pitch": 55, "duration": 257, "velocity": 65}, {"time": 39075, "pitch": 57, "duration": 288, "velocity": 52}, {"time": 39091, "pitch": 59, "duration": 285, "velocity": 59}, {"time": 39110, "pitch": 60, "duration": 274, "velocity": 65}, {"time": 39145, "pitch": 62, "duration": 230, "velocity": 54}, {"time": 39248, "pitch": 64, "duration": 130, "velocity": 15}, {"time": 39315, "pitch": 65, "duration": 62, "velocity": 22}, {"time": 39364, "pitch": 67, "duration": 982, "velocity": 59}, {"time": 39364, "pitch": 72, "duration": 1913, "velocity": 75}, {"time": 39364, "pitch": 76, "duration": 982, "velocity": 78}, {"time": 40321, "pitch": 65, "duration": 964, "velocity": 70}, {"time": 40321, "pitch": 69, "duration": 964, "velocity": 70}, {"time": 41278, "pitch": 67, "duration": 721, "velocity": 86}, {"time": 41278, "pitch": 71, "duration": 1919, "velocity": 98}, {"time": 41278, "pitch": 74, "duration": 1919, "velocity": 101}, {"time": 42000, "pitch": 68, "duration": 1200, "velocity": 70}, {"time": 43201, "pitch": 69, "duration": 475, "velocity": 104}, {"time": 43201, "pitch": 72, "duration": 445, "velocity": 111}, {"time": 43201, "pitch": 76, "duration": 389, "velocity": 107}, {"time": 43558, "pitch": 74, "duration": 53, "velocity": 46}, {"time": 43577, "pitch": 71, "duration": 71, "velocity": 67}, {"time": 43605, "pitch": 67, "duration": 73, "velocity": 72}, {"time": 43631, "pitch": 65, "duration": 70, "velocity": 72}, {"time": 43646, "pitch": 64, "duration": 88, "velocity": 76}, {"time": 43662, "pitch": 62, "duration": 95, "velocity": 87}, {"time": 43682, "pitch": 60, "duration": 82, "velocity": 71}, {"time": 43692, "pitch": 52, "duration": 32, "velocity": 33}, {"time": 43703, "pitch": 54, "duration": 36, "velocity": 32}, {"time": 43713, "pitch": 56, "duration": 42, "velocity": 37}, {"time": 43722, "pitch": 58, "duration": 50, "velocity": 49}, {"time": 43729, "pitch": 59, "duration": 20, "velocity": 56}, {"time": 43734, "pitch": 61, "duration": 78, "velocity": 67}, {"time": 43742, "pitch": 63, "duration": 89, "velocity": 74}, {"time": 43753, "pitch": 64, "duration": 98, "velocity": 80}, {"time": 43800, "pitch": 66, "duration": 74, "velocity": 42}, {"time": 43820, "pitch": 68, "duration": 82, "velocity": 58}, {"time": 43839, "pitch": 70, "duration": 80, "velocity": 56}, {"time": 43900, "pitch": 73, "duration": 34, "velocity": 53}, {"time": 43919, "pitch": 67, "duration": 1066, "velocity": 102}, {"time": 43919, "pitch": 71, "duration": 11, "velocity": 116}, {"time": 43919, "pitch": 74, "duration": 1077, "velocity": 107}, {"time": 44893, "pitch": 41, "duration": 32, "velocity": 33}, {"time": 44904, "pitch": 43, "duration": 36, "velocity": 32}, {"time": 44914, "pitch": 45, "duration": 43, "velocity": 37}, {"time": 44923, "pitch": 47, "duration": 51, "velocity": 49}, {"time": 44930, "pitch": 48, "duration": 64, "velocity": 56}, {"time": 44935, "pitch": 50, "duration": 79, "velocity": 67}, {"time": 44944, "pitch": 52, "duration": 90, "velocity": 74}, {"time": 44955, "pitch": 53, "duration": 99, "velocity": 80}, {"time": 45002, "pitch": 55, "duration": 75, "velocity": 42}, {"time": 45023, "pitch": 57, "duration": 83, "velocity": 58}, {"time": 45042, "pitch": 59, "duration": 81, "velocity": 56}, {"time": 45067, "pitch": 60, "duration": 67, "velocity": 51}, {"time": 45104, "pitch": 62, "duration": 34, "velocity": 53}, {"time": 45123, "pitch": 65, "duration": 714, "velocity": 82}, {"time": 45123, "pitch": 69, "duration": 714, "velocity": 87}, {"time": 45123, "pitch": 72, "duration": 714, "velocity": 83}, {"time": 45841, "pitch": 67, "duration": 1025, "velocity": 79}, {"time": 45841, "pitch": 71, "duration": 996, "velocity": 86}, {"time": 45841, "pitch": 74, "duration": 949, "velocity": 77}, {"time": 46742, "pitch": 47, "duration": 29, "velocity": 70}, {"time": 46755, "pitch": 48, "duration": 52, "velocity": 70}, {"time": 46769, "pitch": 50, "duration": 61, "velocity": 70}, {"time": 46778, "pitch": 52, "duration": 67, "velocity": 73}, {"time": 46788, "pitch": 72, "duration": 47, "velocity": 75}, {"time": 46798, "pitch": 53, "duration": 72, "velocity": 73}, {"time": 46806, "pitch": 69, "duration": 63, "velocity": 79}, {"time": 46832, "pitch": 55, "duration": 70, "velocity": 79}, {"time": 46850, "pitch": 65, "duration": 55, "velocity": 87}, {"time": 46860, "pitch": 57, "duration": 72, "velocity": 88}, {"time": 46866, "pitch": 64, "duration": 66, "velocity": 89}, {"time": 46869, "pitch": 62, "duration": 57, "velocity": 89}, {"time": 46886, "pitch": 59, "duration": 78, "velocity": 91}, {"time": 46912, "pitch": 60, "duration": 88, "velocity": 91}, {"time": 46942, "pitch": 62, "duration": 54, "velocity": 93}, {"time": 46961, "pitch": 64, "duration": 2, "velocity": 94}, {"time": 47004, "pitch": 65, "duration": 54, "velocity": 105}, {"time": 47037, "pitch": 67, "duration": 961, "velocity": 105}, {"time": 47037, "pitch": 72, "duration": 1919, "velocity": 105}, {"time": 47037, "pitch": 76, "duration": 961, "velocity": 105}, {"time": 48002, "pitch": 65, "duration": 954, "velocity": 70}, {"time": 48002, "pitch": 69, "duration": 954, "velocity": 70}, {"time": 48960, "pitch": 67, "duration": 678, "velocity": 86}, {"time": 48960, "pitch": 71, "duration": 1918, "velocity": 98}, {"time": 48960, "pitch": 74, "duration": 1918, "velocity": 101}, {"time": 49678, "pitch": 68, "duration": 1203, "velocity": 70}, {"time": 50882, "pitch": 69, "duration": 476, "velocity": 104}, {"time": 50882, "pitch": 72, "duration": 446, "velocity": 111}, {"time": 50882, "pitch": 76, "duration": 390, "velocity": 107}, {"time": 51239, "pitch": 74, "duration": 54, "velocity": 46}, {"time": 51258, "pitch": 71, "duration": 72, "velocity": 67}, {"time": 51287, "pitch": 67, "duration": 73, "velocity": 72}, {"time": 51313, "pitch": 65, "duration": 70, "velocity": 72}, {"time": 51327, "pitch": 41, "duration": 32, "velocity": 33}, {"time": 51328, "pitch": 64, "duration": 87, "velocity": 76}, {"time": 51338, "pitch": 43, "duration": 36, "velocity": 32}, {"time": 51344, "pitch": 62, "duration": 94, "velocity": 87}, {"time": 51348, "pitch": 45, "duration": 42, "velocity": 37}, {"time": 51357, "pitch": 47, "duration": 49, "velocity": 49}, {"time": 51364, "pitch": 48, "duration": 62, "velocity": 56}, {"time": 51364, "pitch": 60, "duration": 81, "velocity": 71}, {"time": 51369, "pitch": 50, "duration": 77, "velocity": 67}, {"time": 51374, "pitch": 52, "duration": 31, "velocity": 33}, {"time": 51385, "pitch": 54, "duration": 35, "velocity": 32}, {"time": 51394, "pitch": 56, "duration": 42, "velocity": 66}, {"time": 51403, "pitch": 58, "duration": 50, "velocity": 66}, {"time": 51410, "pitch": 59, "duration": 20, "velocity": 66}, {"time": 51415, "pitch": 61, "duration": 78, "velocity": 67}, {"time": 51423, "pitch": 63, "duration": 89, "velocity": 67}, {"time": 51434, "pitch": 64, "duration": 98, "velocity": 73}, {"time": 51481, "pitch": 66, "duration": 74, "velocity": 75}, {"time": 51501, "pitch": 68, "duration": 82, "velocity": 75}, {"time": 51520, "pitch": 70, "duration": 80, "velocity": 75}, {"time": 51581, "pitch": 73, "duration": 34, "velocity": 79}, {"time": 51600, "pitch": 67, "duration": 1061, "velocity": 110}, {"time": 51600, "pitch": 71, "duration": 11, "velocity": 116}, {"time": 51600, "pitch": 74, "duration": 1072, "velocity": 107}, {"time": 52570, "pitch": 41, "duration": 32, "velocity": 58}, {"time": 52581, "pitch": 43, "duration": 36, "velocity": 60}, {"time": 52591, "pitch": 45, "duration": 42, "velocity": 62}, {"time": 52600, "pitch": 47, "duration": 50, "velocity": 62}, {"time": 52607, "pitch": 48, "duration": 63, "velocity": 69}, {"time": 52612, "pitch": 50, "duration": 78, "velocity": 69}, {"time": 52620, "pitch": 52, "duration": 89, "velocity": 69}, {"time": 52631, "pitch": 53, "duration": 98, "velocity": 69}, {"time": 52678, "pitch": 55, "duration": 74, "velocity": 70}, {"time": 52698, "pitch": 57, "duration": 82, "velocity": 70}, {"time": 52717, "pitch": 59, "duration": 80, "velocity": 72}, {"time": 52742, "pitch": 60, "duration": 66, "velocity": 73}, {"time": 52778, "pitch": 62, "duration": 34, "velocity": 91}, {"time": 52797, "pitch": 65, "duration": 721, "velocity": 92}, {"time": 52797, "pitch": 69, "duration": 721, "velocity": 92}, {"time": 52797, "pitch": 72, "duration": 721, "velocity": 92}, {"time": 53522, "pitch": 67, "duration": 1193, "velocity": 78}, {"time": 53522, "pitch": 71, "duration": 1193, "velocity": 82}, {"time": 53522, "pitch": 74, "duration": 1193, "velocity": 72}, {"time": 54719, "pitch": 65, "duration": 1887, "velocity": 93}, {"time": 54719, "pitch": 69, "duration": 1875, "velocity": 99}, {"time": 54719, "pitch": 72, "duration": 3524, "velocity": 96}, {"time": 56641, "pitch": 64, "duration": 1760, "velocity": 75}, {"time": 56641, "pitch": 67, "duration": 1721, "velocity": 82}, {"time": 58264, "pitch": 71, "duration": 25, "velocity": 64}, {"time": 58304, "pitch": 65, "duration": 69, "velocity": 57}, {"time": 58343, "pitch": 62, "duration": 78, "velocity": 67}, {"time": 58384, "pitch": 60, "duration": 65, "velocity": 53}, {"time": 58408, "pitch": 59, "duration": 70, "velocity": 57}, {"time": 58434, "pitch": 57, "duration": 73, "velocity": 58}, {"time": 58450, "pitch": 55, "duration": 83, "velocity": 76}, {"time": 58481, "pitch": 53, "duration": 62, "velocity": 76}, {"time": 73806, "pitch": 57, "duration": 38, "velocity": 80}, {"time": 73825, "pitch": 59, "duration": 44, "velocity": 73}, {"time": 73850, "pitch": 60, "duration": 45, "velocity": 70}, {"time": 73871, "pitch": 62, "duration": 45, "velocity": 75}, {"time": 73892, "pitch": 64, "duration": 43, "velocity": 79}, {"time": 73913, "pitch": 65, "duration": 44, "velocity": 79}, {"time": 73933, "pitch": 67, "duration": 71, "velocity": 81}, {"time": 73949, "pitch": 69, "duration": 7281, "velocity": 71}, {"time": 74883, "pitch": 71, "duration": 928, "velocity": 78}, {"time": 75841, "pitch": 72, "duration": 994, "velocity": 73}, {"time": 76798, "pitch": 74, "duration": 935, "velocity": 71}, {"time": 77763, "pitch": 76, "duration": 998, "velocity": 81}, {"time": 78720, "pitch": 74, "duration": 959, "velocity": 104}, {"time": 79678, "pitch": 72, "duration": 1544, "velocity": 109}, {"time": 81226, "pitch": 50, "duration": 39, "velocity": 55}, {"time": 81239, "pitch": 52, "duration": 70, "velocity": 55}, {"time": 81252, "pitch": 53, "duration": 96, "velocity": 55}, {"time": 81264, "pitch": 55, "duration": 192, "velocity": 55}, {"time": 81269, "pitch": 57, "duration": 314, "velocity": 55}, {"time": 81276, "pitch": 59, "duration": 350, "velocity": 55}, {"time": 81294, "pitch": 60, "duration": 347, "velocity": 55}, {"time": 81333, "pitch": 62, "duration": 315, "velocity": 55}, {"time": 81514, "pitch": 64, "duration": 140, "velocity": 59}, {"time": 81600, "pitch": 69, "duration": 953, "velocity": 73}, {"time": 81600, "pitch": 76, "duration": 3585, "velocity": 66}, {"time": 81622, "pitch": 65, "duration": 37, "velocity": 43}, {"time": 82557, "pitch": 68, "duration": 961, "velocity": 110}, {"time": 83522, "pitch": 67, "duration": 953, "velocity": 106}, {"time": 84479, "pitch": 66, "duration": 706, "velocity": 122}, {"time": 85189, "pitch": 75, "duration": 52, "velocity": 70}, {"time": 85218, "pitch": 71, "duration": 124, "velocity": 70}, {"time": 85261, "pitch": 74, "duration": 66, "velocity": 68}, {"time": 85265, "pitch": 70, "duration": 32, "velocity": 68}, {"time": 85326, "pitch": 69, "duration": 55, "velocity": 67}, {"time": 85437, "pitch": 65, "duration": 1763, "velocity": 82}, {"time": 85437, "pitch": 69, "duration": 1754, "velocity": 98}, {"time": 85437, "pitch": 72, "duration": 1768, "velocity": 86}, {"time": 87137, "pitch": 50, "duration": 147, "velocity": 48}, {"time": 87145, "pitch": 52, "duration": 184, "velocity": 72}, {"time": 87147, "pitch": 47, "duration": 37, "velocity": 13}, {"time": 87148, "pitch": 48, "duration": 86, "velocity": 16}, {"time": 87161, "pitch": 53, "duration": 194, "velocity": 80}, {"time": 87181, "pitch": 55, "duration": 192, "velocity": 78}, {"time": 87228, "pitch": 57, "duration": 162, "velocity": 49}, {"time": 87285, "pitch": 59, "duration": 121, "velocity": 61}, {"time": 87321, "pitch": 60, "duration": 101, "velocity": 60}, {"time": 87356, "pitch": 67, "duration": 1430, "velocity": 67}, {"time": 87358, "pitch": 71, "duration": 1415, "velocity": 77}, {"time": 87360, "pitch": 62, "duration": 82, "velocity": 58}, {"time": 87363, "pitch": 74, "duration": 1421, "velocity": 71}, {"time": 87395, "pitch": 64, "duration": 55, "velocity": 48}, {"time": 88763, "pitch": 43, "duration": 145, "velocity": 55}, {"time": 88765, "pitch": 41, "duration": 114, "velocity": 54}, {"time": 88768, "pitch": 40, "duration": 79, "velocity": 52}, {"time": 88771, "pitch": 45, "duration": 175, "velocity": 60}, {"time": 88819, "pitch": 47, "duration": 162, "velocity": 38}, {"time": 88850, "pitch": 48, "duration": 169, "velocity": 61}, {"time": 88875, "pitch": 50, "duration": 193, "velocity": 71}, {"time": 88898, "pitch": 52, "duration": 229, "velocity": 72}, {"time": 88931, "pitch": 53, "duration": 249, "velocity": 57}, {"time": 88947, "pitch": 51, "duration": 28, "velocity": 72}, {"time": 88971, "pitch": 55, "duration": 256, "velocity": 59}, {"time": 89004, "pitch": 54, "duration": 37, "velocity": 71}, {"time": 89007, "pitch": 57, "duration": 242, "velocity": 58}, {"time": 89051, "pitch": 56, "duration": 46, "velocity": 70}, {"time": 89055, "pitch": 59, "duration": 205, "velocity": 52}, {"time": 89120, "pitch": 60, "duration": 154, "velocity": 45}, {"time": 89185, "pitch": 62, "duration": 98, "velocity": 36}, {"time": 89258, "pitch": 64, "duration": 29, "velocity": 23}, {"time": 89278, "pitch": 67, "duration": 956, "velocity": 63}, {"time": 89278, "pitch": 72, "duration": 1918, "velocity": 69}, {"time": 89278, "pitch": 76, "duration": 956, "velocity": 71}, {"time": 90238, "pitch": 65, "duration": 936, "velocity": 86}, {"time": 90238, "pitch": 69, "duration": 943, "velocity": 98}, {"time": 91203, "pitch": 67, "duration": 717, "velocity": 90}, {"time": 91203, "pitch": 71, "duration": 1678, "velocity": 75}, {"time": 91203, "pitch": 74, "duration": 1791, "velocity": 75}, {"time": 91921, "pitch": 68, "duration": 957, "velocity": 82}, {"time": 92803, "pitch": 47, "duration": 110, "velocity": 58}, {"time": 92811, "pitch": 43, "duration": 54, "velocity": 50}, {"time": 92813, "pitch": 48, "duration": 125, "velocity": 55}, {"time": 92822, "pitch": 45, "duration": 68, "velocity": 42}, {"time": 92867, "pitch": 50, "duration": 99, "velocity": 41}, {"time": 92877, "pitch": 52, "duration": 130, "velocity": 67}, {"time": 92891, "pitch": 53, "duration": 164, "velocity": 79}, {"time": 92906, "pitch": 55, "duration": 193, "velocity": 75}, {"time": 92928, "pitch": 57, "duration": 198, "velocity": 62}, {"time": 92955, "pitch": 59, "duration": 185, "velocity": 61}, {"time": 92996, "pitch": 60, "duration": 155, "velocity": 49}, {"time": 93048, "pitch": 62, "duration": 115, "velocity": 50}, {"time": 93105, "pitch": 76, "duration": 476, "velocity": 78}, {"time": 93106, "pitch": 69, "duration": 547, "velocity": 83}, {"time": 93108, "pitch": 72, "duration": 513, "velocity": 82}, {"time": 93127, "pitch": 64, "duration": 41, "velocity": 33}, {"time": 93149, "pitch": 65, "duration": 24, "velocity": 57}, {"time": 93572, "pitch": 74, "duration": 30, "velocity": 74}, {"time": 93578, "pitch": 71, "duration": 59, "velocity": 70}, {"time": 93589, "pitch": 67, "duration": 82, "velocity": 84}, {"time": 93611, "pitch": 65, "duration": 79, "velocity": 84}, {"time": 93623, "pitch": 57, "duration": 78, "velocity": 88}, {"time": 93627, "pitch": 64, "duration": 90, "velocity": 88}, {"time": 93642, "pitch": 55, "duration": 59, "velocity": 89}, {"time": 93643, "pitch": 62, "duration": 99, "velocity": 88}, {"time": 93660, "pitch": 60, "duration": 87, "velocity": 90}, {"time": 93679, "pitch": 59, "duration": 65, "velocity": 82}, {"time": 93705, "pitch": 57, "duration": 27, "velocity": 75}, {"time": 93749, "pitch": 59, "duration": 47, "velocity": 81}, {"time": 93751, "pitch": 62, "duration": 45, "velocity": 77}, {"time": 93772, "pitch": 64, "duration": 53, "velocity": 78}, {"time": 93800, "pitch": 67, "duration": 36, "velocity": 90}, {"time": 93840, "pitch": 67, "duration": 749, "velocity": 54}, {"time": 93840, "pitch": 71, "duration": 868, "velocity": 64}, {"time": 93840, "pitch": 74, "duration": 850, "velocity": 87}, {"time": 94721, "pitch": 72, "duration": 30, "velocity": 42}, {"time": 94726, "pitch": 69, "duration": 61, "velocity": 42}, {"time": 94736, "pitch": 65, "duration": 85, "velocity": 42}, {"time": 94760, "pitch": 64, "duration": 78, "velocity": 44}, {"time": 94777, "pitch": 62, "duration": 83, "velocity": 44}, {"time": 94794, "pitch": 60, "duration": 195, "velocity": 44}, {"time": 94812, "pitch": 59, "duration": 103, "velocity": 50}, {"time": 94827, "pitch": 57, "duration": 123, "velocity": 50}, {"time": 94846, "pitch": 55, "duration": 82, "velocity": 56}, {"time": 94951, "pitch": 59, "duration": 21, "velocity": 54}, {"time": 94953, "pitch": 62, "duration": 53, "velocity": 54}, {"time": 94973, "pitch": 64, "duration": 78, "velocity": 55}, {"time": 94988, "pitch": 65, "duration": 779, "velocity": 55}, {"time": 95001, "pitch": 67, "duration": 59, "velocity": 56}, {"time": 95015, "pitch": 69, "duration": 767, "velocity": 63}, {"time": 95029, "pitch": 71, "duration": 38, "velocity": 61}, {"time": 95048, "pitch": 72, "duration": 732, "velocity": 73}, {"time": 95758, "pitch": 67, "duration": 755, "velocity": 65}, {"time": 95758, "pitch": 71, "duration": 750, "velocity": 79}, {"time": 95758, "pitch": 74, "duration": 747, "velocity": 85}, {"time": 96471, "pitch": 41, "duration": 145, "velocity": 64}, {"time": 96473, "pitch": 43, "duration": 187, "velocity": 67}, {"time": 96475, "pitch": 38, "duration": 55, "velocity": 60}, {"time": 96477, "pitch": 40, "duration": 99, "velocity": 57}, {"time": 96494, "pitch": 45, "duration": 204, "velocity": 54}, {"time": 96536, "pitch": 47, "duration": 208, "velocity": 40}, {"time": 96573, "pitch": 48, "duration": 223, "velocity": 54}, {"time": 96610, "pitch": 50, "duration": 243, "velocity": 56}, {"time": 96648, "pitch": 52, "duration": 253, "velocity": 57}, {"time": 96690, "pitch": 53, "duration": 241, "velocity": 60}, {"time": 96734, "pitch": 55, "duration": 219, "velocity": 55}, {"time": 96784, "pitch": 57, "duration": 184, "velocity": 51}, {"time": 96842, "pitch": 59, "duration": 136, "velocity": 34}, {"time": 96891, "pitch": 60, "duration": 97, "velocity": 40}, {"time": 96932, "pitch": 62, "duration": 65, "velocity": 57}, {"time": 96934, "pitch": 76, "duration": 949, "velocity": 74}, {"time": 96938, "pitch": 67, "duration": 962, "velocity": 77}, {"time": 96940, "pitch": 72, "duration": 1914, "velocity": 79}, {"time": 96973, "pitch": 64, "duration": 27, "velocity": 54}, {"time": 97920, "pitch": 65, "duration": 957, "velocity": 60}, {"time": 97920, "pitch": 69, "duration": 956, "velocity": 82}, {"time": 98877, "pitch": 67, "duration": 725, "velocity": 78}, {"time": 98877, "pitch": 71, "duration": 1639, "velocity": 85}, {"time": 98877, "pitch": 74, "duration": 1799, "velocity": 66}, {"time": 99603, "pitch": 68, "duration": 717, "velocity": 93}, {"time": 100478, "pitch": 45, "duration": 131, "velocity": 62}, {"time": 100486, "pitch": 43, "duration": 93, "velocity": 56}, {"time": 100491, "pitch": 47, "duration": 148, "velocity": 65}, {"time": 100502, "pitch": 41, "duration": 50, "velocity": 48}, {"time": 100528, "pitch": 48, "duration": 141, "velocity": 59}, {"time": 100551, "pitch": 50, "duration": 149, "velocity": 78}, {"time": 100572, "pitch": 52, "duration": 156, "velocity": 71}, {"time": 100600, "pitch": 53, "duration": 156, "velocity": 58}, {"time": 100629, "pitch": 55, "duration": 154, "velocity": 58}, {"time": 100658, "pitch": 57, "duration": 154, "velocity": 54}, {"time": 100688, "pitch": 59, "duration": 141, "velocity": 50}, {"time": 100716, "pitch": 60, "duration": 127, "velocity": 50}, {"time": 100744, "pitch": 62, "duration": 109, "velocity": 50}, {"time": 100771, "pitch": 64, "duration": 88, "velocity": 51}, {"time": 100774, "pitch": 69, "duration": 542, "velocity": 73}, {"time": 100776, "pitch": 76, "duration": 455, "velocity": 69}, {"time": 100778, "pitch": 72, "duration": 506, "velocity": 78}, {"time": 100807, "pitch": 65, "duration": 54, "velocity": 63}, {"time": 101213, "pitch": 74, "duration": 48, "velocity": 43}, {"time": 101234, "pitch": 71, "duration": 64, "velocity": 57}, {"time": 101258, "pitch": 67, "duration": 78, "velocity": 57}, {"time": 101282, "pitch": 65, "duration": 70, "velocity": 57}, {"time": 101302, "pitch": 64, "duration": 67, "velocity": 57}, {"time": 101317, "pitch": 62, "duration": 72, "velocity": 59}, {"time": 101334, "pitch": 60, "duration": 80, "velocity": 59}, {"time": 101350, "pitch": 59, "duration": 139, "velocity": 59}, {"time": 101417, "pitch": 47, "duration": 64, "velocity": 62}, {"time": 101419, "pitch": 45, "duration": 45, "velocity": 62}, {"time": 101421, "pitch": 48, "duration": 75, "velocity": 62}, {"time": 101424, "pitch": 49, "duration": 11, "velocity": 65}, {"time": 101426, "pitch": 50, "duration": 87, "velocity": 65}, {"time": 101427, "pitch": 51, "duration": 24, "velocity": 65}, {"time": 101433, "pitch": 52, "duration": 104, "velocity": 75}, {"time": 101436, "pitch": 54, "duration": 18, "velocity": 75}, {"time": 101465, "pitch": 53, "duration": 96, "velocity": 67}, {"time": 101475, "pitch": 55, "duration": 11, "velocity": 67}, {"time": 101486, "pitch": 57, "duration": 1, "velocity": 67}, {"time": 101505, "pitch": 59, "duration": 92, "velocity": 67}, {"time": 101517, "pitch": 67, "duration": 868, "velocity": 67}, {"time": 101517, "pitch": 71, "duration": 847, "velocity": 67}, {"time": 101517, "pitch": 74, "duration": 817, "velocity": 67}, {"time": 101544, "pitch": 60, "duration": 66, "velocity": 67}, {"time": 101578, "pitch": 62, "duration": 33, "velocity": 65}, {"time": 102410, "pitch": 72, "duration": 34, "velocity": 46}, {"time": 102422, "pitch": 69, "duration": 59, "velocity": 46}, {"time": 102450, "pitch": 65, "duration": 60, "velocity": 49}, {"time": 102469, "pitch": 64, "duration": 56, "velocity": 51}, {"time": 102482, "pitch": 62, "duration": 61, "velocity": 52}, {"time": 102496, "pitch": 60, "duration": 65, "velocity": 57}, {"time": 102512, "pitch": 59, "duration": 73, "velocity": 58}, {"time": 102521, "pitch": 53, "duration": 64, "velocity": 58}, {"time": 102528, "pitch": 57, "duration": 126, "velocity": 58}, {"time": 102579, "pitch": 55, "duration": 15, "velocity": 64}, {"time": 102586, "pitch": 59, "duration": 15, "velocity": 64}, {"time": 102610, "pitch": 62, "duration": 59, "velocity": 64}, {"time": 102617, "pitch": 60, "duration": 29, "velocity": 64}, {"time": 102619, "pitch": 64, "duration": 111, "velocity": 64}, {"time": 102640, "pitch": 67, "duration": 126, "velocity": 75}, {"time": 102653, "pitch": 69, "duration": 33, "velocity": 66}, {"time": 102670, "pitch": 71, "duration": 113, "velocity": 66}, {"time": 102722, "pitch": 65, "duration": 772, "velocity": 104}, {"time": 102722, "pitch": 69, "duration": 667, "velocity": 91}, {"time": 102722, "pitch": 72, "duration": 663, "velocity": 88}, {"time": 103440, "pitch": 67, "duration": 1175, "velocity": 85}, {"time": 103440, "pitch": 71, "duration": 1214, "velocity": 81}, {"time": 103440, "pitch": 74, "duration": 1219, "velocity": 80}, {"time": 104218, "pitch": 38, "duration": 65, "velocity": 57}, {"time": 104224, "pitch": 36, "duration": 17, "velocity": 42}, {"time": 104233, "pitch": 40, "duration": 79, "velocity": 63}, {"time": 104257, "pitch": 41, "duration": 81, "velocity": 56}, {"time": 104287, "pitch": 43, "duration": 76, "velocity": 57}, {"time": 104313, "pitch": 45, "duration": 72, "velocity": 67}, {"time": 104339, "pitch": 47, "duration": 67, "velocity": 67}, {"time": 104361, "pitch": 48, "duration": 68, "velocity": 68}, {"time": 104386, "pitch": 50, "duration": 64, "velocity": 70}, {"time": 104407, "pitch": 52, "duration": 66, "velocity": 71}, {"time": 104430, "pitch": 53, "duration": 63, "velocity": 72}, {"time": 104451, "pitch": 55, "duration": 65, "velocity": 72}, {"time": 104474, "pitch": 57, "duration": 59, "velocity": 71}, {"time": 104495, "pitch": 59, "duration": 59, "velocity": 71}, {"time": 104517, "pitch": 60, "duration": 57, "velocity": 71}, {"time": 104536, "pitch": 62, "duration": 58, "velocity": 70}, {"time": 104566, "pitch": 64, "duration": 44, "velocity": 58}, {"time": 104589, "pitch": 65, "duration": 32, "velocity": 60}, {"time": 104626, "pitch": 69, "duration": 12, "velocity": 73}, {"time": 104636, "pitch": 67, "duration": 3845, "velocity": 50}, {"time": 104636, "pitch": 72, "duration": 1904, "velocity": 47}, {"time": 104636, "pitch": 76, "duration": 1833, "velocity": 51}, {"time": 106559, "pitch": 71, "duration": 1952, "velocity": 52}, {"time": 106559, "pitch": 74, "duration": 1969, "velocity": 63}, {"time": 108481, "pitch": 69, "duration": 1332, "velocity": 70}, {"time": 108481, "pitch": 72, "duration": 1343, "velocity": 67}, {"time": 108481, "pitch": 76, "duration": 1387, "velocity": 53}, {"time": 109917, "pitch": 67, "duration": 64, "velocity": 78}, {"time": 109917, "pitch": 71, "duration": 64, "velocity": 99}, {"time": 109917, "pitch": 76, "duration": 75, "velocity": 70}, {"time": 110160, "pitch": 65, "duration": 901, "velocity": 89}, {"time": 110160, "pitch": 69, "duration": 904, "velocity": 102}, {"time": 110160, "pitch": 72, "duration": 912, "velocity": 92}, {"time": 110943, "pitch": 36, "duration": 66, "velocity": 49}, {"time": 110959, "pitch": 38, "duration": 68, "velocity": 49}, {"time": 110968, "pitch": 40, "duration": 81, "velocity": 49}, {"time": 110975, "pitch": 41, "duration": 97, "velocity": 49}, {"time": 111031, "pitch": 43, "duration": 62, "velocity": 51}, {"time": 111052, "pitch": 45, "duration": 62, "velocity": 51}, {"time": 111073, "pitch": 47, "duration": 63, "velocity": 52}, {"time": 111091, "pitch": 48, "duration": 67, "velocity": 52}, {"time": 111117, "pitch": 50, "duration": 62, "velocity": 52}, {"time": 111140, "pitch": 52, "duration": 62, "velocity": 54}, {"time": 111161, "pitch": 53, "duration": 67, "velocity": 54}, {"time": 111184, "pitch": 55, "duration": 66, "velocity": 54}, {"time": 111206, "pitch": 57, "duration": 66, "velocity": 57}, {"time": 111233, "pitch": 59, "duration": 57, "velocity": 58}, {"time": 111262, "pitch": 60, "duration": 46, "velocity": 62}, {"time": 111279, "pitch": 62, "duration": 56, "velocity": 64}, {"time": 111300, "pitch": 64, "duration": 50, "velocity": 69}, {"time": 111332, "pitch": 65, "duration": 27, "velocity": 81}, {"time": 111360, "pitch": 67, "duration": 275, "velocity": 87}, {"time": 111360, "pitch": 71, "duration": 271, "velocity": 87}, {"time": 111360, "pitch": 74, "duration": 267, "velocity": 87}, {"time": 111839, "pitch": 67, "duration": 361, "velocity": 75}, {"time": 111839, "pitch": 71, "duration": 310, "velocity": 80}, {"time": 111839, "pitch": 74, "duration": 256, "velocity": 73}, {"time": 112055, "pitch": 69, "duration": 83, "velocity": 68}, {"time": 112068, "pitch": 72, "duration": 20, "velocity": 57}, {"time": 112092, "pitch": 65, "duration": 108, "velocity": 80}, {"time": 112120, "pitch": 64, "duration": 103, "velocity": 74}, {"time": 112157, "pitch": 62, "duration": 71, "velocity": 68}, {"time": 112318, "pitch": 67, "duration": 3405, "velocity": 42}, {"time": 112318, "pitch": 72, "duration": 1712, "velocity": 61}, {"time": 112318, "pitch": 76, "duration": 1902, "velocity": 96}, {"time": 114246, "pitch": 71, "duration": 1732, "velocity": 66}, {"time": 114252, "pitch": 74, "duration": 1727, "velocity": 70}, {"time": 115905, "pitch": 45, "duration": 28, "velocity": 49}, {"time": 115912, "pitch": 47, "duration": 48, "velocity": 49}, {"time": 115930, "pitch": 48, "duration": 54, "velocity": 49}, {"time": 115952, "pitch": 50, "duration": 55, "velocity": 51}, {"time": 115971, "pitch": 52, "duration": 52, "velocity": 54}, {"time": 115994, "pitch": 53, "duration": 51, "velocity": 55}, {"time": 116012, "pitch": 55, "duration": 52, "velocity": 55}, {"time": 116034, "pitch": 57, "duration": 51, "velocity": 56}, {"time": 116052, "pitch": 59, "duration": 51, "velocity": 57}, {"time": 116070, "pitch": 60, "duration": 53, "velocity": 57}, {"time": 116093, "pitch": 62, "duration": 47, "velocity": 59}, {"time": 116111, "pitch": 64, "duration": 48, "velocity": 62}, {"time": 116130, "pitch": 67, "duration": 22, "velocity": 66}, {"time": 116137, "pitch": 65, "duration": 44, "velocity": 64}, {"time": 116158, "pitch": 67, "duration": 43, "velocity": 78}, {"time": 116162, "pitch": 69, "duration": 1410, "velocity": 79}, {"time": 116162, "pitch": 72, "duration": 1428, "velocity": 62}, {"time": 116162, "pitch": 76, "duration": 1432, "velocity": 45}, {"time": 117606, "pitch": 71, "duration": 86, "velocity": 73}, {"time": 117606, "pitch": 76, "duration": 86, "velocity": 73}, {"time": 117609, "pitch": 67, "duration": 80, "velocity": 72}, {"time": 117837, "pitch": 65, "duration": 759, "velocity": 80}, {"time": 117837, "pitch": 69, "duration": 781, "velocity": 96}, {"time": 117837, "pitch": 72, "duration": 790, "velocity": 86}, {"time": 118495, "pitch": 38, "duration": 42, "velocity": 44}, {"time": 118501, "pitch": 40, "duration": 69, "velocity": 44}, {"time": 118527, "pitch": 41, "duration": 69, "velocity": 44}, {"time": 118548, "pitch": 43, "duration": 72, "velocity": 45}, {"time": 118580, "pitch": 45, "duration": 62, "velocity": 45}, {"time": 118605, "pitch": 47, "duration": 62, "velocity": 45}, {"time": 118626, "pitch": 48, "duration": 65, "velocity": 45}, {"time": 118652, "pitch": 50, "duration": 64, "velocity": 45}, {"time": 118674, "pitch": 52, "duration": 67, "velocity": 45}, {"time": 118697, "pitch": 53, "duration": 77, "velocity": 45}, {"time": 118726, "pitch": 55, "duration": 77, "velocity": 46}, {"time": 118754, "pitch": 57, "duration": 80, "velocity": 46}, {"time": 118788, "pitch": 59, "duration": 82, "velocity": 46}, {"time": 118817, "pitch": 60, "duration": 97, "velocity": 45}, {"time": 118855, "pitch": 62, "duration": 100, "velocity": 45}, {"time": 118902, "pitch": 64, "duration": 76, "velocity": 46}, {"time": 118951, "pitch": 65, "duration": 62, "velocity": 47}, {"time": 119042, "pitch": 67, "duration": 256, "velocity": 26}, {"time": 119042, "pitch": 71, "duration": 269, "velocity": 76}, {"time": 119042, "pitch": 74, "duration": 253, "velocity": 50}, {"time": 119520, "pitch": 65, "duration": 261, "velocity": 70}, {"time": 119520, "pitch": 69, "duration": 246, "velocity": 80}, {"time": 119520, "pitch": 74, "duration": 239, "velocity": 63}, {"time": 119999, "pitch": 64, "duration": 1920, "velocity": 66}, {"time": 119999, "pitch": 67, "duration": 1929, "velocity": 73}, {"time": 119999, "pitch": 71, "duration": 1949, "velocity": 70}, {"time": 121921, "pitch": 65, "duration": 1918, "velocity": 67}, {"time": 121921, "pitch": 72, "duration": 1918, "velocity": 51}, {"time": 123843, "pitch": 62, "duration": 1911, "velocity": 83}, {"time": 123843, "pitch": 69, "duration": 1911, "velocity": 88}, {"time": 125758, "pitch": 64, "duration": 1545, "velocity": 14}, {"time": 125758, "pitch": 71, "duration": 1683, "velocity": 49}, {"time": 126213, "pitch": 82, "duration": 89, "velocity": 82}, {"time": 126237, "pitch": 83, "duration": 178, "velocity": 82}, {"time": 126472, "pitch": 82, "duration": 57, "velocity": 82}, {"time": 126480, "pitch": 83, "duration": 481, "velocity": 82}, {"time": 126962, "pitch": 76, "duration": 478, "velocity": 82}, {"time": 127358, "pitch": 37, "duration": 80, "velocity": 37}, {"time": 127402, "pitch": 39, "duration": 84, "velocity": 37}, {"time": 127452, "pitch": 42, "duration": 87, "velocity": 37}, {"time": 127493, "pitch": 44, "duration": 76, "velocity": 38}, {"time": 127525, "pitch": 46, "duration": 72, "velocity": 41}, {"time": 127541, "pitch": 45, "duration": 62, "velocity": 42}, {"time": 127548, "pitch": 47, "duration": 77, "velocity": 50}, {"time": 127549, "pitch": 43, "duration": 28, "velocity": 50}, {"time": 127567, "pitch": 48, "duration": 79, "velocity": 54}, {"time": 127571, "pitch": 49, "duration": 60, "velocity": 55}, {"time": 127585, "pitch": 50, "duration": 84, "velocity": 57}, {"time": 127598, "pitch": 51, "duration": 57, "velocity": 57}, {"time": 127604, "pitch": 52, "duration": 82, "velocity": 59}, {"time": 127626, "pitch": 53, "duration": 81, "velocity": 61}, {"time": 127647, "pitch": 54, "duration": 37, "velocity": 69}, {"time": 127649, "pitch": 55, "duration": 78, "velocity": 70}, {"time": 127679, "pitch": 56, "duration": 24, "velocity": 73}, {"time": 127680, "pitch": 65, "duration": 1779, "velocity": 73}, {"time": 127680, "pitch": 69, "duration": 1822, "velocity": 73}, {"time": 127680, "pitch": 72, "duration": 1826, "velocity": 73}, {"time": 129361, "pitch": 44, "duration": 53, "velocity": 42}, {"time": 129368, "pitch": 46, "duration": 83, "velocity": 42}, {"time": 129412, "pitch": 45, "duration": 38, "velocity": 42}, {"time": 129425, "pitch": 49, "duration": 72, "velocity": 43}, {"time": 129428, "pitch": 47, "duration": 53, "velocity": 43}, {"time": 129442, "pitch": 48, "duration": 72, "velocity": 45}, {"time": 129452, "pitch": 50, "duration": 96, "velocity": 47}, {"time": 129465, "pitch": 51, "duration": 69, "velocity": 48}, {"time": 129467, "pitch": 52, "duration": 116, "velocity": 48}, {"time": 129486, "pitch": 53, "duration": 127, "velocity": 48}, {"time": 129515, "pitch": 55, "duration": 123, "velocity": 54}, {"time": 129549, "pitch": 54, "duration": 19, "velocity": 66}, {"time": 129555, "pitch": 57, "duration": 111, "velocity": 69}, {"time": 129591, "pitch": 59, "duration": 98, "velocity": 72}, {"time": 129603, "pitch": 67, "duration": 1533, "velocity": 74}, {"time": 129603, "pitch": 71, "duration": 1465, "velocity": 74}, {"time": 129603, "pitch": 74, "duration": 1476, "velocity": 74}, {"time": 131006, "pitch": 43, "duration": 85, "velocity": 26}, {"time": 131012, "pitch": 45, "duration": 122, "velocity": 26}, {"time": 131017, "pitch": 47, "duration": 151, "velocity": 26}, {"time": 131022, "pitch": 48, "duration": 182, "velocity": 26}, {"time": 131099, "pitch": 50, "duration": 139, "velocity": 24}, {"time": 131149, "pitch": 52, "duration": 126, "velocity": 25}, {"time": 131186, "pitch": 53, "duration": 129, "velocity": 28}, {"time": 131226, "pitch": 55, "duration": 137, "velocity": 28}, {"time": 131266, "pitch": 57, "duration": 150, "velocity": 30}, {"time": 131304, "pitch": 59, "duration": 158, "velocity": 32}, {"time": 131358, "pitch": 60, "duration": 149, "velocity": 34}, {"time": 131410, "pitch": 62, "duration": 129, "velocity": 34}, {"time": 131468, "pitch": 64, "duration": 87, "velocity": 38}, {"time": 131517, "pitch": 67, "duration": 990, "velocity": 59}, {"time": 131517, "pitch": 72, "duration": 1951, "velocity": 75}, {"time": 131517, "pitch": 76, "duration": 990, "velocity": 78}, {"time": 132511, "pitch": 65, "duration": 964, "velocity": 70}, {"time": 132511, "pitch": 69, "duration": 964, "velocity": 70}, {"time": 133439, "pitch": 67, "duration": 667, "velocity": 86}, {"time": 133439, "pitch": 71, "duration": 1919, "velocity": 98}, {"time": 133439, "pitch": 74, "duration": 1919, "velocity": 101}, {"time": 134157, "pitch": 68, "duration": 1204, "velocity": 70}, {"time": 135362, "pitch": 69, "duration": 475, "velocity": 104}, {"time": 135362, "pitch": 72, "duration": 445, "velocity": 111}, {"time": 135362, "pitch": 76, "duration": 390, "velocity": 107}, {"time": 135719, "pitch": 74, "duration": 54, "velocity": 46}, {"time": 135738, "pitch": 71, "duration": 71, "velocity": 67}, {"time": 135767, "pitch": 67, "duration": 72, "velocity": 72}, {"time": 135793, "pitch": 65, "duration": 69, "velocity": 72}, {"time": 135807, "pitch": 64, "duration": 88, "velocity": 76}, {"time": 135823, "pitch": 62, "duration": 95, "velocity": 87}, {"time": 135843, "pitch": 60, "duration": 82, "velocity": 71}, {"time": 135853, "pitch": 52, "duration": 32, "velocity": 33}, {"time": 135864, "pitch": 54, "duration": 36, "velocity": 32}, {"time": 135874, "pitch": 56, "duration": 42, "velocity": 37}, {"time": 135883, "pitch": 58, "duration": 50, "velocity": 49}, {"time": 135890, "pitch": 59, "duration": 20, "velocity": 56}, {"time": 135895, "pitch": 61, "duration": 78, "velocity": 67}, {"time": 135903, "pitch": 63, "duration": 89, "velocity": 74}, {"time": 135914, "pitch": 64, "duration": 98, "velocity": 80}, {"time": 135961, "pitch": 66, "duration": 74, "velocity": 42}, {"time": 135981, "pitch": 68, "duration": 82, "velocity": 58}, {"time": 136000, "pitch": 70, "duration": 80, "velocity": 56}, {"time": 136061, "pitch": 73, "duration": 34, "velocity": 53}, {"time": 136080, "pitch": 67, "duration": 1061, "velocity": 102}, {"time": 136080, "pitch": 71, "duration": 11, "velocity": 116}, {"time": 136080, "pitch": 74, "duration": 1072, "velocity": 107}, {"time": 137050, "pitch": 41, "duration": 32, "velocity": 29}, {"time": 137061, "pitch": 43, "duration": 36, "velocity": 29}, {"time": 137071, "pitch": 45, "duration": 42, "velocity": 29}, {"time": 137080, "pitch": 47, "duration": 50, "velocity": 29}, {"time": 137087, "pitch": 48, "duration": 63, "velocity": 29}, {"time": 137092, "pitch": 50, "duration": 78, "velocity": 29}, {"time": 137100, "pitch": 52, "duration": 89, "velocity": 29}, {"time": 137111, "pitch": 53, "duration": 98, "velocity": 30}, {"time": 137158, "pitch": 55, "duration": 74, "velocity": 42}, {"time": 137178, "pitch": 57, "duration": 81, "velocity": 43}, {"time": 137197, "pitch": 59, "duration": 79, "velocity": 43}, {"time": 137222, "pitch": 60, "duration": 65, "velocity": 44}, {"time": 137257, "pitch": 62, "duration": 35, "velocity": 44}, {"time": 137276, "pitch": 65, "duration": 722, "velocity": 82}, {"time": 137276, "pitch": 69, "duration": 722, "velocity": 87}, {"time": 137276, "pitch": 72, "duration": 722, "velocity": 83}, {"time": 138002, "pitch": 67, "duration": 1025, "velocity": 79}, {"time": 138002, "pitch": 71, "duration": 996, "velocity": 86}, {"time": 138002, "pitch": 74, "duration": 949, "velocity": 77}, {"time": 138903, "pitch": 47, "duration": 29, "velocity": 39}, {"time": 138904, "pitch": 48, "duration": 52, "velocity": 39}, {"time": 138914, "pitch": 50, "duration": 61, "velocity": 39}, {"time": 138927, "pitch": 52, "duration": 67, "velocity": 39}, {"time": 138943, "pitch": 53, "duration": 72, "velocity": 39}, {"time": 138949, "pitch": 72, "duration": 47, "velocity": 39}, {"time": 138965, "pitch": 55, "duration": 70, "velocity": 39}, {"time": 138967, "pitch": 69, "duration": 63, "velocity": 39}, {"time": 138985, "pitch": 57, "duration": 72, "velocity": 49}, {"time": 139005, "pitch": 59, "duration": 78, "velocity": 53}, {"time": 139011, "pitch": 65, "duration": 55, "velocity": 53}, {"time": 139026, "pitch": 60, "duration": 88, "velocity": 56}, {"time": 139050, "pitch": 62, "duration": 57, "velocity": 61}, {"time": 139082, "pitch": 64, "duration": 2, "velocity": 64}, {"time": 139122, "pitch": 65, "duration": 54, "velocity": 66}, {"time": 139199, "pitch": 67, "duration": 960, "velocity": 42}, {"time": 139199, "pitch": 72, "duration": 1918, "velocity": 76}, {"time": 139199, "pitch": 76, "duration": 960, "velocity": 65}, {"time": 140163, "pitch": 65, "duration": 954, "velocity": 70}, {"time": 140163, "pitch": 69, "duration": 954, "velocity": 70}, {"time": 141121, "pitch": 67, "duration": 717, "velocity": 86}, {"time": 141121, "pitch": 71, "duration": 1918, "velocity": 98}, {"time": 141121, "pitch": 74, "duration": 1918, "velocity": 101}, {"time": 141839, "pitch": 68, "duration": 960, "velocity": 70}, {"time": 143043, "pitch": 69, "duration": 476, "velocity": 104}, {"time": 143043, "pitch": 72, "duration": 446, "velocity": 111}, {"time": 143043, "pitch": 76, "duration": 390, "velocity": 107}, {"time": 143400, "pitch": 74, "duration": 54, "velocity": 46}, {"time": 143419, "pitch": 71, "duration": 72, "velocity": 67}, {"time": 143448, "pitch": 67, "duration": 73, "velocity": 72}, {"time": 143474, "pitch": 65, "duration": 70, "velocity": 72}, {"time": 143488, "pitch": 41, "duration": 32, "velocity": 33}, {"time": 143489, "pitch": 64, "duration": 88, "velocity": 76}, {"time": 143499, "pitch": 43, "duration": 36, "velocity": 32}, {"time": 143505, "pitch": 62, "duration": 94, "velocity": 87}, {"time": 143509, "pitch": 45, "duration": 42, "velocity": 37}, {"time": 143518, "pitch": 47, "duration": 50, "velocity": 49}, {"time": 143525, "pitch": 48, "duration": 63, "velocity": 56}, {"time": 143525, "pitch": 60, "duration": 81, "velocity": 71}, {"time": 143530, "pitch": 50, "duration": 77, "velocity": 67}, {"time": 143535, "pitch": 52, "duration": 32, "velocity": 33}, {"time": 143546, "pitch": 54, "duration": 36, "velocity": 32}, {"time": 143556, "pitch": 56, "duration": 42, "velocity": 37}, {"time": 143565, "pitch": 58, "duration": 49, "velocity": 49}, {"time": 143572, "pitch": 59, "duration": 20, "velocity": 56}, {"time": 143577, "pitch": 61, "duration": 77, "velocity": 67}, {"time": 143585, "pitch": 63, "duration": 88, "velocity": 74}, {"time": 143596, "pitch": 64, "duration": 97, "velocity": 80}, {"time": 143642, "pitch": 66, "duration": 74, "velocity": 42}, {"time": 143662, "pitch": 68, "duration": 82, "velocity": 58}, {"time": 143681, "pitch": 70, "duration": 80, "velocity": 56}, {"time": 143742, "pitch": 73, "duration": 34, "velocity": 53}, {"time": 143761, "pitch": 67, "duration": 1061, "velocity": 110}, {"time": 143761, "pitch": 71, "duration": 11, "velocity": 116}, {"time": 143761, "pitch": 74, "duration": 1072, "velocity": 107}, {"time": 144731, "pitch": 41, "duration": 32, "velocity": 32}, {"time": 144742, "pitch": 43, "duration": 36, "velocity": 32}, {"time": 144752, "pitch": 45, "duration": 42, "velocity": 32}, {"time": 144761, "pitch": 47, "duration": 50, "velocity": 33}, {"time": 144768, "pitch": 48, "duration": 63, "velocity": 33}, {"time": 144773, "pitch": 50, "duration": 78, "velocity": 33}, {"time": 144781, "pitch": 52, "duration": 89, "velocity": 34}, {"time": 144792, "pitch": 53, "duration": 98, "velocity": 38}, {"time": 144839, "pitch": 55, "duration": 74, "velocity": 44}, {"time": 144859, "pitch": 57, "duration": 82, "velocity": 46}, {"time": 144878, "pitch": 59, "duration": 80, "velocity": 47}, {"time": 144903, "pitch": 60, "duration": 66, "velocity": 50}, {"time": 144939, "pitch": 62, "duration": 34, "velocity": 52}, {"time": 144958, "pitch": 65, "duration": 717, "velocity": 82}, {"time": 144958, "pitch": 69, "duration": 717, "velocity": 87}, {"time": 144958, "pitch": 72, "duration": 717, "velocity": 83}, {"time": 145680, "pitch": 67, "duration": 1196, "velocity": 78}, {"time": 145680, "pitch": 71, "duration": 1196, "velocity": 82}, {"time": 145680, "pitch": 74, "duration": 1196, "velocity": 72}, {"time": 146880, "pitch": 65, "duration": 1887, "velocity": 93}, {"time": 146880, "pitch": 69, "duration": 1875, "velocity": 99}, {"time": 146880, "pitch": 72, "duration": 5666, "velocity": 96}, {"time": 148807, "pitch": 64, "duration": 3792, "velocity": 93}, {"time": 148807, "pitch": 67, "duration": 3792, "velocity": 99}, {"time": 877, "pitch": 55, "duration": 360, "velocity": 99}, {"time": 905, "pitch": 60, "duration": 350, "velocity": 114}, {"time": 957, "pitch": 64, "duration": 353, "velocity": 120}, {"time": 1443, "pitch": 55, "duration": 162, "velocity": 99}, {"time": 1444, "pitch": 60, "duration": 159, "velocity": 94}, {"time": 1445, "pitch": 64, "duration": 152, "velocity": 102}, {"time": 1682, "pitch": 55, "duration": 39, "velocity": 86}, {"time": 1683, "pitch": 60, "duration": 30, "velocity": 76}, {"time": 1684, "pitch": 64, "duration": 42, "velocity": 84}, {"time": 1802, "pitch": 64, "duration": 86, "velocity": 92}, {"time": 1803, "pitch": 60, "duration": 62, "velocity": 82}, {"time": 1804, "pitch": 55, "duration": 70, "velocity": 81}, {"time": 1922, "pitch": 55, "duration": 369, "velocity": 87}, {"time": 1923, "pitch": 59, "duration": 370, "velocity": 102}, {"time": 1924, "pitch": 62, "duration": 368, "velocity": 92}, {"time": 2400, "pitch": 55, "duration": 149, "velocity": 98}, {"time": 2401, "pitch": 59, "duration": 151, "velocity": 91}, {"time": 2402, "pitch": 62, "duration": 162, "velocity": 93}, {"time": 2640, "pitch": 55, "duration": 64, "velocity": 90}, {"time": 2641, "pitch": 59, "duration": 43, "velocity": 89}, {"time": 2642, "pitch": 62, "duration": 36, "velocity": 85}, {"time": 2759, "pitch": 62, "duration": 85, "velocity": 82}, {"time": 2760, "pitch": 59, "duration": 82, "velocity": 84}, {"time": 2761, "pitch": 55, "duration": 64, "velocity": 88}, {"time": 2879, "pitch": 57, "duration": 304, "velocity": 98}, {"time": 2880, "pitch": 60, "duration": 313, "velocity": 99}, {"time": 2881, "pitch": 64, "duration": 306, "velocity": 96}, {"time": 3358, "pitch": 57, "duration": 158, "velocity": 101}, {"time": 3359, "pitch": 60, "duration": 155, "velocity": 98}, {"time": 3360, "pitch": 64, "duration": 162, "velocity": 102}, {"time": 3597, "pitch": 57, "duration": 59, "velocity": 97}, {"time": 3598, "pitch": 60, "duration": 40, "velocity": 94}, {"time": 3599, "pitch": 64, "duration": 67, "velocity": 101}, {"time": 3717, "pitch": 64, "duration": 78, "velocity": 99}, {"time": 3718, "pitch": 60, "duration": 26, "velocity": 87}, {"time": 3719, "pitch": 57, "duration": 59, "velocity": 76}, {"time": 3836, "pitch": 55, "duration": 361, "velocity": 98}, {"time": 3837, "pitch": 59, "duration": 365, "velocity": 99}, {"time": 3838, "pitch": 62, "duration": 368, "velocity": 91}, {"time": 4323, "pitch": 55, "duration": 156, "velocity": 100}, {"time": 4324, "pitch": 59, "duration": 151, "velocity": 96}, {"time": 4325, "pitch": 62, "duration": 149, "velocity": 91}, {"time": 4562, "pitch": 55, "duration": 59, "velocity": 86}, {"time": 4563, "pitch": 59, "duration": 31, "velocity": 88}, {"time": 4564, "pitch": 62, "duration": 36, "velocity": 84}, {"time": 4682, "pitch": 62, "duration": 103, "velocity": 91}, {"time": 4683, "pitch": 59, "duration": 98, "velocity": 83}, {"time": 4684, "pitch": 55, "duration": 93, "velocity": 90}, {"time": 4801, "pitch": 53, "duration": 367, "velocity": 101}, {"time": 4802, "pitch": 57, "duration": 361, "velocity": 90}, {"time": 4804, "pitch": 60, "duration": 370, "velocity": 88}, {"time": 5280, "pitch": 53, "duration": 172, "velocity": 101}, {"time": 5281, "pitch": 57, "duration": 173, "velocity": 90}, {"time": 5284, "pitch": 60, "duration": 177, "velocity": 94}, {"time": 5519, "pitch": 53, "duration": 29, "velocity": 80}, {"time": 5520, "pitch": 57, "duration": 33, "velocity": 74}, {"time": 5521, "pitch": 60, "duration": 44, "velocity": 76}, {"time": 5639, "pitch": 60, "duration": 71, "velocity": 84}, {"time": 5640, "pitch": 57, "duration": 69, "velocity": 81}, {"time": 5641, "pitch": 53, "duration": 42, "velocity": 77}, {"time": 5759, "pitch": 55, "duration": 371, "velocity": 101}, {"time": 5760, "pitch": 59, "duration": 371, "velocity": 94}, {"time": 5761, "pitch": 62, "duration": 386, "velocity": 104}, {"time": 6237, "pitch": 55, "duration": 148, "velocity": 102}, {"time": 6238, "pitch": 59, "duration": 146, "velocity": 93}, {"time": 6239, "pitch": 62, "duration": 148, "velocity": 103}, {"time": 6480, "pitch": 55, "duration": 36, "velocity": 90}, {"time": 6481, "pitch": 59, "duration": 32, "velocity": 89}, {"time": 6482, "pitch": 62, "duration": 46, "velocity": 96}, {"time": 6602, "pitch": 62, "duration": 96, "velocity": 94}, {"time": 6603, "pitch": 59, "duration": 74, "velocity": 88}, {"time": 6604, "pitch": 55, "duration": 93, "velocity": 92}, {"time": 6724, "pitch": 60, "duration": 345, "velocity": 90}, {"time": 6725, "pitch": 55, "duration": 345, "velocity": 95}, {"time": 6727, "pitch": 64, "duration": 348, "velocity": 100}, {"time": 7202, "pitch": 55, "duration": 162, "velocity": 99}, {"time": 7203, "pitch": 60, "duration": 159, "velocity": 94}, {"time": 7204, "pitch": 64, "duration": 152, "velocity": 102}, {"time": 7442, "pitch": 55, "duration": 38, "velocity": 86}, {"time": 7443, "pitch": 60, "duration": 29, "velocity": 76}, {"time": 7444, "pitch": 64, "duration": 41, "velocity": 84}, {"time": 7561, "pitch": 64, "duration": 86, "velocity": 92}, {"time": 7562, "pitch": 60, "duration": 62, "velocity": 82}, {"time": 7563, "pitch": 55, "duration": 70, "velocity": 81}, {"time": 7681, "pitch": 55, "duration": 369, "velocity": 87}, {"time": 7682, "pitch": 59, "duration": 370, "velocity": 102}, {"time": 7683, "pitch": 62, "duration": 368, "velocity": 92}, {"time": 8160, "pitch": 55, "duration": 148, "velocity": 98}, {"time": 8161, "pitch": 59, "duration": 150, "velocity": 91}, {"time": 8162, "pitch": 62, "duration": 161, "velocity": 93}, {"time": 8399, "pitch": 55, "duration": 64, "velocity": 90}, {"time": 8400, "pitch": 59, "duration": 43, "velocity": 89}, {"time": 8401, "pitch": 62, "duration": 36, "velocity": 85}, {"time": 8519, "pitch": 62, "duration": 84, "velocity": 82}, {"time": 8520, "pitch": 59, "duration": 81, "velocity": 84}, {"time": 8521, "pitch": 55, "duration": 63, "velocity": 88}, {"time": 8638, "pitch": 60, "duration": 345, "velocity": 90}, {"time": 8639, "pitch": 55, "duration": 345, "velocity": 95}, {"time": 8641, "pitch": 64, "duration": 348, "velocity": 100}, {"time": 9117, "pitch": 55, "duration": 164, "velocity": 99}, {"time": 9118, "pitch": 60, "duration": 161, "velocity": 94}, {"time": 9119, "pitch": 64, "duration": 154, "velocity": 102}, {"time": 9360, "pitch": 55, "duration": 40, "velocity": 86}, {"time": 9361, "pitch": 60, "duration": 30, "velocity": 76}, {"time": 9362, "pitch": 64, "duration": 43, "velocity": 84}, {"time": 9482, "pitch": 64, "duration": 87, "velocity": 92}, {"time": 9483, "pitch": 60, "duration": 62, "velocity": 82}, {"time": 9484, "pitch": 55, "duration": 71, "velocity": 81}, {"time": 9603, "pitch": 55, "duration": 369, "velocity": 87}, {"time": 9604, "pitch": 59, "duration": 370, "velocity": 102}, {"time": 9605, "pitch": 62, "duration": 368, "velocity": 92}, {"time": 10082, "pitch": 55, "duration": 148, "velocity": 98}, {"time": 10083, "pitch": 59, "duration": 150, "velocity": 91}, {"time": 10084, "pitch": 62, "duration": 161, "velocity": 93}, {"time": 10321, "pitch": 55, "duration": 64, "velocity": 90}, {"time": 10322, "pitch": 59, "duration": 43, "velocity": 89}, {"time": 10323, "pitch": 62, "duration": 36, "velocity": 85}, {"time": 10441, "pitch": 62, "duration": 85, "velocity": 82}, {"time": 10442, "pitch": 59, "duration": 82, "velocity": 84}, {"time": 10443, "pitch": 55, "duration": 64, "velocity": 88}, {"time": 10560, "pitch": 57, "duration": 305, "velocity": 98}, {"time": 10561, "pitch": 60, "duration": 314, "velocity": 99}, {"time": 10562, "pitch": 64, "duration": 307, "velocity": 96}, {"time": 11039, "pitch": 57, "duration": 159, "velocity": 101}, {"time": 11040, "pitch": 60, "duration": 156, "velocity": 98}, {"time": 11041, "pitch": 64, "duration": 163, "velocity": 102}, {"time": 11278, "pitch": 57, "duration": 59, "velocity": 97}, {"time": 11279, "pitch": 60, "duration": 40, "velocity": 94}, {"time": 11280, "pitch": 64, "duration": 67, "velocity": 101}, {"time": 11398, "pitch": 64, "duration": 78, "velocity": 99}, {"time": 11399, "pitch": 60, "duration": 26, "velocity": 87}, {"time": 11400, "pitch": 57, "duration": 59, "velocity": 76}, {"time": 11518, "pitch": 55, "duration": 355, "velocity": 98}, {"time": 11519, "pitch": 59, "duration": 359, "velocity": 99}, {"time": 11520, "pitch": 62, "duration": 362, "velocity": 91}, {"time": 11997, "pitch": 55, "duration": 159, "velocity": 100}, {"time": 11998, "pitch": 59, "duration": 153, "velocity": 96}, {"time": 11999, "pitch": 62, "duration": 151, "velocity": 91}, {"time": 12240, "pitch": 55, "duration": 59, "velocity": 86}, {"time": 12241, "pitch": 59, "duration": 31, "velocity": 88}, {"time": 12242, "pitch": 62, "duration": 36, "velocity": 84}, {"time": 12361, "pitch": 62, "duration": 106, "velocity": 91}, {"time": 12362, "pitch": 59, "duration": 100, "velocity": 83}, {"time": 12363, "pitch": 55, "duration": 95, "velocity": 90}, {"time": 12483, "pitch": 53, "duration": 319, "velocity": 96}, {"time": 12484, "pitch": 57, "duration": 326, "velocity": 89}, {"time": 12485, "pitch": 60, "duration": 322, "velocity": 98}, {"time": 12961, "pitch": 53, "duration": 172, "velocity": 100}, {"time": 12962, "pitch": 57, "duration": 169, "velocity": 101}, {"time": 12963, "pitch": 60, "duration": 160, "velocity": 90}, {"time": 13201, "pitch": 53, "duration": 40, "velocity": 95}, {"time": 13202, "pitch": 57, "duration": 31, "velocity": 98}, {"time": 13203, "pitch": 60, "duration": 36, "velocity": 90}, {"time": 13320, "pitch": 60, "duration": 63, "velocity": 90}, {"time": 13321, "pitch": 57, "duration": 38, "velocity": 95}, {"time": 13322, "pitch": 53, "duration": 58, "velocity": 98}, {"time": 13440, "pitch": 52, "duration": 331, "velocity": 95}, {"time": 13441, "pitch": 55, "duration": 333, "velocity": 98}, {"time": 13442, "pitch": 60, "duration": 346, "velocity": 90}, {"time": 13919, "pitch": 52, "duration": 174, "velocity": 95}, {"time": 13920, "pitch": 55, "duration": 159, "velocity": 98}, {"time": 13921, "pitch": 60, "duration": 165, "velocity": 90}, {"time": 14158, "pitch": 52, "duration": 62, "velocity": 95}, {"time": 14159, "pitch": 55, "duration": 33, "velocity": 98}, {"time": 14160, "pitch": 60, "duration": 33, "velocity": 90}, {"time": 14279, "pitch": 55, "duration": 78, "velocity": 90}, {"time": 14280, "pitch": 52, "duration": 66, "velocity": 95}, {"time": 14397, "pitch": 53, "duration": 315, "velocity": 90}, {"time": 14398, "pitch": 57, "duration": 326, "velocity": 95}, {"time": 14399, "pitch": 60, "duration": 326, "velocity": 98}, {"time": 14884, "pitch": 53, "duration": 146, "velocity": 90}, {"time": 14885, "pitch": 57, "duration": 147, "velocity": 95}, {"time": 14886, "pitch": 60, "duration": 144, "velocity": 98}, {"time": 15123, "pitch": 53, "duration": 70, "velocity": 90}, {"time": 15124, "pitch": 57, "duration": 31, "velocity": 95}, {"time": 15125, "pitch": 60, "duration": 53, "velocity": 98}, {"time": 15243, "pitch": 60, "duration": 39, "velocity": 90}, {"time": 15244, "pitch": 57, "duration": 40, "velocity": 95}, {"time": 15245, "pitch": 53, "duration": 66, "velocity": 100}, {"time": 15363, "pitch": 55, "duration": 336, "velocity": 90}, {"time": 15363, "pitch": 59, "duration": 338, "velocity": 95}, {"time": 15364, "pitch": 62, "duration": 324, "velocity": 98}, {"time": 15842, "pitch": 55, "duration": 160, "velocity": 90}, {"time": 15842, "pitch": 59, "duration": 159, "velocity": 95}, {"time": 15843, "pitch": 62, "duration": 159, "velocity": 98}, {"time": 16081, "pitch": 55, "duration": 57, "velocity": 90}, {"time": 16081, "pitch": 59, "duration": 29, "velocity": 91}, {"time": 16082, "pitch": 62, "duration": 43, "velocity": 95}, {"time": 16200, "pitch": 62, "duration": 100, "velocity": 90}, {"time": 16201, "pitch": 59, "duration": 75, "velocity": 95}, {"time": 16202, "pitch": 55, "duration": 88, "velocity": 100}, {"time": 16320, "pitch": 60, "duration": 345, "velocity": 90}, {"time": 16321, "pitch": 55, "duration": 345, "velocity": 95}, {"time": 16323, "pitch": 64, "duration": 348, "velocity": 100}, {"time": 16798, "pitch": 55, "duration": 162, "velocity": 99}, {"time": 16799, "pitch": 60, "duration": 159, "velocity": 94}, {"time": 16800, "pitch": 64, "duration": 152, "velocity": 102}, {"time": 17038, "pitch": 55, "duration": 39, "velocity": 86}, {"time": 17039, "pitch": 60, "duration": 30, "velocity": 76}, {"time": 17040, "pitch": 64, "duration": 42, "velocity": 84}, {"time": 17157, "pitch": 64, "duration": 86, "velocity": 92}, {"time": 17158, "pitch": 60, "duration": 62, "velocity": 82}, {"time": 17159, "pitch": 55, "duration": 70, "velocity": 81}, {"time": 17277, "pitch": 55, "duration": 375, "velocity": 87}, {"time": 17278, "pitch": 59, "duration": 376, "velocity": 102}, {"time": 17279, "pitch": 62, "duration": 374, "velocity": 92}, {"time": 17763, "pitch": 55, "duration": 149, "velocity": 98}, {"time": 17764, "pitch": 59, "duration": 151, "velocity": 91}, {"time": 17765, "pitch": 62, "duration": 162, "velocity": 93}, {"time": 18002, "pitch": 55, "duration": 64, "velocity": 90}, {"time": 18003, "pitch": 59, "duration": 43, "velocity": 89}, {"time": 18004, "pitch": 62, "duration": 36, "velocity": 85}, {"time": 18122, "pitch": 62, "duration": 85, "velocity": 82}, {"time": 18123, "pitch": 59, "duration": 82, "velocity": 84}, {"time": 18124, "pitch": 55, "duration": 64, "velocity": 88}, {"time": 18242, "pitch": 57, "duration": 304, "velocity": 98}, {"time": 18243, "pitch": 60, "duration": 313, "velocity": 99}, {"time": 18244, "pitch": 64, "duration": 306, "velocity": 96}, {"time": 18720, "pitch": 57, "duration": 159, "velocity": 101}, {"time": 18721, "pitch": 60, "duration": 156, "velocity": 98}, {"time": 18722, "pitch": 64, "duration": 163, "velocity": 102}, {"time": 18960, "pitch": 57, "duration": 59, "velocity": 97}, {"time": 18961, "pitch": 60, "duration": 40, "velocity": 94}, {"time": 18962, "pitch": 64, "duration": 67, "velocity": 101}, {"time": 19080, "pitch": 64, "duration": 77, "velocity": 99}, {"time": 19081, "pitch": 60, "duration": 25, "velocity": 87}, {"time": 19082, "pitch": 57, "duration": 58, "velocity": 76}, {"time": 19199, "pitch": 55, "duration": 355, "velocity": 98}, {"time": 19200, "pitch": 59, "duration": 359, "velocity": 99}, {"time": 19201, "pitch": 62, "duration": 362, "velocity": 91}, {"time": 19678, "pitch": 55, "duration": 156, "velocity": 100}, {"time": 19679, "pitch": 59, "duration": 151, "velocity": 96}, {"time": 19680, "pitch": 62, "duration": 149, "velocity": 91}, {"time": 19917, "pitch": 55, "duration": 59, "velocity": 86}, {"time": 19918, "pitch": 59, "duration": 31, "velocity": 88}, {"time": 19919, "pitch": 62, "duration": 36, "velocity": 84}, {"time": 20037, "pitch": 62, "duration": 104, "velocity": 91}, {"time": 20038, "pitch": 59, "duration": 99, "velocity": 83}, {"time": 20039, "pitch": 55, "duration": 94, "velocity": 90}, {"time": 20157, "pitch": 53, "duration": 324, "velocity": 96}, {"time": 20158, "pitch": 57, "duration": 331, "velocity": 89}, {"time": 20159, "pitch": 60, "duration": 327, "velocity": 98}, {"time": 20643, "pitch": 53, "duration": 171, "velocity": 100}, {"time": 20644, "pitch": 57, "duration": 168, "velocity": 101}, {"time": 20645, "pitch": 60, "duration": 159, "velocity": 90}, {"time": 20882, "pitch": 53, "duration": 40, "velocity": 95}, {"time": 20883, "pitch": 57, "duration": 31, "velocity": 98}, {"time": 20884, "pitch": 60, "duration": 36, "velocity": 90}, {"time": 21002, "pitch": 60, "duration": 63, "velocity": 90}, {"time": 21003, "pitch": 57, "duration": 38, "velocity": 95}, {"time": 21004, "pitch": 53, "duration": 58, "velocity": 98}, {"time": 21121, "pitch": 52, "duration": 331, "velocity": 95}, {"time": 21122, "pitch": 55, "duration": 333, "velocity": 98}, {"time": 21123, "pitch": 60, "duration": 346, "velocity": 90}, {"time": 21600, "pitch": 52, "duration": 175, "velocity": 95}, {"time": 21601, "pitch": 55, "duration": 160, "velocity": 98}, {"time": 21602, "pitch": 60, "duration": 166, "velocity": 90}, {"time": 21839, "pitch": 52, "duration": 62, "velocity": 95}, {"time": 21840, "pitch": 55, "duration": 33, "velocity": 98}, {"time": 21841, "pitch": 60, "duration": 33, "velocity": 90}, {"time": 21959, "pitch": 60, "duration": 78, "velocity": 90}, {"time": 21960, "pitch": 55, "duration": 78, "velocity": 90}, {"time": 21961, "pitch": 52, "duration": 66, "velocity": 95}, {"time": 22079, "pitch": 53, "duration": 319, "velocity": 96}, {"time": 22080, "pitch": 57, "duration": 326, "velocity": 89}, {"time": 22081, "pitch": 60, "duration": 322, "velocity": 98}, {"time": 22557, "pitch": 53, "duration": 175, "velocity": 100}, {"time": 22558, "pitch": 57, "duration": 172, "velocity": 101}, {"time": 22559, "pitch": 60, "duration": 162, "velocity": 90}, {"time": 22801, "pitch": 53, "duration": 40, "velocity": 95}, {"time": 22802, "pitch": 57, "duration": 31, "velocity": 98}, {"time": 22803, "pitch": 60, "duration": 36, "velocity": 90}, {"time": 22922, "pitch": 60, "duration": 64, "velocity": 90}, {"time": 22923, "pitch": 57, "duration": 39, "velocity": 95}, {"time": 22924, "pitch": 53, "duration": 59, "velocity": 98}, {"time": 23044, "pitch": 55, "duration": 318, "velocity": 93}, {"time": 23046, "pitch": 60, "duration": 326, "velocity": 95}, {"time": 23048, "pitch": 64, "duration": 328, "velocity": 100}, {"time": 23522, "pitch": 55, "duration": 290, "velocity": 96}, {"time": 23524, "pitch": 59, "duration": 303, "velocity": 100}, {"time": 23526, "pitch": 62, "duration": 322, "velocity": 105}, {"time": 24002, "pitch": 57, "duration": 351, "velocity": 85}, {"time": 24003, "pitch": 60, "duration": 352, "velocity": 90}, {"time": 24005, "pitch": 64, "duration": 355, "velocity": 92}, {"time": 24481, "pitch": 57, "duration": 176, "velocity": 90}, {"time": 24482, "pitch": 60, "duration": 172, "velocity": 92}, {"time": 24484, "pitch": 64, "duration": 173, "velocity": 95}, {"time": 24720, "pitch": 64, "duration": 38, "velocity": 90}, {"time": 24721, "pitch": 60, "duration": 29, "velocity": 92}, {"time": 24722, "pitch": 57, "duration": 51, "velocity": 95}, {"time": 24840, "pitch": 57, "duration": 51, "velocity": 90}, {"time": 24841, "pitch": 60, "duration": 38, "velocity": 92}, {"time": 24842, "pitch": 64, "duration": 70, "velocity": 95}, {"time": 24958, "pitch": 55, "duration": 373, "velocity": 90}, {"time": 24959, "pitch": 59, "duration": 382, "velocity": 92}, {"time": 24960, "pitch": 62, "duration": 368, "velocity": 95}, {"time": 25437, "pitch": 55, "duration": 170, "velocity": 92}, {"time": 25438, "pitch": 59, "duration": 165, "velocity": 100}, {"time": 25439, "pitch": 62, "duration": 160, "velocity": 105}, {"time": 25680, "pitch": 55, "duration": 101, "velocity": 90}, {"time": 25681, "pitch": 59, "duration": 129, "velocity": 92}, {"time": 25682, "pitch": 62, "duration": 135, "velocity": 95}, {"time": 25923, "pitch": 53, "duration": 384, "velocity": 90}, {"time": 25924, "pitch": 57, "duration": 383, "velocity": 92}, {"time": 25925, "pitch": 60, "duration": 382, "velocity": 95}, {"time": 26402, "pitch": 53, "duration": 158, "velocity": 91}, {"time": 26403, "pitch": 57, "duration": 156, "velocity": 95}, {"time": 26404, "pitch": 60, "duration": 160, "velocity": 98}, {"time": 26641, "pitch": 53, "duration": 33, "velocity": 91}, {"time": 26642, "pitch": 57, "duration": 40, "velocity": 95}, {"time": 26643, "pitch": 60, "duration": 36, "velocity": 98}, {"time": 26761, "pitch": 60, "duration": 69, "velocity": 91}, {"time": 26762, "pitch": 57, "duration": 70, "velocity": 92}, {"time": 26763, "pitch": 53, "duration": 39, "velocity": 98}, {"time": 26881, "pitch": 55, "duration": 367, "velocity": 91}, {"time": 26882, "pitch": 59, "duration": 380, "velocity": 95}, {"time": 26883, "pitch": 62, "duration": 373, "velocity": 98}, {"time": 27359, "pitch": 55, "duration": 142, "velocity": 91}, {"time": 27360, "pitch": 59, "duration": 157, "velocity": 95}, {"time": 27361, "pitch": 62, "duration": 138, "velocity": 98}, {"time": 27599, "pitch": 55, "duration": 88, "velocity": 91}, {"time": 27600, "pitch": 59, "duration": 101, "velocity": 95}, {"time": 27601, "pitch": 62, "duration": 98, "velocity": 98}, {"time": 27839, "pitch": 57, "duration": 359, "velocity": 91}, {"time": 27840, "pitch": 60, "duration": 357, "velocity": 98}, {"time": 27841, "pitch": 64, "duration": 334, "velocity": 95}, {"time": 28318, "pitch": 57, "duration": 150, "velocity": 91}, {"time": 28319, "pitch": 60, "duration": 148, "velocity": 95}, {"time": 28320, "pitch": 64, "duration": 137, "velocity": 100}, {"time": 28561, "pitch": 57, "duration": 44, "velocity": 87}, {"time": 28562, "pitch": 60, "duration": 28, "velocity": 82}, {"time": 28563, "pitch": 64, "duration": 39, "velocity": 90}, {"time": 28681, "pitch": 64, "duration": 78, "velocity": 95}, {"time": 28682, "pitch": 60, "duration": 62, "velocity": 90}, {"time": 28683, "pitch": 57, "duration": 48, "velocity": 95}, {"time": 28803, "pitch": 55, "duration": 355, "velocity": 98}, {"time": 28804, "pitch": 59, "duration": 365, "velocity": 90}, {"time": 28805, "pitch": 62, "duration": 357, "velocity": 95}, {"time": 29281, "pitch": 55, "duration": 131, "velocity": 98}, {"time": 29282, "pitch": 59, "duration": 140, "velocity": 90}, {"time": 29283, "pitch": 62, "duration": 133, "velocity": 95}, {"time": 29521, "pitch": 55, "duration": 114, "velocity": 98}, {"time": 29522, "pitch": 59, "duration": 136, "velocity": 90}, {"time": 29523, "pitch": 62, "duration": 121, "velocity": 95}, {"time": 29760, "pitch": 53, "duration": 384, "velocity": 90}, {"time": 29761, "pitch": 57, "duration": 383, "velocity": 92}, {"time": 29762, "pitch": 60, "duration": 382, "velocity": 95}, {"time": 30239, "pitch": 53, "duration": 158, "velocity": 91}, {"time": 30240, "pitch": 57, "duration": 156, "velocity": 95}, {"time": 30241, "pitch": 60, "duration": 160, "velocity": 98}, {"time": 30478, "pitch": 53, "duration": 33, "velocity": 91}, {"time": 30479, "pitch": 57, "duration": 40, "velocity": 95}, {"time": 30480, "pitch": 60, "duration": 36, "velocity": 98}, {"time": 30598, "pitch": 60, "duration": 69, "velocity": 91}, {"time": 30599, "pitch": 57, "duration": 70, "velocity": 92}, {"time": 30600, "pitch": 53, "duration": 39, "velocity": 98}, {"time": 30717, "pitch": 55, "duration": 373, "velocity": 91}, {"time": 30718, "pitch": 59, "duration": 387, "velocity": 95}, {"time": 30719, "pitch": 62, "duration": 380, "velocity": 98}, {"time": 31204, "pitch": 55, "duration": 141, "velocity": 91}, {"time": 31205, "pitch": 59, "duration": 156, "velocity": 95}, {"time": 31206, "pitch": 62, "duration": 137, "velocity": 98}, {"time": 31443, "pitch": 55, "duration": 89, "velocity": 91}, {"time": 31444, "pitch": 59, "duration": 102, "velocity": 95}, {"time": 31445, "pitch": 62, "duration": 99, "velocity": 98}, {"time": 31682, "pitch": 57, "duration": 104, "velocity": 90}, {"time": 31683, "pitch": 60, "duration": 104, "velocity": 93}, {"time": 31684, "pitch": 64, "duration": 116, "velocity": 96}, {"time": 31922, "pitch": 57, "duration": 99, "velocity": 90}, {"time": 31923, "pitch": 60, "duration": 95, "velocity": 95}, {"time": 31924, "pitch": 64, "duration": 107, "velocity": 98}, {"time": 32161, "pitch": 57, "duration": 101, "velocity": 90}, {"time": 32162, "pitch": 60, "duration": 104, "velocity": 95}, {"time": 32163, "pitch": 64, "duration": 104, "velocity": 98}, {"time": 32400, "pitch": 57, "duration": 86, "velocity": 90}, {"time": 32401, "pitch": 60, "duration": 104, "velocity": 95}, {"time": 32402, "pitch": 64, "duration": 87, "velocity": 98}, {"time": 32640, "pitch": 56, "duration": 107, "velocity": 90}, {"time": 32641, "pitch": 60, "duration": 125, "velocity": 95}, {"time": 32642, "pitch": 64, "duration": 132, "velocity": 98}, {"time": 32879, "pitch": 56, "duration": 100, "velocity": 90}, {"time": 32880, "pitch": 60, "duration": 86, "velocity": 95}, {"time": 32881, "pitch": 64, "duration": 112, "velocity": 98}, {"time": 33118, "pitch": 56, "duration": 110, "velocity": 90}, {"time": 33119, "pitch": 60, "duration": 100, "velocity": 95}, {"time": 33120, "pitch": 64, "duration": 112, "velocity": 98}, {"time": 33358, "pitch": 56, "duration": 102, "velocity": 90}, {"time": 33359, "pitch": 60, "duration": 97, "velocity": 95}, {"time": 33360, "pitch": 64, "duration": 113, "velocity": 98}, {"time": 33597, "pitch": 55, "duration": 84, "velocity": 90}, {"time": 33598, "pitch": 60, "duration": 111, "velocity": 95}, {"time": 33599, "pitch": 64, "duration": 75, "velocity": 98}, {"time": 33840, "pitch": 55, "duration": 94, "velocity": 91}, {"time": 33841, "pitch": 60, "duration": 99, "velocity": 95}, {"time": 33842, "pitch": 64, "duration": 81, "velocity": 98}, {"time": 34083, "pitch": 55, "duration": 71, "velocity": 91}, {"time": 34084, "pitch": 60, "duration": 83, "velocity": 95}, {"time": 34085, "pitch": 64, "duration": 94, "velocity": 98}, {"time": 34323, "pitch": 55, "duration": 82, "velocity": 90}, {"time": 34324, "pitch": 60, "duration": 92, "velocity": 92}, {"time": 34325, "pitch": 64, "duration": 91, "velocity": 95}, {"time": 34562, "pitch": 54, "duration": 108, "velocity": 90}, {"time": 34563, "pitch": 60, "duration": 115, "velocity": 95}, {"time": 34564, "pitch": 64, "duration": 126, "velocity": 98}, {"time": 34801, "pitch": 54, "duration": 114, "velocity": 90}, {"time": 34802, "pitch": 60, "duration": 95, "velocity": 91}, {"time": 34803, "pitch": 64, "duration": 104, "velocity": 94}, {"time": 35041, "pitch": 54, "duration": 112, "velocity": 90}, {"time": 35042, "pitch": 60, "duration": 120, "velocity": 95}, {"time": 35043, "pitch": 64, "duration": 115, "velocity": 98}, {"time": 35280, "pitch": 54, "duration": 124, "velocity": 90}, {"time": 35281, "pitch": 60, "duration": 133, "velocity": 95}, {"time": 35282, "pitch": 64, "duration": 127, "velocity": 98}, {"time": 35519, "pitch": 53, "duration": 104, "velocity": 90}, {"time": 35520, "pitch": 57, "duration": 104, "velocity": 91}, {"time": 35521, "pitch": 60, "duration": 110, "velocity": 95}, {"time": 35759, "pitch": 53, "duration": 74, "velocity": 90}, {"time": 35760, "pitch": 57, "duration": 64, "velocity": 91}, {"time": 35761, "pitch": 60, "duration": 102, "velocity": 97}, {"time": 35998, "pitch": 53, "duration": 75, "velocity": 90}, {"time": 35999, "pitch": 57, "duration": 79, "velocity": 95}, {"time": 36000, "pitch": 60, "duration": 104, "velocity": 98}, {"time": 36237, "pitch": 53, "duration": 44, "velocity": 90}, {"time": 36238, "pitch": 57, "duration": 78, "velocity": 91}, {"time": 36239, "pitch": 60, "duration": 84, "velocity": 94}, {"time": 36477, "pitch": 53, "duration": 68, "velocity": 97}, {"time": 36478, "pitch": 57, "duration": 82, "velocity": 98}, {"time": 36479, "pitch": 60, "duration": 98, "velocity": 95}, {"time": 36720, "pitch": 53, "duration": 67, "velocity": 91}, {"time": 36721, "pitch": 57, "duration": 79, "velocity": 94}, {"time": 36722, "pitch": 60, "duration": 89, "velocity": 98}, {"time": 36963, "pitch": 53, "duration": 72, "velocity": 91}, {"time": 36964, "pitch": 57, "duration": 91, "velocity": 94}, {"time": 36965, "pitch": 60, "duration": 105, "velocity": 97}, {"time": 37202, "pitch": 53, "duration": 66, "velocity": 95}, {"time": 37203, "pitch": 57, "duration": 83, "velocity": 98}, {"time": 37204, "pitch": 60, "duration": 103, "velocity": 99}, {"time": 37441, "pitch": 55, "duration": 73, "velocity": 90}, {"time": 37442, "pitch": 59, "duration": 86, "velocity": 91}, {"time": 37443, "pitch": 62, "duration": 102, "velocity": 95}, {"time": 37681, "pitch": 55, "duration": 68, "velocity": 90}, {"time": 37682, "pitch": 59, "duration": 83, "velocity": 91}, {"time": 37683, "pitch": 62, "duration": 92, "velocity": 97}, {"time": 37920, "pitch": 55, "duration": 71, "velocity": 90}, {"time": 37921, "pitch": 59, "duration": 80, "velocity": 95}, {"time": 37922, "pitch": 62, "duration": 96, "velocity": 98}, {"time": 38159, "pitch": 55, "duration": 69, "velocity": 90}, {"time": 38160, "pitch": 59, "duration": 88, "velocity": 94}, {"time": 38161, "pitch": 62, "duration": 96, "velocity": 97}, {"time": 38399, "pitch": 55, "duration": 70, "velocity": 90}, {"time": 38400, "pitch": 59, "duration": 76, "velocity": 91}, {"time": 38401, "pitch": 62, "duration": 97, "velocity": 94}, {"time": 38638, "pitch": 55, "duration": 65, "velocity": 95}, {"time": 38639, "pitch": 59, "duration": 85, "velocity": 98}, {"time": 38640, "pitch": 62, "duration": 87, "velocity": 99}, {"time": 38877, "pitch": 55, "duration": 79, "velocity": 97}, {"time": 38878, "pitch": 59, "duration": 90, "velocity": 98}, {"time": 38879, "pitch": 62, "duration": 103, "velocity": 99}, {"time": 39121, "pitch": 55, "duration": 77, "velocity": 90}, {"time": 39122, "pitch": 59, "duration": 94, "velocity": 91}, {"time": 39123, "pitch": 62, "duration": 99, "velocity": 94}, {"time": 39364, "pitch": 55, "duration": 93, "velocity": 90}, {"time": 39365, "pitch": 60, "duration": 108, "velocity": 94}, {"time": 39366, "pitch": 64, "duration": 116, "velocity": 95}, {"time": 39603, "pitch": 55, "duration": 76, "velocity": 90}, {"time": 39604, "pitch": 60, "duration": 78, "velocity": 91}, {"time": 39605, "pitch": 64, "duration": 86, "velocity": 94}, {"time": 39842, "pitch": 55, "duration": 85, "velocity": 95}, {"time": 39843, "pitch": 60, "duration": 95, "velocity": 98}, {"time": 39844, "pitch": 64, "duration": 101, "velocity": 99}, {"time": 40082, "pitch": 55, "duration": 84, "velocity": 90}, {"time": 40083, "pitch": 60, "duration": 92, "velocity": 91}, {"time": 40084, "pitch": 64, "duration": 91, "velocity": 94}, {"time": 40321, "pitch": 53, "duration": 93, "velocity": 90}, {"time": 40322, "pitch": 57, "duration": 105, "velocity": 95}, {"time": 40323, "pitch": 60, "duration": 119, "velocity": 98}, {"time": 40560, "pitch": 53, "duration": 92, "velocity": 90}, {"time": 40561, "pitch": 57, "duration": 84, "velocity": 94}, {"time": 40562, "pitch": 60, "duration": 94, "velocity": 98}, {"time": 40800, "pitch": 53, "duration": 92, "velocity": 97}, {"time": 40801, "pitch": 57, "duration": 85, "velocity": 98}, {"time": 40802, "pitch": 60, "duration": 103, "velocity": 100}, {"time": 41039, "pitch": 53, "duration": 79, "velocity": 90}, {"time": 41040, "pitch": 57, "duration": 89, "velocity": 94}, {"time": 41041, "pitch": 60, "duration": 120, "velocity": 100}, {"time": 41278, "pitch": 55, "duration": 91, "velocity": 90}, {"time": 41279, "pitch": 59, "duration": 102, "velocity": 95}, {"time": 41280, "pitch": 62, "duration": 101, "velocity": 100}, {"time": 41518, "pitch": 55, "duration": 78, "velocity": 90}, {"time": 41519, "pitch": 59, "duration": 85, "velocity": 91}, {"time": 41520, "pitch": 62, "duration": 80, "velocity": 97}, {"time": 41757, "pitch": 55, "duration": 80, "velocity": 94}, {"time": 41758, "pitch": 59, "duration": 96, "velocity": 95}, {"time": 41759, "pitch": 62, "duration": 50, "velocity": 98}, {"time": 42000, "pitch": 56, "duration": 380, "velocity": 90}, {"time": 42001, "pitch": 59, "duration": 401, "velocity": 91}, {"time": 42002, "pitch": 62, "duration": 368, "velocity": 94}, {"time": 42483, "pitch": 56, "duration": 75, "velocity": 97}, {"time": 42484, "pitch": 59, "duration": 98, "velocity": 98}, {"time": 42485, "pitch": 62, "duration": 88, "velocity": 95}, {"time": 42722, "pitch": 56, "duration": 72, "velocity": 90}, {"time": 42723, "pitch": 59, "duration": 100, "velocity": 91}, {"time": 42724, "pitch": 62, "duration": 90, "velocity": 94}, {"time": 42961, "pitch": 56, "duration": 85, "velocity": 97}, {"time": 42962, "pitch": 59, "duration": 108, "velocity": 98}, {"time": 42963, "pitch": 62, "duration": 102, "velocity": 95}, {"time": 43202, "pitch": 57, "duration": 101, "velocity": 91}, {"time": 43202, "pitch": 60, "duration": 103, "velocity": 90}, {"time": 43203, "pitch": 64, "duration": 99, "velocity": 94}, {"time": 43441, "pitch": 57, "duration": 85, "velocity": 97}, {"time": 43441, "pitch": 60, "duration": 80, "velocity": 98}, {"time": 43442, "pitch": 64, "duration": 76, "velocity": 95}, {"time": 43679, "pitch": 57, "duration": 79, "velocity": 90}, {"time": 43680, "pitch": 60, "duration": 101, "velocity": 91}, {"time": 43681, "pitch": 64, "duration": 103, "velocity": 94}, {"time": 43919, "pitch": 55, "duration": 311, "velocity": 97}, {"time": 43920, "pitch": 59, "duration": 318, "velocity": 98}, {"time": 43921, "pitch": 64, "duration": 303, "velocity": 102}, {"time": 44397, "pitch": 55, "duration": 78, "velocity": 90}, {"time": 44398, "pitch": 59, "duration": 78, "velocity": 91}, {"time": 44399, "pitch": 64, "duration": 84, "velocity": 87}, {"time": 44637, "pitch": 55, "duration": 105, "velocity": 90}, {"time": 44638, "pitch": 59, "duration": 109, "velocity": 91}, {"time": 44639, "pitch": 64, "duration": 102, "velocity": 98}, {"time": 44880, "pitch": 55, "duration": 106, "velocity": 90}, {"time": 44881, "pitch": 59, "duration": 108, "velocity": 94}, {"time": 44882, "pitch": 64, "duration": 108, "velocity": 94}, {"time": 45123, "pitch": 53, "duration": 121, "velocity": 90}, {"time": 45124, "pitch": 57, "duration": 121, "velocity": 91}, {"time": 45125, "pitch": 60, "duration": 130, "velocity": 95}, {"time": 45362, "pitch": 53, "duration": 63, "velocity": 97}, {"time": 45363, "pitch": 57, "duration": 77, "velocity": 98}, {"time": 45364, "pitch": 60, "duration": 92, "velocity": 99}, {"time": 45601, "pitch": 53, "duration": 82, "velocity": 90}, {"time": 45602, "pitch": 57, "duration": 91, "velocity": 91}, {"time": 45603, "pitch": 60, "duration": 119, "velocity": 94}, {"time": 45841, "pitch": 55, "duration": 315, "velocity": 97}, {"time": 45842, "pitch": 59, "duration": 325, "velocity": 95}, {"time": 45843, "pitch": 62, "duration": 315, "velocity": 98}, {"time": 46319, "pitch": 55, "duration": 81, "velocity": 90}, {"time": 46320, "pitch": 59, "duration": 90, "velocity": 91}, {"time": 46321, "pitch": 62, "duration": 84, "velocity": 97}, {"time": 46559, "pitch": 55, "duration": 88, "velocity": 94}, {"time": 46560, "pitch": 59, "duration": 96, "velocity": 91}, {"time": 46561, "pitch": 62, "duration": 91, "velocity": 100}, {"time": 46798, "pitch": 55, "duration": 87, "velocity": 90}, {"time": 46799, "pitch": 59, "duration": 110, "velocity": 95}, {"time": 46800, "pitch": 62, "duration": 109, "velocity": 98}, {"time": 47037, "pitch": 55, "duration": 96, "velocity": 90}, {"time": 47038, "pitch": 60, "duration": 111, "velocity": 94}, {"time": 47039, "pitch": 64, "duration": 119, "velocity": 95}, {"time": 47281, "pitch": 55, "duration": 77, "velocity": 90}, {"time": 47282, "pitch": 60, "duration": 79, "velocity": 91}, {"time": 47283, "pitch": 64, "duration": 87, "velocity": 94}, {"time": 47524, "pitch": 55, "duration": 84, "velocity": 95}, {"time": 47525, "pitch": 60, "duration": 94, "velocity": 98}, {"time": 47526, "pitch": 64, "duration": 100, "velocity": 99}, {"time": 47763, "pitch": 55, "duration": 85, "velocity": 90}, {"time": 47764, "pitch": 60, "duration": 93, "velocity": 91}, {"time": 47765, "pitch": 64, "duration": 92, "velocity": 94}, {"time": 48002, "pitch": 53, "duration": 93, "velocity": 90}, {"time": 48003, "pitch": 57, "duration": 105, "velocity": 95}, {"time": 48004, "pitch": 60, "duration": 119, "velocity": 98}, {"time": 48242, "pitch": 53, "duration": 91, "velocity": 90}, {"time": 48243, "pitch": 57, "duration": 83, "velocity": 94}, {"time": 48244, "pitch": 60, "duration": 93, "velocity": 98}, {"time": 48481, "pitch": 53, "duration": 93, "velocity": 97}, {"time": 48482, "pitch": 57, "duration": 86, "velocity": 98}, {"time": 48483, "pitch": 60, "duration": 104, "velocity": 100}, {"time": 48720, "pitch": 53, "duration": 79, "velocity": 90}, {"time": 48721, "pitch": 57, "duration": 89, "velocity": 94}, {"time": 48722, "pitch": 60, "duration": 120, "velocity": 100}, {"time": 48960, "pitch": 55, "duration": 90, "velocity": 90}, {"time": 48961, "pitch": 59, "duration": 101, "velocity": 95}, {"time": 48962, "pitch": 62, "duration": 100, "velocity": 100}, {"time": 49199, "pitch": 55, "duration": 79, "velocity": 90}, {"time": 49200, "pitch": 59, "duration": 86, "velocity": 91}, {"time": 49201, "pitch": 62, "duration": 81, "velocity": 97}, {"time": 49438, "pitch": 55, "duration": 79, "velocity": 94}, {"time": 49439, "pitch": 59, "duration": 95, "velocity": 95}, {"time": 49440, "pitch": 62, "duration": 49, "velocity": 98}, {"time": 49678, "pitch": 56, "duration": 378, "velocity": 90}, {"time": 49679, "pitch": 59, "duration": 399, "velocity": 91}, {"time": 49680, "pitch": 62, "duration": 366, "velocity": 94}, {"time": 50160, "pitch": 56, "duration": 77, "velocity": 97}, {"time": 50161, "pitch": 59, "duration": 100, "velocity": 98}, {"time": 50162, "pitch": 62, "duration": 90, "velocity": 95}, {"time": 50403, "pitch": 56, "duration": 72, "velocity": 90}, {"time": 50404, "pitch": 59, "duration": 100, "velocity": 91}, {"time": 50405, "pitch": 62, "duration": 90, "velocity": 94}, {"time": 50643, "pitch": 56, "duration": 84, "velocity": 97}, {"time": 50644, "pitch": 59, "duration": 107, "velocity": 98}, {"time": 50645, "pitch": 62, "duration": 101, "velocity": 95}, {"time": 50883, "pitch": 57, "duration": 102, "velocity": 91}, {"time": 50883, "pitch": 60, "duration": 104, "velocity": 90}, {"time": 50884, "pitch": 64, "duration": 100, "velocity": 94}, {"time": 51121, "pitch": 57, "duration": 85, "velocity": 97}, {"time": 51122, "pitch": 59, "duration": 80, "velocity": 98}, {"time": 51123, "pitch": 64, "duration": 76, "velocity": 95}, {"time": 51361, "pitch": 57, "duration": 78, "velocity": 90}, {"time": 51362, "pitch": 59, "duration": 100, "velocity": 91}, {"time": 51363, "pitch": 64, "duration": 102, "velocity": 94}, {"time": 51600, "pitch": 55, "duration": 311, "velocity": 97}, {"time": 51601, "pitch": 59, "duration": 318, "velocity": 98}, {"time": 51602, "pitch": 64, "duration": 303, "velocity": 102}, {"time": 52079, "pitch": 55, "duration": 77, "velocity": 90}, {"time": 52080, "pitch": 59, "duration": 77, "velocity": 91}, {"time": 52081, "pitch": 64, "duration": 83, "velocity": 87}, {"time": 52318, "pitch": 55, "duration": 104, "velocity": 90}, {"time": 52319, "pitch": 59, "duration": 108, "velocity": 91}, {"time": 52320, "pitch": 64, "duration": 101, "velocity": 98}, {"time": 52557, "pitch": 55, "duration": 105, "velocity": 90}, {"time": 52558, "pitch": 59, "duration": 107, "velocity": 94}, {"time": 52559, "pitch": 64, "duration": 107, "velocity": 94}, {"time": 52797, "pitch": 53, "duration": 123, "velocity": 90}, {"time": 52798, "pitch": 57, "duration": 123, "velocity": 91}, {"time": 52799, "pitch": 60, "duration": 132, "velocity": 95}, {"time": 53040, "pitch": 53, "duration": 64, "velocity": 97}, {"time": 53041, "pitch": 57, "duration": 78, "velocity": 98}, {"time": 53042, "pitch": 60, "duration": 93, "velocity": 99}, {"time": 53283, "pitch": 53, "duration": 82, "velocity": 90}, {"time": 53284, "pitch": 57, "duration": 91, "velocity": 91}, {"time": 53285, "pitch": 60, "duration": 118, "velocity": 94}, {"time": 53522, "pitch": 55, "duration": 315, "velocity": 97}, {"time": 53523, "pitch": 59, "duration": 325, "velocity": 95}, {"time": 53524, "pitch": 62, "duration": 315, "velocity": 98}, {"time": 54001, "pitch": 55, "duration": 81, "velocity": 90}, {"time": 54002, "pitch": 59, "duration": 90, "velocity": 91}, {"time": 54003, "pitch": 62, "duration": 84, "velocity": 97}, {"time": 54240, "pitch": 55, "duration": 88, "velocity": 94}, {"time": 54241, "pitch": 59, "duration": 96, "velocity": 91}, {"time": 54242, "pitch": 62, "duration": 91, "velocity": 100}, {"time": 54479, "pitch": 55, "duration": 87, "velocity": 90}, {"time": 54480, "pitch": 59, "duration": 110, "velocity": 95}, {"time": 54481, "pitch": 62, "duration": 109, "velocity": 98}, {"time": 54719, "pitch": 53, "duration": 133, "velocity": 90}, {"time": 54720, "pitch": 57, "duration": 129, "velocity": 95}, {"time": 54721, "pitch": 60, "duration": 130, "velocity": 100}, {"time": 54958, "pitch": 53, "duration": 65, "velocity": 91}, {"time": 54959, "pitch": 57, "duration": 71, "velocity": 94}, {"time": 54960, "pitch": 60, "duration": 85, "velocity": 95}, {"time": 55198, "pitch": 53, "duration": 104, "velocity": 90}, {"time": 55199, "pitch": 57, "duration": 123, "velocity": 94}, {"time": 55200, "pitch": 60, "duration": 134, "velocity": 100}, {"time": 55441, "pitch": 53, "duration": 68, "velocity": 90}, {"time": 55442, "pitch": 57, "duration": 65, "velocity": 95}, {"time": 55443, "pitch": 60, "duration": 85, "velocity": 100}, {"time": 55684, "pitch": 53, "duration": 87, "velocity": 90}, {"time": 55685, "pitch": 57, "duration": 98, "velocity": 95}, {"time": 55686, "pitch": 60, "duration": 115, "velocity": 100}, {"time": 55923, "pitch": 53, "duration": 69, "velocity": 90}, {"time": 55924, "pitch": 57, "duration": 82, "velocity": 91}, {"time": 55925, "pitch": 60, "duration": 91, "velocity": 95}, {"time": 56162, "pitch": 53, "duration": 85, "velocity": 90}, {"time": 56163, "pitch": 57, "duration": 87, "velocity": 91}, {"time": 56164, "pitch": 60, "duration": 106, "velocity": 98}, {"time": 56402, "pitch": 53, "duration": 96, "velocity": 90}, {"time": 56403, "pitch": 57, "duration": 103, "velocity": 91}, {"time": 56404, "pitch": 60, "duration": 115, "velocity": 95}, {"time": 56641, "pitch": 52, "duration": 111, "velocity": 90}, {"time": 56642, "pitch": 55, "duration": 114, "velocity": 91}, {"time": 56643, "pitch": 60, "duration": 116, "velocity": 100}, {"time": 56880, "pitch": 52, "duration": 78, "velocity": 90}, {"time": 56881, "pitch": 55, "duration": 82, "velocity": 95}, {"time": 56882, "pitch": 60, "duration": 86, "velocity": 100}, {"time": 57120, "pitch": 52, "duration": 68, "velocity": 90}, {"time": 57121, "pitch": 55, "duration": 66, "velocity": 95}, {"time": 57122, "pitch": 60, "duration": 73, "velocity": 102}, {"time": 57359, "pitch": 52, "duration": 66, "velocity": 90}, {"time": 57360, "pitch": 55, "duration": 54, "velocity": 95}, {"time": 57361, "pitch": 60, "duration": 83, "velocity": 100}, {"time": 57598, "pitch": 52, "duration": 732, "velocity": 90}, {"time": 57599, "pitch": 55, "duration": 745, "velocity": 95}, {"time": 57600, "pitch": 60, "duration": 745, "velocity": 103}, {"time": 58563, "pitch": 60, "duration": 345, "velocity": 90}, {"time": 58564, "pitch": 55, "duration": 345, "velocity": 95}, {"time": 58566, "pitch": 64, "duration": 348, "velocity": 100}, {"time": 59042, "pitch": 55, "duration": 161, "velocity": 99}, {"time": 59043, "pitch": 60, "duration": 158, "velocity": 94}, {"time": 59044, "pitch": 64, "duration": 152, "velocity": 102}, {"time": 59281, "pitch": 55, "duration": 39, "velocity": 86}, {"time": 59282, "pitch": 60, "duration": 30, "velocity": 76}, {"time": 59283, "pitch": 64, "duration": 42, "velocity": 84}, {"time": 59401, "pitch": 64, "duration": 86, "velocity": 92}, {"time": 59402, "pitch": 60, "duration": 62, "velocity": 82}, {"time": 59403, "pitch": 55, "duration": 70, "velocity": 81}, {"time": 59521, "pitch": 55, "duration": 369, "velocity": 87}, {"time": 59522, "pitch": 59, "duration": 370, "velocity": 102}, {"time": 59523, "pitch": 62, "duration": 368, "velocity": 92}, {"time": 59999, "pitch": 55, "duration": 149, "velocity": 98}, {"time": 60000, "pitch": 59, "duration": 151, "velocity": 91}, {"time": 60001, "pitch": 62, "duration": 162, "velocity": 93}, {"time": 60239, "pitch": 55, "duration": 63, "velocity": 90}, {"time": 60240, "pitch": 59, "duration": 43, "velocity": 89}, {"time": 60241, "pitch": 62, "duration": 36, "velocity": 85}, {"time": 60358, "pitch": 62, "duration": 85, "velocity": 82}, {"time": 60359, "pitch": 59, "duration": 82, "velocity": 84}, {"time": 60360, "pitch": 55, "duration": 64, "velocity": 88}, {"time": 60478, "pitch": 57, "duration": 304, "velocity": 98}, {"time": 60479, "pitch": 60, "duration": 313, "velocity": 99}, {"time": 60480, "pitch": 64, "duration": 306, "velocity": 96}, {"time": 60957, "pitch": 57, "duration": 161, "velocity": 101}, {"time": 60958, "pitch": 60, "duration": 158, "velocity": 98}, {"time": 60959, "pitch": 64, "duration": 165, "velocity": 102}, {"time": 61200, "pitch": 57, "duration": 59, "velocity": 97}, {"time": 61201, "pitch": 60, "duration": 40, "velocity": 94}, {"time": 61202, "pitch": 64, "duration": 68, "velocity": 101}, {"time": 61321, "pitch": 64, "duration": 79, "velocity": 99}, {"time": 61322, "pitch": 60, "duration": 27, "velocity": 87}, {"time": 61323, "pitch": 57, "duration": 60, "velocity": 76}, {"time": 61443, "pitch": 55, "duration": 355, "velocity": 98}, {"time": 61444, "pitch": 59, "duration": 359, "velocity": 99}, {"time": 61445, "pitch": 62, "duration": 362, "velocity": 91}, {"time": 61921, "pitch": 55, "duration": 157, "velocity": 100}, {"time": 61922, "pitch": 59, "duration": 152, "velocity": 96}, {"time": 61923, "pitch": 62, "duration": 150, "velocity": 91}, {"time": 62161, "pitch": 55, "duration": 59, "velocity": 86}, {"time": 62162, "pitch": 59, "duration": 31, "velocity": 88}, {"time": 62163, "pitch": 62, "duration": 36, "velocity": 84}, {"time": 62281, "pitch": 62, "duration": 103, "velocity": 91}, {"time": 62282, "pitch": 55, "duration": 94, "velocity": 90}, {"time": 62282, "pitch": 59, "duration": 98, "velocity": 83}, {"time": 62400, "pitch": 53, "duration": 319, "velocity": 96}, {"time": 62401, "pitch": 57, "duration": 326, "velocity": 89}, {"time": 62402, "pitch": 60, "duration": 322, "velocity": 98}, {"time": 62879, "pitch": 53, "duration": 171, "velocity": 100}, {"time": 62880, "pitch": 57, "duration": 168, "velocity": 101}, {"time": 62881, "pitch": 60, "duration": 159, "velocity": 90}, {"time": 63118, "pitch": 53, "duration": 40, "velocity": 95}, {"time": 63119, "pitch": 57, "duration": 31, "velocity": 98}, {"time": 63120, "pitch": 60, "duration": 36, "velocity": 90}, {"time": 63238, "pitch": 60, "duration": 63, "velocity": 90}, {"time": 63239, "pitch": 57, "duration": 38, "velocity": 95}, {"time": 63240, "pitch": 53, "duration": 58, "velocity": 98}, {"time": 63358, "pitch": 52, "duration": 336, "velocity": 95}, {"time": 63359, "pitch": 55, "duration": 338, "velocity": 98}, {"time": 63360, "pitch": 60, "duration": 351, "velocity": 90}, {"time": 63844, "pitch": 52, "duration": 174, "velocity": 95}, {"time": 63845, "pitch": 55, "duration": 159, "velocity": 98}, {"time": 63846, "pitch": 60, "duration": 165, "velocity": 90}, {"time": 64083, "pitch": 52, "duration": 62, "velocity": 95}, {"time": 64084, "pitch": 55, "duration": 33, "velocity": 98}, {"time": 64085, "pitch": 60, "duration": 33, "velocity": 90}, {"time": 64204, "pitch": 55, "duration": 77, "velocity": 90}, {"time": 64205, "pitch": 52, "duration": 66, "velocity": 95}, {"time": 64322, "pitch": 53, "duration": 311, "velocity": 90}, {"time": 64323, "pitch": 57, "duration": 320, "velocity": 95}, {"time": 64324, "pitch": 60, "duration": 320, "velocity": 98}, {"time": 64801, "pitch": 53, "duration": 147, "velocity": 90}, {"time": 64802, "pitch": 57, "duration": 148, "velocity": 95}, {"time": 64803, "pitch": 60, "duration": 145, "velocity": 98}, {"time": 65040, "pitch": 53, "duration": 70, "velocity": 90}, {"time": 65041, "pitch": 57, "duration": 31, "velocity": 95}, {"time": 65042, "pitch": 60, "duration": 53, "velocity": 98}, {"time": 65160, "pitch": 60, "duration": 40, "velocity": 90}, {"time": 65161, "pitch": 57, "duration": 41, "velocity": 95}, {"time": 65162, "pitch": 53, "duration": 67, "velocity": 100}, {"time": 65281, "pitch": 55, "duration": 336, "velocity": 90}, {"time": 65281, "pitch": 59, "duration": 338, "velocity": 95}, {"time": 65282, "pitch": 62, "duration": 324, "velocity": 98}, {"time": 65759, "pitch": 55, "duration": 161, "velocity": 90}, {"time": 65759, "pitch": 59, "duration": 160, "velocity": 95}, {"time": 65760, "pitch": 62, "duration": 160, "velocity": 98}, {"time": 65999, "pitch": 55, "duration": 57, "velocity": 90}, {"time": 65999, "pitch": 59, "duration": 29, "velocity": 91}, {"time": 66000, "pitch": 62, "duration": 43, "velocity": 95}, {"time": 66117, "pitch": 62, "duration": 100, "velocity": 90}, {"time": 66118, "pitch": 59, "duration": 75, "velocity": 95}, {"time": 66119, "pitch": 55, "duration": 88, "velocity": 100}, {"time": 66237, "pitch": 60, "duration": 351, "velocity": 90}, {"time": 66238, "pitch": 55, "duration": 351, "velocity": 95}, {"time": 66240, "pitch": 64, "duration": 354, "velocity": 100}, {"time": 66723, "pitch": 55, "duration": 162, "velocity": 99}, {"time": 66724, "pitch": 60, "duration": 159, "velocity": 94}, {"time": 66725, "pitch": 64, "duration": 152, "velocity": 102}, {"time": 66963, "pitch": 55, "duration": 39, "velocity": 86}, {"time": 66964, "pitch": 60, "duration": 30, "velocity": 76}, {"time": 66965, "pitch": 64, "duration": 41, "velocity": 84}, {"time": 67082, "pitch": 64, "duration": 86, "velocity": 92}, {"time": 67083, "pitch": 60, "duration": 62, "velocity": 82}, {"time": 67084, "pitch": 55, "duration": 70, "velocity": 81}, {"time": 67202, "pitch": 55, "duration": 369, "velocity": 87}, {"time": 67203, "pitch": 59, "duration": 370, "velocity": 102}, {"time": 67204, "pitch": 62, "duration": 368, "velocity": 92}, {"time": 67681, "pitch": 55, "duration": 148, "velocity": 98}, {"time": 67682, "pitch": 59, "duration": 150, "velocity": 91}, {"time": 67683, "pitch": 62, "duration": 161, "velocity": 93}, {"time": 67920, "pitch": 55, "duration": 64, "velocity": 90}, {"time": 67921, "pitch": 59, "duration": 43, "velocity": 89}, {"time": 67922, "pitch": 62, "duration": 36, "velocity": 85}, {"time": 68040, "pitch": 62, "duration": 84, "velocity": 82}, {"time": 68041, "pitch": 59, "duration": 81, "velocity": 84}, {"time": 68042, "pitch": 55, "duration": 63, "velocity": 88}, {"time": 68159, "pitch": 57, "duration": 304, "velocity": 98}, {"time": 68160, "pitch": 60, "duration": 313, "velocity": 99}, {"time": 68161, "pitch": 64, "duration": 306, "velocity": 96}, {"time": 68638, "pitch": 57, "duration": 159, "velocity": 101}, {"time": 68639, "pitch": 60, "duration": 156, "velocity": 98}, {"time": 68640, "pitch": 64, "duration": 163, "velocity": 102}, {"time": 68877, "pitch": 57, "duration": 59, "velocity": 97}, {"time": 68878, "pitch": 60, "duration": 40, "velocity": 94}, {"time": 68879, "pitch": 64, "duration": 67, "velocity": 101}, {"time": 68997, "pitch": 64, "duration": 78, "velocity": 99}, {"time": 68998, "pitch": 60, "duration": 26, "velocity": 87}, {"time": 68999, "pitch": 57, "duration": 59, "velocity": 76}, {"time": 69117, "pitch": 55, "duration": 360, "velocity": 98}, {"time": 69118, "pitch": 59, "duration": 364, "velocity": 99}, {"time": 69119, "pitch": 62, "duration": 367, "velocity": 91}, {"time": 69603, "pitch": 55, "duration": 156, "velocity": 100}, {"time": 69604, "pitch": 59, "duration": 151, "velocity": 96}, {"time": 69605, "pitch": 62, "duration": 149, "velocity": 91}, {"time": 69842, "pitch": 55, "duration": 59, "velocity": 86}, {"time": 69843, "pitch": 59, "duration": 31, "velocity": 88}, {"time": 69844, "pitch": 62, "duration": 36, "velocity": 84}, {"time": 69962, "pitch": 62, "duration": 104, "velocity": 91}, {"time": 69963, "pitch": 59, "duration": 99, "velocity": 83}, {"time": 69964, "pitch": 55, "duration": 94, "velocity": 90}, {"time": 70082, "pitch": 53, "duration": 319, "velocity": 96}, {"time": 70083, "pitch": 57, "duration": 326, "velocity": 89}, {"time": 70084, "pitch": 60, "duration": 322, "velocity": 98}, {"time": 70560, "pitch": 53, "duration": 172, "velocity": 100}, {"time": 70561, "pitch": 57, "duration": 169, "velocity": 101}, {"time": 70562, "pitch": 60, "duration": 160, "velocity": 90}, {"time": 70800, "pitch": 53, "duration": 39, "velocity": 95}, {"time": 70801, "pitch": 57, "duration": 30, "velocity": 98}, {"time": 70802, "pitch": 60, "duration": 35, "velocity": 90}, {"time": 70919, "pitch": 60, "duration": 63, "velocity": 90}, {"time": 70920, "pitch": 57, "duration": 38, "velocity": 95}, {"time": 70921, "pitch": 53, "duration": 58, "velocity": 98}, {"time": 71039, "pitch": 52, "duration": 331, "velocity": 95}, {"time": 71040, "pitch": 55, "duration": 333, "velocity": 98}, {"time": 71041, "pitch": 60, "duration": 346, "velocity": 90}, {"time": 71518, "pitch": 52, "duration": 177, "velocity": 95}, {"time": 71519, "pitch": 55, "duration": 162, "velocity": 98}, {"time": 71520, "pitch": 60, "duration": 168, "velocity": 90}, {"time": 71761, "pitch": 52, "duration": 62, "velocity": 95}, {"time": 71762, "pitch": 55, "duration": 33, "velocity": 98}, {"time": 71763, "pitch": 60, "duration": 33, "velocity": 90}, {"time": 71882, "pitch": 60, "duration": 79, "velocity": 90}, {"time": 71883, "pitch": 55, "duration": 79, "velocity": 90}, {"time": 71884, "pitch": 52, "duration": 67, "velocity": 95}, {"time": 72004, "pitch": 53, "duration": 319, "velocity": 96}, {"time": 72005, "pitch": 57, "duration": 326, "velocity": 89}, {"time": 72006, "pitch": 60, "duration": 322, "velocity": 98}, {"time": 72482, "pitch": 53, "duration": 172, "velocity": 100}, {"time": 72483, "pitch": 57, "duration": 169, "velocity": 101}, {"time": 72484, "pitch": 60, "duration": 160, "velocity": 90}, {"time": 72722, "pitch": 53, "duration": 40, "velocity": 95}, {"time": 72723, "pitch": 57, "duration": 31, "velocity": 98}, {"time": 72724, "pitch": 60, "duration": 36, "velocity": 90}, {"time": 72841, "pitch": 60, "duration": 63, "velocity": 90}, {"time": 72842, "pitch": 57, "duration": 38, "velocity": 95}, {"time": 72843, "pitch": 53, "duration": 58, "velocity": 98}, {"time": 72961, "pitch": 55, "duration": 318, "velocity": 93}, {"time": 72963, "pitch": 60, "duration": 326, "velocity": 95}, {"time": 72965, "pitch": 64, "duration": 328, "velocity": 100}, {"time": 73440, "pitch": 55, "duration": 290, "velocity": 96}, {"time": 73442, "pitch": 59, "duration": 303, "velocity": 100}, {"time": 73444, "pitch": 62, "duration": 322, "velocity": 105}, {"time": 73919, "pitch": 57, "duration": 351, "velocity": 85}, {"time": 73920, "pitch": 60, "duration": 352, "velocity": 90}, {"time": 73922, "pitch": 64, "duration": 355, "velocity": 92}, {"time": 74398, "pitch": 57, "duration": 179, "velocity": 90}, {"time": 74399, "pitch": 60, "duration": 175, "velocity": 92}, {"time": 74401, "pitch": 64, "duration": 176, "velocity": 95}, {"time": 74641, "pitch": 64, "duration": 39, "velocity": 90}, {"time": 74642, "pitch": 60, "duration": 30, "velocity": 92}, {"time": 74643, "pitch": 57, "duration": 52, "velocity": 95}, {"time": 74763, "pitch": 57, "duration": 52, "velocity": 90}, {"time": 74764, "pitch": 60, "duration": 38, "velocity": 92}, {"time": 74765, "pitch": 64, "duration": 72, "velocity": 95}, {"time": 74883, "pitch": 55, "duration": 373, "velocity": 90}, {"time": 74884, "pitch": 59, "duration": 382, "velocity": 92}, {"time": 74885, "pitch": 62, "duration": 368, "velocity": 95}, {"time": 75362, "pitch": 55, "duration": 168, "velocity": 92}, {"time": 75363, "pitch": 59, "duration": 163, "velocity": 100}, {"time": 75364, "pitch": 62, "duration": 158, "velocity": 105}, {"time": 75601, "pitch": 55, "duration": 100, "velocity": 90}, {"time": 75602, "pitch": 59, "duration": 127, "velocity": 92}, {"time": 75603, "pitch": 62, "duration": 133, "velocity": 95}, {"time": 75841, "pitch": 53, "duration": 384, "velocity": 90}, {"time": 75842, "pitch": 57, "duration": 383, "velocity": 92}, {"time": 75843, "pitch": 60, "duration": 382, "velocity": 95}, {"time": 76319, "pitch": 53, "duration": 159, "velocity": 91}, {"time": 76320, "pitch": 57, "duration": 157, "velocity": 95}, {"time": 76321, "pitch": 60, "duration": 161, "velocity": 98}, {"time": 76559, "pitch": 53, "duration": 33, "velocity": 91}, {"time": 76560, "pitch": 57, "duration": 40, "velocity": 95}, {"time": 76561, "pitch": 60, "duration": 36, "velocity": 98}, {"time": 76678, "pitch": 60, "duration": 69, "velocity": 91}, {"time": 76679, "pitch": 57, "duration": 70, "velocity": 92}, {"time": 76680, "pitch": 53, "duration": 39, "velocity": 98}, {"time": 76798, "pitch": 55, "duration": 367, "velocity": 91}, {"time": 76799, "pitch": 59, "duration": 381, "velocity": 95}, {"time": 76800, "pitch": 62, "duration": 374, "velocity": 98}, {"time": 77277, "pitch": 55, "duration": 143, "velocity": 91}, {"time": 77278, "pitch": 59, "duration": 159, "velocity": 95}, {"time": 77279, "pitch": 62, "duration": 139, "velocity": 98}, {"time": 77520, "pitch": 55, "duration": 90, "velocity": 91}, {"time": 77521, "pitch": 59, "duration": 103, "velocity": 95}, {"time": 77522, "pitch": 62, "duration": 100, "velocity": 98}, {"time": 77764, "pitch": 57, "duration": 359, "velocity": 91}, {"time": 77765, "pitch": 60, "duration": 357, "velocity": 98}, {"time": 77766, "pitch": 64, "duration": 334, "velocity": 95}, {"time": 78243, "pitch": 57, "duration": 148, "velocity": 91}, {"time": 78244, "pitch": 60, "duration": 146, "velocity": 95}, {"time": 78245, "pitch": 64, "duration": 135, "velocity": 100}, {"time": 78482, "pitch": 57, "duration": 44, "velocity": 87}, {"time": 78483, "pitch": 60, "duration": 28, "velocity": 82}, {"time": 78484, "pitch": 64, "duration": 39, "velocity": 90}, {"time": 78601, "pitch": 64, "duration": 76, "velocity": 95}, {"time": 78602, "pitch": 60, "duration": 60, "velocity": 90}, {"time": 78603, "pitch": 57, "duration": 46, "velocity": 95}, {"time": 78720, "pitch": 55, "duration": 355, "velocity": 98}, {"time": 78721, "pitch": 59, "duration": 365, "velocity": 90}, {"time": 78722, "pitch": 62, "duration": 357, "velocity": 95}, {"time": 79199, "pitch": 55, "duration": 131, "velocity": 98}, {"time": 79200, "pitch": 59, "duration": 140, "velocity": 90}, {"time": 79201, "pitch": 62, "duration": 133, "velocity": 95}, {"time": 79438, "pitch": 55, "duration": 115, "velocity": 98}, {"time": 79439, "pitch": 59, "duration": 137, "velocity": 90}, {"time": 79440, "pitch": 62, "duration": 122, "velocity": 95}, {"time": 79678, "pitch": 53, "duration": 384, "velocity": 90}, {"time": 79679, "pitch": 57, "duration": 383, "velocity": 92}, {"time": 79680, "pitch": 60, "duration": 382, "velocity": 95}, {"time": 80156, "pitch": 53, "duration": 161, "velocity": 91}, {"time": 80157, "pitch": 57, "duration": 159, "velocity": 95}, {"time": 80158, "pitch": 60, "duration": 163, "velocity": 98}, {"time": 80399, "pitch": 53, "duration": 34, "velocity": 91}, {"time": 80400, "pitch": 57, "duration": 41, "velocity": 95}, {"time": 80401, "pitch": 60, "duration": 37, "velocity": 98}, {"time": 80521, "pitch": 60, "duration": 70, "velocity": 91}, {"time": 80522, "pitch": 57, "duration": 71, "velocity": 92}, {"time": 80523, "pitch": 53, "duration": 39, "velocity": 98}, {"time": 80642, "pitch": 55, "duration": 367, "velocity": 91}, {"time": 80643, "pitch": 59, "duration": 381, "velocity": 95}, {"time": 80644, "pitch": 62, "duration": 374, "velocity": 98}, {"time": 81121, "pitch": 55, "duration": 142, "velocity": 91}, {"time": 81122, "pitch": 59, "duration": 157, "velocity": 95}, {"time": 81123, "pitch": 62, "duration": 138, "velocity": 98}, {"time": 81360, "pitch": 55, "duration": 89, "velocity": 91}, {"time": 81361, "pitch": 59, "duration": 102, "velocity": 95}, {"time": 81362, "pitch": 62, "duration": 99, "velocity": 98}, {"time": 81600, "pitch": 57, "duration": 103, "velocity": 90}, {"time": 81601, "pitch": 60, "duration": 103, "velocity": 93}, {"time": 81602, "pitch": 64, "duration": 115, "velocity": 96}, {"time": 81839, "pitch": 57, "duration": 100, "velocity": 90}, {"time": 81840, "pitch": 60, "duration": 96, "velocity": 95}, {"time": 81841, "pitch": 64, "duration": 108, "velocity": 98}, {"time": 82078, "pitch": 57, "duration": 101, "velocity": 90}, {"time": 82079, "pitch": 60, "duration": 104, "velocity": 95}, {"time": 82080, "pitch": 64, "duration": 104, "velocity": 98}, {"time": 82318, "pitch": 57, "duration": 86, "velocity": 90}, {"time": 82319, "pitch": 60, "duration": 104, "velocity": 95}, {"time": 82320, "pitch": 64, "duration": 87, "velocity": 98}, {"time": 82557, "pitch": 56, "duration": 110, "velocity": 90}, {"time": 82558, "pitch": 60, "duration": 128, "velocity": 95}, {"time": 82559, "pitch": 64, "duration": 135, "velocity": 98}, {"time": 82800, "pitch": 56, "duration": 102, "velocity": 90}, {"time": 82801, "pitch": 60, "duration": 87, "velocity": 95}, {"time": 82802, "pitch": 64, "duration": 114, "velocity": 98}, {"time": 83043, "pitch": 56, "duration": 110, "velocity": 90}, {"time": 83044, "pitch": 60, "duration": 100, "velocity": 95}, {"time": 83045, "pitch": 64, "duration": 112, "velocity": 98}, {"time": 83283, "pitch": 56, "duration": 102, "velocity": 90}, {"time": 83284, "pitch": 60, "duration": 97, "velocity": 95}, {"time": 83285, "pitch": 64, "duration": 113, "velocity": 98}, {"time": 83522, "pitch": 55, "duration": 83, "velocity": 90}, {"time": 83523, "pitch": 60, "duration": 110, "velocity": 95}, {"time": 83524, "pitch": 64, "duration": 74, "velocity": 98}, {"time": 83761, "pitch": 55, "duration": 93, "velocity": 91}, {"time": 83762, "pitch": 60, "duration": 98, "velocity": 95}, {"time": 83763, "pitch": 64, "duration": 80, "velocity": 98}, {"time": 84001, "pitch": 55, "duration": 70, "velocity": 91}, {"time": 84002, "pitch": 60, "duration": 82, "velocity": 95}, {"time": 84003, "pitch": 64, "duration": 93, "velocity": 98}, {"time": 84240, "pitch": 55, "duration": 83, "velocity": 90}, {"time": 84241, "pitch": 60, "duration": 93, "velocity": 92}, {"time": 84242, "pitch": 64, "duration": 92, "velocity": 95}, {"time": 84479, "pitch": 54, "duration": 108, "velocity": 90}, {"time": 84480, "pitch": 60, "duration": 115, "velocity": 95}, {"time": 84481, "pitch": 64, "duration": 126, "velocity": 98}, {"time": 84719, "pitch": 54, "duration": 113, "velocity": 90}, {"time": 84720, "pitch": 60, "duration": 94, "velocity": 91}, {"time": 84721, "pitch": 64, "duration": 103, "velocity": 94}, {"time": 84958, "pitch": 54, "duration": 113, "velocity": 90}, {"time": 84959, "pitch": 60, "duration": 121, "velocity": 95}, {"time": 84960, "pitch": 64, "duration": 116, "velocity": 98}, {"time": 85197, "pitch": 54, "duration": 124, "velocity": 90}, {"time": 85198, "pitch": 60, "duration": 133, "velocity": 95}, {"time": 85199, "pitch": 64, "duration": 127, "velocity": 98}, {"time": 85437, "pitch": 53, "duration": 105, "velocity": 90}, {"time": 85438, "pitch": 57, "duration": 105, "velocity": 91}, {"time": 85439, "pitch": 60, "duration": 111, "velocity": 95}, {"time": 85680, "pitch": 53, "duration": 76, "velocity": 90}, {"time": 85681, "pitch": 57, "duration": 66, "velocity": 91}, {"time": 85682, "pitch": 60, "duration": 104, "velocity": 97}, {"time": 85923, "pitch": 53, "duration": 75, "velocity": 90}, {"time": 85924, "pitch": 57, "duration": 79, "velocity": 95}, {"time": 85925, "pitch": 60, "duration": 104, "velocity": 98}, {"time": 86162, "pitch": 53, "duration": 44, "velocity": 90}, {"time": 86163, "pitch": 57, "duration": 78, "velocity": 91}, {"time": 86164, "pitch": 60, "duration": 84, "velocity": 94}, {"time": 86402, "pitch": 53, "duration": 67, "velocity": 97}, {"time": 86403, "pitch": 57, "duration": 80, "velocity": 98}, {"time": 86404, "pitch": 60, "duration": 96, "velocity": 95}, {"time": 86641, "pitch": 53, "duration": 66, "velocity": 91}, {"time": 86642, "pitch": 57, "duration": 78, "velocity": 94}, {"time": 86643, "pitch": 60, "duration": 88, "velocity": 98}, {"time": 86880, "pitch": 53, "duration": 72, "velocity": 91}, {"time": 86881, "pitch": 57, "duration": 92, "velocity": 94}, {"time": 86882, "pitch": 60, "duration": 106, "velocity": 97}, {"time": 87120, "pitch": 53, "duration": 65, "velocity": 95}, {"time": 87121, "pitch": 57, "duration": 82, "velocity": 98}, {"time": 87122, "pitch": 60, "duration": 102, "velocity": 99}, {"time": 87359, "pitch": 55, "duration": 73, "velocity": 90}, {"time": 87360, "pitch": 59, "duration": 86, "velocity": 91}, {"time": 87361, "pitch": 62, "duration": 102, "velocity": 95}, {"time": 87598, "pitch": 55, "duration": 68, "velocity": 90}, {"time": 87599, "pitch": 59, "duration": 83, "velocity": 91}, {"time": 87600, "pitch": 62, "duration": 92, "velocity": 97}, {"time": 87838, "pitch": 55, "duration": 70, "velocity": 90}, {"time": 87839, "pitch": 59, "duration": 79, "velocity": 95}, {"time": 87840, "pitch": 62, "duration": 95, "velocity": 98}, {"time": 88077, "pitch": 55, "duration": 69, "velocity": 90}, {"time": 88078, "pitch": 59, "duration": 88, "velocity": 94}, {"time": 88079, "pitch": 62, "duration": 96, "velocity": 97}, {"time": 88316, "pitch": 55, "duration": 71, "velocity": 90}, {"time": 88317, "pitch": 59, "duration": 77, "velocity": 91}, {"time": 88318, "pitch": 62, "duration": 99, "velocity": 94}, {"time": 88559, "pitch": 55, "duration": 66, "velocity": 95}, {"time": 88560, "pitch": 59, "duration": 86, "velocity": 98}, {"time": 88561, "pitch": 62, "duration": 89, "velocity": 99}, {"time": 88802, "pitch": 55, "duration": 78, "velocity": 97}, {"time": 88803, "pitch": 59, "duration": 88, "velocity": 98}, {"time": 88804, "pitch": 62, "duration": 101, "velocity": 99}, {"time": 89042, "pitch": 55, "duration": 76, "velocity": 90}, {"time": 89043, "pitch": 59, "duration": 93, "velocity": 91}, {"time": 89044, "pitch": 62, "duration": 98, "velocity": 94}, {"time": 89281, "pitch": 55, "duration": 94, "velocity": 90}, {"time": 89282, "pitch": 60, "duration": 109, "velocity": 94}, {"time": 89283, "pitch": 64, "duration": 117, "velocity": 95}, {"time": 89520, "pitch": 55, "duration": 76, "velocity": 90}, {"time": 89521, "pitch": 60, "duration": 78, "velocity": 91}, {"time": 89522, "pitch": 64, "duration": 86, "velocity": 94}, {"time": 89760, "pitch": 55, "duration": 85, "velocity": 95}, {"time": 89761, "pitch": 60, "duration": 95, "velocity": 98}, {"time": 89762, "pitch": 64, "duration": 101, "velocity": 99}, {"time": 89999, "pitch": 55, "duration": 85, "velocity": 90}, {"time": 90000, "pitch": 60, "duration": 93, "velocity": 91}, {"time": 90001, "pitch": 64, "duration": 92, "velocity": 94}, {"time": 90238, "pitch": 53, "duration": 93, "velocity": 90}, {"time": 90239, "pitch": 57, "duration": 105, "velocity": 95}, {"time": 90240, "pitch": 60, "duration": 119, "velocity": 98}, {"time": 90478, "pitch": 53, "duration": 92, "velocity": 90}, {"time": 90479, "pitch": 57, "duration": 84, "velocity": 94}, {"time": 90480, "pitch": 60, "duration": 94, "velocity": 98}, {"time": 90717, "pitch": 53, "duration": 94, "velocity": 97}, {"time": 90718, "pitch": 57, "duration": 87, "velocity": 98}, {"time": 90719, "pitch": 60, "duration": 106, "velocity": 100}, {"time": 90960, "pitch": 53, "duration": 80, "velocity": 90}, {"time": 90961, "pitch": 57, "duration": 90, "velocity": 94}, {"time": 90962, "pitch": 60, "duration": 122, "velocity": 100}, {"time": 91203, "pitch": 55, "duration": 91, "velocity": 90}, {"time": 91204, "pitch": 59, "duration": 102, "velocity": 95}, {"time": 91205, "pitch": 62, "duration": 101, "velocity": 100}, {"time": 91443, "pitch": 55, "duration": 78, "velocity": 90}, {"time": 91444, "pitch": 59, "duration": 85, "velocity": 91}, {"time": 91445, "pitch": 62, "duration": 80, "velocity": 97}, {"time": 91682, "pitch": 55, "duration": 79, "velocity": 94}, {"time": 91683, "pitch": 59, "duration": 95, "velocity": 95}, {"time": 91684, "pitch": 62, "duration": 49, "velocity": 98}, {"time": 91921, "pitch": 56, "duration": 376, "velocity": 90}, {"time": 91922, "pitch": 59, "duration": 397, "velocity": 91}, {"time": 91923, "pitch": 62, "duration": 364, "velocity": 94}, {"time": 92400, "pitch": 56, "duration": 76, "velocity": 97}, {"time": 92401, "pitch": 59, "duration": 99, "velocity": 98}, {"time": 92402, "pitch": 62, "duration": 89, "velocity": 95}, {"time": 92639, "pitch": 56, "duration": 72, "velocity": 90}, {"time": 92640, "pitch": 59, "duration": 100, "velocity": 91}, {"time": 92641, "pitch": 62, "duration": 90, "velocity": 94}, {"time": 92879, "pitch": 56, "duration": 84, "velocity": 97}, {"time": 92880, "pitch": 59, "duration": 107, "velocity": 98}, {"time": 92881, "pitch": 62, "duration": 101, "velocity": 95}, {"time": 93119, "pitch": 57, "duration": 102, "velocity": 91}, {"time": 93119, "pitch": 60, "duration": 104, "velocity": 90}, {"time": 93120, "pitch": 64, "duration": 100, "velocity": 94}, {"time": 93358, "pitch": 57, "duration": 85, "velocity": 97}, {"time": 93358, "pitch": 60, "duration": 80, "velocity": 98}, {"time": 93359, "pitch": 64, "duration": 76, "velocity": 95}, {"time": 93597, "pitch": 57, "duration": 80, "velocity": 90}, {"time": 93598, "pitch": 60, "duration": 102, "velocity": 91}, {"time": 93599, "pitch": 64, "duration": 104, "velocity": 94}, {"time": 93840, "pitch": 55, "duration": 315, "velocity": 97}, {"time": 93841, "pitch": 59, "duration": 322, "velocity": 98}, {"time": 93842, "pitch": 64, "duration": 307, "velocity": 102}, {"time": 94322, "pitch": 55, "duration": 78, "velocity": 90}, {"time": 94323, "pitch": 59, "duration": 78, "velocity": 91}, {"time": 94324, "pitch": 64, "duration": 84, "velocity": 87}, {"time": 94562, "pitch": 55, "duration": 103, "velocity": 90}, {"time": 94563, "pitch": 59, "duration": 107, "velocity": 91}, {"time": 94564, "pitch": 64, "duration": 100, "velocity": 98}, {"time": 94801, "pitch": 55, "duration": 105, "velocity": 90}, {"time": 94802, "pitch": 59, "duration": 107, "velocity": 94}, {"time": 94803, "pitch": 64, "duration": 107, "velocity": 94}, {"time": 95040, "pitch": 53, "duration": 122, "velocity": 90}, {"time": 95041, "pitch": 57, "duration": 122, "velocity": 91}, {"time": 95042, "pitch": 60, "duration": 131, "velocity": 95}, {"time": 95280, "pitch": 53, "duration": 62, "velocity": 97}, {"time": 95281, "pitch": 57, "duration": 76, "velocity": 98}, {"time": 95282, "pitch": 60, "duration": 91, "velocity": 99}, {"time": 95519, "pitch": 53, "duration": 82, "velocity": 90}, {"time": 95520, "pitch": 57, "duration": 91, "velocity": 91}, {"time": 95521, "pitch": 60, "duration": 119, "velocity": 94}, {"time": 95758, "pitch": 55, "duration": 315, "velocity": 97}, {"time": 95759, "pitch": 59, "duration": 325, "velocity": 95}, {"time": 95760, "pitch": 62, "duration": 315, "velocity": 98}, {"time": 96237, "pitch": 55, "duration": 81, "velocity": 90}, {"time": 96238, "pitch": 59, "duration": 90, "velocity": 91}, {"time": 96239, "pitch": 62, "duration": 84, "velocity": 97}, {"time": 96476, "pitch": 55, "duration": 89, "velocity": 94}, {"time": 96477, "pitch": 59, "duration": 98, "velocity": 91}, {"time": 96478, "pitch": 62, "duration": 92, "velocity": 100}, {"time": 96719, "pitch": 55, "duration": 89, "velocity": 90}, {"time": 96720, "pitch": 59, "duration": 112, "velocity": 95}, {"time": 96721, "pitch": 62, "duration": 111, "velocity": 98}, {"time": 96962, "pitch": 55, "duration": 94, "velocity": 90}, {"time": 96963, "pitch": 60, "duration": 109, "velocity": 94}, {"time": 96964, "pitch": 64, "duration": 117, "velocity": 95}, {"time": 97202, "pitch": 55, "duration": 76, "velocity": 90}, {"time": 97203, "pitch": 60, "duration": 78, "velocity": 91}, {"time": 97204, "pitch": 64, "duration": 86, "velocity": 94}, {"time": 97441, "pitch": 55, "duration": 85, "velocity": 95}, {"time": 97442, "pitch": 60, "duration": 95, "velocity": 98}, {"time": 97443, "pitch": 64, "duration": 101, "velocity": 99}, {"time": 97680, "pitch": 55, "duration": 85, "velocity": 90}, {"time": 97681, "pitch": 60, "duration": 93, "velocity": 91}, {"time": 97682, "pitch": 64, "duration": 92, "velocity": 94}, {"time": 97920, "pitch": 53, "duration": 93, "velocity": 90}, {"time": 97921, "pitch": 57, "duration": 105, "velocity": 95}, {"time": 97922, "pitch": 60, "duration": 118, "velocity": 98}, {"time": 98159, "pitch": 53, "duration": 92, "velocity": 90}, {"time": 98160, "pitch": 57, "duration": 84, "velocity": 94}, {"time": 98161, "pitch": 60, "duration": 94, "velocity": 98}, {"time": 98399, "pitch": 53, "duration": 92, "velocity": 97}, {"time": 98400, "pitch": 57, "duration": 85, "velocity": 98}, {"time": 98400, "pitch": 60, "duration": 104, "velocity": 100}, {"time": 98638, "pitch": 53, "duration": 79, "velocity": 90}, {"time": 98639, "pitch": 57, "duration": 89, "velocity": 94}, {"time": 98640, "pitch": 60, "duration": 120, "velocity": 100}, {"time": 98877, "pitch": 55, "duration": 92, "velocity": 90}, {"time": 98878, "pitch": 59, "duration": 103, "velocity": 95}, {"time": 98879, "pitch": 62, "duration": 102, "velocity": 100}, {"time": 99120, "pitch": 55, "duration": 80, "velocity": 90}, {"time": 99121, "pitch": 59, "duration": 87, "velocity": 91}, {"time": 99122, "pitch": 62, "duration": 82, "velocity": 97}, {"time": 99363, "pitch": 55, "duration": 79, "velocity": 94}, {"time": 99364, "pitch": 59, "duration": 95, "velocity": 95}, {"time": 99365, "pitch": 62, "duration": 49, "velocity": 98}, {"time": 99603, "pitch": 56, "duration": 376, "velocity": 90}, {"time": 99604, "pitch": 59, "duration": 397, "velocity": 91}, {"time": 99605, "pitch": 62, "duration": 364, "velocity": 94}, {"time": 100081, "pitch": 56, "duration": 76, "velocity": 97}, {"time": 100082, "pitch": 59, "duration": 99, "velocity": 98}, {"time": 100083, "pitch": 62, "duration": 89, "velocity": 95}, {"time": 100321, "pitch": 56, "duration": 72, "velocity": 90}, {"time": 100322, "pitch": 59, "duration": 99, "velocity": 91}, {"time": 100323, "pitch": 62, "duration": 89, "velocity": 94}, {"time": 100560, "pitch": 56, "duration": 85, "velocity": 97}, {"time": 100561, "pitch": 59, "duration": 108, "velocity": 98}, {"time": 100562, "pitch": 62, "duration": 102, "velocity": 95}, {"time": 100800, "pitch": 57, "duration": 102, "velocity": 91}, {"time": 100800, "pitch": 60, "duration": 104, "velocity": 90}, {"time": 100801, "pitch": 64, "duration": 100, "velocity": 94}, {"time": 101040, "pitch": 57, "duration": 84, "velocity": 97}, {"time": 101040, "pitch": 60, "duration": 80, "velocity": 98}, {"time": 101041, "pitch": 64, "duration": 76, "velocity": 95}, {"time": 101278, "pitch": 57, "duration": 79, "velocity": 90}, {"time": 101279, "pitch": 60, "duration": 101, "velocity": 91}, {"time": 101280, "pitch": 64, "duration": 103, "velocity": 94}, {"time": 101517, "pitch": 55, "duration": 313, "velocity": 97}, {"time": 101518, "pitch": 59, "duration": 320, "velocity": 98}, {"time": 101519, "pitch": 64, "duration": 305, "velocity": 102}, {"time": 102000, "pitch": 55, "duration": 79, "velocity": 90}, {"time": 102001, "pitch": 59, "duration": 79, "velocity": 91}, {"time": 102002, "pitch": 64, "duration": 85, "velocity": 87}, {"time": 102243, "pitch": 55, "duration": 104, "velocity": 90}, {"time": 102244, "pitch": 59, "duration": 108, "velocity": 91}, {"time": 102245, "pitch": 64, "duration": 101, "velocity": 98}, {"time": 102482, "pitch": 55, "duration": 105, "velocity": 90}, {"time": 102483, "pitch": 59, "duration": 107, "velocity": 94}, {"time": 102484, "pitch": 64, "duration": 107, "velocity": 94}, {"time": 102722, "pitch": 53, "duration": 121, "velocity": 90}, {"time": 102723, "pitch": 57, "duration": 121, "velocity": 91}, {"time": 102724, "pitch": 60, "duration": 130, "velocity": 95}, {"time": 102961, "pitch": 53, "duration": 63, "velocity": 97}, {"time": 102962, "pitch": 57, "duration": 77, "velocity": 98}, {"time": 102963, "pitch": 60, "duration": 92, "velocity": 99}, {"time": 103200, "pitch": 53, "duration": 82, "velocity": 90}, {"time": 103201, "pitch": 57, "duration": 91, "velocity": 91}, {"time": 103202, "pitch": 60, "duration": 119, "velocity": 94}, {"time": 103440, "pitch": 55, "duration": 315, "velocity": 97}, {"time": 103441, "pitch": 59, "duration": 325, "velocity": 95}, {"time": 103442, "pitch": 62, "duration": 315, "velocity": 98}, {"time": 103918, "pitch": 55, "duration": 81, "velocity": 90}, {"time": 103919, "pitch": 59, "duration": 90, "velocity": 91}, {"time": 103920, "pitch": 62, "duration": 84, "velocity": 97}, {"time": 104158, "pitch": 55, "duration": 87, "velocity": 94}, {"time": 104159, "pitch": 59, "duration": 95, "velocity": 91}, {"time": 104160, "pitch": 62, "duration": 90, "velocity": 100}, {"time": 104397, "pitch": 55, "duration": 87, "velocity": 90}, {"time": 104398, "pitch": 59, "duration": 110, "velocity": 95}, {"time": 104399, "pitch": 62, "duration": 109, "velocity": 98}, {"time": 104636, "pitch": 55, "duration": 151, "velocity": 90}, {"time": 104637, "pitch": 60, "duration": 154, "velocity": 95}, {"time": 104638, "pitch": 64, "duration": 156, "velocity": 102}, {"time": 104879, "pitch": 55, "duration": 56, "velocity": 90}, {"time": 104880, "pitch": 60, "duration": 41, "velocity": 95}, {"time": 104881, "pitch": 64, "duration": 54, "velocity": 98}, {"time": 105001, "pitch": 64, "duration": 68, "velocity": 90}, {"time": 105002, "pitch": 60, "duration": 35, "velocity": 95}, {"time": 105003, "pitch": 55, "duration": 52, "velocity": 98}, {"time": 105122, "pitch": 55, "duration": 149, "velocity": 90}, {"time": 105123, "pitch": 60, "duration": 152, "velocity": 95}, {"time": 105124, "pitch": 64, "duration": 154, "velocity": 102}, {"time": 105362, "pitch": 55, "duration": 55, "velocity": 90}, {"time": 105363, "pitch": 60, "duration": 40, "velocity": 95}, {"time": 105364, "pitch": 64, "duration": 53, "velocity": 98}, {"time": 105482, "pitch": 60, "duration": 35, "velocity": 95}, {"time": 105482, "pitch": 64, "duration": 66, "velocity": 90}, {"time": 105483, "pitch": 55, "duration": 51, "velocity": 98}, {"time": 105601, "pitch": 55, "duration": 149, "velocity": 90}, {"time": 105602, "pitch": 60, "duration": 152, "velocity": 95}, {"time": 105603, "pitch": 64, "duration": 154, "velocity": 102}, {"time": 105841, "pitch": 55, "duration": 54, "velocity": 90}, {"time": 105842, "pitch": 60, "duration": 39, "velocity": 95}, {"time": 105843, "pitch": 64, "duration": 52, "velocity": 98}, {"time": 105960, "pitch": 64, "duration": 67, "velocity": 90}, {"time": 105961, "pitch": 60, "duration": 35, "velocity": 95}, {"time": 105962, "pitch": 55, "duration": 51, "velocity": 98}, {"time": 106080, "pitch": 55, "duration": 148, "velocity": 90}, {"time": 106081, "pitch": 60, "duration": 151, "velocity": 95}, {"time": 106082, "pitch": 64, "duration": 153, "velocity": 102}, {"time": 106319, "pitch": 55, "duration": 55, "velocity": 90}, {"time": 106320, "pitch": 60, "duration": 40, "velocity": 95}, {"time": 106321, "pitch": 64, "duration": 53, "velocity": 98}, {"time": 106439, "pitch": 64, "duration": 67, "velocity": 90}, {"time": 106440, "pitch": 60, "duration": 35, "velocity": 95}, {"time": 106441, "pitch": 55, "duration": 51, "velocity": 98}, {"time": 106559, "pitch": 55, "duration": 182, "velocity": 90}, {"time": 106560, "pitch": 59, "duration": 156, "velocity": 95}, {"time": 106561, "pitch": 62, "duration": 162, "velocity": 98}, {"time": 106798, "pitch": 55, "duration": 26, "velocity": 90}, {"time": 106799, "pitch": 59, "duration": 31, "velocity": 91}, {"time": 106800, "pitch": 62, "duration": 41, "velocity": 98}, {"time": 106918, "pitch": 62, "duration": 63, "velocity": 90}, {"time": 106919, "pitch": 59, "duration": 65, "velocity": 95}, {"time": 106920, "pitch": 55, "duration": 39, "velocity": 98}, {"time": 107037, "pitch": 55, "duration": 174, "velocity": 90}, {"time": 107038, "pitch": 59, "duration": 174, "velocity": 91}, {"time": 107039, "pitch": 62, "duration": 178, "velocity": 99}, {"time": 107280, "pitch": 62, "duration": 39, "velocity": 90}, {"time": 107281, "pitch": 59, "duration": 32, "velocity": 95}, {"time": 107282, "pitch": 55, "duration": 50, "velocity": 98}, {"time": 107402, "pitch": 55, "duration": 55, "velocity": 90}, {"time": 107403, "pitch": 59, "duration": 61, "velocity": 95}, {"time": 107404, "pitch": 62, "duration": 61, "velocity": 98}, {"time": 107523, "pitch": 62, "duration": 65, "velocity": 90}, {"time": 107524, "pitch": 59, "duration": 68, "velocity": 95}, {"time": 107525, "pitch": 55, "duration": 65, "velocity": 100}, {"time": 107643, "pitch": 55, "duration": 68, "velocity": 91}, {"time": 107644, "pitch": 59, "duration": 74, "velocity": 95}, {"time": 107645, "pitch": 62, "duration": 75, "velocity": 95}, {"time": 107763, "pitch": 62, "duration": 184, "velocity": 90}, {"time": 107764, "pitch": 59, "duration": 178, "velocity": 95}, {"time": 107765, "pitch": 55, "duration": 177, "velocity": 100}, {"time": 108002, "pitch": 55, "duration": 167, "velocity": 90}, {"time": 108003, "pitch": 59, "duration": 168, "velocity": 95}, {"time": 108005, "pitch": 62, "duration": 170, "velocity": 100}, {"time": 108241, "pitch": 62, "duration": 117, "velocity": 90}, {"time": 108242, "pitch": 59, "duration": 112, "velocity": 95}, {"time": 108243, "pitch": 55, "duration": 109, "velocity": 97}, {"time": 108481, "pitch": 57, "duration": 155, "velocity": 90}, {"time": 108482, "pitch": 60, "duration": 154, "velocity": 95}, {"time": 108483, "pitch": 64, "duration": 158, "velocity": 98}, {"time": 108720, "pitch": 57, "duration": 57, "velocity": 90}, {"time": 108721, "pitch": 60, "duration": 29, "velocity": 95}, {"time": 108722, "pitch": 64, "duration": 36, "velocity": 98}, {"time": 108840, "pitch": 64, "duration": 72, "velocity": 90}, {"time": 108841, "pitch": 60, "duration": 34, "velocity": 95}, {"time": 108842, "pitch": 57, "duration": 67, "velocity": 100}, {"time": 108959, "pitch": 57, "duration": 156, "velocity": 90}, {"time": 108960, "pitch": 60, "duration": 155, "velocity": 95}, {"time": 108961, "pitch": 64, "duration": 159, "velocity": 98}, {"time": 109199, "pitch": 57, "duration": 57, "velocity": 90}, {"time": 109200, "pitch": 60, "duration": 29, "velocity": 95}, {"time": 109201, "pitch": 64, "duration": 36, "velocity": 98}, {"time": 109318, "pitch": 64, "duration": 72, "velocity": 90}, {"time": 109319, "pitch": 60, "duration": 34, "velocity": 95}, {"time": 109320, "pitch": 57, "duration": 67, "velocity": 100}, {"time": 109438, "pitch": 57, "duration": 166, "velocity": 90}, {"time": 109439, "pitch": 60, "duration": 158, "velocity": 93}, {"time": 109440, "pitch": 64, "duration": 165, "velocity": 101}, {"time": 109677, "pitch": 57, "duration": 133, "velocity": 90}, {"time": 109678, "pitch": 60, "duration": 146, "velocity": 95}, {"time": 109680, "pitch": 64, "duration": 141, "velocity": 100}, {"time": 109917, "pitch": 55, "duration": 115, "velocity": 90}, {"time": 109918, "pitch": 59, "duration": 120, "velocity": 95}, {"time": 109919, "pitch": 62, "duration": 115, "velocity": 97}, {"time": 110160, "pitch": 53, "duration": 268, "velocity": 90}, {"time": 110161, "pitch": 57, "duration": 275, "velocity": 95}, {"time": 110162, "pitch": 60, "duration": 288, "velocity": 100}, {"time": 110523, "pitch": 60, "duration": 39, "velocity": 90}, {"time": 110524, "pitch": 57, "duration": 35, "velocity": 95}, {"time": 110525, "pitch": 53, "duration": 52, "velocity": 98}, {"time": 110642, "pitch": 53, "duration": 182, "velocity": 90}, {"time": 110643, "pitch": 57, "duration": 173, "velocity": 91}, {"time": 110644, "pitch": 60, "duration": 185, "velocity": 98}, {"time": 110882, "pitch": 60, "duration": 160, "velocity": 90}, {"time": 110883, "pitch": 57, "duration": 152, "velocity": 91}, {"time": 110884, "pitch": 53, "duration": 152, "velocity": 95}, {"time": 111121, "pitch": 53, "duration": 39, "velocity": 90}, {"time": 111122, "pitch": 57, "duration": 28, "velocity": 95}, {"time": 111123, "pitch": 60, "duration": 50, "velocity": 100}, {"time": 111241, "pitch": 60, "duration": 94, "velocity": 90}, {"time": 111242, "pitch": 57, "duration": 87, "velocity": 95}, {"time": 111243, "pitch": 53, "duration": 70, "velocity": 98}, {"time": 111360, "pitch": 55, "duration": 138, "velocity": 90}, {"time": 111361, "pitch": 59, "duration": 153, "velocity": 92}, {"time": 111362, "pitch": 62, "duration": 144, "velocity": 98}, {"time": 111600, "pitch": 55, "duration": 80, "velocity": 90}, {"time": 111601, "pitch": 59, "duration": 94, "velocity": 95}, {"time": 111602, "pitch": 62, "duration": 103, "velocity": 100}, {"time": 111839, "pitch": 55, "duration": 93, "velocity": 90}, {"time": 111840, "pitch": 59, "duration": 115, "velocity": 95}, {"time": 111841, "pitch": 62, "duration": 107, "velocity": 98}, {"time": 112078, "pitch": 55, "duration": 88, "velocity": 90}, {"time": 112079, "pitch": 59, "duration": 110, "velocity": 95}, {"time": 112080, "pitch": 62, "duration": 97, "velocity": 90}, {"time": 112318, "pitch": 55, "duration": 132, "velocity": 90}, {"time": 112319, "pitch": 60, "duration": 135, "velocity": 95}, {"time": 112320, "pitch": 64, "duration": 133, "velocity": 100}, {"time": 112557, "pitch": 55, "duration": 94, "velocity": 90}, {"time": 112558, "pitch": 60, "duration": 98, "velocity": 95}, {"time": 112559, "pitch": 64, "duration": 99, "velocity": 99}, {"time": 112796, "pitch": 55, "duration": 136, "velocity": 90}, {"time": 112797, "pitch": 60, "duration": 133, "velocity": 95}, {"time": 112799, "pitch": 64, "duration": 137, "velocity": 102}, {"time": 113039, "pitch": 60, "duration": 92, "velocity": 90}, {"time": 113040, "pitch": 55, "duration": 82, "velocity": 92}, {"time": 113041, "pitch": 64, "duration": 107, "velocity": 100}, {"time": 113283, "pitch": 55, "duration": 122, "velocity": 90}, {"time": 113284, "pitch": 60, "duration": 120, "velocity": 95}, {"time": 113285, "pitch": 64, "duration": 139, "velocity": 103}, {"time": 113522, "pitch": 55, "duration": 89, "velocity": 93}, {"time": 113523, "pitch": 60, "duration": 100, "velocity": 94}, {"time": 113524, "pitch": 64, "duration": 108, "velocity": 100}, {"time": 113761, "pitch": 55, "duration": 123, "velocity": 90}, {"time": 113762, "pitch": 60, "duration": 121, "velocity": 95}, {"time": 113763, "pitch": 64, "duration": 129, "velocity": 106}, {"time": 114001, "pitch": 55, "duration": 89, "velocity": 90}, {"time": 114002, "pitch": 60, "duration": 108, "velocity": 94}, {"time": 114003, "pitch": 64, "duration": 120, "velocity": 104}, {"time": 114240, "pitch": 55, "duration": 120, "velocity": 90}, {"time": 114241, "pitch": 59, "duration": 119, "velocity": 96}, {"time": 114242, "pitch": 62, "duration": 130, "velocity": 101}, {"time": 114479, "pitch": 55, "duration": 107, "velocity": 90}, {"time": 114480, "pitch": 59, "duration": 102, "velocity": 95}, {"time": 114481, "pitch": 62, "duration": 134, "velocity": 96}, {"time": 114719, "pitch": 55, "duration": 101, "velocity": 90}, {"time": 114720, "pitch": 59, "duration": 109, "velocity": 95}, {"time": 114721, "pitch": 62, "duration": 123, "velocity": 102}, {"time": 114958, "pitch": 55, "duration": 110, "velocity": 90}, {"time": 114959, "pitch": 59, "duration": 105, "velocity": 91}, {"time": 114960, "pitch": 62, "duration": 106, "velocity": 96}, {"time": 115197, "pitch": 55, "duration": 76, "velocity": 90}, {"time": 115198, "pitch": 59, "duration": 82, "velocity": 95}, {"time": 115199, "pitch": 62, "duration": 92, "velocity": 99}, {"time": 115440, "pitch": 55, "duration": 83, "velocity": 90}, {"time": 115441, "pitch": 59, "duration": 86, "velocity": 95}, {"time": 115442, "pitch": 62, "duration": 102, "velocity": 100}, {"time": 115683, "pitch": 55, "duration": 94, "velocity": 90}, {"time": 115685, "pitch": 59, "duration": 102, "velocity": 95}, {"time": 115685, "pitch": 62, "duration": 119, "velocity": 99}, {"time": 115923, "pitch": 55, "duration": 80, "velocity": 90}, {"time": 115924, "pitch": 59, "duration": 91, "velocity": 95}, {"time": 115925, "pitch": 62, "duration": 121, "velocity": 100}, {"time": 116162, "pitch": 57, "duration": 122, "velocity": 90}, {"time": 116163, "pitch": 60, "duration": 120, "velocity": 95}, {"time": 116164, "pitch": 64, "duration": 111, "velocity": 102}, {"time": 116401, "pitch": 57, "duration": 81, "velocity": 90}, {"time": 116402, "pitch": 60, "duration": 84, "velocity": 95}, {"time": 116403, "pitch": 64, "duration": 86, "velocity": 100}, {"time": 116641, "pitch": 57, "duration": 113, "velocity": 90}, {"time": 116642, "pitch": 60, "duration": 115, "velocity": 95}, {"time": 116643, "pitch": 64, "duration": 107, "velocity": 102}, {"time": 116880, "pitch": 57, "duration": 111, "velocity": 90}, {"time": 116881, "pitch": 60, "duration": 131, "velocity": 95}, {"time": 116882, "pitch": 64, "duration": 120, "velocity": 97}, {"time": 117119, "pitch": 57, "duration": 117, "velocity": 90}, {"time": 117120, "pitch": 60, "duration": 121, "velocity": 95}, {"time": 117121, "pitch": 64, "duration": 115, "velocity": 102}, {"time": 117359, "pitch": 57, "duration": 94, "velocity": 90}, {"time": 117360, "pitch": 60, "duration": 120, "velocity": 95}, {"time": 117361, "pitch": 64, "duration": 105, "velocity": 96}, {"time": 117598, "pitch": 55, "duration": 119, "velocity": 90}, {"time": 117599, "pitch": 59, "duration": 131, "velocity": 95}, {"time": 117600, "pitch": 62, "duration": 127, "velocity": 101}, {"time": 117837, "pitch": 53, "duration": 275, "velocity": 90}, {"time": 117838, "pitch": 57, "duration": 284, "velocity": 95}, {"time": 117839, "pitch": 60, "duration": 304, "velocity": 101}, {"time": 118320, "pitch": 53, "duration": 117, "velocity": 90}, {"time": 118321, "pitch": 57, "duration": 119, "velocity": 95}, {"time": 118322, "pitch": 60, "duration": 133, "velocity": 100}, {"time": 118563, "pitch": 53, "duration": 121, "velocity": 90}, {"time": 118564, "pitch": 57, "duration": 122, "velocity": 95}, {"time": 118566, "pitch": 60, "duration": 135, "velocity": 98}, {"time": 118802, "pitch": 53, "duration": 108, "velocity": 90}, {"time": 118803, "pitch": 57, "duration": 125, "velocity": 95}, {"time": 118805, "pitch": 60, "duration": 139, "velocity": 105}, {"time": 119042, "pitch": 55, "duration": 142, "velocity": 90}, {"time": 119043, "pitch": 59, "duration": 143, "velocity": 95}, {"time": 119044, "pitch": 62, "duration": 139, "velocity": 108}, {"time": 119281, "pitch": 55, "duration": 93, "velocity": 90}, {"time": 119282, "pitch": 59, "duration": 93, "velocity": 95}, {"time": 119283, "pitch": 62, "duration": 98, "velocity": 102}, {"time": 119520, "pitch": 55, "duration": 131, "velocity": 90}, {"time": 119521, "pitch": 59, "duration": 132, "velocity": 95}, {"time": 119522, "pitch": 62, "duration": 121, "velocity": 108}, {"time": 119760, "pitch": 55, "duration": 108, "velocity": 90}, {"time": 119761, "pitch": 59, "duration": 115, "velocity": 95}, {"time": 119762, "pitch": 62, "duration": 108, "velocity": 106}, {"time": 119999, "pitch": 55, "duration": 146, "velocity": 90}, {"time": 120000, "pitch": 59, "duration": 141, "velocity": 87}, {"time": 120001, "pitch": 64, "duration": 161, "velocity": 95}, {"time": 120238, "pitch": 55, "duration": 88, "velocity": 80}, {"time": 120239, "pitch": 59, "duration": 60, "velocity": 84}, {"time": 120240, "pitch": 64, "duration": 91, "velocity": 97}, {"time": 120478, "pitch": 55, "duration": 96, "velocity": 90}, {"time": 120479, "pitch": 59, "duration": 89, "velocity": 95}, {"time": 120480, "pitch": 64, "duration": 106, "velocity": 102}, {"time": 120717, "pitch": 55, "duration": 76, "velocity": 90}, {"time": 120718, "pitch": 59, "duration": 80, "velocity": 95}, {"time": 120719, "pitch": 64, "duration": 93, "velocity": 98}, {"time": 120956, "pitch": 55, "duration": 102, "velocity": 89}, {"time": 120957, "pitch": 59, "duration": 107, "velocity": 90}, {"time": 120958, "pitch": 64, "duration": 110, "velocity": 103}, {"time": 121199, "pitch": 55, "duration": 71, "velocity": 90}, {"time": 121200, "pitch": 59, "duration": 63, "velocity": 95}, {"time": 121201, "pitch": 64, "duration": 85, "velocity": 94}, {"time": 121443, "pitch": 55, "duration": 80, "velocity": 90}, {"time": 121444, "pitch": 59, "duration": 85, "velocity": 98}, {"time": 121445, "pitch": 64, "duration": 99, "velocity": 101}, {"time": 121682, "pitch": 55, "duration": 88, "velocity": 90}, {"time": 121683, "pitch": 59, "duration": 92, "velocity": 95}, {"time": 121684, "pitch": 64, "duration": 112, "velocity": 99}, {"time": 121921, "pitch": 57, "duration": 97, "velocity": 90}, {"time": 121922, "pitch": 60, "duration": 92, "velocity": 95}, {"time": 121923, "pitch": 65, "duration": 88, "velocity": 103}, {"time": 122161, "pitch": 57, "duration": 83, "velocity": 90}, {"time": 122162, "pitch": 60, "duration": 79, "velocity": 95}, {"time": 122163, "pitch": 65, "duration": 100, "velocity": 102}, {"time": 122400, "pitch": 57, "duration": 89, "velocity": 90}, {"time": 122401, "pitch": 60, "duration": 79, "velocity": 95}, {"time": 122402, "pitch": 65, "duration": 94, "velocity": 103}, {"time": 122639, "pitch": 57, "duration": 60, "velocity": 90}, {"time": 122640, "pitch": 60, "duration": 72, "velocity": 95}, {"time": 122641, "pitch": 65, "duration": 79, "velocity": 100}, {"time": 122879, "pitch": 57, "duration": 85, "velocity": 90}, {"time": 122880, "pitch": 60, "duration": 82, "velocity": 95}, {"time": 122881, "pitch": 65, "duration": 125, "velocity": 102}, {"time": 123118, "pitch": 57, "duration": 63, "velocity": 90}, {"time": 123119, "pitch": 60, "duration": 71, "velocity": 95}, {"time": 123120, "pitch": 65, "duration": 73, "velocity": 100}, {"time": 123357, "pitch": 57, "duration": 78, "velocity": 90}, {"time": 123358, "pitch": 60, "duration": 78, "velocity": 95}, {"time": 123359, "pitch": 65, "duration": 89, "velocity": 102}, {"time": 123600, "pitch": 57, "duration": 79, "velocity": 90}, {"time": 123601, "pitch": 60, "duration": 94, "velocity": 95}, {"time": 123602, "pitch": 65, "duration": 79, "velocity": 100}, {"time": 123843, "pitch": 57, "duration": 119, "velocity": 90}, {"time": 123844, "pitch": 62, "duration": 103, "velocity": 95}, {"time": 123845, "pitch": 65, "duration": 105, "velocity": 99}, {"time": 124083, "pitch": 57, "duration": 74, "velocity": 90}, {"time": 124084, "pitch": 62, "duration": 76, "velocity": 95}, {"time": 124085, "pitch": 65, "duration": 93, "velocity": 100}, {"time": 124322, "pitch": 57, "duration": 98, "velocity": 90}, {"time": 124323, "pitch": 62, "duration": 105, "velocity": 95}, {"time": 124324, "pitch": 65, "duration": 99, "velocity": 99}, {"time": 124561, "pitch": 57, "duration": 90, "velocity": 90}, {"time": 124562, "pitch": 62, "duration": 84, "velocity": 95}, {"time": 124563, "pitch": 65, "duration": 83, "velocity": 100}, {"time": 124801, "pitch": 57, "duration": 88, "velocity": 90}, {"time": 124802, "pitch": 62, "duration": 105, "velocity": 95}, {"time": 124803, "pitch": 65, "duration": 112, "velocity": 105}, {"time": 125040, "pitch": 57, "duration": 73, "velocity": 90}, {"time": 125041, "pitch": 62, "duration": 87, "velocity": 95}, {"time": 125042, "pitch": 65, "duration": 78, "velocity": 100}, {"time": 125279, "pitch": 57, "duration": 84, "velocity": 90}, {"time": 125280, "pitch": 62, "duration": 83, "velocity": 95}, {"time": 125281, "pitch": 65, "duration": 89, "velocity": 96}, {"time": 125519, "pitch": 57, "duration": 85, "velocity": 90}, {"time": 125520, "pitch": 62, "duration": 92, "velocity": 95}, {"time": 125521, "pitch": 65, "duration": 102, "velocity": 101}, {"time": 125758, "pitch": 55, "duration": 95, "velocity": 90}, {"time": 125759, "pitch": 59, "duration": 107, "velocity": 95}, {"time": 125761, "pitch": 64, "duration": 84, "velocity": 100}, {"time": 125997, "pitch": 55, "duration": 84, "velocity": 90}, {"time": 125998, "pitch": 59, "duration": 84, "velocity": 95}, {"time": 125999, "pitch": 64, "duration": 97, "velocity": 100}, {"time": 126237, "pitch": 55, "duration": 90, "velocity": 90}, {"time": 126238, "pitch": 59, "duration": 89, "velocity": 95}, {"time": 126239, "pitch": 64, "duration": 110, "velocity": 105}, {"time": 126480, "pitch": 55, "duration": 58, "velocity": 90}, {"time": 126481, "pitch": 59, "duration": 81, "velocity": 95}, {"time": 126482, "pitch": 64, "duration": 93, "velocity": 98}, {"time": 126723, "pitch": 55, "duration": 89, "velocity": 90}, {"time": 126724, "pitch": 59, "duration": 91, "velocity": 95}, {"time": 126725, "pitch": 64, "duration": 106, "velocity": 98}, {"time": 126962, "pitch": 55, "duration": 61, "velocity": 90}, {"time": 126963, "pitch": 59, "duration": 77, "velocity": 95}, {"time": 126964, "pitch": 64, "duration": 94, "velocity": 98}, {"time": 127202, "pitch": 55, "duration": 49, "velocity": 90}, {"time": 127203, "pitch": 59, "duration": 68, "velocity": 95}, {"time": 127204, "pitch": 64, "duration": 72, "velocity": 98}, {"time": 127441, "pitch": 55, "duration": 71, "velocity": 90}, {"time": 127442, "pitch": 59, "duration": 87, "velocity": 95}, {"time": 127443, "pitch": 64, "duration": 106, "velocity": 100}, {"time": 127680, "pitch": 57, "duration": 87, "velocity": 90}, {"time": 127681, "pitch": 60, "duration": 91, "velocity": 95}, {"time": 127682, "pitch": 65, "duration": 93, "velocity": 100}, {"time": 127920, "pitch": 57, "duration": 69, "velocity": 90}, {"time": 127921, "pitch": 60, "duration": 71, "velocity": 95}, {"time": 127922, "pitch": 65, "duration": 73, "velocity": 99}, {"time": 128159, "pitch": 57, "duration": 85, "velocity": 90}, {"time": 128160, "pitch": 60, "duration": 74, "velocity": 95}, {"time": 128161, "pitch": 65, "duration": 92, "velocity": 103}, {"time": 128398, "pitch": 57, "duration": 70, "velocity": 90}, {"time": 128399, "pitch": 60, "duration": 59, "velocity": 95}, {"time": 128400, "pitch": 65, "duration": 80, "velocity": 103}, {"time": 128638, "pitch": 57, "duration": 83, "velocity": 90}, {"time": 128639, "pitch": 60, "duration": 78, "velocity": 95}, {"time": 128640, "pitch": 65, "duration": 101, "velocity": 107}, {"time": 128877, "pitch": 57, "duration": 71, "velocity": 90}, {"time": 128878, "pitch": 60, "duration": 74, "velocity": 95}, {"time": 128879, "pitch": 65, "duration": 96, "velocity": 103}, {"time": 129116, "pitch": 57, "duration": 71, "velocity": 90}, {"time": 129117, "pitch": 60, "duration": 75, "velocity": 95}, {"time": 129118, "pitch": 65, "duration": 84, "velocity": 106}, {"time": 129359, "pitch": 57, "duration": 71, "velocity": 90}, {"time": 129360, "pitch": 60, "duration": 83, "velocity": 95}, {"time": 129361, "pitch": 65, "duration": 71, "velocity": 108}, {"time": 129603, "pitch": 59, "duration": 102, "velocity": 90}, {"time": 129604, "pitch": 62, "duration": 99, "velocity": 95}, {"time": 129605, "pitch": 67, "duration": 106, "velocity": 106}, {"time": 129842, "pitch": 59, "duration": 78, "velocity": 92}, {"time": 129843, "pitch": 62, "duration": 72, "velocity": 94}, {"time": 129844, "pitch": 67, "duration": 78, "velocity": 101}, {"time": 130081, "pitch": 59, "duration": 75, "velocity": 90}, {"time": 130082, "pitch": 62, "duration": 73, "velocity": 95}, {"time": 130083, "pitch": 67, "duration": 88, "velocity": 102}, {"time": 130321, "pitch": 59, "duration": 66, "velocity": 90}, {"time": 130322, "pitch": 62, "duration": 62, "velocity": 95}, {"time": 130323, "pitch": 67, "duration": 81, "velocity": 102}, {"time": 130560, "pitch": 59, "duration": 74, "velocity": 90}, {"time": 130561, "pitch": 62, "duration": 68, "velocity": 95}, {"time": 130562, "pitch": 67, "duration": 86, "velocity": 107}, {"time": 130799, "pitch": 59, "duration": 77, "velocity": 90}, {"time": 130800, "pitch": 62, "duration": 76, "velocity": 95}, {"time": 130801, "pitch": 67, "duration": 85, "velocity": 102}, {"time": 131039, "pitch": 59, "duration": 123, "velocity": 90}, {"time": 131040, "pitch": 62, "duration": 110, "velocity": 95}, {"time": 131041, "pitch": 67, "duration": 121, "velocity": 106}, {"time": 131278, "pitch": 59, "duration": 118, "velocity": 90}, {"time": 131279, "pitch": 62, "duration": 114, "velocity": 95}, {"time": 131280, "pitch": 67, "duration": 117, "velocity": 104}, {"time": 131517, "pitch": 55, "duration": 95, "velocity": 90}, {"time": 131518, "pitch": 60, "duration": 111, "velocity": 94}, {"time": 131519, "pitch": 64, "duration": 119, "velocity": 95}, {"time": 131760, "pitch": 55, "duration": 77, "velocity": 90}, {"time": 131761, "pitch": 60, "duration": 79, "velocity": 91}, {"time": 131762, "pitch": 64, "duration": 88, "velocity": 94}, {"time": 132003, "pitch": 55, "duration": 85, "velocity": 95}, {"time": 132004, "pitch": 60, "duration": 95, "velocity": 98}, {"time": 132005, "pitch": 64, "duration": 101, "velocity": 99}, {"time": 132243, "pitch": 55, "duration": 85, "velocity": 90}, {"time": 132244, "pitch": 60, "duration": 93, "velocity": 91}, {"time": 132245, "pitch": 64, "duration": 92, "velocity": 94}, {"time": 132482, "pitch": 53, "duration": 93, "velocity": 90}, {"time": 132483, "pitch": 57, "duration": 105, "velocity": 95}, {"time": 132484, "pitch": 60, "duration": 119, "velocity": 98}, {"time": 132721, "pitch": 53, "duration": 92, "velocity": 90}, {"time": 132722, "pitch": 57, "duration": 84, "velocity": 94}, {"time": 132723, "pitch": 60, "duration": 94, "velocity": 98}, {"time": 132961, "pitch": 53, "duration": 93, "velocity": 97}, {"time": 132962, "pitch": 57, "duration": 86, "velocity": 98}, {"time": 132963, "pitch": 60, "duration": 104, "velocity": 100}, {"time": 133200, "pitch": 53, "duration": 79, "velocity": 90}, {"time": 133201, "pitch": 57, "duration": 89, "velocity": 94}, {"time": 133202, "pitch": 60, "duration": 120, "velocity": 100}, {"time": 133439, "pitch": 55, "duration": 91, "velocity": 90}, {"time": 133440, "pitch": 59, "duration": 102, "velocity": 95}, {"time": 133441, "pitch": 62, "duration": 101, "velocity": 100}, {"time": 133679, "pitch": 55, "duration": 79, "velocity": 90}, {"time": 133680, "pitch": 59, "duration": 86, "velocity": 91}, {"time": 133681, "pitch": 62, "duration": 81, "velocity": 97}, {"time": 133918, "pitch": 55, "duration": 79, "velocity": 94}, {"time": 133919, "pitch": 59, "duration": 95, "velocity": 95}, {"time": 133920, "pitch": 62, "duration": 49, "velocity": 98}, {"time": 134157, "pitch": 56, "duration": 379, "velocity": 90}, {"time": 134158, "pitch": 59, "duration": 400, "velocity": 91}, {"time": 134159, "pitch": 62, "duration": 366, "velocity": 94}, {"time": 134640, "pitch": 56, "duration": 77, "velocity": 97}, {"time": 134641, "pitch": 59, "duration": 100, "velocity": 98}, {"time": 134642, "pitch": 62, "duration": 90, "velocity": 95}, {"time": 134883, "pitch": 56, "duration": 72, "velocity": 90}, {"time": 134884, "pitch": 59, "duration": 100, "velocity": 91}, {"time": 134885, "pitch": 62, "duration": 90, "velocity": 94}, {"time": 135122, "pitch": 56, "duration": 85, "velocity": 97}, {"time": 135123, "pitch": 59, "duration": 108, "velocity": 98}, {"time": 135124, "pitch": 62, "duration": 102, "velocity": 95}, {"time": 135363, "pitch": 57, "duration": 101, "velocity": 91}, {"time": 135363, "pitch": 60, "duration": 103, "velocity": 90}, {"time": 135364, "pitch": 64, "duration": 99, "velocity": 94}, {"time": 135602, "pitch": 57, "duration": 85, "velocity": 97}, {"time": 135602, "pitch": 60, "duration": 80, "velocity": 98}, {"time": 135603, "pitch": 64, "duration": 76, "velocity": 95}, {"time": 135840, "pitch": 57, "duration": 79, "velocity": 90}, {"time": 135841, "pitch": 60, "duration": 101, "velocity": 91}, {"time": 135842, "pitch": 64, "duration": 103, "velocity": 94}, {"time": 136080, "pitch": 55, "duration": 311, "velocity": 97}, {"time": 136081, "pitch": 59, "duration": 318, "velocity": 98}, {"time": 136082, "pitch": 64, "duration": 303, "velocity": 102}, {"time": 136558, "pitch": 55, "duration": 78, "velocity": 90}, {"time": 136559, "pitch": 59, "duration": 78, "velocity": 91}, {"time": 136560, "pitch": 64, "duration": 84, "velocity": 87}, {"time": 136798, "pitch": 55, "duration": 103, "velocity": 90}, {"time": 136799, "pitch": 59, "duration": 107, "velocity": 91}, {"time": 136800, "pitch": 64, "duration": 100, "velocity": 98}, {"time": 137037, "pitch": 55, "duration": 105, "velocity": 90}, {"time": 137038, "pitch": 59, "duration": 107, "velocity": 94}, {"time": 137039, "pitch": 64, "duration": 107, "velocity": 94}, {"time": 137276, "pitch": 53, "duration": 124, "velocity": 90}, {"time": 137277, "pitch": 57, "duration": 124, "velocity": 91}, {"time": 137278, "pitch": 60, "duration": 133, "velocity": 95}, {"time": 137519, "pitch": 53, "duration": 64, "velocity": 97}, {"time": 137520, "pitch": 57, "duration": 79, "velocity": 98}, {"time": 137522, "pitch": 60, "duration": 93, "velocity": 99}, {"time": 137763, "pitch": 53, "duration": 81, "velocity": 90}, {"time": 137764, "pitch": 57, "duration": 90, "velocity": 91}, {"time": 137765, "pitch": 60, "duration": 118, "velocity": 94}, {"time": 138002, "pitch": 55, "duration": 315, "velocity": 97}, {"time": 138003, "pitch": 59, "duration": 325, "velocity": 95}, {"time": 138004, "pitch": 62, "duration": 315, "velocity": 98}, {"time": 138481, "pitch": 55, "duration": 80, "velocity": 90}, {"time": 138482, "pitch": 59, "duration": 89, "velocity": 91}, {"time": 138483, "pitch": 62, "duration": 83, "velocity": 97}, {"time": 138720, "pitch": 55, "duration": 88, "velocity": 94}, {"time": 138721, "pitch": 59, "duration": 96, "velocity": 91}, {"time": 138722, "pitch": 62, "duration": 91, "velocity": 100}, {"time": 138959, "pitch": 55, "duration": 87, "velocity": 90}, {"time": 138960, "pitch": 59, "duration": 110, "velocity": 95}, {"time": 138961, "pitch": 62, "duration": 109, "velocity": 98}, {"time": 139199, "pitch": 55, "duration": 93, "velocity": 90}, {"time": 139200, "pitch": 60, "duration": 108, "velocity": 94}, {"time": 139201, "pitch": 64, "duration": 116, "velocity": 95}, {"time": 139438, "pitch": 55, "duration": 76, "velocity": 90}, {"time": 139439, "pitch": 60, "duration": 78, "velocity": 91}, {"time": 139440, "pitch": 64, "duration": 86, "velocity": 94}, {"time": 139677, "pitch": 55, "duration": 86, "velocity": 95}, {"time": 139678, "pitch": 60, "duration": 97, "velocity": 98}, {"time": 139679, "pitch": 64, "duration": 103, "velocity": 99}, {"time": 139920, "pitch": 55, "duration": 86, "velocity": 90}, {"time": 139921, "pitch": 60, "duration": 95, "velocity": 91}, {"time": 139922, "pitch": 64, "duration": 94, "velocity": 94}, {"time": 140163, "pitch": 53, "duration": 93, "velocity": 90}, {"time": 140164, "pitch": 57, "duration": 105, "velocity": 95}, {"time": 140165, "pitch": 60, "duration": 119, "velocity": 98}, {"time": 140403, "pitch": 53, "duration": 92, "velocity": 90}, {"time": 140404, "pitch": 57, "duration": 84, "velocity": 94}, {"time": 140405, "pitch": 60, "duration": 94, "velocity": 98}, {"time": 140642, "pitch": 53, "duration": 93, "velocity": 97}, {"time": 140643, "pitch": 57, "duration": 86, "velocity": 98}, {"time": 140644, "pitch": 60, "duration": 104, "velocity": 100}, {"time": 140881, "pitch": 53, "duration": 79, "velocity": 90}, {"time": 140882, "pitch": 57, "duration": 89, "velocity": 94}, {"time": 140883, "pitch": 60, "duration": 120, "velocity": 100}, {"time": 141121, "pitch": 55, "duration": 91, "velocity": 90}, {"time": 141122, "pitch": 59, "duration": 102, "velocity": 95}, {"time": 141123, "pitch": 62, "duration": 101, "velocity": 100}, {"time": 141360, "pitch": 55, "duration": 79, "velocity": 90}, {"time": 141361, "pitch": 59, "duration": 86, "velocity": 91}, {"time": 141362, "pitch": 62, "duration": 81, "velocity": 97}, {"time": 141600, "pitch": 55, "duration": 78, "velocity": 94}, {"time": 141601, "pitch": 59, "duration": 94, "velocity": 95}, {"time": 141601, "pitch": 62, "duration": 49, "velocity": 98}, {"time": 141839, "pitch": 56, "duration": 376, "velocity": 90}, {"time": 141840, "pitch": 59, "duration": 397, "velocity": 91}, {"time": 141841, "pitch": 62, "duration": 364, "velocity": 94}, {"time": 142318, "pitch": 56, "duration": 75, "velocity": 97}, {"time": 142319, "pitch": 59, "duration": 98, "velocity": 98}, {"time": 142320, "pitch": 62, "duration": 88, "velocity": 95}, {"time": 142557, "pitch": 56, "duration": 73, "velocity": 90}, {"time": 142558, "pitch": 59, "duration": 101, "velocity": 91}, {"time": 142559, "pitch": 62, "duration": 91, "velocity": 94}, {"time": 142800, "pitch": 56, "duration": 86, "velocity": 97}, {"time": 142801, "pitch": 59, "duration": 109, "velocity": 98}, {"time": 142802, "pitch": 62, "duration": 103, "velocity": 95}, {"time": 143044, "pitch": 57, "duration": 102, "velocity": 91}, {"time": 143044, "pitch": 60, "duration": 104, "velocity": 90}, {"time": 143045, "pitch": 64, "duration": 100, "velocity": 94}, {"time": 143282, "pitch": 57, "duration": 85, "velocity": 97}, {"time": 143283, "pitch": 59, "duration": 80, "velocity": 98}, {"time": 143284, "pitch": 64, "duration": 76, "velocity": 95}, {"time": 143522, "pitch": 57, "duration": 78, "velocity": 90}, {"time": 143523, "pitch": 59, "duration": 100, "velocity": 91}, {"time": 143524, "pitch": 64, "duration": 102, "velocity": 94}, {"time": 143761, "pitch": 55, "duration": 311, "velocity": 97}, {"time": 143762, "pitch": 59, "duration": 318, "velocity": 98}, {"time": 143763, "pitch": 64, "duration": 303, "velocity": 102}, {"time": 144240, "pitch": 55, "duration": 78, "velocity": 90}, {"time": 144241, "pitch": 59, "duration": 78, "velocity": 91}, {"time": 144242, "pitch": 64, "duration": 83, "velocity": 87}, {"time": 144479, "pitch": 55, "duration": 104, "velocity": 90}, {"time": 144480, "pitch": 59, "duration": 108, "velocity": 91}, {"time": 144481, "pitch": 64, "duration": 101, "velocity": 98}, {"time": 144718, "pitch": 55, "duration": 105, "velocity": 90}, {"time": 144719, "pitch": 59, "duration": 107, "velocity": 94}, {"time": 144720, "pitch": 64, "duration": 107, "velocity": 94}, {"time": 144958, "pitch": 53, "duration": 121, "velocity": 90}, {"time": 144959, "pitch": 57, "duration": 121, "velocity": 91}, {"time": 144960, "pitch": 60, "duration": 130, "velocity": 95}, {"time": 145197, "pitch": 53, "duration": 63, "velocity": 97}, {"time": 145198, "pitch": 57, "duration": 77, "velocity": 98}, {"time": 145199, "pitch": 60, "duration": 92, "velocity": 99}, {"time": 145436, "pitch": 53, "duration": 83, "velocity": 90}, {"time": 145437, "pitch": 57, "duration": 93, "velocity": 91}, {"time": 145438, "pitch": 60, "duration": 121, "velocity": 94}, {"time": 145680, "pitch": 55, "duration": 318, "velocity": 97}, {"time": 145681, "pitch": 59, "duration": 328, "velocity": 95}, {"time": 145682, "pitch": 62, "duration": 318, "velocity": 98}, {"time": 146162, "pitch": 55, "duration": 81, "velocity": 90}, {"time": 146163, "pitch": 59, "duration": 90, "velocity": 91}, {"time": 146164, "pitch": 62, "duration": 84, "velocity": 97}, {"time": 146401, "pitch": 55, "duration": 88, "velocity": 94}, {"time": 146402, "pitch": 59, "duration": 96, "velocity": 91}, {"time": 146403, "pitch": 62, "duration": 91, "velocity": 100}, {"time": 146641, "pitch": 55, "duration": 86, "velocity": 90}, {"time": 146642, "pitch": 59, "duration": 109, "velocity": 95}, {"time": 146643, "pitch": 62, "duration": 108, "velocity": 98}, {"time": 146880, "pitch": 53, "duration": 99, "velocity": 90}, {"time": 146881, "pitch": 57, "duration": 119, "velocity": 95}, {"time": 146882, "pitch": 60, "duration": 96, "velocity": 97}, {"time": 147119, "pitch": 53, "duration": 87, "velocity": 90}, {"time": 147120, "pitch": 57, "duration": 81, "velocity": 95}, {"time": 147121, "pitch": 60, "duration": 83, "velocity": 98}, {"time": 147359, "pitch": 53, "duration": 85, "velocity": 90}, {"time": 147360, "pitch": 57, "duration": 96, "velocity": 95}, {"time": 147361, "pitch": 60, "duration": 113, "velocity": 97}, {"time": 147598, "pitch": 53, "duration": 47, "velocity": 90}, {"time": 147599, "pitch": 57, "duration": 70, "velocity": 95}, {"time": 147600, "pitch": 60, "duration": 77, "velocity": 100}, {"time": 147837, "pitch": 53, "duration": 72, "velocity": 90}, {"time": 147838, "pitch": 57, "duration": 93, "velocity": 95}, {"time": 147839, "pitch": 60, "duration": 99, "velocity": 98}, {"time": 148080, "pitch": 53, "duration": 63, "velocity": 90}, {"time": 148081, "pitch": 57, "duration": 61, "velocity": 95}, {"time": 148082, "pitch": 60, "duration": 74, "velocity": 94}, {"time": 148323, "pitch": 53, "duration": 61, "velocity": 90}, {"time": 148324, "pitch": 57, "duration": 70, "velocity": 95}, {"time": 148325, "pitch": 60, "duration": 71, "velocity": 103}, {"time": 148563, "pitch": 53, "duration": 34, "velocity": 90}, {"time": 148564, "pitch": 57, "duration": 61, "velocity": 95}, {"time": 148565, "pitch": 60, "duration": 75, "velocity": 100}, {"time": 148807, "pitch": 52, "duration": 891, "velocity": 90}, {"time": 148813, "pitch": 55, "duration": 880, "velocity": 95}, {"time": 148823, "pitch": 60, "duration": 882, "velocity": 95}, {"time": 150112, "pitch": 52, "duration": 298, "velocity": 90}, {"time": 150114, "pitch": 55, "duration": 292, "velocity": 95}, {"time": 150124, "pitch": 60, "duration": 260, "velocity": 103}, {"time": 150487, "pitch": 52, "duration": 1756, "velocity": 90}, {"time": 150493, "pitch": 55, "duration": 1757, "velocity": 95}, {"time": 150502, "pitch": 60, "duration": 1759, "velocity": 104}, {"time": 16320, "pitch": 72, "duration": 264, "velocity": 78}, {"time": 16320, "pitch": 76, "duration": 261, "velocity": 74}, {"time": 16559, "pitch": 67, "duration": 289, "velocity": 74}, {"time": 16798, "pitch": 72, "duration": 248, "velocity": 88}, {"time": 16798, "pitch": 76, "duration": 245, "velocity": 79}, {"time": 17277, "pitch": 71, "duration": 262, "velocity": 85}, {"time": 17277, "pitch": 74, "duration": 247, "velocity": 78}, {"time": 17520, "pitch": 67, "duration": 276, "velocity": 81}, {"time": 17763, "pitch": 71, "duration": 238, "velocity": 102}, {"time": 17763, "pitch": 74, "duration": 258, "velocity": 93}, {"time": 18242, "pitch": 72, "duration": 240, "velocity": 85}, {"time": 18242, "pitch": 76, "duration": 231, "velocity": 78}, {"time": 18481, "pitch": 69, "duration": 263, "velocity": 83}, {"time": 18720, "pitch": 72, "duration": 257, "velocity": 96}, {"time": 18720, "pitch": 76, "duration": 233, "velocity": 90}, {"time": 18960, "pitch": 69, "duration": 267, "velocity": 89}, {"time": 19199, "pitch": 71, "duration": 259, "velocity": 89}, {"time": 19199, "pitch": 76, "duration": 250, "velocity": 72}, {"time": 19439, "pitch": 67, "duration": 275, "velocity": 89}, {"time": 19678, "pitch": 71, "duration": 247, "velocity": 101}, {"time": 19678, "pitch": 76, "duration": 241, "velocity": 85}, {"time": 20157, "pitch": 69, "duration": 244, "velocity": 93}, {"time": 20157, "pitch": 72, "duration": 226, "velocity": 79}, {"time": 20400, "pitch": 65, "duration": 285, "velocity": 79}, {"time": 20643, "pitch": 69, "duration": 264, "velocity": 104}, {"time": 20643, "pitch": 72, "duration": 250, "velocity": 95}, {"time": 21121, "pitch": 67, "duration": 237, "velocity": 95}, {"time": 21121, "pitch": 72, "duration": 212, "velocity": 76}, {"time": 21361, "pitch": 64, "duration": 276, "velocity": 73}, {"time": 21600, "pitch": 67, "duration": 236, "velocity": 98}, {"time": 21600, "pitch": 72, "duration": 277, "velocity": 85}, {"time": 22079, "pitch": 69, "duration": 244, "velocity": 78}, {"time": 22079, "pitch": 72, "duration": 226, "velocity": 71}, {"time": 22318, "pitch": 65, "duration": 281, "velocity": 80}, {"time": 22557, "pitch": 69, "duration": 257, "velocity": 95}, {"time": 22557, "pitch": 72, "duration": 236, "velocity": 88}, {"time": 22801, "pitch": 65, "duration": 287, "velocity": 81}, {"time": 23044, "pitch": 67, "duration": 252, "velocity": 87}, {"time": 23044, "pitch": 72, "duration": 234, "velocity": 80}, {"time": 23283, "pitch": 64, "duration": 285, "velocity": 81}, {"time": 23522, "pitch": 67, "duration": 257, "velocity": 93}, {"time": 23522, "pitch": 71, "duration": 239, "velocity": 85}, {"time": 23762, "pitch": 64, "duration": 243, "velocity": 81}, {"time": 54719, "pitch": 69, "duration": 257, "velocity": 79}, {"time": 54719, "pitch": 72, "duration": 247, "velocity": 70}, {"time": 54958, "pitch": 65, "duration": 303, "velocity": 67}, {"time": 55198, "pitch": 69, "duration": 248, "velocity": 92}, {"time": 55198, "pitch": 72, "duration": 218, "velocity": 76}, {"time": 55441, "pitch": 65, "duration": 288, "velocity": 75}, {"time": 55684, "pitch": 69, "duration": 247, "velocity": 93}, {"time": 55684, "pitch": 72, "duration": 220, "velocity": 80}, {"time": 55923, "pitch": 65, "duration": 269, "velocity": 78}, {"time": 56162, "pitch": 69, "duration": 277, "velocity": 87}, {"time": 56162, "pitch": 72, "duration": 250, "velocity": 77}, {"time": 56402, "pitch": 65, "duration": 252, "velocity": 75}, {"time": 56641, "pitch": 67, "duration": 265, "velocity": 98}, {"time": 56641, "pitch": 72, "duration": 242, "velocity": 82}, {"time": 56880, "pitch": 64, "duration": 242, "velocity": 81}, {"time": 57120, "pitch": 67, "duration": 244, "velocity": 90}, {"time": 57120, "pitch": 72, "duration": 228, "velocity": 75}, {"time": 57359, "pitch": 64, "duration": 886, "velocity": 82}, {"time": 57598, "pitch": 67, "duration": 642, "velocity": 86}, {"time": 57598, "pitch": 72, "duration": 656, "velocity": 70}, {"time": 58563, "pitch": 72, "duration": 261, "velocity": 75}, {"time": 58563, "pitch": 76, "duration": 246, "velocity": 66}, {"time": 58803, "pitch": 67, "duration": 321, "velocity": 72}, {"time": 59042, "pitch": 72, "duration": 211, "velocity": 86}, {"time": 59042, "pitch": 76, "duration": 190, "velocity": 74}, {"time": 59521, "pitch": 71, "duration": 246, "velocity": 80}, {"time": 59521, "pitch": 74, "duration": 220, "velocity": 70}, {"time": 59760, "pitch": 67, "duration": 282, "velocity": 78}, {"time": 59999, "pitch": 71, "duration": 220, "velocity": 96}, {"time": 59999, "pitch": 74, "duration": 232, "velocity": 84}, {"time": 60478, "pitch": 72, "duration": 243, "velocity": 89}, {"time": 60478, "pitch": 76, "duration": 224, "velocity": 76}, {"time": 60717, "pitch": 69, "duration": 268, "velocity": 79}, {"time": 60957, "pitch": 72, "duration": 247, "velocity": 86}, {"time": 60957, "pitch": 76, "duration": 227, "velocity": 78}, {"time": 61200, "pitch": 69, "duration": 306, "velocity": 78}, {"time": 61443, "pitch": 71, "duration": 248, "velocity": 83}, {"time": 61443, "pitch": 76, "duration": 222, "velocity": 84}, {"time": 61682, "pitch": 67, "duration": 299, "velocity": 87}, {"time": 61921, "pitch": 71, "duration": 224, "velocity": 104}, {"time": 61921, "pitch": 76, "duration": 215, "velocity": 86}, {"time": 62400, "pitch": 69, "duration": 234, "velocity": 86}, {"time": 62400, "pitch": 72, "duration": 217, "velocity": 71}, {"time": 62640, "pitch": 65, "duration": 313, "velocity": 82}, {"time": 62879, "pitch": 69, "duration": 200, "velocity": 107}, {"time": 62879, "pitch": 72, "duration": 204, "velocity": 88}, {"time": 63358, "pitch": 67, "duration": 282, "velocity": 98}, {"time": 63358, "pitch": 72, "duration": 259, "velocity": 79}, {"time": 63601, "pitch": 64, "duration": 293, "velocity": 70}, {"time": 63844, "pitch": 67, "duration": 227, "velocity": 104}, {"time": 63844, "pitch": 72, "duration": 249, "velocity": 78}, {"time": 64322, "pitch": 69, "duration": 240, "velocity": 101}, {"time": 64322, "pitch": 72, "duration": 217, "velocity": 77}, {"time": 64562, "pitch": 65, "duration": 273, "velocity": 81}, {"time": 64801, "pitch": 69, "duration": 238, "velocity": 102}, {"time": 64801, "pitch": 72, "duration": 230, "velocity": 86}, {"time": 65040, "pitch": 65, "duration": 296, "velocity": 86}, {"time": 65280, "pitch": 71, "duration": 277, "velocity": 92}, {"time": 65280, "pitch": 74, "duration": 192, "velocity": 73}, {"time": 65519, "pitch": 67, "duration": 238, "velocity": 65}, {"time": 65758, "pitch": 71, "duration": 243, "velocity": 98}, {"time": 65758, "pitch": 74, "duration": 251, "velocity": 95}, {"time": 66237, "pitch": 72, "duration": 235, "velocity": 92}, {"time": 66237, "pitch": 76, "duration": 220, "velocity": 86}, {"time": 66480, "pitch": 67, "duration": 293, "velocity": 76}, {"time": 66723, "pitch": 72, "duration": 252, "velocity": 95}, {"time": 66723, "pitch": 76, "duration": 248, "velocity": 92}, {"time": 67202, "pitch": 71, "duration": 224, "velocity": 85}, {"time": 67202, "pitch": 74, "duration": 221, "velocity": 78}, {"time": 67441, "pitch": 67, "duration": 250, "velocity": 84}, {"time": 67681, "pitch": 71, "duration": 223, "velocity": 101}, {"time": 67681, "pitch": 74, "duration": 234, "velocity": 87}, {"time": 68159, "pitch": 72, "duration": 240, "velocity": 89}, {"time": 68159, "pitch": 76, "duration": 224, "velocity": 79}, {"time": 68399, "pitch": 69, "duration": 266, "velocity": 79}, {"time": 68638, "pitch": 72, "duration": 237, "velocity": 92}, {"time": 68638, "pitch": 76, "duration": 222, "velocity": 84}, {"time": 68877, "pitch": 69, "duration": 194, "velocity": 87}, {"time": 69117, "pitch": 71, "duration": 234, "velocity": 104}, {"time": 69117, "pitch": 76, "duration": 222, "velocity": 75}, {"time": 69360, "pitch": 67, "duration": 283, "velocity": 76}, {"time": 69603, "pitch": 71, "duration": 218, "velocity": 104}, {"time": 69603, "pitch": 76, "duration": 220, "velocity": 78}, {"time": 70082, "pitch": 69, "duration": 233, "velocity": 89}, {"time": 70082, "pitch": 72, "duration": 221, "velocity": 70}, {"time": 70321, "pitch": 65, "duration": 290, "velocity": 83}, {"time": 70560, "pitch": 69, "duration": 230, "velocity": 102}, {"time": 70560, "pitch": 72, "duration": 227, "velocity": 86}, {"time": 71039, "pitch": 67, "duration": 232, "velocity": 101}, {"time": 71039, "pitch": 72, "duration": 221, "velocity": 74}, {"time": 71278, "pitch": 64, "duration": 284, "velocity": 80}, {"time": 71518, "pitch": 67, "duration": 210, "velocity": 101}, {"time": 71518, "pitch": 72, "duration": 243, "velocity": 82}, {"time": 72004, "pitch": 69, "duration": 223, "velocity": 98}, {"time": 72004, "pitch": 72, "duration": 213, "velocity": 72}, {"time": 72243, "pitch": 65, "duration": 295, "velocity": 83}, {"time": 72482, "pitch": 69, "duration": 229, "velocity": 101}, {"time": 72482, "pitch": 72, "duration": 221, "velocity": 83}, {"time": 72722, "pitch": 65, "duration": 290, "velocity": 80}, {"time": 72961, "pitch": 67, "duration": 242, "velocity": 107}, {"time": 72961, "pitch": 72, "duration": 220, "velocity": 67}, {"time": 73200, "pitch": 64, "duration": 282, "velocity": 76}, {"time": 73440, "pitch": 67, "duration": 282, "velocity": 107}, {"time": 73440, "pitch": 71, "duration": 266, "velocity": 81}, {"time": 73679, "pitch": 64, "duration": 198, "velocity": 81}, {"time": 146880, "pitch": 69, "duration": 257, "velocity": 79}, {"time": 146880, "pitch": 72, "duration": 247, "velocity": 70}, {"time": 147119, "pitch": 65, "duration": 302, "velocity": 67}, {"time": 147359, "pitch": 69, "duration": 244, "velocity": 92}, {"time": 147359, "pitch": 72, "duration": 215, "velocity": 76}, {"time": 147598, "pitch": 65, "duration": 285, "velocity": 75}, {"time": 147837, "pitch": 69, "duration": 252, "velocity": 93}, {"time": 147837, "pitch": 72, "duration": 224, "velocity": 80}, {"time": 148080, "pitch": 65, "duration": 273, "velocity": 78}, {"time": 148323, "pitch": 69, "duration": 277, "velocity": 87}, {"time": 148323, "pitch": 72, "duration": 250, "velocity": 77}, {"time": 148563, "pitch": 65, "duration": 286, "velocity": 75}, {"time": 148807, "pitch": 67, "duration": 773, "velocity": 98}, {"time": 148807, "pitch": 72, "duration": 716, "velocity": 82}, {"time": 149516, "pitch": 64, "duration": 601, "velocity": 81}, {"time": 150112, "pitch": 67, "duration": 236, "velocity": 90}, {"time": 150112, "pitch": 72, "duration": 227, "velocity": 75}, {"time": 150345, "pitch": 64, "duration": 2167, "velocity": 82}, {"time": 150491, "pitch": 67, "duration": 2021, "velocity": 86}, {"time": 150491, "pitch": 72, "duration": 2021, "velocity": 70}, {"time": 976, "pitch": 55, "duration": 248, "velocity": 89}, {"time": 1190, "pitch": 60, "duration": 270, "velocity": 92}, {"time": 1435, "pitch": 64, "duration": 292, "velocity": 97}, {"time": 1673, "pitch": 60, "duration": 281, "velocity": 89}, {"time": 1931, "pitch": 55, "duration": 266, "velocity": 86}, {"time": 2175, "pitch": 59, "duration": 274, "velocity": 84}, {"time": 2414, "pitch": 62, "duration": 287, "velocity": 88}, {"time": 2649, "pitch": 59, "duration": 298, "velocity": 86}, {"time": 2879, "pitch": 57, "duration": 282, "velocity": 88}, {"time": 3118, "pitch": 60, "duration": 263, "velocity": 90}, {"time": 3358, "pitch": 64, "duration": 282, "velocity": 89}, {"time": 3597, "pitch": 60, "duration": 261, "velocity": 91}, {"time": 3836, "pitch": 55, "duration": 296, "velocity": 77}, {"time": 4080, "pitch": 59, "duration": 269, "velocity": 94}, {"time": 4323, "pitch": 62, "duration": 295, "velocity": 90}, {"time": 4562, "pitch": 59, "duration": 263, "velocity": 92}, {"time": 4801, "pitch": 53, "duration": 803, "velocity": 89}, {"time": 5041, "pitch": 57, "duration": 269, "velocity": 88}, {"time": 5280, "pitch": 60, "duration": 309, "velocity": 92}, {"time": 5519, "pitch": 57, "duration": 294, "velocity": 84}, {"time": 5759, "pitch": 55, "duration": 267, "velocity": 96}, {"time": 5998, "pitch": 59, "duration": 268, "velocity": 89}, {"time": 6237, "pitch": 62, "duration": 294, "velocity": 93}, {"time": 6480, "pitch": 59, "duration": 197, "velocity": 92}, {"time": 6724, "pitch": 60, "duration": 203, "velocity": 92}, {"time": 6963, "pitch": 60, "duration": 304, "velocity": 87}, {"time": 7202, "pitch": 64, "duration": 337, "velocity": 91}, {"time": 7442, "pitch": 60, "duration": 280, "velocity": 91}, {"time": 7681, "pitch": 55, "duration": 291, "velocity": 93}, {"time": 7920, "pitch": 59, "duration": 306, "velocity": 90}, {"time": 8160, "pitch": 62, "duration": 258, "velocity": 89}, {"time": 8399, "pitch": 59, "duration": 223, "velocity": 91}, {"time": 31682, "pitch": 57, "duration": 115, "velocity": 96}, {"time": 31682, "pitch": 64, "duration": 106, "velocity": 98}, {"time": 31922, "pitch": 57, "duration": 141, "velocity": 93}, {"time": 31924, "pitch": 64, "duration": 122, "velocity": 94}, {"time": 32161, "pitch": 57, "duration": 138, "velocity": 87}, {"time": 32163, "pitch": 64, "duration": 128, "velocity": 96}, {"time": 32400, "pitch": 57, "duration": 126, "velocity": 91}, {"time": 32402, "pitch": 64, "duration": 116, "velocity": 96}, {"time": 32640, "pitch": 56, "duration": 136, "velocity": 86}, {"time": 32642, "pitch": 62, "duration": 141, "velocity": 102}, {"time": 32879, "pitch": 56, "duration": 114, "velocity": 92}, {"time": 32881, "pitch": 62, "duration": 112, "velocity": 100}, {"time": 33118, "pitch": 56, "duration": 115, "velocity": 92}, {"time": 33120, "pitch": 62, "duration": 108, "velocity": 101}, {"time": 33358, "pitch": 56, "duration": 134, "velocity": 90}, {"time": 33360, "pitch": 62, "duration": 123, "velocity": 98}, {"time": 33597, "pitch": 55, "duration": 132, "velocity": 96}, {"time": 33599, "pitch": 60, "duration": 133, "velocity": 99}, {"time": 33840, "pitch": 55, "duration": 125, "velocity": 87}, {"time": 33842, "pitch": 60, "duration": 127, "velocity": 93}, {"time": 34083, "pitch": 55, "duration": 134, "velocity": 90}, {"time": 34085, "pitch": 60, "duration": 123, "velocity": 100}, {"time": 34323, "pitch": 55, "duration": 134, "velocity": 91}, {"time": 34325, "pitch": 60, "duration": 116, "velocity": 99}, {"time": 34562, "pitch": 54, "duration": 116, "velocity": 94}, {"time": 34564, "pitch": 57, "duration": 128, "velocity": 98}, {"time": 34801, "pitch": 54, "duration": 119, "velocity": 92}, {"time": 34803, "pitch": 57, "duration": 131, "velocity": 98}, {"time": 35041, "pitch": 54, "duration": 111, "velocity": 95}, {"time": 35043, "pitch": 57, "duration": 122, "velocity": 98}, {"time": 35280, "pitch": 54, "duration": 141, "velocity": 95}, {"time": 35282, "pitch": 57, "duration": 156, "velocity": 98}, {"time": 35519, "pitch": 53, "duration": 293, "velocity": 65}, {"time": 35759, "pitch": 55, "duration": 273, "velocity": 76}, {"time": 35998, "pitch": 60, "duration": 288, "velocity": 68}, {"time": 36237, "pitch": 55, "duration": 266, "velocity": 66}, {"time": 36477, "pitch": 53, "duration": 274, "velocity": 63}, {"time": 36720, "pitch": 55, "duration": 231, "velocity": 62}, {"time": 36963, "pitch": 60, "duration": 184, "velocity": 61}, {"time": 36971, "pitch": 53, "duration": 227, "velocity": 61}, {"time": 37202, "pitch": 53, "duration": 31, "velocity": 90}, {"time": 37204, "pitch": 60, "duration": 32, "velocity": 95}, {"time": 37322, "pitch": 53, "duration": 116, "velocity": 90}, {"time": 37324, "pitch": 60, "duration": 111, "velocity": 95}, {"time": 37441, "pitch": 55, "duration": 154, "velocity": 90}, {"time": 37443, "pitch": 62, "duration": 137, "velocity": 95}, {"time": 37681, "pitch": 55, "duration": 118, "velocity": 88}, {"time": 37683, "pitch": 62, "duration": 114, "velocity": 96}, {"time": 37920, "pitch": 55, "duration": 125, "velocity": 91}, {"time": 37922, "pitch": 62, "duration": 113, "velocity": 100}, {"time": 38159, "pitch": 55, "duration": 111, "velocity": 96}, {"time": 38161, "pitch": 62, "duration": 105, "velocity": 102}, {"time": 38399, "pitch": 55, "duration": 118, "velocity": 94}, {"time": 38401, "pitch": 62, "duration": 116, "velocity": 104}, {"time": 38638, "pitch": 55, "duration": 127, "velocity": 90}, {"time": 38640, "pitch": 62, "duration": 119, "velocity": 106}, {"time": 38877, "pitch": 55, "duration": 117, "velocity": 90}, {"time": 38879, "pitch": 62, "duration": 113, "velocity": 111}, {"time": 39121, "pitch": 55, "duration": 97, "velocity": 98}, {"time": 39123, "pitch": 62, "duration": 107, "velocity": 112}, {"time": 39364, "pitch": 55, "duration": 134, "velocity": 83}, {"time": 39366, "pitch": 64, "duration": 136, "velocity": 95}, {"time": 39603, "pitch": 55, "duration": 96, "velocity": 81}, {"time": 39605, "pitch": 64, "duration": 118, "velocity": 95}, {"time": 39842, "pitch": 55, "duration": 111, "velocity": 83}, {"time": 39844, "pitch": 64, "duration": 130, "velocity": 96}, {"time": 40082, "pitch": 55, "duration": 127, "velocity": 75}, {"time": 40084, "pitch": 64, "duration": 142, "velocity": 95}, {"time": 40321, "pitch": 53, "duration": 154, "velocity": 88}, {"time": 40323, "pitch": 60, "duration": 155, "velocity": 90}, {"time": 40560, "pitch": 53, "duration": 127, "velocity": 92}, {"time": 40562, "pitch": 60, "duration": 139, "velocity": 95}, {"time": 40800, "pitch": 53, "duration": 137, "velocity": 90}, {"time": 40802, "pitch": 60, "duration": 131, "velocity": 95}, {"time": 41039, "pitch": 53, "duration": 140, "velocity": 92}, {"time": 41041, "pitch": 60, "duration": 165, "velocity": 98}, {"time": 41278, "pitch": 55, "duration": 139, "velocity": 87}, {"time": 41280, "pitch": 62, "duration": 135, "velocity": 94}, {"time": 41518, "pitch": 55, "duration": 125, "velocity": 84}, {"time": 41520, "pitch": 62, "duration": 122, "velocity": 96}, {"time": 41757, "pitch": 55, "duration": 146, "velocity": 81}, {"time": 41759, "pitch": 62, "duration": 142, "velocity": 90}, {"time": 42000, "pitch": 56, "duration": 384, "velocity": 92}, {"time": 42002, "pitch": 64, "duration": 394, "velocity": 97}, {"time": 42483, "pitch": 56, "duration": 120, "velocity": 93}, {"time": 42485, "pitch": 64, "duration": 132, "velocity": 99}, {"time": 42722, "pitch": 56, "duration": 143, "velocity": 88}, {"time": 42724, "pitch": 64, "duration": 140, "velocity": 95}, {"time": 42961, "pitch": 56, "duration": 143, "velocity": 90}, {"time": 42963, "pitch": 64, "duration": 143, "velocity": 95}, {"time": 43201, "pitch": 57, "duration": 155, "velocity": 85}, {"time": 43203, "pitch": 64, "duration": 155, "velocity": 96}, {"time": 43440, "pitch": 57, "duration": 117, "velocity": 80}, {"time": 43442, "pitch": 64, "duration": 110, "velocity": 95}, {"time": 43679, "pitch": 57, "duration": 109, "velocity": 84}, {"time": 43681, "pitch": 64, "duration": 137, "velocity": 93}, {"time": 43919, "pitch": 55, "duration": 380, "velocity": 100}, {"time": 43921, "pitch": 62, "duration": 371, "velocity": 102}, {"time": 44397, "pitch": 55, "duration": 116, "velocity": 89}, {"time": 44399, "pitch": 62, "duration": 118, "velocity": 95}, {"time": 44637, "pitch": 55, "duration": 156, "velocity": 90}, {"time": 44639, "pitch": 62, "duration": 158, "velocity": 99}, {"time": 44880, "pitch": 55, "duration": 103, "velocity": 84}, {"time": 44882, "pitch": 62, "duration": 119, "velocity": 93}, {"time": 45123, "pitch": 53, "duration": 137, "velocity": 84}, {"time": 45125, "pitch": 60, "duration": 143, "velocity": 95}, {"time": 45362, "pitch": 53, "duration": 82, "velocity": 83}, {"time": 45364, "pitch": 60, "duration": 87, "velocity": 95}, {"time": 45601, "pitch": 53, "duration": 95, "velocity": 90}, {"time": 45603, "pitch": 60, "duration": 122, "velocity": 95}, {"time": 45841, "pitch": 55, "duration": 357, "velocity": 101}, {"time": 45843, "pitch": 62, "duration": 350, "velocity": 106}, {"time": 46319, "pitch": 55, "duration": 109, "velocity": 88}, {"time": 46321, "pitch": 62, "duration": 101, "velocity": 96}, {"time": 46559, "pitch": 55, "duration": 165, "velocity": 91}, {"time": 46561, "pitch": 62, "duration": 163, "velocity": 101}, {"time": 46798, "pitch": 55, "duration": 102, "velocity": 86}, {"time": 46800, "pitch": 62, "duration": 119, "velocity": 99}, {"time": 47037, "pitch": 55, "duration": 128, "velocity": 90}, {"time": 47037, "pitch": 64, "duration": 127, "velocity": 94}, {"time": 47281, "pitch": 55, "duration": 123, "velocity": 85}, {"time": 47283, "pitch": 64, "duration": 118, "velocity": 92}, {"time": 47524, "pitch": 55, "duration": 128, "velocity": 91}, {"time": 47526, "pitch": 64, "duration": 129, "velocity": 99}, {"time": 47763, "pitch": 55, "duration": 136, "velocity": 88}, {"time": 47765, "pitch": 64, "duration": 143, "velocity": 92}, {"time": 48002, "pitch": 53, "duration": 141, "velocity": 89}, {"time": 48004, "pitch": 62, "duration": 148, "velocity": 94}, {"time": 48242, "pitch": 53, "duration": 111, "velocity": 84}, {"time": 48244, "pitch": 62, "duration": 115, "velocity": 95}, {"time": 48481, "pitch": 53, "duration": 129, "velocity": 94}, {"time": 48483, "pitch": 62, "duration": 134, "velocity": 101}, {"time": 48720, "pitch": 53, "duration": 116, "velocity": 80}, {"time": 48722, "pitch": 62, "duration": 147, "velocity": 93}, {"time": 48960, "pitch": 55, "duration": 130, "velocity": 94}, {"time": 48962, "pitch": 62, "duration": 111, "velocity": 98}, {"time": 49199, "pitch": 55, "duration": 99, "velocity": 81}, {"time": 49201, "pitch": 62, "duration": 86, "velocity": 95}, {"time": 49438, "pitch": 55, "duration": 133, "velocity": 82}, {"time": 49440, "pitch": 62, "duration": 134, "velocity": 97}, {"time": 49678, "pitch": 56, "duration": 367, "velocity": 98}, {"time": 49680, "pitch": 64, "duration": 370, "velocity": 100}, {"time": 50160, "pitch": 56, "duration": 118, "velocity": 84}, {"time": 50162, "pitch": 64, "duration": 117, "velocity": 95}, {"time": 50403, "pitch": 56, "duration": 138, "velocity": 90}, {"time": 50405, "pitch": 64, "duration": 140, "velocity": 92}, {"time": 50643, "pitch": 56, "duration": 140, "velocity": 88}, {"time": 50645, "pitch": 64, "duration": 147, "velocity": 95}, {"time": 50882, "pitch": 57, "duration": 150, "velocity": 87}, {"time": 50884, "pitch": 64, "duration": 147, "velocity": 95}, {"time": 51121, "pitch": 57, "duration": 88, "velocity": 80}, {"time": 51123, "pitch": 64, "duration": 82, "velocity": 95}, {"time": 51361, "pitch": 57, "duration": 114, "velocity": 80}, {"time": 51363, "pitch": 64, "duration": 142, "velocity": 95}, {"time": 51600, "pitch": 55, "duration": 363, "velocity": 90}, {"time": 51602, "pitch": 62, "duration": 360, "velocity": 102}, {"time": 52079, "pitch": 55, "duration": 111, "velocity": 85}, {"time": 52081, "pitch": 62, "duration": 111, "velocity": 98}, {"time": 52318, "pitch": 55, "duration": 105, "velocity": 85}, {"time": 52320, "pitch": 62, "duration": 110, "velocity": 100}, {"time": 52557, "pitch": 55, "duration": 113, "velocity": 80}, {"time": 52559, "pitch": 62, "duration": 106, "velocity": 94}, {"time": 52797, "pitch": 53, "duration": 139, "velocity": 93}, {"time": 52799, "pitch": 60, "duration": 140, "velocity": 98}, {"time": 53040, "pitch": 53, "duration": 111, "velocity": 84}, {"time": 53042, "pitch": 60, "duration": 116, "velocity": 99}, {"time": 53283, "pitch": 53, "duration": 119, "velocity": 88}, {"time": 53285, "pitch": 60, "duration": 144, "velocity": 90}, {"time": 53522, "pitch": 55, "duration": 361, "velocity": 98}, {"time": 53524, "pitch": 62, "duration": 349, "velocity": 103}, {"time": 54001, "pitch": 55, "duration": 136, "velocity": 84}, {"time": 54003, "pitch": 62, "duration": 123, "velocity": 97}, {"time": 54240, "pitch": 55, "duration": 163, "velocity": 91}, {"time": 54242, "pitch": 62, "duration": 162, "velocity": 100}, {"time": 54479, "pitch": 55, "duration": 132, "velocity": 87}, {"time": 54481, "pitch": 62, "duration": 136, "velocity": 96}, {"time": 54719, "pitch": 53, "duration": 287, "velocity": 90}, {"time": 54958, "pitch": 57, "duration": 1442, "velocity": 90}, {"time": 55198, "pitch": 60, "duration": 270, "velocity": 88}, {"time": 55441, "pitch": 65, "duration": 907, "velocity": 73}, {"time": 56641, "pitch": 52, "duration": 269, "velocity": 91}, {"time": 56880, "pitch": 55, "duration": 1525, "velocity": 90}, {"time": 57120, "pitch": 60, "duration": 329, "velocity": 86}, {"time": 57359, "pitch": 64, "duration": 1072, "velocity": 91}, {"time": 81600, "pitch": 57, "duration": 114, "velocity": 96}, {"time": 81600, "pitch": 64, "duration": 105, "velocity": 98}, {"time": 81839, "pitch": 57, "duration": 142, "velocity": 93}, {"time": 81841, "pitch": 64, "duration": 123, "velocity": 94}, {"time": 82078, "pitch": 57, "duration": 138, "velocity": 87}, {"time": 82080, "pitch": 64, "duration": 128, "velocity": 96}, {"time": 82318, "pitch": 57, "duration": 125, "velocity": 91}, {"time": 82320, "pitch": 64, "duration": 115, "velocity": 96}, {"time": 82557, "pitch": 56, "duration": 139, "velocity": 86}, {"time": 82559, "pitch": 62, "duration": 144, "velocity": 102}, {"time": 82800, "pitch": 56, "duration": 116, "velocity": 92}, {"time": 82802, "pitch": 62, "duration": 114, "velocity": 100}, {"time": 83043, "pitch": 56, "duration": 115, "velocity": 92}, {"time": 83045, "pitch": 62, "duration": 108, "velocity": 101}, {"time": 83283, "pitch": 56, "duration": 134, "velocity": 90}, {"time": 83285, "pitch": 62, "duration": 123, "velocity": 98}, {"time": 83522, "pitch": 55, "duration": 130, "velocity": 96}, {"time": 83524, "pitch": 60, "duration": 131, "velocity": 99}, {"time": 83761, "pitch": 55, "duration": 123, "velocity": 87}, {"time": 83763, "pitch": 60, "duration": 125, "velocity": 93}, {"time": 84001, "pitch": 55, "duration": 133, "velocity": 90}, {"time": 84003, "pitch": 60, "duration": 122, "velocity": 100}, {"time": 84240, "pitch": 55, "duration": 135, "velocity": 91}, {"time": 84242, "pitch": 60, "duration": 117, "velocity": 99}, {"time": 84479, "pitch": 54, "duration": 116, "velocity": 94}, {"time": 84481, "pitch": 57, "duration": 128, "velocity": 98}, {"time": 84719, "pitch": 54, "duration": 118, "velocity": 92}, {"time": 84721, "pitch": 57, "duration": 130, "velocity": 98}, {"time": 84958, "pitch": 54, "duration": 112, "velocity": 95}, {"time": 84960, "pitch": 57, "duration": 123, "velocity": 98}, {"time": 85197, "pitch": 54, "duration": 142, "velocity": 95}, {"time": 85199, "pitch": 57, "duration": 157, "velocity": 98}, {"time": 85437, "pitch": 53, "duration": 297, "velocity": 94}, {"time": 85680, "pitch": 55, "duration": 277, "velocity": 89}, {"time": 85923, "pitch": 60, "duration": 288, "velocity": 84}, {"time": 86162, "pitch": 55, "duration": 265, "velocity": 82}, {"time": 86402, "pitch": 53, "duration": 270, "velocity": 77}, {"time": 86641, "pitch": 55, "duration": 227, "velocity": 85}, {"time": 86880, "pitch": 60, "duration": 185, "velocity": 71}, {"time": 86888, "pitch": 53, "duration": 228, "velocity": 85}, {"time": 87120, "pitch": 53, "duration": 30, "velocity": 90}, {"time": 87122, "pitch": 60, "duration": 31, "velocity": 95}, {"time": 87239, "pitch": 53, "duration": 117, "velocity": 90}, {"time": 87241, "pitch": 60, "duration": 112, "velocity": 95}, {"time": 87359, "pitch": 55, "duration": 153, "velocity": 90}, {"time": 87361, "pitch": 62, "duration": 137, "velocity": 95}, {"time": 87598, "pitch": 55, "duration": 119, "velocity": 88}, {"time": 87600, "pitch": 62, "duration": 115, "velocity": 96}, {"time": 87838, "pitch": 55, "duration": 124, "velocity": 91}, {"time": 87840, "pitch": 62, "duration": 112, "velocity": 100}, {"time": 88077, "pitch": 55, "duration": 111, "velocity": 96}, {"time": 88079, "pitch": 62, "duration": 105, "velocity": 102}, {"time": 88316, "pitch": 55, "duration": 121, "velocity": 94}, {"time": 88318, "pitch": 62, "duration": 119, "velocity": 104}, {"time": 88559, "pitch": 55, "duration": 129, "velocity": 90}, {"time": 88561, "pitch": 62, "duration": 121, "velocity": 106}, {"time": 88802, "pitch": 55, "duration": 115, "velocity": 90}, {"time": 88804, "pitch": 62, "duration": 111, "velocity": 111}, {"time": 89042, "pitch": 55, "duration": 96, "velocity": 98}, {"time": 89044, "pitch": 62, "duration": 105, "velocity": 112}, {"time": 89281, "pitch": 55, "duration": 135, "velocity": 83}, {"time": 89283, "pitch": 64, "duration": 137, "velocity": 95}, {"time": 89520, "pitch": 55, "duration": 96, "velocity": 81}, {"time": 89522, "pitch": 64, "duration": 118, "velocity": 95}, {"time": 89760, "pitch": 55, "duration": 110, "velocity": 83}, {"time": 89762, "pitch": 64, "duration": 129, "velocity": 96}, {"time": 89999, "pitch": 55, "duration": 128, "velocity": 75}, {"time": 90001, "pitch": 64, "duration": 143, "velocity": 95}, {"time": 90238, "pitch": 53, "duration": 154, "velocity": 88}, {"time": 90240, "pitch": 60, "duration": 155, "velocity": 90}, {"time": 90478, "pitch": 53, "duration": 126, "velocity": 92}, {"time": 90480, "pitch": 60, "duration": 138, "velocity": 95}, {"time": 90717, "pitch": 53, "duration": 140, "velocity": 90}, {"time": 90719, "pitch": 60, "duration": 134, "velocity": 95}, {"time": 90960, "pitch": 53, "duration": 142, "velocity": 92}, {"time": 90962, "pitch": 60, "duration": 167, "velocity": 98}, {"time": 91203, "pitch": 55, "duration": 139, "velocity": 87}, {"time": 91205, "pitch": 62, "duration": 135, "velocity": 94}, {"time": 91443, "pitch": 55, "duration": 125, "velocity": 84}, {"time": 91445, "pitch": 62, "duration": 122, "velocity": 96}, {"time": 91682, "pitch": 55, "duration": 144, "velocity": 81}, {"time": 91684, "pitch": 62, "duration": 140, "velocity": 90}, {"time": 91921, "pitch": 56, "duration": 380, "velocity": 92}, {"time": 91923, "pitch": 64, "duration": 390, "velocity": 97}, {"time": 92400, "pitch": 56, "duration": 121, "velocity": 93}, {"time": 92402, "pitch": 64, "duration": 133, "velocity": 99}, {"time": 92639, "pitch": 56, "duration": 144, "velocity": 88}, {"time": 92641, "pitch": 64, "duration": 141, "velocity": 95}, {"time": 92879, "pitch": 56, "duration": 142, "velocity": 90}, {"time": 92881, "pitch": 64, "duration": 142, "velocity": 95}, {"time": 93118, "pitch": 57, "duration": 156, "velocity": 85}, {"time": 93120, "pitch": 64, "duration": 156, "velocity": 96}, {"time": 93357, "pitch": 57, "duration": 117, "velocity": 80}, {"time": 93359, "pitch": 64, "duration": 110, "velocity": 95}, {"time": 93597, "pitch": 57, "duration": 110, "velocity": 84}, {"time": 93599, "pitch": 64, "duration": 138, "velocity": 93}, {"time": 93840, "pitch": 55, "duration": 384, "velocity": 100}, {"time": 93842, "pitch": 62, "duration": 375, "velocity": 102}, {"time": 94322, "pitch": 55, "duration": 116, "velocity": 89}, {"time": 94324, "pitch": 62, "duration": 118, "velocity": 95}, {"time": 94562, "pitch": 55, "duration": 153, "velocity": 90}, {"time": 94564, "pitch": 62, "duration": 155, "velocity": 99}, {"time": 94801, "pitch": 55, "duration": 102, "velocity": 84}, {"time": 94803, "pitch": 62, "duration": 118, "velocity": 93}, {"time": 95040, "pitch": 53, "duration": 138, "velocity": 84}, {"time": 95042, "pitch": 60, "duration": 144, "velocity": 95}, {"time": 95280, "pitch": 53, "duration": 81, "velocity": 83}, {"time": 95282, "pitch": 60, "duration": 86, "velocity": 95}, {"time": 95519, "pitch": 53, "duration": 95, "velocity": 90}, {"time": 95521, "pitch": 60, "duration": 122, "velocity": 95}, {"time": 95758, "pitch": 55, "duration": 357, "velocity": 101}, {"time": 95760, "pitch": 62, "duration": 350, "velocity": 106}, {"time": 96237, "pitch": 55, "duration": 109, "velocity": 88}, {"time": 96239, "pitch": 62, "duration": 101, "velocity": 96}, {"time": 96476, "pitch": 55, "duration": 168, "velocity": 91}, {"time": 96478, "pitch": 62, "duration": 166, "velocity": 101}, {"time": 96719, "pitch": 55, "duration": 104, "velocity": 86}, {"time": 96721, "pitch": 62, "duration": 121, "velocity": 99}, {"time": 96962, "pitch": 55, "duration": 126, "velocity": 90}, {"time": 96962, "pitch": 64, "duration": 125, "velocity": 94}, {"time": 97202, "pitch": 55, "duration": 121, "velocity": 85}, {"time": 97204, "pitch": 64, "duration": 116, "velocity": 92}, {"time": 97441, "pitch": 55, "duration": 129, "velocity": 91}, {"time": 97443, "pitch": 64, "duration": 130, "velocity": 99}, {"time": 97680, "pitch": 55, "duration": 136, "velocity": 88}, {"time": 97682, "pitch": 64, "duration": 143, "velocity": 92}, {"time": 97920, "pitch": 53, "duration": 140, "velocity": 89}, {"time": 97922, "pitch": 62, "duration": 147, "velocity": 94}, {"time": 98159, "pitch": 53, "duration": 112, "velocity": 84}, {"time": 98161, "pitch": 62, "duration": 116, "velocity": 95}, {"time": 98399, "pitch": 53, "duration": 128, "velocity": 94}, {"time": 98400, "pitch": 62, "duration": 134, "velocity": 101}, {"time": 98638, "pitch": 53, "duration": 116, "velocity": 80}, {"time": 98640, "pitch": 62, "duration": 146, "velocity": 93}, {"time": 98877, "pitch": 55, "duration": 133, "velocity": 94}, {"time": 98879, "pitch": 62, "duration": 114, "velocity": 98}, {"time": 99120, "pitch": 55, "duration": 101, "velocity": 81}, {"time": 99122, "pitch": 62, "duration": 87, "velocity": 95}, {"time": 99363, "pitch": 55, "duration": 133, "velocity": 82}, {"time": 99365, "pitch": 62, "duration": 134, "velocity": 97}, {"time": 99603, "pitch": 56, "duration": 365, "velocity": 98}, {"time": 99605, "pitch": 64, "duration": 368, "velocity": 100}, {"time": 100081, "pitch": 56, "duration": 116, "velocity": 84}, {"time": 100083, "pitch": 64, "duration": 115, "velocity": 95}, {"time": 100321, "pitch": 56, "duration": 137, "velocity": 90}, {"time": 100323, "pitch": 64, "duration": 139, "velocity": 92}, {"time": 100560, "pitch": 56, "duration": 141, "velocity": 88}, {"time": 100562, "pitch": 64, "duration": 148, "velocity": 95}, {"time": 100799, "pitch": 57, "duration": 151, "velocity": 87}, {"time": 100801, "pitch": 64, "duration": 148, "velocity": 95}, {"time": 101039, "pitch": 57, "duration": 87, "velocity": 80}, {"time": 101041, "pitch": 64, "duration": 82, "velocity": 95}, {"time": 101278, "pitch": 57, "duration": 115, "velocity": 80}, {"time": 101280, "pitch": 64, "duration": 143, "velocity": 95}, {"time": 101517, "pitch": 55, "duration": 365, "velocity": 90}, {"time": 101519, "pitch": 62, "duration": 362, "velocity": 102}, {"time": 102000, "pitch": 55, "duration": 113, "velocity": 85}, {"time": 102002, "pitch": 62, "duration": 113, "velocity": 98}, {"time": 102243, "pitch": 55, "duration": 105, "velocity": 85}, {"time": 102245, "pitch": 62, "duration": 110, "velocity": 100}, {"time": 102482, "pitch": 55, "duration": 113, "velocity": 80}, {"time": 102484, "pitch": 62, "duration": 106, "velocity": 94}, {"time": 102722, "pitch": 53, "duration": 137, "velocity": 93}, {"time": 102724, "pitch": 60, "duration": 138, "velocity": 98}, {"time": 102961, "pitch": 53, "duration": 110, "velocity": 84}, {"time": 102963, "pitch": 60, "duration": 115, "velocity": 99}, {"time": 103200, "pitch": 53, "duration": 120, "velocity": 88}, {"time": 103202, "pitch": 60, "duration": 145, "velocity": 90}, {"time": 103440, "pitch": 55, "duration": 361, "velocity": 98}, {"time": 103442, "pitch": 62, "duration": 349, "velocity": 103}, {"time": 103918, "pitch": 55, "duration": 137, "velocity": 84}, {"time": 103920, "pitch": 62, "duration": 124, "velocity": 97}, {"time": 104158, "pitch": 55, "duration": 162, "velocity": 91}, {"time": 104160, "pitch": 62, "duration": 161, "velocity": 100}, {"time": 104397, "pitch": 55, "duration": 132, "velocity": 87}, {"time": 104399, "pitch": 62, "duration": 136, "velocity": 96}, {"time": 104636, "pitch": 48, "duration": 111, "velocity": 97}, {"time": 104879, "pitch": 48, "duration": 98, "velocity": 84}, {"time": 105122, "pitch": 48, "duration": 106, "velocity": 93}, {"time": 105362, "pitch": 48, "duration": 109, "velocity": 91}, {"time": 105601, "pitch": 48, "duration": 108, "velocity": 92}, {"time": 105841, "pitch": 48, "duration": 108, "velocity": 87}, {"time": 106080, "pitch": 48, "duration": 106, "velocity": 98}, {"time": 106319, "pitch": 48, "duration": 107, "velocity": 97}, {"time": 106559, "pitch": 43, "duration": 94, "velocity": 93}, {"time": 106798, "pitch": 43, "duration": 106, "velocity": 88}, {"time": 107037, "pitch": 43, "duration": 103, "velocity": 93}, {"time": 107280, "pitch": 43, "duration": 104, "velocity": 86}, {"time": 107523, "pitch": 43, "duration": 106, "velocity": 91}, {"time": 107763, "pitch": 43, "duration": 96, "velocity": 90}, {"time": 108002, "pitch": 43, "duration": 93, "velocity": 91}, {"time": 108241, "pitch": 43, "duration": 96, "velocity": 94}, {"time": 108481, "pitch": 45, "duration": 106, "velocity": 93}, {"time": 108720, "pitch": 45, "duration": 106, "velocity": 85}, {"time": 108959, "pitch": 45, "duration": 101, "velocity": 91}, {"time": 109199, "pitch": 45, "duration": 101, "velocity": 92}, {"time": 109438, "pitch": 45, "duration": 101, "velocity": 91}, {"time": 109677, "pitch": 45, "duration": 114, "velocity": 90}, {"time": 109917, "pitch": 43, "duration": 110, "velocity": 87}, {"time": 110160, "pitch": 41, "duration": 357, "velocity": 100}, {"time": 110642, "pitch": 41, "duration": 104, "velocity": 94}, {"time": 110882, "pitch": 41, "duration": 98, "velocity": 90}, {"time": 111121, "pitch": 41, "duration": 99, "velocity": 85}, {"time": 111360, "pitch": 43, "duration": 104, "velocity": 97}, {"time": 111600, "pitch": 43, "duration": 105, "velocity": 86}, {"time": 111839, "pitch": 43, "duration": 111, "velocity": 89}, {"time": 112078, "pitch": 43, "duration": 94, "velocity": 88}, {"time": 112318, "pitch": 48, "duration": 119, "velocity": 87}, {"time": 112557, "pitch": 48, "duration": 112, "velocity": 85}, {"time": 112796, "pitch": 48, "duration": 129, "velocity": 85}, {"time": 113039, "pitch": 48, "duration": 130, "velocity": 84}, {"time": 113283, "pitch": 48, "duration": 118, "velocity": 90}, {"time": 113522, "pitch": 48, "duration": 117, "velocity": 84}, {"time": 113761, "pitch": 48, "duration": 113, "velocity": 85}, {"time": 114001, "pitch": 48, "duration": 102, "velocity": 87}, {"time": 114240, "pitch": 43, "duration": 105, "velocity": 92}, {"time": 114479, "pitch": 43, "duration": 99, "velocity": 85}, {"time": 114719, "pitch": 43, "duration": 99, "velocity": 88}, {"time": 114958, "pitch": 43, "duration": 94, "velocity": 83}, {"time": 115197, "pitch": 43, "duration": 101, "velocity": 86}, {"time": 115440, "pitch": 43, "duration": 91, "velocity": 86}, {"time": 115683, "pitch": 43, "duration": 95, "velocity": 90}, {"time": 115923, "pitch": 43, "duration": 98, "velocity": 94}, {"time": 116162, "pitch": 45, "duration": 103, "velocity": 94}, {"time": 116401, "pitch": 45, "duration": 103, "velocity": 86}, {"time": 116641, "pitch": 45, "duration": 104, "velocity": 87}, {"time": 116880, "pitch": 45, "duration": 97, "velocity": 84}, {"time": 117119, "pitch": 45, "duration": 95, "velocity": 84}, {"time": 117359, "pitch": 45, "duration": 108, "velocity": 88}, {"time": 117598, "pitch": 43, "duration": 112, "velocity": 86}, {"time": 117837, "pitch": 41, "duration": 345, "velocity": 100}, {"time": 118320, "pitch": 41, "duration": 103, "velocity": 91}, {"time": 118563, "pitch": 41, "duration": 117, "velocity": 89}, {"time": 118802, "pitch": 41, "duration": 131, "velocity": 92}, {"time": 119042, "pitch": 43, "duration": 124, "velocity": 93}, {"time": 119281, "pitch": 43, "duration": 101, "velocity": 90}, {"time": 119520, "pitch": 41, "duration": 129, "velocity": 91}, {"time": 119760, "pitch": 41, "duration": 126, "velocity": 100}, {"time": 119999, "pitch": 52, "duration": 259, "velocity": 104}, {"time": 120238, "pitch": 55, "duration": 268, "velocity": 86}, {"time": 120478, "pitch": 59, "duration": 258, "velocity": 84}, {"time": 120717, "pitch": 64, "duration": 485, "velocity": 98}, {"time": 121199, "pitch": 55, "duration": 293, "velocity": 89}, {"time": 121443, "pitch": 52, "duration": 268, "velocity": 91}, {"time": 121682, "pitch": 55, "duration": 236, "velocity": 86}, {"time": 121921, "pitch": 53, "duration": 303, "velocity": 96}, {"time": 122161, "pitch": 57, "duration": 280, "velocity": 79}, {"time": 122400, "pitch": 60, "duration": 258, "velocity": 87}, {"time": 122639, "pitch": 65, "duration": 521, "velocity": 98}, {"time": 123118, "pitch": 57, "duration": 286, "velocity": 87}, {"time": 123357, "pitch": 53, "duration": 232, "velocity": 87}, {"time": 123600, "pitch": 57, "duration": 235, "velocity": 83}, {"time": 123843, "pitch": 50, "duration": 259, "velocity": 94}, {"time": 124083, "pitch": 53, "duration": 276, "velocity": 92}, {"time": 124322, "pitch": 57, "duration": 227, "velocity": 83}, {"time": 124561, "pitch": 62, "duration": 505, "velocity": 101}, {"time": 125040, "pitch": 53, "duration": 281, "velocity": 98}, {"time": 125279, "pitch": 50, "duration": 284, "velocity": 88}, {"time": 125519, "pitch": 53, "duration": 243, "velocity": 94}, {"time": 125758, "pitch": 52, "duration": 261, "velocity": 99}, {"time": 125997, "pitch": 55, "duration": 313, "velocity": 87}, {"time": 126237, "pitch": 59, "duration": 248, "velocity": 81}, {"time": 126480, "pitch": 64, "duration": 487, "velocity": 96}, {"time": 126962, "pitch": 55, "duration": 305, "velocity": 90}, {"time": 127202, "pitch": 52, "duration": 274, "velocity": 88}, {"time": 127441, "pitch": 55, "duration": 258, "velocity": 90}, {"time": 127680, "pitch": 53, "duration": 287, "velocity": 99}, {"time": 127920, "pitch": 57, "duration": 296, "velocity": 81}, {"time": 128159, "pitch": 60, "duration": 223, "velocity": 88}, {"time": 128398, "pitch": 65, "duration": 461, "velocity": 97}, {"time": 128877, "pitch": 57, "duration": 312, "velocity": 89}, {"time": 129116, "pitch": 53, "duration": 297, "velocity": 90}, {"time": 129359, "pitch": 57, "duration": 223, "velocity": 93}, {"time": 129603, "pitch": 55, "duration": 119, "velocity": 80}, {"time": 129605, "pitch": 62, "duration": 122, "velocity": 85}, {"time": 129842, "pitch": 55, "duration": 137, "velocity": 81}, {"time": 129844, "pitch": 62, "duration": 131, "velocity": 87}, {"time": 130081, "pitch": 55, "duration": 150, "velocity": 80}, {"time": 130083, "pitch": 62, "duration": 142, "velocity": 96}, {"time": 130321, "pitch": 55, "duration": 111, "velocity": 80}, {"time": 130323, "pitch": 62, "duration": 105, "velocity": 90}, {"time": 130560, "pitch": 55, "duration": 114, "velocity": 82}, {"time": 130562, "pitch": 62, "duration": 109, "velocity": 90}, {"time": 130799, "pitch": 55, "duration": 145, "velocity": 90}, {"time": 130801, "pitch": 62, "duration": 112, "velocity": 100}, {"time": 131039, "pitch": 55, "duration": 149, "velocity": 90}, {"time": 131041, "pitch": 62, "duration": 138, "velocity": 100}, {"time": 131278, "pitch": 55, "duration": 96, "velocity": 107}, {"time": 131280, "pitch": 62, "duration": 102, "velocity": 111}, {"time": 131517, "pitch": 55, "duration": 137, "velocity": 83}, {"time": 131519, "pitch": 64, "duration": 139, "velocity": 95}, {"time": 131760, "pitch": 55, "duration": 98, "velocity": 81}, {"time": 131762, "pitch": 64, "duration": 120, "velocity": 95}, {"time": 132003, "pitch": 55, "duration": 111, "velocity": 83}, {"time": 132005, "pitch": 64, "duration": 130, "velocity": 96}, {"time": 132243, "pitch": 55, "duration": 127, "velocity": 75}, {"time": 132245, "pitch": 64, "duration": 142, "velocity": 95}, {"time": 132482, "pitch": 53, "duration": 154, "velocity": 88}, {"time": 132484, "pitch": 60, "duration": 155, "velocity": 90}, {"time": 132721, "pitch": 53, "duration": 127, "velocity": 92}, {"time": 132723, "pitch": 60, "duration": 139, "velocity": 95}, {"time": 132961, "pitch": 53, "duration": 137, "velocity": 90}, {"time": 132963, "pitch": 60, "duration": 131, "velocity": 95}, {"time": 133200, "pitch": 53, "duration": 140, "velocity": 92}, {"time": 133202, "pitch": 60, "duration": 165, "velocity": 98}, {"time": 133439, "pitch": 55, "duration": 139, "velocity": 87}, {"time": 133441, "pitch": 62, "duration": 135, "velocity": 94}, {"time": 133679, "pitch": 55, "duration": 125, "velocity": 84}, {"time": 133681, "pitch": 62, "duration": 122, "velocity": 96}, {"time": 133918, "pitch": 55, "duration": 144, "velocity": 81}, {"time": 133920, "pitch": 62, "duration": 140, "velocity": 90}, {"time": 134157, "pitch": 56, "duration": 383, "velocity": 92}, {"time": 134159, "pitch": 64, "duration": 393, "velocity": 97}, {"time": 134640, "pitch": 56, "duration": 123, "velocity": 93}, {"time": 134642, "pitch": 64, "duration": 135, "velocity": 99}, {"time": 134883, "pitch": 56, "duration": 144, "velocity": 88}, {"time": 134885, "pitch": 64, "duration": 141, "velocity": 95}, {"time": 135122, "pitch": 56, "duration": 143, "velocity": 90}, {"time": 135124, "pitch": 64, "duration": 143, "velocity": 95}, {"time": 135362, "pitch": 57, "duration": 155, "velocity": 85}, {"time": 135364, "pitch": 64, "duration": 155, "velocity": 96}, {"time": 135601, "pitch": 57, "duration": 117, "velocity": 80}, {"time": 135603, "pitch": 64, "duration": 110, "velocity": 95}, {"time": 135840, "pitch": 57, "duration": 109, "velocity": 84}, {"time": 135842, "pitch": 64, "duration": 137, "velocity": 93}, {"time": 136080, "pitch": 55, "duration": 380, "velocity": 100}, {"time": 136082, "pitch": 62, "duration": 371, "velocity": 102}, {"time": 136558, "pitch": 55, "duration": 116, "velocity": 89}, {"time": 136560, "pitch": 62, "duration": 118, "velocity": 95}, {"time": 136798, "pitch": 55, "duration": 153, "velocity": 90}, {"time": 136800, "pitch": 62, "duration": 155, "velocity": 99}, {"time": 137037, "pitch": 55, "duration": 102, "velocity": 84}, {"time": 137039, "pitch": 62, "duration": 118, "velocity": 93}, {"time": 137276, "pitch": 53, "duration": 140, "velocity": 84}, {"time": 137278, "pitch": 60, "duration": 146, "velocity": 95}, {"time": 137519, "pitch": 53, "duration": 84, "velocity": 83}, {"time": 137522, "pitch": 60, "duration": 88, "velocity": 95}, {"time": 137763, "pitch": 53, "duration": 94, "velocity": 90}, {"time": 137765, "pitch": 60, "duration": 121, "velocity": 95}, {"time": 138002, "pitch": 55, "duration": 357, "velocity": 101}, {"time": 138004, "pitch": 62, "duration": 350, "velocity": 106}, {"time": 138481, "pitch": 55, "duration": 108, "velocity": 88}, {"time": 138483, "pitch": 62, "duration": 100, "velocity": 96}, {"time": 138720, "pitch": 55, "duration": 165, "velocity": 91}, {"time": 138722, "pitch": 62, "duration": 163, "velocity": 101}, {"time": 138959, "pitch": 55, "duration": 102, "velocity": 86}, {"time": 138961, "pitch": 62, "duration": 119, "velocity": 99}, {"time": 139199, "pitch": 55, "duration": 125, "velocity": 90}, {"time": 139199, "pitch": 64, "duration": 124, "velocity": 94}, {"time": 139438, "pitch": 55, "duration": 122, "velocity": 85}, {"time": 139440, "pitch": 64, "duration": 117, "velocity": 92}, {"time": 139677, "pitch": 55, "duration": 131, "velocity": 91}, {"time": 139679, "pitch": 64, "duration": 132, "velocity": 99}, {"time": 139920, "pitch": 55, "duration": 138, "velocity": 88}, {"time": 139922, "pitch": 64, "duration": 145, "velocity": 92}, {"time": 140163, "pitch": 53, "duration": 141, "velocity": 89}, {"time": 140165, "pitch": 62, "duration": 148, "velocity": 94}, {"time": 140403, "pitch": 53, "duration": 111, "velocity": 84}, {"time": 140405, "pitch": 62, "duration": 115, "velocity": 95}, {"time": 140642, "pitch": 53, "duration": 129, "velocity": 94}, {"time": 140644, "pitch": 62, "duration": 134, "velocity": 101}, {"time": 140881, "pitch": 53, "duration": 116, "velocity": 80}, {"time": 140883, "pitch": 62, "duration": 147, "velocity": 93}, {"time": 141121, "pitch": 55, "duration": 130, "velocity": 94}, {"time": 141123, "pitch": 62, "duration": 112, "velocity": 98}, {"time": 141360, "pitch": 55, "duration": 99, "velocity": 81}, {"time": 141362, "pitch": 62, "duration": 86, "velocity": 95}, {"time": 141600, "pitch": 55, "duration": 132, "velocity": 82}, {"time": 141601, "pitch": 62, "duration": 134, "velocity": 97}, {"time": 141839, "pitch": 56, "duration": 365, "velocity": 98}, {"time": 141841, "pitch": 64, "duration": 368, "velocity": 100}, {"time": 142318, "pitch": 56, "duration": 115, "velocity": 84}, {"time": 142320, "pitch": 64, "duration": 114, "velocity": 95}, {"time": 142557, "pitch": 56, "duration": 140, "velocity": 90}, {"time": 142559, "pitch": 64, "duration": 142, "velocity": 92}, {"time": 142800, "pitch": 56, "duration": 143, "velocity": 88}, {"time": 142802, "pitch": 64, "duration": 150, "velocity": 95}, {"time": 143043, "pitch": 57, "duration": 151, "velocity": 87}, {"time": 143045, "pitch": 64, "duration": 148, "velocity": 95}, {"time": 143282, "pitch": 57, "duration": 88, "velocity": 80}, {"time": 143284, "pitch": 64, "duration": 82, "velocity": 95}, {"time": 143522, "pitch": 57, "duration": 114, "velocity": 80}, {"time": 143524, "pitch": 64, "duration": 142, "velocity": 95}, {"time": 143761, "pitch": 55, "duration": 363, "velocity": 90}, {"time": 143763, "pitch": 62, "duration": 360, "velocity": 102}, {"time": 144240, "pitch": 55, "duration": 111, "velocity": 85}, {"time": 144242, "pitch": 62, "duration": 111, "velocity": 98}, {"time": 144479, "pitch": 55, "duration": 105, "velocity": 85}, {"time": 144481, "pitch": 62, "duration": 110, "velocity": 100}, {"time": 144718, "pitch": 55, "duration": 113, "velocity": 80}, {"time": 144720, "pitch": 62, "duration": 106, "velocity": 94}, {"time": 144958, "pitch": 53, "duration": 137, "velocity": 93}, {"time": 144960, "pitch": 60, "duration": 138, "velocity": 98}, {"time": 145197, "pitch": 53, "duration": 110, "velocity": 84}, {"time": 145199, "pitch": 60, "duration": 115, "velocity": 99}, {"time": 145436, "pitch": 53, "duration": 122, "velocity": 88}, {"time": 145438, "pitch": 60, "duration": 147, "velocity": 90}, {"time": 145680, "pitch": 55, "duration": 364, "velocity": 98}, {"time": 145682, "pitch": 62, "duration": 352, "velocity": 103}, {"time": 146162, "pitch": 55, "duration": 137, "velocity": 84}, {"time": 146164, "pitch": 62, "duration": 124, "velocity": 97}, {"time": 146401, "pitch": 55, "duration": 163, "velocity": 91}, {"time": 146403, "pitch": 62, "duration": 162, "velocity": 100}, {"time": 146641, "pitch": 55, "duration": 131, "velocity": 87}, {"time": 146643, "pitch": 62, "duration": 135, "velocity": 96}, {"time": 146880, "pitch": 53, "duration": 131, "velocity": 83}, {"time": 146880, "pitch": 60, "duration": 122, "velocity": 87}, {"time": 147119, "pitch": 53, "duration": 133, "velocity": 87}, {"time": 147119, "pitch": 60, "duration": 124, "velocity": 89}, {"time": 147359, "pitch": 53, "duration": 129, "velocity": 94}, {"time": 147359, "pitch": 60, "duration": 122, "velocity": 97}, {"time": 147598, "pitch": 53, "duration": 97, "velocity": 91}, {"time": 147598, "pitch": 60, "duration": 90, "velocity": 96}, {"time": 147837, "pitch": 53, "duration": 132, "velocity": 93}, {"time": 147837, "pitch": 60, "duration": 106, "velocity": 98}, {"time": 148080, "pitch": 53, "duration": 89, "velocity": 91}, {"time": 148080, "pitch": 60, "duration": 80, "velocity": 97}, {"time": 148323, "pitch": 53, "duration": 121, "velocity": 91}, {"time": 148323, "pitch": 60, "duration": 106, "velocity": 99}, {"time": 148563, "pitch": 53, "duration": 137, "velocity": 87}, {"time": 148563, "pitch": 60, "duration": 128, "velocity": 92}, {"time": 148807, "pitch": 52, "duration": 481, "velocity": 91}, {"time": 148807, "pitch": 60, "duration": 444, "velocity": 94}, {"time": 149535, "pitch": 52, "duration": 241, "velocity": 94}, {"time": 149548, "pitch": 60, "duration": 209, "velocity": 96}, {"time": 150074, "pitch": 52, "duration": 179, "velocity": 92}, {"time": 150074, "pitch": 60, "duration": 175, "velocity": 98}, {"time": 150321, "pitch": 52, "duration": 50, "velocity": 92}, {"time": 150321, "pitch": 60, "duration": 45, "velocity": 96}, {"time": 150460, "pitch": 52, "duration": 2459, "velocity": 96}, {"time": 150462, "pitch": 60, "duration": 2460, "velocity": 96}, {"time": 31204, "pitch": 76, "duration": 269, "velocity": 112}, {"time": 31443, "pitch": 77, "duration": 235, "velocity": 114}, {"time": 31682, "pitch": 79, "duration": 93, "velocity": 100}, {"time": 31922, "pitch": 79, "duration": 92, "velocity": 114}, {"time": 32161, "pitch": 79, "duration": 93, "velocity": 113}, {"time": 32400, "pitch": 79, "duration": 89, "velocity": 118}, {"time": 32640, "pitch": 77, "duration": 93, "velocity": 112}, {"time": 32879, "pitch": 77, "duration": 96, "velocity": 115}, {"time": 33118, "pitch": 77, "duration": 136, "velocity": 122}, {"time": 33358, "pitch": 79, "duration": 157, "velocity": 110}, {"time": 33597, "pitch": 76, "duration": 192, "velocity": 125}, {"time": 33840, "pitch": 76, "duration": 193, "velocity": 125}, {"time": 34083, "pitch": 76, "duration": 190, "velocity": 125}, {"time": 34323, "pitch": 77, "duration": 251, "velocity": 112}, {"time": 34562, "pitch": 79, "duration": 475, "velocity": 115}, {"time": 35041, "pitch": 77, "duration": 229, "velocity": 101}, {"time": 35280, "pitch": 76, "duration": 235, "velocity": 121}, {"time": 35519, "pitch": 81, "duration": 1083, "velocity": 122}, {"time": 39364, "pitch": 76, "duration": 90, "velocity": 96}, {"time": 39603, "pitch": 76, "duration": 89, "velocity": 107}, {"time": 39842, "pitch": 76, "duration": 83, "velocity": 121}, {"time": 40082, "pitch": 76, "duration": 238, "velocity": 113}, {"time": 40321, "pitch": 74, "duration": 259, "velocity": 101}, {"time": 40560, "pitch": 72, "duration": 237, "velocity": 92}, {"time": 40800, "pitch": 71, "duration": 238, "velocity": 95}, {"time": 41039, "pitch": 69, "duration": 238, "velocity": 95}, {"time": 41278, "pitch": 71, "duration": 239, "velocity": 111}, {"time": 41757, "pitch": 72, "duration": 242, "velocity": 111}, {"time": 42000, "pitch": 74, "duration": 482, "velocity": 107}, {"time": 42483, "pitch": 72, "duration": 235, "velocity": 107}, {"time": 42722, "pitch": 71, "duration": 227, "velocity": 100}, {"time": 42961, "pitch": 72, "duration": 222, "velocity": 87}, {"time": 43201, "pitch": 69, "duration": 477, "velocity": 107}, {"time": 46798, "pitch": 72, "duration": 106, "velocity": 90}, {"time": 46918, "pitch": 74, "duration": 156, "velocity": 93}, {"time": 47037, "pitch": 76, "duration": 177, "velocity": 101}, {"time": 47281, "pitch": 76, "duration": 107, "velocity": 101}, {"time": 47524, "pitch": 76, "duration": 90, "velocity": 101}, {"time": 47763, "pitch": 76, "duration": 195, "velocity": 101}, {"time": 48002, "pitch": 74, "duration": 253, "velocity": 99}, {"time": 48242, "pitch": 72, "duration": 222, "velocity": 93}, {"time": 48481, "pitch": 71, "duration": 232, "velocity": 90}, {"time": 48720, "pitch": 69, "duration": 297, "velocity": 81}, {"time": 48960, "pitch": 71, "duration": 248, "velocity": 94}, {"time": 49438, "pitch": 72, "duration": 203, "velocity": 101}, {"time": 49678, "pitch": 74, "duration": 477, "velocity": 102}, {"time": 50160, "pitch": 72, "duration": 253, "velocity": 98}, {"time": 50403, "pitch": 71, "duration": 247, "velocity": 92}, {"time": 50643, "pitch": 72, "duration": 283, "velocity": 96}, {"time": 50886, "pitch": 69, "duration": 160, "velocity": 89}, {"time": 81121, "pitch": 76, "duration": 269, "velocity": 112}, {"time": 81360, "pitch": 77, "duration": 236, "velocity": 114}, {"time": 81600, "pitch": 79, "duration": 93, "velocity": 100}, {"time": 81839, "pitch": 79, "duration": 93, "velocity": 114}, {"time": 82078, "pitch": 79, "duration": 93, "velocity": 113}, {"time": 82318, "pitch": 79, "duration": 89, "velocity": 118}, {"time": 82557, "pitch": 77, "duration": 95, "velocity": 112}, {"time": 82800, "pitch": 77, "duration": 97, "velocity": 115}, {"time": 83043, "pitch": 77, "duration": 136, "velocity": 122}, {"time": 83283, "pitch": 79, "duration": 157, "velocity": 110}, {"time": 83522, "pitch": 76, "duration": 189, "velocity": 125}, {"time": 83761, "pitch": 76, "duration": 190, "velocity": 125}, {"time": 84001, "pitch": 76, "duration": 189, "velocity": 125}, {"time": 84240, "pitch": 77, "duration": 251, "velocity": 112}, {"time": 84479, "pitch": 79, "duration": 153, "velocity": 121}, {"time": 84719, "pitch": 79, "duration": 239, "velocity": 121}, {"time": 84958, "pitch": 77, "duration": 229, "velocity": 101}, {"time": 85197, "pitch": 76, "duration": 236, "velocity": 121}, {"time": 85437, "pitch": 81, "duration": 1088, "velocity": 122}, {"time": 89281, "pitch": 76, "duration": 91, "velocity": 96}, {"time": 89520, "pitch": 76, "duration": 89, "velocity": 107}, {"time": 89760, "pitch": 76, "duration": 83, "velocity": 121}, {"time": 89999, "pitch": 76, "duration": 238, "velocity": 113}, {"time": 90238, "pitch": 74, "duration": 260, "velocity": 101}, {"time": 90478, "pitch": 72, "duration": 236, "velocity": 92}, {"time": 90717, "pitch": 71, "duration": 242, "velocity": 95}, {"time": 90960, "pitch": 69, "duration": 242, "velocity": 95}, {"time": 91203, "pitch": 71, "duration": 239, "velocity": 111}, {"time": 91682, "pitch": 72, "duration": 238, "velocity": 111}, {"time": 91921, "pitch": 74, "duration": 478, "velocity": 107}, {"time": 92400, "pitch": 72, "duration": 235, "velocity": 107}, {"time": 92639, "pitch": 71, "duration": 228, "velocity": 100}, {"time": 92879, "pitch": 72, "duration": 221, "velocity": 87}, {"time": 93118, "pitch": 69, "duration": 478, "velocity": 107}, {"time": 96719, "pitch": 72, "duration": 108, "velocity": 90}, {"time": 96841, "pitch": 74, "duration": 157, "velocity": 93}, {"time": 96962, "pitch": 76, "duration": 174, "velocity": 101}, {"time": 97202, "pitch": 76, "duration": 106, "velocity": 101}, {"time": 97441, "pitch": 76, "duration": 91, "velocity": 101}, {"time": 97680, "pitch": 76, "duration": 196, "velocity": 101}, {"time": 97920, "pitch": 74, "duration": 252, "velocity": 99}, {"time": 98159, "pitch": 72, "duration": 223, "velocity": 93}, {"time": 98399, "pitch": 71, "duration": 232, "velocity": 90}, {"time": 98638, "pitch": 69, "duration": 297, "velocity": 81}, {"time": 98877, "pitch": 71, "duration": 252, "velocity": 94}, {"time": 99363, "pitch": 72, "duration": 203, "velocity": 101}, {"time": 99603, "pitch": 74, "duration": 473, "velocity": 102}, {"time": 100081, "pitch": 72, "duration": 250, "velocity": 98}, {"time": 100321, "pitch": 71, "duration": 246, "velocity": 92}, {"time": 100560, "pitch": 72, "duration": 238, "velocity": 96}, {"time": 100803, "pitch": 69, "duration": 239, "velocity": 89}, {"time": 101278, "pitch": 77, "duration": 238, "velocity": 121}, {"time": 101517, "pitch": 76, "duration": 482, "velocity": 121}, {"time": 102000, "pitch": 72, "duration": 242, "velocity": 121}, {"time": 102482, "pitch": 72, "duration": 239, "velocity": 121}, {"time": 102722, "pitch": 74, "duration": 235, "velocity": 103}, {"time": 102961, "pitch": 72, "duration": 242, "velocity": 91}, {"time": 103200, "pitch": 74, "duration": 201, "velocity": 100}, {"time": 103440, "pitch": 76, "duration": 424, "velocity": 103}, {"time": 103918, "pitch": 74, "duration": 425, "velocity": 108}, {"time": 104397, "pitch": 76, "duration": 1915, "velocity": 107}, {"time": 131517, "pitch": 76, "duration": 92, "velocity": 96}, {"time": 131760, "pitch": 76, "duration": 91, "velocity": 107}, {"time": 132003, "pitch": 76, "duration": 83, "velocity": 121}, {"time": 132243, "pitch": 76, "duration": 238, "velocity": 113}, {"time": 132482, "pitch": 74, "duration": 259, "velocity": 101}, {"time": 132721, "pitch": 72, "duration": 237, "velocity": 92}, {"time": 132961, "pitch": 71, "duration": 238, "velocity": 95}, {"time": 133200, "pitch": 69, "duration": 238, "velocity": 95}, {"time": 133439, "pitch": 71, "duration": 239, "velocity": 111}, {"time": 133918, "pitch": 72, "duration": 239, "velocity": 111}, {"time": 134157, "pitch": 74, "duration": 482, "velocity": 107}, {"time": 134640, "pitch": 72, "duration": 239, "velocity": 107}, {"time": 134883, "pitch": 71, "duration": 227, "velocity": 100}, {"time": 135122, "pitch": 72, "duration": 222, "velocity": 87}, {"time": 135362, "pitch": 69, "duration": 477, "velocity": 107}, {"time": 138959, "pitch": 72, "duration": 106, "velocity": 90}, {"time": 139079, "pitch": 74, "duration": 156, "velocity": 93}, {"time": 139199, "pitch": 76, "duration": 173, "velocity": 101}, {"time": 139438, "pitch": 76, "duration": 106, "velocity": 101}, {"time": 139677, "pitch": 76, "duration": 92, "velocity": 101}, {"time": 139920, "pitch": 76, "duration": 199, "velocity": 101}, {"time": 140163, "pitch": 74, "duration": 253, "velocity": 99}, {"time": 140403, "pitch": 72, "duration": 222, "velocity": 93}, {"time": 140642, "pitch": 71, "duration": 233, "velocity": 90}, {"time": 140881, "pitch": 69, "duration": 297, "velocity": 81}, {"time": 141121, "pitch": 71, "duration": 248, "velocity": 94}, {"time": 141600, "pitch": 72, "duration": 202, "velocity": 101}, {"time": 141839, "pitch": 74, "duration": 474, "velocity": 102}, {"time": 142318, "pitch": 72, "duration": 249, "velocity": 98}, {"time": 142557, "pitch": 71, "duration": 250, "velocity": 92}, {"time": 142800, "pitch": 72, "duration": 242, "velocity": 96}, {"time": 143043, "pitch": 69, "duration": 345, "velocity": 99}, {"time": 143522, "pitch": 77, "duration": 203, "velocity": 109}, {"time": 143761, "pitch": 76, "duration": 346, "velocity": 107}, {"time": 144240, "pitch": 72, "duration": 337, "velocity": 103}, {"time": 144718, "pitch": 72, "duration": 213, "velocity": 101}, {"time": 144958, "pitch": 74, "duration": 235, "velocity": 103}, {"time": 145197, "pitch": 72, "duration": 242, "velocity": 91}, {"time": 145436, "pitch": 74, "duration": 204, "velocity": 100}, {"time": 145680, "pitch": 76, "duration": 428, "velocity": 103}, {"time": 146162, "pitch": 74, "duration": 425, "velocity": 108}, {"time": 146641, "pitch": 76, "duration": 1915, "velocity": 107}, {"time": 368, "pitch": 38, "duration": 5, "velocity": 111}, {"time": 368, "pitch": 46, "duration": 5, "velocity": 111}, {"time": 479, "pitch": 38, "duration": 9, "velocity": 109}, {"time": 598, "pitch": 38, "duration": 10, "velocity": 109}, {"time": 718, "pitch": 41, "duration": 10, "velocity": 111}, {"time": 957, "pitch": 36, "duration": 10, "velocity": 120}, {"time": 957, "pitch": 49, "duration": 10, "velocity": 109}, {"time": 957, "pitch": 54, "duration": 10, "velocity": 69}, {"time": 1200, "pitch": 42, "duration": 10, "velocity": 81}, {"time": 1200, "pitch": 54, "duration": 10, "velocity": 59}, {"time": 1443, "pitch": 38, "duration": 10, "velocity": 109}, {"time": 1443, "pitch": 42, "duration": 10, "velocity": 89}, {"time": 1443, "pitch": 54, "duration": 10, "velocity": 61}, {"time": 1682, "pitch": 36, "duration": 10, "velocity": 106}, {"time": 1682, "pitch": 42, "duration": 10, "velocity": 63}, {"time": 1682, "pitch": 54, "duration": 10, "velocity": 61}, {"time": 1922, "pitch": 36, "duration": 10, "velocity": 120}, {"time": 1922, "pitch": 42, "duration": 10, "velocity": 114}, {"time": 1922, "pitch": 54, "duration": 10, "velocity": 64}, {"time": 2161, "pitch": 42, "duration": 10, "velocity": 53}, {"time": 2161, "pitch": 54, "duration": 10, "velocity": 59}, {"time": 2400, "pitch": 38, "duration": 10, "velocity": 113}, {"time": 2400, "pitch": 42, "duration": 10, "velocity": 97}, {"time": 2400, "pitch": 54, "duration": 10, "velocity": 65}, {"time": 2640, "pitch": 42, "duration": 10, "velocity": 56}, {"time": 2640, "pitch": 54, "duration": 10, "velocity": 62}, {"time": 2879, "pitch": 36, "duration": 10, "velocity": 115}, {"time": 2879, "pitch": 42, "duration": 10, "velocity": 127}, {"time": 2879, "pitch": 54, "duration": 10, "velocity": 69}, {"time": 3118, "pitch": 42, "duration": 10, "velocity": 73}, {"time": 3118, "pitch": 54, "duration": 10, "velocity": 59}, {"time": 3358, "pitch": 38, "duration": 10, "velocity": 113}, {"time": 3358, "pitch": 42, "duration": 10, "velocity": 93}, {"time": 3358, "pitch": 54, "duration": 10, "velocity": 61}, {"time": 3597, "pitch": 36, "duration": 10, "velocity": 106}, {"time": 3597, "pitch": 42, "duration": 10, "velocity": 72}, {"time": 3597, "pitch": 54, "duration": 10, "velocity": 61}, {"time": 3836, "pitch": 36, "duration": 11, "velocity": 120}, {"time": 3836, "pitch": 42, "duration": 11, "velocity": 122}, {"time": 3836, "pitch": 54, "duration": 11, "velocity": 64}, {"time": 4080, "pitch": 42, "duration": 10, "velocity": 69}, {"time": 4080, "pitch": 54, "duration": 10, "velocity": 59}, {"time": 4323, "pitch": 38, "duration": 10, "velocity": 113}, {"time": 4323, "pitch": 42, "duration": 10, "velocity": 118}, {"time": 4323, "pitch": 54, "duration": 10, "velocity": 65}, {"time": 4562, "pitch": 42, "duration": 10, "velocity": 80}, {"time": 4562, "pitch": 54, "duration": 10, "velocity": 62}, {"time": 4801, "pitch": 36, "duration": 10, "velocity": 115}, {"time": 4801, "pitch": 42, "duration": 10, "velocity": 127}, {"time": 4801, "pitch": 54, "duration": 10, "velocity": 69}, {"time": 5041, "pitch": 42, "duration": 10, "velocity": 73}, {"time": 5041, "pitch": 54, "duration": 10, "velocity": 59}, {"time": 5280, "pitch": 38, "duration": 10, "velocity": 113}, {"time": 5280, "pitch": 42, "duration": 10, "velocity": 93}, {"time": 5280, "pitch": 54, "duration": 10, "velocity": 61}, {"time": 5519, "pitch": 36, "duration": 10, "velocity": 106}, {"time": 5519, "pitch": 42, "duration": 10, "velocity": 72}, {"time": 5519, "pitch": 54, "duration": 10, "velocity": 61}, {"time": 5759, "pitch": 36, "duration": 10, "velocity": 120}, {"time": 5759, "pitch": 42, "duration": 10, "velocity": 122}, {"time": 5759, "pitch": 54, "duration": 10, "velocity": 64}, {"time": 5998, "pitch": 42, "duration": 10, "velocity": 69}, {"time": 5998, "pitch": 54, "duration": 10, "velocity": 59}, {"time": 6237, "pitch": 38, "duration": 10, "velocity": 113}, {"time": 6237, "pitch": 42, "duration": 10, "velocity": 118}, {"time": 6237, "pitch": 54, "duration": 10, "velocity": 65}, {"time": 6480, "pitch": 42, "duration": 11, "velocity": 80}, {"time": 6480, "pitch": 54, "duration": 11, "velocity": 62}, {"time": 6724, "pitch": 36, "duration": 10, "velocity": 115}, {"time": 6724, "pitch": 46, "duration": 10, "velocity": 127}, {"time": 6724, "pitch": 54, "duration": 10, "velocity": 69}, {"time": 6963, "pitch": 46, "duration": 10, "velocity": 100}, {"time": 6963, "pitch": 54, "duration": 10, "velocity": 59}, {"time": 7202, "pitch": 38, "duration": 10, "velocity": 113}, {"time": 7202, "pitch": 46, "duration": 10, "velocity": 93}, {"time": 7202, "pitch": 54, "duration": 10, "velocity": 61}, {"time": 7442, "pitch": 36, "duration": 10, "velocity": 106}, {"time": 7442, "pitch": 46, "duration": 10, "velocity": 119}, {"time": 7442, "pitch": 54, "duration": 10, "velocity": 61}, {"time": 7681, "pitch": 36, "duration": 10, "velocity": 120}, {"time": 7681, "pitch": 46, "duration": 10, "velocity": 94}, {"time": 7681, "pitch": 54, "duration": 10, "velocity": 64}, {"time": 7801, "pitch": 46, "duration": 10, "velocity": 106}, {"time": 7920, "pitch": 46, "duration": 10, "velocity": 106}, {"time": 7920, "pitch": 54, "duration": 10, "velocity": 59}, {"time": 8160, "pitch": 38, "duration": 10, "velocity": 104}, {"time": 8160, "pitch": 49, "duration": 10, "velocity": 86}, {"time": 8160, "pitch": 54, "duration": 10, "velocity": 65}, {"time": 8399, "pitch": 46, "duration": 10, "velocity": 94}, {"time": 8399, "pitch": 54, "duration": 10, "velocity": 62}, {"time": 8638, "pitch": 36, "duration": 10, "velocity": 115}, {"time": 8638, "pitch": 42, "duration": 10, "velocity": 127}, {"time": 8878, "pitch": 42, "duration": 10, "velocity": 73}, {"time": 9117, "pitch": 38, "duration": 10, "velocity": 113}, {"time": 9117, "pitch": 42, "duration": 10, "velocity": 93}, {"time": 9360, "pitch": 42, "duration": 10, "velocity": 72}, {"time": 9603, "pitch": 36, "duration": 10, "velocity": 115}, {"time": 9603, "pitch": 42, "duration": 10, "velocity": 122}, {"time": 9842, "pitch": 42, "duration": 10, "velocity": 69}, {"time": 10082, "pitch": 38, "duration": 10, "velocity": 113}, {"time": 10082, "pitch": 42, "duration": 10, "velocity": 118}, {"time": 10321, "pitch": 42, "duration": 10, "velocity": 80}, {"time": 10560, "pitch": 36, "duration": 10, "velocity": 115}, {"time": 10560, "pitch": 42, "duration": 10, "velocity": 127}, {"time": 10800, "pitch": 42, "duration": 10, "velocity": 73}, {"time": 11039, "pitch": 38, "duration": 10, "velocity": 113}, {"time": 11039, "pitch": 42, "duration": 10, "velocity": 93}, {"time": 11278, "pitch": 42, "duration": 10, "velocity": 72}, {"time": 11518, "pitch": 36, "duration": 10, "velocity": 115}, {"time": 11518, "pitch": 42, "duration": 10, "velocity": 122}, {"time": 11757, "pitch": 42, "duration": 10, "velocity": 69}, {"time": 11997, "pitch": 38, "duration": 10, "velocity": 113}, {"time": 11997, "pitch": 42, "duration": 10, "velocity": 118}, {"time": 12240, "pitch": 42, "duration": 10, "velocity": 80}, {"time": 12483, "pitch": 36, "duration": 10, "velocity": 115}, {"time": 12483, "pitch": 42, "duration": 10, "velocity": 127}, {"time": 12722, "pitch": 42, "duration": 10, "velocity": 73}, {"time": 12961, "pitch": 38, "duration": 10, "velocity": 113}, {"time": 12961, "pitch": 42, "duration": 10, "velocity": 93}, {"time": 13201, "pitch": 42, "duration": 10, "velocity": 72}, {"time": 13440, "pitch": 36, "duration": 10, "velocity": 115}, {"time": 13440, "pitch": 42, "duration": 10, "velocity": 122}, {"time": 13679, "pitch": 42, "duration": 10, "velocity": 69}, {"time": 13919, "pitch": 38, "duration": 10, "velocity": 113}, {"time": 13919, "pitch": 42, "duration": 10, "velocity": 118}, {"time": 14158, "pitch": 42, "duration": 10, "velocity": 80}, {"time": 14397, "pitch": 36, "duration": 10, "velocity": 115}, {"time": 14397, "pitch": 42, "duration": 10, "velocity": 127}, {"time": 14640, "pitch": 42, "duration": 11, "velocity": 73}, {"time": 14884, "pitch": 38, "duration": 10, "velocity": 113}, {"time": 14884, "pitch": 42, "duration": 10, "velocity": 93}, {"time": 15123, "pitch": 42, "duration": 10, "velocity": 72}, {"time": 15362, "pitch": 36, "duration": 10, "velocity": 115}, {"time": 15362, "pitch": 42, "duration": 10, "velocity": 122}, {"time": 15602, "pitch": 42, "duration": 10, "velocity": 69}, {"time": 15841, "pitch": 38, "duration": 10, "velocity": 113}, {"time": 15841, "pitch": 42, "duration": 10, "velocity": 118}, {"time": 16080, "pitch": 42, "duration": 10, "velocity": 80}, {"time": 16320, "pitch": 36, "duration": 10, "velocity": 115}, {"time": 16320, "pitch": 42, "duration": 10, "velocity": 127}, {"time": 16559, "pitch": 42, "duration": 10, "velocity": 73}, {"time": 16798, "pitch": 38, "duration": 10, "velocity": 113}, {"time": 16798, "pitch": 42, "duration": 10, "velocity": 93}, {"time": 17038, "pitch": 42, "duration": 10, "velocity": 72}, {"time": 17277, "pitch": 36, "duration": 10, "velocity": 115}, {"time": 17277, "pitch": 42, "duration": 10, "velocity": 122}, {"time": 17520, "pitch": 42, "duration": 10, "velocity": 69}, {"time": 17763, "pitch": 38, "duration": 10, "velocity": 113}, {"time": 17763, "pitch": 42, "duration": 10, "velocity": 118}, {"time": 18002, "pitch": 42, "duration": 10, "velocity": 80}, {"time": 18242, "pitch": 36, "duration": 10, "velocity": 115}, {"time": 18242, "pitch": 42, "duration": 10, "velocity": 127}, {"time": 18481, "pitch": 42, "duration": 10, "velocity": 73}, {"time": 18720, "pitch": 38, "duration": 10, "velocity": 113}, {"time": 18720, "pitch": 42, "duration": 10, "velocity": 93}, {"time": 18960, "pitch": 42, "duration": 10, "velocity": 72}, {"time": 19199, "pitch": 36, "duration": 10, "velocity": 115}, {"time": 19199, "pitch": 42, "duration": 10, "velocity": 122}, {"time": 19439, "pitch": 42, "duration": 9, "velocity": 69}, {"time": 19678, "pitch": 38, "duration": 10, "velocity": 113}, {"time": 19678, "pitch": 42, "duration": 10, "velocity": 118}, {"time": 19917, "pitch": 42, "duration": 10, "velocity": 80}, {"time": 20157, "pitch": 36, "duration": 10, "velocity": 115}, {"time": 20157, "pitch": 42, "duration": 10, "velocity": 127}, {"time": 20400, "pitch": 42, "duration": 10, "velocity": 73}, {"time": 20643, "pitch": 38, "duration": 10, "velocity": 113}, {"time": 20643, "pitch": 42, "duration": 10, "velocity": 93}, {"time": 20882, "pitch": 42, "duration": 10, "velocity": 72}, {"time": 21121, "pitch": 36, "duration": 10, "velocity": 115}, {"time": 21121, "pitch": 42, "duration": 10, "velocity": 122}, {"time": 21361, "pitch": 42, "duration": 10, "velocity": 69}, {"time": 21600, "pitch": 38, "duration": 10, "velocity": 113}, {"time": 21600, "pitch": 42, "duration": 10, "velocity": 118}, {"time": 21839, "pitch": 42, "duration": 10, "velocity": 80}, {"time": 22079, "pitch": 36, "duration": 10, "velocity": 115}, {"time": 22079, "pitch": 42, "duration": 10, "velocity": 127}, {"time": 22318, "pitch": 42, "duration": 10, "velocity": 73}, {"time": 22557, "pitch": 38, "duration": 11, "velocity": 113}, {"time": 22557, "pitch": 42, "duration": 11, "velocity": 93}, {"time": 22801, "pitch": 42, "duration": 10, "velocity": 72}, {"time": 23044, "pitch": 36, "duration": 10, "velocity": 120}, {"time": 23044, "pitch": 46, "duration": 10, "velocity": 90}, {"time": 23283, "pitch": 46, "duration": 10, "velocity": 113}, {"time": 23522, "pitch": 38, "duration": 10, "velocity": 113}, {"time": 23522, "pitch": 46, "duration": 10, "velocity": 118}, {"time": 23762, "pitch": 46, "duration": 10, "velocity": 127}, {"time": 24001, "pitch": 36, "duration": 10, "velocity": 115}, {"time": 24001, "pitch": 49, "duration": 10, "velocity": 60}, {"time": 24240, "pitch": 42, "duration": 10, "velocity": 73}, {"time": 24480, "pitch": 38, "duration": 10, "velocity": 113}, {"time": 24480, "pitch": 42, "duration": 10, "velocity": 93}, {"time": 24719, "pitch": 36, "duration": 10, "velocity": 106}, {"time": 24719, "pitch": 42, "duration": 10, "velocity": 72}, {"time": 24958, "pitch": 36, "duration": 10, "velocity": 120}, {"time": 24958, "pitch": 42, "duration": 10, "velocity": 122}, {"time": 25198, "pitch": 42, "duration": 10, "velocity": 69}, {"time": 25437, "pitch": 38, "duration": 10, "velocity": 113}, {"time": 25437, "pitch": 42, "duration": 10, "velocity": 118}, {"time": 25437, "pitch": 54, "duration": 10, "velocity": 82}, {"time": 25680, "pitch": 42, "duration": 10, "velocity": 80}, {"time": 25923, "pitch": 36, "duration": 10, "velocity": 115}, {"time": 25923, "pitch": 42, "duration": 10, "velocity": 127}, {"time": 26163, "pitch": 42, "duration": 9, "velocity": 73}, {"time": 26402, "pitch": 38, "duration": 10, "velocity": 113}, {"time": 26402, "pitch": 42, "duration": 10, "velocity": 93}, {"time": 26641, "pitch": 36, "duration": 10, "velocity": 106}, {"time": 26641, "pitch": 42, "duration": 10, "velocity": 72}, {"time": 26881, "pitch": 36, "duration": 9, "velocity": 120}, {"time": 26881, "pitch": 42, "duration": 9, "velocity": 122}, {"time": 27120, "pitch": 42, "duration": 10, "velocity": 69}, {"time": 27359, "pitch": 38, "duration": 10, "velocity": 113}, {"time": 27359, "pitch": 42, "duration": 10, "velocity": 118}, {"time": 27359, "pitch": 54, "duration": 10, "velocity": 83}, {"time": 27599, "pitch": 42, "duration": 10, "velocity": 80}, {"time": 27838, "pitch": 36, "duration": 10, "velocity": 115}, {"time": 27838, "pitch": 42, "duration": 10, "velocity": 127}, {"time": 28077, "pitch": 42, "duration": 10, "velocity": 73}, {"time": 28317, "pitch": 38, "duration": 10, "velocity": 113}, {"time": 28317, "pitch": 42, "duration": 10, "velocity": 93}, {"time": 28560, "pitch": 36, "duration": 10, "velocity": 106}, {"time": 28560, "pitch": 42, "duration": 10, "velocity": 72}, {"time": 28803, "pitch": 36, "duration": 10, "velocity": 120}, {"time": 28803, "pitch": 42, "duration": 10, "velocity": 122}, {"time": 29042, "pitch": 42, "duration": 10, "velocity": 69}, {"time": 29281, "pitch": 38, "duration": 10, "velocity": 113}, {"time": 29281, "pitch": 42, "duration": 10, "velocity": 118}, {"time": 29281, "pitch": 54, "duration": 10, "velocity": 82}, {"time": 29521, "pitch": 42, "duration": 10, "velocity": 80}, {"time": 29760, "pitch": 36, "duration": 10, "velocity": 115}, {"time": 29760, "pitch": 42, "duration": 10, "velocity": 127}, {"time": 29999, "pitch": 42, "duration": 10, "velocity": 73}, {"time": 30239, "pitch": 38, "duration": 10, "velocity": 113}, {"time": 30239, "pitch": 42, "duration": 10, "velocity": 93}, {"time": 30478, "pitch": 36, "duration": 10, "velocity": 106}, {"time": 30478, "pitch": 42, "duration": 10, "velocity": 72}, {"time": 30717, "pitch": 36, "duration": 11, "velocity": 120}, {"time": 30717, "pitch": 42, "duration": 11, "velocity": 122}, {"time": 30961, "pitch": 42, "duration": 10, "velocity": 69}, {"time": 31204, "pitch": 38, "duration": 10, "velocity": 113}, {"time": 31204, "pitch": 46, "duration": 10, "velocity": 118}, {"time": 31204, "pitch": 54, "duration": 10, "velocity": 83}, {"time": 31443, "pitch": 46, "duration": 10, "velocity": 89}, {"time": 31682, "pitch": 36, "duration": 10, "velocity": 106}, {"time": 31682, "pitch": 42, "duration": 10, "velocity": 106}, {"time": 31922, "pitch": 36, "duration": 10, "velocity": 120}, {"time": 31922, "pitch": 46, "duration": 10, "velocity": 92}, {"time": 32161, "pitch": 38, "duration": 10, "velocity": 113}, {"time": 32161, "pitch": 42, "duration": 10, "velocity": 92}, {"time": 32161, "pitch": 54, "duration": 10, "velocity": 88}, {"time": 32400, "pitch": 42, "duration": 10, "velocity": 78}, {"time": 32640, "pitch": 36, "duration": 10, "velocity": 106}, {"time": 32640, "pitch": 42, "duration": 10, "velocity": 92}, {"time": 32879, "pitch": 36, "duration": 10, "velocity": 120}, {"time": 32879, "pitch": 46, "duration": 10, "velocity": 92}, {"time": 33118, "pitch": 38, "duration": 10, "velocity": 113}, {"time": 33118, "pitch": 42, "duration": 10, "velocity": 120}, {"time": 33118, "pitch": 54, "duration": 10, "velocity": 91}, {"time": 33358, "pitch": 42, "duration": 10, "velocity": 80}, {"time": 33597, "pitch": 36, "duration": 10, "velocity": 106}, {"time": 33597, "pitch": 42, "duration": 10, "velocity": 106}, {"time": 33840, "pitch": 36, "duration": 10, "velocity": 120}, {"time": 33840, "pitch": 46, "duration": 10, "velocity": 97}, {"time": 34083, "pitch": 38, "duration": 10, "velocity": 99}, {"time": 34083, "pitch": 42, "duration": 10, "velocity": 92}, {"time": 34083, "pitch": 54, "duration": 10, "velocity": 88}, {"time": 34323, "pitch": 42, "duration": 9, "velocity": 78}, {"time": 34562, "pitch": 36, "duration": 10, "velocity": 106}, {"time": 34562, "pitch": 42, "duration": 10, "velocity": 92}, {"time": 34801, "pitch": 36, "duration": 10, "velocity": 120}, {"time": 34801, "pitch": 46, "duration": 10, "velocity": 92}, {"time": 35041, "pitch": 38, "duration": 10, "velocity": 99}, {"time": 35041, "pitch": 42, "duration": 10, "velocity": 120}, {"time": 35041, "pitch": 54, "duration": 10, "velocity": 91}, {"time": 35280, "pitch": 42, "duration": 10, "velocity": 80}, {"time": 35519, "pitch": 36, "duration": 10, "velocity": 115}, {"time": 35519, "pitch": 49, "duration": 10, "velocity": 109}, {"time": 35759, "pitch": 42, "duration": 10, "velocity": 73}, {"time": 35998, "pitch": 38, "duration": 10, "velocity": 113}, {"time": 35998, "pitch": 46, "duration": 10, "velocity": 93}, {"time": 35998, "pitch": 54, "duration": 10, "velocity": 88}, {"time": 36237, "pitch": 46, "duration": 10, "velocity": 101}, {"time": 36477, "pitch": 36, "duration": 10, "velocity": 101}, {"time": 36477, "pitch": 46, "duration": 10, "velocity": 101}, {"time": 36720, "pitch": 46, "duration": 10, "velocity": 103}, {"time": 36963, "pitch": 38, "duration": 10, "velocity": 107}, {"time": 36963, "pitch": 46, "duration": 10, "velocity": 107}, {"time": 36963, "pitch": 54, "duration": 10, "velocity": 91}, {"time": 37202, "pitch": 46, "duration": 10, "velocity": 111}, {"time": 37441, "pitch": 36, "duration": 10, "velocity": 115}, {"time": 37441, "pitch": 49, "duration": 10, "velocity": 62}, {"time": 37681, "pitch": 46, "duration": 10, "velocity": 80}, {"time": 37920, "pitch": 38, "duration": 10, "velocity": 80}, {"time": 37920, "pitch": 46, "duration": 10, "velocity": 93}, {"time": 37920, "pitch": 54, "duration": 10, "velocity": 88}, {"time": 38159, "pitch": 46, "duration": 10, "velocity": 72}, {"time": 38399, "pitch": 36, "duration": 10, "velocity": 104}, {"time": 38399, "pitch": 46, "duration": 10, "velocity": 122}, {"time": 38399, "pitch": 55, "duration": 10, "velocity": 122}, {"time": 38638, "pitch": 38, "duration": 10, "velocity": 104}, {"time": 38638, "pitch": 46, "duration": 10, "velocity": 104}, {"time": 38877, "pitch": 38, "duration": 11, "velocity": 113}, {"time": 38877, "pitch": 42, "duration": 11, "velocity": 118}, {"time": 38877, "pitch": 54, "duration": 11, "velocity": 91}, {"time": 38999, "pitch": 38, "duration": 10, "velocity": 80}, {"time": 39121, "pitch": 43, "duration": 10, "velocity": 80}, {"time": 39121, "pitch": 46, "duration": 10, "velocity": 80}, {"time": 39121, "pitch": 54, "duration": 10, "velocity": 91}, {"time": 39364, "pitch": 36, "duration": 10, "velocity": 115}, {"time": 39364, "pitch": 49, "duration": 10, "velocity": 97}, {"time": 39603, "pitch": 42, "duration": 10, "velocity": 73}, {"time": 39842, "pitch": 38, "duration": 10, "velocity": 113}, {"time": 39842, "pitch": 42, "duration": 10, "velocity": 93}, {"time": 40082, "pitch": 42, "duration": 10, "velocity": 72}, {"time": 40321, "pitch": 36, "duration": 10, "velocity": 115}, {"time": 40321, "pitch": 42, "duration": 10, "velocity": 122}, {"time": 40560, "pitch": 42, "duration": 10, "velocity": 69}, {"time": 40800, "pitch": 38, "duration": 10, "velocity": 113}, {"time": 40800, "pitch": 42, "duration": 10, "velocity": 118}, {"time": 41039, "pitch": 42, "duration": 10, "velocity": 80}, {"time": 41278, "pitch": 36, "duration": 10, "velocity": 115}, {"time": 41278, "pitch": 42, "duration": 10, "velocity": 127}, {"time": 41518, "pitch": 42, "duration": 10, "velocity": 73}, {"time": 41757, "pitch": 38, "duration": 10, "velocity": 113}, {"time": 41757, "pitch": 42, "duration": 10, "velocity": 93}, {"time": 42000, "pitch": 42, "duration": 10, "velocity": 72}, {"time": 42243, "pitch": 36, "duration": 10, "velocity": 115}, {"time": 42243, "pitch": 42, "duration": 10, "velocity": 122}, {"time": 42483, "pitch": 42, "duration": 10, "velocity": 69}, {"time": 42722, "pitch": 38, "duration": 10, "velocity": 113}, {"time": 42722, "pitch": 42, "duration": 10, "velocity": 118}, {"time": 42961, "pitch": 42, "duration": 10, "velocity": 80}, {"time": 43201, "pitch": 36, "duration": 10, "velocity": 115}, {"time": 43201, "pitch": 49, "duration": 10, "velocity": 88}, {"time": 43440, "pitch": 42, "duration": 10, "velocity": 73}, {"time": 43679, "pitch": 38, "duration": 10, "velocity": 113}, {"time": 43679, "pitch": 42, "duration": 10, "velocity": 93}, {"time": 43919, "pitch": 36, "duration": 10, "velocity": 115}, {"time": 43919, "pitch": 57, "duration": 10, "velocity": 85}, {"time": 44158, "pitch": 42, "duration": 10, "velocity": 122}, {"time": 44397, "pitch": 36, "duration": 10, "velocity": 104}, {"time": 44397, "pitch": 42, "duration": 10, "velocity": 69}, {"time": 44637, "pitch": 38, "duration": 10, "velocity": 113}, {"time": 44637, "pitch": 42, "duration": 10, "velocity": 118}, {"time": 44880, "pitch": 42, "duration": 10, "velocity": 80}, {"time": 45123, "pitch": 36, "duration": 10, "velocity": 115}, {"time": 45123, "pitch": 42, "duration": 10, "velocity": 127}, {"time": 45123, "pitch": 49, "duration": 10, "velocity": 88}, {"time": 45362, "pitch": 42, "duration": 10, "velocity": 73}, {"time": 45601, "pitch": 38, "duration": 10, "velocity": 113}, {"time": 45601, "pitch": 42, "duration": 10, "velocity": 93}, {"time": 45841, "pitch": 36, "duration": 10, "velocity": 106}, {"time": 45841, "pitch": 57, "duration": 10, "velocity": 88}, {"time": 46080, "pitch": 42, "duration": 10, "velocity": 122}, {"time": 46319, "pitch": 36, "duration": 10, "velocity": 104}, {"time": 46319, "pitch": 42, "duration": 10, "velocity": 69}, {"time": 46559, "pitch": 38, "duration": 10, "velocity": 113}, {"time": 46559, "pitch": 42, "duration": 10, "velocity": 118}, {"time": 46798, "pitch": 42, "duration": 10, "velocity": 80}, {"time": 47037, "pitch": 36, "duration": 11, "velocity": 115}, {"time": 47037, "pitch": 57, "duration": 11, "velocity": 109}, {"time": 47281, "pitch": 42, "duration": 10, "velocity": 73}, {"time": 47524, "pitch": 38, "duration": 10, "velocity": 113}, {"time": 47524, "pitch": 42, "duration": 10, "velocity": 93}, {"time": 47763, "pitch": 42, "duration": 10, "velocity": 72}, {"time": 48002, "pitch": 36, "duration": 10, "velocity": 115}, {"time": 48002, "pitch": 42, "duration": 10, "velocity": 122}, {"time": 48242, "pitch": 42, "duration": 10, "velocity": 69}, {"time": 48481, "pitch": 38, "duration": 10, "velocity": 113}, {"time": 48481, "pitch": 42, "duration": 10, "velocity": 118}, {"time": 48720, "pitch": 42, "duration": 10, "velocity": 80}, {"time": 48960, "pitch": 36, "duration": 10, "velocity": 115}, {"time": 48960, "pitch": 42, "duration": 10, "velocity": 127}, {"time": 49199, "pitch": 42, "duration": 10, "velocity": 73}, {"time": 49438, "pitch": 38, "duration": 10, "velocity": 113}, {"time": 49438, "pitch": 42, "duration": 10, "velocity": 93}, {"time": 49678, "pitch": 42, "duration": 10, "velocity": 72}, {"time": 49917, "pitch": 36, "duration": 10, "velocity": 115}, {"time": 49917, "pitch": 42, "duration": 10, "velocity": 122}, {"time": 50160, "pitch": 42, "duration": 10, "velocity": 69}, {"time": 50403, "pitch": 38, "duration": 10, "velocity": 113}, {"time": 50403, "pitch": 42, "duration": 10, "velocity": 118}, {"time": 50643, "pitch": 42, "duration": 10, "velocity": 80}, {"time": 50882, "pitch": 36, "duration": 10, "velocity": 115}, {"time": 50882, "pitch": 57, "duration": 10, "velocity": 109}, {"time": 51121, "pitch": 42, "duration": 10, "velocity": 73}, {"time": 51361, "pitch": 38, "duration": 10, "velocity": 113}, {"time": 51361, "pitch": 42, "duration": 10, "velocity": 93}, {"time": 51600, "pitch": 36, "duration": 10, "velocity": 127}, {"time": 51600, "pitch": 49, "duration": 10, "velocity": 109}, {"time": 51839, "pitch": 42, "duration": 10, "velocity": 122}, {"time": 52079, "pitch": 36, "duration": 10, "velocity": 104}, {"time": 52079, "pitch": 42, "duration": 10, "velocity": 69}, {"time": 52318, "pitch": 38, "duration": 10, "velocity": 113}, {"time": 52318, "pitch": 42, "duration": 10, "velocity": 118}, {"time": 52557, "pitch": 42, "duration": 10, "velocity": 80}, {"time": 52797, "pitch": 36, "duration": 10, "velocity": 115}, {"time": 52797, "pitch": 42, "duration": 10, "velocity": 127}, {"time": 52797, "pitch": 57, "duration": 10, "velocity": 109}, {"time": 53040, "pitch": 42, "duration": 10, "velocity": 73}, {"time": 53283, "pitch": 38, "duration": 10, "velocity": 113}, {"time": 53283, "pitch": 42, "duration": 10, "velocity": 93}, {"time": 53522, "pitch": 36, "duration": 10, "velocity": 127}, {"time": 53522, "pitch": 49, "duration": 10, "velocity": 109}, {"time": 53761, "pitch": 42, "duration": 10, "velocity": 122}, {"time": 54001, "pitch": 36, "duration": 10, "velocity": 104}, {"time": 54001, "pitch": 42, "duration": 10, "velocity": 69}, {"time": 54240, "pitch": 38, "duration": 10, "velocity": 113}, {"time": 54240, "pitch": 42, "duration": 10, "velocity": 118}, {"time": 54479, "pitch": 42, "duration": 10, "velocity": 115}, {"time": 54719, "pitch": 36, "duration": 10, "velocity": 115}, {"time": 54719, "pitch": 49, "duration": 10, "velocity": 97}, {"time": 54958, "pitch": 46, "duration": 10, "velocity": 73}, {"time": 55198, "pitch": 38, "duration": 10, "velocity": 113}, {"time": 55198, "pitch": 46, "duration": 10, "velocity": 93}, {"time": 55441, "pitch": 46, "duration": 10, "velocity": 72}, {"time": 55684, "pitch": 36, "duration": 10, "velocity": 115}, {"time": 55684, "pitch": 46, "duration": 10, "velocity": 122}, {"time": 55923, "pitch": 46, "duration": 10, "velocity": 69}, {"time": 56162, "pitch": 38, "duration": 10, "velocity": 113}, {"time": 56162, "pitch": 46, "duration": 10, "velocity": 118}, {"time": 56402, "pitch": 46, "duration": 10, "velocity": 80}, {"time": 56641, "pitch": 36, "duration": 10, "velocity": 115}, {"time": 56641, "pitch": 46, "duration": 10, "velocity": 127}, {"time": 56880, "pitch": 46, "duration": 10, "velocity": 73}, {"time": 57120, "pitch": 38, "duration": 10, "velocity": 113}, {"time": 57120, "pitch": 46, "duration": 10, "velocity": 93}, {"time": 57359, "pitch": 46, "duration": 10, "velocity": 72}, {"time": 57598, "pitch": 36, "duration": 10, "velocity": 115}, {"time": 57598, "pitch": 46, "duration": 10, "velocity": 122}, {"time": 58077, "pitch": 36, "duration": 10, "velocity": 113}, {"time": 58077, "pitch": 38, "duration": 10, "velocity": 113}, {"time": 58077, "pitch": 41, "duration": 10, "velocity": 113}, {"time": 58077, "pitch": 46, "duration": 10, "velocity": 118}, {"time": 58563, "pitch": 36, "duration": 10, "velocity": 115}, {"time": 58563, "pitch": 49, "duration": 10, "velocity": 109}, {"time": 58803, "pitch": 42, "duration": 10, "velocity": 73}, {"time": 59042, "pitch": 38, "duration": 10, "velocity": 113}, {"time": 59042, "pitch": 42, "duration": 10, "velocity": 93}, {"time": 59281, "pitch": 42, "duration": 10, "velocity": 72}, {"time": 59521, "pitch": 36, "duration": 10, "velocity": 115}, {"time": 59521, "pitch": 42, "duration": 10, "velocity": 122}, {"time": 59760, "pitch": 42, "duration": 10, "velocity": 69}, {"time": 59999, "pitch": 38, "duration": 10, "velocity": 113}, {"time": 59999, "pitch": 42, "duration": 10, "velocity": 118}, {"time": 60239, "pitch": 42, "duration": 10, "velocity": 80}, {"time": 60478, "pitch": 36, "duration": 10, "velocity": 115}, {"time": 60478, "pitch": 42, "duration": 10, "velocity": 127}, {"time": 60717, "pitch": 42, "duration": 10, "velocity": 73}, {"time": 60957, "pitch": 38, "duration": 10, "velocity": 113}, {"time": 60957, "pitch": 42, "duration": 10, "velocity": 93}, {"time": 61200, "pitch": 42, "duration": 10, "velocity": 72}, {"time": 61443, "pitch": 36, "duration": 10, "velocity": 115}, {"time": 61443, "pitch": 42, "duration": 10, "velocity": 122}, {"time": 61682, "pitch": 42, "duration": 10, "velocity": 69}, {"time": 61921, "pitch": 38, "duration": 10, "velocity": 113}, {"time": 61921, "pitch": 42, "duration": 10, "velocity": 118}, {"time": 62161, "pitch": 42, "duration": 10, "velocity": 80}, {"time": 62400, "pitch": 36, "duration": 10, "velocity": 115}, {"time": 62400, "pitch": 42, "duration": 10, "velocity": 127}, {"time": 62640, "pitch": 42, "duration": 9, "velocity": 73}, {"time": 62879, "pitch": 38, "duration": 10, "velocity": 113}, {"time": 62879, "pitch": 42, "duration": 10, "velocity": 93}, {"time": 63118, "pitch": 42, "duration": 10, "velocity": 72}, {"time": 63358, "pitch": 36, "duration": 10, "velocity": 115}, {"time": 63358, "pitch": 42, "duration": 10, "velocity": 122}, {"time": 63601, "pitch": 42, "duration": 10, "velocity": 69}, {"time": 63844, "pitch": 38, "duration": 10, "velocity": 113}, {"time": 63844, "pitch": 42, "duration": 10, "velocity": 118}, {"time": 64083, "pitch": 42, "duration": 10, "velocity": 80}, {"time": 64322, "pitch": 36, "duration": 10, "velocity": 115}, {"time": 64322, "pitch": 42, "duration": 10, "velocity": 127}, {"time": 64562, "pitch": 42, "duration": 10, "velocity": 73}, {"time": 64801, "pitch": 38, "duration": 10, "velocity": 113}, {"time": 64801, "pitch": 42, "duration": 10, "velocity": 93}, {"time": 65040, "pitch": 42, "duration": 10, "velocity": 72}, {"time": 65280, "pitch": 36, "duration": 10, "velocity": 115}, {"time": 65280, "pitch": 42, "duration": 10, "velocity": 122}, {"time": 65519, "pitch": 42, "duration": 10, "velocity": 69}, {"time": 65758, "pitch": 38, "duration": 10, "velocity": 113}, {"time": 65758, "pitch": 42, "duration": 10, "velocity": 118}, {"time": 65998, "pitch": 42, "duration": 10, "velocity": 80}, {"time": 66237, "pitch": 36, "duration": 10, "velocity": 115}, {"time": 66237, "pitch": 42, "duration": 10, "velocity": 127}, {"time": 66480, "pitch": 42, "duration": 10, "velocity": 73}, {"time": 66723, "pitch": 38, "duration": 10, "velocity": 113}, {"time": 66723, "pitch": 42, "duration": 10, "velocity": 93}, {"time": 66963, "pitch": 42, "duration": 10, "velocity": 72}, {"time": 67202, "pitch": 36, "duration": 10, "velocity": 115}, {"time": 67202, "pitch": 42, "duration": 10, "velocity": 122}, {"time": 67441, "pitch": 42, "duration": 10, "velocity": 69}, {"time": 67681, "pitch": 38, "duration": 10, "velocity": 113}, {"time": 67681, "pitch": 42, "duration": 10, "velocity": 118}, {"time": 67920, "pitch": 42, "duration": 10, "velocity": 80}, {"time": 68159, "pitch": 36, "duration": 10, "velocity": 115}, {"time": 68159, "pitch": 42, "duration": 10, "velocity": 127}, {"time": 68399, "pitch": 42, "duration": 10, "velocity": 73}, {"time": 68638, "pitch": 38, "duration": 10, "velocity": 113}, {"time": 68638, "pitch": 42, "duration": 10, "velocity": 93}, {"time": 68877, "pitch": 42, "duration": 10, "velocity": 72}, {"time": 69117, "pitch": 36, "duration": 10, "velocity": 115}, {"time": 69117, "pitch": 42, "duration": 10, "velocity": 122}, {"time": 69360, "pitch": 42, "duration": 10, "velocity": 69}, {"time": 69603, "pitch": 38, "duration": 10, "velocity": 113}, {"time": 69603, "pitch": 42, "duration": 10, "velocity": 118}, {"time": 69842, "pitch": 42, "duration": 10, "velocity": 80}, {"time": 70082, "pitch": 36, "duration": 9, "velocity": 115}, {"time": 70082, "pitch": 42, "duration": 9, "velocity": 127}, {"time": 70321, "pitch": 42, "duration": 10, "velocity": 73}, {"time": 70560, "pitch": 38, "duration": 10, "velocity": 113}, {"time": 70560, "pitch": 42, "duration": 10, "velocity": 93}, {"time": 70800, "pitch": 42, "duration": 10, "velocity": 72}, {"time": 71039, "pitch": 36, "duration": 10, "velocity": 115}, {"time": 71039, "pitch": 42, "duration": 10, "velocity": 122}, {"time": 71278, "pitch": 42, "duration": 10, "velocity": 69}, {"time": 71518, "pitch": 38, "duration": 10, "velocity": 113}, {"time": 71518, "pitch": 42, "duration": 10, "velocity": 118}, {"time": 71761, "pitch": 42, "duration": 10, "velocity": 80}, {"time": 72004, "pitch": 36, "duration": 10, "velocity": 115}, {"time": 72004, "pitch": 42, "duration": 10, "velocity": 127}, {"time": 72243, "pitch": 42, "duration": 10, "velocity": 73}, {"time": 72482, "pitch": 38, "duration": 10, "velocity": 113}, {"time": 72482, "pitch": 42, "duration": 10, "velocity": 93}, {"time": 72722, "pitch": 42, "duration": 10, "velocity": 72}, {"time": 72961, "pitch": 36, "duration": 10, "velocity": 120}, {"time": 72961, "pitch": 46, "duration": 10, "velocity": 94}, {"time": 73200, "pitch": 46, "duration": 10, "velocity": 95}, {"time": 73440, "pitch": 38, "duration": 10, "velocity": 108}, {"time": 73440, "pitch": 46, "duration": 10, "velocity": 108}, {"time": 73679, "pitch": 46, "duration": 10, "velocity": 121}, {"time": 73918, "pitch": 36, "duration": 10, "velocity": 115}, {"time": 73918, "pitch": 49, "duration": 10, "velocity": 109}, {"time": 74158, "pitch": 42, "duration": 10, "velocity": 73}, {"time": 74397, "pitch": 38, "duration": 10, "velocity": 113}, {"time": 74397, "pitch": 42, "duration": 10, "velocity": 93}, {"time": 74640, "pitch": 36, "duration": 10, "velocity": 106}, {"time": 74640, "pitch": 42, "duration": 10, "velocity": 72}, {"time": 74883, "pitch": 36, "duration": 10, "velocity": 120}, {"time": 74883, "pitch": 42, "duration": 10, "velocity": 122}, {"time": 75123, "pitch": 42, "duration": 10, "velocity": 69}, {"time": 75362, "pitch": 38, "duration": 10, "velocity": 113}, {"time": 75362, "pitch": 42, "duration": 10, "velocity": 118}, {"time": 75362, "pitch": 54, "duration": 10, "velocity": 82}, {"time": 75601, "pitch": 42, "duration": 10, "velocity": 80}, {"time": 75841, "pitch": 36, "duration": 10, "velocity": 115}, {"time": 75841, "pitch": 42, "duration": 10, "velocity": 127}, {"time": 76080, "pitch": 42, "duration": 10, "velocity": 73}, {"time": 76319, "pitch": 38, "duration": 10, "velocity": 113}, {"time": 76319, "pitch": 42, "duration": 10, "velocity": 93}, {"time": 76559, "pitch": 36, "duration": 10, "velocity": 106}, {"time": 76559, "pitch": 42, "duration": 10, "velocity": 72}, {"time": 76798, "pitch": 36, "duration": 10, "velocity": 120}, {"time": 76798, "pitch": 42, "duration": 10, "velocity": 122}, {"time": 77037, "pitch": 42, "duration": 10, "velocity": 69}, {"time": 77277, "pitch": 38, "duration": 10, "velocity": 113}, {"time": 77277, "pitch": 42, "duration": 10, "velocity": 118}, {"time": 77277, "pitch": 54, "duration": 10, "velocity": 83}, {"time": 77520, "pitch": 42, "duration": 10, "velocity": 80}, {"time": 77763, "pitch": 36, "duration": 10, "velocity": 115}, {"time": 77763, "pitch": 42, "duration": 10, "velocity": 127}, {"time": 78002, "pitch": 42, "duration": 10, "velocity": 73}, {"time": 78242, "pitch": 38, "duration": 10, "velocity": 113}, {"time": 78242, "pitch": 42, "duration": 10, "velocity": 93}, {"time": 78481, "pitch": 36, "duration": 10, "velocity": 106}, {"time": 78481, "pitch": 42, "duration": 10, "velocity": 72}, {"time": 78720, "pitch": 36, "duration": 10, "velocity": 120}, {"time": 78720, "pitch": 42, "duration": 10, "velocity": 122}, {"time": 78960, "pitch": 42, "duration": 10, "velocity": 69}, {"time": 79199, "pitch": 38, "duration": 10, "velocity": 113}, {"time": 79199, "pitch": 42, "duration": 10, "velocity": 118}, {"time": 79199, "pitch": 54, "duration": 10, "velocity": 82}, {"time": 79438, "pitch": 42, "duration": 10, "velocity": 80}, {"time": 79678, "pitch": 36, "duration": 10, "velocity": 115}, {"time": 79678, "pitch": 42, "duration": 10, "velocity": 127}, {"time": 79917, "pitch": 42, "duration": 10, "velocity": 73}, {"time": 80156, "pitch": 38, "duration": 10, "velocity": 113}, {"time": 80156, "pitch": 42, "duration": 10, "velocity": 93}, {"time": 80399, "pitch": 36, "duration": 10, "velocity": 106}, {"time": 80399, "pitch": 42, "duration": 10, "velocity": 72}, {"time": 80642, "pitch": 36, "duration": 10, "velocity": 120}, {"time": 80642, "pitch": 42, "duration": 10, "velocity": 122}, {"time": 80882, "pitch": 42, "duration": 10, "velocity": 69}, {"time": 81121, "pitch": 38, "duration": 10, "velocity": 113}, {"time": 81121, "pitch": 46, "duration": 10, "velocity": 118}, {"time": 81121, "pitch": 54, "duration": 10, "velocity": 83}, {"time": 81360, "pitch": 46, "duration": 10, "velocity": 80}, {"time": 81600, "pitch": 36, "duration": 10, "velocity": 106}, {"time": 81600, "pitch": 49, "duration": 10, "velocity": 92}, {"time": 81839, "pitch": 36, "duration": 10, "velocity": 120}, {"time": 81839, "pitch": 46, "duration": 10, "velocity": 73}, {"time": 82078, "pitch": 38, "duration": 10, "velocity": 113}, {"time": 82078, "pitch": 42, "duration": 10, "velocity": 93}, {"time": 82078, "pitch": 54, "duration": 10, "velocity": 88}, {"time": 82318, "pitch": 42, "duration": 10, "velocity": 72}, {"time": 82557, "pitch": 36, "duration": 10, "velocity": 106}, {"time": 82557, "pitch": 46, "duration": 10, "velocity": 114}, {"time": 82800, "pitch": 36, "duration": 10, "velocity": 120}, {"time": 82800, "pitch": 46, "duration": 10, "velocity": 111}, {"time": 83043, "pitch": 38, "duration": 10, "velocity": 113}, {"time": 83043, "pitch": 42, "duration": 10, "velocity": 118}, {"time": 83043, "pitch": 54, "duration": 10, "velocity": 91}, {"time": 83283, "pitch": 42, "duration": 10, "velocity": 80}, {"time": 83522, "pitch": 36, "duration": 10, "velocity": 106}, {"time": 83522, "pitch": 46, "duration": 10, "velocity": 103}, {"time": 83761, "pitch": 36, "duration": 10, "velocity": 120}, {"time": 83761, "pitch": 46, "duration": 10, "velocity": 107}, {"time": 84001, "pitch": 38, "duration": 10, "velocity": 113}, {"time": 84001, "pitch": 42, "duration": 10, "velocity": 93}, {"time": 84001, "pitch": 54, "duration": 10, "velocity": 88}, {"time": 84240, "pitch": 42, "duration": 10, "velocity": 72}, {"time": 84479, "pitch": 36, "duration": 10, "velocity": 106}, {"time": 84479, "pitch": 46, "duration": 10, "velocity": 122}, {"time": 84719, "pitch": 36, "duration": 10, "velocity": 120}, {"time": 84719, "pitch": 46, "duration": 10, "velocity": 104}, {"time": 84958, "pitch": 38, "duration": 10, "velocity": 113}, {"time": 84958, "pitch": 42, "duration": 10, "velocity": 118}, {"time": 84958, "pitch": 54, "duration": 10, "velocity": 91}, {"time": 85197, "pitch": 42, "duration": 10, "velocity": 80}, {"time": 85437, "pitch": 36, "duration": 10, "velocity": 115}, {"time": 85437, "pitch": 49, "duration": 10, "velocity": 109}, {"time": 85680, "pitch": 46, "duration": 10, "velocity": 73}, {"time": 85923, "pitch": 38, "duration": 10, "velocity": 113}, {"time": 85923, "pitch": 46, "duration": 10, "velocity": 93}, {"time": 85923, "pitch": 54, "duration": 10, "velocity": 88}, {"time": 86162, "pitch": 46, "duration": 10, "velocity": 72}, {"time": 86402, "pitch": 36, "duration": 10, "velocity": 120}, {"time": 86402, "pitch": 46, "duration": 10, "velocity": 122}, {"time": 86641, "pitch": 46, "duration": 10, "velocity": 69}, {"time": 86880, "pitch": 38, "duration": 10, "velocity": 113}, {"time": 86880, "pitch": 46, "duration": 10, "velocity": 118}, {"time": 86880, "pitch": 54, "duration": 10, "velocity": 91}, {"time": 87120, "pitch": 46, "duration": 10, "velocity": 110}, {"time": 87359, "pitch": 36, "duration": 10, "velocity": 115}, {"time": 87359, "pitch": 49, "duration": 10, "velocity": 62}, {"time": 87598, "pitch": 38, "duration": 10, "velocity": 114}, {"time": 87598, "pitch": 43, "duration": 10, "velocity": 114}, {"time": 87838, "pitch": 42, "duration": 10, "velocity": 93}, {"time": 87838, "pitch": 54, "duration": 10, "velocity": 88}, {"time": 87957, "pitch": 38, "duration": 10, "velocity": 80}, {"time": 88077, "pitch": 38, "duration": 10, "velocity": 127}, {"time": 88077, "pitch": 42, "duration": 10, "velocity": 72}, {"time": 88316, "pitch": 43, "duration": 10, "velocity": 122}, {"time": 88316, "pitch": 55, "duration": 10, "velocity": 122}, {"time": 88559, "pitch": 36, "duration": 10, "velocity": 104}, {"time": 88559, "pitch": 42, "duration": 10, "velocity": 69}, {"time": 88681, "pitch": 38, "duration": 10, "velocity": 80}, {"time": 88802, "pitch": 38, "duration": 10, "velocity": 113}, {"time": 88802, "pitch": 42, "duration": 10, "velocity": 118}, {"time": 88802, "pitch": 54, "duration": 10, "velocity": 91}, {"time": 88922, "pitch": 38, "duration": 10, "velocity": 80}, {"time": 89042, "pitch": 43, "duration": 10, "velocity": 80}, {"time": 89042, "pitch": 46, "duration": 10, "velocity": 80}, {"time": 89042, "pitch": 54, "duration": 10, "velocity": 91}, {"time": 89281, "pitch": 36, "duration": 10, "velocity": 115}, {"time": 89281, "pitch": 49, "duration": 10, "velocity": 97}, {"time": 89520, "pitch": 42, "duration": 10, "velocity": 73}, {"time": 89760, "pitch": 38, "duration": 10, "velocity": 113}, {"time": 89760, "pitch": 42, "duration": 10, "velocity": 93}, {"time": 89999, "pitch": 42, "duration": 10, "velocity": 72}, {"time": 90238, "pitch": 36, "duration": 10, "velocity": 115}, {"time": 90238, "pitch": 42, "duration": 10, "velocity": 122}, {"time": 90478, "pitch": 42, "duration": 10, "velocity": 69}, {"time": 90717, "pitch": 38, "duration": 10, "velocity": 113}, {"time": 90717, "pitch": 42, "duration": 10, "velocity": 118}, {"time": 90960, "pitch": 42, "duration": 10, "velocity": 80}, {"time": 91203, "pitch": 36, "duration": 10, "velocity": 115}, {"time": 91203, "pitch": 42, "duration": 10, "velocity": 127}, {"time": 91443, "pitch": 42, "duration": 10, "velocity": 73}, {"time": 91682, "pitch": 38, "duration": 10, "velocity": 113}, {"time": 91682, "pitch": 42, "duration": 10, "velocity": 93}, {"time": 91921, "pitch": 42, "duration": 10, "velocity": 72}, {"time": 92161, "pitch": 36, "duration": 10, "velocity": 115}, {"time": 92161, "pitch": 42, "duration": 10, "velocity": 122}, {"time": 92400, "pitch": 42, "duration": 10, "velocity": 69}, {"time": 92639, "pitch": 38, "duration": 10, "velocity": 113}, {"time": 92639, "pitch": 42, "duration": 10, "velocity": 118}, {"time": 92879, "pitch": 46, "duration": 10, "velocity": 80}, {"time": 93118, "pitch": 36, "duration": 10, "velocity": 115}, {"time": 93118, "pitch": 49, "duration": 10, "velocity": 88}, {"time": 93357, "pitch": 42, "duration": 10, "velocity": 73}, {"time": 93597, "pitch": 38, "duration": 10, "velocity": 113}, {"time": 93597, "pitch": 42, "duration": 10, "velocity": 93}, {"time": 93840, "pitch": 36, "duration": 10, "velocity": 115}, {"time": 93840, "pitch": 57, "duration": 10, "velocity": 85}, {"time": 94083, "pitch": 42, "duration": 10, "velocity": 122}, {"time": 94322, "pitch": 36, "duration": 10, "velocity": 104}, {"time": 94322, "pitch": 42, "duration": 10, "velocity": 69}, {"time": 94562, "pitch": 38, "duration": 10, "velocity": 113}, {"time": 94562, "pitch": 42, "duration": 10, "velocity": 118}, {"time": 94801, "pitch": 42, "duration": 10, "velocity": 80}, {"time": 95040, "pitch": 36, "duration": 10, "velocity": 115}, {"time": 95040, "pitch": 42, "duration": 10, "velocity": 127}, {"time": 95040, "pitch": 49, "duration": 10, "velocity": 88}, {"time": 95280, "pitch": 42, "duration": 10, "velocity": 73}, {"time": 95519, "pitch": 38, "duration": 10, "velocity": 113}, {"time": 95519, "pitch": 42, "duration": 10, "velocity": 93}, {"time": 95758, "pitch": 36, "duration": 10, "velocity": 106}, {"time": 95758, "pitch": 57, "duration": 10, "velocity": 88}, {"time": 95998, "pitch": 42, "duration": 10, "velocity": 122}, {"time": 96237, "pitch": 36, "duration": 10, "velocity": 104}, {"time": 96237, "pitch": 42, "duration": 10, "velocity": 69}, {"time": 96476, "pitch": 38, "duration": 10, "velocity": 113}, {"time": 96476, "pitch": 42, "duration": 10, "velocity": 118}, {"time": 96719, "pitch": 45, "duration": 11, "velocity": 80}, {"time": 96719, "pitch": 46, "duration": 11, "velocity": 101}, {"time": 96962, "pitch": 36, "duration": 10, "velocity": 115}, {"time": 96962, "pitch": 57, "duration": 10, "velocity": 109}, {"time": 97202, "pitch": 42, "duration": 10, "velocity": 73}, {"time": 97441, "pitch": 38, "duration": 10, "velocity": 113}, {"time": 97441, "pitch": 42, "duration": 10, "velocity": 93}, {"time": 97680, "pitch": 42, "duration": 10, "velocity": 72}, {"time": 97920, "pitch": 36, "duration": 10, "velocity": 115}, {"time": 97920, "pitch": 42, "duration": 10, "velocity": 122}, {"time": 98159, "pitch": 42, "duration": 10, "velocity": 69}, {"time": 98399, "pitch": 38, "duration": 9, "velocity": 113}, {"time": 98399, "pitch": 42, "duration": 9, "velocity": 118}, {"time": 98638, "pitch": 42, "duration": 10, "velocity": 80}, {"time": 98877, "pitch": 36, "duration": 10, "velocity": 115}, {"time": 98877, "pitch": 42, "duration": 10, "velocity": 127}, {"time": 99120, "pitch": 42, "duration": 10, "velocity": 73}, {"time": 99363, "pitch": 38, "duration": 10, "velocity": 113}, {"time": 99363, "pitch": 42, "duration": 10, "velocity": 93}, {"time": 99603, "pitch": 42, "duration": 10, "velocity": 72}, {"time": 99842, "pitch": 36, "duration": 10, "velocity": 115}, {"time": 99842, "pitch": 42, "duration": 10, "velocity": 122}, {"time": 100081, "pitch": 42, "duration": 10, "velocity": 69}, {"time": 100321, "pitch": 38, "duration": 10, "velocity": 113}, {"time": 100321, "pitch": 42, "duration": 10, "velocity": 118}, {"time": 100560, "pitch": 42, "duration": 10, "velocity": 80}, {"time": 100799, "pitch": 36, "duration": 10, "velocity": 115}, {"time": 100799, "pitch": 49, "duration": 10, "velocity": 109}, {"time": 101039, "pitch": 42, "duration": 10, "velocity": 73}, {"time": 101278, "pitch": 38, "duration": 10, "velocity": 113}, {"time": 101278, "pitch": 42, "duration": 10, "velocity": 93}, {"time": 101517, "pitch": 36, "duration": 10, "velocity": 127}, {"time": 101517, "pitch": 49, "duration": 10, "velocity": 109}, {"time": 101757, "pitch": 42, "duration": 10, "velocity": 122}, {"time": 102000, "pitch": 36, "duration": 10, "velocity": 104}, {"time": 102000, "pitch": 42, "duration": 10, "velocity": 69}, {"time": 102243, "pitch": 38, "duration": 10, "velocity": 113}, {"time": 102243, "pitch": 42, "duration": 10, "velocity": 118}, {"time": 102482, "pitch": 42, "duration": 10, "velocity": 80}, {"time": 102722, "pitch": 36, "duration": 10, "velocity": 115}, {"time": 102722, "pitch": 42, "duration": 10, "velocity": 127}, {"time": 102722, "pitch": 57, "duration": 10, "velocity": 109}, {"time": 102961, "pitch": 42, "duration": 10, "velocity": 73}, {"time": 103200, "pitch": 38, "duration": 10, "velocity": 113}, {"time": 103200, "pitch": 42, "duration": 10, "velocity": 93}, {"time": 103440, "pitch": 36, "duration": 10, "velocity": 127}, {"time": 103440, "pitch": 49, "duration": 10, "velocity": 109}, {"time": 103679, "pitch": 42, "duration": 10, "velocity": 122}, {"time": 103918, "pitch": 36, "duration": 10, "velocity": 104}, {"time": 103918, "pitch": 42, "duration": 10, "velocity": 69}, {"time": 104158, "pitch": 38, "duration": 10, "velocity": 113}, {"time": 104158, "pitch": 42, "duration": 10, "velocity": 118}, {"time": 104397, "pitch": 42, "duration": 10, "velocity": 115}, {"time": 104636, "pitch": 36, "duration": 10, "velocity": 115}, {"time": 104636, "pitch": 49, "duration": 10, "velocity": 109}, {"time": 104636, "pitch": 54, "duration": 10, "velocity": 50}, {"time": 104879, "pitch": 51, "duration": 11, "velocity": 73}, {"time": 104879, "pitch": 54, "duration": 11, "velocity": 27}, {"time": 105122, "pitch": 38, "duration": 10, "velocity": 113}, {"time": 105122, "pitch": 51, "duration": 10, "velocity": 93}, {"time": 105122, "pitch": 54, "duration": 10, "velocity": 79}, {"time": 105362, "pitch": 51, "duration": 10, "velocity": 72}, {"time": 105362, "pitch": 54, "duration": 10, "velocity": 47}, {"time": 105601, "pitch": 36, "duration": 10, "velocity": 106}, {"time": 105601, "pitch": 51, "duration": 10, "velocity": 122}, {"time": 105601, "pitch": 54, "duration": 10, "velocity": 61}, {"time": 105841, "pitch": 36, "duration": 9, "velocity": 120}, {"time": 105841, "pitch": 51, "duration": 9, "velocity": 69}, {"time": 105841, "pitch": 54, "duration": 9, "velocity": 61}, {"time": 106080, "pitch": 38, "duration": 10, "velocity": 113}, {"time": 106080, "pitch": 51, "duration": 10, "velocity": 118}, {"time": 106080, "pitch": 54, "duration": 10, "velocity": 88}, {"time": 106319, "pitch": 51, "duration": 10, "velocity": 80}, {"time": 106319, "pitch": 54, "duration": 10, "velocity": 61}, {"time": 106559, "pitch": 36, "duration": 9, "velocity": 115}, {"time": 106559, "pitch": 51, "duration": 9, "velocity": 127}, {"time": 106559, "pitch": 54, "duration": 9, "velocity": 65}, {"time": 106798, "pitch": 51, "duration": 10, "velocity": 73}, {"time": 106798, "pitch": 54, "duration": 10, "velocity": 57}, {"time": 107037, "pitch": 38, "duration": 10, "velocity": 113}, {"time": 107037, "pitch": 51, "duration": 10, "velocity": 93}, {"time": 107037, "pitch": 54, "duration": 10, "velocity": 85}, {"time": 107280, "pitch": 51, "duration": 10, "velocity": 72}, {"time": 107280, "pitch": 54, "duration": 10, "velocity": 60}, {"time": 107523, "pitch": 36, "duration": 10, "velocity": 106}, {"time": 107523, "pitch": 51, "duration": 10, "velocity": 122}, {"time": 107523, "pitch": 54, "duration": 10, "velocity": 61}, {"time": 107763, "pitch": 36, "duration": 10, "velocity": 120}, {"time": 107763, "pitch": 51, "duration": 10, "velocity": 69}, {"time": 107763, "pitch": 54, "duration": 10, "velocity": 53}, {"time": 108002, "pitch": 38, "duration": 10, "velocity": 113}, {"time": 108002, "pitch": 51, "duration": 10, "velocity": 118}, {"time": 108002, "pitch": 54, "duration": 10, "velocity": 85}, {"time": 108241, "pitch": 51, "duration": 10, "velocity": 80}, {"time": 108241, "pitch": 54, "duration": 10, "velocity": 73}, {"time": 108481, "pitch": 36, "duration": 10, "velocity": 115}, {"time": 108481, "pitch": 51, "duration": 10, "velocity": 127}, {"time": 108481, "pitch": 54, "duration": 10, "velocity": 50}, {"time": 108720, "pitch": 51, "duration": 10, "velocity": 73}, {"time": 108720, "pitch": 54, "duration": 10, "velocity": 27}, {"time": 108959, "pitch": 38, "duration": 10, "velocity": 113}, {"time": 108959, "pitch": 51, "duration": 10, "velocity": 93}, {"time": 108959, "pitch": 54, "duration": 10, "velocity": 79}, {"time": 109199, "pitch": 51, "duration": 10, "velocity": 72}, {"time": 109199, "pitch": 54, "duration": 10, "velocity": 47}, {"time": 109438, "pitch": 36, "duration": 10, "velocity": 106}, {"time": 109438, "pitch": 51, "duration": 10, "velocity": 122}, {"time": 109438, "pitch": 54, "duration": 10, "velocity": 61}, {"time": 109677, "pitch": 36, "duration": 10, "velocity": 120}, {"time": 109677, "pitch": 51, "duration": 10, "velocity": 69}, {"time": 109677, "pitch": 54, "duration": 10, "velocity": 61}, {"time": 109917, "pitch": 38, "duration": 10, "velocity": 113}, {"time": 109917, "pitch": 51, "duration": 10, "velocity": 118}, {"time": 109917, "pitch": 54, "duration": 10, "velocity": 88}, {"time": 110160, "pitch": 36, "duration": 10, "velocity": 106}, {"time": 110160, "pitch": 49, "duration": 10, "velocity": 62}, {"time": 110160, "pitch": 54, "duration": 10, "velocity": 61}, {"time": 110403, "pitch": 54, "duration": 10, "velocity": 65}, {"time": 110642, "pitch": 36, "duration": 10, "velocity": 92}, {"time": 110642, "pitch": 51, "duration": 10, "velocity": 73}, {"time": 110642, "pitch": 54, "duration": 10, "velocity": 57}, {"time": 110882, "pitch": 38, "duration": 10, "velocity": 113}, {"time": 110882, "pitch": 51, "duration": 10, "velocity": 93}, {"time": 110882, "pitch": 54, "duration": 10, "velocity": 85}, {"time": 111121, "pitch": 51, "duration": 10, "velocity": 72}, {"time": 111121, "pitch": 54, "duration": 10, "velocity": 60}, {"time": 111360, "pitch": 36, "duration": 10, "velocity": 106}, {"time": 111360, "pitch": 51, "duration": 10, "velocity": 122}, {"time": 111360, "pitch": 54, "duration": 10, "velocity": 61}, {"time": 111600, "pitch": 36, "duration": 10, "velocity": 120}, {"time": 111600, "pitch": 51, "duration": 10, "velocity": 69}, {"time": 111600, "pitch": 54, "duration": 10, "velocity": 53}, {"time": 111839, "pitch": 38, "duration": 10, "velocity": 113}, {"time": 111839, "pitch": 51, "duration": 10, "velocity": 118}, {"time": 111839, "pitch": 54, "duration": 10, "velocity": 85}, {"time": 112078, "pitch": 51, "duration": 10, "velocity": 80}, {"time": 112078, "pitch": 54, "duration": 10, "velocity": 73}, {"time": 112318, "pitch": 36, "duration": 10, "velocity": 115}, {"time": 112318, "pitch": 51, "duration": 10, "velocity": 127}, {"time": 112318, "pitch": 54, "duration": 10, "velocity": 50}, {"time": 112557, "pitch": 51, "duration": 10, "velocity": 73}, {"time": 112557, "pitch": 54, "duration": 10, "velocity": 27}, {"time": 112796, "pitch": 38, "duration": 10, "velocity": 113}, {"time": 112796, "pitch": 51, "duration": 10, "velocity": 93}, {"time": 112796, "pitch": 54, "duration": 10, "velocity": 79}, {"time": 113039, "pitch": 51, "duration": 11, "velocity": 72}, {"time": 113039, "pitch": 54, "duration": 11, "velocity": 47}, {"time": 113283, "pitch": 36, "duration": 9, "velocity": 106}, {"time": 113283, "pitch": 51, "duration": 9, "velocity": 122}, {"time": 113283, "pitch": 54, "duration": 9, "velocity": 61}, {"time": 113522, "pitch": 36, "duration": 10, "velocity": 120}, {"time": 113522, "pitch": 51, "duration": 10, "velocity": 69}, {"time": 113522, "pitch": 54, "duration": 10, "velocity": 61}, {"time": 113761, "pitch": 38, "duration": 10, "velocity": 113}, {"time": 113761, "pitch": 51, "duration": 10, "velocity": 118}, {"time": 113761, "pitch": 54, "duration": 10, "velocity": 88}, {"time": 114001, "pitch": 51, "duration": 10, "velocity": 80}, {"time": 114001, "pitch": 54, "duration": 10, "velocity": 61}, {"time": 114240, "pitch": 36, "duration": 10, "velocity": 115}, {"time": 114240, "pitch": 51, "duration": 10, "velocity": 127}, {"time": 114240, "pitch": 54, "duration": 10, "velocity": 65}, {"time": 114479, "pitch": 51, "duration": 10, "velocity": 73}, {"time": 114479, "pitch": 54, "duration": 10, "velocity": 57}, {"time": 114719, "pitch": 38, "duration": 10, "velocity": 113}, {"time": 114719, "pitch": 51, "duration": 10, "velocity": 93}, {"time": 114719, "pitch": 54, "duration": 10, "velocity": 85}, {"time": 114958, "pitch": 51, "duration": 10, "velocity": 72}, {"time": 114958, "pitch": 54, "duration": 10, "velocity": 60}, {"time": 115197, "pitch": 36, "duration": 10, "velocity": 106}, {"time": 115197, "pitch": 51, "duration": 10, "velocity": 122}, {"time": 115197, "pitch": 54, "duration": 10, "velocity": 61}, {"time": 115440, "pitch": 36, "duration": 10, "velocity": 120}, {"time": 115440, "pitch": 51, "duration": 10, "velocity": 69}, {"time": 115440, "pitch": 54, "duration": 10, "velocity": 53}, {"time": 115683, "pitch": 38, "duration": 10, "velocity": 113}, {"time": 115683, "pitch": 51, "duration": 10, "velocity": 118}, {"time": 115683, "pitch": 54, "duration": 10, "velocity": 85}, {"time": 115923, "pitch": 51, "duration": 10, "velocity": 80}, {"time": 115923, "pitch": 54, "duration": 10, "velocity": 73}, {"time": 116162, "pitch": 36, "duration": 10, "velocity": 115}, {"time": 116162, "pitch": 49, "duration": 10, "velocity": 109}, {"time": 116162, "pitch": 54, "duration": 10, "velocity": 50}, {"time": 116401, "pitch": 51, "duration": 10, "velocity": 73}, {"time": 116401, "pitch": 54, "duration": 10, "velocity": 27}, {"time": 116641, "pitch": 38, "duration": 10, "velocity": 113}, {"time": 116641, "pitch": 51, "duration": 10, "velocity": 93}, {"time": 116641, "pitch": 54, "duration": 10, "velocity": 79}, {"time": 116880, "pitch": 51, "duration": 10, "velocity": 72}, {"time": 116880, "pitch": 54, "duration": 10, "velocity": 47}, {"time": 117119, "pitch": 36, "duration": 10, "velocity": 106}, {"time": 117119, "pitch": 51, "duration": 10, "velocity": 122}, {"time": 117119, "pitch": 54, "duration": 10, "velocity": 61}, {"time": 117359, "pitch": 36, "duration": 10, "velocity": 120}, {"time": 117359, "pitch": 51, "duration": 10, "velocity": 69}, {"time": 117359, "pitch": 54, "duration": 10, "velocity": 61}, {"time": 117598, "pitch": 38, "duration": 10, "velocity": 113}, {"time": 117598, "pitch": 51, "duration": 10, "velocity": 118}, {"time": 117598, "pitch": 54, "duration": 10, "velocity": 88}, {"time": 117837, "pitch": 36, "duration": 10, "velocity": 115}, {"time": 117837, "pitch": 49, "duration": 10, "velocity": 62}, {"time": 117837, "pitch": 54, "duration": 10, "velocity": 61}, {"time": 118077, "pitch": 54, "duration": 10, "velocity": 65}, {"time": 118320, "pitch": 36, "duration": 10, "velocity": 92}, {"time": 118320, "pitch": 51, "duration": 10, "velocity": 73}, {"time": 118320, "pitch": 54, "duration": 10, "velocity": 57}, {"time": 118563, "pitch": 38, "duration": 10, "velocity": 113}, {"time": 118563, "pitch": 51, "duration": 10, "velocity": 93}, {"time": 118563, "pitch": 54, "duration": 10, "velocity": 85}, {"time": 118802, "pitch": 51, "duration": 10, "velocity": 72}, {"time": 118802, "pitch": 54, "duration": 10, "velocity": 60}, {"time": 119042, "pitch": 36, "duration": 10, "velocity": 120}, {"time": 119042, "pitch": 49, "duration": 10, "velocity": 104}, {"time": 119042, "pitch": 54, "duration": 10, "velocity": 61}, {"time": 119281, "pitch": 51, "duration": 10, "velocity": 69}, {"time": 119281, "pitch": 54, "duration": 10, "velocity": 53}, {"time": 119520, "pitch": 38, "duration": 10, "velocity": 113}, {"time": 119520, "pitch": 51, "duration": 10, "velocity": 118}, {"time": 119520, "pitch": 54, "duration": 10, "velocity": 85}, {"time": 119760, "pitch": 51, "duration": 10, "velocity": 80}, {"time": 119760, "pitch": 54, "duration": 10, "velocity": 73}, {"time": 119999, "pitch": 36, "duration": 10, "velocity": 115}, {"time": 119999, "pitch": 57, "duration": 10, "velocity": 109}, {"time": 120238, "pitch": 42, "duration": 10, "velocity": 73}, {"time": 120478, "pitch": 38, "duration": 10, "velocity": 113}, {"time": 120478, "pitch": 42, "duration": 10, "velocity": 93}, {"time": 120717, "pitch": 42, "duration": 10, "velocity": 72}, {"time": 120956, "pitch": 36, "duration": 10, "velocity": 120}, {"time": 120956, "pitch": 42, "duration": 10, "velocity": 122}, {"time": 121199, "pitch": 42, "duration": 11, "velocity": 69}, {"time": 121443, "pitch": 38, "duration": 10, "velocity": 113}, {"time": 121443, "pitch": 42, "duration": 10, "velocity": 118}, {"time": 121682, "pitch": 42, "duration": 10, "velocity": 80}, {"time": 121921, "pitch": 36, "duration": 10, "velocity": 115}, {"time": 121921, "pitch": 42, "duration": 10, "velocity": 127}, {"time": 122161, "pitch": 42, "duration": 10, "velocity": 73}, {"time": 122400, "pitch": 38, "duration": 10, "velocity": 113}, {"time": 122400, "pitch": 42, "duration": 10, "velocity": 93}, {"time": 122639, "pitch": 42, "duration": 10, "velocity": 72}, {"time": 122879, "pitch": 36, "duration": 10, "velocity": 115}, {"time": 122879, "pitch": 42, "duration": 10, "velocity": 122}, {"time": 123118, "pitch": 42, "duration": 10, "velocity": 69}, {"time": 123357, "pitch": 38, "duration": 10, "velocity": 113}, {"time": 123357, "pitch": 42, "duration": 10, "velocity": 118}, {"time": 123600, "pitch": 42, "duration": 10, "velocity": 80}, {"time": 123843, "pitch": 36, "duration": 10, "velocity": 115}, {"time": 123843, "pitch": 42, "duration": 10, "velocity": 127}, {"time": 124083, "pitch": 42, "duration": 10, "velocity": 73}, {"time": 124322, "pitch": 38, "duration": 10, "velocity": 113}, {"time": 124322, "pitch": 42, "duration": 10, "velocity": 93}, {"time": 124561, "pitch": 42, "duration": 10, "velocity": 72}, {"time": 124801, "pitch": 36, "duration": 10, "velocity": 115}, {"time": 124801, "pitch": 42, "duration": 10, "velocity": 122}, {"time": 125040, "pitch": 42, "duration": 10, "velocity": 69}, {"time": 125279, "pitch": 38, "duration": 10, "velocity": 113}, {"time": 125279, "pitch": 42, "duration": 10, "velocity": 118}, {"time": 125519, "pitch": 42, "duration": 10, "velocity": 80}, {"time": 125758, "pitch": 36, "duration": 10, "velocity": 115}, {"time": 125758, "pitch": 42, "duration": 10, "velocity": 127}, {"time": 125997, "pitch": 42, "duration": 10, "velocity": 73}, {"time": 126237, "pitch": 38, "duration": 10, "velocity": 113}, {"time": 126237, "pitch": 42, "duration": 10, "velocity": 93}, {"time": 126480, "pitch": 42, "duration": 10, "velocity": 72}, {"time": 126723, "pitch": 36, "duration": 10, "velocity": 115}, {"time": 126723, "pitch": 42, "duration": 10, "velocity": 122}, {"time": 126962, "pitch": 42, "duration": 10, "velocity": 69}, {"time": 127202, "pitch": 38, "duration": 10, "velocity": 113}, {"time": 127202, "pitch": 42, "duration": 10, "velocity": 118}, {"time": 127441, "pitch": 42, "duration": 10, "velocity": 80}, {"time": 127680, "pitch": 36, "duration": 10, "velocity": 115}, {"time": 127680, "pitch": 49, "duration": 10, "velocity": 109}, {"time": 127920, "pitch": 42, "duration": 10, "velocity": 73}, {"time": 128159, "pitch": 38, "duration": 10, "velocity": 113}, {"time": 128159, "pitch": 42, "duration": 10, "velocity": 93}, {"time": 128398, "pitch": 42, "duration": 10, "velocity": 72}, {"time": 128638, "pitch": 36, "duration": 10, "velocity": 115}, {"time": 128638, "pitch": 42, "duration": 10, "velocity": 122}, {"time": 128877, "pitch": 42, "duration": 10, "velocity": 69}, {"time": 129116, "pitch": 38, "duration": 10, "velocity": 113}, {"time": 129116, "pitch": 42, "duration": 10, "velocity": 118}, {"time": 129359, "pitch": 46, "duration": 11, "velocity": 127}, {"time": 129603, "pitch": 36, "duration": 10, "velocity": 115}, {"time": 129603, "pitch": 42, "duration": 10, "velocity": 127}, {"time": 129603, "pitch": 49, "duration": 10, "velocity": 62}, {"time": 129842, "pitch": 46, "duration": 10, "velocity": 104}, {"time": 130081, "pitch": 38, "duration": 10, "velocity": 87}, {"time": 130081, "pitch": 46, "duration": 10, "velocity": 87}, {"time": 130321, "pitch": 46, "duration": 10, "velocity": 90}, {"time": 130560, "pitch": 36, "duration": 10, "velocity": 106}, {"time": 130560, "pitch": 46, "duration": 10, "velocity": 106}, {"time": 130799, "pitch": 36, "duration": 10, "velocity": 108}, {"time": 130799, "pitch": 38, "duration": 10, "velocity": 108}, {"time": 130799, "pitch": 49, "duration": 10, "velocity": 90}, {"time": 131039, "pitch": 38, "duration": 10, "velocity": 108}, {"time": 131039, "pitch": 46, "duration": 10, "velocity": 108}, {"time": 131158, "pitch": 38, "duration": 10, "velocity": 108}, {"time": 131278, "pitch": 38, "duration": 10, "velocity": 108}, {"time": 131278, "pitch": 46, "duration": 10, "velocity": 117}, {"time": 131517, "pitch": 36, "duration": 10, "velocity": 115}, {"time": 131517, "pitch": 49, "duration": 10, "velocity": 97}, {"time": 131760, "pitch": 42, "duration": 10, "velocity": 73}, {"time": 132003, "pitch": 38, "duration": 10, "velocity": 113}, {"time": 132003, "pitch": 42, "duration": 10, "velocity": 93}, {"time": 132003, "pitch": 54, "duration": 10, "velocity": 88}, {"time": 132243, "pitch": 42, "duration": 10, "velocity": 72}, {"time": 132482, "pitch": 36, "duration": 10, "velocity": 115}, {"time": 132482, "pitch": 42, "duration": 10, "velocity": 122}, {"time": 132721, "pitch": 42, "duration": 10, "velocity": 69}, {"time": 132961, "pitch": 38, "duration": 10, "velocity": 113}, {"time": 132961, "pitch": 42, "duration": 10, "velocity": 118}, {"time": 132961, "pitch": 54, "duration": 10, "velocity": 91}, {"time": 133200, "pitch": 42, "duration": 10, "velocity": 80}, {"time": 133439, "pitch": 36, "duration": 10, "velocity": 115}, {"time": 133439, "pitch": 42, "duration": 10, "velocity": 127}, {"time": 133679, "pitch": 42, "duration": 10, "velocity": 73}, {"time": 133918, "pitch": 38, "duration": 10, "velocity": 113}, {"time": 133918, "pitch": 42, "duration": 10, "velocity": 93}, {"time": 133918, "pitch": 54, "duration": 10, "velocity": 88}, {"time": 134157, "pitch": 42, "duration": 10, "velocity": 72}, {"time": 134397, "pitch": 36, "duration": 10, "velocity": 120}, {"time": 134397, "pitch": 42, "duration": 10, "velocity": 122}, {"time": 134640, "pitch": 42, "duration": 10, "velocity": 69}, {"time": 134883, "pitch": 38, "duration": 10, "velocity": 113}, {"time": 134883, "pitch": 42, "duration": 10, "velocity": 118}, {"time": 134883, "pitch": 54, "duration": 10, "velocity": 91}, {"time": 135122, "pitch": 46, "duration": 10, "velocity": 80}, {"time": 135362, "pitch": 36, "duration": 10, "velocity": 115}, {"time": 135362, "pitch": 49, "duration": 10, "velocity": 88}, {"time": 135601, "pitch": 42, "duration": 10, "velocity": 73}, {"time": 135840, "pitch": 38, "duration": 10, "velocity": 113}, {"time": 135840, "pitch": 42, "duration": 10, "velocity": 93}, {"time": 135840, "pitch": 54, "duration": 10, "velocity": 88}, {"time": 136080, "pitch": 36, "duration": 10, "velocity": 115}, {"time": 136080, "pitch": 57, "duration": 10, "velocity": 85}, {"time": 136319, "pitch": 42, "duration": 10, "velocity": 122}, {"time": 136558, "pitch": 36, "duration": 10, "velocity": 104}, {"time": 136558, "pitch": 42, "duration": 10, "velocity": 69}, {"time": 136798, "pitch": 38, "duration": 10, "velocity": 113}, {"time": 136798, "pitch": 42, "duration": 10, "velocity": 118}, {"time": 136798, "pitch": 54, "duration": 10, "velocity": 91}, {"time": 137037, "pitch": 42, "duration": 10, "velocity": 80}, {"time": 137276, "pitch": 36, "duration": 10, "velocity": 115}, {"time": 137276, "pitch": 42, "duration": 10, "velocity": 127}, {"time": 137276, "pitch": 49, "duration": 10, "velocity": 88}, {"time": 137519, "pitch": 42, "duration": 11, "velocity": 73}, {"time": 137763, "pitch": 38, "duration": 10, "velocity": 113}, {"time": 137763, "pitch": 42, "duration": 10, "velocity": 93}, {"time": 137763, "pitch": 54, "duration": 10, "velocity": 88}, {"time": 138002, "pitch": 36, "duration": 10, "velocity": 106}, {"time": 138002, "pitch": 57, "duration": 10, "velocity": 88}, {"time": 138241, "pitch": 42, "duration": 10, "velocity": 122}, {"time": 138481, "pitch": 36, "duration": 10, "velocity": 104}, {"time": 138481, "pitch": 42, "duration": 10, "velocity": 69}, {"time": 138720, "pitch": 38, "duration": 10, "velocity": 113}, {"time": 138720, "pitch": 42, "duration": 10, "velocity": 118}, {"time": 138720, "pitch": 54, "duration": 10, "velocity": 91}, {"time": 138959, "pitch": 42, "duration": 10, "velocity": 101}, {"time": 139199, "pitch": 36, "duration": 10, "velocity": 115}, {"time": 139199, "pitch": 57, "duration": 10, "velocity": 109}, {"time": 139438, "pitch": 42, "duration": 10, "velocity": 73}, {"time": 139677, "pitch": 38, "duration": 10, "velocity": 113}, {"time": 139677, "pitch": 42, "duration": 10, "velocity": 93}, {"time": 139677, "pitch": 54, "duration": 10, "velocity": 88}, {"time": 139920, "pitch": 42, "duration": 11, "velocity": 72}, {"time": 140163, "pitch": 36, "duration": 10, "velocity": 115}, {"time": 140163, "pitch": 42, "duration": 10, "velocity": 122}, {"time": 140403, "pitch": 42, "duration": 10, "velocity": 69}, {"time": 140642, "pitch": 38, "duration": 10, "velocity": 113}, {"time": 140642, "pitch": 42, "duration": 10, "velocity": 118}, {"time": 140642, "pitch": 54, "duration": 10, "velocity": 91}, {"time": 140881, "pitch": 42, "duration": 10, "velocity": 80}, {"time": 141121, "pitch": 36, "duration": 10, "velocity": 115}, {"time": 141121, "pitch": 42, "duration": 10, "velocity": 127}, {"time": 141360, "pitch": 42, "duration": 10, "velocity": 73}, {"time": 141600, "pitch": 38, "duration": 9, "velocity": 113}, {"time": 141600, "pitch": 42, "duration": 9, "velocity": 93}, {"time": 141600, "pitch": 54, "duration": 9, "velocity": 88}, {"time": 141839, "pitch": 42, "duration": 10, "velocity": 72}, {"time": 142078, "pitch": 36, "duration": 10, "velocity": 115}, {"time": 142078, "pitch": 42, "duration": 10, "velocity": 122}, {"time": 142318, "pitch": 42, "duration": 9, "velocity": 69}, {"time": 142557, "pitch": 38, "duration": 10, "velocity": 113}, {"time": 142557, "pitch": 42, "duration": 10, "velocity": 118}, {"time": 142557, "pitch": 54, "duration": 10, "velocity": 91}, {"time": 142800, "pitch": 42, "duration": 10, "velocity": 80}, {"time": 143043, "pitch": 36, "duration": 10, "velocity": 115}, {"time": 143043, "pitch": 57, "duration": 10, "velocity": 109}, {"time": 143282, "pitch": 42, "duration": 10, "velocity": 73}, {"time": 143522, "pitch": 38, "duration": 10, "velocity": 113}, {"time": 143522, "pitch": 42, "duration": 10, "velocity": 93}, {"time": 143522, "pitch": 54, "duration": 10, "velocity": 88}, {"time": 143761, "pitch": 36, "duration": 10, "velocity": 127}, {"time": 143761, "pitch": 49, "duration": 10, "velocity": 109}, {"time": 144000, "pitch": 42, "duration": 10, "velocity": 122}, {"time": 144240, "pitch": 36, "duration": 10, "velocity": 104}, {"time": 144240, "pitch": 42, "duration": 10, "velocity": 69}, {"time": 144479, "pitch": 38, "duration": 10, "velocity": 113}, {"time": 144479, "pitch": 42, "duration": 10, "velocity": 118}, {"time": 144479, "pitch": 54, "duration": 10, "velocity": 91}, {"time": 144718, "pitch": 42, "duration": 10, "velocity": 80}, {"time": 144958, "pitch": 36, "duration": 10, "velocity": 115}, {"time": 144958, "pitch": 42, "duration": 10, "velocity": 127}, {"time": 144958, "pitch": 57, "duration": 10, "velocity": 109}, {"time": 145197, "pitch": 42, "duration": 10, "velocity": 73}, {"time": 145436, "pitch": 38, "duration": 10, "velocity": 113}, {"time": 145436, "pitch": 42, "duration": 10, "velocity": 93}, {"time": 145436, "pitch": 54, "duration": 10, "velocity": 88}, {"time": 145680, "pitch": 36, "duration": 10, "velocity": 127}, {"time": 145680, "pitch": 49, "duration": 10, "velocity": 109}, {"time": 145923, "pitch": 42, "duration": 10, "velocity": 122}, {"time": 146162, "pitch": 36, "duration": 10, "velocity": 104}, {"time": 146162, "pitch": 42, "duration": 10, "velocity": 69}, {"time": 146401, "pitch": 38, "duration": 10, "velocity": 113}, {"time": 146401, "pitch": 42, "duration": 10, "velocity": 118}, {"time": 146401, "pitch": 54, "duration": 10, "velocity": 91}, {"time": 146641, "pitch": 46, "duration": 10, "velocity": 115}, {"time": 146641, "pitch": 54, "duration": 10, "velocity": 91}, {"time": 146880, "pitch": 36, "duration": 10, "velocity": 115}, {"time": 146880, "pitch": 49, "duration": 10, "velocity": 97}, {"time": 147119, "pitch": 42, "duration": 10, "velocity": 73}, {"time": 147359, "pitch": 38, "duration": 10, "velocity": 113}, {"time": 147359, "pitch": 42, "duration": 10, "velocity": 93}, {"time": 147359, "pitch": 54, "duration": 10, "velocity": 88}, {"time": 147598, "pitch": 42, "duration": 10, "velocity": 72}, {"time": 147837, "pitch": 36, "duration": 10, "velocity": 115}, {"time": 147837, "pitch": 42, "duration": 10, "velocity": 122}, {"time": 148080, "pitch": 42, "duration": 11, "velocity": 69}, {"time": 148323, "pitch": 38, "duration": 10, "velocity": 113}, {"time": 148323, "pitch": 42, "duration": 10, "velocity": 118}, {"time": 148323, "pitch": 54, "duration": 10, "velocity": 91}, {"time": 148563, "pitch": 42, "duration": 10, "velocity": 80}, {"time": 148807, "pitch": 36, "duration": 32, "velocity": 115}, {"time": 148807, "pitch": 49, "duration": 32, "velocity": 109}, {"time": 150112, "pitch": 38, "duration": 25, "velocity": 113}, {"time": 150112, "pitch": 42, "duration": 25, "velocity": 93}, {"time": 150112, "pitch": 54, "duration": 25, "velocity": 88}, {"time": 150112, "pitch": 57, "duration": 25, "velocity": 55}, {"time": 150345, "pitch": 42, "duration": 6, "velocity": 72}, {"time": 150491, "pitch": 36, "duration": 7, "velocity": 115}, {"time": 150491, "pitch": 49, "duration": 7, "velocity": 104}, {"time": 150491, "pitch": 54, "duration": 7, "velocity": 63}, {"time": 150517, "pitch": 54, "duration": 7, "velocity": 60}, {"time": 150544, "pitch": 54, "duration": 7, "velocity": 59}, {"time": 150571, "pitch": 54, "duration": 7, "velocity": 51}, {"time": 150599, "pitch": 54, "duration": 8, "velocity": 51}, {"time": 150629, "pitch": 54, "duration": 7, "velocity": 50}, {"time": 150658, "pitch": 54, "duration": 7, "velocity": 46}, {"time": 150688, "pitch": 54, "duration": 7, "velocity": 46}, {"time": 150717, "pitch": 54, "duration": 7, "velocity": 46}, {"time": 150746, "pitch": 54, "duration": 8, "velocity": 45}, {"time": 150776, "pitch": 54, "duration": 7, "velocity": 47}, {"time": 150805, "pitch": 54, "duration": 8, "velocity": 47}, {"time": 150835, "pitch": 54, "duration": 7, "velocity": 46}, {"time": 150864, "pitch": 54, "duration": 8, "velocity": 46}, {"time": 150894, "pitch": 54, "duration": 7, "velocity": 45}, {"time": 150923, "pitch": 54, "duration": 7, "velocity": 44}, {"time": 150953, "pitch": 54, "duration": 7, "velocity": 43}, {"time": 150982, "pitch": 54, "duration": 7, "velocity": 43}, {"time": 151011, "pitch": 54, "duration": 8, "velocity": 42}, {"time": 151041, "pitch": 54, "duration": 7, "velocity": 34}, {"time": 151070, "pitch": 54, "duration": 8, "velocity": 34}, {"time": 151100, "pitch": 54, "duration": 7, "velocity": 28}, {"time": 151129, "pitch": 54, "duration": 8, "velocity": 28}, {"time": 151159, "pitch": 54, "duration": 7, "velocity": 28}, {"time": 151188, "pitch": 54, "duration": 7, "velocity": 20}, {"time": 151218, "pitch": 54, "duration": 7, "velocity": 20}, {"time": 151247, "pitch": 54, "duration": 7, "velocity": 19}, {"time": 151276, "pitch": 54, "duration": 8, "velocity": 19}, {"time": 151306, "pitch": 54, "duration": 7, "velocity": 19}, {"time": 151335, "pitch": 54, "duration": 8, "velocity": 17}, {"time": 151365, "pitch": 54, "duration": 7, "velocity": 16}, {"time": 151394, "pitch": 54, "duration": 8, "velocity": 14}, {"time": 151424, "pitch": 54, "duration": 7, "velocity": 10}, {"time": 151453, "pitch": 54, "duration": 7, "velocity": 10}, {"time": 151483, "pitch": 54, "duration": 7, "velocity": 10}, {"time": 151512, "pitch": 54, "duration": 7, "velocity": 8}, {"time": 151541, "pitch": 54, "duration": 8, "velocity": 8}, {"time": 151571, "pitch": 54, "duration": 7, "velocity": 7}, {"time": 151600, "pitch": 54, "duration": 8, "velocity": 5}, {"time": 151630, "pitch": 54, "duration": 7, "velocity": 3}, {"time": 151659, "pitch": 54, "duration": 8, "velocity": 3}, {"time": 151689, "pitch": 54, "duration": 7, "velocity": 1}, {"time": 151718, "pitch": 54, "duration": 7, "velocity": 1}, {"time": 151748, "pitch": 54, "duration": 7, "velocity": 1}, {"time": 151777, "pitch": 54, "duration": 7, "velocity": 1}, {"time": 151806, "pitch": 54, "duration": 8, "velocity": 1}, {"time": 151836, "pitch": 54, "duration": 7, "velocity": 1}, {"time": 151865, "pitch": 54, "duration": 8, "velocity": 1}, {"time": 151895, "pitch": 54, "duration": 7, "velocity": 1}, {"time": 151924, "pitch": 54, "duration": 8, "velocity": 1}, {"time": 151954, "pitch": 54, "duration": 7, "velocity": 1}, {"time": 151983, "pitch": 54, "duration": 7, "velocity": 1}, {"time": 152013, "pitch": 54, "duration": 7, "velocity": 1}, {"time": 152042, "pitch": 54, "duration": 7, "velocity": 1}, {"time": 152071, "pitch": 54, "duration": 8, "velocity": 1}, {"time": 152101, "pitch": 54, "duration": 7, "velocity": 1}, {"time": 152130, "pitch": 54, "duration": 8, "velocity": 1}, {"time": 152160, "pitch": 54, "duration": 7, "velocity": 1}, {"time": 152189, "pitch": 54, "duration": 8, "velocity": 1}, {"time": 152219, "pitch": 54, "duration": 7, "velocity": 1}, {"time": 152248, "pitch": 54, "duration": 7, "velocity": 1}, {"time": 152278, "pitch": 54, "duration": 7, "velocity": 1}, {"time": 152307, "pitch": 54, "duration": 7, "velocity": 1}, {"time": 152336, "pitch": 54, "duration": 8, "velocity": 1}, {"time": 152366, "pitch": 54, "duration": 7, "velocity": 1}, {"time": 152395, "pitch": 54, "duration": 8, "velocity": 1}, {"time": 152425, "pitch": 54, "duration": 7, "velocity": 1}, {"time": 152454, "pitch": 54, "duration": 8, "velocity": 1}, {"time": 152484, "pitch": 54, "duration": 7, "velocity": 1}, {"time": 54719, "pitch": 69, "duration": 881, "velocity": 100}, {"time": 55684, "pitch": 76, "duration": 246, "velocity": 109}, {"time": 55923, "pitch": 79, "duration": 106, "velocity": 100}, {"time": 56162, "pitch": 76, "duration": 358, "velocity": 107}, {"time": 56641, "pitch": 72, "duration": 1900, "velocity": 108}, {"time": 104636, "pitch": 67, "duration": 121, "velocity": 98}, {"time": 104637, "pitch": 72, "duration": 106, "velocity": 101}, {"time": 104639, "pitch": 76, "duration": 100, "velocity": 102}, {"time": 104758, "pitch": 69, "duration": 242, "velocity": 96}, {"time": 104759, "pitch": 72, "duration": 242, "velocity": 95}, {"time": 104760, "pitch": 76, "duration": 242, "velocity": 100}, {"time": 105001, "pitch": 69, "duration": 120, "velocity": 90}, {"time": 105002, "pitch": 72, "duration": 120, "velocity": 95}, {"time": 105122, "pitch": 76, "duration": 1, "velocity": 87}, {"time": 105123, "pitch": 72, "duration": 119, "velocity": 94}, {"time": 105242, "pitch": 69, "duration": 1, "velocity": 94}, {"time": 105243, "pitch": 72, "duration": 63, "velocity": 96}, {"time": 105244, "pitch": 76, "duration": 119, "velocity": 100}, {"time": 105362, "pitch": 67, "duration": 1076, "velocity": 90}, {"time": 105363, "pitch": 72, "duration": 837, "velocity": 95}, {"time": 105364, "pitch": 76, "duration": 837, "velocity": 98}, {"time": 106439, "pitch": 67, "duration": 114, "velocity": 90}, {"time": 106440, "pitch": 71, "duration": 840, "velocity": 95}, {"time": 106441, "pitch": 74, "duration": 119, "velocity": 100}, {"time": 106559, "pitch": 67, "duration": 113, "velocity": 99}, {"time": 106560, "pitch": 74, "duration": 118, "velocity": 107}, {"time": 106678, "pitch": 76, "duration": 239, "velocity": 90}, {"time": 106679, "pitch": 67, "duration": 239, "velocity": 100}, {"time": 106918, "pitch": 67, "duration": 118, "velocity": 94}, {"time": 106919, "pitch": 76, "duration": 118, "velocity": 101}, {"time": 107037, "pitch": 76, "duration": 121, "velocity": 90}, {"time": 107038, "pitch": 67, "duration": 121, "velocity": 95}, {"time": 107159, "pitch": 67, "duration": 120, "velocity": 90}, {"time": 107160, "pitch": 76, "duration": 120, "velocity": 101}, {"time": 107280, "pitch": 74, "duration": 841, "velocity": 90}, {"time": 107281, "pitch": 71, "duration": 841, "velocity": 95}, {"time": 107282, "pitch": 67, "duration": 848, "velocity": 103}, {"time": 108241, "pitch": 67, "duration": 239, "velocity": 90}, {"time": 108243, "pitch": 74, "duration": 239, "velocity": 107}, {"time": 108481, "pitch": 69, "duration": 238, "velocity": 90}, {"time": 108482, "pitch": 76, "duration": 238, "velocity": 109}, {"time": 108720, "pitch": 76, "duration": 119, "velocity": 90}, {"time": 108721, "pitch": 69, "duration": 119, "velocity": 100}, {"time": 108840, "pitch": 69, "duration": 118, "velocity": 99}, {"time": 108841, "pitch": 76, "duration": 118, "velocity": 100}, {"time": 108959, "pitch": 76, "duration": 164, "velocity": 90}, {"time": 108960, "pitch": 69, "duration": 152, "velocity": 100}, {"time": 109199, "pitch": 64, "duration": 118, "velocity": 90}, {"time": 109200, "pitch": 72, "duration": 118, "velocity": 104}, {"time": 109318, "pitch": 74, "duration": 358, "velocity": 90}, {"time": 109319, "pitch": 65, "duration": 358, "velocity": 109}, {"time": 109677, "pitch": 64, "duration": 164, "velocity": 99}, {"time": 109678, "pitch": 72, "duration": 172, "velocity": 103}, {"time": 109917, "pitch": 74, "duration": 120, "velocity": 90}, {"time": 109918, "pitch": 65, "duration": 120, "velocity": 97}, {"time": 110038, "pitch": 64, "duration": 121, "velocity": 99}, {"time": 110039, "pitch": 72, "duration": 121, "velocity": 101}, {"time": 110160, "pitch": 69, "duration": 454, "velocity": 90}, {"time": 110161, "pitch": 60, "duration": 435, "velocity": 109}, {"time": 110642, "pitch": 67, "duration": 157, "velocity": 100}, {"time": 110882, "pitch": 64, "duration": 152, "velocity": 99}, {"time": 111121, "pitch": 65, "duration": 133, "velocity": 103}, {"time": 111360, "pitch": 67, "duration": 125, "velocity": 101}, {"time": 111480, "pitch": 62, "duration": 239, "velocity": 97}, {"time": 111719, "pitch": 67, "duration": 125, "velocity": 97}, {"time": 111839, "pitch": 64, "duration": 128, "velocity": 98}, {"time": 111959, "pitch": 62, "duration": 148, "velocity": 100}, {"time": 112078, "pitch": 60, "duration": 150, "velocity": 100}, {"time": 112318, "pitch": 60, "duration": 226, "velocity": 102}, {"time": 112557, "pitch": 55, "duration": 100, "velocity": 91}, {"time": 112677, "pitch": 57, "duration": 108, "velocity": 90}, {"time": 112796, "pitch": 60, "duration": 107, "velocity": 97}, {"time": 112918, "pitch": 62, "duration": 129, "velocity": 100}, {"time": 113039, "pitch": 64, "duration": 127, "velocity": 90}, {"time": 113161, "pitch": 67, "duration": 126, "velocity": 98}, {"time": 113283, "pitch": 69, "duration": 154, "velocity": 113}, {"time": 113402, "pitch": 72, "duration": 143, "velocity": 103}, {"time": 113522, "pitch": 74, "duration": 98, "velocity": 104}, {"time": 113761, "pitch": 76, "duration": 650, "velocity": 112}, {"time": 114479, "pitch": 74, "duration": 106, "velocity": 103}, {"time": 114719, "pitch": 74, "duration": 165, "velocity": 107}, {"time": 114958, "pitch": 72, "duration": 99, "velocity": 98}, {"time": 115078, "pitch": 74, "duration": 581, "velocity": 106}, {"time": 115683, "pitch": 76, "duration": 232, "velocity": 107}, {"time": 115923, "pitch": 72, "duration": 133, "velocity": 99}, {"time": 116880, "pitch": 74, "duration": 223, "velocity": 98}, {"time": 117119, "pitch": 81, "duration": 125, "velocity": 84}, {"time": 117239, "pitch": 79, "duration": 132, "velocity": 101}, {"time": 117359, "pitch": 76, "duration": 88, "velocity": 89}, {"time": 117478, "pitch": 76, "duration": 109, "velocity": 98}, {"time": 117598, "pitch": 74, "duration": 97, "velocity": 96}, {"time": 117718, "pitch": 72, "duration": 142, "velocity": 90}, {"time": 117837, "pitch": 69, "duration": 151, "velocity": 96}, {"time": 118077, "pitch": 72, "duration": 234, "velocity": 109}, {"time": 118320, "pitch": 69, "duration": 90, "velocity": 92}, {"time": 118563, "pitch": 67, "duration": 137, "velocity": 101}, {"time": 118802, "pitch": 64, "duration": 119, "velocity": 92}, {"time": 119042, "pitch": 62, "duration": 136, "velocity": 103}, {"time": 119281, "pitch": 60, "duration": 134, "velocity": 97}, {"time": 119520, "pitch": 57, "duration": 208, "velocity": 97}, {"time": 119760, "pitch": 60, "duration": 148, "velocity": 101}, {"time": 147359, "pitch": 64, "duration": 446, "velocity": 101}, {"time": 147837, "pitch": 62, "duration": 99, "velocity": 94}, {"time": 147926, "pitch": 64, "duration": 21, "velocity": 89}, {"time": 147959, "pitch": 62, "duration": 129, "velocity": 97}, {"time": 148080, "pitch": 60, "duration": 173, "velocity": 83}, {"time": 148323, "pitch": 57, "duration": 136, "velocity": 94}, {"time": 148563, "pitch": 55, "duration": 587, "velocity": 94}, {"time": 149204, "pitch": 57, "duration": 331, "velocity": 94}, {"time": 149516, "pitch": 60, "duration": 279, "velocity": 89}, {"time": 149814, "pitch": 62, "duration": 277, "velocity": 91}, {"time": 150112, "pitch": 64, "duration": 168, "velocity": 91}, {"time": 150278, "pitch": 67, "duration": 75, "velocity": 93}, {"time": 150345, "pitch": 69, "duration": 141, "velocity": 95}, {"time": 150489, "pitch": 64, "duration": 1869, "velocity": 90}, {"time": 150496, "pitch": 67, "duration": 1843, "velocity": 95}, {"time": 150502, "pitch": 72, "duration": 1823, "velocity": 108}]}]}