{"metadata": {"schema_version": "0.1", "title": "RWC-MDB-P-2001 No. 62: Be with me Now / Rin", "copyright": "RWC Music Database. Copyright (C) 2001 Real World Computing Partnership (contact: Masataka GOTO <m.goto@aist.go.jp>)", "source_filename": "RM-P062.SMF_SYNC.MID", "source_format": "midi"}, "resolution": 480, "tempos": [{"time": 0, "qpm": 59.40594059405941}, {"time": 480, "qpm": 81.08108108108108}, {"time": 1440, "qpm": 80.0}, {"time": 1920, "qpm": 81.08108108108108}, {"time": 8640, "qpm": 80.0}, {"time": 9120, "qpm": 81.08108108108108}, {"time": 15360, "qpm": 80.0}, {"time": 15840, "qpm": 81.08108108108108}, {"time": 21600, "qpm": 80.0}, {"time": 22080, "qpm": 81.08108108108108}, {"time": 27840, "qpm": 80.0}, {"time": 28320, "qpm": 81.08108108108108}, {"time": 34560, "qpm": 80.0}, {"time": 35040, "qpm": 81.08108108108108}, {"time": 41280, "qpm": 80.0}, {"time": 41760, "qpm": 81.08108108108108}, {"time": 47040, "qpm": 80.0}, {"time": 47520, "qpm": 81.08108108108108}, {"time": 54240, "qpm": 80.0}, {"time": 54720, "qpm": 81.08108108108108}, {"time": 60960, "qpm": 80.0}, {"time": 61440, "qpm": 81.08108108108108}, {"time": 66720, "qpm": 80.0}, {"time": 67200, "qpm": 81.08108108108108}, {"time": 72960, "qpm": 80.0}, {"time": 73440, "qpm": 81.08108108108108}, {"time": 79680, "qpm": 80.0}, {"time": 80160, "qpm": 81.08108108108108}, {"time": 86400, "qpm": 80.0}, {"time": 86880, "qpm": 81.08108108108108}, {"time": 92160, "qpm": 80.0}, {"time": 92640, "qpm": 81.08108108108108}, {"time": 99840, "qpm": 80.0}, {"time": 100320, "qpm": 81.08108108108108}, {"time": 105120, "qpm": 80.0}, {"time": 105600, "qpm": 81.08108108108108}, {"time": 112800, "qpm": 80.0}, {"time": 113280, "qpm": 81.08108108108108}, {"time": 119040, "qpm": 80.0}, {"time": 119520, "qpm": 81.08108108108108}], "key_signatures": [{"time": 0, "root": 0, "mode": "major"}], "time_signatures": [{"time": 0, "numerator": 1, "denominator": 4}, {"time": 480, "numerator": 2, "denominator": 4}, {"time": 1440, "numerator": 4, "denominator": 4}], "tracks": [{"program": 0, "is_drum": false, "name": "Piano", "notes": [{"time": 1443, "pitch": 55, "duration": 1590, "velocity": 80}, {"time": 1443, "pitch": 59, "duration": 1590, "velocity": 80}, {"time": 1443, "pitch": 62, "duration": 1590, "velocity": 80}, {"time": 1443, "pitch": 66, "duration": 1590, "velocity": 80}, {"time": 3118, "pitch": 62, "duration": 988, "velocity": 80}, {"time": 3118, "pitch": 66, "duration": 925, "velocity": 80}, {"time": 3118, "pitch": 69, "duration": 926, "velocity": 80}, {"time": 3358, "pitch": 55, "duration": 1860, "velocity": 80}, {"time": 3358, "pitch": 59, "duration": 1871, "velocity": 80}, {"time": 4078, "pitch": 66, "duration": 403, "velocity": 80}, {"time": 4078, "pitch": 71, "duration": 423, "velocity": 80}, {"time": 4078, "pitch": 74, "duration": 678, "velocity": 80}, {"time": 4559, "pitch": 62, "duration": 466, "velocity": 80}, {"time": 4559, "pitch": 66, "duration": 448, "velocity": 80}, {"time": 4559, "pitch": 69, "duration": 510, "velocity": 80}, {"time": 5039, "pitch": 62, "duration": 175, "velocity": 80}, {"time": 5039, "pitch": 66, "duration": 169, "velocity": 80}, {"time": 5279, "pitch": 54, "duration": 1802, "velocity": 80}, {"time": 5279, "pitch": 57, "duration": 1795, "velocity": 80}, {"time": 5279, "pitch": 61, "duration": 1101, "velocity": 80}, {"time": 5279, "pitch": 64, "duration": 1111, "velocity": 80}, {"time": 6481, "pitch": 61, "duration": 698, "velocity": 80}, {"time": 6481, "pitch": 66, "duration": 765, "velocity": 80}, {"time": 7201, "pitch": 54, "duration": 1588, "velocity": 80}, {"time": 7201, "pitch": 57, "duration": 1580, "velocity": 80}, {"time": 7201, "pitch": 61, "duration": 1596, "velocity": 80}, {"time": 7201, "pitch": 64, "duration": 949, "velocity": 80}, {"time": 8402, "pitch": 64, "duration": 704, "velocity": 80}, {"time": 8402, "pitch": 66, "duration": 607, "velocity": 80}, {"time": 8402, "pitch": 69, "duration": 705, "velocity": 80}, {"time": 8883, "pitch": 54, "duration": 180, "velocity": 80}, {"time": 8883, "pitch": 57, "duration": 187, "velocity": 80}, {"time": 8883, "pitch": 61, "duration": 242, "velocity": 80}, {"time": 9123, "pitch": 55, "duration": 1074, "velocity": 80}, {"time": 9123, "pitch": 59, "duration": 1145, "velocity": 80}, {"time": 9123, "pitch": 62, "duration": 1862, "velocity": 80}, {"time": 9123, "pitch": 66, "duration": 1099, "velocity": 80}, {"time": 10317, "pitch": 55, "duration": 715, "velocity": 80}, {"time": 10317, "pitch": 66, "duration": 705, "velocity": 80}, {"time": 10317, "pitch": 69, "duration": 712, "velocity": 80}, {"time": 10798, "pitch": 59, "duration": 220, "velocity": 80}, {"time": 11038, "pitch": 55, "duration": 1096, "velocity": 80}, {"time": 11038, "pitch": 59, "duration": 1153, "velocity": 80}, {"time": 11038, "pitch": 62, "duration": 1125, "velocity": 80}, {"time": 11038, "pitch": 66, "duration": 1588, "velocity": 80}, {"time": 11038, "pitch": 69, "duration": 1149, "velocity": 80}, {"time": 12239, "pitch": 55, "duration": 618, "velocity": 80}, {"time": 12239, "pitch": 59, "duration": 669, "velocity": 80}, {"time": 12239, "pitch": 62, "duration": 413, "velocity": 80}, {"time": 12239, "pitch": 71, "duration": 469, "velocity": 80}, {"time": 12720, "pitch": 62, "duration": 191, "velocity": 80}, {"time": 12720, "pitch": 66, "duration": 205, "velocity": 80}, {"time": 12720, "pitch": 69, "duration": 238, "velocity": 80}, {"time": 12960, "pitch": 54, "duration": 632, "velocity": 80}, {"time": 12960, "pitch": 57, "duration": 665, "velocity": 80}, {"time": 12960, "pitch": 61, "duration": 684, "velocity": 80}, {"time": 12960, "pitch": 64, "duration": 654, "velocity": 80}, {"time": 13680, "pitch": 54, "duration": 1072, "velocity": 80}, {"time": 13680, "pitch": 57, "duration": 1123, "velocity": 80}, {"time": 13680, "pitch": 61, "duration": 1119, "velocity": 80}, {"time": 13680, "pitch": 64, "duration": 1110, "velocity": 80}, {"time": 13680, "pitch": 66, "duration": 863, "velocity": 80}, {"time": 14641, "pitch": 66, "duration": 317, "velocity": 80}, {"time": 14641, "pitch": 69, "duration": 329, "velocity": 80}, {"time": 14882, "pitch": 54, "duration": 1614, "velocity": 80}, {"time": 14882, "pitch": 57, "duration": 1629, "velocity": 80}, {"time": 14882, "pitch": 61, "duration": 1619, "velocity": 80}, {"time": 14882, "pitch": 64, "duration": 1622, "velocity": 80}, {"time": 15122, "pitch": 66, "duration": 421, "velocity": 80}, {"time": 15122, "pitch": 69, "duration": 412, "velocity": 80}, {"time": 15122, "pitch": 73, "duration": 414, "velocity": 80}, {"time": 15122, "pitch": 76, "duration": 411, "velocity": 80}, {"time": 15602, "pitch": 66, "duration": 461, "velocity": 80}, {"time": 15602, "pitch": 69, "duration": 374, "velocity": 80}, {"time": 15602, "pitch": 73, "duration": 356, "velocity": 80}, {"time": 15602, "pitch": 76, "duration": 441, "velocity": 80}, {"time": 16083, "pitch": 66, "duration": 169, "velocity": 80}, {"time": 16083, "pitch": 69, "duration": 174, "velocity": 80}, {"time": 16083, "pitch": 73, "duration": 192, "velocity": 80}, {"time": 16323, "pitch": 66, "duration": 196, "velocity": 80}, {"time": 16323, "pitch": 69, "duration": 211, "velocity": 80}, {"time": 16560, "pitch": 54, "duration": 189, "velocity": 80}, {"time": 16560, "pitch": 57, "duration": 196, "velocity": 80}, {"time": 16560, "pitch": 61, "duration": 227, "velocity": 80}, {"time": 16560, "pitch": 64, "duration": 235, "velocity": 80}, {"time": 16560, "pitch": 66, "duration": 141, "velocity": 80}, {"time": 16560, "pitch": 69, "duration": 166, "velocity": 80}, {"time": 16797, "pitch": 55, "duration": 1597, "velocity": 80}, {"time": 16797, "pitch": 59, "duration": 1597, "velocity": 80}, {"time": 16797, "pitch": 62, "duration": 1597, "velocity": 80}, {"time": 16797, "pitch": 66, "duration": 1597, "velocity": 80}, {"time": 18478, "pitch": 62, "duration": 989, "velocity": 80}, {"time": 18478, "pitch": 66, "duration": 926, "velocity": 80}, {"time": 18478, "pitch": 69, "duration": 927, "velocity": 80}, {"time": 18718, "pitch": 55, "duration": 1861, "velocity": 80}, {"time": 18718, "pitch": 59, "duration": 1872, "velocity": 80}, {"time": 19439, "pitch": 66, "duration": 402, "velocity": 80}, {"time": 19439, "pitch": 71, "duration": 422, "velocity": 80}, {"time": 19439, "pitch": 74, "duration": 678, "velocity": 80}, {"time": 19920, "pitch": 62, "duration": 466, "velocity": 80}, {"time": 19920, "pitch": 66, "duration": 448, "velocity": 80}, {"time": 19920, "pitch": 69, "duration": 510, "velocity": 80}, {"time": 20400, "pitch": 62, "duration": 175, "velocity": 80}, {"time": 20400, "pitch": 66, "duration": 169, "velocity": 80}, {"time": 20640, "pitch": 54, "duration": 1802, "velocity": 80}, {"time": 20640, "pitch": 57, "duration": 1795, "velocity": 80}, {"time": 20640, "pitch": 61, "duration": 1101, "velocity": 80}, {"time": 20640, "pitch": 64, "duration": 1111, "velocity": 80}, {"time": 21841, "pitch": 61, "duration": 699, "velocity": 80}, {"time": 21841, "pitch": 66, "duration": 766, "velocity": 80}, {"time": 22562, "pitch": 54, "duration": 1585, "velocity": 80}, {"time": 22562, "pitch": 57, "duration": 1577, "velocity": 80}, {"time": 22562, "pitch": 61, "duration": 1593, "velocity": 80}, {"time": 22562, "pitch": 64, "duration": 949, "velocity": 80}, {"time": 23763, "pitch": 64, "duration": 697, "velocity": 80}, {"time": 23763, "pitch": 66, "duration": 602, "velocity": 80}, {"time": 23763, "pitch": 69, "duration": 698, "velocity": 80}, {"time": 24240, "pitch": 54, "duration": 178, "velocity": 80}, {"time": 24240, "pitch": 57, "duration": 185, "velocity": 80}, {"time": 24240, "pitch": 61, "duration": 239, "velocity": 80}, {"time": 24477, "pitch": 55, "duration": 1081, "velocity": 80}, {"time": 24477, "pitch": 59, "duration": 1152, "velocity": 80}, {"time": 24477, "pitch": 62, "duration": 1869, "velocity": 80}, {"time": 24477, "pitch": 66, "duration": 1106, "velocity": 80}, {"time": 25678, "pitch": 55, "duration": 715, "velocity": 80}, {"time": 25678, "pitch": 66, "duration": 705, "velocity": 80}, {"time": 25678, "pitch": 69, "duration": 712, "velocity": 80}, {"time": 26159, "pitch": 59, "duration": 220, "velocity": 80}, {"time": 26399, "pitch": 55, "duration": 1096, "velocity": 80}, {"time": 26399, "pitch": 59, "duration": 1153, "velocity": 80}, {"time": 26399, "pitch": 62, "duration": 1125, "velocity": 80}, {"time": 26399, "pitch": 66, "duration": 1587, "velocity": 80}, {"time": 26399, "pitch": 69, "duration": 1149, "velocity": 80}, {"time": 27600, "pitch": 55, "duration": 617, "velocity": 80}, {"time": 27600, "pitch": 59, "duration": 668, "velocity": 80}, {"time": 27600, "pitch": 62, "duration": 412, "velocity": 80}, {"time": 27600, "pitch": 71, "duration": 468, "velocity": 80}, {"time": 28080, "pitch": 62, "duration": 191, "velocity": 80}, {"time": 28080, "pitch": 66, "duration": 205, "velocity": 80}, {"time": 28080, "pitch": 69, "duration": 239, "velocity": 80}, {"time": 28321, "pitch": 54, "duration": 632, "velocity": 80}, {"time": 28321, "pitch": 57, "duration": 665, "velocity": 80}, {"time": 28321, "pitch": 61, "duration": 684, "velocity": 80}, {"time": 28321, "pitch": 64, "duration": 654, "velocity": 80}, {"time": 29041, "pitch": 54, "duration": 1072, "velocity": 80}, {"time": 29041, "pitch": 57, "duration": 1123, "velocity": 80}, {"time": 29041, "pitch": 61, "duration": 1119, "velocity": 80}, {"time": 29041, "pitch": 64, "duration": 1110, "velocity": 80}, {"time": 29041, "pitch": 66, "duration": 863, "velocity": 80}, {"time": 30002, "pitch": 66, "duration": 316, "velocity": 80}, {"time": 30002, "pitch": 69, "duration": 328, "velocity": 80}, {"time": 30242, "pitch": 54, "duration": 1610, "velocity": 80}, {"time": 30242, "pitch": 57, "duration": 1626, "velocity": 80}, {"time": 30242, "pitch": 61, "duration": 1615, "velocity": 80}, {"time": 30242, "pitch": 64, "duration": 1619, "velocity": 80}, {"time": 30482, "pitch": 66, "duration": 422, "velocity": 80}, {"time": 30482, "pitch": 69, "duration": 413, "velocity": 80}, {"time": 30482, "pitch": 73, "duration": 415, "velocity": 80}, {"time": 30482, "pitch": 76, "duration": 412, "velocity": 80}, {"time": 30963, "pitch": 66, "duration": 457, "velocity": 80}, {"time": 30963, "pitch": 69, "duration": 371, "velocity": 80}, {"time": 30963, "pitch": 73, "duration": 355, "velocity": 80}, {"time": 30963, "pitch": 76, "duration": 438, "velocity": 80}, {"time": 31440, "pitch": 66, "duration": 167, "velocity": 80}, {"time": 31440, "pitch": 69, "duration": 172, "velocity": 80}, {"time": 31440, "pitch": 73, "duration": 190, "velocity": 80}, {"time": 31677, "pitch": 66, "duration": 199, "velocity": 80}, {"time": 31677, "pitch": 69, "duration": 214, "velocity": 80}, {"time": 31917, "pitch": 54, "duration": 192, "velocity": 80}, {"time": 31917, "pitch": 57, "duration": 199, "velocity": 80}, {"time": 31917, "pitch": 61, "duration": 230, "velocity": 80}, {"time": 31917, "pitch": 64, "duration": 238, "velocity": 80}, {"time": 31917, "pitch": 66, "duration": 143, "velocity": 80}, {"time": 31917, "pitch": 69, "duration": 168, "velocity": 80}, {"time": 32157, "pitch": 55, "duration": 1598, "velocity": 80}, {"time": 32157, "pitch": 59, "duration": 1598, "velocity": 80}, {"time": 32157, "pitch": 62, "duration": 1598, "velocity": 80}, {"time": 32157, "pitch": 66, "duration": 1598, "velocity": 80}, {"time": 33839, "pitch": 62, "duration": 989, "velocity": 80}, {"time": 33839, "pitch": 66, "duration": 926, "velocity": 80}, {"time": 33839, "pitch": 69, "duration": 927, "velocity": 80}, {"time": 34079, "pitch": 55, "duration": 1861, "velocity": 80}, {"time": 34079, "pitch": 59, "duration": 1872, "velocity": 80}, {"time": 34800, "pitch": 66, "duration": 402, "velocity": 80}, {"time": 34800, "pitch": 71, "duration": 422, "velocity": 80}, {"time": 34800, "pitch": 74, "duration": 677, "velocity": 80}, {"time": 35280, "pitch": 62, "duration": 467, "velocity": 80}, {"time": 35280, "pitch": 66, "duration": 449, "velocity": 80}, {"time": 35280, "pitch": 69, "duration": 511, "velocity": 80}, {"time": 35761, "pitch": 62, "duration": 175, "velocity": 80}, {"time": 35761, "pitch": 66, "duration": 169, "velocity": 80}, {"time": 36001, "pitch": 54, "duration": 1801, "velocity": 80}, {"time": 36001, "pitch": 57, "duration": 1794, "velocity": 80}, {"time": 36001, "pitch": 61, "duration": 1101, "velocity": 80}, {"time": 36001, "pitch": 64, "duration": 1111, "velocity": 80}, {"time": 37202, "pitch": 61, "duration": 699, "velocity": 80}, {"time": 37202, "pitch": 66, "duration": 766, "velocity": 80}, {"time": 37923, "pitch": 54, "duration": 1580, "velocity": 80}, {"time": 37923, "pitch": 57, "duration": 1572, "velocity": 80}, {"time": 37923, "pitch": 61, "duration": 1588, "velocity": 80}, {"time": 37923, "pitch": 64, "duration": 942, "velocity": 80}, {"time": 39117, "pitch": 64, "duration": 704, "velocity": 80}, {"time": 39117, "pitch": 66, "duration": 607, "velocity": 80}, {"time": 39117, "pitch": 69, "duration": 705, "velocity": 80}, {"time": 39598, "pitch": 54, "duration": 180, "velocity": 80}, {"time": 39598, "pitch": 57, "duration": 187, "velocity": 80}, {"time": 39598, "pitch": 61, "duration": 242, "velocity": 80}, {"time": 39838, "pitch": 55, "duration": 1081, "velocity": 80}, {"time": 39838, "pitch": 59, "duration": 1152, "velocity": 80}, {"time": 39838, "pitch": 62, "duration": 1868, "velocity": 80}, {"time": 39838, "pitch": 66, "duration": 1106, "velocity": 80}, {"time": 41039, "pitch": 55, "duration": 714, "velocity": 80}, {"time": 41039, "pitch": 66, "duration": 704, "velocity": 80}, {"time": 41039, "pitch": 69, "duration": 711, "velocity": 80}, {"time": 41519, "pitch": 59, "duration": 220, "velocity": 80}, {"time": 41759, "pitch": 55, "duration": 1096, "velocity": 80}, {"time": 41759, "pitch": 59, "duration": 1154, "velocity": 80}, {"time": 41759, "pitch": 62, "duration": 1125, "velocity": 80}, {"time": 41759, "pitch": 66, "duration": 1588, "velocity": 80}, {"time": 41759, "pitch": 69, "duration": 1150, "velocity": 80}, {"time": 42961, "pitch": 55, "duration": 617, "velocity": 80}, {"time": 42961, "pitch": 59, "duration": 668, "velocity": 80}, {"time": 42961, "pitch": 62, "duration": 412, "velocity": 80}, {"time": 42961, "pitch": 71, "duration": 468, "velocity": 80}, {"time": 43441, "pitch": 62, "duration": 191, "velocity": 80}, {"time": 43441, "pitch": 66, "duration": 205, "velocity": 80}, {"time": 43441, "pitch": 69, "duration": 238, "velocity": 80}, {"time": 43681, "pitch": 54, "duration": 633, "velocity": 80}, {"time": 43681, "pitch": 57, "duration": 666, "velocity": 80}, {"time": 43681, "pitch": 61, "duration": 685, "velocity": 80}, {"time": 43681, "pitch": 64, "duration": 655, "velocity": 80}, {"time": 44402, "pitch": 54, "duration": 1072, "velocity": 80}, {"time": 44402, "pitch": 57, "duration": 1123, "velocity": 80}, {"time": 44402, "pitch": 61, "duration": 1119, "velocity": 80}, {"time": 44402, "pitch": 64, "duration": 1110, "velocity": 80}, {"time": 44402, "pitch": 66, "duration": 863, "velocity": 80}, {"time": 45363, "pitch": 66, "duration": 315, "velocity": 80}, {"time": 45363, "pitch": 69, "duration": 327, "velocity": 80}, {"time": 45603, "pitch": 54, "duration": 1610, "velocity": 80}, {"time": 45603, "pitch": 57, "duration": 1626, "velocity": 80}, {"time": 45603, "pitch": 61, "duration": 1615, "velocity": 80}, {"time": 45603, "pitch": 64, "duration": 1619, "velocity": 80}, {"time": 45840, "pitch": 66, "duration": 418, "velocity": 80}, {"time": 45840, "pitch": 69, "duration": 409, "velocity": 80}, {"time": 45840, "pitch": 73, "duration": 411, "velocity": 80}, {"time": 45840, "pitch": 76, "duration": 408, "velocity": 80}, {"time": 46317, "pitch": 66, "duration": 460, "velocity": 80}, {"time": 46317, "pitch": 69, "duration": 373, "velocity": 80}, {"time": 46317, "pitch": 73, "duration": 356, "velocity": 80}, {"time": 46317, "pitch": 76, "duration": 440, "velocity": 80}, {"time": 46797, "pitch": 66, "duration": 170, "velocity": 80}, {"time": 46797, "pitch": 69, "duration": 175, "velocity": 80}, {"time": 46797, "pitch": 73, "duration": 193, "velocity": 80}, {"time": 47038, "pitch": 66, "duration": 199, "velocity": 80}, {"time": 47038, "pitch": 69, "duration": 214, "velocity": 80}, {"time": 47278, "pitch": 54, "duration": 192, "velocity": 80}, {"time": 47278, "pitch": 57, "duration": 199, "velocity": 80}, {"time": 47278, "pitch": 61, "duration": 230, "velocity": 80}, {"time": 47278, "pitch": 64, "duration": 238, "velocity": 80}, {"time": 47278, "pitch": 66, "duration": 143, "velocity": 80}, {"time": 47278, "pitch": 69, "duration": 168, "velocity": 80}, {"time": 47518, "pitch": 55, "duration": 3844, "velocity": 80}, {"time": 47518, "pitch": 59, "duration": 5759, "velocity": 80}, {"time": 47518, "pitch": 60, "duration": 3844, "velocity": 80}, {"time": 47518, "pitch": 64, "duration": 1922, "velocity": 80}, {"time": 48239, "pitch": 67, "duration": 1114, "velocity": 80}, {"time": 48239, "pitch": 71, "duration": 1130, "velocity": 80}, {"time": 48239, "pitch": 72, "duration": 1136, "velocity": 80}, {"time": 48239, "pitch": 76, "duration": 1150, "velocity": 80}, {"time": 49440, "pitch": 64, "duration": 1924, "velocity": 80}, {"time": 49440, "pitch": 67, "duration": 1128, "velocity": 80}, {"time": 49440, "pitch": 71, "duration": 1102, "velocity": 80}, {"time": 49440, "pitch": 72, "duration": 1066, "velocity": 80}, {"time": 49440, "pitch": 76, "duration": 1068, "velocity": 80}, {"time": 49440, "pitch": 79, "duration": 1043, "velocity": 80}, {"time": 50641, "pitch": 67, "duration": 477, "velocity": 80}, {"time": 50641, "pitch": 71, "duration": 470, "velocity": 80}, {"time": 50641, "pitch": 72, "duration": 473, "velocity": 80}, {"time": 50641, "pitch": 76, "duration": 477, "velocity": 80}, {"time": 51121, "pitch": 67, "duration": 198, "velocity": 80}, {"time": 51121, "pitch": 71, "duration": 186, "velocity": 80}, {"time": 51121, "pitch": 72, "duration": 200, "velocity": 80}, {"time": 51121, "pitch": 76, "duration": 201, "velocity": 80}, {"time": 51362, "pitch": 57, "duration": 1859, "velocity": 80}, {"time": 51362, "pitch": 62, "duration": 1855, "velocity": 80}, {"time": 51362, "pitch": 66, "duration": 1845, "velocity": 80}, {"time": 51362, "pitch": 69, "duration": 859, "velocity": 80}, {"time": 51362, "pitch": 71, "duration": 850, "velocity": 80}, {"time": 51362, "pitch": 74, "duration": 875, "velocity": 80}, {"time": 52322, "pitch": 69, "duration": 903, "velocity": 80}, {"time": 52322, "pitch": 71, "duration": 911, "velocity": 80}, {"time": 52322, "pitch": 74, "duration": 914, "velocity": 80}, {"time": 52322, "pitch": 78, "duration": 928, "velocity": 80}, {"time": 53277, "pitch": 57, "duration": 1666, "velocity": 80}, {"time": 53277, "pitch": 59, "duration": 1680, "velocity": 80}, {"time": 53277, "pitch": 62, "duration": 1670, "velocity": 80}, {"time": 53277, "pitch": 66, "duration": 1805, "velocity": 80}, {"time": 53277, "pitch": 71, "duration": 1848, "velocity": 80}, {"time": 53277, "pitch": 74, "duration": 1144, "velocity": 80}, {"time": 53277, "pitch": 78, "duration": 1161, "velocity": 80}, {"time": 53277, "pitch": 81, "duration": 1213, "velocity": 80}, {"time": 54478, "pitch": 76, "duration": 263, "velocity": 80}, {"time": 54478, "pitch": 80, "duration": 266, "velocity": 80}, {"time": 54718, "pitch": 78, "duration": 152, "velocity": 80}, {"time": 54718, "pitch": 81, "duration": 162, "velocity": 80}, {"time": 54958, "pitch": 80, "duration": 195, "velocity": 80}, {"time": 54958, "pitch": 83, "duration": 199, "velocity": 80}, {"time": 55198, "pitch": 60, "duration": 1792, "velocity": 80}, {"time": 55198, "pitch": 64, "duration": 1812, "velocity": 80}, {"time": 55198, "pitch": 67, "duration": 1849, "velocity": 80}, {"time": 55198, "pitch": 71, "duration": 1106, "velocity": 80}, {"time": 55198, "pitch": 76, "duration": 1088, "velocity": 80}, {"time": 55198, "pitch": 79, "duration": 1099, "velocity": 80}, {"time": 55198, "pitch": 83, "duration": 1065, "velocity": 80}, {"time": 56400, "pitch": 71, "duration": 454, "velocity": 80}, {"time": 56400, "pitch": 72, "duration": 448, "velocity": 80}, {"time": 56400, "pitch": 76, "duration": 444, "velocity": 80}, {"time": 56400, "pitch": 79, "duration": 428, "velocity": 80}, {"time": 56880, "pitch": 71, "duration": 163, "velocity": 80}, {"time": 56880, "pitch": 72, "duration": 164, "velocity": 80}, {"time": 56880, "pitch": 76, "duration": 162, "velocity": 80}, {"time": 57120, "pitch": 60, "duration": 1171, "velocity": 80}, {"time": 57120, "pitch": 64, "duration": 1174, "velocity": 80}, {"time": 57120, "pitch": 67, "duration": 1170, "velocity": 80}, {"time": 57120, "pitch": 71, "duration": 1167, "velocity": 80}, {"time": 57120, "pitch": 72, "duration": 1180, "velocity": 80}, {"time": 57120, "pitch": 76, "duration": 1198, "velocity": 80}, {"time": 58321, "pitch": 60, "duration": 675, "velocity": 80}, {"time": 58321, "pitch": 64, "duration": 645, "velocity": 80}, {"time": 58321, "pitch": 67, "duration": 667, "velocity": 80}, {"time": 58321, "pitch": 71, "duration": 674, "velocity": 80}, {"time": 59042, "pitch": 59, "duration": 1872, "velocity": 80}, {"time": 59042, "pitch": 62, "duration": 1869, "velocity": 80}, {"time": 59042, "pitch": 66, "duration": 1874, "velocity": 80}, {"time": 59042, "pitch": 69, "duration": 1176, "velocity": 80}, {"time": 60243, "pitch": 69, "duration": 425, "velocity": 80}, {"time": 60243, "pitch": 71, "duration": 420, "velocity": 80}, {"time": 60243, "pitch": 74, "duration": 420, "velocity": 80}, {"time": 60243, "pitch": 78, "duration": 436, "velocity": 80}, {"time": 60720, "pitch": 69, "duration": 175, "velocity": 80}, {"time": 60720, "pitch": 71, "duration": 183, "velocity": 80}, {"time": 60720, "pitch": 74, "duration": 188, "velocity": 80}, {"time": 60957, "pitch": 59, "duration": 1821, "velocity": 80}, {"time": 60957, "pitch": 62, "duration": 1808, "velocity": 80}, {"time": 60957, "pitch": 66, "duration": 1792, "velocity": 80}, {"time": 60957, "pitch": 71, "duration": 1163, "velocity": 80}, {"time": 60957, "pitch": 74, "duration": 1141, "velocity": 80}, {"time": 60957, "pitch": 78, "duration": 1143, "velocity": 80}, {"time": 60957, "pitch": 81, "duration": 1125, "velocity": 80}, {"time": 62158, "pitch": 69, "duration": 541, "velocity": 80}, {"time": 62158, "pitch": 71, "duration": 567, "velocity": 80}, {"time": 62158, "pitch": 74, "duration": 565, "velocity": 80}, {"time": 62158, "pitch": 78, "duration": 567, "velocity": 80}, {"time": 62879, "pitch": 57, "duration": 3682, "velocity": 72}, {"time": 62879, "pitch": 60, "duration": 3688, "velocity": 76}, {"time": 62879, "pitch": 64, "duration": 3685, "velocity": 90}, {"time": 62879, "pitch": 67, "duration": 3677, "velocity": 85}, {"time": 63599, "pitch": 72, "duration": 974, "velocity": 76}, {"time": 63599, "pitch": 76, "duration": 1040, "velocity": 87}, {"time": 63760, "pitch": 84, "duration": 932, "velocity": 98}, {"time": 64320, "pitch": 79, "duration": 327, "velocity": 74}, {"time": 64801, "pitch": 79, "duration": 1674, "velocity": 85}, {"time": 64831, "pitch": 84, "duration": 1686, "velocity": 87}, {"time": 64861, "pitch": 88, "duration": 1641, "velocity": 83}, {"time": 66722, "pitch": 45, "duration": 257, "velocity": 98}, {"time": 66722, "pitch": 57, "duration": 175, "velocity": 104}, {"time": 66722, "pitch": 60, "duration": 179, "velocity": 114}, {"time": 66722, "pitch": 64, "duration": 178, "velocity": 112}, {"time": 66722, "pitch": 67, "duration": 191, "velocity": 95}, {"time": 66962, "pitch": 47, "duration": 240, "velocity": 75}, {"time": 66962, "pitch": 59, "duration": 177, "velocity": 79}, {"time": 66962, "pitch": 62, "duration": 179, "velocity": 111}, {"time": 66962, "pitch": 66, "duration": 186, "velocity": 108}, {"time": 66962, "pitch": 69, "duration": 180, "velocity": 93}, {"time": 67203, "pitch": 48, "duration": 93, "velocity": 98}, {"time": 67203, "pitch": 60, "duration": 68, "velocity": 85}, {"time": 67203, "pitch": 64, "duration": 55, "velocity": 112}, {"time": 67203, "pitch": 67, "duration": 55, "velocity": 114}, {"time": 67203, "pitch": 71, "duration": 59, "velocity": 95}, {"time": 67920, "pitch": 50, "duration": 2116, "velocity": 95}, {"time": 67920, "pitch": 57, "duration": 2020, "velocity": 95}, {"time": 67920, "pitch": 60, "duration": 2018, "velocity": 114}, {"time": 67920, "pitch": 64, "duration": 2024, "velocity": 111}, {"time": 67920, "pitch": 67, "duration": 2010, "velocity": 93}, {"time": 70079, "pitch": 49, "duration": 480, "velocity": 86}, {"time": 70079, "pitch": 56, "duration": 480, "velocity": 83}, {"time": 70079, "pitch": 59, "duration": 480, "velocity": 90}, {"time": 70079, "pitch": 61, "duration": 480, "velocity": 93}, {"time": 70079, "pitch": 67, "duration": 480, "velocity": 108}, {"time": 70559, "pitch": 55, "duration": 1598, "velocity": 80}, {"time": 70559, "pitch": 59, "duration": 1598, "velocity": 80}, {"time": 70559, "pitch": 62, "duration": 1598, "velocity": 80}, {"time": 70559, "pitch": 66, "duration": 1598, "velocity": 80}, {"time": 72241, "pitch": 62, "duration": 989, "velocity": 80}, {"time": 72241, "pitch": 66, "duration": 925, "velocity": 80}, {"time": 72241, "pitch": 69, "duration": 926, "velocity": 80}, {"time": 72481, "pitch": 55, "duration": 1861, "velocity": 80}, {"time": 72481, "pitch": 59, "duration": 1872, "velocity": 80}, {"time": 73202, "pitch": 66, "duration": 402, "velocity": 80}, {"time": 73202, "pitch": 71, "duration": 422, "velocity": 80}, {"time": 73202, "pitch": 74, "duration": 677, "velocity": 80}, {"time": 73682, "pitch": 62, "duration": 466, "velocity": 80}, {"time": 73682, "pitch": 66, "duration": 448, "velocity": 80}, {"time": 73682, "pitch": 69, "duration": 510, "velocity": 80}, {"time": 74162, "pitch": 62, "duration": 176, "velocity": 80}, {"time": 74162, "pitch": 66, "duration": 170, "velocity": 80}, {"time": 74403, "pitch": 54, "duration": 1795, "velocity": 80}, {"time": 74403, "pitch": 57, "duration": 1788, "velocity": 80}, {"time": 74403, "pitch": 61, "duration": 1094, "velocity": 80}, {"time": 74403, "pitch": 64, "duration": 1104, "velocity": 80}, {"time": 75597, "pitch": 61, "duration": 699, "velocity": 80}, {"time": 75597, "pitch": 66, "duration": 766, "velocity": 80}, {"time": 76318, "pitch": 54, "duration": 1587, "velocity": 80}, {"time": 76318, "pitch": 57, "duration": 1579, "velocity": 80}, {"time": 76318, "pitch": 61, "duration": 1595, "velocity": 80}, {"time": 76318, "pitch": 64, "duration": 949, "velocity": 80}, {"time": 77519, "pitch": 64, "duration": 703, "velocity": 80}, {"time": 77519, "pitch": 66, "duration": 606, "velocity": 80}, {"time": 77519, "pitch": 69, "duration": 704, "velocity": 80}, {"time": 77999, "pitch": 54, "duration": 180, "velocity": 80}, {"time": 77999, "pitch": 57, "duration": 187, "velocity": 80}, {"time": 77999, "pitch": 61, "duration": 243, "velocity": 80}, {"time": 78239, "pitch": 55, "duration": 1081, "velocity": 80}, {"time": 78239, "pitch": 59, "duration": 1153, "velocity": 80}, {"time": 78239, "pitch": 62, "duration": 1869, "velocity": 80}, {"time": 78239, "pitch": 66, "duration": 1106, "velocity": 80}, {"time": 79441, "pitch": 55, "duration": 714, "velocity": 80}, {"time": 79441, "pitch": 66, "duration": 704, "velocity": 80}, {"time": 79441, "pitch": 69, "duration": 711, "velocity": 80}, {"time": 79921, "pitch": 59, "duration": 220, "velocity": 80}, {"time": 80161, "pitch": 55, "duration": 1096, "velocity": 80}, {"time": 80161, "pitch": 59, "duration": 1153, "velocity": 80}, {"time": 80161, "pitch": 62, "duration": 1125, "velocity": 80}, {"time": 80161, "pitch": 66, "duration": 1588, "velocity": 80}, {"time": 80161, "pitch": 69, "duration": 1149, "velocity": 80}, {"time": 81362, "pitch": 55, "duration": 618, "velocity": 80}, {"time": 81362, "pitch": 59, "duration": 669, "velocity": 80}, {"time": 81362, "pitch": 62, "duration": 413, "velocity": 80}, {"time": 81362, "pitch": 71, "duration": 469, "velocity": 80}, {"time": 81843, "pitch": 62, "duration": 191, "velocity": 80}, {"time": 81843, "pitch": 66, "duration": 205, "velocity": 80}, {"time": 81843, "pitch": 69, "duration": 238, "velocity": 80}, {"time": 82083, "pitch": 54, "duration": 626, "velocity": 80}, {"time": 82083, "pitch": 57, "duration": 659, "velocity": 80}, {"time": 82083, "pitch": 61, "duration": 678, "velocity": 80}, {"time": 82083, "pitch": 64, "duration": 648, "velocity": 80}, {"time": 82797, "pitch": 54, "duration": 1072, "velocity": 80}, {"time": 82797, "pitch": 57, "duration": 1123, "velocity": 80}, {"time": 82797, "pitch": 61, "duration": 1119, "velocity": 80}, {"time": 82797, "pitch": 64, "duration": 1110, "velocity": 80}, {"time": 82797, "pitch": 66, "duration": 863, "velocity": 80}, {"time": 83758, "pitch": 66, "duration": 316, "velocity": 80}, {"time": 83758, "pitch": 69, "duration": 328, "velocity": 80}, {"time": 83998, "pitch": 54, "duration": 1617, "velocity": 80}, {"time": 83998, "pitch": 57, "duration": 1633, "velocity": 80}, {"time": 83998, "pitch": 61, "duration": 1622, "velocity": 80}, {"time": 83998, "pitch": 64, "duration": 1626, "velocity": 80}, {"time": 84238, "pitch": 66, "duration": 422, "velocity": 80}, {"time": 84238, "pitch": 69, "duration": 413, "velocity": 80}, {"time": 84238, "pitch": 73, "duration": 415, "velocity": 80}, {"time": 84238, "pitch": 76, "duration": 412, "velocity": 80}, {"time": 84719, "pitch": 66, "duration": 460, "velocity": 80}, {"time": 84719, "pitch": 69, "duration": 373, "velocity": 80}, {"time": 84719, "pitch": 73, "duration": 356, "velocity": 80}, {"time": 84719, "pitch": 76, "duration": 440, "velocity": 80}, {"time": 85199, "pitch": 66, "duration": 169, "velocity": 80}, {"time": 85199, "pitch": 69, "duration": 174, "velocity": 80}, {"time": 85199, "pitch": 73, "duration": 192, "velocity": 80}, {"time": 85439, "pitch": 66, "duration": 200, "velocity": 80}, {"time": 85439, "pitch": 69, "duration": 215, "velocity": 80}, {"time": 85680, "pitch": 54, "duration": 192, "velocity": 80}, {"time": 85680, "pitch": 57, "duration": 199, "velocity": 80}, {"time": 85680, "pitch": 61, "duration": 230, "velocity": 80}, {"time": 85680, "pitch": 64, "duration": 238, "velocity": 80}, {"time": 85680, "pitch": 66, "duration": 143, "velocity": 80}, {"time": 85680, "pitch": 69, "duration": 168, "velocity": 80}, {"time": 85920, "pitch": 55, "duration": 1597, "velocity": 80}, {"time": 85920, "pitch": 59, "duration": 1597, "velocity": 80}, {"time": 85920, "pitch": 62, "duration": 1597, "velocity": 80}, {"time": 85920, "pitch": 66, "duration": 1597, "velocity": 80}, {"time": 87601, "pitch": 62, "duration": 989, "velocity": 80}, {"time": 87601, "pitch": 66, "duration": 926, "velocity": 80}, {"time": 87601, "pitch": 69, "duration": 927, "velocity": 80}, {"time": 87842, "pitch": 55, "duration": 1855, "velocity": 80}, {"time": 87842, "pitch": 59, "duration": 1865, "velocity": 80}, {"time": 88562, "pitch": 66, "duration": 403, "velocity": 80}, {"time": 88562, "pitch": 71, "duration": 423, "velocity": 80}, {"time": 88562, "pitch": 74, "duration": 678, "velocity": 80}, {"time": 89043, "pitch": 62, "duration": 463, "velocity": 80}, {"time": 89043, "pitch": 66, "duration": 445, "velocity": 80}, {"time": 89043, "pitch": 69, "duration": 506, "velocity": 80}, {"time": 89520, "pitch": 62, "duration": 173, "velocity": 80}, {"time": 89520, "pitch": 66, "duration": 167, "velocity": 80}, {"time": 89757, "pitch": 54, "duration": 1801, "velocity": 80}, {"time": 89757, "pitch": 57, "duration": 1794, "velocity": 80}, {"time": 89757, "pitch": 61, "duration": 1101, "velocity": 80}, {"time": 89757, "pitch": 64, "duration": 1111, "velocity": 80}, {"time": 90958, "pitch": 61, "duration": 698, "velocity": 80}, {"time": 90958, "pitch": 66, "duration": 766, "velocity": 80}, {"time": 91678, "pitch": 54, "duration": 1588, "velocity": 80}, {"time": 91678, "pitch": 57, "duration": 1580, "velocity": 80}, {"time": 91678, "pitch": 61, "duration": 1596, "velocity": 80}, {"time": 91678, "pitch": 64, "duration": 949, "velocity": 80}, {"time": 92880, "pitch": 64, "duration": 703, "velocity": 80}, {"time": 92880, "pitch": 66, "duration": 606, "velocity": 80}, {"time": 92880, "pitch": 69, "duration": 704, "velocity": 80}, {"time": 93360, "pitch": 54, "duration": 180, "velocity": 80}, {"time": 93360, "pitch": 57, "duration": 187, "velocity": 80}, {"time": 93360, "pitch": 61, "duration": 242, "velocity": 80}, {"time": 93600, "pitch": 55, "duration": 1081, "velocity": 80}, {"time": 93600, "pitch": 59, "duration": 1152, "velocity": 80}, {"time": 93600, "pitch": 62, "duration": 1869, "velocity": 80}, {"time": 93600, "pitch": 66, "duration": 1106, "velocity": 80}, {"time": 94801, "pitch": 55, "duration": 715, "velocity": 80}, {"time": 94801, "pitch": 66, "duration": 705, "velocity": 80}, {"time": 94801, "pitch": 69, "duration": 712, "velocity": 80}, {"time": 95282, "pitch": 59, "duration": 220, "velocity": 80}, {"time": 95522, "pitch": 55, "duration": 1096, "velocity": 80}, {"time": 95522, "pitch": 59, "duration": 1153, "velocity": 80}, {"time": 95522, "pitch": 62, "duration": 1125, "velocity": 80}, {"time": 95522, "pitch": 66, "duration": 1585, "velocity": 80}, {"time": 95522, "pitch": 69, "duration": 1149, "velocity": 80}, {"time": 96723, "pitch": 55, "duration": 612, "velocity": 80}, {"time": 96723, "pitch": 59, "duration": 663, "velocity": 80}, {"time": 96723, "pitch": 62, "duration": 410, "velocity": 80}, {"time": 96723, "pitch": 71, "duration": 465, "velocity": 80}, {"time": 97200, "pitch": 62, "duration": 189, "velocity": 80}, {"time": 97200, "pitch": 66, "duration": 203, "velocity": 80}, {"time": 97200, "pitch": 69, "duration": 235, "velocity": 80}, {"time": 97437, "pitch": 54, "duration": 633, "velocity": 80}, {"time": 97437, "pitch": 57, "duration": 666, "velocity": 80}, {"time": 97437, "pitch": 61, "duration": 685, "velocity": 80}, {"time": 97437, "pitch": 64, "duration": 655, "velocity": 80}, {"time": 98158, "pitch": 54, "duration": 1072, "velocity": 80}, {"time": 98158, "pitch": 57, "duration": 1123, "velocity": 80}, {"time": 98158, "pitch": 61, "duration": 1119, "velocity": 80}, {"time": 98158, "pitch": 64, "duration": 1110, "velocity": 80}, {"time": 98158, "pitch": 66, "duration": 863, "velocity": 80}, {"time": 99119, "pitch": 66, "duration": 316, "velocity": 80}, {"time": 99119, "pitch": 69, "duration": 328, "velocity": 80}, {"time": 99359, "pitch": 54, "duration": 1616, "velocity": 80}, {"time": 99359, "pitch": 57, "duration": 1632, "velocity": 80}, {"time": 99359, "pitch": 61, "duration": 1621, "velocity": 80}, {"time": 99359, "pitch": 64, "duration": 1625, "velocity": 80}, {"time": 99599, "pitch": 66, "duration": 421, "velocity": 80}, {"time": 99599, "pitch": 69, "duration": 412, "velocity": 80}, {"time": 99599, "pitch": 73, "duration": 414, "velocity": 80}, {"time": 99599, "pitch": 76, "duration": 411, "velocity": 80}, {"time": 100079, "pitch": 66, "duration": 461, "velocity": 80}, {"time": 100079, "pitch": 69, "duration": 374, "velocity": 80}, {"time": 100079, "pitch": 73, "duration": 357, "velocity": 80}, {"time": 100079, "pitch": 76, "duration": 441, "velocity": 80}, {"time": 100560, "pitch": 66, "duration": 169, "velocity": 80}, {"time": 100560, "pitch": 69, "duration": 174, "velocity": 80}, {"time": 100560, "pitch": 73, "duration": 192, "velocity": 80}, {"time": 100800, "pitch": 66, "duration": 199, "velocity": 80}, {"time": 100800, "pitch": 69, "duration": 214, "velocity": 80}, {"time": 101040, "pitch": 54, "duration": 192, "velocity": 80}, {"time": 101040, "pitch": 57, "duration": 199, "velocity": 80}, {"time": 101040, "pitch": 61, "duration": 231, "velocity": 80}, {"time": 101040, "pitch": 64, "duration": 239, "velocity": 80}, {"time": 101040, "pitch": 66, "duration": 143, "velocity": 80}, {"time": 101040, "pitch": 69, "duration": 168, "velocity": 80}, {"time": 101281, "pitch": 55, "duration": 1597, "velocity": 80}, {"time": 101281, "pitch": 59, "duration": 1597, "velocity": 80}, {"time": 101281, "pitch": 62, "duration": 1597, "velocity": 80}, {"time": 101281, "pitch": 66, "duration": 1597, "velocity": 80}, {"time": 102962, "pitch": 62, "duration": 989, "velocity": 80}, {"time": 102962, "pitch": 66, "duration": 926, "velocity": 80}, {"time": 102962, "pitch": 69, "duration": 927, "velocity": 80}, {"time": 103202, "pitch": 55, "duration": 1854, "velocity": 80}, {"time": 103202, "pitch": 59, "duration": 1865, "velocity": 80}, {"time": 103923, "pitch": 66, "duration": 400, "velocity": 80}, {"time": 103923, "pitch": 71, "duration": 420, "velocity": 80}, {"time": 103923, "pitch": 74, "duration": 672, "velocity": 80}, {"time": 104400, "pitch": 62, "duration": 463, "velocity": 80}, {"time": 104400, "pitch": 66, "duration": 445, "velocity": 80}, {"time": 104400, "pitch": 69, "duration": 507, "velocity": 80}, {"time": 104877, "pitch": 62, "duration": 175, "velocity": 80}, {"time": 104877, "pitch": 66, "duration": 169, "velocity": 80}, {"time": 105117, "pitch": 54, "duration": 1802, "velocity": 80}, {"time": 105117, "pitch": 57, "duration": 1795, "velocity": 80}, {"time": 105117, "pitch": 61, "duration": 1101, "velocity": 80}, {"time": 105117, "pitch": 64, "duration": 1111, "velocity": 80}, {"time": 106319, "pitch": 61, "duration": 698, "velocity": 80}, {"time": 106319, "pitch": 66, "duration": 765, "velocity": 80}, {"time": 107039, "pitch": 54, "duration": 1588, "velocity": 80}, {"time": 107039, "pitch": 57, "duration": 1580, "velocity": 80}, {"time": 107039, "pitch": 61, "duration": 1596, "velocity": 80}, {"time": 107039, "pitch": 64, "duration": 949, "velocity": 80}, {"time": 108240, "pitch": 64, "duration": 704, "velocity": 80}, {"time": 108240, "pitch": 66, "duration": 607, "velocity": 80}, {"time": 108240, "pitch": 69, "duration": 705, "velocity": 80}, {"time": 108721, "pitch": 54, "duration": 180, "velocity": 80}, {"time": 108721, "pitch": 57, "duration": 187, "velocity": 80}, {"time": 108721, "pitch": 61, "duration": 242, "velocity": 80}, {"time": 108961, "pitch": 55, "duration": 1081, "velocity": 80}, {"time": 108961, "pitch": 59, "duration": 1152, "velocity": 80}, {"time": 108961, "pitch": 62, "duration": 1869, "velocity": 80}, {"time": 108961, "pitch": 66, "duration": 1106, "velocity": 80}, {"time": 110162, "pitch": 55, "duration": 715, "velocity": 80}, {"time": 110162, "pitch": 66, "duration": 705, "velocity": 80}, {"time": 110162, "pitch": 69, "duration": 712, "velocity": 80}, {"time": 110642, "pitch": 59, "duration": 221, "velocity": 80}, {"time": 110883, "pitch": 55, "duration": 1089, "velocity": 80}, {"time": 110883, "pitch": 59, "duration": 1146, "velocity": 80}, {"time": 110883, "pitch": 62, "duration": 1118, "velocity": 80}, {"time": 110883, "pitch": 66, "duration": 1580, "velocity": 80}, {"time": 110883, "pitch": 69, "duration": 1142, "velocity": 80}, {"time": 112077, "pitch": 55, "duration": 618, "velocity": 80}, {"time": 112077, "pitch": 59, "duration": 669, "velocity": 80}, {"time": 112077, "pitch": 62, "duration": 413, "velocity": 80}, {"time": 112077, "pitch": 71, "duration": 469, "velocity": 80}, {"time": 112558, "pitch": 62, "duration": 191, "velocity": 80}, {"time": 112558, "pitch": 66, "duration": 205, "velocity": 80}, {"time": 112558, "pitch": 69, "duration": 238, "velocity": 80}, {"time": 112798, "pitch": 54, "duration": 632, "velocity": 80}, {"time": 112798, "pitch": 57, "duration": 665, "velocity": 80}, {"time": 112798, "pitch": 61, "duration": 684, "velocity": 80}, {"time": 112798, "pitch": 64, "duration": 654, "velocity": 80}, {"time": 113518, "pitch": 54, "duration": 1072, "velocity": 80}, {"time": 113518, "pitch": 57, "duration": 1123, "velocity": 80}, {"time": 113518, "pitch": 61, "duration": 1119, "velocity": 80}, {"time": 113518, "pitch": 64, "duration": 1110, "velocity": 80}, {"time": 113518, "pitch": 66, "duration": 863, "velocity": 80}, {"time": 114479, "pitch": 66, "duration": 317, "velocity": 80}, {"time": 114479, "pitch": 69, "duration": 329, "velocity": 80}, {"time": 114720, "pitch": 54, "duration": 1616, "velocity": 80}, {"time": 114720, "pitch": 57, "duration": 1632, "velocity": 80}, {"time": 114720, "pitch": 61, "duration": 1621, "velocity": 80}, {"time": 114720, "pitch": 64, "duration": 1625, "velocity": 80}, {"time": 114960, "pitch": 66, "duration": 421, "velocity": 80}, {"time": 114960, "pitch": 69, "duration": 412, "velocity": 80}, {"time": 114960, "pitch": 73, "duration": 414, "velocity": 80}, {"time": 114960, "pitch": 76, "duration": 411, "velocity": 80}, {"time": 115440, "pitch": 66, "duration": 461, "velocity": 80}, {"time": 115440, "pitch": 69, "duration": 373, "velocity": 80}, {"time": 115440, "pitch": 73, "duration": 356, "velocity": 80}, {"time": 115440, "pitch": 76, "duration": 441, "velocity": 80}, {"time": 115921, "pitch": 66, "duration": 169, "velocity": 80}, {"time": 115921, "pitch": 69, "duration": 174, "velocity": 80}, {"time": 115921, "pitch": 73, "duration": 192, "velocity": 80}, {"time": 116161, "pitch": 66, "duration": 199, "velocity": 80}, {"time": 116161, "pitch": 69, "duration": 214, "velocity": 80}, {"time": 116401, "pitch": 54, "duration": 192, "velocity": 80}, {"time": 116401, "pitch": 57, "duration": 199, "velocity": 80}, {"time": 116401, "pitch": 61, "duration": 230, "velocity": 80}, {"time": 116401, "pitch": 64, "duration": 238, "velocity": 80}, {"time": 116401, "pitch": 66, "duration": 143, "velocity": 80}, {"time": 116401, "pitch": 69, "duration": 168, "velocity": 80}, {"time": 116641, "pitch": 55, "duration": 2113, "velocity": 52}, {"time": 116650, "pitch": 70, "duration": 2264, "velocity": 63}, {"time": 116654, "pitch": 58, "duration": 2070, "velocity": 57}, {"time": 116668, "pitch": 62, "duration": 2018, "velocity": 75}, {"time": 116680, "pitch": 74, "duration": 2237, "velocity": 74}, {"time": 116688, "pitch": 67, "duration": 2001, "velocity": 65}, {"time": 116691, "pitch": 81, "duration": 2191, "velocity": 87}, {"time": 118959, "pitch": 50, "duration": 1749, "velocity": 58}, {"time": 119000, "pitch": 54, "duration": 1743, "velocity": 72}, {"time": 119005, "pitch": 69, "duration": 1643, "velocity": 65}, {"time": 119043, "pitch": 73, "duration": 1617, "velocity": 63}, {"time": 119049, "pitch": 57, "duration": 1657, "velocity": 76}, {"time": 119068, "pitch": 76, "duration": 1581, "velocity": 59}, {"time": 119079, "pitch": 62, "duration": 1634, "velocity": 59}, {"time": 119260, "pitch": 78, "duration": 1412, "velocity": 63}, {"time": 119519, "pitch": 81, "duration": 1138, "velocity": 67}, {"time": 1443, "pitch": 31, "duration": 171, "velocity": 104}, {"time": 1683, "pitch": 31, "duration": 233, "velocity": 98}, {"time": 2160, "pitch": 38, "duration": 158, "velocity": 75}, {"time": 2318, "pitch": 40, "duration": 79, "velocity": 64}, {"time": 2397, "pitch": 38, "duration": 200, "velocity": 89}, {"time": 2637, "pitch": 31, "duration": 437, "velocity": 80}, {"time": 3358, "pitch": 31, "duration": 171, "velocity": 90}, {"time": 3598, "pitch": 31, "duration": 211, "velocity": 100}, {"time": 4078, "pitch": 38, "duration": 161, "velocity": 79}, {"time": 4239, "pitch": 40, "duration": 80, "velocity": 72}, {"time": 4319, "pitch": 43, "duration": 240, "velocity": 100}, {"time": 4559, "pitch": 45, "duration": 220, "velocity": 92}, {"time": 4799, "pitch": 43, "duration": 234, "velocity": 87}, {"time": 5039, "pitch": 38, "duration": 165, "velocity": 85}, {"time": 5279, "pitch": 26, "duration": 146, "velocity": 98}, {"time": 5520, "pitch": 26, "duration": 320, "velocity": 100}, {"time": 6000, "pitch": 38, "duration": 160, "velocity": 92}, {"time": 6160, "pitch": 40, "duration": 80, "velocity": 75}, {"time": 6240, "pitch": 38, "duration": 321, "velocity": 111}, {"time": 6881, "pitch": 31, "duration": 80, "velocity": 75}, {"time": 6961, "pitch": 33, "duration": 151, "velocity": 64}, {"time": 7201, "pitch": 26, "duration": 167, "velocity": 111}, {"time": 7441, "pitch": 26, "duration": 235, "velocity": 108}, {"time": 7922, "pitch": 38, "duration": 158, "velocity": 100}, {"time": 8082, "pitch": 40, "duration": 72, "velocity": 70}, {"time": 8162, "pitch": 38, "duration": 200, "velocity": 87}, {"time": 8402, "pitch": 31, "duration": 230, "velocity": 95}, {"time": 8642, "pitch": 33, "duration": 218, "velocity": 111}, {"time": 8883, "pitch": 26, "duration": 189, "velocity": 100}, {"time": 9123, "pitch": 31, "duration": 169, "velocity": 104}, {"time": 9360, "pitch": 31, "duration": 230, "velocity": 98}, {"time": 9837, "pitch": 38, "duration": 160, "velocity": 75}, {"time": 9997, "pitch": 40, "duration": 80, "velocity": 64}, {"time": 10077, "pitch": 38, "duration": 200, "velocity": 89}, {"time": 10317, "pitch": 31, "duration": 437, "velocity": 80}, {"time": 11038, "pitch": 31, "duration": 171, "velocity": 90}, {"time": 11278, "pitch": 31, "duration": 212, "velocity": 100}, {"time": 11759, "pitch": 38, "duration": 160, "velocity": 79}, {"time": 11919, "pitch": 40, "duration": 80, "velocity": 72}, {"time": 11999, "pitch": 43, "duration": 240, "velocity": 100}, {"time": 12239, "pitch": 45, "duration": 220, "velocity": 92}, {"time": 12479, "pitch": 43, "duration": 235, "velocity": 87}, {"time": 12720, "pitch": 38, "duration": 165, "velocity": 85}, {"time": 12960, "pitch": 26, "duration": 145, "velocity": 98}, {"time": 13200, "pitch": 26, "duration": 320, "velocity": 100}, {"time": 13680, "pitch": 38, "duration": 161, "velocity": 92}, {"time": 13841, "pitch": 40, "duration": 80, "velocity": 75}, {"time": 13921, "pitch": 38, "duration": 320, "velocity": 111}, {"time": 14561, "pitch": 31, "duration": 80, "velocity": 75}, {"time": 14641, "pitch": 33, "duration": 151, "velocity": 64}, {"time": 14882, "pitch": 26, "duration": 167, "velocity": 111}, {"time": 15122, "pitch": 26, "duration": 234, "velocity": 108}, {"time": 15602, "pitch": 38, "duration": 158, "velocity": 100}, {"time": 15762, "pitch": 40, "duration": 72, "velocity": 70}, {"time": 15842, "pitch": 38, "duration": 201, "velocity": 87}, {"time": 16083, "pitch": 31, "duration": 230, "velocity": 95}, {"time": 16323, "pitch": 33, "duration": 214, "velocity": 111}, {"time": 16560, "pitch": 26, "duration": 186, "velocity": 100}, {"time": 16797, "pitch": 31, "duration": 171, "velocity": 104}, {"time": 17037, "pitch": 31, "duration": 233, "velocity": 98}, {"time": 17517, "pitch": 38, "duration": 161, "velocity": 75}, {"time": 17678, "pitch": 40, "duration": 80, "velocity": 64}, {"time": 17758, "pitch": 38, "duration": 200, "velocity": 89}, {"time": 17998, "pitch": 31, "duration": 436, "velocity": 80}, {"time": 18718, "pitch": 31, "duration": 172, "velocity": 90}, {"time": 18959, "pitch": 31, "duration": 211, "velocity": 100}, {"time": 19439, "pitch": 38, "duration": 160, "velocity": 79}, {"time": 19599, "pitch": 40, "duration": 80, "velocity": 72}, {"time": 19679, "pitch": 43, "duration": 241, "velocity": 100}, {"time": 19920, "pitch": 45, "duration": 220, "velocity": 92}, {"time": 20160, "pitch": 43, "duration": 234, "velocity": 87}, {"time": 20400, "pitch": 38, "duration": 165, "velocity": 85}, {"time": 20640, "pitch": 26, "duration": 145, "velocity": 98}, {"time": 20880, "pitch": 26, "duration": 321, "velocity": 100}, {"time": 21361, "pitch": 38, "duration": 160, "velocity": 92}, {"time": 21521, "pitch": 40, "duration": 80, "velocity": 75}, {"time": 21601, "pitch": 38, "duration": 320, "velocity": 111}, {"time": 22242, "pitch": 31, "duration": 80, "velocity": 75}, {"time": 22322, "pitch": 33, "duration": 151, "velocity": 64}, {"time": 22562, "pitch": 26, "duration": 167, "velocity": 111}, {"time": 22802, "pitch": 26, "duration": 234, "velocity": 108}, {"time": 23283, "pitch": 38, "duration": 158, "velocity": 100}, {"time": 23443, "pitch": 40, "duration": 72, "velocity": 70}, {"time": 23523, "pitch": 38, "duration": 200, "velocity": 87}, {"time": 23763, "pitch": 31, "duration": 230, "velocity": 95}, {"time": 24003, "pitch": 33, "duration": 214, "velocity": 111}, {"time": 24240, "pitch": 26, "duration": 187, "velocity": 100}, {"time": 24477, "pitch": 31, "duration": 171, "velocity": 104}, {"time": 24717, "pitch": 31, "duration": 234, "velocity": 98}, {"time": 25198, "pitch": 38, "duration": 160, "velocity": 75}, {"time": 25358, "pitch": 40, "duration": 80, "velocity": 64}, {"time": 25438, "pitch": 38, "duration": 200, "velocity": 89}, {"time": 25678, "pitch": 31, "duration": 437, "velocity": 80}, {"time": 26399, "pitch": 31, "duration": 171, "velocity": 90}, {"time": 26639, "pitch": 31, "duration": 211, "velocity": 100}, {"time": 27119, "pitch": 38, "duration": 161, "velocity": 79}, {"time": 27280, "pitch": 40, "duration": 80, "velocity": 72}, {"time": 27360, "pitch": 43, "duration": 240, "velocity": 100}, {"time": 27600, "pitch": 45, "duration": 220, "velocity": 92}, {"time": 27840, "pitch": 43, "duration": 234, "velocity": 87}, {"time": 28080, "pitch": 38, "duration": 165, "velocity": 85}, {"time": 28321, "pitch": 26, "duration": 145, "velocity": 98}, {"time": 28561, "pitch": 26, "duration": 320, "velocity": 100}, {"time": 29041, "pitch": 38, "duration": 160, "velocity": 92}, {"time": 29201, "pitch": 40, "duration": 80, "velocity": 75}, {"time": 29281, "pitch": 38, "duration": 321, "velocity": 111}, {"time": 29922, "pitch": 31, "duration": 80, "velocity": 75}, {"time": 30002, "pitch": 33, "duration": 151, "velocity": 64}, {"time": 30242, "pitch": 26, "duration": 167, "velocity": 111}, {"time": 30482, "pitch": 26, "duration": 235, "velocity": 108}, {"time": 30963, "pitch": 38, "duration": 158, "velocity": 100}, {"time": 31123, "pitch": 40, "duration": 72, "velocity": 70}, {"time": 31203, "pitch": 38, "duration": 198, "velocity": 87}, {"time": 31440, "pitch": 31, "duration": 227, "velocity": 95}, {"time": 31677, "pitch": 33, "duration": 217, "velocity": 111}, {"time": 31917, "pitch": 26, "duration": 189, "velocity": 100}, {"time": 32157, "pitch": 31, "duration": 172, "velocity": 104}, {"time": 32398, "pitch": 31, "duration": 233, "velocity": 98}, {"time": 32878, "pitch": 38, "duration": 160, "velocity": 75}, {"time": 33038, "pitch": 40, "duration": 80, "velocity": 64}, {"time": 33118, "pitch": 38, "duration": 200, "velocity": 89}, {"time": 33359, "pitch": 31, "duration": 436, "velocity": 80}, {"time": 34079, "pitch": 31, "duration": 171, "velocity": 90}, {"time": 34319, "pitch": 31, "duration": 212, "velocity": 100}, {"time": 34800, "pitch": 38, "duration": 160, "velocity": 79}, {"time": 34960, "pitch": 40, "duration": 80, "velocity": 72}, {"time": 35040, "pitch": 43, "duration": 240, "velocity": 100}, {"time": 35280, "pitch": 45, "duration": 220, "velocity": 92}, {"time": 35520, "pitch": 43, "duration": 235, "velocity": 87}, {"time": 35761, "pitch": 38, "duration": 165, "velocity": 85}, {"time": 36001, "pitch": 26, "duration": 145, "velocity": 98}, {"time": 36241, "pitch": 26, "duration": 320, "velocity": 100}, {"time": 36721, "pitch": 38, "duration": 161, "velocity": 92}, {"time": 36882, "pitch": 40, "duration": 80, "velocity": 75}, {"time": 36962, "pitch": 38, "duration": 320, "velocity": 111}, {"time": 37602, "pitch": 31, "duration": 80, "velocity": 75}, {"time": 37682, "pitch": 33, "duration": 151, "velocity": 64}, {"time": 37923, "pitch": 26, "duration": 167, "velocity": 111}, {"time": 38163, "pitch": 26, "duration": 234, "velocity": 108}, {"time": 38640, "pitch": 38, "duration": 156, "velocity": 100}, {"time": 38798, "pitch": 40, "duration": 71, "velocity": 70}, {"time": 38877, "pitch": 38, "duration": 200, "velocity": 87}, {"time": 39117, "pitch": 31, "duration": 230, "velocity": 95}, {"time": 39357, "pitch": 33, "duration": 218, "velocity": 111}, {"time": 39598, "pitch": 26, "duration": 189, "velocity": 100}, {"time": 39838, "pitch": 31, "duration": 171, "velocity": 104}, {"time": 40078, "pitch": 31, "duration": 233, "velocity": 98}, {"time": 40558, "pitch": 38, "duration": 161, "velocity": 75}, {"time": 40719, "pitch": 40, "duration": 80, "velocity": 64}, {"time": 40799, "pitch": 38, "duration": 200, "velocity": 89}, {"time": 41039, "pitch": 31, "duration": 436, "velocity": 80}, {"time": 41759, "pitch": 31, "duration": 172, "velocity": 90}, {"time": 42000, "pitch": 31, "duration": 211, "velocity": 100}, {"time": 42480, "pitch": 38, "duration": 160, "velocity": 79}, {"time": 42640, "pitch": 40, "duration": 80, "velocity": 72}, {"time": 42720, "pitch": 43, "duration": 241, "velocity": 100}, {"time": 42961, "pitch": 45, "duration": 220, "velocity": 92}, {"time": 43201, "pitch": 43, "duration": 234, "velocity": 87}, {"time": 43441, "pitch": 38, "duration": 165, "velocity": 85}, {"time": 43681, "pitch": 26, "duration": 145, "velocity": 98}, {"time": 43921, "pitch": 26, "duration": 321, "velocity": 100}, {"time": 44402, "pitch": 38, "duration": 160, "velocity": 92}, {"time": 44562, "pitch": 40, "duration": 80, "velocity": 75}, {"time": 44642, "pitch": 38, "duration": 320, "velocity": 111}, {"time": 45283, "pitch": 31, "duration": 80, "velocity": 75}, {"time": 45363, "pitch": 33, "duration": 151, "velocity": 64}, {"time": 45603, "pitch": 26, "duration": 165, "velocity": 111}, {"time": 45840, "pitch": 26, "duration": 231, "velocity": 108}, {"time": 46317, "pitch": 38, "duration": 158, "velocity": 100}, {"time": 46477, "pitch": 40, "duration": 72, "velocity": 70}, {"time": 46557, "pitch": 38, "duration": 200, "velocity": 87}, {"time": 46797, "pitch": 31, "duration": 231, "velocity": 95}, {"time": 47038, "pitch": 33, "duration": 217, "velocity": 111}, {"time": 47278, "pitch": 26, "duration": 189, "velocity": 100}, {"time": 47518, "pitch": 36, "duration": 171, "velocity": 104}, {"time": 47758, "pitch": 36, "duration": 234, "velocity": 98}, {"time": 48239, "pitch": 41, "duration": 160, "velocity": 75}, {"time": 48399, "pitch": 42, "duration": 80, "velocity": 64}, {"time": 48479, "pitch": 43, "duration": 200, "velocity": 89}, {"time": 48719, "pitch": 36, "duration": 437, "velocity": 80}, {"time": 49440, "pitch": 36, "duration": 171, "velocity": 90}, {"time": 49680, "pitch": 36, "duration": 211, "velocity": 100}, {"time": 50160, "pitch": 48, "duration": 161, "velocity": 79}, {"time": 50321, "pitch": 43, "duration": 80, "velocity": 72}, {"time": 50401, "pitch": 43, "duration": 240, "velocity": 100}, {"time": 50641, "pitch": 36, "duration": 220, "velocity": 92}, {"time": 50881, "pitch": 38, "duration": 234, "velocity": 87}, {"time": 51121, "pitch": 40, "duration": 165, "velocity": 85}, {"time": 51362, "pitch": 35, "duration": 145, "velocity": 98}, {"time": 51602, "pitch": 35, "duration": 320, "velocity": 100}, {"time": 52082, "pitch": 42, "duration": 160, "velocity": 92}, {"time": 52242, "pitch": 38, "duration": 80, "velocity": 75}, {"time": 52322, "pitch": 35, "duration": 321, "velocity": 111}, {"time": 52961, "pitch": 42, "duration": 79, "velocity": 75}, {"time": 53040, "pitch": 38, "duration": 149, "velocity": 64}, {"time": 53277, "pitch": 35, "duration": 167, "velocity": 111}, {"time": 53517, "pitch": 35, "duration": 234, "velocity": 108}, {"time": 53997, "pitch": 45, "duration": 159, "velocity": 100}, {"time": 54158, "pitch": 47, "duration": 72, "velocity": 70}, {"time": 54238, "pitch": 42, "duration": 200, "velocity": 87}, {"time": 54478, "pitch": 38, "duration": 230, "velocity": 95}, {"time": 54718, "pitch": 40, "duration": 217, "velocity": 111}, {"time": 54958, "pitch": 35, "duration": 189, "velocity": 100}, {"time": 55198, "pitch": 36, "duration": 172, "velocity": 104}, {"time": 55439, "pitch": 36, "duration": 233, "velocity": 98}, {"time": 55919, "pitch": 41, "duration": 160, "velocity": 75}, {"time": 56079, "pitch": 42, "duration": 80, "velocity": 64}, {"time": 56159, "pitch": 43, "duration": 201, "velocity": 89}, {"time": 56400, "pitch": 36, "duration": 436, "velocity": 80}, {"time": 57120, "pitch": 36, "duration": 171, "velocity": 90}, {"time": 57360, "pitch": 36, "duration": 212, "velocity": 100}, {"time": 57841, "pitch": 48, "duration": 160, "velocity": 79}, {"time": 58001, "pitch": 43, "duration": 80, "velocity": 72}, {"time": 58081, "pitch": 43, "duration": 240, "velocity": 100}, {"time": 58321, "pitch": 36, "duration": 220, "velocity": 92}, {"time": 58561, "pitch": 38, "duration": 235, "velocity": 87}, {"time": 58802, "pitch": 40, "duration": 165, "velocity": 85}, {"time": 59042, "pitch": 35, "duration": 145, "velocity": 98}, {"time": 59282, "pitch": 35, "duration": 320, "velocity": 100}, {"time": 59763, "pitch": 42, "duration": 160, "velocity": 92}, {"time": 59923, "pitch": 38, "duration": 80, "velocity": 75}, {"time": 60003, "pitch": 35, "duration": 320, "velocity": 111}, {"time": 60641, "pitch": 42, "duration": 79, "velocity": 75}, {"time": 60720, "pitch": 38, "duration": 149, "velocity": 64}, {"time": 60957, "pitch": 35, "duration": 167, "velocity": 111}, {"time": 61197, "pitch": 35, "duration": 235, "velocity": 108}, {"time": 61678, "pitch": 45, "duration": 158, "velocity": 100}, {"time": 61838, "pitch": 47, "duration": 72, "velocity": 70}, {"time": 61918, "pitch": 42, "duration": 200, "velocity": 87}, {"time": 62158, "pitch": 38, "duration": 230, "velocity": 95}, {"time": 62398, "pitch": 40, "duration": 218, "velocity": 111}, {"time": 62639, "pitch": 35, "duration": 189, "velocity": 100}, {"time": 62879, "pitch": 33, "duration": 171, "velocity": 104}, {"time": 63119, "pitch": 33, "duration": 233, "velocity": 98}, {"time": 63599, "pitch": 45, "duration": 161, "velocity": 75}, {"time": 63760, "pitch": 40, "duration": 80, "velocity": 64}, {"time": 63840, "pitch": 40, "duration": 200, "velocity": 89}, {"time": 64080, "pitch": 33, "duration": 436, "velocity": 80}, {"time": 64801, "pitch": 36, "duration": 171, "velocity": 90}, {"time": 65041, "pitch": 36, "duration": 211, "velocity": 100}, {"time": 65521, "pitch": 36, "duration": 160, "velocity": 79}, {"time": 65681, "pitch": 33, "duration": 80, "velocity": 72}, {"time": 65761, "pitch": 33, "duration": 241, "velocity": 100}, {"time": 66002, "pitch": 35, "duration": 220, "velocity": 92}, {"time": 66242, "pitch": 36, "duration": 234, "velocity": 87}, {"time": 66482, "pitch": 36, "duration": 165, "velocity": 85}, {"time": 66722, "pitch": 33, "duration": 206, "velocity": 114}, {"time": 66962, "pitch": 35, "duration": 179, "velocity": 122}, {"time": 67203, "pitch": 36, "duration": 171, "velocity": 112}, {"time": 67920, "pitch": 38, "duration": 1997, "velocity": 125}, {"time": 70079, "pitch": 37, "duration": 460, "velocity": 121}, {"time": 70559, "pitch": 31, "duration": 171, "velocity": 104}, {"time": 70799, "pitch": 31, "duration": 234, "velocity": 98}, {"time": 71280, "pitch": 38, "duration": 160, "velocity": 75}, {"time": 71440, "pitch": 40, "duration": 80, "velocity": 64}, {"time": 71520, "pitch": 38, "duration": 200, "velocity": 89}, {"time": 71760, "pitch": 31, "duration": 437, "velocity": 80}, {"time": 72481, "pitch": 31, "duration": 171, "velocity": 90}, {"time": 72721, "pitch": 31, "duration": 211, "velocity": 100}, {"time": 73202, "pitch": 38, "duration": 160, "velocity": 79}, {"time": 73362, "pitch": 40, "duration": 80, "velocity": 72}, {"time": 73442, "pitch": 43, "duration": 240, "velocity": 100}, {"time": 73682, "pitch": 45, "duration": 220, "velocity": 92}, {"time": 73922, "pitch": 43, "duration": 234, "velocity": 87}, {"time": 74162, "pitch": 38, "duration": 166, "velocity": 85}, {"time": 74403, "pitch": 26, "duration": 145, "velocity": 98}, {"time": 74643, "pitch": 26, "duration": 319, "velocity": 100}, {"time": 75120, "pitch": 38, "duration": 158, "velocity": 92}, {"time": 75278, "pitch": 40, "duration": 79, "velocity": 75}, {"time": 75357, "pitch": 38, "duration": 320, "velocity": 111}, {"time": 75998, "pitch": 31, "duration": 80, "velocity": 75}, {"time": 76078, "pitch": 33, "duration": 151, "velocity": 64}, {"time": 76318, "pitch": 26, "duration": 167, "velocity": 111}, {"time": 76558, "pitch": 26, "duration": 234, "velocity": 108}, {"time": 77038, "pitch": 38, "duration": 159, "velocity": 100}, {"time": 77199, "pitch": 40, "duration": 72, "velocity": 70}, {"time": 77279, "pitch": 38, "duration": 200, "velocity": 87}, {"time": 77519, "pitch": 31, "duration": 230, "velocity": 95}, {"time": 77759, "pitch": 33, "duration": 217, "velocity": 111}, {"time": 77999, "pitch": 26, "duration": 189, "velocity": 100}, {"time": 78239, "pitch": 31, "duration": 172, "velocity": 104}, {"time": 78480, "pitch": 31, "duration": 233, "velocity": 98}, {"time": 78960, "pitch": 38, "duration": 160, "velocity": 75}, {"time": 79120, "pitch": 40, "duration": 80, "velocity": 64}, {"time": 79200, "pitch": 38, "duration": 201, "velocity": 89}, {"time": 79441, "pitch": 31, "duration": 436, "velocity": 80}, {"time": 80161, "pitch": 31, "duration": 171, "velocity": 90}, {"time": 80401, "pitch": 31, "duration": 212, "velocity": 100}, {"time": 80882, "pitch": 38, "duration": 160, "velocity": 79}, {"time": 81042, "pitch": 40, "duration": 80, "velocity": 72}, {"time": 81122, "pitch": 43, "duration": 240, "velocity": 100}, {"time": 81362, "pitch": 45, "duration": 220, "velocity": 92}, {"time": 81602, "pitch": 43, "duration": 235, "velocity": 87}, {"time": 81843, "pitch": 38, "duration": 165, "velocity": 85}, {"time": 82083, "pitch": 26, "duration": 143, "velocity": 98}, {"time": 82320, "pitch": 26, "duration": 317, "velocity": 100}, {"time": 82797, "pitch": 38, "duration": 160, "velocity": 92}, {"time": 82957, "pitch": 40, "duration": 80, "velocity": 75}, {"time": 83037, "pitch": 38, "duration": 321, "velocity": 111}, {"time": 83678, "pitch": 31, "duration": 80, "velocity": 75}, {"time": 83758, "pitch": 33, "duration": 151, "velocity": 64}, {"time": 83998, "pitch": 26, "duration": 167, "velocity": 111}, {"time": 84238, "pitch": 26, "duration": 235, "velocity": 108}, {"time": 84719, "pitch": 38, "duration": 158, "velocity": 100}, {"time": 84879, "pitch": 40, "duration": 72, "velocity": 70}, {"time": 84959, "pitch": 38, "duration": 200, "velocity": 87}, {"time": 85199, "pitch": 31, "duration": 230, "velocity": 95}, {"time": 85439, "pitch": 33, "duration": 218, "velocity": 111}, {"time": 85680, "pitch": 26, "duration": 189, "velocity": 100}, {"time": 85920, "pitch": 31, "duration": 171, "velocity": 104}, {"time": 86160, "pitch": 31, "duration": 233, "velocity": 98}, {"time": 86640, "pitch": 38, "duration": 161, "velocity": 75}, {"time": 86801, "pitch": 40, "duration": 80, "velocity": 64}, {"time": 86881, "pitch": 38, "duration": 200, "velocity": 89}, {"time": 87121, "pitch": 31, "duration": 436, "velocity": 80}, {"time": 87842, "pitch": 31, "duration": 171, "velocity": 90}, {"time": 88082, "pitch": 31, "duration": 211, "velocity": 100}, {"time": 88562, "pitch": 38, "duration": 160, "velocity": 79}, {"time": 88722, "pitch": 40, "duration": 80, "velocity": 72}, {"time": 88802, "pitch": 43, "duration": 241, "velocity": 100}, {"time": 89043, "pitch": 45, "duration": 220, "velocity": 92}, {"time": 89283, "pitch": 43, "duration": 231, "velocity": 87}, {"time": 89520, "pitch": 38, "duration": 163, "velocity": 85}, {"time": 89757, "pitch": 26, "duration": 145, "velocity": 98}, {"time": 89997, "pitch": 26, "duration": 320, "velocity": 100}, {"time": 90477, "pitch": 38, "duration": 161, "velocity": 92}, {"time": 90638, "pitch": 40, "duration": 80, "velocity": 75}, {"time": 90718, "pitch": 38, "duration": 320, "velocity": 111}, {"time": 91358, "pitch": 31, "duration": 80, "velocity": 75}, {"time": 91438, "pitch": 33, "duration": 151, "velocity": 64}, {"time": 91678, "pitch": 26, "duration": 168, "velocity": 111}, {"time": 91919, "pitch": 26, "duration": 234, "velocity": 108}, {"time": 92399, "pitch": 38, "duration": 158, "velocity": 100}, {"time": 92559, "pitch": 40, "duration": 72, "velocity": 70}, {"time": 92639, "pitch": 38, "duration": 201, "velocity": 87}, {"time": 92880, "pitch": 31, "duration": 230, "velocity": 95}, {"time": 93120, "pitch": 33, "duration": 217, "velocity": 111}, {"time": 93360, "pitch": 26, "duration": 189, "velocity": 100}, {"time": 93600, "pitch": 31, "duration": 171, "velocity": 104}, {"time": 93840, "pitch": 31, "duration": 234, "velocity": 98}, {"time": 94321, "pitch": 38, "duration": 160, "velocity": 75}, {"time": 94481, "pitch": 40, "duration": 80, "velocity": 64}, {"time": 94561, "pitch": 38, "duration": 200, "velocity": 89}, {"time": 94801, "pitch": 31, "duration": 437, "velocity": 80}, {"time": 95522, "pitch": 31, "duration": 171, "velocity": 90}, {"time": 95762, "pitch": 31, "duration": 211, "velocity": 100}, {"time": 96243, "pitch": 38, "duration": 160, "velocity": 79}, {"time": 96403, "pitch": 40, "duration": 80, "velocity": 72}, {"time": 96483, "pitch": 43, "duration": 240, "velocity": 100}, {"time": 96723, "pitch": 45, "duration": 220, "velocity": 92}, {"time": 96963, "pitch": 43, "duration": 231, "velocity": 87}, {"time": 97200, "pitch": 38, "duration": 163, "velocity": 85}, {"time": 97437, "pitch": 26, "duration": 145, "velocity": 98}, {"time": 97677, "pitch": 26, "duration": 321, "velocity": 100}, {"time": 98158, "pitch": 38, "duration": 160, "velocity": 92}, {"time": 98318, "pitch": 40, "duration": 80, "velocity": 75}, {"time": 98398, "pitch": 38, "duration": 320, "velocity": 111}, {"time": 99039, "pitch": 31, "duration": 80, "velocity": 75}, {"time": 99119, "pitch": 33, "duration": 151, "velocity": 64}, {"time": 99359, "pitch": 26, "duration": 167, "velocity": 111}, {"time": 99599, "pitch": 26, "duration": 234, "velocity": 108}, {"time": 100079, "pitch": 38, "duration": 159, "velocity": 100}, {"time": 100240, "pitch": 40, "duration": 72, "velocity": 70}, {"time": 100320, "pitch": 38, "duration": 200, "velocity": 87}, {"time": 100560, "pitch": 31, "duration": 230, "velocity": 95}, {"time": 100800, "pitch": 33, "duration": 217, "velocity": 111}, {"time": 101040, "pitch": 26, "duration": 189, "velocity": 100}, {"time": 101281, "pitch": 31, "duration": 171, "velocity": 104}, {"time": 101521, "pitch": 31, "duration": 233, "velocity": 98}, {"time": 102001, "pitch": 38, "duration": 160, "velocity": 75}, {"time": 102161, "pitch": 40, "duration": 80, "velocity": 64}, {"time": 102241, "pitch": 38, "duration": 201, "velocity": 89}, {"time": 102482, "pitch": 31, "duration": 436, "velocity": 80}, {"time": 103202, "pitch": 31, "duration": 171, "velocity": 90}, {"time": 103442, "pitch": 31, "duration": 212, "velocity": 100}, {"time": 103923, "pitch": 38, "duration": 160, "velocity": 79}, {"time": 104083, "pitch": 40, "duration": 80, "velocity": 72}, {"time": 104163, "pitch": 43, "duration": 237, "velocity": 100}, {"time": 104400, "pitch": 45, "duration": 217, "velocity": 92}, {"time": 104637, "pitch": 43, "duration": 234, "velocity": 87}, {"time": 104877, "pitch": 38, "duration": 165, "velocity": 85}, {"time": 105117, "pitch": 26, "duration": 146, "velocity": 98}, {"time": 105358, "pitch": 26, "duration": 320, "velocity": 100}, {"time": 105838, "pitch": 38, "duration": 160, "velocity": 92}, {"time": 105998, "pitch": 40, "duration": 80, "velocity": 75}, {"time": 106078, "pitch": 38, "duration": 321, "velocity": 111}, {"time": 106719, "pitch": 31, "duration": 80, "velocity": 75}, {"time": 106799, "pitch": 33, "duration": 151, "velocity": 64}, {"time": 107039, "pitch": 26, "duration": 167, "velocity": 111}, {"time": 107279, "pitch": 26, "duration": 235, "velocity": 108}, {"time": 107760, "pitch": 38, "duration": 158, "velocity": 100}, {"time": 107920, "pitch": 40, "duration": 72, "velocity": 70}, {"time": 108000, "pitch": 38, "duration": 200, "velocity": 87}, {"time": 108240, "pitch": 31, "duration": 230, "velocity": 95}, {"time": 108480, "pitch": 33, "duration": 218, "velocity": 111}, {"time": 108721, "pitch": 26, "duration": 189, "velocity": 100}, {"time": 108961, "pitch": 31, "duration": 171, "velocity": 104}, {"time": 109201, "pitch": 31, "duration": 233, "velocity": 98}, {"time": 109682, "pitch": 38, "duration": 160, "velocity": 75}, {"time": 109842, "pitch": 40, "duration": 80, "velocity": 64}, {"time": 109922, "pitch": 38, "duration": 200, "velocity": 89}, {"time": 110162, "pitch": 31, "duration": 436, "velocity": 80}, {"time": 110883, "pitch": 31, "duration": 171, "velocity": 90}, {"time": 111123, "pitch": 31, "duration": 211, "velocity": 100}, {"time": 111600, "pitch": 38, "duration": 158, "velocity": 79}, {"time": 111758, "pitch": 40, "duration": 79, "velocity": 72}, {"time": 111837, "pitch": 43, "duration": 240, "velocity": 100}, {"time": 112077, "pitch": 45, "duration": 220, "velocity": 92}, {"time": 112317, "pitch": 43, "duration": 235, "velocity": 87}, {"time": 112558, "pitch": 38, "duration": 165, "velocity": 85}, {"time": 112798, "pitch": 26, "duration": 145, "velocity": 98}, {"time": 113038, "pitch": 26, "duration": 320, "velocity": 100}, {"time": 113518, "pitch": 38, "duration": 161, "velocity": 92}, {"time": 113679, "pitch": 40, "duration": 80, "velocity": 75}, {"time": 113759, "pitch": 38, "duration": 320, "velocity": 111}, {"time": 114399, "pitch": 31, "duration": 80, "velocity": 75}, {"time": 114479, "pitch": 33, "duration": 151, "velocity": 64}, {"time": 114720, "pitch": 26, "duration": 167, "velocity": 111}, {"time": 114960, "pitch": 26, "duration": 234, "velocity": 108}, {"time": 115440, "pitch": 38, "duration": 158, "velocity": 100}, {"time": 115600, "pitch": 40, "duration": 72, "velocity": 70}, {"time": 115680, "pitch": 38, "duration": 201, "velocity": 87}, {"time": 115921, "pitch": 31, "duration": 230, "velocity": 95}, {"time": 116161, "pitch": 33, "duration": 217, "velocity": 111}, {"time": 116401, "pitch": 26, "duration": 189, "velocity": 100}, {"time": 116641, "pitch": 38, "duration": 2409, "velocity": 93}, {"time": 119060, "pitch": 26, "duration": 1418, "velocity": 80}, {"time": 16797, "pitch": 67, "duration": 488, "velocity": 86}, {"time": 17277, "pitch": 69, "duration": 427, "velocity": 93}, {"time": 17758, "pitch": 71, "duration": 1450, "velocity": 75}, {"time": 19199, "pitch": 73, "duration": 521, "velocity": 71}, {"time": 19679, "pitch": 74, "duration": 544, "velocity": 86}, {"time": 20160, "pitch": 67, "duration": 371, "velocity": 67}, {"time": 20640, "pitch": 66, "duration": 479, "velocity": 95}, {"time": 21121, "pitch": 76, "duration": 403, "velocity": 85}, {"time": 21601, "pitch": 73, "duration": 501, "velocity": 81}, {"time": 22081, "pitch": 69, "duration": 974, "velocity": 93}, {"time": 22562, "pitch": 66, "duration": 42, "velocity": 64}, {"time": 23042, "pitch": 66, "duration": 1369, "velocity": 83}, {"time": 24477, "pitch": 67, "duration": 912, "velocity": 71}, {"time": 25438, "pitch": 69, "duration": 573, "velocity": 71}, {"time": 25918, "pitch": 71, "duration": 1002, "velocity": 87}, {"time": 26879, "pitch": 73, "duration": 505, "velocity": 95}, {"time": 27360, "pitch": 74, "duration": 463, "velocity": 87}, {"time": 27840, "pitch": 67, "duration": 488, "velocity": 83}, {"time": 28321, "pitch": 66, "duration": 481, "velocity": 98}, {"time": 28801, "pitch": 76, "duration": 459, "velocity": 90}, {"time": 29281, "pitch": 73, "duration": 489, "velocity": 98}, {"time": 29762, "pitch": 69, "duration": 517, "velocity": 86}, {"time": 30242, "pitch": 66, "duration": 472, "velocity": 86}, {"time": 30723, "pitch": 73, "duration": 889, "velocity": 79}, {"time": 31677, "pitch": 66, "duration": 387, "velocity": 58}, {"time": 47518, "pitch": 60, "duration": 483, "velocity": 83}, {"time": 47999, "pitch": 62, "duration": 463, "velocity": 93}, {"time": 48479, "pitch": 64, "duration": 491, "velocity": 79}, {"time": 48959, "pitch": 66, "duration": 470, "velocity": 81}, {"time": 49440, "pitch": 67, "duration": 489, "velocity": 76}, {"time": 49920, "pitch": 69, "duration": 446, "velocity": 83}, {"time": 50401, "pitch": 71, "duration": 502, "velocity": 76}, {"time": 50881, "pitch": 72, "duration": 449, "velocity": 93}, {"time": 51362, "pitch": 74, "duration": 470, "velocity": 86}, {"time": 51842, "pitch": 76, "duration": 454, "velocity": 83}, {"time": 52322, "pitch": 78, "duration": 466, "velocity": 86}, {"time": 52803, "pitch": 74, "duration": 462, "velocity": 76}, {"time": 53277, "pitch": 71, "duration": 494, "velocity": 65}, {"time": 53757, "pitch": 66, "duration": 927, "velocity": 62}, {"time": 54718, "pitch": 74, "duration": 475, "velocity": 83}, {"time": 55198, "pitch": 60, "duration": 442, "velocity": 79}, {"time": 55679, "pitch": 62, "duration": 433, "velocity": 72}, {"time": 56159, "pitch": 64, "duration": 476, "velocity": 69}, {"time": 56640, "pitch": 66, "duration": 504, "velocity": 79}, {"time": 57120, "pitch": 67, "duration": 457, "velocity": 72}, {"time": 57601, "pitch": 69, "duration": 492, "velocity": 81}, {"time": 58081, "pitch": 71, "duration": 492, "velocity": 74}, {"time": 58561, "pitch": 72, "duration": 474, "velocity": 74}, {"time": 59042, "pitch": 74, "duration": 483, "velocity": 81}, {"time": 59522, "pitch": 76, "duration": 444, "velocity": 74}, {"time": 60003, "pitch": 78, "duration": 513, "velocity": 65}, {"time": 60483, "pitch": 81, "duration": 436, "velocity": 74}, {"time": 60957, "pitch": 81, "duration": 543, "velocity": 74}, {"time": 61438, "pitch": 78, "duration": 462, "velocity": 76}, {"time": 62078, "pitch": 78, "duration": 427, "velocity": 77}, {"time": 62398, "pitch": 74, "duration": 342, "velocity": 73}, {"time": 62879, "pitch": 69, "duration": 498, "velocity": 98}, {"time": 63359, "pitch": 71, "duration": 475, "velocity": 93}, {"time": 63840, "pitch": 72, "duration": 453, "velocity": 98}, {"time": 64320, "pitch": 74, "duration": 471, "velocity": 74}, {"time": 64801, "pitch": 76, "duration": 505, "velocity": 90}, {"time": 65281, "pitch": 72, "duration": 475, "velocity": 74}, {"time": 65761, "pitch": 69, "duration": 747, "velocity": 90}, {"time": 85920, "pitch": 67, "duration": 488, "velocity": 86}, {"time": 86400, "pitch": 69, "duration": 427, "velocity": 93}, {"time": 86881, "pitch": 71, "duration": 1450, "velocity": 75}, {"time": 88322, "pitch": 73, "duration": 521, "velocity": 71}, {"time": 88802, "pitch": 74, "duration": 543, "velocity": 86}, {"time": 89283, "pitch": 67, "duration": 366, "velocity": 67}, {"time": 89757, "pitch": 66, "duration": 478, "velocity": 95}, {"time": 90237, "pitch": 76, "duration": 404, "velocity": 85}, {"time": 90718, "pitch": 73, "duration": 501, "velocity": 81}, {"time": 91198, "pitch": 69, "duration": 974, "velocity": 93}, {"time": 91678, "pitch": 66, "duration": 43, "velocity": 64}, {"time": 92159, "pitch": 66, "duration": 1374, "velocity": 83}, {"time": 93600, "pitch": 67, "duration": 912, "velocity": 71}, {"time": 94561, "pitch": 69, "duration": 574, "velocity": 71}, {"time": 95041, "pitch": 71, "duration": 1002, "velocity": 87}, {"time": 96002, "pitch": 73, "duration": 505, "velocity": 95}, {"time": 96483, "pitch": 74, "duration": 463, "velocity": 87}, {"time": 96963, "pitch": 67, "duration": 481, "velocity": 83}, {"time": 97437, "pitch": 66, "duration": 482, "velocity": 98}, {"time": 97918, "pitch": 76, "duration": 459, "velocity": 90}, {"time": 98398, "pitch": 73, "duration": 488, "velocity": 98}, {"time": 98878, "pitch": 69, "duration": 518, "velocity": 86}, {"time": 99359, "pitch": 66, "duration": 471, "velocity": 86}, {"time": 99839, "pitch": 73, "duration": 895, "velocity": 79}, {"time": 100800, "pitch": 66, "duration": 387, "velocity": 58}, {"time": 1443, "pitch": 59, "duration": 240, "velocity": 87}, {"time": 1683, "pitch": 57, "duration": 160, "velocity": 74}, {"time": 1843, "pitch": 59, "duration": 179, "velocity": 64}, {"time": 3838, "pitch": 59, "duration": 234, "velocity": 85}, {"time": 4078, "pitch": 61, "duration": 219, "velocity": 82}, {"time": 4319, "pitch": 62, "duration": 400, "velocity": 104}, {"time": 4719, "pitch": 64, "duration": 320, "velocity": 104}, {"time": 5039, "pitch": 62, "duration": 227, "velocity": 108}, {"time": 5279, "pitch": 61, "duration": 241, "velocity": 94}, {"time": 5520, "pitch": 62, "duration": 140, "velocity": 95}, {"time": 5680, "pitch": 61, "duration": 160, "velocity": 85}, {"time": 5920, "pitch": 59, "duration": 160, "velocity": 74}, {"time": 6160, "pitch": 57, "duration": 162, "velocity": 67}, {"time": 9123, "pitch": 59, "duration": 219, "velocity": 102}, {"time": 9360, "pitch": 57, "duration": 138, "velocity": 93}, {"time": 9518, "pitch": 59, "duration": 159, "velocity": 70}, {"time": 11519, "pitch": 59, "duration": 230, "velocity": 108}, {"time": 11759, "pitch": 61, "duration": 215, "velocity": 95}, {"time": 11999, "pitch": 62, "duration": 400, "velocity": 108}, {"time": 12399, "pitch": 64, "duration": 321, "velocity": 102}, {"time": 12720, "pitch": 62, "duration": 240, "velocity": 107}, {"time": 12960, "pitch": 69, "duration": 709, "velocity": 117}, {"time": 13680, "pitch": 64, "duration": 161, "velocity": 77}, {"time": 13841, "pitch": 66, "duration": 720, "velocity": 72}, {"time": 14561, "pitch": 64, "duration": 80, "velocity": 68}, {"time": 14641, "pitch": 62, "duration": 202, "velocity": 64}, {"time": 15842, "pitch": 66, "duration": 206, "velocity": 121}, {"time": 16083, "pitch": 67, "duration": 230, "velocity": 108}, {"time": 16323, "pitch": 69, "duration": 189, "velocity": 117}, {"time": 16560, "pitch": 71, "duration": 1679, "velocity": 120}, {"time": 18238, "pitch": 74, "duration": 480, "velocity": 109}, {"time": 18718, "pitch": 73, "duration": 241, "velocity": 108}, {"time": 18959, "pitch": 74, "duration": 160, "velocity": 85}, {"time": 19119, "pitch": 71, "duration": 200, "velocity": 60}, {"time": 20160, "pitch": 69, "duration": 236, "velocity": 98}, {"time": 20400, "pitch": 67, "duration": 237, "velocity": 90}, {"time": 20640, "pitch": 69, "duration": 381, "velocity": 81}, {"time": 21041, "pitch": 64, "duration": 326, "velocity": 67}, {"time": 21361, "pitch": 66, "duration": 1004, "velocity": 63}, {"time": 23523, "pitch": 66, "duration": 221, "velocity": 114}, {"time": 23763, "pitch": 67, "duration": 223, "velocity": 108}, {"time": 24003, "pitch": 69, "duration": 187, "velocity": 111}, {"time": 24240, "pitch": 71, "duration": 1682, "velocity": 121}, {"time": 25918, "pitch": 74, "duration": 461, "velocity": 114}, {"time": 26399, "pitch": 73, "duration": 240, "velocity": 121}, {"time": 26639, "pitch": 74, "duration": 160, "velocity": 85}, {"time": 26799, "pitch": 71, "duration": 180, "velocity": 63}, {"time": 27600, "pitch": 69, "duration": 480, "velocity": 98}, {"time": 28080, "pitch": 67, "duration": 226, "velocity": 95}, {"time": 28321, "pitch": 69, "duration": 400, "velocity": 108}, {"time": 28721, "pitch": 64, "duration": 320, "velocity": 90}, {"time": 29041, "pitch": 66, "duration": 868, "velocity": 85}, {"time": 29922, "pitch": 64, "duration": 80, "velocity": 64}, {"time": 30002, "pitch": 62, "duration": 180, "velocity": 59}, {"time": 32157, "pitch": 59, "duration": 234, "velocity": 95}, {"time": 32398, "pitch": 57, "duration": 163, "velocity": 73}, {"time": 32558, "pitch": 59, "duration": 116, "velocity": 67}, {"time": 34560, "pitch": 59, "duration": 231, "velocity": 100}, {"time": 34800, "pitch": 61, "duration": 225, "velocity": 93}, {"time": 35040, "pitch": 62, "duration": 288, "velocity": 104}, {"time": 35440, "pitch": 64, "duration": 321, "velocity": 93}, {"time": 35761, "pitch": 62, "duration": 240, "velocity": 96}, {"time": 36001, "pitch": 61, "duration": 240, "velocity": 98}, {"time": 36241, "pitch": 62, "duration": 149, "velocity": 80}, {"time": 36401, "pitch": 61, "duration": 150, "velocity": 75}, {"time": 36641, "pitch": 59, "duration": 131, "velocity": 70}, {"time": 36882, "pitch": 57, "duration": 167, "velocity": 67}, {"time": 39838, "pitch": 59, "duration": 150, "velocity": 72}, {"time": 39998, "pitch": 59, "duration": 80, "velocity": 74}, {"time": 40078, "pitch": 57, "duration": 160, "velocity": 70}, {"time": 40238, "pitch": 59, "duration": 174, "velocity": 69}, {"time": 42240, "pitch": 59, "duration": 227, "velocity": 98}, {"time": 42480, "pitch": 61, "duration": 220, "velocity": 102}, {"time": 42720, "pitch": 62, "duration": 401, "velocity": 108}, {"time": 43121, "pitch": 64, "duration": 320, "velocity": 102}, {"time": 43441, "pitch": 62, "duration": 240, "velocity": 85}, {"time": 43681, "pitch": 69, "duration": 1672, "velocity": 117}, {"time": 45363, "pitch": 71, "duration": 156, "velocity": 72}, {"time": 45523, "pitch": 69, "duration": 937, "velocity": 68}, {"time": 47758, "pitch": 60, "duration": 146, "velocity": 112}, {"time": 47918, "pitch": 62, "duration": 280, "velocity": 122}, {"time": 48239, "pitch": 64, "duration": 193, "velocity": 108}, {"time": 48479, "pitch": 66, "duration": 224, "velocity": 111}, {"time": 48719, "pitch": 67, "duration": 140, "velocity": 112}, {"time": 48879, "pitch": 69, "duration": 291, "velocity": 111}, {"time": 49200, "pitch": 71, "duration": 199, "velocity": 120}, {"time": 49440, "pitch": 72, "duration": 162, "velocity": 120}, {"time": 49680, "pitch": 71, "duration": 154, "velocity": 120}, {"time": 49840, "pitch": 74, "duration": 1026, "velocity": 122}, {"time": 50881, "pitch": 72, "duration": 213, "velocity": 122}, {"time": 51121, "pitch": 71, "duration": 201, "velocity": 112}, {"time": 51362, "pitch": 69, "duration": 422, "velocity": 114}, {"time": 51842, "pitch": 69, "duration": 228, "velocity": 120}, {"time": 52082, "pitch": 74, "duration": 144, "velocity": 121}, {"time": 52242, "pitch": 71, "duration": 378, "velocity": 112}, {"time": 55439, "pitch": 60, "duration": 165, "velocity": 111}, {"time": 55599, "pitch": 62, "duration": 289, "velocity": 121}, {"time": 55919, "pitch": 64, "duration": 204, "velocity": 112}, {"time": 56159, "pitch": 66, "duration": 216, "velocity": 93}, {"time": 56400, "pitch": 67, "duration": 215, "velocity": 104}, {"time": 56640, "pitch": 69, "duration": 142, "velocity": 114}, {"time": 56800, "pitch": 71, "duration": 291, "velocity": 95}, {"time": 57120, "pitch": 72, "duration": 217, "velocity": 121}, {"time": 57360, "pitch": 71, "duration": 164, "velocity": 104}, {"time": 57521, "pitch": 74, "duration": 1036, "velocity": 114}, {"time": 58561, "pitch": 64, "duration": 217, "velocity": 112}, {"time": 58802, "pitch": 62, "duration": 193, "velocity": 117}, {"time": 59042, "pitch": 66, "duration": 220, "velocity": 117}, {"time": 59282, "pitch": 67, "duration": 208, "velocity": 111}, {"time": 59522, "pitch": 69, "duration": 233, "velocity": 100}, {"time": 59763, "pitch": 62, "duration": 933, "velocity": 117}, {"time": 60720, "pitch": 66, "duration": 210, "velocity": 120}, {"time": 60957, "pitch": 64, "duration": 213, "velocity": 120}, {"time": 61197, "pitch": 62, "duration": 1210, "velocity": 117}, {"time": 62879, "pitch": 64, "duration": 331, "velocity": 121}, {"time": 63279, "pitch": 66, "duration": 335, "velocity": 122}, {"time": 63599, "pitch": 67, "duration": 227, "velocity": 104}, {"time": 63840, "pitch": 69, "duration": 502, "velocity": 114}, {"time": 64320, "pitch": 71, "duration": 417, "velocity": 117}, {"time": 64801, "pitch": 72, "duration": 957, "velocity": 122}, {"time": 65761, "pitch": 74, "duration": 712, "velocity": 117}, {"time": 66722, "pitch": 64, "duration": 205, "velocity": 120}, {"time": 66962, "pitch": 66, "duration": 182, "velocity": 114}, {"time": 67203, "pitch": 67, "duration": 160, "velocity": 121}, {"time": 70559, "pitch": 59, "duration": 240, "velocity": 87}, {"time": 70799, "pitch": 57, "duration": 161, "velocity": 74}, {"time": 70960, "pitch": 59, "duration": 180, "velocity": 64}, {"time": 72961, "pitch": 59, "duration": 234, "velocity": 85}, {"time": 73202, "pitch": 61, "duration": 218, "velocity": 82}, {"time": 73442, "pitch": 62, "duration": 400, "velocity": 104}, {"time": 73842, "pitch": 64, "duration": 320, "velocity": 104}, {"time": 74162, "pitch": 62, "duration": 228, "velocity": 108}, {"time": 74403, "pitch": 61, "duration": 240, "velocity": 94}, {"time": 74643, "pitch": 62, "duration": 140, "velocity": 95}, {"time": 74803, "pitch": 61, "duration": 159, "velocity": 85}, {"time": 75041, "pitch": 59, "duration": 158, "velocity": 74}, {"time": 75278, "pitch": 57, "duration": 161, "velocity": 67}, {"time": 78239, "pitch": 59, "duration": 223, "velocity": 102}, {"time": 78480, "pitch": 57, "duration": 140, "velocity": 93}, {"time": 78640, "pitch": 59, "duration": 160, "velocity": 70}, {"time": 80642, "pitch": 59, "duration": 230, "velocity": 108}, {"time": 80882, "pitch": 61, "duration": 215, "velocity": 95}, {"time": 81122, "pitch": 62, "duration": 400, "velocity": 108}, {"time": 81522, "pitch": 64, "duration": 321, "velocity": 102}, {"time": 81843, "pitch": 62, "duration": 240, "velocity": 107}, {"time": 82083, "pitch": 69, "duration": 703, "velocity": 117}, {"time": 82797, "pitch": 64, "duration": 160, "velocity": 77}, {"time": 82957, "pitch": 66, "duration": 721, "velocity": 72}, {"time": 83678, "pitch": 64, "duration": 80, "velocity": 68}, {"time": 83758, "pitch": 62, "duration": 201, "velocity": 64}, {"time": 84959, "pitch": 66, "duration": 205, "velocity": 121}, {"time": 85199, "pitch": 67, "duration": 230, "velocity": 108}, {"time": 85439, "pitch": 69, "duration": 193, "velocity": 117}, {"time": 85680, "pitch": 71, "duration": 1682, "velocity": 120}, {"time": 87361, "pitch": 74, "duration": 481, "velocity": 109}, {"time": 87842, "pitch": 73, "duration": 240, "velocity": 108}, {"time": 88082, "pitch": 74, "duration": 160, "velocity": 85}, {"time": 88242, "pitch": 71, "duration": 200, "velocity": 60}, {"time": 89283, "pitch": 69, "duration": 233, "velocity": 98}, {"time": 89520, "pitch": 67, "duration": 234, "velocity": 90}, {"time": 89757, "pitch": 69, "duration": 380, "velocity": 81}, {"time": 90157, "pitch": 64, "duration": 326, "velocity": 67}, {"time": 90477, "pitch": 66, "duration": 1004, "velocity": 63}, {"time": 92639, "pitch": 66, "duration": 222, "velocity": 114}, {"time": 92880, "pitch": 67, "duration": 223, "velocity": 108}, {"time": 93120, "pitch": 69, "duration": 189, "velocity": 111}, {"time": 93360, "pitch": 71, "duration": 1685, "velocity": 121}, {"time": 95041, "pitch": 74, "duration": 461, "velocity": 114}, {"time": 95522, "pitch": 73, "duration": 240, "velocity": 121}, {"time": 95762, "pitch": 74, "duration": 160, "velocity": 85}, {"time": 95922, "pitch": 71, "duration": 180, "velocity": 63}, {"time": 96723, "pitch": 69, "duration": 477, "velocity": 98}, {"time": 97200, "pitch": 67, "duration": 222, "velocity": 95}, {"time": 97437, "pitch": 69, "duration": 400, "velocity": 108}, {"time": 97837, "pitch": 64, "duration": 321, "velocity": 90}, {"time": 98158, "pitch": 66, "duration": 868, "velocity": 85}, {"time": 99039, "pitch": 64, "duration": 80, "velocity": 64}, {"time": 99119, "pitch": 62, "duration": 180, "velocity": 59}, {"time": 101281, "pitch": 59, "duration": 233, "velocity": 95}, {"time": 101521, "pitch": 57, "duration": 163, "velocity": 73}, {"time": 101681, "pitch": 59, "duration": 116, "velocity": 67}, {"time": 103683, "pitch": 59, "duration": 231, "velocity": 100}, {"time": 103923, "pitch": 61, "duration": 225, "velocity": 93}, {"time": 104163, "pitch": 62, "duration": 284, "velocity": 104}, {"time": 104558, "pitch": 64, "duration": 319, "velocity": 93}, {"time": 104877, "pitch": 62, "duration": 240, "velocity": 96}, {"time": 105117, "pitch": 61, "duration": 241, "velocity": 98}, {"time": 105358, "pitch": 62, "duration": 149, "velocity": 80}, {"time": 105518, "pitch": 61, "duration": 150, "velocity": 75}, {"time": 105758, "pitch": 59, "duration": 130, "velocity": 70}, {"time": 105998, "pitch": 57, "duration": 167, "velocity": 67}, {"time": 108961, "pitch": 59, "duration": 150, "velocity": 72}, {"time": 109121, "pitch": 59, "duration": 80, "velocity": 74}, {"time": 109201, "pitch": 57, "duration": 160, "velocity": 70}, {"time": 109361, "pitch": 59, "duration": 174, "velocity": 69}, {"time": 111363, "pitch": 59, "duration": 224, "velocity": 98}, {"time": 111600, "pitch": 61, "duration": 217, "velocity": 102}, {"time": 111837, "pitch": 62, "duration": 400, "velocity": 108}, {"time": 112237, "pitch": 64, "duration": 321, "velocity": 102}, {"time": 112558, "pitch": 62, "duration": 240, "velocity": 85}, {"time": 112798, "pitch": 69, "duration": 1671, "velocity": 117}, {"time": 114479, "pitch": 67, "duration": 156, "velocity": 72}, {"time": 114639, "pitch": 69, "duration": 944, "velocity": 68}, {"time": 117112, "pitch": 73, "duration": 244, "velocity": 89}, {"time": 117333, "pitch": 74, "duration": 167, "velocity": 77}, {"time": 117498, "pitch": 69, "duration": 177, "velocity": 60}, {"time": 117635, "pitch": 66, "duration": 241, "velocity": 74}, {"time": 117855, "pitch": 64, "duration": 321, "velocity": 62}, {"time": 118093, "pitch": 66, "duration": 475, "velocity": 64}, {"time": 118584, "pitch": 69, "duration": 662, "velocity": 67}, {"time": 119246, "pitch": 68, "duration": 43, "velocity": 59}, {"time": 119274, "pitch": 67, "duration": 44, "velocity": 54}, {"time": 119313, "pitch": 66, "duration": 1125, "velocity": 58}, {"time": 32157, "pitch": 74, "duration": 1442, "velocity": 90}, {"time": 32157, "pitch": 78, "duration": 1442, "velocity": 90}, {"time": 33599, "pitch": 73, "duration": 480, "velocity": 90}, {"time": 33599, "pitch": 76, "duration": 480, "velocity": 90}, {"time": 34079, "pitch": 74, "duration": 1922, "velocity": 90}, {"time": 34079, "pitch": 78, "duration": 961, "velocity": 90}, {"time": 35040, "pitch": 71, "duration": 961, "velocity": 90}, {"time": 36001, "pitch": 73, "duration": 1441, "velocity": 90}, {"time": 36001, "pitch": 76, "duration": 1441, "velocity": 90}, {"time": 37442, "pitch": 71, "duration": 481, "velocity": 90}, {"time": 37442, "pitch": 74, "duration": 481, "velocity": 90}, {"time": 37923, "pitch": 73, "duration": 1915, "velocity": 90}, {"time": 37923, "pitch": 76, "duration": 954, "velocity": 90}, {"time": 38877, "pitch": 81, "duration": 961, "velocity": 90}, {"time": 39838, "pitch": 74, "duration": 1488, "velocity": 90}, {"time": 39838, "pitch": 78, "duration": 1441, "velocity": 90}, {"time": 41279, "pitch": 73, "duration": 480, "velocity": 90}, {"time": 41279, "pitch": 76, "duration": 480, "velocity": 90}, {"time": 41759, "pitch": 74, "duration": 961, "velocity": 90}, {"time": 41759, "pitch": 78, "duration": 961, "velocity": 90}, {"time": 42720, "pitch": 71, "duration": 961, "velocity": 90}, {"time": 42720, "pitch": 74, "duration": 961, "velocity": 90}, {"time": 43681, "pitch": 73, "duration": 961, "velocity": 90}, {"time": 43681, "pitch": 76, "duration": 961, "velocity": 90}, {"time": 44642, "pitch": 69, "duration": 961, "velocity": 90}, {"time": 44642, "pitch": 73, "duration": 961, "velocity": 90}, {"time": 45603, "pitch": 66, "duration": 1915, "velocity": 90}, {"time": 45603, "pitch": 69, "duration": 1915, "velocity": 90}, {"time": 47518, "pitch": 60, "duration": 1459, "velocity": 63}, {"time": 47518, "pitch": 64, "duration": 1474, "velocity": 72}, {"time": 48959, "pitch": 62, "duration": 443, "velocity": 87}, {"time": 48959, "pitch": 66, "duration": 436, "velocity": 85}, {"time": 49440, "pitch": 64, "duration": 978, "velocity": 86}, {"time": 49440, "pitch": 67, "duration": 915, "velocity": 87}, {"time": 50401, "pitch": 67, "duration": 945, "velocity": 90}, {"time": 50401, "pitch": 71, "duration": 1008, "velocity": 108}, {"time": 51362, "pitch": 66, "duration": 902, "velocity": 85}, {"time": 51362, "pitch": 69, "duration": 923, "velocity": 98}, {"time": 52322, "pitch": 66, "duration": 930, "velocity": 98}, {"time": 52322, "pitch": 74, "duration": 917, "velocity": 87}, {"time": 53277, "pitch": 71, "duration": 997, "velocity": 90}, {"time": 53277, "pitch": 78, "duration": 988, "velocity": 117}, {"time": 54238, "pitch": 66, "duration": 920, "velocity": 98}, {"time": 54238, "pitch": 74, "duration": 960, "velocity": 111}, {"time": 55198, "pitch": 60, "duration": 1430, "velocity": 83}, {"time": 55198, "pitch": 64, "duration": 1428, "velocity": 87}, {"time": 56640, "pitch": 62, "duration": 451, "velocity": 87}, {"time": 56640, "pitch": 66, "duration": 446, "velocity": 87}, {"time": 57120, "pitch": 64, "duration": 994, "velocity": 83}, {"time": 57120, "pitch": 67, "duration": 961, "velocity": 87}, {"time": 58081, "pitch": 67, "duration": 944, "velocity": 81}, {"time": 58081, "pitch": 71, "duration": 941, "velocity": 112}, {"time": 59042, "pitch": 66, "duration": 919, "velocity": 100}, {"time": 59042, "pitch": 69, "duration": 897, "velocity": 114}, {"time": 60003, "pitch": 69, "duration": 954, "velocity": 75}, {"time": 60003, "pitch": 78, "duration": 967, "velocity": 83}, {"time": 60957, "pitch": 74, "duration": 968, "velocity": 111}, {"time": 61918, "pitch": 66, "duration": 714, "velocity": 95}, {"time": 61918, "pitch": 71, "duration": 11, "velocity": 87}, {"time": 62879, "pitch": 72, "duration": 882, "velocity": 100}, {"time": 62879, "pitch": 76, "duration": 882, "velocity": 112}, {"time": 63840, "pitch": 72, "duration": 333, "velocity": 95}, {"time": 63840, "pitch": 76, "duration": 314, "velocity": 100}, {"time": 64240, "pitch": 71, "duration": 375, "velocity": 87}, {"time": 64240, "pitch": 74, "duration": 347, "velocity": 83}, {"time": 64560, "pitch": 72, "duration": 220, "velocity": 83}, {"time": 64560, "pitch": 76, "duration": 215, "velocity": 86}, {"time": 64801, "pitch": 76, "duration": 704, "velocity": 111}, {"time": 64801, "pitch": 79, "duration": 710, "velocity": 104}, {"time": 65521, "pitch": 74, "duration": 723, "velocity": 86}, {"time": 65521, "pitch": 78, "duration": 661, "velocity": 95}, {"time": 66242, "pitch": 76, "duration": 400, "velocity": 100}, {"time": 66242, "pitch": 79, "duration": 402, "velocity": 86}, {"time": 66722, "pitch": 60, "duration": 203, "velocity": 111}, {"time": 66722, "pitch": 64, "duration": 215, "velocity": 108}, {"time": 66962, "pitch": 62, "duration": 199, "velocity": 90}, {"time": 66962, "pitch": 66, "duration": 194, "velocity": 108}, {"time": 67203, "pitch": 64, "duration": 123, "velocity": 108}, {"time": 67203, "pitch": 67, "duration": 131, "velocity": 93}, {"time": 101281, "pitch": 74, "duration": 1441, "velocity": 90}, {"time": 101281, "pitch": 78, "duration": 1441, "velocity": 90}, {"time": 102722, "pitch": 73, "duration": 480, "velocity": 90}, {"time": 102722, "pitch": 76, "duration": 480, "velocity": 90}, {"time": 103202, "pitch": 74, "duration": 1915, "velocity": 90}, {"time": 103202, "pitch": 78, "duration": 961, "velocity": 90}, {"time": 104163, "pitch": 71, "duration": 954, "velocity": 90}, {"time": 105117, "pitch": 73, "duration": 1442, "velocity": 90}, {"time": 105117, "pitch": 76, "duration": 1442, "velocity": 90}, {"time": 106559, "pitch": 71, "duration": 480, "velocity": 90}, {"time": 106559, "pitch": 74, "duration": 480, "velocity": 90}, {"time": 107039, "pitch": 73, "duration": 1922, "velocity": 90}, {"time": 107039, "pitch": 76, "duration": 961, "velocity": 90}, {"time": 108000, "pitch": 81, "duration": 961, "velocity": 90}, {"time": 108961, "pitch": 74, "duration": 1488, "velocity": 90}, {"time": 108961, "pitch": 78, "duration": 1441, "velocity": 90}, {"time": 110402, "pitch": 73, "duration": 481, "velocity": 90}, {"time": 110402, "pitch": 76, "duration": 481, "velocity": 90}, {"time": 110883, "pitch": 74, "duration": 954, "velocity": 90}, {"time": 110883, "pitch": 78, "duration": 954, "velocity": 90}, {"time": 111837, "pitch": 71, "duration": 961, "velocity": 90}, {"time": 111837, "pitch": 74, "duration": 961, "velocity": 90}, {"time": 112798, "pitch": 73, "duration": 961, "velocity": 90}, {"time": 112798, "pitch": 76, "duration": 961, "velocity": 90}, {"time": 113759, "pitch": 69, "duration": 961, "velocity": 90}, {"time": 113759, "pitch": 73, "duration": 961, "velocity": 90}, {"time": 114720, "pitch": 66, "duration": 1921, "velocity": 90}, {"time": 114720, "pitch": 69, "duration": 1921, "velocity": 90}, {"time": 116641, "pitch": 67, "duration": 835, "velocity": 80}, {"time": 116641, "pitch": 70, "duration": 835, "velocity": 80}, {"time": 117476, "pitch": 70, "duration": 1584, "velocity": 80}, {"time": 117476, "pitch": 74, "duration": 1584, "velocity": 80}, {"time": 119060, "pitch": 69, "duration": 1418, "velocity": 80}, {"time": 119060, "pitch": 78, "duration": 1418, "velocity": 80}, {"time": 32638, "pitch": 93, "duration": 72, "velocity": 110}, {"time": 32878, "pitch": 86, "duration": 92, "velocity": 105}, {"time": 33118, "pitch": 90, "duration": 76, "velocity": 102}, {"time": 33359, "pitch": 83, "duration": 92, "velocity": 100}, {"time": 33519, "pitch": 86, "duration": 68, "velocity": 100}, {"time": 33759, "pitch": 78, "duration": 43, "velocity": 90}, {"time": 34319, "pitch": 93, "duration": 61, "velocity": 96}, {"time": 34560, "pitch": 86, "duration": 103, "velocity": 83}, {"time": 34800, "pitch": 90, "duration": 56, "velocity": 98}, {"time": 34960, "pitch": 83, "duration": 80, "velocity": 89}, {"time": 36241, "pitch": 93, "duration": 62, "velocity": 110}, {"time": 36481, "pitch": 85, "duration": 81, "velocity": 102}, {"time": 36882, "pitch": 88, "duration": 78, "velocity": 92}, {"time": 37202, "pitch": 81, "duration": 96, "velocity": 89}, {"time": 38163, "pitch": 93, "duration": 81, "velocity": 100}, {"time": 38403, "pitch": 85, "duration": 90, "velocity": 101}, {"time": 38561, "pitch": 88, "duration": 62, "velocity": 87}, {"time": 38798, "pitch": 81, "duration": 103, "velocity": 75}, {"time": 40318, "pitch": 93, "duration": 72, "velocity": 110}, {"time": 40558, "pitch": 86, "duration": 90, "velocity": 110}, {"time": 40799, "pitch": 90, "duration": 114, "velocity": 82}, {"time": 41039, "pitch": 83, "duration": 109, "velocity": 74}, {"time": 41759, "pitch": 93, "duration": 89, "velocity": 105}, {"time": 42000, "pitch": 86, "duration": 95, "velocity": 66}, {"time": 42240, "pitch": 90, "duration": 87, "velocity": 89}, {"time": 42480, "pitch": 83, "duration": 70, "velocity": 79}, {"time": 44402, "pitch": 93, "duration": 84, "velocity": 102}, {"time": 44642, "pitch": 86, "duration": 76, "velocity": 108}, {"time": 44882, "pitch": 90, "duration": 72, "velocity": 89}, {"time": 45042, "pitch": 81, "duration": 65, "velocity": 84}, {"time": 45840, "pitch": 93, "duration": 81, "velocity": 102}, {"time": 46077, "pitch": 85, "duration": 104, "velocity": 92}, {"time": 46317, "pitch": 88, "duration": 77, "velocity": 85}, {"time": 46477, "pitch": 81, "duration": 81, "velocity": 79}, {"time": 101761, "pitch": 93, "duration": 72, "velocity": 110}, {"time": 102001, "pitch": 86, "duration": 92, "velocity": 105}, {"time": 102241, "pitch": 90, "duration": 76, "velocity": 102}, {"time": 102482, "pitch": 83, "duration": 92, "velocity": 100}, {"time": 102642, "pitch": 86, "duration": 68, "velocity": 100}, {"time": 102882, "pitch": 78, "duration": 43, "velocity": 90}, {"time": 103442, "pitch": 93, "duration": 62, "velocity": 96}, {"time": 103683, "pitch": 86, "duration": 103, "velocity": 83}, {"time": 103923, "pitch": 90, "duration": 56, "velocity": 98}, {"time": 104083, "pitch": 83, "duration": 80, "velocity": 89}, {"time": 105358, "pitch": 93, "duration": 62, "velocity": 110}, {"time": 105598, "pitch": 85, "duration": 81, "velocity": 102}, {"time": 105998, "pitch": 88, "duration": 78, "velocity": 92}, {"time": 106319, "pitch": 81, "duration": 96, "velocity": 89}, {"time": 107279, "pitch": 93, "duration": 81, "velocity": 100}, {"time": 107520, "pitch": 85, "duration": 91, "velocity": 101}, {"time": 107680, "pitch": 88, "duration": 63, "velocity": 87}, {"time": 107920, "pitch": 81, "duration": 104, "velocity": 75}, {"time": 109441, "pitch": 93, "duration": 72, "velocity": 110}, {"time": 109682, "pitch": 86, "duration": 89, "velocity": 110}, {"time": 109922, "pitch": 90, "duration": 114, "velocity": 82}, {"time": 110162, "pitch": 83, "duration": 109, "velocity": 74}, {"time": 110883, "pitch": 93, "duration": 88, "velocity": 105}, {"time": 111123, "pitch": 86, "duration": 95, "velocity": 66}, {"time": 111363, "pitch": 90, "duration": 86, "velocity": 89}, {"time": 111600, "pitch": 83, "duration": 69, "velocity": 79}, {"time": 113518, "pitch": 93, "duration": 85, "velocity": 102}, {"time": 113759, "pitch": 86, "duration": 76, "velocity": 108}, {"time": 113999, "pitch": 90, "duration": 72, "velocity": 89}, {"time": 114159, "pitch": 81, "duration": 65, "velocity": 84}, {"time": 114960, "pitch": 93, "duration": 82, "velocity": 102}, {"time": 115200, "pitch": 85, "duration": 104, "velocity": 92}, {"time": 115440, "pitch": 88, "duration": 77, "velocity": 85}, {"time": 115600, "pitch": 81, "duration": 81, "velocity": 79}, {"time": 1603, "pitch": 57, "duration": 50, "velocity": 74}, {"time": 1683, "pitch": 59, "duration": 138, "velocity": 108}, {"time": 1923, "pitch": 62, "duration": 166, "velocity": 121}, {"time": 2160, "pitch": 59, "duration": 177, "velocity": 87}, {"time": 2397, "pitch": 66, "duration": 206, "velocity": 121}, {"time": 2877, "pitch": 62, "duration": 160, "velocity": 121}, {"time": 3118, "pitch": 64, "duration": 64, "velocity": 81}, {"time": 3278, "pitch": 59, "duration": 121, "velocity": 85}, {"time": 3518, "pitch": 57, "duration": 64, "velocity": 63}, {"time": 3598, "pitch": 59, "duration": 134, "velocity": 77}, {"time": 3838, "pitch": 62, "duration": 159, "velocity": 121}, {"time": 4078, "pitch": 62, "duration": 170, "velocity": 114}, {"time": 4239, "pitch": 59, "duration": 52, "velocity": 65}, {"time": 5760, "pitch": 64, "duration": 227, "velocity": 122}, {"time": 6240, "pitch": 59, "duration": 174, "velocity": 108}, {"time": 6481, "pitch": 61, "duration": 159, "velocity": 117}, {"time": 6641, "pitch": 57, "duration": 72, "velocity": 74}, {"time": 7361, "pitch": 57, "duration": 48, "velocity": 87}, {"time": 7441, "pitch": 64, "duration": 134, "velocity": 117}, {"time": 7682, "pitch": 59, "duration": 155, "velocity": 95}, {"time": 7922, "pitch": 61, "duration": 162, "velocity": 112}, {"time": 8082, "pitch": 57, "duration": 88, "velocity": 67}, {"time": 8642, "pitch": 64, "duration": 201, "velocity": 108}, {"time": 8883, "pitch": 57, "duration": 59, "velocity": 76}, {"time": 10237, "pitch": 57, "duration": 50, "velocity": 79}, {"time": 10317, "pitch": 59, "duration": 77, "velocity": 95}, {"time": 10558, "pitch": 62, "duration": 213, "velocity": 122}, {"time": 10798, "pitch": 59, "duration": 104, "velocity": 72}, {"time": 11038, "pitch": 66, "duration": 191, "velocity": 121}, {"time": 11278, "pitch": 62, "duration": 131, "velocity": 87}, {"time": 11519, "pitch": 64, "duration": 131, "velocity": 122}, {"time": 11679, "pitch": 59, "duration": 218, "velocity": 122}, {"time": 12720, "pitch": 57, "duration": 160, "velocity": 111}, {"time": 12880, "pitch": 59, "duration": 80, "velocity": 108}, {"time": 13680, "pitch": 61, "duration": 155, "velocity": 117}, {"time": 13841, "pitch": 62, "duration": 113, "velocity": 108}, {"time": 14161, "pitch": 61, "duration": 74, "velocity": 120}, {"time": 15122, "pitch": 57, "duration": 158, "velocity": 114}, {"time": 15362, "pitch": 59, "duration": 139, "velocity": 79}, {"time": 15602, "pitch": 61, "duration": 187, "velocity": 122}, {"time": 15762, "pitch": 57, "duration": 33, "velocity": 64}, {"time": 15842, "pitch": 62, "duration": 170, "velocity": 117}, {"time": 16083, "pitch": 64, "duration": 173, "velocity": 111}, {"time": 16323, "pitch": 61, "duration": 167, "velocity": 120}, {"time": 16560, "pitch": 57, "duration": 73, "velocity": 76}, {"time": 16560, "pitch": 59, "duration": 42, "velocity": 76}, {"time": 32318, "pitch": 57, "duration": 50, "velocity": 74}, {"time": 32398, "pitch": 59, "duration": 138, "velocity": 108}, {"time": 32638, "pitch": 62, "duration": 168, "velocity": 121}, {"time": 32878, "pitch": 59, "duration": 179, "velocity": 87}, {"time": 33118, "pitch": 66, "duration": 206, "velocity": 121}, {"time": 33599, "pitch": 62, "duration": 160, "velocity": 121}, {"time": 33839, "pitch": 64, "duration": 64, "velocity": 81}, {"time": 33999, "pitch": 59, "duration": 121, "velocity": 85}, {"time": 34239, "pitch": 57, "duration": 64, "velocity": 63}, {"time": 34319, "pitch": 59, "duration": 134, "velocity": 77}, {"time": 34560, "pitch": 62, "duration": 159, "velocity": 121}, {"time": 34800, "pitch": 62, "duration": 169, "velocity": 114}, {"time": 34960, "pitch": 59, "duration": 52, "velocity": 65}, {"time": 36481, "pitch": 64, "duration": 227, "velocity": 122}, {"time": 36962, "pitch": 59, "duration": 174, "velocity": 108}, {"time": 37202, "pitch": 61, "duration": 159, "velocity": 117}, {"time": 37362, "pitch": 57, "duration": 72, "velocity": 74}, {"time": 38083, "pitch": 57, "duration": 48, "velocity": 87}, {"time": 38163, "pitch": 64, "duration": 133, "velocity": 117}, {"time": 38403, "pitch": 59, "duration": 153, "velocity": 95}, {"time": 38640, "pitch": 61, "duration": 160, "velocity": 112}, {"time": 38798, "pitch": 57, "duration": 87, "velocity": 67}, {"time": 39357, "pitch": 64, "duration": 201, "velocity": 108}, {"time": 39598, "pitch": 57, "duration": 59, "velocity": 76}, {"time": 40959, "pitch": 57, "duration": 50, "velocity": 79}, {"time": 41039, "pitch": 59, "duration": 76, "velocity": 95}, {"time": 41279, "pitch": 62, "duration": 213, "velocity": 122}, {"time": 41519, "pitch": 59, "duration": 104, "velocity": 72}, {"time": 41759, "pitch": 66, "duration": 192, "velocity": 121}, {"time": 42000, "pitch": 62, "duration": 131, "velocity": 87}, {"time": 42240, "pitch": 64, "duration": 131, "velocity": 122}, {"time": 42400, "pitch": 59, "duration": 218, "velocity": 122}, {"time": 43441, "pitch": 57, "duration": 160, "velocity": 111}, {"time": 43601, "pitch": 59, "duration": 80, "velocity": 108}, {"time": 44402, "pitch": 61, "duration": 154, "velocity": 117}, {"time": 44562, "pitch": 62, "duration": 113, "velocity": 108}, {"time": 44882, "pitch": 61, "duration": 74, "velocity": 120}, {"time": 45840, "pitch": 57, "duration": 156, "velocity": 114}, {"time": 46077, "pitch": 59, "duration": 139, "velocity": 79}, {"time": 46317, "pitch": 61, "duration": 187, "velocity": 122}, {"time": 46477, "pitch": 57, "duration": 33, "velocity": 64}, {"time": 46557, "pitch": 62, "duration": 169, "velocity": 117}, {"time": 46797, "pitch": 64, "duration": 174, "velocity": 111}, {"time": 47038, "pitch": 61, "duration": 169, "velocity": 120}, {"time": 47278, "pitch": 57, "duration": 74, "velocity": 76}, {"time": 47278, "pitch": 59, "duration": 43, "velocity": 76}, {"time": 70719, "pitch": 57, "duration": 50, "velocity": 74}, {"time": 70799, "pitch": 59, "duration": 138, "velocity": 108}, {"time": 71040, "pitch": 62, "duration": 168, "velocity": 121}, {"time": 71280, "pitch": 59, "duration": 179, "velocity": 87}, {"time": 71520, "pitch": 66, "duration": 206, "velocity": 121}, {"time": 72000, "pitch": 62, "duration": 161, "velocity": 121}, {"time": 72241, "pitch": 64, "duration": 64, "velocity": 81}, {"time": 72401, "pitch": 59, "duration": 121, "velocity": 85}, {"time": 72641, "pitch": 57, "duration": 64, "velocity": 63}, {"time": 72721, "pitch": 59, "duration": 134, "velocity": 77}, {"time": 72961, "pitch": 62, "duration": 159, "velocity": 121}, {"time": 73202, "pitch": 62, "duration": 169, "velocity": 114}, {"time": 73362, "pitch": 59, "duration": 52, "velocity": 65}, {"time": 74883, "pitch": 64, "duration": 224, "velocity": 122}, {"time": 75357, "pitch": 59, "duration": 174, "velocity": 108}, {"time": 75597, "pitch": 61, "duration": 159, "velocity": 117}, {"time": 75757, "pitch": 57, "duration": 72, "velocity": 74}, {"time": 76478, "pitch": 57, "duration": 48, "velocity": 87}, {"time": 76558, "pitch": 64, "duration": 133, "velocity": 117}, {"time": 76798, "pitch": 59, "duration": 155, "velocity": 95}, {"time": 77038, "pitch": 61, "duration": 163, "velocity": 112}, {"time": 77199, "pitch": 57, "duration": 88, "velocity": 67}, {"time": 77759, "pitch": 64, "duration": 200, "velocity": 108}, {"time": 77999, "pitch": 57, "duration": 59, "velocity": 76}, {"time": 79360, "pitch": 57, "duration": 51, "velocity": 79}, {"time": 79441, "pitch": 59, "duration": 76, "velocity": 95}, {"time": 79681, "pitch": 62, "duration": 213, "velocity": 122}, {"time": 79921, "pitch": 59, "duration": 104, "velocity": 72}, {"time": 80161, "pitch": 66, "duration": 191, "velocity": 121}, {"time": 80401, "pitch": 62, "duration": 132, "velocity": 87}, {"time": 80642, "pitch": 64, "duration": 131, "velocity": 122}, {"time": 80802, "pitch": 59, "duration": 218, "velocity": 122}, {"time": 81843, "pitch": 57, "duration": 160, "velocity": 111}, {"time": 82003, "pitch": 59, "duration": 80, "velocity": 108}, {"time": 82797, "pitch": 61, "duration": 154, "velocity": 117}, {"time": 82957, "pitch": 62, "duration": 113, "velocity": 108}, {"time": 83277, "pitch": 61, "duration": 75, "velocity": 120}, {"time": 84238, "pitch": 57, "duration": 158, "velocity": 114}, {"time": 84479, "pitch": 59, "duration": 139, "velocity": 79}, {"time": 84719, "pitch": 61, "duration": 187, "velocity": 122}, {"time": 84879, "pitch": 57, "duration": 33, "velocity": 64}, {"time": 84959, "pitch": 62, "duration": 169, "velocity": 117}, {"time": 85199, "pitch": 64, "duration": 173, "velocity": 111}, {"time": 85439, "pitch": 61, "duration": 170, "velocity": 120}, {"time": 85680, "pitch": 57, "duration": 74, "velocity": 76}, {"time": 85680, "pitch": 59, "duration": 43, "velocity": 76}, {"time": 101441, "pitch": 57, "duration": 50, "velocity": 74}, {"time": 101521, "pitch": 59, "duration": 138, "velocity": 108}, {"time": 101761, "pitch": 62, "duration": 168, "velocity": 121}, {"time": 102001, "pitch": 59, "duration": 179, "velocity": 87}, {"time": 102241, "pitch": 66, "duration": 207, "velocity": 121}, {"time": 102722, "pitch": 62, "duration": 160, "velocity": 121}, {"time": 102962, "pitch": 64, "duration": 64, "velocity": 81}, {"time": 103122, "pitch": 59, "duration": 121, "velocity": 85}, {"time": 103362, "pitch": 57, "duration": 64, "velocity": 63}, {"time": 103442, "pitch": 59, "duration": 135, "velocity": 77}, {"time": 103683, "pitch": 62, "duration": 159, "velocity": 121}, {"time": 103923, "pitch": 62, "duration": 169, "velocity": 114}, {"time": 104083, "pitch": 59, "duration": 52, "velocity": 65}, {"time": 105598, "pitch": 64, "duration": 227, "velocity": 122}, {"time": 106078, "pitch": 59, "duration": 174, "velocity": 108}, {"time": 106319, "pitch": 61, "duration": 159, "velocity": 117}, {"time": 106479, "pitch": 57, "duration": 72, "velocity": 74}, {"time": 107199, "pitch": 57, "duration": 48, "velocity": 87}, {"time": 107279, "pitch": 64, "duration": 133, "velocity": 117}, {"time": 107520, "pitch": 59, "duration": 155, "velocity": 95}, {"time": 107760, "pitch": 61, "duration": 162, "velocity": 112}, {"time": 107920, "pitch": 57, "duration": 88, "velocity": 67}, {"time": 108480, "pitch": 64, "duration": 201, "velocity": 108}, {"time": 108721, "pitch": 57, "duration": 59, "velocity": 76}, {"time": 110082, "pitch": 57, "duration": 50, "velocity": 79}, {"time": 110162, "pitch": 59, "duration": 76, "velocity": 95}, {"time": 110402, "pitch": 62, "duration": 213, "velocity": 122}, {"time": 110642, "pitch": 59, "duration": 104, "velocity": 72}, {"time": 110883, "pitch": 66, "duration": 191, "velocity": 121}, {"time": 111123, "pitch": 62, "duration": 131, "velocity": 87}, {"time": 111363, "pitch": 64, "duration": 129, "velocity": 122}, {"time": 111521, "pitch": 59, "duration": 215, "velocity": 122}, {"time": 112558, "pitch": 57, "duration": 160, "velocity": 111}, {"time": 112718, "pitch": 59, "duration": 80, "velocity": 108}, {"time": 113518, "pitch": 61, "duration": 155, "velocity": 117}, {"time": 113679, "pitch": 62, "duration": 113, "velocity": 108}, {"time": 113999, "pitch": 61, "duration": 74, "velocity": 120}, {"time": 114960, "pitch": 57, "duration": 158, "velocity": 114}, {"time": 115200, "pitch": 59, "duration": 139, "velocity": 79}, {"time": 115440, "pitch": 61, "duration": 187, "velocity": 122}, {"time": 115600, "pitch": 57, "duration": 33, "velocity": 64}, {"time": 115680, "pitch": 62, "duration": 170, "velocity": 117}, {"time": 115921, "pitch": 64, "duration": 173, "velocity": 111}, {"time": 116161, "pitch": 61, "duration": 169, "velocity": 120}, {"time": 116401, "pitch": 57, "duration": 74, "velocity": 76}, {"time": 116401, "pitch": 59, "duration": 43, "velocity": 76}, {"time": 17037, "pitch": 59, "duration": 138, "velocity": 59}, {"time": 17037, "pitch": 62, "duration": 127, "velocity": 57}, {"time": 17037, "pitch": 66, "duration": 127, "velocity": 60}, {"time": 17197, "pitch": 59, "duration": 60, "velocity": 90}, {"time": 17197, "pitch": 62, "duration": 60, "velocity": 90}, {"time": 17197, "pitch": 66, "duration": 60, "velocity": 90}, {"time": 17277, "pitch": 59, "duration": 138, "velocity": 75}, {"time": 17277, "pitch": 62, "duration": 127, "velocity": 75}, {"time": 17277, "pitch": 66, "duration": 127, "velocity": 75}, {"time": 17437, "pitch": 59, "duration": 60, "velocity": 65}, {"time": 17437, "pitch": 62, "duration": 60, "velocity": 65}, {"time": 17437, "pitch": 66, "duration": 60, "velocity": 65}, {"time": 17758, "pitch": 59, "duration": 138, "velocity": 75}, {"time": 17758, "pitch": 62, "duration": 127, "velocity": 75}, {"time": 17758, "pitch": 66, "duration": 127, "velocity": 75}, {"time": 17918, "pitch": 59, "duration": 60, "velocity": 65}, {"time": 17918, "pitch": 62, "duration": 60, "velocity": 65}, {"time": 17918, "pitch": 66, "duration": 60, "velocity": 65}, {"time": 17998, "pitch": 59, "duration": 138, "velocity": 75}, {"time": 17998, "pitch": 62, "duration": 127, "velocity": 75}, {"time": 17998, "pitch": 66, "duration": 127, "velocity": 75}, {"time": 18158, "pitch": 59, "duration": 60, "velocity": 85}, {"time": 18158, "pitch": 62, "duration": 60, "velocity": 85}, {"time": 18158, "pitch": 66, "duration": 60, "velocity": 85}, {"time": 20880, "pitch": 61, "duration": 128, "velocity": 57}, {"time": 20880, "pitch": 64, "duration": 139, "velocity": 59}, {"time": 20880, "pitch": 69, "duration": 128, "velocity": 60}, {"time": 21041, "pitch": 61, "duration": 60, "velocity": 90}, {"time": 21041, "pitch": 64, "duration": 60, "velocity": 90}, {"time": 21041, "pitch": 69, "duration": 60, "velocity": 90}, {"time": 21121, "pitch": 61, "duration": 127, "velocity": 75}, {"time": 21121, "pitch": 64, "duration": 138, "velocity": 75}, {"time": 21121, "pitch": 69, "duration": 127, "velocity": 75}, {"time": 21281, "pitch": 61, "duration": 60, "velocity": 65}, {"time": 21281, "pitch": 64, "duration": 60, "velocity": 65}, {"time": 21281, "pitch": 69, "duration": 60, "velocity": 65}, {"time": 21601, "pitch": 61, "duration": 127, "velocity": 75}, {"time": 21601, "pitch": 64, "duration": 138, "velocity": 75}, {"time": 21601, "pitch": 69, "duration": 127, "velocity": 75}, {"time": 21761, "pitch": 61, "duration": 60, "velocity": 65}, {"time": 21761, "pitch": 64, "duration": 60, "velocity": 65}, {"time": 21761, "pitch": 69, "duration": 60, "velocity": 65}, {"time": 21841, "pitch": 61, "duration": 127, "velocity": 75}, {"time": 21841, "pitch": 64, "duration": 138, "velocity": 75}, {"time": 21841, "pitch": 69, "duration": 127, "velocity": 75}, {"time": 22001, "pitch": 61, "duration": 60, "velocity": 85}, {"time": 22001, "pitch": 64, "duration": 60, "velocity": 85}, {"time": 22001, "pitch": 69, "duration": 60, "velocity": 85}, {"time": 24717, "pitch": 59, "duration": 138, "velocity": 59}, {"time": 24717, "pitch": 62, "duration": 127, "velocity": 57}, {"time": 24717, "pitch": 66, "duration": 127, "velocity": 60}, {"time": 24877, "pitch": 59, "duration": 61, "velocity": 90}, {"time": 24877, "pitch": 62, "duration": 61, "velocity": 90}, {"time": 24877, "pitch": 66, "duration": 61, "velocity": 90}, {"time": 24958, "pitch": 59, "duration": 138, "velocity": 75}, {"time": 24958, "pitch": 62, "duration": 127, "velocity": 75}, {"time": 24958, "pitch": 66, "duration": 127, "velocity": 75}, {"time": 25118, "pitch": 59, "duration": 60, "velocity": 65}, {"time": 25118, "pitch": 62, "duration": 60, "velocity": 65}, {"time": 25118, "pitch": 66, "duration": 60, "velocity": 65}, {"time": 25438, "pitch": 59, "duration": 138, "velocity": 75}, {"time": 25438, "pitch": 62, "duration": 127, "velocity": 75}, {"time": 25438, "pitch": 66, "duration": 127, "velocity": 75}, {"time": 25598, "pitch": 59, "duration": 60, "velocity": 65}, {"time": 25598, "pitch": 62, "duration": 60, "velocity": 65}, {"time": 25598, "pitch": 66, "duration": 60, "velocity": 65}, {"time": 25678, "pitch": 59, "duration": 138, "velocity": 75}, {"time": 25678, "pitch": 62, "duration": 127, "velocity": 75}, {"time": 25678, "pitch": 66, "duration": 127, "velocity": 75}, {"time": 25838, "pitch": 59, "duration": 60, "velocity": 85}, {"time": 25838, "pitch": 62, "duration": 60, "velocity": 85}, {"time": 25838, "pitch": 66, "duration": 60, "velocity": 85}, {"time": 28561, "pitch": 61, "duration": 127, "velocity": 57}, {"time": 28561, "pitch": 64, "duration": 138, "velocity": 59}, {"time": 28561, "pitch": 69, "duration": 127, "velocity": 60}, {"time": 28721, "pitch": 61, "duration": 60, "velocity": 90}, {"time": 28721, "pitch": 64, "duration": 60, "velocity": 90}, {"time": 28721, "pitch": 69, "duration": 60, "velocity": 90}, {"time": 28801, "pitch": 61, "duration": 127, "velocity": 75}, {"time": 28801, "pitch": 64, "duration": 138, "velocity": 75}, {"time": 28801, "pitch": 69, "duration": 127, "velocity": 75}, {"time": 28961, "pitch": 61, "duration": 60, "velocity": 65}, {"time": 28961, "pitch": 64, "duration": 60, "velocity": 65}, {"time": 28961, "pitch": 69, "duration": 60, "velocity": 65}, {"time": 29281, "pitch": 61, "duration": 127, "velocity": 75}, {"time": 29281, "pitch": 64, "duration": 138, "velocity": 75}, {"time": 29281, "pitch": 69, "duration": 127, "velocity": 75}, {"time": 29442, "pitch": 61, "duration": 60, "velocity": 65}, {"time": 29442, "pitch": 64, "duration": 60, "velocity": 65}, {"time": 29442, "pitch": 69, "duration": 60, "velocity": 65}, {"time": 29522, "pitch": 61, "duration": 127, "velocity": 75}, {"time": 29522, "pitch": 64, "duration": 138, "velocity": 75}, {"time": 29522, "pitch": 69, "duration": 127, "velocity": 75}, {"time": 29682, "pitch": 61, "duration": 60, "velocity": 85}, {"time": 29682, "pitch": 64, "duration": 60, "velocity": 85}, {"time": 29682, "pitch": 69, "duration": 60, "velocity": 85}, {"time": 47758, "pitch": 67, "duration": 127, "velocity": 57}, {"time": 47758, "pitch": 71, "duration": 138, "velocity": 59}, {"time": 47758, "pitch": 76, "duration": 127, "velocity": 60}, {"time": 47918, "pitch": 67, "duration": 61, "velocity": 90}, {"time": 47918, "pitch": 71, "duration": 61, "velocity": 90}, {"time": 47918, "pitch": 76, "duration": 61, "velocity": 90}, {"time": 47999, "pitch": 67, "duration": 127, "velocity": 75}, {"time": 47999, "pitch": 71, "duration": 138, "velocity": 75}, {"time": 47999, "pitch": 76, "duration": 127, "velocity": 75}, {"time": 48159, "pitch": 67, "duration": 60, "velocity": 65}, {"time": 48159, "pitch": 71, "duration": 60, "velocity": 65}, {"time": 48159, "pitch": 76, "duration": 60, "velocity": 65}, {"time": 48479, "pitch": 67, "duration": 127, "velocity": 75}, {"time": 48479, "pitch": 71, "duration": 138, "velocity": 75}, {"time": 48479, "pitch": 76, "duration": 127, "velocity": 75}, {"time": 48639, "pitch": 67, "duration": 60, "velocity": 65}, {"time": 48639, "pitch": 71, "duration": 60, "velocity": 65}, {"time": 48639, "pitch": 76, "duration": 60, "velocity": 65}, {"time": 48719, "pitch": 67, "duration": 127, "velocity": 75}, {"time": 48719, "pitch": 71, "duration": 138, "velocity": 75}, {"time": 48719, "pitch": 76, "duration": 127, "velocity": 75}, {"time": 48879, "pitch": 67, "duration": 60, "velocity": 85}, {"time": 48879, "pitch": 71, "duration": 60, "velocity": 85}, {"time": 48879, "pitch": 76, "duration": 60, "velocity": 85}, {"time": 51602, "pitch": 69, "duration": 127, "velocity": 57}, {"time": 51602, "pitch": 74, "duration": 138, "velocity": 59}, {"time": 51602, "pitch": 78, "duration": 127, "velocity": 60}, {"time": 51762, "pitch": 69, "duration": 60, "velocity": 90}, {"time": 51762, "pitch": 74, "duration": 60, "velocity": 90}, {"time": 51762, "pitch": 78, "duration": 60, "velocity": 90}, {"time": 51842, "pitch": 69, "duration": 127, "velocity": 75}, {"time": 51842, "pitch": 74, "duration": 138, "velocity": 75}, {"time": 51842, "pitch": 78, "duration": 127, "velocity": 75}, {"time": 52002, "pitch": 69, "duration": 60, "velocity": 65}, {"time": 52002, "pitch": 74, "duration": 60, "velocity": 65}, {"time": 52002, "pitch": 78, "duration": 60, "velocity": 65}, {"time": 52322, "pitch": 69, "duration": 128, "velocity": 75}, {"time": 52322, "pitch": 74, "duration": 139, "velocity": 75}, {"time": 52322, "pitch": 78, "duration": 128, "velocity": 75}, {"time": 52483, "pitch": 69, "duration": 60, "velocity": 65}, {"time": 52483, "pitch": 74, "duration": 60, "velocity": 65}, {"time": 52483, "pitch": 78, "duration": 60, "velocity": 65}, {"time": 52563, "pitch": 69, "duration": 127, "velocity": 75}, {"time": 52563, "pitch": 74, "duration": 138, "velocity": 75}, {"time": 52563, "pitch": 78, "duration": 127, "velocity": 75}, {"time": 52723, "pitch": 69, "duration": 60, "velocity": 85}, {"time": 52723, "pitch": 74, "duration": 60, "velocity": 85}, {"time": 52723, "pitch": 78, "duration": 60, "velocity": 85}, {"time": 55439, "pitch": 67, "duration": 127, "velocity": 57}, {"time": 55439, "pitch": 71, "duration": 138, "velocity": 59}, {"time": 55439, "pitch": 76, "duration": 127, "velocity": 60}, {"time": 55599, "pitch": 67, "duration": 60, "velocity": 90}, {"time": 55599, "pitch": 71, "duration": 60, "velocity": 90}, {"time": 55599, "pitch": 76, "duration": 60, "velocity": 90}, {"time": 55679, "pitch": 67, "duration": 127, "velocity": 75}, {"time": 55679, "pitch": 71, "duration": 138, "velocity": 75}, {"time": 55679, "pitch": 76, "duration": 127, "velocity": 75}, {"time": 55839, "pitch": 67, "duration": 60, "velocity": 65}, {"time": 55839, "pitch": 71, "duration": 60, "velocity": 65}, {"time": 55839, "pitch": 76, "duration": 60, "velocity": 65}, {"time": 56159, "pitch": 67, "duration": 127, "velocity": 75}, {"time": 56159, "pitch": 71, "duration": 138, "velocity": 75}, {"time": 56159, "pitch": 76, "duration": 127, "velocity": 75}, {"time": 56319, "pitch": 67, "duration": 61, "velocity": 65}, {"time": 56319, "pitch": 71, "duration": 61, "velocity": 65}, {"time": 56319, "pitch": 76, "duration": 61, "velocity": 65}, {"time": 56400, "pitch": 67, "duration": 127, "velocity": 75}, {"time": 56400, "pitch": 71, "duration": 138, "velocity": 75}, {"time": 56400, "pitch": 76, "duration": 127, "velocity": 75}, {"time": 56560, "pitch": 67, "duration": 60, "velocity": 85}, {"time": 56560, "pitch": 71, "duration": 60, "velocity": 85}, {"time": 56560, "pitch": 76, "duration": 60, "velocity": 85}, {"time": 59282, "pitch": 69, "duration": 127, "velocity": 57}, {"time": 59282, "pitch": 74, "duration": 138, "velocity": 59}, {"time": 59282, "pitch": 78, "duration": 127, "velocity": 60}, {"time": 59442, "pitch": 69, "duration": 60, "velocity": 90}, {"time": 59442, "pitch": 74, "duration": 60, "velocity": 90}, {"time": 59442, "pitch": 78, "duration": 60, "velocity": 90}, {"time": 59522, "pitch": 69, "duration": 127, "velocity": 75}, {"time": 59522, "pitch": 74, "duration": 138, "velocity": 75}, {"time": 59522, "pitch": 78, "duration": 127, "velocity": 75}, {"time": 59682, "pitch": 69, "duration": 61, "velocity": 65}, {"time": 59682, "pitch": 74, "duration": 61, "velocity": 65}, {"time": 59682, "pitch": 78, "duration": 61, "velocity": 65}, {"time": 60003, "pitch": 69, "duration": 127, "velocity": 75}, {"time": 60003, "pitch": 74, "duration": 138, "velocity": 75}, {"time": 60003, "pitch": 78, "duration": 127, "velocity": 75}, {"time": 60163, "pitch": 69, "duration": 60, "velocity": 65}, {"time": 60163, "pitch": 74, "duration": 60, "velocity": 65}, {"time": 60163, "pitch": 78, "duration": 60, "velocity": 65}, {"time": 60243, "pitch": 69, "duration": 127, "velocity": 75}, {"time": 60243, "pitch": 74, "duration": 138, "velocity": 75}, {"time": 60243, "pitch": 78, "duration": 127, "velocity": 75}, {"time": 60403, "pitch": 69, "duration": 60, "velocity": 85}, {"time": 60403, "pitch": 74, "duration": 60, "velocity": 85}, {"time": 60403, "pitch": 78, "duration": 60, "velocity": 85}, {"time": 86160, "pitch": 59, "duration": 138, "velocity": 59}, {"time": 86160, "pitch": 62, "duration": 127, "velocity": 57}, {"time": 86160, "pitch": 66, "duration": 127, "velocity": 60}, {"time": 86320, "pitch": 59, "duration": 60, "velocity": 90}, {"time": 86320, "pitch": 62, "duration": 60, "velocity": 90}, {"time": 86320, "pitch": 66, "duration": 60, "velocity": 90}, {"time": 86400, "pitch": 59, "duration": 138, "velocity": 75}, {"time": 86400, "pitch": 62, "duration": 127, "velocity": 75}, {"time": 86400, "pitch": 66, "duration": 127, "velocity": 75}, {"time": 86560, "pitch": 59, "duration": 60, "velocity": 65}, {"time": 86560, "pitch": 62, "duration": 60, "velocity": 65}, {"time": 86560, "pitch": 66, "duration": 60, "velocity": 65}, {"time": 86881, "pitch": 59, "duration": 138, "velocity": 75}, {"time": 86881, "pitch": 62, "duration": 127, "velocity": 75}, {"time": 86881, "pitch": 66, "duration": 127, "velocity": 75}, {"time": 87041, "pitch": 59, "duration": 60, "velocity": 65}, {"time": 87041, "pitch": 62, "duration": 60, "velocity": 65}, {"time": 87041, "pitch": 66, "duration": 60, "velocity": 65}, {"time": 87121, "pitch": 59, "duration": 138, "velocity": 75}, {"time": 87121, "pitch": 62, "duration": 127, "velocity": 75}, {"time": 87121, "pitch": 66, "duration": 127, "velocity": 75}, {"time": 87281, "pitch": 59, "duration": 60, "velocity": 85}, {"time": 87281, "pitch": 62, "duration": 60, "velocity": 85}, {"time": 87281, "pitch": 66, "duration": 60, "velocity": 85}, {"time": 89997, "pitch": 61, "duration": 127, "velocity": 57}, {"time": 89997, "pitch": 64, "duration": 138, "velocity": 59}, {"time": 89997, "pitch": 69, "duration": 127, "velocity": 60}, {"time": 90157, "pitch": 61, "duration": 60, "velocity": 90}, {"time": 90157, "pitch": 64, "duration": 60, "velocity": 90}, {"time": 90157, "pitch": 69, "duration": 60, "velocity": 90}, {"time": 90237, "pitch": 61, "duration": 127, "velocity": 75}, {"time": 90237, "pitch": 64, "duration": 138, "velocity": 75}, {"time": 90237, "pitch": 69, "duration": 127, "velocity": 75}, {"time": 90397, "pitch": 61, "duration": 60, "velocity": 65}, {"time": 90397, "pitch": 64, "duration": 60, "velocity": 65}, {"time": 90397, "pitch": 69, "duration": 60, "velocity": 65}, {"time": 90718, "pitch": 61, "duration": 127, "velocity": 75}, {"time": 90718, "pitch": 64, "duration": 138, "velocity": 75}, {"time": 90718, "pitch": 69, "duration": 127, "velocity": 75}, {"time": 90878, "pitch": 61, "duration": 60, "velocity": 65}, {"time": 90878, "pitch": 64, "duration": 60, "velocity": 65}, {"time": 90878, "pitch": 69, "duration": 60, "velocity": 65}, {"time": 90958, "pitch": 61, "duration": 127, "velocity": 75}, {"time": 90958, "pitch": 64, "duration": 138, "velocity": 75}, {"time": 90958, "pitch": 69, "duration": 127, "velocity": 75}, {"time": 91118, "pitch": 61, "duration": 60, "velocity": 85}, {"time": 91118, "pitch": 64, "duration": 60, "velocity": 85}, {"time": 91118, "pitch": 69, "duration": 60, "velocity": 85}, {"time": 93840, "pitch": 59, "duration": 139, "velocity": 59}, {"time": 93840, "pitch": 62, "duration": 128, "velocity": 57}, {"time": 93840, "pitch": 66, "duration": 128, "velocity": 60}, {"time": 94001, "pitch": 59, "duration": 60, "velocity": 90}, {"time": 94001, "pitch": 62, "duration": 60, "velocity": 90}, {"time": 94001, "pitch": 66, "duration": 60, "velocity": 90}, {"time": 94081, "pitch": 59, "duration": 138, "velocity": 75}, {"time": 94081, "pitch": 62, "duration": 127, "velocity": 75}, {"time": 94081, "pitch": 66, "duration": 127, "velocity": 75}, {"time": 94241, "pitch": 59, "duration": 60, "velocity": 65}, {"time": 94241, "pitch": 62, "duration": 60, "velocity": 65}, {"time": 94241, "pitch": 66, "duration": 60, "velocity": 65}, {"time": 94561, "pitch": 59, "duration": 138, "velocity": 75}, {"time": 94561, "pitch": 62, "duration": 127, "velocity": 75}, {"time": 94561, "pitch": 66, "duration": 127, "velocity": 75}, {"time": 94721, "pitch": 59, "duration": 60, "velocity": 65}, {"time": 94721, "pitch": 62, "duration": 60, "velocity": 65}, {"time": 94721, "pitch": 66, "duration": 60, "velocity": 65}, {"time": 94801, "pitch": 59, "duration": 138, "velocity": 75}, {"time": 94801, "pitch": 62, "duration": 127, "velocity": 75}, {"time": 94801, "pitch": 66, "duration": 127, "velocity": 75}, {"time": 94961, "pitch": 59, "duration": 60, "velocity": 85}, {"time": 94961, "pitch": 62, "duration": 60, "velocity": 85}, {"time": 94961, "pitch": 66, "duration": 60, "velocity": 85}, {"time": 97677, "pitch": 61, "duration": 127, "velocity": 57}, {"time": 97677, "pitch": 64, "duration": 138, "velocity": 59}, {"time": 97677, "pitch": 69, "duration": 127, "velocity": 60}, {"time": 97837, "pitch": 61, "duration": 61, "velocity": 90}, {"time": 97837, "pitch": 64, "duration": 61, "velocity": 90}, {"time": 97837, "pitch": 69, "duration": 61, "velocity": 90}, {"time": 97918, "pitch": 61, "duration": 127, "velocity": 75}, {"time": 97918, "pitch": 64, "duration": 138, "velocity": 75}, {"time": 97918, "pitch": 69, "duration": 127, "velocity": 75}, {"time": 98078, "pitch": 61, "duration": 60, "velocity": 65}, {"time": 98078, "pitch": 64, "duration": 60, "velocity": 65}, {"time": 98078, "pitch": 69, "duration": 60, "velocity": 65}, {"time": 98398, "pitch": 61, "duration": 127, "velocity": 75}, {"time": 98398, "pitch": 64, "duration": 138, "velocity": 75}, {"time": 98398, "pitch": 69, "duration": 127, "velocity": 75}, {"time": 98558, "pitch": 61, "duration": 60, "velocity": 65}, {"time": 98558, "pitch": 64, "duration": 60, "velocity": 65}, {"time": 98558, "pitch": 69, "duration": 60, "velocity": 65}, {"time": 98638, "pitch": 61, "duration": 127, "velocity": 75}, {"time": 98638, "pitch": 64, "duration": 138, "velocity": 75}, {"time": 98638, "pitch": 69, "duration": 127, "velocity": 75}, {"time": 98798, "pitch": 61, "duration": 60, "velocity": 85}, {"time": 98798, "pitch": 64, "duration": 60, "velocity": 85}, {"time": 98798, "pitch": 69, "duration": 60, "velocity": 85}, {"time": 16797, "pitch": 67, "duration": 144, "velocity": 80}, {"time": 16832, "pitch": 71, "duration": 127, "velocity": 85}, {"time": 16867, "pitch": 74, "duration": 82, "velocity": 90}, {"time": 16902, "pitch": 78, "duration": 98, "velocity": 95}, {"time": 20610, "pitch": 66, "duration": 175, "velocity": 80}, {"time": 20640, "pitch": 69, "duration": 138, "velocity": 85}, {"time": 20670, "pitch": 73, "duration": 109, "velocity": 90}, {"time": 20700, "pitch": 76, "duration": 112, "velocity": 95}, {"time": 24477, "pitch": 67, "duration": 144, "velocity": 80}, {"time": 24512, "pitch": 71, "duration": 127, "velocity": 85}, {"time": 24547, "pitch": 74, "duration": 82, "velocity": 90}, {"time": 24582, "pitch": 78, "duration": 98, "velocity": 95}, {"time": 28290, "pitch": 66, "duration": 176, "velocity": 80}, {"time": 28321, "pitch": 69, "duration": 138, "velocity": 85}, {"time": 28351, "pitch": 73, "duration": 109, "velocity": 90}, {"time": 28381, "pitch": 76, "duration": 112, "velocity": 95}, {"time": 47518, "pitch": 71, "duration": 78, "velocity": 85}, {"time": 47518, "pitch": 76, "duration": 73, "velocity": 111}, {"time": 47518, "pitch": 79, "duration": 80, "velocity": 95}, {"time": 50881, "pitch": 71, "duration": 73, "velocity": 86}, {"time": 50881, "pitch": 76, "duration": 60, "velocity": 100}, {"time": 50881, "pitch": 79, "duration": 73, "velocity": 81}, {"time": 51362, "pitch": 69, "duration": 56, "velocity": 90}, {"time": 51362, "pitch": 74, "duration": 52, "velocity": 104}, {"time": 51362, "pitch": 78, "duration": 60, "velocity": 98}, {"time": 51362, "pitch": 81, "duration": 60, "velocity": 90}, {"time": 54718, "pitch": 74, "duration": 71, "velocity": 76}, {"time": 54718, "pitch": 78, "duration": 58, "velocity": 100}, {"time": 54718, "pitch": 83, "duration": 74, "velocity": 90}, {"time": 55198, "pitch": 76, "duration": 58, "velocity": 81}, {"time": 55198, "pitch": 79, "duration": 51, "velocity": 104}, {"time": 55198, "pitch": 84, "duration": 68, "velocity": 100}, {"time": 57120, "pitch": 79, "duration": 46, "velocity": 90}, {"time": 57120, "pitch": 84, "duration": 40, "velocity": 112}, {"time": 57120, "pitch": 88, "duration": 53, "velocity": 98}, {"time": 58561, "pitch": 79, "duration": 67, "velocity": 87}, {"time": 58561, "pitch": 83, "duration": 48, "velocity": 104}, {"time": 58561, "pitch": 88, "duration": 55, "velocity": 90}, {"time": 59042, "pitch": 78, "duration": 45, "velocity": 87}, {"time": 59042, "pitch": 81, "duration": 47, "velocity": 104}, {"time": 59042, "pitch": 86, "duration": 49, "velocity": 100}, {"time": 60957, "pitch": 74, "duration": 42, "velocity": 85}, {"time": 60957, "pitch": 78, "duration": 45, "velocity": 111}, {"time": 60957, "pitch": 83, "duration": 59, "velocity": 90}, {"time": 61918, "pitch": 83, "duration": 46, "velocity": 64}, {"time": 61918, "pitch": 86, "duration": 40, "velocity": 100}, {"time": 61918, "pitch": 90, "duration": 48, "velocity": 90}, {"time": 62879, "pitch": 69, "duration": 47, "velocity": 79}, {"time": 62879, "pitch": 72, "duration": 47, "velocity": 93}, {"time": 62879, "pitch": 76, "duration": 44, "velocity": 85}, {"time": 62879, "pitch": 79, "duration": 53, "velocity": 87}, {"time": 64801, "pitch": 81, "duration": 56, "velocity": 81}, {"time": 64801, "pitch": 84, "duration": 46, "velocity": 100}, {"time": 64801, "pitch": 88, "duration": 43, "velocity": 93}, {"time": 64801, "pitch": 91, "duration": 48, "velocity": 100}, {"time": 85920, "pitch": 67, "duration": 144, "velocity": 80}, {"time": 85955, "pitch": 71, "duration": 127, "velocity": 85}, {"time": 85990, "pitch": 74, "duration": 82, "velocity": 90}, {"time": 86025, "pitch": 78, "duration": 98, "velocity": 95}, {"time": 89727, "pitch": 66, "duration": 175, "velocity": 80}, {"time": 89757, "pitch": 69, "duration": 138, "velocity": 85}, {"time": 89787, "pitch": 73, "duration": 109, "velocity": 90}, {"time": 89817, "pitch": 76, "duration": 112, "velocity": 95}, {"time": 93600, "pitch": 67, "duration": 144, "velocity": 80}, {"time": 93635, "pitch": 71, "duration": 127, "velocity": 85}, {"time": 93670, "pitch": 74, "duration": 82, "velocity": 90}, {"time": 93705, "pitch": 78, "duration": 98, "velocity": 95}, {"time": 97408, "pitch": 66, "duration": 174, "velocity": 80}, {"time": 97437, "pitch": 69, "duration": 138, "velocity": 85}, {"time": 97467, "pitch": 73, "duration": 109, "velocity": 90}, {"time": 97497, "pitch": 76, "duration": 112, "velocity": 95}, {"time": 482, "pitch": 42, "duration": 60, "velocity": 90}, {"time": 642, "pitch": 48, "duration": 10, "velocity": 85}, {"time": 652, "pitch": 48, "duration": 128, "velocity": 117}, {"time": 882, "pitch": 41, "duration": 148, "velocity": 105}, {"time": 962, "pitch": 36, "duration": 10, "velocity": 94}, {"time": 1202, "pitch": 38, "duration": 10, "velocity": 36}, {"time": 1262, "pitch": 38, "duration": 10, "velocity": 52}, {"time": 1322, "pitch": 38, "duration": 10, "velocity": 79}, {"time": 1383, "pitch": 38, "duration": 10, "velocity": 99}, {"time": 1443, "pitch": 36, "duration": 10, "velocity": 106}, {"time": 1443, "pitch": 42, "duration": 58, "velocity": 100}, {"time": 1683, "pitch": 36, "duration": 10, "velocity": 99}, {"time": 1683, "pitch": 42, "duration": 40, "velocity": 59}, {"time": 1683, "pitch": 69, "duration": 60, "velocity": 90}, {"time": 1843, "pitch": 82, "duration": 34, "velocity": 90}, {"time": 1923, "pitch": 40, "duration": 10, "velocity": 116}, {"time": 1923, "pitch": 42, "duration": 45, "velocity": 104}, {"time": 2160, "pitch": 36, "duration": 10, "velocity": 73}, {"time": 2160, "pitch": 42, "duration": 38, "velocity": 65}, {"time": 2318, "pitch": 28, "duration": 10, "velocity": 46}, {"time": 2397, "pitch": 36, "duration": 10, "velocity": 71}, {"time": 2397, "pitch": 42, "duration": 46, "velocity": 104}, {"time": 2557, "pitch": 28, "duration": 10, "velocity": 66}, {"time": 2637, "pitch": 36, "duration": 10, "velocity": 105}, {"time": 2637, "pitch": 42, "duration": 38, "velocity": 70}, {"time": 2877, "pitch": 40, "duration": 10, "velocity": 108}, {"time": 2877, "pitch": 42, "duration": 49, "velocity": 117}, {"time": 3118, "pitch": 36, "duration": 10, "velocity": 87}, {"time": 3118, "pitch": 42, "duration": 38, "velocity": 57}, {"time": 3278, "pitch": 28, "duration": 10, "velocity": 42}, {"time": 3358, "pitch": 36, "duration": 10, "velocity": 106}, {"time": 3358, "pitch": 42, "duration": 47, "velocity": 104}, {"time": 3598, "pitch": 36, "duration": 10, "velocity": 115}, {"time": 3598, "pitch": 42, "duration": 41, "velocity": 64}, {"time": 3838, "pitch": 40, "duration": 10, "velocity": 111}, {"time": 3838, "pitch": 42, "duration": 55, "velocity": 111}, {"time": 4078, "pitch": 36, "duration": 10, "velocity": 80}, {"time": 4078, "pitch": 42, "duration": 48, "velocity": 59}, {"time": 4078, "pitch": 69, "duration": 34, "velocity": 85}, {"time": 4239, "pitch": 28, "duration": 10, "velocity": 46}, {"time": 4239, "pitch": 82, "duration": 60, "velocity": 90}, {"time": 4319, "pitch": 36, "duration": 10, "velocity": 105}, {"time": 4319, "pitch": 42, "duration": 55, "velocity": 112}, {"time": 4479, "pitch": 28, "duration": 10, "velocity": 46}, {"time": 4559, "pitch": 36, "duration": 10, "velocity": 92}, {"time": 4559, "pitch": 42, "duration": 45, "velocity": 57}, {"time": 4799, "pitch": 40, "duration": 10, "velocity": 108}, {"time": 4799, "pitch": 42, "duration": 60, "velocity": 112}, {"time": 5039, "pitch": 36, "duration": 10, "velocity": 94}, {"time": 5039, "pitch": 42, "duration": 41, "velocity": 61}, {"time": 5199, "pitch": 28, "duration": 10, "velocity": 42}, {"time": 5279, "pitch": 36, "duration": 10, "velocity": 106}, {"time": 5279, "pitch": 42, "duration": 59, "velocity": 100}, {"time": 5520, "pitch": 36, "duration": 10, "velocity": 99}, {"time": 5520, "pitch": 42, "duration": 40, "velocity": 59}, {"time": 5760, "pitch": 40, "duration": 10, "velocity": 116}, {"time": 5760, "pitch": 42, "duration": 46, "velocity": 104}, {"time": 6000, "pitch": 36, "duration": 10, "velocity": 73}, {"time": 6000, "pitch": 42, "duration": 39, "velocity": 65}, {"time": 6160, "pitch": 28, "duration": 10, "velocity": 46}, {"time": 6240, "pitch": 36, "duration": 10, "velocity": 71}, {"time": 6240, "pitch": 42, "duration": 46, "velocity": 104}, {"time": 6240, "pitch": 69, "duration": 34, "velocity": 85}, {"time": 6400, "pitch": 28, "duration": 10, "velocity": 66}, {"time": 6400, "pitch": 82, "duration": 61, "velocity": 90}, {"time": 6481, "pitch": 36, "duration": 10, "velocity": 105}, {"time": 6481, "pitch": 42, "duration": 38, "velocity": 70}, {"time": 6721, "pitch": 40, "duration": 10, "velocity": 108}, {"time": 6721, "pitch": 42, "duration": 49, "velocity": 117}, {"time": 6961, "pitch": 36, "duration": 10, "velocity": 87}, {"time": 6961, "pitch": 42, "duration": 38, "velocity": 57}, {"time": 7121, "pitch": 28, "duration": 10, "velocity": 42}, {"time": 7201, "pitch": 36, "duration": 10, "velocity": 106}, {"time": 7201, "pitch": 42, "duration": 47, "velocity": 104}, {"time": 7441, "pitch": 36, "duration": 10, "velocity": 115}, {"time": 7441, "pitch": 42, "duration": 41, "velocity": 64}, {"time": 7682, "pitch": 40, "duration": 10, "velocity": 111}, {"time": 7682, "pitch": 42, "duration": 55, "velocity": 111}, {"time": 7922, "pitch": 36, "duration": 10, "velocity": 80}, {"time": 7922, "pitch": 42, "duration": 48, "velocity": 59}, {"time": 8082, "pitch": 28, "duration": 10, "velocity": 46}, {"time": 8162, "pitch": 36, "duration": 10, "velocity": 105}, {"time": 8162, "pitch": 42, "duration": 55, "velocity": 112}, {"time": 8322, "pitch": 28, "duration": 10, "velocity": 46}, {"time": 8402, "pitch": 36, "duration": 10, "velocity": 92}, {"time": 8402, "pitch": 42, "duration": 45, "velocity": 57}, {"time": 8642, "pitch": 40, "duration": 10, "velocity": 108}, {"time": 8642, "pitch": 42, "duration": 61, "velocity": 112}, {"time": 8883, "pitch": 36, "duration": 10, "velocity": 94}, {"time": 8883, "pitch": 42, "duration": 41, "velocity": 61}, {"time": 8883, "pitch": 69, "duration": 34, "velocity": 85}, {"time": 9043, "pitch": 28, "duration": 10, "velocity": 42}, {"time": 9043, "pitch": 82, "duration": 60, "velocity": 90}, {"time": 9123, "pitch": 36, "duration": 10, "velocity": 106}, {"time": 9123, "pitch": 42, "duration": 57, "velocity": 100}, {"time": 9360, "pitch": 36, "duration": 10, "velocity": 99}, {"time": 9360, "pitch": 42, "duration": 39, "velocity": 59}, {"time": 9360, "pitch": 69, "duration": 59, "velocity": 90}, {"time": 9518, "pitch": 82, "duration": 33, "velocity": 90}, {"time": 9597, "pitch": 40, "duration": 10, "velocity": 116}, {"time": 9597, "pitch": 42, "duration": 46, "velocity": 104}, {"time": 9837, "pitch": 36, "duration": 10, "velocity": 73}, {"time": 9837, "pitch": 42, "duration": 39, "velocity": 65}, {"time": 9997, "pitch": 28, "duration": 10, "velocity": 46}, {"time": 10077, "pitch": 36, "duration": 10, "velocity": 71}, {"time": 10077, "pitch": 42, "duration": 46, "velocity": 104}, {"time": 10237, "pitch": 28, "duration": 10, "velocity": 66}, {"time": 10317, "pitch": 36, "duration": 10, "velocity": 105}, {"time": 10317, "pitch": 42, "duration": 39, "velocity": 70}, {"time": 10558, "pitch": 40, "duration": 10, "velocity": 108}, {"time": 10558, "pitch": 42, "duration": 49, "velocity": 117}, {"time": 10798, "pitch": 36, "duration": 10, "velocity": 87}, {"time": 10798, "pitch": 42, "duration": 38, "velocity": 57}, {"time": 10958, "pitch": 28, "duration": 10, "velocity": 42}, {"time": 11038, "pitch": 36, "duration": 10, "velocity": 106}, {"time": 11038, "pitch": 42, "duration": 47, "velocity": 104}, {"time": 11278, "pitch": 36, "duration": 10, "velocity": 115}, {"time": 11278, "pitch": 42, "duration": 41, "velocity": 64}, {"time": 11519, "pitch": 40, "duration": 10, "velocity": 111}, {"time": 11519, "pitch": 42, "duration": 55, "velocity": 111}, {"time": 11759, "pitch": 36, "duration": 10, "velocity": 80}, {"time": 11759, "pitch": 42, "duration": 48, "velocity": 59}, {"time": 11759, "pitch": 69, "duration": 34, "velocity": 85}, {"time": 11919, "pitch": 28, "duration": 10, "velocity": 46}, {"time": 11919, "pitch": 82, "duration": 60, "velocity": 90}, {"time": 11999, "pitch": 36, "duration": 10, "velocity": 105}, {"time": 11999, "pitch": 42, "duration": 55, "velocity": 112}, {"time": 12159, "pitch": 28, "duration": 10, "velocity": 46}, {"time": 12239, "pitch": 36, "duration": 10, "velocity": 92}, {"time": 12239, "pitch": 42, "duration": 45, "velocity": 57}, {"time": 12479, "pitch": 40, "duration": 10, "velocity": 108}, {"time": 12479, "pitch": 42, "duration": 60, "velocity": 112}, {"time": 12720, "pitch": 36, "duration": 10, "velocity": 94}, {"time": 12720, "pitch": 42, "duration": 41, "velocity": 61}, {"time": 12880, "pitch": 28, "duration": 10, "velocity": 42}, {"time": 12960, "pitch": 36, "duration": 10, "velocity": 106}, {"time": 12960, "pitch": 42, "duration": 58, "velocity": 100}, {"time": 13200, "pitch": 36, "duration": 10, "velocity": 99}, {"time": 13200, "pitch": 42, "duration": 40, "velocity": 59}, {"time": 13440, "pitch": 40, "duration": 10, "velocity": 116}, {"time": 13440, "pitch": 42, "duration": 46, "velocity": 104}, {"time": 13680, "pitch": 36, "duration": 10, "velocity": 73}, {"time": 13680, "pitch": 42, "duration": 40, "velocity": 65}, {"time": 13841, "pitch": 28, "duration": 10, "velocity": 46}, {"time": 13921, "pitch": 36, "duration": 10, "velocity": 71}, {"time": 13921, "pitch": 42, "duration": 46, "velocity": 104}, {"time": 13921, "pitch": 69, "duration": 34, "velocity": 85}, {"time": 14081, "pitch": 28, "duration": 10, "velocity": 66}, {"time": 14081, "pitch": 82, "duration": 60, "velocity": 90}, {"time": 14161, "pitch": 36, "duration": 10, "velocity": 105}, {"time": 14161, "pitch": 42, "duration": 38, "velocity": 70}, {"time": 14401, "pitch": 40, "duration": 10, "velocity": 108}, {"time": 14401, "pitch": 42, "duration": 49, "velocity": 117}, {"time": 14641, "pitch": 36, "duration": 10, "velocity": 87}, {"time": 14641, "pitch": 42, "duration": 38, "velocity": 57}, {"time": 14801, "pitch": 28, "duration": 10, "velocity": 42}, {"time": 14882, "pitch": 36, "duration": 10, "velocity": 106}, {"time": 14882, "pitch": 42, "duration": 47, "velocity": 104}, {"time": 15122, "pitch": 36, "duration": 10, "velocity": 115}, {"time": 15122, "pitch": 42, "duration": 41, "velocity": 64}, {"time": 15362, "pitch": 40, "duration": 10, "velocity": 111}, {"time": 15362, "pitch": 42, "duration": 55, "velocity": 111}, {"time": 15602, "pitch": 36, "duration": 10, "velocity": 80}, {"time": 15602, "pitch": 42, "duration": 48, "velocity": 59}, {"time": 15762, "pitch": 28, "duration": 10, "velocity": 46}, {"time": 15842, "pitch": 36, "duration": 10, "velocity": 105}, {"time": 15842, "pitch": 42, "duration": 55, "velocity": 112}, {"time": 16003, "pitch": 28, "duration": 10, "velocity": 46}, {"time": 16083, "pitch": 36, "duration": 10, "velocity": 92}, {"time": 16083, "pitch": 42, "duration": 45, "velocity": 57}, {"time": 16323, "pitch": 38, "duration": 10, "velocity": 114}, {"time": 16323, "pitch": 40, "duration": 10, "velocity": 108}, {"time": 16323, "pitch": 42, "duration": 59, "velocity": 112}, {"time": 16481, "pitch": 38, "duration": 10, "velocity": 84}, {"time": 16560, "pitch": 36, "duration": 10, "velocity": 94}, {"time": 16560, "pitch": 42, "duration": 40, "velocity": 61}, {"time": 16560, "pitch": 45, "duration": 59, "velocity": 110}, {"time": 16560, "pitch": 69, "duration": 33, "velocity": 85}, {"time": 16718, "pitch": 28, "duration": 10, "velocity": 42}, {"time": 16718, "pitch": 82, "duration": 59, "velocity": 90}, {"time": 16797, "pitch": 36, "duration": 10, "velocity": 106}, {"time": 16797, "pitch": 42, "duration": 58, "velocity": 100}, {"time": 16797, "pitch": 57, "duration": 60, "velocity": 90}, {"time": 17037, "pitch": 36, "duration": 10, "velocity": 99}, {"time": 17037, "pitch": 42, "duration": 40, "velocity": 59}, {"time": 17037, "pitch": 69, "duration": 60, "velocity": 90}, {"time": 17197, "pitch": 82, "duration": 34, "velocity": 90}, {"time": 17277, "pitch": 40, "duration": 10, "velocity": 116}, {"time": 17277, "pitch": 42, "duration": 46, "velocity": 104}, {"time": 17277, "pitch": 54, "duration": 54, "velocity": 117}, {"time": 17517, "pitch": 36, "duration": 10, "velocity": 73}, {"time": 17517, "pitch": 42, "duration": 39, "velocity": 65}, {"time": 17678, "pitch": 28, "duration": 10, "velocity": 46}, {"time": 17758, "pitch": 36, "duration": 10, "velocity": 71}, {"time": 17758, "pitch": 42, "duration": 46, "velocity": 104}, {"time": 17918, "pitch": 28, "duration": 10, "velocity": 66}, {"time": 17998, "pitch": 36, "duration": 10, "velocity": 105}, {"time": 17998, "pitch": 42, "duration": 38, "velocity": 70}, {"time": 18238, "pitch": 40, "duration": 10, "velocity": 108}, {"time": 18238, "pitch": 42, "duration": 49, "velocity": 117}, {"time": 18478, "pitch": 36, "duration": 10, "velocity": 87}, {"time": 18478, "pitch": 42, "duration": 38, "velocity": 57}, {"time": 18638, "pitch": 28, "duration": 10, "velocity": 42}, {"time": 18718, "pitch": 36, "duration": 10, "velocity": 106}, {"time": 18718, "pitch": 42, "duration": 48, "velocity": 104}, {"time": 18959, "pitch": 36, "duration": 10, "velocity": 115}, {"time": 18959, "pitch": 42, "duration": 41, "velocity": 64}, {"time": 19199, "pitch": 40, "duration": 10, "velocity": 111}, {"time": 19199, "pitch": 42, "duration": 55, "velocity": 111}, {"time": 19199, "pitch": 54, "duration": 60, "velocity": 112}, {"time": 19439, "pitch": 36, "duration": 10, "velocity": 80}, {"time": 19439, "pitch": 42, "duration": 48, "velocity": 59}, {"time": 19439, "pitch": 69, "duration": 34, "velocity": 85}, {"time": 19599, "pitch": 28, "duration": 10, "velocity": 46}, {"time": 19599, "pitch": 82, "duration": 60, "velocity": 90}, {"time": 19679, "pitch": 36, "duration": 10, "velocity": 105}, {"time": 19679, "pitch": 42, "duration": 55, "velocity": 112}, {"time": 19839, "pitch": 28, "duration": 10, "velocity": 46}, {"time": 19920, "pitch": 36, "duration": 10, "velocity": 92}, {"time": 19920, "pitch": 42, "duration": 45, "velocity": 57}, {"time": 20160, "pitch": 39, "duration": 96, "velocity": 120}, {"time": 20160, "pitch": 40, "duration": 10, "velocity": 108}, {"time": 20160, "pitch": 42, "duration": 60, "velocity": 112}, {"time": 20400, "pitch": 36, "duration": 10, "velocity": 94}, {"time": 20400, "pitch": 42, "duration": 41, "velocity": 61}, {"time": 20560, "pitch": 28, "duration": 10, "velocity": 42}, {"time": 20640, "pitch": 36, "duration": 10, "velocity": 106}, {"time": 20640, "pitch": 42, "duration": 58, "velocity": 100}, {"time": 20880, "pitch": 36, "duration": 10, "velocity": 99}, {"time": 20880, "pitch": 42, "duration": 40, "velocity": 59}, {"time": 21121, "pitch": 40, "duration": 10, "velocity": 116}, {"time": 21121, "pitch": 42, "duration": 46, "velocity": 104}, {"time": 21121, "pitch": 54, "duration": 71, "velocity": 122}, {"time": 21361, "pitch": 36, "duration": 10, "velocity": 73}, {"time": 21361, "pitch": 42, "duration": 39, "velocity": 65}, {"time": 21521, "pitch": 28, "duration": 10, "velocity": 46}, {"time": 21601, "pitch": 36, "duration": 10, "velocity": 71}, {"time": 21601, "pitch": 42, "duration": 46, "velocity": 104}, {"time": 21601, "pitch": 69, "duration": 34, "velocity": 85}, {"time": 21761, "pitch": 28, "duration": 10, "velocity": 66}, {"time": 21761, "pitch": 82, "duration": 60, "velocity": 90}, {"time": 21841, "pitch": 36, "duration": 10, "velocity": 105}, {"time": 21841, "pitch": 42, "duration": 38, "velocity": 70}, {"time": 22081, "pitch": 40, "duration": 10, "velocity": 108}, {"time": 22081, "pitch": 42, "duration": 49, "velocity": 117}, {"time": 22322, "pitch": 36, "duration": 10, "velocity": 87}, {"time": 22322, "pitch": 42, "duration": 38, "velocity": 57}, {"time": 22482, "pitch": 28, "duration": 10, "velocity": 42}, {"time": 22562, "pitch": 36, "duration": 10, "velocity": 106}, {"time": 22562, "pitch": 42, "duration": 47, "velocity": 104}, {"time": 22802, "pitch": 36, "duration": 10, "velocity": 115}, {"time": 22802, "pitch": 42, "duration": 41, "velocity": 64}, {"time": 23042, "pitch": 40, "duration": 10, "velocity": 111}, {"time": 23042, "pitch": 42, "duration": 55, "velocity": 111}, {"time": 23042, "pitch": 54, "duration": 61, "velocity": 121}, {"time": 23283, "pitch": 36, "duration": 10, "velocity": 80}, {"time": 23283, "pitch": 42, "duration": 48, "velocity": 59}, {"time": 23443, "pitch": 28, "duration": 10, "velocity": 46}, {"time": 23523, "pitch": 36, "duration": 10, "velocity": 105}, {"time": 23523, "pitch": 42, "duration": 55, "velocity": 112}, {"time": 23683, "pitch": 28, "duration": 10, "velocity": 46}, {"time": 23763, "pitch": 36, "duration": 10, "velocity": 92}, {"time": 23763, "pitch": 42, "duration": 45, "velocity": 57}, {"time": 24003, "pitch": 38, "duration": 10, "velocity": 114}, {"time": 24003, "pitch": 39, "duration": 76, "velocity": 114}, {"time": 24003, "pitch": 40, "duration": 10, "velocity": 108}, {"time": 24003, "pitch": 42, "duration": 59, "velocity": 112}, {"time": 24161, "pitch": 38, "duration": 10, "velocity": 84}, {"time": 24240, "pitch": 36, "duration": 10, "velocity": 94}, {"time": 24240, "pitch": 42, "duration": 41, "velocity": 61}, {"time": 24240, "pitch": 69, "duration": 34, "velocity": 85}, {"time": 24398, "pitch": 28, "duration": 10, "velocity": 42}, {"time": 24398, "pitch": 82, "duration": 59, "velocity": 90}, {"time": 24477, "pitch": 36, "duration": 10, "velocity": 106}, {"time": 24477, "pitch": 42, "duration": 58, "velocity": 100}, {"time": 24477, "pitch": 57, "duration": 60, "velocity": 90}, {"time": 24717, "pitch": 36, "duration": 10, "velocity": 99}, {"time": 24717, "pitch": 42, "duration": 40, "velocity": 59}, {"time": 24717, "pitch": 69, "duration": 60, "velocity": 90}, {"time": 24877, "pitch": 82, "duration": 34, "velocity": 90}, {"time": 24958, "pitch": 40, "duration": 10, "velocity": 116}, {"time": 24958, "pitch": 42, "duration": 46, "velocity": 104}, {"time": 24958, "pitch": 54, "duration": 69, "velocity": 121}, {"time": 25198, "pitch": 36, "duration": 10, "velocity": 73}, {"time": 25198, "pitch": 42, "duration": 39, "velocity": 65}, {"time": 25358, "pitch": 28, "duration": 10, "velocity": 46}, {"time": 25438, "pitch": 36, "duration": 10, "velocity": 71}, {"time": 25438, "pitch": 42, "duration": 46, "velocity": 104}, {"time": 25598, "pitch": 28, "duration": 10, "velocity": 66}, {"time": 25678, "pitch": 36, "duration": 10, "velocity": 105}, {"time": 25678, "pitch": 42, "duration": 38, "velocity": 70}, {"time": 25918, "pitch": 40, "duration": 10, "velocity": 108}, {"time": 25918, "pitch": 42, "duration": 49, "velocity": 117}, {"time": 26159, "pitch": 36, "duration": 10, "velocity": 87}, {"time": 26159, "pitch": 42, "duration": 38, "velocity": 57}, {"time": 26319, "pitch": 28, "duration": 10, "velocity": 42}, {"time": 26399, "pitch": 36, "duration": 10, "velocity": 106}, {"time": 26399, "pitch": 42, "duration": 47, "velocity": 104}, {"time": 26639, "pitch": 36, "duration": 10, "velocity": 115}, {"time": 26639, "pitch": 42, "duration": 41, "velocity": 64}, {"time": 26879, "pitch": 40, "duration": 10, "velocity": 111}, {"time": 26879, "pitch": 42, "duration": 55, "velocity": 111}, {"time": 26879, "pitch": 54, "duration": 69, "velocity": 122}, {"time": 27119, "pitch": 36, "duration": 10, "velocity": 80}, {"time": 27119, "pitch": 42, "duration": 48, "velocity": 59}, {"time": 27119, "pitch": 69, "duration": 34, "velocity": 85}, {"time": 27280, "pitch": 28, "duration": 10, "velocity": 46}, {"time": 27280, "pitch": 82, "duration": 60, "velocity": 90}, {"time": 27360, "pitch": 36, "duration": 10, "velocity": 105}, {"time": 27360, "pitch": 42, "duration": 55, "velocity": 112}, {"time": 27520, "pitch": 28, "duration": 10, "velocity": 46}, {"time": 27600, "pitch": 36, "duration": 10, "velocity": 92}, {"time": 27600, "pitch": 42, "duration": 45, "velocity": 57}, {"time": 27840, "pitch": 39, "duration": 79, "velocity": 121}, {"time": 27840, "pitch": 40, "duration": 10, "velocity": 108}, {"time": 27840, "pitch": 42, "duration": 60, "velocity": 112}, {"time": 28080, "pitch": 36, "duration": 10, "velocity": 94}, {"time": 28080, "pitch": 42, "duration": 41, "velocity": 61}, {"time": 28240, "pitch": 28, "duration": 10, "velocity": 42}, {"time": 28321, "pitch": 36, "duration": 10, "velocity": 106}, {"time": 28321, "pitch": 42, "duration": 58, "velocity": 100}, {"time": 28561, "pitch": 36, "duration": 10, "velocity": 99}, {"time": 28561, "pitch": 42, "duration": 40, "velocity": 59}, {"time": 28801, "pitch": 40, "duration": 10, "velocity": 116}, {"time": 28801, "pitch": 42, "duration": 46, "velocity": 104}, {"time": 28801, "pitch": 54, "duration": 60, "velocity": 122}, {"time": 29041, "pitch": 36, "duration": 10, "velocity": 73}, {"time": 29041, "pitch": 42, "duration": 39, "velocity": 65}, {"time": 29201, "pitch": 28, "duration": 10, "velocity": 46}, {"time": 29281, "pitch": 36, "duration": 10, "velocity": 71}, {"time": 29281, "pitch": 42, "duration": 46, "velocity": 104}, {"time": 29281, "pitch": 69, "duration": 34, "velocity": 85}, {"time": 29442, "pitch": 28, "duration": 10, "velocity": 66}, {"time": 29442, "pitch": 82, "duration": 60, "velocity": 90}, {"time": 29522, "pitch": 36, "duration": 10, "velocity": 105}, {"time": 29522, "pitch": 42, "duration": 38, "velocity": 70}, {"time": 29762, "pitch": 40, "duration": 10, "velocity": 108}, {"time": 29762, "pitch": 42, "duration": 49, "velocity": 117}, {"time": 30002, "pitch": 36, "duration": 10, "velocity": 87}, {"time": 30002, "pitch": 42, "duration": 38, "velocity": 57}, {"time": 30162, "pitch": 28, "duration": 10, "velocity": 42}, {"time": 30242, "pitch": 36, "duration": 10, "velocity": 106}, {"time": 30242, "pitch": 42, "duration": 47, "velocity": 104}, {"time": 30482, "pitch": 36, "duration": 10, "velocity": 115}, {"time": 30482, "pitch": 42, "duration": 41, "velocity": 64}, {"time": 30723, "pitch": 40, "duration": 10, "velocity": 111}, {"time": 30723, "pitch": 42, "duration": 55, "velocity": 111}, {"time": 30723, "pitch": 54, "duration": 74, "velocity": 121}, {"time": 30963, "pitch": 36, "duration": 10, "velocity": 80}, {"time": 30963, "pitch": 42, "duration": 48, "velocity": 59}, {"time": 31123, "pitch": 28, "duration": 10, "velocity": 46}, {"time": 31203, "pitch": 36, "duration": 10, "velocity": 105}, {"time": 31203, "pitch": 42, "duration": 54, "velocity": 112}, {"time": 31361, "pitch": 28, "duration": 10, "velocity": 46}, {"time": 31440, "pitch": 36, "duration": 10, "velocity": 92}, {"time": 31440, "pitch": 42, "duration": 44, "velocity": 57}, {"time": 31677, "pitch": 39, "duration": 102, "velocity": 121}, {"time": 31677, "pitch": 40, "duration": 10, "velocity": 108}, {"time": 31677, "pitch": 42, "duration": 60, "velocity": 112}, {"time": 31837, "pitch": 48, "duration": 60, "velocity": 110}, {"time": 31917, "pitch": 36, "duration": 10, "velocity": 94}, {"time": 31917, "pitch": 41, "duration": 60, "velocity": 110}, {"time": 31917, "pitch": 42, "duration": 41, "velocity": 61}, {"time": 31917, "pitch": 69, "duration": 34, "velocity": 85}, {"time": 32077, "pitch": 28, "duration": 10, "velocity": 42}, {"time": 32077, "pitch": 82, "duration": 60, "velocity": 90}, {"time": 32157, "pitch": 36, "duration": 10, "velocity": 106}, {"time": 32157, "pitch": 42, "duration": 58, "velocity": 100}, {"time": 32157, "pitch": 57, "duration": 60, "velocity": 90}, {"time": 32398, "pitch": 36, "duration": 10, "velocity": 99}, {"time": 32398, "pitch": 42, "duration": 40, "velocity": 59}, {"time": 32398, "pitch": 69, "duration": 60, "velocity": 90}, {"time": 32558, "pitch": 82, "duration": 34, "velocity": 90}, {"time": 32638, "pitch": 40, "duration": 10, "velocity": 116}, {"time": 32638, "pitch": 42, "duration": 46, "velocity": 104}, {"time": 32878, "pitch": 36, "duration": 10, "velocity": 73}, {"time": 32878, "pitch": 42, "duration": 39, "velocity": 65}, {"time": 33038, "pitch": 28, "duration": 10, "velocity": 46}, {"time": 33118, "pitch": 36, "duration": 10, "velocity": 71}, {"time": 33118, "pitch": 42, "duration": 46, "velocity": 104}, {"time": 33278, "pitch": 28, "duration": 10, "velocity": 66}, {"time": 33359, "pitch": 36, "duration": 10, "velocity": 105}, {"time": 33359, "pitch": 42, "duration": 38, "velocity": 70}, {"time": 33599, "pitch": 40, "duration": 10, "velocity": 108}, {"time": 33599, "pitch": 42, "duration": 49, "velocity": 117}, {"time": 33839, "pitch": 36, "duration": 10, "velocity": 87}, {"time": 33839, "pitch": 42, "duration": 38, "velocity": 57}, {"time": 33999, "pitch": 28, "duration": 10, "velocity": 42}, {"time": 34079, "pitch": 36, "duration": 10, "velocity": 106}, {"time": 34079, "pitch": 42, "duration": 47, "velocity": 104}, {"time": 34319, "pitch": 36, "duration": 10, "velocity": 115}, {"time": 34319, "pitch": 42, "duration": 41, "velocity": 64}, {"time": 34560, "pitch": 40, "duration": 10, "velocity": 111}, {"time": 34560, "pitch": 42, "duration": 55, "velocity": 111}, {"time": 34800, "pitch": 36, "duration": 10, "velocity": 80}, {"time": 34800, "pitch": 42, "duration": 48, "velocity": 59}, {"time": 34800, "pitch": 69, "duration": 34, "velocity": 85}, {"time": 34960, "pitch": 28, "duration": 10, "velocity": 46}, {"time": 34960, "pitch": 82, "duration": 60, "velocity": 90}, {"time": 35040, "pitch": 36, "duration": 10, "velocity": 105}, {"time": 35040, "pitch": 42, "duration": 55, "velocity": 112}, {"time": 35200, "pitch": 28, "duration": 10, "velocity": 46}, {"time": 35280, "pitch": 36, "duration": 10, "velocity": 92}, {"time": 35280, "pitch": 42, "duration": 45, "velocity": 57}, {"time": 35520, "pitch": 40, "duration": 10, "velocity": 108}, {"time": 35520, "pitch": 42, "duration": 60, "velocity": 112}, {"time": 35761, "pitch": 36, "duration": 10, "velocity": 94}, {"time": 35761, "pitch": 42, "duration": 41, "velocity": 61}, {"time": 35921, "pitch": 28, "duration": 10, "velocity": 42}, {"time": 36001, "pitch": 36, "duration": 10, "velocity": 106}, {"time": 36001, "pitch": 42, "duration": 58, "velocity": 100}, {"time": 36241, "pitch": 36, "duration": 10, "velocity": 99}, {"time": 36241, "pitch": 42, "duration": 40, "velocity": 59}, {"time": 36481, "pitch": 40, "duration": 10, "velocity": 116}, {"time": 36481, "pitch": 42, "duration": 46, "velocity": 104}, {"time": 36721, "pitch": 36, "duration": 11, "velocity": 73}, {"time": 36721, "pitch": 42, "duration": 40, "velocity": 65}, {"time": 36882, "pitch": 28, "duration": 10, "velocity": 46}, {"time": 36962, "pitch": 36, "duration": 10, "velocity": 71}, {"time": 36962, "pitch": 42, "duration": 46, "velocity": 104}, {"time": 36962, "pitch": 69, "duration": 34, "velocity": 85}, {"time": 37122, "pitch": 28, "duration": 10, "velocity": 66}, {"time": 37122, "pitch": 82, "duration": 60, "velocity": 90}, {"time": 37202, "pitch": 36, "duration": 10, "velocity": 105}, {"time": 37202, "pitch": 42, "duration": 38, "velocity": 70}, {"time": 37442, "pitch": 40, "duration": 10, "velocity": 108}, {"time": 37442, "pitch": 42, "duration": 49, "velocity": 117}, {"time": 37682, "pitch": 36, "duration": 10, "velocity": 87}, {"time": 37682, "pitch": 42, "duration": 38, "velocity": 57}, {"time": 37842, "pitch": 28, "duration": 11, "velocity": 42}, {"time": 37923, "pitch": 36, "duration": 10, "velocity": 106}, {"time": 37923, "pitch": 42, "duration": 47, "velocity": 104}, {"time": 38163, "pitch": 36, "duration": 10, "velocity": 115}, {"time": 38163, "pitch": 42, "duration": 41, "velocity": 64}, {"time": 38403, "pitch": 40, "duration": 10, "velocity": 111}, {"time": 38403, "pitch": 42, "duration": 54, "velocity": 111}, {"time": 38640, "pitch": 36, "duration": 10, "velocity": 80}, {"time": 38640, "pitch": 42, "duration": 47, "velocity": 59}, {"time": 38798, "pitch": 28, "duration": 10, "velocity": 46}, {"time": 38877, "pitch": 36, "duration": 10, "velocity": 105}, {"time": 38877, "pitch": 42, "duration": 55, "velocity": 112}, {"time": 39037, "pitch": 28, "duration": 10, "velocity": 46}, {"time": 39117, "pitch": 36, "duration": 10, "velocity": 92}, {"time": 39117, "pitch": 42, "duration": 45, "velocity": 57}, {"time": 39357, "pitch": 40, "duration": 10, "velocity": 108}, {"time": 39357, "pitch": 42, "duration": 60, "velocity": 112}, {"time": 39598, "pitch": 36, "duration": 10, "velocity": 94}, {"time": 39598, "pitch": 42, "duration": 41, "velocity": 61}, {"time": 39598, "pitch": 69, "duration": 34, "velocity": 85}, {"time": 39758, "pitch": 28, "duration": 10, "velocity": 42}, {"time": 39758, "pitch": 82, "duration": 60, "velocity": 90}, {"time": 39838, "pitch": 36, "duration": 10, "velocity": 106}, {"time": 39838, "pitch": 42, "duration": 58, "velocity": 100}, {"time": 40078, "pitch": 36, "duration": 10, "velocity": 99}, {"time": 40078, "pitch": 42, "duration": 40, "velocity": 59}, {"time": 40078, "pitch": 69, "duration": 60, "velocity": 90}, {"time": 40238, "pitch": 82, "duration": 34, "velocity": 90}, {"time": 40318, "pitch": 40, "duration": 10, "velocity": 116}, {"time": 40318, "pitch": 42, "duration": 46, "velocity": 104}, {"time": 40558, "pitch": 36, "duration": 10, "velocity": 73}, {"time": 40558, "pitch": 42, "duration": 39, "velocity": 65}, {"time": 40719, "pitch": 28, "duration": 10, "velocity": 46}, {"time": 40799, "pitch": 36, "duration": 10, "velocity": 71}, {"time": 40799, "pitch": 42, "duration": 46, "velocity": 104}, {"time": 40959, "pitch": 28, "duration": 10, "velocity": 66}, {"time": 41039, "pitch": 36, "duration": 10, "velocity": 105}, {"time": 41039, "pitch": 42, "duration": 38, "velocity": 70}, {"time": 41279, "pitch": 40, "duration": 10, "velocity": 108}, {"time": 41279, "pitch": 42, "duration": 49, "velocity": 117}, {"time": 41519, "pitch": 36, "duration": 10, "velocity": 87}, {"time": 41519, "pitch": 42, "duration": 38, "velocity": 57}, {"time": 41679, "pitch": 28, "duration": 10, "velocity": 42}, {"time": 41759, "pitch": 36, "duration": 11, "velocity": 106}, {"time": 41759, "pitch": 42, "duration": 48, "velocity": 104}, {"time": 42000, "pitch": 36, "duration": 10, "velocity": 115}, {"time": 42000, "pitch": 42, "duration": 41, "velocity": 64}, {"time": 42240, "pitch": 40, "duration": 10, "velocity": 111}, {"time": 42240, "pitch": 42, "duration": 55, "velocity": 111}, {"time": 42480, "pitch": 36, "duration": 10, "velocity": 80}, {"time": 42480, "pitch": 42, "duration": 48, "velocity": 59}, {"time": 42480, "pitch": 69, "duration": 34, "velocity": 85}, {"time": 42640, "pitch": 28, "duration": 10, "velocity": 46}, {"time": 42640, "pitch": 82, "duration": 60, "velocity": 90}, {"time": 42720, "pitch": 36, "duration": 10, "velocity": 105}, {"time": 42720, "pitch": 42, "duration": 55, "velocity": 112}, {"time": 42880, "pitch": 28, "duration": 10, "velocity": 46}, {"time": 42961, "pitch": 36, "duration": 10, "velocity": 92}, {"time": 42961, "pitch": 42, "duration": 45, "velocity": 57}, {"time": 43201, "pitch": 40, "duration": 10, "velocity": 108}, {"time": 43201, "pitch": 42, "duration": 60, "velocity": 112}, {"time": 43441, "pitch": 36, "duration": 10, "velocity": 94}, {"time": 43441, "pitch": 42, "duration": 41, "velocity": 61}, {"time": 43601, "pitch": 28, "duration": 10, "velocity": 42}, {"time": 43681, "pitch": 36, "duration": 10, "velocity": 106}, {"time": 43681, "pitch": 42, "duration": 58, "velocity": 100}, {"time": 43921, "pitch": 36, "duration": 10, "velocity": 99}, {"time": 43921, "pitch": 42, "duration": 40, "velocity": 59}, {"time": 44162, "pitch": 40, "duration": 10, "velocity": 116}, {"time": 44162, "pitch": 42, "duration": 46, "velocity": 104}, {"time": 44402, "pitch": 36, "duration": 10, "velocity": 73}, {"time": 44402, "pitch": 42, "duration": 39, "velocity": 65}, {"time": 44562, "pitch": 28, "duration": 10, "velocity": 46}, {"time": 44642, "pitch": 36, "duration": 10, "velocity": 71}, {"time": 44642, "pitch": 42, "duration": 46, "velocity": 104}, {"time": 44642, "pitch": 69, "duration": 34, "velocity": 85}, {"time": 44802, "pitch": 28, "duration": 10, "velocity": 66}, {"time": 44802, "pitch": 82, "duration": 60, "velocity": 90}, {"time": 44882, "pitch": 36, "duration": 10, "velocity": 105}, {"time": 44882, "pitch": 42, "duration": 38, "velocity": 70}, {"time": 45122, "pitch": 40, "duration": 10, "velocity": 108}, {"time": 45122, "pitch": 42, "duration": 50, "velocity": 117}, {"time": 45363, "pitch": 36, "duration": 10, "velocity": 87}, {"time": 45363, "pitch": 42, "duration": 38, "velocity": 57}, {"time": 45523, "pitch": 28, "duration": 10, "velocity": 42}, {"time": 45603, "pitch": 36, "duration": 10, "velocity": 106}, {"time": 45603, "pitch": 42, "duration": 46, "velocity": 104}, {"time": 45840, "pitch": 36, "duration": 10, "velocity": 115}, {"time": 45840, "pitch": 42, "duration": 40, "velocity": 64}, {"time": 46077, "pitch": 40, "duration": 10, "velocity": 111}, {"time": 46077, "pitch": 42, "duration": 55, "velocity": 111}, {"time": 46317, "pitch": 36, "duration": 10, "velocity": 80}, {"time": 46317, "pitch": 42, "duration": 48, "velocity": 59}, {"time": 46477, "pitch": 28, "duration": 10, "velocity": 46}, {"time": 46557, "pitch": 36, "duration": 10, "velocity": 105}, {"time": 46557, "pitch": 42, "duration": 55, "velocity": 112}, {"time": 46717, "pitch": 28, "duration": 10, "velocity": 46}, {"time": 46797, "pitch": 36, "duration": 10, "velocity": 92}, {"time": 46797, "pitch": 42, "duration": 46, "velocity": 57}, {"time": 47038, "pitch": 40, "duration": 10, "velocity": 108}, {"time": 47038, "pitch": 42, "duration": 60, "velocity": 112}, {"time": 47198, "pitch": 48, "duration": 60, "velocity": 120}, {"time": 47278, "pitch": 36, "duration": 10, "velocity": 94}, {"time": 47278, "pitch": 41, "duration": 60, "velocity": 110}, {"time": 47278, "pitch": 42, "duration": 41, "velocity": 61}, {"time": 47278, "pitch": 69, "duration": 34, "velocity": 85}, {"time": 47438, "pitch": 28, "duration": 10, "velocity": 42}, {"time": 47438, "pitch": 38, "duration": 10, "velocity": 104}, {"time": 47438, "pitch": 82, "duration": 60, "velocity": 90}, {"time": 47518, "pitch": 36, "duration": 10, "velocity": 106}, {"time": 47518, "pitch": 42, "duration": 58, "velocity": 100}, {"time": 47518, "pitch": 57, "duration": 60, "velocity": 90}, {"time": 47758, "pitch": 36, "duration": 10, "velocity": 99}, {"time": 47758, "pitch": 42, "duration": 40, "velocity": 59}, {"time": 47758, "pitch": 69, "duration": 60, "velocity": 90}, {"time": 47918, "pitch": 82, "duration": 35, "velocity": 90}, {"time": 47999, "pitch": 40, "duration": 10, "velocity": 116}, {"time": 47999, "pitch": 42, "duration": 46, "velocity": 104}, {"time": 47999, "pitch": 54, "duration": 54, "velocity": 117}, {"time": 48239, "pitch": 36, "duration": 10, "velocity": 73}, {"time": 48239, "pitch": 42, "duration": 39, "velocity": 65}, {"time": 48399, "pitch": 28, "duration": 10, "velocity": 46}, {"time": 48479, "pitch": 36, "duration": 10, "velocity": 71}, {"time": 48479, "pitch": 42, "duration": 46, "velocity": 104}, {"time": 48639, "pitch": 28, "duration": 10, "velocity": 66}, {"time": 48719, "pitch": 36, "duration": 10, "velocity": 105}, {"time": 48719, "pitch": 42, "duration": 38, "velocity": 70}, {"time": 48959, "pitch": 40, "duration": 10, "velocity": 108}, {"time": 48959, "pitch": 42, "duration": 49, "velocity": 117}, {"time": 49200, "pitch": 36, "duration": 10, "velocity": 87}, {"time": 49200, "pitch": 42, "duration": 38, "velocity": 57}, {"time": 49360, "pitch": 28, "duration": 10, "velocity": 42}, {"time": 49440, "pitch": 36, "duration": 10, "velocity": 106}, {"time": 49440, "pitch": 42, "duration": 47, "velocity": 104}, {"time": 49680, "pitch": 36, "duration": 10, "velocity": 115}, {"time": 49680, "pitch": 42, "duration": 41, "velocity": 64}, {"time": 49920, "pitch": 40, "duration": 10, "velocity": 111}, {"time": 49920, "pitch": 42, "duration": 55, "velocity": 111}, {"time": 49920, "pitch": 54, "duration": 60, "velocity": 112}, {"time": 50160, "pitch": 36, "duration": 10, "velocity": 80}, {"time": 50160, "pitch": 42, "duration": 49, "velocity": 59}, {"time": 50160, "pitch": 69, "duration": 35, "velocity": 85}, {"time": 50321, "pitch": 28, "duration": 10, "velocity": 46}, {"time": 50321, "pitch": 82, "duration": 60, "velocity": 90}, {"time": 50401, "pitch": 36, "duration": 10, "velocity": 105}, {"time": 50401, "pitch": 42, "duration": 55, "velocity": 112}, {"time": 50561, "pitch": 28, "duration": 10, "velocity": 46}, {"time": 50641, "pitch": 36, "duration": 10, "velocity": 92}, {"time": 50641, "pitch": 42, "duration": 45, "velocity": 57}, {"time": 50881, "pitch": 39, "duration": 96, "velocity": 120}, {"time": 50881, "pitch": 40, "duration": 10, "velocity": 108}, {"time": 50881, "pitch": 42, "duration": 60, "velocity": 112}, {"time": 51121, "pitch": 36, "duration": 10, "velocity": 94}, {"time": 51121, "pitch": 42, "duration": 41, "velocity": 61}, {"time": 51281, "pitch": 28, "duration": 10, "velocity": 42}, {"time": 51362, "pitch": 36, "duration": 10, "velocity": 106}, {"time": 51362, "pitch": 42, "duration": 58, "velocity": 100}, {"time": 51602, "pitch": 36, "duration": 10, "velocity": 99}, {"time": 51602, "pitch": 42, "duration": 40, "velocity": 59}, {"time": 51842, "pitch": 40, "duration": 10, "velocity": 116}, {"time": 51842, "pitch": 42, "duration": 46, "velocity": 104}, {"time": 51842, "pitch": 54, "duration": 71, "velocity": 122}, {"time": 52082, "pitch": 36, "duration": 10, "velocity": 73}, {"time": 52082, "pitch": 42, "duration": 39, "velocity": 65}, {"time": 52242, "pitch": 28, "duration": 10, "velocity": 46}, {"time": 52322, "pitch": 36, "duration": 10, "velocity": 71}, {"time": 52322, "pitch": 42, "duration": 46, "velocity": 104}, {"time": 52322, "pitch": 69, "duration": 34, "velocity": 85}, {"time": 52483, "pitch": 28, "duration": 10, "velocity": 66}, {"time": 52483, "pitch": 82, "duration": 60, "velocity": 90}, {"time": 52563, "pitch": 36, "duration": 10, "velocity": 105}, {"time": 52563, "pitch": 42, "duration": 38, "velocity": 70}, {"time": 52803, "pitch": 40, "duration": 10, "velocity": 108}, {"time": 52803, "pitch": 42, "duration": 48, "velocity": 117}, {"time": 53040, "pitch": 36, "duration": 10, "velocity": 87}, {"time": 53040, "pitch": 42, "duration": 37, "velocity": 57}, {"time": 53198, "pitch": 28, "duration": 10, "velocity": 42}, {"time": 53277, "pitch": 36, "duration": 10, "velocity": 106}, {"time": 53277, "pitch": 42, "duration": 47, "velocity": 104}, {"time": 53517, "pitch": 36, "duration": 10, "velocity": 115}, {"time": 53517, "pitch": 42, "duration": 41, "velocity": 64}, {"time": 53757, "pitch": 40, "duration": 10, "velocity": 111}, {"time": 53757, "pitch": 42, "duration": 55, "velocity": 111}, {"time": 53757, "pitch": 54, "duration": 61, "velocity": 121}, {"time": 53997, "pitch": 36, "duration": 10, "velocity": 80}, {"time": 53997, "pitch": 42, "duration": 48, "velocity": 59}, {"time": 54158, "pitch": 28, "duration": 10, "velocity": 46}, {"time": 54238, "pitch": 36, "duration": 10, "velocity": 105}, {"time": 54238, "pitch": 42, "duration": 55, "velocity": 112}, {"time": 54398, "pitch": 28, "duration": 10, "velocity": 46}, {"time": 54478, "pitch": 36, "duration": 10, "velocity": 92}, {"time": 54478, "pitch": 42, "duration": 45, "velocity": 57}, {"time": 54718, "pitch": 39, "duration": 77, "velocity": 114}, {"time": 54718, "pitch": 40, "duration": 10, "velocity": 108}, {"time": 54718, "pitch": 42, "duration": 60, "velocity": 112}, {"time": 54958, "pitch": 36, "duration": 10, "velocity": 94}, {"time": 54958, "pitch": 42, "duration": 41, "velocity": 61}, {"time": 54958, "pitch": 69, "duration": 34, "velocity": 85}, {"time": 55118, "pitch": 28, "duration": 10, "velocity": 42}, {"time": 55118, "pitch": 82, "duration": 60, "velocity": 90}, {"time": 55198, "pitch": 36, "duration": 10, "velocity": 106}, {"time": 55198, "pitch": 42, "duration": 59, "velocity": 100}, {"time": 55439, "pitch": 36, "duration": 10, "velocity": 99}, {"time": 55439, "pitch": 42, "duration": 40, "velocity": 59}, {"time": 55439, "pitch": 69, "duration": 60, "velocity": 90}, {"time": 55599, "pitch": 82, "duration": 34, "velocity": 90}, {"time": 55679, "pitch": 40, "duration": 10, "velocity": 116}, {"time": 55679, "pitch": 42, "duration": 46, "velocity": 104}, {"time": 55679, "pitch": 54, "duration": 69, "velocity": 121}, {"time": 55919, "pitch": 36, "duration": 10, "velocity": 73}, {"time": 55919, "pitch": 42, "duration": 39, "velocity": 65}, {"time": 56079, "pitch": 28, "duration": 10, "velocity": 46}, {"time": 56159, "pitch": 36, "duration": 10, "velocity": 71}, {"time": 56159, "pitch": 42, "duration": 46, "velocity": 104}, {"time": 56319, "pitch": 28, "duration": 10, "velocity": 66}, {"time": 56400, "pitch": 36, "duration": 10, "velocity": 105}, {"time": 56400, "pitch": 42, "duration": 38, "velocity": 70}, {"time": 56640, "pitch": 40, "duration": 10, "velocity": 108}, {"time": 56640, "pitch": 42, "duration": 49, "velocity": 117}, {"time": 56880, "pitch": 36, "duration": 10, "velocity": 87}, {"time": 56880, "pitch": 42, "duration": 38, "velocity": 57}, {"time": 57040, "pitch": 28, "duration": 10, "velocity": 42}, {"time": 57120, "pitch": 36, "duration": 10, "velocity": 106}, {"time": 57120, "pitch": 42, "duration": 47, "velocity": 104}, {"time": 57360, "pitch": 36, "duration": 10, "velocity": 115}, {"time": 57360, "pitch": 42, "duration": 41, "velocity": 64}, {"time": 57601, "pitch": 40, "duration": 10, "velocity": 111}, {"time": 57601, "pitch": 42, "duration": 55, "velocity": 111}, {"time": 57601, "pitch": 54, "duration": 69, "velocity": 122}, {"time": 57841, "pitch": 36, "duration": 10, "velocity": 80}, {"time": 57841, "pitch": 42, "duration": 48, "velocity": 59}, {"time": 57841, "pitch": 69, "duration": 34, "velocity": 85}, {"time": 58001, "pitch": 28, "duration": 10, "velocity": 46}, {"time": 58001, "pitch": 82, "duration": 60, "velocity": 90}, {"time": 58081, "pitch": 36, "duration": 10, "velocity": 105}, {"time": 58081, "pitch": 42, "duration": 55, "velocity": 112}, {"time": 58241, "pitch": 28, "duration": 10, "velocity": 46}, {"time": 58321, "pitch": 36, "duration": 10, "velocity": 92}, {"time": 58321, "pitch": 42, "duration": 45, "velocity": 57}, {"time": 58561, "pitch": 39, "duration": 80, "velocity": 121}, {"time": 58561, "pitch": 40, "duration": 10, "velocity": 108}, {"time": 58561, "pitch": 42, "duration": 61, "velocity": 112}, {"time": 58802, "pitch": 36, "duration": 10, "velocity": 94}, {"time": 58802, "pitch": 42, "duration": 41, "velocity": 61}, {"time": 58962, "pitch": 28, "duration": 10, "velocity": 42}, {"time": 59042, "pitch": 36, "duration": 10, "velocity": 106}, {"time": 59042, "pitch": 42, "duration": 58, "velocity": 100}, {"time": 59282, "pitch": 36, "duration": 10, "velocity": 99}, {"time": 59282, "pitch": 42, "duration": 40, "velocity": 59}, {"time": 59522, "pitch": 40, "duration": 10, "velocity": 116}, {"time": 59522, "pitch": 42, "duration": 46, "velocity": 104}, {"time": 59522, "pitch": 54, "duration": 60, "velocity": 122}, {"time": 59763, "pitch": 36, "duration": 10, "velocity": 73}, {"time": 59763, "pitch": 42, "duration": 39, "velocity": 65}, {"time": 59923, "pitch": 28, "duration": 10, "velocity": 46}, {"time": 60003, "pitch": 36, "duration": 10, "velocity": 71}, {"time": 60003, "pitch": 42, "duration": 46, "velocity": 104}, {"time": 60003, "pitch": 69, "duration": 34, "velocity": 85}, {"time": 60163, "pitch": 28, "duration": 10, "velocity": 66}, {"time": 60163, "pitch": 82, "duration": 60, "velocity": 90}, {"time": 60243, "pitch": 36, "duration": 10, "velocity": 105}, {"time": 60243, "pitch": 42, "duration": 38, "velocity": 70}, {"time": 60483, "pitch": 40, "duration": 10, "velocity": 108}, {"time": 60483, "pitch": 42, "duration": 49, "velocity": 117}, {"time": 60720, "pitch": 36, "duration": 10, "velocity": 87}, {"time": 60720, "pitch": 42, "duration": 38, "velocity": 57}, {"time": 60878, "pitch": 28, "duration": 10, "velocity": 42}, {"time": 60957, "pitch": 36, "duration": 10, "velocity": 106}, {"time": 60957, "pitch": 42, "duration": 47, "velocity": 104}, {"time": 61197, "pitch": 36, "duration": 10, "velocity": 115}, {"time": 61197, "pitch": 42, "duration": 41, "velocity": 64}, {"time": 61438, "pitch": 40, "duration": 10, "velocity": 111}, {"time": 61438, "pitch": 42, "duration": 55, "velocity": 111}, {"time": 61438, "pitch": 54, "duration": 74, "velocity": 121}, {"time": 61678, "pitch": 36, "duration": 10, "velocity": 80}, {"time": 61678, "pitch": 42, "duration": 48, "velocity": 59}, {"time": 61838, "pitch": 28, "duration": 10, "velocity": 46}, {"time": 61918, "pitch": 36, "duration": 10, "velocity": 105}, {"time": 61918, "pitch": 42, "duration": 55, "velocity": 112}, {"time": 62078, "pitch": 28, "duration": 10, "velocity": 46}, {"time": 62158, "pitch": 36, "duration": 10, "velocity": 92}, {"time": 62158, "pitch": 42, "duration": 45, "velocity": 57}, {"time": 62398, "pitch": 38, "duration": 10, "velocity": 114}, {"time": 62398, "pitch": 39, "duration": 102, "velocity": 121}, {"time": 62398, "pitch": 40, "duration": 10, "velocity": 108}, {"time": 62398, "pitch": 42, "duration": 60, "velocity": 112}, {"time": 62559, "pitch": 38, "duration": 10, "velocity": 84}, {"time": 62639, "pitch": 36, "duration": 10, "velocity": 94}, {"time": 62639, "pitch": 42, "duration": 41, "velocity": 61}, {"time": 62639, "pitch": 45, "duration": 60, "velocity": 110}, {"time": 62639, "pitch": 69, "duration": 34, "velocity": 85}, {"time": 62799, "pitch": 28, "duration": 10, "velocity": 42}, {"time": 62799, "pitch": 82, "duration": 60, "velocity": 90}, {"time": 62879, "pitch": 36, "duration": 10, "velocity": 106}, {"time": 62879, "pitch": 42, "duration": 58, "velocity": 100}, {"time": 63119, "pitch": 36, "duration": 10, "velocity": 99}, {"time": 63119, "pitch": 42, "duration": 40, "velocity": 59}, {"time": 63119, "pitch": 69, "duration": 60, "velocity": 90}, {"time": 63279, "pitch": 82, "duration": 34, "velocity": 90}, {"time": 63359, "pitch": 40, "duration": 10, "velocity": 116}, {"time": 63359, "pitch": 42, "duration": 46, "velocity": 104}, {"time": 63359, "pitch": 54, "duration": 54, "velocity": 117}, {"time": 63599, "pitch": 36, "duration": 10, "velocity": 73}, {"time": 63599, "pitch": 42, "duration": 39, "velocity": 65}, {"time": 63760, "pitch": 28, "duration": 10, "velocity": 46}, {"time": 63840, "pitch": 36, "duration": 10, "velocity": 71}, {"time": 63840, "pitch": 42, "duration": 46, "velocity": 104}, {"time": 64000, "pitch": 28, "duration": 10, "velocity": 66}, {"time": 64080, "pitch": 36, "duration": 10, "velocity": 105}, {"time": 64080, "pitch": 42, "duration": 38, "velocity": 70}, {"time": 64320, "pitch": 40, "duration": 10, "velocity": 108}, {"time": 64320, "pitch": 42, "duration": 49, "velocity": 117}, {"time": 64560, "pitch": 36, "duration": 10, "velocity": 87}, {"time": 64560, "pitch": 42, "duration": 38, "velocity": 57}, {"time": 64720, "pitch": 28, "duration": 10, "velocity": 42}, {"time": 64801, "pitch": 36, "duration": 10, "velocity": 106}, {"time": 64801, "pitch": 42, "duration": 47, "velocity": 104}, {"time": 64801, "pitch": 57, "duration": 60, "velocity": 90}, {"time": 64961, "pitch": 48, "duration": 60, "velocity": 110}, {"time": 65041, "pitch": 36, "duration": 10, "velocity": 115}, {"time": 65041, "pitch": 42, "duration": 41, "velocity": 64}, {"time": 65281, "pitch": 38, "duration": 10, "velocity": 114}, {"time": 65281, "pitch": 40, "duration": 10, "velocity": 111}, {"time": 65281, "pitch": 42, "duration": 55, "velocity": 111}, {"time": 65281, "pitch": 54, "duration": 60, "velocity": 112}, {"time": 65441, "pitch": 38, "duration": 10, "velocity": 84}, {"time": 65521, "pitch": 36, "duration": 10, "velocity": 80}, {"time": 65521, "pitch": 42, "duration": 48, "velocity": 59}, {"time": 65521, "pitch": 69, "duration": 34, "velocity": 85}, {"time": 65681, "pitch": 28, "duration": 10, "velocity": 46}, {"time": 65681, "pitch": 48, "duration": 60, "velocity": 110}, {"time": 65681, "pitch": 82, "duration": 60, "velocity": 90}, {"time": 65761, "pitch": 36, "duration": 10, "velocity": 105}, {"time": 65761, "pitch": 42, "duration": 55, "velocity": 112}, {"time": 65922, "pitch": 28, "duration": 10, "velocity": 46}, {"time": 66002, "pitch": 36, "duration": 10, "velocity": 92}, {"time": 66002, "pitch": 42, "duration": 45, "velocity": 57}, {"time": 66242, "pitch": 39, "duration": 96, "velocity": 120}, {"time": 66242, "pitch": 40, "duration": 10, "velocity": 108}, {"time": 66242, "pitch": 42, "duration": 60, "velocity": 112}, {"time": 66242, "pitch": 45, "duration": 60, "velocity": 110}, {"time": 66482, "pitch": 36, "duration": 10, "velocity": 94}, {"time": 66482, "pitch": 41, "duration": 60, "velocity": 110}, {"time": 66482, "pitch": 42, "duration": 41, "velocity": 61}, {"time": 66642, "pitch": 28, "duration": 10, "velocity": 42}, {"time": 66722, "pitch": 28, "duration": 10, "velocity": 94}, {"time": 66722, "pitch": 48, "duration": 189, "velocity": 120}, {"time": 66842, "pitch": 28, "duration": 10, "velocity": 58}, {"time": 66902, "pitch": 28, "duration": 10, "velocity": 49}, {"time": 66962, "pitch": 28, "duration": 10, "velocity": 99}, {"time": 66962, "pitch": 36, "duration": 10, "velocity": 99}, {"time": 66962, "pitch": 45, "duration": 117, "velocity": 120}, {"time": 67043, "pitch": 28, "duration": 10, "velocity": 68}, {"time": 67083, "pitch": 28, "duration": 10, "velocity": 58}, {"time": 67143, "pitch": 28, "duration": 10, "velocity": 49}, {"time": 67203, "pitch": 28, "duration": 10, "velocity": 86}, {"time": 67203, "pitch": 36, "duration": 10, "velocity": 109}, {"time": 67203, "pitch": 41, "duration": 139, "velocity": 120}, {"time": 67920, "pitch": 36, "duration": 10, "velocity": 108}, {"time": 67920, "pitch": 57, "duration": 59, "velocity": 90}, {"time": 69899, "pitch": 38, "duration": 10, "velocity": 59}, {"time": 69959, "pitch": 38, "duration": 10, "velocity": 78}, {"time": 70019, "pitch": 38, "duration": 10, "velocity": 99}, {"time": 70079, "pitch": 45, "duration": 116, "velocity": 107}, {"time": 70079, "pitch": 51, "duration": 116, "velocity": 107}, {"time": 70479, "pitch": 38, "duration": 10, "velocity": 78}, {"time": 70559, "pitch": 36, "duration": 10, "velocity": 106}, {"time": 70559, "pitch": 42, "duration": 58, "velocity": 100}, {"time": 70799, "pitch": 36, "duration": 10, "velocity": 99}, {"time": 70799, "pitch": 42, "duration": 40, "velocity": 59}, {"time": 70799, "pitch": 69, "duration": 60, "velocity": 90}, {"time": 70960, "pitch": 82, "duration": 34, "velocity": 90}, {"time": 71040, "pitch": 40, "duration": 10, "velocity": 116}, {"time": 71040, "pitch": 42, "duration": 46, "velocity": 104}, {"time": 71280, "pitch": 36, "duration": 10, "velocity": 73}, {"time": 71280, "pitch": 42, "duration": 39, "velocity": 65}, {"time": 71440, "pitch": 28, "duration": 10, "velocity": 46}, {"time": 71520, "pitch": 36, "duration": 10, "velocity": 71}, {"time": 71520, "pitch": 42, "duration": 46, "velocity": 104}, {"time": 71680, "pitch": 28, "duration": 10, "velocity": 66}, {"time": 71760, "pitch": 36, "duration": 10, "velocity": 105}, {"time": 71760, "pitch": 42, "duration": 38, "velocity": 70}, {"time": 72000, "pitch": 40, "duration": 10, "velocity": 108}, {"time": 72000, "pitch": 42, "duration": 49, "velocity": 117}, {"time": 72241, "pitch": 36, "duration": 10, "velocity": 87}, {"time": 72241, "pitch": 42, "duration": 38, "velocity": 57}, {"time": 72401, "pitch": 28, "duration": 10, "velocity": 42}, {"time": 72481, "pitch": 36, "duration": 10, "velocity": 106}, {"time": 72481, "pitch": 42, "duration": 47, "velocity": 104}, {"time": 72721, "pitch": 36, "duration": 10, "velocity": 115}, {"time": 72721, "pitch": 42, "duration": 41, "velocity": 64}, {"time": 72961, "pitch": 40, "duration": 10, "velocity": 111}, {"time": 72961, "pitch": 42, "duration": 55, "velocity": 111}, {"time": 73202, "pitch": 36, "duration": 10, "velocity": 80}, {"time": 73202, "pitch": 42, "duration": 48, "velocity": 59}, {"time": 73202, "pitch": 69, "duration": 34, "velocity": 85}, {"time": 73362, "pitch": 28, "duration": 10, "velocity": 46}, {"time": 73362, "pitch": 82, "duration": 60, "velocity": 90}, {"time": 73442, "pitch": 36, "duration": 10, "velocity": 105}, {"time": 73442, "pitch": 42, "duration": 55, "velocity": 112}, {"time": 73602, "pitch": 28, "duration": 10, "velocity": 46}, {"time": 73682, "pitch": 36, "duration": 10, "velocity": 92}, {"time": 73682, "pitch": 42, "duration": 45, "velocity": 57}, {"time": 73922, "pitch": 40, "duration": 10, "velocity": 108}, {"time": 73922, "pitch": 42, "duration": 60, "velocity": 112}, {"time": 74162, "pitch": 36, "duration": 10, "velocity": 94}, {"time": 74162, "pitch": 42, "duration": 41, "velocity": 61}, {"time": 74323, "pitch": 28, "duration": 10, "velocity": 42}, {"time": 74403, "pitch": 36, "duration": 10, "velocity": 106}, {"time": 74403, "pitch": 42, "duration": 58, "velocity": 100}, {"time": 74643, "pitch": 36, "duration": 10, "velocity": 99}, {"time": 74643, "pitch": 42, "duration": 40, "velocity": 59}, {"time": 74883, "pitch": 40, "duration": 10, "velocity": 116}, {"time": 74883, "pitch": 42, "duration": 45, "velocity": 104}, {"time": 75120, "pitch": 36, "duration": 10, "velocity": 73}, {"time": 75120, "pitch": 42, "duration": 38, "velocity": 65}, {"time": 75278, "pitch": 28, "duration": 10, "velocity": 46}, {"time": 75357, "pitch": 36, "duration": 10, "velocity": 71}, {"time": 75357, "pitch": 42, "duration": 46, "velocity": 104}, {"time": 75357, "pitch": 69, "duration": 34, "velocity": 85}, {"time": 75517, "pitch": 28, "duration": 10, "velocity": 66}, {"time": 75517, "pitch": 82, "duration": 60, "velocity": 90}, {"time": 75597, "pitch": 36, "duration": 10, "velocity": 105}, {"time": 75597, "pitch": 42, "duration": 38, "velocity": 70}, {"time": 75837, "pitch": 40, "duration": 10, "velocity": 108}, {"time": 75837, "pitch": 42, "duration": 49, "velocity": 117}, {"time": 76078, "pitch": 36, "duration": 10, "velocity": 87}, {"time": 76078, "pitch": 42, "duration": 38, "velocity": 57}, {"time": 76238, "pitch": 28, "duration": 10, "velocity": 42}, {"time": 76318, "pitch": 36, "duration": 10, "velocity": 106}, {"time": 76318, "pitch": 42, "duration": 47, "velocity": 104}, {"time": 76558, "pitch": 36, "duration": 10, "velocity": 115}, {"time": 76558, "pitch": 42, "duration": 41, "velocity": 64}, {"time": 76798, "pitch": 40, "duration": 10, "velocity": 111}, {"time": 76798, "pitch": 42, "duration": 55, "velocity": 111}, {"time": 77038, "pitch": 36, "duration": 10, "velocity": 80}, {"time": 77038, "pitch": 42, "duration": 48, "velocity": 59}, {"time": 77199, "pitch": 28, "duration": 10, "velocity": 46}, {"time": 77279, "pitch": 36, "duration": 10, "velocity": 105}, {"time": 77279, "pitch": 42, "duration": 55, "velocity": 112}, {"time": 77439, "pitch": 28, "duration": 10, "velocity": 46}, {"time": 77519, "pitch": 36, "duration": 10, "velocity": 92}, {"time": 77519, "pitch": 42, "duration": 45, "velocity": 57}, {"time": 77759, "pitch": 40, "duration": 10, "velocity": 108}, {"time": 77759, "pitch": 42, "duration": 60, "velocity": 112}, {"time": 77999, "pitch": 36, "duration": 10, "velocity": 94}, {"time": 77999, "pitch": 42, "duration": 41, "velocity": 61}, {"time": 77999, "pitch": 69, "duration": 34, "velocity": 85}, {"time": 78159, "pitch": 28, "duration": 10, "velocity": 42}, {"time": 78159, "pitch": 82, "duration": 60, "velocity": 90}, {"time": 78239, "pitch": 36, "duration": 11, "velocity": 106}, {"time": 78239, "pitch": 42, "duration": 59, "velocity": 100}, {"time": 78480, "pitch": 36, "duration": 10, "velocity": 99}, {"time": 78480, "pitch": 42, "duration": 40, "velocity": 59}, {"time": 78480, "pitch": 69, "duration": 60, "velocity": 90}, {"time": 78640, "pitch": 82, "duration": 34, "velocity": 90}, {"time": 78720, "pitch": 40, "duration": 10, "velocity": 116}, {"time": 78720, "pitch": 42, "duration": 46, "velocity": 104}, {"time": 78960, "pitch": 36, "duration": 10, "velocity": 73}, {"time": 78960, "pitch": 42, "duration": 39, "velocity": 65}, {"time": 79120, "pitch": 28, "duration": 10, "velocity": 46}, {"time": 79200, "pitch": 36, "duration": 10, "velocity": 71}, {"time": 79200, "pitch": 42, "duration": 46, "velocity": 104}, {"time": 79360, "pitch": 28, "duration": 11, "velocity": 66}, {"time": 79441, "pitch": 36, "duration": 10, "velocity": 105}, {"time": 79441, "pitch": 42, "duration": 38, "velocity": 70}, {"time": 79681, "pitch": 40, "duration": 10, "velocity": 108}, {"time": 79681, "pitch": 42, "duration": 49, "velocity": 117}, {"time": 79921, "pitch": 36, "duration": 10, "velocity": 87}, {"time": 79921, "pitch": 42, "duration": 38, "velocity": 57}, {"time": 80081, "pitch": 28, "duration": 10, "velocity": 42}, {"time": 80161, "pitch": 36, "duration": 10, "velocity": 106}, {"time": 80161, "pitch": 42, "duration": 47, "velocity": 104}, {"time": 80401, "pitch": 36, "duration": 10, "velocity": 115}, {"time": 80401, "pitch": 42, "duration": 41, "velocity": 64}, {"time": 80642, "pitch": 40, "duration": 10, "velocity": 111}, {"time": 80642, "pitch": 42, "duration": 55, "velocity": 111}, {"time": 80882, "pitch": 36, "duration": 10, "velocity": 80}, {"time": 80882, "pitch": 42, "duration": 48, "velocity": 59}, {"time": 80882, "pitch": 69, "duration": 34, "velocity": 85}, {"time": 81042, "pitch": 28, "duration": 10, "velocity": 46}, {"time": 81042, "pitch": 82, "duration": 60, "velocity": 90}, {"time": 81122, "pitch": 36, "duration": 10, "velocity": 105}, {"time": 81122, "pitch": 42, "duration": 55, "velocity": 112}, {"time": 81282, "pitch": 28, "duration": 10, "velocity": 46}, {"time": 81362, "pitch": 36, "duration": 10, "velocity": 92}, {"time": 81362, "pitch": 42, "duration": 45, "velocity": 57}, {"time": 81602, "pitch": 40, "duration": 10, "velocity": 108}, {"time": 81602, "pitch": 42, "duration": 61, "velocity": 112}, {"time": 81843, "pitch": 36, "duration": 10, "velocity": 94}, {"time": 81843, "pitch": 42, "duration": 41, "velocity": 61}, {"time": 82003, "pitch": 28, "duration": 10, "velocity": 42}, {"time": 82083, "pitch": 36, "duration": 10, "velocity": 106}, {"time": 82083, "pitch": 42, "duration": 57, "velocity": 100}, {"time": 82320, "pitch": 36, "duration": 10, "velocity": 99}, {"time": 82320, "pitch": 42, "duration": 39, "velocity": 59}, {"time": 82557, "pitch": 40, "duration": 10, "velocity": 116}, {"time": 82557, "pitch": 42, "duration": 46, "velocity": 104}, {"time": 82797, "pitch": 36, "duration": 10, "velocity": 73}, {"time": 82797, "pitch": 42, "duration": 39, "velocity": 65}, {"time": 82957, "pitch": 28, "duration": 10, "velocity": 46}, {"time": 83037, "pitch": 36, "duration": 10, "velocity": 71}, {"time": 83037, "pitch": 42, "duration": 46, "velocity": 104}, {"time": 83037, "pitch": 69, "duration": 34, "velocity": 85}, {"time": 83197, "pitch": 28, "duration": 10, "velocity": 66}, {"time": 83197, "pitch": 82, "duration": 60, "velocity": 90}, {"time": 83277, "pitch": 36, "duration": 11, "velocity": 105}, {"time": 83277, "pitch": 42, "duration": 39, "velocity": 70}, {"time": 83518, "pitch": 40, "duration": 10, "velocity": 108}, {"time": 83518, "pitch": 42, "duration": 49, "velocity": 117}, {"time": 83758, "pitch": 36, "duration": 10, "velocity": 87}, {"time": 83758, "pitch": 42, "duration": 38, "velocity": 57}, {"time": 83918, "pitch": 28, "duration": 10, "velocity": 42}, {"time": 83998, "pitch": 36, "duration": 10, "velocity": 106}, {"time": 83998, "pitch": 42, "duration": 47, "velocity": 104}, {"time": 84238, "pitch": 36, "duration": 10, "velocity": 115}, {"time": 84238, "pitch": 42, "duration": 41, "velocity": 64}, {"time": 84479, "pitch": 40, "duration": 10, "velocity": 111}, {"time": 84479, "pitch": 42, "duration": 55, "velocity": 111}, {"time": 84719, "pitch": 36, "duration": 10, "velocity": 80}, {"time": 84719, "pitch": 42, "duration": 48, "velocity": 59}, {"time": 84879, "pitch": 28, "duration": 10, "velocity": 46}, {"time": 84959, "pitch": 36, "duration": 10, "velocity": 105}, {"time": 84959, "pitch": 42, "duration": 55, "velocity": 112}, {"time": 85119, "pitch": 28, "duration": 10, "velocity": 46}, {"time": 85199, "pitch": 36, "duration": 10, "velocity": 92}, {"time": 85199, "pitch": 42, "duration": 45, "velocity": 57}, {"time": 85439, "pitch": 38, "duration": 10, "velocity": 114}, {"time": 85439, "pitch": 40, "duration": 10, "velocity": 108}, {"time": 85439, "pitch": 42, "duration": 60, "velocity": 112}, {"time": 85600, "pitch": 38, "duration": 10, "velocity": 84}, {"time": 85680, "pitch": 36, "duration": 10, "velocity": 94}, {"time": 85680, "pitch": 42, "duration": 41, "velocity": 61}, {"time": 85680, "pitch": 45, "duration": 60, "velocity": 110}, {"time": 85680, "pitch": 69, "duration": 34, "velocity": 85}, {"time": 85840, "pitch": 28, "duration": 10, "velocity": 42}, {"time": 85840, "pitch": 82, "duration": 60, "velocity": 90}, {"time": 85920, "pitch": 36, "duration": 10, "velocity": 106}, {"time": 85920, "pitch": 42, "duration": 58, "velocity": 100}, {"time": 85920, "pitch": 57, "duration": 60, "velocity": 90}, {"time": 86160, "pitch": 36, "duration": 10, "velocity": 99}, {"time": 86160, "pitch": 42, "duration": 40, "velocity": 59}, {"time": 86160, "pitch": 69, "duration": 60, "velocity": 90}, {"time": 86320, "pitch": 82, "duration": 34, "velocity": 90}, {"time": 86400, "pitch": 40, "duration": 10, "velocity": 116}, {"time": 86400, "pitch": 42, "duration": 46, "velocity": 104}, {"time": 86400, "pitch": 54, "duration": 54, "velocity": 117}, {"time": 86640, "pitch": 36, "duration": 10, "velocity": 73}, {"time": 86640, "pitch": 42, "duration": 40, "velocity": 65}, {"time": 86801, "pitch": 28, "duration": 10, "velocity": 46}, {"time": 86881, "pitch": 36, "duration": 10, "velocity": 71}, {"time": 86881, "pitch": 42, "duration": 46, "velocity": 104}, {"time": 87041, "pitch": 28, "duration": 10, "velocity": 66}, {"time": 87121, "pitch": 36, "duration": 10, "velocity": 105}, {"time": 87121, "pitch": 42, "duration": 38, "velocity": 70}, {"time": 87361, "pitch": 40, "duration": 10, "velocity": 108}, {"time": 87361, "pitch": 42, "duration": 49, "velocity": 117}, {"time": 87601, "pitch": 36, "duration": 10, "velocity": 87}, {"time": 87601, "pitch": 42, "duration": 38, "velocity": 57}, {"time": 87761, "pitch": 28, "duration": 10, "velocity": 42}, {"time": 87842, "pitch": 36, "duration": 10, "velocity": 106}, {"time": 87842, "pitch": 42, "duration": 47, "velocity": 104}, {"time": 88082, "pitch": 36, "duration": 10, "velocity": 115}, {"time": 88082, "pitch": 42, "duration": 41, "velocity": 64}, {"time": 88322, "pitch": 40, "duration": 10, "velocity": 111}, {"time": 88322, "pitch": 42, "duration": 55, "velocity": 111}, {"time": 88322, "pitch": 54, "duration": 60, "velocity": 112}, {"time": 88562, "pitch": 36, "duration": 10, "velocity": 80}, {"time": 88562, "pitch": 42, "duration": 48, "velocity": 59}, {"time": 88562, "pitch": 69, "duration": 34, "velocity": 85}, {"time": 88722, "pitch": 28, "duration": 10, "velocity": 46}, {"time": 88722, "pitch": 82, "duration": 60, "velocity": 90}, {"time": 88802, "pitch": 36, "duration": 10, "velocity": 105}, {"time": 88802, "pitch": 42, "duration": 55, "velocity": 112}, {"time": 88963, "pitch": 28, "duration": 10, "velocity": 46}, {"time": 89043, "pitch": 36, "duration": 10, "velocity": 92}, {"time": 89043, "pitch": 42, "duration": 45, "velocity": 57}, {"time": 89283, "pitch": 39, "duration": 95, "velocity": 120}, {"time": 89283, "pitch": 40, "duration": 10, "velocity": 108}, {"time": 89283, "pitch": 42, "duration": 59, "velocity": 112}, {"time": 89520, "pitch": 36, "duration": 10, "velocity": 94}, {"time": 89520, "pitch": 42, "duration": 40, "velocity": 61}, {"time": 89678, "pitch": 28, "duration": 10, "velocity": 42}, {"time": 89757, "pitch": 36, "duration": 10, "velocity": 106}, {"time": 89757, "pitch": 42, "duration": 58, "velocity": 100}, {"time": 89997, "pitch": 36, "duration": 10, "velocity": 99}, {"time": 89997, "pitch": 42, "duration": 40, "velocity": 59}, {"time": 90237, "pitch": 40, "duration": 10, "velocity": 116}, {"time": 90237, "pitch": 42, "duration": 46, "velocity": 104}, {"time": 90237, "pitch": 54, "duration": 71, "velocity": 122}, {"time": 90477, "pitch": 36, "duration": 10, "velocity": 73}, {"time": 90477, "pitch": 42, "duration": 39, "velocity": 65}, {"time": 90638, "pitch": 28, "duration": 10, "velocity": 46}, {"time": 90718, "pitch": 36, "duration": 10, "velocity": 71}, {"time": 90718, "pitch": 42, "duration": 46, "velocity": 104}, {"time": 90718, "pitch": 69, "duration": 34, "velocity": 85}, {"time": 90878, "pitch": 28, "duration": 10, "velocity": 66}, {"time": 90878, "pitch": 82, "duration": 60, "velocity": 90}, {"time": 90958, "pitch": 36, "duration": 10, "velocity": 105}, {"time": 90958, "pitch": 42, "duration": 38, "velocity": 70}, {"time": 91198, "pitch": 40, "duration": 10, "velocity": 108}, {"time": 91198, "pitch": 42, "duration": 49, "velocity": 117}, {"time": 91438, "pitch": 36, "duration": 10, "velocity": 87}, {"time": 91438, "pitch": 42, "duration": 38, "velocity": 57}, {"time": 91598, "pitch": 28, "duration": 10, "velocity": 42}, {"time": 91678, "pitch": 36, "duration": 10, "velocity": 106}, {"time": 91678, "pitch": 42, "duration": 48, "velocity": 104}, {"time": 91919, "pitch": 36, "duration": 10, "velocity": 115}, {"time": 91919, "pitch": 42, "duration": 41, "velocity": 64}, {"time": 92159, "pitch": 40, "duration": 10, "velocity": 111}, {"time": 92159, "pitch": 42, "duration": 55, "velocity": 111}, {"time": 92159, "pitch": 54, "duration": 61, "velocity": 121}, {"time": 92399, "pitch": 36, "duration": 10, "velocity": 80}, {"time": 92399, "pitch": 42, "duration": 48, "velocity": 59}, {"time": 92559, "pitch": 28, "duration": 10, "velocity": 46}, {"time": 92639, "pitch": 36, "duration": 10, "velocity": 105}, {"time": 92639, "pitch": 42, "duration": 55, "velocity": 112}, {"time": 92799, "pitch": 28, "duration": 10, "velocity": 46}, {"time": 92880, "pitch": 36, "duration": 10, "velocity": 92}, {"time": 92880, "pitch": 42, "duration": 45, "velocity": 57}, {"time": 93120, "pitch": 38, "duration": 10, "velocity": 114}, {"time": 93120, "pitch": 39, "duration": 77, "velocity": 114}, {"time": 93120, "pitch": 40, "duration": 10, "velocity": 108}, {"time": 93120, "pitch": 42, "duration": 60, "velocity": 112}, {"time": 93280, "pitch": 38, "duration": 10, "velocity": 84}, {"time": 93360, "pitch": 36, "duration": 10, "velocity": 94}, {"time": 93360, "pitch": 42, "duration": 41, "velocity": 61}, {"time": 93360, "pitch": 69, "duration": 34, "velocity": 85}, {"time": 93520, "pitch": 28, "duration": 10, "velocity": 42}, {"time": 93520, "pitch": 82, "duration": 60, "velocity": 90}, {"time": 93600, "pitch": 36, "duration": 10, "velocity": 106}, {"time": 93600, "pitch": 42, "duration": 58, "velocity": 100}, {"time": 93600, "pitch": 57, "duration": 60, "velocity": 90}, {"time": 93840, "pitch": 36, "duration": 10, "velocity": 99}, {"time": 93840, "pitch": 42, "duration": 40, "velocity": 59}, {"time": 93840, "pitch": 69, "duration": 60, "velocity": 90}, {"time": 94001, "pitch": 82, "duration": 34, "velocity": 90}, {"time": 94081, "pitch": 40, "duration": 10, "velocity": 116}, {"time": 94081, "pitch": 42, "duration": 46, "velocity": 104}, {"time": 94081, "pitch": 54, "duration": 69, "velocity": 121}, {"time": 94321, "pitch": 36, "duration": 10, "velocity": 73}, {"time": 94321, "pitch": 42, "duration": 39, "velocity": 65}, {"time": 94481, "pitch": 28, "duration": 10, "velocity": 46}, {"time": 94561, "pitch": 36, "duration": 10, "velocity": 71}, {"time": 94561, "pitch": 42, "duration": 46, "velocity": 104}, {"time": 94721, "pitch": 28, "duration": 10, "velocity": 66}, {"time": 94801, "pitch": 36, "duration": 10, "velocity": 105}, {"time": 94801, "pitch": 42, "duration": 38, "velocity": 70}, {"time": 95041, "pitch": 40, "duration": 10, "velocity": 108}, {"time": 95041, "pitch": 42, "duration": 50, "velocity": 117}, {"time": 95282, "pitch": 36, "duration": 10, "velocity": 87}, {"time": 95282, "pitch": 42, "duration": 38, "velocity": 57}, {"time": 95442, "pitch": 28, "duration": 10, "velocity": 42}, {"time": 95522, "pitch": 36, "duration": 10, "velocity": 106}, {"time": 95522, "pitch": 42, "duration": 47, "velocity": 104}, {"time": 95762, "pitch": 36, "duration": 10, "velocity": 115}, {"time": 95762, "pitch": 42, "duration": 41, "velocity": 64}, {"time": 96002, "pitch": 40, "duration": 10, "velocity": 111}, {"time": 96002, "pitch": 42, "duration": 55, "velocity": 111}, {"time": 96002, "pitch": 54, "duration": 69, "velocity": 122}, {"time": 96243, "pitch": 36, "duration": 10, "velocity": 80}, {"time": 96243, "pitch": 42, "duration": 48, "velocity": 59}, {"time": 96243, "pitch": 69, "duration": 34, "velocity": 85}, {"time": 96403, "pitch": 28, "duration": 10, "velocity": 46}, {"time": 96403, "pitch": 82, "duration": 60, "velocity": 90}, {"time": 96483, "pitch": 36, "duration": 10, "velocity": 105}, {"time": 96483, "pitch": 42, "duration": 55, "velocity": 112}, {"time": 96643, "pitch": 28, "duration": 10, "velocity": 46}, {"time": 96723, "pitch": 36, "duration": 10, "velocity": 92}, {"time": 96723, "pitch": 42, "duration": 45, "velocity": 57}, {"time": 96963, "pitch": 39, "duration": 78, "velocity": 121}, {"time": 96963, "pitch": 40, "duration": 10, "velocity": 108}, {"time": 96963, "pitch": 42, "duration": 59, "velocity": 112}, {"time": 97200, "pitch": 36, "duration": 10, "velocity": 94}, {"time": 97200, "pitch": 42, "duration": 41, "velocity": 61}, {"time": 97358, "pitch": 28, "duration": 10, "velocity": 42}, {"time": 97437, "pitch": 36, "duration": 10, "velocity": 106}, {"time": 97437, "pitch": 42, "duration": 58, "velocity": 100}, {"time": 97677, "pitch": 36, "duration": 10, "velocity": 99}, {"time": 97677, "pitch": 42, "duration": 40, "velocity": 59}, {"time": 97918, "pitch": 40, "duration": 10, "velocity": 116}, {"time": 97918, "pitch": 42, "duration": 46, "velocity": 104}, {"time": 97918, "pitch": 54, "duration": 60, "velocity": 122}, {"time": 98158, "pitch": 36, "duration": 10, "velocity": 73}, {"time": 98158, "pitch": 42, "duration": 39, "velocity": 65}, {"time": 98318, "pitch": 28, "duration": 10, "velocity": 46}, {"time": 98398, "pitch": 36, "duration": 10, "velocity": 71}, {"time": 98398, "pitch": 42, "duration": 46, "velocity": 104}, {"time": 98398, "pitch": 69, "duration": 34, "velocity": 85}, {"time": 98558, "pitch": 28, "duration": 10, "velocity": 66}, {"time": 98558, "pitch": 82, "duration": 60, "velocity": 90}, {"time": 98638, "pitch": 36, "duration": 10, "velocity": 105}, {"time": 98638, "pitch": 42, "duration": 38, "velocity": 70}, {"time": 98878, "pitch": 40, "duration": 10, "velocity": 108}, {"time": 98878, "pitch": 42, "duration": 49, "velocity": 117}, {"time": 99119, "pitch": 36, "duration": 10, "velocity": 87}, {"time": 99119, "pitch": 42, "duration": 38, "velocity": 57}, {"time": 99279, "pitch": 28, "duration": 10, "velocity": 42}, {"time": 99359, "pitch": 36, "duration": 10, "velocity": 106}, {"time": 99359, "pitch": 42, "duration": 47, "velocity": 104}, {"time": 99599, "pitch": 36, "duration": 10, "velocity": 115}, {"time": 99599, "pitch": 42, "duration": 41, "velocity": 64}, {"time": 99839, "pitch": 40, "duration": 10, "velocity": 111}, {"time": 99839, "pitch": 42, "duration": 55, "velocity": 111}, {"time": 99839, "pitch": 54, "duration": 74, "velocity": 121}, {"time": 100079, "pitch": 36, "duration": 10, "velocity": 80}, {"time": 100079, "pitch": 42, "duration": 49, "velocity": 59}, {"time": 100240, "pitch": 28, "duration": 10, "velocity": 46}, {"time": 100320, "pitch": 36, "duration": 10, "velocity": 105}, {"time": 100320, "pitch": 42, "duration": 55, "velocity": 112}, {"time": 100480, "pitch": 28, "duration": 10, "velocity": 46}, {"time": 100560, "pitch": 36, "duration": 10, "velocity": 92}, {"time": 100560, "pitch": 42, "duration": 45, "velocity": 57}, {"time": 100800, "pitch": 39, "duration": 102, "velocity": 121}, {"time": 100800, "pitch": 40, "duration": 10, "velocity": 108}, {"time": 100800, "pitch": 42, "duration": 60, "velocity": 112}, {"time": 100960, "pitch": 48, "duration": 60, "velocity": 110}, {"time": 101040, "pitch": 36, "duration": 10, "velocity": 94}, {"time": 101040, "pitch": 41, "duration": 60, "velocity": 110}, {"time": 101040, "pitch": 42, "duration": 41, "velocity": 61}, {"time": 101040, "pitch": 69, "duration": 34, "velocity": 85}, {"time": 101200, "pitch": 28, "duration": 10, "velocity": 42}, {"time": 101200, "pitch": 82, "duration": 61, "velocity": 90}, {"time": 101281, "pitch": 36, "duration": 10, "velocity": 106}, {"time": 101281, "pitch": 42, "duration": 58, "velocity": 100}, {"time": 101281, "pitch": 57, "duration": 60, "velocity": 90}, {"time": 101521, "pitch": 36, "duration": 10, "velocity": 99}, {"time": 101521, "pitch": 42, "duration": 40, "velocity": 59}, {"time": 101521, "pitch": 69, "duration": 60, "velocity": 90}, {"time": 101681, "pitch": 82, "duration": 34, "velocity": 90}, {"time": 101761, "pitch": 40, "duration": 10, "velocity": 116}, {"time": 101761, "pitch": 42, "duration": 46, "velocity": 104}, {"time": 102001, "pitch": 36, "duration": 10, "velocity": 73}, {"time": 102001, "pitch": 42, "duration": 39, "velocity": 65}, {"time": 102161, "pitch": 28, "duration": 10, "velocity": 46}, {"time": 102241, "pitch": 36, "duration": 10, "velocity": 71}, {"time": 102241, "pitch": 42, "duration": 46, "velocity": 104}, {"time": 102402, "pitch": 28, "duration": 10, "velocity": 66}, {"time": 102482, "pitch": 36, "duration": 10, "velocity": 105}, {"time": 102482, "pitch": 42, "duration": 38, "velocity": 70}, {"time": 102722, "pitch": 40, "duration": 10, "velocity": 108}, {"time": 102722, "pitch": 42, "duration": 49, "velocity": 117}, {"time": 102962, "pitch": 36, "duration": 10, "velocity": 87}, {"time": 102962, "pitch": 42, "duration": 38, "velocity": 57}, {"time": 103122, "pitch": 28, "duration": 10, "velocity": 42}, {"time": 103202, "pitch": 36, "duration": 10, "velocity": 106}, {"time": 103202, "pitch": 42, "duration": 47, "velocity": 104}, {"time": 103442, "pitch": 36, "duration": 10, "velocity": 115}, {"time": 103442, "pitch": 42, "duration": 41, "velocity": 64}, {"time": 103683, "pitch": 40, "duration": 10, "velocity": 111}, {"time": 103683, "pitch": 42, "duration": 55, "velocity": 111}, {"time": 103923, "pitch": 36, "duration": 10, "velocity": 80}, {"time": 103923, "pitch": 42, "duration": 48, "velocity": 59}, {"time": 103923, "pitch": 69, "duration": 34, "velocity": 85}, {"time": 104083, "pitch": 28, "duration": 10, "velocity": 46}, {"time": 104083, "pitch": 82, "duration": 60, "velocity": 90}, {"time": 104163, "pitch": 36, "duration": 10, "velocity": 105}, {"time": 104163, "pitch": 42, "duration": 54, "velocity": 112}, {"time": 104321, "pitch": 28, "duration": 10, "velocity": 46}, {"time": 104400, "pitch": 36, "duration": 10, "velocity": 92}, {"time": 104400, "pitch": 42, "duration": 44, "velocity": 57}, {"time": 104637, "pitch": 40, "duration": 10, "velocity": 108}, {"time": 104637, "pitch": 42, "duration": 60, "velocity": 112}, {"time": 104877, "pitch": 36, "duration": 10, "velocity": 94}, {"time": 104877, "pitch": 42, "duration": 41, "velocity": 61}, {"time": 105037, "pitch": 28, "duration": 10, "velocity": 42}, {"time": 105117, "pitch": 36, "duration": 10, "velocity": 106}, {"time": 105117, "pitch": 42, "duration": 59, "velocity": 100}, {"time": 105358, "pitch": 36, "duration": 10, "velocity": 99}, {"time": 105358, "pitch": 42, "duration": 40, "velocity": 59}, {"time": 105598, "pitch": 40, "duration": 10, "velocity": 116}, {"time": 105598, "pitch": 42, "duration": 46, "velocity": 104}, {"time": 105838, "pitch": 36, "duration": 10, "velocity": 73}, {"time": 105838, "pitch": 42, "duration": 39, "velocity": 65}, {"time": 105998, "pitch": 28, "duration": 10, "velocity": 46}, {"time": 106078, "pitch": 36, "duration": 10, "velocity": 71}, {"time": 106078, "pitch": 42, "duration": 46, "velocity": 104}, {"time": 106078, "pitch": 69, "duration": 34, "velocity": 85}, {"time": 106238, "pitch": 28, "duration": 10, "velocity": 66}, {"time": 106238, "pitch": 82, "duration": 61, "velocity": 90}, {"time": 106319, "pitch": 36, "duration": 10, "velocity": 105}, {"time": 106319, "pitch": 42, "duration": 38, "velocity": 70}, {"time": 106559, "pitch": 40, "duration": 10, "velocity": 108}, {"time": 106559, "pitch": 42, "duration": 49, "velocity": 117}, {"time": 106799, "pitch": 36, "duration": 10, "velocity": 87}, {"time": 106799, "pitch": 42, "duration": 38, "velocity": 57}, {"time": 106959, "pitch": 28, "duration": 10, "velocity": 42}, {"time": 107039, "pitch": 36, "duration": 10, "velocity": 106}, {"time": 107039, "pitch": 42, "duration": 47, "velocity": 104}, {"time": 107279, "pitch": 36, "duration": 10, "velocity": 115}, {"time": 107279, "pitch": 42, "duration": 41, "velocity": 64}, {"time": 107520, "pitch": 40, "duration": 10, "velocity": 111}, {"time": 107520, "pitch": 42, "duration": 55, "velocity": 111}, {"time": 107760, "pitch": 36, "duration": 10, "velocity": 80}, {"time": 107760, "pitch": 42, "duration": 48, "velocity": 59}, {"time": 107920, "pitch": 28, "duration": 10, "velocity": 46}, {"time": 108000, "pitch": 36, "duration": 10, "velocity": 105}, {"time": 108000, "pitch": 42, "duration": 55, "velocity": 112}, {"time": 108160, "pitch": 28, "duration": 10, "velocity": 46}, {"time": 108240, "pitch": 36, "duration": 10, "velocity": 92}, {"time": 108240, "pitch": 42, "duration": 45, "velocity": 57}, {"time": 108480, "pitch": 40, "duration": 10, "velocity": 108}, {"time": 108480, "pitch": 42, "duration": 60, "velocity": 112}, {"time": 108721, "pitch": 36, "duration": 10, "velocity": 94}, {"time": 108721, "pitch": 42, "duration": 41, "velocity": 61}, {"time": 108721, "pitch": 69, "duration": 34, "velocity": 85}, {"time": 108881, "pitch": 28, "duration": 10, "velocity": 42}, {"time": 108881, "pitch": 82, "duration": 60, "velocity": 90}, {"time": 108961, "pitch": 36, "duration": 10, "velocity": 106}, {"time": 108961, "pitch": 42, "duration": 58, "velocity": 100}, {"time": 109201, "pitch": 36, "duration": 10, "velocity": 99}, {"time": 109201, "pitch": 42, "duration": 40, "velocity": 59}, {"time": 109201, "pitch": 69, "duration": 60, "velocity": 90}, {"time": 109361, "pitch": 82, "duration": 34, "velocity": 90}, {"time": 109441, "pitch": 40, "duration": 10, "velocity": 116}, {"time": 109441, "pitch": 42, "duration": 46, "velocity": 104}, {"time": 109682, "pitch": 36, "duration": 10, "velocity": 73}, {"time": 109682, "pitch": 42, "duration": 39, "velocity": 65}, {"time": 109842, "pitch": 28, "duration": 10, "velocity": 46}, {"time": 109922, "pitch": 36, "duration": 10, "velocity": 71}, {"time": 109922, "pitch": 42, "duration": 46, "velocity": 104}, {"time": 110082, "pitch": 28, "duration": 10, "velocity": 66}, {"time": 110162, "pitch": 36, "duration": 10, "velocity": 105}, {"time": 110162, "pitch": 42, "duration": 38, "velocity": 70}, {"time": 110402, "pitch": 40, "duration": 10, "velocity": 108}, {"time": 110402, "pitch": 42, "duration": 49, "velocity": 117}, {"time": 110642, "pitch": 36, "duration": 10, "velocity": 87}, {"time": 110642, "pitch": 42, "duration": 38, "velocity": 57}, {"time": 110803, "pitch": 28, "duration": 10, "velocity": 42}, {"time": 110883, "pitch": 36, "duration": 10, "velocity": 106}, {"time": 110883, "pitch": 42, "duration": 47, "velocity": 104}, {"time": 111123, "pitch": 36, "duration": 10, "velocity": 115}, {"time": 111123, "pitch": 42, "duration": 41, "velocity": 64}, {"time": 111363, "pitch": 40, "duration": 10, "velocity": 111}, {"time": 111363, "pitch": 42, "duration": 54, "velocity": 111}, {"time": 111600, "pitch": 36, "duration": 10, "velocity": 80}, {"time": 111600, "pitch": 42, "duration": 47, "velocity": 59}, {"time": 111600, "pitch": 69, "duration": 34, "velocity": 85}, {"time": 111758, "pitch": 28, "duration": 10, "velocity": 46}, {"time": 111758, "pitch": 82, "duration": 59, "velocity": 90}, {"time": 111837, "pitch": 36, "duration": 10, "velocity": 105}, {"time": 111837, "pitch": 42, "duration": 55, "velocity": 112}, {"time": 111997, "pitch": 28, "duration": 10, "velocity": 46}, {"time": 112077, "pitch": 36, "duration": 10, "velocity": 92}, {"time": 112077, "pitch": 42, "duration": 45, "velocity": 57}, {"time": 112317, "pitch": 40, "duration": 10, "velocity": 108}, {"time": 112317, "pitch": 42, "duration": 60, "velocity": 112}, {"time": 112558, "pitch": 36, "duration": 10, "velocity": 94}, {"time": 112558, "pitch": 42, "duration": 41, "velocity": 61}, {"time": 112718, "pitch": 28, "duration": 10, "velocity": 42}, {"time": 112798, "pitch": 36, "duration": 10, "velocity": 106}, {"time": 112798, "pitch": 42, "duration": 58, "velocity": 100}, {"time": 113038, "pitch": 36, "duration": 10, "velocity": 99}, {"time": 113038, "pitch": 42, "duration": 40, "velocity": 59}, {"time": 113278, "pitch": 40, "duration": 10, "velocity": 116}, {"time": 113278, "pitch": 42, "duration": 46, "velocity": 104}, {"time": 113518, "pitch": 36, "duration": 10, "velocity": 73}, {"time": 113518, "pitch": 42, "duration": 39, "velocity": 65}, {"time": 113679, "pitch": 28, "duration": 10, "velocity": 46}, {"time": 113759, "pitch": 36, "duration": 10, "velocity": 71}, {"time": 113759, "pitch": 42, "duration": 46, "velocity": 104}, {"time": 113759, "pitch": 69, "duration": 34, "velocity": 85}, {"time": 113919, "pitch": 28, "duration": 10, "velocity": 66}, {"time": 113919, "pitch": 82, "duration": 60, "velocity": 90}, {"time": 113999, "pitch": 36, "duration": 10, "velocity": 105}, {"time": 113999, "pitch": 42, "duration": 38, "velocity": 70}, {"time": 114239, "pitch": 40, "duration": 10, "velocity": 108}, {"time": 114239, "pitch": 42, "duration": 49, "velocity": 117}, {"time": 114479, "pitch": 36, "duration": 10, "velocity": 87}, {"time": 114479, "pitch": 42, "duration": 38, "velocity": 57}, {"time": 114639, "pitch": 28, "duration": 10, "velocity": 42}, {"time": 114720, "pitch": 36, "duration": 10, "velocity": 106}, {"time": 114720, "pitch": 42, "duration": 47, "velocity": 104}, {"time": 114960, "pitch": 36, "duration": 10, "velocity": 115}, {"time": 114960, "pitch": 42, "duration": 41, "velocity": 64}, {"time": 115200, "pitch": 40, "duration": 10, "velocity": 111}, {"time": 115200, "pitch": 42, "duration": 55, "velocity": 111}, {"time": 115440, "pitch": 36, "duration": 10, "velocity": 80}, {"time": 115440, "pitch": 42, "duration": 48, "velocity": 59}, {"time": 115600, "pitch": 28, "duration": 10, "velocity": 46}, {"time": 115680, "pitch": 36, "duration": 10, "velocity": 105}, {"time": 115680, "pitch": 42, "duration": 55, "velocity": 112}, {"time": 115841, "pitch": 28, "duration": 10, "velocity": 46}, {"time": 115921, "pitch": 36, "duration": 10, "velocity": 92}, {"time": 115921, "pitch": 42, "duration": 45, "velocity": 57}, {"time": 116161, "pitch": 40, "duration": 10, "velocity": 108}, {"time": 116161, "pitch": 42, "duration": 60, "velocity": 112}, {"time": 116401, "pitch": 36, "duration": 10, "velocity": 94}, {"time": 116401, "pitch": 42, "duration": 41, "velocity": 61}, {"time": 116401, "pitch": 69, "duration": 34, "velocity": 85}, {"time": 116561, "pitch": 28, "duration": 10, "velocity": 42}, {"time": 116561, "pitch": 82, "duration": 60, "velocity": 90}, {"time": 116641, "pitch": 36, "duration": 8, "velocity": 84}, {"time": 116641, "pitch": 51, "duration": 47, "velocity": 90}, {"time": 47758, "pitch": 48, "duration": 146, "velocity": 112}, {"time": 47758, "pitch": 60, "duration": 146, "velocity": 112}, {"time": 47918, "pitch": 50, "duration": 280, "velocity": 122}, {"time": 47918, "pitch": 62, "duration": 280, "velocity": 122}, {"time": 48239, "pitch": 52, "duration": 193, "velocity": 108}, {"time": 48239, "pitch": 64, "duration": 193, "velocity": 108}, {"time": 48479, "pitch": 54, "duration": 224, "velocity": 111}, {"time": 48479, "pitch": 66, "duration": 224, "velocity": 111}, {"time": 48719, "pitch": 55, "duration": 140, "velocity": 112}, {"time": 48719, "pitch": 67, "duration": 140, "velocity": 112}, {"time": 48879, "pitch": 57, "duration": 291, "velocity": 111}, {"time": 48879, "pitch": 69, "duration": 291, "velocity": 111}, {"time": 49200, "pitch": 59, "duration": 199, "velocity": 120}, {"time": 49200, "pitch": 71, "duration": 199, "velocity": 120}, {"time": 49440, "pitch": 60, "duration": 162, "velocity": 120}, {"time": 49440, "pitch": 72, "duration": 162, "velocity": 120}, {"time": 49680, "pitch": 59, "duration": 154, "velocity": 120}, {"time": 49680, "pitch": 71, "duration": 154, "velocity": 120}, {"time": 49840, "pitch": 62, "duration": 1026, "velocity": 122}, {"time": 49840, "pitch": 74, "duration": 1026, "velocity": 122}, {"time": 50881, "pitch": 60, "duration": 213, "velocity": 122}, {"time": 50881, "pitch": 72, "duration": 213, "velocity": 122}, {"time": 51121, "pitch": 59, "duration": 201, "velocity": 112}, {"time": 51121, "pitch": 71, "duration": 201, "velocity": 112}, {"time": 51362, "pitch": 57, "duration": 422, "velocity": 114}, {"time": 51362, "pitch": 69, "duration": 422, "velocity": 114}, {"time": 51842, "pitch": 57, "duration": 228, "velocity": 120}, {"time": 51842, "pitch": 69, "duration": 228, "velocity": 120}, {"time": 52082, "pitch": 62, "duration": 144, "velocity": 121}, {"time": 52082, "pitch": 74, "duration": 144, "velocity": 121}, {"time": 52242, "pitch": 59, "duration": 378, "velocity": 112}, {"time": 52242, "pitch": 71, "duration": 378, "velocity": 112}, {"time": 55439, "pitch": 48, "duration": 165, "velocity": 111}, {"time": 55439, "pitch": 60, "duration": 165, "velocity": 111}, {"time": 55599, "pitch": 50, "duration": 289, "velocity": 121}, {"time": 55599, "pitch": 62, "duration": 289, "velocity": 121}, {"time": 55919, "pitch": 52, "duration": 204, "velocity": 112}, {"time": 55919, "pitch": 64, "duration": 204, "velocity": 112}, {"time": 56159, "pitch": 54, "duration": 216, "velocity": 93}, {"time": 56159, "pitch": 66, "duration": 216, "velocity": 93}, {"time": 56400, "pitch": 55, "duration": 215, "velocity": 104}, {"time": 56400, "pitch": 67, "duration": 215, "velocity": 104}, {"time": 56640, "pitch": 57, "duration": 142, "velocity": 114}, {"time": 56640, "pitch": 69, "duration": 142, "velocity": 114}, {"time": 56800, "pitch": 59, "duration": 291, "velocity": 95}, {"time": 56800, "pitch": 71, "duration": 291, "velocity": 95}, {"time": 57120, "pitch": 60, "duration": 217, "velocity": 121}, {"time": 57120, "pitch": 72, "duration": 217, "velocity": 121}, {"time": 57360, "pitch": 59, "duration": 164, "velocity": 104}, {"time": 57360, "pitch": 71, "duration": 164, "velocity": 104}, {"time": 57521, "pitch": 62, "duration": 1036, "velocity": 114}, {"time": 57521, "pitch": 74, "duration": 1036, "velocity": 114}, {"time": 58561, "pitch": 64, "duration": 217, "velocity": 112}, {"time": 58561, "pitch": 76, "duration": 217, "velocity": 112}, {"time": 58802, "pitch": 62, "duration": 193, "velocity": 117}, {"time": 58802, "pitch": 74, "duration": 193, "velocity": 117}, {"time": 59042, "pitch": 66, "duration": 220, "velocity": 117}, {"time": 59042, "pitch": 78, "duration": 220, "velocity": 117}, {"time": 59282, "pitch": 67, "duration": 208, "velocity": 111}, {"time": 59282, "pitch": 79, "duration": 208, "velocity": 111}, {"time": 59522, "pitch": 69, "duration": 233, "velocity": 100}, {"time": 59522, "pitch": 81, "duration": 233, "velocity": 100}, {"time": 59763, "pitch": 62, "duration": 933, "velocity": 117}, {"time": 59763, "pitch": 74, "duration": 933, "velocity": 117}, {"time": 60720, "pitch": 66, "duration": 210, "velocity": 120}, {"time": 60720, "pitch": 78, "duration": 210, "velocity": 120}, {"time": 60957, "pitch": 64, "duration": 213, "velocity": 120}, {"time": 60957, "pitch": 76, "duration": 213, "velocity": 120}, {"time": 61197, "pitch": 62, "duration": 1210, "velocity": 117}, {"time": 61197, "pitch": 74, "duration": 1210, "velocity": 117}, {"time": 62879, "pitch": 52, "duration": 336, "velocity": 93}, {"time": 62879, "pitch": 64, "duration": 331, "velocity": 121}, {"time": 63279, "pitch": 54, "duration": 351, "velocity": 111}, {"time": 63279, "pitch": 66, "duration": 335, "velocity": 122}, {"time": 63599, "pitch": 55, "duration": 258, "velocity": 90}, {"time": 63599, "pitch": 67, "duration": 227, "velocity": 104}, {"time": 63840, "pitch": 57, "duration": 536, "velocity": 112}, {"time": 63840, "pitch": 69, "duration": 502, "velocity": 114}, {"time": 64320, "pitch": 59, "duration": 441, "velocity": 104}, {"time": 64320, "pitch": 71, "duration": 417, "velocity": 117}, {"time": 64801, "pitch": 60, "duration": 998, "velocity": 114}, {"time": 64801, "pitch": 72, "duration": 957, "velocity": 122}, {"time": 65761, "pitch": 62, "duration": 719, "velocity": 117}, {"time": 65761, "pitch": 74, "duration": 712, "velocity": 117}, {"time": 66722, "pitch": 64, "duration": 218, "velocity": 111}, {"time": 66722, "pitch": 76, "duration": 205, "velocity": 120}, {"time": 66962, "pitch": 66, "duration": 215, "velocity": 103}, {"time": 66962, "pitch": 78, "duration": 182, "velocity": 114}, {"time": 67203, "pitch": 67, "duration": 157, "velocity": 112}, {"time": 67203, "pitch": 79, "duration": 160, "velocity": 121}, {"time": 1443, "pitch": 78, "duration": 88, "velocity": 111}, {"time": 1683, "pitch": 71, "duration": 98, "velocity": 81}, {"time": 1923, "pitch": 74, "duration": 107, "velocity": 114}, {"time": 2160, "pitch": 71, "duration": 101, "velocity": 74}, {"time": 2318, "pitch": 78, "duration": 100, "velocity": 108}, {"time": 3518, "pitch": 78, "duration": 61, "velocity": 104}, {"time": 3598, "pitch": 71, "duration": 95, "velocity": 72}, {"time": 3838, "pitch": 74, "duration": 129, "velocity": 112}, {"time": 4078, "pitch": 71, "duration": 118, "velocity": 72}, {"time": 4239, "pitch": 78, "duration": 145, "velocity": 100}, {"time": 5279, "pitch": 76, "duration": 127, "velocity": 104}, {"time": 5520, "pitch": 69, "duration": 123, "velocity": 63}, {"time": 5760, "pitch": 73, "duration": 152, "velocity": 117}, {"time": 6000, "pitch": 69, "duration": 124, "velocity": 58}, {"time": 6160, "pitch": 76, "duration": 135, "velocity": 83}, {"time": 7361, "pitch": 76, "duration": 79, "velocity": 98}, {"time": 7441, "pitch": 69, "duration": 90, "velocity": 68}, {"time": 7682, "pitch": 73, "duration": 138, "velocity": 111}, {"time": 7922, "pitch": 69, "duration": 116, "velocity": 62}, {"time": 8082, "pitch": 76, "duration": 133, "velocity": 83}, {"time": 9123, "pitch": 78, "duration": 87, "velocity": 111}, {"time": 9360, "pitch": 71, "duration": 97, "velocity": 81}, {"time": 9597, "pitch": 74, "duration": 108, "velocity": 114}, {"time": 9837, "pitch": 71, "duration": 102, "velocity": 74}, {"time": 9997, "pitch": 78, "duration": 101, "velocity": 108}, {"time": 11198, "pitch": 78, "duration": 61, "velocity": 104}, {"time": 11278, "pitch": 71, "duration": 95, "velocity": 72}, {"time": 11519, "pitch": 74, "duration": 129, "velocity": 112}, {"time": 11759, "pitch": 71, "duration": 117, "velocity": 72}, {"time": 11919, "pitch": 78, "duration": 145, "velocity": 100}, {"time": 12960, "pitch": 76, "duration": 126, "velocity": 104}, {"time": 13200, "pitch": 69, "duration": 123, "velocity": 63}, {"time": 13440, "pitch": 73, "duration": 152, "velocity": 117}, {"time": 13680, "pitch": 69, "duration": 125, "velocity": 58}, {"time": 13841, "pitch": 76, "duration": 135, "velocity": 83}, {"time": 15042, "pitch": 76, "duration": 79, "velocity": 98}, {"time": 15122, "pitch": 69, "duration": 90, "velocity": 68}, {"time": 15362, "pitch": 73, "duration": 138, "velocity": 111}, {"time": 15602, "pitch": 69, "duration": 116, "velocity": 62}, {"time": 15762, "pitch": 76, "duration": 133, "velocity": 83}, {"time": 16797, "pitch": 78, "duration": 88, "velocity": 111}, {"time": 17037, "pitch": 71, "duration": 98, "velocity": 81}, {"time": 17277, "pitch": 74, "duration": 108, "velocity": 114}, {"time": 17517, "pitch": 71, "duration": 102, "velocity": 74}, {"time": 17678, "pitch": 78, "duration": 101, "velocity": 108}, {"time": 18879, "pitch": 78, "duration": 61, "velocity": 104}, {"time": 18959, "pitch": 71, "duration": 95, "velocity": 72}, {"time": 19199, "pitch": 74, "duration": 129, "velocity": 112}, {"time": 19439, "pitch": 71, "duration": 117, "velocity": 72}, {"time": 19599, "pitch": 78, "duration": 145, "velocity": 100}, {"time": 20640, "pitch": 76, "duration": 126, "velocity": 104}, {"time": 20880, "pitch": 69, "duration": 123, "velocity": 63}, {"time": 21121, "pitch": 73, "duration": 152, "velocity": 117}, {"time": 21361, "pitch": 69, "duration": 124, "velocity": 58}, {"time": 21521, "pitch": 76, "duration": 135, "velocity": 83}, {"time": 22722, "pitch": 76, "duration": 79, "velocity": 98}, {"time": 22802, "pitch": 69, "duration": 90, "velocity": 68}, {"time": 23042, "pitch": 73, "duration": 138, "velocity": 111}, {"time": 23283, "pitch": 69, "duration": 116, "velocity": 62}, {"time": 23443, "pitch": 76, "duration": 133, "velocity": 83}, {"time": 24477, "pitch": 78, "duration": 88, "velocity": 111}, {"time": 24717, "pitch": 71, "duration": 98, "velocity": 81}, {"time": 24958, "pitch": 74, "duration": 108, "velocity": 114}, {"time": 25198, "pitch": 71, "duration": 102, "velocity": 74}, {"time": 25358, "pitch": 78, "duration": 101, "velocity": 108}, {"time": 26559, "pitch": 78, "duration": 61, "velocity": 104}, {"time": 26639, "pitch": 71, "duration": 95, "velocity": 72}, {"time": 26879, "pitch": 74, "duration": 129, "velocity": 112}, {"time": 27119, "pitch": 71, "duration": 118, "velocity": 72}, {"time": 27280, "pitch": 78, "duration": 145, "velocity": 100}, {"time": 28321, "pitch": 76, "duration": 126, "velocity": 104}, {"time": 28561, "pitch": 69, "duration": 123, "velocity": 63}, {"time": 28801, "pitch": 73, "duration": 152, "velocity": 117}, {"time": 29041, "pitch": 69, "duration": 124, "velocity": 58}, {"time": 29201, "pitch": 76, "duration": 135, "velocity": 83}, {"time": 30402, "pitch": 76, "duration": 79, "velocity": 98}, {"time": 30482, "pitch": 69, "duration": 91, "velocity": 68}, {"time": 30723, "pitch": 73, "duration": 138, "velocity": 111}, {"time": 30963, "pitch": 69, "duration": 116, "velocity": 62}, {"time": 31123, "pitch": 76, "duration": 132, "velocity": 83}, {"time": 32157, "pitch": 78, "duration": 89, "velocity": 111}, {"time": 32398, "pitch": 71, "duration": 98, "velocity": 81}, {"time": 32638, "pitch": 74, "duration": 108, "velocity": 114}, {"time": 32878, "pitch": 71, "duration": 102, "velocity": 74}, {"time": 33038, "pitch": 78, "duration": 101, "velocity": 108}, {"time": 34239, "pitch": 78, "duration": 61, "velocity": 104}, {"time": 34319, "pitch": 71, "duration": 95, "velocity": 72}, {"time": 34560, "pitch": 74, "duration": 129, "velocity": 112}, {"time": 34800, "pitch": 71, "duration": 117, "velocity": 72}, {"time": 34960, "pitch": 78, "duration": 145, "velocity": 100}, {"time": 36001, "pitch": 76, "duration": 126, "velocity": 104}, {"time": 36241, "pitch": 69, "duration": 123, "velocity": 63}, {"time": 36481, "pitch": 73, "duration": 152, "velocity": 117}, {"time": 36721, "pitch": 69, "duration": 125, "velocity": 58}, {"time": 36882, "pitch": 76, "duration": 135, "velocity": 83}, {"time": 38083, "pitch": 76, "duration": 79, "velocity": 98}, {"time": 38163, "pitch": 69, "duration": 90, "velocity": 68}, {"time": 38403, "pitch": 73, "duration": 136, "velocity": 111}, {"time": 38640, "pitch": 69, "duration": 115, "velocity": 62}, {"time": 38798, "pitch": 76, "duration": 132, "velocity": 83}, {"time": 39838, "pitch": 78, "duration": 88, "velocity": 111}, {"time": 40078, "pitch": 71, "duration": 98, "velocity": 81}, {"time": 40318, "pitch": 74, "duration": 108, "velocity": 114}, {"time": 40558, "pitch": 71, "duration": 103, "velocity": 74}, {"time": 40719, "pitch": 78, "duration": 101, "velocity": 108}, {"time": 41920, "pitch": 78, "duration": 61, "velocity": 104}, {"time": 42000, "pitch": 71, "duration": 95, "velocity": 72}, {"time": 42240, "pitch": 74, "duration": 129, "velocity": 112}, {"time": 42480, "pitch": 71, "duration": 117, "velocity": 72}, {"time": 42640, "pitch": 78, "duration": 145, "velocity": 100}, {"time": 43681, "pitch": 76, "duration": 126, "velocity": 104}, {"time": 43921, "pitch": 69, "duration": 124, "velocity": 63}, {"time": 44162, "pitch": 73, "duration": 152, "velocity": 117}, {"time": 44402, "pitch": 69, "duration": 124, "velocity": 58}, {"time": 44562, "pitch": 76, "duration": 135, "velocity": 83}, {"time": 45761, "pitch": 76, "duration": 78, "velocity": 98}, {"time": 45840, "pitch": 69, "duration": 89, "velocity": 68}, {"time": 46077, "pitch": 73, "duration": 138, "velocity": 111}, {"time": 46317, "pitch": 69, "duration": 116, "velocity": 62}, {"time": 46477, "pitch": 76, "duration": 133, "velocity": 83}, {"time": 47518, "pitch": 83, "duration": 88, "velocity": 111}, {"time": 47758, "pitch": 76, "duration": 98, "velocity": 81}, {"time": 47999, "pitch": 79, "duration": 108, "velocity": 114}, {"time": 48239, "pitch": 76, "duration": 102, "velocity": 74}, {"time": 48399, "pitch": 83, "duration": 101, "velocity": 108}, {"time": 49600, "pitch": 83, "duration": 61, "velocity": 104}, {"time": 49680, "pitch": 76, "duration": 95, "velocity": 72}, {"time": 49920, "pitch": 79, "duration": 129, "velocity": 112}, {"time": 50160, "pitch": 76, "duration": 118, "velocity": 72}, {"time": 50321, "pitch": 83, "duration": 145, "velocity": 100}, {"time": 51362, "pitch": 81, "duration": 126, "velocity": 104}, {"time": 51602, "pitch": 74, "duration": 123, "velocity": 63}, {"time": 51842, "pitch": 78, "duration": 152, "velocity": 117}, {"time": 52082, "pitch": 74, "duration": 124, "velocity": 58}, {"time": 52242, "pitch": 81, "duration": 135, "velocity": 83}, {"time": 53437, "pitch": 81, "duration": 79, "velocity": 98}, {"time": 53517, "pitch": 74, "duration": 90, "velocity": 68}, {"time": 53757, "pitch": 78, "duration": 138, "velocity": 111}, {"time": 53997, "pitch": 74, "duration": 117, "velocity": 62}, {"time": 54158, "pitch": 81, "duration": 133, "velocity": 83}, {"time": 55198, "pitch": 83, "duration": 89, "velocity": 111}, {"time": 55439, "pitch": 76, "duration": 98, "velocity": 81}, {"time": 55679, "pitch": 79, "duration": 108, "velocity": 114}, {"time": 55919, "pitch": 76, "duration": 102, "velocity": 74}, {"time": 56079, "pitch": 83, "duration": 101, "velocity": 108}, {"time": 57280, "pitch": 83, "duration": 61, "velocity": 104}, {"time": 57360, "pitch": 76, "duration": 95, "velocity": 72}, {"time": 57601, "pitch": 79, "duration": 129, "velocity": 112}, {"time": 57841, "pitch": 76, "duration": 117, "velocity": 72}, {"time": 58001, "pitch": 83, "duration": 145, "velocity": 100}, {"time": 59042, "pitch": 81, "duration": 126, "velocity": 104}, {"time": 59282, "pitch": 74, "duration": 123, "velocity": 63}, {"time": 59522, "pitch": 78, "duration": 152, "velocity": 117}, {"time": 59763, "pitch": 74, "duration": 124, "velocity": 58}, {"time": 59923, "pitch": 81, "duration": 135, "velocity": 83}, {"time": 61117, "pitch": 81, "duration": 79, "velocity": 98}, {"time": 61197, "pitch": 74, "duration": 90, "velocity": 68}, {"time": 61438, "pitch": 78, "duration": 138, "velocity": 111}, {"time": 61678, "pitch": 74, "duration": 116, "velocity": 62}, {"time": 61838, "pitch": 81, "duration": 133, "velocity": 83}, {"time": 62879, "pitch": 79, "duration": 88, "velocity": 111}, {"time": 63119, "pitch": 72, "duration": 98, "velocity": 81}, {"time": 63359, "pitch": 76, "duration": 108, "velocity": 114}, {"time": 63599, "pitch": 69, "duration": 103, "velocity": 74}, {"time": 63760, "pitch": 79, "duration": 101, "velocity": 108}, {"time": 64961, "pitch": 79, "duration": 61, "velocity": 104}, {"time": 65041, "pitch": 72, "duration": 95, "velocity": 72}, {"time": 65281, "pitch": 76, "duration": 129, "velocity": 112}, {"time": 65521, "pitch": 69, "duration": 117, "velocity": 72}, {"time": 65681, "pitch": 79, "duration": 145, "velocity": 100}, {"time": 70559, "pitch": 78, "duration": 88, "velocity": 111}, {"time": 70799, "pitch": 71, "duration": 98, "velocity": 81}, {"time": 71040, "pitch": 74, "duration": 108, "velocity": 114}, {"time": 71280, "pitch": 71, "duration": 102, "velocity": 74}, {"time": 71440, "pitch": 78, "duration": 101, "velocity": 108}, {"time": 72641, "pitch": 78, "duration": 61, "velocity": 104}, {"time": 72721, "pitch": 71, "duration": 95, "velocity": 72}, {"time": 72961, "pitch": 74, "duration": 129, "velocity": 112}, {"time": 73202, "pitch": 71, "duration": 117, "velocity": 72}, {"time": 73362, "pitch": 78, "duration": 145, "velocity": 100}, {"time": 74403, "pitch": 76, "duration": 126, "velocity": 104}, {"time": 74643, "pitch": 69, "duration": 123, "velocity": 63}, {"time": 74883, "pitch": 73, "duration": 150, "velocity": 117}, {"time": 75120, "pitch": 69, "duration": 122, "velocity": 58}, {"time": 75278, "pitch": 76, "duration": 134, "velocity": 83}, {"time": 76478, "pitch": 76, "duration": 79, "velocity": 98}, {"time": 76558, "pitch": 69, "duration": 90, "velocity": 68}, {"time": 76798, "pitch": 73, "duration": 138, "velocity": 111}, {"time": 77038, "pitch": 69, "duration": 117, "velocity": 62}, {"time": 77199, "pitch": 76, "duration": 133, "velocity": 83}, {"time": 78239, "pitch": 78, "duration": 89, "velocity": 111}, {"time": 78480, "pitch": 71, "duration": 98, "velocity": 81}, {"time": 78720, "pitch": 74, "duration": 108, "velocity": 114}, {"time": 78960, "pitch": 71, "duration": 102, "velocity": 74}, {"time": 79120, "pitch": 78, "duration": 101, "velocity": 108}, {"time": 80321, "pitch": 78, "duration": 61, "velocity": 104}, {"time": 80401, "pitch": 71, "duration": 96, "velocity": 72}, {"time": 80642, "pitch": 74, "duration": 129, "velocity": 112}, {"time": 80882, "pitch": 71, "duration": 117, "velocity": 72}, {"time": 81042, "pitch": 78, "duration": 145, "velocity": 100}, {"time": 82083, "pitch": 76, "duration": 124, "velocity": 104}, {"time": 82320, "pitch": 69, "duration": 121, "velocity": 63}, {"time": 82557, "pitch": 73, "duration": 152, "velocity": 117}, {"time": 82797, "pitch": 69, "duration": 124, "velocity": 58}, {"time": 82957, "pitch": 76, "duration": 135, "velocity": 83}, {"time": 84158, "pitch": 76, "duration": 79, "velocity": 98}, {"time": 84238, "pitch": 69, "duration": 90, "velocity": 68}, {"time": 84479, "pitch": 73, "duration": 138, "velocity": 111}, {"time": 84719, "pitch": 69, "duration": 116, "velocity": 62}, {"time": 84879, "pitch": 76, "duration": 133, "velocity": 83}, {"time": 85920, "pitch": 78, "duration": 88, "velocity": 111}, {"time": 86160, "pitch": 71, "duration": 98, "velocity": 81}, {"time": 86400, "pitch": 74, "duration": 108, "velocity": 114}, {"time": 86640, "pitch": 71, "duration": 103, "velocity": 74}, {"time": 86801, "pitch": 78, "duration": 101, "velocity": 108}, {"time": 88002, "pitch": 78, "duration": 61, "velocity": 104}, {"time": 88082, "pitch": 71, "duration": 95, "velocity": 72}, {"time": 88322, "pitch": 74, "duration": 129, "velocity": 112}, {"time": 88562, "pitch": 71, "duration": 117, "velocity": 72}, {"time": 88722, "pitch": 78, "duration": 145, "velocity": 100}, {"time": 89757, "pitch": 76, "duration": 126, "velocity": 104}, {"time": 89997, "pitch": 69, "duration": 123, "velocity": 63}, {"time": 90237, "pitch": 73, "duration": 152, "velocity": 117}, {"time": 90477, "pitch": 69, "duration": 125, "velocity": 58}, {"time": 90638, "pitch": 76, "duration": 135, "velocity": 83}, {"time": 91839, "pitch": 76, "duration": 79, "velocity": 98}, {"time": 91919, "pitch": 69, "duration": 90, "velocity": 68}, {"time": 92159, "pitch": 73, "duration": 138, "velocity": 111}, {"time": 92399, "pitch": 69, "duration": 116, "velocity": 62}, {"time": 92559, "pitch": 76, "duration": 133, "velocity": 83}, {"time": 93600, "pitch": 78, "duration": 88, "velocity": 111}, {"time": 93840, "pitch": 71, "duration": 98, "velocity": 81}, {"time": 94081, "pitch": 74, "duration": 108, "velocity": 114}, {"time": 94321, "pitch": 71, "duration": 102, "velocity": 74}, {"time": 94481, "pitch": 78, "duration": 101, "velocity": 108}, {"time": 95682, "pitch": 78, "duration": 61, "velocity": 104}, {"time": 95762, "pitch": 71, "duration": 95, "velocity": 72}, {"time": 96002, "pitch": 74, "duration": 129, "velocity": 112}, {"time": 96243, "pitch": 71, "duration": 117, "velocity": 72}, {"time": 96403, "pitch": 78, "duration": 145, "velocity": 100}, {"time": 97437, "pitch": 76, "duration": 126, "velocity": 104}, {"time": 97677, "pitch": 69, "duration": 123, "velocity": 63}, {"time": 97918, "pitch": 73, "duration": 152, "velocity": 117}, {"time": 98158, "pitch": 69, "duration": 124, "velocity": 58}, {"time": 98318, "pitch": 76, "duration": 135, "velocity": 83}, {"time": 99519, "pitch": 76, "duration": 79, "velocity": 98}, {"time": 99599, "pitch": 69, "duration": 90, "velocity": 68}, {"time": 99839, "pitch": 73, "duration": 138, "velocity": 111}, {"time": 100079, "pitch": 69, "duration": 117, "velocity": 62}, {"time": 100240, "pitch": 76, "duration": 133, "velocity": 83}, {"time": 101281, "pitch": 78, "duration": 88, "velocity": 111}, {"time": 101521, "pitch": 71, "duration": 98, "velocity": 81}, {"time": 101761, "pitch": 74, "duration": 108, "velocity": 114}, {"time": 102001, "pitch": 71, "duration": 102, "velocity": 74}, {"time": 102161, "pitch": 78, "duration": 101, "velocity": 108}, {"time": 103362, "pitch": 78, "duration": 61, "velocity": 104}, {"time": 103442, "pitch": 71, "duration": 96, "velocity": 72}, {"time": 103683, "pitch": 74, "duration": 129, "velocity": 112}, {"time": 103923, "pitch": 71, "duration": 117, "velocity": 72}, {"time": 104083, "pitch": 78, "duration": 144, "velocity": 100}, {"time": 105117, "pitch": 76, "duration": 127, "velocity": 104}, {"time": 105358, "pitch": 69, "duration": 123, "velocity": 63}, {"time": 105598, "pitch": 73, "duration": 152, "velocity": 117}, {"time": 105838, "pitch": 69, "duration": 124, "velocity": 58}, {"time": 105998, "pitch": 76, "duration": 135, "velocity": 83}, {"time": 107199, "pitch": 76, "duration": 79, "velocity": 98}, {"time": 107279, "pitch": 69, "duration": 90, "velocity": 68}, {"time": 107520, "pitch": 73, "duration": 138, "velocity": 111}, {"time": 107760, "pitch": 69, "duration": 116, "velocity": 62}, {"time": 107920, "pitch": 76, "duration": 133, "velocity": 83}, {"time": 108961, "pitch": 78, "duration": 88, "velocity": 111}, {"time": 109201, "pitch": 71, "duration": 98, "velocity": 81}, {"time": 109441, "pitch": 74, "duration": 108, "velocity": 114}, {"time": 109682, "pitch": 71, "duration": 102, "velocity": 74}, {"time": 109842, "pitch": 78, "duration": 101, "velocity": 108}, {"time": 111043, "pitch": 78, "duration": 61, "velocity": 104}, {"time": 111123, "pitch": 71, "duration": 95, "velocity": 72}, {"time": 111363, "pitch": 74, "duration": 127, "velocity": 112}, {"time": 111600, "pitch": 71, "duration": 116, "velocity": 72}, {"time": 111758, "pitch": 78, "duration": 144, "velocity": 100}, {"time": 112798, "pitch": 76, "duration": 126, "velocity": 104}, {"time": 113038, "pitch": 69, "duration": 123, "velocity": 63}, {"time": 113278, "pitch": 73, "duration": 152, "velocity": 117}, {"time": 113518, "pitch": 69, "duration": 125, "velocity": 58}, {"time": 113679, "pitch": 76, "duration": 135, "velocity": 83}, {"time": 114880, "pitch": 76, "duration": 79, "velocity": 98}, {"time": 114960, "pitch": 69, "duration": 90, "velocity": 68}, {"time": 115200, "pitch": 73, "duration": 138, "velocity": 111}, {"time": 115440, "pitch": 69, "duration": 116, "velocity": 62}, {"time": 115600, "pitch": 76, "duration": 133, "velocity": 83}, {"time": 32157, "pitch": 74, "duration": 1442, "velocity": 100}, {"time": 32157, "pitch": 83, "duration": 1442, "velocity": 100}, {"time": 33599, "pitch": 76, "duration": 480, "velocity": 100}, {"time": 33599, "pitch": 85, "duration": 480, "velocity": 100}, {"time": 34079, "pitch": 78, "duration": 961, "velocity": 100}, {"time": 34079, "pitch": 86, "duration": 961, "velocity": 100}, {"time": 35040, "pitch": 79, "duration": 480, "velocity": 100}, {"time": 35040, "pitch": 88, "duration": 480, "velocity": 100}, {"time": 35520, "pitch": 78, "duration": 481, "velocity": 100}, {"time": 35520, "pitch": 86, "duration": 481, "velocity": 100}, {"time": 36001, "pitch": 76, "duration": 961, "velocity": 100}, {"time": 36001, "pitch": 85, "duration": 961, "velocity": 100}, {"time": 36962, "pitch": 73, "duration": 961, "velocity": 100}, {"time": 36962, "pitch": 81, "duration": 961, "velocity": 100}, {"time": 37923, "pitch": 69, "duration": 1915, "velocity": 100}, {"time": 37923, "pitch": 78, "duration": 1915, "velocity": 100}, {"time": 39838, "pitch": 74, "duration": 1441, "velocity": 100}, {"time": 39838, "pitch": 83, "duration": 1441, "velocity": 100}, {"time": 41279, "pitch": 76, "duration": 480, "velocity": 100}, {"time": 41279, "pitch": 85, "duration": 480, "velocity": 100}, {"time": 41759, "pitch": 78, "duration": 961, "velocity": 100}, {"time": 41759, "pitch": 86, "duration": 961, "velocity": 100}, {"time": 42720, "pitch": 79, "duration": 481, "velocity": 100}, {"time": 42720, "pitch": 88, "duration": 481, "velocity": 100}, {"time": 43201, "pitch": 78, "duration": 480, "velocity": 100}, {"time": 43201, "pitch": 86, "duration": 480, "velocity": 100}, {"time": 43681, "pitch": 76, "duration": 1922, "velocity": 100}, {"time": 43681, "pitch": 85, "duration": 1922, "velocity": 100}, {"time": 45603, "pitch": 85, "duration": 1915, "velocity": 100}, {"time": 45603, "pitch": 93, "duration": 1915, "velocity": 100}, {"time": 47518, "pitch": 76, "duration": 1423, "velocity": 86}, {"time": 47518, "pitch": 84, "duration": 1436, "velocity": 114}, {"time": 48959, "pitch": 78, "duration": 467, "velocity": 100}, {"time": 48959, "pitch": 86, "duration": 462, "velocity": 112}, {"time": 49440, "pitch": 79, "duration": 1429, "velocity": 83}, {"time": 49440, "pitch": 88, "duration": 1436, "velocity": 104}, {"time": 50881, "pitch": 79, "duration": 477, "velocity": 86}, {"time": 50881, "pitch": 88, "duration": 468, "velocity": 93}, {"time": 51362, "pitch": 78, "duration": 949, "velocity": 85}, {"time": 51362, "pitch": 86, "duration": 947, "velocity": 112}, {"time": 52322, "pitch": 83, "duration": 951, "velocity": 74}, {"time": 52322, "pitch": 90, "duration": 940, "velocity": 79}, {"time": 53277, "pitch": 86, "duration": 972, "velocity": 81}, {"time": 53277, "pitch": 93, "duration": 975, "velocity": 81}, {"time": 54238, "pitch": 83, "duration": 972, "velocity": 81}, {"time": 54238, "pitch": 90, "duration": 925, "velocity": 74}, {"time": 55198, "pitch": 76, "duration": 1469, "velocity": 85}, {"time": 55198, "pitch": 84, "duration": 1460, "velocity": 114}, {"time": 56640, "pitch": 78, "duration": 449, "velocity": 77}, {"time": 56640, "pitch": 86, "duration": 449, "velocity": 108}, {"time": 57120, "pitch": 79, "duration": 1012, "velocity": 86}, {"time": 57120, "pitch": 88, "duration": 1025, "velocity": 100}, {"time": 58081, "pitch": 83, "duration": 901, "velocity": 86}, {"time": 58081, "pitch": 91, "duration": 911, "velocity": 85}, {"time": 59042, "pitch": 86, "duration": 995, "velocity": 93}, {"time": 59042, "pitch": 93, "duration": 966, "velocity": 95}, {"time": 60003, "pitch": 81, "duration": 874, "velocity": 90}, {"time": 60003, "pitch": 90, "duration": 872, "velocity": 75}, {"time": 60957, "pitch": 81, "duration": 1780, "velocity": 93}, {"time": 60957, "pitch": 90, "duration": 1772, "velocity": 100}, {"time": 62879, "pitch": 81, "duration": 1837, "velocity": 85}, {"time": 62879, "pitch": 84, "duration": 1841, "velocity": 100}, {"time": 64801, "pitch": 81, "duration": 723, "velocity": 86}, {"time": 64801, "pitch": 84, "duration": 712, "velocity": 100}, {"time": 65521, "pitch": 83, "duration": 687, "velocity": 98}, {"time": 65521, "pitch": 86, "duration": 677, "velocity": 85}, {"time": 66242, "pitch": 84, "duration": 285, "velocity": 93}, {"time": 66242, "pitch": 88, "duration": 284, "velocity": 77}, {"time": 66722, "pitch": 76, "duration": 240, "velocity": 112}, {"time": 66722, "pitch": 79, "duration": 240, "velocity": 108}, {"time": 66962, "pitch": 78, "duration": 226, "velocity": 76}, {"time": 66962, "pitch": 81, "duration": 202, "velocity": 85}, {"time": 67203, "pitch": 79, "duration": 81, "velocity": 104}, {"time": 67203, "pitch": 83, "duration": 89, "velocity": 111}, {"time": 101281, "pitch": 74, "duration": 1441, "velocity": 100}, {"time": 101281, "pitch": 83, "duration": 1441, "velocity": 100}, {"time": 102722, "pitch": 76, "duration": 480, "velocity": 100}, {"time": 102722, "pitch": 85, "duration": 480, "velocity": 100}, {"time": 103202, "pitch": 78, "duration": 961, "velocity": 100}, {"time": 103202, "pitch": 86, "duration": 961, "velocity": 100}, {"time": 104163, "pitch": 79, "duration": 474, "velocity": 100}, {"time": 104163, "pitch": 88, "duration": 474, "velocity": 100}, {"time": 104637, "pitch": 78, "duration": 480, "velocity": 100}, {"time": 104637, "pitch": 86, "duration": 480, "velocity": 100}, {"time": 105117, "pitch": 76, "duration": 961, "velocity": 100}, {"time": 105117, "pitch": 85, "duration": 961, "velocity": 100}, {"time": 106078, "pitch": 73, "duration": 961, "velocity": 100}, {"time": 106078, "pitch": 81, "duration": 961, "velocity": 100}, {"time": 107039, "pitch": 69, "duration": 1922, "velocity": 100}, {"time": 107039, "pitch": 78, "duration": 1922, "velocity": 100}, {"time": 108961, "pitch": 74, "duration": 1441, "velocity": 100}, {"time": 108961, "pitch": 83, "duration": 1441, "velocity": 100}, {"time": 110402, "pitch": 76, "duration": 481, "velocity": 100}, {"time": 110402, "pitch": 85, "duration": 481, "velocity": 100}, {"time": 110883, "pitch": 78, "duration": 954, "velocity": 100}, {"time": 110883, "pitch": 86, "duration": 954, "velocity": 100}, {"time": 111837, "pitch": 79, "duration": 480, "velocity": 100}, {"time": 111837, "pitch": 88, "duration": 480, "velocity": 100}, {"time": 112317, "pitch": 78, "duration": 481, "velocity": 100}, {"time": 112317, "pitch": 86, "duration": 481, "velocity": 100}, {"time": 112798, "pitch": 76, "duration": 1922, "velocity": 100}, {"time": 112798, "pitch": 85, "duration": 1922, "velocity": 100}, {"time": 114720, "pitch": 85, "duration": 1921, "velocity": 100}, {"time": 114720, "pitch": 93, "duration": 1921, "velocity": 100}, {"time": 116641, "pitch": 81, "duration": 787, "velocity": 90}, {"time": 116641, "pitch": 86, "duration": 742, "velocity": 90}, {"time": 117476, "pitch": 82, "duration": 1597, "velocity": 90}, {"time": 117476, "pitch": 91, "duration": 1594, "velocity": 90}, {"time": 119060, "pitch": 81, "duration": 1418, "velocity": 80}, {"time": 119060, "pitch": 90, "duration": 1419, "velocity": 80}]}]}