{"metadata": {"schema_version": "0.1", "title": "RWC-MDB-P-2001 No. 13: Catch ball / Konbu", "copyright": "RWC Music Database. Copyright (C) 2001 Real World Computing Partnership (contact: Masataka GOTO <m.goto@aist.go.jp>)", "source_filename": "RM-P013.SMF_SYNC.MID", "source_format": "midi"}, "resolution": 480, "tempos": [{"time": 0, "qpm": 59.40594059405941}, {"time": 480, "qpm": 101.69491525423729}, {"time": 960, "qpm": 103.44827586206897}, {"time": 2400, "qpm": 101.69491525423729}, {"time": 2880, "qpm": 103.44827586206897}, {"time": 4320, "qpm": 101.69491525423729}, {"time": 4800, "qpm": 103.44827586206897}, {"time": 6240, "qpm": 101.69491525423729}, {"time": 6720, "qpm": 103.44827586206897}, {"time": 8160, "qpm": 101.69491525423729}, {"time": 8640, "qpm": 103.44827586206897}, {"time": 9600, "qpm": 101.69491525423729}, {"time": 10080, "qpm": 103.44827586206897}, {"time": 11520, "qpm": 101.69491525423729}, {"time": 12000, "qpm": 103.44827586206897}, {"time": 13440, "qpm": 101.69491525423729}, {"time": 13920, "qpm": 103.44827586206897}, {"time": 15360, "qpm": 101.69491525423729}, {"time": 15840, "qpm": 103.44827586206897}, {"time": 17280, "qpm": 101.69491525423729}, {"time": 17760, "qpm": 103.44827586206897}, {"time": 19200, "qpm": 101.69491525423729}, {"time": 19680, "qpm": 103.44827586206897}, {"time": 21120, "qpm": 101.69491525423729}, {"time": 21600, "qpm": 103.44827586206897}, {"time": 23040, "qpm": 101.69491525423729}, {"time": 23520, "qpm": 103.44827586206897}, {"time": 24960, "qpm": 101.69491525423729}, {"time": 25440, "qpm": 103.44827586206897}, {"time": 26880, "qpm": 101.69491525423729}, {"time": 27360, "qpm": 103.44827586206897}, {"time": 28800, "qpm": 101.69491525423729}, {"time": 29280, "qpm": 103.44827586206897}, {"time": 30720, "qpm": 101.69491525423729}, {"time": 31200, "qpm": 103.44827586206897}, {"time": 32640, "qpm": 101.69491525423729}, {"time": 33120, "qpm": 103.44827586206897}, {"time": 34560, "qpm": 101.69491525423729}, {"time": 35040, "qpm": 103.44827586206897}, {"time": 36480, "qpm": 101.69491525423729}, {"time": 36960, "qpm": 103.44827586206897}, {"time": 38400, "qpm": 101.69491525423729}, {"time": 38880, "qpm": 103.44827586206897}, {"time": 40320, "qpm": 101.69491525423729}, {"time": 40800, "qpm": 103.44827586206897}, {"time": 42240, "qpm": 101.69491525423729}, {"time": 42720, "qpm": 103.44827586206897}, {"time": 44160, "qpm": 101.69491525423729}, {"time": 44640, "qpm": 103.44827586206897}, {"time": 45600, "qpm": 101.69491525423729}, {"time": 46080, "qpm": 103.44827586206897}, {"time": 47520, "qpm": 101.69491525423729}, {"time": 48000, "qpm": 103.44827586206897}, {"time": 49440, "qpm": 101.69491525423729}, {"time": 49920, "qpm": 103.44827586206897}, {"time": 51360, "qpm": 101.69491525423729}, {"time": 51840, "qpm": 103.44827586206897}, {"time": 53280, "qpm": 101.69491525423729}, {"time": 53760, "qpm": 103.44827586206897}, {"time": 55200, "qpm": 101.69491525423729}, {"time": 55680, "qpm": 103.44827586206897}, {"time": 57120, "qpm": 101.69491525423729}, {"time": 57600, "qpm": 103.44827586206897}, {"time": 59040, "qpm": 101.69491525423729}, {"time": 59520, "qpm": 103.44827586206897}, {"time": 60960, "qpm": 101.69491525423729}, {"time": 61440, "qpm": 103.44827586206897}, {"time": 62880, "qpm": 101.69491525423729}, {"time": 63360, "qpm": 103.44827586206897}, {"time": 64800, "qpm": 101.69491525423729}, {"time": 65280, "qpm": 103.44827586206897}, {"time": 66720, "qpm": 101.69491525423729}, {"time": 67200, "qpm": 103.44827586206897}, {"time": 68640, "qpm": 101.69491525423729}, {"time": 69120, "qpm": 103.44827586206897}, {"time": 70560, "qpm": 101.69491525423729}, {"time": 71040, "qpm": 103.44827586206897}, {"time": 72480, "qpm": 101.69491525423729}, {"time": 72960, "qpm": 103.44827586206897}, {"time": 74400, "qpm": 101.69491525423729}, {"time": 74880, "qpm": 103.44827586206897}, {"time": 76320, "qpm": 101.69491525423729}, {"time": 76800, "qpm": 103.44827586206897}, {"time": 78240, "qpm": 101.69491525423729}, {"time": 78720, "qpm": 103.44827586206897}, {"time": 80160, "qpm": 101.69491525423729}, {"time": 80640, "qpm": 103.44827586206897}, {"time": 82080, "qpm": 101.69491525423729}, {"time": 82560, "qpm": 103.44827586206897}, {"time": 84000, "qpm": 101.69491525423729}, {"time": 84480, "qpm": 103.44827586206897}, {"time": 85920, "qpm": 101.69491525423729}, {"time": 86400, "qpm": 103.44827586206897}, {"time": 87840, "qpm": 101.69491525423729}, {"time": 88320, "qpm": 103.44827586206897}, {"time": 89760, "qpm": 101.69491525423729}, {"time": 90240, "qpm": 103.44827586206897}, {"time": 91680, "qpm": 101.69491525423729}, {"time": 92160, "qpm": 103.44827586206897}, {"time": 93600, "qpm": 101.69491525423729}, {"time": 94080, "qpm": 103.44827586206897}, {"time": 95040, "qpm": 101.69491525423729}, {"time": 95520, "qpm": 103.44827586206897}, {"time": 96960, "qpm": 101.69491525423729}, {"time": 97440, "qpm": 103.44827586206897}, {"time": 98880, "qpm": 101.69491525423729}, {"time": 99360, "qpm": 103.44827586206897}, {"time": 100800, "qpm": 101.69491525423729}, {"time": 101280, "qpm": 103.44827586206897}, {"time": 102720, "qpm": 101.69491525423729}, {"time": 103200, "qpm": 103.44827586206897}, {"time": 104640, "qpm": 101.69491525423729}, {"time": 105120, "qpm": 103.44827586206897}, {"time": 106560, "qpm": 101.69491525423729}, {"time": 107040, "qpm": 103.44827586206897}, {"time": 108480, "qpm": 101.69491525423729}, {"time": 108960, "qpm": 103.44827586206897}, {"time": 110400, "qpm": 101.69491525423729}, {"time": 110880, "qpm": 103.44827586206897}, {"time": 112320, "qpm": 101.69491525423729}, {"time": 112800, "qpm": 103.44827586206897}, {"time": 114240, "qpm": 101.69491525423729}, {"time": 114720, "qpm": 103.44827586206897}, {"time": 116160, "qpm": 101.69491525423729}, {"time": 116640, "qpm": 103.44827586206897}, {"time": 118080, "qpm": 101.69491525423729}, {"time": 118560, "qpm": 103.44827586206897}, {"time": 120000, "qpm": 101.69491525423729}, {"time": 120480, "qpm": 103.44827586206897}, {"time": 121920, "qpm": 101.69491525423729}, {"time": 122400, "qpm": 103.44827586206897}, {"time": 123840, "qpm": 101.69491525423729}, {"time": 124320, "qpm": 103.44827586206897}, {"time": 125760, "qpm": 101.69491525423729}, {"time": 126240, "qpm": 103.44827586206897}, {"time": 127680, "qpm": 101.69491525423729}, {"time": 128160, "qpm": 103.44827586206897}, {"time": 129600, "qpm": 101.69491525423729}, {"time": 130080, "qpm": 103.44827586206897}, {"time": 131520, "qpm": 101.69491525423729}, {"time": 132000, "qpm": 103.44827586206897}, {"time": 133440, "qpm": 101.69491525423729}, {"time": 133920, "qpm": 103.44827586206897}, {"time": 135360, "qpm": 101.69491525423729}, {"time": 135840, "qpm": 103.44827586206897}, {"time": 137280, "qpm": 101.69491525423729}, {"time": 137760, "qpm": 103.44827586206897}, {"time": 139200, "qpm": 101.69491525423729}, {"time": 139680, "qpm": 103.44827586206897}, {"time": 141120, "qpm": 101.69491525423729}, {"time": 141600, "qpm": 103.44827586206897}, {"time": 143040, "qpm": 101.69491525423729}, {"time": 143520, "qpm": 103.44827586206897}, {"time": 144480, "qpm": 101.69491525423729}, {"time": 144960, "qpm": 103.44827586206897}, {"time": 146400, "qpm": 101.69491525423729}, {"time": 146880, "qpm": 103.44827586206897}, {"time": 148320, "qpm": 101.69491525423729}, {"time": 148800, "qpm": 103.44827586206897}, {"time": 150240, "qpm": 101.69491525423729}, {"time": 150720, "qpm": 103.44827586206897}, {"time": 152160, "qpm": 101.69491525423729}, {"time": 152640, "qpm": 103.44827586206897}, {"time": 154080, "qpm": 101.69491525423729}, {"time": 154560, "qpm": 103.44827586206897}, {"time": 156000, "qpm": 101.69491525423729}, {"time": 156480, "qpm": 103.44827586206897}, {"time": 157920, "qpm": 101.69491525423729}, {"time": 158400, "qpm": 103.44827586206897}, {"time": 159840, "qpm": 101.69491525423729}, {"time": 160320, "qpm": 103.44827586206897}, {"time": 161760, "qpm": 101.69491525423729}, {"time": 162240, "qpm": 103.44827586206897}, {"time": 163680, "qpm": 101.69491525423729}, {"time": 164160, "qpm": 103.44827586206897}, {"time": 165600, "qpm": 101.69491525423729}, {"time": 166080, "qpm": 103.44827586206897}, {"time": 167520, "qpm": 101.69491525423729}, {"time": 168000, "qpm": 103.44827586206897}, {"time": 169440, "qpm": 101.69491525423729}, {"time": 169920, "qpm": 103.44827586206897}, {"time": 171360, "qpm": 101.69491525423729}, {"time": 171840, "qpm": 103.44827586206897}, {"time": 173280, "qpm": 101.69491525423729}, {"time": 173760, "qpm": 103.44827586206897}, {"time": 175200, "qpm": 101.69491525423729}, {"time": 175680, "qpm": 103.44827586206897}, {"time": 177120, "qpm": 101.69491525423729}], "key_signatures": [{"time": 0, "root": 3, "mode": "major"}], "time_signatures": [{"time": 0, "numerator": 1, "denominator": 4}, {"time": 480, "numerator": 4, "denominator": 4}], "tracks": [{"program": 0, "is_drum": false, "name": "Piano", "notes": [{"time": 2400, "pitch": 39, "duration": 121, "velocity": 102}, {"time": 2400, "pitch": 51, "duration": 131, "velocity": 105}, {"time": 2400, "pitch": 63, "duration": 101, "velocity": 113}, {"time": 2400, "pitch": 67, "duration": 91, "velocity": 107}, {"time": 2400, "pitch": 70, "duration": 101, "velocity": 107}, {"time": 2641, "pitch": 39, "duration": 121, "velocity": 105}, {"time": 2641, "pitch": 51, "duration": 151, "velocity": 105}, {"time": 2641, "pitch": 63, "duration": 131, "velocity": 119}, {"time": 2641, "pitch": 67, "duration": 131, "velocity": 107}, {"time": 2641, "pitch": 70, "duration": 121, "velocity": 116}, {"time": 3356, "pitch": 37, "duration": 90, "velocity": 100}, {"time": 3356, "pitch": 49, "duration": 121, "velocity": 102}, {"time": 3356, "pitch": 61, "duration": 70, "velocity": 113}, {"time": 3356, "pitch": 65, "duration": 60, "velocity": 116}, {"time": 3356, "pitch": 68, "duration": 80, "velocity": 107}, {"time": 3597, "pitch": 37, "duration": 141, "velocity": 105}, {"time": 3597, "pitch": 49, "duration": 151, "velocity": 102}, {"time": 3597, "pitch": 61, "duration": 131, "velocity": 116}, {"time": 3597, "pitch": 65, "duration": 121, "velocity": 116}, {"time": 3597, "pitch": 68, "duration": 121, "velocity": 110}, {"time": 4079, "pitch": 44, "duration": 402, "velocity": 93}, {"time": 4079, "pitch": 56, "duration": 402, "velocity": 100}, {"time": 4079, "pitch": 63, "duration": 553, "velocity": 113}, {"time": 4079, "pitch": 68, "duration": 573, "velocity": 116}, {"time": 4079, "pitch": 72, "duration": 563, "velocity": 107}, {"time": 4561, "pitch": 44, "duration": 370, "velocity": 102}, {"time": 4561, "pitch": 56, "duration": 370, "velocity": 85}, {"time": 4802, "pitch": 63, "duration": 316, "velocity": 119}, {"time": 4802, "pitch": 68, "duration": 326, "velocity": 116}, {"time": 4802, "pitch": 72, "duration": 306, "velocity": 113}, {"time": 5039, "pitch": 44, "duration": 559, "velocity": 98}, {"time": 5039, "pitch": 56, "duration": 559, "velocity": 89}, {"time": 5276, "pitch": 63, "duration": 60, "velocity": 113}, {"time": 5276, "pitch": 68, "duration": 60, "velocity": 116}, {"time": 5276, "pitch": 73, "duration": 80, "velocity": 107}, {"time": 5517, "pitch": 63, "duration": 261, "velocity": 116}, {"time": 5517, "pitch": 68, "duration": 271, "velocity": 119}, {"time": 5517, "pitch": 73, "duration": 251, "velocity": 113}, {"time": 5758, "pitch": 44, "duration": 452, "velocity": 105}, {"time": 5758, "pitch": 56, "duration": 462, "velocity": 102}, {"time": 5879, "pitch": 63, "duration": 311, "velocity": 119}, {"time": 5879, "pitch": 68, "duration": 321, "velocity": 107}, {"time": 5879, "pitch": 72, "duration": 321, "velocity": 116}, {"time": 6240, "pitch": 39, "duration": 121, "velocity": 102}, {"time": 6240, "pitch": 51, "duration": 131, "velocity": 105}, {"time": 6240, "pitch": 63, "duration": 101, "velocity": 113}, {"time": 6240, "pitch": 67, "duration": 91, "velocity": 107}, {"time": 6240, "pitch": 70, "duration": 101, "velocity": 107}, {"time": 6481, "pitch": 39, "duration": 121, "velocity": 105}, {"time": 6481, "pitch": 51, "duration": 151, "velocity": 105}, {"time": 6481, "pitch": 63, "duration": 131, "velocity": 119}, {"time": 6481, "pitch": 67, "duration": 131, "velocity": 107}, {"time": 6481, "pitch": 70, "duration": 121, "velocity": 116}, {"time": 7196, "pitch": 37, "duration": 91, "velocity": 100}, {"time": 7196, "pitch": 49, "duration": 121, "velocity": 102}, {"time": 7196, "pitch": 61, "duration": 71, "velocity": 113}, {"time": 7196, "pitch": 65, "duration": 60, "velocity": 116}, {"time": 7196, "pitch": 68, "duration": 81, "velocity": 107}, {"time": 7437, "pitch": 37, "duration": 141, "velocity": 105}, {"time": 7437, "pitch": 49, "duration": 151, "velocity": 102}, {"time": 7437, "pitch": 61, "duration": 131, "velocity": 116}, {"time": 7437, "pitch": 65, "duration": 121, "velocity": 116}, {"time": 7437, "pitch": 68, "duration": 121, "velocity": 110}, {"time": 7919, "pitch": 44, "duration": 402, "velocity": 93}, {"time": 7919, "pitch": 56, "duration": 402, "velocity": 100}, {"time": 7919, "pitch": 63, "duration": 553, "velocity": 113}, {"time": 7919, "pitch": 68, "duration": 573, "velocity": 116}, {"time": 7919, "pitch": 72, "duration": 563, "velocity": 107}, {"time": 8401, "pitch": 44, "duration": 370, "velocity": 102}, {"time": 8401, "pitch": 56, "duration": 370, "velocity": 85}, {"time": 8642, "pitch": 63, "duration": 316, "velocity": 119}, {"time": 8642, "pitch": 68, "duration": 326, "velocity": 116}, {"time": 8642, "pitch": 72, "duration": 307, "velocity": 113}, {"time": 8879, "pitch": 44, "duration": 559, "velocity": 98}, {"time": 8879, "pitch": 56, "duration": 559, "velocity": 89}, {"time": 9116, "pitch": 63, "duration": 61, "velocity": 113}, {"time": 9116, "pitch": 68, "duration": 61, "velocity": 116}, {"time": 9116, "pitch": 73, "duration": 81, "velocity": 107}, {"time": 9357, "pitch": 63, "duration": 261, "velocity": 116}, {"time": 9357, "pitch": 68, "duration": 272, "velocity": 119}, {"time": 9357, "pitch": 73, "duration": 251, "velocity": 113}, {"time": 9598, "pitch": 44, "duration": 452, "velocity": 105}, {"time": 9598, "pitch": 56, "duration": 462, "velocity": 102}, {"time": 9719, "pitch": 63, "duration": 311, "velocity": 119}, {"time": 9719, "pitch": 68, "duration": 321, "velocity": 107}, {"time": 9719, "pitch": 72, "duration": 321, "velocity": 116}, {"time": 10080, "pitch": 39, "duration": 121, "velocity": 102}, {"time": 10080, "pitch": 51, "duration": 131, "velocity": 105}, {"time": 10080, "pitch": 63, "duration": 101, "velocity": 113}, {"time": 10080, "pitch": 67, "duration": 91, "velocity": 107}, {"time": 10080, "pitch": 70, "duration": 101, "velocity": 107}, {"time": 10322, "pitch": 39, "duration": 120, "velocity": 105}, {"time": 10322, "pitch": 51, "duration": 150, "velocity": 105}, {"time": 10322, "pitch": 63, "duration": 130, "velocity": 119}, {"time": 10322, "pitch": 67, "duration": 130, "velocity": 107}, {"time": 10322, "pitch": 70, "duration": 120, "velocity": 116}, {"time": 11036, "pitch": 37, "duration": 91, "velocity": 100}, {"time": 11036, "pitch": 49, "duration": 121, "velocity": 102}, {"time": 11036, "pitch": 61, "duration": 71, "velocity": 113}, {"time": 11036, "pitch": 65, "duration": 61, "velocity": 116}, {"time": 11036, "pitch": 68, "duration": 81, "velocity": 107}, {"time": 11277, "pitch": 37, "duration": 141, "velocity": 105}, {"time": 11277, "pitch": 49, "duration": 151, "velocity": 102}, {"time": 11277, "pitch": 61, "duration": 131, "velocity": 116}, {"time": 11277, "pitch": 65, "duration": 121, "velocity": 116}, {"time": 11277, "pitch": 68, "duration": 121, "velocity": 110}, {"time": 11760, "pitch": 44, "duration": 401, "velocity": 93}, {"time": 11760, "pitch": 56, "duration": 401, "velocity": 100}, {"time": 11760, "pitch": 63, "duration": 552, "velocity": 113}, {"time": 11760, "pitch": 68, "duration": 572, "velocity": 116}, {"time": 11760, "pitch": 72, "duration": 562, "velocity": 107}, {"time": 12242, "pitch": 44, "duration": 369, "velocity": 102}, {"time": 12242, "pitch": 56, "duration": 369, "velocity": 85}, {"time": 12483, "pitch": 63, "duration": 316, "velocity": 119}, {"time": 12483, "pitch": 68, "duration": 325, "velocity": 116}, {"time": 12483, "pitch": 72, "duration": 306, "velocity": 113}, {"time": 12720, "pitch": 44, "duration": 558, "velocity": 98}, {"time": 12720, "pitch": 56, "duration": 558, "velocity": 89}, {"time": 12957, "pitch": 63, "duration": 60, "velocity": 113}, {"time": 12957, "pitch": 68, "duration": 60, "velocity": 116}, {"time": 12957, "pitch": 73, "duration": 80, "velocity": 107}, {"time": 13198, "pitch": 63, "duration": 261, "velocity": 116}, {"time": 13198, "pitch": 68, "duration": 271, "velocity": 119}, {"time": 13198, "pitch": 73, "duration": 251, "velocity": 113}, {"time": 13439, "pitch": 44, "duration": 452, "velocity": 105}, {"time": 13439, "pitch": 56, "duration": 462, "velocity": 102}, {"time": 13559, "pitch": 63, "duration": 311, "velocity": 119}, {"time": 13559, "pitch": 68, "duration": 321, "velocity": 107}, {"time": 13559, "pitch": 72, "duration": 321, "velocity": 116}, {"time": 13921, "pitch": 39, "duration": 120, "velocity": 102}, {"time": 13921, "pitch": 51, "duration": 130, "velocity": 105}, {"time": 13921, "pitch": 63, "duration": 100, "velocity": 113}, {"time": 13921, "pitch": 67, "duration": 90, "velocity": 107}, {"time": 13921, "pitch": 70, "duration": 100, "velocity": 107}, {"time": 14162, "pitch": 39, "duration": 120, "velocity": 105}, {"time": 14162, "pitch": 51, "duration": 150, "velocity": 105}, {"time": 14162, "pitch": 63, "duration": 130, "velocity": 119}, {"time": 14162, "pitch": 67, "duration": 130, "velocity": 107}, {"time": 14162, "pitch": 70, "duration": 120, "velocity": 116}, {"time": 14877, "pitch": 37, "duration": 90, "velocity": 100}, {"time": 14877, "pitch": 49, "duration": 120, "velocity": 102}, {"time": 14877, "pitch": 61, "duration": 70, "velocity": 113}, {"time": 14877, "pitch": 65, "duration": 60, "velocity": 116}, {"time": 14877, "pitch": 68, "duration": 80, "velocity": 107}, {"time": 15118, "pitch": 37, "duration": 140, "velocity": 105}, {"time": 15118, "pitch": 49, "duration": 150, "velocity": 102}, {"time": 15118, "pitch": 61, "duration": 130, "velocity": 116}, {"time": 15118, "pitch": 65, "duration": 120, "velocity": 116}, {"time": 15118, "pitch": 68, "duration": 120, "velocity": 110}, {"time": 15600, "pitch": 44, "duration": 2151, "velocity": 93}, {"time": 15600, "pitch": 56, "duration": 2141, "velocity": 100}, {"time": 15600, "pitch": 63, "duration": 2141, "velocity": 113}, {"time": 15600, "pitch": 68, "duration": 2151, "velocity": 116}, {"time": 15600, "pitch": 72, "duration": 2141, "velocity": 107}, {"time": 17761, "pitch": 39, "duration": 201, "velocity": 82}, {"time": 17761, "pitch": 51, "duration": 221, "velocity": 70}, {"time": 17761, "pitch": 63, "duration": 331, "velocity": 93}, {"time": 17761, "pitch": 67, "duration": 351, "velocity": 98}, {"time": 17761, "pitch": 70, "duration": 331, "velocity": 100}, {"time": 18002, "pitch": 39, "duration": 389, "velocity": 80}, {"time": 18002, "pitch": 51, "duration": 399, "velocity": 74}, {"time": 18243, "pitch": 63, "duration": 296, "velocity": 105}, {"time": 18243, "pitch": 67, "duration": 306, "velocity": 105}, {"time": 18243, "pitch": 70, "duration": 296, "velocity": 102}, {"time": 18480, "pitch": 39, "duration": 128, "velocity": 82}, {"time": 18480, "pitch": 51, "duration": 148, "velocity": 76}, {"time": 18717, "pitch": 37, "duration": 201, "velocity": 79}, {"time": 18717, "pitch": 49, "duration": 201, "velocity": 72}, {"time": 18717, "pitch": 61, "duration": 341, "velocity": 87}, {"time": 18717, "pitch": 65, "duration": 351, "velocity": 92}, {"time": 18717, "pitch": 68, "duration": 351, "velocity": 94}, {"time": 18958, "pitch": 37, "duration": 391, "velocity": 85}, {"time": 18958, "pitch": 49, "duration": 422, "velocity": 77}, {"time": 19199, "pitch": 61, "duration": 291, "velocity": 90}, {"time": 19199, "pitch": 65, "duration": 291, "velocity": 97}, {"time": 19199, "pitch": 68, "duration": 301, "velocity": 97}, {"time": 19440, "pitch": 37, "duration": 221, "velocity": 74}, {"time": 19440, "pitch": 49, "duration": 221, "velocity": 77}, {"time": 19681, "pitch": 36, "duration": 201, "velocity": 82}, {"time": 19681, "pitch": 48, "duration": 221, "velocity": 70}, {"time": 19681, "pitch": 60, "duration": 331, "velocity": 93}, {"time": 19681, "pitch": 63, "duration": 351, "velocity": 98}, {"time": 19681, "pitch": 67, "duration": 331, "velocity": 100}, {"time": 19922, "pitch": 36, "duration": 389, "velocity": 80}, {"time": 19922, "pitch": 48, "duration": 399, "velocity": 74}, {"time": 20163, "pitch": 60, "duration": 296, "velocity": 105}, {"time": 20163, "pitch": 63, "duration": 306, "velocity": 105}, {"time": 20163, "pitch": 67, "duration": 296, "velocity": 102}, {"time": 20400, "pitch": 36, "duration": 128, "velocity": 82}, {"time": 20400, "pitch": 48, "duration": 148, "velocity": 76}, {"time": 20637, "pitch": 35, "duration": 201, "velocity": 79}, {"time": 20637, "pitch": 47, "duration": 201, "velocity": 72}, {"time": 20637, "pitch": 59, "duration": 341, "velocity": 87}, {"time": 20637, "pitch": 63, "duration": 351, "velocity": 92}, {"time": 20637, "pitch": 66, "duration": 351, "velocity": 94}, {"time": 20878, "pitch": 35, "duration": 392, "velocity": 85}, {"time": 20878, "pitch": 47, "duration": 422, "velocity": 77}, {"time": 21119, "pitch": 59, "duration": 291, "velocity": 90}, {"time": 21119, "pitch": 63, "duration": 291, "velocity": 97}, {"time": 21119, "pitch": 66, "duration": 301, "velocity": 97}, {"time": 21360, "pitch": 35, "duration": 221, "velocity": 74}, {"time": 21360, "pitch": 47, "duration": 221, "velocity": 77}, {"time": 21601, "pitch": 31, "duration": 201, "velocity": 82}, {"time": 21601, "pitch": 43, "duration": 221, "velocity": 70}, {"time": 21601, "pitch": 58, "duration": 331, "velocity": 93}, {"time": 21601, "pitch": 62, "duration": 351, "velocity": 98}, {"time": 21601, "pitch": 67, "duration": 331, "velocity": 100}, {"time": 21842, "pitch": 31, "duration": 389, "velocity": 80}, {"time": 21842, "pitch": 43, "duration": 399, "velocity": 74}, {"time": 22083, "pitch": 58, "duration": 296, "velocity": 105}, {"time": 22083, "pitch": 62, "duration": 306, "velocity": 105}, {"time": 22083, "pitch": 67, "duration": 296, "velocity": 102}, {"time": 22320, "pitch": 31, "duration": 128, "velocity": 82}, {"time": 22320, "pitch": 43, "duration": 148, "velocity": 76}, {"time": 22557, "pitch": 36, "duration": 201, "velocity": 79}, {"time": 22557, "pitch": 48, "duration": 201, "velocity": 72}, {"time": 22557, "pitch": 58, "duration": 341, "velocity": 87}, {"time": 22557, "pitch": 63, "duration": 351, "velocity": 92}, {"time": 22557, "pitch": 67, "duration": 351, "velocity": 94}, {"time": 22798, "pitch": 36, "duration": 392, "velocity": 85}, {"time": 22798, "pitch": 48, "duration": 422, "velocity": 77}, {"time": 23039, "pitch": 58, "duration": 291, "velocity": 90}, {"time": 23039, "pitch": 63, "duration": 291, "velocity": 97}, {"time": 23039, "pitch": 67, "duration": 301, "velocity": 97}, {"time": 23280, "pitch": 36, "duration": 221, "velocity": 74}, {"time": 23280, "pitch": 48, "duration": 221, "velocity": 77}, {"time": 23521, "pitch": 29, "duration": 201, "velocity": 82}, {"time": 23521, "pitch": 41, "duration": 221, "velocity": 70}, {"time": 23521, "pitch": 56, "duration": 331, "velocity": 93}, {"time": 23521, "pitch": 60, "duration": 352, "velocity": 98}, {"time": 23521, "pitch": 65, "duration": 331, "velocity": 100}, {"time": 23762, "pitch": 29, "duration": 389, "velocity": 80}, {"time": 23762, "pitch": 41, "duration": 399, "velocity": 74}, {"time": 24003, "pitch": 56, "duration": 296, "velocity": 105}, {"time": 24003, "pitch": 60, "duration": 306, "velocity": 105}, {"time": 24003, "pitch": 65, "duration": 296, "velocity": 102}, {"time": 24240, "pitch": 29, "duration": 128, "velocity": 82}, {"time": 24240, "pitch": 41, "duration": 148, "velocity": 76}, {"time": 24477, "pitch": 34, "duration": 201, "velocity": 79}, {"time": 24477, "pitch": 46, "duration": 201, "velocity": 72}, {"time": 24477, "pitch": 56, "duration": 341, "velocity": 87}, {"time": 24477, "pitch": 60, "duration": 351, "velocity": 92}, {"time": 24477, "pitch": 65, "duration": 351, "velocity": 94}, {"time": 24718, "pitch": 34, "duration": 392, "velocity": 85}, {"time": 24718, "pitch": 46, "duration": 422, "velocity": 77}, {"time": 24959, "pitch": 56, "duration": 291, "velocity": 90}, {"time": 24959, "pitch": 60, "duration": 291, "velocity": 97}, {"time": 24959, "pitch": 65, "duration": 301, "velocity": 97}, {"time": 25200, "pitch": 34, "duration": 221, "velocity": 74}, {"time": 25200, "pitch": 46, "duration": 221, "velocity": 77}, {"time": 25441, "pitch": 39, "duration": 201, "velocity": 82}, {"time": 25441, "pitch": 51, "duration": 221, "velocity": 70}, {"time": 25441, "pitch": 63, "duration": 332, "velocity": 93}, {"time": 25441, "pitch": 67, "duration": 352, "velocity": 98}, {"time": 25441, "pitch": 70, "duration": 332, "velocity": 100}, {"time": 25682, "pitch": 39, "duration": 389, "velocity": 80}, {"time": 25682, "pitch": 51, "duration": 399, "velocity": 74}, {"time": 25923, "pitch": 63, "duration": 296, "velocity": 105}, {"time": 25923, "pitch": 67, "duration": 306, "velocity": 105}, {"time": 25923, "pitch": 70, "duration": 296, "velocity": 102}, {"time": 26160, "pitch": 39, "duration": 128, "velocity": 82}, {"time": 26160, "pitch": 51, "duration": 148, "velocity": 76}, {"time": 26397, "pitch": 37, "duration": 201, "velocity": 79}, {"time": 26397, "pitch": 49, "duration": 201, "velocity": 72}, {"time": 26397, "pitch": 61, "duration": 341, "velocity": 87}, {"time": 26397, "pitch": 65, "duration": 352, "velocity": 92}, {"time": 26397, "pitch": 68, "duration": 352, "velocity": 94}, {"time": 26638, "pitch": 37, "duration": 392, "velocity": 85}, {"time": 26638, "pitch": 49, "duration": 422, "velocity": 77}, {"time": 26879, "pitch": 61, "duration": 291, "velocity": 90}, {"time": 26879, "pitch": 65, "duration": 291, "velocity": 97}, {"time": 26879, "pitch": 68, "duration": 301, "velocity": 97}, {"time": 27120, "pitch": 37, "duration": 221, "velocity": 74}, {"time": 27120, "pitch": 49, "duration": 221, "velocity": 77}, {"time": 27361, "pitch": 36, "duration": 201, "velocity": 82}, {"time": 27361, "pitch": 48, "duration": 221, "velocity": 70}, {"time": 27361, "pitch": 60, "duration": 332, "velocity": 93}, {"time": 27361, "pitch": 63, "duration": 352, "velocity": 98}, {"time": 27361, "pitch": 67, "duration": 332, "velocity": 100}, {"time": 27602, "pitch": 36, "duration": 389, "velocity": 80}, {"time": 27602, "pitch": 48, "duration": 399, "velocity": 74}, {"time": 27843, "pitch": 60, "duration": 296, "velocity": 105}, {"time": 27843, "pitch": 63, "duration": 306, "velocity": 105}, {"time": 27843, "pitch": 67, "duration": 296, "velocity": 102}, {"time": 28080, "pitch": 36, "duration": 129, "velocity": 82}, {"time": 28080, "pitch": 48, "duration": 148, "velocity": 76}, {"time": 28317, "pitch": 35, "duration": 201, "velocity": 79}, {"time": 28317, "pitch": 47, "duration": 201, "velocity": 72}, {"time": 28317, "pitch": 59, "duration": 342, "velocity": 87}, {"time": 28317, "pitch": 63, "duration": 352, "velocity": 92}, {"time": 28317, "pitch": 66, "duration": 352, "velocity": 94}, {"time": 28558, "pitch": 35, "duration": 392, "velocity": 85}, {"time": 28558, "pitch": 47, "duration": 422, "velocity": 77}, {"time": 28799, "pitch": 59, "duration": 291, "velocity": 90}, {"time": 28799, "pitch": 63, "duration": 291, "velocity": 97}, {"time": 28799, "pitch": 66, "duration": 301, "velocity": 97}, {"time": 29040, "pitch": 35, "duration": 221, "velocity": 74}, {"time": 29040, "pitch": 47, "duration": 221, "velocity": 77}, {"time": 29281, "pitch": 31, "duration": 201, "velocity": 82}, {"time": 29281, "pitch": 43, "duration": 221, "velocity": 70}, {"time": 29281, "pitch": 58, "duration": 332, "velocity": 93}, {"time": 29281, "pitch": 62, "duration": 352, "velocity": 98}, {"time": 29281, "pitch": 67, "duration": 332, "velocity": 100}, {"time": 29522, "pitch": 31, "duration": 389, "velocity": 80}, {"time": 29522, "pitch": 43, "duration": 399, "velocity": 74}, {"time": 29763, "pitch": 58, "duration": 297, "velocity": 105}, {"time": 29763, "pitch": 62, "duration": 306, "velocity": 105}, {"time": 29763, "pitch": 67, "duration": 297, "velocity": 102}, {"time": 30000, "pitch": 31, "duration": 129, "velocity": 82}, {"time": 30000, "pitch": 43, "duration": 148, "velocity": 76}, {"time": 30237, "pitch": 36, "duration": 201, "velocity": 79}, {"time": 30237, "pitch": 48, "duration": 201, "velocity": 72}, {"time": 30237, "pitch": 58, "duration": 342, "velocity": 87}, {"time": 30237, "pitch": 63, "duration": 352, "velocity": 92}, {"time": 30237, "pitch": 67, "duration": 352, "velocity": 94}, {"time": 30478, "pitch": 36, "duration": 392, "velocity": 85}, {"time": 30478, "pitch": 48, "duration": 422, "velocity": 77}, {"time": 30719, "pitch": 58, "duration": 292, "velocity": 90}, {"time": 30719, "pitch": 63, "duration": 292, "velocity": 97}, {"time": 30719, "pitch": 67, "duration": 302, "velocity": 97}, {"time": 30960, "pitch": 36, "duration": 221, "velocity": 74}, {"time": 30960, "pitch": 48, "duration": 221, "velocity": 77}, {"time": 31201, "pitch": 34, "duration": 201, "velocity": 82}, {"time": 31201, "pitch": 46, "duration": 221, "velocity": 70}, {"time": 31201, "pitch": 56, "duration": 332, "velocity": 93}, {"time": 31201, "pitch": 60, "duration": 352, "velocity": 98}, {"time": 31201, "pitch": 65, "duration": 332, "velocity": 100}, {"time": 31442, "pitch": 34, "duration": 389, "velocity": 80}, {"time": 31442, "pitch": 46, "duration": 399, "velocity": 74}, {"time": 31683, "pitch": 56, "duration": 297, "velocity": 105}, {"time": 31683, "pitch": 60, "duration": 306, "velocity": 105}, {"time": 31683, "pitch": 65, "duration": 297, "velocity": 102}, {"time": 31920, "pitch": 34, "duration": 129, "velocity": 82}, {"time": 31920, "pitch": 46, "duration": 148, "velocity": 76}, {"time": 32157, "pitch": 39, "duration": 201, "velocity": 79}, {"time": 32157, "pitch": 51, "duration": 201, "velocity": 72}, {"time": 32157, "pitch": 58, "duration": 352, "velocity": 92}, {"time": 32157, "pitch": 63, "duration": 352, "velocity": 94}, {"time": 32157, "pitch": 67, "duration": 342, "velocity": 87}, {"time": 32398, "pitch": 39, "duration": 392, "velocity": 85}, {"time": 32398, "pitch": 51, "duration": 422, "velocity": 77}, {"time": 32639, "pitch": 58, "duration": 292, "velocity": 97}, {"time": 32639, "pitch": 63, "duration": 302, "velocity": 97}, {"time": 32639, "pitch": 67, "duration": 292, "velocity": 90}, {"time": 32880, "pitch": 39, "duration": 221, "velocity": 74}, {"time": 32880, "pitch": 51, "duration": 221, "velocity": 77}, {"time": 33121, "pitch": 39, "duration": 201, "velocity": 79}, {"time": 33121, "pitch": 51, "duration": 201, "velocity": 72}, {"time": 33121, "pitch": 58, "duration": 352, "velocity": 92}, {"time": 33121, "pitch": 63, "duration": 352, "velocity": 94}, {"time": 33121, "pitch": 67, "duration": 342, "velocity": 87}, {"time": 33362, "pitch": 39, "duration": 390, "velocity": 85}, {"time": 33362, "pitch": 51, "duration": 419, "velocity": 77}, {"time": 33603, "pitch": 58, "duration": 287, "velocity": 97}, {"time": 33603, "pitch": 63, "duration": 297, "velocity": 97}, {"time": 33603, "pitch": 67, "duration": 287, "velocity": 90}, {"time": 33840, "pitch": 39, "duration": 218, "velocity": 74}, {"time": 33840, "pitch": 51, "duration": 218, "velocity": 77}, {"time": 34077, "pitch": 39, "duration": 201, "velocity": 79}, {"time": 34077, "pitch": 51, "duration": 201, "velocity": 72}, {"time": 34077, "pitch": 58, "duration": 352, "velocity": 92}, {"time": 34077, "pitch": 63, "duration": 352, "velocity": 94}, {"time": 34077, "pitch": 67, "duration": 342, "velocity": 87}, {"time": 34318, "pitch": 39, "duration": 221, "velocity": 85}, {"time": 34318, "pitch": 51, "duration": 221, "velocity": 77}, {"time": 34559, "pitch": 44, "duration": 221, "velocity": 74}, {"time": 34559, "pitch": 56, "duration": 221, "velocity": 77}, {"time": 34559, "pitch": 58, "duration": 221, "velocity": 97}, {"time": 34559, "pitch": 63, "duration": 302, "velocity": 97}, {"time": 34559, "pitch": 67, "duration": 292, "velocity": 90}, {"time": 34800, "pitch": 45, "duration": 221, "velocity": 74}, {"time": 34800, "pitch": 57, "duration": 221, "velocity": 77}, {"time": 35042, "pitch": 46, "duration": 1839, "velocity": 89}, {"time": 35042, "pitch": 58, "duration": 1859, "velocity": 80}, {"time": 35042, "pitch": 62, "duration": 110, "velocity": 89}, {"time": 35042, "pitch": 65, "duration": 110, "velocity": 102}, {"time": 35042, "pitch": 70, "duration": 120, "velocity": 98}, {"time": 35283, "pitch": 62, "duration": 80, "velocity": 85}, {"time": 35283, "pitch": 65, "duration": 80, "velocity": 98}, {"time": 35283, "pitch": 70, "duration": 70, "velocity": 91}, {"time": 35524, "pitch": 62, "duration": 69, "velocity": 95}, {"time": 35524, "pitch": 65, "duration": 69, "velocity": 100}, {"time": 35524, "pitch": 70, "duration": 69, "velocity": 98}, {"time": 35760, "pitch": 62, "duration": 89, "velocity": 85}, {"time": 35760, "pitch": 65, "duration": 99, "velocity": 91}, {"time": 35760, "pitch": 70, "duration": 79, "velocity": 91}, {"time": 35997, "pitch": 62, "duration": 71, "velocity": 87}, {"time": 35997, "pitch": 65, "duration": 71, "velocity": 100}, {"time": 35997, "pitch": 70, "duration": 81, "velocity": 95}, {"time": 36238, "pitch": 62, "duration": 91, "velocity": 85}, {"time": 36238, "pitch": 65, "duration": 91, "velocity": 89}, {"time": 36238, "pitch": 70, "duration": 101, "velocity": 87}, {"time": 36480, "pitch": 62, "duration": 90, "velocity": 91}, {"time": 36480, "pitch": 65, "duration": 100, "velocity": 100}, {"time": 36480, "pitch": 70, "duration": 90, "velocity": 100}, {"time": 36721, "pitch": 62, "duration": 100, "velocity": 93}, {"time": 36721, "pitch": 65, "duration": 100, "velocity": 87}, {"time": 36721, "pitch": 70, "duration": 120, "velocity": 98}, {"time": 36962, "pitch": 48, "duration": 1839, "velocity": 80}, {"time": 36962, "pitch": 60, "duration": 1849, "velocity": 70}, {"time": 36962, "pitch": 63, "duration": 110, "velocity": 102}, {"time": 36962, "pitch": 67, "duration": 110, "velocity": 105}, {"time": 36962, "pitch": 70, "duration": 110, "velocity": 102}, {"time": 37203, "pitch": 63, "duration": 100, "velocity": 91}, {"time": 37203, "pitch": 67, "duration": 100, "velocity": 82}, {"time": 37203, "pitch": 70, "duration": 100, "velocity": 93}, {"time": 37444, "pitch": 63, "duration": 98, "velocity": 102}, {"time": 37444, "pitch": 67, "duration": 88, "velocity": 100}, {"time": 37444, "pitch": 70, "duration": 98, "velocity": 105}, {"time": 37681, "pitch": 63, "duration": 88, "velocity": 87}, {"time": 37681, "pitch": 67, "duration": 79, "velocity": 85}, {"time": 37681, "pitch": 70, "duration": 79, "velocity": 93}, {"time": 37918, "pitch": 63, "duration": 80, "velocity": 95}, {"time": 37918, "pitch": 67, "duration": 90, "velocity": 91}, {"time": 37918, "pitch": 70, "duration": 100, "velocity": 102}, {"time": 38159, "pitch": 63, "duration": 110, "velocity": 93}, {"time": 38159, "pitch": 67, "duration": 110, "velocity": 85}, {"time": 38159, "pitch": 70, "duration": 100, "velocity": 98}, {"time": 38400, "pitch": 63, "duration": 90, "velocity": 89}, {"time": 38400, "pitch": 67, "duration": 90, "velocity": 91}, {"time": 38400, "pitch": 70, "duration": 90, "velocity": 95}, {"time": 38641, "pitch": 63, "duration": 90, "velocity": 102}, {"time": 38641, "pitch": 67, "duration": 90, "velocity": 100}, {"time": 38641, "pitch": 70, "duration": 90, "velocity": 105}, {"time": 38882, "pitch": 46, "duration": 1880, "velocity": 89}, {"time": 38882, "pitch": 58, "duration": 1890, "velocity": 89}, {"time": 38882, "pitch": 62, "duration": 100, "velocity": 100}, {"time": 38882, "pitch": 65, "duration": 110, "velocity": 107}, {"time": 38882, "pitch": 70, "duration": 130, "velocity": 95}, {"time": 39123, "pitch": 62, "duration": 90, "velocity": 87}, {"time": 39123, "pitch": 65, "duration": 90, "velocity": 98}, {"time": 39123, "pitch": 70, "duration": 80, "velocity": 89}, {"time": 39364, "pitch": 62, "duration": 89, "velocity": 100}, {"time": 39364, "pitch": 65, "duration": 79, "velocity": 105}, {"time": 39364, "pitch": 70, "duration": 69, "velocity": 102}, {"time": 39601, "pitch": 62, "duration": 69, "velocity": 87}, {"time": 39601, "pitch": 65, "duration": 59, "velocity": 98}, {"time": 39601, "pitch": 70, "duration": 59, "velocity": 95}, {"time": 39838, "pitch": 62, "duration": 80, "velocity": 89}, {"time": 39838, "pitch": 65, "duration": 80, "velocity": 100}, {"time": 39838, "pitch": 70, "duration": 80, "velocity": 100}, {"time": 40079, "pitch": 62, "duration": 90, "velocity": 82}, {"time": 40079, "pitch": 65, "duration": 80, "velocity": 85}, {"time": 40079, "pitch": 70, "duration": 80, "velocity": 87}, {"time": 40320, "pitch": 62, "duration": 80, "velocity": 102}, {"time": 40320, "pitch": 65, "duration": 70, "velocity": 100}, {"time": 40320, "pitch": 70, "duration": 80, "velocity": 102}, {"time": 40561, "pitch": 62, "duration": 80, "velocity": 98}, {"time": 40561, "pitch": 65, "duration": 80, "velocity": 100}, {"time": 40561, "pitch": 70, "duration": 100, "velocity": 98}, {"time": 40802, "pitch": 44, "duration": 808, "velocity": 85}, {"time": 40802, "pitch": 56, "duration": 837, "velocity": 74}, {"time": 40802, "pitch": 66, "duration": 120, "velocity": 102}, {"time": 40802, "pitch": 70, "duration": 110, "velocity": 105}, {"time": 40802, "pitch": 73, "duration": 110, "velocity": 100}, {"time": 41043, "pitch": 66, "duration": 80, "velocity": 98}, {"time": 41043, "pitch": 70, "duration": 70, "velocity": 105}, {"time": 41043, "pitch": 73, "duration": 80, "velocity": 102}, {"time": 41284, "pitch": 66, "duration": 89, "velocity": 102}, {"time": 41284, "pitch": 70, "duration": 79, "velocity": 105}, {"time": 41284, "pitch": 73, "duration": 79, "velocity": 102}, {"time": 41521, "pitch": 66, "duration": 79, "velocity": 98}, {"time": 41521, "pitch": 70, "duration": 89, "velocity": 102}, {"time": 41521, "pitch": 73, "duration": 89, "velocity": 100}, {"time": 41639, "pitch": 46, "duration": 671, "velocity": 87}, {"time": 41639, "pitch": 58, "duration": 681, "velocity": 80}, {"time": 41639, "pitch": 68, "duration": 229, "velocity": 113}, {"time": 41639, "pitch": 72, "duration": 229, "velocity": 116}, {"time": 41639, "pitch": 75, "duration": 229, "velocity": 107}, {"time": 41999, "pitch": 68, "duration": 90, "velocity": 102}, {"time": 41999, "pitch": 72, "duration": 70, "velocity": 100}, {"time": 41999, "pitch": 75, "duration": 70, "velocity": 98}, {"time": 42240, "pitch": 68, "duration": 50, "velocity": 102}, {"time": 42240, "pitch": 72, "duration": 50, "velocity": 105}, {"time": 42240, "pitch": 75, "duration": 50, "velocity": 102}, {"time": 42360, "pitch": 43, "duration": 322, "velocity": 108}, {"time": 42360, "pitch": 55, "duration": 322, "velocity": 108}, {"time": 42360, "pitch": 68, "duration": 322, "velocity": 108}, {"time": 42360, "pitch": 72, "duration": 322, "velocity": 108}, {"time": 42360, "pitch": 75, "duration": 322, "velocity": 108}, {"time": 42722, "pitch": 44, "duration": 80, "velocity": 102}, {"time": 42722, "pitch": 56, "duration": 90, "velocity": 105}, {"time": 42722, "pitch": 63, "duration": 100, "velocity": 113}, {"time": 42722, "pitch": 67, "duration": 90, "velocity": 107}, {"time": 42722, "pitch": 72, "duration": 100, "velocity": 107}, {"time": 42963, "pitch": 44, "duration": 80, "velocity": 105}, {"time": 42963, "pitch": 56, "duration": 110, "velocity": 105}, {"time": 42963, "pitch": 63, "duration": 130, "velocity": 119}, {"time": 42963, "pitch": 67, "duration": 130, "velocity": 107}, {"time": 42963, "pitch": 72, "duration": 120, "velocity": 116}, {"time": 43678, "pitch": 44, "duration": 70, "velocity": 100}, {"time": 43678, "pitch": 56, "duration": 100, "velocity": 102}, {"time": 43678, "pitch": 63, "duration": 70, "velocity": 113}, {"time": 43678, "pitch": 67, "duration": 60, "velocity": 116}, {"time": 43678, "pitch": 72, "duration": 80, "velocity": 107}, {"time": 43919, "pitch": 44, "duration": 120, "velocity": 105}, {"time": 43919, "pitch": 56, "duration": 130, "velocity": 102}, {"time": 43919, "pitch": 63, "duration": 130, "velocity": 116}, {"time": 43919, "pitch": 67, "duration": 120, "velocity": 116}, {"time": 43919, "pitch": 72, "duration": 120, "velocity": 110}, {"time": 44401, "pitch": 43, "duration": 402, "velocity": 93}, {"time": 44401, "pitch": 55, "duration": 402, "velocity": 100}, {"time": 44401, "pitch": 63, "duration": 552, "velocity": 113}, {"time": 44401, "pitch": 67, "duration": 572, "velocity": 116}, {"time": 44401, "pitch": 70, "duration": 562, "velocity": 107}, {"time": 44883, "pitch": 43, "duration": 369, "velocity": 102}, {"time": 44883, "pitch": 55, "duration": 369, "velocity": 85}, {"time": 45124, "pitch": 63, "duration": 316, "velocity": 119}, {"time": 45124, "pitch": 67, "duration": 326, "velocity": 116}, {"time": 45124, "pitch": 70, "duration": 306, "velocity": 113}, {"time": 45361, "pitch": 48, "duration": 558, "velocity": 98}, {"time": 45361, "pitch": 60, "duration": 558, "velocity": 89}, {"time": 45598, "pitch": 63, "duration": 60, "velocity": 113}, {"time": 45598, "pitch": 67, "duration": 60, "velocity": 116}, {"time": 45598, "pitch": 70, "duration": 80, "velocity": 107}, {"time": 45839, "pitch": 63, "duration": 261, "velocity": 116}, {"time": 45839, "pitch": 67, "duration": 271, "velocity": 119}, {"time": 45839, "pitch": 70, "duration": 251, "velocity": 113}, {"time": 46080, "pitch": 48, "duration": 452, "velocity": 105}, {"time": 46080, "pitch": 60, "duration": 462, "velocity": 102}, {"time": 46200, "pitch": 63, "duration": 312, "velocity": 119}, {"time": 46200, "pitch": 67, "duration": 322, "velocity": 107}, {"time": 46200, "pitch": 70, "duration": 322, "velocity": 116}, {"time": 46562, "pitch": 41, "duration": 121, "velocity": 102}, {"time": 46562, "pitch": 53, "duration": 131, "velocity": 105}, {"time": 46562, "pitch": 60, "duration": 100, "velocity": 113}, {"time": 46562, "pitch": 63, "duration": 90, "velocity": 107}, {"time": 46562, "pitch": 68, "duration": 100, "velocity": 107}, {"time": 46803, "pitch": 41, "duration": 121, "velocity": 105}, {"time": 46803, "pitch": 53, "duration": 151, "velocity": 105}, {"time": 46803, "pitch": 60, "duration": 131, "velocity": 119}, {"time": 46803, "pitch": 63, "duration": 131, "velocity": 107}, {"time": 46803, "pitch": 68, "duration": 121, "velocity": 116}, {"time": 47518, "pitch": 43, "duration": 90, "velocity": 100}, {"time": 47518, "pitch": 55, "duration": 120, "velocity": 102}, {"time": 47518, "pitch": 62, "duration": 70, "velocity": 113}, {"time": 47518, "pitch": 65, "duration": 60, "velocity": 116}, {"time": 47518, "pitch": 70, "duration": 80, "velocity": 107}, {"time": 47759, "pitch": 43, "duration": 141, "velocity": 105}, {"time": 47759, "pitch": 55, "duration": 151, "velocity": 102}, {"time": 47759, "pitch": 62, "duration": 130, "velocity": 116}, {"time": 47759, "pitch": 65, "duration": 120, "velocity": 116}, {"time": 47759, "pitch": 70, "duration": 120, "velocity": 110}, {"time": 48241, "pitch": 44, "duration": 399, "velocity": 93}, {"time": 48241, "pitch": 56, "duration": 399, "velocity": 100}, {"time": 48241, "pitch": 63, "duration": 547, "velocity": 113}, {"time": 48241, "pitch": 68, "duration": 567, "velocity": 116}, {"time": 48241, "pitch": 72, "duration": 557, "velocity": 107}, {"time": 48719, "pitch": 44, "duration": 367, "velocity": 102}, {"time": 48719, "pitch": 56, "duration": 367, "velocity": 85}, {"time": 48956, "pitch": 63, "duration": 321, "velocity": 119}, {"time": 48956, "pitch": 68, "duration": 331, "velocity": 116}, {"time": 48956, "pitch": 72, "duration": 311, "velocity": 113}, {"time": 49197, "pitch": 46, "duration": 562, "velocity": 98}, {"time": 49197, "pitch": 58, "duration": 562, "velocity": 89}, {"time": 49438, "pitch": 65, "duration": 60, "velocity": 113}, {"time": 49438, "pitch": 70, "duration": 60, "velocity": 116}, {"time": 49438, "pitch": 74, "duration": 80, "velocity": 107}, {"time": 49679, "pitch": 65, "duration": 261, "velocity": 116}, {"time": 49679, "pitch": 70, "duration": 271, "velocity": 119}, {"time": 49679, "pitch": 74, "duration": 251, "velocity": 113}, {"time": 49920, "pitch": 46, "duration": 452, "velocity": 105}, {"time": 49920, "pitch": 58, "duration": 462, "velocity": 102}, {"time": 50041, "pitch": 65, "duration": 311, "velocity": 119}, {"time": 50041, "pitch": 70, "duration": 321, "velocity": 107}, {"time": 50041, "pitch": 74, "duration": 321, "velocity": 116}, {"time": 50402, "pitch": 44, "duration": 119, "velocity": 102}, {"time": 50402, "pitch": 56, "duration": 128, "velocity": 105}, {"time": 50402, "pitch": 63, "duration": 99, "velocity": 113}, {"time": 50402, "pitch": 67, "duration": 89, "velocity": 107}, {"time": 50402, "pitch": 72, "duration": 99, "velocity": 107}, {"time": 50639, "pitch": 44, "duration": 119, "velocity": 105}, {"time": 50639, "pitch": 56, "duration": 148, "velocity": 105}, {"time": 50639, "pitch": 63, "duration": 128, "velocity": 119}, {"time": 50639, "pitch": 67, "duration": 128, "velocity": 107}, {"time": 50639, "pitch": 72, "duration": 119, "velocity": 116}, {"time": 51358, "pitch": 44, "duration": 90, "velocity": 100}, {"time": 51358, "pitch": 56, "duration": 121, "velocity": 102}, {"time": 51358, "pitch": 63, "duration": 70, "velocity": 113}, {"time": 51358, "pitch": 67, "duration": 60, "velocity": 116}, {"time": 51358, "pitch": 72, "duration": 80, "velocity": 107}, {"time": 51599, "pitch": 44, "duration": 141, "velocity": 105}, {"time": 51599, "pitch": 56, "duration": 151, "velocity": 102}, {"time": 51599, "pitch": 63, "duration": 131, "velocity": 116}, {"time": 51599, "pitch": 67, "duration": 121, "velocity": 116}, {"time": 51599, "pitch": 72, "duration": 121, "velocity": 110}, {"time": 52081, "pitch": 43, "duration": 399, "velocity": 93}, {"time": 52081, "pitch": 55, "duration": 399, "velocity": 100}, {"time": 52081, "pitch": 63, "duration": 547, "velocity": 113}, {"time": 52081, "pitch": 67, "duration": 567, "velocity": 116}, {"time": 52081, "pitch": 70, "duration": 557, "velocity": 107}, {"time": 52559, "pitch": 43, "duration": 368, "velocity": 102}, {"time": 52559, "pitch": 55, "duration": 368, "velocity": 85}, {"time": 52796, "pitch": 63, "duration": 321, "velocity": 119}, {"time": 52796, "pitch": 67, "duration": 331, "velocity": 116}, {"time": 52796, "pitch": 70, "duration": 311, "velocity": 113}, {"time": 53037, "pitch": 48, "duration": 563, "velocity": 98}, {"time": 53037, "pitch": 60, "duration": 563, "velocity": 89}, {"time": 53278, "pitch": 63, "duration": 60, "velocity": 113}, {"time": 53278, "pitch": 67, "duration": 60, "velocity": 116}, {"time": 53278, "pitch": 70, "duration": 80, "velocity": 107}, {"time": 53519, "pitch": 63, "duration": 261, "velocity": 116}, {"time": 53519, "pitch": 67, "duration": 271, "velocity": 119}, {"time": 53519, "pitch": 70, "duration": 251, "velocity": 113}, {"time": 53760, "pitch": 48, "duration": 452, "velocity": 105}, {"time": 53760, "pitch": 60, "duration": 462, "velocity": 102}, {"time": 53881, "pitch": 63, "duration": 311, "velocity": 119}, {"time": 53881, "pitch": 67, "duration": 321, "velocity": 107}, {"time": 53881, "pitch": 70, "duration": 321, "velocity": 116}, {"time": 54242, "pitch": 41, "duration": 217, "velocity": 85}, {"time": 54242, "pitch": 43, "duration": 10, "velocity": 51}, {"time": 54242, "pitch": 53, "duration": 208, "velocity": 80}, {"time": 54242, "pitch": 60, "duration": 316, "velocity": 110}, {"time": 54242, "pitch": 63, "duration": 326, "velocity": 110}, {"time": 54242, "pitch": 68, "duration": 306, "velocity": 107}, {"time": 54479, "pitch": 41, "duration": 368, "velocity": 93}, {"time": 54479, "pitch": 53, "duration": 368, "velocity": 80}, {"time": 54716, "pitch": 60, "duration": 311, "velocity": 110}, {"time": 54716, "pitch": 63, "duration": 311, "velocity": 105}, {"time": 54716, "pitch": 68, "duration": 291, "velocity": 107}, {"time": 54957, "pitch": 41, "duration": 342, "velocity": 87}, {"time": 54957, "pitch": 53, "duration": 332, "velocity": 78}, {"time": 55198, "pitch": 62, "duration": 302, "velocity": 116}, {"time": 55198, "pitch": 65, "duration": 302, "velocity": 113}, {"time": 55198, "pitch": 70, "duration": 302, "velocity": 107}, {"time": 55439, "pitch": 43, "duration": 342, "velocity": 89}, {"time": 55439, "pitch": 55, "duration": 342, "velocity": 85}, {"time": 55680, "pitch": 62, "duration": 332, "velocity": 107}, {"time": 55680, "pitch": 65, "duration": 332, "velocity": 110}, {"time": 55680, "pitch": 70, "duration": 322, "velocity": 107}, {"time": 55921, "pitch": 43, "duration": 231, "velocity": 93}, {"time": 55921, "pitch": 55, "duration": 231, "velocity": 87}, {"time": 56162, "pitch": 44, "duration": 198, "velocity": 85}, {"time": 56162, "pitch": 56, "duration": 227, "velocity": 85}, {"time": 56162, "pitch": 60, "duration": 336, "velocity": 113}, {"time": 56162, "pitch": 63, "duration": 326, "velocity": 105}, {"time": 56162, "pitch": 66, "duration": 336, "velocity": 110}, {"time": 56399, "pitch": 44, "duration": 358, "velocity": 100}, {"time": 56399, "pitch": 56, "duration": 378, "velocity": 95}, {"time": 56636, "pitch": 60, "duration": 352, "velocity": 110}, {"time": 56636, "pitch": 63, "duration": 372, "velocity": 102}, {"time": 56636, "pitch": 66, "duration": 362, "velocity": 110}, {"time": 56877, "pitch": 44, "duration": 392, "velocity": 87}, {"time": 56877, "pitch": 56, "duration": 412, "velocity": 89}, {"time": 57118, "pitch": 61, "duration": 352, "velocity": 110}, {"time": 57118, "pitch": 63, "duration": 352, "velocity": 119}, {"time": 57118, "pitch": 66, "duration": 362, "velocity": 119}, {"time": 57359, "pitch": 44, "duration": 432, "velocity": 93}, {"time": 57359, "pitch": 56, "duration": 422, "velocity": 85}, {"time": 57600, "pitch": 60, "duration": 322, "velocity": 116}, {"time": 57600, "pitch": 63, "duration": 302, "velocity": 110}, {"time": 57600, "pitch": 66, "duration": 322, "velocity": 110}, {"time": 57841, "pitch": 44, "duration": 231, "velocity": 87}, {"time": 57841, "pitch": 56, "duration": 221, "velocity": 72}, {"time": 58082, "pitch": 39, "duration": 119, "velocity": 102}, {"time": 58082, "pitch": 51, "duration": 129, "velocity": 105}, {"time": 58082, "pitch": 63, "duration": 99, "velocity": 113}, {"time": 58082, "pitch": 67, "duration": 89, "velocity": 107}, {"time": 58082, "pitch": 70, "duration": 99, "velocity": 107}, {"time": 58319, "pitch": 39, "duration": 119, "velocity": 105}, {"time": 58319, "pitch": 51, "duration": 148, "velocity": 105}, {"time": 58319, "pitch": 63, "duration": 129, "velocity": 119}, {"time": 58319, "pitch": 67, "duration": 129, "velocity": 107}, {"time": 58319, "pitch": 70, "duration": 119, "velocity": 116}, {"time": 59038, "pitch": 37, "duration": 91, "velocity": 100}, {"time": 59038, "pitch": 49, "duration": 121, "velocity": 102}, {"time": 59038, "pitch": 61, "duration": 71, "velocity": 113}, {"time": 59038, "pitch": 65, "duration": 61, "velocity": 116}, {"time": 59038, "pitch": 68, "duration": 81, "velocity": 107}, {"time": 59279, "pitch": 37, "duration": 141, "velocity": 105}, {"time": 59279, "pitch": 49, "duration": 151, "velocity": 102}, {"time": 59279, "pitch": 61, "duration": 131, "velocity": 116}, {"time": 59279, "pitch": 65, "duration": 121, "velocity": 116}, {"time": 59279, "pitch": 68, "duration": 121, "velocity": 110}, {"time": 59761, "pitch": 44, "duration": 399, "velocity": 93}, {"time": 59761, "pitch": 56, "duration": 399, "velocity": 100}, {"time": 59761, "pitch": 63, "duration": 548, "velocity": 113}, {"time": 59761, "pitch": 68, "duration": 567, "velocity": 116}, {"time": 59761, "pitch": 72, "duration": 557, "velocity": 107}, {"time": 60239, "pitch": 44, "duration": 368, "velocity": 102}, {"time": 60239, "pitch": 56, "duration": 368, "velocity": 85}, {"time": 60476, "pitch": 63, "duration": 322, "velocity": 119}, {"time": 60476, "pitch": 68, "duration": 332, "velocity": 116}, {"time": 60476, "pitch": 72, "duration": 312, "velocity": 113}, {"time": 60717, "pitch": 44, "duration": 563, "velocity": 98}, {"time": 60717, "pitch": 56, "duration": 563, "velocity": 89}, {"time": 60958, "pitch": 63, "duration": 61, "velocity": 113}, {"time": 60958, "pitch": 68, "duration": 61, "velocity": 116}, {"time": 60958, "pitch": 73, "duration": 81, "velocity": 107}, {"time": 61199, "pitch": 63, "duration": 262, "velocity": 116}, {"time": 61199, "pitch": 68, "duration": 272, "velocity": 119}, {"time": 61199, "pitch": 73, "duration": 252, "velocity": 113}, {"time": 61441, "pitch": 44, "duration": 451, "velocity": 105}, {"time": 61441, "pitch": 56, "duration": 462, "velocity": 102}, {"time": 61561, "pitch": 63, "duration": 311, "velocity": 119}, {"time": 61561, "pitch": 68, "duration": 321, "velocity": 107}, {"time": 61561, "pitch": 72, "duration": 321, "velocity": 116}, {"time": 61923, "pitch": 39, "duration": 118, "velocity": 102}, {"time": 61923, "pitch": 51, "duration": 128, "velocity": 105}, {"time": 61923, "pitch": 63, "duration": 98, "velocity": 113}, {"time": 61923, "pitch": 67, "duration": 88, "velocity": 107}, {"time": 61923, "pitch": 70, "duration": 98, "velocity": 107}, {"time": 62160, "pitch": 39, "duration": 118, "velocity": 105}, {"time": 62160, "pitch": 51, "duration": 148, "velocity": 105}, {"time": 62160, "pitch": 63, "duration": 128, "velocity": 119}, {"time": 62160, "pitch": 67, "duration": 128, "velocity": 107}, {"time": 62160, "pitch": 70, "duration": 118, "velocity": 116}, {"time": 62879, "pitch": 37, "duration": 90, "velocity": 100}, {"time": 62879, "pitch": 49, "duration": 120, "velocity": 102}, {"time": 62879, "pitch": 61, "duration": 70, "velocity": 113}, {"time": 62879, "pitch": 65, "duration": 60, "velocity": 116}, {"time": 62879, "pitch": 68, "duration": 80, "velocity": 107}, {"time": 63120, "pitch": 37, "duration": 140, "velocity": 105}, {"time": 63120, "pitch": 49, "duration": 150, "velocity": 102}, {"time": 63120, "pitch": 61, "duration": 130, "velocity": 116}, {"time": 63120, "pitch": 65, "duration": 120, "velocity": 116}, {"time": 63120, "pitch": 68, "duration": 120, "velocity": 110}, {"time": 63602, "pitch": 44, "duration": 2151, "velocity": 93}, {"time": 63602, "pitch": 56, "duration": 2141, "velocity": 100}, {"time": 63602, "pitch": 63, "duration": 2141, "velocity": 113}, {"time": 63602, "pitch": 68, "duration": 2151, "velocity": 116}, {"time": 63602, "pitch": 72, "duration": 2141, "velocity": 107}, {"time": 65763, "pitch": 39, "duration": 197, "velocity": 82}, {"time": 65763, "pitch": 51, "duration": 217, "velocity": 70}, {"time": 65763, "pitch": 63, "duration": 326, "velocity": 93}, {"time": 65763, "pitch": 67, "duration": 345, "velocity": 98}, {"time": 65763, "pitch": 70, "duration": 326, "velocity": 100}, {"time": 66000, "pitch": 39, "duration": 387, "velocity": 80}, {"time": 66000, "pitch": 51, "duration": 397, "velocity": 74}, {"time": 66237, "pitch": 63, "duration": 301, "velocity": 105}, {"time": 66237, "pitch": 67, "duration": 311, "velocity": 105}, {"time": 66237, "pitch": 70, "duration": 301, "velocity": 102}, {"time": 66478, "pitch": 39, "duration": 130, "velocity": 82}, {"time": 66478, "pitch": 51, "duration": 150, "velocity": 76}, {"time": 66719, "pitch": 37, "duration": 201, "velocity": 79}, {"time": 66719, "pitch": 49, "duration": 201, "velocity": 72}, {"time": 66719, "pitch": 61, "duration": 341, "velocity": 87}, {"time": 66719, "pitch": 65, "duration": 351, "velocity": 92}, {"time": 66719, "pitch": 68, "duration": 351, "velocity": 94}, {"time": 66960, "pitch": 37, "duration": 391, "velocity": 85}, {"time": 66960, "pitch": 49, "duration": 422, "velocity": 77}, {"time": 67201, "pitch": 61, "duration": 291, "velocity": 90}, {"time": 67201, "pitch": 65, "duration": 291, "velocity": 97}, {"time": 67201, "pitch": 68, "duration": 301, "velocity": 97}, {"time": 67442, "pitch": 37, "duration": 221, "velocity": 74}, {"time": 67442, "pitch": 49, "duration": 221, "velocity": 77}, {"time": 67683, "pitch": 36, "duration": 197, "velocity": 82}, {"time": 67683, "pitch": 48, "duration": 217, "velocity": 70}, {"time": 67683, "pitch": 60, "duration": 326, "velocity": 93}, {"time": 67683, "pitch": 63, "duration": 345, "velocity": 98}, {"time": 67683, "pitch": 67, "duration": 326, "velocity": 100}, {"time": 67920, "pitch": 36, "duration": 387, "velocity": 80}, {"time": 67920, "pitch": 48, "duration": 397, "velocity": 74}, {"time": 68157, "pitch": 60, "duration": 301, "velocity": 105}, {"time": 68157, "pitch": 63, "duration": 311, "velocity": 105}, {"time": 68157, "pitch": 67, "duration": 301, "velocity": 102}, {"time": 68398, "pitch": 36, "duration": 130, "velocity": 82}, {"time": 68398, "pitch": 48, "duration": 150, "velocity": 76}, {"time": 68639, "pitch": 35, "duration": 201, "velocity": 79}, {"time": 68639, "pitch": 47, "duration": 201, "velocity": 72}, {"time": 68639, "pitch": 59, "duration": 341, "velocity": 87}, {"time": 68639, "pitch": 63, "duration": 351, "velocity": 92}, {"time": 68639, "pitch": 66, "duration": 351, "velocity": 94}, {"time": 68880, "pitch": 35, "duration": 392, "velocity": 85}, {"time": 68880, "pitch": 47, "duration": 422, "velocity": 77}, {"time": 69121, "pitch": 59, "duration": 291, "velocity": 90}, {"time": 69121, "pitch": 63, "duration": 291, "velocity": 97}, {"time": 69121, "pitch": 66, "duration": 301, "velocity": 97}, {"time": 69362, "pitch": 35, "duration": 221, "velocity": 74}, {"time": 69362, "pitch": 47, "duration": 221, "velocity": 77}, {"time": 69603, "pitch": 31, "duration": 197, "velocity": 82}, {"time": 69603, "pitch": 43, "duration": 217, "velocity": 70}, {"time": 69603, "pitch": 58, "duration": 326, "velocity": 93}, {"time": 69603, "pitch": 62, "duration": 345, "velocity": 98}, {"time": 69603, "pitch": 67, "duration": 326, "velocity": 100}, {"time": 69840, "pitch": 31, "duration": 387, "velocity": 80}, {"time": 69840, "pitch": 43, "duration": 397, "velocity": 74}, {"time": 70077, "pitch": 58, "duration": 301, "velocity": 105}, {"time": 70077, "pitch": 62, "duration": 311, "velocity": 105}, {"time": 70077, "pitch": 67, "duration": 301, "velocity": 102}, {"time": 70318, "pitch": 31, "duration": 130, "velocity": 82}, {"time": 70318, "pitch": 43, "duration": 150, "velocity": 76}, {"time": 70559, "pitch": 36, "duration": 201, "velocity": 79}, {"time": 70559, "pitch": 48, "duration": 201, "velocity": 72}, {"time": 70559, "pitch": 58, "duration": 341, "velocity": 87}, {"time": 70559, "pitch": 63, "duration": 351, "velocity": 92}, {"time": 70559, "pitch": 67, "duration": 351, "velocity": 94}, {"time": 70800, "pitch": 36, "duration": 392, "velocity": 85}, {"time": 70800, "pitch": 48, "duration": 422, "velocity": 77}, {"time": 71041, "pitch": 58, "duration": 291, "velocity": 90}, {"time": 71041, "pitch": 63, "duration": 291, "velocity": 97}, {"time": 71041, "pitch": 67, "duration": 301, "velocity": 97}, {"time": 71282, "pitch": 36, "duration": 221, "velocity": 74}, {"time": 71282, "pitch": 48, "duration": 221, "velocity": 77}, {"time": 71523, "pitch": 29, "duration": 197, "velocity": 82}, {"time": 71523, "pitch": 41, "duration": 217, "velocity": 70}, {"time": 71523, "pitch": 56, "duration": 326, "velocity": 93}, {"time": 71523, "pitch": 60, "duration": 346, "velocity": 98}, {"time": 71523, "pitch": 65, "duration": 326, "velocity": 100}, {"time": 71760, "pitch": 29, "duration": 387, "velocity": 80}, {"time": 71760, "pitch": 41, "duration": 398, "velocity": 74}, {"time": 71997, "pitch": 56, "duration": 301, "velocity": 105}, {"time": 71997, "pitch": 60, "duration": 311, "velocity": 105}, {"time": 71997, "pitch": 65, "duration": 301, "velocity": 102}, {"time": 72238, "pitch": 29, "duration": 130, "velocity": 82}, {"time": 72238, "pitch": 41, "duration": 151, "velocity": 76}, {"time": 72479, "pitch": 34, "duration": 201, "velocity": 79}, {"time": 72479, "pitch": 46, "duration": 201, "velocity": 72}, {"time": 72479, "pitch": 56, "duration": 341, "velocity": 87}, {"time": 72479, "pitch": 60, "duration": 351, "velocity": 92}, {"time": 72479, "pitch": 65, "duration": 351, "velocity": 94}, {"time": 72720, "pitch": 34, "duration": 392, "velocity": 85}, {"time": 72720, "pitch": 46, "duration": 422, "velocity": 77}, {"time": 72961, "pitch": 56, "duration": 291, "velocity": 90}, {"time": 72961, "pitch": 60, "duration": 291, "velocity": 97}, {"time": 72961, "pitch": 65, "duration": 301, "velocity": 97}, {"time": 73202, "pitch": 34, "duration": 221, "velocity": 74}, {"time": 73202, "pitch": 46, "duration": 221, "velocity": 77}, {"time": 73443, "pitch": 39, "duration": 198, "velocity": 82}, {"time": 73443, "pitch": 51, "duration": 217, "velocity": 70}, {"time": 73443, "pitch": 63, "duration": 326, "velocity": 93}, {"time": 73443, "pitch": 67, "duration": 346, "velocity": 98}, {"time": 73443, "pitch": 70, "duration": 326, "velocity": 100}, {"time": 73680, "pitch": 39, "duration": 388, "velocity": 80}, {"time": 73680, "pitch": 51, "duration": 398, "velocity": 74}, {"time": 73917, "pitch": 63, "duration": 301, "velocity": 105}, {"time": 73917, "pitch": 67, "duration": 311, "velocity": 105}, {"time": 73917, "pitch": 70, "duration": 301, "velocity": 102}, {"time": 74158, "pitch": 39, "duration": 131, "velocity": 82}, {"time": 74158, "pitch": 51, "duration": 151, "velocity": 76}, {"time": 74399, "pitch": 37, "duration": 201, "velocity": 79}, {"time": 74399, "pitch": 49, "duration": 201, "velocity": 72}, {"time": 74399, "pitch": 61, "duration": 341, "velocity": 87}, {"time": 74399, "pitch": 65, "duration": 352, "velocity": 92}, {"time": 74399, "pitch": 68, "duration": 352, "velocity": 94}, {"time": 74640, "pitch": 37, "duration": 392, "velocity": 85}, {"time": 74640, "pitch": 49, "duration": 422, "velocity": 77}, {"time": 74881, "pitch": 61, "duration": 291, "velocity": 90}, {"time": 74881, "pitch": 65, "duration": 291, "velocity": 97}, {"time": 74881, "pitch": 68, "duration": 301, "velocity": 97}, {"time": 75122, "pitch": 37, "duration": 221, "velocity": 74}, {"time": 75122, "pitch": 49, "duration": 221, "velocity": 77}, {"time": 75363, "pitch": 36, "duration": 198, "velocity": 82}, {"time": 75363, "pitch": 48, "duration": 217, "velocity": 70}, {"time": 75363, "pitch": 60, "duration": 326, "velocity": 93}, {"time": 75363, "pitch": 63, "duration": 346, "velocity": 98}, {"time": 75363, "pitch": 67, "duration": 326, "velocity": 100}, {"time": 75600, "pitch": 36, "duration": 388, "velocity": 80}, {"time": 75600, "pitch": 48, "duration": 398, "velocity": 74}, {"time": 75837, "pitch": 60, "duration": 301, "velocity": 105}, {"time": 75837, "pitch": 63, "duration": 311, "velocity": 105}, {"time": 75837, "pitch": 67, "duration": 301, "velocity": 102}, {"time": 76078, "pitch": 36, "duration": 131, "velocity": 82}, {"time": 76078, "pitch": 48, "duration": 151, "velocity": 76}, {"time": 76319, "pitch": 35, "duration": 201, "velocity": 79}, {"time": 76319, "pitch": 47, "duration": 201, "velocity": 72}, {"time": 76319, "pitch": 59, "duration": 342, "velocity": 87}, {"time": 76319, "pitch": 63, "duration": 352, "velocity": 92}, {"time": 76319, "pitch": 66, "duration": 352, "velocity": 94}, {"time": 76560, "pitch": 35, "duration": 392, "velocity": 85}, {"time": 76560, "pitch": 47, "duration": 422, "velocity": 77}, {"time": 76801, "pitch": 59, "duration": 291, "velocity": 90}, {"time": 76801, "pitch": 63, "duration": 291, "velocity": 97}, {"time": 76801, "pitch": 66, "duration": 301, "velocity": 97}, {"time": 77042, "pitch": 35, "duration": 221, "velocity": 74}, {"time": 77042, "pitch": 47, "duration": 221, "velocity": 77}, {"time": 77283, "pitch": 31, "duration": 198, "velocity": 82}, {"time": 77283, "pitch": 43, "duration": 217, "velocity": 70}, {"time": 77283, "pitch": 58, "duration": 326, "velocity": 93}, {"time": 77283, "pitch": 62, "duration": 346, "velocity": 98}, {"time": 77283, "pitch": 67, "duration": 326, "velocity": 100}, {"time": 77520, "pitch": 31, "duration": 388, "velocity": 80}, {"time": 77520, "pitch": 43, "duration": 398, "velocity": 74}, {"time": 77757, "pitch": 58, "duration": 301, "velocity": 105}, {"time": 77757, "pitch": 62, "duration": 311, "velocity": 105}, {"time": 77757, "pitch": 67, "duration": 301, "velocity": 102}, {"time": 77998, "pitch": 31, "duration": 131, "velocity": 82}, {"time": 77998, "pitch": 43, "duration": 151, "velocity": 76}, {"time": 78239, "pitch": 36, "duration": 201, "velocity": 79}, {"time": 78239, "pitch": 48, "duration": 201, "velocity": 72}, {"time": 78239, "pitch": 58, "duration": 342, "velocity": 87}, {"time": 78239, "pitch": 63, "duration": 352, "velocity": 92}, {"time": 78239, "pitch": 67, "duration": 352, "velocity": 94}, {"time": 78480, "pitch": 36, "duration": 392, "velocity": 85}, {"time": 78480, "pitch": 48, "duration": 422, "velocity": 77}, {"time": 78721, "pitch": 58, "duration": 292, "velocity": 90}, {"time": 78721, "pitch": 63, "duration": 292, "velocity": 97}, {"time": 78721, "pitch": 67, "duration": 302, "velocity": 97}, {"time": 78962, "pitch": 36, "duration": 221, "velocity": 74}, {"time": 78962, "pitch": 48, "duration": 221, "velocity": 77}, {"time": 79203, "pitch": 34, "duration": 198, "velocity": 82}, {"time": 79203, "pitch": 46, "duration": 217, "velocity": 70}, {"time": 79203, "pitch": 56, "duration": 326, "velocity": 93}, {"time": 79203, "pitch": 60, "duration": 346, "velocity": 98}, {"time": 79203, "pitch": 65, "duration": 326, "velocity": 100}, {"time": 79440, "pitch": 34, "duration": 388, "velocity": 80}, {"time": 79440, "pitch": 46, "duration": 398, "velocity": 74}, {"time": 79677, "pitch": 56, "duration": 301, "velocity": 105}, {"time": 79677, "pitch": 60, "duration": 311, "velocity": 105}, {"time": 79677, "pitch": 65, "duration": 301, "velocity": 102}, {"time": 79918, "pitch": 34, "duration": 131, "velocity": 82}, {"time": 79918, "pitch": 46, "duration": 151, "velocity": 76}, {"time": 80159, "pitch": 39, "duration": 201, "velocity": 79}, {"time": 80159, "pitch": 51, "duration": 201, "velocity": 72}, {"time": 80159, "pitch": 58, "duration": 352, "velocity": 92}, {"time": 80159, "pitch": 63, "duration": 352, "velocity": 94}, {"time": 80159, "pitch": 67, "duration": 342, "velocity": 87}, {"time": 80400, "pitch": 39, "duration": 392, "velocity": 85}, {"time": 80400, "pitch": 51, "duration": 422, "velocity": 77}, {"time": 80641, "pitch": 58, "duration": 292, "velocity": 97}, {"time": 80641, "pitch": 63, "duration": 302, "velocity": 97}, {"time": 80641, "pitch": 67, "duration": 292, "velocity": 90}, {"time": 80882, "pitch": 39, "duration": 221, "velocity": 74}, {"time": 80882, "pitch": 51, "duration": 221, "velocity": 77}, {"time": 81123, "pitch": 39, "duration": 198, "velocity": 79}, {"time": 81123, "pitch": 51, "duration": 198, "velocity": 72}, {"time": 81123, "pitch": 58, "duration": 346, "velocity": 92}, {"time": 81123, "pitch": 63, "duration": 346, "velocity": 94}, {"time": 81123, "pitch": 67, "duration": 336, "velocity": 87}, {"time": 81360, "pitch": 39, "duration": 388, "velocity": 85}, {"time": 81360, "pitch": 51, "duration": 418, "velocity": 77}, {"time": 81597, "pitch": 58, "duration": 291, "velocity": 97}, {"time": 81597, "pitch": 63, "duration": 302, "velocity": 97}, {"time": 81597, "pitch": 67, "duration": 291, "velocity": 90}, {"time": 81838, "pitch": 39, "duration": 221, "velocity": 74}, {"time": 81838, "pitch": 51, "duration": 221, "velocity": 77}, {"time": 82079, "pitch": 39, "duration": 201, "velocity": 79}, {"time": 82079, "pitch": 51, "duration": 201, "velocity": 72}, {"time": 82079, "pitch": 58, "duration": 352, "velocity": 92}, {"time": 82079, "pitch": 63, "duration": 352, "velocity": 94}, {"time": 82079, "pitch": 67, "duration": 342, "velocity": 87}, {"time": 82320, "pitch": 39, "duration": 221, "velocity": 85}, {"time": 82320, "pitch": 51, "duration": 221, "velocity": 77}, {"time": 82561, "pitch": 44, "duration": 221, "velocity": 74}, {"time": 82561, "pitch": 56, "duration": 221, "velocity": 77}, {"time": 82561, "pitch": 58, "duration": 221, "velocity": 97}, {"time": 82561, "pitch": 63, "duration": 302, "velocity": 97}, {"time": 82561, "pitch": 67, "duration": 292, "velocity": 90}, {"time": 82802, "pitch": 45, "duration": 221, "velocity": 74}, {"time": 82802, "pitch": 57, "duration": 221, "velocity": 77}, {"time": 83043, "pitch": 46, "duration": 1840, "velocity": 89}, {"time": 83043, "pitch": 58, "duration": 1860, "velocity": 80}, {"time": 83043, "pitch": 62, "duration": 109, "velocity": 89}, {"time": 83043, "pitch": 65, "duration": 109, "velocity": 102}, {"time": 83043, "pitch": 70, "duration": 119, "velocity": 98}, {"time": 83280, "pitch": 62, "duration": 79, "velocity": 85}, {"time": 83280, "pitch": 65, "duration": 79, "velocity": 98}, {"time": 83280, "pitch": 70, "duration": 70, "velocity": 91}, {"time": 83517, "pitch": 62, "duration": 71, "velocity": 95}, {"time": 83517, "pitch": 65, "duration": 71, "velocity": 100}, {"time": 83517, "pitch": 70, "duration": 71, "velocity": 98}, {"time": 83758, "pitch": 62, "duration": 91, "velocity": 85}, {"time": 83758, "pitch": 65, "duration": 101, "velocity": 91}, {"time": 83758, "pitch": 70, "duration": 81, "velocity": 91}, {"time": 83999, "pitch": 62, "duration": 71, "velocity": 87}, {"time": 83999, "pitch": 65, "duration": 71, "velocity": 100}, {"time": 83999, "pitch": 70, "duration": 81, "velocity": 95}, {"time": 84240, "pitch": 62, "duration": 91, "velocity": 85}, {"time": 84240, "pitch": 65, "duration": 91, "velocity": 89}, {"time": 84240, "pitch": 70, "duration": 101, "velocity": 87}, {"time": 84481, "pitch": 62, "duration": 91, "velocity": 91}, {"time": 84481, "pitch": 65, "duration": 101, "velocity": 100}, {"time": 84481, "pitch": 70, "duration": 91, "velocity": 100}, {"time": 84723, "pitch": 62, "duration": 100, "velocity": 93}, {"time": 84723, "pitch": 65, "duration": 100, "velocity": 87}, {"time": 84723, "pitch": 70, "duration": 120, "velocity": 98}, {"time": 84964, "pitch": 48, "duration": 1839, "velocity": 80}, {"time": 84964, "pitch": 60, "duration": 1849, "velocity": 70}, {"time": 84964, "pitch": 63, "duration": 108, "velocity": 102}, {"time": 84964, "pitch": 67, "duration": 108, "velocity": 105}, {"time": 84964, "pitch": 70, "duration": 108, "velocity": 102}, {"time": 85200, "pitch": 63, "duration": 99, "velocity": 91}, {"time": 85200, "pitch": 67, "duration": 99, "velocity": 82}, {"time": 85200, "pitch": 70, "duration": 99, "velocity": 93}, {"time": 85437, "pitch": 63, "duration": 101, "velocity": 102}, {"time": 85437, "pitch": 67, "duration": 91, "velocity": 100}, {"time": 85437, "pitch": 70, "duration": 101, "velocity": 105}, {"time": 85678, "pitch": 63, "duration": 91, "velocity": 87}, {"time": 85678, "pitch": 67, "duration": 81, "velocity": 85}, {"time": 85678, "pitch": 70, "duration": 81, "velocity": 93}, {"time": 85919, "pitch": 63, "duration": 81, "velocity": 95}, {"time": 85919, "pitch": 67, "duration": 91, "velocity": 91}, {"time": 85919, "pitch": 70, "duration": 101, "velocity": 102}, {"time": 86161, "pitch": 63, "duration": 110, "velocity": 93}, {"time": 86161, "pitch": 67, "duration": 110, "velocity": 85}, {"time": 86161, "pitch": 70, "duration": 100, "velocity": 98}, {"time": 86402, "pitch": 63, "duration": 90, "velocity": 89}, {"time": 86402, "pitch": 67, "duration": 90, "velocity": 91}, {"time": 86402, "pitch": 70, "duration": 90, "velocity": 95}, {"time": 86643, "pitch": 63, "duration": 90, "velocity": 102}, {"time": 86643, "pitch": 67, "duration": 90, "velocity": 100}, {"time": 86643, "pitch": 70, "duration": 90, "velocity": 105}, {"time": 86884, "pitch": 46, "duration": 1880, "velocity": 89}, {"time": 86884, "pitch": 58, "duration": 1890, "velocity": 89}, {"time": 86884, "pitch": 62, "duration": 98, "velocity": 100}, {"time": 86884, "pitch": 65, "duration": 108, "velocity": 107}, {"time": 86884, "pitch": 70, "duration": 128, "velocity": 95}, {"time": 87121, "pitch": 62, "duration": 88, "velocity": 87}, {"time": 87121, "pitch": 65, "duration": 88, "velocity": 98}, {"time": 87121, "pitch": 70, "duration": 79, "velocity": 89}, {"time": 87358, "pitch": 62, "duration": 90, "velocity": 100}, {"time": 87358, "pitch": 65, "duration": 80, "velocity": 105}, {"time": 87358, "pitch": 70, "duration": 70, "velocity": 102}, {"time": 87599, "pitch": 62, "duration": 70, "velocity": 87}, {"time": 87599, "pitch": 65, "duration": 60, "velocity": 98}, {"time": 87599, "pitch": 70, "duration": 60, "velocity": 95}, {"time": 87840, "pitch": 62, "duration": 80, "velocity": 89}, {"time": 87840, "pitch": 65, "duration": 80, "velocity": 100}, {"time": 87840, "pitch": 70, "duration": 80, "velocity": 100}, {"time": 88081, "pitch": 62, "duration": 90, "velocity": 82}, {"time": 88081, "pitch": 65, "duration": 80, "velocity": 85}, {"time": 88081, "pitch": 70, "duration": 80, "velocity": 87}, {"time": 88322, "pitch": 62, "duration": 80, "velocity": 102}, {"time": 88322, "pitch": 65, "duration": 70, "velocity": 100}, {"time": 88322, "pitch": 70, "duration": 80, "velocity": 102}, {"time": 88563, "pitch": 62, "duration": 80, "velocity": 98}, {"time": 88563, "pitch": 65, "duration": 80, "velocity": 100}, {"time": 88563, "pitch": 70, "duration": 100, "velocity": 98}, {"time": 88804, "pitch": 44, "duration": 805, "velocity": 85}, {"time": 88804, "pitch": 56, "duration": 835, "velocity": 74}, {"time": 88804, "pitch": 66, "duration": 118, "velocity": 102}, {"time": 88804, "pitch": 70, "duration": 108, "velocity": 105}, {"time": 88804, "pitch": 73, "duration": 108, "velocity": 100}, {"time": 89041, "pitch": 66, "duration": 79, "velocity": 98}, {"time": 89041, "pitch": 70, "duration": 69, "velocity": 105}, {"time": 89041, "pitch": 73, "duration": 79, "velocity": 102}, {"time": 89278, "pitch": 66, "duration": 90, "velocity": 102}, {"time": 89278, "pitch": 70, "duration": 80, "velocity": 105}, {"time": 89278, "pitch": 73, "duration": 80, "velocity": 102}, {"time": 89519, "pitch": 66, "duration": 80, "velocity": 98}, {"time": 89519, "pitch": 70, "duration": 90, "velocity": 102}, {"time": 89519, "pitch": 73, "duration": 90, "velocity": 100}, {"time": 89639, "pitch": 46, "duration": 673, "velocity": 87}, {"time": 89639, "pitch": 58, "duration": 683, "velocity": 80}, {"time": 89639, "pitch": 68, "duration": 231, "velocity": 113}, {"time": 89639, "pitch": 72, "duration": 231, "velocity": 116}, {"time": 89639, "pitch": 75, "duration": 231, "velocity": 107}, {"time": 90001, "pitch": 68, "duration": 90, "velocity": 102}, {"time": 90001, "pitch": 72, "duration": 70, "velocity": 100}, {"time": 90001, "pitch": 75, "duration": 70, "velocity": 98}, {"time": 90242, "pitch": 68, "duration": 50, "velocity": 102}, {"time": 90242, "pitch": 72, "duration": 50, "velocity": 105}, {"time": 90242, "pitch": 75, "duration": 50, "velocity": 102}, {"time": 90362, "pitch": 43, "duration": 322, "velocity": 108}, {"time": 90362, "pitch": 55, "duration": 322, "velocity": 108}, {"time": 90362, "pitch": 68, "duration": 322, "velocity": 108}, {"time": 90362, "pitch": 72, "duration": 322, "velocity": 108}, {"time": 90362, "pitch": 75, "duration": 322, "velocity": 108}, {"time": 90724, "pitch": 44, "duration": 118, "velocity": 102}, {"time": 90724, "pitch": 56, "duration": 128, "velocity": 105}, {"time": 90724, "pitch": 63, "duration": 98, "velocity": 113}, {"time": 90724, "pitch": 67, "duration": 89, "velocity": 107}, {"time": 90724, "pitch": 72, "duration": 98, "velocity": 107}, {"time": 90961, "pitch": 44, "duration": 118, "velocity": 105}, {"time": 90961, "pitch": 56, "duration": 148, "velocity": 105}, {"time": 90961, "pitch": 63, "duration": 128, "velocity": 119}, {"time": 90961, "pitch": 67, "duration": 128, "velocity": 107}, {"time": 90961, "pitch": 72, "duration": 118, "velocity": 116}, {"time": 91680, "pitch": 44, "duration": 90, "velocity": 100}, {"time": 91680, "pitch": 56, "duration": 120, "velocity": 102}, {"time": 91680, "pitch": 63, "duration": 70, "velocity": 113}, {"time": 91680, "pitch": 67, "duration": 60, "velocity": 116}, {"time": 91680, "pitch": 72, "duration": 80, "velocity": 107}, {"time": 91921, "pitch": 44, "duration": 140, "velocity": 105}, {"time": 91921, "pitch": 56, "duration": 150, "velocity": 102}, {"time": 91921, "pitch": 63, "duration": 130, "velocity": 116}, {"time": 91921, "pitch": 67, "duration": 120, "velocity": 116}, {"time": 91921, "pitch": 72, "duration": 120, "velocity": 110}, {"time": 92403, "pitch": 43, "duration": 399, "velocity": 93}, {"time": 92403, "pitch": 55, "duration": 399, "velocity": 100}, {"time": 92403, "pitch": 63, "duration": 547, "velocity": 113}, {"time": 92403, "pitch": 67, "duration": 567, "velocity": 116}, {"time": 92403, "pitch": 70, "duration": 557, "velocity": 107}, {"time": 92881, "pitch": 43, "duration": 367, "velocity": 102}, {"time": 92881, "pitch": 55, "duration": 367, "velocity": 85}, {"time": 93118, "pitch": 63, "duration": 321, "velocity": 119}, {"time": 93118, "pitch": 67, "duration": 331, "velocity": 116}, {"time": 93118, "pitch": 70, "duration": 311, "velocity": 113}, {"time": 93359, "pitch": 48, "duration": 562, "velocity": 98}, {"time": 93359, "pitch": 60, "duration": 562, "velocity": 89}, {"time": 93600, "pitch": 63, "duration": 60, "velocity": 113}, {"time": 93600, "pitch": 67, "duration": 60, "velocity": 116}, {"time": 93600, "pitch": 70, "duration": 80, "velocity": 107}, {"time": 93841, "pitch": 63, "duration": 261, "velocity": 116}, {"time": 93841, "pitch": 67, "duration": 271, "velocity": 119}, {"time": 93841, "pitch": 70, "duration": 251, "velocity": 113}, {"time": 94082, "pitch": 48, "duration": 452, "velocity": 105}, {"time": 94082, "pitch": 60, "duration": 462, "velocity": 102}, {"time": 94202, "pitch": 63, "duration": 312, "velocity": 119}, {"time": 94202, "pitch": 67, "duration": 322, "velocity": 107}, {"time": 94202, "pitch": 70, "duration": 322, "velocity": 116}, {"time": 94564, "pitch": 41, "duration": 118, "velocity": 102}, {"time": 94564, "pitch": 53, "duration": 128, "velocity": 105}, {"time": 94564, "pitch": 60, "duration": 99, "velocity": 113}, {"time": 94564, "pitch": 63, "duration": 89, "velocity": 107}, {"time": 94564, "pitch": 68, "duration": 99, "velocity": 107}, {"time": 94801, "pitch": 41, "duration": 118, "velocity": 105}, {"time": 94801, "pitch": 53, "duration": 148, "velocity": 105}, {"time": 94801, "pitch": 60, "duration": 128, "velocity": 119}, {"time": 94801, "pitch": 63, "duration": 128, "velocity": 107}, {"time": 94801, "pitch": 68, "duration": 118, "velocity": 116}, {"time": 95520, "pitch": 43, "duration": 90, "velocity": 100}, {"time": 95520, "pitch": 55, "duration": 120, "velocity": 102}, {"time": 95520, "pitch": 62, "duration": 70, "velocity": 113}, {"time": 95520, "pitch": 65, "duration": 60, "velocity": 116}, {"time": 95520, "pitch": 70, "duration": 80, "velocity": 107}, {"time": 95761, "pitch": 43, "duration": 141, "velocity": 105}, {"time": 95761, "pitch": 55, "duration": 151, "velocity": 102}, {"time": 95761, "pitch": 62, "duration": 130, "velocity": 116}, {"time": 95761, "pitch": 65, "duration": 120, "velocity": 116}, {"time": 95761, "pitch": 70, "duration": 120, "velocity": 110}, {"time": 96243, "pitch": 44, "duration": 399, "velocity": 93}, {"time": 96243, "pitch": 56, "duration": 399, "velocity": 100}, {"time": 96243, "pitch": 63, "duration": 547, "velocity": 113}, {"time": 96243, "pitch": 68, "duration": 567, "velocity": 116}, {"time": 96243, "pitch": 72, "duration": 557, "velocity": 107}, {"time": 96721, "pitch": 44, "duration": 367, "velocity": 102}, {"time": 96721, "pitch": 56, "duration": 367, "velocity": 85}, {"time": 96958, "pitch": 63, "duration": 321, "velocity": 119}, {"time": 96958, "pitch": 68, "duration": 331, "velocity": 116}, {"time": 96958, "pitch": 72, "duration": 311, "velocity": 113}, {"time": 97199, "pitch": 46, "duration": 562, "velocity": 98}, {"time": 97199, "pitch": 58, "duration": 562, "velocity": 89}, {"time": 97440, "pitch": 65, "duration": 60, "velocity": 113}, {"time": 97440, "pitch": 70, "duration": 60, "velocity": 116}, {"time": 97440, "pitch": 74, "duration": 80, "velocity": 107}, {"time": 97681, "pitch": 65, "duration": 261, "velocity": 116}, {"time": 97681, "pitch": 70, "duration": 271, "velocity": 119}, {"time": 97681, "pitch": 74, "duration": 251, "velocity": 113}, {"time": 97922, "pitch": 46, "duration": 452, "velocity": 105}, {"time": 97922, "pitch": 58, "duration": 462, "velocity": 102}, {"time": 98043, "pitch": 65, "duration": 311, "velocity": 119}, {"time": 98043, "pitch": 70, "duration": 321, "velocity": 107}, {"time": 98043, "pitch": 74, "duration": 321, "velocity": 116}, {"time": 98404, "pitch": 44, "duration": 119, "velocity": 102}, {"time": 98404, "pitch": 56, "duration": 128, "velocity": 105}, {"time": 98404, "pitch": 63, "duration": 99, "velocity": 113}, {"time": 98404, "pitch": 67, "duration": 89, "velocity": 107}, {"time": 98404, "pitch": 72, "duration": 99, "velocity": 107}, {"time": 98641, "pitch": 44, "duration": 118, "velocity": 105}, {"time": 98641, "pitch": 56, "duration": 148, "velocity": 105}, {"time": 98641, "pitch": 63, "duration": 128, "velocity": 119}, {"time": 98641, "pitch": 67, "duration": 128, "velocity": 107}, {"time": 98641, "pitch": 72, "duration": 118, "velocity": 116}, {"time": 99360, "pitch": 44, "duration": 90, "velocity": 100}, {"time": 99360, "pitch": 56, "duration": 121, "velocity": 102}, {"time": 99360, "pitch": 63, "duration": 70, "velocity": 113}, {"time": 99360, "pitch": 67, "duration": 60, "velocity": 116}, {"time": 99360, "pitch": 72, "duration": 80, "velocity": 107}, {"time": 99601, "pitch": 44, "duration": 141, "velocity": 105}, {"time": 99601, "pitch": 56, "duration": 151, "velocity": 102}, {"time": 99601, "pitch": 63, "duration": 131, "velocity": 116}, {"time": 99601, "pitch": 67, "duration": 121, "velocity": 116}, {"time": 99601, "pitch": 72, "duration": 121, "velocity": 110}, {"time": 100079, "pitch": 43, "duration": 398, "velocity": 93}, {"time": 100079, "pitch": 55, "duration": 398, "velocity": 100}, {"time": 100079, "pitch": 63, "duration": 548, "velocity": 113}, {"time": 100079, "pitch": 67, "duration": 568, "velocity": 116}, {"time": 100079, "pitch": 70, "duration": 558, "velocity": 107}, {"time": 100557, "pitch": 43, "duration": 372, "velocity": 102}, {"time": 100557, "pitch": 55, "duration": 372, "velocity": 85}, {"time": 100798, "pitch": 63, "duration": 321, "velocity": 119}, {"time": 100798, "pitch": 67, "duration": 331, "velocity": 116}, {"time": 100798, "pitch": 70, "duration": 311, "velocity": 113}, {"time": 101039, "pitch": 48, "duration": 563, "velocity": 98}, {"time": 101039, "pitch": 60, "duration": 563, "velocity": 89}, {"time": 101280, "pitch": 63, "duration": 60, "velocity": 113}, {"time": 101280, "pitch": 67, "duration": 60, "velocity": 116}, {"time": 101280, "pitch": 70, "duration": 80, "velocity": 107}, {"time": 101521, "pitch": 63, "duration": 261, "velocity": 116}, {"time": 101521, "pitch": 67, "duration": 271, "velocity": 119}, {"time": 101521, "pitch": 70, "duration": 251, "velocity": 113}, {"time": 101762, "pitch": 48, "duration": 444, "velocity": 105}, {"time": 101762, "pitch": 60, "duration": 454, "velocity": 102}, {"time": 101881, "pitch": 63, "duration": 306, "velocity": 119}, {"time": 101881, "pitch": 67, "duration": 316, "velocity": 107}, {"time": 101881, "pitch": 70, "duration": 316, "velocity": 116}, {"time": 102236, "pitch": 41, "duration": 221, "velocity": 85}, {"time": 102236, "pitch": 43, "duration": 10, "velocity": 51}, {"time": 102236, "pitch": 53, "duration": 211, "velocity": 80}, {"time": 102236, "pitch": 60, "duration": 321, "velocity": 110}, {"time": 102236, "pitch": 63, "duration": 331, "velocity": 110}, {"time": 102236, "pitch": 68, "duration": 311, "velocity": 107}, {"time": 102477, "pitch": 41, "duration": 372, "velocity": 93}, {"time": 102477, "pitch": 53, "duration": 372, "velocity": 80}, {"time": 102718, "pitch": 60, "duration": 311, "velocity": 110}, {"time": 102718, "pitch": 63, "duration": 311, "velocity": 105}, {"time": 102718, "pitch": 68, "duration": 291, "velocity": 107}, {"time": 102959, "pitch": 41, "duration": 342, "velocity": 87}, {"time": 102959, "pitch": 53, "duration": 332, "velocity": 78}, {"time": 103200, "pitch": 62, "duration": 301, "velocity": 116}, {"time": 103200, "pitch": 65, "duration": 301, "velocity": 113}, {"time": 103200, "pitch": 70, "duration": 301, "velocity": 107}, {"time": 103441, "pitch": 43, "duration": 340, "velocity": 89}, {"time": 103441, "pitch": 55, "duration": 340, "velocity": 85}, {"time": 103682, "pitch": 62, "duration": 326, "velocity": 107}, {"time": 103682, "pitch": 65, "duration": 326, "velocity": 110}, {"time": 103682, "pitch": 70, "duration": 316, "velocity": 107}, {"time": 103919, "pitch": 43, "duration": 227, "velocity": 93}, {"time": 103919, "pitch": 55, "duration": 227, "velocity": 87}, {"time": 104156, "pitch": 44, "duration": 201, "velocity": 85}, {"time": 104156, "pitch": 56, "duration": 231, "velocity": 85}, {"time": 104156, "pitch": 60, "duration": 342, "velocity": 113}, {"time": 104156, "pitch": 63, "duration": 332, "velocity": 105}, {"time": 104156, "pitch": 66, "duration": 342, "velocity": 110}, {"time": 104397, "pitch": 44, "duration": 362, "velocity": 100}, {"time": 104397, "pitch": 56, "duration": 382, "velocity": 95}, {"time": 104638, "pitch": 60, "duration": 352, "velocity": 110}, {"time": 104638, "pitch": 63, "duration": 372, "velocity": 102}, {"time": 104638, "pitch": 66, "duration": 362, "velocity": 110}, {"time": 104879, "pitch": 44, "duration": 392, "velocity": 87}, {"time": 104879, "pitch": 56, "duration": 412, "velocity": 89}, {"time": 105120, "pitch": 61, "duration": 352, "velocity": 110}, {"time": 105120, "pitch": 63, "duration": 352, "velocity": 119}, {"time": 105120, "pitch": 66, "duration": 362, "velocity": 119}, {"time": 105361, "pitch": 44, "duration": 429, "velocity": 93}, {"time": 105361, "pitch": 56, "duration": 419, "velocity": 85}, {"time": 105602, "pitch": 60, "duration": 316, "velocity": 116}, {"time": 105602, "pitch": 63, "duration": 297, "velocity": 110}, {"time": 105602, "pitch": 66, "duration": 316, "velocity": 110}, {"time": 105839, "pitch": 44, "duration": 227, "velocity": 87}, {"time": 105839, "pitch": 56, "duration": 217, "velocity": 72}, {"time": 106076, "pitch": 39, "duration": 121, "velocity": 102}, {"time": 106076, "pitch": 51, "duration": 131, "velocity": 105}, {"time": 106076, "pitch": 63, "duration": 101, "velocity": 113}, {"time": 106076, "pitch": 67, "duration": 91, "velocity": 107}, {"time": 106076, "pitch": 70, "duration": 101, "velocity": 107}, {"time": 106317, "pitch": 39, "duration": 121, "velocity": 105}, {"time": 106317, "pitch": 51, "duration": 151, "velocity": 105}, {"time": 106317, "pitch": 63, "duration": 131, "velocity": 119}, {"time": 106317, "pitch": 67, "duration": 131, "velocity": 107}, {"time": 106317, "pitch": 70, "duration": 121, "velocity": 116}, {"time": 107040, "pitch": 37, "duration": 91, "velocity": 100}, {"time": 107040, "pitch": 49, "duration": 121, "velocity": 102}, {"time": 107040, "pitch": 61, "duration": 71, "velocity": 113}, {"time": 107040, "pitch": 65, "duration": 61, "velocity": 116}, {"time": 107040, "pitch": 68, "duration": 81, "velocity": 107}, {"time": 107281, "pitch": 37, "duration": 141, "velocity": 105}, {"time": 107281, "pitch": 49, "duration": 151, "velocity": 102}, {"time": 107281, "pitch": 61, "duration": 131, "velocity": 116}, {"time": 107281, "pitch": 65, "duration": 121, "velocity": 116}, {"time": 107281, "pitch": 68, "duration": 121, "velocity": 110}, {"time": 107759, "pitch": 44, "duration": 398, "velocity": 93}, {"time": 107759, "pitch": 56, "duration": 398, "velocity": 100}, {"time": 107759, "pitch": 63, "duration": 549, "velocity": 113}, {"time": 107759, "pitch": 68, "duration": 569, "velocity": 116}, {"time": 107759, "pitch": 72, "duration": 559, "velocity": 107}, {"time": 108237, "pitch": 44, "duration": 372, "velocity": 102}, {"time": 108237, "pitch": 56, "duration": 372, "velocity": 85}, {"time": 108478, "pitch": 63, "duration": 322, "velocity": 119}, {"time": 108478, "pitch": 68, "duration": 332, "velocity": 116}, {"time": 108478, "pitch": 72, "duration": 312, "velocity": 113}, {"time": 108719, "pitch": 44, "duration": 563, "velocity": 98}, {"time": 108719, "pitch": 56, "duration": 563, "velocity": 89}, {"time": 108960, "pitch": 63, "duration": 61, "velocity": 113}, {"time": 108960, "pitch": 68, "duration": 61, "velocity": 116}, {"time": 108960, "pitch": 73, "duration": 81, "velocity": 107}, {"time": 109201, "pitch": 63, "duration": 261, "velocity": 116}, {"time": 109201, "pitch": 68, "duration": 271, "velocity": 119}, {"time": 109201, "pitch": 73, "duration": 251, "velocity": 113}, {"time": 109442, "pitch": 44, "duration": 445, "velocity": 105}, {"time": 109442, "pitch": 56, "duration": 455, "velocity": 102}, {"time": 109561, "pitch": 63, "duration": 306, "velocity": 119}, {"time": 109561, "pitch": 68, "duration": 316, "velocity": 107}, {"time": 109561, "pitch": 72, "duration": 316, "velocity": 116}, {"time": 109916, "pitch": 39, "duration": 121, "velocity": 102}, {"time": 109916, "pitch": 51, "duration": 131, "velocity": 105}, {"time": 109916, "pitch": 63, "duration": 101, "velocity": 113}, {"time": 109916, "pitch": 67, "duration": 91, "velocity": 107}, {"time": 109916, "pitch": 70, "duration": 101, "velocity": 107}, {"time": 110157, "pitch": 39, "duration": 121, "velocity": 105}, {"time": 110157, "pitch": 51, "duration": 151, "velocity": 105}, {"time": 110157, "pitch": 63, "duration": 131, "velocity": 119}, {"time": 110157, "pitch": 67, "duration": 131, "velocity": 107}, {"time": 110157, "pitch": 70, "duration": 121, "velocity": 116}, {"time": 110881, "pitch": 37, "duration": 90, "velocity": 100}, {"time": 110881, "pitch": 49, "duration": 120, "velocity": 102}, {"time": 110881, "pitch": 61, "duration": 70, "velocity": 113}, {"time": 110881, "pitch": 65, "duration": 60, "velocity": 116}, {"time": 110881, "pitch": 68, "duration": 80, "velocity": 107}, {"time": 111122, "pitch": 37, "duration": 140, "velocity": 105}, {"time": 111122, "pitch": 49, "duration": 150, "velocity": 102}, {"time": 111122, "pitch": 61, "duration": 130, "velocity": 116}, {"time": 111122, "pitch": 65, "duration": 120, "velocity": 116}, {"time": 111122, "pitch": 68, "duration": 120, "velocity": 110}, {"time": 111600, "pitch": 44, "duration": 397, "velocity": 93}, {"time": 111600, "pitch": 56, "duration": 397, "velocity": 100}, {"time": 111600, "pitch": 63, "duration": 548, "velocity": 113}, {"time": 111600, "pitch": 68, "duration": 568, "velocity": 116}, {"time": 111600, "pitch": 72, "duration": 558, "velocity": 107}, {"time": 112077, "pitch": 44, "duration": 372, "velocity": 102}, {"time": 112077, "pitch": 56, "duration": 372, "velocity": 85}, {"time": 112319, "pitch": 63, "duration": 321, "velocity": 119}, {"time": 112319, "pitch": 68, "duration": 331, "velocity": 116}, {"time": 112319, "pitch": 72, "duration": 311, "velocity": 113}, {"time": 112560, "pitch": 44, "duration": 562, "velocity": 98}, {"time": 112560, "pitch": 56, "duration": 562, "velocity": 89}, {"time": 112801, "pitch": 63, "duration": 60, "velocity": 113}, {"time": 112801, "pitch": 68, "duration": 60, "velocity": 116}, {"time": 112801, "pitch": 73, "duration": 80, "velocity": 107}, {"time": 113042, "pitch": 63, "duration": 260, "velocity": 116}, {"time": 113042, "pitch": 68, "duration": 270, "velocity": 119}, {"time": 113042, "pitch": 73, "duration": 251, "velocity": 113}, {"time": 113283, "pitch": 44, "duration": 444, "velocity": 105}, {"time": 113283, "pitch": 56, "duration": 454, "velocity": 102}, {"time": 113401, "pitch": 63, "duration": 306, "velocity": 119}, {"time": 113401, "pitch": 68, "duration": 316, "velocity": 107}, {"time": 113401, "pitch": 72, "duration": 316, "velocity": 116}, {"time": 113757, "pitch": 39, "duration": 120, "velocity": 102}, {"time": 113757, "pitch": 51, "duration": 130, "velocity": 105}, {"time": 113757, "pitch": 63, "duration": 100, "velocity": 113}, {"time": 113757, "pitch": 67, "duration": 90, "velocity": 107}, {"time": 113757, "pitch": 70, "duration": 100, "velocity": 107}, {"time": 113998, "pitch": 39, "duration": 120, "velocity": 105}, {"time": 113998, "pitch": 51, "duration": 150, "velocity": 105}, {"time": 113998, "pitch": 63, "duration": 130, "velocity": 119}, {"time": 113998, "pitch": 67, "duration": 130, "velocity": 107}, {"time": 113998, "pitch": 70, "duration": 120, "velocity": 116}, {"time": 114721, "pitch": 37, "duration": 90, "velocity": 100}, {"time": 114721, "pitch": 49, "duration": 120, "velocity": 102}, {"time": 114721, "pitch": 61, "duration": 70, "velocity": 113}, {"time": 114721, "pitch": 65, "duration": 60, "velocity": 116}, {"time": 114721, "pitch": 68, "duration": 80, "velocity": 107}, {"time": 114962, "pitch": 37, "duration": 140, "velocity": 105}, {"time": 114962, "pitch": 49, "duration": 150, "velocity": 102}, {"time": 114962, "pitch": 61, "duration": 130, "velocity": 116}, {"time": 114962, "pitch": 65, "duration": 120, "velocity": 116}, {"time": 114962, "pitch": 68, "duration": 120, "velocity": 110}, {"time": 115440, "pitch": 44, "duration": 397, "velocity": 93}, {"time": 115440, "pitch": 56, "duration": 397, "velocity": 100}, {"time": 115440, "pitch": 63, "duration": 548, "velocity": 113}, {"time": 115440, "pitch": 68, "duration": 568, "velocity": 116}, {"time": 115440, "pitch": 72, "duration": 558, "velocity": 107}, {"time": 115918, "pitch": 44, "duration": 371, "velocity": 102}, {"time": 115918, "pitch": 56, "duration": 371, "velocity": 85}, {"time": 116159, "pitch": 63, "duration": 321, "velocity": 119}, {"time": 116159, "pitch": 68, "duration": 331, "velocity": 116}, {"time": 116159, "pitch": 72, "duration": 311, "velocity": 113}, {"time": 116400, "pitch": 44, "duration": 562, "velocity": 98}, {"time": 116400, "pitch": 56, "duration": 562, "velocity": 89}, {"time": 116641, "pitch": 63, "duration": 60, "velocity": 113}, {"time": 116641, "pitch": 68, "duration": 60, "velocity": 116}, {"time": 116641, "pitch": 73, "duration": 80, "velocity": 107}, {"time": 116882, "pitch": 63, "duration": 261, "velocity": 116}, {"time": 116882, "pitch": 68, "duration": 270, "velocity": 119}, {"time": 116882, "pitch": 73, "duration": 251, "velocity": 113}, {"time": 117123, "pitch": 44, "duration": 444, "velocity": 105}, {"time": 117123, "pitch": 56, "duration": 454, "velocity": 102}, {"time": 117241, "pitch": 63, "duration": 306, "velocity": 119}, {"time": 117241, "pitch": 68, "duration": 316, "velocity": 107}, {"time": 117241, "pitch": 72, "duration": 316, "velocity": 116}, {"time": 117597, "pitch": 39, "duration": 120, "velocity": 102}, {"time": 117597, "pitch": 51, "duration": 130, "velocity": 105}, {"time": 117597, "pitch": 63, "duration": 100, "velocity": 113}, {"time": 117597, "pitch": 67, "duration": 90, "velocity": 107}, {"time": 117597, "pitch": 70, "duration": 100, "velocity": 107}, {"time": 117838, "pitch": 39, "duration": 120, "velocity": 105}, {"time": 117838, "pitch": 51, "duration": 150, "velocity": 105}, {"time": 117838, "pitch": 63, "duration": 130, "velocity": 119}, {"time": 117838, "pitch": 67, "duration": 130, "velocity": 107}, {"time": 117838, "pitch": 70, "duration": 120, "velocity": 116}, {"time": 118561, "pitch": 37, "duration": 90, "velocity": 100}, {"time": 118561, "pitch": 49, "duration": 120, "velocity": 102}, {"time": 118561, "pitch": 61, "duration": 70, "velocity": 113}, {"time": 118561, "pitch": 65, "duration": 60, "velocity": 116}, {"time": 118561, "pitch": 68, "duration": 80, "velocity": 107}, {"time": 118802, "pitch": 37, "duration": 140, "velocity": 105}, {"time": 118802, "pitch": 49, "duration": 151, "velocity": 102}, {"time": 118802, "pitch": 61, "duration": 130, "velocity": 116}, {"time": 118802, "pitch": 65, "duration": 120, "velocity": 116}, {"time": 118802, "pitch": 68, "duration": 120, "velocity": 110}, {"time": 119280, "pitch": 44, "duration": 2147, "velocity": 93}, {"time": 119280, "pitch": 56, "duration": 2137, "velocity": 100}, {"time": 119280, "pitch": 63, "duration": 2137, "velocity": 113}, {"time": 119280, "pitch": 68, "duration": 2147, "velocity": 116}, {"time": 119280, "pitch": 72, "duration": 2137, "velocity": 107}, {"time": 121437, "pitch": 46, "duration": 1841, "velocity": 89}, {"time": 121437, "pitch": 58, "duration": 1861, "velocity": 80}, {"time": 121437, "pitch": 62, "duration": 110, "velocity": 89}, {"time": 121437, "pitch": 65, "duration": 110, "velocity": 102}, {"time": 121437, "pitch": 70, "duration": 120, "velocity": 98}, {"time": 121678, "pitch": 62, "duration": 80, "velocity": 85}, {"time": 121678, "pitch": 65, "duration": 80, "velocity": 98}, {"time": 121678, "pitch": 70, "duration": 70, "velocity": 91}, {"time": 121919, "pitch": 62, "duration": 70, "velocity": 95}, {"time": 121919, "pitch": 65, "duration": 70, "velocity": 100}, {"time": 121919, "pitch": 70, "duration": 70, "velocity": 98}, {"time": 122160, "pitch": 62, "duration": 90, "velocity": 85}, {"time": 122160, "pitch": 65, "duration": 100, "velocity": 91}, {"time": 122160, "pitch": 70, "duration": 80, "velocity": 91}, {"time": 122401, "pitch": 62, "duration": 70, "velocity": 87}, {"time": 122401, "pitch": 65, "duration": 70, "velocity": 100}, {"time": 122401, "pitch": 70, "duration": 80, "velocity": 95}, {"time": 122642, "pitch": 62, "duration": 90, "velocity": 85}, {"time": 122642, "pitch": 65, "duration": 90, "velocity": 89}, {"time": 122642, "pitch": 70, "duration": 100, "velocity": 87}, {"time": 122883, "pitch": 62, "duration": 89, "velocity": 91}, {"time": 122883, "pitch": 65, "duration": 99, "velocity": 100}, {"time": 122883, "pitch": 70, "duration": 89, "velocity": 100}, {"time": 123120, "pitch": 62, "duration": 99, "velocity": 93}, {"time": 123120, "pitch": 65, "duration": 99, "velocity": 87}, {"time": 123120, "pitch": 70, "duration": 118, "velocity": 98}, {"time": 123357, "pitch": 48, "duration": 1841, "velocity": 80}, {"time": 123357, "pitch": 60, "duration": 1851, "velocity": 70}, {"time": 123357, "pitch": 63, "duration": 110, "velocity": 102}, {"time": 123357, "pitch": 67, "duration": 110, "velocity": 105}, {"time": 123357, "pitch": 70, "duration": 110, "velocity": 102}, {"time": 123598, "pitch": 63, "duration": 100, "velocity": 91}, {"time": 123598, "pitch": 67, "duration": 100, "velocity": 82}, {"time": 123598, "pitch": 70, "duration": 100, "velocity": 93}, {"time": 123839, "pitch": 63, "duration": 100, "velocity": 102}, {"time": 123839, "pitch": 67, "duration": 90, "velocity": 100}, {"time": 123839, "pitch": 70, "duration": 100, "velocity": 105}, {"time": 124080, "pitch": 63, "duration": 90, "velocity": 87}, {"time": 124080, "pitch": 67, "duration": 80, "velocity": 85}, {"time": 124080, "pitch": 70, "duration": 80, "velocity": 93}, {"time": 124321, "pitch": 63, "duration": 80, "velocity": 95}, {"time": 124321, "pitch": 67, "duration": 90, "velocity": 91}, {"time": 124321, "pitch": 70, "duration": 101, "velocity": 102}, {"time": 124562, "pitch": 63, "duration": 111, "velocity": 93}, {"time": 124562, "pitch": 67, "duration": 111, "velocity": 85}, {"time": 124562, "pitch": 70, "duration": 101, "velocity": 98}, {"time": 124803, "pitch": 63, "duration": 89, "velocity": 89}, {"time": 124803, "pitch": 67, "duration": 89, "velocity": 91}, {"time": 124803, "pitch": 70, "duration": 89, "velocity": 95}, {"time": 125040, "pitch": 63, "duration": 89, "velocity": 102}, {"time": 125040, "pitch": 67, "duration": 89, "velocity": 100}, {"time": 125040, "pitch": 70, "duration": 89, "velocity": 105}, {"time": 125277, "pitch": 46, "duration": 1881, "velocity": 89}, {"time": 125277, "pitch": 58, "duration": 1890, "velocity": 89}, {"time": 125277, "pitch": 62, "duration": 100, "velocity": 100}, {"time": 125277, "pitch": 65, "duration": 110, "velocity": 107}, {"time": 125277, "pitch": 70, "duration": 131, "velocity": 95}, {"time": 125518, "pitch": 62, "duration": 90, "velocity": 87}, {"time": 125518, "pitch": 65, "duration": 90, "velocity": 98}, {"time": 125518, "pitch": 70, "duration": 80, "velocity": 89}, {"time": 125759, "pitch": 62, "duration": 90, "velocity": 100}, {"time": 125759, "pitch": 65, "duration": 80, "velocity": 105}, {"time": 125759, "pitch": 70, "duration": 70, "velocity": 102}, {"time": 126000, "pitch": 62, "duration": 70, "velocity": 87}, {"time": 126000, "pitch": 65, "duration": 60, "velocity": 98}, {"time": 126000, "pitch": 70, "duration": 60, "velocity": 95}, {"time": 126241, "pitch": 62, "duration": 80, "velocity": 89}, {"time": 126241, "pitch": 65, "duration": 80, "velocity": 100}, {"time": 126241, "pitch": 70, "duration": 80, "velocity": 100}, {"time": 126482, "pitch": 62, "duration": 91, "velocity": 82}, {"time": 126482, "pitch": 65, "duration": 81, "velocity": 85}, {"time": 126482, "pitch": 70, "duration": 81, "velocity": 87}, {"time": 126723, "pitch": 62, "duration": 79, "velocity": 102}, {"time": 126723, "pitch": 65, "duration": 69, "velocity": 100}, {"time": 126723, "pitch": 70, "duration": 79, "velocity": 102}, {"time": 126960, "pitch": 62, "duration": 79, "velocity": 98}, {"time": 126960, "pitch": 65, "duration": 79, "velocity": 100}, {"time": 126960, "pitch": 70, "duration": 99, "velocity": 98}, {"time": 127197, "pitch": 44, "duration": 793, "velocity": 85}, {"time": 127197, "pitch": 56, "duration": 814, "velocity": 74}, {"time": 127197, "pitch": 66, "duration": 121, "velocity": 102}, {"time": 127197, "pitch": 70, "duration": 111, "velocity": 105}, {"time": 127197, "pitch": 73, "duration": 111, "velocity": 100}, {"time": 127438, "pitch": 66, "duration": 80, "velocity": 98}, {"time": 127438, "pitch": 70, "duration": 70, "velocity": 105}, {"time": 127438, "pitch": 73, "duration": 80, "velocity": 102}, {"time": 127679, "pitch": 66, "duration": 91, "velocity": 102}, {"time": 127679, "pitch": 70, "duration": 80, "velocity": 105}, {"time": 127679, "pitch": 73, "duration": 80, "velocity": 102}, {"time": 127920, "pitch": 66, "duration": 81, "velocity": 98}, {"time": 127920, "pitch": 70, "duration": 91, "velocity": 102}, {"time": 127920, "pitch": 73, "duration": 91, "velocity": 100}, {"time": 128041, "pitch": 46, "duration": 231, "velocity": 87}, {"time": 128041, "pitch": 58, "duration": 201, "velocity": 80}, {"time": 128041, "pitch": 68, "duration": 311, "velocity": 113}, {"time": 128041, "pitch": 72, "duration": 311, "velocity": 116}, {"time": 128041, "pitch": 75, "duration": 311, "velocity": 107}, {"time": 128402, "pitch": 46, "duration": 101, "velocity": 99}, {"time": 128402, "pitch": 58, "duration": 71, "velocity": 99}, {"time": 128402, "pitch": 68, "duration": 91, "velocity": 102}, {"time": 128402, "pitch": 72, "duration": 71, "velocity": 100}, {"time": 128402, "pitch": 75, "duration": 71, "velocity": 98}, {"time": 128643, "pitch": 46, "duration": 99, "velocity": 101}, {"time": 128643, "pitch": 58, "duration": 69, "velocity": 101}, {"time": 128643, "pitch": 68, "duration": 119, "velocity": 113}, {"time": 128643, "pitch": 72, "duration": 119, "velocity": 116}, {"time": 128643, "pitch": 75, "duration": 119, "velocity": 107}, {"time": 128880, "pitch": 46, "duration": 99, "velocity": 102}, {"time": 128880, "pitch": 58, "duration": 69, "velocity": 102}, {"time": 128880, "pitch": 68, "duration": 89, "velocity": 102}, {"time": 128880, "pitch": 72, "duration": 69, "velocity": 100}, {"time": 128880, "pitch": 75, "duration": 69, "velocity": 98}, {"time": 129117, "pitch": 46, "duration": 101, "velocity": 104}, {"time": 129117, "pitch": 58, "duration": 70, "velocity": 104}, {"time": 129117, "pitch": 68, "duration": 121, "velocity": 113}, {"time": 129117, "pitch": 72, "duration": 121, "velocity": 116}, {"time": 129117, "pitch": 75, "duration": 121, "velocity": 107}, {"time": 129358, "pitch": 46, "duration": 101, "velocity": 105}, {"time": 129358, "pitch": 58, "duration": 70, "velocity": 105}, {"time": 129358, "pitch": 68, "duration": 91, "velocity": 102}, {"time": 129358, "pitch": 72, "duration": 70, "velocity": 100}, {"time": 129358, "pitch": 75, "duration": 70, "velocity": 98}, {"time": 129599, "pitch": 46, "duration": 101, "velocity": 107}, {"time": 129599, "pitch": 58, "duration": 71, "velocity": 107}, {"time": 129599, "pitch": 68, "duration": 121, "velocity": 113}, {"time": 129599, "pitch": 72, "duration": 121, "velocity": 116}, {"time": 129599, "pitch": 75, "duration": 121, "velocity": 107}, {"time": 129840, "pitch": 46, "duration": 101, "velocity": 108}, {"time": 129840, "pitch": 58, "duration": 71, "velocity": 108}, {"time": 129840, "pitch": 68, "duration": 91, "velocity": 102}, {"time": 129840, "pitch": 72, "duration": 71, "velocity": 100}, {"time": 129840, "pitch": 75, "duration": 71, "velocity": 98}, {"time": 130081, "pitch": 46, "duration": 101, "velocity": 110}, {"time": 130081, "pitch": 58, "duration": 71, "velocity": 110}, {"time": 130081, "pitch": 68, "duration": 121, "velocity": 113}, {"time": 130081, "pitch": 72, "duration": 121, "velocity": 116}, {"time": 130081, "pitch": 75, "duration": 121, "velocity": 107}, {"time": 130322, "pitch": 46, "duration": 101, "velocity": 111}, {"time": 130322, "pitch": 58, "duration": 71, "velocity": 111}, {"time": 130322, "pitch": 68, "duration": 91, "velocity": 102}, {"time": 130322, "pitch": 72, "duration": 71, "velocity": 100}, {"time": 130322, "pitch": 75, "duration": 71, "velocity": 98}, {"time": 130563, "pitch": 46, "duration": 99, "velocity": 113}, {"time": 130563, "pitch": 58, "duration": 69, "velocity": 113}, {"time": 130563, "pitch": 68, "duration": 109, "velocity": 102}, {"time": 130563, "pitch": 72, "duration": 99, "velocity": 105}, {"time": 130563, "pitch": 75, "duration": 109, "velocity": 102}, {"time": 130682, "pitch": 46, "duration": 326, "velocity": 114}, {"time": 130682, "pitch": 58, "duration": 296, "velocity": 114}, {"time": 130682, "pitch": 68, "duration": 326, "velocity": 116}, {"time": 130682, "pitch": 72, "duration": 326, "velocity": 119}, {"time": 130682, "pitch": 75, "duration": 326, "velocity": 116}, {"time": 131037, "pitch": 44, "duration": 121, "velocity": 102}, {"time": 131037, "pitch": 56, "duration": 131, "velocity": 105}, {"time": 131037, "pitch": 63, "duration": 101, "velocity": 113}, {"time": 131037, "pitch": 67, "duration": 91, "velocity": 107}, {"time": 131037, "pitch": 72, "duration": 101, "velocity": 107}, {"time": 131278, "pitch": 44, "duration": 121, "velocity": 105}, {"time": 131278, "pitch": 56, "duration": 151, "velocity": 105}, {"time": 131278, "pitch": 63, "duration": 131, "velocity": 119}, {"time": 131278, "pitch": 67, "duration": 131, "velocity": 107}, {"time": 131278, "pitch": 72, "duration": 121, "velocity": 116}, {"time": 132001, "pitch": 44, "duration": 91, "velocity": 100}, {"time": 132001, "pitch": 56, "duration": 121, "velocity": 102}, {"time": 132001, "pitch": 63, "duration": 71, "velocity": 113}, {"time": 132001, "pitch": 67, "duration": 61, "velocity": 116}, {"time": 132001, "pitch": 72, "duration": 81, "velocity": 107}, {"time": 132242, "pitch": 44, "duration": 141, "velocity": 105}, {"time": 132242, "pitch": 56, "duration": 151, "velocity": 102}, {"time": 132242, "pitch": 63, "duration": 131, "velocity": 116}, {"time": 132242, "pitch": 67, "duration": 121, "velocity": 116}, {"time": 132242, "pitch": 72, "duration": 121, "velocity": 110}, {"time": 132720, "pitch": 43, "duration": 398, "velocity": 93}, {"time": 132720, "pitch": 55, "duration": 398, "velocity": 100}, {"time": 132720, "pitch": 63, "duration": 549, "velocity": 113}, {"time": 132720, "pitch": 67, "duration": 569, "velocity": 116}, {"time": 132720, "pitch": 70, "duration": 559, "velocity": 107}, {"time": 133198, "pitch": 43, "duration": 372, "velocity": 102}, {"time": 133198, "pitch": 55, "duration": 372, "velocity": 85}, {"time": 133439, "pitch": 63, "duration": 322, "velocity": 119}, {"time": 133439, "pitch": 67, "duration": 332, "velocity": 116}, {"time": 133439, "pitch": 70, "duration": 312, "velocity": 113}, {"time": 133680, "pitch": 48, "duration": 563, "velocity": 98}, {"time": 133680, "pitch": 60, "duration": 563, "velocity": 89}, {"time": 133921, "pitch": 63, "duration": 61, "velocity": 113}, {"time": 133921, "pitch": 67, "duration": 61, "velocity": 116}, {"time": 133921, "pitch": 70, "duration": 81, "velocity": 107}, {"time": 134163, "pitch": 63, "duration": 260, "velocity": 116}, {"time": 134163, "pitch": 67, "duration": 270, "velocity": 119}, {"time": 134163, "pitch": 70, "duration": 250, "velocity": 113}, {"time": 134403, "pitch": 48, "duration": 445, "velocity": 105}, {"time": 134403, "pitch": 60, "duration": 455, "velocity": 102}, {"time": 134522, "pitch": 63, "duration": 306, "velocity": 119}, {"time": 134522, "pitch": 67, "duration": 316, "velocity": 107}, {"time": 134522, "pitch": 70, "duration": 316, "velocity": 116}, {"time": 134877, "pitch": 41, "duration": 121, "velocity": 102}, {"time": 134877, "pitch": 53, "duration": 131, "velocity": 105}, {"time": 134877, "pitch": 60, "duration": 101, "velocity": 113}, {"time": 134877, "pitch": 63, "duration": 91, "velocity": 107}, {"time": 134877, "pitch": 68, "duration": 101, "velocity": 107}, {"time": 135118, "pitch": 41, "duration": 121, "velocity": 105}, {"time": 135118, "pitch": 53, "duration": 151, "velocity": 105}, {"time": 135118, "pitch": 60, "duration": 131, "velocity": 119}, {"time": 135118, "pitch": 63, "duration": 131, "velocity": 107}, {"time": 135118, "pitch": 68, "duration": 121, "velocity": 116}, {"time": 135842, "pitch": 43, "duration": 90, "velocity": 100}, {"time": 135842, "pitch": 55, "duration": 120, "velocity": 102}, {"time": 135842, "pitch": 62, "duration": 70, "velocity": 113}, {"time": 135842, "pitch": 65, "duration": 60, "velocity": 116}, {"time": 135842, "pitch": 70, "duration": 80, "velocity": 107}, {"time": 136083, "pitch": 43, "duration": 140, "velocity": 105}, {"time": 136083, "pitch": 55, "duration": 150, "velocity": 102}, {"time": 136083, "pitch": 62, "duration": 130, "velocity": 116}, {"time": 136083, "pitch": 65, "duration": 120, "velocity": 116}, {"time": 136083, "pitch": 70, "duration": 120, "velocity": 110}, {"time": 136561, "pitch": 44, "duration": 397, "velocity": 93}, {"time": 136561, "pitch": 56, "duration": 397, "velocity": 100}, {"time": 136561, "pitch": 63, "duration": 548, "velocity": 113}, {"time": 136561, "pitch": 68, "duration": 568, "velocity": 116}, {"time": 136561, "pitch": 72, "duration": 558, "velocity": 107}, {"time": 137038, "pitch": 44, "duration": 372, "velocity": 102}, {"time": 137038, "pitch": 56, "duration": 372, "velocity": 85}, {"time": 137280, "pitch": 63, "duration": 321, "velocity": 119}, {"time": 137280, "pitch": 68, "duration": 331, "velocity": 116}, {"time": 137280, "pitch": 72, "duration": 311, "velocity": 113}, {"time": 137521, "pitch": 46, "duration": 562, "velocity": 98}, {"time": 137521, "pitch": 58, "duration": 562, "velocity": 89}, {"time": 137762, "pitch": 65, "duration": 60, "velocity": 113}, {"time": 137762, "pitch": 70, "duration": 60, "velocity": 116}, {"time": 137762, "pitch": 74, "duration": 80, "velocity": 107}, {"time": 138003, "pitch": 65, "duration": 260, "velocity": 116}, {"time": 138003, "pitch": 70, "duration": 270, "velocity": 119}, {"time": 138003, "pitch": 74, "duration": 251, "velocity": 113}, {"time": 138244, "pitch": 46, "duration": 444, "velocity": 105}, {"time": 138244, "pitch": 58, "duration": 454, "velocity": 102}, {"time": 138362, "pitch": 65, "duration": 306, "velocity": 119}, {"time": 138362, "pitch": 70, "duration": 316, "velocity": 107}, {"time": 138362, "pitch": 74, "duration": 316, "velocity": 116}, {"time": 138718, "pitch": 44, "duration": 120, "velocity": 102}, {"time": 138718, "pitch": 56, "duration": 130, "velocity": 105}, {"time": 138718, "pitch": 63, "duration": 100, "velocity": 113}, {"time": 138718, "pitch": 67, "duration": 90, "velocity": 107}, {"time": 138718, "pitch": 72, "duration": 100, "velocity": 107}, {"time": 138959, "pitch": 44, "duration": 120, "velocity": 105}, {"time": 138959, "pitch": 56, "duration": 150, "velocity": 105}, {"time": 138959, "pitch": 63, "duration": 130, "velocity": 119}, {"time": 138959, "pitch": 67, "duration": 130, "velocity": 107}, {"time": 138959, "pitch": 72, "duration": 120, "velocity": 116}, {"time": 139682, "pitch": 44, "duration": 90, "velocity": 100}, {"time": 139682, "pitch": 56, "duration": 120, "velocity": 102}, {"time": 139682, "pitch": 63, "duration": 70, "velocity": 113}, {"time": 139682, "pitch": 67, "duration": 60, "velocity": 116}, {"time": 139682, "pitch": 72, "duration": 80, "velocity": 107}, {"time": 139923, "pitch": 44, "duration": 140, "velocity": 105}, {"time": 139923, "pitch": 56, "duration": 150, "velocity": 102}, {"time": 139923, "pitch": 63, "duration": 130, "velocity": 116}, {"time": 139923, "pitch": 67, "duration": 120, "velocity": 116}, {"time": 139923, "pitch": 72, "duration": 120, "velocity": 110}, {"time": 140401, "pitch": 43, "duration": 397, "velocity": 93}, {"time": 140401, "pitch": 55, "duration": 397, "velocity": 100}, {"time": 140401, "pitch": 63, "duration": 548, "velocity": 113}, {"time": 140401, "pitch": 67, "duration": 568, "velocity": 116}, {"time": 140401, "pitch": 70, "duration": 558, "velocity": 107}, {"time": 140879, "pitch": 43, "duration": 371, "velocity": 102}, {"time": 140879, "pitch": 55, "duration": 371, "velocity": 85}, {"time": 141120, "pitch": 63, "duration": 321, "velocity": 119}, {"time": 141120, "pitch": 67, "duration": 331, "velocity": 116}, {"time": 141120, "pitch": 70, "duration": 311, "velocity": 113}, {"time": 141361, "pitch": 48, "duration": 562, "velocity": 98}, {"time": 141361, "pitch": 60, "duration": 562, "velocity": 89}, {"time": 141602, "pitch": 63, "duration": 60, "velocity": 113}, {"time": 141602, "pitch": 67, "duration": 60, "velocity": 116}, {"time": 141602, "pitch": 70, "duration": 80, "velocity": 107}, {"time": 141843, "pitch": 63, "duration": 261, "velocity": 116}, {"time": 141843, "pitch": 67, "duration": 270, "velocity": 119}, {"time": 141843, "pitch": 70, "duration": 251, "velocity": 113}, {"time": 142084, "pitch": 48, "duration": 444, "velocity": 105}, {"time": 142084, "pitch": 60, "duration": 454, "velocity": 102}, {"time": 142202, "pitch": 63, "duration": 306, "velocity": 119}, {"time": 142202, "pitch": 67, "duration": 316, "velocity": 107}, {"time": 142202, "pitch": 70, "duration": 316, "velocity": 116}, {"time": 142558, "pitch": 41, "duration": 221, "velocity": 85}, {"time": 142558, "pitch": 43, "duration": 10, "velocity": 51}, {"time": 142558, "pitch": 53, "duration": 211, "velocity": 80}, {"time": 142558, "pitch": 60, "duration": 321, "velocity": 110}, {"time": 142558, "pitch": 63, "duration": 331, "velocity": 110}, {"time": 142558, "pitch": 68, "duration": 311, "velocity": 107}, {"time": 142799, "pitch": 41, "duration": 371, "velocity": 93}, {"time": 142799, "pitch": 53, "duration": 371, "velocity": 80}, {"time": 143040, "pitch": 60, "duration": 311, "velocity": 110}, {"time": 143040, "pitch": 63, "duration": 311, "velocity": 105}, {"time": 143040, "pitch": 68, "duration": 291, "velocity": 107}, {"time": 143281, "pitch": 41, "duration": 341, "velocity": 87}, {"time": 143281, "pitch": 53, "duration": 331, "velocity": 78}, {"time": 143522, "pitch": 62, "duration": 301, "velocity": 116}, {"time": 143522, "pitch": 65, "duration": 301, "velocity": 113}, {"time": 143522, "pitch": 70, "duration": 301, "velocity": 107}, {"time": 143763, "pitch": 43, "duration": 340, "velocity": 89}, {"time": 143763, "pitch": 55, "duration": 340, "velocity": 85}, {"time": 144004, "pitch": 62, "duration": 326, "velocity": 107}, {"time": 144004, "pitch": 65, "duration": 326, "velocity": 110}, {"time": 144004, "pitch": 70, "duration": 316, "velocity": 107}, {"time": 144241, "pitch": 43, "duration": 227, "velocity": 93}, {"time": 144241, "pitch": 55, "duration": 227, "velocity": 87}, {"time": 144478, "pitch": 44, "duration": 201, "velocity": 85}, {"time": 144478, "pitch": 56, "duration": 231, "velocity": 85}, {"time": 144478, "pitch": 60, "duration": 341, "velocity": 113}, {"time": 144478, "pitch": 63, "duration": 331, "velocity": 105}, {"time": 144478, "pitch": 66, "duration": 341, "velocity": 110}, {"time": 144719, "pitch": 44, "duration": 361, "velocity": 100}, {"time": 144719, "pitch": 56, "duration": 381, "velocity": 95}, {"time": 144960, "pitch": 60, "duration": 351, "velocity": 110}, {"time": 144960, "pitch": 63, "duration": 371, "velocity": 102}, {"time": 144960, "pitch": 66, "duration": 361, "velocity": 110}, {"time": 145201, "pitch": 44, "duration": 392, "velocity": 87}, {"time": 145201, "pitch": 56, "duration": 412, "velocity": 89}, {"time": 145442, "pitch": 61, "duration": 351, "velocity": 110}, {"time": 145442, "pitch": 63, "duration": 351, "velocity": 119}, {"time": 145442, "pitch": 66, "duration": 362, "velocity": 119}, {"time": 145683, "pitch": 44, "duration": 429, "velocity": 93}, {"time": 145683, "pitch": 56, "duration": 419, "velocity": 85}, {"time": 145924, "pitch": 60, "duration": 316, "velocity": 116}, {"time": 145924, "pitch": 63, "duration": 296, "velocity": 110}, {"time": 145924, "pitch": 66, "duration": 316, "velocity": 110}, {"time": 146161, "pitch": 44, "duration": 227, "velocity": 87}, {"time": 146161, "pitch": 56, "duration": 217, "velocity": 72}, {"time": 146398, "pitch": 44, "duration": 120, "velocity": 102}, {"time": 146398, "pitch": 56, "duration": 130, "velocity": 105}, {"time": 146398, "pitch": 63, "duration": 100, "velocity": 113}, {"time": 146398, "pitch": 67, "duration": 90, "velocity": 107}, {"time": 146398, "pitch": 72, "duration": 100, "velocity": 107}, {"time": 146639, "pitch": 44, "duration": 120, "velocity": 105}, {"time": 146639, "pitch": 56, "duration": 151, "velocity": 105}, {"time": 146639, "pitch": 63, "duration": 130, "velocity": 119}, {"time": 146639, "pitch": 67, "duration": 130, "velocity": 107}, {"time": 146639, "pitch": 72, "duration": 120, "velocity": 116}, {"time": 147362, "pitch": 44, "duration": 90, "velocity": 100}, {"time": 147362, "pitch": 56, "duration": 121, "velocity": 102}, {"time": 147362, "pitch": 63, "duration": 70, "velocity": 113}, {"time": 147362, "pitch": 67, "duration": 60, "velocity": 116}, {"time": 147362, "pitch": 72, "duration": 80, "velocity": 107}, {"time": 147603, "pitch": 44, "duration": 141, "velocity": 105}, {"time": 147603, "pitch": 56, "duration": 151, "velocity": 102}, {"time": 147603, "pitch": 63, "duration": 131, "velocity": 116}, {"time": 147603, "pitch": 67, "duration": 121, "velocity": 116}, {"time": 147603, "pitch": 72, "duration": 121, "velocity": 110}, {"time": 148081, "pitch": 43, "duration": 398, "velocity": 93}, {"time": 148081, "pitch": 55, "duration": 398, "velocity": 100}, {"time": 148081, "pitch": 63, "duration": 548, "velocity": 113}, {"time": 148081, "pitch": 67, "duration": 568, "velocity": 116}, {"time": 148081, "pitch": 70, "duration": 558, "velocity": 107}, {"time": 148559, "pitch": 43, "duration": 372, "velocity": 102}, {"time": 148559, "pitch": 55, "duration": 372, "velocity": 85}, {"time": 148800, "pitch": 63, "duration": 321, "velocity": 119}, {"time": 148800, "pitch": 67, "duration": 331, "velocity": 116}, {"time": 148800, "pitch": 70, "duration": 311, "velocity": 113}, {"time": 149041, "pitch": 48, "duration": 557, "velocity": 98}, {"time": 149041, "pitch": 60, "duration": 557, "velocity": 89}, {"time": 149282, "pitch": 63, "duration": 59, "velocity": 113}, {"time": 149282, "pitch": 67, "duration": 59, "velocity": 116}, {"time": 149282, "pitch": 70, "duration": 79, "velocity": 107}, {"time": 149519, "pitch": 63, "duration": 257, "velocity": 116}, {"time": 149519, "pitch": 67, "duration": 267, "velocity": 119}, {"time": 149519, "pitch": 70, "duration": 247, "velocity": 113}, {"time": 149756, "pitch": 48, "duration": 452, "velocity": 105}, {"time": 149756, "pitch": 60, "duration": 462, "velocity": 102}, {"time": 149876, "pitch": 63, "duration": 312, "velocity": 119}, {"time": 149876, "pitch": 67, "duration": 322, "velocity": 107}, {"time": 149876, "pitch": 70, "duration": 322, "velocity": 116}, {"time": 150238, "pitch": 41, "duration": 121, "velocity": 102}, {"time": 150238, "pitch": 53, "duration": 131, "velocity": 105}, {"time": 150238, "pitch": 60, "duration": 100, "velocity": 113}, {"time": 150238, "pitch": 63, "duration": 90, "velocity": 107}, {"time": 150238, "pitch": 68, "duration": 100, "velocity": 107}, {"time": 150479, "pitch": 41, "duration": 121, "velocity": 105}, {"time": 150479, "pitch": 53, "duration": 151, "velocity": 105}, {"time": 150479, "pitch": 60, "duration": 131, "velocity": 119}, {"time": 150479, "pitch": 63, "duration": 131, "velocity": 107}, {"time": 150479, "pitch": 68, "duration": 121, "velocity": 116}, {"time": 151202, "pitch": 43, "duration": 89, "velocity": 100}, {"time": 151202, "pitch": 55, "duration": 119, "velocity": 102}, {"time": 151202, "pitch": 62, "duration": 69, "velocity": 113}, {"time": 151202, "pitch": 65, "duration": 59, "velocity": 116}, {"time": 151202, "pitch": 70, "duration": 79, "velocity": 107}, {"time": 151439, "pitch": 43, "duration": 138, "velocity": 105}, {"time": 151439, "pitch": 55, "duration": 148, "velocity": 102}, {"time": 151439, "pitch": 62, "duration": 128, "velocity": 116}, {"time": 151439, "pitch": 65, "duration": 119, "velocity": 116}, {"time": 151439, "pitch": 70, "duration": 119, "velocity": 110}, {"time": 151917, "pitch": 44, "duration": 402, "velocity": 93}, {"time": 151917, "pitch": 56, "duration": 402, "velocity": 100}, {"time": 151917, "pitch": 63, "duration": 552, "velocity": 113}, {"time": 151917, "pitch": 68, "duration": 573, "velocity": 116}, {"time": 151917, "pitch": 72, "duration": 562, "velocity": 107}, {"time": 152399, "pitch": 44, "duration": 372, "velocity": 102}, {"time": 152399, "pitch": 56, "duration": 372, "velocity": 85}, {"time": 152640, "pitch": 63, "duration": 322, "velocity": 119}, {"time": 152640, "pitch": 68, "duration": 332, "velocity": 116}, {"time": 152640, "pitch": 72, "duration": 312, "velocity": 113}, {"time": 152881, "pitch": 46, "duration": 557, "velocity": 98}, {"time": 152881, "pitch": 58, "duration": 557, "velocity": 89}, {"time": 153122, "pitch": 65, "duration": 59, "velocity": 113}, {"time": 153122, "pitch": 70, "duration": 59, "velocity": 116}, {"time": 153122, "pitch": 74, "duration": 79, "velocity": 107}, {"time": 153359, "pitch": 65, "duration": 257, "velocity": 116}, {"time": 153359, "pitch": 70, "duration": 267, "velocity": 119}, {"time": 153359, "pitch": 74, "duration": 247, "velocity": 113}, {"time": 153596, "pitch": 46, "duration": 452, "velocity": 105}, {"time": 153596, "pitch": 58, "duration": 462, "velocity": 102}, {"time": 153717, "pitch": 65, "duration": 311, "velocity": 119}, {"time": 153717, "pitch": 70, "duration": 321, "velocity": 107}, {"time": 153717, "pitch": 74, "duration": 321, "velocity": 116}, {"time": 154078, "pitch": 44, "duration": 121, "velocity": 102}, {"time": 154078, "pitch": 56, "duration": 131, "velocity": 105}, {"time": 154078, "pitch": 63, "duration": 101, "velocity": 113}, {"time": 154078, "pitch": 67, "duration": 91, "velocity": 107}, {"time": 154078, "pitch": 72, "duration": 101, "velocity": 107}, {"time": 154319, "pitch": 44, "duration": 121, "velocity": 105}, {"time": 154319, "pitch": 56, "duration": 151, "velocity": 105}, {"time": 154319, "pitch": 63, "duration": 131, "velocity": 119}, {"time": 154319, "pitch": 67, "duration": 131, "velocity": 107}, {"time": 154319, "pitch": 72, "duration": 121, "velocity": 116}, {"time": 155042, "pitch": 44, "duration": 89, "velocity": 100}, {"time": 155042, "pitch": 56, "duration": 119, "velocity": 102}, {"time": 155042, "pitch": 63, "duration": 69, "velocity": 113}, {"time": 155042, "pitch": 67, "duration": 60, "velocity": 116}, {"time": 155042, "pitch": 72, "duration": 79, "velocity": 107}, {"time": 155279, "pitch": 44, "duration": 138, "velocity": 105}, {"time": 155279, "pitch": 56, "duration": 148, "velocity": 102}, {"time": 155279, "pitch": 63, "duration": 129, "velocity": 116}, {"time": 155279, "pitch": 67, "duration": 119, "velocity": 116}, {"time": 155279, "pitch": 72, "duration": 119, "velocity": 110}, {"time": 155757, "pitch": 43, "duration": 402, "velocity": 93}, {"time": 155757, "pitch": 55, "duration": 402, "velocity": 100}, {"time": 155757, "pitch": 63, "duration": 553, "velocity": 113}, {"time": 155757, "pitch": 67, "duration": 573, "velocity": 116}, {"time": 155757, "pitch": 70, "duration": 563, "velocity": 107}, {"time": 156239, "pitch": 43, "duration": 372, "velocity": 102}, {"time": 156239, "pitch": 55, "duration": 372, "velocity": 85}, {"time": 156480, "pitch": 63, "duration": 322, "velocity": 119}, {"time": 156480, "pitch": 67, "duration": 332, "velocity": 116}, {"time": 156480, "pitch": 70, "duration": 312, "velocity": 113}, {"time": 156721, "pitch": 48, "duration": 557, "velocity": 98}, {"time": 156721, "pitch": 60, "duration": 557, "velocity": 89}, {"time": 156962, "pitch": 63, "duration": 60, "velocity": 113}, {"time": 156962, "pitch": 67, "duration": 60, "velocity": 116}, {"time": 156962, "pitch": 70, "duration": 79, "velocity": 107}, {"time": 157199, "pitch": 63, "duration": 257, "velocity": 116}, {"time": 157199, "pitch": 67, "duration": 267, "velocity": 119}, {"time": 157199, "pitch": 70, "duration": 247, "velocity": 113}, {"time": 157436, "pitch": 48, "duration": 452, "velocity": 105}, {"time": 157436, "pitch": 60, "duration": 462, "velocity": 102}, {"time": 157557, "pitch": 63, "duration": 311, "velocity": 119}, {"time": 157557, "pitch": 67, "duration": 321, "velocity": 107}, {"time": 157557, "pitch": 70, "duration": 321, "velocity": 116}, {"time": 157918, "pitch": 41, "duration": 221, "velocity": 85}, {"time": 157918, "pitch": 43, "duration": 10, "velocity": 51}, {"time": 157918, "pitch": 53, "duration": 211, "velocity": 80}, {"time": 157918, "pitch": 60, "duration": 322, "velocity": 110}, {"time": 157918, "pitch": 63, "duration": 332, "velocity": 110}, {"time": 157918, "pitch": 68, "duration": 312, "velocity": 107}, {"time": 158159, "pitch": 41, "duration": 372, "velocity": 93}, {"time": 158159, "pitch": 53, "duration": 372, "velocity": 80}, {"time": 158400, "pitch": 60, "duration": 312, "velocity": 110}, {"time": 158400, "pitch": 63, "duration": 312, "velocity": 105}, {"time": 158400, "pitch": 68, "duration": 292, "velocity": 107}, {"time": 158641, "pitch": 41, "duration": 340, "velocity": 87}, {"time": 158641, "pitch": 53, "duration": 330, "velocity": 78}, {"time": 158882, "pitch": 62, "duration": 297, "velocity": 116}, {"time": 158882, "pitch": 65, "duration": 297, "velocity": 113}, {"time": 158882, "pitch": 70, "duration": 297, "velocity": 107}, {"time": 159119, "pitch": 43, "duration": 338, "velocity": 89}, {"time": 159119, "pitch": 55, "duration": 338, "velocity": 85}, {"time": 159356, "pitch": 62, "duration": 332, "velocity": 107}, {"time": 159356, "pitch": 65, "duration": 332, "velocity": 110}, {"time": 159356, "pitch": 70, "duration": 322, "velocity": 107}, {"time": 159597, "pitch": 43, "duration": 231, "velocity": 93}, {"time": 159597, "pitch": 55, "duration": 231, "velocity": 87}, {"time": 159838, "pitch": 44, "duration": 201, "velocity": 85}, {"time": 159838, "pitch": 56, "duration": 231, "velocity": 85}, {"time": 159838, "pitch": 60, "duration": 342, "velocity": 113}, {"time": 159838, "pitch": 63, "duration": 332, "velocity": 105}, {"time": 159838, "pitch": 66, "duration": 342, "velocity": 110}, {"time": 160079, "pitch": 44, "duration": 362, "velocity": 100}, {"time": 160079, "pitch": 56, "duration": 382, "velocity": 95}, {"time": 160320, "pitch": 60, "duration": 352, "velocity": 110}, {"time": 160320, "pitch": 63, "duration": 372, "velocity": 102}, {"time": 160320, "pitch": 66, "duration": 362, "velocity": 110}, {"time": 160562, "pitch": 44, "duration": 389, "velocity": 87}, {"time": 160562, "pitch": 56, "duration": 408, "velocity": 89}, {"time": 160803, "pitch": 61, "duration": 345, "velocity": 110}, {"time": 160803, "pitch": 63, "duration": 345, "velocity": 119}, {"time": 160803, "pitch": 66, "duration": 355, "velocity": 119}, {"time": 161039, "pitch": 44, "duration": 428, "velocity": 93}, {"time": 161039, "pitch": 56, "duration": 418, "velocity": 85}, {"time": 161276, "pitch": 60, "duration": 322, "velocity": 116}, {"time": 161276, "pitch": 63, "duration": 302, "velocity": 110}, {"time": 161276, "pitch": 66, "duration": 322, "velocity": 110}, {"time": 161517, "pitch": 44, "duration": 231, "velocity": 87}, {"time": 161517, "pitch": 56, "duration": 221, "velocity": 72}, {"time": 161758, "pitch": 39, "duration": 121, "velocity": 102}, {"time": 161758, "pitch": 51, "duration": 131, "velocity": 105}, {"time": 161758, "pitch": 63, "duration": 101, "velocity": 113}, {"time": 161758, "pitch": 67, "duration": 91, "velocity": 107}, {"time": 161758, "pitch": 70, "duration": 101, "velocity": 107}, {"time": 162000, "pitch": 39, "duration": 120, "velocity": 105}, {"time": 162000, "pitch": 51, "duration": 150, "velocity": 105}, {"time": 162000, "pitch": 63, "duration": 130, "velocity": 119}, {"time": 162000, "pitch": 67, "duration": 130, "velocity": 107}, {"time": 162000, "pitch": 70, "duration": 120, "velocity": 116}, {"time": 162723, "pitch": 37, "duration": 88, "velocity": 100}, {"time": 162723, "pitch": 49, "duration": 118, "velocity": 102}, {"time": 162723, "pitch": 61, "duration": 69, "velocity": 113}, {"time": 162723, "pitch": 65, "duration": 59, "velocity": 116}, {"time": 162723, "pitch": 68, "duration": 79, "velocity": 107}, {"time": 162960, "pitch": 37, "duration": 138, "velocity": 105}, {"time": 162960, "pitch": 49, "duration": 148, "velocity": 102}, {"time": 162960, "pitch": 61, "duration": 128, "velocity": 116}, {"time": 162960, "pitch": 65, "duration": 118, "velocity": 116}, {"time": 162960, "pitch": 68, "duration": 118, "velocity": 110}, {"time": 163438, "pitch": 44, "duration": 401, "velocity": 93}, {"time": 163438, "pitch": 56, "duration": 401, "velocity": 100}, {"time": 163438, "pitch": 63, "duration": 552, "velocity": 113}, {"time": 163438, "pitch": 68, "duration": 572, "velocity": 116}, {"time": 163438, "pitch": 72, "duration": 562, "velocity": 107}, {"time": 163920, "pitch": 44, "duration": 371, "velocity": 102}, {"time": 163920, "pitch": 56, "duration": 371, "velocity": 85}, {"time": 164161, "pitch": 63, "duration": 321, "velocity": 119}, {"time": 164161, "pitch": 68, "duration": 331, "velocity": 116}, {"time": 164161, "pitch": 72, "duration": 311, "velocity": 113}, {"time": 164402, "pitch": 44, "duration": 557, "velocity": 98}, {"time": 164402, "pitch": 56, "duration": 557, "velocity": 89}, {"time": 164643, "pitch": 63, "duration": 59, "velocity": 113}, {"time": 164643, "pitch": 68, "duration": 59, "velocity": 116}, {"time": 164643, "pitch": 73, "duration": 79, "velocity": 107}, {"time": 164880, "pitch": 63, "duration": 257, "velocity": 116}, {"time": 164880, "pitch": 68, "duration": 267, "velocity": 119}, {"time": 164880, "pitch": 73, "duration": 247, "velocity": 113}, {"time": 165117, "pitch": 44, "duration": 452, "velocity": 105}, {"time": 165117, "pitch": 56, "duration": 462, "velocity": 102}, {"time": 165237, "pitch": 63, "duration": 311, "velocity": 119}, {"time": 165237, "pitch": 68, "duration": 321, "velocity": 107}, {"time": 165237, "pitch": 72, "duration": 321, "velocity": 116}, {"time": 165599, "pitch": 39, "duration": 120, "velocity": 102}, {"time": 165599, "pitch": 51, "duration": 130, "velocity": 105}, {"time": 165599, "pitch": 63, "duration": 100, "velocity": 113}, {"time": 165599, "pitch": 67, "duration": 90, "velocity": 107}, {"time": 165599, "pitch": 70, "duration": 100, "velocity": 107}, {"time": 165840, "pitch": 39, "duration": 120, "velocity": 105}, {"time": 165840, "pitch": 51, "duration": 150, "velocity": 105}, {"time": 165840, "pitch": 63, "duration": 130, "velocity": 119}, {"time": 165840, "pitch": 67, "duration": 130, "velocity": 107}, {"time": 165840, "pitch": 70, "duration": 120, "velocity": 116}, {"time": 166563, "pitch": 37, "duration": 89, "velocity": 100}, {"time": 166563, "pitch": 49, "duration": 118, "velocity": 102}, {"time": 166563, "pitch": 61, "duration": 69, "velocity": 113}, {"time": 166563, "pitch": 65, "duration": 59, "velocity": 116}, {"time": 166563, "pitch": 68, "duration": 79, "velocity": 107}, {"time": 166800, "pitch": 37, "duration": 138, "velocity": 105}, {"time": 166800, "pitch": 49, "duration": 148, "velocity": 102}, {"time": 166800, "pitch": 61, "duration": 128, "velocity": 116}, {"time": 166800, "pitch": 65, "duration": 118, "velocity": 116}, {"time": 166800, "pitch": 68, "duration": 118, "velocity": 110}, {"time": 167278, "pitch": 44, "duration": 401, "velocity": 93}, {"time": 167278, "pitch": 56, "duration": 401, "velocity": 100}, {"time": 167278, "pitch": 63, "duration": 552, "velocity": 113}, {"time": 167278, "pitch": 68, "duration": 572, "velocity": 116}, {"time": 167278, "pitch": 72, "duration": 562, "velocity": 107}, {"time": 167760, "pitch": 44, "duration": 371, "velocity": 102}, {"time": 167760, "pitch": 56, "duration": 371, "velocity": 85}, {"time": 168001, "pitch": 63, "duration": 321, "velocity": 119}, {"time": 168001, "pitch": 68, "duration": 331, "velocity": 116}, {"time": 168001, "pitch": 72, "duration": 311, "velocity": 113}, {"time": 168242, "pitch": 44, "duration": 557, "velocity": 98}, {"time": 168242, "pitch": 56, "duration": 557, "velocity": 89}, {"time": 168483, "pitch": 63, "duration": 59, "velocity": 113}, {"time": 168483, "pitch": 68, "duration": 59, "velocity": 116}, {"time": 168483, "pitch": 73, "duration": 79, "velocity": 107}, {"time": 168720, "pitch": 63, "duration": 257, "velocity": 116}, {"time": 168720, "pitch": 68, "duration": 267, "velocity": 119}, {"time": 168720, "pitch": 73, "duration": 247, "velocity": 113}, {"time": 168957, "pitch": 44, "duration": 452, "velocity": 105}, {"time": 168957, "pitch": 56, "duration": 462, "velocity": 102}, {"time": 169077, "pitch": 63, "duration": 312, "velocity": 119}, {"time": 169077, "pitch": 68, "duration": 322, "velocity": 107}, {"time": 169077, "pitch": 72, "duration": 322, "velocity": 116}, {"time": 169439, "pitch": 39, "duration": 120, "velocity": 102}, {"time": 169439, "pitch": 51, "duration": 130, "velocity": 105}, {"time": 169439, "pitch": 63, "duration": 100, "velocity": 113}, {"time": 169439, "pitch": 67, "duration": 90, "velocity": 107}, {"time": 169439, "pitch": 70, "duration": 100, "velocity": 107}, {"time": 169680, "pitch": 39, "duration": 120, "velocity": 105}, {"time": 169680, "pitch": 51, "duration": 150, "velocity": 105}, {"time": 169680, "pitch": 63, "duration": 130, "velocity": 119}, {"time": 169680, "pitch": 67, "duration": 130, "velocity": 107}, {"time": 169680, "pitch": 70, "duration": 120, "velocity": 116}, {"time": 170403, "pitch": 37, "duration": 89, "velocity": 100}, {"time": 170403, "pitch": 49, "duration": 118, "velocity": 102}, {"time": 170403, "pitch": 61, "duration": 69, "velocity": 113}, {"time": 170403, "pitch": 65, "duration": 59, "velocity": 116}, {"time": 170403, "pitch": 68, "duration": 79, "velocity": 107}, {"time": 170640, "pitch": 37, "duration": 138, "velocity": 105}, {"time": 170640, "pitch": 49, "duration": 148, "velocity": 102}, {"time": 170640, "pitch": 61, "duration": 128, "velocity": 116}, {"time": 170640, "pitch": 65, "duration": 118, "velocity": 116}, {"time": 170640, "pitch": 68, "duration": 118, "velocity": 110}, {"time": 171118, "pitch": 44, "duration": 402, "velocity": 93}, {"time": 171118, "pitch": 56, "duration": 402, "velocity": 100}, {"time": 171118, "pitch": 63, "duration": 552, "velocity": 113}, {"time": 171118, "pitch": 68, "duration": 572, "velocity": 116}, {"time": 171118, "pitch": 72, "duration": 562, "velocity": 107}, {"time": 171600, "pitch": 44, "duration": 372, "velocity": 102}, {"time": 171600, "pitch": 56, "duration": 372, "velocity": 85}, {"time": 171841, "pitch": 63, "duration": 321, "velocity": 119}, {"time": 171841, "pitch": 68, "duration": 331, "velocity": 116}, {"time": 171841, "pitch": 72, "duration": 311, "velocity": 113}, {"time": 172082, "pitch": 44, "duration": 557, "velocity": 98}, {"time": 172082, "pitch": 56, "duration": 557, "velocity": 89}, {"time": 172323, "pitch": 63, "duration": 59, "velocity": 113}, {"time": 172323, "pitch": 68, "duration": 59, "velocity": 116}, {"time": 172323, "pitch": 73, "duration": 79, "velocity": 107}, {"time": 172560, "pitch": 63, "duration": 257, "velocity": 116}, {"time": 172560, "pitch": 68, "duration": 267, "velocity": 119}, {"time": 172560, "pitch": 73, "duration": 247, "velocity": 113}, {"time": 172797, "pitch": 44, "duration": 452, "velocity": 105}, {"time": 172797, "pitch": 56, "duration": 462, "velocity": 102}, {"time": 172917, "pitch": 63, "duration": 312, "velocity": 119}, {"time": 172917, "pitch": 68, "duration": 322, "velocity": 107}, {"time": 172917, "pitch": 72, "duration": 322, "velocity": 116}, {"time": 173279, "pitch": 39, "duration": 120, "velocity": 102}, {"time": 173279, "pitch": 51, "duration": 131, "velocity": 105}, {"time": 173279, "pitch": 63, "duration": 100, "velocity": 113}, {"time": 173279, "pitch": 67, "duration": 90, "velocity": 107}, {"time": 173279, "pitch": 70, "duration": 100, "velocity": 107}, {"time": 173520, "pitch": 39, "duration": 121, "velocity": 105}, {"time": 173520, "pitch": 51, "duration": 151, "velocity": 105}, {"time": 173520, "pitch": 63, "duration": 131, "velocity": 119}, {"time": 173520, "pitch": 67, "duration": 131, "velocity": 107}, {"time": 173520, "pitch": 70, "duration": 121, "velocity": 116}, {"time": 174243, "pitch": 37, "duration": 89, "velocity": 100}, {"time": 174243, "pitch": 49, "duration": 119, "velocity": 102}, {"time": 174243, "pitch": 61, "duration": 69, "velocity": 113}, {"time": 174243, "pitch": 65, "duration": 59, "velocity": 116}, {"time": 174243, "pitch": 68, "duration": 79, "velocity": 107}, {"time": 174480, "pitch": 37, "duration": 138, "velocity": 105}, {"time": 174480, "pitch": 49, "duration": 148, "velocity": 102}, {"time": 174480, "pitch": 61, "duration": 128, "velocity": 116}, {"time": 174480, "pitch": 65, "duration": 119, "velocity": 116}, {"time": 174480, "pitch": 68, "duration": 119, "velocity": 110}, {"time": 174958, "pitch": 44, "duration": 2151, "velocity": 93}, {"time": 174958, "pitch": 56, "duration": 2141, "velocity": 100}, {"time": 174958, "pitch": 63, "duration": 2141, "velocity": 113}, {"time": 174958, "pitch": 68, "duration": 2151, "velocity": 116}, {"time": 174958, "pitch": 72, "duration": 2141, "velocity": 107}, {"time": 2400, "pitch": 39, "duration": 161, "velocity": 110}, {"time": 2641, "pitch": 39, "duration": 231, "velocity": 105}, {"time": 3356, "pitch": 37, "duration": 161, "velocity": 110}, {"time": 3597, "pitch": 37, "duration": 201, "velocity": 105}, {"time": 4079, "pitch": 32, "duration": 412, "velocity": 110}, {"time": 4561, "pitch": 32, "duration": 211, "velocity": 105}, {"time": 4802, "pitch": 32, "duration": 208, "velocity": 110}, {"time": 5039, "pitch": 32, "duration": 208, "velocity": 105}, {"time": 5276, "pitch": 32, "duration": 211, "velocity": 110}, {"time": 5517, "pitch": 32, "duration": 211, "velocity": 105}, {"time": 5758, "pitch": 32, "duration": 241, "velocity": 110}, {"time": 5999, "pitch": 34, "duration": 221, "velocity": 105}, {"time": 6240, "pitch": 39, "duration": 161, "velocity": 110}, {"time": 6481, "pitch": 39, "duration": 231, "velocity": 105}, {"time": 7196, "pitch": 37, "duration": 161, "velocity": 110}, {"time": 7437, "pitch": 37, "duration": 201, "velocity": 105}, {"time": 7919, "pitch": 32, "duration": 412, "velocity": 110}, {"time": 8401, "pitch": 32, "duration": 211, "velocity": 105}, {"time": 8642, "pitch": 34, "duration": 208, "velocity": 110}, {"time": 8879, "pitch": 32, "duration": 208, "velocity": 105}, {"time": 9116, "pitch": 36, "duration": 211, "velocity": 110}, {"time": 9357, "pitch": 32, "duration": 211, "velocity": 105}, {"time": 9598, "pitch": 39, "duration": 241, "velocity": 110}, {"time": 9839, "pitch": 34, "duration": 221, "velocity": 105}, {"time": 10080, "pitch": 39, "duration": 161, "velocity": 110}, {"time": 10322, "pitch": 39, "duration": 231, "velocity": 105}, {"time": 11036, "pitch": 37, "duration": 161, "velocity": 110}, {"time": 11277, "pitch": 37, "duration": 201, "velocity": 105}, {"time": 11760, "pitch": 32, "duration": 411, "velocity": 110}, {"time": 12242, "pitch": 32, "duration": 211, "velocity": 105}, {"time": 12483, "pitch": 32, "duration": 207, "velocity": 110}, {"time": 12720, "pitch": 32, "duration": 207, "velocity": 105}, {"time": 12957, "pitch": 32, "duration": 210, "velocity": 110}, {"time": 13198, "pitch": 32, "duration": 210, "velocity": 105}, {"time": 13439, "pitch": 32, "duration": 241, "velocity": 110}, {"time": 13680, "pitch": 34, "duration": 221, "velocity": 105}, {"time": 13921, "pitch": 39, "duration": 160, "velocity": 110}, {"time": 14162, "pitch": 39, "duration": 231, "velocity": 105}, {"time": 14877, "pitch": 37, "duration": 160, "velocity": 110}, {"time": 15118, "pitch": 37, "duration": 200, "velocity": 105}, {"time": 15600, "pitch": 32, "duration": 1669, "velocity": 110}, {"time": 17279, "pitch": 32, "duration": 110, "velocity": 105}, {"time": 17399, "pitch": 30, "duration": 342, "velocity": 100}, {"time": 17761, "pitch": 39, "duration": 201, "velocity": 110}, {"time": 18002, "pitch": 39, "duration": 201, "velocity": 105}, {"time": 18243, "pitch": 39, "duration": 197, "velocity": 110}, {"time": 18480, "pitch": 39, "duration": 207, "velocity": 105}, {"time": 18717, "pitch": 37, "duration": 221, "velocity": 110}, {"time": 18958, "pitch": 37, "duration": 211, "velocity": 105}, {"time": 19199, "pitch": 37, "duration": 201, "velocity": 110}, {"time": 19440, "pitch": 37, "duration": 221, "velocity": 105}, {"time": 19681, "pitch": 36, "duration": 201, "velocity": 110}, {"time": 19922, "pitch": 36, "duration": 221, "velocity": 105}, {"time": 20163, "pitch": 36, "duration": 237, "velocity": 110}, {"time": 20400, "pitch": 36, "duration": 207, "velocity": 105}, {"time": 20637, "pitch": 35, "duration": 221, "velocity": 110}, {"time": 20878, "pitch": 35, "duration": 191, "velocity": 105}, {"time": 21119, "pitch": 35, "duration": 201, "velocity": 110}, {"time": 21360, "pitch": 35, "duration": 211, "velocity": 105}, {"time": 21601, "pitch": 31, "duration": 201, "velocity": 110}, {"time": 21842, "pitch": 31, "duration": 201, "velocity": 105}, {"time": 22083, "pitch": 31, "duration": 197, "velocity": 110}, {"time": 22320, "pitch": 31, "duration": 207, "velocity": 105}, {"time": 22557, "pitch": 36, "duration": 221, "velocity": 110}, {"time": 22798, "pitch": 36, "duration": 211, "velocity": 105}, {"time": 23039, "pitch": 36, "duration": 201, "velocity": 110}, {"time": 23280, "pitch": 36, "duration": 221, "velocity": 105}, {"time": 23521, "pitch": 29, "duration": 201, "velocity": 110}, {"time": 23762, "pitch": 29, "duration": 221, "velocity": 105}, {"time": 24003, "pitch": 29, "duration": 237, "velocity": 110}, {"time": 24240, "pitch": 29, "duration": 207, "velocity": 105}, {"time": 24477, "pitch": 34, "duration": 221, "velocity": 110}, {"time": 24718, "pitch": 34, "duration": 191, "velocity": 105}, {"time": 25200, "pitch": 34, "duration": 10, "velocity": 105}, {"time": 25441, "pitch": 39, "duration": 201, "velocity": 110}, {"time": 25682, "pitch": 39, "duration": 201, "velocity": 105}, {"time": 25923, "pitch": 39, "duration": 198, "velocity": 110}, {"time": 26160, "pitch": 39, "duration": 207, "velocity": 105}, {"time": 26397, "pitch": 37, "duration": 221, "velocity": 110}, {"time": 26638, "pitch": 37, "duration": 211, "velocity": 105}, {"time": 26879, "pitch": 37, "duration": 201, "velocity": 110}, {"time": 27120, "pitch": 37, "duration": 221, "velocity": 105}, {"time": 27361, "pitch": 36, "duration": 201, "velocity": 110}, {"time": 27602, "pitch": 36, "duration": 221, "velocity": 105}, {"time": 27843, "pitch": 36, "duration": 237, "velocity": 110}, {"time": 28080, "pitch": 36, "duration": 208, "velocity": 105}, {"time": 28317, "pitch": 35, "duration": 221, "velocity": 110}, {"time": 28558, "pitch": 35, "duration": 191, "velocity": 105}, {"time": 28799, "pitch": 35, "duration": 201, "velocity": 110}, {"time": 29040, "pitch": 35, "duration": 211, "velocity": 105}, {"time": 29281, "pitch": 31, "duration": 201, "velocity": 110}, {"time": 29522, "pitch": 31, "duration": 201, "velocity": 105}, {"time": 29763, "pitch": 31, "duration": 198, "velocity": 110}, {"time": 30000, "pitch": 31, "duration": 208, "velocity": 105}, {"time": 30237, "pitch": 36, "duration": 221, "velocity": 110}, {"time": 30478, "pitch": 36, "duration": 211, "velocity": 105}, {"time": 30719, "pitch": 36, "duration": 201, "velocity": 110}, {"time": 30960, "pitch": 36, "duration": 221, "velocity": 105}, {"time": 31201, "pitch": 34, "duration": 201, "velocity": 110}, {"time": 31442, "pitch": 34, "duration": 221, "velocity": 105}, {"time": 31683, "pitch": 34, "duration": 237, "velocity": 110}, {"time": 31920, "pitch": 34, "duration": 208, "velocity": 105}, {"time": 32157, "pitch": 27, "duration": 221, "velocity": 110}, {"time": 32398, "pitch": 27, "duration": 191, "velocity": 105}, {"time": 32880, "pitch": 27, "duration": 10, "velocity": 105}, {"time": 33121, "pitch": 27, "duration": 201, "velocity": 110}, {"time": 33362, "pitch": 27, "duration": 201, "velocity": 105}, {"time": 33603, "pitch": 27, "duration": 198, "velocity": 110}, {"time": 33840, "pitch": 27, "duration": 208, "velocity": 105}, {"time": 34077, "pitch": 27, "duration": 221, "velocity": 110}, {"time": 34318, "pitch": 27, "duration": 211, "velocity": 105}, {"time": 34559, "pitch": 32, "duration": 201, "velocity": 110}, {"time": 34800, "pitch": 33, "duration": 221, "velocity": 105}, {"time": 35042, "pitch": 34, "duration": 160, "velocity": 110}, {"time": 35283, "pitch": 34, "duration": 160, "velocity": 90}, {"time": 35524, "pitch": 34, "duration": 148, "velocity": 105}, {"time": 35760, "pitch": 34, "duration": 109, "velocity": 110}, {"time": 35997, "pitch": 34, "duration": 121, "velocity": 105}, {"time": 36238, "pitch": 34, "duration": 121, "velocity": 110}, {"time": 36480, "pitch": 34, "duration": 90, "velocity": 105}, {"time": 36721, "pitch": 34, "duration": 110, "velocity": 105}, {"time": 36841, "pitch": 35, "duration": 111, "velocity": 95}, {"time": 36962, "pitch": 36, "duration": 160, "velocity": 110}, {"time": 37203, "pitch": 36, "duration": 160, "velocity": 105}, {"time": 37444, "pitch": 36, "duration": 148, "velocity": 110}, {"time": 37681, "pitch": 36, "duration": 108, "velocity": 105}, {"time": 37918, "pitch": 36, "duration": 120, "velocity": 110}, {"time": 38159, "pitch": 36, "duration": 120, "velocity": 105}, {"time": 38400, "pitch": 36, "duration": 90, "velocity": 110}, {"time": 38641, "pitch": 36, "duration": 110, "velocity": 105}, {"time": 38882, "pitch": 34, "duration": 160, "velocity": 110}, {"time": 39123, "pitch": 34, "duration": 160, "velocity": 105}, {"time": 39364, "pitch": 34, "duration": 148, "velocity": 110}, {"time": 39601, "pitch": 34, "duration": 108, "velocity": 105}, {"time": 39838, "pitch": 34, "duration": 120, "velocity": 110}, {"time": 40079, "pitch": 34, "duration": 120, "velocity": 105}, {"time": 40320, "pitch": 34, "duration": 90, "velocity": 110}, {"time": 40561, "pitch": 34, "duration": 110, "velocity": 105}, {"time": 40681, "pitch": 33, "duration": 111, "velocity": 100}, {"time": 40802, "pitch": 32, "duration": 160, "velocity": 110}, {"time": 41043, "pitch": 32, "duration": 160, "velocity": 105}, {"time": 41284, "pitch": 32, "duration": 148, "velocity": 110}, {"time": 41521, "pitch": 32, "duration": 108, "velocity": 105}, {"time": 41639, "pitch": 34, "duration": 289, "velocity": 110}, {"time": 41999, "pitch": 34, "duration": 120, "velocity": 105}, {"time": 42240, "pitch": 34, "duration": 90, "velocity": 110}, {"time": 42360, "pitch": 31, "duration": 281, "velocity": 105}, {"time": 42722, "pitch": 32, "duration": 161, "velocity": 110}, {"time": 42963, "pitch": 32, "duration": 231, "velocity": 105}, {"time": 43678, "pitch": 32, "duration": 160, "velocity": 110}, {"time": 43919, "pitch": 32, "duration": 201, "velocity": 105}, {"time": 44401, "pitch": 31, "duration": 412, "velocity": 110}, {"time": 44883, "pitch": 31, "duration": 211, "velocity": 105}, {"time": 45124, "pitch": 31, "duration": 207, "velocity": 110}, {"time": 45361, "pitch": 36, "duration": 207, "velocity": 105}, {"time": 45598, "pitch": 36, "duration": 211, "velocity": 110}, {"time": 45839, "pitch": 36, "duration": 211, "velocity": 105}, {"time": 46321, "pitch": 34, "duration": 10, "velocity": 105}, {"time": 46562, "pitch": 29, "duration": 161, "velocity": 110}, {"time": 46803, "pitch": 29, "duration": 231, "velocity": 105}, {"time": 47518, "pitch": 31, "duration": 161, "velocity": 110}, {"time": 47759, "pitch": 31, "duration": 201, "velocity": 105}, {"time": 48241, "pitch": 32, "duration": 409, "velocity": 110}, {"time": 48719, "pitch": 32, "duration": 207, "velocity": 105}, {"time": 48956, "pitch": 32, "duration": 211, "velocity": 110}, {"time": 49197, "pitch": 32, "duration": 211, "velocity": 105}, {"time": 49438, "pitch": 34, "duration": 211, "velocity": 110}, {"time": 49679, "pitch": 34, "duration": 211, "velocity": 105}, {"time": 49920, "pitch": 36, "duration": 241, "velocity": 110}, {"time": 50161, "pitch": 34, "duration": 221, "velocity": 105}, {"time": 50402, "pitch": 32, "duration": 158, "velocity": 110}, {"time": 50639, "pitch": 32, "duration": 227, "velocity": 105}, {"time": 51358, "pitch": 32, "duration": 161, "velocity": 110}, {"time": 51599, "pitch": 32, "duration": 201, "velocity": 105}, {"time": 52081, "pitch": 31, "duration": 409, "velocity": 110}, {"time": 52559, "pitch": 31, "duration": 207, "velocity": 105}, {"time": 52796, "pitch": 31, "duration": 211, "velocity": 110}, {"time": 53037, "pitch": 36, "duration": 211, "velocity": 105}, {"time": 53278, "pitch": 36, "duration": 211, "velocity": 110}, {"time": 53519, "pitch": 36, "duration": 211, "velocity": 105}, {"time": 54001, "pitch": 34, "duration": 10, "velocity": 105}, {"time": 54242, "pitch": 29, "duration": 158, "velocity": 110}, {"time": 54479, "pitch": 29, "duration": 227, "velocity": 105}, {"time": 54716, "pitch": 29, "duration": 231, "velocity": 110}, {"time": 54957, "pitch": 29, "duration": 231, "velocity": 105}, {"time": 55198, "pitch": 31, "duration": 161, "velocity": 110}, {"time": 55439, "pitch": 31, "duration": 201, "velocity": 105}, {"time": 55680, "pitch": 31, "duration": 201, "velocity": 110}, {"time": 55921, "pitch": 31, "duration": 171, "velocity": 105}, {"time": 56162, "pitch": 32, "duration": 208, "velocity": 110}, {"time": 56399, "pitch": 32, "duration": 208, "velocity": 105}, {"time": 56636, "pitch": 32, "duration": 211, "velocity": 110}, {"time": 56877, "pitch": 32, "duration": 211, "velocity": 105}, {"time": 57118, "pitch": 32, "duration": 211, "velocity": 110}, {"time": 57359, "pitch": 32, "duration": 211, "velocity": 105}, {"time": 57600, "pitch": 32, "duration": 241, "velocity": 110}, {"time": 57841, "pitch": 34, "duration": 221, "velocity": 105}, {"time": 58082, "pitch": 39, "duration": 158, "velocity": 110}, {"time": 58319, "pitch": 39, "duration": 227, "velocity": 105}, {"time": 59038, "pitch": 37, "duration": 161, "velocity": 110}, {"time": 59279, "pitch": 37, "duration": 201, "velocity": 105}, {"time": 59761, "pitch": 32, "duration": 409, "velocity": 110}, {"time": 60239, "pitch": 32, "duration": 208, "velocity": 105}, {"time": 60476, "pitch": 32, "duration": 211, "velocity": 110}, {"time": 60717, "pitch": 32, "duration": 211, "velocity": 105}, {"time": 60958, "pitch": 32, "duration": 211, "velocity": 110}, {"time": 61199, "pitch": 32, "duration": 211, "velocity": 105}, {"time": 61441, "pitch": 32, "duration": 241, "velocity": 110}, {"time": 61682, "pitch": 34, "duration": 221, "velocity": 105}, {"time": 61923, "pitch": 39, "duration": 158, "velocity": 110}, {"time": 62160, "pitch": 39, "duration": 227, "velocity": 105}, {"time": 62879, "pitch": 37, "duration": 160, "velocity": 110}, {"time": 63120, "pitch": 37, "duration": 200, "velocity": 105}, {"time": 63602, "pitch": 32, "duration": 1669, "velocity": 110}, {"time": 65281, "pitch": 32, "duration": 110, "velocity": 105}, {"time": 65401, "pitch": 30, "duration": 342, "velocity": 100}, {"time": 65763, "pitch": 39, "duration": 197, "velocity": 110}, {"time": 66000, "pitch": 39, "duration": 197, "velocity": 105}, {"time": 66237, "pitch": 39, "duration": 200, "velocity": 110}, {"time": 66478, "pitch": 39, "duration": 211, "velocity": 105}, {"time": 66719, "pitch": 37, "duration": 221, "velocity": 110}, {"time": 66960, "pitch": 37, "duration": 211, "velocity": 105}, {"time": 67201, "pitch": 37, "duration": 201, "velocity": 110}, {"time": 67442, "pitch": 37, "duration": 221, "velocity": 105}, {"time": 67683, "pitch": 36, "duration": 197, "velocity": 110}, {"time": 67920, "pitch": 36, "duration": 217, "velocity": 105}, {"time": 68157, "pitch": 36, "duration": 241, "velocity": 110}, {"time": 68398, "pitch": 36, "duration": 211, "velocity": 105}, {"time": 68639, "pitch": 35, "duration": 221, "velocity": 110}, {"time": 68880, "pitch": 35, "duration": 191, "velocity": 105}, {"time": 69121, "pitch": 35, "duration": 201, "velocity": 110}, {"time": 69362, "pitch": 35, "duration": 211, "velocity": 105}, {"time": 69603, "pitch": 31, "duration": 197, "velocity": 110}, {"time": 69840, "pitch": 31, "duration": 197, "velocity": 105}, {"time": 70077, "pitch": 31, "duration": 201, "velocity": 110}, {"time": 70318, "pitch": 31, "duration": 211, "velocity": 105}, {"time": 70559, "pitch": 36, "duration": 221, "velocity": 110}, {"time": 70800, "pitch": 36, "duration": 211, "velocity": 105}, {"time": 71041, "pitch": 36, "duration": 201, "velocity": 110}, {"time": 71282, "pitch": 36, "duration": 221, "velocity": 105}, {"time": 71523, "pitch": 29, "duration": 197, "velocity": 110}, {"time": 71760, "pitch": 29, "duration": 217, "velocity": 105}, {"time": 71997, "pitch": 29, "duration": 241, "velocity": 110}, {"time": 72238, "pitch": 29, "duration": 211, "velocity": 105}, {"time": 72479, "pitch": 34, "duration": 221, "velocity": 110}, {"time": 72720, "pitch": 34, "duration": 191, "velocity": 105}, {"time": 73202, "pitch": 34, "duration": 10, "velocity": 105}, {"time": 73443, "pitch": 39, "duration": 198, "velocity": 110}, {"time": 73680, "pitch": 39, "duration": 197, "velocity": 105}, {"time": 73917, "pitch": 39, "duration": 201, "velocity": 110}, {"time": 74158, "pitch": 39, "duration": 211, "velocity": 105}, {"time": 74399, "pitch": 37, "duration": 221, "velocity": 110}, {"time": 74640, "pitch": 37, "duration": 211, "velocity": 105}, {"time": 74881, "pitch": 37, "duration": 201, "velocity": 110}, {"time": 75122, "pitch": 37, "duration": 221, "velocity": 105}, {"time": 75363, "pitch": 36, "duration": 198, "velocity": 110}, {"time": 75600, "pitch": 36, "duration": 217, "velocity": 105}, {"time": 75837, "pitch": 36, "duration": 241, "velocity": 110}, {"time": 76078, "pitch": 36, "duration": 211, "velocity": 105}, {"time": 76319, "pitch": 35, "duration": 221, "velocity": 110}, {"time": 76560, "pitch": 35, "duration": 191, "velocity": 105}, {"time": 76801, "pitch": 35, "duration": 201, "velocity": 110}, {"time": 77042, "pitch": 35, "duration": 211, "velocity": 105}, {"time": 77283, "pitch": 31, "duration": 198, "velocity": 110}, {"time": 77520, "pitch": 31, "duration": 198, "velocity": 105}, {"time": 77757, "pitch": 31, "duration": 201, "velocity": 110}, {"time": 77998, "pitch": 31, "duration": 211, "velocity": 105}, {"time": 78239, "pitch": 36, "duration": 221, "velocity": 110}, {"time": 78480, "pitch": 36, "duration": 211, "velocity": 105}, {"time": 78721, "pitch": 36, "duration": 201, "velocity": 110}, {"time": 78962, "pitch": 36, "duration": 221, "velocity": 105}, {"time": 79203, "pitch": 34, "duration": 198, "velocity": 110}, {"time": 79440, "pitch": 34, "duration": 217, "velocity": 105}, {"time": 79677, "pitch": 34, "duration": 241, "velocity": 110}, {"time": 79918, "pitch": 34, "duration": 211, "velocity": 105}, {"time": 80159, "pitch": 27, "duration": 221, "velocity": 110}, {"time": 80400, "pitch": 27, "duration": 191, "velocity": 105}, {"time": 80882, "pitch": 27, "duration": 10, "velocity": 105}, {"time": 81123, "pitch": 27, "duration": 198, "velocity": 110}, {"time": 81360, "pitch": 27, "duration": 198, "velocity": 105}, {"time": 81597, "pitch": 27, "duration": 201, "velocity": 110}, {"time": 81838, "pitch": 27, "duration": 211, "velocity": 105}, {"time": 82079, "pitch": 27, "duration": 221, "velocity": 110}, {"time": 82320, "pitch": 27, "duration": 211, "velocity": 105}, {"time": 82561, "pitch": 32, "duration": 201, "velocity": 110}, {"time": 82802, "pitch": 33, "duration": 221, "velocity": 105}, {"time": 83043, "pitch": 34, "duration": 158, "velocity": 110}, {"time": 83280, "pitch": 34, "duration": 158, "velocity": 90}, {"time": 83517, "pitch": 34, "duration": 151, "velocity": 105}, {"time": 83758, "pitch": 34, "duration": 111, "velocity": 110}, {"time": 83999, "pitch": 34, "duration": 121, "velocity": 105}, {"time": 84240, "pitch": 34, "duration": 121, "velocity": 110}, {"time": 84481, "pitch": 34, "duration": 91, "velocity": 105}, {"time": 84723, "pitch": 34, "duration": 110, "velocity": 105}, {"time": 84843, "pitch": 35, "duration": 111, "velocity": 95}, {"time": 84964, "pitch": 36, "duration": 157, "velocity": 110}, {"time": 85200, "pitch": 36, "duration": 158, "velocity": 105}, {"time": 85437, "pitch": 36, "duration": 151, "velocity": 110}, {"time": 85678, "pitch": 36, "duration": 111, "velocity": 105}, {"time": 85919, "pitch": 36, "duration": 121, "velocity": 110}, {"time": 86161, "pitch": 36, "duration": 120, "velocity": 105}, {"time": 86402, "pitch": 36, "duration": 90, "velocity": 110}, {"time": 86643, "pitch": 36, "duration": 110, "velocity": 105}, {"time": 86884, "pitch": 34, "duration": 158, "velocity": 110}, {"time": 87121, "pitch": 34, "duration": 158, "velocity": 105}, {"time": 87358, "pitch": 34, "duration": 150, "velocity": 110}, {"time": 87599, "pitch": 34, "duration": 110, "velocity": 105}, {"time": 87840, "pitch": 34, "duration": 120, "velocity": 110}, {"time": 88081, "pitch": 34, "duration": 120, "velocity": 105}, {"time": 88322, "pitch": 34, "duration": 90, "velocity": 110}, {"time": 88563, "pitch": 34, "duration": 110, "velocity": 105}, {"time": 88683, "pitch": 33, "duration": 111, "velocity": 100}, {"time": 88804, "pitch": 32, "duration": 158, "velocity": 110}, {"time": 89041, "pitch": 32, "duration": 158, "velocity": 105}, {"time": 89278, "pitch": 32, "duration": 150, "velocity": 110}, {"time": 89519, "pitch": 32, "duration": 110, "velocity": 105}, {"time": 89639, "pitch": 34, "duration": 291, "velocity": 110}, {"time": 90001, "pitch": 34, "duration": 120, "velocity": 105}, {"time": 90242, "pitch": 34, "duration": 90, "velocity": 110}, {"time": 90362, "pitch": 31, "duration": 281, "velocity": 105}, {"time": 90724, "pitch": 32, "duration": 158, "velocity": 110}, {"time": 90961, "pitch": 32, "duration": 227, "velocity": 105}, {"time": 91680, "pitch": 32, "duration": 160, "velocity": 110}, {"time": 91921, "pitch": 32, "duration": 201, "velocity": 105}, {"time": 92403, "pitch": 31, "duration": 409, "velocity": 110}, {"time": 92881, "pitch": 31, "duration": 207, "velocity": 105}, {"time": 93118, "pitch": 31, "duration": 211, "velocity": 110}, {"time": 93359, "pitch": 36, "duration": 211, "velocity": 105}, {"time": 93600, "pitch": 36, "duration": 211, "velocity": 110}, {"time": 93841, "pitch": 36, "duration": 211, "velocity": 105}, {"time": 94323, "pitch": 34, "duration": 10, "velocity": 105}, {"time": 94564, "pitch": 29, "duration": 158, "velocity": 110}, {"time": 94801, "pitch": 29, "duration": 227, "velocity": 105}, {"time": 95520, "pitch": 31, "duration": 161, "velocity": 110}, {"time": 95761, "pitch": 31, "duration": 201, "velocity": 105}, {"time": 96243, "pitch": 32, "duration": 409, "velocity": 110}, {"time": 96721, "pitch": 32, "duration": 207, "velocity": 105}, {"time": 96958, "pitch": 32, "duration": 211, "velocity": 110}, {"time": 97199, "pitch": 32, "duration": 211, "velocity": 105}, {"time": 97440, "pitch": 34, "duration": 211, "velocity": 110}, {"time": 97681, "pitch": 34, "duration": 211, "velocity": 105}, {"time": 97922, "pitch": 36, "duration": 241, "velocity": 110}, {"time": 98163, "pitch": 34, "duration": 221, "velocity": 105}, {"time": 98404, "pitch": 32, "duration": 158, "velocity": 110}, {"time": 98641, "pitch": 32, "duration": 227, "velocity": 105}, {"time": 99360, "pitch": 32, "duration": 161, "velocity": 110}, {"time": 99601, "pitch": 32, "duration": 201, "velocity": 105}, {"time": 100079, "pitch": 31, "duration": 408, "velocity": 110}, {"time": 100557, "pitch": 31, "duration": 211, "velocity": 105}, {"time": 100798, "pitch": 31, "duration": 211, "velocity": 110}, {"time": 101039, "pitch": 36, "duration": 211, "velocity": 105}, {"time": 101280, "pitch": 36, "duration": 211, "velocity": 110}, {"time": 101521, "pitch": 36, "duration": 211, "velocity": 105}, {"time": 101999, "pitch": 34, "duration": 10, "velocity": 105}, {"time": 102236, "pitch": 29, "duration": 161, "velocity": 110}, {"time": 102477, "pitch": 29, "duration": 231, "velocity": 105}, {"time": 102718, "pitch": 29, "duration": 231, "velocity": 110}, {"time": 102959, "pitch": 29, "duration": 231, "velocity": 105}, {"time": 103200, "pitch": 31, "duration": 161, "velocity": 110}, {"time": 103441, "pitch": 31, "duration": 201, "velocity": 105}, {"time": 103682, "pitch": 31, "duration": 198, "velocity": 110}, {"time": 103919, "pitch": 31, "duration": 168, "velocity": 105}, {"time": 104156, "pitch": 32, "duration": 211, "velocity": 110}, {"time": 104397, "pitch": 32, "duration": 211, "velocity": 105}, {"time": 104638, "pitch": 32, "duration": 211, "velocity": 110}, {"time": 104879, "pitch": 32, "duration": 211, "velocity": 105}, {"time": 105120, "pitch": 32, "duration": 211, "velocity": 110}, {"time": 105361, "pitch": 32, "duration": 211, "velocity": 105}, {"time": 105602, "pitch": 32, "duration": 237, "velocity": 110}, {"time": 105839, "pitch": 34, "duration": 217, "velocity": 105}, {"time": 106076, "pitch": 39, "duration": 161, "velocity": 110}, {"time": 106317, "pitch": 39, "duration": 231, "velocity": 105}, {"time": 107040, "pitch": 37, "duration": 161, "velocity": 110}, {"time": 107281, "pitch": 37, "duration": 201, "velocity": 105}, {"time": 107759, "pitch": 32, "duration": 408, "velocity": 110}, {"time": 108237, "pitch": 32, "duration": 211, "velocity": 105}, {"time": 108478, "pitch": 32, "duration": 211, "velocity": 110}, {"time": 108719, "pitch": 32, "duration": 211, "velocity": 105}, {"time": 108960, "pitch": 32, "duration": 211, "velocity": 110}, {"time": 109201, "pitch": 32, "duration": 211, "velocity": 105}, {"time": 109442, "pitch": 32, "duration": 237, "velocity": 110}, {"time": 109679, "pitch": 34, "duration": 218, "velocity": 105}, {"time": 109916, "pitch": 39, "duration": 161, "velocity": 110}, {"time": 110157, "pitch": 39, "duration": 231, "velocity": 105}, {"time": 110881, "pitch": 37, "duration": 160, "velocity": 110}, {"time": 111122, "pitch": 37, "duration": 200, "velocity": 105}, {"time": 111600, "pitch": 32, "duration": 407, "velocity": 110}, {"time": 112077, "pitch": 32, "duration": 211, "velocity": 105}, {"time": 112319, "pitch": 34, "duration": 210, "velocity": 110}, {"time": 112560, "pitch": 32, "duration": 210, "velocity": 105}, {"time": 112801, "pitch": 36, "duration": 211, "velocity": 110}, {"time": 113042, "pitch": 32, "duration": 211, "velocity": 105}, {"time": 113283, "pitch": 39, "duration": 237, "velocity": 110}, {"time": 113520, "pitch": 34, "duration": 217, "velocity": 105}, {"time": 113757, "pitch": 39, "duration": 160, "velocity": 110}, {"time": 113998, "pitch": 39, "duration": 231, "velocity": 105}, {"time": 114721, "pitch": 37, "duration": 160, "velocity": 110}, {"time": 114962, "pitch": 37, "duration": 201, "velocity": 105}, {"time": 115440, "pitch": 32, "duration": 407, "velocity": 110}, {"time": 115918, "pitch": 32, "duration": 211, "velocity": 105}, {"time": 116159, "pitch": 32, "duration": 211, "velocity": 110}, {"time": 116400, "pitch": 32, "duration": 211, "velocity": 105}, {"time": 116641, "pitch": 32, "duration": 211, "velocity": 110}, {"time": 116882, "pitch": 32, "duration": 211, "velocity": 105}, {"time": 117123, "pitch": 32, "duration": 237, "velocity": 110}, {"time": 117360, "pitch": 34, "duration": 217, "velocity": 105}, {"time": 117597, "pitch": 39, "duration": 160, "velocity": 110}, {"time": 117838, "pitch": 39, "duration": 231, "velocity": 105}, {"time": 118561, "pitch": 37, "duration": 161, "velocity": 110}, {"time": 118802, "pitch": 37, "duration": 201, "velocity": 105}, {"time": 119280, "pitch": 32, "duration": 458, "velocity": 110}, {"time": 119758, "pitch": 46, "duration": 120, "velocity": 100}, {"time": 119878, "pitch": 41, "duration": 121, "velocity": 105}, {"time": 119999, "pitch": 46, "duration": 120, "velocity": 100}, {"time": 120119, "pitch": 44, "duration": 121, "velocity": 105}, {"time": 120240, "pitch": 41, "duration": 120, "velocity": 100}, {"time": 120360, "pitch": 38, "duration": 121, "velocity": 105}, {"time": 120481, "pitch": 32, "duration": 151, "velocity": 110}, {"time": 120722, "pitch": 32, "duration": 151, "velocity": 105}, {"time": 120963, "pitch": 32, "duration": 138, "velocity": 110}, {"time": 121200, "pitch": 32, "duration": 118, "velocity": 105}, {"time": 121318, "pitch": 33, "duration": 119, "velocity": 100}, {"time": 121437, "pitch": 34, "duration": 161, "velocity": 110}, {"time": 121678, "pitch": 34, "duration": 161, "velocity": 90}, {"time": 121919, "pitch": 34, "duration": 151, "velocity": 105}, {"time": 122160, "pitch": 34, "duration": 110, "velocity": 110}, {"time": 122401, "pitch": 34, "duration": 121, "velocity": 105}, {"time": 122642, "pitch": 34, "duration": 121, "velocity": 110}, {"time": 122883, "pitch": 34, "duration": 89, "velocity": 105}, {"time": 123120, "pitch": 34, "duration": 109, "velocity": 105}, {"time": 123238, "pitch": 35, "duration": 109, "velocity": 95}, {"time": 123357, "pitch": 36, "duration": 161, "velocity": 110}, {"time": 123598, "pitch": 36, "duration": 161, "velocity": 105}, {"time": 123839, "pitch": 36, "duration": 151, "velocity": 110}, {"time": 124080, "pitch": 36, "duration": 111, "velocity": 105}, {"time": 124321, "pitch": 36, "duration": 121, "velocity": 110}, {"time": 124562, "pitch": 36, "duration": 121, "velocity": 105}, {"time": 124803, "pitch": 36, "duration": 89, "velocity": 110}, {"time": 125040, "pitch": 36, "duration": 109, "velocity": 105}, {"time": 125277, "pitch": 34, "duration": 161, "velocity": 110}, {"time": 125518, "pitch": 34, "duration": 161, "velocity": 105}, {"time": 125759, "pitch": 34, "duration": 151, "velocity": 110}, {"time": 126000, "pitch": 34, "duration": 111, "velocity": 105}, {"time": 126241, "pitch": 34, "duration": 121, "velocity": 110}, {"time": 126482, "pitch": 34, "duration": 121, "velocity": 105}, {"time": 126723, "pitch": 34, "duration": 89, "velocity": 110}, {"time": 126960, "pitch": 34, "duration": 109, "velocity": 105}, {"time": 127079, "pitch": 33, "duration": 108, "velocity": 100}, {"time": 127197, "pitch": 32, "duration": 161, "velocity": 110}, {"time": 127438, "pitch": 32, "duration": 161, "velocity": 105}, {"time": 127679, "pitch": 32, "duration": 151, "velocity": 110}, {"time": 127920, "pitch": 32, "duration": 111, "velocity": 105}, {"time": 128041, "pitch": 34, "duration": 261, "velocity": 110}, {"time": 128402, "pitch": 34, "duration": 121, "velocity": 105}, {"time": 128643, "pitch": 34, "duration": 119, "velocity": 110}, {"time": 128880, "pitch": 34, "duration": 119, "velocity": 105}, {"time": 129117, "pitch": 34, "duration": 121, "velocity": 110}, {"time": 129358, "pitch": 34, "duration": 121, "velocity": 105}, {"time": 129599, "pitch": 34, "duration": 121, "velocity": 110}, {"time": 129840, "pitch": 34, "duration": 121, "velocity": 105}, {"time": 130081, "pitch": 34, "duration": 121, "velocity": 110}, {"time": 130322, "pitch": 34, "duration": 121, "velocity": 105}, {"time": 130563, "pitch": 34, "duration": 89, "velocity": 110}, {"time": 130682, "pitch": 31, "duration": 326, "velocity": 100}, {"time": 131037, "pitch": 32, "duration": 161, "velocity": 110}, {"time": 131278, "pitch": 32, "duration": 231, "velocity": 105}, {"time": 132001, "pitch": 32, "duration": 161, "velocity": 110}, {"time": 132242, "pitch": 32, "duration": 201, "velocity": 105}, {"time": 132720, "pitch": 31, "duration": 408, "velocity": 110}, {"time": 133198, "pitch": 31, "duration": 211, "velocity": 105}, {"time": 133439, "pitch": 31, "duration": 211, "velocity": 110}, {"time": 133680, "pitch": 36, "duration": 211, "velocity": 105}, {"time": 133921, "pitch": 36, "duration": 211, "velocity": 110}, {"time": 134163, "pitch": 36, "duration": 210, "velocity": 105}, {"time": 134640, "pitch": 34, "duration": 10, "velocity": 105}, {"time": 134877, "pitch": 29, "duration": 161, "velocity": 110}, {"time": 135118, "pitch": 29, "duration": 231, "velocity": 105}, {"time": 135842, "pitch": 31, "duration": 160, "velocity": 110}, {"time": 136083, "pitch": 31, "duration": 200, "velocity": 105}, {"time": 136561, "pitch": 32, "duration": 407, "velocity": 110}, {"time": 137038, "pitch": 32, "duration": 211, "velocity": 105}, {"time": 137280, "pitch": 32, "duration": 210, "velocity": 110}, {"time": 137521, "pitch": 32, "duration": 210, "velocity": 105}, {"time": 137762, "pitch": 34, "duration": 211, "velocity": 110}, {"time": 138003, "pitch": 34, "duration": 211, "velocity": 105}, {"time": 138244, "pitch": 36, "duration": 237, "velocity": 110}, {"time": 138481, "pitch": 34, "duration": 217, "velocity": 105}, {"time": 138718, "pitch": 32, "duration": 160, "velocity": 110}, {"time": 138959, "pitch": 32, "duration": 231, "velocity": 105}, {"time": 139682, "pitch": 32, "duration": 160, "velocity": 110}, {"time": 139923, "pitch": 32, "duration": 201, "velocity": 105}, {"time": 140401, "pitch": 31, "duration": 407, "velocity": 110}, {"time": 140879, "pitch": 31, "duration": 211, "velocity": 105}, {"time": 141120, "pitch": 31, "duration": 211, "velocity": 110}, {"time": 141361, "pitch": 36, "duration": 211, "velocity": 105}, {"time": 141602, "pitch": 36, "duration": 211, "velocity": 110}, {"time": 141843, "pitch": 36, "duration": 211, "velocity": 105}, {"time": 142321, "pitch": 34, "duration": 10, "velocity": 105}, {"time": 142558, "pitch": 29, "duration": 160, "velocity": 110}, {"time": 142799, "pitch": 29, "duration": 231, "velocity": 105}, {"time": 143040, "pitch": 29, "duration": 231, "velocity": 110}, {"time": 143281, "pitch": 29, "duration": 231, "velocity": 105}, {"time": 143522, "pitch": 31, "duration": 161, "velocity": 110}, {"time": 143763, "pitch": 31, "duration": 201, "velocity": 105}, {"time": 144004, "pitch": 31, "duration": 197, "velocity": 110}, {"time": 144241, "pitch": 31, "duration": 168, "velocity": 105}, {"time": 144478, "pitch": 32, "duration": 211, "velocity": 110}, {"time": 144719, "pitch": 32, "duration": 211, "velocity": 105}, {"time": 144960, "pitch": 32, "duration": 211, "velocity": 110}, {"time": 145201, "pitch": 32, "duration": 211, "velocity": 105}, {"time": 145442, "pitch": 32, "duration": 211, "velocity": 110}, {"time": 145683, "pitch": 32, "duration": 211, "velocity": 105}, {"time": 145924, "pitch": 32, "duration": 237, "velocity": 110}, {"time": 146161, "pitch": 34, "duration": 217, "velocity": 105}, {"time": 146398, "pitch": 32, "duration": 161, "velocity": 110}, {"time": 146639, "pitch": 32, "duration": 231, "velocity": 105}, {"time": 147362, "pitch": 32, "duration": 161, "velocity": 110}, {"time": 147603, "pitch": 32, "duration": 201, "velocity": 105}, {"time": 148081, "pitch": 31, "duration": 408, "velocity": 110}, {"time": 148559, "pitch": 31, "duration": 211, "velocity": 105}, {"time": 148800, "pitch": 31, "duration": 211, "velocity": 110}, {"time": 149041, "pitch": 36, "duration": 211, "velocity": 105}, {"time": 149282, "pitch": 36, "duration": 207, "velocity": 110}, {"time": 149519, "pitch": 36, "duration": 207, "velocity": 105}, {"time": 149997, "pitch": 34, "duration": 10, "velocity": 105}, {"time": 150238, "pitch": 29, "duration": 161, "velocity": 110}, {"time": 150479, "pitch": 29, "duration": 231, "velocity": 105}, {"time": 151202, "pitch": 31, "duration": 158, "velocity": 110}, {"time": 151439, "pitch": 31, "duration": 198, "velocity": 105}, {"time": 151917, "pitch": 32, "duration": 412, "velocity": 110}, {"time": 152399, "pitch": 32, "duration": 211, "velocity": 105}, {"time": 152640, "pitch": 32, "duration": 211, "velocity": 110}, {"time": 152881, "pitch": 32, "duration": 211, "velocity": 105}, {"time": 153122, "pitch": 34, "duration": 208, "velocity": 110}, {"time": 153359, "pitch": 34, "duration": 208, "velocity": 105}, {"time": 153596, "pitch": 36, "duration": 241, "velocity": 110}, {"time": 153837, "pitch": 34, "duration": 221, "velocity": 105}, {"time": 154078, "pitch": 32, "duration": 161, "velocity": 110}, {"time": 154319, "pitch": 32, "duration": 231, "velocity": 105}, {"time": 155042, "pitch": 32, "duration": 158, "velocity": 110}, {"time": 155279, "pitch": 32, "duration": 198, "velocity": 105}, {"time": 155757, "pitch": 31, "duration": 412, "velocity": 110}, {"time": 156239, "pitch": 31, "duration": 211, "velocity": 105}, {"time": 156480, "pitch": 31, "duration": 211, "velocity": 110}, {"time": 156721, "pitch": 36, "duration": 211, "velocity": 105}, {"time": 156962, "pitch": 36, "duration": 208, "velocity": 110}, {"time": 157199, "pitch": 36, "duration": 208, "velocity": 105}, {"time": 157677, "pitch": 34, "duration": 10, "velocity": 105}, {"time": 157918, "pitch": 29, "duration": 161, "velocity": 110}, {"time": 158159, "pitch": 29, "duration": 231, "velocity": 105}, {"time": 158400, "pitch": 29, "duration": 231, "velocity": 110}, {"time": 158641, "pitch": 29, "duration": 231, "velocity": 105}, {"time": 158882, "pitch": 31, "duration": 158, "velocity": 110}, {"time": 159119, "pitch": 31, "duration": 198, "velocity": 105}, {"time": 159356, "pitch": 31, "duration": 201, "velocity": 110}, {"time": 159597, "pitch": 31, "duration": 171, "velocity": 105}, {"time": 159838, "pitch": 32, "duration": 211, "velocity": 110}, {"time": 160079, "pitch": 32, "duration": 211, "velocity": 105}, {"time": 160320, "pitch": 32, "duration": 211, "velocity": 110}, {"time": 160562, "pitch": 32, "duration": 210, "velocity": 105}, {"time": 160803, "pitch": 32, "duration": 207, "velocity": 110}, {"time": 161039, "pitch": 32, "duration": 208, "velocity": 105}, {"time": 161276, "pitch": 32, "duration": 241, "velocity": 110}, {"time": 161517, "pitch": 34, "duration": 221, "velocity": 105}, {"time": 161758, "pitch": 39, "duration": 161, "velocity": 110}, {"time": 162000, "pitch": 39, "duration": 231, "velocity": 105}, {"time": 162723, "pitch": 37, "duration": 158, "velocity": 110}, {"time": 162960, "pitch": 37, "duration": 197, "velocity": 105}, {"time": 163438, "pitch": 32, "duration": 411, "velocity": 110}, {"time": 163920, "pitch": 32, "duration": 211, "velocity": 105}, {"time": 164161, "pitch": 32, "duration": 211, "velocity": 110}, {"time": 164402, "pitch": 32, "duration": 211, "velocity": 105}, {"time": 164643, "pitch": 32, "duration": 207, "velocity": 110}, {"time": 164880, "pitch": 32, "duration": 207, "velocity": 105}, {"time": 165117, "pitch": 32, "duration": 241, "velocity": 110}, {"time": 165358, "pitch": 34, "duration": 221, "velocity": 105}, {"time": 165599, "pitch": 39, "duration": 160, "velocity": 110}, {"time": 165840, "pitch": 39, "duration": 231, "velocity": 105}, {"time": 166563, "pitch": 37, "duration": 158, "velocity": 110}, {"time": 166800, "pitch": 37, "duration": 197, "velocity": 105}, {"time": 167278, "pitch": 32, "duration": 411, "velocity": 110}, {"time": 167760, "pitch": 32, "duration": 211, "velocity": 105}, {"time": 168001, "pitch": 34, "duration": 211, "velocity": 110}, {"time": 168242, "pitch": 32, "duration": 211, "velocity": 105}, {"time": 168483, "pitch": 36, "duration": 207, "velocity": 110}, {"time": 168720, "pitch": 32, "duration": 207, "velocity": 105}, {"time": 168957, "pitch": 39, "duration": 241, "velocity": 110}, {"time": 169198, "pitch": 34, "duration": 221, "velocity": 105}, {"time": 169439, "pitch": 39, "duration": 160, "velocity": 110}, {"time": 169680, "pitch": 39, "duration": 231, "velocity": 105}, {"time": 170403, "pitch": 37, "duration": 158, "velocity": 110}, {"time": 170640, "pitch": 37, "duration": 197, "velocity": 105}, {"time": 171118, "pitch": 32, "duration": 412, "velocity": 110}, {"time": 171600, "pitch": 32, "duration": 211, "velocity": 105}, {"time": 171841, "pitch": 32, "duration": 211, "velocity": 110}, {"time": 172082, "pitch": 32, "duration": 211, "velocity": 105}, {"time": 172323, "pitch": 32, "duration": 207, "velocity": 110}, {"time": 172560, "pitch": 32, "duration": 207, "velocity": 105}, {"time": 172797, "pitch": 32, "duration": 241, "velocity": 110}, {"time": 173038, "pitch": 34, "duration": 221, "velocity": 105}, {"time": 173279, "pitch": 39, "duration": 161, "velocity": 110}, {"time": 173520, "pitch": 39, "duration": 231, "velocity": 105}, {"time": 174243, "pitch": 37, "duration": 158, "velocity": 110}, {"time": 174480, "pitch": 37, "duration": 198, "velocity": 105}, {"time": 174958, "pitch": 32, "duration": 1669, "velocity": 110}, {"time": 2400, "pitch": 75, "duration": 241, "velocity": 90}, {"time": 2641, "pitch": 75, "duration": 241, "velocity": 85}, {"time": 3356, "pitch": 73, "duration": 241, "velocity": 90}, {"time": 3597, "pitch": 73, "duration": 241, "velocity": 85}, {"time": 4079, "pitch": 72, "duration": 2161, "velocity": 90}, {"time": 6240, "pitch": 75, "duration": 241, "velocity": 90}, {"time": 6481, "pitch": 75, "duration": 241, "velocity": 85}, {"time": 7196, "pitch": 73, "duration": 241, "velocity": 90}, {"time": 7437, "pitch": 73, "duration": 241, "velocity": 85}, {"time": 7919, "pitch": 72, "duration": 2161, "velocity": 90}, {"time": 10080, "pitch": 75, "duration": 242, "velocity": 90}, {"time": 10322, "pitch": 75, "duration": 241, "velocity": 85}, {"time": 11036, "pitch": 73, "duration": 241, "velocity": 90}, {"time": 11277, "pitch": 73, "duration": 241, "velocity": 85}, {"time": 11760, "pitch": 72, "duration": 2161, "velocity": 90}, {"time": 13921, "pitch": 75, "duration": 241, "velocity": 90}, {"time": 14162, "pitch": 75, "duration": 241, "velocity": 85}, {"time": 14877, "pitch": 73, "duration": 241, "velocity": 90}, {"time": 15118, "pitch": 73, "duration": 241, "velocity": 85}, {"time": 15600, "pitch": 72, "duration": 2161, "velocity": 90}, {"time": 42722, "pitch": 80, "duration": 241, "velocity": 90}, {"time": 42963, "pitch": 80, "duration": 241, "velocity": 85}, {"time": 43678, "pitch": 80, "duration": 241, "velocity": 90}, {"time": 43919, "pitch": 80, "duration": 241, "velocity": 85}, {"time": 44401, "pitch": 79, "duration": 723, "velocity": 90}, {"time": 45361, "pitch": 77, "duration": 478, "velocity": 90}, {"time": 46080, "pitch": 79, "duration": 482, "velocity": 90}, {"time": 46562, "pitch": 77, "duration": 241, "velocity": 90}, {"time": 46803, "pitch": 77, "duration": 241, "velocity": 85}, {"time": 47518, "pitch": 79, "duration": 241, "velocity": 90}, {"time": 47759, "pitch": 79, "duration": 241, "velocity": 85}, {"time": 48241, "pitch": 80, "duration": 715, "velocity": 90}, {"time": 49197, "pitch": 82, "duration": 1205, "velocity": 90}, {"time": 50402, "pitch": 80, "duration": 237, "velocity": 90}, {"time": 50639, "pitch": 80, "duration": 237, "velocity": 85}, {"time": 51358, "pitch": 80, "duration": 241, "velocity": 90}, {"time": 51599, "pitch": 80, "duration": 241, "velocity": 85}, {"time": 52081, "pitch": 79, "duration": 715, "velocity": 90}, {"time": 53037, "pitch": 77, "duration": 482, "velocity": 90}, {"time": 53760, "pitch": 79, "duration": 482, "velocity": 90}, {"time": 54242, "pitch": 77, "duration": 474, "velocity": 90}, {"time": 55198, "pitch": 79, "duration": 482, "velocity": 90}, {"time": 56162, "pitch": 80, "duration": 715, "velocity": 90}, {"time": 58082, "pitch": 75, "duration": 237, "velocity": 90}, {"time": 58319, "pitch": 75, "duration": 237, "velocity": 85}, {"time": 59038, "pitch": 73, "duration": 241, "velocity": 90}, {"time": 59279, "pitch": 73, "duration": 241, "velocity": 85}, {"time": 59761, "pitch": 72, "duration": 2162, "velocity": 90}, {"time": 61923, "pitch": 75, "duration": 237, "velocity": 90}, {"time": 62160, "pitch": 75, "duration": 236, "velocity": 85}, {"time": 62879, "pitch": 73, "duration": 241, "velocity": 90}, {"time": 63120, "pitch": 73, "duration": 241, "velocity": 85}, {"time": 63602, "pitch": 72, "duration": 2161, "velocity": 90}, {"time": 90724, "pitch": 80, "duration": 237, "velocity": 90}, {"time": 90961, "pitch": 80, "duration": 237, "velocity": 85}, {"time": 91680, "pitch": 80, "duration": 241, "velocity": 90}, {"time": 91921, "pitch": 80, "duration": 241, "velocity": 85}, {"time": 92403, "pitch": 79, "duration": 715, "velocity": 90}, {"time": 93359, "pitch": 77, "duration": 482, "velocity": 90}, {"time": 94082, "pitch": 79, "duration": 482, "velocity": 90}, {"time": 94564, "pitch": 77, "duration": 237, "velocity": 90}, {"time": 94801, "pitch": 77, "duration": 237, "velocity": 85}, {"time": 95520, "pitch": 79, "duration": 241, "velocity": 90}, {"time": 95761, "pitch": 79, "duration": 241, "velocity": 85}, {"time": 96243, "pitch": 80, "duration": 715, "velocity": 90}, {"time": 97199, "pitch": 82, "duration": 1205, "velocity": 90}, {"time": 98404, "pitch": 80, "duration": 237, "velocity": 90}, {"time": 98641, "pitch": 80, "duration": 237, "velocity": 85}, {"time": 99360, "pitch": 80, "duration": 241, "velocity": 90}, {"time": 99601, "pitch": 80, "duration": 241, "velocity": 85}, {"time": 100079, "pitch": 79, "duration": 719, "velocity": 90}, {"time": 101039, "pitch": 77, "duration": 482, "velocity": 90}, {"time": 101762, "pitch": 79, "duration": 474, "velocity": 90}, {"time": 102236, "pitch": 77, "duration": 482, "velocity": 90}, {"time": 103200, "pitch": 79, "duration": 482, "velocity": 90}, {"time": 104156, "pitch": 80, "duration": 723, "velocity": 90}, {"time": 106076, "pitch": 75, "duration": 121, "velocity": 115}, {"time": 106197, "pitch": 81, "duration": 120, "velocity": 110}, {"time": 106317, "pitch": 75, "duration": 121, "velocity": 115}, {"time": 106438, "pitch": 75, "duration": 120, "velocity": 110}, {"time": 106558, "pitch": 81, "duration": 121, "velocity": 115}, {"time": 106679, "pitch": 75, "duration": 120, "velocity": 110}, {"time": 106799, "pitch": 75, "duration": 121, "velocity": 115}, {"time": 106920, "pitch": 81, "duration": 120, "velocity": 110}, {"time": 107040, "pitch": 75, "duration": 121, "velocity": 115}, {"time": 107161, "pitch": 75, "duration": 120, "velocity": 110}, {"time": 107281, "pitch": 81, "duration": 121, "velocity": 115}, {"time": 107402, "pitch": 75, "duration": 120, "velocity": 110}, {"time": 107522, "pitch": 75, "duration": 119, "velocity": 115}, {"time": 107641, "pitch": 81, "duration": 118, "velocity": 110}, {"time": 107759, "pitch": 75, "duration": 119, "velocity": 115}, {"time": 107878, "pitch": 75, "duration": 118, "velocity": 110}, {"time": 107996, "pitch": 81, "duration": 121, "velocity": 115}, {"time": 108117, "pitch": 75, "duration": 120, "velocity": 110}, {"time": 108237, "pitch": 75, "duration": 121, "velocity": 115}, {"time": 108358, "pitch": 81, "duration": 120, "velocity": 110}, {"time": 108478, "pitch": 75, "duration": 121, "velocity": 115}, {"time": 108599, "pitch": 75, "duration": 120, "velocity": 110}, {"time": 108719, "pitch": 81, "duration": 121, "velocity": 115}, {"time": 108840, "pitch": 75, "duration": 120, "velocity": 110}, {"time": 108960, "pitch": 75, "duration": 121, "velocity": 115}, {"time": 109081, "pitch": 81, "duration": 120, "velocity": 110}, {"time": 109201, "pitch": 75, "duration": 121, "velocity": 115}, {"time": 109322, "pitch": 75, "duration": 120, "velocity": 110}, {"time": 109442, "pitch": 81, "duration": 119, "velocity": 115}, {"time": 109561, "pitch": 75, "duration": 118, "velocity": 110}, {"time": 109679, "pitch": 75, "duration": 119, "velocity": 115}, {"time": 109798, "pitch": 75, "duration": 118, "velocity": 110}, {"time": 109916, "pitch": 85, "duration": 382, "velocity": 115}, {"time": 110398, "pitch": 82, "duration": 91, "velocity": 110}, {"time": 110519, "pitch": 81, "duration": 90, "velocity": 105}, {"time": 110760, "pitch": 80, "duration": 90, "velocity": 110}, {"time": 111001, "pitch": 78, "duration": 90, "velocity": 115}, {"time": 111242, "pitch": 82, "duration": 358, "velocity": 115}, {"time": 111600, "pitch": 75, "duration": 118, "velocity": 110}, {"time": 111718, "pitch": 73, "duration": 118, "velocity": 105}, {"time": 111836, "pitch": 78, "duration": 121, "velocity": 115}, {"time": 111957, "pitch": 73, "duration": 120, "velocity": 105}, {"time": 112077, "pitch": 75, "duration": 101, "velocity": 110}, {"time": 112319, "pitch": 78, "duration": 140, "velocity": 115}, {"time": 112560, "pitch": 78, "duration": 642, "velocity": 110}, {"time": 113283, "pitch": 73, "duration": 118, "velocity": 115}, {"time": 113520, "pitch": 75, "duration": 719, "velocity": 115}, {"time": 114239, "pitch": 75, "duration": 120, "velocity": 110}, {"time": 114359, "pitch": 73, "duration": 121, "velocity": 105}, {"time": 114480, "pitch": 70, "duration": 120, "velocity": 110}, {"time": 114600, "pitch": 78, "duration": 121, "velocity": 115}, {"time": 114841, "pitch": 78, "duration": 121, "velocity": 115}, {"time": 114962, "pitch": 75, "duration": 120, "velocity": 110}, {"time": 115082, "pitch": 73, "duration": 121, "velocity": 115}, {"time": 115203, "pitch": 75, "duration": 118, "velocity": 115}, {"time": 115321, "pitch": 70, "duration": 119, "velocity": 110}, {"time": 115440, "pitch": 73, "duration": 118, "velocity": 115}, {"time": 115558, "pitch": 73, "duration": 119, "velocity": 110}, {"time": 115677, "pitch": 70, "duration": 120, "velocity": 115}, {"time": 115797, "pitch": 69, "duration": 121, "velocity": 95}, {"time": 115918, "pitch": 70, "duration": 120, "velocity": 115}, {"time": 116038, "pitch": 69, "duration": 121, "velocity": 110}, {"time": 116159, "pitch": 68, "duration": 120, "velocity": 115}, {"time": 116279, "pitch": 66, "duration": 241, "velocity": 110}, {"time": 116520, "pitch": 68, "duration": 121, "velocity": 100}, {"time": 116641, "pitch": 68, "duration": 120, "velocity": 115}, {"time": 116761, "pitch": 66, "duration": 121, "velocity": 110}, {"time": 116882, "pitch": 70, "duration": 241, "velocity": 115}, {"time": 117123, "pitch": 63, "duration": 118, "velocity": 115}, {"time": 117241, "pitch": 66, "duration": 119, "velocity": 110}, {"time": 117360, "pitch": 68, "duration": 118, "velocity": 115}, {"time": 117478, "pitch": 69, "duration": 119, "velocity": 110}, {"time": 117597, "pitch": 70, "duration": 120, "velocity": 115}, {"time": 117717, "pitch": 69, "duration": 121, "velocity": 100}, {"time": 117838, "pitch": 68, "duration": 80, "velocity": 115}, {"time": 117918, "pitch": 66, "duration": 80, "velocity": 105}, {"time": 117998, "pitch": 68, "duration": 81, "velocity": 115}, {"time": 118079, "pitch": 68, "duration": 120, "velocity": 115}, {"time": 118199, "pitch": 66, "duration": 121, "velocity": 110}, {"time": 118320, "pitch": 68, "duration": 241, "velocity": 110}, {"time": 118330, "pitch": 72, "duration": 241, "velocity": 115}, {"time": 118561, "pitch": 66, "duration": 241, "velocity": 105}, {"time": 118571, "pitch": 70, "duration": 241, "velocity": 110}, {"time": 118802, "pitch": 68, "duration": 120, "velocity": 110}, {"time": 118812, "pitch": 72, "duration": 120, "velocity": 115}, {"time": 118922, "pitch": 66, "duration": 358, "velocity": 105}, {"time": 118932, "pitch": 70, "duration": 111, "velocity": 110}, {"time": 119280, "pitch": 70, "duration": 237, "velocity": 115}, {"time": 119517, "pitch": 78, "duration": 120, "velocity": 115}, {"time": 119637, "pitch": 75, "duration": 101, "velocity": 75}, {"time": 119758, "pitch": 77, "duration": 120, "velocity": 115}, {"time": 119999, "pitch": 78, "duration": 110, "velocity": 115}, {"time": 120129, "pitch": 80, "duration": 241, "velocity": 115}, {"time": 120370, "pitch": 82, "duration": 101, "velocity": 110}, {"time": 120491, "pitch": 82, "duration": 80, "velocity": 115}, {"time": 120682, "pitch": 82, "duration": 80, "velocity": 110}, {"time": 120883, "pitch": 82, "duration": 80, "velocity": 115}, {"time": 121081, "pitch": 82, "duration": 356, "velocity": 110}, {"time": 121437, "pitch": 78, "duration": 723, "velocity": 110}, {"time": 131037, "pitch": 80, "duration": 241, "velocity": 90}, {"time": 131278, "pitch": 80, "duration": 241, "velocity": 85}, {"time": 132001, "pitch": 80, "duration": 241, "velocity": 90}, {"time": 132242, "pitch": 80, "duration": 241, "velocity": 85}, {"time": 132720, "pitch": 79, "duration": 719, "velocity": 90}, {"time": 133680, "pitch": 77, "duration": 483, "velocity": 90}, {"time": 134403, "pitch": 79, "duration": 474, "velocity": 90}, {"time": 134877, "pitch": 77, "duration": 241, "velocity": 90}, {"time": 135118, "pitch": 77, "duration": 241, "velocity": 85}, {"time": 135842, "pitch": 79, "duration": 241, "velocity": 90}, {"time": 136083, "pitch": 79, "duration": 241, "velocity": 85}, {"time": 136561, "pitch": 80, "duration": 719, "velocity": 90}, {"time": 137521, "pitch": 82, "duration": 1197, "velocity": 90}, {"time": 138718, "pitch": 80, "duration": 241, "velocity": 90}, {"time": 138959, "pitch": 80, "duration": 241, "velocity": 85}, {"time": 139682, "pitch": 80, "duration": 241, "velocity": 90}, {"time": 139923, "pitch": 80, "duration": 241, "velocity": 85}, {"time": 140401, "pitch": 79, "duration": 719, "velocity": 90}, {"time": 141361, "pitch": 77, "duration": 482, "velocity": 90}, {"time": 142084, "pitch": 79, "duration": 474, "velocity": 90}, {"time": 142558, "pitch": 77, "duration": 482, "velocity": 90}, {"time": 143522, "pitch": 79, "duration": 482, "velocity": 90}, {"time": 144478, "pitch": 80, "duration": 723, "velocity": 90}, {"time": 146398, "pitch": 80, "duration": 241, "velocity": 90}, {"time": 146639, "pitch": 80, "duration": 241, "velocity": 85}, {"time": 147362, "pitch": 80, "duration": 241, "velocity": 90}, {"time": 147603, "pitch": 80, "duration": 241, "velocity": 85}, {"time": 148081, "pitch": 79, "duration": 719, "velocity": 90}, {"time": 149041, "pitch": 77, "duration": 478, "velocity": 90}, {"time": 149756, "pitch": 79, "duration": 482, "velocity": 90}, {"time": 150238, "pitch": 77, "duration": 241, "velocity": 90}, {"time": 150479, "pitch": 77, "duration": 241, "velocity": 85}, {"time": 151202, "pitch": 79, "duration": 237, "velocity": 90}, {"time": 151439, "pitch": 79, "duration": 237, "velocity": 85}, {"time": 151917, "pitch": 80, "duration": 723, "velocity": 90}, {"time": 152881, "pitch": 82, "duration": 1197, "velocity": 90}, {"time": 154078, "pitch": 80, "duration": 241, "velocity": 90}, {"time": 154319, "pitch": 80, "duration": 241, "velocity": 85}, {"time": 155042, "pitch": 80, "duration": 237, "velocity": 90}, {"time": 155279, "pitch": 80, "duration": 237, "velocity": 85}, {"time": 155757, "pitch": 79, "duration": 723, "velocity": 90}, {"time": 156721, "pitch": 77, "duration": 478, "velocity": 90}, {"time": 157436, "pitch": 79, "duration": 482, "velocity": 90}, {"time": 157918, "pitch": 77, "duration": 482, "velocity": 90}, {"time": 158882, "pitch": 79, "duration": 474, "velocity": 90}, {"time": 159838, "pitch": 80, "duration": 724, "velocity": 90}, {"time": 161758, "pitch": 75, "duration": 242, "velocity": 90}, {"time": 162000, "pitch": 75, "duration": 241, "velocity": 85}, {"time": 162723, "pitch": 73, "duration": 237, "velocity": 90}, {"time": 162960, "pitch": 73, "duration": 237, "velocity": 85}, {"time": 163438, "pitch": 72, "duration": 2161, "velocity": 90}, {"time": 165599, "pitch": 75, "duration": 241, "velocity": 90}, {"time": 165840, "pitch": 75, "duration": 241, "velocity": 85}, {"time": 166563, "pitch": 73, "duration": 237, "velocity": 90}, {"time": 166800, "pitch": 73, "duration": 237, "velocity": 85}, {"time": 167278, "pitch": 72, "duration": 2161, "velocity": 90}, {"time": 169439, "pitch": 75, "duration": 241, "velocity": 90}, {"time": 169680, "pitch": 75, "duration": 241, "velocity": 85}, {"time": 170403, "pitch": 73, "duration": 237, "velocity": 90}, {"time": 170640, "pitch": 73, "duration": 237, "velocity": 85}, {"time": 171118, "pitch": 72, "duration": 2161, "velocity": 90}, {"time": 173279, "pitch": 75, "duration": 241, "velocity": 90}, {"time": 173520, "pitch": 75, "duration": 241, "velocity": 85}, {"time": 174243, "pitch": 73, "duration": 237, "velocity": 90}, {"time": 174480, "pitch": 73, "duration": 237, "velocity": 85}, {"time": 174958, "pitch": 72, "duration": 2161, "velocity": 90}, {"time": 17761, "pitch": 75, "duration": 100, "velocity": 100}, {"time": 17881, "pitch": 75, "duration": 101, "velocity": 95}, {"time": 18002, "pitch": 75, "duration": 100, "velocity": 100}, {"time": 18122, "pitch": 75, "duration": 101, "velocity": 90}, {"time": 18243, "pitch": 75, "duration": 148, "velocity": 100}, {"time": 18480, "pitch": 75, "duration": 99, "velocity": 95}, {"time": 18598, "pitch": 73, "duration": 219, "velocity": 100}, {"time": 18837, "pitch": 75, "duration": 101, "velocity": 95}, {"time": 18958, "pitch": 75, "duration": 100, "velocity": 100}, {"time": 19078, "pitch": 75, "duration": 101, "velocity": 90}, {"time": 19199, "pitch": 75, "duration": 120, "velocity": 100}, {"time": 19440, "pitch": 75, "duration": 120, "velocity": 95}, {"time": 19681, "pitch": 72, "duration": 140, "velocity": 100}, {"time": 19922, "pitch": 75, "duration": 141, "velocity": 95}, {"time": 20163, "pitch": 75, "duration": 138, "velocity": 100}, {"time": 20400, "pitch": 77, "duration": 99, "velocity": 95}, {"time": 20518, "pitch": 78, "duration": 219, "velocity": 100}, {"time": 20757, "pitch": 77, "duration": 101, "velocity": 95}, {"time": 20878, "pitch": 75, "duration": 241, "velocity": 100}, {"time": 21360, "pitch": 79, "duration": 241, "velocity": 95}, {"time": 21601, "pitch": 84, "duration": 241, "velocity": 100}, {"time": 21842, "pitch": 79, "duration": 241, "velocity": 95}, {"time": 22083, "pitch": 77, "duration": 237, "velocity": 90}, {"time": 22320, "pitch": 79, "duration": 237, "velocity": 95}, {"time": 22557, "pitch": 77, "duration": 241, "velocity": 100}, {"time": 22798, "pitch": 75, "duration": 231, "velocity": 95}, {"time": 23280, "pitch": 70, "duration": 221, "velocity": 90}, {"time": 23521, "pitch": 72, "duration": 221, "velocity": 100}, {"time": 23762, "pitch": 75, "duration": 141, "velocity": 95}, {"time": 24003, "pitch": 75, "duration": 217, "velocity": 100}, {"time": 24240, "pitch": 77, "duration": 138, "velocity": 95}, {"time": 24477, "pitch": 79, "duration": 221, "velocity": 100}, {"time": 24718, "pitch": 77, "duration": 100, "velocity": 90}, {"time": 24839, "pitch": 77, "duration": 341, "velocity": 95}, {"time": 25441, "pitch": 75, "duration": 101, "velocity": 100}, {"time": 25562, "pitch": 75, "duration": 100, "velocity": 95}, {"time": 25682, "pitch": 75, "duration": 101, "velocity": 100}, {"time": 25803, "pitch": 75, "duration": 100, "velocity": 90}, {"time": 25923, "pitch": 75, "duration": 148, "velocity": 100}, {"time": 26160, "pitch": 75, "duration": 99, "velocity": 95}, {"time": 26279, "pitch": 73, "duration": 218, "velocity": 100}, {"time": 26518, "pitch": 75, "duration": 100, "velocity": 95}, {"time": 26638, "pitch": 75, "duration": 100, "velocity": 100}, {"time": 26759, "pitch": 75, "duration": 100, "velocity": 90}, {"time": 26879, "pitch": 75, "duration": 121, "velocity": 100}, {"time": 27120, "pitch": 75, "duration": 121, "velocity": 95}, {"time": 27361, "pitch": 72, "duration": 141, "velocity": 100}, {"time": 27602, "pitch": 75, "duration": 141, "velocity": 95}, {"time": 27843, "pitch": 75, "duration": 138, "velocity": 100}, {"time": 28080, "pitch": 77, "duration": 99, "velocity": 95}, {"time": 28199, "pitch": 78, "duration": 219, "velocity": 100}, {"time": 28438, "pitch": 77, "duration": 100, "velocity": 95}, {"time": 28558, "pitch": 75, "duration": 241, "velocity": 100}, {"time": 29040, "pitch": 79, "duration": 241, "velocity": 95}, {"time": 29281, "pitch": 84, "duration": 241, "velocity": 100}, {"time": 29522, "pitch": 79, "duration": 241, "velocity": 95}, {"time": 29763, "pitch": 77, "duration": 237, "velocity": 100}, {"time": 30000, "pitch": 79, "duration": 237, "velocity": 90}, {"time": 30237, "pitch": 77, "duration": 241, "velocity": 100}, {"time": 30478, "pitch": 75, "duration": 342, "velocity": 95}, {"time": 31201, "pitch": 79, "duration": 221, "velocity": 100}, {"time": 31442, "pitch": 77, "duration": 141, "velocity": 95}, {"time": 31683, "pitch": 75, "duration": 227, "velocity": 100}, {"time": 31920, "pitch": 77, "duration": 99, "velocity": 95}, {"time": 32039, "pitch": 75, "duration": 1752, "velocity": 100}, {"time": 34800, "pitch": 82, "duration": 231, "velocity": 95}, {"time": 35042, "pitch": 80, "duration": 220, "velocity": 100}, {"time": 35283, "pitch": 79, "duration": 221, "velocity": 95}, {"time": 35524, "pitch": 77, "duration": 217, "velocity": 90}, {"time": 35760, "pitch": 75, "duration": 257, "velocity": 95}, {"time": 36238, "pitch": 77, "duration": 221, "velocity": 95}, {"time": 36480, "pitch": 75, "duration": 220, "velocity": 100}, {"time": 36721, "pitch": 77, "duration": 231, "velocity": 90}, {"time": 36962, "pitch": 79, "duration": 221, "velocity": 100}, {"time": 37203, "pitch": 77, "duration": 140, "velocity": 95}, {"time": 37444, "pitch": 75, "duration": 217, "velocity": 100}, {"time": 37681, "pitch": 70, "duration": 217, "velocity": 95}, {"time": 37918, "pitch": 72, "duration": 140, "velocity": 100}, {"time": 38199, "pitch": 75, "duration": 452, "velocity": 100}, {"time": 38641, "pitch": 82, "duration": 231, "velocity": 95}, {"time": 38882, "pitch": 80, "duration": 231, "velocity": 100}, {"time": 39123, "pitch": 79, "duration": 221, "velocity": 95}, {"time": 39364, "pitch": 77, "duration": 217, "velocity": 100}, {"time": 39601, "pitch": 75, "duration": 217, "velocity": 95}, {"time": 40079, "pitch": 77, "duration": 221, "velocity": 95}, {"time": 40320, "pitch": 75, "duration": 241, "velocity": 100}, {"time": 40561, "pitch": 77, "duration": 231, "velocity": 90}, {"time": 40802, "pitch": 82, "duration": 221, "velocity": 100}, {"time": 41043, "pitch": 80, "duration": 221, "velocity": 95}, {"time": 41284, "pitch": 78, "duration": 99, "velocity": 100}, {"time": 41402, "pitch": 80, "duration": 99, "velocity": 90}, {"time": 41639, "pitch": 84, "duration": 99, "velocity": 95}, {"time": 41878, "pitch": 82, "duration": 352, "velocity": 100}, {"time": 42360, "pitch": 77, "duration": 101, "velocity": 95}, {"time": 42481, "pitch": 79, "duration": 100, "velocity": 100}, {"time": 42601, "pitch": 77, "duration": 101, "velocity": 90}, {"time": 42722, "pitch": 79, "duration": 100, "velocity": 100}, {"time": 42842, "pitch": 77, "duration": 101, "velocity": 95}, {"time": 42963, "pitch": 79, "duration": 100, "velocity": 100}, {"time": 43083, "pitch": 77, "duration": 101, "velocity": 90}, {"time": 43204, "pitch": 79, "duration": 99, "velocity": 100}, {"time": 43322, "pitch": 77, "duration": 99, "velocity": 95}, {"time": 43441, "pitch": 79, "duration": 99, "velocity": 100}, {"time": 43559, "pitch": 77, "duration": 99, "velocity": 90}, {"time": 43678, "pitch": 79, "duration": 100, "velocity": 100}, {"time": 43798, "pitch": 79, "duration": 101, "velocity": 95}, {"time": 44039, "pitch": 84, "duration": 101, "velocity": 100}, {"time": 44401, "pitch": 77, "duration": 462, "velocity": 100}, {"time": 44883, "pitch": 75, "duration": 241, "velocity": 95}, {"time": 45124, "pitch": 77, "duration": 237, "velocity": 100}, {"time": 45361, "pitch": 79, "duration": 237, "velocity": 95}, {"time": 45598, "pitch": 77, "duration": 241, "velocity": 100}, {"time": 45839, "pitch": 75, "duration": 663, "velocity": 95}, {"time": 46803, "pitch": 72, "duration": 221, "velocity": 95}, {"time": 47044, "pitch": 75, "duration": 217, "velocity": 100}, {"time": 47281, "pitch": 72, "duration": 118, "velocity": 90}, {"time": 47399, "pitch": 82, "duration": 340, "velocity": 100}, {"time": 47759, "pitch": 80, "duration": 100, "velocity": 95}, {"time": 48000, "pitch": 79, "duration": 221, "velocity": 100}, {"time": 48241, "pitch": 80, "duration": 100, "velocity": 95}, {"time": 48362, "pitch": 79, "duration": 337, "velocity": 100}, {"time": 48719, "pitch": 75, "duration": 277, "velocity": 95}, {"time": 49197, "pitch": 75, "duration": 100, "velocity": 100}, {"time": 49317, "pitch": 75, "duration": 101, "velocity": 95}, {"time": 49438, "pitch": 84, "duration": 221, "velocity": 100}, {"time": 49679, "pitch": 82, "duration": 100, "velocity": 95}, {"time": 49920, "pitch": 79, "duration": 121, "velocity": 100}, {"time": 50041, "pitch": 75, "duration": 100, "velocity": 90}, {"time": 50161, "pitch": 79, "duration": 101, "velocity": 95}, {"time": 50282, "pitch": 75, "duration": 100, "velocity": 90}, {"time": 50402, "pitch": 79, "duration": 99, "velocity": 100}, {"time": 50521, "pitch": 77, "duration": 98, "velocity": 95}, {"time": 50639, "pitch": 79, "duration": 99, "velocity": 100}, {"time": 50758, "pitch": 77, "duration": 98, "velocity": 90}, {"time": 50876, "pitch": 79, "duration": 100, "velocity": 100}, {"time": 50996, "pitch": 77, "duration": 101, "velocity": 95}, {"time": 51117, "pitch": 79, "duration": 100, "velocity": 100}, {"time": 51238, "pitch": 77, "duration": 100, "velocity": 90}, {"time": 51358, "pitch": 79, "duration": 100, "velocity": 100}, {"time": 51479, "pitch": 79, "duration": 100, "velocity": 95}, {"time": 51720, "pitch": 84, "duration": 100, "velocity": 100}, {"time": 52081, "pitch": 77, "duration": 458, "velocity": 100}, {"time": 52559, "pitch": 75, "duration": 237, "velocity": 95}, {"time": 52796, "pitch": 77, "duration": 241, "velocity": 100}, {"time": 53037, "pitch": 79, "duration": 241, "velocity": 95}, {"time": 53278, "pitch": 77, "duration": 241, "velocity": 100}, {"time": 53519, "pitch": 75, "duration": 663, "velocity": 95}, {"time": 54479, "pitch": 72, "duration": 217, "velocity": 95}, {"time": 54716, "pitch": 75, "duration": 221, "velocity": 100}, {"time": 54957, "pitch": 72, "duration": 121, "velocity": 95}, {"time": 55198, "pitch": 82, "duration": 221, "velocity": 100}, {"time": 55439, "pitch": 80, "duration": 101, "velocity": 90}, {"time": 55680, "pitch": 79, "duration": 251, "velocity": 95}, {"time": 55921, "pitch": 80, "duration": 251, "velocity": 100}, {"time": 56162, "pitch": 78, "duration": 1920, "velocity": 100}, {"time": 58082, "pitch": 77, "duration": 129, "velocity": 95}, {"time": 58319, "pitch": 75, "duration": 99, "velocity": 100}, {"time": 58438, "pitch": 75, "duration": 99, "velocity": 90}, {"time": 65763, "pitch": 75, "duration": 98, "velocity": 100}, {"time": 65881, "pitch": 75, "duration": 99, "velocity": 95}, {"time": 66000, "pitch": 75, "duration": 98, "velocity": 100}, {"time": 66118, "pitch": 75, "duration": 99, "velocity": 90}, {"time": 66237, "pitch": 75, "duration": 150, "velocity": 100}, {"time": 66478, "pitch": 75, "duration": 100, "velocity": 95}, {"time": 66598, "pitch": 73, "duration": 221, "velocity": 100}, {"time": 66839, "pitch": 75, "duration": 101, "velocity": 95}, {"time": 66960, "pitch": 75, "duration": 100, "velocity": 100}, {"time": 67080, "pitch": 75, "duration": 101, "velocity": 90}, {"time": 67201, "pitch": 75, "duration": 120, "velocity": 100}, {"time": 67442, "pitch": 75, "duration": 120, "velocity": 95}, {"time": 67683, "pitch": 72, "duration": 138, "velocity": 100}, {"time": 67920, "pitch": 75, "duration": 138, "velocity": 95}, {"time": 68157, "pitch": 75, "duration": 140, "velocity": 100}, {"time": 68398, "pitch": 77, "duration": 100, "velocity": 95}, {"time": 68518, "pitch": 78, "duration": 221, "velocity": 100}, {"time": 68759, "pitch": 77, "duration": 101, "velocity": 95}, {"time": 68880, "pitch": 75, "duration": 241, "velocity": 100}, {"time": 69362, "pitch": 79, "duration": 241, "velocity": 95}, {"time": 69603, "pitch": 84, "duration": 237, "velocity": 100}, {"time": 69840, "pitch": 79, "duration": 237, "velocity": 95}, {"time": 70077, "pitch": 77, "duration": 241, "velocity": 90}, {"time": 70318, "pitch": 79, "duration": 241, "velocity": 95}, {"time": 70559, "pitch": 77, "duration": 241, "velocity": 100}, {"time": 70800, "pitch": 75, "duration": 231, "velocity": 95}, {"time": 71282, "pitch": 70, "duration": 221, "velocity": 90}, {"time": 71523, "pitch": 72, "duration": 217, "velocity": 100}, {"time": 71760, "pitch": 75, "duration": 138, "velocity": 95}, {"time": 71997, "pitch": 75, "duration": 221, "velocity": 100}, {"time": 72238, "pitch": 77, "duration": 140, "velocity": 95}, {"time": 72479, "pitch": 79, "duration": 221, "velocity": 100}, {"time": 72720, "pitch": 77, "duration": 100, "velocity": 90}, {"time": 72840, "pitch": 77, "duration": 342, "velocity": 95}, {"time": 73443, "pitch": 75, "duration": 99, "velocity": 100}, {"time": 73562, "pitch": 75, "duration": 98, "velocity": 95}, {"time": 73680, "pitch": 75, "duration": 99, "velocity": 100}, {"time": 73798, "pitch": 75, "duration": 99, "velocity": 90}, {"time": 73917, "pitch": 75, "duration": 151, "velocity": 100}, {"time": 74158, "pitch": 75, "duration": 100, "velocity": 95}, {"time": 74278, "pitch": 73, "duration": 221, "velocity": 100}, {"time": 74520, "pitch": 75, "duration": 100, "velocity": 95}, {"time": 74640, "pitch": 75, "duration": 100, "velocity": 100}, {"time": 74761, "pitch": 75, "duration": 100, "velocity": 90}, {"time": 74881, "pitch": 75, "duration": 121, "velocity": 100}, {"time": 75122, "pitch": 75, "duration": 121, "velocity": 95}, {"time": 75363, "pitch": 72, "duration": 138, "velocity": 100}, {"time": 75600, "pitch": 75, "duration": 138, "velocity": 95}, {"time": 75837, "pitch": 75, "duration": 141, "velocity": 100}, {"time": 76078, "pitch": 77, "duration": 100, "velocity": 95}, {"time": 76199, "pitch": 78, "duration": 221, "velocity": 100}, {"time": 76440, "pitch": 77, "duration": 100, "velocity": 95}, {"time": 76560, "pitch": 75, "duration": 241, "velocity": 100}, {"time": 77042, "pitch": 79, "duration": 241, "velocity": 95}, {"time": 77283, "pitch": 84, "duration": 237, "velocity": 100}, {"time": 77520, "pitch": 79, "duration": 237, "velocity": 95}, {"time": 77757, "pitch": 77, "duration": 241, "velocity": 100}, {"time": 77998, "pitch": 79, "duration": 241, "velocity": 90}, {"time": 78239, "pitch": 77, "duration": 241, "velocity": 100}, {"time": 78480, "pitch": 75, "duration": 342, "velocity": 95}, {"time": 79203, "pitch": 79, "duration": 217, "velocity": 100}, {"time": 79440, "pitch": 77, "duration": 138, "velocity": 95}, {"time": 79677, "pitch": 75, "duration": 231, "velocity": 100}, {"time": 79918, "pitch": 77, "duration": 101, "velocity": 95}, {"time": 80039, "pitch": 75, "duration": 1749, "velocity": 100}, {"time": 82802, "pitch": 82, "duration": 231, "velocity": 95}, {"time": 83043, "pitch": 80, "duration": 218, "velocity": 100}, {"time": 83280, "pitch": 79, "duration": 218, "velocity": 95}, {"time": 83517, "pitch": 77, "duration": 221, "velocity": 90}, {"time": 83758, "pitch": 75, "duration": 261, "velocity": 95}, {"time": 84240, "pitch": 77, "duration": 221, "velocity": 95}, {"time": 84481, "pitch": 75, "duration": 221, "velocity": 100}, {"time": 84723, "pitch": 77, "duration": 231, "velocity": 90}, {"time": 84964, "pitch": 79, "duration": 217, "velocity": 100}, {"time": 85200, "pitch": 77, "duration": 139, "velocity": 95}, {"time": 85437, "pitch": 75, "duration": 221, "velocity": 100}, {"time": 85678, "pitch": 70, "duration": 221, "velocity": 95}, {"time": 85919, "pitch": 72, "duration": 141, "velocity": 100}, {"time": 86161, "pitch": 75, "duration": 462, "velocity": 100}, {"time": 86643, "pitch": 82, "duration": 231, "velocity": 95}, {"time": 86884, "pitch": 80, "duration": 227, "velocity": 100}, {"time": 87121, "pitch": 79, "duration": 217, "velocity": 95}, {"time": 87358, "pitch": 77, "duration": 220, "velocity": 100}, {"time": 87599, "pitch": 75, "duration": 220, "velocity": 95}, {"time": 88081, "pitch": 77, "duration": 221, "velocity": 95}, {"time": 88322, "pitch": 75, "duration": 241, "velocity": 100}, {"time": 88563, "pitch": 77, "duration": 231, "velocity": 90}, {"time": 88804, "pitch": 82, "duration": 217, "velocity": 100}, {"time": 89041, "pitch": 80, "duration": 217, "velocity": 95}, {"time": 89278, "pitch": 78, "duration": 100, "velocity": 100}, {"time": 89398, "pitch": 80, "duration": 101, "velocity": 90}, {"time": 89639, "pitch": 84, "duration": 101, "velocity": 95}, {"time": 89880, "pitch": 82, "duration": 352, "velocity": 100}, {"time": 90362, "pitch": 77, "duration": 101, "velocity": 95}, {"time": 90483, "pitch": 79, "duration": 100, "velocity": 100}, {"time": 90603, "pitch": 77, "duration": 101, "velocity": 90}, {"time": 90724, "pitch": 79, "duration": 98, "velocity": 100}, {"time": 90842, "pitch": 77, "duration": 99, "velocity": 95}, {"time": 90961, "pitch": 79, "duration": 98, "velocity": 100}, {"time": 91079, "pitch": 77, "duration": 99, "velocity": 90}, {"time": 91198, "pitch": 79, "duration": 100, "velocity": 100}, {"time": 91318, "pitch": 77, "duration": 101, "velocity": 95}, {"time": 91439, "pitch": 79, "duration": 100, "velocity": 100}, {"time": 91559, "pitch": 77, "duration": 101, "velocity": 90}, {"time": 91680, "pitch": 79, "duration": 100, "velocity": 100}, {"time": 91800, "pitch": 79, "duration": 101, "velocity": 95}, {"time": 92041, "pitch": 84, "duration": 101, "velocity": 100}, {"time": 92403, "pitch": 77, "duration": 458, "velocity": 100}, {"time": 92881, "pitch": 75, "duration": 237, "velocity": 95}, {"time": 93118, "pitch": 77, "duration": 241, "velocity": 100}, {"time": 93359, "pitch": 79, "duration": 241, "velocity": 95}, {"time": 93600, "pitch": 77, "duration": 241, "velocity": 100}, {"time": 93841, "pitch": 75, "duration": 663, "velocity": 95}, {"time": 94801, "pitch": 72, "duration": 217, "velocity": 95}, {"time": 95038, "pitch": 75, "duration": 221, "velocity": 100}, {"time": 95279, "pitch": 72, "duration": 120, "velocity": 90}, {"time": 95399, "pitch": 82, "duration": 342, "velocity": 100}, {"time": 95761, "pitch": 80, "duration": 100, "velocity": 95}, {"time": 96002, "pitch": 79, "duration": 221, "velocity": 100}, {"time": 96243, "pitch": 80, "duration": 100, "velocity": 95}, {"time": 96364, "pitch": 79, "duration": 337, "velocity": 100}, {"time": 96721, "pitch": 75, "duration": 277, "velocity": 95}, {"time": 97199, "pitch": 75, "duration": 100, "velocity": 100}, {"time": 97319, "pitch": 75, "duration": 101, "velocity": 95}, {"time": 97440, "pitch": 84, "duration": 221, "velocity": 100}, {"time": 97681, "pitch": 82, "duration": 100, "velocity": 95}, {"time": 97922, "pitch": 79, "duration": 121, "velocity": 100}, {"time": 98043, "pitch": 75, "duration": 100, "velocity": 90}, {"time": 98163, "pitch": 79, "duration": 101, "velocity": 95}, {"time": 98284, "pitch": 75, "duration": 100, "velocity": 90}, {"time": 98404, "pitch": 79, "duration": 99, "velocity": 100}, {"time": 98523, "pitch": 77, "duration": 98, "velocity": 95}, {"time": 98641, "pitch": 79, "duration": 99, "velocity": 100}, {"time": 98759, "pitch": 77, "duration": 99, "velocity": 90}, {"time": 98878, "pitch": 79, "duration": 100, "velocity": 100}, {"time": 98998, "pitch": 77, "duration": 101, "velocity": 95}, {"time": 99119, "pitch": 79, "duration": 100, "velocity": 100}, {"time": 99240, "pitch": 77, "duration": 100, "velocity": 90}, {"time": 99360, "pitch": 79, "duration": 100, "velocity": 100}, {"time": 99481, "pitch": 79, "duration": 100, "velocity": 95}, {"time": 99722, "pitch": 84, "duration": 100, "velocity": 100}, {"time": 100079, "pitch": 77, "duration": 458, "velocity": 100}, {"time": 100557, "pitch": 75, "duration": 241, "velocity": 95}, {"time": 100798, "pitch": 77, "duration": 241, "velocity": 100}, {"time": 101039, "pitch": 79, "duration": 241, "velocity": 95}, {"time": 101280, "pitch": 77, "duration": 241, "velocity": 100}, {"time": 101521, "pitch": 75, "duration": 656, "velocity": 95}, {"time": 102477, "pitch": 72, "duration": 221, "velocity": 95}, {"time": 102718, "pitch": 75, "duration": 221, "velocity": 100}, {"time": 102959, "pitch": 72, "duration": 121, "velocity": 95}, {"time": 103200, "pitch": 82, "duration": 221, "velocity": 100}, {"time": 103441, "pitch": 80, "duration": 101, "velocity": 90}, {"time": 103682, "pitch": 79, "duration": 237, "velocity": 95}, {"time": 103919, "pitch": 80, "duration": 247, "velocity": 100}, {"time": 104156, "pitch": 78, "duration": 1920, "velocity": 100}, {"time": 106076, "pitch": 77, "duration": 131, "velocity": 95}, {"time": 106317, "pitch": 75, "duration": 101, "velocity": 100}, {"time": 106438, "pitch": 75, "duration": 100, "velocity": 90}, {"time": 121200, "pitch": 82, "duration": 227, "velocity": 95}, {"time": 121437, "pitch": 80, "duration": 221, "velocity": 100}, {"time": 121678, "pitch": 79, "duration": 221, "velocity": 95}, {"time": 121919, "pitch": 77, "duration": 221, "velocity": 90}, {"time": 122160, "pitch": 75, "duration": 261, "velocity": 95}, {"time": 122642, "pitch": 77, "duration": 221, "velocity": 95}, {"time": 122883, "pitch": 75, "duration": 217, "velocity": 100}, {"time": 123120, "pitch": 77, "duration": 227, "velocity": 90}, {"time": 123357, "pitch": 79, "duration": 221, "velocity": 100}, {"time": 123598, "pitch": 77, "duration": 141, "velocity": 95}, {"time": 123839, "pitch": 75, "duration": 221, "velocity": 100}, {"time": 124080, "pitch": 70, "duration": 221, "velocity": 95}, {"time": 124321, "pitch": 72, "duration": 141, "velocity": 100}, {"time": 124562, "pitch": 75, "duration": 458, "velocity": 100}, {"time": 125040, "pitch": 82, "duration": 227, "velocity": 95}, {"time": 125277, "pitch": 80, "duration": 231, "velocity": 100}, {"time": 125518, "pitch": 79, "duration": 221, "velocity": 95}, {"time": 125759, "pitch": 77, "duration": 221, "velocity": 100}, {"time": 126000, "pitch": 75, "duration": 221, "velocity": 95}, {"time": 126482, "pitch": 77, "duration": 221, "velocity": 95}, {"time": 126723, "pitch": 75, "duration": 237, "velocity": 100}, {"time": 126960, "pitch": 77, "duration": 227, "velocity": 90}, {"time": 127197, "pitch": 82, "duration": 221, "velocity": 100}, {"time": 127438, "pitch": 80, "duration": 221, "velocity": 95}, {"time": 127679, "pitch": 78, "duration": 101, "velocity": 90}, {"time": 127800, "pitch": 80, "duration": 120, "velocity": 100}, {"time": 128041, "pitch": 84, "duration": 120, "velocity": 95}, {"time": 128282, "pitch": 82, "duration": 2261, "velocity": 100}, {"time": 130682, "pitch": 77, "duration": 99, "velocity": 95}, {"time": 130800, "pitch": 79, "duration": 99, "velocity": 100}, {"time": 130919, "pitch": 77, "duration": 99, "velocity": 90}, {"time": 131037, "pitch": 79, "duration": 101, "velocity": 100}, {"time": 131158, "pitch": 77, "duration": 100, "velocity": 95}, {"time": 131278, "pitch": 79, "duration": 101, "velocity": 100}, {"time": 131399, "pitch": 77, "duration": 100, "velocity": 90}, {"time": 131519, "pitch": 79, "duration": 101, "velocity": 100}, {"time": 131640, "pitch": 77, "duration": 100, "velocity": 95}, {"time": 131760, "pitch": 79, "duration": 101, "velocity": 100}, {"time": 131881, "pitch": 77, "duration": 100, "velocity": 90}, {"time": 132001, "pitch": 79, "duration": 101, "velocity": 100}, {"time": 132122, "pitch": 79, "duration": 100, "velocity": 95}, {"time": 132363, "pitch": 84, "duration": 100, "velocity": 100}, {"time": 132720, "pitch": 77, "duration": 458, "velocity": 100}, {"time": 133198, "pitch": 75, "duration": 241, "velocity": 95}, {"time": 133439, "pitch": 77, "duration": 241, "velocity": 100}, {"time": 133680, "pitch": 79, "duration": 241, "velocity": 95}, {"time": 133921, "pitch": 77, "duration": 242, "velocity": 100}, {"time": 134163, "pitch": 75, "duration": 655, "velocity": 95}, {"time": 135118, "pitch": 72, "duration": 221, "velocity": 95}, {"time": 135359, "pitch": 75, "duration": 221, "velocity": 100}, {"time": 135600, "pitch": 72, "duration": 121, "velocity": 90}, {"time": 135721, "pitch": 82, "duration": 341, "velocity": 100}, {"time": 136083, "pitch": 80, "duration": 100, "velocity": 95}, {"time": 136324, "pitch": 79, "duration": 217, "velocity": 100}, {"time": 136561, "pitch": 80, "duration": 98, "velocity": 95}, {"time": 136679, "pitch": 79, "duration": 339, "velocity": 100}, {"time": 137038, "pitch": 75, "duration": 282, "velocity": 95}, {"time": 137521, "pitch": 75, "duration": 100, "velocity": 100}, {"time": 137641, "pitch": 75, "duration": 101, "velocity": 95}, {"time": 137762, "pitch": 84, "duration": 221, "velocity": 100}, {"time": 138003, "pitch": 82, "duration": 100, "velocity": 95}, {"time": 138244, "pitch": 79, "duration": 118, "velocity": 100}, {"time": 138362, "pitch": 75, "duration": 99, "velocity": 90}, {"time": 138481, "pitch": 79, "duration": 98, "velocity": 95}, {"time": 138599, "pitch": 75, "duration": 99, "velocity": 90}, {"time": 138718, "pitch": 79, "duration": 100, "velocity": 100}, {"time": 138838, "pitch": 77, "duration": 100, "velocity": 95}, {"time": 138959, "pitch": 79, "duration": 100, "velocity": 100}, {"time": 139079, "pitch": 77, "duration": 101, "velocity": 90}, {"time": 139200, "pitch": 79, "duration": 100, "velocity": 100}, {"time": 139320, "pitch": 77, "duration": 101, "velocity": 95}, {"time": 139441, "pitch": 79, "duration": 100, "velocity": 100}, {"time": 139561, "pitch": 77, "duration": 101, "velocity": 90}, {"time": 139682, "pitch": 79, "duration": 100, "velocity": 100}, {"time": 139802, "pitch": 79, "duration": 101, "velocity": 95}, {"time": 140043, "pitch": 84, "duration": 101, "velocity": 100}, {"time": 140401, "pitch": 77, "duration": 458, "velocity": 100}, {"time": 140879, "pitch": 75, "duration": 241, "velocity": 95}, {"time": 141120, "pitch": 77, "duration": 241, "velocity": 100}, {"time": 141361, "pitch": 79, "duration": 241, "velocity": 95}, {"time": 141602, "pitch": 77, "duration": 241, "velocity": 100}, {"time": 141843, "pitch": 75, "duration": 655, "velocity": 95}, {"time": 142799, "pitch": 72, "duration": 221, "velocity": 95}, {"time": 143040, "pitch": 75, "duration": 221, "velocity": 100}, {"time": 143281, "pitch": 72, "duration": 120, "velocity": 95}, {"time": 143522, "pitch": 82, "duration": 221, "velocity": 100}, {"time": 143763, "pitch": 80, "duration": 100, "velocity": 90}, {"time": 144004, "pitch": 79, "duration": 237, "velocity": 95}, {"time": 144241, "pitch": 80, "duration": 247, "velocity": 100}, {"time": 144478, "pitch": 78, "duration": 1285, "velocity": 100}, {"time": 146042, "pitch": 77, "duration": 99, "velocity": 95}, {"time": 146161, "pitch": 79, "duration": 99, "velocity": 100}, {"time": 146279, "pitch": 77, "duration": 99, "velocity": 90}, {"time": 146398, "pitch": 79, "duration": 100, "velocity": 100}, {"time": 146518, "pitch": 77, "duration": 101, "velocity": 95}, {"time": 146639, "pitch": 79, "duration": 100, "velocity": 100}, {"time": 146759, "pitch": 77, "duration": 101, "velocity": 90}, {"time": 146880, "pitch": 79, "duration": 100, "velocity": 100}, {"time": 147000, "pitch": 77, "duration": 101, "velocity": 95}, {"time": 147121, "pitch": 79, "duration": 100, "velocity": 100}, {"time": 147241, "pitch": 77, "duration": 101, "velocity": 90}, {"time": 147362, "pitch": 79, "duration": 100, "velocity": 100}, {"time": 147483, "pitch": 79, "duration": 100, "velocity": 95}, {"time": 147724, "pitch": 84, "duration": 100, "velocity": 100}, {"time": 148081, "pitch": 77, "duration": 458, "velocity": 100}, {"time": 148559, "pitch": 75, "duration": 241, "velocity": 95}, {"time": 148800, "pitch": 77, "duration": 241, "velocity": 100}, {"time": 149041, "pitch": 79, "duration": 241, "velocity": 95}, {"time": 149282, "pitch": 77, "duration": 237, "velocity": 100}, {"time": 149519, "pitch": 75, "duration": 659, "velocity": 95}, {"time": 150479, "pitch": 72, "duration": 221, "velocity": 95}, {"time": 150720, "pitch": 75, "duration": 221, "velocity": 100}, {"time": 150961, "pitch": 72, "duration": 121, "velocity": 90}, {"time": 151082, "pitch": 82, "duration": 337, "velocity": 100}, {"time": 151439, "pitch": 80, "duration": 99, "velocity": 95}, {"time": 151676, "pitch": 79, "duration": 221, "velocity": 100}, {"time": 151917, "pitch": 80, "duration": 100, "velocity": 95}, {"time": 152038, "pitch": 79, "duration": 341, "velocity": 100}, {"time": 152399, "pitch": 75, "duration": 281, "velocity": 95}, {"time": 152881, "pitch": 75, "duration": 101, "velocity": 100}, {"time": 153002, "pitch": 75, "duration": 100, "velocity": 95}, {"time": 153122, "pitch": 84, "duration": 217, "velocity": 100}, {"time": 153359, "pitch": 82, "duration": 99, "velocity": 95}, {"time": 153596, "pitch": 79, "duration": 121, "velocity": 100}, {"time": 153717, "pitch": 75, "duration": 100, "velocity": 90}, {"time": 153837, "pitch": 79, "duration": 101, "velocity": 95}, {"time": 153958, "pitch": 75, "duration": 100, "velocity": 90}, {"time": 154078, "pitch": 79, "duration": 101, "velocity": 100}, {"time": 154199, "pitch": 77, "duration": 100, "velocity": 95}, {"time": 154319, "pitch": 79, "duration": 101, "velocity": 100}, {"time": 154440, "pitch": 77, "duration": 100, "velocity": 90}, {"time": 154560, "pitch": 79, "duration": 101, "velocity": 100}, {"time": 154681, "pitch": 77, "duration": 100, "velocity": 95}, {"time": 154801, "pitch": 79, "duration": 101, "velocity": 100}, {"time": 154922, "pitch": 77, "duration": 100, "velocity": 90}, {"time": 155042, "pitch": 79, "duration": 99, "velocity": 100}, {"time": 155161, "pitch": 79, "duration": 99, "velocity": 95}, {"time": 155398, "pitch": 84, "duration": 98, "velocity": 100}, {"time": 155757, "pitch": 77, "duration": 462, "velocity": 100}, {"time": 156239, "pitch": 75, "duration": 241, "velocity": 95}, {"time": 156480, "pitch": 77, "duration": 241, "velocity": 100}, {"time": 156721, "pitch": 79, "duration": 241, "velocity": 95}, {"time": 156962, "pitch": 77, "duration": 237, "velocity": 100}, {"time": 157199, "pitch": 75, "duration": 659, "velocity": 95}, {"time": 158159, "pitch": 72, "duration": 221, "velocity": 95}, {"time": 158400, "pitch": 75, "duration": 221, "velocity": 100}, {"time": 158641, "pitch": 72, "duration": 121, "velocity": 95}, {"time": 158882, "pitch": 82, "duration": 218, "velocity": 100}, {"time": 159119, "pitch": 80, "duration": 99, "velocity": 90}, {"time": 159356, "pitch": 79, "duration": 241, "velocity": 95}, {"time": 159597, "pitch": 80, "duration": 251, "velocity": 100}, {"time": 159838, "pitch": 78, "duration": 1920, "velocity": 100}, {"time": 161758, "pitch": 77, "duration": 121, "velocity": 95}, {"time": 162000, "pitch": 75, "duration": 100, "velocity": 100}, {"time": 162120, "pitch": 75, "duration": 100, "velocity": 90}, {"time": 2410, "pitch": 75, "duration": 241, "velocity": 90}, {"time": 2651, "pitch": 75, "duration": 241, "velocity": 85}, {"time": 3366, "pitch": 73, "duration": 241, "velocity": 90}, {"time": 3607, "pitch": 73, "duration": 241, "velocity": 85}, {"time": 6250, "pitch": 75, "duration": 241, "velocity": 90}, {"time": 6491, "pitch": 75, "duration": 241, "velocity": 85}, {"time": 7206, "pitch": 73, "duration": 241, "velocity": 90}, {"time": 7447, "pitch": 73, "duration": 241, "velocity": 85}, {"time": 10091, "pitch": 75, "duration": 241, "velocity": 90}, {"time": 10332, "pitch": 75, "duration": 240, "velocity": 85}, {"time": 11046, "pitch": 73, "duration": 241, "velocity": 90}, {"time": 11287, "pitch": 73, "duration": 242, "velocity": 85}, {"time": 13931, "pitch": 75, "duration": 241, "velocity": 90}, {"time": 14172, "pitch": 75, "duration": 241, "velocity": 85}, {"time": 14887, "pitch": 73, "duration": 241, "velocity": 90}, {"time": 15128, "pitch": 73, "duration": 241, "velocity": 85}, {"time": 42732, "pitch": 80, "duration": 241, "velocity": 90}, {"time": 42973, "pitch": 80, "duration": 241, "velocity": 85}, {"time": 43688, "pitch": 80, "duration": 241, "velocity": 90}, {"time": 43929, "pitch": 80, "duration": 241, "velocity": 85}, {"time": 44411, "pitch": 79, "duration": 713, "velocity": 90}, {"time": 45361, "pitch": 77, "duration": 478, "velocity": 90}, {"time": 46080, "pitch": 79, "duration": 482, "velocity": 90}, {"time": 46562, "pitch": 77, "duration": 241, "velocity": 90}, {"time": 46803, "pitch": 77, "duration": 241, "velocity": 85}, {"time": 47518, "pitch": 79, "duration": 241, "velocity": 90}, {"time": 47759, "pitch": 79, "duration": 241, "velocity": 85}, {"time": 48241, "pitch": 80, "duration": 715, "velocity": 90}, {"time": 49197, "pitch": 82, "duration": 1205, "velocity": 90}, {"time": 50402, "pitch": 80, "duration": 237, "velocity": 90}, {"time": 50639, "pitch": 80, "duration": 237, "velocity": 85}, {"time": 51358, "pitch": 80, "duration": 241, "velocity": 90}, {"time": 51599, "pitch": 80, "duration": 241, "velocity": 85}, {"time": 52081, "pitch": 79, "duration": 715, "velocity": 90}, {"time": 53037, "pitch": 77, "duration": 482, "velocity": 90}, {"time": 53760, "pitch": 79, "duration": 482, "velocity": 90}, {"time": 54242, "pitch": 77, "duration": 474, "velocity": 90}, {"time": 55198, "pitch": 79, "duration": 482, "velocity": 90}, {"time": 56162, "pitch": 80, "duration": 474, "velocity": 90}, {"time": 58092, "pitch": 75, "duration": 237, "velocity": 90}, {"time": 58329, "pitch": 75, "duration": 237, "velocity": 85}, {"time": 59048, "pitch": 73, "duration": 241, "velocity": 90}, {"time": 59289, "pitch": 73, "duration": 241, "velocity": 85}, {"time": 61932, "pitch": 75, "duration": 237, "velocity": 90}, {"time": 62169, "pitch": 75, "duration": 237, "velocity": 85}, {"time": 62889, "pitch": 73, "duration": 241, "velocity": 90}, {"time": 63130, "pitch": 73, "duration": 241, "velocity": 85}, {"time": 90734, "pitch": 80, "duration": 237, "velocity": 90}, {"time": 90971, "pitch": 80, "duration": 237, "velocity": 85}, {"time": 91690, "pitch": 80, "duration": 241, "velocity": 90}, {"time": 91931, "pitch": 80, "duration": 241, "velocity": 85}, {"time": 92413, "pitch": 79, "duration": 705, "velocity": 90}, {"time": 93359, "pitch": 77, "duration": 482, "velocity": 90}, {"time": 94082, "pitch": 79, "duration": 482, "velocity": 90}, {"time": 94564, "pitch": 77, "duration": 237, "velocity": 90}, {"time": 94801, "pitch": 77, "duration": 237, "velocity": 85}, {"time": 95520, "pitch": 79, "duration": 241, "velocity": 90}, {"time": 95761, "pitch": 79, "duration": 241, "velocity": 85}, {"time": 96243, "pitch": 80, "duration": 715, "velocity": 90}, {"time": 97199, "pitch": 82, "duration": 1205, "velocity": 90}, {"time": 98404, "pitch": 80, "duration": 237, "velocity": 90}, {"time": 98641, "pitch": 80, "duration": 237, "velocity": 85}, {"time": 99360, "pitch": 80, "duration": 241, "velocity": 90}, {"time": 99601, "pitch": 80, "duration": 241, "velocity": 85}, {"time": 100079, "pitch": 79, "duration": 719, "velocity": 90}, {"time": 101039, "pitch": 77, "duration": 482, "velocity": 90}, {"time": 101762, "pitch": 79, "duration": 474, "velocity": 90}, {"time": 102236, "pitch": 77, "duration": 482, "velocity": 90}, {"time": 103200, "pitch": 79, "duration": 482, "velocity": 90}, {"time": 104156, "pitch": 80, "duration": 482, "velocity": 90}, {"time": 107759, "pitch": 63, "duration": 119, "velocity": 90}, {"time": 107878, "pitch": 63, "duration": 118, "velocity": 85}, {"time": 107996, "pitch": 63, "duration": 121, "velocity": 90}, {"time": 108117, "pitch": 63, "duration": 120, "velocity": 85}, {"time": 108237, "pitch": 63, "duration": 121, "velocity": 90}, {"time": 108358, "pitch": 63, "duration": 120, "velocity": 85}, {"time": 108478, "pitch": 63, "duration": 121, "velocity": 90}, {"time": 108599, "pitch": 63, "duration": 120, "velocity": 85}, {"time": 108719, "pitch": 63, "duration": 121, "velocity": 90}, {"time": 108840, "pitch": 63, "duration": 120, "velocity": 85}, {"time": 108960, "pitch": 63, "duration": 121, "velocity": 90}, {"time": 109081, "pitch": 63, "duration": 120, "velocity": 85}, {"time": 109201, "pitch": 63, "duration": 121, "velocity": 90}, {"time": 109322, "pitch": 63, "duration": 120, "velocity": 85}, {"time": 109442, "pitch": 63, "duration": 119, "velocity": 90}, {"time": 109561, "pitch": 63, "duration": 118, "velocity": 85}, {"time": 109679, "pitch": 63, "duration": 119, "velocity": 90}, {"time": 109798, "pitch": 63, "duration": 118, "velocity": 85}, {"time": 109916, "pitch": 67, "duration": 382, "velocity": 90}, {"time": 131047, "pitch": 80, "duration": 241, "velocity": 90}, {"time": 131288, "pitch": 80, "duration": 241, "velocity": 85}, {"time": 132011, "pitch": 80, "duration": 241, "velocity": 90}, {"time": 132252, "pitch": 80, "duration": 241, "velocity": 85}, {"time": 132730, "pitch": 79, "duration": 709, "velocity": 90}, {"time": 133680, "pitch": 77, "duration": 483, "velocity": 90}, {"time": 134403, "pitch": 79, "duration": 474, "velocity": 90}, {"time": 134877, "pitch": 77, "duration": 241, "velocity": 90}, {"time": 135118, "pitch": 77, "duration": 241, "velocity": 85}, {"time": 135842, "pitch": 79, "duration": 241, "velocity": 90}, {"time": 136083, "pitch": 79, "duration": 241, "velocity": 85}, {"time": 136561, "pitch": 80, "duration": 719, "velocity": 90}, {"time": 137521, "pitch": 82, "duration": 1197, "velocity": 90}, {"time": 138718, "pitch": 80, "duration": 241, "velocity": 90}, {"time": 138959, "pitch": 80, "duration": 241, "velocity": 85}, {"time": 139682, "pitch": 80, "duration": 241, "velocity": 90}, {"time": 139923, "pitch": 80, "duration": 241, "velocity": 85}, {"time": 140401, "pitch": 79, "duration": 719, "velocity": 90}, {"time": 141361, "pitch": 77, "duration": 482, "velocity": 90}, {"time": 142084, "pitch": 79, "duration": 474, "velocity": 90}, {"time": 142558, "pitch": 77, "duration": 482, "velocity": 90}, {"time": 143522, "pitch": 79, "duration": 482, "velocity": 90}, {"time": 144478, "pitch": 80, "duration": 482, "velocity": 90}, {"time": 146408, "pitch": 80, "duration": 241, "velocity": 90}, {"time": 146649, "pitch": 80, "duration": 241, "velocity": 85}, {"time": 147372, "pitch": 80, "duration": 241, "velocity": 90}, {"time": 147613, "pitch": 80, "duration": 241, "velocity": 85}, {"time": 148091, "pitch": 79, "duration": 709, "velocity": 90}, {"time": 149041, "pitch": 77, "duration": 478, "velocity": 90}, {"time": 149756, "pitch": 79, "duration": 482, "velocity": 90}, {"time": 150238, "pitch": 77, "duration": 241, "velocity": 90}, {"time": 150479, "pitch": 77, "duration": 241, "velocity": 85}, {"time": 151202, "pitch": 79, "duration": 237, "velocity": 90}, {"time": 151439, "pitch": 79, "duration": 237, "velocity": 85}, {"time": 151917, "pitch": 80, "duration": 723, "velocity": 90}, {"time": 152881, "pitch": 82, "duration": 1197, "velocity": 90}, {"time": 154078, "pitch": 80, "duration": 241, "velocity": 90}, {"time": 154319, "pitch": 80, "duration": 241, "velocity": 85}, {"time": 155042, "pitch": 80, "duration": 237, "velocity": 90}, {"time": 155279, "pitch": 80, "duration": 237, "velocity": 85}, {"time": 155757, "pitch": 79, "duration": 723, "velocity": 90}, {"time": 156721, "pitch": 77, "duration": 478, "velocity": 90}, {"time": 157436, "pitch": 79, "duration": 482, "velocity": 90}, {"time": 157918, "pitch": 77, "duration": 482, "velocity": 90}, {"time": 158882, "pitch": 79, "duration": 474, "velocity": 90}, {"time": 159838, "pitch": 80, "duration": 482, "velocity": 90}, {"time": 161769, "pitch": 75, "duration": 241, "velocity": 90}, {"time": 162010, "pitch": 75, "duration": 241, "velocity": 85}, {"time": 162732, "pitch": 73, "duration": 237, "velocity": 90}, {"time": 162969, "pitch": 73, "duration": 238, "velocity": 85}, {"time": 165609, "pitch": 75, "duration": 241, "velocity": 90}, {"time": 165850, "pitch": 75, "duration": 241, "velocity": 85}, {"time": 166573, "pitch": 73, "duration": 237, "velocity": 90}, {"time": 166810, "pitch": 73, "duration": 237, "velocity": 85}, {"time": 169449, "pitch": 75, "duration": 241, "velocity": 90}, {"time": 169690, "pitch": 75, "duration": 241, "velocity": 85}, {"time": 170413, "pitch": 73, "duration": 237, "velocity": 90}, {"time": 170650, "pitch": 73, "duration": 237, "velocity": 85}, {"time": 173289, "pitch": 75, "duration": 241, "velocity": 90}, {"time": 173530, "pitch": 75, "duration": 241, "velocity": 85}, {"time": 174253, "pitch": 73, "duration": 237, "velocity": 90}, {"time": 174490, "pitch": 73, "duration": 237, "velocity": 85}, {"time": 2400, "pitch": 79, "duration": 241, "velocity": 110}, {"time": 2641, "pitch": 79, "duration": 241, "velocity": 105}, {"time": 3356, "pitch": 77, "duration": 241, "velocity": 110}, {"time": 3597, "pitch": 77, "duration": 241, "velocity": 105}, {"time": 4079, "pitch": 75, "duration": 2161, "velocity": 110}, {"time": 6240, "pitch": 79, "duration": 241, "velocity": 110}, {"time": 6481, "pitch": 79, "duration": 241, "velocity": 105}, {"time": 7196, "pitch": 77, "duration": 241, "velocity": 110}, {"time": 7437, "pitch": 77, "duration": 241, "velocity": 105}, {"time": 7919, "pitch": 75, "duration": 2161, "velocity": 110}, {"time": 10080, "pitch": 79, "duration": 242, "velocity": 110}, {"time": 10322, "pitch": 79, "duration": 241, "velocity": 105}, {"time": 11036, "pitch": 77, "duration": 241, "velocity": 110}, {"time": 11277, "pitch": 77, "duration": 241, "velocity": 105}, {"time": 11760, "pitch": 75, "duration": 2161, "velocity": 110}, {"time": 13921, "pitch": 79, "duration": 241, "velocity": 110}, {"time": 14162, "pitch": 79, "duration": 241, "velocity": 105}, {"time": 14877, "pitch": 77, "duration": 241, "velocity": 110}, {"time": 15118, "pitch": 77, "duration": 241, "velocity": 105}, {"time": 15600, "pitch": 75, "duration": 2161, "velocity": 110}, {"time": 58082, "pitch": 79, "duration": 237, "velocity": 110}, {"time": 58319, "pitch": 79, "duration": 237, "velocity": 105}, {"time": 59038, "pitch": 77, "duration": 241, "velocity": 110}, {"time": 59279, "pitch": 77, "duration": 241, "velocity": 105}, {"time": 59761, "pitch": 75, "duration": 2162, "velocity": 110}, {"time": 61923, "pitch": 79, "duration": 237, "velocity": 110}, {"time": 62160, "pitch": 79, "duration": 236, "velocity": 105}, {"time": 62879, "pitch": 77, "duration": 241, "velocity": 110}, {"time": 63120, "pitch": 77, "duration": 241, "velocity": 105}, {"time": 63602, "pitch": 75, "duration": 2161, "velocity": 110}, {"time": 161758, "pitch": 79, "duration": 242, "velocity": 110}, {"time": 162000, "pitch": 79, "duration": 241, "velocity": 105}, {"time": 162723, "pitch": 77, "duration": 237, "velocity": 110}, {"time": 162960, "pitch": 77, "duration": 237, "velocity": 105}, {"time": 163438, "pitch": 75, "duration": 2161, "velocity": 110}, {"time": 165599, "pitch": 79, "duration": 241, "velocity": 110}, {"time": 165840, "pitch": 79, "duration": 241, "velocity": 105}, {"time": 166563, "pitch": 77, "duration": 237, "velocity": 110}, {"time": 166800, "pitch": 77, "duration": 237, "velocity": 105}, {"time": 167278, "pitch": 75, "duration": 2161, "velocity": 110}, {"time": 169439, "pitch": 79, "duration": 241, "velocity": 110}, {"time": 169680, "pitch": 79, "duration": 241, "velocity": 105}, {"time": 170403, "pitch": 77, "duration": 237, "velocity": 110}, {"time": 170640, "pitch": 77, "duration": 237, "velocity": 105}, {"time": 171118, "pitch": 75, "duration": 2161, "velocity": 110}, {"time": 173279, "pitch": 79, "duration": 241, "velocity": 110}, {"time": 173520, "pitch": 79, "duration": 241, "velocity": 105}, {"time": 174243, "pitch": 77, "duration": 237, "velocity": 110}, {"time": 174480, "pitch": 77, "duration": 237, "velocity": 105}, {"time": 174958, "pitch": 75, "duration": 2161, "velocity": 110}, {"time": 2410, "pitch": 79, "duration": 241, "velocity": 110}, {"time": 2651, "pitch": 79, "duration": 241, "velocity": 105}, {"time": 3366, "pitch": 77, "duration": 241, "velocity": 110}, {"time": 3607, "pitch": 77, "duration": 241, "velocity": 105}, {"time": 6250, "pitch": 79, "duration": 241, "velocity": 110}, {"time": 6491, "pitch": 79, "duration": 241, "velocity": 105}, {"time": 7206, "pitch": 77, "duration": 241, "velocity": 110}, {"time": 7447, "pitch": 77, "duration": 241, "velocity": 105}, {"time": 10091, "pitch": 79, "duration": 241, "velocity": 110}, {"time": 10332, "pitch": 79, "duration": 240, "velocity": 105}, {"time": 11046, "pitch": 77, "duration": 241, "velocity": 110}, {"time": 11287, "pitch": 77, "duration": 242, "velocity": 105}, {"time": 13931, "pitch": 79, "duration": 241, "velocity": 110}, {"time": 14172, "pitch": 79, "duration": 241, "velocity": 105}, {"time": 14887, "pitch": 77, "duration": 241, "velocity": 110}, {"time": 15128, "pitch": 77, "duration": 241, "velocity": 105}, {"time": 58092, "pitch": 79, "duration": 237, "velocity": 110}, {"time": 58329, "pitch": 79, "duration": 237, "velocity": 105}, {"time": 59048, "pitch": 77, "duration": 241, "velocity": 110}, {"time": 59289, "pitch": 77, "duration": 241, "velocity": 105}, {"time": 61932, "pitch": 79, "duration": 237, "velocity": 110}, {"time": 62169, "pitch": 79, "duration": 237, "velocity": 105}, {"time": 62889, "pitch": 77, "duration": 241, "velocity": 110}, {"time": 63130, "pitch": 77, "duration": 241, "velocity": 105}, {"time": 161769, "pitch": 79, "duration": 241, "velocity": 110}, {"time": 162010, "pitch": 79, "duration": 241, "velocity": 105}, {"time": 162732, "pitch": 77, "duration": 237, "velocity": 110}, {"time": 162969, "pitch": 77, "duration": 238, "velocity": 105}, {"time": 165609, "pitch": 79, "duration": 241, "velocity": 110}, {"time": 165850, "pitch": 79, "duration": 241, "velocity": 105}, {"time": 166573, "pitch": 77, "duration": 237, "velocity": 110}, {"time": 166810, "pitch": 77, "duration": 237, "velocity": 105}, {"time": 169449, "pitch": 79, "duration": 241, "velocity": 110}, {"time": 169690, "pitch": 79, "duration": 241, "velocity": 105}, {"time": 170413, "pitch": 77, "duration": 237, "velocity": 110}, {"time": 170650, "pitch": 77, "duration": 237, "velocity": 105}, {"time": 173289, "pitch": 79, "duration": 241, "velocity": 110}, {"time": 173530, "pitch": 79, "duration": 241, "velocity": 105}, {"time": 174253, "pitch": 77, "duration": 237, "velocity": 110}, {"time": 174490, "pitch": 77, "duration": 237, "velocity": 105}, {"time": 1918, "pitch": 61, "duration": 462, "velocity": 100}, {"time": 2400, "pitch": 51, "duration": 241, "velocity": 90}, {"time": 2400, "pitch": 58, "duration": 241, "velocity": 95}, {"time": 2410, "pitch": 63, "duration": 241, "velocity": 100}, {"time": 2641, "pitch": 51, "duration": 221, "velocity": 85}, {"time": 2641, "pitch": 58, "duration": 221, "velocity": 90}, {"time": 2651, "pitch": 63, "duration": 221, "velocity": 95}, {"time": 2882, "pitch": 66, "duration": 40, "velocity": 90}, {"time": 3001, "pitch": 78, "duration": 39, "velocity": 85}, {"time": 3119, "pitch": 66, "duration": 40, "velocity": 90}, {"time": 3238, "pitch": 49, "duration": 39, "velocity": 85}, {"time": 3356, "pitch": 49, "duration": 241, "velocity": 90}, {"time": 3356, "pitch": 56, "duration": 241, "velocity": 95}, {"time": 3366, "pitch": 61, "duration": 241, "velocity": 100}, {"time": 3597, "pitch": 49, "duration": 241, "velocity": 85}, {"time": 3597, "pitch": 56, "duration": 241, "velocity": 90}, {"time": 3607, "pitch": 61, "duration": 241, "velocity": 95}, {"time": 4079, "pitch": 60, "duration": 583, "velocity": 100}, {"time": 4802, "pitch": 60, "duration": 336, "velocity": 95}, {"time": 5276, "pitch": 44, "duration": 241, "velocity": 100}, {"time": 5276, "pitch": 51, "duration": 241, "velocity": 95}, {"time": 5286, "pitch": 56, "duration": 241, "velocity": 90}, {"time": 5517, "pitch": 44, "duration": 241, "velocity": 95}, {"time": 5517, "pitch": 51, "duration": 241, "velocity": 90}, {"time": 5527, "pitch": 56, "duration": 241, "velocity": 85}, {"time": 5758, "pitch": 44, "duration": 181, "velocity": 100}, {"time": 5758, "pitch": 51, "duration": 181, "velocity": 95}, {"time": 5768, "pitch": 56, "duration": 181, "velocity": 90}, {"time": 5879, "pitch": 63, "duration": 120, "velocity": 90}, {"time": 5999, "pitch": 44, "duration": 221, "velocity": 100}, {"time": 5999, "pitch": 51, "duration": 221, "velocity": 95}, {"time": 6009, "pitch": 56, "duration": 221, "velocity": 90}, {"time": 6240, "pitch": 51, "duration": 241, "velocity": 90}, {"time": 6240, "pitch": 58, "duration": 241, "velocity": 95}, {"time": 6250, "pitch": 63, "duration": 241, "velocity": 100}, {"time": 6481, "pitch": 51, "duration": 221, "velocity": 85}, {"time": 6481, "pitch": 58, "duration": 221, "velocity": 90}, {"time": 6491, "pitch": 63, "duration": 221, "velocity": 95}, {"time": 6722, "pitch": 54, "duration": 40, "velocity": 90}, {"time": 6959, "pitch": 54, "duration": 40, "velocity": 90}, {"time": 7078, "pitch": 49, "duration": 39, "velocity": 85}, {"time": 7196, "pitch": 49, "duration": 241, "velocity": 90}, {"time": 7196, "pitch": 56, "duration": 241, "velocity": 95}, {"time": 7206, "pitch": 61, "duration": 241, "velocity": 100}, {"time": 7437, "pitch": 49, "duration": 241, "velocity": 85}, {"time": 7437, "pitch": 56, "duration": 241, "velocity": 90}, {"time": 7447, "pitch": 61, "duration": 231, "velocity": 95}, {"time": 7678, "pitch": 59, "duration": 61, "velocity": 95}, {"time": 7799, "pitch": 71, "duration": 60, "velocity": 90}, {"time": 7919, "pitch": 60, "duration": 583, "velocity": 100}, {"time": 8642, "pitch": 60, "duration": 336, "velocity": 95}, {"time": 9116, "pitch": 44, "duration": 241, "velocity": 100}, {"time": 9116, "pitch": 51, "duration": 241, "velocity": 95}, {"time": 9126, "pitch": 56, "duration": 241, "velocity": 90}, {"time": 9357, "pitch": 44, "duration": 20, "velocity": 95}, {"time": 9357, "pitch": 51, "duration": 20, "velocity": 90}, {"time": 9367, "pitch": 56, "duration": 20, "velocity": 85}, {"time": 9478, "pitch": 44, "duration": 20, "velocity": 80}, {"time": 9478, "pitch": 51, "duration": 20, "velocity": 85}, {"time": 9488, "pitch": 56, "duration": 20, "velocity": 90}, {"time": 9598, "pitch": 44, "duration": 241, "velocity": 100}, {"time": 9598, "pitch": 51, "duration": 241, "velocity": 95}, {"time": 9608, "pitch": 56, "duration": 241, "velocity": 90}, {"time": 9839, "pitch": 44, "duration": 21, "velocity": 95}, {"time": 9839, "pitch": 51, "duration": 21, "velocity": 90}, {"time": 9849, "pitch": 56, "duration": 21, "velocity": 85}, {"time": 9960, "pitch": 44, "duration": 20, "velocity": 80}, {"time": 9960, "pitch": 51, "duration": 20, "velocity": 85}, {"time": 9970, "pitch": 56, "duration": 20, "velocity": 90}, {"time": 10080, "pitch": 51, "duration": 242, "velocity": 90}, {"time": 10080, "pitch": 58, "duration": 242, "velocity": 95}, {"time": 10091, "pitch": 63, "duration": 241, "velocity": 100}, {"time": 10322, "pitch": 51, "duration": 220, "velocity": 85}, {"time": 10322, "pitch": 58, "duration": 220, "velocity": 90}, {"time": 10332, "pitch": 63, "duration": 221, "velocity": 95}, {"time": 10563, "pitch": 66, "duration": 39, "velocity": 90}, {"time": 10681, "pitch": 78, "duration": 39, "velocity": 85}, {"time": 10799, "pitch": 66, "duration": 40, "velocity": 90}, {"time": 10918, "pitch": 49, "duration": 39, "velocity": 85}, {"time": 11036, "pitch": 49, "duration": 241, "velocity": 90}, {"time": 11036, "pitch": 56, "duration": 241, "velocity": 95}, {"time": 11046, "pitch": 61, "duration": 241, "velocity": 100}, {"time": 11277, "pitch": 49, "duration": 241, "velocity": 85}, {"time": 11277, "pitch": 56, "duration": 241, "velocity": 90}, {"time": 11287, "pitch": 61, "duration": 242, "velocity": 95}, {"time": 11760, "pitch": 60, "duration": 582, "velocity": 100}, {"time": 12483, "pitch": 60, "duration": 335, "velocity": 95}, {"time": 12957, "pitch": 44, "duration": 241, "velocity": 100}, {"time": 12957, "pitch": 51, "duration": 241, "velocity": 95}, {"time": 12967, "pitch": 56, "duration": 241, "velocity": 90}, {"time": 13198, "pitch": 44, "duration": 241, "velocity": 95}, {"time": 13198, "pitch": 51, "duration": 241, "velocity": 90}, {"time": 13208, "pitch": 56, "duration": 241, "velocity": 85}, {"time": 13439, "pitch": 44, "duration": 180, "velocity": 100}, {"time": 13439, "pitch": 51, "duration": 180, "velocity": 95}, {"time": 13449, "pitch": 56, "duration": 180, "velocity": 90}, {"time": 13559, "pitch": 63, "duration": 121, "velocity": 90}, {"time": 13680, "pitch": 44, "duration": 221, "velocity": 100}, {"time": 13680, "pitch": 51, "duration": 221, "velocity": 95}, {"time": 13690, "pitch": 56, "duration": 221, "velocity": 90}, {"time": 13921, "pitch": 51, "duration": 241, "velocity": 90}, {"time": 13921, "pitch": 58, "duration": 241, "velocity": 95}, {"time": 13931, "pitch": 63, "duration": 241, "velocity": 100}, {"time": 14162, "pitch": 51, "duration": 221, "velocity": 85}, {"time": 14162, "pitch": 58, "duration": 221, "velocity": 90}, {"time": 14172, "pitch": 63, "duration": 221, "velocity": 95}, {"time": 14403, "pitch": 66, "duration": 39, "velocity": 90}, {"time": 14521, "pitch": 78, "duration": 40, "velocity": 85}, {"time": 14640, "pitch": 66, "duration": 39, "velocity": 90}, {"time": 14758, "pitch": 49, "duration": 40, "velocity": 85}, {"time": 14877, "pitch": 49, "duration": 241, "velocity": 90}, {"time": 14877, "pitch": 56, "duration": 241, "velocity": 95}, {"time": 14887, "pitch": 61, "duration": 241, "velocity": 100}, {"time": 15118, "pitch": 49, "duration": 241, "velocity": 85}, {"time": 15118, "pitch": 56, "duration": 241, "velocity": 90}, {"time": 15128, "pitch": 61, "duration": 241, "velocity": 95}, {"time": 15600, "pitch": 44, "duration": 1659, "velocity": 100}, {"time": 15600, "pitch": 51, "duration": 1659, "velocity": 95}, {"time": 15600, "pitch": 56, "duration": 1659, "velocity": 90}, {"time": 15610, "pitch": 60, "duration": 1649, "velocity": 85}, {"time": 17279, "pitch": 51, "duration": 462, "velocity": 85}, {"time": 17289, "pitch": 56, "duration": 462, "velocity": 90}, {"time": 33121, "pitch": 51, "duration": 241, "velocity": 90}, {"time": 33362, "pitch": 51, "duration": 241, "velocity": 85}, {"time": 33603, "pitch": 51, "duration": 237, "velocity": 90}, {"time": 33840, "pitch": 51, "duration": 237, "velocity": 85}, {"time": 34077, "pitch": 51, "duration": 241, "velocity": 90}, {"time": 34318, "pitch": 51, "duration": 241, "velocity": 85}, {"time": 34559, "pitch": 51, "duration": 241, "velocity": 90}, {"time": 34800, "pitch": 51, "duration": 242, "velocity": 85}, {"time": 35042, "pitch": 46, "duration": 220, "velocity": 95}, {"time": 35052, "pitch": 53, "duration": 221, "velocity": 100}, {"time": 35283, "pitch": 46, "duration": 20, "velocity": 90}, {"time": 35293, "pitch": 53, "duration": 20, "velocity": 95}, {"time": 35403, "pitch": 53, "duration": 20, "velocity": 90}, {"time": 35413, "pitch": 46, "duration": 20, "velocity": 85}, {"time": 35524, "pitch": 58, "duration": 217, "velocity": 95}, {"time": 35533, "pitch": 63, "duration": 218, "velocity": 100}, {"time": 35760, "pitch": 58, "duration": 20, "velocity": 90}, {"time": 35770, "pitch": 63, "duration": 20, "velocity": 95}, {"time": 35879, "pitch": 63, "duration": 20, "velocity": 90}, {"time": 35889, "pitch": 58, "duration": 20, "velocity": 85}, {"time": 35997, "pitch": 56, "duration": 221, "velocity": 100}, {"time": 36238, "pitch": 56, "duration": 21, "velocity": 95}, {"time": 36359, "pitch": 56, "duration": 20, "velocity": 90}, {"time": 36480, "pitch": 62, "duration": 220, "velocity": 100}, {"time": 37203, "pitch": 55, "duration": 100, "velocity": 90}, {"time": 37203, "pitch": 58, "duration": 100, "velocity": 95}, {"time": 37213, "pitch": 63, "duration": 100, "velocity": 100}, {"time": 37444, "pitch": 55, "duration": 474, "velocity": 85}, {"time": 37444, "pitch": 58, "duration": 118, "velocity": 90}, {"time": 37453, "pitch": 62, "duration": 119, "velocity": 95}, {"time": 37562, "pitch": 58, "duration": 356, "velocity": 85}, {"time": 37918, "pitch": 55, "duration": 100, "velocity": 90}, {"time": 37918, "pitch": 58, "duration": 100, "velocity": 95}, {"time": 37928, "pitch": 63, "duration": 100, "velocity": 100}, {"time": 38159, "pitch": 55, "duration": 723, "velocity": 85}, {"time": 38159, "pitch": 58, "duration": 120, "velocity": 90}, {"time": 38169, "pitch": 62, "duration": 120, "velocity": 95}, {"time": 38279, "pitch": 58, "duration": 603, "velocity": 85}, {"time": 38882, "pitch": 46, "duration": 221, "velocity": 95}, {"time": 38892, "pitch": 53, "duration": 221, "velocity": 100}, {"time": 39123, "pitch": 46, "duration": 20, "velocity": 90}, {"time": 39133, "pitch": 53, "duration": 20, "velocity": 95}, {"time": 39243, "pitch": 53, "duration": 20, "velocity": 90}, {"time": 39253, "pitch": 46, "duration": 20, "velocity": 85}, {"time": 39364, "pitch": 58, "duration": 217, "velocity": 95}, {"time": 39374, "pitch": 63, "duration": 217, "velocity": 100}, {"time": 39601, "pitch": 58, "duration": 19, "velocity": 90}, {"time": 39611, "pitch": 63, "duration": 19, "velocity": 95}, {"time": 39719, "pitch": 63, "duration": 20, "velocity": 90}, {"time": 39729, "pitch": 58, "duration": 20, "velocity": 85}, {"time": 39838, "pitch": 56, "duration": 221, "velocity": 100}, {"time": 40079, "pitch": 56, "duration": 20, "velocity": 95}, {"time": 40199, "pitch": 56, "duration": 20, "velocity": 90}, {"time": 40320, "pitch": 62, "duration": 221, "velocity": 100}, {"time": 40802, "pitch": 44, "duration": 837, "velocity": 100}, {"time": 41639, "pitch": 51, "duration": 99, "velocity": 100}, {"time": 41649, "pitch": 46, "duration": 99, "velocity": 95}, {"time": 41999, "pitch": 46, "duration": 100, "velocity": 100}, {"time": 42009, "pitch": 51, "duration": 100, "velocity": 100}, {"time": 42240, "pitch": 46, "duration": 120, "velocity": 95}, {"time": 42250, "pitch": 51, "duration": 120, "velocity": 100}, {"time": 42360, "pitch": 43, "duration": 342, "velocity": 90}, {"time": 42722, "pitch": 44, "duration": 241, "velocity": 100}, {"time": 42963, "pitch": 44, "duration": 221, "velocity": 95}, {"time": 43678, "pitch": 44, "duration": 241, "velocity": 100}, {"time": 43919, "pitch": 44, "duration": 221, "velocity": 95}, {"time": 44401, "pitch": 43, "duration": 960, "velocity": 100}, {"time": 45361, "pitch": 48, "duration": 699, "velocity": 105}, {"time": 46080, "pitch": 46, "duration": 462, "velocity": 100}, {"time": 46562, "pitch": 41, "duration": 241, "velocity": 100}, {"time": 46803, "pitch": 41, "duration": 221, "velocity": 95}, {"time": 47518, "pitch": 43, "duration": 241, "velocity": 100}, {"time": 47759, "pitch": 43, "duration": 221, "velocity": 95}, {"time": 48241, "pitch": 44, "duration": 715, "velocity": 100}, {"time": 48956, "pitch": 44, "duration": 482, "velocity": 95}, {"time": 49438, "pitch": 46, "duration": 241, "velocity": 100}, {"time": 49679, "pitch": 46, "duration": 241, "velocity": 95}, {"time": 49920, "pitch": 48, "duration": 241, "velocity": 100}, {"time": 50161, "pitch": 46, "duration": 241, "velocity": 95}, {"time": 50402, "pitch": 44, "duration": 237, "velocity": 100}, {"time": 50639, "pitch": 44, "duration": 217, "velocity": 95}, {"time": 51358, "pitch": 44, "duration": 241, "velocity": 100}, {"time": 51599, "pitch": 44, "duration": 221, "velocity": 95}, {"time": 52081, "pitch": 43, "duration": 956, "velocity": 100}, {"time": 53037, "pitch": 48, "duration": 703, "velocity": 105}, {"time": 53760, "pitch": 46, "duration": 462, "velocity": 100}, {"time": 54242, "pitch": 41, "duration": 956, "velocity": 100}, {"time": 55198, "pitch": 43, "duration": 964, "velocity": 100}, {"time": 56162, "pitch": 44, "duration": 956, "velocity": 100}, {"time": 57118, "pitch": 44, "duration": 241, "velocity": 100}, {"time": 57359, "pitch": 44, "duration": 241, "velocity": 95}, {"time": 57600, "pitch": 44, "duration": 241, "velocity": 100}, {"time": 57841, "pitch": 46, "duration": 121, "velocity": 95}, {"time": 57962, "pitch": 46, "duration": 120, "velocity": 90}, {"time": 58082, "pitch": 51, "duration": 237, "velocity": 90}, {"time": 58082, "pitch": 58, "duration": 237, "velocity": 95}, {"time": 58092, "pitch": 63, "duration": 237, "velocity": 100}, {"time": 58319, "pitch": 51, "duration": 218, "velocity": 85}, {"time": 58319, "pitch": 58, "duration": 218, "velocity": 90}, {"time": 58329, "pitch": 63, "duration": 217, "velocity": 95}, {"time": 58556, "pitch": 66, "duration": 40, "velocity": 90}, {"time": 58677, "pitch": 78, "duration": 40, "velocity": 85}, {"time": 58797, "pitch": 66, "duration": 40, "velocity": 90}, {"time": 58918, "pitch": 49, "duration": 40, "velocity": 85}, {"time": 59038, "pitch": 49, "duration": 241, "velocity": 90}, {"time": 59038, "pitch": 56, "duration": 241, "velocity": 95}, {"time": 59048, "pitch": 61, "duration": 241, "velocity": 100}, {"time": 59279, "pitch": 49, "duration": 241, "velocity": 85}, {"time": 59279, "pitch": 56, "duration": 241, "velocity": 90}, {"time": 59289, "pitch": 61, "duration": 241, "velocity": 95}, {"time": 59761, "pitch": 60, "duration": 577, "velocity": 100}, {"time": 60476, "pitch": 60, "duration": 342, "velocity": 95}, {"time": 60958, "pitch": 44, "duration": 241, "velocity": 100}, {"time": 60958, "pitch": 51, "duration": 241, "velocity": 95}, {"time": 60968, "pitch": 56, "duration": 242, "velocity": 90}, {"time": 61199, "pitch": 44, "duration": 242, "velocity": 95}, {"time": 61199, "pitch": 51, "duration": 242, "velocity": 90}, {"time": 61210, "pitch": 56, "duration": 241, "velocity": 85}, {"time": 61441, "pitch": 44, "duration": 180, "velocity": 100}, {"time": 61441, "pitch": 51, "duration": 180, "velocity": 95}, {"time": 61451, "pitch": 56, "duration": 180, "velocity": 90}, {"time": 61561, "pitch": 63, "duration": 121, "velocity": 90}, {"time": 61682, "pitch": 44, "duration": 221, "velocity": 100}, {"time": 61682, "pitch": 51, "duration": 221, "velocity": 95}, {"time": 61692, "pitch": 56, "duration": 221, "velocity": 90}, {"time": 61923, "pitch": 51, "duration": 237, "velocity": 90}, {"time": 61923, "pitch": 58, "duration": 237, "velocity": 95}, {"time": 61932, "pitch": 63, "duration": 237, "velocity": 100}, {"time": 62160, "pitch": 51, "duration": 217, "velocity": 85}, {"time": 62160, "pitch": 58, "duration": 217, "velocity": 90}, {"time": 62169, "pitch": 63, "duration": 218, "velocity": 95}, {"time": 62396, "pitch": 66, "duration": 41, "velocity": 90}, {"time": 62517, "pitch": 78, "duration": 40, "velocity": 85}, {"time": 62637, "pitch": 66, "duration": 41, "velocity": 90}, {"time": 62758, "pitch": 49, "duration": 40, "velocity": 85}, {"time": 62879, "pitch": 49, "duration": 241, "velocity": 90}, {"time": 62879, "pitch": 56, "duration": 241, "velocity": 95}, {"time": 62889, "pitch": 61, "duration": 241, "velocity": 100}, {"time": 63120, "pitch": 49, "duration": 241, "velocity": 85}, {"time": 63120, "pitch": 56, "duration": 241, "velocity": 90}, {"time": 63130, "pitch": 61, "duration": 241, "velocity": 95}, {"time": 63602, "pitch": 44, "duration": 1659, "velocity": 70}, {"time": 63602, "pitch": 51, "duration": 1659, "velocity": 80}, {"time": 63602, "pitch": 56, "duration": 1659, "velocity": 90}, {"time": 63612, "pitch": 60, "duration": 1649, "velocity": 100}, {"time": 65281, "pitch": 51, "duration": 462, "velocity": 85}, {"time": 65291, "pitch": 56, "duration": 462, "velocity": 90}, {"time": 81123, "pitch": 51, "duration": 237, "velocity": 90}, {"time": 81360, "pitch": 51, "duration": 237, "velocity": 85}, {"time": 81597, "pitch": 51, "duration": 241, "velocity": 90}, {"time": 81838, "pitch": 51, "duration": 241, "velocity": 85}, {"time": 82079, "pitch": 51, "duration": 241, "velocity": 90}, {"time": 82320, "pitch": 51, "duration": 241, "velocity": 85}, {"time": 82561, "pitch": 51, "duration": 241, "velocity": 90}, {"time": 82802, "pitch": 51, "duration": 241, "velocity": 85}, {"time": 83043, "pitch": 46, "duration": 218, "velocity": 95}, {"time": 83053, "pitch": 53, "duration": 218, "velocity": 100}, {"time": 83280, "pitch": 46, "duration": 20, "velocity": 90}, {"time": 83290, "pitch": 53, "duration": 20, "velocity": 95}, {"time": 83399, "pitch": 53, "duration": 20, "velocity": 90}, {"time": 83409, "pitch": 46, "duration": 19, "velocity": 85}, {"time": 83517, "pitch": 58, "duration": 221, "velocity": 95}, {"time": 83527, "pitch": 63, "duration": 221, "velocity": 100}, {"time": 83758, "pitch": 58, "duration": 20, "velocity": 90}, {"time": 83768, "pitch": 63, "duration": 20, "velocity": 95}, {"time": 83879, "pitch": 63, "duration": 20, "velocity": 90}, {"time": 83889, "pitch": 58, "duration": 20, "velocity": 85}, {"time": 83999, "pitch": 56, "duration": 221, "velocity": 100}, {"time": 84240, "pitch": 56, "duration": 21, "velocity": 95}, {"time": 84361, "pitch": 56, "duration": 20, "velocity": 90}, {"time": 84481, "pitch": 62, "duration": 221, "velocity": 100}, {"time": 85200, "pitch": 55, "duration": 99, "velocity": 90}, {"time": 85200, "pitch": 58, "duration": 99, "velocity": 95}, {"time": 85210, "pitch": 63, "duration": 99, "velocity": 100}, {"time": 85437, "pitch": 55, "duration": 482, "velocity": 85}, {"time": 85437, "pitch": 58, "duration": 121, "velocity": 90}, {"time": 85447, "pitch": 62, "duration": 121, "velocity": 95}, {"time": 85558, "pitch": 58, "duration": 361, "velocity": 85}, {"time": 85919, "pitch": 55, "duration": 101, "velocity": 90}, {"time": 85919, "pitch": 58, "duration": 101, "velocity": 95}, {"time": 85930, "pitch": 63, "duration": 100, "velocity": 100}, {"time": 86161, "pitch": 55, "duration": 723, "velocity": 85}, {"time": 86161, "pitch": 58, "duration": 120, "velocity": 90}, {"time": 86171, "pitch": 62, "duration": 120, "velocity": 95}, {"time": 86281, "pitch": 58, "duration": 603, "velocity": 85}, {"time": 86884, "pitch": 46, "duration": 217, "velocity": 95}, {"time": 86893, "pitch": 53, "duration": 218, "velocity": 100}, {"time": 87121, "pitch": 46, "duration": 19, "velocity": 90}, {"time": 87130, "pitch": 53, "duration": 20, "velocity": 95}, {"time": 87239, "pitch": 53, "duration": 20, "velocity": 90}, {"time": 87249, "pitch": 46, "duration": 20, "velocity": 85}, {"time": 87358, "pitch": 58, "duration": 220, "velocity": 95}, {"time": 87368, "pitch": 63, "duration": 220, "velocity": 100}, {"time": 87599, "pitch": 58, "duration": 20, "velocity": 90}, {"time": 87609, "pitch": 63, "duration": 20, "velocity": 95}, {"time": 87719, "pitch": 63, "duration": 20, "velocity": 90}, {"time": 87729, "pitch": 58, "duration": 20, "velocity": 85}, {"time": 87840, "pitch": 56, "duration": 221, "velocity": 100}, {"time": 88081, "pitch": 56, "duration": 20, "velocity": 95}, {"time": 88201, "pitch": 56, "duration": 20, "velocity": 90}, {"time": 88322, "pitch": 62, "duration": 221, "velocity": 100}, {"time": 88804, "pitch": 44, "duration": 835, "velocity": 100}, {"time": 89639, "pitch": 51, "duration": 101, "velocity": 100}, {"time": 89649, "pitch": 46, "duration": 101, "velocity": 95}, {"time": 90001, "pitch": 46, "duration": 100, "velocity": 100}, {"time": 90011, "pitch": 51, "duration": 100, "velocity": 100}, {"time": 90242, "pitch": 46, "duration": 120, "velocity": 95}, {"time": 90252, "pitch": 51, "duration": 120, "velocity": 100}, {"time": 90362, "pitch": 43, "duration": 342, "velocity": 90}, {"time": 90724, "pitch": 44, "duration": 237, "velocity": 100}, {"time": 90961, "pitch": 44, "duration": 217, "velocity": 95}, {"time": 91680, "pitch": 44, "duration": 241, "velocity": 100}, {"time": 91921, "pitch": 44, "duration": 221, "velocity": 95}, {"time": 92403, "pitch": 43, "duration": 956, "velocity": 100}, {"time": 93359, "pitch": 48, "duration": 703, "velocity": 105}, {"time": 94082, "pitch": 46, "duration": 462, "velocity": 100}, {"time": 94564, "pitch": 41, "duration": 237, "velocity": 100}, {"time": 94801, "pitch": 41, "duration": 217, "velocity": 95}, {"time": 95520, "pitch": 43, "duration": 241, "velocity": 100}, {"time": 95761, "pitch": 43, "duration": 221, "velocity": 95}, {"time": 96243, "pitch": 44, "duration": 715, "velocity": 100}, {"time": 96958, "pitch": 44, "duration": 482, "velocity": 95}, {"time": 97440, "pitch": 46, "duration": 241, "velocity": 100}, {"time": 97681, "pitch": 46, "duration": 241, "velocity": 95}, {"time": 97922, "pitch": 48, "duration": 241, "velocity": 100}, {"time": 98163, "pitch": 46, "duration": 241, "velocity": 95}, {"time": 98404, "pitch": 44, "duration": 237, "velocity": 100}, {"time": 98641, "pitch": 44, "duration": 217, "velocity": 95}, {"time": 99360, "pitch": 44, "duration": 241, "velocity": 100}, {"time": 99601, "pitch": 44, "duration": 221, "velocity": 95}, {"time": 100079, "pitch": 43, "duration": 960, "velocity": 100}, {"time": 101039, "pitch": 48, "duration": 703, "velocity": 105}, {"time": 101762, "pitch": 46, "duration": 454, "velocity": 100}, {"time": 102236, "pitch": 41, "duration": 964, "velocity": 100}, {"time": 103200, "pitch": 43, "duration": 956, "velocity": 100}, {"time": 104156, "pitch": 44, "duration": 964, "velocity": 100}, {"time": 105120, "pitch": 44, "duration": 241, "velocity": 100}, {"time": 105361, "pitch": 44, "duration": 241, "velocity": 95}, {"time": 105602, "pitch": 44, "duration": 237, "velocity": 100}, {"time": 105839, "pitch": 46, "duration": 119, "velocity": 95}, {"time": 105958, "pitch": 46, "duration": 118, "velocity": 90}, {"time": 106076, "pitch": 51, "duration": 241, "velocity": 90}, {"time": 106076, "pitch": 58, "duration": 241, "velocity": 95}, {"time": 106086, "pitch": 63, "duration": 241, "velocity": 100}, {"time": 106317, "pitch": 51, "duration": 221, "velocity": 85}, {"time": 106317, "pitch": 58, "duration": 221, "velocity": 90}, {"time": 106327, "pitch": 63, "duration": 221, "velocity": 95}, {"time": 106558, "pitch": 66, "duration": 40, "velocity": 90}, {"time": 106679, "pitch": 78, "duration": 40, "velocity": 85}, {"time": 106799, "pitch": 66, "duration": 40, "velocity": 90}, {"time": 106920, "pitch": 49, "duration": 40, "velocity": 85}, {"time": 107040, "pitch": 49, "duration": 241, "velocity": 90}, {"time": 107040, "pitch": 56, "duration": 241, "velocity": 95}, {"time": 107050, "pitch": 61, "duration": 241, "velocity": 100}, {"time": 107281, "pitch": 49, "duration": 241, "velocity": 85}, {"time": 107281, "pitch": 56, "duration": 241, "velocity": 90}, {"time": 107291, "pitch": 61, "duration": 241, "velocity": 95}, {"time": 107759, "pitch": 60, "duration": 579, "velocity": 100}, {"time": 108478, "pitch": 60, "duration": 342, "velocity": 95}, {"time": 108960, "pitch": 44, "duration": 241, "velocity": 100}, {"time": 108960, "pitch": 51, "duration": 241, "velocity": 95}, {"time": 108970, "pitch": 56, "duration": 242, "velocity": 90}, {"time": 109201, "pitch": 44, "duration": 21, "velocity": 95}, {"time": 109201, "pitch": 51, "duration": 21, "velocity": 90}, {"time": 109212, "pitch": 56, "duration": 20, "velocity": 85}, {"time": 109322, "pitch": 44, "duration": 20, "velocity": 80}, {"time": 109322, "pitch": 51, "duration": 20, "velocity": 85}, {"time": 109332, "pitch": 56, "duration": 20, "velocity": 90}, {"time": 109442, "pitch": 44, "duration": 237, "velocity": 100}, {"time": 109442, "pitch": 51, "duration": 237, "velocity": 95}, {"time": 109452, "pitch": 56, "duration": 237, "velocity": 90}, {"time": 109679, "pitch": 44, "duration": 20, "velocity": 95}, {"time": 109679, "pitch": 51, "duration": 20, "velocity": 90}, {"time": 109689, "pitch": 56, "duration": 20, "velocity": 85}, {"time": 109798, "pitch": 44, "duration": 20, "velocity": 80}, {"time": 109798, "pitch": 51, "duration": 20, "velocity": 85}, {"time": 109808, "pitch": 56, "duration": 20, "velocity": 90}, {"time": 109916, "pitch": 51, "duration": 241, "velocity": 90}, {"time": 109916, "pitch": 58, "duration": 241, "velocity": 95}, {"time": 109926, "pitch": 63, "duration": 241, "velocity": 100}, {"time": 110157, "pitch": 51, "duration": 221, "velocity": 85}, {"time": 110157, "pitch": 58, "duration": 221, "velocity": 90}, {"time": 110167, "pitch": 63, "duration": 221, "velocity": 95}, {"time": 110398, "pitch": 66, "duration": 41, "velocity": 90}, {"time": 110519, "pitch": 78, "duration": 40, "velocity": 85}, {"time": 110639, "pitch": 66, "duration": 41, "velocity": 90}, {"time": 110760, "pitch": 49, "duration": 40, "velocity": 85}, {"time": 110881, "pitch": 49, "duration": 241, "velocity": 90}, {"time": 110881, "pitch": 56, "duration": 241, "velocity": 95}, {"time": 110891, "pitch": 61, "duration": 241, "velocity": 100}, {"time": 111122, "pitch": 49, "duration": 241, "velocity": 85}, {"time": 111122, "pitch": 56, "duration": 241, "velocity": 90}, {"time": 111132, "pitch": 61, "duration": 240, "velocity": 95}, {"time": 111600, "pitch": 44, "duration": 2137, "velocity": 85}, {"time": 111600, "pitch": 51, "duration": 2137, "velocity": 80}, {"time": 111600, "pitch": 56, "duration": 2137, "velocity": 75}, {"time": 111609, "pitch": 60, "duration": 2128, "velocity": 70}, {"time": 113757, "pitch": 51, "duration": 241, "velocity": 90}, {"time": 113757, "pitch": 58, "duration": 241, "velocity": 95}, {"time": 113767, "pitch": 63, "duration": 241, "velocity": 100}, {"time": 113998, "pitch": 51, "duration": 220, "velocity": 85}, {"time": 113998, "pitch": 58, "duration": 220, "velocity": 90}, {"time": 114008, "pitch": 63, "duration": 221, "velocity": 95}, {"time": 114239, "pitch": 66, "duration": 40, "velocity": 90}, {"time": 114359, "pitch": 78, "duration": 40, "velocity": 85}, {"time": 114480, "pitch": 66, "duration": 40, "velocity": 90}, {"time": 114600, "pitch": 49, "duration": 40, "velocity": 85}, {"time": 114721, "pitch": 49, "duration": 241, "velocity": 90}, {"time": 114721, "pitch": 56, "duration": 241, "velocity": 95}, {"time": 114731, "pitch": 61, "duration": 241, "velocity": 100}, {"time": 114962, "pitch": 49, "duration": 241, "velocity": 85}, {"time": 114962, "pitch": 56, "duration": 241, "velocity": 90}, {"time": 114972, "pitch": 61, "duration": 241, "velocity": 95}, {"time": 115440, "pitch": 60, "duration": 578, "velocity": 100}, {"time": 116159, "pitch": 60, "duration": 341, "velocity": 95}, {"time": 116641, "pitch": 44, "duration": 241, "velocity": 100}, {"time": 116641, "pitch": 51, "duration": 241, "velocity": 95}, {"time": 116651, "pitch": 56, "duration": 241, "velocity": 90}, {"time": 116882, "pitch": 44, "duration": 20, "velocity": 95}, {"time": 116882, "pitch": 51, "duration": 20, "velocity": 90}, {"time": 116892, "pitch": 56, "duration": 20, "velocity": 85}, {"time": 117002, "pitch": 44, "duration": 20, "velocity": 80}, {"time": 117002, "pitch": 51, "duration": 20, "velocity": 85}, {"time": 117012, "pitch": 56, "duration": 20, "velocity": 90}, {"time": 117123, "pitch": 44, "duration": 237, "velocity": 100}, {"time": 117123, "pitch": 51, "duration": 237, "velocity": 95}, {"time": 117133, "pitch": 56, "duration": 237, "velocity": 90}, {"time": 117360, "pitch": 44, "duration": 19, "velocity": 95}, {"time": 117360, "pitch": 51, "duration": 19, "velocity": 90}, {"time": 117370, "pitch": 56, "duration": 19, "velocity": 85}, {"time": 117478, "pitch": 44, "duration": 20, "velocity": 80}, {"time": 117478, "pitch": 51, "duration": 20, "velocity": 85}, {"time": 117488, "pitch": 56, "duration": 20, "velocity": 90}, {"time": 117597, "pitch": 51, "duration": 241, "velocity": 90}, {"time": 117597, "pitch": 58, "duration": 241, "velocity": 95}, {"time": 117607, "pitch": 63, "duration": 241, "velocity": 100}, {"time": 117838, "pitch": 51, "duration": 221, "velocity": 85}, {"time": 117838, "pitch": 58, "duration": 221, "velocity": 90}, {"time": 117848, "pitch": 63, "duration": 221, "velocity": 95}, {"time": 118079, "pitch": 66, "duration": 40, "velocity": 90}, {"time": 118199, "pitch": 78, "duration": 40, "velocity": 85}, {"time": 118320, "pitch": 66, "duration": 40, "velocity": 90}, {"time": 118440, "pitch": 49, "duration": 40, "velocity": 85}, {"time": 118561, "pitch": 49, "duration": 241, "velocity": 90}, {"time": 118561, "pitch": 56, "duration": 241, "velocity": 95}, {"time": 118571, "pitch": 61, "duration": 241, "velocity": 100}, {"time": 118802, "pitch": 49, "duration": 241, "velocity": 85}, {"time": 118802, "pitch": 56, "duration": 241, "velocity": 90}, {"time": 118812, "pitch": 61, "duration": 241, "velocity": 95}, {"time": 119280, "pitch": 44, "duration": 478, "velocity": 85}, {"time": 119280, "pitch": 51, "duration": 478, "velocity": 80}, {"time": 119280, "pitch": 56, "duration": 478, "velocity": 75}, {"time": 119290, "pitch": 60, "duration": 468, "velocity": 70}, {"time": 119758, "pitch": 46, "duration": 120, "velocity": 90}, {"time": 119878, "pitch": 44, "duration": 121, "velocity": 85}, {"time": 119999, "pitch": 44, "duration": 241, "velocity": 95}, {"time": 120009, "pitch": 51, "duration": 241, "velocity": 100}, {"time": 120240, "pitch": 46, "duration": 120, "velocity": 90}, {"time": 120360, "pitch": 44, "duration": 121, "velocity": 85}, {"time": 120481, "pitch": 44, "duration": 241, "velocity": 100}, {"time": 120491, "pitch": 51, "duration": 241, "velocity": 95}, {"time": 120722, "pitch": 44, "duration": 241, "velocity": 90}, {"time": 120732, "pitch": 51, "duration": 241, "velocity": 85}, {"time": 120963, "pitch": 44, "duration": 237, "velocity": 100}, {"time": 120973, "pitch": 51, "duration": 237, "velocity": 95}, {"time": 121200, "pitch": 44, "duration": 237, "velocity": 90}, {"time": 121210, "pitch": 51, "duration": 227, "velocity": 85}, {"time": 121437, "pitch": 46, "duration": 221, "velocity": 95}, {"time": 121447, "pitch": 53, "duration": 221, "velocity": 100}, {"time": 121678, "pitch": 46, "duration": 20, "velocity": 90}, {"time": 121688, "pitch": 53, "duration": 20, "velocity": 95}, {"time": 121798, "pitch": 53, "duration": 20, "velocity": 90}, {"time": 121808, "pitch": 46, "duration": 21, "velocity": 85}, {"time": 121919, "pitch": 58, "duration": 221, "velocity": 95}, {"time": 121929, "pitch": 63, "duration": 221, "velocity": 100}, {"time": 122160, "pitch": 58, "duration": 20, "velocity": 90}, {"time": 122170, "pitch": 63, "duration": 20, "velocity": 95}, {"time": 122280, "pitch": 63, "duration": 21, "velocity": 90}, {"time": 122291, "pitch": 58, "duration": 20, "velocity": 85}, {"time": 122401, "pitch": 56, "duration": 221, "velocity": 100}, {"time": 122642, "pitch": 56, "duration": 20, "velocity": 95}, {"time": 122763, "pitch": 56, "duration": 20, "velocity": 90}, {"time": 122883, "pitch": 62, "duration": 217, "velocity": 100}, {"time": 123598, "pitch": 55, "duration": 100, "velocity": 90}, {"time": 123598, "pitch": 58, "duration": 100, "velocity": 95}, {"time": 123608, "pitch": 63, "duration": 100, "velocity": 100}, {"time": 123839, "pitch": 55, "duration": 482, "velocity": 85}, {"time": 123839, "pitch": 58, "duration": 120, "velocity": 90}, {"time": 123849, "pitch": 62, "duration": 121, "velocity": 95}, {"time": 123959, "pitch": 58, "duration": 362, "velocity": 85}, {"time": 124321, "pitch": 55, "duration": 101, "velocity": 90}, {"time": 124321, "pitch": 58, "duration": 101, "velocity": 95}, {"time": 124331, "pitch": 63, "duration": 101, "velocity": 100}, {"time": 124562, "pitch": 55, "duration": 715, "velocity": 85}, {"time": 124562, "pitch": 58, "duration": 121, "velocity": 90}, {"time": 124572, "pitch": 62, "duration": 121, "velocity": 95}, {"time": 124683, "pitch": 58, "duration": 594, "velocity": 85}, {"time": 125277, "pitch": 46, "duration": 221, "velocity": 95}, {"time": 125287, "pitch": 53, "duration": 221, "velocity": 100}, {"time": 125518, "pitch": 46, "duration": 20, "velocity": 90}, {"time": 125528, "pitch": 53, "duration": 20, "velocity": 95}, {"time": 125639, "pitch": 53, "duration": 20, "velocity": 90}, {"time": 125649, "pitch": 46, "duration": 20, "velocity": 85}, {"time": 125759, "pitch": 58, "duration": 221, "velocity": 95}, {"time": 125769, "pitch": 63, "duration": 221, "velocity": 100}, {"time": 126000, "pitch": 58, "duration": 20, "velocity": 90}, {"time": 126010, "pitch": 63, "duration": 20, "velocity": 95}, {"time": 126121, "pitch": 63, "duration": 20, "velocity": 90}, {"time": 126131, "pitch": 58, "duration": 20, "velocity": 85}, {"time": 126241, "pitch": 56, "duration": 221, "velocity": 100}, {"time": 126482, "pitch": 56, "duration": 20, "velocity": 95}, {"time": 126603, "pitch": 56, "duration": 20, "velocity": 90}, {"time": 126723, "pitch": 62, "duration": 217, "velocity": 100}, {"time": 127197, "pitch": 44, "duration": 844, "velocity": 100}, {"time": 128041, "pitch": 46, "duration": 1076, "velocity": 95}, {"time": 129117, "pitch": 46, "duration": 241, "velocity": 90}, {"time": 129358, "pitch": 46, "duration": 241, "velocity": 85}, {"time": 129599, "pitch": 46, "duration": 241, "velocity": 90}, {"time": 129840, "pitch": 46, "duration": 241, "velocity": 85}, {"time": 130081, "pitch": 46, "duration": 241, "velocity": 90}, {"time": 130322, "pitch": 46, "duration": 241, "velocity": 85}, {"time": 130563, "pitch": 46, "duration": 119, "velocity": 90}, {"time": 130682, "pitch": 43, "duration": 355, "velocity": 85}, {"time": 131037, "pitch": 44, "duration": 241, "velocity": 100}, {"time": 131278, "pitch": 44, "duration": 221, "velocity": 95}, {"time": 132001, "pitch": 44, "duration": 241, "velocity": 100}, {"time": 132242, "pitch": 44, "duration": 221, "velocity": 95}, {"time": 132720, "pitch": 43, "duration": 960, "velocity": 100}, {"time": 133680, "pitch": 48, "duration": 703, "velocity": 105}, {"time": 134403, "pitch": 46, "duration": 455, "velocity": 100}, {"time": 134877, "pitch": 41, "duration": 241, "velocity": 100}, {"time": 135118, "pitch": 41, "duration": 221, "velocity": 95}, {"time": 135842, "pitch": 43, "duration": 241, "velocity": 100}, {"time": 136083, "pitch": 43, "duration": 221, "velocity": 95}, {"time": 136561, "pitch": 44, "duration": 719, "velocity": 100}, {"time": 137280, "pitch": 44, "duration": 482, "velocity": 95}, {"time": 137762, "pitch": 46, "duration": 241, "velocity": 100}, {"time": 138003, "pitch": 46, "duration": 241, "velocity": 95}, {"time": 138244, "pitch": 48, "duration": 237, "velocity": 100}, {"time": 138481, "pitch": 46, "duration": 237, "velocity": 95}, {"time": 138718, "pitch": 44, "duration": 241, "velocity": 100}, {"time": 138959, "pitch": 44, "duration": 221, "velocity": 95}, {"time": 139682, "pitch": 44, "duration": 241, "velocity": 100}, {"time": 139923, "pitch": 44, "duration": 221, "velocity": 95}, {"time": 140401, "pitch": 43, "duration": 960, "velocity": 100}, {"time": 141361, "pitch": 48, "duration": 703, "velocity": 105}, {"time": 142084, "pitch": 46, "duration": 454, "velocity": 100}, {"time": 142558, "pitch": 41, "duration": 964, "velocity": 100}, {"time": 143522, "pitch": 43, "duration": 956, "velocity": 100}, {"time": 144478, "pitch": 44, "duration": 964, "velocity": 100}, {"time": 145442, "pitch": 44, "duration": 241, "velocity": 100}, {"time": 145683, "pitch": 44, "duration": 241, "velocity": 95}, {"time": 145924, "pitch": 44, "duration": 237, "velocity": 100}, {"time": 146161, "pitch": 46, "duration": 118, "velocity": 95}, {"time": 146279, "pitch": 46, "duration": 119, "velocity": 90}, {"time": 146398, "pitch": 44, "duration": 241, "velocity": 100}, {"time": 146639, "pitch": 44, "duration": 221, "velocity": 95}, {"time": 147362, "pitch": 44, "duration": 241, "velocity": 100}, {"time": 147603, "pitch": 44, "duration": 221, "velocity": 95}, {"time": 148081, "pitch": 43, "duration": 960, "velocity": 100}, {"time": 149041, "pitch": 48, "duration": 695, "velocity": 105}, {"time": 149756, "pitch": 46, "duration": 462, "velocity": 100}, {"time": 150238, "pitch": 41, "duration": 241, "velocity": 100}, {"time": 150479, "pitch": 41, "duration": 221, "velocity": 95}, {"time": 151202, "pitch": 43, "duration": 237, "velocity": 100}, {"time": 151439, "pitch": 43, "duration": 217, "velocity": 95}, {"time": 151917, "pitch": 44, "duration": 723, "velocity": 100}, {"time": 152640, "pitch": 44, "duration": 482, "velocity": 95}, {"time": 153122, "pitch": 46, "duration": 237, "velocity": 100}, {"time": 153359, "pitch": 46, "duration": 237, "velocity": 95}, {"time": 153596, "pitch": 48, "duration": 241, "velocity": 100}, {"time": 153837, "pitch": 46, "duration": 241, "velocity": 95}, {"time": 154078, "pitch": 44, "duration": 241, "velocity": 100}, {"time": 154319, "pitch": 44, "duration": 221, "velocity": 95}, {"time": 155042, "pitch": 44, "duration": 237, "velocity": 100}, {"time": 155279, "pitch": 44, "duration": 217, "velocity": 95}, {"time": 155757, "pitch": 43, "duration": 964, "velocity": 100}, {"time": 156721, "pitch": 48, "duration": 696, "velocity": 105}, {"time": 157436, "pitch": 46, "duration": 462, "velocity": 100}, {"time": 157918, "pitch": 41, "duration": 964, "velocity": 100}, {"time": 158882, "pitch": 43, "duration": 956, "velocity": 100}, {"time": 159838, "pitch": 44, "duration": 965, "velocity": 100}, {"time": 160803, "pitch": 44, "duration": 236, "velocity": 100}, {"time": 161039, "pitch": 44, "duration": 237, "velocity": 95}, {"time": 161276, "pitch": 44, "duration": 241, "velocity": 100}, {"time": 161517, "pitch": 46, "duration": 121, "velocity": 95}, {"time": 161638, "pitch": 46, "duration": 120, "velocity": 90}, {"time": 161758, "pitch": 51, "duration": 242, "velocity": 90}, {"time": 161758, "pitch": 58, "duration": 242, "velocity": 95}, {"time": 161769, "pitch": 63, "duration": 241, "velocity": 100}, {"time": 162000, "pitch": 51, "duration": 220, "velocity": 85}, {"time": 162000, "pitch": 58, "duration": 220, "velocity": 90}, {"time": 162010, "pitch": 63, "duration": 221, "velocity": 95}, {"time": 162241, "pitch": 66, "duration": 40, "velocity": 90}, {"time": 162361, "pitch": 78, "duration": 40, "velocity": 85}, {"time": 162482, "pitch": 66, "duration": 40, "velocity": 90}, {"time": 162602, "pitch": 49, "duration": 40, "velocity": 85}, {"time": 162723, "pitch": 49, "duration": 237, "velocity": 90}, {"time": 162723, "pitch": 56, "duration": 237, "velocity": 95}, {"time": 162732, "pitch": 61, "duration": 237, "velocity": 100}, {"time": 162960, "pitch": 49, "duration": 237, "velocity": 85}, {"time": 162960, "pitch": 56, "duration": 237, "velocity": 90}, {"time": 162969, "pitch": 61, "duration": 238, "velocity": 95}, {"time": 163438, "pitch": 60, "duration": 582, "velocity": 100}, {"time": 164161, "pitch": 60, "duration": 341, "velocity": 95}, {"time": 164643, "pitch": 44, "duration": 237, "velocity": 100}, {"time": 164643, "pitch": 51, "duration": 237, "velocity": 95}, {"time": 164653, "pitch": 56, "duration": 237, "velocity": 90}, {"time": 164880, "pitch": 44, "duration": 237, "velocity": 95}, {"time": 164880, "pitch": 51, "duration": 237, "velocity": 90}, {"time": 164890, "pitch": 56, "duration": 237, "velocity": 85}, {"time": 165117, "pitch": 44, "duration": 180, "velocity": 100}, {"time": 165117, "pitch": 51, "duration": 180, "velocity": 95}, {"time": 165127, "pitch": 56, "duration": 180, "velocity": 90}, {"time": 165237, "pitch": 63, "duration": 121, "velocity": 90}, {"time": 165358, "pitch": 44, "duration": 221, "velocity": 100}, {"time": 165358, "pitch": 51, "duration": 221, "velocity": 95}, {"time": 165368, "pitch": 56, "duration": 221, "velocity": 90}, {"time": 165599, "pitch": 51, "duration": 241, "velocity": 90}, {"time": 165599, "pitch": 58, "duration": 241, "velocity": 95}, {"time": 165609, "pitch": 63, "duration": 241, "velocity": 100}, {"time": 165840, "pitch": 51, "duration": 221, "velocity": 85}, {"time": 165840, "pitch": 58, "duration": 221, "velocity": 90}, {"time": 165850, "pitch": 63, "duration": 221, "velocity": 95}, {"time": 166081, "pitch": 66, "duration": 40, "velocity": 90}, {"time": 166201, "pitch": 78, "duration": 40, "velocity": 85}, {"time": 166322, "pitch": 66, "duration": 40, "velocity": 90}, {"time": 166442, "pitch": 49, "duration": 40, "velocity": 85}, {"time": 166563, "pitch": 49, "duration": 237, "velocity": 90}, {"time": 166563, "pitch": 56, "duration": 237, "velocity": 95}, {"time": 166573, "pitch": 61, "duration": 237, "velocity": 100}, {"time": 166800, "pitch": 49, "duration": 237, "velocity": 85}, {"time": 166800, "pitch": 56, "duration": 237, "velocity": 90}, {"time": 166810, "pitch": 61, "duration": 237, "velocity": 95}, {"time": 167278, "pitch": 60, "duration": 482, "velocity": 100}, {"time": 167760, "pitch": 51, "duration": 40, "velocity": 90}, {"time": 167770, "pitch": 56, "duration": 40, "velocity": 95}, {"time": 167880, "pitch": 56, "duration": 40, "velocity": 90}, {"time": 167890, "pitch": 51, "duration": 41, "velocity": 85}, {"time": 168001, "pitch": 51, "duration": 221, "velocity": 95}, {"time": 168011, "pitch": 58, "duration": 221, "velocity": 100}, {"time": 168242, "pitch": 51, "duration": 40, "velocity": 90}, {"time": 168252, "pitch": 56, "duration": 40, "velocity": 95}, {"time": 168362, "pitch": 56, "duration": 41, "velocity": 90}, {"time": 168372, "pitch": 51, "duration": 41, "velocity": 85}, {"time": 168483, "pitch": 54, "duration": 217, "velocity": 80}, {"time": 168720, "pitch": 59, "duration": 99, "velocity": 75}, {"time": 168957, "pitch": 56, "duration": 100, "velocity": 80}, {"time": 169198, "pitch": 44, "duration": 40, "velocity": 90}, {"time": 169208, "pitch": 51, "duration": 40, "velocity": 95}, {"time": 169318, "pitch": 51, "duration": 40, "velocity": 90}, {"time": 169328, "pitch": 44, "duration": 40, "velocity": 85}, {"time": 169439, "pitch": 51, "duration": 241, "velocity": 90}, {"time": 169439, "pitch": 58, "duration": 241, "velocity": 95}, {"time": 169449, "pitch": 63, "duration": 241, "velocity": 100}, {"time": 169680, "pitch": 51, "duration": 221, "velocity": 85}, {"time": 169680, "pitch": 58, "duration": 221, "velocity": 90}, {"time": 169690, "pitch": 63, "duration": 221, "velocity": 95}, {"time": 169921, "pitch": 66, "duration": 40, "velocity": 90}, {"time": 170041, "pitch": 78, "duration": 41, "velocity": 85}, {"time": 170162, "pitch": 66, "duration": 40, "velocity": 90}, {"time": 170282, "pitch": 49, "duration": 41, "velocity": 85}, {"time": 170403, "pitch": 49, "duration": 237, "velocity": 90}, {"time": 170403, "pitch": 56, "duration": 237, "velocity": 95}, {"time": 170413, "pitch": 61, "duration": 237, "velocity": 100}, {"time": 170640, "pitch": 49, "duration": 237, "velocity": 85}, {"time": 170640, "pitch": 56, "duration": 237, "velocity": 90}, {"time": 170650, "pitch": 61, "duration": 237, "velocity": 95}, {"time": 171118, "pitch": 60, "duration": 582, "velocity": 100}, {"time": 171841, "pitch": 60, "duration": 341, "velocity": 95}, {"time": 172323, "pitch": 44, "duration": 237, "velocity": 100}, {"time": 172323, "pitch": 51, "duration": 237, "velocity": 95}, {"time": 172333, "pitch": 56, "duration": 237, "velocity": 90}, {"time": 172560, "pitch": 44, "duration": 237, "velocity": 95}, {"time": 172560, "pitch": 51, "duration": 237, "velocity": 90}, {"time": 172570, "pitch": 56, "duration": 237, "velocity": 85}, {"time": 172797, "pitch": 44, "duration": 181, "velocity": 100}, {"time": 172797, "pitch": 51, "duration": 181, "velocity": 95}, {"time": 172807, "pitch": 56, "duration": 181, "velocity": 90}, {"time": 172917, "pitch": 63, "duration": 121, "velocity": 90}, {"time": 173038, "pitch": 44, "duration": 221, "velocity": 100}, {"time": 173038, "pitch": 51, "duration": 221, "velocity": 95}, {"time": 173048, "pitch": 56, "duration": 221, "velocity": 90}, {"time": 173279, "pitch": 51, "duration": 241, "velocity": 90}, {"time": 173279, "pitch": 58, "duration": 241, "velocity": 95}, {"time": 173289, "pitch": 63, "duration": 241, "velocity": 100}, {"time": 173520, "pitch": 51, "duration": 221, "velocity": 85}, {"time": 173520, "pitch": 58, "duration": 221, "velocity": 90}, {"time": 173530, "pitch": 63, "duration": 221, "velocity": 95}, {"time": 173761, "pitch": 66, "duration": 40, "velocity": 90}, {"time": 173882, "pitch": 78, "duration": 40, "velocity": 85}, {"time": 174002, "pitch": 66, "duration": 40, "velocity": 90}, {"time": 174123, "pitch": 49, "duration": 40, "velocity": 85}, {"time": 174243, "pitch": 49, "duration": 237, "velocity": 90}, {"time": 174243, "pitch": 56, "duration": 237, "velocity": 95}, {"time": 174253, "pitch": 61, "duration": 237, "velocity": 100}, {"time": 174480, "pitch": 49, "duration": 237, "velocity": 85}, {"time": 174480, "pitch": 56, "duration": 237, "velocity": 90}, {"time": 174490, "pitch": 61, "duration": 237, "velocity": 95}, {"time": 174958, "pitch": 44, "duration": 2141, "velocity": 90}, {"time": 174958, "pitch": 51, "duration": 2141, "velocity": 95}, {"time": 174968, "pitch": 56, "duration": 2131, "velocity": 100}, {"time": 1707, "pitch": 61, "duration": 81, "velocity": 60}, {"time": 1767, "pitch": 62, "duration": 51, "velocity": 37}, {"time": 1798, "pitch": 64, "duration": 40, "velocity": 63}, {"time": 1828, "pitch": 66, "duration": 30, "velocity": 80}, {"time": 1848, "pitch": 67, "duration": 30, "velocity": 89}, {"time": 1858, "pitch": 69, "duration": 20, "velocity": 105}, {"time": 1878, "pitch": 71, "duration": 10, "velocity": 110}, {"time": 1888, "pitch": 73, "duration": 10, "velocity": 110}, {"time": 1908, "pitch": 74, "duration": 10, "velocity": 113}, {"time": 1918, "pitch": 76, "duration": 10, "velocity": 107}, {"time": 1928, "pitch": 78, "duration": 10, "velocity": 107}, {"time": 1948, "pitch": 79, "duration": 10, "velocity": 105}, {"time": 1958, "pitch": 81, "duration": 10, "velocity": 110}, {"time": 1968, "pitch": 83, "duration": 10, "velocity": 113}, {"time": 1988, "pitch": 85, "duration": 10, "velocity": 110}, {"time": 1998, "pitch": 86, "duration": 21, "velocity": 110}, {"time": 2008, "pitch": 88, "duration": 31, "velocity": 107}, {"time": 2029, "pitch": 90, "duration": 341, "velocity": 102}, {"time": 2380, "pitch": 82, "duration": 20, "velocity": 105}, {"time": 2380, "pitch": 87, "duration": 20, "velocity": 105}, {"time": 2390, "pitch": 75, "duration": 171, "velocity": 116}, {"time": 2390, "pitch": 79, "duration": 10, "velocity": 110}, {"time": 2400, "pitch": 79, "duration": 191, "velocity": 110}, {"time": 2400, "pitch": 82, "duration": 191, "velocity": 105}, {"time": 2400, "pitch": 87, "duration": 191, "velocity": 105}, {"time": 2651, "pitch": 75, "duration": 231, "velocity": 116}, {"time": 2651, "pitch": 79, "duration": 221, "velocity": 110}, {"time": 2651, "pitch": 87, "duration": 191, "velocity": 110}, {"time": 3327, "pitch": 80, "duration": 140, "velocity": 107}, {"time": 3336, "pitch": 73, "duration": 171, "velocity": 110}, {"time": 3336, "pitch": 77, "duration": 171, "velocity": 110}, {"time": 3577, "pitch": 73, "duration": 181, "velocity": 110}, {"time": 3577, "pitch": 80, "duration": 251, "velocity": 100}, {"time": 3587, "pitch": 77, "duration": 191, "velocity": 116}, {"time": 3597, "pitch": 78, "duration": 10, "velocity": 52}, {"time": 4049, "pitch": 72, "duration": 2031, "velocity": 116}, {"time": 4049, "pitch": 80, "duration": 2081, "velocity": 105}, {"time": 4059, "pitch": 75, "duration": 2051, "velocity": 116}, {"time": 6240, "pitch": 75, "duration": 181, "velocity": 105}, {"time": 6240, "pitch": 79, "duration": 181, "velocity": 116}, {"time": 6240, "pitch": 82, "duration": 191, "velocity": 105}, {"time": 6240, "pitch": 84, "duration": 40, "velocity": 105}, {"time": 6250, "pitch": 77, "duration": 10, "velocity": 102}, {"time": 6481, "pitch": 82, "duration": 151, "velocity": 107}, {"time": 6491, "pitch": 75, "duration": 191, "velocity": 116}, {"time": 6491, "pitch": 79, "duration": 211, "velocity": 110}, {"time": 7186, "pitch": 73, "duration": 171, "velocity": 105}, {"time": 7186, "pitch": 77, "duration": 171, "velocity": 113}, {"time": 7186, "pitch": 80, "duration": 161, "velocity": 107}, {"time": 7437, "pitch": 73, "duration": 201, "velocity": 116}, {"time": 7437, "pitch": 77, "duration": 201, "velocity": 119}, {"time": 7437, "pitch": 80, "duration": 221, "velocity": 116}, {"time": 7909, "pitch": 72, "duration": 1951, "velocity": 107}, {"time": 7909, "pitch": 75, "duration": 1971, "velocity": 116}, {"time": 7909, "pitch": 80, "duration": 2011, "velocity": 105}, {"time": 10080, "pitch": 75, "duration": 181, "velocity": 116}, {"time": 10080, "pitch": 82, "duration": 181, "velocity": 110}, {"time": 10091, "pitch": 79, "duration": 170, "velocity": 110}, {"time": 10322, "pitch": 82, "duration": 170, "velocity": 110}, {"time": 10332, "pitch": 75, "duration": 190, "velocity": 116}, {"time": 10332, "pitch": 79, "duration": 231, "velocity": 105}, {"time": 11027, "pitch": 73, "duration": 190, "velocity": 102}, {"time": 11027, "pitch": 80, "duration": 180, "velocity": 102}, {"time": 11036, "pitch": 77, "duration": 181, "velocity": 107}, {"time": 11277, "pitch": 80, "duration": 221, "velocity": 105}, {"time": 11287, "pitch": 73, "duration": 201, "velocity": 113}, {"time": 11287, "pitch": 77, "duration": 201, "velocity": 116}, {"time": 11760, "pitch": 72, "duration": 2040, "velocity": 119}, {"time": 11760, "pitch": 75, "duration": 2060, "velocity": 116}, {"time": 11760, "pitch": 80, "duration": 2070, "velocity": 105}, {"time": 13921, "pitch": 75, "duration": 170, "velocity": 116}, {"time": 13921, "pitch": 79, "duration": 170, "velocity": 119}, {"time": 13921, "pitch": 82, "duration": 160, "velocity": 110}, {"time": 14162, "pitch": 75, "duration": 221, "velocity": 122}, {"time": 14162, "pitch": 79, "duration": 221, "velocity": 116}, {"time": 14162, "pitch": 82, "duration": 180, "velocity": 113}, {"time": 14867, "pitch": 73, "duration": 190, "velocity": 110}, {"time": 14867, "pitch": 80, "duration": 190, "velocity": 107}, {"time": 14877, "pitch": 77, "duration": 190, "velocity": 119}, {"time": 15118, "pitch": 80, "duration": 221, "velocity": 110}, {"time": 15128, "pitch": 73, "duration": 200, "velocity": 113}, {"time": 15128, "pitch": 77, "duration": 211, "velocity": 110}, {"time": 15600, "pitch": 72, "duration": 2161, "velocity": 116}, {"time": 15600, "pitch": 80, "duration": 2161, "velocity": 110}, {"time": 15610, "pitch": 75, "duration": 2151, "velocity": 116}, {"time": 34379, "pitch": 48, "duration": 110, "velocity": 48}, {"time": 34429, "pitch": 49, "duration": 90, "velocity": 27}, {"time": 34489, "pitch": 51, "duration": 50, "velocity": 46}, {"time": 34519, "pitch": 53, "duration": 40, "velocity": 46}, {"time": 34549, "pitch": 54, "duration": 41, "velocity": 47}, {"time": 34569, "pitch": 56, "duration": 31, "velocity": 48}, {"time": 34590, "pitch": 58, "duration": 30, "velocity": 49}, {"time": 34610, "pitch": 60, "duration": 40, "velocity": 51}, {"time": 34630, "pitch": 61, "duration": 30, "velocity": 53}, {"time": 34650, "pitch": 63, "duration": 40, "velocity": 54}, {"time": 34680, "pitch": 65, "duration": 30, "velocity": 57}, {"time": 34700, "pitch": 66, "duration": 40, "velocity": 59}, {"time": 34720, "pitch": 68, "duration": 40, "velocity": 62}, {"time": 34740, "pitch": 70, "duration": 40, "velocity": 65}, {"time": 34760, "pitch": 72, "duration": 40, "velocity": 68}, {"time": 34790, "pitch": 73, "duration": 31, "velocity": 72}, {"time": 34811, "pitch": 75, "duration": 30, "velocity": 76}, {"time": 34831, "pitch": 77, "duration": 30, "velocity": 81}, {"time": 34851, "pitch": 78, "duration": 40, "velocity": 85}, {"time": 34881, "pitch": 80, "duration": 40, "velocity": 90}, {"time": 34901, "pitch": 82, "duration": 40, "velocity": 95}, {"time": 34921, "pitch": 84, "duration": 40, "velocity": 100}, {"time": 34951, "pitch": 85, "duration": 40, "velocity": 106}, {"time": 34971, "pitch": 87, "duration": 121, "velocity": 114}, {"time": 35062, "pitch": 82, "duration": 1900, "velocity": 91}, {"time": 35062, "pitch": 86, "duration": 1900, "velocity": 70}, {"time": 35062, "pitch": 89, "duration": 1900, "velocity": 87}, {"time": 36962, "pitch": 82, "duration": 1900, "velocity": 91}, {"time": 36962, "pitch": 87, "duration": 1900, "velocity": 87}, {"time": 36962, "pitch": 91, "duration": 1900, "velocity": 61}, {"time": 38882, "pitch": 82, "duration": 1900, "velocity": 91}, {"time": 38882, "pitch": 86, "duration": 1900, "velocity": 82}, {"time": 38882, "pitch": 89, "duration": 1900, "velocity": 70}, {"time": 40802, "pitch": 82, "duration": 798, "velocity": 107}, {"time": 40802, "pitch": 85, "duration": 798, "velocity": 105}, {"time": 40802, "pitch": 86, "duration": 10, "velocity": 82}, {"time": 40802, "pitch": 89, "duration": 10, "velocity": 36}, {"time": 40812, "pitch": 90, "duration": 798, "velocity": 95}, {"time": 41639, "pitch": 84, "duration": 641, "velocity": 102}, {"time": 41639, "pitch": 87, "duration": 671, "velocity": 113}, {"time": 41639, "pitch": 92, "duration": 601, "velocity": 113}, {"time": 42310, "pitch": 85, "duration": 50, "velocity": 63}, {"time": 42350, "pitch": 84, "duration": 40, "velocity": 89}, {"time": 42370, "pitch": 82, "duration": 30, "velocity": 105}, {"time": 42390, "pitch": 80, "duration": 31, "velocity": 105}, {"time": 42410, "pitch": 78, "duration": 31, "velocity": 105}, {"time": 42421, "pitch": 77, "duration": 30, "velocity": 113}, {"time": 42441, "pitch": 75, "duration": 30, "velocity": 113}, {"time": 42461, "pitch": 73, "duration": 30, "velocity": 110}, {"time": 42471, "pitch": 72, "duration": 30, "velocity": 113}, {"time": 42491, "pitch": 70, "duration": 30, "velocity": 113}, {"time": 42511, "pitch": 68, "duration": 30, "velocity": 110}, {"time": 42521, "pitch": 66, "duration": 30, "velocity": 107}, {"time": 42541, "pitch": 65, "duration": 30, "velocity": 113}, {"time": 42561, "pitch": 63, "duration": 40, "velocity": 107}, {"time": 42581, "pitch": 61, "duration": 40, "velocity": 110}, {"time": 42601, "pitch": 60, "duration": 40, "velocity": 107}, {"time": 42621, "pitch": 58, "duration": 31, "velocity": 107}, {"time": 42631, "pitch": 56, "duration": 31, "velocity": 107}, {"time": 42652, "pitch": 54, "duration": 30, "velocity": 107}, {"time": 42672, "pitch": 53, "duration": 10, "velocity": 102}, {"time": 42692, "pitch": 51, "duration": 10, "velocity": 100}, {"time": 42722, "pitch": 79, "duration": 161, "velocity": 102}, {"time": 42722, "pitch": 87, "duration": 171, "velocity": 102}, {"time": 42732, "pitch": 82, "duration": 151, "velocity": 110}, {"time": 42963, "pitch": 79, "duration": 151, "velocity": 107}, {"time": 42963, "pitch": 87, "duration": 171, "velocity": 105}, {"time": 42973, "pitch": 82, "duration": 151, "velocity": 116}, {"time": 43678, "pitch": 79, "duration": 150, "velocity": 122}, {"time": 43678, "pitch": 82, "duration": 170, "velocity": 122}, {"time": 43678, "pitch": 87, "duration": 170, "velocity": 119}, {"time": 43929, "pitch": 79, "duration": 171, "velocity": 122}, {"time": 43929, "pitch": 82, "duration": 181, "velocity": 119}, {"time": 43929, "pitch": 87, "duration": 171, "velocity": 116}, {"time": 44391, "pitch": 82, "duration": 251, "velocity": 105}, {"time": 44401, "pitch": 79, "duration": 241, "velocity": 119}, {"time": 44401, "pitch": 87, "duration": 241, "velocity": 116}, {"time": 44642, "pitch": 79, "duration": 1709, "velocity": 119}, {"time": 44642, "pitch": 82, "duration": 1689, "velocity": 105}, {"time": 44642, "pitch": 87, "duration": 1669, "velocity": 116}, {"time": 46562, "pitch": 77, "duration": 131, "velocity": 102}, {"time": 46562, "pitch": 80, "duration": 121, "velocity": 110}, {"time": 46562, "pitch": 87, "duration": 121, "velocity": 100}, {"time": 46783, "pitch": 77, "duration": 191, "velocity": 113}, {"time": 46783, "pitch": 87, "duration": 181, "velocity": 110}, {"time": 46793, "pitch": 80, "duration": 181, "velocity": 113}, {"time": 47518, "pitch": 79, "duration": 151, "velocity": 110}, {"time": 47518, "pitch": 82, "duration": 151, "velocity": 116}, {"time": 47518, "pitch": 89, "duration": 140, "velocity": 110}, {"time": 47749, "pitch": 89, "duration": 191, "velocity": 110}, {"time": 47759, "pitch": 79, "duration": 191, "velocity": 116}, {"time": 47759, "pitch": 82, "duration": 201, "velocity": 113}, {"time": 48231, "pitch": 84, "duration": 1207, "velocity": 105}, {"time": 48241, "pitch": 75, "duration": 1187, "velocity": 102}, {"time": 48241, "pitch": 80, "duration": 1177, "velocity": 105}, {"time": 49458, "pitch": 77, "duration": 773, "velocity": 95}, {"time": 49458, "pitch": 86, "duration": 783, "velocity": 82}, {"time": 49468, "pitch": 82, "duration": 794, "velocity": 110}, {"time": 50402, "pitch": 79, "duration": 158, "velocity": 102}, {"time": 50402, "pitch": 87, "duration": 168, "velocity": 102}, {"time": 50412, "pitch": 82, "duration": 148, "velocity": 110}, {"time": 50639, "pitch": 79, "duration": 148, "velocity": 107}, {"time": 50639, "pitch": 87, "duration": 168, "velocity": 105}, {"time": 50649, "pitch": 82, "duration": 148, "velocity": 116}, {"time": 51358, "pitch": 79, "duration": 151, "velocity": 122}, {"time": 51358, "pitch": 82, "duration": 171, "velocity": 122}, {"time": 51358, "pitch": 87, "duration": 171, "velocity": 119}, {"time": 51609, "pitch": 79, "duration": 171, "velocity": 122}, {"time": 51609, "pitch": 82, "duration": 181, "velocity": 119}, {"time": 51609, "pitch": 87, "duration": 171, "velocity": 116}, {"time": 52071, "pitch": 82, "duration": 1940, "velocity": 105}, {"time": 52081, "pitch": 79, "duration": 1950, "velocity": 119}, {"time": 52081, "pitch": 87, "duration": 1910, "velocity": 116}, {"time": 54222, "pitch": 84, "duration": 906, "velocity": 98}, {"time": 54232, "pitch": 77, "duration": 916, "velocity": 105}, {"time": 54232, "pitch": 80, "duration": 916, "velocity": 98}, {"time": 55178, "pitch": 86, "duration": 914, "velocity": 98}, {"time": 55188, "pitch": 79, "duration": 924, "velocity": 105}, {"time": 55188, "pitch": 82, "duration": 924, "velocity": 98}, {"time": 56162, "pitch": 78, "duration": 1900, "velocity": 116}, {"time": 56162, "pitch": 84, "duration": 1910, "velocity": 107}, {"time": 56162, "pitch": 87, "duration": 1900, "velocity": 102}, {"time": 58072, "pitch": 79, "duration": 159, "velocity": 110}, {"time": 58072, "pitch": 87, "duration": 119, "velocity": 110}, {"time": 58082, "pitch": 75, "duration": 149, "velocity": 116}, {"time": 58329, "pitch": 75, "duration": 227, "velocity": 116}, {"time": 58329, "pitch": 79, "duration": 217, "velocity": 110}, {"time": 58329, "pitch": 87, "duration": 188, "velocity": 110}, {"time": 59008, "pitch": 80, "duration": 141, "velocity": 107}, {"time": 59018, "pitch": 73, "duration": 171, "velocity": 110}, {"time": 59018, "pitch": 77, "duration": 171, "velocity": 110}, {"time": 59259, "pitch": 73, "duration": 181, "velocity": 110}, {"time": 59259, "pitch": 80, "duration": 251, "velocity": 100}, {"time": 59269, "pitch": 77, "duration": 191, "velocity": 116}, {"time": 59279, "pitch": 78, "duration": 10, "velocity": 52}, {"time": 59731, "pitch": 72, "duration": 2031, "velocity": 116}, {"time": 59731, "pitch": 80, "duration": 2081, "velocity": 105}, {"time": 59741, "pitch": 75, "duration": 2051, "velocity": 116}, {"time": 61942, "pitch": 75, "duration": 168, "velocity": 116}, {"time": 61942, "pitch": 79, "duration": 168, "velocity": 119}, {"time": 61942, "pitch": 82, "duration": 158, "velocity": 110}, {"time": 62189, "pitch": 75, "duration": 217, "velocity": 122}, {"time": 62189, "pitch": 79, "duration": 217, "velocity": 116}, {"time": 62189, "pitch": 82, "duration": 178, "velocity": 113}, {"time": 62868, "pitch": 73, "duration": 191, "velocity": 110}, {"time": 62868, "pitch": 80, "duration": 191, "velocity": 107}, {"time": 62879, "pitch": 77, "duration": 190, "velocity": 119}, {"time": 63120, "pitch": 80, "duration": 221, "velocity": 110}, {"time": 63130, "pitch": 73, "duration": 200, "velocity": 113}, {"time": 63130, "pitch": 77, "duration": 211, "velocity": 110}, {"time": 63602, "pitch": 72, "duration": 2171, "velocity": 116}, {"time": 63602, "pitch": 80, "duration": 2171, "velocity": 110}, {"time": 63612, "pitch": 75, "duration": 2161, "velocity": 116}, {"time": 82381, "pitch": 48, "duration": 110, "velocity": 48}, {"time": 82431, "pitch": 49, "duration": 90, "velocity": 27}, {"time": 82491, "pitch": 51, "duration": 50, "velocity": 46}, {"time": 82521, "pitch": 53, "duration": 40, "velocity": 46}, {"time": 82551, "pitch": 54, "duration": 41, "velocity": 47}, {"time": 82571, "pitch": 56, "duration": 31, "velocity": 48}, {"time": 82592, "pitch": 58, "duration": 30, "velocity": 49}, {"time": 82612, "pitch": 60, "duration": 40, "velocity": 51}, {"time": 82632, "pitch": 61, "duration": 30, "velocity": 53}, {"time": 82652, "pitch": 63, "duration": 40, "velocity": 54}, {"time": 82682, "pitch": 65, "duration": 30, "velocity": 57}, {"time": 82702, "pitch": 66, "duration": 40, "velocity": 59}, {"time": 82722, "pitch": 68, "duration": 40, "velocity": 62}, {"time": 82742, "pitch": 70, "duration": 40, "velocity": 65}, {"time": 82762, "pitch": 72, "duration": 40, "velocity": 68}, {"time": 82792, "pitch": 73, "duration": 31, "velocity": 72}, {"time": 82812, "pitch": 75, "duration": 31, "velocity": 76}, {"time": 82833, "pitch": 77, "duration": 30, "velocity": 81}, {"time": 82853, "pitch": 78, "duration": 40, "velocity": 85}, {"time": 82883, "pitch": 80, "duration": 40, "velocity": 90}, {"time": 82903, "pitch": 82, "duration": 40, "velocity": 95}, {"time": 82923, "pitch": 84, "duration": 40, "velocity": 100}, {"time": 82953, "pitch": 85, "duration": 40, "velocity": 106}, {"time": 82973, "pitch": 87, "duration": 70, "velocity": 114}, {"time": 83043, "pitch": 82, "duration": 1900, "velocity": 91}, {"time": 83043, "pitch": 86, "duration": 1900, "velocity": 70}, {"time": 83043, "pitch": 87, "duration": 20, "velocity": 114}, {"time": 83043, "pitch": 89, "duration": 1900, "velocity": 87}, {"time": 84964, "pitch": 82, "duration": 1900, "velocity": 91}, {"time": 84964, "pitch": 87, "duration": 1900, "velocity": 87}, {"time": 84964, "pitch": 91, "duration": 1900, "velocity": 61}, {"time": 86884, "pitch": 82, "duration": 1900, "velocity": 91}, {"time": 86884, "pitch": 86, "duration": 1900, "velocity": 82}, {"time": 86884, "pitch": 89, "duration": 1900, "velocity": 70}, {"time": 88804, "pitch": 82, "duration": 795, "velocity": 107}, {"time": 88804, "pitch": 85, "duration": 795, "velocity": 105}, {"time": 88804, "pitch": 86, "duration": 10, "velocity": 82}, {"time": 88804, "pitch": 89, "duration": 10, "velocity": 36}, {"time": 88814, "pitch": 90, "duration": 795, "velocity": 95}, {"time": 89639, "pitch": 84, "duration": 643, "velocity": 102}, {"time": 89639, "pitch": 87, "duration": 673, "velocity": 113}, {"time": 89639, "pitch": 92, "duration": 603, "velocity": 113}, {"time": 90312, "pitch": 85, "duration": 50, "velocity": 63}, {"time": 90352, "pitch": 84, "duration": 40, "velocity": 89}, {"time": 90372, "pitch": 82, "duration": 30, "velocity": 105}, {"time": 90392, "pitch": 80, "duration": 31, "velocity": 105}, {"time": 90412, "pitch": 78, "duration": 31, "velocity": 105}, {"time": 90423, "pitch": 77, "duration": 30, "velocity": 113}, {"time": 90443, "pitch": 75, "duration": 30, "velocity": 113}, {"time": 90463, "pitch": 73, "duration": 30, "velocity": 110}, {"time": 90473, "pitch": 72, "duration": 30, "velocity": 113}, {"time": 90493, "pitch": 70, "duration": 30, "velocity": 113}, {"time": 90513, "pitch": 68, "duration": 30, "velocity": 110}, {"time": 90523, "pitch": 66, "duration": 30, "velocity": 107}, {"time": 90543, "pitch": 65, "duration": 30, "velocity": 113}, {"time": 90563, "pitch": 63, "duration": 40, "velocity": 107}, {"time": 90583, "pitch": 61, "duration": 40, "velocity": 110}, {"time": 90603, "pitch": 60, "duration": 40, "velocity": 107}, {"time": 90623, "pitch": 58, "duration": 31, "velocity": 107}, {"time": 90633, "pitch": 56, "duration": 31, "velocity": 107}, {"time": 90654, "pitch": 54, "duration": 30, "velocity": 107}, {"time": 90674, "pitch": 53, "duration": 10, "velocity": 102}, {"time": 90694, "pitch": 51, "duration": 10, "velocity": 100}, {"time": 90724, "pitch": 79, "duration": 158, "velocity": 102}, {"time": 90724, "pitch": 87, "duration": 168, "velocity": 102}, {"time": 90734, "pitch": 82, "duration": 148, "velocity": 110}, {"time": 90961, "pitch": 79, "duration": 148, "velocity": 107}, {"time": 90961, "pitch": 87, "duration": 168, "velocity": 105}, {"time": 90971, "pitch": 82, "duration": 148, "velocity": 116}, {"time": 91680, "pitch": 79, "duration": 150, "velocity": 122}, {"time": 91680, "pitch": 82, "duration": 170, "velocity": 122}, {"time": 91680, "pitch": 87, "duration": 170, "velocity": 119}, {"time": 91931, "pitch": 79, "duration": 171, "velocity": 122}, {"time": 91931, "pitch": 82, "duration": 181, "velocity": 119}, {"time": 91931, "pitch": 87, "duration": 171, "velocity": 116}, {"time": 92393, "pitch": 82, "duration": 1940, "velocity": 105}, {"time": 92403, "pitch": 79, "duration": 1950, "velocity": 119}, {"time": 92403, "pitch": 87, "duration": 1910, "velocity": 116}, {"time": 94544, "pitch": 87, "duration": 20, "velocity": 100}, {"time": 94554, "pitch": 77, "duration": 10, "velocity": 102}, {"time": 94554, "pitch": 80, "duration": 10, "velocity": 110}, {"time": 94564, "pitch": 77, "duration": 128, "velocity": 102}, {"time": 94564, "pitch": 80, "duration": 118, "velocity": 110}, {"time": 94564, "pitch": 87, "duration": 118, "velocity": 100}, {"time": 94781, "pitch": 77, "duration": 188, "velocity": 113}, {"time": 94781, "pitch": 87, "duration": 178, "velocity": 110}, {"time": 94791, "pitch": 80, "duration": 178, "velocity": 113}, {"time": 95520, "pitch": 79, "duration": 151, "velocity": 110}, {"time": 95520, "pitch": 82, "duration": 151, "velocity": 116}, {"time": 95520, "pitch": 89, "duration": 140, "velocity": 110}, {"time": 95751, "pitch": 89, "duration": 191, "velocity": 110}, {"time": 95761, "pitch": 79, "duration": 191, "velocity": 116}, {"time": 95761, "pitch": 82, "duration": 201, "velocity": 113}, {"time": 96233, "pitch": 84, "duration": 1207, "velocity": 105}, {"time": 96243, "pitch": 75, "duration": 1187, "velocity": 102}, {"time": 96243, "pitch": 80, "duration": 1177, "velocity": 105}, {"time": 97460, "pitch": 77, "duration": 773, "velocity": 95}, {"time": 97460, "pitch": 86, "duration": 783, "velocity": 82}, {"time": 97470, "pitch": 82, "duration": 794, "velocity": 110}, {"time": 98404, "pitch": 79, "duration": 158, "velocity": 102}, {"time": 98404, "pitch": 87, "duration": 168, "velocity": 102}, {"time": 98414, "pitch": 82, "duration": 148, "velocity": 110}, {"time": 98641, "pitch": 79, "duration": 148, "velocity": 107}, {"time": 98641, "pitch": 87, "duration": 168, "velocity": 105}, {"time": 98651, "pitch": 82, "duration": 148, "velocity": 116}, {"time": 99360, "pitch": 79, "duration": 151, "velocity": 122}, {"time": 99360, "pitch": 82, "duration": 171, "velocity": 122}, {"time": 99360, "pitch": 87, "duration": 171, "velocity": 119}, {"time": 99611, "pitch": 79, "duration": 171, "velocity": 122}, {"time": 99611, "pitch": 82, "duration": 181, "velocity": 119}, {"time": 99611, "pitch": 87, "duration": 171, "velocity": 116}, {"time": 100069, "pitch": 82, "duration": 1940, "velocity": 105}, {"time": 100079, "pitch": 79, "duration": 1950, "velocity": 119}, {"time": 100079, "pitch": 87, "duration": 1910, "velocity": 116}, {"time": 102216, "pitch": 84, "duration": 914, "velocity": 98}, {"time": 102226, "pitch": 77, "duration": 924, "velocity": 105}, {"time": 102226, "pitch": 80, "duration": 924, "velocity": 98}, {"time": 103180, "pitch": 86, "duration": 907, "velocity": 98}, {"time": 103190, "pitch": 79, "duration": 917, "velocity": 105}, {"time": 103190, "pitch": 82, "duration": 917, "velocity": 98}, {"time": 104156, "pitch": 78, "duration": 1900, "velocity": 116}, {"time": 104156, "pitch": 84, "duration": 1910, "velocity": 107}, {"time": 104156, "pitch": 87, "duration": 1900, "velocity": 102}, {"time": 106076, "pitch": 75, "duration": 181, "velocity": 116}, {"time": 106076, "pitch": 82, "duration": 181, "velocity": 110}, {"time": 106086, "pitch": 79, "duration": 171, "velocity": 110}, {"time": 106317, "pitch": 82, "duration": 171, "velocity": 110}, {"time": 106327, "pitch": 75, "duration": 191, "velocity": 116}, {"time": 106327, "pitch": 79, "duration": 231, "velocity": 105}, {"time": 107010, "pitch": 80, "duration": 141, "velocity": 107}, {"time": 107020, "pitch": 73, "duration": 171, "velocity": 110}, {"time": 107020, "pitch": 77, "duration": 171, "velocity": 110}, {"time": 107261, "pitch": 73, "duration": 181, "velocity": 110}, {"time": 107261, "pitch": 80, "duration": 251, "velocity": 100}, {"time": 107271, "pitch": 77, "duration": 191, "velocity": 116}, {"time": 107281, "pitch": 78, "duration": 10, "velocity": 52}, {"time": 107730, "pitch": 72, "duration": 2028, "velocity": 116}, {"time": 107730, "pitch": 80, "duration": 2078, "velocity": 105}, {"time": 107740, "pitch": 75, "duration": 2048, "velocity": 116}, {"time": 109916, "pitch": 75, "duration": 181, "velocity": 105}, {"time": 109916, "pitch": 79, "duration": 181, "velocity": 116}, {"time": 109916, "pitch": 82, "duration": 191, "velocity": 105}, {"time": 109916, "pitch": 84, "duration": 41, "velocity": 105}, {"time": 109926, "pitch": 77, "duration": 10, "velocity": 102}, {"time": 110157, "pitch": 82, "duration": 151, "velocity": 107}, {"time": 110167, "pitch": 75, "duration": 191, "velocity": 116}, {"time": 110167, "pitch": 79, "duration": 211, "velocity": 110}, {"time": 110870, "pitch": 73, "duration": 171, "velocity": 105}, {"time": 110870, "pitch": 77, "duration": 171, "velocity": 113}, {"time": 110870, "pitch": 80, "duration": 161, "velocity": 107}, {"time": 111122, "pitch": 73, "duration": 200, "velocity": 116}, {"time": 111122, "pitch": 77, "duration": 200, "velocity": 119}, {"time": 111122, "pitch": 80, "duration": 221, "velocity": 116}, {"time": 111590, "pitch": 72, "duration": 1949, "velocity": 107}, {"time": 111590, "pitch": 75, "duration": 1969, "velocity": 116}, {"time": 111590, "pitch": 80, "duration": 2009, "velocity": 105}, {"time": 113757, "pitch": 75, "duration": 180, "velocity": 116}, {"time": 113757, "pitch": 82, "duration": 180, "velocity": 110}, {"time": 113767, "pitch": 79, "duration": 170, "velocity": 110}, {"time": 113998, "pitch": 82, "duration": 170, "velocity": 110}, {"time": 114008, "pitch": 75, "duration": 190, "velocity": 116}, {"time": 114008, "pitch": 79, "duration": 231, "velocity": 105}, {"time": 114711, "pitch": 73, "duration": 190, "velocity": 102}, {"time": 114711, "pitch": 80, "duration": 180, "velocity": 102}, {"time": 114721, "pitch": 77, "duration": 180, "velocity": 107}, {"time": 114962, "pitch": 80, "duration": 221, "velocity": 105}, {"time": 114972, "pitch": 73, "duration": 201, "velocity": 113}, {"time": 114972, "pitch": 77, "duration": 201, "velocity": 116}, {"time": 115440, "pitch": 72, "duration": 2038, "velocity": 119}, {"time": 115440, "pitch": 75, "duration": 2058, "velocity": 116}, {"time": 115440, "pitch": 80, "duration": 2068, "velocity": 105}, {"time": 117617, "pitch": 75, "duration": 170, "velocity": 116}, {"time": 117617, "pitch": 79, "duration": 170, "velocity": 119}, {"time": 117617, "pitch": 82, "duration": 160, "velocity": 110}, {"time": 117868, "pitch": 75, "duration": 221, "velocity": 122}, {"time": 117868, "pitch": 79, "duration": 221, "velocity": 116}, {"time": 117868, "pitch": 82, "duration": 181, "velocity": 113}, {"time": 118551, "pitch": 73, "duration": 191, "velocity": 110}, {"time": 118551, "pitch": 80, "duration": 191, "velocity": 107}, {"time": 118561, "pitch": 77, "duration": 191, "velocity": 119}, {"time": 118802, "pitch": 80, "duration": 221, "velocity": 110}, {"time": 118812, "pitch": 73, "duration": 201, "velocity": 113}, {"time": 118812, "pitch": 77, "duration": 211, "velocity": 110}, {"time": 119280, "pitch": 72, "duration": 1562, "velocity": 116}, {"time": 119280, "pitch": 80, "duration": 1573, "velocity": 110}, {"time": 119290, "pitch": 75, "duration": 1563, "velocity": 116}, {"time": 120782, "pitch": 48, "duration": 111, "velocity": 48}, {"time": 120832, "pitch": 49, "duration": 91, "velocity": 27}, {"time": 120893, "pitch": 51, "duration": 50, "velocity": 46}, {"time": 120923, "pitch": 53, "duration": 40, "velocity": 46}, {"time": 120953, "pitch": 54, "duration": 40, "velocity": 47}, {"time": 120973, "pitch": 56, "duration": 29, "velocity": 48}, {"time": 120993, "pitch": 58, "duration": 29, "velocity": 49}, {"time": 121012, "pitch": 60, "duration": 40, "velocity": 51}, {"time": 121032, "pitch": 61, "duration": 30, "velocity": 53}, {"time": 121052, "pitch": 63, "duration": 39, "velocity": 54}, {"time": 121081, "pitch": 65, "duration": 30, "velocity": 57}, {"time": 121101, "pitch": 66, "duration": 40, "velocity": 59}, {"time": 121121, "pitch": 68, "duration": 39, "velocity": 62}, {"time": 121141, "pitch": 70, "duration": 39, "velocity": 65}, {"time": 121160, "pitch": 72, "duration": 40, "velocity": 68}, {"time": 121190, "pitch": 73, "duration": 30, "velocity": 72}, {"time": 121210, "pitch": 75, "duration": 29, "velocity": 76}, {"time": 121230, "pitch": 77, "duration": 29, "velocity": 81}, {"time": 121249, "pitch": 78, "duration": 40, "velocity": 85}, {"time": 121279, "pitch": 80, "duration": 39, "velocity": 90}, {"time": 121299, "pitch": 82, "duration": 39, "velocity": 95}, {"time": 121318, "pitch": 84, "duration": 40, "velocity": 100}, {"time": 121348, "pitch": 85, "duration": 39, "velocity": 106}, {"time": 121368, "pitch": 87, "duration": 69, "velocity": 114}, {"time": 121437, "pitch": 82, "duration": 1900, "velocity": 91}, {"time": 121437, "pitch": 86, "duration": 1900, "velocity": 70}, {"time": 121437, "pitch": 87, "duration": 20, "velocity": 114}, {"time": 121437, "pitch": 89, "duration": 1900, "velocity": 87}, {"time": 123357, "pitch": 82, "duration": 1900, "velocity": 91}, {"time": 123357, "pitch": 85, "duration": 10, "velocity": 87}, {"time": 123357, "pitch": 87, "duration": 1900, "velocity": 87}, {"time": 123357, "pitch": 91, "duration": 1900, "velocity": 61}, {"time": 125277, "pitch": 82, "duration": 1890, "velocity": 91}, {"time": 125277, "pitch": 89, "duration": 1920, "velocity": 70}, {"time": 125307, "pitch": 86, "duration": 1890, "velocity": 82}, {"time": 127177, "pitch": 90, "duration": 783, "velocity": 95}, {"time": 127187, "pitch": 82, "duration": 773, "velocity": 107}, {"time": 127187, "pitch": 85, "duration": 783, "velocity": 105}, {"time": 127197, "pitch": 86, "duration": 10, "velocity": 82}, {"time": 127197, "pitch": 89, "duration": 10, "velocity": 36}, {"time": 128031, "pitch": 84, "duration": 2562, "velocity": 102}, {"time": 128031, "pitch": 92, "duration": 2512, "velocity": 113}, {"time": 128041, "pitch": 87, "duration": 2582, "velocity": 113}, {"time": 130632, "pitch": 85, "duration": 50, "velocity": 63}, {"time": 130672, "pitch": 84, "duration": 39, "velocity": 89}, {"time": 130692, "pitch": 82, "duration": 29, "velocity": 105}, {"time": 130711, "pitch": 80, "duration": 30, "velocity": 105}, {"time": 130731, "pitch": 78, "duration": 30, "velocity": 105}, {"time": 130741, "pitch": 77, "duration": 30, "velocity": 113}, {"time": 130761, "pitch": 75, "duration": 29, "velocity": 113}, {"time": 130781, "pitch": 73, "duration": 29, "velocity": 110}, {"time": 130790, "pitch": 72, "duration": 30, "velocity": 113}, {"time": 130810, "pitch": 70, "duration": 30, "velocity": 113}, {"time": 130830, "pitch": 68, "duration": 30, "velocity": 110}, {"time": 130840, "pitch": 66, "duration": 29, "velocity": 107}, {"time": 130860, "pitch": 65, "duration": 29, "velocity": 113}, {"time": 130879, "pitch": 63, "duration": 40, "velocity": 107}, {"time": 130899, "pitch": 61, "duration": 40, "velocity": 110}, {"time": 130919, "pitch": 60, "duration": 39, "velocity": 107}, {"time": 130939, "pitch": 58, "duration": 29, "velocity": 107}, {"time": 130948, "pitch": 56, "duration": 30, "velocity": 107}, {"time": 130968, "pitch": 54, "duration": 30, "velocity": 107}, {"time": 130988, "pitch": 53, "duration": 10, "velocity": 102}, {"time": 131008, "pitch": 51, "duration": 10, "velocity": 100}, {"time": 131037, "pitch": 79, "duration": 161, "velocity": 102}, {"time": 131037, "pitch": 87, "duration": 171, "velocity": 102}, {"time": 131047, "pitch": 82, "duration": 151, "velocity": 110}, {"time": 131278, "pitch": 79, "duration": 151, "velocity": 107}, {"time": 131278, "pitch": 87, "duration": 171, "velocity": 105}, {"time": 131288, "pitch": 82, "duration": 151, "velocity": 116}, {"time": 132001, "pitch": 79, "duration": 151, "velocity": 122}, {"time": 132001, "pitch": 82, "duration": 171, "velocity": 122}, {"time": 132001, "pitch": 87, "duration": 171, "velocity": 119}, {"time": 132252, "pitch": 79, "duration": 171, "velocity": 122}, {"time": 132252, "pitch": 82, "duration": 181, "velocity": 119}, {"time": 132252, "pitch": 87, "duration": 171, "velocity": 116}, {"time": 132710, "pitch": 82, "duration": 1940, "velocity": 105}, {"time": 132720, "pitch": 79, "duration": 1950, "velocity": 119}, {"time": 132720, "pitch": 87, "duration": 1911, "velocity": 116}, {"time": 134858, "pitch": 87, "duration": 19, "velocity": 100}, {"time": 134868, "pitch": 77, "duration": 9, "velocity": 102}, {"time": 134868, "pitch": 80, "duration": 9, "velocity": 110}, {"time": 134877, "pitch": 77, "duration": 131, "velocity": 102}, {"time": 134877, "pitch": 80, "duration": 121, "velocity": 110}, {"time": 134877, "pitch": 87, "duration": 121, "velocity": 100}, {"time": 135098, "pitch": 77, "duration": 191, "velocity": 113}, {"time": 135098, "pitch": 87, "duration": 181, "velocity": 110}, {"time": 135108, "pitch": 80, "duration": 181, "velocity": 113}, {"time": 135842, "pitch": 79, "duration": 150, "velocity": 110}, {"time": 135842, "pitch": 82, "duration": 150, "velocity": 116}, {"time": 135842, "pitch": 89, "duration": 140, "velocity": 110}, {"time": 136073, "pitch": 89, "duration": 190, "velocity": 110}, {"time": 136083, "pitch": 79, "duration": 190, "velocity": 116}, {"time": 136083, "pitch": 82, "duration": 200, "velocity": 113}, {"time": 136551, "pitch": 84, "duration": 1211, "velocity": 105}, {"time": 136561, "pitch": 75, "duration": 1191, "velocity": 102}, {"time": 136561, "pitch": 80, "duration": 1181, "velocity": 105}, {"time": 137782, "pitch": 77, "duration": 768, "velocity": 95}, {"time": 137782, "pitch": 86, "duration": 778, "velocity": 82}, {"time": 137792, "pitch": 82, "duration": 787, "velocity": 110}, {"time": 138718, "pitch": 79, "duration": 160, "velocity": 102}, {"time": 138718, "pitch": 87, "duration": 170, "velocity": 102}, {"time": 138728, "pitch": 82, "duration": 150, "velocity": 110}, {"time": 138959, "pitch": 79, "duration": 150, "velocity": 107}, {"time": 138959, "pitch": 87, "duration": 170, "velocity": 105}, {"time": 138969, "pitch": 82, "duration": 150, "velocity": 116}, {"time": 139682, "pitch": 79, "duration": 150, "velocity": 122}, {"time": 139682, "pitch": 82, "duration": 170, "velocity": 122}, {"time": 139682, "pitch": 87, "duration": 170, "velocity": 119}, {"time": 139933, "pitch": 79, "duration": 171, "velocity": 122}, {"time": 139933, "pitch": 82, "duration": 181, "velocity": 119}, {"time": 139933, "pitch": 87, "duration": 171, "velocity": 116}, {"time": 140391, "pitch": 82, "duration": 1940, "velocity": 105}, {"time": 140401, "pitch": 79, "duration": 1949, "velocity": 119}, {"time": 140401, "pitch": 87, "duration": 1910, "velocity": 116}, {"time": 142538, "pitch": 84, "duration": 914, "velocity": 98}, {"time": 142548, "pitch": 77, "duration": 924, "velocity": 105}, {"time": 142548, "pitch": 80, "duration": 924, "velocity": 98}, {"time": 143502, "pitch": 86, "duration": 907, "velocity": 98}, {"time": 143512, "pitch": 79, "duration": 916, "velocity": 105}, {"time": 143512, "pitch": 82, "duration": 916, "velocity": 98}, {"time": 144478, "pitch": 78, "duration": 1900, "velocity": 116}, {"time": 144478, "pitch": 84, "duration": 1910, "velocity": 107}, {"time": 144478, "pitch": 87, "duration": 1900, "velocity": 102}, {"time": 146398, "pitch": 79, "duration": 161, "velocity": 102}, {"time": 146398, "pitch": 87, "duration": 171, "velocity": 102}, {"time": 146408, "pitch": 82, "duration": 151, "velocity": 110}, {"time": 146639, "pitch": 79, "duration": 151, "velocity": 107}, {"time": 146639, "pitch": 87, "duration": 171, "velocity": 105}, {"time": 146649, "pitch": 82, "duration": 151, "velocity": 116}, {"time": 147362, "pitch": 79, "duration": 151, "velocity": 122}, {"time": 147362, "pitch": 82, "duration": 171, "velocity": 122}, {"time": 147362, "pitch": 87, "duration": 171, "velocity": 119}, {"time": 147613, "pitch": 79, "duration": 171, "velocity": 122}, {"time": 147613, "pitch": 82, "duration": 181, "velocity": 119}, {"time": 147613, "pitch": 87, "duration": 171, "velocity": 116}, {"time": 148071, "pitch": 82, "duration": 1936, "velocity": 105}, {"time": 148081, "pitch": 79, "duration": 1946, "velocity": 119}, {"time": 148081, "pitch": 87, "duration": 1906, "velocity": 116}, {"time": 150218, "pitch": 87, "duration": 20, "velocity": 100}, {"time": 150228, "pitch": 77, "duration": 10, "velocity": 102}, {"time": 150228, "pitch": 80, "duration": 10, "velocity": 110}, {"time": 150238, "pitch": 77, "duration": 131, "velocity": 102}, {"time": 150238, "pitch": 80, "duration": 121, "velocity": 110}, {"time": 150238, "pitch": 87, "duration": 121, "velocity": 100}, {"time": 150459, "pitch": 77, "duration": 191, "velocity": 113}, {"time": 150459, "pitch": 87, "duration": 181, "velocity": 110}, {"time": 150469, "pitch": 80, "duration": 181, "velocity": 113}, {"time": 151202, "pitch": 79, "duration": 148, "velocity": 110}, {"time": 151202, "pitch": 82, "duration": 148, "velocity": 116}, {"time": 151202, "pitch": 89, "duration": 138, "velocity": 110}, {"time": 151429, "pitch": 89, "duration": 188, "velocity": 110}, {"time": 151439, "pitch": 79, "duration": 188, "velocity": 116}, {"time": 151439, "pitch": 82, "duration": 198, "velocity": 113}, {"time": 151907, "pitch": 84, "duration": 1215, "velocity": 105}, {"time": 151917, "pitch": 75, "duration": 1195, "velocity": 102}, {"time": 151917, "pitch": 80, "duration": 1185, "velocity": 105}, {"time": 153142, "pitch": 77, "duration": 765, "velocity": 95}, {"time": 153142, "pitch": 86, "duration": 775, "velocity": 82}, {"time": 153152, "pitch": 82, "duration": 786, "velocity": 110}, {"time": 154078, "pitch": 79, "duration": 161, "velocity": 102}, {"time": 154078, "pitch": 87, "duration": 171, "velocity": 102}, {"time": 154088, "pitch": 82, "duration": 151, "velocity": 110}, {"time": 154319, "pitch": 79, "duration": 151, "velocity": 107}, {"time": 154319, "pitch": 87, "duration": 171, "velocity": 105}, {"time": 154329, "pitch": 82, "duration": 151, "velocity": 116}, {"time": 155042, "pitch": 79, "duration": 148, "velocity": 122}, {"time": 155042, "pitch": 82, "duration": 168, "velocity": 122}, {"time": 155042, "pitch": 87, "duration": 168, "velocity": 119}, {"time": 155289, "pitch": 79, "duration": 168, "velocity": 122}, {"time": 155289, "pitch": 82, "duration": 178, "velocity": 119}, {"time": 155289, "pitch": 87, "duration": 168, "velocity": 116}, {"time": 155747, "pitch": 82, "duration": 1940, "velocity": 105}, {"time": 155757, "pitch": 79, "duration": 1950, "velocity": 119}, {"time": 155757, "pitch": 87, "duration": 1910, "velocity": 116}, {"time": 157898, "pitch": 84, "duration": 914, "velocity": 98}, {"time": 157908, "pitch": 77, "duration": 924, "velocity": 105}, {"time": 157908, "pitch": 80, "duration": 924, "velocity": 98}, {"time": 158862, "pitch": 86, "duration": 906, "velocity": 98}, {"time": 158872, "pitch": 79, "duration": 916, "velocity": 105}, {"time": 158872, "pitch": 82, "duration": 916, "velocity": 98}, {"time": 159838, "pitch": 78, "duration": 1900, "velocity": 116}, {"time": 159838, "pitch": 84, "duration": 1910, "velocity": 107}, {"time": 159838, "pitch": 87, "duration": 1900, "velocity": 102}, {"time": 161748, "pitch": 75, "duration": 181, "velocity": 116}, {"time": 161748, "pitch": 79, "duration": 181, "velocity": 110}, {"time": 161748, "pitch": 87, "duration": 141, "velocity": 110}, {"time": 162010, "pitch": 75, "duration": 231, "velocity": 116}, {"time": 162010, "pitch": 79, "duration": 221, "velocity": 110}, {"time": 162010, "pitch": 87, "duration": 190, "velocity": 110}, {"time": 162693, "pitch": 80, "duration": 138, "velocity": 107}, {"time": 162703, "pitch": 73, "duration": 168, "velocity": 110}, {"time": 162703, "pitch": 77, "duration": 168, "velocity": 110}, {"time": 162940, "pitch": 73, "duration": 178, "velocity": 110}, {"time": 162940, "pitch": 80, "duration": 247, "velocity": 100}, {"time": 162950, "pitch": 77, "duration": 187, "velocity": 116}, {"time": 162960, "pitch": 78, "duration": 9, "velocity": 52}, {"time": 163407, "pitch": 72, "duration": 272, "velocity": 116}, {"time": 163407, "pitch": 80, "duration": 272, "velocity": 105}, {"time": 163417, "pitch": 75, "duration": 2051, "velocity": 116}, {"time": 163679, "pitch": 72, "duration": 1759, "velocity": 116}, {"time": 163679, "pitch": 80, "duration": 1809, "velocity": 105}, {"time": 165599, "pitch": 75, "duration": 180, "velocity": 105}, {"time": 165599, "pitch": 79, "duration": 180, "velocity": 116}, {"time": 165599, "pitch": 82, "duration": 190, "velocity": 105}, {"time": 165599, "pitch": 84, "duration": 40, "velocity": 105}, {"time": 165609, "pitch": 77, "duration": 10, "velocity": 102}, {"time": 165840, "pitch": 82, "duration": 150, "velocity": 107}, {"time": 165850, "pitch": 75, "duration": 191, "velocity": 116}, {"time": 165850, "pitch": 79, "duration": 211, "velocity": 110}, {"time": 166553, "pitch": 73, "duration": 168, "velocity": 105}, {"time": 166553, "pitch": 77, "duration": 168, "velocity": 113}, {"time": 166553, "pitch": 80, "duration": 158, "velocity": 107}, {"time": 166800, "pitch": 73, "duration": 197, "velocity": 116}, {"time": 166800, "pitch": 77, "duration": 197, "velocity": 119}, {"time": 166800, "pitch": 80, "duration": 217, "velocity": 116}, {"time": 167268, "pitch": 72, "duration": 1950, "velocity": 107}, {"time": 167268, "pitch": 75, "duration": 1970, "velocity": 116}, {"time": 167268, "pitch": 80, "duration": 2010, "velocity": 105}, {"time": 169439, "pitch": 75, "duration": 181, "velocity": 116}, {"time": 169439, "pitch": 82, "duration": 181, "velocity": 110}, {"time": 169449, "pitch": 79, "duration": 171, "velocity": 110}, {"time": 169680, "pitch": 82, "duration": 171, "velocity": 110}, {"time": 169690, "pitch": 75, "duration": 191, "velocity": 116}, {"time": 169690, "pitch": 79, "duration": 231, "velocity": 105}, {"time": 170393, "pitch": 73, "duration": 188, "velocity": 102}, {"time": 170393, "pitch": 80, "duration": 178, "velocity": 102}, {"time": 170403, "pitch": 77, "duration": 178, "velocity": 107}, {"time": 170640, "pitch": 80, "duration": 217, "velocity": 105}, {"time": 170650, "pitch": 73, "duration": 197, "velocity": 113}, {"time": 170650, "pitch": 77, "duration": 197, "velocity": 116}, {"time": 171118, "pitch": 72, "duration": 2040, "velocity": 119}, {"time": 171118, "pitch": 75, "duration": 2061, "velocity": 116}, {"time": 171118, "pitch": 80, "duration": 2071, "velocity": 105}, {"time": 173299, "pitch": 75, "duration": 171, "velocity": 116}, {"time": 173299, "pitch": 79, "duration": 171, "velocity": 119}, {"time": 173299, "pitch": 82, "duration": 161, "velocity": 110}, {"time": 173550, "pitch": 75, "duration": 221, "velocity": 122}, {"time": 173550, "pitch": 79, "duration": 221, "velocity": 116}, {"time": 173550, "pitch": 82, "duration": 181, "velocity": 113}, {"time": 174233, "pitch": 73, "duration": 188, "velocity": 110}, {"time": 174233, "pitch": 80, "duration": 188, "velocity": 107}, {"time": 174243, "pitch": 77, "duration": 188, "velocity": 119}, {"time": 174480, "pitch": 80, "duration": 217, "velocity": 110}, {"time": 174490, "pitch": 73, "duration": 197, "velocity": 113}, {"time": 174490, "pitch": 77, "duration": 207, "velocity": 110}, {"time": 174958, "pitch": 72, "duration": 4045, "velocity": 116}, {"time": 174958, "pitch": 80, "duration": 4045, "velocity": 110}, {"time": 174968, "pitch": 75, "duration": 4035, "velocity": 116}, {"time": 480, "pitch": 46, "duration": 10, "velocity": 113}, {"time": 962, "pitch": 46, "duration": 10, "velocity": 113}, {"time": 1436, "pitch": 40, "duration": 10, "velocity": 90}, {"time": 1557, "pitch": 40, "duration": 10, "velocity": 95}, {"time": 1677, "pitch": 40, "duration": 10, "velocity": 101}, {"time": 1798, "pitch": 40, "duration": 10, "velocity": 107}, {"time": 1918, "pitch": 40, "duration": 10, "velocity": 106}, {"time": 2039, "pitch": 36, "duration": 10, "velocity": 107}, {"time": 2039, "pitch": 57, "duration": 10, "velocity": 85}, {"time": 2400, "pitch": 36, "duration": 10, "velocity": 107}, {"time": 2400, "pitch": 57, "duration": 10, "velocity": 75}, {"time": 2641, "pitch": 42, "duration": 10, "velocity": 83}, {"time": 2882, "pitch": 40, "duration": 10, "velocity": 100}, {"time": 2882, "pitch": 42, "duration": 10, "velocity": 102}, {"time": 3119, "pitch": 42, "duration": 10, "velocity": 83}, {"time": 3356, "pitch": 36, "duration": 10, "velocity": 99}, {"time": 3356, "pitch": 42, "duration": 10, "velocity": 99}, {"time": 3597, "pitch": 36, "duration": 10, "velocity": 99}, {"time": 3597, "pitch": 42, "duration": 10, "velocity": 83}, {"time": 3838, "pitch": 40, "duration": 10, "velocity": 100}, {"time": 3838, "pitch": 42, "duration": 10, "velocity": 102}, {"time": 4079, "pitch": 36, "duration": 10, "velocity": 107}, {"time": 4079, "pitch": 57, "duration": 10, "velocity": 58}, {"time": 4320, "pitch": 42, "duration": 10, "velocity": 99}, {"time": 4561, "pitch": 36, "duration": 10, "velocity": 107}, {"time": 4561, "pitch": 42, "duration": 10, "velocity": 83}, {"time": 4802, "pitch": 40, "duration": 10, "velocity": 100}, {"time": 4802, "pitch": 42, "duration": 10, "velocity": 102}, {"time": 5039, "pitch": 42, "duration": 10, "velocity": 83}, {"time": 5276, "pitch": 36, "duration": 10, "velocity": 99}, {"time": 5276, "pitch": 42, "duration": 10, "velocity": 99}, {"time": 5517, "pitch": 36, "duration": 10, "velocity": 99}, {"time": 5517, "pitch": 42, "duration": 10, "velocity": 83}, {"time": 5758, "pitch": 40, "duration": 10, "velocity": 100}, {"time": 5758, "pitch": 42, "duration": 10, "velocity": 102}, {"time": 5999, "pitch": 42, "duration": 10, "velocity": 86}, {"time": 6240, "pitch": 36, "duration": 10, "velocity": 107}, {"time": 6240, "pitch": 57, "duration": 10, "velocity": 75}, {"time": 6481, "pitch": 42, "duration": 10, "velocity": 83}, {"time": 6722, "pitch": 40, "duration": 10, "velocity": 100}, {"time": 6722, "pitch": 42, "duration": 10, "velocity": 102}, {"time": 6959, "pitch": 42, "duration": 10, "velocity": 83}, {"time": 7196, "pitch": 36, "duration": 10, "velocity": 99}, {"time": 7196, "pitch": 42, "duration": 10, "velocity": 99}, {"time": 7437, "pitch": 36, "duration": 10, "velocity": 99}, {"time": 7437, "pitch": 42, "duration": 10, "velocity": 83}, {"time": 7678, "pitch": 40, "duration": 10, "velocity": 100}, {"time": 7678, "pitch": 42, "duration": 10, "velocity": 102}, {"time": 7919, "pitch": 36, "duration": 10, "velocity": 107}, {"time": 7919, "pitch": 57, "duration": 10, "velocity": 58}, {"time": 8160, "pitch": 42, "duration": 10, "velocity": 99}, {"time": 8401, "pitch": 36, "duration": 10, "velocity": 107}, {"time": 8401, "pitch": 42, "duration": 10, "velocity": 83}, {"time": 8642, "pitch": 40, "duration": 10, "velocity": 100}, {"time": 8642, "pitch": 42, "duration": 10, "velocity": 102}, {"time": 8879, "pitch": 42, "duration": 10, "velocity": 83}, {"time": 9116, "pitch": 36, "duration": 10, "velocity": 99}, {"time": 9116, "pitch": 42, "duration": 10, "velocity": 99}, {"time": 9357, "pitch": 36, "duration": 10, "velocity": 99}, {"time": 9357, "pitch": 42, "duration": 10, "velocity": 83}, {"time": 9598, "pitch": 40, "duration": 10, "velocity": 100}, {"time": 9598, "pitch": 42, "duration": 10, "velocity": 102}, {"time": 9839, "pitch": 42, "duration": 10, "velocity": 86}, {"time": 10080, "pitch": 36, "duration": 11, "velocity": 107}, {"time": 10080, "pitch": 57, "duration": 11, "velocity": 75}, {"time": 10322, "pitch": 42, "duration": 10, "velocity": 83}, {"time": 10563, "pitch": 40, "duration": 9, "velocity": 100}, {"time": 10563, "pitch": 42, "duration": 9, "velocity": 102}, {"time": 10799, "pitch": 42, "duration": 10, "velocity": 83}, {"time": 11036, "pitch": 36, "duration": 10, "velocity": 99}, {"time": 11036, "pitch": 42, "duration": 10, "velocity": 99}, {"time": 11277, "pitch": 36, "duration": 10, "velocity": 99}, {"time": 11277, "pitch": 42, "duration": 10, "velocity": 83}, {"time": 11518, "pitch": 40, "duration": 11, "velocity": 100}, {"time": 11518, "pitch": 42, "duration": 11, "velocity": 102}, {"time": 11760, "pitch": 36, "duration": 10, "velocity": 107}, {"time": 11760, "pitch": 57, "duration": 10, "velocity": 58}, {"time": 12001, "pitch": 42, "duration": 10, "velocity": 99}, {"time": 12242, "pitch": 36, "duration": 10, "velocity": 107}, {"time": 12242, "pitch": 42, "duration": 10, "velocity": 83}, {"time": 12483, "pitch": 40, "duration": 9, "velocity": 100}, {"time": 12483, "pitch": 42, "duration": 9, "velocity": 102}, {"time": 12720, "pitch": 42, "duration": 9, "velocity": 83}, {"time": 12957, "pitch": 36, "duration": 10, "velocity": 99}, {"time": 12957, "pitch": 42, "duration": 10, "velocity": 99}, {"time": 13198, "pitch": 36, "duration": 10, "velocity": 99}, {"time": 13198, "pitch": 42, "duration": 10, "velocity": 83}, {"time": 13439, "pitch": 40, "duration": 10, "velocity": 100}, {"time": 13439, "pitch": 42, "duration": 10, "velocity": 102}, {"time": 13680, "pitch": 42, "duration": 10, "velocity": 86}, {"time": 13921, "pitch": 36, "duration": 10, "velocity": 107}, {"time": 13921, "pitch": 57, "duration": 10, "velocity": 75}, {"time": 14162, "pitch": 42, "duration": 10, "velocity": 83}, {"time": 14403, "pitch": 40, "duration": 10, "velocity": 100}, {"time": 14403, "pitch": 42, "duration": 10, "velocity": 102}, {"time": 14640, "pitch": 42, "duration": 10, "velocity": 83}, {"time": 14877, "pitch": 36, "duration": 10, "velocity": 99}, {"time": 14877, "pitch": 42, "duration": 10, "velocity": 99}, {"time": 15118, "pitch": 36, "duration": 10, "velocity": 99}, {"time": 15118, "pitch": 42, "duration": 10, "velocity": 83}, {"time": 15359, "pitch": 40, "duration": 10, "velocity": 100}, {"time": 15359, "pitch": 42, "duration": 10, "velocity": 102}, {"time": 15600, "pitch": 36, "duration": 10, "velocity": 107}, {"time": 15600, "pitch": 57, "duration": 10, "velocity": 58}, {"time": 15841, "pitch": 46, "duration": 10, "velocity": 107}, {"time": 16082, "pitch": 50, "duration": 10, "velocity": 105}, {"time": 16092, "pitch": 47, "duration": 10, "velocity": 116}, {"time": 16323, "pitch": 46, "duration": 10, "velocity": 107}, {"time": 16441, "pitch": 47, "duration": 10, "velocity": 115}, {"time": 16451, "pitch": 43, "duration": 10, "velocity": 120}, {"time": 16560, "pitch": 40, "duration": 10, "velocity": 35}, {"time": 16649, "pitch": 40, "duration": 9, "velocity": 57}, {"time": 16718, "pitch": 40, "duration": 10, "velocity": 76}, {"time": 16797, "pitch": 40, "duration": 10, "velocity": 99}, {"time": 16797, "pitch": 46, "duration": 10, "velocity": 93}, {"time": 17038, "pitch": 40, "duration": 10, "velocity": 100}, {"time": 17279, "pitch": 40, "duration": 10, "velocity": 100}, {"time": 17279, "pitch": 90, "duration": 10, "velocity": 99}, {"time": 17399, "pitch": 36, "duration": 10, "velocity": 99}, {"time": 17399, "pitch": 46, "duration": 10, "velocity": 107}, {"time": 17640, "pitch": 40, "duration": 10, "velocity": 101}, {"time": 17640, "pitch": 90, "duration": 10, "velocity": 72}, {"time": 17761, "pitch": 36, "duration": 10, "velocity": 107}, {"time": 17761, "pitch": 42, "duration": 10, "velocity": 99}, {"time": 18002, "pitch": 42, "duration": 10, "velocity": 83}, {"time": 18243, "pitch": 40, "duration": 10, "velocity": 101}, {"time": 18243, "pitch": 42, "duration": 10, "velocity": 102}, {"time": 18480, "pitch": 42, "duration": 10, "velocity": 83}, {"time": 18717, "pitch": 36, "duration": 10, "velocity": 99}, {"time": 18717, "pitch": 42, "duration": 10, "velocity": 99}, {"time": 18958, "pitch": 36, "duration": 10, "velocity": 99}, {"time": 18958, "pitch": 42, "duration": 10, "velocity": 83}, {"time": 19199, "pitch": 40, "duration": 10, "velocity": 100}, {"time": 19199, "pitch": 42, "duration": 10, "velocity": 102}, {"time": 19440, "pitch": 42, "duration": 10, "velocity": 86}, {"time": 19681, "pitch": 36, "duration": 10, "velocity": 107}, {"time": 19681, "pitch": 42, "duration": 10, "velocity": 99}, {"time": 19922, "pitch": 42, "duration": 10, "velocity": 83}, {"time": 20163, "pitch": 40, "duration": 10, "velocity": 100}, {"time": 20163, "pitch": 42, "duration": 10, "velocity": 102}, {"time": 20400, "pitch": 42, "duration": 10, "velocity": 83}, {"time": 20637, "pitch": 36, "duration": 10, "velocity": 99}, {"time": 20637, "pitch": 42, "duration": 10, "velocity": 99}, {"time": 20878, "pitch": 36, "duration": 10, "velocity": 99}, {"time": 20878, "pitch": 42, "duration": 10, "velocity": 83}, {"time": 21119, "pitch": 40, "duration": 10, "velocity": 100}, {"time": 21119, "pitch": 42, "duration": 10, "velocity": 102}, {"time": 21360, "pitch": 42, "duration": 10, "velocity": 86}, {"time": 21601, "pitch": 36, "duration": 10, "velocity": 107}, {"time": 21601, "pitch": 42, "duration": 10, "velocity": 99}, {"time": 21842, "pitch": 42, "duration": 10, "velocity": 83}, {"time": 22083, "pitch": 40, "duration": 10, "velocity": 100}, {"time": 22083, "pitch": 42, "duration": 10, "velocity": 102}, {"time": 22320, "pitch": 42, "duration": 10, "velocity": 83}, {"time": 22557, "pitch": 36, "duration": 10, "velocity": 99}, {"time": 22557, "pitch": 42, "duration": 10, "velocity": 99}, {"time": 22798, "pitch": 36, "duration": 10, "velocity": 99}, {"time": 22798, "pitch": 42, "duration": 10, "velocity": 83}, {"time": 23039, "pitch": 40, "duration": 10, "velocity": 100}, {"time": 23039, "pitch": 42, "duration": 10, "velocity": 102}, {"time": 23280, "pitch": 42, "duration": 10, "velocity": 86}, {"time": 23521, "pitch": 36, "duration": 10, "velocity": 107}, {"time": 23521, "pitch": 42, "duration": 10, "velocity": 99}, {"time": 23762, "pitch": 42, "duration": 10, "velocity": 83}, {"time": 24003, "pitch": 40, "duration": 10, "velocity": 100}, {"time": 24003, "pitch": 42, "duration": 10, "velocity": 102}, {"time": 24240, "pitch": 42, "duration": 10, "velocity": 83}, {"time": 24477, "pitch": 36, "duration": 10, "velocity": 99}, {"time": 24477, "pitch": 42, "duration": 10, "velocity": 99}, {"time": 24718, "pitch": 36, "duration": 10, "velocity": 99}, {"time": 24718, "pitch": 42, "duration": 10, "velocity": 83}, {"time": 24959, "pitch": 40, "duration": 10, "velocity": 100}, {"time": 24959, "pitch": 42, "duration": 10, "velocity": 102}, {"time": 25200, "pitch": 42, "duration": 10, "velocity": 86}, {"time": 25441, "pitch": 36, "duration": 10, "velocity": 107}, {"time": 25441, "pitch": 42, "duration": 10, "velocity": 99}, {"time": 25682, "pitch": 42, "duration": 10, "velocity": 83}, {"time": 25923, "pitch": 40, "duration": 10, "velocity": 100}, {"time": 25923, "pitch": 42, "duration": 10, "velocity": 102}, {"time": 26160, "pitch": 42, "duration": 10, "velocity": 83}, {"time": 26397, "pitch": 36, "duration": 10, "velocity": 99}, {"time": 26397, "pitch": 42, "duration": 10, "velocity": 99}, {"time": 26638, "pitch": 36, "duration": 10, "velocity": 99}, {"time": 26638, "pitch": 42, "duration": 10, "velocity": 83}, {"time": 26879, "pitch": 40, "duration": 10, "velocity": 100}, {"time": 26879, "pitch": 42, "duration": 10, "velocity": 102}, {"time": 27120, "pitch": 42, "duration": 10, "velocity": 86}, {"time": 27361, "pitch": 36, "duration": 10, "velocity": 107}, {"time": 27361, "pitch": 42, "duration": 10, "velocity": 99}, {"time": 27602, "pitch": 42, "duration": 10, "velocity": 83}, {"time": 27843, "pitch": 40, "duration": 10, "velocity": 100}, {"time": 27843, "pitch": 42, "duration": 10, "velocity": 102}, {"time": 28080, "pitch": 42, "duration": 10, "velocity": 83}, {"time": 28317, "pitch": 36, "duration": 10, "velocity": 99}, {"time": 28317, "pitch": 42, "duration": 10, "velocity": 99}, {"time": 28558, "pitch": 36, "duration": 10, "velocity": 99}, {"time": 28558, "pitch": 42, "duration": 10, "velocity": 83}, {"time": 28799, "pitch": 40, "duration": 10, "velocity": 100}, {"time": 28799, "pitch": 42, "duration": 10, "velocity": 102}, {"time": 29040, "pitch": 42, "duration": 10, "velocity": 86}, {"time": 29281, "pitch": 36, "duration": 10, "velocity": 107}, {"time": 29281, "pitch": 42, "duration": 10, "velocity": 99}, {"time": 29522, "pitch": 42, "duration": 10, "velocity": 83}, {"time": 29763, "pitch": 40, "duration": 10, "velocity": 100}, {"time": 29763, "pitch": 42, "duration": 10, "velocity": 102}, {"time": 30000, "pitch": 42, "duration": 10, "velocity": 83}, {"time": 30237, "pitch": 36, "duration": 10, "velocity": 99}, {"time": 30237, "pitch": 42, "duration": 10, "velocity": 99}, {"time": 30478, "pitch": 36, "duration": 10, "velocity": 99}, {"time": 30478, "pitch": 42, "duration": 10, "velocity": 83}, {"time": 30719, "pitch": 40, "duration": 10, "velocity": 100}, {"time": 30719, "pitch": 42, "duration": 10, "velocity": 102}, {"time": 30960, "pitch": 42, "duration": 10, "velocity": 86}, {"time": 31201, "pitch": 36, "duration": 10, "velocity": 107}, {"time": 31201, "pitch": 42, "duration": 10, "velocity": 99}, {"time": 31442, "pitch": 42, "duration": 10, "velocity": 83}, {"time": 31683, "pitch": 40, "duration": 10, "velocity": 100}, {"time": 31683, "pitch": 42, "duration": 10, "velocity": 102}, {"time": 31920, "pitch": 42, "duration": 10, "velocity": 83}, {"time": 32157, "pitch": 36, "duration": 10, "velocity": 99}, {"time": 32157, "pitch": 42, "duration": 10, "velocity": 99}, {"time": 32398, "pitch": 36, "duration": 10, "velocity": 99}, {"time": 32398, "pitch": 42, "duration": 10, "velocity": 83}, {"time": 32639, "pitch": 40, "duration": 10, "velocity": 100}, {"time": 32639, "pitch": 42, "duration": 10, "velocity": 102}, {"time": 32880, "pitch": 42, "duration": 10, "velocity": 86}, {"time": 33121, "pitch": 36, "duration": 10, "velocity": 107}, {"time": 33121, "pitch": 42, "duration": 10, "velocity": 99}, {"time": 33362, "pitch": 42, "duration": 11, "velocity": 83}, {"time": 33603, "pitch": 40, "duration": 10, "velocity": 100}, {"time": 33603, "pitch": 42, "duration": 10, "velocity": 102}, {"time": 33840, "pitch": 42, "duration": 10, "velocity": 83}, {"time": 34077, "pitch": 36, "duration": 10, "velocity": 99}, {"time": 34077, "pitch": 42, "duration": 10, "velocity": 99}, {"time": 34318, "pitch": 36, "duration": 10, "velocity": 99}, {"time": 34318, "pitch": 42, "duration": 10, "velocity": 83}, {"time": 34559, "pitch": 40, "duration": 10, "velocity": 104}, {"time": 34559, "pitch": 42, "duration": 10, "velocity": 102}, {"time": 34680, "pitch": 40, "duration": 10, "velocity": 104}, {"time": 34800, "pitch": 36, "duration": 11, "velocity": 94}, {"time": 34800, "pitch": 46, "duration": 11, "velocity": 102}, {"time": 35042, "pitch": 36, "duration": 10, "velocity": 107}, {"time": 35042, "pitch": 57, "duration": 10, "velocity": 78}, {"time": 35283, "pitch": 42, "duration": 10, "velocity": 83}, {"time": 35524, "pitch": 40, "duration": 9, "velocity": 100}, {"time": 35524, "pitch": 42, "duration": 9, "velocity": 102}, {"time": 35760, "pitch": 42, "duration": 10, "velocity": 83}, {"time": 35997, "pitch": 36, "duration": 10, "velocity": 99}, {"time": 35997, "pitch": 42, "duration": 10, "velocity": 99}, {"time": 36238, "pitch": 36, "duration": 10, "velocity": 99}, {"time": 36238, "pitch": 42, "duration": 10, "velocity": 83}, {"time": 36480, "pitch": 40, "duration": 10, "velocity": 100}, {"time": 36480, "pitch": 42, "duration": 10, "velocity": 102}, {"time": 36721, "pitch": 42, "duration": 10, "velocity": 86}, {"time": 36962, "pitch": 36, "duration": 10, "velocity": 107}, {"time": 36962, "pitch": 42, "duration": 10, "velocity": 99}, {"time": 37203, "pitch": 42, "duration": 10, "velocity": 83}, {"time": 37444, "pitch": 40, "duration": 9, "velocity": 100}, {"time": 37444, "pitch": 42, "duration": 9, "velocity": 102}, {"time": 37681, "pitch": 42, "duration": 9, "velocity": 83}, {"time": 37918, "pitch": 36, "duration": 10, "velocity": 99}, {"time": 37918, "pitch": 42, "duration": 10, "velocity": 99}, {"time": 38159, "pitch": 36, "duration": 10, "velocity": 99}, {"time": 38159, "pitch": 42, "duration": 10, "velocity": 83}, {"time": 38400, "pitch": 40, "duration": 10, "velocity": 100}, {"time": 38400, "pitch": 42, "duration": 10, "velocity": 102}, {"time": 38641, "pitch": 42, "duration": 10, "velocity": 86}, {"time": 38882, "pitch": 36, "duration": 10, "velocity": 107}, {"time": 38882, "pitch": 42, "duration": 10, "velocity": 99}, {"time": 39123, "pitch": 42, "duration": 10, "velocity": 83}, {"time": 39364, "pitch": 40, "duration": 10, "velocity": 100}, {"time": 39364, "pitch": 42, "duration": 10, "velocity": 102}, {"time": 39601, "pitch": 42, "duration": 10, "velocity": 83}, {"time": 39838, "pitch": 36, "duration": 10, "velocity": 99}, {"time": 39838, "pitch": 42, "duration": 10, "velocity": 99}, {"time": 40079, "pitch": 36, "duration": 10, "velocity": 99}, {"time": 40079, "pitch": 42, "duration": 10, "velocity": 83}, {"time": 40320, "pitch": 40, "duration": 10, "velocity": 100}, {"time": 40320, "pitch": 42, "duration": 10, "velocity": 102}, {"time": 40561, "pitch": 42, "duration": 10, "velocity": 86}, {"time": 40802, "pitch": 36, "duration": 10, "velocity": 107}, {"time": 40802, "pitch": 42, "duration": 10, "velocity": 99}, {"time": 41043, "pitch": 42, "duration": 10, "velocity": 83}, {"time": 41284, "pitch": 40, "duration": 10, "velocity": 100}, {"time": 41284, "pitch": 42, "duration": 10, "velocity": 102}, {"time": 41521, "pitch": 42, "duration": 10, "velocity": 83}, {"time": 41639, "pitch": 36, "duration": 10, "velocity": 99}, {"time": 41639, "pitch": 49, "duration": 10, "velocity": 78}, {"time": 41758, "pitch": 42, "duration": 10, "velocity": 99}, {"time": 41999, "pitch": 36, "duration": 10, "velocity": 99}, {"time": 41999, "pitch": 46, "duration": 10, "velocity": 83}, {"time": 42119, "pitch": 36, "duration": 10, "velocity": 99}, {"time": 42240, "pitch": 40, "duration": 10, "velocity": 80}, {"time": 42240, "pitch": 42, "duration": 10, "velocity": 102}, {"time": 42360, "pitch": 36, "duration": 10, "velocity": 97}, {"time": 42360, "pitch": 46, "duration": 10, "velocity": 107}, {"time": 42481, "pitch": 42, "duration": 10, "velocity": 86}, {"time": 42611, "pitch": 40, "duration": 10, "velocity": 105}, {"time": 42722, "pitch": 36, "duration": 10, "velocity": 107}, {"time": 42722, "pitch": 57, "duration": 10, "velocity": 75}, {"time": 42963, "pitch": 42, "duration": 10, "velocity": 83}, {"time": 43204, "pitch": 40, "duration": 10, "velocity": 101}, {"time": 43204, "pitch": 42, "duration": 10, "velocity": 102}, {"time": 43441, "pitch": 42, "duration": 10, "velocity": 83}, {"time": 43678, "pitch": 36, "duration": 10, "velocity": 99}, {"time": 43678, "pitch": 42, "duration": 10, "velocity": 99}, {"time": 43919, "pitch": 36, "duration": 10, "velocity": 99}, {"time": 43919, "pitch": 42, "duration": 10, "velocity": 83}, {"time": 44160, "pitch": 40, "duration": 10, "velocity": 100}, {"time": 44160, "pitch": 42, "duration": 10, "velocity": 102}, {"time": 44401, "pitch": 36, "duration": 10, "velocity": 107}, {"time": 44401, "pitch": 57, "duration": 10, "velocity": 58}, {"time": 44642, "pitch": 42, "duration": 10, "velocity": 99}, {"time": 44883, "pitch": 36, "duration": 10, "velocity": 107}, {"time": 44883, "pitch": 42, "duration": 10, "velocity": 83}, {"time": 45124, "pitch": 40, "duration": 10, "velocity": 100}, {"time": 45124, "pitch": 42, "duration": 10, "velocity": 102}, {"time": 45361, "pitch": 42, "duration": 10, "velocity": 83}, {"time": 45598, "pitch": 36, "duration": 10, "velocity": 99}, {"time": 45598, "pitch": 42, "duration": 10, "velocity": 99}, {"time": 45839, "pitch": 36, "duration": 10, "velocity": 99}, {"time": 45839, "pitch": 42, "duration": 10, "velocity": 83}, {"time": 46080, "pitch": 40, "duration": 10, "velocity": 100}, {"time": 46080, "pitch": 42, "duration": 10, "velocity": 102}, {"time": 46321, "pitch": 42, "duration": 10, "velocity": 86}, {"time": 46562, "pitch": 36, "duration": 10, "velocity": 107}, {"time": 46562, "pitch": 57, "duration": 10, "velocity": 75}, {"time": 46803, "pitch": 42, "duration": 10, "velocity": 83}, {"time": 47044, "pitch": 40, "duration": 10, "velocity": 100}, {"time": 47044, "pitch": 42, "duration": 10, "velocity": 102}, {"time": 47281, "pitch": 42, "duration": 10, "velocity": 83}, {"time": 47518, "pitch": 36, "duration": 10, "velocity": 99}, {"time": 47518, "pitch": 42, "duration": 10, "velocity": 99}, {"time": 47759, "pitch": 36, "duration": 10, "velocity": 99}, {"time": 47759, "pitch": 42, "duration": 10, "velocity": 83}, {"time": 48000, "pitch": 40, "duration": 10, "velocity": 100}, {"time": 48000, "pitch": 42, "duration": 10, "velocity": 102}, {"time": 48241, "pitch": 36, "duration": 10, "velocity": 107}, {"time": 48241, "pitch": 57, "duration": 10, "velocity": 58}, {"time": 48482, "pitch": 42, "duration": 10, "velocity": 99}, {"time": 48719, "pitch": 36, "duration": 10, "velocity": 107}, {"time": 48719, "pitch": 42, "duration": 10, "velocity": 83}, {"time": 48956, "pitch": 40, "duration": 10, "velocity": 100}, {"time": 48956, "pitch": 42, "duration": 10, "velocity": 102}, {"time": 49197, "pitch": 42, "duration": 10, "velocity": 83}, {"time": 49438, "pitch": 36, "duration": 10, "velocity": 99}, {"time": 49438, "pitch": 42, "duration": 10, "velocity": 99}, {"time": 49679, "pitch": 36, "duration": 10, "velocity": 99}, {"time": 49679, "pitch": 42, "duration": 10, "velocity": 83}, {"time": 49920, "pitch": 40, "duration": 10, "velocity": 100}, {"time": 49920, "pitch": 42, "duration": 10, "velocity": 102}, {"time": 50161, "pitch": 42, "duration": 10, "velocity": 86}, {"time": 50402, "pitch": 36, "duration": 10, "velocity": 107}, {"time": 50402, "pitch": 57, "duration": 10, "velocity": 75}, {"time": 50639, "pitch": 42, "duration": 10, "velocity": 83}, {"time": 50876, "pitch": 40, "duration": 10, "velocity": 100}, {"time": 50876, "pitch": 42, "duration": 10, "velocity": 102}, {"time": 51117, "pitch": 42, "duration": 10, "velocity": 83}, {"time": 51358, "pitch": 36, "duration": 10, "velocity": 99}, {"time": 51358, "pitch": 42, "duration": 10, "velocity": 99}, {"time": 51599, "pitch": 36, "duration": 10, "velocity": 99}, {"time": 51599, "pitch": 42, "duration": 10, "velocity": 83}, {"time": 51840, "pitch": 40, "duration": 10, "velocity": 100}, {"time": 51840, "pitch": 42, "duration": 10, "velocity": 102}, {"time": 52081, "pitch": 36, "duration": 10, "velocity": 107}, {"time": 52081, "pitch": 57, "duration": 10, "velocity": 58}, {"time": 52322, "pitch": 42, "duration": 10, "velocity": 99}, {"time": 52559, "pitch": 36, "duration": 10, "velocity": 107}, {"time": 52559, "pitch": 42, "duration": 10, "velocity": 83}, {"time": 52796, "pitch": 40, "duration": 10, "velocity": 100}, {"time": 52796, "pitch": 42, "duration": 10, "velocity": 102}, {"time": 53037, "pitch": 42, "duration": 10, "velocity": 83}, {"time": 53278, "pitch": 36, "duration": 10, "velocity": 99}, {"time": 53278, "pitch": 42, "duration": 10, "velocity": 99}, {"time": 53519, "pitch": 36, "duration": 10, "velocity": 99}, {"time": 53519, "pitch": 42, "duration": 10, "velocity": 83}, {"time": 53760, "pitch": 40, "duration": 10, "velocity": 100}, {"time": 53760, "pitch": 42, "duration": 10, "velocity": 102}, {"time": 53881, "pitch": 50, "duration": 10, "velocity": 119}, {"time": 54001, "pitch": 41, "duration": 10, "velocity": 100}, {"time": 54001, "pitch": 47, "duration": 10, "velocity": 119}, {"time": 54242, "pitch": 36, "duration": 10, "velocity": 107}, {"time": 54242, "pitch": 57, "duration": 10, "velocity": 75}, {"time": 54479, "pitch": 42, "duration": 10, "velocity": 83}, {"time": 54716, "pitch": 40, "duration": 10, "velocity": 100}, {"time": 54716, "pitch": 42, "duration": 10, "velocity": 102}, {"time": 54957, "pitch": 42, "duration": 10, "velocity": 83}, {"time": 55198, "pitch": 36, "duration": 10, "velocity": 99}, {"time": 55198, "pitch": 42, "duration": 10, "velocity": 99}, {"time": 55439, "pitch": 36, "duration": 10, "velocity": 99}, {"time": 55439, "pitch": 42, "duration": 10, "velocity": 83}, {"time": 55680, "pitch": 40, "duration": 10, "velocity": 100}, {"time": 55680, "pitch": 42, "duration": 10, "velocity": 102}, {"time": 55921, "pitch": 42, "duration": 10, "velocity": 83}, {"time": 56162, "pitch": 36, "duration": 10, "velocity": 107}, {"time": 56162, "pitch": 57, "duration": 10, "velocity": 75}, {"time": 56399, "pitch": 42, "duration": 10, "velocity": 83}, {"time": 56636, "pitch": 40, "duration": 10, "velocity": 100}, {"time": 56636, "pitch": 42, "duration": 10, "velocity": 102}, {"time": 56877, "pitch": 42, "duration": 10, "velocity": 83}, {"time": 56998, "pitch": 36, "duration": 10, "velocity": 107}, {"time": 56998, "pitch": 46, "duration": 10, "velocity": 107}, {"time": 57118, "pitch": 40, "duration": 10, "velocity": 85}, {"time": 57239, "pitch": 40, "duration": 10, "velocity": 85}, {"time": 57359, "pitch": 40, "duration": 10, "velocity": 87}, {"time": 57359, "pitch": 90, "duration": 10, "velocity": 69}, {"time": 57480, "pitch": 40, "duration": 10, "velocity": 90}, {"time": 57600, "pitch": 40, "duration": 10, "velocity": 93}, {"time": 57600, "pitch": 90, "duration": 10, "velocity": 88}, {"time": 57721, "pitch": 40, "duration": 10, "velocity": 97}, {"time": 57841, "pitch": 40, "duration": 10, "velocity": 103}, {"time": 57841, "pitch": 90, "duration": 10, "velocity": 69}, {"time": 57962, "pitch": 40, "duration": 10, "velocity": 109}, {"time": 58082, "pitch": 36, "duration": 10, "velocity": 107}, {"time": 58082, "pitch": 57, "duration": 10, "velocity": 75}, {"time": 58319, "pitch": 42, "duration": 10, "velocity": 83}, {"time": 58556, "pitch": 40, "duration": 10, "velocity": 100}, {"time": 58556, "pitch": 42, "duration": 10, "velocity": 102}, {"time": 58797, "pitch": 42, "duration": 10, "velocity": 83}, {"time": 59038, "pitch": 36, "duration": 10, "velocity": 99}, {"time": 59038, "pitch": 42, "duration": 10, "velocity": 99}, {"time": 59279, "pitch": 36, "duration": 10, "velocity": 99}, {"time": 59279, "pitch": 42, "duration": 10, "velocity": 83}, {"time": 59520, "pitch": 40, "duration": 10, "velocity": 100}, {"time": 59520, "pitch": 42, "duration": 10, "velocity": 102}, {"time": 59761, "pitch": 36, "duration": 11, "velocity": 107}, {"time": 59761, "pitch": 57, "duration": 11, "velocity": 58}, {"time": 60002, "pitch": 42, "duration": 10, "velocity": 99}, {"time": 60239, "pitch": 36, "duration": 10, "velocity": 107}, {"time": 60239, "pitch": 42, "duration": 10, "velocity": 83}, {"time": 60476, "pitch": 40, "duration": 10, "velocity": 100}, {"time": 60476, "pitch": 42, "duration": 10, "velocity": 102}, {"time": 60717, "pitch": 42, "duration": 10, "velocity": 83}, {"time": 60958, "pitch": 36, "duration": 10, "velocity": 99}, {"time": 60958, "pitch": 42, "duration": 10, "velocity": 99}, {"time": 61199, "pitch": 36, "duration": 11, "velocity": 99}, {"time": 61199, "pitch": 42, "duration": 11, "velocity": 83}, {"time": 61441, "pitch": 40, "duration": 10, "velocity": 100}, {"time": 61441, "pitch": 42, "duration": 10, "velocity": 102}, {"time": 61682, "pitch": 42, "duration": 10, "velocity": 86}, {"time": 61923, "pitch": 36, "duration": 9, "velocity": 107}, {"time": 61923, "pitch": 57, "duration": 9, "velocity": 75}, {"time": 62160, "pitch": 42, "duration": 9, "velocity": 83}, {"time": 62396, "pitch": 40, "duration": 10, "velocity": 100}, {"time": 62396, "pitch": 42, "duration": 10, "velocity": 102}, {"time": 62637, "pitch": 42, "duration": 11, "velocity": 83}, {"time": 62879, "pitch": 36, "duration": 10, "velocity": 99}, {"time": 62879, "pitch": 42, "duration": 10, "velocity": 99}, {"time": 63120, "pitch": 36, "duration": 10, "velocity": 99}, {"time": 63120, "pitch": 42, "duration": 10, "velocity": 83}, {"time": 63361, "pitch": 40, "duration": 10, "velocity": 100}, {"time": 63361, "pitch": 42, "duration": 10, "velocity": 102}, {"time": 63602, "pitch": 36, "duration": 10, "velocity": 107}, {"time": 63602, "pitch": 57, "duration": 10, "velocity": 58}, {"time": 63843, "pitch": 46, "duration": 10, "velocity": 95}, {"time": 63961, "pitch": 40, "duration": 10, "velocity": 66}, {"time": 64080, "pitch": 40, "duration": 9, "velocity": 79}, {"time": 64198, "pitch": 40, "duration": 10, "velocity": 91}, {"time": 64317, "pitch": 40, "duration": 10, "velocity": 100}, {"time": 64317, "pitch": 46, "duration": 10, "velocity": 95}, {"time": 64437, "pitch": 36, "duration": 10, "velocity": 96}, {"time": 64437, "pitch": 57, "duration": 10, "velocity": 74}, {"time": 64558, "pitch": 40, "duration": 10, "velocity": 96}, {"time": 64648, "pitch": 40, "duration": 10, "velocity": 24}, {"time": 64718, "pitch": 40, "duration": 10, "velocity": 62}, {"time": 64799, "pitch": 40, "duration": 10, "velocity": 97}, {"time": 64799, "pitch": 46, "duration": 10, "velocity": 99}, {"time": 65040, "pitch": 40, "duration": 10, "velocity": 100}, {"time": 65281, "pitch": 40, "duration": 10, "velocity": 100}, {"time": 65281, "pitch": 90, "duration": 10, "velocity": 99}, {"time": 65401, "pitch": 36, "duration": 10, "velocity": 99}, {"time": 65401, "pitch": 46, "duration": 10, "velocity": 107}, {"time": 65642, "pitch": 40, "duration": 10, "velocity": 85}, {"time": 65763, "pitch": 36, "duration": 10, "velocity": 107}, {"time": 65763, "pitch": 42, "duration": 10, "velocity": 99}, {"time": 66000, "pitch": 42, "duration": 10, "velocity": 83}, {"time": 66237, "pitch": 40, "duration": 10, "velocity": 101}, {"time": 66237, "pitch": 42, "duration": 10, "velocity": 102}, {"time": 66478, "pitch": 42, "duration": 10, "velocity": 83}, {"time": 66719, "pitch": 36, "duration": 10, "velocity": 99}, {"time": 66719, "pitch": 42, "duration": 10, "velocity": 99}, {"time": 66960, "pitch": 36, "duration": 10, "velocity": 99}, {"time": 66960, "pitch": 42, "duration": 10, "velocity": 83}, {"time": 67201, "pitch": 40, "duration": 10, "velocity": 100}, {"time": 67201, "pitch": 42, "duration": 10, "velocity": 102}, {"time": 67442, "pitch": 42, "duration": 10, "velocity": 86}, {"time": 67683, "pitch": 36, "duration": 10, "velocity": 107}, {"time": 67683, "pitch": 42, "duration": 10, "velocity": 99}, {"time": 67920, "pitch": 42, "duration": 10, "velocity": 83}, {"time": 68157, "pitch": 40, "duration": 10, "velocity": 100}, {"time": 68157, "pitch": 42, "duration": 10, "velocity": 102}, {"time": 68398, "pitch": 42, "duration": 10, "velocity": 83}, {"time": 68639, "pitch": 36, "duration": 10, "velocity": 99}, {"time": 68639, "pitch": 42, "duration": 10, "velocity": 99}, {"time": 68880, "pitch": 36, "duration": 10, "velocity": 99}, {"time": 68880, "pitch": 42, "duration": 10, "velocity": 83}, {"time": 69121, "pitch": 40, "duration": 10, "velocity": 100}, {"time": 69121, "pitch": 42, "duration": 10, "velocity": 102}, {"time": 69362, "pitch": 42, "duration": 10, "velocity": 86}, {"time": 69603, "pitch": 36, "duration": 10, "velocity": 107}, {"time": 69603, "pitch": 42, "duration": 10, "velocity": 99}, {"time": 69840, "pitch": 42, "duration": 10, "velocity": 83}, {"time": 70077, "pitch": 40, "duration": 10, "velocity": 100}, {"time": 70077, "pitch": 42, "duration": 10, "velocity": 102}, {"time": 70318, "pitch": 42, "duration": 10, "velocity": 83}, {"time": 70559, "pitch": 36, "duration": 10, "velocity": 99}, {"time": 70559, "pitch": 42, "duration": 10, "velocity": 99}, {"time": 70800, "pitch": 36, "duration": 10, "velocity": 99}, {"time": 70800, "pitch": 42, "duration": 10, "velocity": 83}, {"time": 71041, "pitch": 40, "duration": 10, "velocity": 100}, {"time": 71041, "pitch": 42, "duration": 10, "velocity": 102}, {"time": 71282, "pitch": 42, "duration": 10, "velocity": 86}, {"time": 71523, "pitch": 36, "duration": 10, "velocity": 107}, {"time": 71523, "pitch": 42, "duration": 10, "velocity": 99}, {"time": 71760, "pitch": 42, "duration": 10, "velocity": 83}, {"time": 71997, "pitch": 40, "duration": 10, "velocity": 100}, {"time": 71997, "pitch": 42, "duration": 10, "velocity": 102}, {"time": 72238, "pitch": 42, "duration": 10, "velocity": 83}, {"time": 72479, "pitch": 36, "duration": 10, "velocity": 99}, {"time": 72479, "pitch": 42, "duration": 10, "velocity": 99}, {"time": 72720, "pitch": 36, "duration": 10, "velocity": 99}, {"time": 72720, "pitch": 42, "duration": 10, "velocity": 83}, {"time": 72961, "pitch": 40, "duration": 10, "velocity": 100}, {"time": 72961, "pitch": 42, "duration": 10, "velocity": 102}, {"time": 73202, "pitch": 42, "duration": 10, "velocity": 86}, {"time": 73443, "pitch": 36, "duration": 10, "velocity": 107}, {"time": 73443, "pitch": 42, "duration": 10, "velocity": 99}, {"time": 73680, "pitch": 42, "duration": 10, "velocity": 83}, {"time": 73917, "pitch": 40, "duration": 10, "velocity": 100}, {"time": 73917, "pitch": 42, "duration": 10, "velocity": 102}, {"time": 74158, "pitch": 42, "duration": 10, "velocity": 83}, {"time": 74399, "pitch": 36, "duration": 10, "velocity": 99}, {"time": 74399, "pitch": 42, "duration": 10, "velocity": 99}, {"time": 74640, "pitch": 36, "duration": 10, "velocity": 99}, {"time": 74640, "pitch": 42, "duration": 10, "velocity": 83}, {"time": 74881, "pitch": 40, "duration": 10, "velocity": 100}, {"time": 74881, "pitch": 42, "duration": 10, "velocity": 102}, {"time": 75122, "pitch": 42, "duration": 10, "velocity": 86}, {"time": 75363, "pitch": 36, "duration": 10, "velocity": 107}, {"time": 75363, "pitch": 42, "duration": 10, "velocity": 99}, {"time": 75600, "pitch": 42, "duration": 10, "velocity": 83}, {"time": 75837, "pitch": 40, "duration": 10, "velocity": 100}, {"time": 75837, "pitch": 42, "duration": 10, "velocity": 102}, {"time": 76078, "pitch": 42, "duration": 10, "velocity": 83}, {"time": 76319, "pitch": 36, "duration": 10, "velocity": 99}, {"time": 76319, "pitch": 42, "duration": 10, "velocity": 99}, {"time": 76560, "pitch": 36, "duration": 10, "velocity": 99}, {"time": 76560, "pitch": 42, "duration": 10, "velocity": 83}, {"time": 76801, "pitch": 40, "duration": 10, "velocity": 100}, {"time": 76801, "pitch": 42, "duration": 10, "velocity": 102}, {"time": 77042, "pitch": 42, "duration": 10, "velocity": 86}, {"time": 77283, "pitch": 36, "duration": 10, "velocity": 107}, {"time": 77283, "pitch": 42, "duration": 10, "velocity": 99}, {"time": 77520, "pitch": 42, "duration": 10, "velocity": 83}, {"time": 77757, "pitch": 40, "duration": 10, "velocity": 100}, {"time": 77757, "pitch": 42, "duration": 10, "velocity": 102}, {"time": 77998, "pitch": 42, "duration": 10, "velocity": 83}, {"time": 78239, "pitch": 36, "duration": 10, "velocity": 99}, {"time": 78239, "pitch": 42, "duration": 10, "velocity": 99}, {"time": 78480, "pitch": 36, "duration": 10, "velocity": 99}, {"time": 78480, "pitch": 42, "duration": 10, "velocity": 83}, {"time": 78721, "pitch": 40, "duration": 10, "velocity": 100}, {"time": 78721, "pitch": 42, "duration": 10, "velocity": 102}, {"time": 78962, "pitch": 42, "duration": 10, "velocity": 86}, {"time": 79203, "pitch": 36, "duration": 10, "velocity": 107}, {"time": 79203, "pitch": 42, "duration": 10, "velocity": 99}, {"time": 79440, "pitch": 42, "duration": 10, "velocity": 83}, {"time": 79677, "pitch": 40, "duration": 10, "velocity": 100}, {"time": 79677, "pitch": 42, "duration": 10, "velocity": 102}, {"time": 79918, "pitch": 42, "duration": 10, "velocity": 83}, {"time": 80159, "pitch": 36, "duration": 10, "velocity": 99}, {"time": 80159, "pitch": 42, "duration": 10, "velocity": 99}, {"time": 80400, "pitch": 36, "duration": 10, "velocity": 99}, {"time": 80400, "pitch": 42, "duration": 10, "velocity": 83}, {"time": 80641, "pitch": 40, "duration": 10, "velocity": 100}, {"time": 80641, "pitch": 42, "duration": 10, "velocity": 102}, {"time": 80882, "pitch": 42, "duration": 10, "velocity": 86}, {"time": 81123, "pitch": 36, "duration": 10, "velocity": 107}, {"time": 81123, "pitch": 42, "duration": 10, "velocity": 99}, {"time": 81360, "pitch": 42, "duration": 10, "velocity": 83}, {"time": 81597, "pitch": 40, "duration": 10, "velocity": 100}, {"time": 81597, "pitch": 42, "duration": 10, "velocity": 102}, {"time": 81838, "pitch": 42, "duration": 10, "velocity": 83}, {"time": 82079, "pitch": 36, "duration": 10, "velocity": 99}, {"time": 82079, "pitch": 42, "duration": 10, "velocity": 99}, {"time": 82320, "pitch": 36, "duration": 10, "velocity": 99}, {"time": 82320, "pitch": 42, "duration": 10, "velocity": 83}, {"time": 82561, "pitch": 40, "duration": 10, "velocity": 104}, {"time": 82561, "pitch": 42, "duration": 10, "velocity": 102}, {"time": 82682, "pitch": 40, "duration": 10, "velocity": 104}, {"time": 82802, "pitch": 36, "duration": 10, "velocity": 94}, {"time": 82802, "pitch": 46, "duration": 10, "velocity": 102}, {"time": 83043, "pitch": 36, "duration": 10, "velocity": 107}, {"time": 83043, "pitch": 57, "duration": 10, "velocity": 78}, {"time": 83280, "pitch": 42, "duration": 10, "velocity": 83}, {"time": 83517, "pitch": 40, "duration": 10, "velocity": 100}, {"time": 83517, "pitch": 42, "duration": 10, "velocity": 102}, {"time": 83758, "pitch": 42, "duration": 10, "velocity": 83}, {"time": 83999, "pitch": 36, "duration": 10, "velocity": 99}, {"time": 83999, "pitch": 42, "duration": 10, "velocity": 99}, {"time": 84240, "pitch": 36, "duration": 10, "velocity": 99}, {"time": 84240, "pitch": 42, "duration": 10, "velocity": 83}, {"time": 84481, "pitch": 40, "duration": 11, "velocity": 100}, {"time": 84481, "pitch": 42, "duration": 11, "velocity": 102}, {"time": 84723, "pitch": 42, "duration": 10, "velocity": 86}, {"time": 84964, "pitch": 36, "duration": 9, "velocity": 107}, {"time": 84964, "pitch": 42, "duration": 9, "velocity": 99}, {"time": 85200, "pitch": 42, "duration": 10, "velocity": 83}, {"time": 85437, "pitch": 40, "duration": 10, "velocity": 100}, {"time": 85437, "pitch": 42, "duration": 10, "velocity": 102}, {"time": 85678, "pitch": 42, "duration": 10, "velocity": 83}, {"time": 85919, "pitch": 36, "duration": 11, "velocity": 99}, {"time": 85919, "pitch": 42, "duration": 11, "velocity": 99}, {"time": 86161, "pitch": 36, "duration": 10, "velocity": 99}, {"time": 86161, "pitch": 42, "duration": 10, "velocity": 83}, {"time": 86402, "pitch": 40, "duration": 10, "velocity": 100}, {"time": 86402, "pitch": 42, "duration": 10, "velocity": 102}, {"time": 86643, "pitch": 42, "duration": 10, "velocity": 86}, {"time": 86884, "pitch": 36, "duration": 9, "velocity": 107}, {"time": 86884, "pitch": 42, "duration": 9, "velocity": 99}, {"time": 87121, "pitch": 42, "duration": 9, "velocity": 83}, {"time": 87358, "pitch": 40, "duration": 10, "velocity": 100}, {"time": 87358, "pitch": 42, "duration": 10, "velocity": 102}, {"time": 87599, "pitch": 42, "duration": 10, "velocity": 83}, {"time": 87840, "pitch": 36, "duration": 10, "velocity": 99}, {"time": 87840, "pitch": 42, "duration": 10, "velocity": 99}, {"time": 88081, "pitch": 36, "duration": 10, "velocity": 99}, {"time": 88081, "pitch": 42, "duration": 10, "velocity": 83}, {"time": 88322, "pitch": 40, "duration": 10, "velocity": 100}, {"time": 88322, "pitch": 42, "duration": 10, "velocity": 102}, {"time": 88563, "pitch": 42, "duration": 10, "velocity": 86}, {"time": 88804, "pitch": 36, "duration": 10, "velocity": 107}, {"time": 88804, "pitch": 42, "duration": 10, "velocity": 99}, {"time": 89041, "pitch": 42, "duration": 10, "velocity": 83}, {"time": 89278, "pitch": 40, "duration": 10, "velocity": 100}, {"time": 89278, "pitch": 42, "duration": 10, "velocity": 102}, {"time": 89519, "pitch": 42, "duration": 10, "velocity": 83}, {"time": 89639, "pitch": 36, "duration": 10, "velocity": 99}, {"time": 89639, "pitch": 49, "duration": 10, "velocity": 78}, {"time": 89760, "pitch": 42, "duration": 10, "velocity": 99}, {"time": 90001, "pitch": 40, "duration": 10, "velocity": 96}, {"time": 90001, "pitch": 46, "duration": 10, "velocity": 83}, {"time": 90121, "pitch": 36, "duration": 10, "velocity": 99}, {"time": 90242, "pitch": 40, "duration": 10, "velocity": 97}, {"time": 90242, "pitch": 42, "duration": 10, "velocity": 102}, {"time": 90362, "pitch": 36, "duration": 10, "velocity": 97}, {"time": 90362, "pitch": 46, "duration": 10, "velocity": 107}, {"time": 90483, "pitch": 42, "duration": 10, "velocity": 86}, {"time": 90613, "pitch": 40, "duration": 10, "velocity": 105}, {"time": 90724, "pitch": 36, "duration": 10, "velocity": 107}, {"time": 90724, "pitch": 57, "duration": 10, "velocity": 75}, {"time": 90961, "pitch": 42, "duration": 10, "velocity": 83}, {"time": 91198, "pitch": 40, "duration": 10, "velocity": 101}, {"time": 91198, "pitch": 42, "duration": 10, "velocity": 102}, {"time": 91439, "pitch": 42, "duration": 10, "velocity": 83}, {"time": 91680, "pitch": 36, "duration": 10, "velocity": 99}, {"time": 91680, "pitch": 42, "duration": 10, "velocity": 99}, {"time": 91921, "pitch": 36, "duration": 10, "velocity": 99}, {"time": 91921, "pitch": 42, "duration": 10, "velocity": 83}, {"time": 92162, "pitch": 40, "duration": 10, "velocity": 100}, {"time": 92162, "pitch": 42, "duration": 10, "velocity": 102}, {"time": 92403, "pitch": 36, "duration": 10, "velocity": 107}, {"time": 92403, "pitch": 57, "duration": 10, "velocity": 58}, {"time": 92644, "pitch": 42, "duration": 10, "velocity": 99}, {"time": 92881, "pitch": 36, "duration": 10, "velocity": 107}, {"time": 92881, "pitch": 42, "duration": 10, "velocity": 83}, {"time": 93118, "pitch": 40, "duration": 10, "velocity": 100}, {"time": 93118, "pitch": 42, "duration": 10, "velocity": 102}, {"time": 93359, "pitch": 42, "duration": 10, "velocity": 83}, {"time": 93600, "pitch": 36, "duration": 10, "velocity": 99}, {"time": 93600, "pitch": 42, "duration": 10, "velocity": 99}, {"time": 93841, "pitch": 36, "duration": 10, "velocity": 99}, {"time": 93841, "pitch": 42, "duration": 10, "velocity": 83}, {"time": 94082, "pitch": 40, "duration": 10, "velocity": 100}, {"time": 94082, "pitch": 42, "duration": 10, "velocity": 102}, {"time": 94323, "pitch": 42, "duration": 10, "velocity": 86}, {"time": 94564, "pitch": 36, "duration": 10, "velocity": 107}, {"time": 94564, "pitch": 57, "duration": 10, "velocity": 75}, {"time": 94801, "pitch": 42, "duration": 10, "velocity": 83}, {"time": 95038, "pitch": 40, "duration": 10, "velocity": 100}, {"time": 95038, "pitch": 42, "duration": 10, "velocity": 102}, {"time": 95279, "pitch": 42, "duration": 10, "velocity": 83}, {"time": 95520, "pitch": 36, "duration": 10, "velocity": 99}, {"time": 95520, "pitch": 42, "duration": 10, "velocity": 99}, {"time": 95761, "pitch": 36, "duration": 10, "velocity": 99}, {"time": 95761, "pitch": 42, "duration": 10, "velocity": 83}, {"time": 96002, "pitch": 40, "duration": 10, "velocity": 100}, {"time": 96002, "pitch": 42, "duration": 10, "velocity": 102}, {"time": 96243, "pitch": 36, "duration": 10, "velocity": 107}, {"time": 96243, "pitch": 57, "duration": 10, "velocity": 58}, {"time": 96484, "pitch": 42, "duration": 10, "velocity": 99}, {"time": 96721, "pitch": 36, "duration": 10, "velocity": 107}, {"time": 96721, "pitch": 42, "duration": 10, "velocity": 83}, {"time": 96958, "pitch": 40, "duration": 10, "velocity": 100}, {"time": 96958, "pitch": 42, "duration": 10, "velocity": 102}, {"time": 97199, "pitch": 42, "duration": 10, "velocity": 83}, {"time": 97440, "pitch": 36, "duration": 10, "velocity": 99}, {"time": 97440, "pitch": 42, "duration": 10, "velocity": 99}, {"time": 97681, "pitch": 36, "duration": 10, "velocity": 99}, {"time": 97681, "pitch": 42, "duration": 10, "velocity": 83}, {"time": 97922, "pitch": 40, "duration": 10, "velocity": 100}, {"time": 97922, "pitch": 42, "duration": 10, "velocity": 102}, {"time": 98163, "pitch": 42, "duration": 10, "velocity": 86}, {"time": 98404, "pitch": 36, "duration": 10, "velocity": 107}, {"time": 98404, "pitch": 57, "duration": 10, "velocity": 75}, {"time": 98641, "pitch": 42, "duration": 10, "velocity": 83}, {"time": 98878, "pitch": 40, "duration": 10, "velocity": 100}, {"time": 98878, "pitch": 42, "duration": 10, "velocity": 102}, {"time": 99119, "pitch": 42, "duration": 10, "velocity": 83}, {"time": 99360, "pitch": 36, "duration": 10, "velocity": 99}, {"time": 99360, "pitch": 42, "duration": 10, "velocity": 99}, {"time": 99601, "pitch": 36, "duration": 10, "velocity": 99}, {"time": 99601, "pitch": 42, "duration": 10, "velocity": 83}, {"time": 99842, "pitch": 40, "duration": 10, "velocity": 100}, {"time": 99842, "pitch": 42, "duration": 10, "velocity": 102}, {"time": 100079, "pitch": 36, "duration": 10, "velocity": 107}, {"time": 100079, "pitch": 57, "duration": 10, "velocity": 58}, {"time": 100316, "pitch": 42, "duration": 10, "velocity": 99}, {"time": 100557, "pitch": 36, "duration": 10, "velocity": 107}, {"time": 100557, "pitch": 42, "duration": 10, "velocity": 83}, {"time": 100798, "pitch": 40, "duration": 10, "velocity": 100}, {"time": 100798, "pitch": 42, "duration": 10, "velocity": 102}, {"time": 101039, "pitch": 42, "duration": 10, "velocity": 83}, {"time": 101280, "pitch": 36, "duration": 10, "velocity": 99}, {"time": 101280, "pitch": 42, "duration": 10, "velocity": 99}, {"time": 101521, "pitch": 36, "duration": 10, "velocity": 99}, {"time": 101521, "pitch": 42, "duration": 10, "velocity": 83}, {"time": 101762, "pitch": 40, "duration": 10, "velocity": 100}, {"time": 101762, "pitch": 42, "duration": 10, "velocity": 102}, {"time": 101881, "pitch": 50, "duration": 10, "velocity": 119}, {"time": 101999, "pitch": 41, "duration": 10, "velocity": 100}, {"time": 101999, "pitch": 47, "duration": 10, "velocity": 119}, {"time": 102236, "pitch": 36, "duration": 10, "velocity": 107}, {"time": 102236, "pitch": 57, "duration": 10, "velocity": 75}, {"time": 102477, "pitch": 42, "duration": 10, "velocity": 83}, {"time": 102718, "pitch": 40, "duration": 10, "velocity": 100}, {"time": 102718, "pitch": 42, "duration": 10, "velocity": 102}, {"time": 102959, "pitch": 42, "duration": 10, "velocity": 83}, {"time": 103200, "pitch": 36, "duration": 10, "velocity": 99}, {"time": 103200, "pitch": 42, "duration": 10, "velocity": 99}, {"time": 103441, "pitch": 36, "duration": 10, "velocity": 99}, {"time": 103441, "pitch": 42, "duration": 10, "velocity": 83}, {"time": 103682, "pitch": 40, "duration": 10, "velocity": 100}, {"time": 103682, "pitch": 42, "duration": 10, "velocity": 102}, {"time": 103919, "pitch": 42, "duration": 10, "velocity": 83}, {"time": 104156, "pitch": 36, "duration": 10, "velocity": 107}, {"time": 104156, "pitch": 57, "duration": 10, "velocity": 75}, {"time": 104397, "pitch": 42, "duration": 10, "velocity": 83}, {"time": 104638, "pitch": 40, "duration": 10, "velocity": 100}, {"time": 104638, "pitch": 42, "duration": 10, "velocity": 102}, {"time": 104879, "pitch": 42, "duration": 10, "velocity": 83}, {"time": 105000, "pitch": 36, "duration": 10, "velocity": 107}, {"time": 105000, "pitch": 46, "duration": 10, "velocity": 107}, {"time": 105120, "pitch": 40, "duration": 10, "velocity": 85}, {"time": 105241, "pitch": 40, "duration": 10, "velocity": 85}, {"time": 105361, "pitch": 40, "duration": 10, "velocity": 87}, {"time": 105361, "pitch": 90, "duration": 10, "velocity": 69}, {"time": 105482, "pitch": 40, "duration": 10, "velocity": 90}, {"time": 105602, "pitch": 40, "duration": 10, "velocity": 93}, {"time": 105602, "pitch": 90, "duration": 10, "velocity": 88}, {"time": 105721, "pitch": 40, "duration": 10, "velocity": 97}, {"time": 105839, "pitch": 40, "duration": 10, "velocity": 103}, {"time": 105839, "pitch": 90, "duration": 10, "velocity": 69}, {"time": 105958, "pitch": 40, "duration": 10, "velocity": 109}, {"time": 106076, "pitch": 36, "duration": 10, "velocity": 107}, {"time": 106076, "pitch": 57, "duration": 10, "velocity": 75}, {"time": 106317, "pitch": 42, "duration": 10, "velocity": 83}, {"time": 106558, "pitch": 40, "duration": 10, "velocity": 101}, {"time": 106558, "pitch": 42, "duration": 10, "velocity": 102}, {"time": 106799, "pitch": 42, "duration": 10, "velocity": 83}, {"time": 107040, "pitch": 36, "duration": 10, "velocity": 99}, {"time": 107040, "pitch": 42, "duration": 10, "velocity": 99}, {"time": 107281, "pitch": 36, "duration": 10, "velocity": 99}, {"time": 107281, "pitch": 42, "duration": 10, "velocity": 83}, {"time": 107522, "pitch": 40, "duration": 10, "velocity": 100}, {"time": 107522, "pitch": 42, "duration": 10, "velocity": 102}, {"time": 107759, "pitch": 36, "duration": 10, "velocity": 107}, {"time": 107759, "pitch": 57, "duration": 10, "velocity": 58}, {"time": 107996, "pitch": 42, "duration": 10, "velocity": 99}, {"time": 108237, "pitch": 36, "duration": 10, "velocity": 107}, {"time": 108237, "pitch": 42, "duration": 10, "velocity": 83}, {"time": 108478, "pitch": 40, "duration": 10, "velocity": 100}, {"time": 108478, "pitch": 42, "duration": 10, "velocity": 102}, {"time": 108719, "pitch": 42, "duration": 10, "velocity": 83}, {"time": 108960, "pitch": 36, "duration": 10, "velocity": 99}, {"time": 108960, "pitch": 42, "duration": 10, "velocity": 99}, {"time": 109201, "pitch": 36, "duration": 11, "velocity": 99}, {"time": 109201, "pitch": 42, "duration": 11, "velocity": 83}, {"time": 109442, "pitch": 40, "duration": 10, "velocity": 100}, {"time": 109442, "pitch": 42, "duration": 10, "velocity": 102}, {"time": 109679, "pitch": 42, "duration": 10, "velocity": 86}, {"time": 109916, "pitch": 36, "duration": 10, "velocity": 107}, {"time": 109916, "pitch": 57, "duration": 10, "velocity": 75}, {"time": 110157, "pitch": 42, "duration": 10, "velocity": 83}, {"time": 110398, "pitch": 40, "duration": 10, "velocity": 100}, {"time": 110398, "pitch": 42, "duration": 10, "velocity": 102}, {"time": 110639, "pitch": 42, "duration": 11, "velocity": 83}, {"time": 110881, "pitch": 36, "duration": 10, "velocity": 99}, {"time": 110881, "pitch": 42, "duration": 10, "velocity": 99}, {"time": 111122, "pitch": 36, "duration": 10, "velocity": 99}, {"time": 111122, "pitch": 42, "duration": 10, "velocity": 83}, {"time": 111363, "pitch": 40, "duration": 9, "velocity": 100}, {"time": 111363, "pitch": 42, "duration": 9, "velocity": 102}, {"time": 111600, "pitch": 36, "duration": 9, "velocity": 107}, {"time": 111600, "pitch": 57, "duration": 9, "velocity": 58}, {"time": 111836, "pitch": 42, "duration": 10, "velocity": 99}, {"time": 112077, "pitch": 36, "duration": 10, "velocity": 107}, {"time": 112077, "pitch": 42, "duration": 10, "velocity": 83}, {"time": 112319, "pitch": 40, "duration": 10, "velocity": 100}, {"time": 112319, "pitch": 42, "duration": 10, "velocity": 102}, {"time": 112560, "pitch": 42, "duration": 10, "velocity": 83}, {"time": 112801, "pitch": 36, "duration": 10, "velocity": 99}, {"time": 112801, "pitch": 42, "duration": 10, "velocity": 99}, {"time": 113042, "pitch": 36, "duration": 10, "velocity": 99}, {"time": 113042, "pitch": 42, "duration": 10, "velocity": 83}, {"time": 113283, "pitch": 40, "duration": 10, "velocity": 100}, {"time": 113283, "pitch": 42, "duration": 10, "velocity": 102}, {"time": 113520, "pitch": 42, "duration": 9, "velocity": 86}, {"time": 113757, "pitch": 36, "duration": 10, "velocity": 107}, {"time": 113757, "pitch": 57, "duration": 10, "velocity": 75}, {"time": 113998, "pitch": 42, "duration": 10, "velocity": 83}, {"time": 114239, "pitch": 40, "duration": 10, "velocity": 100}, {"time": 114239, "pitch": 42, "duration": 10, "velocity": 102}, {"time": 114480, "pitch": 42, "duration": 10, "velocity": 83}, {"time": 114721, "pitch": 36, "duration": 10, "velocity": 99}, {"time": 114721, "pitch": 42, "duration": 10, "velocity": 99}, {"time": 114962, "pitch": 36, "duration": 10, "velocity": 99}, {"time": 114962, "pitch": 42, "duration": 10, "velocity": 83}, {"time": 115203, "pitch": 40, "duration": 10, "velocity": 100}, {"time": 115203, "pitch": 42, "duration": 10, "velocity": 102}, {"time": 115440, "pitch": 36, "duration": 10, "velocity": 107}, {"time": 115440, "pitch": 57, "duration": 10, "velocity": 58}, {"time": 115677, "pitch": 42, "duration": 10, "velocity": 99}, {"time": 115918, "pitch": 36, "duration": 10, "velocity": 107}, {"time": 115918, "pitch": 42, "duration": 10, "velocity": 83}, {"time": 116159, "pitch": 40, "duration": 10, "velocity": 100}, {"time": 116159, "pitch": 42, "duration": 10, "velocity": 102}, {"time": 116400, "pitch": 42, "duration": 10, "velocity": 83}, {"time": 116641, "pitch": 36, "duration": 10, "velocity": 99}, {"time": 116641, "pitch": 42, "duration": 10, "velocity": 99}, {"time": 116882, "pitch": 36, "duration": 10, "velocity": 99}, {"time": 116882, "pitch": 42, "duration": 10, "velocity": 83}, {"time": 117123, "pitch": 40, "duration": 10, "velocity": 100}, {"time": 117123, "pitch": 42, "duration": 10, "velocity": 102}, {"time": 117360, "pitch": 42, "duration": 10, "velocity": 86}, {"time": 117597, "pitch": 36, "duration": 10, "velocity": 107}, {"time": 117597, "pitch": 57, "duration": 10, "velocity": 75}, {"time": 117838, "pitch": 42, "duration": 10, "velocity": 83}, {"time": 118079, "pitch": 40, "duration": 10, "velocity": 100}, {"time": 118079, "pitch": 42, "duration": 10, "velocity": 102}, {"time": 118320, "pitch": 42, "duration": 10, "velocity": 83}, {"time": 118561, "pitch": 36, "duration": 10, "velocity": 99}, {"time": 118561, "pitch": 42, "duration": 10, "velocity": 99}, {"time": 118802, "pitch": 36, "duration": 10, "velocity": 99}, {"time": 118802, "pitch": 42, "duration": 10, "velocity": 83}, {"time": 119043, "pitch": 40, "duration": 10, "velocity": 100}, {"time": 119043, "pitch": 42, "duration": 10, "velocity": 102}, {"time": 119280, "pitch": 36, "duration": 10, "velocity": 107}, {"time": 119280, "pitch": 57, "duration": 10, "velocity": 58}, {"time": 119517, "pitch": 42, "duration": 10, "velocity": 99}, {"time": 119758, "pitch": 41, "duration": 10, "velocity": 97}, {"time": 119758, "pitch": 47, "duration": 10, "velocity": 122}, {"time": 119999, "pitch": 42, "duration": 10, "velocity": 102}, {"time": 120119, "pitch": 43, "duration": 10, "velocity": 124}, {"time": 120240, "pitch": 41, "duration": 10, "velocity": 97}, {"time": 120360, "pitch": 36, "duration": 10, "velocity": 99}, {"time": 120481, "pitch": 40, "duration": 10, "velocity": 91}, {"time": 120481, "pitch": 41, "duration": 10, "velocity": 113}, {"time": 120601, "pitch": 40, "duration": 10, "velocity": 95}, {"time": 120722, "pitch": 40, "duration": 10, "velocity": 98}, {"time": 120722, "pitch": 41, "duration": 10, "velocity": 97}, {"time": 120842, "pitch": 40, "duration": 11, "velocity": 102}, {"time": 120963, "pitch": 40, "duration": 10, "velocity": 106}, {"time": 120963, "pitch": 42, "duration": 10, "velocity": 102}, {"time": 121081, "pitch": 36, "duration": 10, "velocity": 99}, {"time": 121081, "pitch": 46, "duration": 10, "velocity": 102}, {"time": 121200, "pitch": 42, "duration": 10, "velocity": 102}, {"time": 121318, "pitch": 40, "duration": 10, "velocity": 104}, {"time": 121437, "pitch": 36, "duration": 10, "velocity": 107}, {"time": 121437, "pitch": 57, "duration": 10, "velocity": 78}, {"time": 121678, "pitch": 42, "duration": 10, "velocity": 83}, {"time": 121919, "pitch": 40, "duration": 10, "velocity": 100}, {"time": 121919, "pitch": 42, "duration": 10, "velocity": 102}, {"time": 122160, "pitch": 42, "duration": 10, "velocity": 83}, {"time": 122401, "pitch": 36, "duration": 10, "velocity": 99}, {"time": 122401, "pitch": 42, "duration": 10, "velocity": 99}, {"time": 122642, "pitch": 36, "duration": 10, "velocity": 99}, {"time": 122642, "pitch": 42, "duration": 10, "velocity": 83}, {"time": 122883, "pitch": 40, "duration": 10, "velocity": 100}, {"time": 122883, "pitch": 42, "duration": 10, "velocity": 102}, {"time": 123120, "pitch": 42, "duration": 10, "velocity": 86}, {"time": 123357, "pitch": 36, "duration": 10, "velocity": 107}, {"time": 123357, "pitch": 42, "duration": 10, "velocity": 99}, {"time": 123598, "pitch": 42, "duration": 10, "velocity": 83}, {"time": 123839, "pitch": 40, "duration": 10, "velocity": 100}, {"time": 123839, "pitch": 42, "duration": 10, "velocity": 102}, {"time": 124080, "pitch": 42, "duration": 10, "velocity": 83}, {"time": 124321, "pitch": 36, "duration": 10, "velocity": 99}, {"time": 124321, "pitch": 42, "duration": 10, "velocity": 99}, {"time": 124562, "pitch": 36, "duration": 10, "velocity": 99}, {"time": 124562, "pitch": 42, "duration": 10, "velocity": 83}, {"time": 124803, "pitch": 40, "duration": 10, "velocity": 100}, {"time": 124803, "pitch": 42, "duration": 10, "velocity": 102}, {"time": 125040, "pitch": 42, "duration": 10, "velocity": 86}, {"time": 125277, "pitch": 36, "duration": 10, "velocity": 107}, {"time": 125277, "pitch": 42, "duration": 10, "velocity": 99}, {"time": 125518, "pitch": 42, "duration": 10, "velocity": 83}, {"time": 125759, "pitch": 40, "duration": 10, "velocity": 100}, {"time": 125759, "pitch": 42, "duration": 10, "velocity": 102}, {"time": 126000, "pitch": 42, "duration": 10, "velocity": 83}, {"time": 126241, "pitch": 36, "duration": 10, "velocity": 99}, {"time": 126241, "pitch": 42, "duration": 10, "velocity": 99}, {"time": 126482, "pitch": 36, "duration": 10, "velocity": 99}, {"time": 126482, "pitch": 42, "duration": 10, "velocity": 83}, {"time": 126723, "pitch": 40, "duration": 10, "velocity": 100}, {"time": 126723, "pitch": 42, "duration": 10, "velocity": 102}, {"time": 126960, "pitch": 42, "duration": 10, "velocity": 86}, {"time": 127197, "pitch": 36, "duration": 10, "velocity": 107}, {"time": 127197, "pitch": 42, "duration": 10, "velocity": 99}, {"time": 127438, "pitch": 42, "duration": 10, "velocity": 83}, {"time": 127679, "pitch": 40, "duration": 10, "velocity": 100}, {"time": 127679, "pitch": 42, "duration": 10, "velocity": 102}, {"time": 127920, "pitch": 42, "duration": 10, "velocity": 83}, {"time": 128041, "pitch": 36, "duration": 10, "velocity": 99}, {"time": 128041, "pitch": 57, "duration": 10, "velocity": 77}, {"time": 128161, "pitch": 42, "duration": 10, "velocity": 99}, {"time": 128402, "pitch": 40, "duration": 10, "velocity": 104}, {"time": 128402, "pitch": 46, "duration": 10, "velocity": 83}, {"time": 128643, "pitch": 40, "duration": 10, "velocity": 101}, {"time": 128643, "pitch": 42, "duration": 10, "velocity": 102}, {"time": 128880, "pitch": 36, "duration": 10, "velocity": 99}, {"time": 128880, "pitch": 42, "duration": 10, "velocity": 83}, {"time": 129117, "pitch": 36, "duration": 10, "velocity": 99}, {"time": 129117, "pitch": 42, "duration": 10, "velocity": 99}, {"time": 129238, "pitch": 40, "duration": 10, "velocity": 101}, {"time": 129358, "pitch": 46, "duration": 10, "velocity": 96}, {"time": 129479, "pitch": 42, "duration": 10, "velocity": 83}, {"time": 129599, "pitch": 40, "duration": 10, "velocity": 101}, {"time": 129599, "pitch": 42, "duration": 10, "velocity": 102}, {"time": 129720, "pitch": 47, "duration": 10, "velocity": 116}, {"time": 129840, "pitch": 42, "duration": 10, "velocity": 83}, {"time": 129840, "pitch": 43, "duration": 10, "velocity": 119}, {"time": 129961, "pitch": 36, "duration": 10, "velocity": 99}, {"time": 130081, "pitch": 40, "duration": 10, "velocity": 101}, {"time": 130081, "pitch": 90, "duration": 10, "velocity": 85}, {"time": 130162, "pitch": 47, "duration": 10, "velocity": 116}, {"time": 130242, "pitch": 43, "duration": 10, "velocity": 116}, {"time": 130322, "pitch": 47, "duration": 10, "velocity": 109}, {"time": 130322, "pitch": 90, "duration": 10, "velocity": 69}, {"time": 130403, "pitch": 43, "duration": 10, "velocity": 116}, {"time": 130443, "pitch": 41, "duration": 10, "velocity": 119}, {"time": 130563, "pitch": 40, "duration": 10, "velocity": 88}, {"time": 130563, "pitch": 42, "duration": 10, "velocity": 102}, {"time": 130682, "pitch": 36, "duration": 10, "velocity": 89}, {"time": 130682, "pitch": 46, "duration": 10, "velocity": 107}, {"time": 130800, "pitch": 42, "duration": 10, "velocity": 61}, {"time": 130929, "pitch": 40, "duration": 10, "velocity": 106}, {"time": 131037, "pitch": 36, "duration": 10, "velocity": 107}, {"time": 131037, "pitch": 57, "duration": 10, "velocity": 75}, {"time": 131278, "pitch": 42, "duration": 10, "velocity": 83}, {"time": 131519, "pitch": 40, "duration": 10, "velocity": 101}, {"time": 131519, "pitch": 42, "duration": 10, "velocity": 102}, {"time": 131760, "pitch": 42, "duration": 10, "velocity": 83}, {"time": 132001, "pitch": 36, "duration": 10, "velocity": 99}, {"time": 132001, "pitch": 42, "duration": 10, "velocity": 99}, {"time": 132242, "pitch": 36, "duration": 10, "velocity": 99}, {"time": 132242, "pitch": 42, "duration": 10, "velocity": 83}, {"time": 132483, "pitch": 40, "duration": 10, "velocity": 100}, {"time": 132483, "pitch": 42, "duration": 10, "velocity": 102}, {"time": 132720, "pitch": 36, "duration": 10, "velocity": 107}, {"time": 132720, "pitch": 57, "duration": 10, "velocity": 58}, {"time": 132957, "pitch": 42, "duration": 10, "velocity": 99}, {"time": 133198, "pitch": 36, "duration": 10, "velocity": 107}, {"time": 133198, "pitch": 42, "duration": 10, "velocity": 83}, {"time": 133439, "pitch": 40, "duration": 10, "velocity": 100}, {"time": 133439, "pitch": 42, "duration": 10, "velocity": 102}, {"time": 133680, "pitch": 42, "duration": 10, "velocity": 83}, {"time": 133921, "pitch": 36, "duration": 11, "velocity": 99}, {"time": 133921, "pitch": 42, "duration": 11, "velocity": 99}, {"time": 134163, "pitch": 36, "duration": 10, "velocity": 99}, {"time": 134163, "pitch": 42, "duration": 10, "velocity": 83}, {"time": 134403, "pitch": 40, "duration": 10, "velocity": 100}, {"time": 134403, "pitch": 42, "duration": 10, "velocity": 102}, {"time": 134640, "pitch": 42, "duration": 10, "velocity": 86}, {"time": 134877, "pitch": 36, "duration": 10, "velocity": 107}, {"time": 134877, "pitch": 57, "duration": 10, "velocity": 75}, {"time": 135118, "pitch": 42, "duration": 10, "velocity": 83}, {"time": 135359, "pitch": 40, "duration": 10, "velocity": 100}, {"time": 135359, "pitch": 42, "duration": 10, "velocity": 102}, {"time": 135600, "pitch": 42, "duration": 11, "velocity": 83}, {"time": 135842, "pitch": 36, "duration": 10, "velocity": 99}, {"time": 135842, "pitch": 42, "duration": 10, "velocity": 99}, {"time": 136083, "pitch": 36, "duration": 10, "velocity": 99}, {"time": 136083, "pitch": 42, "duration": 10, "velocity": 83}, {"time": 136324, "pitch": 40, "duration": 9, "velocity": 100}, {"time": 136324, "pitch": 42, "duration": 9, "velocity": 102}, {"time": 136561, "pitch": 36, "duration": 9, "velocity": 107}, {"time": 136561, "pitch": 57, "duration": 9, "velocity": 58}, {"time": 136797, "pitch": 42, "duration": 10, "velocity": 99}, {"time": 137038, "pitch": 36, "duration": 11, "velocity": 107}, {"time": 137038, "pitch": 42, "duration": 11, "velocity": 83}, {"time": 137280, "pitch": 40, "duration": 10, "velocity": 100}, {"time": 137280, "pitch": 42, "duration": 10, "velocity": 102}, {"time": 137521, "pitch": 42, "duration": 10, "velocity": 83}, {"time": 137762, "pitch": 36, "duration": 10, "velocity": 99}, {"time": 137762, "pitch": 42, "duration": 10, "velocity": 99}, {"time": 138003, "pitch": 36, "duration": 10, "velocity": 99}, {"time": 138003, "pitch": 42, "duration": 10, "velocity": 83}, {"time": 138244, "pitch": 40, "duration": 10, "velocity": 100}, {"time": 138244, "pitch": 42, "duration": 10, "velocity": 102}, {"time": 138481, "pitch": 42, "duration": 9, "velocity": 86}, {"time": 138718, "pitch": 36, "duration": 10, "velocity": 107}, {"time": 138718, "pitch": 57, "duration": 10, "velocity": 75}, {"time": 138959, "pitch": 42, "duration": 10, "velocity": 83}, {"time": 139200, "pitch": 40, "duration": 10, "velocity": 100}, {"time": 139200, "pitch": 42, "duration": 10, "velocity": 102}, {"time": 139441, "pitch": 42, "duration": 10, "velocity": 83}, {"time": 139682, "pitch": 36, "duration": 10, "velocity": 99}, {"time": 139682, "pitch": 42, "duration": 10, "velocity": 99}, {"time": 139923, "pitch": 36, "duration": 10, "velocity": 99}, {"time": 139923, "pitch": 42, "duration": 10, "velocity": 83}, {"time": 140164, "pitch": 40, "duration": 10, "velocity": 100}, {"time": 140164, "pitch": 42, "duration": 10, "velocity": 102}, {"time": 140401, "pitch": 36, "duration": 10, "velocity": 107}, {"time": 140401, "pitch": 57, "duration": 10, "velocity": 58}, {"time": 140638, "pitch": 42, "duration": 10, "velocity": 99}, {"time": 140879, "pitch": 36, "duration": 10, "velocity": 107}, {"time": 140879, "pitch": 42, "duration": 10, "velocity": 83}, {"time": 141120, "pitch": 40, "duration": 10, "velocity": 100}, {"time": 141120, "pitch": 42, "duration": 10, "velocity": 102}, {"time": 141361, "pitch": 42, "duration": 10, "velocity": 83}, {"time": 141602, "pitch": 36, "duration": 10, "velocity": 99}, {"time": 141602, "pitch": 42, "duration": 10, "velocity": 99}, {"time": 141843, "pitch": 36, "duration": 10, "velocity": 99}, {"time": 141843, "pitch": 42, "duration": 10, "velocity": 83}, {"time": 142084, "pitch": 40, "duration": 10, "velocity": 100}, {"time": 142084, "pitch": 42, "duration": 10, "velocity": 102}, {"time": 142202, "pitch": 50, "duration": 10, "velocity": 119}, {"time": 142321, "pitch": 41, "duration": 10, "velocity": 100}, {"time": 142321, "pitch": 47, "duration": 10, "velocity": 119}, {"time": 142558, "pitch": 36, "duration": 10, "velocity": 107}, {"time": 142558, "pitch": 57, "duration": 10, "velocity": 75}, {"time": 142799, "pitch": 42, "duration": 10, "velocity": 83}, {"time": 143040, "pitch": 40, "duration": 10, "velocity": 100}, {"time": 143040, "pitch": 42, "duration": 10, "velocity": 102}, {"time": 143281, "pitch": 42, "duration": 10, "velocity": 83}, {"time": 143522, "pitch": 36, "duration": 10, "velocity": 99}, {"time": 143522, "pitch": 42, "duration": 10, "velocity": 99}, {"time": 143763, "pitch": 36, "duration": 10, "velocity": 99}, {"time": 143763, "pitch": 42, "duration": 10, "velocity": 83}, {"time": 144004, "pitch": 40, "duration": 10, "velocity": 100}, {"time": 144004, "pitch": 42, "duration": 10, "velocity": 102}, {"time": 144241, "pitch": 42, "duration": 10, "velocity": 83}, {"time": 144478, "pitch": 36, "duration": 10, "velocity": 107}, {"time": 144478, "pitch": 57, "duration": 10, "velocity": 75}, {"time": 144719, "pitch": 42, "duration": 10, "velocity": 83}, {"time": 144960, "pitch": 40, "duration": 10, "velocity": 101}, {"time": 144960, "pitch": 42, "duration": 10, "velocity": 102}, {"time": 145201, "pitch": 42, "duration": 10, "velocity": 83}, {"time": 145321, "pitch": 36, "duration": 10, "velocity": 107}, {"time": 145321, "pitch": 46, "duration": 10, "velocity": 99}, {"time": 145442, "pitch": 40, "duration": 10, "velocity": 85}, {"time": 145562, "pitch": 40, "duration": 11, "velocity": 85}, {"time": 145683, "pitch": 40, "duration": 10, "velocity": 87}, {"time": 145683, "pitch": 90, "duration": 10, "velocity": 69}, {"time": 145804, "pitch": 40, "duration": 10, "velocity": 90}, {"time": 145924, "pitch": 40, "duration": 10, "velocity": 93}, {"time": 145924, "pitch": 90, "duration": 10, "velocity": 88}, {"time": 146042, "pitch": 40, "duration": 10, "velocity": 97}, {"time": 146161, "pitch": 40, "duration": 10, "velocity": 103}, {"time": 146161, "pitch": 90, "duration": 10, "velocity": 69}, {"time": 146279, "pitch": 40, "duration": 10, "velocity": 109}, {"time": 146398, "pitch": 36, "duration": 10, "velocity": 107}, {"time": 146398, "pitch": 57, "duration": 10, "velocity": 75}, {"time": 146639, "pitch": 42, "duration": 10, "velocity": 83}, {"time": 146880, "pitch": 40, "duration": 10, "velocity": 101}, {"time": 146880, "pitch": 42, "duration": 10, "velocity": 102}, {"time": 147121, "pitch": 42, "duration": 10, "velocity": 83}, {"time": 147362, "pitch": 36, "duration": 10, "velocity": 99}, {"time": 147362, "pitch": 42, "duration": 10, "velocity": 99}, {"time": 147603, "pitch": 36, "duration": 10, "velocity": 99}, {"time": 147603, "pitch": 42, "duration": 10, "velocity": 83}, {"time": 147844, "pitch": 40, "duration": 10, "velocity": 100}, {"time": 147844, "pitch": 42, "duration": 10, "velocity": 102}, {"time": 148081, "pitch": 36, "duration": 10, "velocity": 107}, {"time": 148081, "pitch": 57, "duration": 10, "velocity": 58}, {"time": 148318, "pitch": 42, "duration": 10, "velocity": 99}, {"time": 148559, "pitch": 36, "duration": 10, "velocity": 107}, {"time": 148559, "pitch": 42, "duration": 10, "velocity": 83}, {"time": 148800, "pitch": 40, "duration": 10, "velocity": 100}, {"time": 148800, "pitch": 42, "duration": 10, "velocity": 102}, {"time": 149041, "pitch": 42, "duration": 10, "velocity": 83}, {"time": 149282, "pitch": 36, "duration": 10, "velocity": 99}, {"time": 149282, "pitch": 42, "duration": 10, "velocity": 99}, {"time": 149519, "pitch": 36, "duration": 10, "velocity": 99}, {"time": 149519, "pitch": 42, "duration": 10, "velocity": 83}, {"time": 149756, "pitch": 40, "duration": 10, "velocity": 100}, {"time": 149756, "pitch": 42, "duration": 10, "velocity": 102}, {"time": 149997, "pitch": 42, "duration": 10, "velocity": 86}, {"time": 150238, "pitch": 36, "duration": 10, "velocity": 107}, {"time": 150238, "pitch": 57, "duration": 10, "velocity": 75}, {"time": 150479, "pitch": 42, "duration": 10, "velocity": 83}, {"time": 150720, "pitch": 40, "duration": 10, "velocity": 100}, {"time": 150720, "pitch": 42, "duration": 10, "velocity": 102}, {"time": 150961, "pitch": 42, "duration": 10, "velocity": 83}, {"time": 151202, "pitch": 36, "duration": 10, "velocity": 99}, {"time": 151202, "pitch": 42, "duration": 10, "velocity": 99}, {"time": 151439, "pitch": 36, "duration": 10, "velocity": 99}, {"time": 151439, "pitch": 42, "duration": 10, "velocity": 83}, {"time": 151676, "pitch": 40, "duration": 10, "velocity": 100}, {"time": 151676, "pitch": 42, "duration": 10, "velocity": 102}, {"time": 151917, "pitch": 36, "duration": 10, "velocity": 107}, {"time": 151917, "pitch": 57, "duration": 10, "velocity": 58}, {"time": 152158, "pitch": 42, "duration": 10, "velocity": 99}, {"time": 152399, "pitch": 36, "duration": 10, "velocity": 107}, {"time": 152399, "pitch": 42, "duration": 10, "velocity": 83}, {"time": 152640, "pitch": 40, "duration": 10, "velocity": 100}, {"time": 152640, "pitch": 42, "duration": 10, "velocity": 102}, {"time": 152881, "pitch": 42, "duration": 10, "velocity": 83}, {"time": 153122, "pitch": 36, "duration": 10, "velocity": 99}, {"time": 153122, "pitch": 42, "duration": 10, "velocity": 99}, {"time": 153359, "pitch": 36, "duration": 10, "velocity": 99}, {"time": 153359, "pitch": 42, "duration": 10, "velocity": 83}, {"time": 153596, "pitch": 40, "duration": 10, "velocity": 100}, {"time": 153596, "pitch": 42, "duration": 10, "velocity": 102}, {"time": 153837, "pitch": 42, "duration": 10, "velocity": 86}, {"time": 154078, "pitch": 36, "duration": 10, "velocity": 107}, {"time": 154078, "pitch": 57, "duration": 10, "velocity": 75}, {"time": 154319, "pitch": 42, "duration": 10, "velocity": 83}, {"time": 154560, "pitch": 40, "duration": 10, "velocity": 100}, {"time": 154560, "pitch": 42, "duration": 10, "velocity": 102}, {"time": 154801, "pitch": 42, "duration": 10, "velocity": 83}, {"time": 155042, "pitch": 36, "duration": 10, "velocity": 99}, {"time": 155042, "pitch": 42, "duration": 10, "velocity": 99}, {"time": 155279, "pitch": 36, "duration": 10, "velocity": 99}, {"time": 155279, "pitch": 42, "duration": 10, "velocity": 83}, {"time": 155516, "pitch": 40, "duration": 10, "velocity": 100}, {"time": 155516, "pitch": 42, "duration": 10, "velocity": 102}, {"time": 155757, "pitch": 36, "duration": 10, "velocity": 107}, {"time": 155757, "pitch": 57, "duration": 10, "velocity": 58}, {"time": 155998, "pitch": 42, "duration": 10, "velocity": 99}, {"time": 156239, "pitch": 36, "duration": 10, "velocity": 107}, {"time": 156239, "pitch": 42, "duration": 10, "velocity": 83}, {"time": 156480, "pitch": 40, "duration": 10, "velocity": 100}, {"time": 156480, "pitch": 42, "duration": 10, "velocity": 102}, {"time": 156721, "pitch": 42, "duration": 10, "velocity": 83}, {"time": 156962, "pitch": 36, "duration": 10, "velocity": 99}, {"time": 156962, "pitch": 42, "duration": 10, "velocity": 99}, {"time": 157199, "pitch": 36, "duration": 10, "velocity": 99}, {"time": 157199, "pitch": 42, "duration": 10, "velocity": 83}, {"time": 157436, "pitch": 40, "duration": 10, "velocity": 100}, {"time": 157436, "pitch": 42, "duration": 10, "velocity": 102}, {"time": 157557, "pitch": 50, "duration": 10, "velocity": 119}, {"time": 157677, "pitch": 41, "duration": 10, "velocity": 100}, {"time": 157677, "pitch": 47, "duration": 10, "velocity": 119}, {"time": 157918, "pitch": 36, "duration": 10, "velocity": 107}, {"time": 157918, "pitch": 57, "duration": 10, "velocity": 75}, {"time": 158159, "pitch": 42, "duration": 10, "velocity": 83}, {"time": 158400, "pitch": 40, "duration": 10, "velocity": 100}, {"time": 158400, "pitch": 42, "duration": 10, "velocity": 102}, {"time": 158641, "pitch": 42, "duration": 10, "velocity": 83}, {"time": 158882, "pitch": 36, "duration": 10, "velocity": 99}, {"time": 158882, "pitch": 42, "duration": 10, "velocity": 99}, {"time": 159119, "pitch": 36, "duration": 10, "velocity": 99}, {"time": 159119, "pitch": 42, "duration": 10, "velocity": 83}, {"time": 159356, "pitch": 40, "duration": 10, "velocity": 100}, {"time": 159356, "pitch": 42, "duration": 10, "velocity": 102}, {"time": 159597, "pitch": 42, "duration": 10, "velocity": 83}, {"time": 159838, "pitch": 36, "duration": 10, "velocity": 107}, {"time": 159838, "pitch": 57, "duration": 10, "velocity": 75}, {"time": 160079, "pitch": 42, "duration": 10, "velocity": 83}, {"time": 160320, "pitch": 40, "duration": 11, "velocity": 100}, {"time": 160320, "pitch": 42, "duration": 11, "velocity": 102}, {"time": 160562, "pitch": 42, "duration": 10, "velocity": 83}, {"time": 160682, "pitch": 36, "duration": 10, "velocity": 107}, {"time": 160682, "pitch": 46, "duration": 10, "velocity": 107}, {"time": 160803, "pitch": 40, "duration": 9, "velocity": 85}, {"time": 160921, "pitch": 40, "duration": 10, "velocity": 85}, {"time": 161039, "pitch": 40, "duration": 10, "velocity": 87}, {"time": 161039, "pitch": 90, "duration": 10, "velocity": 69}, {"time": 161158, "pitch": 40, "duration": 10, "velocity": 90}, {"time": 161276, "pitch": 40, "duration": 10, "velocity": 93}, {"time": 161276, "pitch": 90, "duration": 10, "velocity": 88}, {"time": 161397, "pitch": 40, "duration": 10, "velocity": 97}, {"time": 161517, "pitch": 40, "duration": 10, "velocity": 103}, {"time": 161517, "pitch": 90, "duration": 10, "velocity": 69}, {"time": 161638, "pitch": 40, "duration": 10, "velocity": 109}, {"time": 161758, "pitch": 36, "duration": 11, "velocity": 107}, {"time": 161758, "pitch": 57, "duration": 11, "velocity": 75}, {"time": 162000, "pitch": 42, "duration": 10, "velocity": 83}, {"time": 162241, "pitch": 40, "duration": 10, "velocity": 100}, {"time": 162241, "pitch": 42, "duration": 10, "velocity": 102}, {"time": 162482, "pitch": 42, "duration": 10, "velocity": 83}, {"time": 162723, "pitch": 36, "duration": 9, "velocity": 99}, {"time": 162723, "pitch": 42, "duration": 9, "velocity": 99}, {"time": 162960, "pitch": 36, "duration": 9, "velocity": 99}, {"time": 162960, "pitch": 42, "duration": 9, "velocity": 83}, {"time": 163197, "pitch": 40, "duration": 10, "velocity": 100}, {"time": 163197, "pitch": 42, "duration": 10, "velocity": 102}, {"time": 163438, "pitch": 36, "duration": 10, "velocity": 107}, {"time": 163438, "pitch": 57, "duration": 10, "velocity": 58}, {"time": 163679, "pitch": 42, "duration": 10, "velocity": 99}, {"time": 163920, "pitch": 36, "duration": 10, "velocity": 107}, {"time": 163920, "pitch": 42, "duration": 10, "velocity": 83}, {"time": 164161, "pitch": 40, "duration": 10, "velocity": 100}, {"time": 164161, "pitch": 42, "duration": 10, "velocity": 102}, {"time": 164402, "pitch": 42, "duration": 10, "velocity": 83}, {"time": 164643, "pitch": 36, "duration": 10, "velocity": 99}, {"time": 164643, "pitch": 42, "duration": 10, "velocity": 99}, {"time": 164880, "pitch": 36, "duration": 10, "velocity": 99}, {"time": 164880, "pitch": 42, "duration": 10, "velocity": 83}, {"time": 165117, "pitch": 40, "duration": 10, "velocity": 100}, {"time": 165117, "pitch": 42, "duration": 10, "velocity": 102}, {"time": 165358, "pitch": 42, "duration": 10, "velocity": 86}, {"time": 165599, "pitch": 36, "duration": 10, "velocity": 107}, {"time": 165599, "pitch": 57, "duration": 10, "velocity": 75}, {"time": 165840, "pitch": 42, "duration": 10, "velocity": 83}, {"time": 166081, "pitch": 40, "duration": 10, "velocity": 100}, {"time": 166081, "pitch": 42, "duration": 10, "velocity": 102}, {"time": 166322, "pitch": 42, "duration": 10, "velocity": 83}, {"time": 166563, "pitch": 36, "duration": 10, "velocity": 99}, {"time": 166563, "pitch": 42, "duration": 10, "velocity": 99}, {"time": 166800, "pitch": 36, "duration": 10, "velocity": 99}, {"time": 166800, "pitch": 42, "duration": 10, "velocity": 83}, {"time": 167037, "pitch": 40, "duration": 10, "velocity": 100}, {"time": 167037, "pitch": 42, "duration": 10, "velocity": 102}, {"time": 167278, "pitch": 36, "duration": 10, "velocity": 107}, {"time": 167278, "pitch": 57, "duration": 10, "velocity": 58}, {"time": 167519, "pitch": 42, "duration": 10, "velocity": 99}, {"time": 167760, "pitch": 36, "duration": 10, "velocity": 107}, {"time": 167760, "pitch": 42, "duration": 10, "velocity": 83}, {"time": 168001, "pitch": 40, "duration": 10, "velocity": 100}, {"time": 168001, "pitch": 42, "duration": 10, "velocity": 102}, {"time": 168242, "pitch": 42, "duration": 10, "velocity": 83}, {"time": 168483, "pitch": 36, "duration": 10, "velocity": 99}, {"time": 168483, "pitch": 42, "duration": 10, "velocity": 99}, {"time": 168720, "pitch": 36, "duration": 10, "velocity": 99}, {"time": 168720, "pitch": 42, "duration": 10, "velocity": 83}, {"time": 168957, "pitch": 40, "duration": 10, "velocity": 100}, {"time": 168957, "pitch": 42, "duration": 10, "velocity": 102}, {"time": 169198, "pitch": 42, "duration": 10, "velocity": 86}, {"time": 169439, "pitch": 36, "duration": 10, "velocity": 107}, {"time": 169439, "pitch": 57, "duration": 10, "velocity": 75}, {"time": 169680, "pitch": 42, "duration": 10, "velocity": 83}, {"time": 169921, "pitch": 40, "duration": 10, "velocity": 100}, {"time": 169921, "pitch": 42, "duration": 10, "velocity": 102}, {"time": 170162, "pitch": 42, "duration": 10, "velocity": 83}, {"time": 170403, "pitch": 36, "duration": 10, "velocity": 99}, {"time": 170403, "pitch": 42, "duration": 10, "velocity": 99}, {"time": 170640, "pitch": 36, "duration": 10, "velocity": 99}, {"time": 170640, "pitch": 42, "duration": 10, "velocity": 83}, {"time": 170877, "pitch": 40, "duration": 10, "velocity": 100}, {"time": 170877, "pitch": 42, "duration": 10, "velocity": 102}, {"time": 171118, "pitch": 36, "duration": 10, "velocity": 107}, {"time": 171118, "pitch": 57, "duration": 10, "velocity": 58}, {"time": 171359, "pitch": 42, "duration": 10, "velocity": 99}, {"time": 171600, "pitch": 36, "duration": 10, "velocity": 107}, {"time": 171600, "pitch": 42, "duration": 10, "velocity": 83}, {"time": 171841, "pitch": 40, "duration": 10, "velocity": 100}, {"time": 171841, "pitch": 42, "duration": 10, "velocity": 102}, {"time": 172082, "pitch": 42, "duration": 10, "velocity": 83}, {"time": 172323, "pitch": 36, "duration": 10, "velocity": 99}, {"time": 172323, "pitch": 42, "duration": 10, "velocity": 99}, {"time": 172560, "pitch": 36, "duration": 10, "velocity": 99}, {"time": 172560, "pitch": 42, "duration": 10, "velocity": 83}, {"time": 172797, "pitch": 40, "duration": 10, "velocity": 100}, {"time": 172797, "pitch": 42, "duration": 10, "velocity": 102}, {"time": 173038, "pitch": 42, "duration": 10, "velocity": 86}, {"time": 173279, "pitch": 36, "duration": 10, "velocity": 107}, {"time": 173279, "pitch": 57, "duration": 10, "velocity": 75}, {"time": 173520, "pitch": 42, "duration": 10, "velocity": 83}, {"time": 173761, "pitch": 40, "duration": 10, "velocity": 100}, {"time": 173761, "pitch": 42, "duration": 10, "velocity": 102}, {"time": 174002, "pitch": 42, "duration": 10, "velocity": 83}, {"time": 174243, "pitch": 36, "duration": 10, "velocity": 99}, {"time": 174243, "pitch": 42, "duration": 10, "velocity": 99}, {"time": 174480, "pitch": 36, "duration": 10, "velocity": 99}, {"time": 174480, "pitch": 42, "duration": 10, "velocity": 83}, {"time": 174717, "pitch": 40, "duration": 10, "velocity": 100}, {"time": 174717, "pitch": 42, "duration": 10, "velocity": 102}, {"time": 174958, "pitch": 36, "duration": 10, "velocity": 107}, {"time": 174958, "pitch": 57, "duration": 10, "velocity": 58}, {"time": 17761, "pitch": 51, "duration": 221, "velocity": 100}, {"time": 17771, "pitch": 58, "duration": 221, "velocity": 90}, {"time": 18002, "pitch": 51, "duration": 221, "velocity": 95}, {"time": 18012, "pitch": 58, "duration": 221, "velocity": 85}, {"time": 18243, "pitch": 51, "duration": 217, "velocity": 100}, {"time": 18253, "pitch": 58, "duration": 217, "velocity": 90}, {"time": 18480, "pitch": 51, "duration": 217, "velocity": 95}, {"time": 18490, "pitch": 58, "duration": 217, "velocity": 85}, {"time": 18717, "pitch": 49, "duration": 221, "velocity": 100}, {"time": 18727, "pitch": 56, "duration": 221, "velocity": 90}, {"time": 18958, "pitch": 49, "duration": 221, "velocity": 95}, {"time": 18968, "pitch": 56, "duration": 221, "velocity": 85}, {"time": 19199, "pitch": 49, "duration": 221, "velocity": 100}, {"time": 19209, "pitch": 56, "duration": 221, "velocity": 90}, {"time": 19440, "pitch": 49, "duration": 221, "velocity": 95}, {"time": 19450, "pitch": 56, "duration": 221, "velocity": 85}, {"time": 19681, "pitch": 48, "duration": 221, "velocity": 100}, {"time": 19691, "pitch": 55, "duration": 221, "velocity": 90}, {"time": 19922, "pitch": 48, "duration": 221, "velocity": 95}, {"time": 19932, "pitch": 55, "duration": 221, "velocity": 85}, {"time": 20163, "pitch": 48, "duration": 217, "velocity": 100}, {"time": 20173, "pitch": 55, "duration": 217, "velocity": 90}, {"time": 20400, "pitch": 48, "duration": 217, "velocity": 95}, {"time": 20410, "pitch": 55, "duration": 217, "velocity": 85}, {"time": 20637, "pitch": 47, "duration": 221, "velocity": 100}, {"time": 20647, "pitch": 54, "duration": 221, "velocity": 90}, {"time": 20878, "pitch": 47, "duration": 221, "velocity": 95}, {"time": 20888, "pitch": 54, "duration": 221, "velocity": 85}, {"time": 21119, "pitch": 47, "duration": 221, "velocity": 100}, {"time": 21129, "pitch": 54, "duration": 221, "velocity": 90}, {"time": 21360, "pitch": 47, "duration": 221, "velocity": 95}, {"time": 21370, "pitch": 54, "duration": 221, "velocity": 85}, {"time": 21601, "pitch": 43, "duration": 221, "velocity": 100}, {"time": 21611, "pitch": 50, "duration": 221, "velocity": 90}, {"time": 21842, "pitch": 43, "duration": 221, "velocity": 95}, {"time": 21852, "pitch": 50, "duration": 221, "velocity": 85}, {"time": 22083, "pitch": 43, "duration": 217, "velocity": 100}, {"time": 22093, "pitch": 50, "duration": 217, "velocity": 90}, {"time": 22320, "pitch": 43, "duration": 217, "velocity": 95}, {"time": 22330, "pitch": 50, "duration": 217, "velocity": 85}, {"time": 22557, "pitch": 48, "duration": 221, "velocity": 100}, {"time": 22567, "pitch": 55, "duration": 221, "velocity": 90}, {"time": 22798, "pitch": 48, "duration": 221, "velocity": 95}, {"time": 22808, "pitch": 55, "duration": 221, "velocity": 85}, {"time": 23039, "pitch": 48, "duration": 221, "velocity": 100}, {"time": 23049, "pitch": 55, "duration": 221, "velocity": 90}, {"time": 23280, "pitch": 48, "duration": 221, "velocity": 95}, {"time": 23290, "pitch": 55, "duration": 221, "velocity": 85}, {"time": 23521, "pitch": 41, "duration": 221, "velocity": 100}, {"time": 23531, "pitch": 48, "duration": 221, "velocity": 90}, {"time": 23762, "pitch": 41, "duration": 221, "velocity": 95}, {"time": 23772, "pitch": 48, "duration": 221, "velocity": 85}, {"time": 24003, "pitch": 41, "duration": 217, "velocity": 100}, {"time": 24013, "pitch": 48, "duration": 217, "velocity": 90}, {"time": 24240, "pitch": 41, "duration": 217, "velocity": 95}, {"time": 24250, "pitch": 48, "duration": 217, "velocity": 85}, {"time": 24477, "pitch": 46, "duration": 221, "velocity": 100}, {"time": 24487, "pitch": 53, "duration": 221, "velocity": 90}, {"time": 24718, "pitch": 46, "duration": 221, "velocity": 95}, {"time": 24728, "pitch": 53, "duration": 221, "velocity": 85}, {"time": 24959, "pitch": 46, "duration": 221, "velocity": 100}, {"time": 24969, "pitch": 53, "duration": 221, "velocity": 90}, {"time": 25200, "pitch": 46, "duration": 221, "velocity": 95}, {"time": 25210, "pitch": 53, "duration": 221, "velocity": 85}, {"time": 25441, "pitch": 51, "duration": 221, "velocity": 100}, {"time": 25451, "pitch": 58, "duration": 221, "velocity": 90}, {"time": 25682, "pitch": 51, "duration": 221, "velocity": 95}, {"time": 25692, "pitch": 58, "duration": 221, "velocity": 85}, {"time": 25923, "pitch": 51, "duration": 217, "velocity": 100}, {"time": 25933, "pitch": 58, "duration": 217, "velocity": 90}, {"time": 26160, "pitch": 51, "duration": 217, "velocity": 95}, {"time": 26170, "pitch": 58, "duration": 217, "velocity": 85}, {"time": 26397, "pitch": 49, "duration": 221, "velocity": 100}, {"time": 26407, "pitch": 56, "duration": 221, "velocity": 90}, {"time": 26638, "pitch": 49, "duration": 221, "velocity": 95}, {"time": 26648, "pitch": 56, "duration": 221, "velocity": 85}, {"time": 26879, "pitch": 49, "duration": 221, "velocity": 100}, {"time": 26889, "pitch": 56, "duration": 221, "velocity": 90}, {"time": 27120, "pitch": 49, "duration": 221, "velocity": 95}, {"time": 27130, "pitch": 56, "duration": 221, "velocity": 85}, {"time": 27361, "pitch": 48, "duration": 221, "velocity": 100}, {"time": 27371, "pitch": 55, "duration": 221, "velocity": 90}, {"time": 27602, "pitch": 48, "duration": 221, "velocity": 95}, {"time": 27612, "pitch": 55, "duration": 221, "velocity": 85}, {"time": 27843, "pitch": 48, "duration": 217, "velocity": 100}, {"time": 27853, "pitch": 55, "duration": 217, "velocity": 90}, {"time": 28080, "pitch": 48, "duration": 217, "velocity": 95}, {"time": 28090, "pitch": 55, "duration": 217, "velocity": 85}, {"time": 28317, "pitch": 47, "duration": 221, "velocity": 100}, {"time": 28327, "pitch": 54, "duration": 221, "velocity": 90}, {"time": 28558, "pitch": 47, "duration": 221, "velocity": 95}, {"time": 28568, "pitch": 54, "duration": 221, "velocity": 85}, {"time": 28799, "pitch": 47, "duration": 221, "velocity": 100}, {"time": 28809, "pitch": 54, "duration": 221, "velocity": 90}, {"time": 29040, "pitch": 47, "duration": 221, "velocity": 95}, {"time": 29050, "pitch": 54, "duration": 221, "velocity": 85}, {"time": 29281, "pitch": 43, "duration": 221, "velocity": 100}, {"time": 29291, "pitch": 50, "duration": 221, "velocity": 90}, {"time": 29522, "pitch": 43, "duration": 221, "velocity": 95}, {"time": 29532, "pitch": 50, "duration": 221, "velocity": 85}, {"time": 29763, "pitch": 43, "duration": 218, "velocity": 100}, {"time": 29773, "pitch": 50, "duration": 217, "velocity": 90}, {"time": 30000, "pitch": 43, "duration": 217, "velocity": 95}, {"time": 30010, "pitch": 50, "duration": 217, "velocity": 85}, {"time": 30237, "pitch": 48, "duration": 221, "velocity": 100}, {"time": 30247, "pitch": 55, "duration": 221, "velocity": 90}, {"time": 30478, "pitch": 48, "duration": 221, "velocity": 95}, {"time": 30488, "pitch": 55, "duration": 221, "velocity": 85}, {"time": 30719, "pitch": 48, "duration": 221, "velocity": 100}, {"time": 30729, "pitch": 55, "duration": 221, "velocity": 90}, {"time": 30960, "pitch": 48, "duration": 221, "velocity": 95}, {"time": 30970, "pitch": 55, "duration": 221, "velocity": 85}, {"time": 31201, "pitch": 46, "duration": 221, "velocity": 100}, {"time": 31211, "pitch": 53, "duration": 221, "velocity": 90}, {"time": 31442, "pitch": 46, "duration": 221, "velocity": 95}, {"time": 31452, "pitch": 53, "duration": 221, "velocity": 85}, {"time": 31683, "pitch": 46, "duration": 218, "velocity": 100}, {"time": 31693, "pitch": 53, "duration": 217, "velocity": 90}, {"time": 31920, "pitch": 46, "duration": 218, "velocity": 95}, {"time": 31930, "pitch": 53, "duration": 217, "velocity": 85}, {"time": 32157, "pitch": 51, "duration": 221, "velocity": 100}, {"time": 32167, "pitch": 58, "duration": 221, "velocity": 90}, {"time": 32398, "pitch": 51, "duration": 221, "velocity": 95}, {"time": 32408, "pitch": 58, "duration": 221, "velocity": 85}, {"time": 32639, "pitch": 51, "duration": 221, "velocity": 100}, {"time": 32649, "pitch": 58, "duration": 221, "velocity": 90}, {"time": 32880, "pitch": 51, "duration": 221, "velocity": 95}, {"time": 32890, "pitch": 58, "duration": 221, "velocity": 85}, {"time": 65763, "pitch": 51, "duration": 217, "velocity": 100}, {"time": 65773, "pitch": 58, "duration": 217, "velocity": 90}, {"time": 66000, "pitch": 51, "duration": 217, "velocity": 95}, {"time": 66010, "pitch": 58, "duration": 217, "velocity": 85}, {"time": 66237, "pitch": 51, "duration": 221, "velocity": 100}, {"time": 66247, "pitch": 58, "duration": 221, "velocity": 90}, {"time": 66478, "pitch": 51, "duration": 221, "velocity": 95}, {"time": 66488, "pitch": 58, "duration": 221, "velocity": 85}, {"time": 66719, "pitch": 49, "duration": 221, "velocity": 100}, {"time": 66729, "pitch": 56, "duration": 221, "velocity": 90}, {"time": 66960, "pitch": 49, "duration": 221, "velocity": 95}, {"time": 66970, "pitch": 56, "duration": 221, "velocity": 85}, {"time": 67201, "pitch": 49, "duration": 221, "velocity": 100}, {"time": 67211, "pitch": 56, "duration": 221, "velocity": 90}, {"time": 67442, "pitch": 49, "duration": 221, "velocity": 95}, {"time": 67452, "pitch": 56, "duration": 221, "velocity": 85}, {"time": 67683, "pitch": 48, "duration": 217, "velocity": 100}, {"time": 67693, "pitch": 55, "duration": 217, "velocity": 90}, {"time": 67920, "pitch": 48, "duration": 217, "velocity": 95}, {"time": 67930, "pitch": 55, "duration": 217, "velocity": 85}, {"time": 68157, "pitch": 48, "duration": 221, "velocity": 100}, {"time": 68167, "pitch": 55, "duration": 221, "velocity": 90}, {"time": 68398, "pitch": 48, "duration": 221, "velocity": 95}, {"time": 68408, "pitch": 55, "duration": 221, "velocity": 85}, {"time": 68639, "pitch": 47, "duration": 221, "velocity": 100}, {"time": 68649, "pitch": 54, "duration": 221, "velocity": 90}, {"time": 68880, "pitch": 47, "duration": 221, "velocity": 95}, {"time": 68890, "pitch": 54, "duration": 221, "velocity": 85}, {"time": 69121, "pitch": 47, "duration": 221, "velocity": 100}, {"time": 69131, "pitch": 54, "duration": 221, "velocity": 90}, {"time": 69362, "pitch": 47, "duration": 221, "velocity": 95}, {"time": 69372, "pitch": 54, "duration": 221, "velocity": 85}, {"time": 69603, "pitch": 43, "duration": 217, "velocity": 100}, {"time": 69613, "pitch": 50, "duration": 217, "velocity": 90}, {"time": 69840, "pitch": 43, "duration": 217, "velocity": 95}, {"time": 69850, "pitch": 50, "duration": 217, "velocity": 85}, {"time": 70077, "pitch": 43, "duration": 221, "velocity": 100}, {"time": 70087, "pitch": 50, "duration": 221, "velocity": 90}, {"time": 70318, "pitch": 43, "duration": 221, "velocity": 95}, {"time": 70328, "pitch": 50, "duration": 221, "velocity": 85}, {"time": 70559, "pitch": 48, "duration": 221, "velocity": 100}, {"time": 70569, "pitch": 55, "duration": 221, "velocity": 90}, {"time": 70800, "pitch": 48, "duration": 221, "velocity": 95}, {"time": 70810, "pitch": 55, "duration": 221, "velocity": 85}, {"time": 71041, "pitch": 48, "duration": 221, "velocity": 100}, {"time": 71051, "pitch": 55, "duration": 221, "velocity": 90}, {"time": 71282, "pitch": 48, "duration": 221, "velocity": 95}, {"time": 71292, "pitch": 55, "duration": 221, "velocity": 85}, {"time": 71523, "pitch": 41, "duration": 217, "velocity": 100}, {"time": 71533, "pitch": 48, "duration": 217, "velocity": 90}, {"time": 71760, "pitch": 41, "duration": 217, "velocity": 95}, {"time": 71770, "pitch": 48, "duration": 217, "velocity": 85}, {"time": 71997, "pitch": 41, "duration": 221, "velocity": 100}, {"time": 72007, "pitch": 48, "duration": 221, "velocity": 90}, {"time": 72238, "pitch": 41, "duration": 221, "velocity": 95}, {"time": 72248, "pitch": 48, "duration": 221, "velocity": 85}, {"time": 72479, "pitch": 46, "duration": 221, "velocity": 100}, {"time": 72489, "pitch": 53, "duration": 221, "velocity": 90}, {"time": 72720, "pitch": 46, "duration": 221, "velocity": 95}, {"time": 72730, "pitch": 53, "duration": 221, "velocity": 85}, {"time": 72961, "pitch": 46, "duration": 221, "velocity": 100}, {"time": 72971, "pitch": 53, "duration": 221, "velocity": 90}, {"time": 73202, "pitch": 46, "duration": 221, "velocity": 95}, {"time": 73212, "pitch": 53, "duration": 221, "velocity": 85}, {"time": 73443, "pitch": 51, "duration": 217, "velocity": 100}, {"time": 73453, "pitch": 58, "duration": 217, "velocity": 90}, {"time": 73680, "pitch": 51, "duration": 217, "velocity": 95}, {"time": 73690, "pitch": 58, "duration": 217, "velocity": 85}, {"time": 73917, "pitch": 51, "duration": 221, "velocity": 100}, {"time": 73927, "pitch": 58, "duration": 221, "velocity": 90}, {"time": 74158, "pitch": 51, "duration": 221, "velocity": 95}, {"time": 74168, "pitch": 58, "duration": 221, "velocity": 85}, {"time": 74399, "pitch": 49, "duration": 221, "velocity": 100}, {"time": 74409, "pitch": 56, "duration": 221, "velocity": 90}, {"time": 74640, "pitch": 49, "duration": 221, "velocity": 95}, {"time": 74650, "pitch": 56, "duration": 221, "velocity": 85}, {"time": 74881, "pitch": 49, "duration": 221, "velocity": 100}, {"time": 74891, "pitch": 56, "duration": 221, "velocity": 90}, {"time": 75122, "pitch": 49, "duration": 221, "velocity": 95}, {"time": 75132, "pitch": 56, "duration": 221, "velocity": 85}, {"time": 75363, "pitch": 48, "duration": 217, "velocity": 100}, {"time": 75373, "pitch": 55, "duration": 217, "velocity": 90}, {"time": 75600, "pitch": 48, "duration": 217, "velocity": 95}, {"time": 75610, "pitch": 55, "duration": 217, "velocity": 85}, {"time": 75837, "pitch": 48, "duration": 221, "velocity": 100}, {"time": 75847, "pitch": 55, "duration": 221, "velocity": 90}, {"time": 76078, "pitch": 48, "duration": 221, "velocity": 95}, {"time": 76088, "pitch": 55, "duration": 221, "velocity": 85}, {"time": 76319, "pitch": 47, "duration": 221, "velocity": 100}, {"time": 76329, "pitch": 54, "duration": 221, "velocity": 90}, {"time": 76560, "pitch": 47, "duration": 221, "velocity": 95}, {"time": 76570, "pitch": 54, "duration": 221, "velocity": 85}, {"time": 76801, "pitch": 47, "duration": 221, "velocity": 100}, {"time": 76811, "pitch": 54, "duration": 221, "velocity": 90}, {"time": 77042, "pitch": 47, "duration": 221, "velocity": 95}, {"time": 77052, "pitch": 54, "duration": 221, "velocity": 85}, {"time": 77283, "pitch": 43, "duration": 217, "velocity": 100}, {"time": 77293, "pitch": 50, "duration": 217, "velocity": 90}, {"time": 77520, "pitch": 43, "duration": 217, "velocity": 95}, {"time": 77530, "pitch": 50, "duration": 217, "velocity": 85}, {"time": 77757, "pitch": 43, "duration": 221, "velocity": 100}, {"time": 77767, "pitch": 50, "duration": 221, "velocity": 90}, {"time": 77998, "pitch": 43, "duration": 221, "velocity": 95}, {"time": 78008, "pitch": 50, "duration": 221, "velocity": 85}, {"time": 78239, "pitch": 48, "duration": 221, "velocity": 100}, {"time": 78249, "pitch": 55, "duration": 221, "velocity": 90}, {"time": 78480, "pitch": 48, "duration": 221, "velocity": 95}, {"time": 78490, "pitch": 55, "duration": 221, "velocity": 85}, {"time": 78721, "pitch": 48, "duration": 221, "velocity": 100}, {"time": 78731, "pitch": 55, "duration": 221, "velocity": 90}, {"time": 78962, "pitch": 48, "duration": 221, "velocity": 95}, {"time": 78972, "pitch": 55, "duration": 221, "velocity": 85}, {"time": 79203, "pitch": 46, "duration": 217, "velocity": 100}, {"time": 79213, "pitch": 53, "duration": 217, "velocity": 90}, {"time": 79440, "pitch": 46, "duration": 217, "velocity": 95}, {"time": 79450, "pitch": 53, "duration": 217, "velocity": 85}, {"time": 79677, "pitch": 46, "duration": 221, "velocity": 100}, {"time": 79687, "pitch": 53, "duration": 221, "velocity": 90}, {"time": 79918, "pitch": 46, "duration": 221, "velocity": 95}, {"time": 79928, "pitch": 53, "duration": 221, "velocity": 85}, {"time": 80159, "pitch": 51, "duration": 221, "velocity": 100}, {"time": 80169, "pitch": 58, "duration": 221, "velocity": 90}, {"time": 80400, "pitch": 51, "duration": 221, "velocity": 95}, {"time": 80410, "pitch": 58, "duration": 221, "velocity": 85}, {"time": 80641, "pitch": 51, "duration": 221, "velocity": 100}, {"time": 80651, "pitch": 58, "duration": 221, "velocity": 90}, {"time": 80882, "pitch": 51, "duration": 221, "velocity": 95}, {"time": 80892, "pitch": 58, "duration": 221, "velocity": 85}]}]}