{"metadata": {"schema_version": "0.1", "title": "RWC-MDB-P-2001 No. 65: Tanabata / Makiko Hattori", "copyright": "RWC Music Database. Copyright (C) 2001 Real World Computing Partnership (contact: Masataka GOTO <m.goto@aist.go.jp>)", "source_filename": "RM-P065.SMF_SYNC.MID", "source_format": "midi"}, "resolution": 480, "tempos": [{"time": 0, "qpm": 59.40594059405941}, {"time": 480, "qpm": 76.92307692307692}, {"time": 960, "qpm": 75.9493670886076}, {"time": 8640, "qpm": 76.92307692307692}, {"time": 9120, "qpm": 75.9493670886076}, {"time": 18240, "qpm": 76.92307692307692}, {"time": 18720, "qpm": 75.9493670886076}, {"time": 28800, "qpm": 76.92307692307692}, {"time": 29760, "qpm": 75.9493670886076}, {"time": 43200, "qpm": 76.92307692307692}, {"time": 43680, "qpm": 75.9493670886076}, {"time": 52320, "qpm": 76.92307692307692}, {"time": 52800, "qpm": 75.9493670886076}, {"time": 63840, "qpm": 76.92307692307692}, {"time": 64320, "qpm": 75.9493670886076}, {"time": 71520, "qpm": 76.92307692307692}, {"time": 72000, "qpm": 75.9493670886076}, {"time": 75840, "qpm": 76.92307692307692}, {"time": 76320, "qpm": 75.9493670886076}, {"time": 86880, "qpm": 76.92307692307692}, {"time": 87360, "qpm": 75.9493670886076}, {"time": 92640, "qpm": 76.92307692307692}, {"time": 93120, "qpm": 75.9493670886076}, {"time": 98880, "qpm": 76.92307692307692}, {"time": 99360, "qpm": 75.9493670886076}, {"time": 109440, "qpm": 76.92307692307692}, {"time": 109920, "qpm": 75.9493670886076}, {"time": 118560, "qpm": 76.92307692307692}, {"time": 119040, "qpm": 75.9493670886076}, {"time": 123360, "qpm": 76.92307692307692}, {"time": 123840, "qpm": 75.9493670886076}, {"time": 132960, "qpm": 76.92307692307692}, {"time": 133440, "qpm": 75.9493670886076}], "key_signatures": [{"time": 0, "root": 0, "mode": "major"}], "time_signatures": [{"time": 0, "numerator": 1, "denominator": 4}, {"time": 480, "numerator": 4, "denominator": 4}], "tracks": [{"program": 0, "is_drum": false, "name": "Piano", "notes": [{"time": 479, "pitch": 55, "duration": 259, "velocity": 99}, {"time": 479, "pitch": 79, "duration": 489, "velocity": 99}, {"time": 479, "pitch": 84, "duration": 1838, "velocity": 83}, {"time": 479, "pitch": 88, "duration": 1778, "velocity": 105}, {"time": 718, "pitch": 60, "duration": 270, "velocity": 91}, {"time": 958, "pitch": 65, "duration": 260, "velocity": 91}, {"time": 958, "pitch": 77, "duration": 1369, "velocity": 100}, {"time": 1198, "pitch": 67, "duration": 290, "velocity": 96}, {"time": 1438, "pitch": 69, "duration": 849, "velocity": 97}, {"time": 2397, "pitch": 60, "duration": 233, "velocity": 92}, {"time": 2397, "pitch": 76, "duration": 1575, "velocity": 97}, {"time": 2397, "pitch": 83, "duration": 1565, "velocity": 100}, {"time": 2397, "pitch": 86, "duration": 1545, "velocity": 105}, {"time": 2640, "pitch": 67, "duration": 263, "velocity": 94}, {"time": 2883, "pitch": 74, "duration": 250, "velocity": 87}, {"time": 3123, "pitch": 72, "duration": 280, "velocity": 81}, {"time": 3363, "pitch": 79, "duration": 569, "velocity": 87}, {"time": 4322, "pitch": 41, "duration": 260, "velocity": 103}, {"time": 4322, "pitch": 67, "duration": 489, "velocity": 95}, {"time": 4322, "pitch": 72, "duration": 1789, "velocity": 86}, {"time": 4322, "pitch": 76, "duration": 1639, "velocity": 104}, {"time": 4562, "pitch": 48, "duration": 269, "velocity": 95}, {"time": 4802, "pitch": 53, "duration": 219, "velocity": 92}, {"time": 4802, "pitch": 65, "duration": 1329, "velocity": 99}, {"time": 5041, "pitch": 55, "duration": 290, "velocity": 93}, {"time": 5281, "pitch": 57, "duration": 810, "velocity": 92}, {"time": 6240, "pitch": 48, "duration": 220, "velocity": 90}, {"time": 6240, "pitch": 64, "duration": 1669, "velocity": 94}, {"time": 6240, "pitch": 71, "duration": 1679, "velocity": 88}, {"time": 6240, "pitch": 74, "duration": 1659, "velocity": 100}, {"time": 6480, "pitch": 55, "duration": 280, "velocity": 92}, {"time": 6720, "pitch": 62, "duration": 280, "velocity": 85}, {"time": 6960, "pitch": 60, "duration": 320, "velocity": 86}, {"time": 7200, "pitch": 67, "duration": 709, "velocity": 82}, {"time": 8159, "pitch": 46, "duration": 3783, "velocity": 93}, {"time": 8159, "pitch": 57, "duration": 3793, "velocity": 89}, {"time": 8159, "pitch": 64, "duration": 1519, "velocity": 91}, {"time": 8159, "pitch": 65, "duration": 1549, "velocity": 94}, {"time": 8159, "pitch": 72, "duration": 1579, "velocity": 96}, {"time": 10098, "pitch": 84, "duration": 1794, "velocity": 105}, {"time": 10158, "pitch": 79, "duration": 1804, "velocity": 80}, {"time": 10218, "pitch": 77, "duration": 1684, "velocity": 78}, {"time": 10258, "pitch": 72, "duration": 1724, "velocity": 74}, {"time": 12002, "pitch": 65, "duration": 740, "velocity": 90}, {"time": 12002, "pitch": 72, "duration": 800, "velocity": 77}, {"time": 12002, "pitch": 81, "duration": 370, "velocity": 95}, {"time": 12002, "pitch": 88, "duration": 370, "velocity": 106}, {"time": 12482, "pitch": 76, "duration": 480, "velocity": 79}, {"time": 12482, "pitch": 81, "duration": 310, "velocity": 87}, {"time": 12962, "pitch": 64, "duration": 759, "velocity": 85}, {"time": 12962, "pitch": 71, "duration": 809, "velocity": 89}, {"time": 12962, "pitch": 79, "duration": 409, "velocity": 97}, {"time": 12962, "pitch": 86, "duration": 329, "velocity": 103}, {"time": 13441, "pitch": 74, "duration": 370, "velocity": 71}, {"time": 13441, "pitch": 79, "duration": 250, "velocity": 90}, {"time": 13921, "pitch": 62, "duration": 729, "velocity": 74}, {"time": 13921, "pitch": 69, "duration": 729, "velocity": 87}, {"time": 13921, "pitch": 77, "duration": 390, "velocity": 100}, {"time": 13921, "pitch": 84, "duration": 380, "velocity": 106}, {"time": 14401, "pitch": 72, "duration": 249, "velocity": 78}, {"time": 14401, "pitch": 77, "duration": 249, "velocity": 90}, {"time": 14880, "pitch": 55, "duration": 520, "velocity": 80}, {"time": 14880, "pitch": 65, "duration": 750, "velocity": 71}, {"time": 14880, "pitch": 71, "duration": 500, "velocity": 98}, {"time": 14880, "pitch": 79, "duration": 880, "velocity": 104}, {"time": 15360, "pitch": 57, "duration": 270, "velocity": 85}, {"time": 15360, "pitch": 72, "duration": 280, "velocity": 95}, {"time": 15600, "pitch": 59, "duration": 150, "velocity": 86}, {"time": 15600, "pitch": 74, "duration": 210, "velocity": 95}, {"time": 15839, "pitch": 60, "duration": 250, "velocity": 92}, {"time": 15839, "pitch": 76, "duration": 710, "velocity": 95}, {"time": 15839, "pitch": 79, "duration": 940, "velocity": 104}, {"time": 16079, "pitch": 67, "duration": 240, "velocity": 93}, {"time": 16319, "pitch": 72, "duration": 290, "velocity": 93}, {"time": 16559, "pitch": 71, "duration": 260, "velocity": 90}, {"time": 16559, "pitch": 74, "duration": 240, "velocity": 89}, {"time": 16799, "pitch": 69, "duration": 509, "velocity": 84}, {"time": 16799, "pitch": 76, "duration": 479, "velocity": 89}, {"time": 16799, "pitch": 84, "duration": 280, "velocity": 105}, {"time": 17278, "pitch": 72, "duration": 390, "velocity": 86}, {"time": 17278, "pitch": 79, "duration": 380, "velocity": 96}, {"time": 17758, "pitch": 62, "duration": 460, "velocity": 91}, {"time": 17758, "pitch": 72, "duration": 780, "velocity": 93}, {"time": 17758, "pitch": 78, "duration": 750, "velocity": 103}, {"time": 18238, "pitch": 69, "duration": 529, "velocity": 88}, {"time": 18717, "pitch": 67, "duration": 480, "velocity": 82}, {"time": 18717, "pitch": 72, "duration": 290, "velocity": 95}, {"time": 18717, "pitch": 77, "duration": 250, "velocity": 97}, {"time": 18717, "pitch": 81, "duration": 380, "velocity": 105}, {"time": 19197, "pitch": 55, "duration": 496, "velocity": 87}, {"time": 19197, "pitch": 71, "duration": 132, "velocity": 95}, {"time": 19197, "pitch": 76, "duration": 162, "velocity": 78}, {"time": 19197, "pitch": 79, "duration": 132, "velocity": 89}, {"time": 19440, "pitch": 69, "duration": 81, "velocity": 89}, {"time": 19440, "pitch": 74, "duration": 61, "velocity": 83}, {"time": 19440, "pitch": 77, "duration": 61, "velocity": 90}, {"time": 19683, "pitch": 60, "duration": 679, "velocity": 80}, {"time": 19683, "pitch": 67, "duration": 709, "velocity": 95}, {"time": 19683, "pitch": 72, "duration": 719, "velocity": 87}, {"time": 19683, "pitch": 76, "duration": 699, "velocity": 104}, {"time": 20642, "pitch": 48, "duration": 829, "velocity": 90}, {"time": 20642, "pitch": 58, "duration": 759, "velocity": 81}, {"time": 20642, "pitch": 64, "duration": 859, "velocity": 88}, {"time": 20642, "pitch": 69, "duration": 849, "velocity": 84}, {"time": 20642, "pitch": 74, "duration": 759, "velocity": 96}, {"time": 21601, "pitch": 53, "duration": 840, "velocity": 83}, {"time": 21601, "pitch": 57, "duration": 780, "velocity": 84}, {"time": 21601, "pitch": 64, "duration": 740, "velocity": 81}, {"time": 21601, "pitch": 67, "duration": 700, "velocity": 88}, {"time": 21601, "pitch": 72, "duration": 750, "velocity": 100}, {"time": 22561, "pitch": 52, "duration": 279, "velocity": 89}, {"time": 22561, "pitch": 59, "duration": 269, "velocity": 85}, {"time": 22561, "pitch": 62, "duration": 289, "velocity": 86}, {"time": 22561, "pitch": 67, "duration": 329, "velocity": 100}, {"time": 23040, "pitch": 51, "duration": 260, "velocity": 85}, {"time": 23040, "pitch": 57, "duration": 280, "velocity": 90}, {"time": 23040, "pitch": 60, "duration": 240, "velocity": 91}, {"time": 23040, "pitch": 66, "duration": 290, "velocity": 102}, {"time": 23520, "pitch": 50, "duration": 729, "velocity": 88}, {"time": 23520, "pitch": 57, "duration": 759, "velocity": 86}, {"time": 23520, "pitch": 60, "duration": 839, "velocity": 83}, {"time": 23520, "pitch": 65, "duration": 849, "velocity": 102}, {"time": 24479, "pitch": 49, "duration": 580, "velocity": 96}, {"time": 24479, "pitch": 56, "duration": 580, "velocity": 84}, {"time": 24479, "pitch": 60, "duration": 600, "velocity": 85}, {"time": 24479, "pitch": 65, "duration": 770, "velocity": 100}, {"time": 25439, "pitch": 48, "duration": 1828, "velocity": 83}, {"time": 25439, "pitch": 55, "duration": 1808, "velocity": 76}, {"time": 25439, "pitch": 62, "duration": 1798, "velocity": 83}, {"time": 25478, "pitch": 64, "duration": 1729, "velocity": 88}, {"time": 25538, "pitch": 67, "duration": 1729, "velocity": 85}, {"time": 27357, "pitch": 58, "duration": 965, "velocity": 99}, {"time": 27357, "pitch": 62, "duration": 886, "velocity": 91}, {"time": 27357, "pitch": 65, "duration": 916, "velocity": 99}, {"time": 27357, "pitch": 69, "duration": 896, "velocity": 99}, {"time": 28322, "pitch": 57, "duration": 820, "velocity": 91}, {"time": 28322, "pitch": 60, "duration": 830, "velocity": 97}, {"time": 28322, "pitch": 64, "duration": 850, "velocity": 90}, {"time": 28322, "pitch": 67, "duration": 830, "velocity": 99}, {"time": 29282, "pitch": 58, "duration": 949, "velocity": 103}, {"time": 29282, "pitch": 62, "duration": 869, "velocity": 88}, {"time": 29282, "pitch": 65, "duration": 869, "velocity": 90}, {"time": 29282, "pitch": 69, "duration": 929, "velocity": 93}, {"time": 30241, "pitch": 57, "duration": 869, "velocity": 88}, {"time": 30241, "pitch": 60, "duration": 839, "velocity": 89}, {"time": 30241, "pitch": 64, "duration": 849, "velocity": 89}, {"time": 30241, "pitch": 67, "duration": 849, "velocity": 91}, {"time": 31200, "pitch": 58, "duration": 960, "velocity": 102}, {"time": 31200, "pitch": 62, "duration": 840, "velocity": 90}, {"time": 31200, "pitch": 65, "duration": 850, "velocity": 91}, {"time": 31200, "pitch": 69, "duration": 840, "velocity": 100}, {"time": 32160, "pitch": 57, "duration": 829, "velocity": 82}, {"time": 32160, "pitch": 60, "duration": 849, "velocity": 87}, {"time": 32160, "pitch": 64, "duration": 829, "velocity": 81}, {"time": 32160, "pitch": 67, "duration": 849, "velocity": 93}, {"time": 33119, "pitch": 58, "duration": 959, "velocity": 101}, {"time": 33119, "pitch": 62, "duration": 809, "velocity": 86}, {"time": 33119, "pitch": 65, "duration": 829, "velocity": 83}, {"time": 33119, "pitch": 69, "duration": 789, "velocity": 95}, {"time": 34078, "pitch": 57, "duration": 840, "velocity": 78}, {"time": 34078, "pitch": 60, "duration": 850, "velocity": 87}, {"time": 34078, "pitch": 64, "duration": 830, "velocity": 79}, {"time": 34078, "pitch": 67, "duration": 850, "velocity": 93}, {"time": 35038, "pitch": 58, "duration": 945, "velocity": 88}, {"time": 35038, "pitch": 62, "duration": 823, "velocity": 90}, {"time": 35038, "pitch": 65, "duration": 833, "velocity": 91}, {"time": 35038, "pitch": 69, "duration": 894, "velocity": 100}, {"time": 36003, "pitch": 57, "duration": 879, "velocity": 85}, {"time": 36003, "pitch": 60, "duration": 869, "velocity": 85}, {"time": 36003, "pitch": 64, "duration": 869, "velocity": 80}, {"time": 36003, "pitch": 67, "duration": 879, "velocity": 97}, {"time": 36962, "pitch": 58, "duration": 950, "velocity": 91}, {"time": 36962, "pitch": 62, "duration": 850, "velocity": 92}, {"time": 36962, "pitch": 65, "duration": 850, "velocity": 78}, {"time": 36962, "pitch": 69, "duration": 840, "velocity": 102}, {"time": 37922, "pitch": 57, "duration": 819, "velocity": 90}, {"time": 37922, "pitch": 60, "duration": 809, "velocity": 80}, {"time": 37922, "pitch": 64, "duration": 789, "velocity": 74}, {"time": 37922, "pitch": 67, "duration": 819, "velocity": 93}, {"time": 38881, "pitch": 58, "duration": 969, "velocity": 92}, {"time": 38881, "pitch": 62, "duration": 839, "velocity": 90}, {"time": 38881, "pitch": 65, "duration": 849, "velocity": 84}, {"time": 38881, "pitch": 69, "duration": 819, "velocity": 101}, {"time": 39840, "pitch": 57, "duration": 850, "velocity": 82}, {"time": 39840, "pitch": 60, "duration": 869, "velocity": 90}, {"time": 39840, "pitch": 64, "duration": 770, "velocity": 84}, {"time": 39840, "pitch": 67, "duration": 810, "velocity": 93}, {"time": 40799, "pitch": 57, "duration": 1250, "velocity": 90}, {"time": 40799, "pitch": 60, "duration": 1230, "velocity": 90}, {"time": 40799, "pitch": 62, "duration": 1210, "velocity": 89}, {"time": 40799, "pitch": 65, "duration": 1230, "velocity": 102}, {"time": 42238, "pitch": 49, "duration": 460, "velocity": 90}, {"time": 42238, "pitch": 56, "duration": 460, "velocity": 88}, {"time": 42238, "pitch": 60, "duration": 460, "velocity": 88}, {"time": 42238, "pitch": 63, "duration": 470, "velocity": 94}, {"time": 42238, "pitch": 65, "duration": 450, "velocity": 103}, {"time": 42718, "pitch": 48, "duration": 1775, "velocity": 87}, {"time": 42718, "pitch": 55, "duration": 1775, "velocity": 85}, {"time": 42718, "pitch": 59, "duration": 1755, "velocity": 89}, {"time": 42718, "pitch": 62, "duration": 1785, "velocity": 84}, {"time": 42718, "pitch": 64, "duration": 1785, "velocity": 96}, {"time": 44643, "pitch": 53, "duration": 839, "velocity": 84}, {"time": 44643, "pitch": 60, "duration": 849, "velocity": 80}, {"time": 44643, "pitch": 69, "duration": 230, "velocity": 107}, {"time": 44883, "pitch": 64, "duration": 299, "velocity": 77}, {"time": 45122, "pitch": 76, "duration": 240, "velocity": 109}, {"time": 45362, "pitch": 64, "duration": 290, "velocity": 74}, {"time": 45602, "pitch": 52, "duration": 819, "velocity": 90}, {"time": 45602, "pitch": 59, "duration": 819, "velocity": 86}, {"time": 45602, "pitch": 67, "duration": 250, "velocity": 104}, {"time": 45842, "pitch": 62, "duration": 310, "velocity": 78}, {"time": 46082, "pitch": 74, "duration": 229, "velocity": 106}, {"time": 46321, "pitch": 62, "duration": 250, "velocity": 82}, {"time": 46561, "pitch": 50, "duration": 950, "velocity": 88}, {"time": 46561, "pitch": 57, "duration": 770, "velocity": 87}, {"time": 46561, "pitch": 65, "duration": 230, "velocity": 104}, {"time": 46801, "pitch": 60, "duration": 320, "velocity": 80}, {"time": 47041, "pitch": 72, "duration": 220, "velocity": 106}, {"time": 47281, "pitch": 60, "duration": 80, "velocity": 82}, {"time": 47521, "pitch": 55, "duration": 259, "velocity": 82}, {"time": 47521, "pitch": 59, "duration": 499, "velocity": 94}, {"time": 47521, "pitch": 67, "duration": 869, "velocity": 104}, {"time": 47760, "pitch": 43, "duration": 280, "velocity": 87}, {"time": 48000, "pitch": 45, "duration": 250, "velocity": 85}, {"time": 48000, "pitch": 60, "duration": 270, "velocity": 91}, {"time": 48240, "pitch": 47, "duration": 140, "velocity": 84}, {"time": 48240, "pitch": 62, "duration": 170, "velocity": 88}, {"time": 48480, "pitch": 48, "duration": 270, "velocity": 88}, {"time": 48480, "pitch": 64, "duration": 739, "velocity": 96}, {"time": 48480, "pitch": 67, "duration": 969, "velocity": 102}, {"time": 48720, "pitch": 55, "duration": 260, "velocity": 91}, {"time": 48960, "pitch": 60, "duration": 239, "velocity": 92}, {"time": 49199, "pitch": 59, "duration": 240, "velocity": 88}, {"time": 49199, "pitch": 62, "duration": 260, "velocity": 97}, {"time": 49439, "pitch": 57, "duration": 959, "velocity": 87}, {"time": 49439, "pitch": 60, "duration": 240, "velocity": 94}, {"time": 49679, "pitch": 67, "duration": 290, "velocity": 100}, {"time": 49919, "pitch": 72, "duration": 240, "velocity": 96}, {"time": 50159, "pitch": 67, "duration": 249, "velocity": 94}, {"time": 50398, "pitch": 50, "duration": 500, "velocity": 91}, {"time": 50398, "pitch": 66, "duration": 240, "velocity": 103}, {"time": 50638, "pitch": 60, "duration": 290, "velocity": 73}, {"time": 50878, "pitch": 54, "duration": 520, "velocity": 92}, {"time": 50878, "pitch": 69, "duration": 270, "velocity": 110}, {"time": 51118, "pitch": 60, "duration": 140, "velocity": 86}, {"time": 51358, "pitch": 55, "duration": 969, "velocity": 75}, {"time": 51358, "pitch": 60, "duration": 429, "velocity": 95}, {"time": 51358, "pitch": 65, "duration": 419, "velocity": 85}, {"time": 51358, "pitch": 69, "duration": 419, "velocity": 106}, {"time": 51837, "pitch": 59, "duration": 150, "velocity": 98}, {"time": 51837, "pitch": 64, "duration": 150, "velocity": 84}, {"time": 51837, "pitch": 67, "duration": 140, "velocity": 90}, {"time": 52077, "pitch": 57, "duration": 70, "velocity": 89}, {"time": 52077, "pitch": 62, "duration": 60, "velocity": 83}, {"time": 52077, "pitch": 65, "duration": 90, "velocity": 90}, {"time": 52317, "pitch": 48, "duration": 1495, "velocity": 84}, {"time": 52317, "pitch": 72, "duration": 253, "velocity": 100}, {"time": 52560, "pitch": 64, "duration": 303, "velocity": 84}, {"time": 52803, "pitch": 67, "duration": 280, "velocity": 91}, {"time": 53043, "pitch": 71, "duration": 319, "velocity": 90}, {"time": 53282, "pitch": 70, "duration": 220, "velocity": 98}, {"time": 53522, "pitch": 64, "duration": 280, "velocity": 81}, {"time": 53762, "pitch": 52, "duration": 490, "velocity": 80}, {"time": 53762, "pitch": 67, "duration": 280, "velocity": 101}, {"time": 54002, "pitch": 60, "duration": 250, "velocity": 85}, {"time": 54242, "pitch": 53, "duration": 999, "velocity": 91}, {"time": 54242, "pitch": 69, "duration": 220, "velocity": 103}, {"time": 54482, "pitch": 57, "duration": 269, "velocity": 96}, {"time": 54721, "pitch": 60, "duration": 280, "velocity": 97}, {"time": 54961, "pitch": 64, "duration": 290, "velocity": 94}, {"time": 55201, "pitch": 52, "duration": 320, "velocity": 89}, {"time": 55201, "pitch": 67, "duration": 240, "velocity": 103}, {"time": 55441, "pitch": 62, "duration": 180, "velocity": 88}, {"time": 55681, "pitch": 51, "duration": 479, "velocity": 93}, {"time": 55681, "pitch": 60, "duration": 419, "velocity": 82}, {"time": 55681, "pitch": 66, "duration": 389, "velocity": 94}, {"time": 56160, "pitch": 50, "duration": 750, "velocity": 85}, {"time": 56160, "pitch": 57, "duration": 750, "velocity": 82}, {"time": 56160, "pitch": 65, "duration": 240, "velocity": 101}, {"time": 56400, "pitch": 60, "duration": 280, "velocity": 88}, {"time": 56640, "pitch": 65, "duration": 260, "velocity": 103}, {"time": 56880, "pitch": 72, "duration": 280, "velocity": 89}, {"time": 57120, "pitch": 49, "duration": 729, "velocity": 92}, {"time": 57120, "pitch": 56, "duration": 729, "velocity": 83}, {"time": 57120, "pitch": 65, "duration": 229, "velocity": 102}, {"time": 57359, "pitch": 60, "duration": 270, "velocity": 80}, {"time": 57599, "pitch": 65, "duration": 250, "velocity": 102}, {"time": 57839, "pitch": 72, "duration": 250, "velocity": 92}, {"time": 58079, "pitch": 48, "duration": 1849, "velocity": 84}, {"time": 58079, "pitch": 55, "duration": 1859, "velocity": 78}, {"time": 58079, "pitch": 64, "duration": 240, "velocity": 96}, {"time": 58319, "pitch": 62, "duration": 260, "velocity": 88}, {"time": 58559, "pitch": 64, "duration": 289, "velocity": 94}, {"time": 58798, "pitch": 67, "duration": 270, "velocity": 89}, {"time": 59038, "pitch": 64, "duration": 830, "velocity": 69}, {"time": 59038, "pitch": 72, "duration": 860, "velocity": 76}, {"time": 59998, "pitch": 58, "duration": 874, "velocity": 97}, {"time": 59998, "pitch": 62, "duration": 823, "velocity": 91}, {"time": 59998, "pitch": 65, "duration": 813, "velocity": 92}, {"time": 59998, "pitch": 69, "duration": 843, "velocity": 103}, {"time": 60963, "pitch": 57, "duration": 789, "velocity": 87}, {"time": 60963, "pitch": 60, "duration": 829, "velocity": 81}, {"time": 60963, "pitch": 64, "duration": 849, "velocity": 88}, {"time": 60963, "pitch": 67, "duration": 859, "velocity": 93}, {"time": 61922, "pitch": 58, "duration": 949, "velocity": 101}, {"time": 61922, "pitch": 62, "duration": 820, "velocity": 85}, {"time": 61922, "pitch": 65, "duration": 830, "velocity": 84}, {"time": 61922, "pitch": 69, "duration": 800, "velocity": 94}, {"time": 62881, "pitch": 57, "duration": 830, "velocity": 81}, {"time": 62881, "pitch": 60, "duration": 820, "velocity": 84}, {"time": 62881, "pitch": 64, "duration": 790, "velocity": 75}, {"time": 62881, "pitch": 67, "duration": 830, "velocity": 91}, {"time": 63841, "pitch": 58, "duration": 959, "velocity": 95}, {"time": 63841, "pitch": 62, "duration": 839, "velocity": 90}, {"time": 63841, "pitch": 65, "duration": 849, "velocity": 85}, {"time": 63841, "pitch": 69, "duration": 829, "velocity": 99}, {"time": 64800, "pitch": 57, "duration": 969, "velocity": 80}, {"time": 64800, "pitch": 60, "duration": 839, "velocity": 81}, {"time": 64800, "pitch": 64, "duration": 859, "velocity": 78}, {"time": 64800, "pitch": 67, "duration": 879, "velocity": 93}, {"time": 65759, "pitch": 58, "duration": 950, "velocity": 91}, {"time": 65759, "pitch": 62, "duration": 830, "velocity": 87}, {"time": 65759, "pitch": 65, "duration": 840, "velocity": 86}, {"time": 65759, "pitch": 69, "duration": 820, "velocity": 101}, {"time": 66719, "pitch": 57, "duration": 879, "velocity": 79}, {"time": 66719, "pitch": 60, "duration": 859, "velocity": 86}, {"time": 66719, "pitch": 64, "duration": 849, "velocity": 73}, {"time": 66719, "pitch": 67, "duration": 879, "velocity": 93}, {"time": 67678, "pitch": 58, "duration": 929, "velocity": 96}, {"time": 67678, "pitch": 62, "duration": 799, "velocity": 93}, {"time": 67678, "pitch": 65, "duration": 789, "velocity": 91}, {"time": 67678, "pitch": 69, "duration": 779, "velocity": 105}, {"time": 68637, "pitch": 57, "duration": 976, "velocity": 78}, {"time": 68637, "pitch": 60, "duration": 886, "velocity": 89}, {"time": 68637, "pitch": 64, "duration": 896, "velocity": 87}, {"time": 68637, "pitch": 67, "duration": 916, "velocity": 99}, {"time": 69603, "pitch": 58, "duration": 959, "velocity": 93}, {"time": 69603, "pitch": 62, "duration": 779, "velocity": 88}, {"time": 69603, "pitch": 65, "duration": 779, "velocity": 91}, {"time": 69603, "pitch": 69, "duration": 749, "velocity": 98}, {"time": 70562, "pitch": 57, "duration": 829, "velocity": 75}, {"time": 70562, "pitch": 60, "duration": 839, "velocity": 87}, {"time": 70562, "pitch": 64, "duration": 839, "velocity": 86}, {"time": 70562, "pitch": 67, "duration": 839, "velocity": 97}, {"time": 71521, "pitch": 60, "duration": 969, "velocity": 87}, {"time": 71521, "pitch": 64, "duration": 840, "velocity": 85}, {"time": 71521, "pitch": 65, "duration": 840, "velocity": 94}, {"time": 71521, "pitch": 69, "duration": 820, "velocity": 101}, {"time": 72481, "pitch": 59, "duration": 829, "velocity": 87}, {"time": 72481, "pitch": 62, "duration": 799, "velocity": 85}, {"time": 72481, "pitch": 64, "duration": 809, "velocity": 89}, {"time": 72481, "pitch": 67, "duration": 799, "velocity": 99}, {"time": 73440, "pitch": 57, "duration": 1129, "velocity": 87}, {"time": 73440, "pitch": 60, "duration": 1029, "velocity": 91}, {"time": 73440, "pitch": 62, "duration": 1029, "velocity": 84}, {"time": 73440, "pitch": 65, "duration": 1089, "velocity": 104}, {"time": 74879, "pitch": 49, "duration": 489, "velocity": 84}, {"time": 74879, "pitch": 56, "duration": 389, "velocity": 90}, {"time": 74879, "pitch": 60, "duration": 339, "velocity": 79}, {"time": 74879, "pitch": 63, "duration": 359, "velocity": 87}, {"time": 74879, "pitch": 65, "duration": 359, "velocity": 102}, {"time": 75358, "pitch": 48, "duration": 3494, "velocity": 89}, {"time": 75358, "pitch": 55, "duration": 1829, "velocity": 82}, {"time": 75358, "pitch": 59, "duration": 1839, "velocity": 87}, {"time": 75358, "pitch": 62, "duration": 1869, "velocity": 85}, {"time": 75358, "pitch": 64, "duration": 1899, "velocity": 93}, {"time": 77763, "pitch": 79, "duration": 439, "velocity": 93}, {"time": 77763, "pitch": 86, "duration": 449, "velocity": 104}, {"time": 78242, "pitch": 76, "duration": 280, "velocity": 83}, {"time": 78242, "pitch": 83, "duration": 290, "velocity": 103}, {"time": 78722, "pitch": 72, "duration": 220, "velocity": 77}, {"time": 78722, "pitch": 79, "duration": 240, "velocity": 95}, {"time": 79202, "pitch": 41, "duration": 269, "velocity": 93}, {"time": 79202, "pitch": 64, "duration": 739, "velocity": 89}, {"time": 79202, "pitch": 69, "duration": 709, "velocity": 85}, {"time": 79202, "pitch": 76, "duration": 679, "velocity": 107}, {"time": 79441, "pitch": 48, "duration": 270, "velocity": 90}, {"time": 79681, "pitch": 57, "duration": 250, "velocity": 91}, {"time": 79921, "pitch": 48, "duration": 260, "velocity": 89}, {"time": 80161, "pitch": 41, "duration": 240, "velocity": 90}, {"time": 80161, "pitch": 62, "duration": 719, "velocity": 89}, {"time": 80161, "pitch": 67, "duration": 709, "velocity": 87}, {"time": 80161, "pitch": 74, "duration": 679, "velocity": 102}, {"time": 80401, "pitch": 50, "duration": 260, "velocity": 79}, {"time": 80641, "pitch": 59, "duration": 249, "velocity": 86}, {"time": 80880, "pitch": 50, "duration": 260, "velocity": 73}, {"time": 81120, "pitch": 40, "duration": 230, "velocity": 92}, {"time": 81120, "pitch": 62, "duration": 700, "velocity": 88}, {"time": 81120, "pitch": 67, "duration": 730, "velocity": 85}, {"time": 81120, "pitch": 74, "duration": 680, "velocity": 104}, {"time": 81360, "pitch": 47, "duration": 290, "velocity": 84}, {"time": 81600, "pitch": 55, "duration": 290, "velocity": 91}, {"time": 81840, "pitch": 47, "duration": 190, "velocity": 87}, {"time": 82080, "pitch": 45, "duration": 269, "velocity": 86}, {"time": 82080, "pitch": 61, "duration": 749, "velocity": 104}, {"time": 82080, "pitch": 67, "duration": 729, "velocity": 88}, {"time": 82080, "pitch": 73, "duration": 739, "velocity": 95}, {"time": 82319, "pitch": 52, "duration": 310, "velocity": 91}, {"time": 82559, "pitch": 57, "duration": 230, "velocity": 94}, {"time": 83039, "pitch": 38, "duration": 250, "velocity": 92}, {"time": 83039, "pitch": 60, "duration": 699, "velocity": 77}, {"time": 83039, "pitch": 65, "duration": 699, "velocity": 87}, {"time": 83039, "pitch": 72, "duration": 729, "velocity": 104}, {"time": 83279, "pitch": 45, "duration": 269, "velocity": 83}, {"time": 83518, "pitch": 50, "duration": 370, "velocity": 91}, {"time": 83998, "pitch": 40, "duration": 240, "velocity": 91}, {"time": 83998, "pitch": 62, "duration": 720, "velocity": 89}, {"time": 83998, "pitch": 67, "duration": 720, "velocity": 90}, {"time": 83998, "pitch": 74, "duration": 740, "velocity": 101}, {"time": 84238, "pitch": 47, "duration": 290, "velocity": 84}, {"time": 84478, "pitch": 52, "duration": 340, "velocity": 86}, {"time": 84957, "pitch": 41, "duration": 240, "velocity": 93}, {"time": 84957, "pitch": 64, "duration": 743, "velocity": 83}, {"time": 84957, "pitch": 69, "duration": 703, "velocity": 90}, {"time": 84957, "pitch": 76, "duration": 703, "velocity": 106}, {"time": 85197, "pitch": 48, "duration": 281, "velocity": 89}, {"time": 85437, "pitch": 53, "duration": 556, "velocity": 89}, {"time": 85923, "pitch": 52, "duration": 859, "velocity": 89}, {"time": 85923, "pitch": 62, "duration": 939, "velocity": 83}, {"time": 85923, "pitch": 68, "duration": 929, "velocity": 91}, {"time": 85923, "pitch": 74, "duration": 529, "velocity": 105}, {"time": 86402, "pitch": 40, "duration": 420, "velocity": 85}, {"time": 86402, "pitch": 72, "duration": 240, "velocity": 101}, {"time": 86642, "pitch": 71, "duration": 240, "velocity": 94}, {"time": 86882, "pitch": 41, "duration": 260, "velocity": 92}, {"time": 86882, "pitch": 64, "duration": 440, "velocity": 87}, {"time": 86882, "pitch": 69, "duration": 540, "velocity": 102}, {"time": 87122, "pitch": 48, "duration": 260, "velocity": 88}, {"time": 87362, "pitch": 57, "duration": 210, "velocity": 83}, {"time": 87362, "pitch": 76, "duration": 509, "velocity": 106}, {"time": 87602, "pitch": 48, "duration": 289, "velocity": 84}, {"time": 87841, "pitch": 41, "duration": 240, "velocity": 85}, {"time": 87841, "pitch": 74, "duration": 460, "velocity": 104}, {"time": 88081, "pitch": 50, "duration": 250, "velocity": 81}, {"time": 88321, "pitch": 59, "duration": 240, "velocity": 93}, {"time": 88321, "pitch": 62, "duration": 779, "velocity": 96}, {"time": 88321, "pitch": 67, "duration": 909, "velocity": 101}, {"time": 88561, "pitch": 50, "duration": 100, "velocity": 77}, {"time": 88801, "pitch": 40, "duration": 240, "velocity": 94}, {"time": 89041, "pitch": 47, "duration": 249, "velocity": 87}, {"time": 89280, "pitch": 55, "duration": 220, "velocity": 86}, {"time": 89280, "pitch": 74, "duration": 510, "velocity": 112}, {"time": 89520, "pitch": 47, "duration": 140, "velocity": 83}, {"time": 89760, "pitch": 45, "duration": 280, "velocity": 95}, {"time": 89760, "pitch": 73, "duration": 510, "velocity": 106}, {"time": 90000, "pitch": 52, "duration": 280, "velocity": 91}, {"time": 90240, "pitch": 57, "duration": 180, "velocity": 76}, {"time": 90240, "pitch": 61, "duration": 209, "velocity": 85}, {"time": 90240, "pitch": 67, "duration": 199, "velocity": 92}, {"time": 90719, "pitch": 38, "duration": 240, "velocity": 85}, {"time": 90719, "pitch": 60, "duration": 370, "velocity": 89}, {"time": 90719, "pitch": 65, "duration": 530, "velocity": 99}, {"time": 90959, "pitch": 45, "duration": 240, "velocity": 94}, {"time": 91199, "pitch": 53, "duration": 270, "velocity": 81}, {"time": 91199, "pitch": 72, "duration": 320, "velocity": 101}, {"time": 91679, "pitch": 40, "duration": 259, "velocity": 90}, {"time": 91679, "pitch": 62, "duration": 289, "velocity": 85}, {"time": 91679, "pitch": 67, "duration": 509, "velocity": 107}, {"time": 91918, "pitch": 47, "duration": 240, "velocity": 79}, {"time": 92158, "pitch": 55, "duration": 260, "velocity": 81}, {"time": 92158, "pitch": 74, "duration": 370, "velocity": 110}, {"time": 92638, "pitch": 41, "duration": 240, "velocity": 92}, {"time": 92638, "pitch": 64, "duration": 280, "velocity": 92}, {"time": 92638, "pitch": 69, "duration": 490, "velocity": 107}, {"time": 92878, "pitch": 48, "duration": 280, "velocity": 94}, {"time": 93118, "pitch": 57, "duration": 189, "velocity": 88}, {"time": 93118, "pitch": 76, "duration": 369, "velocity": 110}, {"time": 93597, "pitch": 40, "duration": 263, "velocity": 92}, {"time": 93597, "pitch": 64, "duration": 476, "velocity": 91}, {"time": 93597, "pitch": 68, "duration": 526, "velocity": 93}, {"time": 93597, "pitch": 74, "duration": 566, "velocity": 111}, {"time": 93840, "pitch": 47, "duration": 273, "velocity": 86}, {"time": 94083, "pitch": 52, "duration": 460, "velocity": 88}, {"time": 94083, "pitch": 72, "duration": 270, "velocity": 100}, {"time": 94323, "pitch": 71, "duration": 160, "velocity": 97}, {"time": 94563, "pitch": 53, "duration": 239, "velocity": 87}, {"time": 94563, "pitch": 79, "duration": 479, "velocity": 98}, {"time": 94563, "pitch": 84, "duration": 1798, "velocity": 85}, {"time": 94563, "pitch": 88, "duration": 1588, "velocity": 103}, {"time": 94802, "pitch": 60, "duration": 270, "velocity": 83}, {"time": 95042, "pitch": 65, "duration": 250, "velocity": 85}, {"time": 95042, "pitch": 77, "duration": 1349, "velocity": 98}, {"time": 95282, "pitch": 67, "duration": 300, "velocity": 91}, {"time": 95522, "pitch": 69, "duration": 789, "velocity": 90}, {"time": 96481, "pitch": 60, "duration": 210, "velocity": 77}, {"time": 96481, "pitch": 76, "duration": 1609, "velocity": 91}, {"time": 96481, "pitch": 83, "duration": 1579, "velocity": 94}, {"time": 96481, "pitch": 86, "duration": 1549, "velocity": 103}, {"time": 96721, "pitch": 67, "duration": 240, "velocity": 91}, {"time": 96961, "pitch": 74, "duration": 240, "velocity": 95}, {"time": 97201, "pitch": 72, "duration": 279, "velocity": 83}, {"time": 97440, "pitch": 79, "duration": 530, "velocity": 87}, {"time": 98400, "pitch": 41, "duration": 260, "velocity": 86}, {"time": 98400, "pitch": 67, "duration": 479, "velocity": 91}, {"time": 98400, "pitch": 72, "duration": 1758, "velocity": 83}, {"time": 98400, "pitch": 76, "duration": 1718, "velocity": 104}, {"time": 98640, "pitch": 48, "duration": 239, "velocity": 83}, {"time": 98879, "pitch": 53, "duration": 240, "velocity": 83}, {"time": 98879, "pitch": 65, "duration": 1309, "velocity": 93}, {"time": 99119, "pitch": 55, "duration": 280, "velocity": 85}, {"time": 99359, "pitch": 57, "duration": 829, "velocity": 89}, {"time": 100318, "pitch": 48, "duration": 230, "velocity": 86}, {"time": 100318, "pitch": 64, "duration": 1713, "velocity": 85}, {"time": 100318, "pitch": 71, "duration": 1672, "velocity": 82}, {"time": 100318, "pitch": 74, "duration": 1662, "velocity": 98}, {"time": 100558, "pitch": 55, "duration": 290, "velocity": 77}, {"time": 100798, "pitch": 62, "duration": 270, "velocity": 86}, {"time": 101038, "pitch": 60, "duration": 310, "velocity": 86}, {"time": 101278, "pitch": 67, "duration": 702, "velocity": 81}, {"time": 102243, "pitch": 46, "duration": 3597, "velocity": 85}, {"time": 102243, "pitch": 57, "duration": 3607, "velocity": 76}, {"time": 102243, "pitch": 64, "duration": 1579, "velocity": 82}, {"time": 102243, "pitch": 65, "duration": 1589, "velocity": 89}, {"time": 102243, "pitch": 72, "duration": 1619, "velocity": 96}, {"time": 104162, "pitch": 84, "duration": 1668, "velocity": 96}, {"time": 104212, "pitch": 79, "duration": 1568, "velocity": 83}, {"time": 104262, "pitch": 77, "duration": 1588, "velocity": 72}, {"time": 104311, "pitch": 76, "duration": 1489, "velocity": 67}, {"time": 106080, "pitch": 65, "duration": 780, "velocity": 84}, {"time": 106080, "pitch": 72, "duration": 830, "velocity": 73}, {"time": 106080, "pitch": 81, "duration": 340, "velocity": 91}, {"time": 106080, "pitch": 88, "duration": 440, "velocity": 110}, {"time": 106560, "pitch": 76, "duration": 450, "velocity": 78}, {"time": 106560, "pitch": 81, "duration": 450, "velocity": 93}, {"time": 107039, "pitch": 64, "duration": 820, "velocity": 76}, {"time": 107039, "pitch": 71, "duration": 810, "velocity": 80}, {"time": 107039, "pitch": 79, "duration": 340, "velocity": 92}, {"time": 107039, "pitch": 86, "duration": 470, "velocity": 108}, {"time": 107519, "pitch": 74, "duration": 380, "velocity": 84}, {"time": 107519, "pitch": 79, "duration": 340, "velocity": 95}, {"time": 107999, "pitch": 62, "duration": 589, "velocity": 86}, {"time": 107999, "pitch": 69, "duration": 559, "velocity": 83}, {"time": 107999, "pitch": 77, "duration": 399, "velocity": 86}, {"time": 107999, "pitch": 84, "duration": 310, "velocity": 102}, {"time": 108478, "pitch": 72, "duration": 340, "velocity": 86}, {"time": 108478, "pitch": 77, "duration": 430, "velocity": 90}, {"time": 108958, "pitch": 55, "duration": 530, "velocity": 84}, {"time": 108958, "pitch": 65, "duration": 760, "velocity": 73}, {"time": 108958, "pitch": 71, "duration": 510, "velocity": 90}, {"time": 108958, "pitch": 79, "duration": 889, "velocity": 100}, {"time": 109438, "pitch": 57, "duration": 260, "velocity": 82}, {"time": 109438, "pitch": 72, "duration": 270, "velocity": 87}, {"time": 109678, "pitch": 59, "duration": 169, "velocity": 78}, {"time": 109678, "pitch": 74, "duration": 179, "velocity": 86}, {"time": 109917, "pitch": 60, "duration": 240, "velocity": 90}, {"time": 109917, "pitch": 76, "duration": 713, "velocity": 95}, {"time": 109917, "pitch": 79, "duration": 1006, "velocity": 104}, {"time": 110157, "pitch": 67, "duration": 240, "velocity": 90}, {"time": 110397, "pitch": 72, "duration": 283, "velocity": 87}, {"time": 110640, "pitch": 71, "duration": 283, "velocity": 86}, {"time": 110640, "pitch": 74, "duration": 253, "velocity": 97}, {"time": 110883, "pitch": 69, "duration": 509, "velocity": 85}, {"time": 110883, "pitch": 76, "duration": 479, "velocity": 90}, {"time": 110883, "pitch": 84, "duration": 290, "velocity": 106}, {"time": 111362, "pitch": 72, "duration": 380, "velocity": 86}, {"time": 111362, "pitch": 79, "duration": 280, "velocity": 98}, {"time": 111842, "pitch": 62, "duration": 480, "velocity": 90}, {"time": 111842, "pitch": 72, "duration": 739, "velocity": 84}, {"time": 111842, "pitch": 78, "duration": 730, "velocity": 105}, {"time": 112322, "pitch": 69, "duration": 489, "velocity": 91}, {"time": 112801, "pitch": 67, "duration": 500, "velocity": 89}, {"time": 112801, "pitch": 72, "duration": 270, "velocity": 89}, {"time": 112801, "pitch": 77, "duration": 270, "velocity": 86}, {"time": 112801, "pitch": 81, "duration": 310, "velocity": 100}, {"time": 113281, "pitch": 55, "duration": 250, "velocity": 83}, {"time": 113281, "pitch": 71, "duration": 150, "velocity": 89}, {"time": 113281, "pitch": 76, "duration": 170, "velocity": 87}, {"time": 113281, "pitch": 79, "duration": 130, "velocity": 95}, {"time": 113521, "pitch": 69, "duration": 160, "velocity": 80}, {"time": 113521, "pitch": 74, "duration": 160, "velocity": 91}, {"time": 113521, "pitch": 77, "duration": 160, "velocity": 87}, {"time": 113761, "pitch": 60, "duration": 649, "velocity": 82}, {"time": 113761, "pitch": 67, "duration": 669, "velocity": 88}, {"time": 113761, "pitch": 72, "duration": 689, "velocity": 84}, {"time": 113761, "pitch": 76, "duration": 709, "velocity": 98}, {"time": 114720, "pitch": 48, "duration": 779, "velocity": 74}, {"time": 114720, "pitch": 58, "duration": 759, "velocity": 83}, {"time": 114720, "pitch": 64, "duration": 869, "velocity": 81}, {"time": 114720, "pitch": 69, "duration": 869, "velocity": 87}, {"time": 114720, "pitch": 74, "duration": 739, "velocity": 99}, {"time": 115679, "pitch": 53, "duration": 690, "velocity": 78}, {"time": 115679, "pitch": 57, "duration": 670, "velocity": 82}, {"time": 115679, "pitch": 64, "duration": 670, "velocity": 85}, {"time": 115679, "pitch": 67, "duration": 650, "velocity": 89}, {"time": 115679, "pitch": 72, "duration": 710, "velocity": 99}, {"time": 116639, "pitch": 52, "duration": 289, "velocity": 86}, {"time": 116639, "pitch": 59, "duration": 279, "velocity": 84}, {"time": 116639, "pitch": 62, "duration": 299, "velocity": 79}, {"time": 116639, "pitch": 67, "duration": 349, "velocity": 99}, {"time": 117118, "pitch": 51, "duration": 370, "velocity": 79}, {"time": 117118, "pitch": 57, "duration": 330, "velocity": 88}, {"time": 117118, "pitch": 60, "duration": 370, "velocity": 86}, {"time": 117118, "pitch": 66, "duration": 370, "velocity": 94}, {"time": 117598, "pitch": 50, "duration": 689, "velocity": 84}, {"time": 117598, "pitch": 57, "duration": 719, "velocity": 88}, {"time": 117598, "pitch": 60, "duration": 769, "velocity": 88}, {"time": 117598, "pitch": 65, "duration": 849, "velocity": 102}, {"time": 118557, "pitch": 49, "duration": 2714, "velocity": 86}, {"time": 118557, "pitch": 56, "duration": 2714, "velocity": 83}, {"time": 118557, "pitch": 60, "duration": 2714, "velocity": 74}, {"time": 118557, "pitch": 65, "duration": 2724, "velocity": 102}, {"time": 121441, "pitch": 54, "duration": 690, "velocity": 70}, {"time": 121441, "pitch": 61, "duration": 700, "velocity": 74}, {"time": 121441, "pitch": 65, "duration": 230, "velocity": 83}, {"time": 121441, "pitch": 70, "duration": 710, "velocity": 93}, {"time": 121681, "pitch": 63, "duration": 280, "velocity": 81}, {"time": 121921, "pitch": 65, "duration": 260, "velocity": 84}, {"time": 122161, "pitch": 63, "duration": 159, "velocity": 80}, {"time": 122400, "pitch": 53, "duration": 750, "velocity": 67}, {"time": 122400, "pitch": 60, "duration": 710, "velocity": 56}, {"time": 122400, "pitch": 63, "duration": 260, "velocity": 82}, {"time": 122400, "pitch": 68, "duration": 700, "velocity": 91}, {"time": 122640, "pitch": 61, "duration": 290, "velocity": 79}, {"time": 122880, "pitch": 63, "duration": 260, "velocity": 85}, {"time": 123120, "pitch": 61, "duration": 110, "velocity": 80}, {"time": 123360, "pitch": 51, "duration": 659, "velocity": 78}, {"time": 123360, "pitch": 58, "duration": 569, "velocity": 76}, {"time": 123360, "pitch": 61, "duration": 210, "velocity": 83}, {"time": 123360, "pitch": 66, "duration": 559, "velocity": 89}, {"time": 123599, "pitch": 60, "duration": 290, "velocity": 74}, {"time": 123839, "pitch": 61, "duration": 230, "velocity": 82}, {"time": 124079, "pitch": 60, "duration": 110, "velocity": 76}, {"time": 124319, "pitch": 44, "duration": 510, "velocity": 80}, {"time": 124319, "pitch": 54, "duration": 789, "velocity": 73}, {"time": 124319, "pitch": 58, "duration": 230, "velocity": 83}, {"time": 124319, "pitch": 63, "duration": 290, "velocity": 91}, {"time": 124559, "pitch": 60, "duration": 270, "velocity": 87}, {"time": 124799, "pitch": 46, "duration": 249, "velocity": 78}, {"time": 124799, "pitch": 56, "duration": 289, "velocity": 78}, {"time": 124799, "pitch": 61, "duration": 259, "velocity": 92}, {"time": 125038, "pitch": 48, "duration": 260, "velocity": 71}, {"time": 125038, "pitch": 63, "duration": 170, "velocity": 90}, {"time": 125278, "pitch": 49, "duration": 300, "velocity": 80}, {"time": 125278, "pitch": 56, "duration": 710, "velocity": 70}, {"time": 125278, "pitch": 63, "duration": 270, "velocity": 90}, {"time": 125278, "pitch": 65, "duration": 700, "velocity": 94}, {"time": 125518, "pitch": 61, "duration": 470, "velocity": 85}, {"time": 125758, "pitch": 49, "duration": 230, "velocity": 86}, {"time": 125998, "pitch": 48, "duration": 240, "velocity": 80}, {"time": 126238, "pitch": 46, "duration": 975, "velocity": 80}, {"time": 126238, "pitch": 53, "duration": 742, "velocity": 69}, {"time": 126238, "pitch": 61, "duration": 239, "velocity": 86}, {"time": 126238, "pitch": 65, "duration": 239, "velocity": 93}, {"time": 126477, "pitch": 56, "duration": 240, "velocity": 77}, {"time": 126717, "pitch": 61, "duration": 263, "velocity": 88}, {"time": 126960, "pitch": 65, "duration": 263, "velocity": 78}, {"time": 127203, "pitch": 51, "duration": 969, "velocity": 80}, {"time": 127203, "pitch": 55, "duration": 270, "velocity": 89}, {"time": 127443, "pitch": 58, "duration": 300, "velocity": 92}, {"time": 127683, "pitch": 61, "duration": 269, "velocity": 95}, {"time": 127922, "pitch": 65, "duration": 90, "velocity": 81}, {"time": 128162, "pitch": 44, "duration": 700, "velocity": 76}, {"time": 128162, "pitch": 58, "duration": 260, "velocity": 88}, {"time": 128162, "pitch": 61, "duration": 250, "velocity": 86}, {"time": 128162, "pitch": 66, "duration": 270, "velocity": 96}, {"time": 128642, "pitch": 56, "duration": 220, "velocity": 75}, {"time": 128642, "pitch": 60, "duration": 170, "velocity": 67}, {"time": 128642, "pitch": 65, "duration": 210, "velocity": 91}, {"time": 128882, "pitch": 54, "duration": 170, "velocity": 78}, {"time": 128882, "pitch": 58, "duration": 160, "velocity": 67}, {"time": 128882, "pitch": 63, "duration": 190, "velocity": 85}, {"time": 129122, "pitch": 49, "duration": 969, "velocity": 75}, {"time": 129122, "pitch": 61, "duration": 209, "velocity": 89}, {"time": 129122, "pitch": 65, "duration": 199, "velocity": 89}, {"time": 129361, "pitch": 56, "duration": 300, "velocity": 67}, {"time": 129601, "pitch": 61, "duration": 250, "velocity": 83}, {"time": 129601, "pitch": 65, "duration": 250, "velocity": 82}, {"time": 129841, "pitch": 56, "duration": 260, "velocity": 74}, {"time": 130081, "pitch": 53, "duration": 969, "velocity": 77}, {"time": 130081, "pitch": 59, "duration": 220, "velocity": 89}, {"time": 130081, "pitch": 63, "duration": 240, "velocity": 89}, {"time": 130321, "pitch": 56, "duration": 239, "velocity": 77}, {"time": 130560, "pitch": 63, "duration": 270, "velocity": 91}, {"time": 130800, "pitch": 68, "duration": 90, "velocity": 90}, {"time": 131040, "pitch": 54, "duration": 949, "velocity": 73}, {"time": 131040, "pitch": 65, "duration": 290, "velocity": 95}, {"time": 131040, "pitch": 68, "duration": 460, "velocity": 84}, {"time": 131280, "pitch": 58, "duration": 290, "velocity": 84}, {"time": 131520, "pitch": 61, "duration": 260, "velocity": 92}, {"time": 131760, "pitch": 68, "duration": 110, "velocity": 91}, {"time": 131999, "pitch": 53, "duration": 350, "velocity": 70}, {"time": 131999, "pitch": 63, "duration": 290, "velocity": 95}, {"time": 131999, "pitch": 68, "duration": 330, "velocity": 90}, {"time": 132479, "pitch": 52, "duration": 290, "velocity": 80}, {"time": 132479, "pitch": 58, "duration": 290, "velocity": 70}, {"time": 132479, "pitch": 61, "duration": 280, "velocity": 81}, {"time": 132479, "pitch": 67, "duration": 250, "velocity": 92}, {"time": 132959, "pitch": 51, "duration": 961, "velocity": 79}, {"time": 132959, "pitch": 61, "duration": 220, "velocity": 89}, {"time": 132959, "pitch": 66, "duration": 220, "velocity": 94}, {"time": 133199, "pitch": 58, "duration": 279, "velocity": 88}, {"time": 133438, "pitch": 60, "duration": 281, "velocity": 85}, {"time": 133679, "pitch": 61, "duration": 160, "velocity": 87}, {"time": 133920, "pitch": 50, "duration": 822, "velocity": 75}, {"time": 133920, "pitch": 61, "duration": 251, "velocity": 86}, {"time": 133920, "pitch": 66, "duration": 251, "velocity": 77}, {"time": 134161, "pitch": 57, "duration": 281, "velocity": 84}, {"time": 134402, "pitch": 59, "duration": 270, "velocity": 82}, {"time": 134642, "pitch": 61, "duration": 110, "velocity": 76}, {"time": 134881, "pitch": 49, "duration": 3558, "velocity": 80}, {"time": 134881, "pitch": 56, "duration": 3538, "velocity": 79}, {"time": 134881, "pitch": 60, "duration": 3558, "velocity": 70}, {"time": 134881, "pitch": 63, "duration": 3558, "velocity": 90}, {"time": 134881, "pitch": 65, "duration": 3548, "velocity": 88}, {"time": 19197, "pitch": 43, "duration": 466, "velocity": 110}, {"time": 19683, "pitch": 36, "duration": 619, "velocity": 116}, {"time": 20402, "pitch": 36, "duration": 180, "velocity": 113}, {"time": 20642, "pitch": 36, "duration": 919, "velocity": 116}, {"time": 21601, "pitch": 41, "duration": 600, "velocity": 120}, {"time": 22321, "pitch": 41, "duration": 200, "velocity": 117}, {"time": 22561, "pitch": 40, "duration": 459, "velocity": 119}, {"time": 23040, "pitch": 39, "duration": 460, "velocity": 117}, {"time": 23520, "pitch": 38, "duration": 929, "velocity": 114}, {"time": 24479, "pitch": 37, "duration": 940, "velocity": 112}, {"time": 25439, "pitch": 36, "duration": 629, "velocity": 113}, {"time": 26158, "pitch": 36, "duration": 160, "velocity": 112}, {"time": 26398, "pitch": 36, "duration": 420, "velocity": 114}, {"time": 26877, "pitch": 36, "duration": 220, "velocity": 111}, {"time": 27117, "pitch": 35, "duration": 220, "velocity": 109}, {"time": 27357, "pitch": 34, "duration": 223, "velocity": 115}, {"time": 27600, "pitch": 41, "duration": 213, "velocity": 106}, {"time": 27843, "pitch": 48, "duration": 220, "velocity": 114}, {"time": 28083, "pitch": 46, "duration": 349, "velocity": 106}, {"time": 28562, "pitch": 43, "duration": 220, "velocity": 110}, {"time": 28802, "pitch": 45, "duration": 220, "velocity": 106}, {"time": 29042, "pitch": 50, "duration": 200, "velocity": 102}, {"time": 29282, "pitch": 34, "duration": 210, "velocity": 112}, {"time": 29522, "pitch": 41, "duration": 189, "velocity": 109}, {"time": 29761, "pitch": 48, "duration": 210, "velocity": 110}, {"time": 30001, "pitch": 46, "duration": 240, "velocity": 108}, {"time": 30481, "pitch": 43, "duration": 220, "velocity": 113}, {"time": 30721, "pitch": 45, "duration": 210, "velocity": 111}, {"time": 30961, "pitch": 50, "duration": 199, "velocity": 106}, {"time": 31200, "pitch": 34, "duration": 210, "velocity": 115}, {"time": 31440, "pitch": 41, "duration": 200, "velocity": 114}, {"time": 31680, "pitch": 48, "duration": 210, "velocity": 113}, {"time": 31920, "pitch": 46, "duration": 290, "velocity": 111}, {"time": 32400, "pitch": 43, "duration": 209, "velocity": 111}, {"time": 32639, "pitch": 45, "duration": 200, "velocity": 112}, {"time": 32879, "pitch": 50, "duration": 210, "velocity": 109}, {"time": 33119, "pitch": 34, "duration": 220, "velocity": 116}, {"time": 33359, "pitch": 41, "duration": 220, "velocity": 109}, {"time": 33599, "pitch": 48, "duration": 219, "velocity": 113}, {"time": 33838, "pitch": 46, "duration": 220, "velocity": 106}, {"time": 34318, "pitch": 43, "duration": 220, "velocity": 107}, {"time": 34558, "pitch": 45, "duration": 220, "velocity": 110}, {"time": 34798, "pitch": 50, "duration": 220, "velocity": 104}, {"time": 35038, "pitch": 34, "duration": 219, "velocity": 116}, {"time": 35277, "pitch": 41, "duration": 220, "velocity": 114}, {"time": 35517, "pitch": 48, "duration": 223, "velocity": 116}, {"time": 35760, "pitch": 46, "duration": 223, "velocity": 111}, {"time": 36243, "pitch": 43, "duration": 220, "velocity": 111}, {"time": 36483, "pitch": 45, "duration": 219, "velocity": 116}, {"time": 36722, "pitch": 50, "duration": 220, "velocity": 113}, {"time": 36962, "pitch": 34, "duration": 220, "velocity": 120}, {"time": 37202, "pitch": 41, "duration": 220, "velocity": 114}, {"time": 37442, "pitch": 48, "duration": 220, "velocity": 109}, {"time": 37682, "pitch": 46, "duration": 230, "velocity": 111}, {"time": 38161, "pitch": 43, "duration": 220, "velocity": 112}, {"time": 38401, "pitch": 45, "duration": 220, "velocity": 115}, {"time": 38641, "pitch": 50, "duration": 220, "velocity": 110}, {"time": 38881, "pitch": 34, "duration": 220, "velocity": 114}, {"time": 39121, "pitch": 41, "duration": 219, "velocity": 110}, {"time": 39360, "pitch": 48, "duration": 220, "velocity": 113}, {"time": 39600, "pitch": 46, "duration": 250, "velocity": 110}, {"time": 40080, "pitch": 43, "duration": 220, "velocity": 110}, {"time": 40320, "pitch": 45, "duration": 220, "velocity": 113}, {"time": 40560, "pitch": 50, "duration": 219, "velocity": 110}, {"time": 40799, "pitch": 38, "duration": 1309, "velocity": 121}, {"time": 42238, "pitch": 37, "duration": 440, "velocity": 117}, {"time": 42718, "pitch": 36, "duration": 1303, "velocity": 120}, {"time": 44163, "pitch": 48, "duration": 440, "velocity": 111}, {"time": 44643, "pitch": 41, "duration": 629, "velocity": 116}, {"time": 45362, "pitch": 41, "duration": 220, "velocity": 113}, {"time": 45602, "pitch": 40, "duration": 659, "velocity": 118}, {"time": 46321, "pitch": 40, "duration": 220, "velocity": 115}, {"time": 46561, "pitch": 38, "duration": 660, "velocity": 116}, {"time": 47281, "pitch": 38, "duration": 220, "velocity": 110}, {"time": 47521, "pitch": 31, "duration": 459, "velocity": 115}, {"time": 48000, "pitch": 33, "duration": 220, "velocity": 110}, {"time": 48240, "pitch": 35, "duration": 220, "velocity": 114}, {"time": 48480, "pitch": 36, "duration": 689, "velocity": 112}, {"time": 49199, "pitch": 35, "duration": 220, "velocity": 111}, {"time": 49439, "pitch": 33, "duration": 580, "velocity": 114}, {"time": 50159, "pitch": 33, "duration": 219, "velocity": 112}, {"time": 50398, "pitch": 38, "duration": 660, "velocity": 114}, {"time": 51118, "pitch": 38, "duration": 220, "velocity": 104}, {"time": 51358, "pitch": 43, "duration": 429, "velocity": 114}, {"time": 51837, "pitch": 31, "duration": 450, "velocity": 112}, {"time": 52317, "pitch": 36, "duration": 626, "velocity": 113}, {"time": 53043, "pitch": 36, "duration": 219, "velocity": 110}, {"time": 53282, "pitch": 36, "duration": 920, "velocity": 112}, {"time": 54242, "pitch": 41, "duration": 659, "velocity": 115}, {"time": 54961, "pitch": 41, "duration": 220, "velocity": 112}, {"time": 55201, "pitch": 40, "duration": 450, "velocity": 116}, {"time": 55681, "pitch": 39, "duration": 459, "velocity": 115}, {"time": 56160, "pitch": 38, "duration": 680, "velocity": 117}, {"time": 56880, "pitch": 38, "duration": 220, "velocity": 112}, {"time": 57120, "pitch": 37, "duration": 909, "velocity": 116}, {"time": 58079, "pitch": 36, "duration": 679, "velocity": 114}, {"time": 58798, "pitch": 36, "duration": 220, "velocity": 108}, {"time": 59038, "pitch": 36, "duration": 450, "velocity": 116}, {"time": 59518, "pitch": 36, "duration": 220, "velocity": 114}, {"time": 59758, "pitch": 35, "duration": 220, "velocity": 111}, {"time": 59998, "pitch": 34, "duration": 219, "velocity": 116}, {"time": 60237, "pitch": 41, "duration": 220, "velocity": 112}, {"time": 60477, "pitch": 48, "duration": 223, "velocity": 115}, {"time": 60720, "pitch": 46, "duration": 253, "velocity": 111}, {"time": 61203, "pitch": 43, "duration": 220, "velocity": 111}, {"time": 61443, "pitch": 45, "duration": 219, "velocity": 114}, {"time": 61682, "pitch": 50, "duration": 220, "velocity": 111}, {"time": 61922, "pitch": 34, "duration": 230, "velocity": 113}, {"time": 62162, "pitch": 41, "duration": 220, "velocity": 106}, {"time": 62402, "pitch": 48, "duration": 220, "velocity": 110}, {"time": 62642, "pitch": 46, "duration": 219, "velocity": 108}, {"time": 63121, "pitch": 43, "duration": 220, "velocity": 114}, {"time": 63361, "pitch": 45, "duration": 220, "velocity": 113}, {"time": 63601, "pitch": 50, "duration": 220, "velocity": 110}, {"time": 63841, "pitch": 34, "duration": 220, "velocity": 117}, {"time": 64081, "pitch": 41, "duration": 219, "velocity": 112}, {"time": 64320, "pitch": 48, "duration": 220, "velocity": 116}, {"time": 64560, "pitch": 46, "duration": 250, "velocity": 110}, {"time": 65040, "pitch": 43, "duration": 220, "velocity": 111}, {"time": 65280, "pitch": 45, "duration": 220, "velocity": 116}, {"time": 65520, "pitch": 50, "duration": 219, "velocity": 113}, {"time": 65759, "pitch": 34, "duration": 220, "velocity": 113}, {"time": 65999, "pitch": 41, "duration": 220, "velocity": 110}, {"time": 66239, "pitch": 48, "duration": 220, "velocity": 113}, {"time": 66479, "pitch": 46, "duration": 240, "velocity": 107}, {"time": 66958, "pitch": 43, "duration": 220, "velocity": 113}, {"time": 67198, "pitch": 45, "duration": 220, "velocity": 113}, {"time": 67438, "pitch": 50, "duration": 220, "velocity": 111}, {"time": 67678, "pitch": 34, "duration": 220, "velocity": 115}, {"time": 67918, "pitch": 41, "duration": 220, "velocity": 112}, {"time": 68158, "pitch": 48, "duration": 219, "velocity": 116}, {"time": 68397, "pitch": 46, "duration": 301, "velocity": 106}, {"time": 68880, "pitch": 43, "duration": 223, "velocity": 115}, {"time": 69123, "pitch": 45, "duration": 220, "velocity": 113}, {"time": 69363, "pitch": 50, "duration": 220, "velocity": 108}, {"time": 69603, "pitch": 34, "duration": 219, "velocity": 121}, {"time": 69842, "pitch": 41, "duration": 220, "velocity": 114}, {"time": 70082, "pitch": 48, "duration": 220, "velocity": 117}, {"time": 70322, "pitch": 46, "duration": 260, "velocity": 114}, {"time": 70802, "pitch": 43, "duration": 220, "velocity": 116}, {"time": 71042, "pitch": 45, "duration": 219, "velocity": 115}, {"time": 71281, "pitch": 50, "duration": 220, "velocity": 112}, {"time": 71761, "pitch": 55, "duration": 220, "velocity": 115}, {"time": 72001, "pitch": 53, "duration": 220, "velocity": 113}, {"time": 72241, "pitch": 48, "duration": 269, "velocity": 109}, {"time": 72720, "pitch": 52, "duration": 220, "velocity": 108}, {"time": 72960, "pitch": 50, "duration": 220, "velocity": 113}, {"time": 73200, "pitch": 47, "duration": 220, "velocity": 111}, {"time": 73680, "pitch": 52, "duration": 219, "velocity": 112}, {"time": 73919, "pitch": 50, "duration": 220, "velocity": 109}, {"time": 74159, "pitch": 45, "duration": 220, "velocity": 106}, {"time": 74399, "pitch": 38, "duration": 440, "velocity": 109}, {"time": 74879, "pitch": 37, "duration": 459, "velocity": 108}, {"time": 75358, "pitch": 36, "duration": 3184, "velocity": 110}, {"time": 78722, "pitch": 48, "duration": 470, "velocity": 113}, {"time": 79202, "pitch": 41, "duration": 599, "velocity": 117}, {"time": 79921, "pitch": 41, "duration": 220, "velocity": 112}, {"time": 80161, "pitch": 41, "duration": 959, "velocity": 116}, {"time": 81120, "pitch": 40, "duration": 610, "velocity": 110}, {"time": 81840, "pitch": 40, "duration": 220, "velocity": 105}, {"time": 82080, "pitch": 33, "duration": 909, "velocity": 114}, {"time": 83039, "pitch": 38, "duration": 589, "velocity": 115}, {"time": 83758, "pitch": 38, "duration": 220, "velocity": 112}, {"time": 83998, "pitch": 40, "duration": 650, "velocity": 115}, {"time": 84718, "pitch": 40, "duration": 219, "velocity": 111}, {"time": 84957, "pitch": 41, "duration": 632, "velocity": 115}, {"time": 85680, "pitch": 41, "duration": 223, "velocity": 110}, {"time": 85923, "pitch": 40, "duration": 879, "velocity": 115}, {"time": 86882, "pitch": 41, "duration": 650, "velocity": 121}, {"time": 87602, "pitch": 41, "duration": 219, "velocity": 115}, {"time": 87841, "pitch": 41, "duration": 960, "velocity": 120}, {"time": 88801, "pitch": 40, "duration": 659, "velocity": 116}, {"time": 89520, "pitch": 40, "duration": 220, "velocity": 110}, {"time": 89760, "pitch": 33, "duration": 899, "velocity": 115}, {"time": 90719, "pitch": 38, "duration": 660, "velocity": 114}, {"time": 91439, "pitch": 38, "duration": 220, "velocity": 111}, {"time": 91679, "pitch": 40, "duration": 649, "velocity": 117}, {"time": 92398, "pitch": 40, "duration": 220, "velocity": 112}, {"time": 92638, "pitch": 41, "duration": 609, "velocity": 114}, {"time": 93357, "pitch": 41, "duration": 220, "velocity": 109}, {"time": 93597, "pitch": 40, "duration": 966, "velocity": 115}, {"time": 102243, "pitch": 34, "duration": 3767, "velocity": 121}, {"time": 113761, "pitch": 36, "duration": 629, "velocity": 114}, {"time": 114480, "pitch": 36, "duration": 220, "velocity": 108}, {"time": 114720, "pitch": 36, "duration": 909, "velocity": 114}, {"time": 115679, "pitch": 41, "duration": 670, "velocity": 116}, {"time": 116399, "pitch": 41, "duration": 220, "velocity": 108}, {"time": 116639, "pitch": 40, "duration": 449, "velocity": 115}, {"time": 117118, "pitch": 39, "duration": 440, "velocity": 114}, {"time": 117598, "pitch": 38, "duration": 679, "velocity": 112}, {"time": 118317, "pitch": 38, "duration": 220, "velocity": 108}, {"time": 118557, "pitch": 37, "duration": 2864, "velocity": 115}, {"time": 121441, "pitch": 54, "duration": 939, "velocity": 100}, {"time": 122400, "pitch": 53, "duration": 940, "velocity": 100}, {"time": 123360, "pitch": 51, "duration": 939, "velocity": 100}, {"time": 124319, "pitch": 44, "duration": 939, "velocity": 100}, {"time": 125278, "pitch": 37, "duration": 700, "velocity": 100}, {"time": 125998, "pitch": 36, "duration": 220, "velocity": 100}, {"time": 126238, "pitch": 34, "duration": 945, "velocity": 100}, {"time": 127203, "pitch": 39, "duration": 939, "velocity": 100}, {"time": 128162, "pitch": 32, "duration": 940, "velocity": 100}, {"time": 129122, "pitch": 49, "duration": 1898, "velocity": 100}, {"time": 131040, "pitch": 42, "duration": 939, "velocity": 100}, {"time": 131999, "pitch": 41, "duration": 460, "velocity": 100}, {"time": 132479, "pitch": 40, "duration": 460, "velocity": 100}, {"time": 132959, "pitch": 39, "duration": 940, "velocity": 100}, {"time": 133920, "pitch": 38, "duration": 941, "velocity": 100}, {"time": 134881, "pitch": 37, "duration": 3838, "velocity": 100}, {"time": 8159, "pitch": 53, "duration": 3833, "velocity": 88}, {"time": 8169, "pitch": 57, "duration": 3813, "velocity": 96}, {"time": 8179, "pitch": 60, "duration": 3803, "velocity": 94}, {"time": 8189, "pitch": 64, "duration": 3813, "velocity": 107}, {"time": 19683, "pitch": 48, "duration": 439, "velocity": 100}, {"time": 19923, "pitch": 55, "duration": 239, "velocity": 92}, {"time": 20162, "pitch": 60, "duration": 500, "velocity": 87}, {"time": 20162, "pitch": 64, "duration": 440, "velocity": 95}, {"time": 20402, "pitch": 48, "duration": 240, "velocity": 100}, {"time": 20642, "pitch": 48, "duration": 440, "velocity": 104}, {"time": 20882, "pitch": 55, "duration": 240, "velocity": 91}, {"time": 21122, "pitch": 58, "duration": 479, "velocity": 91}, {"time": 21122, "pitch": 60, "duration": 479, "velocity": 82}, {"time": 21122, "pitch": 64, "duration": 479, "velocity": 100}, {"time": 21362, "pitch": 48, "duration": 239, "velocity": 100}, {"time": 21601, "pitch": 53, "duration": 420, "velocity": 93}, {"time": 21841, "pitch": 57, "duration": 280, "velocity": 87}, {"time": 22081, "pitch": 60, "duration": 540, "velocity": 85}, {"time": 22081, "pitch": 64, "duration": 500, "velocity": 93}, {"time": 22321, "pitch": 53, "duration": 420, "velocity": 93}, {"time": 22561, "pitch": 52, "duration": 459, "velocity": 93}, {"time": 22800, "pitch": 55, "duration": 280, "velocity": 86}, {"time": 23040, "pitch": 57, "duration": 470, "velocity": 83}, {"time": 23040, "pitch": 60, "duration": 470, "velocity": 94}, {"time": 23520, "pitch": 50, "duration": 460, "velocity": 93}, {"time": 23760, "pitch": 57, "duration": 300, "velocity": 88}, {"time": 24000, "pitch": 60, "duration": 499, "velocity": 80}, {"time": 24000, "pitch": 65, "duration": 449, "velocity": 92}, {"time": 24239, "pitch": 50, "duration": 240, "velocity": 93}, {"time": 24479, "pitch": 49, "duration": 470, "velocity": 95}, {"time": 24719, "pitch": 56, "duration": 260, "velocity": 84}, {"time": 24959, "pitch": 61, "duration": 480, "velocity": 89}, {"time": 24959, "pitch": 65, "duration": 480, "velocity": 97}, {"time": 25439, "pitch": 48, "duration": 699, "velocity": 99}, {"time": 25678, "pitch": 55, "duration": 290, "velocity": 94}, {"time": 25918, "pitch": 60, "duration": 310, "velocity": 86}, {"time": 26158, "pitch": 62, "duration": 230, "velocity": 93}, {"time": 26358, "pitch": 48, "duration": 939, "velocity": 77}, {"time": 26368, "pitch": 55, "duration": 869, "velocity": 82}, {"time": 26378, "pitch": 60, "duration": 809, "velocity": 72}, {"time": 26388, "pitch": 64, "duration": 819, "velocity": 94}, {"time": 27357, "pitch": 46, "duration": 486, "velocity": 93}, {"time": 27600, "pitch": 53, "duration": 243, "velocity": 87}, {"time": 27843, "pitch": 46, "duration": 430, "velocity": 92}, {"time": 27843, "pitch": 53, "duration": 410, "velocity": 81}, {"time": 27853, "pitch": 57, "duration": 430, "velocity": 87}, {"time": 27863, "pitch": 62, "duration": 400, "velocity": 99}, {"time": 28322, "pitch": 45, "duration": 480, "velocity": 95}, {"time": 28562, "pitch": 52, "duration": 240, "velocity": 89}, {"time": 28802, "pitch": 45, "duration": 470, "velocity": 97}, {"time": 28802, "pitch": 52, "duration": 460, "velocity": 90}, {"time": 28812, "pitch": 55, "duration": 460, "velocity": 93}, {"time": 28822, "pitch": 60, "duration": 450, "velocity": 102}, {"time": 29282, "pitch": 46, "duration": 479, "velocity": 93}, {"time": 29522, "pitch": 53, "duration": 239, "velocity": 87}, {"time": 29761, "pitch": 46, "duration": 430, "velocity": 92}, {"time": 29761, "pitch": 53, "duration": 410, "velocity": 81}, {"time": 29771, "pitch": 57, "duration": 430, "velocity": 87}, {"time": 29781, "pitch": 62, "duration": 400, "velocity": 99}, {"time": 30241, "pitch": 45, "duration": 480, "velocity": 95}, {"time": 30481, "pitch": 52, "duration": 240, "velocity": 89}, {"time": 30721, "pitch": 45, "duration": 469, "velocity": 97}, {"time": 30721, "pitch": 52, "duration": 459, "velocity": 90}, {"time": 30731, "pitch": 55, "duration": 459, "velocity": 93}, {"time": 30741, "pitch": 60, "duration": 449, "velocity": 102}, {"time": 31200, "pitch": 46, "duration": 480, "velocity": 93}, {"time": 31440, "pitch": 53, "duration": 240, "velocity": 87}, {"time": 31680, "pitch": 46, "duration": 430, "velocity": 92}, {"time": 31680, "pitch": 53, "duration": 410, "velocity": 81}, {"time": 31690, "pitch": 57, "duration": 430, "velocity": 87}, {"time": 31700, "pitch": 62, "duration": 400, "velocity": 99}, {"time": 32160, "pitch": 45, "duration": 479, "velocity": 95}, {"time": 32400, "pitch": 52, "duration": 239, "velocity": 89}, {"time": 32639, "pitch": 45, "duration": 470, "velocity": 97}, {"time": 32639, "pitch": 52, "duration": 460, "velocity": 90}, {"time": 32649, "pitch": 55, "duration": 460, "velocity": 93}, {"time": 32659, "pitch": 60, "duration": 450, "velocity": 102}, {"time": 33119, "pitch": 46, "duration": 480, "velocity": 93}, {"time": 33359, "pitch": 53, "duration": 240, "velocity": 87}, {"time": 33599, "pitch": 46, "duration": 429, "velocity": 92}, {"time": 33599, "pitch": 53, "duration": 409, "velocity": 81}, {"time": 33609, "pitch": 57, "duration": 429, "velocity": 87}, {"time": 33619, "pitch": 62, "duration": 399, "velocity": 99}, {"time": 34078, "pitch": 45, "duration": 480, "velocity": 95}, {"time": 34318, "pitch": 52, "duration": 240, "velocity": 89}, {"time": 34558, "pitch": 45, "duration": 470, "velocity": 97}, {"time": 34558, "pitch": 52, "duration": 460, "velocity": 90}, {"time": 34568, "pitch": 55, "duration": 460, "velocity": 93}, {"time": 34578, "pitch": 60, "duration": 450, "velocity": 102}, {"time": 35038, "pitch": 46, "duration": 479, "velocity": 93}, {"time": 35277, "pitch": 53, "duration": 240, "velocity": 87}, {"time": 35517, "pitch": 46, "duration": 435, "velocity": 92}, {"time": 35517, "pitch": 53, "duration": 415, "velocity": 81}, {"time": 35527, "pitch": 57, "duration": 435, "velocity": 87}, {"time": 35537, "pitch": 62, "duration": 405, "velocity": 99}, {"time": 36003, "pitch": 45, "duration": 480, "velocity": 95}, {"time": 36243, "pitch": 52, "duration": 240, "velocity": 89}, {"time": 36483, "pitch": 45, "duration": 469, "velocity": 97}, {"time": 36483, "pitch": 52, "duration": 459, "velocity": 90}, {"time": 36493, "pitch": 55, "duration": 459, "velocity": 93}, {"time": 36503, "pitch": 60, "duration": 449, "velocity": 102}, {"time": 36962, "pitch": 46, "duration": 480, "velocity": 93}, {"time": 37202, "pitch": 53, "duration": 240, "velocity": 87}, {"time": 37442, "pitch": 46, "duration": 430, "velocity": 92}, {"time": 37442, "pitch": 53, "duration": 410, "velocity": 81}, {"time": 37452, "pitch": 57, "duration": 430, "velocity": 87}, {"time": 37462, "pitch": 62, "duration": 400, "velocity": 99}, {"time": 37922, "pitch": 45, "duration": 479, "velocity": 95}, {"time": 38161, "pitch": 52, "duration": 240, "velocity": 89}, {"time": 38401, "pitch": 45, "duration": 470, "velocity": 97}, {"time": 38401, "pitch": 52, "duration": 460, "velocity": 90}, {"time": 38411, "pitch": 55, "duration": 460, "velocity": 93}, {"time": 38421, "pitch": 60, "duration": 450, "velocity": 102}, {"time": 38881, "pitch": 46, "duration": 479, "velocity": 93}, {"time": 39121, "pitch": 53, "duration": 239, "velocity": 87}, {"time": 39360, "pitch": 46, "duration": 430, "velocity": 92}, {"time": 39360, "pitch": 53, "duration": 410, "velocity": 81}, {"time": 39370, "pitch": 57, "duration": 430, "velocity": 87}, {"time": 39380, "pitch": 62, "duration": 400, "velocity": 99}, {"time": 39840, "pitch": 45, "duration": 480, "velocity": 95}, {"time": 40080, "pitch": 52, "duration": 240, "velocity": 89}, {"time": 40320, "pitch": 45, "duration": 469, "velocity": 97}, {"time": 40320, "pitch": 52, "duration": 459, "velocity": 90}, {"time": 40330, "pitch": 55, "duration": 459, "velocity": 93}, {"time": 40340, "pitch": 60, "duration": 449, "velocity": 102}, {"time": 40799, "pitch": 50, "duration": 1369, "velocity": 95}, {"time": 40799, "pitch": 57, "duration": 1349, "velocity": 82}, {"time": 40809, "pitch": 60, "duration": 1379, "velocity": 90}, {"time": 40819, "pitch": 65, "duration": 1349, "velocity": 103}, {"time": 42238, "pitch": 49, "duration": 420, "velocity": 90}, {"time": 42238, "pitch": 53, "duration": 410, "velocity": 83}, {"time": 42238, "pitch": 56, "duration": 420, "velocity": 85}, {"time": 42238, "pitch": 63, "duration": 440, "velocity": 99}, {"time": 42678, "pitch": 48, "duration": 1945, "velocity": 91}, {"time": 42728, "pitch": 52, "duration": 1855, "velocity": 88}, {"time": 42738, "pitch": 59, "duration": 1795, "velocity": 84}, {"time": 42748, "pitch": 62, "duration": 1745, "velocity": 95}, {"time": 44643, "pitch": 53, "duration": 419, "velocity": 93}, {"time": 44883, "pitch": 57, "duration": 279, "velocity": 87}, {"time": 45122, "pitch": 60, "duration": 540, "velocity": 85}, {"time": 45122, "pitch": 64, "duration": 500, "velocity": 93}, {"time": 45362, "pitch": 53, "duration": 420, "velocity": 93}, {"time": 45602, "pitch": 52, "duration": 460, "velocity": 93}, {"time": 45842, "pitch": 55, "duration": 280, "velocity": 86}, {"time": 46082, "pitch": 60, "duration": 469, "velocity": 83}, {"time": 46082, "pitch": 64, "duration": 469, "velocity": 94}, {"time": 46321, "pitch": 52, "duration": 220, "velocity": 93}, {"time": 46561, "pitch": 50, "duration": 460, "velocity": 93}, {"time": 46801, "pitch": 57, "duration": 300, "velocity": 88}, {"time": 47041, "pitch": 60, "duration": 500, "velocity": 80}, {"time": 47041, "pitch": 65, "duration": 450, "velocity": 92}, {"time": 47281, "pitch": 50, "duration": 240, "velocity": 93}, {"time": 47521, "pitch": 43, "duration": 469, "velocity": 95}, {"time": 47760, "pitch": 59, "duration": 220, "velocity": 89}, {"time": 47760, "pitch": 67, "duration": 220, "velocity": 97}, {"time": 48000, "pitch": 45, "duration": 220, "velocity": 97}, {"time": 48240, "pitch": 47, "duration": 220, "velocity": 97}, {"time": 48480, "pitch": 48, "duration": 440, "velocity": 100}, {"time": 48720, "pitch": 55, "duration": 240, "velocity": 92}, {"time": 48960, "pitch": 60, "duration": 499, "velocity": 87}, {"time": 48960, "pitch": 64, "duration": 439, "velocity": 95}, {"time": 49199, "pitch": 47, "duration": 240, "velocity": 100}, {"time": 49439, "pitch": 45, "duration": 440, "velocity": 104}, {"time": 49679, "pitch": 52, "duration": 240, "velocity": 91}, {"time": 49919, "pitch": 57, "duration": 479, "velocity": 91}, {"time": 49919, "pitch": 60, "duration": 479, "velocity": 82}, {"time": 49919, "pitch": 64, "duration": 479, "velocity": 100}, {"time": 50159, "pitch": 45, "duration": 239, "velocity": 100}, {"time": 50398, "pitch": 50, "duration": 460, "velocity": 93}, {"time": 50638, "pitch": 57, "duration": 300, "velocity": 88}, {"time": 50878, "pitch": 60, "duration": 500, "velocity": 80}, {"time": 50878, "pitch": 66, "duration": 450, "velocity": 92}, {"time": 51118, "pitch": 50, "duration": 240, "velocity": 93}, {"time": 51358, "pitch": 43, "duration": 469, "velocity": 95}, {"time": 51598, "pitch": 55, "duration": 259, "velocity": 84}, {"time": 51837, "pitch": 60, "duration": 480, "velocity": 89}, {"time": 51837, "pitch": 65, "duration": 480, "velocity": 97}, {"time": 52077, "pitch": 43, "duration": 220, "velocity": 95}, {"time": 52317, "pitch": 48, "duration": 445, "velocity": 100}, {"time": 52560, "pitch": 55, "duration": 243, "velocity": 92}, {"time": 52803, "pitch": 60, "duration": 499, "velocity": 87}, {"time": 52803, "pitch": 64, "duration": 439, "velocity": 95}, {"time": 53043, "pitch": 48, "duration": 239, "velocity": 100}, {"time": 53282, "pitch": 48, "duration": 440, "velocity": 104}, {"time": 53522, "pitch": 55, "duration": 240, "velocity": 91}, {"time": 53762, "pitch": 58, "duration": 480, "velocity": 91}, {"time": 53762, "pitch": 60, "duration": 480, "velocity": 82}, {"time": 53762, "pitch": 64, "duration": 480, "velocity": 100}, {"time": 54002, "pitch": 48, "duration": 240, "velocity": 100}, {"time": 54242, "pitch": 53, "duration": 419, "velocity": 93}, {"time": 54482, "pitch": 57, "duration": 279, "velocity": 87}, {"time": 54721, "pitch": 60, "duration": 540, "velocity": 85}, {"time": 54721, "pitch": 64, "duration": 500, "velocity": 93}, {"time": 54961, "pitch": 53, "duration": 420, "velocity": 93}, {"time": 55201, "pitch": 52, "duration": 460, "velocity": 93}, {"time": 55441, "pitch": 55, "duration": 280, "velocity": 86}, {"time": 55681, "pitch": 57, "duration": 469, "velocity": 83}, {"time": 55681, "pitch": 60, "duration": 469, "velocity": 94}, {"time": 56160, "pitch": 50, "duration": 460, "velocity": 93}, {"time": 56400, "pitch": 57, "duration": 300, "velocity": 88}, {"time": 56640, "pitch": 60, "duration": 500, "velocity": 80}, {"time": 56640, "pitch": 65, "duration": 450, "velocity": 92}, {"time": 56880, "pitch": 50, "duration": 240, "velocity": 93}, {"time": 57120, "pitch": 49, "duration": 469, "velocity": 95}, {"time": 57359, "pitch": 56, "duration": 260, "velocity": 84}, {"time": 57599, "pitch": 61, "duration": 480, "velocity": 89}, {"time": 57599, "pitch": 65, "duration": 480, "velocity": 97}, {"time": 58079, "pitch": 48, "duration": 699, "velocity": 99}, {"time": 58319, "pitch": 55, "duration": 290, "velocity": 94}, {"time": 58559, "pitch": 60, "duration": 309, "velocity": 86}, {"time": 58798, "pitch": 62, "duration": 230, "velocity": 93}, {"time": 58998, "pitch": 48, "duration": 940, "velocity": 77}, {"time": 59008, "pitch": 55, "duration": 870, "velocity": 82}, {"time": 59018, "pitch": 60, "duration": 810, "velocity": 72}, {"time": 59028, "pitch": 64, "duration": 820, "velocity": 94}, {"time": 59998, "pitch": 46, "duration": 479, "velocity": 93}, {"time": 60237, "pitch": 53, "duration": 240, "velocity": 87}, {"time": 60477, "pitch": 46, "duration": 435, "velocity": 92}, {"time": 60477, "pitch": 53, "duration": 415, "velocity": 81}, {"time": 60487, "pitch": 57, "duration": 435, "velocity": 87}, {"time": 60497, "pitch": 62, "duration": 405, "velocity": 99}, {"time": 60963, "pitch": 45, "duration": 480, "velocity": 95}, {"time": 61203, "pitch": 52, "duration": 240, "velocity": 89}, {"time": 61443, "pitch": 45, "duration": 469, "velocity": 97}, {"time": 61443, "pitch": 52, "duration": 459, "velocity": 90}, {"time": 61453, "pitch": 55, "duration": 459, "velocity": 93}, {"time": 61463, "pitch": 60, "duration": 449, "velocity": 102}, {"time": 61922, "pitch": 46, "duration": 480, "velocity": 93}, {"time": 62162, "pitch": 53, "duration": 240, "velocity": 87}, {"time": 62402, "pitch": 46, "duration": 430, "velocity": 92}, {"time": 62402, "pitch": 53, "duration": 410, "velocity": 81}, {"time": 62412, "pitch": 57, "duration": 429, "velocity": 87}, {"time": 62422, "pitch": 62, "duration": 400, "velocity": 99}, {"time": 62881, "pitch": 45, "duration": 480, "velocity": 95}, {"time": 63121, "pitch": 52, "duration": 240, "velocity": 89}, {"time": 63361, "pitch": 45, "duration": 470, "velocity": 97}, {"time": 63361, "pitch": 52, "duration": 460, "velocity": 90}, {"time": 63371, "pitch": 55, "duration": 460, "velocity": 93}, {"time": 63381, "pitch": 60, "duration": 450, "velocity": 102}, {"time": 63841, "pitch": 46, "duration": 479, "velocity": 93}, {"time": 64081, "pitch": 53, "duration": 239, "velocity": 87}, {"time": 64320, "pitch": 46, "duration": 430, "velocity": 92}, {"time": 64320, "pitch": 53, "duration": 410, "velocity": 81}, {"time": 64330, "pitch": 57, "duration": 430, "velocity": 87}, {"time": 64340, "pitch": 62, "duration": 400, "velocity": 99}, {"time": 64800, "pitch": 45, "duration": 480, "velocity": 95}, {"time": 65040, "pitch": 52, "duration": 240, "velocity": 89}, {"time": 65280, "pitch": 45, "duration": 469, "velocity": 97}, {"time": 65280, "pitch": 52, "duration": 459, "velocity": 90}, {"time": 65290, "pitch": 55, "duration": 459, "velocity": 93}, {"time": 65300, "pitch": 60, "duration": 449, "velocity": 102}, {"time": 65759, "pitch": 46, "duration": 480, "velocity": 93}, {"time": 65999, "pitch": 53, "duration": 240, "velocity": 87}, {"time": 66239, "pitch": 46, "duration": 430, "velocity": 92}, {"time": 66239, "pitch": 53, "duration": 410, "velocity": 81}, {"time": 66249, "pitch": 57, "duration": 430, "velocity": 87}, {"time": 66259, "pitch": 62, "duration": 400, "velocity": 99}, {"time": 66719, "pitch": 45, "duration": 479, "velocity": 95}, {"time": 66958, "pitch": 52, "duration": 240, "velocity": 89}, {"time": 67198, "pitch": 45, "duration": 470, "velocity": 97}, {"time": 67198, "pitch": 52, "duration": 460, "velocity": 90}, {"time": 67208, "pitch": 55, "duration": 460, "velocity": 93}, {"time": 67218, "pitch": 60, "duration": 450, "velocity": 102}, {"time": 67678, "pitch": 46, "duration": 480, "velocity": 93}, {"time": 67918, "pitch": 53, "duration": 240, "velocity": 87}, {"time": 68158, "pitch": 46, "duration": 429, "velocity": 92}, {"time": 68158, "pitch": 53, "duration": 409, "velocity": 81}, {"time": 68168, "pitch": 57, "duration": 429, "velocity": 87}, {"time": 68178, "pitch": 62, "duration": 399, "velocity": 99}, {"time": 68637, "pitch": 45, "duration": 486, "velocity": 95}, {"time": 68880, "pitch": 52, "duration": 243, "velocity": 89}, {"time": 69123, "pitch": 45, "duration": 470, "velocity": 97}, {"time": 69123, "pitch": 52, "duration": 460, "velocity": 90}, {"time": 69133, "pitch": 55, "duration": 460, "velocity": 93}, {"time": 69143, "pitch": 60, "duration": 450, "velocity": 102}, {"time": 69603, "pitch": 46, "duration": 479, "velocity": 93}, {"time": 69842, "pitch": 53, "duration": 240, "velocity": 87}, {"time": 70082, "pitch": 46, "duration": 430, "velocity": 92}, {"time": 70082, "pitch": 53, "duration": 410, "velocity": 81}, {"time": 70092, "pitch": 57, "duration": 430, "velocity": 87}, {"time": 70102, "pitch": 62, "duration": 400, "velocity": 99}, {"time": 70562, "pitch": 45, "duration": 480, "velocity": 95}, {"time": 70802, "pitch": 52, "duration": 240, "velocity": 89}, {"time": 71042, "pitch": 45, "duration": 469, "velocity": 97}, {"time": 71042, "pitch": 52, "duration": 459, "velocity": 90}, {"time": 71052, "pitch": 55, "duration": 459, "velocity": 93}, {"time": 71062, "pitch": 60, "duration": 449, "velocity": 102}, {"time": 71521, "pitch": 53, "duration": 480, "velocity": 93}, {"time": 71761, "pitch": 57, "duration": 240, "velocity": 87}, {"time": 72001, "pitch": 57, "duration": 509, "velocity": 81}, {"time": 72011, "pitch": 60, "duration": 529, "velocity": 87}, {"time": 72021, "pitch": 64, "duration": 499, "velocity": 99}, {"time": 72481, "pitch": 52, "duration": 469, "velocity": 95}, {"time": 72720, "pitch": 55, "duration": 240, "velocity": 89}, {"time": 72960, "pitch": 52, "duration": 470, "velocity": 97}, {"time": 72960, "pitch": 55, "duration": 460, "velocity": 90}, {"time": 72970, "pitch": 59, "duration": 460, "velocity": 93}, {"time": 72980, "pitch": 62, "duration": 450, "velocity": 102}, {"time": 73440, "pitch": 50, "duration": 1259, "velocity": 87}, {"time": 73440, "pitch": 53, "duration": 1279, "velocity": 83}, {"time": 73450, "pitch": 57, "duration": 1269, "velocity": 92}, {"time": 73460, "pitch": 60, "duration": 1269, "velocity": 103}, {"time": 74879, "pitch": 49, "duration": 429, "velocity": 88}, {"time": 74879, "pitch": 53, "duration": 389, "velocity": 78}, {"time": 74889, "pitch": 56, "duration": 399, "velocity": 95}, {"time": 74899, "pitch": 60, "duration": 399, "velocity": 105}, {"time": 75358, "pitch": 48, "duration": 3684, "velocity": 89}, {"time": 75368, "pitch": 52, "duration": 3664, "velocity": 80}, {"time": 75378, "pitch": 55, "duration": 3654, "velocity": 89}, {"time": 75388, "pitch": 60, "duration": 3654, "velocity": 100}, {"time": 79202, "pitch": 41, "duration": 899, "velocity": 93}, {"time": 79202, "pitch": 64, "duration": 899, "velocity": 93}, {"time": 79441, "pitch": 53, "duration": 280, "velocity": 87}, {"time": 79681, "pitch": 57, "duration": 480, "velocity": 93}, {"time": 79921, "pitch": 53, "duration": 240, "velocity": 93}, {"time": 80161, "pitch": 41, "duration": 899, "velocity": 93}, {"time": 80161, "pitch": 67, "duration": 899, "velocity": 93}, {"time": 80401, "pitch": 55, "duration": 280, "velocity": 87}, {"time": 80641, "pitch": 59, "duration": 479, "velocity": 93}, {"time": 80880, "pitch": 55, "duration": 240, "velocity": 93}, {"time": 81120, "pitch": 40, "duration": 900, "velocity": 93}, {"time": 81120, "pitch": 67, "duration": 480, "velocity": 93}, {"time": 81360, "pitch": 55, "duration": 280, "velocity": 87}, {"time": 81600, "pitch": 59, "duration": 480, "velocity": 93}, {"time": 81840, "pitch": 67, "duration": 240, "velocity": 93}, {"time": 82080, "pitch": 45, "duration": 899, "velocity": 93}, {"time": 82080, "pitch": 65, "duration": 899, "velocity": 93}, {"time": 82319, "pitch": 57, "duration": 280, "velocity": 87}, {"time": 82559, "pitch": 64, "duration": 480, "velocity": 93}, {"time": 82799, "pitch": 57, "duration": 240, "velocity": 93}, {"time": 83039, "pitch": 50, "duration": 899, "velocity": 93}, {"time": 83039, "pitch": 65, "duration": 479, "velocity": 93}, {"time": 83279, "pitch": 57, "duration": 279, "velocity": 87}, {"time": 83518, "pitch": 60, "duration": 480, "velocity": 93}, {"time": 83758, "pitch": 57, "duration": 240, "velocity": 93}, {"time": 83998, "pitch": 40, "duration": 899, "velocity": 93}, {"time": 83998, "pitch": 67, "duration": 899, "velocity": 93}, {"time": 84238, "pitch": 59, "duration": 280, "velocity": 87}, {"time": 84478, "pitch": 62, "duration": 479, "velocity": 93}, {"time": 84718, "pitch": 59, "duration": 239, "velocity": 93}, {"time": 84957, "pitch": 53, "duration": 905, "velocity": 93}, {"time": 84957, "pitch": 69, "duration": 480, "velocity": 93}, {"time": 85197, "pitch": 60, "duration": 281, "velocity": 87}, {"time": 85437, "pitch": 64, "duration": 486, "velocity": 93}, {"time": 85680, "pitch": 60, "duration": 243, "velocity": 93}, {"time": 85923, "pitch": 40, "duration": 899, "velocity": 93}, {"time": 86043, "pitch": 62, "duration": 479, "velocity": 87}, {"time": 86163, "pitch": 67, "duration": 479, "velocity": 87}, {"time": 86283, "pitch": 71, "duration": 479, "velocity": 93}, {"time": 86402, "pitch": 76, "duration": 450, "velocity": 93}, {"time": 86882, "pitch": 41, "duration": 899, "velocity": 93}, {"time": 86882, "pitch": 64, "duration": 899, "velocity": 93}, {"time": 87122, "pitch": 53, "duration": 280, "velocity": 87}, {"time": 87362, "pitch": 57, "duration": 479, "velocity": 93}, {"time": 87602, "pitch": 53, "duration": 239, "velocity": 93}, {"time": 87841, "pitch": 41, "duration": 900, "velocity": 93}, {"time": 87841, "pitch": 67, "duration": 900, "velocity": 93}, {"time": 88081, "pitch": 55, "duration": 280, "velocity": 87}, {"time": 88321, "pitch": 59, "duration": 480, "velocity": 93}, {"time": 88561, "pitch": 55, "duration": 240, "velocity": 93}, {"time": 88801, "pitch": 40, "duration": 899, "velocity": 93}, {"time": 88801, "pitch": 67, "duration": 479, "velocity": 93}, {"time": 89041, "pitch": 55, "duration": 279, "velocity": 87}, {"time": 89280, "pitch": 59, "duration": 480, "velocity": 93}, {"time": 89520, "pitch": 67, "duration": 240, "velocity": 93}, {"time": 89760, "pitch": 45, "duration": 899, "velocity": 93}, {"time": 89760, "pitch": 65, "duration": 899, "velocity": 93}, {"time": 90000, "pitch": 57, "duration": 280, "velocity": 87}, {"time": 90240, "pitch": 64, "duration": 479, "velocity": 93}, {"time": 90479, "pitch": 57, "duration": 240, "velocity": 93}, {"time": 90719, "pitch": 50, "duration": 900, "velocity": 93}, {"time": 90719, "pitch": 65, "duration": 480, "velocity": 93}, {"time": 90959, "pitch": 57, "duration": 280, "velocity": 87}, {"time": 91199, "pitch": 60, "duration": 480, "velocity": 93}, {"time": 91439, "pitch": 57, "duration": 240, "velocity": 93}, {"time": 91679, "pitch": 40, "duration": 899, "velocity": 93}, {"time": 91679, "pitch": 67, "duration": 899, "velocity": 93}, {"time": 91918, "pitch": 59, "duration": 280, "velocity": 87}, {"time": 92158, "pitch": 62, "duration": 480, "velocity": 93}, {"time": 92398, "pitch": 59, "duration": 240, "velocity": 93}, {"time": 92638, "pitch": 53, "duration": 899, "velocity": 93}, {"time": 92638, "pitch": 69, "duration": 480, "velocity": 93}, {"time": 92878, "pitch": 60, "duration": 280, "velocity": 87}, {"time": 93118, "pitch": 64, "duration": 479, "velocity": 93}, {"time": 93357, "pitch": 60, "duration": 240, "velocity": 93}, {"time": 93597, "pitch": 40, "duration": 926, "velocity": 93}, {"time": 93597, "pitch": 50, "duration": 926, "velocity": 87}, {"time": 93607, "pitch": 56, "duration": 926, "velocity": 87}, {"time": 93617, "pitch": 59, "duration": 926, "velocity": 93}, {"time": 93628, "pitch": 64, "duration": 925, "velocity": 93}, {"time": 102243, "pitch": 53, "duration": 3837, "velocity": 90}, {"time": 102253, "pitch": 57, "duration": 3827, "velocity": 83}, {"time": 102263, "pitch": 60, "duration": 3817, "velocity": 88}, {"time": 102273, "pitch": 64, "duration": 3807, "velocity": 98}, {"time": 113761, "pitch": 48, "duration": 439, "velocity": 100}, {"time": 114000, "pitch": 55, "duration": 240, "velocity": 92}, {"time": 114240, "pitch": 60, "duration": 500, "velocity": 87}, {"time": 114240, "pitch": 64, "duration": 440, "velocity": 95}, {"time": 114480, "pitch": 48, "duration": 240, "velocity": 100}, {"time": 114720, "pitch": 48, "duration": 440, "velocity": 104}, {"time": 114960, "pitch": 55, "duration": 240, "velocity": 91}, {"time": 115200, "pitch": 58, "duration": 479, "velocity": 91}, {"time": 115200, "pitch": 60, "duration": 479, "velocity": 82}, {"time": 115200, "pitch": 64, "duration": 479, "velocity": 100}, {"time": 115439, "pitch": 48, "duration": 240, "velocity": 100}, {"time": 115679, "pitch": 53, "duration": 420, "velocity": 93}, {"time": 115919, "pitch": 57, "duration": 280, "velocity": 87}, {"time": 116159, "pitch": 60, "duration": 539, "velocity": 85}, {"time": 116159, "pitch": 64, "duration": 500, "velocity": 93}, {"time": 116399, "pitch": 53, "duration": 419, "velocity": 93}, {"time": 116639, "pitch": 52, "duration": 459, "velocity": 93}, {"time": 116878, "pitch": 55, "duration": 280, "velocity": 86}, {"time": 117118, "pitch": 57, "duration": 470, "velocity": 83}, {"time": 117118, "pitch": 60, "duration": 470, "velocity": 94}, {"time": 117598, "pitch": 50, "duration": 459, "velocity": 93}, {"time": 117838, "pitch": 57, "duration": 299, "velocity": 88}, {"time": 118077, "pitch": 60, "duration": 500, "velocity": 80}, {"time": 118077, "pitch": 65, "duration": 450, "velocity": 92}, {"time": 118317, "pitch": 50, "duration": 240, "velocity": 93}, {"time": 118557, "pitch": 49, "duration": 2864, "velocity": 95}, {"time": 118557, "pitch": 56, "duration": 2864, "velocity": 84}, {"time": 118567, "pitch": 61, "duration": 2854, "velocity": 89}, {"time": 118577, "pitch": 65, "duration": 2844, "velocity": 97}, {"time": 121441, "pitch": 54, "duration": 420, "velocity": 93}, {"time": 121681, "pitch": 58, "duration": 280, "velocity": 87}, {"time": 121921, "pitch": 61, "duration": 539, "velocity": 85}, {"time": 121921, "pitch": 65, "duration": 499, "velocity": 93}, {"time": 122161, "pitch": 54, "duration": 419, "velocity": 93}, {"time": 122400, "pitch": 53, "duration": 460, "velocity": 93}, {"time": 122640, "pitch": 56, "duration": 280, "velocity": 86}, {"time": 122880, "pitch": 61, "duration": 470, "velocity": 83}, {"time": 122880, "pitch": 65, "duration": 470, "velocity": 94}, {"time": 123120, "pitch": 53, "duration": 220, "velocity": 93}, {"time": 123360, "pitch": 51, "duration": 459, "velocity": 93}, {"time": 123599, "pitch": 58, "duration": 300, "velocity": 88}, {"time": 123839, "pitch": 61, "duration": 500, "velocity": 80}, {"time": 123839, "pitch": 66, "duration": 450, "velocity": 92}, {"time": 124079, "pitch": 51, "duration": 240, "velocity": 93}, {"time": 124319, "pitch": 44, "duration": 470, "velocity": 95}, {"time": 124559, "pitch": 60, "duration": 220, "velocity": 89}, {"time": 124559, "pitch": 68, "duration": 220, "velocity": 97}, {"time": 124799, "pitch": 46, "duration": 219, "velocity": 97}, {"time": 125038, "pitch": 48, "duration": 220, "velocity": 97}, {"time": 125278, "pitch": 49, "duration": 440, "velocity": 100}, {"time": 125518, "pitch": 56, "duration": 240, "velocity": 92}, {"time": 125758, "pitch": 61, "duration": 500, "velocity": 87}, {"time": 125758, "pitch": 65, "duration": 440, "velocity": 95}, {"time": 125998, "pitch": 48, "duration": 240, "velocity": 100}, {"time": 126238, "pitch": 46, "duration": 439, "velocity": 104}, {"time": 126477, "pitch": 53, "duration": 240, "velocity": 91}, {"time": 126717, "pitch": 58, "duration": 486, "velocity": 91}, {"time": 126717, "pitch": 61, "duration": 486, "velocity": 82}, {"time": 126717, "pitch": 65, "duration": 486, "velocity": 100}, {"time": 126960, "pitch": 46, "duration": 243, "velocity": 100}, {"time": 127203, "pitch": 51, "duration": 460, "velocity": 93}, {"time": 127443, "pitch": 58, "duration": 300, "velocity": 88}, {"time": 127683, "pitch": 61, "duration": 499, "velocity": 80}, {"time": 127683, "pitch": 67, "duration": 449, "velocity": 92}, {"time": 127922, "pitch": 51, "duration": 240, "velocity": 93}, {"time": 128162, "pitch": 44, "duration": 470, "velocity": 95}, {"time": 128402, "pitch": 56, "duration": 260, "velocity": 84}, {"time": 128642, "pitch": 61, "duration": 480, "velocity": 89}, {"time": 128642, "pitch": 66, "duration": 480, "velocity": 97}, {"time": 128882, "pitch": 44, "duration": 220, "velocity": 95}, {"time": 129122, "pitch": 49, "duration": 439, "velocity": 100}, {"time": 129361, "pitch": 56, "duration": 240, "velocity": 92}, {"time": 129601, "pitch": 61, "duration": 500, "velocity": 87}, {"time": 129601, "pitch": 65, "duration": 440, "velocity": 95}, {"time": 129841, "pitch": 49, "duration": 240, "velocity": 100}, {"time": 130081, "pitch": 49, "duration": 440, "velocity": 104}, {"time": 130321, "pitch": 56, "duration": 239, "velocity": 91}, {"time": 130560, "pitch": 59, "duration": 480, "velocity": 91}, {"time": 130560, "pitch": 61, "duration": 480, "velocity": 82}, {"time": 130560, "pitch": 65, "duration": 480, "velocity": 100}, {"time": 130800, "pitch": 49, "duration": 240, "velocity": 100}, {"time": 131040, "pitch": 54, "duration": 420, "velocity": 93}, {"time": 131280, "pitch": 58, "duration": 280, "velocity": 87}, {"time": 131520, "pitch": 61, "duration": 539, "velocity": 85}, {"time": 131520, "pitch": 65, "duration": 499, "velocity": 93}, {"time": 131760, "pitch": 54, "duration": 419, "velocity": 93}, {"time": 131999, "pitch": 53, "duration": 460, "velocity": 93}, {"time": 132239, "pitch": 56, "duration": 280, "velocity": 86}, {"time": 132479, "pitch": 58, "duration": 470, "velocity": 83}, {"time": 132479, "pitch": 61, "duration": 470, "velocity": 94}, {"time": 132959, "pitch": 51, "duration": 459, "velocity": 93}, {"time": 133199, "pitch": 58, "duration": 300, "velocity": 88}, {"time": 133438, "pitch": 61, "duration": 502, "velocity": 80}, {"time": 133438, "pitch": 66, "duration": 451, "velocity": 92}, {"time": 133679, "pitch": 51, "duration": 241, "velocity": 93}, {"time": 133920, "pitch": 50, "duration": 472, "velocity": 95}, {"time": 134161, "pitch": 57, "duration": 261, "velocity": 84}, {"time": 134402, "pitch": 62, "duration": 479, "velocity": 89}, {"time": 134402, "pitch": 66, "duration": 479, "velocity": 97}, {"time": 134881, "pitch": 49, "duration": 3818, "velocity": 99}, {"time": 134881, "pitch": 56, "duration": 3818, "velocity": 94}, {"time": 134891, "pitch": 61, "duration": 1919, "velocity": 86}, {"time": 134901, "pitch": 65, "duration": 3818, "velocity": 93}, {"time": 12002, "pitch": 76, "duration": 220, "velocity": 92}, {"time": 12242, "pitch": 79, "duration": 220, "velocity": 99}, {"time": 12482, "pitch": 79, "duration": 220, "velocity": 105}, {"time": 12722, "pitch": 76, "duration": 220, "velocity": 95}, {"time": 12962, "pitch": 81, "duration": 219, "velocity": 105}, {"time": 13201, "pitch": 79, "duration": 220, "velocity": 101}, {"time": 13441, "pitch": 76, "duration": 220, "velocity": 96}, {"time": 13681, "pitch": 74, "duration": 220, "velocity": 94}, {"time": 13921, "pitch": 72, "duration": 480, "velocity": 105}, {"time": 14401, "pitch": 69, "duration": 219, "velocity": 108}, {"time": 14640, "pitch": 72, "duration": 220, "velocity": 98}, {"time": 14880, "pitch": 67, "duration": 480, "velocity": 102}, {"time": 15360, "pitch": 72, "duration": 220, "velocity": 110}, {"time": 15600, "pitch": 74, "duration": 220, "velocity": 104}, {"time": 15839, "pitch": 76, "duration": 480, "velocity": 105}, {"time": 16319, "pitch": 79, "duration": 480, "velocity": 110}, {"time": 16799, "pitch": 79, "duration": 479, "velocity": 105}, {"time": 17278, "pitch": 76, "duration": 480, "velocity": 102}, {"time": 17758, "pitch": 72, "duration": 220, "velocity": 102}, {"time": 17998, "pitch": 74, "duration": 220, "velocity": 101}, {"time": 18238, "pitch": 76, "duration": 220, "velocity": 104}, {"time": 18478, "pitch": 72, "duration": 219, "velocity": 95}, {"time": 18717, "pitch": 74, "duration": 966, "velocity": 92}, {"time": 19683, "pitch": 76, "duration": 220, "velocity": 90}, {"time": 19923, "pitch": 79, "duration": 219, "velocity": 102}, {"time": 20162, "pitch": 79, "duration": 220, "velocity": 101}, {"time": 20402, "pitch": 79, "duration": 220, "velocity": 105}, {"time": 20642, "pitch": 81, "duration": 220, "velocity": 111}, {"time": 20882, "pitch": 79, "duration": 220, "velocity": 104}, {"time": 21122, "pitch": 76, "duration": 220, "velocity": 104}, {"time": 21362, "pitch": 74, "duration": 219, "velocity": 99}, {"time": 21601, "pitch": 72, "duration": 220, "velocity": 97}, {"time": 21841, "pitch": 74, "duration": 220, "velocity": 90}, {"time": 22081, "pitch": 72, "duration": 220, "velocity": 100}, {"time": 22321, "pitch": 72, "duration": 220, "velocity": 94}, {"time": 22561, "pitch": 67, "duration": 479, "velocity": 97}, {"time": 23040, "pitch": 72, "duration": 220, "velocity": 107}, {"time": 23280, "pitch": 74, "duration": 220, "velocity": 100}, {"time": 23520, "pitch": 72, "duration": 719, "velocity": 102}, {"time": 24239, "pitch": 72, "duration": 220, "velocity": 109}, {"time": 24479, "pitch": 72, "duration": 480, "velocity": 107}, {"time": 24959, "pitch": 72, "duration": 480, "velocity": 109}, {"time": 25439, "pitch": 72, "duration": 1428, "velocity": 108}, {"time": 27357, "pitch": 81, "duration": 223, "velocity": 105}, {"time": 27600, "pitch": 81, "duration": 223, "velocity": 98}, {"time": 27843, "pitch": 81, "duration": 220, "velocity": 98}, {"time": 28083, "pitch": 81, "duration": 220, "velocity": 93}, {"time": 28322, "pitch": 79, "duration": 220, "velocity": 102}, {"time": 28562, "pitch": 79, "duration": 220, "velocity": 95}, {"time": 28802, "pitch": 79, "duration": 220, "velocity": 94}, {"time": 29042, "pitch": 79, "duration": 220, "velocity": 101}, {"time": 29282, "pitch": 81, "duration": 220, "velocity": 102}, {"time": 29522, "pitch": 81, "duration": 219, "velocity": 105}, {"time": 29761, "pitch": 79, "duration": 220, "velocity": 98}, {"time": 30001, "pitch": 79, "duration": 220, "velocity": 91}, {"time": 30241, "pitch": 81, "duration": 480, "velocity": 100}, {"time": 30721, "pitch": 76, "duration": 479, "velocity": 96}, {"time": 31440, "pitch": 76, "duration": 220, "velocity": 102}, {"time": 31680, "pitch": 74, "duration": 220, "velocity": 95}, {"time": 31920, "pitch": 72, "duration": 220, "velocity": 94}, {"time": 32160, "pitch": 72, "duration": 220, "velocity": 97}, {"time": 32400, "pitch": 69, "duration": 219, "velocity": 96}, {"time": 32639, "pitch": 69, "duration": 220, "velocity": 95}, {"time": 32879, "pitch": 69, "duration": 220, "velocity": 92}, {"time": 33119, "pitch": 72, "duration": 220, "velocity": 100}, {"time": 33359, "pitch": 74, "duration": 220, "velocity": 95}, {"time": 33599, "pitch": 76, "duration": 219, "velocity": 90}, {"time": 33838, "pitch": 72, "duration": 220, "velocity": 102}, {"time": 34078, "pitch": 74, "duration": 960, "velocity": 90}, {"time": 35038, "pitch": 81, "duration": 219, "velocity": 102}, {"time": 35277, "pitch": 81, "duration": 220, "velocity": 100}, {"time": 35517, "pitch": 81, "duration": 223, "velocity": 106}, {"time": 35760, "pitch": 81, "duration": 223, "velocity": 101}, {"time": 36003, "pitch": 79, "duration": 220, "velocity": 107}, {"time": 36243, "pitch": 79, "duration": 220, "velocity": 95}, {"time": 36483, "pitch": 79, "duration": 219, "velocity": 103}, {"time": 36722, "pitch": 79, "duration": 220, "velocity": 102}, {"time": 36962, "pitch": 77, "duration": 220, "velocity": 107}, {"time": 37202, "pitch": 76, "duration": 220, "velocity": 96}, {"time": 37442, "pitch": 74, "duration": 220, "velocity": 100}, {"time": 37682, "pitch": 72, "duration": 220, "velocity": 93}, {"time": 37922, "pitch": 74, "duration": 219, "velocity": 96}, {"time": 38161, "pitch": 76, "duration": 220, "velocity": 104}, {"time": 38401, "pitch": 76, "duration": 480, "velocity": 94}, {"time": 38881, "pitch": 69, "duration": 220, "velocity": 105}, {"time": 39121, "pitch": 71, "duration": 219, "velocity": 99}, {"time": 39360, "pitch": 72, "duration": 220, "velocity": 103}, {"time": 39600, "pitch": 69, "duration": 220, "velocity": 96}, {"time": 39840, "pitch": 67, "duration": 220, "velocity": 104}, {"time": 40080, "pitch": 76, "duration": 220, "velocity": 89}, {"time": 40320, "pitch": 76, "duration": 479, "velocity": 91}, {"time": 41279, "pitch": 77, "duration": 220, "velocity": 105}, {"time": 41519, "pitch": 76, "duration": 220, "velocity": 97}, {"time": 41759, "pitch": 74, "duration": 479, "velocity": 103}, {"time": 42238, "pitch": 75, "duration": 480, "velocity": 100}, {"time": 42718, "pitch": 76, "duration": 1565, "velocity": 90}, {"time": 44643, "pitch": 76, "duration": 220, "velocity": 97}, {"time": 44883, "pitch": 79, "duration": 219, "velocity": 103}, {"time": 45122, "pitch": 79, "duration": 220, "velocity": 107}, {"time": 45362, "pitch": 76, "duration": 220, "velocity": 101}, {"time": 45602, "pitch": 81, "duration": 220, "velocity": 106}, {"time": 45842, "pitch": 79, "duration": 220, "velocity": 96}, {"time": 46082, "pitch": 76, "duration": 219, "velocity": 102}, {"time": 46321, "pitch": 74, "duration": 220, "velocity": 91}, {"time": 46561, "pitch": 72, "duration": 480, "velocity": 95}, {"time": 47041, "pitch": 69, "duration": 220, "velocity": 93}, {"time": 47281, "pitch": 72, "duration": 220, "velocity": 89}, {"time": 47521, "pitch": 67, "duration": 479, "velocity": 93}, {"time": 48000, "pitch": 72, "duration": 220, "velocity": 100}, {"time": 48240, "pitch": 74, "duration": 220, "velocity": 96}, {"time": 48480, "pitch": 76, "duration": 480, "velocity": 98}, {"time": 48960, "pitch": 79, "duration": 479, "velocity": 103}, {"time": 49439, "pitch": 79, "duration": 480, "velocity": 107}, {"time": 49919, "pitch": 76, "duration": 479, "velocity": 92}, {"time": 50398, "pitch": 72, "duration": 220, "velocity": 100}, {"time": 50638, "pitch": 74, "duration": 220, "velocity": 95}, {"time": 50878, "pitch": 76, "duration": 220, "velocity": 91}, {"time": 51118, "pitch": 72, "duration": 220, "velocity": 86}, {"time": 51358, "pitch": 74, "duration": 959, "velocity": 85}, {"time": 52560, "pitch": 76, "duration": 223, "velocity": 97}, {"time": 52803, "pitch": 79, "duration": 220, "velocity": 99}, {"time": 53043, "pitch": 79, "duration": 219, "velocity": 99}, {"time": 53282, "pitch": 81, "duration": 220, "velocity": 105}, {"time": 53522, "pitch": 79, "duration": 220, "velocity": 106}, {"time": 53762, "pitch": 76, "duration": 220, "velocity": 94}, {"time": 54002, "pitch": 74, "duration": 220, "velocity": 93}, {"time": 54242, "pitch": 72, "duration": 220, "velocity": 91}, {"time": 54482, "pitch": 74, "duration": 219, "velocity": 97}, {"time": 54721, "pitch": 72, "duration": 220, "velocity": 90}, {"time": 54961, "pitch": 72, "duration": 220, "velocity": 90}, {"time": 55201, "pitch": 67, "duration": 480, "velocity": 86}, {"time": 55681, "pitch": 72, "duration": 220, "velocity": 100}, {"time": 55920, "pitch": 74, "duration": 220, "velocity": 92}, {"time": 56160, "pitch": 72, "duration": 720, "velocity": 97}, {"time": 56880, "pitch": 72, "duration": 220, "velocity": 94}, {"time": 57120, "pitch": 72, "duration": 479, "velocity": 96}, {"time": 57599, "pitch": 72, "duration": 480, "velocity": 99}, {"time": 58079, "pitch": 72, "duration": 1489, "velocity": 93}, {"time": 60237, "pitch": 81, "duration": 220, "velocity": 99}, {"time": 60477, "pitch": 81, "duration": 223, "velocity": 106}, {"time": 60720, "pitch": 81, "duration": 483, "velocity": 103}, {"time": 61203, "pitch": 79, "duration": 220, "velocity": 97}, {"time": 61443, "pitch": 79, "duration": 219, "velocity": 104}, {"time": 61682, "pitch": 79, "duration": 220, "velocity": 101}, {"time": 61922, "pitch": 81, "duration": 220, "velocity": 98}, {"time": 62162, "pitch": 81, "duration": 220, "velocity": 104}, {"time": 62402, "pitch": 79, "duration": 220, "velocity": 98}, {"time": 62642, "pitch": 79, "duration": 219, "velocity": 103}, {"time": 62881, "pitch": 81, "duration": 480, "velocity": 100}, {"time": 63361, "pitch": 76, "duration": 480, "velocity": 96}, {"time": 64081, "pitch": 76, "duration": 219, "velocity": 97}, {"time": 64320, "pitch": 74, "duration": 220, "velocity": 94}, {"time": 64560, "pitch": 72, "duration": 220, "velocity": 92}, {"time": 64800, "pitch": 72, "duration": 220, "velocity": 100}, {"time": 65040, "pitch": 69, "duration": 220, "velocity": 91}, {"time": 65280, "pitch": 69, "duration": 220, "velocity": 100}, {"time": 65520, "pitch": 69, "duration": 219, "velocity": 96}, {"time": 65759, "pitch": 72, "duration": 220, "velocity": 96}, {"time": 65999, "pitch": 74, "duration": 220, "velocity": 89}, {"time": 66239, "pitch": 76, "duration": 220, "velocity": 88}, {"time": 66479, "pitch": 72, "duration": 220, "velocity": 84}, {"time": 66719, "pitch": 74, "duration": 959, "velocity": 83}, {"time": 67918, "pitch": 81, "duration": 220, "velocity": 100}, {"time": 68158, "pitch": 81, "duration": 219, "velocity": 94}, {"time": 68397, "pitch": 81, "duration": 281, "velocity": 102}, {"time": 68880, "pitch": 79, "duration": 223, "velocity": 104}, {"time": 69123, "pitch": 79, "duration": 220, "velocity": 102}, {"time": 69363, "pitch": 79, "duration": 220, "velocity": 95}, {"time": 69603, "pitch": 77, "duration": 219, "velocity": 97}, {"time": 69842, "pitch": 76, "duration": 220, "velocity": 93}, {"time": 70082, "pitch": 74, "duration": 220, "velocity": 101}, {"time": 70322, "pitch": 72, "duration": 220, "velocity": 97}, {"time": 70562, "pitch": 74, "duration": 220, "velocity": 97}, {"time": 70802, "pitch": 76, "duration": 220, "velocity": 92}, {"time": 71042, "pitch": 76, "duration": 479, "velocity": 88}, {"time": 71521, "pitch": 69, "duration": 220, "velocity": 99}, {"time": 71761, "pitch": 71, "duration": 220, "velocity": 96}, {"time": 72001, "pitch": 72, "duration": 220, "velocity": 100}, {"time": 72241, "pitch": 69, "duration": 220, "velocity": 96}, {"time": 72481, "pitch": 67, "duration": 219, "velocity": 102}, {"time": 72720, "pitch": 76, "duration": 220, "velocity": 95}, {"time": 72960, "pitch": 76, "duration": 480, "velocity": 96}, {"time": 73919, "pitch": 77, "duration": 220, "velocity": 102}, {"time": 74159, "pitch": 76, "duration": 220, "velocity": 98}, {"time": 74399, "pitch": 74, "duration": 480, "velocity": 95}, {"time": 74879, "pitch": 75, "duration": 479, "velocity": 101}, {"time": 75358, "pitch": 76, "duration": 1899, "velocity": 91}, {"time": 78722, "pitch": 72, "duration": 220, "velocity": 103}, {"time": 78962, "pitch": 71, "duration": 220, "velocity": 100}, {"time": 79202, "pitch": 69, "duration": 479, "velocity": 99}, {"time": 79681, "pitch": 71, "duration": 220, "velocity": 104}, {"time": 79921, "pitch": 72, "duration": 220, "velocity": 104}, {"time": 80161, "pitch": 74, "duration": 480, "velocity": 103}, {"time": 80641, "pitch": 76, "duration": 219, "velocity": 103}, {"time": 80880, "pitch": 77, "duration": 220, "velocity": 104}, {"time": 81120, "pitch": 79, "duration": 480, "velocity": 106}, {"time": 81600, "pitch": 76, "duration": 220, "velocity": 102}, {"time": 81840, "pitch": 79, "duration": 220, "velocity": 106}, {"time": 82080, "pitch": 77, "duration": 959, "velocity": 103}, {"time": 83279, "pitch": 81, "duration": 220, "velocity": 106}, {"time": 83518, "pitch": 79, "duration": 220, "velocity": 98}, {"time": 83758, "pitch": 76, "duration": 220, "velocity": 101}, {"time": 83998, "pitch": 74, "duration": 220, "velocity": 96}, {"time": 84238, "pitch": 72, "duration": 220, "velocity": 90}, {"time": 84478, "pitch": 72, "duration": 220, "velocity": 94}, {"time": 84718, "pitch": 72, "duration": 219, "velocity": 99}, {"time": 84957, "pitch": 72, "duration": 480, "velocity": 99}, {"time": 85437, "pitch": 69, "duration": 223, "velocity": 97}, {"time": 85680, "pitch": 72, "duration": 223, "velocity": 96}, {"time": 85923, "pitch": 71, "duration": 280, "velocity": 105}, {"time": 86402, "pitch": 72, "duration": 220, "velocity": 106}, {"time": 86642, "pitch": 71, "duration": 220, "velocity": 103}, {"time": 86882, "pitch": 69, "duration": 480, "velocity": 99}, {"time": 87362, "pitch": 71, "duration": 220, "velocity": 106}, {"time": 87602, "pitch": 72, "duration": 219, "velocity": 100}, {"time": 87841, "pitch": 74, "duration": 480, "velocity": 101}, {"time": 88321, "pitch": 76, "duration": 220, "velocity": 100}, {"time": 88561, "pitch": 77, "duration": 220, "velocity": 102}, {"time": 88801, "pitch": 79, "duration": 479, "velocity": 107}, {"time": 89280, "pitch": 76, "duration": 220, "velocity": 100}, {"time": 89520, "pitch": 79, "duration": 220, "velocity": 103}, {"time": 89760, "pitch": 76, "duration": 959, "velocity": 99}, {"time": 90959, "pitch": 81, "duration": 220, "velocity": 104}, {"time": 91199, "pitch": 79, "duration": 220, "velocity": 98}, {"time": 91439, "pitch": 76, "duration": 220, "velocity": 102}, {"time": 91679, "pitch": 74, "duration": 219, "velocity": 97}, {"time": 91918, "pitch": 72, "duration": 220, "velocity": 94}, {"time": 92158, "pitch": 72, "duration": 220, "velocity": 96}, {"time": 92398, "pitch": 74, "duration": 220, "velocity": 91}, {"time": 92638, "pitch": 74, "duration": 220, "velocity": 97}, {"time": 92878, "pitch": 76, "duration": 220, "velocity": 90}, {"time": 93118, "pitch": 76, "duration": 219, "velocity": 95}, {"time": 93357, "pitch": 74, "duration": 220, "velocity": 91}, {"time": 93597, "pitch": 74, "duration": 223, "velocity": 84}, {"time": 93840, "pitch": 76, "duration": 223, "velocity": 80}, {"time": 94083, "pitch": 76, "duration": 480, "velocity": 85}, {"time": 106320, "pitch": 76, "duration": 220, "velocity": 98}, {"time": 106560, "pitch": 79, "duration": 220, "velocity": 103}, {"time": 106800, "pitch": 79, "duration": 219, "velocity": 106}, {"time": 107039, "pitch": 81, "duration": 220, "velocity": 104}, {"time": 107279, "pitch": 79, "duration": 220, "velocity": 102}, {"time": 107519, "pitch": 76, "duration": 220, "velocity": 97}, {"time": 107759, "pitch": 74, "duration": 220, "velocity": 99}, {"time": 107999, "pitch": 72, "duration": 220, "velocity": 93}, {"time": 108239, "pitch": 74, "duration": 219, "velocity": 100}, {"time": 108478, "pitch": 72, "duration": 220, "velocity": 96}, {"time": 108718, "pitch": 72, "duration": 220, "velocity": 100}, {"time": 108958, "pitch": 67, "duration": 480, "velocity": 93}, {"time": 109438, "pitch": 72, "duration": 220, "velocity": 96}, {"time": 109678, "pitch": 74, "duration": 219, "velocity": 101}, {"time": 109917, "pitch": 76, "duration": 480, "velocity": 101}, {"time": 110397, "pitch": 79, "duration": 486, "velocity": 105}, {"time": 110883, "pitch": 79, "duration": 479, "velocity": 104}, {"time": 111362, "pitch": 76, "duration": 480, "velocity": 101}, {"time": 111842, "pitch": 72, "duration": 220, "velocity": 99}, {"time": 112082, "pitch": 74, "duration": 220, "velocity": 94}, {"time": 112322, "pitch": 76, "duration": 220, "velocity": 100}, {"time": 112562, "pitch": 72, "duration": 219, "velocity": 97}, {"time": 112801, "pitch": 74, "duration": 760, "velocity": 90}, {"time": 113761, "pitch": 76, "duration": 219, "velocity": 100}, {"time": 114000, "pitch": 79, "duration": 220, "velocity": 101}, {"time": 114240, "pitch": 79, "duration": 220, "velocity": 103}, {"time": 114480, "pitch": 79, "duration": 220, "velocity": 97}, {"time": 114720, "pitch": 81, "duration": 220, "velocity": 105}, {"time": 114960, "pitch": 79, "duration": 220, "velocity": 101}, {"time": 115200, "pitch": 76, "duration": 219, "velocity": 103}, {"time": 115439, "pitch": 74, "duration": 220, "velocity": 97}, {"time": 115679, "pitch": 72, "duration": 220, "velocity": 95}, {"time": 115919, "pitch": 74, "duration": 220, "velocity": 91}, {"time": 116159, "pitch": 72, "duration": 220, "velocity": 93}, {"time": 116399, "pitch": 72, "duration": 220, "velocity": 95}, {"time": 116639, "pitch": 67, "duration": 479, "velocity": 87}, {"time": 117118, "pitch": 72, "duration": 220, "velocity": 89}, {"time": 117358, "pitch": 74, "duration": 220, "velocity": 101}, {"time": 117598, "pitch": 72, "duration": 220, "velocity": 101}, {"time": 117838, "pitch": 72, "duration": 219, "velocity": 99}, {"time": 118077, "pitch": 72, "duration": 220, "velocity": 100}, {"time": 118317, "pitch": 72, "duration": 220, "velocity": 97}, {"time": 118557, "pitch": 72, "duration": 965, "velocity": 97}, {"time": 479, "pitch": 81, "duration": 1708, "velocity": 94}, {"time": 2157, "pitch": 76, "duration": 110, "velocity": 84}, {"time": 2277, "pitch": 74, "duration": 130, "velocity": 90}, {"time": 2397, "pitch": 76, "duration": 1445, "velocity": 86}, {"time": 3842, "pitch": 71, "duration": 480, "velocity": 91}, {"time": 4322, "pitch": 69, "duration": 1689, "velocity": 90}, {"time": 6001, "pitch": 64, "duration": 140, "velocity": 79}, {"time": 6121, "pitch": 62, "duration": 129, "velocity": 85}, {"time": 6240, "pitch": 64, "duration": 1539, "velocity": 84}, {"time": 8159, "pitch": 46, "duration": 3843, "velocity": 72}, {"time": 8159, "pitch": 53, "duration": 3843, "velocity": 76}, {"time": 8159, "pitch": 57, "duration": 3843, "velocity": 80}, {"time": 8159, "pitch": 64, "duration": 3843, "velocity": 90}, {"time": 19683, "pitch": 60, "duration": 719, "velocity": 103}, {"time": 20402, "pitch": 59, "duration": 250, "velocity": 102}, {"time": 20642, "pitch": 58, "duration": 949, "velocity": 101}, {"time": 21601, "pitch": 57, "duration": 480, "velocity": 101}, {"time": 22081, "pitch": 69, "duration": 480, "velocity": 108}, {"time": 22561, "pitch": 67, "duration": 479, "velocity": 105}, {"time": 23040, "pitch": 66, "duration": 480, "velocity": 96}, {"time": 23520, "pitch": 65, "duration": 1919, "velocity": 97}, {"time": 25439, "pitch": 64, "duration": 1518, "velocity": 99}, {"time": 51358, "pitch": 67, "duration": 240, "velocity": 103}, {"time": 51598, "pitch": 69, "duration": 239, "velocity": 101}, {"time": 51837, "pitch": 71, "duration": 240, "velocity": 105}, {"time": 52077, "pitch": 67, "duration": 240, "velocity": 100}, {"time": 52317, "pitch": 72, "duration": 726, "velocity": 105}, {"time": 53043, "pitch": 71, "duration": 239, "velocity": 102}, {"time": 53282, "pitch": 70, "duration": 960, "velocity": 98}, {"time": 54242, "pitch": 69, "duration": 939, "velocity": 108}, {"time": 55201, "pitch": 67, "duration": 480, "velocity": 105}, {"time": 55681, "pitch": 66, "duration": 489, "velocity": 101}, {"time": 56160, "pitch": 65, "duration": 1929, "velocity": 103}, {"time": 58079, "pitch": 64, "duration": 1539, "velocity": 95}, {"time": 94563, "pitch": 81, "duration": 1708, "velocity": 94}, {"time": 96241, "pitch": 76, "duration": 110, "velocity": 84}, {"time": 96361, "pitch": 74, "duration": 130, "velocity": 90}, {"time": 96481, "pitch": 76, "duration": 1439, "velocity": 86}, {"time": 97920, "pitch": 71, "duration": 480, "velocity": 91}, {"time": 98400, "pitch": 69, "duration": 1688, "velocity": 90}, {"time": 100079, "pitch": 64, "duration": 139, "velocity": 79}, {"time": 100198, "pitch": 62, "duration": 130, "velocity": 85}, {"time": 100318, "pitch": 64, "duration": 1540, "velocity": 84}, {"time": 102243, "pitch": 46, "duration": 3837, "velocity": 72}, {"time": 102243, "pitch": 53, "duration": 3837, "velocity": 76}, {"time": 102243, "pitch": 57, "duration": 3837, "velocity": 80}, {"time": 102243, "pitch": 64, "duration": 3837, "velocity": 90}, {"time": 113761, "pitch": 60, "duration": 719, "velocity": 103}, {"time": 114480, "pitch": 59, "duration": 250, "velocity": 102}, {"time": 114720, "pitch": 58, "duration": 949, "velocity": 101}, {"time": 115679, "pitch": 57, "duration": 480, "velocity": 101}, {"time": 116159, "pitch": 69, "duration": 480, "velocity": 108}, {"time": 116639, "pitch": 67, "duration": 479, "velocity": 105}, {"time": 117118, "pitch": 66, "duration": 480, "velocity": 96}, {"time": 117598, "pitch": 65, "duration": 3453, "velocity": 97}, {"time": 27357, "pitch": 86, "duration": 223, "velocity": 63}, {"time": 27600, "pitch": 84, "duration": 223, "velocity": 57}, {"time": 27843, "pitch": 91, "duration": 220, "velocity": 65}, {"time": 28083, "pitch": 84, "duration": 220, "velocity": 58}, {"time": 28322, "pitch": 86, "duration": 220, "velocity": 70}, {"time": 28562, "pitch": 84, "duration": 220, "velocity": 62}, {"time": 28802, "pitch": 91, "duration": 220, "velocity": 72}, {"time": 29042, "pitch": 84, "duration": 220, "velocity": 66}, {"time": 29282, "pitch": 86, "duration": 220, "velocity": 73}, {"time": 29522, "pitch": 84, "duration": 219, "velocity": 65}, {"time": 29761, "pitch": 91, "duration": 220, "velocity": 71}, {"time": 30001, "pitch": 84, "duration": 220, "velocity": 65}, {"time": 30241, "pitch": 86, "duration": 220, "velocity": 73}, {"time": 30481, "pitch": 84, "duration": 220, "velocity": 67}, {"time": 30721, "pitch": 91, "duration": 220, "velocity": 74}, {"time": 30961, "pitch": 84, "duration": 219, "velocity": 64}, {"time": 31200, "pitch": 86, "duration": 220, "velocity": 74}, {"time": 31440, "pitch": 84, "duration": 220, "velocity": 68}, {"time": 31680, "pitch": 91, "duration": 220, "velocity": 74}, {"time": 31920, "pitch": 84, "duration": 220, "velocity": 66}, {"time": 32160, "pitch": 86, "duration": 220, "velocity": 75}, {"time": 32400, "pitch": 84, "duration": 219, "velocity": 69}, {"time": 32639, "pitch": 91, "duration": 220, "velocity": 75}, {"time": 32879, "pitch": 84, "duration": 220, "velocity": 69}, {"time": 33119, "pitch": 86, "duration": 220, "velocity": 76}, {"time": 33359, "pitch": 84, "duration": 220, "velocity": 68}, {"time": 33599, "pitch": 91, "duration": 219, "velocity": 75}, {"time": 33838, "pitch": 84, "duration": 220, "velocity": 66}, {"time": 34078, "pitch": 86, "duration": 220, "velocity": 75}, {"time": 34318, "pitch": 84, "duration": 220, "velocity": 67}, {"time": 34558, "pitch": 91, "duration": 220, "velocity": 74}, {"time": 34798, "pitch": 84, "duration": 220, "velocity": 67}, {"time": 35038, "pitch": 86, "duration": 219, "velocity": 74}, {"time": 35277, "pitch": 84, "duration": 220, "velocity": 66}, {"time": 35517, "pitch": 91, "duration": 223, "velocity": 73}, {"time": 35760, "pitch": 84, "duration": 223, "velocity": 66}, {"time": 36003, "pitch": 86, "duration": 220, "velocity": 74}, {"time": 36243, "pitch": 84, "duration": 220, "velocity": 66}, {"time": 36483, "pitch": 91, "duration": 219, "velocity": 73}, {"time": 36722, "pitch": 84, "duration": 220, "velocity": 68}, {"time": 36962, "pitch": 86, "duration": 220, "velocity": 74}, {"time": 37202, "pitch": 84, "duration": 220, "velocity": 69}, {"time": 37442, "pitch": 91, "duration": 220, "velocity": 73}, {"time": 37682, "pitch": 84, "duration": 220, "velocity": 70}, {"time": 37922, "pitch": 86, "duration": 219, "velocity": 74}, {"time": 38161, "pitch": 84, "duration": 220, "velocity": 66}, {"time": 38401, "pitch": 91, "duration": 220, "velocity": 71}, {"time": 38641, "pitch": 84, "duration": 220, "velocity": 67}, {"time": 38881, "pitch": 86, "duration": 220, "velocity": 76}, {"time": 39121, "pitch": 84, "duration": 219, "velocity": 68}, {"time": 39360, "pitch": 91, "duration": 220, "velocity": 75}, {"time": 39600, "pitch": 84, "duration": 220, "velocity": 71}, {"time": 39840, "pitch": 86, "duration": 220, "velocity": 76}, {"time": 40080, "pitch": 84, "duration": 220, "velocity": 69}, {"time": 40320, "pitch": 91, "duration": 220, "velocity": 76}, {"time": 40560, "pitch": 84, "duration": 219, "velocity": 68}, {"time": 40799, "pitch": 86, "duration": 220, "velocity": 73}, {"time": 41039, "pitch": 84, "duration": 220, "velocity": 67}, {"time": 41279, "pitch": 91, "duration": 220, "velocity": 75}, {"time": 41519, "pitch": 84, "duration": 220, "velocity": 67}, {"time": 41759, "pitch": 86, "duration": 220, "velocity": 73}, {"time": 41999, "pitch": 84, "duration": 219, "velocity": 65}, {"time": 42238, "pitch": 91, "duration": 220, "velocity": 72}, {"time": 42478, "pitch": 84, "duration": 220, "velocity": 64}, {"time": 42718, "pitch": 86, "duration": 220, "velocity": 71}, {"time": 42958, "pitch": 84, "duration": 220, "velocity": 64}, {"time": 43198, "pitch": 91, "duration": 220, "velocity": 70}, {"time": 43437, "pitch": 84, "duration": 220, "velocity": 63}, {"time": 43677, "pitch": 86, "duration": 223, "velocity": 71}, {"time": 43920, "pitch": 84, "duration": 223, "velocity": 64}, {"time": 44163, "pitch": 91, "duration": 480, "velocity": 70}, {"time": 59998, "pitch": 86, "duration": 219, "velocity": 74}, {"time": 60237, "pitch": 84, "duration": 220, "velocity": 66}, {"time": 60477, "pitch": 91, "duration": 223, "velocity": 77}, {"time": 60720, "pitch": 84, "duration": 223, "velocity": 63}, {"time": 60963, "pitch": 86, "duration": 220, "velocity": 73}, {"time": 61203, "pitch": 84, "duration": 220, "velocity": 66}, {"time": 61443, "pitch": 91, "duration": 219, "velocity": 73}, {"time": 61682, "pitch": 84, "duration": 220, "velocity": 65}, {"time": 61922, "pitch": 86, "duration": 220, "velocity": 72}, {"time": 62162, "pitch": 84, "duration": 220, "velocity": 66}, {"time": 62402, "pitch": 91, "duration": 220, "velocity": 70}, {"time": 62642, "pitch": 84, "duration": 219, "velocity": 61}, {"time": 62881, "pitch": 86, "duration": 220, "velocity": 71}, {"time": 63121, "pitch": 84, "duration": 220, "velocity": 64}, {"time": 63361, "pitch": 91, "duration": 220, "velocity": 72}, {"time": 63601, "pitch": 84, "duration": 220, "velocity": 61}, {"time": 63841, "pitch": 86, "duration": 220, "velocity": 70}, {"time": 64081, "pitch": 84, "duration": 219, "velocity": 64}, {"time": 64320, "pitch": 91, "duration": 220, "velocity": 72}, {"time": 64560, "pitch": 84, "duration": 220, "velocity": 66}, {"time": 64800, "pitch": 86, "duration": 220, "velocity": 72}, {"time": 65040, "pitch": 84, "duration": 220, "velocity": 66}, {"time": 65280, "pitch": 91, "duration": 220, "velocity": 72}, {"time": 65520, "pitch": 84, "duration": 219, "velocity": 61}, {"time": 65759, "pitch": 86, "duration": 220, "velocity": 71}, {"time": 65999, "pitch": 84, "duration": 220, "velocity": 65}, {"time": 66239, "pitch": 91, "duration": 220, "velocity": 74}, {"time": 66479, "pitch": 84, "duration": 220, "velocity": 63}, {"time": 66719, "pitch": 86, "duration": 219, "velocity": 74}, {"time": 66958, "pitch": 84, "duration": 220, "velocity": 66}, {"time": 67198, "pitch": 91, "duration": 220, "velocity": 72}, {"time": 67438, "pitch": 84, "duration": 220, "velocity": 59}, {"time": 67678, "pitch": 86, "duration": 220, "velocity": 73}, {"time": 67918, "pitch": 84, "duration": 220, "velocity": 69}, {"time": 68158, "pitch": 91, "duration": 219, "velocity": 74}, {"time": 68397, "pitch": 84, "duration": 220, "velocity": 67}, {"time": 68637, "pitch": 86, "duration": 223, "velocity": 74}, {"time": 68880, "pitch": 84, "duration": 223, "velocity": 68}, {"time": 69123, "pitch": 91, "duration": 220, "velocity": 73}, {"time": 69363, "pitch": 84, "duration": 220, "velocity": 67}, {"time": 69603, "pitch": 86, "duration": 219, "velocity": 74}, {"time": 69842, "pitch": 84, "duration": 220, "velocity": 69}, {"time": 70082, "pitch": 91, "duration": 220, "velocity": 76}, {"time": 70322, "pitch": 84, "duration": 220, "velocity": 66}, {"time": 70562, "pitch": 86, "duration": 220, "velocity": 75}, {"time": 70802, "pitch": 84, "duration": 220, "velocity": 70}, {"time": 71042, "pitch": 91, "duration": 219, "velocity": 75}, {"time": 71281, "pitch": 84, "duration": 220, "velocity": 69}, {"time": 71521, "pitch": 86, "duration": 220, "velocity": 72}, {"time": 71761, "pitch": 84, "duration": 220, "velocity": 66}, {"time": 72001, "pitch": 91, "duration": 220, "velocity": 74}, {"time": 72241, "pitch": 84, "duration": 220, "velocity": 65}, {"time": 72481, "pitch": 86, "duration": 219, "velocity": 73}, {"time": 72720, "pitch": 84, "duration": 220, "velocity": 68}, {"time": 72960, "pitch": 91, "duration": 220, "velocity": 74}, {"time": 73200, "pitch": 84, "duration": 220, "velocity": 66}, {"time": 73440, "pitch": 86, "duration": 220, "velocity": 72}, {"time": 73680, "pitch": 84, "duration": 219, "velocity": 66}, {"time": 73919, "pitch": 91, "duration": 220, "velocity": 74}, {"time": 74159, "pitch": 84, "duration": 220, "velocity": 65}, {"time": 74399, "pitch": 86, "duration": 220, "velocity": 73}, {"time": 74639, "pitch": 84, "duration": 220, "velocity": 64}, {"time": 74879, "pitch": 91, "duration": 220, "velocity": 74}, {"time": 75119, "pitch": 84, "duration": 219, "velocity": 67}, {"time": 75358, "pitch": 86, "duration": 220, "velocity": 70}, {"time": 75598, "pitch": 84, "duration": 220, "velocity": 64}, {"time": 75838, "pitch": 91, "duration": 220, "velocity": 73}, {"time": 76078, "pitch": 84, "duration": 220, "velocity": 61}, {"time": 76318, "pitch": 86, "duration": 220, "velocity": 71}, {"time": 76558, "pitch": 84, "duration": 219, "velocity": 59}, {"time": 76797, "pitch": 91, "duration": 1935, "velocity": 72}, {"time": 34558, "pitch": 74, "duration": 490, "velocity": 67}, {"time": 35038, "pitch": 81, "duration": 965, "velocity": 72}, {"time": 35038, "pitch": 86, "duration": 5302, "velocity": 65}, {"time": 36003, "pitch": 79, "duration": 969, "velocity": 68}, {"time": 36962, "pitch": 81, "duration": 970, "velocity": 71}, {"time": 37922, "pitch": 79, "duration": 969, "velocity": 68}, {"time": 38881, "pitch": 81, "duration": 1459, "velocity": 73}, {"time": 44163, "pitch": 67, "duration": 480, "velocity": 81}, {"time": 44643, "pitch": 79, "duration": 4297, "velocity": 78}, {"time": 48960, "pitch": 81, "duration": 239, "velocity": 76}, {"time": 49199, "pitch": 83, "duration": 240, "velocity": 81}, {"time": 49439, "pitch": 84, "duration": 720, "velocity": 87}, {"time": 50159, "pitch": 83, "duration": 239, "velocity": 75}, {"time": 50398, "pitch": 81, "duration": 960, "velocity": 78}, {"time": 51358, "pitch": 79, "duration": 959, "velocity": 75}, {"time": 52317, "pitch": 60, "duration": 1445, "velocity": 66}, {"time": 52317, "pitch": 64, "duration": 1445, "velocity": 76}, {"time": 53762, "pitch": 64, "duration": 480, "velocity": 70}, {"time": 53762, "pitch": 67, "duration": 480, "velocity": 80}, {"time": 54242, "pitch": 65, "duration": 959, "velocity": 72}, {"time": 54242, "pitch": 69, "duration": 959, "velocity": 82}, {"time": 55201, "pitch": 67, "duration": 480, "velocity": 65}, {"time": 55201, "pitch": 71, "duration": 480, "velocity": 79}, {"time": 55681, "pitch": 69, "duration": 479, "velocity": 68}, {"time": 55681, "pitch": 72, "duration": 479, "velocity": 81}, {"time": 56160, "pitch": 65, "duration": 1919, "velocity": 59}, {"time": 56160, "pitch": 69, "duration": 960, "velocity": 82}, {"time": 57120, "pitch": 68, "duration": 959, "velocity": 72}, {"time": 58079, "pitch": 64, "duration": 1519, "velocity": 52}, {"time": 58079, "pitch": 67, "duration": 1519, "velocity": 69}, {"time": 67198, "pitch": 74, "duration": 490, "velocity": 67}, {"time": 67678, "pitch": 81, "duration": 959, "velocity": 72}, {"time": 67678, "pitch": 86, "duration": 3843, "velocity": 65}, {"time": 68637, "pitch": 79, "duration": 976, "velocity": 68}, {"time": 69603, "pitch": 81, "duration": 959, "velocity": 71}, {"time": 70562, "pitch": 79, "duration": 959, "velocity": 68}, {"time": 71521, "pitch": 81, "duration": 960, "velocity": 56}, {"time": 71521, "pitch": 88, "duration": 960, "velocity": 68}, {"time": 72481, "pitch": 79, "duration": 959, "velocity": 62}, {"time": 72481, "pitch": 86, "duration": 959, "velocity": 71}, {"time": 73440, "pitch": 77, "duration": 1918, "velocity": 57}, {"time": 73440, "pitch": 84, "duration": 1918, "velocity": 75}, {"time": 75358, "pitch": 76, "duration": 3844, "velocity": 54}, {"time": 75358, "pitch": 83, "duration": 3844, "velocity": 71}, {"time": 86882, "pitch": 65, "duration": 959, "velocity": 62}, {"time": 86882, "pitch": 69, "duration": 959, "velocity": 76}, {"time": 87841, "pitch": 67, "duration": 960, "velocity": 57}, {"time": 87841, "pitch": 71, "duration": 960, "velocity": 73}, {"time": 88801, "pitch": 64, "duration": 1918, "velocity": 56}, {"time": 88801, "pitch": 67, "duration": 1918, "velocity": 72}, {"time": 90719, "pitch": 65, "duration": 960, "velocity": 62}, {"time": 90719, "pitch": 69, "duration": 960, "velocity": 77}, {"time": 91679, "pitch": 67, "duration": 959, "velocity": 59}, {"time": 91679, "pitch": 71, "duration": 959, "velocity": 75}, {"time": 92638, "pitch": 69, "duration": 959, "velocity": 61}, {"time": 92638, "pitch": 72, "duration": 959, "velocity": 83}, {"time": 93597, "pitch": 68, "duration": 966, "velocity": 56}, {"time": 93597, "pitch": 71, "duration": 966, "velocity": 74}, {"time": 128642, "pitch": 68, "duration": 480, "velocity": 56}, {"time": 129122, "pitch": 80, "duration": 1918, "velocity": 61}, {"time": 131040, "pitch": 85, "duration": 1909, "velocity": 54}, {"time": 132959, "pitch": 92, "duration": 5740, "velocity": 52}, {"time": 134881, "pitch": 89, "duration": 3818, "velocity": 16}, {"time": 27479, "pitch": 65, "duration": 121, "velocity": 78}, {"time": 27600, "pitch": 69, "duration": 121, "velocity": 82}, {"time": 27721, "pitch": 72, "duration": 122, "velocity": 84}, {"time": 27843, "pitch": 74, "duration": 120, "velocity": 88}, {"time": 27963, "pitch": 72, "duration": 120, "velocity": 80}, {"time": 28083, "pitch": 69, "duration": 120, "velocity": 79}, {"time": 28203, "pitch": 65, "duration": 119, "velocity": 76}, {"time": 28442, "pitch": 64, "duration": 120, "velocity": 76}, {"time": 28562, "pitch": 67, "duration": 120, "velocity": 84}, {"time": 28682, "pitch": 69, "duration": 120, "velocity": 89}, {"time": 28802, "pitch": 74, "duration": 120, "velocity": 90}, {"time": 28922, "pitch": 69, "duration": 120, "velocity": 81}, {"time": 29042, "pitch": 67, "duration": 120, "velocity": 77}, {"time": 29162, "pitch": 64, "duration": 120, "velocity": 73}, {"time": 29402, "pitch": 65, "duration": 120, "velocity": 82}, {"time": 29522, "pitch": 69, "duration": 120, "velocity": 84}, {"time": 29642, "pitch": 72, "duration": 119, "velocity": 85}, {"time": 29761, "pitch": 74, "duration": 120, "velocity": 88}, {"time": 29881, "pitch": 72, "duration": 120, "velocity": 80}, {"time": 30001, "pitch": 69, "duration": 120, "velocity": 79}, {"time": 30121, "pitch": 65, "duration": 120, "velocity": 75}, {"time": 30361, "pitch": 64, "duration": 120, "velocity": 76}, {"time": 30481, "pitch": 67, "duration": 120, "velocity": 81}, {"time": 30601, "pitch": 69, "duration": 120, "velocity": 82}, {"time": 30721, "pitch": 74, "duration": 120, "velocity": 85}, {"time": 30841, "pitch": 69, "duration": 120, "velocity": 81}, {"time": 30961, "pitch": 67, "duration": 119, "velocity": 75}, {"time": 31080, "pitch": 64, "duration": 120, "velocity": 67}, {"time": 31320, "pitch": 65, "duration": 120, "velocity": 82}, {"time": 31440, "pitch": 69, "duration": 120, "velocity": 88}, {"time": 31560, "pitch": 72, "duration": 120, "velocity": 86}, {"time": 31680, "pitch": 74, "duration": 120, "velocity": 90}, {"time": 31800, "pitch": 72, "duration": 120, "velocity": 83}, {"time": 31920, "pitch": 69, "duration": 120, "velocity": 82}, {"time": 32040, "pitch": 65, "duration": 120, "velocity": 78}, {"time": 32280, "pitch": 64, "duration": 120, "velocity": 77}, {"time": 32400, "pitch": 67, "duration": 119, "velocity": 85}, {"time": 32519, "pitch": 69, "duration": 120, "velocity": 88}, {"time": 32639, "pitch": 74, "duration": 120, "velocity": 80}, {"time": 32759, "pitch": 69, "duration": 120, "velocity": 82}, {"time": 32879, "pitch": 67, "duration": 120, "velocity": 75}, {"time": 32999, "pitch": 64, "duration": 120, "velocity": 70}, {"time": 33239, "pitch": 65, "duration": 120, "velocity": 85}, {"time": 33359, "pitch": 69, "duration": 120, "velocity": 90}, {"time": 33479, "pitch": 72, "duration": 120, "velocity": 84}, {"time": 33599, "pitch": 74, "duration": 120, "velocity": 86}, {"time": 33719, "pitch": 72, "duration": 119, "velocity": 84}, {"time": 33838, "pitch": 69, "duration": 120, "velocity": 82}, {"time": 33958, "pitch": 65, "duration": 120, "velocity": 84}, {"time": 34198, "pitch": 64, "duration": 120, "velocity": 80}, {"time": 34318, "pitch": 67, "duration": 120, "velocity": 86}, {"time": 34438, "pitch": 69, "duration": 120, "velocity": 88}, {"time": 34558, "pitch": 74, "duration": 120, "velocity": 89}, {"time": 34678, "pitch": 69, "duration": 120, "velocity": 87}, {"time": 34798, "pitch": 67, "duration": 120, "velocity": 80}, {"time": 34918, "pitch": 64, "duration": 120, "velocity": 76}, {"time": 35157, "pitch": 65, "duration": 120, "velocity": 82}, {"time": 35277, "pitch": 69, "duration": 120, "velocity": 88}, {"time": 35397, "pitch": 72, "duration": 120, "velocity": 90}, {"time": 35517, "pitch": 74, "duration": 122, "velocity": 93}, {"time": 35639, "pitch": 72, "duration": 121, "velocity": 85}, {"time": 35760, "pitch": 69, "duration": 122, "velocity": 82}, {"time": 35882, "pitch": 65, "duration": 121, "velocity": 80}, {"time": 36123, "pitch": 64, "duration": 120, "velocity": 75}, {"time": 36243, "pitch": 67, "duration": 120, "velocity": 85}, {"time": 36363, "pitch": 69, "duration": 120, "velocity": 87}, {"time": 36483, "pitch": 74, "duration": 119, "velocity": 90}, {"time": 36602, "pitch": 69, "duration": 120, "velocity": 88}, {"time": 36722, "pitch": 67, "duration": 120, "velocity": 79}, {"time": 36842, "pitch": 64, "duration": 120, "velocity": 72}, {"time": 37082, "pitch": 65, "duration": 120, "velocity": 74}, {"time": 37202, "pitch": 69, "duration": 120, "velocity": 84}, {"time": 37322, "pitch": 72, "duration": 120, "velocity": 88}, {"time": 37442, "pitch": 74, "duration": 120, "velocity": 91}, {"time": 37562, "pitch": 72, "duration": 120, "velocity": 85}, {"time": 37682, "pitch": 69, "duration": 120, "velocity": 82}, {"time": 37802, "pitch": 65, "duration": 120, "velocity": 81}, {"time": 38041, "pitch": 64, "duration": 120, "velocity": 80}, {"time": 38161, "pitch": 67, "duration": 120, "velocity": 86}, {"time": 38281, "pitch": 69, "duration": 120, "velocity": 88}, {"time": 38401, "pitch": 74, "duration": 120, "velocity": 84}, {"time": 38521, "pitch": 69, "duration": 120, "velocity": 86}, {"time": 38641, "pitch": 67, "duration": 120, "velocity": 80}, {"time": 38761, "pitch": 64, "duration": 120, "velocity": 74}, {"time": 39001, "pitch": 65, "duration": 120, "velocity": 81}, {"time": 39121, "pitch": 69, "duration": 120, "velocity": 85}, {"time": 39241, "pitch": 72, "duration": 119, "velocity": 83}, {"time": 39360, "pitch": 74, "duration": 120, "velocity": 89}, {"time": 39480, "pitch": 72, "duration": 120, "velocity": 84}, {"time": 39600, "pitch": 69, "duration": 120, "velocity": 81}, {"time": 39720, "pitch": 65, "duration": 120, "velocity": 78}, {"time": 39960, "pitch": 64, "duration": 120, "velocity": 80}, {"time": 40080, "pitch": 67, "duration": 120, "velocity": 85}, {"time": 40200, "pitch": 69, "duration": 120, "velocity": 90}, {"time": 40320, "pitch": 74, "duration": 120, "velocity": 87}, {"time": 40440, "pitch": 69, "duration": 120, "velocity": 85}, {"time": 40560, "pitch": 67, "duration": 120, "velocity": 80}, {"time": 40680, "pitch": 64, "duration": 119, "velocity": 70}, {"time": 40919, "pitch": 62, "duration": 120, "velocity": 80}, {"time": 41039, "pitch": 65, "duration": 120, "velocity": 91}, {"time": 41159, "pitch": 69, "duration": 120, "velocity": 92}, {"time": 41279, "pitch": 72, "duration": 120, "velocity": 89}, {"time": 41399, "pitch": 69, "duration": 120, "velocity": 85}, {"time": 41519, "pitch": 65, "duration": 120, "velocity": 79}, {"time": 41639, "pitch": 62, "duration": 120, "velocity": 70}, {"time": 41879, "pitch": 62, "duration": 120, "velocity": 82}, {"time": 41999, "pitch": 65, "duration": 119, "velocity": 86}, {"time": 42118, "pitch": 69, "duration": 120, "velocity": 88}, {"time": 42238, "pitch": 72, "duration": 120, "velocity": 92}, {"time": 42358, "pitch": 68, "duration": 120, "velocity": 87}, {"time": 42478, "pitch": 65, "duration": 120, "velocity": 83}, {"time": 42598, "pitch": 61, "duration": 120, "velocity": 73}, {"time": 42838, "pitch": 59, "duration": 120, "velocity": 81}, {"time": 42958, "pitch": 62, "duration": 120, "velocity": 84}, {"time": 43078, "pitch": 64, "duration": 120, "velocity": 80}, {"time": 43198, "pitch": 67, "duration": 120, "velocity": 83}, {"time": 43318, "pitch": 62, "duration": 119, "velocity": 75}, {"time": 43437, "pitch": 64, "duration": 120, "velocity": 78}, {"time": 43557, "pitch": 67, "duration": 120, "velocity": 81}, {"time": 43677, "pitch": 71, "duration": 122, "velocity": 85}, {"time": 43799, "pitch": 64, "duration": 121, "velocity": 76}, {"time": 43920, "pitch": 67, "duration": 122, "velocity": 82}, {"time": 44042, "pitch": 71, "duration": 121, "velocity": 77}, {"time": 44163, "pitch": 76, "duration": 1379, "velocity": 72}, {"time": 60117, "pitch": 65, "duration": 120, "velocity": 75}, {"time": 60237, "pitch": 69, "duration": 120, "velocity": 82}, {"time": 60357, "pitch": 72, "duration": 120, "velocity": 88}, {"time": 60477, "pitch": 74, "duration": 122, "velocity": 90}, {"time": 60599, "pitch": 72, "duration": 121, "velocity": 83}, {"time": 60720, "pitch": 69, "duration": 121, "velocity": 84}, {"time": 60841, "pitch": 65, "duration": 122, "velocity": 79}, {"time": 61083, "pitch": 64, "duration": 120, "velocity": 79}, {"time": 61203, "pitch": 67, "duration": 120, "velocity": 88}, {"time": 61323, "pitch": 69, "duration": 120, "velocity": 90}, {"time": 61443, "pitch": 74, "duration": 119, "velocity": 91}, {"time": 61562, "pitch": 69, "duration": 120, "velocity": 87}, {"time": 61682, "pitch": 67, "duration": 120, "velocity": 80}, {"time": 61802, "pitch": 64, "duration": 120, "velocity": 75}, {"time": 62042, "pitch": 65, "duration": 120, "velocity": 85}, {"time": 62162, "pitch": 69, "duration": 120, "velocity": 88}, {"time": 62282, "pitch": 72, "duration": 120, "velocity": 86}, {"time": 62402, "pitch": 74, "duration": 120, "velocity": 91}, {"time": 62522, "pitch": 72, "duration": 120, "velocity": 88}, {"time": 62642, "pitch": 69, "duration": 120, "velocity": 86}, {"time": 62762, "pitch": 65, "duration": 119, "velocity": 83}, {"time": 63001, "pitch": 64, "duration": 120, "velocity": 79}, {"time": 63121, "pitch": 67, "duration": 120, "velocity": 85}, {"time": 63241, "pitch": 69, "duration": 120, "velocity": 88}, {"time": 63361, "pitch": 74, "duration": 120, "velocity": 89}, {"time": 63481, "pitch": 69, "duration": 120, "velocity": 85}, {"time": 63601, "pitch": 67, "duration": 120, "velocity": 82}, {"time": 63721, "pitch": 64, "duration": 120, "velocity": 76}, {"time": 63961, "pitch": 65, "duration": 120, "velocity": 80}, {"time": 64081, "pitch": 69, "duration": 119, "velocity": 83}, {"time": 64200, "pitch": 72, "duration": 120, "velocity": 82}, {"time": 64320, "pitch": 74, "duration": 120, "velocity": 89}, {"time": 64440, "pitch": 72, "duration": 120, "velocity": 86}, {"time": 64560, "pitch": 69, "duration": 120, "velocity": 82}, {"time": 64680, "pitch": 65, "duration": 120, "velocity": 80}, {"time": 64920, "pitch": 64, "duration": 120, "velocity": 82}, {"time": 65040, "pitch": 67, "duration": 120, "velocity": 84}, {"time": 65160, "pitch": 69, "duration": 120, "velocity": 88}, {"time": 65280, "pitch": 74, "duration": 120, "velocity": 91}, {"time": 65400, "pitch": 69, "duration": 120, "velocity": 85}, {"time": 65520, "pitch": 67, "duration": 119, "velocity": 83}, {"time": 65639, "pitch": 64, "duration": 120, "velocity": 82}, {"time": 65879, "pitch": 65, "duration": 120, "velocity": 80}, {"time": 65999, "pitch": 69, "duration": 120, "velocity": 82}, {"time": 66119, "pitch": 72, "duration": 120, "velocity": 84}, {"time": 66239, "pitch": 74, "duration": 120, "velocity": 88}, {"time": 66359, "pitch": 72, "duration": 120, "velocity": 85}, {"time": 66479, "pitch": 69, "duration": 120, "velocity": 82}, {"time": 66599, "pitch": 65, "duration": 120, "velocity": 80}, {"time": 66839, "pitch": 64, "duration": 119, "velocity": 81}, {"time": 66958, "pitch": 67, "duration": 120, "velocity": 83}, {"time": 67078, "pitch": 69, "duration": 120, "velocity": 85}, {"time": 67198, "pitch": 74, "duration": 120, "velocity": 88}, {"time": 67318, "pitch": 69, "duration": 120, "velocity": 83}, {"time": 67438, "pitch": 67, "duration": 120, "velocity": 80}, {"time": 67558, "pitch": 64, "duration": 120, "velocity": 77}, {"time": 67798, "pitch": 65, "duration": 120, "velocity": 82}, {"time": 67918, "pitch": 69, "duration": 120, "velocity": 84}, {"time": 68038, "pitch": 72, "duration": 120, "velocity": 87}, {"time": 68158, "pitch": 74, "duration": 120, "velocity": 90}, {"time": 68278, "pitch": 72, "duration": 119, "velocity": 85}, {"time": 68397, "pitch": 69, "duration": 120, "velocity": 83}, {"time": 68517, "pitch": 65, "duration": 120, "velocity": 84}, {"time": 68759, "pitch": 64, "duration": 121, "velocity": 79}, {"time": 68880, "pitch": 67, "duration": 122, "velocity": 88}, {"time": 69002, "pitch": 69, "duration": 121, "velocity": 92}, {"time": 69123, "pitch": 74, "duration": 120, "velocity": 89}, {"time": 69243, "pitch": 69, "duration": 120, "velocity": 85}, {"time": 69363, "pitch": 67, "duration": 120, "velocity": 81}, {"time": 69483, "pitch": 64, "duration": 120, "velocity": 77}, {"time": 69723, "pitch": 65, "duration": 119, "velocity": 83}, {"time": 69842, "pitch": 69, "duration": 120, "velocity": 86}, {"time": 69962, "pitch": 72, "duration": 120, "velocity": 89}, {"time": 70082, "pitch": 74, "duration": 120, "velocity": 92}, {"time": 70202, "pitch": 72, "duration": 120, "velocity": 86}, {"time": 70322, "pitch": 69, "duration": 120, "velocity": 84}, {"time": 70442, "pitch": 65, "duration": 120, "velocity": 80}, {"time": 70682, "pitch": 64, "duration": 120, "velocity": 84}, {"time": 70802, "pitch": 67, "duration": 120, "velocity": 87}, {"time": 70922, "pitch": 69, "duration": 120, "velocity": 90}, {"time": 71042, "pitch": 74, "duration": 119, "velocity": 92}, {"time": 71161, "pitch": 69, "duration": 120, "velocity": 87}, {"time": 71281, "pitch": 67, "duration": 120, "velocity": 80}, {"time": 71401, "pitch": 64, "duration": 120, "velocity": 75}, {"time": 71641, "pitch": 65, "duration": 120, "velocity": 84}, {"time": 71761, "pitch": 69, "duration": 120, "velocity": 90}, {"time": 71881, "pitch": 72, "duration": 120, "velocity": 87}, {"time": 72001, "pitch": 76, "duration": 120, "velocity": 92}, {"time": 72121, "pitch": 72, "duration": 120, "velocity": 89}, {"time": 72241, "pitch": 69, "duration": 120, "velocity": 83}, {"time": 72361, "pitch": 65, "duration": 120, "velocity": 82}, {"time": 72600, "pitch": 64, "duration": 120, "velocity": 81}, {"time": 72720, "pitch": 67, "duration": 120, "velocity": 86}, {"time": 72840, "pitch": 71, "duration": 120, "velocity": 89}, {"time": 72960, "pitch": 74, "duration": 120, "velocity": 91}, {"time": 73080, "pitch": 71, "duration": 120, "velocity": 87}, {"time": 73200, "pitch": 67, "duration": 120, "velocity": 83}, {"time": 73320, "pitch": 64, "duration": 120, "velocity": 73}, {"time": 73560, "pitch": 62, "duration": 120, "velocity": 83}, {"time": 73680, "pitch": 65, "duration": 120, "velocity": 86}, {"time": 73800, "pitch": 69, "duration": 119, "velocity": 88}, {"time": 73919, "pitch": 72, "duration": 120, "velocity": 92}, {"time": 74039, "pitch": 69, "duration": 120, "velocity": 86}, {"time": 74159, "pitch": 65, "duration": 120, "velocity": 81}, {"time": 74279, "pitch": 62, "duration": 120, "velocity": 76}, {"time": 74519, "pitch": 62, "duration": 120, "velocity": 81}, {"time": 74639, "pitch": 65, "duration": 120, "velocity": 86}, {"time": 74759, "pitch": 69, "duration": 120, "velocity": 88}, {"time": 74879, "pitch": 72, "duration": 120, "velocity": 92}, {"time": 74999, "pitch": 68, "duration": 120, "velocity": 89}, {"time": 75119, "pitch": 65, "duration": 119, "velocity": 87}, {"time": 75238, "pitch": 61, "duration": 120, "velocity": 83}, {"time": 75478, "pitch": 59, "duration": 120, "velocity": 75}, {"time": 75598, "pitch": 62, "duration": 120, "velocity": 78}, {"time": 75718, "pitch": 64, "duration": 120, "velocity": 79}, {"time": 75838, "pitch": 67, "duration": 120, "velocity": 84}, {"time": 75958, "pitch": 62, "duration": 120, "velocity": 80}, {"time": 76078, "pitch": 64, "duration": 120, "velocity": 75}, {"time": 76198, "pitch": 67, "duration": 120, "velocity": 81}, {"time": 76318, "pitch": 71, "duration": 120, "velocity": 84}, {"time": 76438, "pitch": 64, "duration": 120, "velocity": 78}, {"time": 76558, "pitch": 67, "duration": 119, "velocity": 79}, {"time": 76677, "pitch": 71, "duration": 120, "velocity": 77}, {"time": 76797, "pitch": 76, "duration": 1995, "velocity": 68}, {"time": 118800, "pitch": 68, "duration": 223, "velocity": 81}, {"time": 119043, "pitch": 75, "duration": 220, "velocity": 90}, {"time": 119283, "pitch": 73, "duration": 220, "velocity": 86}, {"time": 119522, "pitch": 82, "duration": 220, "velocity": 84}, {"time": 119762, "pitch": 80, "duration": 220, "velocity": 79}, {"time": 120002, "pitch": 87, "duration": 220, "velocity": 85}, {"time": 120242, "pitch": 85, "duration": 220, "velocity": 81}, {"time": 120482, "pitch": 92, "duration": 959, "velocity": 80}, {"time": 479, "pitch": 81, "duration": 1708, "velocity": 74}, {"time": 2157, "pitch": 76, "duration": 110, "velocity": 64}, {"time": 2277, "pitch": 74, "duration": 130, "velocity": 70}, {"time": 2397, "pitch": 76, "duration": 1445, "velocity": 66}, {"time": 3842, "pitch": 71, "duration": 480, "velocity": 71}, {"time": 4322, "pitch": 69, "duration": 1689, "velocity": 70}, {"time": 6001, "pitch": 64, "duration": 140, "velocity": 59}, {"time": 6121, "pitch": 62, "duration": 129, "velocity": 65}, {"time": 6240, "pitch": 64, "duration": 1539, "velocity": 64}, {"time": 8159, "pitch": 46, "duration": 3843, "velocity": 52}, {"time": 8159, "pitch": 53, "duration": 3843, "velocity": 56}, {"time": 8159, "pitch": 57, "duration": 3843, "velocity": 60}, {"time": 8159, "pitch": 64, "duration": 3843, "velocity": 70}, {"time": 19683, "pitch": 60, "duration": 719, "velocity": 83}, {"time": 20402, "pitch": 59, "duration": 250, "velocity": 82}, {"time": 20642, "pitch": 58, "duration": 949, "velocity": 81}, {"time": 21601, "pitch": 57, "duration": 480, "velocity": 81}, {"time": 22081, "pitch": 69, "duration": 480, "velocity": 88}, {"time": 22561, "pitch": 67, "duration": 479, "velocity": 85}, {"time": 23040, "pitch": 66, "duration": 480, "velocity": 76}, {"time": 23520, "pitch": 65, "duration": 1919, "velocity": 77}, {"time": 25439, "pitch": 64, "duration": 1518, "velocity": 79}, {"time": 51358, "pitch": 67, "duration": 240, "velocity": 83}, {"time": 51598, "pitch": 69, "duration": 239, "velocity": 81}, {"time": 51837, "pitch": 71, "duration": 240, "velocity": 85}, {"time": 52077, "pitch": 67, "duration": 240, "velocity": 80}, {"time": 52317, "pitch": 72, "duration": 726, "velocity": 85}, {"time": 53043, "pitch": 71, "duration": 239, "velocity": 82}, {"time": 53282, "pitch": 70, "duration": 960, "velocity": 78}, {"time": 54242, "pitch": 69, "duration": 939, "velocity": 88}, {"time": 55201, "pitch": 67, "duration": 480, "velocity": 85}, {"time": 55681, "pitch": 66, "duration": 489, "velocity": 81}, {"time": 56160, "pitch": 65, "duration": 1929, "velocity": 83}, {"time": 58079, "pitch": 64, "duration": 1539, "velocity": 75}, {"time": 94563, "pitch": 81, "duration": 1708, "velocity": 74}, {"time": 96241, "pitch": 76, "duration": 110, "velocity": 64}, {"time": 96361, "pitch": 74, "duration": 130, "velocity": 70}, {"time": 96481, "pitch": 76, "duration": 1439, "velocity": 66}, {"time": 97920, "pitch": 71, "duration": 480, "velocity": 71}, {"time": 98400, "pitch": 69, "duration": 1688, "velocity": 70}, {"time": 100079, "pitch": 64, "duration": 139, "velocity": 59}, {"time": 100198, "pitch": 62, "duration": 130, "velocity": 65}, {"time": 100318, "pitch": 64, "duration": 1540, "velocity": 64}, {"time": 102243, "pitch": 46, "duration": 3837, "velocity": 52}, {"time": 102243, "pitch": 53, "duration": 3837, "velocity": 56}, {"time": 102243, "pitch": 57, "duration": 3837, "velocity": 60}, {"time": 102243, "pitch": 64, "duration": 3837, "velocity": 70}, {"time": 113761, "pitch": 60, "duration": 719, "velocity": 83}, {"time": 114480, "pitch": 59, "duration": 250, "velocity": 82}, {"time": 114720, "pitch": 58, "duration": 949, "velocity": 81}, {"time": 115679, "pitch": 57, "duration": 480, "velocity": 81}, {"time": 116159, "pitch": 69, "duration": 480, "velocity": 88}, {"time": 116639, "pitch": 67, "duration": 479, "velocity": 85}, {"time": 117118, "pitch": 66, "duration": 480, "velocity": 76}, {"time": 117598, "pitch": 65, "duration": 3453, "velocity": 77}, {"time": 7200, "pitch": 46, "duration": 10, "velocity": 18}, {"time": 7240, "pitch": 46, "duration": 10, "velocity": 38}, {"time": 7280, "pitch": 46, "duration": 10, "velocity": 43}, {"time": 7320, "pitch": 46, "duration": 10, "velocity": 38}, {"time": 7360, "pitch": 46, "duration": 10, "velocity": 43}, {"time": 7400, "pitch": 46, "duration": 10, "velocity": 39}, {"time": 7440, "pitch": 46, "duration": 10, "velocity": 45}, {"time": 7480, "pitch": 46, "duration": 10, "velocity": 41}, {"time": 7520, "pitch": 46, "duration": 10, "velocity": 42}, {"time": 7559, "pitch": 46, "duration": 10, "velocity": 44}, {"time": 7599, "pitch": 46, "duration": 10, "velocity": 48}, {"time": 7639, "pitch": 46, "duration": 10, "velocity": 48}, {"time": 7679, "pitch": 46, "duration": 10, "velocity": 50}, {"time": 7719, "pitch": 46, "duration": 10, "velocity": 55}, {"time": 7759, "pitch": 46, "duration": 10, "velocity": 53}, {"time": 7799, "pitch": 46, "duration": 10, "velocity": 56}, {"time": 7839, "pitch": 46, "duration": 10, "velocity": 60}, {"time": 7879, "pitch": 46, "duration": 10, "velocity": 65}, {"time": 7919, "pitch": 46, "duration": 10, "velocity": 62}, {"time": 7959, "pitch": 46, "duration": 10, "velocity": 68}, {"time": 7999, "pitch": 46, "duration": 10, "velocity": 66}, {"time": 8039, "pitch": 46, "duration": 10, "velocity": 69}, {"time": 8079, "pitch": 46, "duration": 10, "velocity": 70}, {"time": 8119, "pitch": 46, "duration": 10, "velocity": 76}, {"time": 8159, "pitch": 36, "duration": 10, "velocity": 92}, {"time": 8159, "pitch": 49, "duration": 10, "velocity": 64}, {"time": 18957, "pitch": 42, "duration": 10, "velocity": 64}, {"time": 19197, "pitch": 46, "duration": 10, "velocity": 64}, {"time": 19683, "pitch": 36, "duration": 10, "velocity": 106}, {"time": 19683, "pitch": 42, "duration": 10, "velocity": 64}, {"time": 20162, "pitch": 37, "duration": 10, "velocity": 78}, {"time": 20162, "pitch": 42, "duration": 10, "velocity": 50}, {"time": 20402, "pitch": 36, "duration": 10, "velocity": 78}, {"time": 20642, "pitch": 36, "duration": 10, "velocity": 106}, {"time": 20642, "pitch": 42, "duration": 10, "velocity": 50}, {"time": 21122, "pitch": 37, "duration": 10, "velocity": 78}, {"time": 21122, "pitch": 42, "duration": 10, "velocity": 50}, {"time": 21601, "pitch": 36, "duration": 10, "velocity": 106}, {"time": 21601, "pitch": 42, "duration": 10, "velocity": 64}, {"time": 22081, "pitch": 37, "duration": 10, "velocity": 78}, {"time": 22081, "pitch": 42, "duration": 10, "velocity": 50}, {"time": 22321, "pitch": 36, "duration": 10, "velocity": 78}, {"time": 22561, "pitch": 36, "duration": 10, "velocity": 106}, {"time": 22561, "pitch": 42, "duration": 10, "velocity": 50}, {"time": 23040, "pitch": 37, "duration": 10, "velocity": 78}, {"time": 23040, "pitch": 42, "duration": 10, "velocity": 50}, {"time": 23520, "pitch": 36, "duration": 10, "velocity": 106}, {"time": 23520, "pitch": 51, "duration": 10, "velocity": 78}, {"time": 24479, "pitch": 36, "duration": 10, "velocity": 106}, {"time": 24479, "pitch": 49, "duration": 10, "velocity": 36}, {"time": 25439, "pitch": 36, "duration": 10, "velocity": 106}, {"time": 25439, "pitch": 42, "duration": 10, "velocity": 64}, {"time": 25918, "pitch": 37, "duration": 10, "velocity": 78}, {"time": 25918, "pitch": 42, "duration": 10, "velocity": 50}, {"time": 26158, "pitch": 36, "duration": 10, "velocity": 78}, {"time": 26398, "pitch": 36, "duration": 10, "velocity": 106}, {"time": 26398, "pitch": 42, "duration": 10, "velocity": 64}, {"time": 26877, "pitch": 48, "duration": 10, "velocity": 50}, {"time": 27117, "pitch": 41, "duration": 10, "velocity": 78}, {"time": 27357, "pitch": 36, "duration": 10, "velocity": 106}, {"time": 27357, "pitch": 45, "duration": 10, "velocity": 50}, {"time": 27600, "pitch": 42, "duration": 10, "velocity": 36}, {"time": 27843, "pitch": 37, "duration": 10, "velocity": 78}, {"time": 27843, "pitch": 42, "duration": 10, "velocity": 64}, {"time": 28322, "pitch": 36, "duration": 10, "velocity": 106}, {"time": 28322, "pitch": 45, "duration": 10, "velocity": 50}, {"time": 28562, "pitch": 42, "duration": 10, "velocity": 36}, {"time": 28802, "pitch": 37, "duration": 10, "velocity": 78}, {"time": 28802, "pitch": 42, "duration": 10, "velocity": 64}, {"time": 29282, "pitch": 36, "duration": 10, "velocity": 106}, {"time": 29282, "pitch": 45, "duration": 10, "velocity": 50}, {"time": 29522, "pitch": 42, "duration": 10, "velocity": 36}, {"time": 29761, "pitch": 37, "duration": 10, "velocity": 78}, {"time": 29761, "pitch": 42, "duration": 10, "velocity": 64}, {"time": 30241, "pitch": 36, "duration": 10, "velocity": 106}, {"time": 30241, "pitch": 45, "duration": 10, "velocity": 50}, {"time": 30481, "pitch": 42, "duration": 10, "velocity": 36}, {"time": 30721, "pitch": 37, "duration": 10, "velocity": 78}, {"time": 30721, "pitch": 42, "duration": 10, "velocity": 64}, {"time": 31200, "pitch": 36, "duration": 10, "velocity": 106}, {"time": 31200, "pitch": 45, "duration": 10, "velocity": 50}, {"time": 31440, "pitch": 42, "duration": 10, "velocity": 36}, {"time": 31680, "pitch": 37, "duration": 10, "velocity": 78}, {"time": 31680, "pitch": 42, "duration": 10, "velocity": 64}, {"time": 32160, "pitch": 36, "duration": 10, "velocity": 106}, {"time": 32160, "pitch": 45, "duration": 10, "velocity": 50}, {"time": 32400, "pitch": 42, "duration": 9, "velocity": 36}, {"time": 32639, "pitch": 37, "duration": 10, "velocity": 78}, {"time": 32639, "pitch": 42, "duration": 10, "velocity": 64}, {"time": 33119, "pitch": 36, "duration": 10, "velocity": 106}, {"time": 33119, "pitch": 45, "duration": 10, "velocity": 50}, {"time": 33359, "pitch": 42, "duration": 10, "velocity": 36}, {"time": 33599, "pitch": 37, "duration": 10, "velocity": 78}, {"time": 33599, "pitch": 42, "duration": 10, "velocity": 64}, {"time": 34078, "pitch": 36, "duration": 10, "velocity": 106}, {"time": 34078, "pitch": 45, "duration": 10, "velocity": 50}, {"time": 34318, "pitch": 42, "duration": 10, "velocity": 36}, {"time": 34558, "pitch": 37, "duration": 10, "velocity": 78}, {"time": 34558, "pitch": 42, "duration": 10, "velocity": 64}, {"time": 35038, "pitch": 36, "duration": 10, "velocity": 106}, {"time": 35038, "pitch": 45, "duration": 10, "velocity": 50}, {"time": 35277, "pitch": 42, "duration": 10, "velocity": 36}, {"time": 35517, "pitch": 37, "duration": 10, "velocity": 78}, {"time": 35517, "pitch": 42, "duration": 10, "velocity": 64}, {"time": 36003, "pitch": 36, "duration": 110, "velocity": 106}, {"time": 36003, "pitch": 45, "duration": 10, "velocity": 50}, {"time": 36243, "pitch": 42, "duration": 10, "velocity": 36}, {"time": 36483, "pitch": 37, "duration": 10, "velocity": 78}, {"time": 36483, "pitch": 42, "duration": 10, "velocity": 64}, {"time": 36962, "pitch": 36, "duration": 10, "velocity": 106}, {"time": 36962, "pitch": 45, "duration": 10, "velocity": 50}, {"time": 37202, "pitch": 42, "duration": 10, "velocity": 36}, {"time": 37442, "pitch": 37, "duration": 10, "velocity": 78}, {"time": 37442, "pitch": 42, "duration": 10, "velocity": 64}, {"time": 37922, "pitch": 36, "duration": 10, "velocity": 106}, {"time": 37922, "pitch": 45, "duration": 10, "velocity": 50}, {"time": 38161, "pitch": 42, "duration": 10, "velocity": 36}, {"time": 38401, "pitch": 37, "duration": 10, "velocity": 78}, {"time": 38401, "pitch": 42, "duration": 10, "velocity": 64}, {"time": 38881, "pitch": 36, "duration": 10, "velocity": 106}, {"time": 38881, "pitch": 45, "duration": 10, "velocity": 50}, {"time": 39121, "pitch": 42, "duration": 10, "velocity": 36}, {"time": 39360, "pitch": 37, "duration": 10, "velocity": 78}, {"time": 39360, "pitch": 42, "duration": 10, "velocity": 64}, {"time": 39840, "pitch": 36, "duration": 10, "velocity": 106}, {"time": 39840, "pitch": 45, "duration": 10, "velocity": 50}, {"time": 40080, "pitch": 42, "duration": 10, "velocity": 36}, {"time": 40320, "pitch": 37, "duration": 10, "velocity": 78}, {"time": 40320, "pitch": 42, "duration": 10, "velocity": 64}, {"time": 40799, "pitch": 36, "duration": 10, "velocity": 106}, {"time": 40799, "pitch": 51, "duration": 10, "velocity": 78}, {"time": 41279, "pitch": 42, "duration": 10, "velocity": 50}, {"time": 41759, "pitch": 42, "duration": 10, "velocity": 50}, {"time": 42238, "pitch": 36, "duration": 10, "velocity": 58}, {"time": 42238, "pitch": 46, "duration": 10, "velocity": 18}, {"time": 42278, "pitch": 46, "duration": 10, "velocity": 32}, {"time": 42318, "pitch": 46, "duration": 10, "velocity": 46}, {"time": 42358, "pitch": 46, "duration": 10, "velocity": 32}, {"time": 42398, "pitch": 46, "duration": 10, "velocity": 46}, {"time": 42438, "pitch": 46, "duration": 10, "velocity": 32}, {"time": 42478, "pitch": 46, "duration": 10, "velocity": 46}, {"time": 42518, "pitch": 46, "duration": 10, "velocity": 32}, {"time": 42558, "pitch": 46, "duration": 10, "velocity": 46}, {"time": 42598, "pitch": 46, "duration": 10, "velocity": 32}, {"time": 42638, "pitch": 46, "duration": 10, "velocity": 46}, {"time": 42678, "pitch": 46, "duration": 10, "velocity": 32}, {"time": 42718, "pitch": 36, "duration": 10, "velocity": 106}, {"time": 42718, "pitch": 42, "duration": 10, "velocity": 64}, {"time": 42718, "pitch": 49, "duration": 10, "velocity": 46}, {"time": 43198, "pitch": 48, "duration": 10, "velocity": 50}, {"time": 43437, "pitch": 45, "duration": 10, "velocity": 64}, {"time": 43920, "pitch": 45, "duration": 10, "velocity": 64}, {"time": 44163, "pitch": 41, "duration": 10, "velocity": 78}, {"time": 44643, "pitch": 36, "duration": 10, "velocity": 106}, {"time": 44643, "pitch": 42, "duration": 10, "velocity": 64}, {"time": 44883, "pitch": 42, "duration": 10, "velocity": 36}, {"time": 45122, "pitch": 38, "duration": 10, "velocity": 78}, {"time": 45122, "pitch": 42, "duration": 10, "velocity": 50}, {"time": 45362, "pitch": 36, "duration": 10, "velocity": 78}, {"time": 45362, "pitch": 42, "duration": 10, "velocity": 36}, {"time": 45602, "pitch": 36, "duration": 10, "velocity": 106}, {"time": 45602, "pitch": 42, "duration": 10, "velocity": 64}, {"time": 45842, "pitch": 42, "duration": 10, "velocity": 36}, {"time": 46082, "pitch": 38, "duration": 10, "velocity": 78}, {"time": 46082, "pitch": 42, "duration": 10, "velocity": 50}, {"time": 46321, "pitch": 36, "duration": 10, "velocity": 78}, {"time": 46321, "pitch": 42, "duration": 10, "velocity": 36}, {"time": 46561, "pitch": 36, "duration": 10, "velocity": 106}, {"time": 46561, "pitch": 42, "duration": 10, "velocity": 64}, {"time": 46801, "pitch": 42, "duration": 10, "velocity": 36}, {"time": 47041, "pitch": 38, "duration": 10, "velocity": 78}, {"time": 47041, "pitch": 42, "duration": 10, "velocity": 50}, {"time": 47281, "pitch": 36, "duration": 10, "velocity": 78}, {"time": 47281, "pitch": 42, "duration": 10, "velocity": 36}, {"time": 47521, "pitch": 36, "duration": 10, "velocity": 106}, {"time": 47521, "pitch": 42, "duration": 10, "velocity": 64}, {"time": 47760, "pitch": 42, "duration": 10, "velocity": 36}, {"time": 48000, "pitch": 38, "duration": 10, "velocity": 78}, {"time": 48000, "pitch": 42, "duration": 10, "velocity": 50}, {"time": 48240, "pitch": 42, "duration": 10, "velocity": 36}, {"time": 48480, "pitch": 36, "duration": 10, "velocity": 106}, {"time": 48480, "pitch": 42, "duration": 10, "velocity": 64}, {"time": 48720, "pitch": 42, "duration": 10, "velocity": 36}, {"time": 48960, "pitch": 38, "duration": 10, "velocity": 78}, {"time": 48960, "pitch": 42, "duration": 10, "velocity": 50}, {"time": 49199, "pitch": 36, "duration": 10, "velocity": 78}, {"time": 49199, "pitch": 42, "duration": 10, "velocity": 36}, {"time": 49439, "pitch": 36, "duration": 10, "velocity": 106}, {"time": 49439, "pitch": 42, "duration": 10, "velocity": 64}, {"time": 49679, "pitch": 42, "duration": 10, "velocity": 36}, {"time": 49919, "pitch": 38, "duration": 10, "velocity": 78}, {"time": 49919, "pitch": 42, "duration": 10, "velocity": 50}, {"time": 50159, "pitch": 36, "duration": 10, "velocity": 78}, {"time": 50159, "pitch": 42, "duration": 10, "velocity": 36}, {"time": 50398, "pitch": 36, "duration": 10, "velocity": 106}, {"time": 50398, "pitch": 42, "duration": 10, "velocity": 64}, {"time": 50638, "pitch": 42, "duration": 10, "velocity": 36}, {"time": 50878, "pitch": 38, "duration": 10, "velocity": 78}, {"time": 50878, "pitch": 42, "duration": 10, "velocity": 50}, {"time": 51118, "pitch": 36, "duration": 10, "velocity": 78}, {"time": 51118, "pitch": 42, "duration": 10, "velocity": 36}, {"time": 51358, "pitch": 36, "duration": 10, "velocity": 106}, {"time": 51358, "pitch": 42, "duration": 10, "velocity": 64}, {"time": 51598, "pitch": 48, "duration": 10, "velocity": 92}, {"time": 51837, "pitch": 45, "duration": 10, "velocity": 64}, {"time": 52077, "pitch": 41, "duration": 10, "velocity": 50}, {"time": 52317, "pitch": 36, "duration": 10, "velocity": 106}, {"time": 52317, "pitch": 49, "duration": 10, "velocity": 36}, {"time": 52560, "pitch": 42, "duration": 10, "velocity": 36}, {"time": 52803, "pitch": 38, "duration": 10, "velocity": 78}, {"time": 52803, "pitch": 42, "duration": 10, "velocity": 50}, {"time": 53043, "pitch": 36, "duration": 10, "velocity": 78}, {"time": 53043, "pitch": 42, "duration": 10, "velocity": 36}, {"time": 53282, "pitch": 36, "duration": 10, "velocity": 106}, {"time": 53282, "pitch": 42, "duration": 10, "velocity": 64}, {"time": 53522, "pitch": 42, "duration": 10, "velocity": 36}, {"time": 53762, "pitch": 38, "duration": 10, "velocity": 78}, {"time": 53762, "pitch": 42, "duration": 10, "velocity": 50}, {"time": 54002, "pitch": 42, "duration": 10, "velocity": 36}, {"time": 54242, "pitch": 36, "duration": 10, "velocity": 106}, {"time": 54242, "pitch": 42, "duration": 10, "velocity": 64}, {"time": 54482, "pitch": 42, "duration": 10, "velocity": 36}, {"time": 54721, "pitch": 38, "duration": 10, "velocity": 78}, {"time": 54721, "pitch": 42, "duration": 10, "velocity": 50}, {"time": 54961, "pitch": 36, "duration": 10, "velocity": 78}, {"time": 54961, "pitch": 42, "duration": 10, "velocity": 36}, {"time": 55201, "pitch": 36, "duration": 10, "velocity": 106}, {"time": 55201, "pitch": 42, "duration": 10, "velocity": 64}, {"time": 55441, "pitch": 42, "duration": 10, "velocity": 36}, {"time": 55681, "pitch": 36, "duration": 10, "velocity": 106}, {"time": 55681, "pitch": 46, "duration": 10, "velocity": 50}, {"time": 56160, "pitch": 36, "duration": 10, "velocity": 106}, {"time": 56160, "pitch": 42, "duration": 10, "velocity": 64}, {"time": 56400, "pitch": 42, "duration": 10, "velocity": 36}, {"time": 56640, "pitch": 38, "duration": 10, "velocity": 78}, {"time": 56640, "pitch": 42, "duration": 10, "velocity": 50}, {"time": 56880, "pitch": 36, "duration": 10, "velocity": 78}, {"time": 56880, "pitch": 42, "duration": 10, "velocity": 36}, {"time": 57120, "pitch": 36, "duration": 10, "velocity": 106}, {"time": 57120, "pitch": 42, "duration": 10, "velocity": 64}, {"time": 57359, "pitch": 42, "duration": 10, "velocity": 36}, {"time": 57599, "pitch": 38, "duration": 10, "velocity": 78}, {"time": 57599, "pitch": 42, "duration": 10, "velocity": 50}, {"time": 57839, "pitch": 36, "duration": 10, "velocity": 78}, {"time": 57839, "pitch": 42, "duration": 10, "velocity": 36}, {"time": 58079, "pitch": 36, "duration": 10, "velocity": 106}, {"time": 58079, "pitch": 42, "duration": 10, "velocity": 64}, {"time": 58319, "pitch": 42, "duration": 10, "velocity": 36}, {"time": 58559, "pitch": 38, "duration": 10, "velocity": 78}, {"time": 58559, "pitch": 42, "duration": 10, "velocity": 50}, {"time": 58798, "pitch": 36, "duration": 10, "velocity": 78}, {"time": 58798, "pitch": 42, "duration": 10, "velocity": 36}, {"time": 59038, "pitch": 36, "duration": 10, "velocity": 106}, {"time": 59038, "pitch": 51, "duration": 10, "velocity": 64}, {"time": 59518, "pitch": 45, "duration": 10, "velocity": 64}, {"time": 59998, "pitch": 36, "duration": 9, "velocity": 106}, {"time": 59998, "pitch": 45, "duration": 9, "velocity": 50}, {"time": 60237, "pitch": 42, "duration": 10, "velocity": 36}, {"time": 60477, "pitch": 37, "duration": 10, "velocity": 78}, {"time": 60477, "pitch": 42, "duration": 10, "velocity": 64}, {"time": 60963, "pitch": 36, "duration": 10, "velocity": 106}, {"time": 60963, "pitch": 45, "duration": 10, "velocity": 50}, {"time": 61203, "pitch": 42, "duration": 10, "velocity": 36}, {"time": 61443, "pitch": 37, "duration": 10, "velocity": 78}, {"time": 61443, "pitch": 42, "duration": 10, "velocity": 64}, {"time": 61922, "pitch": 36, "duration": 10, "velocity": 106}, {"time": 61922, "pitch": 45, "duration": 10, "velocity": 50}, {"time": 62162, "pitch": 42, "duration": 10, "velocity": 36}, {"time": 62402, "pitch": 37, "duration": 10, "velocity": 78}, {"time": 62402, "pitch": 42, "duration": 10, "velocity": 64}, {"time": 62881, "pitch": 36, "duration": 10, "velocity": 106}, {"time": 62881, "pitch": 45, "duration": 10, "velocity": 50}, {"time": 63121, "pitch": 42, "duration": 10, "velocity": 36}, {"time": 63361, "pitch": 37, "duration": 10, "velocity": 78}, {"time": 63361, "pitch": 42, "duration": 10, "velocity": 64}, {"time": 63841, "pitch": 36, "duration": 10, "velocity": 106}, {"time": 63841, "pitch": 45, "duration": 10, "velocity": 50}, {"time": 64081, "pitch": 42, "duration": 10, "velocity": 36}, {"time": 64320, "pitch": 37, "duration": 10, "velocity": 78}, {"time": 64320, "pitch": 42, "duration": 10, "velocity": 64}, {"time": 64800, "pitch": 36, "duration": 10, "velocity": 106}, {"time": 64800, "pitch": 45, "duration": 10, "velocity": 50}, {"time": 65040, "pitch": 42, "duration": 10, "velocity": 36}, {"time": 65280, "pitch": 37, "duration": 10, "velocity": 78}, {"time": 65280, "pitch": 42, "duration": 10, "velocity": 64}, {"time": 65759, "pitch": 36, "duration": 10, "velocity": 106}, {"time": 65759, "pitch": 45, "duration": 10, "velocity": 50}, {"time": 65999, "pitch": 42, "duration": 10, "velocity": 36}, {"time": 66239, "pitch": 37, "duration": 10, "velocity": 78}, {"time": 66239, "pitch": 42, "duration": 10, "velocity": 64}, {"time": 66719, "pitch": 36, "duration": 10, "velocity": 106}, {"time": 66719, "pitch": 45, "duration": 10, "velocity": 50}, {"time": 66958, "pitch": 42, "duration": 10, "velocity": 36}, {"time": 67198, "pitch": 37, "duration": 10, "velocity": 78}, {"time": 67198, "pitch": 42, "duration": 10, "velocity": 64}, {"time": 67678, "pitch": 36, "duration": 10, "velocity": 106}, {"time": 67678, "pitch": 45, "duration": 10, "velocity": 50}, {"time": 67918, "pitch": 42, "duration": 10, "velocity": 36}, {"time": 68158, "pitch": 37, "duration": 10, "velocity": 78}, {"time": 68158, "pitch": 42, "duration": 10, "velocity": 64}, {"time": 68637, "pitch": 36, "duration": 10, "velocity": 106}, {"time": 68637, "pitch": 45, "duration": 10, "velocity": 50}, {"time": 68880, "pitch": 42, "duration": 10, "velocity": 36}, {"time": 69123, "pitch": 37, "duration": 10, "velocity": 78}, {"time": 69123, "pitch": 42, "duration": 10, "velocity": 64}, {"time": 69603, "pitch": 36, "duration": 10, "velocity": 106}, {"time": 69603, "pitch": 45, "duration": 10, "velocity": 50}, {"time": 69842, "pitch": 42, "duration": 10, "velocity": 36}, {"time": 70082, "pitch": 37, "duration": 10, "velocity": 78}, {"time": 70082, "pitch": 42, "duration": 10, "velocity": 64}, {"time": 70562, "pitch": 36, "duration": 10, "velocity": 106}, {"time": 70562, "pitch": 45, "duration": 10, "velocity": 50}, {"time": 70802, "pitch": 42, "duration": 10, "velocity": 36}, {"time": 71042, "pitch": 37, "duration": 10, "velocity": 78}, {"time": 71042, "pitch": 42, "duration": 10, "velocity": 64}, {"time": 71521, "pitch": 36, "duration": 10, "velocity": 106}, {"time": 71521, "pitch": 45, "duration": 10, "velocity": 50}, {"time": 71761, "pitch": 42, "duration": 10, "velocity": 36}, {"time": 72001, "pitch": 37, "duration": 10, "velocity": 78}, {"time": 72001, "pitch": 42, "duration": 10, "velocity": 64}, {"time": 72481, "pitch": 36, "duration": 9, "velocity": 106}, {"time": 72481, "pitch": 45, "duration": 9, "velocity": 50}, {"time": 72720, "pitch": 42, "duration": 10, "velocity": 36}, {"time": 72960, "pitch": 37, "duration": 10, "velocity": 78}, {"time": 72960, "pitch": 42, "duration": 10, "velocity": 64}, {"time": 73440, "pitch": 36, "duration": 10, "velocity": 106}, {"time": 73440, "pitch": 48, "duration": 10, "velocity": 50}, {"time": 73680, "pitch": 42, "duration": 10, "velocity": 36}, {"time": 73919, "pitch": 37, "duration": 10, "velocity": 78}, {"time": 73919, "pitch": 42, "duration": 10, "velocity": 64}, {"time": 74399, "pitch": 42, "duration": 10, "velocity": 64}, {"time": 74879, "pitch": 36, "duration": 10, "velocity": 106}, {"time": 74879, "pitch": 42, "duration": 10, "velocity": 64}, {"time": 75358, "pitch": 36, "duration": 10, "velocity": 106}, {"time": 75358, "pitch": 49, "duration": 10, "velocity": 36}, {"time": 75398, "pitch": 46, "duration": 10, "velocity": 38}, {"time": 75438, "pitch": 46, "duration": 10, "velocity": 40}, {"time": 75478, "pitch": 46, "duration": 10, "velocity": 38}, {"time": 75518, "pitch": 46, "duration": 10, "velocity": 40}, {"time": 75558, "pitch": 46, "duration": 10, "velocity": 35}, {"time": 75598, "pitch": 46, "duration": 10, "velocity": 37}, {"time": 75638, "pitch": 46, "duration": 10, "velocity": 38}, {"time": 75678, "pitch": 46, "duration": 10, "velocity": 39}, {"time": 75718, "pitch": 46, "duration": 10, "velocity": 41}, {"time": 75758, "pitch": 46, "duration": 10, "velocity": 40}, {"time": 75798, "pitch": 46, "duration": 10, "velocity": 41}, {"time": 75838, "pitch": 46, "duration": 10, "velocity": 42}, {"time": 75878, "pitch": 46, "duration": 10, "velocity": 40}, {"time": 75918, "pitch": 46, "duration": 10, "velocity": 40}, {"time": 75958, "pitch": 46, "duration": 10, "velocity": 39}, {"time": 75998, "pitch": 46, "duration": 10, "velocity": 39}, {"time": 76038, "pitch": 46, "duration": 10, "velocity": 39}, {"time": 76078, "pitch": 46, "duration": 10, "velocity": 45}, {"time": 76118, "pitch": 46, "duration": 10, "velocity": 41}, {"time": 76158, "pitch": 46, "duration": 10, "velocity": 42}, {"time": 76198, "pitch": 46, "duration": 10, "velocity": 44}, {"time": 76238, "pitch": 46, "duration": 10, "velocity": 48}, {"time": 76278, "pitch": 46, "duration": 10, "velocity": 48}, {"time": 76318, "pitch": 46, "duration": 10, "velocity": 50}, {"time": 76358, "pitch": 46, "duration": 10, "velocity": 55}, {"time": 76398, "pitch": 46, "duration": 10, "velocity": 53}, {"time": 76438, "pitch": 46, "duration": 10, "velocity": 56}, {"time": 76478, "pitch": 46, "duration": 10, "velocity": 60}, {"time": 76518, "pitch": 46, "duration": 10, "velocity": 65}, {"time": 76558, "pitch": 46, "duration": 10, "velocity": 62}, {"time": 76597, "pitch": 46, "duration": 10, "velocity": 68}, {"time": 76637, "pitch": 46, "duration": 10, "velocity": 66}, {"time": 76677, "pitch": 46, "duration": 10, "velocity": 69}, {"time": 76717, "pitch": 46, "duration": 10, "velocity": 70}, {"time": 76757, "pitch": 46, "duration": 10, "velocity": 76}, {"time": 76797, "pitch": 49, "duration": 10, "velocity": 64}, {"time": 79202, "pitch": 36, "duration": 10, "velocity": 106}, {"time": 79202, "pitch": 42, "duration": 10, "velocity": 64}, {"time": 79441, "pitch": 42, "duration": 10, "velocity": 36}, {"time": 79681, "pitch": 42, "duration": 10, "velocity": 50}, {"time": 79921, "pitch": 36, "duration": 10, "velocity": 78}, {"time": 79921, "pitch": 42, "duration": 10, "velocity": 36}, {"time": 80161, "pitch": 36, "duration": 10, "velocity": 106}, {"time": 80161, "pitch": 42, "duration": 10, "velocity": 64}, {"time": 80401, "pitch": 42, "duration": 10, "velocity": 36}, {"time": 80641, "pitch": 38, "duration": 10, "velocity": 50}, {"time": 80641, "pitch": 42, "duration": 10, "velocity": 50}, {"time": 80880, "pitch": 42, "duration": 10, "velocity": 36}, {"time": 81120, "pitch": 36, "duration": 10, "velocity": 106}, {"time": 81120, "pitch": 42, "duration": 10, "velocity": 64}, {"time": 81360, "pitch": 42, "duration": 10, "velocity": 36}, {"time": 81600, "pitch": 42, "duration": 10, "velocity": 50}, {"time": 81840, "pitch": 36, "duration": 10, "velocity": 78}, {"time": 81840, "pitch": 42, "duration": 10, "velocity": 36}, {"time": 82080, "pitch": 36, "duration": 10, "velocity": 106}, {"time": 82080, "pitch": 42, "duration": 10, "velocity": 64}, {"time": 82319, "pitch": 42, "duration": 10, "velocity": 36}, {"time": 82559, "pitch": 38, "duration": 10, "velocity": 50}, {"time": 82559, "pitch": 42, "duration": 10, "velocity": 50}, {"time": 82799, "pitch": 42, "duration": 10, "velocity": 36}, {"time": 83039, "pitch": 36, "duration": 10, "velocity": 106}, {"time": 83039, "pitch": 42, "duration": 10, "velocity": 64}, {"time": 83279, "pitch": 42, "duration": 10, "velocity": 36}, {"time": 83518, "pitch": 42, "duration": 10, "velocity": 50}, {"time": 83758, "pitch": 36, "duration": 10, "velocity": 78}, {"time": 83758, "pitch": 42, "duration": 10, "velocity": 36}, {"time": 83998, "pitch": 36, "duration": 10, "velocity": 106}, {"time": 83998, "pitch": 42, "duration": 10, "velocity": 64}, {"time": 84238, "pitch": 42, "duration": 10, "velocity": 36}, {"time": 84478, "pitch": 38, "duration": 10, "velocity": 50}, {"time": 84478, "pitch": 42, "duration": 10, "velocity": 50}, {"time": 84718, "pitch": 42, "duration": 10, "velocity": 36}, {"time": 84957, "pitch": 36, "duration": 10, "velocity": 106}, {"time": 84957, "pitch": 42, "duration": 10, "velocity": 64}, {"time": 85197, "pitch": 42, "duration": 10, "velocity": 36}, {"time": 85437, "pitch": 42, "duration": 10, "velocity": 50}, {"time": 85680, "pitch": 36, "duration": 10, "velocity": 78}, {"time": 85680, "pitch": 42, "duration": 10, "velocity": 36}, {"time": 85923, "pitch": 36, "duration": 10, "velocity": 106}, {"time": 85923, "pitch": 42, "duration": 10, "velocity": 64}, {"time": 86163, "pitch": 42, "duration": 10, "velocity": 36}, {"time": 86402, "pitch": 38, "duration": 10, "velocity": 50}, {"time": 86402, "pitch": 42, "duration": 10, "velocity": 50}, {"time": 86642, "pitch": 42, "duration": 10, "velocity": 36}, {"time": 86882, "pitch": 36, "duration": 10, "velocity": 106}, {"time": 86882, "pitch": 42, "duration": 10, "velocity": 64}, {"time": 87122, "pitch": 42, "duration": 10, "velocity": 36}, {"time": 87362, "pitch": 42, "duration": 10, "velocity": 50}, {"time": 87602, "pitch": 36, "duration": 10, "velocity": 78}, {"time": 87602, "pitch": 42, "duration": 10, "velocity": 36}, {"time": 87841, "pitch": 36, "duration": 10, "velocity": 106}, {"time": 87841, "pitch": 42, "duration": 10, "velocity": 64}, {"time": 88081, "pitch": 42, "duration": 10, "velocity": 36}, {"time": 88321, "pitch": 38, "duration": 10, "velocity": 50}, {"time": 88321, "pitch": 42, "duration": 10, "velocity": 50}, {"time": 88561, "pitch": 42, "duration": 10, "velocity": 36}, {"time": 88801, "pitch": 36, "duration": 10, "velocity": 106}, {"time": 88801, "pitch": 42, "duration": 10, "velocity": 64}, {"time": 89041, "pitch": 42, "duration": 10, "velocity": 36}, {"time": 89280, "pitch": 42, "duration": 10, "velocity": 50}, {"time": 89520, "pitch": 36, "duration": 10, "velocity": 78}, {"time": 89520, "pitch": 42, "duration": 10, "velocity": 36}, {"time": 89760, "pitch": 36, "duration": 10, "velocity": 106}, {"time": 89760, "pitch": 42, "duration": 10, "velocity": 64}, {"time": 90000, "pitch": 42, "duration": 10, "velocity": 36}, {"time": 90240, "pitch": 38, "duration": 10, "velocity": 50}, {"time": 90240, "pitch": 42, "duration": 10, "velocity": 50}, {"time": 90479, "pitch": 42, "duration": 10, "velocity": 36}, {"time": 90719, "pitch": 36, "duration": 10, "velocity": 106}, {"time": 90719, "pitch": 42, "duration": 10, "velocity": 64}, {"time": 90959, "pitch": 42, "duration": 10, "velocity": 36}, {"time": 91199, "pitch": 42, "duration": 10, "velocity": 50}, {"time": 91439, "pitch": 36, "duration": 10, "velocity": 78}, {"time": 91439, "pitch": 42, "duration": 10, "velocity": 36}, {"time": 91679, "pitch": 36, "duration": 10, "velocity": 106}, {"time": 91679, "pitch": 42, "duration": 10, "velocity": 64}, {"time": 91918, "pitch": 42, "duration": 10, "velocity": 36}, {"time": 92158, "pitch": 38, "duration": 10, "velocity": 50}, {"time": 92158, "pitch": 42, "duration": 10, "velocity": 50}, {"time": 92398, "pitch": 42, "duration": 10, "velocity": 36}, {"time": 92638, "pitch": 36, "duration": 10, "velocity": 106}, {"time": 92638, "pitch": 42, "duration": 10, "velocity": 64}, {"time": 92878, "pitch": 42, "duration": 10, "velocity": 36}, {"time": 93118, "pitch": 42, "duration": 10, "velocity": 50}, {"time": 93357, "pitch": 36, "duration": 10, "velocity": 78}, {"time": 93357, "pitch": 42, "duration": 10, "velocity": 36}, {"time": 93597, "pitch": 36, "duration": 10, "velocity": 106}, {"time": 93597, "pitch": 42, "duration": 10, "velocity": 64}, {"time": 93840, "pitch": 42, "duration": 10, "velocity": 36}, {"time": 94083, "pitch": 38, "duration": 10, "velocity": 50}, {"time": 94083, "pitch": 42, "duration": 10, "velocity": 50}, {"time": 94323, "pitch": 42, "duration": 10, "velocity": 36}, {"time": 101278, "pitch": 46, "duration": 10, "velocity": 32}, {"time": 101318, "pitch": 46, "duration": 10, "velocity": 38}, {"time": 101358, "pitch": 46, "duration": 10, "velocity": 43}, {"time": 101398, "pitch": 46, "duration": 10, "velocity": 38}, {"time": 101438, "pitch": 46, "duration": 10, "velocity": 43}, {"time": 101477, "pitch": 46, "duration": 10, "velocity": 39}, {"time": 101517, "pitch": 46, "duration": 10, "velocity": 45}, {"time": 101557, "pitch": 46, "duration": 10, "velocity": 41}, {"time": 101597, "pitch": 46, "duration": 10, "velocity": 42}, {"time": 101637, "pitch": 46, "duration": 10, "velocity": 44}, {"time": 101677, "pitch": 46, "duration": 10, "velocity": 48}, {"time": 101717, "pitch": 46, "duration": 10, "velocity": 48}, {"time": 101757, "pitch": 46, "duration": 10, "velocity": 50}, {"time": 101798, "pitch": 46, "duration": 10, "velocity": 55}, {"time": 101838, "pitch": 46, "duration": 10, "velocity": 53}, {"time": 101879, "pitch": 46, "duration": 10, "velocity": 56}, {"time": 101919, "pitch": 46, "duration": 10, "velocity": 60}, {"time": 101960, "pitch": 46, "duration": 10, "velocity": 65}, {"time": 102000, "pitch": 46, "duration": 10, "velocity": 62}, {"time": 102041, "pitch": 46, "duration": 10, "velocity": 68}, {"time": 102081, "pitch": 46, "duration": 10, "velocity": 66}, {"time": 102122, "pitch": 46, "duration": 10, "velocity": 69}, {"time": 102162, "pitch": 46, "duration": 10, "velocity": 70}, {"time": 102203, "pitch": 46, "duration": 10, "velocity": 76}, {"time": 102243, "pitch": 36, "duration": 10, "velocity": 92}, {"time": 102243, "pitch": 49, "duration": 10, "velocity": 64}, {"time": 113041, "pitch": 42, "duration": 10, "velocity": 50}, {"time": 113281, "pitch": 46, "duration": 10, "velocity": 64}, {"time": 113761, "pitch": 36, "duration": 10, "velocity": 106}, {"time": 113761, "pitch": 42, "duration": 10, "velocity": 64}, {"time": 114240, "pitch": 37, "duration": 10, "velocity": 78}, {"time": 114240, "pitch": 42, "duration": 10, "velocity": 50}, {"time": 114480, "pitch": 36, "duration": 10, "velocity": 78}, {"time": 114720, "pitch": 36, "duration": 10, "velocity": 106}, {"time": 114720, "pitch": 42, "duration": 10, "velocity": 50}, {"time": 115200, "pitch": 37, "duration": 10, "velocity": 78}, {"time": 115200, "pitch": 42, "duration": 10, "velocity": 50}, {"time": 115679, "pitch": 36, "duration": 10, "velocity": 106}, {"time": 115679, "pitch": 42, "duration": 10, "velocity": 64}, {"time": 116159, "pitch": 37, "duration": 10, "velocity": 78}, {"time": 116159, "pitch": 42, "duration": 10, "velocity": 50}, {"time": 116399, "pitch": 36, "duration": 10, "velocity": 78}, {"time": 116639, "pitch": 36, "duration": 10, "velocity": 106}, {"time": 116639, "pitch": 42, "duration": 10, "velocity": 50}, {"time": 117118, "pitch": 37, "duration": 10, "velocity": 78}, {"time": 117118, "pitch": 42, "duration": 10, "velocity": 50}, {"time": 117598, "pitch": 36, "duration": 10, "velocity": 106}, {"time": 117598, "pitch": 42, "duration": 10, "velocity": 64}, {"time": 118077, "pitch": 37, "duration": 10, "velocity": 78}, {"time": 118077, "pitch": 42, "duration": 10, "velocity": 36}, {"time": 118317, "pitch": 36, "duration": 10, "velocity": 78}, {"time": 118557, "pitch": 36, "duration": 10, "velocity": 106}, {"time": 118557, "pitch": 49, "duration": 10, "velocity": 36}, {"time": 118598, "pitch": 46, "duration": 10, "velocity": 38}, {"time": 118638, "pitch": 46, "duration": 10, "velocity": 43}, {"time": 118679, "pitch": 46, "duration": 10, "velocity": 38}, {"time": 118719, "pitch": 46, "duration": 10, "velocity": 43}, {"time": 118759, "pitch": 46, "duration": 11, "velocity": 39}, {"time": 118800, "pitch": 46, "duration": 10, "velocity": 45}, {"time": 118840, "pitch": 46, "duration": 11, "velocity": 41}, {"time": 118881, "pitch": 46, "duration": 10, "velocity": 42}, {"time": 118921, "pitch": 46, "duration": 11, "velocity": 44}, {"time": 118962, "pitch": 46, "duration": 10, "velocity": 48}, {"time": 119002, "pitch": 46, "duration": 11, "velocity": 48}, {"time": 119043, "pitch": 46, "duration": 10, "velocity": 50}, {"time": 119083, "pitch": 46, "duration": 10, "velocity": 55}, {"time": 119123, "pitch": 46, "duration": 10, "velocity": 53}, {"time": 119163, "pitch": 46, "duration": 10, "velocity": 56}, {"time": 119203, "pitch": 46, "duration": 10, "velocity": 60}, {"time": 119243, "pitch": 46, "duration": 10, "velocity": 65}, {"time": 119283, "pitch": 46, "duration": 10, "velocity": 62}, {"time": 119323, "pitch": 46, "duration": 10, "velocity": 68}, {"time": 119363, "pitch": 46, "duration": 10, "velocity": 66}, {"time": 119403, "pitch": 46, "duration": 10, "velocity": 69}, {"time": 119443, "pitch": 46, "duration": 10, "velocity": 70}, {"time": 119483, "pitch": 46, "duration": 10, "velocity": 76}, {"time": 119522, "pitch": 46, "duration": 10, "velocity": 77}, {"time": 119562, "pitch": 46, "duration": 10, "velocity": 74}, {"time": 119602, "pitch": 46, "duration": 10, "velocity": 77}, {"time": 119642, "pitch": 46, "duration": 10, "velocity": 76}, {"time": 119682, "pitch": 46, "duration": 10, "velocity": 74}, {"time": 119722, "pitch": 46, "duration": 10, "velocity": 76}, {"time": 119762, "pitch": 46, "duration": 10, "velocity": 77}, {"time": 119802, "pitch": 46, "duration": 10, "velocity": 77}, {"time": 119842, "pitch": 46, "duration": 10, "velocity": 79}, {"time": 119882, "pitch": 46, "duration": 10, "velocity": 78}, {"time": 119922, "pitch": 46, "duration": 10, "velocity": 79}, {"time": 119962, "pitch": 46, "duration": 10, "velocity": 79}, {"time": 120002, "pitch": 46, "duration": 10, "velocity": 81}, {"time": 120042, "pitch": 46, "duration": 10, "velocity": 83}, {"time": 120082, "pitch": 46, "duration": 10, "velocity": 81}, {"time": 120122, "pitch": 46, "duration": 10, "velocity": 83}, {"time": 120162, "pitch": 46, "duration": 10, "velocity": 83}, {"time": 120202, "pitch": 46, "duration": 10, "velocity": 86}, {"time": 120242, "pitch": 46, "duration": 10, "velocity": 87}, {"time": 120282, "pitch": 46, "duration": 10, "velocity": 89}, {"time": 120322, "pitch": 46, "duration": 10, "velocity": 87}, {"time": 120362, "pitch": 46, "duration": 10, "velocity": 86}, {"time": 120402, "pitch": 46, "duration": 10, "velocity": 88}, {"time": 120442, "pitch": 46, "duration": 10, "velocity": 83}, {"time": 120482, "pitch": 49, "duration": 10, "velocity": 94}, {"time": 134881, "pitch": 49, "duration": 10, "velocity": 36}, {"time": 1678, "pitch": 69, "duration": 220, "velocity": 100}, {"time": 1918, "pitch": 71, "duration": 219, "velocity": 110}, {"time": 2157, "pitch": 72, "duration": 220, "velocity": 100}, {"time": 2397, "pitch": 71, "duration": 344, "velocity": 110}, {"time": 2761, "pitch": 71, "duration": 342, "velocity": 90}, {"time": 3123, "pitch": 67, "duration": 220, "velocity": 100}, {"time": 3363, "pitch": 67, "duration": 919, "velocity": 90}, {"time": 4322, "pitch": 67, "duration": 360, "velocity": 110}, {"time": 4682, "pitch": 67, "duration": 789, "velocity": 100}, {"time": 5521, "pitch": 57, "duration": 220, "velocity": 100}, {"time": 5761, "pitch": 59, "duration": 220, "velocity": 90}, {"time": 6001, "pitch": 60, "duration": 219, "velocity": 100}, {"time": 6240, "pitch": 59, "duration": 340, "velocity": 110}, {"time": 6600, "pitch": 59, "duration": 340, "velocity": 90}, {"time": 6960, "pitch": 60, "duration": 220, "velocity": 100}, {"time": 7200, "pitch": 59, "duration": 679, "velocity": 90}, {"time": 7919, "pitch": 60, "duration": 100, "velocity": 90}, {"time": 8039, "pitch": 62, "duration": 100, "velocity": 100}, {"time": 8159, "pitch": 64, "duration": 680, "velocity": 110}, {"time": 8879, "pitch": 65, "duration": 219, "velocity": 110}, {"time": 9118, "pitch": 62, "duration": 680, "velocity": 100}, {"time": 9838, "pitch": 67, "duration": 220, "velocity": 110}, {"time": 10078, "pitch": 67, "duration": 682, "velocity": 110}, {"time": 10800, "pitch": 72, "duration": 223, "velocity": 110}, {"time": 11043, "pitch": 72, "duration": 680, "velocity": 100}, {"time": 11762, "pitch": 74, "duration": 220, "velocity": 110}, {"time": 12002, "pitch": 76, "duration": 1899, "velocity": 100}, {"time": 79681, "pitch": 64, "duration": 450, "velocity": 112}, {"time": 80161, "pitch": 62, "duration": 919, "velocity": 100}, {"time": 81600, "pitch": 62, "duration": 450, "velocity": 111}, {"time": 82080, "pitch": 61, "duration": 919, "velocity": 103}, {"time": 83518, "pitch": 60, "duration": 920, "velocity": 110}, {"time": 84478, "pitch": 62, "duration": 929, "velocity": 106}, {"time": 85437, "pitch": 64, "duration": 1425, "velocity": 120}, {"time": 86882, "pitch": 64, "duration": 919, "velocity": 114}, {"time": 87841, "pitch": 62, "duration": 920, "velocity": 104}, {"time": 88801, "pitch": 62, "duration": 919, "velocity": 114}, {"time": 89760, "pitch": 61, "duration": 919, "velocity": 104}, {"time": 90719, "pitch": 60, "duration": 920, "velocity": 114}, {"time": 91679, "pitch": 62, "duration": 919, "velocity": 104}, {"time": 92638, "pitch": 64, "duration": 1905, "velocity": 104}, {"time": 95762, "pitch": 69, "duration": 220, "velocity": 100}, {"time": 96001, "pitch": 71, "duration": 220, "velocity": 110}, {"time": 96241, "pitch": 72, "duration": 220, "velocity": 100}, {"time": 96481, "pitch": 71, "duration": 340, "velocity": 110}, {"time": 96841, "pitch": 71, "duration": 340, "velocity": 90}, {"time": 97201, "pitch": 67, "duration": 219, "velocity": 100}, {"time": 97440, "pitch": 67, "duration": 920, "velocity": 90}, {"time": 98400, "pitch": 67, "duration": 359, "velocity": 110}, {"time": 98759, "pitch": 67, "duration": 790, "velocity": 100}, {"time": 99599, "pitch": 57, "duration": 220, "velocity": 100}, {"time": 99839, "pitch": 59, "duration": 220, "velocity": 90}, {"time": 100079, "pitch": 60, "duration": 219, "velocity": 100}, {"time": 100318, "pitch": 59, "duration": 340, "velocity": 110}, {"time": 100678, "pitch": 59, "duration": 340, "velocity": 90}, {"time": 101038, "pitch": 60, "duration": 220, "velocity": 100}, {"time": 101278, "pitch": 59, "duration": 682, "velocity": 90}, {"time": 102000, "pitch": 60, "duration": 101, "velocity": 90}, {"time": 102122, "pitch": 62, "duration": 101, "velocity": 100}, {"time": 102243, "pitch": 64, "duration": 680, "velocity": 110}, {"time": 102962, "pitch": 65, "duration": 220, "velocity": 110}, {"time": 103202, "pitch": 62, "duration": 680, "velocity": 100}, {"time": 103922, "pitch": 67, "duration": 220, "velocity": 110}, {"time": 104162, "pitch": 67, "duration": 679, "velocity": 110}, {"time": 104881, "pitch": 72, "duration": 220, "velocity": 110}, {"time": 105121, "pitch": 72, "duration": 679, "velocity": 100}, {"time": 105840, "pitch": 74, "duration": 220, "velocity": 110}, {"time": 106080, "pitch": 76, "duration": 1899, "velocity": 100}, {"time": 121441, "pitch": 65, "duration": 240, "velocity": 95}, {"time": 121681, "pitch": 68, "duration": 240, "velocity": 93}, {"time": 121921, "pitch": 68, "duration": 240, "velocity": 98}, {"time": 122161, "pitch": 65, "duration": 239, "velocity": 96}, {"time": 122400, "pitch": 70, "duration": 240, "velocity": 102}, {"time": 122640, "pitch": 68, "duration": 240, "velocity": 99}, {"time": 122880, "pitch": 65, "duration": 240, "velocity": 97}, {"time": 123120, "pitch": 63, "duration": 240, "velocity": 94}, {"time": 123360, "pitch": 61, "duration": 479, "velocity": 95}, {"time": 123839, "pitch": 58, "duration": 240, "velocity": 94}, {"time": 124079, "pitch": 61, "duration": 240, "velocity": 97}, {"time": 124319, "pitch": 56, "duration": 480, "velocity": 93}, {"time": 124799, "pitch": 61, "duration": 239, "velocity": 99}, {"time": 125038, "pitch": 63, "duration": 240, "velocity": 96}, {"time": 125278, "pitch": 65, "duration": 480, "velocity": 90}, {"time": 125758, "pitch": 68, "duration": 480, "velocity": 95}, {"time": 126238, "pitch": 68, "duration": 479, "velocity": 97}, {"time": 126717, "pitch": 65, "duration": 486, "velocity": 91}, {"time": 127203, "pitch": 61, "duration": 240, "velocity": 99}, {"time": 127443, "pitch": 63, "duration": 240, "velocity": 102}, {"time": 127683, "pitch": 65, "duration": 239, "velocity": 98}, {"time": 127922, "pitch": 61, "duration": 240, "velocity": 99}, {"time": 128162, "pitch": 63, "duration": 960, "velocity": 95}, {"time": 129361, "pitch": 65, "duration": 240, "velocity": 97}, {"time": 129601, "pitch": 68, "duration": 240, "velocity": 98}, {"time": 129841, "pitch": 68, "duration": 240, "velocity": 100}, {"time": 130081, "pitch": 70, "duration": 240, "velocity": 103}, {"time": 130321, "pitch": 68, "duration": 239, "velocity": 100}, {"time": 130560, "pitch": 65, "duration": 240, "velocity": 97}, {"time": 130800, "pitch": 63, "duration": 240, "velocity": 93}, {"time": 131040, "pitch": 61, "duration": 480, "velocity": 93}, {"time": 131520, "pitch": 58, "duration": 240, "velocity": 91}, {"time": 131760, "pitch": 61, "duration": 239, "velocity": 91}, {"time": 131999, "pitch": 56, "duration": 480, "velocity": 94}, {"time": 132479, "pitch": 61, "duration": 240, "velocity": 95}, {"time": 132719, "pitch": 63, "duration": 240, "velocity": 97}, {"time": 132959, "pitch": 61, "duration": 961, "velocity": 95}, {"time": 133920, "pitch": 61, "duration": 961, "velocity": 98}, {"time": 134881, "pitch": 68, "duration": 3718, "velocity": 101}]}]}