{"metadata": {"schema_version": "0.1", "title": "RWC-MDB-P-2001 No. 29: One Two STEP / Kazuo Nishi", "copyright": "RWC Music Database. Copyright (C) 2001 Real World Computing Partnership (contact: Masataka GOTO <m.goto@aist.go.jp>)", "source_filename": "RM-P029.SMF_SYNC.MID", "source_format": "midi"}, "resolution": 480, "tempos": [{"time": 0, "qpm": 57.69230769230769}, {"time": 480, "qpm": 103.44827586206897}, {"time": 10560, "qpm": 101.69491525423729}, {"time": 11040, "qpm": 105.26315789473684}, {"time": 11520, "qpm": 103.44827586206897}, {"time": 12000, "qpm": 101.69491525423729}, {"time": 12480, "qpm": 103.44827586206897}, {"time": 13440, "qpm": 105.26315789473684}, {"time": 13920, "qpm": 101.69491525423729}, {"time": 14400, "qpm": 103.44827586206897}, {"time": 15360, "qpm": 105.26315789473684}, {"time": 15840, "qpm": 101.69491525423729}, {"time": 16320, "qpm": 103.44827586206897}, {"time": 30240, "qpm": 101.69491525423729}, {"time": 30720, "qpm": 105.26315789473684}, {"time": 31200, "qpm": 101.69491525423729}, {"time": 31680, "qpm": 103.44827586206897}, {"time": 46560, "qpm": 101.69491525423729}, {"time": 47040, "qpm": 103.44827586206897}, {"time": 47520, "qpm": 105.26315789473684}, {"time": 48000, "qpm": 103.44827586206897}, {"time": 48480, "qpm": 101.69491525423729}, {"time": 48960, "qpm": 103.44827586206897}, {"time": 49920, "qpm": 105.26315789473684}, {"time": 50400, "qpm": 101.69491525423729}, {"time": 50880, "qpm": 103.44827586206897}, {"time": 64800, "qpm": 101.69491525423729}, {"time": 65280, "qpm": 105.26315789473684}, {"time": 65760, "qpm": 103.44827586206897}, {"time": 66240, "qpm": 101.69491525423729}, {"time": 66720, "qpm": 103.44827586206897}, {"time": 67200, "qpm": 105.26315789473684}, {"time": 67680, "qpm": 101.69491525423729}, {"time": 68160, "qpm": 103.44827586206897}, {"time": 69120, "qpm": 105.26315789473684}, {"time": 69600, "qpm": 101.69491525423729}, {"time": 70080, "qpm": 103.44827586206897}, {"time": 83040, "qpm": 101.69491525423729}, {"time": 83520, "qpm": 103.44827586206897}, {"time": 84480, "qpm": 105.26315789473684}, {"time": 84960, "qpm": 101.69491525423729}, {"time": 85440, "qpm": 103.44827586206897}, {"time": 100800, "qpm": 101.69491525423729}, {"time": 101280, "qpm": 105.26315789473684}, {"time": 101760, "qpm": 103.44827586206897}, {"time": 102240, "qpm": 101.69491525423729}, {"time": 102720, "qpm": 103.44827586206897}, {"time": 103680, "qpm": 105.26315789473684}, {"time": 104160, "qpm": 101.69491525423729}, {"time": 104640, "qpm": 103.44827586206897}, {"time": 117600, "qpm": 101.69491525423729}, {"time": 118080, "qpm": 105.26315789473684}, {"time": 118560, "qpm": 101.69491525423729}, {"time": 119040, "qpm": 105.26315789473684}, {"time": 119520, "qpm": 101.69491525423729}, {"time": 120000, "qpm": 103.44827586206897}, {"time": 135360, "qpm": 101.69491525423729}, {"time": 135840, "qpm": 105.26315789473684}, {"time": 136320, "qpm": 103.44827586206897}, {"time": 136800, "qpm": 101.69491525423729}, {"time": 137280, "qpm": 105.26315789473684}, {"time": 137760, "qpm": 101.69491525423729}, {"time": 138240, "qpm": 105.26315789473684}, {"time": 138720, "qpm": 101.69491525423729}, {"time": 139200, "qpm": 103.44827586206897}, {"time": 154080, "qpm": 101.69491525423729}, {"time": 154560, "qpm": 103.44827586206897}, {"time": 155520, "qpm": 105.26315789473684}, {"time": 156000, "qpm": 101.69491525423729}, {"time": 156480, "qpm": 103.44827586206897}, {"time": 157440, "qpm": 105.26315789473684}, {"time": 157920, "qpm": 101.69491525423729}, {"time": 158400, "qpm": 103.44827586206897}, {"time": 171360, "qpm": 101.69491525423729}, {"time": 171840, "qpm": 103.44827586206897}, {"time": 172800, "qpm": 105.26315789473684}, {"time": 173280, "qpm": 101.69491525423729}, {"time": 173760, "qpm": 103.44827586206897}], "key_signatures": [{"time": 0, "root": 0, "mode": "major"}], "time_signatures": [{"time": 0, "numerator": 1, "denominator": 4}, {"time": 480, "numerator": 4, "denominator": 4}], "tracks": [{"program": 0, "is_drum": false, "name": "Piano", "notes": [{"time": 19681, "pitch": 69, "duration": 65, "velocity": 106}, {"time": 19681, "pitch": 72, "duration": 67, "velocity": 110}, {"time": 19681, "pitch": 76, "duration": 69, "velocity": 110}, {"time": 19681, "pitch": 79, "duration": 79, "velocity": 108}, {"time": 19922, "pitch": 69, "duration": 80, "velocity": 98}, {"time": 19922, "pitch": 72, "duration": 75, "velocity": 100}, {"time": 19922, "pitch": 76, "duration": 86, "velocity": 96}, {"time": 19922, "pitch": 79, "duration": 77, "velocity": 94}, {"time": 20163, "pitch": 69, "duration": 76, "velocity": 104}, {"time": 20163, "pitch": 72, "duration": 80, "velocity": 104}, {"time": 20163, "pitch": 76, "duration": 90, "velocity": 98}, {"time": 20163, "pitch": 79, "duration": 86, "velocity": 90}, {"time": 20400, "pitch": 69, "duration": 79, "velocity": 102}, {"time": 20400, "pitch": 72, "duration": 76, "velocity": 104}, {"time": 20400, "pitch": 76, "duration": 89, "velocity": 94}, {"time": 20400, "pitch": 79, "duration": 89, "velocity": 90}, {"time": 20637, "pitch": 69, "duration": 85, "velocity": 100}, {"time": 20637, "pitch": 72, "duration": 77, "velocity": 98}, {"time": 20637, "pitch": 76, "duration": 94, "velocity": 90}, {"time": 20637, "pitch": 79, "duration": 92, "velocity": 82}, {"time": 20878, "pitch": 69, "duration": 80, "velocity": 94}, {"time": 20878, "pitch": 72, "duration": 76, "velocity": 96}, {"time": 20878, "pitch": 76, "duration": 88, "velocity": 86}, {"time": 20878, "pitch": 79, "duration": 86, "velocity": 76}, {"time": 21119, "pitch": 69, "duration": 80, "velocity": 94}, {"time": 21119, "pitch": 72, "duration": 77, "velocity": 96}, {"time": 21119, "pitch": 76, "duration": 90, "velocity": 88}, {"time": 21119, "pitch": 79, "duration": 82, "velocity": 78}, {"time": 21360, "pitch": 69, "duration": 79, "velocity": 92}, {"time": 21360, "pitch": 72, "duration": 77, "velocity": 96}, {"time": 21360, "pitch": 76, "duration": 89, "velocity": 82}, {"time": 21360, "pitch": 79, "duration": 89, "velocity": 78}, {"time": 21601, "pitch": 69, "duration": 75, "velocity": 92}, {"time": 21601, "pitch": 72, "duration": 81, "velocity": 98}, {"time": 21601, "pitch": 74, "duration": 69, "velocity": 86}, {"time": 21601, "pitch": 78, "duration": 108, "velocity": 88}, {"time": 21842, "pitch": 69, "duration": 84, "velocity": 80}, {"time": 21842, "pitch": 72, "duration": 98, "velocity": 88}, {"time": 21842, "pitch": 74, "duration": 94, "velocity": 88}, {"time": 21842, "pitch": 78, "duration": 105, "velocity": 70}, {"time": 22083, "pitch": 69, "duration": 83, "velocity": 90}, {"time": 22083, "pitch": 72, "duration": 97, "velocity": 96}, {"time": 22083, "pitch": 74, "duration": 83, "velocity": 90}, {"time": 22083, "pitch": 78, "duration": 102, "velocity": 74}, {"time": 22320, "pitch": 69, "duration": 89, "velocity": 92}, {"time": 22320, "pitch": 72, "duration": 99, "velocity": 98}, {"time": 22320, "pitch": 74, "duration": 85, "velocity": 92}, {"time": 22320, "pitch": 78, "duration": 106, "velocity": 78}, {"time": 22557, "pitch": 69, "duration": 91, "velocity": 94}, {"time": 22557, "pitch": 72, "duration": 96, "velocity": 102}, {"time": 22557, "pitch": 74, "duration": 91, "velocity": 94}, {"time": 22557, "pitch": 78, "duration": 104, "velocity": 84}, {"time": 22798, "pitch": 69, "duration": 89, "velocity": 94}, {"time": 22798, "pitch": 72, "duration": 98, "velocity": 98}, {"time": 22798, "pitch": 74, "duration": 89, "velocity": 92}, {"time": 22798, "pitch": 78, "duration": 106, "velocity": 80}, {"time": 23039, "pitch": 69, "duration": 85, "velocity": 96}, {"time": 23039, "pitch": 72, "duration": 100, "velocity": 98}, {"time": 23039, "pitch": 74, "duration": 85, "velocity": 90}, {"time": 23039, "pitch": 78, "duration": 110, "velocity": 73}, {"time": 23280, "pitch": 69, "duration": 84, "velocity": 94}, {"time": 23280, "pitch": 72, "duration": 106, "velocity": 100}, {"time": 23280, "pitch": 74, "duration": 100, "velocity": 98}, {"time": 23280, "pitch": 78, "duration": 90, "velocity": 76}, {"time": 23521, "pitch": 69, "duration": 80, "velocity": 100}, {"time": 23521, "pitch": 70, "duration": 105, "velocity": 92}, {"time": 23521, "pitch": 74, "duration": 96, "velocity": 94}, {"time": 23521, "pitch": 77, "duration": 104, "velocity": 84}, {"time": 23762, "pitch": 69, "duration": 78, "velocity": 96}, {"time": 23762, "pitch": 70, "duration": 96, "velocity": 86}, {"time": 23762, "pitch": 74, "duration": 94, "velocity": 94}, {"time": 23762, "pitch": 77, "duration": 105, "velocity": 78}, {"time": 24003, "pitch": 69, "duration": 83, "velocity": 92}, {"time": 24003, "pitch": 70, "duration": 105, "velocity": 86}, {"time": 24003, "pitch": 74, "duration": 95, "velocity": 98}, {"time": 24003, "pitch": 77, "duration": 91, "velocity": 73}, {"time": 24240, "pitch": 69, "duration": 77, "velocity": 94}, {"time": 24240, "pitch": 70, "duration": 108, "velocity": 88}, {"time": 24240, "pitch": 74, "duration": 97, "velocity": 94}, {"time": 24240, "pitch": 77, "duration": 99, "velocity": 74}, {"time": 24477, "pitch": 69, "duration": 78, "velocity": 94}, {"time": 24477, "pitch": 70, "duration": 109, "velocity": 84}, {"time": 24477, "pitch": 74, "duration": 98, "velocity": 94}, {"time": 24477, "pitch": 77, "duration": 99, "velocity": 73}, {"time": 24718, "pitch": 69, "duration": 79, "velocity": 92}, {"time": 24718, "pitch": 70, "duration": 105, "velocity": 84}, {"time": 24718, "pitch": 74, "duration": 95, "velocity": 92}, {"time": 24718, "pitch": 77, "duration": 100, "velocity": 73}, {"time": 24959, "pitch": 69, "duration": 85, "velocity": 94}, {"time": 24959, "pitch": 70, "duration": 106, "velocity": 84}, {"time": 24959, "pitch": 74, "duration": 100, "velocity": 92}, {"time": 24959, "pitch": 77, "duration": 98, "velocity": 73}, {"time": 25200, "pitch": 69, "duration": 102, "velocity": 96}, {"time": 25200, "pitch": 70, "duration": 124, "velocity": 88}, {"time": 25200, "pitch": 74, "duration": 106, "velocity": 92}, {"time": 25200, "pitch": 77, "duration": 99, "velocity": 76}, {"time": 25441, "pitch": 67, "duration": 99, "velocity": 94}, {"time": 25441, "pitch": 70, "duration": 126, "velocity": 88}, {"time": 25441, "pitch": 72, "duration": 114, "velocity": 98}, {"time": 25441, "pitch": 76, "duration": 109, "velocity": 86}, {"time": 25682, "pitch": 67, "duration": 107, "velocity": 92}, {"time": 25682, "pitch": 70, "duration": 125, "velocity": 88}, {"time": 25682, "pitch": 72, "duration": 113, "velocity": 98}, {"time": 25682, "pitch": 76, "duration": 115, "velocity": 86}, {"time": 25923, "pitch": 67, "duration": 91, "velocity": 92}, {"time": 25923, "pitch": 70, "duration": 117, "velocity": 86}, {"time": 25923, "pitch": 72, "duration": 101, "velocity": 98}, {"time": 25923, "pitch": 76, "duration": 105, "velocity": 86}, {"time": 26160, "pitch": 67, "duration": 90, "velocity": 90}, {"time": 26160, "pitch": 70, "duration": 116, "velocity": 86}, {"time": 26160, "pitch": 72, "duration": 100, "velocity": 96}, {"time": 26160, "pitch": 76, "duration": 104, "velocity": 86}, {"time": 26397, "pitch": 67, "duration": 96, "velocity": 86}, {"time": 26397, "pitch": 70, "duration": 111, "velocity": 80}, {"time": 26397, "pitch": 72, "duration": 107, "velocity": 96}, {"time": 26397, "pitch": 76, "duration": 101, "velocity": 82}, {"time": 26638, "pitch": 67, "duration": 94, "velocity": 88}, {"time": 26638, "pitch": 70, "duration": 110, "velocity": 80}, {"time": 26638, "pitch": 72, "duration": 106, "velocity": 96}, {"time": 26638, "pitch": 76, "duration": 94, "velocity": 80}, {"time": 26879, "pitch": 67, "duration": 103, "velocity": 88}, {"time": 26879, "pitch": 70, "duration": 116, "velocity": 80}, {"time": 26879, "pitch": 72, "duration": 109, "velocity": 96}, {"time": 26879, "pitch": 76, "duration": 103, "velocity": 80}, {"time": 27120, "pitch": 67, "duration": 85, "velocity": 94}, {"time": 27120, "pitch": 70, "duration": 107, "velocity": 86}, {"time": 27120, "pitch": 72, "duration": 97, "velocity": 98}, {"time": 27120, "pitch": 76, "duration": 105, "velocity": 84}, {"time": 27361, "pitch": 69, "duration": 65, "velocity": 106}, {"time": 27361, "pitch": 72, "duration": 67, "velocity": 110}, {"time": 27361, "pitch": 76, "duration": 69, "velocity": 110}, {"time": 27361, "pitch": 79, "duration": 80, "velocity": 108}, {"time": 27602, "pitch": 69, "duration": 81, "velocity": 98}, {"time": 27602, "pitch": 72, "duration": 76, "velocity": 100}, {"time": 27602, "pitch": 76, "duration": 87, "velocity": 96}, {"time": 27602, "pitch": 79, "duration": 78, "velocity": 94}, {"time": 27843, "pitch": 69, "duration": 76, "velocity": 104}, {"time": 27843, "pitch": 72, "duration": 80, "velocity": 104}, {"time": 27843, "pitch": 76, "duration": 90, "velocity": 98}, {"time": 27843, "pitch": 79, "duration": 86, "velocity": 90}, {"time": 28080, "pitch": 69, "duration": 79, "velocity": 102}, {"time": 28080, "pitch": 72, "duration": 76, "velocity": 104}, {"time": 28080, "pitch": 76, "duration": 89, "velocity": 94}, {"time": 28080, "pitch": 79, "duration": 89, "velocity": 90}, {"time": 28317, "pitch": 69, "duration": 85, "velocity": 100}, {"time": 28317, "pitch": 72, "duration": 77, "velocity": 98}, {"time": 28317, "pitch": 76, "duration": 95, "velocity": 90}, {"time": 28317, "pitch": 79, "duration": 92, "velocity": 82}, {"time": 28558, "pitch": 69, "duration": 80, "velocity": 94}, {"time": 28558, "pitch": 72, "duration": 76, "velocity": 96}, {"time": 28558, "pitch": 76, "duration": 89, "velocity": 86}, {"time": 28558, "pitch": 79, "duration": 87, "velocity": 76}, {"time": 28799, "pitch": 69, "duration": 81, "velocity": 94}, {"time": 28799, "pitch": 72, "duration": 78, "velocity": 96}, {"time": 28799, "pitch": 76, "duration": 91, "velocity": 88}, {"time": 28799, "pitch": 79, "duration": 83, "velocity": 78}, {"time": 29040, "pitch": 69, "duration": 80, "velocity": 92}, {"time": 29040, "pitch": 72, "duration": 78, "velocity": 96}, {"time": 29040, "pitch": 76, "duration": 90, "velocity": 82}, {"time": 29040, "pitch": 79, "duration": 90, "velocity": 78}, {"time": 29281, "pitch": 69, "duration": 76, "velocity": 92}, {"time": 29281, "pitch": 72, "duration": 82, "velocity": 98}, {"time": 29281, "pitch": 74, "duration": 70, "velocity": 86}, {"time": 29281, "pitch": 78, "duration": 109, "velocity": 88}, {"time": 29522, "pitch": 69, "duration": 85, "velocity": 80}, {"time": 29522, "pitch": 72, "duration": 99, "velocity": 88}, {"time": 29522, "pitch": 74, "duration": 95, "velocity": 88}, {"time": 29522, "pitch": 78, "duration": 106, "velocity": 70}, {"time": 29763, "pitch": 69, "duration": 83, "velocity": 90}, {"time": 29763, "pitch": 72, "duration": 97, "velocity": 96}, {"time": 29763, "pitch": 74, "duration": 83, "velocity": 90}, {"time": 29763, "pitch": 78, "duration": 102, "velocity": 74}, {"time": 30000, "pitch": 69, "duration": 89, "velocity": 92}, {"time": 30000, "pitch": 72, "duration": 99, "velocity": 98}, {"time": 30000, "pitch": 74, "duration": 85, "velocity": 92}, {"time": 30000, "pitch": 78, "duration": 106, "velocity": 78}, {"time": 30237, "pitch": 69, "duration": 92, "velocity": 94}, {"time": 30237, "pitch": 72, "duration": 97, "velocity": 102}, {"time": 30237, "pitch": 74, "duration": 92, "velocity": 94}, {"time": 30237, "pitch": 78, "duration": 105, "velocity": 84}, {"time": 30478, "pitch": 69, "duration": 90, "velocity": 94}, {"time": 30478, "pitch": 72, "duration": 99, "velocity": 98}, {"time": 30478, "pitch": 74, "duration": 90, "velocity": 92}, {"time": 30478, "pitch": 78, "duration": 107, "velocity": 80}, {"time": 30719, "pitch": 69, "duration": 86, "velocity": 96}, {"time": 30719, "pitch": 72, "duration": 101, "velocity": 98}, {"time": 30719, "pitch": 74, "duration": 86, "velocity": 90}, {"time": 30719, "pitch": 78, "duration": 111, "velocity": 73}, {"time": 30960, "pitch": 69, "duration": 85, "velocity": 94}, {"time": 30960, "pitch": 72, "duration": 107, "velocity": 100}, {"time": 30960, "pitch": 74, "duration": 101, "velocity": 98}, {"time": 30960, "pitch": 78, "duration": 91, "velocity": 76}, {"time": 31201, "pitch": 69, "duration": 81, "velocity": 100}, {"time": 31201, "pitch": 70, "duration": 106, "velocity": 92}, {"time": 31201, "pitch": 74, "duration": 97, "velocity": 94}, {"time": 31201, "pitch": 77, "duration": 105, "velocity": 84}, {"time": 31442, "pitch": 69, "duration": 79, "velocity": 96}, {"time": 31442, "pitch": 70, "duration": 97, "velocity": 86}, {"time": 31442, "pitch": 74, "duration": 95, "velocity": 94}, {"time": 31442, "pitch": 77, "duration": 105, "velocity": 78}, {"time": 31683, "pitch": 69, "duration": 83, "velocity": 92}, {"time": 31683, "pitch": 70, "duration": 105, "velocity": 86}, {"time": 31683, "pitch": 74, "duration": 95, "velocity": 98}, {"time": 31683, "pitch": 77, "duration": 91, "velocity": 73}, {"time": 31920, "pitch": 69, "duration": 77, "velocity": 94}, {"time": 31920, "pitch": 70, "duration": 108, "velocity": 88}, {"time": 31920, "pitch": 74, "duration": 97, "velocity": 94}, {"time": 31920, "pitch": 77, "duration": 99, "velocity": 74}, {"time": 32157, "pitch": 69, "duration": 79, "velocity": 94}, {"time": 32157, "pitch": 70, "duration": 110, "velocity": 84}, {"time": 32157, "pitch": 74, "duration": 99, "velocity": 94}, {"time": 32157, "pitch": 77, "duration": 100, "velocity": 73}, {"time": 32398, "pitch": 69, "duration": 80, "velocity": 92}, {"time": 32398, "pitch": 70, "duration": 106, "velocity": 84}, {"time": 32398, "pitch": 74, "duration": 96, "velocity": 92}, {"time": 32398, "pitch": 77, "duration": 101, "velocity": 73}, {"time": 32639, "pitch": 69, "duration": 86, "velocity": 94}, {"time": 32639, "pitch": 70, "duration": 107, "velocity": 84}, {"time": 32639, "pitch": 74, "duration": 101, "velocity": 92}, {"time": 32639, "pitch": 77, "duration": 99, "velocity": 73}, {"time": 32880, "pitch": 69, "duration": 102, "velocity": 96}, {"time": 32880, "pitch": 70, "duration": 124, "velocity": 88}, {"time": 32880, "pitch": 74, "duration": 106, "velocity": 92}, {"time": 32880, "pitch": 77, "duration": 100, "velocity": 76}, {"time": 33121, "pitch": 67, "duration": 99, "velocity": 94}, {"time": 33121, "pitch": 70, "duration": 126, "velocity": 88}, {"time": 33121, "pitch": 72, "duration": 114, "velocity": 98}, {"time": 33121, "pitch": 76, "duration": 109, "velocity": 86}, {"time": 33362, "pitch": 67, "duration": 107, "velocity": 92}, {"time": 33362, "pitch": 70, "duration": 125, "velocity": 88}, {"time": 33362, "pitch": 72, "duration": 113, "velocity": 98}, {"time": 33362, "pitch": 76, "duration": 115, "velocity": 86}, {"time": 33603, "pitch": 67, "duration": 91, "velocity": 92}, {"time": 33603, "pitch": 70, "duration": 117, "velocity": 86}, {"time": 33603, "pitch": 72, "duration": 101, "velocity": 98}, {"time": 33603, "pitch": 76, "duration": 105, "velocity": 86}, {"time": 33840, "pitch": 67, "duration": 90, "velocity": 90}, {"time": 33840, "pitch": 70, "duration": 116, "velocity": 86}, {"time": 33840, "pitch": 72, "duration": 100, "velocity": 96}, {"time": 33840, "pitch": 76, "duration": 104, "velocity": 86}, {"time": 34077, "pitch": 67, "duration": 97, "velocity": 86}, {"time": 34077, "pitch": 70, "duration": 112, "velocity": 80}, {"time": 34077, "pitch": 72, "duration": 108, "velocity": 96}, {"time": 34077, "pitch": 76, "duration": 102, "velocity": 82}, {"time": 34318, "pitch": 67, "duration": 95, "velocity": 88}, {"time": 34318, "pitch": 70, "duration": 110, "velocity": 80}, {"time": 34318, "pitch": 72, "duration": 106, "velocity": 96}, {"time": 34318, "pitch": 76, "duration": 95, "velocity": 80}, {"time": 34559, "pitch": 67, "duration": 103, "velocity": 88}, {"time": 34559, "pitch": 70, "duration": 116, "velocity": 80}, {"time": 34559, "pitch": 72, "duration": 109, "velocity": 96}, {"time": 34559, "pitch": 76, "duration": 103, "velocity": 80}, {"time": 34800, "pitch": 67, "duration": 85, "velocity": 94}, {"time": 34800, "pitch": 70, "duration": 107, "velocity": 86}, {"time": 34800, "pitch": 72, "duration": 97, "velocity": 98}, {"time": 34800, "pitch": 76, "duration": 105, "velocity": 84}, {"time": 35042, "pitch": 69, "duration": 65, "velocity": 106}, {"time": 35042, "pitch": 72, "duration": 67, "velocity": 110}, {"time": 35042, "pitch": 76, "duration": 69, "velocity": 110}, {"time": 35042, "pitch": 79, "duration": 79, "velocity": 108}, {"time": 35283, "pitch": 69, "duration": 80, "velocity": 98}, {"time": 35283, "pitch": 72, "duration": 75, "velocity": 100}, {"time": 35283, "pitch": 76, "duration": 86, "velocity": 96}, {"time": 35283, "pitch": 79, "duration": 77, "velocity": 94}, {"time": 35524, "pitch": 69, "duration": 76, "velocity": 104}, {"time": 35524, "pitch": 72, "duration": 80, "velocity": 104}, {"time": 35524, "pitch": 76, "duration": 89, "velocity": 98}, {"time": 35524, "pitch": 79, "duration": 85, "velocity": 90}, {"time": 35760, "pitch": 69, "duration": 79, "velocity": 102}, {"time": 35760, "pitch": 72, "duration": 77, "velocity": 104}, {"time": 35760, "pitch": 76, "duration": 89, "velocity": 94}, {"time": 35760, "pitch": 79, "duration": 89, "velocity": 90}, {"time": 35997, "pitch": 69, "duration": 86, "velocity": 100}, {"time": 35997, "pitch": 72, "duration": 78, "velocity": 98}, {"time": 35997, "pitch": 76, "duration": 95, "velocity": 90}, {"time": 35997, "pitch": 79, "duration": 93, "velocity": 82}, {"time": 36238, "pitch": 69, "duration": 81, "velocity": 94}, {"time": 36238, "pitch": 72, "duration": 77, "velocity": 96}, {"time": 36238, "pitch": 76, "duration": 89, "velocity": 86}, {"time": 36238, "pitch": 79, "duration": 87, "velocity": 76}, {"time": 36480, "pitch": 69, "duration": 80, "velocity": 94}, {"time": 36480, "pitch": 72, "duration": 77, "velocity": 96}, {"time": 36480, "pitch": 76, "duration": 90, "velocity": 88}, {"time": 36480, "pitch": 79, "duration": 82, "velocity": 78}, {"time": 36721, "pitch": 69, "duration": 79, "velocity": 92}, {"time": 36721, "pitch": 72, "duration": 77, "velocity": 96}, {"time": 36721, "pitch": 76, "duration": 89, "velocity": 82}, {"time": 36721, "pitch": 79, "duration": 89, "velocity": 78}, {"time": 36962, "pitch": 69, "duration": 75, "velocity": 92}, {"time": 36962, "pitch": 72, "duration": 81, "velocity": 98}, {"time": 36962, "pitch": 74, "duration": 69, "velocity": 86}, {"time": 36962, "pitch": 78, "duration": 108, "velocity": 88}, {"time": 37203, "pitch": 69, "duration": 84, "velocity": 80}, {"time": 37203, "pitch": 72, "duration": 98, "velocity": 88}, {"time": 37203, "pitch": 74, "duration": 94, "velocity": 88}, {"time": 37203, "pitch": 78, "duration": 105, "velocity": 70}, {"time": 37444, "pitch": 69, "duration": 83, "velocity": 90}, {"time": 37444, "pitch": 72, "duration": 96, "velocity": 96}, {"time": 37444, "pitch": 74, "duration": 83, "velocity": 90}, {"time": 37444, "pitch": 78, "duration": 101, "velocity": 74}, {"time": 37681, "pitch": 69, "duration": 88, "velocity": 92}, {"time": 37681, "pitch": 72, "duration": 98, "velocity": 98}, {"time": 37681, "pitch": 74, "duration": 84, "velocity": 92}, {"time": 37681, "pitch": 78, "duration": 105, "velocity": 78}, {"time": 37918, "pitch": 69, "duration": 91, "velocity": 94}, {"time": 37918, "pitch": 72, "duration": 96, "velocity": 102}, {"time": 37918, "pitch": 74, "duration": 91, "velocity": 94}, {"time": 37918, "pitch": 78, "duration": 104, "velocity": 84}, {"time": 38159, "pitch": 69, "duration": 89, "velocity": 94}, {"time": 38159, "pitch": 72, "duration": 98, "velocity": 98}, {"time": 38159, "pitch": 74, "duration": 89, "velocity": 92}, {"time": 38159, "pitch": 78, "duration": 106, "velocity": 80}, {"time": 38400, "pitch": 69, "duration": 85, "velocity": 96}, {"time": 38400, "pitch": 72, "duration": 100, "velocity": 98}, {"time": 38400, "pitch": 74, "duration": 85, "velocity": 90}, {"time": 38400, "pitch": 78, "duration": 110, "velocity": 73}, {"time": 38641, "pitch": 69, "duration": 84, "velocity": 94}, {"time": 38641, "pitch": 72, "duration": 106, "velocity": 100}, {"time": 38641, "pitch": 74, "duration": 100, "velocity": 98}, {"time": 38641, "pitch": 78, "duration": 90, "velocity": 76}, {"time": 38882, "pitch": 69, "duration": 80, "velocity": 100}, {"time": 38882, "pitch": 70, "duration": 105, "velocity": 92}, {"time": 38882, "pitch": 74, "duration": 96, "velocity": 94}, {"time": 38882, "pitch": 77, "duration": 104, "velocity": 84}, {"time": 39123, "pitch": 69, "duration": 78, "velocity": 96}, {"time": 39123, "pitch": 70, "duration": 96, "velocity": 86}, {"time": 39123, "pitch": 74, "duration": 94, "velocity": 94}, {"time": 39123, "pitch": 77, "duration": 104, "velocity": 78}, {"time": 39364, "pitch": 69, "duration": 83, "velocity": 92}, {"time": 39364, "pitch": 70, "duration": 104, "velocity": 86}, {"time": 39364, "pitch": 74, "duration": 94, "velocity": 98}, {"time": 39364, "pitch": 77, "duration": 91, "velocity": 73}, {"time": 39601, "pitch": 69, "duration": 77, "velocity": 94}, {"time": 39601, "pitch": 70, "duration": 107, "velocity": 88}, {"time": 39601, "pitch": 74, "duration": 96, "velocity": 94}, {"time": 39601, "pitch": 77, "duration": 98, "velocity": 74}, {"time": 39838, "pitch": 69, "duration": 78, "velocity": 94}, {"time": 39838, "pitch": 70, "duration": 109, "velocity": 84}, {"time": 39838, "pitch": 74, "duration": 98, "velocity": 94}, {"time": 39838, "pitch": 77, "duration": 99, "velocity": 73}, {"time": 40079, "pitch": 69, "duration": 79, "velocity": 92}, {"time": 40079, "pitch": 70, "duration": 105, "velocity": 84}, {"time": 40079, "pitch": 74, "duration": 95, "velocity": 92}, {"time": 40079, "pitch": 77, "duration": 100, "velocity": 73}, {"time": 40320, "pitch": 69, "duration": 85, "velocity": 94}, {"time": 40320, "pitch": 70, "duration": 106, "velocity": 84}, {"time": 40320, "pitch": 74, "duration": 100, "velocity": 92}, {"time": 40320, "pitch": 77, "duration": 98, "velocity": 73}, {"time": 40561, "pitch": 69, "duration": 101, "velocity": 96}, {"time": 40561, "pitch": 70, "duration": 123, "velocity": 88}, {"time": 40561, "pitch": 74, "duration": 105, "velocity": 92}, {"time": 40561, "pitch": 77, "duration": 99, "velocity": 76}, {"time": 40802, "pitch": 67, "duration": 98, "velocity": 94}, {"time": 40802, "pitch": 70, "duration": 125, "velocity": 88}, {"time": 40802, "pitch": 72, "duration": 113, "velocity": 98}, {"time": 40802, "pitch": 76, "duration": 108, "velocity": 86}, {"time": 41043, "pitch": 67, "duration": 106, "velocity": 92}, {"time": 41043, "pitch": 70, "duration": 124, "velocity": 88}, {"time": 41043, "pitch": 72, "duration": 112, "velocity": 98}, {"time": 41043, "pitch": 76, "duration": 114, "velocity": 86}, {"time": 41284, "pitch": 67, "duration": 91, "velocity": 92}, {"time": 41284, "pitch": 70, "duration": 116, "velocity": 86}, {"time": 41284, "pitch": 72, "duration": 100, "velocity": 98}, {"time": 41284, "pitch": 76, "duration": 104, "velocity": 86}, {"time": 41521, "pitch": 67, "duration": 90, "velocity": 90}, {"time": 41521, "pitch": 70, "duration": 115, "velocity": 86}, {"time": 41521, "pitch": 72, "duration": 99, "velocity": 96}, {"time": 41521, "pitch": 76, "duration": 103, "velocity": 86}, {"time": 41758, "pitch": 67, "duration": 96, "velocity": 86}, {"time": 41758, "pitch": 70, "duration": 111, "velocity": 80}, {"time": 41758, "pitch": 72, "duration": 107, "velocity": 96}, {"time": 41758, "pitch": 76, "duration": 101, "velocity": 82}, {"time": 41999, "pitch": 67, "duration": 94, "velocity": 88}, {"time": 41999, "pitch": 70, "duration": 109, "velocity": 80}, {"time": 41999, "pitch": 72, "duration": 105, "velocity": 96}, {"time": 41999, "pitch": 76, "duration": 94, "velocity": 80}, {"time": 42240, "pitch": 67, "duration": 102, "velocity": 88}, {"time": 42240, "pitch": 70, "duration": 115, "velocity": 80}, {"time": 42240, "pitch": 72, "duration": 108, "velocity": 96}, {"time": 42240, "pitch": 76, "duration": 102, "velocity": 80}, {"time": 42481, "pitch": 67, "duration": 84, "velocity": 94}, {"time": 42481, "pitch": 70, "duration": 106, "velocity": 86}, {"time": 42481, "pitch": 72, "duration": 96, "velocity": 98}, {"time": 42481, "pitch": 76, "duration": 104, "velocity": 84}, {"time": 42722, "pitch": 69, "duration": 65, "velocity": 106}, {"time": 42722, "pitch": 72, "duration": 67, "velocity": 110}, {"time": 42722, "pitch": 76, "duration": 69, "velocity": 110}, {"time": 42722, "pitch": 79, "duration": 79, "velocity": 108}, {"time": 42963, "pitch": 69, "duration": 80, "velocity": 98}, {"time": 42963, "pitch": 72, "duration": 75, "velocity": 100}, {"time": 42963, "pitch": 76, "duration": 86, "velocity": 96}, {"time": 42963, "pitch": 79, "duration": 77, "velocity": 94}, {"time": 43204, "pitch": 69, "duration": 76, "velocity": 104}, {"time": 43204, "pitch": 72, "duration": 80, "velocity": 104}, {"time": 43204, "pitch": 76, "duration": 90, "velocity": 98}, {"time": 43204, "pitch": 79, "duration": 86, "velocity": 90}, {"time": 43441, "pitch": 69, "duration": 79, "velocity": 102}, {"time": 43441, "pitch": 72, "duration": 76, "velocity": 104}, {"time": 43441, "pitch": 76, "duration": 89, "velocity": 94}, {"time": 43441, "pitch": 79, "duration": 89, "velocity": 90}, {"time": 43678, "pitch": 69, "duration": 85, "velocity": 100}, {"time": 43678, "pitch": 72, "duration": 77, "velocity": 98}, {"time": 43678, "pitch": 76, "duration": 94, "velocity": 90}, {"time": 43678, "pitch": 79, "duration": 92, "velocity": 82}, {"time": 43919, "pitch": 69, "duration": 80, "velocity": 94}, {"time": 43919, "pitch": 72, "duration": 76, "velocity": 96}, {"time": 43919, "pitch": 76, "duration": 88, "velocity": 86}, {"time": 43919, "pitch": 79, "duration": 86, "velocity": 76}, {"time": 44160, "pitch": 69, "duration": 80, "velocity": 94}, {"time": 44160, "pitch": 72, "duration": 77, "velocity": 96}, {"time": 44160, "pitch": 76, "duration": 90, "velocity": 88}, {"time": 44160, "pitch": 79, "duration": 82, "velocity": 78}, {"time": 44401, "pitch": 69, "duration": 79, "velocity": 92}, {"time": 44401, "pitch": 72, "duration": 77, "velocity": 96}, {"time": 44401, "pitch": 76, "duration": 89, "velocity": 82}, {"time": 44401, "pitch": 79, "duration": 89, "velocity": 78}, {"time": 44642, "pitch": 69, "duration": 75, "velocity": 92}, {"time": 44642, "pitch": 72, "duration": 81, "velocity": 98}, {"time": 44642, "pitch": 74, "duration": 69, "velocity": 86}, {"time": 44642, "pitch": 78, "duration": 108, "velocity": 88}, {"time": 44883, "pitch": 69, "duration": 84, "velocity": 80}, {"time": 44883, "pitch": 72, "duration": 98, "velocity": 88}, {"time": 44883, "pitch": 74, "duration": 94, "velocity": 88}, {"time": 44883, "pitch": 78, "duration": 105, "velocity": 70}, {"time": 45124, "pitch": 69, "duration": 83, "velocity": 90}, {"time": 45124, "pitch": 72, "duration": 97, "velocity": 96}, {"time": 45124, "pitch": 74, "duration": 83, "velocity": 90}, {"time": 45124, "pitch": 78, "duration": 102, "velocity": 74}, {"time": 45361, "pitch": 69, "duration": 89, "velocity": 92}, {"time": 45361, "pitch": 72, "duration": 99, "velocity": 98}, {"time": 45361, "pitch": 74, "duration": 85, "velocity": 92}, {"time": 45361, "pitch": 78, "duration": 106, "velocity": 78}, {"time": 45598, "pitch": 69, "duration": 91, "velocity": 94}, {"time": 45598, "pitch": 72, "duration": 96, "velocity": 102}, {"time": 45598, "pitch": 74, "duration": 91, "velocity": 94}, {"time": 45598, "pitch": 78, "duration": 104, "velocity": 84}, {"time": 45839, "pitch": 69, "duration": 89, "velocity": 94}, {"time": 45839, "pitch": 72, "duration": 98, "velocity": 98}, {"time": 45839, "pitch": 74, "duration": 89, "velocity": 92}, {"time": 45839, "pitch": 78, "duration": 106, "velocity": 80}, {"time": 46080, "pitch": 69, "duration": 85, "velocity": 96}, {"time": 46080, "pitch": 72, "duration": 100, "velocity": 98}, {"time": 46080, "pitch": 74, "duration": 85, "velocity": 90}, {"time": 46080, "pitch": 78, "duration": 110, "velocity": 73}, {"time": 46321, "pitch": 69, "duration": 84, "velocity": 94}, {"time": 46321, "pitch": 72, "duration": 106, "velocity": 100}, {"time": 46321, "pitch": 74, "duration": 100, "velocity": 98}, {"time": 46321, "pitch": 78, "duration": 90, "velocity": 76}, {"time": 46562, "pitch": 69, "duration": 80, "velocity": 100}, {"time": 46562, "pitch": 70, "duration": 105, "velocity": 92}, {"time": 46562, "pitch": 74, "duration": 96, "velocity": 94}, {"time": 46562, "pitch": 77, "duration": 104, "velocity": 84}, {"time": 46803, "pitch": 69, "duration": 78, "velocity": 96}, {"time": 46803, "pitch": 70, "duration": 96, "velocity": 86}, {"time": 46803, "pitch": 74, "duration": 94, "velocity": 94}, {"time": 46803, "pitch": 77, "duration": 104, "velocity": 78}, {"time": 47044, "pitch": 69, "duration": 83, "velocity": 92}, {"time": 47044, "pitch": 70, "duration": 105, "velocity": 86}, {"time": 47044, "pitch": 74, "duration": 95, "velocity": 98}, {"time": 47044, "pitch": 77, "duration": 91, "velocity": 73}, {"time": 47281, "pitch": 69, "duration": 77, "velocity": 94}, {"time": 47281, "pitch": 70, "duration": 108, "velocity": 88}, {"time": 47281, "pitch": 74, "duration": 97, "velocity": 94}, {"time": 47281, "pitch": 77, "duration": 99, "velocity": 74}, {"time": 47518, "pitch": 69, "duration": 78, "velocity": 94}, {"time": 47518, "pitch": 70, "duration": 109, "velocity": 84}, {"time": 47518, "pitch": 74, "duration": 98, "velocity": 94}, {"time": 47518, "pitch": 77, "duration": 99, "velocity": 73}, {"time": 47759, "pitch": 69, "duration": 79, "velocity": 92}, {"time": 47759, "pitch": 70, "duration": 105, "velocity": 84}, {"time": 47759, "pitch": 74, "duration": 95, "velocity": 92}, {"time": 47759, "pitch": 77, "duration": 100, "velocity": 73}, {"time": 48000, "pitch": 69, "duration": 85, "velocity": 94}, {"time": 48000, "pitch": 70, "duration": 106, "velocity": 84}, {"time": 48000, "pitch": 74, "duration": 100, "velocity": 92}, {"time": 48000, "pitch": 77, "duration": 98, "velocity": 73}, {"time": 48241, "pitch": 69, "duration": 101, "velocity": 96}, {"time": 48241, "pitch": 70, "duration": 124, "velocity": 88}, {"time": 48241, "pitch": 74, "duration": 105, "velocity": 92}, {"time": 48241, "pitch": 77, "duration": 99, "velocity": 76}, {"time": 48482, "pitch": 67, "duration": 97, "velocity": 94}, {"time": 48482, "pitch": 70, "duration": 123, "velocity": 88}, {"time": 48482, "pitch": 72, "duration": 112, "velocity": 98}, {"time": 48482, "pitch": 76, "duration": 107, "velocity": 86}, {"time": 48719, "pitch": 67, "duration": 105, "velocity": 92}, {"time": 48719, "pitch": 70, "duration": 122, "velocity": 88}, {"time": 48719, "pitch": 72, "duration": 111, "velocity": 98}, {"time": 48719, "pitch": 76, "duration": 113, "velocity": 86}, {"time": 48956, "pitch": 67, "duration": 92, "velocity": 92}, {"time": 48956, "pitch": 70, "duration": 118, "velocity": 86}, {"time": 48956, "pitch": 72, "duration": 102, "velocity": 98}, {"time": 48956, "pitch": 76, "duration": 106, "velocity": 86}, {"time": 49197, "pitch": 67, "duration": 91, "velocity": 90}, {"time": 49197, "pitch": 70, "duration": 117, "velocity": 86}, {"time": 49197, "pitch": 72, "duration": 101, "velocity": 96}, {"time": 49197, "pitch": 76, "duration": 105, "velocity": 86}, {"time": 49438, "pitch": 67, "duration": 96, "velocity": 86}, {"time": 49438, "pitch": 70, "duration": 111, "velocity": 80}, {"time": 49438, "pitch": 72, "duration": 107, "velocity": 96}, {"time": 49438, "pitch": 76, "duration": 101, "velocity": 82}, {"time": 49679, "pitch": 67, "duration": 94, "velocity": 88}, {"time": 49679, "pitch": 70, "duration": 109, "velocity": 80}, {"time": 49679, "pitch": 72, "duration": 105, "velocity": 96}, {"time": 49679, "pitch": 76, "duration": 94, "velocity": 80}, {"time": 49920, "pitch": 67, "duration": 102, "velocity": 88}, {"time": 49920, "pitch": 70, "duration": 116, "velocity": 80}, {"time": 49920, "pitch": 72, "duration": 109, "velocity": 96}, {"time": 49920, "pitch": 76, "duration": 102, "velocity": 80}, {"time": 50161, "pitch": 67, "duration": 84, "velocity": 94}, {"time": 50161, "pitch": 70, "duration": 107, "velocity": 86}, {"time": 50161, "pitch": 72, "duration": 97, "velocity": 98}, {"time": 50161, "pitch": 76, "duration": 105, "velocity": 84}, {"time": 50402, "pitch": 53, "duration": 1141, "velocity": 80}, {"time": 50402, "pitch": 65, "duration": 1311, "velocity": 80}, {"time": 50402, "pitch": 69, "duration": 1315, "velocity": 80}, {"time": 50402, "pitch": 72, "duration": 1327, "velocity": 80}, {"time": 50402, "pitch": 76, "duration": 1311, "velocity": 80}, {"time": 51599, "pitch": 53, "duration": 345, "velocity": 80}, {"time": 51840, "pitch": 65, "duration": 346, "velocity": 80}, {"time": 51840, "pitch": 69, "duration": 346, "velocity": 80}, {"time": 51840, "pitch": 72, "duration": 344, "velocity": 80}, {"time": 51840, "pitch": 76, "duration": 303, "velocity": 80}, {"time": 52081, "pitch": 53, "duration": 203, "velocity": 80}, {"time": 52322, "pitch": 59, "duration": 1339, "velocity": 80}, {"time": 52322, "pitch": 65, "duration": 1133, "velocity": 80}, {"time": 52322, "pitch": 68, "duration": 1141, "velocity": 80}, {"time": 52322, "pitch": 71, "duration": 1132, "velocity": 80}, {"time": 52322, "pitch": 74, "duration": 1137, "velocity": 80}, {"time": 53519, "pitch": 65, "duration": 354, "velocity": 80}, {"time": 53519, "pitch": 68, "duration": 374, "velocity": 80}, {"time": 53519, "pitch": 71, "duration": 359, "velocity": 80}, {"time": 53519, "pitch": 74, "duration": 348, "velocity": 80}, {"time": 53760, "pitch": 59, "duration": 453, "velocity": 80}, {"time": 54001, "pitch": 65, "duration": 166, "velocity": 80}, {"time": 54001, "pitch": 68, "duration": 186, "velocity": 80}, {"time": 54001, "pitch": 71, "duration": 178, "velocity": 80}, {"time": 54001, "pitch": 74, "duration": 159, "velocity": 80}, {"time": 54242, "pitch": 52, "duration": 1937, "velocity": 80}, {"time": 54242, "pitch": 64, "duration": 1914, "velocity": 80}, {"time": 54242, "pitch": 67, "duration": 1113, "velocity": 80}, {"time": 54242, "pitch": 71, "duration": 1113, "velocity": 80}, {"time": 54242, "pitch": 74, "duration": 1319, "velocity": 80}, {"time": 55439, "pitch": 67, "duration": 99, "velocity": 80}, {"time": 55680, "pitch": 67, "duration": 466, "velocity": 80}, {"time": 55680, "pitch": 71, "duration": 472, "velocity": 80}, {"time": 55680, "pitch": 74, "duration": 480, "velocity": 80}, {"time": 55921, "pitch": 79, "duration": 235, "velocity": 80}, {"time": 56162, "pitch": 60, "duration": 952, "velocity": 80}, {"time": 56162, "pitch": 67, "duration": 887, "velocity": 80}, {"time": 56162, "pitch": 70, "duration": 902, "velocity": 80}, {"time": 56162, "pitch": 74, "duration": 881, "velocity": 80}, {"time": 56162, "pitch": 77, "duration": 878, "velocity": 80}, {"time": 57118, "pitch": 48, "duration": 924, "velocity": 80}, {"time": 57118, "pitch": 67, "duration": 918, "velocity": 80}, {"time": 57118, "pitch": 70, "duration": 951, "velocity": 80}, {"time": 57118, "pitch": 72, "duration": 927, "velocity": 80}, {"time": 57118, "pitch": 76, "duration": 939, "velocity": 80}, {"time": 58082, "pitch": 53, "duration": 1141, "velocity": 80}, {"time": 58082, "pitch": 65, "duration": 1311, "velocity": 80}, {"time": 58082, "pitch": 69, "duration": 1315, "velocity": 80}, {"time": 58082, "pitch": 72, "duration": 1327, "velocity": 80}, {"time": 58082, "pitch": 76, "duration": 1311, "velocity": 80}, {"time": 59279, "pitch": 53, "duration": 345, "velocity": 80}, {"time": 59520, "pitch": 65, "duration": 346, "velocity": 80}, {"time": 59520, "pitch": 69, "duration": 346, "velocity": 80}, {"time": 59520, "pitch": 72, "duration": 344, "velocity": 80}, {"time": 59520, "pitch": 76, "duration": 304, "velocity": 80}, {"time": 59761, "pitch": 53, "duration": 203, "velocity": 80}, {"time": 60002, "pitch": 53, "duration": 1339, "velocity": 80}, {"time": 60002, "pitch": 65, "duration": 1133, "velocity": 80}, {"time": 60002, "pitch": 68, "duration": 1141, "velocity": 80}, {"time": 60002, "pitch": 72, "duration": 1132, "velocity": 80}, {"time": 60002, "pitch": 75, "duration": 1137, "velocity": 80}, {"time": 61199, "pitch": 65, "duration": 354, "velocity": 80}, {"time": 61199, "pitch": 68, "duration": 374, "velocity": 80}, {"time": 61199, "pitch": 72, "duration": 359, "velocity": 80}, {"time": 61199, "pitch": 75, "duration": 348, "velocity": 80}, {"time": 61441, "pitch": 53, "duration": 452, "velocity": 80}, {"time": 61682, "pitch": 65, "duration": 165, "velocity": 80}, {"time": 61682, "pitch": 68, "duration": 185, "velocity": 80}, {"time": 61682, "pitch": 71, "duration": 177, "velocity": 80}, {"time": 61682, "pitch": 74, "duration": 158, "velocity": 80}, {"time": 61923, "pitch": 52, "duration": 1936, "velocity": 80}, {"time": 61923, "pitch": 64, "duration": 1914, "velocity": 80}, {"time": 61923, "pitch": 67, "duration": 1112, "velocity": 80}, {"time": 61923, "pitch": 71, "duration": 1112, "velocity": 80}, {"time": 61923, "pitch": 74, "duration": 1318, "velocity": 80}, {"time": 63120, "pitch": 67, "duration": 98, "velocity": 80}, {"time": 63361, "pitch": 67, "duration": 466, "velocity": 80}, {"time": 63361, "pitch": 71, "duration": 472, "velocity": 80}, {"time": 63361, "pitch": 74, "duration": 480, "velocity": 80}, {"time": 63602, "pitch": 79, "duration": 235, "velocity": 80}, {"time": 63843, "pitch": 60, "duration": 952, "velocity": 80}, {"time": 63843, "pitch": 67, "duration": 886, "velocity": 80}, {"time": 63843, "pitch": 70, "duration": 901, "velocity": 80}, {"time": 63843, "pitch": 74, "duration": 880, "velocity": 80}, {"time": 63843, "pitch": 77, "duration": 877, "velocity": 80}, {"time": 64799, "pitch": 48, "duration": 924, "velocity": 80}, {"time": 64799, "pitch": 67, "duration": 918, "velocity": 80}, {"time": 64799, "pitch": 70, "duration": 951, "velocity": 80}, {"time": 64799, "pitch": 72, "duration": 927, "velocity": 80}, {"time": 64799, "pitch": 76, "duration": 939, "velocity": 80}, {"time": 65763, "pitch": 41, "duration": 1847, "velocity": 100}, {"time": 65763, "pitch": 53, "duration": 1859, "velocity": 100}, {"time": 65763, "pitch": 65, "duration": 1847, "velocity": 100}, {"time": 65763, "pitch": 67, "duration": 1858, "velocity": 100}, {"time": 65763, "pitch": 72, "duration": 1872, "velocity": 100}, {"time": 67442, "pitch": 76, "duration": 212, "velocity": 100}, {"time": 67683, "pitch": 43, "duration": 1828, "velocity": 100}, {"time": 67683, "pitch": 55, "duration": 1847, "velocity": 100}, {"time": 67683, "pitch": 67, "duration": 1853, "velocity": 100}, {"time": 67683, "pitch": 69, "duration": 1865, "velocity": 100}, {"time": 67683, "pitch": 74, "duration": 1806, "velocity": 100}, {"time": 69362, "pitch": 76, "duration": 156, "velocity": 100}, {"time": 69603, "pitch": 45, "duration": 1861, "velocity": 100}, {"time": 69603, "pitch": 57, "duration": 1870, "velocity": 100}, {"time": 69603, "pitch": 67, "duration": 1575, "velocity": 100}, {"time": 69603, "pitch": 69, "duration": 1547, "velocity": 100}, {"time": 69603, "pitch": 72, "duration": 1581, "velocity": 100}, {"time": 71282, "pitch": 74, "duration": 166, "velocity": 100}, {"time": 71402, "pitch": 76, "duration": 107, "velocity": 100}, {"time": 71523, "pitch": 45, "duration": 1884, "velocity": 100}, {"time": 71523, "pitch": 57, "duration": 1882, "velocity": 100}, {"time": 71523, "pitch": 67, "duration": 1887, "velocity": 100}, {"time": 71523, "pitch": 72, "duration": 1008, "velocity": 100}, {"time": 71523, "pitch": 77, "duration": 532, "velocity": 100}, {"time": 71997, "pitch": 79, "duration": 515, "velocity": 100}, {"time": 72479, "pitch": 76, "duration": 511, "velocity": 100}, {"time": 72961, "pitch": 74, "duration": 440, "velocity": 100}, {"time": 73443, "pitch": 41, "duration": 1847, "velocity": 100}, {"time": 73443, "pitch": 53, "duration": 1859, "velocity": 100}, {"time": 73443, "pitch": 65, "duration": 1847, "velocity": 100}, {"time": 73443, "pitch": 67, "duration": 1858, "velocity": 100}, {"time": 73443, "pitch": 72, "duration": 1872, "velocity": 100}, {"time": 75122, "pitch": 76, "duration": 212, "velocity": 100}, {"time": 75363, "pitch": 43, "duration": 1828, "velocity": 100}, {"time": 75363, "pitch": 55, "duration": 1847, "velocity": 100}, {"time": 75363, "pitch": 67, "duration": 1853, "velocity": 100}, {"time": 75363, "pitch": 69, "duration": 1865, "velocity": 100}, {"time": 75363, "pitch": 74, "duration": 1807, "velocity": 100}, {"time": 77042, "pitch": 76, "duration": 156, "velocity": 100}, {"time": 77283, "pitch": 45, "duration": 1861, "velocity": 100}, {"time": 77283, "pitch": 57, "duration": 1870, "velocity": 100}, {"time": 77283, "pitch": 67, "duration": 1575, "velocity": 100}, {"time": 77283, "pitch": 69, "duration": 1548, "velocity": 100}, {"time": 77283, "pitch": 72, "duration": 1581, "velocity": 100}, {"time": 78962, "pitch": 74, "duration": 166, "velocity": 100}, {"time": 79083, "pitch": 76, "duration": 106, "velocity": 100}, {"time": 79203, "pitch": 48, "duration": 1884, "velocity": 100}, {"time": 79203, "pitch": 60, "duration": 1882, "velocity": 100}, {"time": 79203, "pitch": 67, "duration": 1887, "velocity": 100}, {"time": 79203, "pitch": 72, "duration": 1008, "velocity": 100}, {"time": 79203, "pitch": 77, "duration": 532, "velocity": 100}, {"time": 79677, "pitch": 76, "duration": 515, "velocity": 100}, {"time": 80159, "pitch": 74, "duration": 511, "velocity": 100}, {"time": 80641, "pitch": 72, "duration": 440, "velocity": 100}, {"time": 81123, "pitch": 41, "duration": 1832, "velocity": 100}, {"time": 81123, "pitch": 53, "duration": 1845, "velocity": 100}, {"time": 81123, "pitch": 67, "duration": 1860, "velocity": 100}, {"time": 81123, "pitch": 72, "duration": 694, "velocity": 100}, {"time": 81123, "pitch": 74, "duration": 1856, "velocity": 100}, {"time": 81123, "pitch": 79, "duration": 1843, "velocity": 100}, {"time": 81838, "pitch": 72, "duration": 1123, "velocity": 100}, {"time": 83043, "pitch": 43, "duration": 1803, "velocity": 100}, {"time": 83043, "pitch": 55, "duration": 1809, "velocity": 100}, {"time": 83043, "pitch": 67, "duration": 1821, "velocity": 100}, {"time": 83043, "pitch": 72, "duration": 684, "velocity": 100}, {"time": 83043, "pitch": 74, "duration": 1830, "velocity": 100}, {"time": 83043, "pitch": 79, "duration": 1807, "velocity": 100}, {"time": 83758, "pitch": 72, "duration": 1096, "velocity": 100}, {"time": 84964, "pitch": 45, "duration": 3664, "velocity": 100}, {"time": 84964, "pitch": 57, "duration": 3560, "velocity": 100}, {"time": 84964, "pitch": 67, "duration": 3665, "velocity": 100}, {"time": 84964, "pitch": 72, "duration": 3663, "velocity": 100}, {"time": 84964, "pitch": 74, "duration": 733, "velocity": 100}, {"time": 84964, "pitch": 79, "duration": 3653, "velocity": 100}, {"time": 85678, "pitch": 76, "duration": 2969, "velocity": 100}, {"time": 88804, "pitch": 41, "duration": 1796, "velocity": 100}, {"time": 88804, "pitch": 53, "duration": 1803, "velocity": 100}, {"time": 88804, "pitch": 67, "duration": 1831, "velocity": 100}, {"time": 88804, "pitch": 72, "duration": 625, "velocity": 100}, {"time": 88804, "pitch": 74, "duration": 1829, "velocity": 100}, {"time": 88804, "pitch": 79, "duration": 1833, "velocity": 100}, {"time": 89519, "pitch": 72, "duration": 1137, "velocity": 100}, {"time": 90724, "pitch": 43, "duration": 1779, "velocity": 100}, {"time": 90724, "pitch": 55, "duration": 1783, "velocity": 100}, {"time": 90724, "pitch": 67, "duration": 1813, "velocity": 100}, {"time": 90724, "pitch": 72, "duration": 617, "velocity": 100}, {"time": 90724, "pitch": 74, "duration": 1804, "velocity": 100}, {"time": 90724, "pitch": 79, "duration": 1795, "velocity": 100}, {"time": 91439, "pitch": 72, "duration": 1086, "velocity": 100}, {"time": 92644, "pitch": 45, "duration": 3771, "velocity": 100}, {"time": 92644, "pitch": 57, "duration": 3767, "velocity": 100}, {"time": 92644, "pitch": 67, "duration": 1623, "velocity": 100}, {"time": 92644, "pitch": 72, "duration": 1186, "velocity": 100}, {"time": 92644, "pitch": 74, "duration": 757, "velocity": 100}, {"time": 92644, "pitch": 79, "duration": 3787, "velocity": 100}, {"time": 93359, "pitch": 76, "duration": 3055, "velocity": 100}, {"time": 93841, "pitch": 72, "duration": 2563, "velocity": 100}, {"time": 94323, "pitch": 67, "duration": 2067, "velocity": 100}, {"time": 96484, "pitch": 69, "duration": 64, "velocity": 106}, {"time": 96484, "pitch": 72, "duration": 66, "velocity": 110}, {"time": 96484, "pitch": 76, "duration": 68, "velocity": 110}, {"time": 96484, "pitch": 79, "duration": 78, "velocity": 108}, {"time": 96721, "pitch": 69, "duration": 79, "velocity": 98}, {"time": 96721, "pitch": 72, "duration": 74, "velocity": 100}, {"time": 96721, "pitch": 76, "duration": 85, "velocity": 96}, {"time": 96721, "pitch": 79, "duration": 76, "velocity": 94}, {"time": 96958, "pitch": 69, "duration": 77, "velocity": 104}, {"time": 96958, "pitch": 72, "duration": 81, "velocity": 104}, {"time": 96958, "pitch": 76, "duration": 91, "velocity": 98}, {"time": 96958, "pitch": 79, "duration": 87, "velocity": 90}, {"time": 97199, "pitch": 69, "duration": 80, "velocity": 102}, {"time": 97199, "pitch": 72, "duration": 77, "velocity": 104}, {"time": 97199, "pitch": 76, "duration": 90, "velocity": 94}, {"time": 97199, "pitch": 79, "duration": 90, "velocity": 90}, {"time": 97440, "pitch": 69, "duration": 85, "velocity": 100}, {"time": 97440, "pitch": 72, "duration": 77, "velocity": 98}, {"time": 97440, "pitch": 76, "duration": 94, "velocity": 90}, {"time": 97440, "pitch": 79, "duration": 92, "velocity": 82}, {"time": 97681, "pitch": 69, "duration": 80, "velocity": 94}, {"time": 97681, "pitch": 72, "duration": 76, "velocity": 96}, {"time": 97681, "pitch": 76, "duration": 88, "velocity": 86}, {"time": 97681, "pitch": 79, "duration": 86, "velocity": 76}, {"time": 97922, "pitch": 69, "duration": 80, "velocity": 94}, {"time": 97922, "pitch": 72, "duration": 77, "velocity": 96}, {"time": 97922, "pitch": 76, "duration": 90, "velocity": 88}, {"time": 97922, "pitch": 79, "duration": 82, "velocity": 78}, {"time": 98163, "pitch": 69, "duration": 79, "velocity": 92}, {"time": 98163, "pitch": 72, "duration": 77, "velocity": 96}, {"time": 98163, "pitch": 76, "duration": 89, "velocity": 82}, {"time": 98163, "pitch": 79, "duration": 89, "velocity": 78}, {"time": 98404, "pitch": 69, "duration": 74, "velocity": 92}, {"time": 98404, "pitch": 72, "duration": 80, "velocity": 98}, {"time": 98404, "pitch": 74, "duration": 68, "velocity": 86}, {"time": 98404, "pitch": 78, "duration": 107, "velocity": 88}, {"time": 98641, "pitch": 69, "duration": 83, "velocity": 80}, {"time": 98641, "pitch": 72, "duration": 97, "velocity": 88}, {"time": 98641, "pitch": 74, "duration": 93, "velocity": 88}, {"time": 98641, "pitch": 78, "duration": 104, "velocity": 70}, {"time": 98878, "pitch": 69, "duration": 84, "velocity": 90}, {"time": 98878, "pitch": 72, "duration": 98, "velocity": 96}, {"time": 98878, "pitch": 74, "duration": 84, "velocity": 90}, {"time": 98878, "pitch": 78, "duration": 103, "velocity": 74}, {"time": 99119, "pitch": 69, "duration": 90, "velocity": 92}, {"time": 99119, "pitch": 72, "duration": 100, "velocity": 98}, {"time": 99119, "pitch": 74, "duration": 86, "velocity": 92}, {"time": 99119, "pitch": 78, "duration": 107, "velocity": 78}, {"time": 99360, "pitch": 69, "duration": 91, "velocity": 94}, {"time": 99360, "pitch": 72, "duration": 96, "velocity": 102}, {"time": 99360, "pitch": 74, "duration": 91, "velocity": 94}, {"time": 99360, "pitch": 78, "duration": 104, "velocity": 84}, {"time": 99601, "pitch": 69, "duration": 89, "velocity": 94}, {"time": 99601, "pitch": 72, "duration": 99, "velocity": 98}, {"time": 99601, "pitch": 74, "duration": 89, "velocity": 92}, {"time": 99601, "pitch": 78, "duration": 107, "velocity": 80}, {"time": 99842, "pitch": 69, "duration": 84, "velocity": 96}, {"time": 99842, "pitch": 72, "duration": 99, "velocity": 98}, {"time": 99842, "pitch": 74, "duration": 84, "velocity": 90}, {"time": 99842, "pitch": 78, "duration": 109, "velocity": 73}, {"time": 100079, "pitch": 69, "duration": 83, "velocity": 94}, {"time": 100079, "pitch": 72, "duration": 105, "velocity": 100}, {"time": 100079, "pitch": 74, "duration": 99, "velocity": 98}, {"time": 100079, "pitch": 78, "duration": 89, "velocity": 76}, {"time": 100316, "pitch": 69, "duration": 80, "velocity": 100}, {"time": 100316, "pitch": 70, "duration": 105, "velocity": 92}, {"time": 100316, "pitch": 74, "duration": 96, "velocity": 94}, {"time": 100316, "pitch": 77, "duration": 104, "velocity": 84}, {"time": 100557, "pitch": 69, "duration": 78, "velocity": 96}, {"time": 100557, "pitch": 70, "duration": 96, "velocity": 86}, {"time": 100557, "pitch": 74, "duration": 94, "velocity": 94}, {"time": 100557, "pitch": 77, "duration": 104, "velocity": 78}, {"time": 100798, "pitch": 69, "duration": 84, "velocity": 92}, {"time": 100798, "pitch": 70, "duration": 106, "velocity": 86}, {"time": 100798, "pitch": 74, "duration": 96, "velocity": 98}, {"time": 100798, "pitch": 77, "duration": 92, "velocity": 73}, {"time": 101039, "pitch": 69, "duration": 78, "velocity": 94}, {"time": 101039, "pitch": 70, "duration": 110, "velocity": 88}, {"time": 101039, "pitch": 74, "duration": 98, "velocity": 94}, {"time": 101039, "pitch": 77, "duration": 101, "velocity": 74}, {"time": 101280, "pitch": 69, "duration": 78, "velocity": 94}, {"time": 101280, "pitch": 70, "duration": 110, "velocity": 84}, {"time": 101280, "pitch": 74, "duration": 99, "velocity": 94}, {"time": 101280, "pitch": 77, "duration": 100, "velocity": 73}, {"time": 101521, "pitch": 69, "duration": 80, "velocity": 92}, {"time": 101521, "pitch": 70, "duration": 106, "velocity": 84}, {"time": 101521, "pitch": 74, "duration": 96, "velocity": 92}, {"time": 101521, "pitch": 77, "duration": 101, "velocity": 73}, {"time": 101762, "pitch": 69, "duration": 84, "velocity": 94}, {"time": 101762, "pitch": 70, "duration": 105, "velocity": 84}, {"time": 101762, "pitch": 74, "duration": 99, "velocity": 92}, {"time": 101762, "pitch": 77, "duration": 97, "velocity": 73}, {"time": 101999, "pitch": 69, "duration": 100, "velocity": 96}, {"time": 101999, "pitch": 70, "duration": 122, "velocity": 88}, {"time": 101999, "pitch": 74, "duration": 104, "velocity": 92}, {"time": 101999, "pitch": 77, "duration": 98, "velocity": 76}, {"time": 102236, "pitch": 67, "duration": 98, "velocity": 94}, {"time": 102236, "pitch": 70, "duration": 126, "velocity": 88}, {"time": 102236, "pitch": 72, "duration": 114, "velocity": 98}, {"time": 102236, "pitch": 76, "duration": 108, "velocity": 86}, {"time": 102477, "pitch": 67, "duration": 107, "velocity": 92}, {"time": 102477, "pitch": 70, "duration": 125, "velocity": 88}, {"time": 102477, "pitch": 72, "duration": 113, "velocity": 98}, {"time": 102477, "pitch": 76, "duration": 115, "velocity": 86}, {"time": 102718, "pitch": 67, "duration": 93, "velocity": 92}, {"time": 102718, "pitch": 70, "duration": 119, "velocity": 86}, {"time": 102718, "pitch": 72, "duration": 103, "velocity": 98}, {"time": 102718, "pitch": 76, "duration": 107, "velocity": 86}, {"time": 102959, "pitch": 67, "duration": 92, "velocity": 90}, {"time": 102959, "pitch": 70, "duration": 118, "velocity": 86}, {"time": 102959, "pitch": 72, "duration": 102, "velocity": 96}, {"time": 102959, "pitch": 76, "duration": 106, "velocity": 86}, {"time": 103200, "pitch": 67, "duration": 97, "velocity": 86}, {"time": 103200, "pitch": 70, "duration": 112, "velocity": 80}, {"time": 103200, "pitch": 72, "duration": 108, "velocity": 96}, {"time": 103200, "pitch": 76, "duration": 102, "velocity": 82}, {"time": 103441, "pitch": 67, "duration": 95, "velocity": 88}, {"time": 103441, "pitch": 70, "duration": 110, "velocity": 80}, {"time": 103441, "pitch": 72, "duration": 106, "velocity": 96}, {"time": 103441, "pitch": 76, "duration": 95, "velocity": 80}, {"time": 103682, "pitch": 67, "duration": 101, "velocity": 88}, {"time": 103682, "pitch": 70, "duration": 114, "velocity": 80}, {"time": 103682, "pitch": 72, "duration": 107, "velocity": 96}, {"time": 103682, "pitch": 76, "duration": 101, "velocity": 80}, {"time": 103919, "pitch": 67, "duration": 83, "velocity": 94}, {"time": 103919, "pitch": 70, "duration": 105, "velocity": 86}, {"time": 103919, "pitch": 72, "duration": 95, "velocity": 98}, {"time": 103919, "pitch": 76, "duration": 103, "velocity": 84}, {"time": 104156, "pitch": 69, "duration": 65, "velocity": 106}, {"time": 104156, "pitch": 72, "duration": 67, "velocity": 110}, {"time": 104156, "pitch": 76, "duration": 69, "velocity": 110}, {"time": 104156, "pitch": 79, "duration": 79, "velocity": 108}, {"time": 104397, "pitch": 69, "duration": 80, "velocity": 98}, {"time": 104397, "pitch": 72, "duration": 75, "velocity": 100}, {"time": 104397, "pitch": 76, "duration": 87, "velocity": 96}, {"time": 104397, "pitch": 79, "duration": 77, "velocity": 94}, {"time": 104638, "pitch": 69, "duration": 78, "velocity": 104}, {"time": 104638, "pitch": 72, "duration": 82, "velocity": 104}, {"time": 104638, "pitch": 76, "duration": 92, "velocity": 98}, {"time": 104638, "pitch": 79, "duration": 88, "velocity": 90}, {"time": 104879, "pitch": 69, "duration": 81, "velocity": 102}, {"time": 104879, "pitch": 72, "duration": 78, "velocity": 104}, {"time": 104879, "pitch": 76, "duration": 91, "velocity": 94}, {"time": 104879, "pitch": 79, "duration": 91, "velocity": 90}, {"time": 105120, "pitch": 69, "duration": 86, "velocity": 100}, {"time": 105120, "pitch": 72, "duration": 78, "velocity": 98}, {"time": 105120, "pitch": 76, "duration": 95, "velocity": 90}, {"time": 105120, "pitch": 79, "duration": 93, "velocity": 82}, {"time": 105361, "pitch": 69, "duration": 81, "velocity": 94}, {"time": 105361, "pitch": 72, "duration": 77, "velocity": 96}, {"time": 105361, "pitch": 76, "duration": 89, "velocity": 86}, {"time": 105361, "pitch": 79, "duration": 87, "velocity": 76}, {"time": 105602, "pitch": 69, "duration": 79, "velocity": 94}, {"time": 105602, "pitch": 72, "duration": 76, "velocity": 96}, {"time": 105602, "pitch": 76, "duration": 89, "velocity": 88}, {"time": 105602, "pitch": 79, "duration": 81, "velocity": 78}, {"time": 105839, "pitch": 69, "duration": 78, "velocity": 92}, {"time": 105839, "pitch": 72, "duration": 76, "velocity": 96}, {"time": 105839, "pitch": 76, "duration": 88, "velocity": 82}, {"time": 105839, "pitch": 79, "duration": 88, "velocity": 78}, {"time": 106076, "pitch": 69, "duration": 75, "velocity": 92}, {"time": 106076, "pitch": 72, "duration": 82, "velocity": 98}, {"time": 106076, "pitch": 74, "duration": 69, "velocity": 86}, {"time": 106076, "pitch": 78, "duration": 109, "velocity": 88}, {"time": 106317, "pitch": 69, "duration": 85, "velocity": 80}, {"time": 106317, "pitch": 72, "duration": 99, "velocity": 88}, {"time": 106317, "pitch": 74, "duration": 95, "velocity": 88}, {"time": 106317, "pitch": 78, "duration": 106, "velocity": 70}, {"time": 106558, "pitch": 69, "duration": 85, "velocity": 90}, {"time": 106558, "pitch": 72, "duration": 99, "velocity": 96}, {"time": 106558, "pitch": 74, "duration": 85, "velocity": 90}, {"time": 106558, "pitch": 78, "duration": 104, "velocity": 74}, {"time": 106799, "pitch": 69, "duration": 91, "velocity": 92}, {"time": 106799, "pitch": 72, "duration": 101, "velocity": 98}, {"time": 106799, "pitch": 74, "duration": 87, "velocity": 92}, {"time": 106799, "pitch": 78, "duration": 108, "velocity": 78}, {"time": 107040, "pitch": 69, "duration": 92, "velocity": 94}, {"time": 107040, "pitch": 72, "duration": 97, "velocity": 102}, {"time": 107040, "pitch": 74, "duration": 92, "velocity": 94}, {"time": 107040, "pitch": 78, "duration": 105, "velocity": 84}, {"time": 107281, "pitch": 69, "duration": 90, "velocity": 94}, {"time": 107281, "pitch": 72, "duration": 99, "velocity": 98}, {"time": 107281, "pitch": 74, "duration": 90, "velocity": 92}, {"time": 107281, "pitch": 78, "duration": 107, "velocity": 80}, {"time": 107522, "pitch": 69, "duration": 84, "velocity": 96}, {"time": 107522, "pitch": 72, "duration": 99, "velocity": 98}, {"time": 107522, "pitch": 74, "duration": 84, "velocity": 90}, {"time": 107522, "pitch": 78, "duration": 109, "velocity": 73}, {"time": 107759, "pitch": 69, "duration": 83, "velocity": 94}, {"time": 107759, "pitch": 72, "duration": 105, "velocity": 100}, {"time": 107759, "pitch": 74, "duration": 99, "velocity": 98}, {"time": 107759, "pitch": 78, "duration": 89, "velocity": 76}, {"time": 107996, "pitch": 69, "duration": 81, "velocity": 100}, {"time": 107996, "pitch": 70, "duration": 106, "velocity": 92}, {"time": 107996, "pitch": 74, "duration": 97, "velocity": 94}, {"time": 107996, "pitch": 77, "duration": 105, "velocity": 84}, {"time": 108237, "pitch": 69, "duration": 79, "velocity": 96}, {"time": 108237, "pitch": 70, "duration": 97, "velocity": 86}, {"time": 108237, "pitch": 74, "duration": 95, "velocity": 94}, {"time": 108237, "pitch": 77, "duration": 105, "velocity": 78}, {"time": 108478, "pitch": 69, "duration": 85, "velocity": 92}, {"time": 108478, "pitch": 70, "duration": 107, "velocity": 86}, {"time": 108478, "pitch": 74, "duration": 97, "velocity": 98}, {"time": 108478, "pitch": 77, "duration": 93, "velocity": 73}, {"time": 108719, "pitch": 69, "duration": 79, "velocity": 94}, {"time": 108719, "pitch": 70, "duration": 110, "velocity": 88}, {"time": 108719, "pitch": 74, "duration": 99, "velocity": 94}, {"time": 108719, "pitch": 77, "duration": 101, "velocity": 74}, {"time": 108960, "pitch": 69, "duration": 79, "velocity": 94}, {"time": 108960, "pitch": 70, "duration": 110, "velocity": 84}, {"time": 108960, "pitch": 74, "duration": 99, "velocity": 94}, {"time": 108960, "pitch": 77, "duration": 100, "velocity": 73}, {"time": 109201, "pitch": 69, "duration": 80, "velocity": 92}, {"time": 109201, "pitch": 70, "duration": 106, "velocity": 84}, {"time": 109201, "pitch": 74, "duration": 96, "velocity": 92}, {"time": 109201, "pitch": 77, "duration": 101, "velocity": 73}, {"time": 109442, "pitch": 69, "duration": 84, "velocity": 94}, {"time": 109442, "pitch": 70, "duration": 105, "velocity": 84}, {"time": 109442, "pitch": 74, "duration": 99, "velocity": 92}, {"time": 109442, "pitch": 77, "duration": 97, "velocity": 73}, {"time": 109679, "pitch": 69, "duration": 100, "velocity": 96}, {"time": 109679, "pitch": 70, "duration": 122, "velocity": 88}, {"time": 109679, "pitch": 74, "duration": 104, "velocity": 92}, {"time": 109679, "pitch": 77, "duration": 98, "velocity": 76}, {"time": 109916, "pitch": 67, "duration": 99, "velocity": 94}, {"time": 109916, "pitch": 70, "duration": 126, "velocity": 88}, {"time": 109916, "pitch": 72, "duration": 114, "velocity": 98}, {"time": 109916, "pitch": 76, "duration": 109, "velocity": 86}, {"time": 110157, "pitch": 67, "duration": 107, "velocity": 92}, {"time": 110157, "pitch": 70, "duration": 125, "velocity": 88}, {"time": 110157, "pitch": 72, "duration": 113, "velocity": 98}, {"time": 110157, "pitch": 76, "duration": 115, "velocity": 86}, {"time": 110398, "pitch": 67, "duration": 93, "velocity": 92}, {"time": 110398, "pitch": 70, "duration": 119, "velocity": 86}, {"time": 110398, "pitch": 72, "duration": 103, "velocity": 98}, {"time": 110398, "pitch": 76, "duration": 107, "velocity": 86}, {"time": 110639, "pitch": 67, "duration": 92, "velocity": 90}, {"time": 110639, "pitch": 70, "duration": 118, "velocity": 86}, {"time": 110639, "pitch": 72, "duration": 102, "velocity": 96}, {"time": 110639, "pitch": 76, "duration": 106, "velocity": 86}, {"time": 110881, "pitch": 67, "duration": 96, "velocity": 86}, {"time": 110881, "pitch": 70, "duration": 111, "velocity": 80}, {"time": 110881, "pitch": 72, "duration": 107, "velocity": 96}, {"time": 110881, "pitch": 76, "duration": 101, "velocity": 82}, {"time": 111122, "pitch": 67, "duration": 94, "velocity": 88}, {"time": 111122, "pitch": 70, "duration": 109, "velocity": 80}, {"time": 111122, "pitch": 72, "duration": 105, "velocity": 96}, {"time": 111122, "pitch": 76, "duration": 94, "velocity": 80}, {"time": 111363, "pitch": 67, "duration": 100, "velocity": 88}, {"time": 111363, "pitch": 70, "duration": 113, "velocity": 80}, {"time": 111363, "pitch": 72, "duration": 106, "velocity": 96}, {"time": 111363, "pitch": 76, "duration": 100, "velocity": 80}, {"time": 111600, "pitch": 67, "duration": 82, "velocity": 94}, {"time": 111600, "pitch": 70, "duration": 104, "velocity": 86}, {"time": 111600, "pitch": 72, "duration": 94, "velocity": 98}, {"time": 111600, "pitch": 76, "duration": 102, "velocity": 84}, {"time": 111836, "pitch": 53, "duration": 1149, "velocity": 80}, {"time": 111836, "pitch": 65, "duration": 1319, "velocity": 80}, {"time": 111836, "pitch": 69, "duration": 1323, "velocity": 80}, {"time": 111836, "pitch": 72, "duration": 1335, "velocity": 80}, {"time": 111836, "pitch": 76, "duration": 1319, "velocity": 80}, {"time": 113042, "pitch": 53, "duration": 342, "velocity": 80}, {"time": 113283, "pitch": 65, "duration": 339, "velocity": 80}, {"time": 113283, "pitch": 69, "duration": 339, "velocity": 80}, {"time": 113283, "pitch": 72, "duration": 337, "velocity": 80}, {"time": 113283, "pitch": 76, "duration": 298, "velocity": 80}, {"time": 113520, "pitch": 53, "duration": 199, "velocity": 80}, {"time": 113757, "pitch": 59, "duration": 1346, "velocity": 80}, {"time": 113757, "pitch": 65, "duration": 1140, "velocity": 80}, {"time": 113757, "pitch": 68, "duration": 1148, "velocity": 80}, {"time": 113757, "pitch": 71, "duration": 1139, "velocity": 80}, {"time": 113757, "pitch": 74, "duration": 1144, "velocity": 80}, {"time": 114962, "pitch": 65, "duration": 351, "velocity": 80}, {"time": 114962, "pitch": 68, "duration": 371, "velocity": 80}, {"time": 114962, "pitch": 71, "duration": 356, "velocity": 80}, {"time": 114962, "pitch": 74, "duration": 345, "velocity": 80}, {"time": 115203, "pitch": 59, "duration": 445, "velocity": 80}, {"time": 115440, "pitch": 65, "duration": 163, "velocity": 80}, {"time": 115440, "pitch": 68, "duration": 182, "velocity": 80}, {"time": 115440, "pitch": 71, "duration": 174, "velocity": 80}, {"time": 115440, "pitch": 74, "duration": 156, "velocity": 80}, {"time": 115677, "pitch": 52, "duration": 1937, "velocity": 80}, {"time": 115677, "pitch": 64, "duration": 1914, "velocity": 80}, {"time": 115677, "pitch": 67, "duration": 1120, "velocity": 80}, {"time": 115677, "pitch": 71, "duration": 1120, "velocity": 80}, {"time": 115677, "pitch": 74, "duration": 1326, "velocity": 80}, {"time": 116882, "pitch": 67, "duration": 98, "velocity": 80}, {"time": 117123, "pitch": 67, "duration": 458, "velocity": 80}, {"time": 117123, "pitch": 71, "duration": 464, "velocity": 80}, {"time": 117123, "pitch": 74, "duration": 472, "velocity": 80}, {"time": 117360, "pitch": 79, "duration": 231, "velocity": 80}, {"time": 117597, "pitch": 60, "duration": 960, "velocity": 80}, {"time": 117597, "pitch": 67, "duration": 895, "velocity": 80}, {"time": 117597, "pitch": 70, "duration": 910, "velocity": 80}, {"time": 117597, "pitch": 74, "duration": 889, "velocity": 80}, {"time": 117597, "pitch": 77, "duration": 885, "velocity": 80}, {"time": 118561, "pitch": 48, "duration": 916, "velocity": 80}, {"time": 118561, "pitch": 67, "duration": 910, "velocity": 80}, {"time": 118561, "pitch": 70, "duration": 943, "velocity": 80}, {"time": 118561, "pitch": 72, "duration": 919, "velocity": 80}, {"time": 118561, "pitch": 76, "duration": 931, "velocity": 80}, {"time": 119517, "pitch": 53, "duration": 1149, "velocity": 80}, {"time": 119517, "pitch": 65, "duration": 1318, "velocity": 80}, {"time": 119517, "pitch": 69, "duration": 1322, "velocity": 80}, {"time": 119517, "pitch": 72, "duration": 1335, "velocity": 80}, {"time": 119517, "pitch": 76, "duration": 1318, "velocity": 80}, {"time": 120722, "pitch": 53, "duration": 343, "velocity": 80}, {"time": 120963, "pitch": 65, "duration": 340, "velocity": 80}, {"time": 120963, "pitch": 69, "duration": 340, "velocity": 80}, {"time": 120963, "pitch": 72, "duration": 338, "velocity": 80}, {"time": 120963, "pitch": 76, "duration": 298, "velocity": 80}, {"time": 121200, "pitch": 53, "duration": 199, "velocity": 80}, {"time": 121437, "pitch": 53, "duration": 1347, "velocity": 80}, {"time": 121437, "pitch": 65, "duration": 1141, "velocity": 80}, {"time": 121437, "pitch": 68, "duration": 1149, "velocity": 80}, {"time": 121437, "pitch": 72, "duration": 1140, "velocity": 80}, {"time": 121437, "pitch": 75, "duration": 1145, "velocity": 80}, {"time": 122642, "pitch": 65, "duration": 352, "velocity": 80}, {"time": 122642, "pitch": 68, "duration": 371, "velocity": 80}, {"time": 122642, "pitch": 72, "duration": 357, "velocity": 80}, {"time": 122642, "pitch": 75, "duration": 346, "velocity": 80}, {"time": 122883, "pitch": 53, "duration": 445, "velocity": 80}, {"time": 123120, "pitch": 65, "duration": 163, "velocity": 80}, {"time": 123120, "pitch": 68, "duration": 183, "velocity": 80}, {"time": 123120, "pitch": 71, "duration": 175, "velocity": 80}, {"time": 123120, "pitch": 74, "duration": 156, "velocity": 80}, {"time": 123357, "pitch": 52, "duration": 1937, "velocity": 80}, {"time": 123357, "pitch": 64, "duration": 1914, "velocity": 80}, {"time": 123357, "pitch": 67, "duration": 1121, "velocity": 80}, {"time": 123357, "pitch": 71, "duration": 1121, "velocity": 80}, {"time": 123357, "pitch": 74, "duration": 1327, "velocity": 80}, {"time": 124562, "pitch": 67, "duration": 99, "velocity": 80}, {"time": 124803, "pitch": 67, "duration": 458, "velocity": 80}, {"time": 124803, "pitch": 71, "duration": 464, "velocity": 80}, {"time": 124803, "pitch": 74, "duration": 472, "velocity": 80}, {"time": 125040, "pitch": 79, "duration": 231, "velocity": 80}, {"time": 125277, "pitch": 60, "duration": 960, "velocity": 80}, {"time": 125277, "pitch": 67, "duration": 895, "velocity": 80}, {"time": 125277, "pitch": 70, "duration": 910, "velocity": 80}, {"time": 125277, "pitch": 74, "duration": 889, "velocity": 80}, {"time": 125277, "pitch": 77, "duration": 886, "velocity": 80}, {"time": 126241, "pitch": 48, "duration": 917, "velocity": 80}, {"time": 126241, "pitch": 67, "duration": 911, "velocity": 80}, {"time": 126241, "pitch": 70, "duration": 943, "velocity": 80}, {"time": 126241, "pitch": 72, "duration": 920, "velocity": 80}, {"time": 126241, "pitch": 76, "duration": 931, "velocity": 80}, {"time": 127197, "pitch": 41, "duration": 1848, "velocity": 100}, {"time": 127197, "pitch": 53, "duration": 1860, "velocity": 100}, {"time": 127197, "pitch": 65, "duration": 1848, "velocity": 100}, {"time": 127197, "pitch": 67, "duration": 1859, "velocity": 100}, {"time": 127197, "pitch": 72, "duration": 1873, "velocity": 100}, {"time": 128880, "pitch": 76, "duration": 209, "velocity": 100}, {"time": 129117, "pitch": 43, "duration": 1829, "velocity": 100}, {"time": 129117, "pitch": 55, "duration": 1848, "velocity": 100}, {"time": 129117, "pitch": 67, "duration": 1854, "velocity": 100}, {"time": 129117, "pitch": 69, "duration": 1866, "velocity": 100}, {"time": 129117, "pitch": 74, "duration": 1809, "velocity": 100}, {"time": 130800, "pitch": 76, "duration": 153, "velocity": 100}, {"time": 131037, "pitch": 45, "duration": 1862, "velocity": 100}, {"time": 131037, "pitch": 57, "duration": 1871, "velocity": 100}, {"time": 131037, "pitch": 67, "duration": 1581, "velocity": 100}, {"time": 131037, "pitch": 69, "duration": 1554, "velocity": 100}, {"time": 131037, "pitch": 72, "duration": 1587, "velocity": 100}, {"time": 132720, "pitch": 74, "duration": 163, "velocity": 100}, {"time": 132839, "pitch": 76, "duration": 105, "velocity": 100}, {"time": 132957, "pitch": 45, "duration": 1885, "velocity": 100}, {"time": 132957, "pitch": 57, "duration": 1883, "velocity": 100}, {"time": 132957, "pitch": 67, "duration": 1888, "velocity": 100}, {"time": 132957, "pitch": 72, "duration": 1017, "velocity": 100}, {"time": 132957, "pitch": 77, "duration": 541, "velocity": 100}, {"time": 133439, "pitch": 79, "duration": 516, "velocity": 100}, {"time": 133921, "pitch": 76, "duration": 511, "velocity": 100}, {"time": 134403, "pitch": 74, "duration": 433, "velocity": 100}, {"time": 134877, "pitch": 41, "duration": 1848, "velocity": 100}, {"time": 134877, "pitch": 53, "duration": 1860, "velocity": 100}, {"time": 134877, "pitch": 65, "duration": 1848, "velocity": 100}, {"time": 134877, "pitch": 67, "duration": 1859, "velocity": 100}, {"time": 134877, "pitch": 72, "duration": 1873, "velocity": 100}, {"time": 136561, "pitch": 76, "duration": 208, "velocity": 100}, {"time": 136797, "pitch": 43, "duration": 1830, "velocity": 100}, {"time": 136797, "pitch": 55, "duration": 1848, "velocity": 100}, {"time": 136797, "pitch": 67, "duration": 1854, "velocity": 100}, {"time": 136797, "pitch": 69, "duration": 1866, "velocity": 100}, {"time": 136797, "pitch": 74, "duration": 1809, "velocity": 100}, {"time": 138481, "pitch": 76, "duration": 153, "velocity": 100}, {"time": 138718, "pitch": 45, "duration": 1861, "velocity": 100}, {"time": 138718, "pitch": 57, "duration": 1870, "velocity": 100}, {"time": 138718, "pitch": 67, "duration": 1580, "velocity": 100}, {"time": 138718, "pitch": 69, "duration": 1553, "velocity": 100}, {"time": 138718, "pitch": 72, "duration": 1586, "velocity": 100}, {"time": 140401, "pitch": 74, "duration": 163, "velocity": 100}, {"time": 140519, "pitch": 76, "duration": 105, "velocity": 100}, {"time": 140638, "pitch": 48, "duration": 1884, "velocity": 100}, {"time": 140638, "pitch": 60, "duration": 1882, "velocity": 100}, {"time": 140638, "pitch": 67, "duration": 1887, "velocity": 100}, {"time": 140638, "pitch": 72, "duration": 1016, "velocity": 100}, {"time": 140638, "pitch": 77, "duration": 540, "velocity": 100}, {"time": 141120, "pitch": 76, "duration": 515, "velocity": 100}, {"time": 141602, "pitch": 74, "duration": 510, "velocity": 100}, {"time": 142084, "pitch": 72, "duration": 432, "velocity": 100}, {"time": 142558, "pitch": 41, "duration": 1833, "velocity": 100}, {"time": 142558, "pitch": 53, "duration": 1846, "velocity": 100}, {"time": 142558, "pitch": 67, "duration": 1861, "velocity": 100}, {"time": 142558, "pitch": 72, "duration": 702, "velocity": 100}, {"time": 142558, "pitch": 74, "duration": 1857, "velocity": 100}, {"time": 142558, "pitch": 79, "duration": 1844, "velocity": 100}, {"time": 143281, "pitch": 72, "duration": 1116, "velocity": 100}, {"time": 144478, "pitch": 43, "duration": 1804, "velocity": 100}, {"time": 144478, "pitch": 55, "duration": 1810, "velocity": 100}, {"time": 144478, "pitch": 67, "duration": 1822, "velocity": 100}, {"time": 144478, "pitch": 72, "duration": 692, "velocity": 100}, {"time": 144478, "pitch": 74, "duration": 1831, "velocity": 100}, {"time": 144478, "pitch": 79, "duration": 1808, "velocity": 100}, {"time": 145201, "pitch": 72, "duration": 1089, "velocity": 100}, {"time": 146398, "pitch": 45, "duration": 3664, "velocity": 100}, {"time": 146398, "pitch": 57, "duration": 3560, "velocity": 100}, {"time": 146398, "pitch": 67, "duration": 3665, "velocity": 100}, {"time": 146398, "pitch": 72, "duration": 3663, "velocity": 100}, {"time": 146398, "pitch": 74, "duration": 741, "velocity": 100}, {"time": 146398, "pitch": 79, "duration": 3653, "velocity": 100}, {"time": 147121, "pitch": 76, "duration": 2960, "velocity": 100}, {"time": 150238, "pitch": 41, "duration": 1797, "velocity": 100}, {"time": 150238, "pitch": 53, "duration": 1804, "velocity": 100}, {"time": 150238, "pitch": 67, "duration": 1832, "velocity": 100}, {"time": 150238, "pitch": 72, "duration": 634, "velocity": 100}, {"time": 150238, "pitch": 74, "duration": 1830, "velocity": 100}, {"time": 150238, "pitch": 79, "duration": 1834, "velocity": 100}, {"time": 150961, "pitch": 72, "duration": 1129, "velocity": 100}, {"time": 152158, "pitch": 43, "duration": 1780, "velocity": 100}, {"time": 152158, "pitch": 55, "duration": 1784, "velocity": 100}, {"time": 152158, "pitch": 67, "duration": 1814, "velocity": 100}, {"time": 152158, "pitch": 72, "duration": 626, "velocity": 100}, {"time": 152158, "pitch": 74, "duration": 1805, "velocity": 100}, {"time": 152158, "pitch": 79, "duration": 1796, "velocity": 100}, {"time": 152881, "pitch": 72, "duration": 1079, "velocity": 100}, {"time": 154078, "pitch": 45, "duration": 3771, "velocity": 100}, {"time": 154078, "pitch": 57, "duration": 3767, "velocity": 100}, {"time": 154078, "pitch": 67, "duration": 1623, "velocity": 100}, {"time": 154078, "pitch": 72, "duration": 1190, "velocity": 100}, {"time": 154078, "pitch": 74, "duration": 765, "velocity": 100}, {"time": 154078, "pitch": 79, "duration": 3787, "velocity": 100}, {"time": 154801, "pitch": 76, "duration": 3047, "velocity": 100}, {"time": 155279, "pitch": 72, "duration": 2559, "velocity": 100}, {"time": 155757, "pitch": 67, "duration": 2067, "velocity": 100}, {"time": 157918, "pitch": 41, "duration": 1832, "velocity": 100}, {"time": 157918, "pitch": 53, "duration": 1845, "velocity": 100}, {"time": 157918, "pitch": 67, "duration": 1860, "velocity": 100}, {"time": 157918, "pitch": 72, "duration": 702, "velocity": 100}, {"time": 157918, "pitch": 74, "duration": 1856, "velocity": 100}, {"time": 157918, "pitch": 79, "duration": 1843, "velocity": 100}, {"time": 158641, "pitch": 72, "duration": 1115, "velocity": 100}, {"time": 159838, "pitch": 43, "duration": 1803, "velocity": 100}, {"time": 159838, "pitch": 55, "duration": 1809, "velocity": 100}, {"time": 159838, "pitch": 67, "duration": 1821, "velocity": 100}, {"time": 159838, "pitch": 72, "duration": 692, "velocity": 100}, {"time": 159838, "pitch": 74, "duration": 1830, "velocity": 100}, {"time": 159838, "pitch": 79, "duration": 1807, "velocity": 100}, {"time": 160562, "pitch": 72, "duration": 1087, "velocity": 100}, {"time": 161758, "pitch": 45, "duration": 3665, "velocity": 100}, {"time": 161758, "pitch": 57, "duration": 3560, "velocity": 100}, {"time": 161758, "pitch": 67, "duration": 3666, "velocity": 100}, {"time": 161758, "pitch": 72, "duration": 3664, "velocity": 100}, {"time": 161758, "pitch": 74, "duration": 742, "velocity": 100}, {"time": 161758, "pitch": 79, "duration": 3654, "velocity": 100}, {"time": 162482, "pitch": 76, "duration": 2960, "velocity": 100}, {"time": 165599, "pitch": 41, "duration": 1796, "velocity": 100}, {"time": 165599, "pitch": 53, "duration": 1803, "velocity": 100}, {"time": 165599, "pitch": 67, "duration": 1831, "velocity": 100}, {"time": 165599, "pitch": 72, "duration": 633, "velocity": 100}, {"time": 165599, "pitch": 74, "duration": 1829, "velocity": 100}, {"time": 165599, "pitch": 79, "duration": 1833, "velocity": 100}, {"time": 166322, "pitch": 72, "duration": 1128, "velocity": 100}, {"time": 167519, "pitch": 43, "duration": 1779, "velocity": 100}, {"time": 167519, "pitch": 55, "duration": 1783, "velocity": 100}, {"time": 167519, "pitch": 67, "duration": 1813, "velocity": 100}, {"time": 167519, "pitch": 72, "duration": 625, "velocity": 100}, {"time": 167519, "pitch": 74, "duration": 1804, "velocity": 100}, {"time": 167519, "pitch": 79, "duration": 1795, "velocity": 100}, {"time": 168242, "pitch": 72, "duration": 1078, "velocity": 100}, {"time": 169439, "pitch": 45, "duration": 3771, "velocity": 100}, {"time": 169439, "pitch": 57, "duration": 3767, "velocity": 100}, {"time": 169439, "pitch": 67, "duration": 1623, "velocity": 100}, {"time": 169439, "pitch": 72, "duration": 1190, "velocity": 100}, {"time": 169439, "pitch": 74, "duration": 765, "velocity": 100}, {"time": 169439, "pitch": 79, "duration": 3787, "velocity": 100}, {"time": 170162, "pitch": 76, "duration": 3047, "velocity": 100}, {"time": 170640, "pitch": 72, "duration": 2559, "velocity": 100}, {"time": 171118, "pitch": 67, "duration": 2067, "velocity": 100}, {"time": 4310, "pitch": 33, "duration": 352, "velocity": 98}, {"time": 4682, "pitch": 33, "duration": 77, "velocity": 88}, {"time": 5999, "pitch": 33, "duration": 81, "velocity": 94}, {"time": 6240, "pitch": 38, "duration": 319, "velocity": 90}, {"time": 6602, "pitch": 38, "duration": 102, "velocity": 78}, {"time": 7437, "pitch": 26, "duration": 159, "velocity": 92}, {"time": 7678, "pitch": 38, "duration": 243, "velocity": 82}, {"time": 7919, "pitch": 26, "duration": 106, "velocity": 90}, {"time": 8160, "pitch": 31, "duration": 306, "velocity": 86}, {"time": 8522, "pitch": 31, "duration": 159, "velocity": 90}, {"time": 9839, "pitch": 31, "duration": 131, "velocity": 96}, {"time": 10080, "pitch": 36, "duration": 319, "velocity": 88}, {"time": 10442, "pitch": 36, "duration": 171, "velocity": 80}, {"time": 11277, "pitch": 24, "duration": 156, "velocity": 94}, {"time": 11518, "pitch": 36, "duration": 265, "velocity": 84}, {"time": 11760, "pitch": 24, "duration": 211, "velocity": 98}, {"time": 12001, "pitch": 33, "duration": 329, "velocity": 98}, {"time": 12362, "pitch": 33, "duration": 160, "velocity": 90}, {"time": 13680, "pitch": 33, "duration": 82, "velocity": 96}, {"time": 13921, "pitch": 38, "duration": 327, "velocity": 88}, {"time": 14282, "pitch": 38, "duration": 138, "velocity": 82}, {"time": 15118, "pitch": 26, "duration": 134, "velocity": 96}, {"time": 15359, "pitch": 38, "duration": 216, "velocity": 92}, {"time": 15600, "pitch": 26, "duration": 135, "velocity": 90}, {"time": 15841, "pitch": 31, "duration": 306, "velocity": 90}, {"time": 16202, "pitch": 31, "duration": 161, "velocity": 90}, {"time": 17520, "pitch": 31, "duration": 115, "velocity": 88}, {"time": 17761, "pitch": 36, "duration": 299, "velocity": 100}, {"time": 18122, "pitch": 36, "duration": 55, "velocity": 80}, {"time": 18243, "pitch": 36, "duration": 311, "velocity": 80}, {"time": 18598, "pitch": 36, "duration": 59, "velocity": 80}, {"time": 18717, "pitch": 36, "duration": 297, "velocity": 82}, {"time": 19078, "pitch": 36, "duration": 64, "velocity": 74}, {"time": 19199, "pitch": 36, "duration": 337, "velocity": 80}, {"time": 20042, "pitch": 33, "duration": 78, "velocity": 88}, {"time": 21360, "pitch": 33, "duration": 80, "velocity": 94}, {"time": 21601, "pitch": 38, "duration": 318, "velocity": 90}, {"time": 21963, "pitch": 38, "duration": 102, "velocity": 78}, {"time": 22798, "pitch": 26, "duration": 159, "velocity": 92}, {"time": 23039, "pitch": 38, "duration": 243, "velocity": 82}, {"time": 23280, "pitch": 26, "duration": 105, "velocity": 90}, {"time": 23521, "pitch": 31, "duration": 305, "velocity": 86}, {"time": 23883, "pitch": 31, "duration": 159, "velocity": 90}, {"time": 25200, "pitch": 31, "duration": 131, "velocity": 96}, {"time": 25441, "pitch": 36, "duration": 318, "velocity": 88}, {"time": 25803, "pitch": 36, "duration": 171, "velocity": 80}, {"time": 26638, "pitch": 24, "duration": 156, "velocity": 94}, {"time": 26879, "pitch": 36, "duration": 264, "velocity": 84}, {"time": 27120, "pitch": 24, "duration": 212, "velocity": 98}, {"time": 27723, "pitch": 33, "duration": 77, "velocity": 88}, {"time": 29040, "pitch": 33, "duration": 81, "velocity": 94}, {"time": 29281, "pitch": 38, "duration": 319, "velocity": 90}, {"time": 29643, "pitch": 38, "duration": 102, "velocity": 78}, {"time": 30478, "pitch": 26, "duration": 159, "velocity": 92}, {"time": 30719, "pitch": 38, "duration": 243, "velocity": 82}, {"time": 30960, "pitch": 26, "duration": 106, "velocity": 90}, {"time": 31201, "pitch": 31, "duration": 306, "velocity": 86}, {"time": 31563, "pitch": 31, "duration": 159, "velocity": 90}, {"time": 32880, "pitch": 31, "duration": 131, "velocity": 96}, {"time": 33121, "pitch": 36, "duration": 319, "velocity": 88}, {"time": 33483, "pitch": 36, "duration": 171, "velocity": 80}, {"time": 34318, "pitch": 24, "duration": 156, "velocity": 94}, {"time": 34559, "pitch": 36, "duration": 265, "velocity": 84}, {"time": 34800, "pitch": 24, "duration": 212, "velocity": 98}, {"time": 35403, "pitch": 33, "duration": 77, "velocity": 88}, {"time": 36721, "pitch": 33, "duration": 80, "velocity": 94}, {"time": 36962, "pitch": 38, "duration": 318, "velocity": 90}, {"time": 37323, "pitch": 38, "duration": 103, "velocity": 78}, {"time": 38159, "pitch": 26, "duration": 158, "velocity": 92}, {"time": 38400, "pitch": 38, "duration": 243, "velocity": 82}, {"time": 38641, "pitch": 26, "duration": 105, "velocity": 90}, {"time": 38882, "pitch": 31, "duration": 305, "velocity": 86}, {"time": 39243, "pitch": 31, "duration": 159, "velocity": 90}, {"time": 40561, "pitch": 31, "duration": 130, "velocity": 96}, {"time": 40802, "pitch": 36, "duration": 318, "velocity": 88}, {"time": 41163, "pitch": 36, "duration": 171, "velocity": 80}, {"time": 41999, "pitch": 24, "duration": 155, "velocity": 94}, {"time": 42240, "pitch": 36, "duration": 264, "velocity": 84}, {"time": 42481, "pitch": 24, "duration": 212, "velocity": 98}, {"time": 43083, "pitch": 33, "duration": 78, "velocity": 88}, {"time": 44401, "pitch": 33, "duration": 80, "velocity": 94}, {"time": 44642, "pitch": 38, "duration": 318, "velocity": 90}, {"time": 45003, "pitch": 38, "duration": 103, "velocity": 78}, {"time": 45839, "pitch": 26, "duration": 159, "velocity": 92}, {"time": 46080, "pitch": 38, "duration": 243, "velocity": 82}, {"time": 46321, "pitch": 26, "duration": 105, "velocity": 90}, {"time": 46562, "pitch": 31, "duration": 305, "velocity": 86}, {"time": 46924, "pitch": 31, "duration": 159, "velocity": 90}, {"time": 48241, "pitch": 31, "duration": 131, "velocity": 96}, {"time": 48482, "pitch": 36, "duration": 313, "velocity": 88}, {"time": 48837, "pitch": 36, "duration": 170, "velocity": 80}, {"time": 49679, "pitch": 24, "duration": 156, "velocity": 94}, {"time": 49920, "pitch": 36, "duration": 264, "velocity": 84}, {"time": 50161, "pitch": 24, "duration": 212, "velocity": 98}, {"time": 50402, "pitch": 29, "duration": 1442, "velocity": 104}, {"time": 51840, "pitch": 41, "duration": 259, "velocity": 104}, {"time": 51961, "pitch": 40, "duration": 82, "velocity": 51}, {"time": 52081, "pitch": 38, "duration": 77, "velocity": 60}, {"time": 52202, "pitch": 36, "duration": 99, "velocity": 52}, {"time": 52322, "pitch": 35, "duration": 1949, "velocity": 50}, {"time": 54242, "pitch": 28, "duration": 1612, "velocity": 100}, {"time": 55921, "pitch": 28, "duration": 256, "velocity": 94}, {"time": 56162, "pitch": 36, "duration": 1410, "velocity": 90}, {"time": 57600, "pitch": 38, "duration": 246, "velocity": 90}, {"time": 57841, "pitch": 36, "duration": 244, "velocity": 94}, {"time": 58082, "pitch": 29, "duration": 1674, "velocity": 94}, {"time": 59761, "pitch": 41, "duration": 244, "velocity": 98}, {"time": 60002, "pitch": 29, "duration": 1559, "velocity": 106}, {"time": 61682, "pitch": 29, "duration": 212, "velocity": 90}, {"time": 61923, "pitch": 28, "duration": 1429, "velocity": 92}, {"time": 63361, "pitch": 28, "duration": 482, "velocity": 92}, {"time": 63843, "pitch": 36, "duration": 1194, "velocity": 100}, {"time": 65040, "pitch": 36, "duration": 146, "velocity": 82}, {"time": 65281, "pitch": 36, "duration": 205, "velocity": 88}, {"time": 65522, "pitch": 36, "duration": 165, "velocity": 88}, {"time": 65763, "pitch": 29, "duration": 118, "velocity": 84}, {"time": 66000, "pitch": 29, "duration": 118, "velocity": 80}, {"time": 66237, "pitch": 29, "duration": 120, "velocity": 80}, {"time": 66478, "pitch": 29, "duration": 120, "velocity": 70}, {"time": 66719, "pitch": 29, "duration": 120, "velocity": 82}, {"time": 66960, "pitch": 29, "duration": 120, "velocity": 66}, {"time": 67201, "pitch": 29, "duration": 120, "velocity": 76}, {"time": 67442, "pitch": 29, "duration": 120, "velocity": 78}, {"time": 67562, "pitch": 41, "duration": 121, "velocity": 78}, {"time": 67683, "pitch": 31, "duration": 118, "velocity": 86}, {"time": 67920, "pitch": 31, "duration": 118, "velocity": 74}, {"time": 68157, "pitch": 31, "duration": 120, "velocity": 76}, {"time": 68398, "pitch": 31, "duration": 120, "velocity": 82}, {"time": 68639, "pitch": 31, "duration": 120, "velocity": 78}, {"time": 68880, "pitch": 31, "duration": 120, "velocity": 78}, {"time": 69121, "pitch": 31, "duration": 120, "velocity": 82}, {"time": 69241, "pitch": 43, "duration": 121, "velocity": 78}, {"time": 69362, "pitch": 31, "duration": 120, "velocity": 80}, {"time": 69603, "pitch": 33, "duration": 118, "velocity": 80}, {"time": 69840, "pitch": 33, "duration": 118, "velocity": 76}, {"time": 70077, "pitch": 33, "duration": 120, "velocity": 70}, {"time": 70318, "pitch": 33, "duration": 120, "velocity": 78}, {"time": 70559, "pitch": 33, "duration": 120, "velocity": 70}, {"time": 70800, "pitch": 33, "duration": 120, "velocity": 74}, {"time": 71041, "pitch": 33, "duration": 120, "velocity": 76}, {"time": 71161, "pitch": 45, "duration": 121, "velocity": 78}, {"time": 71282, "pitch": 33, "duration": 120, "velocity": 74}, {"time": 71523, "pitch": 33, "duration": 118, "velocity": 72}, {"time": 71760, "pitch": 33, "duration": 118, "velocity": 76}, {"time": 71997, "pitch": 33, "duration": 120, "velocity": 72}, {"time": 72238, "pitch": 33, "duration": 120, "velocity": 76}, {"time": 72479, "pitch": 33, "duration": 120, "velocity": 78}, {"time": 72720, "pitch": 33, "duration": 120, "velocity": 76}, {"time": 72961, "pitch": 33, "duration": 121, "velocity": 72}, {"time": 73082, "pitch": 45, "duration": 120, "velocity": 76}, {"time": 73202, "pitch": 48, "duration": 121, "velocity": 52}, {"time": 73323, "pitch": 43, "duration": 120, "velocity": 62}, {"time": 73443, "pitch": 29, "duration": 119, "velocity": 84}, {"time": 73680, "pitch": 28, "duration": 118, "velocity": 74}, {"time": 73680, "pitch": 29, "duration": 118, "velocity": 80}, {"time": 73917, "pitch": 29, "duration": 120, "velocity": 80}, {"time": 74158, "pitch": 29, "duration": 120, "velocity": 70}, {"time": 74399, "pitch": 29, "duration": 121, "velocity": 82}, {"time": 74640, "pitch": 29, "duration": 121, "velocity": 66}, {"time": 74881, "pitch": 29, "duration": 121, "velocity": 76}, {"time": 75122, "pitch": 29, "duration": 121, "velocity": 78}, {"time": 75243, "pitch": 41, "duration": 120, "velocity": 78}, {"time": 75363, "pitch": 31, "duration": 119, "velocity": 86}, {"time": 75600, "pitch": 31, "duration": 119, "velocity": 74}, {"time": 75837, "pitch": 31, "duration": 121, "velocity": 76}, {"time": 76078, "pitch": 31, "duration": 121, "velocity": 82}, {"time": 76319, "pitch": 31, "duration": 121, "velocity": 78}, {"time": 76560, "pitch": 31, "duration": 121, "velocity": 78}, {"time": 76801, "pitch": 31, "duration": 121, "velocity": 82}, {"time": 76922, "pitch": 43, "duration": 120, "velocity": 78}, {"time": 77042, "pitch": 31, "duration": 121, "velocity": 80}, {"time": 77283, "pitch": 33, "duration": 119, "velocity": 80}, {"time": 77520, "pitch": 33, "duration": 119, "velocity": 76}, {"time": 77757, "pitch": 33, "duration": 121, "velocity": 70}, {"time": 77998, "pitch": 33, "duration": 121, "velocity": 78}, {"time": 78239, "pitch": 33, "duration": 121, "velocity": 70}, {"time": 78480, "pitch": 33, "duration": 121, "velocity": 74}, {"time": 78721, "pitch": 33, "duration": 121, "velocity": 76}, {"time": 78842, "pitch": 45, "duration": 120, "velocity": 78}, {"time": 78962, "pitch": 33, "duration": 121, "velocity": 74}, {"time": 79203, "pitch": 36, "duration": 119, "velocity": 88}, {"time": 79440, "pitch": 36, "duration": 119, "velocity": 80}, {"time": 79677, "pitch": 36, "duration": 121, "velocity": 84}, {"time": 79918, "pitch": 36, "duration": 121, "velocity": 82}, {"time": 80159, "pitch": 36, "duration": 121, "velocity": 86}, {"time": 80280, "pitch": 48, "duration": 120, "velocity": 86}, {"time": 80400, "pitch": 36, "duration": 121, "velocity": 84}, {"time": 80641, "pitch": 48, "duration": 121, "velocity": 88}, {"time": 80762, "pitch": 36, "duration": 120, "velocity": 76}, {"time": 80882, "pitch": 48, "duration": 121, "velocity": 80}, {"time": 81003, "pitch": 36, "duration": 120, "velocity": 84}, {"time": 81123, "pitch": 29, "duration": 1639, "velocity": 92}, {"time": 82802, "pitch": 29, "duration": 238, "velocity": 84}, {"time": 83043, "pitch": 31, "duration": 1649, "velocity": 94}, {"time": 84723, "pitch": 31, "duration": 240, "velocity": 88}, {"time": 84964, "pitch": 33, "duration": 3118, "velocity": 94}, {"time": 88081, "pitch": 45, "duration": 202, "velocity": 92}, {"time": 88201, "pitch": 48, "duration": 184, "velocity": 70}, {"time": 88322, "pitch": 45, "duration": 136, "velocity": 76}, {"time": 88442, "pitch": 43, "duration": 157, "velocity": 58}, {"time": 88563, "pitch": 41, "duration": 169, "velocity": 48}, {"time": 88683, "pitch": 45, "duration": 140, "velocity": 80}, {"time": 88804, "pitch": 29, "duration": 1922, "velocity": 88}, {"time": 90001, "pitch": 41, "duration": 465, "velocity": 88}, {"time": 90724, "pitch": 31, "duration": 1924, "velocity": 90}, {"time": 91439, "pitch": 43, "duration": 515, "velocity": 92}, {"time": 91921, "pitch": 55, "duration": 449, "velocity": 78}, {"time": 92282, "pitch": 43, "duration": 295, "velocity": 92}, {"time": 92644, "pitch": 33, "duration": 1068, "velocity": 86}, {"time": 93359, "pitch": 45, "duration": 987, "velocity": 72}, {"time": 94323, "pitch": 40, "duration": 178, "velocity": 72}, {"time": 94443, "pitch": 38, "duration": 160, "velocity": 66}, {"time": 94564, "pitch": 36, "duration": 189, "velocity": 72}, {"time": 94682, "pitch": 24, "duration": 181, "velocity": 80}, {"time": 94801, "pitch": 26, "duration": 172, "velocity": 88}, {"time": 94919, "pitch": 28, "duration": 192, "velocity": 72}, {"time": 95038, "pitch": 33, "duration": 158, "velocity": 78}, {"time": 95158, "pitch": 36, "duration": 201, "velocity": 68}, {"time": 95279, "pitch": 38, "duration": 170, "velocity": 49}, {"time": 95399, "pitch": 40, "duration": 432, "velocity": 72}, {"time": 95520, "pitch": 21, "duration": 275, "velocity": 76}, {"time": 95761, "pitch": 28, "duration": 330, "velocity": 86}, {"time": 95881, "pitch": 36, "duration": 178, "velocity": 74}, {"time": 96002, "pitch": 43, "duration": 329, "velocity": 76}, {"time": 96839, "pitch": 33, "duration": 76, "velocity": 88}, {"time": 98163, "pitch": 33, "duration": 80, "velocity": 94}, {"time": 98404, "pitch": 38, "duration": 313, "velocity": 90}, {"time": 98759, "pitch": 38, "duration": 101, "velocity": 78}, {"time": 99601, "pitch": 26, "duration": 159, "velocity": 92}, {"time": 99842, "pitch": 38, "duration": 239, "velocity": 82}, {"time": 100079, "pitch": 26, "duration": 104, "velocity": 90}, {"time": 100316, "pitch": 31, "duration": 305, "velocity": 86}, {"time": 100678, "pitch": 31, "duration": 159, "velocity": 90}, {"time": 101999, "pitch": 31, "duration": 128, "velocity": 96}, {"time": 102236, "pitch": 36, "duration": 318, "velocity": 88}, {"time": 102598, "pitch": 36, "duration": 171, "velocity": 80}, {"time": 103441, "pitch": 24, "duration": 156, "velocity": 94}, {"time": 103682, "pitch": 36, "duration": 260, "velocity": 84}, {"time": 103919, "pitch": 24, "duration": 209, "velocity": 98}, {"time": 104518, "pitch": 33, "duration": 77, "velocity": 88}, {"time": 105839, "pitch": 33, "duration": 79, "velocity": 94}, {"time": 106076, "pitch": 38, "duration": 319, "velocity": 90}, {"time": 106438, "pitch": 38, "duration": 102, "velocity": 78}, {"time": 107281, "pitch": 26, "duration": 159, "velocity": 92}, {"time": 107522, "pitch": 38, "duration": 239, "velocity": 82}, {"time": 107759, "pitch": 26, "duration": 104, "velocity": 90}, {"time": 107996, "pitch": 31, "duration": 306, "velocity": 86}, {"time": 108358, "pitch": 31, "duration": 160, "velocity": 90}, {"time": 109679, "pitch": 31, "duration": 129, "velocity": 96}, {"time": 109916, "pitch": 36, "duration": 319, "velocity": 88}, {"time": 110278, "pitch": 36, "duration": 172, "velocity": 80}, {"time": 111122, "pitch": 24, "duration": 155, "velocity": 94}, {"time": 111363, "pitch": 36, "duration": 259, "velocity": 84}, {"time": 111600, "pitch": 24, "duration": 208, "velocity": 98}, {"time": 111836, "pitch": 29, "duration": 1451, "velocity": 104}, {"time": 113283, "pitch": 41, "duration": 254, "velocity": 104}, {"time": 113401, "pitch": 40, "duration": 81, "velocity": 51}, {"time": 113520, "pitch": 38, "duration": 75, "velocity": 60}, {"time": 113638, "pitch": 36, "duration": 98, "velocity": 52}, {"time": 113757, "pitch": 35, "duration": 1949, "velocity": 50}, {"time": 115677, "pitch": 28, "duration": 1617, "velocity": 100}, {"time": 117360, "pitch": 28, "duration": 252, "velocity": 94}, {"time": 117597, "pitch": 36, "duration": 1418, "velocity": 90}, {"time": 119043, "pitch": 38, "duration": 242, "velocity": 90}, {"time": 119280, "pitch": 36, "duration": 240, "velocity": 94}, {"time": 119517, "pitch": 29, "duration": 1678, "velocity": 94}, {"time": 121200, "pitch": 41, "duration": 240, "velocity": 98}, {"time": 121437, "pitch": 29, "duration": 1565, "velocity": 106}, {"time": 123120, "pitch": 29, "duration": 209, "velocity": 90}, {"time": 123357, "pitch": 28, "duration": 1437, "velocity": 92}, {"time": 124803, "pitch": 28, "duration": 474, "velocity": 92}, {"time": 125277, "pitch": 36, "duration": 1202, "velocity": 100}, {"time": 126482, "pitch": 36, "duration": 147, "velocity": 82}, {"time": 126723, "pitch": 36, "duration": 202, "velocity": 88}, {"time": 126960, "pitch": 36, "duration": 163, "velocity": 88}, {"time": 127197, "pitch": 29, "duration": 121, "velocity": 84}, {"time": 127438, "pitch": 29, "duration": 121, "velocity": 80}, {"time": 127679, "pitch": 29, "duration": 121, "velocity": 80}, {"time": 127920, "pitch": 29, "duration": 121, "velocity": 70}, {"time": 128161, "pitch": 29, "duration": 121, "velocity": 82}, {"time": 128402, "pitch": 29, "duration": 121, "velocity": 66}, {"time": 128643, "pitch": 29, "duration": 119, "velocity": 76}, {"time": 128880, "pitch": 29, "duration": 119, "velocity": 78}, {"time": 128999, "pitch": 41, "duration": 118, "velocity": 78}, {"time": 129117, "pitch": 31, "duration": 121, "velocity": 86}, {"time": 129358, "pitch": 31, "duration": 121, "velocity": 74}, {"time": 129599, "pitch": 31, "duration": 121, "velocity": 76}, {"time": 129840, "pitch": 31, "duration": 121, "velocity": 82}, {"time": 130081, "pitch": 31, "duration": 121, "velocity": 78}, {"time": 130322, "pitch": 31, "duration": 121, "velocity": 78}, {"time": 130563, "pitch": 31, "duration": 119, "velocity": 82}, {"time": 130682, "pitch": 43, "duration": 118, "velocity": 78}, {"time": 130800, "pitch": 31, "duration": 119, "velocity": 80}, {"time": 131037, "pitch": 33, "duration": 121, "velocity": 80}, {"time": 131278, "pitch": 33, "duration": 121, "velocity": 76}, {"time": 131519, "pitch": 33, "duration": 121, "velocity": 70}, {"time": 131760, "pitch": 33, "duration": 121, "velocity": 78}, {"time": 132001, "pitch": 33, "duration": 121, "velocity": 70}, {"time": 132242, "pitch": 33, "duration": 121, "velocity": 74}, {"time": 132483, "pitch": 33, "duration": 119, "velocity": 76}, {"time": 132602, "pitch": 45, "duration": 118, "velocity": 78}, {"time": 132720, "pitch": 33, "duration": 119, "velocity": 74}, {"time": 132957, "pitch": 33, "duration": 121, "velocity": 72}, {"time": 133198, "pitch": 33, "duration": 121, "velocity": 76}, {"time": 133439, "pitch": 33, "duration": 121, "velocity": 72}, {"time": 133680, "pitch": 33, "duration": 121, "velocity": 76}, {"time": 133921, "pitch": 33, "duration": 121, "velocity": 78}, {"time": 134163, "pitch": 33, "duration": 120, "velocity": 76}, {"time": 134403, "pitch": 33, "duration": 119, "velocity": 72}, {"time": 134522, "pitch": 45, "duration": 118, "velocity": 76}, {"time": 134640, "pitch": 48, "duration": 119, "velocity": 52}, {"time": 134759, "pitch": 43, "duration": 118, "velocity": 62}, {"time": 134877, "pitch": 29, "duration": 121, "velocity": 84}, {"time": 135118, "pitch": 28, "duration": 121, "velocity": 74}, {"time": 135118, "pitch": 29, "duration": 121, "velocity": 80}, {"time": 135359, "pitch": 29, "duration": 121, "velocity": 80}, {"time": 135600, "pitch": 29, "duration": 121, "velocity": 70}, {"time": 135842, "pitch": 29, "duration": 120, "velocity": 82}, {"time": 136083, "pitch": 29, "duration": 120, "velocity": 66}, {"time": 136324, "pitch": 29, "duration": 118, "velocity": 76}, {"time": 136561, "pitch": 29, "duration": 118, "velocity": 78}, {"time": 136679, "pitch": 41, "duration": 118, "velocity": 78}, {"time": 136797, "pitch": 31, "duration": 121, "velocity": 86}, {"time": 137038, "pitch": 31, "duration": 121, "velocity": 74}, {"time": 137280, "pitch": 31, "duration": 120, "velocity": 76}, {"time": 137521, "pitch": 31, "duration": 120, "velocity": 82}, {"time": 137762, "pitch": 31, "duration": 120, "velocity": 78}, {"time": 138003, "pitch": 31, "duration": 120, "velocity": 78}, {"time": 138244, "pitch": 31, "duration": 118, "velocity": 82}, {"time": 138362, "pitch": 43, "duration": 119, "velocity": 78}, {"time": 138481, "pitch": 31, "duration": 118, "velocity": 80}, {"time": 138718, "pitch": 33, "duration": 120, "velocity": 80}, {"time": 138959, "pitch": 33, "duration": 120, "velocity": 76}, {"time": 139200, "pitch": 33, "duration": 120, "velocity": 70}, {"time": 139441, "pitch": 33, "duration": 120, "velocity": 78}, {"time": 139682, "pitch": 33, "duration": 120, "velocity": 70}, {"time": 139923, "pitch": 33, "duration": 120, "velocity": 74}, {"time": 140164, "pitch": 33, "duration": 118, "velocity": 76}, {"time": 140282, "pitch": 45, "duration": 119, "velocity": 78}, {"time": 140401, "pitch": 33, "duration": 118, "velocity": 74}, {"time": 140638, "pitch": 36, "duration": 120, "velocity": 88}, {"time": 140879, "pitch": 36, "duration": 120, "velocity": 80}, {"time": 141120, "pitch": 36, "duration": 120, "velocity": 84}, {"time": 141361, "pitch": 36, "duration": 120, "velocity": 82}, {"time": 141602, "pitch": 36, "duration": 120, "velocity": 86}, {"time": 141722, "pitch": 48, "duration": 121, "velocity": 86}, {"time": 141843, "pitch": 36, "duration": 120, "velocity": 84}, {"time": 142084, "pitch": 48, "duration": 118, "velocity": 88}, {"time": 142202, "pitch": 36, "duration": 119, "velocity": 76}, {"time": 142321, "pitch": 48, "duration": 118, "velocity": 80}, {"time": 142439, "pitch": 36, "duration": 119, "velocity": 84}, {"time": 142558, "pitch": 29, "duration": 1643, "velocity": 92}, {"time": 144241, "pitch": 29, "duration": 234, "velocity": 84}, {"time": 144478, "pitch": 31, "duration": 1653, "velocity": 94}, {"time": 146161, "pitch": 31, "duration": 236, "velocity": 88}, {"time": 146398, "pitch": 33, "duration": 3122, "velocity": 94}, {"time": 149519, "pitch": 45, "duration": 199, "velocity": 92}, {"time": 149638, "pitch": 48, "duration": 181, "velocity": 70}, {"time": 149756, "pitch": 45, "duration": 137, "velocity": 76}, {"time": 149876, "pitch": 43, "duration": 157, "velocity": 58}, {"time": 149997, "pitch": 41, "duration": 170, "velocity": 48}, {"time": 150117, "pitch": 45, "duration": 141, "velocity": 80}, {"time": 150238, "pitch": 29, "duration": 1922, "velocity": 88}, {"time": 151439, "pitch": 41, "duration": 461, "velocity": 88}, {"time": 152158, "pitch": 31, "duration": 1924, "velocity": 90}, {"time": 152881, "pitch": 43, "duration": 511, "velocity": 92}, {"time": 153359, "pitch": 55, "duration": 445, "velocity": 78}, {"time": 153717, "pitch": 43, "duration": 294, "velocity": 92}, {"time": 154078, "pitch": 33, "duration": 1075, "velocity": 86}, {"time": 154801, "pitch": 45, "duration": 979, "velocity": 72}, {"time": 155757, "pitch": 40, "duration": 178, "velocity": 72}, {"time": 155878, "pitch": 38, "duration": 160, "velocity": 66}, {"time": 155998, "pitch": 36, "duration": 193, "velocity": 72}, {"time": 156119, "pitch": 24, "duration": 184, "velocity": 80}, {"time": 156239, "pitch": 26, "duration": 175, "velocity": 88}, {"time": 156360, "pitch": 28, "duration": 194, "velocity": 72}, {"time": 156480, "pitch": 33, "duration": 159, "velocity": 78}, {"time": 156601, "pitch": 36, "duration": 201, "velocity": 68}, {"time": 156721, "pitch": 38, "duration": 170, "velocity": 49}, {"time": 156842, "pitch": 40, "duration": 426, "velocity": 72}, {"time": 156962, "pitch": 21, "duration": 271, "velocity": 76}, {"time": 157199, "pitch": 28, "duration": 327, "velocity": 86}, {"time": 157318, "pitch": 36, "duration": 175, "velocity": 74}, {"time": 157436, "pitch": 43, "duration": 330, "velocity": 76}, {"time": 157918, "pitch": 29, "duration": 1639, "velocity": 92}, {"time": 159597, "pitch": 29, "duration": 238, "velocity": 84}, {"time": 159838, "pitch": 31, "duration": 1649, "velocity": 94}, {"time": 161517, "pitch": 31, "duration": 240, "velocity": 88}, {"time": 161758, "pitch": 33, "duration": 3123, "velocity": 94}, {"time": 164880, "pitch": 45, "duration": 199, "velocity": 92}, {"time": 164998, "pitch": 48, "duration": 182, "velocity": 70}, {"time": 165117, "pitch": 45, "duration": 136, "velocity": 76}, {"time": 165237, "pitch": 43, "duration": 157, "velocity": 58}, {"time": 165358, "pitch": 41, "duration": 169, "velocity": 48}, {"time": 165478, "pitch": 45, "duration": 141, "velocity": 80}, {"time": 165599, "pitch": 29, "duration": 1922, "velocity": 88}, {"time": 166800, "pitch": 41, "duration": 461, "velocity": 88}, {"time": 167519, "pitch": 31, "duration": 1924, "velocity": 90}, {"time": 168242, "pitch": 43, "duration": 510, "velocity": 92}, {"time": 168720, "pitch": 55, "duration": 445, "velocity": 78}, {"time": 169077, "pitch": 43, "duration": 295, "velocity": 92}, {"time": 169439, "pitch": 33, "duration": 1075, "velocity": 86}, {"time": 170162, "pitch": 45, "duration": 979, "velocity": 72}, {"time": 171118, "pitch": 40, "duration": 178, "velocity": 72}, {"time": 171238, "pitch": 38, "duration": 161, "velocity": 66}, {"time": 171359, "pitch": 36, "duration": 193, "velocity": 72}, {"time": 171479, "pitch": 24, "duration": 184, "velocity": 80}, {"time": 171600, "pitch": 26, "duration": 175, "velocity": 88}, {"time": 171720, "pitch": 28, "duration": 194, "velocity": 72}, {"time": 171841, "pitch": 33, "duration": 159, "velocity": 78}, {"time": 171961, "pitch": 36, "duration": 201, "velocity": 68}, {"time": 172082, "pitch": 38, "duration": 170, "velocity": 49}, {"time": 172203, "pitch": 40, "duration": 426, "velocity": 72}, {"time": 172323, "pitch": 21, "duration": 271, "velocity": 76}, {"time": 172560, "pitch": 28, "duration": 326, "velocity": 86}, {"time": 172678, "pitch": 36, "duration": 176, "velocity": 74}, {"time": 172797, "pitch": 43, "duration": 329, "velocity": 76}, {"time": 4682, "pitch": 57, "duration": 1, "velocity": 100}, {"time": 4682, "pitch": 69, "duration": 10, "velocity": 100}, {"time": 4682, "pitch": 72, "duration": 12, "velocity": 100}, {"time": 4682, "pitch": 76, "duration": 18, "velocity": 100}, {"time": 4682, "pitch": 79, "duration": 11, "velocity": 100}, {"time": 5039, "pitch": 57, "duration": 80, "velocity": 100}, {"time": 5039, "pitch": 69, "duration": 70, "velocity": 100}, {"time": 5039, "pitch": 72, "duration": 66, "velocity": 100}, {"time": 5039, "pitch": 76, "duration": 82, "velocity": 100}, {"time": 5039, "pitch": 79, "duration": 70, "velocity": 100}, {"time": 5999, "pitch": 57, "duration": 80, "velocity": 100}, {"time": 5999, "pitch": 69, "duration": 70, "velocity": 100}, {"time": 5999, "pitch": 72, "duration": 72, "velocity": 100}, {"time": 5999, "pitch": 76, "duration": 82, "velocity": 100}, {"time": 5999, "pitch": 79, "duration": 76, "velocity": 100}, {"time": 6240, "pitch": 62, "duration": 343, "velocity": 100}, {"time": 6240, "pitch": 69, "duration": 328, "velocity": 100}, {"time": 6240, "pitch": 72, "duration": 338, "velocity": 100}, {"time": 6240, "pitch": 74, "duration": 338, "velocity": 100}, {"time": 6240, "pitch": 78, "duration": 344, "velocity": 100}, {"time": 6602, "pitch": 62, "duration": 77, "velocity": 100}, {"time": 6602, "pitch": 69, "duration": 64, "velocity": 100}, {"time": 6602, "pitch": 72, "duration": 68, "velocity": 100}, {"time": 6602, "pitch": 74, "duration": 67, "velocity": 100}, {"time": 6602, "pitch": 78, "duration": 81, "velocity": 100}, {"time": 6959, "pitch": 62, "duration": 78, "velocity": 100}, {"time": 6959, "pitch": 69, "duration": 70, "velocity": 100}, {"time": 6959, "pitch": 72, "duration": 80, "velocity": 100}, {"time": 6959, "pitch": 74, "duration": 72, "velocity": 100}, {"time": 6959, "pitch": 78, "duration": 103, "velocity": 100}, {"time": 7919, "pitch": 62, "duration": 88, "velocity": 100}, {"time": 7919, "pitch": 69, "duration": 95, "velocity": 100}, {"time": 7919, "pitch": 72, "duration": 88, "velocity": 100}, {"time": 7919, "pitch": 74, "duration": 92, "velocity": 100}, {"time": 7919, "pitch": 78, "duration": 94, "velocity": 100}, {"time": 8160, "pitch": 55, "duration": 327, "velocity": 100}, {"time": 8160, "pitch": 69, "duration": 332, "velocity": 100}, {"time": 8160, "pitch": 70, "duration": 344, "velocity": 100}, {"time": 8160, "pitch": 74, "duration": 338, "velocity": 100}, {"time": 8160, "pitch": 77, "duration": 334, "velocity": 100}, {"time": 8522, "pitch": 55, "duration": 78, "velocity": 100}, {"time": 8522, "pitch": 69, "duration": 61, "velocity": 100}, {"time": 8522, "pitch": 70, "duration": 71, "velocity": 100}, {"time": 8522, "pitch": 74, "duration": 65, "velocity": 100}, {"time": 8522, "pitch": 77, "duration": 75, "velocity": 100}, {"time": 8879, "pitch": 55, "duration": 91, "velocity": 100}, {"time": 8879, "pitch": 69, "duration": 72, "velocity": 100}, {"time": 8879, "pitch": 70, "duration": 83, "velocity": 100}, {"time": 8879, "pitch": 74, "duration": 85, "velocity": 100}, {"time": 8879, "pitch": 77, "duration": 100, "velocity": 100}, {"time": 9839, "pitch": 55, "duration": 95, "velocity": 100}, {"time": 9839, "pitch": 69, "duration": 80, "velocity": 100}, {"time": 9839, "pitch": 70, "duration": 84, "velocity": 100}, {"time": 9839, "pitch": 74, "duration": 80, "velocity": 100}, {"time": 9839, "pitch": 77, "duration": 80, "velocity": 100}, {"time": 10080, "pitch": 60, "duration": 305, "velocity": 100}, {"time": 10080, "pitch": 67, "duration": 305, "velocity": 100}, {"time": 10080, "pitch": 70, "duration": 321, "velocity": 100}, {"time": 10080, "pitch": 72, "duration": 317, "velocity": 100}, {"time": 10080, "pitch": 76, "duration": 313, "velocity": 100}, {"time": 10442, "pitch": 60, "duration": 75, "velocity": 100}, {"time": 10442, "pitch": 67, "duration": 60, "velocity": 100}, {"time": 10442, "pitch": 70, "duration": 73, "velocity": 100}, {"time": 10442, "pitch": 72, "duration": 60, "velocity": 100}, {"time": 10442, "pitch": 76, "duration": 71, "velocity": 100}, {"time": 10799, "pitch": 60, "duration": 80, "velocity": 100}, {"time": 10799, "pitch": 67, "duration": 71, "velocity": 100}, {"time": 10799, "pitch": 70, "duration": 85, "velocity": 100}, {"time": 10799, "pitch": 72, "duration": 78, "velocity": 100}, {"time": 10799, "pitch": 76, "duration": 88, "velocity": 100}, {"time": 11760, "pitch": 60, "duration": 82, "velocity": 100}, {"time": 11760, "pitch": 67, "duration": 77, "velocity": 100}, {"time": 11760, "pitch": 70, "duration": 84, "velocity": 100}, {"time": 11760, "pitch": 72, "duration": 86, "velocity": 100}, {"time": 11760, "pitch": 76, "duration": 88, "velocity": 100}, {"time": 12362, "pitch": 57, "duration": 1, "velocity": 100}, {"time": 12362, "pitch": 69, "duration": 10, "velocity": 100}, {"time": 12362, "pitch": 72, "duration": 12, "velocity": 100}, {"time": 12362, "pitch": 76, "duration": 18, "velocity": 100}, {"time": 12362, "pitch": 79, "duration": 11, "velocity": 100}, {"time": 12720, "pitch": 57, "duration": 80, "velocity": 100}, {"time": 12720, "pitch": 69, "duration": 70, "velocity": 100}, {"time": 12720, "pitch": 72, "duration": 66, "velocity": 100}, {"time": 12720, "pitch": 76, "duration": 82, "velocity": 100}, {"time": 12720, "pitch": 79, "duration": 70, "velocity": 100}, {"time": 13680, "pitch": 57, "duration": 79, "velocity": 100}, {"time": 13680, "pitch": 69, "duration": 69, "velocity": 100}, {"time": 13680, "pitch": 72, "duration": 71, "velocity": 100}, {"time": 13680, "pitch": 76, "duration": 81, "velocity": 100}, {"time": 13680, "pitch": 79, "duration": 75, "velocity": 100}, {"time": 13921, "pitch": 62, "duration": 342, "velocity": 100}, {"time": 13921, "pitch": 69, "duration": 327, "velocity": 100}, {"time": 13921, "pitch": 72, "duration": 337, "velocity": 100}, {"time": 13921, "pitch": 74, "duration": 337, "velocity": 100}, {"time": 13921, "pitch": 78, "duration": 343, "velocity": 100}, {"time": 14282, "pitch": 62, "duration": 78, "velocity": 100}, {"time": 14282, "pitch": 69, "duration": 64, "velocity": 100}, {"time": 14282, "pitch": 72, "duration": 68, "velocity": 100}, {"time": 14282, "pitch": 74, "duration": 67, "velocity": 100}, {"time": 14282, "pitch": 78, "duration": 82, "velocity": 100}, {"time": 14640, "pitch": 62, "duration": 78, "velocity": 100}, {"time": 14640, "pitch": 69, "duration": 70, "velocity": 100}, {"time": 14640, "pitch": 72, "duration": 80, "velocity": 100}, {"time": 14640, "pitch": 74, "duration": 72, "velocity": 100}, {"time": 14640, "pitch": 78, "duration": 102, "velocity": 100}, {"time": 15600, "pitch": 62, "duration": 87, "velocity": 100}, {"time": 15600, "pitch": 69, "duration": 94, "velocity": 100}, {"time": 15600, "pitch": 72, "duration": 87, "velocity": 100}, {"time": 15600, "pitch": 74, "duration": 91, "velocity": 100}, {"time": 15600, "pitch": 78, "duration": 93, "velocity": 100}, {"time": 15841, "pitch": 55, "duration": 326, "velocity": 100}, {"time": 15841, "pitch": 69, "duration": 331, "velocity": 100}, {"time": 15841, "pitch": 70, "duration": 343, "velocity": 100}, {"time": 15841, "pitch": 74, "duration": 337, "velocity": 100}, {"time": 15841, "pitch": 77, "duration": 333, "velocity": 100}, {"time": 16202, "pitch": 55, "duration": 79, "velocity": 100}, {"time": 16202, "pitch": 69, "duration": 62, "velocity": 100}, {"time": 16202, "pitch": 70, "duration": 72, "velocity": 100}, {"time": 16202, "pitch": 74, "duration": 66, "velocity": 100}, {"time": 16202, "pitch": 77, "duration": 76, "velocity": 100}, {"time": 16560, "pitch": 55, "duration": 91, "velocity": 100}, {"time": 16560, "pitch": 69, "duration": 72, "velocity": 100}, {"time": 16560, "pitch": 70, "duration": 83, "velocity": 100}, {"time": 16560, "pitch": 74, "duration": 85, "velocity": 100}, {"time": 16560, "pitch": 77, "duration": 99, "velocity": 100}, {"time": 17520, "pitch": 55, "duration": 94, "velocity": 100}, {"time": 17520, "pitch": 69, "duration": 79, "velocity": 100}, {"time": 17520, "pitch": 70, "duration": 83, "velocity": 100}, {"time": 17520, "pitch": 74, "duration": 79, "velocity": 100}, {"time": 17520, "pitch": 77, "duration": 79, "velocity": 100}, {"time": 17761, "pitch": 60, "duration": 304, "velocity": 100}, {"time": 17761, "pitch": 67, "duration": 304, "velocity": 100}, {"time": 17761, "pitch": 70, "duration": 320, "velocity": 100}, {"time": 17761, "pitch": 72, "duration": 316, "velocity": 100}, {"time": 17761, "pitch": 76, "duration": 312, "velocity": 100}, {"time": 18122, "pitch": 60, "duration": 76, "velocity": 100}, {"time": 18122, "pitch": 67, "duration": 61, "velocity": 100}, {"time": 18122, "pitch": 70, "duration": 74, "velocity": 100}, {"time": 18122, "pitch": 72, "duration": 61, "velocity": 100}, {"time": 18122, "pitch": 76, "duration": 72, "velocity": 100}, {"time": 18480, "pitch": 60, "duration": 80, "velocity": 100}, {"time": 18480, "pitch": 67, "duration": 70, "velocity": 100}, {"time": 18480, "pitch": 70, "duration": 85, "velocity": 100}, {"time": 18480, "pitch": 72, "duration": 78, "velocity": 100}, {"time": 18480, "pitch": 76, "duration": 88, "velocity": 100}, {"time": 19440, "pitch": 60, "duration": 82, "velocity": 100}, {"time": 19440, "pitch": 67, "duration": 77, "velocity": 100}, {"time": 19440, "pitch": 70, "duration": 84, "velocity": 100}, {"time": 19440, "pitch": 72, "duration": 86, "velocity": 100}, {"time": 19440, "pitch": 76, "duration": 88, "velocity": 100}, {"time": 20042, "pitch": 57, "duration": 1, "velocity": 100}, {"time": 20042, "pitch": 69, "duration": 10, "velocity": 100}, {"time": 20042, "pitch": 72, "duration": 12, "velocity": 100}, {"time": 20042, "pitch": 76, "duration": 19, "velocity": 100}, {"time": 20042, "pitch": 79, "duration": 11, "velocity": 100}, {"time": 20400, "pitch": 57, "duration": 80, "velocity": 100}, {"time": 20400, "pitch": 69, "duration": 70, "velocity": 100}, {"time": 20400, "pitch": 72, "duration": 66, "velocity": 100}, {"time": 20400, "pitch": 76, "duration": 82, "velocity": 100}, {"time": 20400, "pitch": 79, "duration": 70, "velocity": 100}, {"time": 21360, "pitch": 57, "duration": 79, "velocity": 100}, {"time": 21360, "pitch": 69, "duration": 69, "velocity": 100}, {"time": 21360, "pitch": 72, "duration": 71, "velocity": 100}, {"time": 21360, "pitch": 76, "duration": 81, "velocity": 100}, {"time": 21360, "pitch": 79, "duration": 75, "velocity": 100}, {"time": 21601, "pitch": 62, "duration": 342, "velocity": 100}, {"time": 21601, "pitch": 69, "duration": 327, "velocity": 100}, {"time": 21601, "pitch": 72, "duration": 337, "velocity": 100}, {"time": 21601, "pitch": 74, "duration": 337, "velocity": 100}, {"time": 21601, "pitch": 78, "duration": 343, "velocity": 100}, {"time": 21963, "pitch": 62, "duration": 77, "velocity": 100}, {"time": 21963, "pitch": 69, "duration": 64, "velocity": 100}, {"time": 21963, "pitch": 72, "duration": 68, "velocity": 100}, {"time": 21963, "pitch": 74, "duration": 67, "velocity": 100}, {"time": 21963, "pitch": 78, "duration": 81, "velocity": 100}, {"time": 22320, "pitch": 62, "duration": 78, "velocity": 100}, {"time": 22320, "pitch": 69, "duration": 70, "velocity": 100}, {"time": 22320, "pitch": 72, "duration": 80, "velocity": 100}, {"time": 22320, "pitch": 74, "duration": 72, "velocity": 100}, {"time": 22320, "pitch": 78, "duration": 103, "velocity": 100}, {"time": 23280, "pitch": 62, "duration": 87, "velocity": 100}, {"time": 23280, "pitch": 69, "duration": 94, "velocity": 100}, {"time": 23280, "pitch": 72, "duration": 87, "velocity": 100}, {"time": 23280, "pitch": 74, "duration": 91, "velocity": 100}, {"time": 23280, "pitch": 78, "duration": 93, "velocity": 100}, {"time": 23521, "pitch": 55, "duration": 326, "velocity": 100}, {"time": 23521, "pitch": 69, "duration": 331, "velocity": 100}, {"time": 23521, "pitch": 70, "duration": 344, "velocity": 100}, {"time": 23521, "pitch": 74, "duration": 337, "velocity": 100}, {"time": 23521, "pitch": 77, "duration": 333, "velocity": 100}, {"time": 23883, "pitch": 55, "duration": 78, "velocity": 100}, {"time": 23883, "pitch": 69, "duration": 61, "velocity": 100}, {"time": 23883, "pitch": 70, "duration": 71, "velocity": 100}, {"time": 23883, "pitch": 74, "duration": 65, "velocity": 100}, {"time": 23883, "pitch": 77, "duration": 75, "velocity": 100}, {"time": 24240, "pitch": 55, "duration": 91, "velocity": 100}, {"time": 24240, "pitch": 69, "duration": 72, "velocity": 100}, {"time": 24240, "pitch": 70, "duration": 83, "velocity": 100}, {"time": 24240, "pitch": 74, "duration": 85, "velocity": 100}, {"time": 24240, "pitch": 77, "duration": 100, "velocity": 100}, {"time": 25200, "pitch": 55, "duration": 94, "velocity": 100}, {"time": 25200, "pitch": 69, "duration": 79, "velocity": 100}, {"time": 25200, "pitch": 70, "duration": 83, "velocity": 100}, {"time": 25200, "pitch": 74, "duration": 79, "velocity": 100}, {"time": 25200, "pitch": 77, "duration": 79, "velocity": 100}, {"time": 25441, "pitch": 60, "duration": 304, "velocity": 100}, {"time": 25441, "pitch": 67, "duration": 304, "velocity": 100}, {"time": 25441, "pitch": 70, "duration": 321, "velocity": 100}, {"time": 25441, "pitch": 72, "duration": 316, "velocity": 100}, {"time": 25441, "pitch": 76, "duration": 312, "velocity": 100}, {"time": 25803, "pitch": 60, "duration": 75, "velocity": 100}, {"time": 25803, "pitch": 67, "duration": 60, "velocity": 100}, {"time": 25803, "pitch": 70, "duration": 73, "velocity": 100}, {"time": 25803, "pitch": 72, "duration": 60, "velocity": 100}, {"time": 25803, "pitch": 76, "duration": 71, "velocity": 100}, {"time": 26160, "pitch": 60, "duration": 80, "velocity": 100}, {"time": 26160, "pitch": 67, "duration": 70, "velocity": 100}, {"time": 26160, "pitch": 70, "duration": 85, "velocity": 100}, {"time": 26160, "pitch": 72, "duration": 78, "velocity": 100}, {"time": 26160, "pitch": 76, "duration": 88, "velocity": 100}, {"time": 27120, "pitch": 60, "duration": 83, "velocity": 100}, {"time": 27120, "pitch": 67, "duration": 77, "velocity": 100}, {"time": 27120, "pitch": 70, "duration": 85, "velocity": 100}, {"time": 27120, "pitch": 72, "duration": 87, "velocity": 100}, {"time": 27120, "pitch": 76, "duration": 89, "velocity": 100}, {"time": 27723, "pitch": 57, "duration": 1, "velocity": 100}, {"time": 27723, "pitch": 69, "duration": 10, "velocity": 100}, {"time": 27723, "pitch": 72, "duration": 12, "velocity": 100}, {"time": 27723, "pitch": 76, "duration": 18, "velocity": 100}, {"time": 27723, "pitch": 79, "duration": 11, "velocity": 100}, {"time": 28080, "pitch": 57, "duration": 80, "velocity": 100}, {"time": 28080, "pitch": 69, "duration": 70, "velocity": 100}, {"time": 28080, "pitch": 72, "duration": 66, "velocity": 100}, {"time": 28080, "pitch": 76, "duration": 82, "velocity": 100}, {"time": 28080, "pitch": 79, "duration": 70, "velocity": 100}, {"time": 29040, "pitch": 57, "duration": 80, "velocity": 100}, {"time": 29040, "pitch": 69, "duration": 70, "velocity": 100}, {"time": 29040, "pitch": 72, "duration": 72, "velocity": 100}, {"time": 29040, "pitch": 76, "duration": 82, "velocity": 100}, {"time": 29040, "pitch": 79, "duration": 76, "velocity": 100}, {"time": 29281, "pitch": 62, "duration": 343, "velocity": 100}, {"time": 29281, "pitch": 69, "duration": 328, "velocity": 100}, {"time": 29281, "pitch": 72, "duration": 338, "velocity": 100}, {"time": 29281, "pitch": 74, "duration": 338, "velocity": 100}, {"time": 29281, "pitch": 78, "duration": 344, "velocity": 100}, {"time": 29643, "pitch": 62, "duration": 77, "velocity": 100}, {"time": 29643, "pitch": 69, "duration": 64, "velocity": 100}, {"time": 29643, "pitch": 72, "duration": 68, "velocity": 100}, {"time": 29643, "pitch": 74, "duration": 67, "velocity": 100}, {"time": 29643, "pitch": 78, "duration": 81, "velocity": 100}, {"time": 30000, "pitch": 62, "duration": 78, "velocity": 100}, {"time": 30000, "pitch": 69, "duration": 70, "velocity": 100}, {"time": 30000, "pitch": 72, "duration": 80, "velocity": 100}, {"time": 30000, "pitch": 74, "duration": 72, "velocity": 100}, {"time": 30000, "pitch": 78, "duration": 103, "velocity": 100}, {"time": 30960, "pitch": 62, "duration": 88, "velocity": 100}, {"time": 30960, "pitch": 69, "duration": 95, "velocity": 100}, {"time": 30960, "pitch": 72, "duration": 88, "velocity": 100}, {"time": 30960, "pitch": 74, "duration": 92, "velocity": 100}, {"time": 30960, "pitch": 78, "duration": 94, "velocity": 100}, {"time": 31201, "pitch": 55, "duration": 327, "velocity": 100}, {"time": 31201, "pitch": 69, "duration": 332, "velocity": 100}, {"time": 31201, "pitch": 70, "duration": 344, "velocity": 100}, {"time": 31201, "pitch": 74, "duration": 338, "velocity": 100}, {"time": 31201, "pitch": 77, "duration": 334, "velocity": 100}, {"time": 31563, "pitch": 55, "duration": 78, "velocity": 100}, {"time": 31563, "pitch": 69, "duration": 61, "velocity": 100}, {"time": 31563, "pitch": 70, "duration": 71, "velocity": 100}, {"time": 31563, "pitch": 74, "duration": 65, "velocity": 100}, {"time": 31563, "pitch": 77, "duration": 75, "velocity": 100}, {"time": 31920, "pitch": 55, "duration": 91, "velocity": 100}, {"time": 31920, "pitch": 69, "duration": 72, "velocity": 100}, {"time": 31920, "pitch": 70, "duration": 83, "velocity": 100}, {"time": 31920, "pitch": 74, "duration": 85, "velocity": 100}, {"time": 31920, "pitch": 77, "duration": 100, "velocity": 100}, {"time": 32880, "pitch": 55, "duration": 95, "velocity": 100}, {"time": 32880, "pitch": 69, "duration": 80, "velocity": 100}, {"time": 32880, "pitch": 70, "duration": 84, "velocity": 100}, {"time": 32880, "pitch": 74, "duration": 80, "velocity": 100}, {"time": 32880, "pitch": 77, "duration": 80, "velocity": 100}, {"time": 33121, "pitch": 60, "duration": 305, "velocity": 100}, {"time": 33121, "pitch": 67, "duration": 305, "velocity": 100}, {"time": 33121, "pitch": 70, "duration": 321, "velocity": 100}, {"time": 33121, "pitch": 72, "duration": 317, "velocity": 100}, {"time": 33121, "pitch": 76, "duration": 313, "velocity": 100}, {"time": 33483, "pitch": 60, "duration": 75, "velocity": 100}, {"time": 33483, "pitch": 67, "duration": 60, "velocity": 100}, {"time": 33483, "pitch": 70, "duration": 73, "velocity": 100}, {"time": 33483, "pitch": 72, "duration": 60, "velocity": 100}, {"time": 33483, "pitch": 76, "duration": 71, "velocity": 100}, {"time": 33840, "pitch": 60, "duration": 80, "velocity": 100}, {"time": 33840, "pitch": 67, "duration": 71, "velocity": 100}, {"time": 33840, "pitch": 70, "duration": 85, "velocity": 100}, {"time": 33840, "pitch": 72, "duration": 78, "velocity": 100}, {"time": 33840, "pitch": 76, "duration": 88, "velocity": 100}, {"time": 34800, "pitch": 60, "duration": 83, "velocity": 100}, {"time": 34800, "pitch": 67, "duration": 78, "velocity": 100}, {"time": 34800, "pitch": 70, "duration": 85, "velocity": 100}, {"time": 34800, "pitch": 72, "duration": 87, "velocity": 100}, {"time": 34800, "pitch": 76, "duration": 89, "velocity": 100}, {"time": 35403, "pitch": 57, "duration": 1, "velocity": 100}, {"time": 35403, "pitch": 69, "duration": 10, "velocity": 100}, {"time": 35403, "pitch": 72, "duration": 12, "velocity": 100}, {"time": 35403, "pitch": 76, "duration": 18, "velocity": 100}, {"time": 35403, "pitch": 79, "duration": 11, "velocity": 100}, {"time": 35760, "pitch": 57, "duration": 80, "velocity": 100}, {"time": 35760, "pitch": 69, "duration": 71, "velocity": 100}, {"time": 35760, "pitch": 72, "duration": 67, "velocity": 100}, {"time": 35760, "pitch": 76, "duration": 82, "velocity": 100}, {"time": 35760, "pitch": 79, "duration": 71, "velocity": 100}, {"time": 36721, "pitch": 57, "duration": 79, "velocity": 100}, {"time": 36721, "pitch": 69, "duration": 69, "velocity": 100}, {"time": 36721, "pitch": 72, "duration": 71, "velocity": 100}, {"time": 36721, "pitch": 76, "duration": 81, "velocity": 100}, {"time": 36721, "pitch": 79, "duration": 75, "velocity": 100}, {"time": 36962, "pitch": 62, "duration": 342, "velocity": 100}, {"time": 36962, "pitch": 69, "duration": 327, "velocity": 100}, {"time": 36962, "pitch": 72, "duration": 337, "velocity": 100}, {"time": 36962, "pitch": 74, "duration": 337, "velocity": 100}, {"time": 36962, "pitch": 78, "duration": 343, "velocity": 100}, {"time": 37323, "pitch": 62, "duration": 77, "velocity": 100}, {"time": 37323, "pitch": 69, "duration": 64, "velocity": 100}, {"time": 37323, "pitch": 72, "duration": 68, "velocity": 100}, {"time": 37323, "pitch": 74, "duration": 67, "velocity": 100}, {"time": 37323, "pitch": 78, "duration": 82, "velocity": 100}, {"time": 37681, "pitch": 62, "duration": 78, "velocity": 100}, {"time": 37681, "pitch": 69, "duration": 70, "velocity": 100}, {"time": 37681, "pitch": 72, "duration": 80, "velocity": 100}, {"time": 37681, "pitch": 74, "duration": 72, "velocity": 100}, {"time": 37681, "pitch": 78, "duration": 102, "velocity": 100}, {"time": 38641, "pitch": 62, "duration": 87, "velocity": 100}, {"time": 38641, "pitch": 69, "duration": 94, "velocity": 100}, {"time": 38641, "pitch": 72, "duration": 87, "velocity": 100}, {"time": 38641, "pitch": 74, "duration": 91, "velocity": 100}, {"time": 38641, "pitch": 78, "duration": 93, "velocity": 100}, {"time": 38882, "pitch": 55, "duration": 326, "velocity": 100}, {"time": 38882, "pitch": 69, "duration": 331, "velocity": 100}, {"time": 38882, "pitch": 70, "duration": 343, "velocity": 100}, {"time": 38882, "pitch": 74, "duration": 337, "velocity": 100}, {"time": 38882, "pitch": 77, "duration": 333, "velocity": 100}, {"time": 39243, "pitch": 55, "duration": 79, "velocity": 100}, {"time": 39243, "pitch": 69, "duration": 62, "velocity": 100}, {"time": 39243, "pitch": 70, "duration": 72, "velocity": 100}, {"time": 39243, "pitch": 74, "duration": 66, "velocity": 100}, {"time": 39243, "pitch": 77, "duration": 76, "velocity": 100}, {"time": 39601, "pitch": 55, "duration": 90, "velocity": 100}, {"time": 39601, "pitch": 69, "duration": 72, "velocity": 100}, {"time": 39601, "pitch": 70, "duration": 83, "velocity": 100}, {"time": 39601, "pitch": 74, "duration": 85, "velocity": 100}, {"time": 39601, "pitch": 77, "duration": 99, "velocity": 100}, {"time": 40561, "pitch": 55, "duration": 94, "velocity": 100}, {"time": 40561, "pitch": 69, "duration": 79, "velocity": 100}, {"time": 40561, "pitch": 70, "duration": 83, "velocity": 100}, {"time": 40561, "pitch": 74, "duration": 79, "velocity": 100}, {"time": 40561, "pitch": 77, "duration": 79, "velocity": 100}, {"time": 40802, "pitch": 60, "duration": 304, "velocity": 100}, {"time": 40802, "pitch": 67, "duration": 304, "velocity": 100}, {"time": 40802, "pitch": 70, "duration": 320, "velocity": 100}, {"time": 40802, "pitch": 72, "duration": 316, "velocity": 100}, {"time": 40802, "pitch": 76, "duration": 312, "velocity": 100}, {"time": 41163, "pitch": 60, "duration": 76, "velocity": 100}, {"time": 41163, "pitch": 67, "duration": 61, "velocity": 100}, {"time": 41163, "pitch": 70, "duration": 74, "velocity": 100}, {"time": 41163, "pitch": 72, "duration": 61, "velocity": 100}, {"time": 41163, "pitch": 76, "duration": 72, "velocity": 100}, {"time": 41521, "pitch": 60, "duration": 80, "velocity": 100}, {"time": 41521, "pitch": 67, "duration": 70, "velocity": 100}, {"time": 41521, "pitch": 70, "duration": 85, "velocity": 100}, {"time": 41521, "pitch": 72, "duration": 78, "velocity": 100}, {"time": 41521, "pitch": 76, "duration": 88, "velocity": 100}, {"time": 42481, "pitch": 60, "duration": 82, "velocity": 100}, {"time": 42481, "pitch": 67, "duration": 77, "velocity": 100}, {"time": 42481, "pitch": 70, "duration": 84, "velocity": 100}, {"time": 42481, "pitch": 72, "duration": 86, "velocity": 100}, {"time": 42481, "pitch": 76, "duration": 88, "velocity": 100}, {"time": 43083, "pitch": 57, "duration": 1, "velocity": 100}, {"time": 43083, "pitch": 69, "duration": 10, "velocity": 100}, {"time": 43083, "pitch": 72, "duration": 12, "velocity": 100}, {"time": 43083, "pitch": 76, "duration": 18, "velocity": 100}, {"time": 43083, "pitch": 79, "duration": 11, "velocity": 100}, {"time": 43441, "pitch": 57, "duration": 80, "velocity": 100}, {"time": 43441, "pitch": 69, "duration": 70, "velocity": 100}, {"time": 43441, "pitch": 72, "duration": 66, "velocity": 100}, {"time": 43441, "pitch": 76, "duration": 82, "velocity": 100}, {"time": 43441, "pitch": 79, "duration": 70, "velocity": 100}, {"time": 44401, "pitch": 57, "duration": 79, "velocity": 100}, {"time": 44401, "pitch": 69, "duration": 69, "velocity": 100}, {"time": 44401, "pitch": 72, "duration": 71, "velocity": 100}, {"time": 44401, "pitch": 76, "duration": 81, "velocity": 100}, {"time": 44401, "pitch": 79, "duration": 75, "velocity": 100}, {"time": 44642, "pitch": 62, "duration": 342, "velocity": 100}, {"time": 44642, "pitch": 69, "duration": 327, "velocity": 100}, {"time": 44642, "pitch": 72, "duration": 337, "velocity": 100}, {"time": 44642, "pitch": 74, "duration": 337, "velocity": 100}, {"time": 44642, "pitch": 78, "duration": 343, "velocity": 100}, {"time": 45003, "pitch": 62, "duration": 78, "velocity": 100}, {"time": 45003, "pitch": 69, "duration": 65, "velocity": 100}, {"time": 45003, "pitch": 72, "duration": 69, "velocity": 100}, {"time": 45003, "pitch": 74, "duration": 68, "velocity": 100}, {"time": 45003, "pitch": 78, "duration": 82, "velocity": 100}, {"time": 45361, "pitch": 62, "duration": 78, "velocity": 100}, {"time": 45361, "pitch": 69, "duration": 70, "velocity": 100}, {"time": 45361, "pitch": 72, "duration": 80, "velocity": 100}, {"time": 45361, "pitch": 74, "duration": 72, "velocity": 100}, {"time": 45361, "pitch": 78, "duration": 103, "velocity": 100}, {"time": 46321, "pitch": 62, "duration": 87, "velocity": 100}, {"time": 46321, "pitch": 69, "duration": 94, "velocity": 100}, {"time": 46321, "pitch": 72, "duration": 87, "velocity": 100}, {"time": 46321, "pitch": 74, "duration": 91, "velocity": 100}, {"time": 46321, "pitch": 78, "duration": 93, "velocity": 100}, {"time": 46562, "pitch": 55, "duration": 326, "velocity": 100}, {"time": 46562, "pitch": 69, "duration": 331, "velocity": 100}, {"time": 46562, "pitch": 70, "duration": 343, "velocity": 100}, {"time": 46562, "pitch": 74, "duration": 337, "velocity": 100}, {"time": 46562, "pitch": 77, "duration": 333, "velocity": 100}, {"time": 46924, "pitch": 55, "duration": 78, "velocity": 100}, {"time": 46924, "pitch": 69, "duration": 61, "velocity": 100}, {"time": 46924, "pitch": 70, "duration": 71, "velocity": 100}, {"time": 46924, "pitch": 74, "duration": 65, "velocity": 100}, {"time": 46924, "pitch": 77, "duration": 75, "velocity": 100}, {"time": 47281, "pitch": 55, "duration": 91, "velocity": 100}, {"time": 47281, "pitch": 69, "duration": 72, "velocity": 100}, {"time": 47281, "pitch": 70, "duration": 83, "velocity": 100}, {"time": 47281, "pitch": 74, "duration": 85, "velocity": 100}, {"time": 47281, "pitch": 77, "duration": 100, "velocity": 100}, {"time": 48241, "pitch": 55, "duration": 94, "velocity": 100}, {"time": 48241, "pitch": 69, "duration": 79, "velocity": 100}, {"time": 48241, "pitch": 70, "duration": 83, "velocity": 100}, {"time": 48241, "pitch": 74, "duration": 79, "velocity": 100}, {"time": 48241, "pitch": 77, "duration": 79, "velocity": 100}, {"time": 48482, "pitch": 60, "duration": 299, "velocity": 100}, {"time": 48482, "pitch": 67, "duration": 299, "velocity": 100}, {"time": 48482, "pitch": 70, "duration": 315, "velocity": 100}, {"time": 48482, "pitch": 72, "duration": 311, "velocity": 100}, {"time": 48482, "pitch": 76, "duration": 307, "velocity": 100}, {"time": 48837, "pitch": 60, "duration": 75, "velocity": 100}, {"time": 48837, "pitch": 67, "duration": 60, "velocity": 100}, {"time": 48837, "pitch": 70, "duration": 73, "velocity": 100}, {"time": 48837, "pitch": 72, "duration": 60, "velocity": 100}, {"time": 48837, "pitch": 76, "duration": 71, "velocity": 100}, {"time": 49197, "pitch": 60, "duration": 81, "velocity": 100}, {"time": 49197, "pitch": 67, "duration": 71, "velocity": 100}, {"time": 49197, "pitch": 70, "duration": 86, "velocity": 100}, {"time": 49197, "pitch": 72, "duration": 79, "velocity": 100}, {"time": 49197, "pitch": 76, "duration": 89, "velocity": 100}, {"time": 50161, "pitch": 60, "duration": 82, "velocity": 100}, {"time": 50161, "pitch": 67, "duration": 77, "velocity": 100}, {"time": 50161, "pitch": 70, "duration": 84, "velocity": 100}, {"time": 50161, "pitch": 72, "duration": 86, "velocity": 100}, {"time": 50161, "pitch": 76, "duration": 88, "velocity": 100}, {"time": 50402, "pitch": 53, "duration": 1141, "velocity": 100}, {"time": 50402, "pitch": 65, "duration": 1311, "velocity": 100}, {"time": 50402, "pitch": 69, "duration": 1315, "velocity": 100}, {"time": 50402, "pitch": 72, "duration": 1327, "velocity": 100}, {"time": 50402, "pitch": 76, "duration": 1311, "velocity": 100}, {"time": 51599, "pitch": 53, "duration": 345, "velocity": 100}, {"time": 51840, "pitch": 65, "duration": 346, "velocity": 100}, {"time": 51840, "pitch": 69, "duration": 346, "velocity": 100}, {"time": 51840, "pitch": 72, "duration": 344, "velocity": 100}, {"time": 51840, "pitch": 76, "duration": 303, "velocity": 100}, {"time": 52081, "pitch": 53, "duration": 203, "velocity": 100}, {"time": 52322, "pitch": 59, "duration": 1339, "velocity": 100}, {"time": 52322, "pitch": 65, "duration": 1133, "velocity": 100}, {"time": 52322, "pitch": 68, "duration": 1141, "velocity": 100}, {"time": 52322, "pitch": 71, "duration": 1132, "velocity": 100}, {"time": 52322, "pitch": 74, "duration": 1137, "velocity": 100}, {"time": 53519, "pitch": 65, "duration": 354, "velocity": 100}, {"time": 53519, "pitch": 68, "duration": 374, "velocity": 100}, {"time": 53519, "pitch": 71, "duration": 359, "velocity": 100}, {"time": 53519, "pitch": 74, "duration": 348, "velocity": 100}, {"time": 53760, "pitch": 59, "duration": 453, "velocity": 100}, {"time": 54001, "pitch": 65, "duration": 166, "velocity": 100}, {"time": 54001, "pitch": 68, "duration": 186, "velocity": 100}, {"time": 54001, "pitch": 71, "duration": 178, "velocity": 100}, {"time": 54001, "pitch": 74, "duration": 159, "velocity": 100}, {"time": 54242, "pitch": 52, "duration": 1937, "velocity": 100}, {"time": 54242, "pitch": 64, "duration": 1914, "velocity": 100}, {"time": 54242, "pitch": 67, "duration": 1113, "velocity": 100}, {"time": 54242, "pitch": 71, "duration": 1113, "velocity": 100}, {"time": 54242, "pitch": 74, "duration": 1319, "velocity": 100}, {"time": 55439, "pitch": 67, "duration": 99, "velocity": 100}, {"time": 55680, "pitch": 67, "duration": 466, "velocity": 100}, {"time": 55680, "pitch": 71, "duration": 472, "velocity": 100}, {"time": 55680, "pitch": 74, "duration": 480, "velocity": 100}, {"time": 55921, "pitch": 79, "duration": 235, "velocity": 100}, {"time": 56162, "pitch": 60, "duration": 952, "velocity": 100}, {"time": 56162, "pitch": 67, "duration": 887, "velocity": 100}, {"time": 56162, "pitch": 70, "duration": 902, "velocity": 100}, {"time": 56162, "pitch": 74, "duration": 881, "velocity": 100}, {"time": 56162, "pitch": 77, "duration": 878, "velocity": 100}, {"time": 57118, "pitch": 48, "duration": 924, "velocity": 100}, {"time": 57118, "pitch": 67, "duration": 918, "velocity": 100}, {"time": 57118, "pitch": 70, "duration": 951, "velocity": 100}, {"time": 57118, "pitch": 72, "duration": 927, "velocity": 100}, {"time": 57118, "pitch": 76, "duration": 939, "velocity": 100}, {"time": 58082, "pitch": 53, "duration": 1141, "velocity": 100}, {"time": 58082, "pitch": 65, "duration": 1311, "velocity": 100}, {"time": 58082, "pitch": 69, "duration": 1315, "velocity": 100}, {"time": 58082, "pitch": 72, "duration": 1327, "velocity": 100}, {"time": 58082, "pitch": 76, "duration": 1311, "velocity": 100}, {"time": 59279, "pitch": 53, "duration": 345, "velocity": 100}, {"time": 59520, "pitch": 65, "duration": 346, "velocity": 100}, {"time": 59520, "pitch": 69, "duration": 346, "velocity": 100}, {"time": 59520, "pitch": 72, "duration": 344, "velocity": 100}, {"time": 59520, "pitch": 76, "duration": 304, "velocity": 100}, {"time": 59761, "pitch": 53, "duration": 203, "velocity": 100}, {"time": 60002, "pitch": 53, "duration": 1339, "velocity": 100}, {"time": 60002, "pitch": 65, "duration": 1133, "velocity": 100}, {"time": 60002, "pitch": 68, "duration": 1141, "velocity": 100}, {"time": 60002, "pitch": 72, "duration": 1132, "velocity": 100}, {"time": 60002, "pitch": 75, "duration": 1137, "velocity": 100}, {"time": 61199, "pitch": 65, "duration": 354, "velocity": 100}, {"time": 61199, "pitch": 68, "duration": 374, "velocity": 100}, {"time": 61199, "pitch": 72, "duration": 359, "velocity": 100}, {"time": 61199, "pitch": 75, "duration": 348, "velocity": 100}, {"time": 61441, "pitch": 53, "duration": 452, "velocity": 100}, {"time": 61682, "pitch": 65, "duration": 165, "velocity": 100}, {"time": 61682, "pitch": 68, "duration": 185, "velocity": 100}, {"time": 61682, "pitch": 71, "duration": 177, "velocity": 100}, {"time": 61682, "pitch": 74, "duration": 158, "velocity": 100}, {"time": 61923, "pitch": 52, "duration": 1936, "velocity": 100}, {"time": 61923, "pitch": 64, "duration": 1914, "velocity": 100}, {"time": 61923, "pitch": 67, "duration": 1112, "velocity": 100}, {"time": 61923, "pitch": 71, "duration": 1112, "velocity": 100}, {"time": 61923, "pitch": 74, "duration": 1318, "velocity": 100}, {"time": 63120, "pitch": 67, "duration": 98, "velocity": 100}, {"time": 63361, "pitch": 67, "duration": 466, "velocity": 100}, {"time": 63361, "pitch": 71, "duration": 472, "velocity": 100}, {"time": 63361, "pitch": 74, "duration": 480, "velocity": 100}, {"time": 63602, "pitch": 79, "duration": 235, "velocity": 100}, {"time": 63843, "pitch": 60, "duration": 952, "velocity": 100}, {"time": 63843, "pitch": 67, "duration": 886, "velocity": 100}, {"time": 63843, "pitch": 70, "duration": 901, "velocity": 100}, {"time": 63843, "pitch": 74, "duration": 880, "velocity": 100}, {"time": 63843, "pitch": 77, "duration": 877, "velocity": 100}, {"time": 64799, "pitch": 48, "duration": 924, "velocity": 100}, {"time": 64799, "pitch": 67, "duration": 918, "velocity": 100}, {"time": 64799, "pitch": 70, "duration": 951, "velocity": 100}, {"time": 64799, "pitch": 72, "duration": 927, "velocity": 100}, {"time": 64799, "pitch": 76, "duration": 939, "velocity": 100}, {"time": 65763, "pitch": 41, "duration": 1847, "velocity": 100}, {"time": 65763, "pitch": 53, "duration": 1859, "velocity": 100}, {"time": 65763, "pitch": 65, "duration": 1847, "velocity": 100}, {"time": 65763, "pitch": 67, "duration": 1858, "velocity": 100}, {"time": 65763, "pitch": 72, "duration": 1872, "velocity": 100}, {"time": 67442, "pitch": 76, "duration": 212, "velocity": 100}, {"time": 67683, "pitch": 43, "duration": 1828, "velocity": 100}, {"time": 67683, "pitch": 55, "duration": 1847, "velocity": 100}, {"time": 67683, "pitch": 67, "duration": 1853, "velocity": 100}, {"time": 67683, "pitch": 69, "duration": 1865, "velocity": 100}, {"time": 67683, "pitch": 74, "duration": 1806, "velocity": 100}, {"time": 69362, "pitch": 76, "duration": 156, "velocity": 100}, {"time": 69603, "pitch": 45, "duration": 1861, "velocity": 100}, {"time": 69603, "pitch": 57, "duration": 1870, "velocity": 100}, {"time": 69603, "pitch": 67, "duration": 1575, "velocity": 100}, {"time": 69603, "pitch": 69, "duration": 1547, "velocity": 100}, {"time": 69603, "pitch": 72, "duration": 1581, "velocity": 100}, {"time": 71282, "pitch": 74, "duration": 166, "velocity": 100}, {"time": 71402, "pitch": 76, "duration": 107, "velocity": 100}, {"time": 71523, "pitch": 45, "duration": 1884, "velocity": 100}, {"time": 71523, "pitch": 57, "duration": 1882, "velocity": 100}, {"time": 71523, "pitch": 67, "duration": 1887, "velocity": 100}, {"time": 71523, "pitch": 72, "duration": 1008, "velocity": 100}, {"time": 71523, "pitch": 77, "duration": 532, "velocity": 100}, {"time": 71997, "pitch": 79, "duration": 515, "velocity": 100}, {"time": 72479, "pitch": 76, "duration": 511, "velocity": 100}, {"time": 72961, "pitch": 74, "duration": 440, "velocity": 100}, {"time": 73443, "pitch": 41, "duration": 1847, "velocity": 100}, {"time": 73443, "pitch": 53, "duration": 1859, "velocity": 100}, {"time": 73443, "pitch": 65, "duration": 1847, "velocity": 100}, {"time": 73443, "pitch": 67, "duration": 1858, "velocity": 100}, {"time": 73443, "pitch": 72, "duration": 1872, "velocity": 100}, {"time": 75122, "pitch": 76, "duration": 212, "velocity": 100}, {"time": 75363, "pitch": 43, "duration": 1828, "velocity": 100}, {"time": 75363, "pitch": 55, "duration": 1847, "velocity": 100}, {"time": 75363, "pitch": 67, "duration": 1853, "velocity": 100}, {"time": 75363, "pitch": 69, "duration": 1865, "velocity": 100}, {"time": 75363, "pitch": 74, "duration": 1807, "velocity": 100}, {"time": 77042, "pitch": 76, "duration": 156, "velocity": 100}, {"time": 77283, "pitch": 45, "duration": 1861, "velocity": 100}, {"time": 77283, "pitch": 57, "duration": 1870, "velocity": 100}, {"time": 77283, "pitch": 67, "duration": 1575, "velocity": 100}, {"time": 77283, "pitch": 69, "duration": 1548, "velocity": 100}, {"time": 77283, "pitch": 72, "duration": 1581, "velocity": 100}, {"time": 78962, "pitch": 74, "duration": 166, "velocity": 100}, {"time": 79083, "pitch": 76, "duration": 106, "velocity": 100}, {"time": 79203, "pitch": 48, "duration": 1884, "velocity": 100}, {"time": 79203, "pitch": 60, "duration": 1882, "velocity": 100}, {"time": 79203, "pitch": 67, "duration": 1887, "velocity": 100}, {"time": 79203, "pitch": 72, "duration": 1008, "velocity": 100}, {"time": 79203, "pitch": 77, "duration": 532, "velocity": 100}, {"time": 79677, "pitch": 76, "duration": 515, "velocity": 100}, {"time": 80159, "pitch": 74, "duration": 511, "velocity": 100}, {"time": 80641, "pitch": 72, "duration": 440, "velocity": 100}, {"time": 81123, "pitch": 41, "duration": 1832, "velocity": 100}, {"time": 81123, "pitch": 53, "duration": 1845, "velocity": 100}, {"time": 81123, "pitch": 67, "duration": 1860, "velocity": 100}, {"time": 81123, "pitch": 72, "duration": 694, "velocity": 100}, {"time": 81123, "pitch": 74, "duration": 1856, "velocity": 100}, {"time": 81123, "pitch": 79, "duration": 1843, "velocity": 100}, {"time": 81838, "pitch": 72, "duration": 1123, "velocity": 100}, {"time": 83043, "pitch": 43, "duration": 1803, "velocity": 100}, {"time": 83043, "pitch": 55, "duration": 1809, "velocity": 100}, {"time": 83043, "pitch": 67, "duration": 1821, "velocity": 100}, {"time": 83043, "pitch": 72, "duration": 684, "velocity": 100}, {"time": 83043, "pitch": 74, "duration": 1830, "velocity": 100}, {"time": 83043, "pitch": 79, "duration": 1807, "velocity": 100}, {"time": 83758, "pitch": 72, "duration": 1096, "velocity": 100}, {"time": 84964, "pitch": 45, "duration": 3664, "velocity": 100}, {"time": 84964, "pitch": 57, "duration": 3560, "velocity": 100}, {"time": 84964, "pitch": 67, "duration": 3665, "velocity": 100}, {"time": 84964, "pitch": 72, "duration": 3663, "velocity": 100}, {"time": 84964, "pitch": 74, "duration": 733, "velocity": 100}, {"time": 84964, "pitch": 79, "duration": 3653, "velocity": 100}, {"time": 85678, "pitch": 76, "duration": 2969, "velocity": 100}, {"time": 88804, "pitch": 41, "duration": 1796, "velocity": 100}, {"time": 88804, "pitch": 53, "duration": 1803, "velocity": 100}, {"time": 88804, "pitch": 67, "duration": 1831, "velocity": 100}, {"time": 88804, "pitch": 72, "duration": 625, "velocity": 100}, {"time": 88804, "pitch": 74, "duration": 1829, "velocity": 100}, {"time": 88804, "pitch": 79, "duration": 1833, "velocity": 100}, {"time": 89519, "pitch": 72, "duration": 1137, "velocity": 100}, {"time": 90724, "pitch": 43, "duration": 1779, "velocity": 100}, {"time": 90724, "pitch": 55, "duration": 1783, "velocity": 100}, {"time": 90724, "pitch": 67, "duration": 1813, "velocity": 100}, {"time": 90724, "pitch": 72, "duration": 617, "velocity": 100}, {"time": 90724, "pitch": 74, "duration": 1804, "velocity": 100}, {"time": 90724, "pitch": 79, "duration": 1795, "velocity": 100}, {"time": 91439, "pitch": 72, "duration": 1086, "velocity": 100}, {"time": 92644, "pitch": 45, "duration": 3771, "velocity": 100}, {"time": 92644, "pitch": 57, "duration": 3767, "velocity": 100}, {"time": 92644, "pitch": 67, "duration": 1623, "velocity": 100}, {"time": 92644, "pitch": 72, "duration": 1186, "velocity": 100}, {"time": 92644, "pitch": 74, "duration": 757, "velocity": 100}, {"time": 92644, "pitch": 79, "duration": 3787, "velocity": 100}, {"time": 93359, "pitch": 76, "duration": 3055, "velocity": 100}, {"time": 93841, "pitch": 72, "duration": 2563, "velocity": 100}, {"time": 94323, "pitch": 67, "duration": 2067, "velocity": 100}, {"time": 96839, "pitch": 57, "duration": 1, "velocity": 100}, {"time": 96839, "pitch": 69, "duration": 10, "velocity": 100}, {"time": 96839, "pitch": 72, "duration": 12, "velocity": 100}, {"time": 96839, "pitch": 76, "duration": 18, "velocity": 100}, {"time": 96839, "pitch": 79, "duration": 11, "velocity": 100}, {"time": 97199, "pitch": 57, "duration": 81, "velocity": 100}, {"time": 97199, "pitch": 69, "duration": 71, "velocity": 100}, {"time": 97199, "pitch": 72, "duration": 67, "velocity": 100}, {"time": 97199, "pitch": 76, "duration": 83, "velocity": 100}, {"time": 97199, "pitch": 79, "duration": 71, "velocity": 100}, {"time": 98163, "pitch": 57, "duration": 79, "velocity": 100}, {"time": 98163, "pitch": 69, "duration": 69, "velocity": 100}, {"time": 98163, "pitch": 72, "duration": 71, "velocity": 100}, {"time": 98163, "pitch": 76, "duration": 81, "velocity": 100}, {"time": 98163, "pitch": 79, "duration": 75, "velocity": 100}, {"time": 98404, "pitch": 62, "duration": 337, "velocity": 100}, {"time": 98404, "pitch": 69, "duration": 322, "velocity": 100}, {"time": 98404, "pitch": 72, "duration": 332, "velocity": 100}, {"time": 98404, "pitch": 74, "duration": 332, "velocity": 100}, {"time": 98404, "pitch": 78, "duration": 338, "velocity": 100}, {"time": 98759, "pitch": 62, "duration": 77, "velocity": 100}, {"time": 98759, "pitch": 69, "duration": 64, "velocity": 100}, {"time": 98759, "pitch": 72, "duration": 68, "velocity": 100}, {"time": 98759, "pitch": 74, "duration": 67, "velocity": 100}, {"time": 98759, "pitch": 78, "duration": 80, "velocity": 100}, {"time": 99119, "pitch": 62, "duration": 79, "velocity": 100}, {"time": 99119, "pitch": 69, "duration": 71, "velocity": 100}, {"time": 99119, "pitch": 72, "duration": 81, "velocity": 100}, {"time": 99119, "pitch": 74, "duration": 73, "velocity": 100}, {"time": 99119, "pitch": 78, "duration": 104, "velocity": 100}, {"time": 100079, "pitch": 62, "duration": 86, "velocity": 100}, {"time": 100079, "pitch": 69, "duration": 93, "velocity": 100}, {"time": 100079, "pitch": 72, "duration": 86, "velocity": 100}, {"time": 100079, "pitch": 74, "duration": 90, "velocity": 100}, {"time": 100079, "pitch": 78, "duration": 92, "velocity": 100}, {"time": 100316, "pitch": 55, "duration": 326, "velocity": 100}, {"time": 100316, "pitch": 69, "duration": 331, "velocity": 100}, {"time": 100316, "pitch": 70, "duration": 343, "velocity": 100}, {"time": 100316, "pitch": 74, "duration": 337, "velocity": 100}, {"time": 100316, "pitch": 77, "duration": 333, "velocity": 100}, {"time": 100678, "pitch": 55, "duration": 78, "velocity": 100}, {"time": 100678, "pitch": 69, "duration": 61, "velocity": 100}, {"time": 100678, "pitch": 70, "duration": 71, "velocity": 100}, {"time": 100678, "pitch": 74, "duration": 65, "velocity": 100}, {"time": 100678, "pitch": 77, "duration": 75, "velocity": 100}, {"time": 101039, "pitch": 55, "duration": 92, "velocity": 100}, {"time": 101039, "pitch": 69, "duration": 73, "velocity": 100}, {"time": 101039, "pitch": 70, "duration": 84, "velocity": 100}, {"time": 101039, "pitch": 74, "duration": 86, "velocity": 100}, {"time": 101039, "pitch": 77, "duration": 102, "velocity": 100}, {"time": 101999, "pitch": 55, "duration": 93, "velocity": 100}, {"time": 101999, "pitch": 69, "duration": 78, "velocity": 100}, {"time": 101999, "pitch": 70, "duration": 82, "velocity": 100}, {"time": 101999, "pitch": 74, "duration": 78, "velocity": 100}, {"time": 101999, "pitch": 77, "duration": 78, "velocity": 100}, {"time": 102236, "pitch": 60, "duration": 304, "velocity": 100}, {"time": 102236, "pitch": 67, "duration": 304, "velocity": 100}, {"time": 102236, "pitch": 70, "duration": 320, "velocity": 100}, {"time": 102236, "pitch": 72, "duration": 316, "velocity": 100}, {"time": 102236, "pitch": 76, "duration": 312, "velocity": 100}, {"time": 102598, "pitch": 60, "duration": 75, "velocity": 100}, {"time": 102598, "pitch": 67, "duration": 60, "velocity": 100}, {"time": 102598, "pitch": 70, "duration": 73, "velocity": 100}, {"time": 102598, "pitch": 72, "duration": 60, "velocity": 100}, {"time": 102598, "pitch": 76, "duration": 71, "velocity": 100}, {"time": 102959, "pitch": 60, "duration": 82, "velocity": 100}, {"time": 102959, "pitch": 67, "duration": 71, "velocity": 100}, {"time": 102959, "pitch": 70, "duration": 87, "velocity": 100}, {"time": 102959, "pitch": 72, "duration": 79, "velocity": 100}, {"time": 102959, "pitch": 76, "duration": 90, "velocity": 100}, {"time": 103919, "pitch": 60, "duration": 81, "velocity": 100}, {"time": 103919, "pitch": 67, "duration": 76, "velocity": 100}, {"time": 103919, "pitch": 70, "duration": 83, "velocity": 100}, {"time": 103919, "pitch": 72, "duration": 85, "velocity": 100}, {"time": 103919, "pitch": 76, "duration": 87, "velocity": 100}, {"time": 104518, "pitch": 57, "duration": 1, "velocity": 100}, {"time": 104518, "pitch": 69, "duration": 10, "velocity": 100}, {"time": 104518, "pitch": 72, "duration": 12, "velocity": 100}, {"time": 104518, "pitch": 76, "duration": 18, "velocity": 100}, {"time": 104518, "pitch": 79, "duration": 11, "velocity": 100}, {"time": 104879, "pitch": 57, "duration": 82, "velocity": 100}, {"time": 104879, "pitch": 69, "duration": 72, "velocity": 100}, {"time": 104879, "pitch": 72, "duration": 68, "velocity": 100}, {"time": 104879, "pitch": 76, "duration": 84, "velocity": 100}, {"time": 104879, "pitch": 79, "duration": 72, "velocity": 100}, {"time": 105839, "pitch": 57, "duration": 78, "velocity": 100}, {"time": 105839, "pitch": 69, "duration": 68, "velocity": 100}, {"time": 105839, "pitch": 72, "duration": 70, "velocity": 100}, {"time": 105839, "pitch": 76, "duration": 80, "velocity": 100}, {"time": 105839, "pitch": 79, "duration": 74, "velocity": 100}, {"time": 106076, "pitch": 62, "duration": 343, "velocity": 100}, {"time": 106076, "pitch": 69, "duration": 328, "velocity": 100}, {"time": 106076, "pitch": 72, "duration": 338, "velocity": 100}, {"time": 106076, "pitch": 74, "duration": 338, "velocity": 100}, {"time": 106076, "pitch": 78, "duration": 344, "velocity": 100}, {"time": 106438, "pitch": 62, "duration": 77, "velocity": 100}, {"time": 106438, "pitch": 69, "duration": 64, "velocity": 100}, {"time": 106438, "pitch": 72, "duration": 68, "velocity": 100}, {"time": 106438, "pitch": 74, "duration": 67, "velocity": 100}, {"time": 106438, "pitch": 78, "duration": 81, "velocity": 100}, {"time": 106799, "pitch": 62, "duration": 80, "velocity": 100}, {"time": 106799, "pitch": 69, "duration": 72, "velocity": 100}, {"time": 106799, "pitch": 72, "duration": 82, "velocity": 100}, {"time": 106799, "pitch": 74, "duration": 74, "velocity": 100}, {"time": 106799, "pitch": 78, "duration": 105, "velocity": 100}, {"time": 107759, "pitch": 62, "duration": 86, "velocity": 100}, {"time": 107759, "pitch": 69, "duration": 93, "velocity": 100}, {"time": 107759, "pitch": 72, "duration": 86, "velocity": 100}, {"time": 107759, "pitch": 74, "duration": 90, "velocity": 100}, {"time": 107759, "pitch": 78, "duration": 92, "velocity": 100}, {"time": 107996, "pitch": 55, "duration": 327, "velocity": 100}, {"time": 107996, "pitch": 69, "duration": 332, "velocity": 100}, {"time": 107996, "pitch": 70, "duration": 344, "velocity": 100}, {"time": 107996, "pitch": 74, "duration": 338, "velocity": 100}, {"time": 107996, "pitch": 77, "duration": 334, "velocity": 100}, {"time": 108358, "pitch": 55, "duration": 78, "velocity": 100}, {"time": 108358, "pitch": 69, "duration": 61, "velocity": 100}, {"time": 108358, "pitch": 70, "duration": 71, "velocity": 100}, {"time": 108358, "pitch": 74, "duration": 65, "velocity": 100}, {"time": 108358, "pitch": 77, "duration": 75, "velocity": 100}, {"time": 108719, "pitch": 55, "duration": 93, "velocity": 100}, {"time": 108719, "pitch": 69, "duration": 74, "velocity": 100}, {"time": 108719, "pitch": 70, "duration": 85, "velocity": 100}, {"time": 108719, "pitch": 74, "duration": 87, "velocity": 100}, {"time": 108719, "pitch": 77, "duration": 102, "velocity": 100}, {"time": 109679, "pitch": 55, "duration": 93, "velocity": 100}, {"time": 109679, "pitch": 69, "duration": 78, "velocity": 100}, {"time": 109679, "pitch": 70, "duration": 82, "velocity": 100}, {"time": 109679, "pitch": 74, "duration": 78, "velocity": 100}, {"time": 109679, "pitch": 77, "duration": 78, "velocity": 100}, {"time": 109916, "pitch": 60, "duration": 305, "velocity": 100}, {"time": 109916, "pitch": 67, "duration": 305, "velocity": 100}, {"time": 109916, "pitch": 70, "duration": 321, "velocity": 100}, {"time": 109916, "pitch": 72, "duration": 317, "velocity": 100}, {"time": 109916, "pitch": 76, "duration": 313, "velocity": 100}, {"time": 110278, "pitch": 60, "duration": 75, "velocity": 100}, {"time": 110278, "pitch": 67, "duration": 60, "velocity": 100}, {"time": 110278, "pitch": 70, "duration": 73, "velocity": 100}, {"time": 110278, "pitch": 72, "duration": 60, "velocity": 100}, {"time": 110278, "pitch": 76, "duration": 71, "velocity": 100}, {"time": 110639, "pitch": 60, "duration": 82, "velocity": 100}, {"time": 110639, "pitch": 67, "duration": 72, "velocity": 100}, {"time": 110639, "pitch": 70, "duration": 87, "velocity": 100}, {"time": 110639, "pitch": 72, "duration": 80, "velocity": 100}, {"time": 110639, "pitch": 76, "duration": 90, "velocity": 100}, {"time": 111600, "pitch": 60, "duration": 80, "velocity": 100}, {"time": 111600, "pitch": 67, "duration": 76, "velocity": 100}, {"time": 111600, "pitch": 70, "duration": 82, "velocity": 100}, {"time": 111600, "pitch": 72, "duration": 84, "velocity": 100}, {"time": 111600, "pitch": 76, "duration": 86, "velocity": 100}, {"time": 111836, "pitch": 53, "duration": 1149, "velocity": 100}, {"time": 111836, "pitch": 65, "duration": 1319, "velocity": 100}, {"time": 111836, "pitch": 69, "duration": 1323, "velocity": 100}, {"time": 111836, "pitch": 72, "duration": 1335, "velocity": 100}, {"time": 111836, "pitch": 76, "duration": 1319, "velocity": 100}, {"time": 113042, "pitch": 53, "duration": 342, "velocity": 100}, {"time": 113283, "pitch": 65, "duration": 339, "velocity": 100}, {"time": 113283, "pitch": 69, "duration": 339, "velocity": 100}, {"time": 113283, "pitch": 72, "duration": 337, "velocity": 100}, {"time": 113283, "pitch": 76, "duration": 298, "velocity": 100}, {"time": 113520, "pitch": 53, "duration": 199, "velocity": 100}, {"time": 113757, "pitch": 59, "duration": 1346, "velocity": 100}, {"time": 113757, "pitch": 65, "duration": 1140, "velocity": 100}, {"time": 113757, "pitch": 68, "duration": 1148, "velocity": 100}, {"time": 113757, "pitch": 71, "duration": 1139, "velocity": 100}, {"time": 113757, "pitch": 74, "duration": 1144, "velocity": 100}, {"time": 114962, "pitch": 65, "duration": 351, "velocity": 100}, {"time": 114962, "pitch": 68, "duration": 371, "velocity": 100}, {"time": 114962, "pitch": 71, "duration": 356, "velocity": 100}, {"time": 114962, "pitch": 74, "duration": 345, "velocity": 100}, {"time": 115203, "pitch": 59, "duration": 445, "velocity": 100}, {"time": 115440, "pitch": 65, "duration": 163, "velocity": 100}, {"time": 115440, "pitch": 68, "duration": 182, "velocity": 100}, {"time": 115440, "pitch": 71, "duration": 174, "velocity": 100}, {"time": 115440, "pitch": 74, "duration": 156, "velocity": 100}, {"time": 115677, "pitch": 52, "duration": 1937, "velocity": 100}, {"time": 115677, "pitch": 64, "duration": 1914, "velocity": 100}, {"time": 115677, "pitch": 67, "duration": 1120, "velocity": 100}, {"time": 115677, "pitch": 71, "duration": 1120, "velocity": 100}, {"time": 115677, "pitch": 74, "duration": 1326, "velocity": 100}, {"time": 116882, "pitch": 67, "duration": 98, "velocity": 100}, {"time": 117123, "pitch": 67, "duration": 458, "velocity": 100}, {"time": 117123, "pitch": 71, "duration": 464, "velocity": 100}, {"time": 117123, "pitch": 74, "duration": 472, "velocity": 100}, {"time": 117360, "pitch": 79, "duration": 231, "velocity": 100}, {"time": 117597, "pitch": 60, "duration": 960, "velocity": 100}, {"time": 117597, "pitch": 67, "duration": 895, "velocity": 100}, {"time": 117597, "pitch": 70, "duration": 910, "velocity": 100}, {"time": 117597, "pitch": 74, "duration": 889, "velocity": 100}, {"time": 117597, "pitch": 77, "duration": 885, "velocity": 100}, {"time": 118561, "pitch": 48, "duration": 916, "velocity": 100}, {"time": 118561, "pitch": 67, "duration": 910, "velocity": 100}, {"time": 118561, "pitch": 70, "duration": 943, "velocity": 100}, {"time": 118561, "pitch": 72, "duration": 919, "velocity": 100}, {"time": 118561, "pitch": 76, "duration": 931, "velocity": 100}, {"time": 119517, "pitch": 53, "duration": 1149, "velocity": 100}, {"time": 119517, "pitch": 65, "duration": 1318, "velocity": 100}, {"time": 119517, "pitch": 69, "duration": 1322, "velocity": 100}, {"time": 119517, "pitch": 72, "duration": 1335, "velocity": 100}, {"time": 119517, "pitch": 76, "duration": 1318, "velocity": 100}, {"time": 120722, "pitch": 53, "duration": 343, "velocity": 100}, {"time": 120963, "pitch": 65, "duration": 340, "velocity": 100}, {"time": 120963, "pitch": 69, "duration": 340, "velocity": 100}, {"time": 120963, "pitch": 72, "duration": 338, "velocity": 100}, {"time": 120963, "pitch": 76, "duration": 298, "velocity": 100}, {"time": 121200, "pitch": 53, "duration": 199, "velocity": 100}, {"time": 121437, "pitch": 53, "duration": 1347, "velocity": 100}, {"time": 121437, "pitch": 65, "duration": 1141, "velocity": 100}, {"time": 121437, "pitch": 68, "duration": 1149, "velocity": 100}, {"time": 121437, "pitch": 72, "duration": 1140, "velocity": 100}, {"time": 121437, "pitch": 75, "duration": 1145, "velocity": 100}, {"time": 122642, "pitch": 65, "duration": 352, "velocity": 100}, {"time": 122642, "pitch": 68, "duration": 371, "velocity": 100}, {"time": 122642, "pitch": 72, "duration": 357, "velocity": 100}, {"time": 122642, "pitch": 75, "duration": 346, "velocity": 100}, {"time": 122883, "pitch": 53, "duration": 445, "velocity": 100}, {"time": 123120, "pitch": 65, "duration": 163, "velocity": 100}, {"time": 123120, "pitch": 68, "duration": 183, "velocity": 100}, {"time": 123120, "pitch": 71, "duration": 175, "velocity": 100}, {"time": 123120, "pitch": 74, "duration": 156, "velocity": 100}, {"time": 123357, "pitch": 52, "duration": 1937, "velocity": 100}, {"time": 123357, "pitch": 64, "duration": 1914, "velocity": 100}, {"time": 123357, "pitch": 67, "duration": 1121, "velocity": 100}, {"time": 123357, "pitch": 71, "duration": 1121, "velocity": 100}, {"time": 123357, "pitch": 74, "duration": 1327, "velocity": 100}, {"time": 124562, "pitch": 67, "duration": 99, "velocity": 100}, {"time": 124803, "pitch": 67, "duration": 458, "velocity": 100}, {"time": 124803, "pitch": 71, "duration": 464, "velocity": 100}, {"time": 124803, "pitch": 74, "duration": 472, "velocity": 100}, {"time": 125040, "pitch": 79, "duration": 231, "velocity": 100}, {"time": 125277, "pitch": 60, "duration": 960, "velocity": 100}, {"time": 125277, "pitch": 67, "duration": 895, "velocity": 100}, {"time": 125277, "pitch": 70, "duration": 910, "velocity": 100}, {"time": 125277, "pitch": 74, "duration": 889, "velocity": 100}, {"time": 125277, "pitch": 77, "duration": 886, "velocity": 100}, {"time": 126241, "pitch": 48, "duration": 917, "velocity": 100}, {"time": 126241, "pitch": 67, "duration": 911, "velocity": 100}, {"time": 126241, "pitch": 70, "duration": 943, "velocity": 100}, {"time": 126241, "pitch": 72, "duration": 920, "velocity": 100}, {"time": 126241, "pitch": 76, "duration": 931, "velocity": 100}, {"time": 127197, "pitch": 41, "duration": 1848, "velocity": 100}, {"time": 127197, "pitch": 53, "duration": 1860, "velocity": 100}, {"time": 127197, "pitch": 65, "duration": 1848, "velocity": 100}, {"time": 127197, "pitch": 67, "duration": 1859, "velocity": 100}, {"time": 127197, "pitch": 72, "duration": 1873, "velocity": 100}, {"time": 128880, "pitch": 76, "duration": 209, "velocity": 100}, {"time": 129117, "pitch": 43, "duration": 1829, "velocity": 100}, {"time": 129117, "pitch": 55, "duration": 1848, "velocity": 100}, {"time": 129117, "pitch": 67, "duration": 1854, "velocity": 100}, {"time": 129117, "pitch": 69, "duration": 1866, "velocity": 100}, {"time": 129117, "pitch": 74, "duration": 1809, "velocity": 100}, {"time": 130800, "pitch": 76, "duration": 153, "velocity": 100}, {"time": 131037, "pitch": 45, "duration": 1862, "velocity": 100}, {"time": 131037, "pitch": 57, "duration": 1871, "velocity": 100}, {"time": 131037, "pitch": 67, "duration": 1581, "velocity": 100}, {"time": 131037, "pitch": 69, "duration": 1554, "velocity": 100}, {"time": 131037, "pitch": 72, "duration": 1587, "velocity": 100}, {"time": 132720, "pitch": 74, "duration": 163, "velocity": 100}, {"time": 132839, "pitch": 76, "duration": 105, "velocity": 100}, {"time": 132957, "pitch": 45, "duration": 1885, "velocity": 100}, {"time": 132957, "pitch": 57, "duration": 1883, "velocity": 100}, {"time": 132957, "pitch": 67, "duration": 1888, "velocity": 100}, {"time": 132957, "pitch": 72, "duration": 1017, "velocity": 100}, {"time": 132957, "pitch": 77, "duration": 541, "velocity": 100}, {"time": 133439, "pitch": 79, "duration": 516, "velocity": 100}, {"time": 133921, "pitch": 76, "duration": 511, "velocity": 100}, {"time": 134403, "pitch": 74, "duration": 433, "velocity": 100}, {"time": 134877, "pitch": 41, "duration": 1848, "velocity": 100}, {"time": 134877, "pitch": 53, "duration": 1860, "velocity": 100}, {"time": 134877, "pitch": 65, "duration": 1848, "velocity": 100}, {"time": 134877, "pitch": 67, "duration": 1859, "velocity": 100}, {"time": 134877, "pitch": 72, "duration": 1873, "velocity": 100}, {"time": 136561, "pitch": 76, "duration": 208, "velocity": 100}, {"time": 136797, "pitch": 43, "duration": 1830, "velocity": 100}, {"time": 136797, "pitch": 55, "duration": 1848, "velocity": 100}, {"time": 136797, "pitch": 67, "duration": 1854, "velocity": 100}, {"time": 136797, "pitch": 69, "duration": 1866, "velocity": 100}, {"time": 136797, "pitch": 74, "duration": 1809, "velocity": 100}, {"time": 138481, "pitch": 76, "duration": 153, "velocity": 100}, {"time": 138718, "pitch": 45, "duration": 1861, "velocity": 100}, {"time": 138718, "pitch": 57, "duration": 1870, "velocity": 100}, {"time": 138718, "pitch": 67, "duration": 1580, "velocity": 100}, {"time": 138718, "pitch": 69, "duration": 1553, "velocity": 100}, {"time": 138718, "pitch": 72, "duration": 1586, "velocity": 100}, {"time": 140401, "pitch": 74, "duration": 163, "velocity": 100}, {"time": 140519, "pitch": 76, "duration": 105, "velocity": 100}, {"time": 140638, "pitch": 48, "duration": 1884, "velocity": 100}, {"time": 140638, "pitch": 60, "duration": 1882, "velocity": 100}, {"time": 140638, "pitch": 67, "duration": 1887, "velocity": 100}, {"time": 140638, "pitch": 72, "duration": 1016, "velocity": 100}, {"time": 140638, "pitch": 77, "duration": 540, "velocity": 100}, {"time": 141120, "pitch": 76, "duration": 515, "velocity": 100}, {"time": 141602, "pitch": 74, "duration": 510, "velocity": 100}, {"time": 142084, "pitch": 72, "duration": 432, "velocity": 100}, {"time": 142558, "pitch": 41, "duration": 1833, "velocity": 100}, {"time": 142558, "pitch": 53, "duration": 1846, "velocity": 100}, {"time": 142558, "pitch": 67, "duration": 1861, "velocity": 100}, {"time": 142558, "pitch": 72, "duration": 702, "velocity": 100}, {"time": 142558, "pitch": 74, "duration": 1857, "velocity": 100}, {"time": 142558, "pitch": 79, "duration": 1844, "velocity": 100}, {"time": 143281, "pitch": 72, "duration": 1116, "velocity": 100}, {"time": 144478, "pitch": 43, "duration": 1804, "velocity": 100}, {"time": 144478, "pitch": 55, "duration": 1810, "velocity": 100}, {"time": 144478, "pitch": 67, "duration": 1822, "velocity": 100}, {"time": 144478, "pitch": 72, "duration": 692, "velocity": 100}, {"time": 144478, "pitch": 74, "duration": 1831, "velocity": 100}, {"time": 144478, "pitch": 79, "duration": 1808, "velocity": 100}, {"time": 145201, "pitch": 72, "duration": 1089, "velocity": 100}, {"time": 146398, "pitch": 45, "duration": 3664, "velocity": 100}, {"time": 146398, "pitch": 57, "duration": 3560, "velocity": 100}, {"time": 146398, "pitch": 67, "duration": 3665, "velocity": 100}, {"time": 146398, "pitch": 72, "duration": 3663, "velocity": 100}, {"time": 146398, "pitch": 74, "duration": 741, "velocity": 100}, {"time": 146398, "pitch": 79, "duration": 3653, "velocity": 100}, {"time": 147121, "pitch": 76, "duration": 2960, "velocity": 100}, {"time": 150238, "pitch": 41, "duration": 1797, "velocity": 100}, {"time": 150238, "pitch": 53, "duration": 1804, "velocity": 100}, {"time": 150238, "pitch": 67, "duration": 1832, "velocity": 100}, {"time": 150238, "pitch": 72, "duration": 634, "velocity": 100}, {"time": 150238, "pitch": 74, "duration": 1830, "velocity": 100}, {"time": 150238, "pitch": 79, "duration": 1834, "velocity": 100}, {"time": 150961, "pitch": 72, "duration": 1129, "velocity": 100}, {"time": 152158, "pitch": 43, "duration": 1780, "velocity": 100}, {"time": 152158, "pitch": 55, "duration": 1784, "velocity": 100}, {"time": 152158, "pitch": 67, "duration": 1814, "velocity": 100}, {"time": 152158, "pitch": 72, "duration": 626, "velocity": 100}, {"time": 152158, "pitch": 74, "duration": 1805, "velocity": 100}, {"time": 152158, "pitch": 79, "duration": 1796, "velocity": 100}, {"time": 152881, "pitch": 72, "duration": 1079, "velocity": 100}, {"time": 154078, "pitch": 45, "duration": 3771, "velocity": 100}, {"time": 154078, "pitch": 57, "duration": 3767, "velocity": 100}, {"time": 154078, "pitch": 67, "duration": 1623, "velocity": 100}, {"time": 154078, "pitch": 72, "duration": 1190, "velocity": 100}, {"time": 154078, "pitch": 74, "duration": 765, "velocity": 100}, {"time": 154078, "pitch": 79, "duration": 3787, "velocity": 100}, {"time": 154801, "pitch": 76, "duration": 3047, "velocity": 100}, {"time": 155279, "pitch": 72, "duration": 2559, "velocity": 100}, {"time": 155757, "pitch": 67, "duration": 2067, "velocity": 100}, {"time": 157918, "pitch": 41, "duration": 1832, "velocity": 100}, {"time": 157918, "pitch": 53, "duration": 1845, "velocity": 100}, {"time": 157918, "pitch": 67, "duration": 1860, "velocity": 100}, {"time": 157918, "pitch": 72, "duration": 702, "velocity": 100}, {"time": 157918, "pitch": 74, "duration": 1856, "velocity": 100}, {"time": 157918, "pitch": 79, "duration": 1843, "velocity": 100}, {"time": 158641, "pitch": 72, "duration": 1115, "velocity": 100}, {"time": 159838, "pitch": 43, "duration": 1803, "velocity": 100}, {"time": 159838, "pitch": 55, "duration": 1809, "velocity": 100}, {"time": 159838, "pitch": 67, "duration": 1821, "velocity": 100}, {"time": 159838, "pitch": 72, "duration": 692, "velocity": 100}, {"time": 159838, "pitch": 74, "duration": 1830, "velocity": 100}, {"time": 159838, "pitch": 79, "duration": 1807, "velocity": 100}, {"time": 160562, "pitch": 72, "duration": 1087, "velocity": 100}, {"time": 161758, "pitch": 45, "duration": 3665, "velocity": 100}, {"time": 161758, "pitch": 57, "duration": 3560, "velocity": 100}, {"time": 161758, "pitch": 67, "duration": 3666, "velocity": 100}, {"time": 161758, "pitch": 72, "duration": 3664, "velocity": 100}, {"time": 161758, "pitch": 74, "duration": 742, "velocity": 100}, {"time": 161758, "pitch": 79, "duration": 3654, "velocity": 100}, {"time": 162482, "pitch": 76, "duration": 2960, "velocity": 100}, {"time": 165599, "pitch": 41, "duration": 1796, "velocity": 100}, {"time": 165599, "pitch": 53, "duration": 1803, "velocity": 100}, {"time": 165599, "pitch": 67, "duration": 1831, "velocity": 100}, {"time": 165599, "pitch": 72, "duration": 633, "velocity": 100}, {"time": 165599, "pitch": 74, "duration": 1829, "velocity": 100}, {"time": 165599, "pitch": 79, "duration": 1833, "velocity": 100}, {"time": 166322, "pitch": 72, "duration": 1128, "velocity": 100}, {"time": 167519, "pitch": 43, "duration": 1779, "velocity": 100}, {"time": 167519, "pitch": 55, "duration": 1783, "velocity": 100}, {"time": 167519, "pitch": 67, "duration": 1813, "velocity": 100}, {"time": 167519, "pitch": 72, "duration": 625, "velocity": 100}, {"time": 167519, "pitch": 74, "duration": 1804, "velocity": 100}, {"time": 167519, "pitch": 79, "duration": 1795, "velocity": 100}, {"time": 168242, "pitch": 72, "duration": 1078, "velocity": 100}, {"time": 169439, "pitch": 45, "duration": 3771, "velocity": 100}, {"time": 169439, "pitch": 57, "duration": 3767, "velocity": 100}, {"time": 169439, "pitch": 67, "duration": 1623, "velocity": 100}, {"time": 169439, "pitch": 72, "duration": 1190, "velocity": 100}, {"time": 169439, "pitch": 74, "duration": 765, "velocity": 100}, {"time": 169439, "pitch": 79, "duration": 3787, "velocity": 100}, {"time": 170162, "pitch": 76, "duration": 3047, "velocity": 100}, {"time": 170640, "pitch": 72, "duration": 2559, "velocity": 100}, {"time": 171118, "pitch": 67, "duration": 2067, "velocity": 100}, {"time": 20163, "pitch": 76, "duration": 190, "velocity": 120}, {"time": 20637, "pitch": 76, "duration": 233, "velocity": 120}, {"time": 20878, "pitch": 69, "duration": 103, "velocity": 120}, {"time": 21119, "pitch": 69, "duration": 154, "velocity": 120}, {"time": 21360, "pitch": 72, "duration": 482, "velocity": 120}, {"time": 21842, "pitch": 74, "duration": 329, "velocity": 120}, {"time": 22320, "pitch": 72, "duration": 478, "velocity": 97}, {"time": 22798, "pitch": 74, "duration": 330, "velocity": 97}, {"time": 23521, "pitch": 74, "duration": 334, "velocity": 120}, {"time": 24003, "pitch": 74, "duration": 263, "velocity": 120}, {"time": 24477, "pitch": 74, "duration": 240, "velocity": 120}, {"time": 24718, "pitch": 76, "duration": 371, "velocity": 120}, {"time": 25200, "pitch": 72, "duration": 741, "velocity": 120}, {"time": 25682, "pitch": 76, "duration": 369, "velocity": 97}, {"time": 26160, "pitch": 72, "duration": 737, "velocity": 97}, {"time": 27361, "pitch": 76, "duration": 281, "velocity": 120}, {"time": 27843, "pitch": 76, "duration": 191, "velocity": 120}, {"time": 28317, "pitch": 76, "duration": 233, "velocity": 120}, {"time": 28558, "pitch": 69, "duration": 104, "velocity": 120}, {"time": 28799, "pitch": 69, "duration": 154, "velocity": 120}, {"time": 29040, "pitch": 72, "duration": 482, "velocity": 120}, {"time": 29522, "pitch": 74, "duration": 360, "velocity": 120}, {"time": 30000, "pitch": 72, "duration": 478, "velocity": 97}, {"time": 30478, "pitch": 74, "duration": 362, "velocity": 97}, {"time": 31201, "pitch": 74, "duration": 147, "velocity": 120}, {"time": 31442, "pitch": 74, "duration": 147, "velocity": 120}, {"time": 31683, "pitch": 74, "duration": 125, "velocity": 120}, {"time": 31920, "pitch": 74, "duration": 125, "velocity": 120}, {"time": 32157, "pitch": 74, "duration": 195, "velocity": 120}, {"time": 32398, "pitch": 76, "duration": 311, "velocity": 120}, {"time": 32880, "pitch": 72, "duration": 555, "velocity": 120}, {"time": 33362, "pitch": 76, "duration": 310, "velocity": 97}, {"time": 33840, "pitch": 72, "duration": 551, "velocity": 97}, {"time": 35042, "pitch": 76, "duration": 281, "velocity": 120}, {"time": 35524, "pitch": 76, "duration": 337, "velocity": 120}, {"time": 35997, "pitch": 76, "duration": 330, "velocity": 120}, {"time": 36480, "pitch": 69, "duration": 117, "velocity": 120}, {"time": 36721, "pitch": 72, "duration": 434, "velocity": 120}, {"time": 37203, "pitch": 74, "duration": 359, "velocity": 120}, {"time": 37681, "pitch": 72, "duration": 430, "velocity": 97}, {"time": 38159, "pitch": 74, "duration": 361, "velocity": 97}, {"time": 38882, "pitch": 74, "duration": 318, "velocity": 120}, {"time": 39364, "pitch": 74, "duration": 321, "velocity": 120}, {"time": 39838, "pitch": 74, "duration": 249, "velocity": 120}, {"time": 40079, "pitch": 76, "duration": 223, "velocity": 120}, {"time": 40561, "pitch": 74, "duration": 429, "velocity": 120}, {"time": 41043, "pitch": 72, "duration": 391, "velocity": 120}, {"time": 41521, "pitch": 74, "duration": 424, "velocity": 97}, {"time": 41999, "pitch": 72, "duration": 393, "velocity": 97}, {"time": 42963, "pitch": 76, "duration": 142, "velocity": 120}, {"time": 43204, "pitch": 76, "duration": 148, "velocity": 120}, {"time": 43441, "pitch": 76, "duration": 136, "velocity": 120}, {"time": 43678, "pitch": 72, "duration": 418, "velocity": 120}, {"time": 43678, "pitch": 76, "duration": 463, "velocity": 120}, {"time": 44160, "pitch": 69, "duration": 122, "velocity": 120}, {"time": 44401, "pitch": 72, "duration": 420, "velocity": 120}, {"time": 44883, "pitch": 74, "duration": 535, "velocity": 120}, {"time": 45361, "pitch": 72, "duration": 416, "velocity": 97}, {"time": 45839, "pitch": 74, "duration": 540, "velocity": 97}, {"time": 46562, "pitch": 74, "duration": 333, "velocity": 120}, {"time": 47044, "pitch": 74, "duration": 318, "velocity": 120}, {"time": 47518, "pitch": 74, "duration": 214, "velocity": 120}, {"time": 47759, "pitch": 76, "duration": 223, "velocity": 120}, {"time": 48241, "pitch": 72, "duration": 242, "velocity": 120}, {"time": 48719, "pitch": 76, "duration": 219, "velocity": 97}, {"time": 49197, "pitch": 72, "duration": 128, "velocity": 97}, {"time": 49920, "pitch": 69, "duration": 222, "velocity": 120}, {"time": 50161, "pitch": 72, "duration": 129, "velocity": 120}, {"time": 51840, "pitch": 69, "duration": 242, "velocity": 120}, {"time": 52081, "pitch": 76, "duration": 451, "velocity": 120}, {"time": 52559, "pitch": 74, "duration": 1163, "velocity": 120}, {"time": 54001, "pitch": 71, "duration": 93, "velocity": 120}, {"time": 54122, "pitch": 72, "duration": 89, "velocity": 120}, {"time": 54242, "pitch": 74, "duration": 881, "velocity": 120}, {"time": 55439, "pitch": 74, "duration": 381, "velocity": 120}, {"time": 55921, "pitch": 79, "duration": 238, "velocity": 120}, {"time": 56162, "pitch": 77, "duration": 956, "velocity": 120}, {"time": 57118, "pitch": 76, "duration": 455, "velocity": 120}, {"time": 57600, "pitch": 74, "duration": 164, "velocity": 120}, {"time": 57841, "pitch": 74, "duration": 536, "velocity": 120}, {"time": 58319, "pitch": 72, "duration": 795, "velocity": 120}, {"time": 59279, "pitch": 69, "duration": 410, "velocity": 120}, {"time": 59761, "pitch": 72, "duration": 156, "velocity": 120}, {"time": 59882, "pitch": 74, "duration": 119, "velocity": 120}, {"time": 60002, "pitch": 75, "duration": 238, "velocity": 120}, {"time": 60239, "pitch": 74, "duration": 106, "velocity": 120}, {"time": 60358, "pitch": 72, "duration": 765, "velocity": 120}, {"time": 61682, "pitch": 72, "duration": 199, "velocity": 120}, {"time": 61923, "pitch": 79, "duration": 1309, "velocity": 120}, {"time": 63602, "pitch": 79, "duration": 228, "velocity": 120}, {"time": 63843, "pitch": 84, "duration": 987, "velocity": 120}, {"time": 65040, "pitch": 76, "duration": 120, "velocity": 120}, {"time": 65160, "pitch": 77, "duration": 121, "velocity": 120}, {"time": 65281, "pitch": 76, "duration": 241, "velocity": 120}, {"time": 65522, "pitch": 74, "duration": 241, "velocity": 120}, {"time": 65763, "pitch": 72, "duration": 237, "velocity": 120}, {"time": 66000, "pitch": 72, "duration": 237, "velocity": 120}, {"time": 66960, "pitch": 69, "duration": 363, "velocity": 120}, {"time": 67442, "pitch": 76, "duration": 203, "velocity": 120}, {"time": 67683, "pitch": 76, "duration": 199, "velocity": 120}, {"time": 67920, "pitch": 74, "duration": 378, "velocity": 120}, {"time": 68880, "pitch": 67, "duration": 345, "velocity": 120}, {"time": 69362, "pitch": 76, "duration": 213, "velocity": 120}, {"time": 69603, "pitch": 76, "duration": 209, "velocity": 120}, {"time": 69840, "pitch": 74, "duration": 88, "velocity": 120}, {"time": 69958, "pitch": 72, "duration": 391, "velocity": 120}, {"time": 71282, "pitch": 74, "duration": 84, "velocity": 120}, {"time": 71402, "pitch": 76, "duration": 96, "velocity": 120}, {"time": 71523, "pitch": 77, "duration": 407, "velocity": 120}, {"time": 71997, "pitch": 79, "duration": 421, "velocity": 120}, {"time": 72479, "pitch": 76, "duration": 500, "velocity": 120}, {"time": 72961, "pitch": 74, "duration": 185, "velocity": 120}, {"time": 73202, "pitch": 74, "duration": 438, "velocity": 120}, {"time": 73680, "pitch": 72, "duration": 393, "velocity": 120}, {"time": 74881, "pitch": 69, "duration": 123, "velocity": 120}, {"time": 75122, "pitch": 76, "duration": 449, "velocity": 120}, {"time": 75600, "pitch": 74, "duration": 418, "velocity": 120}, {"time": 76801, "pitch": 67, "duration": 143, "velocity": 120}, {"time": 77042, "pitch": 76, "duration": 474, "velocity": 120}, {"time": 77520, "pitch": 74, "duration": 250, "velocity": 120}, {"time": 77757, "pitch": 72, "duration": 650, "velocity": 120}, {"time": 78962, "pitch": 74, "duration": 121, "velocity": 120}, {"time": 79083, "pitch": 76, "duration": 120, "velocity": 120}, {"time": 79203, "pitch": 77, "duration": 407, "velocity": 120}, {"time": 79677, "pitch": 79, "duration": 421, "velocity": 120}, {"time": 80159, "pitch": 76, "duration": 500, "velocity": 120}, {"time": 80641, "pitch": 74, "duration": 185, "velocity": 120}, {"time": 80882, "pitch": 74, "duration": 438, "velocity": 120}, {"time": 81360, "pitch": 72, "duration": 1201, "velocity": 120}, {"time": 96484, "pitch": 76, "duration": 276, "velocity": 120}, {"time": 96958, "pitch": 76, "duration": 343, "velocity": 120}, {"time": 97440, "pitch": 76, "duration": 329, "velocity": 120}, {"time": 97922, "pitch": 69, "duration": 118, "velocity": 120}, {"time": 98163, "pitch": 72, "duration": 432, "velocity": 120}, {"time": 98641, "pitch": 74, "duration": 357, "velocity": 120}, {"time": 99119, "pitch": 72, "duration": 435, "velocity": 97}, {"time": 99601, "pitch": 74, "duration": 360, "velocity": 97}, {"time": 100316, "pitch": 74, "duration": 318, "velocity": 120}, {"time": 100798, "pitch": 74, "duration": 326, "velocity": 120}, {"time": 101280, "pitch": 74, "duration": 249, "velocity": 120}, {"time": 101521, "pitch": 76, "duration": 223, "velocity": 120}, {"time": 101999, "pitch": 74, "duration": 425, "velocity": 120}, {"time": 102477, "pitch": 72, "duration": 394, "velocity": 120}, {"time": 102959, "pitch": 74, "duration": 429, "velocity": 97}, {"time": 103441, "pitch": 72, "duration": 391, "velocity": 97}, {"time": 104397, "pitch": 76, "duration": 143, "velocity": 120}, {"time": 104638, "pitch": 76, "duration": 151, "velocity": 120}, {"time": 104879, "pitch": 76, "duration": 139, "velocity": 120}, {"time": 105120, "pitch": 76, "duration": 463, "velocity": 120}, {"time": 105602, "pitch": 69, "duration": 121, "velocity": 120}, {"time": 105839, "pitch": 72, "duration": 416, "velocity": 120}, {"time": 106317, "pitch": 74, "duration": 541, "velocity": 120}, {"time": 106799, "pitch": 72, "duration": 420, "velocity": 97}, {"time": 107281, "pitch": 74, "duration": 536, "velocity": 97}, {"time": 107996, "pitch": 74, "duration": 334, "velocity": 120}, {"time": 108478, "pitch": 74, "duration": 324, "velocity": 120}, {"time": 108960, "pitch": 74, "duration": 214, "velocity": 120}, {"time": 109201, "pitch": 76, "duration": 223, "velocity": 120}, {"time": 109679, "pitch": 72, "duration": 238, "velocity": 120}, {"time": 110157, "pitch": 76, "duration": 223, "velocity": 97}, {"time": 110639, "pitch": 72, "duration": 129, "velocity": 97}, {"time": 111363, "pitch": 69, "duration": 218, "velocity": 120}, {"time": 111600, "pitch": 72, "duration": 126, "velocity": 120}, {"time": 113283, "pitch": 69, "duration": 238, "velocity": 120}, {"time": 113520, "pitch": 76, "duration": 450, "velocity": 120}, {"time": 113998, "pitch": 74, "duration": 1167, "velocity": 120}, {"time": 115440, "pitch": 71, "duration": 91, "velocity": 120}, {"time": 115558, "pitch": 72, "duration": 88, "velocity": 120}, {"time": 115677, "pitch": 74, "duration": 888, "velocity": 120}, {"time": 116882, "pitch": 74, "duration": 378, "velocity": 120}, {"time": 117360, "pitch": 79, "duration": 234, "velocity": 120}, {"time": 117597, "pitch": 77, "duration": 964, "velocity": 120}, {"time": 118561, "pitch": 76, "duration": 455, "velocity": 120}, {"time": 119043, "pitch": 74, "duration": 161, "velocity": 120}, {"time": 119280, "pitch": 74, "duration": 536, "velocity": 120}, {"time": 119758, "pitch": 72, "duration": 798, "velocity": 120}, {"time": 120722, "pitch": 69, "duration": 407, "velocity": 120}, {"time": 121200, "pitch": 72, "duration": 153, "velocity": 120}, {"time": 121318, "pitch": 74, "duration": 117, "velocity": 120}, {"time": 121437, "pitch": 75, "duration": 242, "velocity": 120}, {"time": 121678, "pitch": 74, "duration": 107, "velocity": 120}, {"time": 121798, "pitch": 72, "duration": 768, "velocity": 120}, {"time": 123120, "pitch": 72, "duration": 196, "velocity": 120}, {"time": 123357, "pitch": 79, "duration": 1318, "velocity": 120}, {"time": 125040, "pitch": 79, "duration": 224, "velocity": 120}, {"time": 125277, "pitch": 84, "duration": 995, "velocity": 120}, {"time": 126482, "pitch": 76, "duration": 121, "velocity": 120}, {"time": 126603, "pitch": 77, "duration": 120, "velocity": 120}, {"time": 126723, "pitch": 76, "duration": 237, "velocity": 120}, {"time": 126960, "pitch": 74, "duration": 237, "velocity": 120}, {"time": 127197, "pitch": 72, "duration": 241, "velocity": 120}, {"time": 127438, "pitch": 72, "duration": 241, "velocity": 120}, {"time": 128402, "pitch": 69, "duration": 362, "velocity": 120}, {"time": 128880, "pitch": 76, "duration": 200, "velocity": 120}, {"time": 129117, "pitch": 76, "duration": 203, "velocity": 120}, {"time": 129358, "pitch": 74, "duration": 383, "velocity": 120}, {"time": 130322, "pitch": 67, "duration": 344, "velocity": 120}, {"time": 130800, "pitch": 76, "duration": 210, "velocity": 120}, {"time": 131037, "pitch": 76, "duration": 213, "velocity": 120}, {"time": 131278, "pitch": 74, "duration": 90, "velocity": 120}, {"time": 131399, "pitch": 72, "duration": 392, "velocity": 120}, {"time": 132720, "pitch": 74, "duration": 83, "velocity": 120}, {"time": 132839, "pitch": 76, "duration": 94, "velocity": 120}, {"time": 132957, "pitch": 77, "duration": 414, "velocity": 120}, {"time": 133439, "pitch": 79, "duration": 421, "velocity": 120}, {"time": 133921, "pitch": 76, "duration": 500, "velocity": 120}, {"time": 134403, "pitch": 74, "duration": 182, "velocity": 120}, {"time": 134640, "pitch": 74, "duration": 437, "velocity": 120}, {"time": 135118, "pitch": 72, "duration": 397, "velocity": 120}, {"time": 136083, "pitch": 69, "duration": 359, "velocity": 127}, {"time": 136561, "pitch": 76, "duration": 118, "velocity": 127}, {"time": 136797, "pitch": 76, "duration": 166, "velocity": 127}, {"time": 137038, "pitch": 74, "duration": 182, "velocity": 127}, {"time": 137280, "pitch": 72, "duration": 482, "velocity": 127}, {"time": 138003, "pitch": 74, "duration": 638, "velocity": 127}, {"time": 139953, "pitch": 79, "duration": 1317, "velocity": 119}, {"time": 141361, "pitch": 84, "duration": 3358, "velocity": 119}, {"time": 5514, "pitch": 74, "duration": 66, "velocity": 104}, {"time": 5628, "pitch": 76, "duration": 72, "velocity": 94}, {"time": 5768, "pitch": 79, "duration": 73, "velocity": 104}, {"time": 5985, "pitch": 79, "duration": 949, "velocity": 112}, {"time": 6942, "pitch": 81, "duration": 1075, "velocity": 102}, {"time": 8796, "pitch": 69, "duration": 382, "velocity": 102}, {"time": 9176, "pitch": 72, "duration": 202, "velocity": 94}, {"time": 9449, "pitch": 74, "duration": 138, "velocity": 102}, {"time": 9714, "pitch": 75, "duration": 70, "velocity": 88}, {"time": 9730, "pitch": 76, "duration": 1019, "velocity": 102}, {"time": 10724, "pitch": 77, "duration": 271, "velocity": 84}, {"time": 10960, "pitch": 76, "duration": 167, "velocity": 94}, {"time": 11115, "pitch": 72, "duration": 154, "velocity": 90}, {"time": 11267, "pitch": 69, "duration": 90, "velocity": 94}, {"time": 11421, "pitch": 67, "duration": 867, "velocity": 90}, {"time": 12796, "pitch": 64, "duration": 75, "velocity": 98}, {"time": 12836, "pitch": 62, "duration": 83, "velocity": 78}, {"time": 12911, "pitch": 64, "duration": 80, "velocity": 68}, {"time": 12993, "pitch": 67, "duration": 432, "velocity": 104}, {"time": 13494, "pitch": 69, "duration": 157, "velocity": 104}, {"time": 13728, "pitch": 72, "duration": 136, "velocity": 100}, {"time": 13908, "pitch": 74, "duration": 115, "velocity": 90}, {"time": 14095, "pitch": 76, "duration": 148, "velocity": 102}, {"time": 14286, "pitch": 76, "duration": 118, "velocity": 80}, {"time": 14436, "pitch": 74, "duration": 86, "velocity": 96}, {"time": 14534, "pitch": 69, "duration": 75, "velocity": 98}, {"time": 14647, "pitch": 72, "duration": 761, "velocity": 104}, {"time": 16454, "pitch": 74, "duration": 92, "velocity": 82}, {"time": 16477, "pitch": 75, "duration": 111, "velocity": 53}, {"time": 16529, "pitch": 76, "duration": 159, "velocity": 92}, {"time": 16702, "pitch": 79, "duration": 909, "velocity": 102}, {"time": 17576, "pitch": 75, "duration": 93, "velocity": 64}, {"time": 17586, "pitch": 76, "duration": 43, "velocity": 63}, {"time": 17636, "pitch": 74, "duration": 77, "velocity": 100}, {"time": 17689, "pitch": 72, "duration": 1507, "velocity": 102}, {"time": 80880, "pitch": 76, "duration": 89, "velocity": 116}, {"time": 81004, "pitch": 79, "duration": 78, "velocity": 108}, {"time": 81130, "pitch": 81, "duration": 77, "velocity": 108}, {"time": 81246, "pitch": 81, "duration": 1558, "velocity": 104}, {"time": 82777, "pitch": 76, "duration": 85, "velocity": 94}, {"time": 82808, "pitch": 75, "duration": 122, "velocity": 76}, {"time": 82891, "pitch": 74, "duration": 97, "velocity": 74}, {"time": 83002, "pitch": 72, "duration": 1093, "velocity": 104}, {"time": 84118, "pitch": 69, "duration": 101, "velocity": 106}, {"time": 84252, "pitch": 72, "duration": 96, "velocity": 98}, {"time": 84376, "pitch": 74, "duration": 83, "velocity": 92}, {"time": 84505, "pitch": 76, "duration": 1162, "velocity": 104}, {"time": 85684, "pitch": 72, "duration": 240, "velocity": 106}, {"time": 86155, "pitch": 67, "duration": 483, "velocity": 96}, {"time": 86653, "pitch": 69, "duration": 1073, "velocity": 100}, {"time": 88554, "pitch": 62, "duration": 95, "velocity": 88}, {"time": 88674, "pitch": 67, "duration": 106, "velocity": 90}, {"time": 88790, "pitch": 64, "duration": 90, "velocity": 66}, {"time": 88907, "pitch": 69, "duration": 80, "velocity": 86}, {"time": 89011, "pitch": 67, "duration": 67, "velocity": 92}, {"time": 89143, "pitch": 72, "duration": 104, "velocity": 98}, {"time": 89276, "pitch": 67, "duration": 89, "velocity": 90}, {"time": 89383, "pitch": 69, "duration": 87, "velocity": 88}, {"time": 89520, "pitch": 74, "duration": 85, "velocity": 72}, {"time": 89712, "pitch": 76, "duration": 367, "velocity": 94}, {"time": 92269, "pitch": 79, "duration": 92, "velocity": 104}, {"time": 92390, "pitch": 84, "duration": 101, "velocity": 108}, {"time": 92518, "pitch": 83, "duration": 419, "velocity": 104}, {"time": 92957, "pitch": 79, "duration": 136, "velocity": 98}, {"time": 93100, "pitch": 74, "duration": 1087, "velocity": 92}, {"time": 94318, "pitch": 72, "duration": 141, "velocity": 84}, {"time": 94448, "pitch": 71, "duration": 110, "velocity": 76}, {"time": 94572, "pitch": 72, "duration": 1521, "velocity": 84}, {"time": 142566, "pitch": 79, "duration": 681, "velocity": 118}, {"time": 143249, "pitch": 72, "duration": 930, "velocity": 112}, {"time": 144193, "pitch": 81, "duration": 316, "velocity": 108}, {"time": 144468, "pitch": 79, "duration": 705, "velocity": 108}, {"time": 145186, "pitch": 72, "duration": 962, "velocity": 104}, {"time": 146154, "pitch": 74, "duration": 138, "velocity": 98}, {"time": 146282, "pitch": 72, "duration": 114, "velocity": 110}, {"time": 146406, "pitch": 74, "duration": 689, "velocity": 106}, {"time": 147087, "pitch": 76, "duration": 2710, "velocity": 110}, {"time": 150223, "pitch": 79, "duration": 737, "velocity": 112}, {"time": 150964, "pitch": 72, "duration": 946, "velocity": 106}, {"time": 151895, "pitch": 81, "duration": 292, "velocity": 104}, {"time": 152154, "pitch": 79, "duration": 715, "velocity": 106}, {"time": 152878, "pitch": 72, "duration": 1003, "velocity": 108}, {"time": 153850, "pitch": 74, "duration": 133, "velocity": 102}, {"time": 153977, "pitch": 72, "duration": 115, "velocity": 102}, {"time": 154094, "pitch": 74, "duration": 681, "velocity": 102}, {"time": 154783, "pitch": 76, "duration": 454, "velocity": 102}, {"time": 155271, "pitch": 72, "duration": 472, "velocity": 108}, {"time": 155737, "pitch": 67, "duration": 1357, "velocity": 104}, {"time": 157159, "pitch": 60, "duration": 281, "velocity": 104}, {"time": 157420, "pitch": 67, "duration": 1739, "velocity": 106}, {"time": 159113, "pitch": 65, "duration": 259, "velocity": 98}, {"time": 159355, "pitch": 64, "duration": 279, "velocity": 100}, {"time": 159593, "pitch": 65, "duration": 263, "velocity": 104}, {"time": 159825, "pitch": 67, "duration": 1049, "velocity": 104}, {"time": 161022, "pitch": 67, "duration": 217, "velocity": 108}, {"time": 161268, "pitch": 72, "duration": 202, "velocity": 112}, {"time": 161503, "pitch": 74, "duration": 184, "velocity": 102}, {"time": 161745, "pitch": 74, "duration": 268, "velocity": 102}, {"time": 161993, "pitch": 72, "duration": 96, "velocity": 100}, {"time": 162108, "pitch": 74, "duration": 221, "velocity": 102}, {"time": 162354, "pitch": 76, "duration": 1075, "velocity": 104}, {"time": 163413, "pitch": 77, "duration": 153, "velocity": 92}, {"time": 163521, "pitch": 76, "duration": 142, "velocity": 98}, {"time": 163630, "pitch": 72, "duration": 135, "velocity": 98}, {"time": 163752, "pitch": 67, "duration": 1061, "velocity": 94}, {"time": 164880, "pitch": 65, "duration": 253, "velocity": 106}, {"time": 165135, "pitch": 64, "duration": 248, "velocity": 94}, {"time": 165371, "pitch": 67, "duration": 1983, "velocity": 102}, {"time": 169186, "pitch": 72, "duration": 94, "velocity": 112}, {"time": 169420, "pitch": 72, "duration": 244, "velocity": 110}, {"time": 169697, "pitch": 69, "duration": 113, "velocity": 108}, {"time": 169926, "pitch": 74, "duration": 1356, "velocity": 108}, {"time": 172055, "pitch": 74, "duration": 105, "velocity": 100}, {"time": 172160, "pitch": 76, "duration": 119, "velocity": 94}, {"time": 172297, "pitch": 72, "duration": 581, "velocity": 102}, {"time": 19922, "pitch": 69, "duration": 62, "velocity": 104}, {"time": 19922, "pitch": 72, "duration": 58, "velocity": 104}, {"time": 19922, "pitch": 76, "duration": 71, "velocity": 102}, {"time": 19922, "pitch": 79, "duration": 71, "velocity": 104}, {"time": 20400, "pitch": 69, "duration": 57, "velocity": 100}, {"time": 20400, "pitch": 72, "duration": 57, "velocity": 104}, {"time": 20400, "pitch": 76, "duration": 67, "velocity": 94}, {"time": 20400, "pitch": 79, "duration": 70, "velocity": 96}, {"time": 20878, "pitch": 69, "duration": 64, "velocity": 102}, {"time": 20878, "pitch": 72, "duration": 60, "velocity": 104}, {"time": 20878, "pitch": 76, "duration": 73, "velocity": 96}, {"time": 20878, "pitch": 79, "duration": 69, "velocity": 94}, {"time": 21360, "pitch": 69, "duration": 68, "velocity": 102}, {"time": 21360, "pitch": 72, "duration": 58, "velocity": 106}, {"time": 21360, "pitch": 76, "duration": 77, "velocity": 98}, {"time": 21360, "pitch": 79, "duration": 81, "velocity": 98}, {"time": 21842, "pitch": 69, "duration": 71, "velocity": 98}, {"time": 21842, "pitch": 72, "duration": 65, "velocity": 102}, {"time": 21842, "pitch": 74, "duration": 63, "velocity": 92}, {"time": 21842, "pitch": 78, "duration": 102, "velocity": 88}, {"time": 22320, "pitch": 69, "duration": 70, "velocity": 94}, {"time": 22320, "pitch": 72, "duration": 70, "velocity": 98}, {"time": 22320, "pitch": 74, "duration": 68, "velocity": 96}, {"time": 22320, "pitch": 78, "duration": 95, "velocity": 90}, {"time": 22798, "pitch": 69, "duration": 67, "velocity": 104}, {"time": 22798, "pitch": 72, "duration": 73, "velocity": 106}, {"time": 22798, "pitch": 74, "duration": 63, "velocity": 94}, {"time": 22798, "pitch": 78, "duration": 100, "velocity": 92}, {"time": 23280, "pitch": 69, "duration": 73, "velocity": 98}, {"time": 23280, "pitch": 72, "duration": 73, "velocity": 106}, {"time": 23280, "pitch": 74, "duration": 69, "velocity": 98}, {"time": 23280, "pitch": 78, "duration": 95, "velocity": 90}, {"time": 23762, "pitch": 69, "duration": 60, "velocity": 102}, {"time": 23762, "pitch": 70, "duration": 78, "velocity": 96}, {"time": 23762, "pitch": 74, "duration": 68, "velocity": 98}, {"time": 23762, "pitch": 77, "duration": 77, "velocity": 82}, {"time": 24240, "pitch": 69, "duration": 62, "velocity": 98}, {"time": 24240, "pitch": 70, "duration": 82, "velocity": 94}, {"time": 24240, "pitch": 74, "duration": 70, "velocity": 94}, {"time": 24240, "pitch": 77, "duration": 91, "velocity": 80}, {"time": 24718, "pitch": 69, "duration": 67, "velocity": 94}, {"time": 24718, "pitch": 70, "duration": 87, "velocity": 90}, {"time": 24718, "pitch": 74, "duration": 73, "velocity": 94}, {"time": 24718, "pitch": 77, "duration": 77, "velocity": 80}, {"time": 25200, "pitch": 69, "duration": 73, "velocity": 98}, {"time": 25200, "pitch": 70, "duration": 96, "velocity": 96}, {"time": 25200, "pitch": 74, "duration": 79, "velocity": 92}, {"time": 25200, "pitch": 77, "duration": 88, "velocity": 80}, {"time": 25682, "pitch": 67, "duration": 68, "velocity": 98}, {"time": 25682, "pitch": 70, "duration": 93, "velocity": 96}, {"time": 25682, "pitch": 72, "duration": 77, "velocity": 102}, {"time": 25682, "pitch": 76, "duration": 92, "velocity": 96}, {"time": 26160, "pitch": 67, "duration": 70, "velocity": 96}, {"time": 26160, "pitch": 70, "duration": 84, "velocity": 96}, {"time": 26160, "pitch": 72, "duration": 70, "velocity": 102}, {"time": 26160, "pitch": 76, "duration": 84, "velocity": 94}, {"time": 26638, "pitch": 67, "duration": 73, "velocity": 98}, {"time": 26638, "pitch": 70, "duration": 79, "velocity": 98}, {"time": 26638, "pitch": 72, "duration": 71, "velocity": 106}, {"time": 26638, "pitch": 76, "duration": 71, "velocity": 96}, {"time": 27120, "pitch": 67, "duration": 67, "velocity": 98}, {"time": 27120, "pitch": 70, "duration": 77, "velocity": 96}, {"time": 27120, "pitch": 72, "duration": 75, "velocity": 104}, {"time": 27120, "pitch": 76, "duration": 84, "velocity": 96}, {"time": 27602, "pitch": 69, "duration": 72, "velocity": 98}, {"time": 27602, "pitch": 72, "duration": 74, "velocity": 106}, {"time": 27602, "pitch": 76, "duration": 99, "velocity": 102}, {"time": 27602, "pitch": 79, "duration": 86, "velocity": 86}, {"time": 28080, "pitch": 69, "duration": 68, "velocity": 96}, {"time": 28080, "pitch": 72, "duration": 66, "velocity": 104}, {"time": 28080, "pitch": 76, "duration": 89, "velocity": 94}, {"time": 28080, "pitch": 79, "duration": 87, "velocity": 92}, {"time": 28558, "pitch": 69, "duration": 69, "velocity": 100}, {"time": 28558, "pitch": 72, "duration": 71, "velocity": 102}, {"time": 28558, "pitch": 76, "duration": 89, "velocity": 92}, {"time": 28558, "pitch": 79, "duration": 89, "velocity": 82}, {"time": 29040, "pitch": 69, "duration": 72, "velocity": 100}, {"time": 29040, "pitch": 72, "duration": 70, "velocity": 104}, {"time": 29040, "pitch": 76, "duration": 81, "velocity": 98}, {"time": 29040, "pitch": 79, "duration": 97, "velocity": 96}, {"time": 29522, "pitch": 69, "duration": 78, "velocity": 98}, {"time": 29522, "pitch": 72, "duration": 85, "velocity": 104}, {"time": 29522, "pitch": 74, "duration": 81, "velocity": 94}, {"time": 29522, "pitch": 78, "duration": 103, "velocity": 88}, {"time": 30000, "pitch": 69, "duration": 84, "velocity": 96}, {"time": 30000, "pitch": 72, "duration": 89, "velocity": 98}, {"time": 30000, "pitch": 74, "duration": 80, "velocity": 96}, {"time": 30000, "pitch": 78, "duration": 118, "velocity": 86}, {"time": 30478, "pitch": 69, "duration": 72, "velocity": 96}, {"time": 30478, "pitch": 72, "duration": 77, "velocity": 98}, {"time": 30478, "pitch": 74, "duration": 62, "velocity": 86}, {"time": 30478, "pitch": 78, "duration": 89, "velocity": 84}, {"time": 30960, "pitch": 69, "duration": 79, "velocity": 98}, {"time": 30960, "pitch": 72, "duration": 74, "velocity": 104}, {"time": 30960, "pitch": 74, "duration": 75, "velocity": 96}, {"time": 30960, "pitch": 78, "duration": 93, "velocity": 86}, {"time": 31442, "pitch": 69, "duration": 72, "velocity": 98}, {"time": 31442, "pitch": 70, "duration": 85, "velocity": 92}, {"time": 31442, "pitch": 74, "duration": 89, "velocity": 90}, {"time": 31442, "pitch": 77, "duration": 89, "velocity": 78}, {"time": 31920, "pitch": 69, "duration": 76, "velocity": 100}, {"time": 31920, "pitch": 70, "duration": 78, "velocity": 92}, {"time": 31920, "pitch": 74, "duration": 78, "velocity": 88}, {"time": 31920, "pitch": 77, "duration": 74, "velocity": 74}, {"time": 32398, "pitch": 69, "duration": 72, "velocity": 98}, {"time": 32398, "pitch": 70, "duration": 78, "velocity": 88}, {"time": 32398, "pitch": 74, "duration": 78, "velocity": 88}, {"time": 32398, "pitch": 77, "duration": 72, "velocity": 71}, {"time": 32880, "pitch": 69, "duration": 72, "velocity": 100}, {"time": 32880, "pitch": 70, "duration": 82, "velocity": 92}, {"time": 32880, "pitch": 74, "duration": 72, "velocity": 86}, {"time": 32880, "pitch": 77, "duration": 88, "velocity": 82}, {"time": 33362, "pitch": 67, "duration": 68, "velocity": 96}, {"time": 33362, "pitch": 70, "duration": 87, "velocity": 98}, {"time": 33362, "pitch": 72, "duration": 68, "velocity": 104}, {"time": 33362, "pitch": 76, "duration": 78, "velocity": 92}, {"time": 33840, "pitch": 67, "duration": 67, "velocity": 98}, {"time": 33840, "pitch": 70, "duration": 76, "velocity": 96}, {"time": 33840, "pitch": 72, "duration": 67, "velocity": 104}, {"time": 33840, "pitch": 76, "duration": 83, "velocity": 94}, {"time": 34318, "pitch": 67, "duration": 75, "velocity": 96}, {"time": 34318, "pitch": 70, "duration": 87, "velocity": 90}, {"time": 34318, "pitch": 72, "duration": 76, "velocity": 98}, {"time": 34318, "pitch": 76, "duration": 91, "velocity": 90}, {"time": 34800, "pitch": 67, "duration": 69, "velocity": 96}, {"time": 34800, "pitch": 70, "duration": 72, "velocity": 88}, {"time": 34800, "pitch": 72, "duration": 72, "velocity": 98}, {"time": 34800, "pitch": 76, "duration": 87, "velocity": 90}, {"time": 35283, "pitch": 69, "duration": 62, "velocity": 104}, {"time": 35283, "pitch": 72, "duration": 58, "velocity": 104}, {"time": 35283, "pitch": 76, "duration": 71, "velocity": 102}, {"time": 35283, "pitch": 79, "duration": 71, "velocity": 104}, {"time": 35760, "pitch": 69, "duration": 58, "velocity": 100}, {"time": 35760, "pitch": 72, "duration": 58, "velocity": 104}, {"time": 35760, "pitch": 76, "duration": 68, "velocity": 94}, {"time": 35760, "pitch": 79, "duration": 71, "velocity": 96}, {"time": 36238, "pitch": 69, "duration": 65, "velocity": 102}, {"time": 36238, "pitch": 72, "duration": 61, "velocity": 104}, {"time": 36238, "pitch": 76, "duration": 74, "velocity": 96}, {"time": 36238, "pitch": 79, "duration": 70, "velocity": 94}, {"time": 36721, "pitch": 69, "duration": 68, "velocity": 102}, {"time": 36721, "pitch": 72, "duration": 58, "velocity": 106}, {"time": 36721, "pitch": 76, "duration": 77, "velocity": 98}, {"time": 36721, "pitch": 79, "duration": 81, "velocity": 98}, {"time": 37203, "pitch": 69, "duration": 71, "velocity": 98}, {"time": 37203, "pitch": 72, "duration": 65, "velocity": 102}, {"time": 37203, "pitch": 74, "duration": 63, "velocity": 92}, {"time": 37203, "pitch": 78, "duration": 102, "velocity": 88}, {"time": 37681, "pitch": 69, "duration": 70, "velocity": 94}, {"time": 37681, "pitch": 72, "duration": 70, "velocity": 98}, {"time": 37681, "pitch": 74, "duration": 68, "velocity": 96}, {"time": 37681, "pitch": 78, "duration": 94, "velocity": 90}, {"time": 38159, "pitch": 69, "duration": 67, "velocity": 104}, {"time": 38159, "pitch": 72, "duration": 73, "velocity": 106}, {"time": 38159, "pitch": 74, "duration": 63, "velocity": 94}, {"time": 38159, "pitch": 78, "duration": 100, "velocity": 92}, {"time": 38641, "pitch": 69, "duration": 73, "velocity": 98}, {"time": 38641, "pitch": 72, "duration": 73, "velocity": 106}, {"time": 38641, "pitch": 74, "duration": 69, "velocity": 98}, {"time": 38641, "pitch": 78, "duration": 95, "velocity": 90}, {"time": 39123, "pitch": 69, "duration": 60, "velocity": 102}, {"time": 39123, "pitch": 70, "duration": 78, "velocity": 96}, {"time": 39123, "pitch": 74, "duration": 68, "velocity": 98}, {"time": 39123, "pitch": 77, "duration": 77, "velocity": 82}, {"time": 39601, "pitch": 69, "duration": 62, "velocity": 98}, {"time": 39601, "pitch": 70, "duration": 82, "velocity": 94}, {"time": 39601, "pitch": 74, "duration": 70, "velocity": 94}, {"time": 39601, "pitch": 77, "duration": 90, "velocity": 80}, {"time": 40079, "pitch": 69, "duration": 67, "velocity": 94}, {"time": 40079, "pitch": 70, "duration": 87, "velocity": 90}, {"time": 40079, "pitch": 74, "duration": 73, "velocity": 94}, {"time": 40079, "pitch": 77, "duration": 77, "velocity": 80}, {"time": 40561, "pitch": 69, "duration": 73, "velocity": 98}, {"time": 40561, "pitch": 70, "duration": 96, "velocity": 96}, {"time": 40561, "pitch": 74, "duration": 79, "velocity": 92}, {"time": 40561, "pitch": 77, "duration": 88, "velocity": 80}, {"time": 41043, "pitch": 67, "duration": 68, "velocity": 98}, {"time": 41043, "pitch": 70, "duration": 92, "velocity": 96}, {"time": 41043, "pitch": 72, "duration": 77, "velocity": 102}, {"time": 41043, "pitch": 76, "duration": 91, "velocity": 96}, {"time": 41521, "pitch": 67, "duration": 70, "velocity": 96}, {"time": 41521, "pitch": 70, "duration": 84, "velocity": 96}, {"time": 41521, "pitch": 72, "duration": 70, "velocity": 102}, {"time": 41521, "pitch": 76, "duration": 84, "velocity": 94}, {"time": 41999, "pitch": 67, "duration": 73, "velocity": 98}, {"time": 41999, "pitch": 70, "duration": 79, "velocity": 98}, {"time": 41999, "pitch": 72, "duration": 71, "velocity": 106}, {"time": 41999, "pitch": 76, "duration": 71, "velocity": 96}, {"time": 42481, "pitch": 67, "duration": 67, "velocity": 98}, {"time": 42481, "pitch": 70, "duration": 77, "velocity": 96}, {"time": 42481, "pitch": 72, "duration": 75, "velocity": 104}, {"time": 42481, "pitch": 76, "duration": 83, "velocity": 96}, {"time": 42963, "pitch": 69, "duration": 71, "velocity": 98}, {"time": 42963, "pitch": 72, "duration": 73, "velocity": 106}, {"time": 42963, "pitch": 76, "duration": 98, "velocity": 102}, {"time": 42963, "pitch": 79, "duration": 85, "velocity": 86}, {"time": 43441, "pitch": 69, "duration": 68, "velocity": 96}, {"time": 43441, "pitch": 72, "duration": 66, "velocity": 104}, {"time": 43441, "pitch": 76, "duration": 89, "velocity": 94}, {"time": 43441, "pitch": 79, "duration": 87, "velocity": 92}, {"time": 43919, "pitch": 69, "duration": 69, "velocity": 100}, {"time": 43919, "pitch": 72, "duration": 71, "velocity": 102}, {"time": 43919, "pitch": 76, "duration": 88, "velocity": 92}, {"time": 43919, "pitch": 79, "duration": 88, "velocity": 82}, {"time": 44401, "pitch": 69, "duration": 71, "velocity": 100}, {"time": 44401, "pitch": 72, "duration": 69, "velocity": 104}, {"time": 44401, "pitch": 76, "duration": 80, "velocity": 98}, {"time": 44401, "pitch": 79, "duration": 96, "velocity": 96}, {"time": 44883, "pitch": 69, "duration": 77, "velocity": 98}, {"time": 44883, "pitch": 72, "duration": 84, "velocity": 104}, {"time": 44883, "pitch": 74, "duration": 80, "velocity": 94}, {"time": 44883, "pitch": 78, "duration": 102, "velocity": 88}, {"time": 45361, "pitch": 69, "duration": 84, "velocity": 96}, {"time": 45361, "pitch": 72, "duration": 89, "velocity": 98}, {"time": 45361, "pitch": 74, "duration": 80, "velocity": 96}, {"time": 45361, "pitch": 78, "duration": 117, "velocity": 86}, {"time": 45839, "pitch": 69, "duration": 71, "velocity": 96}, {"time": 45839, "pitch": 72, "duration": 76, "velocity": 98}, {"time": 45839, "pitch": 74, "duration": 62, "velocity": 86}, {"time": 45839, "pitch": 78, "duration": 88, "velocity": 84}, {"time": 46321, "pitch": 69, "duration": 78, "velocity": 98}, {"time": 46321, "pitch": 72, "duration": 73, "velocity": 104}, {"time": 46321, "pitch": 74, "duration": 74, "velocity": 96}, {"time": 46321, "pitch": 78, "duration": 92, "velocity": 86}, {"time": 46803, "pitch": 69, "duration": 71, "velocity": 98}, {"time": 46803, "pitch": 70, "duration": 84, "velocity": 92}, {"time": 46803, "pitch": 74, "duration": 88, "velocity": 90}, {"time": 46803, "pitch": 77, "duration": 88, "velocity": 78}, {"time": 47281, "pitch": 69, "duration": 76, "velocity": 100}, {"time": 47281, "pitch": 70, "duration": 78, "velocity": 92}, {"time": 47281, "pitch": 74, "duration": 78, "velocity": 88}, {"time": 47281, "pitch": 77, "duration": 74, "velocity": 74}, {"time": 47759, "pitch": 69, "duration": 71, "velocity": 98}, {"time": 47759, "pitch": 70, "duration": 77, "velocity": 88}, {"time": 47759, "pitch": 74, "duration": 77, "velocity": 88}, {"time": 47759, "pitch": 77, "duration": 71, "velocity": 71}, {"time": 48241, "pitch": 69, "duration": 71, "velocity": 100}, {"time": 48241, "pitch": 70, "duration": 81, "velocity": 92}, {"time": 48241, "pitch": 74, "duration": 71, "velocity": 86}, {"time": 48241, "pitch": 77, "duration": 87, "velocity": 82}, {"time": 48719, "pitch": 67, "duration": 66, "velocity": 96}, {"time": 48719, "pitch": 70, "duration": 85, "velocity": 98}, {"time": 48719, "pitch": 72, "duration": 66, "velocity": 104}, {"time": 48719, "pitch": 76, "duration": 76, "velocity": 92}, {"time": 49197, "pitch": 67, "duration": 67, "velocity": 98}, {"time": 49197, "pitch": 70, "duration": 77, "velocity": 96}, {"time": 49197, "pitch": 72, "duration": 67, "velocity": 104}, {"time": 49197, "pitch": 76, "duration": 84, "velocity": 94}, {"time": 49679, "pitch": 67, "duration": 74, "velocity": 96}, {"time": 49679, "pitch": 70, "duration": 86, "velocity": 90}, {"time": 49679, "pitch": 72, "duration": 75, "velocity": 98}, {"time": 49679, "pitch": 76, "duration": 90, "velocity": 90}, {"time": 50161, "pitch": 67, "duration": 68, "velocity": 96}, {"time": 50161, "pitch": 70, "duration": 71, "velocity": 88}, {"time": 50161, "pitch": 72, "duration": 71, "velocity": 98}, {"time": 50161, "pitch": 76, "duration": 86, "velocity": 90}, {"time": 96721, "pitch": 69, "duration": 61, "velocity": 104}, {"time": 96721, "pitch": 72, "duration": 57, "velocity": 104}, {"time": 96721, "pitch": 76, "duration": 70, "velocity": 102}, {"time": 96721, "pitch": 79, "duration": 70, "velocity": 104}, {"time": 97199, "pitch": 69, "duration": 58, "velocity": 100}, {"time": 97199, "pitch": 72, "duration": 58, "velocity": 104}, {"time": 97199, "pitch": 76, "duration": 68, "velocity": 94}, {"time": 97199, "pitch": 79, "duration": 71, "velocity": 96}, {"time": 97681, "pitch": 69, "duration": 64, "velocity": 102}, {"time": 97681, "pitch": 72, "duration": 60, "velocity": 104}, {"time": 97681, "pitch": 76, "duration": 73, "velocity": 96}, {"time": 97681, "pitch": 79, "duration": 69, "velocity": 94}, {"time": 98163, "pitch": 69, "duration": 68, "velocity": 102}, {"time": 98163, "pitch": 72, "duration": 58, "velocity": 106}, {"time": 98163, "pitch": 76, "duration": 77, "velocity": 98}, {"time": 98163, "pitch": 79, "duration": 81, "velocity": 98}, {"time": 98641, "pitch": 69, "duration": 70, "velocity": 98}, {"time": 98641, "pitch": 72, "duration": 64, "velocity": 102}, {"time": 98641, "pitch": 74, "duration": 62, "velocity": 92}, {"time": 98641, "pitch": 78, "duration": 101, "velocity": 88}, {"time": 99119, "pitch": 69, "duration": 71, "velocity": 94}, {"time": 99119, "pitch": 72, "duration": 71, "velocity": 98}, {"time": 99119, "pitch": 74, "duration": 69, "velocity": 96}, {"time": 99119, "pitch": 78, "duration": 96, "velocity": 90}, {"time": 99601, "pitch": 69, "duration": 67, "velocity": 104}, {"time": 99601, "pitch": 72, "duration": 73, "velocity": 106}, {"time": 99601, "pitch": 74, "duration": 63, "velocity": 94}, {"time": 99601, "pitch": 78, "duration": 101, "velocity": 92}, {"time": 100079, "pitch": 69, "duration": 72, "velocity": 98}, {"time": 100079, "pitch": 72, "duration": 72, "velocity": 106}, {"time": 100079, "pitch": 74, "duration": 68, "velocity": 98}, {"time": 100079, "pitch": 78, "duration": 94, "velocity": 90}, {"time": 100557, "pitch": 69, "duration": 60, "velocity": 102}, {"time": 100557, "pitch": 70, "duration": 78, "velocity": 96}, {"time": 100557, "pitch": 74, "duration": 68, "velocity": 98}, {"time": 100557, "pitch": 77, "duration": 77, "velocity": 82}, {"time": 101039, "pitch": 69, "duration": 63, "velocity": 98}, {"time": 101039, "pitch": 70, "duration": 83, "velocity": 94}, {"time": 101039, "pitch": 74, "duration": 71, "velocity": 94}, {"time": 101039, "pitch": 77, "duration": 92, "velocity": 80}, {"time": 101521, "pitch": 69, "duration": 67, "velocity": 94}, {"time": 101521, "pitch": 70, "duration": 88, "velocity": 90}, {"time": 101521, "pitch": 74, "duration": 73, "velocity": 94}, {"time": 101521, "pitch": 77, "duration": 77, "velocity": 80}, {"time": 101999, "pitch": 69, "duration": 72, "velocity": 98}, {"time": 101999, "pitch": 70, "duration": 95, "velocity": 96}, {"time": 101999, "pitch": 74, "duration": 78, "velocity": 92}, {"time": 101999, "pitch": 77, "duration": 87, "velocity": 80}, {"time": 102477, "pitch": 67, "duration": 68, "velocity": 98}, {"time": 102477, "pitch": 70, "duration": 92, "velocity": 96}, {"time": 102477, "pitch": 72, "duration": 77, "velocity": 102}, {"time": 102477, "pitch": 76, "duration": 91, "velocity": 96}, {"time": 102959, "pitch": 67, "duration": 71, "velocity": 96}, {"time": 102959, "pitch": 70, "duration": 86, "velocity": 96}, {"time": 102959, "pitch": 72, "duration": 71, "velocity": 102}, {"time": 102959, "pitch": 76, "duration": 86, "velocity": 94}, {"time": 103441, "pitch": 67, "duration": 74, "velocity": 98}, {"time": 103441, "pitch": 70, "duration": 80, "velocity": 98}, {"time": 103441, "pitch": 72, "duration": 72, "velocity": 106}, {"time": 103441, "pitch": 76, "duration": 72, "velocity": 96}, {"time": 103919, "pitch": 67, "duration": 66, "velocity": 98}, {"time": 103919, "pitch": 70, "duration": 76, "velocity": 96}, {"time": 103919, "pitch": 72, "duration": 74, "velocity": 104}, {"time": 103919, "pitch": 76, "duration": 82, "velocity": 96}, {"time": 104397, "pitch": 69, "duration": 71, "velocity": 98}, {"time": 104397, "pitch": 72, "duration": 73, "velocity": 106}, {"time": 104397, "pitch": 76, "duration": 99, "velocity": 102}, {"time": 104397, "pitch": 79, "duration": 86, "velocity": 86}, {"time": 104879, "pitch": 69, "duration": 70, "velocity": 96}, {"time": 104879, "pitch": 72, "duration": 68, "velocity": 104}, {"time": 104879, "pitch": 76, "duration": 91, "velocity": 94}, {"time": 104879, "pitch": 79, "duration": 89, "velocity": 92}, {"time": 105361, "pitch": 69, "duration": 70, "velocity": 100}, {"time": 105361, "pitch": 72, "duration": 72, "velocity": 102}, {"time": 105361, "pitch": 76, "duration": 89, "velocity": 92}, {"time": 105361, "pitch": 79, "duration": 89, "velocity": 82}, {"time": 105839, "pitch": 69, "duration": 70, "velocity": 100}, {"time": 105839, "pitch": 72, "duration": 68, "velocity": 104}, {"time": 105839, "pitch": 76, "duration": 79, "velocity": 98}, {"time": 105839, "pitch": 79, "duration": 95, "velocity": 96}, {"time": 106317, "pitch": 69, "duration": 78, "velocity": 98}, {"time": 106317, "pitch": 72, "duration": 85, "velocity": 104}, {"time": 106317, "pitch": 74, "duration": 81, "velocity": 94}, {"time": 106317, "pitch": 78, "duration": 103, "velocity": 88}, {"time": 106799, "pitch": 69, "duration": 86, "velocity": 96}, {"time": 106799, "pitch": 72, "duration": 91, "velocity": 98}, {"time": 106799, "pitch": 74, "duration": 82, "velocity": 96}, {"time": 106799, "pitch": 78, "duration": 120, "velocity": 86}, {"time": 107281, "pitch": 69, "duration": 72, "velocity": 96}, {"time": 107281, "pitch": 72, "duration": 77, "velocity": 98}, {"time": 107281, "pitch": 74, "duration": 63, "velocity": 86}, {"time": 107281, "pitch": 78, "duration": 89, "velocity": 84}, {"time": 107759, "pitch": 69, "duration": 77, "velocity": 98}, {"time": 107759, "pitch": 72, "duration": 72, "velocity": 104}, {"time": 107759, "pitch": 74, "duration": 73, "velocity": 96}, {"time": 107759, "pitch": 78, "duration": 91, "velocity": 86}, {"time": 108237, "pitch": 69, "duration": 72, "velocity": 98}, {"time": 108237, "pitch": 70, "duration": 85, "velocity": 92}, {"time": 108237, "pitch": 74, "duration": 89, "velocity": 90}, {"time": 108237, "pitch": 77, "duration": 89, "velocity": 78}, {"time": 108719, "pitch": 69, "duration": 78, "velocity": 100}, {"time": 108719, "pitch": 70, "duration": 80, "velocity": 92}, {"time": 108719, "pitch": 74, "duration": 80, "velocity": 88}, {"time": 108719, "pitch": 77, "duration": 76, "velocity": 74}, {"time": 109201, "pitch": 69, "duration": 72, "velocity": 98}, {"time": 109201, "pitch": 70, "duration": 78, "velocity": 88}, {"time": 109201, "pitch": 74, "duration": 78, "velocity": 88}, {"time": 109201, "pitch": 77, "duration": 72, "velocity": 71}, {"time": 109679, "pitch": 69, "duration": 71, "velocity": 100}, {"time": 109679, "pitch": 70, "duration": 80, "velocity": 92}, {"time": 109679, "pitch": 74, "duration": 71, "velocity": 86}, {"time": 109679, "pitch": 77, "duration": 86, "velocity": 82}, {"time": 110157, "pitch": 67, "duration": 68, "velocity": 96}, {"time": 110157, "pitch": 70, "duration": 87, "velocity": 98}, {"time": 110157, "pitch": 72, "duration": 68, "velocity": 104}, {"time": 110157, "pitch": 76, "duration": 78, "velocity": 92}, {"time": 110639, "pitch": 67, "duration": 68, "velocity": 98}, {"time": 110639, "pitch": 70, "duration": 78, "velocity": 96}, {"time": 110639, "pitch": 72, "duration": 68, "velocity": 104}, {"time": 110639, "pitch": 76, "duration": 85, "velocity": 94}, {"time": 111122, "pitch": 67, "duration": 74, "velocity": 96}, {"time": 111122, "pitch": 70, "duration": 86, "velocity": 90}, {"time": 111122, "pitch": 72, "duration": 75, "velocity": 98}, {"time": 111122, "pitch": 76, "duration": 90, "velocity": 90}, {"time": 111600, "pitch": 67, "duration": 67, "velocity": 96}, {"time": 111600, "pitch": 70, "duration": 70, "velocity": 88}, {"time": 111600, "pitch": 72, "duration": 70, "velocity": 98}, {"time": 111600, "pitch": 76, "duration": 84, "velocity": 90}, {"time": 480, "pitch": 50, "duration": 60, "velocity": 99}, {"time": 540, "pitch": 52, "duration": 61, "velocity": 121}, {"time": 601, "pitch": 55, "duration": 60, "velocity": 111}, {"time": 661, "pitch": 62, "duration": 60, "velocity": 103}, {"time": 721, "pitch": 50, "duration": 60, "velocity": 52}, {"time": 721, "pitch": 64, "duration": 60, "velocity": 119}, {"time": 781, "pitch": 52, "duration": 61, "velocity": 74}, {"time": 781, "pitch": 67, "duration": 61, "velocity": 107}, {"time": 842, "pitch": 55, "duration": 60, "velocity": 64}, {"time": 842, "pitch": 74, "duration": 60, "velocity": 101}, {"time": 902, "pitch": 62, "duration": 60, "velocity": 56}, {"time": 902, "pitch": 76, "duration": 60, "velocity": 119}, {"time": 962, "pitch": 50, "duration": 59, "velocity": 25}, {"time": 962, "pitch": 64, "duration": 59, "velocity": 72}, {"time": 962, "pitch": 79, "duration": 59, "velocity": 123}, {"time": 1021, "pitch": 52, "duration": 60, "velocity": 47}, {"time": 1021, "pitch": 67, "duration": 60, "velocity": 60}, {"time": 1021, "pitch": 86, "duration": 60, "velocity": 107}, {"time": 1081, "pitch": 55, "duration": 59, "velocity": 37}, {"time": 1081, "pitch": 74, "duration": 59, "velocity": 54}, {"time": 1081, "pitch": 88, "duration": 59, "velocity": 88}, {"time": 1140, "pitch": 62, "duration": 59, "velocity": 29}, {"time": 1140, "pitch": 76, "duration": 59, "velocity": 72}, {"time": 1140, "pitch": 91, "duration": 59, "velocity": 103}, {"time": 1199, "pitch": 64, "duration": 59, "velocity": 45}, {"time": 1199, "pitch": 79, "duration": 59, "velocity": 76}, {"time": 1199, "pitch": 98, "duration": 59, "velocity": 101}, {"time": 1258, "pitch": 67, "duration": 60, "velocity": 33}, {"time": 1258, "pitch": 86, "duration": 60, "velocity": 60}, {"time": 1258, "pitch": 100, "duration": 60, "velocity": 91}, {"time": 1318, "pitch": 74, "duration": 59, "velocity": 27}, {"time": 1318, "pitch": 88, "duration": 59, "velocity": 41}, {"time": 1318, "pitch": 103, "duration": 59, "velocity": 101}, {"time": 1377, "pitch": 76, "duration": 59, "velocity": 45}, {"time": 1377, "pitch": 91, "duration": 59, "velocity": 56}, {"time": 1377, "pitch": 100, "duration": 59, "velocity": 97}, {"time": 1436, "pitch": 79, "duration": 60, "velocity": 49}, {"time": 1436, "pitch": 98, "duration": 60, "velocity": 99}, {"time": 1496, "pitch": 86, "duration": 61, "velocity": 33}, {"time": 1496, "pitch": 95, "duration": 61, "velocity": 107}, {"time": 1496, "pitch": 100, "duration": 61, "velocity": 44}, {"time": 1557, "pitch": 88, "duration": 60, "velocity": 14}, {"time": 1557, "pitch": 91, "duration": 60, "velocity": 111}, {"time": 1557, "pitch": 103, "duration": 60, "velocity": 54}, {"time": 1617, "pitch": 88, "duration": 60, "velocity": 115}, {"time": 1617, "pitch": 91, "duration": 60, "velocity": 29}, {"time": 1617, "pitch": 100, "duration": 60, "velocity": 50}, {"time": 1677, "pitch": 86, "duration": 60, "velocity": 103}, {"time": 1677, "pitch": 98, "duration": 60, "velocity": 52}, {"time": 1737, "pitch": 83, "duration": 61, "velocity": 100}, {"time": 1737, "pitch": 95, "duration": 61, "velocity": 60}, {"time": 1737, "pitch": 100, "duration": 61, "velocity": 17}, {"time": 1798, "pitch": 79, "duration": 60, "velocity": 121}, {"time": 1798, "pitch": 91, "duration": 60, "velocity": 64}, {"time": 1798, "pitch": 103, "duration": 60, "velocity": 27}, {"time": 1858, "pitch": 76, "duration": 60, "velocity": 102}, {"time": 1858, "pitch": 88, "duration": 60, "velocity": 68}, {"time": 1858, "pitch": 100, "duration": 60, "velocity": 23}, {"time": 1918, "pitch": 74, "duration": 60, "velocity": 101}, {"time": 1918, "pitch": 86, "duration": 60, "velocity": 56}, {"time": 1918, "pitch": 98, "duration": 60, "velocity": 25}, {"time": 1978, "pitch": 71, "duration": 61, "velocity": 102}, {"time": 1978, "pitch": 83, "duration": 61, "velocity": 53}, {"time": 1978, "pitch": 95, "duration": 61, "velocity": 33}, {"time": 2039, "pitch": 67, "duration": 60, "velocity": 107}, {"time": 2039, "pitch": 79, "duration": 60, "velocity": 74}, {"time": 2039, "pitch": 91, "duration": 60, "velocity": 37}, {"time": 2099, "pitch": 64, "duration": 60, "velocity": 107}, {"time": 2099, "pitch": 76, "duration": 60, "velocity": 55}, {"time": 2099, "pitch": 88, "duration": 60, "velocity": 41}, {"time": 2159, "pitch": 62, "duration": 60, "velocity": 111}, {"time": 2159, "pitch": 74, "duration": 60, "velocity": 54}, {"time": 2159, "pitch": 86, "duration": 60, "velocity": 29}, {"time": 2219, "pitch": 59, "duration": 61, "velocity": 99}, {"time": 2219, "pitch": 71, "duration": 61, "velocity": 55}, {"time": 2219, "pitch": 83, "duration": 61, "velocity": 26}, {"time": 2280, "pitch": 55, "duration": 60, "velocity": 92}, {"time": 2280, "pitch": 67, "duration": 60, "velocity": 60}, {"time": 2280, "pitch": 79, "duration": 60, "velocity": 47}, {"time": 2340, "pitch": 52, "duration": 60, "velocity": 93}, {"time": 2340, "pitch": 64, "duration": 60, "velocity": 60}, {"time": 2340, "pitch": 76, "duration": 60, "velocity": 28}, {"time": 2400, "pitch": 62, "duration": 60, "velocity": 64}, {"time": 2400, "pitch": 74, "duration": 60, "velocity": 27}, {"time": 2460, "pitch": 59, "duration": 61, "velocity": 52}, {"time": 2460, "pitch": 71, "duration": 61, "velocity": 28}, {"time": 2521, "pitch": 55, "duration": 60, "velocity": 45}, {"time": 2521, "pitch": 67, "duration": 60, "velocity": 33}, {"time": 2581, "pitch": 52, "duration": 60, "velocity": 46}, {"time": 2581, "pitch": 64, "duration": 60, "velocity": 33}, {"time": 2641, "pitch": 62, "duration": 60, "velocity": 37}, {"time": 2701, "pitch": 59, "duration": 61, "velocity": 25}, {"time": 2762, "pitch": 55, "duration": 60, "velocity": 18}, {"time": 2822, "pitch": 52, "duration": 60, "velocity": 19}, {"time": 50402, "pitch": 53, "duration": 119, "velocity": 97}, {"time": 50521, "pitch": 57, "duration": 118, "velocity": 97}, {"time": 50639, "pitch": 60, "duration": 119, "velocity": 97}, {"time": 50758, "pitch": 64, "duration": 118, "velocity": 97}, {"time": 50876, "pitch": 53, "duration": 120, "velocity": 62}, {"time": 50996, "pitch": 57, "duration": 121, "velocity": 62}, {"time": 51117, "pitch": 53, "duration": 121, "velocity": 40}, {"time": 51117, "pitch": 60, "duration": 121, "velocity": 62}, {"time": 51238, "pitch": 57, "duration": 120, "velocity": 40}, {"time": 51238, "pitch": 64, "duration": 120, "velocity": 62}, {"time": 51358, "pitch": 60, "duration": 121, "velocity": 40}, {"time": 51479, "pitch": 64, "duration": 120, "velocity": 40}, {"time": 52322, "pitch": 53, "duration": 119, "velocity": 97}, {"time": 52441, "pitch": 56, "duration": 118, "velocity": 97}, {"time": 52559, "pitch": 59, "duration": 119, "velocity": 97}, {"time": 52678, "pitch": 62, "duration": 118, "velocity": 97}, {"time": 52796, "pitch": 53, "duration": 121, "velocity": 62}, {"time": 52917, "pitch": 56, "duration": 120, "velocity": 62}, {"time": 53037, "pitch": 53, "duration": 121, "velocity": 40}, {"time": 53037, "pitch": 59, "duration": 121, "velocity": 62}, {"time": 53158, "pitch": 56, "duration": 120, "velocity": 40}, {"time": 53158, "pitch": 62, "duration": 120, "velocity": 62}, {"time": 53278, "pitch": 59, "duration": 121, "velocity": 40}, {"time": 53399, "pitch": 62, "duration": 120, "velocity": 40}, {"time": 54242, "pitch": 52, "duration": 119, "velocity": 97}, {"time": 54361, "pitch": 55, "duration": 118, "velocity": 97}, {"time": 54479, "pitch": 59, "duration": 119, "velocity": 97}, {"time": 54598, "pitch": 62, "duration": 118, "velocity": 97}, {"time": 54716, "pitch": 52, "duration": 121, "velocity": 62}, {"time": 54837, "pitch": 55, "duration": 120, "velocity": 62}, {"time": 54957, "pitch": 52, "duration": 121, "velocity": 40}, {"time": 54957, "pitch": 59, "duration": 121, "velocity": 62}, {"time": 55078, "pitch": 55, "duration": 120, "velocity": 40}, {"time": 55078, "pitch": 62, "duration": 120, "velocity": 62}, {"time": 55198, "pitch": 59, "duration": 121, "velocity": 40}, {"time": 55319, "pitch": 62, "duration": 120, "velocity": 40}, {"time": 56162, "pitch": 55, "duration": 119, "velocity": 97}, {"time": 56281, "pitch": 58, "duration": 118, "velocity": 97}, {"time": 56399, "pitch": 62, "duration": 119, "velocity": 97}, {"time": 56518, "pitch": 65, "duration": 118, "velocity": 97}, {"time": 56636, "pitch": 55, "duration": 121, "velocity": 62}, {"time": 56757, "pitch": 58, "duration": 120, "velocity": 62}, {"time": 56877, "pitch": 55, "duration": 121, "velocity": 40}, {"time": 56877, "pitch": 62, "duration": 121, "velocity": 62}, {"time": 56998, "pitch": 58, "duration": 120, "velocity": 40}, {"time": 56998, "pitch": 65, "duration": 120, "velocity": 62}, {"time": 57118, "pitch": 62, "duration": 121, "velocity": 40}, {"time": 57239, "pitch": 65, "duration": 120, "velocity": 40}, {"time": 58082, "pitch": 53, "duration": 119, "velocity": 97}, {"time": 58201, "pitch": 57, "duration": 118, "velocity": 97}, {"time": 58319, "pitch": 60, "duration": 119, "velocity": 97}, {"time": 58438, "pitch": 64, "duration": 118, "velocity": 97}, {"time": 58556, "pitch": 53, "duration": 121, "velocity": 62}, {"time": 58677, "pitch": 57, "duration": 120, "velocity": 62}, {"time": 58797, "pitch": 53, "duration": 121, "velocity": 40}, {"time": 58797, "pitch": 60, "duration": 121, "velocity": 62}, {"time": 58918, "pitch": 57, "duration": 120, "velocity": 40}, {"time": 58918, "pitch": 64, "duration": 120, "velocity": 62}, {"time": 59038, "pitch": 60, "duration": 121, "velocity": 40}, {"time": 59159, "pitch": 64, "duration": 120, "velocity": 40}, {"time": 60002, "pitch": 53, "duration": 119, "velocity": 97}, {"time": 60121, "pitch": 56, "duration": 118, "velocity": 97}, {"time": 60239, "pitch": 60, "duration": 119, "velocity": 97}, {"time": 60358, "pitch": 63, "duration": 118, "velocity": 97}, {"time": 60476, "pitch": 53, "duration": 121, "velocity": 62}, {"time": 60597, "pitch": 56, "duration": 120, "velocity": 62}, {"time": 60717, "pitch": 53, "duration": 121, "velocity": 40}, {"time": 60717, "pitch": 60, "duration": 121, "velocity": 62}, {"time": 60838, "pitch": 56, "duration": 120, "velocity": 40}, {"time": 60838, "pitch": 63, "duration": 120, "velocity": 62}, {"time": 60958, "pitch": 60, "duration": 121, "velocity": 40}, {"time": 61079, "pitch": 63, "duration": 120, "velocity": 40}, {"time": 61923, "pitch": 52, "duration": 118, "velocity": 97}, {"time": 62041, "pitch": 55, "duration": 119, "velocity": 97}, {"time": 62160, "pitch": 59, "duration": 118, "velocity": 97}, {"time": 62278, "pitch": 62, "duration": 118, "velocity": 97}, {"time": 62396, "pitch": 52, "duration": 121, "velocity": 62}, {"time": 62517, "pitch": 55, "duration": 120, "velocity": 62}, {"time": 62637, "pitch": 52, "duration": 121, "velocity": 40}, {"time": 62637, "pitch": 59, "duration": 121, "velocity": 62}, {"time": 62758, "pitch": 55, "duration": 121, "velocity": 40}, {"time": 62758, "pitch": 62, "duration": 121, "velocity": 62}, {"time": 62879, "pitch": 59, "duration": 120, "velocity": 40}, {"time": 62999, "pitch": 62, "duration": 121, "velocity": 40}, {"time": 63843, "pitch": 55, "duration": 118, "velocity": 97}, {"time": 63961, "pitch": 58, "duration": 119, "velocity": 97}, {"time": 64080, "pitch": 62, "duration": 118, "velocity": 97}, {"time": 64198, "pitch": 65, "duration": 119, "velocity": 97}, {"time": 64317, "pitch": 55, "duration": 120, "velocity": 62}, {"time": 64437, "pitch": 58, "duration": 121, "velocity": 62}, {"time": 64558, "pitch": 55, "duration": 120, "velocity": 40}, {"time": 64558, "pitch": 62, "duration": 120, "velocity": 62}, {"time": 64678, "pitch": 58, "duration": 121, "velocity": 40}, {"time": 64678, "pitch": 65, "duration": 121, "velocity": 62}, {"time": 64799, "pitch": 62, "duration": 120, "velocity": 40}, {"time": 64919, "pitch": 65, "duration": 121, "velocity": 40}, {"time": 111836, "pitch": 53, "duration": 121, "velocity": 97}, {"time": 111957, "pitch": 57, "duration": 120, "velocity": 97}, {"time": 112077, "pitch": 60, "duration": 121, "velocity": 97}, {"time": 112198, "pitch": 64, "duration": 121, "velocity": 97}, {"time": 112319, "pitch": 53, "duration": 120, "velocity": 62}, {"time": 112439, "pitch": 57, "duration": 121, "velocity": 62}, {"time": 112560, "pitch": 53, "duration": 120, "velocity": 40}, {"time": 112560, "pitch": 60, "duration": 120, "velocity": 62}, {"time": 112680, "pitch": 57, "duration": 121, "velocity": 40}, {"time": 112680, "pitch": 64, "duration": 121, "velocity": 62}, {"time": 112801, "pitch": 60, "duration": 120, "velocity": 40}, {"time": 112921, "pitch": 64, "duration": 121, "velocity": 40}, {"time": 113757, "pitch": 53, "duration": 120, "velocity": 97}, {"time": 113877, "pitch": 56, "duration": 121, "velocity": 97}, {"time": 113998, "pitch": 59, "duration": 120, "velocity": 97}, {"time": 114118, "pitch": 62, "duration": 121, "velocity": 97}, {"time": 114239, "pitch": 53, "duration": 120, "velocity": 62}, {"time": 114359, "pitch": 56, "duration": 121, "velocity": 62}, {"time": 114480, "pitch": 53, "duration": 120, "velocity": 40}, {"time": 114480, "pitch": 59, "duration": 120, "velocity": 62}, {"time": 114600, "pitch": 56, "duration": 121, "velocity": 40}, {"time": 114600, "pitch": 62, "duration": 121, "velocity": 62}, {"time": 114721, "pitch": 59, "duration": 120, "velocity": 40}, {"time": 114841, "pitch": 62, "duration": 121, "velocity": 40}, {"time": 115677, "pitch": 52, "duration": 120, "velocity": 97}, {"time": 115797, "pitch": 55, "duration": 121, "velocity": 97}, {"time": 115918, "pitch": 59, "duration": 120, "velocity": 97}, {"time": 116038, "pitch": 62, "duration": 121, "velocity": 97}, {"time": 116159, "pitch": 52, "duration": 120, "velocity": 62}, {"time": 116279, "pitch": 55, "duration": 121, "velocity": 62}, {"time": 116400, "pitch": 52, "duration": 120, "velocity": 40}, {"time": 116400, "pitch": 59, "duration": 120, "velocity": 62}, {"time": 116520, "pitch": 55, "duration": 121, "velocity": 40}, {"time": 116520, "pitch": 62, "duration": 121, "velocity": 62}, {"time": 116641, "pitch": 59, "duration": 120, "velocity": 40}, {"time": 116761, "pitch": 62, "duration": 121, "velocity": 40}, {"time": 117597, "pitch": 55, "duration": 120, "velocity": 97}, {"time": 117717, "pitch": 58, "duration": 121, "velocity": 97}, {"time": 117838, "pitch": 62, "duration": 120, "velocity": 97}, {"time": 117958, "pitch": 65, "duration": 121, "velocity": 97}, {"time": 118079, "pitch": 55, "duration": 120, "velocity": 62}, {"time": 118199, "pitch": 58, "duration": 121, "velocity": 62}, {"time": 118320, "pitch": 55, "duration": 120, "velocity": 40}, {"time": 118320, "pitch": 62, "duration": 120, "velocity": 62}, {"time": 118440, "pitch": 58, "duration": 121, "velocity": 40}, {"time": 118440, "pitch": 65, "duration": 121, "velocity": 62}, {"time": 118561, "pitch": 62, "duration": 120, "velocity": 40}, {"time": 118681, "pitch": 65, "duration": 121, "velocity": 40}, {"time": 119517, "pitch": 53, "duration": 120, "velocity": 97}, {"time": 119637, "pitch": 57, "duration": 121, "velocity": 97}, {"time": 119758, "pitch": 60, "duration": 120, "velocity": 97}, {"time": 119878, "pitch": 64, "duration": 121, "velocity": 97}, {"time": 119999, "pitch": 53, "duration": 120, "velocity": 62}, {"time": 120119, "pitch": 57, "duration": 121, "velocity": 62}, {"time": 120240, "pitch": 53, "duration": 120, "velocity": 40}, {"time": 120240, "pitch": 60, "duration": 120, "velocity": 62}, {"time": 120360, "pitch": 57, "duration": 121, "velocity": 40}, {"time": 120360, "pitch": 64, "duration": 121, "velocity": 62}, {"time": 120481, "pitch": 60, "duration": 120, "velocity": 40}, {"time": 120601, "pitch": 64, "duration": 121, "velocity": 40}, {"time": 121437, "pitch": 53, "duration": 120, "velocity": 97}, {"time": 121557, "pitch": 56, "duration": 121, "velocity": 97}, {"time": 121678, "pitch": 60, "duration": 120, "velocity": 97}, {"time": 121798, "pitch": 63, "duration": 121, "velocity": 97}, {"time": 121919, "pitch": 53, "duration": 120, "velocity": 62}, {"time": 122039, "pitch": 56, "duration": 121, "velocity": 62}, {"time": 122160, "pitch": 53, "duration": 120, "velocity": 40}, {"time": 122160, "pitch": 60, "duration": 120, "velocity": 62}, {"time": 122280, "pitch": 56, "duration": 121, "velocity": 40}, {"time": 122280, "pitch": 63, "duration": 121, "velocity": 62}, {"time": 122401, "pitch": 60, "duration": 121, "velocity": 40}, {"time": 122522, "pitch": 63, "duration": 120, "velocity": 40}, {"time": 123357, "pitch": 52, "duration": 120, "velocity": 97}, {"time": 123477, "pitch": 55, "duration": 121, "velocity": 97}, {"time": 123598, "pitch": 59, "duration": 120, "velocity": 97}, {"time": 123718, "pitch": 62, "duration": 121, "velocity": 97}, {"time": 123839, "pitch": 52, "duration": 120, "velocity": 62}, {"time": 123959, "pitch": 55, "duration": 121, "velocity": 62}, {"time": 124080, "pitch": 52, "duration": 121, "velocity": 40}, {"time": 124080, "pitch": 59, "duration": 121, "velocity": 62}, {"time": 124201, "pitch": 55, "duration": 120, "velocity": 40}, {"time": 124201, "pitch": 62, "duration": 120, "velocity": 62}, {"time": 124321, "pitch": 59, "duration": 121, "velocity": 40}, {"time": 124442, "pitch": 62, "duration": 120, "velocity": 40}, {"time": 125277, "pitch": 55, "duration": 120, "velocity": 97}, {"time": 125397, "pitch": 58, "duration": 121, "velocity": 97}, {"time": 125518, "pitch": 62, "duration": 121, "velocity": 97}, {"time": 125639, "pitch": 65, "duration": 120, "velocity": 97}, {"time": 125759, "pitch": 55, "duration": 121, "velocity": 62}, {"time": 125880, "pitch": 58, "duration": 120, "velocity": 62}, {"time": 126000, "pitch": 55, "duration": 121, "velocity": 40}, {"time": 126000, "pitch": 62, "duration": 121, "velocity": 62}, {"time": 126121, "pitch": 58, "duration": 120, "velocity": 40}, {"time": 126121, "pitch": 65, "duration": 120, "velocity": 62}, {"time": 126241, "pitch": 62, "duration": 121, "velocity": 40}, {"time": 126362, "pitch": 65, "duration": 120, "velocity": 40}, {"time": 4320, "pitch": 35, "duration": 1438, "velocity": 100}, {"time": 8160, "pitch": 35, "duration": 1438, "velocity": 100}, {"time": 12001, "pitch": 35, "duration": 1438, "velocity": 100}, {"time": 15841, "pitch": 35, "duration": 1486, "velocity": 100}, {"time": 21601, "pitch": 35, "duration": 1438, "velocity": 100}, {"time": 25441, "pitch": 35, "duration": 1438, "velocity": 100}, {"time": 29281, "pitch": 35, "duration": 1438, "velocity": 100}, {"time": 33121, "pitch": 35, "duration": 1438, "velocity": 100}, {"time": 36962, "pitch": 35, "duration": 1438, "velocity": 100}, {"time": 40802, "pitch": 35, "duration": 1438, "velocity": 100}, {"time": 44642, "pitch": 35, "duration": 1438, "velocity": 100}, {"time": 48482, "pitch": 35, "duration": 1438, "velocity": 100}, {"time": 98404, "pitch": 35, "duration": 1438, "velocity": 100}, {"time": 102236, "pitch": 35, "duration": 1446, "velocity": 100}, {"time": 106076, "pitch": 35, "duration": 1446, "velocity": 100}, {"time": 109916, "pitch": 35, "duration": 1447, "velocity": 100}, {"time": 480, "pitch": 107, "duration": 3840, "velocity": 127}, {"time": 2400, "pitch": 36, "duration": 93, "velocity": 127}, {"time": 2400, "pitch": 49, "duration": 91, "velocity": 107}, {"time": 2400, "pitch": 57, "duration": 101, "velocity": 107}, {"time": 2882, "pitch": 36, "duration": 95, "velocity": 127}, {"time": 2882, "pitch": 49, "duration": 105, "velocity": 107}, {"time": 2882, "pitch": 57, "duration": 101, "velocity": 107}, {"time": 3356, "pitch": 36, "duration": 92, "velocity": 127}, {"time": 3356, "pitch": 49, "duration": 90, "velocity": 107}, {"time": 3356, "pitch": 57, "duration": 92, "velocity": 107}, {"time": 3838, "pitch": 36, "duration": 79, "velocity": 127}, {"time": 3838, "pitch": 49, "duration": 86, "velocity": 107}, {"time": 3838, "pitch": 57, "duration": 93, "velocity": 107}, {"time": 4320, "pitch": 36, "duration": 84, "velocity": 127}, {"time": 4320, "pitch": 49, "duration": 72, "velocity": 107}, {"time": 4320, "pitch": 54, "duration": 73, "velocity": 127}, {"time": 4320, "pitch": 57, "duration": 87, "velocity": 107}, {"time": 4561, "pitch": 54, "duration": 67, "velocity": 127}, {"time": 4722, "pitch": 54, "duration": 66, "velocity": 127}, {"time": 4802, "pitch": 54, "duration": 67, "velocity": 112}, {"time": 5039, "pitch": 54, "duration": 61, "velocity": 127}, {"time": 5197, "pitch": 54, "duration": 51, "velocity": 112}, {"time": 5276, "pitch": 54, "duration": 66, "velocity": 127}, {"time": 5517, "pitch": 54, "duration": 62, "velocity": 127}, {"time": 5678, "pitch": 54, "duration": 61, "velocity": 127}, {"time": 5758, "pitch": 54, "duration": 77, "velocity": 127}, {"time": 5999, "pitch": 54, "duration": 56, "velocity": 127}, {"time": 6160, "pitch": 54, "duration": 68, "velocity": 127}, {"time": 6240, "pitch": 54, "duration": 73, "velocity": 127}, {"time": 6481, "pitch": 54, "duration": 67, "velocity": 127}, {"time": 6642, "pitch": 54, "duration": 66, "velocity": 127}, {"time": 6722, "pitch": 54, "duration": 68, "velocity": 112}, {"time": 6959, "pitch": 54, "duration": 62, "velocity": 127}, {"time": 7117, "pitch": 54, "duration": 51, "velocity": 112}, {"time": 7196, "pitch": 54, "duration": 67, "velocity": 127}, {"time": 7437, "pitch": 54, "duration": 63, "velocity": 127}, {"time": 7598, "pitch": 54, "duration": 61, "velocity": 127}, {"time": 7678, "pitch": 54, "duration": 77, "velocity": 127}, {"time": 7919, "pitch": 54, "duration": 56, "velocity": 127}, {"time": 8080, "pitch": 54, "duration": 68, "velocity": 127}, {"time": 8160, "pitch": 36, "duration": 62, "velocity": 127}, {"time": 8160, "pitch": 49, "duration": 82, "velocity": 107}, {"time": 8160, "pitch": 54, "duration": 73, "velocity": 127}, {"time": 8160, "pitch": 57, "duration": 65, "velocity": 107}, {"time": 8401, "pitch": 54, "duration": 67, "velocity": 127}, {"time": 8562, "pitch": 54, "duration": 66, "velocity": 127}, {"time": 8642, "pitch": 54, "duration": 68, "velocity": 112}, {"time": 8879, "pitch": 54, "duration": 62, "velocity": 127}, {"time": 9037, "pitch": 54, "duration": 51, "velocity": 112}, {"time": 9116, "pitch": 54, "duration": 67, "velocity": 127}, {"time": 9357, "pitch": 54, "duration": 63, "velocity": 127}, {"time": 9518, "pitch": 54, "duration": 61, "velocity": 127}, {"time": 9598, "pitch": 54, "duration": 77, "velocity": 127}, {"time": 9839, "pitch": 54, "duration": 56, "velocity": 127}, {"time": 10000, "pitch": 54, "duration": 68, "velocity": 127}, {"time": 10080, "pitch": 54, "duration": 73, "velocity": 127}, {"time": 10322, "pitch": 54, "duration": 66, "velocity": 127}, {"time": 10482, "pitch": 54, "duration": 67, "velocity": 127}, {"time": 10563, "pitch": 54, "duration": 67, "velocity": 112}, {"time": 10799, "pitch": 54, "duration": 62, "velocity": 127}, {"time": 10957, "pitch": 54, "duration": 51, "velocity": 112}, {"time": 11036, "pitch": 54, "duration": 67, "velocity": 127}, {"time": 11277, "pitch": 36, "duration": 85, "velocity": 127}, {"time": 11277, "pitch": 49, "duration": 82, "velocity": 107}, {"time": 11277, "pitch": 54, "duration": 63, "velocity": 127}, {"time": 11277, "pitch": 57, "duration": 89, "velocity": 107}, {"time": 11438, "pitch": 54, "duration": 61, "velocity": 127}, {"time": 11518, "pitch": 54, "duration": 77, "velocity": 127}, {"time": 11760, "pitch": 36, "duration": 79, "velocity": 127}, {"time": 11760, "pitch": 49, "duration": 79, "velocity": 107}, {"time": 11760, "pitch": 54, "duration": 55, "velocity": 127}, {"time": 11760, "pitch": 57, "duration": 83, "velocity": 107}, {"time": 11920, "pitch": 54, "duration": 69, "velocity": 127}, {"time": 12001, "pitch": 36, "duration": 66, "velocity": 127}, {"time": 12001, "pitch": 49, "duration": 79, "velocity": 107}, {"time": 12001, "pitch": 54, "duration": 72, "velocity": 127}, {"time": 12001, "pitch": 57, "duration": 75, "velocity": 107}, {"time": 12242, "pitch": 54, "duration": 66, "velocity": 127}, {"time": 12402, "pitch": 54, "duration": 67, "velocity": 127}, {"time": 12483, "pitch": 54, "duration": 67, "velocity": 112}, {"time": 12720, "pitch": 54, "duration": 61, "velocity": 127}, {"time": 12878, "pitch": 54, "duration": 50, "velocity": 112}, {"time": 12957, "pitch": 54, "duration": 66, "velocity": 127}, {"time": 13198, "pitch": 54, "duration": 62, "velocity": 127}, {"time": 13358, "pitch": 54, "duration": 61, "velocity": 127}, {"time": 13439, "pitch": 54, "duration": 76, "velocity": 127}, {"time": 13680, "pitch": 54, "duration": 55, "velocity": 127}, {"time": 13840, "pitch": 54, "duration": 69, "velocity": 127}, {"time": 13921, "pitch": 54, "duration": 72, "velocity": 127}, {"time": 14162, "pitch": 54, "duration": 66, "velocity": 127}, {"time": 14322, "pitch": 54, "duration": 67, "velocity": 127}, {"time": 14403, "pitch": 54, "duration": 67, "velocity": 112}, {"time": 14640, "pitch": 54, "duration": 61, "velocity": 127}, {"time": 14798, "pitch": 54, "duration": 50, "velocity": 112}, {"time": 14877, "pitch": 54, "duration": 66, "velocity": 127}, {"time": 15118, "pitch": 54, "duration": 62, "velocity": 127}, {"time": 15278, "pitch": 54, "duration": 62, "velocity": 127}, {"time": 15359, "pitch": 54, "duration": 76, "velocity": 127}, {"time": 15600, "pitch": 54, "duration": 55, "velocity": 127}, {"time": 15760, "pitch": 54, "duration": 69, "velocity": 127}, {"time": 15841, "pitch": 36, "duration": 54, "velocity": 127}, {"time": 15841, "pitch": 49, "duration": 75, "velocity": 107}, {"time": 15841, "pitch": 54, "duration": 72, "velocity": 127}, {"time": 15841, "pitch": 57, "duration": 55, "velocity": 107}, {"time": 16082, "pitch": 54, "duration": 66, "velocity": 127}, {"time": 16242, "pitch": 54, "duration": 67, "velocity": 127}, {"time": 16323, "pitch": 54, "duration": 67, "velocity": 112}, {"time": 16560, "pitch": 54, "duration": 61, "velocity": 127}, {"time": 16718, "pitch": 54, "duration": 50, "velocity": 112}, {"time": 16797, "pitch": 54, "duration": 66, "velocity": 127}, {"time": 17038, "pitch": 54, "duration": 62, "velocity": 127}, {"time": 17198, "pitch": 54, "duration": 62, "velocity": 127}, {"time": 17279, "pitch": 54, "duration": 76, "velocity": 127}, {"time": 17520, "pitch": 54, "duration": 55, "velocity": 127}, {"time": 17680, "pitch": 54, "duration": 69, "velocity": 127}, {"time": 17761, "pitch": 36, "duration": 92, "velocity": 127}, {"time": 17761, "pitch": 49, "duration": 90, "velocity": 107}, {"time": 17761, "pitch": 54, "duration": 72, "velocity": 127}, {"time": 17761, "pitch": 57, "duration": 100, "velocity": 107}, {"time": 18002, "pitch": 54, "duration": 66, "velocity": 127}, {"time": 18163, "pitch": 54, "duration": 66, "velocity": 127}, {"time": 18243, "pitch": 36, "duration": 95, "velocity": 127}, {"time": 18243, "pitch": 49, "duration": 104, "velocity": 107}, {"time": 18243, "pitch": 54, "duration": 67, "velocity": 112}, {"time": 18243, "pitch": 57, "duration": 101, "velocity": 107}, {"time": 18480, "pitch": 54, "duration": 61, "velocity": 127}, {"time": 18638, "pitch": 54, "duration": 50, "velocity": 112}, {"time": 18717, "pitch": 36, "duration": 92, "velocity": 127}, {"time": 18717, "pitch": 49, "duration": 90, "velocity": 107}, {"time": 18717, "pitch": 54, "duration": 66, "velocity": 127}, {"time": 18717, "pitch": 57, "duration": 92, "velocity": 107}, {"time": 18958, "pitch": 54, "duration": 62, "velocity": 127}, {"time": 19118, "pitch": 54, "duration": 62, "velocity": 127}, {"time": 19199, "pitch": 36, "duration": 79, "velocity": 127}, {"time": 19199, "pitch": 49, "duration": 85, "velocity": 107}, {"time": 19199, "pitch": 54, "duration": 76, "velocity": 127}, {"time": 19199, "pitch": 57, "duration": 92, "velocity": 107}, {"time": 19440, "pitch": 54, "duration": 55, "velocity": 127}, {"time": 19601, "pitch": 54, "duration": 68, "velocity": 127}, {"time": 19681, "pitch": 36, "duration": 120, "velocity": 127}, {"time": 19681, "pitch": 49, "duration": 76, "velocity": 107}, {"time": 19681, "pitch": 54, "duration": 72, "velocity": 127}, {"time": 19681, "pitch": 57, "duration": 60, "velocity": 107}, {"time": 19922, "pitch": 46, "duration": 103, "velocity": 80}, {"time": 19922, "pitch": 54, "duration": 66, "velocity": 127}, {"time": 20083, "pitch": 54, "duration": 66, "velocity": 127}, {"time": 20163, "pitch": 38, "duration": 118, "velocity": 127}, {"time": 20163, "pitch": 42, "duration": 169, "velocity": 74}, {"time": 20163, "pitch": 54, "duration": 67, "velocity": 112}, {"time": 20400, "pitch": 46, "duration": 112, "velocity": 82}, {"time": 20400, "pitch": 54, "duration": 61, "velocity": 127}, {"time": 20558, "pitch": 54, "duration": 50, "velocity": 112}, {"time": 20637, "pitch": 42, "duration": 123, "velocity": 80}, {"time": 20637, "pitch": 54, "duration": 66, "velocity": 127}, {"time": 20878, "pitch": 36, "duration": 120, "velocity": 127}, {"time": 20878, "pitch": 46, "duration": 103, "velocity": 80}, {"time": 20878, "pitch": 54, "duration": 62, "velocity": 127}, {"time": 21039, "pitch": 54, "duration": 61, "velocity": 127}, {"time": 21119, "pitch": 38, "duration": 120, "velocity": 127}, {"time": 21119, "pitch": 42, "duration": 146, "velocity": 86}, {"time": 21119, "pitch": 54, "duration": 76, "velocity": 127}, {"time": 21360, "pitch": 46, "duration": 117, "velocity": 80}, {"time": 21360, "pitch": 54, "duration": 55, "velocity": 127}, {"time": 21521, "pitch": 54, "duration": 68, "velocity": 127}, {"time": 21601, "pitch": 36, "duration": 120, "velocity": 127}, {"time": 21601, "pitch": 54, "duration": 72, "velocity": 127}, {"time": 21842, "pitch": 46, "duration": 103, "velocity": 80}, {"time": 21842, "pitch": 54, "duration": 66, "velocity": 127}, {"time": 22003, "pitch": 54, "duration": 66, "velocity": 127}, {"time": 22083, "pitch": 38, "duration": 118, "velocity": 127}, {"time": 22083, "pitch": 42, "duration": 169, "velocity": 74}, {"time": 22083, "pitch": 54, "duration": 67, "velocity": 112}, {"time": 22320, "pitch": 46, "duration": 113, "velocity": 82}, {"time": 22320, "pitch": 54, "duration": 61, "velocity": 127}, {"time": 22478, "pitch": 54, "duration": 50, "velocity": 112}, {"time": 22557, "pitch": 42, "duration": 123, "velocity": 80}, {"time": 22557, "pitch": 54, "duration": 66, "velocity": 127}, {"time": 22798, "pitch": 36, "duration": 120, "velocity": 127}, {"time": 22798, "pitch": 46, "duration": 103, "velocity": 80}, {"time": 22798, "pitch": 54, "duration": 62, "velocity": 127}, {"time": 22959, "pitch": 54, "duration": 61, "velocity": 127}, {"time": 23039, "pitch": 38, "duration": 120, "velocity": 127}, {"time": 23039, "pitch": 42, "duration": 147, "velocity": 86}, {"time": 23039, "pitch": 54, "duration": 76, "velocity": 127}, {"time": 23280, "pitch": 46, "duration": 117, "velocity": 80}, {"time": 23280, "pitch": 54, "duration": 55, "velocity": 127}, {"time": 23401, "pitch": 36, "duration": 120, "velocity": 127}, {"time": 23441, "pitch": 54, "duration": 68, "velocity": 127}, {"time": 23521, "pitch": 36, "duration": 121, "velocity": 127}, {"time": 23521, "pitch": 54, "duration": 72, "velocity": 127}, {"time": 23762, "pitch": 46, "duration": 104, "velocity": 80}, {"time": 23762, "pitch": 54, "duration": 66, "velocity": 127}, {"time": 23923, "pitch": 54, "duration": 66, "velocity": 127}, {"time": 24003, "pitch": 38, "duration": 119, "velocity": 127}, {"time": 24003, "pitch": 42, "duration": 169, "velocity": 74}, {"time": 24003, "pitch": 54, "duration": 67, "velocity": 112}, {"time": 24240, "pitch": 46, "duration": 113, "velocity": 82}, {"time": 24240, "pitch": 54, "duration": 61, "velocity": 127}, {"time": 24398, "pitch": 54, "duration": 50, "velocity": 112}, {"time": 24477, "pitch": 42, "duration": 123, "velocity": 80}, {"time": 24477, "pitch": 54, "duration": 66, "velocity": 127}, {"time": 24718, "pitch": 36, "duration": 121, "velocity": 127}, {"time": 24718, "pitch": 46, "duration": 103, "velocity": 80}, {"time": 24718, "pitch": 54, "duration": 62, "velocity": 127}, {"time": 24879, "pitch": 54, "duration": 61, "velocity": 127}, {"time": 24959, "pitch": 38, "duration": 121, "velocity": 127}, {"time": 24959, "pitch": 42, "duration": 147, "velocity": 86}, {"time": 24959, "pitch": 54, "duration": 76, "velocity": 127}, {"time": 25200, "pitch": 46, "duration": 118, "velocity": 80}, {"time": 25200, "pitch": 54, "duration": 55, "velocity": 127}, {"time": 25361, "pitch": 54, "duration": 68, "velocity": 127}, {"time": 25441, "pitch": 36, "duration": 121, "velocity": 127}, {"time": 25441, "pitch": 54, "duration": 72, "velocity": 127}, {"time": 25682, "pitch": 46, "duration": 104, "velocity": 80}, {"time": 25682, "pitch": 54, "duration": 66, "velocity": 127}, {"time": 25843, "pitch": 54, "duration": 66, "velocity": 127}, {"time": 25923, "pitch": 38, "duration": 119, "velocity": 127}, {"time": 25923, "pitch": 42, "duration": 169, "velocity": 74}, {"time": 25923, "pitch": 54, "duration": 67, "velocity": 112}, {"time": 26160, "pitch": 46, "duration": 113, "velocity": 82}, {"time": 26160, "pitch": 54, "duration": 61, "velocity": 127}, {"time": 26318, "pitch": 54, "duration": 50, "velocity": 112}, {"time": 26397, "pitch": 42, "duration": 124, "velocity": 80}, {"time": 26397, "pitch": 54, "duration": 66, "velocity": 127}, {"time": 26638, "pitch": 36, "duration": 121, "velocity": 127}, {"time": 26638, "pitch": 46, "duration": 104, "velocity": 80}, {"time": 26638, "pitch": 54, "duration": 62, "velocity": 127}, {"time": 26799, "pitch": 54, "duration": 61, "velocity": 127}, {"time": 26879, "pitch": 38, "duration": 121, "velocity": 127}, {"time": 26879, "pitch": 42, "duration": 147, "velocity": 86}, {"time": 26879, "pitch": 54, "duration": 76, "velocity": 127}, {"time": 27120, "pitch": 46, "duration": 118, "velocity": 80}, {"time": 27120, "pitch": 54, "duration": 55, "velocity": 127}, {"time": 27281, "pitch": 54, "duration": 68, "velocity": 127}, {"time": 27361, "pitch": 36, "duration": 121, "velocity": 127}, {"time": 27361, "pitch": 54, "duration": 73, "velocity": 127}, {"time": 27602, "pitch": 46, "duration": 104, "velocity": 80}, {"time": 27602, "pitch": 54, "duration": 67, "velocity": 127}, {"time": 27763, "pitch": 54, "duration": 66, "velocity": 127}, {"time": 27843, "pitch": 38, "duration": 119, "velocity": 127}, {"time": 27843, "pitch": 42, "duration": 169, "velocity": 74}, {"time": 27843, "pitch": 54, "duration": 67, "velocity": 112}, {"time": 28080, "pitch": 46, "duration": 113, "velocity": 82}, {"time": 28080, "pitch": 54, "duration": 61, "velocity": 127}, {"time": 28238, "pitch": 54, "duration": 51, "velocity": 112}, {"time": 28317, "pitch": 42, "duration": 124, "velocity": 80}, {"time": 28317, "pitch": 54, "duration": 66, "velocity": 127}, {"time": 28558, "pitch": 36, "duration": 121, "velocity": 127}, {"time": 28558, "pitch": 46, "duration": 104, "velocity": 80}, {"time": 28558, "pitch": 54, "duration": 62, "velocity": 127}, {"time": 28719, "pitch": 54, "duration": 61, "velocity": 127}, {"time": 28799, "pitch": 38, "duration": 121, "velocity": 127}, {"time": 28799, "pitch": 42, "duration": 147, "velocity": 86}, {"time": 28799, "pitch": 54, "duration": 77, "velocity": 127}, {"time": 29040, "pitch": 46, "duration": 118, "velocity": 80}, {"time": 29040, "pitch": 54, "duration": 55, "velocity": 127}, {"time": 29201, "pitch": 54, "duration": 68, "velocity": 127}, {"time": 29281, "pitch": 36, "duration": 121, "velocity": 127}, {"time": 29281, "pitch": 54, "duration": 73, "velocity": 127}, {"time": 29522, "pitch": 46, "duration": 104, "velocity": 80}, {"time": 29522, "pitch": 54, "duration": 67, "velocity": 127}, {"time": 29683, "pitch": 54, "duration": 66, "velocity": 127}, {"time": 29763, "pitch": 38, "duration": 119, "velocity": 127}, {"time": 29763, "pitch": 42, "duration": 169, "velocity": 74}, {"time": 29763, "pitch": 54, "duration": 67, "velocity": 112}, {"time": 30000, "pitch": 46, "duration": 113, "velocity": 82}, {"time": 30000, "pitch": 54, "duration": 61, "velocity": 127}, {"time": 30158, "pitch": 54, "duration": 51, "velocity": 112}, {"time": 30237, "pitch": 42, "duration": 124, "velocity": 80}, {"time": 30237, "pitch": 54, "duration": 66, "velocity": 127}, {"time": 30478, "pitch": 36, "duration": 121, "velocity": 127}, {"time": 30478, "pitch": 46, "duration": 104, "velocity": 80}, {"time": 30478, "pitch": 54, "duration": 62, "velocity": 127}, {"time": 30599, "pitch": 36, "duration": 120, "velocity": 127}, {"time": 30639, "pitch": 54, "duration": 61, "velocity": 127}, {"time": 30719, "pitch": 38, "duration": 121, "velocity": 127}, {"time": 30719, "pitch": 42, "duration": 147, "velocity": 86}, {"time": 30719, "pitch": 54, "duration": 77, "velocity": 127}, {"time": 30960, "pitch": 46, "duration": 118, "velocity": 80}, {"time": 30960, "pitch": 54, "duration": 56, "velocity": 127}, {"time": 31121, "pitch": 54, "duration": 68, "velocity": 127}, {"time": 31201, "pitch": 36, "duration": 121, "velocity": 127}, {"time": 31201, "pitch": 54, "duration": 73, "velocity": 127}, {"time": 31442, "pitch": 46, "duration": 104, "velocity": 80}, {"time": 31442, "pitch": 54, "duration": 67, "velocity": 127}, {"time": 31603, "pitch": 54, "duration": 66, "velocity": 127}, {"time": 31683, "pitch": 38, "duration": 119, "velocity": 127}, {"time": 31683, "pitch": 42, "duration": 169, "velocity": 74}, {"time": 31683, "pitch": 54, "duration": 68, "velocity": 112}, {"time": 31920, "pitch": 46, "duration": 113, "velocity": 82}, {"time": 31920, "pitch": 54, "duration": 62, "velocity": 127}, {"time": 32078, "pitch": 54, "duration": 51, "velocity": 112}, {"time": 32157, "pitch": 42, "duration": 124, "velocity": 80}, {"time": 32157, "pitch": 54, "duration": 67, "velocity": 127}, {"time": 32398, "pitch": 36, "duration": 121, "velocity": 127}, {"time": 32398, "pitch": 46, "duration": 104, "velocity": 80}, {"time": 32398, "pitch": 54, "duration": 63, "velocity": 127}, {"time": 32559, "pitch": 54, "duration": 61, "velocity": 127}, {"time": 32639, "pitch": 38, "duration": 121, "velocity": 127}, {"time": 32639, "pitch": 42, "duration": 147, "velocity": 86}, {"time": 32639, "pitch": 54, "duration": 77, "velocity": 127}, {"time": 32880, "pitch": 46, "duration": 118, "velocity": 80}, {"time": 32880, "pitch": 54, "duration": 56, "velocity": 127}, {"time": 33041, "pitch": 54, "duration": 68, "velocity": 127}, {"time": 33121, "pitch": 36, "duration": 121, "velocity": 127}, {"time": 33121, "pitch": 54, "duration": 73, "velocity": 127}, {"time": 33362, "pitch": 46, "duration": 104, "velocity": 80}, {"time": 33362, "pitch": 54, "duration": 67, "velocity": 127}, {"time": 33523, "pitch": 54, "duration": 66, "velocity": 127}, {"time": 33603, "pitch": 38, "duration": 119, "velocity": 127}, {"time": 33603, "pitch": 42, "duration": 169, "velocity": 74}, {"time": 33603, "pitch": 54, "duration": 68, "velocity": 112}, {"time": 33840, "pitch": 46, "duration": 113, "velocity": 82}, {"time": 33840, "pitch": 54, "duration": 62, "velocity": 127}, {"time": 33998, "pitch": 54, "duration": 51, "velocity": 112}, {"time": 34077, "pitch": 36, "duration": 121, "velocity": 127}, {"time": 34077, "pitch": 42, "duration": 124, "velocity": 80}, {"time": 34077, "pitch": 54, "duration": 67, "velocity": 127}, {"time": 34318, "pitch": 36, "duration": 121, "velocity": 127}, {"time": 34318, "pitch": 46, "duration": 104, "velocity": 80}, {"time": 34318, "pitch": 54, "duration": 63, "velocity": 127}, {"time": 34479, "pitch": 54, "duration": 61, "velocity": 127}, {"time": 34559, "pitch": 38, "duration": 121, "velocity": 127}, {"time": 34559, "pitch": 42, "duration": 147, "velocity": 86}, {"time": 34559, "pitch": 54, "duration": 77, "velocity": 127}, {"time": 34800, "pitch": 46, "duration": 118, "velocity": 80}, {"time": 34800, "pitch": 54, "duration": 56, "velocity": 127}, {"time": 34961, "pitch": 54, "duration": 68, "velocity": 127}, {"time": 35035, "pitch": 54, "duration": 59, "velocity": 127}, {"time": 35042, "pitch": 36, "duration": 120, "velocity": 127}, {"time": 35042, "pitch": 38, "duration": 60, "velocity": 68}, {"time": 35162, "pitch": 38, "duration": 60, "velocity": 54}, {"time": 35283, "pitch": 38, "duration": 60, "velocity": 64}, {"time": 35283, "pitch": 46, "duration": 103, "velocity": 80}, {"time": 35283, "pitch": 54, "duration": 66, "velocity": 112}, {"time": 35403, "pitch": 38, "duration": 60, "velocity": 52}, {"time": 35524, "pitch": 38, "duration": 118, "velocity": 127}, {"time": 35524, "pitch": 40, "duration": 59, "velocity": 118}, {"time": 35524, "pitch": 42, "duration": 168, "velocity": 74}, {"time": 35524, "pitch": 54, "duration": 63, "velocity": 112}, {"time": 35642, "pitch": 38, "duration": 59, "velocity": 54}, {"time": 35760, "pitch": 38, "duration": 60, "velocity": 66}, {"time": 35760, "pitch": 46, "duration": 113, "velocity": 82}, {"time": 35760, "pitch": 54, "duration": 62, "velocity": 112}, {"time": 35879, "pitch": 38, "duration": 59, "velocity": 56}, {"time": 35997, "pitch": 36, "duration": 121, "velocity": 127}, {"time": 35997, "pitch": 38, "duration": 61, "velocity": 66}, {"time": 35997, "pitch": 42, "duration": 124, "velocity": 80}, {"time": 35997, "pitch": 54, "duration": 61, "velocity": 112}, {"time": 36118, "pitch": 38, "duration": 60, "velocity": 40}, {"time": 36178, "pitch": 38, "duration": 60, "velocity": 62}, {"time": 36238, "pitch": 36, "duration": 121, "velocity": 127}, {"time": 36238, "pitch": 38, "duration": 61, "velocity": 58}, {"time": 36238, "pitch": 46, "duration": 104, "velocity": 80}, {"time": 36238, "pitch": 54, "duration": 71, "velocity": 112}, {"time": 36359, "pitch": 38, "duration": 60, "velocity": 66}, {"time": 36480, "pitch": 38, "duration": 120, "velocity": 127}, {"time": 36480, "pitch": 40, "duration": 60, "velocity": 118}, {"time": 36480, "pitch": 42, "duration": 146, "velocity": 86}, {"time": 36480, "pitch": 54, "duration": 66, "velocity": 127}, {"time": 36600, "pitch": 38, "duration": 60, "velocity": 58}, {"time": 36721, "pitch": 38, "duration": 60, "velocity": 62}, {"time": 36721, "pitch": 46, "duration": 117, "velocity": 80}, {"time": 36721, "pitch": 54, "duration": 62, "velocity": 112}, {"time": 36841, "pitch": 38, "duration": 60, "velocity": 70}, {"time": 36962, "pitch": 36, "duration": 120, "velocity": 127}, {"time": 36962, "pitch": 38, "duration": 60, "velocity": 68}, {"time": 36962, "pitch": 54, "duration": 49, "velocity": 112}, {"time": 37082, "pitch": 38, "duration": 60, "velocity": 54}, {"time": 37203, "pitch": 38, "duration": 60, "velocity": 64}, {"time": 37203, "pitch": 46, "duration": 103, "velocity": 80}, {"time": 37203, "pitch": 54, "duration": 48, "velocity": 112}, {"time": 37323, "pitch": 38, "duration": 60, "velocity": 52}, {"time": 37444, "pitch": 38, "duration": 118, "velocity": 127}, {"time": 37444, "pitch": 40, "duration": 59, "velocity": 118}, {"time": 37444, "pitch": 42, "duration": 168, "velocity": 74}, {"time": 37444, "pitch": 54, "duration": 46, "velocity": 127}, {"time": 37562, "pitch": 38, "duration": 59, "velocity": 54}, {"time": 37681, "pitch": 38, "duration": 59, "velocity": 66}, {"time": 37681, "pitch": 46, "duration": 112, "velocity": 82}, {"time": 37681, "pitch": 54, "duration": 62, "velocity": 127}, {"time": 37799, "pitch": 38, "duration": 59, "velocity": 56}, {"time": 37918, "pitch": 36, "duration": 120, "velocity": 127}, {"time": 37918, "pitch": 38, "duration": 60, "velocity": 66}, {"time": 37918, "pitch": 42, "duration": 123, "velocity": 80}, {"time": 37918, "pitch": 54, "duration": 70, "velocity": 112}, {"time": 38038, "pitch": 38, "duration": 60, "velocity": 40}, {"time": 38098, "pitch": 38, "duration": 61, "velocity": 62}, {"time": 38159, "pitch": 36, "duration": 120, "velocity": 127}, {"time": 38159, "pitch": 38, "duration": 60, "velocity": 58}, {"time": 38159, "pitch": 46, "duration": 103, "velocity": 80}, {"time": 38159, "pitch": 54, "duration": 64, "velocity": 127}, {"time": 38279, "pitch": 38, "duration": 60, "velocity": 66}, {"time": 38400, "pitch": 38, "duration": 120, "velocity": 127}, {"time": 38400, "pitch": 40, "duration": 60, "velocity": 118}, {"time": 38400, "pitch": 42, "duration": 146, "velocity": 86}, {"time": 38400, "pitch": 54, "duration": 68, "velocity": 127}, {"time": 38520, "pitch": 38, "duration": 60, "velocity": 58}, {"time": 38641, "pitch": 38, "duration": 60, "velocity": 62}, {"time": 38641, "pitch": 46, "duration": 117, "velocity": 80}, {"time": 38641, "pitch": 54, "duration": 66, "velocity": 127}, {"time": 38761, "pitch": 36, "duration": 121, "velocity": 127}, {"time": 38761, "pitch": 38, "duration": 60, "velocity": 70}, {"time": 38882, "pitch": 36, "duration": 120, "velocity": 127}, {"time": 38882, "pitch": 38, "duration": 60, "velocity": 68}, {"time": 38882, "pitch": 54, "duration": 63, "velocity": 127}, {"time": 39002, "pitch": 38, "duration": 60, "velocity": 54}, {"time": 39123, "pitch": 38, "duration": 60, "velocity": 64}, {"time": 39123, "pitch": 46, "duration": 103, "velocity": 80}, {"time": 39123, "pitch": 54, "duration": 62, "velocity": 127}, {"time": 39243, "pitch": 38, "duration": 60, "velocity": 52}, {"time": 39364, "pitch": 38, "duration": 118, "velocity": 127}, {"time": 39364, "pitch": 40, "duration": 59, "velocity": 118}, {"time": 39364, "pitch": 42, "duration": 169, "velocity": 74}, {"time": 39364, "pitch": 54, "duration": 65, "velocity": 112}, {"time": 39482, "pitch": 38, "duration": 59, "velocity": 54}, {"time": 39601, "pitch": 38, "duration": 59, "velocity": 66}, {"time": 39601, "pitch": 46, "duration": 112, "velocity": 82}, {"time": 39601, "pitch": 54, "duration": 62, "velocity": 112}, {"time": 39719, "pitch": 38, "duration": 59, "velocity": 56}, {"time": 39838, "pitch": 36, "duration": 120, "velocity": 127}, {"time": 39838, "pitch": 38, "duration": 60, "velocity": 66}, {"time": 39838, "pitch": 42, "duration": 123, "velocity": 80}, {"time": 39838, "pitch": 54, "duration": 70, "velocity": 112}, {"time": 39958, "pitch": 38, "duration": 60, "velocity": 40}, {"time": 40018, "pitch": 38, "duration": 61, "velocity": 62}, {"time": 40079, "pitch": 36, "duration": 120, "velocity": 127}, {"time": 40079, "pitch": 38, "duration": 60, "velocity": 58}, {"time": 40079, "pitch": 46, "duration": 103, "velocity": 80}, {"time": 40079, "pitch": 54, "duration": 70, "velocity": 112}, {"time": 40199, "pitch": 38, "duration": 60, "velocity": 66}, {"time": 40320, "pitch": 38, "duration": 120, "velocity": 127}, {"time": 40320, "pitch": 40, "duration": 60, "velocity": 118}, {"time": 40320, "pitch": 42, "duration": 146, "velocity": 86}, {"time": 40320, "pitch": 54, "duration": 77, "velocity": 112}, {"time": 40440, "pitch": 38, "duration": 60, "velocity": 58}, {"time": 40561, "pitch": 38, "duration": 60, "velocity": 62}, {"time": 40561, "pitch": 46, "duration": 117, "velocity": 80}, {"time": 40561, "pitch": 54, "duration": 85, "velocity": 127}, {"time": 40681, "pitch": 38, "duration": 60, "velocity": 70}, {"time": 40802, "pitch": 36, "duration": 120, "velocity": 127}, {"time": 40802, "pitch": 38, "duration": 60, "velocity": 68}, {"time": 40802, "pitch": 54, "duration": 87, "velocity": 116}, {"time": 40922, "pitch": 38, "duration": 61, "velocity": 54}, {"time": 41043, "pitch": 38, "duration": 60, "velocity": 64}, {"time": 41043, "pitch": 46, "duration": 103, "velocity": 80}, {"time": 41043, "pitch": 54, "duration": 74, "velocity": 127}, {"time": 41163, "pitch": 38, "duration": 61, "velocity": 52}, {"time": 41284, "pitch": 38, "duration": 118, "velocity": 127}, {"time": 41284, "pitch": 40, "duration": 59, "velocity": 118}, {"time": 41284, "pitch": 42, "duration": 169, "velocity": 74}, {"time": 41284, "pitch": 54, "duration": 77, "velocity": 127}, {"time": 41402, "pitch": 38, "duration": 59, "velocity": 54}, {"time": 41521, "pitch": 38, "duration": 59, "velocity": 66}, {"time": 41521, "pitch": 46, "duration": 112, "velocity": 82}, {"time": 41521, "pitch": 54, "duration": 73, "velocity": 116}, {"time": 41639, "pitch": 38, "duration": 59, "velocity": 56}, {"time": 41758, "pitch": 38, "duration": 60, "velocity": 66}, {"time": 41758, "pitch": 42, "duration": 123, "velocity": 80}, {"time": 41758, "pitch": 54, "duration": 68, "velocity": 112}, {"time": 41878, "pitch": 38, "duration": 60, "velocity": 40}, {"time": 41938, "pitch": 38, "duration": 61, "velocity": 62}, {"time": 41999, "pitch": 36, "duration": 120, "velocity": 127}, {"time": 41999, "pitch": 38, "duration": 60, "velocity": 58}, {"time": 41999, "pitch": 46, "duration": 103, "velocity": 80}, {"time": 41999, "pitch": 54, "duration": 64, "velocity": 127}, {"time": 42119, "pitch": 38, "duration": 60, "velocity": 66}, {"time": 42240, "pitch": 38, "duration": 120, "velocity": 127}, {"time": 42240, "pitch": 40, "duration": 60, "velocity": 118}, {"time": 42240, "pitch": 42, "duration": 146, "velocity": 86}, {"time": 42240, "pitch": 54, "duration": 62, "velocity": 127}, {"time": 42360, "pitch": 38, "duration": 61, "velocity": 58}, {"time": 42481, "pitch": 38, "duration": 60, "velocity": 62}, {"time": 42481, "pitch": 46, "duration": 117, "velocity": 80}, {"time": 42481, "pitch": 54, "duration": 50, "velocity": 127}, {"time": 42601, "pitch": 38, "duration": 61, "velocity": 70}, {"time": 42722, "pitch": 36, "duration": 120, "velocity": 127}, {"time": 42722, "pitch": 38, "duration": 60, "velocity": 68}, {"time": 42842, "pitch": 38, "duration": 61, "velocity": 54}, {"time": 42963, "pitch": 38, "duration": 60, "velocity": 64}, {"time": 42963, "pitch": 46, "duration": 103, "velocity": 80}, {"time": 42963, "pitch": 54, "duration": 66, "velocity": 112}, {"time": 43083, "pitch": 38, "duration": 61, "velocity": 52}, {"time": 43204, "pitch": 38, "duration": 118, "velocity": 127}, {"time": 43204, "pitch": 40, "duration": 59, "velocity": 118}, {"time": 43204, "pitch": 42, "duration": 169, "velocity": 74}, {"time": 43204, "pitch": 54, "duration": 63, "velocity": 112}, {"time": 43322, "pitch": 38, "duration": 60, "velocity": 54}, {"time": 43441, "pitch": 38, "duration": 59, "velocity": 66}, {"time": 43441, "pitch": 46, "duration": 112, "velocity": 82}, {"time": 43441, "pitch": 54, "duration": 61, "velocity": 112}, {"time": 43559, "pitch": 38, "duration": 60, "velocity": 56}, {"time": 43678, "pitch": 38, "duration": 60, "velocity": 66}, {"time": 43678, "pitch": 42, "duration": 123, "velocity": 80}, {"time": 43678, "pitch": 54, "duration": 60, "velocity": 112}, {"time": 43798, "pitch": 38, "duration": 61, "velocity": 40}, {"time": 43859, "pitch": 38, "duration": 60, "velocity": 62}, {"time": 43919, "pitch": 36, "duration": 120, "velocity": 127}, {"time": 43919, "pitch": 38, "duration": 60, "velocity": 58}, {"time": 43919, "pitch": 46, "duration": 103, "velocity": 80}, {"time": 43919, "pitch": 54, "duration": 70, "velocity": 112}, {"time": 44039, "pitch": 38, "duration": 61, "velocity": 66}, {"time": 44160, "pitch": 38, "duration": 120, "velocity": 127}, {"time": 44160, "pitch": 40, "duration": 60, "velocity": 118}, {"time": 44160, "pitch": 42, "duration": 146, "velocity": 86}, {"time": 44160, "pitch": 54, "duration": 66, "velocity": 127}, {"time": 44280, "pitch": 38, "duration": 61, "velocity": 58}, {"time": 44401, "pitch": 38, "duration": 60, "velocity": 62}, {"time": 44401, "pitch": 46, "duration": 117, "velocity": 80}, {"time": 44401, "pitch": 54, "duration": 62, "velocity": 112}, {"time": 44521, "pitch": 38, "duration": 61, "velocity": 70}, {"time": 44642, "pitch": 36, "duration": 120, "velocity": 127}, {"time": 44642, "pitch": 38, "duration": 60, "velocity": 68}, {"time": 44642, "pitch": 54, "duration": 49, "velocity": 112}, {"time": 44762, "pitch": 38, "duration": 61, "velocity": 54}, {"time": 44883, "pitch": 38, "duration": 60, "velocity": 64}, {"time": 44883, "pitch": 46, "duration": 103, "velocity": 80}, {"time": 44883, "pitch": 54, "duration": 48, "velocity": 112}, {"time": 45003, "pitch": 38, "duration": 61, "velocity": 52}, {"time": 45124, "pitch": 38, "duration": 118, "velocity": 127}, {"time": 45124, "pitch": 40, "duration": 59, "velocity": 118}, {"time": 45124, "pitch": 42, "duration": 169, "velocity": 74}, {"time": 45124, "pitch": 54, "duration": 46, "velocity": 127}, {"time": 45242, "pitch": 38, "duration": 60, "velocity": 54}, {"time": 45361, "pitch": 38, "duration": 59, "velocity": 66}, {"time": 45361, "pitch": 46, "duration": 112, "velocity": 82}, {"time": 45361, "pitch": 54, "duration": 62, "velocity": 127}, {"time": 45479, "pitch": 38, "duration": 60, "velocity": 56}, {"time": 45598, "pitch": 38, "duration": 60, "velocity": 66}, {"time": 45598, "pitch": 42, "duration": 123, "velocity": 80}, {"time": 45598, "pitch": 54, "duration": 70, "velocity": 112}, {"time": 45718, "pitch": 38, "duration": 61, "velocity": 40}, {"time": 45779, "pitch": 38, "duration": 60, "velocity": 62}, {"time": 45839, "pitch": 36, "duration": 120, "velocity": 127}, {"time": 45839, "pitch": 38, "duration": 60, "velocity": 58}, {"time": 45839, "pitch": 46, "duration": 103, "velocity": 80}, {"time": 45839, "pitch": 54, "duration": 64, "velocity": 127}, {"time": 45959, "pitch": 36, "duration": 121, "velocity": 127}, {"time": 45959, "pitch": 38, "duration": 61, "velocity": 66}, {"time": 46080, "pitch": 38, "duration": 120, "velocity": 127}, {"time": 46080, "pitch": 40, "duration": 60, "velocity": 118}, {"time": 46080, "pitch": 42, "duration": 147, "velocity": 86}, {"time": 46080, "pitch": 54, "duration": 68, "velocity": 127}, {"time": 46200, "pitch": 38, "duration": 61, "velocity": 58}, {"time": 46321, "pitch": 38, "duration": 60, "velocity": 62}, {"time": 46321, "pitch": 46, "duration": 117, "velocity": 80}, {"time": 46321, "pitch": 54, "duration": 66, "velocity": 127}, {"time": 46441, "pitch": 38, "duration": 61, "velocity": 70}, {"time": 46562, "pitch": 36, "duration": 121, "velocity": 127}, {"time": 46562, "pitch": 38, "duration": 60, "velocity": 68}, {"time": 46562, "pitch": 54, "duration": 63, "velocity": 127}, {"time": 46683, "pitch": 38, "duration": 60, "velocity": 54}, {"time": 46803, "pitch": 38, "duration": 60, "velocity": 64}, {"time": 46803, "pitch": 46, "duration": 103, "velocity": 80}, {"time": 46803, "pitch": 54, "duration": 62, "velocity": 127}, {"time": 46924, "pitch": 38, "duration": 60, "velocity": 52}, {"time": 47044, "pitch": 38, "duration": 118, "velocity": 127}, {"time": 47044, "pitch": 40, "duration": 59, "velocity": 118}, {"time": 47044, "pitch": 42, "duration": 169, "velocity": 74}, {"time": 47044, "pitch": 54, "duration": 65, "velocity": 112}, {"time": 47162, "pitch": 38, "duration": 60, "velocity": 54}, {"time": 47281, "pitch": 38, "duration": 59, "velocity": 66}, {"time": 47281, "pitch": 46, "duration": 113, "velocity": 82}, {"time": 47281, "pitch": 54, "duration": 62, "velocity": 112}, {"time": 47399, "pitch": 38, "duration": 60, "velocity": 56}, {"time": 47518, "pitch": 38, "duration": 60, "velocity": 66}, {"time": 47518, "pitch": 42, "duration": 123, "velocity": 80}, {"time": 47518, "pitch": 54, "duration": 70, "velocity": 112}, {"time": 47638, "pitch": 38, "duration": 61, "velocity": 40}, {"time": 47699, "pitch": 38, "duration": 60, "velocity": 62}, {"time": 47759, "pitch": 36, "duration": 120, "velocity": 127}, {"time": 47759, "pitch": 38, "duration": 60, "velocity": 58}, {"time": 47759, "pitch": 46, "duration": 103, "velocity": 80}, {"time": 47759, "pitch": 54, "duration": 70, "velocity": 112}, {"time": 47879, "pitch": 38, "duration": 61, "velocity": 66}, {"time": 48000, "pitch": 38, "duration": 120, "velocity": 127}, {"time": 48000, "pitch": 40, "duration": 60, "velocity": 118}, {"time": 48000, "pitch": 42, "duration": 147, "velocity": 86}, {"time": 48000, "pitch": 54, "duration": 77, "velocity": 112}, {"time": 48120, "pitch": 38, "duration": 61, "velocity": 58}, {"time": 48241, "pitch": 38, "duration": 60, "velocity": 62}, {"time": 48241, "pitch": 46, "duration": 118, "velocity": 80}, {"time": 48241, "pitch": 54, "duration": 85, "velocity": 127}, {"time": 48362, "pitch": 38, "duration": 60, "velocity": 70}, {"time": 48482, "pitch": 36, "duration": 119, "velocity": 127}, {"time": 48482, "pitch": 38, "duration": 59, "velocity": 68}, {"time": 48482, "pitch": 54, "duration": 86, "velocity": 116}, {"time": 48601, "pitch": 38, "duration": 59, "velocity": 54}, {"time": 48719, "pitch": 38, "duration": 59, "velocity": 64}, {"time": 48719, "pitch": 46, "duration": 102, "velocity": 80}, {"time": 48719, "pitch": 54, "duration": 73, "velocity": 127}, {"time": 48837, "pitch": 38, "duration": 60, "velocity": 52}, {"time": 48956, "pitch": 38, "duration": 120, "velocity": 127}, {"time": 48956, "pitch": 40, "duration": 60, "velocity": 118}, {"time": 48956, "pitch": 42, "duration": 172, "velocity": 74}, {"time": 48956, "pitch": 54, "duration": 78, "velocity": 127}, {"time": 49076, "pitch": 38, "duration": 61, "velocity": 54}, {"time": 49197, "pitch": 38, "duration": 60, "velocity": 66}, {"time": 49197, "pitch": 46, "duration": 114, "velocity": 82}, {"time": 49197, "pitch": 54, "duration": 74, "velocity": 116}, {"time": 49317, "pitch": 38, "duration": 61, "velocity": 56}, {"time": 49438, "pitch": 36, "duration": 120, "velocity": 127}, {"time": 49438, "pitch": 38, "duration": 60, "velocity": 66}, {"time": 49438, "pitch": 42, "duration": 124, "velocity": 80}, {"time": 49438, "pitch": 54, "duration": 68, "velocity": 112}, {"time": 49558, "pitch": 38, "duration": 61, "velocity": 40}, {"time": 49619, "pitch": 38, "duration": 60, "velocity": 62}, {"time": 49679, "pitch": 36, "duration": 121, "velocity": 127}, {"time": 49679, "pitch": 38, "duration": 60, "velocity": 58}, {"time": 49679, "pitch": 46, "duration": 103, "velocity": 80}, {"time": 49679, "pitch": 54, "duration": 64, "velocity": 127}, {"time": 49800, "pitch": 38, "duration": 60, "velocity": 66}, {"time": 49920, "pitch": 38, "duration": 121, "velocity": 127}, {"time": 49920, "pitch": 40, "duration": 60, "velocity": 118}, {"time": 49920, "pitch": 42, "duration": 147, "velocity": 86}, {"time": 49920, "pitch": 54, "duration": 62, "velocity": 127}, {"time": 50041, "pitch": 38, "duration": 60, "velocity": 58}, {"time": 50161, "pitch": 38, "duration": 60, "velocity": 62}, {"time": 50161, "pitch": 46, "duration": 118, "velocity": 80}, {"time": 50161, "pitch": 54, "duration": 50, "velocity": 127}, {"time": 50282, "pitch": 38, "duration": 60, "velocity": 70}, {"time": 50402, "pitch": 36, "duration": 119, "velocity": 127}, {"time": 50402, "pitch": 38, "duration": 59, "velocity": 68}, {"time": 50402, "pitch": 57, "duration": 96, "velocity": 54}, {"time": 50521, "pitch": 38, "duration": 59, "velocity": 54}, {"time": 50639, "pitch": 38, "duration": 59, "velocity": 64}, {"time": 50639, "pitch": 54, "duration": 65, "velocity": 112}, {"time": 50758, "pitch": 38, "duration": 59, "velocity": 52}, {"time": 50876, "pitch": 38, "duration": 120, "velocity": 127}, {"time": 50876, "pitch": 40, "duration": 60, "velocity": 118}, {"time": 50876, "pitch": 54, "duration": 64, "velocity": 112}, {"time": 50996, "pitch": 38, "duration": 61, "velocity": 54}, {"time": 51117, "pitch": 38, "duration": 60, "velocity": 66}, {"time": 51117, "pitch": 54, "duration": 62, "velocity": 112}, {"time": 51238, "pitch": 38, "duration": 60, "velocity": 56}, {"time": 51358, "pitch": 36, "duration": 121, "velocity": 127}, {"time": 51358, "pitch": 38, "duration": 60, "velocity": 66}, {"time": 51358, "pitch": 54, "duration": 60, "velocity": 112}, {"time": 51479, "pitch": 38, "duration": 60, "velocity": 40}, {"time": 51539, "pitch": 38, "duration": 60, "velocity": 62}, {"time": 51599, "pitch": 36, "duration": 121, "velocity": 127}, {"time": 51599, "pitch": 38, "duration": 60, "velocity": 58}, {"time": 51599, "pitch": 54, "duration": 70, "velocity": 112}, {"time": 51720, "pitch": 38, "duration": 60, "velocity": 66}, {"time": 51840, "pitch": 38, "duration": 121, "velocity": 127}, {"time": 51840, "pitch": 40, "duration": 60, "velocity": 118}, {"time": 51840, "pitch": 54, "duration": 66, "velocity": 127}, {"time": 51961, "pitch": 38, "duration": 60, "velocity": 58}, {"time": 52081, "pitch": 38, "duration": 60, "velocity": 62}, {"time": 52081, "pitch": 54, "duration": 62, "velocity": 112}, {"time": 52202, "pitch": 38, "duration": 60, "velocity": 70}, {"time": 52322, "pitch": 36, "duration": 119, "velocity": 127}, {"time": 52322, "pitch": 38, "duration": 59, "velocity": 68}, {"time": 52322, "pitch": 54, "duration": 49, "velocity": 112}, {"time": 52441, "pitch": 38, "duration": 59, "velocity": 54}, {"time": 52559, "pitch": 38, "duration": 59, "velocity": 64}, {"time": 52559, "pitch": 54, "duration": 48, "velocity": 112}, {"time": 52678, "pitch": 38, "duration": 59, "velocity": 52}, {"time": 52796, "pitch": 38, "duration": 121, "velocity": 127}, {"time": 52796, "pitch": 40, "duration": 60, "velocity": 118}, {"time": 52796, "pitch": 54, "duration": 47, "velocity": 127}, {"time": 52917, "pitch": 38, "duration": 60, "velocity": 54}, {"time": 53037, "pitch": 38, "duration": 60, "velocity": 66}, {"time": 53037, "pitch": 54, "duration": 63, "velocity": 127}, {"time": 53158, "pitch": 38, "duration": 60, "velocity": 56}, {"time": 53278, "pitch": 36, "duration": 121, "velocity": 127}, {"time": 53278, "pitch": 38, "duration": 60, "velocity": 66}, {"time": 53278, "pitch": 54, "duration": 70, "velocity": 112}, {"time": 53399, "pitch": 38, "duration": 60, "velocity": 40}, {"time": 53459, "pitch": 38, "duration": 60, "velocity": 62}, {"time": 53519, "pitch": 36, "duration": 121, "velocity": 127}, {"time": 53519, "pitch": 38, "duration": 60, "velocity": 58}, {"time": 53519, "pitch": 54, "duration": 64, "velocity": 127}, {"time": 53640, "pitch": 38, "duration": 60, "velocity": 66}, {"time": 53760, "pitch": 38, "duration": 121, "velocity": 127}, {"time": 53760, "pitch": 40, "duration": 60, "velocity": 118}, {"time": 53760, "pitch": 54, "duration": 69, "velocity": 127}, {"time": 53881, "pitch": 38, "duration": 60, "velocity": 58}, {"time": 54001, "pitch": 38, "duration": 61, "velocity": 62}, {"time": 54001, "pitch": 54, "duration": 67, "velocity": 127}, {"time": 54122, "pitch": 36, "duration": 120, "velocity": 127}, {"time": 54122, "pitch": 38, "duration": 60, "velocity": 70}, {"time": 54242, "pitch": 36, "duration": 119, "velocity": 127}, {"time": 54242, "pitch": 38, "duration": 60, "velocity": 68}, {"time": 54242, "pitch": 54, "duration": 62, "velocity": 127}, {"time": 54361, "pitch": 38, "duration": 59, "velocity": 54}, {"time": 54479, "pitch": 38, "duration": 59, "velocity": 64}, {"time": 54479, "pitch": 54, "duration": 61, "velocity": 127}, {"time": 54598, "pitch": 38, "duration": 59, "velocity": 52}, {"time": 54716, "pitch": 38, "duration": 121, "velocity": 127}, {"time": 54716, "pitch": 40, "duration": 60, "velocity": 118}, {"time": 54716, "pitch": 54, "duration": 66, "velocity": 112}, {"time": 54837, "pitch": 38, "duration": 60, "velocity": 54}, {"time": 54957, "pitch": 38, "duration": 60, "velocity": 66}, {"time": 54957, "pitch": 54, "duration": 63, "velocity": 112}, {"time": 55078, "pitch": 38, "duration": 60, "velocity": 56}, {"time": 55198, "pitch": 36, "duration": 121, "velocity": 127}, {"time": 55198, "pitch": 38, "duration": 60, "velocity": 66}, {"time": 55198, "pitch": 54, "duration": 71, "velocity": 112}, {"time": 55319, "pitch": 38, "duration": 60, "velocity": 40}, {"time": 55379, "pitch": 38, "duration": 60, "velocity": 62}, {"time": 55439, "pitch": 36, "duration": 121, "velocity": 127}, {"time": 55439, "pitch": 38, "duration": 61, "velocity": 58}, {"time": 55439, "pitch": 54, "duration": 71, "velocity": 112}, {"time": 55560, "pitch": 38, "duration": 60, "velocity": 66}, {"time": 55680, "pitch": 38, "duration": 121, "velocity": 127}, {"time": 55680, "pitch": 40, "duration": 61, "velocity": 118}, {"time": 55680, "pitch": 54, "duration": 78, "velocity": 112}, {"time": 55801, "pitch": 38, "duration": 60, "velocity": 58}, {"time": 55921, "pitch": 38, "duration": 61, "velocity": 62}, {"time": 55921, "pitch": 54, "duration": 86, "velocity": 127}, {"time": 56042, "pitch": 38, "duration": 60, "velocity": 70}, {"time": 56162, "pitch": 36, "duration": 119, "velocity": 127}, {"time": 56162, "pitch": 38, "duration": 60, "velocity": 68}, {"time": 56162, "pitch": 54, "duration": 86, "velocity": 116}, {"time": 56281, "pitch": 38, "duration": 59, "velocity": 54}, {"time": 56399, "pitch": 38, "duration": 60, "velocity": 64}, {"time": 56399, "pitch": 54, "duration": 73, "velocity": 127}, {"time": 56518, "pitch": 38, "duration": 59, "velocity": 52}, {"time": 56636, "pitch": 38, "duration": 121, "velocity": 127}, {"time": 56636, "pitch": 40, "duration": 60, "velocity": 118}, {"time": 56636, "pitch": 54, "duration": 79, "velocity": 127}, {"time": 56757, "pitch": 38, "duration": 60, "velocity": 54}, {"time": 56877, "pitch": 38, "duration": 61, "velocity": 66}, {"time": 56877, "pitch": 54, "duration": 75, "velocity": 116}, {"time": 56998, "pitch": 38, "duration": 60, "velocity": 56}, {"time": 57118, "pitch": 38, "duration": 61, "velocity": 66}, {"time": 57118, "pitch": 54, "duration": 69, "velocity": 112}, {"time": 57239, "pitch": 38, "duration": 60, "velocity": 40}, {"time": 57299, "pitch": 38, "duration": 60, "velocity": 62}, {"time": 57359, "pitch": 36, "duration": 121, "velocity": 127}, {"time": 57359, "pitch": 38, "duration": 61, "velocity": 58}, {"time": 57359, "pitch": 54, "duration": 65, "velocity": 127}, {"time": 57480, "pitch": 38, "duration": 60, "velocity": 66}, {"time": 57600, "pitch": 38, "duration": 121, "velocity": 127}, {"time": 57600, "pitch": 40, "duration": 61, "velocity": 118}, {"time": 57600, "pitch": 54, "duration": 63, "velocity": 127}, {"time": 57721, "pitch": 38, "duration": 60, "velocity": 58}, {"time": 57841, "pitch": 38, "duration": 61, "velocity": 62}, {"time": 57841, "pitch": 54, "duration": 51, "velocity": 127}, {"time": 57962, "pitch": 38, "duration": 60, "velocity": 70}, {"time": 58082, "pitch": 36, "duration": 119, "velocity": 127}, {"time": 58082, "pitch": 38, "duration": 60, "velocity": 68}, {"time": 58201, "pitch": 38, "duration": 59, "velocity": 54}, {"time": 58319, "pitch": 38, "duration": 60, "velocity": 64}, {"time": 58319, "pitch": 54, "duration": 66, "velocity": 112}, {"time": 58438, "pitch": 38, "duration": 59, "velocity": 52}, {"time": 58556, "pitch": 38, "duration": 121, "velocity": 127}, {"time": 58556, "pitch": 40, "duration": 61, "velocity": 118}, {"time": 58556, "pitch": 54, "duration": 65, "velocity": 112}, {"time": 58677, "pitch": 38, "duration": 60, "velocity": 54}, {"time": 58797, "pitch": 38, "duration": 61, "velocity": 66}, {"time": 58797, "pitch": 54, "duration": 63, "velocity": 112}, {"time": 58918, "pitch": 38, "duration": 60, "velocity": 56}, {"time": 59038, "pitch": 38, "duration": 61, "velocity": 66}, {"time": 59038, "pitch": 54, "duration": 61, "velocity": 112}, {"time": 59159, "pitch": 38, "duration": 60, "velocity": 40}, {"time": 59219, "pitch": 38, "duration": 60, "velocity": 62}, {"time": 59279, "pitch": 36, "duration": 121, "velocity": 127}, {"time": 59279, "pitch": 38, "duration": 61, "velocity": 58}, {"time": 59279, "pitch": 54, "duration": 71, "velocity": 112}, {"time": 59400, "pitch": 38, "duration": 60, "velocity": 66}, {"time": 59520, "pitch": 38, "duration": 121, "velocity": 127}, {"time": 59520, "pitch": 40, "duration": 61, "velocity": 118}, {"time": 59520, "pitch": 54, "duration": 67, "velocity": 127}, {"time": 59641, "pitch": 38, "duration": 60, "velocity": 58}, {"time": 59761, "pitch": 38, "duration": 61, "velocity": 62}, {"time": 59761, "pitch": 54, "duration": 63, "velocity": 112}, {"time": 59882, "pitch": 38, "duration": 60, "velocity": 70}, {"time": 60002, "pitch": 36, "duration": 119, "velocity": 127}, {"time": 60002, "pitch": 38, "duration": 60, "velocity": 68}, {"time": 60002, "pitch": 54, "duration": 49, "velocity": 112}, {"time": 60121, "pitch": 38, "duration": 59, "velocity": 54}, {"time": 60239, "pitch": 38, "duration": 60, "velocity": 64}, {"time": 60239, "pitch": 54, "duration": 48, "velocity": 112}, {"time": 60358, "pitch": 38, "duration": 59, "velocity": 52}, {"time": 60476, "pitch": 38, "duration": 121, "velocity": 127}, {"time": 60476, "pitch": 40, "duration": 61, "velocity": 118}, {"time": 60476, "pitch": 54, "duration": 48, "velocity": 127}, {"time": 60597, "pitch": 38, "duration": 60, "velocity": 54}, {"time": 60717, "pitch": 38, "duration": 61, "velocity": 66}, {"time": 60717, "pitch": 54, "duration": 64, "velocity": 127}, {"time": 60838, "pitch": 38, "duration": 60, "velocity": 56}, {"time": 60958, "pitch": 38, "duration": 61, "velocity": 66}, {"time": 60958, "pitch": 54, "duration": 71, "velocity": 112}, {"time": 61079, "pitch": 38, "duration": 60, "velocity": 40}, {"time": 61139, "pitch": 38, "duration": 60, "velocity": 62}, {"time": 61199, "pitch": 36, "duration": 121, "velocity": 127}, {"time": 61199, "pitch": 38, "duration": 61, "velocity": 58}, {"time": 61199, "pitch": 54, "duration": 65, "velocity": 127}, {"time": 61320, "pitch": 36, "duration": 121, "velocity": 127}, {"time": 61320, "pitch": 38, "duration": 60, "velocity": 66}, {"time": 61441, "pitch": 38, "duration": 120, "velocity": 127}, {"time": 61441, "pitch": 40, "duration": 60, "velocity": 118}, {"time": 61441, "pitch": 54, "duration": 68, "velocity": 127}, {"time": 61561, "pitch": 38, "duration": 60, "velocity": 58}, {"time": 61682, "pitch": 38, "duration": 60, "velocity": 62}, {"time": 61682, "pitch": 54, "duration": 66, "velocity": 127}, {"time": 61802, "pitch": 38, "duration": 60, "velocity": 70}, {"time": 61923, "pitch": 36, "duration": 118, "velocity": 127}, {"time": 61923, "pitch": 38, "duration": 59, "velocity": 68}, {"time": 61923, "pitch": 54, "duration": 62, "velocity": 127}, {"time": 62041, "pitch": 38, "duration": 59, "velocity": 54}, {"time": 62160, "pitch": 38, "duration": 59, "velocity": 64}, {"time": 62160, "pitch": 54, "duration": 61, "velocity": 127}, {"time": 62278, "pitch": 38, "duration": 59, "velocity": 52}, {"time": 62396, "pitch": 38, "duration": 121, "velocity": 127}, {"time": 62396, "pitch": 40, "duration": 61, "velocity": 118}, {"time": 62396, "pitch": 54, "duration": 67, "velocity": 112}, {"time": 62517, "pitch": 38, "duration": 60, "velocity": 54}, {"time": 62637, "pitch": 38, "duration": 61, "velocity": 66}, {"time": 62637, "pitch": 54, "duration": 64, "velocity": 112}, {"time": 62758, "pitch": 38, "duration": 60, "velocity": 56}, {"time": 62879, "pitch": 38, "duration": 60, "velocity": 66}, {"time": 62879, "pitch": 54, "duration": 70, "velocity": 112}, {"time": 62999, "pitch": 38, "duration": 60, "velocity": 40}, {"time": 63059, "pitch": 38, "duration": 61, "velocity": 62}, {"time": 63120, "pitch": 36, "duration": 120, "velocity": 127}, {"time": 63120, "pitch": 38, "duration": 60, "velocity": 58}, {"time": 63120, "pitch": 54, "duration": 70, "velocity": 112}, {"time": 63240, "pitch": 38, "duration": 60, "velocity": 66}, {"time": 63361, "pitch": 38, "duration": 120, "velocity": 127}, {"time": 63361, "pitch": 40, "duration": 60, "velocity": 118}, {"time": 63361, "pitch": 54, "duration": 77, "velocity": 112}, {"time": 63481, "pitch": 38, "duration": 60, "velocity": 58}, {"time": 63602, "pitch": 38, "duration": 60, "velocity": 62}, {"time": 63602, "pitch": 54, "duration": 85, "velocity": 127}, {"time": 63722, "pitch": 38, "duration": 60, "velocity": 70}, {"time": 63843, "pitch": 36, "duration": 118, "velocity": 127}, {"time": 63843, "pitch": 38, "duration": 59, "velocity": 68}, {"time": 63843, "pitch": 54, "duration": 86, "velocity": 116}, {"time": 63961, "pitch": 38, "duration": 59, "velocity": 54}, {"time": 64080, "pitch": 38, "duration": 59, "velocity": 64}, {"time": 64080, "pitch": 54, "duration": 73, "velocity": 127}, {"time": 64198, "pitch": 38, "duration": 59, "velocity": 52}, {"time": 64317, "pitch": 38, "duration": 120, "velocity": 127}, {"time": 64317, "pitch": 40, "duration": 60, "velocity": 118}, {"time": 64317, "pitch": 54, "duration": 78, "velocity": 127}, {"time": 64437, "pitch": 38, "duration": 60, "velocity": 54}, {"time": 64558, "pitch": 38, "duration": 60, "velocity": 66}, {"time": 64558, "pitch": 54, "duration": 74, "velocity": 116}, {"time": 64678, "pitch": 38, "duration": 60, "velocity": 56}, {"time": 64799, "pitch": 36, "duration": 120, "velocity": 127}, {"time": 64799, "pitch": 38, "duration": 60, "velocity": 66}, {"time": 64799, "pitch": 54, "duration": 68, "velocity": 112}, {"time": 64919, "pitch": 38, "duration": 60, "velocity": 40}, {"time": 64979, "pitch": 38, "duration": 61, "velocity": 62}, {"time": 65040, "pitch": 36, "duration": 120, "velocity": 127}, {"time": 65040, "pitch": 38, "duration": 60, "velocity": 58}, {"time": 65040, "pitch": 54, "duration": 64, "velocity": 127}, {"time": 65160, "pitch": 38, "duration": 60, "velocity": 66}, {"time": 65281, "pitch": 38, "duration": 120, "velocity": 127}, {"time": 65281, "pitch": 40, "duration": 60, "velocity": 118}, {"time": 65281, "pitch": 54, "duration": 62, "velocity": 127}, {"time": 65401, "pitch": 38, "duration": 60, "velocity": 58}, {"time": 65522, "pitch": 38, "duration": 60, "velocity": 62}, {"time": 65522, "pitch": 54, "duration": 50, "velocity": 127}, {"time": 65642, "pitch": 38, "duration": 61, "velocity": 70}, {"time": 65763, "pitch": 36, "duration": 118, "velocity": 127}, {"time": 65763, "pitch": 38, "duration": 59, "velocity": 68}, {"time": 65763, "pitch": 57, "duration": 96, "velocity": 54}, {"time": 65881, "pitch": 38, "duration": 59, "velocity": 54}, {"time": 66000, "pitch": 38, "duration": 59, "velocity": 64}, {"time": 66000, "pitch": 54, "duration": 65, "velocity": 112}, {"time": 66118, "pitch": 38, "duration": 59, "velocity": 52}, {"time": 66237, "pitch": 38, "duration": 120, "velocity": 127}, {"time": 66237, "pitch": 40, "duration": 60, "velocity": 118}, {"time": 66237, "pitch": 53, "duration": 120, "velocity": 60}, {"time": 66237, "pitch": 54, "duration": 64, "velocity": 112}, {"time": 66357, "pitch": 38, "duration": 60, "velocity": 54}, {"time": 66478, "pitch": 38, "duration": 60, "velocity": 66}, {"time": 66478, "pitch": 54, "duration": 62, "velocity": 112}, {"time": 66598, "pitch": 38, "duration": 60, "velocity": 56}, {"time": 66719, "pitch": 36, "duration": 120, "velocity": 127}, {"time": 66719, "pitch": 38, "duration": 60, "velocity": 66}, {"time": 66719, "pitch": 53, "duration": 115, "velocity": 56}, {"time": 66719, "pitch": 54, "duration": 60, "velocity": 112}, {"time": 66839, "pitch": 38, "duration": 60, "velocity": 40}, {"time": 66899, "pitch": 38, "duration": 61, "velocity": 62}, {"time": 66960, "pitch": 36, "duration": 120, "velocity": 127}, {"time": 66960, "pitch": 38, "duration": 60, "velocity": 58}, {"time": 66960, "pitch": 54, "duration": 70, "velocity": 112}, {"time": 67080, "pitch": 38, "duration": 61, "velocity": 66}, {"time": 67201, "pitch": 38, "duration": 120, "velocity": 127}, {"time": 67201, "pitch": 40, "duration": 60, "velocity": 118}, {"time": 67201, "pitch": 53, "duration": 106, "velocity": 62}, {"time": 67201, "pitch": 54, "duration": 66, "velocity": 127}, {"time": 67321, "pitch": 38, "duration": 61, "velocity": 58}, {"time": 67442, "pitch": 38, "duration": 60, "velocity": 62}, {"time": 67442, "pitch": 54, "duration": 62, "velocity": 112}, {"time": 67562, "pitch": 38, "duration": 61, "velocity": 70}, {"time": 67683, "pitch": 36, "duration": 118, "velocity": 127}, {"time": 67683, "pitch": 38, "duration": 59, "velocity": 68}, {"time": 67683, "pitch": 53, "duration": 123, "velocity": 52}, {"time": 67683, "pitch": 54, "duration": 48, "velocity": 112}, {"time": 67801, "pitch": 38, "duration": 60, "velocity": 54}, {"time": 67920, "pitch": 38, "duration": 59, "velocity": 64}, {"time": 67920, "pitch": 54, "duration": 47, "velocity": 112}, {"time": 68038, "pitch": 38, "duration": 59, "velocity": 52}, {"time": 68157, "pitch": 38, "duration": 120, "velocity": 127}, {"time": 68157, "pitch": 40, "duration": 60, "velocity": 118}, {"time": 68157, "pitch": 53, "duration": 99, "velocity": 56}, {"time": 68157, "pitch": 54, "duration": 47, "velocity": 127}, {"time": 68277, "pitch": 38, "duration": 60, "velocity": 54}, {"time": 68398, "pitch": 38, "duration": 60, "velocity": 66}, {"time": 68398, "pitch": 54, "duration": 63, "velocity": 127}, {"time": 68518, "pitch": 38, "duration": 61, "velocity": 56}, {"time": 68639, "pitch": 36, "duration": 120, "velocity": 127}, {"time": 68639, "pitch": 38, "duration": 60, "velocity": 66}, {"time": 68639, "pitch": 53, "duration": 106, "velocity": 58}, {"time": 68639, "pitch": 54, "duration": 70, "velocity": 112}, {"time": 68759, "pitch": 38, "duration": 61, "velocity": 40}, {"time": 68820, "pitch": 38, "duration": 60, "velocity": 62}, {"time": 68880, "pitch": 36, "duration": 120, "velocity": 127}, {"time": 68880, "pitch": 38, "duration": 60, "velocity": 58}, {"time": 68880, "pitch": 54, "duration": 64, "velocity": 127}, {"time": 69000, "pitch": 38, "duration": 61, "velocity": 66}, {"time": 69121, "pitch": 38, "duration": 120, "velocity": 127}, {"time": 69121, "pitch": 40, "duration": 60, "velocity": 118}, {"time": 69121, "pitch": 53, "duration": 92, "velocity": 54}, {"time": 69121, "pitch": 54, "duration": 68, "velocity": 127}, {"time": 69241, "pitch": 38, "duration": 61, "velocity": 58}, {"time": 69362, "pitch": 38, "duration": 60, "velocity": 62}, {"time": 69362, "pitch": 54, "duration": 66, "velocity": 127}, {"time": 69482, "pitch": 36, "duration": 121, "velocity": 127}, {"time": 69482, "pitch": 38, "duration": 61, "velocity": 70}, {"time": 69603, "pitch": 36, "duration": 118, "velocity": 127}, {"time": 69603, "pitch": 38, "duration": 59, "velocity": 68}, {"time": 69603, "pitch": 53, "duration": 110, "velocity": 53}, {"time": 69603, "pitch": 54, "duration": 62, "velocity": 127}, {"time": 69721, "pitch": 38, "duration": 60, "velocity": 54}, {"time": 69840, "pitch": 38, "duration": 59, "velocity": 64}, {"time": 69840, "pitch": 54, "duration": 61, "velocity": 127}, {"time": 69958, "pitch": 38, "duration": 60, "velocity": 52}, {"time": 70077, "pitch": 38, "duration": 120, "velocity": 127}, {"time": 70077, "pitch": 40, "duration": 60, "velocity": 118}, {"time": 70077, "pitch": 53, "duration": 109, "velocity": 58}, {"time": 70077, "pitch": 54, "duration": 66, "velocity": 112}, {"time": 70197, "pitch": 38, "duration": 61, "velocity": 54}, {"time": 70318, "pitch": 38, "duration": 60, "velocity": 66}, {"time": 70318, "pitch": 54, "duration": 63, "velocity": 112}, {"time": 70438, "pitch": 38, "duration": 61, "velocity": 56}, {"time": 70559, "pitch": 36, "duration": 120, "velocity": 127}, {"time": 70559, "pitch": 38, "duration": 60, "velocity": 66}, {"time": 70559, "pitch": 53, "duration": 97, "velocity": 51}, {"time": 70559, "pitch": 54, "duration": 70, "velocity": 112}, {"time": 70679, "pitch": 38, "duration": 61, "velocity": 40}, {"time": 70740, "pitch": 38, "duration": 60, "velocity": 62}, {"time": 70800, "pitch": 36, "duration": 120, "velocity": 127}, {"time": 70800, "pitch": 38, "duration": 60, "velocity": 58}, {"time": 70800, "pitch": 54, "duration": 70, "velocity": 112}, {"time": 70920, "pitch": 38, "duration": 61, "velocity": 66}, {"time": 71041, "pitch": 38, "duration": 120, "velocity": 127}, {"time": 71041, "pitch": 40, "duration": 60, "velocity": 118}, {"time": 71041, "pitch": 53, "duration": 87, "velocity": 54}, {"time": 71041, "pitch": 54, "duration": 77, "velocity": 112}, {"time": 71161, "pitch": 38, "duration": 61, "velocity": 58}, {"time": 71282, "pitch": 38, "duration": 60, "velocity": 62}, {"time": 71282, "pitch": 54, "duration": 85, "velocity": 127}, {"time": 71402, "pitch": 38, "duration": 61, "velocity": 70}, {"time": 71523, "pitch": 36, "duration": 118, "velocity": 127}, {"time": 71523, "pitch": 38, "duration": 59, "velocity": 68}, {"time": 71523, "pitch": 53, "duration": 110, "velocity": 51}, {"time": 71523, "pitch": 54, "duration": 86, "velocity": 116}, {"time": 71641, "pitch": 38, "duration": 60, "velocity": 54}, {"time": 71760, "pitch": 38, "duration": 59, "velocity": 64}, {"time": 71760, "pitch": 54, "duration": 73, "velocity": 127}, {"time": 71878, "pitch": 38, "duration": 60, "velocity": 52}, {"time": 71997, "pitch": 38, "duration": 120, "velocity": 127}, {"time": 71997, "pitch": 40, "duration": 60, "velocity": 118}, {"time": 71997, "pitch": 53, "duration": 112, "velocity": 53}, {"time": 71997, "pitch": 54, "duration": 78, "velocity": 127}, {"time": 72117, "pitch": 38, "duration": 61, "velocity": 54}, {"time": 72238, "pitch": 38, "duration": 60, "velocity": 66}, {"time": 72238, "pitch": 54, "duration": 74, "velocity": 116}, {"time": 72358, "pitch": 38, "duration": 61, "velocity": 56}, {"time": 72479, "pitch": 38, "duration": 60, "velocity": 66}, {"time": 72479, "pitch": 53, "duration": 131, "velocity": 56}, {"time": 72479, "pitch": 54, "duration": 68, "velocity": 112}, {"time": 72599, "pitch": 38, "duration": 61, "velocity": 40}, {"time": 72660, "pitch": 38, "duration": 60, "velocity": 62}, {"time": 72720, "pitch": 36, "duration": 120, "velocity": 127}, {"time": 72720, "pitch": 38, "duration": 60, "velocity": 58}, {"time": 72720, "pitch": 54, "duration": 64, "velocity": 127}, {"time": 72840, "pitch": 38, "duration": 61, "velocity": 66}, {"time": 72961, "pitch": 38, "duration": 121, "velocity": 127}, {"time": 72961, "pitch": 40, "duration": 60, "velocity": 118}, {"time": 72961, "pitch": 53, "duration": 103, "velocity": 62}, {"time": 72961, "pitch": 54, "duration": 62, "velocity": 127}, {"time": 73082, "pitch": 38, "duration": 60, "velocity": 58}, {"time": 73202, "pitch": 38, "duration": 60, "velocity": 62}, {"time": 73202, "pitch": 54, "duration": 50, "velocity": 127}, {"time": 73323, "pitch": 38, "duration": 60, "velocity": 70}, {"time": 73443, "pitch": 36, "duration": 119, "velocity": 127}, {"time": 73443, "pitch": 38, "duration": 59, "velocity": 68}, {"time": 73443, "pitch": 57, "duration": 96, "velocity": 54}, {"time": 73562, "pitch": 38, "duration": 59, "velocity": 54}, {"time": 73680, "pitch": 38, "duration": 59, "velocity": 64}, {"time": 73680, "pitch": 54, "duration": 65, "velocity": 112}, {"time": 73798, "pitch": 38, "duration": 60, "velocity": 52}, {"time": 73917, "pitch": 38, "duration": 120, "velocity": 127}, {"time": 73917, "pitch": 40, "duration": 60, "velocity": 118}, {"time": 73917, "pitch": 53, "duration": 117, "velocity": 62}, {"time": 73917, "pitch": 54, "duration": 64, "velocity": 112}, {"time": 74037, "pitch": 38, "duration": 61, "velocity": 54}, {"time": 74158, "pitch": 38, "duration": 60, "velocity": 66}, {"time": 74158, "pitch": 54, "duration": 62, "velocity": 112}, {"time": 74278, "pitch": 38, "duration": 61, "velocity": 56}, {"time": 74399, "pitch": 38, "duration": 60, "velocity": 66}, {"time": 74399, "pitch": 53, "duration": 113, "velocity": 52}, {"time": 74399, "pitch": 54, "duration": 60, "velocity": 112}, {"time": 74520, "pitch": 38, "duration": 60, "velocity": 40}, {"time": 74580, "pitch": 38, "duration": 60, "velocity": 62}, {"time": 74640, "pitch": 36, "duration": 121, "velocity": 127}, {"time": 74640, "pitch": 38, "duration": 60, "velocity": 58}, {"time": 74640, "pitch": 54, "duration": 70, "velocity": 112}, {"time": 74761, "pitch": 38, "duration": 60, "velocity": 66}, {"time": 74881, "pitch": 38, "duration": 121, "velocity": 127}, {"time": 74881, "pitch": 40, "duration": 60, "velocity": 118}, {"time": 74881, "pitch": 53, "duration": 99, "velocity": 52}, {"time": 74881, "pitch": 54, "duration": 66, "velocity": 127}, {"time": 75002, "pitch": 38, "duration": 60, "velocity": 58}, {"time": 75122, "pitch": 38, "duration": 60, "velocity": 62}, {"time": 75122, "pitch": 54, "duration": 62, "velocity": 112}, {"time": 75243, "pitch": 38, "duration": 60, "velocity": 70}, {"time": 75363, "pitch": 36, "duration": 119, "velocity": 127}, {"time": 75363, "pitch": 38, "duration": 59, "velocity": 68}, {"time": 75363, "pitch": 53, "duration": 126, "velocity": 58}, {"time": 75363, "pitch": 54, "duration": 49, "velocity": 112}, {"time": 75482, "pitch": 38, "duration": 59, "velocity": 54}, {"time": 75600, "pitch": 38, "duration": 59, "velocity": 64}, {"time": 75600, "pitch": 54, "duration": 47, "velocity": 112}, {"time": 75719, "pitch": 38, "duration": 59, "velocity": 52}, {"time": 75837, "pitch": 38, "duration": 121, "velocity": 127}, {"time": 75837, "pitch": 40, "duration": 60, "velocity": 118}, {"time": 75837, "pitch": 53, "duration": 132, "velocity": 60}, {"time": 75837, "pitch": 54, "duration": 47, "velocity": 127}, {"time": 75958, "pitch": 38, "duration": 60, "velocity": 54}, {"time": 76078, "pitch": 38, "duration": 60, "velocity": 66}, {"time": 76078, "pitch": 54, "duration": 63, "velocity": 127}, {"time": 76199, "pitch": 38, "duration": 60, "velocity": 56}, {"time": 76319, "pitch": 38, "duration": 60, "velocity": 66}, {"time": 76319, "pitch": 53, "duration": 128, "velocity": 68}, {"time": 76319, "pitch": 54, "duration": 70, "velocity": 112}, {"time": 76440, "pitch": 38, "duration": 60, "velocity": 40}, {"time": 76500, "pitch": 38, "duration": 60, "velocity": 62}, {"time": 76560, "pitch": 36, "duration": 121, "velocity": 127}, {"time": 76560, "pitch": 38, "duration": 60, "velocity": 58}, {"time": 76560, "pitch": 54, "duration": 64, "velocity": 127}, {"time": 76681, "pitch": 36, "duration": 120, "velocity": 127}, {"time": 76681, "pitch": 38, "duration": 60, "velocity": 66}, {"time": 76801, "pitch": 38, "duration": 121, "velocity": 127}, {"time": 76801, "pitch": 40, "duration": 60, "velocity": 118}, {"time": 76801, "pitch": 53, "duration": 124, "velocity": 70}, {"time": 76801, "pitch": 54, "duration": 68, "velocity": 127}, {"time": 76922, "pitch": 38, "duration": 60, "velocity": 58}, {"time": 77042, "pitch": 38, "duration": 60, "velocity": 62}, {"time": 77042, "pitch": 54, "duration": 67, "velocity": 127}, {"time": 77163, "pitch": 38, "duration": 60, "velocity": 70}, {"time": 77283, "pitch": 36, "duration": 119, "velocity": 127}, {"time": 77283, "pitch": 38, "duration": 59, "velocity": 68}, {"time": 77283, "pitch": 53, "duration": 133, "velocity": 64}, {"time": 77283, "pitch": 54, "duration": 62, "velocity": 127}, {"time": 77402, "pitch": 38, "duration": 59, "velocity": 54}, {"time": 77520, "pitch": 38, "duration": 59, "velocity": 64}, {"time": 77520, "pitch": 54, "duration": 61, "velocity": 127}, {"time": 77639, "pitch": 38, "duration": 59, "velocity": 52}, {"time": 77757, "pitch": 38, "duration": 121, "velocity": 127}, {"time": 77757, "pitch": 40, "duration": 60, "velocity": 118}, {"time": 77757, "pitch": 53, "duration": 115, "velocity": 70}, {"time": 77757, "pitch": 54, "duration": 66, "velocity": 112}, {"time": 77878, "pitch": 38, "duration": 60, "velocity": 54}, {"time": 77998, "pitch": 38, "duration": 60, "velocity": 66}, {"time": 77998, "pitch": 54, "duration": 63, "velocity": 112}, {"time": 78119, "pitch": 38, "duration": 60, "velocity": 56}, {"time": 78239, "pitch": 38, "duration": 60, "velocity": 66}, {"time": 78239, "pitch": 53, "duration": 110, "velocity": 76}, {"time": 78239, "pitch": 54, "duration": 70, "velocity": 112}, {"time": 78360, "pitch": 38, "duration": 60, "velocity": 40}, {"time": 78420, "pitch": 38, "duration": 60, "velocity": 62}, {"time": 78480, "pitch": 36, "duration": 121, "velocity": 127}, {"time": 78480, "pitch": 38, "duration": 60, "velocity": 58}, {"time": 78480, "pitch": 54, "duration": 71, "velocity": 112}, {"time": 78601, "pitch": 38, "duration": 60, "velocity": 66}, {"time": 78721, "pitch": 38, "duration": 121, "velocity": 127}, {"time": 78721, "pitch": 40, "duration": 61, "velocity": 118}, {"time": 78721, "pitch": 53, "duration": 106, "velocity": 70}, {"time": 78721, "pitch": 54, "duration": 78, "velocity": 112}, {"time": 78842, "pitch": 38, "duration": 60, "velocity": 58}, {"time": 78962, "pitch": 38, "duration": 61, "velocity": 62}, {"time": 78962, "pitch": 54, "duration": 86, "velocity": 127}, {"time": 79083, "pitch": 38, "duration": 60, "velocity": 70}, {"time": 79203, "pitch": 36, "duration": 119, "velocity": 127}, {"time": 79203, "pitch": 38, "duration": 60, "velocity": 68}, {"time": 79203, "pitch": 53, "duration": 121, "velocity": 82}, {"time": 79203, "pitch": 54, "duration": 86, "velocity": 116}, {"time": 79322, "pitch": 38, "duration": 59, "velocity": 54}, {"time": 79440, "pitch": 38, "duration": 59, "velocity": 64}, {"time": 79440, "pitch": 54, "duration": 73, "velocity": 127}, {"time": 79559, "pitch": 38, "duration": 59, "velocity": 52}, {"time": 79677, "pitch": 38, "duration": 121, "velocity": 127}, {"time": 79677, "pitch": 40, "duration": 60, "velocity": 118}, {"time": 79677, "pitch": 53, "duration": 110, "velocity": 74}, {"time": 79677, "pitch": 54, "duration": 78, "velocity": 127}, {"time": 79798, "pitch": 38, "duration": 60, "velocity": 54}, {"time": 79918, "pitch": 38, "duration": 60, "velocity": 66}, {"time": 79918, "pitch": 54, "duration": 75, "velocity": 116}, {"time": 80039, "pitch": 38, "duration": 60, "velocity": 56}, {"time": 80159, "pitch": 36, "duration": 121, "velocity": 127}, {"time": 80159, "pitch": 38, "duration": 61, "velocity": 66}, {"time": 80159, "pitch": 53, "duration": 132, "velocity": 74}, {"time": 80159, "pitch": 54, "duration": 69, "velocity": 112}, {"time": 80280, "pitch": 38, "duration": 60, "velocity": 40}, {"time": 80340, "pitch": 38, "duration": 60, "velocity": 62}, {"time": 80400, "pitch": 36, "duration": 121, "velocity": 127}, {"time": 80400, "pitch": 38, "duration": 61, "velocity": 58}, {"time": 80400, "pitch": 54, "duration": 65, "velocity": 127}, {"time": 80521, "pitch": 38, "duration": 60, "velocity": 66}, {"time": 80641, "pitch": 38, "duration": 121, "velocity": 127}, {"time": 80641, "pitch": 40, "duration": 61, "velocity": 118}, {"time": 80641, "pitch": 53, "duration": 115, "velocity": 80}, {"time": 80641, "pitch": 54, "duration": 63, "velocity": 127}, {"time": 80762, "pitch": 38, "duration": 60, "velocity": 58}, {"time": 80882, "pitch": 38, "duration": 61, "velocity": 62}, {"time": 80882, "pitch": 54, "duration": 51, "velocity": 127}, {"time": 81003, "pitch": 38, "duration": 60, "velocity": 70}, {"time": 81123, "pitch": 36, "duration": 119, "velocity": 127}, {"time": 81123, "pitch": 38, "duration": 60, "velocity": 68}, {"time": 81123, "pitch": 57, "duration": 124, "velocity": 38}, {"time": 81242, "pitch": 38, "duration": 59, "velocity": 54}, {"time": 81360, "pitch": 38, "duration": 60, "velocity": 64}, {"time": 81360, "pitch": 54, "duration": 65, "velocity": 112}, {"time": 81479, "pitch": 38, "duration": 59, "velocity": 52}, {"time": 81597, "pitch": 38, "duration": 121, "velocity": 127}, {"time": 81597, "pitch": 54, "duration": 65, "velocity": 112}, {"time": 81718, "pitch": 38, "duration": 60, "velocity": 54}, {"time": 81838, "pitch": 38, "duration": 61, "velocity": 66}, {"time": 81838, "pitch": 54, "duration": 63, "velocity": 112}, {"time": 81959, "pitch": 38, "duration": 60, "velocity": 56}, {"time": 82079, "pitch": 36, "duration": 121, "velocity": 127}, {"time": 82079, "pitch": 38, "duration": 61, "velocity": 66}, {"time": 82079, "pitch": 54, "duration": 61, "velocity": 112}, {"time": 82200, "pitch": 38, "duration": 60, "velocity": 40}, {"time": 82260, "pitch": 38, "duration": 60, "velocity": 62}, {"time": 82320, "pitch": 36, "duration": 121, "velocity": 127}, {"time": 82320, "pitch": 38, "duration": 61, "velocity": 58}, {"time": 82320, "pitch": 54, "duration": 71, "velocity": 112}, {"time": 82441, "pitch": 38, "duration": 60, "velocity": 66}, {"time": 82561, "pitch": 38, "duration": 121, "velocity": 127}, {"time": 82561, "pitch": 54, "duration": 67, "velocity": 127}, {"time": 82682, "pitch": 38, "duration": 60, "velocity": 58}, {"time": 82802, "pitch": 38, "duration": 61, "velocity": 62}, {"time": 82802, "pitch": 54, "duration": 63, "velocity": 112}, {"time": 82923, "pitch": 38, "duration": 60, "velocity": 70}, {"time": 83043, "pitch": 36, "duration": 119, "velocity": 127}, {"time": 83043, "pitch": 38, "duration": 60, "velocity": 68}, {"time": 83043, "pitch": 54, "duration": 49, "velocity": 112}, {"time": 83162, "pitch": 38, "duration": 59, "velocity": 54}, {"time": 83280, "pitch": 38, "duration": 60, "velocity": 64}, {"time": 83280, "pitch": 54, "duration": 48, "velocity": 112}, {"time": 83399, "pitch": 38, "duration": 59, "velocity": 52}, {"time": 83517, "pitch": 38, "duration": 121, "velocity": 127}, {"time": 83517, "pitch": 54, "duration": 48, "velocity": 127}, {"time": 83638, "pitch": 38, "duration": 60, "velocity": 54}, {"time": 83758, "pitch": 38, "duration": 61, "velocity": 66}, {"time": 83758, "pitch": 54, "duration": 64, "velocity": 127}, {"time": 83879, "pitch": 38, "duration": 60, "velocity": 56}, {"time": 83999, "pitch": 36, "duration": 121, "velocity": 127}, {"time": 83999, "pitch": 38, "duration": 61, "velocity": 66}, {"time": 83999, "pitch": 54, "duration": 71, "velocity": 112}, {"time": 84120, "pitch": 38, "duration": 60, "velocity": 40}, {"time": 84180, "pitch": 38, "duration": 60, "velocity": 62}, {"time": 84240, "pitch": 36, "duration": 121, "velocity": 127}, {"time": 84240, "pitch": 38, "duration": 61, "velocity": 58}, {"time": 84240, "pitch": 54, "duration": 65, "velocity": 127}, {"time": 84361, "pitch": 38, "duration": 60, "velocity": 66}, {"time": 84481, "pitch": 38, "duration": 121, "velocity": 127}, {"time": 84481, "pitch": 54, "duration": 69, "velocity": 127}, {"time": 84602, "pitch": 38, "duration": 60, "velocity": 58}, {"time": 84723, "pitch": 38, "duration": 60, "velocity": 62}, {"time": 84723, "pitch": 54, "duration": 66, "velocity": 127}, {"time": 84843, "pitch": 36, "duration": 121, "velocity": 127}, {"time": 84843, "pitch": 38, "duration": 60, "velocity": 70}, {"time": 84964, "pitch": 36, "duration": 118, "velocity": 127}, {"time": 84964, "pitch": 38, "duration": 59, "velocity": 68}, {"time": 84964, "pitch": 54, "duration": 62, "velocity": 127}, {"time": 85082, "pitch": 38, "duration": 59, "velocity": 54}, {"time": 85200, "pitch": 38, "duration": 60, "velocity": 64}, {"time": 85200, "pitch": 54, "duration": 62, "velocity": 127}, {"time": 85319, "pitch": 38, "duration": 59, "velocity": 52}, {"time": 85437, "pitch": 38, "duration": 121, "velocity": 127}, {"time": 85437, "pitch": 54, "duration": 67, "velocity": 112}, {"time": 85558, "pitch": 38, "duration": 60, "velocity": 54}, {"time": 85678, "pitch": 38, "duration": 61, "velocity": 66}, {"time": 85678, "pitch": 54, "duration": 64, "velocity": 112}, {"time": 85799, "pitch": 38, "duration": 60, "velocity": 56}, {"time": 85919, "pitch": 36, "duration": 121, "velocity": 127}, {"time": 85919, "pitch": 38, "duration": 61, "velocity": 66}, {"time": 85919, "pitch": 54, "duration": 71, "velocity": 112}, {"time": 86040, "pitch": 38, "duration": 60, "velocity": 40}, {"time": 86100, "pitch": 38, "duration": 61, "velocity": 62}, {"time": 86161, "pitch": 36, "duration": 120, "velocity": 127}, {"time": 86161, "pitch": 38, "duration": 60, "velocity": 58}, {"time": 86161, "pitch": 54, "duration": 70, "velocity": 112}, {"time": 86281, "pitch": 38, "duration": 60, "velocity": 66}, {"time": 86402, "pitch": 38, "duration": 120, "velocity": 127}, {"time": 86402, "pitch": 54, "duration": 77, "velocity": 112}, {"time": 86522, "pitch": 38, "duration": 60, "velocity": 58}, {"time": 86643, "pitch": 38, "duration": 60, "velocity": 62}, {"time": 86643, "pitch": 54, "duration": 85, "velocity": 127}, {"time": 86763, "pitch": 38, "duration": 60, "velocity": 70}, {"time": 86884, "pitch": 36, "duration": 118, "velocity": 127}, {"time": 86884, "pitch": 38, "duration": 59, "velocity": 68}, {"time": 86884, "pitch": 54, "duration": 85, "velocity": 116}, {"time": 87002, "pitch": 38, "duration": 59, "velocity": 54}, {"time": 87121, "pitch": 38, "duration": 59, "velocity": 64}, {"time": 87121, "pitch": 54, "duration": 73, "velocity": 127}, {"time": 87239, "pitch": 38, "duration": 59, "velocity": 52}, {"time": 87358, "pitch": 38, "duration": 120, "velocity": 127}, {"time": 87358, "pitch": 54, "duration": 78, "velocity": 127}, {"time": 87478, "pitch": 38, "duration": 60, "velocity": 54}, {"time": 87599, "pitch": 38, "duration": 60, "velocity": 66}, {"time": 87599, "pitch": 54, "duration": 74, "velocity": 116}, {"time": 87719, "pitch": 38, "duration": 60, "velocity": 56}, {"time": 87840, "pitch": 38, "duration": 60, "velocity": 66}, {"time": 87840, "pitch": 54, "duration": 68, "velocity": 112}, {"time": 87960, "pitch": 38, "duration": 60, "velocity": 40}, {"time": 88020, "pitch": 38, "duration": 61, "velocity": 62}, {"time": 88081, "pitch": 36, "duration": 120, "velocity": 127}, {"time": 88081, "pitch": 38, "duration": 60, "velocity": 58}, {"time": 88081, "pitch": 54, "duration": 64, "velocity": 127}, {"time": 88201, "pitch": 38, "duration": 60, "velocity": 66}, {"time": 88322, "pitch": 38, "duration": 120, "velocity": 127}, {"time": 88322, "pitch": 54, "duration": 62, "velocity": 127}, {"time": 88442, "pitch": 38, "duration": 60, "velocity": 58}, {"time": 88563, "pitch": 38, "duration": 60, "velocity": 62}, {"time": 88563, "pitch": 54, "duration": 50, "velocity": 127}, {"time": 88683, "pitch": 38, "duration": 60, "velocity": 70}, {"time": 88804, "pitch": 36, "duration": 118, "velocity": 127}, {"time": 88804, "pitch": 38, "duration": 59, "velocity": 68}, {"time": 88922, "pitch": 38, "duration": 59, "velocity": 54}, {"time": 89041, "pitch": 38, "duration": 59, "velocity": 64}, {"time": 89041, "pitch": 54, "duration": 65, "velocity": 112}, {"time": 89159, "pitch": 38, "duration": 59, "velocity": 52}, {"time": 89278, "pitch": 38, "duration": 120, "velocity": 127}, {"time": 89278, "pitch": 54, "duration": 64, "velocity": 112}, {"time": 89398, "pitch": 38, "duration": 60, "velocity": 54}, {"time": 89519, "pitch": 38, "duration": 60, "velocity": 66}, {"time": 89519, "pitch": 54, "duration": 62, "velocity": 112}, {"time": 89639, "pitch": 38, "duration": 60, "velocity": 56}, {"time": 89760, "pitch": 38, "duration": 60, "velocity": 66}, {"time": 89760, "pitch": 54, "duration": 60, "velocity": 112}, {"time": 89880, "pitch": 38, "duration": 60, "velocity": 40}, {"time": 89940, "pitch": 38, "duration": 61, "velocity": 62}, {"time": 90001, "pitch": 36, "duration": 120, "velocity": 127}, {"time": 90001, "pitch": 38, "duration": 60, "velocity": 58}, {"time": 90001, "pitch": 54, "duration": 70, "velocity": 112}, {"time": 90121, "pitch": 38, "duration": 60, "velocity": 66}, {"time": 90242, "pitch": 38, "duration": 120, "velocity": 127}, {"time": 90242, "pitch": 54, "duration": 66, "velocity": 127}, {"time": 90362, "pitch": 38, "duration": 61, "velocity": 58}, {"time": 90483, "pitch": 38, "duration": 60, "velocity": 62}, {"time": 90483, "pitch": 54, "duration": 62, "velocity": 112}, {"time": 90603, "pitch": 38, "duration": 61, "velocity": 70}, {"time": 90724, "pitch": 36, "duration": 118, "velocity": 127}, {"time": 90724, "pitch": 38, "duration": 59, "velocity": 68}, {"time": 90724, "pitch": 54, "duration": 48, "velocity": 112}, {"time": 90842, "pitch": 38, "duration": 59, "velocity": 54}, {"time": 90961, "pitch": 38, "duration": 59, "velocity": 64}, {"time": 90961, "pitch": 54, "duration": 47, "velocity": 112}, {"time": 91079, "pitch": 38, "duration": 59, "velocity": 52}, {"time": 91198, "pitch": 38, "duration": 120, "velocity": 127}, {"time": 91198, "pitch": 54, "duration": 47, "velocity": 127}, {"time": 91318, "pitch": 38, "duration": 60, "velocity": 54}, {"time": 91439, "pitch": 38, "duration": 60, "velocity": 66}, {"time": 91439, "pitch": 54, "duration": 63, "velocity": 127}, {"time": 91559, "pitch": 38, "duration": 60, "velocity": 56}, {"time": 91680, "pitch": 38, "duration": 60, "velocity": 66}, {"time": 91680, "pitch": 54, "duration": 70, "velocity": 112}, {"time": 91800, "pitch": 38, "duration": 60, "velocity": 40}, {"time": 91860, "pitch": 38, "duration": 61, "velocity": 62}, {"time": 91921, "pitch": 36, "duration": 120, "velocity": 127}, {"time": 91921, "pitch": 38, "duration": 60, "velocity": 58}, {"time": 91921, "pitch": 54, "duration": 64, "velocity": 127}, {"time": 92041, "pitch": 36, "duration": 121, "velocity": 127}, {"time": 92041, "pitch": 38, "duration": 61, "velocity": 66}, {"time": 92162, "pitch": 38, "duration": 120, "velocity": 127}, {"time": 92162, "pitch": 54, "duration": 68, "velocity": 127}, {"time": 92282, "pitch": 38, "duration": 61, "velocity": 58}, {"time": 92403, "pitch": 38, "duration": 60, "velocity": 62}, {"time": 92403, "pitch": 54, "duration": 66, "velocity": 127}, {"time": 92523, "pitch": 38, "duration": 61, "velocity": 70}, {"time": 92644, "pitch": 36, "duration": 118, "velocity": 127}, {"time": 92644, "pitch": 38, "duration": 59, "velocity": 68}, {"time": 92644, "pitch": 54, "duration": 62, "velocity": 127}, {"time": 92762, "pitch": 38, "duration": 60, "velocity": 54}, {"time": 92881, "pitch": 38, "duration": 59, "velocity": 64}, {"time": 92881, "pitch": 54, "duration": 61, "velocity": 127}, {"time": 92999, "pitch": 38, "duration": 60, "velocity": 52}, {"time": 93118, "pitch": 38, "duration": 120, "velocity": 127}, {"time": 93118, "pitch": 54, "duration": 66, "velocity": 112}, {"time": 93238, "pitch": 38, "duration": 60, "velocity": 54}, {"time": 93359, "pitch": 38, "duration": 60, "velocity": 66}, {"time": 93359, "pitch": 54, "duration": 63, "velocity": 112}, {"time": 93479, "pitch": 38, "duration": 61, "velocity": 56}, {"time": 93600, "pitch": 38, "duration": 60, "velocity": 66}, {"time": 93600, "pitch": 54, "duration": 70, "velocity": 112}, {"time": 93720, "pitch": 38, "duration": 61, "velocity": 40}, {"time": 93781, "pitch": 38, "duration": 60, "velocity": 62}, {"time": 93841, "pitch": 36, "duration": 120, "velocity": 127}, {"time": 93841, "pitch": 38, "duration": 60, "velocity": 58}, {"time": 93841, "pitch": 54, "duration": 70, "velocity": 112}, {"time": 93961, "pitch": 38, "duration": 61, "velocity": 66}, {"time": 94082, "pitch": 38, "duration": 120, "velocity": 127}, {"time": 94082, "pitch": 54, "duration": 77, "velocity": 112}, {"time": 94202, "pitch": 38, "duration": 61, "velocity": 58}, {"time": 94323, "pitch": 38, "duration": 60, "velocity": 62}, {"time": 94323, "pitch": 54, "duration": 85, "velocity": 127}, {"time": 94443, "pitch": 38, "duration": 61, "velocity": 70}, {"time": 94564, "pitch": 36, "duration": 118, "velocity": 127}, {"time": 94564, "pitch": 38, "duration": 59, "velocity": 68}, {"time": 94564, "pitch": 54, "duration": 86, "velocity": 116}, {"time": 94682, "pitch": 38, "duration": 60, "velocity": 54}, {"time": 94801, "pitch": 38, "duration": 59, "velocity": 64}, {"time": 94801, "pitch": 54, "duration": 73, "velocity": 127}, {"time": 94919, "pitch": 38, "duration": 60, "velocity": 52}, {"time": 95038, "pitch": 38, "duration": 120, "velocity": 127}, {"time": 95038, "pitch": 54, "duration": 78, "velocity": 127}, {"time": 95158, "pitch": 38, "duration": 61, "velocity": 54}, {"time": 95279, "pitch": 38, "duration": 60, "velocity": 66}, {"time": 95279, "pitch": 54, "duration": 74, "velocity": 116}, {"time": 95399, "pitch": 38, "duration": 61, "velocity": 56}, {"time": 95520, "pitch": 36, "duration": 120, "velocity": 127}, {"time": 95520, "pitch": 38, "duration": 60, "velocity": 66}, {"time": 95520, "pitch": 54, "duration": 68, "velocity": 112}, {"time": 95640, "pitch": 38, "duration": 61, "velocity": 40}, {"time": 95701, "pitch": 38, "duration": 60, "velocity": 62}, {"time": 95761, "pitch": 36, "duration": 120, "velocity": 127}, {"time": 95761, "pitch": 38, "duration": 60, "velocity": 58}, {"time": 95761, "pitch": 54, "duration": 64, "velocity": 127}, {"time": 95881, "pitch": 38, "duration": 61, "velocity": 66}, {"time": 96002, "pitch": 38, "duration": 120, "velocity": 127}, {"time": 96002, "pitch": 54, "duration": 62, "velocity": 127}, {"time": 96122, "pitch": 38, "duration": 61, "velocity": 58}, {"time": 96243, "pitch": 38, "duration": 60, "velocity": 62}, {"time": 96243, "pitch": 54, "duration": 50, "velocity": 127}, {"time": 96364, "pitch": 38, "duration": 60, "velocity": 70}, {"time": 96484, "pitch": 36, "duration": 118, "velocity": 127}, {"time": 96484, "pitch": 38, "duration": 59, "velocity": 68}, {"time": 96602, "pitch": 38, "duration": 60, "velocity": 54}, {"time": 96721, "pitch": 38, "duration": 59, "velocity": 64}, {"time": 96721, "pitch": 46, "duration": 102, "velocity": 80}, {"time": 96721, "pitch": 54, "duration": 65, "velocity": 112}, {"time": 96839, "pitch": 38, "duration": 60, "velocity": 52}, {"time": 96958, "pitch": 38, "duration": 120, "velocity": 127}, {"time": 96958, "pitch": 40, "duration": 60, "velocity": 118}, {"time": 96958, "pitch": 42, "duration": 172, "velocity": 74}, {"time": 96958, "pitch": 54, "duration": 64, "velocity": 112}, {"time": 97078, "pitch": 38, "duration": 61, "velocity": 54}, {"time": 97199, "pitch": 38, "duration": 60, "velocity": 66}, {"time": 97199, "pitch": 46, "duration": 114, "velocity": 82}, {"time": 97199, "pitch": 54, "duration": 62, "velocity": 112}, {"time": 97319, "pitch": 38, "duration": 61, "velocity": 56}, {"time": 97440, "pitch": 36, "duration": 120, "velocity": 127}, {"time": 97440, "pitch": 38, "duration": 60, "velocity": 66}, {"time": 97440, "pitch": 42, "duration": 123, "velocity": 80}, {"time": 97440, "pitch": 54, "duration": 60, "velocity": 112}, {"time": 97560, "pitch": 38, "duration": 61, "velocity": 40}, {"time": 97621, "pitch": 38, "duration": 60, "velocity": 62}, {"time": 97681, "pitch": 36, "duration": 121, "velocity": 127}, {"time": 97681, "pitch": 38, "duration": 60, "velocity": 58}, {"time": 97681, "pitch": 46, "duration": 103, "velocity": 80}, {"time": 97681, "pitch": 54, "duration": 70, "velocity": 112}, {"time": 97802, "pitch": 38, "duration": 60, "velocity": 66}, {"time": 97922, "pitch": 38, "duration": 121, "velocity": 127}, {"time": 97922, "pitch": 40, "duration": 60, "velocity": 118}, {"time": 97922, "pitch": 42, "duration": 147, "velocity": 86}, {"time": 97922, "pitch": 54, "duration": 66, "velocity": 127}, {"time": 98043, "pitch": 38, "duration": 60, "velocity": 58}, {"time": 98163, "pitch": 38, "duration": 60, "velocity": 62}, {"time": 98163, "pitch": 46, "duration": 118, "velocity": 80}, {"time": 98163, "pitch": 54, "duration": 62, "velocity": 112}, {"time": 98284, "pitch": 38, "duration": 60, "velocity": 70}, {"time": 98404, "pitch": 36, "duration": 119, "velocity": 127}, {"time": 98404, "pitch": 38, "duration": 59, "velocity": 68}, {"time": 98404, "pitch": 54, "duration": 48, "velocity": 112}, {"time": 98523, "pitch": 38, "duration": 59, "velocity": 54}, {"time": 98641, "pitch": 38, "duration": 59, "velocity": 64}, {"time": 98641, "pitch": 46, "duration": 102, "velocity": 80}, {"time": 98641, "pitch": 54, "duration": 47, "velocity": 112}, {"time": 98759, "pitch": 38, "duration": 60, "velocity": 52}, {"time": 98878, "pitch": 38, "duration": 120, "velocity": 127}, {"time": 98878, "pitch": 40, "duration": 60, "velocity": 118}, {"time": 98878, "pitch": 42, "duration": 172, "velocity": 74}, {"time": 98878, "pitch": 54, "duration": 47, "velocity": 127}, {"time": 98998, "pitch": 38, "duration": 61, "velocity": 54}, {"time": 99119, "pitch": 38, "duration": 60, "velocity": 66}, {"time": 99119, "pitch": 46, "duration": 114, "velocity": 82}, {"time": 99119, "pitch": 54, "duration": 63, "velocity": 127}, {"time": 99240, "pitch": 38, "duration": 60, "velocity": 56}, {"time": 99360, "pitch": 36, "duration": 121, "velocity": 127}, {"time": 99360, "pitch": 38, "duration": 60, "velocity": 66}, {"time": 99360, "pitch": 42, "duration": 124, "velocity": 80}, {"time": 99360, "pitch": 54, "duration": 70, "velocity": 112}, {"time": 99481, "pitch": 38, "duration": 60, "velocity": 40}, {"time": 99541, "pitch": 38, "duration": 60, "velocity": 62}, {"time": 99601, "pitch": 36, "duration": 121, "velocity": 127}, {"time": 99601, "pitch": 38, "duration": 60, "velocity": 58}, {"time": 99601, "pitch": 46, "duration": 104, "velocity": 80}, {"time": 99601, "pitch": 54, "duration": 64, "velocity": 127}, {"time": 99722, "pitch": 38, "duration": 60, "velocity": 66}, {"time": 99842, "pitch": 38, "duration": 119, "velocity": 127}, {"time": 99842, "pitch": 40, "duration": 59, "velocity": 118}, {"time": 99842, "pitch": 42, "duration": 144, "velocity": 86}, {"time": 99842, "pitch": 54, "duration": 67, "velocity": 127}, {"time": 99961, "pitch": 38, "duration": 59, "velocity": 58}, {"time": 100079, "pitch": 38, "duration": 59, "velocity": 62}, {"time": 100079, "pitch": 46, "duration": 116, "velocity": 80}, {"time": 100079, "pitch": 54, "duration": 65, "velocity": 127}, {"time": 100198, "pitch": 36, "duration": 118, "velocity": 127}, {"time": 100198, "pitch": 38, "duration": 59, "velocity": 70}, {"time": 100316, "pitch": 36, "duration": 120, "velocity": 127}, {"time": 100316, "pitch": 38, "duration": 60, "velocity": 68}, {"time": 100316, "pitch": 54, "duration": 63, "velocity": 127}, {"time": 100436, "pitch": 38, "duration": 61, "velocity": 54}, {"time": 100557, "pitch": 38, "duration": 60, "velocity": 64}, {"time": 100557, "pitch": 46, "duration": 103, "velocity": 80}, {"time": 100557, "pitch": 54, "duration": 62, "velocity": 127}, {"time": 100678, "pitch": 38, "duration": 60, "velocity": 52}, {"time": 100798, "pitch": 38, "duration": 121, "velocity": 127}, {"time": 100798, "pitch": 40, "duration": 60, "velocity": 118}, {"time": 100798, "pitch": 42, "duration": 172, "velocity": 74}, {"time": 100798, "pitch": 54, "duration": 66, "velocity": 112}, {"time": 100919, "pitch": 38, "duration": 60, "velocity": 54}, {"time": 101039, "pitch": 38, "duration": 60, "velocity": 66}, {"time": 101039, "pitch": 46, "duration": 115, "velocity": 82}, {"time": 101039, "pitch": 54, "duration": 63, "velocity": 112}, {"time": 101160, "pitch": 38, "duration": 60, "velocity": 56}, {"time": 101280, "pitch": 36, "duration": 121, "velocity": 127}, {"time": 101280, "pitch": 38, "duration": 60, "velocity": 66}, {"time": 101280, "pitch": 42, "duration": 124, "velocity": 80}, {"time": 101280, "pitch": 54, "duration": 70, "velocity": 112}, {"time": 101401, "pitch": 38, "duration": 60, "velocity": 40}, {"time": 101461, "pitch": 38, "duration": 60, "velocity": 62}, {"time": 101521, "pitch": 36, "duration": 121, "velocity": 127}, {"time": 101521, "pitch": 38, "duration": 60, "velocity": 58}, {"time": 101521, "pitch": 46, "duration": 104, "velocity": 80}, {"time": 101521, "pitch": 54, "duration": 70, "velocity": 112}, {"time": 101642, "pitch": 38, "duration": 60, "velocity": 66}, {"time": 101762, "pitch": 38, "duration": 119, "velocity": 127}, {"time": 101762, "pitch": 40, "duration": 59, "velocity": 118}, {"time": 101762, "pitch": 42, "duration": 144, "velocity": 86}, {"time": 101762, "pitch": 54, "duration": 76, "velocity": 112}, {"time": 101881, "pitch": 38, "duration": 59, "velocity": 58}, {"time": 101999, "pitch": 38, "duration": 59, "velocity": 62}, {"time": 101999, "pitch": 46, "duration": 116, "velocity": 80}, {"time": 101999, "pitch": 54, "duration": 84, "velocity": 127}, {"time": 102118, "pitch": 38, "duration": 59, "velocity": 70}, {"time": 102236, "pitch": 36, "duration": 121, "velocity": 127}, {"time": 102236, "pitch": 38, "duration": 60, "velocity": 68}, {"time": 102236, "pitch": 54, "duration": 87, "velocity": 116}, {"time": 102357, "pitch": 38, "duration": 60, "velocity": 54}, {"time": 102477, "pitch": 38, "duration": 60, "velocity": 64}, {"time": 102477, "pitch": 46, "duration": 104, "velocity": 80}, {"time": 102477, "pitch": 54, "duration": 74, "velocity": 127}, {"time": 102598, "pitch": 38, "duration": 60, "velocity": 52}, {"time": 102718, "pitch": 38, "duration": 121, "velocity": 127}, {"time": 102718, "pitch": 40, "duration": 60, "velocity": 118}, {"time": 102718, "pitch": 42, "duration": 172, "velocity": 74}, {"time": 102718, "pitch": 54, "duration": 78, "velocity": 127}, {"time": 102839, "pitch": 38, "duration": 60, "velocity": 54}, {"time": 102959, "pitch": 38, "duration": 60, "velocity": 66}, {"time": 102959, "pitch": 46, "duration": 115, "velocity": 82}, {"time": 102959, "pitch": 54, "duration": 74, "velocity": 116}, {"time": 103080, "pitch": 38, "duration": 60, "velocity": 56}, {"time": 103200, "pitch": 38, "duration": 60, "velocity": 66}, {"time": 103200, "pitch": 42, "duration": 124, "velocity": 80}, {"time": 103200, "pitch": 54, "duration": 68, "velocity": 112}, {"time": 103321, "pitch": 38, "duration": 60, "velocity": 40}, {"time": 103381, "pitch": 38, "duration": 60, "velocity": 62}, {"time": 103441, "pitch": 36, "duration": 121, "velocity": 127}, {"time": 103441, "pitch": 38, "duration": 60, "velocity": 58}, {"time": 103441, "pitch": 46, "duration": 104, "velocity": 80}, {"time": 103441, "pitch": 54, "duration": 65, "velocity": 127}, {"time": 103562, "pitch": 38, "duration": 60, "velocity": 66}, {"time": 103682, "pitch": 38, "duration": 119, "velocity": 127}, {"time": 103682, "pitch": 40, "duration": 59, "velocity": 118}, {"time": 103682, "pitch": 42, "duration": 144, "velocity": 86}, {"time": 103682, "pitch": 54, "duration": 61, "velocity": 127}, {"time": 103801, "pitch": 38, "duration": 59, "velocity": 58}, {"time": 103919, "pitch": 38, "duration": 59, "velocity": 62}, {"time": 103919, "pitch": 46, "duration": 116, "velocity": 80}, {"time": 103919, "pitch": 54, "duration": 50, "velocity": 127}, {"time": 104038, "pitch": 38, "duration": 59, "velocity": 70}, {"time": 104156, "pitch": 36, "duration": 121, "velocity": 127}, {"time": 104156, "pitch": 38, "duration": 60, "velocity": 68}, {"time": 104277, "pitch": 38, "duration": 60, "velocity": 54}, {"time": 104397, "pitch": 38, "duration": 60, "velocity": 64}, {"time": 104397, "pitch": 46, "duration": 104, "velocity": 80}, {"time": 104397, "pitch": 54, "duration": 66, "velocity": 112}, {"time": 104518, "pitch": 38, "duration": 60, "velocity": 52}, {"time": 104638, "pitch": 38, "duration": 121, "velocity": 127}, {"time": 104638, "pitch": 40, "duration": 60, "velocity": 118}, {"time": 104638, "pitch": 42, "duration": 172, "velocity": 74}, {"time": 104638, "pitch": 54, "duration": 64, "velocity": 112}, {"time": 104759, "pitch": 38, "duration": 60, "velocity": 54}, {"time": 104879, "pitch": 38, "duration": 60, "velocity": 66}, {"time": 104879, "pitch": 46, "duration": 115, "velocity": 82}, {"time": 104879, "pitch": 54, "duration": 62, "velocity": 112}, {"time": 105000, "pitch": 38, "duration": 60, "velocity": 56}, {"time": 105120, "pitch": 38, "duration": 61, "velocity": 66}, {"time": 105120, "pitch": 42, "duration": 124, "velocity": 80}, {"time": 105120, "pitch": 54, "duration": 61, "velocity": 112}, {"time": 105241, "pitch": 38, "duration": 60, "velocity": 40}, {"time": 105301, "pitch": 38, "duration": 60, "velocity": 62}, {"time": 105361, "pitch": 36, "duration": 121, "velocity": 127}, {"time": 105361, "pitch": 38, "duration": 61, "velocity": 58}, {"time": 105361, "pitch": 46, "duration": 104, "velocity": 80}, {"time": 105361, "pitch": 54, "duration": 71, "velocity": 112}, {"time": 105482, "pitch": 38, "duration": 60, "velocity": 66}, {"time": 105602, "pitch": 38, "duration": 119, "velocity": 127}, {"time": 105602, "pitch": 40, "duration": 60, "velocity": 118}, {"time": 105602, "pitch": 42, "duration": 144, "velocity": 86}, {"time": 105602, "pitch": 54, "duration": 65, "velocity": 127}, {"time": 105721, "pitch": 38, "duration": 59, "velocity": 58}, {"time": 105839, "pitch": 38, "duration": 60, "velocity": 62}, {"time": 105839, "pitch": 46, "duration": 116, "velocity": 80}, {"time": 105839, "pitch": 54, "duration": 61, "velocity": 112}, {"time": 105958, "pitch": 38, "duration": 59, "velocity": 70}, {"time": 106076, "pitch": 36, "duration": 121, "velocity": 127}, {"time": 106076, "pitch": 38, "duration": 60, "velocity": 68}, {"time": 106076, "pitch": 54, "duration": 49, "velocity": 112}, {"time": 106197, "pitch": 38, "duration": 60, "velocity": 54}, {"time": 106317, "pitch": 38, "duration": 60, "velocity": 64}, {"time": 106317, "pitch": 46, "duration": 104, "velocity": 80}, {"time": 106317, "pitch": 54, "duration": 48, "velocity": 112}, {"time": 106438, "pitch": 38, "duration": 60, "velocity": 52}, {"time": 106558, "pitch": 38, "duration": 121, "velocity": 127}, {"time": 106558, "pitch": 40, "duration": 61, "velocity": 118}, {"time": 106558, "pitch": 42, "duration": 172, "velocity": 74}, {"time": 106558, "pitch": 54, "duration": 47, "velocity": 127}, {"time": 106679, "pitch": 38, "duration": 60, "velocity": 54}, {"time": 106799, "pitch": 38, "duration": 61, "velocity": 66}, {"time": 106799, "pitch": 46, "duration": 115, "velocity": 82}, {"time": 106799, "pitch": 54, "duration": 64, "velocity": 127}, {"time": 106920, "pitch": 38, "duration": 60, "velocity": 56}, {"time": 107040, "pitch": 38, "duration": 61, "velocity": 66}, {"time": 107040, "pitch": 42, "duration": 124, "velocity": 80}, {"time": 107040, "pitch": 54, "duration": 71, "velocity": 112}, {"time": 107161, "pitch": 38, "duration": 60, "velocity": 40}, {"time": 107221, "pitch": 38, "duration": 60, "velocity": 62}, {"time": 107281, "pitch": 36, "duration": 121, "velocity": 127}, {"time": 107281, "pitch": 38, "duration": 61, "velocity": 58}, {"time": 107281, "pitch": 46, "duration": 104, "velocity": 80}, {"time": 107281, "pitch": 54, "duration": 65, "velocity": 127}, {"time": 107402, "pitch": 36, "duration": 120, "velocity": 127}, {"time": 107402, "pitch": 38, "duration": 60, "velocity": 66}, {"time": 107522, "pitch": 38, "duration": 119, "velocity": 127}, {"time": 107522, "pitch": 40, "duration": 60, "velocity": 118}, {"time": 107522, "pitch": 42, "duration": 145, "velocity": 86}, {"time": 107522, "pitch": 54, "duration": 68, "velocity": 127}, {"time": 107641, "pitch": 38, "duration": 59, "velocity": 58}, {"time": 107759, "pitch": 38, "duration": 60, "velocity": 62}, {"time": 107759, "pitch": 46, "duration": 116, "velocity": 80}, {"time": 107759, "pitch": 54, "duration": 66, "velocity": 127}, {"time": 107878, "pitch": 38, "duration": 59, "velocity": 70}, {"time": 107996, "pitch": 36, "duration": 121, "velocity": 127}, {"time": 107996, "pitch": 38, "duration": 61, "velocity": 68}, {"time": 107996, "pitch": 54, "duration": 64, "velocity": 127}, {"time": 108117, "pitch": 38, "duration": 60, "velocity": 54}, {"time": 108237, "pitch": 38, "duration": 61, "velocity": 64}, {"time": 108237, "pitch": 46, "duration": 104, "velocity": 80}, {"time": 108237, "pitch": 54, "duration": 63, "velocity": 127}, {"time": 108358, "pitch": 38, "duration": 60, "velocity": 52}, {"time": 108478, "pitch": 38, "duration": 121, "velocity": 127}, {"time": 108478, "pitch": 40, "duration": 61, "velocity": 118}, {"time": 108478, "pitch": 42, "duration": 172, "velocity": 74}, {"time": 108478, "pitch": 54, "duration": 67, "velocity": 112}, {"time": 108599, "pitch": 38, "duration": 60, "velocity": 54}, {"time": 108719, "pitch": 38, "duration": 61, "velocity": 66}, {"time": 108719, "pitch": 46, "duration": 115, "velocity": 82}, {"time": 108719, "pitch": 54, "duration": 64, "velocity": 112}, {"time": 108840, "pitch": 38, "duration": 60, "velocity": 56}, {"time": 108960, "pitch": 38, "duration": 61, "velocity": 66}, {"time": 108960, "pitch": 42, "duration": 124, "velocity": 80}, {"time": 108960, "pitch": 54, "duration": 71, "velocity": 112}, {"time": 109081, "pitch": 38, "duration": 60, "velocity": 40}, {"time": 109141, "pitch": 38, "duration": 60, "velocity": 62}, {"time": 109201, "pitch": 36, "duration": 121, "velocity": 127}, {"time": 109201, "pitch": 38, "duration": 61, "velocity": 58}, {"time": 109201, "pitch": 46, "duration": 104, "velocity": 80}, {"time": 109201, "pitch": 54, "duration": 71, "velocity": 112}, {"time": 109322, "pitch": 38, "duration": 60, "velocity": 66}, {"time": 109442, "pitch": 38, "duration": 119, "velocity": 127}, {"time": 109442, "pitch": 40, "duration": 60, "velocity": 118}, {"time": 109442, "pitch": 42, "duration": 145, "velocity": 86}, {"time": 109442, "pitch": 54, "duration": 77, "velocity": 112}, {"time": 109561, "pitch": 38, "duration": 59, "velocity": 58}, {"time": 109679, "pitch": 38, "duration": 60, "velocity": 62}, {"time": 109679, "pitch": 46, "duration": 116, "velocity": 80}, {"time": 109679, "pitch": 54, "duration": 84, "velocity": 127}, {"time": 109798, "pitch": 38, "duration": 59, "velocity": 70}, {"time": 109916, "pitch": 36, "duration": 121, "velocity": 127}, {"time": 109916, "pitch": 38, "duration": 61, "velocity": 68}, {"time": 109916, "pitch": 54, "duration": 88, "velocity": 116}, {"time": 110037, "pitch": 38, "duration": 60, "velocity": 54}, {"time": 110157, "pitch": 38, "duration": 61, "velocity": 64}, {"time": 110157, "pitch": 46, "duration": 104, "velocity": 80}, {"time": 110157, "pitch": 54, "duration": 75, "velocity": 127}, {"time": 110278, "pitch": 38, "duration": 60, "velocity": 52}, {"time": 110398, "pitch": 38, "duration": 121, "velocity": 127}, {"time": 110398, "pitch": 40, "duration": 61, "velocity": 118}, {"time": 110398, "pitch": 42, "duration": 172, "velocity": 74}, {"time": 110398, "pitch": 54, "duration": 79, "velocity": 127}, {"time": 110519, "pitch": 38, "duration": 60, "velocity": 54}, {"time": 110639, "pitch": 38, "duration": 61, "velocity": 66}, {"time": 110639, "pitch": 46, "duration": 115, "velocity": 82}, {"time": 110639, "pitch": 54, "duration": 75, "velocity": 116}, {"time": 110760, "pitch": 38, "duration": 60, "velocity": 56}, {"time": 110881, "pitch": 36, "duration": 120, "velocity": 127}, {"time": 110881, "pitch": 38, "duration": 60, "velocity": 66}, {"time": 110881, "pitch": 42, "duration": 123, "velocity": 80}, {"time": 110881, "pitch": 54, "duration": 68, "velocity": 112}, {"time": 111001, "pitch": 38, "duration": 60, "velocity": 40}, {"time": 111061, "pitch": 38, "duration": 61, "velocity": 62}, {"time": 111122, "pitch": 36, "duration": 120, "velocity": 127}, {"time": 111122, "pitch": 38, "duration": 60, "velocity": 58}, {"time": 111122, "pitch": 46, "duration": 103, "velocity": 80}, {"time": 111122, "pitch": 54, "duration": 64, "velocity": 127}, {"time": 111242, "pitch": 38, "duration": 60, "velocity": 66}, {"time": 111363, "pitch": 38, "duration": 118, "velocity": 127}, {"time": 111363, "pitch": 40, "duration": 59, "velocity": 118}, {"time": 111363, "pitch": 42, "duration": 144, "velocity": 86}, {"time": 111363, "pitch": 54, "duration": 61, "velocity": 127}, {"time": 111481, "pitch": 38, "duration": 59, "velocity": 58}, {"time": 111600, "pitch": 38, "duration": 59, "velocity": 62}, {"time": 111600, "pitch": 46, "duration": 115, "velocity": 80}, {"time": 111600, "pitch": 54, "duration": 49, "velocity": 127}, {"time": 111718, "pitch": 38, "duration": 59, "velocity": 70}, {"time": 111836, "pitch": 36, "duration": 121, "velocity": 127}, {"time": 111836, "pitch": 38, "duration": 61, "velocity": 68}, {"time": 111957, "pitch": 38, "duration": 60, "velocity": 54}, {"time": 112077, "pitch": 38, "duration": 61, "velocity": 64}, {"time": 112077, "pitch": 54, "duration": 67, "velocity": 112}, {"time": 112198, "pitch": 38, "duration": 60, "velocity": 52}, {"time": 112319, "pitch": 38, "duration": 120, "velocity": 127}, {"time": 112319, "pitch": 40, "duration": 60, "velocity": 118}, {"time": 112319, "pitch": 54, "duration": 64, "velocity": 112}, {"time": 112439, "pitch": 38, "duration": 60, "velocity": 54}, {"time": 112560, "pitch": 38, "duration": 60, "velocity": 66}, {"time": 112560, "pitch": 54, "duration": 62, "velocity": 112}, {"time": 112680, "pitch": 38, "duration": 60, "velocity": 56}, {"time": 112801, "pitch": 36, "duration": 120, "velocity": 127}, {"time": 112801, "pitch": 38, "duration": 60, "velocity": 66}, {"time": 112801, "pitch": 54, "duration": 60, "velocity": 112}, {"time": 112921, "pitch": 38, "duration": 60, "velocity": 40}, {"time": 112981, "pitch": 38, "duration": 61, "velocity": 62}, {"time": 113042, "pitch": 36, "duration": 120, "velocity": 127}, {"time": 113042, "pitch": 38, "duration": 60, "velocity": 58}, {"time": 113042, "pitch": 54, "duration": 70, "velocity": 112}, {"time": 113162, "pitch": 38, "duration": 60, "velocity": 66}, {"time": 113283, "pitch": 38, "duration": 118, "velocity": 127}, {"time": 113283, "pitch": 40, "duration": 59, "velocity": 118}, {"time": 113283, "pitch": 54, "duration": 65, "velocity": 127}, {"time": 113401, "pitch": 38, "duration": 59, "velocity": 58}, {"time": 113520, "pitch": 38, "duration": 59, "velocity": 62}, {"time": 113520, "pitch": 54, "duration": 61, "velocity": 112}, {"time": 113638, "pitch": 38, "duration": 59, "velocity": 70}, {"time": 113757, "pitch": 36, "duration": 120, "velocity": 127}, {"time": 113757, "pitch": 38, "duration": 60, "velocity": 68}, {"time": 113757, "pitch": 54, "duration": 49, "velocity": 112}, {"time": 113877, "pitch": 38, "duration": 60, "velocity": 54}, {"time": 113998, "pitch": 38, "duration": 60, "velocity": 64}, {"time": 113998, "pitch": 54, "duration": 48, "velocity": 112}, {"time": 114118, "pitch": 38, "duration": 60, "velocity": 52}, {"time": 114239, "pitch": 38, "duration": 120, "velocity": 127}, {"time": 114239, "pitch": 40, "duration": 60, "velocity": 118}, {"time": 114239, "pitch": 54, "duration": 47, "velocity": 127}, {"time": 114359, "pitch": 38, "duration": 60, "velocity": 54}, {"time": 114480, "pitch": 38, "duration": 60, "velocity": 66}, {"time": 114480, "pitch": 54, "duration": 63, "velocity": 127}, {"time": 114600, "pitch": 38, "duration": 60, "velocity": 56}, {"time": 114721, "pitch": 36, "duration": 120, "velocity": 127}, {"time": 114721, "pitch": 38, "duration": 60, "velocity": 66}, {"time": 114721, "pitch": 54, "duration": 70, "velocity": 112}, {"time": 114841, "pitch": 38, "duration": 60, "velocity": 40}, {"time": 114901, "pitch": 38, "duration": 61, "velocity": 62}, {"time": 114962, "pitch": 36, "duration": 120, "velocity": 127}, {"time": 114962, "pitch": 38, "duration": 60, "velocity": 58}, {"time": 114962, "pitch": 54, "duration": 64, "velocity": 127}, {"time": 115082, "pitch": 38, "duration": 60, "velocity": 66}, {"time": 115203, "pitch": 38, "duration": 118, "velocity": 127}, {"time": 115203, "pitch": 40, "duration": 59, "velocity": 118}, {"time": 115203, "pitch": 54, "duration": 67, "velocity": 127}, {"time": 115321, "pitch": 38, "duration": 59, "velocity": 58}, {"time": 115440, "pitch": 38, "duration": 59, "velocity": 62}, {"time": 115440, "pitch": 54, "duration": 65, "velocity": 127}, {"time": 115558, "pitch": 36, "duration": 119, "velocity": 127}, {"time": 115558, "pitch": 38, "duration": 59, "velocity": 70}, {"time": 115677, "pitch": 36, "duration": 120, "velocity": 127}, {"time": 115677, "pitch": 38, "duration": 60, "velocity": 68}, {"time": 115677, "pitch": 54, "duration": 63, "velocity": 127}, {"time": 115797, "pitch": 38, "duration": 60, "velocity": 54}, {"time": 115918, "pitch": 38, "duration": 60, "velocity": 64}, {"time": 115918, "pitch": 54, "duration": 62, "velocity": 127}, {"time": 116038, "pitch": 38, "duration": 60, "velocity": 52}, {"time": 116159, "pitch": 38, "duration": 120, "velocity": 127}, {"time": 116159, "pitch": 40, "duration": 60, "velocity": 118}, {"time": 116159, "pitch": 54, "duration": 66, "velocity": 112}, {"time": 116279, "pitch": 38, "duration": 60, "velocity": 54}, {"time": 116400, "pitch": 38, "duration": 60, "velocity": 66}, {"time": 116400, "pitch": 54, "duration": 63, "velocity": 112}, {"time": 116520, "pitch": 38, "duration": 60, "velocity": 56}, {"time": 116641, "pitch": 36, "duration": 120, "velocity": 127}, {"time": 116641, "pitch": 38, "duration": 60, "velocity": 66}, {"time": 116641, "pitch": 54, "duration": 70, "velocity": 112}, {"time": 116761, "pitch": 38, "duration": 61, "velocity": 40}, {"time": 116822, "pitch": 38, "duration": 60, "velocity": 62}, {"time": 116882, "pitch": 36, "duration": 120, "velocity": 127}, {"time": 116882, "pitch": 38, "duration": 60, "velocity": 58}, {"time": 116882, "pitch": 54, "duration": 70, "velocity": 112}, {"time": 117002, "pitch": 38, "duration": 61, "velocity": 66}, {"time": 117123, "pitch": 38, "duration": 118, "velocity": 127}, {"time": 117123, "pitch": 40, "duration": 59, "velocity": 118}, {"time": 117123, "pitch": 54, "duration": 76, "velocity": 112}, {"time": 117241, "pitch": 38, "duration": 60, "velocity": 58}, {"time": 117360, "pitch": 38, "duration": 59, "velocity": 62}, {"time": 117360, "pitch": 54, "duration": 84, "velocity": 127}, {"time": 117478, "pitch": 38, "duration": 59, "velocity": 70}, {"time": 117597, "pitch": 36, "duration": 120, "velocity": 127}, {"time": 117597, "pitch": 38, "duration": 60, "velocity": 68}, {"time": 117597, "pitch": 54, "duration": 87, "velocity": 116}, {"time": 117717, "pitch": 38, "duration": 60, "velocity": 54}, {"time": 117838, "pitch": 38, "duration": 60, "velocity": 64}, {"time": 117838, "pitch": 54, "duration": 74, "velocity": 127}, {"time": 117958, "pitch": 38, "duration": 60, "velocity": 52}, {"time": 118079, "pitch": 38, "duration": 120, "velocity": 127}, {"time": 118079, "pitch": 40, "duration": 60, "velocity": 118}, {"time": 118079, "pitch": 54, "duration": 78, "velocity": 127}, {"time": 118199, "pitch": 38, "duration": 61, "velocity": 54}, {"time": 118320, "pitch": 38, "duration": 60, "velocity": 66}, {"time": 118320, "pitch": 54, "duration": 74, "velocity": 116}, {"time": 118440, "pitch": 38, "duration": 61, "velocity": 56}, {"time": 118561, "pitch": 38, "duration": 60, "velocity": 66}, {"time": 118561, "pitch": 54, "duration": 68, "velocity": 112}, {"time": 118681, "pitch": 38, "duration": 61, "velocity": 40}, {"time": 118742, "pitch": 38, "duration": 60, "velocity": 62}, {"time": 118802, "pitch": 36, "duration": 120, "velocity": 127}, {"time": 118802, "pitch": 38, "duration": 60, "velocity": 58}, {"time": 118802, "pitch": 54, "duration": 64, "velocity": 127}, {"time": 118922, "pitch": 38, "duration": 61, "velocity": 66}, {"time": 119043, "pitch": 38, "duration": 118, "velocity": 127}, {"time": 119043, "pitch": 40, "duration": 59, "velocity": 118}, {"time": 119043, "pitch": 54, "duration": 61, "velocity": 127}, {"time": 119161, "pitch": 38, "duration": 60, "velocity": 58}, {"time": 119280, "pitch": 38, "duration": 59, "velocity": 62}, {"time": 119280, "pitch": 54, "duration": 49, "velocity": 127}, {"time": 119398, "pitch": 38, "duration": 60, "velocity": 70}, {"time": 119517, "pitch": 36, "duration": 120, "velocity": 127}, {"time": 119517, "pitch": 38, "duration": 60, "velocity": 68}, {"time": 119637, "pitch": 38, "duration": 61, "velocity": 54}, {"time": 119758, "pitch": 38, "duration": 60, "velocity": 64}, {"time": 119758, "pitch": 54, "duration": 66, "velocity": 112}, {"time": 119878, "pitch": 38, "duration": 61, "velocity": 52}, {"time": 119999, "pitch": 38, "duration": 120, "velocity": 127}, {"time": 119999, "pitch": 40, "duration": 60, "velocity": 118}, {"time": 119999, "pitch": 54, "duration": 64, "velocity": 112}, {"time": 120119, "pitch": 38, "duration": 61, "velocity": 54}, {"time": 120240, "pitch": 38, "duration": 60, "velocity": 66}, {"time": 120240, "pitch": 54, "duration": 62, "velocity": 112}, {"time": 120360, "pitch": 38, "duration": 61, "velocity": 56}, {"time": 120481, "pitch": 38, "duration": 60, "velocity": 66}, {"time": 120481, "pitch": 54, "duration": 60, "velocity": 112}, {"time": 120601, "pitch": 38, "duration": 61, "velocity": 40}, {"time": 120662, "pitch": 38, "duration": 60, "velocity": 62}, {"time": 120722, "pitch": 36, "duration": 120, "velocity": 127}, {"time": 120722, "pitch": 38, "duration": 60, "velocity": 58}, {"time": 120722, "pitch": 54, "duration": 70, "velocity": 112}, {"time": 120842, "pitch": 38, "duration": 61, "velocity": 66}, {"time": 120963, "pitch": 38, "duration": 118, "velocity": 127}, {"time": 120963, "pitch": 40, "duration": 59, "velocity": 118}, {"time": 120963, "pitch": 54, "duration": 65, "velocity": 127}, {"time": 121081, "pitch": 38, "duration": 60, "velocity": 58}, {"time": 121200, "pitch": 38, "duration": 59, "velocity": 62}, {"time": 121200, "pitch": 54, "duration": 61, "velocity": 112}, {"time": 121318, "pitch": 38, "duration": 60, "velocity": 70}, {"time": 121437, "pitch": 36, "duration": 120, "velocity": 127}, {"time": 121437, "pitch": 38, "duration": 60, "velocity": 68}, {"time": 121437, "pitch": 54, "duration": 49, "velocity": 112}, {"time": 121557, "pitch": 38, "duration": 61, "velocity": 54}, {"time": 121678, "pitch": 38, "duration": 60, "velocity": 64}, {"time": 121678, "pitch": 54, "duration": 48, "velocity": 112}, {"time": 121798, "pitch": 38, "duration": 61, "velocity": 52}, {"time": 121919, "pitch": 38, "duration": 120, "velocity": 127}, {"time": 121919, "pitch": 40, "duration": 60, "velocity": 118}, {"time": 121919, "pitch": 54, "duration": 47, "velocity": 127}, {"time": 122039, "pitch": 38, "duration": 61, "velocity": 54}, {"time": 122160, "pitch": 38, "duration": 60, "velocity": 66}, {"time": 122160, "pitch": 54, "duration": 63, "velocity": 127}, {"time": 122280, "pitch": 38, "duration": 61, "velocity": 56}, {"time": 122401, "pitch": 38, "duration": 60, "velocity": 66}, {"time": 122401, "pitch": 54, "duration": 70, "velocity": 112}, {"time": 122522, "pitch": 38, "duration": 60, "velocity": 40}, {"time": 122582, "pitch": 38, "duration": 60, "velocity": 62}, {"time": 122642, "pitch": 36, "duration": 121, "velocity": 127}, {"time": 122642, "pitch": 38, "duration": 60, "velocity": 58}, {"time": 122642, "pitch": 54, "duration": 64, "velocity": 127}, {"time": 122763, "pitch": 36, "duration": 120, "velocity": 127}, {"time": 122763, "pitch": 38, "duration": 60, "velocity": 66}, {"time": 122883, "pitch": 38, "duration": 119, "velocity": 127}, {"time": 122883, "pitch": 40, "duration": 59, "velocity": 118}, {"time": 122883, "pitch": 54, "duration": 67, "velocity": 127}, {"time": 123002, "pitch": 38, "duration": 59, "velocity": 58}, {"time": 123120, "pitch": 38, "duration": 59, "velocity": 62}, {"time": 123120, "pitch": 54, "duration": 65, "velocity": 127}, {"time": 123238, "pitch": 38, "duration": 60, "velocity": 70}, {"time": 123357, "pitch": 36, "duration": 120, "velocity": 127}, {"time": 123357, "pitch": 38, "duration": 60, "velocity": 68}, {"time": 123357, "pitch": 54, "duration": 63, "velocity": 127}, {"time": 123477, "pitch": 38, "duration": 61, "velocity": 54}, {"time": 123598, "pitch": 38, "duration": 60, "velocity": 64}, {"time": 123598, "pitch": 54, "duration": 62, "velocity": 127}, {"time": 123718, "pitch": 38, "duration": 61, "velocity": 52}, {"time": 123839, "pitch": 38, "duration": 120, "velocity": 127}, {"time": 123839, "pitch": 40, "duration": 60, "velocity": 118}, {"time": 123839, "pitch": 54, "duration": 66, "velocity": 112}, {"time": 123959, "pitch": 38, "duration": 61, "velocity": 54}, {"time": 124080, "pitch": 38, "duration": 60, "velocity": 66}, {"time": 124080, "pitch": 54, "duration": 63, "velocity": 112}, {"time": 124201, "pitch": 38, "duration": 60, "velocity": 56}, {"time": 124321, "pitch": 38, "duration": 60, "velocity": 66}, {"time": 124321, "pitch": 54, "duration": 70, "velocity": 112}, {"time": 124442, "pitch": 38, "duration": 60, "velocity": 40}, {"time": 124502, "pitch": 38, "duration": 60, "velocity": 62}, {"time": 124562, "pitch": 36, "duration": 121, "velocity": 127}, {"time": 124562, "pitch": 38, "duration": 60, "velocity": 58}, {"time": 124562, "pitch": 54, "duration": 70, "velocity": 112}, {"time": 124683, "pitch": 38, "duration": 60, "velocity": 66}, {"time": 124803, "pitch": 38, "duration": 119, "velocity": 127}, {"time": 124803, "pitch": 40, "duration": 59, "velocity": 118}, {"time": 124803, "pitch": 54, "duration": 76, "velocity": 112}, {"time": 124922, "pitch": 38, "duration": 59, "velocity": 58}, {"time": 125040, "pitch": 38, "duration": 59, "velocity": 62}, {"time": 125040, "pitch": 54, "duration": 84, "velocity": 127}, {"time": 125159, "pitch": 38, "duration": 59, "velocity": 70}, {"time": 125277, "pitch": 36, "duration": 120, "velocity": 127}, {"time": 125277, "pitch": 38, "duration": 60, "velocity": 68}, {"time": 125277, "pitch": 54, "duration": 87, "velocity": 116}, {"time": 125397, "pitch": 38, "duration": 61, "velocity": 54}, {"time": 125518, "pitch": 38, "duration": 60, "velocity": 64}, {"time": 125518, "pitch": 54, "duration": 74, "velocity": 127}, {"time": 125639, "pitch": 38, "duration": 60, "velocity": 52}, {"time": 125759, "pitch": 38, "duration": 121, "velocity": 127}, {"time": 125759, "pitch": 40, "duration": 60, "velocity": 118}, {"time": 125759, "pitch": 54, "duration": 78, "velocity": 127}, {"time": 125880, "pitch": 38, "duration": 60, "velocity": 54}, {"time": 126000, "pitch": 38, "duration": 60, "velocity": 66}, {"time": 126000, "pitch": 54, "duration": 74, "velocity": 116}, {"time": 126121, "pitch": 38, "duration": 60, "velocity": 56}, {"time": 126241, "pitch": 36, "duration": 121, "velocity": 127}, {"time": 126241, "pitch": 38, "duration": 60, "velocity": 66}, {"time": 126241, "pitch": 54, "duration": 68, "velocity": 112}, {"time": 126362, "pitch": 38, "duration": 60, "velocity": 40}, {"time": 126422, "pitch": 38, "duration": 60, "velocity": 62}, {"time": 126482, "pitch": 36, "duration": 121, "velocity": 127}, {"time": 126482, "pitch": 38, "duration": 60, "velocity": 58}, {"time": 126482, "pitch": 54, "duration": 64, "velocity": 127}, {"time": 126603, "pitch": 38, "duration": 60, "velocity": 66}, {"time": 126723, "pitch": 38, "duration": 119, "velocity": 127}, {"time": 126723, "pitch": 40, "duration": 59, "velocity": 118}, {"time": 126723, "pitch": 54, "duration": 61, "velocity": 127}, {"time": 126842, "pitch": 38, "duration": 59, "velocity": 58}, {"time": 126960, "pitch": 38, "duration": 59, "velocity": 62}, {"time": 126960, "pitch": 54, "duration": 50, "velocity": 127}, {"time": 127079, "pitch": 38, "duration": 59, "velocity": 70}, {"time": 127197, "pitch": 36, "duration": 121, "velocity": 127}, {"time": 127197, "pitch": 38, "duration": 60, "velocity": 68}, {"time": 127197, "pitch": 57, "duration": 97, "velocity": 54}, {"time": 127318, "pitch": 38, "duration": 60, "velocity": 54}, {"time": 127438, "pitch": 38, "duration": 60, "velocity": 64}, {"time": 127438, "pitch": 54, "duration": 66, "velocity": 112}, {"time": 127559, "pitch": 38, "duration": 60, "velocity": 52}, {"time": 127679, "pitch": 38, "duration": 121, "velocity": 127}, {"time": 127679, "pitch": 40, "duration": 60, "velocity": 118}, {"time": 127679, "pitch": 53, "duration": 121, "velocity": 60}, {"time": 127679, "pitch": 54, "duration": 64, "velocity": 112}, {"time": 127800, "pitch": 38, "duration": 60, "velocity": 54}, {"time": 127920, "pitch": 38, "duration": 60, "velocity": 66}, {"time": 127920, "pitch": 54, "duration": 62, "velocity": 112}, {"time": 128041, "pitch": 38, "duration": 60, "velocity": 56}, {"time": 128161, "pitch": 36, "duration": 121, "velocity": 127}, {"time": 128161, "pitch": 38, "duration": 60, "velocity": 66}, {"time": 128161, "pitch": 53, "duration": 116, "velocity": 56}, {"time": 128161, "pitch": 54, "duration": 60, "velocity": 112}, {"time": 128282, "pitch": 38, "duration": 60, "velocity": 40}, {"time": 128342, "pitch": 38, "duration": 60, "velocity": 62}, {"time": 128402, "pitch": 36, "duration": 121, "velocity": 127}, {"time": 128402, "pitch": 38, "duration": 61, "velocity": 58}, {"time": 128402, "pitch": 54, "duration": 71, "velocity": 112}, {"time": 128523, "pitch": 38, "duration": 60, "velocity": 66}, {"time": 128643, "pitch": 38, "duration": 119, "velocity": 127}, {"time": 128643, "pitch": 40, "duration": 59, "velocity": 118}, {"time": 128643, "pitch": 53, "duration": 105, "velocity": 62}, {"time": 128643, "pitch": 54, "duration": 65, "velocity": 127}, {"time": 128762, "pitch": 38, "duration": 59, "velocity": 58}, {"time": 128880, "pitch": 38, "duration": 59, "velocity": 62}, {"time": 128880, "pitch": 54, "duration": 61, "velocity": 112}, {"time": 128999, "pitch": 38, "duration": 59, "velocity": 70}, {"time": 129117, "pitch": 36, "duration": 121, "velocity": 127}, {"time": 129117, "pitch": 38, "duration": 60, "velocity": 68}, {"time": 129117, "pitch": 53, "duration": 126, "velocity": 52}, {"time": 129117, "pitch": 54, "duration": 49, "velocity": 112}, {"time": 129238, "pitch": 38, "duration": 60, "velocity": 54}, {"time": 129358, "pitch": 38, "duration": 60, "velocity": 64}, {"time": 129358, "pitch": 54, "duration": 48, "velocity": 112}, {"time": 129479, "pitch": 38, "duration": 60, "velocity": 52}, {"time": 129599, "pitch": 38, "duration": 121, "velocity": 127}, {"time": 129599, "pitch": 40, "duration": 60, "velocity": 118}, {"time": 129599, "pitch": 53, "duration": 100, "velocity": 56}, {"time": 129599, "pitch": 54, "duration": 47, "velocity": 127}, {"time": 129720, "pitch": 38, "duration": 60, "velocity": 54}, {"time": 129840, "pitch": 38, "duration": 61, "velocity": 66}, {"time": 129840, "pitch": 54, "duration": 64, "velocity": 127}, {"time": 129961, "pitch": 38, "duration": 60, "velocity": 56}, {"time": 130081, "pitch": 36, "duration": 121, "velocity": 127}, {"time": 130081, "pitch": 38, "duration": 61, "velocity": 66}, {"time": 130081, "pitch": 53, "duration": 107, "velocity": 58}, {"time": 130081, "pitch": 54, "duration": 71, "velocity": 112}, {"time": 130202, "pitch": 38, "duration": 60, "velocity": 40}, {"time": 130262, "pitch": 38, "duration": 60, "velocity": 62}, {"time": 130322, "pitch": 36, "duration": 121, "velocity": 127}, {"time": 130322, "pitch": 38, "duration": 61, "velocity": 58}, {"time": 130322, "pitch": 54, "duration": 65, "velocity": 127}, {"time": 130443, "pitch": 38, "duration": 60, "velocity": 66}, {"time": 130563, "pitch": 38, "duration": 119, "velocity": 127}, {"time": 130563, "pitch": 40, "duration": 60, "velocity": 118}, {"time": 130563, "pitch": 53, "duration": 91, "velocity": 54}, {"time": 130563, "pitch": 54, "duration": 67, "velocity": 127}, {"time": 130682, "pitch": 38, "duration": 59, "velocity": 58}, {"time": 130800, "pitch": 38, "duration": 60, "velocity": 62}, {"time": 130800, "pitch": 54, "duration": 65, "velocity": 127}, {"time": 130919, "pitch": 36, "duration": 118, "velocity": 127}, {"time": 130919, "pitch": 38, "duration": 59, "velocity": 70}, {"time": 131037, "pitch": 36, "duration": 121, "velocity": 127}, {"time": 131037, "pitch": 38, "duration": 60, "velocity": 68}, {"time": 131037, "pitch": 53, "duration": 113, "velocity": 53}, {"time": 131037, "pitch": 54, "duration": 63, "velocity": 127}, {"time": 131158, "pitch": 38, "duration": 60, "velocity": 54}, {"time": 131278, "pitch": 38, "duration": 61, "velocity": 64}, {"time": 131278, "pitch": 54, "duration": 63, "velocity": 127}, {"time": 131399, "pitch": 38, "duration": 60, "velocity": 52}, {"time": 131519, "pitch": 38, "duration": 121, "velocity": 127}, {"time": 131519, "pitch": 40, "duration": 61, "velocity": 118}, {"time": 131519, "pitch": 53, "duration": 110, "velocity": 58}, {"time": 131519, "pitch": 54, "duration": 67, "velocity": 112}, {"time": 131640, "pitch": 38, "duration": 60, "velocity": 54}, {"time": 131760, "pitch": 38, "duration": 61, "velocity": 66}, {"time": 131760, "pitch": 54, "duration": 64, "velocity": 112}, {"time": 131881, "pitch": 38, "duration": 60, "velocity": 56}, {"time": 132001, "pitch": 36, "duration": 121, "velocity": 127}, {"time": 132001, "pitch": 38, "duration": 61, "velocity": 66}, {"time": 132001, "pitch": 53, "duration": 98, "velocity": 51}, {"time": 132001, "pitch": 54, "duration": 71, "velocity": 112}, {"time": 132122, "pitch": 38, "duration": 60, "velocity": 40}, {"time": 132182, "pitch": 38, "duration": 60, "velocity": 62}, {"time": 132242, "pitch": 36, "duration": 121, "velocity": 127}, {"time": 132242, "pitch": 38, "duration": 61, "velocity": 58}, {"time": 132242, "pitch": 54, "duration": 71, "velocity": 112}, {"time": 132363, "pitch": 38, "duration": 60, "velocity": 66}, {"time": 132483, "pitch": 38, "duration": 119, "velocity": 127}, {"time": 132483, "pitch": 40, "duration": 60, "velocity": 118}, {"time": 132483, "pitch": 53, "duration": 86, "velocity": 54}, {"time": 132483, "pitch": 54, "duration": 76, "velocity": 112}, {"time": 132602, "pitch": 38, "duration": 59, "velocity": 58}, {"time": 132720, "pitch": 38, "duration": 60, "velocity": 62}, {"time": 132720, "pitch": 54, "duration": 84, "velocity": 127}, {"time": 132839, "pitch": 38, "duration": 59, "velocity": 70}, {"time": 132957, "pitch": 36, "duration": 121, "velocity": 127}, {"time": 132957, "pitch": 38, "duration": 61, "velocity": 68}, {"time": 132957, "pitch": 53, "duration": 112, "velocity": 51}, {"time": 132957, "pitch": 54, "duration": 88, "velocity": 116}, {"time": 133078, "pitch": 38, "duration": 60, "velocity": 54}, {"time": 133198, "pitch": 38, "duration": 61, "velocity": 64}, {"time": 133198, "pitch": 54, "duration": 75, "velocity": 127}, {"time": 133319, "pitch": 38, "duration": 60, "velocity": 52}, {"time": 133439, "pitch": 38, "duration": 121, "velocity": 127}, {"time": 133439, "pitch": 40, "duration": 61, "velocity": 118}, {"time": 133439, "pitch": 53, "duration": 113, "velocity": 53}, {"time": 133439, "pitch": 54, "duration": 79, "velocity": 127}, {"time": 133560, "pitch": 38, "duration": 60, "velocity": 54}, {"time": 133680, "pitch": 38, "duration": 61, "velocity": 66}, {"time": 133680, "pitch": 54, "duration": 75, "velocity": 116}, {"time": 133801, "pitch": 38, "duration": 60, "velocity": 56}, {"time": 133921, "pitch": 38, "duration": 61, "velocity": 66}, {"time": 133921, "pitch": 53, "duration": 132, "velocity": 56}, {"time": 133921, "pitch": 54, "duration": 69, "velocity": 112}, {"time": 134042, "pitch": 38, "duration": 60, "velocity": 40}, {"time": 134102, "pitch": 38, "duration": 61, "velocity": 62}, {"time": 134163, "pitch": 36, "duration": 120, "velocity": 127}, {"time": 134163, "pitch": 38, "duration": 60, "velocity": 58}, {"time": 134163, "pitch": 54, "duration": 64, "velocity": 127}, {"time": 134283, "pitch": 38, "duration": 60, "velocity": 66}, {"time": 134403, "pitch": 38, "duration": 119, "velocity": 127}, {"time": 134403, "pitch": 40, "duration": 60, "velocity": 118}, {"time": 134403, "pitch": 53, "duration": 102, "velocity": 62}, {"time": 134403, "pitch": 54, "duration": 62, "velocity": 127}, {"time": 134522, "pitch": 38, "duration": 59, "velocity": 58}, {"time": 134640, "pitch": 38, "duration": 60, "velocity": 62}, {"time": 134640, "pitch": 54, "duration": 50, "velocity": 127}, {"time": 134759, "pitch": 38, "duration": 59, "velocity": 70}, {"time": 134877, "pitch": 36, "duration": 121, "velocity": 127}, {"time": 134877, "pitch": 38, "duration": 61, "velocity": 68}, {"time": 134877, "pitch": 57, "duration": 98, "velocity": 54}, {"time": 134998, "pitch": 38, "duration": 60, "velocity": 54}, {"time": 135118, "pitch": 38, "duration": 61, "velocity": 64}, {"time": 135118, "pitch": 54, "duration": 67, "velocity": 112}, {"time": 135239, "pitch": 38, "duration": 60, "velocity": 52}, {"time": 135359, "pitch": 38, "duration": 121, "velocity": 127}, {"time": 135359, "pitch": 40, "duration": 61, "velocity": 118}, {"time": 135359, "pitch": 53, "duration": 118, "velocity": 62}, {"time": 135359, "pitch": 54, "duration": 65, "velocity": 112}, {"time": 135480, "pitch": 38, "duration": 60, "velocity": 54}, {"time": 135600, "pitch": 38, "duration": 61, "velocity": 66}, {"time": 135600, "pitch": 54, "duration": 63, "velocity": 112}, {"time": 135721, "pitch": 38, "duration": 60, "velocity": 56}, {"time": 135842, "pitch": 38, "duration": 60, "velocity": 66}, {"time": 135842, "pitch": 53, "duration": 113, "velocity": 52}, {"time": 135842, "pitch": 54, "duration": 60, "velocity": 112}, {"time": 135962, "pitch": 38, "duration": 60, "velocity": 40}, {"time": 136022, "pitch": 38, "duration": 61, "velocity": 62}, {"time": 136083, "pitch": 36, "duration": 120, "velocity": 127}, {"time": 136083, "pitch": 38, "duration": 60, "velocity": 58}, {"time": 136083, "pitch": 54, "duration": 70, "velocity": 112}, {"time": 136203, "pitch": 38, "duration": 60, "velocity": 66}, {"time": 136324, "pitch": 38, "duration": 118, "velocity": 127}, {"time": 136324, "pitch": 40, "duration": 59, "velocity": 118}, {"time": 136324, "pitch": 53, "duration": 96, "velocity": 52}, {"time": 136324, "pitch": 54, "duration": 65, "velocity": 127}, {"time": 136442, "pitch": 38, "duration": 59, "velocity": 58}, {"time": 136561, "pitch": 38, "duration": 59, "velocity": 62}, {"time": 136561, "pitch": 54, "duration": 61, "velocity": 112}, {"time": 136679, "pitch": 38, "duration": 59, "velocity": 70}, {"time": 136797, "pitch": 36, "duration": 121, "velocity": 127}, {"time": 136797, "pitch": 38, "duration": 61, "velocity": 68}, {"time": 136797, "pitch": 53, "duration": 128, "velocity": 58}, {"time": 136797, "pitch": 54, "duration": 50, "velocity": 112}, {"time": 136918, "pitch": 38, "duration": 60, "velocity": 54}, {"time": 137038, "pitch": 38, "duration": 61, "velocity": 64}, {"time": 137038, "pitch": 54, "duration": 49, "velocity": 112}, {"time": 137159, "pitch": 38, "duration": 60, "velocity": 52}, {"time": 137280, "pitch": 38, "duration": 120, "velocity": 127}, {"time": 137280, "pitch": 40, "duration": 60, "velocity": 118}, {"time": 137280, "pitch": 53, "duration": 131, "velocity": 60}, {"time": 137280, "pitch": 54, "duration": 47, "velocity": 127}, {"time": 137400, "pitch": 38, "duration": 60, "velocity": 54}, {"time": 137521, "pitch": 38, "duration": 60, "velocity": 66}, {"time": 137521, "pitch": 54, "duration": 63, "velocity": 127}, {"time": 137641, "pitch": 38, "duration": 60, "velocity": 56}, {"time": 137762, "pitch": 38, "duration": 60, "velocity": 66}, {"time": 137762, "pitch": 53, "duration": 127, "velocity": 68}, {"time": 137762, "pitch": 54, "duration": 70, "velocity": 112}, {"time": 137882, "pitch": 38, "duration": 60, "velocity": 40}, {"time": 137942, "pitch": 38, "duration": 61, "velocity": 62}, {"time": 138003, "pitch": 36, "duration": 120, "velocity": 127}, {"time": 138003, "pitch": 38, "duration": 60, "velocity": 58}, {"time": 138003, "pitch": 54, "duration": 64, "velocity": 127}, {"time": 138123, "pitch": 36, "duration": 121, "velocity": 127}, {"time": 138123, "pitch": 38, "duration": 60, "velocity": 66}, {"time": 138244, "pitch": 38, "duration": 118, "velocity": 127}, {"time": 138244, "pitch": 40, "duration": 59, "velocity": 118}, {"time": 138244, "pitch": 53, "duration": 121, "velocity": 70}, {"time": 138244, "pitch": 54, "duration": 67, "velocity": 127}, {"time": 138362, "pitch": 38, "duration": 59, "velocity": 58}, {"time": 138481, "pitch": 38, "duration": 59, "velocity": 62}, {"time": 138481, "pitch": 54, "duration": 65, "velocity": 127}, {"time": 138599, "pitch": 38, "duration": 59, "velocity": 70}, {"time": 138718, "pitch": 36, "duration": 120, "velocity": 127}, {"time": 138718, "pitch": 38, "duration": 60, "velocity": 68}, {"time": 138718, "pitch": 53, "duration": 134, "velocity": 64}, {"time": 138718, "pitch": 54, "duration": 63, "velocity": 127}, {"time": 138838, "pitch": 38, "duration": 60, "velocity": 54}, {"time": 138959, "pitch": 38, "duration": 60, "velocity": 64}, {"time": 138959, "pitch": 54, "duration": 62, "velocity": 127}, {"time": 139079, "pitch": 38, "duration": 60, "velocity": 52}, {"time": 139200, "pitch": 38, "duration": 120, "velocity": 127}, {"time": 139200, "pitch": 40, "duration": 60, "velocity": 118}, {"time": 139200, "pitch": 53, "duration": 114, "velocity": 70}, {"time": 139200, "pitch": 54, "duration": 66, "velocity": 112}, {"time": 139320, "pitch": 38, "duration": 60, "velocity": 54}, {"time": 139441, "pitch": 38, "duration": 60, "velocity": 66}, {"time": 139441, "pitch": 54, "duration": 63, "velocity": 112}, {"time": 139561, "pitch": 38, "duration": 60, "velocity": 56}, {"time": 139682, "pitch": 38, "duration": 60, "velocity": 66}, {"time": 139682, "pitch": 53, "duration": 109, "velocity": 76}, {"time": 139682, "pitch": 54, "duration": 70, "velocity": 112}, {"time": 139802, "pitch": 38, "duration": 60, "velocity": 40}, {"time": 139862, "pitch": 38, "duration": 61, "velocity": 62}, {"time": 139923, "pitch": 36, "duration": 120, "velocity": 127}, {"time": 139923, "pitch": 38, "duration": 60, "velocity": 58}, {"time": 139923, "pitch": 54, "duration": 70, "velocity": 112}, {"time": 140043, "pitch": 38, "duration": 61, "velocity": 66}, {"time": 140164, "pitch": 38, "duration": 118, "velocity": 127}, {"time": 140164, "pitch": 40, "duration": 59, "velocity": 118}, {"time": 140164, "pitch": 53, "duration": 103, "velocity": 70}, {"time": 140164, "pitch": 54, "duration": 76, "velocity": 112}, {"time": 140282, "pitch": 38, "duration": 59, "velocity": 58}, {"time": 140401, "pitch": 38, "duration": 59, "velocity": 62}, {"time": 140401, "pitch": 54, "duration": 84, "velocity": 127}, {"time": 140519, "pitch": 38, "duration": 59, "velocity": 70}, {"time": 140638, "pitch": 36, "duration": 120, "velocity": 127}, {"time": 140638, "pitch": 38, "duration": 60, "velocity": 68}, {"time": 140638, "pitch": 53, "duration": 122, "velocity": 82}, {"time": 140638, "pitch": 54, "duration": 87, "velocity": 116}, {"time": 140758, "pitch": 38, "duration": 60, "velocity": 54}, {"time": 140879, "pitch": 38, "duration": 60, "velocity": 64}, {"time": 140879, "pitch": 54, "duration": 74, "velocity": 127}, {"time": 140999, "pitch": 38, "duration": 60, "velocity": 52}, {"time": 141120, "pitch": 38, "duration": 120, "velocity": 127}, {"time": 141120, "pitch": 40, "duration": 60, "velocity": 118}, {"time": 141120, "pitch": 53, "duration": 109, "velocity": 74}, {"time": 141120, "pitch": 54, "duration": 78, "velocity": 127}, {"time": 141240, "pitch": 38, "duration": 60, "velocity": 54}, {"time": 141361, "pitch": 38, "duration": 60, "velocity": 66}, {"time": 141361, "pitch": 54, "duration": 74, "velocity": 116}, {"time": 141481, "pitch": 38, "duration": 61, "velocity": 56}, {"time": 141602, "pitch": 36, "duration": 120, "velocity": 127}, {"time": 141602, "pitch": 38, "duration": 60, "velocity": 66}, {"time": 141602, "pitch": 53, "duration": 131, "velocity": 74}, {"time": 141602, "pitch": 54, "duration": 68, "velocity": 112}, {"time": 141722, "pitch": 38, "duration": 61, "velocity": 40}, {"time": 141783, "pitch": 38, "duration": 60, "velocity": 62}, {"time": 141843, "pitch": 36, "duration": 120, "velocity": 127}, {"time": 141843, "pitch": 38, "duration": 60, "velocity": 58}, {"time": 141843, "pitch": 54, "duration": 64, "velocity": 127}, {"time": 141963, "pitch": 38, "duration": 61, "velocity": 66}, {"time": 142084, "pitch": 38, "duration": 118, "velocity": 127}, {"time": 142084, "pitch": 40, "duration": 59, "velocity": 118}, {"time": 142084, "pitch": 53, "duration": 112, "velocity": 80}, {"time": 142084, "pitch": 54, "duration": 61, "velocity": 127}, {"time": 142202, "pitch": 38, "duration": 60, "velocity": 58}, {"time": 142321, "pitch": 38, "duration": 59, "velocity": 62}, {"time": 142321, "pitch": 54, "duration": 49, "velocity": 127}, {"time": 142439, "pitch": 38, "duration": 59, "velocity": 70}, {"time": 142558, "pitch": 36, "duration": 120, "velocity": 127}, {"time": 142558, "pitch": 38, "duration": 60, "velocity": 68}, {"time": 142558, "pitch": 57, "duration": 125, "velocity": 38}, {"time": 142678, "pitch": 38, "duration": 60, "velocity": 54}, {"time": 142799, "pitch": 38, "duration": 60, "velocity": 64}, {"time": 142799, "pitch": 54, "duration": 66, "velocity": 112}, {"time": 142919, "pitch": 38, "duration": 61, "velocity": 52}, {"time": 143040, "pitch": 38, "duration": 120, "velocity": 127}, {"time": 143040, "pitch": 54, "duration": 64, "velocity": 112}, {"time": 143160, "pitch": 38, "duration": 61, "velocity": 54}, {"time": 143281, "pitch": 38, "duration": 60, "velocity": 66}, {"time": 143281, "pitch": 54, "duration": 62, "velocity": 112}, {"time": 143401, "pitch": 38, "duration": 61, "velocity": 56}, {"time": 143522, "pitch": 36, "duration": 120, "velocity": 127}, {"time": 143522, "pitch": 38, "duration": 60, "velocity": 66}, {"time": 143522, "pitch": 54, "duration": 60, "velocity": 112}, {"time": 143642, "pitch": 38, "duration": 61, "velocity": 40}, {"time": 143703, "pitch": 38, "duration": 60, "velocity": 62}, {"time": 143763, "pitch": 36, "duration": 120, "velocity": 127}, {"time": 143763, "pitch": 38, "duration": 60, "velocity": 58}, {"time": 143763, "pitch": 54, "duration": 70, "velocity": 112}, {"time": 143883, "pitch": 38, "duration": 61, "velocity": 66}, {"time": 144004, "pitch": 38, "duration": 118, "velocity": 127}, {"time": 144004, "pitch": 54, "duration": 65, "velocity": 127}, {"time": 144122, "pitch": 38, "duration": 60, "velocity": 58}, {"time": 144241, "pitch": 38, "duration": 59, "velocity": 62}, {"time": 144241, "pitch": 54, "duration": 61, "velocity": 112}, {"time": 144359, "pitch": 38, "duration": 60, "velocity": 70}, {"time": 144478, "pitch": 36, "duration": 120, "velocity": 127}, {"time": 144478, "pitch": 38, "duration": 60, "velocity": 68}, {"time": 144478, "pitch": 54, "duration": 49, "velocity": 112}, {"time": 144598, "pitch": 38, "duration": 61, "velocity": 54}, {"time": 144719, "pitch": 38, "duration": 60, "velocity": 64}, {"time": 144719, "pitch": 54, "duration": 48, "velocity": 112}, {"time": 144839, "pitch": 38, "duration": 61, "velocity": 52}, {"time": 144960, "pitch": 38, "duration": 120, "velocity": 127}, {"time": 144960, "pitch": 54, "duration": 47, "velocity": 127}, {"time": 145080, "pitch": 38, "duration": 61, "velocity": 54}, {"time": 145201, "pitch": 38, "duration": 60, "velocity": 66}, {"time": 145201, "pitch": 54, "duration": 63, "velocity": 127}, {"time": 145321, "pitch": 38, "duration": 61, "velocity": 56}, {"time": 145442, "pitch": 36, "duration": 120, "velocity": 127}, {"time": 145442, "pitch": 38, "duration": 60, "velocity": 66}, {"time": 145442, "pitch": 54, "duration": 70, "velocity": 112}, {"time": 145562, "pitch": 38, "duration": 61, "velocity": 40}, {"time": 145623, "pitch": 38, "duration": 60, "velocity": 62}, {"time": 145683, "pitch": 36, "duration": 121, "velocity": 127}, {"time": 145683, "pitch": 38, "duration": 60, "velocity": 58}, {"time": 145683, "pitch": 54, "duration": 64, "velocity": 127}, {"time": 145804, "pitch": 38, "duration": 60, "velocity": 66}, {"time": 145924, "pitch": 38, "duration": 118, "velocity": 127}, {"time": 145924, "pitch": 54, "duration": 67, "velocity": 127}, {"time": 146042, "pitch": 38, "duration": 60, "velocity": 58}, {"time": 146161, "pitch": 38, "duration": 59, "velocity": 62}, {"time": 146161, "pitch": 54, "duration": 65, "velocity": 127}, {"time": 146279, "pitch": 36, "duration": 119, "velocity": 127}, {"time": 146279, "pitch": 38, "duration": 60, "velocity": 70}, {"time": 146398, "pitch": 36, "duration": 120, "velocity": 127}, {"time": 146398, "pitch": 38, "duration": 60, "velocity": 68}, {"time": 146398, "pitch": 54, "duration": 63, "velocity": 127}, {"time": 146518, "pitch": 38, "duration": 61, "velocity": 54}, {"time": 146639, "pitch": 38, "duration": 60, "velocity": 64}, {"time": 146639, "pitch": 54, "duration": 62, "velocity": 127}, {"time": 146759, "pitch": 38, "duration": 61, "velocity": 52}, {"time": 146880, "pitch": 38, "duration": 120, "velocity": 127}, {"time": 146880, "pitch": 54, "duration": 66, "velocity": 112}, {"time": 147000, "pitch": 38, "duration": 61, "velocity": 54}, {"time": 147121, "pitch": 38, "duration": 60, "velocity": 66}, {"time": 147121, "pitch": 54, "duration": 63, "velocity": 112}, {"time": 147241, "pitch": 38, "duration": 61, "velocity": 56}, {"time": 147362, "pitch": 36, "duration": 121, "velocity": 127}, {"time": 147362, "pitch": 38, "duration": 60, "velocity": 66}, {"time": 147362, "pitch": 54, "duration": 70, "velocity": 112}, {"time": 147483, "pitch": 38, "duration": 60, "velocity": 40}, {"time": 147543, "pitch": 38, "duration": 60, "velocity": 62}, {"time": 147603, "pitch": 36, "duration": 121, "velocity": 127}, {"time": 147603, "pitch": 38, "duration": 60, "velocity": 58}, {"time": 147603, "pitch": 54, "duration": 70, "velocity": 112}, {"time": 147724, "pitch": 38, "duration": 60, "velocity": 66}, {"time": 147844, "pitch": 38, "duration": 119, "velocity": 127}, {"time": 147844, "pitch": 54, "duration": 76, "velocity": 112}, {"time": 147963, "pitch": 38, "duration": 59, "velocity": 58}, {"time": 148081, "pitch": 38, "duration": 59, "velocity": 62}, {"time": 148081, "pitch": 54, "duration": 84, "velocity": 127}, {"time": 148199, "pitch": 38, "duration": 60, "velocity": 70}, {"time": 148318, "pitch": 36, "duration": 120, "velocity": 127}, {"time": 148318, "pitch": 38, "duration": 60, "velocity": 68}, {"time": 148318, "pitch": 54, "duration": 87, "velocity": 116}, {"time": 148438, "pitch": 38, "duration": 61, "velocity": 54}, {"time": 148559, "pitch": 38, "duration": 60, "velocity": 64}, {"time": 148559, "pitch": 54, "duration": 74, "velocity": 127}, {"time": 148679, "pitch": 38, "duration": 61, "velocity": 52}, {"time": 148800, "pitch": 38, "duration": 121, "velocity": 127}, {"time": 148800, "pitch": 54, "duration": 78, "velocity": 127}, {"time": 148921, "pitch": 38, "duration": 60, "velocity": 54}, {"time": 149041, "pitch": 38, "duration": 60, "velocity": 66}, {"time": 149041, "pitch": 54, "duration": 74, "velocity": 116}, {"time": 149162, "pitch": 38, "duration": 60, "velocity": 56}, {"time": 149282, "pitch": 38, "duration": 59, "velocity": 66}, {"time": 149282, "pitch": 54, "duration": 67, "velocity": 112}, {"time": 149401, "pitch": 38, "duration": 59, "velocity": 40}, {"time": 149460, "pitch": 38, "duration": 59, "velocity": 62}, {"time": 149519, "pitch": 36, "duration": 119, "velocity": 127}, {"time": 149519, "pitch": 38, "duration": 59, "velocity": 58}, {"time": 149519, "pitch": 54, "duration": 63, "velocity": 127}, {"time": 149638, "pitch": 38, "duration": 59, "velocity": 66}, {"time": 149756, "pitch": 38, "duration": 120, "velocity": 127}, {"time": 149756, "pitch": 54, "duration": 62, "velocity": 127}, {"time": 149876, "pitch": 38, "duration": 61, "velocity": 58}, {"time": 149997, "pitch": 38, "duration": 60, "velocity": 62}, {"time": 149997, "pitch": 54, "duration": 50, "velocity": 127}, {"time": 150117, "pitch": 38, "duration": 61, "velocity": 70}, {"time": 150238, "pitch": 36, "duration": 121, "velocity": 127}, {"time": 150238, "pitch": 38, "duration": 60, "velocity": 68}, {"time": 150359, "pitch": 38, "duration": 60, "velocity": 54}, {"time": 150479, "pitch": 38, "duration": 60, "velocity": 64}, {"time": 150479, "pitch": 54, "duration": 66, "velocity": 112}, {"time": 150600, "pitch": 38, "duration": 60, "velocity": 52}, {"time": 150720, "pitch": 38, "duration": 121, "velocity": 127}, {"time": 150720, "pitch": 54, "duration": 64, "velocity": 112}, {"time": 150841, "pitch": 38, "duration": 60, "velocity": 54}, {"time": 150961, "pitch": 38, "duration": 60, "velocity": 66}, {"time": 150961, "pitch": 54, "duration": 62, "velocity": 112}, {"time": 151082, "pitch": 38, "duration": 60, "velocity": 56}, {"time": 151202, "pitch": 38, "duration": 59, "velocity": 66}, {"time": 151202, "pitch": 54, "duration": 59, "velocity": 112}, {"time": 151321, "pitch": 38, "duration": 59, "velocity": 40}, {"time": 151380, "pitch": 38, "duration": 59, "velocity": 62}, {"time": 151439, "pitch": 36, "duration": 119, "velocity": 127}, {"time": 151439, "pitch": 38, "duration": 59, "velocity": 58}, {"time": 151439, "pitch": 54, "duration": 69, "velocity": 112}, {"time": 151558, "pitch": 38, "duration": 59, "velocity": 66}, {"time": 151676, "pitch": 38, "duration": 121, "velocity": 127}, {"time": 151676, "pitch": 54, "duration": 66, "velocity": 127}, {"time": 151797, "pitch": 38, "duration": 60, "velocity": 58}, {"time": 151917, "pitch": 38, "duration": 60, "velocity": 62}, {"time": 151917, "pitch": 54, "duration": 62, "velocity": 112}, {"time": 152038, "pitch": 38, "duration": 60, "velocity": 70}, {"time": 152158, "pitch": 36, "duration": 121, "velocity": 127}, {"time": 152158, "pitch": 38, "duration": 60, "velocity": 68}, {"time": 152158, "pitch": 54, "duration": 49, "velocity": 112}, {"time": 152279, "pitch": 38, "duration": 60, "velocity": 54}, {"time": 152399, "pitch": 38, "duration": 60, "velocity": 64}, {"time": 152399, "pitch": 54, "duration": 48, "velocity": 112}, {"time": 152520, "pitch": 38, "duration": 60, "velocity": 52}, {"time": 152640, "pitch": 38, "duration": 121, "velocity": 127}, {"time": 152640, "pitch": 54, "duration": 47, "velocity": 127}, {"time": 152761, "pitch": 38, "duration": 60, "velocity": 54}, {"time": 152881, "pitch": 38, "duration": 60, "velocity": 66}, {"time": 152881, "pitch": 54, "duration": 63, "velocity": 127}, {"time": 153002, "pitch": 38, "duration": 60, "velocity": 56}, {"time": 153122, "pitch": 38, "duration": 59, "velocity": 66}, {"time": 153122, "pitch": 54, "duration": 69, "velocity": 112}, {"time": 153241, "pitch": 38, "duration": 59, "velocity": 40}, {"time": 153300, "pitch": 38, "duration": 59, "velocity": 62}, {"time": 153359, "pitch": 36, "duration": 119, "velocity": 127}, {"time": 153359, "pitch": 38, "duration": 59, "velocity": 58}, {"time": 153359, "pitch": 54, "duration": 63, "velocity": 127}, {"time": 153478, "pitch": 36, "duration": 118, "velocity": 127}, {"time": 153478, "pitch": 38, "duration": 59, "velocity": 66}, {"time": 153596, "pitch": 38, "duration": 121, "velocity": 127}, {"time": 153596, "pitch": 54, "duration": 68, "velocity": 127}, {"time": 153717, "pitch": 38, "duration": 60, "velocity": 58}, {"time": 153837, "pitch": 38, "duration": 60, "velocity": 62}, {"time": 153837, "pitch": 54, "duration": 66, "velocity": 127}, {"time": 153958, "pitch": 38, "duration": 60, "velocity": 70}, {"time": 154078, "pitch": 36, "duration": 121, "velocity": 127}, {"time": 154078, "pitch": 38, "duration": 60, "velocity": 68}, {"time": 154078, "pitch": 54, "duration": 63, "velocity": 127}, {"time": 154199, "pitch": 38, "duration": 60, "velocity": 54}, {"time": 154319, "pitch": 38, "duration": 60, "velocity": 64}, {"time": 154319, "pitch": 54, "duration": 62, "velocity": 127}, {"time": 154440, "pitch": 38, "duration": 60, "velocity": 52}, {"time": 154560, "pitch": 38, "duration": 121, "velocity": 127}, {"time": 154560, "pitch": 54, "duration": 67, "velocity": 112}, {"time": 154681, "pitch": 38, "duration": 60, "velocity": 54}, {"time": 154801, "pitch": 38, "duration": 61, "velocity": 66}, {"time": 154801, "pitch": 54, "duration": 64, "velocity": 112}, {"time": 154922, "pitch": 38, "duration": 60, "velocity": 56}, {"time": 155042, "pitch": 38, "duration": 60, "velocity": 66}, {"time": 155042, "pitch": 54, "duration": 69, "velocity": 112}, {"time": 155161, "pitch": 38, "duration": 59, "velocity": 40}, {"time": 155220, "pitch": 38, "duration": 59, "velocity": 62}, {"time": 155279, "pitch": 36, "duration": 119, "velocity": 127}, {"time": 155279, "pitch": 38, "duration": 59, "velocity": 58}, {"time": 155279, "pitch": 54, "duration": 69, "velocity": 112}, {"time": 155398, "pitch": 38, "duration": 59, "velocity": 66}, {"time": 155516, "pitch": 38, "duration": 121, "velocity": 127}, {"time": 155516, "pitch": 54, "duration": 77, "velocity": 112}, {"time": 155637, "pitch": 38, "duration": 60, "velocity": 58}, {"time": 155757, "pitch": 38, "duration": 60, "velocity": 62}, {"time": 155757, "pitch": 54, "duration": 86, "velocity": 127}, {"time": 155878, "pitch": 38, "duration": 60, "velocity": 70}, {"time": 155998, "pitch": 36, "duration": 121, "velocity": 127}, {"time": 155998, "pitch": 38, "duration": 61, "velocity": 68}, {"time": 155998, "pitch": 54, "duration": 88, "velocity": 116}, {"time": 156119, "pitch": 38, "duration": 60, "velocity": 54}, {"time": 156239, "pitch": 38, "duration": 61, "velocity": 64}, {"time": 156239, "pitch": 54, "duration": 75, "velocity": 127}, {"time": 156360, "pitch": 38, "duration": 60, "velocity": 52}, {"time": 156480, "pitch": 38, "duration": 121, "velocity": 127}, {"time": 156480, "pitch": 54, "duration": 79, "velocity": 127}, {"time": 156601, "pitch": 38, "duration": 60, "velocity": 54}, {"time": 156721, "pitch": 38, "duration": 61, "velocity": 66}, {"time": 156721, "pitch": 54, "duration": 75, "velocity": 116}, {"time": 156842, "pitch": 38, "duration": 60, "velocity": 56}, {"time": 156962, "pitch": 36, "duration": 119, "velocity": 127}, {"time": 156962, "pitch": 38, "duration": 60, "velocity": 66}, {"time": 156962, "pitch": 54, "duration": 68, "velocity": 112}, {"time": 157081, "pitch": 38, "duration": 59, "velocity": 40}, {"time": 157140, "pitch": 38, "duration": 59, "velocity": 62}, {"time": 157199, "pitch": 36, "duration": 119, "velocity": 127}, {"time": 157199, "pitch": 38, "duration": 60, "velocity": 58}, {"time": 157199, "pitch": 54, "duration": 64, "velocity": 127}, {"time": 157318, "pitch": 38, "duration": 59, "velocity": 66}, {"time": 157436, "pitch": 38, "duration": 121, "velocity": 127}, {"time": 157436, "pitch": 54, "duration": 62, "velocity": 127}, {"time": 157557, "pitch": 38, "duration": 60, "velocity": 58}, {"time": 157677, "pitch": 38, "duration": 61, "velocity": 62}, {"time": 157677, "pitch": 54, "duration": 50, "velocity": 127}, {"time": 157798, "pitch": 38, "duration": 60, "velocity": 70}, {"time": 157918, "pitch": 36, "duration": 121, "velocity": 127}, {"time": 157918, "pitch": 38, "duration": 61, "velocity": 68}, {"time": 158039, "pitch": 38, "duration": 60, "velocity": 54}, {"time": 158159, "pitch": 38, "duration": 61, "velocity": 64}, {"time": 158159, "pitch": 54, "duration": 67, "velocity": 112}, {"time": 158280, "pitch": 38, "duration": 60, "velocity": 52}, {"time": 158400, "pitch": 38, "duration": 121, "velocity": 127}, {"time": 158400, "pitch": 54, "duration": 65, "velocity": 112}, {"time": 158521, "pitch": 38, "duration": 60, "velocity": 54}, {"time": 158641, "pitch": 38, "duration": 61, "velocity": 66}, {"time": 158641, "pitch": 54, "duration": 63, "velocity": 112}, {"time": 158762, "pitch": 38, "duration": 60, "velocity": 56}, {"time": 158882, "pitch": 36, "duration": 119, "velocity": 127}, {"time": 158882, "pitch": 38, "duration": 60, "velocity": 66}, {"time": 158882, "pitch": 54, "duration": 60, "velocity": 112}, {"time": 159001, "pitch": 38, "duration": 59, "velocity": 40}, {"time": 159060, "pitch": 38, "duration": 59, "velocity": 62}, {"time": 159119, "pitch": 36, "duration": 119, "velocity": 127}, {"time": 159119, "pitch": 38, "duration": 60, "velocity": 58}, {"time": 159119, "pitch": 54, "duration": 70, "velocity": 112}, {"time": 159238, "pitch": 38, "duration": 59, "velocity": 66}, {"time": 159356, "pitch": 38, "duration": 121, "velocity": 127}, {"time": 159356, "pitch": 54, "duration": 67, "velocity": 127}, {"time": 159477, "pitch": 38, "duration": 60, "velocity": 58}, {"time": 159597, "pitch": 38, "duration": 61, "velocity": 62}, {"time": 159597, "pitch": 54, "duration": 63, "velocity": 112}, {"time": 159718, "pitch": 38, "duration": 60, "velocity": 70}, {"time": 159838, "pitch": 36, "duration": 121, "velocity": 127}, {"time": 159838, "pitch": 38, "duration": 61, "velocity": 68}, {"time": 159838, "pitch": 54, "duration": 50, "velocity": 112}, {"time": 159959, "pitch": 38, "duration": 60, "velocity": 54}, {"time": 160079, "pitch": 38, "duration": 61, "velocity": 64}, {"time": 160079, "pitch": 54, "duration": 49, "velocity": 112}, {"time": 160200, "pitch": 38, "duration": 60, "velocity": 52}, {"time": 160320, "pitch": 38, "duration": 121, "velocity": 127}, {"time": 160320, "pitch": 54, "duration": 48, "velocity": 127}, {"time": 160441, "pitch": 38, "duration": 60, "velocity": 54}, {"time": 160562, "pitch": 38, "duration": 60, "velocity": 66}, {"time": 160562, "pitch": 54, "duration": 63, "velocity": 127}, {"time": 160682, "pitch": 38, "duration": 60, "velocity": 56}, {"time": 160803, "pitch": 36, "duration": 118, "velocity": 127}, {"time": 160803, "pitch": 38, "duration": 59, "velocity": 66}, {"time": 160803, "pitch": 54, "duration": 69, "velocity": 112}, {"time": 160921, "pitch": 38, "duration": 59, "velocity": 40}, {"time": 160980, "pitch": 38, "duration": 59, "velocity": 62}, {"time": 161039, "pitch": 36, "duration": 119, "velocity": 127}, {"time": 161039, "pitch": 38, "duration": 60, "velocity": 58}, {"time": 161039, "pitch": 54, "duration": 64, "velocity": 127}, {"time": 161158, "pitch": 38, "duration": 59, "velocity": 66}, {"time": 161276, "pitch": 38, "duration": 121, "velocity": 127}, {"time": 161276, "pitch": 54, "duration": 69, "velocity": 127}, {"time": 161397, "pitch": 38, "duration": 60, "velocity": 58}, {"time": 161517, "pitch": 38, "duration": 61, "velocity": 62}, {"time": 161517, "pitch": 54, "duration": 67, "velocity": 127}, {"time": 161638, "pitch": 36, "duration": 120, "velocity": 127}, {"time": 161638, "pitch": 38, "duration": 60, "velocity": 70}, {"time": 161758, "pitch": 36, "duration": 121, "velocity": 127}, {"time": 161758, "pitch": 38, "duration": 61, "velocity": 68}, {"time": 161758, "pitch": 54, "duration": 64, "velocity": 127}, {"time": 161879, "pitch": 38, "duration": 60, "velocity": 54}, {"time": 162000, "pitch": 38, "duration": 60, "velocity": 64}, {"time": 162000, "pitch": 54, "duration": 62, "velocity": 127}, {"time": 162120, "pitch": 38, "duration": 60, "velocity": 52}, {"time": 162241, "pitch": 38, "duration": 120, "velocity": 127}, {"time": 162241, "pitch": 54, "duration": 66, "velocity": 112}, {"time": 162361, "pitch": 38, "duration": 60, "velocity": 54}, {"time": 162482, "pitch": 38, "duration": 60, "velocity": 66}, {"time": 162482, "pitch": 54, "duration": 63, "velocity": 112}, {"time": 162602, "pitch": 38, "duration": 60, "velocity": 56}, {"time": 162723, "pitch": 36, "duration": 118, "velocity": 127}, {"time": 162723, "pitch": 38, "duration": 59, "velocity": 66}, {"time": 162723, "pitch": 54, "duration": 69, "velocity": 112}, {"time": 162841, "pitch": 38, "duration": 59, "velocity": 40}, {"time": 162900, "pitch": 38, "duration": 60, "velocity": 62}, {"time": 162960, "pitch": 36, "duration": 118, "velocity": 127}, {"time": 162960, "pitch": 38, "duration": 59, "velocity": 58}, {"time": 162960, "pitch": 54, "duration": 69, "velocity": 112}, {"time": 163078, "pitch": 38, "duration": 59, "velocity": 66}, {"time": 163197, "pitch": 38, "duration": 120, "velocity": 127}, {"time": 163197, "pitch": 54, "duration": 77, "velocity": 112}, {"time": 163317, "pitch": 38, "duration": 60, "velocity": 58}, {"time": 163438, "pitch": 38, "duration": 60, "velocity": 62}, {"time": 163438, "pitch": 54, "duration": 85, "velocity": 127}, {"time": 163558, "pitch": 38, "duration": 60, "velocity": 70}, {"time": 163679, "pitch": 36, "duration": 120, "velocity": 127}, {"time": 163679, "pitch": 38, "duration": 60, "velocity": 68}, {"time": 163679, "pitch": 54, "duration": 87, "velocity": 116}, {"time": 163799, "pitch": 38, "duration": 60, "velocity": 54}, {"time": 163920, "pitch": 38, "duration": 60, "velocity": 64}, {"time": 163920, "pitch": 54, "duration": 74, "velocity": 127}, {"time": 164040, "pitch": 38, "duration": 60, "velocity": 52}, {"time": 164161, "pitch": 38, "duration": 120, "velocity": 127}, {"time": 164161, "pitch": 54, "duration": 78, "velocity": 127}, {"time": 164281, "pitch": 38, "duration": 60, "velocity": 54}, {"time": 164402, "pitch": 38, "duration": 60, "velocity": 66}, {"time": 164402, "pitch": 54, "duration": 74, "velocity": 116}, {"time": 164522, "pitch": 38, "duration": 60, "velocity": 56}, {"time": 164643, "pitch": 38, "duration": 59, "velocity": 66}, {"time": 164643, "pitch": 54, "duration": 67, "velocity": 112}, {"time": 164761, "pitch": 38, "duration": 59, "velocity": 40}, {"time": 164820, "pitch": 38, "duration": 60, "velocity": 62}, {"time": 164880, "pitch": 36, "duration": 118, "velocity": 127}, {"time": 164880, "pitch": 38, "duration": 59, "velocity": 58}, {"time": 164880, "pitch": 54, "duration": 63, "velocity": 127}, {"time": 164998, "pitch": 38, "duration": 59, "velocity": 66}, {"time": 165117, "pitch": 38, "duration": 120, "velocity": 127}, {"time": 165117, "pitch": 54, "duration": 62, "velocity": 127}, {"time": 165237, "pitch": 38, "duration": 60, "velocity": 58}, {"time": 165358, "pitch": 38, "duration": 60, "velocity": 62}, {"time": 165358, "pitch": 54, "duration": 50, "velocity": 127}, {"time": 165478, "pitch": 38, "duration": 60, "velocity": 70}, {"time": 165599, "pitch": 36, "duration": 120, "velocity": 127}, {"time": 165599, "pitch": 38, "duration": 60, "velocity": 68}, {"time": 165719, "pitch": 38, "duration": 60, "velocity": 54}, {"time": 165840, "pitch": 38, "duration": 60, "velocity": 64}, {"time": 165840, "pitch": 54, "duration": 66, "velocity": 112}, {"time": 165960, "pitch": 38, "duration": 60, "velocity": 52}, {"time": 166081, "pitch": 38, "duration": 120, "velocity": 127}, {"time": 166081, "pitch": 54, "duration": 64, "velocity": 112}, {"time": 166201, "pitch": 38, "duration": 61, "velocity": 54}, {"time": 166322, "pitch": 38, "duration": 60, "velocity": 66}, {"time": 166322, "pitch": 54, "duration": 62, "velocity": 112}, {"time": 166442, "pitch": 38, "duration": 61, "velocity": 56}, {"time": 166563, "pitch": 38, "duration": 59, "velocity": 66}, {"time": 166563, "pitch": 54, "duration": 59, "velocity": 112}, {"time": 166681, "pitch": 38, "duration": 59, "velocity": 40}, {"time": 166740, "pitch": 38, "duration": 60, "velocity": 62}, {"time": 166800, "pitch": 36, "duration": 118, "velocity": 127}, {"time": 166800, "pitch": 38, "duration": 59, "velocity": 58}, {"time": 166800, "pitch": 54, "duration": 69, "velocity": 112}, {"time": 166918, "pitch": 38, "duration": 59, "velocity": 66}, {"time": 167037, "pitch": 38, "duration": 120, "velocity": 127}, {"time": 167037, "pitch": 54, "duration": 66, "velocity": 127}, {"time": 167157, "pitch": 38, "duration": 60, "velocity": 58}, {"time": 167278, "pitch": 38, "duration": 60, "velocity": 62}, {"time": 167278, "pitch": 54, "duration": 62, "velocity": 112}, {"time": 167398, "pitch": 38, "duration": 60, "velocity": 70}, {"time": 167519, "pitch": 36, "duration": 120, "velocity": 127}, {"time": 167519, "pitch": 38, "duration": 60, "velocity": 68}, {"time": 167519, "pitch": 54, "duration": 49, "velocity": 112}, {"time": 167639, "pitch": 38, "duration": 60, "velocity": 54}, {"time": 167760, "pitch": 38, "duration": 60, "velocity": 64}, {"time": 167760, "pitch": 54, "duration": 48, "velocity": 112}, {"time": 167880, "pitch": 38, "duration": 61, "velocity": 52}, {"time": 168001, "pitch": 38, "duration": 120, "velocity": 127}, {"time": 168001, "pitch": 54, "duration": 47, "velocity": 127}, {"time": 168121, "pitch": 38, "duration": 61, "velocity": 54}, {"time": 168242, "pitch": 38, "duration": 60, "velocity": 66}, {"time": 168242, "pitch": 54, "duration": 63, "velocity": 127}, {"time": 168362, "pitch": 38, "duration": 61, "velocity": 56}, {"time": 168483, "pitch": 38, "duration": 59, "velocity": 66}, {"time": 168483, "pitch": 54, "duration": 69, "velocity": 112}, {"time": 168601, "pitch": 38, "duration": 60, "velocity": 40}, {"time": 168661, "pitch": 38, "duration": 59, "velocity": 62}, {"time": 168720, "pitch": 36, "duration": 118, "velocity": 127}, {"time": 168720, "pitch": 38, "duration": 59, "velocity": 58}, {"time": 168720, "pitch": 54, "duration": 63, "velocity": 127}, {"time": 168838, "pitch": 36, "duration": 119, "velocity": 127}, {"time": 168838, "pitch": 38, "duration": 60, "velocity": 66}, {"time": 168957, "pitch": 38, "duration": 120, "velocity": 127}, {"time": 168957, "pitch": 54, "duration": 68, "velocity": 127}, {"time": 169077, "pitch": 38, "duration": 60, "velocity": 58}, {"time": 169198, "pitch": 38, "duration": 60, "velocity": 62}, {"time": 169198, "pitch": 54, "duration": 66, "velocity": 127}, {"time": 169318, "pitch": 38, "duration": 61, "velocity": 70}, {"time": 169439, "pitch": 36, "duration": 120, "velocity": 127}, {"time": 169439, "pitch": 38, "duration": 60, "velocity": 68}, {"time": 169439, "pitch": 54, "duration": 63, "velocity": 127}, {"time": 169559, "pitch": 38, "duration": 61, "velocity": 54}, {"time": 169680, "pitch": 38, "duration": 60, "velocity": 64}, {"time": 169680, "pitch": 54, "duration": 62, "velocity": 127}, {"time": 169800, "pitch": 38, "duration": 61, "velocity": 52}, {"time": 169921, "pitch": 38, "duration": 120, "velocity": 127}, {"time": 169921, "pitch": 54, "duration": 66, "velocity": 112}, {"time": 170041, "pitch": 38, "duration": 61, "velocity": 54}, {"time": 170162, "pitch": 38, "duration": 60, "velocity": 66}, {"time": 170162, "pitch": 54, "duration": 63, "velocity": 112}, {"time": 170282, "pitch": 38, "duration": 61, "velocity": 56}, {"time": 170403, "pitch": 38, "duration": 59, "velocity": 66}, {"time": 170403, "pitch": 54, "duration": 69, "velocity": 112}, {"time": 170521, "pitch": 38, "duration": 60, "velocity": 40}, {"time": 170581, "pitch": 38, "duration": 59, "velocity": 62}, {"time": 170640, "pitch": 36, "duration": 118, "velocity": 127}, {"time": 170640, "pitch": 38, "duration": 59, "velocity": 58}, {"time": 170640, "pitch": 54, "duration": 69, "velocity": 112}, {"time": 170758, "pitch": 38, "duration": 60, "velocity": 66}, {"time": 170877, "pitch": 38, "duration": 120, "velocity": 127}, {"time": 170877, "pitch": 54, "duration": 77, "velocity": 112}, {"time": 170997, "pitch": 38, "duration": 61, "velocity": 58}, {"time": 171118, "pitch": 38, "duration": 60, "velocity": 62}, {"time": 171118, "pitch": 54, "duration": 85, "velocity": 127}, {"time": 171238, "pitch": 38, "duration": 61, "velocity": 70}, {"time": 171359, "pitch": 36, "duration": 92, "velocity": 127}, {"time": 171359, "pitch": 38, "duration": 60, "velocity": 68}, {"time": 171359, "pitch": 49, "duration": 90, "velocity": 107}, {"time": 171359, "pitch": 54, "duration": 87, "velocity": 116}, {"time": 171359, "pitch": 57, "duration": 100, "velocity": 107}, {"time": 171479, "pitch": 38, "duration": 61, "velocity": 54}, {"time": 171600, "pitch": 38, "duration": 60, "velocity": 64}, {"time": 171600, "pitch": 54, "duration": 74, "velocity": 127}, {"time": 171720, "pitch": 38, "duration": 61, "velocity": 52}, {"time": 171841, "pitch": 36, "duration": 96, "velocity": 127}, {"time": 171841, "pitch": 38, "duration": 120, "velocity": 127}, {"time": 171841, "pitch": 49, "duration": 106, "velocity": 107}, {"time": 171841, "pitch": 54, "duration": 78, "velocity": 127}, {"time": 171841, "pitch": 57, "duration": 102, "velocity": 107}, {"time": 171961, "pitch": 38, "duration": 61, "velocity": 54}, {"time": 172082, "pitch": 38, "duration": 60, "velocity": 66}, {"time": 172082, "pitch": 54, "duration": 74, "velocity": 116}, {"time": 172203, "pitch": 38, "duration": 60, "velocity": 56}, {"time": 172323, "pitch": 36, "duration": 91, "velocity": 127}, {"time": 172323, "pitch": 38, "duration": 59, "velocity": 66}, {"time": 172323, "pitch": 49, "duration": 89, "velocity": 107}, {"time": 172323, "pitch": 54, "duration": 67, "velocity": 112}, {"time": 172323, "pitch": 57, "duration": 91, "velocity": 107}, {"time": 172441, "pitch": 38, "duration": 60, "velocity": 40}, {"time": 172501, "pitch": 38, "duration": 59, "velocity": 62}, {"time": 172560, "pitch": 36, "duration": 118, "velocity": 127}, {"time": 172560, "pitch": 38, "duration": 59, "velocity": 58}, {"time": 172560, "pitch": 54, "duration": 63, "velocity": 127}, {"time": 172678, "pitch": 38, "duration": 60, "velocity": 66}, {"time": 172797, "pitch": 36, "duration": 79, "velocity": 127}, {"time": 172797, "pitch": 38, "duration": 120, "velocity": 127}, {"time": 172797, "pitch": 49, "duration": 85, "velocity": 107}, {"time": 172797, "pitch": 54, "duration": 62, "velocity": 127}, {"time": 172797, "pitch": 57, "duration": 92, "velocity": 107}, {"time": 172917, "pitch": 38, "duration": 61, "velocity": 58}, {"time": 173038, "pitch": 38, "duration": 60, "velocity": 62}, {"time": 173038, "pitch": 54, "duration": 50, "velocity": 127}, {"time": 173158, "pitch": 38, "duration": 61, "velocity": 70}, {"time": 3607, "pitch": 76, "duration": 32, "velocity": 127}, {"time": 3617, "pitch": 74, "duration": 27, "velocity": 127}, {"time": 3627, "pitch": 71, "duration": 21, "velocity": 127}, {"time": 3677, "pitch": 71, "duration": 40, "velocity": 127}, {"time": 3687, "pitch": 74, "duration": 40, "velocity": 127}, {"time": 3698, "pitch": 76, "duration": 35, "velocity": 127}, {"time": 3758, "pitch": 79, "duration": 44, "velocity": 127}, {"time": 3768, "pitch": 76, "duration": 47, "velocity": 127}, {"time": 3778, "pitch": 74, "duration": 41, "velocity": 127}, {"time": 3788, "pitch": 71, "duration": 45, "velocity": 127}, {"time": 3838, "pitch": 71, "duration": 218, "velocity": 127}, {"time": 3848, "pitch": 74, "duration": 218, "velocity": 127}, {"time": 3858, "pitch": 76, "duration": 218, "velocity": 127}, {"time": 3868, "pitch": 79, "duration": 218, "velocity": 127}, {"time": 4079, "pitch": 78, "duration": 30, "velocity": 104}, {"time": 4109, "pitch": 77, "duration": 30, "velocity": 92}, {"time": 4139, "pitch": 76, "duration": 31, "velocity": 88}, {"time": 4170, "pitch": 75, "duration": 30, "velocity": 72}, {"time": 4200, "pitch": 74, "duration": 30, "velocity": 72}, {"time": 4230, "pitch": 73, "duration": 30, "velocity": 55}, {"time": 4260, "pitch": 72, "duration": 30, "velocity": 55}, {"time": 5517, "pitch": 62, "duration": 241, "velocity": 68}, {"time": 5758, "pitch": 67, "duration": 241, "velocity": 117}, {"time": 6160, "pitch": 67, "duration": 120, "velocity": 108}, {"time": 7196, "pitch": 55, "duration": 121, "velocity": 91}, {"time": 7437, "pitch": 55, "duration": 121, "velocity": 88}, {"time": 7678, "pitch": 55, "duration": 161, "velocity": 88}, {"time": 7839, "pitch": 54, "duration": 80, "velocity": 91}, {"time": 7919, "pitch": 50, "duration": 81, "velocity": 108}, {"time": 8879, "pitch": 67, "duration": 79, "velocity": 108}, {"time": 9116, "pitch": 70, "duration": 161, "velocity": 100}, {"time": 9277, "pitch": 72, "duration": 80, "velocity": 113}, {"time": 9518, "pitch": 72, "duration": 80, "velocity": 113}, {"time": 11036, "pitch": 55, "duration": 121, "velocity": 91}, {"time": 11277, "pitch": 55, "duration": 121, "velocity": 88}, {"time": 11518, "pitch": 55, "duration": 161, "velocity": 88}, {"time": 11679, "pitch": 54, "duration": 81, "velocity": 91}, {"time": 11760, "pitch": 50, "duration": 80, "velocity": 108}, {"time": 13198, "pitch": 62, "duration": 241, "velocity": 68}, {"time": 13439, "pitch": 67, "duration": 241, "velocity": 117}, {"time": 13840, "pitch": 67, "duration": 121, "velocity": 108}, {"time": 14877, "pitch": 55, "duration": 120, "velocity": 91}, {"time": 15118, "pitch": 55, "duration": 120, "velocity": 88}, {"time": 15359, "pitch": 55, "duration": 160, "velocity": 88}, {"time": 15519, "pitch": 54, "duration": 81, "velocity": 91}, {"time": 15600, "pitch": 50, "duration": 80, "velocity": 108}, {"time": 16560, "pitch": 67, "duration": 79, "velocity": 108}, {"time": 16797, "pitch": 70, "duration": 160, "velocity": 100}, {"time": 16957, "pitch": 72, "duration": 81, "velocity": 113}, {"time": 17198, "pitch": 72, "duration": 81, "velocity": 113}, {"time": 18717, "pitch": 76, "duration": 241, "velocity": 117}, {"time": 18958, "pitch": 79, "duration": 80, "velocity": 113}, {"time": 19199, "pitch": 76, "duration": 80, "velocity": 101}, {"time": 19279, "pitch": 75, "duration": 80, "velocity": 91}, {"time": 19359, "pitch": 74, "duration": 81, "velocity": 104}, {"time": 19440, "pitch": 72, "duration": 241, "velocity": 122}, {"time": 20878, "pitch": 62, "duration": 241, "velocity": 68}, {"time": 21119, "pitch": 67, "duration": 241, "velocity": 117}, {"time": 21521, "pitch": 67, "duration": 120, "velocity": 108}, {"time": 22557, "pitch": 55, "duration": 120, "velocity": 91}, {"time": 22798, "pitch": 55, "duration": 120, "velocity": 88}, {"time": 23039, "pitch": 55, "duration": 161, "velocity": 88}, {"time": 23200, "pitch": 54, "duration": 80, "velocity": 91}, {"time": 23280, "pitch": 50, "duration": 80, "velocity": 108}, {"time": 24240, "pitch": 67, "duration": 79, "velocity": 108}, {"time": 24477, "pitch": 70, "duration": 161, "velocity": 100}, {"time": 24638, "pitch": 72, "duration": 80, "velocity": 113}, {"time": 24879, "pitch": 72, "duration": 80, "velocity": 113}, {"time": 26397, "pitch": 55, "duration": 121, "velocity": 91}, {"time": 26638, "pitch": 55, "duration": 121, "velocity": 88}, {"time": 26879, "pitch": 55, "duration": 161, "velocity": 88}, {"time": 27040, "pitch": 54, "duration": 80, "velocity": 91}, {"time": 27120, "pitch": 50, "duration": 80, "velocity": 108}, {"time": 28558, "pitch": 62, "duration": 241, "velocity": 68}, {"time": 28799, "pitch": 67, "duration": 241, "velocity": 117}, {"time": 29201, "pitch": 67, "duration": 120, "velocity": 108}, {"time": 30237, "pitch": 55, "duration": 121, "velocity": 91}, {"time": 30478, "pitch": 55, "duration": 121, "velocity": 88}, {"time": 30719, "pitch": 55, "duration": 161, "velocity": 88}, {"time": 30880, "pitch": 54, "duration": 80, "velocity": 91}, {"time": 30960, "pitch": 50, "duration": 81, "velocity": 108}, {"time": 31920, "pitch": 67, "duration": 79, "velocity": 108}, {"time": 32157, "pitch": 70, "duration": 161, "velocity": 100}, {"time": 32318, "pitch": 72, "duration": 80, "velocity": 113}, {"time": 32559, "pitch": 72, "duration": 80, "velocity": 113}, {"time": 34077, "pitch": 76, "duration": 241, "velocity": 117}, {"time": 34318, "pitch": 79, "duration": 81, "velocity": 113}, {"time": 34559, "pitch": 76, "duration": 81, "velocity": 101}, {"time": 34640, "pitch": 75, "duration": 80, "velocity": 91}, {"time": 34720, "pitch": 74, "duration": 80, "velocity": 104}, {"time": 34800, "pitch": 72, "duration": 242, "velocity": 122}, {"time": 36238, "pitch": 62, "duration": 242, "velocity": 68}, {"time": 36480, "pitch": 67, "duration": 241, "velocity": 117}, {"time": 36881, "pitch": 67, "duration": 121, "velocity": 108}, {"time": 37918, "pitch": 55, "duration": 120, "velocity": 91}, {"time": 38159, "pitch": 55, "duration": 120, "velocity": 88}, {"time": 38400, "pitch": 55, "duration": 160, "velocity": 88}, {"time": 38560, "pitch": 54, "duration": 81, "velocity": 91}, {"time": 38641, "pitch": 50, "duration": 80, "velocity": 108}, {"time": 39601, "pitch": 67, "duration": 79, "velocity": 108}, {"time": 39838, "pitch": 70, "duration": 160, "velocity": 100}, {"time": 39998, "pitch": 72, "duration": 81, "velocity": 113}, {"time": 40239, "pitch": 72, "duration": 81, "velocity": 113}, {"time": 41758, "pitch": 55, "duration": 120, "velocity": 91}, {"time": 41999, "pitch": 55, "duration": 120, "velocity": 88}, {"time": 42240, "pitch": 55, "duration": 160, "velocity": 88}, {"time": 42400, "pitch": 54, "duration": 81, "velocity": 91}, {"time": 42481, "pitch": 50, "duration": 80, "velocity": 108}, {"time": 43919, "pitch": 62, "duration": 241, "velocity": 68}, {"time": 44160, "pitch": 67, "duration": 241, "velocity": 117}, {"time": 44562, "pitch": 67, "duration": 120, "velocity": 108}, {"time": 45598, "pitch": 55, "duration": 120, "velocity": 91}, {"time": 45839, "pitch": 55, "duration": 120, "velocity": 88}, {"time": 46080, "pitch": 55, "duration": 161, "velocity": 88}, {"time": 46241, "pitch": 54, "duration": 80, "velocity": 91}, {"time": 46321, "pitch": 50, "duration": 80, "velocity": 108}, {"time": 47281, "pitch": 67, "duration": 79, "velocity": 108}, {"time": 47518, "pitch": 70, "duration": 161, "velocity": 100}, {"time": 47679, "pitch": 72, "duration": 80, "velocity": 113}, {"time": 47920, "pitch": 72, "duration": 80, "velocity": 113}, {"time": 49438, "pitch": 76, "duration": 241, "velocity": 117}, {"time": 49679, "pitch": 79, "duration": 80, "velocity": 113}, {"time": 49920, "pitch": 76, "duration": 80, "velocity": 101}, {"time": 50000, "pitch": 75, "duration": 81, "velocity": 91}, {"time": 50081, "pitch": 74, "duration": 80, "velocity": 104}, {"time": 50161, "pitch": 72, "duration": 241, "velocity": 122}, {"time": 65763, "pitch": 69, "duration": 237, "velocity": 98}, {"time": 66118, "pitch": 72, "duration": 119, "velocity": 100}, {"time": 66357, "pitch": 69, "duration": 121, "velocity": 102}, {"time": 66598, "pitch": 72, "duration": 121, "velocity": 109}, {"time": 66839, "pitch": 69, "duration": 121, "velocity": 109}, {"time": 67080, "pitch": 67, "duration": 121, "velocity": 100}, {"time": 67321, "pitch": 72, "duration": 241, "velocity": 105}, {"time": 67683, "pitch": 69, "duration": 237, "velocity": 98}, {"time": 68038, "pitch": 72, "duration": 119, "velocity": 100}, {"time": 68277, "pitch": 69, "duration": 121, "velocity": 102}, {"time": 68518, "pitch": 72, "duration": 121, "velocity": 109}, {"time": 68759, "pitch": 69, "duration": 121, "velocity": 109}, {"time": 69000, "pitch": 72, "duration": 121, "velocity": 100}, {"time": 69362, "pitch": 69, "duration": 241, "velocity": 105}, {"time": 69603, "pitch": 69, "duration": 237, "velocity": 98}, {"time": 69958, "pitch": 72, "duration": 119, "velocity": 100}, {"time": 70197, "pitch": 69, "duration": 121, "velocity": 102}, {"time": 70438, "pitch": 72, "duration": 121, "velocity": 109}, {"time": 70679, "pitch": 69, "duration": 121, "velocity": 109}, {"time": 70920, "pitch": 67, "duration": 121, "velocity": 100}, {"time": 71161, "pitch": 72, "duration": 241, "velocity": 105}, {"time": 71523, "pitch": 69, "duration": 237, "velocity": 98}, {"time": 71878, "pitch": 72, "duration": 119, "velocity": 100}, {"time": 72117, "pitch": 69, "duration": 121, "velocity": 102}, {"time": 72358, "pitch": 72, "duration": 121, "velocity": 109}, {"time": 72479, "pitch": 76, "duration": 241, "velocity": 127}, {"time": 72720, "pitch": 79, "duration": 80, "velocity": 127}, {"time": 72961, "pitch": 76, "duration": 80, "velocity": 120}, {"time": 73041, "pitch": 75, "duration": 81, "velocity": 110}, {"time": 73122, "pitch": 74, "duration": 80, "velocity": 123}, {"time": 73202, "pitch": 72, "duration": 242, "velocity": 127}, {"time": 73443, "pitch": 69, "duration": 237, "velocity": 98}, {"time": 73798, "pitch": 72, "duration": 119, "velocity": 100}, {"time": 74037, "pitch": 69, "duration": 121, "velocity": 102}, {"time": 74278, "pitch": 72, "duration": 121, "velocity": 109}, {"time": 74520, "pitch": 69, "duration": 120, "velocity": 109}, {"time": 74761, "pitch": 67, "duration": 120, "velocity": 100}, {"time": 75002, "pitch": 72, "duration": 241, "velocity": 105}, {"time": 75363, "pitch": 69, "duration": 237, "velocity": 98}, {"time": 75719, "pitch": 72, "duration": 118, "velocity": 100}, {"time": 75958, "pitch": 69, "duration": 120, "velocity": 102}, {"time": 76199, "pitch": 72, "duration": 120, "velocity": 109}, {"time": 76440, "pitch": 69, "duration": 120, "velocity": 109}, {"time": 76681, "pitch": 72, "duration": 120, "velocity": 100}, {"time": 77042, "pitch": 69, "duration": 241, "velocity": 105}, {"time": 77283, "pitch": 69, "duration": 237, "velocity": 98}, {"time": 77639, "pitch": 72, "duration": 118, "velocity": 100}, {"time": 77878, "pitch": 69, "duration": 120, "velocity": 102}, {"time": 78119, "pitch": 72, "duration": 120, "velocity": 109}, {"time": 78360, "pitch": 69, "duration": 120, "velocity": 109}, {"time": 78601, "pitch": 67, "duration": 120, "velocity": 100}, {"time": 78842, "pitch": 72, "duration": 241, "velocity": 105}, {"time": 79203, "pitch": 69, "duration": 237, "velocity": 98}, {"time": 79559, "pitch": 72, "duration": 118, "velocity": 100}, {"time": 79798, "pitch": 69, "duration": 120, "velocity": 102}, {"time": 80039, "pitch": 72, "duration": 120, "velocity": 109}, {"time": 80159, "pitch": 76, "duration": 241, "velocity": 127}, {"time": 80400, "pitch": 79, "duration": 81, "velocity": 127}, {"time": 80641, "pitch": 76, "duration": 81, "velocity": 120}, {"time": 80722, "pitch": 75, "duration": 80, "velocity": 110}, {"time": 80802, "pitch": 74, "duration": 80, "velocity": 123}, {"time": 80882, "pitch": 72, "duration": 241, "velocity": 127}, {"time": 97681, "pitch": 62, "duration": 241, "velocity": 68}, {"time": 97922, "pitch": 67, "duration": 241, "velocity": 117}, {"time": 98324, "pitch": 67, "duration": 120, "velocity": 108}, {"time": 99360, "pitch": 55, "duration": 121, "velocity": 91}, {"time": 99601, "pitch": 55, "duration": 121, "velocity": 88}, {"time": 99842, "pitch": 55, "duration": 158, "velocity": 88}, {"time": 100000, "pitch": 54, "duration": 79, "velocity": 91}, {"time": 100079, "pitch": 50, "duration": 201, "velocity": 108}, {"time": 101039, "pitch": 67, "duration": 121, "velocity": 108}, {"time": 101280, "pitch": 70, "duration": 121, "velocity": 100}, {"time": 101401, "pitch": 72, "duration": 120, "velocity": 113}, {"time": 101642, "pitch": 72, "duration": 120, "velocity": 113}, {"time": 103200, "pitch": 55, "duration": 121, "velocity": 91}, {"time": 103441, "pitch": 55, "duration": 121, "velocity": 88}, {"time": 103682, "pitch": 55, "duration": 119, "velocity": 88}, {"time": 103801, "pitch": 54, "duration": 118, "velocity": 91}, {"time": 103919, "pitch": 50, "duration": 119, "velocity": 108}, {"time": 105361, "pitch": 62, "duration": 241, "velocity": 68}, {"time": 105602, "pitch": 67, "duration": 237, "velocity": 117}, {"time": 105997, "pitch": 67, "duration": 119, "velocity": 108}, {"time": 107040, "pitch": 55, "duration": 121, "velocity": 91}, {"time": 107281, "pitch": 55, "duration": 121, "velocity": 88}, {"time": 107522, "pitch": 55, "duration": 119, "velocity": 88}, {"time": 107641, "pitch": 54, "duration": 118, "velocity": 91}, {"time": 107759, "pitch": 50, "duration": 119, "velocity": 108}, {"time": 108719, "pitch": 67, "duration": 121, "velocity": 108}, {"time": 108960, "pitch": 70, "duration": 121, "velocity": 100}, {"time": 109081, "pitch": 72, "duration": 120, "velocity": 113}, {"time": 109322, "pitch": 72, "duration": 120, "velocity": 113}, {"time": 110881, "pitch": 76, "duration": 241, "velocity": 117}, {"time": 111122, "pitch": 79, "duration": 80, "velocity": 113}, {"time": 111363, "pitch": 76, "duration": 79, "velocity": 101}, {"time": 111442, "pitch": 75, "duration": 79, "velocity": 91}, {"time": 111521, "pitch": 74, "duration": 79, "velocity": 104}, {"time": 111600, "pitch": 72, "duration": 236, "velocity": 122}, {"time": 127197, "pitch": 69, "duration": 241, "velocity": 96}, {"time": 127559, "pitch": 72, "duration": 120, "velocity": 98}, {"time": 127800, "pitch": 69, "duration": 120, "velocity": 100}, {"time": 128041, "pitch": 72, "duration": 120, "velocity": 107}, {"time": 128282, "pitch": 69, "duration": 120, "velocity": 107}, {"time": 128523, "pitch": 67, "duration": 120, "velocity": 98}, {"time": 128762, "pitch": 72, "duration": 237, "velocity": 103}, {"time": 129117, "pitch": 69, "duration": 241, "velocity": 96}, {"time": 129479, "pitch": 72, "duration": 120, "velocity": 98}, {"time": 129720, "pitch": 69, "duration": 120, "velocity": 100}, {"time": 129961, "pitch": 72, "duration": 120, "velocity": 107}, {"time": 130202, "pitch": 69, "duration": 120, "velocity": 107}, {"time": 130443, "pitch": 72, "duration": 120, "velocity": 98}, {"time": 130800, "pitch": 69, "duration": 237, "velocity": 103}, {"time": 131037, "pitch": 69, "duration": 241, "velocity": 96}, {"time": 131399, "pitch": 72, "duration": 120, "velocity": 98}, {"time": 131640, "pitch": 69, "duration": 120, "velocity": 100}, {"time": 131881, "pitch": 72, "duration": 120, "velocity": 107}, {"time": 132122, "pitch": 69, "duration": 120, "velocity": 107}, {"time": 132363, "pitch": 67, "duration": 120, "velocity": 98}, {"time": 132602, "pitch": 72, "duration": 237, "velocity": 103}, {"time": 132957, "pitch": 69, "duration": 241, "velocity": 96}, {"time": 133319, "pitch": 72, "duration": 120, "velocity": 98}, {"time": 133560, "pitch": 69, "duration": 120, "velocity": 100}, {"time": 133801, "pitch": 72, "duration": 120, "velocity": 107}, {"time": 133921, "pitch": 76, "duration": 242, "velocity": 127}, {"time": 134163, "pitch": 79, "duration": 80, "velocity": 127}, {"time": 134403, "pitch": 76, "duration": 79, "velocity": 118}, {"time": 134482, "pitch": 75, "duration": 79, "velocity": 108}, {"time": 134561, "pitch": 74, "duration": 79, "velocity": 121}, {"time": 134640, "pitch": 72, "duration": 238, "velocity": 127}, {"time": 134877, "pitch": 69, "duration": 241, "velocity": 96}, {"time": 135239, "pitch": 72, "duration": 120, "velocity": 98}, {"time": 135480, "pitch": 69, "duration": 120, "velocity": 100}, {"time": 135721, "pitch": 72, "duration": 121, "velocity": 107}, {"time": 135962, "pitch": 69, "duration": 121, "velocity": 107}, {"time": 136203, "pitch": 67, "duration": 121, "velocity": 98}, {"time": 136442, "pitch": 72, "duration": 237, "velocity": 103}, {"time": 136797, "pitch": 69, "duration": 241, "velocity": 96}, {"time": 137159, "pitch": 72, "duration": 121, "velocity": 98}, {"time": 137400, "pitch": 69, "duration": 121, "velocity": 100}, {"time": 137641, "pitch": 72, "duration": 121, "velocity": 107}, {"time": 137882, "pitch": 69, "duration": 121, "velocity": 107}, {"time": 138123, "pitch": 72, "duration": 121, "velocity": 98}, {"time": 138481, "pitch": 69, "duration": 237, "velocity": 103}, {"time": 138718, "pitch": 69, "duration": 241, "velocity": 96}, {"time": 139079, "pitch": 72, "duration": 121, "velocity": 98}, {"time": 139320, "pitch": 69, "duration": 121, "velocity": 100}, {"time": 139561, "pitch": 72, "duration": 121, "velocity": 107}, {"time": 139802, "pitch": 69, "duration": 121, "velocity": 107}, {"time": 140043, "pitch": 67, "duration": 121, "velocity": 98}, {"time": 140282, "pitch": 72, "duration": 237, "velocity": 103}, {"time": 140638, "pitch": 69, "duration": 241, "velocity": 96}, {"time": 140999, "pitch": 72, "duration": 121, "velocity": 98}, {"time": 141240, "pitch": 69, "duration": 121, "velocity": 100}, {"time": 141481, "pitch": 72, "duration": 121, "velocity": 107}, {"time": 141602, "pitch": 76, "duration": 241, "velocity": 127}, {"time": 141843, "pitch": 79, "duration": 80, "velocity": 127}, {"time": 142084, "pitch": 76, "duration": 79, "velocity": 118}, {"time": 142163, "pitch": 75, "duration": 79, "velocity": 108}, {"time": 142242, "pitch": 74, "duration": 79, "velocity": 121}, {"time": 142321, "pitch": 72, "duration": 237, "velocity": 127}, {"time": 22438, "pitch": 60, "duration": 239, "velocity": 123}, {"time": 22677, "pitch": 57, "duration": 121, "velocity": 109}, {"time": 22798, "pitch": 54, "duration": 120, "velocity": 118}, {"time": 23039, "pitch": 62, "duration": 362, "velocity": 117}, {"time": 25682, "pitch": 62, "duration": 241, "velocity": 120}, {"time": 25923, "pitch": 64, "duration": 119, "velocity": 105}, {"time": 26042, "pitch": 62, "duration": 118, "velocity": 90}, {"time": 26160, "pitch": 60, "duration": 119, "velocity": 123}, {"time": 26397, "pitch": 57, "duration": 255, "velocity": 114}, {"time": 26638, "pitch": 55, "duration": 121, "velocity": 90}, {"time": 26759, "pitch": 53, "duration": 241, "velocity": 105}, {"time": 27000, "pitch": 52, "duration": 120, "velocity": 109}, {"time": 27120, "pitch": 48, "duration": 362, "velocity": 108}, {"time": 30119, "pitch": 54, "duration": 118, "velocity": 111}, {"time": 30237, "pitch": 62, "duration": 121, "velocity": 99}, {"time": 30358, "pitch": 54, "duration": 120, "velocity": 99}, {"time": 30478, "pitch": 60, "duration": 121, "velocity": 96}, {"time": 30599, "pitch": 54, "duration": 120, "velocity": 106}, {"time": 30719, "pitch": 57, "duration": 482, "velocity": 111}, {"time": 33362, "pitch": 50, "duration": 360, "velocity": 123}, {"time": 33722, "pitch": 57, "duration": 118, "velocity": 109}, {"time": 33959, "pitch": 55, "duration": 118, "velocity": 123}, {"time": 34198, "pitch": 53, "duration": 120, "velocity": 102}, {"time": 34439, "pitch": 52, "duration": 120, "velocity": 116}, {"time": 34559, "pitch": 50, "duration": 241, "velocity": 123}, {"time": 34800, "pitch": 48, "duration": 483, "velocity": 113}, {"time": 37799, "pitch": 69, "duration": 119, "velocity": 123}, {"time": 37799, "pitch": 74, "duration": 119, "velocity": 123}, {"time": 38038, "pitch": 71, "duration": 121, "velocity": 114}, {"time": 38038, "pitch": 76, "duration": 121, "velocity": 121}, {"time": 38159, "pitch": 69, "duration": 120, "velocity": 123}, {"time": 38159, "pitch": 74, "duration": 120, "velocity": 123}, {"time": 38400, "pitch": 69, "duration": 120, "velocity": 123}, {"time": 38520, "pitch": 67, "duration": 121, "velocity": 77}, {"time": 38641, "pitch": 64, "duration": 120, "velocity": 123}, {"time": 38761, "pitch": 62, "duration": 121, "velocity": 121}, {"time": 41639, "pitch": 67, "duration": 119, "velocity": 117}, {"time": 41639, "pitch": 76, "duration": 119, "velocity": 123}, {"time": 41878, "pitch": 67, "duration": 121, "velocity": 112}, {"time": 41878, "pitch": 76, "duration": 121, "velocity": 121}, {"time": 41999, "pitch": 74, "duration": 241, "velocity": 123}, {"time": 42119, "pitch": 67, "duration": 121, "velocity": 108}, {"time": 42240, "pitch": 76, "duration": 120, "velocity": 123}, {"time": 42360, "pitch": 67, "duration": 241, "velocity": 114}, {"time": 45479, "pitch": 54, "duration": 119, "velocity": 118}, {"time": 45598, "pitch": 62, "duration": 120, "velocity": 105}, {"time": 45718, "pitch": 54, "duration": 121, "velocity": 105}, {"time": 45839, "pitch": 60, "duration": 120, "velocity": 102}, {"time": 45959, "pitch": 54, "duration": 121, "velocity": 112}, {"time": 46080, "pitch": 57, "duration": 482, "velocity": 123}, {"time": 49317, "pitch": 67, "duration": 121, "velocity": 118}, {"time": 49438, "pitch": 76, "duration": 120, "velocity": 105}, {"time": 49558, "pitch": 67, "duration": 121, "velocity": 105}, {"time": 49679, "pitch": 74, "duration": 121, "velocity": 102}, {"time": 49800, "pitch": 67, "duration": 120, "velocity": 112}, {"time": 49920, "pitch": 70, "duration": 482, "velocity": 123}, {"time": 99240, "pitch": 60, "duration": 241, "velocity": 127}, {"time": 99481, "pitch": 57, "duration": 120, "velocity": 106}, {"time": 99601, "pitch": 54, "duration": 121, "velocity": 115}, {"time": 99842, "pitch": 62, "duration": 356, "velocity": 114}, {"time": 102477, "pitch": 62, "duration": 241, "velocity": 117}, {"time": 102718, "pitch": 64, "duration": 121, "velocity": 102}, {"time": 102839, "pitch": 62, "duration": 120, "velocity": 87}, {"time": 102959, "pitch": 60, "duration": 121, "velocity": 127}, {"time": 103200, "pitch": 57, "duration": 255, "velocity": 111}, {"time": 103441, "pitch": 55, "duration": 121, "velocity": 87}, {"time": 103562, "pitch": 53, "duration": 239, "velocity": 102}, {"time": 103801, "pitch": 52, "duration": 118, "velocity": 106}, {"time": 103919, "pitch": 48, "duration": 358, "velocity": 105}, {"time": 106920, "pitch": 54, "duration": 120, "velocity": 115}, {"time": 107040, "pitch": 62, "duration": 121, "velocity": 102}, {"time": 107161, "pitch": 54, "duration": 120, "velocity": 102}, {"time": 107281, "pitch": 60, "duration": 121, "velocity": 99}, {"time": 107402, "pitch": 54, "duration": 120, "velocity": 109}, {"time": 107522, "pitch": 57, "duration": 474, "velocity": 122}, {"time": 110157, "pitch": 50, "duration": 362, "velocity": 125}, {"time": 110519, "pitch": 57, "duration": 120, "velocity": 106}, {"time": 110760, "pitch": 55, "duration": 121, "velocity": 127}, {"time": 111001, "pitch": 53, "duration": 121, "velocity": 99}, {"time": 111242, "pitch": 52, "duration": 121, "velocity": 113}, {"time": 111363, "pitch": 50, "duration": 237, "velocity": 120}, {"time": 111600, "pitch": 48, "duration": 477, "velocity": 110}, {"time": 65763, "pitch": 65, "duration": 217, "velocity": 126}, {"time": 65773, "pitch": 69, "duration": 217, "velocity": 127}, {"time": 65773, "pitch": 72, "duration": 217, "velocity": 121}, {"time": 66000, "pitch": 65, "duration": 49, "velocity": 86}, {"time": 66019, "pitch": 69, "duration": 50, "velocity": 71}, {"time": 66128, "pitch": 69, "duration": 49, "velocity": 65}, {"time": 66138, "pitch": 65, "duration": 49, "velocity": 64}, {"time": 66237, "pitch": 65, "duration": 221, "velocity": 117}, {"time": 66247, "pitch": 69, "duration": 221, "velocity": 117}, {"time": 66257, "pitch": 72, "duration": 221, "velocity": 112}, {"time": 66478, "pitch": 65, "duration": 50, "velocity": 86}, {"time": 66498, "pitch": 69, "duration": 50, "velocity": 71}, {"time": 66598, "pitch": 72, "duration": 221, "velocity": 121}, {"time": 66608, "pitch": 65, "duration": 221, "velocity": 126}, {"time": 66608, "pitch": 69, "duration": 221, "velocity": 127}, {"time": 66849, "pitch": 69, "duration": 50, "velocity": 71}, {"time": 66859, "pitch": 65, "duration": 51, "velocity": 86}, {"time": 66960, "pitch": 65, "duration": 100, "velocity": 108}, {"time": 66970, "pitch": 69, "duration": 100, "velocity": 108}, {"time": 66980, "pitch": 76, "duration": 100, "velocity": 112}, {"time": 67080, "pitch": 65, "duration": 40, "velocity": 98}, {"time": 67080, "pitch": 69, "duration": 40, "velocity": 105}, {"time": 67201, "pitch": 65, "duration": 221, "velocity": 126}, {"time": 67211, "pitch": 69, "duration": 221, "velocity": 126}, {"time": 67221, "pitch": 72, "duration": 221, "velocity": 121}, {"time": 67442, "pitch": 65, "duration": 100, "velocity": 112}, {"time": 67452, "pitch": 69, "duration": 100, "velocity": 112}, {"time": 67452, "pitch": 76, "duration": 100, "velocity": 105}, {"time": 67562, "pitch": 69, "duration": 41, "velocity": 108}, {"time": 67572, "pitch": 65, "duration": 41, "velocity": 98}, {"time": 67693, "pitch": 67, "duration": 217, "velocity": 126}, {"time": 67693, "pitch": 69, "duration": 217, "velocity": 127}, {"time": 67693, "pitch": 72, "duration": 217, "velocity": 121}, {"time": 67930, "pitch": 67, "duration": 49, "velocity": 86}, {"time": 67940, "pitch": 69, "duration": 49, "velocity": 71}, {"time": 68048, "pitch": 69, "duration": 49, "velocity": 65}, {"time": 68068, "pitch": 67, "duration": 49, "velocity": 64}, {"time": 68167, "pitch": 67, "duration": 221, "velocity": 117}, {"time": 68167, "pitch": 69, "duration": 221, "velocity": 117}, {"time": 68177, "pitch": 72, "duration": 221, "velocity": 112}, {"time": 68408, "pitch": 67, "duration": 50, "velocity": 86}, {"time": 68418, "pitch": 69, "duration": 50, "velocity": 71}, {"time": 68518, "pitch": 72, "duration": 221, "velocity": 121}, {"time": 68528, "pitch": 69, "duration": 221, "velocity": 127}, {"time": 68538, "pitch": 67, "duration": 221, "velocity": 126}, {"time": 68769, "pitch": 69, "duration": 51, "velocity": 71}, {"time": 68789, "pitch": 67, "duration": 51, "velocity": 86}, {"time": 68890, "pitch": 67, "duration": 100, "velocity": 108}, {"time": 68890, "pitch": 69, "duration": 100, "velocity": 108}, {"time": 68900, "pitch": 76, "duration": 100, "velocity": 112}, {"time": 69000, "pitch": 69, "duration": 41, "velocity": 105}, {"time": 69010, "pitch": 67, "duration": 41, "velocity": 98}, {"time": 69131, "pitch": 67, "duration": 221, "velocity": 126}, {"time": 69131, "pitch": 69, "duration": 221, "velocity": 126}, {"time": 69141, "pitch": 72, "duration": 221, "velocity": 121}, {"time": 69372, "pitch": 67, "duration": 100, "velocity": 112}, {"time": 69372, "pitch": 69, "duration": 100, "velocity": 112}, {"time": 69372, "pitch": 76, "duration": 100, "velocity": 105}, {"time": 69482, "pitch": 69, "duration": 41, "velocity": 108}, {"time": 69503, "pitch": 67, "duration": 40, "velocity": 98}, {"time": 69613, "pitch": 64, "duration": 217, "velocity": 126}, {"time": 69613, "pitch": 69, "duration": 217, "velocity": 127}, {"time": 69613, "pitch": 72, "duration": 217, "velocity": 121}, {"time": 69850, "pitch": 64, "duration": 49, "velocity": 86}, {"time": 69860, "pitch": 69, "duration": 49, "velocity": 71}, {"time": 69968, "pitch": 69, "duration": 50, "velocity": 65}, {"time": 69988, "pitch": 64, "duration": 49, "velocity": 64}, {"time": 70087, "pitch": 64, "duration": 221, "velocity": 117}, {"time": 70087, "pitch": 69, "duration": 221, "velocity": 117}, {"time": 70097, "pitch": 72, "duration": 221, "velocity": 112}, {"time": 70328, "pitch": 64, "duration": 50, "velocity": 86}, {"time": 70338, "pitch": 69, "duration": 50, "velocity": 71}, {"time": 70438, "pitch": 72, "duration": 221, "velocity": 121}, {"time": 70448, "pitch": 69, "duration": 221, "velocity": 127}, {"time": 70458, "pitch": 64, "duration": 221, "velocity": 126}, {"time": 70689, "pitch": 69, "duration": 51, "velocity": 71}, {"time": 70709, "pitch": 64, "duration": 51, "velocity": 86}, {"time": 70810, "pitch": 64, "duration": 100, "velocity": 108}, {"time": 70810, "pitch": 69, "duration": 100, "velocity": 108}, {"time": 70820, "pitch": 76, "duration": 100, "velocity": 112}, {"time": 70920, "pitch": 69, "duration": 41, "velocity": 105}, {"time": 70930, "pitch": 64, "duration": 41, "velocity": 98}, {"time": 71051, "pitch": 64, "duration": 221, "velocity": 126}, {"time": 71051, "pitch": 69, "duration": 221, "velocity": 126}, {"time": 71061, "pitch": 72, "duration": 221, "velocity": 121}, {"time": 71292, "pitch": 64, "duration": 100, "velocity": 112}, {"time": 71292, "pitch": 69, "duration": 100, "velocity": 112}, {"time": 71292, "pitch": 76, "duration": 100, "velocity": 105}, {"time": 71402, "pitch": 69, "duration": 41, "velocity": 108}, {"time": 71423, "pitch": 64, "duration": 40, "velocity": 98}, {"time": 71533, "pitch": 64, "duration": 217, "velocity": 126}, {"time": 71533, "pitch": 69, "duration": 217, "velocity": 127}, {"time": 71533, "pitch": 72, "duration": 217, "velocity": 121}, {"time": 71770, "pitch": 64, "duration": 49, "velocity": 86}, {"time": 71780, "pitch": 69, "duration": 49, "velocity": 71}, {"time": 71888, "pitch": 69, "duration": 50, "velocity": 65}, {"time": 71908, "pitch": 64, "duration": 49, "velocity": 64}, {"time": 72007, "pitch": 64, "duration": 221, "velocity": 117}, {"time": 72007, "pitch": 69, "duration": 221, "velocity": 117}, {"time": 72017, "pitch": 72, "duration": 221, "velocity": 112}, {"time": 72248, "pitch": 64, "duration": 50, "velocity": 86}, {"time": 72258, "pitch": 69, "duration": 50, "velocity": 71}, {"time": 72358, "pitch": 72, "duration": 221, "velocity": 121}, {"time": 72368, "pitch": 69, "duration": 221, "velocity": 127}, {"time": 72378, "pitch": 64, "duration": 221, "velocity": 126}, {"time": 72609, "pitch": 69, "duration": 51, "velocity": 71}, {"time": 72630, "pitch": 64, "duration": 50, "velocity": 86}, {"time": 72730, "pitch": 64, "duration": 100, "velocity": 108}, {"time": 72730, "pitch": 69, "duration": 100, "velocity": 108}, {"time": 72740, "pitch": 76, "duration": 100, "velocity": 112}, {"time": 72840, "pitch": 69, "duration": 41, "velocity": 105}, {"time": 72851, "pitch": 64, "duration": 40, "velocity": 98}, {"time": 72971, "pitch": 64, "duration": 221, "velocity": 126}, {"time": 72971, "pitch": 69, "duration": 221, "velocity": 126}, {"time": 72981, "pitch": 72, "duration": 221, "velocity": 121}, {"time": 73212, "pitch": 64, "duration": 101, "velocity": 112}, {"time": 73212, "pitch": 69, "duration": 101, "velocity": 112}, {"time": 73212, "pitch": 76, "duration": 101, "velocity": 105}, {"time": 73323, "pitch": 69, "duration": 40, "velocity": 108}, {"time": 73343, "pitch": 64, "duration": 40, "velocity": 98}, {"time": 73443, "pitch": 65, "duration": 217, "velocity": 126}, {"time": 73453, "pitch": 69, "duration": 217, "velocity": 127}, {"time": 73453, "pitch": 72, "duration": 217, "velocity": 121}, {"time": 73680, "pitch": 65, "duration": 49, "velocity": 86}, {"time": 73700, "pitch": 69, "duration": 49, "velocity": 71}, {"time": 73808, "pitch": 69, "duration": 50, "velocity": 65}, {"time": 73818, "pitch": 65, "duration": 50, "velocity": 64}, {"time": 73917, "pitch": 65, "duration": 221, "velocity": 117}, {"time": 73927, "pitch": 69, "duration": 221, "velocity": 117}, {"time": 73937, "pitch": 72, "duration": 221, "velocity": 112}, {"time": 74158, "pitch": 65, "duration": 50, "velocity": 86}, {"time": 74178, "pitch": 69, "duration": 50, "velocity": 71}, {"time": 74278, "pitch": 72, "duration": 221, "velocity": 121}, {"time": 74289, "pitch": 65, "duration": 220, "velocity": 126}, {"time": 74289, "pitch": 69, "duration": 220, "velocity": 127}, {"time": 74530, "pitch": 69, "duration": 50, "velocity": 71}, {"time": 74540, "pitch": 65, "duration": 50, "velocity": 86}, {"time": 74640, "pitch": 65, "duration": 100, "velocity": 108}, {"time": 74650, "pitch": 69, "duration": 101, "velocity": 108}, {"time": 74660, "pitch": 76, "duration": 101, "velocity": 112}, {"time": 74761, "pitch": 65, "duration": 40, "velocity": 98}, {"time": 74761, "pitch": 69, "duration": 40, "velocity": 105}, {"time": 74881, "pitch": 65, "duration": 221, "velocity": 126}, {"time": 74891, "pitch": 69, "duration": 221, "velocity": 126}, {"time": 74901, "pitch": 72, "duration": 221, "velocity": 121}, {"time": 75122, "pitch": 65, "duration": 101, "velocity": 112}, {"time": 75132, "pitch": 69, "duration": 101, "velocity": 112}, {"time": 75132, "pitch": 76, "duration": 101, "velocity": 105}, {"time": 75243, "pitch": 69, "duration": 40, "velocity": 108}, {"time": 75253, "pitch": 65, "duration": 40, "velocity": 98}, {"time": 75373, "pitch": 67, "duration": 217, "velocity": 126}, {"time": 75373, "pitch": 69, "duration": 217, "velocity": 127}, {"time": 75373, "pitch": 72, "duration": 217, "velocity": 121}, {"time": 75610, "pitch": 67, "duration": 49, "velocity": 86}, {"time": 75620, "pitch": 69, "duration": 49, "velocity": 71}, {"time": 75728, "pitch": 69, "duration": 50, "velocity": 65}, {"time": 75748, "pitch": 67, "duration": 50, "velocity": 64}, {"time": 75847, "pitch": 67, "duration": 221, "velocity": 117}, {"time": 75847, "pitch": 69, "duration": 221, "velocity": 117}, {"time": 75857, "pitch": 72, "duration": 221, "velocity": 112}, {"time": 76088, "pitch": 67, "duration": 50, "velocity": 86}, {"time": 76098, "pitch": 69, "duration": 50, "velocity": 71}, {"time": 76199, "pitch": 72, "duration": 221, "velocity": 121}, {"time": 76209, "pitch": 69, "duration": 221, "velocity": 127}, {"time": 76219, "pitch": 67, "duration": 221, "velocity": 126}, {"time": 76450, "pitch": 69, "duration": 50, "velocity": 71}, {"time": 76470, "pitch": 67, "duration": 50, "velocity": 86}, {"time": 76570, "pitch": 67, "duration": 101, "velocity": 108}, {"time": 76570, "pitch": 69, "duration": 101, "velocity": 108}, {"time": 76580, "pitch": 76, "duration": 101, "velocity": 112}, {"time": 76681, "pitch": 69, "duration": 40, "velocity": 105}, {"time": 76691, "pitch": 67, "duration": 40, "velocity": 98}, {"time": 76811, "pitch": 67, "duration": 221, "velocity": 126}, {"time": 76811, "pitch": 69, "duration": 221, "velocity": 126}, {"time": 76821, "pitch": 72, "duration": 221, "velocity": 121}, {"time": 77052, "pitch": 67, "duration": 101, "velocity": 112}, {"time": 77052, "pitch": 69, "duration": 101, "velocity": 112}, {"time": 77052, "pitch": 76, "duration": 101, "velocity": 105}, {"time": 77163, "pitch": 69, "duration": 40, "velocity": 108}, {"time": 77183, "pitch": 67, "duration": 40, "velocity": 98}, {"time": 77293, "pitch": 64, "duration": 217, "velocity": 126}, {"time": 77293, "pitch": 69, "duration": 217, "velocity": 127}, {"time": 77293, "pitch": 72, "duration": 217, "velocity": 121}, {"time": 77530, "pitch": 64, "duration": 49, "velocity": 86}, {"time": 77540, "pitch": 69, "duration": 49, "velocity": 71}, {"time": 77649, "pitch": 69, "duration": 49, "velocity": 65}, {"time": 77668, "pitch": 64, "duration": 50, "velocity": 64}, {"time": 77767, "pitch": 64, "duration": 221, "velocity": 117}, {"time": 77767, "pitch": 69, "duration": 221, "velocity": 117}, {"time": 77777, "pitch": 72, "duration": 221, "velocity": 112}, {"time": 78008, "pitch": 64, "duration": 50, "velocity": 86}, {"time": 78018, "pitch": 69, "duration": 50, "velocity": 71}, {"time": 78119, "pitch": 72, "duration": 221, "velocity": 121}, {"time": 78129, "pitch": 69, "duration": 221, "velocity": 127}, {"time": 78139, "pitch": 64, "duration": 221, "velocity": 126}, {"time": 78370, "pitch": 69, "duration": 50, "velocity": 71}, {"time": 78390, "pitch": 64, "duration": 50, "velocity": 86}, {"time": 78490, "pitch": 64, "duration": 101, "velocity": 108}, {"time": 78490, "pitch": 69, "duration": 101, "velocity": 108}, {"time": 78500, "pitch": 76, "duration": 101, "velocity": 112}, {"time": 78601, "pitch": 69, "duration": 40, "velocity": 105}, {"time": 78611, "pitch": 64, "duration": 40, "velocity": 98}, {"time": 78731, "pitch": 64, "duration": 221, "velocity": 126}, {"time": 78731, "pitch": 69, "duration": 221, "velocity": 126}, {"time": 78741, "pitch": 72, "duration": 221, "velocity": 121}, {"time": 78972, "pitch": 64, "duration": 101, "velocity": 112}, {"time": 78972, "pitch": 69, "duration": 101, "velocity": 112}, {"time": 78972, "pitch": 76, "duration": 101, "velocity": 105}, {"time": 79083, "pitch": 69, "duration": 40, "velocity": 108}, {"time": 79103, "pitch": 64, "duration": 40, "velocity": 98}, {"time": 79203, "pitch": 64, "duration": 217, "velocity": 126}, {"time": 79203, "pitch": 67, "duration": 217, "velocity": 127}, {"time": 79213, "pitch": 72, "duration": 217, "velocity": 121}, {"time": 79440, "pitch": 64, "duration": 50, "velocity": 86}, {"time": 79450, "pitch": 67, "duration": 49, "velocity": 71}, {"time": 79559, "pitch": 67, "duration": 49, "velocity": 65}, {"time": 79578, "pitch": 64, "duration": 50, "velocity": 64}, {"time": 79677, "pitch": 64, "duration": 221, "velocity": 117}, {"time": 79677, "pitch": 67, "duration": 221, "velocity": 117}, {"time": 79697, "pitch": 72, "duration": 221, "velocity": 112}, {"time": 79918, "pitch": 64, "duration": 50, "velocity": 86}, {"time": 79928, "pitch": 67, "duration": 50, "velocity": 71}, {"time": 80039, "pitch": 67, "duration": 221, "velocity": 127}, {"time": 80039, "pitch": 72, "duration": 221, "velocity": 121}, {"time": 80049, "pitch": 64, "duration": 221, "velocity": 126}, {"time": 80280, "pitch": 67, "duration": 50, "velocity": 71}, {"time": 80300, "pitch": 64, "duration": 50, "velocity": 86}, {"time": 80400, "pitch": 64, "duration": 101, "velocity": 108}, {"time": 80400, "pitch": 67, "duration": 101, "velocity": 108}, {"time": 80420, "pitch": 76, "duration": 101, "velocity": 112}, {"time": 80511, "pitch": 67, "duration": 40, "velocity": 105}, {"time": 80521, "pitch": 64, "duration": 40, "velocity": 98}, {"time": 80641, "pitch": 64, "duration": 221, "velocity": 126}, {"time": 80641, "pitch": 67, "duration": 221, "velocity": 126}, {"time": 80661, "pitch": 72, "duration": 221, "velocity": 121}, {"time": 80882, "pitch": 64, "duration": 101, "velocity": 112}, {"time": 80882, "pitch": 67, "duration": 101, "velocity": 112}, {"time": 80892, "pitch": 76, "duration": 101, "velocity": 105}, {"time": 80993, "pitch": 67, "duration": 40, "velocity": 108}, {"time": 81013, "pitch": 64, "duration": 40, "velocity": 98}, {"time": 127197, "pitch": 65, "duration": 221, "velocity": 111}, {"time": 127207, "pitch": 69, "duration": 221, "velocity": 116}, {"time": 127207, "pitch": 72, "duration": 221, "velocity": 106}, {"time": 127438, "pitch": 65, "duration": 50, "velocity": 71}, {"time": 127458, "pitch": 69, "duration": 50, "velocity": 56}, {"time": 127569, "pitch": 69, "duration": 50, "velocity": 50}, {"time": 127579, "pitch": 65, "duration": 50, "velocity": 49}, {"time": 127679, "pitch": 65, "duration": 221, "velocity": 102}, {"time": 127689, "pitch": 69, "duration": 221, "velocity": 102}, {"time": 127699, "pitch": 72, "duration": 221, "velocity": 97}, {"time": 127920, "pitch": 65, "duration": 50, "velocity": 71}, {"time": 127940, "pitch": 69, "duration": 50, "velocity": 56}, {"time": 128041, "pitch": 72, "duration": 221, "velocity": 106}, {"time": 128051, "pitch": 65, "duration": 221, "velocity": 111}, {"time": 128051, "pitch": 69, "duration": 221, "velocity": 116}, {"time": 128292, "pitch": 69, "duration": 50, "velocity": 56}, {"time": 128302, "pitch": 65, "duration": 50, "velocity": 71}, {"time": 128402, "pitch": 65, "duration": 101, "velocity": 93}, {"time": 128412, "pitch": 69, "duration": 101, "velocity": 93}, {"time": 128422, "pitch": 76, "duration": 101, "velocity": 97}, {"time": 128523, "pitch": 65, "duration": 40, "velocity": 83}, {"time": 128523, "pitch": 69, "duration": 40, "velocity": 90}, {"time": 128643, "pitch": 65, "duration": 217, "velocity": 111}, {"time": 128653, "pitch": 69, "duration": 217, "velocity": 111}, {"time": 128663, "pitch": 72, "duration": 217, "velocity": 106}, {"time": 128880, "pitch": 65, "duration": 99, "velocity": 97}, {"time": 128890, "pitch": 69, "duration": 99, "velocity": 97}, {"time": 128890, "pitch": 76, "duration": 99, "velocity": 90}, {"time": 128999, "pitch": 69, "duration": 39, "velocity": 93}, {"time": 129009, "pitch": 65, "duration": 39, "velocity": 83}, {"time": 129127, "pitch": 67, "duration": 221, "velocity": 111}, {"time": 129127, "pitch": 69, "duration": 221, "velocity": 116}, {"time": 129127, "pitch": 72, "duration": 221, "velocity": 106}, {"time": 129368, "pitch": 67, "duration": 50, "velocity": 71}, {"time": 129378, "pitch": 69, "duration": 50, "velocity": 56}, {"time": 129489, "pitch": 69, "duration": 50, "velocity": 50}, {"time": 129509, "pitch": 67, "duration": 50, "velocity": 49}, {"time": 129609, "pitch": 67, "duration": 221, "velocity": 102}, {"time": 129609, "pitch": 69, "duration": 221, "velocity": 102}, {"time": 129619, "pitch": 72, "duration": 221, "velocity": 97}, {"time": 129850, "pitch": 67, "duration": 51, "velocity": 71}, {"time": 129860, "pitch": 69, "duration": 51, "velocity": 56}, {"time": 129961, "pitch": 72, "duration": 221, "velocity": 106}, {"time": 129971, "pitch": 69, "duration": 221, "velocity": 116}, {"time": 129981, "pitch": 67, "duration": 221, "velocity": 111}, {"time": 130212, "pitch": 69, "duration": 50, "velocity": 56}, {"time": 130232, "pitch": 67, "duration": 50, "velocity": 71}, {"time": 130332, "pitch": 67, "duration": 101, "velocity": 93}, {"time": 130332, "pitch": 69, "duration": 101, "velocity": 93}, {"time": 130342, "pitch": 76, "duration": 101, "velocity": 97}, {"time": 130443, "pitch": 69, "duration": 40, "velocity": 90}, {"time": 130453, "pitch": 67, "duration": 40, "velocity": 83}, {"time": 130573, "pitch": 67, "duration": 217, "velocity": 111}, {"time": 130573, "pitch": 69, "duration": 217, "velocity": 111}, {"time": 130583, "pitch": 72, "duration": 217, "velocity": 106}, {"time": 130810, "pitch": 67, "duration": 99, "velocity": 97}, {"time": 130810, "pitch": 69, "duration": 99, "velocity": 97}, {"time": 130810, "pitch": 76, "duration": 99, "velocity": 90}, {"time": 130919, "pitch": 69, "duration": 39, "velocity": 93}, {"time": 130939, "pitch": 67, "duration": 39, "velocity": 83}, {"time": 131047, "pitch": 64, "duration": 221, "velocity": 111}, {"time": 131047, "pitch": 69, "duration": 221, "velocity": 116}, {"time": 131047, "pitch": 72, "duration": 221, "velocity": 106}, {"time": 131288, "pitch": 64, "duration": 51, "velocity": 71}, {"time": 131298, "pitch": 69, "duration": 51, "velocity": 56}, {"time": 131409, "pitch": 69, "duration": 50, "velocity": 50}, {"time": 131429, "pitch": 64, "duration": 50, "velocity": 49}, {"time": 131529, "pitch": 64, "duration": 221, "velocity": 102}, {"time": 131529, "pitch": 69, "duration": 221, "velocity": 102}, {"time": 131539, "pitch": 72, "duration": 221, "velocity": 97}, {"time": 131770, "pitch": 64, "duration": 51, "velocity": 71}, {"time": 131780, "pitch": 69, "duration": 51, "velocity": 56}, {"time": 131881, "pitch": 72, "duration": 221, "velocity": 106}, {"time": 131891, "pitch": 69, "duration": 221, "velocity": 116}, {"time": 131901, "pitch": 64, "duration": 221, "velocity": 111}, {"time": 132132, "pitch": 69, "duration": 50, "velocity": 56}, {"time": 132152, "pitch": 64, "duration": 50, "velocity": 71}, {"time": 132252, "pitch": 64, "duration": 101, "velocity": 93}, {"time": 132252, "pitch": 69, "duration": 101, "velocity": 93}, {"time": 132263, "pitch": 76, "duration": 100, "velocity": 97}, {"time": 132363, "pitch": 69, "duration": 40, "velocity": 90}, {"time": 132373, "pitch": 64, "duration": 40, "velocity": 83}, {"time": 132493, "pitch": 64, "duration": 217, "velocity": 111}, {"time": 132493, "pitch": 69, "duration": 217, "velocity": 111}, {"time": 132503, "pitch": 72, "duration": 217, "velocity": 106}, {"time": 132730, "pitch": 64, "duration": 99, "velocity": 97}, {"time": 132730, "pitch": 69, "duration": 99, "velocity": 97}, {"time": 132730, "pitch": 76, "duration": 99, "velocity": 90}, {"time": 132839, "pitch": 69, "duration": 39, "velocity": 93}, {"time": 132859, "pitch": 64, "duration": 39, "velocity": 83}, {"time": 132967, "pitch": 64, "duration": 221, "velocity": 111}, {"time": 132967, "pitch": 69, "duration": 221, "velocity": 116}, {"time": 132967, "pitch": 72, "duration": 221, "velocity": 106}, {"time": 133208, "pitch": 64, "duration": 51, "velocity": 71}, {"time": 133218, "pitch": 69, "duration": 51, "velocity": 56}, {"time": 133329, "pitch": 69, "duration": 50, "velocity": 50}, {"time": 133349, "pitch": 64, "duration": 50, "velocity": 49}, {"time": 133449, "pitch": 64, "duration": 221, "velocity": 102}, {"time": 133449, "pitch": 69, "duration": 221, "velocity": 102}, {"time": 133459, "pitch": 72, "duration": 221, "velocity": 97}, {"time": 133690, "pitch": 64, "duration": 51, "velocity": 71}, {"time": 133701, "pitch": 69, "duration": 50, "velocity": 56}, {"time": 133801, "pitch": 72, "duration": 221, "velocity": 106}, {"time": 133811, "pitch": 69, "duration": 221, "velocity": 116}, {"time": 133821, "pitch": 64, "duration": 221, "velocity": 111}, {"time": 134052, "pitch": 69, "duration": 50, "velocity": 56}, {"time": 134072, "pitch": 64, "duration": 50, "velocity": 71}, {"time": 134173, "pitch": 64, "duration": 100, "velocity": 93}, {"time": 134173, "pitch": 69, "duration": 100, "velocity": 93}, {"time": 134183, "pitch": 76, "duration": 100, "velocity": 97}, {"time": 134283, "pitch": 69, "duration": 40, "velocity": 90}, {"time": 134293, "pitch": 64, "duration": 40, "velocity": 83}, {"time": 134413, "pitch": 64, "duration": 218, "velocity": 111}, {"time": 134413, "pitch": 69, "duration": 218, "velocity": 111}, {"time": 134423, "pitch": 72, "duration": 217, "velocity": 106}, {"time": 134650, "pitch": 64, "duration": 99, "velocity": 97}, {"time": 134650, "pitch": 69, "duration": 99, "velocity": 97}, {"time": 134650, "pitch": 76, "duration": 99, "velocity": 90}, {"time": 134759, "pitch": 69, "duration": 39, "velocity": 93}, {"time": 134779, "pitch": 64, "duration": 39, "velocity": 83}, {"time": 134877, "pitch": 65, "duration": 221, "velocity": 111}, {"time": 134887, "pitch": 69, "duration": 221, "velocity": 116}, {"time": 134887, "pitch": 72, "duration": 221, "velocity": 106}, {"time": 135118, "pitch": 65, "duration": 51, "velocity": 71}, {"time": 135138, "pitch": 69, "duration": 51, "velocity": 56}, {"time": 135249, "pitch": 69, "duration": 50, "velocity": 50}, {"time": 135259, "pitch": 65, "duration": 50, "velocity": 49}, {"time": 135359, "pitch": 65, "duration": 221, "velocity": 102}, {"time": 135369, "pitch": 69, "duration": 221, "velocity": 102}, {"time": 135380, "pitch": 72, "duration": 220, "velocity": 97}, {"time": 135600, "pitch": 65, "duration": 51, "velocity": 71}, {"time": 135621, "pitch": 69, "duration": 50, "velocity": 56}, {"time": 135721, "pitch": 72, "duration": 221, "velocity": 106}, {"time": 135731, "pitch": 65, "duration": 221, "velocity": 111}, {"time": 135731, "pitch": 69, "duration": 221, "velocity": 116}, {"time": 135972, "pitch": 69, "duration": 50, "velocity": 56}, {"time": 135982, "pitch": 65, "duration": 50, "velocity": 71}, {"time": 136083, "pitch": 65, "duration": 100, "velocity": 93}, {"time": 136093, "pitch": 69, "duration": 100, "velocity": 93}, {"time": 136103, "pitch": 76, "duration": 100, "velocity": 97}, {"time": 136203, "pitch": 65, "duration": 40, "velocity": 83}, {"time": 136203, "pitch": 69, "duration": 40, "velocity": 90}, {"time": 136324, "pitch": 65, "duration": 217, "velocity": 111}, {"time": 136333, "pitch": 69, "duration": 218, "velocity": 111}, {"time": 136343, "pitch": 72, "duration": 218, "velocity": 106}, {"time": 136561, "pitch": 65, "duration": 98, "velocity": 97}, {"time": 136570, "pitch": 69, "duration": 99, "velocity": 97}, {"time": 136570, "pitch": 76, "duration": 99, "velocity": 90}, {"time": 136679, "pitch": 69, "duration": 40, "velocity": 93}, {"time": 136689, "pitch": 65, "duration": 39, "velocity": 83}, {"time": 136807, "pitch": 67, "duration": 221, "velocity": 111}, {"time": 136807, "pitch": 69, "duration": 221, "velocity": 116}, {"time": 136807, "pitch": 72, "duration": 221, "velocity": 106}, {"time": 137049, "pitch": 67, "duration": 50, "velocity": 71}, {"time": 137059, "pitch": 69, "duration": 50, "velocity": 56}, {"time": 137169, "pitch": 69, "duration": 50, "velocity": 50}, {"time": 137189, "pitch": 67, "duration": 50, "velocity": 49}, {"time": 137290, "pitch": 67, "duration": 221, "velocity": 102}, {"time": 137290, "pitch": 69, "duration": 221, "velocity": 102}, {"time": 137300, "pitch": 72, "duration": 221, "velocity": 97}, {"time": 137531, "pitch": 67, "duration": 50, "velocity": 71}, {"time": 137541, "pitch": 69, "duration": 50, "velocity": 56}, {"time": 137641, "pitch": 72, "duration": 221, "velocity": 106}, {"time": 137651, "pitch": 69, "duration": 221, "velocity": 116}, {"time": 137661, "pitch": 67, "duration": 221, "velocity": 111}, {"time": 137892, "pitch": 69, "duration": 50, "velocity": 56}, {"time": 137912, "pitch": 67, "duration": 50, "velocity": 71}, {"time": 138013, "pitch": 67, "duration": 100, "velocity": 93}, {"time": 138013, "pitch": 69, "duration": 100, "velocity": 93}, {"time": 138023, "pitch": 76, "duration": 100, "velocity": 97}, {"time": 138123, "pitch": 69, "duration": 40, "velocity": 90}, {"time": 138133, "pitch": 67, "duration": 40, "velocity": 83}, {"time": 138254, "pitch": 67, "duration": 217, "velocity": 111}, {"time": 138254, "pitch": 69, "duration": 217, "velocity": 111}, {"time": 138263, "pitch": 72, "duration": 218, "velocity": 106}, {"time": 138490, "pitch": 67, "duration": 99, "velocity": 97}, {"time": 138490, "pitch": 69, "duration": 99, "velocity": 97}, {"time": 138490, "pitch": 76, "duration": 99, "velocity": 90}, {"time": 138599, "pitch": 69, "duration": 40, "velocity": 93}, {"time": 138619, "pitch": 67, "duration": 39, "velocity": 83}, {"time": 138728, "pitch": 64, "duration": 221, "velocity": 111}, {"time": 138728, "pitch": 69, "duration": 221, "velocity": 116}, {"time": 138728, "pitch": 72, "duration": 221, "velocity": 106}, {"time": 138969, "pitch": 64, "duration": 50, "velocity": 71}, {"time": 138979, "pitch": 69, "duration": 50, "velocity": 56}, {"time": 139089, "pitch": 69, "duration": 50, "velocity": 50}, {"time": 139109, "pitch": 64, "duration": 50, "velocity": 49}, {"time": 139210, "pitch": 64, "duration": 221, "velocity": 102}, {"time": 139210, "pitch": 69, "duration": 221, "velocity": 102}, {"time": 139220, "pitch": 72, "duration": 221, "velocity": 97}, {"time": 139451, "pitch": 64, "duration": 50, "velocity": 71}, {"time": 139461, "pitch": 69, "duration": 50, "velocity": 56}, {"time": 139561, "pitch": 72, "duration": 221, "velocity": 106}, {"time": 139571, "pitch": 69, "duration": 221, "velocity": 116}, {"time": 139581, "pitch": 64, "duration": 221, "velocity": 111}, {"time": 139812, "pitch": 69, "duration": 50, "velocity": 56}, {"time": 139832, "pitch": 64, "duration": 51, "velocity": 71}, {"time": 139933, "pitch": 64, "duration": 100, "velocity": 93}, {"time": 139933, "pitch": 69, "duration": 100, "velocity": 93}, {"time": 139943, "pitch": 76, "duration": 100, "velocity": 97}, {"time": 140043, "pitch": 69, "duration": 40, "velocity": 90}, {"time": 140053, "pitch": 64, "duration": 40, "velocity": 83}, {"time": 140174, "pitch": 64, "duration": 217, "velocity": 111}, {"time": 140174, "pitch": 69, "duration": 217, "velocity": 111}, {"time": 140183, "pitch": 72, "duration": 218, "velocity": 106}, {"time": 140411, "pitch": 64, "duration": 98, "velocity": 97}, {"time": 140411, "pitch": 69, "duration": 98, "velocity": 97}, {"time": 140411, "pitch": 76, "duration": 98, "velocity": 90}, {"time": 140519, "pitch": 69, "duration": 40, "velocity": 93}, {"time": 140539, "pitch": 64, "duration": 39, "velocity": 83}, {"time": 140638, "pitch": 64, "duration": 221, "velocity": 111}, {"time": 140638, "pitch": 67, "duration": 221, "velocity": 116}, {"time": 140648, "pitch": 72, "duration": 221, "velocity": 106}, {"time": 140879, "pitch": 64, "duration": 50, "velocity": 71}, {"time": 140889, "pitch": 67, "duration": 50, "velocity": 56}, {"time": 140999, "pitch": 67, "duration": 50, "velocity": 50}, {"time": 141019, "pitch": 64, "duration": 50, "velocity": 49}, {"time": 141120, "pitch": 64, "duration": 221, "velocity": 102}, {"time": 141120, "pitch": 67, "duration": 221, "velocity": 102}, {"time": 141140, "pitch": 72, "duration": 221, "velocity": 97}, {"time": 141361, "pitch": 64, "duration": 50, "velocity": 71}, {"time": 141371, "pitch": 67, "duration": 50, "velocity": 56}, {"time": 141481, "pitch": 67, "duration": 221, "velocity": 116}, {"time": 141481, "pitch": 72, "duration": 221, "velocity": 106}, {"time": 141491, "pitch": 64, "duration": 221, "velocity": 111}, {"time": 141722, "pitch": 67, "duration": 51, "velocity": 56}, {"time": 141742, "pitch": 64, "duration": 51, "velocity": 71}, {"time": 141843, "pitch": 64, "duration": 100, "velocity": 93}, {"time": 141843, "pitch": 67, "duration": 100, "velocity": 93}, {"time": 141863, "pitch": 76, "duration": 100, "velocity": 97}, {"time": 141953, "pitch": 67, "duration": 40, "velocity": 90}, {"time": 141963, "pitch": 64, "duration": 41, "velocity": 83}, {"time": 142084, "pitch": 64, "duration": 217, "velocity": 111}, {"time": 142084, "pitch": 67, "duration": 217, "velocity": 111}, {"time": 142104, "pitch": 72, "duration": 217, "velocity": 106}, {"time": 142321, "pitch": 64, "duration": 98, "velocity": 97}, {"time": 142321, "pitch": 67, "duration": 98, "velocity": 97}, {"time": 142331, "pitch": 76, "duration": 98, "velocity": 90}, {"time": 142429, "pitch": 67, "duration": 40, "velocity": 93}, {"time": 142449, "pitch": 64, "duration": 40, "velocity": 83}, {"time": 4079, "pitch": 57, "duration": 2161, "velocity": 114}, {"time": 4561, "pitch": 60, "duration": 1679, "velocity": 98}, {"time": 4802, "pitch": 64, "duration": 1438, "velocity": 107}, {"time": 5039, "pitch": 67, "duration": 1201, "velocity": 127}, {"time": 6240, "pitch": 60, "duration": 1920, "velocity": 107}, {"time": 6481, "pitch": 66, "duration": 1679, "velocity": 91}, {"time": 6722, "pitch": 69, "duration": 1438, "velocity": 114}, {"time": 6959, "pitch": 74, "duration": 1201, "velocity": 114}, {"time": 8160, "pitch": 55, "duration": 1920, "velocity": 111}, {"time": 8401, "pitch": 70, "duration": 1679, "velocity": 110}, {"time": 8642, "pitch": 65, "duration": 1438, "velocity": 123}, {"time": 8879, "pitch": 67, "duration": 1201, "velocity": 127}, {"time": 10080, "pitch": 58, "duration": 1921, "velocity": 107}, {"time": 10322, "pitch": 64, "duration": 1679, "velocity": 91}, {"time": 10563, "pitch": 67, "duration": 1438, "velocity": 114}, {"time": 10799, "pitch": 72, "duration": 1202, "velocity": 114}, {"time": 12001, "pitch": 57, "duration": 1920, "velocity": 114}, {"time": 12483, "pitch": 60, "duration": 1438, "velocity": 98}, {"time": 12720, "pitch": 64, "duration": 1201, "velocity": 107}, {"time": 12957, "pitch": 67, "duration": 964, "velocity": 127}, {"time": 13921, "pitch": 60, "duration": 1920, "velocity": 107}, {"time": 14162, "pitch": 66, "duration": 1679, "velocity": 91}, {"time": 14403, "pitch": 69, "duration": 1438, "velocity": 114}, {"time": 14640, "pitch": 74, "duration": 1201, "velocity": 114}, {"time": 15841, "pitch": 55, "duration": 1920, "velocity": 111}, {"time": 16082, "pitch": 70, "duration": 1679, "velocity": 110}, {"time": 16323, "pitch": 65, "duration": 1438, "velocity": 123}, {"time": 16560, "pitch": 67, "duration": 1201, "velocity": 127}, {"time": 17761, "pitch": 58, "duration": 1920, "velocity": 107}, {"time": 18002, "pitch": 64, "duration": 1679, "velocity": 91}, {"time": 18243, "pitch": 67, "duration": 1438, "velocity": 114}, {"time": 18480, "pitch": 72, "duration": 1201, "velocity": 114}, {"time": 19681, "pitch": 57, "duration": 1920, "velocity": 114}, {"time": 20163, "pitch": 60, "duration": 1438, "velocity": 98}, {"time": 20400, "pitch": 64, "duration": 1201, "velocity": 107}, {"time": 20637, "pitch": 67, "duration": 964, "velocity": 127}, {"time": 21601, "pitch": 60, "duration": 1920, "velocity": 107}, {"time": 21842, "pitch": 66, "duration": 1679, "velocity": 91}, {"time": 22083, "pitch": 69, "duration": 1438, "velocity": 114}, {"time": 22320, "pitch": 74, "duration": 1201, "velocity": 114}, {"time": 23521, "pitch": 55, "duration": 1920, "velocity": 111}, {"time": 23762, "pitch": 70, "duration": 1679, "velocity": 110}, {"time": 24003, "pitch": 65, "duration": 1438, "velocity": 123}, {"time": 24240, "pitch": 67, "duration": 1201, "velocity": 127}, {"time": 25441, "pitch": 58, "duration": 1920, "velocity": 107}, {"time": 25682, "pitch": 64, "duration": 1679, "velocity": 91}, {"time": 25923, "pitch": 67, "duration": 1438, "velocity": 114}, {"time": 26160, "pitch": 72, "duration": 1201, "velocity": 114}, {"time": 27361, "pitch": 57, "duration": 1920, "velocity": 114}, {"time": 27843, "pitch": 60, "duration": 1438, "velocity": 98}, {"time": 28080, "pitch": 64, "duration": 1201, "velocity": 107}, {"time": 28317, "pitch": 67, "duration": 964, "velocity": 127}, {"time": 29281, "pitch": 60, "duration": 1920, "velocity": 107}, {"time": 29522, "pitch": 66, "duration": 1679, "velocity": 91}, {"time": 29763, "pitch": 69, "duration": 1438, "velocity": 114}, {"time": 30000, "pitch": 74, "duration": 1201, "velocity": 114}, {"time": 31201, "pitch": 55, "duration": 1920, "velocity": 111}, {"time": 31442, "pitch": 70, "duration": 1679, "velocity": 110}, {"time": 31683, "pitch": 65, "duration": 1438, "velocity": 123}, {"time": 31920, "pitch": 67, "duration": 1201, "velocity": 127}, {"time": 33121, "pitch": 58, "duration": 1921, "velocity": 107}, {"time": 33362, "pitch": 64, "duration": 1680, "velocity": 91}, {"time": 33603, "pitch": 67, "duration": 1439, "velocity": 114}, {"time": 33840, "pitch": 72, "duration": 1202, "velocity": 114}, {"time": 35042, "pitch": 57, "duration": 1920, "velocity": 114}, {"time": 35524, "pitch": 60, "duration": 1438, "velocity": 98}, {"time": 35760, "pitch": 64, "duration": 1202, "velocity": 107}, {"time": 35997, "pitch": 67, "duration": 965, "velocity": 127}, {"time": 36962, "pitch": 60, "duration": 1920, "velocity": 107}, {"time": 37203, "pitch": 66, "duration": 1679, "velocity": 91}, {"time": 37444, "pitch": 69, "duration": 1438, "velocity": 114}, {"time": 37681, "pitch": 74, "duration": 1201, "velocity": 114}, {"time": 38882, "pitch": 55, "duration": 1920, "velocity": 111}, {"time": 39123, "pitch": 70, "duration": 1679, "velocity": 110}, {"time": 39364, "pitch": 65, "duration": 1438, "velocity": 123}, {"time": 39601, "pitch": 67, "duration": 1201, "velocity": 127}, {"time": 40802, "pitch": 58, "duration": 1920, "velocity": 107}, {"time": 41043, "pitch": 64, "duration": 1679, "velocity": 91}, {"time": 41284, "pitch": 67, "duration": 1438, "velocity": 114}, {"time": 41521, "pitch": 72, "duration": 1201, "velocity": 114}, {"time": 42722, "pitch": 57, "duration": 1920, "velocity": 114}, {"time": 43204, "pitch": 60, "duration": 1438, "velocity": 98}, {"time": 43441, "pitch": 64, "duration": 1201, "velocity": 107}, {"time": 43678, "pitch": 67, "duration": 964, "velocity": 127}, {"time": 44642, "pitch": 60, "duration": 1920, "velocity": 107}, {"time": 44883, "pitch": 66, "duration": 1679, "velocity": 91}, {"time": 45124, "pitch": 69, "duration": 1438, "velocity": 114}, {"time": 45361, "pitch": 74, "duration": 1201, "velocity": 114}, {"time": 46562, "pitch": 55, "duration": 1920, "velocity": 111}, {"time": 46803, "pitch": 70, "duration": 1679, "velocity": 110}, {"time": 47044, "pitch": 65, "duration": 1438, "velocity": 123}, {"time": 47281, "pitch": 67, "duration": 1201, "velocity": 127}, {"time": 48482, "pitch": 58, "duration": 1920, "velocity": 107}, {"time": 48719, "pitch": 64, "duration": 1683, "velocity": 91}, {"time": 48956, "pitch": 67, "duration": 1446, "velocity": 114}, {"time": 49197, "pitch": 72, "duration": 1205, "velocity": 114}, {"time": 50402, "pitch": 53, "duration": 1800, "velocity": 79}, {"time": 50402, "pitch": 57, "duration": 1800, "velocity": 94}, {"time": 50854, "pitch": 60, "duration": 22, "velocity": 88}, {"time": 50885, "pitch": 64, "duration": 400, "velocity": 98}, {"time": 50907, "pitch": 69, "duration": 422, "velocity": 111}, {"time": 51324, "pitch": 64, "duration": 950, "velocity": 100}, {"time": 51340, "pitch": 69, "duration": 450, "velocity": 111}, {"time": 51410, "pitch": 72, "duration": 426, "velocity": 104}, {"time": 51831, "pitch": 69, "duration": 480, "velocity": 92}, {"time": 51861, "pitch": 72, "duration": 452, "velocity": 104}, {"time": 51889, "pitch": 76, "duration": 434, "velocity": 111}, {"time": 52322, "pitch": 56, "duration": 1800, "velocity": 97}, {"time": 52322, "pitch": 62, "duration": 1318, "velocity": 117}, {"time": 52381, "pitch": 71, "duration": 1801, "velocity": 117}, {"time": 53007, "pitch": 65, "duration": 90, "velocity": 106}, {"time": 53774, "pitch": 62, "duration": 372, "velocity": 106}, {"time": 54242, "pitch": 55, "duration": 1860, "velocity": 118}, {"time": 54242, "pitch": 62, "duration": 1860, "velocity": 101}, {"time": 54272, "pitch": 64, "duration": 1860, "velocity": 118}, {"time": 54302, "pitch": 71, "duration": 1860, "velocity": 116}, {"time": 56162, "pitch": 55, "duration": 1920, "velocity": 112}, {"time": 56162, "pitch": 60, "duration": 1920, "velocity": 106}, {"time": 56192, "pitch": 65, "duration": 926, "velocity": 112}, {"time": 56222, "pitch": 70, "duration": 1800, "velocity": 115}, {"time": 57118, "pitch": 64, "duration": 964, "velocity": 111}, {"time": 58085, "pitch": 57, "duration": 1854, "velocity": 94}, {"time": 58086, "pitch": 53, "duration": 1849, "velocity": 79}, {"time": 58535, "pitch": 60, "duration": 76, "velocity": 88}, {"time": 58565, "pitch": 64, "duration": 400, "velocity": 98}, {"time": 58587, "pitch": 69, "duration": 422, "velocity": 111}, {"time": 59004, "pitch": 64, "duration": 950, "velocity": 100}, {"time": 59020, "pitch": 69, "duration": 450, "velocity": 111}, {"time": 59091, "pitch": 72, "duration": 425, "velocity": 104}, {"time": 59511, "pitch": 69, "duration": 480, "velocity": 92}, {"time": 59542, "pitch": 72, "duration": 452, "velocity": 104}, {"time": 59570, "pitch": 76, "duration": 433, "velocity": 111}, {"time": 60005, "pitch": 56, "duration": 1854, "velocity": 94}, {"time": 60006, "pitch": 53, "duration": 1849, "velocity": 79}, {"time": 60071, "pitch": 63, "duration": 1778, "velocity": 98}, {"time": 60484, "pitch": 60, "duration": 77, "velocity": 88}, {"time": 61371, "pitch": 68, "duration": 480, "velocity": 92}, {"time": 61401, "pitch": 72, "duration": 452, "velocity": 104}, {"time": 61429, "pitch": 75, "duration": 434, "velocity": 111}, {"time": 61923, "pitch": 55, "duration": 1859, "velocity": 118}, {"time": 61923, "pitch": 62, "duration": 1859, "velocity": 101}, {"time": 61952, "pitch": 64, "duration": 1861, "velocity": 118}, {"time": 61982, "pitch": 71, "duration": 1861, "velocity": 116}, {"time": 63843, "pitch": 55, "duration": 1920, "velocity": 112}, {"time": 63843, "pitch": 60, "duration": 1920, "velocity": 106}, {"time": 63872, "pitch": 65, "duration": 927, "velocity": 112}, {"time": 63902, "pitch": 70, "duration": 1801, "velocity": 115}, {"time": 64799, "pitch": 64, "duration": 964, "velocity": 111}, {"time": 81123, "pitch": 65, "duration": 1800, "velocity": 109}, {"time": 81133, "pitch": 69, "duration": 1800, "velocity": 111}, {"time": 81143, "pitch": 76, "duration": 1800, "velocity": 117}, {"time": 81153, "pitch": 79, "duration": 1800, "velocity": 120}, {"time": 83043, "pitch": 67, "duration": 1800, "velocity": 115}, {"time": 83053, "pitch": 71, "duration": 1800, "velocity": 118}, {"time": 83063, "pitch": 74, "duration": 1800, "velocity": 116}, {"time": 83073, "pitch": 79, "duration": 1800, "velocity": 110}, {"time": 84964, "pitch": 69, "duration": 2008, "velocity": 110}, {"time": 84973, "pitch": 72, "duration": 1920, "velocity": 112}, {"time": 84983, "pitch": 76, "duration": 1891, "velocity": 119}, {"time": 84993, "pitch": 79, "duration": 1800, "velocity": 121}, {"time": 86884, "pitch": 79, "duration": 1799, "velocity": 97}, {"time": 86933, "pitch": 76, "duration": 1831, "velocity": 95}, {"time": 86953, "pitch": 72, "duration": 1801, "velocity": 88}, {"time": 87002, "pitch": 69, "duration": 1772, "velocity": 86}, {"time": 88804, "pitch": 65, "duration": 1799, "velocity": 109}, {"time": 88814, "pitch": 69, "duration": 1799, "velocity": 111}, {"time": 88823, "pitch": 76, "duration": 1800, "velocity": 117}, {"time": 88833, "pitch": 79, "duration": 1800, "velocity": 120}, {"time": 90724, "pitch": 67, "duration": 1799, "velocity": 115}, {"time": 90734, "pitch": 71, "duration": 1799, "velocity": 118}, {"time": 90743, "pitch": 74, "duration": 1800, "velocity": 116}, {"time": 90753, "pitch": 79, "duration": 1801, "velocity": 110}, {"time": 92644, "pitch": 69, "duration": 3358, "velocity": 110}, {"time": 92654, "pitch": 72, "duration": 3479, "velocity": 112}, {"time": 92664, "pitch": 76, "duration": 3599, "velocity": 119}, {"time": 92673, "pitch": 79, "duration": 3721, "velocity": 121}, {"time": 96484, "pitch": 57, "duration": 1920, "velocity": 114}, {"time": 96958, "pitch": 60, "duration": 1446, "velocity": 98}, {"time": 97199, "pitch": 64, "duration": 1205, "velocity": 107}, {"time": 97440, "pitch": 67, "duration": 964, "velocity": 127}, {"time": 98404, "pitch": 60, "duration": 1912, "velocity": 107}, {"time": 98641, "pitch": 66, "duration": 1675, "velocity": 91}, {"time": 98878, "pitch": 69, "duration": 1438, "velocity": 114}, {"time": 99119, "pitch": 74, "duration": 1197, "velocity": 114}, {"time": 100316, "pitch": 55, "duration": 1920, "velocity": 111}, {"time": 100557, "pitch": 70, "duration": 1679, "velocity": 110}, {"time": 100798, "pitch": 65, "duration": 1438, "velocity": 123}, {"time": 101039, "pitch": 67, "duration": 1197, "velocity": 127}, {"time": 102236, "pitch": 58, "duration": 1920, "velocity": 107}, {"time": 102477, "pitch": 64, "duration": 1679, "velocity": 91}, {"time": 102718, "pitch": 67, "duration": 1438, "velocity": 114}, {"time": 102959, "pitch": 72, "duration": 1197, "velocity": 114}, {"time": 104156, "pitch": 57, "duration": 1920, "velocity": 114}, {"time": 104638, "pitch": 60, "duration": 1438, "velocity": 98}, {"time": 104879, "pitch": 64, "duration": 1197, "velocity": 107}, {"time": 105120, "pitch": 67, "duration": 956, "velocity": 127}, {"time": 106076, "pitch": 60, "duration": 1920, "velocity": 107}, {"time": 106317, "pitch": 66, "duration": 1679, "velocity": 91}, {"time": 106558, "pitch": 69, "duration": 1438, "velocity": 114}, {"time": 106799, "pitch": 74, "duration": 1197, "velocity": 114}, {"time": 107996, "pitch": 55, "duration": 1920, "velocity": 111}, {"time": 108237, "pitch": 70, "duration": 1679, "velocity": 110}, {"time": 108478, "pitch": 65, "duration": 1438, "velocity": 123}, {"time": 108719, "pitch": 67, "duration": 1197, "velocity": 127}, {"time": 109916, "pitch": 58, "duration": 1920, "velocity": 107}, {"time": 110157, "pitch": 64, "duration": 1679, "velocity": 91}, {"time": 110398, "pitch": 67, "duration": 1438, "velocity": 114}, {"time": 110639, "pitch": 72, "duration": 1197, "velocity": 114}, {"time": 111836, "pitch": 53, "duration": 1802, "velocity": 69}, {"time": 111836, "pitch": 57, "duration": 1802, "velocity": 84}, {"time": 112296, "pitch": 60, "duration": 23, "velocity": 78}, {"time": 112328, "pitch": 64, "duration": 399, "velocity": 88}, {"time": 112350, "pitch": 69, "duration": 421, "velocity": 101}, {"time": 112766, "pitch": 64, "duration": 943, "velocity": 90}, {"time": 112783, "pitch": 69, "duration": 449, "velocity": 101}, {"time": 112853, "pitch": 72, "duration": 426, "velocity": 94}, {"time": 113274, "pitch": 69, "duration": 472, "velocity": 82}, {"time": 113303, "pitch": 72, "duration": 445, "velocity": 94}, {"time": 113331, "pitch": 76, "duration": 427, "velocity": 101}, {"time": 113757, "pitch": 56, "duration": 1801, "velocity": 87}, {"time": 113757, "pitch": 62, "duration": 1325, "velocity": 107}, {"time": 113817, "pitch": 71, "duration": 1800, "velocity": 107}, {"time": 114449, "pitch": 65, "duration": 91, "velocity": 96}, {"time": 115217, "pitch": 62, "duration": 365, "velocity": 96}, {"time": 115677, "pitch": 55, "duration": 1860, "velocity": 108}, {"time": 115677, "pitch": 62, "duration": 1860, "velocity": 91}, {"time": 115707, "pitch": 64, "duration": 1860, "velocity": 108}, {"time": 115737, "pitch": 71, "duration": 1860, "velocity": 106}, {"time": 117597, "pitch": 55, "duration": 1920, "velocity": 102}, {"time": 117597, "pitch": 60, "duration": 1920, "velocity": 96}, {"time": 117627, "pitch": 65, "duration": 934, "velocity": 102}, {"time": 117657, "pitch": 70, "duration": 1801, "velocity": 105}, {"time": 118561, "pitch": 64, "duration": 956, "velocity": 101}, {"time": 119520, "pitch": 57, "duration": 1855, "velocity": 84}, {"time": 119521, "pitch": 53, "duration": 1850, "velocity": 69}, {"time": 119977, "pitch": 60, "duration": 76, "velocity": 78}, {"time": 120008, "pitch": 64, "duration": 400, "velocity": 88}, {"time": 120030, "pitch": 69, "duration": 422, "velocity": 101}, {"time": 120447, "pitch": 64, "duration": 942, "velocity": 90}, {"time": 120463, "pitch": 69, "duration": 450, "velocity": 101}, {"time": 120533, "pitch": 72, "duration": 426, "velocity": 94}, {"time": 120954, "pitch": 69, "duration": 472, "velocity": 82}, {"time": 120984, "pitch": 72, "duration": 444, "velocity": 94}, {"time": 121011, "pitch": 76, "duration": 427, "velocity": 101}, {"time": 121440, "pitch": 56, "duration": 1855, "velocity": 84}, {"time": 121441, "pitch": 53, "duration": 1850, "velocity": 69}, {"time": 121506, "pitch": 63, "duration": 1779, "velocity": 88}, {"time": 121927, "pitch": 60, "duration": 76, "velocity": 78}, {"time": 122814, "pitch": 68, "duration": 473, "velocity": 82}, {"time": 122844, "pitch": 72, "duration": 445, "velocity": 94}, {"time": 122872, "pitch": 75, "duration": 427, "velocity": 101}, {"time": 123357, "pitch": 55, "duration": 1861, "velocity": 108}, {"time": 123357, "pitch": 62, "duration": 1861, "velocity": 91}, {"time": 123387, "pitch": 64, "duration": 1860, "velocity": 108}, {"time": 123417, "pitch": 71, "duration": 1860, "velocity": 106}, {"time": 125277, "pitch": 55, "duration": 1920, "velocity": 102}, {"time": 125277, "pitch": 60, "duration": 1920, "velocity": 96}, {"time": 125307, "pitch": 65, "duration": 934, "velocity": 102}, {"time": 125337, "pitch": 70, "duration": 1801, "velocity": 105}, {"time": 126241, "pitch": 64, "duration": 956, "velocity": 101}, {"time": 142558, "pitch": 65, "duration": 1801, "velocity": 109}, {"time": 142568, "pitch": 69, "duration": 1801, "velocity": 111}, {"time": 142578, "pitch": 76, "duration": 1801, "velocity": 117}, {"time": 142588, "pitch": 79, "duration": 1801, "velocity": 120}, {"time": 144478, "pitch": 67, "duration": 1801, "velocity": 115}, {"time": 144488, "pitch": 71, "duration": 1801, "velocity": 118}, {"time": 144498, "pitch": 74, "duration": 1801, "velocity": 116}, {"time": 144508, "pitch": 79, "duration": 1801, "velocity": 110}, {"time": 146398, "pitch": 69, "duration": 2010, "velocity": 110}, {"time": 146408, "pitch": 72, "duration": 1920, "velocity": 112}, {"time": 146418, "pitch": 76, "duration": 1890, "velocity": 119}, {"time": 146428, "pitch": 79, "duration": 1801, "velocity": 121}, {"time": 148318, "pitch": 79, "duration": 1799, "velocity": 97}, {"time": 148368, "pitch": 76, "duration": 1830, "velocity": 95}, {"time": 148388, "pitch": 72, "duration": 1800, "velocity": 88}, {"time": 148438, "pitch": 69, "duration": 1770, "velocity": 86}, {"time": 150238, "pitch": 65, "duration": 1800, "velocity": 109}, {"time": 150248, "pitch": 69, "duration": 1800, "velocity": 111}, {"time": 150258, "pitch": 76, "duration": 1800, "velocity": 117}, {"time": 150268, "pitch": 79, "duration": 1800, "velocity": 120}, {"time": 152158, "pitch": 67, "duration": 1800, "velocity": 115}, {"time": 152168, "pitch": 71, "duration": 1800, "velocity": 118}, {"time": 152178, "pitch": 74, "duration": 1800, "velocity": 116}, {"time": 152188, "pitch": 79, "duration": 1800, "velocity": 110}, {"time": 154078, "pitch": 69, "duration": 3358, "velocity": 110}, {"time": 154088, "pitch": 72, "duration": 3479, "velocity": 112}, {"time": 154098, "pitch": 76, "duration": 3599, "velocity": 119}, {"time": 154108, "pitch": 79, "duration": 3720, "velocity": 121}, {"time": 157918, "pitch": 65, "duration": 1800, "velocity": 109}, {"time": 157928, "pitch": 69, "duration": 1800, "velocity": 111}, {"time": 157938, "pitch": 76, "duration": 1800, "velocity": 117}, {"time": 157948, "pitch": 79, "duration": 1800, "velocity": 120}, {"time": 159838, "pitch": 67, "duration": 1800, "velocity": 115}, {"time": 159848, "pitch": 71, "duration": 1800, "velocity": 118}, {"time": 159858, "pitch": 74, "duration": 1800, "velocity": 116}, {"time": 159869, "pitch": 79, "duration": 1799, "velocity": 110}, {"time": 161758, "pitch": 69, "duration": 2011, "velocity": 110}, {"time": 161769, "pitch": 72, "duration": 1920, "velocity": 112}, {"time": 161779, "pitch": 76, "duration": 1890, "velocity": 119}, {"time": 161789, "pitch": 79, "duration": 1799, "velocity": 121}, {"time": 163679, "pitch": 79, "duration": 1799, "velocity": 97}, {"time": 163729, "pitch": 76, "duration": 1829, "velocity": 95}, {"time": 163749, "pitch": 72, "duration": 1799, "velocity": 88}, {"time": 163799, "pitch": 69, "duration": 1770, "velocity": 86}, {"time": 165599, "pitch": 65, "duration": 1799, "velocity": 109}, {"time": 165609, "pitch": 69, "duration": 1799, "velocity": 111}, {"time": 165619, "pitch": 76, "duration": 1799, "velocity": 117}, {"time": 165629, "pitch": 79, "duration": 1799, "velocity": 120}, {"time": 167519, "pitch": 67, "duration": 1799, "velocity": 115}, {"time": 167529, "pitch": 71, "duration": 1799, "velocity": 118}, {"time": 167539, "pitch": 74, "duration": 1799, "velocity": 116}, {"time": 167549, "pitch": 79, "duration": 1799, "velocity": 110}, {"time": 169439, "pitch": 69, "duration": 3358, "velocity": 110}, {"time": 169449, "pitch": 72, "duration": 3478, "velocity": 112}, {"time": 169459, "pitch": 76, "duration": 3599, "velocity": 119}, {"time": 169469, "pitch": 79, "duration": 3720, "velocity": 121}, {"time": 50402, "pitch": 53, "duration": 1800, "velocity": 49}, {"time": 50402, "pitch": 57, "duration": 1800, "velocity": 64}, {"time": 50854, "pitch": 60, "duration": 22, "velocity": 58}, {"time": 50885, "pitch": 64, "duration": 400, "velocity": 68}, {"time": 50907, "pitch": 69, "duration": 422, "velocity": 81}, {"time": 51324, "pitch": 64, "duration": 950, "velocity": 70}, {"time": 51340, "pitch": 69, "duration": 450, "velocity": 81}, {"time": 51410, "pitch": 72, "duration": 426, "velocity": 74}, {"time": 51831, "pitch": 69, "duration": 480, "velocity": 62}, {"time": 51861, "pitch": 72, "duration": 452, "velocity": 74}, {"time": 51889, "pitch": 76, "duration": 434, "velocity": 81}, {"time": 52322, "pitch": 56, "duration": 1800, "velocity": 67}, {"time": 52322, "pitch": 62, "duration": 1318, "velocity": 87}, {"time": 52381, "pitch": 71, "duration": 1801, "velocity": 87}, {"time": 53007, "pitch": 65, "duration": 90, "velocity": 76}, {"time": 53774, "pitch": 62, "duration": 372, "velocity": 76}, {"time": 54242, "pitch": 55, "duration": 1860, "velocity": 88}, {"time": 54242, "pitch": 62, "duration": 1860, "velocity": 71}, {"time": 54272, "pitch": 64, "duration": 1860, "velocity": 88}, {"time": 54302, "pitch": 71, "duration": 1860, "velocity": 86}, {"time": 56162, "pitch": 55, "duration": 1920, "velocity": 82}, {"time": 56162, "pitch": 60, "duration": 1920, "velocity": 76}, {"time": 56192, "pitch": 65, "duration": 926, "velocity": 82}, {"time": 56222, "pitch": 70, "duration": 1800, "velocity": 85}, {"time": 57118, "pitch": 64, "duration": 964, "velocity": 81}, {"time": 58085, "pitch": 57, "duration": 1854, "velocity": 64}, {"time": 58086, "pitch": 53, "duration": 1849, "velocity": 49}, {"time": 58535, "pitch": 60, "duration": 76, "velocity": 58}, {"time": 58565, "pitch": 64, "duration": 400, "velocity": 68}, {"time": 58587, "pitch": 69, "duration": 422, "velocity": 81}, {"time": 59004, "pitch": 64, "duration": 950, "velocity": 70}, {"time": 59020, "pitch": 69, "duration": 450, "velocity": 81}, {"time": 59091, "pitch": 72, "duration": 425, "velocity": 74}, {"time": 59511, "pitch": 69, "duration": 480, "velocity": 62}, {"time": 59542, "pitch": 72, "duration": 452, "velocity": 74}, {"time": 59570, "pitch": 76, "duration": 433, "velocity": 81}, {"time": 60005, "pitch": 56, "duration": 1854, "velocity": 64}, {"time": 60006, "pitch": 53, "duration": 1849, "velocity": 49}, {"time": 60071, "pitch": 63, "duration": 1778, "velocity": 68}, {"time": 60484, "pitch": 60, "duration": 77, "velocity": 58}, {"time": 61371, "pitch": 68, "duration": 480, "velocity": 62}, {"time": 61401, "pitch": 72, "duration": 452, "velocity": 74}, {"time": 61429, "pitch": 75, "duration": 434, "velocity": 81}, {"time": 61923, "pitch": 55, "duration": 1859, "velocity": 88}, {"time": 61923, "pitch": 62, "duration": 1859, "velocity": 71}, {"time": 61952, "pitch": 64, "duration": 1861, "velocity": 88}, {"time": 61982, "pitch": 71, "duration": 1861, "velocity": 86}, {"time": 63843, "pitch": 55, "duration": 1920, "velocity": 82}, {"time": 63843, "pitch": 60, "duration": 1920, "velocity": 76}, {"time": 63872, "pitch": 65, "duration": 927, "velocity": 82}, {"time": 63902, "pitch": 70, "duration": 1801, "velocity": 85}, {"time": 64799, "pitch": 64, "duration": 964, "velocity": 81}, {"time": 81123, "pitch": 65, "duration": 1800, "velocity": 99}, {"time": 81133, "pitch": 69, "duration": 1800, "velocity": 101}, {"time": 81143, "pitch": 76, "duration": 1800, "velocity": 107}, {"time": 81153, "pitch": 79, "duration": 1800, "velocity": 110}, {"time": 83043, "pitch": 67, "duration": 1800, "velocity": 105}, {"time": 83053, "pitch": 71, "duration": 1800, "velocity": 108}, {"time": 83063, "pitch": 74, "duration": 1800, "velocity": 106}, {"time": 83073, "pitch": 79, "duration": 1800, "velocity": 100}, {"time": 84964, "pitch": 69, "duration": 2008, "velocity": 100}, {"time": 84973, "pitch": 72, "duration": 1920, "velocity": 102}, {"time": 84983, "pitch": 76, "duration": 1891, "velocity": 109}, {"time": 84993, "pitch": 79, "duration": 1800, "velocity": 111}, {"time": 86884, "pitch": 79, "duration": 1799, "velocity": 87}, {"time": 86933, "pitch": 76, "duration": 1831, "velocity": 85}, {"time": 86953, "pitch": 72, "duration": 1801, "velocity": 78}, {"time": 87002, "pitch": 69, "duration": 1772, "velocity": 76}, {"time": 88804, "pitch": 65, "duration": 1799, "velocity": 99}, {"time": 88814, "pitch": 69, "duration": 1799, "velocity": 101}, {"time": 88823, "pitch": 76, "duration": 1800, "velocity": 107}, {"time": 88833, "pitch": 79, "duration": 1800, "velocity": 110}, {"time": 90724, "pitch": 67, "duration": 1799, "velocity": 105}, {"time": 90734, "pitch": 71, "duration": 1799, "velocity": 108}, {"time": 90743, "pitch": 74, "duration": 1800, "velocity": 106}, {"time": 90753, "pitch": 79, "duration": 1801, "velocity": 100}, {"time": 92644, "pitch": 69, "duration": 3358, "velocity": 100}, {"time": 92654, "pitch": 72, "duration": 3479, "velocity": 102}, {"time": 92664, "pitch": 76, "duration": 3599, "velocity": 109}, {"time": 92673, "pitch": 79, "duration": 3721, "velocity": 111}, {"time": 111836, "pitch": 53, "duration": 1802, "velocity": 59}, {"time": 111836, "pitch": 57, "duration": 1802, "velocity": 74}, {"time": 112296, "pitch": 60, "duration": 23, "velocity": 68}, {"time": 112328, "pitch": 64, "duration": 399, "velocity": 78}, {"time": 112350, "pitch": 69, "duration": 421, "velocity": 91}, {"time": 112766, "pitch": 64, "duration": 943, "velocity": 80}, {"time": 112783, "pitch": 69, "duration": 449, "velocity": 91}, {"time": 112853, "pitch": 72, "duration": 426, "velocity": 84}, {"time": 113274, "pitch": 69, "duration": 472, "velocity": 72}, {"time": 113303, "pitch": 72, "duration": 445, "velocity": 84}, {"time": 113331, "pitch": 76, "duration": 427, "velocity": 91}, {"time": 113757, "pitch": 56, "duration": 1801, "velocity": 77}, {"time": 113757, "pitch": 62, "duration": 1325, "velocity": 97}, {"time": 113817, "pitch": 71, "duration": 1800, "velocity": 97}, {"time": 114449, "pitch": 65, "duration": 91, "velocity": 86}, {"time": 115217, "pitch": 62, "duration": 365, "velocity": 86}, {"time": 115677, "pitch": 55, "duration": 1860, "velocity": 98}, {"time": 115677, "pitch": 62, "duration": 1860, "velocity": 81}, {"time": 115707, "pitch": 64, "duration": 1860, "velocity": 98}, {"time": 115737, "pitch": 71, "duration": 1860, "velocity": 96}, {"time": 117597, "pitch": 55, "duration": 1920, "velocity": 92}, {"time": 117597, "pitch": 60, "duration": 1920, "velocity": 86}, {"time": 117627, "pitch": 65, "duration": 934, "velocity": 92}, {"time": 117657, "pitch": 70, "duration": 1801, "velocity": 95}, {"time": 118561, "pitch": 64, "duration": 956, "velocity": 91}, {"time": 119520, "pitch": 57, "duration": 1855, "velocity": 74}, {"time": 119521, "pitch": 53, "duration": 1850, "velocity": 59}, {"time": 119977, "pitch": 60, "duration": 76, "velocity": 68}, {"time": 120008, "pitch": 64, "duration": 400, "velocity": 78}, {"time": 120030, "pitch": 69, "duration": 422, "velocity": 91}, {"time": 120447, "pitch": 64, "duration": 942, "velocity": 80}, {"time": 120463, "pitch": 69, "duration": 450, "velocity": 91}, {"time": 120533, "pitch": 72, "duration": 426, "velocity": 84}, {"time": 120954, "pitch": 69, "duration": 472, "velocity": 72}, {"time": 120984, "pitch": 72, "duration": 444, "velocity": 84}, {"time": 121011, "pitch": 76, "duration": 427, "velocity": 91}, {"time": 121440, "pitch": 56, "duration": 1855, "velocity": 74}, {"time": 121441, "pitch": 53, "duration": 1850, "velocity": 59}, {"time": 121506, "pitch": 63, "duration": 1779, "velocity": 78}, {"time": 121927, "pitch": 60, "duration": 76, "velocity": 68}, {"time": 122814, "pitch": 68, "duration": 473, "velocity": 72}, {"time": 122844, "pitch": 72, "duration": 445, "velocity": 84}, {"time": 122872, "pitch": 75, "duration": 427, "velocity": 91}, {"time": 123357, "pitch": 55, "duration": 1861, "velocity": 98}, {"time": 123357, "pitch": 62, "duration": 1861, "velocity": 81}, {"time": 123387, "pitch": 64, "duration": 1860, "velocity": 98}, {"time": 123417, "pitch": 71, "duration": 1860, "velocity": 96}, {"time": 125277, "pitch": 55, "duration": 1920, "velocity": 92}, {"time": 125277, "pitch": 60, "duration": 1920, "velocity": 86}, {"time": 125307, "pitch": 65, "duration": 934, "velocity": 92}, {"time": 125337, "pitch": 70, "duration": 1801, "velocity": 95}, {"time": 126241, "pitch": 64, "duration": 956, "velocity": 91}, {"time": 142558, "pitch": 65, "duration": 1801, "velocity": 99}, {"time": 142568, "pitch": 69, "duration": 1801, "velocity": 101}, {"time": 142578, "pitch": 76, "duration": 1801, "velocity": 107}, {"time": 142588, "pitch": 79, "duration": 1801, "velocity": 110}, {"time": 144478, "pitch": 67, "duration": 1801, "velocity": 105}, {"time": 144488, "pitch": 71, "duration": 1801, "velocity": 108}, {"time": 144498, "pitch": 74, "duration": 1801, "velocity": 106}, {"time": 144508, "pitch": 79, "duration": 1801, "velocity": 100}, {"time": 146398, "pitch": 69, "duration": 2010, "velocity": 100}, {"time": 146408, "pitch": 72, "duration": 1920, "velocity": 102}, {"time": 146418, "pitch": 76, "duration": 1890, "velocity": 109}, {"time": 146428, "pitch": 79, "duration": 1801, "velocity": 111}, {"time": 148318, "pitch": 79, "duration": 1799, "velocity": 87}, {"time": 148368, "pitch": 76, "duration": 1830, "velocity": 85}, {"time": 148388, "pitch": 72, "duration": 1800, "velocity": 78}, {"time": 148438, "pitch": 69, "duration": 1770, "velocity": 76}, {"time": 150238, "pitch": 65, "duration": 1800, "velocity": 99}, {"time": 150248, "pitch": 69, "duration": 1800, "velocity": 101}, {"time": 150258, "pitch": 76, "duration": 1800, "velocity": 107}, {"time": 150268, "pitch": 79, "duration": 1800, "velocity": 110}, {"time": 152158, "pitch": 67, "duration": 1800, "velocity": 105}, {"time": 152168, "pitch": 71, "duration": 1800, "velocity": 108}, {"time": 152178, "pitch": 74, "duration": 1800, "velocity": 106}, {"time": 152188, "pitch": 79, "duration": 1800, "velocity": 100}, {"time": 154078, "pitch": 69, "duration": 3358, "velocity": 100}, {"time": 154088, "pitch": 72, "duration": 3479, "velocity": 102}, {"time": 154098, "pitch": 76, "duration": 3599, "velocity": 109}, {"time": 154108, "pitch": 79, "duration": 3720, "velocity": 111}, {"time": 157918, "pitch": 65, "duration": 1800, "velocity": 99}, {"time": 157928, "pitch": 69, "duration": 1800, "velocity": 101}, {"time": 157938, "pitch": 76, "duration": 1800, "velocity": 107}, {"time": 157948, "pitch": 79, "duration": 1800, "velocity": 110}, {"time": 159838, "pitch": 67, "duration": 1800, "velocity": 105}, {"time": 159848, "pitch": 71, "duration": 1800, "velocity": 108}, {"time": 159858, "pitch": 74, "duration": 1800, "velocity": 106}, {"time": 159869, "pitch": 79, "duration": 1799, "velocity": 100}, {"time": 161758, "pitch": 69, "duration": 2011, "velocity": 100}, {"time": 161769, "pitch": 72, "duration": 1920, "velocity": 102}, {"time": 161779, "pitch": 76, "duration": 1890, "velocity": 109}, {"time": 161789, "pitch": 79, "duration": 1799, "velocity": 111}, {"time": 163679, "pitch": 79, "duration": 1799, "velocity": 87}, {"time": 163729, "pitch": 76, "duration": 1829, "velocity": 85}, {"time": 163749, "pitch": 72, "duration": 1799, "velocity": 78}, {"time": 163799, "pitch": 69, "duration": 1770, "velocity": 76}, {"time": 165599, "pitch": 65, "duration": 1799, "velocity": 99}, {"time": 165609, "pitch": 69, "duration": 1799, "velocity": 101}, {"time": 165619, "pitch": 76, "duration": 1799, "velocity": 107}, {"time": 165629, "pitch": 79, "duration": 1799, "velocity": 110}, {"time": 167519, "pitch": 67, "duration": 1799, "velocity": 105}, {"time": 167529, "pitch": 71, "duration": 1799, "velocity": 108}, {"time": 167539, "pitch": 74, "duration": 1799, "velocity": 106}, {"time": 167549, "pitch": 79, "duration": 1799, "velocity": 100}, {"time": 169439, "pitch": 69, "duration": 3358, "velocity": 100}, {"time": 169449, "pitch": 72, "duration": 3478, "velocity": 102}, {"time": 169459, "pitch": 76, "duration": 3599, "velocity": 109}, {"time": 169469, "pitch": 79, "duration": 3720, "velocity": 111}, {"time": 35042, "pitch": 72, "duration": 273, "velocity": 120}, {"time": 35524, "pitch": 72, "duration": 331, "velocity": 120}, {"time": 35997, "pitch": 72, "duration": 318, "velocity": 120}, {"time": 36721, "pitch": 69, "duration": 409, "velocity": 120}, {"time": 37203, "pitch": 69, "duration": 366, "velocity": 120}, {"time": 37681, "pitch": 69, "duration": 405, "velocity": 97}, {"time": 38159, "pitch": 69, "duration": 368, "velocity": 97}, {"time": 42963, "pitch": 72, "duration": 135, "velocity": 120}, {"time": 43204, "pitch": 72, "duration": 148, "velocity": 120}, {"time": 43441, "pitch": 72, "duration": 126, "velocity": 120}, {"time": 43678, "pitch": 72, "duration": 418, "velocity": 120}, {"time": 44401, "pitch": 69, "duration": 393, "velocity": 120}, {"time": 45361, "pitch": 69, "duration": 59, "velocity": 97}, {"time": 45839, "pitch": 69, "duration": 542, "velocity": 97}, {"time": 96484, "pitch": 72, "duration": 269, "velocity": 120}, {"time": 96958, "pitch": 72, "duration": 337, "velocity": 120}, {"time": 97440, "pitch": 72, "duration": 317, "velocity": 120}, {"time": 98163, "pitch": 69, "duration": 432, "velocity": 120}, {"time": 98641, "pitch": 69, "duration": 364, "velocity": 120}, {"time": 99119, "pitch": 69, "duration": 410, "velocity": 97}, {"time": 99601, "pitch": 69, "duration": 366, "velocity": 97}, {"time": 104397, "pitch": 72, "duration": 136, "velocity": 120}, {"time": 104638, "pitch": 72, "duration": 151, "velocity": 120}, {"time": 104879, "pitch": 72, "duration": 129, "velocity": 120}, {"time": 105120, "pitch": 72, "duration": 418, "velocity": 120}, {"time": 105839, "pitch": 69, "duration": 389, "velocity": 120}, {"time": 106799, "pitch": 69, "duration": 61, "velocity": 97}, {"time": 107281, "pitch": 69, "duration": 538, "velocity": 97}]}]}