{"metadata": {"schema_version": "0.1", "title": "RWC-MDB-P-2001 No. 10: Getting Over / Brakes", "copyright": "RWC Music Database. Copyright (C) 2001 Real World Computing Partnership (contact: Masataka GOTO <m.goto@aist.go.jp>)", "source_filename": "RM-P010.SMF_SYNC.MID", "source_format": "midi"}, "resolution": 480, "tempos": [{"time": 0, "qpm": 60.0}, {"time": 480, "qpm": 122.44897959183673}, {"time": 21120, "qpm": 117.6470588235294}, {"time": 21600, "qpm": 127.65957446808511}, {"time": 22080, "qpm": 122.44897959183673}, {"time": 23040, "qpm": 117.6470588235294}, {"time": 23520, "qpm": 127.65957446808511}, {"time": 24000, "qpm": 122.44897959183673}, {"time": 32160, "qpm": 127.65957446808511}, {"time": 33120, "qpm": 122.44897959183673}, {"time": 35040, "qpm": 127.65957446808511}, {"time": 35520, "qpm": 125.0}, {"time": 36000, "qpm": 122.44897959183673}, {"time": 37440, "qpm": 127.65957446808511}, {"time": 37920, "qpm": 125.0}, {"time": 40320, "qpm": 122.44897959183673}, {"time": 40800, "qpm": 125.0}, {"time": 41280, "qpm": 122.44897959183673}, {"time": 41760, "qpm": 125.0}, {"time": 42720, "qpm": 122.44897959183673}, {"time": 43200, "qpm": 125.0}, {"time": 43680, "qpm": 122.44897959183673}, {"time": 44160, "qpm": 125.0}, {"time": 45600, "qpm": 122.44897959183673}, {"time": 46560, "qpm": 125.0}, {"time": 49440, "qpm": 122.44897959183673}, {"time": 50400, "qpm": 125.0}, {"time": 51360, "qpm": 122.44897959183673}, {"time": 52320, "qpm": 125.0}, {"time": 52800, "qpm": 122.44897959183673}, {"time": 53280, "qpm": 125.0}, {"time": 53760, "qpm": 122.44897959183673}, {"time": 54240, "qpm": 125.0}, {"time": 55200, "qpm": 122.44897959183673}, {"time": 56160, "qpm": 125.0}, {"time": 60480, "qpm": 122.44897959183673}, {"time": 61440, "qpm": 125.0}, {"time": 61920, "qpm": 122.44897959183673}, {"time": 62880, "qpm": 125.0}, {"time": 63840, "qpm": 122.44897959183673}, {"time": 64320, "qpm": 125.0}, {"time": 64800, "qpm": 122.44897959183673}, {"time": 65280, "qpm": 125.0}, {"time": 66240, "qpm": 122.44897959183673}, {"time": 66720, "qpm": 125.0}, {"time": 67200, "qpm": 122.44897959183673}, {"time": 67680, "qpm": 125.0}, {"time": 69120, "qpm": 122.44897959183673}, {"time": 69600, "qpm": 125.0}, {"time": 71040, "qpm": 122.44897959183673}, {"time": 71520, "qpm": 125.0}, {"time": 72000, "qpm": 122.44897959183673}, {"time": 73920, "qpm": 125.0}, {"time": 74400, "qpm": 122.44897959183673}, {"time": 76800, "qpm": 125.0}, {"time": 77760, "qpm": 122.44897959183673}, {"time": 78240, "qpm": 125.0}, {"time": 79680, "qpm": 122.44897959183673}, {"time": 80160, "qpm": 125.0}, {"time": 81600, "qpm": 122.44897959183673}, {"time": 82080, "qpm": 125.0}, {"time": 83520, "qpm": 122.44897959183673}, {"time": 85440, "qpm": 125.0}, {"time": 89760, "qpm": 122.44897959183673}, {"time": 90720, "qpm": 125.0}, {"time": 93600, "qpm": 122.44897959183673}, {"time": 96480, "qpm": 125.0}, {"time": 98400, "qpm": 122.44897959183673}, {"time": 100320, "qpm": 125.0}, {"time": 103680, "qpm": 122.44897959183673}, {"time": 106080, "qpm": 125.0}, {"time": 107520, "qpm": 122.44897959183673}, {"time": 108000, "qpm": 125.0}, {"time": 110880, "qpm": 122.44897959183673}, {"time": 112800, "qpm": 125.0}, {"time": 115200, "qpm": 122.44897959183673}, {"time": 115680, "qpm": 125.0}, {"time": 118560, "qpm": 122.44897959183673}, {"time": 120480, "qpm": 125.0}, {"time": 127680, "qpm": 122.44897959183673}, {"time": 128640, "qpm": 125.0}, {"time": 129120, "qpm": 122.44897959183673}, {"time": 129600, "qpm": 125.0}, {"time": 130080, "qpm": 122.44897959183673}, {"time": 132000, "qpm": 125.0}, {"time": 132960, "qpm": 122.44897959183673}, {"time": 133440, "qpm": 125.0}, {"time": 134400, "qpm": 122.44897959183673}, {"time": 134880, "qpm": 125.0}, {"time": 136800, "qpm": 122.44897959183673}, {"time": 137280, "qpm": 125.0}, {"time": 137760, "qpm": 122.44897959183673}, {"time": 138240, "qpm": 125.0}, {"time": 140160, "qpm": 122.44897959183673}, {"time": 143040, "qpm": 125.0}, {"time": 143520, "qpm": 122.44897959183673}, {"time": 144000, "qpm": 125.0}, {"time": 145440, "qpm": 122.44897959183673}, {"time": 145920, "qpm": 125.0}, {"time": 147840, "qpm": 122.44897959183673}, {"time": 150240, "qpm": 125.0}, {"time": 152640, "qpm": 122.44897959183673}, {"time": 153600, "qpm": 125.0}, {"time": 154560, "qpm": 122.44897959183673}, {"time": 155040, "qpm": 125.0}, {"time": 156000, "qpm": 122.44897959183673}, {"time": 156480, "qpm": 125.0}, {"time": 158400, "qpm": 122.44897959183673}, {"time": 159360, "qpm": 125.0}, {"time": 160800, "qpm": 122.44897959183673}, {"time": 161280, "qpm": 125.0}, {"time": 161760, "qpm": 122.44897959183673}, {"time": 163200, "qpm": 125.0}, {"time": 164160, "qpm": 122.44897959183673}, {"time": 164640, "qpm": 125.0}, {"time": 165600, "qpm": 122.44897959183673}, {"time": 166560, "qpm": 125.0}, {"time": 167520, "qpm": 122.44897959183673}, {"time": 168480, "qpm": 125.0}, {"time": 170400, "qpm": 122.44897959183673}, {"time": 171360, "qpm": 125.0}, {"time": 172800, "qpm": 122.44897959183673}, {"time": 173280, "qpm": 125.0}, {"time": 175680, "qpm": 122.44897959183673}, {"time": 176640, "qpm": 125.0}, {"time": 180480, "qpm": 122.44897959183673}, {"time": 182400, "qpm": 125.0}, {"time": 183360, "qpm": 122.44897959183673}, {"time": 183840, "qpm": 125.0}, {"time": 184800, "qpm": 120.0}, {"time": 185280, "qpm": 125.0}, {"time": 187680, "qpm": 122.44897959183673}, {"time": 188160, "qpm": 125.0}, {"time": 188640, "qpm": 122.44897959183673}, {"time": 190080, "qpm": 125.0}, {"time": 191040, "qpm": 122.44897959183673}, {"time": 192480, "qpm": 125.0}, {"time": 194400, "qpm": 122.44897959183673}, {"time": 194880, "qpm": 125.0}, {"time": 196320, "qpm": 122.44897959183673}, {"time": 197280, "qpm": 125.0}, {"time": 197760, "qpm": 122.44897959183673}, {"time": 198240, "qpm": 125.0}, {"time": 199680, "qpm": 122.44897959183673}, {"time": 200160, "qpm": 125.0}, {"time": 202080, "qpm": 122.44897959183673}, {"time": 207360, "qpm": 125.0}, {"time": 207840, "qpm": 122.44897959183673}], "key_signatures": [{"time": 0, "root": 0, "mode": "major"}], "time_signatures": [{"time": 0, "numerator": 1, "denominator": 4}, {"time": 480, "numerator": 4, "denominator": 4}], "tracks": [{"program": 0, "is_drum": false, "name": "Piano", "notes": [{"time": 481, "pitch": 55, "duration": 120, "velocity": 110}, {"time": 601, "pitch": 60, "duration": 119, "velocity": 110}, {"time": 720, "pitch": 63, "duration": 120, "velocity": 110}, {"time": 840, "pitch": 67, "duration": 119, "velocity": 110}, {"time": 959, "pitch": 72, "duration": 120, "velocity": 110}, {"time": 1079, "pitch": 75, "duration": 119, "velocity": 110}, {"time": 1198, "pitch": 79, "duration": 119, "velocity": 110}, {"time": 1317, "pitch": 75, "duration": 120, "velocity": 110}, {"time": 1437, "pitch": 72, "duration": 122, "velocity": 110}, {"time": 1559, "pitch": 67, "duration": 122, "velocity": 110}, {"time": 1681, "pitch": 63, "duration": 122, "velocity": 110}, {"time": 1803, "pitch": 60, "duration": 122, "velocity": 110}, {"time": 1925, "pitch": 55, "duration": 119, "velocity": 110}, {"time": 2044, "pitch": 60, "duration": 119, "velocity": 110}, {"time": 2163, "pitch": 63, "duration": 120, "velocity": 110}, {"time": 2283, "pitch": 67, "duration": 119, "velocity": 110}, {"time": 2402, "pitch": 56, "duration": 120, "velocity": 110}, {"time": 2522, "pitch": 60, "duration": 119, "velocity": 110}, {"time": 2641, "pitch": 63, "duration": 120, "velocity": 110}, {"time": 2761, "pitch": 68, "duration": 119, "velocity": 110}, {"time": 2880, "pitch": 72, "duration": 120, "velocity": 110}, {"time": 3000, "pitch": 75, "duration": 119, "velocity": 110}, {"time": 3119, "pitch": 80, "duration": 120, "velocity": 110}, {"time": 3239, "pitch": 75, "duration": 119, "velocity": 110}, {"time": 3358, "pitch": 72, "duration": 120, "velocity": 110}, {"time": 3478, "pitch": 68, "duration": 119, "velocity": 110}, {"time": 3597, "pitch": 63, "duration": 119, "velocity": 110}, {"time": 3716, "pitch": 60, "duration": 120, "velocity": 110}, {"time": 3836, "pitch": 56, "duration": 122, "velocity": 110}, {"time": 3958, "pitch": 60, "duration": 122, "velocity": 110}, {"time": 4080, "pitch": 63, "duration": 122, "velocity": 110}, {"time": 4202, "pitch": 68, "duration": 122, "velocity": 110}, {"time": 4324, "pitch": 58, "duration": 119, "velocity": 110}, {"time": 4443, "pitch": 62, "duration": 119, "velocity": 110}, {"time": 4562, "pitch": 65, "duration": 120, "velocity": 110}, {"time": 4682, "pitch": 70, "duration": 119, "velocity": 110}, {"time": 4801, "pitch": 74, "duration": 120, "velocity": 110}, {"time": 4921, "pitch": 77, "duration": 119, "velocity": 110}, {"time": 5040, "pitch": 82, "duration": 120, "velocity": 110}, {"time": 5160, "pitch": 77, "duration": 119, "velocity": 110}, {"time": 5279, "pitch": 74, "duration": 120, "velocity": 110}, {"time": 5399, "pitch": 70, "duration": 119, "velocity": 110}, {"time": 5518, "pitch": 65, "duration": 120, "velocity": 110}, {"time": 5638, "pitch": 62, "duration": 119, "velocity": 110}, {"time": 5757, "pitch": 58, "duration": 122, "velocity": 110}, {"time": 5879, "pitch": 62, "duration": 122, "velocity": 110}, {"time": 6001, "pitch": 65, "duration": 122, "velocity": 110}, {"time": 6123, "pitch": 70, "duration": 122, "velocity": 110}, {"time": 6245, "pitch": 60, "duration": 119, "velocity": 110}, {"time": 6364, "pitch": 63, "duration": 120, "velocity": 110}, {"time": 6484, "pitch": 67, "duration": 119, "velocity": 110}, {"time": 6603, "pitch": 72, "duration": 120, "velocity": 110}, {"time": 6723, "pitch": 75, "duration": 119, "velocity": 110}, {"time": 6842, "pitch": 79, "duration": 120, "velocity": 110}, {"time": 6962, "pitch": 84, "duration": 119, "velocity": 110}, {"time": 7081, "pitch": 79, "duration": 119, "velocity": 110}, {"time": 7200, "pitch": 75, "duration": 120, "velocity": 110}, {"time": 7320, "pitch": 72, "duration": 119, "velocity": 110}, {"time": 7439, "pitch": 67, "duration": 120, "velocity": 110}, {"time": 7559, "pitch": 63, "duration": 119, "velocity": 110}, {"time": 7678, "pitch": 60, "duration": 120, "velocity": 110}, {"time": 7798, "pitch": 63, "duration": 119, "velocity": 110}, {"time": 7917, "pitch": 67, "duration": 120, "velocity": 110}, {"time": 8037, "pitch": 72, "duration": 119, "velocity": 110}, {"time": 8156, "pitch": 55, "duration": 122, "velocity": 110}, {"time": 8278, "pitch": 60, "duration": 122, "velocity": 110}, {"time": 8400, "pitch": 63, "duration": 122, "velocity": 110}, {"time": 8522, "pitch": 67, "duration": 122, "velocity": 110}, {"time": 8644, "pitch": 72, "duration": 119, "velocity": 110}, {"time": 8763, "pitch": 75, "duration": 120, "velocity": 110}, {"time": 8883, "pitch": 79, "duration": 119, "velocity": 110}, {"time": 9002, "pitch": 75, "duration": 120, "velocity": 110}, {"time": 9122, "pitch": 72, "duration": 119, "velocity": 110}, {"time": 9241, "pitch": 67, "duration": 120, "velocity": 110}, {"time": 9361, "pitch": 63, "duration": 119, "velocity": 110}, {"time": 9480, "pitch": 60, "duration": 120, "velocity": 110}, {"time": 9600, "pitch": 55, "duration": 119, "velocity": 110}, {"time": 9719, "pitch": 60, "duration": 119, "velocity": 110}, {"time": 9838, "pitch": 63, "duration": 120, "velocity": 110}, {"time": 9958, "pitch": 67, "duration": 119, "velocity": 110}, {"time": 10077, "pitch": 56, "duration": 120, "velocity": 110}, {"time": 10197, "pitch": 60, "duration": 119, "velocity": 110}, {"time": 10316, "pitch": 63, "duration": 120, "velocity": 110}, {"time": 10436, "pitch": 68, "duration": 119, "velocity": 110}, {"time": 10555, "pitch": 72, "duration": 122, "velocity": 110}, {"time": 10677, "pitch": 75, "duration": 122, "velocity": 110}, {"time": 10799, "pitch": 80, "duration": 122, "velocity": 110}, {"time": 10921, "pitch": 75, "duration": 122, "velocity": 110}, {"time": 11043, "pitch": 72, "duration": 119, "velocity": 110}, {"time": 11162, "pitch": 68, "duration": 120, "velocity": 110}, {"time": 11282, "pitch": 63, "duration": 119, "velocity": 110}, {"time": 11401, "pitch": 60, "duration": 120, "velocity": 110}, {"time": 11521, "pitch": 56, "duration": 119, "velocity": 110}, {"time": 11640, "pitch": 60, "duration": 120, "velocity": 110}, {"time": 11760, "pitch": 63, "duration": 119, "velocity": 110}, {"time": 11879, "pitch": 68, "duration": 120, "velocity": 110}, {"time": 11999, "pitch": 58, "duration": 119, "velocity": 110}, {"time": 12118, "pitch": 62, "duration": 119, "velocity": 110}, {"time": 12237, "pitch": 65, "duration": 120, "velocity": 110}, {"time": 12357, "pitch": 70, "duration": 119, "velocity": 110}, {"time": 12476, "pitch": 74, "duration": 122, "velocity": 110}, {"time": 12598, "pitch": 77, "duration": 122, "velocity": 110}, {"time": 12720, "pitch": 82, "duration": 122, "velocity": 110}, {"time": 12842, "pitch": 77, "duration": 122, "velocity": 110}, {"time": 12964, "pitch": 74, "duration": 119, "velocity": 110}, {"time": 13083, "pitch": 70, "duration": 120, "velocity": 110}, {"time": 13203, "pitch": 65, "duration": 119, "velocity": 110}, {"time": 13322, "pitch": 62, "duration": 120, "velocity": 110}, {"time": 13442, "pitch": 58, "duration": 119, "velocity": 110}, {"time": 13561, "pitch": 62, "duration": 120, "velocity": 110}, {"time": 13681, "pitch": 65, "duration": 119, "velocity": 110}, {"time": 13800, "pitch": 70, "duration": 120, "velocity": 110}, {"time": 13920, "pitch": 60, "duration": 119, "velocity": 110}, {"time": 14039, "pitch": 63, "duration": 120, "velocity": 110}, {"time": 14159, "pitch": 67, "duration": 119, "velocity": 110}, {"time": 14278, "pitch": 72, "duration": 120, "velocity": 110}, {"time": 14398, "pitch": 75, "duration": 119, "velocity": 110}, {"time": 14517, "pitch": 79, "duration": 120, "velocity": 110}, {"time": 14637, "pitch": 84, "duration": 119, "velocity": 110}, {"time": 14756, "pitch": 79, "duration": 119, "velocity": 110}, {"time": 14875, "pitch": 75, "duration": 122, "velocity": 110}, {"time": 14997, "pitch": 72, "duration": 122, "velocity": 110}, {"time": 15119, "pitch": 67, "duration": 122, "velocity": 110}, {"time": 15241, "pitch": 63, "duration": 122, "velocity": 110}, {"time": 15363, "pitch": 60, "duration": 120, "velocity": 110}, {"time": 15483, "pitch": 63, "duration": 119, "velocity": 110}, {"time": 15602, "pitch": 67, "duration": 119, "velocity": 110}, {"time": 15721, "pitch": 72, "duration": 120, "velocity": 110}, {"time": 15841, "pitch": 60, "duration": 119, "velocity": 110}, {"time": 15960, "pitch": 63, "duration": 120, "velocity": 110}, {"time": 16080, "pitch": 67, "duration": 119, "velocity": 110}, {"time": 16199, "pitch": 72, "duration": 120, "velocity": 110}, {"time": 16319, "pitch": 75, "duration": 119, "velocity": 110}, {"time": 16438, "pitch": 79, "duration": 120, "velocity": 110}, {"time": 16558, "pitch": 84, "duration": 119, "velocity": 110}, {"time": 16677, "pitch": 79, "duration": 120, "velocity": 110}, {"time": 16797, "pitch": 75, "duration": 122, "velocity": 110}, {"time": 16919, "pitch": 72, "duration": 121, "velocity": 110}, {"time": 17040, "pitch": 67, "duration": 122, "velocity": 110}, {"time": 17162, "pitch": 63, "duration": 122, "velocity": 110}, {"time": 17284, "pitch": 60, "duration": 120, "velocity": 110}, {"time": 17404, "pitch": 63, "duration": 119, "velocity": 110}, {"time": 17523, "pitch": 67, "duration": 120, "velocity": 110}, {"time": 17643, "pitch": 72, "duration": 119, "velocity": 110}, {"time": 17762, "pitch": 60, "duration": 120, "velocity": 110}, {"time": 17882, "pitch": 63, "duration": 120, "velocity": 110}, {"time": 18002, "pitch": 67, "duration": 120, "velocity": 110}, {"time": 18122, "pitch": 72, "duration": 120, "velocity": 110}, {"time": 18242, "pitch": 75, "duration": 120, "velocity": 110}, {"time": 18362, "pitch": 79, "duration": 120, "velocity": 110}, {"time": 18482, "pitch": 84, "duration": 120, "velocity": 110}, {"time": 18602, "pitch": 79, "duration": 120, "velocity": 110}, {"time": 18722, "pitch": 75, "duration": 120, "velocity": 110}, {"time": 18842, "pitch": 72, "duration": 120, "velocity": 110}, {"time": 18962, "pitch": 67, "duration": 120, "velocity": 110}, {"time": 19082, "pitch": 63, "duration": 120, "velocity": 110}, {"time": 19202, "pitch": 60, "duration": 120, "velocity": 110}, {"time": 19322, "pitch": 63, "duration": 120, "velocity": 110}, {"time": 19442, "pitch": 67, "duration": 120, "velocity": 110}, {"time": 19562, "pitch": 72, "duration": 120, "velocity": 110}, {"time": 35042, "pitch": 60, "duration": 240, "velocity": 120}, {"time": 35042, "pitch": 62, "duration": 254, "velocity": 120}, {"time": 35042, "pitch": 65, "duration": 256, "velocity": 120}, {"time": 35042, "pitch": 69, "duration": 228, "velocity": 120}, {"time": 35282, "pitch": 50, "duration": 99, "velocity": 120}, {"time": 35402, "pitch": 60, "duration": 99, "velocity": 120}, {"time": 35402, "pitch": 62, "duration": 86, "velocity": 120}, {"time": 35402, "pitch": 65, "duration": 84, "velocity": 120}, {"time": 35402, "pitch": 69, "duration": 127, "velocity": 120}, {"time": 35522, "pitch": 50, "duration": 74, "velocity": 120}, {"time": 35762, "pitch": 60, "duration": 98, "velocity": 120}, {"time": 35762, "pitch": 62, "duration": 91, "velocity": 120}, {"time": 35762, "pitch": 65, "duration": 79, "velocity": 120}, {"time": 35762, "pitch": 69, "duration": 111, "velocity": 120}, {"time": 36002, "pitch": 50, "duration": 82, "velocity": 120}, {"time": 36122, "pitch": 60, "duration": 87, "velocity": 120}, {"time": 36122, "pitch": 62, "duration": 84, "velocity": 120}, {"time": 36122, "pitch": 65, "duration": 81, "velocity": 120}, {"time": 36122, "pitch": 69, "duration": 113, "velocity": 120}, {"time": 36242, "pitch": 50, "duration": 91, "velocity": 120}, {"time": 36482, "pitch": 60, "duration": 98, "velocity": 120}, {"time": 36482, "pitch": 62, "duration": 87, "velocity": 120}, {"time": 36482, "pitch": 65, "duration": 92, "velocity": 120}, {"time": 36482, "pitch": 69, "duration": 112, "velocity": 120}, {"time": 36722, "pitch": 50, "duration": 113, "velocity": 120}, {"time": 36962, "pitch": 60, "duration": 288, "velocity": 120}, {"time": 36962, "pitch": 62, "duration": 284, "velocity": 120}, {"time": 36962, "pitch": 65, "duration": 291, "velocity": 120}, {"time": 36962, "pitch": 69, "duration": 285, "velocity": 120}, {"time": 37202, "pitch": 50, "duration": 96, "velocity": 120}, {"time": 37322, "pitch": 60, "duration": 93, "velocity": 120}, {"time": 37322, "pitch": 62, "duration": 101, "velocity": 120}, {"time": 37322, "pitch": 65, "duration": 91, "velocity": 120}, {"time": 37322, "pitch": 69, "duration": 98, "velocity": 120}, {"time": 37442, "pitch": 50, "duration": 108, "velocity": 120}, {"time": 37682, "pitch": 60, "duration": 91, "velocity": 120}, {"time": 37682, "pitch": 62, "duration": 111, "velocity": 120}, {"time": 37682, "pitch": 65, "duration": 106, "velocity": 120}, {"time": 37682, "pitch": 69, "duration": 127, "velocity": 120}, {"time": 37922, "pitch": 50, "duration": 93, "velocity": 120}, {"time": 38042, "pitch": 60, "duration": 101, "velocity": 120}, {"time": 38042, "pitch": 62, "duration": 101, "velocity": 120}, {"time": 38042, "pitch": 65, "duration": 96, "velocity": 120}, {"time": 38042, "pitch": 69, "duration": 120, "velocity": 120}, {"time": 38162, "pitch": 50, "duration": 113, "velocity": 120}, {"time": 38402, "pitch": 60, "duration": 132, "velocity": 120}, {"time": 38402, "pitch": 62, "duration": 118, "velocity": 120}, {"time": 38402, "pitch": 65, "duration": 105, "velocity": 120}, {"time": 38402, "pitch": 69, "duration": 103, "velocity": 120}, {"time": 38642, "pitch": 50, "duration": 120, "velocity": 120}, {"time": 38882, "pitch": 58, "duration": 269, "velocity": 120}, {"time": 38882, "pitch": 60, "duration": 267, "velocity": 120}, {"time": 38882, "pitch": 62, "duration": 257, "velocity": 120}, {"time": 38882, "pitch": 65, "duration": 255, "velocity": 120}, {"time": 39122, "pitch": 46, "duration": 84, "velocity": 120}, {"time": 39242, "pitch": 58, "duration": 117, "velocity": 120}, {"time": 39242, "pitch": 60, "duration": 81, "velocity": 120}, {"time": 39242, "pitch": 62, "duration": 62, "velocity": 120}, {"time": 39242, "pitch": 65, "duration": 84, "velocity": 120}, {"time": 39362, "pitch": 46, "duration": 75, "velocity": 120}, {"time": 39602, "pitch": 58, "duration": 127, "velocity": 120}, {"time": 39602, "pitch": 60, "duration": 86, "velocity": 120}, {"time": 39602, "pitch": 62, "duration": 96, "velocity": 120}, {"time": 39602, "pitch": 65, "duration": 120, "velocity": 120}, {"time": 39842, "pitch": 46, "duration": 96, "velocity": 120}, {"time": 39962, "pitch": 58, "duration": 110, "velocity": 120}, {"time": 39962, "pitch": 60, "duration": 84, "velocity": 120}, {"time": 39962, "pitch": 62, "duration": 82, "velocity": 120}, {"time": 39962, "pitch": 65, "duration": 91, "velocity": 120}, {"time": 40082, "pitch": 46, "duration": 79, "velocity": 120}, {"time": 40322, "pitch": 58, "duration": 134, "velocity": 120}, {"time": 40322, "pitch": 60, "duration": 94, "velocity": 120}, {"time": 40322, "pitch": 62, "duration": 96, "velocity": 120}, {"time": 40322, "pitch": 65, "duration": 108, "velocity": 120}, {"time": 40562, "pitch": 46, "duration": 118, "velocity": 120}, {"time": 40802, "pitch": 58, "duration": 274, "velocity": 120}, {"time": 40802, "pitch": 60, "duration": 243, "velocity": 120}, {"time": 40802, "pitch": 62, "duration": 245, "velocity": 120}, {"time": 40802, "pitch": 65, "duration": 235, "velocity": 120}, {"time": 41042, "pitch": 46, "duration": 96, "velocity": 120}, {"time": 41162, "pitch": 58, "duration": 151, "velocity": 120}, {"time": 41162, "pitch": 60, "duration": 132, "velocity": 120}, {"time": 41162, "pitch": 62, "duration": 125, "velocity": 120}, {"time": 41162, "pitch": 65, "duration": 125, "velocity": 120}, {"time": 41282, "pitch": 46, "duration": 89, "velocity": 120}, {"time": 41522, "pitch": 58, "duration": 129, "velocity": 120}, {"time": 41522, "pitch": 60, "duration": 96, "velocity": 120}, {"time": 41522, "pitch": 62, "duration": 77, "velocity": 120}, {"time": 41522, "pitch": 65, "duration": 110, "velocity": 120}, {"time": 41762, "pitch": 46, "duration": 108, "velocity": 120}, {"time": 41882, "pitch": 58, "duration": 144, "velocity": 120}, {"time": 41882, "pitch": 60, "duration": 132, "velocity": 120}, {"time": 41882, "pitch": 62, "duration": 130, "velocity": 120}, {"time": 41882, "pitch": 65, "duration": 134, "velocity": 120}, {"time": 42002, "pitch": 46, "duration": 123, "velocity": 120}, {"time": 42242, "pitch": 58, "duration": 141, "velocity": 120}, {"time": 42242, "pitch": 60, "duration": 122, "velocity": 120}, {"time": 42242, "pitch": 62, "duration": 134, "velocity": 120}, {"time": 42242, "pitch": 65, "duration": 156, "velocity": 120}, {"time": 42482, "pitch": 46, "duration": 146, "velocity": 120}, {"time": 42722, "pitch": 60, "duration": 245, "velocity": 120}, {"time": 42722, "pitch": 62, "duration": 257, "velocity": 120}, {"time": 42722, "pitch": 65, "duration": 252, "velocity": 120}, {"time": 42722, "pitch": 69, "duration": 226, "velocity": 120}, {"time": 42962, "pitch": 50, "duration": 94, "velocity": 120}, {"time": 43082, "pitch": 60, "duration": 101, "velocity": 120}, {"time": 43082, "pitch": 62, "duration": 124, "velocity": 120}, {"time": 43082, "pitch": 65, "duration": 104, "velocity": 120}, {"time": 43082, "pitch": 69, "duration": 132, "velocity": 120}, {"time": 43202, "pitch": 50, "duration": 84, "velocity": 120}, {"time": 43442, "pitch": 60, "duration": 87, "velocity": 120}, {"time": 43442, "pitch": 62, "duration": 82, "velocity": 120}, {"time": 43442, "pitch": 65, "duration": 82, "velocity": 120}, {"time": 43442, "pitch": 69, "duration": 106, "velocity": 120}, {"time": 43682, "pitch": 50, "duration": 75, "velocity": 120}, {"time": 43802, "pitch": 60, "duration": 89, "velocity": 120}, {"time": 43802, "pitch": 62, "duration": 89, "velocity": 120}, {"time": 43802, "pitch": 65, "duration": 79, "velocity": 120}, {"time": 43802, "pitch": 69, "duration": 93, "velocity": 120}, {"time": 43922, "pitch": 50, "duration": 96, "velocity": 120}, {"time": 44162, "pitch": 60, "duration": 94, "velocity": 120}, {"time": 44162, "pitch": 62, "duration": 89, "velocity": 120}, {"time": 44162, "pitch": 65, "duration": 82, "velocity": 120}, {"time": 44162, "pitch": 69, "duration": 91, "velocity": 120}, {"time": 44402, "pitch": 50, "duration": 96, "velocity": 120}, {"time": 44642, "pitch": 60, "duration": 269, "velocity": 120}, {"time": 44642, "pitch": 62, "duration": 279, "velocity": 120}, {"time": 44642, "pitch": 65, "duration": 286, "velocity": 120}, {"time": 44642, "pitch": 69, "duration": 264, "velocity": 120}, {"time": 44882, "pitch": 50, "duration": 79, "velocity": 120}, {"time": 45002, "pitch": 60, "duration": 94, "velocity": 120}, {"time": 45002, "pitch": 62, "duration": 101, "velocity": 120}, {"time": 45002, "pitch": 65, "duration": 91, "velocity": 120}, {"time": 45002, "pitch": 69, "duration": 124, "velocity": 120}, {"time": 45122, "pitch": 50, "duration": 89, "velocity": 120}, {"time": 45362, "pitch": 60, "duration": 94, "velocity": 120}, {"time": 45362, "pitch": 62, "duration": 82, "velocity": 120}, {"time": 45362, "pitch": 65, "duration": 94, "velocity": 120}, {"time": 45362, "pitch": 69, "duration": 103, "velocity": 120}, {"time": 45602, "pitch": 50, "duration": 99, "velocity": 120}, {"time": 45722, "pitch": 60, "duration": 105, "velocity": 120}, {"time": 45722, "pitch": 62, "duration": 99, "velocity": 120}, {"time": 45722, "pitch": 65, "duration": 96, "velocity": 120}, {"time": 45722, "pitch": 69, "duration": 112, "velocity": 120}, {"time": 45842, "pitch": 50, "duration": 104, "velocity": 120}, {"time": 46082, "pitch": 60, "duration": 134, "velocity": 120}, {"time": 46082, "pitch": 62, "duration": 113, "velocity": 120}, {"time": 46082, "pitch": 65, "duration": 118, "velocity": 120}, {"time": 46082, "pitch": 69, "duration": 125, "velocity": 120}, {"time": 46322, "pitch": 50, "duration": 120, "velocity": 120}, {"time": 46562, "pitch": 58, "duration": 271, "velocity": 120}, {"time": 46562, "pitch": 60, "duration": 254, "velocity": 120}, {"time": 46562, "pitch": 62, "duration": 245, "velocity": 120}, {"time": 46562, "pitch": 65, "duration": 257, "velocity": 120}, {"time": 46802, "pitch": 46, "duration": 91, "velocity": 120}, {"time": 46922, "pitch": 58, "duration": 105, "velocity": 120}, {"time": 46922, "pitch": 60, "duration": 86, "velocity": 120}, {"time": 46922, "pitch": 62, "duration": 84, "velocity": 120}, {"time": 46922, "pitch": 65, "duration": 91, "velocity": 120}, {"time": 47042, "pitch": 46, "duration": 67, "velocity": 120}, {"time": 47282, "pitch": 58, "duration": 141, "velocity": 120}, {"time": 47282, "pitch": 60, "duration": 130, "velocity": 120}, {"time": 47282, "pitch": 62, "duration": 84, "velocity": 120}, {"time": 47282, "pitch": 65, "duration": 93, "velocity": 120}, {"time": 47522, "pitch": 46, "duration": 103, "velocity": 120}, {"time": 47642, "pitch": 58, "duration": 171, "velocity": 120}, {"time": 47642, "pitch": 60, "duration": 86, "velocity": 120}, {"time": 47642, "pitch": 62, "duration": 103, "velocity": 120}, {"time": 47642, "pitch": 65, "duration": 110, "velocity": 120}, {"time": 47762, "pitch": 46, "duration": 94, "velocity": 120}, {"time": 48002, "pitch": 58, "duration": 163, "velocity": 120}, {"time": 48002, "pitch": 60, "duration": 139, "velocity": 120}, {"time": 48002, "pitch": 62, "duration": 120, "velocity": 120}, {"time": 48002, "pitch": 65, "duration": 139, "velocity": 120}, {"time": 48242, "pitch": 46, "duration": 116, "velocity": 120}, {"time": 48482, "pitch": 58, "duration": 254, "velocity": 120}, {"time": 48482, "pitch": 60, "duration": 249, "velocity": 120}, {"time": 48482, "pitch": 62, "duration": 240, "velocity": 120}, {"time": 48482, "pitch": 65, "duration": 228, "velocity": 120}, {"time": 48722, "pitch": 46, "duration": 101, "velocity": 120}, {"time": 48842, "pitch": 58, "duration": 141, "velocity": 120}, {"time": 48842, "pitch": 60, "duration": 113, "velocity": 120}, {"time": 48842, "pitch": 62, "duration": 111, "velocity": 120}, {"time": 48842, "pitch": 65, "duration": 113, "velocity": 120}, {"time": 48962, "pitch": 46, "duration": 98, "velocity": 120}, {"time": 49202, "pitch": 58, "duration": 151, "velocity": 120}, {"time": 49202, "pitch": 60, "duration": 113, "velocity": 120}, {"time": 49202, "pitch": 62, "duration": 113, "velocity": 120}, {"time": 49202, "pitch": 65, "duration": 122, "velocity": 120}, {"time": 49442, "pitch": 46, "duration": 108, "velocity": 120}, {"time": 49562, "pitch": 58, "duration": 151, "velocity": 120}, {"time": 49562, "pitch": 60, "duration": 135, "velocity": 120}, {"time": 49562, "pitch": 62, "duration": 130, "velocity": 120}, {"time": 49562, "pitch": 65, "duration": 135, "velocity": 120}, {"time": 49682, "pitch": 46, "duration": 132, "velocity": 120}, {"time": 49922, "pitch": 58, "duration": 177, "velocity": 120}, {"time": 49922, "pitch": 60, "duration": 149, "velocity": 120}, {"time": 49922, "pitch": 62, "duration": 149, "velocity": 120}, {"time": 49922, "pitch": 65, "duration": 165, "velocity": 120}, {"time": 50162, "pitch": 46, "duration": 132, "velocity": 120}, {"time": 50402, "pitch": 60, "duration": 293, "velocity": 120}, {"time": 50402, "pitch": 64, "duration": 288, "velocity": 120}, {"time": 50402, "pitch": 67, "duration": 298, "velocity": 120}, {"time": 50642, "pitch": 48, "duration": 89, "velocity": 120}, {"time": 50762, "pitch": 60, "duration": 115, "velocity": 120}, {"time": 50762, "pitch": 64, "duration": 110, "velocity": 120}, {"time": 50762, "pitch": 67, "duration": 134, "velocity": 120}, {"time": 51002, "pitch": 48, "duration": 63, "velocity": 120}, {"time": 51122, "pitch": 60, "duration": 96, "velocity": 120}, {"time": 51122, "pitch": 64, "duration": 99, "velocity": 120}, {"time": 51122, "pitch": 67, "duration": 103, "velocity": 120}, {"time": 51362, "pitch": 48, "duration": 84, "velocity": 120}, {"time": 51482, "pitch": 60, "duration": 99, "velocity": 120}, {"time": 51482, "pitch": 64, "duration": 91, "velocity": 120}, {"time": 51482, "pitch": 67, "duration": 113, "velocity": 120}, {"time": 51602, "pitch": 48, "duration": 86, "velocity": 120}, {"time": 51842, "pitch": 60, "duration": 91, "velocity": 120}, {"time": 51842, "pitch": 64, "duration": 94, "velocity": 120}, {"time": 51842, "pitch": 67, "duration": 115, "velocity": 120}, {"time": 52082, "pitch": 48, "duration": 96, "velocity": 120}, {"time": 52322, "pitch": 60, "duration": 214, "velocity": 120}, {"time": 52322, "pitch": 64, "duration": 218, "velocity": 120}, {"time": 52322, "pitch": 67, "duration": 225, "velocity": 120}, {"time": 52562, "pitch": 48, "duration": 84, "velocity": 120}, {"time": 52682, "pitch": 60, "duration": 132, "velocity": 120}, {"time": 52682, "pitch": 64, "duration": 134, "velocity": 120}, {"time": 52682, "pitch": 67, "duration": 144, "velocity": 120}, {"time": 52802, "pitch": 48, "duration": 103, "velocity": 120}, {"time": 53042, "pitch": 60, "duration": 147, "velocity": 120}, {"time": 53042, "pitch": 64, "duration": 147, "velocity": 120}, {"time": 53042, "pitch": 67, "duration": 161, "velocity": 120}, {"time": 53282, "pitch": 48, "duration": 96, "velocity": 120}, {"time": 53402, "pitch": 60, "duration": 154, "velocity": 120}, {"time": 53402, "pitch": 64, "duration": 156, "velocity": 120}, {"time": 53402, "pitch": 67, "duration": 166, "velocity": 120}, {"time": 53522, "pitch": 48, "duration": 110, "velocity": 120}, {"time": 53762, "pitch": 60, "duration": 257, "velocity": 120}, {"time": 53762, "pitch": 64, "duration": 238, "velocity": 120}, {"time": 53762, "pitch": 67, "duration": 262, "velocity": 120}, {"time": 54002, "pitch": 48, "duration": 128, "velocity": 120}, {"time": 54242, "pitch": 58, "duration": 257, "velocity": 120}, {"time": 54242, "pitch": 60, "duration": 250, "velocity": 120}, {"time": 54242, "pitch": 62, "duration": 252, "velocity": 120}, {"time": 54242, "pitch": 65, "duration": 250, "velocity": 120}, {"time": 54482, "pitch": 46, "duration": 103, "velocity": 120}, {"time": 54602, "pitch": 58, "duration": 144, "velocity": 120}, {"time": 54602, "pitch": 60, "duration": 132, "velocity": 120}, {"time": 54602, "pitch": 62, "duration": 125, "velocity": 120}, {"time": 54602, "pitch": 65, "duration": 125, "velocity": 120}, {"time": 54722, "pitch": 46, "duration": 89, "velocity": 120}, {"time": 54962, "pitch": 58, "duration": 151, "velocity": 120}, {"time": 54962, "pitch": 60, "duration": 127, "velocity": 120}, {"time": 54962, "pitch": 62, "duration": 132, "velocity": 120}, {"time": 54962, "pitch": 65, "duration": 130, "velocity": 120}, {"time": 55202, "pitch": 46, "duration": 108, "velocity": 120}, {"time": 55322, "pitch": 58, "duration": 146, "velocity": 120}, {"time": 55322, "pitch": 60, "duration": 113, "velocity": 120}, {"time": 55322, "pitch": 62, "duration": 113, "velocity": 120}, {"time": 55322, "pitch": 65, "duration": 135, "velocity": 120}, {"time": 55442, "pitch": 46, "duration": 113, "velocity": 120}, {"time": 55682, "pitch": 58, "duration": 132, "velocity": 120}, {"time": 55682, "pitch": 60, "duration": 117, "velocity": 120}, {"time": 55682, "pitch": 62, "duration": 96, "velocity": 120}, {"time": 55682, "pitch": 65, "duration": 153, "velocity": 120}, {"time": 55922, "pitch": 46, "duration": 129, "velocity": 120}, {"time": 56162, "pitch": 58, "duration": 261, "velocity": 120}, {"time": 56162, "pitch": 60, "duration": 257, "velocity": 120}, {"time": 56162, "pitch": 62, "duration": 247, "velocity": 120}, {"time": 56162, "pitch": 65, "duration": 245, "velocity": 120}, {"time": 56402, "pitch": 46, "duration": 91, "velocity": 120}, {"time": 56522, "pitch": 58, "duration": 154, "velocity": 120}, {"time": 56522, "pitch": 60, "duration": 144, "velocity": 120}, {"time": 56522, "pitch": 62, "duration": 132, "velocity": 120}, {"time": 56522, "pitch": 65, "duration": 151, "velocity": 120}, {"time": 56642, "pitch": 46, "duration": 91, "velocity": 120}, {"time": 56882, "pitch": 58, "duration": 137, "velocity": 120}, {"time": 56882, "pitch": 60, "duration": 100, "velocity": 120}, {"time": 56882, "pitch": 62, "duration": 100, "velocity": 120}, {"time": 56882, "pitch": 65, "duration": 132, "velocity": 120}, {"time": 57122, "pitch": 46, "duration": 101, "velocity": 120}, {"time": 57242, "pitch": 58, "duration": 151, "velocity": 120}, {"time": 57242, "pitch": 60, "duration": 129, "velocity": 120}, {"time": 57242, "pitch": 62, "duration": 125, "velocity": 120}, {"time": 57242, "pitch": 65, "duration": 134, "velocity": 120}, {"time": 57362, "pitch": 46, "duration": 108, "velocity": 120}, {"time": 57602, "pitch": 58, "duration": 209, "velocity": 120}, {"time": 57602, "pitch": 60, "duration": 180, "velocity": 120}, {"time": 57602, "pitch": 62, "duration": 194, "velocity": 120}, {"time": 57602, "pitch": 65, "duration": 204, "velocity": 120}, {"time": 57842, "pitch": 46, "duration": 151, "velocity": 120}, {"time": 58082, "pitch": 60, "duration": 250, "velocity": 120}, {"time": 58082, "pitch": 64, "duration": 254, "velocity": 120}, {"time": 58082, "pitch": 67, "duration": 257, "velocity": 120}, {"time": 58322, "pitch": 48, "duration": 94, "velocity": 120}, {"time": 58442, "pitch": 60, "duration": 108, "velocity": 120}, {"time": 58442, "pitch": 64, "duration": 79, "velocity": 120}, {"time": 58442, "pitch": 67, "duration": 105, "velocity": 120}, {"time": 58562, "pitch": 48, "duration": 72, "velocity": 120}, {"time": 58802, "pitch": 60, "duration": 103, "velocity": 120}, {"time": 58802, "pitch": 64, "duration": 87, "velocity": 120}, {"time": 58802, "pitch": 67, "duration": 117, "velocity": 120}, {"time": 59042, "pitch": 48, "duration": 81, "velocity": 120}, {"time": 59162, "pitch": 60, "duration": 113, "velocity": 120}, {"time": 59162, "pitch": 64, "duration": 101, "velocity": 120}, {"time": 59162, "pitch": 67, "duration": 120, "velocity": 120}, {"time": 59282, "pitch": 48, "duration": 69, "velocity": 120}, {"time": 59522, "pitch": 60, "duration": 115, "velocity": 120}, {"time": 59522, "pitch": 64, "duration": 101, "velocity": 120}, {"time": 59522, "pitch": 67, "duration": 108, "velocity": 120}, {"time": 59762, "pitch": 48, "duration": 96, "velocity": 120}, {"time": 60002, "pitch": 60, "duration": 314, "velocity": 120}, {"time": 60002, "pitch": 64, "duration": 303, "velocity": 120}, {"time": 60002, "pitch": 67, "duration": 315, "velocity": 120}, {"time": 60242, "pitch": 48, "duration": 87, "velocity": 120}, {"time": 60362, "pitch": 60, "duration": 110, "velocity": 120}, {"time": 60362, "pitch": 64, "duration": 104, "velocity": 120}, {"time": 60362, "pitch": 67, "duration": 92, "velocity": 120}, {"time": 60482, "pitch": 48, "duration": 89, "velocity": 120}, {"time": 60722, "pitch": 60, "duration": 106, "velocity": 120}, {"time": 60722, "pitch": 64, "duration": 106, "velocity": 120}, {"time": 60722, "pitch": 67, "duration": 108, "velocity": 120}, {"time": 60962, "pitch": 48, "duration": 80, "velocity": 120}, {"time": 61082, "pitch": 60, "duration": 113, "velocity": 120}, {"time": 61082, "pitch": 64, "duration": 108, "velocity": 120}, {"time": 61082, "pitch": 67, "duration": 116, "velocity": 120}, {"time": 61202, "pitch": 48, "duration": 101, "velocity": 120}, {"time": 61442, "pitch": 60, "duration": 168, "velocity": 120}, {"time": 61442, "pitch": 64, "duration": 144, "velocity": 120}, {"time": 61442, "pitch": 67, "duration": 149, "velocity": 120}, {"time": 61682, "pitch": 48, "duration": 111, "velocity": 120}, {"time": 61922, "pitch": 58, "duration": 245, "velocity": 120}, {"time": 61922, "pitch": 60, "duration": 233, "velocity": 120}, {"time": 61922, "pitch": 62, "duration": 233, "velocity": 120}, {"time": 61922, "pitch": 65, "duration": 224, "velocity": 120}, {"time": 62162, "pitch": 46, "duration": 86, "velocity": 120}, {"time": 62282, "pitch": 58, "duration": 135, "velocity": 120}, {"time": 62282, "pitch": 60, "duration": 96, "velocity": 120}, {"time": 62282, "pitch": 62, "duration": 96, "velocity": 120}, {"time": 62282, "pitch": 65, "duration": 137, "velocity": 120}, {"time": 62402, "pitch": 46, "duration": 58, "velocity": 120}, {"time": 62642, "pitch": 58, "duration": 151, "velocity": 120}, {"time": 62642, "pitch": 60, "duration": 118, "velocity": 120}, {"time": 62642, "pitch": 62, "duration": 113, "velocity": 120}, {"time": 62642, "pitch": 65, "duration": 151, "velocity": 120}, {"time": 62882, "pitch": 46, "duration": 91, "velocity": 120}, {"time": 63002, "pitch": 58, "duration": 147, "velocity": 120}, {"time": 63002, "pitch": 60, "duration": 108, "velocity": 120}, {"time": 63002, "pitch": 62, "duration": 130, "velocity": 120}, {"time": 63002, "pitch": 65, "duration": 142, "velocity": 120}, {"time": 63122, "pitch": 46, "duration": 108, "velocity": 120}, {"time": 63362, "pitch": 58, "duration": 268, "velocity": 120}, {"time": 63362, "pitch": 60, "duration": 230, "velocity": 120}, {"time": 63362, "pitch": 62, "duration": 240, "velocity": 120}, {"time": 63362, "pitch": 65, "duration": 290, "velocity": 120}, {"time": 63602, "pitch": 46, "duration": 91, "velocity": 120}, {"time": 63722, "pitch": 47, "duration": 55, "velocity": 120}, {"time": 63842, "pitch": 60, "duration": 238, "velocity": 120}, {"time": 63842, "pitch": 64, "duration": 242, "velocity": 120}, {"time": 63842, "pitch": 67, "duration": 247, "velocity": 120}, {"time": 63962, "pitch": 48, "duration": 108, "velocity": 120}, {"time": 64202, "pitch": 48, "duration": 86, "velocity": 120}, {"time": 64202, "pitch": 60, "duration": 136, "velocity": 120}, {"time": 64202, "pitch": 64, "duration": 136, "velocity": 120}, {"time": 64202, "pitch": 67, "duration": 154, "velocity": 120}, {"time": 64322, "pitch": 48, "duration": 108, "velocity": 120}, {"time": 64562, "pitch": 60, "duration": 264, "velocity": 120}, {"time": 64562, "pitch": 64, "duration": 262, "velocity": 120}, {"time": 64562, "pitch": 67, "duration": 279, "velocity": 120}, {"time": 64802, "pitch": 48, "duration": 88, "velocity": 120}, {"time": 64922, "pitch": 60, "duration": 120, "velocity": 120}, {"time": 64922, "pitch": 64, "duration": 122, "velocity": 120}, {"time": 64922, "pitch": 67, "duration": 139, "velocity": 120}, {"time": 65042, "pitch": 48, "duration": 190, "velocity": 120}, {"time": 65282, "pitch": 60, "duration": 338, "velocity": 120}, {"time": 65282, "pitch": 64, "duration": 338, "velocity": 120}, {"time": 65282, "pitch": 67, "duration": 350, "velocity": 120}, {"time": 65522, "pitch": 48, "duration": 94, "velocity": 120}, {"time": 65762, "pitch": 60, "duration": 240, "velocity": 120}, {"time": 65762, "pitch": 62, "duration": 254, "velocity": 120}, {"time": 65762, "pitch": 65, "duration": 256, "velocity": 120}, {"time": 65762, "pitch": 69, "duration": 228, "velocity": 120}, {"time": 66002, "pitch": 50, "duration": 99, "velocity": 120}, {"time": 66122, "pitch": 60, "duration": 99, "velocity": 120}, {"time": 66122, "pitch": 62, "duration": 86, "velocity": 120}, {"time": 66122, "pitch": 65, "duration": 84, "velocity": 120}, {"time": 66122, "pitch": 69, "duration": 127, "velocity": 120}, {"time": 66242, "pitch": 50, "duration": 74, "velocity": 120}, {"time": 66482, "pitch": 60, "duration": 98, "velocity": 120}, {"time": 66482, "pitch": 62, "duration": 91, "velocity": 120}, {"time": 66482, "pitch": 65, "duration": 79, "velocity": 120}, {"time": 66482, "pitch": 69, "duration": 111, "velocity": 120}, {"time": 66722, "pitch": 50, "duration": 82, "velocity": 120}, {"time": 66842, "pitch": 60, "duration": 87, "velocity": 120}, {"time": 66842, "pitch": 62, "duration": 84, "velocity": 120}, {"time": 66842, "pitch": 65, "duration": 81, "velocity": 120}, {"time": 66842, "pitch": 69, "duration": 113, "velocity": 120}, {"time": 66962, "pitch": 50, "duration": 91, "velocity": 120}, {"time": 67202, "pitch": 60, "duration": 98, "velocity": 120}, {"time": 67202, "pitch": 62, "duration": 87, "velocity": 120}, {"time": 67202, "pitch": 65, "duration": 92, "velocity": 120}, {"time": 67202, "pitch": 69, "duration": 112, "velocity": 120}, {"time": 67442, "pitch": 50, "duration": 113, "velocity": 120}, {"time": 67682, "pitch": 60, "duration": 288, "velocity": 120}, {"time": 67682, "pitch": 62, "duration": 284, "velocity": 120}, {"time": 67682, "pitch": 65, "duration": 291, "velocity": 120}, {"time": 67682, "pitch": 69, "duration": 285, "velocity": 120}, {"time": 67922, "pitch": 50, "duration": 96, "velocity": 120}, {"time": 68042, "pitch": 60, "duration": 93, "velocity": 120}, {"time": 68042, "pitch": 62, "duration": 101, "velocity": 120}, {"time": 68042, "pitch": 65, "duration": 91, "velocity": 120}, {"time": 68042, "pitch": 69, "duration": 98, "velocity": 120}, {"time": 68162, "pitch": 50, "duration": 108, "velocity": 120}, {"time": 68402, "pitch": 60, "duration": 91, "velocity": 120}, {"time": 68402, "pitch": 62, "duration": 111, "velocity": 120}, {"time": 68402, "pitch": 65, "duration": 106, "velocity": 120}, {"time": 68402, "pitch": 69, "duration": 127, "velocity": 120}, {"time": 68642, "pitch": 50, "duration": 93, "velocity": 120}, {"time": 68762, "pitch": 60, "duration": 101, "velocity": 120}, {"time": 68762, "pitch": 62, "duration": 101, "velocity": 120}, {"time": 68762, "pitch": 65, "duration": 96, "velocity": 120}, {"time": 68762, "pitch": 69, "duration": 120, "velocity": 120}, {"time": 68882, "pitch": 50, "duration": 113, "velocity": 120}, {"time": 69122, "pitch": 60, "duration": 132, "velocity": 120}, {"time": 69122, "pitch": 62, "duration": 118, "velocity": 120}, {"time": 69122, "pitch": 65, "duration": 105, "velocity": 120}, {"time": 69122, "pitch": 69, "duration": 103, "velocity": 120}, {"time": 69362, "pitch": 50, "duration": 120, "velocity": 120}, {"time": 69602, "pitch": 58, "duration": 269, "velocity": 120}, {"time": 69602, "pitch": 60, "duration": 267, "velocity": 120}, {"time": 69602, "pitch": 62, "duration": 257, "velocity": 120}, {"time": 69602, "pitch": 65, "duration": 255, "velocity": 120}, {"time": 69842, "pitch": 46, "duration": 84, "velocity": 120}, {"time": 69962, "pitch": 58, "duration": 117, "velocity": 120}, {"time": 69962, "pitch": 60, "duration": 81, "velocity": 120}, {"time": 69962, "pitch": 62, "duration": 62, "velocity": 120}, {"time": 69962, "pitch": 65, "duration": 84, "velocity": 120}, {"time": 70082, "pitch": 46, "duration": 75, "velocity": 120}, {"time": 70322, "pitch": 58, "duration": 127, "velocity": 120}, {"time": 70322, "pitch": 60, "duration": 86, "velocity": 120}, {"time": 70322, "pitch": 61, "duration": 32, "velocity": 120}, {"time": 70322, "pitch": 62, "duration": 96, "velocity": 120}, {"time": 70322, "pitch": 65, "duration": 120, "velocity": 120}, {"time": 70562, "pitch": 46, "duration": 96, "velocity": 120}, {"time": 70682, "pitch": 58, "duration": 110, "velocity": 120}, {"time": 70682, "pitch": 60, "duration": 84, "velocity": 120}, {"time": 70682, "pitch": 62, "duration": 82, "velocity": 120}, {"time": 70682, "pitch": 65, "duration": 91, "velocity": 120}, {"time": 70802, "pitch": 46, "duration": 79, "velocity": 120}, {"time": 71042, "pitch": 58, "duration": 134, "velocity": 120}, {"time": 71042, "pitch": 60, "duration": 94, "velocity": 120}, {"time": 71042, "pitch": 62, "duration": 96, "velocity": 120}, {"time": 71042, "pitch": 65, "duration": 108, "velocity": 120}, {"time": 71282, "pitch": 46, "duration": 118, "velocity": 120}, {"time": 71522, "pitch": 58, "duration": 274, "velocity": 120}, {"time": 71522, "pitch": 60, "duration": 243, "velocity": 120}, {"time": 71522, "pitch": 62, "duration": 245, "velocity": 120}, {"time": 71522, "pitch": 65, "duration": 235, "velocity": 120}, {"time": 71762, "pitch": 46, "duration": 96, "velocity": 120}, {"time": 71882, "pitch": 58, "duration": 151, "velocity": 120}, {"time": 71882, "pitch": 60, "duration": 132, "velocity": 120}, {"time": 71882, "pitch": 62, "duration": 125, "velocity": 120}, {"time": 71882, "pitch": 65, "duration": 125, "velocity": 120}, {"time": 72002, "pitch": 46, "duration": 89, "velocity": 120}, {"time": 72242, "pitch": 58, "duration": 129, "velocity": 120}, {"time": 72242, "pitch": 60, "duration": 96, "velocity": 120}, {"time": 72242, "pitch": 62, "duration": 77, "velocity": 120}, {"time": 72242, "pitch": 65, "duration": 110, "velocity": 120}, {"time": 72482, "pitch": 46, "duration": 108, "velocity": 120}, {"time": 72602, "pitch": 58, "duration": 144, "velocity": 120}, {"time": 72602, "pitch": 60, "duration": 132, "velocity": 120}, {"time": 72602, "pitch": 62, "duration": 130, "velocity": 120}, {"time": 72602, "pitch": 65, "duration": 134, "velocity": 120}, {"time": 72722, "pitch": 46, "duration": 123, "velocity": 120}, {"time": 72962, "pitch": 58, "duration": 141, "velocity": 120}, {"time": 72962, "pitch": 60, "duration": 122, "velocity": 120}, {"time": 72962, "pitch": 62, "duration": 134, "velocity": 120}, {"time": 72962, "pitch": 65, "duration": 156, "velocity": 120}, {"time": 73202, "pitch": 46, "duration": 146, "velocity": 120}, {"time": 73442, "pitch": 60, "duration": 245, "velocity": 120}, {"time": 73442, "pitch": 62, "duration": 257, "velocity": 120}, {"time": 73442, "pitch": 65, "duration": 252, "velocity": 120}, {"time": 73442, "pitch": 69, "duration": 226, "velocity": 120}, {"time": 73682, "pitch": 50, "duration": 94, "velocity": 120}, {"time": 73802, "pitch": 60, "duration": 101, "velocity": 120}, {"time": 73802, "pitch": 62, "duration": 124, "velocity": 120}, {"time": 73802, "pitch": 65, "duration": 104, "velocity": 120}, {"time": 73802, "pitch": 69, "duration": 132, "velocity": 120}, {"time": 73922, "pitch": 50, "duration": 84, "velocity": 120}, {"time": 74162, "pitch": 60, "duration": 87, "velocity": 120}, {"time": 74162, "pitch": 62, "duration": 82, "velocity": 120}, {"time": 74162, "pitch": 65, "duration": 82, "velocity": 120}, {"time": 74162, "pitch": 69, "duration": 106, "velocity": 120}, {"time": 74402, "pitch": 50, "duration": 75, "velocity": 120}, {"time": 74522, "pitch": 60, "duration": 89, "velocity": 120}, {"time": 74522, "pitch": 62, "duration": 89, "velocity": 120}, {"time": 74522, "pitch": 65, "duration": 79, "velocity": 120}, {"time": 74522, "pitch": 69, "duration": 93, "velocity": 120}, {"time": 74642, "pitch": 50, "duration": 96, "velocity": 120}, {"time": 74882, "pitch": 60, "duration": 94, "velocity": 120}, {"time": 74882, "pitch": 62, "duration": 89, "velocity": 120}, {"time": 74882, "pitch": 65, "duration": 82, "velocity": 120}, {"time": 74882, "pitch": 69, "duration": 91, "velocity": 120}, {"time": 75122, "pitch": 50, "duration": 96, "velocity": 120}, {"time": 75362, "pitch": 60, "duration": 269, "velocity": 120}, {"time": 75362, "pitch": 62, "duration": 279, "velocity": 120}, {"time": 75362, "pitch": 65, "duration": 286, "velocity": 120}, {"time": 75362, "pitch": 69, "duration": 264, "velocity": 120}, {"time": 75602, "pitch": 50, "duration": 79, "velocity": 120}, {"time": 75722, "pitch": 60, "duration": 94, "velocity": 120}, {"time": 75722, "pitch": 62, "duration": 101, "velocity": 120}, {"time": 75722, "pitch": 65, "duration": 91, "velocity": 120}, {"time": 75722, "pitch": 69, "duration": 124, "velocity": 120}, {"time": 75842, "pitch": 50, "duration": 89, "velocity": 120}, {"time": 76082, "pitch": 60, "duration": 94, "velocity": 120}, {"time": 76082, "pitch": 62, "duration": 82, "velocity": 120}, {"time": 76082, "pitch": 65, "duration": 94, "velocity": 120}, {"time": 76082, "pitch": 69, "duration": 103, "velocity": 120}, {"time": 76322, "pitch": 50, "duration": 99, "velocity": 120}, {"time": 76442, "pitch": 60, "duration": 105, "velocity": 120}, {"time": 76442, "pitch": 62, "duration": 99, "velocity": 120}, {"time": 76442, "pitch": 65, "duration": 96, "velocity": 120}, {"time": 76442, "pitch": 69, "duration": 112, "velocity": 120}, {"time": 76562, "pitch": 50, "duration": 104, "velocity": 120}, {"time": 76802, "pitch": 60, "duration": 134, "velocity": 120}, {"time": 76802, "pitch": 62, "duration": 113, "velocity": 120}, {"time": 76802, "pitch": 65, "duration": 118, "velocity": 120}, {"time": 76802, "pitch": 69, "duration": 125, "velocity": 120}, {"time": 77042, "pitch": 50, "duration": 120, "velocity": 120}, {"time": 77282, "pitch": 58, "duration": 271, "velocity": 120}, {"time": 77282, "pitch": 60, "duration": 254, "velocity": 120}, {"time": 77282, "pitch": 62, "duration": 245, "velocity": 120}, {"time": 77282, "pitch": 65, "duration": 257, "velocity": 120}, {"time": 77522, "pitch": 46, "duration": 91, "velocity": 120}, {"time": 77642, "pitch": 58, "duration": 105, "velocity": 120}, {"time": 77642, "pitch": 60, "duration": 86, "velocity": 120}, {"time": 77642, "pitch": 62, "duration": 84, "velocity": 120}, {"time": 77642, "pitch": 65, "duration": 91, "velocity": 120}, {"time": 77762, "pitch": 46, "duration": 67, "velocity": 120}, {"time": 78002, "pitch": 58, "duration": 141, "velocity": 120}, {"time": 78002, "pitch": 60, "duration": 130, "velocity": 120}, {"time": 78002, "pitch": 62, "duration": 84, "velocity": 120}, {"time": 78002, "pitch": 65, "duration": 93, "velocity": 120}, {"time": 78242, "pitch": 46, "duration": 103, "velocity": 120}, {"time": 78362, "pitch": 58, "duration": 171, "velocity": 120}, {"time": 78362, "pitch": 60, "duration": 86, "velocity": 120}, {"time": 78362, "pitch": 62, "duration": 103, "velocity": 120}, {"time": 78362, "pitch": 65, "duration": 110, "velocity": 120}, {"time": 78482, "pitch": 46, "duration": 94, "velocity": 120}, {"time": 78722, "pitch": 58, "duration": 163, "velocity": 120}, {"time": 78722, "pitch": 60, "duration": 139, "velocity": 120}, {"time": 78722, "pitch": 62, "duration": 120, "velocity": 120}, {"time": 78722, "pitch": 65, "duration": 139, "velocity": 120}, {"time": 78962, "pitch": 46, "duration": 116, "velocity": 120}, {"time": 79202, "pitch": 58, "duration": 254, "velocity": 120}, {"time": 79202, "pitch": 60, "duration": 249, "velocity": 120}, {"time": 79202, "pitch": 62, "duration": 240, "velocity": 120}, {"time": 79202, "pitch": 65, "duration": 228, "velocity": 120}, {"time": 79442, "pitch": 46, "duration": 101, "velocity": 120}, {"time": 79562, "pitch": 58, "duration": 141, "velocity": 120}, {"time": 79562, "pitch": 60, "duration": 113, "velocity": 120}, {"time": 79562, "pitch": 62, "duration": 111, "velocity": 120}, {"time": 79562, "pitch": 65, "duration": 113, "velocity": 120}, {"time": 79682, "pitch": 46, "duration": 98, "velocity": 120}, {"time": 79922, "pitch": 58, "duration": 151, "velocity": 120}, {"time": 79922, "pitch": 60, "duration": 113, "velocity": 120}, {"time": 79922, "pitch": 62, "duration": 113, "velocity": 120}, {"time": 79922, "pitch": 65, "duration": 122, "velocity": 120}, {"time": 80162, "pitch": 46, "duration": 108, "velocity": 120}, {"time": 80282, "pitch": 58, "duration": 151, "velocity": 120}, {"time": 80282, "pitch": 60, "duration": 135, "velocity": 120}, {"time": 80282, "pitch": 62, "duration": 130, "velocity": 120}, {"time": 80282, "pitch": 65, "duration": 135, "velocity": 120}, {"time": 80402, "pitch": 46, "duration": 132, "velocity": 120}, {"time": 80642, "pitch": 58, "duration": 177, "velocity": 120}, {"time": 80642, "pitch": 60, "duration": 149, "velocity": 120}, {"time": 80642, "pitch": 62, "duration": 149, "velocity": 120}, {"time": 80642, "pitch": 65, "duration": 165, "velocity": 120}, {"time": 80882, "pitch": 46, "duration": 132, "velocity": 120}, {"time": 81122, "pitch": 60, "duration": 293, "velocity": 120}, {"time": 81122, "pitch": 64, "duration": 288, "velocity": 120}, {"time": 81122, "pitch": 67, "duration": 298, "velocity": 120}, {"time": 81362, "pitch": 48, "duration": 89, "velocity": 120}, {"time": 81482, "pitch": 60, "duration": 115, "velocity": 120}, {"time": 81482, "pitch": 64, "duration": 110, "velocity": 120}, {"time": 81482, "pitch": 67, "duration": 134, "velocity": 120}, {"time": 81722, "pitch": 48, "duration": 63, "velocity": 120}, {"time": 81842, "pitch": 60, "duration": 96, "velocity": 120}, {"time": 81842, "pitch": 64, "duration": 99, "velocity": 120}, {"time": 81842, "pitch": 67, "duration": 103, "velocity": 120}, {"time": 82082, "pitch": 48, "duration": 84, "velocity": 120}, {"time": 82202, "pitch": 60, "duration": 99, "velocity": 120}, {"time": 82202, "pitch": 64, "duration": 91, "velocity": 120}, {"time": 82202, "pitch": 67, "duration": 113, "velocity": 120}, {"time": 82322, "pitch": 48, "duration": 86, "velocity": 120}, {"time": 82562, "pitch": 60, "duration": 91, "velocity": 120}, {"time": 82562, "pitch": 64, "duration": 94, "velocity": 120}, {"time": 82562, "pitch": 67, "duration": 115, "velocity": 120}, {"time": 82802, "pitch": 48, "duration": 96, "velocity": 120}, {"time": 83042, "pitch": 60, "duration": 214, "velocity": 120}, {"time": 83042, "pitch": 64, "duration": 218, "velocity": 120}, {"time": 83042, "pitch": 67, "duration": 225, "velocity": 120}, {"time": 83282, "pitch": 48, "duration": 84, "velocity": 120}, {"time": 83402, "pitch": 60, "duration": 132, "velocity": 120}, {"time": 83402, "pitch": 64, "duration": 134, "velocity": 120}, {"time": 83402, "pitch": 67, "duration": 144, "velocity": 120}, {"time": 83522, "pitch": 48, "duration": 103, "velocity": 120}, {"time": 83762, "pitch": 60, "duration": 147, "velocity": 120}, {"time": 83762, "pitch": 64, "duration": 147, "velocity": 120}, {"time": 83762, "pitch": 67, "duration": 161, "velocity": 120}, {"time": 84002, "pitch": 48, "duration": 96, "velocity": 120}, {"time": 84122, "pitch": 60, "duration": 154, "velocity": 120}, {"time": 84122, "pitch": 64, "duration": 156, "velocity": 120}, {"time": 84122, "pitch": 67, "duration": 166, "velocity": 120}, {"time": 84242, "pitch": 48, "duration": 110, "velocity": 120}, {"time": 84482, "pitch": 60, "duration": 257, "velocity": 120}, {"time": 84482, "pitch": 64, "duration": 238, "velocity": 120}, {"time": 84482, "pitch": 67, "duration": 262, "velocity": 120}, {"time": 84722, "pitch": 48, "duration": 128, "velocity": 120}, {"time": 84962, "pitch": 58, "duration": 257, "velocity": 120}, {"time": 84962, "pitch": 60, "duration": 250, "velocity": 120}, {"time": 84962, "pitch": 62, "duration": 252, "velocity": 120}, {"time": 84962, "pitch": 65, "duration": 250, "velocity": 120}, {"time": 85202, "pitch": 46, "duration": 103, "velocity": 120}, {"time": 85322, "pitch": 58, "duration": 144, "velocity": 120}, {"time": 85322, "pitch": 60, "duration": 132, "velocity": 120}, {"time": 85322, "pitch": 62, "duration": 125, "velocity": 120}, {"time": 85322, "pitch": 65, "duration": 125, "velocity": 120}, {"time": 85442, "pitch": 46, "duration": 89, "velocity": 120}, {"time": 85682, "pitch": 58, "duration": 151, "velocity": 120}, {"time": 85682, "pitch": 60, "duration": 127, "velocity": 120}, {"time": 85682, "pitch": 62, "duration": 132, "velocity": 120}, {"time": 85682, "pitch": 65, "duration": 130, "velocity": 120}, {"time": 85922, "pitch": 46, "duration": 108, "velocity": 120}, {"time": 86042, "pitch": 58, "duration": 146, "velocity": 120}, {"time": 86042, "pitch": 60, "duration": 113, "velocity": 120}, {"time": 86042, "pitch": 62, "duration": 113, "velocity": 120}, {"time": 86042, "pitch": 65, "duration": 135, "velocity": 120}, {"time": 86162, "pitch": 46, "duration": 113, "velocity": 120}, {"time": 86402, "pitch": 58, "duration": 132, "velocity": 120}, {"time": 86402, "pitch": 60, "duration": 117, "velocity": 120}, {"time": 86402, "pitch": 62, "duration": 96, "velocity": 120}, {"time": 86402, "pitch": 65, "duration": 153, "velocity": 120}, {"time": 86642, "pitch": 46, "duration": 129, "velocity": 120}, {"time": 86882, "pitch": 58, "duration": 261, "velocity": 120}, {"time": 86882, "pitch": 60, "duration": 257, "velocity": 120}, {"time": 86882, "pitch": 62, "duration": 247, "velocity": 120}, {"time": 86882, "pitch": 65, "duration": 245, "velocity": 120}, {"time": 87122, "pitch": 46, "duration": 91, "velocity": 120}, {"time": 87242, "pitch": 58, "duration": 154, "velocity": 120}, {"time": 87242, "pitch": 60, "duration": 144, "velocity": 120}, {"time": 87242, "pitch": 62, "duration": 132, "velocity": 120}, {"time": 87242, "pitch": 65, "duration": 151, "velocity": 120}, {"time": 87362, "pitch": 46, "duration": 91, "velocity": 120}, {"time": 87602, "pitch": 58, "duration": 137, "velocity": 120}, {"time": 87602, "pitch": 60, "duration": 100, "velocity": 120}, {"time": 87602, "pitch": 62, "duration": 100, "velocity": 120}, {"time": 87602, "pitch": 65, "duration": 132, "velocity": 120}, {"time": 87842, "pitch": 46, "duration": 101, "velocity": 120}, {"time": 87962, "pitch": 58, "duration": 151, "velocity": 120}, {"time": 87962, "pitch": 60, "duration": 129, "velocity": 120}, {"time": 87962, "pitch": 62, "duration": 125, "velocity": 120}, {"time": 87962, "pitch": 65, "duration": 134, "velocity": 120}, {"time": 88082, "pitch": 46, "duration": 108, "velocity": 120}, {"time": 88322, "pitch": 58, "duration": 209, "velocity": 120}, {"time": 88322, "pitch": 60, "duration": 180, "velocity": 120}, {"time": 88322, "pitch": 62, "duration": 194, "velocity": 120}, {"time": 88322, "pitch": 65, "duration": 204, "velocity": 120}, {"time": 88562, "pitch": 46, "duration": 151, "velocity": 120}, {"time": 88802, "pitch": 60, "duration": 250, "velocity": 120}, {"time": 88802, "pitch": 64, "duration": 254, "velocity": 120}, {"time": 88802, "pitch": 67, "duration": 257, "velocity": 120}, {"time": 89042, "pitch": 48, "duration": 94, "velocity": 120}, {"time": 89162, "pitch": 60, "duration": 108, "velocity": 120}, {"time": 89162, "pitch": 64, "duration": 79, "velocity": 120}, {"time": 89162, "pitch": 67, "duration": 105, "velocity": 120}, {"time": 89282, "pitch": 48, "duration": 72, "velocity": 120}, {"time": 89522, "pitch": 60, "duration": 103, "velocity": 120}, {"time": 89522, "pitch": 64, "duration": 87, "velocity": 120}, {"time": 89522, "pitch": 67, "duration": 117, "velocity": 120}, {"time": 89762, "pitch": 48, "duration": 81, "velocity": 120}, {"time": 89882, "pitch": 60, "duration": 113, "velocity": 120}, {"time": 89882, "pitch": 64, "duration": 101, "velocity": 120}, {"time": 89882, "pitch": 67, "duration": 120, "velocity": 120}, {"time": 90002, "pitch": 48, "duration": 69, "velocity": 120}, {"time": 90242, "pitch": 60, "duration": 115, "velocity": 120}, {"time": 90242, "pitch": 64, "duration": 101, "velocity": 120}, {"time": 90242, "pitch": 67, "duration": 108, "velocity": 120}, {"time": 90482, "pitch": 48, "duration": 96, "velocity": 120}, {"time": 90722, "pitch": 60, "duration": 314, "velocity": 120}, {"time": 90722, "pitch": 64, "duration": 303, "velocity": 120}, {"time": 90722, "pitch": 67, "duration": 315, "velocity": 120}, {"time": 90962, "pitch": 48, "duration": 87, "velocity": 120}, {"time": 91082, "pitch": 60, "duration": 110, "velocity": 120}, {"time": 91082, "pitch": 64, "duration": 104, "velocity": 120}, {"time": 91082, "pitch": 67, "duration": 92, "velocity": 120}, {"time": 91202, "pitch": 48, "duration": 89, "velocity": 120}, {"time": 91442, "pitch": 60, "duration": 106, "velocity": 120}, {"time": 91442, "pitch": 64, "duration": 106, "velocity": 120}, {"time": 91442, "pitch": 67, "duration": 108, "velocity": 120}, {"time": 91682, "pitch": 48, "duration": 80, "velocity": 120}, {"time": 91802, "pitch": 60, "duration": 113, "velocity": 120}, {"time": 91802, "pitch": 64, "duration": 108, "velocity": 120}, {"time": 91802, "pitch": 67, "duration": 116, "velocity": 120}, {"time": 91922, "pitch": 48, "duration": 101, "velocity": 120}, {"time": 92162, "pitch": 60, "duration": 168, "velocity": 120}, {"time": 92162, "pitch": 64, "duration": 144, "velocity": 120}, {"time": 92162, "pitch": 67, "duration": 149, "velocity": 120}, {"time": 92402, "pitch": 48, "duration": 111, "velocity": 120}, {"time": 92642, "pitch": 58, "duration": 245, "velocity": 120}, {"time": 92642, "pitch": 60, "duration": 233, "velocity": 120}, {"time": 92642, "pitch": 62, "duration": 233, "velocity": 120}, {"time": 92642, "pitch": 65, "duration": 224, "velocity": 120}, {"time": 92882, "pitch": 46, "duration": 86, "velocity": 120}, {"time": 93002, "pitch": 58, "duration": 135, "velocity": 120}, {"time": 93002, "pitch": 60, "duration": 96, "velocity": 120}, {"time": 93002, "pitch": 62, "duration": 96, "velocity": 120}, {"time": 93002, "pitch": 65, "duration": 137, "velocity": 120}, {"time": 93122, "pitch": 46, "duration": 58, "velocity": 120}, {"time": 93362, "pitch": 58, "duration": 151, "velocity": 120}, {"time": 93362, "pitch": 60, "duration": 118, "velocity": 120}, {"time": 93362, "pitch": 62, "duration": 113, "velocity": 120}, {"time": 93362, "pitch": 65, "duration": 151, "velocity": 120}, {"time": 93602, "pitch": 46, "duration": 91, "velocity": 120}, {"time": 93722, "pitch": 58, "duration": 147, "velocity": 120}, {"time": 93722, "pitch": 60, "duration": 108, "velocity": 120}, {"time": 93722, "pitch": 62, "duration": 130, "velocity": 120}, {"time": 93722, "pitch": 65, "duration": 142, "velocity": 120}, {"time": 93842, "pitch": 46, "duration": 108, "velocity": 120}, {"time": 94082, "pitch": 58, "duration": 268, "velocity": 120}, {"time": 94082, "pitch": 60, "duration": 230, "velocity": 120}, {"time": 94082, "pitch": 62, "duration": 240, "velocity": 120}, {"time": 94082, "pitch": 65, "duration": 290, "velocity": 120}, {"time": 94322, "pitch": 46, "duration": 91, "velocity": 120}, {"time": 94442, "pitch": 47, "duration": 55, "velocity": 120}, {"time": 94562, "pitch": 60, "duration": 238, "velocity": 120}, {"time": 94562, "pitch": 64, "duration": 242, "velocity": 120}, {"time": 94562, "pitch": 67, "duration": 247, "velocity": 120}, {"time": 94682, "pitch": 48, "duration": 108, "velocity": 120}, {"time": 94922, "pitch": 48, "duration": 86, "velocity": 120}, {"time": 94922, "pitch": 60, "duration": 136, "velocity": 120}, {"time": 94922, "pitch": 64, "duration": 136, "velocity": 120}, {"time": 94922, "pitch": 67, "duration": 154, "velocity": 120}, {"time": 95042, "pitch": 48, "duration": 108, "velocity": 120}, {"time": 95282, "pitch": 60, "duration": 264, "velocity": 120}, {"time": 95282, "pitch": 64, "duration": 262, "velocity": 120}, {"time": 95282, "pitch": 67, "duration": 279, "velocity": 120}, {"time": 95522, "pitch": 48, "duration": 88, "velocity": 120}, {"time": 95642, "pitch": 60, "duration": 120, "velocity": 120}, {"time": 95642, "pitch": 64, "duration": 122, "velocity": 120}, {"time": 95642, "pitch": 67, "duration": 139, "velocity": 120}, {"time": 95762, "pitch": 48, "duration": 190, "velocity": 120}, {"time": 96002, "pitch": 60, "duration": 338, "velocity": 120}, {"time": 96002, "pitch": 64, "duration": 338, "velocity": 120}, {"time": 96002, "pitch": 67, "duration": 350, "velocity": 120}, {"time": 96242, "pitch": 48, "duration": 94, "velocity": 120}, {"time": 96482, "pitch": 43, "duration": 1813, "velocity": 120}, {"time": 96482, "pitch": 55, "duration": 159, "velocity": 120}, {"time": 96482, "pitch": 58, "duration": 318, "velocity": 120}, {"time": 96482, "pitch": 60, "duration": 320, "velocity": 120}, {"time": 96482, "pitch": 65, "duration": 298, "velocity": 120}, {"time": 96722, "pitch": 55, "duration": 121, "velocity": 120}, {"time": 96842, "pitch": 58, "duration": 171, "velocity": 120}, {"time": 96842, "pitch": 60, "duration": 143, "velocity": 120}, {"time": 96842, "pitch": 65, "duration": 153, "velocity": 120}, {"time": 96962, "pitch": 55, "duration": 295, "velocity": 120}, {"time": 97202, "pitch": 58, "duration": 243, "velocity": 120}, {"time": 97202, "pitch": 60, "duration": 240, "velocity": 120}, {"time": 97202, "pitch": 65, "duration": 230, "velocity": 120}, {"time": 97442, "pitch": 55, "duration": 111, "velocity": 120}, {"time": 97562, "pitch": 58, "duration": 171, "velocity": 120}, {"time": 97562, "pitch": 60, "duration": 154, "velocity": 120}, {"time": 97562, "pitch": 65, "duration": 149, "velocity": 120}, {"time": 97682, "pitch": 55, "duration": 223, "velocity": 120}, {"time": 97922, "pitch": 58, "duration": 278, "velocity": 120}, {"time": 97922, "pitch": 60, "duration": 238, "velocity": 120}, {"time": 97922, "pitch": 65, "duration": 256, "velocity": 120}, {"time": 98162, "pitch": 55, "duration": 104, "velocity": 120}, {"time": 98402, "pitch": 45, "duration": 1808, "velocity": 120}, {"time": 98402, "pitch": 57, "duration": 106, "velocity": 120}, {"time": 98402, "pitch": 60, "duration": 283, "velocity": 120}, {"time": 98402, "pitch": 62, "duration": 280, "velocity": 120}, {"time": 98402, "pitch": 67, "duration": 265, "velocity": 120}, {"time": 98642, "pitch": 57, "duration": 107, "velocity": 120}, {"time": 98762, "pitch": 60, "duration": 112, "velocity": 120}, {"time": 98762, "pitch": 62, "duration": 92, "velocity": 120}, {"time": 98762, "pitch": 67, "duration": 129, "velocity": 120}, {"time": 98882, "pitch": 57, "duration": 181, "velocity": 120}, {"time": 99122, "pitch": 60, "duration": 241, "velocity": 120}, {"time": 99122, "pitch": 62, "duration": 255, "velocity": 120}, {"time": 99122, "pitch": 67, "duration": 255, "velocity": 120}, {"time": 99362, "pitch": 57, "duration": 114, "velocity": 120}, {"time": 99482, "pitch": 60, "duration": 161, "velocity": 120}, {"time": 99482, "pitch": 62, "duration": 171, "velocity": 120}, {"time": 99482, "pitch": 67, "duration": 173, "velocity": 120}, {"time": 99602, "pitch": 57, "duration": 183, "velocity": 120}, {"time": 99842, "pitch": 60, "duration": 298, "velocity": 120}, {"time": 99842, "pitch": 62, "duration": 308, "velocity": 120}, {"time": 99842, "pitch": 67, "duration": 327, "velocity": 120}, {"time": 100082, "pitch": 57, "duration": 80, "velocity": 120}, {"time": 100322, "pitch": 46, "duration": 1741, "velocity": 120}, {"time": 100322, "pitch": 58, "duration": 159, "velocity": 120}, {"time": 100322, "pitch": 62, "duration": 287, "velocity": 120}, {"time": 100322, "pitch": 64, "duration": 282, "velocity": 120}, {"time": 100322, "pitch": 69, "duration": 278, "velocity": 120}, {"time": 100562, "pitch": 58, "duration": 112, "velocity": 120}, {"time": 100682, "pitch": 62, "duration": 121, "velocity": 120}, {"time": 100682, "pitch": 64, "duration": 124, "velocity": 120}, {"time": 100682, "pitch": 69, "duration": 137, "velocity": 120}, {"time": 100802, "pitch": 58, "duration": 159, "velocity": 120}, {"time": 101042, "pitch": 62, "duration": 258, "velocity": 120}, {"time": 101042, "pitch": 64, "duration": 267, "velocity": 120}, {"time": 101042, "pitch": 69, "duration": 256, "velocity": 120}, {"time": 101282, "pitch": 58, "duration": 96, "velocity": 120}, {"time": 101402, "pitch": 62, "duration": 184, "velocity": 120}, {"time": 101402, "pitch": 64, "duration": 183, "velocity": 120}, {"time": 101402, "pitch": 69, "duration": 176, "velocity": 120}, {"time": 101522, "pitch": 58, "duration": 205, "velocity": 120}, {"time": 101762, "pitch": 62, "duration": 261, "velocity": 120}, {"time": 101762, "pitch": 64, "duration": 268, "velocity": 120}, {"time": 101762, "pitch": 69, "duration": 271, "velocity": 120}, {"time": 102002, "pitch": 58, "duration": 99, "velocity": 120}, {"time": 102242, "pitch": 48, "duration": 1821, "velocity": 120}, {"time": 102242, "pitch": 60, "duration": 132, "velocity": 120}, {"time": 102242, "pitch": 65, "duration": 268, "velocity": 120}, {"time": 102242, "pitch": 67, "duration": 268, "velocity": 120}, {"time": 102242, "pitch": 72, "duration": 266, "velocity": 120}, {"time": 102482, "pitch": 60, "duration": 99, "velocity": 120}, {"time": 102602, "pitch": 65, "duration": 134, "velocity": 120}, {"time": 102602, "pitch": 67, "duration": 126, "velocity": 120}, {"time": 102602, "pitch": 72, "duration": 137, "velocity": 120}, {"time": 102722, "pitch": 60, "duration": 183, "velocity": 120}, {"time": 102962, "pitch": 65, "duration": 178, "velocity": 120}, {"time": 102962, "pitch": 67, "duration": 183, "velocity": 120}, {"time": 102962, "pitch": 72, "duration": 205, "velocity": 120}, {"time": 103202, "pitch": 60, "duration": 129, "velocity": 120}, {"time": 103322, "pitch": 77, "duration": 95, "velocity": 120}, {"time": 103322, "pitch": 79, "duration": 95, "velocity": 120}, {"time": 103322, "pitch": 84, "duration": 112, "velocity": 120}, {"time": 103442, "pitch": 60, "duration": 144, "velocity": 120}, {"time": 103682, "pitch": 77, "duration": 253, "velocity": 120}, {"time": 103682, "pitch": 79, "duration": 235, "velocity": 120}, {"time": 103682, "pitch": 84, "duration": 220, "velocity": 120}, {"time": 103922, "pitch": 60, "duration": 77, "velocity": 120}, {"time": 104162, "pitch": 43, "duration": 1813, "velocity": 120}, {"time": 104162, "pitch": 55, "duration": 159, "velocity": 120}, {"time": 104162, "pitch": 58, "duration": 318, "velocity": 120}, {"time": 104162, "pitch": 60, "duration": 320, "velocity": 120}, {"time": 104162, "pitch": 65, "duration": 298, "velocity": 120}, {"time": 104402, "pitch": 55, "duration": 121, "velocity": 120}, {"time": 104522, "pitch": 58, "duration": 171, "velocity": 120}, {"time": 104522, "pitch": 60, "duration": 143, "velocity": 120}, {"time": 104522, "pitch": 65, "duration": 153, "velocity": 120}, {"time": 104642, "pitch": 55, "duration": 295, "velocity": 120}, {"time": 104882, "pitch": 58, "duration": 243, "velocity": 120}, {"time": 104882, "pitch": 60, "duration": 240, "velocity": 120}, {"time": 104882, "pitch": 65, "duration": 230, "velocity": 120}, {"time": 105122, "pitch": 55, "duration": 111, "velocity": 120}, {"time": 105242, "pitch": 58, "duration": 171, "velocity": 120}, {"time": 105242, "pitch": 60, "duration": 154, "velocity": 120}, {"time": 105242, "pitch": 65, "duration": 149, "velocity": 120}, {"time": 105362, "pitch": 55, "duration": 223, "velocity": 120}, {"time": 105602, "pitch": 58, "duration": 278, "velocity": 120}, {"time": 105602, "pitch": 60, "duration": 238, "velocity": 120}, {"time": 105602, "pitch": 65, "duration": 256, "velocity": 120}, {"time": 105842, "pitch": 55, "duration": 104, "velocity": 120}, {"time": 106082, "pitch": 45, "duration": 1808, "velocity": 120}, {"time": 106082, "pitch": 57, "duration": 106, "velocity": 120}, {"time": 106082, "pitch": 60, "duration": 283, "velocity": 120}, {"time": 106082, "pitch": 62, "duration": 280, "velocity": 120}, {"time": 106082, "pitch": 67, "duration": 265, "velocity": 120}, {"time": 106322, "pitch": 57, "duration": 107, "velocity": 120}, {"time": 106442, "pitch": 60, "duration": 112, "velocity": 120}, {"time": 106442, "pitch": 62, "duration": 92, "velocity": 120}, {"time": 106442, "pitch": 67, "duration": 129, "velocity": 120}, {"time": 106562, "pitch": 57, "duration": 181, "velocity": 120}, {"time": 106802, "pitch": 60, "duration": 241, "velocity": 120}, {"time": 106802, "pitch": 62, "duration": 255, "velocity": 120}, {"time": 106802, "pitch": 67, "duration": 255, "velocity": 120}, {"time": 107042, "pitch": 57, "duration": 114, "velocity": 120}, {"time": 107162, "pitch": 60, "duration": 161, "velocity": 120}, {"time": 107162, "pitch": 62, "duration": 171, "velocity": 120}, {"time": 107162, "pitch": 67, "duration": 173, "velocity": 120}, {"time": 107282, "pitch": 57, "duration": 183, "velocity": 120}, {"time": 107522, "pitch": 60, "duration": 298, "velocity": 120}, {"time": 107522, "pitch": 62, "duration": 308, "velocity": 120}, {"time": 107522, "pitch": 67, "duration": 327, "velocity": 120}, {"time": 107762, "pitch": 57, "duration": 80, "velocity": 120}, {"time": 108002, "pitch": 46, "duration": 1741, "velocity": 120}, {"time": 108002, "pitch": 58, "duration": 159, "velocity": 120}, {"time": 108002, "pitch": 62, "duration": 287, "velocity": 120}, {"time": 108002, "pitch": 64, "duration": 282, "velocity": 120}, {"time": 108002, "pitch": 69, "duration": 278, "velocity": 120}, {"time": 108242, "pitch": 58, "duration": 112, "velocity": 120}, {"time": 108362, "pitch": 62, "duration": 121, "velocity": 120}, {"time": 108362, "pitch": 64, "duration": 124, "velocity": 120}, {"time": 108362, "pitch": 69, "duration": 137, "velocity": 120}, {"time": 108482, "pitch": 58, "duration": 159, "velocity": 120}, {"time": 108722, "pitch": 62, "duration": 258, "velocity": 120}, {"time": 108722, "pitch": 64, "duration": 267, "velocity": 120}, {"time": 108722, "pitch": 69, "duration": 256, "velocity": 120}, {"time": 108962, "pitch": 58, "duration": 96, "velocity": 120}, {"time": 109082, "pitch": 62, "duration": 184, "velocity": 120}, {"time": 109082, "pitch": 64, "duration": 183, "velocity": 120}, {"time": 109082, "pitch": 69, "duration": 176, "velocity": 120}, {"time": 109202, "pitch": 58, "duration": 205, "velocity": 120}, {"time": 109442, "pitch": 62, "duration": 261, "velocity": 120}, {"time": 109442, "pitch": 64, "duration": 268, "velocity": 120}, {"time": 109442, "pitch": 69, "duration": 271, "velocity": 120}, {"time": 109682, "pitch": 58, "duration": 99, "velocity": 120}, {"time": 110162, "pitch": 48, "duration": 99, "velocity": 120}, {"time": 110162, "pitch": 60, "duration": 92, "velocity": 120}, {"time": 110162, "pitch": 65, "duration": 97, "velocity": 120}, {"time": 110162, "pitch": 67, "duration": 89, "velocity": 120}, {"time": 110162, "pitch": 72, "duration": 109, "velocity": 120}, {"time": 110402, "pitch": 48, "duration": 263, "velocity": 120}, {"time": 110402, "pitch": 60, "duration": 268, "velocity": 120}, {"time": 110402, "pitch": 65, "duration": 275, "velocity": 120}, {"time": 110402, "pitch": 67, "duration": 263, "velocity": 120}, {"time": 110402, "pitch": 72, "duration": 270, "velocity": 120}, {"time": 110882, "pitch": 48, "duration": 231, "velocity": 120}, {"time": 110882, "pitch": 60, "duration": 233, "velocity": 120}, {"time": 110882, "pitch": 65, "duration": 258, "velocity": 120}, {"time": 110882, "pitch": 67, "duration": 268, "velocity": 120}, {"time": 110882, "pitch": 72, "duration": 258, "velocity": 120}, {"time": 111242, "pitch": 48, "duration": 206, "velocity": 120}, {"time": 111242, "pitch": 60, "duration": 199, "velocity": 120}, {"time": 111242, "pitch": 65, "duration": 223, "velocity": 120}, {"time": 111242, "pitch": 67, "duration": 226, "velocity": 120}, {"time": 111242, "pitch": 72, "duration": 209, "velocity": 120}, {"time": 111602, "pitch": 48, "duration": 119, "velocity": 120}, {"time": 111602, "pitch": 60, "duration": 112, "velocity": 120}, {"time": 111602, "pitch": 65, "duration": 114, "velocity": 120}, {"time": 111602, "pitch": 67, "duration": 119, "velocity": 120}, {"time": 111602, "pitch": 72, "duration": 129, "velocity": 120}, {"time": 111842, "pitch": 41, "duration": 1917, "velocity": 90}, {"time": 111842, "pitch": 53, "duration": 263, "velocity": 90}, {"time": 112082, "pitch": 69, "duration": 198, "velocity": 98}, {"time": 112082, "pitch": 72, "duration": 205, "velocity": 102}, {"time": 112082, "pitch": 77, "duration": 211, "velocity": 84}, {"time": 112322, "pitch": 53, "duration": 109, "velocity": 82}, {"time": 112442, "pitch": 69, "duration": 149, "velocity": 92}, {"time": 112442, "pitch": 72, "duration": 154, "velocity": 100}, {"time": 112442, "pitch": 77, "duration": 174, "velocity": 84}, {"time": 112562, "pitch": 53, "duration": 256, "velocity": 84}, {"time": 112802, "pitch": 69, "duration": 248, "velocity": 94}, {"time": 112802, "pitch": 72, "duration": 267, "velocity": 98}, {"time": 112802, "pitch": 77, "duration": 262, "velocity": 84}, {"time": 113042, "pitch": 53, "duration": 129, "velocity": 82}, {"time": 113222, "pitch": 69, "duration": 191, "velocity": 94}, {"time": 113222, "pitch": 72, "duration": 201, "velocity": 98}, {"time": 113222, "pitch": 77, "duration": 203, "velocity": 84}, {"time": 113342, "pitch": 53, "duration": 414, "velocity": 92}, {"time": 113582, "pitch": 69, "duration": 285, "velocity": 94}, {"time": 113582, "pitch": 72, "duration": 308, "velocity": 96}, {"time": 113582, "pitch": 77, "duration": 275, "velocity": 82}, {"time": 113822, "pitch": 43, "duration": 1661, "velocity": 76}, {"time": 113822, "pitch": 55, "duration": 253, "velocity": 88}, {"time": 114002, "pitch": 70, "duration": 248, "velocity": 92}, {"time": 114002, "pitch": 72, "duration": 245, "velocity": 96}, {"time": 114002, "pitch": 77, "duration": 225, "velocity": 84}, {"time": 114242, "pitch": 55, "duration": 126, "velocity": 76}, {"time": 114362, "pitch": 70, "duration": 179, "velocity": 86}, {"time": 114362, "pitch": 72, "duration": 166, "velocity": 92}, {"time": 114362, "pitch": 77, "duration": 173, "velocity": 84}, {"time": 114542, "pitch": 55, "duration": 245, "velocity": 82}, {"time": 114722, "pitch": 70, "duration": 271, "velocity": 88}, {"time": 114722, "pitch": 72, "duration": 266, "velocity": 92}, {"time": 114722, "pitch": 77, "duration": 253, "velocity": 82}, {"time": 114902, "pitch": 55, "duration": 176, "velocity": 78}, {"time": 115082, "pitch": 70, "duration": 218, "velocity": 82}, {"time": 115082, "pitch": 72, "duration": 196, "velocity": 92}, {"time": 115082, "pitch": 77, "duration": 209, "velocity": 84}, {"time": 115262, "pitch": 55, "duration": 191, "velocity": 82}, {"time": 115442, "pitch": 70, "duration": 285, "velocity": 82}, {"time": 115442, "pitch": 72, "duration": 272, "velocity": 90}, {"time": 115442, "pitch": 77, "duration": 300, "velocity": 78}, {"time": 115682, "pitch": 46, "duration": 1908, "velocity": 62}, {"time": 115682, "pitch": 58, "duration": 300, "velocity": 76}, {"time": 115922, "pitch": 72, "duration": 250, "velocity": 90}, {"time": 115922, "pitch": 77, "duration": 258, "velocity": 90}, {"time": 115922, "pitch": 81, "duration": 251, "velocity": 82}, {"time": 116102, "pitch": 58, "duration": 122, "velocity": 60}, {"time": 116282, "pitch": 72, "duration": 171, "velocity": 90}, {"time": 116282, "pitch": 77, "duration": 176, "velocity": 90}, {"time": 116282, "pitch": 81, "duration": 183, "velocity": 88}, {"time": 116402, "pitch": 58, "duration": 223, "velocity": 78}, {"time": 116642, "pitch": 72, "duration": 268, "velocity": 90}, {"time": 116642, "pitch": 77, "duration": 278, "velocity": 92}, {"time": 116642, "pitch": 81, "duration": 273, "velocity": 82}, {"time": 116882, "pitch": 58, "duration": 134, "velocity": 74}, {"time": 117002, "pitch": 72, "duration": 186, "velocity": 88}, {"time": 117002, "pitch": 77, "duration": 186, "velocity": 90}, {"time": 117002, "pitch": 81, "duration": 186, "velocity": 84}, {"time": 117122, "pitch": 58, "duration": 124, "velocity": 66}, {"time": 117362, "pitch": 72, "duration": 335, "velocity": 94}, {"time": 117362, "pitch": 77, "duration": 357, "velocity": 86}, {"time": 117362, "pitch": 81, "duration": 320, "velocity": 84}, {"time": 117422, "pitch": 58, "duration": 151, "velocity": 60}, {"time": 117662, "pitch": 48, "duration": 1840, "velocity": 64}, {"time": 117662, "pitch": 60, "duration": 258, "velocity": 78}, {"time": 117902, "pitch": 72, "duration": 209, "velocity": 92}, {"time": 117902, "pitch": 76, "duration": 214, "velocity": 98}, {"time": 117902, "pitch": 79, "duration": 219, "velocity": 88}, {"time": 118082, "pitch": 60, "duration": 111, "velocity": 62}, {"time": 118202, "pitch": 72, "duration": 161, "velocity": 88}, {"time": 118202, "pitch": 76, "duration": 163, "velocity": 94}, {"time": 118202, "pitch": 79, "duration": 184, "velocity": 84}, {"time": 118322, "pitch": 60, "duration": 263, "velocity": 70}, {"time": 118562, "pitch": 72, "duration": 283, "velocity": 86}, {"time": 118562, "pitch": 76, "duration": 283, "velocity": 88}, {"time": 118562, "pitch": 79, "duration": 290, "velocity": 84}, {"time": 118802, "pitch": 60, "duration": 152, "velocity": 64}, {"time": 118922, "pitch": 72, "duration": 173, "velocity": 88}, {"time": 118922, "pitch": 76, "duration": 178, "velocity": 92}, {"time": 118922, "pitch": 79, "duration": 191, "velocity": 84}, {"time": 119102, "pitch": 60, "duration": 181, "velocity": 64}, {"time": 119282, "pitch": 72, "duration": 195, "velocity": 84}, {"time": 119282, "pitch": 76, "duration": 190, "velocity": 88}, {"time": 119282, "pitch": 79, "duration": 196, "velocity": 84}, {"time": 119522, "pitch": 41, "duration": 1917, "velocity": 90}, {"time": 119522, "pitch": 53, "duration": 263, "velocity": 90}, {"time": 119762, "pitch": 69, "duration": 198, "velocity": 98}, {"time": 119762, "pitch": 72, "duration": 205, "velocity": 102}, {"time": 119762, "pitch": 77, "duration": 211, "velocity": 84}, {"time": 120002, "pitch": 53, "duration": 109, "velocity": 82}, {"time": 120122, "pitch": 69, "duration": 149, "velocity": 92}, {"time": 120122, "pitch": 72, "duration": 154, "velocity": 100}, {"time": 120122, "pitch": 77, "duration": 174, "velocity": 84}, {"time": 120242, "pitch": 53, "duration": 256, "velocity": 84}, {"time": 120482, "pitch": 69, "duration": 248, "velocity": 94}, {"time": 120482, "pitch": 72, "duration": 267, "velocity": 98}, {"time": 120482, "pitch": 77, "duration": 262, "velocity": 84}, {"time": 120722, "pitch": 53, "duration": 129, "velocity": 82}, {"time": 120902, "pitch": 69, "duration": 191, "velocity": 94}, {"time": 120902, "pitch": 72, "duration": 201, "velocity": 98}, {"time": 120902, "pitch": 77, "duration": 203, "velocity": 84}, {"time": 121022, "pitch": 53, "duration": 414, "velocity": 92}, {"time": 121262, "pitch": 69, "duration": 285, "velocity": 94}, {"time": 121262, "pitch": 72, "duration": 308, "velocity": 96}, {"time": 121262, "pitch": 77, "duration": 275, "velocity": 82}, {"time": 121502, "pitch": 43, "duration": 1661, "velocity": 76}, {"time": 121502, "pitch": 55, "duration": 253, "velocity": 88}, {"time": 121682, "pitch": 70, "duration": 248, "velocity": 92}, {"time": 121682, "pitch": 72, "duration": 245, "velocity": 96}, {"time": 121682, "pitch": 77, "duration": 225, "velocity": 84}, {"time": 121922, "pitch": 55, "duration": 126, "velocity": 76}, {"time": 122042, "pitch": 70, "duration": 179, "velocity": 86}, {"time": 122042, "pitch": 72, "duration": 166, "velocity": 92}, {"time": 122042, "pitch": 77, "duration": 173, "velocity": 84}, {"time": 122222, "pitch": 55, "duration": 245, "velocity": 82}, {"time": 122402, "pitch": 70, "duration": 271, "velocity": 88}, {"time": 122402, "pitch": 72, "duration": 266, "velocity": 92}, {"time": 122402, "pitch": 77, "duration": 253, "velocity": 82}, {"time": 122582, "pitch": 55, "duration": 176, "velocity": 78}, {"time": 122762, "pitch": 70, "duration": 218, "velocity": 82}, {"time": 122762, "pitch": 72, "duration": 196, "velocity": 92}, {"time": 122762, "pitch": 77, "duration": 209, "velocity": 84}, {"time": 122942, "pitch": 55, "duration": 191, "velocity": 82}, {"time": 123122, "pitch": 70, "duration": 285, "velocity": 82}, {"time": 123122, "pitch": 72, "duration": 272, "velocity": 90}, {"time": 123122, "pitch": 77, "duration": 300, "velocity": 78}, {"time": 123362, "pitch": 46, "duration": 1908, "velocity": 62}, {"time": 123362, "pitch": 58, "duration": 300, "velocity": 76}, {"time": 123602, "pitch": 72, "duration": 250, "velocity": 90}, {"time": 123602, "pitch": 77, "duration": 258, "velocity": 90}, {"time": 123602, "pitch": 81, "duration": 251, "velocity": 82}, {"time": 123782, "pitch": 58, "duration": 122, "velocity": 60}, {"time": 123962, "pitch": 72, "duration": 171, "velocity": 90}, {"time": 123962, "pitch": 77, "duration": 176, "velocity": 90}, {"time": 123962, "pitch": 81, "duration": 183, "velocity": 88}, {"time": 124082, "pitch": 58, "duration": 223, "velocity": 78}, {"time": 124322, "pitch": 72, "duration": 268, "velocity": 90}, {"time": 124322, "pitch": 77, "duration": 278, "velocity": 92}, {"time": 124322, "pitch": 81, "duration": 273, "velocity": 82}, {"time": 124562, "pitch": 58, "duration": 134, "velocity": 74}, {"time": 124682, "pitch": 72, "duration": 186, "velocity": 88}, {"time": 124682, "pitch": 77, "duration": 186, "velocity": 90}, {"time": 124682, "pitch": 81, "duration": 186, "velocity": 84}, {"time": 124802, "pitch": 58, "duration": 124, "velocity": 66}, {"time": 125042, "pitch": 72, "duration": 335, "velocity": 94}, {"time": 125042, "pitch": 77, "duration": 357, "velocity": 86}, {"time": 125042, "pitch": 81, "duration": 320, "velocity": 84}, {"time": 125102, "pitch": 58, "duration": 151, "velocity": 60}, {"time": 125342, "pitch": 48, "duration": 1840, "velocity": 64}, {"time": 125342, "pitch": 60, "duration": 258, "velocity": 78}, {"time": 125582, "pitch": 72, "duration": 209, "velocity": 92}, {"time": 125582, "pitch": 76, "duration": 214, "velocity": 98}, {"time": 125582, "pitch": 79, "duration": 219, "velocity": 88}, {"time": 125762, "pitch": 60, "duration": 111, "velocity": 62}, {"time": 125882, "pitch": 72, "duration": 161, "velocity": 88}, {"time": 125882, "pitch": 76, "duration": 163, "velocity": 94}, {"time": 125882, "pitch": 79, "duration": 184, "velocity": 84}, {"time": 126002, "pitch": 60, "duration": 263, "velocity": 70}, {"time": 126242, "pitch": 72, "duration": 283, "velocity": 86}, {"time": 126242, "pitch": 76, "duration": 283, "velocity": 88}, {"time": 126242, "pitch": 79, "duration": 290, "velocity": 84}, {"time": 126482, "pitch": 60, "duration": 152, "velocity": 64}, {"time": 126602, "pitch": 72, "duration": 173, "velocity": 88}, {"time": 126602, "pitch": 76, "duration": 178, "velocity": 92}, {"time": 126602, "pitch": 79, "duration": 191, "velocity": 84}, {"time": 126782, "pitch": 60, "duration": 181, "velocity": 64}, {"time": 126962, "pitch": 72, "duration": 195, "velocity": 84}, {"time": 126962, "pitch": 76, "duration": 190, "velocity": 88}, {"time": 126962, "pitch": 79, "duration": 196, "velocity": 84}, {"time": 134882, "pitch": 60, "duration": 240, "velocity": 120}, {"time": 134882, "pitch": 62, "duration": 254, "velocity": 120}, {"time": 134882, "pitch": 65, "duration": 256, "velocity": 120}, {"time": 134882, "pitch": 69, "duration": 228, "velocity": 120}, {"time": 135122, "pitch": 50, "duration": 99, "velocity": 120}, {"time": 135242, "pitch": 60, "duration": 99, "velocity": 120}, {"time": 135242, "pitch": 62, "duration": 86, "velocity": 120}, {"time": 135242, "pitch": 65, "duration": 84, "velocity": 120}, {"time": 135242, "pitch": 69, "duration": 127, "velocity": 120}, {"time": 135362, "pitch": 50, "duration": 74, "velocity": 120}, {"time": 135602, "pitch": 60, "duration": 98, "velocity": 120}, {"time": 135602, "pitch": 62, "duration": 91, "velocity": 120}, {"time": 135602, "pitch": 65, "duration": 79, "velocity": 120}, {"time": 135602, "pitch": 69, "duration": 111, "velocity": 120}, {"time": 135842, "pitch": 50, "duration": 82, "velocity": 120}, {"time": 135962, "pitch": 60, "duration": 87, "velocity": 120}, {"time": 135962, "pitch": 62, "duration": 84, "velocity": 120}, {"time": 135962, "pitch": 65, "duration": 81, "velocity": 120}, {"time": 135962, "pitch": 69, "duration": 113, "velocity": 120}, {"time": 136082, "pitch": 50, "duration": 91, "velocity": 120}, {"time": 136322, "pitch": 60, "duration": 98, "velocity": 120}, {"time": 136322, "pitch": 62, "duration": 87, "velocity": 120}, {"time": 136322, "pitch": 65, "duration": 92, "velocity": 120}, {"time": 136322, "pitch": 69, "duration": 112, "velocity": 120}, {"time": 136562, "pitch": 50, "duration": 113, "velocity": 120}, {"time": 136802, "pitch": 60, "duration": 288, "velocity": 120}, {"time": 136802, "pitch": 62, "duration": 284, "velocity": 120}, {"time": 136802, "pitch": 65, "duration": 291, "velocity": 120}, {"time": 136802, "pitch": 69, "duration": 285, "velocity": 120}, {"time": 137042, "pitch": 50, "duration": 96, "velocity": 120}, {"time": 137162, "pitch": 60, "duration": 93, "velocity": 120}, {"time": 137162, "pitch": 62, "duration": 101, "velocity": 120}, {"time": 137162, "pitch": 65, "duration": 91, "velocity": 120}, {"time": 137162, "pitch": 69, "duration": 98, "velocity": 120}, {"time": 137282, "pitch": 50, "duration": 108, "velocity": 120}, {"time": 137522, "pitch": 60, "duration": 91, "velocity": 120}, {"time": 137522, "pitch": 62, "duration": 111, "velocity": 120}, {"time": 137522, "pitch": 65, "duration": 106, "velocity": 120}, {"time": 137522, "pitch": 69, "duration": 127, "velocity": 120}, {"time": 137762, "pitch": 50, "duration": 93, "velocity": 120}, {"time": 137882, "pitch": 60, "duration": 101, "velocity": 120}, {"time": 137882, "pitch": 62, "duration": 101, "velocity": 120}, {"time": 137882, "pitch": 65, "duration": 96, "velocity": 120}, {"time": 137882, "pitch": 69, "duration": 120, "velocity": 120}, {"time": 138002, "pitch": 50, "duration": 113, "velocity": 120}, {"time": 138242, "pitch": 60, "duration": 132, "velocity": 120}, {"time": 138242, "pitch": 62, "duration": 118, "velocity": 120}, {"time": 138242, "pitch": 65, "duration": 105, "velocity": 120}, {"time": 138242, "pitch": 69, "duration": 103, "velocity": 120}, {"time": 138482, "pitch": 50, "duration": 120, "velocity": 120}, {"time": 138722, "pitch": 58, "duration": 269, "velocity": 120}, {"time": 138722, "pitch": 60, "duration": 267, "velocity": 120}, {"time": 138722, "pitch": 62, "duration": 257, "velocity": 120}, {"time": 138722, "pitch": 65, "duration": 255, "velocity": 120}, {"time": 138962, "pitch": 46, "duration": 84, "velocity": 120}, {"time": 139082, "pitch": 58, "duration": 117, "velocity": 120}, {"time": 139082, "pitch": 60, "duration": 81, "velocity": 120}, {"time": 139082, "pitch": 62, "duration": 62, "velocity": 120}, {"time": 139082, "pitch": 65, "duration": 84, "velocity": 120}, {"time": 139202, "pitch": 46, "duration": 75, "velocity": 120}, {"time": 139442, "pitch": 58, "duration": 127, "velocity": 120}, {"time": 139442, "pitch": 60, "duration": 86, "velocity": 120}, {"time": 139442, "pitch": 61, "duration": 32, "velocity": 120}, {"time": 139442, "pitch": 62, "duration": 96, "velocity": 120}, {"time": 139442, "pitch": 65, "duration": 120, "velocity": 120}, {"time": 139682, "pitch": 46, "duration": 96, "velocity": 120}, {"time": 139802, "pitch": 58, "duration": 110, "velocity": 120}, {"time": 139802, "pitch": 60, "duration": 84, "velocity": 120}, {"time": 139802, "pitch": 62, "duration": 82, "velocity": 120}, {"time": 139802, "pitch": 65, "duration": 91, "velocity": 120}, {"time": 139922, "pitch": 46, "duration": 79, "velocity": 120}, {"time": 140162, "pitch": 58, "duration": 134, "velocity": 120}, {"time": 140162, "pitch": 60, "duration": 94, "velocity": 120}, {"time": 140162, "pitch": 62, "duration": 96, "velocity": 120}, {"time": 140162, "pitch": 65, "duration": 108, "velocity": 120}, {"time": 140402, "pitch": 46, "duration": 118, "velocity": 120}, {"time": 140642, "pitch": 58, "duration": 274, "velocity": 120}, {"time": 140642, "pitch": 60, "duration": 243, "velocity": 120}, {"time": 140642, "pitch": 62, "duration": 245, "velocity": 120}, {"time": 140642, "pitch": 65, "duration": 235, "velocity": 120}, {"time": 140882, "pitch": 46, "duration": 96, "velocity": 120}, {"time": 141002, "pitch": 58, "duration": 151, "velocity": 120}, {"time": 141002, "pitch": 60, "duration": 132, "velocity": 120}, {"time": 141002, "pitch": 62, "duration": 125, "velocity": 120}, {"time": 141002, "pitch": 65, "duration": 125, "velocity": 120}, {"time": 141122, "pitch": 46, "duration": 89, "velocity": 120}, {"time": 141362, "pitch": 58, "duration": 129, "velocity": 120}, {"time": 141362, "pitch": 60, "duration": 96, "velocity": 120}, {"time": 141362, "pitch": 62, "duration": 77, "velocity": 120}, {"time": 141362, "pitch": 65, "duration": 110, "velocity": 120}, {"time": 141602, "pitch": 46, "duration": 108, "velocity": 120}, {"time": 141722, "pitch": 58, "duration": 144, "velocity": 120}, {"time": 141722, "pitch": 60, "duration": 132, "velocity": 120}, {"time": 141722, "pitch": 62, "duration": 130, "velocity": 120}, {"time": 141722, "pitch": 65, "duration": 134, "velocity": 120}, {"time": 141842, "pitch": 46, "duration": 123, "velocity": 120}, {"time": 142082, "pitch": 58, "duration": 141, "velocity": 120}, {"time": 142082, "pitch": 60, "duration": 122, "velocity": 120}, {"time": 142082, "pitch": 62, "duration": 134, "velocity": 120}, {"time": 142082, "pitch": 65, "duration": 156, "velocity": 120}, {"time": 142322, "pitch": 46, "duration": 146, "velocity": 120}, {"time": 142562, "pitch": 60, "duration": 245, "velocity": 120}, {"time": 142562, "pitch": 62, "duration": 257, "velocity": 120}, {"time": 142562, "pitch": 65, "duration": 252, "velocity": 120}, {"time": 142562, "pitch": 69, "duration": 226, "velocity": 120}, {"time": 142802, "pitch": 50, "duration": 94, "velocity": 120}, {"time": 142922, "pitch": 60, "duration": 101, "velocity": 120}, {"time": 142922, "pitch": 62, "duration": 124, "velocity": 120}, {"time": 142922, "pitch": 65, "duration": 104, "velocity": 120}, {"time": 142922, "pitch": 69, "duration": 132, "velocity": 120}, {"time": 143042, "pitch": 50, "duration": 84, "velocity": 120}, {"time": 143282, "pitch": 60, "duration": 87, "velocity": 120}, {"time": 143282, "pitch": 62, "duration": 82, "velocity": 120}, {"time": 143282, "pitch": 65, "duration": 82, "velocity": 120}, {"time": 143282, "pitch": 69, "duration": 106, "velocity": 120}, {"time": 143522, "pitch": 50, "duration": 75, "velocity": 120}, {"time": 143642, "pitch": 60, "duration": 89, "velocity": 120}, {"time": 143642, "pitch": 62, "duration": 89, "velocity": 120}, {"time": 143642, "pitch": 65, "duration": 79, "velocity": 120}, {"time": 143642, "pitch": 69, "duration": 93, "velocity": 120}, {"time": 143762, "pitch": 50, "duration": 96, "velocity": 120}, {"time": 144002, "pitch": 60, "duration": 94, "velocity": 120}, {"time": 144002, "pitch": 62, "duration": 89, "velocity": 120}, {"time": 144002, "pitch": 65, "duration": 82, "velocity": 120}, {"time": 144002, "pitch": 69, "duration": 91, "velocity": 120}, {"time": 144242, "pitch": 50, "duration": 96, "velocity": 120}, {"time": 144482, "pitch": 60, "duration": 269, "velocity": 120}, {"time": 144482, "pitch": 62, "duration": 279, "velocity": 120}, {"time": 144482, "pitch": 65, "duration": 286, "velocity": 120}, {"time": 144482, "pitch": 69, "duration": 264, "velocity": 120}, {"time": 144722, "pitch": 50, "duration": 79, "velocity": 120}, {"time": 144842, "pitch": 60, "duration": 94, "velocity": 120}, {"time": 144842, "pitch": 62, "duration": 101, "velocity": 120}, {"time": 144842, "pitch": 65, "duration": 91, "velocity": 120}, {"time": 144842, "pitch": 69, "duration": 124, "velocity": 120}, {"time": 144962, "pitch": 50, "duration": 89, "velocity": 120}, {"time": 145202, "pitch": 60, "duration": 94, "velocity": 120}, {"time": 145202, "pitch": 62, "duration": 82, "velocity": 120}, {"time": 145202, "pitch": 65, "duration": 94, "velocity": 120}, {"time": 145202, "pitch": 69, "duration": 103, "velocity": 120}, {"time": 145442, "pitch": 50, "duration": 99, "velocity": 120}, {"time": 145562, "pitch": 60, "duration": 105, "velocity": 120}, {"time": 145562, "pitch": 62, "duration": 99, "velocity": 120}, {"time": 145562, "pitch": 65, "duration": 96, "velocity": 120}, {"time": 145562, "pitch": 69, "duration": 112, "velocity": 120}, {"time": 145682, "pitch": 50, "duration": 104, "velocity": 120}, {"time": 145922, "pitch": 60, "duration": 134, "velocity": 120}, {"time": 145922, "pitch": 62, "duration": 113, "velocity": 120}, {"time": 145922, "pitch": 65, "duration": 118, "velocity": 120}, {"time": 145922, "pitch": 69, "duration": 125, "velocity": 120}, {"time": 146162, "pitch": 50, "duration": 120, "velocity": 120}, {"time": 146402, "pitch": 58, "duration": 271, "velocity": 120}, {"time": 146402, "pitch": 60, "duration": 254, "velocity": 120}, {"time": 146402, "pitch": 62, "duration": 245, "velocity": 120}, {"time": 146402, "pitch": 65, "duration": 257, "velocity": 120}, {"time": 146642, "pitch": 46, "duration": 91, "velocity": 120}, {"time": 146762, "pitch": 58, "duration": 105, "velocity": 120}, {"time": 146762, "pitch": 60, "duration": 86, "velocity": 120}, {"time": 146762, "pitch": 62, "duration": 84, "velocity": 120}, {"time": 146762, "pitch": 65, "duration": 91, "velocity": 120}, {"time": 146882, "pitch": 46, "duration": 67, "velocity": 120}, {"time": 147122, "pitch": 58, "duration": 141, "velocity": 120}, {"time": 147122, "pitch": 60, "duration": 130, "velocity": 120}, {"time": 147122, "pitch": 62, "duration": 84, "velocity": 120}, {"time": 147122, "pitch": 65, "duration": 93, "velocity": 120}, {"time": 147362, "pitch": 46, "duration": 103, "velocity": 120}, {"time": 147482, "pitch": 58, "duration": 171, "velocity": 120}, {"time": 147482, "pitch": 60, "duration": 86, "velocity": 120}, {"time": 147482, "pitch": 62, "duration": 103, "velocity": 120}, {"time": 147482, "pitch": 65, "duration": 110, "velocity": 120}, {"time": 147602, "pitch": 46, "duration": 94, "velocity": 120}, {"time": 147842, "pitch": 58, "duration": 163, "velocity": 120}, {"time": 147842, "pitch": 60, "duration": 139, "velocity": 120}, {"time": 147842, "pitch": 62, "duration": 120, "velocity": 120}, {"time": 147842, "pitch": 65, "duration": 139, "velocity": 120}, {"time": 148082, "pitch": 46, "duration": 116, "velocity": 120}, {"time": 148322, "pitch": 58, "duration": 254, "velocity": 120}, {"time": 148322, "pitch": 60, "duration": 249, "velocity": 120}, {"time": 148322, "pitch": 62, "duration": 240, "velocity": 120}, {"time": 148322, "pitch": 65, "duration": 228, "velocity": 120}, {"time": 148562, "pitch": 46, "duration": 101, "velocity": 120}, {"time": 148682, "pitch": 58, "duration": 141, "velocity": 120}, {"time": 148682, "pitch": 60, "duration": 113, "velocity": 120}, {"time": 148682, "pitch": 62, "duration": 111, "velocity": 120}, {"time": 148682, "pitch": 65, "duration": 113, "velocity": 120}, {"time": 148802, "pitch": 46, "duration": 98, "velocity": 120}, {"time": 149042, "pitch": 58, "duration": 151, "velocity": 120}, {"time": 149042, "pitch": 60, "duration": 113, "velocity": 120}, {"time": 149042, "pitch": 62, "duration": 113, "velocity": 120}, {"time": 149042, "pitch": 65, "duration": 122, "velocity": 120}, {"time": 149282, "pitch": 46, "duration": 108, "velocity": 120}, {"time": 149402, "pitch": 58, "duration": 151, "velocity": 120}, {"time": 149402, "pitch": 60, "duration": 135, "velocity": 120}, {"time": 149402, "pitch": 62, "duration": 130, "velocity": 120}, {"time": 149402, "pitch": 65, "duration": 135, "velocity": 120}, {"time": 149522, "pitch": 46, "duration": 132, "velocity": 120}, {"time": 149762, "pitch": 58, "duration": 177, "velocity": 120}, {"time": 149762, "pitch": 60, "duration": 149, "velocity": 120}, {"time": 149762, "pitch": 62, "duration": 149, "velocity": 120}, {"time": 149762, "pitch": 65, "duration": 165, "velocity": 120}, {"time": 150002, "pitch": 46, "duration": 132, "velocity": 120}, {"time": 150242, "pitch": 60, "duration": 293, "velocity": 120}, {"time": 150242, "pitch": 64, "duration": 288, "velocity": 120}, {"time": 150242, "pitch": 67, "duration": 298, "velocity": 120}, {"time": 150482, "pitch": 48, "duration": 89, "velocity": 120}, {"time": 150602, "pitch": 60, "duration": 115, "velocity": 120}, {"time": 150602, "pitch": 64, "duration": 110, "velocity": 120}, {"time": 150602, "pitch": 67, "duration": 134, "velocity": 120}, {"time": 150842, "pitch": 48, "duration": 63, "velocity": 120}, {"time": 150962, "pitch": 60, "duration": 96, "velocity": 120}, {"time": 150962, "pitch": 64, "duration": 99, "velocity": 120}, {"time": 150962, "pitch": 67, "duration": 103, "velocity": 120}, {"time": 151202, "pitch": 48, "duration": 84, "velocity": 120}, {"time": 151322, "pitch": 60, "duration": 99, "velocity": 120}, {"time": 151322, "pitch": 64, "duration": 91, "velocity": 120}, {"time": 151322, "pitch": 67, "duration": 113, "velocity": 120}, {"time": 151442, "pitch": 48, "duration": 86, "velocity": 120}, {"time": 151682, "pitch": 60, "duration": 91, "velocity": 120}, {"time": 151682, "pitch": 64, "duration": 94, "velocity": 120}, {"time": 151682, "pitch": 67, "duration": 115, "velocity": 120}, {"time": 151922, "pitch": 48, "duration": 96, "velocity": 120}, {"time": 152162, "pitch": 60, "duration": 214, "velocity": 120}, {"time": 152162, "pitch": 64, "duration": 218, "velocity": 120}, {"time": 152162, "pitch": 67, "duration": 225, "velocity": 120}, {"time": 152402, "pitch": 48, "duration": 84, "velocity": 120}, {"time": 152522, "pitch": 60, "duration": 132, "velocity": 120}, {"time": 152522, "pitch": 64, "duration": 134, "velocity": 120}, {"time": 152522, "pitch": 67, "duration": 144, "velocity": 120}, {"time": 152642, "pitch": 48, "duration": 103, "velocity": 120}, {"time": 152882, "pitch": 60, "duration": 147, "velocity": 120}, {"time": 152882, "pitch": 64, "duration": 147, "velocity": 120}, {"time": 152882, "pitch": 67, "duration": 161, "velocity": 120}, {"time": 153122, "pitch": 48, "duration": 96, "velocity": 120}, {"time": 153242, "pitch": 60, "duration": 154, "velocity": 120}, {"time": 153242, "pitch": 64, "duration": 156, "velocity": 120}, {"time": 153242, "pitch": 67, "duration": 166, "velocity": 120}, {"time": 153362, "pitch": 48, "duration": 110, "velocity": 120}, {"time": 153602, "pitch": 60, "duration": 257, "velocity": 120}, {"time": 153602, "pitch": 64, "duration": 238, "velocity": 120}, {"time": 153602, "pitch": 67, "duration": 262, "velocity": 120}, {"time": 153842, "pitch": 48, "duration": 128, "velocity": 120}, {"time": 154082, "pitch": 58, "duration": 257, "velocity": 120}, {"time": 154082, "pitch": 60, "duration": 250, "velocity": 120}, {"time": 154082, "pitch": 62, "duration": 252, "velocity": 120}, {"time": 154082, "pitch": 65, "duration": 250, "velocity": 120}, {"time": 154322, "pitch": 46, "duration": 103, "velocity": 120}, {"time": 154442, "pitch": 58, "duration": 144, "velocity": 120}, {"time": 154442, "pitch": 60, "duration": 132, "velocity": 120}, {"time": 154442, "pitch": 62, "duration": 125, "velocity": 120}, {"time": 154442, "pitch": 65, "duration": 125, "velocity": 120}, {"time": 154562, "pitch": 46, "duration": 89, "velocity": 120}, {"time": 154802, "pitch": 58, "duration": 151, "velocity": 120}, {"time": 154802, "pitch": 60, "duration": 127, "velocity": 120}, {"time": 154802, "pitch": 62, "duration": 132, "velocity": 120}, {"time": 154802, "pitch": 65, "duration": 130, "velocity": 120}, {"time": 155042, "pitch": 46, "duration": 108, "velocity": 120}, {"time": 155162, "pitch": 58, "duration": 146, "velocity": 120}, {"time": 155162, "pitch": 60, "duration": 113, "velocity": 120}, {"time": 155162, "pitch": 62, "duration": 113, "velocity": 120}, {"time": 155162, "pitch": 65, "duration": 135, "velocity": 120}, {"time": 155282, "pitch": 46, "duration": 113, "velocity": 120}, {"time": 155522, "pitch": 58, "duration": 132, "velocity": 120}, {"time": 155522, "pitch": 60, "duration": 117, "velocity": 120}, {"time": 155522, "pitch": 62, "duration": 96, "velocity": 120}, {"time": 155522, "pitch": 65, "duration": 153, "velocity": 120}, {"time": 155762, "pitch": 46, "duration": 129, "velocity": 120}, {"time": 156002, "pitch": 58, "duration": 261, "velocity": 120}, {"time": 156002, "pitch": 60, "duration": 257, "velocity": 120}, {"time": 156002, "pitch": 62, "duration": 247, "velocity": 120}, {"time": 156002, "pitch": 65, "duration": 245, "velocity": 120}, {"time": 156242, "pitch": 46, "duration": 91, "velocity": 120}, {"time": 156362, "pitch": 58, "duration": 154, "velocity": 120}, {"time": 156362, "pitch": 60, "duration": 144, "velocity": 120}, {"time": 156362, "pitch": 62, "duration": 132, "velocity": 120}, {"time": 156362, "pitch": 65, "duration": 151, "velocity": 120}, {"time": 156482, "pitch": 46, "duration": 91, "velocity": 120}, {"time": 156722, "pitch": 58, "duration": 137, "velocity": 120}, {"time": 156722, "pitch": 60, "duration": 100, "velocity": 120}, {"time": 156722, "pitch": 62, "duration": 100, "velocity": 120}, {"time": 156722, "pitch": 65, "duration": 132, "velocity": 120}, {"time": 156962, "pitch": 46, "duration": 101, "velocity": 120}, {"time": 157082, "pitch": 58, "duration": 151, "velocity": 120}, {"time": 157082, "pitch": 60, "duration": 129, "velocity": 120}, {"time": 157082, "pitch": 62, "duration": 125, "velocity": 120}, {"time": 157082, "pitch": 65, "duration": 134, "velocity": 120}, {"time": 157202, "pitch": 46, "duration": 108, "velocity": 120}, {"time": 157442, "pitch": 58, "duration": 209, "velocity": 120}, {"time": 157442, "pitch": 60, "duration": 180, "velocity": 120}, {"time": 157442, "pitch": 62, "duration": 194, "velocity": 120}, {"time": 157442, "pitch": 65, "duration": 204, "velocity": 120}, {"time": 157682, "pitch": 46, "duration": 151, "velocity": 120}, {"time": 157922, "pitch": 60, "duration": 250, "velocity": 120}, {"time": 157922, "pitch": 64, "duration": 254, "velocity": 120}, {"time": 157922, "pitch": 67, "duration": 257, "velocity": 120}, {"time": 158162, "pitch": 48, "duration": 94, "velocity": 120}, {"time": 158282, "pitch": 60, "duration": 108, "velocity": 120}, {"time": 158282, "pitch": 64, "duration": 79, "velocity": 120}, {"time": 158282, "pitch": 67, "duration": 105, "velocity": 120}, {"time": 158402, "pitch": 48, "duration": 72, "velocity": 120}, {"time": 158642, "pitch": 60, "duration": 103, "velocity": 120}, {"time": 158642, "pitch": 64, "duration": 87, "velocity": 120}, {"time": 158642, "pitch": 67, "duration": 117, "velocity": 120}, {"time": 158882, "pitch": 48, "duration": 81, "velocity": 120}, {"time": 159002, "pitch": 60, "duration": 113, "velocity": 120}, {"time": 159002, "pitch": 64, "duration": 101, "velocity": 120}, {"time": 159002, "pitch": 67, "duration": 120, "velocity": 120}, {"time": 159122, "pitch": 48, "duration": 69, "velocity": 120}, {"time": 159362, "pitch": 60, "duration": 115, "velocity": 120}, {"time": 159362, "pitch": 64, "duration": 101, "velocity": 120}, {"time": 159362, "pitch": 67, "duration": 108, "velocity": 120}, {"time": 159602, "pitch": 48, "duration": 96, "velocity": 120}, {"time": 159842, "pitch": 60, "duration": 314, "velocity": 120}, {"time": 159842, "pitch": 64, "duration": 303, "velocity": 120}, {"time": 159842, "pitch": 67, "duration": 315, "velocity": 120}, {"time": 160082, "pitch": 48, "duration": 87, "velocity": 120}, {"time": 160202, "pitch": 60, "duration": 110, "velocity": 120}, {"time": 160202, "pitch": 64, "duration": 104, "velocity": 120}, {"time": 160202, "pitch": 67, "duration": 92, "velocity": 120}, {"time": 160322, "pitch": 48, "duration": 89, "velocity": 120}, {"time": 160562, "pitch": 60, "duration": 106, "velocity": 120}, {"time": 160562, "pitch": 64, "duration": 106, "velocity": 120}, {"time": 160562, "pitch": 67, "duration": 108, "velocity": 120}, {"time": 160802, "pitch": 48, "duration": 80, "velocity": 120}, {"time": 160922, "pitch": 60, "duration": 113, "velocity": 120}, {"time": 160922, "pitch": 64, "duration": 108, "velocity": 120}, {"time": 160922, "pitch": 67, "duration": 116, "velocity": 120}, {"time": 161042, "pitch": 48, "duration": 101, "velocity": 120}, {"time": 161282, "pitch": 60, "duration": 168, "velocity": 120}, {"time": 161282, "pitch": 64, "duration": 144, "velocity": 120}, {"time": 161282, "pitch": 67, "duration": 149, "velocity": 120}, {"time": 161522, "pitch": 48, "duration": 111, "velocity": 120}, {"time": 161762, "pitch": 58, "duration": 245, "velocity": 120}, {"time": 161762, "pitch": 60, "duration": 233, "velocity": 120}, {"time": 161762, "pitch": 62, "duration": 233, "velocity": 120}, {"time": 161762, "pitch": 65, "duration": 224, "velocity": 120}, {"time": 162002, "pitch": 46, "duration": 86, "velocity": 120}, {"time": 162122, "pitch": 58, "duration": 135, "velocity": 120}, {"time": 162122, "pitch": 60, "duration": 96, "velocity": 120}, {"time": 162122, "pitch": 62, "duration": 96, "velocity": 120}, {"time": 162122, "pitch": 65, "duration": 137, "velocity": 120}, {"time": 162242, "pitch": 46, "duration": 58, "velocity": 120}, {"time": 162482, "pitch": 58, "duration": 151, "velocity": 120}, {"time": 162482, "pitch": 60, "duration": 118, "velocity": 120}, {"time": 162482, "pitch": 62, "duration": 113, "velocity": 120}, {"time": 162482, "pitch": 65, "duration": 151, "velocity": 120}, {"time": 162722, "pitch": 46, "duration": 91, "velocity": 120}, {"time": 162842, "pitch": 58, "duration": 147, "velocity": 120}, {"time": 162842, "pitch": 60, "duration": 108, "velocity": 120}, {"time": 162842, "pitch": 62, "duration": 130, "velocity": 120}, {"time": 162842, "pitch": 65, "duration": 142, "velocity": 120}, {"time": 162962, "pitch": 46, "duration": 108, "velocity": 120}, {"time": 163202, "pitch": 58, "duration": 268, "velocity": 120}, {"time": 163202, "pitch": 60, "duration": 230, "velocity": 120}, {"time": 163202, "pitch": 62, "duration": 240, "velocity": 120}, {"time": 163202, "pitch": 65, "duration": 290, "velocity": 120}, {"time": 163442, "pitch": 46, "duration": 91, "velocity": 120}, {"time": 163562, "pitch": 47, "duration": 55, "velocity": 120}, {"time": 163682, "pitch": 60, "duration": 238, "velocity": 120}, {"time": 163682, "pitch": 64, "duration": 242, "velocity": 120}, {"time": 163682, "pitch": 67, "duration": 247, "velocity": 120}, {"time": 163802, "pitch": 48, "duration": 108, "velocity": 120}, {"time": 164042, "pitch": 48, "duration": 86, "velocity": 120}, {"time": 164042, "pitch": 60, "duration": 136, "velocity": 120}, {"time": 164042, "pitch": 64, "duration": 136, "velocity": 120}, {"time": 164042, "pitch": 67, "duration": 154, "velocity": 120}, {"time": 164162, "pitch": 48, "duration": 108, "velocity": 120}, {"time": 164402, "pitch": 60, "duration": 264, "velocity": 120}, {"time": 164402, "pitch": 64, "duration": 262, "velocity": 120}, {"time": 164402, "pitch": 67, "duration": 279, "velocity": 120}, {"time": 164642, "pitch": 48, "duration": 88, "velocity": 120}, {"time": 164762, "pitch": 60, "duration": 120, "velocity": 120}, {"time": 164762, "pitch": 64, "duration": 122, "velocity": 120}, {"time": 164762, "pitch": 67, "duration": 139, "velocity": 120}, {"time": 164882, "pitch": 48, "duration": 190, "velocity": 120}, {"time": 165122, "pitch": 60, "duration": 338, "velocity": 120}, {"time": 165122, "pitch": 64, "duration": 338, "velocity": 120}, {"time": 165122, "pitch": 67, "duration": 350, "velocity": 120}, {"time": 165362, "pitch": 48, "duration": 94, "velocity": 120}, {"time": 165602, "pitch": 43, "duration": 1813, "velocity": 120}, {"time": 165602, "pitch": 55, "duration": 159, "velocity": 120}, {"time": 165602, "pitch": 58, "duration": 318, "velocity": 120}, {"time": 165602, "pitch": 60, "duration": 320, "velocity": 120}, {"time": 165602, "pitch": 65, "duration": 298, "velocity": 120}, {"time": 165842, "pitch": 55, "duration": 121, "velocity": 120}, {"time": 165962, "pitch": 58, "duration": 171, "velocity": 120}, {"time": 165962, "pitch": 60, "duration": 143, "velocity": 120}, {"time": 165962, "pitch": 65, "duration": 153, "velocity": 120}, {"time": 166082, "pitch": 55, "duration": 295, "velocity": 120}, {"time": 166322, "pitch": 58, "duration": 243, "velocity": 120}, {"time": 166322, "pitch": 60, "duration": 240, "velocity": 120}, {"time": 166322, "pitch": 65, "duration": 230, "velocity": 120}, {"time": 166562, "pitch": 55, "duration": 111, "velocity": 120}, {"time": 166682, "pitch": 58, "duration": 171, "velocity": 120}, {"time": 166682, "pitch": 60, "duration": 154, "velocity": 120}, {"time": 166682, "pitch": 65, "duration": 149, "velocity": 120}, {"time": 166802, "pitch": 55, "duration": 223, "velocity": 120}, {"time": 167042, "pitch": 58, "duration": 278, "velocity": 120}, {"time": 167042, "pitch": 60, "duration": 238, "velocity": 120}, {"time": 167042, "pitch": 65, "duration": 256, "velocity": 120}, {"time": 167282, "pitch": 55, "duration": 104, "velocity": 120}, {"time": 167522, "pitch": 45, "duration": 1808, "velocity": 120}, {"time": 167522, "pitch": 57, "duration": 106, "velocity": 120}, {"time": 167522, "pitch": 60, "duration": 283, "velocity": 120}, {"time": 167522, "pitch": 62, "duration": 280, "velocity": 120}, {"time": 167522, "pitch": 67, "duration": 265, "velocity": 120}, {"time": 167762, "pitch": 57, "duration": 107, "velocity": 120}, {"time": 167882, "pitch": 60, "duration": 112, "velocity": 120}, {"time": 167882, "pitch": 62, "duration": 92, "velocity": 120}, {"time": 167882, "pitch": 67, "duration": 129, "velocity": 120}, {"time": 168002, "pitch": 57, "duration": 181, "velocity": 120}, {"time": 168242, "pitch": 60, "duration": 241, "velocity": 120}, {"time": 168242, "pitch": 62, "duration": 255, "velocity": 120}, {"time": 168242, "pitch": 67, "duration": 255, "velocity": 120}, {"time": 168482, "pitch": 57, "duration": 114, "velocity": 120}, {"time": 168602, "pitch": 60, "duration": 161, "velocity": 120}, {"time": 168602, "pitch": 62, "duration": 171, "velocity": 120}, {"time": 168602, "pitch": 67, "duration": 173, "velocity": 120}, {"time": 168722, "pitch": 57, "duration": 183, "velocity": 120}, {"time": 168962, "pitch": 60, "duration": 298, "velocity": 120}, {"time": 168962, "pitch": 62, "duration": 308, "velocity": 120}, {"time": 168962, "pitch": 67, "duration": 327, "velocity": 120}, {"time": 169202, "pitch": 57, "duration": 80, "velocity": 120}, {"time": 169442, "pitch": 46, "duration": 1741, "velocity": 120}, {"time": 169442, "pitch": 58, "duration": 159, "velocity": 120}, {"time": 169442, "pitch": 62, "duration": 287, "velocity": 120}, {"time": 169442, "pitch": 64, "duration": 282, "velocity": 120}, {"time": 169442, "pitch": 69, "duration": 278, "velocity": 120}, {"time": 169682, "pitch": 58, "duration": 112, "velocity": 120}, {"time": 169802, "pitch": 62, "duration": 121, "velocity": 120}, {"time": 169802, "pitch": 64, "duration": 124, "velocity": 120}, {"time": 169802, "pitch": 69, "duration": 137, "velocity": 120}, {"time": 169922, "pitch": 58, "duration": 159, "velocity": 120}, {"time": 170162, "pitch": 62, "duration": 258, "velocity": 120}, {"time": 170162, "pitch": 64, "duration": 267, "velocity": 120}, {"time": 170162, "pitch": 69, "duration": 256, "velocity": 120}, {"time": 170402, "pitch": 58, "duration": 96, "velocity": 120}, {"time": 170522, "pitch": 62, "duration": 184, "velocity": 120}, {"time": 170522, "pitch": 64, "duration": 183, "velocity": 120}, {"time": 170522, "pitch": 69, "duration": 176, "velocity": 120}, {"time": 170642, "pitch": 58, "duration": 205, "velocity": 120}, {"time": 170882, "pitch": 62, "duration": 261, "velocity": 120}, {"time": 170882, "pitch": 64, "duration": 268, "velocity": 120}, {"time": 170882, "pitch": 69, "duration": 271, "velocity": 120}, {"time": 171122, "pitch": 58, "duration": 99, "velocity": 120}, {"time": 171362, "pitch": 48, "duration": 1821, "velocity": 120}, {"time": 171362, "pitch": 60, "duration": 132, "velocity": 120}, {"time": 171362, "pitch": 65, "duration": 268, "velocity": 120}, {"time": 171362, "pitch": 67, "duration": 268, "velocity": 120}, {"time": 171362, "pitch": 72, "duration": 266, "velocity": 120}, {"time": 171602, "pitch": 60, "duration": 99, "velocity": 120}, {"time": 171722, "pitch": 65, "duration": 134, "velocity": 120}, {"time": 171722, "pitch": 67, "duration": 126, "velocity": 120}, {"time": 171722, "pitch": 72, "duration": 137, "velocity": 120}, {"time": 171842, "pitch": 60, "duration": 183, "velocity": 120}, {"time": 172082, "pitch": 65, "duration": 178, "velocity": 120}, {"time": 172082, "pitch": 67, "duration": 183, "velocity": 120}, {"time": 172082, "pitch": 72, "duration": 205, "velocity": 120}, {"time": 172322, "pitch": 60, "duration": 129, "velocity": 120}, {"time": 172442, "pitch": 77, "duration": 95, "velocity": 120}, {"time": 172442, "pitch": 79, "duration": 95, "velocity": 120}, {"time": 172442, "pitch": 84, "duration": 112, "velocity": 120}, {"time": 172562, "pitch": 60, "duration": 144, "velocity": 120}, {"time": 172802, "pitch": 77, "duration": 253, "velocity": 120}, {"time": 172802, "pitch": 79, "duration": 235, "velocity": 120}, {"time": 172802, "pitch": 84, "duration": 220, "velocity": 120}, {"time": 173042, "pitch": 60, "duration": 77, "velocity": 120}, {"time": 173282, "pitch": 43, "duration": 1813, "velocity": 120}, {"time": 173282, "pitch": 55, "duration": 159, "velocity": 120}, {"time": 173282, "pitch": 58, "duration": 318, "velocity": 120}, {"time": 173282, "pitch": 60, "duration": 320, "velocity": 120}, {"time": 173282, "pitch": 65, "duration": 298, "velocity": 120}, {"time": 173522, "pitch": 55, "duration": 121, "velocity": 120}, {"time": 173642, "pitch": 58, "duration": 171, "velocity": 120}, {"time": 173642, "pitch": 60, "duration": 143, "velocity": 120}, {"time": 173642, "pitch": 65, "duration": 153, "velocity": 120}, {"time": 173762, "pitch": 55, "duration": 295, "velocity": 120}, {"time": 174002, "pitch": 58, "duration": 243, "velocity": 120}, {"time": 174002, "pitch": 60, "duration": 240, "velocity": 120}, {"time": 174002, "pitch": 65, "duration": 230, "velocity": 120}, {"time": 174242, "pitch": 55, "duration": 111, "velocity": 120}, {"time": 174362, "pitch": 58, "duration": 171, "velocity": 120}, {"time": 174362, "pitch": 60, "duration": 154, "velocity": 120}, {"time": 174362, "pitch": 65, "duration": 149, "velocity": 120}, {"time": 174482, "pitch": 55, "duration": 223, "velocity": 120}, {"time": 174722, "pitch": 58, "duration": 278, "velocity": 120}, {"time": 174722, "pitch": 60, "duration": 238, "velocity": 120}, {"time": 174722, "pitch": 65, "duration": 256, "velocity": 120}, {"time": 174962, "pitch": 55, "duration": 104, "velocity": 120}, {"time": 175202, "pitch": 45, "duration": 1808, "velocity": 120}, {"time": 175202, "pitch": 57, "duration": 106, "velocity": 120}, {"time": 175202, "pitch": 60, "duration": 283, "velocity": 120}, {"time": 175202, "pitch": 62, "duration": 280, "velocity": 120}, {"time": 175202, "pitch": 67, "duration": 265, "velocity": 120}, {"time": 175442, "pitch": 57, "duration": 107, "velocity": 120}, {"time": 175562, "pitch": 60, "duration": 112, "velocity": 120}, {"time": 175562, "pitch": 62, "duration": 92, "velocity": 120}, {"time": 175562, "pitch": 67, "duration": 129, "velocity": 120}, {"time": 175682, "pitch": 57, "duration": 181, "velocity": 120}, {"time": 175922, "pitch": 60, "duration": 241, "velocity": 120}, {"time": 175922, "pitch": 62, "duration": 255, "velocity": 120}, {"time": 175922, "pitch": 67, "duration": 255, "velocity": 120}, {"time": 176162, "pitch": 57, "duration": 114, "velocity": 120}, {"time": 176282, "pitch": 60, "duration": 161, "velocity": 120}, {"time": 176282, "pitch": 62, "duration": 171, "velocity": 120}, {"time": 176282, "pitch": 67, "duration": 173, "velocity": 120}, {"time": 176402, "pitch": 57, "duration": 183, "velocity": 120}, {"time": 176642, "pitch": 60, "duration": 298, "velocity": 120}, {"time": 176642, "pitch": 62, "duration": 308, "velocity": 120}, {"time": 176642, "pitch": 67, "duration": 327, "velocity": 120}, {"time": 176882, "pitch": 57, "duration": 80, "velocity": 120}, {"time": 177122, "pitch": 46, "duration": 1741, "velocity": 120}, {"time": 177122, "pitch": 58, "duration": 159, "velocity": 120}, {"time": 177122, "pitch": 62, "duration": 287, "velocity": 120}, {"time": 177122, "pitch": 64, "duration": 282, "velocity": 120}, {"time": 177122, "pitch": 69, "duration": 278, "velocity": 120}, {"time": 177362, "pitch": 58, "duration": 112, "velocity": 120}, {"time": 177482, "pitch": 62, "duration": 121, "velocity": 120}, {"time": 177482, "pitch": 64, "duration": 124, "velocity": 120}, {"time": 177482, "pitch": 69, "duration": 137, "velocity": 120}, {"time": 177602, "pitch": 58, "duration": 159, "velocity": 120}, {"time": 177842, "pitch": 62, "duration": 258, "velocity": 120}, {"time": 177842, "pitch": 64, "duration": 267, "velocity": 120}, {"time": 177842, "pitch": 69, "duration": 256, "velocity": 120}, {"time": 178082, "pitch": 58, "duration": 96, "velocity": 120}, {"time": 178202, "pitch": 62, "duration": 184, "velocity": 120}, {"time": 178202, "pitch": 64, "duration": 183, "velocity": 120}, {"time": 178202, "pitch": 69, "duration": 176, "velocity": 120}, {"time": 178322, "pitch": 58, "duration": 205, "velocity": 120}, {"time": 178562, "pitch": 62, "duration": 261, "velocity": 120}, {"time": 178562, "pitch": 64, "duration": 268, "velocity": 120}, {"time": 178562, "pitch": 69, "duration": 271, "velocity": 120}, {"time": 178802, "pitch": 58, "duration": 99, "velocity": 120}, {"time": 179282, "pitch": 48, "duration": 99, "velocity": 120}, {"time": 179282, "pitch": 60, "duration": 92, "velocity": 120}, {"time": 179282, "pitch": 65, "duration": 97, "velocity": 120}, {"time": 179282, "pitch": 67, "duration": 89, "velocity": 120}, {"time": 179282, "pitch": 72, "duration": 109, "velocity": 120}, {"time": 179522, "pitch": 48, "duration": 263, "velocity": 120}, {"time": 179522, "pitch": 60, "duration": 268, "velocity": 120}, {"time": 179522, "pitch": 65, "duration": 275, "velocity": 120}, {"time": 179522, "pitch": 67, "duration": 263, "velocity": 120}, {"time": 179522, "pitch": 72, "duration": 270, "velocity": 120}, {"time": 180002, "pitch": 48, "duration": 231, "velocity": 120}, {"time": 180002, "pitch": 60, "duration": 233, "velocity": 120}, {"time": 180002, "pitch": 65, "duration": 258, "velocity": 120}, {"time": 180002, "pitch": 67, "duration": 268, "velocity": 120}, {"time": 180002, "pitch": 72, "duration": 258, "velocity": 120}, {"time": 180362, "pitch": 48, "duration": 206, "velocity": 120}, {"time": 180362, "pitch": 60, "duration": 199, "velocity": 120}, {"time": 180362, "pitch": 65, "duration": 223, "velocity": 120}, {"time": 180362, "pitch": 67, "duration": 226, "velocity": 120}, {"time": 180362, "pitch": 72, "duration": 209, "velocity": 120}, {"time": 180722, "pitch": 48, "duration": 119, "velocity": 120}, {"time": 180722, "pitch": 60, "duration": 112, "velocity": 120}, {"time": 180722, "pitch": 65, "duration": 114, "velocity": 120}, {"time": 180722, "pitch": 67, "duration": 119, "velocity": 120}, {"time": 180722, "pitch": 72, "duration": 129, "velocity": 120}, {"time": 180962, "pitch": 41, "duration": 1917, "velocity": 90}, {"time": 180962, "pitch": 53, "duration": 263, "velocity": 90}, {"time": 181202, "pitch": 69, "duration": 198, "velocity": 98}, {"time": 181202, "pitch": 72, "duration": 205, "velocity": 102}, {"time": 181202, "pitch": 77, "duration": 211, "velocity": 84}, {"time": 181442, "pitch": 53, "duration": 109, "velocity": 82}, {"time": 181562, "pitch": 69, "duration": 149, "velocity": 92}, {"time": 181562, "pitch": 72, "duration": 154, "velocity": 100}, {"time": 181562, "pitch": 77, "duration": 174, "velocity": 84}, {"time": 181682, "pitch": 53, "duration": 256, "velocity": 84}, {"time": 181922, "pitch": 69, "duration": 248, "velocity": 94}, {"time": 181922, "pitch": 72, "duration": 267, "velocity": 98}, {"time": 181922, "pitch": 77, "duration": 262, "velocity": 84}, {"time": 182162, "pitch": 53, "duration": 129, "velocity": 82}, {"time": 182342, "pitch": 69, "duration": 191, "velocity": 94}, {"time": 182342, "pitch": 72, "duration": 201, "velocity": 98}, {"time": 182342, "pitch": 77, "duration": 203, "velocity": 84}, {"time": 182462, "pitch": 53, "duration": 414, "velocity": 92}, {"time": 182702, "pitch": 69, "duration": 285, "velocity": 94}, {"time": 182702, "pitch": 72, "duration": 308, "velocity": 96}, {"time": 182702, "pitch": 77, "duration": 275, "velocity": 82}, {"time": 182942, "pitch": 43, "duration": 1661, "velocity": 76}, {"time": 182942, "pitch": 55, "duration": 253, "velocity": 88}, {"time": 183122, "pitch": 70, "duration": 248, "velocity": 92}, {"time": 183122, "pitch": 72, "duration": 245, "velocity": 96}, {"time": 183122, "pitch": 77, "duration": 225, "velocity": 84}, {"time": 183362, "pitch": 55, "duration": 126, "velocity": 76}, {"time": 183482, "pitch": 70, "duration": 179, "velocity": 86}, {"time": 183482, "pitch": 72, "duration": 166, "velocity": 92}, {"time": 183482, "pitch": 77, "duration": 173, "velocity": 84}, {"time": 183662, "pitch": 55, "duration": 245, "velocity": 82}, {"time": 183842, "pitch": 70, "duration": 271, "velocity": 88}, {"time": 183842, "pitch": 72, "duration": 266, "velocity": 92}, {"time": 183842, "pitch": 77, "duration": 253, "velocity": 82}, {"time": 184022, "pitch": 55, "duration": 176, "velocity": 78}, {"time": 184202, "pitch": 70, "duration": 218, "velocity": 82}, {"time": 184202, "pitch": 72, "duration": 196, "velocity": 92}, {"time": 184202, "pitch": 77, "duration": 209, "velocity": 84}, {"time": 184382, "pitch": 55, "duration": 191, "velocity": 82}, {"time": 184562, "pitch": 70, "duration": 285, "velocity": 82}, {"time": 184562, "pitch": 72, "duration": 272, "velocity": 90}, {"time": 184562, "pitch": 77, "duration": 300, "velocity": 78}, {"time": 184802, "pitch": 46, "duration": 1908, "velocity": 62}, {"time": 184802, "pitch": 58, "duration": 300, "velocity": 76}, {"time": 185042, "pitch": 72, "duration": 250, "velocity": 90}, {"time": 185042, "pitch": 77, "duration": 258, "velocity": 90}, {"time": 185042, "pitch": 81, "duration": 251, "velocity": 82}, {"time": 185222, "pitch": 58, "duration": 122, "velocity": 60}, {"time": 185402, "pitch": 72, "duration": 171, "velocity": 90}, {"time": 185402, "pitch": 77, "duration": 176, "velocity": 90}, {"time": 185402, "pitch": 81, "duration": 183, "velocity": 88}, {"time": 185522, "pitch": 58, "duration": 223, "velocity": 78}, {"time": 185762, "pitch": 72, "duration": 268, "velocity": 90}, {"time": 185762, "pitch": 77, "duration": 278, "velocity": 92}, {"time": 185762, "pitch": 81, "duration": 273, "velocity": 82}, {"time": 186002, "pitch": 58, "duration": 134, "velocity": 74}, {"time": 186122, "pitch": 72, "duration": 186, "velocity": 88}, {"time": 186122, "pitch": 77, "duration": 186, "velocity": 90}, {"time": 186122, "pitch": 81, "duration": 186, "velocity": 84}, {"time": 186242, "pitch": 58, "duration": 124, "velocity": 66}, {"time": 186482, "pitch": 72, "duration": 335, "velocity": 94}, {"time": 186482, "pitch": 77, "duration": 357, "velocity": 86}, {"time": 186482, "pitch": 81, "duration": 320, "velocity": 84}, {"time": 186542, "pitch": 58, "duration": 151, "velocity": 60}, {"time": 186782, "pitch": 48, "duration": 1840, "velocity": 64}, {"time": 186782, "pitch": 60, "duration": 258, "velocity": 78}, {"time": 187022, "pitch": 72, "duration": 209, "velocity": 92}, {"time": 187022, "pitch": 76, "duration": 214, "velocity": 98}, {"time": 187022, "pitch": 79, "duration": 219, "velocity": 88}, {"time": 187202, "pitch": 60, "duration": 111, "velocity": 62}, {"time": 187322, "pitch": 72, "duration": 161, "velocity": 88}, {"time": 187322, "pitch": 76, "duration": 163, "velocity": 94}, {"time": 187322, "pitch": 79, "duration": 184, "velocity": 84}, {"time": 187442, "pitch": 60, "duration": 263, "velocity": 70}, {"time": 187682, "pitch": 72, "duration": 283, "velocity": 86}, {"time": 187682, "pitch": 76, "duration": 283, "velocity": 88}, {"time": 187682, "pitch": 79, "duration": 290, "velocity": 84}, {"time": 187922, "pitch": 60, "duration": 152, "velocity": 64}, {"time": 188042, "pitch": 72, "duration": 173, "velocity": 88}, {"time": 188042, "pitch": 76, "duration": 178, "velocity": 92}, {"time": 188042, "pitch": 79, "duration": 191, "velocity": 84}, {"time": 188222, "pitch": 60, "duration": 181, "velocity": 64}, {"time": 188402, "pitch": 72, "duration": 195, "velocity": 84}, {"time": 188402, "pitch": 76, "duration": 190, "velocity": 88}, {"time": 188402, "pitch": 79, "duration": 196, "velocity": 84}, {"time": 188642, "pitch": 41, "duration": 1917, "velocity": 90}, {"time": 188642, "pitch": 53, "duration": 263, "velocity": 90}, {"time": 188882, "pitch": 69, "duration": 198, "velocity": 98}, {"time": 188882, "pitch": 72, "duration": 205, "velocity": 102}, {"time": 188882, "pitch": 77, "duration": 211, "velocity": 84}, {"time": 189122, "pitch": 53, "duration": 109, "velocity": 82}, {"time": 189242, "pitch": 69, "duration": 149, "velocity": 92}, {"time": 189242, "pitch": 72, "duration": 154, "velocity": 100}, {"time": 189242, "pitch": 77, "duration": 174, "velocity": 84}, {"time": 189362, "pitch": 53, "duration": 256, "velocity": 84}, {"time": 189602, "pitch": 69, "duration": 248, "velocity": 94}, {"time": 189602, "pitch": 72, "duration": 267, "velocity": 98}, {"time": 189602, "pitch": 77, "duration": 262, "velocity": 84}, {"time": 189842, "pitch": 53, "duration": 129, "velocity": 82}, {"time": 190022, "pitch": 69, "duration": 191, "velocity": 94}, {"time": 190022, "pitch": 72, "duration": 201, "velocity": 98}, {"time": 190022, "pitch": 77, "duration": 203, "velocity": 84}, {"time": 190142, "pitch": 53, "duration": 414, "velocity": 92}, {"time": 190382, "pitch": 69, "duration": 285, "velocity": 94}, {"time": 190382, "pitch": 72, "duration": 308, "velocity": 96}, {"time": 190382, "pitch": 77, "duration": 275, "velocity": 82}, {"time": 190622, "pitch": 43, "duration": 1661, "velocity": 76}, {"time": 190622, "pitch": 55, "duration": 253, "velocity": 88}, {"time": 190802, "pitch": 70, "duration": 248, "velocity": 92}, {"time": 190802, "pitch": 72, "duration": 245, "velocity": 96}, {"time": 190802, "pitch": 77, "duration": 225, "velocity": 84}, {"time": 191042, "pitch": 55, "duration": 126, "velocity": 76}, {"time": 191162, "pitch": 70, "duration": 179, "velocity": 86}, {"time": 191162, "pitch": 72, "duration": 166, "velocity": 92}, {"time": 191162, "pitch": 77, "duration": 173, "velocity": 84}, {"time": 191342, "pitch": 55, "duration": 245, "velocity": 82}, {"time": 191522, "pitch": 70, "duration": 271, "velocity": 88}, {"time": 191522, "pitch": 72, "duration": 266, "velocity": 92}, {"time": 191522, "pitch": 77, "duration": 253, "velocity": 82}, {"time": 191702, "pitch": 55, "duration": 176, "velocity": 78}, {"time": 191882, "pitch": 70, "duration": 218, "velocity": 82}, {"time": 191882, "pitch": 72, "duration": 196, "velocity": 92}, {"time": 191882, "pitch": 77, "duration": 209, "velocity": 84}, {"time": 192062, "pitch": 55, "duration": 191, "velocity": 82}, {"time": 192242, "pitch": 70, "duration": 285, "velocity": 82}, {"time": 192242, "pitch": 72, "duration": 272, "velocity": 90}, {"time": 192242, "pitch": 77, "duration": 300, "velocity": 78}, {"time": 192482, "pitch": 46, "duration": 1908, "velocity": 62}, {"time": 192482, "pitch": 58, "duration": 300, "velocity": 76}, {"time": 192722, "pitch": 72, "duration": 250, "velocity": 90}, {"time": 192722, "pitch": 77, "duration": 258, "velocity": 90}, {"time": 192722, "pitch": 81, "duration": 251, "velocity": 82}, {"time": 192902, "pitch": 58, "duration": 122, "velocity": 60}, {"time": 193082, "pitch": 72, "duration": 171, "velocity": 90}, {"time": 193082, "pitch": 77, "duration": 176, "velocity": 90}, {"time": 193082, "pitch": 81, "duration": 183, "velocity": 88}, {"time": 193202, "pitch": 58, "duration": 223, "velocity": 78}, {"time": 193442, "pitch": 72, "duration": 268, "velocity": 90}, {"time": 193442, "pitch": 77, "duration": 278, "velocity": 92}, {"time": 193442, "pitch": 81, "duration": 273, "velocity": 82}, {"time": 193682, "pitch": 58, "duration": 134, "velocity": 74}, {"time": 193802, "pitch": 72, "duration": 186, "velocity": 88}, {"time": 193802, "pitch": 77, "duration": 186, "velocity": 90}, {"time": 193802, "pitch": 81, "duration": 186, "velocity": 84}, {"time": 193922, "pitch": 58, "duration": 124, "velocity": 66}, {"time": 194162, "pitch": 72, "duration": 335, "velocity": 94}, {"time": 194162, "pitch": 77, "duration": 357, "velocity": 86}, {"time": 194162, "pitch": 81, "duration": 320, "velocity": 84}, {"time": 194222, "pitch": 58, "duration": 151, "velocity": 60}, {"time": 194462, "pitch": 48, "duration": 1840, "velocity": 64}, {"time": 194462, "pitch": 60, "duration": 258, "velocity": 78}, {"time": 194702, "pitch": 72, "duration": 209, "velocity": 92}, {"time": 194702, "pitch": 76, "duration": 214, "velocity": 98}, {"time": 194702, "pitch": 79, "duration": 219, "velocity": 88}, {"time": 194882, "pitch": 60, "duration": 111, "velocity": 62}, {"time": 195002, "pitch": 72, "duration": 161, "velocity": 88}, {"time": 195002, "pitch": 76, "duration": 163, "velocity": 94}, {"time": 195002, "pitch": 79, "duration": 184, "velocity": 84}, {"time": 195122, "pitch": 60, "duration": 263, "velocity": 70}, {"time": 195362, "pitch": 72, "duration": 283, "velocity": 86}, {"time": 195362, "pitch": 76, "duration": 283, "velocity": 88}, {"time": 195362, "pitch": 79, "duration": 290, "velocity": 84}, {"time": 195602, "pitch": 60, "duration": 152, "velocity": 64}, {"time": 195722, "pitch": 72, "duration": 173, "velocity": 88}, {"time": 195722, "pitch": 76, "duration": 178, "velocity": 92}, {"time": 195722, "pitch": 79, "duration": 191, "velocity": 84}, {"time": 195902, "pitch": 60, "duration": 181, "velocity": 64}, {"time": 196082, "pitch": 72, "duration": 195, "velocity": 84}, {"time": 196082, "pitch": 76, "duration": 190, "velocity": 88}, {"time": 196082, "pitch": 79, "duration": 196, "velocity": 84}, {"time": 481, "pitch": 36, "duration": 1921, "velocity": 127}, {"time": 2402, "pitch": 36, "duration": 1922, "velocity": 127}, {"time": 4324, "pitch": 36, "duration": 1921, "velocity": 127}, {"time": 6245, "pitch": 36, "duration": 1911, "velocity": 127}, {"time": 8156, "pitch": 36, "duration": 1921, "velocity": 127}, {"time": 10077, "pitch": 36, "duration": 1922, "velocity": 127}, {"time": 11999, "pitch": 36, "duration": 1921, "velocity": 127}, {"time": 13920, "pitch": 36, "duration": 7682, "velocity": 127}, {"time": 35042, "pitch": 38, "duration": 120, "velocity": 127}, {"time": 35282, "pitch": 38, "duration": 120, "velocity": 127}, {"time": 35522, "pitch": 38, "duration": 120, "velocity": 127}, {"time": 35762, "pitch": 38, "duration": 120, "velocity": 127}, {"time": 36002, "pitch": 38, "duration": 120, "velocity": 127}, {"time": 36242, "pitch": 38, "duration": 120, "velocity": 127}, {"time": 36482, "pitch": 38, "duration": 120, "velocity": 127}, {"time": 36722, "pitch": 38, "duration": 120, "velocity": 127}, {"time": 36962, "pitch": 38, "duration": 120, "velocity": 127}, {"time": 37202, "pitch": 38, "duration": 120, "velocity": 127}, {"time": 37442, "pitch": 38, "duration": 120, "velocity": 127}, {"time": 37682, "pitch": 38, "duration": 120, "velocity": 127}, {"time": 37922, "pitch": 38, "duration": 120, "velocity": 127}, {"time": 38162, "pitch": 38, "duration": 120, "velocity": 127}, {"time": 38402, "pitch": 38, "duration": 120, "velocity": 127}, {"time": 38642, "pitch": 38, "duration": 120, "velocity": 127}, {"time": 38762, "pitch": 36, "duration": 120, "velocity": 127}, {"time": 38882, "pitch": 34, "duration": 120, "velocity": 127}, {"time": 39122, "pitch": 34, "duration": 120, "velocity": 127}, {"time": 39362, "pitch": 34, "duration": 120, "velocity": 127}, {"time": 39602, "pitch": 34, "duration": 120, "velocity": 127}, {"time": 39842, "pitch": 34, "duration": 120, "velocity": 127}, {"time": 40082, "pitch": 34, "duration": 120, "velocity": 127}, {"time": 40322, "pitch": 34, "duration": 120, "velocity": 127}, {"time": 40562, "pitch": 34, "duration": 120, "velocity": 127}, {"time": 40802, "pitch": 34, "duration": 120, "velocity": 127}, {"time": 41042, "pitch": 34, "duration": 120, "velocity": 127}, {"time": 41282, "pitch": 34, "duration": 120, "velocity": 127}, {"time": 41522, "pitch": 34, "duration": 120, "velocity": 127}, {"time": 41762, "pitch": 34, "duration": 120, "velocity": 127}, {"time": 42002, "pitch": 34, "duration": 120, "velocity": 127}, {"time": 42242, "pitch": 34, "duration": 120, "velocity": 127}, {"time": 42482, "pitch": 34, "duration": 120, "velocity": 127}, {"time": 42602, "pitch": 36, "duration": 120, "velocity": 127}, {"time": 42722, "pitch": 38, "duration": 120, "velocity": 127}, {"time": 42962, "pitch": 38, "duration": 120, "velocity": 127}, {"time": 43202, "pitch": 38, "duration": 120, "velocity": 127}, {"time": 43442, "pitch": 38, "duration": 120, "velocity": 127}, {"time": 43682, "pitch": 38, "duration": 120, "velocity": 127}, {"time": 43922, "pitch": 38, "duration": 120, "velocity": 127}, {"time": 44162, "pitch": 38, "duration": 120, "velocity": 127}, {"time": 44402, "pitch": 38, "duration": 120, "velocity": 127}, {"time": 44642, "pitch": 38, "duration": 120, "velocity": 127}, {"time": 44882, "pitch": 38, "duration": 120, "velocity": 127}, {"time": 45122, "pitch": 38, "duration": 120, "velocity": 127}, {"time": 45362, "pitch": 38, "duration": 120, "velocity": 127}, {"time": 45602, "pitch": 38, "duration": 120, "velocity": 127}, {"time": 45842, "pitch": 38, "duration": 120, "velocity": 127}, {"time": 46082, "pitch": 38, "duration": 120, "velocity": 127}, {"time": 46322, "pitch": 38, "duration": 120, "velocity": 127}, {"time": 46442, "pitch": 36, "duration": 120, "velocity": 127}, {"time": 46562, "pitch": 34, "duration": 120, "velocity": 127}, {"time": 46802, "pitch": 34, "duration": 120, "velocity": 127}, {"time": 47042, "pitch": 34, "duration": 120, "velocity": 127}, {"time": 47282, "pitch": 34, "duration": 120, "velocity": 127}, {"time": 47522, "pitch": 34, "duration": 120, "velocity": 127}, {"time": 47762, "pitch": 34, "duration": 120, "velocity": 127}, {"time": 48002, "pitch": 34, "duration": 120, "velocity": 127}, {"time": 48242, "pitch": 34, "duration": 120, "velocity": 127}, {"time": 48482, "pitch": 34, "duration": 120, "velocity": 127}, {"time": 48722, "pitch": 34, "duration": 120, "velocity": 127}, {"time": 48962, "pitch": 34, "duration": 120, "velocity": 127}, {"time": 49202, "pitch": 34, "duration": 120, "velocity": 127}, {"time": 49442, "pitch": 34, "duration": 120, "velocity": 127}, {"time": 49682, "pitch": 32, "duration": 120, "velocity": 127}, {"time": 49922, "pitch": 34, "duration": 120, "velocity": 127}, {"time": 50162, "pitch": 36, "duration": 120, "velocity": 127}, {"time": 50282, "pitch": 36, "duration": 120, "velocity": 127}, {"time": 50402, "pitch": 36, "duration": 120, "velocity": 127}, {"time": 50642, "pitch": 36, "duration": 120, "velocity": 127}, {"time": 50882, "pitch": 36, "duration": 120, "velocity": 127}, {"time": 51122, "pitch": 36, "duration": 120, "velocity": 127}, {"time": 51362, "pitch": 36, "duration": 120, "velocity": 127}, {"time": 51602, "pitch": 36, "duration": 120, "velocity": 127}, {"time": 51842, "pitch": 36, "duration": 120, "velocity": 127}, {"time": 52082, "pitch": 36, "duration": 120, "velocity": 127}, {"time": 52322, "pitch": 36, "duration": 120, "velocity": 127}, {"time": 52562, "pitch": 36, "duration": 120, "velocity": 127}, {"time": 52802, "pitch": 36, "duration": 120, "velocity": 127}, {"time": 53042, "pitch": 36, "duration": 120, "velocity": 127}, {"time": 53282, "pitch": 36, "duration": 120, "velocity": 127}, {"time": 53522, "pitch": 36, "duration": 120, "velocity": 127}, {"time": 53762, "pitch": 36, "duration": 120, "velocity": 127}, {"time": 54002, "pitch": 36, "duration": 120, "velocity": 127}, {"time": 54122, "pitch": 36, "duration": 120, "velocity": 127}, {"time": 54242, "pitch": 34, "duration": 120, "velocity": 127}, {"time": 54482, "pitch": 34, "duration": 120, "velocity": 127}, {"time": 54722, "pitch": 34, "duration": 120, "velocity": 127}, {"time": 54962, "pitch": 34, "duration": 120, "velocity": 127}, {"time": 55202, "pitch": 34, "duration": 120, "velocity": 127}, {"time": 55442, "pitch": 34, "duration": 120, "velocity": 127}, {"time": 55682, "pitch": 34, "duration": 120, "velocity": 127}, {"time": 55922, "pitch": 34, "duration": 120, "velocity": 127}, {"time": 56162, "pitch": 34, "duration": 120, "velocity": 127}, {"time": 56402, "pitch": 34, "duration": 120, "velocity": 127}, {"time": 56642, "pitch": 34, "duration": 120, "velocity": 127}, {"time": 56882, "pitch": 34, "duration": 120, "velocity": 127}, {"time": 57122, "pitch": 34, "duration": 120, "velocity": 127}, {"time": 57362, "pitch": 34, "duration": 120, "velocity": 127}, {"time": 57602, "pitch": 34, "duration": 120, "velocity": 127}, {"time": 57842, "pitch": 32, "duration": 120, "velocity": 127}, {"time": 57962, "pitch": 34, "duration": 120, "velocity": 127}, {"time": 58082, "pitch": 36, "duration": 120, "velocity": 127}, {"time": 58322, "pitch": 36, "duration": 120, "velocity": 127}, {"time": 58562, "pitch": 36, "duration": 120, "velocity": 127}, {"time": 58802, "pitch": 36, "duration": 120, "velocity": 127}, {"time": 59042, "pitch": 36, "duration": 120, "velocity": 127}, {"time": 59282, "pitch": 36, "duration": 120, "velocity": 127}, {"time": 59522, "pitch": 36, "duration": 120, "velocity": 127}, {"time": 59762, "pitch": 36, "duration": 120, "velocity": 127}, {"time": 60002, "pitch": 36, "duration": 120, "velocity": 127}, {"time": 60242, "pitch": 36, "duration": 120, "velocity": 127}, {"time": 60482, "pitch": 36, "duration": 120, "velocity": 127}, {"time": 60722, "pitch": 36, "duration": 120, "velocity": 127}, {"time": 60962, "pitch": 36, "duration": 120, "velocity": 127}, {"time": 61202, "pitch": 36, "duration": 120, "velocity": 127}, {"time": 61442, "pitch": 36, "duration": 120, "velocity": 127}, {"time": 61682, "pitch": 36, "duration": 120, "velocity": 127}, {"time": 61802, "pitch": 38, "duration": 120, "velocity": 127}, {"time": 61922, "pitch": 34, "duration": 120, "velocity": 127}, {"time": 62162, "pitch": 34, "duration": 120, "velocity": 127}, {"time": 62402, "pitch": 34, "duration": 120, "velocity": 127}, {"time": 62642, "pitch": 34, "duration": 120, "velocity": 127}, {"time": 62882, "pitch": 34, "duration": 120, "velocity": 127}, {"time": 63122, "pitch": 34, "duration": 120, "velocity": 127}, {"time": 63362, "pitch": 34, "duration": 120, "velocity": 127}, {"time": 63602, "pitch": 34, "duration": 120, "velocity": 127}, {"time": 64082, "pitch": 36, "duration": 120, "velocity": 127}, {"time": 64322, "pitch": 36, "duration": 120, "velocity": 127}, {"time": 64802, "pitch": 36, "duration": 120, "velocity": 127}, {"time": 65162, "pitch": 36, "duration": 120, "velocity": 127}, {"time": 65522, "pitch": 36, "duration": 120, "velocity": 127}, {"time": 65762, "pitch": 38, "duration": 120, "velocity": 127}, {"time": 66002, "pitch": 38, "duration": 120, "velocity": 127}, {"time": 66242, "pitch": 38, "duration": 120, "velocity": 127}, {"time": 66482, "pitch": 38, "duration": 120, "velocity": 127}, {"time": 66722, "pitch": 38, "duration": 120, "velocity": 127}, {"time": 66962, "pitch": 38, "duration": 120, "velocity": 127}, {"time": 67202, "pitch": 38, "duration": 120, "velocity": 127}, {"time": 67442, "pitch": 38, "duration": 120, "velocity": 127}, {"time": 67682, "pitch": 38, "duration": 120, "velocity": 127}, {"time": 67922, "pitch": 38, "duration": 120, "velocity": 127}, {"time": 68162, "pitch": 38, "duration": 120, "velocity": 127}, {"time": 68402, "pitch": 38, "duration": 120, "velocity": 127}, {"time": 68642, "pitch": 38, "duration": 120, "velocity": 127}, {"time": 68882, "pitch": 38, "duration": 120, "velocity": 127}, {"time": 69122, "pitch": 38, "duration": 120, "velocity": 127}, {"time": 69362, "pitch": 38, "duration": 120, "velocity": 127}, {"time": 69482, "pitch": 36, "duration": 120, "velocity": 127}, {"time": 69602, "pitch": 34, "duration": 120, "velocity": 127}, {"time": 69842, "pitch": 34, "duration": 120, "velocity": 127}, {"time": 70082, "pitch": 34, "duration": 120, "velocity": 127}, {"time": 70322, "pitch": 34, "duration": 120, "velocity": 127}, {"time": 70562, "pitch": 34, "duration": 120, "velocity": 127}, {"time": 70802, "pitch": 34, "duration": 120, "velocity": 127}, {"time": 71042, "pitch": 34, "duration": 120, "velocity": 127}, {"time": 71282, "pitch": 34, "duration": 120, "velocity": 127}, {"time": 71522, "pitch": 34, "duration": 120, "velocity": 127}, {"time": 71762, "pitch": 34, "duration": 120, "velocity": 127}, {"time": 72002, "pitch": 34, "duration": 120, "velocity": 127}, {"time": 72242, "pitch": 34, "duration": 120, "velocity": 127}, {"time": 72482, "pitch": 34, "duration": 120, "velocity": 127}, {"time": 72722, "pitch": 34, "duration": 120, "velocity": 127}, {"time": 72962, "pitch": 34, "duration": 120, "velocity": 127}, {"time": 73202, "pitch": 34, "duration": 120, "velocity": 127}, {"time": 73322, "pitch": 36, "duration": 120, "velocity": 127}, {"time": 73442, "pitch": 38, "duration": 120, "velocity": 127}, {"time": 73682, "pitch": 38, "duration": 120, "velocity": 127}, {"time": 73922, "pitch": 38, "duration": 120, "velocity": 127}, {"time": 74162, "pitch": 38, "duration": 120, "velocity": 127}, {"time": 74402, "pitch": 38, "duration": 120, "velocity": 127}, {"time": 74642, "pitch": 38, "duration": 120, "velocity": 127}, {"time": 74882, "pitch": 38, "duration": 120, "velocity": 127}, {"time": 75122, "pitch": 38, "duration": 120, "velocity": 127}, {"time": 75362, "pitch": 38, "duration": 120, "velocity": 127}, {"time": 75602, "pitch": 38, "duration": 120, "velocity": 127}, {"time": 75842, "pitch": 38, "duration": 120, "velocity": 127}, {"time": 76082, "pitch": 38, "duration": 120, "velocity": 127}, {"time": 76322, "pitch": 38, "duration": 120, "velocity": 127}, {"time": 76562, "pitch": 38, "duration": 120, "velocity": 127}, {"time": 76802, "pitch": 38, "duration": 120, "velocity": 127}, {"time": 77042, "pitch": 38, "duration": 120, "velocity": 127}, {"time": 77162, "pitch": 36, "duration": 120, "velocity": 127}, {"time": 77282, "pitch": 34, "duration": 120, "velocity": 127}, {"time": 77522, "pitch": 34, "duration": 120, "velocity": 127}, {"time": 77762, "pitch": 34, "duration": 120, "velocity": 127}, {"time": 78002, "pitch": 34, "duration": 120, "velocity": 127}, {"time": 78242, "pitch": 34, "duration": 120, "velocity": 127}, {"time": 78482, "pitch": 34, "duration": 120, "velocity": 127}, {"time": 78722, "pitch": 34, "duration": 120, "velocity": 127}, {"time": 78962, "pitch": 34, "duration": 120, "velocity": 127}, {"time": 79202, "pitch": 34, "duration": 120, "velocity": 127}, {"time": 79442, "pitch": 34, "duration": 120, "velocity": 127}, {"time": 79682, "pitch": 34, "duration": 120, "velocity": 127}, {"time": 79922, "pitch": 34, "duration": 120, "velocity": 127}, {"time": 80162, "pitch": 34, "duration": 120, "velocity": 127}, {"time": 80402, "pitch": 32, "duration": 120, "velocity": 127}, {"time": 80642, "pitch": 34, "duration": 120, "velocity": 127}, {"time": 80882, "pitch": 36, "duration": 120, "velocity": 127}, {"time": 81002, "pitch": 36, "duration": 120, "velocity": 127}, {"time": 81122, "pitch": 36, "duration": 120, "velocity": 127}, {"time": 81362, "pitch": 36, "duration": 120, "velocity": 127}, {"time": 81602, "pitch": 36, "duration": 120, "velocity": 127}, {"time": 81842, "pitch": 36, "duration": 120, "velocity": 127}, {"time": 82082, "pitch": 36, "duration": 120, "velocity": 127}, {"time": 82322, "pitch": 36, "duration": 120, "velocity": 127}, {"time": 82562, "pitch": 36, "duration": 120, "velocity": 127}, {"time": 82802, "pitch": 36, "duration": 120, "velocity": 127}, {"time": 83042, "pitch": 36, "duration": 120, "velocity": 127}, {"time": 83282, "pitch": 36, "duration": 120, "velocity": 127}, {"time": 83522, "pitch": 36, "duration": 120, "velocity": 127}, {"time": 83762, "pitch": 36, "duration": 120, "velocity": 127}, {"time": 84002, "pitch": 36, "duration": 120, "velocity": 127}, {"time": 84242, "pitch": 36, "duration": 120, "velocity": 127}, {"time": 84482, "pitch": 36, "duration": 120, "velocity": 127}, {"time": 84722, "pitch": 36, "duration": 120, "velocity": 127}, {"time": 84842, "pitch": 38, "duration": 120, "velocity": 127}, {"time": 84962, "pitch": 34, "duration": 120, "velocity": 127}, {"time": 85202, "pitch": 34, "duration": 120, "velocity": 127}, {"time": 85442, "pitch": 34, "duration": 120, "velocity": 127}, {"time": 85682, "pitch": 34, "duration": 120, "velocity": 127}, {"time": 85922, "pitch": 34, "duration": 120, "velocity": 127}, {"time": 86162, "pitch": 34, "duration": 120, "velocity": 127}, {"time": 86402, "pitch": 34, "duration": 120, "velocity": 127}, {"time": 86642, "pitch": 34, "duration": 120, "velocity": 127}, {"time": 86882, "pitch": 34, "duration": 120, "velocity": 127}, {"time": 87122, "pitch": 34, "duration": 120, "velocity": 127}, {"time": 87362, "pitch": 34, "duration": 120, "velocity": 127}, {"time": 87602, "pitch": 34, "duration": 120, "velocity": 127}, {"time": 87842, "pitch": 34, "duration": 120, "velocity": 127}, {"time": 88082, "pitch": 34, "duration": 120, "velocity": 127}, {"time": 88322, "pitch": 34, "duration": 120, "velocity": 127}, {"time": 88562, "pitch": 32, "duration": 120, "velocity": 127}, {"time": 88682, "pitch": 34, "duration": 120, "velocity": 127}, {"time": 88802, "pitch": 36, "duration": 120, "velocity": 127}, {"time": 89042, "pitch": 36, "duration": 120, "velocity": 127}, {"time": 89282, "pitch": 36, "duration": 120, "velocity": 127}, {"time": 89522, "pitch": 36, "duration": 120, "velocity": 127}, {"time": 89762, "pitch": 36, "duration": 120, "velocity": 127}, {"time": 90002, "pitch": 36, "duration": 120, "velocity": 127}, {"time": 90242, "pitch": 36, "duration": 120, "velocity": 127}, {"time": 90482, "pitch": 36, "duration": 120, "velocity": 127}, {"time": 90722, "pitch": 36, "duration": 120, "velocity": 127}, {"time": 90962, "pitch": 36, "duration": 120, "velocity": 127}, {"time": 91202, "pitch": 36, "duration": 120, "velocity": 127}, {"time": 91442, "pitch": 36, "duration": 120, "velocity": 127}, {"time": 91682, "pitch": 36, "duration": 120, "velocity": 127}, {"time": 91922, "pitch": 36, "duration": 120, "velocity": 127}, {"time": 92162, "pitch": 36, "duration": 120, "velocity": 127}, {"time": 92402, "pitch": 36, "duration": 120, "velocity": 127}, {"time": 92522, "pitch": 38, "duration": 120, "velocity": 127}, {"time": 92642, "pitch": 34, "duration": 120, "velocity": 127}, {"time": 92882, "pitch": 34, "duration": 120, "velocity": 127}, {"time": 93122, "pitch": 34, "duration": 120, "velocity": 127}, {"time": 93362, "pitch": 34, "duration": 120, "velocity": 127}, {"time": 93602, "pitch": 34, "duration": 120, "velocity": 127}, {"time": 93842, "pitch": 34, "duration": 120, "velocity": 127}, {"time": 94082, "pitch": 34, "duration": 120, "velocity": 127}, {"time": 94322, "pitch": 34, "duration": 120, "velocity": 127}, {"time": 94802, "pitch": 36, "duration": 120, "velocity": 127}, {"time": 95042, "pitch": 36, "duration": 120, "velocity": 127}, {"time": 95522, "pitch": 36, "duration": 120, "velocity": 127}, {"time": 95882, "pitch": 36, "duration": 120, "velocity": 127}, {"time": 96242, "pitch": 36, "duration": 120, "velocity": 127}, {"time": 96470, "pitch": 31, "duration": 120, "velocity": 127}, {"time": 96722, "pitch": 31, "duration": 120, "velocity": 127}, {"time": 96962, "pitch": 31, "duration": 120, "velocity": 127}, {"time": 97202, "pitch": 31, "duration": 120, "velocity": 127}, {"time": 97442, "pitch": 31, "duration": 120, "velocity": 127}, {"time": 97682, "pitch": 31, "duration": 120, "velocity": 127}, {"time": 97922, "pitch": 31, "duration": 120, "velocity": 127}, {"time": 98042, "pitch": 43, "duration": 120, "velocity": 127}, {"time": 98162, "pitch": 31, "duration": 120, "velocity": 127}, {"time": 98402, "pitch": 33, "duration": 120, "velocity": 127}, {"time": 98642, "pitch": 33, "duration": 120, "velocity": 127}, {"time": 98882, "pitch": 33, "duration": 120, "velocity": 127}, {"time": 99122, "pitch": 33, "duration": 120, "velocity": 127}, {"time": 99362, "pitch": 33, "duration": 120, "velocity": 127}, {"time": 99602, "pitch": 33, "duration": 120, "velocity": 127}, {"time": 99842, "pitch": 33, "duration": 120, "velocity": 127}, {"time": 99962, "pitch": 45, "duration": 120, "velocity": 127}, {"time": 100082, "pitch": 33, "duration": 120, "velocity": 127}, {"time": 100322, "pitch": 34, "duration": 120, "velocity": 127}, {"time": 100562, "pitch": 34, "duration": 120, "velocity": 127}, {"time": 100802, "pitch": 34, "duration": 120, "velocity": 127}, {"time": 101042, "pitch": 34, "duration": 120, "velocity": 127}, {"time": 101282, "pitch": 34, "duration": 120, "velocity": 127}, {"time": 101522, "pitch": 34, "duration": 120, "velocity": 127}, {"time": 101762, "pitch": 34, "duration": 120, "velocity": 127}, {"time": 101882, "pitch": 46, "duration": 120, "velocity": 127}, {"time": 102002, "pitch": 34, "duration": 120, "velocity": 127}, {"time": 102242, "pitch": 36, "duration": 120, "velocity": 127}, {"time": 102482, "pitch": 36, "duration": 120, "velocity": 127}, {"time": 102722, "pitch": 36, "duration": 120, "velocity": 127}, {"time": 102962, "pitch": 36, "duration": 120, "velocity": 127}, {"time": 103202, "pitch": 36, "duration": 120, "velocity": 127}, {"time": 103442, "pitch": 36, "duration": 120, "velocity": 127}, {"time": 103682, "pitch": 36, "duration": 120, "velocity": 127}, {"time": 103802, "pitch": 48, "duration": 120, "velocity": 127}, {"time": 103922, "pitch": 36, "duration": 120, "velocity": 127}, {"time": 104162, "pitch": 31, "duration": 120, "velocity": 127}, {"time": 104402, "pitch": 31, "duration": 120, "velocity": 127}, {"time": 104642, "pitch": 31, "duration": 120, "velocity": 127}, {"time": 104882, "pitch": 31, "duration": 120, "velocity": 127}, {"time": 105122, "pitch": 31, "duration": 120, "velocity": 127}, {"time": 105362, "pitch": 31, "duration": 120, "velocity": 127}, {"time": 105602, "pitch": 31, "duration": 120, "velocity": 127}, {"time": 105722, "pitch": 43, "duration": 120, "velocity": 127}, {"time": 105842, "pitch": 31, "duration": 120, "velocity": 127}, {"time": 106082, "pitch": 33, "duration": 120, "velocity": 127}, {"time": 106322, "pitch": 33, "duration": 120, "velocity": 127}, {"time": 106562, "pitch": 33, "duration": 120, "velocity": 127}, {"time": 106802, "pitch": 33, "duration": 120, "velocity": 127}, {"time": 107042, "pitch": 33, "duration": 120, "velocity": 127}, {"time": 107282, "pitch": 33, "duration": 120, "velocity": 127}, {"time": 107522, "pitch": 33, "duration": 120, "velocity": 127}, {"time": 107642, "pitch": 45, "duration": 120, "velocity": 127}, {"time": 107762, "pitch": 33, "duration": 120, "velocity": 127}, {"time": 108002, "pitch": 34, "duration": 120, "velocity": 127}, {"time": 108242, "pitch": 34, "duration": 120, "velocity": 127}, {"time": 108482, "pitch": 34, "duration": 120, "velocity": 127}, {"time": 108722, "pitch": 34, "duration": 120, "velocity": 127}, {"time": 108962, "pitch": 34, "duration": 120, "velocity": 127}, {"time": 109202, "pitch": 34, "duration": 120, "velocity": 127}, {"time": 109442, "pitch": 34, "duration": 120, "velocity": 127}, {"time": 109562, "pitch": 46, "duration": 120, "velocity": 127}, {"time": 109682, "pitch": 34, "duration": 120, "velocity": 127}, {"time": 110162, "pitch": 36, "duration": 120, "velocity": 127}, {"time": 110162, "pitch": 48, "duration": 120, "velocity": 127}, {"time": 110402, "pitch": 36, "duration": 120, "velocity": 127}, {"time": 110402, "pitch": 48, "duration": 120, "velocity": 127}, {"time": 110882, "pitch": 36, "duration": 120, "velocity": 127}, {"time": 110882, "pitch": 48, "duration": 120, "velocity": 127}, {"time": 111242, "pitch": 36, "duration": 120, "velocity": 127}, {"time": 111242, "pitch": 48, "duration": 120, "velocity": 127}, {"time": 111602, "pitch": 36, "duration": 120, "velocity": 127}, {"time": 111602, "pitch": 48, "duration": 120, "velocity": 127}, {"time": 111842, "pitch": 17, "duration": 120, "velocity": 127}, {"time": 111962, "pitch": 29, "duration": 120, "velocity": 127}, {"time": 112082, "pitch": 41, "duration": 120, "velocity": 127}, {"time": 112202, "pitch": 29, "duration": 120, "velocity": 127}, {"time": 112322, "pitch": 17, "duration": 120, "velocity": 127}, {"time": 112442, "pitch": 29, "duration": 120, "velocity": 127}, {"time": 112562, "pitch": 41, "duration": 120, "velocity": 127}, {"time": 112682, "pitch": 29, "duration": 120, "velocity": 127}, {"time": 112802, "pitch": 17, "duration": 120, "velocity": 127}, {"time": 112922, "pitch": 29, "duration": 120, "velocity": 127}, {"time": 113042, "pitch": 41, "duration": 120, "velocity": 127}, {"time": 113162, "pitch": 29, "duration": 120, "velocity": 127}, {"time": 113282, "pitch": 17, "duration": 120, "velocity": 127}, {"time": 113402, "pitch": 29, "duration": 120, "velocity": 127}, {"time": 113522, "pitch": 41, "duration": 120, "velocity": 127}, {"time": 113642, "pitch": 29, "duration": 120, "velocity": 127}, {"time": 113762, "pitch": 19, "duration": 120, "velocity": 127}, {"time": 113882, "pitch": 31, "duration": 120, "velocity": 127}, {"time": 114002, "pitch": 43, "duration": 120, "velocity": 127}, {"time": 114122, "pitch": 31, "duration": 120, "velocity": 127}, {"time": 114242, "pitch": 19, "duration": 120, "velocity": 127}, {"time": 114362, "pitch": 31, "duration": 120, "velocity": 127}, {"time": 114482, "pitch": 43, "duration": 120, "velocity": 127}, {"time": 114602, "pitch": 31, "duration": 120, "velocity": 127}, {"time": 114722, "pitch": 19, "duration": 120, "velocity": 127}, {"time": 114842, "pitch": 31, "duration": 120, "velocity": 127}, {"time": 114962, "pitch": 43, "duration": 120, "velocity": 127}, {"time": 115082, "pitch": 31, "duration": 120, "velocity": 127}, {"time": 115202, "pitch": 19, "duration": 120, "velocity": 127}, {"time": 115322, "pitch": 31, "duration": 120, "velocity": 127}, {"time": 115442, "pitch": 43, "duration": 120, "velocity": 127}, {"time": 115562, "pitch": 31, "duration": 120, "velocity": 127}, {"time": 115682, "pitch": 22, "duration": 120, "velocity": 127}, {"time": 115802, "pitch": 34, "duration": 120, "velocity": 127}, {"time": 115922, "pitch": 46, "duration": 120, "velocity": 127}, {"time": 116042, "pitch": 34, "duration": 120, "velocity": 127}, {"time": 116162, "pitch": 22, "duration": 120, "velocity": 127}, {"time": 116282, "pitch": 34, "duration": 120, "velocity": 127}, {"time": 116402, "pitch": 46, "duration": 120, "velocity": 127}, {"time": 116522, "pitch": 34, "duration": 120, "velocity": 127}, {"time": 116642, "pitch": 22, "duration": 120, "velocity": 127}, {"time": 116762, "pitch": 34, "duration": 120, "velocity": 127}, {"time": 116882, "pitch": 46, "duration": 120, "velocity": 127}, {"time": 117002, "pitch": 34, "duration": 120, "velocity": 127}, {"time": 117122, "pitch": 22, "duration": 120, "velocity": 127}, {"time": 117242, "pitch": 34, "duration": 120, "velocity": 127}, {"time": 117362, "pitch": 46, "duration": 120, "velocity": 127}, {"time": 117482, "pitch": 34, "duration": 120, "velocity": 127}, {"time": 117602, "pitch": 24, "duration": 120, "velocity": 127}, {"time": 117722, "pitch": 36, "duration": 120, "velocity": 127}, {"time": 117842, "pitch": 48, "duration": 120, "velocity": 127}, {"time": 117962, "pitch": 36, "duration": 120, "velocity": 127}, {"time": 118082, "pitch": 24, "duration": 120, "velocity": 127}, {"time": 118202, "pitch": 36, "duration": 120, "velocity": 127}, {"time": 118322, "pitch": 48, "duration": 120, "velocity": 127}, {"time": 118442, "pitch": 36, "duration": 120, "velocity": 127}, {"time": 118562, "pitch": 24, "duration": 120, "velocity": 127}, {"time": 118682, "pitch": 36, "duration": 120, "velocity": 127}, {"time": 118802, "pitch": 48, "duration": 120, "velocity": 127}, {"time": 118922, "pitch": 36, "duration": 120, "velocity": 127}, {"time": 119042, "pitch": 24, "duration": 120, "velocity": 127}, {"time": 119162, "pitch": 36, "duration": 120, "velocity": 127}, {"time": 119282, "pitch": 48, "duration": 120, "velocity": 127}, {"time": 119402, "pitch": 36, "duration": 120, "velocity": 127}, {"time": 119522, "pitch": 17, "duration": 120, "velocity": 127}, {"time": 119642, "pitch": 29, "duration": 120, "velocity": 127}, {"time": 119762, "pitch": 41, "duration": 120, "velocity": 127}, {"time": 119882, "pitch": 29, "duration": 120, "velocity": 127}, {"time": 120002, "pitch": 17, "duration": 120, "velocity": 127}, {"time": 120122, "pitch": 29, "duration": 120, "velocity": 127}, {"time": 120242, "pitch": 41, "duration": 120, "velocity": 127}, {"time": 120362, "pitch": 29, "duration": 120, "velocity": 127}, {"time": 120482, "pitch": 17, "duration": 120, "velocity": 127}, {"time": 120602, "pitch": 29, "duration": 120, "velocity": 127}, {"time": 120722, "pitch": 41, "duration": 120, "velocity": 127}, {"time": 120842, "pitch": 29, "duration": 120, "velocity": 127}, {"time": 120962, "pitch": 17, "duration": 120, "velocity": 127}, {"time": 121082, "pitch": 29, "duration": 120, "velocity": 127}, {"time": 121202, "pitch": 41, "duration": 120, "velocity": 127}, {"time": 121322, "pitch": 29, "duration": 120, "velocity": 127}, {"time": 121442, "pitch": 19, "duration": 120, "velocity": 127}, {"time": 121562, "pitch": 31, "duration": 120, "velocity": 127}, {"time": 121682, "pitch": 43, "duration": 120, "velocity": 127}, {"time": 121802, "pitch": 31, "duration": 120, "velocity": 127}, {"time": 121922, "pitch": 19, "duration": 120, "velocity": 127}, {"time": 122042, "pitch": 31, "duration": 120, "velocity": 127}, {"time": 122162, "pitch": 43, "duration": 120, "velocity": 127}, {"time": 122282, "pitch": 31, "duration": 120, "velocity": 127}, {"time": 122402, "pitch": 19, "duration": 120, "velocity": 127}, {"time": 122522, "pitch": 31, "duration": 120, "velocity": 127}, {"time": 122642, "pitch": 43, "duration": 120, "velocity": 127}, {"time": 122762, "pitch": 31, "duration": 120, "velocity": 127}, {"time": 122882, "pitch": 19, "duration": 120, "velocity": 127}, {"time": 123002, "pitch": 31, "duration": 120, "velocity": 127}, {"time": 123122, "pitch": 43, "duration": 120, "velocity": 127}, {"time": 123242, "pitch": 31, "duration": 120, "velocity": 127}, {"time": 123362, "pitch": 22, "duration": 120, "velocity": 127}, {"time": 123482, "pitch": 34, "duration": 120, "velocity": 127}, {"time": 123602, "pitch": 46, "duration": 120, "velocity": 127}, {"time": 123722, "pitch": 34, "duration": 120, "velocity": 127}, {"time": 123842, "pitch": 22, "duration": 120, "velocity": 127}, {"time": 123962, "pitch": 34, "duration": 120, "velocity": 127}, {"time": 124082, "pitch": 46, "duration": 120, "velocity": 127}, {"time": 124202, "pitch": 34, "duration": 120, "velocity": 127}, {"time": 124322, "pitch": 22, "duration": 120, "velocity": 127}, {"time": 124442, "pitch": 34, "duration": 120, "velocity": 127}, {"time": 124562, "pitch": 46, "duration": 120, "velocity": 127}, {"time": 124682, "pitch": 34, "duration": 120, "velocity": 127}, {"time": 124802, "pitch": 22, "duration": 120, "velocity": 127}, {"time": 124922, "pitch": 34, "duration": 120, "velocity": 127}, {"time": 125042, "pitch": 46, "duration": 120, "velocity": 127}, {"time": 125162, "pitch": 34, "duration": 120, "velocity": 127}, {"time": 125282, "pitch": 24, "duration": 120, "velocity": 127}, {"time": 125402, "pitch": 36, "duration": 120, "velocity": 127}, {"time": 125522, "pitch": 48, "duration": 120, "velocity": 127}, {"time": 125642, "pitch": 36, "duration": 120, "velocity": 127}, {"time": 125762, "pitch": 24, "duration": 120, "velocity": 127}, {"time": 125882, "pitch": 36, "duration": 120, "velocity": 127}, {"time": 126002, "pitch": 48, "duration": 120, "velocity": 127}, {"time": 126122, "pitch": 36, "duration": 120, "velocity": 127}, {"time": 126242, "pitch": 24, "duration": 120, "velocity": 127}, {"time": 126362, "pitch": 36, "duration": 120, "velocity": 127}, {"time": 126482, "pitch": 48, "duration": 120, "velocity": 127}, {"time": 126602, "pitch": 36, "duration": 120, "velocity": 127}, {"time": 126722, "pitch": 24, "duration": 120, "velocity": 127}, {"time": 126842, "pitch": 36, "duration": 120, "velocity": 127}, {"time": 126962, "pitch": 48, "duration": 120, "velocity": 127}, {"time": 127082, "pitch": 36, "duration": 120, "velocity": 127}, {"time": 127442, "pitch": 29, "duration": 120, "velocity": 127}, {"time": 127682, "pitch": 29, "duration": 120, "velocity": 127}, {"time": 127922, "pitch": 29, "duration": 120, "velocity": 127}, {"time": 128162, "pitch": 29, "duration": 120, "velocity": 127}, {"time": 128402, "pitch": 29, "duration": 120, "velocity": 127}, {"time": 128642, "pitch": 29, "duration": 120, "velocity": 127}, {"time": 128762, "pitch": 41, "duration": 120, "velocity": 127}, {"time": 128882, "pitch": 29, "duration": 120, "velocity": 127}, {"time": 129362, "pitch": 29, "duration": 120, "velocity": 127}, {"time": 129602, "pitch": 29, "duration": 120, "velocity": 127}, {"time": 129842, "pitch": 29, "duration": 120, "velocity": 127}, {"time": 130082, "pitch": 29, "duration": 120, "velocity": 127}, {"time": 130322, "pitch": 29, "duration": 120, "velocity": 127}, {"time": 130562, "pitch": 29, "duration": 120, "velocity": 127}, {"time": 130682, "pitch": 41, "duration": 120, "velocity": 127}, {"time": 130802, "pitch": 29, "duration": 120, "velocity": 127}, {"time": 131282, "pitch": 29, "duration": 120, "velocity": 127}, {"time": 131522, "pitch": 29, "duration": 120, "velocity": 127}, {"time": 131762, "pitch": 29, "duration": 120, "velocity": 127}, {"time": 132002, "pitch": 29, "duration": 120, "velocity": 127}, {"time": 132242, "pitch": 29, "duration": 120, "velocity": 127}, {"time": 132482, "pitch": 29, "duration": 120, "velocity": 127}, {"time": 132602, "pitch": 41, "duration": 120, "velocity": 127}, {"time": 132722, "pitch": 29, "duration": 120, "velocity": 127}, {"time": 133202, "pitch": 29, "duration": 120, "velocity": 127}, {"time": 133442, "pitch": 29, "duration": 120, "velocity": 127}, {"time": 133682, "pitch": 29, "duration": 120, "velocity": 127}, {"time": 133922, "pitch": 29, "duration": 120, "velocity": 127}, {"time": 134162, "pitch": 29, "duration": 120, "velocity": 127}, {"time": 134402, "pitch": 29, "duration": 120, "velocity": 127}, {"time": 134522, "pitch": 41, "duration": 120, "velocity": 127}, {"time": 134642, "pitch": 29, "duration": 120, "velocity": 127}, {"time": 134882, "pitch": 38, "duration": 120, "velocity": 127}, {"time": 135122, "pitch": 38, "duration": 120, "velocity": 127}, {"time": 135362, "pitch": 38, "duration": 120, "velocity": 127}, {"time": 135602, "pitch": 38, "duration": 120, "velocity": 127}, {"time": 135842, "pitch": 38, "duration": 120, "velocity": 127}, {"time": 136082, "pitch": 38, "duration": 120, "velocity": 127}, {"time": 136322, "pitch": 38, "duration": 120, "velocity": 127}, {"time": 136562, "pitch": 38, "duration": 120, "velocity": 127}, {"time": 136802, "pitch": 38, "duration": 120, "velocity": 127}, {"time": 137042, "pitch": 38, "duration": 120, "velocity": 127}, {"time": 137282, "pitch": 38, "duration": 120, "velocity": 127}, {"time": 137522, "pitch": 38, "duration": 120, "velocity": 127}, {"time": 137762, "pitch": 38, "duration": 120, "velocity": 127}, {"time": 138002, "pitch": 38, "duration": 120, "velocity": 127}, {"time": 138242, "pitch": 38, "duration": 120, "velocity": 127}, {"time": 138482, "pitch": 38, "duration": 120, "velocity": 127}, {"time": 138602, "pitch": 36, "duration": 120, "velocity": 127}, {"time": 138722, "pitch": 34, "duration": 120, "velocity": 127}, {"time": 138962, "pitch": 34, "duration": 120, "velocity": 127}, {"time": 139202, "pitch": 34, "duration": 120, "velocity": 127}, {"time": 139442, "pitch": 34, "duration": 120, "velocity": 127}, {"time": 139682, "pitch": 34, "duration": 120, "velocity": 127}, {"time": 139922, "pitch": 34, "duration": 120, "velocity": 127}, {"time": 140162, "pitch": 34, "duration": 120, "velocity": 127}, {"time": 140402, "pitch": 34, "duration": 120, "velocity": 127}, {"time": 140642, "pitch": 34, "duration": 120, "velocity": 127}, {"time": 140882, "pitch": 34, "duration": 120, "velocity": 127}, {"time": 141122, "pitch": 34, "duration": 120, "velocity": 127}, {"time": 141362, "pitch": 34, "duration": 120, "velocity": 127}, {"time": 141602, "pitch": 34, "duration": 120, "velocity": 127}, {"time": 141842, "pitch": 34, "duration": 120, "velocity": 127}, {"time": 142082, "pitch": 34, "duration": 120, "velocity": 127}, {"time": 142322, "pitch": 34, "duration": 120, "velocity": 127}, {"time": 142442, "pitch": 36, "duration": 120, "velocity": 127}, {"time": 142562, "pitch": 38, "duration": 120, "velocity": 127}, {"time": 142802, "pitch": 38, "duration": 120, "velocity": 127}, {"time": 143042, "pitch": 38, "duration": 120, "velocity": 127}, {"time": 143282, "pitch": 38, "duration": 120, "velocity": 127}, {"time": 143522, "pitch": 38, "duration": 120, "velocity": 127}, {"time": 143762, "pitch": 38, "duration": 120, "velocity": 127}, {"time": 144002, "pitch": 38, "duration": 120, "velocity": 127}, {"time": 144242, "pitch": 38, "duration": 120, "velocity": 127}, {"time": 144482, "pitch": 38, "duration": 120, "velocity": 127}, {"time": 144722, "pitch": 38, "duration": 120, "velocity": 127}, {"time": 144962, "pitch": 38, "duration": 120, "velocity": 127}, {"time": 145202, "pitch": 38, "duration": 120, "velocity": 127}, {"time": 145442, "pitch": 38, "duration": 120, "velocity": 127}, {"time": 145682, "pitch": 38, "duration": 120, "velocity": 127}, {"time": 145922, "pitch": 38, "duration": 120, "velocity": 127}, {"time": 146162, "pitch": 38, "duration": 120, "velocity": 127}, {"time": 146282, "pitch": 36, "duration": 120, "velocity": 127}, {"time": 146402, "pitch": 34, "duration": 120, "velocity": 127}, {"time": 146642, "pitch": 34, "duration": 120, "velocity": 127}, {"time": 146882, "pitch": 34, "duration": 120, "velocity": 127}, {"time": 147122, "pitch": 34, "duration": 120, "velocity": 127}, {"time": 147362, "pitch": 34, "duration": 120, "velocity": 127}, {"time": 147602, "pitch": 34, "duration": 120, "velocity": 127}, {"time": 147842, "pitch": 34, "duration": 120, "velocity": 127}, {"time": 148082, "pitch": 34, "duration": 120, "velocity": 127}, {"time": 148322, "pitch": 34, "duration": 120, "velocity": 127}, {"time": 148562, "pitch": 34, "duration": 120, "velocity": 127}, {"time": 148802, "pitch": 34, "duration": 120, "velocity": 127}, {"time": 149042, "pitch": 34, "duration": 120, "velocity": 127}, {"time": 149282, "pitch": 34, "duration": 120, "velocity": 127}, {"time": 149522, "pitch": 32, "duration": 120, "velocity": 127}, {"time": 149762, "pitch": 34, "duration": 120, "velocity": 127}, {"time": 150002, "pitch": 36, "duration": 120, "velocity": 127}, {"time": 150122, "pitch": 36, "duration": 120, "velocity": 127}, {"time": 150242, "pitch": 36, "duration": 120, "velocity": 127}, {"time": 150482, "pitch": 36, "duration": 120, "velocity": 127}, {"time": 150722, "pitch": 36, "duration": 120, "velocity": 127}, {"time": 150962, "pitch": 36, "duration": 120, "velocity": 127}, {"time": 151202, "pitch": 36, "duration": 120, "velocity": 127}, {"time": 151442, "pitch": 36, "duration": 120, "velocity": 127}, {"time": 151682, "pitch": 36, "duration": 120, "velocity": 127}, {"time": 151922, "pitch": 36, "duration": 120, "velocity": 127}, {"time": 152162, "pitch": 36, "duration": 120, "velocity": 127}, {"time": 152402, "pitch": 36, "duration": 120, "velocity": 127}, {"time": 152642, "pitch": 36, "duration": 120, "velocity": 127}, {"time": 152882, "pitch": 36, "duration": 120, "velocity": 127}, {"time": 153122, "pitch": 36, "duration": 120, "velocity": 127}, {"time": 153362, "pitch": 36, "duration": 120, "velocity": 127}, {"time": 153602, "pitch": 36, "duration": 120, "velocity": 127}, {"time": 153842, "pitch": 36, "duration": 120, "velocity": 127}, {"time": 153962, "pitch": 38, "duration": 120, "velocity": 127}, {"time": 154082, "pitch": 34, "duration": 120, "velocity": 127}, {"time": 154322, "pitch": 34, "duration": 120, "velocity": 127}, {"time": 154562, "pitch": 34, "duration": 120, "velocity": 127}, {"time": 154802, "pitch": 34, "duration": 120, "velocity": 127}, {"time": 155042, "pitch": 34, "duration": 120, "velocity": 127}, {"time": 155282, "pitch": 34, "duration": 120, "velocity": 127}, {"time": 155522, "pitch": 34, "duration": 120, "velocity": 127}, {"time": 155762, "pitch": 34, "duration": 120, "velocity": 127}, {"time": 156002, "pitch": 34, "duration": 120, "velocity": 127}, {"time": 156242, "pitch": 34, "duration": 120, "velocity": 127}, {"time": 156482, "pitch": 34, "duration": 120, "velocity": 127}, {"time": 156722, "pitch": 34, "duration": 120, "velocity": 127}, {"time": 156962, "pitch": 34, "duration": 120, "velocity": 127}, {"time": 157202, "pitch": 34, "duration": 120, "velocity": 127}, {"time": 157442, "pitch": 34, "duration": 120, "velocity": 127}, {"time": 157682, "pitch": 32, "duration": 120, "velocity": 127}, {"time": 157802, "pitch": 34, "duration": 120, "velocity": 127}, {"time": 157922, "pitch": 36, "duration": 120, "velocity": 127}, {"time": 158162, "pitch": 36, "duration": 120, "velocity": 127}, {"time": 158402, "pitch": 36, "duration": 120, "velocity": 127}, {"time": 158642, "pitch": 36, "duration": 120, "velocity": 127}, {"time": 158882, "pitch": 36, "duration": 120, "velocity": 127}, {"time": 159122, "pitch": 36, "duration": 120, "velocity": 127}, {"time": 159362, "pitch": 36, "duration": 120, "velocity": 127}, {"time": 159602, "pitch": 36, "duration": 120, "velocity": 127}, {"time": 159842, "pitch": 36, "duration": 120, "velocity": 127}, {"time": 160082, "pitch": 36, "duration": 120, "velocity": 127}, {"time": 160322, "pitch": 36, "duration": 120, "velocity": 127}, {"time": 160562, "pitch": 36, "duration": 120, "velocity": 127}, {"time": 160802, "pitch": 36, "duration": 120, "velocity": 127}, {"time": 161042, "pitch": 36, "duration": 120, "velocity": 127}, {"time": 161282, "pitch": 36, "duration": 120, "velocity": 127}, {"time": 161522, "pitch": 36, "duration": 120, "velocity": 127}, {"time": 161642, "pitch": 38, "duration": 120, "velocity": 127}, {"time": 161762, "pitch": 34, "duration": 120, "velocity": 127}, {"time": 162002, "pitch": 34, "duration": 120, "velocity": 127}, {"time": 162242, "pitch": 34, "duration": 120, "velocity": 127}, {"time": 162482, "pitch": 34, "duration": 120, "velocity": 127}, {"time": 162722, "pitch": 34, "duration": 120, "velocity": 127}, {"time": 162962, "pitch": 34, "duration": 120, "velocity": 127}, {"time": 163202, "pitch": 34, "duration": 120, "velocity": 127}, {"time": 163442, "pitch": 34, "duration": 120, "velocity": 127}, {"time": 163922, "pitch": 36, "duration": 120, "velocity": 127}, {"time": 164162, "pitch": 36, "duration": 120, "velocity": 127}, {"time": 164642, "pitch": 36, "duration": 120, "velocity": 127}, {"time": 165002, "pitch": 36, "duration": 120, "velocity": 127}, {"time": 165362, "pitch": 36, "duration": 120, "velocity": 127}, {"time": 165590, "pitch": 31, "duration": 120, "velocity": 127}, {"time": 165842, "pitch": 31, "duration": 120, "velocity": 127}, {"time": 166082, "pitch": 31, "duration": 120, "velocity": 127}, {"time": 166322, "pitch": 31, "duration": 120, "velocity": 127}, {"time": 166562, "pitch": 31, "duration": 120, "velocity": 127}, {"time": 166802, "pitch": 31, "duration": 120, "velocity": 127}, {"time": 167042, "pitch": 31, "duration": 120, "velocity": 127}, {"time": 167162, "pitch": 43, "duration": 120, "velocity": 127}, {"time": 167282, "pitch": 31, "duration": 120, "velocity": 127}, {"time": 167522, "pitch": 33, "duration": 120, "velocity": 127}, {"time": 167762, "pitch": 33, "duration": 120, "velocity": 127}, {"time": 168002, "pitch": 33, "duration": 120, "velocity": 127}, {"time": 168242, "pitch": 33, "duration": 120, "velocity": 127}, {"time": 168482, "pitch": 33, "duration": 120, "velocity": 127}, {"time": 168722, "pitch": 33, "duration": 120, "velocity": 127}, {"time": 168962, "pitch": 33, "duration": 120, "velocity": 127}, {"time": 169082, "pitch": 45, "duration": 120, "velocity": 127}, {"time": 169202, "pitch": 33, "duration": 120, "velocity": 127}, {"time": 169442, "pitch": 34, "duration": 120, "velocity": 127}, {"time": 169682, "pitch": 34, "duration": 120, "velocity": 127}, {"time": 169922, "pitch": 34, "duration": 120, "velocity": 127}, {"time": 170162, "pitch": 34, "duration": 120, "velocity": 127}, {"time": 170402, "pitch": 34, "duration": 120, "velocity": 127}, {"time": 170642, "pitch": 34, "duration": 120, "velocity": 127}, {"time": 170882, "pitch": 34, "duration": 120, "velocity": 127}, {"time": 171002, "pitch": 46, "duration": 120, "velocity": 127}, {"time": 171122, "pitch": 34, "duration": 120, "velocity": 127}, {"time": 171362, "pitch": 36, "duration": 120, "velocity": 127}, {"time": 171602, "pitch": 36, "duration": 120, "velocity": 127}, {"time": 171842, "pitch": 36, "duration": 120, "velocity": 127}, {"time": 172082, "pitch": 36, "duration": 120, "velocity": 127}, {"time": 172322, "pitch": 36, "duration": 120, "velocity": 127}, {"time": 172562, "pitch": 36, "duration": 120, "velocity": 127}, {"time": 172802, "pitch": 36, "duration": 120, "velocity": 127}, {"time": 172922, "pitch": 48, "duration": 120, "velocity": 127}, {"time": 173042, "pitch": 36, "duration": 120, "velocity": 127}, {"time": 173282, "pitch": 31, "duration": 120, "velocity": 127}, {"time": 173522, "pitch": 31, "duration": 120, "velocity": 127}, {"time": 173762, "pitch": 31, "duration": 120, "velocity": 127}, {"time": 174002, "pitch": 31, "duration": 120, "velocity": 127}, {"time": 174242, "pitch": 31, "duration": 120, "velocity": 127}, {"time": 174482, "pitch": 31, "duration": 120, "velocity": 127}, {"time": 174722, "pitch": 31, "duration": 120, "velocity": 127}, {"time": 174842, "pitch": 43, "duration": 120, "velocity": 127}, {"time": 174962, "pitch": 31, "duration": 120, "velocity": 127}, {"time": 175202, "pitch": 33, "duration": 120, "velocity": 127}, {"time": 175442, "pitch": 33, "duration": 120, "velocity": 127}, {"time": 175682, "pitch": 33, "duration": 120, "velocity": 127}, {"time": 175922, "pitch": 33, "duration": 120, "velocity": 127}, {"time": 176162, "pitch": 33, "duration": 120, "velocity": 127}, {"time": 176402, "pitch": 33, "duration": 120, "velocity": 127}, {"time": 176642, "pitch": 33, "duration": 120, "velocity": 127}, {"time": 176762, "pitch": 45, "duration": 120, "velocity": 127}, {"time": 176882, "pitch": 33, "duration": 120, "velocity": 127}, {"time": 177122, "pitch": 34, "duration": 120, "velocity": 127}, {"time": 177362, "pitch": 34, "duration": 120, "velocity": 127}, {"time": 177602, "pitch": 34, "duration": 120, "velocity": 127}, {"time": 177842, "pitch": 34, "duration": 120, "velocity": 127}, {"time": 178082, "pitch": 34, "duration": 120, "velocity": 127}, {"time": 178322, "pitch": 34, "duration": 120, "velocity": 127}, {"time": 178562, "pitch": 34, "duration": 120, "velocity": 127}, {"time": 178682, "pitch": 46, "duration": 120, "velocity": 127}, {"time": 178802, "pitch": 34, "duration": 120, "velocity": 127}, {"time": 179282, "pitch": 36, "duration": 120, "velocity": 127}, {"time": 179282, "pitch": 48, "duration": 120, "velocity": 127}, {"time": 179522, "pitch": 36, "duration": 120, "velocity": 127}, {"time": 179522, "pitch": 48, "duration": 120, "velocity": 127}, {"time": 180002, "pitch": 36, "duration": 120, "velocity": 127}, {"time": 180002, "pitch": 48, "duration": 120, "velocity": 127}, {"time": 180362, "pitch": 36, "duration": 120, "velocity": 127}, {"time": 180362, "pitch": 48, "duration": 120, "velocity": 127}, {"time": 180722, "pitch": 36, "duration": 120, "velocity": 127}, {"time": 180722, "pitch": 48, "duration": 120, "velocity": 127}, {"time": 180962, "pitch": 17, "duration": 120, "velocity": 127}, {"time": 181082, "pitch": 29, "duration": 120, "velocity": 127}, {"time": 181202, "pitch": 41, "duration": 120, "velocity": 127}, {"time": 181322, "pitch": 29, "duration": 120, "velocity": 127}, {"time": 181442, "pitch": 17, "duration": 120, "velocity": 127}, {"time": 181562, "pitch": 29, "duration": 120, "velocity": 127}, {"time": 181682, "pitch": 41, "duration": 120, "velocity": 127}, {"time": 181802, "pitch": 29, "duration": 120, "velocity": 127}, {"time": 181922, "pitch": 17, "duration": 120, "velocity": 127}, {"time": 182042, "pitch": 29, "duration": 120, "velocity": 127}, {"time": 182162, "pitch": 41, "duration": 120, "velocity": 127}, {"time": 182282, "pitch": 29, "duration": 120, "velocity": 127}, {"time": 182402, "pitch": 17, "duration": 120, "velocity": 127}, {"time": 182522, "pitch": 29, "duration": 120, "velocity": 127}, {"time": 182642, "pitch": 41, "duration": 120, "velocity": 127}, {"time": 182762, "pitch": 29, "duration": 120, "velocity": 127}, {"time": 182882, "pitch": 19, "duration": 120, "velocity": 127}, {"time": 183002, "pitch": 31, "duration": 120, "velocity": 127}, {"time": 183122, "pitch": 43, "duration": 120, "velocity": 127}, {"time": 183242, "pitch": 31, "duration": 120, "velocity": 127}, {"time": 183362, "pitch": 19, "duration": 120, "velocity": 127}, {"time": 183482, "pitch": 31, "duration": 120, "velocity": 127}, {"time": 183602, "pitch": 43, "duration": 120, "velocity": 127}, {"time": 183722, "pitch": 31, "duration": 120, "velocity": 127}, {"time": 183842, "pitch": 19, "duration": 120, "velocity": 127}, {"time": 183962, "pitch": 31, "duration": 120, "velocity": 127}, {"time": 184082, "pitch": 43, "duration": 120, "velocity": 127}, {"time": 184202, "pitch": 31, "duration": 120, "velocity": 127}, {"time": 184322, "pitch": 19, "duration": 120, "velocity": 127}, {"time": 184442, "pitch": 31, "duration": 120, "velocity": 127}, {"time": 184562, "pitch": 43, "duration": 120, "velocity": 127}, {"time": 184682, "pitch": 31, "duration": 120, "velocity": 127}, {"time": 184802, "pitch": 22, "duration": 120, "velocity": 127}, {"time": 184922, "pitch": 34, "duration": 120, "velocity": 127}, {"time": 185042, "pitch": 46, "duration": 120, "velocity": 127}, {"time": 185162, "pitch": 34, "duration": 120, "velocity": 127}, {"time": 185282, "pitch": 22, "duration": 120, "velocity": 127}, {"time": 185402, "pitch": 34, "duration": 120, "velocity": 127}, {"time": 185522, "pitch": 46, "duration": 120, "velocity": 127}, {"time": 185642, "pitch": 34, "duration": 120, "velocity": 127}, {"time": 185762, "pitch": 22, "duration": 120, "velocity": 127}, {"time": 185882, "pitch": 34, "duration": 120, "velocity": 127}, {"time": 186002, "pitch": 46, "duration": 120, "velocity": 127}, {"time": 186122, "pitch": 34, "duration": 120, "velocity": 127}, {"time": 186242, "pitch": 22, "duration": 120, "velocity": 127}, {"time": 186362, "pitch": 34, "duration": 120, "velocity": 127}, {"time": 186482, "pitch": 46, "duration": 120, "velocity": 127}, {"time": 186602, "pitch": 34, "duration": 120, "velocity": 127}, {"time": 186722, "pitch": 24, "duration": 120, "velocity": 127}, {"time": 186842, "pitch": 36, "duration": 120, "velocity": 127}, {"time": 186962, "pitch": 48, "duration": 120, "velocity": 127}, {"time": 187082, "pitch": 36, "duration": 120, "velocity": 127}, {"time": 187202, "pitch": 24, "duration": 120, "velocity": 127}, {"time": 187322, "pitch": 36, "duration": 120, "velocity": 127}, {"time": 187442, "pitch": 48, "duration": 120, "velocity": 127}, {"time": 187562, "pitch": 36, "duration": 120, "velocity": 127}, {"time": 187682, "pitch": 24, "duration": 120, "velocity": 127}, {"time": 187802, "pitch": 36, "duration": 120, "velocity": 127}, {"time": 187922, "pitch": 48, "duration": 120, "velocity": 127}, {"time": 188042, "pitch": 36, "duration": 120, "velocity": 127}, {"time": 188162, "pitch": 24, "duration": 120, "velocity": 127}, {"time": 188282, "pitch": 36, "duration": 120, "velocity": 127}, {"time": 188402, "pitch": 48, "duration": 120, "velocity": 127}, {"time": 188522, "pitch": 36, "duration": 120, "velocity": 127}, {"time": 188642, "pitch": 17, "duration": 120, "velocity": 127}, {"time": 188762, "pitch": 29, "duration": 120, "velocity": 127}, {"time": 188882, "pitch": 41, "duration": 120, "velocity": 127}, {"time": 189002, "pitch": 29, "duration": 120, "velocity": 127}, {"time": 189122, "pitch": 17, "duration": 120, "velocity": 127}, {"time": 189242, "pitch": 29, "duration": 120, "velocity": 127}, {"time": 189362, "pitch": 41, "duration": 120, "velocity": 127}, {"time": 189482, "pitch": 29, "duration": 120, "velocity": 127}, {"time": 189602, "pitch": 17, "duration": 120, "velocity": 127}, {"time": 189722, "pitch": 29, "duration": 120, "velocity": 127}, {"time": 189842, "pitch": 41, "duration": 120, "velocity": 127}, {"time": 189962, "pitch": 29, "duration": 120, "velocity": 127}, {"time": 190082, "pitch": 17, "duration": 120, "velocity": 127}, {"time": 190202, "pitch": 29, "duration": 120, "velocity": 127}, {"time": 190322, "pitch": 41, "duration": 120, "velocity": 127}, {"time": 190442, "pitch": 29, "duration": 120, "velocity": 127}, {"time": 190562, "pitch": 19, "duration": 120, "velocity": 127}, {"time": 190682, "pitch": 31, "duration": 120, "velocity": 127}, {"time": 190802, "pitch": 43, "duration": 120, "velocity": 127}, {"time": 190922, "pitch": 31, "duration": 120, "velocity": 127}, {"time": 191042, "pitch": 19, "duration": 120, "velocity": 127}, {"time": 191162, "pitch": 31, "duration": 120, "velocity": 127}, {"time": 191282, "pitch": 43, "duration": 120, "velocity": 127}, {"time": 191402, "pitch": 31, "duration": 120, "velocity": 127}, {"time": 191522, "pitch": 19, "duration": 120, "velocity": 127}, {"time": 191642, "pitch": 31, "duration": 120, "velocity": 127}, {"time": 191762, "pitch": 43, "duration": 120, "velocity": 127}, {"time": 191882, "pitch": 31, "duration": 120, "velocity": 127}, {"time": 192002, "pitch": 19, "duration": 120, "velocity": 127}, {"time": 192122, "pitch": 31, "duration": 120, "velocity": 127}, {"time": 192242, "pitch": 43, "duration": 120, "velocity": 127}, {"time": 192362, "pitch": 31, "duration": 120, "velocity": 127}, {"time": 192482, "pitch": 22, "duration": 120, "velocity": 127}, {"time": 192602, "pitch": 34, "duration": 120, "velocity": 127}, {"time": 192722, "pitch": 46, "duration": 120, "velocity": 127}, {"time": 192842, "pitch": 34, "duration": 120, "velocity": 127}, {"time": 192962, "pitch": 22, "duration": 120, "velocity": 127}, {"time": 193082, "pitch": 34, "duration": 120, "velocity": 127}, {"time": 193202, "pitch": 46, "duration": 120, "velocity": 127}, {"time": 193322, "pitch": 34, "duration": 120, "velocity": 127}, {"time": 193442, "pitch": 22, "duration": 120, "velocity": 127}, {"time": 193562, "pitch": 34, "duration": 120, "velocity": 127}, {"time": 193682, "pitch": 46, "duration": 120, "velocity": 127}, {"time": 193802, "pitch": 34, "duration": 120, "velocity": 127}, {"time": 193922, "pitch": 22, "duration": 120, "velocity": 127}, {"time": 194042, "pitch": 34, "duration": 120, "velocity": 127}, {"time": 194162, "pitch": 46, "duration": 120, "velocity": 127}, {"time": 194282, "pitch": 34, "duration": 120, "velocity": 127}, {"time": 194402, "pitch": 24, "duration": 120, "velocity": 127}, {"time": 194522, "pitch": 36, "duration": 120, "velocity": 127}, {"time": 194642, "pitch": 48, "duration": 120, "velocity": 127}, {"time": 194762, "pitch": 36, "duration": 120, "velocity": 127}, {"time": 194882, "pitch": 24, "duration": 120, "velocity": 127}, {"time": 195002, "pitch": 36, "duration": 120, "velocity": 127}, {"time": 195122, "pitch": 48, "duration": 120, "velocity": 127}, {"time": 195242, "pitch": 36, "duration": 120, "velocity": 127}, {"time": 195362, "pitch": 24, "duration": 120, "velocity": 127}, {"time": 195482, "pitch": 36, "duration": 120, "velocity": 127}, {"time": 195602, "pitch": 48, "duration": 120, "velocity": 127}, {"time": 195722, "pitch": 36, "duration": 120, "velocity": 127}, {"time": 195842, "pitch": 24, "duration": 120, "velocity": 127}, {"time": 195962, "pitch": 36, "duration": 120, "velocity": 127}, {"time": 196082, "pitch": 48, "duration": 120, "velocity": 127}, {"time": 196202, "pitch": 36, "duration": 120, "velocity": 127}, {"time": 196562, "pitch": 29, "duration": 120, "velocity": 127}, {"time": 196802, "pitch": 29, "duration": 120, "velocity": 127}, {"time": 197042, "pitch": 29, "duration": 120, "velocity": 127}, {"time": 197282, "pitch": 29, "duration": 120, "velocity": 127}, {"time": 197522, "pitch": 29, "duration": 120, "velocity": 127}, {"time": 197762, "pitch": 29, "duration": 120, "velocity": 127}, {"time": 197882, "pitch": 41, "duration": 120, "velocity": 127}, {"time": 198002, "pitch": 29, "duration": 120, "velocity": 127}, {"time": 198482, "pitch": 29, "duration": 120, "velocity": 127}, {"time": 198722, "pitch": 29, "duration": 120, "velocity": 127}, {"time": 198962, "pitch": 29, "duration": 120, "velocity": 127}, {"time": 199202, "pitch": 29, "duration": 120, "velocity": 127}, {"time": 199442, "pitch": 29, "duration": 120, "velocity": 127}, {"time": 199682, "pitch": 29, "duration": 120, "velocity": 127}, {"time": 199802, "pitch": 41, "duration": 120, "velocity": 127}, {"time": 199922, "pitch": 29, "duration": 120, "velocity": 127}, {"time": 200402, "pitch": 29, "duration": 120, "velocity": 127}, {"time": 200642, "pitch": 29, "duration": 120, "velocity": 127}, {"time": 200882, "pitch": 29, "duration": 120, "velocity": 127}, {"time": 201122, "pitch": 29, "duration": 120, "velocity": 127}, {"time": 201362, "pitch": 29, "duration": 120, "velocity": 127}, {"time": 201602, "pitch": 29, "duration": 120, "velocity": 127}, {"time": 201722, "pitch": 41, "duration": 120, "velocity": 127}, {"time": 201842, "pitch": 29, "duration": 120, "velocity": 127}, {"time": 202322, "pitch": 29, "duration": 120, "velocity": 127}, {"time": 202562, "pitch": 29, "duration": 120, "velocity": 127}, {"time": 202802, "pitch": 29, "duration": 120, "velocity": 127}, {"time": 203042, "pitch": 29, "duration": 120, "velocity": 127}, {"time": 203282, "pitch": 29, "duration": 120, "velocity": 127}, {"time": 203522, "pitch": 29, "duration": 120, "velocity": 127}, {"time": 203642, "pitch": 41, "duration": 120, "velocity": 127}, {"time": 203762, "pitch": 29, "duration": 120, "velocity": 127}, {"time": 204002, "pitch": 29, "duration": 3840, "velocity": 127}, {"time": 13920, "pitch": 36, "duration": 9602, "velocity": 120}, {"time": 13920, "pitch": 48, "duration": 9602, "velocity": 120}, {"time": 13920, "pitch": 60, "duration": 9602, "velocity": 120}, {"time": 35042, "pitch": 38, "duration": 120, "velocity": 127}, {"time": 35282, "pitch": 38, "duration": 120, "velocity": 127}, {"time": 35522, "pitch": 38, "duration": 120, "velocity": 127}, {"time": 35762, "pitch": 38, "duration": 120, "velocity": 127}, {"time": 36002, "pitch": 38, "duration": 120, "velocity": 127}, {"time": 36242, "pitch": 38, "duration": 120, "velocity": 127}, {"time": 36482, "pitch": 38, "duration": 120, "velocity": 127}, {"time": 36602, "pitch": 50, "duration": 120, "velocity": 127}, {"time": 36722, "pitch": 38, "duration": 120, "velocity": 127}, {"time": 36962, "pitch": 38, "duration": 120, "velocity": 127}, {"time": 37202, "pitch": 38, "duration": 120, "velocity": 127}, {"time": 37442, "pitch": 38, "duration": 120, "velocity": 127}, {"time": 37682, "pitch": 38, "duration": 120, "velocity": 127}, {"time": 37922, "pitch": 38, "duration": 120, "velocity": 127}, {"time": 38042, "pitch": 50, "duration": 120, "velocity": 127}, {"time": 38162, "pitch": 38, "duration": 120, "velocity": 127}, {"time": 38402, "pitch": 38, "duration": 120, "velocity": 127}, {"time": 38522, "pitch": 50, "duration": 120, "velocity": 127}, {"time": 38642, "pitch": 38, "duration": 120, "velocity": 127}, {"time": 38882, "pitch": 34, "duration": 120, "velocity": 127}, {"time": 39122, "pitch": 34, "duration": 120, "velocity": 127}, {"time": 39362, "pitch": 34, "duration": 120, "velocity": 127}, {"time": 39602, "pitch": 34, "duration": 120, "velocity": 127}, {"time": 39842, "pitch": 34, "duration": 120, "velocity": 127}, {"time": 40082, "pitch": 34, "duration": 120, "velocity": 127}, {"time": 40322, "pitch": 34, "duration": 120, "velocity": 127}, {"time": 40442, "pitch": 46, "duration": 120, "velocity": 127}, {"time": 40562, "pitch": 34, "duration": 120, "velocity": 127}, {"time": 40802, "pitch": 34, "duration": 120, "velocity": 127}, {"time": 41042, "pitch": 34, "duration": 120, "velocity": 127}, {"time": 41282, "pitch": 34, "duration": 120, "velocity": 127}, {"time": 41522, "pitch": 34, "duration": 120, "velocity": 127}, {"time": 41762, "pitch": 34, "duration": 120, "velocity": 127}, {"time": 41882, "pitch": 46, "duration": 120, "velocity": 127}, {"time": 42002, "pitch": 34, "duration": 120, "velocity": 127}, {"time": 42242, "pitch": 34, "duration": 120, "velocity": 127}, {"time": 42362, "pitch": 46, "duration": 120, "velocity": 127}, {"time": 42482, "pitch": 34, "duration": 120, "velocity": 127}, {"time": 42722, "pitch": 38, "duration": 120, "velocity": 127}, {"time": 42962, "pitch": 38, "duration": 120, "velocity": 127}, {"time": 43202, "pitch": 38, "duration": 120, "velocity": 127}, {"time": 43442, "pitch": 38, "duration": 120, "velocity": 127}, {"time": 43682, "pitch": 38, "duration": 120, "velocity": 127}, {"time": 43922, "pitch": 38, "duration": 120, "velocity": 127}, {"time": 44162, "pitch": 38, "duration": 120, "velocity": 127}, {"time": 44282, "pitch": 50, "duration": 120, "velocity": 127}, {"time": 44402, "pitch": 38, "duration": 120, "velocity": 127}, {"time": 44642, "pitch": 38, "duration": 120, "velocity": 127}, {"time": 44882, "pitch": 38, "duration": 120, "velocity": 127}, {"time": 45122, "pitch": 38, "duration": 120, "velocity": 127}, {"time": 45362, "pitch": 38, "duration": 120, "velocity": 127}, {"time": 45602, "pitch": 38, "duration": 120, "velocity": 127}, {"time": 45722, "pitch": 50, "duration": 120, "velocity": 127}, {"time": 45842, "pitch": 38, "duration": 120, "velocity": 127}, {"time": 46082, "pitch": 38, "duration": 120, "velocity": 127}, {"time": 46202, "pitch": 50, "duration": 120, "velocity": 127}, {"time": 46322, "pitch": 38, "duration": 120, "velocity": 127}, {"time": 46562, "pitch": 34, "duration": 120, "velocity": 127}, {"time": 46802, "pitch": 34, "duration": 120, "velocity": 127}, {"time": 47042, "pitch": 34, "duration": 120, "velocity": 127}, {"time": 47282, "pitch": 34, "duration": 120, "velocity": 127}, {"time": 47522, "pitch": 34, "duration": 120, "velocity": 127}, {"time": 47762, "pitch": 34, "duration": 120, "velocity": 127}, {"time": 48002, "pitch": 34, "duration": 120, "velocity": 127}, {"time": 48122, "pitch": 46, "duration": 120, "velocity": 127}, {"time": 48242, "pitch": 34, "duration": 120, "velocity": 127}, {"time": 48482, "pitch": 34, "duration": 120, "velocity": 127}, {"time": 48722, "pitch": 34, "duration": 120, "velocity": 127}, {"time": 48962, "pitch": 34, "duration": 120, "velocity": 127}, {"time": 49202, "pitch": 34, "duration": 120, "velocity": 127}, {"time": 49442, "pitch": 34, "duration": 120, "velocity": 127}, {"time": 49682, "pitch": 34, "duration": 120, "velocity": 127}, {"time": 49922, "pitch": 34, "duration": 120, "velocity": 127}, {"time": 50042, "pitch": 46, "duration": 120, "velocity": 127}, {"time": 50162, "pitch": 34, "duration": 120, "velocity": 127}, {"time": 50402, "pitch": 36, "duration": 120, "velocity": 127}, {"time": 50642, "pitch": 36, "duration": 120, "velocity": 127}, {"time": 50882, "pitch": 36, "duration": 120, "velocity": 127}, {"time": 51122, "pitch": 36, "duration": 120, "velocity": 127}, {"time": 51362, "pitch": 36, "duration": 120, "velocity": 127}, {"time": 51602, "pitch": 36, "duration": 120, "velocity": 127}, {"time": 51842, "pitch": 36, "duration": 120, "velocity": 127}, {"time": 51962, "pitch": 48, "duration": 120, "velocity": 127}, {"time": 52082, "pitch": 36, "duration": 120, "velocity": 127}, {"time": 52322, "pitch": 36, "duration": 120, "velocity": 127}, {"time": 52562, "pitch": 36, "duration": 120, "velocity": 127}, {"time": 52802, "pitch": 36, "duration": 120, "velocity": 127}, {"time": 53042, "pitch": 36, "duration": 120, "velocity": 127}, {"time": 53282, "pitch": 36, "duration": 120, "velocity": 127}, {"time": 53402, "pitch": 48, "duration": 120, "velocity": 127}, {"time": 53522, "pitch": 36, "duration": 120, "velocity": 127}, {"time": 53762, "pitch": 36, "duration": 120, "velocity": 127}, {"time": 53882, "pitch": 48, "duration": 120, "velocity": 127}, {"time": 54002, "pitch": 36, "duration": 120, "velocity": 127}, {"time": 54242, "pitch": 34, "duration": 120, "velocity": 127}, {"time": 54482, "pitch": 34, "duration": 120, "velocity": 127}, {"time": 54722, "pitch": 34, "duration": 120, "velocity": 127}, {"time": 54962, "pitch": 34, "duration": 120, "velocity": 127}, {"time": 55202, "pitch": 34, "duration": 120, "velocity": 127}, {"time": 55442, "pitch": 34, "duration": 120, "velocity": 127}, {"time": 55682, "pitch": 34, "duration": 120, "velocity": 127}, {"time": 55802, "pitch": 46, "duration": 120, "velocity": 127}, {"time": 55922, "pitch": 34, "duration": 120, "velocity": 127}, {"time": 56162, "pitch": 34, "duration": 120, "velocity": 127}, {"time": 56402, "pitch": 34, "duration": 120, "velocity": 127}, {"time": 56642, "pitch": 34, "duration": 120, "velocity": 127}, {"time": 56882, "pitch": 34, "duration": 120, "velocity": 127}, {"time": 57122, "pitch": 34, "duration": 120, "velocity": 127}, {"time": 57362, "pitch": 34, "duration": 120, "velocity": 127}, {"time": 57602, "pitch": 34, "duration": 120, "velocity": 127}, {"time": 57722, "pitch": 46, "duration": 120, "velocity": 127}, {"time": 57842, "pitch": 34, "duration": 120, "velocity": 127}, {"time": 58082, "pitch": 36, "duration": 120, "velocity": 127}, {"time": 58322, "pitch": 36, "duration": 120, "velocity": 127}, {"time": 58562, "pitch": 36, "duration": 120, "velocity": 127}, {"time": 58802, "pitch": 36, "duration": 120, "velocity": 127}, {"time": 59042, "pitch": 36, "duration": 120, "velocity": 127}, {"time": 59282, "pitch": 36, "duration": 120, "velocity": 127}, {"time": 59522, "pitch": 36, "duration": 120, "velocity": 127}, {"time": 59642, "pitch": 48, "duration": 120, "velocity": 127}, {"time": 59762, "pitch": 36, "duration": 120, "velocity": 127}, {"time": 60002, "pitch": 36, "duration": 120, "velocity": 127}, {"time": 60242, "pitch": 36, "duration": 120, "velocity": 127}, {"time": 60482, "pitch": 36, "duration": 120, "velocity": 127}, {"time": 60722, "pitch": 36, "duration": 120, "velocity": 127}, {"time": 60962, "pitch": 36, "duration": 120, "velocity": 127}, {"time": 61202, "pitch": 36, "duration": 120, "velocity": 127}, {"time": 61442, "pitch": 36, "duration": 120, "velocity": 127}, {"time": 61562, "pitch": 48, "duration": 120, "velocity": 127}, {"time": 61682, "pitch": 36, "duration": 120, "velocity": 127}, {"time": 61922, "pitch": 34, "duration": 120, "velocity": 127}, {"time": 62162, "pitch": 34, "duration": 120, "velocity": 127}, {"time": 62402, "pitch": 34, "duration": 120, "velocity": 127}, {"time": 62642, "pitch": 34, "duration": 120, "velocity": 127}, {"time": 62882, "pitch": 34, "duration": 120, "velocity": 127}, {"time": 63122, "pitch": 34, "duration": 120, "velocity": 127}, {"time": 63362, "pitch": 34, "duration": 120, "velocity": 127}, {"time": 63482, "pitch": 46, "duration": 120, "velocity": 127}, {"time": 63602, "pitch": 34, "duration": 120, "velocity": 127}, {"time": 63842, "pitch": 34, "duration": 120, "velocity": 127}, {"time": 64082, "pitch": 36, "duration": 120, "velocity": 127}, {"time": 64322, "pitch": 48, "duration": 120, "velocity": 127}, {"time": 64562, "pitch": 36, "duration": 120, "velocity": 127}, {"time": 64802, "pitch": 48, "duration": 120, "velocity": 127}, {"time": 65042, "pitch": 36, "duration": 120, "velocity": 127}, {"time": 65162, "pitch": 48, "duration": 120, "velocity": 127}, {"time": 65402, "pitch": 36, "duration": 120, "velocity": 127}, {"time": 65522, "pitch": 48, "duration": 120, "velocity": 127}, {"time": 65762, "pitch": 38, "duration": 120, "velocity": 127}, {"time": 66002, "pitch": 38, "duration": 120, "velocity": 127}, {"time": 66242, "pitch": 38, "duration": 120, "velocity": 127}, {"time": 66482, "pitch": 38, "duration": 120, "velocity": 127}, {"time": 66722, "pitch": 38, "duration": 120, "velocity": 127}, {"time": 66962, "pitch": 38, "duration": 120, "velocity": 127}, {"time": 67202, "pitch": 38, "duration": 120, "velocity": 127}, {"time": 67322, "pitch": 50, "duration": 120, "velocity": 127}, {"time": 67442, "pitch": 38, "duration": 120, "velocity": 127}, {"time": 67682, "pitch": 38, "duration": 120, "velocity": 127}, {"time": 67922, "pitch": 38, "duration": 120, "velocity": 127}, {"time": 68162, "pitch": 38, "duration": 120, "velocity": 127}, {"time": 68402, "pitch": 38, "duration": 120, "velocity": 127}, {"time": 68642, "pitch": 38, "duration": 120, "velocity": 127}, {"time": 68762, "pitch": 50, "duration": 120, "velocity": 127}, {"time": 68882, "pitch": 38, "duration": 120, "velocity": 127}, {"time": 69122, "pitch": 38, "duration": 120, "velocity": 127}, {"time": 69242, "pitch": 50, "duration": 120, "velocity": 127}, {"time": 69362, "pitch": 38, "duration": 120, "velocity": 127}, {"time": 69602, "pitch": 34, "duration": 120, "velocity": 127}, {"time": 69842, "pitch": 34, "duration": 120, "velocity": 127}, {"time": 70082, "pitch": 34, "duration": 120, "velocity": 127}, {"time": 70322, "pitch": 34, "duration": 120, "velocity": 127}, {"time": 70562, "pitch": 34, "duration": 120, "velocity": 127}, {"time": 70802, "pitch": 34, "duration": 120, "velocity": 127}, {"time": 71042, "pitch": 34, "duration": 120, "velocity": 127}, {"time": 71162, "pitch": 46, "duration": 120, "velocity": 127}, {"time": 71282, "pitch": 34, "duration": 120, "velocity": 127}, {"time": 71522, "pitch": 34, "duration": 120, "velocity": 127}, {"time": 71762, "pitch": 34, "duration": 120, "velocity": 127}, {"time": 72002, "pitch": 34, "duration": 120, "velocity": 127}, {"time": 72242, "pitch": 34, "duration": 120, "velocity": 127}, {"time": 72482, "pitch": 34, "duration": 120, "velocity": 127}, {"time": 72602, "pitch": 46, "duration": 120, "velocity": 127}, {"time": 72722, "pitch": 34, "duration": 120, "velocity": 127}, {"time": 72962, "pitch": 34, "duration": 120, "velocity": 127}, {"time": 73082, "pitch": 46, "duration": 120, "velocity": 127}, {"time": 73202, "pitch": 34, "duration": 120, "velocity": 127}, {"time": 73442, "pitch": 38, "duration": 120, "velocity": 127}, {"time": 73682, "pitch": 38, "duration": 120, "velocity": 127}, {"time": 73922, "pitch": 38, "duration": 120, "velocity": 127}, {"time": 74162, "pitch": 38, "duration": 120, "velocity": 127}, {"time": 74402, "pitch": 38, "duration": 120, "velocity": 127}, {"time": 74642, "pitch": 38, "duration": 120, "velocity": 127}, {"time": 74882, "pitch": 38, "duration": 120, "velocity": 127}, {"time": 75002, "pitch": 50, "duration": 120, "velocity": 127}, {"time": 75122, "pitch": 38, "duration": 120, "velocity": 127}, {"time": 75362, "pitch": 38, "duration": 120, "velocity": 127}, {"time": 75602, "pitch": 38, "duration": 120, "velocity": 127}, {"time": 75842, "pitch": 38, "duration": 120, "velocity": 127}, {"time": 76082, "pitch": 38, "duration": 120, "velocity": 127}, {"time": 76322, "pitch": 38, "duration": 120, "velocity": 127}, {"time": 76442, "pitch": 50, "duration": 120, "velocity": 127}, {"time": 76562, "pitch": 38, "duration": 120, "velocity": 127}, {"time": 76802, "pitch": 38, "duration": 120, "velocity": 127}, {"time": 76922, "pitch": 50, "duration": 120, "velocity": 127}, {"time": 77042, "pitch": 38, "duration": 120, "velocity": 127}, {"time": 77282, "pitch": 34, "duration": 120, "velocity": 127}, {"time": 77522, "pitch": 34, "duration": 120, "velocity": 127}, {"time": 77762, "pitch": 34, "duration": 120, "velocity": 127}, {"time": 78002, "pitch": 34, "duration": 120, "velocity": 127}, {"time": 78242, "pitch": 34, "duration": 120, "velocity": 127}, {"time": 78482, "pitch": 34, "duration": 120, "velocity": 127}, {"time": 78722, "pitch": 34, "duration": 120, "velocity": 127}, {"time": 78842, "pitch": 46, "duration": 120, "velocity": 127}, {"time": 78962, "pitch": 34, "duration": 120, "velocity": 127}, {"time": 79202, "pitch": 34, "duration": 120, "velocity": 127}, {"time": 79442, "pitch": 34, "duration": 120, "velocity": 127}, {"time": 79682, "pitch": 34, "duration": 120, "velocity": 127}, {"time": 79922, "pitch": 34, "duration": 120, "velocity": 127}, {"time": 80162, "pitch": 34, "duration": 120, "velocity": 127}, {"time": 80402, "pitch": 34, "duration": 120, "velocity": 127}, {"time": 80642, "pitch": 34, "duration": 120, "velocity": 127}, {"time": 80762, "pitch": 46, "duration": 120, "velocity": 127}, {"time": 80882, "pitch": 34, "duration": 120, "velocity": 127}, {"time": 81122, "pitch": 36, "duration": 120, "velocity": 127}, {"time": 81362, "pitch": 36, "duration": 120, "velocity": 127}, {"time": 81602, "pitch": 36, "duration": 120, "velocity": 127}, {"time": 81842, "pitch": 36, "duration": 120, "velocity": 127}, {"time": 82082, "pitch": 36, "duration": 120, "velocity": 127}, {"time": 82322, "pitch": 36, "duration": 120, "velocity": 127}, {"time": 82562, "pitch": 36, "duration": 120, "velocity": 127}, {"time": 82682, "pitch": 48, "duration": 120, "velocity": 127}, {"time": 82802, "pitch": 36, "duration": 120, "velocity": 127}, {"time": 83042, "pitch": 36, "duration": 120, "velocity": 127}, {"time": 83282, "pitch": 36, "duration": 120, "velocity": 127}, {"time": 83522, "pitch": 36, "duration": 120, "velocity": 127}, {"time": 83762, "pitch": 36, "duration": 120, "velocity": 127}, {"time": 84002, "pitch": 36, "duration": 120, "velocity": 127}, {"time": 84122, "pitch": 48, "duration": 120, "velocity": 127}, {"time": 84242, "pitch": 36, "duration": 120, "velocity": 127}, {"time": 84482, "pitch": 36, "duration": 120, "velocity": 127}, {"time": 84602, "pitch": 48, "duration": 120, "velocity": 127}, {"time": 84722, "pitch": 36, "duration": 120, "velocity": 127}, {"time": 84962, "pitch": 34, "duration": 120, "velocity": 127}, {"time": 85202, "pitch": 34, "duration": 120, "velocity": 127}, {"time": 85442, "pitch": 34, "duration": 120, "velocity": 127}, {"time": 85682, "pitch": 34, "duration": 120, "velocity": 127}, {"time": 85922, "pitch": 34, "duration": 120, "velocity": 127}, {"time": 86162, "pitch": 34, "duration": 120, "velocity": 127}, {"time": 86402, "pitch": 34, "duration": 120, "velocity": 127}, {"time": 86522, "pitch": 46, "duration": 120, "velocity": 127}, {"time": 86642, "pitch": 34, "duration": 120, "velocity": 127}, {"time": 86882, "pitch": 34, "duration": 120, "velocity": 127}, {"time": 87122, "pitch": 34, "duration": 120, "velocity": 127}, {"time": 87362, "pitch": 34, "duration": 120, "velocity": 127}, {"time": 87602, "pitch": 34, "duration": 120, "velocity": 127}, {"time": 87842, "pitch": 34, "duration": 120, "velocity": 127}, {"time": 88082, "pitch": 34, "duration": 120, "velocity": 127}, {"time": 88322, "pitch": 34, "duration": 120, "velocity": 127}, {"time": 88442, "pitch": 46, "duration": 120, "velocity": 127}, {"time": 88562, "pitch": 34, "duration": 120, "velocity": 127}, {"time": 88802, "pitch": 36, "duration": 120, "velocity": 127}, {"time": 89042, "pitch": 36, "duration": 120, "velocity": 127}, {"time": 89282, "pitch": 36, "duration": 120, "velocity": 127}, {"time": 89522, "pitch": 36, "duration": 120, "velocity": 127}, {"time": 89762, "pitch": 36, "duration": 120, "velocity": 127}, {"time": 90002, "pitch": 36, "duration": 120, "velocity": 127}, {"time": 90242, "pitch": 36, "duration": 120, "velocity": 127}, {"time": 90362, "pitch": 48, "duration": 120, "velocity": 127}, {"time": 90482, "pitch": 36, "duration": 120, "velocity": 127}, {"time": 90722, "pitch": 36, "duration": 120, "velocity": 127}, {"time": 90962, "pitch": 36, "duration": 120, "velocity": 127}, {"time": 91202, "pitch": 36, "duration": 120, "velocity": 127}, {"time": 91442, "pitch": 36, "duration": 120, "velocity": 127}, {"time": 91682, "pitch": 36, "duration": 120, "velocity": 127}, {"time": 91922, "pitch": 36, "duration": 120, "velocity": 127}, {"time": 92162, "pitch": 36, "duration": 120, "velocity": 127}, {"time": 92282, "pitch": 48, "duration": 120, "velocity": 127}, {"time": 92402, "pitch": 36, "duration": 120, "velocity": 127}, {"time": 92642, "pitch": 34, "duration": 120, "velocity": 127}, {"time": 92882, "pitch": 34, "duration": 120, "velocity": 127}, {"time": 93122, "pitch": 34, "duration": 120, "velocity": 127}, {"time": 93362, "pitch": 34, "duration": 120, "velocity": 127}, {"time": 93602, "pitch": 34, "duration": 120, "velocity": 127}, {"time": 93842, "pitch": 34, "duration": 120, "velocity": 127}, {"time": 94082, "pitch": 34, "duration": 120, "velocity": 127}, {"time": 94202, "pitch": 46, "duration": 120, "velocity": 127}, {"time": 94322, "pitch": 34, "duration": 120, "velocity": 127}, {"time": 94562, "pitch": 34, "duration": 120, "velocity": 127}, {"time": 94802, "pitch": 36, "duration": 120, "velocity": 127}, {"time": 95042, "pitch": 48, "duration": 120, "velocity": 127}, {"time": 95282, "pitch": 36, "duration": 120, "velocity": 127}, {"time": 95522, "pitch": 48, "duration": 120, "velocity": 127}, {"time": 95762, "pitch": 36, "duration": 120, "velocity": 127}, {"time": 95882, "pitch": 48, "duration": 120, "velocity": 127}, {"time": 96122, "pitch": 36, "duration": 120, "velocity": 127}, {"time": 96242, "pitch": 48, "duration": 120, "velocity": 127}, {"time": 96482, "pitch": 31, "duration": 120, "velocity": 127}, {"time": 96722, "pitch": 31, "duration": 120, "velocity": 127}, {"time": 96962, "pitch": 31, "duration": 120, "velocity": 127}, {"time": 97202, "pitch": 31, "duration": 120, "velocity": 127}, {"time": 97442, "pitch": 31, "duration": 120, "velocity": 127}, {"time": 97682, "pitch": 31, "duration": 120, "velocity": 127}, {"time": 97922, "pitch": 31, "duration": 120, "velocity": 127}, {"time": 98042, "pitch": 43, "duration": 120, "velocity": 127}, {"time": 98162, "pitch": 31, "duration": 120, "velocity": 127}, {"time": 98402, "pitch": 33, "duration": 120, "velocity": 127}, {"time": 98642, "pitch": 33, "duration": 120, "velocity": 127}, {"time": 98882, "pitch": 33, "duration": 120, "velocity": 127}, {"time": 99122, "pitch": 33, "duration": 120, "velocity": 127}, {"time": 99362, "pitch": 33, "duration": 120, "velocity": 127}, {"time": 99482, "pitch": 45, "duration": 120, "velocity": 127}, {"time": 99602, "pitch": 33, "duration": 120, "velocity": 127}, {"time": 99842, "pitch": 33, "duration": 120, "velocity": 127}, {"time": 99962, "pitch": 45, "duration": 120, "velocity": 127}, {"time": 100082, "pitch": 33, "duration": 120, "velocity": 127}, {"time": 100322, "pitch": 34, "duration": 120, "velocity": 127}, {"time": 100562, "pitch": 34, "duration": 120, "velocity": 127}, {"time": 100802, "pitch": 34, "duration": 120, "velocity": 127}, {"time": 101042, "pitch": 34, "duration": 120, "velocity": 127}, {"time": 101282, "pitch": 34, "duration": 120, "velocity": 127}, {"time": 101402, "pitch": 46, "duration": 120, "velocity": 127}, {"time": 101522, "pitch": 34, "duration": 120, "velocity": 127}, {"time": 101762, "pitch": 34, "duration": 120, "velocity": 127}, {"time": 101882, "pitch": 46, "duration": 120, "velocity": 127}, {"time": 102002, "pitch": 34, "duration": 120, "velocity": 127}, {"time": 102242, "pitch": 36, "duration": 120, "velocity": 127}, {"time": 102482, "pitch": 36, "duration": 120, "velocity": 127}, {"time": 102722, "pitch": 36, "duration": 120, "velocity": 127}, {"time": 102962, "pitch": 36, "duration": 120, "velocity": 127}, {"time": 103202, "pitch": 36, "duration": 120, "velocity": 127}, {"time": 103322, "pitch": 48, "duration": 120, "velocity": 127}, {"time": 103442, "pitch": 36, "duration": 120, "velocity": 127}, {"time": 103682, "pitch": 48, "duration": 120, "velocity": 127}, {"time": 103922, "pitch": 46, "duration": 120, "velocity": 127}, {"time": 104042, "pitch": 48, "duration": 120, "velocity": 127}, {"time": 104162, "pitch": 31, "duration": 120, "velocity": 127}, {"time": 104402, "pitch": 31, "duration": 120, "velocity": 127}, {"time": 104642, "pitch": 31, "duration": 120, "velocity": 127}, {"time": 104882, "pitch": 31, "duration": 120, "velocity": 127}, {"time": 105122, "pitch": 31, "duration": 120, "velocity": 127}, {"time": 105362, "pitch": 31, "duration": 120, "velocity": 127}, {"time": 105602, "pitch": 31, "duration": 120, "velocity": 127}, {"time": 105722, "pitch": 43, "duration": 120, "velocity": 127}, {"time": 105842, "pitch": 31, "duration": 120, "velocity": 127}, {"time": 106082, "pitch": 33, "duration": 120, "velocity": 127}, {"time": 106322, "pitch": 33, "duration": 120, "velocity": 127}, {"time": 106562, "pitch": 33, "duration": 120, "velocity": 127}, {"time": 106802, "pitch": 33, "duration": 120, "velocity": 127}, {"time": 107042, "pitch": 33, "duration": 120, "velocity": 127}, {"time": 107282, "pitch": 33, "duration": 120, "velocity": 127}, {"time": 107522, "pitch": 33, "duration": 120, "velocity": 127}, {"time": 107642, "pitch": 45, "duration": 120, "velocity": 127}, {"time": 107762, "pitch": 33, "duration": 120, "velocity": 127}, {"time": 108002, "pitch": 34, "duration": 120, "velocity": 127}, {"time": 108242, "pitch": 34, "duration": 120, "velocity": 127}, {"time": 108482, "pitch": 34, "duration": 120, "velocity": 127}, {"time": 108722, "pitch": 34, "duration": 120, "velocity": 127}, {"time": 108962, "pitch": 34, "duration": 120, "velocity": 127}, {"time": 109202, "pitch": 34, "duration": 120, "velocity": 127}, {"time": 109442, "pitch": 34, "duration": 120, "velocity": 127}, {"time": 109562, "pitch": 46, "duration": 120, "velocity": 127}, {"time": 109682, "pitch": 34, "duration": 120, "velocity": 127}, {"time": 110162, "pitch": 36, "duration": 120, "velocity": 127}, {"time": 110402, "pitch": 48, "duration": 120, "velocity": 127}, {"time": 110642, "pitch": 36, "duration": 120, "velocity": 127}, {"time": 110882, "pitch": 48, "duration": 120, "velocity": 127}, {"time": 111122, "pitch": 36, "duration": 120, "velocity": 127}, {"time": 111362, "pitch": 36, "duration": 120, "velocity": 127}, {"time": 111602, "pitch": 48, "duration": 120, "velocity": 127}, {"time": 111842, "pitch": 29, "duration": 120, "velocity": 127}, {"time": 112082, "pitch": 29, "duration": 120, "velocity": 127}, {"time": 112322, "pitch": 41, "duration": 120, "velocity": 127}, {"time": 112442, "pitch": 29, "duration": 120, "velocity": 127}, {"time": 112682, "pitch": 29, "duration": 120, "velocity": 127}, {"time": 112922, "pitch": 29, "duration": 120, "velocity": 127}, {"time": 113162, "pitch": 29, "duration": 120, "velocity": 127}, {"time": 113282, "pitch": 41, "duration": 120, "velocity": 127}, {"time": 113522, "pitch": 29, "duration": 120, "velocity": 127}, {"time": 113762, "pitch": 31, "duration": 120, "velocity": 127}, {"time": 114002, "pitch": 31, "duration": 120, "velocity": 127}, {"time": 114242, "pitch": 43, "duration": 120, "velocity": 127}, {"time": 114362, "pitch": 31, "duration": 120, "velocity": 127}, {"time": 114602, "pitch": 31, "duration": 120, "velocity": 127}, {"time": 114842, "pitch": 31, "duration": 120, "velocity": 127}, {"time": 115082, "pitch": 31, "duration": 120, "velocity": 127}, {"time": 115202, "pitch": 43, "duration": 120, "velocity": 127}, {"time": 115442, "pitch": 31, "duration": 120, "velocity": 127}, {"time": 115682, "pitch": 34, "duration": 120, "velocity": 127}, {"time": 115922, "pitch": 34, "duration": 120, "velocity": 127}, {"time": 116162, "pitch": 46, "duration": 120, "velocity": 127}, {"time": 116282, "pitch": 34, "duration": 120, "velocity": 127}, {"time": 116522, "pitch": 34, "duration": 120, "velocity": 127}, {"time": 116762, "pitch": 34, "duration": 120, "velocity": 127}, {"time": 117002, "pitch": 34, "duration": 120, "velocity": 127}, {"time": 117122, "pitch": 46, "duration": 120, "velocity": 127}, {"time": 117362, "pitch": 34, "duration": 120, "velocity": 127}, {"time": 117602, "pitch": 36, "duration": 120, "velocity": 127}, {"time": 117842, "pitch": 36, "duration": 120, "velocity": 127}, {"time": 118082, "pitch": 48, "duration": 120, "velocity": 127}, {"time": 118202, "pitch": 36, "duration": 120, "velocity": 127}, {"time": 118442, "pitch": 36, "duration": 120, "velocity": 127}, {"time": 118682, "pitch": 36, "duration": 120, "velocity": 127}, {"time": 118802, "pitch": 48, "duration": 120, "velocity": 127}, {"time": 119042, "pitch": 36, "duration": 120, "velocity": 127}, {"time": 119282, "pitch": 48, "duration": 120, "velocity": 127}, {"time": 119522, "pitch": 29, "duration": 120, "velocity": 127}, {"time": 119762, "pitch": 29, "duration": 120, "velocity": 127}, {"time": 120002, "pitch": 41, "duration": 120, "velocity": 127}, {"time": 120122, "pitch": 29, "duration": 120, "velocity": 127}, {"time": 120362, "pitch": 29, "duration": 120, "velocity": 127}, {"time": 120602, "pitch": 29, "duration": 120, "velocity": 127}, {"time": 120722, "pitch": 29, "duration": 120, "velocity": 127}, {"time": 120962, "pitch": 41, "duration": 120, "velocity": 127}, {"time": 121202, "pitch": 29, "duration": 120, "velocity": 127}, {"time": 121322, "pitch": 41, "duration": 120, "velocity": 127}, {"time": 121442, "pitch": 31, "duration": 120, "velocity": 127}, {"time": 121442, "pitch": 33, "duration": 120, "velocity": 127}, {"time": 121682, "pitch": 31, "duration": 120, "velocity": 127}, {"time": 121922, "pitch": 43, "duration": 120, "velocity": 127}, {"time": 122042, "pitch": 31, "duration": 120, "velocity": 127}, {"time": 122282, "pitch": 31, "duration": 120, "velocity": 127}, {"time": 122522, "pitch": 31, "duration": 120, "velocity": 127}, {"time": 122642, "pitch": 31, "duration": 120, "velocity": 127}, {"time": 122882, "pitch": 43, "duration": 120, "velocity": 127}, {"time": 123122, "pitch": 31, "duration": 120, "velocity": 127}, {"time": 123242, "pitch": 43, "duration": 120, "velocity": 127}, {"time": 123362, "pitch": 34, "duration": 120, "velocity": 127}, {"time": 123602, "pitch": 34, "duration": 120, "velocity": 127}, {"time": 123842, "pitch": 46, "duration": 120, "velocity": 127}, {"time": 123962, "pitch": 34, "duration": 120, "velocity": 127}, {"time": 124202, "pitch": 34, "duration": 120, "velocity": 127}, {"time": 124442, "pitch": 34, "duration": 120, "velocity": 127}, {"time": 124682, "pitch": 34, "duration": 120, "velocity": 127}, {"time": 124802, "pitch": 46, "duration": 120, "velocity": 127}, {"time": 125042, "pitch": 34, "duration": 120, "velocity": 127}, {"time": 125162, "pitch": 46, "duration": 120, "velocity": 127}, {"time": 125282, "pitch": 36, "duration": 120, "velocity": 127}, {"time": 125522, "pitch": 36, "duration": 120, "velocity": 127}, {"time": 125762, "pitch": 48, "duration": 120, "velocity": 127}, {"time": 125882, "pitch": 36, "duration": 120, "velocity": 127}, {"time": 126122, "pitch": 36, "duration": 120, "velocity": 127}, {"time": 126362, "pitch": 48, "duration": 120, "velocity": 127}, {"time": 126482, "pitch": 36, "duration": 120, "velocity": 127}, {"time": 126722, "pitch": 48, "duration": 120, "velocity": 127}, {"time": 126962, "pitch": 36, "duration": 120, "velocity": 127}, {"time": 127082, "pitch": 48, "duration": 120, "velocity": 127}, {"time": 127202, "pitch": 29, "duration": 120, "velocity": 127}, {"time": 127442, "pitch": 29, "duration": 120, "velocity": 127}, {"time": 127682, "pitch": 29, "duration": 120, "velocity": 127}, {"time": 127922, "pitch": 29, "duration": 120, "velocity": 127}, {"time": 128162, "pitch": 29, "duration": 120, "velocity": 127}, {"time": 128402, "pitch": 29, "duration": 120, "velocity": 127}, {"time": 128642, "pitch": 29, "duration": 120, "velocity": 127}, {"time": 128762, "pitch": 41, "duration": 120, "velocity": 127}, {"time": 128882, "pitch": 29, "duration": 120, "velocity": 127}, {"time": 129122, "pitch": 29, "duration": 120, "velocity": 127}, {"time": 129362, "pitch": 29, "duration": 120, "velocity": 127}, {"time": 129602, "pitch": 29, "duration": 120, "velocity": 127}, {"time": 129842, "pitch": 29, "duration": 120, "velocity": 127}, {"time": 130082, "pitch": 29, "duration": 120, "velocity": 127}, {"time": 130322, "pitch": 29, "duration": 120, "velocity": 127}, {"time": 130562, "pitch": 29, "duration": 120, "velocity": 127}, {"time": 130682, "pitch": 41, "duration": 120, "velocity": 127}, {"time": 130802, "pitch": 29, "duration": 120, "velocity": 127}, {"time": 131042, "pitch": 29, "duration": 120, "velocity": 127}, {"time": 131282, "pitch": 29, "duration": 120, "velocity": 127}, {"time": 131522, "pitch": 29, "duration": 120, "velocity": 127}, {"time": 131762, "pitch": 29, "duration": 120, "velocity": 127}, {"time": 132002, "pitch": 29, "duration": 120, "velocity": 127}, {"time": 132242, "pitch": 29, "duration": 120, "velocity": 127}, {"time": 132482, "pitch": 29, "duration": 120, "velocity": 127}, {"time": 132602, "pitch": 41, "duration": 120, "velocity": 127}, {"time": 132722, "pitch": 29, "duration": 120, "velocity": 127}, {"time": 132962, "pitch": 29, "duration": 120, "velocity": 127}, {"time": 133202, "pitch": 29, "duration": 120, "velocity": 127}, {"time": 133442, "pitch": 29, "duration": 120, "velocity": 127}, {"time": 133682, "pitch": 29, "duration": 120, "velocity": 127}, {"time": 133922, "pitch": 29, "duration": 120, "velocity": 127}, {"time": 134162, "pitch": 29, "duration": 120, "velocity": 127}, {"time": 134402, "pitch": 29, "duration": 120, "velocity": 127}, {"time": 134522, "pitch": 41, "duration": 120, "velocity": 127}, {"time": 134642, "pitch": 29, "duration": 120, "velocity": 127}, {"time": 134882, "pitch": 38, "duration": 120, "velocity": 127}, {"time": 135122, "pitch": 38, "duration": 120, "velocity": 127}, {"time": 135362, "pitch": 38, "duration": 120, "velocity": 127}, {"time": 135602, "pitch": 38, "duration": 120, "velocity": 127}, {"time": 135842, "pitch": 38, "duration": 120, "velocity": 127}, {"time": 136082, "pitch": 38, "duration": 120, "velocity": 127}, {"time": 136322, "pitch": 38, "duration": 120, "velocity": 127}, {"time": 136442, "pitch": 50, "duration": 120, "velocity": 127}, {"time": 136562, "pitch": 38, "duration": 120, "velocity": 127}, {"time": 136802, "pitch": 38, "duration": 120, "velocity": 127}, {"time": 137042, "pitch": 38, "duration": 120, "velocity": 127}, {"time": 137282, "pitch": 38, "duration": 120, "velocity": 127}, {"time": 137522, "pitch": 38, "duration": 120, "velocity": 127}, {"time": 137762, "pitch": 38, "duration": 120, "velocity": 127}, {"time": 137882, "pitch": 50, "duration": 120, "velocity": 127}, {"time": 138002, "pitch": 38, "duration": 120, "velocity": 127}, {"time": 138242, "pitch": 38, "duration": 120, "velocity": 127}, {"time": 138362, "pitch": 50, "duration": 120, "velocity": 127}, {"time": 138482, "pitch": 38, "duration": 120, "velocity": 127}, {"time": 138722, "pitch": 34, "duration": 120, "velocity": 127}, {"time": 138962, "pitch": 34, "duration": 120, "velocity": 127}, {"time": 139202, "pitch": 34, "duration": 120, "velocity": 127}, {"time": 139442, "pitch": 34, "duration": 120, "velocity": 127}, {"time": 139682, "pitch": 34, "duration": 120, "velocity": 127}, {"time": 139922, "pitch": 34, "duration": 120, "velocity": 127}, {"time": 140162, "pitch": 34, "duration": 120, "velocity": 127}, {"time": 140282, "pitch": 46, "duration": 120, "velocity": 127}, {"time": 140402, "pitch": 34, "duration": 120, "velocity": 127}, {"time": 140642, "pitch": 34, "duration": 120, "velocity": 127}, {"time": 140882, "pitch": 34, "duration": 120, "velocity": 127}, {"time": 141122, "pitch": 34, "duration": 120, "velocity": 127}, {"time": 141362, "pitch": 34, "duration": 120, "velocity": 127}, {"time": 141602, "pitch": 34, "duration": 120, "velocity": 127}, {"time": 141722, "pitch": 46, "duration": 120, "velocity": 127}, {"time": 141842, "pitch": 34, "duration": 120, "velocity": 127}, {"time": 142082, "pitch": 34, "duration": 120, "velocity": 127}, {"time": 142202, "pitch": 46, "duration": 120, "velocity": 127}, {"time": 142322, "pitch": 34, "duration": 120, "velocity": 127}, {"time": 142562, "pitch": 38, "duration": 120, "velocity": 127}, {"time": 142802, "pitch": 38, "duration": 120, "velocity": 127}, {"time": 143042, "pitch": 38, "duration": 120, "velocity": 127}, {"time": 143282, "pitch": 38, "duration": 120, "velocity": 127}, {"time": 143522, "pitch": 38, "duration": 120, "velocity": 127}, {"time": 143762, "pitch": 38, "duration": 120, "velocity": 127}, {"time": 144002, "pitch": 38, "duration": 120, "velocity": 127}, {"time": 144122, "pitch": 50, "duration": 120, "velocity": 127}, {"time": 144242, "pitch": 38, "duration": 120, "velocity": 127}, {"time": 144482, "pitch": 38, "duration": 120, "velocity": 127}, {"time": 144722, "pitch": 38, "duration": 120, "velocity": 127}, {"time": 144962, "pitch": 38, "duration": 120, "velocity": 127}, {"time": 145202, "pitch": 38, "duration": 120, "velocity": 127}, {"time": 145442, "pitch": 38, "duration": 120, "velocity": 127}, {"time": 145562, "pitch": 50, "duration": 120, "velocity": 127}, {"time": 145682, "pitch": 38, "duration": 120, "velocity": 127}, {"time": 145922, "pitch": 38, "duration": 120, "velocity": 127}, {"time": 146042, "pitch": 50, "duration": 120, "velocity": 127}, {"time": 146162, "pitch": 38, "duration": 120, "velocity": 127}, {"time": 146402, "pitch": 34, "duration": 120, "velocity": 127}, {"time": 146642, "pitch": 34, "duration": 120, "velocity": 127}, {"time": 146882, "pitch": 34, "duration": 120, "velocity": 127}, {"time": 147122, "pitch": 34, "duration": 120, "velocity": 127}, {"time": 147362, "pitch": 34, "duration": 120, "velocity": 127}, {"time": 147602, "pitch": 34, "duration": 120, "velocity": 127}, {"time": 147842, "pitch": 34, "duration": 120, "velocity": 127}, {"time": 147962, "pitch": 46, "duration": 120, "velocity": 127}, {"time": 148082, "pitch": 34, "duration": 120, "velocity": 127}, {"time": 148322, "pitch": 34, "duration": 120, "velocity": 127}, {"time": 148562, "pitch": 34, "duration": 120, "velocity": 127}, {"time": 148802, "pitch": 34, "duration": 120, "velocity": 127}, {"time": 149042, "pitch": 34, "duration": 120, "velocity": 127}, {"time": 149282, "pitch": 34, "duration": 120, "velocity": 127}, {"time": 149522, "pitch": 34, "duration": 120, "velocity": 127}, {"time": 149762, "pitch": 34, "duration": 120, "velocity": 127}, {"time": 149882, "pitch": 46, "duration": 120, "velocity": 127}, {"time": 150002, "pitch": 34, "duration": 120, "velocity": 127}, {"time": 150242, "pitch": 36, "duration": 120, "velocity": 127}, {"time": 150482, "pitch": 36, "duration": 120, "velocity": 127}, {"time": 150722, "pitch": 36, "duration": 120, "velocity": 127}, {"time": 150962, "pitch": 36, "duration": 120, "velocity": 127}, {"time": 151202, "pitch": 36, "duration": 120, "velocity": 127}, {"time": 151442, "pitch": 36, "duration": 120, "velocity": 127}, {"time": 151682, "pitch": 36, "duration": 120, "velocity": 127}, {"time": 151802, "pitch": 48, "duration": 120, "velocity": 127}, {"time": 151922, "pitch": 36, "duration": 120, "velocity": 127}, {"time": 152162, "pitch": 36, "duration": 120, "velocity": 127}, {"time": 152402, "pitch": 36, "duration": 120, "velocity": 127}, {"time": 152642, "pitch": 36, "duration": 120, "velocity": 127}, {"time": 152882, "pitch": 36, "duration": 120, "velocity": 127}, {"time": 153122, "pitch": 36, "duration": 120, "velocity": 127}, {"time": 153242, "pitch": 48, "duration": 120, "velocity": 127}, {"time": 153362, "pitch": 36, "duration": 120, "velocity": 127}, {"time": 153602, "pitch": 36, "duration": 120, "velocity": 127}, {"time": 153722, "pitch": 48, "duration": 120, "velocity": 127}, {"time": 153842, "pitch": 36, "duration": 120, "velocity": 127}, {"time": 154082, "pitch": 34, "duration": 120, "velocity": 127}, {"time": 154322, "pitch": 34, "duration": 120, "velocity": 127}, {"time": 154562, "pitch": 34, "duration": 120, "velocity": 127}, {"time": 154802, "pitch": 34, "duration": 120, "velocity": 127}, {"time": 155042, "pitch": 34, "duration": 120, "velocity": 127}, {"time": 155282, "pitch": 34, "duration": 120, "velocity": 127}, {"time": 155522, "pitch": 34, "duration": 120, "velocity": 127}, {"time": 155642, "pitch": 46, "duration": 120, "velocity": 127}, {"time": 155762, "pitch": 34, "duration": 120, "velocity": 127}, {"time": 156002, "pitch": 34, "duration": 120, "velocity": 127}, {"time": 156242, "pitch": 34, "duration": 120, "velocity": 127}, {"time": 156482, "pitch": 34, "duration": 120, "velocity": 127}, {"time": 156722, "pitch": 34, "duration": 120, "velocity": 127}, {"time": 156962, "pitch": 34, "duration": 120, "velocity": 127}, {"time": 157202, "pitch": 34, "duration": 120, "velocity": 127}, {"time": 157442, "pitch": 34, "duration": 120, "velocity": 127}, {"time": 157562, "pitch": 46, "duration": 120, "velocity": 127}, {"time": 157682, "pitch": 34, "duration": 120, "velocity": 127}, {"time": 157922, "pitch": 36, "duration": 120, "velocity": 127}, {"time": 158162, "pitch": 36, "duration": 120, "velocity": 127}, {"time": 158402, "pitch": 36, "duration": 120, "velocity": 127}, {"time": 158642, "pitch": 36, "duration": 120, "velocity": 127}, {"time": 158882, "pitch": 36, "duration": 120, "velocity": 127}, {"time": 159122, "pitch": 36, "duration": 120, "velocity": 127}, {"time": 159362, "pitch": 36, "duration": 120, "velocity": 127}, {"time": 159482, "pitch": 48, "duration": 120, "velocity": 127}, {"time": 159602, "pitch": 36, "duration": 120, "velocity": 127}, {"time": 159842, "pitch": 36, "duration": 120, "velocity": 127}, {"time": 160082, "pitch": 36, "duration": 120, "velocity": 127}, {"time": 160322, "pitch": 36, "duration": 120, "velocity": 127}, {"time": 160562, "pitch": 36, "duration": 120, "velocity": 127}, {"time": 160802, "pitch": 36, "duration": 120, "velocity": 127}, {"time": 161042, "pitch": 36, "duration": 120, "velocity": 127}, {"time": 161282, "pitch": 36, "duration": 120, "velocity": 127}, {"time": 161402, "pitch": 48, "duration": 120, "velocity": 127}, {"time": 161522, "pitch": 36, "duration": 120, "velocity": 127}, {"time": 161762, "pitch": 34, "duration": 120, "velocity": 127}, {"time": 162002, "pitch": 34, "duration": 120, "velocity": 127}, {"time": 162242, "pitch": 34, "duration": 120, "velocity": 127}, {"time": 162482, "pitch": 34, "duration": 120, "velocity": 127}, {"time": 162722, "pitch": 34, "duration": 120, "velocity": 127}, {"time": 162962, "pitch": 34, "duration": 120, "velocity": 127}, {"time": 163202, "pitch": 34, "duration": 120, "velocity": 127}, {"time": 163322, "pitch": 46, "duration": 120, "velocity": 127}, {"time": 163442, "pitch": 34, "duration": 120, "velocity": 127}, {"time": 163682, "pitch": 34, "duration": 120, "velocity": 127}, {"time": 163922, "pitch": 36, "duration": 120, "velocity": 127}, {"time": 164162, "pitch": 48, "duration": 120, "velocity": 127}, {"time": 164402, "pitch": 36, "duration": 120, "velocity": 127}, {"time": 164642, "pitch": 48, "duration": 120, "velocity": 127}, {"time": 164882, "pitch": 36, "duration": 120, "velocity": 127}, {"time": 165002, "pitch": 48, "duration": 120, "velocity": 127}, {"time": 165242, "pitch": 36, "duration": 120, "velocity": 127}, {"time": 165362, "pitch": 48, "duration": 120, "velocity": 127}, {"time": 165602, "pitch": 31, "duration": 120, "velocity": 127}, {"time": 165842, "pitch": 31, "duration": 120, "velocity": 127}, {"time": 166082, "pitch": 31, "duration": 120, "velocity": 127}, {"time": 166322, "pitch": 31, "duration": 120, "velocity": 127}, {"time": 166562, "pitch": 31, "duration": 120, "velocity": 127}, {"time": 166802, "pitch": 31, "duration": 120, "velocity": 127}, {"time": 167042, "pitch": 31, "duration": 120, "velocity": 127}, {"time": 167162, "pitch": 43, "duration": 120, "velocity": 127}, {"time": 167282, "pitch": 31, "duration": 120, "velocity": 127}, {"time": 167522, "pitch": 33, "duration": 120, "velocity": 127}, {"time": 167762, "pitch": 33, "duration": 120, "velocity": 127}, {"time": 168002, "pitch": 33, "duration": 120, "velocity": 127}, {"time": 168242, "pitch": 33, "duration": 120, "velocity": 127}, {"time": 168482, "pitch": 33, "duration": 120, "velocity": 127}, {"time": 168602, "pitch": 45, "duration": 120, "velocity": 127}, {"time": 168722, "pitch": 33, "duration": 120, "velocity": 127}, {"time": 168962, "pitch": 33, "duration": 120, "velocity": 127}, {"time": 169082, "pitch": 45, "duration": 120, "velocity": 127}, {"time": 169202, "pitch": 33, "duration": 120, "velocity": 127}, {"time": 169442, "pitch": 34, "duration": 120, "velocity": 127}, {"time": 169682, "pitch": 34, "duration": 120, "velocity": 127}, {"time": 169922, "pitch": 34, "duration": 120, "velocity": 127}, {"time": 170162, "pitch": 34, "duration": 120, "velocity": 127}, {"time": 170402, "pitch": 34, "duration": 120, "velocity": 127}, {"time": 170522, "pitch": 46, "duration": 120, "velocity": 127}, {"time": 170642, "pitch": 34, "duration": 120, "velocity": 127}, {"time": 170882, "pitch": 34, "duration": 120, "velocity": 127}, {"time": 171002, "pitch": 46, "duration": 120, "velocity": 127}, {"time": 171122, "pitch": 34, "duration": 120, "velocity": 127}, {"time": 171362, "pitch": 36, "duration": 120, "velocity": 127}, {"time": 171602, "pitch": 36, "duration": 120, "velocity": 127}, {"time": 171842, "pitch": 36, "duration": 120, "velocity": 127}, {"time": 172082, "pitch": 36, "duration": 120, "velocity": 127}, {"time": 172322, "pitch": 36, "duration": 120, "velocity": 127}, {"time": 172442, "pitch": 48, "duration": 120, "velocity": 127}, {"time": 172562, "pitch": 36, "duration": 120, "velocity": 127}, {"time": 172802, "pitch": 48, "duration": 120, "velocity": 127}, {"time": 173042, "pitch": 46, "duration": 120, "velocity": 127}, {"time": 173162, "pitch": 48, "duration": 120, "velocity": 127}, {"time": 173282, "pitch": 31, "duration": 120, "velocity": 127}, {"time": 173522, "pitch": 31, "duration": 120, "velocity": 127}, {"time": 173762, "pitch": 31, "duration": 120, "velocity": 127}, {"time": 174002, "pitch": 31, "duration": 120, "velocity": 127}, {"time": 174242, "pitch": 31, "duration": 120, "velocity": 127}, {"time": 174482, "pitch": 31, "duration": 120, "velocity": 127}, {"time": 174722, "pitch": 31, "duration": 120, "velocity": 127}, {"time": 174842, "pitch": 43, "duration": 120, "velocity": 127}, {"time": 174962, "pitch": 31, "duration": 120, "velocity": 127}, {"time": 175202, "pitch": 33, "duration": 120, "velocity": 127}, {"time": 175442, "pitch": 33, "duration": 120, "velocity": 127}, {"time": 175682, "pitch": 33, "duration": 120, "velocity": 127}, {"time": 175922, "pitch": 33, "duration": 120, "velocity": 127}, {"time": 176162, "pitch": 33, "duration": 120, "velocity": 127}, {"time": 176402, "pitch": 33, "duration": 120, "velocity": 127}, {"time": 176642, "pitch": 33, "duration": 120, "velocity": 127}, {"time": 176762, "pitch": 45, "duration": 120, "velocity": 127}, {"time": 176882, "pitch": 33, "duration": 120, "velocity": 127}, {"time": 177122, "pitch": 34, "duration": 120, "velocity": 127}, {"time": 177362, "pitch": 34, "duration": 120, "velocity": 127}, {"time": 177602, "pitch": 34, "duration": 120, "velocity": 127}, {"time": 177842, "pitch": 34, "duration": 120, "velocity": 127}, {"time": 178082, "pitch": 34, "duration": 120, "velocity": 127}, {"time": 178322, "pitch": 34, "duration": 120, "velocity": 127}, {"time": 178562, "pitch": 34, "duration": 120, "velocity": 127}, {"time": 178682, "pitch": 46, "duration": 120, "velocity": 127}, {"time": 178802, "pitch": 34, "duration": 120, "velocity": 127}, {"time": 179282, "pitch": 36, "duration": 120, "velocity": 127}, {"time": 179522, "pitch": 48, "duration": 120, "velocity": 127}, {"time": 179762, "pitch": 36, "duration": 120, "velocity": 127}, {"time": 180002, "pitch": 48, "duration": 120, "velocity": 127}, {"time": 180242, "pitch": 36, "duration": 120, "velocity": 127}, {"time": 180482, "pitch": 36, "duration": 120, "velocity": 127}, {"time": 180722, "pitch": 48, "duration": 120, "velocity": 127}, {"time": 180962, "pitch": 29, "duration": 120, "velocity": 127}, {"time": 181202, "pitch": 29, "duration": 120, "velocity": 127}, {"time": 181442, "pitch": 41, "duration": 120, "velocity": 127}, {"time": 181562, "pitch": 29, "duration": 120, "velocity": 127}, {"time": 181802, "pitch": 29, "duration": 120, "velocity": 127}, {"time": 182042, "pitch": 29, "duration": 120, "velocity": 127}, {"time": 182282, "pitch": 29, "duration": 120, "velocity": 127}, {"time": 182402, "pitch": 41, "duration": 120, "velocity": 127}, {"time": 182642, "pitch": 29, "duration": 120, "velocity": 127}, {"time": 182882, "pitch": 31, "duration": 120, "velocity": 127}, {"time": 183122, "pitch": 31, "duration": 120, "velocity": 127}, {"time": 183362, "pitch": 43, "duration": 120, "velocity": 127}, {"time": 183482, "pitch": 31, "duration": 120, "velocity": 127}, {"time": 183722, "pitch": 31, "duration": 120, "velocity": 127}, {"time": 183962, "pitch": 31, "duration": 120, "velocity": 127}, {"time": 184202, "pitch": 31, "duration": 120, "velocity": 127}, {"time": 184322, "pitch": 43, "duration": 120, "velocity": 127}, {"time": 184562, "pitch": 31, "duration": 120, "velocity": 127}, {"time": 184802, "pitch": 34, "duration": 120, "velocity": 127}, {"time": 185042, "pitch": 34, "duration": 120, "velocity": 127}, {"time": 185282, "pitch": 46, "duration": 120, "velocity": 127}, {"time": 185402, "pitch": 34, "duration": 120, "velocity": 127}, {"time": 185642, "pitch": 34, "duration": 120, "velocity": 127}, {"time": 185882, "pitch": 34, "duration": 120, "velocity": 127}, {"time": 186122, "pitch": 34, "duration": 120, "velocity": 127}, {"time": 186242, "pitch": 46, "duration": 120, "velocity": 127}, {"time": 186482, "pitch": 34, "duration": 120, "velocity": 127}, {"time": 186722, "pitch": 36, "duration": 120, "velocity": 127}, {"time": 186962, "pitch": 36, "duration": 120, "velocity": 127}, {"time": 187202, "pitch": 48, "duration": 120, "velocity": 127}, {"time": 187322, "pitch": 36, "duration": 120, "velocity": 127}, {"time": 187562, "pitch": 36, "duration": 120, "velocity": 127}, {"time": 187802, "pitch": 36, "duration": 120, "velocity": 127}, {"time": 187922, "pitch": 48, "duration": 120, "velocity": 127}, {"time": 188162, "pitch": 36, "duration": 120, "velocity": 127}, {"time": 188402, "pitch": 48, "duration": 120, "velocity": 127}, {"time": 188642, "pitch": 29, "duration": 120, "velocity": 127}, {"time": 188882, "pitch": 29, "duration": 120, "velocity": 127}, {"time": 189122, "pitch": 41, "duration": 120, "velocity": 127}, {"time": 189242, "pitch": 29, "duration": 120, "velocity": 127}, {"time": 189482, "pitch": 29, "duration": 120, "velocity": 127}, {"time": 189722, "pitch": 29, "duration": 120, "velocity": 127}, {"time": 189842, "pitch": 29, "duration": 120, "velocity": 127}, {"time": 190082, "pitch": 41, "duration": 120, "velocity": 127}, {"time": 190322, "pitch": 29, "duration": 120, "velocity": 127}, {"time": 190442, "pitch": 41, "duration": 120, "velocity": 127}, {"time": 190562, "pitch": 31, "duration": 120, "velocity": 127}, {"time": 190562, "pitch": 33, "duration": 120, "velocity": 127}, {"time": 190802, "pitch": 31, "duration": 120, "velocity": 127}, {"time": 191042, "pitch": 43, "duration": 120, "velocity": 127}, {"time": 191162, "pitch": 31, "duration": 120, "velocity": 127}, {"time": 191402, "pitch": 31, "duration": 120, "velocity": 127}, {"time": 191642, "pitch": 31, "duration": 120, "velocity": 127}, {"time": 191762, "pitch": 31, "duration": 120, "velocity": 127}, {"time": 192002, "pitch": 43, "duration": 120, "velocity": 127}, {"time": 192242, "pitch": 31, "duration": 120, "velocity": 127}, {"time": 192362, "pitch": 43, "duration": 120, "velocity": 127}, {"time": 192482, "pitch": 34, "duration": 120, "velocity": 127}, {"time": 192722, "pitch": 34, "duration": 120, "velocity": 127}, {"time": 192962, "pitch": 46, "duration": 120, "velocity": 127}, {"time": 193082, "pitch": 34, "duration": 120, "velocity": 127}, {"time": 193322, "pitch": 34, "duration": 120, "velocity": 127}, {"time": 193562, "pitch": 34, "duration": 120, "velocity": 127}, {"time": 193802, "pitch": 34, "duration": 120, "velocity": 127}, {"time": 193922, "pitch": 46, "duration": 120, "velocity": 127}, {"time": 194162, "pitch": 34, "duration": 120, "velocity": 127}, {"time": 194282, "pitch": 46, "duration": 120, "velocity": 127}, {"time": 194402, "pitch": 36, "duration": 120, "velocity": 127}, {"time": 194642, "pitch": 36, "duration": 120, "velocity": 127}, {"time": 194882, "pitch": 48, "duration": 120, "velocity": 127}, {"time": 195002, "pitch": 36, "duration": 120, "velocity": 127}, {"time": 195242, "pitch": 36, "duration": 120, "velocity": 127}, {"time": 195482, "pitch": 48, "duration": 120, "velocity": 127}, {"time": 195602, "pitch": 36, "duration": 120, "velocity": 127}, {"time": 195842, "pitch": 48, "duration": 120, "velocity": 127}, {"time": 196082, "pitch": 36, "duration": 120, "velocity": 127}, {"time": 196202, "pitch": 48, "duration": 120, "velocity": 127}, {"time": 196322, "pitch": 29, "duration": 120, "velocity": 127}, {"time": 196562, "pitch": 29, "duration": 120, "velocity": 127}, {"time": 196802, "pitch": 29, "duration": 120, "velocity": 127}, {"time": 197042, "pitch": 29, "duration": 120, "velocity": 127}, {"time": 197282, "pitch": 29, "duration": 120, "velocity": 127}, {"time": 197522, "pitch": 29, "duration": 120, "velocity": 127}, {"time": 197762, "pitch": 29, "duration": 120, "velocity": 127}, {"time": 197882, "pitch": 41, "duration": 120, "velocity": 127}, {"time": 198002, "pitch": 29, "duration": 120, "velocity": 127}, {"time": 198242, "pitch": 29, "duration": 120, "velocity": 127}, {"time": 198482, "pitch": 29, "duration": 120, "velocity": 127}, {"time": 198722, "pitch": 29, "duration": 120, "velocity": 127}, {"time": 198962, "pitch": 29, "duration": 120, "velocity": 127}, {"time": 199202, "pitch": 29, "duration": 120, "velocity": 127}, {"time": 199442, "pitch": 29, "duration": 120, "velocity": 127}, {"time": 199682, "pitch": 29, "duration": 120, "velocity": 127}, {"time": 199802, "pitch": 41, "duration": 120, "velocity": 127}, {"time": 199922, "pitch": 29, "duration": 120, "velocity": 127}, {"time": 200162, "pitch": 29, "duration": 120, "velocity": 127}, {"time": 200402, "pitch": 29, "duration": 120, "velocity": 127}, {"time": 200642, "pitch": 29, "duration": 120, "velocity": 127}, {"time": 200882, "pitch": 29, "duration": 120, "velocity": 127}, {"time": 201122, "pitch": 29, "duration": 120, "velocity": 127}, {"time": 201362, "pitch": 29, "duration": 120, "velocity": 127}, {"time": 201602, "pitch": 29, "duration": 120, "velocity": 127}, {"time": 201722, "pitch": 41, "duration": 120, "velocity": 127}, {"time": 201842, "pitch": 29, "duration": 120, "velocity": 127}, {"time": 202082, "pitch": 29, "duration": 120, "velocity": 127}, {"time": 202322, "pitch": 29, "duration": 120, "velocity": 127}, {"time": 202562, "pitch": 29, "duration": 120, "velocity": 127}, {"time": 202802, "pitch": 29, "duration": 120, "velocity": 127}, {"time": 203042, "pitch": 29, "duration": 120, "velocity": 127}, {"time": 203282, "pitch": 29, "duration": 120, "velocity": 127}, {"time": 203522, "pitch": 29, "duration": 120, "velocity": 127}, {"time": 203642, "pitch": 41, "duration": 120, "velocity": 127}, {"time": 203762, "pitch": 29, "duration": 120, "velocity": 127}, {"time": 204002, "pitch": 29, "duration": 3840, "velocity": 127}, {"time": 34802, "pitch": 77, "duration": 119, "velocity": 120}, {"time": 34922, "pitch": 79, "duration": 154, "velocity": 120}, {"time": 35042, "pitch": 81, "duration": 147, "velocity": 120}, {"time": 35282, "pitch": 81, "duration": 127, "velocity": 120}, {"time": 35522, "pitch": 81, "duration": 131, "velocity": 120}, {"time": 35762, "pitch": 81, "duration": 172, "velocity": 120}, {"time": 36002, "pitch": 79, "duration": 305, "velocity": 120}, {"time": 36362, "pitch": 77, "duration": 178, "velocity": 120}, {"time": 36722, "pitch": 79, "duration": 399, "velocity": 120}, {"time": 37202, "pitch": 81, "duration": 184, "velocity": 120}, {"time": 37442, "pitch": 79, "duration": 196, "velocity": 120}, {"time": 37682, "pitch": 81, "duration": 169, "velocity": 120}, {"time": 37922, "pitch": 79, "duration": 191, "velocity": 120}, {"time": 38162, "pitch": 77, "duration": 146, "velocity": 120}, {"time": 38402, "pitch": 74, "duration": 149, "velocity": 120}, {"time": 38642, "pitch": 72, "duration": 162, "velocity": 120}, {"time": 38882, "pitch": 74, "duration": 258, "velocity": 120}, {"time": 39242, "pitch": 81, "duration": 352, "velocity": 120}, {"time": 42482, "pitch": 77, "duration": 120, "velocity": 120}, {"time": 42602, "pitch": 79, "duration": 166, "velocity": 120}, {"time": 42722, "pitch": 81, "duration": 132, "velocity": 120}, {"time": 42962, "pitch": 81, "duration": 131, "velocity": 120}, {"time": 43202, "pitch": 81, "duration": 144, "velocity": 120}, {"time": 43442, "pitch": 81, "duration": 176, "velocity": 120}, {"time": 43682, "pitch": 84, "duration": 189, "velocity": 120}, {"time": 43922, "pitch": 84, "duration": 139, "velocity": 120}, {"time": 44042, "pitch": 81, "duration": 211, "velocity": 120}, {"time": 44402, "pitch": 79, "duration": 387, "velocity": 120}, {"time": 44882, "pitch": 81, "duration": 178, "velocity": 120}, {"time": 45122, "pitch": 79, "duration": 184, "velocity": 120}, {"time": 45362, "pitch": 77, "duration": 273, "velocity": 120}, {"time": 45842, "pitch": 77, "duration": 201, "velocity": 120}, {"time": 46082, "pitch": 74, "duration": 161, "velocity": 120}, {"time": 46322, "pitch": 72, "duration": 166, "velocity": 120}, {"time": 46562, "pitch": 74, "duration": 283, "velocity": 120}, {"time": 46922, "pitch": 81, "duration": 365, "velocity": 120}, {"time": 50162, "pitch": 81, "duration": 511, "velocity": 120}, {"time": 50642, "pitch": 79, "duration": 149, "velocity": 120}, {"time": 50882, "pitch": 79, "duration": 176, "velocity": 120}, {"time": 51122, "pitch": 77, "duration": 171, "velocity": 120}, {"time": 51362, "pitch": 79, "duration": 206, "velocity": 120}, {"time": 51602, "pitch": 77, "duration": 179, "velocity": 120}, {"time": 51842, "pitch": 79, "duration": 191, "velocity": 120}, {"time": 52082, "pitch": 81, "duration": 434, "velocity": 120}, {"time": 52562, "pitch": 79, "duration": 146, "velocity": 120}, {"time": 52802, "pitch": 79, "duration": 171, "velocity": 120}, {"time": 53042, "pitch": 77, "duration": 166, "velocity": 120}, {"time": 53282, "pitch": 79, "duration": 172, "velocity": 120}, {"time": 53522, "pitch": 77, "duration": 146, "velocity": 120}, {"time": 53762, "pitch": 79, "duration": 206, "velocity": 120}, {"time": 54002, "pitch": 81, "duration": 184, "velocity": 120}, {"time": 54242, "pitch": 79, "duration": 253, "velocity": 120}, {"time": 54482, "pitch": 77, "duration": 248, "velocity": 120}, {"time": 57842, "pitch": 81, "duration": 231, "velocity": 120}, {"time": 58082, "pitch": 79, "duration": 228, "velocity": 120}, {"time": 58322, "pitch": 79, "duration": 163, "velocity": 120}, {"time": 58562, "pitch": 79, "duration": 211, "velocity": 120}, {"time": 58802, "pitch": 77, "duration": 189, "velocity": 120}, {"time": 59042, "pitch": 79, "duration": 221, "velocity": 120}, {"time": 59282, "pitch": 77, "duration": 166, "velocity": 120}, {"time": 59522, "pitch": 79, "duration": 218, "velocity": 120}, {"time": 59762, "pitch": 81, "duration": 449, "velocity": 120}, {"time": 60242, "pitch": 79, "duration": 154, "velocity": 120}, {"time": 60482, "pitch": 79, "duration": 206, "velocity": 120}, {"time": 60722, "pitch": 77, "duration": 162, "velocity": 120}, {"time": 60962, "pitch": 79, "duration": 201, "velocity": 120}, {"time": 61202, "pitch": 77, "duration": 172, "velocity": 120}, {"time": 61442, "pitch": 79, "duration": 221, "velocity": 120}, {"time": 61682, "pitch": 81, "duration": 181, "velocity": 120}, {"time": 61922, "pitch": 79, "duration": 330, "velocity": 120}, {"time": 62282, "pitch": 77, "duration": 261, "velocity": 120}, {"time": 63602, "pitch": 77, "duration": 191, "velocity": 120}, {"time": 63842, "pitch": 79, "duration": 1374, "velocity": 120}, {"time": 65522, "pitch": 77, "duration": 119, "velocity": 120}, {"time": 65642, "pitch": 79, "duration": 154, "velocity": 120}, {"time": 65762, "pitch": 81, "duration": 147, "velocity": 120}, {"time": 66002, "pitch": 81, "duration": 127, "velocity": 120}, {"time": 66242, "pitch": 81, "duration": 131, "velocity": 120}, {"time": 66482, "pitch": 81, "duration": 172, "velocity": 120}, {"time": 66722, "pitch": 79, "duration": 305, "velocity": 120}, {"time": 67082, "pitch": 77, "duration": 178, "velocity": 120}, {"time": 67442, "pitch": 79, "duration": 399, "velocity": 120}, {"time": 67922, "pitch": 81, "duration": 184, "velocity": 120}, {"time": 68162, "pitch": 79, "duration": 196, "velocity": 120}, {"time": 68402, "pitch": 81, "duration": 169, "velocity": 120}, {"time": 68642, "pitch": 79, "duration": 191, "velocity": 120}, {"time": 68882, "pitch": 77, "duration": 146, "velocity": 120}, {"time": 69122, "pitch": 74, "duration": 149, "velocity": 120}, {"time": 69362, "pitch": 72, "duration": 162, "velocity": 120}, {"time": 69602, "pitch": 74, "duration": 258, "velocity": 120}, {"time": 69962, "pitch": 81, "duration": 352, "velocity": 120}, {"time": 73202, "pitch": 77, "duration": 120, "velocity": 120}, {"time": 73322, "pitch": 79, "duration": 166, "velocity": 120}, {"time": 73442, "pitch": 81, "duration": 132, "velocity": 120}, {"time": 73682, "pitch": 81, "duration": 131, "velocity": 120}, {"time": 73922, "pitch": 81, "duration": 144, "velocity": 120}, {"time": 74162, "pitch": 81, "duration": 176, "velocity": 120}, {"time": 74402, "pitch": 84, "duration": 189, "velocity": 120}, {"time": 74642, "pitch": 84, "duration": 139, "velocity": 120}, {"time": 74762, "pitch": 81, "duration": 211, "velocity": 120}, {"time": 75122, "pitch": 79, "duration": 387, "velocity": 120}, {"time": 75602, "pitch": 81, "duration": 178, "velocity": 120}, {"time": 75842, "pitch": 79, "duration": 184, "velocity": 120}, {"time": 76082, "pitch": 77, "duration": 273, "velocity": 120}, {"time": 76562, "pitch": 77, "duration": 201, "velocity": 120}, {"time": 76802, "pitch": 74, "duration": 161, "velocity": 120}, {"time": 77042, "pitch": 72, "duration": 166, "velocity": 120}, {"time": 77282, "pitch": 74, "duration": 283, "velocity": 120}, {"time": 77642, "pitch": 81, "duration": 365, "velocity": 120}, {"time": 80882, "pitch": 81, "duration": 511, "velocity": 120}, {"time": 81362, "pitch": 79, "duration": 149, "velocity": 120}, {"time": 81602, "pitch": 79, "duration": 176, "velocity": 120}, {"time": 81842, "pitch": 77, "duration": 171, "velocity": 120}, {"time": 82082, "pitch": 79, "duration": 206, "velocity": 120}, {"time": 82322, "pitch": 77, "duration": 179, "velocity": 120}, {"time": 82562, "pitch": 79, "duration": 191, "velocity": 120}, {"time": 82802, "pitch": 81, "duration": 434, "velocity": 120}, {"time": 83282, "pitch": 79, "duration": 146, "velocity": 120}, {"time": 83522, "pitch": 79, "duration": 171, "velocity": 120}, {"time": 83762, "pitch": 77, "duration": 166, "velocity": 120}, {"time": 84002, "pitch": 79, "duration": 172, "velocity": 120}, {"time": 84242, "pitch": 77, "duration": 146, "velocity": 120}, {"time": 84482, "pitch": 79, "duration": 206, "velocity": 120}, {"time": 84722, "pitch": 81, "duration": 184, "velocity": 120}, {"time": 84962, "pitch": 79, "duration": 253, "velocity": 120}, {"time": 85202, "pitch": 77, "duration": 248, "velocity": 120}, {"time": 88562, "pitch": 81, "duration": 231, "velocity": 120}, {"time": 88802, "pitch": 79, "duration": 228, "velocity": 120}, {"time": 89042, "pitch": 79, "duration": 163, "velocity": 120}, {"time": 89282, "pitch": 79, "duration": 211, "velocity": 120}, {"time": 89522, "pitch": 77, "duration": 189, "velocity": 120}, {"time": 89762, "pitch": 79, "duration": 221, "velocity": 120}, {"time": 90002, "pitch": 77, "duration": 166, "velocity": 120}, {"time": 90242, "pitch": 79, "duration": 218, "velocity": 120}, {"time": 90482, "pitch": 80, "duration": 449, "velocity": 120}, {"time": 90962, "pitch": 79, "duration": 154, "velocity": 120}, {"time": 91202, "pitch": 79, "duration": 206, "velocity": 120}, {"time": 91442, "pitch": 77, "duration": 162, "velocity": 120}, {"time": 91682, "pitch": 79, "duration": 201, "velocity": 120}, {"time": 91922, "pitch": 77, "duration": 172, "velocity": 120}, {"time": 92162, "pitch": 79, "duration": 221, "velocity": 120}, {"time": 92402, "pitch": 81, "duration": 181, "velocity": 120}, {"time": 92642, "pitch": 79, "duration": 330, "velocity": 120}, {"time": 93002, "pitch": 77, "duration": 261, "velocity": 120}, {"time": 94322, "pitch": 77, "duration": 191, "velocity": 120}, {"time": 94562, "pitch": 79, "duration": 1374, "velocity": 120}, {"time": 97202, "pitch": 79, "duration": 442, "velocity": 120}, {"time": 97682, "pitch": 77, "duration": 169, "velocity": 120}, {"time": 97922, "pitch": 79, "duration": 194, "velocity": 120}, {"time": 98162, "pitch": 81, "duration": 439, "velocity": 120}, {"time": 98642, "pitch": 77, "duration": 385, "velocity": 120}, {"time": 99122, "pitch": 74, "duration": 372, "velocity": 120}, {"time": 99602, "pitch": 72, "duration": 201, "velocity": 120}, {"time": 99842, "pitch": 74, "duration": 159, "velocity": 120}, {"time": 100082, "pitch": 77, "duration": 640, "velocity": 120}, {"time": 100802, "pitch": 77, "duration": 220, "velocity": 120}, {"time": 101042, "pitch": 74, "duration": 208, "velocity": 120}, {"time": 101282, "pitch": 77, "duration": 206, "velocity": 120}, {"time": 101522, "pitch": 79, "duration": 196, "velocity": 120}, {"time": 101762, "pitch": 81, "duration": 171, "velocity": 120}, {"time": 102002, "pitch": 79, "duration": 1426, "velocity": 120}, {"time": 104882, "pitch": 79, "duration": 442, "velocity": 120}, {"time": 105362, "pitch": 77, "duration": 169, "velocity": 120}, {"time": 105602, "pitch": 79, "duration": 194, "velocity": 120}, {"time": 105842, "pitch": 81, "duration": 439, "velocity": 120}, {"time": 106322, "pitch": 77, "duration": 385, "velocity": 120}, {"time": 106802, "pitch": 74, "duration": 372, "velocity": 120}, {"time": 107282, "pitch": 72, "duration": 201, "velocity": 120}, {"time": 107522, "pitch": 74, "duration": 159, "velocity": 120}, {"time": 107762, "pitch": 77, "duration": 640, "velocity": 120}, {"time": 108482, "pitch": 77, "duration": 220, "velocity": 120}, {"time": 108722, "pitch": 74, "duration": 208, "velocity": 120}, {"time": 108962, "pitch": 77, "duration": 206, "velocity": 120}, {"time": 109202, "pitch": 79, "duration": 196, "velocity": 120}, {"time": 109442, "pitch": 81, "duration": 171, "velocity": 120}, {"time": 109682, "pitch": 84, "duration": 1426, "velocity": 120}, {"time": 111362, "pitch": 77, "duration": 201, "velocity": 120}, {"time": 111602, "pitch": 84, "duration": 119, "velocity": 120}, {"time": 111842, "pitch": 84, "duration": 662, "velocity": 120}, {"time": 112562, "pitch": 77, "duration": 600, "velocity": 120}, {"time": 113282, "pitch": 77, "duration": 228, "velocity": 120}, {"time": 113522, "pitch": 86, "duration": 147, "velocity": 120}, {"time": 113762, "pitch": 84, "duration": 630, "velocity": 120}, {"time": 114482, "pitch": 77, "duration": 689, "velocity": 120}, {"time": 115202, "pitch": 79, "duration": 136, "velocity": 120}, {"time": 115442, "pitch": 81, "duration": 427, "velocity": 120}, {"time": 115922, "pitch": 82, "duration": 124, "velocity": 120}, {"time": 116162, "pitch": 81, "duration": 154, "velocity": 120}, {"time": 116402, "pitch": 82, "duration": 146, "velocity": 120}, {"time": 116642, "pitch": 81, "duration": 164, "velocity": 120}, {"time": 116882, "pitch": 82, "duration": 151, "velocity": 120}, {"time": 117122, "pitch": 81, "duration": 159, "velocity": 120}, {"time": 117362, "pitch": 82, "duration": 134, "velocity": 120}, {"time": 117602, "pitch": 81, "duration": 377, "velocity": 120}, {"time": 118082, "pitch": 79, "duration": 107, "velocity": 120}, {"time": 118322, "pitch": 79, "duration": 645, "velocity": 120}, {"time": 119042, "pitch": 77, "duration": 233, "velocity": 120}, {"time": 119282, "pitch": 84, "duration": 94, "velocity": 120}, {"time": 119522, "pitch": 84, "duration": 660, "velocity": 120}, {"time": 120242, "pitch": 77, "duration": 600, "velocity": 120}, {"time": 120962, "pitch": 77, "duration": 246, "velocity": 120}, {"time": 121202, "pitch": 86, "duration": 124, "velocity": 120}, {"time": 121442, "pitch": 84, "duration": 654, "velocity": 120}, {"time": 122162, "pitch": 77, "duration": 647, "velocity": 120}, {"time": 122882, "pitch": 79, "duration": 131, "velocity": 120}, {"time": 123122, "pitch": 81, "duration": 432, "velocity": 120}, {"time": 123602, "pitch": 82, "duration": 161, "velocity": 120}, {"time": 123842, "pitch": 81, "duration": 236, "velocity": 120}, {"time": 124082, "pitch": 82, "duration": 176, "velocity": 120}, {"time": 124322, "pitch": 81, "duration": 257, "velocity": 120}, {"time": 124562, "pitch": 82, "duration": 204, "velocity": 120}, {"time": 124802, "pitch": 81, "duration": 263, "velocity": 120}, {"time": 125042, "pitch": 82, "duration": 132, "velocity": 120}, {"time": 125282, "pitch": 81, "duration": 410, "velocity": 120}, {"time": 125762, "pitch": 79, "duration": 109, "velocity": 120}, {"time": 126002, "pitch": 79, "duration": 454, "velocity": 120}, {"time": 126482, "pitch": 77, "duration": 129, "velocity": 120}, {"time": 126722, "pitch": 79, "duration": 223, "velocity": 120}, {"time": 126962, "pitch": 81, "duration": 126, "velocity": 120}, {"time": 127202, "pitch": 79, "duration": 442, "velocity": 120}, {"time": 127682, "pitch": 77, "duration": 136, "velocity": 120}, {"time": 127922, "pitch": 77, "duration": 1312, "velocity": 120}, {"time": 134882, "pitch": 81, "duration": 147, "velocity": 120}, {"time": 135122, "pitch": 81, "duration": 127, "velocity": 120}, {"time": 135362, "pitch": 81, "duration": 131, "velocity": 120}, {"time": 135602, "pitch": 81, "duration": 172, "velocity": 120}, {"time": 135842, "pitch": 79, "duration": 305, "velocity": 120}, {"time": 136202, "pitch": 77, "duration": 178, "velocity": 120}, {"time": 136562, "pitch": 79, "duration": 399, "velocity": 120}, {"time": 137042, "pitch": 81, "duration": 184, "velocity": 120}, {"time": 137282, "pitch": 79, "duration": 196, "velocity": 120}, {"time": 137522, "pitch": 81, "duration": 169, "velocity": 120}, {"time": 137762, "pitch": 79, "duration": 191, "velocity": 120}, {"time": 138002, "pitch": 77, "duration": 146, "velocity": 120}, {"time": 138242, "pitch": 74, "duration": 149, "velocity": 120}, {"time": 138482, "pitch": 72, "duration": 162, "velocity": 120}, {"time": 138722, "pitch": 74, "duration": 258, "velocity": 120}, {"time": 139082, "pitch": 81, "duration": 352, "velocity": 120}, {"time": 142322, "pitch": 77, "duration": 120, "velocity": 120}, {"time": 142442, "pitch": 79, "duration": 166, "velocity": 120}, {"time": 142562, "pitch": 81, "duration": 132, "velocity": 120}, {"time": 142802, "pitch": 81, "duration": 131, "velocity": 120}, {"time": 143042, "pitch": 81, "duration": 144, "velocity": 120}, {"time": 143282, "pitch": 81, "duration": 176, "velocity": 120}, {"time": 143522, "pitch": 84, "duration": 189, "velocity": 120}, {"time": 143762, "pitch": 84, "duration": 139, "velocity": 120}, {"time": 143882, "pitch": 81, "duration": 211, "velocity": 120}, {"time": 144242, "pitch": 79, "duration": 387, "velocity": 120}, {"time": 144722, "pitch": 81, "duration": 178, "velocity": 120}, {"time": 144962, "pitch": 79, "duration": 184, "velocity": 120}, {"time": 145202, "pitch": 77, "duration": 273, "velocity": 120}, {"time": 145682, "pitch": 77, "duration": 201, "velocity": 120}, {"time": 145922, "pitch": 74, "duration": 161, "velocity": 120}, {"time": 146162, "pitch": 72, "duration": 166, "velocity": 120}, {"time": 146402, "pitch": 74, "duration": 283, "velocity": 120}, {"time": 146762, "pitch": 81, "duration": 365, "velocity": 120}, {"time": 150002, "pitch": 81, "duration": 511, "velocity": 120}, {"time": 150482, "pitch": 79, "duration": 149, "velocity": 120}, {"time": 150722, "pitch": 79, "duration": 176, "velocity": 120}, {"time": 150962, "pitch": 77, "duration": 171, "velocity": 120}, {"time": 151202, "pitch": 79, "duration": 206, "velocity": 120}, {"time": 151442, "pitch": 77, "duration": 179, "velocity": 120}, {"time": 151682, "pitch": 79, "duration": 191, "velocity": 120}, {"time": 151922, "pitch": 81, "duration": 434, "velocity": 120}, {"time": 152402, "pitch": 79, "duration": 146, "velocity": 120}, {"time": 152642, "pitch": 79, "duration": 171, "velocity": 120}, {"time": 152882, "pitch": 77, "duration": 166, "velocity": 120}, {"time": 153122, "pitch": 79, "duration": 172, "velocity": 120}, {"time": 153362, "pitch": 77, "duration": 146, "velocity": 120}, {"time": 153602, "pitch": 79, "duration": 206, "velocity": 120}, {"time": 153842, "pitch": 81, "duration": 184, "velocity": 120}, {"time": 154082, "pitch": 79, "duration": 253, "velocity": 120}, {"time": 154322, "pitch": 77, "duration": 248, "velocity": 120}, {"time": 157682, "pitch": 81, "duration": 231, "velocity": 120}, {"time": 157922, "pitch": 79, "duration": 228, "velocity": 120}, {"time": 158162, "pitch": 79, "duration": 163, "velocity": 120}, {"time": 158402, "pitch": 79, "duration": 211, "velocity": 120}, {"time": 158642, "pitch": 77, "duration": 189, "velocity": 120}, {"time": 158882, "pitch": 79, "duration": 221, "velocity": 120}, {"time": 159122, "pitch": 77, "duration": 166, "velocity": 120}, {"time": 159362, "pitch": 79, "duration": 218, "velocity": 120}, {"time": 159602, "pitch": 80, "duration": 449, "velocity": 120}, {"time": 160082, "pitch": 79, "duration": 154, "velocity": 120}, {"time": 160322, "pitch": 79, "duration": 206, "velocity": 120}, {"time": 160562, "pitch": 77, "duration": 162, "velocity": 120}, {"time": 160802, "pitch": 79, "duration": 201, "velocity": 120}, {"time": 161042, "pitch": 77, "duration": 172, "velocity": 120}, {"time": 161282, "pitch": 79, "duration": 221, "velocity": 120}, {"time": 161522, "pitch": 81, "duration": 181, "velocity": 120}, {"time": 161762, "pitch": 79, "duration": 330, "velocity": 120}, {"time": 162122, "pitch": 77, "duration": 261, "velocity": 120}, {"time": 163442, "pitch": 77, "duration": 191, "velocity": 120}, {"time": 163682, "pitch": 79, "duration": 1374, "velocity": 120}, {"time": 166322, "pitch": 79, "duration": 442, "velocity": 120}, {"time": 166802, "pitch": 77, "duration": 169, "velocity": 120}, {"time": 167042, "pitch": 79, "duration": 194, "velocity": 120}, {"time": 167282, "pitch": 81, "duration": 439, "velocity": 120}, {"time": 167762, "pitch": 77, "duration": 385, "velocity": 120}, {"time": 168242, "pitch": 74, "duration": 372, "velocity": 120}, {"time": 168722, "pitch": 72, "duration": 201, "velocity": 120}, {"time": 168962, "pitch": 74, "duration": 159, "velocity": 120}, {"time": 169202, "pitch": 77, "duration": 640, "velocity": 120}, {"time": 169922, "pitch": 77, "duration": 220, "velocity": 120}, {"time": 170162, "pitch": 74, "duration": 208, "velocity": 120}, {"time": 170402, "pitch": 77, "duration": 206, "velocity": 120}, {"time": 170642, "pitch": 79, "duration": 196, "velocity": 120}, {"time": 170882, "pitch": 81, "duration": 171, "velocity": 120}, {"time": 171122, "pitch": 79, "duration": 1426, "velocity": 120}, {"time": 174002, "pitch": 79, "duration": 442, "velocity": 120}, {"time": 174482, "pitch": 77, "duration": 169, "velocity": 120}, {"time": 174722, "pitch": 79, "duration": 194, "velocity": 120}, {"time": 174962, "pitch": 81, "duration": 439, "velocity": 120}, {"time": 175442, "pitch": 77, "duration": 385, "velocity": 120}, {"time": 175922, "pitch": 74, "duration": 372, "velocity": 120}, {"time": 176402, "pitch": 72, "duration": 201, "velocity": 120}, {"time": 176642, "pitch": 74, "duration": 159, "velocity": 120}, {"time": 176882, "pitch": 77, "duration": 640, "velocity": 120}, {"time": 177602, "pitch": 77, "duration": 220, "velocity": 120}, {"time": 177842, "pitch": 74, "duration": 208, "velocity": 120}, {"time": 178082, "pitch": 77, "duration": 206, "velocity": 120}, {"time": 178322, "pitch": 79, "duration": 196, "velocity": 120}, {"time": 178562, "pitch": 81, "duration": 171, "velocity": 120}, {"time": 178802, "pitch": 84, "duration": 1426, "velocity": 120}, {"time": 180482, "pitch": 77, "duration": 201, "velocity": 120}, {"time": 180722, "pitch": 84, "duration": 119, "velocity": 120}, {"time": 180962, "pitch": 84, "duration": 662, "velocity": 120}, {"time": 181682, "pitch": 77, "duration": 600, "velocity": 120}, {"time": 182402, "pitch": 77, "duration": 228, "velocity": 120}, {"time": 182642, "pitch": 86, "duration": 147, "velocity": 120}, {"time": 182882, "pitch": 84, "duration": 630, "velocity": 120}, {"time": 183602, "pitch": 77, "duration": 689, "velocity": 120}, {"time": 184322, "pitch": 79, "duration": 136, "velocity": 120}, {"time": 184562, "pitch": 81, "duration": 427, "velocity": 120}, {"time": 185042, "pitch": 82, "duration": 124, "velocity": 120}, {"time": 185282, "pitch": 81, "duration": 154, "velocity": 120}, {"time": 185522, "pitch": 82, "duration": 146, "velocity": 120}, {"time": 185762, "pitch": 81, "duration": 164, "velocity": 120}, {"time": 186002, "pitch": 82, "duration": 151, "velocity": 120}, {"time": 186242, "pitch": 81, "duration": 159, "velocity": 120}, {"time": 186482, "pitch": 82, "duration": 134, "velocity": 120}, {"time": 186722, "pitch": 81, "duration": 377, "velocity": 120}, {"time": 187202, "pitch": 79, "duration": 107, "velocity": 120}, {"time": 187442, "pitch": 79, "duration": 645, "velocity": 120}, {"time": 188162, "pitch": 77, "duration": 233, "velocity": 120}, {"time": 188402, "pitch": 84, "duration": 94, "velocity": 120}, {"time": 188642, "pitch": 84, "duration": 660, "velocity": 120}, {"time": 189362, "pitch": 77, "duration": 600, "velocity": 120}, {"time": 190082, "pitch": 77, "duration": 246, "velocity": 120}, {"time": 190322, "pitch": 86, "duration": 124, "velocity": 120}, {"time": 190562, "pitch": 84, "duration": 654, "velocity": 120}, {"time": 191282, "pitch": 77, "duration": 647, "velocity": 120}, {"time": 192002, "pitch": 79, "duration": 131, "velocity": 120}, {"time": 192242, "pitch": 81, "duration": 432, "velocity": 120}, {"time": 192722, "pitch": 82, "duration": 161, "velocity": 120}, {"time": 192962, "pitch": 81, "duration": 236, "velocity": 120}, {"time": 193202, "pitch": 82, "duration": 176, "velocity": 120}, {"time": 193442, "pitch": 81, "duration": 257, "velocity": 120}, {"time": 193682, "pitch": 82, "duration": 204, "velocity": 120}, {"time": 193922, "pitch": 81, "duration": 263, "velocity": 120}, {"time": 194162, "pitch": 82, "duration": 132, "velocity": 120}, {"time": 194402, "pitch": 81, "duration": 410, "velocity": 120}, {"time": 194882, "pitch": 79, "duration": 109, "velocity": 120}, {"time": 195122, "pitch": 79, "duration": 454, "velocity": 120}, {"time": 195602, "pitch": 77, "duration": 129, "velocity": 120}, {"time": 195842, "pitch": 79, "duration": 223, "velocity": 120}, {"time": 196082, "pitch": 81, "duration": 126, "velocity": 120}, {"time": 196322, "pitch": 79, "duration": 442, "velocity": 120}, {"time": 196802, "pitch": 77, "duration": 136, "velocity": 120}, {"time": 197042, "pitch": 77, "duration": 1312, "velocity": 120}, {"time": 1437, "pitch": 75, "duration": 726, "velocity": 127}, {"time": 2163, "pitch": 77, "duration": 120, "velocity": 127}, {"time": 2402, "pitch": 77, "duration": 837, "velocity": 127}, {"time": 3358, "pitch": 77, "duration": 966, "velocity": 127}, {"time": 4324, "pitch": 74, "duration": 836, "velocity": 127}, {"time": 5279, "pitch": 77, "duration": 966, "velocity": 127}, {"time": 6245, "pitch": 75, "duration": 2877, "velocity": 127}, {"time": 9122, "pitch": 75, "duration": 716, "velocity": 127}, {"time": 9838, "pitch": 77, "duration": 120, "velocity": 127}, {"time": 10077, "pitch": 77, "duration": 844, "velocity": 127}, {"time": 11043, "pitch": 77, "duration": 956, "velocity": 127}, {"time": 11999, "pitch": 74, "duration": 843, "velocity": 127}, {"time": 12964, "pitch": 77, "duration": 956, "velocity": 127}, {"time": 13920, "pitch": 75, "duration": 6588, "velocity": 127}, {"time": 127202, "pitch": 79, "duration": 480, "velocity": 127}, {"time": 127682, "pitch": 77, "duration": 240, "velocity": 127}, {"time": 127922, "pitch": 81, "duration": 720, "velocity": 127}, {"time": 128642, "pitch": 79, "duration": 240, "velocity": 127}, {"time": 128882, "pitch": 77, "duration": 240, "velocity": 127}, {"time": 129122, "pitch": 76, "duration": 240, "velocity": 127}, {"time": 129362, "pitch": 77, "duration": 240, "velocity": 127}, {"time": 129602, "pitch": 79, "duration": 240, "velocity": 127}, {"time": 129842, "pitch": 77, "duration": 80, "velocity": 127}, {"time": 129922, "pitch": 79, "duration": 80, "velocity": 127}, {"time": 130002, "pitch": 77, "duration": 80, "velocity": 127}, {"time": 130082, "pitch": 76, "duration": 120, "velocity": 127}, {"time": 130202, "pitch": 74, "duration": 120, "velocity": 127}, {"time": 130322, "pitch": 72, "duration": 120, "velocity": 127}, {"time": 130442, "pitch": 74, "duration": 120, "velocity": 127}, {"time": 130562, "pitch": 76, "duration": 120, "velocity": 127}, {"time": 130682, "pitch": 77, "duration": 120, "velocity": 127}, {"time": 130802, "pitch": 69, "duration": 240, "velocity": 127}, {"time": 131042, "pitch": 69, "duration": 480, "velocity": 127}, {"time": 131522, "pitch": 69, "duration": 80, "velocity": 127}, {"time": 131602, "pitch": 70, "duration": 80, "velocity": 127}, {"time": 131682, "pitch": 72, "duration": 80, "velocity": 127}, {"time": 131762, "pitch": 70, "duration": 80, "velocity": 127}, {"time": 131842, "pitch": 72, "duration": 80, "velocity": 127}, {"time": 131922, "pitch": 74, "duration": 80, "velocity": 127}, {"time": 132002, "pitch": 72, "duration": 80, "velocity": 127}, {"time": 132082, "pitch": 74, "duration": 80, "velocity": 127}, {"time": 132162, "pitch": 76, "duration": 80, "velocity": 127}, {"time": 132242, "pitch": 77, "duration": 80, "velocity": 127}, {"time": 132322, "pitch": 76, "duration": 80, "velocity": 127}, {"time": 132402, "pitch": 74, "duration": 80, "velocity": 127}, {"time": 132482, "pitch": 76, "duration": 80, "velocity": 127}, {"time": 132562, "pitch": 77, "duration": 80, "velocity": 127}, {"time": 132642, "pitch": 79, "duration": 80, "velocity": 127}, {"time": 132722, "pitch": 81, "duration": 80, "velocity": 127}, {"time": 132802, "pitch": 79, "duration": 80, "velocity": 127}, {"time": 132882, "pitch": 77, "duration": 80, "velocity": 127}, {"time": 132962, "pitch": 76, "duration": 80, "velocity": 127}, {"time": 133042, "pitch": 74, "duration": 80, "velocity": 127}, {"time": 133122, "pitch": 76, "duration": 80, "velocity": 127}, {"time": 133202, "pitch": 77, "duration": 80, "velocity": 127}, {"time": 133282, "pitch": 79, "duration": 80, "velocity": 127}, {"time": 133362, "pitch": 79, "duration": 80, "velocity": 127}, {"time": 133442, "pitch": 81, "duration": 80, "velocity": 127}, {"time": 133522, "pitch": 81, "duration": 80, "velocity": 127}, {"time": 133602, "pitch": 81, "duration": 80, "velocity": 127}, {"time": 133682, "pitch": 81, "duration": 80, "velocity": 127}, {"time": 133762, "pitch": 81, "duration": 80, "velocity": 127}, {"time": 133842, "pitch": 81, "duration": 80, "velocity": 127}, {"time": 133922, "pitch": 82, "duration": 80, "velocity": 127}, {"time": 134002, "pitch": 82, "duration": 80, "velocity": 127}, {"time": 134082, "pitch": 82, "duration": 80, "velocity": 127}, {"time": 134162, "pitch": 82, "duration": 80, "velocity": 127}, {"time": 134242, "pitch": 82, "duration": 80, "velocity": 127}, {"time": 134322, "pitch": 82, "duration": 80, "velocity": 127}, {"time": 134402, "pitch": 84, "duration": 80, "velocity": 127}, {"time": 134482, "pitch": 84, "duration": 80, "velocity": 127}, {"time": 134562, "pitch": 84, "duration": 80, "velocity": 127}, {"time": 134642, "pitch": 84, "duration": 80, "velocity": 127}, {"time": 134722, "pitch": 84, "duration": 80, "velocity": 127}, {"time": 134802, "pitch": 84, "duration": 80, "velocity": 127}, {"time": 134882, "pitch": 86, "duration": 371, "velocity": 127}, {"time": 135242, "pitch": 84, "duration": 40, "velocity": 101}, {"time": 135282, "pitch": 83, "duration": 40, "velocity": 95}, {"time": 135322, "pitch": 81, "duration": 40, "velocity": 89}, {"time": 135362, "pitch": 79, "duration": 40, "velocity": 91}, {"time": 196322, "pitch": 67, "duration": 120, "velocity": 108}, {"time": 196442, "pitch": 65, "duration": 120, "velocity": 102}, {"time": 196562, "pitch": 67, "duration": 120, "velocity": 113}, {"time": 196682, "pitch": 69, "duration": 120, "velocity": 107}, {"time": 196802, "pitch": 65, "duration": 120, "velocity": 104}, {"time": 196922, "pitch": 69, "duration": 120, "velocity": 104}, {"time": 197042, "pitch": 65, "duration": 120, "velocity": 101}, {"time": 197162, "pitch": 70, "duration": 120, "velocity": 107}, {"time": 197402, "pitch": 65, "duration": 20, "velocity": 104}, {"time": 197522, "pitch": 72, "duration": 120, "velocity": 113}, {"time": 197642, "pitch": 65, "duration": 120, "velocity": 127}, {"time": 197762, "pitch": 65, "duration": 120, "velocity": 127}, {"time": 197882, "pitch": 74, "duration": 120, "velocity": 117}, {"time": 198002, "pitch": 65, "duration": 120, "velocity": 127}, {"time": 198122, "pitch": 76, "duration": 120, "velocity": 122}, {"time": 198242, "pitch": 65, "duration": 120, "velocity": 127}, {"time": 198362, "pitch": 65, "duration": 120, "velocity": 127}, {"time": 198482, "pitch": 79, "duration": 120, "velocity": 127}, {"time": 198602, "pitch": 65, "duration": 120, "velocity": 127}, {"time": 198722, "pitch": 65, "duration": 120, "velocity": 127}, {"time": 198842, "pitch": 81, "duration": 120, "velocity": 127}, {"time": 198962, "pitch": 65, "duration": 120, "velocity": 127}, {"time": 199082, "pitch": 79, "duration": 120, "velocity": 127}, {"time": 199202, "pitch": 65, "duration": 120, "velocity": 127}, {"time": 199322, "pitch": 81, "duration": 120, "velocity": 127}, {"time": 199442, "pitch": 65, "duration": 120, "velocity": 127}, {"time": 199562, "pitch": 79, "duration": 120, "velocity": 127}, {"time": 199682, "pitch": 65, "duration": 120, "velocity": 127}, {"time": 199802, "pitch": 81, "duration": 120, "velocity": 127}, {"time": 199922, "pitch": 65, "duration": 120, "velocity": 127}, {"time": 200042, "pitch": 79, "duration": 120, "velocity": 127}, {"time": 200162, "pitch": 65, "duration": 120, "velocity": 127}, {"time": 200282, "pitch": 86, "duration": 120, "velocity": 127}, {"time": 200402, "pitch": 65, "duration": 120, "velocity": 127}, {"time": 200522, "pitch": 65, "duration": 120, "velocity": 127}, {"time": 200642, "pitch": 84, "duration": 120, "velocity": 127}, {"time": 200762, "pitch": 65, "duration": 120, "velocity": 127}, {"time": 200882, "pitch": 65, "duration": 120, "velocity": 127}, {"time": 201002, "pitch": 82, "duration": 120, "velocity": 127}, {"time": 201122, "pitch": 65, "duration": 120, "velocity": 127}, {"time": 201242, "pitch": 65, "duration": 120, "velocity": 127}, {"time": 201362, "pitch": 81, "duration": 120, "velocity": 127}, {"time": 201482, "pitch": 65, "duration": 120, "velocity": 127}, {"time": 201602, "pitch": 65, "duration": 120, "velocity": 127}, {"time": 201722, "pitch": 79, "duration": 120, "velocity": 127}, {"time": 201842, "pitch": 65, "duration": 120, "velocity": 127}, {"time": 201962, "pitch": 65, "duration": 120, "velocity": 127}, {"time": 202082, "pitch": 65, "duration": 120, "velocity": 127}, {"time": 202202, "pitch": 77, "duration": 120, "velocity": 127}, {"time": 202322, "pitch": 65, "duration": 120, "velocity": 127}, {"time": 202442, "pitch": 76, "duration": 120, "velocity": 127}, {"time": 202562, "pitch": 65, "duration": 120, "velocity": 127}, {"time": 202682, "pitch": 74, "duration": 120, "velocity": 127}, {"time": 202802, "pitch": 65, "duration": 120, "velocity": 127}, {"time": 202922, "pitch": 72, "duration": 120, "velocity": 127}, {"time": 203042, "pitch": 70, "duration": 240, "velocity": 127}, {"time": 203282, "pitch": 69, "duration": 80, "velocity": 127}, {"time": 203362, "pitch": 70, "duration": 80, "velocity": 127}, {"time": 203442, "pitch": 69, "duration": 80, "velocity": 127}, {"time": 203522, "pitch": 67, "duration": 240, "velocity": 127}, {"time": 203762, "pitch": 65, "duration": 240, "velocity": 127}, {"time": 204002, "pitch": 65, "duration": 3840, "velocity": 127}, {"time": 601, "pitch": 67, "duration": 119, "velocity": 110}, {"time": 720, "pitch": 72, "duration": 120, "velocity": 110}, {"time": 840, "pitch": 75, "duration": 119, "velocity": 110}, {"time": 959, "pitch": 79, "duration": 120, "velocity": 110}, {"time": 1079, "pitch": 84, "duration": 119, "velocity": 110}, {"time": 1198, "pitch": 87, "duration": 119, "velocity": 110}, {"time": 1317, "pitch": 91, "duration": 120, "velocity": 110}, {"time": 1437, "pitch": 87, "duration": 122, "velocity": 110}, {"time": 1559, "pitch": 84, "duration": 122, "velocity": 110}, {"time": 1681, "pitch": 79, "duration": 122, "velocity": 110}, {"time": 1803, "pitch": 75, "duration": 122, "velocity": 110}, {"time": 1925, "pitch": 72, "duration": 119, "velocity": 110}, {"time": 2044, "pitch": 67, "duration": 119, "velocity": 110}, {"time": 2163, "pitch": 72, "duration": 120, "velocity": 110}, {"time": 2283, "pitch": 75, "duration": 119, "velocity": 110}, {"time": 2402, "pitch": 79, "duration": 120, "velocity": 110}, {"time": 2522, "pitch": 68, "duration": 119, "velocity": 110}, {"time": 2641, "pitch": 72, "duration": 120, "velocity": 110}, {"time": 2761, "pitch": 75, "duration": 119, "velocity": 110}, {"time": 2880, "pitch": 80, "duration": 120, "velocity": 110}, {"time": 3000, "pitch": 84, "duration": 119, "velocity": 110}, {"time": 3119, "pitch": 87, "duration": 120, "velocity": 110}, {"time": 3239, "pitch": 92, "duration": 119, "velocity": 110}, {"time": 3358, "pitch": 87, "duration": 120, "velocity": 110}, {"time": 3478, "pitch": 84, "duration": 119, "velocity": 110}, {"time": 3597, "pitch": 80, "duration": 119, "velocity": 110}, {"time": 3716, "pitch": 75, "duration": 120, "velocity": 110}, {"time": 3836, "pitch": 72, "duration": 122, "velocity": 110}, {"time": 3958, "pitch": 68, "duration": 122, "velocity": 110}, {"time": 4080, "pitch": 72, "duration": 122, "velocity": 110}, {"time": 4202, "pitch": 75, "duration": 122, "velocity": 110}, {"time": 4324, "pitch": 80, "duration": 119, "velocity": 110}, {"time": 4443, "pitch": 70, "duration": 119, "velocity": 110}, {"time": 4562, "pitch": 74, "duration": 120, "velocity": 110}, {"time": 4682, "pitch": 77, "duration": 119, "velocity": 110}, {"time": 4801, "pitch": 82, "duration": 120, "velocity": 110}, {"time": 4921, "pitch": 86, "duration": 119, "velocity": 110}, {"time": 5040, "pitch": 89, "duration": 120, "velocity": 110}, {"time": 5160, "pitch": 94, "duration": 119, "velocity": 110}, {"time": 5279, "pitch": 89, "duration": 120, "velocity": 110}, {"time": 5399, "pitch": 86, "duration": 119, "velocity": 110}, {"time": 5518, "pitch": 82, "duration": 120, "velocity": 110}, {"time": 5638, "pitch": 77, "duration": 119, "velocity": 110}, {"time": 5757, "pitch": 74, "duration": 122, "velocity": 110}, {"time": 5879, "pitch": 70, "duration": 122, "velocity": 110}, {"time": 6001, "pitch": 74, "duration": 122, "velocity": 110}, {"time": 6123, "pitch": 77, "duration": 122, "velocity": 110}, {"time": 6245, "pitch": 82, "duration": 119, "velocity": 110}, {"time": 6364, "pitch": 72, "duration": 120, "velocity": 110}, {"time": 6484, "pitch": 75, "duration": 119, "velocity": 110}, {"time": 6603, "pitch": 79, "duration": 120, "velocity": 110}, {"time": 6723, "pitch": 84, "duration": 119, "velocity": 110}, {"time": 6842, "pitch": 87, "duration": 120, "velocity": 110}, {"time": 6962, "pitch": 91, "duration": 119, "velocity": 110}, {"time": 7081, "pitch": 96, "duration": 119, "velocity": 110}, {"time": 7200, "pitch": 91, "duration": 120, "velocity": 110}, {"time": 7320, "pitch": 87, "duration": 119, "velocity": 110}, {"time": 7439, "pitch": 84, "duration": 120, "velocity": 110}, {"time": 7559, "pitch": 79, "duration": 119, "velocity": 110}, {"time": 7678, "pitch": 75, "duration": 120, "velocity": 110}, {"time": 7798, "pitch": 72, "duration": 119, "velocity": 110}, {"time": 7917, "pitch": 75, "duration": 120, "velocity": 110}, {"time": 8037, "pitch": 79, "duration": 119, "velocity": 110}, {"time": 8156, "pitch": 84, "duration": 122, "velocity": 110}, {"time": 8278, "pitch": 67, "duration": 122, "velocity": 110}, {"time": 8400, "pitch": 72, "duration": 122, "velocity": 110}, {"time": 8522, "pitch": 75, "duration": 122, "velocity": 110}, {"time": 8644, "pitch": 79, "duration": 119, "velocity": 110}, {"time": 8763, "pitch": 84, "duration": 120, "velocity": 110}, {"time": 8883, "pitch": 87, "duration": 119, "velocity": 110}, {"time": 9002, "pitch": 91, "duration": 120, "velocity": 110}, {"time": 9122, "pitch": 87, "duration": 119, "velocity": 110}, {"time": 9241, "pitch": 84, "duration": 120, "velocity": 110}, {"time": 9361, "pitch": 79, "duration": 119, "velocity": 110}, {"time": 9480, "pitch": 75, "duration": 120, "velocity": 110}, {"time": 9600, "pitch": 72, "duration": 119, "velocity": 110}, {"time": 9719, "pitch": 67, "duration": 119, "velocity": 110}, {"time": 9838, "pitch": 72, "duration": 120, "velocity": 110}, {"time": 9958, "pitch": 75, "duration": 119, "velocity": 110}, {"time": 10077, "pitch": 79, "duration": 120, "velocity": 110}, {"time": 10197, "pitch": 68, "duration": 119, "velocity": 110}, {"time": 10316, "pitch": 72, "duration": 120, "velocity": 110}, {"time": 10436, "pitch": 75, "duration": 119, "velocity": 110}, {"time": 10555, "pitch": 80, "duration": 122, "velocity": 110}, {"time": 10677, "pitch": 84, "duration": 122, "velocity": 110}, {"time": 10799, "pitch": 87, "duration": 122, "velocity": 110}, {"time": 10921, "pitch": 92, "duration": 122, "velocity": 110}, {"time": 11043, "pitch": 87, "duration": 119, "velocity": 110}, {"time": 11162, "pitch": 84, "duration": 120, "velocity": 110}, {"time": 11282, "pitch": 80, "duration": 119, "velocity": 110}, {"time": 11401, "pitch": 75, "duration": 120, "velocity": 110}, {"time": 11521, "pitch": 72, "duration": 119, "velocity": 110}, {"time": 11640, "pitch": 68, "duration": 120, "velocity": 110}, {"time": 11760, "pitch": 72, "duration": 119, "velocity": 110}, {"time": 11879, "pitch": 75, "duration": 120, "velocity": 110}, {"time": 11999, "pitch": 80, "duration": 119, "velocity": 110}, {"time": 12118, "pitch": 70, "duration": 119, "velocity": 110}, {"time": 12237, "pitch": 74, "duration": 120, "velocity": 110}, {"time": 12357, "pitch": 77, "duration": 119, "velocity": 110}, {"time": 12476, "pitch": 82, "duration": 122, "velocity": 110}, {"time": 12598, "pitch": 86, "duration": 122, "velocity": 110}, {"time": 12720, "pitch": 89, "duration": 122, "velocity": 110}, {"time": 12842, "pitch": 94, "duration": 122, "velocity": 110}, {"time": 12964, "pitch": 89, "duration": 119, "velocity": 110}, {"time": 13083, "pitch": 86, "duration": 120, "velocity": 110}, {"time": 13203, "pitch": 82, "duration": 119, "velocity": 110}, {"time": 13322, "pitch": 77, "duration": 120, "velocity": 110}, {"time": 13442, "pitch": 74, "duration": 119, "velocity": 110}, {"time": 13561, "pitch": 70, "duration": 120, "velocity": 110}, {"time": 13681, "pitch": 74, "duration": 119, "velocity": 110}, {"time": 13800, "pitch": 77, "duration": 120, "velocity": 110}, {"time": 13920, "pitch": 82, "duration": 119, "velocity": 110}, {"time": 14039, "pitch": 72, "duration": 120, "velocity": 110}, {"time": 14159, "pitch": 75, "duration": 119, "velocity": 110}, {"time": 14278, "pitch": 79, "duration": 120, "velocity": 110}, {"time": 14398, "pitch": 84, "duration": 119, "velocity": 110}, {"time": 14517, "pitch": 87, "duration": 120, "velocity": 110}, {"time": 14637, "pitch": 91, "duration": 119, "velocity": 110}, {"time": 14756, "pitch": 96, "duration": 119, "velocity": 110}, {"time": 14875, "pitch": 91, "duration": 122, "velocity": 110}, {"time": 14997, "pitch": 87, "duration": 122, "velocity": 110}, {"time": 15119, "pitch": 84, "duration": 122, "velocity": 110}, {"time": 15241, "pitch": 79, "duration": 122, "velocity": 110}, {"time": 15363, "pitch": 75, "duration": 120, "velocity": 110}, {"time": 15483, "pitch": 72, "duration": 119, "velocity": 110}, {"time": 15602, "pitch": 75, "duration": 119, "velocity": 110}, {"time": 15721, "pitch": 79, "duration": 120, "velocity": 110}, {"time": 15841, "pitch": 84, "duration": 119, "velocity": 110}, {"time": 15960, "pitch": 72, "duration": 120, "velocity": 110}, {"time": 16080, "pitch": 75, "duration": 119, "velocity": 110}, {"time": 16199, "pitch": 79, "duration": 120, "velocity": 110}, {"time": 16319, "pitch": 84, "duration": 119, "velocity": 110}, {"time": 16438, "pitch": 87, "duration": 120, "velocity": 110}, {"time": 16558, "pitch": 91, "duration": 119, "velocity": 110}, {"time": 16677, "pitch": 96, "duration": 120, "velocity": 110}, {"time": 16797, "pitch": 91, "duration": 122, "velocity": 110}, {"time": 16919, "pitch": 87, "duration": 121, "velocity": 110}, {"time": 17040, "pitch": 84, "duration": 122, "velocity": 110}, {"time": 17162, "pitch": 79, "duration": 122, "velocity": 110}, {"time": 17284, "pitch": 75, "duration": 120, "velocity": 110}, {"time": 17404, "pitch": 72, "duration": 119, "velocity": 110}, {"time": 17523, "pitch": 75, "duration": 120, "velocity": 110}, {"time": 17643, "pitch": 79, "duration": 119, "velocity": 110}, {"time": 17762, "pitch": 84, "duration": 120, "velocity": 110}, {"time": 17882, "pitch": 72, "duration": 120, "velocity": 110}, {"time": 18002, "pitch": 75, "duration": 120, "velocity": 110}, {"time": 18122, "pitch": 79, "duration": 120, "velocity": 110}, {"time": 18242, "pitch": 84, "duration": 120, "velocity": 110}, {"time": 18362, "pitch": 87, "duration": 120, "velocity": 110}, {"time": 18482, "pitch": 91, "duration": 120, "velocity": 110}, {"time": 18602, "pitch": 96, "duration": 120, "velocity": 110}, {"time": 18722, "pitch": 91, "duration": 120, "velocity": 110}, {"time": 18842, "pitch": 87, "duration": 120, "velocity": 110}, {"time": 18962, "pitch": 84, "duration": 120, "velocity": 110}, {"time": 19082, "pitch": 79, "duration": 120, "velocity": 110}, {"time": 19202, "pitch": 75, "duration": 120, "velocity": 110}, {"time": 19322, "pitch": 72, "duration": 120, "velocity": 110}, {"time": 19442, "pitch": 75, "duration": 120, "velocity": 110}, {"time": 19682, "pitch": 79, "duration": 120, "velocity": 110}, {"time": 19802, "pitch": 84, "duration": 120, "velocity": 110}, {"time": 96482, "pitch": 55, "duration": 60, "velocity": 120}, {"time": 96602, "pitch": 58, "duration": 60, "velocity": 120}, {"time": 96722, "pitch": 60, "duration": 60, "velocity": 120}, {"time": 96842, "pitch": 65, "duration": 60, "velocity": 120}, {"time": 96962, "pitch": 67, "duration": 60, "velocity": 120}, {"time": 97082, "pitch": 70, "duration": 60, "velocity": 120}, {"time": 97202, "pitch": 72, "duration": 60, "velocity": 120}, {"time": 97322, "pitch": 77, "duration": 60, "velocity": 120}, {"time": 97442, "pitch": 77, "duration": 60, "velocity": 120}, {"time": 97562, "pitch": 72, "duration": 60, "velocity": 120}, {"time": 97682, "pitch": 70, "duration": 60, "velocity": 120}, {"time": 97802, "pitch": 67, "duration": 60, "velocity": 120}, {"time": 97922, "pitch": 65, "duration": 60, "velocity": 120}, {"time": 98042, "pitch": 60, "duration": 60, "velocity": 120}, {"time": 98162, "pitch": 58, "duration": 60, "velocity": 120}, {"time": 98282, "pitch": 55, "duration": 60, "velocity": 120}, {"time": 98402, "pitch": 57, "duration": 60, "velocity": 120}, {"time": 98522, "pitch": 60, "duration": 60, "velocity": 120}, {"time": 98642, "pitch": 62, "duration": 60, "velocity": 120}, {"time": 98762, "pitch": 67, "duration": 60, "velocity": 120}, {"time": 98882, "pitch": 69, "duration": 60, "velocity": 120}, {"time": 99002, "pitch": 72, "duration": 60, "velocity": 120}, {"time": 99122, "pitch": 74, "duration": 60, "velocity": 120}, {"time": 99242, "pitch": 79, "duration": 60, "velocity": 120}, {"time": 99362, "pitch": 79, "duration": 60, "velocity": 120}, {"time": 99482, "pitch": 74, "duration": 60, "velocity": 120}, {"time": 99602, "pitch": 72, "duration": 60, "velocity": 120}, {"time": 99722, "pitch": 69, "duration": 60, "velocity": 120}, {"time": 99842, "pitch": 67, "duration": 60, "velocity": 120}, {"time": 99962, "pitch": 62, "duration": 60, "velocity": 120}, {"time": 100082, "pitch": 60, "duration": 60, "velocity": 120}, {"time": 100202, "pitch": 57, "duration": 60, "velocity": 120}, {"time": 100322, "pitch": 58, "duration": 60, "velocity": 120}, {"time": 100442, "pitch": 62, "duration": 60, "velocity": 120}, {"time": 100562, "pitch": 64, "duration": 60, "velocity": 120}, {"time": 100682, "pitch": 69, "duration": 60, "velocity": 120}, {"time": 100802, "pitch": 70, "duration": 60, "velocity": 120}, {"time": 100922, "pitch": 74, "duration": 60, "velocity": 120}, {"time": 101042, "pitch": 76, "duration": 60, "velocity": 120}, {"time": 101162, "pitch": 81, "duration": 60, "velocity": 120}, {"time": 101282, "pitch": 81, "duration": 60, "velocity": 120}, {"time": 101402, "pitch": 76, "duration": 60, "velocity": 120}, {"time": 101522, "pitch": 74, "duration": 60, "velocity": 120}, {"time": 101642, "pitch": 70, "duration": 60, "velocity": 120}, {"time": 101762, "pitch": 69, "duration": 60, "velocity": 120}, {"time": 101882, "pitch": 64, "duration": 60, "velocity": 120}, {"time": 102002, "pitch": 62, "duration": 60, "velocity": 120}, {"time": 102122, "pitch": 58, "duration": 60, "velocity": 120}, {"time": 102242, "pitch": 60, "duration": 60, "velocity": 120}, {"time": 102362, "pitch": 65, "duration": 60, "velocity": 120}, {"time": 102482, "pitch": 67, "duration": 60, "velocity": 120}, {"time": 102602, "pitch": 72, "duration": 60, "velocity": 120}, {"time": 102722, "pitch": 77, "duration": 60, "velocity": 120}, {"time": 102842, "pitch": 79, "duration": 60, "velocity": 120}, {"time": 102962, "pitch": 84, "duration": 60, "velocity": 120}, {"time": 103082, "pitch": 79, "duration": 60, "velocity": 120}, {"time": 103202, "pitch": 84, "duration": 60, "velocity": 120}, {"time": 103322, "pitch": 79, "duration": 60, "velocity": 120}, {"time": 103442, "pitch": 77, "duration": 60, "velocity": 120}, {"time": 103562, "pitch": 72, "duration": 60, "velocity": 120}, {"time": 103682, "pitch": 67, "duration": 60, "velocity": 120}, {"time": 103802, "pitch": 65, "duration": 60, "velocity": 120}, {"time": 103922, "pitch": 60, "duration": 60, "velocity": 120}, {"time": 104042, "pitch": 60, "duration": 60, "velocity": 120}, {"time": 104162, "pitch": 55, "duration": 60, "velocity": 120}, {"time": 104282, "pitch": 58, "duration": 60, "velocity": 120}, {"time": 104402, "pitch": 60, "duration": 60, "velocity": 120}, {"time": 104522, "pitch": 65, "duration": 60, "velocity": 120}, {"time": 104642, "pitch": 67, "duration": 60, "velocity": 120}, {"time": 104762, "pitch": 70, "duration": 60, "velocity": 120}, {"time": 104882, "pitch": 72, "duration": 60, "velocity": 120}, {"time": 105002, "pitch": 77, "duration": 60, "velocity": 120}, {"time": 105122, "pitch": 77, "duration": 60, "velocity": 120}, {"time": 105242, "pitch": 72, "duration": 60, "velocity": 120}, {"time": 105362, "pitch": 70, "duration": 60, "velocity": 120}, {"time": 105482, "pitch": 67, "duration": 60, "velocity": 120}, {"time": 105602, "pitch": 65, "duration": 60, "velocity": 120}, {"time": 105722, "pitch": 60, "duration": 60, "velocity": 120}, {"time": 105842, "pitch": 58, "duration": 60, "velocity": 120}, {"time": 105962, "pitch": 55, "duration": 60, "velocity": 120}, {"time": 106082, "pitch": 57, "duration": 60, "velocity": 120}, {"time": 106202, "pitch": 60, "duration": 60, "velocity": 120}, {"time": 106322, "pitch": 62, "duration": 60, "velocity": 120}, {"time": 106442, "pitch": 67, "duration": 60, "velocity": 120}, {"time": 106562, "pitch": 69, "duration": 60, "velocity": 120}, {"time": 106682, "pitch": 72, "duration": 60, "velocity": 120}, {"time": 106802, "pitch": 74, "duration": 60, "velocity": 120}, {"time": 106922, "pitch": 79, "duration": 60, "velocity": 120}, {"time": 107042, "pitch": 79, "duration": 60, "velocity": 120}, {"time": 107162, "pitch": 74, "duration": 60, "velocity": 120}, {"time": 107282, "pitch": 72, "duration": 60, "velocity": 120}, {"time": 107402, "pitch": 69, "duration": 60, "velocity": 120}, {"time": 107522, "pitch": 67, "duration": 60, "velocity": 120}, {"time": 107642, "pitch": 62, "duration": 60, "velocity": 120}, {"time": 107762, "pitch": 60, "duration": 60, "velocity": 120}, {"time": 107882, "pitch": 57, "duration": 60, "velocity": 120}, {"time": 108002, "pitch": 58, "duration": 60, "velocity": 120}, {"time": 108122, "pitch": 62, "duration": 60, "velocity": 120}, {"time": 108242, "pitch": 64, "duration": 60, "velocity": 120}, {"time": 108362, "pitch": 69, "duration": 60, "velocity": 120}, {"time": 108482, "pitch": 70, "duration": 60, "velocity": 120}, {"time": 108602, "pitch": 74, "duration": 60, "velocity": 120}, {"time": 108722, "pitch": 76, "duration": 60, "velocity": 120}, {"time": 108842, "pitch": 81, "duration": 60, "velocity": 120}, {"time": 108962, "pitch": 81, "duration": 60, "velocity": 120}, {"time": 109082, "pitch": 76, "duration": 60, "velocity": 120}, {"time": 109202, "pitch": 74, "duration": 60, "velocity": 120}, {"time": 109322, "pitch": 70, "duration": 60, "velocity": 120}, {"time": 109442, "pitch": 69, "duration": 60, "velocity": 120}, {"time": 109562, "pitch": 64, "duration": 60, "velocity": 120}, {"time": 109682, "pitch": 62, "duration": 60, "velocity": 120}, {"time": 109802, "pitch": 58, "duration": 60, "velocity": 120}, {"time": 109922, "pitch": 48, "duration": 60, "velocity": 120}, {"time": 110042, "pitch": 53, "duration": 60, "velocity": 120}, {"time": 110162, "pitch": 55, "duration": 60, "velocity": 120}, {"time": 110282, "pitch": 60, "duration": 60, "velocity": 120}, {"time": 110402, "pitch": 60, "duration": 60, "velocity": 120}, {"time": 110522, "pitch": 65, "duration": 60, "velocity": 120}, {"time": 110642, "pitch": 67, "duration": 60, "velocity": 120}, {"time": 110762, "pitch": 72, "duration": 60, "velocity": 120}, {"time": 110882, "pitch": 72, "duration": 60, "velocity": 120}, {"time": 111002, "pitch": 77, "duration": 60, "velocity": 120}, {"time": 111122, "pitch": 79, "duration": 60, "velocity": 120}, {"time": 111242, "pitch": 84, "duration": 60, "velocity": 120}, {"time": 111362, "pitch": 84, "duration": 60, "velocity": 120}, {"time": 111482, "pitch": 89, "duration": 60, "velocity": 120}, {"time": 111602, "pitch": 91, "duration": 60, "velocity": 120}, {"time": 111722, "pitch": 96, "duration": 60, "velocity": 120}, {"time": 165602, "pitch": 55, "duration": 60, "velocity": 120}, {"time": 165722, "pitch": 58, "duration": 60, "velocity": 120}, {"time": 165842, "pitch": 60, "duration": 60, "velocity": 120}, {"time": 165962, "pitch": 65, "duration": 60, "velocity": 120}, {"time": 166082, "pitch": 67, "duration": 60, "velocity": 120}, {"time": 166202, "pitch": 70, "duration": 60, "velocity": 120}, {"time": 166322, "pitch": 72, "duration": 60, "velocity": 120}, {"time": 166442, "pitch": 77, "duration": 60, "velocity": 120}, {"time": 166562, "pitch": 77, "duration": 60, "velocity": 120}, {"time": 166682, "pitch": 72, "duration": 60, "velocity": 120}, {"time": 166802, "pitch": 70, "duration": 60, "velocity": 120}, {"time": 166922, "pitch": 67, "duration": 60, "velocity": 120}, {"time": 167042, "pitch": 65, "duration": 60, "velocity": 120}, {"time": 167162, "pitch": 60, "duration": 60, "velocity": 120}, {"time": 167282, "pitch": 58, "duration": 60, "velocity": 120}, {"time": 167402, "pitch": 55, "duration": 60, "velocity": 120}, {"time": 167522, "pitch": 57, "duration": 60, "velocity": 120}, {"time": 167642, "pitch": 60, "duration": 60, "velocity": 120}, {"time": 167762, "pitch": 62, "duration": 60, "velocity": 120}, {"time": 167882, "pitch": 67, "duration": 60, "velocity": 120}, {"time": 168002, "pitch": 69, "duration": 60, "velocity": 120}, {"time": 168122, "pitch": 72, "duration": 60, "velocity": 120}, {"time": 168242, "pitch": 74, "duration": 60, "velocity": 120}, {"time": 168362, "pitch": 79, "duration": 60, "velocity": 120}, {"time": 168482, "pitch": 79, "duration": 60, "velocity": 120}, {"time": 168602, "pitch": 74, "duration": 60, "velocity": 120}, {"time": 168722, "pitch": 72, "duration": 60, "velocity": 120}, {"time": 168842, "pitch": 69, "duration": 60, "velocity": 120}, {"time": 168962, "pitch": 67, "duration": 60, "velocity": 120}, {"time": 169082, "pitch": 62, "duration": 60, "velocity": 120}, {"time": 169202, "pitch": 60, "duration": 60, "velocity": 120}, {"time": 169322, "pitch": 57, "duration": 60, "velocity": 120}, {"time": 169442, "pitch": 58, "duration": 60, "velocity": 120}, {"time": 169562, "pitch": 62, "duration": 60, "velocity": 120}, {"time": 169682, "pitch": 64, "duration": 60, "velocity": 120}, {"time": 169802, "pitch": 69, "duration": 60, "velocity": 120}, {"time": 169922, "pitch": 70, "duration": 60, "velocity": 120}, {"time": 170042, "pitch": 74, "duration": 60, "velocity": 120}, {"time": 170162, "pitch": 76, "duration": 60, "velocity": 120}, {"time": 170282, "pitch": 81, "duration": 60, "velocity": 120}, {"time": 170402, "pitch": 81, "duration": 60, "velocity": 120}, {"time": 170522, "pitch": 76, "duration": 60, "velocity": 120}, {"time": 170642, "pitch": 74, "duration": 60, "velocity": 120}, {"time": 170762, "pitch": 70, "duration": 60, "velocity": 120}, {"time": 170882, "pitch": 69, "duration": 60, "velocity": 120}, {"time": 171002, "pitch": 64, "duration": 60, "velocity": 120}, {"time": 171122, "pitch": 62, "duration": 60, "velocity": 120}, {"time": 171242, "pitch": 58, "duration": 60, "velocity": 120}, {"time": 171362, "pitch": 60, "duration": 60, "velocity": 120}, {"time": 171482, "pitch": 65, "duration": 60, "velocity": 120}, {"time": 171602, "pitch": 67, "duration": 60, "velocity": 120}, {"time": 171722, "pitch": 72, "duration": 60, "velocity": 120}, {"time": 171842, "pitch": 77, "duration": 60, "velocity": 120}, {"time": 171962, "pitch": 79, "duration": 60, "velocity": 120}, {"time": 172082, "pitch": 84, "duration": 60, "velocity": 120}, {"time": 172202, "pitch": 79, "duration": 60, "velocity": 120}, {"time": 172322, "pitch": 84, "duration": 60, "velocity": 120}, {"time": 172442, "pitch": 79, "duration": 60, "velocity": 120}, {"time": 172562, "pitch": 77, "duration": 60, "velocity": 120}, {"time": 172682, "pitch": 72, "duration": 60, "velocity": 120}, {"time": 172802, "pitch": 67, "duration": 60, "velocity": 120}, {"time": 172922, "pitch": 65, "duration": 60, "velocity": 120}, {"time": 173042, "pitch": 60, "duration": 60, "velocity": 120}, {"time": 173162, "pitch": 60, "duration": 60, "velocity": 120}, {"time": 173282, "pitch": 55, "duration": 60, "velocity": 120}, {"time": 173402, "pitch": 58, "duration": 60, "velocity": 120}, {"time": 173522, "pitch": 60, "duration": 60, "velocity": 120}, {"time": 173642, "pitch": 65, "duration": 60, "velocity": 120}, {"time": 173762, "pitch": 67, "duration": 60, "velocity": 120}, {"time": 173882, "pitch": 70, "duration": 60, "velocity": 120}, {"time": 174002, "pitch": 72, "duration": 60, "velocity": 120}, {"time": 174122, "pitch": 77, "duration": 60, "velocity": 120}, {"time": 174242, "pitch": 77, "duration": 60, "velocity": 120}, {"time": 174362, "pitch": 72, "duration": 60, "velocity": 120}, {"time": 174482, "pitch": 70, "duration": 60, "velocity": 120}, {"time": 174602, "pitch": 67, "duration": 60, "velocity": 120}, {"time": 174722, "pitch": 65, "duration": 60, "velocity": 120}, {"time": 174842, "pitch": 60, "duration": 60, "velocity": 120}, {"time": 174962, "pitch": 58, "duration": 60, "velocity": 120}, {"time": 175082, "pitch": 55, "duration": 60, "velocity": 120}, {"time": 175202, "pitch": 57, "duration": 60, "velocity": 120}, {"time": 175322, "pitch": 60, "duration": 60, "velocity": 120}, {"time": 175442, "pitch": 62, "duration": 60, "velocity": 120}, {"time": 175562, "pitch": 67, "duration": 60, "velocity": 120}, {"time": 175682, "pitch": 69, "duration": 60, "velocity": 120}, {"time": 175802, "pitch": 72, "duration": 60, "velocity": 120}, {"time": 175922, "pitch": 74, "duration": 60, "velocity": 120}, {"time": 176042, "pitch": 79, "duration": 60, "velocity": 120}, {"time": 176162, "pitch": 79, "duration": 60, "velocity": 120}, {"time": 176282, "pitch": 74, "duration": 60, "velocity": 120}, {"time": 176402, "pitch": 72, "duration": 60, "velocity": 120}, {"time": 176522, "pitch": 69, "duration": 60, "velocity": 120}, {"time": 176642, "pitch": 67, "duration": 60, "velocity": 120}, {"time": 176762, "pitch": 62, "duration": 60, "velocity": 120}, {"time": 176882, "pitch": 60, "duration": 60, "velocity": 120}, {"time": 177002, "pitch": 57, "duration": 60, "velocity": 120}, {"time": 177122, "pitch": 58, "duration": 60, "velocity": 120}, {"time": 177242, "pitch": 62, "duration": 60, "velocity": 120}, {"time": 177362, "pitch": 64, "duration": 60, "velocity": 120}, {"time": 177482, "pitch": 69, "duration": 60, "velocity": 120}, {"time": 177602, "pitch": 70, "duration": 60, "velocity": 120}, {"time": 177722, "pitch": 74, "duration": 60, "velocity": 120}, {"time": 177842, "pitch": 76, "duration": 60, "velocity": 120}, {"time": 177962, "pitch": 81, "duration": 60, "velocity": 120}, {"time": 178082, "pitch": 81, "duration": 60, "velocity": 120}, {"time": 178202, "pitch": 76, "duration": 60, "velocity": 120}, {"time": 178322, "pitch": 74, "duration": 60, "velocity": 120}, {"time": 178442, "pitch": 70, "duration": 60, "velocity": 120}, {"time": 178562, "pitch": 69, "duration": 60, "velocity": 120}, {"time": 178682, "pitch": 64, "duration": 60, "velocity": 120}, {"time": 178802, "pitch": 62, "duration": 60, "velocity": 120}, {"time": 178922, "pitch": 58, "duration": 60, "velocity": 120}, {"time": 179042, "pitch": 48, "duration": 60, "velocity": 120}, {"time": 179162, "pitch": 53, "duration": 60, "velocity": 120}, {"time": 179282, "pitch": 55, "duration": 60, "velocity": 120}, {"time": 179402, "pitch": 60, "duration": 60, "velocity": 120}, {"time": 179522, "pitch": 60, "duration": 60, "velocity": 120}, {"time": 179642, "pitch": 65, "duration": 60, "velocity": 120}, {"time": 179762, "pitch": 67, "duration": 60, "velocity": 120}, {"time": 179882, "pitch": 72, "duration": 60, "velocity": 120}, {"time": 180002, "pitch": 72, "duration": 60, "velocity": 120}, {"time": 180122, "pitch": 77, "duration": 60, "velocity": 120}, {"time": 180242, "pitch": 79, "duration": 60, "velocity": 120}, {"time": 180362, "pitch": 84, "duration": 60, "velocity": 120}, {"time": 180482, "pitch": 84, "duration": 60, "velocity": 120}, {"time": 180602, "pitch": 89, "duration": 60, "velocity": 120}, {"time": 180722, "pitch": 91, "duration": 60, "velocity": 120}, {"time": 180842, "pitch": 96, "duration": 60, "velocity": 120}, {"time": 8156, "pitch": 67, "duration": 1921, "velocity": 100}, {"time": 8156, "pitch": 72, "duration": 1921, "velocity": 100}, {"time": 8156, "pitch": 75, "duration": 1921, "velocity": 100}, {"time": 10077, "pitch": 68, "duration": 1922, "velocity": 100}, {"time": 10077, "pitch": 72, "duration": 1922, "velocity": 100}, {"time": 10077, "pitch": 75, "duration": 1922, "velocity": 100}, {"time": 11999, "pitch": 70, "duration": 1921, "velocity": 100}, {"time": 11999, "pitch": 74, "duration": 1921, "velocity": 100}, {"time": 11999, "pitch": 77, "duration": 1921, "velocity": 100}, {"time": 13920, "pitch": 72, "duration": 5762, "velocity": 100}, {"time": 13920, "pitch": 75, "duration": 5762, "velocity": 100}, {"time": 13920, "pitch": 79, "duration": 5762, "velocity": 100}, {"time": 34802, "pitch": 72, "duration": 148, "velocity": 127}, {"time": 34802, "pitch": 84, "duration": 152, "velocity": 127}, {"time": 34922, "pitch": 73, "duration": 137, "velocity": 127}, {"time": 34922, "pitch": 85, "duration": 136, "velocity": 127}, {"time": 35042, "pitch": 74, "duration": 218, "velocity": 127}, {"time": 35042, "pitch": 86, "duration": 260, "velocity": 127}, {"time": 38882, "pitch": 77, "duration": 325, "velocity": 127}, {"time": 38882, "pitch": 89, "duration": 326, "velocity": 127}, {"time": 39122, "pitch": 74, "duration": 81, "velocity": 127}, {"time": 39122, "pitch": 86, "duration": 81, "velocity": 127}, {"time": 40322, "pitch": 77, "duration": 66, "velocity": 127}, {"time": 40322, "pitch": 89, "duration": 73, "velocity": 127}, {"time": 40682, "pitch": 77, "duration": 339, "velocity": 127}, {"time": 40682, "pitch": 89, "duration": 330, "velocity": 127}, {"time": 41042, "pitch": 74, "duration": 71, "velocity": 127}, {"time": 41042, "pitch": 86, "duration": 66, "velocity": 127}, {"time": 42482, "pitch": 72, "duration": 102, "velocity": 127}, {"time": 42482, "pitch": 84, "duration": 125, "velocity": 127}, {"time": 42602, "pitch": 73, "duration": 165, "velocity": 127}, {"time": 42602, "pitch": 85, "duration": 130, "velocity": 127}, {"time": 42722, "pitch": 74, "duration": 227, "velocity": 127}, {"time": 42722, "pitch": 86, "duration": 258, "velocity": 127}, {"time": 46562, "pitch": 77, "duration": 325, "velocity": 127}, {"time": 46562, "pitch": 89, "duration": 326, "velocity": 127}, {"time": 46802, "pitch": 74, "duration": 161, "velocity": 127}, {"time": 46802, "pitch": 86, "duration": 161, "velocity": 127}, {"time": 48002, "pitch": 77, "duration": 66, "velocity": 127}, {"time": 48002, "pitch": 89, "duration": 73, "velocity": 127}, {"time": 48482, "pitch": 69, "duration": 202, "velocity": 127}, {"time": 48482, "pitch": 81, "duration": 196, "velocity": 127}, {"time": 48722, "pitch": 72, "duration": 66, "velocity": 127}, {"time": 48722, "pitch": 84, "duration": 68, "velocity": 127}, {"time": 49202, "pitch": 69, "duration": 180, "velocity": 127}, {"time": 49202, "pitch": 81, "duration": 178, "velocity": 127}, {"time": 49682, "pitch": 67, "duration": 88, "velocity": 127}, {"time": 49682, "pitch": 79, "duration": 86, "velocity": 127}, {"time": 49922, "pitch": 65, "duration": 233, "velocity": 127}, {"time": 49922, "pitch": 77, "duration": 191, "velocity": 127}, {"time": 50042, "pitch": 67, "duration": 101, "velocity": 127}, {"time": 50042, "pitch": 79, "duration": 107, "velocity": 127}, {"time": 50162, "pitch": 69, "duration": 141, "velocity": 125}, {"time": 50162, "pitch": 81, "duration": 147, "velocity": 127}, {"time": 55442, "pitch": 65, "duration": 136, "velocity": 127}, {"time": 55442, "pitch": 77, "duration": 101, "velocity": 127}, {"time": 55562, "pitch": 67, "duration": 92, "velocity": 127}, {"time": 55562, "pitch": 79, "duration": 84, "velocity": 127}, {"time": 55922, "pitch": 70, "duration": 155, "velocity": 127}, {"time": 55922, "pitch": 82, "duration": 139, "velocity": 127}, {"time": 56882, "pitch": 65, "duration": 112, "velocity": 127}, {"time": 56882, "pitch": 77, "duration": 123, "velocity": 127}, {"time": 57002, "pitch": 67, "duration": 178, "velocity": 127}, {"time": 57002, "pitch": 79, "duration": 156, "velocity": 127}, {"time": 57122, "pitch": 72, "duration": 104, "velocity": 127}, {"time": 57122, "pitch": 84, "duration": 113, "velocity": 127}, {"time": 57602, "pitch": 72, "duration": 126, "velocity": 127}, {"time": 57602, "pitch": 84, "duration": 126, "velocity": 127}, {"time": 63842, "pitch": 72, "duration": 1517, "velocity": 127}, {"time": 63842, "pitch": 84, "duration": 1512, "velocity": 127}, {"time": 65522, "pitch": 72, "duration": 148, "velocity": 127}, {"time": 65522, "pitch": 84, "duration": 152, "velocity": 127}, {"time": 65642, "pitch": 73, "duration": 137, "velocity": 127}, {"time": 65642, "pitch": 85, "duration": 136, "velocity": 127}, {"time": 65762, "pitch": 74, "duration": 218, "velocity": 127}, {"time": 65762, "pitch": 86, "duration": 260, "velocity": 127}, {"time": 69602, "pitch": 77, "duration": 325, "velocity": 127}, {"time": 69602, "pitch": 89, "duration": 326, "velocity": 127}, {"time": 69842, "pitch": 74, "duration": 81, "velocity": 127}, {"time": 69842, "pitch": 86, "duration": 81, "velocity": 127}, {"time": 71042, "pitch": 77, "duration": 66, "velocity": 127}, {"time": 71042, "pitch": 89, "duration": 73, "velocity": 127}, {"time": 71402, "pitch": 77, "duration": 339, "velocity": 127}, {"time": 71402, "pitch": 89, "duration": 330, "velocity": 127}, {"time": 71762, "pitch": 74, "duration": 71, "velocity": 127}, {"time": 71762, "pitch": 86, "duration": 66, "velocity": 127}, {"time": 73202, "pitch": 72, "duration": 102, "velocity": 127}, {"time": 73202, "pitch": 84, "duration": 125, "velocity": 127}, {"time": 73322, "pitch": 73, "duration": 165, "velocity": 127}, {"time": 73322, "pitch": 85, "duration": 130, "velocity": 127}, {"time": 73442, "pitch": 74, "duration": 227, "velocity": 127}, {"time": 73442, "pitch": 86, "duration": 258, "velocity": 127}, {"time": 77282, "pitch": 77, "duration": 325, "velocity": 127}, {"time": 77282, "pitch": 89, "duration": 326, "velocity": 127}, {"time": 77522, "pitch": 74, "duration": 161, "velocity": 127}, {"time": 77522, "pitch": 86, "duration": 161, "velocity": 127}, {"time": 78722, "pitch": 77, "duration": 66, "velocity": 127}, {"time": 78722, "pitch": 89, "duration": 73, "velocity": 127}, {"time": 79202, "pitch": 69, "duration": 202, "velocity": 127}, {"time": 79202, "pitch": 81, "duration": 196, "velocity": 127}, {"time": 79442, "pitch": 72, "duration": 66, "velocity": 127}, {"time": 79442, "pitch": 84, "duration": 68, "velocity": 127}, {"time": 79922, "pitch": 69, "duration": 180, "velocity": 127}, {"time": 79922, "pitch": 81, "duration": 178, "velocity": 127}, {"time": 80402, "pitch": 67, "duration": 88, "velocity": 127}, {"time": 80402, "pitch": 79, "duration": 86, "velocity": 127}, {"time": 80642, "pitch": 65, "duration": 233, "velocity": 127}, {"time": 80642, "pitch": 77, "duration": 191, "velocity": 127}, {"time": 80762, "pitch": 67, "duration": 101, "velocity": 127}, {"time": 80762, "pitch": 79, "duration": 107, "velocity": 127}, {"time": 80882, "pitch": 69, "duration": 141, "velocity": 125}, {"time": 80882, "pitch": 81, "duration": 147, "velocity": 127}, {"time": 86162, "pitch": 65, "duration": 136, "velocity": 127}, {"time": 86162, "pitch": 77, "duration": 101, "velocity": 127}, {"time": 86282, "pitch": 67, "duration": 92, "velocity": 127}, {"time": 86282, "pitch": 79, "duration": 84, "velocity": 127}, {"time": 86642, "pitch": 70, "duration": 155, "velocity": 127}, {"time": 86642, "pitch": 82, "duration": 139, "velocity": 127}, {"time": 87602, "pitch": 65, "duration": 112, "velocity": 127}, {"time": 87602, "pitch": 77, "duration": 123, "velocity": 127}, {"time": 87722, "pitch": 67, "duration": 178, "velocity": 127}, {"time": 87722, "pitch": 79, "duration": 156, "velocity": 127}, {"time": 87842, "pitch": 72, "duration": 104, "velocity": 127}, {"time": 87842, "pitch": 84, "duration": 113, "velocity": 127}, {"time": 88322, "pitch": 72, "duration": 126, "velocity": 127}, {"time": 88322, "pitch": 84, "duration": 126, "velocity": 127}, {"time": 94562, "pitch": 72, "duration": 1517, "velocity": 127}, {"time": 94562, "pitch": 84, "duration": 1512, "velocity": 127}, {"time": 96242, "pitch": 72, "duration": 148, "velocity": 127}, {"time": 96242, "pitch": 84, "duration": 152, "velocity": 127}, {"time": 134642, "pitch": 72, "duration": 148, "velocity": 127}, {"time": 134642, "pitch": 84, "duration": 152, "velocity": 127}, {"time": 134762, "pitch": 73, "duration": 137, "velocity": 127}, {"time": 134762, "pitch": 85, "duration": 136, "velocity": 127}, {"time": 134882, "pitch": 74, "duration": 218, "velocity": 127}, {"time": 134882, "pitch": 86, "duration": 260, "velocity": 127}, {"time": 138722, "pitch": 77, "duration": 325, "velocity": 127}, {"time": 138722, "pitch": 89, "duration": 326, "velocity": 127}, {"time": 138962, "pitch": 74, "duration": 81, "velocity": 127}, {"time": 138962, "pitch": 86, "duration": 81, "velocity": 127}, {"time": 140162, "pitch": 77, "duration": 66, "velocity": 127}, {"time": 140162, "pitch": 89, "duration": 73, "velocity": 127}, {"time": 140522, "pitch": 77, "duration": 339, "velocity": 127}, {"time": 140522, "pitch": 89, "duration": 330, "velocity": 127}, {"time": 140882, "pitch": 74, "duration": 71, "velocity": 127}, {"time": 140882, "pitch": 86, "duration": 66, "velocity": 127}, {"time": 142322, "pitch": 72, "duration": 102, "velocity": 127}, {"time": 142322, "pitch": 84, "duration": 125, "velocity": 127}, {"time": 142442, "pitch": 73, "duration": 165, "velocity": 127}, {"time": 142442, "pitch": 85, "duration": 130, "velocity": 127}, {"time": 142562, "pitch": 74, "duration": 227, "velocity": 127}, {"time": 142562, "pitch": 86, "duration": 258, "velocity": 127}, {"time": 146402, "pitch": 77, "duration": 325, "velocity": 127}, {"time": 146402, "pitch": 89, "duration": 326, "velocity": 127}, {"time": 146642, "pitch": 74, "duration": 161, "velocity": 127}, {"time": 146642, "pitch": 86, "duration": 161, "velocity": 127}, {"time": 147842, "pitch": 77, "duration": 66, "velocity": 127}, {"time": 147842, "pitch": 89, "duration": 73, "velocity": 127}, {"time": 148322, "pitch": 69, "duration": 202, "velocity": 127}, {"time": 148322, "pitch": 81, "duration": 196, "velocity": 127}, {"time": 148562, "pitch": 72, "duration": 66, "velocity": 127}, {"time": 148562, "pitch": 84, "duration": 68, "velocity": 127}, {"time": 149042, "pitch": 69, "duration": 180, "velocity": 127}, {"time": 149042, "pitch": 81, "duration": 178, "velocity": 127}, {"time": 149522, "pitch": 67, "duration": 88, "velocity": 127}, {"time": 149522, "pitch": 79, "duration": 86, "velocity": 127}, {"time": 149762, "pitch": 65, "duration": 233, "velocity": 127}, {"time": 149762, "pitch": 77, "duration": 191, "velocity": 127}, {"time": 149882, "pitch": 67, "duration": 101, "velocity": 127}, {"time": 149882, "pitch": 79, "duration": 107, "velocity": 127}, {"time": 150002, "pitch": 69, "duration": 141, "velocity": 125}, {"time": 150002, "pitch": 81, "duration": 147, "velocity": 127}, {"time": 155282, "pitch": 65, "duration": 136, "velocity": 127}, {"time": 155282, "pitch": 77, "duration": 101, "velocity": 127}, {"time": 155402, "pitch": 67, "duration": 92, "velocity": 127}, {"time": 155402, "pitch": 79, "duration": 84, "velocity": 127}, {"time": 155762, "pitch": 70, "duration": 155, "velocity": 127}, {"time": 155762, "pitch": 82, "duration": 139, "velocity": 127}, {"time": 156722, "pitch": 65, "duration": 112, "velocity": 127}, {"time": 156722, "pitch": 77, "duration": 123, "velocity": 127}, {"time": 156842, "pitch": 67, "duration": 178, "velocity": 127}, {"time": 156842, "pitch": 79, "duration": 156, "velocity": 127}, {"time": 156962, "pitch": 72, "duration": 104, "velocity": 127}, {"time": 156962, "pitch": 84, "duration": 113, "velocity": 127}, {"time": 157442, "pitch": 72, "duration": 126, "velocity": 127}, {"time": 157442, "pitch": 84, "duration": 126, "velocity": 127}, {"time": 163682, "pitch": 72, "duration": 1517, "velocity": 127}, {"time": 163682, "pitch": 84, "duration": 1512, "velocity": 127}, {"time": 165362, "pitch": 72, "duration": 148, "velocity": 127}, {"time": 165362, "pitch": 84, "duration": 152, "velocity": 127}, {"time": 96482, "pitch": 55, "duration": 1920, "velocity": 120}, {"time": 96482, "pitch": 58, "duration": 1920, "velocity": 120}, {"time": 96482, "pitch": 60, "duration": 1920, "velocity": 120}, {"time": 96482, "pitch": 65, "duration": 1920, "velocity": 120}, {"time": 96482, "pitch": 70, "duration": 1920, "velocity": 120}, {"time": 96482, "pitch": 72, "duration": 1920, "velocity": 120}, {"time": 96482, "pitch": 77, "duration": 1920, "velocity": 120}, {"time": 98402, "pitch": 57, "duration": 1920, "velocity": 120}, {"time": 98402, "pitch": 60, "duration": 1920, "velocity": 120}, {"time": 98402, "pitch": 62, "duration": 1920, "velocity": 120}, {"time": 98402, "pitch": 67, "duration": 1920, "velocity": 120}, {"time": 98402, "pitch": 72, "duration": 1920, "velocity": 120}, {"time": 98402, "pitch": 74, "duration": 1920, "velocity": 120}, {"time": 98402, "pitch": 79, "duration": 1920, "velocity": 120}, {"time": 100322, "pitch": 58, "duration": 1920, "velocity": 120}, {"time": 100322, "pitch": 62, "duration": 1920, "velocity": 120}, {"time": 100322, "pitch": 64, "duration": 1920, "velocity": 120}, {"time": 100322, "pitch": 69, "duration": 1920, "velocity": 120}, {"time": 100322, "pitch": 74, "duration": 1920, "velocity": 120}, {"time": 100322, "pitch": 76, "duration": 1920, "velocity": 120}, {"time": 100322, "pitch": 81, "duration": 1920, "velocity": 120}, {"time": 102242, "pitch": 60, "duration": 1920, "velocity": 120}, {"time": 102242, "pitch": 65, "duration": 1920, "velocity": 120}, {"time": 102242, "pitch": 67, "duration": 1920, "velocity": 120}, {"time": 102242, "pitch": 72, "duration": 1920, "velocity": 120}, {"time": 102242, "pitch": 77, "duration": 1920, "velocity": 120}, {"time": 102242, "pitch": 79, "duration": 1920, "velocity": 120}, {"time": 102242, "pitch": 84, "duration": 1920, "velocity": 120}, {"time": 104162, "pitch": 55, "duration": 1920, "velocity": 120}, {"time": 104162, "pitch": 58, "duration": 1920, "velocity": 120}, {"time": 104162, "pitch": 60, "duration": 1920, "velocity": 120}, {"time": 104162, "pitch": 65, "duration": 1920, "velocity": 120}, {"time": 104162, "pitch": 70, "duration": 1920, "velocity": 120}, {"time": 104162, "pitch": 72, "duration": 1920, "velocity": 120}, {"time": 104162, "pitch": 77, "duration": 1920, "velocity": 120}, {"time": 106082, "pitch": 57, "duration": 1920, "velocity": 120}, {"time": 106082, "pitch": 60, "duration": 1920, "velocity": 120}, {"time": 106082, "pitch": 62, "duration": 1920, "velocity": 120}, {"time": 106082, "pitch": 67, "duration": 1920, "velocity": 120}, {"time": 106082, "pitch": 72, "duration": 1920, "velocity": 120}, {"time": 106082, "pitch": 74, "duration": 1920, "velocity": 120}, {"time": 106082, "pitch": 79, "duration": 1920, "velocity": 120}, {"time": 108002, "pitch": 58, "duration": 1920, "velocity": 120}, {"time": 108002, "pitch": 62, "duration": 1920, "velocity": 120}, {"time": 108002, "pitch": 64, "duration": 1920, "velocity": 120}, {"time": 108002, "pitch": 69, "duration": 1920, "velocity": 120}, {"time": 108002, "pitch": 74, "duration": 1920, "velocity": 120}, {"time": 108002, "pitch": 76, "duration": 1920, "velocity": 120}, {"time": 108002, "pitch": 81, "duration": 1920, "velocity": 120}, {"time": 109922, "pitch": 60, "duration": 1920, "velocity": 120}, {"time": 109922, "pitch": 65, "duration": 1920, "velocity": 120}, {"time": 109922, "pitch": 67, "duration": 1920, "velocity": 120}, {"time": 109922, "pitch": 72, "duration": 1920, "velocity": 120}, {"time": 109922, "pitch": 77, "duration": 1920, "velocity": 120}, {"time": 109922, "pitch": 79, "duration": 1920, "velocity": 120}, {"time": 109922, "pitch": 84, "duration": 1920, "velocity": 120}, {"time": 111842, "pitch": 53, "duration": 1920, "velocity": 120}, {"time": 111842, "pitch": 65, "duration": 1920, "velocity": 120}, {"time": 111842, "pitch": 72, "duration": 1803, "velocity": 94}, {"time": 111842, "pitch": 77, "duration": 1803, "velocity": 94}, {"time": 111842, "pitch": 81, "duration": 1808, "velocity": 92}, {"time": 113762, "pitch": 55, "duration": 1920, "velocity": 120}, {"time": 113762, "pitch": 67, "duration": 1920, "velocity": 120}, {"time": 113762, "pitch": 74, "duration": 1920, "velocity": 120}, {"time": 113762, "pitch": 79, "duration": 1920, "velocity": 120}, {"time": 113762, "pitch": 82, "duration": 1920, "velocity": 120}, {"time": 115682, "pitch": 58, "duration": 1920, "velocity": 120}, {"time": 115682, "pitch": 70, "duration": 1920, "velocity": 120}, {"time": 115682, "pitch": 77, "duration": 1920, "velocity": 120}, {"time": 115682, "pitch": 81, "duration": 1920, "velocity": 120}, {"time": 115682, "pitch": 84, "duration": 1920, "velocity": 120}, {"time": 117602, "pitch": 60, "duration": 1920, "velocity": 120}, {"time": 117602, "pitch": 72, "duration": 1920, "velocity": 120}, {"time": 117602, "pitch": 76, "duration": 1920, "velocity": 120}, {"time": 117602, "pitch": 79, "duration": 1920, "velocity": 120}, {"time": 117602, "pitch": 84, "duration": 1920, "velocity": 120}, {"time": 119522, "pitch": 53, "duration": 1920, "velocity": 120}, {"time": 119522, "pitch": 65, "duration": 1920, "velocity": 120}, {"time": 119522, "pitch": 72, "duration": 1803, "velocity": 94}, {"time": 119522, "pitch": 77, "duration": 1803, "velocity": 94}, {"time": 119522, "pitch": 81, "duration": 1808, "velocity": 92}, {"time": 121442, "pitch": 55, "duration": 1920, "velocity": 120}, {"time": 121442, "pitch": 67, "duration": 1920, "velocity": 120}, {"time": 121442, "pitch": 74, "duration": 1920, "velocity": 120}, {"time": 121442, "pitch": 79, "duration": 1920, "velocity": 120}, {"time": 121442, "pitch": 82, "duration": 1920, "velocity": 120}, {"time": 123362, "pitch": 58, "duration": 1920, "velocity": 120}, {"time": 123362, "pitch": 70, "duration": 1920, "velocity": 120}, {"time": 123362, "pitch": 77, "duration": 1920, "velocity": 120}, {"time": 123362, "pitch": 81, "duration": 1920, "velocity": 120}, {"time": 123362, "pitch": 84, "duration": 1920, "velocity": 120}, {"time": 125282, "pitch": 60, "duration": 1920, "velocity": 120}, {"time": 125282, "pitch": 72, "duration": 1920, "velocity": 120}, {"time": 125282, "pitch": 76, "duration": 1920, "velocity": 120}, {"time": 125282, "pitch": 79, "duration": 1920, "velocity": 120}, {"time": 125282, "pitch": 84, "duration": 1920, "velocity": 120}, {"time": 127202, "pitch": 53, "duration": 7680, "velocity": 120}, {"time": 127202, "pitch": 65, "duration": 7680, "velocity": 120}, {"time": 127202, "pitch": 69, "duration": 7680, "velocity": 120}, {"time": 127202, "pitch": 72, "duration": 7680, "velocity": 120}, {"time": 127202, "pitch": 77, "duration": 7680, "velocity": 120}, {"time": 165602, "pitch": 55, "duration": 1920, "velocity": 120}, {"time": 165602, "pitch": 58, "duration": 1920, "velocity": 120}, {"time": 165602, "pitch": 60, "duration": 1920, "velocity": 120}, {"time": 165602, "pitch": 65, "duration": 1920, "velocity": 120}, {"time": 165602, "pitch": 70, "duration": 1920, "velocity": 120}, {"time": 165602, "pitch": 72, "duration": 1920, "velocity": 120}, {"time": 165602, "pitch": 77, "duration": 1920, "velocity": 120}, {"time": 167522, "pitch": 57, "duration": 1920, "velocity": 120}, {"time": 167522, "pitch": 60, "duration": 1920, "velocity": 120}, {"time": 167522, "pitch": 62, "duration": 1920, "velocity": 120}, {"time": 167522, "pitch": 67, "duration": 1920, "velocity": 120}, {"time": 167522, "pitch": 72, "duration": 1920, "velocity": 120}, {"time": 167522, "pitch": 74, "duration": 1920, "velocity": 120}, {"time": 167522, "pitch": 79, "duration": 1920, "velocity": 120}, {"time": 169442, "pitch": 58, "duration": 1920, "velocity": 120}, {"time": 169442, "pitch": 62, "duration": 1920, "velocity": 120}, {"time": 169442, "pitch": 64, "duration": 1920, "velocity": 120}, {"time": 169442, "pitch": 69, "duration": 1920, "velocity": 120}, {"time": 169442, "pitch": 74, "duration": 1920, "velocity": 120}, {"time": 169442, "pitch": 76, "duration": 1920, "velocity": 120}, {"time": 169442, "pitch": 81, "duration": 1920, "velocity": 120}, {"time": 171362, "pitch": 60, "duration": 1920, "velocity": 120}, {"time": 171362, "pitch": 65, "duration": 1920, "velocity": 120}, {"time": 171362, "pitch": 67, "duration": 1920, "velocity": 120}, {"time": 171362, "pitch": 72, "duration": 1920, "velocity": 120}, {"time": 171362, "pitch": 77, "duration": 1920, "velocity": 120}, {"time": 171362, "pitch": 79, "duration": 1920, "velocity": 120}, {"time": 171362, "pitch": 84, "duration": 1920, "velocity": 120}, {"time": 173282, "pitch": 55, "duration": 1920, "velocity": 120}, {"time": 173282, "pitch": 58, "duration": 1920, "velocity": 120}, {"time": 173282, "pitch": 60, "duration": 1920, "velocity": 120}, {"time": 173282, "pitch": 65, "duration": 1920, "velocity": 120}, {"time": 173282, "pitch": 70, "duration": 1920, "velocity": 120}, {"time": 173282, "pitch": 72, "duration": 1920, "velocity": 120}, {"time": 173282, "pitch": 77, "duration": 1920, "velocity": 120}, {"time": 175202, "pitch": 57, "duration": 1920, "velocity": 120}, {"time": 175202, "pitch": 60, "duration": 1920, "velocity": 120}, {"time": 175202, "pitch": 62, "duration": 1920, "velocity": 120}, {"time": 175202, "pitch": 67, "duration": 1920, "velocity": 120}, {"time": 175202, "pitch": 72, "duration": 1920, "velocity": 120}, {"time": 175202, "pitch": 74, "duration": 1920, "velocity": 120}, {"time": 175202, "pitch": 79, "duration": 1920, "velocity": 120}, {"time": 177122, "pitch": 58, "duration": 1920, "velocity": 120}, {"time": 177122, "pitch": 62, "duration": 1920, "velocity": 120}, {"time": 177122, "pitch": 64, "duration": 1920, "velocity": 120}, {"time": 177122, "pitch": 69, "duration": 1920, "velocity": 120}, {"time": 177122, "pitch": 74, "duration": 1920, "velocity": 120}, {"time": 177122, "pitch": 76, "duration": 1920, "velocity": 120}, {"time": 177122, "pitch": 81, "duration": 1920, "velocity": 120}, {"time": 179042, "pitch": 60, "duration": 1920, "velocity": 120}, {"time": 179042, "pitch": 65, "duration": 1920, "velocity": 120}, {"time": 179042, "pitch": 67, "duration": 1920, "velocity": 120}, {"time": 179042, "pitch": 72, "duration": 1920, "velocity": 120}, {"time": 179042, "pitch": 77, "duration": 1920, "velocity": 120}, {"time": 179042, "pitch": 79, "duration": 1920, "velocity": 120}, {"time": 179042, "pitch": 84, "duration": 1920, "velocity": 120}, {"time": 180962, "pitch": 53, "duration": 1920, "velocity": 120}, {"time": 180962, "pitch": 65, "duration": 1920, "velocity": 120}, {"time": 180962, "pitch": 72, "duration": 1803, "velocity": 94}, {"time": 180962, "pitch": 77, "duration": 1803, "velocity": 94}, {"time": 180962, "pitch": 81, "duration": 1808, "velocity": 92}, {"time": 182882, "pitch": 55, "duration": 1920, "velocity": 120}, {"time": 182882, "pitch": 67, "duration": 1920, "velocity": 120}, {"time": 182882, "pitch": 74, "duration": 1920, "velocity": 120}, {"time": 182882, "pitch": 79, "duration": 1920, "velocity": 120}, {"time": 182882, "pitch": 82, "duration": 1920, "velocity": 120}, {"time": 184802, "pitch": 58, "duration": 1920, "velocity": 120}, {"time": 184802, "pitch": 70, "duration": 1920, "velocity": 120}, {"time": 184802, "pitch": 77, "duration": 1920, "velocity": 120}, {"time": 184802, "pitch": 81, "duration": 1920, "velocity": 120}, {"time": 184802, "pitch": 84, "duration": 1920, "velocity": 120}, {"time": 186722, "pitch": 60, "duration": 1920, "velocity": 120}, {"time": 186722, "pitch": 72, "duration": 1920, "velocity": 120}, {"time": 186722, "pitch": 76, "duration": 1920, "velocity": 120}, {"time": 186722, "pitch": 79, "duration": 1920, "velocity": 120}, {"time": 186722, "pitch": 84, "duration": 1920, "velocity": 120}, {"time": 188642, "pitch": 53, "duration": 1920, "velocity": 120}, {"time": 188642, "pitch": 65, "duration": 1920, "velocity": 120}, {"time": 188642, "pitch": 72, "duration": 1803, "velocity": 94}, {"time": 188642, "pitch": 77, "duration": 1803, "velocity": 94}, {"time": 188642, "pitch": 81, "duration": 1808, "velocity": 92}, {"time": 190562, "pitch": 55, "duration": 1920, "velocity": 120}, {"time": 190562, "pitch": 67, "duration": 1920, "velocity": 120}, {"time": 190562, "pitch": 74, "duration": 1920, "velocity": 120}, {"time": 190562, "pitch": 79, "duration": 1920, "velocity": 120}, {"time": 190562, "pitch": 82, "duration": 1920, "velocity": 120}, {"time": 192482, "pitch": 58, "duration": 1920, "velocity": 120}, {"time": 192482, "pitch": 70, "duration": 1920, "velocity": 120}, {"time": 192482, "pitch": 77, "duration": 1920, "velocity": 120}, {"time": 192482, "pitch": 81, "duration": 1920, "velocity": 120}, {"time": 192482, "pitch": 84, "duration": 1920, "velocity": 120}, {"time": 194402, "pitch": 60, "duration": 1920, "velocity": 120}, {"time": 194402, "pitch": 72, "duration": 1920, "velocity": 120}, {"time": 194402, "pitch": 76, "duration": 1920, "velocity": 120}, {"time": 194402, "pitch": 79, "duration": 1920, "velocity": 120}, {"time": 194402, "pitch": 84, "duration": 1920, "velocity": 120}, {"time": 196322, "pitch": 53, "duration": 13430, "velocity": 120}, {"time": 196322, "pitch": 65, "duration": 13430, "velocity": 120}, {"time": 196322, "pitch": 69, "duration": 13430, "velocity": 120}, {"time": 196322, "pitch": 72, "duration": 13430, "velocity": 120}, {"time": 196322, "pitch": 77, "duration": 13430, "velocity": 120}, {"time": 1436, "pitch": 72, "duration": 726, "velocity": 127}, {"time": 2162, "pitch": 72, "duration": 120, "velocity": 127}, {"time": 2401, "pitch": 72, "duration": 837, "velocity": 127}, {"time": 3357, "pitch": 72, "duration": 966, "velocity": 127}, {"time": 4323, "pitch": 70, "duration": 836, "velocity": 127}, {"time": 5278, "pitch": 74, "duration": 966, "velocity": 127}, {"time": 6244, "pitch": 75, "duration": 2877, "velocity": 127}, {"time": 9121, "pitch": 72, "duration": 716, "velocity": 127}, {"time": 9837, "pitch": 72, "duration": 120, "velocity": 127}, {"time": 10076, "pitch": 72, "duration": 844, "velocity": 127}, {"time": 11042, "pitch": 72, "duration": 956, "velocity": 127}, {"time": 11998, "pitch": 70, "duration": 843, "velocity": 127}, {"time": 12963, "pitch": 74, "duration": 956, "velocity": 127}, {"time": 13919, "pitch": 75, "duration": 6588, "velocity": 127}, {"time": 96481, "pitch": 43, "duration": 1920, "velocity": 127}, {"time": 98401, "pitch": 45, "duration": 1920, "velocity": 127}, {"time": 100321, "pitch": 46, "duration": 1920, "velocity": 127}, {"time": 102241, "pitch": 48, "duration": 1920, "velocity": 127}, {"time": 104161, "pitch": 43, "duration": 1920, "velocity": 127}, {"time": 106081, "pitch": 45, "duration": 1920, "velocity": 127}, {"time": 108001, "pitch": 46, "duration": 1920, "velocity": 127}, {"time": 109921, "pitch": 48, "duration": 1920, "velocity": 127}, {"time": 111841, "pitch": 41, "duration": 1920, "velocity": 127}, {"time": 113761, "pitch": 43, "duration": 1920, "velocity": 127}, {"time": 115681, "pitch": 46, "duration": 1920, "velocity": 127}, {"time": 117601, "pitch": 48, "duration": 960, "velocity": 127}, {"time": 118561, "pitch": 67, "duration": 120, "velocity": 127}, {"time": 118681, "pitch": 64, "duration": 120, "velocity": 127}, {"time": 118801, "pitch": 67, "duration": 120, "velocity": 127}, {"time": 118921, "pitch": 72, "duration": 120, "velocity": 127}, {"time": 119041, "pitch": 67, "duration": 120, "velocity": 127}, {"time": 119161, "pitch": 64, "duration": 120, "velocity": 127}, {"time": 119281, "pitch": 67, "duration": 120, "velocity": 127}, {"time": 119401, "pitch": 72, "duration": 120, "velocity": 127}, {"time": 119521, "pitch": 41, "duration": 1920, "velocity": 127}, {"time": 119521, "pitch": 72, "duration": 240, "velocity": 127}, {"time": 119761, "pitch": 71, "duration": 60, "velocity": 100}, {"time": 119821, "pitch": 70, "duration": 60, "velocity": 84}, {"time": 119881, "pitch": 69, "duration": 60, "velocity": 62}, {"time": 119941, "pitch": 68, "duration": 60, "velocity": 52}, {"time": 121441, "pitch": 43, "duration": 1920, "velocity": 127}, {"time": 123361, "pitch": 46, "duration": 1920, "velocity": 127}, {"time": 125281, "pitch": 48, "duration": 960, "velocity": 127}, {"time": 126241, "pitch": 67, "duration": 120, "velocity": 127}, {"time": 126361, "pitch": 64, "duration": 120, "velocity": 127}, {"time": 126481, "pitch": 67, "duration": 120, "velocity": 127}, {"time": 126601, "pitch": 72, "duration": 120, "velocity": 127}, {"time": 126721, "pitch": 67, "duration": 120, "velocity": 127}, {"time": 126841, "pitch": 64, "duration": 120, "velocity": 127}, {"time": 126961, "pitch": 67, "duration": 120, "velocity": 127}, {"time": 127081, "pitch": 72, "duration": 120, "velocity": 127}, {"time": 127201, "pitch": 41, "duration": 7680, "velocity": 127}, {"time": 127201, "pitch": 72, "duration": 240, "velocity": 127}, {"time": 127441, "pitch": 71, "duration": 60, "velocity": 100}, {"time": 127501, "pitch": 70, "duration": 60, "velocity": 84}, {"time": 127561, "pitch": 69, "duration": 60, "velocity": 62}, {"time": 127621, "pitch": 68, "duration": 60, "velocity": 52}, {"time": 165601, "pitch": 43, "duration": 1920, "velocity": 127}, {"time": 167521, "pitch": 45, "duration": 1920, "velocity": 127}, {"time": 169441, "pitch": 46, "duration": 1920, "velocity": 127}, {"time": 171361, "pitch": 48, "duration": 1920, "velocity": 127}, {"time": 173281, "pitch": 43, "duration": 1920, "velocity": 127}, {"time": 175201, "pitch": 45, "duration": 1920, "velocity": 127}, {"time": 177121, "pitch": 46, "duration": 1920, "velocity": 127}, {"time": 179041, "pitch": 48, "duration": 1920, "velocity": 127}, {"time": 180961, "pitch": 41, "duration": 1920, "velocity": 127}, {"time": 182881, "pitch": 43, "duration": 1920, "velocity": 127}, {"time": 184801, "pitch": 46, "duration": 1920, "velocity": 127}, {"time": 186721, "pitch": 48, "duration": 960, "velocity": 127}, {"time": 187681, "pitch": 67, "duration": 120, "velocity": 127}, {"time": 187801, "pitch": 64, "duration": 120, "velocity": 127}, {"time": 187921, "pitch": 67, "duration": 120, "velocity": 127}, {"time": 188041, "pitch": 72, "duration": 120, "velocity": 127}, {"time": 188161, "pitch": 67, "duration": 120, "velocity": 127}, {"time": 188281, "pitch": 64, "duration": 120, "velocity": 127}, {"time": 188401, "pitch": 67, "duration": 120, "velocity": 127}, {"time": 188521, "pitch": 72, "duration": 120, "velocity": 127}, {"time": 188641, "pitch": 41, "duration": 1920, "velocity": 127}, {"time": 188641, "pitch": 72, "duration": 240, "velocity": 127}, {"time": 188881, "pitch": 71, "duration": 60, "velocity": 100}, {"time": 188941, "pitch": 70, "duration": 60, "velocity": 84}, {"time": 189001, "pitch": 69, "duration": 60, "velocity": 62}, {"time": 189061, "pitch": 68, "duration": 60, "velocity": 52}, {"time": 190561, "pitch": 43, "duration": 1920, "velocity": 127}, {"time": 192481, "pitch": 46, "duration": 1920, "velocity": 127}, {"time": 194401, "pitch": 48, "duration": 960, "velocity": 127}, {"time": 195361, "pitch": 67, "duration": 120, "velocity": 127}, {"time": 195481, "pitch": 64, "duration": 120, "velocity": 127}, {"time": 195601, "pitch": 67, "duration": 120, "velocity": 127}, {"time": 195721, "pitch": 72, "duration": 120, "velocity": 127}, {"time": 195841, "pitch": 67, "duration": 120, "velocity": 127}, {"time": 195961, "pitch": 64, "duration": 120, "velocity": 127}, {"time": 196081, "pitch": 67, "duration": 120, "velocity": 127}, {"time": 196201, "pitch": 72, "duration": 120, "velocity": 127}, {"time": 196321, "pitch": 41, "duration": 7680, "velocity": 127}, {"time": 196321, "pitch": 72, "duration": 240, "velocity": 127}, {"time": 196561, "pitch": 71, "duration": 60, "velocity": 100}, {"time": 196621, "pitch": 70, "duration": 60, "velocity": 84}, {"time": 196681, "pitch": 69, "duration": 60, "velocity": 62}, {"time": 196741, "pitch": 68, "duration": 60, "velocity": 52}, {"time": 204001, "pitch": 41, "duration": 3840, "velocity": 127}, {"time": 8156, "pitch": 35, "duration": 72, "velocity": 125}, {"time": 8400, "pitch": 35, "duration": 122, "velocity": 125}, {"time": 8644, "pitch": 36, "duration": 119, "velocity": 120}, {"time": 9122, "pitch": 35, "duration": 119, "velocity": 125}, {"time": 9480, "pitch": 35, "duration": 120, "velocity": 125}, {"time": 9838, "pitch": 35, "duration": 120, "velocity": 125}, {"time": 10077, "pitch": 35, "duration": 120, "velocity": 125}, {"time": 10316, "pitch": 35, "duration": 120, "velocity": 125}, {"time": 10555, "pitch": 36, "duration": 122, "velocity": 120}, {"time": 11043, "pitch": 35, "duration": 119, "velocity": 125}, {"time": 11401, "pitch": 35, "duration": 120, "velocity": 125}, {"time": 11760, "pitch": 35, "duration": 119, "velocity": 125}, {"time": 11879, "pitch": 35, "duration": 120, "velocity": 125}, {"time": 11999, "pitch": 35, "duration": 119, "velocity": 125}, {"time": 12237, "pitch": 35, "duration": 120, "velocity": 125}, {"time": 12476, "pitch": 36, "duration": 122, "velocity": 120}, {"time": 12964, "pitch": 35, "duration": 119, "velocity": 125}, {"time": 13322, "pitch": 35, "duration": 120, "velocity": 125}, {"time": 13681, "pitch": 35, "duration": 119, "velocity": 125}, {"time": 13920, "pitch": 35, "duration": 119, "velocity": 125}, {"time": 14159, "pitch": 35, "duration": 119, "velocity": 125}, {"time": 14398, "pitch": 36, "duration": 119, "velocity": 120}, {"time": 14865, "pitch": 35, "duration": 122, "velocity": 125}, {"time": 15231, "pitch": 35, "duration": 122, "velocity": 125}, {"time": 15602, "pitch": 35, "duration": 20, "velocity": 125}, {"time": 15721, "pitch": 35, "duration": 20, "velocity": 125}, {"time": 15841, "pitch": 35, "duration": 119, "velocity": 125}, {"time": 16319, "pitch": 35, "duration": 119, "velocity": 125}, {"time": 16797, "pitch": 35, "duration": 122, "velocity": 125}, {"time": 17284, "pitch": 35, "duration": 120, "velocity": 125}, {"time": 17762, "pitch": 35, "duration": 240, "velocity": 125}, {"time": 17762, "pitch": 38, "duration": 120, "velocity": 120}, {"time": 17882, "pitch": 38, "duration": 120, "velocity": 120}, {"time": 18002, "pitch": 35, "duration": 240, "velocity": 125}, {"time": 18002, "pitch": 38, "duration": 120, "velocity": 120}, {"time": 18122, "pitch": 38, "duration": 120, "velocity": 120}, {"time": 18242, "pitch": 35, "duration": 240, "velocity": 125}, {"time": 18242, "pitch": 38, "duration": 120, "velocity": 120}, {"time": 18362, "pitch": 38, "duration": 120, "velocity": 120}, {"time": 18482, "pitch": 35, "duration": 240, "velocity": 125}, {"time": 18482, "pitch": 38, "duration": 120, "velocity": 120}, {"time": 18602, "pitch": 38, "duration": 120, "velocity": 120}, {"time": 18722, "pitch": 35, "duration": 240, "velocity": 125}, {"time": 18722, "pitch": 38, "duration": 120, "velocity": 120}, {"time": 18842, "pitch": 38, "duration": 120, "velocity": 120}, {"time": 18962, "pitch": 35, "duration": 240, "velocity": 125}, {"time": 18962, "pitch": 38, "duration": 120, "velocity": 120}, {"time": 19082, "pitch": 38, "duration": 120, "velocity": 120}, {"time": 19202, "pitch": 35, "duration": 240, "velocity": 125}, {"time": 19202, "pitch": 38, "duration": 120, "velocity": 120}, {"time": 19322, "pitch": 38, "duration": 120, "velocity": 120}, {"time": 19442, "pitch": 35, "duration": 240, "velocity": 125}, {"time": 19442, "pitch": 38, "duration": 120, "velocity": 120}, {"time": 19562, "pitch": 38, "duration": 120, "velocity": 120}, {"time": 19682, "pitch": 35, "duration": 120, "velocity": 125}, {"time": 19682, "pitch": 38, "duration": 60, "velocity": 127}, {"time": 19742, "pitch": 38, "duration": 60, "velocity": 127}, {"time": 19802, "pitch": 35, "duration": 120, "velocity": 125}, {"time": 19802, "pitch": 38, "duration": 60, "velocity": 127}, {"time": 19862, "pitch": 38, "duration": 60, "velocity": 127}, {"time": 19922, "pitch": 35, "duration": 120, "velocity": 125}, {"time": 19922, "pitch": 38, "duration": 60, "velocity": 127}, {"time": 19982, "pitch": 38, "duration": 60, "velocity": 127}, {"time": 20042, "pitch": 35, "duration": 120, "velocity": 125}, {"time": 20042, "pitch": 38, "duration": 60, "velocity": 112}, {"time": 20102, "pitch": 38, "duration": 60, "velocity": 127}, {"time": 20162, "pitch": 35, "duration": 120, "velocity": 125}, {"time": 20162, "pitch": 38, "duration": 60, "velocity": 127}, {"time": 20222, "pitch": 38, "duration": 60, "velocity": 127}, {"time": 20282, "pitch": 35, "duration": 120, "velocity": 125}, {"time": 20282, "pitch": 38, "duration": 60, "velocity": 112}, {"time": 20342, "pitch": 38, "duration": 60, "velocity": 112}, {"time": 20402, "pitch": 35, "duration": 120, "velocity": 125}, {"time": 20402, "pitch": 38, "duration": 60, "velocity": 116}, {"time": 20462, "pitch": 38, "duration": 60, "velocity": 112}, {"time": 20522, "pitch": 35, "duration": 120, "velocity": 125}, {"time": 20522, "pitch": 38, "duration": 60, "velocity": 112}, {"time": 20582, "pitch": 38, "duration": 60, "velocity": 127}, {"time": 20642, "pitch": 35, "duration": 60, "velocity": 125}, {"time": 20642, "pitch": 38, "duration": 30, "velocity": 127}, {"time": 20672, "pitch": 38, "duration": 30, "velocity": 127}, {"time": 20702, "pitch": 35, "duration": 60, "velocity": 125}, {"time": 20702, "pitch": 38, "duration": 30, "velocity": 112}, {"time": 20732, "pitch": 38, "duration": 30, "velocity": 127}, {"time": 20762, "pitch": 35, "duration": 60, "velocity": 125}, {"time": 20762, "pitch": 38, "duration": 30, "velocity": 112}, {"time": 20792, "pitch": 38, "duration": 30, "velocity": 127}, {"time": 20822, "pitch": 35, "duration": 60, "velocity": 125}, {"time": 20822, "pitch": 38, "duration": 30, "velocity": 112}, {"time": 20852, "pitch": 38, "duration": 30, "velocity": 127}, {"time": 20882, "pitch": 35, "duration": 60, "velocity": 125}, {"time": 20882, "pitch": 38, "duration": 30, "velocity": 127}, {"time": 20912, "pitch": 38, "duration": 30, "velocity": 112}, {"time": 20942, "pitch": 35, "duration": 60, "velocity": 125}, {"time": 20942, "pitch": 38, "duration": 30, "velocity": 112}, {"time": 20972, "pitch": 38, "duration": 30, "velocity": 112}, {"time": 21002, "pitch": 35, "duration": 60, "velocity": 125}, {"time": 21002, "pitch": 38, "duration": 30, "velocity": 112}, {"time": 21032, "pitch": 38, "duration": 30, "velocity": 127}, {"time": 21062, "pitch": 35, "duration": 60, "velocity": 125}, {"time": 21062, "pitch": 38, "duration": 30, "velocity": 127}, {"time": 21092, "pitch": 38, "duration": 30, "velocity": 116}, {"time": 21122, "pitch": 35, "duration": 60, "velocity": 125}, {"time": 21122, "pitch": 38, "duration": 30, "velocity": 112}, {"time": 21152, "pitch": 38, "duration": 30, "velocity": 127}, {"time": 21182, "pitch": 35, "duration": 60, "velocity": 125}, {"time": 21182, "pitch": 38, "duration": 30, "velocity": 116}, {"time": 21212, "pitch": 38, "duration": 30, "velocity": 127}, {"time": 21242, "pitch": 35, "duration": 60, "velocity": 125}, {"time": 21242, "pitch": 38, "duration": 30, "velocity": 127}, {"time": 21272, "pitch": 38, "duration": 30, "velocity": 112}, {"time": 21302, "pitch": 35, "duration": 60, "velocity": 125}, {"time": 21302, "pitch": 38, "duration": 30, "velocity": 112}, {"time": 21332, "pitch": 38, "duration": 30, "velocity": 127}, {"time": 21362, "pitch": 35, "duration": 60, "velocity": 125}, {"time": 21362, "pitch": 38, "duration": 30, "velocity": 112}, {"time": 21392, "pitch": 38, "duration": 30, "velocity": 112}, {"time": 21422, "pitch": 35, "duration": 60, "velocity": 125}, {"time": 21422, "pitch": 38, "duration": 30, "velocity": 127}, {"time": 21452, "pitch": 38, "duration": 30, "velocity": 127}, {"time": 21482, "pitch": 35, "duration": 60, "velocity": 125}, {"time": 21482, "pitch": 38, "duration": 30, "velocity": 127}, {"time": 21512, "pitch": 38, "duration": 30, "velocity": 127}, {"time": 21542, "pitch": 35, "duration": 60, "velocity": 125}, {"time": 21542, "pitch": 38, "duration": 30, "velocity": 127}, {"time": 21572, "pitch": 38, "duration": 30, "velocity": 127}, {"time": 21602, "pitch": 35, "duration": 240, "velocity": 125}, {"time": 21602, "pitch": 38, "duration": 480, "velocity": 127}, {"time": 21602, "pitch": 49, "duration": 240, "velocity": 127}, {"time": 21602, "pitch": 57, "duration": 240, "velocity": 127}, {"time": 23522, "pitch": 35, "duration": 120, "velocity": 125}, {"time": 24002, "pitch": 40, "duration": 120, "velocity": 120}, {"time": 24362, "pitch": 35, "duration": 120, "velocity": 125}, {"time": 24722, "pitch": 35, "duration": 120, "velocity": 125}, {"time": 24962, "pitch": 40, "duration": 120, "velocity": 120}, {"time": 25202, "pitch": 35, "duration": 120, "velocity": 125}, {"time": 25322, "pitch": 40, "duration": 120, "velocity": 120}, {"time": 25442, "pitch": 35, "duration": 120, "velocity": 125}, {"time": 25922, "pitch": 40, "duration": 120, "velocity": 120}, {"time": 26282, "pitch": 35, "duration": 120, "velocity": 125}, {"time": 26642, "pitch": 35, "duration": 120, "velocity": 125}, {"time": 26882, "pitch": 40, "duration": 120, "velocity": 120}, {"time": 27122, "pitch": 35, "duration": 120, "velocity": 125}, {"time": 27242, "pitch": 35, "duration": 120, "velocity": 125}, {"time": 27362, "pitch": 35, "duration": 120, "velocity": 125}, {"time": 27842, "pitch": 40, "duration": 120, "velocity": 120}, {"time": 28202, "pitch": 35, "duration": 120, "velocity": 125}, {"time": 28562, "pitch": 35, "duration": 120, "velocity": 125}, {"time": 28802, "pitch": 40, "duration": 120, "velocity": 120}, {"time": 29042, "pitch": 35, "duration": 120, "velocity": 125}, {"time": 29162, "pitch": 40, "duration": 120, "velocity": 120}, {"time": 29282, "pitch": 35, "duration": 120, "velocity": 125}, {"time": 29762, "pitch": 40, "duration": 120, "velocity": 120}, {"time": 30122, "pitch": 35, "duration": 120, "velocity": 125}, {"time": 30482, "pitch": 35, "duration": 120, "velocity": 125}, {"time": 30722, "pitch": 40, "duration": 120, "velocity": 120}, {"time": 31202, "pitch": 35, "duration": 120, "velocity": 125}, {"time": 31682, "pitch": 40, "duration": 120, "velocity": 120}, {"time": 32042, "pitch": 35, "duration": 120, "velocity": 125}, {"time": 32402, "pitch": 35, "duration": 120, "velocity": 125}, {"time": 32642, "pitch": 40, "duration": 120, "velocity": 120}, {"time": 32882, "pitch": 35, "duration": 120, "velocity": 125}, {"time": 33002, "pitch": 40, "duration": 120, "velocity": 120}, {"time": 33122, "pitch": 35, "duration": 120, "velocity": 125}, {"time": 33602, "pitch": 40, "duration": 120, "velocity": 120}, {"time": 33962, "pitch": 35, "duration": 120, "velocity": 125}, {"time": 34322, "pitch": 35, "duration": 120, "velocity": 125}, {"time": 34562, "pitch": 40, "duration": 120, "velocity": 120}, {"time": 34802, "pitch": 35, "duration": 120, "velocity": 125}, {"time": 34922, "pitch": 35, "duration": 120, "velocity": 125}, {"time": 35042, "pitch": 35, "duration": 120, "velocity": 125}, {"time": 35042, "pitch": 36, "duration": 60, "velocity": 127}, {"time": 35042, "pitch": 44, "duration": 112, "velocity": 127}, {"time": 35042, "pitch": 49, "duration": 120, "velocity": 120}, {"time": 35042, "pitch": 57, "duration": 120, "velocity": 120}, {"time": 35282, "pitch": 42, "duration": 135, "velocity": 127}, {"time": 35522, "pitch": 38, "duration": 120, "velocity": 120}, {"time": 35522, "pitch": 40, "duration": 117, "velocity": 127}, {"time": 35522, "pitch": 46, "duration": 125, "velocity": 127}, {"time": 35762, "pitch": 42, "duration": 101, "velocity": 127}, {"time": 35882, "pitch": 35, "duration": 120, "velocity": 125}, {"time": 36002, "pitch": 36, "duration": 60, "velocity": 127}, {"time": 36002, "pitch": 44, "duration": 89, "velocity": 127}, {"time": 36242, "pitch": 35, "duration": 120, "velocity": 125}, {"time": 36242, "pitch": 42, "duration": 89, "velocity": 127}, {"time": 36482, "pitch": 38, "duration": 120, "velocity": 120}, {"time": 36482, "pitch": 40, "duration": 79, "velocity": 127}, {"time": 36482, "pitch": 46, "duration": 98, "velocity": 127}, {"time": 36722, "pitch": 35, "duration": 120, "velocity": 125}, {"time": 36722, "pitch": 42, "duration": 82, "velocity": 127}, {"time": 36842, "pitch": 38, "duration": 120, "velocity": 120}, {"time": 36962, "pitch": 35, "duration": 120, "velocity": 125}, {"time": 36962, "pitch": 36, "duration": 60, "velocity": 127}, {"time": 36962, "pitch": 44, "duration": 74, "velocity": 127}, {"time": 37202, "pitch": 36, "duration": 60, "velocity": 127}, {"time": 37202, "pitch": 42, "duration": 72, "velocity": 127}, {"time": 37442, "pitch": 38, "duration": 120, "velocity": 120}, {"time": 37442, "pitch": 40, "duration": 84, "velocity": 127}, {"time": 37442, "pitch": 46, "duration": 81, "velocity": 127}, {"time": 37682, "pitch": 42, "duration": 62, "velocity": 127}, {"time": 37802, "pitch": 35, "duration": 120, "velocity": 125}, {"time": 37922, "pitch": 36, "duration": 60, "velocity": 127}, {"time": 37922, "pitch": 42, "duration": 72, "velocity": 127}, {"time": 38162, "pitch": 35, "duration": 120, "velocity": 125}, {"time": 38162, "pitch": 36, "duration": 60, "velocity": 127}, {"time": 38162, "pitch": 42, "duration": 60, "velocity": 127}, {"time": 38402, "pitch": 38, "duration": 120, "velocity": 120}, {"time": 38402, "pitch": 40, "duration": 60, "velocity": 127}, {"time": 38402, "pitch": 46, "duration": 60, "velocity": 127}, {"time": 38642, "pitch": 42, "duration": 55, "velocity": 127}, {"time": 38882, "pitch": 35, "duration": 120, "velocity": 125}, {"time": 38882, "pitch": 36, "duration": 60, "velocity": 127}, {"time": 38882, "pitch": 44, "duration": 17, "velocity": 127}, {"time": 39122, "pitch": 36, "duration": 60, "velocity": 127}, {"time": 39122, "pitch": 42, "duration": 63, "velocity": 112}, {"time": 39362, "pitch": 38, "duration": 120, "velocity": 120}, {"time": 39362, "pitch": 40, "duration": 77, "velocity": 127}, {"time": 39362, "pitch": 46, "duration": 72, "velocity": 127}, {"time": 39602, "pitch": 42, "duration": 67, "velocity": 127}, {"time": 39722, "pitch": 35, "duration": 120, "velocity": 125}, {"time": 39842, "pitch": 36, "duration": 60, "velocity": 127}, {"time": 39842, "pitch": 42, "duration": 62, "velocity": 127}, {"time": 40082, "pitch": 35, "duration": 120, "velocity": 125}, {"time": 40082, "pitch": 36, "duration": 60, "velocity": 127}, {"time": 40082, "pitch": 42, "duration": 65, "velocity": 112}, {"time": 40322, "pitch": 38, "duration": 120, "velocity": 120}, {"time": 40322, "pitch": 40, "duration": 64, "velocity": 127}, {"time": 40322, "pitch": 46, "duration": 75, "velocity": 127}, {"time": 40562, "pitch": 35, "duration": 120, "velocity": 125}, {"time": 40562, "pitch": 42, "duration": 72, "velocity": 127}, {"time": 40682, "pitch": 38, "duration": 120, "velocity": 120}, {"time": 40802, "pitch": 35, "duration": 120, "velocity": 125}, {"time": 40802, "pitch": 36, "duration": 60, "velocity": 127}, {"time": 40802, "pitch": 42, "duration": 65, "velocity": 127}, {"time": 41042, "pitch": 36, "duration": 60, "velocity": 127}, {"time": 41042, "pitch": 42, "duration": 67, "velocity": 127}, {"time": 41282, "pitch": 38, "duration": 120, "velocity": 120}, {"time": 41282, "pitch": 40, "duration": 91, "velocity": 127}, {"time": 41282, "pitch": 46, "duration": 91, "velocity": 127}, {"time": 41522, "pitch": 42, "duration": 72, "velocity": 127}, {"time": 41642, "pitch": 35, "duration": 120, "velocity": 125}, {"time": 41642, "pitch": 36, "duration": 60, "velocity": 127}, {"time": 41762, "pitch": 42, "duration": 67, "velocity": 127}, {"time": 42002, "pitch": 35, "duration": 120, "velocity": 125}, {"time": 42002, "pitch": 36, "duration": 60, "velocity": 127}, {"time": 42002, "pitch": 42, "duration": 38, "velocity": 127}, {"time": 42122, "pitch": 36, "duration": 60, "velocity": 127}, {"time": 42122, "pitch": 42, "duration": 60, "velocity": 95}, {"time": 42242, "pitch": 38, "duration": 120, "velocity": 120}, {"time": 42242, "pitch": 40, "duration": 75, "velocity": 127}, {"time": 42242, "pitch": 46, "duration": 101, "velocity": 127}, {"time": 42482, "pitch": 35, "duration": 120, "velocity": 125}, {"time": 42482, "pitch": 42, "duration": 62, "velocity": 127}, {"time": 42602, "pitch": 35, "duration": 120, "velocity": 125}, {"time": 42722, "pitch": 35, "duration": 120, "velocity": 125}, {"time": 42722, "pitch": 36, "duration": 60, "velocity": 127}, {"time": 42722, "pitch": 42, "duration": 65, "velocity": 127}, {"time": 42722, "pitch": 49, "duration": 120, "velocity": 120}, {"time": 42722, "pitch": 57, "duration": 120, "velocity": 120}, {"time": 42962, "pitch": 42, "duration": 62, "velocity": 127}, {"time": 43202, "pitch": 38, "duration": 120, "velocity": 120}, {"time": 43202, "pitch": 40, "duration": 74, "velocity": 127}, {"time": 43202, "pitch": 46, "duration": 50, "velocity": 112}, {"time": 43442, "pitch": 42, "duration": 46, "velocity": 127}, {"time": 43562, "pitch": 35, "duration": 120, "velocity": 125}, {"time": 43682, "pitch": 42, "duration": 51, "velocity": 127}, {"time": 43922, "pitch": 35, "duration": 120, "velocity": 125}, {"time": 43922, "pitch": 36, "duration": 60, "velocity": 127}, {"time": 43922, "pitch": 42, "duration": 68, "velocity": 127}, {"time": 44162, "pitch": 38, "duration": 120, "velocity": 120}, {"time": 44162, "pitch": 40, "duration": 67, "velocity": 127}, {"time": 44162, "pitch": 46, "duration": 75, "velocity": 127}, {"time": 44402, "pitch": 35, "duration": 120, "velocity": 125}, {"time": 44402, "pitch": 42, "duration": 58, "velocity": 127}, {"time": 44522, "pitch": 38, "duration": 120, "velocity": 120}, {"time": 44642, "pitch": 35, "duration": 120, "velocity": 125}, {"time": 44642, "pitch": 36, "duration": 60, "velocity": 127}, {"time": 44642, "pitch": 44, "duration": 74, "velocity": 127}, {"time": 44882, "pitch": 36, "duration": 60, "velocity": 127}, {"time": 44882, "pitch": 42, "duration": 72, "velocity": 127}, {"time": 45122, "pitch": 38, "duration": 120, "velocity": 120}, {"time": 45122, "pitch": 40, "duration": 84, "velocity": 127}, {"time": 45122, "pitch": 46, "duration": 81, "velocity": 127}, {"time": 45362, "pitch": 42, "duration": 62, "velocity": 127}, {"time": 45482, "pitch": 35, "duration": 120, "velocity": 125}, {"time": 45602, "pitch": 36, "duration": 60, "velocity": 127}, {"time": 45602, "pitch": 42, "duration": 72, "velocity": 127}, {"time": 45842, "pitch": 35, "duration": 120, "velocity": 125}, {"time": 45842, "pitch": 36, "duration": 60, "velocity": 127}, {"time": 45842, "pitch": 42, "duration": 60, "velocity": 127}, {"time": 46082, "pitch": 38, "duration": 120, "velocity": 120}, {"time": 46082, "pitch": 40, "duration": 60, "velocity": 127}, {"time": 46082, "pitch": 46, "duration": 60, "velocity": 127}, {"time": 46322, "pitch": 42, "duration": 55, "velocity": 127}, {"time": 46562, "pitch": 35, "duration": 120, "velocity": 125}, {"time": 46562, "pitch": 36, "duration": 60, "velocity": 127}, {"time": 46562, "pitch": 44, "duration": 17, "velocity": 127}, {"time": 46802, "pitch": 36, "duration": 60, "velocity": 127}, {"time": 46802, "pitch": 42, "duration": 63, "velocity": 112}, {"time": 47042, "pitch": 38, "duration": 120, "velocity": 120}, {"time": 47042, "pitch": 40, "duration": 77, "velocity": 127}, {"time": 47042, "pitch": 46, "duration": 72, "velocity": 127}, {"time": 47282, "pitch": 42, "duration": 67, "velocity": 127}, {"time": 47402, "pitch": 35, "duration": 120, "velocity": 125}, {"time": 47522, "pitch": 36, "duration": 60, "velocity": 127}, {"time": 47522, "pitch": 42, "duration": 62, "velocity": 127}, {"time": 47762, "pitch": 35, "duration": 120, "velocity": 125}, {"time": 47762, "pitch": 36, "duration": 60, "velocity": 127}, {"time": 47762, "pitch": 42, "duration": 65, "velocity": 112}, {"time": 48002, "pitch": 38, "duration": 120, "velocity": 120}, {"time": 48002, "pitch": 40, "duration": 64, "velocity": 127}, {"time": 48002, "pitch": 46, "duration": 75, "velocity": 127}, {"time": 48242, "pitch": 35, "duration": 120, "velocity": 125}, {"time": 48242, "pitch": 42, "duration": 72, "velocity": 127}, {"time": 48362, "pitch": 38, "duration": 120, "velocity": 120}, {"time": 48482, "pitch": 35, "duration": 120, "velocity": 125}, {"time": 48482, "pitch": 36, "duration": 60, "velocity": 127}, {"time": 48482, "pitch": 42, "duration": 65, "velocity": 127}, {"time": 48722, "pitch": 36, "duration": 60, "velocity": 127}, {"time": 48722, "pitch": 42, "duration": 67, "velocity": 127}, {"time": 48962, "pitch": 38, "duration": 120, "velocity": 120}, {"time": 48962, "pitch": 40, "duration": 91, "velocity": 127}, {"time": 48962, "pitch": 46, "duration": 91, "velocity": 127}, {"time": 49202, "pitch": 42, "duration": 72, "velocity": 127}, {"time": 49322, "pitch": 35, "duration": 120, "velocity": 125}, {"time": 49322, "pitch": 36, "duration": 60, "velocity": 127}, {"time": 49442, "pitch": 42, "duration": 67, "velocity": 127}, {"time": 49682, "pitch": 35, "duration": 120, "velocity": 125}, {"time": 49682, "pitch": 36, "duration": 60, "velocity": 127}, {"time": 49682, "pitch": 42, "duration": 38, "velocity": 127}, {"time": 49802, "pitch": 36, "duration": 60, "velocity": 127}, {"time": 49802, "pitch": 42, "duration": 60, "velocity": 95}, {"time": 49922, "pitch": 38, "duration": 120, "velocity": 120}, {"time": 49922, "pitch": 40, "duration": 75, "velocity": 127}, {"time": 49922, "pitch": 46, "duration": 101, "velocity": 127}, {"time": 50162, "pitch": 35, "duration": 120, "velocity": 125}, {"time": 50162, "pitch": 42, "duration": 62, "velocity": 127}, {"time": 50282, "pitch": 35, "duration": 120, "velocity": 125}, {"time": 50402, "pitch": 35, "duration": 120, "velocity": 125}, {"time": 50402, "pitch": 36, "duration": 60, "velocity": 127}, {"time": 50402, "pitch": 44, "duration": 112, "velocity": 127}, {"time": 50402, "pitch": 49, "duration": 120, "velocity": 120}, {"time": 50402, "pitch": 57, "duration": 120, "velocity": 120}, {"time": 50642, "pitch": 42, "duration": 135, "velocity": 127}, {"time": 50882, "pitch": 38, "duration": 120, "velocity": 120}, {"time": 50882, "pitch": 40, "duration": 117, "velocity": 127}, {"time": 50882, "pitch": 46, "duration": 125, "velocity": 127}, {"time": 51122, "pitch": 42, "duration": 101, "velocity": 127}, {"time": 51242, "pitch": 35, "duration": 120, "velocity": 125}, {"time": 51362, "pitch": 36, "duration": 60, "velocity": 127}, {"time": 51362, "pitch": 44, "duration": 89, "velocity": 127}, {"time": 51602, "pitch": 35, "duration": 120, "velocity": 125}, {"time": 51602, "pitch": 42, "duration": 89, "velocity": 127}, {"time": 51842, "pitch": 38, "duration": 120, "velocity": 120}, {"time": 51842, "pitch": 40, "duration": 79, "velocity": 127}, {"time": 51842, "pitch": 46, "duration": 98, "velocity": 127}, {"time": 52082, "pitch": 35, "duration": 120, "velocity": 125}, {"time": 52082, "pitch": 42, "duration": 82, "velocity": 127}, {"time": 52202, "pitch": 38, "duration": 120, "velocity": 120}, {"time": 52322, "pitch": 35, "duration": 120, "velocity": 125}, {"time": 52322, "pitch": 36, "duration": 60, "velocity": 127}, {"time": 52322, "pitch": 44, "duration": 74, "velocity": 127}, {"time": 52562, "pitch": 36, "duration": 60, "velocity": 127}, {"time": 52562, "pitch": 42, "duration": 72, "velocity": 127}, {"time": 52802, "pitch": 38, "duration": 120, "velocity": 120}, {"time": 52802, "pitch": 40, "duration": 84, "velocity": 127}, {"time": 52802, "pitch": 46, "duration": 81, "velocity": 127}, {"time": 53042, "pitch": 42, "duration": 62, "velocity": 127}, {"time": 53162, "pitch": 35, "duration": 120, "velocity": 125}, {"time": 53282, "pitch": 36, "duration": 60, "velocity": 127}, {"time": 53282, "pitch": 42, "duration": 72, "velocity": 127}, {"time": 53522, "pitch": 35, "duration": 120, "velocity": 125}, {"time": 53522, "pitch": 36, "duration": 60, "velocity": 127}, {"time": 53522, "pitch": 42, "duration": 60, "velocity": 127}, {"time": 53762, "pitch": 38, "duration": 120, "velocity": 120}, {"time": 53762, "pitch": 40, "duration": 60, "velocity": 127}, {"time": 53762, "pitch": 46, "duration": 60, "velocity": 127}, {"time": 54002, "pitch": 42, "duration": 55, "velocity": 127}, {"time": 54242, "pitch": 35, "duration": 120, "velocity": 125}, {"time": 54242, "pitch": 36, "duration": 60, "velocity": 127}, {"time": 54242, "pitch": 44, "duration": 17, "velocity": 127}, {"time": 54482, "pitch": 36, "duration": 60, "velocity": 127}, {"time": 54482, "pitch": 42, "duration": 63, "velocity": 112}, {"time": 54722, "pitch": 38, "duration": 120, "velocity": 120}, {"time": 54722, "pitch": 40, "duration": 77, "velocity": 127}, {"time": 54722, "pitch": 46, "duration": 72, "velocity": 127}, {"time": 54962, "pitch": 42, "duration": 67, "velocity": 127}, {"time": 55082, "pitch": 35, "duration": 120, "velocity": 125}, {"time": 55202, "pitch": 36, "duration": 60, "velocity": 127}, {"time": 55202, "pitch": 42, "duration": 62, "velocity": 127}, {"time": 55442, "pitch": 35, "duration": 120, "velocity": 125}, {"time": 55442, "pitch": 36, "duration": 60, "velocity": 127}, {"time": 55442, "pitch": 42, "duration": 65, "velocity": 112}, {"time": 55682, "pitch": 38, "duration": 120, "velocity": 120}, {"time": 55682, "pitch": 40, "duration": 64, "velocity": 127}, {"time": 55682, "pitch": 46, "duration": 75, "velocity": 127}, {"time": 55922, "pitch": 35, "duration": 120, "velocity": 125}, {"time": 55922, "pitch": 42, "duration": 72, "velocity": 127}, {"time": 56042, "pitch": 38, "duration": 120, "velocity": 120}, {"time": 56162, "pitch": 35, "duration": 120, "velocity": 125}, {"time": 56162, "pitch": 36, "duration": 60, "velocity": 127}, {"time": 56162, "pitch": 42, "duration": 65, "velocity": 127}, {"time": 56402, "pitch": 36, "duration": 60, "velocity": 127}, {"time": 56402, "pitch": 42, "duration": 67, "velocity": 127}, {"time": 56642, "pitch": 38, "duration": 120, "velocity": 120}, {"time": 56642, "pitch": 40, "duration": 91, "velocity": 127}, {"time": 56642, "pitch": 46, "duration": 91, "velocity": 127}, {"time": 56882, "pitch": 42, "duration": 72, "velocity": 127}, {"time": 57002, "pitch": 35, "duration": 120, "velocity": 125}, {"time": 57002, "pitch": 36, "duration": 60, "velocity": 127}, {"time": 57122, "pitch": 42, "duration": 67, "velocity": 127}, {"time": 57362, "pitch": 35, "duration": 120, "velocity": 125}, {"time": 57362, "pitch": 36, "duration": 60, "velocity": 127}, {"time": 57362, "pitch": 42, "duration": 38, "velocity": 127}, {"time": 57482, "pitch": 36, "duration": 60, "velocity": 127}, {"time": 57482, "pitch": 42, "duration": 60, "velocity": 95}, {"time": 57602, "pitch": 38, "duration": 120, "velocity": 120}, {"time": 57602, "pitch": 40, "duration": 75, "velocity": 127}, {"time": 57602, "pitch": 46, "duration": 101, "velocity": 127}, {"time": 57842, "pitch": 35, "duration": 120, "velocity": 125}, {"time": 57842, "pitch": 42, "duration": 62, "velocity": 127}, {"time": 57962, "pitch": 35, "duration": 120, "velocity": 125}, {"time": 58082, "pitch": 35, "duration": 120, "velocity": 125}, {"time": 58082, "pitch": 36, "duration": 60, "velocity": 127}, {"time": 58082, "pitch": 42, "duration": 65, "velocity": 127}, {"time": 58082, "pitch": 49, "duration": 120, "velocity": 120}, {"time": 58082, "pitch": 57, "duration": 120, "velocity": 120}, {"time": 58322, "pitch": 42, "duration": 62, "velocity": 127}, {"time": 58562, "pitch": 38, "duration": 120, "velocity": 120}, {"time": 58562, "pitch": 40, "duration": 74, "velocity": 127}, {"time": 58562, "pitch": 46, "duration": 50, "velocity": 112}, {"time": 58802, "pitch": 42, "duration": 46, "velocity": 127}, {"time": 58922, "pitch": 35, "duration": 120, "velocity": 125}, {"time": 59042, "pitch": 42, "duration": 51, "velocity": 127}, {"time": 59282, "pitch": 35, "duration": 120, "velocity": 125}, {"time": 59282, "pitch": 36, "duration": 60, "velocity": 127}, {"time": 59282, "pitch": 42, "duration": 68, "velocity": 127}, {"time": 59522, "pitch": 38, "duration": 120, "velocity": 120}, {"time": 59522, "pitch": 40, "duration": 67, "velocity": 127}, {"time": 59522, "pitch": 46, "duration": 75, "velocity": 127}, {"time": 59762, "pitch": 35, "duration": 120, "velocity": 125}, {"time": 59762, "pitch": 42, "duration": 58, "velocity": 127}, {"time": 59882, "pitch": 38, "duration": 120, "velocity": 120}, {"time": 60002, "pitch": 35, "duration": 120, "velocity": 125}, {"time": 60002, "pitch": 36, "duration": 60, "velocity": 127}, {"time": 60002, "pitch": 44, "duration": 74, "velocity": 127}, {"time": 60242, "pitch": 36, "duration": 60, "velocity": 127}, {"time": 60242, "pitch": 42, "duration": 72, "velocity": 127}, {"time": 60482, "pitch": 38, "duration": 120, "velocity": 120}, {"time": 60482, "pitch": 40, "duration": 84, "velocity": 127}, {"time": 60482, "pitch": 46, "duration": 81, "velocity": 127}, {"time": 60722, "pitch": 42, "duration": 62, "velocity": 127}, {"time": 60842, "pitch": 35, "duration": 120, "velocity": 125}, {"time": 60962, "pitch": 36, "duration": 60, "velocity": 127}, {"time": 60962, "pitch": 42, "duration": 72, "velocity": 127}, {"time": 61202, "pitch": 35, "duration": 120, "velocity": 125}, {"time": 61202, "pitch": 36, "duration": 60, "velocity": 127}, {"time": 61202, "pitch": 42, "duration": 60, "velocity": 127}, {"time": 61442, "pitch": 38, "duration": 120, "velocity": 120}, {"time": 61442, "pitch": 40, "duration": 60, "velocity": 127}, {"time": 61442, "pitch": 46, "duration": 60, "velocity": 127}, {"time": 61682, "pitch": 42, "duration": 55, "velocity": 127}, {"time": 61922, "pitch": 35, "duration": 120, "velocity": 125}, {"time": 61922, "pitch": 36, "duration": 60, "velocity": 127}, {"time": 61922, "pitch": 44, "duration": 17, "velocity": 127}, {"time": 62162, "pitch": 36, "duration": 60, "velocity": 127}, {"time": 62162, "pitch": 42, "duration": 63, "velocity": 112}, {"time": 62402, "pitch": 38, "duration": 120, "velocity": 120}, {"time": 62402, "pitch": 40, "duration": 77, "velocity": 127}, {"time": 62402, "pitch": 46, "duration": 72, "velocity": 127}, {"time": 62642, "pitch": 42, "duration": 67, "velocity": 127}, {"time": 62762, "pitch": 35, "duration": 120, "velocity": 125}, {"time": 62882, "pitch": 36, "duration": 60, "velocity": 127}, {"time": 62882, "pitch": 42, "duration": 62, "velocity": 127}, {"time": 63122, "pitch": 35, "duration": 120, "velocity": 125}, {"time": 63122, "pitch": 36, "duration": 60, "velocity": 127}, {"time": 63122, "pitch": 42, "duration": 65, "velocity": 112}, {"time": 63362, "pitch": 38, "duration": 120, "velocity": 120}, {"time": 63362, "pitch": 40, "duration": 64, "velocity": 127}, {"time": 63362, "pitch": 46, "duration": 75, "velocity": 127}, {"time": 63602, "pitch": 35, "duration": 120, "velocity": 125}, {"time": 63602, "pitch": 42, "duration": 72, "velocity": 127}, {"time": 63722, "pitch": 38, "duration": 120, "velocity": 120}, {"time": 63842, "pitch": 35, "duration": 120, "velocity": 125}, {"time": 63842, "pitch": 36, "duration": 60, "velocity": 127}, {"time": 63842, "pitch": 42, "duration": 65, "velocity": 127}, {"time": 64082, "pitch": 36, "duration": 60, "velocity": 127}, {"time": 64082, "pitch": 42, "duration": 67, "velocity": 127}, {"time": 64322, "pitch": 38, "duration": 120, "velocity": 120}, {"time": 64322, "pitch": 40, "duration": 91, "velocity": 127}, {"time": 64322, "pitch": 46, "duration": 91, "velocity": 127}, {"time": 64562, "pitch": 42, "duration": 72, "velocity": 127}, {"time": 64682, "pitch": 35, "duration": 120, "velocity": 125}, {"time": 64682, "pitch": 36, "duration": 60, "velocity": 127}, {"time": 64802, "pitch": 42, "duration": 67, "velocity": 127}, {"time": 65042, "pitch": 35, "duration": 120, "velocity": 125}, {"time": 65042, "pitch": 36, "duration": 60, "velocity": 127}, {"time": 65042, "pitch": 42, "duration": 38, "velocity": 127}, {"time": 65162, "pitch": 36, "duration": 60, "velocity": 127}, {"time": 65162, "pitch": 42, "duration": 60, "velocity": 95}, {"time": 65282, "pitch": 38, "duration": 120, "velocity": 120}, {"time": 65282, "pitch": 40, "duration": 75, "velocity": 127}, {"time": 65282, "pitch": 46, "duration": 101, "velocity": 127}, {"time": 65522, "pitch": 35, "duration": 120, "velocity": 125}, {"time": 65522, "pitch": 42, "duration": 62, "velocity": 127}, {"time": 65642, "pitch": 35, "duration": 120, "velocity": 125}, {"time": 65762, "pitch": 35, "duration": 120, "velocity": 125}, {"time": 65762, "pitch": 36, "duration": 60, "velocity": 127}, {"time": 65762, "pitch": 44, "duration": 112, "velocity": 127}, {"time": 65762, "pitch": 49, "duration": 120, "velocity": 120}, {"time": 65762, "pitch": 57, "duration": 120, "velocity": 120}, {"time": 66002, "pitch": 42, "duration": 135, "velocity": 127}, {"time": 66242, "pitch": 38, "duration": 120, "velocity": 120}, {"time": 66242, "pitch": 40, "duration": 117, "velocity": 127}, {"time": 66242, "pitch": 46, "duration": 125, "velocity": 127}, {"time": 66482, "pitch": 42, "duration": 101, "velocity": 127}, {"time": 66602, "pitch": 35, "duration": 120, "velocity": 125}, {"time": 66722, "pitch": 36, "duration": 60, "velocity": 127}, {"time": 66722, "pitch": 44, "duration": 89, "velocity": 127}, {"time": 66962, "pitch": 35, "duration": 120, "velocity": 125}, {"time": 66962, "pitch": 42, "duration": 89, "velocity": 127}, {"time": 67202, "pitch": 38, "duration": 120, "velocity": 120}, {"time": 67202, "pitch": 40, "duration": 79, "velocity": 127}, {"time": 67202, "pitch": 46, "duration": 98, "velocity": 127}, {"time": 67442, "pitch": 35, "duration": 120, "velocity": 125}, {"time": 67442, "pitch": 42, "duration": 82, "velocity": 127}, {"time": 67562, "pitch": 38, "duration": 120, "velocity": 120}, {"time": 67682, "pitch": 35, "duration": 120, "velocity": 125}, {"time": 67682, "pitch": 36, "duration": 60, "velocity": 127}, {"time": 67682, "pitch": 44, "duration": 74, "velocity": 127}, {"time": 67922, "pitch": 36, "duration": 60, "velocity": 127}, {"time": 67922, "pitch": 42, "duration": 72, "velocity": 127}, {"time": 68162, "pitch": 38, "duration": 120, "velocity": 120}, {"time": 68162, "pitch": 40, "duration": 84, "velocity": 127}, {"time": 68162, "pitch": 46, "duration": 81, "velocity": 127}, {"time": 68402, "pitch": 42, "duration": 62, "velocity": 127}, {"time": 68522, "pitch": 35, "duration": 120, "velocity": 125}, {"time": 68642, "pitch": 36, "duration": 60, "velocity": 127}, {"time": 68642, "pitch": 42, "duration": 72, "velocity": 127}, {"time": 68882, "pitch": 35, "duration": 120, "velocity": 125}, {"time": 68882, "pitch": 36, "duration": 60, "velocity": 127}, {"time": 68882, "pitch": 42, "duration": 60, "velocity": 127}, {"time": 69122, "pitch": 38, "duration": 120, "velocity": 120}, {"time": 69122, "pitch": 40, "duration": 60, "velocity": 127}, {"time": 69122, "pitch": 46, "duration": 60, "velocity": 127}, {"time": 69362, "pitch": 42, "duration": 55, "velocity": 127}, {"time": 69602, "pitch": 35, "duration": 120, "velocity": 125}, {"time": 69602, "pitch": 36, "duration": 60, "velocity": 127}, {"time": 69602, "pitch": 44, "duration": 17, "velocity": 127}, {"time": 69842, "pitch": 36, "duration": 60, "velocity": 127}, {"time": 69842, "pitch": 42, "duration": 63, "velocity": 112}, {"time": 70082, "pitch": 38, "duration": 120, "velocity": 120}, {"time": 70082, "pitch": 40, "duration": 77, "velocity": 127}, {"time": 70082, "pitch": 46, "duration": 72, "velocity": 127}, {"time": 70322, "pitch": 42, "duration": 67, "velocity": 127}, {"time": 70442, "pitch": 35, "duration": 120, "velocity": 125}, {"time": 70562, "pitch": 36, "duration": 60, "velocity": 127}, {"time": 70562, "pitch": 42, "duration": 62, "velocity": 127}, {"time": 70802, "pitch": 35, "duration": 120, "velocity": 125}, {"time": 70802, "pitch": 36, "duration": 60, "velocity": 127}, {"time": 70802, "pitch": 42, "duration": 65, "velocity": 112}, {"time": 71042, "pitch": 38, "duration": 120, "velocity": 120}, {"time": 71042, "pitch": 40, "duration": 64, "velocity": 127}, {"time": 71042, "pitch": 46, "duration": 75, "velocity": 127}, {"time": 71282, "pitch": 35, "duration": 120, "velocity": 125}, {"time": 71282, "pitch": 42, "duration": 72, "velocity": 127}, {"time": 71402, "pitch": 38, "duration": 120, "velocity": 120}, {"time": 71522, "pitch": 35, "duration": 120, "velocity": 125}, {"time": 71522, "pitch": 36, "duration": 60, "velocity": 127}, {"time": 71522, "pitch": 42, "duration": 65, "velocity": 127}, {"time": 71762, "pitch": 36, "duration": 60, "velocity": 127}, {"time": 71762, "pitch": 42, "duration": 67, "velocity": 127}, {"time": 72002, "pitch": 38, "duration": 120, "velocity": 120}, {"time": 72002, "pitch": 40, "duration": 91, "velocity": 127}, {"time": 72002, "pitch": 46, "duration": 91, "velocity": 127}, {"time": 72242, "pitch": 42, "duration": 72, "velocity": 127}, {"time": 72362, "pitch": 35, "duration": 120, "velocity": 125}, {"time": 72362, "pitch": 36, "duration": 60, "velocity": 127}, {"time": 72482, "pitch": 42, "duration": 67, "velocity": 127}, {"time": 72722, "pitch": 35, "duration": 120, "velocity": 125}, {"time": 72722, "pitch": 36, "duration": 60, "velocity": 127}, {"time": 72722, "pitch": 42, "duration": 38, "velocity": 127}, {"time": 72842, "pitch": 36, "duration": 60, "velocity": 127}, {"time": 72842, "pitch": 42, "duration": 60, "velocity": 95}, {"time": 72962, "pitch": 38, "duration": 120, "velocity": 120}, {"time": 72962, "pitch": 40, "duration": 75, "velocity": 127}, {"time": 72962, "pitch": 46, "duration": 101, "velocity": 127}, {"time": 73202, "pitch": 35, "duration": 120, "velocity": 125}, {"time": 73202, "pitch": 42, "duration": 62, "velocity": 127}, {"time": 73322, "pitch": 35, "duration": 120, "velocity": 125}, {"time": 73442, "pitch": 35, "duration": 120, "velocity": 125}, {"time": 73442, "pitch": 36, "duration": 60, "velocity": 127}, {"time": 73442, "pitch": 42, "duration": 65, "velocity": 127}, {"time": 73442, "pitch": 49, "duration": 120, "velocity": 120}, {"time": 73442, "pitch": 57, "duration": 120, "velocity": 120}, {"time": 73682, "pitch": 42, "duration": 62, "velocity": 127}, {"time": 73922, "pitch": 38, "duration": 120, "velocity": 120}, {"time": 73922, "pitch": 40, "duration": 74, "velocity": 127}, {"time": 73922, "pitch": 46, "duration": 50, "velocity": 112}, {"time": 74162, "pitch": 42, "duration": 46, "velocity": 127}, {"time": 74282, "pitch": 35, "duration": 120, "velocity": 125}, {"time": 74402, "pitch": 42, "duration": 51, "velocity": 127}, {"time": 74642, "pitch": 35, "duration": 120, "velocity": 125}, {"time": 74642, "pitch": 36, "duration": 60, "velocity": 127}, {"time": 74642, "pitch": 42, "duration": 68, "velocity": 127}, {"time": 74882, "pitch": 38, "duration": 120, "velocity": 120}, {"time": 74882, "pitch": 40, "duration": 67, "velocity": 127}, {"time": 74882, "pitch": 46, "duration": 75, "velocity": 127}, {"time": 75122, "pitch": 35, "duration": 120, "velocity": 125}, {"time": 75122, "pitch": 42, "duration": 58, "velocity": 127}, {"time": 75242, "pitch": 38, "duration": 120, "velocity": 120}, {"time": 75362, "pitch": 35, "duration": 120, "velocity": 125}, {"time": 75362, "pitch": 36, "duration": 60, "velocity": 127}, {"time": 75362, "pitch": 44, "duration": 74, "velocity": 127}, {"time": 75602, "pitch": 36, "duration": 60, "velocity": 127}, {"time": 75602, "pitch": 42, "duration": 72, "velocity": 127}, {"time": 75842, "pitch": 38, "duration": 120, "velocity": 120}, {"time": 75842, "pitch": 40, "duration": 84, "velocity": 127}, {"time": 75842, "pitch": 46, "duration": 81, "velocity": 127}, {"time": 76082, "pitch": 42, "duration": 62, "velocity": 127}, {"time": 76202, "pitch": 35, "duration": 120, "velocity": 125}, {"time": 76322, "pitch": 36, "duration": 60, "velocity": 127}, {"time": 76322, "pitch": 42, "duration": 72, "velocity": 127}, {"time": 76562, "pitch": 35, "duration": 120, "velocity": 125}, {"time": 76562, "pitch": 36, "duration": 60, "velocity": 127}, {"time": 76562, "pitch": 42, "duration": 60, "velocity": 127}, {"time": 76802, "pitch": 38, "duration": 120, "velocity": 120}, {"time": 76802, "pitch": 40, "duration": 60, "velocity": 127}, {"time": 76802, "pitch": 46, "duration": 60, "velocity": 127}, {"time": 77042, "pitch": 42, "duration": 55, "velocity": 127}, {"time": 77282, "pitch": 35, "duration": 120, "velocity": 125}, {"time": 77282, "pitch": 36, "duration": 60, "velocity": 127}, {"time": 77282, "pitch": 44, "duration": 17, "velocity": 127}, {"time": 77522, "pitch": 36, "duration": 60, "velocity": 127}, {"time": 77522, "pitch": 42, "duration": 63, "velocity": 112}, {"time": 77762, "pitch": 38, "duration": 120, "velocity": 120}, {"time": 77762, "pitch": 40, "duration": 77, "velocity": 127}, {"time": 77762, "pitch": 46, "duration": 72, "velocity": 127}, {"time": 78002, "pitch": 42, "duration": 67, "velocity": 127}, {"time": 78122, "pitch": 35, "duration": 120, "velocity": 125}, {"time": 78242, "pitch": 36, "duration": 60, "velocity": 127}, {"time": 78242, "pitch": 42, "duration": 62, "velocity": 127}, {"time": 78482, "pitch": 35, "duration": 120, "velocity": 125}, {"time": 78482, "pitch": 36, "duration": 60, "velocity": 127}, {"time": 78482, "pitch": 42, "duration": 65, "velocity": 112}, {"time": 78722, "pitch": 38, "duration": 120, "velocity": 120}, {"time": 78722, "pitch": 40, "duration": 64, "velocity": 127}, {"time": 78722, "pitch": 46, "duration": 75, "velocity": 127}, {"time": 78962, "pitch": 35, "duration": 120, "velocity": 125}, {"time": 78962, "pitch": 42, "duration": 72, "velocity": 127}, {"time": 79082, "pitch": 38, "duration": 120, "velocity": 120}, {"time": 79202, "pitch": 35, "duration": 120, "velocity": 125}, {"time": 79202, "pitch": 36, "duration": 60, "velocity": 127}, {"time": 79202, "pitch": 42, "duration": 65, "velocity": 127}, {"time": 79442, "pitch": 36, "duration": 60, "velocity": 127}, {"time": 79442, "pitch": 42, "duration": 67, "velocity": 127}, {"time": 79682, "pitch": 38, "duration": 120, "velocity": 120}, {"time": 79682, "pitch": 40, "duration": 91, "velocity": 127}, {"time": 79682, "pitch": 46, "duration": 91, "velocity": 127}, {"time": 79922, "pitch": 42, "duration": 72, "velocity": 127}, {"time": 80042, "pitch": 35, "duration": 120, "velocity": 125}, {"time": 80042, "pitch": 36, "duration": 60, "velocity": 127}, {"time": 80162, "pitch": 42, "duration": 67, "velocity": 127}, {"time": 80402, "pitch": 35, "duration": 120, "velocity": 125}, {"time": 80402, "pitch": 36, "duration": 60, "velocity": 127}, {"time": 80402, "pitch": 42, "duration": 38, "velocity": 127}, {"time": 80522, "pitch": 36, "duration": 60, "velocity": 127}, {"time": 80522, "pitch": 42, "duration": 60, "velocity": 95}, {"time": 80642, "pitch": 38, "duration": 120, "velocity": 120}, {"time": 80642, "pitch": 40, "duration": 75, "velocity": 127}, {"time": 80642, "pitch": 46, "duration": 101, "velocity": 127}, {"time": 80882, "pitch": 35, "duration": 120, "velocity": 125}, {"time": 80882, "pitch": 42, "duration": 62, "velocity": 127}, {"time": 81002, "pitch": 35, "duration": 120, "velocity": 125}, {"time": 81122, "pitch": 35, "duration": 120, "velocity": 125}, {"time": 81122, "pitch": 36, "duration": 60, "velocity": 127}, {"time": 81122, "pitch": 44, "duration": 112, "velocity": 127}, {"time": 81122, "pitch": 49, "duration": 120, "velocity": 120}, {"time": 81122, "pitch": 57, "duration": 120, "velocity": 120}, {"time": 81362, "pitch": 42, "duration": 135, "velocity": 127}, {"time": 81602, "pitch": 38, "duration": 120, "velocity": 120}, {"time": 81602, "pitch": 40, "duration": 117, "velocity": 127}, {"time": 81602, "pitch": 46, "duration": 125, "velocity": 127}, {"time": 81842, "pitch": 42, "duration": 101, "velocity": 127}, {"time": 81962, "pitch": 35, "duration": 120, "velocity": 125}, {"time": 82082, "pitch": 36, "duration": 60, "velocity": 127}, {"time": 82082, "pitch": 44, "duration": 89, "velocity": 127}, {"time": 82322, "pitch": 35, "duration": 120, "velocity": 125}, {"time": 82322, "pitch": 42, "duration": 89, "velocity": 127}, {"time": 82562, "pitch": 38, "duration": 120, "velocity": 120}, {"time": 82562, "pitch": 40, "duration": 79, "velocity": 127}, {"time": 82562, "pitch": 46, "duration": 98, "velocity": 127}, {"time": 82802, "pitch": 35, "duration": 120, "velocity": 125}, {"time": 82802, "pitch": 42, "duration": 82, "velocity": 127}, {"time": 82922, "pitch": 38, "duration": 120, "velocity": 120}, {"time": 83042, "pitch": 35, "duration": 120, "velocity": 125}, {"time": 83042, "pitch": 36, "duration": 60, "velocity": 127}, {"time": 83042, "pitch": 44, "duration": 74, "velocity": 127}, {"time": 83282, "pitch": 36, "duration": 60, "velocity": 127}, {"time": 83282, "pitch": 42, "duration": 72, "velocity": 127}, {"time": 83522, "pitch": 38, "duration": 120, "velocity": 120}, {"time": 83522, "pitch": 40, "duration": 84, "velocity": 127}, {"time": 83522, "pitch": 46, "duration": 81, "velocity": 127}, {"time": 83762, "pitch": 42, "duration": 62, "velocity": 127}, {"time": 83882, "pitch": 35, "duration": 120, "velocity": 125}, {"time": 84002, "pitch": 36, "duration": 60, "velocity": 127}, {"time": 84002, "pitch": 42, "duration": 72, "velocity": 127}, {"time": 84242, "pitch": 35, "duration": 120, "velocity": 125}, {"time": 84242, "pitch": 36, "duration": 60, "velocity": 127}, {"time": 84242, "pitch": 42, "duration": 60, "velocity": 127}, {"time": 84482, "pitch": 38, "duration": 120, "velocity": 120}, {"time": 84482, "pitch": 40, "duration": 60, "velocity": 127}, {"time": 84482, "pitch": 46, "duration": 60, "velocity": 127}, {"time": 84722, "pitch": 42, "duration": 55, "velocity": 127}, {"time": 84962, "pitch": 35, "duration": 120, "velocity": 125}, {"time": 84962, "pitch": 36, "duration": 60, "velocity": 127}, {"time": 84962, "pitch": 44, "duration": 17, "velocity": 127}, {"time": 85202, "pitch": 36, "duration": 60, "velocity": 127}, {"time": 85202, "pitch": 42, "duration": 63, "velocity": 112}, {"time": 85442, "pitch": 38, "duration": 120, "velocity": 120}, {"time": 85442, "pitch": 40, "duration": 77, "velocity": 127}, {"time": 85442, "pitch": 46, "duration": 72, "velocity": 127}, {"time": 85682, "pitch": 42, "duration": 67, "velocity": 127}, {"time": 85802, "pitch": 35, "duration": 120, "velocity": 125}, {"time": 85922, "pitch": 36, "duration": 60, "velocity": 127}, {"time": 85922, "pitch": 42, "duration": 62, "velocity": 127}, {"time": 86162, "pitch": 35, "duration": 120, "velocity": 125}, {"time": 86162, "pitch": 36, "duration": 60, "velocity": 127}, {"time": 86162, "pitch": 42, "duration": 65, "velocity": 112}, {"time": 86402, "pitch": 38, "duration": 120, "velocity": 120}, {"time": 86402, "pitch": 40, "duration": 64, "velocity": 127}, {"time": 86402, "pitch": 46, "duration": 75, "velocity": 127}, {"time": 86642, "pitch": 35, "duration": 120, "velocity": 125}, {"time": 86642, "pitch": 42, "duration": 72, "velocity": 127}, {"time": 86762, "pitch": 38, "duration": 120, "velocity": 120}, {"time": 86882, "pitch": 35, "duration": 120, "velocity": 125}, {"time": 86882, "pitch": 36, "duration": 60, "velocity": 127}, {"time": 86882, "pitch": 42, "duration": 65, "velocity": 127}, {"time": 87122, "pitch": 36, "duration": 60, "velocity": 127}, {"time": 87122, "pitch": 42, "duration": 67, "velocity": 127}, {"time": 87362, "pitch": 38, "duration": 120, "velocity": 120}, {"time": 87362, "pitch": 40, "duration": 91, "velocity": 127}, {"time": 87362, "pitch": 46, "duration": 91, "velocity": 127}, {"time": 87602, "pitch": 42, "duration": 72, "velocity": 127}, {"time": 87722, "pitch": 35, "duration": 120, "velocity": 125}, {"time": 87722, "pitch": 36, "duration": 60, "velocity": 127}, {"time": 87842, "pitch": 42, "duration": 67, "velocity": 127}, {"time": 88082, "pitch": 35, "duration": 120, "velocity": 125}, {"time": 88082, "pitch": 36, "duration": 60, "velocity": 127}, {"time": 88082, "pitch": 42, "duration": 38, "velocity": 127}, {"time": 88202, "pitch": 36, "duration": 60, "velocity": 127}, {"time": 88202, "pitch": 42, "duration": 60, "velocity": 95}, {"time": 88322, "pitch": 38, "duration": 120, "velocity": 120}, {"time": 88322, "pitch": 40, "duration": 75, "velocity": 127}, {"time": 88322, "pitch": 46, "duration": 101, "velocity": 127}, {"time": 88562, "pitch": 35, "duration": 120, "velocity": 125}, {"time": 88562, "pitch": 42, "duration": 62, "velocity": 127}, {"time": 88682, "pitch": 35, "duration": 120, "velocity": 125}, {"time": 88802, "pitch": 35, "duration": 120, "velocity": 125}, {"time": 88802, "pitch": 36, "duration": 60, "velocity": 127}, {"time": 88802, "pitch": 42, "duration": 65, "velocity": 127}, {"time": 88802, "pitch": 49, "duration": 120, "velocity": 120}, {"time": 88802, "pitch": 57, "duration": 120, "velocity": 120}, {"time": 89042, "pitch": 42, "duration": 62, "velocity": 127}, {"time": 89282, "pitch": 38, "duration": 120, "velocity": 120}, {"time": 89282, "pitch": 40, "duration": 74, "velocity": 127}, {"time": 89282, "pitch": 46, "duration": 50, "velocity": 112}, {"time": 89522, "pitch": 42, "duration": 46, "velocity": 127}, {"time": 89642, "pitch": 35, "duration": 120, "velocity": 125}, {"time": 89762, "pitch": 42, "duration": 51, "velocity": 127}, {"time": 90002, "pitch": 35, "duration": 120, "velocity": 125}, {"time": 90002, "pitch": 36, "duration": 60, "velocity": 127}, {"time": 90002, "pitch": 42, "duration": 68, "velocity": 127}, {"time": 90242, "pitch": 38, "duration": 120, "velocity": 120}, {"time": 90242, "pitch": 40, "duration": 67, "velocity": 127}, {"time": 90242, "pitch": 46, "duration": 75, "velocity": 127}, {"time": 90482, "pitch": 35, "duration": 120, "velocity": 125}, {"time": 90482, "pitch": 42, "duration": 58, "velocity": 127}, {"time": 90602, "pitch": 38, "duration": 120, "velocity": 120}, {"time": 90722, "pitch": 35, "duration": 120, "velocity": 125}, {"time": 90722, "pitch": 36, "duration": 60, "velocity": 127}, {"time": 90722, "pitch": 44, "duration": 74, "velocity": 127}, {"time": 90962, "pitch": 36, "duration": 60, "velocity": 127}, {"time": 90962, "pitch": 42, "duration": 72, "velocity": 127}, {"time": 91202, "pitch": 38, "duration": 120, "velocity": 120}, {"time": 91202, "pitch": 40, "duration": 84, "velocity": 127}, {"time": 91202, "pitch": 46, "duration": 81, "velocity": 127}, {"time": 91442, "pitch": 42, "duration": 62, "velocity": 127}, {"time": 91562, "pitch": 35, "duration": 120, "velocity": 125}, {"time": 91682, "pitch": 36, "duration": 60, "velocity": 127}, {"time": 91682, "pitch": 42, "duration": 72, "velocity": 127}, {"time": 91922, "pitch": 35, "duration": 120, "velocity": 125}, {"time": 91922, "pitch": 36, "duration": 60, "velocity": 127}, {"time": 91922, "pitch": 42, "duration": 60, "velocity": 127}, {"time": 92162, "pitch": 38, "duration": 120, "velocity": 120}, {"time": 92162, "pitch": 40, "duration": 60, "velocity": 127}, {"time": 92162, "pitch": 46, "duration": 60, "velocity": 127}, {"time": 92402, "pitch": 42, "duration": 55, "velocity": 127}, {"time": 92642, "pitch": 35, "duration": 120, "velocity": 125}, {"time": 92642, "pitch": 36, "duration": 60, "velocity": 127}, {"time": 92642, "pitch": 44, "duration": 17, "velocity": 127}, {"time": 92882, "pitch": 36, "duration": 60, "velocity": 127}, {"time": 92882, "pitch": 42, "duration": 63, "velocity": 112}, {"time": 93122, "pitch": 38, "duration": 120, "velocity": 120}, {"time": 93122, "pitch": 40, "duration": 77, "velocity": 127}, {"time": 93122, "pitch": 46, "duration": 72, "velocity": 127}, {"time": 93362, "pitch": 42, "duration": 67, "velocity": 127}, {"time": 93482, "pitch": 35, "duration": 120, "velocity": 125}, {"time": 93602, "pitch": 36, "duration": 60, "velocity": 127}, {"time": 93602, "pitch": 42, "duration": 62, "velocity": 127}, {"time": 93842, "pitch": 35, "duration": 120, "velocity": 125}, {"time": 93842, "pitch": 36, "duration": 60, "velocity": 127}, {"time": 93842, "pitch": 42, "duration": 65, "velocity": 112}, {"time": 94082, "pitch": 38, "duration": 120, "velocity": 120}, {"time": 94082, "pitch": 40, "duration": 64, "velocity": 127}, {"time": 94082, "pitch": 46, "duration": 75, "velocity": 127}, {"time": 94322, "pitch": 35, "duration": 120, "velocity": 125}, {"time": 94322, "pitch": 42, "duration": 72, "velocity": 127}, {"time": 94442, "pitch": 38, "duration": 120, "velocity": 120}, {"time": 94562, "pitch": 35, "duration": 120, "velocity": 125}, {"time": 94562, "pitch": 36, "duration": 60, "velocity": 127}, {"time": 94562, "pitch": 42, "duration": 65, "velocity": 127}, {"time": 94802, "pitch": 36, "duration": 60, "velocity": 127}, {"time": 94802, "pitch": 42, "duration": 67, "velocity": 127}, {"time": 95042, "pitch": 38, "duration": 120, "velocity": 120}, {"time": 95042, "pitch": 40, "duration": 91, "velocity": 127}, {"time": 95042, "pitch": 46, "duration": 91, "velocity": 127}, {"time": 95282, "pitch": 42, "duration": 72, "velocity": 127}, {"time": 95402, "pitch": 35, "duration": 120, "velocity": 125}, {"time": 95402, "pitch": 36, "duration": 60, "velocity": 127}, {"time": 95522, "pitch": 42, "duration": 67, "velocity": 127}, {"time": 95762, "pitch": 35, "duration": 120, "velocity": 125}, {"time": 95762, "pitch": 36, "duration": 60, "velocity": 127}, {"time": 95762, "pitch": 42, "duration": 38, "velocity": 127}, {"time": 95882, "pitch": 36, "duration": 60, "velocity": 127}, {"time": 95882, "pitch": 42, "duration": 60, "velocity": 95}, {"time": 96002, "pitch": 38, "duration": 120, "velocity": 120}, {"time": 96002, "pitch": 40, "duration": 75, "velocity": 127}, {"time": 96002, "pitch": 46, "duration": 101, "velocity": 127}, {"time": 96242, "pitch": 35, "duration": 120, "velocity": 125}, {"time": 96242, "pitch": 42, "duration": 62, "velocity": 127}, {"time": 96362, "pitch": 35, "duration": 120, "velocity": 125}, {"time": 96482, "pitch": 35, "duration": 120, "velocity": 125}, {"time": 96482, "pitch": 36, "duration": 60, "velocity": 127}, {"time": 96482, "pitch": 44, "duration": 112, "velocity": 127}, {"time": 96482, "pitch": 49, "duration": 120, "velocity": 120}, {"time": 96482, "pitch": 57, "duration": 120, "velocity": 120}, {"time": 96722, "pitch": 42, "duration": 135, "velocity": 127}, {"time": 96962, "pitch": 38, "duration": 120, "velocity": 120}, {"time": 96962, "pitch": 40, "duration": 117, "velocity": 127}, {"time": 96962, "pitch": 46, "duration": 125, "velocity": 127}, {"time": 96962, "pitch": 53, "duration": 180, "velocity": 102}, {"time": 97202, "pitch": 42, "duration": 101, "velocity": 127}, {"time": 97322, "pitch": 35, "duration": 120, "velocity": 125}, {"time": 97442, "pitch": 36, "duration": 60, "velocity": 127}, {"time": 97442, "pitch": 44, "duration": 89, "velocity": 127}, {"time": 97442, "pitch": 53, "duration": 186, "velocity": 104}, {"time": 97682, "pitch": 35, "duration": 120, "velocity": 125}, {"time": 97682, "pitch": 42, "duration": 89, "velocity": 127}, {"time": 97922, "pitch": 38, "duration": 120, "velocity": 120}, {"time": 97922, "pitch": 40, "duration": 79, "velocity": 127}, {"time": 97922, "pitch": 46, "duration": 98, "velocity": 127}, {"time": 97922, "pitch": 53, "duration": 152, "velocity": 104}, {"time": 98162, "pitch": 35, "duration": 120, "velocity": 125}, {"time": 98162, "pitch": 42, "duration": 82, "velocity": 127}, {"time": 98282, "pitch": 38, "duration": 120, "velocity": 120}, {"time": 98402, "pitch": 35, "duration": 120, "velocity": 125}, {"time": 98402, "pitch": 36, "duration": 60, "velocity": 127}, {"time": 98402, "pitch": 44, "duration": 74, "velocity": 127}, {"time": 98402, "pitch": 53, "duration": 172, "velocity": 104}, {"time": 98642, "pitch": 36, "duration": 60, "velocity": 127}, {"time": 98642, "pitch": 42, "duration": 72, "velocity": 127}, {"time": 98882, "pitch": 38, "duration": 120, "velocity": 120}, {"time": 98882, "pitch": 40, "duration": 84, "velocity": 127}, {"time": 98882, "pitch": 46, "duration": 81, "velocity": 127}, {"time": 98882, "pitch": 53, "duration": 168, "velocity": 102}, {"time": 99122, "pitch": 42, "duration": 62, "velocity": 127}, {"time": 99242, "pitch": 35, "duration": 120, "velocity": 125}, {"time": 99362, "pitch": 36, "duration": 60, "velocity": 127}, {"time": 99362, "pitch": 42, "duration": 72, "velocity": 127}, {"time": 99362, "pitch": 53, "duration": 162, "velocity": 100}, {"time": 99602, "pitch": 35, "duration": 120, "velocity": 125}, {"time": 99602, "pitch": 36, "duration": 60, "velocity": 127}, {"time": 99602, "pitch": 42, "duration": 60, "velocity": 127}, {"time": 99842, "pitch": 38, "duration": 120, "velocity": 120}, {"time": 99842, "pitch": 40, "duration": 60, "velocity": 127}, {"time": 99842, "pitch": 46, "duration": 60, "velocity": 127}, {"time": 99842, "pitch": 53, "duration": 142, "velocity": 100}, {"time": 100082, "pitch": 42, "duration": 55, "velocity": 127}, {"time": 100322, "pitch": 35, "duration": 120, "velocity": 125}, {"time": 100322, "pitch": 36, "duration": 60, "velocity": 127}, {"time": 100322, "pitch": 44, "duration": 17, "velocity": 127}, {"time": 100322, "pitch": 53, "duration": 168, "velocity": 102}, {"time": 100562, "pitch": 36, "duration": 60, "velocity": 127}, {"time": 100562, "pitch": 42, "duration": 63, "velocity": 112}, {"time": 100802, "pitch": 38, "duration": 120, "velocity": 120}, {"time": 100802, "pitch": 40, "duration": 77, "velocity": 127}, {"time": 100802, "pitch": 46, "duration": 72, "velocity": 127}, {"time": 100802, "pitch": 53, "duration": 145, "velocity": 98}, {"time": 101042, "pitch": 42, "duration": 67, "velocity": 127}, {"time": 101162, "pitch": 35, "duration": 120, "velocity": 125}, {"time": 101282, "pitch": 36, "duration": 60, "velocity": 127}, {"time": 101282, "pitch": 42, "duration": 62, "velocity": 127}, {"time": 101282, "pitch": 53, "duration": 152, "velocity": 102}, {"time": 101522, "pitch": 35, "duration": 120, "velocity": 125}, {"time": 101522, "pitch": 36, "duration": 60, "velocity": 127}, {"time": 101522, "pitch": 42, "duration": 65, "velocity": 112}, {"time": 101762, "pitch": 38, "duration": 120, "velocity": 120}, {"time": 101762, "pitch": 40, "duration": 64, "velocity": 127}, {"time": 101762, "pitch": 46, "duration": 75, "velocity": 127}, {"time": 101762, "pitch": 53, "duration": 107, "velocity": 108}, {"time": 102002, "pitch": 35, "duration": 120, "velocity": 125}, {"time": 102002, "pitch": 42, "duration": 72, "velocity": 127}, {"time": 102122, "pitch": 38, "duration": 120, "velocity": 120}, {"time": 102242, "pitch": 35, "duration": 120, "velocity": 125}, {"time": 102242, "pitch": 36, "duration": 60, "velocity": 127}, {"time": 102242, "pitch": 42, "duration": 65, "velocity": 127}, {"time": 102242, "pitch": 53, "duration": 92, "velocity": 108}, {"time": 102482, "pitch": 36, "duration": 60, "velocity": 127}, {"time": 102482, "pitch": 42, "duration": 67, "velocity": 127}, {"time": 102722, "pitch": 38, "duration": 120, "velocity": 120}, {"time": 102722, "pitch": 40, "duration": 91, "velocity": 127}, {"time": 102722, "pitch": 46, "duration": 91, "velocity": 127}, {"time": 102722, "pitch": 53, "duration": 101, "velocity": 104}, {"time": 102962, "pitch": 42, "duration": 72, "velocity": 127}, {"time": 103082, "pitch": 35, "duration": 120, "velocity": 125}, {"time": 103082, "pitch": 36, "duration": 60, "velocity": 127}, {"time": 103202, "pitch": 42, "duration": 67, "velocity": 127}, {"time": 103202, "pitch": 53, "duration": 94, "velocity": 100}, {"time": 103442, "pitch": 35, "duration": 120, "velocity": 125}, {"time": 103442, "pitch": 36, "duration": 60, "velocity": 127}, {"time": 103442, "pitch": 42, "duration": 38, "velocity": 127}, {"time": 103562, "pitch": 36, "duration": 60, "velocity": 127}, {"time": 103562, "pitch": 42, "duration": 60, "velocity": 95}, {"time": 103682, "pitch": 38, "duration": 120, "velocity": 120}, {"time": 103682, "pitch": 40, "duration": 75, "velocity": 127}, {"time": 103682, "pitch": 46, "duration": 101, "velocity": 127}, {"time": 103682, "pitch": 53, "duration": 114, "velocity": 104}, {"time": 103922, "pitch": 35, "duration": 120, "velocity": 125}, {"time": 103922, "pitch": 42, "duration": 62, "velocity": 127}, {"time": 104042, "pitch": 35, "duration": 120, "velocity": 125}, {"time": 104162, "pitch": 35, "duration": 120, "velocity": 125}, {"time": 104162, "pitch": 36, "duration": 60, "velocity": 127}, {"time": 104162, "pitch": 42, "duration": 65, "velocity": 127}, {"time": 104162, "pitch": 49, "duration": 120, "velocity": 120}, {"time": 104162, "pitch": 57, "duration": 120, "velocity": 120}, {"time": 104402, "pitch": 42, "duration": 62, "velocity": 127}, {"time": 104642, "pitch": 38, "duration": 120, "velocity": 120}, {"time": 104642, "pitch": 40, "duration": 74, "velocity": 127}, {"time": 104642, "pitch": 46, "duration": 50, "velocity": 112}, {"time": 104642, "pitch": 53, "duration": 110, "velocity": 100}, {"time": 104882, "pitch": 42, "duration": 46, "velocity": 127}, {"time": 105002, "pitch": 35, "duration": 120, "velocity": 125}, {"time": 105122, "pitch": 42, "duration": 51, "velocity": 127}, {"time": 105122, "pitch": 53, "duration": 106, "velocity": 102}, {"time": 105362, "pitch": 35, "duration": 120, "velocity": 125}, {"time": 105362, "pitch": 36, "duration": 60, "velocity": 127}, {"time": 105362, "pitch": 42, "duration": 68, "velocity": 127}, {"time": 105602, "pitch": 38, "duration": 120, "velocity": 120}, {"time": 105602, "pitch": 40, "duration": 67, "velocity": 127}, {"time": 105602, "pitch": 46, "duration": 75, "velocity": 127}, {"time": 105602, "pitch": 53, "duration": 101, "velocity": 102}, {"time": 105842, "pitch": 35, "duration": 120, "velocity": 125}, {"time": 105842, "pitch": 42, "duration": 58, "velocity": 127}, {"time": 105962, "pitch": 38, "duration": 120, "velocity": 120}, {"time": 106082, "pitch": 35, "duration": 120, "velocity": 125}, {"time": 106082, "pitch": 36, "duration": 60, "velocity": 127}, {"time": 106082, "pitch": 44, "duration": 74, "velocity": 127}, {"time": 106082, "pitch": 53, "duration": 86, "velocity": 102}, {"time": 106322, "pitch": 36, "duration": 60, "velocity": 127}, {"time": 106322, "pitch": 42, "duration": 72, "velocity": 127}, {"time": 106562, "pitch": 38, "duration": 120, "velocity": 120}, {"time": 106562, "pitch": 40, "duration": 84, "velocity": 127}, {"time": 106562, "pitch": 46, "duration": 81, "velocity": 127}, {"time": 106562, "pitch": 53, "duration": 87, "velocity": 100}, {"time": 106802, "pitch": 42, "duration": 62, "velocity": 127}, {"time": 106922, "pitch": 35, "duration": 120, "velocity": 125}, {"time": 107042, "pitch": 36, "duration": 60, "velocity": 127}, {"time": 107042, "pitch": 42, "duration": 72, "velocity": 127}, {"time": 107042, "pitch": 53, "duration": 80, "velocity": 94}, {"time": 107282, "pitch": 35, "duration": 120, "velocity": 125}, {"time": 107282, "pitch": 36, "duration": 60, "velocity": 127}, {"time": 107282, "pitch": 42, "duration": 60, "velocity": 127}, {"time": 107522, "pitch": 38, "duration": 120, "velocity": 120}, {"time": 107522, "pitch": 40, "duration": 60, "velocity": 127}, {"time": 107522, "pitch": 46, "duration": 60, "velocity": 127}, {"time": 107522, "pitch": 53, "duration": 81, "velocity": 96}, {"time": 107762, "pitch": 42, "duration": 55, "velocity": 127}, {"time": 108002, "pitch": 35, "duration": 120, "velocity": 125}, {"time": 108002, "pitch": 36, "duration": 60, "velocity": 127}, {"time": 108002, "pitch": 44, "duration": 17, "velocity": 127}, {"time": 108002, "pitch": 49, "duration": 120, "velocity": 98}, {"time": 108242, "pitch": 36, "duration": 60, "velocity": 127}, {"time": 108242, "pitch": 42, "duration": 63, "velocity": 112}, {"time": 108482, "pitch": 38, "duration": 120, "velocity": 120}, {"time": 108482, "pitch": 40, "duration": 77, "velocity": 127}, {"time": 108482, "pitch": 46, "duration": 72, "velocity": 127}, {"time": 108482, "pitch": 53, "duration": 87, "velocity": 94}, {"time": 108722, "pitch": 42, "duration": 67, "velocity": 127}, {"time": 108842, "pitch": 35, "duration": 120, "velocity": 125}, {"time": 108962, "pitch": 36, "duration": 60, "velocity": 127}, {"time": 108962, "pitch": 42, "duration": 62, "velocity": 127}, {"time": 108962, "pitch": 53, "duration": 115, "velocity": 98}, {"time": 109202, "pitch": 35, "duration": 120, "velocity": 125}, {"time": 109202, "pitch": 36, "duration": 60, "velocity": 127}, {"time": 109202, "pitch": 42, "duration": 65, "velocity": 112}, {"time": 109442, "pitch": 38, "duration": 120, "velocity": 120}, {"time": 109442, "pitch": 40, "duration": 64, "velocity": 127}, {"time": 109442, "pitch": 46, "duration": 75, "velocity": 127}, {"time": 109442, "pitch": 53, "duration": 110, "velocity": 100}, {"time": 109682, "pitch": 35, "duration": 120, "velocity": 125}, {"time": 109682, "pitch": 42, "duration": 72, "velocity": 127}, {"time": 109802, "pitch": 38, "duration": 120, "velocity": 120}, {"time": 109922, "pitch": 35, "duration": 120, "velocity": 125}, {"time": 109922, "pitch": 36, "duration": 60, "velocity": 127}, {"time": 109922, "pitch": 42, "duration": 65, "velocity": 127}, {"time": 109922, "pitch": 57, "duration": 103, "velocity": 100}, {"time": 110162, "pitch": 36, "duration": 60, "velocity": 127}, {"time": 110162, "pitch": 42, "duration": 67, "velocity": 127}, {"time": 110402, "pitch": 38, "duration": 120, "velocity": 120}, {"time": 110402, "pitch": 40, "duration": 91, "velocity": 127}, {"time": 110402, "pitch": 46, "duration": 91, "velocity": 127}, {"time": 110402, "pitch": 53, "duration": 102, "velocity": 104}, {"time": 110642, "pitch": 42, "duration": 72, "velocity": 127}, {"time": 110762, "pitch": 35, "duration": 120, "velocity": 125}, {"time": 110762, "pitch": 36, "duration": 60, "velocity": 127}, {"time": 110882, "pitch": 42, "duration": 67, "velocity": 127}, {"time": 110882, "pitch": 49, "duration": 134, "velocity": 96}, {"time": 111122, "pitch": 35, "duration": 120, "velocity": 125}, {"time": 111122, "pitch": 36, "duration": 60, "velocity": 127}, {"time": 111122, "pitch": 42, "duration": 38, "velocity": 127}, {"time": 111242, "pitch": 36, "duration": 60, "velocity": 127}, {"time": 111242, "pitch": 42, "duration": 60, "velocity": 95}, {"time": 111362, "pitch": 38, "duration": 120, "velocity": 120}, {"time": 111362, "pitch": 40, "duration": 75, "velocity": 127}, {"time": 111362, "pitch": 46, "duration": 101, "velocity": 127}, {"time": 111362, "pitch": 57, "duration": 137, "velocity": 92}, {"time": 111602, "pitch": 35, "duration": 120, "velocity": 125}, {"time": 111602, "pitch": 42, "duration": 62, "velocity": 127}, {"time": 111602, "pitch": 49, "duration": 120, "velocity": 96}, {"time": 111722, "pitch": 35, "duration": 120, "velocity": 125}, {"time": 111842, "pitch": 35, "duration": 120, "velocity": 125}, {"time": 111842, "pitch": 36, "duration": 60, "velocity": 127}, {"time": 111842, "pitch": 44, "duration": 112, "velocity": 127}, {"time": 111842, "pitch": 49, "duration": 120, "velocity": 120}, {"time": 111842, "pitch": 57, "duration": 120, "velocity": 120}, {"time": 112082, "pitch": 42, "duration": 135, "velocity": 127}, {"time": 112322, "pitch": 38, "duration": 120, "velocity": 120}, {"time": 112322, "pitch": 40, "duration": 117, "velocity": 127}, {"time": 112322, "pitch": 46, "duration": 125, "velocity": 127}, {"time": 112322, "pitch": 53, "duration": 144, "velocity": 88}, {"time": 112562, "pitch": 42, "duration": 101, "velocity": 127}, {"time": 112682, "pitch": 35, "duration": 120, "velocity": 125}, {"time": 112802, "pitch": 36, "duration": 60, "velocity": 127}, {"time": 112802, "pitch": 44, "duration": 89, "velocity": 127}, {"time": 112802, "pitch": 53, "duration": 132, "velocity": 92}, {"time": 113042, "pitch": 35, "duration": 120, "velocity": 125}, {"time": 113042, "pitch": 42, "duration": 89, "velocity": 127}, {"time": 113282, "pitch": 38, "duration": 120, "velocity": 120}, {"time": 113282, "pitch": 40, "duration": 79, "velocity": 127}, {"time": 113282, "pitch": 46, "duration": 98, "velocity": 127}, {"time": 113282, "pitch": 53, "duration": 97, "velocity": 92}, {"time": 113522, "pitch": 35, "duration": 120, "velocity": 125}, {"time": 113522, "pitch": 42, "duration": 82, "velocity": 127}, {"time": 113642, "pitch": 38, "duration": 120, "velocity": 120}, {"time": 113762, "pitch": 35, "duration": 120, "velocity": 125}, {"time": 113762, "pitch": 36, "duration": 60, "velocity": 127}, {"time": 113762, "pitch": 44, "duration": 74, "velocity": 127}, {"time": 113762, "pitch": 53, "duration": 114, "velocity": 104}, {"time": 114002, "pitch": 36, "duration": 60, "velocity": 127}, {"time": 114002, "pitch": 42, "duration": 72, "velocity": 127}, {"time": 114242, "pitch": 38, "duration": 120, "velocity": 120}, {"time": 114242, "pitch": 40, "duration": 84, "velocity": 127}, {"time": 114242, "pitch": 46, "duration": 81, "velocity": 127}, {"time": 114242, "pitch": 53, "duration": 113, "velocity": 96}, {"time": 114482, "pitch": 42, "duration": 62, "velocity": 127}, {"time": 114602, "pitch": 35, "duration": 120, "velocity": 125}, {"time": 114722, "pitch": 36, "duration": 60, "velocity": 127}, {"time": 114722, "pitch": 42, "duration": 72, "velocity": 127}, {"time": 114722, "pitch": 53, "duration": 110, "velocity": 96}, {"time": 114962, "pitch": 35, "duration": 120, "velocity": 125}, {"time": 114962, "pitch": 36, "duration": 60, "velocity": 127}, {"time": 114962, "pitch": 42, "duration": 60, "velocity": 127}, {"time": 115202, "pitch": 38, "duration": 120, "velocity": 120}, {"time": 115202, "pitch": 40, "duration": 60, "velocity": 127}, {"time": 115202, "pitch": 46, "duration": 60, "velocity": 127}, {"time": 115202, "pitch": 53, "duration": 96, "velocity": 94}, {"time": 115442, "pitch": 42, "duration": 55, "velocity": 127}, {"time": 115682, "pitch": 35, "duration": 120, "velocity": 125}, {"time": 115682, "pitch": 36, "duration": 60, "velocity": 127}, {"time": 115682, "pitch": 44, "duration": 17, "velocity": 127}, {"time": 115682, "pitch": 53, "duration": 80, "velocity": 94}, {"time": 115922, "pitch": 36, "duration": 60, "velocity": 127}, {"time": 115922, "pitch": 42, "duration": 63, "velocity": 112}, {"time": 116162, "pitch": 38, "duration": 120, "velocity": 120}, {"time": 116162, "pitch": 40, "duration": 77, "velocity": 127}, {"time": 116162, "pitch": 46, "duration": 72, "velocity": 127}, {"time": 116162, "pitch": 53, "duration": 86, "velocity": 94}, {"time": 116402, "pitch": 42, "duration": 67, "velocity": 127}, {"time": 116522, "pitch": 35, "duration": 120, "velocity": 125}, {"time": 116642, "pitch": 36, "duration": 60, "velocity": 127}, {"time": 116642, "pitch": 42, "duration": 62, "velocity": 127}, {"time": 116642, "pitch": 53, "duration": 79, "velocity": 94}, {"time": 116882, "pitch": 35, "duration": 120, "velocity": 125}, {"time": 116882, "pitch": 36, "duration": 60, "velocity": 127}, {"time": 116882, "pitch": 42, "duration": 65, "velocity": 112}, {"time": 117122, "pitch": 38, "duration": 120, "velocity": 120}, {"time": 117122, "pitch": 40, "duration": 64, "velocity": 127}, {"time": 117122, "pitch": 46, "duration": 75, "velocity": 127}, {"time": 117122, "pitch": 53, "duration": 79, "velocity": 92}, {"time": 117362, "pitch": 35, "duration": 120, "velocity": 125}, {"time": 117362, "pitch": 42, "duration": 72, "velocity": 127}, {"time": 117482, "pitch": 38, "duration": 120, "velocity": 120}, {"time": 117602, "pitch": 35, "duration": 120, "velocity": 125}, {"time": 117602, "pitch": 36, "duration": 60, "velocity": 127}, {"time": 117602, "pitch": 42, "duration": 65, "velocity": 127}, {"time": 117602, "pitch": 53, "duration": 85, "velocity": 96}, {"time": 117842, "pitch": 36, "duration": 60, "velocity": 127}, {"time": 117842, "pitch": 42, "duration": 67, "velocity": 127}, {"time": 118082, "pitch": 38, "duration": 120, "velocity": 120}, {"time": 118082, "pitch": 40, "duration": 91, "velocity": 127}, {"time": 118082, "pitch": 46, "duration": 91, "velocity": 127}, {"time": 118082, "pitch": 53, "duration": 79, "velocity": 96}, {"time": 118322, "pitch": 42, "duration": 72, "velocity": 127}, {"time": 118442, "pitch": 35, "duration": 120, "velocity": 125}, {"time": 118442, "pitch": 36, "duration": 60, "velocity": 127}, {"time": 118562, "pitch": 42, "duration": 67, "velocity": 127}, {"time": 118562, "pitch": 53, "duration": 86, "velocity": 94}, {"time": 118802, "pitch": 35, "duration": 120, "velocity": 125}, {"time": 118802, "pitch": 36, "duration": 60, "velocity": 127}, {"time": 118802, "pitch": 42, "duration": 38, "velocity": 127}, {"time": 118922, "pitch": 36, "duration": 60, "velocity": 127}, {"time": 118922, "pitch": 42, "duration": 60, "velocity": 95}, {"time": 119042, "pitch": 38, "duration": 120, "velocity": 120}, {"time": 119042, "pitch": 40, "duration": 75, "velocity": 127}, {"time": 119042, "pitch": 46, "duration": 101, "velocity": 127}, {"time": 119042, "pitch": 53, "duration": 59, "velocity": 100}, {"time": 119282, "pitch": 35, "duration": 120, "velocity": 125}, {"time": 119282, "pitch": 42, "duration": 62, "velocity": 127}, {"time": 119402, "pitch": 35, "duration": 120, "velocity": 125}, {"time": 119522, "pitch": 35, "duration": 120, "velocity": 125}, {"time": 119522, "pitch": 36, "duration": 60, "velocity": 127}, {"time": 119522, "pitch": 42, "duration": 65, "velocity": 127}, {"time": 119522, "pitch": 49, "duration": 120, "velocity": 120}, {"time": 119522, "pitch": 57, "duration": 120, "velocity": 120}, {"time": 119762, "pitch": 42, "duration": 62, "velocity": 127}, {"time": 120002, "pitch": 38, "duration": 120, "velocity": 120}, {"time": 120002, "pitch": 40, "duration": 74, "velocity": 127}, {"time": 120002, "pitch": 46, "duration": 50, "velocity": 112}, {"time": 120002, "pitch": 53, "duration": 62, "velocity": 94}, {"time": 120242, "pitch": 42, "duration": 46, "velocity": 127}, {"time": 120362, "pitch": 35, "duration": 120, "velocity": 125}, {"time": 120482, "pitch": 42, "duration": 51, "velocity": 127}, {"time": 120482, "pitch": 53, "duration": 73, "velocity": 92}, {"time": 120722, "pitch": 35, "duration": 120, "velocity": 125}, {"time": 120722, "pitch": 36, "duration": 60, "velocity": 127}, {"time": 120722, "pitch": 42, "duration": 68, "velocity": 127}, {"time": 120962, "pitch": 38, "duration": 120, "velocity": 120}, {"time": 120962, "pitch": 40, "duration": 67, "velocity": 127}, {"time": 120962, "pitch": 46, "duration": 75, "velocity": 127}, {"time": 120962, "pitch": 53, "duration": 80, "velocity": 94}, {"time": 121202, "pitch": 35, "duration": 120, "velocity": 125}, {"time": 121202, "pitch": 42, "duration": 58, "velocity": 127}, {"time": 121322, "pitch": 38, "duration": 120, "velocity": 120}, {"time": 121442, "pitch": 35, "duration": 120, "velocity": 125}, {"time": 121442, "pitch": 36, "duration": 60, "velocity": 127}, {"time": 121442, "pitch": 44, "duration": 74, "velocity": 127}, {"time": 121442, "pitch": 53, "duration": 87, "velocity": 96}, {"time": 121682, "pitch": 36, "duration": 60, "velocity": 127}, {"time": 121682, "pitch": 42, "duration": 72, "velocity": 127}, {"time": 121922, "pitch": 38, "duration": 120, "velocity": 120}, {"time": 121922, "pitch": 40, "duration": 84, "velocity": 127}, {"time": 121922, "pitch": 46, "duration": 81, "velocity": 127}, {"time": 121922, "pitch": 53, "duration": 82, "velocity": 96}, {"time": 122162, "pitch": 42, "duration": 62, "velocity": 127}, {"time": 122282, "pitch": 35, "duration": 120, "velocity": 125}, {"time": 122402, "pitch": 36, "duration": 60, "velocity": 127}, {"time": 122402, "pitch": 42, "duration": 72, "velocity": 127}, {"time": 122402, "pitch": 53, "duration": 63, "velocity": 96}, {"time": 122642, "pitch": 35, "duration": 120, "velocity": 125}, {"time": 122642, "pitch": 36, "duration": 60, "velocity": 127}, {"time": 122642, "pitch": 42, "duration": 60, "velocity": 127}, {"time": 122882, "pitch": 38, "duration": 120, "velocity": 120}, {"time": 122882, "pitch": 40, "duration": 60, "velocity": 127}, {"time": 122882, "pitch": 46, "duration": 60, "velocity": 127}, {"time": 122882, "pitch": 53, "duration": 79, "velocity": 98}, {"time": 123122, "pitch": 42, "duration": 55, "velocity": 127}, {"time": 123362, "pitch": 35, "duration": 120, "velocity": 125}, {"time": 123362, "pitch": 36, "duration": 60, "velocity": 127}, {"time": 123362, "pitch": 44, "duration": 17, "velocity": 127}, {"time": 123362, "pitch": 53, "duration": 65, "velocity": 90}, {"time": 123602, "pitch": 36, "duration": 60, "velocity": 127}, {"time": 123602, "pitch": 42, "duration": 63, "velocity": 112}, {"time": 123842, "pitch": 38, "duration": 120, "velocity": 120}, {"time": 123842, "pitch": 40, "duration": 77, "velocity": 127}, {"time": 123842, "pitch": 46, "duration": 72, "velocity": 127}, {"time": 123842, "pitch": 53, "duration": 59, "velocity": 86}, {"time": 124082, "pitch": 42, "duration": 67, "velocity": 127}, {"time": 124202, "pitch": 35, "duration": 120, "velocity": 125}, {"time": 124322, "pitch": 36, "duration": 60, "velocity": 127}, {"time": 124322, "pitch": 42, "duration": 62, "velocity": 127}, {"time": 124322, "pitch": 53, "duration": 69, "velocity": 88}, {"time": 124562, "pitch": 35, "duration": 120, "velocity": 125}, {"time": 124562, "pitch": 36, "duration": 60, "velocity": 127}, {"time": 124562, "pitch": 42, "duration": 65, "velocity": 112}, {"time": 124802, "pitch": 38, "duration": 120, "velocity": 120}, {"time": 124802, "pitch": 40, "duration": 64, "velocity": 127}, {"time": 124802, "pitch": 46, "duration": 75, "velocity": 127}, {"time": 124802, "pitch": 53, "duration": 57, "velocity": 88}, {"time": 125042, "pitch": 35, "duration": 120, "velocity": 125}, {"time": 125042, "pitch": 42, "duration": 72, "velocity": 127}, {"time": 125162, "pitch": 38, "duration": 120, "velocity": 120}, {"time": 125282, "pitch": 35, "duration": 120, "velocity": 125}, {"time": 125282, "pitch": 36, "duration": 60, "velocity": 127}, {"time": 125282, "pitch": 42, "duration": 65, "velocity": 127}, {"time": 125282, "pitch": 53, "duration": 63, "velocity": 88}, {"time": 125522, "pitch": 36, "duration": 60, "velocity": 127}, {"time": 125522, "pitch": 42, "duration": 67, "velocity": 127}, {"time": 125762, "pitch": 38, "duration": 120, "velocity": 120}, {"time": 125762, "pitch": 40, "duration": 91, "velocity": 127}, {"time": 125762, "pitch": 46, "duration": 91, "velocity": 127}, {"time": 125762, "pitch": 53, "duration": 67, "velocity": 82}, {"time": 126002, "pitch": 42, "duration": 72, "velocity": 127}, {"time": 126122, "pitch": 35, "duration": 120, "velocity": 125}, {"time": 126122, "pitch": 36, "duration": 60, "velocity": 127}, {"time": 126242, "pitch": 42, "duration": 67, "velocity": 127}, {"time": 126242, "pitch": 53, "duration": 76, "velocity": 90}, {"time": 126482, "pitch": 35, "duration": 120, "velocity": 125}, {"time": 126482, "pitch": 36, "duration": 60, "velocity": 127}, {"time": 126482, "pitch": 42, "duration": 38, "velocity": 127}, {"time": 126602, "pitch": 36, "duration": 60, "velocity": 127}, {"time": 126602, "pitch": 42, "duration": 60, "velocity": 95}, {"time": 126722, "pitch": 38, "duration": 120, "velocity": 120}, {"time": 126722, "pitch": 40, "duration": 75, "velocity": 127}, {"time": 126722, "pitch": 46, "duration": 101, "velocity": 127}, {"time": 126722, "pitch": 53, "duration": 62, "velocity": 94}, {"time": 126962, "pitch": 35, "duration": 120, "velocity": 125}, {"time": 126962, "pitch": 42, "duration": 62, "velocity": 127}, {"time": 127082, "pitch": 35, "duration": 120, "velocity": 125}, {"time": 127202, "pitch": 35, "duration": 120, "velocity": 125}, {"time": 127202, "pitch": 36, "duration": 60, "velocity": 127}, {"time": 127202, "pitch": 44, "duration": 112, "velocity": 127}, {"time": 127202, "pitch": 49, "duration": 120, "velocity": 120}, {"time": 127202, "pitch": 57, "duration": 120, "velocity": 120}, {"time": 127442, "pitch": 42, "duration": 135, "velocity": 127}, {"time": 127682, "pitch": 38, "duration": 120, "velocity": 120}, {"time": 127682, "pitch": 40, "duration": 117, "velocity": 127}, {"time": 127682, "pitch": 46, "duration": 125, "velocity": 127}, {"time": 127922, "pitch": 42, "duration": 101, "velocity": 127}, {"time": 128042, "pitch": 35, "duration": 120, "velocity": 125}, {"time": 128162, "pitch": 36, "duration": 60, "velocity": 127}, {"time": 128162, "pitch": 44, "duration": 89, "velocity": 127}, {"time": 128402, "pitch": 35, "duration": 120, "velocity": 125}, {"time": 128402, "pitch": 42, "duration": 89, "velocity": 127}, {"time": 128642, "pitch": 38, "duration": 120, "velocity": 120}, {"time": 128642, "pitch": 40, "duration": 79, "velocity": 127}, {"time": 128642, "pitch": 46, "duration": 98, "velocity": 127}, {"time": 128882, "pitch": 35, "duration": 120, "velocity": 125}, {"time": 128882, "pitch": 42, "duration": 82, "velocity": 127}, {"time": 129002, "pitch": 38, "duration": 120, "velocity": 120}, {"time": 129122, "pitch": 35, "duration": 120, "velocity": 125}, {"time": 129122, "pitch": 36, "duration": 60, "velocity": 127}, {"time": 129122, "pitch": 42, "duration": 65, "velocity": 127}, {"time": 129362, "pitch": 36, "duration": 60, "velocity": 127}, {"time": 129362, "pitch": 42, "duration": 67, "velocity": 127}, {"time": 129602, "pitch": 38, "duration": 120, "velocity": 120}, {"time": 129602, "pitch": 40, "duration": 91, "velocity": 127}, {"time": 129602, "pitch": 46, "duration": 91, "velocity": 127}, {"time": 129842, "pitch": 42, "duration": 72, "velocity": 127}, {"time": 129962, "pitch": 35, "duration": 120, "velocity": 125}, {"time": 129962, "pitch": 36, "duration": 60, "velocity": 127}, {"time": 130082, "pitch": 42, "duration": 67, "velocity": 127}, {"time": 130322, "pitch": 35, "duration": 120, "velocity": 125}, {"time": 130322, "pitch": 36, "duration": 60, "velocity": 127}, {"time": 130322, "pitch": 42, "duration": 38, "velocity": 127}, {"time": 130442, "pitch": 36, "duration": 60, "velocity": 127}, {"time": 130442, "pitch": 42, "duration": 60, "velocity": 95}, {"time": 130562, "pitch": 38, "duration": 120, "velocity": 120}, {"time": 130562, "pitch": 40, "duration": 75, "velocity": 127}, {"time": 130562, "pitch": 46, "duration": 101, "velocity": 127}, {"time": 130802, "pitch": 35, "duration": 120, "velocity": 125}, {"time": 130802, "pitch": 42, "duration": 62, "velocity": 127}, {"time": 130922, "pitch": 35, "duration": 120, "velocity": 125}, {"time": 131042, "pitch": 35, "duration": 120, "velocity": 125}, {"time": 131042, "pitch": 36, "duration": 60, "velocity": 127}, {"time": 131042, "pitch": 44, "duration": 112, "velocity": 127}, {"time": 131042, "pitch": 49, "duration": 120, "velocity": 120}, {"time": 131042, "pitch": 57, "duration": 120, "velocity": 120}, {"time": 131282, "pitch": 42, "duration": 135, "velocity": 127}, {"time": 131522, "pitch": 38, "duration": 120, "velocity": 120}, {"time": 131522, "pitch": 40, "duration": 117, "velocity": 127}, {"time": 131522, "pitch": 46, "duration": 125, "velocity": 127}, {"time": 131762, "pitch": 42, "duration": 101, "velocity": 127}, {"time": 131882, "pitch": 35, "duration": 120, "velocity": 125}, {"time": 132002, "pitch": 36, "duration": 60, "velocity": 127}, {"time": 132002, "pitch": 44, "duration": 89, "velocity": 127}, {"time": 132242, "pitch": 35, "duration": 120, "velocity": 125}, {"time": 132242, "pitch": 42, "duration": 89, "velocity": 127}, {"time": 132482, "pitch": 38, "duration": 120, "velocity": 120}, {"time": 132482, "pitch": 40, "duration": 79, "velocity": 127}, {"time": 132482, "pitch": 46, "duration": 98, "velocity": 127}, {"time": 132722, "pitch": 35, "duration": 120, "velocity": 125}, {"time": 132722, "pitch": 42, "duration": 82, "velocity": 127}, {"time": 132842, "pitch": 38, "duration": 120, "velocity": 120}, {"time": 132962, "pitch": 35, "duration": 120, "velocity": 125}, {"time": 132962, "pitch": 36, "duration": 60, "velocity": 127}, {"time": 132962, "pitch": 42, "duration": 65, "velocity": 127}, {"time": 133202, "pitch": 36, "duration": 60, "velocity": 127}, {"time": 133202, "pitch": 42, "duration": 67, "velocity": 127}, {"time": 133442, "pitch": 38, "duration": 120, "velocity": 120}, {"time": 133442, "pitch": 40, "duration": 91, "velocity": 127}, {"time": 133442, "pitch": 46, "duration": 91, "velocity": 127}, {"time": 133682, "pitch": 42, "duration": 72, "velocity": 127}, {"time": 133802, "pitch": 35, "duration": 120, "velocity": 125}, {"time": 133802, "pitch": 36, "duration": 60, "velocity": 127}, {"time": 133922, "pitch": 42, "duration": 67, "velocity": 127}, {"time": 134162, "pitch": 35, "duration": 120, "velocity": 125}, {"time": 134162, "pitch": 36, "duration": 60, "velocity": 127}, {"time": 134162, "pitch": 42, "duration": 38, "velocity": 127}, {"time": 134282, "pitch": 36, "duration": 60, "velocity": 127}, {"time": 134282, "pitch": 42, "duration": 60, "velocity": 95}, {"time": 134402, "pitch": 38, "duration": 120, "velocity": 120}, {"time": 134402, "pitch": 40, "duration": 75, "velocity": 127}, {"time": 134402, "pitch": 46, "duration": 101, "velocity": 127}, {"time": 134642, "pitch": 35, "duration": 120, "velocity": 125}, {"time": 134642, "pitch": 42, "duration": 62, "velocity": 127}, {"time": 134762, "pitch": 35, "duration": 120, "velocity": 125}, {"time": 134882, "pitch": 35, "duration": 120, "velocity": 125}, {"time": 134882, "pitch": 36, "duration": 60, "velocity": 127}, {"time": 134882, "pitch": 44, "duration": 112, "velocity": 127}, {"time": 134882, "pitch": 49, "duration": 120, "velocity": 120}, {"time": 134882, "pitch": 57, "duration": 120, "velocity": 120}, {"time": 135122, "pitch": 42, "duration": 135, "velocity": 127}, {"time": 135362, "pitch": 38, "duration": 120, "velocity": 120}, {"time": 135362, "pitch": 40, "duration": 117, "velocity": 127}, {"time": 135362, "pitch": 46, "duration": 125, "velocity": 127}, {"time": 135602, "pitch": 42, "duration": 101, "velocity": 127}, {"time": 135722, "pitch": 35, "duration": 120, "velocity": 125}, {"time": 135842, "pitch": 36, "duration": 60, "velocity": 127}, {"time": 135842, "pitch": 44, "duration": 89, "velocity": 127}, {"time": 136082, "pitch": 35, "duration": 120, "velocity": 125}, {"time": 136082, "pitch": 42, "duration": 89, "velocity": 127}, {"time": 136322, "pitch": 38, "duration": 120, "velocity": 120}, {"time": 136322, "pitch": 40, "duration": 79, "velocity": 127}, {"time": 136322, "pitch": 46, "duration": 98, "velocity": 127}, {"time": 136562, "pitch": 35, "duration": 120, "velocity": 125}, {"time": 136562, "pitch": 42, "duration": 82, "velocity": 127}, {"time": 136682, "pitch": 38, "duration": 120, "velocity": 120}, {"time": 136802, "pitch": 35, "duration": 120, "velocity": 125}, {"time": 136802, "pitch": 36, "duration": 60, "velocity": 127}, {"time": 136802, "pitch": 44, "duration": 74, "velocity": 127}, {"time": 137042, "pitch": 36, "duration": 60, "velocity": 127}, {"time": 137042, "pitch": 42, "duration": 72, "velocity": 127}, {"time": 137282, "pitch": 38, "duration": 120, "velocity": 120}, {"time": 137282, "pitch": 40, "duration": 84, "velocity": 127}, {"time": 137282, "pitch": 46, "duration": 81, "velocity": 127}, {"time": 137522, "pitch": 42, "duration": 62, "velocity": 127}, {"time": 137642, "pitch": 35, "duration": 120, "velocity": 125}, {"time": 137762, "pitch": 36, "duration": 60, "velocity": 127}, {"time": 137762, "pitch": 42, "duration": 72, "velocity": 127}, {"time": 138002, "pitch": 35, "duration": 120, "velocity": 125}, {"time": 138002, "pitch": 36, "duration": 60, "velocity": 127}, {"time": 138002, "pitch": 42, "duration": 60, "velocity": 127}, {"time": 138242, "pitch": 38, "duration": 120, "velocity": 120}, {"time": 138242, "pitch": 40, "duration": 60, "velocity": 127}, {"time": 138242, "pitch": 46, "duration": 60, "velocity": 127}, {"time": 138482, "pitch": 42, "duration": 55, "velocity": 127}, {"time": 138722, "pitch": 35, "duration": 120, "velocity": 125}, {"time": 138722, "pitch": 36, "duration": 60, "velocity": 127}, {"time": 138722, "pitch": 44, "duration": 17, "velocity": 127}, {"time": 138962, "pitch": 36, "duration": 60, "velocity": 127}, {"time": 138962, "pitch": 42, "duration": 63, "velocity": 112}, {"time": 139202, "pitch": 38, "duration": 120, "velocity": 120}, {"time": 139202, "pitch": 40, "duration": 77, "velocity": 127}, {"time": 139202, "pitch": 46, "duration": 72, "velocity": 127}, {"time": 139442, "pitch": 42, "duration": 67, "velocity": 127}, {"time": 139562, "pitch": 35, "duration": 120, "velocity": 125}, {"time": 139682, "pitch": 36, "duration": 60, "velocity": 127}, {"time": 139682, "pitch": 42, "duration": 62, "velocity": 127}, {"time": 139922, "pitch": 35, "duration": 120, "velocity": 125}, {"time": 139922, "pitch": 36, "duration": 60, "velocity": 127}, {"time": 139922, "pitch": 42, "duration": 65, "velocity": 112}, {"time": 140162, "pitch": 38, "duration": 120, "velocity": 120}, {"time": 140162, "pitch": 40, "duration": 64, "velocity": 127}, {"time": 140162, "pitch": 46, "duration": 75, "velocity": 127}, {"time": 140402, "pitch": 35, "duration": 120, "velocity": 125}, {"time": 140402, "pitch": 42, "duration": 72, "velocity": 127}, {"time": 140522, "pitch": 38, "duration": 120, "velocity": 120}, {"time": 140642, "pitch": 35, "duration": 120, "velocity": 125}, {"time": 140642, "pitch": 36, "duration": 60, "velocity": 127}, {"time": 140642, "pitch": 42, "duration": 65, "velocity": 127}, {"time": 140882, "pitch": 36, "duration": 60, "velocity": 127}, {"time": 140882, "pitch": 42, "duration": 67, "velocity": 127}, {"time": 141122, "pitch": 38, "duration": 120, "velocity": 120}, {"time": 141122, "pitch": 40, "duration": 91, "velocity": 127}, {"time": 141122, "pitch": 46, "duration": 91, "velocity": 127}, {"time": 141362, "pitch": 42, "duration": 72, "velocity": 127}, {"time": 141482, "pitch": 35, "duration": 120, "velocity": 125}, {"time": 141482, "pitch": 36, "duration": 60, "velocity": 127}, {"time": 141602, "pitch": 42, "duration": 67, "velocity": 127}, {"time": 141842, "pitch": 35, "duration": 120, "velocity": 125}, {"time": 141842, "pitch": 36, "duration": 60, "velocity": 127}, {"time": 141842, "pitch": 42, "duration": 38, "velocity": 127}, {"time": 141962, "pitch": 36, "duration": 60, "velocity": 127}, {"time": 141962, "pitch": 42, "duration": 60, "velocity": 95}, {"time": 142082, "pitch": 38, "duration": 120, "velocity": 120}, {"time": 142082, "pitch": 40, "duration": 75, "velocity": 127}, {"time": 142082, "pitch": 46, "duration": 101, "velocity": 127}, {"time": 142322, "pitch": 35, "duration": 120, "velocity": 125}, {"time": 142322, "pitch": 42, "duration": 62, "velocity": 127}, {"time": 142442, "pitch": 35, "duration": 120, "velocity": 125}, {"time": 142562, "pitch": 35, "duration": 120, "velocity": 125}, {"time": 142562, "pitch": 36, "duration": 60, "velocity": 127}, {"time": 142562, "pitch": 42, "duration": 65, "velocity": 127}, {"time": 142562, "pitch": 49, "duration": 120, "velocity": 120}, {"time": 142562, "pitch": 57, "duration": 120, "velocity": 120}, {"time": 142802, "pitch": 42, "duration": 62, "velocity": 127}, {"time": 143042, "pitch": 38, "duration": 120, "velocity": 120}, {"time": 143042, "pitch": 40, "duration": 74, "velocity": 127}, {"time": 143042, "pitch": 46, "duration": 50, "velocity": 112}, {"time": 143282, "pitch": 42, "duration": 46, "velocity": 127}, {"time": 143402, "pitch": 35, "duration": 120, "velocity": 125}, {"time": 143522, "pitch": 42, "duration": 51, "velocity": 127}, {"time": 143762, "pitch": 35, "duration": 120, "velocity": 125}, {"time": 143762, "pitch": 36, "duration": 60, "velocity": 127}, {"time": 143762, "pitch": 42, "duration": 68, "velocity": 127}, {"time": 144002, "pitch": 38, "duration": 120, "velocity": 120}, {"time": 144002, "pitch": 40, "duration": 67, "velocity": 127}, {"time": 144002, "pitch": 46, "duration": 75, "velocity": 127}, {"time": 144242, "pitch": 35, "duration": 120, "velocity": 125}, {"time": 144242, "pitch": 42, "duration": 58, "velocity": 127}, {"time": 144362, "pitch": 38, "duration": 120, "velocity": 120}, {"time": 144482, "pitch": 35, "duration": 120, "velocity": 125}, {"time": 144482, "pitch": 36, "duration": 60, "velocity": 127}, {"time": 144482, "pitch": 44, "duration": 74, "velocity": 127}, {"time": 144722, "pitch": 36, "duration": 60, "velocity": 127}, {"time": 144722, "pitch": 42, "duration": 72, "velocity": 127}, {"time": 144962, "pitch": 38, "duration": 120, "velocity": 120}, {"time": 144962, "pitch": 40, "duration": 84, "velocity": 127}, {"time": 144962, "pitch": 46, "duration": 81, "velocity": 127}, {"time": 145202, "pitch": 42, "duration": 62, "velocity": 127}, {"time": 145322, "pitch": 35, "duration": 120, "velocity": 125}, {"time": 145442, "pitch": 36, "duration": 60, "velocity": 127}, {"time": 145442, "pitch": 42, "duration": 72, "velocity": 127}, {"time": 145682, "pitch": 35, "duration": 120, "velocity": 125}, {"time": 145682, "pitch": 36, "duration": 60, "velocity": 127}, {"time": 145682, "pitch": 42, "duration": 60, "velocity": 127}, {"time": 145922, "pitch": 38, "duration": 120, "velocity": 120}, {"time": 145922, "pitch": 40, "duration": 60, "velocity": 127}, {"time": 145922, "pitch": 46, "duration": 60, "velocity": 127}, {"time": 146162, "pitch": 42, "duration": 55, "velocity": 127}, {"time": 146402, "pitch": 35, "duration": 120, "velocity": 125}, {"time": 146402, "pitch": 36, "duration": 60, "velocity": 127}, {"time": 146402, "pitch": 44, "duration": 17, "velocity": 127}, {"time": 146642, "pitch": 36, "duration": 60, "velocity": 127}, {"time": 146642, "pitch": 42, "duration": 63, "velocity": 112}, {"time": 146882, "pitch": 38, "duration": 120, "velocity": 120}, {"time": 146882, "pitch": 40, "duration": 77, "velocity": 127}, {"time": 146882, "pitch": 46, "duration": 72, "velocity": 127}, {"time": 147122, "pitch": 42, "duration": 67, "velocity": 127}, {"time": 147242, "pitch": 35, "duration": 120, "velocity": 125}, {"time": 147362, "pitch": 36, "duration": 60, "velocity": 127}, {"time": 147362, "pitch": 42, "duration": 62, "velocity": 127}, {"time": 147602, "pitch": 35, "duration": 120, "velocity": 125}, {"time": 147602, "pitch": 36, "duration": 60, "velocity": 127}, {"time": 147602, "pitch": 42, "duration": 65, "velocity": 112}, {"time": 147842, "pitch": 38, "duration": 120, "velocity": 120}, {"time": 147842, "pitch": 40, "duration": 64, "velocity": 127}, {"time": 147842, "pitch": 46, "duration": 75, "velocity": 127}, {"time": 148082, "pitch": 35, "duration": 120, "velocity": 125}, {"time": 148082, "pitch": 42, "duration": 72, "velocity": 127}, {"time": 148202, "pitch": 38, "duration": 120, "velocity": 120}, {"time": 148322, "pitch": 35, "duration": 120, "velocity": 125}, {"time": 148322, "pitch": 36, "duration": 60, "velocity": 127}, {"time": 148322, "pitch": 42, "duration": 65, "velocity": 127}, {"time": 148562, "pitch": 36, "duration": 60, "velocity": 127}, {"time": 148562, "pitch": 42, "duration": 67, "velocity": 127}, {"time": 148802, "pitch": 38, "duration": 120, "velocity": 120}, {"time": 148802, "pitch": 40, "duration": 91, "velocity": 127}, {"time": 148802, "pitch": 46, "duration": 91, "velocity": 127}, {"time": 149042, "pitch": 42, "duration": 72, "velocity": 127}, {"time": 149162, "pitch": 35, "duration": 120, "velocity": 125}, {"time": 149162, "pitch": 36, "duration": 60, "velocity": 127}, {"time": 149282, "pitch": 42, "duration": 67, "velocity": 127}, {"time": 149522, "pitch": 35, "duration": 120, "velocity": 125}, {"time": 149522, "pitch": 36, "duration": 60, "velocity": 127}, {"time": 149522, "pitch": 42, "duration": 38, "velocity": 127}, {"time": 149642, "pitch": 36, "duration": 60, "velocity": 127}, {"time": 149642, "pitch": 42, "duration": 60, "velocity": 95}, {"time": 149762, "pitch": 38, "duration": 120, "velocity": 120}, {"time": 149762, "pitch": 40, "duration": 75, "velocity": 127}, {"time": 149762, "pitch": 46, "duration": 101, "velocity": 127}, {"time": 150002, "pitch": 35, "duration": 120, "velocity": 125}, {"time": 150002, "pitch": 42, "duration": 62, "velocity": 127}, {"time": 150122, "pitch": 35, "duration": 120, "velocity": 125}, {"time": 150242, "pitch": 35, "duration": 120, "velocity": 125}, {"time": 150242, "pitch": 36, "duration": 60, "velocity": 127}, {"time": 150242, "pitch": 44, "duration": 112, "velocity": 127}, {"time": 150242, "pitch": 49, "duration": 120, "velocity": 120}, {"time": 150242, "pitch": 57, "duration": 120, "velocity": 120}, {"time": 150482, "pitch": 42, "duration": 135, "velocity": 127}, {"time": 150722, "pitch": 38, "duration": 120, "velocity": 120}, {"time": 150722, "pitch": 40, "duration": 117, "velocity": 127}, {"time": 150722, "pitch": 46, "duration": 125, "velocity": 127}, {"time": 150962, "pitch": 42, "duration": 101, "velocity": 127}, {"time": 151082, "pitch": 35, "duration": 120, "velocity": 125}, {"time": 151202, "pitch": 36, "duration": 60, "velocity": 127}, {"time": 151202, "pitch": 44, "duration": 89, "velocity": 127}, {"time": 151442, "pitch": 35, "duration": 120, "velocity": 125}, {"time": 151442, "pitch": 42, "duration": 89, "velocity": 127}, {"time": 151682, "pitch": 38, "duration": 120, "velocity": 120}, {"time": 151682, "pitch": 40, "duration": 79, "velocity": 127}, {"time": 151682, "pitch": 46, "duration": 98, "velocity": 127}, {"time": 151922, "pitch": 35, "duration": 120, "velocity": 125}, {"time": 151922, "pitch": 42, "duration": 82, "velocity": 127}, {"time": 152042, "pitch": 38, "duration": 120, "velocity": 120}, {"time": 152162, "pitch": 35, "duration": 120, "velocity": 125}, {"time": 152162, "pitch": 36, "duration": 60, "velocity": 127}, {"time": 152162, "pitch": 44, "duration": 74, "velocity": 127}, {"time": 152402, "pitch": 36, "duration": 60, "velocity": 127}, {"time": 152402, "pitch": 42, "duration": 72, "velocity": 127}, {"time": 152642, "pitch": 38, "duration": 120, "velocity": 120}, {"time": 152642, "pitch": 40, "duration": 84, "velocity": 127}, {"time": 152642, "pitch": 46, "duration": 81, "velocity": 127}, {"time": 152882, "pitch": 42, "duration": 62, "velocity": 127}, {"time": 153002, "pitch": 35, "duration": 120, "velocity": 125}, {"time": 153122, "pitch": 36, "duration": 60, "velocity": 127}, {"time": 153122, "pitch": 42, "duration": 72, "velocity": 127}, {"time": 153362, "pitch": 35, "duration": 120, "velocity": 125}, {"time": 153362, "pitch": 36, "duration": 60, "velocity": 127}, {"time": 153362, "pitch": 42, "duration": 60, "velocity": 127}, {"time": 153602, "pitch": 38, "duration": 120, "velocity": 120}, {"time": 153602, "pitch": 40, "duration": 60, "velocity": 127}, {"time": 153602, "pitch": 46, "duration": 60, "velocity": 127}, {"time": 153842, "pitch": 42, "duration": 55, "velocity": 127}, {"time": 154082, "pitch": 35, "duration": 120, "velocity": 125}, {"time": 154082, "pitch": 36, "duration": 60, "velocity": 127}, {"time": 154082, "pitch": 44, "duration": 17, "velocity": 127}, {"time": 154322, "pitch": 36, "duration": 60, "velocity": 127}, {"time": 154322, "pitch": 42, "duration": 63, "velocity": 112}, {"time": 154562, "pitch": 38, "duration": 120, "velocity": 120}, {"time": 154562, "pitch": 40, "duration": 77, "velocity": 127}, {"time": 154562, "pitch": 46, "duration": 72, "velocity": 127}, {"time": 154802, "pitch": 42, "duration": 67, "velocity": 127}, {"time": 154922, "pitch": 35, "duration": 120, "velocity": 125}, {"time": 155042, "pitch": 36, "duration": 60, "velocity": 127}, {"time": 155042, "pitch": 42, "duration": 62, "velocity": 127}, {"time": 155282, "pitch": 35, "duration": 120, "velocity": 125}, {"time": 155282, "pitch": 36, "duration": 60, "velocity": 127}, {"time": 155282, "pitch": 42, "duration": 65, "velocity": 112}, {"time": 155522, "pitch": 38, "duration": 120, "velocity": 120}, {"time": 155522, "pitch": 40, "duration": 64, "velocity": 127}, {"time": 155522, "pitch": 46, "duration": 75, "velocity": 127}, {"time": 155762, "pitch": 35, "duration": 120, "velocity": 125}, {"time": 155762, "pitch": 42, "duration": 72, "velocity": 127}, {"time": 155882, "pitch": 38, "duration": 120, "velocity": 120}, {"time": 156002, "pitch": 35, "duration": 120, "velocity": 125}, {"time": 156002, "pitch": 36, "duration": 60, "velocity": 127}, {"time": 156002, "pitch": 42, "duration": 65, "velocity": 127}, {"time": 156242, "pitch": 36, "duration": 60, "velocity": 127}, {"time": 156242, "pitch": 42, "duration": 67, "velocity": 127}, {"time": 156482, "pitch": 38, "duration": 120, "velocity": 120}, {"time": 156482, "pitch": 40, "duration": 91, "velocity": 127}, {"time": 156482, "pitch": 46, "duration": 91, "velocity": 127}, {"time": 156722, "pitch": 42, "duration": 72, "velocity": 127}, {"time": 156842, "pitch": 35, "duration": 120, "velocity": 125}, {"time": 156842, "pitch": 36, "duration": 60, "velocity": 127}, {"time": 156962, "pitch": 42, "duration": 67, "velocity": 127}, {"time": 157202, "pitch": 35, "duration": 120, "velocity": 125}, {"time": 157202, "pitch": 36, "duration": 60, "velocity": 127}, {"time": 157202, "pitch": 42, "duration": 38, "velocity": 127}, {"time": 157322, "pitch": 36, "duration": 60, "velocity": 127}, {"time": 157322, "pitch": 42, "duration": 60, "velocity": 95}, {"time": 157442, "pitch": 38, "duration": 120, "velocity": 120}, {"time": 157442, "pitch": 40, "duration": 75, "velocity": 127}, {"time": 157442, "pitch": 46, "duration": 101, "velocity": 127}, {"time": 157682, "pitch": 35, "duration": 120, "velocity": 125}, {"time": 157682, "pitch": 42, "duration": 62, "velocity": 127}, {"time": 157802, "pitch": 35, "duration": 120, "velocity": 125}, {"time": 157922, "pitch": 35, "duration": 120, "velocity": 125}, {"time": 157922, "pitch": 36, "duration": 60, "velocity": 127}, {"time": 157922, "pitch": 42, "duration": 65, "velocity": 127}, {"time": 157922, "pitch": 49, "duration": 120, "velocity": 120}, {"time": 157922, "pitch": 57, "duration": 120, "velocity": 120}, {"time": 158162, "pitch": 42, "duration": 62, "velocity": 127}, {"time": 158402, "pitch": 38, "duration": 120, "velocity": 120}, {"time": 158402, "pitch": 40, "duration": 74, "velocity": 127}, {"time": 158402, "pitch": 46, "duration": 50, "velocity": 112}, {"time": 158642, "pitch": 42, "duration": 46, "velocity": 127}, {"time": 158762, "pitch": 35, "duration": 120, "velocity": 125}, {"time": 158882, "pitch": 42, "duration": 51, "velocity": 127}, {"time": 159122, "pitch": 35, "duration": 120, "velocity": 125}, {"time": 159122, "pitch": 36, "duration": 60, "velocity": 127}, {"time": 159122, "pitch": 42, "duration": 68, "velocity": 127}, {"time": 159362, "pitch": 38, "duration": 120, "velocity": 120}, {"time": 159362, "pitch": 40, "duration": 67, "velocity": 127}, {"time": 159362, "pitch": 46, "duration": 75, "velocity": 127}, {"time": 159602, "pitch": 35, "duration": 120, "velocity": 125}, {"time": 159602, "pitch": 42, "duration": 58, "velocity": 127}, {"time": 159722, "pitch": 38, "duration": 120, "velocity": 120}, {"time": 159842, "pitch": 35, "duration": 120, "velocity": 125}, {"time": 159842, "pitch": 36, "duration": 60, "velocity": 127}, {"time": 159842, "pitch": 44, "duration": 74, "velocity": 127}, {"time": 160082, "pitch": 36, "duration": 60, "velocity": 127}, {"time": 160082, "pitch": 42, "duration": 72, "velocity": 127}, {"time": 160322, "pitch": 38, "duration": 120, "velocity": 120}, {"time": 160322, "pitch": 40, "duration": 84, "velocity": 127}, {"time": 160322, "pitch": 46, "duration": 81, "velocity": 127}, {"time": 160562, "pitch": 42, "duration": 62, "velocity": 127}, {"time": 160682, "pitch": 35, "duration": 120, "velocity": 125}, {"time": 160802, "pitch": 36, "duration": 60, "velocity": 127}, {"time": 160802, "pitch": 42, "duration": 72, "velocity": 127}, {"time": 161042, "pitch": 35, "duration": 120, "velocity": 125}, {"time": 161042, "pitch": 36, "duration": 60, "velocity": 127}, {"time": 161042, "pitch": 42, "duration": 60, "velocity": 127}, {"time": 161282, "pitch": 38, "duration": 120, "velocity": 120}, {"time": 161282, "pitch": 40, "duration": 60, "velocity": 127}, {"time": 161282, "pitch": 46, "duration": 60, "velocity": 127}, {"time": 161522, "pitch": 42, "duration": 55, "velocity": 127}, {"time": 161762, "pitch": 35, "duration": 120, "velocity": 125}, {"time": 161762, "pitch": 36, "duration": 60, "velocity": 127}, {"time": 161762, "pitch": 44, "duration": 17, "velocity": 127}, {"time": 162002, "pitch": 36, "duration": 60, "velocity": 127}, {"time": 162002, "pitch": 42, "duration": 63, "velocity": 112}, {"time": 162242, "pitch": 38, "duration": 120, "velocity": 120}, {"time": 162242, "pitch": 40, "duration": 77, "velocity": 127}, {"time": 162242, "pitch": 46, "duration": 72, "velocity": 127}, {"time": 162482, "pitch": 42, "duration": 67, "velocity": 127}, {"time": 162602, "pitch": 35, "duration": 120, "velocity": 125}, {"time": 162722, "pitch": 36, "duration": 60, "velocity": 127}, {"time": 162722, "pitch": 42, "duration": 62, "velocity": 127}, {"time": 162962, "pitch": 35, "duration": 120, "velocity": 125}, {"time": 162962, "pitch": 36, "duration": 60, "velocity": 127}, {"time": 162962, "pitch": 42, "duration": 65, "velocity": 112}, {"time": 163202, "pitch": 38, "duration": 120, "velocity": 120}, {"time": 163202, "pitch": 40, "duration": 64, "velocity": 127}, {"time": 163202, "pitch": 46, "duration": 75, "velocity": 127}, {"time": 163442, "pitch": 35, "duration": 120, "velocity": 125}, {"time": 163442, "pitch": 42, "duration": 72, "velocity": 127}, {"time": 163562, "pitch": 38, "duration": 120, "velocity": 120}, {"time": 163682, "pitch": 35, "duration": 120, "velocity": 125}, {"time": 163682, "pitch": 36, "duration": 60, "velocity": 127}, {"time": 163682, "pitch": 42, "duration": 65, "velocity": 127}, {"time": 163922, "pitch": 36, "duration": 60, "velocity": 127}, {"time": 163922, "pitch": 42, "duration": 67, "velocity": 127}, {"time": 164162, "pitch": 38, "duration": 120, "velocity": 120}, {"time": 164162, "pitch": 40, "duration": 91, "velocity": 127}, {"time": 164162, "pitch": 46, "duration": 91, "velocity": 127}, {"time": 164402, "pitch": 42, "duration": 72, "velocity": 127}, {"time": 164522, "pitch": 35, "duration": 120, "velocity": 125}, {"time": 164522, "pitch": 36, "duration": 60, "velocity": 127}, {"time": 164642, "pitch": 42, "duration": 67, "velocity": 127}, {"time": 164882, "pitch": 35, "duration": 120, "velocity": 125}, {"time": 164882, "pitch": 36, "duration": 60, "velocity": 127}, {"time": 164882, "pitch": 42, "duration": 38, "velocity": 127}, {"time": 165002, "pitch": 36, "duration": 60, "velocity": 127}, {"time": 165002, "pitch": 42, "duration": 60, "velocity": 95}, {"time": 165122, "pitch": 38, "duration": 120, "velocity": 120}, {"time": 165122, "pitch": 40, "duration": 75, "velocity": 127}, {"time": 165122, "pitch": 46, "duration": 101, "velocity": 127}, {"time": 165362, "pitch": 35, "duration": 120, "velocity": 125}, {"time": 165362, "pitch": 42, "duration": 62, "velocity": 127}, {"time": 165482, "pitch": 35, "duration": 120, "velocity": 125}, {"time": 165602, "pitch": 35, "duration": 120, "velocity": 125}, {"time": 165602, "pitch": 36, "duration": 60, "velocity": 127}, {"time": 165602, "pitch": 44, "duration": 112, "velocity": 127}, {"time": 165602, "pitch": 49, "duration": 120, "velocity": 120}, {"time": 165602, "pitch": 57, "duration": 120, "velocity": 120}, {"time": 165842, "pitch": 42, "duration": 135, "velocity": 127}, {"time": 166082, "pitch": 38, "duration": 120, "velocity": 120}, {"time": 166082, "pitch": 40, "duration": 117, "velocity": 127}, {"time": 166082, "pitch": 46, "duration": 125, "velocity": 127}, {"time": 166082, "pitch": 53, "duration": 180, "velocity": 102}, {"time": 166322, "pitch": 42, "duration": 101, "velocity": 127}, {"time": 166442, "pitch": 35, "duration": 120, "velocity": 125}, {"time": 166562, "pitch": 36, "duration": 60, "velocity": 127}, {"time": 166562, "pitch": 44, "duration": 89, "velocity": 127}, {"time": 166562, "pitch": 53, "duration": 186, "velocity": 104}, {"time": 166802, "pitch": 35, "duration": 120, "velocity": 125}, {"time": 166802, "pitch": 42, "duration": 89, "velocity": 127}, {"time": 167042, "pitch": 38, "duration": 120, "velocity": 120}, {"time": 167042, "pitch": 40, "duration": 79, "velocity": 127}, {"time": 167042, "pitch": 46, "duration": 98, "velocity": 127}, {"time": 167042, "pitch": 53, "duration": 152, "velocity": 104}, {"time": 167282, "pitch": 35, "duration": 120, "velocity": 125}, {"time": 167282, "pitch": 42, "duration": 82, "velocity": 127}, {"time": 167402, "pitch": 38, "duration": 120, "velocity": 120}, {"time": 167522, "pitch": 35, "duration": 120, "velocity": 125}, {"time": 167522, "pitch": 36, "duration": 60, "velocity": 127}, {"time": 167522, "pitch": 44, "duration": 74, "velocity": 127}, {"time": 167522, "pitch": 53, "duration": 172, "velocity": 104}, {"time": 167762, "pitch": 36, "duration": 60, "velocity": 127}, {"time": 167762, "pitch": 42, "duration": 72, "velocity": 127}, {"time": 168002, "pitch": 38, "duration": 120, "velocity": 120}, {"time": 168002, "pitch": 40, "duration": 84, "velocity": 127}, {"time": 168002, "pitch": 46, "duration": 81, "velocity": 127}, {"time": 168002, "pitch": 53, "duration": 168, "velocity": 102}, {"time": 168242, "pitch": 42, "duration": 62, "velocity": 127}, {"time": 168362, "pitch": 35, "duration": 120, "velocity": 125}, {"time": 168482, "pitch": 36, "duration": 60, "velocity": 127}, {"time": 168482, "pitch": 42, "duration": 72, "velocity": 127}, {"time": 168482, "pitch": 53, "duration": 162, "velocity": 100}, {"time": 168722, "pitch": 35, "duration": 120, "velocity": 125}, {"time": 168722, "pitch": 36, "duration": 60, "velocity": 127}, {"time": 168722, "pitch": 42, "duration": 60, "velocity": 127}, {"time": 168962, "pitch": 38, "duration": 120, "velocity": 120}, {"time": 168962, "pitch": 40, "duration": 60, "velocity": 127}, {"time": 168962, "pitch": 46, "duration": 60, "velocity": 127}, {"time": 168962, "pitch": 53, "duration": 142, "velocity": 100}, {"time": 169202, "pitch": 42, "duration": 55, "velocity": 127}, {"time": 169442, "pitch": 35, "duration": 120, "velocity": 125}, {"time": 169442, "pitch": 36, "duration": 60, "velocity": 127}, {"time": 169442, "pitch": 44, "duration": 17, "velocity": 127}, {"time": 169442, "pitch": 53, "duration": 168, "velocity": 102}, {"time": 169682, "pitch": 36, "duration": 60, "velocity": 127}, {"time": 169682, "pitch": 42, "duration": 63, "velocity": 112}, {"time": 169922, "pitch": 38, "duration": 120, "velocity": 120}, {"time": 169922, "pitch": 40, "duration": 77, "velocity": 127}, {"time": 169922, "pitch": 46, "duration": 72, "velocity": 127}, {"time": 169922, "pitch": 53, "duration": 145, "velocity": 98}, {"time": 170162, "pitch": 42, "duration": 67, "velocity": 127}, {"time": 170282, "pitch": 35, "duration": 120, "velocity": 125}, {"time": 170402, "pitch": 36, "duration": 60, "velocity": 127}, {"time": 170402, "pitch": 42, "duration": 62, "velocity": 127}, {"time": 170402, "pitch": 53, "duration": 152, "velocity": 102}, {"time": 170642, "pitch": 35, "duration": 120, "velocity": 125}, {"time": 170642, "pitch": 36, "duration": 60, "velocity": 127}, {"time": 170642, "pitch": 42, "duration": 65, "velocity": 112}, {"time": 170882, "pitch": 38, "duration": 120, "velocity": 120}, {"time": 170882, "pitch": 40, "duration": 64, "velocity": 127}, {"time": 170882, "pitch": 46, "duration": 75, "velocity": 127}, {"time": 170882, "pitch": 53, "duration": 107, "velocity": 108}, {"time": 171122, "pitch": 35, "duration": 120, "velocity": 125}, {"time": 171122, "pitch": 42, "duration": 72, "velocity": 127}, {"time": 171242, "pitch": 38, "duration": 120, "velocity": 120}, {"time": 171362, "pitch": 35, "duration": 120, "velocity": 125}, {"time": 171362, "pitch": 36, "duration": 60, "velocity": 127}, {"time": 171362, "pitch": 42, "duration": 65, "velocity": 127}, {"time": 171362, "pitch": 53, "duration": 92, "velocity": 108}, {"time": 171602, "pitch": 36, "duration": 60, "velocity": 127}, {"time": 171602, "pitch": 42, "duration": 67, "velocity": 127}, {"time": 171842, "pitch": 38, "duration": 120, "velocity": 120}, {"time": 171842, "pitch": 40, "duration": 91, "velocity": 127}, {"time": 171842, "pitch": 46, "duration": 91, "velocity": 127}, {"time": 171842, "pitch": 53, "duration": 101, "velocity": 104}, {"time": 172082, "pitch": 42, "duration": 72, "velocity": 127}, {"time": 172202, "pitch": 35, "duration": 120, "velocity": 125}, {"time": 172202, "pitch": 36, "duration": 60, "velocity": 127}, {"time": 172322, "pitch": 42, "duration": 67, "velocity": 127}, {"time": 172322, "pitch": 53, "duration": 94, "velocity": 100}, {"time": 172562, "pitch": 35, "duration": 120, "velocity": 125}, {"time": 172562, "pitch": 36, "duration": 60, "velocity": 127}, {"time": 172562, "pitch": 42, "duration": 38, "velocity": 127}, {"time": 172682, "pitch": 36, "duration": 60, "velocity": 127}, {"time": 172682, "pitch": 42, "duration": 60, "velocity": 95}, {"time": 172802, "pitch": 38, "duration": 120, "velocity": 120}, {"time": 172802, "pitch": 40, "duration": 75, "velocity": 127}, {"time": 172802, "pitch": 46, "duration": 101, "velocity": 127}, {"time": 172802, "pitch": 53, "duration": 114, "velocity": 104}, {"time": 173042, "pitch": 35, "duration": 120, "velocity": 125}, {"time": 173042, "pitch": 42, "duration": 62, "velocity": 127}, {"time": 173162, "pitch": 35, "duration": 120, "velocity": 125}, {"time": 173282, "pitch": 35, "duration": 120, "velocity": 125}, {"time": 173282, "pitch": 36, "duration": 60, "velocity": 127}, {"time": 173282, "pitch": 42, "duration": 65, "velocity": 127}, {"time": 173282, "pitch": 49, "duration": 120, "velocity": 120}, {"time": 173282, "pitch": 57, "duration": 120, "velocity": 120}, {"time": 173522, "pitch": 42, "duration": 62, "velocity": 127}, {"time": 173762, "pitch": 38, "duration": 120, "velocity": 120}, {"time": 173762, "pitch": 40, "duration": 74, "velocity": 127}, {"time": 173762, "pitch": 46, "duration": 50, "velocity": 112}, {"time": 173762, "pitch": 53, "duration": 110, "velocity": 100}, {"time": 174002, "pitch": 42, "duration": 46, "velocity": 127}, {"time": 174122, "pitch": 35, "duration": 120, "velocity": 125}, {"time": 174242, "pitch": 42, "duration": 51, "velocity": 127}, {"time": 174242, "pitch": 53, "duration": 106, "velocity": 102}, {"time": 174482, "pitch": 35, "duration": 120, "velocity": 125}, {"time": 174482, "pitch": 36, "duration": 60, "velocity": 127}, {"time": 174482, "pitch": 42, "duration": 68, "velocity": 127}, {"time": 174722, "pitch": 38, "duration": 120, "velocity": 120}, {"time": 174722, "pitch": 40, "duration": 67, "velocity": 127}, {"time": 174722, "pitch": 46, "duration": 75, "velocity": 127}, {"time": 174722, "pitch": 53, "duration": 101, "velocity": 102}, {"time": 174962, "pitch": 35, "duration": 120, "velocity": 125}, {"time": 174962, "pitch": 42, "duration": 58, "velocity": 127}, {"time": 175082, "pitch": 38, "duration": 120, "velocity": 120}, {"time": 175202, "pitch": 35, "duration": 120, "velocity": 125}, {"time": 175202, "pitch": 36, "duration": 60, "velocity": 127}, {"time": 175202, "pitch": 44, "duration": 74, "velocity": 127}, {"time": 175202, "pitch": 53, "duration": 86, "velocity": 102}, {"time": 175442, "pitch": 36, "duration": 60, "velocity": 127}, {"time": 175442, "pitch": 42, "duration": 72, "velocity": 127}, {"time": 175682, "pitch": 38, "duration": 120, "velocity": 120}, {"time": 175682, "pitch": 40, "duration": 84, "velocity": 127}, {"time": 175682, "pitch": 46, "duration": 81, "velocity": 127}, {"time": 175682, "pitch": 53, "duration": 87, "velocity": 100}, {"time": 175922, "pitch": 42, "duration": 62, "velocity": 127}, {"time": 176042, "pitch": 35, "duration": 120, "velocity": 125}, {"time": 176162, "pitch": 36, "duration": 60, "velocity": 127}, {"time": 176162, "pitch": 42, "duration": 72, "velocity": 127}, {"time": 176162, "pitch": 53, "duration": 80, "velocity": 94}, {"time": 176402, "pitch": 35, "duration": 120, "velocity": 125}, {"time": 176402, "pitch": 36, "duration": 60, "velocity": 127}, {"time": 176402, "pitch": 42, "duration": 60, "velocity": 127}, {"time": 176642, "pitch": 38, "duration": 120, "velocity": 120}, {"time": 176642, "pitch": 40, "duration": 60, "velocity": 127}, {"time": 176642, "pitch": 46, "duration": 60, "velocity": 127}, {"time": 176642, "pitch": 53, "duration": 81, "velocity": 96}, {"time": 176882, "pitch": 42, "duration": 55, "velocity": 127}, {"time": 177122, "pitch": 35, "duration": 120, "velocity": 125}, {"time": 177122, "pitch": 36, "duration": 60, "velocity": 127}, {"time": 177122, "pitch": 44, "duration": 17, "velocity": 127}, {"time": 177122, "pitch": 49, "duration": 120, "velocity": 98}, {"time": 177362, "pitch": 36, "duration": 60, "velocity": 127}, {"time": 177362, "pitch": 42, "duration": 63, "velocity": 112}, {"time": 177602, "pitch": 38, "duration": 120, "velocity": 120}, {"time": 177602, "pitch": 40, "duration": 77, "velocity": 127}, {"time": 177602, "pitch": 46, "duration": 72, "velocity": 127}, {"time": 177602, "pitch": 53, "duration": 87, "velocity": 94}, {"time": 177842, "pitch": 42, "duration": 67, "velocity": 127}, {"time": 177962, "pitch": 35, "duration": 120, "velocity": 125}, {"time": 178082, "pitch": 36, "duration": 60, "velocity": 127}, {"time": 178082, "pitch": 42, "duration": 62, "velocity": 127}, {"time": 178082, "pitch": 53, "duration": 115, "velocity": 98}, {"time": 178322, "pitch": 35, "duration": 120, "velocity": 125}, {"time": 178322, "pitch": 36, "duration": 60, "velocity": 127}, {"time": 178322, "pitch": 42, "duration": 65, "velocity": 112}, {"time": 178562, "pitch": 38, "duration": 120, "velocity": 120}, {"time": 178562, "pitch": 40, "duration": 64, "velocity": 127}, {"time": 178562, "pitch": 46, "duration": 75, "velocity": 127}, {"time": 178562, "pitch": 53, "duration": 110, "velocity": 100}, {"time": 178802, "pitch": 35, "duration": 120, "velocity": 125}, {"time": 178802, "pitch": 42, "duration": 72, "velocity": 127}, {"time": 178922, "pitch": 38, "duration": 120, "velocity": 120}, {"time": 179042, "pitch": 35, "duration": 120, "velocity": 125}, {"time": 179042, "pitch": 36, "duration": 60, "velocity": 127}, {"time": 179042, "pitch": 42, "duration": 65, "velocity": 127}, {"time": 179042, "pitch": 57, "duration": 103, "velocity": 100}, {"time": 179282, "pitch": 36, "duration": 60, "velocity": 127}, {"time": 179282, "pitch": 42, "duration": 67, "velocity": 127}, {"time": 179522, "pitch": 38, "duration": 120, "velocity": 120}, {"time": 179522, "pitch": 40, "duration": 91, "velocity": 127}, {"time": 179522, "pitch": 46, "duration": 91, "velocity": 127}, {"time": 179522, "pitch": 53, "duration": 102, "velocity": 104}, {"time": 179762, "pitch": 42, "duration": 72, "velocity": 127}, {"time": 179882, "pitch": 35, "duration": 120, "velocity": 125}, {"time": 179882, "pitch": 36, "duration": 60, "velocity": 127}, {"time": 180002, "pitch": 42, "duration": 67, "velocity": 127}, {"time": 180002, "pitch": 49, "duration": 134, "velocity": 96}, {"time": 180242, "pitch": 35, "duration": 120, "velocity": 125}, {"time": 180242, "pitch": 36, "duration": 60, "velocity": 127}, {"time": 180242, "pitch": 42, "duration": 38, "velocity": 127}, {"time": 180362, "pitch": 36, "duration": 60, "velocity": 127}, {"time": 180362, "pitch": 42, "duration": 60, "velocity": 95}, {"time": 180482, "pitch": 38, "duration": 120, "velocity": 120}, {"time": 180482, "pitch": 40, "duration": 75, "velocity": 127}, {"time": 180482, "pitch": 46, "duration": 101, "velocity": 127}, {"time": 180482, "pitch": 57, "duration": 137, "velocity": 92}, {"time": 180722, "pitch": 35, "duration": 120, "velocity": 125}, {"time": 180722, "pitch": 42, "duration": 62, "velocity": 127}, {"time": 180722, "pitch": 49, "duration": 120, "velocity": 96}, {"time": 180842, "pitch": 35, "duration": 120, "velocity": 125}, {"time": 180962, "pitch": 35, "duration": 120, "velocity": 125}, {"time": 180962, "pitch": 36, "duration": 60, "velocity": 127}, {"time": 180962, "pitch": 44, "duration": 112, "velocity": 127}, {"time": 180962, "pitch": 49, "duration": 120, "velocity": 120}, {"time": 180962, "pitch": 57, "duration": 120, "velocity": 120}, {"time": 181202, "pitch": 42, "duration": 135, "velocity": 127}, {"time": 181442, "pitch": 38, "duration": 120, "velocity": 120}, {"time": 181442, "pitch": 40, "duration": 117, "velocity": 127}, {"time": 181442, "pitch": 46, "duration": 125, "velocity": 127}, {"time": 181442, "pitch": 53, "duration": 144, "velocity": 88}, {"time": 181682, "pitch": 42, "duration": 101, "velocity": 127}, {"time": 181802, "pitch": 35, "duration": 120, "velocity": 125}, {"time": 181922, "pitch": 36, "duration": 60, "velocity": 127}, {"time": 181922, "pitch": 44, "duration": 89, "velocity": 127}, {"time": 181922, "pitch": 53, "duration": 132, "velocity": 92}, {"time": 182162, "pitch": 35, "duration": 120, "velocity": 125}, {"time": 182162, "pitch": 42, "duration": 89, "velocity": 127}, {"time": 182402, "pitch": 38, "duration": 120, "velocity": 120}, {"time": 182402, "pitch": 40, "duration": 79, "velocity": 127}, {"time": 182402, "pitch": 46, "duration": 98, "velocity": 127}, {"time": 182402, "pitch": 53, "duration": 97, "velocity": 92}, {"time": 182642, "pitch": 35, "duration": 120, "velocity": 125}, {"time": 182642, "pitch": 42, "duration": 82, "velocity": 127}, {"time": 182762, "pitch": 38, "duration": 120, "velocity": 120}, {"time": 182882, "pitch": 35, "duration": 120, "velocity": 125}, {"time": 182882, "pitch": 36, "duration": 60, "velocity": 127}, {"time": 182882, "pitch": 44, "duration": 74, "velocity": 127}, {"time": 182882, "pitch": 53, "duration": 114, "velocity": 104}, {"time": 183122, "pitch": 36, "duration": 60, "velocity": 127}, {"time": 183122, "pitch": 42, "duration": 72, "velocity": 127}, {"time": 183362, "pitch": 38, "duration": 120, "velocity": 120}, {"time": 183362, "pitch": 40, "duration": 84, "velocity": 127}, {"time": 183362, "pitch": 46, "duration": 81, "velocity": 127}, {"time": 183362, "pitch": 53, "duration": 113, "velocity": 96}, {"time": 183602, "pitch": 42, "duration": 62, "velocity": 127}, {"time": 183722, "pitch": 35, "duration": 120, "velocity": 125}, {"time": 183842, "pitch": 36, "duration": 60, "velocity": 127}, {"time": 183842, "pitch": 42, "duration": 72, "velocity": 127}, {"time": 183842, "pitch": 53, "duration": 110, "velocity": 96}, {"time": 184082, "pitch": 35, "duration": 120, "velocity": 125}, {"time": 184082, "pitch": 36, "duration": 60, "velocity": 127}, {"time": 184082, "pitch": 42, "duration": 60, "velocity": 127}, {"time": 184322, "pitch": 38, "duration": 120, "velocity": 120}, {"time": 184322, "pitch": 40, "duration": 60, "velocity": 127}, {"time": 184322, "pitch": 46, "duration": 60, "velocity": 127}, {"time": 184322, "pitch": 53, "duration": 96, "velocity": 94}, {"time": 184562, "pitch": 42, "duration": 55, "velocity": 127}, {"time": 184802, "pitch": 35, "duration": 120, "velocity": 125}, {"time": 184802, "pitch": 36, "duration": 60, "velocity": 127}, {"time": 184802, "pitch": 44, "duration": 17, "velocity": 127}, {"time": 184802, "pitch": 53, "duration": 80, "velocity": 94}, {"time": 185042, "pitch": 36, "duration": 60, "velocity": 127}, {"time": 185042, "pitch": 42, "duration": 63, "velocity": 112}, {"time": 185282, "pitch": 38, "duration": 120, "velocity": 120}, {"time": 185282, "pitch": 40, "duration": 77, "velocity": 127}, {"time": 185282, "pitch": 46, "duration": 72, "velocity": 127}, {"time": 185282, "pitch": 53, "duration": 86, "velocity": 94}, {"time": 185522, "pitch": 42, "duration": 67, "velocity": 127}, {"time": 185642, "pitch": 35, "duration": 120, "velocity": 125}, {"time": 185762, "pitch": 36, "duration": 60, "velocity": 127}, {"time": 185762, "pitch": 42, "duration": 62, "velocity": 127}, {"time": 185762, "pitch": 53, "duration": 79, "velocity": 94}, {"time": 186002, "pitch": 35, "duration": 120, "velocity": 125}, {"time": 186002, "pitch": 36, "duration": 60, "velocity": 127}, {"time": 186002, "pitch": 42, "duration": 65, "velocity": 112}, {"time": 186242, "pitch": 38, "duration": 120, "velocity": 120}, {"time": 186242, "pitch": 40, "duration": 64, "velocity": 127}, {"time": 186242, "pitch": 46, "duration": 75, "velocity": 127}, {"time": 186242, "pitch": 53, "duration": 79, "velocity": 92}, {"time": 186482, "pitch": 35, "duration": 120, "velocity": 125}, {"time": 186482, "pitch": 42, "duration": 72, "velocity": 127}, {"time": 186602, "pitch": 38, "duration": 120, "velocity": 120}, {"time": 186722, "pitch": 35, "duration": 120, "velocity": 125}, {"time": 186722, "pitch": 36, "duration": 60, "velocity": 127}, {"time": 186722, "pitch": 42, "duration": 65, "velocity": 127}, {"time": 186722, "pitch": 53, "duration": 85, "velocity": 96}, {"time": 186962, "pitch": 36, "duration": 60, "velocity": 127}, {"time": 186962, "pitch": 42, "duration": 67, "velocity": 127}, {"time": 187202, "pitch": 38, "duration": 120, "velocity": 120}, {"time": 187202, "pitch": 40, "duration": 91, "velocity": 127}, {"time": 187202, "pitch": 46, "duration": 91, "velocity": 127}, {"time": 187202, "pitch": 53, "duration": 79, "velocity": 96}, {"time": 187442, "pitch": 42, "duration": 72, "velocity": 127}, {"time": 187562, "pitch": 35, "duration": 120, "velocity": 125}, {"time": 187562, "pitch": 36, "duration": 60, "velocity": 127}, {"time": 187682, "pitch": 42, "duration": 67, "velocity": 127}, {"time": 187682, "pitch": 53, "duration": 86, "velocity": 94}, {"time": 187922, "pitch": 35, "duration": 120, "velocity": 125}, {"time": 187922, "pitch": 36, "duration": 60, "velocity": 127}, {"time": 187922, "pitch": 42, "duration": 38, "velocity": 127}, {"time": 188042, "pitch": 36, "duration": 60, "velocity": 127}, {"time": 188042, "pitch": 42, "duration": 60, "velocity": 95}, {"time": 188162, "pitch": 38, "duration": 120, "velocity": 120}, {"time": 188162, "pitch": 40, "duration": 75, "velocity": 127}, {"time": 188162, "pitch": 46, "duration": 101, "velocity": 127}, {"time": 188162, "pitch": 53, "duration": 59, "velocity": 100}, {"time": 188402, "pitch": 35, "duration": 120, "velocity": 125}, {"time": 188402, "pitch": 42, "duration": 62, "velocity": 127}, {"time": 188522, "pitch": 35, "duration": 120, "velocity": 125}, {"time": 188642, "pitch": 35, "duration": 120, "velocity": 125}, {"time": 188642, "pitch": 36, "duration": 60, "velocity": 127}, {"time": 188642, "pitch": 42, "duration": 65, "velocity": 127}, {"time": 188642, "pitch": 49, "duration": 120, "velocity": 120}, {"time": 188642, "pitch": 57, "duration": 120, "velocity": 120}, {"time": 188882, "pitch": 42, "duration": 62, "velocity": 127}, {"time": 189122, "pitch": 38, "duration": 120, "velocity": 120}, {"time": 189122, "pitch": 40, "duration": 74, "velocity": 127}, {"time": 189122, "pitch": 46, "duration": 50, "velocity": 112}, {"time": 189122, "pitch": 53, "duration": 62, "velocity": 94}, {"time": 189362, "pitch": 42, "duration": 46, "velocity": 127}, {"time": 189482, "pitch": 35, "duration": 120, "velocity": 125}, {"time": 189602, "pitch": 42, "duration": 51, "velocity": 127}, {"time": 189602, "pitch": 53, "duration": 73, "velocity": 92}, {"time": 189842, "pitch": 35, "duration": 120, "velocity": 125}, {"time": 189842, "pitch": 36, "duration": 60, "velocity": 127}, {"time": 189842, "pitch": 42, "duration": 68, "velocity": 127}, {"time": 190082, "pitch": 38, "duration": 120, "velocity": 120}, {"time": 190082, "pitch": 40, "duration": 67, "velocity": 127}, {"time": 190082, "pitch": 46, "duration": 75, "velocity": 127}, {"time": 190082, "pitch": 53, "duration": 80, "velocity": 94}, {"time": 190322, "pitch": 35, "duration": 120, "velocity": 125}, {"time": 190322, "pitch": 42, "duration": 58, "velocity": 127}, {"time": 190442, "pitch": 38, "duration": 120, "velocity": 120}, {"time": 190562, "pitch": 35, "duration": 120, "velocity": 125}, {"time": 190562, "pitch": 36, "duration": 60, "velocity": 127}, {"time": 190562, "pitch": 44, "duration": 74, "velocity": 127}, {"time": 190562, "pitch": 53, "duration": 87, "velocity": 96}, {"time": 190802, "pitch": 36, "duration": 60, "velocity": 127}, {"time": 190802, "pitch": 42, "duration": 72, "velocity": 127}, {"time": 191042, "pitch": 38, "duration": 120, "velocity": 120}, {"time": 191042, "pitch": 40, "duration": 84, "velocity": 127}, {"time": 191042, "pitch": 46, "duration": 81, "velocity": 127}, {"time": 191042, "pitch": 53, "duration": 82, "velocity": 96}, {"time": 191282, "pitch": 42, "duration": 62, "velocity": 127}, {"time": 191402, "pitch": 35, "duration": 120, "velocity": 125}, {"time": 191522, "pitch": 36, "duration": 60, "velocity": 127}, {"time": 191522, "pitch": 42, "duration": 72, "velocity": 127}, {"time": 191522, "pitch": 53, "duration": 63, "velocity": 96}, {"time": 191762, "pitch": 35, "duration": 120, "velocity": 125}, {"time": 191762, "pitch": 36, "duration": 60, "velocity": 127}, {"time": 191762, "pitch": 42, "duration": 60, "velocity": 127}, {"time": 192002, "pitch": 38, "duration": 120, "velocity": 120}, {"time": 192002, "pitch": 40, "duration": 60, "velocity": 127}, {"time": 192002, "pitch": 46, "duration": 60, "velocity": 127}, {"time": 192002, "pitch": 53, "duration": 79, "velocity": 98}, {"time": 192242, "pitch": 42, "duration": 55, "velocity": 127}, {"time": 192482, "pitch": 35, "duration": 120, "velocity": 125}, {"time": 192482, "pitch": 36, "duration": 60, "velocity": 127}, {"time": 192482, "pitch": 44, "duration": 17, "velocity": 127}, {"time": 192482, "pitch": 53, "duration": 65, "velocity": 90}, {"time": 192722, "pitch": 36, "duration": 60, "velocity": 127}, {"time": 192722, "pitch": 42, "duration": 63, "velocity": 112}, {"time": 192962, "pitch": 38, "duration": 120, "velocity": 120}, {"time": 192962, "pitch": 40, "duration": 77, "velocity": 127}, {"time": 192962, "pitch": 46, "duration": 72, "velocity": 127}, {"time": 192962, "pitch": 53, "duration": 59, "velocity": 86}, {"time": 193202, "pitch": 42, "duration": 67, "velocity": 127}, {"time": 193322, "pitch": 35, "duration": 120, "velocity": 125}, {"time": 193442, "pitch": 36, "duration": 60, "velocity": 127}, {"time": 193442, "pitch": 42, "duration": 62, "velocity": 127}, {"time": 193442, "pitch": 53, "duration": 69, "velocity": 88}, {"time": 193682, "pitch": 35, "duration": 120, "velocity": 125}, {"time": 193682, "pitch": 36, "duration": 60, "velocity": 127}, {"time": 193682, "pitch": 42, "duration": 65, "velocity": 112}, {"time": 193922, "pitch": 38, "duration": 120, "velocity": 120}, {"time": 193922, "pitch": 40, "duration": 64, "velocity": 127}, {"time": 193922, "pitch": 46, "duration": 75, "velocity": 127}, {"time": 193922, "pitch": 53, "duration": 57, "velocity": 88}, {"time": 194162, "pitch": 35, "duration": 120, "velocity": 125}, {"time": 194162, "pitch": 42, "duration": 72, "velocity": 127}, {"time": 194282, "pitch": 38, "duration": 120, "velocity": 120}, {"time": 194402, "pitch": 35, "duration": 120, "velocity": 125}, {"time": 194402, "pitch": 36, "duration": 60, "velocity": 127}, {"time": 194402, "pitch": 42, "duration": 65, "velocity": 127}, {"time": 194402, "pitch": 53, "duration": 63, "velocity": 88}, {"time": 194642, "pitch": 36, "duration": 60, "velocity": 127}, {"time": 194642, "pitch": 42, "duration": 67, "velocity": 127}, {"time": 194882, "pitch": 38, "duration": 120, "velocity": 120}, {"time": 194882, "pitch": 40, "duration": 91, "velocity": 127}, {"time": 194882, "pitch": 46, "duration": 91, "velocity": 127}, {"time": 194882, "pitch": 53, "duration": 67, "velocity": 82}, {"time": 195122, "pitch": 42, "duration": 72, "velocity": 127}, {"time": 195242, "pitch": 35, "duration": 120, "velocity": 125}, {"time": 195242, "pitch": 36, "duration": 60, "velocity": 127}, {"time": 195362, "pitch": 42, "duration": 67, "velocity": 127}, {"time": 195362, "pitch": 53, "duration": 76, "velocity": 90}, {"time": 195602, "pitch": 35, "duration": 120, "velocity": 125}, {"time": 195602, "pitch": 36, "duration": 60, "velocity": 127}, {"time": 195602, "pitch": 42, "duration": 38, "velocity": 127}, {"time": 195722, "pitch": 36, "duration": 60, "velocity": 127}, {"time": 195722, "pitch": 42, "duration": 60, "velocity": 95}, {"time": 195842, "pitch": 38, "duration": 120, "velocity": 120}, {"time": 195842, "pitch": 40, "duration": 75, "velocity": 127}, {"time": 195842, "pitch": 46, "duration": 101, "velocity": 127}, {"time": 195842, "pitch": 53, "duration": 62, "velocity": 94}, {"time": 196082, "pitch": 35, "duration": 120, "velocity": 125}, {"time": 196082, "pitch": 42, "duration": 62, "velocity": 127}, {"time": 196202, "pitch": 35, "duration": 120, "velocity": 125}, {"time": 196322, "pitch": 35, "duration": 120, "velocity": 125}, {"time": 196322, "pitch": 36, "duration": 60, "velocity": 127}, {"time": 196322, "pitch": 44, "duration": 112, "velocity": 127}, {"time": 196322, "pitch": 49, "duration": 120, "velocity": 120}, {"time": 196322, "pitch": 57, "duration": 120, "velocity": 120}, {"time": 196562, "pitch": 42, "duration": 135, "velocity": 127}, {"time": 196802, "pitch": 38, "duration": 120, "velocity": 120}, {"time": 196802, "pitch": 40, "duration": 117, "velocity": 127}, {"time": 196802, "pitch": 46, "duration": 125, "velocity": 127}, {"time": 197042, "pitch": 42, "duration": 101, "velocity": 127}, {"time": 197162, "pitch": 35, "duration": 120, "velocity": 125}, {"time": 197282, "pitch": 36, "duration": 60, "velocity": 127}, {"time": 197282, "pitch": 44, "duration": 89, "velocity": 127}, {"time": 197522, "pitch": 35, "duration": 120, "velocity": 125}, {"time": 197522, "pitch": 42, "duration": 89, "velocity": 127}, {"time": 197762, "pitch": 38, "duration": 120, "velocity": 120}, {"time": 197762, "pitch": 40, "duration": 79, "velocity": 127}, {"time": 197762, "pitch": 46, "duration": 98, "velocity": 127}, {"time": 198002, "pitch": 35, "duration": 120, "velocity": 125}, {"time": 198002, "pitch": 42, "duration": 82, "velocity": 127}, {"time": 198122, "pitch": 38, "duration": 120, "velocity": 120}, {"time": 198242, "pitch": 35, "duration": 120, "velocity": 125}, {"time": 198242, "pitch": 36, "duration": 60, "velocity": 127}, {"time": 198242, "pitch": 42, "duration": 65, "velocity": 127}, {"time": 198482, "pitch": 36, "duration": 60, "velocity": 127}, {"time": 198482, "pitch": 42, "duration": 67, "velocity": 127}, {"time": 198722, "pitch": 38, "duration": 120, "velocity": 120}, {"time": 198722, "pitch": 40, "duration": 91, "velocity": 127}, {"time": 198722, "pitch": 46, "duration": 91, "velocity": 127}, {"time": 198962, "pitch": 42, "duration": 72, "velocity": 127}, {"time": 199082, "pitch": 35, "duration": 120, "velocity": 125}, {"time": 199082, "pitch": 36, "duration": 60, "velocity": 127}, {"time": 199202, "pitch": 42, "duration": 67, "velocity": 127}, {"time": 199442, "pitch": 35, "duration": 120, "velocity": 125}, {"time": 199442, "pitch": 36, "duration": 60, "velocity": 127}, {"time": 199442, "pitch": 42, "duration": 38, "velocity": 127}, {"time": 199562, "pitch": 36, "duration": 60, "velocity": 127}, {"time": 199562, "pitch": 42, "duration": 60, "velocity": 95}, {"time": 199682, "pitch": 38, "duration": 120, "velocity": 120}, {"time": 199682, "pitch": 40, "duration": 75, "velocity": 127}, {"time": 199682, "pitch": 46, "duration": 101, "velocity": 127}, {"time": 199922, "pitch": 35, "duration": 120, "velocity": 125}, {"time": 199922, "pitch": 42, "duration": 62, "velocity": 127}, {"time": 200042, "pitch": 35, "duration": 120, "velocity": 125}, {"time": 200162, "pitch": 35, "duration": 120, "velocity": 125}, {"time": 200162, "pitch": 36, "duration": 60, "velocity": 127}, {"time": 200162, "pitch": 44, "duration": 112, "velocity": 127}, {"time": 200162, "pitch": 49, "duration": 120, "velocity": 120}, {"time": 200162, "pitch": 57, "duration": 120, "velocity": 120}, {"time": 200402, "pitch": 42, "duration": 135, "velocity": 127}, {"time": 200642, "pitch": 38, "duration": 120, "velocity": 120}, {"time": 200642, "pitch": 40, "duration": 117, "velocity": 127}, {"time": 200642, "pitch": 46, "duration": 125, "velocity": 127}, {"time": 200882, "pitch": 42, "duration": 101, "velocity": 127}, {"time": 201002, "pitch": 35, "duration": 120, "velocity": 125}, {"time": 201122, "pitch": 36, "duration": 60, "velocity": 127}, {"time": 201122, "pitch": 44, "duration": 89, "velocity": 127}, {"time": 201362, "pitch": 35, "duration": 120, "velocity": 125}, {"time": 201362, "pitch": 42, "duration": 89, "velocity": 127}, {"time": 201602, "pitch": 38, "duration": 120, "velocity": 120}, {"time": 201602, "pitch": 40, "duration": 79, "velocity": 127}, {"time": 201602, "pitch": 46, "duration": 98, "velocity": 127}, {"time": 201842, "pitch": 35, "duration": 120, "velocity": 125}, {"time": 201842, "pitch": 42, "duration": 82, "velocity": 127}, {"time": 201962, "pitch": 38, "duration": 120, "velocity": 120}, {"time": 202082, "pitch": 35, "duration": 120, "velocity": 125}, {"time": 202082, "pitch": 36, "duration": 60, "velocity": 127}, {"time": 202082, "pitch": 42, "duration": 65, "velocity": 127}, {"time": 202322, "pitch": 36, "duration": 60, "velocity": 127}, {"time": 202322, "pitch": 42, "duration": 67, "velocity": 127}, {"time": 202562, "pitch": 38, "duration": 120, "velocity": 120}, {"time": 202562, "pitch": 40, "duration": 91, "velocity": 127}, {"time": 202562, "pitch": 46, "duration": 91, "velocity": 127}, {"time": 202802, "pitch": 42, "duration": 72, "velocity": 127}, {"time": 202922, "pitch": 35, "duration": 120, "velocity": 125}, {"time": 202922, "pitch": 36, "duration": 60, "velocity": 127}, {"time": 203042, "pitch": 42, "duration": 67, "velocity": 127}, {"time": 203282, "pitch": 35, "duration": 120, "velocity": 125}, {"time": 203282, "pitch": 36, "duration": 60, "velocity": 127}, {"time": 203282, "pitch": 42, "duration": 38, "velocity": 127}, {"time": 203402, "pitch": 36, "duration": 60, "velocity": 127}, {"time": 203402, "pitch": 42, "duration": 60, "velocity": 95}, {"time": 203522, "pitch": 38, "duration": 120, "velocity": 120}, {"time": 203522, "pitch": 40, "duration": 75, "velocity": 127}, {"time": 203522, "pitch": 46, "duration": 101, "velocity": 127}, {"time": 203762, "pitch": 35, "duration": 120, "velocity": 125}, {"time": 203762, "pitch": 42, "duration": 62, "velocity": 127}, {"time": 203882, "pitch": 35, "duration": 120, "velocity": 125}, {"time": 204002, "pitch": 35, "duration": 120, "velocity": 125}, {"time": 204002, "pitch": 36, "duration": 60, "velocity": 127}, {"time": 204002, "pitch": 38, "duration": 120, "velocity": 120}, {"time": 204002, "pitch": 40, "duration": 117, "velocity": 127}, {"time": 204002, "pitch": 46, "duration": 112, "velocity": 127}, {"time": 204002, "pitch": 49, "duration": 120, "velocity": 120}, {"time": 204002, "pitch": 57, "duration": 120, "velocity": 120}, {"time": 64922, "pitch": 74, "duration": 60, "velocity": 127}, {"time": 64922, "pitch": 86, "duration": 60, "velocity": 127}, {"time": 65042, "pitch": 74, "duration": 60, "velocity": 127}, {"time": 65042, "pitch": 86, "duration": 60, "velocity": 127}, {"time": 65282, "pitch": 72, "duration": 60, "velocity": 127}, {"time": 65282, "pitch": 84, "duration": 60, "velocity": 127}, {"time": 65402, "pitch": 69, "duration": 60, "velocity": 127}, {"time": 65402, "pitch": 81, "duration": 60, "velocity": 127}, {"time": 65522, "pitch": 65, "duration": 60, "velocity": 127}, {"time": 65522, "pitch": 77, "duration": 60, "velocity": 127}, {"time": 65642, "pitch": 67, "duration": 60, "velocity": 127}, {"time": 65642, "pitch": 79, "duration": 60, "velocity": 127}, {"time": 110162, "pitch": 60, "duration": 60, "velocity": 127}, {"time": 110162, "pitch": 72, "duration": 60, "velocity": 127}, {"time": 110402, "pitch": 60, "duration": 60, "velocity": 127}, {"time": 110402, "pitch": 72, "duration": 60, "velocity": 127}, {"time": 110882, "pitch": 60, "duration": 60, "velocity": 127}, {"time": 110882, "pitch": 72, "duration": 60, "velocity": 127}, {"time": 111242, "pitch": 60, "duration": 60, "velocity": 127}, {"time": 111242, "pitch": 72, "duration": 60, "velocity": 127}, {"time": 111602, "pitch": 60, "duration": 60, "velocity": 127}, {"time": 111602, "pitch": 72, "duration": 60, "velocity": 127}, {"time": 179282, "pitch": 60, "duration": 60, "velocity": 127}, {"time": 179282, "pitch": 72, "duration": 60, "velocity": 127}, {"time": 179522, "pitch": 60, "duration": 60, "velocity": 127}, {"time": 179522, "pitch": 72, "duration": 60, "velocity": 127}, {"time": 180002, "pitch": 60, "duration": 60, "velocity": 127}, {"time": 180002, "pitch": 72, "duration": 60, "velocity": 127}, {"time": 180362, "pitch": 60, "duration": 60, "velocity": 127}, {"time": 180362, "pitch": 72, "duration": 60, "velocity": 127}, {"time": 180722, "pitch": 60, "duration": 60, "velocity": 127}, {"time": 180722, "pitch": 72, "duration": 60, "velocity": 127}, {"time": 27122, "pitch": 62, "duration": 10, "velocity": 94}, {"time": 27122, "pitch": 69, "duration": 10, "velocity": 94}, {"time": 27242, "pitch": 62, "duration": 10, "velocity": 94}, {"time": 27242, "pitch": 69, "duration": 10, "velocity": 94}, {"time": 27362, "pitch": 74, "duration": 360, "velocity": 127}, {"time": 27722, "pitch": 72, "duration": 120, "velocity": 127}, {"time": 27842, "pitch": 62, "duration": 10, "velocity": 94}, {"time": 27842, "pitch": 69, "duration": 10, "velocity": 94}, {"time": 27962, "pitch": 62, "duration": 10, "velocity": 94}, {"time": 27962, "pitch": 69, "duration": 10, "velocity": 94}, {"time": 28082, "pitch": 60, "duration": 240, "velocity": 127}, {"time": 28322, "pitch": 67, "duration": 240, "velocity": 127}, {"time": 28562, "pitch": 62, "duration": 10, "velocity": 94}, {"time": 28562, "pitch": 69, "duration": 10, "velocity": 94}, {"time": 28682, "pitch": 65, "duration": 120, "velocity": 127}, {"time": 28802, "pitch": 62, "duration": 10, "velocity": 94}, {"time": 28802, "pitch": 69, "duration": 10, "velocity": 94}, {"time": 28922, "pitch": 62, "duration": 10, "velocity": 94}, {"time": 28922, "pitch": 69, "duration": 10, "velocity": 94}, {"time": 29042, "pitch": 53, "duration": 240, "velocity": 127}, {"time": 29282, "pitch": 60, "duration": 120, "velocity": 127}, {"time": 29522, "pitch": 60, "duration": 120, "velocity": 127}, {"time": 29762, "pitch": 62, "duration": 120, "velocity": 127}, {"time": 30002, "pitch": 62, "duration": 10, "velocity": 94}, {"time": 30002, "pitch": 69, "duration": 10, "velocity": 94}, {"time": 30122, "pitch": 62, "duration": 10, "velocity": 94}, {"time": 30122, "pitch": 69, "duration": 10, "velocity": 94}, {"time": 30242, "pitch": 67, "duration": 240, "velocity": 127}, {"time": 30482, "pitch": 67, "duration": 120, "velocity": 127}, {"time": 30602, "pitch": 67, "duration": 120, "velocity": 127}, {"time": 30842, "pitch": 65, "duration": 120, "velocity": 127}, {"time": 30962, "pitch": 62, "duration": 10, "velocity": 94}, {"time": 30962, "pitch": 69, "duration": 10, "velocity": 94}, {"time": 31082, "pitch": 62, "duration": 10, "velocity": 94}, {"time": 31082, "pitch": 69, "duration": 10, "velocity": 94}, {"time": 31202, "pitch": 74, "duration": 360, "velocity": 127}, {"time": 31562, "pitch": 72, "duration": 120, "velocity": 127}, {"time": 31682, "pitch": 62, "duration": 10, "velocity": 94}, {"time": 31682, "pitch": 69, "duration": 10, "velocity": 94}, {"time": 31802, "pitch": 62, "duration": 10, "velocity": 94}, {"time": 31802, "pitch": 69, "duration": 10, "velocity": 94}, {"time": 31922, "pitch": 60, "duration": 240, "velocity": 127}, {"time": 32162, "pitch": 67, "duration": 240, "velocity": 127}, {"time": 32402, "pitch": 62, "duration": 10, "velocity": 94}, {"time": 32402, "pitch": 69, "duration": 10, "velocity": 94}, {"time": 32522, "pitch": 65, "duration": 120, "velocity": 127}, {"time": 32642, "pitch": 62, "duration": 10, "velocity": 94}, {"time": 32642, "pitch": 69, "duration": 10, "velocity": 94}, {"time": 32762, "pitch": 62, "duration": 10, "velocity": 94}, {"time": 32762, "pitch": 69, "duration": 10, "velocity": 94}, {"time": 32882, "pitch": 53, "duration": 240, "velocity": 127}, {"time": 33122, "pitch": 60, "duration": 120, "velocity": 127}, {"time": 33362, "pitch": 60, "duration": 120, "velocity": 127}, {"time": 33602, "pitch": 62, "duration": 120, "velocity": 127}, {"time": 33842, "pitch": 62, "duration": 10, "velocity": 94}, {"time": 33842, "pitch": 69, "duration": 10, "velocity": 94}, {"time": 33962, "pitch": 62, "duration": 10, "velocity": 94}, {"time": 33962, "pitch": 69, "duration": 10, "velocity": 94}, {"time": 34082, "pitch": 72, "duration": 240, "velocity": 127}, {"time": 34322, "pitch": 72, "duration": 120, "velocity": 127}, {"time": 34442, "pitch": 72, "duration": 120, "velocity": 127}, {"time": 34682, "pitch": 70, "duration": 120, "velocity": 127}, {"time": 34802, "pitch": 62, "duration": 10, "velocity": 94}, {"time": 34802, "pitch": 69, "duration": 10, "velocity": 94}, {"time": 34922, "pitch": 62, "duration": 10, "velocity": 94}, {"time": 34922, "pitch": 69, "duration": 10, "velocity": 94}, {"time": 35042, "pitch": 74, "duration": 360, "velocity": 127}, {"time": 35402, "pitch": 72, "duration": 120, "velocity": 127}, {"time": 35522, "pitch": 62, "duration": 10, "velocity": 94}, {"time": 35522, "pitch": 69, "duration": 10, "velocity": 94}, {"time": 35642, "pitch": 62, "duration": 10, "velocity": 94}, {"time": 35642, "pitch": 69, "duration": 10, "velocity": 94}, {"time": 35762, "pitch": 60, "duration": 240, "velocity": 127}, {"time": 36002, "pitch": 67, "duration": 240, "velocity": 127}, {"time": 36242, "pitch": 62, "duration": 10, "velocity": 94}, {"time": 36242, "pitch": 69, "duration": 10, "velocity": 94}, {"time": 36362, "pitch": 65, "duration": 120, "velocity": 127}, {"time": 36482, "pitch": 62, "duration": 10, "velocity": 94}, {"time": 36482, "pitch": 69, "duration": 10, "velocity": 94}, {"time": 36602, "pitch": 62, "duration": 10, "velocity": 94}, {"time": 36602, "pitch": 69, "duration": 10, "velocity": 94}, {"time": 36722, "pitch": 53, "duration": 240, "velocity": 127}, {"time": 36962, "pitch": 60, "duration": 120, "velocity": 127}, {"time": 37202, "pitch": 60, "duration": 120, "velocity": 127}, {"time": 37442, "pitch": 62, "duration": 120, "velocity": 127}, {"time": 37682, "pitch": 62, "duration": 10, "velocity": 94}, {"time": 37682, "pitch": 69, "duration": 10, "velocity": 94}, {"time": 37802, "pitch": 62, "duration": 10, "velocity": 94}, {"time": 37802, "pitch": 69, "duration": 10, "velocity": 94}, {"time": 37922, "pitch": 67, "duration": 240, "velocity": 127}, {"time": 38162, "pitch": 67, "duration": 120, "velocity": 127}, {"time": 38282, "pitch": 67, "duration": 120, "velocity": 127}, {"time": 38522, "pitch": 65, "duration": 120, "velocity": 127}, {"time": 38642, "pitch": 62, "duration": 10, "velocity": 94}, {"time": 38642, "pitch": 69, "duration": 10, "velocity": 94}, {"time": 38762, "pitch": 62, "duration": 10, "velocity": 94}, {"time": 38762, "pitch": 69, "duration": 10, "velocity": 94}, {"time": 38882, "pitch": 74, "duration": 360, "velocity": 127}, {"time": 39242, "pitch": 72, "duration": 120, "velocity": 127}, {"time": 39362, "pitch": 62, "duration": 10, "velocity": 94}, {"time": 39362, "pitch": 69, "duration": 10, "velocity": 94}, {"time": 39482, "pitch": 62, "duration": 10, "velocity": 94}, {"time": 39482, "pitch": 69, "duration": 10, "velocity": 94}, {"time": 39602, "pitch": 60, "duration": 240, "velocity": 127}, {"time": 39842, "pitch": 67, "duration": 240, "velocity": 127}, {"time": 40082, "pitch": 62, "duration": 10, "velocity": 94}, {"time": 40082, "pitch": 69, "duration": 10, "velocity": 94}, {"time": 40202, "pitch": 65, "duration": 120, "velocity": 127}, {"time": 40322, "pitch": 62, "duration": 10, "velocity": 94}, {"time": 40322, "pitch": 69, "duration": 10, "velocity": 94}, {"time": 40442, "pitch": 62, "duration": 10, "velocity": 94}, {"time": 40442, "pitch": 69, "duration": 10, "velocity": 94}, {"time": 40562, "pitch": 53, "duration": 240, "velocity": 127}, {"time": 40802, "pitch": 60, "duration": 120, "velocity": 127}, {"time": 41042, "pitch": 60, "duration": 120, "velocity": 127}, {"time": 41282, "pitch": 62, "duration": 120, "velocity": 127}, {"time": 41522, "pitch": 62, "duration": 10, "velocity": 94}, {"time": 41522, "pitch": 69, "duration": 10, "velocity": 94}, {"time": 41642, "pitch": 62, "duration": 10, "velocity": 94}, {"time": 41642, "pitch": 69, "duration": 10, "velocity": 94}, {"time": 41762, "pitch": 72, "duration": 240, "velocity": 127}, {"time": 42002, "pitch": 72, "duration": 120, "velocity": 127}, {"time": 42122, "pitch": 72, "duration": 120, "velocity": 127}, {"time": 42362, "pitch": 70, "duration": 120, "velocity": 127}, {"time": 42482, "pitch": 62, "duration": 10, "velocity": 94}, {"time": 42482, "pitch": 69, "duration": 10, "velocity": 94}, {"time": 42602, "pitch": 62, "duration": 10, "velocity": 94}, {"time": 42602, "pitch": 69, "duration": 10, "velocity": 94}, {"time": 42722, "pitch": 74, "duration": 360, "velocity": 127}, {"time": 43082, "pitch": 72, "duration": 120, "velocity": 127}, {"time": 43202, "pitch": 62, "duration": 10, "velocity": 94}, {"time": 43202, "pitch": 69, "duration": 10, "velocity": 94}, {"time": 43322, "pitch": 62, "duration": 10, "velocity": 94}, {"time": 43322, "pitch": 69, "duration": 10, "velocity": 94}, {"time": 43442, "pitch": 60, "duration": 240, "velocity": 127}, {"time": 43682, "pitch": 67, "duration": 240, "velocity": 127}, {"time": 43922, "pitch": 62, "duration": 10, "velocity": 94}, {"time": 43922, "pitch": 69, "duration": 10, "velocity": 94}, {"time": 44042, "pitch": 65, "duration": 120, "velocity": 127}, {"time": 44162, "pitch": 62, "duration": 10, "velocity": 94}, {"time": 44162, "pitch": 69, "duration": 10, "velocity": 94}, {"time": 44282, "pitch": 62, "duration": 10, "velocity": 94}, {"time": 44282, "pitch": 69, "duration": 10, "velocity": 94}, {"time": 44402, "pitch": 53, "duration": 240, "velocity": 127}, {"time": 44642, "pitch": 60, "duration": 120, "velocity": 127}, {"time": 44882, "pitch": 60, "duration": 120, "velocity": 127}, {"time": 45122, "pitch": 62, "duration": 120, "velocity": 127}, {"time": 45362, "pitch": 62, "duration": 10, "velocity": 94}, {"time": 45362, "pitch": 69, "duration": 10, "velocity": 94}, {"time": 45482, "pitch": 62, "duration": 10, "velocity": 94}, {"time": 45482, "pitch": 69, "duration": 10, "velocity": 94}, {"time": 45602, "pitch": 67, "duration": 240, "velocity": 127}, {"time": 45842, "pitch": 67, "duration": 120, "velocity": 127}, {"time": 45962, "pitch": 67, "duration": 120, "velocity": 127}, {"time": 46202, "pitch": 65, "duration": 120, "velocity": 127}, {"time": 46322, "pitch": 62, "duration": 10, "velocity": 94}, {"time": 46322, "pitch": 69, "duration": 10, "velocity": 94}, {"time": 46442, "pitch": 62, "duration": 10, "velocity": 94}, {"time": 46442, "pitch": 69, "duration": 10, "velocity": 94}, {"time": 46562, "pitch": 74, "duration": 360, "velocity": 127}, {"time": 46922, "pitch": 72, "duration": 120, "velocity": 127}, {"time": 47042, "pitch": 62, "duration": 10, "velocity": 94}, {"time": 47042, "pitch": 69, "duration": 10, "velocity": 94}, {"time": 47162, "pitch": 62, "duration": 10, "velocity": 94}, {"time": 47162, "pitch": 69, "duration": 10, "velocity": 94}, {"time": 47282, "pitch": 60, "duration": 240, "velocity": 127}, {"time": 47522, "pitch": 67, "duration": 240, "velocity": 127}, {"time": 47762, "pitch": 62, "duration": 10, "velocity": 94}, {"time": 47762, "pitch": 69, "duration": 10, "velocity": 94}, {"time": 47882, "pitch": 65, "duration": 120, "velocity": 127}, {"time": 48002, "pitch": 62, "duration": 10, "velocity": 94}, {"time": 48002, "pitch": 69, "duration": 10, "velocity": 94}, {"time": 48122, "pitch": 62, "duration": 10, "velocity": 94}, {"time": 48122, "pitch": 69, "duration": 10, "velocity": 94}, {"time": 48242, "pitch": 53, "duration": 240, "velocity": 127}, {"time": 48482, "pitch": 60, "duration": 120, "velocity": 127}, {"time": 48722, "pitch": 60, "duration": 120, "velocity": 127}, {"time": 48962, "pitch": 62, "duration": 120, "velocity": 127}, {"time": 49202, "pitch": 62, "duration": 10, "velocity": 94}, {"time": 49202, "pitch": 69, "duration": 10, "velocity": 94}, {"time": 49322, "pitch": 62, "duration": 10, "velocity": 94}, {"time": 49322, "pitch": 69, "duration": 10, "velocity": 94}, {"time": 49442, "pitch": 72, "duration": 240, "velocity": 127}, {"time": 49682, "pitch": 72, "duration": 120, "velocity": 127}, {"time": 49802, "pitch": 72, "duration": 120, "velocity": 127}, {"time": 50042, "pitch": 70, "duration": 120, "velocity": 127}, {"time": 50162, "pitch": 62, "duration": 10, "velocity": 94}, {"time": 50162, "pitch": 69, "duration": 10, "velocity": 94}, {"time": 50282, "pitch": 62, "duration": 10, "velocity": 94}, {"time": 50282, "pitch": 69, "duration": 10, "velocity": 94}, {"time": 50402, "pitch": 74, "duration": 360, "velocity": 127}, {"time": 50762, "pitch": 72, "duration": 120, "velocity": 127}, {"time": 50882, "pitch": 62, "duration": 10, "velocity": 94}, {"time": 50882, "pitch": 69, "duration": 10, "velocity": 94}, {"time": 51002, "pitch": 62, "duration": 10, "velocity": 94}, {"time": 51002, "pitch": 69, "duration": 10, "velocity": 94}, {"time": 51122, "pitch": 60, "duration": 240, "velocity": 127}, {"time": 51362, "pitch": 67, "duration": 240, "velocity": 127}, {"time": 51602, "pitch": 62, "duration": 10, "velocity": 94}, {"time": 51602, "pitch": 69, "duration": 10, "velocity": 94}, {"time": 51722, "pitch": 65, "duration": 120, "velocity": 127}, {"time": 51842, "pitch": 62, "duration": 10, "velocity": 94}, {"time": 51842, "pitch": 69, "duration": 10, "velocity": 94}, {"time": 51962, "pitch": 62, "duration": 10, "velocity": 94}, {"time": 51962, "pitch": 69, "duration": 10, "velocity": 94}, {"time": 52082, "pitch": 53, "duration": 240, "velocity": 127}, {"time": 52322, "pitch": 60, "duration": 120, "velocity": 127}, {"time": 52562, "pitch": 60, "duration": 120, "velocity": 127}, {"time": 52802, "pitch": 62, "duration": 120, "velocity": 127}, {"time": 53042, "pitch": 62, "duration": 10, "velocity": 94}, {"time": 53042, "pitch": 69, "duration": 10, "velocity": 94}, {"time": 53162, "pitch": 62, "duration": 10, "velocity": 94}, {"time": 53162, "pitch": 69, "duration": 10, "velocity": 94}, {"time": 53282, "pitch": 67, "duration": 240, "velocity": 127}, {"time": 53522, "pitch": 67, "duration": 120, "velocity": 127}, {"time": 53642, "pitch": 67, "duration": 120, "velocity": 127}, {"time": 53882, "pitch": 65, "duration": 120, "velocity": 127}, {"time": 54002, "pitch": 62, "duration": 10, "velocity": 94}, {"time": 54002, "pitch": 69, "duration": 10, "velocity": 94}, {"time": 54122, "pitch": 62, "duration": 10, "velocity": 94}, {"time": 54122, "pitch": 69, "duration": 10, "velocity": 94}, {"time": 54242, "pitch": 74, "duration": 360, "velocity": 127}, {"time": 54602, "pitch": 72, "duration": 120, "velocity": 127}, {"time": 54722, "pitch": 62, "duration": 10, "velocity": 94}, {"time": 54722, "pitch": 69, "duration": 10, "velocity": 94}, {"time": 54842, "pitch": 62, "duration": 10, "velocity": 94}, {"time": 54842, "pitch": 69, "duration": 10, "velocity": 94}, {"time": 54962, "pitch": 60, "duration": 240, "velocity": 127}, {"time": 55202, "pitch": 67, "duration": 240, "velocity": 127}, {"time": 55442, "pitch": 62, "duration": 10, "velocity": 94}, {"time": 55442, "pitch": 69, "duration": 10, "velocity": 94}, {"time": 55562, "pitch": 65, "duration": 120, "velocity": 127}, {"time": 55682, "pitch": 62, "duration": 10, "velocity": 94}, {"time": 55682, "pitch": 69, "duration": 10, "velocity": 94}, {"time": 55802, "pitch": 62, "duration": 10, "velocity": 94}, {"time": 55802, "pitch": 69, "duration": 10, "velocity": 94}, {"time": 55922, "pitch": 53, "duration": 240, "velocity": 127}, {"time": 56162, "pitch": 60, "duration": 120, "velocity": 127}, {"time": 56402, "pitch": 60, "duration": 120, "velocity": 127}, {"time": 56642, "pitch": 62, "duration": 120, "velocity": 127}, {"time": 56882, "pitch": 62, "duration": 10, "velocity": 94}, {"time": 56882, "pitch": 69, "duration": 10, "velocity": 94}, {"time": 57002, "pitch": 62, "duration": 10, "velocity": 94}, {"time": 57002, "pitch": 69, "duration": 10, "velocity": 94}, {"time": 57122, "pitch": 72, "duration": 240, "velocity": 127}, {"time": 57362, "pitch": 72, "duration": 120, "velocity": 127}, {"time": 57482, "pitch": 72, "duration": 120, "velocity": 127}, {"time": 57722, "pitch": 70, "duration": 120, "velocity": 127}, {"time": 57842, "pitch": 62, "duration": 10, "velocity": 94}, {"time": 57842, "pitch": 69, "duration": 10, "velocity": 94}, {"time": 57962, "pitch": 62, "duration": 10, "velocity": 94}, {"time": 57962, "pitch": 69, "duration": 10, "velocity": 94}, {"time": 58082, "pitch": 74, "duration": 360, "velocity": 127}, {"time": 58442, "pitch": 72, "duration": 120, "velocity": 127}, {"time": 58562, "pitch": 62, "duration": 10, "velocity": 94}, {"time": 58562, "pitch": 69, "duration": 10, "velocity": 94}, {"time": 58682, "pitch": 62, "duration": 10, "velocity": 94}, {"time": 58682, "pitch": 69, "duration": 10, "velocity": 94}, {"time": 58802, "pitch": 60, "duration": 240, "velocity": 127}, {"time": 59042, "pitch": 67, "duration": 240, "velocity": 127}, {"time": 59282, "pitch": 62, "duration": 10, "velocity": 94}, {"time": 59282, "pitch": 69, "duration": 10, "velocity": 94}, {"time": 59402, "pitch": 65, "duration": 120, "velocity": 127}, {"time": 59522, "pitch": 62, "duration": 10, "velocity": 94}, {"time": 59522, "pitch": 69, "duration": 10, "velocity": 94}, {"time": 59642, "pitch": 62, "duration": 10, "velocity": 94}, {"time": 59642, "pitch": 69, "duration": 10, "velocity": 94}, {"time": 59762, "pitch": 53, "duration": 240, "velocity": 127}, {"time": 60002, "pitch": 60, "duration": 120, "velocity": 127}, {"time": 60242, "pitch": 60, "duration": 120, "velocity": 127}, {"time": 60482, "pitch": 62, "duration": 120, "velocity": 127}, {"time": 60722, "pitch": 62, "duration": 10, "velocity": 94}, {"time": 60722, "pitch": 69, "duration": 10, "velocity": 94}, {"time": 60842, "pitch": 62, "duration": 10, "velocity": 94}, {"time": 60842, "pitch": 69, "duration": 10, "velocity": 94}, {"time": 60962, "pitch": 67, "duration": 240, "velocity": 127}, {"time": 61202, "pitch": 67, "duration": 120, "velocity": 127}, {"time": 61322, "pitch": 67, "duration": 120, "velocity": 127}, {"time": 61562, "pitch": 65, "duration": 120, "velocity": 127}, {"time": 61682, "pitch": 62, "duration": 10, "velocity": 94}, {"time": 61682, "pitch": 69, "duration": 10, "velocity": 94}, {"time": 61802, "pitch": 62, "duration": 10, "velocity": 94}, {"time": 61802, "pitch": 69, "duration": 10, "velocity": 94}, {"time": 61922, "pitch": 74, "duration": 360, "velocity": 127}, {"time": 62282, "pitch": 72, "duration": 120, "velocity": 127}, {"time": 62402, "pitch": 62, "duration": 10, "velocity": 94}, {"time": 62402, "pitch": 69, "duration": 10, "velocity": 94}, {"time": 62522, "pitch": 62, "duration": 10, "velocity": 94}, {"time": 62522, "pitch": 69, "duration": 10, "velocity": 94}, {"time": 62642, "pitch": 60, "duration": 240, "velocity": 127}, {"time": 62882, "pitch": 67, "duration": 240, "velocity": 127}, {"time": 63122, "pitch": 62, "duration": 10, "velocity": 94}, {"time": 63122, "pitch": 69, "duration": 10, "velocity": 94}, {"time": 63242, "pitch": 65, "duration": 120, "velocity": 127}, {"time": 63362, "pitch": 62, "duration": 10, "velocity": 94}, {"time": 63362, "pitch": 69, "duration": 10, "velocity": 94}, {"time": 63482, "pitch": 62, "duration": 10, "velocity": 94}, {"time": 63482, "pitch": 69, "duration": 10, "velocity": 94}, {"time": 63602, "pitch": 53, "duration": 240, "velocity": 127}, {"time": 63842, "pitch": 60, "duration": 120, "velocity": 127}, {"time": 64082, "pitch": 60, "duration": 120, "velocity": 127}, {"time": 64322, "pitch": 62, "duration": 120, "velocity": 127}, {"time": 64562, "pitch": 62, "duration": 10, "velocity": 94}, {"time": 64562, "pitch": 69, "duration": 10, "velocity": 94}, {"time": 64682, "pitch": 62, "duration": 10, "velocity": 94}, {"time": 64682, "pitch": 69, "duration": 10, "velocity": 94}, {"time": 64802, "pitch": 72, "duration": 240, "velocity": 127}, {"time": 65042, "pitch": 72, "duration": 120, "velocity": 127}, {"time": 65162, "pitch": 72, "duration": 120, "velocity": 127}, {"time": 65402, "pitch": 70, "duration": 120, "velocity": 127}, {"time": 65522, "pitch": 62, "duration": 10, "velocity": 94}, {"time": 65522, "pitch": 69, "duration": 10, "velocity": 94}, {"time": 65642, "pitch": 62, "duration": 10, "velocity": 94}, {"time": 65642, "pitch": 69, "duration": 10, "velocity": 94}, {"time": 65762, "pitch": 74, "duration": 360, "velocity": 127}, {"time": 66122, "pitch": 72, "duration": 120, "velocity": 127}, {"time": 66242, "pitch": 62, "duration": 10, "velocity": 94}, {"time": 66242, "pitch": 69, "duration": 10, "velocity": 94}, {"time": 66362, "pitch": 62, "duration": 10, "velocity": 94}, {"time": 66362, "pitch": 69, "duration": 10, "velocity": 94}, {"time": 66482, "pitch": 60, "duration": 240, "velocity": 127}, {"time": 66722, "pitch": 67, "duration": 240, "velocity": 127}, {"time": 66962, "pitch": 62, "duration": 10, "velocity": 94}, {"time": 66962, "pitch": 69, "duration": 10, "velocity": 94}, {"time": 67082, "pitch": 65, "duration": 120, "velocity": 127}, {"time": 67202, "pitch": 62, "duration": 10, "velocity": 94}, {"time": 67202, "pitch": 69, "duration": 10, "velocity": 94}, {"time": 67322, "pitch": 62, "duration": 10, "velocity": 94}, {"time": 67322, "pitch": 69, "duration": 10, "velocity": 94}, {"time": 67442, "pitch": 53, "duration": 240, "velocity": 127}, {"time": 67682, "pitch": 60, "duration": 120, "velocity": 127}, {"time": 67922, "pitch": 60, "duration": 120, "velocity": 127}, {"time": 68162, "pitch": 62, "duration": 120, "velocity": 127}, {"time": 68402, "pitch": 62, "duration": 10, "velocity": 94}, {"time": 68402, "pitch": 69, "duration": 10, "velocity": 94}, {"time": 68522, "pitch": 62, "duration": 10, "velocity": 94}, {"time": 68522, "pitch": 69, "duration": 10, "velocity": 94}, {"time": 68642, "pitch": 67, "duration": 240, "velocity": 127}, {"time": 68882, "pitch": 67, "duration": 120, "velocity": 127}, {"time": 69002, "pitch": 67, "duration": 120, "velocity": 127}, {"time": 69242, "pitch": 65, "duration": 120, "velocity": 127}, {"time": 69362, "pitch": 62, "duration": 10, "velocity": 94}, {"time": 69362, "pitch": 69, "duration": 10, "velocity": 94}, {"time": 69482, "pitch": 62, "duration": 10, "velocity": 94}, {"time": 69482, "pitch": 69, "duration": 10, "velocity": 94}, {"time": 69602, "pitch": 74, "duration": 360, "velocity": 127}, {"time": 69962, "pitch": 72, "duration": 120, "velocity": 127}, {"time": 70082, "pitch": 62, "duration": 10, "velocity": 94}, {"time": 70082, "pitch": 69, "duration": 10, "velocity": 94}, {"time": 70202, "pitch": 62, "duration": 10, "velocity": 94}, {"time": 70202, "pitch": 69, "duration": 10, "velocity": 94}, {"time": 70322, "pitch": 60, "duration": 240, "velocity": 127}, {"time": 70562, "pitch": 67, "duration": 240, "velocity": 127}, {"time": 70802, "pitch": 62, "duration": 10, "velocity": 94}, {"time": 70802, "pitch": 69, "duration": 10, "velocity": 94}, {"time": 70922, "pitch": 65, "duration": 120, "velocity": 127}, {"time": 71042, "pitch": 62, "duration": 10, "velocity": 94}, {"time": 71042, "pitch": 69, "duration": 10, "velocity": 94}, {"time": 71162, "pitch": 62, "duration": 10, "velocity": 94}, {"time": 71162, "pitch": 69, "duration": 10, "velocity": 94}, {"time": 71282, "pitch": 53, "duration": 240, "velocity": 127}, {"time": 71522, "pitch": 60, "duration": 120, "velocity": 127}, {"time": 71762, "pitch": 60, "duration": 120, "velocity": 127}, {"time": 72002, "pitch": 62, "duration": 120, "velocity": 127}, {"time": 72242, "pitch": 62, "duration": 10, "velocity": 94}, {"time": 72242, "pitch": 69, "duration": 10, "velocity": 94}, {"time": 72362, "pitch": 62, "duration": 10, "velocity": 94}, {"time": 72362, "pitch": 69, "duration": 10, "velocity": 94}, {"time": 72482, "pitch": 72, "duration": 240, "velocity": 127}, {"time": 72722, "pitch": 72, "duration": 120, "velocity": 127}, {"time": 72842, "pitch": 72, "duration": 120, "velocity": 127}, {"time": 73082, "pitch": 70, "duration": 120, "velocity": 127}, {"time": 73202, "pitch": 62, "duration": 10, "velocity": 94}, {"time": 73202, "pitch": 69, "duration": 10, "velocity": 94}, {"time": 73322, "pitch": 62, "duration": 10, "velocity": 94}, {"time": 73322, "pitch": 69, "duration": 10, "velocity": 94}, {"time": 73442, "pitch": 74, "duration": 360, "velocity": 127}, {"time": 73802, "pitch": 72, "duration": 120, "velocity": 127}, {"time": 73922, "pitch": 62, "duration": 10, "velocity": 94}, {"time": 73922, "pitch": 69, "duration": 10, "velocity": 94}, {"time": 74042, "pitch": 62, "duration": 10, "velocity": 94}, {"time": 74042, "pitch": 69, "duration": 10, "velocity": 94}, {"time": 74162, "pitch": 60, "duration": 240, "velocity": 127}, {"time": 74402, "pitch": 67, "duration": 240, "velocity": 127}, {"time": 74642, "pitch": 62, "duration": 10, "velocity": 94}, {"time": 74642, "pitch": 69, "duration": 10, "velocity": 94}, {"time": 74762, "pitch": 65, "duration": 120, "velocity": 127}, {"time": 74882, "pitch": 62, "duration": 10, "velocity": 94}, {"time": 74882, "pitch": 69, "duration": 10, "velocity": 94}, {"time": 75002, "pitch": 62, "duration": 10, "velocity": 94}, {"time": 75002, "pitch": 69, "duration": 10, "velocity": 94}, {"time": 75122, "pitch": 53, "duration": 240, "velocity": 127}, {"time": 75362, "pitch": 60, "duration": 120, "velocity": 127}, {"time": 75602, "pitch": 60, "duration": 120, "velocity": 127}, {"time": 75842, "pitch": 62, "duration": 120, "velocity": 127}, {"time": 76082, "pitch": 62, "duration": 10, "velocity": 94}, {"time": 76082, "pitch": 69, "duration": 10, "velocity": 94}, {"time": 76202, "pitch": 62, "duration": 10, "velocity": 94}, {"time": 76202, "pitch": 69, "duration": 10, "velocity": 94}, {"time": 76322, "pitch": 67, "duration": 240, "velocity": 127}, {"time": 76562, "pitch": 67, "duration": 120, "velocity": 127}, {"time": 76682, "pitch": 67, "duration": 120, "velocity": 127}, {"time": 76922, "pitch": 65, "duration": 120, "velocity": 127}, {"time": 77042, "pitch": 62, "duration": 10, "velocity": 94}, {"time": 77042, "pitch": 69, "duration": 10, "velocity": 94}, {"time": 77162, "pitch": 62, "duration": 10, "velocity": 94}, {"time": 77162, "pitch": 69, "duration": 10, "velocity": 94}, {"time": 77282, "pitch": 74, "duration": 360, "velocity": 127}, {"time": 77642, "pitch": 72, "duration": 120, "velocity": 127}, {"time": 77762, "pitch": 62, "duration": 10, "velocity": 94}, {"time": 77762, "pitch": 69, "duration": 10, "velocity": 94}, {"time": 77882, "pitch": 62, "duration": 10, "velocity": 94}, {"time": 77882, "pitch": 69, "duration": 10, "velocity": 94}, {"time": 78002, "pitch": 60, "duration": 240, "velocity": 127}, {"time": 78242, "pitch": 67, "duration": 240, "velocity": 127}, {"time": 78482, "pitch": 62, "duration": 10, "velocity": 94}, {"time": 78482, "pitch": 69, "duration": 10, "velocity": 94}, {"time": 78602, "pitch": 65, "duration": 120, "velocity": 127}, {"time": 78722, "pitch": 62, "duration": 10, "velocity": 94}, {"time": 78722, "pitch": 69, "duration": 10, "velocity": 94}, {"time": 78842, "pitch": 62, "duration": 10, "velocity": 94}, {"time": 78842, "pitch": 69, "duration": 10, "velocity": 94}, {"time": 78962, "pitch": 53, "duration": 240, "velocity": 127}, {"time": 79202, "pitch": 60, "duration": 120, "velocity": 127}, {"time": 79442, "pitch": 60, "duration": 120, "velocity": 127}, {"time": 79682, "pitch": 62, "duration": 120, "velocity": 127}, {"time": 79922, "pitch": 62, "duration": 10, "velocity": 94}, {"time": 79922, "pitch": 69, "duration": 10, "velocity": 94}, {"time": 80042, "pitch": 62, "duration": 10, "velocity": 94}, {"time": 80042, "pitch": 69, "duration": 10, "velocity": 94}, {"time": 80162, "pitch": 72, "duration": 240, "velocity": 127}, {"time": 80402, "pitch": 72, "duration": 120, "velocity": 127}, {"time": 80522, "pitch": 72, "duration": 120, "velocity": 127}, {"time": 80762, "pitch": 70, "duration": 120, "velocity": 127}, {"time": 80882, "pitch": 62, "duration": 10, "velocity": 94}, {"time": 80882, "pitch": 69, "duration": 10, "velocity": 94}, {"time": 81002, "pitch": 62, "duration": 10, "velocity": 94}, {"time": 81002, "pitch": 69, "duration": 10, "velocity": 94}, {"time": 81122, "pitch": 74, "duration": 360, "velocity": 127}, {"time": 81482, "pitch": 72, "duration": 120, "velocity": 127}, {"time": 81602, "pitch": 62, "duration": 10, "velocity": 94}, {"time": 81602, "pitch": 69, "duration": 10, "velocity": 94}, {"time": 81722, "pitch": 62, "duration": 10, "velocity": 94}, {"time": 81722, "pitch": 69, "duration": 10, "velocity": 94}, {"time": 81842, "pitch": 60, "duration": 240, "velocity": 127}, {"time": 82082, "pitch": 67, "duration": 240, "velocity": 127}, {"time": 82322, "pitch": 62, "duration": 10, "velocity": 94}, {"time": 82322, "pitch": 69, "duration": 10, "velocity": 94}, {"time": 82442, "pitch": 65, "duration": 120, "velocity": 127}, {"time": 82562, "pitch": 62, "duration": 10, "velocity": 94}, {"time": 82562, "pitch": 69, "duration": 10, "velocity": 94}, {"time": 82682, "pitch": 62, "duration": 10, "velocity": 94}, {"time": 82682, "pitch": 69, "duration": 10, "velocity": 94}, {"time": 82802, "pitch": 53, "duration": 240, "velocity": 127}, {"time": 83042, "pitch": 60, "duration": 120, "velocity": 127}, {"time": 83282, "pitch": 60, "duration": 120, "velocity": 127}, {"time": 83522, "pitch": 62, "duration": 120, "velocity": 127}, {"time": 83762, "pitch": 62, "duration": 10, "velocity": 94}, {"time": 83762, "pitch": 69, "duration": 10, "velocity": 94}, {"time": 83882, "pitch": 62, "duration": 10, "velocity": 94}, {"time": 83882, "pitch": 69, "duration": 10, "velocity": 94}, {"time": 84002, "pitch": 72, "duration": 240, "velocity": 127}, {"time": 84242, "pitch": 72, "duration": 120, "velocity": 127}, {"time": 84362, "pitch": 72, "duration": 120, "velocity": 127}, {"time": 84602, "pitch": 70, "duration": 120, "velocity": 127}, {"time": 84722, "pitch": 62, "duration": 10, "velocity": 94}, {"time": 84722, "pitch": 69, "duration": 10, "velocity": 94}, {"time": 84842, "pitch": 62, "duration": 10, "velocity": 94}, {"time": 84842, "pitch": 69, "duration": 10, "velocity": 94}, {"time": 84962, "pitch": 74, "duration": 360, "velocity": 127}, {"time": 85322, "pitch": 72, "duration": 120, "velocity": 127}, {"time": 85442, "pitch": 62, "duration": 10, "velocity": 94}, {"time": 85442, "pitch": 69, "duration": 10, "velocity": 94}, {"time": 85562, "pitch": 62, "duration": 10, "velocity": 94}, {"time": 85562, "pitch": 69, "duration": 10, "velocity": 94}, {"time": 85682, "pitch": 60, "duration": 240, "velocity": 127}, {"time": 85922, "pitch": 67, "duration": 240, "velocity": 127}, {"time": 86162, "pitch": 62, "duration": 10, "velocity": 94}, {"time": 86162, "pitch": 69, "duration": 10, "velocity": 94}, {"time": 86282, "pitch": 65, "duration": 120, "velocity": 127}, {"time": 86402, "pitch": 62, "duration": 10, "velocity": 94}, {"time": 86402, "pitch": 69, "duration": 10, "velocity": 94}, {"time": 86522, "pitch": 62, "duration": 10, "velocity": 94}, {"time": 86522, "pitch": 69, "duration": 10, "velocity": 94}, {"time": 86642, "pitch": 53, "duration": 240, "velocity": 127}, {"time": 86882, "pitch": 60, "duration": 120, "velocity": 127}, {"time": 87122, "pitch": 60, "duration": 120, "velocity": 127}, {"time": 87362, "pitch": 62, "duration": 120, "velocity": 127}, {"time": 87602, "pitch": 62, "duration": 10, "velocity": 94}, {"time": 87602, "pitch": 69, "duration": 10, "velocity": 94}, {"time": 87722, "pitch": 62, "duration": 10, "velocity": 94}, {"time": 87722, "pitch": 69, "duration": 10, "velocity": 94}, {"time": 87842, "pitch": 72, "duration": 240, "velocity": 127}, {"time": 88082, "pitch": 72, "duration": 120, "velocity": 127}, {"time": 88202, "pitch": 72, "duration": 120, "velocity": 127}, {"time": 88442, "pitch": 70, "duration": 120, "velocity": 127}, {"time": 88562, "pitch": 62, "duration": 10, "velocity": 94}, {"time": 88562, "pitch": 69, "duration": 10, "velocity": 94}, {"time": 88682, "pitch": 62, "duration": 10, "velocity": 94}, {"time": 88682, "pitch": 69, "duration": 10, "velocity": 94}, {"time": 88802, "pitch": 74, "duration": 360, "velocity": 127}, {"time": 89162, "pitch": 72, "duration": 120, "velocity": 127}, {"time": 89282, "pitch": 62, "duration": 10, "velocity": 94}, {"time": 89282, "pitch": 69, "duration": 10, "velocity": 94}, {"time": 89402, "pitch": 62, "duration": 10, "velocity": 94}, {"time": 89402, "pitch": 69, "duration": 10, "velocity": 94}, {"time": 89522, "pitch": 60, "duration": 240, "velocity": 127}, {"time": 89762, "pitch": 67, "duration": 240, "velocity": 127}, {"time": 90002, "pitch": 62, "duration": 10, "velocity": 94}, {"time": 90002, "pitch": 69, "duration": 10, "velocity": 94}, {"time": 90122, "pitch": 65, "duration": 120, "velocity": 127}, {"time": 90242, "pitch": 62, "duration": 10, "velocity": 94}, {"time": 90242, "pitch": 69, "duration": 10, "velocity": 94}, {"time": 90362, "pitch": 62, "duration": 10, "velocity": 94}, {"time": 90362, "pitch": 69, "duration": 10, "velocity": 94}, {"time": 90482, "pitch": 53, "duration": 240, "velocity": 127}, {"time": 90722, "pitch": 60, "duration": 120, "velocity": 127}, {"time": 90962, "pitch": 60, "duration": 120, "velocity": 127}, {"time": 91202, "pitch": 62, "duration": 120, "velocity": 127}, {"time": 91442, "pitch": 62, "duration": 10, "velocity": 94}, {"time": 91442, "pitch": 69, "duration": 10, "velocity": 94}, {"time": 91562, "pitch": 62, "duration": 10, "velocity": 94}, {"time": 91562, "pitch": 69, "duration": 10, "velocity": 94}, {"time": 91682, "pitch": 72, "duration": 240, "velocity": 127}, {"time": 91922, "pitch": 72, "duration": 120, "velocity": 127}, {"time": 92042, "pitch": 72, "duration": 120, "velocity": 127}, {"time": 92282, "pitch": 70, "duration": 120, "velocity": 127}, {"time": 92402, "pitch": 62, "duration": 10, "velocity": 94}, {"time": 92402, "pitch": 69, "duration": 10, "velocity": 94}, {"time": 92522, "pitch": 62, "duration": 10, "velocity": 94}, {"time": 92522, "pitch": 69, "duration": 10, "velocity": 94}, {"time": 92642, "pitch": 74, "duration": 360, "velocity": 127}, {"time": 93002, "pitch": 72, "duration": 120, "velocity": 127}, {"time": 93122, "pitch": 62, "duration": 10, "velocity": 94}, {"time": 93122, "pitch": 69, "duration": 10, "velocity": 94}, {"time": 93242, "pitch": 62, "duration": 10, "velocity": 94}, {"time": 93242, "pitch": 69, "duration": 10, "velocity": 94}, {"time": 93362, "pitch": 60, "duration": 240, "velocity": 127}, {"time": 93602, "pitch": 67, "duration": 240, "velocity": 127}, {"time": 93842, "pitch": 62, "duration": 10, "velocity": 94}, {"time": 93842, "pitch": 69, "duration": 10, "velocity": 94}, {"time": 93962, "pitch": 65, "duration": 120, "velocity": 127}, {"time": 94082, "pitch": 62, "duration": 10, "velocity": 94}, {"time": 94082, "pitch": 69, "duration": 10, "velocity": 94}, {"time": 94202, "pitch": 62, "duration": 10, "velocity": 94}, {"time": 94202, "pitch": 69, "duration": 10, "velocity": 94}, {"time": 94322, "pitch": 53, "duration": 240, "velocity": 127}, {"time": 94562, "pitch": 60, "duration": 120, "velocity": 127}, {"time": 94802, "pitch": 60, "duration": 120, "velocity": 127}, {"time": 95042, "pitch": 62, "duration": 120, "velocity": 127}, {"time": 95282, "pitch": 62, "duration": 10, "velocity": 94}, {"time": 95282, "pitch": 69, "duration": 10, "velocity": 94}, {"time": 95402, "pitch": 62, "duration": 10, "velocity": 94}, {"time": 95402, "pitch": 69, "duration": 10, "velocity": 94}, {"time": 95522, "pitch": 72, "duration": 240, "velocity": 127}, {"time": 95762, "pitch": 72, "duration": 120, "velocity": 127}, {"time": 95882, "pitch": 72, "duration": 120, "velocity": 127}, {"time": 96122, "pitch": 70, "duration": 120, "velocity": 127}, {"time": 96242, "pitch": 62, "duration": 10, "velocity": 94}, {"time": 96242, "pitch": 69, "duration": 10, "velocity": 94}, {"time": 96362, "pitch": 62, "duration": 10, "velocity": 94}, {"time": 96362, "pitch": 69, "duration": 10, "velocity": 94}, {"time": 134882, "pitch": 74, "duration": 360, "velocity": 127}, {"time": 135242, "pitch": 72, "duration": 120, "velocity": 127}, {"time": 135362, "pitch": 62, "duration": 10, "velocity": 94}, {"time": 135362, "pitch": 69, "duration": 10, "velocity": 94}, {"time": 135482, "pitch": 62, "duration": 10, "velocity": 94}, {"time": 135482, "pitch": 69, "duration": 10, "velocity": 94}, {"time": 135602, "pitch": 60, "duration": 240, "velocity": 127}, {"time": 135842, "pitch": 67, "duration": 240, "velocity": 127}, {"time": 136082, "pitch": 62, "duration": 10, "velocity": 94}, {"time": 136082, "pitch": 69, "duration": 10, "velocity": 94}, {"time": 136202, "pitch": 65, "duration": 120, "velocity": 127}, {"time": 136322, "pitch": 62, "duration": 10, "velocity": 94}, {"time": 136322, "pitch": 69, "duration": 10, "velocity": 94}, {"time": 136442, "pitch": 62, "duration": 10, "velocity": 94}, {"time": 136442, "pitch": 69, "duration": 10, "velocity": 94}, {"time": 136562, "pitch": 53, "duration": 240, "velocity": 127}, {"time": 136802, "pitch": 60, "duration": 120, "velocity": 127}, {"time": 137042, "pitch": 60, "duration": 120, "velocity": 127}, {"time": 137282, "pitch": 62, "duration": 120, "velocity": 127}, {"time": 137522, "pitch": 62, "duration": 10, "velocity": 94}, {"time": 137522, "pitch": 69, "duration": 10, "velocity": 94}, {"time": 137642, "pitch": 62, "duration": 10, "velocity": 94}, {"time": 137642, "pitch": 69, "duration": 10, "velocity": 94}, {"time": 137762, "pitch": 67, "duration": 240, "velocity": 127}, {"time": 138002, "pitch": 67, "duration": 120, "velocity": 127}, {"time": 138122, "pitch": 67, "duration": 120, "velocity": 127}, {"time": 138362, "pitch": 65, "duration": 120, "velocity": 127}, {"time": 138482, "pitch": 62, "duration": 10, "velocity": 94}, {"time": 138482, "pitch": 69, "duration": 10, "velocity": 94}, {"time": 138602, "pitch": 62, "duration": 10, "velocity": 94}, {"time": 138602, "pitch": 69, "duration": 10, "velocity": 94}, {"time": 138722, "pitch": 74, "duration": 360, "velocity": 127}, {"time": 139082, "pitch": 72, "duration": 120, "velocity": 127}, {"time": 139202, "pitch": 62, "duration": 10, "velocity": 94}, {"time": 139202, "pitch": 69, "duration": 10, "velocity": 94}, {"time": 139322, "pitch": 62, "duration": 10, "velocity": 94}, {"time": 139322, "pitch": 69, "duration": 10, "velocity": 94}, {"time": 139442, "pitch": 60, "duration": 240, "velocity": 127}, {"time": 139682, "pitch": 67, "duration": 240, "velocity": 127}, {"time": 139922, "pitch": 62, "duration": 10, "velocity": 94}, {"time": 139922, "pitch": 69, "duration": 10, "velocity": 94}, {"time": 140042, "pitch": 65, "duration": 120, "velocity": 127}, {"time": 140162, "pitch": 62, "duration": 10, "velocity": 94}, {"time": 140162, "pitch": 69, "duration": 10, "velocity": 94}, {"time": 140282, "pitch": 62, "duration": 10, "velocity": 94}, {"time": 140282, "pitch": 69, "duration": 10, "velocity": 94}, {"time": 140402, "pitch": 53, "duration": 240, "velocity": 127}, {"time": 140642, "pitch": 60, "duration": 120, "velocity": 127}, {"time": 140882, "pitch": 60, "duration": 120, "velocity": 127}, {"time": 141122, "pitch": 62, "duration": 120, "velocity": 127}, {"time": 141362, "pitch": 62, "duration": 10, "velocity": 94}, {"time": 141362, "pitch": 69, "duration": 10, "velocity": 94}, {"time": 141482, "pitch": 62, "duration": 10, "velocity": 94}, {"time": 141482, "pitch": 69, "duration": 10, "velocity": 94}, {"time": 141602, "pitch": 72, "duration": 240, "velocity": 127}, {"time": 141842, "pitch": 72, "duration": 120, "velocity": 127}, {"time": 141962, "pitch": 72, "duration": 120, "velocity": 127}, {"time": 142202, "pitch": 70, "duration": 120, "velocity": 127}, {"time": 142322, "pitch": 62, "duration": 10, "velocity": 94}, {"time": 142322, "pitch": 69, "duration": 10, "velocity": 94}, {"time": 142442, "pitch": 62, "duration": 10, "velocity": 94}, {"time": 142442, "pitch": 69, "duration": 10, "velocity": 94}, {"time": 142562, "pitch": 74, "duration": 360, "velocity": 127}, {"time": 142922, "pitch": 72, "duration": 120, "velocity": 127}, {"time": 143042, "pitch": 62, "duration": 10, "velocity": 94}, {"time": 143042, "pitch": 69, "duration": 10, "velocity": 94}, {"time": 143162, "pitch": 62, "duration": 10, "velocity": 94}, {"time": 143162, "pitch": 69, "duration": 10, "velocity": 94}, {"time": 143282, "pitch": 60, "duration": 240, "velocity": 127}, {"time": 143522, "pitch": 67, "duration": 240, "velocity": 127}, {"time": 143762, "pitch": 62, "duration": 10, "velocity": 94}, {"time": 143762, "pitch": 69, "duration": 10, "velocity": 94}, {"time": 143882, "pitch": 65, "duration": 120, "velocity": 127}, {"time": 144002, "pitch": 62, "duration": 10, "velocity": 94}, {"time": 144002, "pitch": 69, "duration": 10, "velocity": 94}, {"time": 144122, "pitch": 62, "duration": 10, "velocity": 94}, {"time": 144122, "pitch": 69, "duration": 10, "velocity": 94}, {"time": 144242, "pitch": 53, "duration": 240, "velocity": 127}, {"time": 144482, "pitch": 60, "duration": 120, "velocity": 127}, {"time": 144722, "pitch": 60, "duration": 120, "velocity": 127}, {"time": 144962, "pitch": 62, "duration": 120, "velocity": 127}, {"time": 145202, "pitch": 62, "duration": 10, "velocity": 94}, {"time": 145202, "pitch": 69, "duration": 10, "velocity": 94}, {"time": 145322, "pitch": 62, "duration": 10, "velocity": 94}, {"time": 145322, "pitch": 69, "duration": 10, "velocity": 94}, {"time": 145442, "pitch": 67, "duration": 240, "velocity": 127}, {"time": 145682, "pitch": 67, "duration": 120, "velocity": 127}, {"time": 145802, "pitch": 67, "duration": 120, "velocity": 127}, {"time": 146042, "pitch": 65, "duration": 120, "velocity": 127}, {"time": 146162, "pitch": 62, "duration": 10, "velocity": 94}, {"time": 146162, "pitch": 69, "duration": 10, "velocity": 94}, {"time": 146282, "pitch": 62, "duration": 10, "velocity": 94}, {"time": 146282, "pitch": 69, "duration": 10, "velocity": 94}, {"time": 146402, "pitch": 74, "duration": 360, "velocity": 127}, {"time": 146762, "pitch": 72, "duration": 120, "velocity": 127}, {"time": 146882, "pitch": 62, "duration": 10, "velocity": 94}, {"time": 146882, "pitch": 69, "duration": 10, "velocity": 94}, {"time": 147002, "pitch": 62, "duration": 10, "velocity": 94}, {"time": 147002, "pitch": 69, "duration": 10, "velocity": 94}, {"time": 147122, "pitch": 60, "duration": 240, "velocity": 127}, {"time": 147362, "pitch": 67, "duration": 240, "velocity": 127}, {"time": 147602, "pitch": 62, "duration": 10, "velocity": 94}, {"time": 147602, "pitch": 69, "duration": 10, "velocity": 94}, {"time": 147722, "pitch": 65, "duration": 120, "velocity": 127}, {"time": 147842, "pitch": 62, "duration": 10, "velocity": 94}, {"time": 147842, "pitch": 69, "duration": 10, "velocity": 94}, {"time": 147962, "pitch": 62, "duration": 10, "velocity": 94}, {"time": 147962, "pitch": 69, "duration": 10, "velocity": 94}, {"time": 148082, "pitch": 53, "duration": 240, "velocity": 127}, {"time": 148322, "pitch": 60, "duration": 120, "velocity": 127}, {"time": 148562, "pitch": 60, "duration": 120, "velocity": 127}, {"time": 148802, "pitch": 62, "duration": 120, "velocity": 127}, {"time": 149042, "pitch": 62, "duration": 10, "velocity": 94}, {"time": 149042, "pitch": 69, "duration": 10, "velocity": 94}, {"time": 149162, "pitch": 62, "duration": 10, "velocity": 94}, {"time": 149162, "pitch": 69, "duration": 10, "velocity": 94}, {"time": 149282, "pitch": 72, "duration": 240, "velocity": 127}, {"time": 149522, "pitch": 72, "duration": 120, "velocity": 127}, {"time": 149642, "pitch": 72, "duration": 120, "velocity": 127}, {"time": 149882, "pitch": 70, "duration": 120, "velocity": 127}, {"time": 150002, "pitch": 62, "duration": 10, "velocity": 94}, {"time": 150002, "pitch": 69, "duration": 10, "velocity": 94}, {"time": 150122, "pitch": 62, "duration": 10, "velocity": 94}, {"time": 150122, "pitch": 69, "duration": 10, "velocity": 94}, {"time": 150242, "pitch": 74, "duration": 360, "velocity": 127}, {"time": 150602, "pitch": 72, "duration": 120, "velocity": 127}, {"time": 150722, "pitch": 62, "duration": 10, "velocity": 94}, {"time": 150722, "pitch": 69, "duration": 10, "velocity": 94}, {"time": 150842, "pitch": 62, "duration": 10, "velocity": 94}, {"time": 150842, "pitch": 69, "duration": 10, "velocity": 94}, {"time": 150962, "pitch": 60, "duration": 240, "velocity": 127}, {"time": 151202, "pitch": 67, "duration": 240, "velocity": 127}, {"time": 151442, "pitch": 62, "duration": 10, "velocity": 94}, {"time": 151442, "pitch": 69, "duration": 10, "velocity": 94}, {"time": 151562, "pitch": 65, "duration": 120, "velocity": 127}, {"time": 151682, "pitch": 62, "duration": 10, "velocity": 94}, {"time": 151682, "pitch": 69, "duration": 10, "velocity": 94}, {"time": 151802, "pitch": 62, "duration": 10, "velocity": 94}, {"time": 151802, "pitch": 69, "duration": 10, "velocity": 94}, {"time": 151922, "pitch": 53, "duration": 240, "velocity": 127}, {"time": 152162, "pitch": 60, "duration": 120, "velocity": 127}, {"time": 152402, "pitch": 60, "duration": 120, "velocity": 127}, {"time": 152642, "pitch": 62, "duration": 120, "velocity": 127}, {"time": 152882, "pitch": 62, "duration": 10, "velocity": 94}, {"time": 152882, "pitch": 69, "duration": 10, "velocity": 94}, {"time": 153002, "pitch": 62, "duration": 10, "velocity": 94}, {"time": 153002, "pitch": 69, "duration": 10, "velocity": 94}, {"time": 153122, "pitch": 67, "duration": 240, "velocity": 127}, {"time": 153362, "pitch": 67, "duration": 120, "velocity": 127}, {"time": 153482, "pitch": 67, "duration": 120, "velocity": 127}, {"time": 153722, "pitch": 65, "duration": 120, "velocity": 127}, {"time": 153842, "pitch": 62, "duration": 10, "velocity": 94}, {"time": 153842, "pitch": 69, "duration": 10, "velocity": 94}, {"time": 153962, "pitch": 62, "duration": 10, "velocity": 94}, {"time": 153962, "pitch": 69, "duration": 10, "velocity": 94}, {"time": 154082, "pitch": 74, "duration": 360, "velocity": 127}, {"time": 154442, "pitch": 72, "duration": 120, "velocity": 127}, {"time": 154562, "pitch": 62, "duration": 10, "velocity": 94}, {"time": 154562, "pitch": 69, "duration": 10, "velocity": 94}, {"time": 154682, "pitch": 62, "duration": 10, "velocity": 94}, {"time": 154682, "pitch": 69, "duration": 10, "velocity": 94}, {"time": 154802, "pitch": 60, "duration": 240, "velocity": 127}, {"time": 155042, "pitch": 67, "duration": 240, "velocity": 127}, {"time": 155282, "pitch": 62, "duration": 10, "velocity": 94}, {"time": 155282, "pitch": 69, "duration": 10, "velocity": 94}, {"time": 155402, "pitch": 65, "duration": 120, "velocity": 127}, {"time": 155522, "pitch": 62, "duration": 10, "velocity": 94}, {"time": 155522, "pitch": 69, "duration": 10, "velocity": 94}, {"time": 155642, "pitch": 62, "duration": 10, "velocity": 94}, {"time": 155642, "pitch": 69, "duration": 10, "velocity": 94}, {"time": 155762, "pitch": 53, "duration": 240, "velocity": 127}, {"time": 156002, "pitch": 60, "duration": 120, "velocity": 127}, {"time": 156242, "pitch": 60, "duration": 120, "velocity": 127}, {"time": 156482, "pitch": 62, "duration": 120, "velocity": 127}, {"time": 156722, "pitch": 62, "duration": 10, "velocity": 94}, {"time": 156722, "pitch": 69, "duration": 10, "velocity": 94}, {"time": 156842, "pitch": 62, "duration": 10, "velocity": 94}, {"time": 156842, "pitch": 69, "duration": 10, "velocity": 94}, {"time": 156962, "pitch": 72, "duration": 240, "velocity": 127}, {"time": 157202, "pitch": 72, "duration": 120, "velocity": 127}, {"time": 157322, "pitch": 72, "duration": 120, "velocity": 127}, {"time": 157562, "pitch": 70, "duration": 120, "velocity": 127}, {"time": 157682, "pitch": 62, "duration": 10, "velocity": 94}, {"time": 157682, "pitch": 69, "duration": 10, "velocity": 94}, {"time": 157802, "pitch": 62, "duration": 10, "velocity": 94}, {"time": 157802, "pitch": 69, "duration": 10, "velocity": 94}, {"time": 157922, "pitch": 74, "duration": 360, "velocity": 127}, {"time": 158282, "pitch": 72, "duration": 120, "velocity": 127}, {"time": 158402, "pitch": 62, "duration": 10, "velocity": 94}, {"time": 158402, "pitch": 69, "duration": 10, "velocity": 94}, {"time": 158522, "pitch": 62, "duration": 10, "velocity": 94}, {"time": 158522, "pitch": 69, "duration": 10, "velocity": 94}, {"time": 158642, "pitch": 60, "duration": 240, "velocity": 127}, {"time": 158882, "pitch": 67, "duration": 240, "velocity": 127}, {"time": 159122, "pitch": 62, "duration": 10, "velocity": 94}, {"time": 159122, "pitch": 69, "duration": 10, "velocity": 94}, {"time": 159242, "pitch": 65, "duration": 120, "velocity": 127}, {"time": 159362, "pitch": 62, "duration": 10, "velocity": 94}, {"time": 159362, "pitch": 69, "duration": 10, "velocity": 94}, {"time": 159482, "pitch": 62, "duration": 10, "velocity": 94}, {"time": 159482, "pitch": 69, "duration": 10, "velocity": 94}, {"time": 159602, "pitch": 53, "duration": 240, "velocity": 127}, {"time": 159842, "pitch": 60, "duration": 120, "velocity": 127}, {"time": 160082, "pitch": 60, "duration": 120, "velocity": 127}, {"time": 160322, "pitch": 62, "duration": 120, "velocity": 127}, {"time": 160562, "pitch": 62, "duration": 10, "velocity": 94}, {"time": 160562, "pitch": 69, "duration": 10, "velocity": 94}, {"time": 160682, "pitch": 62, "duration": 10, "velocity": 94}, {"time": 160682, "pitch": 69, "duration": 10, "velocity": 94}, {"time": 160802, "pitch": 67, "duration": 240, "velocity": 127}, {"time": 161042, "pitch": 67, "duration": 120, "velocity": 127}, {"time": 161162, "pitch": 67, "duration": 120, "velocity": 127}, {"time": 161402, "pitch": 65, "duration": 120, "velocity": 127}, {"time": 161522, "pitch": 62, "duration": 10, "velocity": 94}, {"time": 161522, "pitch": 69, "duration": 10, "velocity": 94}, {"time": 161642, "pitch": 62, "duration": 10, "velocity": 94}, {"time": 161642, "pitch": 69, "duration": 10, "velocity": 94}, {"time": 161762, "pitch": 74, "duration": 360, "velocity": 127}, {"time": 162122, "pitch": 72, "duration": 120, "velocity": 127}, {"time": 162242, "pitch": 62, "duration": 10, "velocity": 94}, {"time": 162242, "pitch": 69, "duration": 10, "velocity": 94}, {"time": 162362, "pitch": 62, "duration": 10, "velocity": 94}, {"time": 162362, "pitch": 69, "duration": 10, "velocity": 94}, {"time": 162482, "pitch": 60, "duration": 240, "velocity": 127}, {"time": 162722, "pitch": 67, "duration": 240, "velocity": 127}, {"time": 162962, "pitch": 62, "duration": 10, "velocity": 94}, {"time": 162962, "pitch": 69, "duration": 10, "velocity": 94}, {"time": 163082, "pitch": 65, "duration": 120, "velocity": 127}, {"time": 163202, "pitch": 62, "duration": 10, "velocity": 94}, {"time": 163202, "pitch": 69, "duration": 10, "velocity": 94}, {"time": 163322, "pitch": 62, "duration": 10, "velocity": 94}, {"time": 163322, "pitch": 69, "duration": 10, "velocity": 94}, {"time": 163442, "pitch": 53, "duration": 240, "velocity": 127}, {"time": 163682, "pitch": 60, "duration": 120, "velocity": 127}, {"time": 163922, "pitch": 60, "duration": 120, "velocity": 127}, {"time": 164162, "pitch": 62, "duration": 120, "velocity": 127}, {"time": 164402, "pitch": 62, "duration": 10, "velocity": 94}, {"time": 164402, "pitch": 69, "duration": 10, "velocity": 94}, {"time": 164522, "pitch": 62, "duration": 10, "velocity": 94}, {"time": 164522, "pitch": 69, "duration": 10, "velocity": 94}, {"time": 164642, "pitch": 72, "duration": 240, "velocity": 127}, {"time": 164882, "pitch": 72, "duration": 120, "velocity": 127}, {"time": 165002, "pitch": 72, "duration": 120, "velocity": 127}, {"time": 165242, "pitch": 70, "duration": 120, "velocity": 127}, {"time": 165362, "pitch": 62, "duration": 10, "velocity": 94}, {"time": 165362, "pitch": 69, "duration": 10, "velocity": 94}, {"time": 165482, "pitch": 62, "duration": 10, "velocity": 94}, {"time": 165482, "pitch": 69, "duration": 10, "velocity": 94}, {"time": 19682, "pitch": 48, "duration": 3840, "velocity": 120}, {"time": 19682, "pitch": 60, "duration": 3840, "velocity": 120}, {"time": 19682, "pitch": 72, "duration": 3840, "velocity": 120}, {"time": 27362, "pitch": 69, "duration": 360, "velocity": 127}, {"time": 27722, "pitch": 69, "duration": 120, "velocity": 127}, {"time": 28322, "pitch": 62, "duration": 240, "velocity": 127}, {"time": 28682, "pitch": 62, "duration": 120, "velocity": 127}, {"time": 29282, "pitch": 55, "duration": 10, "velocity": 84}, {"time": 29522, "pitch": 55, "duration": 10, "velocity": 84}, {"time": 30242, "pitch": 62, "duration": 240, "velocity": 127}, {"time": 30482, "pitch": 62, "duration": 120, "velocity": 127}, {"time": 30602, "pitch": 62, "duration": 120, "velocity": 127}, {"time": 30842, "pitch": 62, "duration": 120, "velocity": 127}, {"time": 31202, "pitch": 69, "duration": 360, "velocity": 127}, {"time": 31562, "pitch": 69, "duration": 120, "velocity": 127}, {"time": 32162, "pitch": 62, "duration": 240, "velocity": 127}, {"time": 32522, "pitch": 62, "duration": 120, "velocity": 127}, {"time": 33122, "pitch": 55, "duration": 10, "velocity": 84}, {"time": 33362, "pitch": 55, "duration": 10, "velocity": 84}, {"time": 34082, "pitch": 67, "duration": 240, "velocity": 127}, {"time": 34322, "pitch": 67, "duration": 120, "velocity": 127}, {"time": 34442, "pitch": 67, "duration": 120, "velocity": 127}, {"time": 34682, "pitch": 65, "duration": 120, "velocity": 127}, {"time": 35042, "pitch": 69, "duration": 360, "velocity": 127}, {"time": 35402, "pitch": 69, "duration": 120, "velocity": 127}, {"time": 36002, "pitch": 62, "duration": 240, "velocity": 127}, {"time": 36362, "pitch": 62, "duration": 120, "velocity": 127}, {"time": 36962, "pitch": 55, "duration": 10, "velocity": 84}, {"time": 37202, "pitch": 55, "duration": 10, "velocity": 84}, {"time": 37922, "pitch": 62, "duration": 240, "velocity": 127}, {"time": 38162, "pitch": 62, "duration": 120, "velocity": 127}, {"time": 38282, "pitch": 62, "duration": 120, "velocity": 127}, {"time": 38522, "pitch": 62, "duration": 120, "velocity": 127}, {"time": 38882, "pitch": 69, "duration": 360, "velocity": 127}, {"time": 39242, "pitch": 69, "duration": 120, "velocity": 127}, {"time": 39842, "pitch": 62, "duration": 240, "velocity": 127}, {"time": 40202, "pitch": 62, "duration": 120, "velocity": 127}, {"time": 40802, "pitch": 55, "duration": 10, "velocity": 84}, {"time": 41042, "pitch": 55, "duration": 10, "velocity": 84}, {"time": 41762, "pitch": 67, "duration": 240, "velocity": 127}, {"time": 42002, "pitch": 67, "duration": 120, "velocity": 127}, {"time": 42122, "pitch": 67, "duration": 120, "velocity": 127}, {"time": 42362, "pitch": 65, "duration": 120, "velocity": 127}, {"time": 42722, "pitch": 69, "duration": 360, "velocity": 127}, {"time": 43082, "pitch": 69, "duration": 120, "velocity": 127}, {"time": 43682, "pitch": 62, "duration": 240, "velocity": 127}, {"time": 44042, "pitch": 62, "duration": 120, "velocity": 127}, {"time": 44642, "pitch": 55, "duration": 10, "velocity": 84}, {"time": 44882, "pitch": 55, "duration": 10, "velocity": 84}, {"time": 45602, "pitch": 62, "duration": 240, "velocity": 127}, {"time": 45842, "pitch": 62, "duration": 120, "velocity": 127}, {"time": 45962, "pitch": 62, "duration": 120, "velocity": 127}, {"time": 46202, "pitch": 62, "duration": 120, "velocity": 127}, {"time": 46562, "pitch": 69, "duration": 360, "velocity": 127}, {"time": 46922, "pitch": 69, "duration": 120, "velocity": 127}, {"time": 47522, "pitch": 62, "duration": 240, "velocity": 127}, {"time": 47882, "pitch": 62, "duration": 120, "velocity": 127}, {"time": 48482, "pitch": 55, "duration": 10, "velocity": 84}, {"time": 48722, "pitch": 55, "duration": 10, "velocity": 84}, {"time": 49442, "pitch": 67, "duration": 240, "velocity": 127}, {"time": 49682, "pitch": 67, "duration": 120, "velocity": 127}, {"time": 49802, "pitch": 67, "duration": 120, "velocity": 127}, {"time": 50042, "pitch": 65, "duration": 120, "velocity": 127}, {"time": 50402, "pitch": 69, "duration": 360, "velocity": 127}, {"time": 50762, "pitch": 69, "duration": 120, "velocity": 127}, {"time": 51362, "pitch": 62, "duration": 240, "velocity": 127}, {"time": 51722, "pitch": 62, "duration": 120, "velocity": 127}, {"time": 52322, "pitch": 55, "duration": 10, "velocity": 84}, {"time": 52562, "pitch": 55, "duration": 10, "velocity": 84}, {"time": 53282, "pitch": 62, "duration": 240, "velocity": 127}, {"time": 53522, "pitch": 62, "duration": 120, "velocity": 127}, {"time": 53642, "pitch": 62, "duration": 120, "velocity": 127}, {"time": 53882, "pitch": 62, "duration": 120, "velocity": 127}, {"time": 54242, "pitch": 69, "duration": 360, "velocity": 127}, {"time": 54602, "pitch": 69, "duration": 120, "velocity": 127}, {"time": 55202, "pitch": 62, "duration": 240, "velocity": 127}, {"time": 55562, "pitch": 62, "duration": 120, "velocity": 127}, {"time": 56162, "pitch": 55, "duration": 10, "velocity": 84}, {"time": 56402, "pitch": 55, "duration": 10, "velocity": 84}, {"time": 57122, "pitch": 67, "duration": 240, "velocity": 127}, {"time": 57362, "pitch": 67, "duration": 120, "velocity": 127}, {"time": 57482, "pitch": 67, "duration": 120, "velocity": 127}, {"time": 57722, "pitch": 65, "duration": 120, "velocity": 127}, {"time": 58082, "pitch": 69, "duration": 360, "velocity": 127}, {"time": 58442, "pitch": 69, "duration": 120, "velocity": 127}, {"time": 59042, "pitch": 62, "duration": 240, "velocity": 127}, {"time": 59402, "pitch": 62, "duration": 120, "velocity": 127}, {"time": 60002, "pitch": 55, "duration": 10, "velocity": 84}, {"time": 60242, "pitch": 55, "duration": 10, "velocity": 84}, {"time": 60962, "pitch": 62, "duration": 240, "velocity": 127}, {"time": 61202, "pitch": 62, "duration": 120, "velocity": 127}, {"time": 61322, "pitch": 62, "duration": 120, "velocity": 127}, {"time": 61562, "pitch": 62, "duration": 120, "velocity": 127}, {"time": 61922, "pitch": 69, "duration": 360, "velocity": 127}, {"time": 62282, "pitch": 69, "duration": 120, "velocity": 127}, {"time": 62882, "pitch": 62, "duration": 240, "velocity": 127}, {"time": 63242, "pitch": 62, "duration": 120, "velocity": 127}, {"time": 63842, "pitch": 55, "duration": 10, "velocity": 84}, {"time": 64082, "pitch": 55, "duration": 10, "velocity": 84}, {"time": 64802, "pitch": 67, "duration": 240, "velocity": 127}, {"time": 65042, "pitch": 67, "duration": 120, "velocity": 127}, {"time": 65162, "pitch": 67, "duration": 120, "velocity": 127}, {"time": 65402, "pitch": 65, "duration": 120, "velocity": 127}, {"time": 65762, "pitch": 69, "duration": 360, "velocity": 127}, {"time": 66122, "pitch": 69, "duration": 120, "velocity": 127}, {"time": 66722, "pitch": 62, "duration": 240, "velocity": 127}, {"time": 67082, "pitch": 62, "duration": 120, "velocity": 127}, {"time": 67682, "pitch": 55, "duration": 10, "velocity": 84}, {"time": 67922, "pitch": 55, "duration": 10, "velocity": 84}, {"time": 68642, "pitch": 62, "duration": 240, "velocity": 127}, {"time": 68882, "pitch": 62, "duration": 120, "velocity": 127}, {"time": 69002, "pitch": 62, "duration": 120, "velocity": 127}, {"time": 69242, "pitch": 62, "duration": 120, "velocity": 127}, {"time": 69602, "pitch": 69, "duration": 360, "velocity": 127}, {"time": 69962, "pitch": 69, "duration": 120, "velocity": 127}, {"time": 70562, "pitch": 62, "duration": 240, "velocity": 127}, {"time": 70922, "pitch": 62, "duration": 120, "velocity": 127}, {"time": 71522, "pitch": 55, "duration": 10, "velocity": 84}, {"time": 71762, "pitch": 55, "duration": 10, "velocity": 84}, {"time": 72482, "pitch": 67, "duration": 240, "velocity": 127}, {"time": 72722, "pitch": 67, "duration": 120, "velocity": 127}, {"time": 72842, "pitch": 67, "duration": 120, "velocity": 127}, {"time": 73082, "pitch": 65, "duration": 120, "velocity": 127}, {"time": 73442, "pitch": 69, "duration": 360, "velocity": 127}, {"time": 73802, "pitch": 69, "duration": 120, "velocity": 127}, {"time": 74402, "pitch": 62, "duration": 240, "velocity": 127}, {"time": 74762, "pitch": 62, "duration": 120, "velocity": 127}, {"time": 75362, "pitch": 55, "duration": 10, "velocity": 84}, {"time": 75602, "pitch": 55, "duration": 10, "velocity": 84}, {"time": 76322, "pitch": 62, "duration": 240, "velocity": 127}, {"time": 76562, "pitch": 62, "duration": 120, "velocity": 127}, {"time": 76682, "pitch": 62, "duration": 120, "velocity": 127}, {"time": 76922, "pitch": 62, "duration": 120, "velocity": 127}, {"time": 77282, "pitch": 69, "duration": 360, "velocity": 127}, {"time": 77642, "pitch": 69, "duration": 120, "velocity": 127}, {"time": 78242, "pitch": 62, "duration": 240, "velocity": 127}, {"time": 78602, "pitch": 62, "duration": 120, "velocity": 127}, {"time": 79202, "pitch": 55, "duration": 10, "velocity": 84}, {"time": 79442, "pitch": 55, "duration": 10, "velocity": 84}, {"time": 80162, "pitch": 67, "duration": 240, "velocity": 127}, {"time": 80402, "pitch": 67, "duration": 120, "velocity": 127}, {"time": 80522, "pitch": 67, "duration": 120, "velocity": 127}, {"time": 80762, "pitch": 65, "duration": 120, "velocity": 127}, {"time": 81122, "pitch": 69, "duration": 360, "velocity": 127}, {"time": 81482, "pitch": 69, "duration": 120, "velocity": 127}, {"time": 82082, "pitch": 62, "duration": 240, "velocity": 127}, {"time": 82442, "pitch": 62, "duration": 120, "velocity": 127}, {"time": 83042, "pitch": 55, "duration": 10, "velocity": 84}, {"time": 83282, "pitch": 55, "duration": 10, "velocity": 84}, {"time": 84002, "pitch": 67, "duration": 240, "velocity": 127}, {"time": 84242, "pitch": 67, "duration": 120, "velocity": 127}, {"time": 84362, "pitch": 67, "duration": 120, "velocity": 127}, {"time": 84602, "pitch": 65, "duration": 120, "velocity": 127}, {"time": 84962, "pitch": 69, "duration": 360, "velocity": 127}, {"time": 85322, "pitch": 69, "duration": 120, "velocity": 127}, {"time": 85922, "pitch": 62, "duration": 240, "velocity": 127}, {"time": 86282, "pitch": 62, "duration": 120, "velocity": 127}, {"time": 86882, "pitch": 55, "duration": 10, "velocity": 84}, {"time": 87122, "pitch": 55, "duration": 10, "velocity": 84}, {"time": 87842, "pitch": 67, "duration": 240, "velocity": 127}, {"time": 88082, "pitch": 67, "duration": 120, "velocity": 127}, {"time": 88202, "pitch": 67, "duration": 120, "velocity": 127}, {"time": 88442, "pitch": 65, "duration": 120, "velocity": 127}, {"time": 88802, "pitch": 69, "duration": 360, "velocity": 127}, {"time": 89162, "pitch": 69, "duration": 120, "velocity": 127}, {"time": 89762, "pitch": 62, "duration": 240, "velocity": 127}, {"time": 90122, "pitch": 62, "duration": 120, "velocity": 127}, {"time": 90722, "pitch": 55, "duration": 10, "velocity": 84}, {"time": 90962, "pitch": 55, "duration": 10, "velocity": 84}, {"time": 91682, "pitch": 67, "duration": 240, "velocity": 127}, {"time": 91922, "pitch": 67, "duration": 120, "velocity": 127}, {"time": 92042, "pitch": 67, "duration": 120, "velocity": 127}, {"time": 92282, "pitch": 65, "duration": 120, "velocity": 127}, {"time": 92642, "pitch": 69, "duration": 360, "velocity": 127}, {"time": 93002, "pitch": 69, "duration": 120, "velocity": 127}, {"time": 93602, "pitch": 62, "duration": 240, "velocity": 127}, {"time": 93962, "pitch": 62, "duration": 120, "velocity": 127}, {"time": 94562, "pitch": 55, "duration": 10, "velocity": 84}, {"time": 94802, "pitch": 55, "duration": 10, "velocity": 84}, {"time": 95522, "pitch": 67, "duration": 240, "velocity": 127}, {"time": 95762, "pitch": 67, "duration": 120, "velocity": 127}, {"time": 95882, "pitch": 67, "duration": 120, "velocity": 127}, {"time": 96122, "pitch": 65, "duration": 120, "velocity": 127}, {"time": 134882, "pitch": 69, "duration": 360, "velocity": 127}, {"time": 135242, "pitch": 69, "duration": 120, "velocity": 127}, {"time": 135842, "pitch": 62, "duration": 240, "velocity": 127}, {"time": 136202, "pitch": 62, "duration": 120, "velocity": 127}, {"time": 136802, "pitch": 55, "duration": 10, "velocity": 84}, {"time": 137042, "pitch": 55, "duration": 10, "velocity": 84}, {"time": 137762, "pitch": 62, "duration": 240, "velocity": 127}, {"time": 138002, "pitch": 62, "duration": 120, "velocity": 127}, {"time": 138122, "pitch": 62, "duration": 120, "velocity": 127}, {"time": 138362, "pitch": 62, "duration": 120, "velocity": 127}, {"time": 138722, "pitch": 69, "duration": 360, "velocity": 127}, {"time": 139082, "pitch": 69, "duration": 120, "velocity": 127}, {"time": 139682, "pitch": 62, "duration": 240, "velocity": 127}, {"time": 140042, "pitch": 62, "duration": 120, "velocity": 127}, {"time": 140642, "pitch": 55, "duration": 10, "velocity": 84}, {"time": 140882, "pitch": 55, "duration": 10, "velocity": 84}, {"time": 141602, "pitch": 67, "duration": 240, "velocity": 127}, {"time": 141842, "pitch": 67, "duration": 120, "velocity": 127}, {"time": 141962, "pitch": 67, "duration": 120, "velocity": 127}, {"time": 142202, "pitch": 65, "duration": 120, "velocity": 127}, {"time": 142562, "pitch": 69, "duration": 360, "velocity": 127}, {"time": 142922, "pitch": 69, "duration": 120, "velocity": 127}, {"time": 143522, "pitch": 62, "duration": 240, "velocity": 127}, {"time": 143882, "pitch": 62, "duration": 120, "velocity": 127}, {"time": 144482, "pitch": 55, "duration": 10, "velocity": 84}, {"time": 144722, "pitch": 55, "duration": 10, "velocity": 84}, {"time": 145442, "pitch": 62, "duration": 240, "velocity": 127}, {"time": 145682, "pitch": 62, "duration": 120, "velocity": 127}, {"time": 145802, "pitch": 62, "duration": 120, "velocity": 127}, {"time": 146042, "pitch": 62, "duration": 120, "velocity": 127}, {"time": 146402, "pitch": 69, "duration": 360, "velocity": 127}, {"time": 146762, "pitch": 69, "duration": 120, "velocity": 127}, {"time": 147362, "pitch": 62, "duration": 240, "velocity": 127}, {"time": 147722, "pitch": 62, "duration": 120, "velocity": 127}, {"time": 148322, "pitch": 55, "duration": 10, "velocity": 84}, {"time": 148562, "pitch": 55, "duration": 10, "velocity": 84}, {"time": 149282, "pitch": 67, "duration": 240, "velocity": 127}, {"time": 149522, "pitch": 67, "duration": 120, "velocity": 127}, {"time": 149642, "pitch": 67, "duration": 120, "velocity": 127}, {"time": 149882, "pitch": 65, "duration": 120, "velocity": 127}, {"time": 150242, "pitch": 69, "duration": 360, "velocity": 127}, {"time": 150602, "pitch": 69, "duration": 120, "velocity": 127}, {"time": 151202, "pitch": 62, "duration": 240, "velocity": 127}, {"time": 151562, "pitch": 62, "duration": 120, "velocity": 127}, {"time": 152162, "pitch": 55, "duration": 10, "velocity": 84}, {"time": 152402, "pitch": 55, "duration": 10, "velocity": 84}, {"time": 153122, "pitch": 62, "duration": 240, "velocity": 127}, {"time": 153362, "pitch": 62, "duration": 120, "velocity": 127}, {"time": 153482, "pitch": 62, "duration": 120, "velocity": 127}, {"time": 153722, "pitch": 62, "duration": 120, "velocity": 127}, {"time": 154082, "pitch": 69, "duration": 360, "velocity": 127}, {"time": 154442, "pitch": 69, "duration": 120, "velocity": 127}, {"time": 155042, "pitch": 62, "duration": 240, "velocity": 127}, {"time": 155402, "pitch": 62, "duration": 120, "velocity": 127}, {"time": 156002, "pitch": 55, "duration": 10, "velocity": 84}, {"time": 156242, "pitch": 55, "duration": 10, "velocity": 84}, {"time": 156962, "pitch": 67, "duration": 240, "velocity": 127}, {"time": 157202, "pitch": 67, "duration": 120, "velocity": 127}, {"time": 157322, "pitch": 67, "duration": 120, "velocity": 127}, {"time": 157562, "pitch": 65, "duration": 120, "velocity": 127}, {"time": 157922, "pitch": 69, "duration": 360, "velocity": 127}, {"time": 158282, "pitch": 69, "duration": 120, "velocity": 127}, {"time": 158882, "pitch": 62, "duration": 240, "velocity": 127}, {"time": 159242, "pitch": 62, "duration": 120, "velocity": 127}, {"time": 159842, "pitch": 55, "duration": 10, "velocity": 84}, {"time": 160082, "pitch": 55, "duration": 10, "velocity": 84}, {"time": 160802, "pitch": 62, "duration": 240, "velocity": 127}, {"time": 161042, "pitch": 62, "duration": 120, "velocity": 127}, {"time": 161162, "pitch": 62, "duration": 120, "velocity": 127}, {"time": 161402, "pitch": 62, "duration": 120, "velocity": 127}, {"time": 161762, "pitch": 69, "duration": 360, "velocity": 127}, {"time": 162122, "pitch": 69, "duration": 120, "velocity": 127}, {"time": 162722, "pitch": 62, "duration": 240, "velocity": 127}, {"time": 163082, "pitch": 62, "duration": 120, "velocity": 127}, {"time": 163682, "pitch": 55, "duration": 10, "velocity": 84}, {"time": 163922, "pitch": 55, "duration": 10, "velocity": 84}, {"time": 164642, "pitch": 67, "duration": 240, "velocity": 127}, {"time": 164882, "pitch": 67, "duration": 120, "velocity": 127}, {"time": 165002, "pitch": 67, "duration": 120, "velocity": 127}, {"time": 165242, "pitch": 65, "duration": 120, "velocity": 127}, {"time": 481, "pitch": 36, "duration": 7675, "velocity": 120}, {"time": 481, "pitch": 48, "duration": 7675, "velocity": 120}, {"time": 481, "pitch": 67, "duration": 1921, "velocity": 120}, {"time": 481, "pitch": 72, "duration": 1921, "velocity": 120}, {"time": 481, "pitch": 75, "duration": 1921, "velocity": 120}, {"time": 2402, "pitch": 68, "duration": 1922, "velocity": 120}, {"time": 2402, "pitch": 72, "duration": 1922, "velocity": 120}, {"time": 2402, "pitch": 75, "duration": 1922, "velocity": 120}, {"time": 4324, "pitch": 70, "duration": 1921, "velocity": 120}, {"time": 4324, "pitch": 74, "duration": 1921, "velocity": 120}, {"time": 4324, "pitch": 77, "duration": 1921, "velocity": 120}, {"time": 6245, "pitch": 72, "duration": 1911, "velocity": 120}, {"time": 6245, "pitch": 75, "duration": 1911, "velocity": 120}, {"time": 6245, "pitch": 79, "duration": 1911, "velocity": 120}, {"time": 8156, "pitch": 36, "duration": 13446, "velocity": 120}, {"time": 8156, "pitch": 48, "duration": 13446, "velocity": 120}, {"time": 8156, "pitch": 67, "duration": 1921, "velocity": 120}, {"time": 8156, "pitch": 75, "duration": 1921, "velocity": 120}, {"time": 8156, "pitch": 87, "duration": 1921, "velocity": 120}, {"time": 10077, "pitch": 68, "duration": 1922, "velocity": 120}, {"time": 10077, "pitch": 72, "duration": 1922, "velocity": 120}, {"time": 10077, "pitch": 75, "duration": 1922, "velocity": 120}, {"time": 10077, "pitch": 89, "duration": 1922, "velocity": 120}, {"time": 11999, "pitch": 70, "duration": 1921, "velocity": 120}, {"time": 11999, "pitch": 74, "duration": 1921, "velocity": 120}, {"time": 11999, "pitch": 77, "duration": 1921, "velocity": 120}, {"time": 11999, "pitch": 86, "duration": 1921, "velocity": 120}, {"time": 13920, "pitch": 72, "duration": 7682, "velocity": 120}, {"time": 13920, "pitch": 75, "duration": 7682, "velocity": 120}, {"time": 13920, "pitch": 79, "duration": 7682, "velocity": 120}, {"time": 13920, "pitch": 91, "duration": 7682, "velocity": 120}, {"time": 50402, "pitch": 64, "duration": 1648, "velocity": 96}, {"time": 50762, "pitch": 67, "duration": 1369, "velocity": 127}, {"time": 51122, "pitch": 72, "duration": 1033, "velocity": 118}, {"time": 52322, "pitch": 64, "duration": 1572, "velocity": 127}, {"time": 52682, "pitch": 67, "duration": 1189, "velocity": 127}, {"time": 53042, "pitch": 72, "duration": 858, "velocity": 115}, {"time": 54242, "pitch": 62, "duration": 1610, "velocity": 118}, {"time": 54602, "pitch": 65, "duration": 1251, "velocity": 102}, {"time": 54962, "pitch": 70, "duration": 899, "velocity": 114}, {"time": 56162, "pitch": 62, "duration": 1624, "velocity": 127}, {"time": 56522, "pitch": 65, "duration": 1258, "velocity": 118}, {"time": 56882, "pitch": 70, "duration": 898, "velocity": 109}, {"time": 58082, "pitch": 64, "duration": 1648, "velocity": 96}, {"time": 58442, "pitch": 67, "duration": 1369, "velocity": 127}, {"time": 58802, "pitch": 72, "duration": 1033, "velocity": 118}, {"time": 60002, "pitch": 64, "duration": 1572, "velocity": 127}, {"time": 60362, "pitch": 67, "duration": 1189, "velocity": 127}, {"time": 60722, "pitch": 72, "duration": 858, "velocity": 115}, {"time": 61922, "pitch": 62, "duration": 1624, "velocity": 127}, {"time": 62282, "pitch": 65, "duration": 1258, "velocity": 118}, {"time": 62642, "pitch": 70, "duration": 898, "velocity": 109}, {"time": 63842, "pitch": 64, "duration": 1648, "velocity": 96}, {"time": 64202, "pitch": 67, "duration": 1369, "velocity": 127}, {"time": 64562, "pitch": 72, "duration": 1033, "velocity": 118}, {"time": 81122, "pitch": 64, "duration": 1648, "velocity": 96}, {"time": 81482, "pitch": 67, "duration": 1369, "velocity": 127}, {"time": 81842, "pitch": 72, "duration": 1033, "velocity": 118}, {"time": 83042, "pitch": 64, "duration": 1572, "velocity": 127}, {"time": 83402, "pitch": 67, "duration": 1189, "velocity": 127}, {"time": 83762, "pitch": 72, "duration": 858, "velocity": 115}, {"time": 84962, "pitch": 62, "duration": 1610, "velocity": 118}, {"time": 85322, "pitch": 65, "duration": 1251, "velocity": 102}, {"time": 85682, "pitch": 70, "duration": 899, "velocity": 114}, {"time": 86882, "pitch": 62, "duration": 1624, "velocity": 127}, {"time": 87242, "pitch": 65, "duration": 1258, "velocity": 118}, {"time": 87602, "pitch": 70, "duration": 898, "velocity": 109}, {"time": 88802, "pitch": 64, "duration": 1648, "velocity": 96}, {"time": 89162, "pitch": 67, "duration": 1369, "velocity": 127}, {"time": 89522, "pitch": 72, "duration": 1033, "velocity": 118}, {"time": 90722, "pitch": 64, "duration": 1572, "velocity": 127}, {"time": 91082, "pitch": 67, "duration": 1189, "velocity": 127}, {"time": 91442, "pitch": 72, "duration": 858, "velocity": 115}, {"time": 92642, "pitch": 62, "duration": 1624, "velocity": 127}, {"time": 93002, "pitch": 65, "duration": 1258, "velocity": 118}, {"time": 93362, "pitch": 70, "duration": 898, "velocity": 109}, {"time": 94562, "pitch": 64, "duration": 1648, "velocity": 96}, {"time": 94922, "pitch": 67, "duration": 1369, "velocity": 127}, {"time": 95282, "pitch": 72, "duration": 1033, "velocity": 118}, {"time": 150242, "pitch": 64, "duration": 1648, "velocity": 96}, {"time": 150602, "pitch": 67, "duration": 1369, "velocity": 127}, {"time": 150962, "pitch": 72, "duration": 1033, "velocity": 118}, {"time": 152162, "pitch": 64, "duration": 1572, "velocity": 127}, {"time": 152522, "pitch": 67, "duration": 1189, "velocity": 127}, {"time": 152882, "pitch": 72, "duration": 858, "velocity": 115}, {"time": 154082, "pitch": 62, "duration": 1610, "velocity": 118}, {"time": 154442, "pitch": 65, "duration": 1251, "velocity": 102}, {"time": 154802, "pitch": 70, "duration": 899, "velocity": 114}, {"time": 156002, "pitch": 62, "duration": 1624, "velocity": 127}, {"time": 156362, "pitch": 65, "duration": 1258, "velocity": 118}, {"time": 156722, "pitch": 70, "duration": 898, "velocity": 109}, {"time": 157922, "pitch": 64, "duration": 1648, "velocity": 96}, {"time": 158282, "pitch": 67, "duration": 1369, "velocity": 127}, {"time": 158642, "pitch": 72, "duration": 1033, "velocity": 118}, {"time": 159842, "pitch": 64, "duration": 1572, "velocity": 127}, {"time": 160202, "pitch": 67, "duration": 1189, "velocity": 127}, {"time": 160562, "pitch": 72, "duration": 858, "velocity": 115}, {"time": 161762, "pitch": 62, "duration": 1624, "velocity": 127}, {"time": 162122, "pitch": 65, "duration": 1258, "velocity": 118}, {"time": 162482, "pitch": 70, "duration": 898, "velocity": 109}, {"time": 163682, "pitch": 64, "duration": 1648, "velocity": 96}, {"time": 164042, "pitch": 67, "duration": 1369, "velocity": 127}, {"time": 164402, "pitch": 72, "duration": 1033, "velocity": 118}, {"time": 96482, "pitch": 43, "duration": 1920, "velocity": 127}, {"time": 98402, "pitch": 45, "duration": 1920, "velocity": 127}, {"time": 100322, "pitch": 46, "duration": 1920, "velocity": 127}, {"time": 102242, "pitch": 48, "duration": 1920, "velocity": 127}, {"time": 104162, "pitch": 43, "duration": 1920, "velocity": 127}, {"time": 106082, "pitch": 45, "duration": 1920, "velocity": 127}, {"time": 108002, "pitch": 46, "duration": 1920, "velocity": 127}, {"time": 109922, "pitch": 48, "duration": 1920, "velocity": 127}, {"time": 111842, "pitch": 41, "duration": 1920, "velocity": 127}, {"time": 113762, "pitch": 43, "duration": 1920, "velocity": 127}, {"time": 115682, "pitch": 46, "duration": 1920, "velocity": 127}, {"time": 117602, "pitch": 48, "duration": 960, "velocity": 127}, {"time": 118562, "pitch": 52, "duration": 120, "velocity": 127}, {"time": 118682, "pitch": 55, "duration": 120, "velocity": 127}, {"time": 118802, "pitch": 60, "duration": 120, "velocity": 127}, {"time": 118922, "pitch": 64, "duration": 120, "velocity": 127}, {"time": 119042, "pitch": 60, "duration": 120, "velocity": 127}, {"time": 119162, "pitch": 55, "duration": 120, "velocity": 127}, {"time": 119282, "pitch": 60, "duration": 120, "velocity": 127}, {"time": 119402, "pitch": 64, "duration": 120, "velocity": 127}, {"time": 119522, "pitch": 41, "duration": 1920, "velocity": 127}, {"time": 119522, "pitch": 60, "duration": 240, "velocity": 127}, {"time": 119762, "pitch": 59, "duration": 60, "velocity": 100}, {"time": 119822, "pitch": 58, "duration": 60, "velocity": 84}, {"time": 119882, "pitch": 57, "duration": 60, "velocity": 62}, {"time": 119942, "pitch": 56, "duration": 60, "velocity": 52}, {"time": 121442, "pitch": 43, "duration": 1920, "velocity": 127}, {"time": 123362, "pitch": 46, "duration": 1920, "velocity": 127}, {"time": 125282, "pitch": 48, "duration": 960, "velocity": 127}, {"time": 126242, "pitch": 52, "duration": 120, "velocity": 127}, {"time": 126362, "pitch": 55, "duration": 120, "velocity": 127}, {"time": 126482, "pitch": 60, "duration": 120, "velocity": 127}, {"time": 126602, "pitch": 64, "duration": 120, "velocity": 127}, {"time": 126722, "pitch": 60, "duration": 120, "velocity": 127}, {"time": 126842, "pitch": 55, "duration": 120, "velocity": 127}, {"time": 126962, "pitch": 60, "duration": 120, "velocity": 127}, {"time": 127082, "pitch": 64, "duration": 120, "velocity": 127}, {"time": 127202, "pitch": 41, "duration": 7680, "velocity": 127}, {"time": 127202, "pitch": 60, "duration": 240, "velocity": 127}, {"time": 127442, "pitch": 59, "duration": 60, "velocity": 100}, {"time": 127502, "pitch": 58, "duration": 60, "velocity": 84}, {"time": 127562, "pitch": 57, "duration": 60, "velocity": 62}, {"time": 127622, "pitch": 56, "duration": 60, "velocity": 52}, {"time": 165602, "pitch": 43, "duration": 1920, "velocity": 127}, {"time": 167522, "pitch": 45, "duration": 1920, "velocity": 127}, {"time": 169442, "pitch": 46, "duration": 1920, "velocity": 127}, {"time": 171362, "pitch": 48, "duration": 1920, "velocity": 127}, {"time": 173282, "pitch": 43, "duration": 1920, "velocity": 127}, {"time": 175202, "pitch": 45, "duration": 1920, "velocity": 127}, {"time": 177122, "pitch": 46, "duration": 1920, "velocity": 127}, {"time": 179042, "pitch": 48, "duration": 1920, "velocity": 127}, {"time": 180962, "pitch": 41, "duration": 1920, "velocity": 127}, {"time": 182882, "pitch": 43, "duration": 1920, "velocity": 127}, {"time": 184802, "pitch": 46, "duration": 1920, "velocity": 127}, {"time": 186722, "pitch": 48, "duration": 960, "velocity": 127}, {"time": 187682, "pitch": 52, "duration": 120, "velocity": 127}, {"time": 187802, "pitch": 55, "duration": 120, "velocity": 127}, {"time": 187922, "pitch": 60, "duration": 120, "velocity": 127}, {"time": 188042, "pitch": 64, "duration": 120, "velocity": 127}, {"time": 188162, "pitch": 60, "duration": 120, "velocity": 127}, {"time": 188282, "pitch": 55, "duration": 120, "velocity": 127}, {"time": 188402, "pitch": 60, "duration": 120, "velocity": 127}, {"time": 188522, "pitch": 64, "duration": 120, "velocity": 127}, {"time": 188642, "pitch": 41, "duration": 1920, "velocity": 127}, {"time": 188642, "pitch": 60, "duration": 240, "velocity": 127}, {"time": 188882, "pitch": 59, "duration": 60, "velocity": 100}, {"time": 188942, "pitch": 58, "duration": 60, "velocity": 84}, {"time": 189002, "pitch": 57, "duration": 60, "velocity": 62}, {"time": 189062, "pitch": 56, "duration": 60, "velocity": 52}, {"time": 190562, "pitch": 43, "duration": 1920, "velocity": 127}, {"time": 192482, "pitch": 46, "duration": 1920, "velocity": 127}, {"time": 194402, "pitch": 48, "duration": 960, "velocity": 127}, {"time": 195362, "pitch": 52, "duration": 120, "velocity": 127}, {"time": 195482, "pitch": 55, "duration": 120, "velocity": 127}, {"time": 195602, "pitch": 60, "duration": 120, "velocity": 127}, {"time": 195722, "pitch": 64, "duration": 120, "velocity": 127}, {"time": 195842, "pitch": 60, "duration": 120, "velocity": 127}, {"time": 195962, "pitch": 55, "duration": 120, "velocity": 127}, {"time": 196082, "pitch": 60, "duration": 120, "velocity": 127}, {"time": 196202, "pitch": 64, "duration": 120, "velocity": 127}, {"time": 196322, "pitch": 41, "duration": 7680, "velocity": 127}, {"time": 196322, "pitch": 60, "duration": 240, "velocity": 127}, {"time": 196562, "pitch": 59, "duration": 60, "velocity": 100}, {"time": 196622, "pitch": 58, "duration": 60, "velocity": 84}, {"time": 196682, "pitch": 57, "duration": 60, "velocity": 62}, {"time": 196742, "pitch": 56, "duration": 60, "velocity": 52}, {"time": 204002, "pitch": 41, "duration": 3840, "velocity": 127}]}]}