{"metadata": {"schema_version": "0.1", "title": "RWC-MDB-P-2001 No. 6: Funky Life / Oriken", "copyright": "RWC Music Database. Copyright (C) 2001 Real World Computing Partnership (contact: Masataka GOTO <m.goto@aist.go.jp>)", "source_filename": "RM-P006.SMF_SYNC.MID", "source_format": "midi"}, "resolution": 480, "tempos": [{"time": 0, "qpm": 59.40594059405941}, {"time": 480, "qpm": 120.0}, {"time": 27360, "qpm": 122.44897959183673}, {"time": 27840, "qpm": 117.6470588235294}, {"time": 28320, "qpm": 120.0}, {"time": 33120, "qpm": 117.6470588235294}, {"time": 33600, "qpm": 120.0}, {"time": 34080, "qpm": 122.44897959183673}, {"time": 34560, "qpm": 120.0}], "key_signatures": [{"time": 0, "root": 4, "mode": "major"}], "time_signatures": [{"time": 0, "numerator": 3, "denominator": 4}, {"time": 1440, "numerator": 4, "denominator": 4}, {"time": 147360, "numerator": 3, "denominator": 4}, {"time": 148800, "numerator": 4, "denominator": 4}], "tracks": [{"program": 0, "is_drum": false, "name": "Piano", "notes": [{"time": 14880, "pitch": 52, "duration": 160, "velocity": 127}, {"time": 14880, "pitch": 62, "duration": 150, "velocity": 117}, {"time": 14880, "pitch": 66, "duration": 150, "velocity": 122}, {"time": 14880, "pitch": 68, "duration": 140, "velocity": 112}, {"time": 16440, "pitch": 53, "duration": 320, "velocity": 127}, {"time": 16440, "pitch": 63, "duration": 320, "velocity": 112}, {"time": 16440, "pitch": 67, "duration": 320, "velocity": 122}, {"time": 16440, "pitch": 70, "duration": 330, "velocity": 117}, {"time": 16800, "pitch": 52, "duration": 1710, "velocity": 116}, {"time": 16800, "pitch": 62, "duration": 60, "velocity": 113}, {"time": 16800, "pitch": 66, "duration": 50, "velocity": 119}, {"time": 16800, "pitch": 69, "duration": 110, "velocity": 107}, {"time": 17040, "pitch": 62, "duration": 60, "velocity": 107}, {"time": 17040, "pitch": 66, "duration": 50, "velocity": 107}, {"time": 17040, "pitch": 69, "duration": 60, "velocity": 105}, {"time": 17280, "pitch": 62, "duration": 60, "velocity": 102}, {"time": 17280, "pitch": 66, "duration": 50, "velocity": 98}, {"time": 17280, "pitch": 69, "duration": 60, "velocity": 105}, {"time": 17520, "pitch": 62, "duration": 40, "velocity": 85}, {"time": 17520, "pitch": 66, "duration": 40, "velocity": 85}, {"time": 17520, "pitch": 69, "duration": 40, "velocity": 82}, {"time": 17640, "pitch": 62, "duration": 290, "velocity": 117}, {"time": 17640, "pitch": 66, "duration": 300, "velocity": 122}, {"time": 17640, "pitch": 69, "duration": 290, "velocity": 127}, {"time": 18000, "pitch": 62, "duration": 80, "velocity": 100}, {"time": 18000, "pitch": 66, "duration": 80, "velocity": 105}, {"time": 18000, "pitch": 69, "duration": 90, "velocity": 107}, {"time": 18240, "pitch": 62, "duration": 60, "velocity": 102}, {"time": 18240, "pitch": 66, "duration": 50, "velocity": 105}, {"time": 18240, "pitch": 69, "duration": 60, "velocity": 107}, {"time": 18480, "pitch": 62, "duration": 50, "velocity": 105}, {"time": 18480, "pitch": 66, "duration": 50, "velocity": 105}, {"time": 18480, "pitch": 69, "duration": 60, "velocity": 107}, {"time": 18600, "pitch": 52, "duration": 1890, "velocity": 110}, {"time": 18600, "pitch": 62, "duration": 270, "velocity": 122}, {"time": 18600, "pitch": 66, "duration": 280, "velocity": 122}, {"time": 18600, "pitch": 68, "duration": 280, "velocity": 127}, {"time": 18960, "pitch": 62, "duration": 70, "velocity": 80}, {"time": 18960, "pitch": 66, "duration": 70, "velocity": 85}, {"time": 18960, "pitch": 68, "duration": 70, "velocity": 70}, {"time": 19200, "pitch": 62, "duration": 80, "velocity": 105}, {"time": 19200, "pitch": 66, "duration": 80, "velocity": 105}, {"time": 19200, "pitch": 68, "duration": 70, "velocity": 93}, {"time": 19440, "pitch": 62, "duration": 40, "velocity": 52}, {"time": 19440, "pitch": 66, "duration": 40, "velocity": 55}, {"time": 19440, "pitch": 68, "duration": 50, "velocity": 54}, {"time": 19560, "pitch": 62, "duration": 270, "velocity": 122}, {"time": 19560, "pitch": 66, "duration": 270, "velocity": 127}, {"time": 19560, "pitch": 68, "duration": 280, "velocity": 119}, {"time": 19920, "pitch": 62, "duration": 80, "velocity": 98}, {"time": 19920, "pitch": 66, "duration": 80, "velocity": 89}, {"time": 19920, "pitch": 68, "duration": 90, "velocity": 85}, {"time": 20160, "pitch": 62, "duration": 70, "velocity": 93}, {"time": 20160, "pitch": 66, "duration": 70, "velocity": 100}, {"time": 20160, "pitch": 68, "duration": 80, "velocity": 89}, {"time": 20400, "pitch": 62, "duration": 70, "velocity": 100}, {"time": 20400, "pitch": 66, "duration": 70, "velocity": 105}, {"time": 20400, "pitch": 68, "duration": 50, "velocity": 87}, {"time": 20520, "pitch": 52, "duration": 1870, "velocity": 113}, {"time": 20520, "pitch": 62, "duration": 260, "velocity": 119}, {"time": 20520, "pitch": 66, "duration": 290, "velocity": 116}, {"time": 20520, "pitch": 69, "duration": 270, "velocity": 116}, {"time": 20880, "pitch": 62, "duration": 70, "velocity": 98}, {"time": 20880, "pitch": 66, "duration": 60, "velocity": 100}, {"time": 20880, "pitch": 69, "duration": 80, "velocity": 105}, {"time": 21120, "pitch": 62, "duration": 70, "velocity": 102}, {"time": 21120, "pitch": 66, "duration": 60, "velocity": 105}, {"time": 21120, "pitch": 69, "duration": 60, "velocity": 107}, {"time": 21360, "pitch": 62, "duration": 80, "velocity": 100}, {"time": 21360, "pitch": 66, "duration": 80, "velocity": 102}, {"time": 21360, "pitch": 69, "duration": 80, "velocity": 105}, {"time": 21600, "pitch": 62, "duration": 70, "velocity": 105}, {"time": 21600, "pitch": 66, "duration": 60, "velocity": 105}, {"time": 21600, "pitch": 69, "duration": 70, "velocity": 110}, {"time": 21840, "pitch": 62, "duration": 70, "velocity": 100}, {"time": 21840, "pitch": 66, "duration": 70, "velocity": 102}, {"time": 21840, "pitch": 69, "duration": 60, "velocity": 105}, {"time": 22080, "pitch": 62, "duration": 70, "velocity": 100}, {"time": 22080, "pitch": 66, "duration": 60, "velocity": 102}, {"time": 22080, "pitch": 69, "duration": 70, "velocity": 107}, {"time": 22320, "pitch": 62, "duration": 60, "velocity": 100}, {"time": 22320, "pitch": 66, "duration": 50, "velocity": 100}, {"time": 22320, "pitch": 69, "duration": 60, "velocity": 105}, {"time": 22440, "pitch": 52, "duration": 1170, "velocity": 105}, {"time": 22440, "pitch": 62, "duration": 270, "velocity": 116}, {"time": 22440, "pitch": 66, "duration": 280, "velocity": 119}, {"time": 22440, "pitch": 68, "duration": 280, "velocity": 116}, {"time": 22800, "pitch": 62, "duration": 80, "velocity": 100}, {"time": 22800, "pitch": 66, "duration": 80, "velocity": 105}, {"time": 22800, "pitch": 68, "duration": 90, "velocity": 91}, {"time": 23040, "pitch": 62, "duration": 60, "velocity": 107}, {"time": 23040, "pitch": 66, "duration": 70, "velocity": 107}, {"time": 23040, "pitch": 68, "duration": 70, "velocity": 105}, {"time": 23280, "pitch": 62, "duration": 60, "velocity": 95}, {"time": 23280, "pitch": 66, "duration": 60, "velocity": 98}, {"time": 23280, "pitch": 68, "duration": 60, "velocity": 85}, {"time": 23520, "pitch": 62, "duration": 60, "velocity": 102}, {"time": 23520, "pitch": 66, "duration": 60, "velocity": 105}, {"time": 23520, "pitch": 68, "duration": 50, "velocity": 93}, {"time": 23640, "pitch": 52, "duration": 140, "velocity": 85}, {"time": 23640, "pitch": 62, "duration": 60, "velocity": 127}, {"time": 23640, "pitch": 66, "duration": 80, "velocity": 127}, {"time": 23640, "pitch": 68, "duration": 90, "velocity": 122}, {"time": 23880, "pitch": 52, "duration": 140, "velocity": 119}, {"time": 23880, "pitch": 62, "duration": 90, "velocity": 119}, {"time": 23880, "pitch": 66, "duration": 70, "velocity": 122}, {"time": 23880, "pitch": 68, "duration": 90, "velocity": 116}, {"time": 24120, "pitch": 52, "duration": 120, "velocity": 116}, {"time": 24120, "pitch": 62, "duration": 70, "velocity": 119}, {"time": 24120, "pitch": 66, "duration": 80, "velocity": 122}, {"time": 24120, "pitch": 68, "duration": 80, "velocity": 107}, {"time": 24360, "pitch": 52, "duration": 120, "velocity": 116}, {"time": 24360, "pitch": 62, "duration": 70, "velocity": 119}, {"time": 24360, "pitch": 66, "duration": 80, "velocity": 122}, {"time": 24360, "pitch": 68, "duration": 80, "velocity": 107}, {"time": 24480, "pitch": 52, "duration": 1800, "velocity": 127}, {"time": 24480, "pitch": 62, "duration": 60, "velocity": 113}, {"time": 24480, "pitch": 66, "duration": 50, "velocity": 119}, {"time": 24480, "pitch": 69, "duration": 110, "velocity": 107}, {"time": 24720, "pitch": 62, "duration": 60, "velocity": 107}, {"time": 24720, "pitch": 66, "duration": 50, "velocity": 107}, {"time": 24720, "pitch": 69, "duration": 60, "velocity": 105}, {"time": 24960, "pitch": 62, "duration": 60, "velocity": 102}, {"time": 24960, "pitch": 66, "duration": 50, "velocity": 98}, {"time": 24960, "pitch": 69, "duration": 60, "velocity": 105}, {"time": 25200, "pitch": 62, "duration": 40, "velocity": 85}, {"time": 25200, "pitch": 66, "duration": 40, "velocity": 85}, {"time": 25200, "pitch": 69, "duration": 40, "velocity": 82}, {"time": 25320, "pitch": 62, "duration": 290, "velocity": 117}, {"time": 25320, "pitch": 66, "duration": 300, "velocity": 122}, {"time": 25320, "pitch": 69, "duration": 290, "velocity": 127}, {"time": 25680, "pitch": 62, "duration": 80, "velocity": 100}, {"time": 25680, "pitch": 66, "duration": 80, "velocity": 105}, {"time": 25680, "pitch": 69, "duration": 90, "velocity": 107}, {"time": 25920, "pitch": 62, "duration": 60, "velocity": 102}, {"time": 25920, "pitch": 66, "duration": 50, "velocity": 105}, {"time": 25920, "pitch": 69, "duration": 60, "velocity": 107}, {"time": 26160, "pitch": 62, "duration": 50, "velocity": 105}, {"time": 26160, "pitch": 66, "duration": 50, "velocity": 105}, {"time": 26160, "pitch": 69, "duration": 60, "velocity": 107}, {"time": 26280, "pitch": 52, "duration": 1890, "velocity": 110}, {"time": 26280, "pitch": 62, "duration": 270, "velocity": 122}, {"time": 26280, "pitch": 66, "duration": 280, "velocity": 122}, {"time": 26280, "pitch": 68, "duration": 280, "velocity": 127}, {"time": 26640, "pitch": 62, "duration": 70, "velocity": 80}, {"time": 26640, "pitch": 66, "duration": 70, "velocity": 85}, {"time": 26640, "pitch": 68, "duration": 70, "velocity": 70}, {"time": 26880, "pitch": 62, "duration": 80, "velocity": 105}, {"time": 26880, "pitch": 66, "duration": 80, "velocity": 105}, {"time": 26880, "pitch": 68, "duration": 70, "velocity": 93}, {"time": 27120, "pitch": 62, "duration": 40, "velocity": 52}, {"time": 27120, "pitch": 66, "duration": 40, "velocity": 55}, {"time": 27120, "pitch": 68, "duration": 50, "velocity": 54}, {"time": 27240, "pitch": 62, "duration": 270, "velocity": 122}, {"time": 27240, "pitch": 66, "duration": 270, "velocity": 127}, {"time": 27240, "pitch": 68, "duration": 280, "velocity": 119}, {"time": 27600, "pitch": 62, "duration": 80, "velocity": 98}, {"time": 27600, "pitch": 66, "duration": 80, "velocity": 89}, {"time": 27600, "pitch": 68, "duration": 90, "velocity": 85}, {"time": 27840, "pitch": 62, "duration": 70, "velocity": 93}, {"time": 27840, "pitch": 66, "duration": 70, "velocity": 100}, {"time": 27840, "pitch": 68, "duration": 80, "velocity": 89}, {"time": 28080, "pitch": 62, "duration": 70, "velocity": 100}, {"time": 28080, "pitch": 66, "duration": 70, "velocity": 105}, {"time": 28080, "pitch": 68, "duration": 50, "velocity": 87}, {"time": 28200, "pitch": 52, "duration": 1870, "velocity": 113}, {"time": 28200, "pitch": 62, "duration": 260, "velocity": 119}, {"time": 28200, "pitch": 66, "duration": 290, "velocity": 116}, {"time": 28200, "pitch": 69, "duration": 270, "velocity": 116}, {"time": 28560, "pitch": 62, "duration": 70, "velocity": 98}, {"time": 28560, "pitch": 66, "duration": 60, "velocity": 100}, {"time": 28560, "pitch": 69, "duration": 80, "velocity": 105}, {"time": 28800, "pitch": 62, "duration": 70, "velocity": 102}, {"time": 28800, "pitch": 66, "duration": 60, "velocity": 105}, {"time": 28800, "pitch": 69, "duration": 60, "velocity": 107}, {"time": 29040, "pitch": 62, "duration": 80, "velocity": 100}, {"time": 29040, "pitch": 66, "duration": 80, "velocity": 102}, {"time": 29040, "pitch": 69, "duration": 80, "velocity": 105}, {"time": 29280, "pitch": 62, "duration": 70, "velocity": 105}, {"time": 29280, "pitch": 66, "duration": 60, "velocity": 105}, {"time": 29280, "pitch": 69, "duration": 70, "velocity": 110}, {"time": 29520, "pitch": 62, "duration": 70, "velocity": 100}, {"time": 29520, "pitch": 66, "duration": 70, "velocity": 102}, {"time": 29520, "pitch": 69, "duration": 60, "velocity": 105}, {"time": 29760, "pitch": 62, "duration": 70, "velocity": 100}, {"time": 29760, "pitch": 66, "duration": 60, "velocity": 102}, {"time": 29760, "pitch": 69, "duration": 70, "velocity": 107}, {"time": 30000, "pitch": 62, "duration": 60, "velocity": 100}, {"time": 30000, "pitch": 66, "duration": 50, "velocity": 100}, {"time": 30000, "pitch": 69, "duration": 60, "velocity": 105}, {"time": 30120, "pitch": 52, "duration": 1170, "velocity": 105}, {"time": 30120, "pitch": 62, "duration": 270, "velocity": 116}, {"time": 30120, "pitch": 66, "duration": 280, "velocity": 119}, {"time": 30120, "pitch": 68, "duration": 280, "velocity": 116}, {"time": 30480, "pitch": 62, "duration": 80, "velocity": 100}, {"time": 30480, "pitch": 66, "duration": 80, "velocity": 105}, {"time": 30480, "pitch": 68, "duration": 90, "velocity": 91}, {"time": 30720, "pitch": 62, "duration": 60, "velocity": 107}, {"time": 30720, "pitch": 66, "duration": 70, "velocity": 107}, {"time": 30720, "pitch": 68, "duration": 70, "velocity": 105}, {"time": 30960, "pitch": 62, "duration": 60, "velocity": 95}, {"time": 30960, "pitch": 66, "duration": 60, "velocity": 98}, {"time": 30960, "pitch": 68, "duration": 60, "velocity": 85}, {"time": 31200, "pitch": 62, "duration": 60, "velocity": 102}, {"time": 31200, "pitch": 66, "duration": 60, "velocity": 105}, {"time": 31200, "pitch": 68, "duration": 50, "velocity": 93}, {"time": 31320, "pitch": 52, "duration": 140, "velocity": 85}, {"time": 31320, "pitch": 62, "duration": 60, "velocity": 127}, {"time": 31320, "pitch": 66, "duration": 80, "velocity": 127}, {"time": 31320, "pitch": 68, "duration": 90, "velocity": 122}, {"time": 31560, "pitch": 52, "duration": 140, "velocity": 119}, {"time": 31560, "pitch": 62, "duration": 90, "velocity": 119}, {"time": 31560, "pitch": 66, "duration": 70, "velocity": 122}, {"time": 31560, "pitch": 68, "duration": 90, "velocity": 116}, {"time": 31800, "pitch": 52, "duration": 120, "velocity": 116}, {"time": 31800, "pitch": 62, "duration": 70, "velocity": 119}, {"time": 31800, "pitch": 66, "duration": 80, "velocity": 122}, {"time": 31800, "pitch": 68, "duration": 80, "velocity": 107}, {"time": 32040, "pitch": 52, "duration": 1850, "velocity": 116}, {"time": 32040, "pitch": 62, "duration": 70, "velocity": 119}, {"time": 32040, "pitch": 66, "duration": 80, "velocity": 122}, {"time": 32040, "pitch": 68, "duration": 80, "velocity": 107}, {"time": 32160, "pitch": 62, "duration": 60, "velocity": 113}, {"time": 32160, "pitch": 66, "duration": 50, "velocity": 119}, {"time": 32160, "pitch": 69, "duration": 110, "velocity": 107}, {"time": 32400, "pitch": 62, "duration": 60, "velocity": 107}, {"time": 32400, "pitch": 66, "duration": 50, "velocity": 107}, {"time": 32400, "pitch": 69, "duration": 60, "velocity": 105}, {"time": 32640, "pitch": 62, "duration": 60, "velocity": 102}, {"time": 32640, "pitch": 66, "duration": 50, "velocity": 98}, {"time": 32640, "pitch": 69, "duration": 60, "velocity": 105}, {"time": 32880, "pitch": 62, "duration": 40, "velocity": 85}, {"time": 32880, "pitch": 66, "duration": 40, "velocity": 85}, {"time": 32880, "pitch": 69, "duration": 40, "velocity": 82}, {"time": 33000, "pitch": 62, "duration": 290, "velocity": 117}, {"time": 33000, "pitch": 66, "duration": 300, "velocity": 122}, {"time": 33000, "pitch": 69, "duration": 290, "velocity": 127}, {"time": 33360, "pitch": 62, "duration": 80, "velocity": 100}, {"time": 33360, "pitch": 66, "duration": 80, "velocity": 105}, {"time": 33360, "pitch": 69, "duration": 90, "velocity": 107}, {"time": 33600, "pitch": 62, "duration": 60, "velocity": 102}, {"time": 33600, "pitch": 66, "duration": 50, "velocity": 105}, {"time": 33600, "pitch": 69, "duration": 60, "velocity": 107}, {"time": 33840, "pitch": 62, "duration": 50, "velocity": 105}, {"time": 33840, "pitch": 66, "duration": 50, "velocity": 105}, {"time": 33840, "pitch": 69, "duration": 60, "velocity": 107}, {"time": 33960, "pitch": 52, "duration": 1890, "velocity": 110}, {"time": 33960, "pitch": 62, "duration": 270, "velocity": 122}, {"time": 33960, "pitch": 66, "duration": 280, "velocity": 122}, {"time": 33960, "pitch": 68, "duration": 280, "velocity": 127}, {"time": 34320, "pitch": 62, "duration": 70, "velocity": 80}, {"time": 34320, "pitch": 66, "duration": 70, "velocity": 85}, {"time": 34320, "pitch": 68, "duration": 70, "velocity": 70}, {"time": 34560, "pitch": 62, "duration": 80, "velocity": 105}, {"time": 34560, "pitch": 66, "duration": 80, "velocity": 105}, {"time": 34560, "pitch": 68, "duration": 70, "velocity": 93}, {"time": 34800, "pitch": 62, "duration": 40, "velocity": 52}, {"time": 34800, "pitch": 66, "duration": 40, "velocity": 55}, {"time": 34800, "pitch": 68, "duration": 50, "velocity": 54}, {"time": 34920, "pitch": 62, "duration": 270, "velocity": 122}, {"time": 34920, "pitch": 66, "duration": 270, "velocity": 127}, {"time": 34920, "pitch": 68, "duration": 280, "velocity": 119}, {"time": 35280, "pitch": 62, "duration": 80, "velocity": 98}, {"time": 35280, "pitch": 66, "duration": 80, "velocity": 89}, {"time": 35280, "pitch": 68, "duration": 90, "velocity": 85}, {"time": 35520, "pitch": 62, "duration": 70, "velocity": 93}, {"time": 35520, "pitch": 66, "duration": 70, "velocity": 100}, {"time": 35520, "pitch": 68, "duration": 80, "velocity": 89}, {"time": 35760, "pitch": 62, "duration": 70, "velocity": 100}, {"time": 35760, "pitch": 66, "duration": 70, "velocity": 105}, {"time": 35760, "pitch": 68, "duration": 50, "velocity": 87}, {"time": 35880, "pitch": 52, "duration": 1870, "velocity": 113}, {"time": 35880, "pitch": 62, "duration": 260, "velocity": 119}, {"time": 35880, "pitch": 66, "duration": 290, "velocity": 116}, {"time": 35880, "pitch": 69, "duration": 270, "velocity": 116}, {"time": 36240, "pitch": 62, "duration": 70, "velocity": 98}, {"time": 36240, "pitch": 66, "duration": 60, "velocity": 100}, {"time": 36240, "pitch": 69, "duration": 80, "velocity": 105}, {"time": 36480, "pitch": 62, "duration": 70, "velocity": 102}, {"time": 36480, "pitch": 66, "duration": 60, "velocity": 105}, {"time": 36480, "pitch": 69, "duration": 60, "velocity": 107}, {"time": 36720, "pitch": 62, "duration": 80, "velocity": 100}, {"time": 36720, "pitch": 66, "duration": 80, "velocity": 102}, {"time": 36720, "pitch": 69, "duration": 80, "velocity": 105}, {"time": 36960, "pitch": 62, "duration": 70, "velocity": 105}, {"time": 36960, "pitch": 66, "duration": 60, "velocity": 105}, {"time": 36960, "pitch": 69, "duration": 70, "velocity": 110}, {"time": 37200, "pitch": 62, "duration": 70, "velocity": 100}, {"time": 37200, "pitch": 66, "duration": 70, "velocity": 102}, {"time": 37200, "pitch": 69, "duration": 60, "velocity": 105}, {"time": 37440, "pitch": 62, "duration": 70, "velocity": 100}, {"time": 37440, "pitch": 66, "duration": 60, "velocity": 102}, {"time": 37440, "pitch": 69, "duration": 70, "velocity": 107}, {"time": 37680, "pitch": 62, "duration": 60, "velocity": 100}, {"time": 37680, "pitch": 66, "duration": 50, "velocity": 100}, {"time": 37680, "pitch": 69, "duration": 60, "velocity": 105}, {"time": 37800, "pitch": 52, "duration": 1170, "velocity": 105}, {"time": 37800, "pitch": 62, "duration": 270, "velocity": 116}, {"time": 37800, "pitch": 66, "duration": 280, "velocity": 119}, {"time": 37800, "pitch": 68, "duration": 280, "velocity": 116}, {"time": 38160, "pitch": 62, "duration": 80, "velocity": 100}, {"time": 38160, "pitch": 66, "duration": 80, "velocity": 105}, {"time": 38160, "pitch": 68, "duration": 90, "velocity": 91}, {"time": 38400, "pitch": 62, "duration": 60, "velocity": 107}, {"time": 38400, "pitch": 66, "duration": 70, "velocity": 107}, {"time": 38400, "pitch": 68, "duration": 70, "velocity": 105}, {"time": 38640, "pitch": 62, "duration": 60, "velocity": 95}, {"time": 38640, "pitch": 66, "duration": 60, "velocity": 98}, {"time": 38640, "pitch": 68, "duration": 60, "velocity": 85}, {"time": 38880, "pitch": 62, "duration": 60, "velocity": 102}, {"time": 38880, "pitch": 66, "duration": 60, "velocity": 105}, {"time": 38880, "pitch": 68, "duration": 50, "velocity": 93}, {"time": 39000, "pitch": 52, "duration": 140, "velocity": 85}, {"time": 39000, "pitch": 62, "duration": 60, "velocity": 127}, {"time": 39000, "pitch": 66, "duration": 80, "velocity": 127}, {"time": 39000, "pitch": 68, "duration": 90, "velocity": 122}, {"time": 39240, "pitch": 52, "duration": 110, "velocity": 119}, {"time": 39240, "pitch": 62, "duration": 90, "velocity": 119}, {"time": 39240, "pitch": 66, "duration": 70, "velocity": 122}, {"time": 39240, "pitch": 68, "duration": 90, "velocity": 116}, {"time": 39360, "pitch": 52, "duration": 120, "velocity": 116}, {"time": 39360, "pitch": 62, "duration": 70, "velocity": 119}, {"time": 39360, "pitch": 66, "duration": 80, "velocity": 122}, {"time": 39360, "pitch": 68, "duration": 80, "velocity": 107}, {"time": 39840, "pitch": 49, "duration": 1490, "velocity": 95}, {"time": 39840, "pitch": 52, "duration": 1470, "velocity": 90}, {"time": 39840, "pitch": 56, "duration": 620, "velocity": 112}, {"time": 39840, "pitch": 59, "duration": 640, "velocity": 115}, {"time": 39840, "pitch": 63, "duration": 630, "velocity": 95}, {"time": 40560, "pitch": 56, "duration": 80, "velocity": 99}, {"time": 40560, "pitch": 59, "duration": 100, "velocity": 115}, {"time": 40560, "pitch": 64, "duration": 90, "velocity": 112}, {"time": 41040, "pitch": 56, "duration": 100, "velocity": 108}, {"time": 41040, "pitch": 59, "duration": 100, "velocity": 115}, {"time": 41040, "pitch": 64, "duration": 110, "velocity": 112}, {"time": 41520, "pitch": 54, "duration": 2090, "velocity": 108}, {"time": 41520, "pitch": 56, "duration": 2100, "velocity": 97}, {"time": 41520, "pitch": 58, "duration": 2100, "velocity": 99}, {"time": 41520, "pitch": 61, "duration": 2110, "velocity": 119}, {"time": 41520, "pitch": 64, "duration": 2120, "velocity": 115}, {"time": 43680, "pitch": 49, "duration": 1490, "velocity": 95}, {"time": 43680, "pitch": 52, "duration": 1470, "velocity": 90}, {"time": 43680, "pitch": 56, "duration": 620, "velocity": 117}, {"time": 43680, "pitch": 59, "duration": 640, "velocity": 115}, {"time": 43680, "pitch": 63, "duration": 630, "velocity": 95}, {"time": 44400, "pitch": 56, "duration": 90, "velocity": 99}, {"time": 44400, "pitch": 59, "duration": 100, "velocity": 115}, {"time": 44400, "pitch": 64, "duration": 90, "velocity": 112}, {"time": 44880, "pitch": 56, "duration": 100, "velocity": 108}, {"time": 44880, "pitch": 59, "duration": 100, "velocity": 115}, {"time": 44880, "pitch": 64, "duration": 110, "velocity": 112}, {"time": 45360, "pitch": 54, "duration": 2090, "velocity": 107}, {"time": 45360, "pitch": 56, "duration": 2100, "velocity": 96}, {"time": 45360, "pitch": 58, "duration": 2100, "velocity": 98}, {"time": 45360, "pitch": 61, "duration": 2110, "velocity": 118}, {"time": 45360, "pitch": 64, "duration": 2120, "velocity": 114}, {"time": 47520, "pitch": 47, "duration": 630, "velocity": 108}, {"time": 47520, "pitch": 57, "duration": 620, "velocity": 117}, {"time": 47520, "pitch": 61, "duration": 610, "velocity": 115}, {"time": 47520, "pitch": 65, "duration": 600, "velocity": 117}, {"time": 48240, "pitch": 47, "duration": 1150, "velocity": 105}, {"time": 48240, "pitch": 57, "duration": 1130, "velocity": 118}, {"time": 48240, "pitch": 59, "duration": 1090, "velocity": 111}, {"time": 48240, "pitch": 64, "duration": 1020, "velocity": 118}, {"time": 49440, "pitch": 47, "duration": 140, "velocity": 117}, {"time": 49440, "pitch": 57, "duration": 150, "velocity": 120}, {"time": 49440, "pitch": 63, "duration": 160, "velocity": 117}, {"time": 49440, "pitch": 66, "duration": 150, "velocity": 117}, {"time": 51240, "pitch": 52, "duration": 1910, "velocity": 124}, {"time": 51360, "pitch": 62, "duration": 70, "velocity": 112}, {"time": 51360, "pitch": 66, "duration": 90, "velocity": 118}, {"time": 51360, "pitch": 68, "duration": 100, "velocity": 112}, {"time": 51600, "pitch": 62, "duration": 60, "velocity": 64}, {"time": 51600, "pitch": 66, "duration": 70, "velocity": 68}, {"time": 51600, "pitch": 68, "duration": 90, "velocity": 55}, {"time": 51840, "pitch": 62, "duration": 60, "velocity": 78}, {"time": 51840, "pitch": 66, "duration": 60, "velocity": 76}, {"time": 51840, "pitch": 68, "duration": 80, "velocity": 66}, {"time": 52080, "pitch": 62, "duration": 70, "velocity": 109}, {"time": 52080, "pitch": 66, "duration": 70, "velocity": 115}, {"time": 52080, "pitch": 68, "duration": 80, "velocity": 109}, {"time": 52320, "pitch": 62, "duration": 50, "velocity": 61}, {"time": 52320, "pitch": 66, "duration": 60, "velocity": 66}, {"time": 52320, "pitch": 68, "duration": 80, "velocity": 74}, {"time": 52560, "pitch": 62, "duration": 50, "velocity": 93}, {"time": 52560, "pitch": 66, "duration": 60, "velocity": 97}, {"time": 52560, "pitch": 68, "duration": 60, "velocity": 84}, {"time": 52800, "pitch": 62, "duration": 70, "velocity": 91}, {"time": 52800, "pitch": 66, "duration": 80, "velocity": 100}, {"time": 52800, "pitch": 68, "duration": 80, "velocity": 89}, {"time": 53040, "pitch": 62, "duration": 270, "velocity": 112}, {"time": 53040, "pitch": 66, "duration": 290, "velocity": 118}, {"time": 53040, "pitch": 69, "duration": 280, "velocity": 109}, {"time": 53160, "pitch": 52, "duration": 1750, "velocity": 127}, {"time": 53520, "pitch": 62, "duration": 50, "velocity": 93}, {"time": 53520, "pitch": 66, "duration": 30, "velocity": 84}, {"time": 53520, "pitch": 68, "duration": 40, "velocity": 66}, {"time": 53760, "pitch": 62, "duration": 50, "velocity": 93}, {"time": 53760, "pitch": 66, "duration": 50, "velocity": 97}, {"time": 53760, "pitch": 68, "duration": 40, "velocity": 74}, {"time": 54000, "pitch": 62, "duration": 70, "velocity": 109}, {"time": 54000, "pitch": 66, "duration": 70, "velocity": 104}, {"time": 54000, "pitch": 68, "duration": 100, "velocity": 107}, {"time": 54240, "pitch": 62, "duration": 50, "velocity": 70}, {"time": 54240, "pitch": 66, "duration": 40, "velocity": 64}, {"time": 54240, "pitch": 68, "duration": 60, "velocity": 64}, {"time": 54480, "pitch": 62, "duration": 50, "velocity": 93}, {"time": 54480, "pitch": 66, "duration": 60, "velocity": 104}, {"time": 54480, "pitch": 68, "duration": 70, "velocity": 93}, {"time": 54720, "pitch": 62, "duration": 60, "velocity": 100}, {"time": 54720, "pitch": 66, "duration": 60, "velocity": 102}, {"time": 54720, "pitch": 68, "duration": 60, "velocity": 97}, {"time": 54960, "pitch": 62, "duration": 180, "velocity": 118}, {"time": 54960, "pitch": 66, "duration": 200, "velocity": 121}, {"time": 54960, "pitch": 68, "duration": 210, "velocity": 121}, {"time": 55070, "pitch": 57, "duration": 130, "velocity": 114}, {"time": 55200, "pitch": 57, "duration": 1620, "velocity": 114}, {"time": 55200, "pitch": 61, "duration": 150, "velocity": 117}, {"time": 55200, "pitch": 64, "duration": 140, "velocity": 117}, {"time": 55200, "pitch": 67, "duration": 140, "velocity": 100}, {"time": 55440, "pitch": 61, "duration": 80, "velocity": 91}, {"time": 55440, "pitch": 64, "duration": 80, "velocity": 102}, {"time": 55440, "pitch": 67, "duration": 60, "velocity": 84}, {"time": 55680, "pitch": 61, "duration": 60, "velocity": 107}, {"time": 55680, "pitch": 64, "duration": 50, "velocity": 100}, {"time": 55680, "pitch": 67, "duration": 60, "velocity": 89}, {"time": 55920, "pitch": 61, "duration": 70, "velocity": 121}, {"time": 55920, "pitch": 64, "duration": 60, "velocity": 112}, {"time": 55920, "pitch": 67, "duration": 70, "velocity": 107}, {"time": 56160, "pitch": 61, "duration": 80, "velocity": 72}, {"time": 56160, "pitch": 64, "duration": 80, "velocity": 74}, {"time": 56160, "pitch": 67, "duration": 70, "velocity": 70}, {"time": 56400, "pitch": 61, "duration": 60, "velocity": 95}, {"time": 56400, "pitch": 64, "duration": 60, "velocity": 93}, {"time": 56400, "pitch": 67, "duration": 50, "velocity": 76}, {"time": 56640, "pitch": 61, "duration": 60, "velocity": 91}, {"time": 56640, "pitch": 64, "duration": 60, "velocity": 93}, {"time": 56640, "pitch": 67, "duration": 60, "velocity": 82}, {"time": 56880, "pitch": 61, "duration": 210, "velocity": 114}, {"time": 56880, "pitch": 64, "duration": 200, "velocity": 114}, {"time": 56880, "pitch": 69, "duration": 200, "velocity": 105}, {"time": 56990, "pitch": 57, "duration": 130, "velocity": 100}, {"time": 57120, "pitch": 57, "duration": 1750, "velocity": 100}, {"time": 57120, "pitch": 61, "duration": 150, "velocity": 113}, {"time": 57120, "pitch": 64, "duration": 140, "velocity": 113}, {"time": 57120, "pitch": 67, "duration": 140, "velocity": 96}, {"time": 57360, "pitch": 61, "duration": 60, "velocity": 62}, {"time": 57360, "pitch": 64, "duration": 60, "velocity": 68}, {"time": 57360, "pitch": 67, "duration": 70, "velocity": 84}, {"time": 57600, "pitch": 61, "duration": 70, "velocity": 102}, {"time": 57600, "pitch": 64, "duration": 60, "velocity": 102}, {"time": 57600, "pitch": 67, "duration": 70, "velocity": 100}, {"time": 57840, "pitch": 61, "duration": 120, "velocity": 118}, {"time": 57840, "pitch": 64, "duration": 130, "velocity": 115}, {"time": 57840, "pitch": 67, "duration": 110, "velocity": 109}, {"time": 58080, "pitch": 61, "duration": 70, "velocity": 93}, {"time": 58080, "pitch": 64, "duration": 60, "velocity": 89}, {"time": 58080, "pitch": 67, "duration": 50, "velocity": 74}, {"time": 58320, "pitch": 61, "duration": 70, "velocity": 104}, {"time": 58320, "pitch": 64, "duration": 70, "velocity": 104}, {"time": 58320, "pitch": 67, "duration": 60, "velocity": 91}, {"time": 58560, "pitch": 61, "duration": 70, "velocity": 107}, {"time": 58560, "pitch": 64, "duration": 70, "velocity": 109}, {"time": 58560, "pitch": 67, "duration": 60, "velocity": 97}, {"time": 58800, "pitch": 61, "duration": 210, "velocity": 127}, {"time": 58800, "pitch": 64, "duration": 210, "velocity": 127}, {"time": 58800, "pitch": 67, "duration": 200, "velocity": 118}, {"time": 58920, "pitch": 52, "duration": 1910, "velocity": 124}, {"time": 59040, "pitch": 62, "duration": 70, "velocity": 112}, {"time": 59040, "pitch": 66, "duration": 90, "velocity": 118}, {"time": 59040, "pitch": 68, "duration": 100, "velocity": 112}, {"time": 59280, "pitch": 62, "duration": 60, "velocity": 64}, {"time": 59280, "pitch": 66, "duration": 70, "velocity": 68}, {"time": 59280, "pitch": 68, "duration": 90, "velocity": 55}, {"time": 59520, "pitch": 62, "duration": 60, "velocity": 78}, {"time": 59520, "pitch": 66, "duration": 60, "velocity": 76}, {"time": 59520, "pitch": 68, "duration": 80, "velocity": 66}, {"time": 59760, "pitch": 62, "duration": 70, "velocity": 109}, {"time": 59760, "pitch": 66, "duration": 70, "velocity": 115}, {"time": 59760, "pitch": 68, "duration": 80, "velocity": 109}, {"time": 60000, "pitch": 62, "duration": 50, "velocity": 61}, {"time": 60000, "pitch": 66, "duration": 60, "velocity": 66}, {"time": 60000, "pitch": 68, "duration": 80, "velocity": 74}, {"time": 60240, "pitch": 62, "duration": 50, "velocity": 93}, {"time": 60240, "pitch": 66, "duration": 60, "velocity": 97}, {"time": 60240, "pitch": 68, "duration": 60, "velocity": 84}, {"time": 60480, "pitch": 62, "duration": 70, "velocity": 91}, {"time": 60480, "pitch": 66, "duration": 80, "velocity": 100}, {"time": 60480, "pitch": 68, "duration": 80, "velocity": 89}, {"time": 60720, "pitch": 62, "duration": 270, "velocity": 112}, {"time": 60720, "pitch": 66, "duration": 290, "velocity": 118}, {"time": 60720, "pitch": 69, "duration": 280, "velocity": 109}, {"time": 60840, "pitch": 52, "duration": 1750, "velocity": 127}, {"time": 61200, "pitch": 62, "duration": 50, "velocity": 93}, {"time": 61200, "pitch": 66, "duration": 30, "velocity": 84}, {"time": 61200, "pitch": 68, "duration": 40, "velocity": 66}, {"time": 61440, "pitch": 62, "duration": 50, "velocity": 93}, {"time": 61440, "pitch": 66, "duration": 50, "velocity": 97}, {"time": 61440, "pitch": 68, "duration": 40, "velocity": 74}, {"time": 61680, "pitch": 62, "duration": 70, "velocity": 109}, {"time": 61680, "pitch": 66, "duration": 70, "velocity": 104}, {"time": 61680, "pitch": 68, "duration": 100, "velocity": 107}, {"time": 61920, "pitch": 62, "duration": 50, "velocity": 70}, {"time": 61920, "pitch": 66, "duration": 40, "velocity": 64}, {"time": 61920, "pitch": 68, "duration": 60, "velocity": 64}, {"time": 62160, "pitch": 62, "duration": 50, "velocity": 93}, {"time": 62160, "pitch": 66, "duration": 60, "velocity": 104}, {"time": 62160, "pitch": 68, "duration": 70, "velocity": 93}, {"time": 62400, "pitch": 62, "duration": 60, "velocity": 100}, {"time": 62400, "pitch": 66, "duration": 60, "velocity": 102}, {"time": 62400, "pitch": 68, "duration": 60, "velocity": 97}, {"time": 62640, "pitch": 62, "duration": 180, "velocity": 118}, {"time": 62640, "pitch": 66, "duration": 200, "velocity": 121}, {"time": 62640, "pitch": 68, "duration": 210, "velocity": 121}, {"time": 62750, "pitch": 57, "duration": 130, "velocity": 114}, {"time": 62880, "pitch": 57, "duration": 1620, "velocity": 114}, {"time": 62880, "pitch": 61, "duration": 150, "velocity": 117}, {"time": 62880, "pitch": 64, "duration": 140, "velocity": 117}, {"time": 62880, "pitch": 67, "duration": 140, "velocity": 100}, {"time": 63120, "pitch": 61, "duration": 80, "velocity": 91}, {"time": 63120, "pitch": 64, "duration": 80, "velocity": 102}, {"time": 63120, "pitch": 67, "duration": 60, "velocity": 84}, {"time": 63360, "pitch": 61, "duration": 60, "velocity": 107}, {"time": 63360, "pitch": 64, "duration": 50, "velocity": 100}, {"time": 63360, "pitch": 67, "duration": 60, "velocity": 89}, {"time": 63600, "pitch": 61, "duration": 70, "velocity": 121}, {"time": 63600, "pitch": 64, "duration": 60, "velocity": 112}, {"time": 63600, "pitch": 67, "duration": 70, "velocity": 107}, {"time": 63840, "pitch": 61, "duration": 80, "velocity": 72}, {"time": 63840, "pitch": 64, "duration": 80, "velocity": 74}, {"time": 63840, "pitch": 67, "duration": 70, "velocity": 70}, {"time": 64080, "pitch": 61, "duration": 60, "velocity": 95}, {"time": 64080, "pitch": 64, "duration": 60, "velocity": 93}, {"time": 64080, "pitch": 67, "duration": 50, "velocity": 76}, {"time": 64320, "pitch": 61, "duration": 60, "velocity": 91}, {"time": 64320, "pitch": 64, "duration": 60, "velocity": 93}, {"time": 64320, "pitch": 67, "duration": 60, "velocity": 82}, {"time": 64560, "pitch": 61, "duration": 210, "velocity": 114}, {"time": 64560, "pitch": 64, "duration": 200, "velocity": 114}, {"time": 64560, "pitch": 69, "duration": 200, "velocity": 105}, {"time": 64670, "pitch": 57, "duration": 130, "velocity": 100}, {"time": 64800, "pitch": 57, "duration": 1750, "velocity": 100}, {"time": 64800, "pitch": 61, "duration": 150, "velocity": 113}, {"time": 64800, "pitch": 64, "duration": 140, "velocity": 113}, {"time": 64800, "pitch": 67, "duration": 140, "velocity": 96}, {"time": 65040, "pitch": 61, "duration": 60, "velocity": 62}, {"time": 65040, "pitch": 64, "duration": 60, "velocity": 68}, {"time": 65040, "pitch": 67, "duration": 70, "velocity": 84}, {"time": 65280, "pitch": 61, "duration": 70, "velocity": 102}, {"time": 65280, "pitch": 64, "duration": 60, "velocity": 102}, {"time": 65280, "pitch": 67, "duration": 70, "velocity": 100}, {"time": 65520, "pitch": 61, "duration": 120, "velocity": 118}, {"time": 65520, "pitch": 64, "duration": 130, "velocity": 115}, {"time": 65520, "pitch": 67, "duration": 110, "velocity": 109}, {"time": 65760, "pitch": 61, "duration": 70, "velocity": 93}, {"time": 65760, "pitch": 64, "duration": 60, "velocity": 89}, {"time": 65760, "pitch": 67, "duration": 50, "velocity": 74}, {"time": 66000, "pitch": 61, "duration": 70, "velocity": 104}, {"time": 66000, "pitch": 64, "duration": 70, "velocity": 104}, {"time": 66000, "pitch": 67, "duration": 60, "velocity": 91}, {"time": 66240, "pitch": 61, "duration": 70, "velocity": 107}, {"time": 66240, "pitch": 64, "duration": 70, "velocity": 109}, {"time": 66240, "pitch": 67, "duration": 60, "velocity": 97}, {"time": 66480, "pitch": 61, "duration": 210, "velocity": 127}, {"time": 66480, "pitch": 64, "duration": 210, "velocity": 127}, {"time": 66480, "pitch": 67, "duration": 200, "velocity": 118}, {"time": 66720, "pitch": 52, "duration": 3410, "velocity": 105}, {"time": 66720, "pitch": 62, "duration": 3280, "velocity": 119}, {"time": 66720, "pitch": 66, "duration": 3340, "velocity": 119}, {"time": 66720, "pitch": 69, "duration": 3300, "velocity": 110}, {"time": 70200, "pitch": 53, "duration": 350, "velocity": 105}, {"time": 70200, "pitch": 63, "duration": 320, "velocity": 107}, {"time": 70200, "pitch": 67, "duration": 290, "velocity": 110}, {"time": 70200, "pitch": 70, "duration": 320, "velocity": 110}, {"time": 70560, "pitch": 52, "duration": 1900, "velocity": 102}, {"time": 70560, "pitch": 62, "duration": 1880, "velocity": 119}, {"time": 70560, "pitch": 66, "duration": 1890, "velocity": 107}, {"time": 70560, "pitch": 69, "duration": 1870, "velocity": 116}, {"time": 72480, "pitch": 40, "duration": 190, "velocity": 110}, {"time": 72480, "pitch": 56, "duration": 170, "velocity": 127}, {"time": 72480, "pitch": 59, "duration": 170, "velocity": 127}, {"time": 72480, "pitch": 64, "duration": 160, "velocity": 122}, {"time": 74400, "pitch": 52, "duration": 1890, "velocity": 118}, {"time": 74640, "pitch": 59, "duration": 1680, "velocity": 108}, {"time": 74760, "pitch": 61, "duration": 1560, "velocity": 101}, {"time": 75120, "pitch": 63, "duration": 1200, "velocity": 84}, {"time": 75360, "pitch": 66, "duration": 960, "velocity": 88}, {"time": 76320, "pitch": 52, "duration": 1890, "velocity": 117}, {"time": 76560, "pitch": 59, "duration": 1610, "velocity": 112}, {"time": 76680, "pitch": 61, "duration": 1560, "velocity": 99}, {"time": 77040, "pitch": 63, "duration": 1200, "velocity": 80}, {"time": 77280, "pitch": 66, "duration": 960, "velocity": 86}, {"time": 78240, "pitch": 45, "duration": 1810, "velocity": 115}, {"time": 78480, "pitch": 56, "duration": 1530, "velocity": 90}, {"time": 78600, "pitch": 59, "duration": 1560, "velocity": 117}, {"time": 78960, "pitch": 61, "duration": 1240, "velocity": 95}, {"time": 79200, "pitch": 64, "duration": 1010, "velocity": 90}, {"time": 80160, "pitch": 45, "duration": 1900, "velocity": 118}, {"time": 80400, "pitch": 56, "duration": 1620, "velocity": 95}, {"time": 80520, "pitch": 59, "duration": 1500, "velocity": 117}, {"time": 80880, "pitch": 61, "duration": 1150, "velocity": 92}, {"time": 81120, "pitch": 64, "duration": 910, "velocity": 99}, {"time": 82080, "pitch": 52, "duration": 1890, "velocity": 120}, {"time": 82320, "pitch": 59, "duration": 1680, "velocity": 108}, {"time": 82440, "pitch": 61, "duration": 1560, "velocity": 101}, {"time": 82800, "pitch": 63, "duration": 1200, "velocity": 84}, {"time": 83040, "pitch": 66, "duration": 960, "velocity": 88}, {"time": 84000, "pitch": 52, "duration": 1890, "velocity": 120}, {"time": 84240, "pitch": 59, "duration": 1610, "velocity": 112}, {"time": 84360, "pitch": 61, "duration": 1560, "velocity": 99}, {"time": 84720, "pitch": 63, "duration": 1200, "velocity": 80}, {"time": 84960, "pitch": 66, "duration": 960, "velocity": 86}, {"time": 85920, "pitch": 45, "duration": 1810, "velocity": 115}, {"time": 86160, "pitch": 56, "duration": 1530, "velocity": 90}, {"time": 86280, "pitch": 59, "duration": 1560, "velocity": 117}, {"time": 86640, "pitch": 61, "duration": 1240, "velocity": 95}, {"time": 86880, "pitch": 64, "duration": 1010, "velocity": 90}, {"time": 87840, "pitch": 45, "duration": 1810, "velocity": 115}, {"time": 88080, "pitch": 56, "duration": 1530, "velocity": 90}, {"time": 88200, "pitch": 59, "duration": 1530, "velocity": 117}, {"time": 88560, "pitch": 61, "duration": 1190, "velocity": 95}, {"time": 88800, "pitch": 64, "duration": 950, "velocity": 90}, {"time": 89760, "pitch": 49, "duration": 1490, "velocity": 95}, {"time": 89760, "pitch": 52, "duration": 1470, "velocity": 90}, {"time": 89760, "pitch": 56, "duration": 620, "velocity": 117}, {"time": 89760, "pitch": 59, "duration": 640, "velocity": 115}, {"time": 89760, "pitch": 63, "duration": 630, "velocity": 95}, {"time": 90480, "pitch": 56, "duration": 80, "velocity": 99}, {"time": 90480, "pitch": 59, "duration": 100, "velocity": 115}, {"time": 90480, "pitch": 64, "duration": 90, "velocity": 112}, {"time": 90960, "pitch": 56, "duration": 100, "velocity": 108}, {"time": 90960, "pitch": 59, "duration": 100, "velocity": 115}, {"time": 90960, "pitch": 64, "duration": 110, "velocity": 112}, {"time": 91440, "pitch": 54, "duration": 2090, "velocity": 101}, {"time": 91440, "pitch": 56, "duration": 2100, "velocity": 90}, {"time": 91440, "pitch": 58, "duration": 2100, "velocity": 92}, {"time": 91440, "pitch": 61, "duration": 2110, "velocity": 112}, {"time": 91440, "pitch": 64, "duration": 2120, "velocity": 108}, {"time": 93600, "pitch": 49, "duration": 1490, "velocity": 95}, {"time": 93600, "pitch": 52, "duration": 1470, "velocity": 90}, {"time": 93600, "pitch": 56, "duration": 620, "velocity": 117}, {"time": 93600, "pitch": 59, "duration": 640, "velocity": 115}, {"time": 93600, "pitch": 63, "duration": 630, "velocity": 95}, {"time": 94320, "pitch": 56, "duration": 90, "velocity": 99}, {"time": 94320, "pitch": 59, "duration": 100, "velocity": 115}, {"time": 94320, "pitch": 64, "duration": 90, "velocity": 112}, {"time": 94800, "pitch": 56, "duration": 100, "velocity": 108}, {"time": 94800, "pitch": 59, "duration": 100, "velocity": 115}, {"time": 94800, "pitch": 64, "duration": 110, "velocity": 112}, {"time": 95280, "pitch": 54, "duration": 2090, "velocity": 101}, {"time": 95280, "pitch": 56, "duration": 2100, "velocity": 90}, {"time": 95280, "pitch": 58, "duration": 2100, "velocity": 92}, {"time": 95280, "pitch": 61, "duration": 2110, "velocity": 112}, {"time": 95280, "pitch": 64, "duration": 2120, "velocity": 108}, {"time": 97440, "pitch": 47, "duration": 630, "velocity": 108}, {"time": 97440, "pitch": 57, "duration": 620, "velocity": 117}, {"time": 97440, "pitch": 61, "duration": 610, "velocity": 115}, {"time": 97440, "pitch": 65, "duration": 600, "velocity": 117}, {"time": 98160, "pitch": 47, "duration": 1150, "velocity": 105}, {"time": 98160, "pitch": 57, "duration": 1130, "velocity": 118}, {"time": 98160, "pitch": 59, "duration": 1090, "velocity": 111}, {"time": 98160, "pitch": 64, "duration": 1020, "velocity": 118}, {"time": 99360, "pitch": 47, "duration": 140, "velocity": 117}, {"time": 99360, "pitch": 57, "duration": 150, "velocity": 120}, {"time": 99360, "pitch": 63, "duration": 160, "velocity": 117}, {"time": 99360, "pitch": 66, "duration": 150, "velocity": 117}, {"time": 101160, "pitch": 52, "duration": 1910, "velocity": 124}, {"time": 101280, "pitch": 62, "duration": 70, "velocity": 112}, {"time": 101280, "pitch": 66, "duration": 90, "velocity": 118}, {"time": 101280, "pitch": 68, "duration": 100, "velocity": 112}, {"time": 101520, "pitch": 62, "duration": 60, "velocity": 64}, {"time": 101520, "pitch": 66, "duration": 70, "velocity": 68}, {"time": 101520, "pitch": 68, "duration": 90, "velocity": 55}, {"time": 101760, "pitch": 62, "duration": 60, "velocity": 78}, {"time": 101760, "pitch": 66, "duration": 60, "velocity": 76}, {"time": 101760, "pitch": 68, "duration": 80, "velocity": 66}, {"time": 102000, "pitch": 62, "duration": 70, "velocity": 109}, {"time": 102000, "pitch": 66, "duration": 70, "velocity": 115}, {"time": 102000, "pitch": 68, "duration": 80, "velocity": 109}, {"time": 102240, "pitch": 62, "duration": 50, "velocity": 61}, {"time": 102240, "pitch": 66, "duration": 60, "velocity": 66}, {"time": 102240, "pitch": 68, "duration": 80, "velocity": 74}, {"time": 102480, "pitch": 62, "duration": 50, "velocity": 93}, {"time": 102480, "pitch": 66, "duration": 60, "velocity": 97}, {"time": 102480, "pitch": 68, "duration": 60, "velocity": 84}, {"time": 102720, "pitch": 62, "duration": 70, "velocity": 91}, {"time": 102720, "pitch": 66, "duration": 80, "velocity": 100}, {"time": 102720, "pitch": 68, "duration": 80, "velocity": 89}, {"time": 102960, "pitch": 62, "duration": 270, "velocity": 112}, {"time": 102960, "pitch": 66, "duration": 290, "velocity": 118}, {"time": 102960, "pitch": 69, "duration": 280, "velocity": 109}, {"time": 103080, "pitch": 52, "duration": 1750, "velocity": 127}, {"time": 103440, "pitch": 62, "duration": 50, "velocity": 93}, {"time": 103440, "pitch": 66, "duration": 30, "velocity": 84}, {"time": 103440, "pitch": 68, "duration": 40, "velocity": 66}, {"time": 103680, "pitch": 62, "duration": 50, "velocity": 93}, {"time": 103680, "pitch": 66, "duration": 50, "velocity": 97}, {"time": 103680, "pitch": 68, "duration": 40, "velocity": 74}, {"time": 103920, "pitch": 62, "duration": 70, "velocity": 109}, {"time": 103920, "pitch": 66, "duration": 70, "velocity": 104}, {"time": 103920, "pitch": 68, "duration": 100, "velocity": 107}, {"time": 104160, "pitch": 62, "duration": 50, "velocity": 70}, {"time": 104160, "pitch": 66, "duration": 40, "velocity": 64}, {"time": 104160, "pitch": 68, "duration": 60, "velocity": 64}, {"time": 104400, "pitch": 62, "duration": 50, "velocity": 93}, {"time": 104400, "pitch": 66, "duration": 60, "velocity": 104}, {"time": 104400, "pitch": 68, "duration": 70, "velocity": 93}, {"time": 104640, "pitch": 62, "duration": 60, "velocity": 100}, {"time": 104640, "pitch": 66, "duration": 60, "velocity": 102}, {"time": 104640, "pitch": 68, "duration": 60, "velocity": 97}, {"time": 104880, "pitch": 62, "duration": 180, "velocity": 118}, {"time": 104880, "pitch": 66, "duration": 200, "velocity": 121}, {"time": 104880, "pitch": 68, "duration": 210, "velocity": 121}, {"time": 104990, "pitch": 57, "duration": 130, "velocity": 114}, {"time": 105120, "pitch": 57, "duration": 1620, "velocity": 114}, {"time": 105120, "pitch": 61, "duration": 150, "velocity": 117}, {"time": 105120, "pitch": 64, "duration": 140, "velocity": 117}, {"time": 105120, "pitch": 67, "duration": 140, "velocity": 100}, {"time": 105360, "pitch": 61, "duration": 80, "velocity": 91}, {"time": 105360, "pitch": 64, "duration": 80, "velocity": 102}, {"time": 105360, "pitch": 67, "duration": 60, "velocity": 84}, {"time": 105600, "pitch": 61, "duration": 60, "velocity": 107}, {"time": 105600, "pitch": 64, "duration": 50, "velocity": 100}, {"time": 105600, "pitch": 67, "duration": 60, "velocity": 89}, {"time": 105840, "pitch": 61, "duration": 70, "velocity": 121}, {"time": 105840, "pitch": 64, "duration": 60, "velocity": 112}, {"time": 105840, "pitch": 67, "duration": 70, "velocity": 107}, {"time": 106080, "pitch": 61, "duration": 80, "velocity": 72}, {"time": 106080, "pitch": 64, "duration": 80, "velocity": 74}, {"time": 106080, "pitch": 67, "duration": 70, "velocity": 70}, {"time": 106320, "pitch": 61, "duration": 60, "velocity": 95}, {"time": 106320, "pitch": 64, "duration": 60, "velocity": 93}, {"time": 106320, "pitch": 67, "duration": 50, "velocity": 76}, {"time": 106560, "pitch": 61, "duration": 60, "velocity": 91}, {"time": 106560, "pitch": 64, "duration": 60, "velocity": 93}, {"time": 106560, "pitch": 67, "duration": 60, "velocity": 82}, {"time": 106800, "pitch": 61, "duration": 210, "velocity": 114}, {"time": 106800, "pitch": 64, "duration": 200, "velocity": 114}, {"time": 106800, "pitch": 69, "duration": 200, "velocity": 105}, {"time": 106910, "pitch": 57, "duration": 130, "velocity": 100}, {"time": 107040, "pitch": 57, "duration": 1750, "velocity": 100}, {"time": 107040, "pitch": 61, "duration": 150, "velocity": 113}, {"time": 107040, "pitch": 64, "duration": 140, "velocity": 113}, {"time": 107040, "pitch": 67, "duration": 140, "velocity": 96}, {"time": 107280, "pitch": 61, "duration": 60, "velocity": 62}, {"time": 107280, "pitch": 64, "duration": 60, "velocity": 68}, {"time": 107280, "pitch": 67, "duration": 70, "velocity": 84}, {"time": 107520, "pitch": 61, "duration": 70, "velocity": 102}, {"time": 107520, "pitch": 64, "duration": 60, "velocity": 102}, {"time": 107520, "pitch": 67, "duration": 70, "velocity": 100}, {"time": 107760, "pitch": 61, "duration": 120, "velocity": 118}, {"time": 107760, "pitch": 64, "duration": 130, "velocity": 115}, {"time": 107760, "pitch": 67, "duration": 110, "velocity": 109}, {"time": 108000, "pitch": 61, "duration": 70, "velocity": 93}, {"time": 108000, "pitch": 64, "duration": 60, "velocity": 89}, {"time": 108000, "pitch": 67, "duration": 50, "velocity": 74}, {"time": 108240, "pitch": 61, "duration": 70, "velocity": 104}, {"time": 108240, "pitch": 64, "duration": 70, "velocity": 104}, {"time": 108240, "pitch": 67, "duration": 60, "velocity": 91}, {"time": 108480, "pitch": 61, "duration": 70, "velocity": 107}, {"time": 108480, "pitch": 64, "duration": 70, "velocity": 109}, {"time": 108480, "pitch": 67, "duration": 60, "velocity": 97}, {"time": 108720, "pitch": 61, "duration": 210, "velocity": 127}, {"time": 108720, "pitch": 64, "duration": 210, "velocity": 127}, {"time": 108720, "pitch": 67, "duration": 200, "velocity": 118}, {"time": 108840, "pitch": 52, "duration": 1910, "velocity": 124}, {"time": 108960, "pitch": 62, "duration": 70, "velocity": 112}, {"time": 108960, "pitch": 66, "duration": 90, "velocity": 118}, {"time": 108960, "pitch": 68, "duration": 100, "velocity": 112}, {"time": 109200, "pitch": 62, "duration": 60, "velocity": 64}, {"time": 109200, "pitch": 66, "duration": 70, "velocity": 68}, {"time": 109200, "pitch": 68, "duration": 90, "velocity": 55}, {"time": 109440, "pitch": 62, "duration": 60, "velocity": 78}, {"time": 109440, "pitch": 66, "duration": 60, "velocity": 76}, {"time": 109440, "pitch": 68, "duration": 80, "velocity": 66}, {"time": 109680, "pitch": 62, "duration": 70, "velocity": 109}, {"time": 109680, "pitch": 66, "duration": 70, "velocity": 115}, {"time": 109680, "pitch": 68, "duration": 80, "velocity": 109}, {"time": 109920, "pitch": 62, "duration": 50, "velocity": 61}, {"time": 109920, "pitch": 66, "duration": 60, "velocity": 66}, {"time": 109920, "pitch": 68, "duration": 80, "velocity": 74}, {"time": 110160, "pitch": 62, "duration": 50, "velocity": 93}, {"time": 110160, "pitch": 66, "duration": 60, "velocity": 97}, {"time": 110160, "pitch": 68, "duration": 60, "velocity": 84}, {"time": 110400, "pitch": 62, "duration": 70, "velocity": 91}, {"time": 110400, "pitch": 66, "duration": 80, "velocity": 100}, {"time": 110400, "pitch": 68, "duration": 80, "velocity": 89}, {"time": 110640, "pitch": 62, "duration": 270, "velocity": 112}, {"time": 110640, "pitch": 66, "duration": 290, "velocity": 118}, {"time": 110640, "pitch": 69, "duration": 280, "velocity": 109}, {"time": 110760, "pitch": 52, "duration": 1750, "velocity": 127}, {"time": 111120, "pitch": 62, "duration": 50, "velocity": 93}, {"time": 111120, "pitch": 66, "duration": 30, "velocity": 84}, {"time": 111120, "pitch": 68, "duration": 40, "velocity": 66}, {"time": 111360, "pitch": 62, "duration": 50, "velocity": 93}, {"time": 111360, "pitch": 66, "duration": 50, "velocity": 97}, {"time": 111360, "pitch": 68, "duration": 40, "velocity": 74}, {"time": 111600, "pitch": 62, "duration": 70, "velocity": 109}, {"time": 111600, "pitch": 66, "duration": 70, "velocity": 104}, {"time": 111600, "pitch": 68, "duration": 100, "velocity": 107}, {"time": 111840, "pitch": 62, "duration": 50, "velocity": 70}, {"time": 111840, "pitch": 66, "duration": 40, "velocity": 64}, {"time": 111840, "pitch": 68, "duration": 60, "velocity": 64}, {"time": 112080, "pitch": 62, "duration": 50, "velocity": 93}, {"time": 112080, "pitch": 66, "duration": 60, "velocity": 104}, {"time": 112080, "pitch": 68, "duration": 70, "velocity": 93}, {"time": 112320, "pitch": 62, "duration": 60, "velocity": 100}, {"time": 112320, "pitch": 66, "duration": 60, "velocity": 102}, {"time": 112320, "pitch": 68, "duration": 60, "velocity": 97}, {"time": 112560, "pitch": 62, "duration": 180, "velocity": 118}, {"time": 112560, "pitch": 66, "duration": 200, "velocity": 121}, {"time": 112560, "pitch": 68, "duration": 210, "velocity": 121}, {"time": 112670, "pitch": 57, "duration": 130, "velocity": 114}, {"time": 112800, "pitch": 57, "duration": 1620, "velocity": 114}, {"time": 112800, "pitch": 61, "duration": 150, "velocity": 117}, {"time": 112800, "pitch": 64, "duration": 140, "velocity": 117}, {"time": 112800, "pitch": 67, "duration": 140, "velocity": 100}, {"time": 113040, "pitch": 61, "duration": 80, "velocity": 91}, {"time": 113040, "pitch": 64, "duration": 80, "velocity": 102}, {"time": 113040, "pitch": 67, "duration": 60, "velocity": 84}, {"time": 113280, "pitch": 61, "duration": 60, "velocity": 107}, {"time": 113280, "pitch": 64, "duration": 50, "velocity": 100}, {"time": 113280, "pitch": 67, "duration": 60, "velocity": 89}, {"time": 113520, "pitch": 61, "duration": 70, "velocity": 121}, {"time": 113520, "pitch": 64, "duration": 60, "velocity": 112}, {"time": 113520, "pitch": 67, "duration": 70, "velocity": 107}, {"time": 113760, "pitch": 61, "duration": 80, "velocity": 72}, {"time": 113760, "pitch": 64, "duration": 80, "velocity": 74}, {"time": 113760, "pitch": 67, "duration": 70, "velocity": 70}, {"time": 114000, "pitch": 61, "duration": 60, "velocity": 95}, {"time": 114000, "pitch": 64, "duration": 60, "velocity": 93}, {"time": 114000, "pitch": 67, "duration": 50, "velocity": 76}, {"time": 114240, "pitch": 61, "duration": 60, "velocity": 91}, {"time": 114240, "pitch": 64, "duration": 60, "velocity": 93}, {"time": 114240, "pitch": 67, "duration": 60, "velocity": 82}, {"time": 114480, "pitch": 61, "duration": 210, "velocity": 114}, {"time": 114480, "pitch": 64, "duration": 200, "velocity": 114}, {"time": 114480, "pitch": 69, "duration": 200, "velocity": 105}, {"time": 114590, "pitch": 57, "duration": 130, "velocity": 100}, {"time": 114720, "pitch": 57, "duration": 1750, "velocity": 100}, {"time": 114720, "pitch": 61, "duration": 150, "velocity": 113}, {"time": 114720, "pitch": 64, "duration": 140, "velocity": 113}, {"time": 114720, "pitch": 67, "duration": 140, "velocity": 96}, {"time": 114960, "pitch": 61, "duration": 60, "velocity": 62}, {"time": 114960, "pitch": 64, "duration": 60, "velocity": 68}, {"time": 114960, "pitch": 67, "duration": 70, "velocity": 84}, {"time": 115200, "pitch": 61, "duration": 70, "velocity": 102}, {"time": 115200, "pitch": 64, "duration": 60, "velocity": 102}, {"time": 115200, "pitch": 67, "duration": 70, "velocity": 100}, {"time": 115440, "pitch": 61, "duration": 120, "velocity": 118}, {"time": 115440, "pitch": 64, "duration": 130, "velocity": 115}, {"time": 115440, "pitch": 67, "duration": 110, "velocity": 109}, {"time": 115680, "pitch": 61, "duration": 70, "velocity": 93}, {"time": 115680, "pitch": 64, "duration": 60, "velocity": 89}, {"time": 115680, "pitch": 67, "duration": 50, "velocity": 74}, {"time": 115920, "pitch": 61, "duration": 70, "velocity": 104}, {"time": 115920, "pitch": 64, "duration": 70, "velocity": 104}, {"time": 115920, "pitch": 67, "duration": 60, "velocity": 91}, {"time": 116160, "pitch": 61, "duration": 70, "velocity": 107}, {"time": 116160, "pitch": 64, "duration": 70, "velocity": 109}, {"time": 116160, "pitch": 67, "duration": 60, "velocity": 97}, {"time": 116400, "pitch": 61, "duration": 210, "velocity": 127}, {"time": 116400, "pitch": 64, "duration": 210, "velocity": 127}, {"time": 116400, "pitch": 67, "duration": 200, "velocity": 118}, {"time": 116640, "pitch": 52, "duration": 3830, "velocity": 89}, {"time": 116640, "pitch": 59, "duration": 3830, "velocity": 85}, {"time": 116640, "pitch": 62, "duration": 3820, "velocity": 116}, {"time": 116640, "pitch": 66, "duration": 3820, "velocity": 105}, {"time": 116640, "pitch": 69, "duration": 3800, "velocity": 105}, {"time": 120480, "pitch": 52, "duration": 3750, "velocity": 105}, {"time": 120480, "pitch": 59, "duration": 3750, "velocity": 105}, {"time": 120480, "pitch": 62, "duration": 3760, "velocity": 107}, {"time": 120480, "pitch": 66, "duration": 3770, "velocity": 102}, {"time": 120480, "pitch": 68, "duration": 3750, "velocity": 105}, {"time": 124320, "pitch": 52, "duration": 3780, "velocity": 105}, {"time": 124320, "pitch": 59, "duration": 3800, "velocity": 100}, {"time": 124320, "pitch": 62, "duration": 3780, "velocity": 116}, {"time": 124320, "pitch": 66, "duration": 3790, "velocity": 105}, {"time": 124320, "pitch": 69, "duration": 3770, "velocity": 107}, {"time": 128160, "pitch": 52, "duration": 1910, "velocity": 98}, {"time": 128160, "pitch": 59, "duration": 1910, "velocity": 85}, {"time": 128160, "pitch": 62, "duration": 1930, "velocity": 102}, {"time": 128160, "pitch": 66, "duration": 1930, "velocity": 102}, {"time": 128160, "pitch": 68, "duration": 1900, "velocity": 105}, {"time": 130560, "pitch": 52, "duration": 2950, "velocity": 113}, {"time": 130560, "pitch": 59, "duration": 2950, "velocity": 113}, {"time": 130560, "pitch": 62, "duration": 2960, "velocity": 127}, {"time": 130560, "pitch": 67, "duration": 2950, "velocity": 122}, {"time": 130560, "pitch": 68, "duration": 2960, "velocity": 127}, {"time": 135360, "pitch": 49, "duration": 1490, "velocity": 95}, {"time": 135360, "pitch": 52, "duration": 1470, "velocity": 90}, {"time": 135360, "pitch": 56, "duration": 620, "velocity": 117}, {"time": 135360, "pitch": 59, "duration": 640, "velocity": 115}, {"time": 135360, "pitch": 63, "duration": 630, "velocity": 95}, {"time": 136080, "pitch": 56, "duration": 80, "velocity": 99}, {"time": 136080, "pitch": 59, "duration": 100, "velocity": 115}, {"time": 136080, "pitch": 64, "duration": 90, "velocity": 112}, {"time": 136560, "pitch": 56, "duration": 100, "velocity": 108}, {"time": 136560, "pitch": 59, "duration": 100, "velocity": 115}, {"time": 136560, "pitch": 64, "duration": 110, "velocity": 112}, {"time": 137040, "pitch": 54, "duration": 2090, "velocity": 101}, {"time": 137040, "pitch": 56, "duration": 2100, "velocity": 90}, {"time": 137040, "pitch": 58, "duration": 2100, "velocity": 92}, {"time": 137040, "pitch": 61, "duration": 2110, "velocity": 112}, {"time": 137040, "pitch": 64, "duration": 2120, "velocity": 108}, {"time": 139200, "pitch": 49, "duration": 1490, "velocity": 95}, {"time": 139200, "pitch": 52, "duration": 1470, "velocity": 90}, {"time": 139200, "pitch": 56, "duration": 620, "velocity": 117}, {"time": 139200, "pitch": 59, "duration": 640, "velocity": 115}, {"time": 139200, "pitch": 63, "duration": 630, "velocity": 95}, {"time": 139920, "pitch": 56, "duration": 90, "velocity": 99}, {"time": 139920, "pitch": 59, "duration": 100, "velocity": 115}, {"time": 139920, "pitch": 64, "duration": 90, "velocity": 112}, {"time": 140400, "pitch": 56, "duration": 100, "velocity": 108}, {"time": 140400, "pitch": 59, "duration": 100, "velocity": 115}, {"time": 140400, "pitch": 64, "duration": 110, "velocity": 112}, {"time": 140880, "pitch": 54, "duration": 2090, "velocity": 101}, {"time": 140880, "pitch": 56, "duration": 2100, "velocity": 90}, {"time": 140880, "pitch": 58, "duration": 2100, "velocity": 92}, {"time": 140880, "pitch": 61, "duration": 2110, "velocity": 112}, {"time": 140880, "pitch": 64, "duration": 2120, "velocity": 108}, {"time": 143040, "pitch": 47, "duration": 630, "velocity": 108}, {"time": 143040, "pitch": 57, "duration": 620, "velocity": 117}, {"time": 143040, "pitch": 61, "duration": 610, "velocity": 115}, {"time": 143040, "pitch": 65, "duration": 600, "velocity": 117}, {"time": 143760, "pitch": 47, "duration": 1150, "velocity": 99}, {"time": 143760, "pitch": 57, "duration": 1130, "velocity": 112}, {"time": 143760, "pitch": 59, "duration": 1090, "velocity": 105}, {"time": 143760, "pitch": 64, "duration": 1020, "velocity": 112}, {"time": 144960, "pitch": 47, "duration": 140, "velocity": 116}, {"time": 144960, "pitch": 57, "duration": 150, "velocity": 111}, {"time": 144960, "pitch": 63, "duration": 160, "velocity": 121}, {"time": 144960, "pitch": 66, "duration": 150, "velocity": 106}, {"time": 148680, "pitch": 52, "duration": 1910, "velocity": 124}, {"time": 148800, "pitch": 62, "duration": 70, "velocity": 112}, {"time": 148800, "pitch": 66, "duration": 90, "velocity": 118}, {"time": 148800, "pitch": 68, "duration": 100, "velocity": 112}, {"time": 149040, "pitch": 62, "duration": 60, "velocity": 64}, {"time": 149040, "pitch": 66, "duration": 70, "velocity": 68}, {"time": 149040, "pitch": 68, "duration": 90, "velocity": 55}, {"time": 149280, "pitch": 62, "duration": 60, "velocity": 78}, {"time": 149280, "pitch": 66, "duration": 60, "velocity": 76}, {"time": 149280, "pitch": 68, "duration": 80, "velocity": 66}, {"time": 149520, "pitch": 62, "duration": 70, "velocity": 109}, {"time": 149520, "pitch": 66, "duration": 70, "velocity": 115}, {"time": 149520, "pitch": 68, "duration": 80, "velocity": 109}, {"time": 149760, "pitch": 62, "duration": 50, "velocity": 61}, {"time": 149760, "pitch": 66, "duration": 60, "velocity": 66}, {"time": 149760, "pitch": 68, "duration": 80, "velocity": 74}, {"time": 150000, "pitch": 62, "duration": 50, "velocity": 93}, {"time": 150000, "pitch": 66, "duration": 60, "velocity": 97}, {"time": 150000, "pitch": 68, "duration": 60, "velocity": 84}, {"time": 150240, "pitch": 62, "duration": 70, "velocity": 91}, {"time": 150240, "pitch": 66, "duration": 80, "velocity": 100}, {"time": 150240, "pitch": 68, "duration": 80, "velocity": 89}, {"time": 150480, "pitch": 62, "duration": 270, "velocity": 112}, {"time": 150480, "pitch": 66, "duration": 290, "velocity": 118}, {"time": 150480, "pitch": 69, "duration": 280, "velocity": 109}, {"time": 150600, "pitch": 52, "duration": 1750, "velocity": 127}, {"time": 150960, "pitch": 62, "duration": 50, "velocity": 93}, {"time": 150960, "pitch": 66, "duration": 30, "velocity": 84}, {"time": 150960, "pitch": 68, "duration": 40, "velocity": 66}, {"time": 151200, "pitch": 62, "duration": 50, "velocity": 93}, {"time": 151200, "pitch": 66, "duration": 50, "velocity": 97}, {"time": 151200, "pitch": 68, "duration": 40, "velocity": 74}, {"time": 151440, "pitch": 62, "duration": 70, "velocity": 109}, {"time": 151440, "pitch": 66, "duration": 70, "velocity": 104}, {"time": 151440, "pitch": 68, "duration": 100, "velocity": 107}, {"time": 151680, "pitch": 62, "duration": 50, "velocity": 70}, {"time": 151680, "pitch": 66, "duration": 40, "velocity": 64}, {"time": 151680, "pitch": 68, "duration": 60, "velocity": 64}, {"time": 151920, "pitch": 62, "duration": 50, "velocity": 93}, {"time": 151920, "pitch": 66, "duration": 60, "velocity": 104}, {"time": 151920, "pitch": 68, "duration": 70, "velocity": 93}, {"time": 152160, "pitch": 62, "duration": 60, "velocity": 100}, {"time": 152160, "pitch": 66, "duration": 60, "velocity": 102}, {"time": 152160, "pitch": 68, "duration": 60, "velocity": 97}, {"time": 152400, "pitch": 62, "duration": 180, "velocity": 118}, {"time": 152400, "pitch": 66, "duration": 200, "velocity": 121}, {"time": 152400, "pitch": 68, "duration": 210, "velocity": 121}, {"time": 152510, "pitch": 57, "duration": 130, "velocity": 114}, {"time": 152640, "pitch": 57, "duration": 1620, "velocity": 114}, {"time": 152640, "pitch": 61, "duration": 150, "velocity": 117}, {"time": 152640, "pitch": 64, "duration": 140, "velocity": 117}, {"time": 152640, "pitch": 67, "duration": 140, "velocity": 100}, {"time": 152880, "pitch": 61, "duration": 80, "velocity": 91}, {"time": 152880, "pitch": 64, "duration": 80, "velocity": 102}, {"time": 152880, "pitch": 67, "duration": 60, "velocity": 84}, {"time": 153120, "pitch": 61, "duration": 60, "velocity": 107}, {"time": 153120, "pitch": 64, "duration": 50, "velocity": 100}, {"time": 153120, "pitch": 67, "duration": 60, "velocity": 89}, {"time": 153360, "pitch": 61, "duration": 70, "velocity": 121}, {"time": 153360, "pitch": 64, "duration": 60, "velocity": 112}, {"time": 153360, "pitch": 67, "duration": 70, "velocity": 107}, {"time": 153600, "pitch": 61, "duration": 80, "velocity": 72}, {"time": 153600, "pitch": 64, "duration": 80, "velocity": 74}, {"time": 153600, "pitch": 67, "duration": 70, "velocity": 70}, {"time": 153840, "pitch": 61, "duration": 60, "velocity": 95}, {"time": 153840, "pitch": 64, "duration": 60, "velocity": 93}, {"time": 153840, "pitch": 67, "duration": 50, "velocity": 76}, {"time": 154080, "pitch": 61, "duration": 60, "velocity": 91}, {"time": 154080, "pitch": 64, "duration": 60, "velocity": 93}, {"time": 154080, "pitch": 67, "duration": 60, "velocity": 82}, {"time": 154320, "pitch": 61, "duration": 210, "velocity": 114}, {"time": 154320, "pitch": 64, "duration": 200, "velocity": 114}, {"time": 154320, "pitch": 69, "duration": 200, "velocity": 105}, {"time": 154430, "pitch": 57, "duration": 130, "velocity": 100}, {"time": 154560, "pitch": 57, "duration": 1750, "velocity": 100}, {"time": 154560, "pitch": 61, "duration": 150, "velocity": 113}, {"time": 154560, "pitch": 64, "duration": 140, "velocity": 113}, {"time": 154560, "pitch": 67, "duration": 140, "velocity": 96}, {"time": 154800, "pitch": 61, "duration": 60, "velocity": 62}, {"time": 154800, "pitch": 64, "duration": 60, "velocity": 68}, {"time": 154800, "pitch": 67, "duration": 70, "velocity": 84}, {"time": 155040, "pitch": 61, "duration": 70, "velocity": 102}, {"time": 155040, "pitch": 64, "duration": 60, "velocity": 102}, {"time": 155040, "pitch": 67, "duration": 70, "velocity": 100}, {"time": 155280, "pitch": 61, "duration": 120, "velocity": 118}, {"time": 155280, "pitch": 64, "duration": 130, "velocity": 115}, {"time": 155280, "pitch": 67, "duration": 110, "velocity": 109}, {"time": 155520, "pitch": 61, "duration": 70, "velocity": 93}, {"time": 155520, "pitch": 64, "duration": 60, "velocity": 89}, {"time": 155520, "pitch": 67, "duration": 50, "velocity": 74}, {"time": 155760, "pitch": 61, "duration": 70, "velocity": 104}, {"time": 155760, "pitch": 64, "duration": 70, "velocity": 104}, {"time": 155760, "pitch": 67, "duration": 60, "velocity": 91}, {"time": 156000, "pitch": 61, "duration": 70, "velocity": 107}, {"time": 156000, "pitch": 64, "duration": 70, "velocity": 109}, {"time": 156000, "pitch": 67, "duration": 60, "velocity": 97}, {"time": 156240, "pitch": 61, "duration": 210, "velocity": 127}, {"time": 156240, "pitch": 64, "duration": 210, "velocity": 127}, {"time": 156240, "pitch": 67, "duration": 200, "velocity": 118}, {"time": 156360, "pitch": 52, "duration": 1910, "velocity": 124}, {"time": 156480, "pitch": 62, "duration": 70, "velocity": 112}, {"time": 156480, "pitch": 66, "duration": 90, "velocity": 118}, {"time": 156480, "pitch": 68, "duration": 100, "velocity": 112}, {"time": 156720, "pitch": 62, "duration": 60, "velocity": 64}, {"time": 156720, "pitch": 66, "duration": 70, "velocity": 68}, {"time": 156720, "pitch": 68, "duration": 90, "velocity": 55}, {"time": 156960, "pitch": 62, "duration": 60, "velocity": 78}, {"time": 156960, "pitch": 66, "duration": 60, "velocity": 76}, {"time": 156960, "pitch": 68, "duration": 80, "velocity": 66}, {"time": 157200, "pitch": 62, "duration": 70, "velocity": 109}, {"time": 157200, "pitch": 66, "duration": 70, "velocity": 115}, {"time": 157200, "pitch": 68, "duration": 80, "velocity": 109}, {"time": 157440, "pitch": 62, "duration": 50, "velocity": 61}, {"time": 157440, "pitch": 66, "duration": 60, "velocity": 66}, {"time": 157440, "pitch": 68, "duration": 80, "velocity": 74}, {"time": 157680, "pitch": 62, "duration": 50, "velocity": 93}, {"time": 157680, "pitch": 66, "duration": 60, "velocity": 97}, {"time": 157680, "pitch": 68, "duration": 60, "velocity": 84}, {"time": 157920, "pitch": 62, "duration": 70, "velocity": 91}, {"time": 157920, "pitch": 66, "duration": 80, "velocity": 100}, {"time": 157920, "pitch": 68, "duration": 80, "velocity": 89}, {"time": 158160, "pitch": 62, "duration": 270, "velocity": 112}, {"time": 158160, "pitch": 66, "duration": 290, "velocity": 118}, {"time": 158160, "pitch": 69, "duration": 280, "velocity": 109}, {"time": 158280, "pitch": 52, "duration": 1750, "velocity": 127}, {"time": 158640, "pitch": 62, "duration": 50, "velocity": 93}, {"time": 158640, "pitch": 66, "duration": 30, "velocity": 84}, {"time": 158640, "pitch": 68, "duration": 40, "velocity": 66}, {"time": 158880, "pitch": 62, "duration": 50, "velocity": 93}, {"time": 158880, "pitch": 66, "duration": 50, "velocity": 97}, {"time": 158880, "pitch": 68, "duration": 40, "velocity": 74}, {"time": 159120, "pitch": 62, "duration": 70, "velocity": 109}, {"time": 159120, "pitch": 66, "duration": 70, "velocity": 104}, {"time": 159120, "pitch": 68, "duration": 100, "velocity": 107}, {"time": 159360, "pitch": 62, "duration": 50, "velocity": 70}, {"time": 159360, "pitch": 66, "duration": 40, "velocity": 64}, {"time": 159360, "pitch": 68, "duration": 60, "velocity": 64}, {"time": 159600, "pitch": 62, "duration": 50, "velocity": 93}, {"time": 159600, "pitch": 66, "duration": 60, "velocity": 104}, {"time": 159600, "pitch": 68, "duration": 70, "velocity": 93}, {"time": 159840, "pitch": 62, "duration": 60, "velocity": 100}, {"time": 159840, "pitch": 66, "duration": 60, "velocity": 102}, {"time": 159840, "pitch": 68, "duration": 60, "velocity": 97}, {"time": 160080, "pitch": 62, "duration": 180, "velocity": 118}, {"time": 160080, "pitch": 66, "duration": 200, "velocity": 121}, {"time": 160080, "pitch": 68, "duration": 210, "velocity": 121}, {"time": 160190, "pitch": 57, "duration": 130, "velocity": 120}, {"time": 160320, "pitch": 57, "duration": 1620, "velocity": 120}, {"time": 160320, "pitch": 61, "duration": 150, "velocity": 117}, {"time": 160320, "pitch": 64, "duration": 140, "velocity": 117}, {"time": 160320, "pitch": 67, "duration": 140, "velocity": 100}, {"time": 160560, "pitch": 61, "duration": 80, "velocity": 91}, {"time": 160560, "pitch": 64, "duration": 80, "velocity": 102}, {"time": 160560, "pitch": 67, "duration": 60, "velocity": 84}, {"time": 160800, "pitch": 61, "duration": 60, "velocity": 107}, {"time": 160800, "pitch": 64, "duration": 50, "velocity": 100}, {"time": 160800, "pitch": 67, "duration": 60, "velocity": 89}, {"time": 161040, "pitch": 61, "duration": 70, "velocity": 121}, {"time": 161040, "pitch": 64, "duration": 60, "velocity": 112}, {"time": 161040, "pitch": 67, "duration": 70, "velocity": 107}, {"time": 161280, "pitch": 61, "duration": 80, "velocity": 72}, {"time": 161280, "pitch": 64, "duration": 80, "velocity": 74}, {"time": 161280, "pitch": 67, "duration": 70, "velocity": 70}, {"time": 161520, "pitch": 61, "duration": 60, "velocity": 95}, {"time": 161520, "pitch": 64, "duration": 60, "velocity": 93}, {"time": 161520, "pitch": 67, "duration": 50, "velocity": 76}, {"time": 161760, "pitch": 61, "duration": 60, "velocity": 91}, {"time": 161760, "pitch": 64, "duration": 60, "velocity": 93}, {"time": 161760, "pitch": 67, "duration": 60, "velocity": 82}, {"time": 162000, "pitch": 61, "duration": 210, "velocity": 114}, {"time": 162000, "pitch": 64, "duration": 200, "velocity": 114}, {"time": 162000, "pitch": 69, "duration": 200, "velocity": 105}, {"time": 162110, "pitch": 57, "duration": 130, "velocity": 122}, {"time": 162240, "pitch": 57, "duration": 1750, "velocity": 122}, {"time": 162240, "pitch": 61, "duration": 150, "velocity": 113}, {"time": 162240, "pitch": 64, "duration": 140, "velocity": 113}, {"time": 162240, "pitch": 67, "duration": 140, "velocity": 96}, {"time": 162480, "pitch": 61, "duration": 60, "velocity": 62}, {"time": 162480, "pitch": 64, "duration": 60, "velocity": 68}, {"time": 162480, "pitch": 67, "duration": 70, "velocity": 84}, {"time": 162720, "pitch": 61, "duration": 70, "velocity": 102}, {"time": 162720, "pitch": 64, "duration": 60, "velocity": 102}, {"time": 162720, "pitch": 67, "duration": 70, "velocity": 100}, {"time": 162960, "pitch": 61, "duration": 120, "velocity": 118}, {"time": 162960, "pitch": 64, "duration": 130, "velocity": 115}, {"time": 162960, "pitch": 67, "duration": 110, "velocity": 109}, {"time": 163200, "pitch": 61, "duration": 70, "velocity": 93}, {"time": 163200, "pitch": 64, "duration": 60, "velocity": 89}, {"time": 163200, "pitch": 67, "duration": 50, "velocity": 74}, {"time": 163440, "pitch": 61, "duration": 70, "velocity": 104}, {"time": 163440, "pitch": 64, "duration": 70, "velocity": 104}, {"time": 163440, "pitch": 67, "duration": 60, "velocity": 91}, {"time": 163680, "pitch": 61, "duration": 70, "velocity": 107}, {"time": 163680, "pitch": 64, "duration": 70, "velocity": 109}, {"time": 163680, "pitch": 67, "duration": 60, "velocity": 97}, {"time": 163920, "pitch": 61, "duration": 210, "velocity": 127}, {"time": 163920, "pitch": 64, "duration": 210, "velocity": 127}, {"time": 163920, "pitch": 67, "duration": 200, "velocity": 118}, {"time": 164040, "pitch": 52, "duration": 1750, "velocity": 127}, {"time": 164160, "pitch": 62, "duration": 70, "velocity": 112}, {"time": 164160, "pitch": 66, "duration": 90, "velocity": 118}, {"time": 164160, "pitch": 68, "duration": 100, "velocity": 112}, {"time": 164400, "pitch": 62, "duration": 60, "velocity": 64}, {"time": 164400, "pitch": 66, "duration": 70, "velocity": 68}, {"time": 164400, "pitch": 68, "duration": 90, "velocity": 55}, {"time": 164640, "pitch": 62, "duration": 60, "velocity": 78}, {"time": 164640, "pitch": 66, "duration": 60, "velocity": 76}, {"time": 164640, "pitch": 68, "duration": 80, "velocity": 66}, {"time": 164880, "pitch": 62, "duration": 70, "velocity": 109}, {"time": 164880, "pitch": 66, "duration": 70, "velocity": 115}, {"time": 164880, "pitch": 68, "duration": 80, "velocity": 109}, {"time": 165120, "pitch": 62, "duration": 50, "velocity": 61}, {"time": 165120, "pitch": 66, "duration": 60, "velocity": 66}, {"time": 165120, "pitch": 68, "duration": 80, "velocity": 74}, {"time": 165360, "pitch": 62, "duration": 50, "velocity": 93}, {"time": 165360, "pitch": 66, "duration": 60, "velocity": 97}, {"time": 165360, "pitch": 68, "duration": 60, "velocity": 84}, {"time": 165600, "pitch": 62, "duration": 70, "velocity": 91}, {"time": 165600, "pitch": 66, "duration": 80, "velocity": 100}, {"time": 165600, "pitch": 68, "duration": 80, "velocity": 89}, {"time": 165840, "pitch": 62, "duration": 270, "velocity": 112}, {"time": 165840, "pitch": 66, "duration": 290, "velocity": 118}, {"time": 165840, "pitch": 69, "duration": 280, "velocity": 109}, {"time": 165960, "pitch": 52, "duration": 1750, "velocity": 127}, {"time": 166320, "pitch": 62, "duration": 50, "velocity": 93}, {"time": 166320, "pitch": 66, "duration": 30, "velocity": 84}, {"time": 166320, "pitch": 68, "duration": 40, "velocity": 66}, {"time": 166560, "pitch": 62, "duration": 50, "velocity": 93}, {"time": 166560, "pitch": 66, "duration": 50, "velocity": 97}, {"time": 166560, "pitch": 68, "duration": 40, "velocity": 74}, {"time": 166800, "pitch": 62, "duration": 70, "velocity": 109}, {"time": 166800, "pitch": 66, "duration": 70, "velocity": 104}, {"time": 166800, "pitch": 68, "duration": 100, "velocity": 107}, {"time": 167040, "pitch": 62, "duration": 50, "velocity": 70}, {"time": 167040, "pitch": 66, "duration": 40, "velocity": 64}, {"time": 167040, "pitch": 68, "duration": 60, "velocity": 64}, {"time": 167280, "pitch": 62, "duration": 50, "velocity": 93}, {"time": 167280, "pitch": 66, "duration": 60, "velocity": 104}, {"time": 167280, "pitch": 68, "duration": 70, "velocity": 93}, {"time": 167520, "pitch": 62, "duration": 60, "velocity": 100}, {"time": 167520, "pitch": 66, "duration": 60, "velocity": 102}, {"time": 167520, "pitch": 68, "duration": 60, "velocity": 97}, {"time": 167760, "pitch": 62, "duration": 180, "velocity": 118}, {"time": 167760, "pitch": 66, "duration": 200, "velocity": 121}, {"time": 167760, "pitch": 68, "duration": 210, "velocity": 121}, {"time": 167870, "pitch": 57, "duration": 130, "velocity": 114}, {"time": 168000, "pitch": 57, "duration": 1620, "velocity": 114}, {"time": 168000, "pitch": 61, "duration": 150, "velocity": 117}, {"time": 168000, "pitch": 64, "duration": 140, "velocity": 117}, {"time": 168000, "pitch": 67, "duration": 140, "velocity": 100}, {"time": 168240, "pitch": 61, "duration": 80, "velocity": 91}, {"time": 168240, "pitch": 64, "duration": 80, "velocity": 102}, {"time": 168240, "pitch": 67, "duration": 60, "velocity": 84}, {"time": 168480, "pitch": 61, "duration": 60, "velocity": 107}, {"time": 168480, "pitch": 64, "duration": 50, "velocity": 100}, {"time": 168480, "pitch": 67, "duration": 60, "velocity": 89}, {"time": 168720, "pitch": 61, "duration": 70, "velocity": 121}, {"time": 168720, "pitch": 64, "duration": 60, "velocity": 112}, {"time": 168720, "pitch": 67, "duration": 70, "velocity": 107}, {"time": 168960, "pitch": 61, "duration": 80, "velocity": 72}, {"time": 168960, "pitch": 64, "duration": 80, "velocity": 74}, {"time": 168960, "pitch": 67, "duration": 70, "velocity": 70}, {"time": 169200, "pitch": 61, "duration": 60, "velocity": 95}, {"time": 169200, "pitch": 64, "duration": 60, "velocity": 93}, {"time": 169200, "pitch": 67, "duration": 50, "velocity": 76}, {"time": 169440, "pitch": 61, "duration": 60, "velocity": 91}, {"time": 169440, "pitch": 64, "duration": 60, "velocity": 93}, {"time": 169440, "pitch": 67, "duration": 60, "velocity": 82}, {"time": 169680, "pitch": 61, "duration": 210, "velocity": 114}, {"time": 169680, "pitch": 64, "duration": 200, "velocity": 114}, {"time": 169680, "pitch": 69, "duration": 200, "velocity": 105}, {"time": 169790, "pitch": 57, "duration": 130, "velocity": 100}, {"time": 169920, "pitch": 57, "duration": 1750, "velocity": 100}, {"time": 169920, "pitch": 61, "duration": 150, "velocity": 113}, {"time": 169920, "pitch": 64, "duration": 140, "velocity": 113}, {"time": 169920, "pitch": 67, "duration": 140, "velocity": 96}, {"time": 170160, "pitch": 61, "duration": 60, "velocity": 62}, {"time": 170160, "pitch": 64, "duration": 60, "velocity": 68}, {"time": 170160, "pitch": 67, "duration": 70, "velocity": 84}, {"time": 170400, "pitch": 61, "duration": 70, "velocity": 102}, {"time": 170400, "pitch": 64, "duration": 60, "velocity": 102}, {"time": 170400, "pitch": 67, "duration": 70, "velocity": 100}, {"time": 170640, "pitch": 61, "duration": 120, "velocity": 118}, {"time": 170640, "pitch": 64, "duration": 130, "velocity": 115}, {"time": 170640, "pitch": 67, "duration": 110, "velocity": 109}, {"time": 170880, "pitch": 61, "duration": 70, "velocity": 93}, {"time": 170880, "pitch": 64, "duration": 60, "velocity": 89}, {"time": 170880, "pitch": 67, "duration": 50, "velocity": 74}, {"time": 171120, "pitch": 61, "duration": 70, "velocity": 104}, {"time": 171120, "pitch": 64, "duration": 70, "velocity": 104}, {"time": 171120, "pitch": 67, "duration": 60, "velocity": 91}, {"time": 171360, "pitch": 61, "duration": 70, "velocity": 107}, {"time": 171360, "pitch": 64, "duration": 70, "velocity": 109}, {"time": 171360, "pitch": 67, "duration": 60, "velocity": 97}, {"time": 171600, "pitch": 61, "duration": 210, "velocity": 127}, {"time": 171600, "pitch": 64, "duration": 210, "velocity": 127}, {"time": 171600, "pitch": 67, "duration": 200, "velocity": 118}, {"time": 171720, "pitch": 52, "duration": 1910, "velocity": 124}, {"time": 171840, "pitch": 62, "duration": 70, "velocity": 112}, {"time": 171840, "pitch": 66, "duration": 90, "velocity": 118}, {"time": 171840, "pitch": 68, "duration": 100, "velocity": 112}, {"time": 172080, "pitch": 62, "duration": 60, "velocity": 64}, {"time": 172080, "pitch": 66, "duration": 70, "velocity": 68}, {"time": 172080, "pitch": 68, "duration": 90, "velocity": 55}, {"time": 172320, "pitch": 62, "duration": 60, "velocity": 78}, {"time": 172320, "pitch": 66, "duration": 60, "velocity": 76}, {"time": 172320, "pitch": 68, "duration": 80, "velocity": 66}, {"time": 172560, "pitch": 62, "duration": 70, "velocity": 109}, {"time": 172560, "pitch": 66, "duration": 70, "velocity": 115}, {"time": 172560, "pitch": 68, "duration": 80, "velocity": 109}, {"time": 172800, "pitch": 62, "duration": 50, "velocity": 61}, {"time": 172800, "pitch": 66, "duration": 60, "velocity": 66}, {"time": 172800, "pitch": 68, "duration": 80, "velocity": 74}, {"time": 173040, "pitch": 62, "duration": 50, "velocity": 93}, {"time": 173040, "pitch": 66, "duration": 60, "velocity": 97}, {"time": 173040, "pitch": 68, "duration": 60, "velocity": 84}, {"time": 173280, "pitch": 62, "duration": 70, "velocity": 91}, {"time": 173280, "pitch": 66, "duration": 80, "velocity": 100}, {"time": 173280, "pitch": 68, "duration": 80, "velocity": 89}, {"time": 173520, "pitch": 62, "duration": 270, "velocity": 112}, {"time": 173520, "pitch": 66, "duration": 290, "velocity": 118}, {"time": 173520, "pitch": 69, "duration": 280, "velocity": 109}, {"time": 173640, "pitch": 52, "duration": 1750, "velocity": 127}, {"time": 174000, "pitch": 62, "duration": 50, "velocity": 93}, {"time": 174000, "pitch": 66, "duration": 30, "velocity": 84}, {"time": 174000, "pitch": 68, "duration": 40, "velocity": 66}, {"time": 174240, "pitch": 62, "duration": 50, "velocity": 93}, {"time": 174240, "pitch": 66, "duration": 50, "velocity": 97}, {"time": 174240, "pitch": 68, "duration": 40, "velocity": 74}, {"time": 174480, "pitch": 62, "duration": 70, "velocity": 109}, {"time": 174480, "pitch": 66, "duration": 70, "velocity": 104}, {"time": 174480, "pitch": 68, "duration": 100, "velocity": 107}, {"time": 174720, "pitch": 62, "duration": 50, "velocity": 70}, {"time": 174720, "pitch": 66, "duration": 40, "velocity": 64}, {"time": 174720, "pitch": 68, "duration": 60, "velocity": 64}, {"time": 174960, "pitch": 62, "duration": 50, "velocity": 93}, {"time": 174960, "pitch": 66, "duration": 60, "velocity": 104}, {"time": 174960, "pitch": 68, "duration": 70, "velocity": 93}, {"time": 175200, "pitch": 62, "duration": 60, "velocity": 100}, {"time": 175200, "pitch": 66, "duration": 60, "velocity": 102}, {"time": 175200, "pitch": 68, "duration": 60, "velocity": 97}, {"time": 175440, "pitch": 62, "duration": 180, "velocity": 118}, {"time": 175440, "pitch": 66, "duration": 200, "velocity": 121}, {"time": 175440, "pitch": 68, "duration": 210, "velocity": 121}, {"time": 175550, "pitch": 57, "duration": 130, "velocity": 114}, {"time": 175680, "pitch": 57, "duration": 1620, "velocity": 114}, {"time": 175680, "pitch": 61, "duration": 150, "velocity": 117}, {"time": 175680, "pitch": 64, "duration": 140, "velocity": 117}, {"time": 175680, "pitch": 67, "duration": 140, "velocity": 100}, {"time": 175920, "pitch": 61, "duration": 80, "velocity": 91}, {"time": 175920, "pitch": 64, "duration": 80, "velocity": 102}, {"time": 175920, "pitch": 67, "duration": 60, "velocity": 84}, {"time": 176160, "pitch": 61, "duration": 60, "velocity": 107}, {"time": 176160, "pitch": 64, "duration": 50, "velocity": 100}, {"time": 176160, "pitch": 67, "duration": 60, "velocity": 89}, {"time": 176400, "pitch": 61, "duration": 70, "velocity": 121}, {"time": 176400, "pitch": 64, "duration": 60, "velocity": 112}, {"time": 176400, "pitch": 67, "duration": 70, "velocity": 107}, {"time": 176640, "pitch": 61, "duration": 80, "velocity": 72}, {"time": 176640, "pitch": 64, "duration": 80, "velocity": 74}, {"time": 176640, "pitch": 67, "duration": 70, "velocity": 70}, {"time": 176880, "pitch": 61, "duration": 60, "velocity": 95}, {"time": 176880, "pitch": 64, "duration": 60, "velocity": 93}, {"time": 176880, "pitch": 67, "duration": 50, "velocity": 76}, {"time": 177120, "pitch": 61, "duration": 60, "velocity": 91}, {"time": 177120, "pitch": 64, "duration": 60, "velocity": 93}, {"time": 177120, "pitch": 67, "duration": 60, "velocity": 82}, {"time": 177360, "pitch": 61, "duration": 210, "velocity": 114}, {"time": 177360, "pitch": 64, "duration": 200, "velocity": 114}, {"time": 177360, "pitch": 69, "duration": 200, "velocity": 105}, {"time": 177470, "pitch": 57, "duration": 130, "velocity": 100}, {"time": 177600, "pitch": 57, "duration": 1750, "velocity": 100}, {"time": 177600, "pitch": 61, "duration": 150, "velocity": 113}, {"time": 177600, "pitch": 64, "duration": 140, "velocity": 113}, {"time": 177600, "pitch": 67, "duration": 140, "velocity": 96}, {"time": 177840, "pitch": 61, "duration": 60, "velocity": 62}, {"time": 177840, "pitch": 64, "duration": 60, "velocity": 68}, {"time": 177840, "pitch": 67, "duration": 70, "velocity": 84}, {"time": 178080, "pitch": 61, "duration": 70, "velocity": 102}, {"time": 178080, "pitch": 64, "duration": 60, "velocity": 102}, {"time": 178080, "pitch": 67, "duration": 70, "velocity": 100}, {"time": 178320, "pitch": 61, "duration": 120, "velocity": 118}, {"time": 178320, "pitch": 64, "duration": 130, "velocity": 115}, {"time": 178320, "pitch": 67, "duration": 110, "velocity": 109}, {"time": 178560, "pitch": 61, "duration": 70, "velocity": 93}, {"time": 178560, "pitch": 64, "duration": 60, "velocity": 89}, {"time": 178560, "pitch": 67, "duration": 50, "velocity": 74}, {"time": 178800, "pitch": 61, "duration": 70, "velocity": 104}, {"time": 178800, "pitch": 64, "duration": 70, "velocity": 104}, {"time": 178800, "pitch": 67, "duration": 60, "velocity": 91}, {"time": 179040, "pitch": 61, "duration": 70, "velocity": 107}, {"time": 179040, "pitch": 64, "duration": 70, "velocity": 109}, {"time": 179040, "pitch": 67, "duration": 60, "velocity": 97}, {"time": 179280, "pitch": 61, "duration": 210, "velocity": 127}, {"time": 179280, "pitch": 64, "duration": 210, "velocity": 127}, {"time": 179280, "pitch": 67, "duration": 200, "velocity": 118}, {"time": 192960, "pitch": 52, "duration": 160, "velocity": 127}, {"time": 192960, "pitch": 62, "duration": 150, "velocity": 117}, {"time": 192960, "pitch": 66, "duration": 150, "velocity": 122}, {"time": 192960, "pitch": 68, "duration": 140, "velocity": 112}, {"time": 194520, "pitch": 53, "duration": 320, "velocity": 127}, {"time": 194520, "pitch": 63, "duration": 320, "velocity": 112}, {"time": 194520, "pitch": 67, "duration": 320, "velocity": 122}, {"time": 194520, "pitch": 70, "duration": 330, "velocity": 117}, {"time": 14880, "pitch": 40, "duration": 300, "velocity": 120}, {"time": 16440, "pitch": 41, "duration": 340, "velocity": 120}, {"time": 16800, "pitch": 28, "duration": 230, "velocity": 95}, {"time": 17040, "pitch": 30, "duration": 120, "velocity": 69}, {"time": 17160, "pitch": 31, "duration": 110, "velocity": 59}, {"time": 17280, "pitch": 32, "duration": 110, "velocity": 78}, {"time": 17400, "pitch": 35, "duration": 120, "velocity": 88}, {"time": 17520, "pitch": 37, "duration": 120, "velocity": 78}, {"time": 17640, "pitch": 40, "duration": 360, "velocity": 120}, {"time": 18000, "pitch": 38, "duration": 110, "velocity": 103}, {"time": 18600, "pitch": 38, "duration": 360, "velocity": 103}, {"time": 18960, "pitch": 37, "duration": 90, "velocity": 95}, {"time": 19560, "pitch": 35, "duration": 350, "velocity": 112}, {"time": 19920, "pitch": 37, "duration": 90, "velocity": 103}, {"time": 20160, "pitch": 33, "duration": 80, "velocity": 120}, {"time": 20280, "pitch": 31, "duration": 330, "velocity": 115}, {"time": 20640, "pitch": 28, "duration": 230, "velocity": 95}, {"time": 20880, "pitch": 30, "duration": 120, "velocity": 69}, {"time": 21000, "pitch": 31, "duration": 110, "velocity": 59}, {"time": 21120, "pitch": 32, "duration": 110, "velocity": 78}, {"time": 21240, "pitch": 35, "duration": 120, "velocity": 88}, {"time": 21360, "pitch": 37, "duration": 120, "velocity": 78}, {"time": 21480, "pitch": 40, "duration": 360, "velocity": 120}, {"time": 21840, "pitch": 38, "duration": 110, "velocity": 103}, {"time": 22440, "pitch": 38, "duration": 360, "velocity": 103}, {"time": 22800, "pitch": 37, "duration": 90, "velocity": 95}, {"time": 23520, "pitch": 35, "duration": 110, "velocity": 115}, {"time": 23640, "pitch": 43, "duration": 140, "velocity": 120}, {"time": 23880, "pitch": 43, "duration": 110, "velocity": 109}, {"time": 24120, "pitch": 43, "duration": 110, "velocity": 120}, {"time": 24360, "pitch": 37, "duration": 100, "velocity": 109}, {"time": 24480, "pitch": 28, "duration": 230, "velocity": 95}, {"time": 24720, "pitch": 30, "duration": 120, "velocity": 69}, {"time": 24840, "pitch": 31, "duration": 110, "velocity": 59}, {"time": 24960, "pitch": 32, "duration": 110, "velocity": 78}, {"time": 25080, "pitch": 35, "duration": 120, "velocity": 88}, {"time": 25200, "pitch": 37, "duration": 120, "velocity": 78}, {"time": 25320, "pitch": 40, "duration": 360, "velocity": 120}, {"time": 25680, "pitch": 38, "duration": 110, "velocity": 103}, {"time": 26280, "pitch": 38, "duration": 360, "velocity": 103}, {"time": 26640, "pitch": 37, "duration": 90, "velocity": 95}, {"time": 27240, "pitch": 35, "duration": 350, "velocity": 112}, {"time": 27600, "pitch": 37, "duration": 90, "velocity": 103}, {"time": 27840, "pitch": 33, "duration": 80, "velocity": 120}, {"time": 27960, "pitch": 31, "duration": 330, "velocity": 115}, {"time": 28320, "pitch": 28, "duration": 230, "velocity": 95}, {"time": 28560, "pitch": 30, "duration": 120, "velocity": 69}, {"time": 28680, "pitch": 31, "duration": 110, "velocity": 59}, {"time": 28800, "pitch": 32, "duration": 110, "velocity": 78}, {"time": 28920, "pitch": 35, "duration": 120, "velocity": 88}, {"time": 29040, "pitch": 37, "duration": 120, "velocity": 78}, {"time": 29160, "pitch": 40, "duration": 360, "velocity": 120}, {"time": 29520, "pitch": 38, "duration": 110, "velocity": 103}, {"time": 30120, "pitch": 38, "duration": 360, "velocity": 103}, {"time": 30480, "pitch": 37, "duration": 90, "velocity": 95}, {"time": 31200, "pitch": 35, "duration": 110, "velocity": 115}, {"time": 31320, "pitch": 43, "duration": 140, "velocity": 120}, {"time": 31560, "pitch": 43, "duration": 110, "velocity": 109}, {"time": 31800, "pitch": 43, "duration": 110, "velocity": 120}, {"time": 32040, "pitch": 37, "duration": 100, "velocity": 109}, {"time": 32160, "pitch": 28, "duration": 230, "velocity": 95}, {"time": 32400, "pitch": 30, "duration": 120, "velocity": 69}, {"time": 32520, "pitch": 31, "duration": 110, "velocity": 59}, {"time": 32640, "pitch": 32, "duration": 110, "velocity": 78}, {"time": 32760, "pitch": 35, "duration": 120, "velocity": 88}, {"time": 32880, "pitch": 37, "duration": 120, "velocity": 78}, {"time": 33000, "pitch": 40, "duration": 360, "velocity": 120}, {"time": 33360, "pitch": 38, "duration": 110, "velocity": 103}, {"time": 33960, "pitch": 38, "duration": 360, "velocity": 103}, {"time": 34320, "pitch": 37, "duration": 90, "velocity": 95}, {"time": 34920, "pitch": 35, "duration": 350, "velocity": 112}, {"time": 35280, "pitch": 37, "duration": 90, "velocity": 103}, {"time": 35520, "pitch": 33, "duration": 80, "velocity": 120}, {"time": 35640, "pitch": 31, "duration": 330, "velocity": 115}, {"time": 36000, "pitch": 28, "duration": 230, "velocity": 95}, {"time": 36240, "pitch": 30, "duration": 120, "velocity": 69}, {"time": 36360, "pitch": 31, "duration": 110, "velocity": 59}, {"time": 36480, "pitch": 32, "duration": 110, "velocity": 78}, {"time": 36600, "pitch": 35, "duration": 120, "velocity": 88}, {"time": 36720, "pitch": 37, "duration": 120, "velocity": 78}, {"time": 36840, "pitch": 40, "duration": 360, "velocity": 120}, {"time": 37200, "pitch": 38, "duration": 110, "velocity": 103}, {"time": 37800, "pitch": 38, "duration": 360, "velocity": 103}, {"time": 38160, "pitch": 37, "duration": 90, "velocity": 95}, {"time": 38880, "pitch": 35, "duration": 110, "velocity": 115}, {"time": 39000, "pitch": 43, "duration": 140, "velocity": 120}, {"time": 39240, "pitch": 35, "duration": 110, "velocity": 109}, {"time": 39360, "pitch": 43, "duration": 110, "velocity": 120}, {"time": 39600, "pitch": 35, "duration": 110, "velocity": 120}, {"time": 39720, "pitch": 37, "duration": 100, "velocity": 109}, {"time": 39840, "pitch": 37, "duration": 240, "velocity": 98}, {"time": 40080, "pitch": 49, "duration": 60, "velocity": 108}, {"time": 40320, "pitch": 39, "duration": 240, "velocity": 103}, {"time": 40560, "pitch": 51, "duration": 60, "velocity": 110}, {"time": 40800, "pitch": 40, "duration": 240, "velocity": 98}, {"time": 41040, "pitch": 52, "duration": 60, "velocity": 108}, {"time": 41280, "pitch": 44, "duration": 240, "velocity": 103}, {"time": 41520, "pitch": 56, "duration": 60, "velocity": 110}, {"time": 41760, "pitch": 30, "duration": 240, "velocity": 98}, {"time": 42000, "pitch": 42, "duration": 60, "velocity": 108}, {"time": 42240, "pitch": 32, "duration": 240, "velocity": 103}, {"time": 42480, "pitch": 44, "duration": 60, "velocity": 110}, {"time": 42720, "pitch": 34, "duration": 240, "velocity": 98}, {"time": 42960, "pitch": 46, "duration": 60, "velocity": 108}, {"time": 43200, "pitch": 37, "duration": 240, "velocity": 103}, {"time": 43440, "pitch": 49, "duration": 60, "velocity": 110}, {"time": 43680, "pitch": 37, "duration": 240, "velocity": 98}, {"time": 43920, "pitch": 49, "duration": 60, "velocity": 108}, {"time": 44160, "pitch": 39, "duration": 240, "velocity": 103}, {"time": 44400, "pitch": 51, "duration": 60, "velocity": 110}, {"time": 44640, "pitch": 40, "duration": 240, "velocity": 98}, {"time": 44880, "pitch": 52, "duration": 60, "velocity": 108}, {"time": 45120, "pitch": 44, "duration": 240, "velocity": 103}, {"time": 45360, "pitch": 56, "duration": 60, "velocity": 110}, {"time": 45600, "pitch": 30, "duration": 240, "velocity": 98}, {"time": 45840, "pitch": 42, "duration": 60, "velocity": 108}, {"time": 46080, "pitch": 32, "duration": 240, "velocity": 103}, {"time": 46320, "pitch": 44, "duration": 60, "velocity": 110}, {"time": 46560, "pitch": 34, "duration": 240, "velocity": 98}, {"time": 46800, "pitch": 46, "duration": 60, "velocity": 108}, {"time": 47040, "pitch": 37, "duration": 240, "velocity": 103}, {"time": 47280, "pitch": 49, "duration": 60, "velocity": 110}, {"time": 47520, "pitch": 35, "duration": 240, "velocity": 98}, {"time": 47760, "pitch": 47, "duration": 60, "velocity": 108}, {"time": 48000, "pitch": 42, "duration": 240, "velocity": 103}, {"time": 48240, "pitch": 54, "duration": 60, "velocity": 110}, {"time": 48480, "pitch": 35, "duration": 240, "velocity": 98}, {"time": 48720, "pitch": 47, "duration": 60, "velocity": 108}, {"time": 48960, "pitch": 42, "duration": 240, "velocity": 103}, {"time": 49200, "pitch": 54, "duration": 60, "velocity": 110}, {"time": 49440, "pitch": 35, "duration": 120, "velocity": 101}, {"time": 50860, "pitch": 49, "duration": 500, "velocity": 100}, {"time": 51360, "pitch": 28, "duration": 90, "velocity": 95}, {"time": 51600, "pitch": 28, "duration": 80, "velocity": 98}, {"time": 51840, "pitch": 28, "duration": 240, "velocity": 109}, {"time": 52080, "pitch": 26, "duration": 90, "velocity": 100}, {"time": 52200, "pitch": 28, "duration": 100, "velocity": 103}, {"time": 52440, "pitch": 28, "duration": 240, "velocity": 108}, {"time": 52680, "pitch": 26, "duration": 90, "velocity": 98}, {"time": 52800, "pitch": 28, "duration": 240, "velocity": 103}, {"time": 53040, "pitch": 32, "duration": 230, "velocity": 88}, {"time": 53280, "pitch": 28, "duration": 110, "velocity": 106}, {"time": 53520, "pitch": 28, "duration": 110, "velocity": 98}, {"time": 53760, "pitch": 28, "duration": 230, "velocity": 103}, {"time": 54000, "pitch": 26, "duration": 80, "velocity": 109}, {"time": 54120, "pitch": 28, "duration": 110, "velocity": 106}, {"time": 54360, "pitch": 28, "duration": 240, "velocity": 106}, {"time": 54600, "pitch": 26, "duration": 70, "velocity": 109}, {"time": 54720, "pitch": 28, "duration": 230, "velocity": 103}, {"time": 54960, "pitch": 32, "duration": 210, "velocity": 98}, {"time": 55200, "pitch": 33, "duration": 120, "velocity": 95}, {"time": 55440, "pitch": 33, "duration": 110, "velocity": 103}, {"time": 55680, "pitch": 33, "duration": 250, "velocity": 106}, {"time": 55920, "pitch": 31, "duration": 80, "velocity": 112}, {"time": 56040, "pitch": 33, "duration": 120, "velocity": 106}, {"time": 56280, "pitch": 33, "duration": 230, "velocity": 109}, {"time": 56520, "pitch": 31, "duration": 70, "velocity": 99}, {"time": 56640, "pitch": 33, "duration": 230, "velocity": 103}, {"time": 56880, "pitch": 37, "duration": 240, "velocity": 86}, {"time": 57120, "pitch": 33, "duration": 120, "velocity": 103}, {"time": 57360, "pitch": 33, "duration": 120, "velocity": 84}, {"time": 57600, "pitch": 33, "duration": 230, "velocity": 112}, {"time": 57840, "pitch": 31, "duration": 70, "velocity": 106}, {"time": 57960, "pitch": 33, "duration": 120, "velocity": 109}, {"time": 58200, "pitch": 33, "duration": 240, "velocity": 115}, {"time": 58440, "pitch": 31, "duration": 70, "velocity": 106}, {"time": 58560, "pitch": 37, "duration": 230, "velocity": 103}, {"time": 58800, "pitch": 33, "duration": 210, "velocity": 95}, {"time": 59040, "pitch": 28, "duration": 90, "velocity": 95}, {"time": 59280, "pitch": 28, "duration": 80, "velocity": 98}, {"time": 59520, "pitch": 28, "duration": 220, "velocity": 109}, {"time": 59760, "pitch": 26, "duration": 90, "velocity": 100}, {"time": 59880, "pitch": 28, "duration": 100, "velocity": 103}, {"time": 60120, "pitch": 28, "duration": 250, "velocity": 103}, {"time": 60360, "pitch": 26, "duration": 90, "velocity": 97}, {"time": 60480, "pitch": 28, "duration": 260, "velocity": 103}, {"time": 60720, "pitch": 32, "duration": 230, "velocity": 88}, {"time": 60960, "pitch": 28, "duration": 110, "velocity": 106}, {"time": 61200, "pitch": 28, "duration": 110, "velocity": 98}, {"time": 61440, "pitch": 28, "duration": 230, "velocity": 103}, {"time": 61680, "pitch": 26, "duration": 80, "velocity": 109}, {"time": 61800, "pitch": 28, "duration": 110, "velocity": 106}, {"time": 62040, "pitch": 28, "duration": 230, "velocity": 106}, {"time": 62280, "pitch": 26, "duration": 70, "velocity": 109}, {"time": 62400, "pitch": 28, "duration": 230, "velocity": 103}, {"time": 62640, "pitch": 32, "duration": 210, "velocity": 98}, {"time": 62880, "pitch": 33, "duration": 120, "velocity": 95}, {"time": 63120, "pitch": 33, "duration": 110, "velocity": 103}, {"time": 63360, "pitch": 33, "duration": 220, "velocity": 106}, {"time": 63600, "pitch": 31, "duration": 80, "velocity": 112}, {"time": 63720, "pitch": 33, "duration": 120, "velocity": 106}, {"time": 63960, "pitch": 33, "duration": 230, "velocity": 112}, {"time": 64200, "pitch": 31, "duration": 70, "velocity": 103}, {"time": 64320, "pitch": 33, "duration": 240, "velocity": 107}, {"time": 64560, "pitch": 37, "duration": 240, "velocity": 86}, {"time": 64800, "pitch": 33, "duration": 120, "velocity": 103}, {"time": 65040, "pitch": 33, "duration": 120, "velocity": 84}, {"time": 65280, "pitch": 33, "duration": 240, "velocity": 112}, {"time": 65520, "pitch": 31, "duration": 70, "velocity": 101}, {"time": 65640, "pitch": 33, "duration": 120, "velocity": 109}, {"time": 65880, "pitch": 33, "duration": 240, "velocity": 115}, {"time": 66120, "pitch": 31, "duration": 70, "velocity": 106}, {"time": 66240, "pitch": 37, "duration": 230, "velocity": 103}, {"time": 66480, "pitch": 33, "duration": 210, "velocity": 95}, {"time": 66720, "pitch": 40, "duration": 230, "velocity": 95}, {"time": 66960, "pitch": 42, "duration": 120, "velocity": 69}, {"time": 67080, "pitch": 43, "duration": 110, "velocity": 59}, {"time": 67200, "pitch": 44, "duration": 110, "velocity": 78}, {"time": 67320, "pitch": 40, "duration": 120, "velocity": 88}, {"time": 67560, "pitch": 38, "duration": 200, "velocity": 120}, {"time": 67800, "pitch": 38, "duration": 60, "velocity": 95}, {"time": 67920, "pitch": 38, "duration": 110, "velocity": 103}, {"time": 68520, "pitch": 38, "duration": 160, "velocity": 112}, {"time": 68760, "pitch": 38, "duration": 70, "velocity": 103}, {"time": 68880, "pitch": 38, "duration": 120, "velocity": 112}, {"time": 69480, "pitch": 38, "duration": 140, "velocity": 112}, {"time": 69720, "pitch": 38, "duration": 70, "velocity": 103}, {"time": 69840, "pitch": 38, "duration": 170, "velocity": 112}, {"time": 70560, "pitch": 40, "duration": 230, "velocity": 95}, {"time": 70800, "pitch": 42, "duration": 120, "velocity": 69}, {"time": 70920, "pitch": 43, "duration": 110, "velocity": 59}, {"time": 71040, "pitch": 44, "duration": 110, "velocity": 78}, {"time": 71160, "pitch": 40, "duration": 120, "velocity": 88}, {"time": 71400, "pitch": 38, "duration": 200, "velocity": 120}, {"time": 71640, "pitch": 38, "duration": 60, "velocity": 95}, {"time": 71760, "pitch": 38, "duration": 110, "velocity": 103}, {"time": 72360, "pitch": 38, "duration": 120, "velocity": 112}, {"time": 72480, "pitch": 28, "duration": 190, "velocity": 120}, {"time": 74400, "pitch": 40, "duration": 150, "velocity": 109}, {"time": 74760, "pitch": 40, "duration": 160, "velocity": 109}, {"time": 75120, "pitch": 40, "duration": 150, "velocity": 109}, {"time": 75480, "pitch": 40, "duration": 80, "velocity": 106}, {"time": 75720, "pitch": 40, "duration": 60, "velocity": 115}, {"time": 75840, "pitch": 35, "duration": 240, "velocity": 106}, {"time": 76080, "pitch": 38, "duration": 240, "velocity": 98}, {"time": 76320, "pitch": 40, "duration": 150, "velocity": 109}, {"time": 76680, "pitch": 40, "duration": 160, "velocity": 109}, {"time": 77040, "pitch": 40, "duration": 150, "velocity": 109}, {"time": 77400, "pitch": 40, "duration": 80, "velocity": 106}, {"time": 77640, "pitch": 40, "duration": 60, "velocity": 115}, {"time": 77760, "pitch": 44, "duration": 240, "velocity": 106}, {"time": 78000, "pitch": 40, "duration": 240, "velocity": 98}, {"time": 78240, "pitch": 33, "duration": 150, "velocity": 109}, {"time": 78600, "pitch": 33, "duration": 160, "velocity": 109}, {"time": 78960, "pitch": 33, "duration": 150, "velocity": 109}, {"time": 79320, "pitch": 33, "duration": 80, "velocity": 106}, {"time": 79560, "pitch": 33, "duration": 60, "velocity": 115}, {"time": 79680, "pitch": 28, "duration": 240, "velocity": 106}, {"time": 79920, "pitch": 31, "duration": 240, "velocity": 98}, {"time": 80160, "pitch": 33, "duration": 150, "velocity": 109}, {"time": 80520, "pitch": 33, "duration": 160, "velocity": 109}, {"time": 80880, "pitch": 33, "duration": 150, "velocity": 109}, {"time": 81240, "pitch": 33, "duration": 80, "velocity": 106}, {"time": 81480, "pitch": 33, "duration": 60, "velocity": 115}, {"time": 81600, "pitch": 31, "duration": 240, "velocity": 106}, {"time": 81840, "pitch": 35, "duration": 240, "velocity": 98}, {"time": 82080, "pitch": 40, "duration": 150, "velocity": 109}, {"time": 82440, "pitch": 40, "duration": 160, "velocity": 109}, {"time": 82800, "pitch": 40, "duration": 150, "velocity": 109}, {"time": 83160, "pitch": 40, "duration": 80, "velocity": 106}, {"time": 83400, "pitch": 40, "duration": 60, "velocity": 115}, {"time": 83520, "pitch": 35, "duration": 240, "velocity": 106}, {"time": 83760, "pitch": 38, "duration": 240, "velocity": 98}, {"time": 84000, "pitch": 40, "duration": 150, "velocity": 109}, {"time": 84360, "pitch": 40, "duration": 160, "velocity": 109}, {"time": 84720, "pitch": 40, "duration": 150, "velocity": 109}, {"time": 85080, "pitch": 40, "duration": 80, "velocity": 106}, {"time": 85320, "pitch": 40, "duration": 60, "velocity": 115}, {"time": 85440, "pitch": 44, "duration": 240, "velocity": 106}, {"time": 85680, "pitch": 40, "duration": 240, "velocity": 98}, {"time": 85920, "pitch": 33, "duration": 150, "velocity": 109}, {"time": 86280, "pitch": 33, "duration": 160, "velocity": 109}, {"time": 86640, "pitch": 33, "duration": 150, "velocity": 109}, {"time": 87000, "pitch": 33, "duration": 80, "velocity": 106}, {"time": 87240, "pitch": 33, "duration": 60, "velocity": 115}, {"time": 87360, "pitch": 28, "duration": 240, "velocity": 106}, {"time": 87600, "pitch": 31, "duration": 240, "velocity": 98}, {"time": 87840, "pitch": 33, "duration": 150, "velocity": 109}, {"time": 88200, "pitch": 33, "duration": 160, "velocity": 109}, {"time": 88560, "pitch": 33, "duration": 150, "velocity": 109}, {"time": 88920, "pitch": 33, "duration": 80, "velocity": 106}, {"time": 89160, "pitch": 33, "duration": 60, "velocity": 115}, {"time": 89280, "pitch": 31, "duration": 240, "velocity": 106}, {"time": 89520, "pitch": 30, "duration": 240, "velocity": 98}, {"time": 89760, "pitch": 37, "duration": 240, "velocity": 98}, {"time": 90000, "pitch": 49, "duration": 60, "velocity": 108}, {"time": 90240, "pitch": 39, "duration": 240, "velocity": 103}, {"time": 90480, "pitch": 51, "duration": 60, "velocity": 110}, {"time": 90720, "pitch": 40, "duration": 240, "velocity": 98}, {"time": 90960, "pitch": 52, "duration": 60, "velocity": 108}, {"time": 91200, "pitch": 44, "duration": 240, "velocity": 103}, {"time": 91440, "pitch": 56, "duration": 60, "velocity": 110}, {"time": 91680, "pitch": 30, "duration": 240, "velocity": 98}, {"time": 91920, "pitch": 42, "duration": 60, "velocity": 108}, {"time": 92160, "pitch": 32, "duration": 240, "velocity": 103}, {"time": 92400, "pitch": 44, "duration": 60, "velocity": 110}, {"time": 92640, "pitch": 34, "duration": 240, "velocity": 98}, {"time": 92880, "pitch": 46, "duration": 60, "velocity": 108}, {"time": 93120, "pitch": 37, "duration": 240, "velocity": 103}, {"time": 93360, "pitch": 49, "duration": 60, "velocity": 110}, {"time": 93600, "pitch": 37, "duration": 240, "velocity": 98}, {"time": 93840, "pitch": 49, "duration": 60, "velocity": 108}, {"time": 94080, "pitch": 39, "duration": 240, "velocity": 103}, {"time": 94320, "pitch": 51, "duration": 60, "velocity": 110}, {"time": 94560, "pitch": 40, "duration": 240, "velocity": 98}, {"time": 94800, "pitch": 52, "duration": 60, "velocity": 108}, {"time": 95040, "pitch": 44, "duration": 240, "velocity": 103}, {"time": 95280, "pitch": 56, "duration": 60, "velocity": 110}, {"time": 95520, "pitch": 30, "duration": 240, "velocity": 98}, {"time": 95760, "pitch": 42, "duration": 60, "velocity": 108}, {"time": 96000, "pitch": 32, "duration": 240, "velocity": 103}, {"time": 96240, "pitch": 44, "duration": 60, "velocity": 110}, {"time": 96480, "pitch": 34, "duration": 240, "velocity": 98}, {"time": 96720, "pitch": 46, "duration": 60, "velocity": 108}, {"time": 96960, "pitch": 37, "duration": 240, "velocity": 103}, {"time": 97200, "pitch": 49, "duration": 60, "velocity": 110}, {"time": 97440, "pitch": 35, "duration": 240, "velocity": 98}, {"time": 97680, "pitch": 47, "duration": 60, "velocity": 108}, {"time": 97920, "pitch": 42, "duration": 240, "velocity": 103}, {"time": 98160, "pitch": 54, "duration": 60, "velocity": 110}, {"time": 98400, "pitch": 35, "duration": 240, "velocity": 98}, {"time": 98640, "pitch": 47, "duration": 60, "velocity": 108}, {"time": 98880, "pitch": 42, "duration": 240, "velocity": 103}, {"time": 99120, "pitch": 54, "duration": 60, "velocity": 110}, {"time": 99360, "pitch": 35, "duration": 120, "velocity": 101}, {"time": 100780, "pitch": 49, "duration": 500, "velocity": 100}, {"time": 101280, "pitch": 28, "duration": 90, "velocity": 95}, {"time": 101520, "pitch": 28, "duration": 80, "velocity": 98}, {"time": 101760, "pitch": 28, "duration": 240, "velocity": 109}, {"time": 102000, "pitch": 26, "duration": 90, "velocity": 100}, {"time": 102120, "pitch": 28, "duration": 100, "velocity": 103}, {"time": 102360, "pitch": 28, "duration": 240, "velocity": 108}, {"time": 102600, "pitch": 26, "duration": 90, "velocity": 99}, {"time": 102720, "pitch": 28, "duration": 230, "velocity": 103}, {"time": 102960, "pitch": 32, "duration": 230, "velocity": 88}, {"time": 103200, "pitch": 28, "duration": 110, "velocity": 106}, {"time": 103440, "pitch": 28, "duration": 110, "velocity": 98}, {"time": 103680, "pitch": 28, "duration": 240, "velocity": 103}, {"time": 103920, "pitch": 26, "duration": 80, "velocity": 109}, {"time": 104040, "pitch": 28, "duration": 110, "velocity": 106}, {"time": 104280, "pitch": 28, "duration": 230, "velocity": 106}, {"time": 104520, "pitch": 26, "duration": 70, "velocity": 109}, {"time": 104640, "pitch": 28, "duration": 230, "velocity": 103}, {"time": 104880, "pitch": 32, "duration": 210, "velocity": 98}, {"time": 105120, "pitch": 33, "duration": 120, "velocity": 95}, {"time": 105360, "pitch": 33, "duration": 110, "velocity": 103}, {"time": 105600, "pitch": 33, "duration": 230, "velocity": 106}, {"time": 105840, "pitch": 31, "duration": 80, "velocity": 112}, {"time": 105960, "pitch": 33, "duration": 120, "velocity": 106}, {"time": 106200, "pitch": 33, "duration": 230, "velocity": 109}, {"time": 106440, "pitch": 31, "duration": 70, "velocity": 104}, {"time": 106560, "pitch": 33, "duration": 240, "velocity": 103}, {"time": 106800, "pitch": 37, "duration": 240, "velocity": 86}, {"time": 107040, "pitch": 33, "duration": 120, "velocity": 103}, {"time": 107280, "pitch": 33, "duration": 120, "velocity": 84}, {"time": 107520, "pitch": 33, "duration": 230, "velocity": 112}, {"time": 107760, "pitch": 31, "duration": 70, "velocity": 106}, {"time": 107880, "pitch": 33, "duration": 120, "velocity": 109}, {"time": 108120, "pitch": 33, "duration": 240, "velocity": 115}, {"time": 108360, "pitch": 31, "duration": 70, "velocity": 101}, {"time": 108480, "pitch": 37, "duration": 230, "velocity": 107}, {"time": 108720, "pitch": 33, "duration": 210, "velocity": 95}, {"time": 108960, "pitch": 28, "duration": 90, "velocity": 95}, {"time": 109200, "pitch": 28, "duration": 80, "velocity": 98}, {"time": 109440, "pitch": 28, "duration": 230, "velocity": 109}, {"time": 109680, "pitch": 26, "duration": 90, "velocity": 100}, {"time": 109800, "pitch": 28, "duration": 100, "velocity": 103}, {"time": 110040, "pitch": 28, "duration": 230, "velocity": 108}, {"time": 110280, "pitch": 26, "duration": 90, "velocity": 98}, {"time": 110400, "pitch": 28, "duration": 230, "velocity": 103}, {"time": 110640, "pitch": 32, "duration": 230, "velocity": 88}, {"time": 110880, "pitch": 28, "duration": 110, "velocity": 106}, {"time": 111120, "pitch": 28, "duration": 110, "velocity": 98}, {"time": 111360, "pitch": 28, "duration": 220, "velocity": 103}, {"time": 111600, "pitch": 26, "duration": 80, "velocity": 109}, {"time": 111720, "pitch": 28, "duration": 110, "velocity": 106}, {"time": 111960, "pitch": 28, "duration": 230, "velocity": 106}, {"time": 112200, "pitch": 26, "duration": 70, "velocity": 99}, {"time": 112320, "pitch": 28, "duration": 230, "velocity": 108}, {"time": 112560, "pitch": 32, "duration": 210, "velocity": 98}, {"time": 112800, "pitch": 33, "duration": 120, "velocity": 95}, {"time": 113040, "pitch": 33, "duration": 110, "velocity": 103}, {"time": 113280, "pitch": 33, "duration": 230, "velocity": 106}, {"time": 113520, "pitch": 31, "duration": 80, "velocity": 112}, {"time": 113640, "pitch": 33, "duration": 120, "velocity": 106}, {"time": 113880, "pitch": 33, "duration": 230, "velocity": 109}, {"time": 114120, "pitch": 31, "duration": 70, "velocity": 104}, {"time": 114240, "pitch": 33, "duration": 240, "velocity": 102}, {"time": 114480, "pitch": 37, "duration": 240, "velocity": 86}, {"time": 114720, "pitch": 33, "duration": 120, "velocity": 103}, {"time": 114960, "pitch": 33, "duration": 120, "velocity": 84}, {"time": 115200, "pitch": 33, "duration": 230, "velocity": 112}, {"time": 115440, "pitch": 31, "duration": 70, "velocity": 101}, {"time": 115560, "pitch": 33, "duration": 120, "velocity": 109}, {"time": 115800, "pitch": 33, "duration": 240, "velocity": 115}, {"time": 116040, "pitch": 31, "duration": 70, "velocity": 106}, {"time": 116160, "pitch": 37, "duration": 230, "velocity": 103}, {"time": 116400, "pitch": 33, "duration": 210, "velocity": 95}, {"time": 116640, "pitch": 28, "duration": 400, "velocity": 109}, {"time": 117360, "pitch": 26, "duration": 80, "velocity": 106}, {"time": 117600, "pitch": 28, "duration": 90, "velocity": 106}, {"time": 117840, "pitch": 26, "duration": 120, "velocity": 93}, {"time": 117960, "pitch": 28, "duration": 400, "velocity": 84}, {"time": 118560, "pitch": 28, "duration": 470, "velocity": 115}, {"time": 119280, "pitch": 26, "duration": 90, "velocity": 100}, {"time": 119520, "pitch": 28, "duration": 120, "velocity": 98}, {"time": 119760, "pitch": 26, "duration": 130, "velocity": 93}, {"time": 119880, "pitch": 28, "duration": 460, "velocity": 86}, {"time": 120480, "pitch": 28, "duration": 450, "velocity": 115}, {"time": 121200, "pitch": 26, "duration": 80, "velocity": 106}, {"time": 121440, "pitch": 28, "duration": 110, "velocity": 98}, {"time": 121680, "pitch": 26, "duration": 100, "velocity": 84}, {"time": 121800, "pitch": 28, "duration": 500, "velocity": 91}, {"time": 122400, "pitch": 28, "duration": 480, "velocity": 115}, {"time": 123120, "pitch": 26, "duration": 70, "velocity": 106}, {"time": 123360, "pitch": 28, "duration": 90, "velocity": 98}, {"time": 123600, "pitch": 26, "duration": 110, "velocity": 103}, {"time": 123720, "pitch": 28, "duration": 450, "velocity": 95}, {"time": 124320, "pitch": 28, "duration": 400, "velocity": 109}, {"time": 125040, "pitch": 26, "duration": 80, "velocity": 106}, {"time": 125280, "pitch": 28, "duration": 90, "velocity": 106}, {"time": 125520, "pitch": 26, "duration": 120, "velocity": 93}, {"time": 125640, "pitch": 28, "duration": 400, "velocity": 84}, {"time": 126240, "pitch": 28, "duration": 470, "velocity": 115}, {"time": 126960, "pitch": 26, "duration": 90, "velocity": 100}, {"time": 127200, "pitch": 28, "duration": 120, "velocity": 98}, {"time": 127440, "pitch": 26, "duration": 130, "velocity": 93}, {"time": 127560, "pitch": 28, "duration": 460, "velocity": 86}, {"time": 128160, "pitch": 28, "duration": 450, "velocity": 115}, {"time": 128880, "pitch": 26, "duration": 80, "velocity": 106}, {"time": 129120, "pitch": 28, "duration": 110, "velocity": 98}, {"time": 129360, "pitch": 26, "duration": 100, "velocity": 84}, {"time": 129480, "pitch": 28, "duration": 500, "velocity": 91}, {"time": 130080, "pitch": 28, "duration": 200, "velocity": 115}, {"time": 133440, "pitch": 28, "duration": 210, "velocity": 112}, {"time": 133680, "pitch": 28, "duration": 100, "velocity": 115}, {"time": 133800, "pitch": 28, "duration": 100, "velocity": 100}, {"time": 133920, "pitch": 40, "duration": 110, "velocity": 120}, {"time": 134040, "pitch": 28, "duration": 180, "velocity": 115}, {"time": 134280, "pitch": 28, "duration": 90, "velocity": 109}, {"time": 134400, "pitch": 28, "duration": 220, "velocity": 112}, {"time": 134640, "pitch": 28, "duration": 100, "velocity": 115}, {"time": 134760, "pitch": 28, "duration": 110, "velocity": 115}, {"time": 134880, "pitch": 38, "duration": 440, "velocity": 120}, {"time": 135360, "pitch": 37, "duration": 240, "velocity": 98}, {"time": 135600, "pitch": 49, "duration": 60, "velocity": 108}, {"time": 135840, "pitch": 39, "duration": 240, "velocity": 103}, {"time": 136080, "pitch": 51, "duration": 60, "velocity": 110}, {"time": 136320, "pitch": 40, "duration": 240, "velocity": 98}, {"time": 136560, "pitch": 52, "duration": 60, "velocity": 108}, {"time": 136800, "pitch": 44, "duration": 240, "velocity": 103}, {"time": 137040, "pitch": 56, "duration": 60, "velocity": 110}, {"time": 137280, "pitch": 30, "duration": 240, "velocity": 98}, {"time": 137520, "pitch": 42, "duration": 60, "velocity": 108}, {"time": 137760, "pitch": 32, "duration": 240, "velocity": 103}, {"time": 138000, "pitch": 44, "duration": 60, "velocity": 110}, {"time": 138240, "pitch": 34, "duration": 240, "velocity": 98}, {"time": 138480, "pitch": 46, "duration": 60, "velocity": 108}, {"time": 138720, "pitch": 37, "duration": 240, "velocity": 103}, {"time": 138960, "pitch": 49, "duration": 60, "velocity": 110}, {"time": 139200, "pitch": 37, "duration": 240, "velocity": 98}, {"time": 139440, "pitch": 49, "duration": 60, "velocity": 108}, {"time": 139680, "pitch": 39, "duration": 240, "velocity": 103}, {"time": 139920, "pitch": 51, "duration": 60, "velocity": 110}, {"time": 140160, "pitch": 40, "duration": 240, "velocity": 98}, {"time": 140400, "pitch": 52, "duration": 60, "velocity": 108}, {"time": 140640, "pitch": 44, "duration": 240, "velocity": 103}, {"time": 140880, "pitch": 56, "duration": 60, "velocity": 110}, {"time": 141120, "pitch": 30, "duration": 240, "velocity": 98}, {"time": 141360, "pitch": 42, "duration": 60, "velocity": 108}, {"time": 141600, "pitch": 32, "duration": 240, "velocity": 103}, {"time": 141840, "pitch": 44, "duration": 60, "velocity": 110}, {"time": 142080, "pitch": 34, "duration": 240, "velocity": 98}, {"time": 142320, "pitch": 46, "duration": 60, "velocity": 108}, {"time": 142560, "pitch": 37, "duration": 240, "velocity": 103}, {"time": 142800, "pitch": 49, "duration": 60, "velocity": 110}, {"time": 143040, "pitch": 35, "duration": 240, "velocity": 98}, {"time": 143280, "pitch": 47, "duration": 60, "velocity": 108}, {"time": 143520, "pitch": 42, "duration": 240, "velocity": 103}, {"time": 143760, "pitch": 54, "duration": 60, "velocity": 110}, {"time": 144000, "pitch": 35, "duration": 240, "velocity": 98}, {"time": 144240, "pitch": 47, "duration": 60, "velocity": 108}, {"time": 144480, "pitch": 42, "duration": 240, "velocity": 103}, {"time": 144720, "pitch": 54, "duration": 60, "velocity": 110}, {"time": 144960, "pitch": 35, "duration": 120, "velocity": 17}, {"time": 148300, "pitch": 49, "duration": 500, "velocity": 100}, {"time": 148800, "pitch": 28, "duration": 90, "velocity": 95}, {"time": 149040, "pitch": 28, "duration": 80, "velocity": 98}, {"time": 149280, "pitch": 28, "duration": 230, "velocity": 109}, {"time": 149520, "pitch": 26, "duration": 90, "velocity": 97}, {"time": 149640, "pitch": 28, "duration": 100, "velocity": 103}, {"time": 149880, "pitch": 28, "duration": 220, "velocity": 105}, {"time": 150120, "pitch": 26, "duration": 90, "velocity": 98}, {"time": 150240, "pitch": 28, "duration": 230, "velocity": 103}, {"time": 150480, "pitch": 32, "duration": 230, "velocity": 88}, {"time": 150720, "pitch": 28, "duration": 110, "velocity": 106}, {"time": 150960, "pitch": 28, "duration": 110, "velocity": 98}, {"time": 151200, "pitch": 28, "duration": 240, "velocity": 103}, {"time": 151440, "pitch": 26, "duration": 80, "velocity": 109}, {"time": 151560, "pitch": 28, "duration": 110, "velocity": 106}, {"time": 151800, "pitch": 28, "duration": 230, "velocity": 106}, {"time": 152040, "pitch": 26, "duration": 70, "velocity": 109}, {"time": 152160, "pitch": 28, "duration": 230, "velocity": 103}, {"time": 152400, "pitch": 32, "duration": 210, "velocity": 98}, {"time": 152640, "pitch": 33, "duration": 120, "velocity": 95}, {"time": 152880, "pitch": 33, "duration": 110, "velocity": 103}, {"time": 153120, "pitch": 33, "duration": 240, "velocity": 106}, {"time": 153360, "pitch": 31, "duration": 80, "velocity": 112}, {"time": 153480, "pitch": 33, "duration": 120, "velocity": 106}, {"time": 153720, "pitch": 33, "duration": 230, "velocity": 109}, {"time": 153960, "pitch": 31, "duration": 70, "velocity": 103}, {"time": 154080, "pitch": 33, "duration": 240, "velocity": 108}, {"time": 154320, "pitch": 37, "duration": 240, "velocity": 86}, {"time": 154560, "pitch": 33, "duration": 120, "velocity": 103}, {"time": 154800, "pitch": 33, "duration": 120, "velocity": 84}, {"time": 155040, "pitch": 33, "duration": 230, "velocity": 112}, {"time": 155280, "pitch": 31, "duration": 70, "velocity": 106}, {"time": 155400, "pitch": 33, "duration": 120, "velocity": 109}, {"time": 155640, "pitch": 33, "duration": 240, "velocity": 115}, {"time": 155880, "pitch": 31, "duration": 70, "velocity": 106}, {"time": 156000, "pitch": 37, "duration": 230, "velocity": 103}, {"time": 156240, "pitch": 33, "duration": 210, "velocity": 95}, {"time": 156480, "pitch": 28, "duration": 90, "velocity": 95}, {"time": 156720, "pitch": 28, "duration": 80, "velocity": 98}, {"time": 156960, "pitch": 28, "duration": 230, "velocity": 109}, {"time": 157200, "pitch": 26, "duration": 90, "velocity": 95}, {"time": 157320, "pitch": 28, "duration": 100, "velocity": 103}, {"time": 157560, "pitch": 28, "duration": 230, "velocity": 108}, {"time": 157800, "pitch": 26, "duration": 90, "velocity": 100}, {"time": 157920, "pitch": 28, "duration": 230, "velocity": 103}, {"time": 158160, "pitch": 32, "duration": 230, "velocity": 88}, {"time": 158400, "pitch": 28, "duration": 110, "velocity": 106}, {"time": 158640, "pitch": 28, "duration": 110, "velocity": 98}, {"time": 158880, "pitch": 28, "duration": 230, "velocity": 103}, {"time": 159120, "pitch": 26, "duration": 80, "velocity": 109}, {"time": 159240, "pitch": 28, "duration": 110, "velocity": 106}, {"time": 159480, "pitch": 28, "duration": 230, "velocity": 109}, {"time": 159720, "pitch": 26, "duration": 70, "velocity": 99}, {"time": 159840, "pitch": 28, "duration": 230, "velocity": 108}, {"time": 160080, "pitch": 32, "duration": 210, "velocity": 98}, {"time": 160320, "pitch": 33, "duration": 120, "velocity": 95}, {"time": 160560, "pitch": 33, "duration": 110, "velocity": 103}, {"time": 160800, "pitch": 33, "duration": 230, "velocity": 106}, {"time": 161040, "pitch": 31, "duration": 80, "velocity": 112}, {"time": 161160, "pitch": 33, "duration": 120, "velocity": 106}, {"time": 161400, "pitch": 33, "duration": 230, "velocity": 109}, {"time": 161640, "pitch": 31, "duration": 70, "velocity": 99}, {"time": 161760, "pitch": 33, "duration": 230, "velocity": 103}, {"time": 162000, "pitch": 37, "duration": 240, "velocity": 86}, {"time": 162240, "pitch": 33, "duration": 120, "velocity": 103}, {"time": 162480, "pitch": 33, "duration": 120, "velocity": 84}, {"time": 162720, "pitch": 33, "duration": 230, "velocity": 112}, {"time": 162960, "pitch": 31, "duration": 80, "velocity": 101}, {"time": 163080, "pitch": 33, "duration": 120, "velocity": 109}, {"time": 163320, "pitch": 33, "duration": 240, "velocity": 115}, {"time": 163560, "pitch": 31, "duration": 70, "velocity": 100}, {"time": 163680, "pitch": 37, "duration": 230, "velocity": 108}, {"time": 163920, "pitch": 33, "duration": 210, "velocity": 95}, {"time": 164160, "pitch": 28, "duration": 90, "velocity": 95}, {"time": 164400, "pitch": 28, "duration": 80, "velocity": 98}, {"time": 164640, "pitch": 28, "duration": 230, "velocity": 109}, {"time": 164880, "pitch": 26, "duration": 90, "velocity": 96}, {"time": 165000, "pitch": 28, "duration": 100, "velocity": 103}, {"time": 165240, "pitch": 28, "duration": 240, "velocity": 108}, {"time": 165480, "pitch": 26, "duration": 90, "velocity": 98}, {"time": 165600, "pitch": 28, "duration": 230, "velocity": 103}, {"time": 165840, "pitch": 32, "duration": 230, "velocity": 88}, {"time": 166080, "pitch": 28, "duration": 110, "velocity": 106}, {"time": 166320, "pitch": 28, "duration": 110, "velocity": 98}, {"time": 166560, "pitch": 28, "duration": 230, "velocity": 103}, {"time": 166800, "pitch": 26, "duration": 80, "velocity": 109}, {"time": 166920, "pitch": 28, "duration": 110, "velocity": 106}, {"time": 167160, "pitch": 28, "duration": 230, "velocity": 106}, {"time": 167400, "pitch": 26, "duration": 70, "velocity": 99}, {"time": 167520, "pitch": 28, "duration": 240, "velocity": 108}, {"time": 167760, "pitch": 32, "duration": 210, "velocity": 98}, {"time": 168000, "pitch": 33, "duration": 120, "velocity": 95}, {"time": 168240, "pitch": 33, "duration": 110, "velocity": 103}, {"time": 168480, "pitch": 33, "duration": 240, "velocity": 106}, {"time": 168720, "pitch": 31, "duration": 80, "velocity": 112}, {"time": 168840, "pitch": 33, "duration": 120, "velocity": 106}, {"time": 169080, "pitch": 33, "duration": 230, "velocity": 109}, {"time": 169320, "pitch": 31, "duration": 70, "velocity": 102}, {"time": 169440, "pitch": 33, "duration": 230, "velocity": 109}, {"time": 169680, "pitch": 37, "duration": 230, "velocity": 86}, {"time": 169920, "pitch": 33, "duration": 120, "velocity": 103}, {"time": 170160, "pitch": 33, "duration": 120, "velocity": 84}, {"time": 170400, "pitch": 33, "duration": 230, "velocity": 112}, {"time": 170640, "pitch": 31, "duration": 70, "velocity": 103}, {"time": 170760, "pitch": 33, "duration": 120, "velocity": 109}, {"time": 171000, "pitch": 33, "duration": 240, "velocity": 115}, {"time": 171240, "pitch": 31, "duration": 70, "velocity": 106}, {"time": 171360, "pitch": 37, "duration": 230, "velocity": 103}, {"time": 171600, "pitch": 33, "duration": 210, "velocity": 95}, {"time": 171840, "pitch": 28, "duration": 90, "velocity": 95}, {"time": 172080, "pitch": 28, "duration": 80, "velocity": 98}, {"time": 172320, "pitch": 28, "duration": 230, "velocity": 109}, {"time": 172560, "pitch": 26, "duration": 90, "velocity": 95}, {"time": 172680, "pitch": 28, "duration": 100, "velocity": 103}, {"time": 172920, "pitch": 28, "duration": 230, "velocity": 108}, {"time": 173160, "pitch": 26, "duration": 90, "velocity": 98}, {"time": 173280, "pitch": 28, "duration": 230, "velocity": 103}, {"time": 173520, "pitch": 32, "duration": 230, "velocity": 93}, {"time": 173760, "pitch": 28, "duration": 110, "velocity": 106}, {"time": 174000, "pitch": 28, "duration": 110, "velocity": 98}, {"time": 174240, "pitch": 28, "duration": 230, "velocity": 103}, {"time": 174480, "pitch": 26, "duration": 80, "velocity": 109}, {"time": 174600, "pitch": 28, "duration": 110, "velocity": 106}, {"time": 174840, "pitch": 28, "duration": 230, "velocity": 106}, {"time": 175080, "pitch": 26, "duration": 70, "velocity": 99}, {"time": 175200, "pitch": 28, "duration": 230, "velocity": 109}, {"time": 175440, "pitch": 32, "duration": 210, "velocity": 98}, {"time": 175680, "pitch": 33, "duration": 120, "velocity": 95}, {"time": 175920, "pitch": 33, "duration": 110, "velocity": 103}, {"time": 176160, "pitch": 33, "duration": 230, "velocity": 106}, {"time": 176400, "pitch": 31, "duration": 80, "velocity": 112}, {"time": 176520, "pitch": 33, "duration": 120, "velocity": 106}, {"time": 176760, "pitch": 33, "duration": 230, "velocity": 109}, {"time": 177000, "pitch": 31, "duration": 70, "velocity": 103}, {"time": 177120, "pitch": 33, "duration": 230, "velocity": 103}, {"time": 177360, "pitch": 37, "duration": 220, "velocity": 86}, {"time": 177600, "pitch": 33, "duration": 120, "velocity": 103}, {"time": 177840, "pitch": 33, "duration": 120, "velocity": 84}, {"time": 178080, "pitch": 33, "duration": 230, "velocity": 112}, {"time": 178320, "pitch": 31, "duration": 70, "velocity": 101}, {"time": 178440, "pitch": 33, "duration": 120, "velocity": 109}, {"time": 178680, "pitch": 33, "duration": 240, "velocity": 115}, {"time": 178920, "pitch": 31, "duration": 70, "velocity": 106}, {"time": 179040, "pitch": 37, "duration": 230, "velocity": 103}, {"time": 179280, "pitch": 33, "duration": 210, "velocity": 95}, {"time": 192960, "pitch": 40, "duration": 300, "velocity": 120}, {"time": 194520, "pitch": 41, "duration": 340, "velocity": 120}, {"time": 14400, "pitch": 60, "duration": 1060, "velocity": 110}, {"time": 40080, "pitch": 73, "duration": 120, "velocity": 110}, {"time": 40200, "pitch": 75, "duration": 120, "velocity": 102}, {"time": 40320, "pitch": 73, "duration": 110, "velocity": 102}, {"time": 40800, "pitch": 73, "duration": 100, "velocity": 105}, {"time": 40920, "pitch": 75, "duration": 100, "velocity": 102}, {"time": 41040, "pitch": 73, "duration": 110, "velocity": 102}, {"time": 41280, "pitch": 70, "duration": 240, "velocity": 105}, {"time": 41520, "pitch": 73, "duration": 110, "velocity": 71}, {"time": 45840, "pitch": 80, "duration": 110, "velocity": 58}, {"time": 45840, "pitch": 85, "duration": 110, "velocity": 98}, {"time": 45960, "pitch": 78, "duration": 110, "velocity": 47}, {"time": 45960, "pitch": 83, "duration": 110, "velocity": 87}, {"time": 46080, "pitch": 80, "duration": 240, "velocity": 58}, {"time": 46080, "pitch": 85, "duration": 240, "velocity": 98}, {"time": 46320, "pitch": 78, "duration": 100, "velocity": 28}, {"time": 46320, "pitch": 83, "duration": 100, "velocity": 68}, {"time": 46440, "pitch": 75, "duration": 120, "velocity": 60}, {"time": 46440, "pitch": 80, "duration": 120, "velocity": 100}, {"time": 46560, "pitch": 78, "duration": 230, "velocity": 36}, {"time": 46560, "pitch": 83, "duration": 230, "velocity": 76}, {"time": 46800, "pitch": 75, "duration": 100, "velocity": 28}, {"time": 46800, "pitch": 80, "duration": 100, "velocity": 68}, {"time": 46920, "pitch": 73, "duration": 120, "velocity": 60}, {"time": 46920, "pitch": 78, "duration": 120, "velocity": 100}, {"time": 47040, "pitch": 71, "duration": 230, "velocity": 36}, {"time": 47040, "pitch": 76, "duration": 230, "velocity": 76}, {"time": 47280, "pitch": 68, "duration": 240, "velocity": 36}, {"time": 47280, "pitch": 73, "duration": 240, "velocity": 76}, {"time": 90000, "pitch": 73, "duration": 120, "velocity": 110}, {"time": 90120, "pitch": 75, "duration": 120, "velocity": 102}, {"time": 90240, "pitch": 73, "duration": 110, "velocity": 102}, {"time": 90720, "pitch": 73, "duration": 100, "velocity": 105}, {"time": 90840, "pitch": 75, "duration": 100, "velocity": 102}, {"time": 90960, "pitch": 73, "duration": 110, "velocity": 102}, {"time": 91200, "pitch": 70, "duration": 240, "velocity": 105}, {"time": 91440, "pitch": 73, "duration": 110, "velocity": 71}, {"time": 95760, "pitch": 80, "duration": 110, "velocity": 58}, {"time": 95760, "pitch": 85, "duration": 110, "velocity": 98}, {"time": 95880, "pitch": 78, "duration": 110, "velocity": 47}, {"time": 95880, "pitch": 83, "duration": 110, "velocity": 87}, {"time": 96000, "pitch": 80, "duration": 240, "velocity": 58}, {"time": 96000, "pitch": 85, "duration": 240, "velocity": 98}, {"time": 96240, "pitch": 78, "duration": 100, "velocity": 28}, {"time": 96240, "pitch": 83, "duration": 100, "velocity": 68}, {"time": 96360, "pitch": 75, "duration": 120, "velocity": 60}, {"time": 96360, "pitch": 80, "duration": 120, "velocity": 100}, {"time": 96480, "pitch": 78, "duration": 230, "velocity": 36}, {"time": 96480, "pitch": 83, "duration": 230, "velocity": 76}, {"time": 96720, "pitch": 75, "duration": 100, "velocity": 28}, {"time": 96720, "pitch": 80, "duration": 100, "velocity": 68}, {"time": 96840, "pitch": 73, "duration": 120, "velocity": 60}, {"time": 96840, "pitch": 78, "duration": 120, "velocity": 100}, {"time": 96960, "pitch": 71, "duration": 230, "velocity": 36}, {"time": 96960, "pitch": 76, "duration": 230, "velocity": 76}, {"time": 97200, "pitch": 68, "duration": 240, "velocity": 36}, {"time": 97200, "pitch": 73, "duration": 240, "velocity": 76}, {"time": 136080, "pitch": 73, "duration": 120, "velocity": 110}, {"time": 136200, "pitch": 75, "duration": 120, "velocity": 102}, {"time": 136320, "pitch": 73, "duration": 110, "velocity": 102}, {"time": 136800, "pitch": 73, "duration": 100, "velocity": 105}, {"time": 136920, "pitch": 75, "duration": 100, "velocity": 102}, {"time": 137040, "pitch": 73, "duration": 110, "velocity": 102}, {"time": 137280, "pitch": 70, "duration": 240, "velocity": 105}, {"time": 137520, "pitch": 73, "duration": 110, "velocity": 71}, {"time": 141840, "pitch": 80, "duration": 110, "velocity": 58}, {"time": 141840, "pitch": 85, "duration": 110, "velocity": 98}, {"time": 141960, "pitch": 78, "duration": 110, "velocity": 47}, {"time": 141960, "pitch": 83, "duration": 110, "velocity": 87}, {"time": 142080, "pitch": 80, "duration": 240, "velocity": 58}, {"time": 142080, "pitch": 85, "duration": 240, "velocity": 98}, {"time": 142320, "pitch": 78, "duration": 100, "velocity": 28}, {"time": 142320, "pitch": 83, "duration": 100, "velocity": 68}, {"time": 142440, "pitch": 75, "duration": 120, "velocity": 60}, {"time": 142440, "pitch": 80, "duration": 120, "velocity": 100}, {"time": 142560, "pitch": 78, "duration": 230, "velocity": 36}, {"time": 142560, "pitch": 83, "duration": 230, "velocity": 76}, {"time": 142800, "pitch": 75, "duration": 100, "velocity": 28}, {"time": 142800, "pitch": 80, "duration": 100, "velocity": 68}, {"time": 142920, "pitch": 73, "duration": 120, "velocity": 60}, {"time": 142920, "pitch": 78, "duration": 120, "velocity": 100}, {"time": 143040, "pitch": 71, "duration": 230, "velocity": 36}, {"time": 143040, "pitch": 76, "duration": 230, "velocity": 76}, {"time": 143280, "pitch": 68, "duration": 240, "velocity": 36}, {"time": 143280, "pitch": 73, "duration": 240, "velocity": 76}, {"time": 116640, "pitch": 62, "duration": 1910, "velocity": 80}, {"time": 120480, "pitch": 62, "duration": 1910, "velocity": 80}, {"time": 124320, "pitch": 62, "duration": 1910, "velocity": 80}, {"time": 128160, "pitch": 62, "duration": 1910, "velocity": 80}, {"time": 133440, "pitch": 40, "duration": 240, "velocity": 100}, {"time": 133450, "pitch": 47, "duration": 240, "velocity": 70}, {"time": 133680, "pitch": 40, "duration": 130, "velocity": 95}, {"time": 133690, "pitch": 47, "duration": 110, "velocity": 65}, {"time": 133800, "pitch": 47, "duration": 120, "velocity": 60}, {"time": 133810, "pitch": 40, "duration": 110, "velocity": 90}, {"time": 133920, "pitch": 47, "duration": 120, "velocity": 80}, {"time": 133920, "pitch": 52, "duration": 130, "velocity": 100}, {"time": 133930, "pitch": 59, "duration": 110, "velocity": 70}, {"time": 134040, "pitch": 47, "duration": 130, "velocity": 55}, {"time": 134050, "pitch": 40, "duration": 110, "velocity": 85}, {"time": 134160, "pitch": 40, "duration": 130, "velocity": 95}, {"time": 134170, "pitch": 47, "duration": 110, "velocity": 65}, {"time": 134280, "pitch": 47, "duration": 120, "velocity": 60}, {"time": 134290, "pitch": 40, "duration": 110, "velocity": 90}, {"time": 134400, "pitch": 40, "duration": 130, "velocity": 60}, {"time": 134400, "pitch": 47, "duration": 130, "velocity": 70}, {"time": 134410, "pitch": 52, "duration": 110, "velocity": 100}, {"time": 134410, "pitch": 59, "duration": 110, "velocity": 80}, {"time": 134520, "pitch": 52, "duration": 130, "velocity": 90}, {"time": 134520, "pitch": 59, "duration": 130, "velocity": 70}, {"time": 134530, "pitch": 40, "duration": 110, "velocity": 50}, {"time": 134530, "pitch": 47, "duration": 110, "velocity": 60}, {"time": 134640, "pitch": 40, "duration": 130, "velocity": 55}, {"time": 134640, "pitch": 47, "duration": 130, "velocity": 65}, {"time": 134650, "pitch": 52, "duration": 110, "velocity": 95}, {"time": 134650, "pitch": 59, "duration": 110, "velocity": 75}, {"time": 134760, "pitch": 52, "duration": 130, "velocity": 90}, {"time": 134760, "pitch": 59, "duration": 130, "velocity": 70}, {"time": 134770, "pitch": 40, "duration": 110, "velocity": 50}, {"time": 134770, "pitch": 47, "duration": 110, "velocity": 60}, {"time": 134880, "pitch": 38, "duration": 470, "velocity": 60}, {"time": 134880, "pitch": 45, "duration": 470, "velocity": 70}, {"time": 134890, "pitch": 50, "duration": 470, "velocity": 100}, {"time": 134890, "pitch": 57, "duration": 470, "velocity": 80}, {"time": 179520, "pitch": 40, "duration": 240, "velocity": 100}, {"time": 179530, "pitch": 47, "duration": 240, "velocity": 70}, {"time": 179760, "pitch": 40, "duration": 130, "velocity": 95}, {"time": 179770, "pitch": 47, "duration": 110, "velocity": 65}, {"time": 179880, "pitch": 47, "duration": 120, "velocity": 60}, {"time": 179890, "pitch": 40, "duration": 110, "velocity": 90}, {"time": 180000, "pitch": 47, "duration": 120, "velocity": 80}, {"time": 180000, "pitch": 52, "duration": 130, "velocity": 100}, {"time": 180010, "pitch": 59, "duration": 110, "velocity": 70}, {"time": 180120, "pitch": 47, "duration": 130, "velocity": 55}, {"time": 180130, "pitch": 40, "duration": 110, "velocity": 85}, {"time": 180240, "pitch": 40, "duration": 130, "velocity": 95}, {"time": 180250, "pitch": 47, "duration": 110, "velocity": 65}, {"time": 180360, "pitch": 47, "duration": 120, "velocity": 60}, {"time": 180370, "pitch": 40, "duration": 110, "velocity": 90}, {"time": 180480, "pitch": 40, "duration": 130, "velocity": 60}, {"time": 180480, "pitch": 47, "duration": 130, "velocity": 70}, {"time": 180490, "pitch": 52, "duration": 110, "velocity": 100}, {"time": 180490, "pitch": 59, "duration": 110, "velocity": 80}, {"time": 180600, "pitch": 52, "duration": 130, "velocity": 90}, {"time": 180600, "pitch": 59, "duration": 130, "velocity": 70}, {"time": 180610, "pitch": 40, "duration": 110, "velocity": 50}, {"time": 180610, "pitch": 47, "duration": 110, "velocity": 60}, {"time": 180720, "pitch": 40, "duration": 130, "velocity": 55}, {"time": 180720, "pitch": 47, "duration": 130, "velocity": 65}, {"time": 180730, "pitch": 52, "duration": 110, "velocity": 95}, {"time": 180730, "pitch": 59, "duration": 110, "velocity": 75}, {"time": 180840, "pitch": 52, "duration": 130, "velocity": 90}, {"time": 180840, "pitch": 59, "duration": 130, "velocity": 70}, {"time": 180850, "pitch": 40, "duration": 110, "velocity": 50}, {"time": 180850, "pitch": 47, "duration": 110, "velocity": 60}, {"time": 180960, "pitch": 38, "duration": 470, "velocity": 60}, {"time": 180960, "pitch": 45, "duration": 470, "velocity": 70}, {"time": 180970, "pitch": 50, "duration": 470, "velocity": 100}, {"time": 180970, "pitch": 57, "duration": 470, "velocity": 80}, {"time": 181440, "pitch": 40, "duration": 240, "velocity": 100}, {"time": 181450, "pitch": 47, "duration": 240, "velocity": 70}, {"time": 181680, "pitch": 40, "duration": 130, "velocity": 95}, {"time": 181690, "pitch": 47, "duration": 110, "velocity": 65}, {"time": 181800, "pitch": 47, "duration": 120, "velocity": 60}, {"time": 181810, "pitch": 40, "duration": 110, "velocity": 90}, {"time": 181920, "pitch": 47, "duration": 120, "velocity": 80}, {"time": 181920, "pitch": 52, "duration": 130, "velocity": 100}, {"time": 181930, "pitch": 59, "duration": 110, "velocity": 70}, {"time": 182040, "pitch": 47, "duration": 130, "velocity": 55}, {"time": 182050, "pitch": 40, "duration": 110, "velocity": 85}, {"time": 182160, "pitch": 40, "duration": 130, "velocity": 95}, {"time": 182170, "pitch": 47, "duration": 110, "velocity": 65}, {"time": 182280, "pitch": 47, "duration": 120, "velocity": 60}, {"time": 182290, "pitch": 40, "duration": 110, "velocity": 90}, {"time": 182400, "pitch": 40, "duration": 130, "velocity": 60}, {"time": 182400, "pitch": 47, "duration": 130, "velocity": 70}, {"time": 182410, "pitch": 52, "duration": 110, "velocity": 100}, {"time": 182410, "pitch": 59, "duration": 110, "velocity": 80}, {"time": 182520, "pitch": 52, "duration": 130, "velocity": 90}, {"time": 182520, "pitch": 59, "duration": 130, "velocity": 70}, {"time": 182530, "pitch": 40, "duration": 110, "velocity": 50}, {"time": 182530, "pitch": 47, "duration": 110, "velocity": 60}, {"time": 182640, "pitch": 40, "duration": 130, "velocity": 55}, {"time": 182640, "pitch": 47, "duration": 130, "velocity": 65}, {"time": 182650, "pitch": 52, "duration": 110, "velocity": 95}, {"time": 182650, "pitch": 59, "duration": 110, "velocity": 75}, {"time": 182760, "pitch": 52, "duration": 130, "velocity": 90}, {"time": 182760, "pitch": 59, "duration": 130, "velocity": 70}, {"time": 182770, "pitch": 40, "duration": 110, "velocity": 50}, {"time": 182770, "pitch": 47, "duration": 110, "velocity": 60}, {"time": 182880, "pitch": 38, "duration": 470, "velocity": 60}, {"time": 182880, "pitch": 45, "duration": 470, "velocity": 70}, {"time": 182890, "pitch": 50, "duration": 470, "velocity": 100}, {"time": 182890, "pitch": 57, "duration": 470, "velocity": 80}, {"time": 183360, "pitch": 40, "duration": 240, "velocity": 100}, {"time": 183370, "pitch": 47, "duration": 240, "velocity": 70}, {"time": 183600, "pitch": 40, "duration": 130, "velocity": 95}, {"time": 183610, "pitch": 47, "duration": 110, "velocity": 65}, {"time": 183720, "pitch": 47, "duration": 120, "velocity": 60}, {"time": 183730, "pitch": 40, "duration": 110, "velocity": 90}, {"time": 183840, "pitch": 47, "duration": 120, "velocity": 80}, {"time": 183840, "pitch": 52, "duration": 130, "velocity": 100}, {"time": 183850, "pitch": 59, "duration": 110, "velocity": 70}, {"time": 183960, "pitch": 47, "duration": 130, "velocity": 55}, {"time": 183970, "pitch": 40, "duration": 110, "velocity": 85}, {"time": 184080, "pitch": 40, "duration": 130, "velocity": 95}, {"time": 184090, "pitch": 47, "duration": 110, "velocity": 65}, {"time": 184200, "pitch": 47, "duration": 120, "velocity": 60}, {"time": 184210, "pitch": 40, "duration": 110, "velocity": 90}, {"time": 184320, "pitch": 40, "duration": 130, "velocity": 60}, {"time": 184320, "pitch": 47, "duration": 130, "velocity": 70}, {"time": 184330, "pitch": 52, "duration": 110, "velocity": 100}, {"time": 184330, "pitch": 59, "duration": 110, "velocity": 80}, {"time": 184440, "pitch": 52, "duration": 130, "velocity": 90}, {"time": 184440, "pitch": 59, "duration": 130, "velocity": 70}, {"time": 184450, "pitch": 40, "duration": 110, "velocity": 50}, {"time": 184450, "pitch": 47, "duration": 110, "velocity": 60}, {"time": 184560, "pitch": 40, "duration": 130, "velocity": 55}, {"time": 184560, "pitch": 47, "duration": 130, "velocity": 65}, {"time": 184570, "pitch": 52, "duration": 110, "velocity": 95}, {"time": 184570, "pitch": 59, "duration": 110, "velocity": 75}, {"time": 184680, "pitch": 52, "duration": 130, "velocity": 90}, {"time": 184680, "pitch": 59, "duration": 130, "velocity": 70}, {"time": 184690, "pitch": 40, "duration": 110, "velocity": 50}, {"time": 184690, "pitch": 47, "duration": 110, "velocity": 60}, {"time": 184800, "pitch": 38, "duration": 470, "velocity": 60}, {"time": 184800, "pitch": 45, "duration": 470, "velocity": 70}, {"time": 184810, "pitch": 50, "duration": 470, "velocity": 100}, {"time": 184810, "pitch": 57, "duration": 470, "velocity": 80}, {"time": 185280, "pitch": 40, "duration": 240, "velocity": 100}, {"time": 185290, "pitch": 47, "duration": 240, "velocity": 70}, {"time": 185520, "pitch": 40, "duration": 130, "velocity": 95}, {"time": 185530, "pitch": 47, "duration": 110, "velocity": 65}, {"time": 185640, "pitch": 47, "duration": 120, "velocity": 60}, {"time": 185650, "pitch": 40, "duration": 110, "velocity": 90}, {"time": 185760, "pitch": 47, "duration": 120, "velocity": 80}, {"time": 185760, "pitch": 52, "duration": 130, "velocity": 100}, {"time": 185770, "pitch": 59, "duration": 110, "velocity": 70}, {"time": 185880, "pitch": 47, "duration": 130, "velocity": 55}, {"time": 185890, "pitch": 40, "duration": 110, "velocity": 85}, {"time": 186000, "pitch": 40, "duration": 130, "velocity": 95}, {"time": 186010, "pitch": 47, "duration": 110, "velocity": 65}, {"time": 186120, "pitch": 47, "duration": 120, "velocity": 60}, {"time": 186130, "pitch": 40, "duration": 110, "velocity": 90}, {"time": 186240, "pitch": 40, "duration": 130, "velocity": 60}, {"time": 186240, "pitch": 47, "duration": 130, "velocity": 70}, {"time": 186250, "pitch": 52, "duration": 110, "velocity": 100}, {"time": 186250, "pitch": 59, "duration": 110, "velocity": 80}, {"time": 186360, "pitch": 52, "duration": 130, "velocity": 90}, {"time": 186360, "pitch": 59, "duration": 130, "velocity": 70}, {"time": 186370, "pitch": 40, "duration": 110, "velocity": 50}, {"time": 186370, "pitch": 47, "duration": 110, "velocity": 60}, {"time": 186480, "pitch": 40, "duration": 130, "velocity": 55}, {"time": 186480, "pitch": 47, "duration": 130, "velocity": 65}, {"time": 186490, "pitch": 52, "duration": 110, "velocity": 95}, {"time": 186490, "pitch": 59, "duration": 110, "velocity": 75}, {"time": 186600, "pitch": 52, "duration": 130, "velocity": 90}, {"time": 186600, "pitch": 59, "duration": 130, "velocity": 70}, {"time": 186610, "pitch": 40, "duration": 110, "velocity": 50}, {"time": 186610, "pitch": 47, "duration": 110, "velocity": 60}, {"time": 186720, "pitch": 38, "duration": 470, "velocity": 60}, {"time": 186720, "pitch": 45, "duration": 470, "velocity": 70}, {"time": 186730, "pitch": 50, "duration": 470, "velocity": 100}, {"time": 186730, "pitch": 57, "duration": 470, "velocity": 80}, {"time": 187200, "pitch": 40, "duration": 240, "velocity": 100}, {"time": 187210, "pitch": 47, "duration": 240, "velocity": 70}, {"time": 187440, "pitch": 40, "duration": 130, "velocity": 95}, {"time": 187450, "pitch": 47, "duration": 110, "velocity": 65}, {"time": 187560, "pitch": 47, "duration": 120, "velocity": 60}, {"time": 187570, "pitch": 40, "duration": 110, "velocity": 90}, {"time": 187680, "pitch": 47, "duration": 120, "velocity": 80}, {"time": 187680, "pitch": 52, "duration": 130, "velocity": 100}, {"time": 187690, "pitch": 59, "duration": 110, "velocity": 70}, {"time": 187800, "pitch": 47, "duration": 130, "velocity": 55}, {"time": 187810, "pitch": 40, "duration": 110, "velocity": 85}, {"time": 187920, "pitch": 40, "duration": 130, "velocity": 95}, {"time": 187930, "pitch": 47, "duration": 110, "velocity": 65}, {"time": 188040, "pitch": 47, "duration": 120, "velocity": 60}, {"time": 188050, "pitch": 40, "duration": 110, "velocity": 90}, {"time": 188160, "pitch": 40, "duration": 130, "velocity": 60}, {"time": 188160, "pitch": 47, "duration": 130, "velocity": 70}, {"time": 188170, "pitch": 52, "duration": 110, "velocity": 100}, {"time": 188170, "pitch": 59, "duration": 110, "velocity": 80}, {"time": 188280, "pitch": 52, "duration": 130, "velocity": 90}, {"time": 188280, "pitch": 59, "duration": 130, "velocity": 70}, {"time": 188290, "pitch": 40, "duration": 110, "velocity": 50}, {"time": 188290, "pitch": 47, "duration": 110, "velocity": 60}, {"time": 188400, "pitch": 40, "duration": 130, "velocity": 55}, {"time": 188400, "pitch": 47, "duration": 130, "velocity": 65}, {"time": 188410, "pitch": 52, "duration": 110, "velocity": 95}, {"time": 188410, "pitch": 59, "duration": 110, "velocity": 75}, {"time": 188520, "pitch": 52, "duration": 130, "velocity": 90}, {"time": 188520, "pitch": 59, "duration": 130, "velocity": 70}, {"time": 188530, "pitch": 40, "duration": 110, "velocity": 50}, {"time": 188530, "pitch": 47, "duration": 110, "velocity": 60}, {"time": 188640, "pitch": 38, "duration": 470, "velocity": 60}, {"time": 188640, "pitch": 45, "duration": 470, "velocity": 70}, {"time": 188650, "pitch": 50, "duration": 470, "velocity": 100}, {"time": 188650, "pitch": 57, "duration": 470, "velocity": 80}, {"time": 189120, "pitch": 40, "duration": 240, "velocity": 100}, {"time": 189130, "pitch": 47, "duration": 240, "velocity": 70}, {"time": 189360, "pitch": 40, "duration": 130, "velocity": 95}, {"time": 189370, "pitch": 47, "duration": 110, "velocity": 65}, {"time": 189480, "pitch": 47, "duration": 120, "velocity": 60}, {"time": 189490, "pitch": 40, "duration": 110, "velocity": 90}, {"time": 189600, "pitch": 47, "duration": 120, "velocity": 80}, {"time": 189600, "pitch": 52, "duration": 130, "velocity": 100}, {"time": 189610, "pitch": 59, "duration": 110, "velocity": 70}, {"time": 189720, "pitch": 47, "duration": 130, "velocity": 55}, {"time": 189730, "pitch": 40, "duration": 110, "velocity": 85}, {"time": 189840, "pitch": 40, "duration": 130, "velocity": 95}, {"time": 189850, "pitch": 47, "duration": 110, "velocity": 65}, {"time": 189960, "pitch": 47, "duration": 120, "velocity": 60}, {"time": 189970, "pitch": 40, "duration": 110, "velocity": 90}, {"time": 190080, "pitch": 40, "duration": 130, "velocity": 60}, {"time": 190080, "pitch": 47, "duration": 130, "velocity": 70}, {"time": 190090, "pitch": 52, "duration": 110, "velocity": 100}, {"time": 190090, "pitch": 59, "duration": 110, "velocity": 80}, {"time": 190200, "pitch": 52, "duration": 130, "velocity": 90}, {"time": 190200, "pitch": 59, "duration": 130, "velocity": 70}, {"time": 190210, "pitch": 40, "duration": 110, "velocity": 50}, {"time": 190210, "pitch": 47, "duration": 110, "velocity": 60}, {"time": 190320, "pitch": 40, "duration": 130, "velocity": 55}, {"time": 190320, "pitch": 47, "duration": 130, "velocity": 65}, {"time": 190330, "pitch": 52, "duration": 110, "velocity": 95}, {"time": 190330, "pitch": 59, "duration": 110, "velocity": 75}, {"time": 190440, "pitch": 52, "duration": 130, "velocity": 90}, {"time": 190440, "pitch": 59, "duration": 130, "velocity": 70}, {"time": 190450, "pitch": 40, "duration": 110, "velocity": 50}, {"time": 190450, "pitch": 47, "duration": 110, "velocity": 60}, {"time": 190560, "pitch": 38, "duration": 470, "velocity": 60}, {"time": 190560, "pitch": 45, "duration": 470, "velocity": 70}, {"time": 190570, "pitch": 50, "duration": 470, "velocity": 100}, {"time": 190570, "pitch": 57, "duration": 470, "velocity": 80}, {"time": 191040, "pitch": 40, "duration": 240, "velocity": 100}, {"time": 191050, "pitch": 47, "duration": 240, "velocity": 70}, {"time": 191280, "pitch": 40, "duration": 130, "velocity": 95}, {"time": 191290, "pitch": 47, "duration": 110, "velocity": 65}, {"time": 191400, "pitch": 47, "duration": 120, "velocity": 60}, {"time": 191410, "pitch": 40, "duration": 110, "velocity": 90}, {"time": 191520, "pitch": 47, "duration": 120, "velocity": 80}, {"time": 191520, "pitch": 52, "duration": 130, "velocity": 100}, {"time": 191530, "pitch": 59, "duration": 110, "velocity": 70}, {"time": 191640, "pitch": 47, "duration": 130, "velocity": 55}, {"time": 191650, "pitch": 40, "duration": 110, "velocity": 85}, {"time": 191760, "pitch": 40, "duration": 130, "velocity": 95}, {"time": 191770, "pitch": 47, "duration": 110, "velocity": 65}, {"time": 191880, "pitch": 47, "duration": 120, "velocity": 60}, {"time": 191890, "pitch": 40, "duration": 110, "velocity": 90}, {"time": 192000, "pitch": 40, "duration": 130, "velocity": 60}, {"time": 192000, "pitch": 47, "duration": 130, "velocity": 70}, {"time": 192010, "pitch": 52, "duration": 110, "velocity": 100}, {"time": 192010, "pitch": 59, "duration": 110, "velocity": 80}, {"time": 192120, "pitch": 52, "duration": 130, "velocity": 90}, {"time": 192120, "pitch": 59, "duration": 130, "velocity": 70}, {"time": 192130, "pitch": 40, "duration": 110, "velocity": 50}, {"time": 192130, "pitch": 47, "duration": 110, "velocity": 60}, {"time": 192240, "pitch": 40, "duration": 130, "velocity": 55}, {"time": 192240, "pitch": 47, "duration": 130, "velocity": 65}, {"time": 192250, "pitch": 52, "duration": 110, "velocity": 95}, {"time": 192250, "pitch": 59, "duration": 110, "velocity": 75}, {"time": 192360, "pitch": 52, "duration": 130, "velocity": 90}, {"time": 192360, "pitch": 59, "duration": 130, "velocity": 70}, {"time": 192370, "pitch": 40, "duration": 110, "velocity": 50}, {"time": 192370, "pitch": 47, "duration": 110, "velocity": 60}, {"time": 192480, "pitch": 38, "duration": 470, "velocity": 60}, {"time": 192480, "pitch": 45, "duration": 470, "velocity": 70}, {"time": 192490, "pitch": 50, "duration": 470, "velocity": 100}, {"time": 192490, "pitch": 57, "duration": 470, "velocity": 80}, {"time": 5040, "pitch": 74, "duration": 140, "velocity": 95}, {"time": 5280, "pitch": 76, "duration": 340, "velocity": 100}, {"time": 6000, "pitch": 74, "duration": 140, "velocity": 95}, {"time": 6240, "pitch": 76, "duration": 340, "velocity": 100}, {"time": 6960, "pitch": 74, "duration": 140, "velocity": 95}, {"time": 7200, "pitch": 76, "duration": 140, "velocity": 100}, {"time": 7440, "pitch": 76, "duration": 100, "velocity": 90}, {"time": 7560, "pitch": 76, "duration": 140, "velocity": 100}, {"time": 7800, "pitch": 76, "duration": 100, "velocity": 90}, {"time": 7920, "pitch": 76, "duration": 220, "velocity": 95}, {"time": 8160, "pitch": 76, "duration": 340, "velocity": 100}, {"time": 8880, "pitch": 74, "duration": 140, "velocity": 95}, {"time": 9120, "pitch": 76, "duration": 340, "velocity": 100}, {"time": 9840, "pitch": 74, "duration": 140, "velocity": 95}, {"time": 10080, "pitch": 76, "duration": 340, "velocity": 100}, {"time": 10800, "pitch": 74, "duration": 140, "velocity": 95}, {"time": 11040, "pitch": 76, "duration": 140, "velocity": 100}, {"time": 11280, "pitch": 76, "duration": 100, "velocity": 90}, {"time": 11400, "pitch": 76, "duration": 140, "velocity": 100}, {"time": 11640, "pitch": 76, "duration": 100, "velocity": 90}, {"time": 11760, "pitch": 76, "duration": 220, "velocity": 95}, {"time": 12000, "pitch": 76, "duration": 340, "velocity": 100}, {"time": 12720, "pitch": 74, "duration": 140, "velocity": 95}, {"time": 12960, "pitch": 76, "duration": 340, "velocity": 100}, {"time": 13680, "pitch": 74, "duration": 140, "velocity": 95}, {"time": 13920, "pitch": 76, "duration": 340, "velocity": 100}, {"time": 14640, "pitch": 74, "duration": 140, "velocity": 95}, {"time": 14880, "pitch": 76, "duration": 140, "velocity": 100}, {"time": 15120, "pitch": 76, "duration": 100, "velocity": 90}, {"time": 15240, "pitch": 76, "duration": 140, "velocity": 100}, {"time": 15480, "pitch": 76, "duration": 100, "velocity": 90}, {"time": 15600, "pitch": 76, "duration": 220, "velocity": 95}, {"time": 15840, "pitch": 76, "duration": 820, "velocity": 100}, {"time": 16800, "pitch": 76, "duration": 220, "velocity": 100}, {"time": 17040, "pitch": 71, "duration": 100, "velocity": 90}, {"time": 17160, "pitch": 74, "duration": 220, "velocity": 100}, {"time": 17400, "pitch": 71, "duration": 120, "velocity": 95}, {"time": 17520, "pitch": 76, "duration": 100, "velocity": 100}, {"time": 17640, "pitch": 71, "duration": 100, "velocity": 90}, {"time": 17760, "pitch": 74, "duration": 60, "velocity": 95}, {"time": 17820, "pitch": 76, "duration": 160, "velocity": 100}, {"time": 18000, "pitch": 74, "duration": 60, "velocity": 95}, {"time": 18060, "pitch": 76, "duration": 160, "velocity": 100}, {"time": 18240, "pitch": 74, "duration": 60, "velocity": 95}, {"time": 18300, "pitch": 76, "duration": 340, "velocity": 100}, {"time": 18720, "pitch": 80, "duration": 100, "velocity": 100}, {"time": 18840, "pitch": 78, "duration": 100, "velocity": 95}, {"time": 18960, "pitch": 76, "duration": 280, "velocity": 90}, {"time": 19440, "pitch": 80, "duration": 100, "velocity": 100}, {"time": 19560, "pitch": 78, "duration": 100, "velocity": 95}, {"time": 19680, "pitch": 76, "duration": 280, "velocity": 90}, {"time": 20640, "pitch": 76, "duration": 220, "velocity": 100}, {"time": 20880, "pitch": 71, "duration": 100, "velocity": 90}, {"time": 21000, "pitch": 74, "duration": 220, "velocity": 100}, {"time": 21240, "pitch": 71, "duration": 120, "velocity": 95}, {"time": 21360, "pitch": 76, "duration": 100, "velocity": 100}, {"time": 21480, "pitch": 71, "duration": 100, "velocity": 90}, {"time": 21600, "pitch": 74, "duration": 60, "velocity": 95}, {"time": 21660, "pitch": 76, "duration": 160, "velocity": 100}, {"time": 21840, "pitch": 74, "duration": 60, "velocity": 95}, {"time": 21900, "pitch": 76, "duration": 160, "velocity": 100}, {"time": 22080, "pitch": 74, "duration": 60, "velocity": 95}, {"time": 22140, "pitch": 76, "duration": 340, "velocity": 100}, {"time": 22560, "pitch": 80, "duration": 100, "velocity": 100}, {"time": 22680, "pitch": 78, "duration": 100, "velocity": 95}, {"time": 22800, "pitch": 76, "duration": 280, "velocity": 90}, {"time": 23280, "pitch": 80, "duration": 100, "velocity": 100}, {"time": 23400, "pitch": 78, "duration": 100, "velocity": 95}, {"time": 23520, "pitch": 76, "duration": 280, "velocity": 90}, {"time": 24960, "pitch": 79, "duration": 220, "velocity": 100}, {"time": 25200, "pitch": 79, "duration": 220, "velocity": 95}, {"time": 25440, "pitch": 79, "duration": 220, "velocity": 100}, {"time": 25680, "pitch": 74, "duration": 220, "velocity": 90}, {"time": 25920, "pitch": 74, "duration": 220, "velocity": 95}, {"time": 26160, "pitch": 74, "duration": 460, "velocity": 100}, {"time": 26640, "pitch": 76, "duration": 460, "velocity": 95}, {"time": 27840, "pitch": 74, "duration": 220, "velocity": 100}, {"time": 28080, "pitch": 73, "duration": 220, "velocity": 95}, {"time": 28320, "pitch": 74, "duration": 460, "velocity": 100}, {"time": 28800, "pitch": 74, "duration": 220, "velocity": 95}, {"time": 29040, "pitch": 74, "duration": 220, "velocity": 90}, {"time": 29280, "pitch": 76, "duration": 220, "velocity": 100}, {"time": 29520, "pitch": 76, "duration": 280, "velocity": 95}, {"time": 30000, "pitch": 69, "duration": 480, "velocity": 100}, {"time": 30480, "pitch": 68, "duration": 700, "velocity": 95}, {"time": 32160, "pitch": 74, "duration": 240, "velocity": 100}, {"time": 32400, "pitch": 73, "duration": 220, "velocity": 90}, {"time": 32640, "pitch": 74, "duration": 220, "velocity": 100}, {"time": 32880, "pitch": 74, "duration": 220, "velocity": 95}, {"time": 33120, "pitch": 76, "duration": 220, "velocity": 100}, {"time": 33360, "pitch": 76, "duration": 700, "velocity": 95}, {"time": 34560, "pitch": 78, "duration": 460, "velocity": 100}, {"time": 35040, "pitch": 78, "duration": 220, "velocity": 95}, {"time": 35280, "pitch": 76, "duration": 100, "velocity": 90}, {"time": 35400, "pitch": 74, "duration": 340, "velocity": 100}, {"time": 35760, "pitch": 74, "duration": 220, "velocity": 95}, {"time": 36000, "pitch": 78, "duration": 240, "velocity": 100}, {"time": 36240, "pitch": 76, "duration": 700, "velocity": 95}, {"time": 37440, "pitch": 76, "duration": 260, "velocity": 100}, {"time": 37800, "pitch": 69, "duration": 340, "velocity": 95}, {"time": 38160, "pitch": 68, "duration": 580, "velocity": 90}, {"time": 40320, "pitch": 73, "duration": 240, "velocity": 100}, {"time": 40560, "pitch": 72, "duration": 220, "velocity": 90}, {"time": 40800, "pitch": 73, "duration": 220, "velocity": 95}, {"time": 41040, "pitch": 76, "duration": 460, "velocity": 100}, {"time": 41520, "pitch": 80, "duration": 480, "velocity": 100}, {"time": 42000, "pitch": 78, "duration": 220, "velocity": 90}, {"time": 42240, "pitch": 80, "duration": 220, "velocity": 95}, {"time": 42480, "pitch": 78, "duration": 240, "velocity": 100}, {"time": 42720, "pitch": 76, "duration": 700, "velocity": 95}, {"time": 44160, "pitch": 73, "duration": 340, "velocity": 100}, {"time": 44640, "pitch": 73, "duration": 240, "velocity": 95}, {"time": 44880, "pitch": 76, "duration": 460, "velocity": 100}, {"time": 45360, "pitch": 80, "duration": 460, "velocity": 100}, {"time": 45840, "pitch": 80, "duration": 460, "velocity": 95}, {"time": 46320, "pitch": 78, "duration": 220, "velocity": 90}, {"time": 46560, "pitch": 76, "duration": 140, "velocity": 95}, {"time": 46800, "pitch": 76, "duration": 220, "velocity": 100}, {"time": 47040, "pitch": 76, "duration": 220, "velocity": 95}, {"time": 47280, "pitch": 78, "duration": 460, "velocity": 100}, {"time": 47760, "pitch": 76, "duration": 220, "velocity": 90}, {"time": 48000, "pitch": 76, "duration": 220, "velocity": 95}, {"time": 48240, "pitch": 73, "duration": 220, "velocity": 90}, {"time": 48480, "pitch": 76, "duration": 700, "velocity": 100}, {"time": 49680, "pitch": 73, "duration": 140, "velocity": 95}, {"time": 49920, "pitch": 76, "duration": 220, "velocity": 100}, {"time": 50160, "pitch": 76, "duration": 220, "velocity": 95}, {"time": 50400, "pitch": 80, "duration": 220, "velocity": 100}, {"time": 50640, "pitch": 73, "duration": 220, "velocity": 90}, {"time": 50880, "pitch": 76, "duration": 380, "velocity": 95}, {"time": 51360, "pitch": 76, "duration": 220, "velocity": 100}, {"time": 51600, "pitch": 76, "duration": 220, "velocity": 90}, {"time": 51840, "pitch": 76, "duration": 220, "velocity": 95}, {"time": 52080, "pitch": 81, "duration": 220, "velocity": 100}, {"time": 52320, "pitch": 80, "duration": 580, "velocity": 95}, {"time": 53280, "pitch": 76, "duration": 220, "velocity": 100}, {"time": 53520, "pitch": 76, "duration": 220, "velocity": 95}, {"time": 53760, "pitch": 76, "duration": 220, "velocity": 100}, {"time": 54000, "pitch": 81, "duration": 220, "velocity": 95}, {"time": 54240, "pitch": 80, "duration": 220, "velocity": 100}, {"time": 54480, "pitch": 73, "duration": 220, "velocity": 90}, {"time": 54720, "pitch": 76, "duration": 220, "velocity": 100}, {"time": 54960, "pitch": 76, "duration": 220, "velocity": 95}, {"time": 55200, "pitch": 78, "duration": 460, "velocity": 100}, {"time": 55680, "pitch": 79, "duration": 220, "velocity": 95}, {"time": 55920, "pitch": 76, "duration": 700, "velocity": 100}, {"time": 57120, "pitch": 78, "duration": 460, "velocity": 100}, {"time": 57600, "pitch": 79, "duration": 220, "velocity": 95}, {"time": 57840, "pitch": 76, "duration": 700, "velocity": 100}, {"time": 59040, "pitch": 76, "duration": 220, "velocity": 100}, {"time": 59280, "pitch": 76, "duration": 220, "velocity": 90}, {"time": 59520, "pitch": 76, "duration": 220, "velocity": 95}, {"time": 59760, "pitch": 81, "duration": 220, "velocity": 100}, {"time": 60000, "pitch": 80, "duration": 580, "velocity": 95}, {"time": 60960, "pitch": 76, "duration": 220, "velocity": 100}, {"time": 61200, "pitch": 76, "duration": 220, "velocity": 95}, {"time": 61440, "pitch": 76, "duration": 220, "velocity": 100}, {"time": 61680, "pitch": 81, "duration": 220, "velocity": 95}, {"time": 61920, "pitch": 80, "duration": 220, "velocity": 100}, {"time": 62160, "pitch": 73, "duration": 220, "velocity": 90}, {"time": 62400, "pitch": 76, "duration": 220, "velocity": 100}, {"time": 62640, "pitch": 76, "duration": 220, "velocity": 95}, {"time": 62880, "pitch": 78, "duration": 460, "velocity": 100}, {"time": 63360, "pitch": 79, "duration": 220, "velocity": 95}, {"time": 63600, "pitch": 76, "duration": 700, "velocity": 100}, {"time": 64800, "pitch": 78, "duration": 460, "velocity": 100}, {"time": 65280, "pitch": 79, "duration": 220, "velocity": 95}, {"time": 65520, "pitch": 76, "duration": 460, "velocity": 100}, {"time": 66000, "pitch": 74, "duration": 460, "velocity": 95}, {"time": 66480, "pitch": 74, "duration": 480, "velocity": 100}, {"time": 66960, "pitch": 76, "duration": 460, "velocity": 95}, {"time": 74880, "pitch": 79, "duration": 460, "velocity": 100}, {"time": 75360, "pitch": 78, "duration": 220, "velocity": 95}, {"time": 75600, "pitch": 76, "duration": 220, "velocity": 90}, {"time": 75840, "pitch": 76, "duration": 220, "velocity": 95}, {"time": 76080, "pitch": 74, "duration": 460, "velocity": 100}, {"time": 76560, "pitch": 76, "duration": 220, "velocity": 95}, {"time": 76800, "pitch": 76, "duration": 460, "velocity": 100}, {"time": 77760, "pitch": 74, "duration": 220, "velocity": 100}, {"time": 78000, "pitch": 71, "duration": 220, "velocity": 95}, {"time": 78240, "pitch": 74, "duration": 700, "velocity": 100}, {"time": 78960, "pitch": 71, "duration": 220, "velocity": 95}, {"time": 79200, "pitch": 74, "duration": 220, "velocity": 100}, {"time": 79440, "pitch": 76, "duration": 280, "velocity": 95}, {"time": 79920, "pitch": 70, "duration": 240, "velocity": 100}, {"time": 80160, "pitch": 69, "duration": 220, "velocity": 90}, {"time": 80400, "pitch": 67, "duration": 700, "velocity": 95}, {"time": 82080, "pitch": 74, "duration": 240, "velocity": 100}, {"time": 82320, "pitch": 71, "duration": 220, "velocity": 90}, {"time": 82560, "pitch": 74, "duration": 220, "velocity": 100}, {"time": 82800, "pitch": 74, "duration": 220, "velocity": 95}, {"time": 83040, "pitch": 76, "duration": 220, "velocity": 100}, {"time": 83280, "pitch": 76, "duration": 700, "velocity": 95}, {"time": 84480, "pitch": 79, "duration": 460, "velocity": 100}, {"time": 84960, "pitch": 78, "duration": 220, "velocity": 95}, {"time": 85200, "pitch": 76, "duration": 100, "velocity": 90}, {"time": 85320, "pitch": 73, "duration": 340, "velocity": 100}, {"time": 85680, "pitch": 73, "duration": 220, "velocity": 95}, {"time": 85920, "pitch": 79, "duration": 240, "velocity": 100}, {"time": 86160, "pitch": 76, "duration": 700, "velocity": 95}, {"time": 87360, "pitch": 76, "duration": 260, "velocity": 100}, {"time": 87720, "pitch": 69, "duration": 340, "velocity": 95}, {"time": 88080, "pitch": 68, "duration": 580, "velocity": 90}, {"time": 90240, "pitch": 73, "duration": 240, "velocity": 100}, {"time": 90480, "pitch": 72, "duration": 220, "velocity": 90}, {"time": 90720, "pitch": 73, "duration": 220, "velocity": 95}, {"time": 90960, "pitch": 76, "duration": 460, "velocity": 100}, {"time": 91440, "pitch": 80, "duration": 460, "velocity": 100}, {"time": 91920, "pitch": 80, "duration": 460, "velocity": 95}, {"time": 92400, "pitch": 78, "duration": 220, "velocity": 90}, {"time": 92640, "pitch": 76, "duration": 700, "velocity": 95}, {"time": 94080, "pitch": 73, "duration": 220, "velocity": 100}, {"time": 94320, "pitch": 73, "duration": 220, "velocity": 95}, {"time": 94560, "pitch": 73, "duration": 220, "velocity": 100}, {"time": 94800, "pitch": 76, "duration": 460, "velocity": 95}, {"time": 95280, "pitch": 80, "duration": 460, "velocity": 100}, {"time": 95760, "pitch": 80, "duration": 460, "velocity": 100}, {"time": 96240, "pitch": 78, "duration": 240, "velocity": 95}, {"time": 96480, "pitch": 76, "duration": 220, "velocity": 90}, {"time": 96720, "pitch": 76, "duration": 460, "velocity": 95}, {"time": 97200, "pitch": 78, "duration": 460, "velocity": 100}, {"time": 97680, "pitch": 76, "duration": 220, "velocity": 90}, {"time": 97920, "pitch": 76, "duration": 220, "velocity": 95}, {"time": 98160, "pitch": 73, "duration": 220, "velocity": 90}, {"time": 98400, "pitch": 76, "duration": 120, "velocity": 100}, {"time": 98520, "pitch": 73, "duration": 120, "velocity": 90}, {"time": 98640, "pitch": 76, "duration": 580, "velocity": 95}, {"time": 99600, "pitch": 73, "duration": 140, "velocity": 95}, {"time": 99840, "pitch": 76, "duration": 220, "velocity": 100}, {"time": 100080, "pitch": 76, "duration": 220, "velocity": 95}, {"time": 100320, "pitch": 80, "duration": 220, "velocity": 100}, {"time": 100560, "pitch": 73, "duration": 220, "velocity": 90}, {"time": 100800, "pitch": 76, "duration": 380, "velocity": 95}, {"time": 101280, "pitch": 76, "duration": 220, "velocity": 100}, {"time": 101520, "pitch": 76, "duration": 220, "velocity": 90}, {"time": 101760, "pitch": 76, "duration": 220, "velocity": 95}, {"time": 102000, "pitch": 81, "duration": 220, "velocity": 100}, {"time": 102240, "pitch": 80, "duration": 580, "velocity": 95}, {"time": 103200, "pitch": 76, "duration": 220, "velocity": 100}, {"time": 103440, "pitch": 76, "duration": 220, "velocity": 95}, {"time": 103680, "pitch": 76, "duration": 220, "velocity": 100}, {"time": 103920, "pitch": 81, "duration": 220, "velocity": 95}, {"time": 104160, "pitch": 80, "duration": 220, "velocity": 100}, {"time": 104400, "pitch": 73, "duration": 220, "velocity": 90}, {"time": 104640, "pitch": 76, "duration": 220, "velocity": 100}, {"time": 104880, "pitch": 76, "duration": 220, "velocity": 95}, {"time": 105120, "pitch": 78, "duration": 460, "velocity": 100}, {"time": 105600, "pitch": 79, "duration": 220, "velocity": 95}, {"time": 105840, "pitch": 76, "duration": 700, "velocity": 100}, {"time": 107040, "pitch": 78, "duration": 460, "velocity": 100}, {"time": 107520, "pitch": 79, "duration": 220, "velocity": 95}, {"time": 107760, "pitch": 76, "duration": 700, "velocity": 100}, {"time": 108960, "pitch": 76, "duration": 220, "velocity": 100}, {"time": 109200, "pitch": 76, "duration": 220, "velocity": 90}, {"time": 109440, "pitch": 76, "duration": 220, "velocity": 95}, {"time": 109680, "pitch": 81, "duration": 220, "velocity": 100}, {"time": 109920, "pitch": 80, "duration": 580, "velocity": 95}, {"time": 110880, "pitch": 76, "duration": 220, "velocity": 100}, {"time": 111120, "pitch": 76, "duration": 220, "velocity": 95}, {"time": 111360, "pitch": 76, "duration": 220, "velocity": 100}, {"time": 111600, "pitch": 81, "duration": 220, "velocity": 95}, {"time": 111840, "pitch": 80, "duration": 220, "velocity": 100}, {"time": 112080, "pitch": 73, "duration": 220, "velocity": 90}, {"time": 112320, "pitch": 76, "duration": 220, "velocity": 100}, {"time": 112560, "pitch": 76, "duration": 220, "velocity": 95}, {"time": 112800, "pitch": 78, "duration": 460, "velocity": 100}, {"time": 113280, "pitch": 79, "duration": 220, "velocity": 95}, {"time": 113520, "pitch": 76, "duration": 700, "velocity": 100}, {"time": 114720, "pitch": 78, "duration": 460, "velocity": 100}, {"time": 115200, "pitch": 79, "duration": 220, "velocity": 95}, {"time": 115440, "pitch": 76, "duration": 460, "velocity": 100}, {"time": 115920, "pitch": 74, "duration": 460, "velocity": 95}, {"time": 116400, "pitch": 76, "duration": 940, "velocity": 100}, {"time": 120720, "pitch": 79, "duration": 460, "velocity": 100}, {"time": 121200, "pitch": 76, "duration": 220, "velocity": 90}, {"time": 121440, "pitch": 74, "duration": 220, "velocity": 100}, {"time": 121680, "pitch": 74, "duration": 100, "velocity": 90}, {"time": 121800, "pitch": 74, "duration": 220, "velocity": 95}, {"time": 122040, "pitch": 74, "duration": 120, "velocity": 90}, {"time": 122160, "pitch": 76, "duration": 700, "velocity": 100}, {"time": 123600, "pitch": 79, "duration": 240, "velocity": 100}, {"time": 123840, "pitch": 76, "duration": 160, "velocity": 95}, {"time": 124080, "pitch": 78, "duration": 340, "velocity": 100}, {"time": 124560, "pitch": 78, "duration": 340, "velocity": 95}, {"time": 125040, "pitch": 78, "duration": 240, "velocity": 100}, {"time": 125280, "pitch": 76, "duration": 940, "velocity": 95}, {"time": 128400, "pitch": 80, "duration": 460, "velocity": 100}, {"time": 128880, "pitch": 73, "duration": 140, "velocity": 90}, {"time": 129120, "pitch": 76, "duration": 220, "velocity": 100}, {"time": 129360, "pitch": 73, "duration": 140, "velocity": 90}, {"time": 129600, "pitch": 76, "duration": 460, "velocity": 95}, {"time": 135840, "pitch": 73, "duration": 220, "velocity": 100}, {"time": 136080, "pitch": 73, "duration": 220, "velocity": 90}, {"time": 136320, "pitch": 73, "duration": 220, "velocity": 95}, {"time": 136560, "pitch": 76, "duration": 460, "velocity": 100}, {"time": 137040, "pitch": 80, "duration": 460, "velocity": 100}, {"time": 137520, "pitch": 80, "duration": 460, "velocity": 95}, {"time": 138000, "pitch": 78, "duration": 220, "velocity": 100}, {"time": 138240, "pitch": 76, "duration": 700, "velocity": 95}, {"time": 139680, "pitch": 73, "duration": 220, "velocity": 100}, {"time": 139920, "pitch": 72, "duration": 220, "velocity": 90}, {"time": 140160, "pitch": 73, "duration": 220, "velocity": 95}, {"time": 140400, "pitch": 76, "duration": 460, "velocity": 100}, {"time": 140880, "pitch": 80, "duration": 460, "velocity": 100}, {"time": 141360, "pitch": 80, "duration": 460, "velocity": 95}, {"time": 141840, "pitch": 78, "duration": 220, "velocity": 90}, {"time": 142080, "pitch": 76, "duration": 140, "velocity": 95}, {"time": 142320, "pitch": 76, "duration": 220, "velocity": 100}, {"time": 142560, "pitch": 76, "duration": 220, "velocity": 95}, {"time": 142800, "pitch": 78, "duration": 460, "velocity": 100}, {"time": 143280, "pitch": 76, "duration": 220, "velocity": 90}, {"time": 143520, "pitch": 76, "duration": 220, "velocity": 95}, {"time": 143760, "pitch": 73, "duration": 220, "velocity": 90}, {"time": 144000, "pitch": 76, "duration": 700, "velocity": 100}, {"time": 146160, "pitch": 73, "duration": 220, "velocity": 95}, {"time": 146400, "pitch": 76, "duration": 220, "velocity": 100}, {"time": 146640, "pitch": 76, "duration": 220, "velocity": 95}, {"time": 147120, "pitch": 73, "duration": 220, "velocity": 95}, {"time": 147360, "pitch": 76, "duration": 220, "velocity": 100}, {"time": 147600, "pitch": 76, "duration": 220, "velocity": 90}, {"time": 147840, "pitch": 80, "duration": 220, "velocity": 100}, {"time": 148080, "pitch": 73, "duration": 220, "velocity": 90}, {"time": 148320, "pitch": 76, "duration": 460, "velocity": 95}, {"time": 148800, "pitch": 76, "duration": 220, "velocity": 100}, {"time": 149040, "pitch": 76, "duration": 220, "velocity": 90}, {"time": 149280, "pitch": 76, "duration": 220, "velocity": 95}, {"time": 149520, "pitch": 81, "duration": 220, "velocity": 100}, {"time": 149760, "pitch": 80, "duration": 580, "velocity": 95}, {"time": 150720, "pitch": 76, "duration": 460, "velocity": 100}, {"time": 151200, "pitch": 76, "duration": 220, "velocity": 90}, {"time": 151440, "pitch": 81, "duration": 220, "velocity": 95}, {"time": 151680, "pitch": 80, "duration": 220, "velocity": 100}, {"time": 151920, "pitch": 73, "duration": 220, "velocity": 90}, {"time": 152160, "pitch": 76, "duration": 220, "velocity": 100}, {"time": 152400, "pitch": 76, "duration": 220, "velocity": 95}, {"time": 152640, "pitch": 78, "duration": 460, "velocity": 100}, {"time": 153120, "pitch": 79, "duration": 220, "velocity": 95}, {"time": 153360, "pitch": 76, "duration": 700, "velocity": 100}, {"time": 154560, "pitch": 78, "duration": 460, "velocity": 100}, {"time": 155040, "pitch": 79, "duration": 220, "velocity": 95}, {"time": 155280, "pitch": 76, "duration": 700, "velocity": 100}, {"time": 156480, "pitch": 76, "duration": 220, "velocity": 100}, {"time": 156720, "pitch": 76, "duration": 220, "velocity": 90}, {"time": 156960, "pitch": 76, "duration": 220, "velocity": 95}, {"time": 157200, "pitch": 81, "duration": 220, "velocity": 100}, {"time": 157440, "pitch": 80, "duration": 580, "velocity": 95}, {"time": 158400, "pitch": 76, "duration": 220, "velocity": 100}, {"time": 158640, "pitch": 76, "duration": 220, "velocity": 95}, {"time": 158880, "pitch": 76, "duration": 220, "velocity": 100}, {"time": 159120, "pitch": 81, "duration": 220, "velocity": 95}, {"time": 159360, "pitch": 80, "duration": 220, "velocity": 100}, {"time": 159600, "pitch": 73, "duration": 220, "velocity": 90}, {"time": 159840, "pitch": 76, "duration": 220, "velocity": 100}, {"time": 160080, "pitch": 76, "duration": 220, "velocity": 95}, {"time": 160320, "pitch": 78, "duration": 460, "velocity": 100}, {"time": 160800, "pitch": 79, "duration": 220, "velocity": 95}, {"time": 161040, "pitch": 76, "duration": 700, "velocity": 100}, {"time": 162240, "pitch": 78, "duration": 460, "velocity": 100}, {"time": 162720, "pitch": 79, "duration": 220, "velocity": 95}, {"time": 162960, "pitch": 76, "duration": 700, "velocity": 100}, {"time": 164160, "pitch": 76, "duration": 220, "velocity": 100}, {"time": 164400, "pitch": 76, "duration": 220, "velocity": 90}, {"time": 164640, "pitch": 76, "duration": 220, "velocity": 95}, {"time": 164880, "pitch": 81, "duration": 220, "velocity": 100}, {"time": 165120, "pitch": 80, "duration": 580, "velocity": 95}, {"time": 166080, "pitch": 76, "duration": 220, "velocity": 100}, {"time": 166320, "pitch": 76, "duration": 220, "velocity": 95}, {"time": 166560, "pitch": 76, "duration": 220, "velocity": 90}, {"time": 166800, "pitch": 81, "duration": 220, "velocity": 95}, {"time": 167040, "pitch": 80, "duration": 220, "velocity": 100}, {"time": 167280, "pitch": 73, "duration": 220, "velocity": 90}, {"time": 167520, "pitch": 76, "duration": 220, "velocity": 100}, {"time": 167760, "pitch": 76, "duration": 220, "velocity": 95}, {"time": 168000, "pitch": 78, "duration": 460, "velocity": 100}, {"time": 168480, "pitch": 79, "duration": 220, "velocity": 95}, {"time": 168720, "pitch": 76, "duration": 700, "velocity": 100}, {"time": 169920, "pitch": 78, "duration": 460, "velocity": 100}, {"time": 170400, "pitch": 79, "duration": 220, "velocity": 95}, {"time": 170640, "pitch": 76, "duration": 700, "velocity": 100}, {"time": 171840, "pitch": 76, "duration": 220, "velocity": 100}, {"time": 172080, "pitch": 76, "duration": 220, "velocity": 90}, {"time": 172320, "pitch": 76, "duration": 220, "velocity": 95}, {"time": 172560, "pitch": 81, "duration": 220, "velocity": 100}, {"time": 172800, "pitch": 80, "duration": 580, "velocity": 95}, {"time": 173760, "pitch": 76, "duration": 220, "velocity": 100}, {"time": 174000, "pitch": 76, "duration": 220, "velocity": 95}, {"time": 174240, "pitch": 76, "duration": 220, "velocity": 100}, {"time": 174480, "pitch": 81, "duration": 220, "velocity": 95}, {"time": 174720, "pitch": 80, "duration": 220, "velocity": 100}, {"time": 174960, "pitch": 73, "duration": 220, "velocity": 90}, {"time": 175200, "pitch": 76, "duration": 220, "velocity": 100}, {"time": 175440, "pitch": 76, "duration": 220, "velocity": 95}, {"time": 175680, "pitch": 78, "duration": 460, "velocity": 100}, {"time": 176160, "pitch": 79, "duration": 220, "velocity": 95}, {"time": 176400, "pitch": 76, "duration": 700, "velocity": 100}, {"time": 177600, "pitch": 78, "duration": 460, "velocity": 100}, {"time": 178080, "pitch": 79, "duration": 220, "velocity": 95}, {"time": 178320, "pitch": 76, "duration": 460, "velocity": 100}, {"time": 178800, "pitch": 79, "duration": 460, "velocity": 95}, {"time": 179280, "pitch": 76, "duration": 940, "velocity": 100}, {"time": 183360, "pitch": 76, "duration": 220, "velocity": 100}, {"time": 183600, "pitch": 71, "duration": 100, "velocity": 90}, {"time": 183720, "pitch": 74, "duration": 220, "velocity": 100}, {"time": 183960, "pitch": 71, "duration": 100, "velocity": 95}, {"time": 184080, "pitch": 74, "duration": 100, "velocity": 100}, {"time": 184200, "pitch": 71, "duration": 100, "velocity": 90}, {"time": 184320, "pitch": 74, "duration": 140, "velocity": 100}, {"time": 184560, "pitch": 74, "duration": 140, "velocity": 95}, {"time": 184800, "pitch": 76, "duration": 460, "velocity": 100}, {"time": 188400, "pitch": 80, "duration": 460, "velocity": 100}, {"time": 188880, "pitch": 76, "duration": 240, "velocity": 95}, {"time": 189120, "pitch": 74, "duration": 460, "velocity": 90}, {"time": 191040, "pitch": 76, "duration": 220, "velocity": 100}, {"time": 191280, "pitch": 71, "duration": 100, "velocity": 90}, {"time": 191400, "pitch": 74, "duration": 220, "velocity": 100}, {"time": 191640, "pitch": 71, "duration": 100, "velocity": 95}, {"time": 191760, "pitch": 74, "duration": 100, "velocity": 100}, {"time": 191880, "pitch": 71, "duration": 100, "velocity": 90}, {"time": 192000, "pitch": 74, "duration": 140, "velocity": 100}, {"time": 192240, "pitch": 74, "duration": 140, "velocity": 95}, {"time": 192480, "pitch": 76, "duration": 460, "velocity": 100}, {"time": 193120, "pitch": 74, "duration": 220, "velocity": 95}, {"time": 193360, "pitch": 76, "duration": 200, "velocity": 100}, {"time": 193580, "pitch": 76, "duration": 90, "velocity": 90}, {"time": 193680, "pitch": 79, "duration": 200, "velocity": 100}, {"time": 193900, "pitch": 74, "duration": 200, "velocity": 95}, {"time": 194120, "pitch": 76, "duration": 460, "velocity": 100}, {"time": 16440, "pitch": 65, "duration": 340, "velocity": 127}, {"time": 16800, "pitch": 64, "duration": 210, "velocity": 113}, {"time": 17040, "pitch": 66, "duration": 120, "velocity": 98}, {"time": 17160, "pitch": 67, "duration": 120, "velocity": 68}, {"time": 17280, "pitch": 68, "duration": 120, "velocity": 105}, {"time": 17400, "pitch": 71, "duration": 120, "velocity": 89}, {"time": 17520, "pitch": 73, "duration": 120, "velocity": 85}, {"time": 17640, "pitch": 76, "duration": 360, "velocity": 87}, {"time": 18000, "pitch": 74, "duration": 120, "velocity": 105}, {"time": 18600, "pitch": 74, "duration": 360, "velocity": 116}, {"time": 18960, "pitch": 73, "duration": 70, "velocity": 105}, {"time": 19560, "pitch": 71, "duration": 370, "velocity": 107}, {"time": 19920, "pitch": 73, "duration": 70, "velocity": 105}, {"time": 20640, "pitch": 64, "duration": 210, "velocity": 113}, {"time": 20880, "pitch": 66, "duration": 120, "velocity": 98}, {"time": 21000, "pitch": 67, "duration": 120, "velocity": 68}, {"time": 21120, "pitch": 68, "duration": 120, "velocity": 105}, {"time": 21240, "pitch": 71, "duration": 120, "velocity": 89}, {"time": 21360, "pitch": 73, "duration": 120, "velocity": 85}, {"time": 21480, "pitch": 76, "duration": 360, "velocity": 87}, {"time": 21840, "pitch": 74, "duration": 120, "velocity": 105}, {"time": 22440, "pitch": 74, "duration": 360, "velocity": 116}, {"time": 22800, "pitch": 73, "duration": 70, "velocity": 105}, {"time": 23520, "pitch": 71, "duration": 100, "velocity": 127}, {"time": 23640, "pitch": 79, "duration": 70, "velocity": 127}, {"time": 23880, "pitch": 79, "duration": 60, "velocity": 122}, {"time": 24120, "pitch": 79, "duration": 60, "velocity": 127}, {"time": 39840, "pitch": 47, "duration": 1130, "velocity": 119}, {"time": 41040, "pitch": 47, "duration": 280, "velocity": 105}, {"time": 41280, "pitch": 49, "duration": 90, "velocity": 91}, {"time": 41520, "pitch": 52, "duration": 100, "velocity": 102}, {"time": 42000, "pitch": 47, "duration": 100, "velocity": 107}, {"time": 42480, "pitch": 46, "duration": 1110, "velocity": 113}, {"time": 43680, "pitch": 47, "duration": 1100, "velocity": 107}, {"time": 44880, "pitch": 47, "duration": 210, "velocity": 107}, {"time": 45120, "pitch": 49, "duration": 90, "velocity": 85}, {"time": 45360, "pitch": 52, "duration": 2010, "velocity": 100}, {"time": 47520, "pitch": 47, "duration": 60, "velocity": 122}, {"time": 48000, "pitch": 59, "duration": 470, "velocity": 122}, {"time": 48480, "pitch": 57, "duration": 230, "velocity": 110}, {"time": 48720, "pitch": 56, "duration": 80, "velocity": 98}, {"time": 48960, "pitch": 57, "duration": 240, "velocity": 116}, {"time": 49200, "pitch": 56, "duration": 80, "velocity": 85}, {"time": 49440, "pitch": 59, "duration": 150, "velocity": 127}, {"time": 52560, "pitch": 71, "duration": 60, "velocity": 122}, {"time": 52800, "pitch": 73, "duration": 120, "velocity": 102}, {"time": 52920, "pitch": 76, "duration": 60, "velocity": 85}, {"time": 53170, "pitch": 76, "duration": 60, "velocity": 119}, {"time": 54240, "pitch": 76, "duration": 70, "velocity": 116}, {"time": 54360, "pitch": 76, "duration": 100, "velocity": 113}, {"time": 54480, "pitch": 74, "duration": 110, "velocity": 98}, {"time": 54600, "pitch": 76, "duration": 90, "velocity": 105}, {"time": 54840, "pitch": 79, "duration": 60, "velocity": 113}, {"time": 55080, "pitch": 76, "duration": 70, "velocity": 122}, {"time": 56400, "pitch": 83, "duration": 70, "velocity": 127}, {"time": 56760, "pitch": 79, "duration": 320, "velocity": 119}, {"time": 57120, "pitch": 76, "duration": 100, "velocity": 113}, {"time": 57240, "pitch": 74, "duration": 100, "velocity": 87}, {"time": 57360, "pitch": 76, "duration": 80, "velocity": 102}, {"time": 58320, "pitch": 83, "duration": 70, "velocity": 105}, {"time": 58680, "pitch": 79, "duration": 350, "velocity": 116}, {"time": 60240, "pitch": 71, "duration": 60, "velocity": 122}, {"time": 60480, "pitch": 73, "duration": 120, "velocity": 102}, {"time": 60600, "pitch": 76, "duration": 60, "velocity": 85}, {"time": 60850, "pitch": 76, "duration": 60, "velocity": 119}, {"time": 61920, "pitch": 76, "duration": 70, "velocity": 116}, {"time": 62040, "pitch": 76, "duration": 100, "velocity": 113}, {"time": 62160, "pitch": 74, "duration": 110, "velocity": 98}, {"time": 62280, "pitch": 76, "duration": 90, "velocity": 105}, {"time": 62520, "pitch": 79, "duration": 60, "velocity": 113}, {"time": 62760, "pitch": 76, "duration": 70, "velocity": 122}, {"time": 64080, "pitch": 83, "duration": 70, "velocity": 127}, {"time": 64440, "pitch": 79, "duration": 320, "velocity": 119}, {"time": 64800, "pitch": 76, "duration": 100, "velocity": 113}, {"time": 64920, "pitch": 74, "duration": 100, "velocity": 87}, {"time": 65040, "pitch": 76, "duration": 80, "velocity": 102}, {"time": 66000, "pitch": 71, "duration": 70, "velocity": 122}, {"time": 66240, "pitch": 73, "duration": 120, "velocity": 102}, {"time": 66360, "pitch": 76, "duration": 90, "velocity": 93}, {"time": 66600, "pitch": 76, "duration": 60, "velocity": 122}, {"time": 66720, "pitch": 64, "duration": 210, "velocity": 113}, {"time": 66960, "pitch": 66, "duration": 120, "velocity": 98}, {"time": 67080, "pitch": 67, "duration": 120, "velocity": 68}, {"time": 67200, "pitch": 68, "duration": 120, "velocity": 105}, {"time": 67320, "pitch": 71, "duration": 120, "velocity": 89}, {"time": 67440, "pitch": 73, "duration": 120, "velocity": 85}, {"time": 67560, "pitch": 76, "duration": 360, "velocity": 87}, {"time": 67920, "pitch": 74, "duration": 120, "velocity": 105}, {"time": 68520, "pitch": 74, "duration": 360, "velocity": 116}, {"time": 68880, "pitch": 73, "duration": 70, "velocity": 105}, {"time": 69480, "pitch": 71, "duration": 370, "velocity": 107}, {"time": 69840, "pitch": 73, "duration": 70, "velocity": 105}, {"time": 70560, "pitch": 64, "duration": 210, "velocity": 113}, {"time": 70800, "pitch": 66, "duration": 120, "velocity": 98}, {"time": 70920, "pitch": 67, "duration": 120, "velocity": 68}, {"time": 71040, "pitch": 68, "duration": 120, "velocity": 105}, {"time": 71160, "pitch": 71, "duration": 120, "velocity": 89}, {"time": 71280, "pitch": 73, "duration": 120, "velocity": 85}, {"time": 71400, "pitch": 76, "duration": 360, "velocity": 87}, {"time": 71760, "pitch": 74, "duration": 80, "velocity": 105}, {"time": 72240, "pitch": 74, "duration": 30, "velocity": 116}, {"time": 72480, "pitch": 76, "duration": 90, "velocity": 116}, {"time": 89760, "pitch": 47, "duration": 1130, "velocity": 119}, {"time": 90960, "pitch": 47, "duration": 280, "velocity": 105}, {"time": 91200, "pitch": 49, "duration": 90, "velocity": 91}, {"time": 91440, "pitch": 52, "duration": 100, "velocity": 102}, {"time": 91920, "pitch": 47, "duration": 100, "velocity": 107}, {"time": 92400, "pitch": 46, "duration": 1110, "velocity": 113}, {"time": 93600, "pitch": 47, "duration": 1100, "velocity": 107}, {"time": 94800, "pitch": 47, "duration": 210, "velocity": 107}, {"time": 95040, "pitch": 49, "duration": 90, "velocity": 85}, {"time": 95280, "pitch": 52, "duration": 2010, "velocity": 100}, {"time": 97440, "pitch": 47, "duration": 60, "velocity": 122}, {"time": 97920, "pitch": 59, "duration": 470, "velocity": 122}, {"time": 98400, "pitch": 57, "duration": 230, "velocity": 110}, {"time": 98640, "pitch": 56, "duration": 80, "velocity": 98}, {"time": 98880, "pitch": 57, "duration": 240, "velocity": 116}, {"time": 99120, "pitch": 56, "duration": 80, "velocity": 85}, {"time": 99360, "pitch": 59, "duration": 150, "velocity": 127}, {"time": 102480, "pitch": 71, "duration": 60, "velocity": 122}, {"time": 102720, "pitch": 73, "duration": 120, "velocity": 102}, {"time": 102840, "pitch": 76, "duration": 60, "velocity": 85}, {"time": 103090, "pitch": 76, "duration": 60, "velocity": 119}, {"time": 104160, "pitch": 76, "duration": 70, "velocity": 116}, {"time": 104280, "pitch": 76, "duration": 100, "velocity": 113}, {"time": 104400, "pitch": 74, "duration": 110, "velocity": 98}, {"time": 104520, "pitch": 76, "duration": 90, "velocity": 105}, {"time": 104760, "pitch": 79, "duration": 60, "velocity": 113}, {"time": 105000, "pitch": 76, "duration": 70, "velocity": 122}, {"time": 106320, "pitch": 83, "duration": 70, "velocity": 127}, {"time": 106680, "pitch": 79, "duration": 320, "velocity": 119}, {"time": 107040, "pitch": 76, "duration": 100, "velocity": 113}, {"time": 107160, "pitch": 74, "duration": 100, "velocity": 87}, {"time": 107280, "pitch": 76, "duration": 80, "velocity": 102}, {"time": 108240, "pitch": 83, "duration": 70, "velocity": 105}, {"time": 108600, "pitch": 79, "duration": 350, "velocity": 116}, {"time": 110160, "pitch": 71, "duration": 60, "velocity": 122}, {"time": 110400, "pitch": 73, "duration": 120, "velocity": 102}, {"time": 110520, "pitch": 76, "duration": 60, "velocity": 85}, {"time": 110770, "pitch": 76, "duration": 60, "velocity": 119}, {"time": 111840, "pitch": 76, "duration": 70, "velocity": 116}, {"time": 111960, "pitch": 76, "duration": 100, "velocity": 113}, {"time": 112080, "pitch": 74, "duration": 110, "velocity": 98}, {"time": 112200, "pitch": 76, "duration": 90, "velocity": 105}, {"time": 112440, "pitch": 79, "duration": 60, "velocity": 113}, {"time": 112680, "pitch": 76, "duration": 70, "velocity": 122}, {"time": 114000, "pitch": 83, "duration": 70, "velocity": 127}, {"time": 114360, "pitch": 79, "duration": 320, "velocity": 119}, {"time": 114720, "pitch": 76, "duration": 100, "velocity": 113}, {"time": 114840, "pitch": 74, "duration": 100, "velocity": 87}, {"time": 114960, "pitch": 76, "duration": 80, "velocity": 102}, {"time": 115920, "pitch": 71, "duration": 70, "velocity": 122}, {"time": 116160, "pitch": 73, "duration": 120, "velocity": 102}, {"time": 116280, "pitch": 76, "duration": 90, "velocity": 93}, {"time": 116520, "pitch": 76, "duration": 60, "velocity": 122}, {"time": 116880, "pitch": 83, "duration": 60, "velocity": 119}, {"time": 117120, "pitch": 83, "duration": 60, "velocity": 113}, {"time": 117360, "pitch": 85, "duration": 70, "velocity": 107}, {"time": 117600, "pitch": 86, "duration": 70, "velocity": 105}, {"time": 117840, "pitch": 85, "duration": 120, "velocity": 100}, {"time": 117960, "pitch": 83, "duration": 80, "velocity": 89}, {"time": 118200, "pitch": 81, "duration": 80, "velocity": 105}, {"time": 118440, "pitch": 80, "duration": 360, "velocity": 113}, {"time": 118800, "pitch": 76, "duration": 70, "velocity": 107}, {"time": 119040, "pitch": 74, "duration": 100, "velocity": 116}, {"time": 119160, "pitch": 76, "duration": 100, "velocity": 102}, {"time": 119400, "pitch": 80, "duration": 360, "velocity": 122}, {"time": 119760, "pitch": 76, "duration": 70, "velocity": 100}, {"time": 120000, "pitch": 74, "duration": 120, "velocity": 116}, {"time": 120120, "pitch": 76, "duration": 90, "velocity": 102}, {"time": 120720, "pitch": 83, "duration": 60, "velocity": 116}, {"time": 120960, "pitch": 83, "duration": 60, "velocity": 113}, {"time": 121200, "pitch": 85, "duration": 70, "velocity": 105}, {"time": 121440, "pitch": 86, "duration": 80, "velocity": 100}, {"time": 121680, "pitch": 85, "duration": 120, "velocity": 105}, {"time": 121800, "pitch": 83, "duration": 80, "velocity": 102}, {"time": 122040, "pitch": 81, "duration": 330, "velocity": 122}, {"time": 122400, "pitch": 71, "duration": 120, "velocity": 122}, {"time": 122520, "pitch": 74, "duration": 120, "velocity": 113}, {"time": 122640, "pitch": 76, "duration": 120, "velocity": 102}, {"time": 122760, "pitch": 80, "duration": 240, "velocity": 87}, {"time": 123000, "pitch": 76, "duration": 120, "velocity": 102}, {"time": 123120, "pitch": 74, "duration": 120, "velocity": 91}, {"time": 123240, "pitch": 71, "duration": 120, "velocity": 119}, {"time": 123360, "pitch": 81, "duration": 120, "velocity": 110}, {"time": 123480, "pitch": 79, "duration": 120, "velocity": 102}, {"time": 123600, "pitch": 76, "duration": 120, "velocity": 82}, {"time": 123720, "pitch": 74, "duration": 540, "velocity": 127}, {"time": 124560, "pitch": 83, "duration": 60, "velocity": 119}, {"time": 124800, "pitch": 83, "duration": 60, "velocity": 113}, {"time": 125040, "pitch": 85, "duration": 70, "velocity": 107}, {"time": 125280, "pitch": 86, "duration": 70, "velocity": 105}, {"time": 125520, "pitch": 85, "duration": 120, "velocity": 100}, {"time": 125640, "pitch": 83, "duration": 80, "velocity": 89}, {"time": 125880, "pitch": 81, "duration": 80, "velocity": 105}, {"time": 126120, "pitch": 80, "duration": 360, "velocity": 113}, {"time": 126480, "pitch": 76, "duration": 70, "velocity": 107}, {"time": 126720, "pitch": 74, "duration": 100, "velocity": 116}, {"time": 126840, "pitch": 76, "duration": 100, "velocity": 102}, {"time": 127080, "pitch": 80, "duration": 360, "velocity": 122}, {"time": 127440, "pitch": 76, "duration": 70, "velocity": 100}, {"time": 127680, "pitch": 74, "duration": 120, "velocity": 116}, {"time": 127800, "pitch": 76, "duration": 90, "velocity": 102}, {"time": 128400, "pitch": 83, "duration": 60, "velocity": 116}, {"time": 128640, "pitch": 83, "duration": 60, "velocity": 113}, {"time": 128880, "pitch": 85, "duration": 70, "velocity": 105}, {"time": 129120, "pitch": 86, "duration": 80, "velocity": 100}, {"time": 129360, "pitch": 85, "duration": 120, "velocity": 105}, {"time": 129480, "pitch": 83, "duration": 80, "velocity": 102}, {"time": 129720, "pitch": 86, "duration": 320, "velocity": 122}, {"time": 130080, "pitch": 88, "duration": 40, "velocity": 116}, {"time": 135360, "pitch": 47, "duration": 1130, "velocity": 119}, {"time": 136560, "pitch": 47, "duration": 280, "velocity": 105}, {"time": 136800, "pitch": 49, "duration": 90, "velocity": 91}, {"time": 137040, "pitch": 52, "duration": 100, "velocity": 102}, {"time": 137520, "pitch": 47, "duration": 100, "velocity": 107}, {"time": 138000, "pitch": 46, "duration": 1110, "velocity": 113}, {"time": 139200, "pitch": 47, "duration": 1100, "velocity": 107}, {"time": 140400, "pitch": 47, "duration": 210, "velocity": 107}, {"time": 140640, "pitch": 49, "duration": 90, "velocity": 85}, {"time": 140880, "pitch": 52, "duration": 2010, "velocity": 100}, {"time": 143040, "pitch": 47, "duration": 60, "velocity": 122}, {"time": 143520, "pitch": 59, "duration": 470, "velocity": 122}, {"time": 144000, "pitch": 57, "duration": 230, "velocity": 110}, {"time": 144240, "pitch": 56, "duration": 80, "velocity": 98}, {"time": 144480, "pitch": 57, "duration": 240, "velocity": 116}, {"time": 144720, "pitch": 56, "duration": 80, "velocity": 85}, {"time": 144960, "pitch": 59, "duration": 150, "velocity": 120}, {"time": 150000, "pitch": 71, "duration": 60, "velocity": 122}, {"time": 150240, "pitch": 73, "duration": 120, "velocity": 102}, {"time": 150360, "pitch": 76, "duration": 60, "velocity": 85}, {"time": 150610, "pitch": 76, "duration": 60, "velocity": 119}, {"time": 151680, "pitch": 76, "duration": 70, "velocity": 116}, {"time": 151800, "pitch": 76, "duration": 100, "velocity": 113}, {"time": 151920, "pitch": 74, "duration": 110, "velocity": 98}, {"time": 152040, "pitch": 76, "duration": 90, "velocity": 105}, {"time": 152280, "pitch": 79, "duration": 60, "velocity": 113}, {"time": 152520, "pitch": 76, "duration": 70, "velocity": 122}, {"time": 153840, "pitch": 83, "duration": 70, "velocity": 127}, {"time": 154200, "pitch": 79, "duration": 320, "velocity": 119}, {"time": 154560, "pitch": 76, "duration": 100, "velocity": 113}, {"time": 154680, "pitch": 74, "duration": 100, "velocity": 87}, {"time": 154800, "pitch": 76, "duration": 80, "velocity": 102}, {"time": 155760, "pitch": 83, "duration": 70, "velocity": 105}, {"time": 156120, "pitch": 79, "duration": 350, "velocity": 116}, {"time": 157680, "pitch": 71, "duration": 60, "velocity": 122}, {"time": 157920, "pitch": 73, "duration": 120, "velocity": 102}, {"time": 158040, "pitch": 76, "duration": 60, "velocity": 85}, {"time": 158290, "pitch": 76, "duration": 60, "velocity": 119}, {"time": 159360, "pitch": 76, "duration": 70, "velocity": 116}, {"time": 159480, "pitch": 76, "duration": 100, "velocity": 113}, {"time": 159600, "pitch": 74, "duration": 110, "velocity": 98}, {"time": 159720, "pitch": 76, "duration": 90, "velocity": 105}, {"time": 159960, "pitch": 79, "duration": 60, "velocity": 113}, {"time": 160200, "pitch": 76, "duration": 70, "velocity": 122}, {"time": 161520, "pitch": 83, "duration": 70, "velocity": 127}, {"time": 161880, "pitch": 79, "duration": 320, "velocity": 119}, {"time": 162240, "pitch": 76, "duration": 100, "velocity": 113}, {"time": 162360, "pitch": 74, "duration": 100, "velocity": 87}, {"time": 162480, "pitch": 76, "duration": 80, "velocity": 102}, {"time": 163440, "pitch": 83, "duration": 70, "velocity": 105}, {"time": 163800, "pitch": 79, "duration": 350, "velocity": 116}, {"time": 165360, "pitch": 71, "duration": 60, "velocity": 122}, {"time": 165600, "pitch": 73, "duration": 120, "velocity": 102}, {"time": 165720, "pitch": 76, "duration": 60, "velocity": 85}, {"time": 165970, "pitch": 76, "duration": 60, "velocity": 119}, {"time": 167040, "pitch": 76, "duration": 70, "velocity": 116}, {"time": 167160, "pitch": 76, "duration": 100, "velocity": 113}, {"time": 167280, "pitch": 74, "duration": 110, "velocity": 98}, {"time": 167400, "pitch": 76, "duration": 90, "velocity": 105}, {"time": 167640, "pitch": 79, "duration": 60, "velocity": 113}, {"time": 167880, "pitch": 76, "duration": 70, "velocity": 122}, {"time": 169200, "pitch": 83, "duration": 70, "velocity": 127}, {"time": 169560, "pitch": 79, "duration": 320, "velocity": 119}, {"time": 169920, "pitch": 76, "duration": 100, "velocity": 113}, {"time": 170040, "pitch": 74, "duration": 100, "velocity": 87}, {"time": 170160, "pitch": 76, "duration": 80, "velocity": 102}, {"time": 171120, "pitch": 83, "duration": 70, "velocity": 105}, {"time": 171480, "pitch": 79, "duration": 350, "velocity": 116}, {"time": 173040, "pitch": 71, "duration": 60, "velocity": 122}, {"time": 173280, "pitch": 73, "duration": 120, "velocity": 102}, {"time": 173400, "pitch": 76, "duration": 60, "velocity": 85}, {"time": 173650, "pitch": 76, "duration": 60, "velocity": 119}, {"time": 174720, "pitch": 76, "duration": 70, "velocity": 116}, {"time": 174840, "pitch": 76, "duration": 100, "velocity": 113}, {"time": 174960, "pitch": 74, "duration": 110, "velocity": 98}, {"time": 175080, "pitch": 76, "duration": 90, "velocity": 105}, {"time": 175320, "pitch": 79, "duration": 60, "velocity": 113}, {"time": 175560, "pitch": 76, "duration": 70, "velocity": 122}, {"time": 176880, "pitch": 83, "duration": 70, "velocity": 127}, {"time": 177240, "pitch": 79, "duration": 320, "velocity": 119}, {"time": 177600, "pitch": 76, "duration": 100, "velocity": 113}, {"time": 177720, "pitch": 74, "duration": 100, "velocity": 87}, {"time": 177840, "pitch": 76, "duration": 80, "velocity": 102}, {"time": 178800, "pitch": 71, "duration": 70, "velocity": 122}, {"time": 179040, "pitch": 73, "duration": 120, "velocity": 102}, {"time": 179160, "pitch": 76, "duration": 90, "velocity": 93}, {"time": 179400, "pitch": 76, "duration": 60, "velocity": 122}, {"time": 16440, "pitch": 65, "duration": 350, "velocity": 127}, {"time": 16800, "pitch": 64, "duration": 210, "velocity": 113}, {"time": 17040, "pitch": 66, "duration": 120, "velocity": 98}, {"time": 17160, "pitch": 67, "duration": 120, "velocity": 68}, {"time": 17280, "pitch": 68, "duration": 120, "velocity": 105}, {"time": 17400, "pitch": 71, "duration": 120, "velocity": 89}, {"time": 17520, "pitch": 73, "duration": 120, "velocity": 85}, {"time": 17640, "pitch": 76, "duration": 360, "velocity": 87}, {"time": 18000, "pitch": 74, "duration": 120, "velocity": 105}, {"time": 18600, "pitch": 74, "duration": 360, "velocity": 116}, {"time": 18960, "pitch": 73, "duration": 70, "velocity": 105}, {"time": 19560, "pitch": 71, "duration": 370, "velocity": 107}, {"time": 19920, "pitch": 73, "duration": 70, "velocity": 105}, {"time": 20640, "pitch": 64, "duration": 210, "velocity": 113}, {"time": 20880, "pitch": 66, "duration": 120, "velocity": 98}, {"time": 21000, "pitch": 67, "duration": 120, "velocity": 68}, {"time": 21120, "pitch": 68, "duration": 120, "velocity": 105}, {"time": 21240, "pitch": 71, "duration": 120, "velocity": 89}, {"time": 21360, "pitch": 73, "duration": 120, "velocity": 85}, {"time": 21480, "pitch": 76, "duration": 360, "velocity": 87}, {"time": 21840, "pitch": 74, "duration": 120, "velocity": 105}, {"time": 22440, "pitch": 74, "duration": 360, "velocity": 116}, {"time": 22800, "pitch": 73, "duration": 70, "velocity": 105}, {"time": 23520, "pitch": 71, "duration": 100, "velocity": 127}, {"time": 23640, "pitch": 79, "duration": 70, "velocity": 127}, {"time": 23880, "pitch": 79, "duration": 60, "velocity": 122}, {"time": 24120, "pitch": 79, "duration": 60, "velocity": 127}, {"time": 40080, "pitch": 73, "duration": 120, "velocity": 90}, {"time": 40200, "pitch": 75, "duration": 120, "velocity": 82}, {"time": 40320, "pitch": 73, "duration": 110, "velocity": 82}, {"time": 40800, "pitch": 73, "duration": 100, "velocity": 85}, {"time": 40920, "pitch": 75, "duration": 100, "velocity": 82}, {"time": 41040, "pitch": 73, "duration": 110, "velocity": 82}, {"time": 41280, "pitch": 70, "duration": 240, "velocity": 85}, {"time": 41520, "pitch": 73, "duration": 110, "velocity": 51}, {"time": 42240, "pitch": 73, "duration": 350, "velocity": 127}, {"time": 42600, "pitch": 71, "duration": 80, "velocity": 102}, {"time": 42720, "pitch": 73, "duration": 110, "velocity": 116}, {"time": 42840, "pitch": 71, "duration": 110, "velocity": 113}, {"time": 42960, "pitch": 73, "duration": 90, "velocity": 116}, {"time": 43440, "pitch": 73, "duration": 60, "velocity": 127}, {"time": 45360, "pitch": 73, "duration": 50, "velocity": 102}, {"time": 45840, "pitch": 71, "duration": 70, "velocity": 99}, {"time": 46320, "pitch": 68, "duration": 60, "velocity": 99}, {"time": 46800, "pitch": 66, "duration": 70, "velocity": 107}, {"time": 47280, "pitch": 64, "duration": 60, "velocity": 96}, {"time": 47520, "pitch": 59, "duration": 80, "velocity": 99}, {"time": 48000, "pitch": 71, "duration": 470, "velocity": 119}, {"time": 48480, "pitch": 69, "duration": 230, "velocity": 102}, {"time": 48720, "pitch": 68, "duration": 80, "velocity": 98}, {"time": 48960, "pitch": 69, "duration": 230, "velocity": 110}, {"time": 49200, "pitch": 68, "duration": 80, "velocity": 87}, {"time": 49440, "pitch": 71, "duration": 160, "velocity": 127}, {"time": 52560, "pitch": 71, "duration": 60, "velocity": 122}, {"time": 52800, "pitch": 73, "duration": 120, "velocity": 102}, {"time": 52920, "pitch": 76, "duration": 60, "velocity": 85}, {"time": 53170, "pitch": 76, "duration": 60, "velocity": 119}, {"time": 54240, "pitch": 76, "duration": 70, "velocity": 116}, {"time": 54360, "pitch": 76, "duration": 100, "velocity": 113}, {"time": 54480, "pitch": 74, "duration": 110, "velocity": 98}, {"time": 54600, "pitch": 76, "duration": 90, "velocity": 105}, {"time": 54840, "pitch": 79, "duration": 60, "velocity": 113}, {"time": 55080, "pitch": 76, "duration": 70, "velocity": 122}, {"time": 56400, "pitch": 83, "duration": 70, "velocity": 127}, {"time": 56760, "pitch": 79, "duration": 320, "velocity": 119}, {"time": 57120, "pitch": 76, "duration": 100, "velocity": 113}, {"time": 57240, "pitch": 74, "duration": 100, "velocity": 87}, {"time": 57360, "pitch": 76, "duration": 80, "velocity": 102}, {"time": 58320, "pitch": 83, "duration": 70, "velocity": 105}, {"time": 58680, "pitch": 79, "duration": 350, "velocity": 116}, {"time": 60240, "pitch": 71, "duration": 60, "velocity": 122}, {"time": 60480, "pitch": 73, "duration": 120, "velocity": 102}, {"time": 60600, "pitch": 76, "duration": 60, "velocity": 85}, {"time": 60850, "pitch": 76, "duration": 60, "velocity": 119}, {"time": 61920, "pitch": 76, "duration": 70, "velocity": 116}, {"time": 62040, "pitch": 76, "duration": 100, "velocity": 113}, {"time": 62160, "pitch": 74, "duration": 110, "velocity": 98}, {"time": 62280, "pitch": 76, "duration": 90, "velocity": 105}, {"time": 62520, "pitch": 79, "duration": 60, "velocity": 113}, {"time": 62760, "pitch": 76, "duration": 70, "velocity": 122}, {"time": 64080, "pitch": 83, "duration": 70, "velocity": 127}, {"time": 64440, "pitch": 79, "duration": 320, "velocity": 119}, {"time": 64800, "pitch": 76, "duration": 100, "velocity": 113}, {"time": 64920, "pitch": 74, "duration": 100, "velocity": 87}, {"time": 65040, "pitch": 76, "duration": 80, "velocity": 102}, {"time": 66000, "pitch": 71, "duration": 70, "velocity": 122}, {"time": 66240, "pitch": 73, "duration": 120, "velocity": 102}, {"time": 66360, "pitch": 76, "duration": 90, "velocity": 93}, {"time": 66600, "pitch": 76, "duration": 60, "velocity": 122}, {"time": 66720, "pitch": 64, "duration": 210, "velocity": 113}, {"time": 66960, "pitch": 66, "duration": 120, "velocity": 98}, {"time": 67080, "pitch": 67, "duration": 120, "velocity": 68}, {"time": 67200, "pitch": 68, "duration": 120, "velocity": 105}, {"time": 67320, "pitch": 71, "duration": 120, "velocity": 89}, {"time": 67440, "pitch": 73, "duration": 120, "velocity": 85}, {"time": 67560, "pitch": 76, "duration": 360, "velocity": 87}, {"time": 67920, "pitch": 74, "duration": 120, "velocity": 105}, {"time": 68520, "pitch": 74, "duration": 360, "velocity": 116}, {"time": 68880, "pitch": 73, "duration": 70, "velocity": 105}, {"time": 69480, "pitch": 71, "duration": 370, "velocity": 107}, {"time": 69840, "pitch": 73, "duration": 70, "velocity": 105}, {"time": 70560, "pitch": 64, "duration": 210, "velocity": 113}, {"time": 70800, "pitch": 66, "duration": 120, "velocity": 98}, {"time": 70920, "pitch": 67, "duration": 120, "velocity": 68}, {"time": 71040, "pitch": 68, "duration": 120, "velocity": 105}, {"time": 71160, "pitch": 71, "duration": 120, "velocity": 89}, {"time": 71280, "pitch": 73, "duration": 120, "velocity": 85}, {"time": 71400, "pitch": 76, "duration": 360, "velocity": 87}, {"time": 71760, "pitch": 74, "duration": 80, "velocity": 105}, {"time": 72240, "pitch": 74, "duration": 30, "velocity": 116}, {"time": 72480, "pitch": 76, "duration": 90, "velocity": 116}, {"time": 90000, "pitch": 73, "duration": 120, "velocity": 90}, {"time": 90120, "pitch": 75, "duration": 120, "velocity": 82}, {"time": 90240, "pitch": 73, "duration": 110, "velocity": 82}, {"time": 90720, "pitch": 73, "duration": 100, "velocity": 85}, {"time": 90840, "pitch": 75, "duration": 100, "velocity": 82}, {"time": 90960, "pitch": 73, "duration": 110, "velocity": 82}, {"time": 91200, "pitch": 70, "duration": 240, "velocity": 85}, {"time": 91440, "pitch": 73, "duration": 110, "velocity": 51}, {"time": 92160, "pitch": 73, "duration": 350, "velocity": 127}, {"time": 92520, "pitch": 71, "duration": 80, "velocity": 102}, {"time": 92640, "pitch": 73, "duration": 110, "velocity": 116}, {"time": 92760, "pitch": 71, "duration": 110, "velocity": 113}, {"time": 92880, "pitch": 73, "duration": 90, "velocity": 116}, {"time": 93360, "pitch": 73, "duration": 60, "velocity": 127}, {"time": 95280, "pitch": 73, "duration": 50, "velocity": 102}, {"time": 95760, "pitch": 71, "duration": 70, "velocity": 99}, {"time": 96240, "pitch": 68, "duration": 60, "velocity": 99}, {"time": 96720, "pitch": 66, "duration": 70, "velocity": 107}, {"time": 97200, "pitch": 64, "duration": 60, "velocity": 96}, {"time": 97440, "pitch": 59, "duration": 80, "velocity": 99}, {"time": 97920, "pitch": 71, "duration": 470, "velocity": 119}, {"time": 98400, "pitch": 69, "duration": 230, "velocity": 102}, {"time": 98640, "pitch": 68, "duration": 80, "velocity": 98}, {"time": 98880, "pitch": 69, "duration": 230, "velocity": 110}, {"time": 99120, "pitch": 68, "duration": 80, "velocity": 87}, {"time": 99360, "pitch": 71, "duration": 150, "velocity": 127}, {"time": 102480, "pitch": 71, "duration": 60, "velocity": 122}, {"time": 102720, "pitch": 73, "duration": 120, "velocity": 102}, {"time": 102840, "pitch": 76, "duration": 60, "velocity": 85}, {"time": 103090, "pitch": 76, "duration": 60, "velocity": 119}, {"time": 104160, "pitch": 76, "duration": 70, "velocity": 116}, {"time": 104280, "pitch": 76, "duration": 100, "velocity": 113}, {"time": 104400, "pitch": 74, "duration": 110, "velocity": 98}, {"time": 104520, "pitch": 76, "duration": 90, "velocity": 105}, {"time": 104760, "pitch": 79, "duration": 60, "velocity": 113}, {"time": 105000, "pitch": 76, "duration": 70, "velocity": 122}, {"time": 106320, "pitch": 83, "duration": 70, "velocity": 127}, {"time": 106680, "pitch": 79, "duration": 320, "velocity": 119}, {"time": 107040, "pitch": 76, "duration": 100, "velocity": 113}, {"time": 107160, "pitch": 74, "duration": 100, "velocity": 87}, {"time": 107280, "pitch": 76, "duration": 80, "velocity": 102}, {"time": 108240, "pitch": 83, "duration": 70, "velocity": 105}, {"time": 108600, "pitch": 79, "duration": 350, "velocity": 116}, {"time": 110160, "pitch": 71, "duration": 60, "velocity": 122}, {"time": 110400, "pitch": 73, "duration": 120, "velocity": 102}, {"time": 110520, "pitch": 76, "duration": 60, "velocity": 85}, {"time": 110770, "pitch": 76, "duration": 60, "velocity": 119}, {"time": 111840, "pitch": 76, "duration": 70, "velocity": 116}, {"time": 111960, "pitch": 76, "duration": 100, "velocity": 113}, {"time": 112080, "pitch": 74, "duration": 110, "velocity": 98}, {"time": 112200, "pitch": 76, "duration": 90, "velocity": 105}, {"time": 112440, "pitch": 79, "duration": 60, "velocity": 113}, {"time": 112680, "pitch": 76, "duration": 70, "velocity": 122}, {"time": 114000, "pitch": 83, "duration": 70, "velocity": 127}, {"time": 114360, "pitch": 79, "duration": 320, "velocity": 119}, {"time": 114720, "pitch": 76, "duration": 100, "velocity": 113}, {"time": 114840, "pitch": 74, "duration": 100, "velocity": 87}, {"time": 114960, "pitch": 76, "duration": 80, "velocity": 102}, {"time": 115920, "pitch": 71, "duration": 70, "velocity": 122}, {"time": 116160, "pitch": 73, "duration": 120, "velocity": 102}, {"time": 116280, "pitch": 76, "duration": 90, "velocity": 93}, {"time": 116520, "pitch": 76, "duration": 60, "velocity": 122}, {"time": 116880, "pitch": 71, "duration": 60, "velocity": 119}, {"time": 117120, "pitch": 71, "duration": 60, "velocity": 113}, {"time": 117360, "pitch": 73, "duration": 70, "velocity": 107}, {"time": 117600, "pitch": 74, "duration": 70, "velocity": 105}, {"time": 117840, "pitch": 73, "duration": 120, "velocity": 100}, {"time": 117960, "pitch": 71, "duration": 80, "velocity": 89}, {"time": 118200, "pitch": 69, "duration": 80, "velocity": 105}, {"time": 118440, "pitch": 68, "duration": 360, "velocity": 113}, {"time": 118800, "pitch": 64, "duration": 70, "velocity": 107}, {"time": 119040, "pitch": 62, "duration": 100, "velocity": 116}, {"time": 119160, "pitch": 64, "duration": 100, "velocity": 102}, {"time": 119400, "pitch": 68, "duration": 360, "velocity": 122}, {"time": 119760, "pitch": 64, "duration": 70, "velocity": 100}, {"time": 120000, "pitch": 62, "duration": 120, "velocity": 116}, {"time": 120120, "pitch": 64, "duration": 90, "velocity": 102}, {"time": 120720, "pitch": 71, "duration": 60, "velocity": 116}, {"time": 120960, "pitch": 71, "duration": 60, "velocity": 113}, {"time": 121200, "pitch": 73, "duration": 70, "velocity": 105}, {"time": 121440, "pitch": 74, "duration": 80, "velocity": 100}, {"time": 121680, "pitch": 73, "duration": 120, "velocity": 105}, {"time": 121800, "pitch": 71, "duration": 80, "velocity": 102}, {"time": 122040, "pitch": 69, "duration": 330, "velocity": 122}, {"time": 122400, "pitch": 59, "duration": 120, "velocity": 122}, {"time": 122520, "pitch": 62, "duration": 120, "velocity": 113}, {"time": 122640, "pitch": 64, "duration": 120, "velocity": 102}, {"time": 122760, "pitch": 68, "duration": 240, "velocity": 87}, {"time": 123000, "pitch": 64, "duration": 120, "velocity": 102}, {"time": 123120, "pitch": 62, "duration": 120, "velocity": 91}, {"time": 123240, "pitch": 59, "duration": 120, "velocity": 119}, {"time": 123360, "pitch": 69, "duration": 120, "velocity": 110}, {"time": 123480, "pitch": 67, "duration": 120, "velocity": 102}, {"time": 123600, "pitch": 64, "duration": 120, "velocity": 82}, {"time": 123720, "pitch": 62, "duration": 540, "velocity": 127}, {"time": 124560, "pitch": 71, "duration": 60, "velocity": 119}, {"time": 124800, "pitch": 71, "duration": 60, "velocity": 113}, {"time": 125040, "pitch": 73, "duration": 70, "velocity": 107}, {"time": 125280, "pitch": 74, "duration": 70, "velocity": 105}, {"time": 125520, "pitch": 73, "duration": 120, "velocity": 100}, {"time": 125640, "pitch": 71, "duration": 80, "velocity": 89}, {"time": 125880, "pitch": 69, "duration": 80, "velocity": 105}, {"time": 126120, "pitch": 68, "duration": 360, "velocity": 113}, {"time": 126480, "pitch": 64, "duration": 70, "velocity": 107}, {"time": 126720, "pitch": 62, "duration": 100, "velocity": 116}, {"time": 126840, "pitch": 64, "duration": 100, "velocity": 102}, {"time": 127080, "pitch": 68, "duration": 360, "velocity": 122}, {"time": 127440, "pitch": 64, "duration": 70, "velocity": 100}, {"time": 127680, "pitch": 62, "duration": 120, "velocity": 116}, {"time": 127800, "pitch": 64, "duration": 90, "velocity": 102}, {"time": 128400, "pitch": 71, "duration": 60, "velocity": 116}, {"time": 128640, "pitch": 71, "duration": 60, "velocity": 113}, {"time": 128880, "pitch": 73, "duration": 70, "velocity": 105}, {"time": 129120, "pitch": 74, "duration": 80, "velocity": 100}, {"time": 129360, "pitch": 73, "duration": 120, "velocity": 105}, {"time": 129480, "pitch": 71, "duration": 80, "velocity": 102}, {"time": 129720, "pitch": 74, "duration": 320, "velocity": 122}, {"time": 130080, "pitch": 76, "duration": 40, "velocity": 116}, {"time": 136080, "pitch": 73, "duration": 120, "velocity": 90}, {"time": 136200, "pitch": 75, "duration": 120, "velocity": 82}, {"time": 136320, "pitch": 73, "duration": 110, "velocity": 82}, {"time": 136800, "pitch": 73, "duration": 100, "velocity": 85}, {"time": 136920, "pitch": 75, "duration": 100, "velocity": 82}, {"time": 137040, "pitch": 73, "duration": 110, "velocity": 82}, {"time": 137280, "pitch": 70, "duration": 240, "velocity": 85}, {"time": 137520, "pitch": 73, "duration": 110, "velocity": 51}, {"time": 137760, "pitch": 73, "duration": 350, "velocity": 127}, {"time": 138120, "pitch": 71, "duration": 80, "velocity": 102}, {"time": 138240, "pitch": 73, "duration": 110, "velocity": 116}, {"time": 138360, "pitch": 71, "duration": 110, "velocity": 113}, {"time": 138480, "pitch": 73, "duration": 90, "velocity": 116}, {"time": 138960, "pitch": 73, "duration": 60, "velocity": 127}, {"time": 140880, "pitch": 73, "duration": 50, "velocity": 102}, {"time": 141360, "pitch": 71, "duration": 70, "velocity": 99}, {"time": 141840, "pitch": 68, "duration": 60, "velocity": 99}, {"time": 142320, "pitch": 66, "duration": 70, "velocity": 107}, {"time": 142800, "pitch": 64, "duration": 60, "velocity": 96}, {"time": 143040, "pitch": 59, "duration": 80, "velocity": 99}, {"time": 143520, "pitch": 71, "duration": 470, "velocity": 119}, {"time": 144000, "pitch": 69, "duration": 230, "velocity": 102}, {"time": 144240, "pitch": 68, "duration": 80, "velocity": 98}, {"time": 144480, "pitch": 69, "duration": 230, "velocity": 110}, {"time": 144720, "pitch": 68, "duration": 80, "velocity": 87}, {"time": 144960, "pitch": 71, "duration": 150, "velocity": 118}, {"time": 150000, "pitch": 71, "duration": 60, "velocity": 122}, {"time": 150240, "pitch": 73, "duration": 120, "velocity": 102}, {"time": 150360, "pitch": 76, "duration": 60, "velocity": 85}, {"time": 150610, "pitch": 76, "duration": 60, "velocity": 119}, {"time": 151680, "pitch": 76, "duration": 70, "velocity": 116}, {"time": 151800, "pitch": 76, "duration": 100, "velocity": 113}, {"time": 151920, "pitch": 74, "duration": 110, "velocity": 98}, {"time": 152040, "pitch": 76, "duration": 90, "velocity": 105}, {"time": 152280, "pitch": 79, "duration": 60, "velocity": 113}, {"time": 152520, "pitch": 76, "duration": 70, "velocity": 122}, {"time": 153840, "pitch": 83, "duration": 70, "velocity": 127}, {"time": 154200, "pitch": 79, "duration": 320, "velocity": 119}, {"time": 154560, "pitch": 76, "duration": 100, "velocity": 113}, {"time": 154680, "pitch": 74, "duration": 100, "velocity": 87}, {"time": 154800, "pitch": 76, "duration": 80, "velocity": 102}, {"time": 155760, "pitch": 83, "duration": 70, "velocity": 105}, {"time": 156120, "pitch": 79, "duration": 350, "velocity": 116}, {"time": 157680, "pitch": 71, "duration": 60, "velocity": 122}, {"time": 157920, "pitch": 73, "duration": 120, "velocity": 102}, {"time": 158040, "pitch": 76, "duration": 60, "velocity": 85}, {"time": 158290, "pitch": 76, "duration": 60, "velocity": 119}, {"time": 159360, "pitch": 76, "duration": 70, "velocity": 116}, {"time": 159480, "pitch": 76, "duration": 100, "velocity": 113}, {"time": 159600, "pitch": 74, "duration": 110, "velocity": 98}, {"time": 159720, "pitch": 76, "duration": 90, "velocity": 105}, {"time": 159960, "pitch": 79, "duration": 60, "velocity": 113}, {"time": 160200, "pitch": 76, "duration": 70, "velocity": 122}, {"time": 161520, "pitch": 83, "duration": 70, "velocity": 127}, {"time": 161880, "pitch": 79, "duration": 320, "velocity": 119}, {"time": 162240, "pitch": 76, "duration": 100, "velocity": 113}, {"time": 162360, "pitch": 74, "duration": 100, "velocity": 87}, {"time": 162480, "pitch": 76, "duration": 80, "velocity": 102}, {"time": 163440, "pitch": 83, "duration": 70, "velocity": 105}, {"time": 163800, "pitch": 79, "duration": 350, "velocity": 116}, {"time": 165360, "pitch": 71, "duration": 60, "velocity": 122}, {"time": 165600, "pitch": 73, "duration": 120, "velocity": 102}, {"time": 165720, "pitch": 76, "duration": 60, "velocity": 85}, {"time": 165970, "pitch": 76, "duration": 60, "velocity": 119}, {"time": 167040, "pitch": 76, "duration": 70, "velocity": 116}, {"time": 167160, "pitch": 76, "duration": 100, "velocity": 113}, {"time": 167280, "pitch": 74, "duration": 110, "velocity": 98}, {"time": 167400, "pitch": 76, "duration": 90, "velocity": 105}, {"time": 167640, "pitch": 79, "duration": 60, "velocity": 113}, {"time": 167880, "pitch": 76, "duration": 70, "velocity": 122}, {"time": 169200, "pitch": 83, "duration": 70, "velocity": 127}, {"time": 169560, "pitch": 79, "duration": 320, "velocity": 119}, {"time": 169920, "pitch": 76, "duration": 100, "velocity": 113}, {"time": 170040, "pitch": 74, "duration": 100, "velocity": 87}, {"time": 170160, "pitch": 76, "duration": 80, "velocity": 102}, {"time": 171120, "pitch": 83, "duration": 70, "velocity": 105}, {"time": 171480, "pitch": 79, "duration": 350, "velocity": 116}, {"time": 173040, "pitch": 71, "duration": 60, "velocity": 122}, {"time": 173280, "pitch": 73, "duration": 120, "velocity": 102}, {"time": 173400, "pitch": 76, "duration": 60, "velocity": 85}, {"time": 173650, "pitch": 76, "duration": 60, "velocity": 119}, {"time": 174720, "pitch": 76, "duration": 70, "velocity": 116}, {"time": 174840, "pitch": 76, "duration": 100, "velocity": 113}, {"time": 174960, "pitch": 74, "duration": 110, "velocity": 98}, {"time": 175080, "pitch": 76, "duration": 90, "velocity": 105}, {"time": 175320, "pitch": 79, "duration": 60, "velocity": 113}, {"time": 175560, "pitch": 76, "duration": 70, "velocity": 122}, {"time": 176880, "pitch": 83, "duration": 70, "velocity": 127}, {"time": 177240, "pitch": 79, "duration": 320, "velocity": 119}, {"time": 177600, "pitch": 76, "duration": 100, "velocity": 113}, {"time": 177720, "pitch": 74, "duration": 100, "velocity": 87}, {"time": 177840, "pitch": 76, "duration": 80, "velocity": 102}, {"time": 178800, "pitch": 71, "duration": 70, "velocity": 122}, {"time": 179040, "pitch": 73, "duration": 120, "velocity": 102}, {"time": 179160, "pitch": 76, "duration": 90, "velocity": 93}, {"time": 179400, "pitch": 76, "duration": 60, "velocity": 122}, {"time": 16440, "pitch": 77, "duration": 350, "velocity": 127}, {"time": 16800, "pitch": 76, "duration": 240, "velocity": 127}, {"time": 17040, "pitch": 78, "duration": 120, "velocity": 98}, {"time": 17160, "pitch": 79, "duration": 110, "velocity": 98}, {"time": 17280, "pitch": 80, "duration": 120, "velocity": 113}, {"time": 17400, "pitch": 83, "duration": 110, "velocity": 91}, {"time": 17520, "pitch": 85, "duration": 110, "velocity": 102}, {"time": 17640, "pitch": 88, "duration": 370, "velocity": 127}, {"time": 18000, "pitch": 86, "duration": 90, "velocity": 116}, {"time": 18600, "pitch": 86, "duration": 340, "velocity": 127}, {"time": 18960, "pitch": 85, "duration": 80, "velocity": 113}, {"time": 19560, "pitch": 83, "duration": 340, "velocity": 122}, {"time": 19920, "pitch": 85, "duration": 60, "velocity": 127}, {"time": 20640, "pitch": 76, "duration": 240, "velocity": 127}, {"time": 20880, "pitch": 78, "duration": 120, "velocity": 98}, {"time": 21000, "pitch": 79, "duration": 110, "velocity": 98}, {"time": 21120, "pitch": 80, "duration": 120, "velocity": 113}, {"time": 21240, "pitch": 83, "duration": 110, "velocity": 91}, {"time": 21360, "pitch": 85, "duration": 110, "velocity": 102}, {"time": 21480, "pitch": 88, "duration": 370, "velocity": 127}, {"time": 21840, "pitch": 86, "duration": 90, "velocity": 116}, {"time": 22440, "pitch": 86, "duration": 340, "velocity": 127}, {"time": 22800, "pitch": 85, "duration": 90, "velocity": 116}, {"time": 23520, "pitch": 71, "duration": 100, "velocity": 119}, {"time": 23640, "pitch": 79, "duration": 50, "velocity": 127}, {"time": 23880, "pitch": 79, "duration": 100, "velocity": 119}, {"time": 24120, "pitch": 79, "duration": 80, "velocity": 116}, {"time": 42240, "pitch": 73, "duration": 350, "velocity": 127}, {"time": 42600, "pitch": 71, "duration": 110, "velocity": 95}, {"time": 42720, "pitch": 73, "duration": 120, "velocity": 116}, {"time": 42840, "pitch": 71, "duration": 100, "velocity": 110}, {"time": 42960, "pitch": 73, "duration": 90, "velocity": 110}, {"time": 43440, "pitch": 73, "duration": 60, "velocity": 127}, {"time": 45360, "pitch": 73, "duration": 50, "velocity": 102}, {"time": 45840, "pitch": 71, "duration": 60, "velocity": 99}, {"time": 46320, "pitch": 68, "duration": 60, "velocity": 107}, {"time": 46800, "pitch": 66, "duration": 50, "velocity": 107}, {"time": 47280, "pitch": 64, "duration": 50, "velocity": 107}, {"time": 47520, "pitch": 71, "duration": 70, "velocity": 99}, {"time": 48000, "pitch": 83, "duration": 470, "velocity": 99}, {"time": 48480, "pitch": 81, "duration": 230, "velocity": 85}, {"time": 48720, "pitch": 80, "duration": 80, "velocity": 78}, {"time": 48960, "pitch": 81, "duration": 230, "velocity": 87}, {"time": 49200, "pitch": 80, "duration": 90, "velocity": 75}, {"time": 49440, "pitch": 83, "duration": 140, "velocity": 107}, {"time": 52560, "pitch": 71, "duration": 60, "velocity": 122}, {"time": 52800, "pitch": 73, "duration": 120, "velocity": 102}, {"time": 52920, "pitch": 76, "duration": 50, "velocity": 85}, {"time": 53170, "pitch": 76, "duration": 60, "velocity": 119}, {"time": 54240, "pitch": 76, "duration": 70, "velocity": 116}, {"time": 54360, "pitch": 76, "duration": 100, "velocity": 113}, {"time": 54480, "pitch": 74, "duration": 110, "velocity": 98}, {"time": 54600, "pitch": 76, "duration": 90, "velocity": 105}, {"time": 54840, "pitch": 79, "duration": 60, "velocity": 113}, {"time": 55080, "pitch": 76, "duration": 70, "velocity": 122}, {"time": 56400, "pitch": 83, "duration": 70, "velocity": 127}, {"time": 56760, "pitch": 79, "duration": 320, "velocity": 119}, {"time": 57120, "pitch": 76, "duration": 100, "velocity": 113}, {"time": 57240, "pitch": 74, "duration": 100, "velocity": 87}, {"time": 57360, "pitch": 76, "duration": 80, "velocity": 102}, {"time": 58320, "pitch": 83, "duration": 70, "velocity": 105}, {"time": 58680, "pitch": 79, "duration": 350, "velocity": 116}, {"time": 60240, "pitch": 71, "duration": 60, "velocity": 122}, {"time": 60480, "pitch": 73, "duration": 120, "velocity": 102}, {"time": 60600, "pitch": 76, "duration": 50, "velocity": 85}, {"time": 60850, "pitch": 76, "duration": 60, "velocity": 119}, {"time": 61920, "pitch": 76, "duration": 70, "velocity": 116}, {"time": 62040, "pitch": 76, "duration": 100, "velocity": 113}, {"time": 62160, "pitch": 74, "duration": 110, "velocity": 98}, {"time": 62280, "pitch": 76, "duration": 90, "velocity": 105}, {"time": 62520, "pitch": 79, "duration": 60, "velocity": 113}, {"time": 62760, "pitch": 76, "duration": 70, "velocity": 122}, {"time": 64080, "pitch": 83, "duration": 70, "velocity": 127}, {"time": 64440, "pitch": 79, "duration": 320, "velocity": 119}, {"time": 64800, "pitch": 76, "duration": 100, "velocity": 113}, {"time": 64920, "pitch": 74, "duration": 100, "velocity": 87}, {"time": 65040, "pitch": 76, "duration": 80, "velocity": 102}, {"time": 66000, "pitch": 71, "duration": 70, "velocity": 122}, {"time": 66240, "pitch": 73, "duration": 120, "velocity": 102}, {"time": 66360, "pitch": 76, "duration": 90, "velocity": 93}, {"time": 66600, "pitch": 76, "duration": 60, "velocity": 122}, {"time": 66720, "pitch": 76, "duration": 240, "velocity": 127}, {"time": 66960, "pitch": 78, "duration": 120, "velocity": 98}, {"time": 67080, "pitch": 79, "duration": 110, "velocity": 98}, {"time": 67200, "pitch": 80, "duration": 120, "velocity": 113}, {"time": 67320, "pitch": 83, "duration": 110, "velocity": 91}, {"time": 67440, "pitch": 85, "duration": 110, "velocity": 102}, {"time": 67560, "pitch": 88, "duration": 370, "velocity": 127}, {"time": 67920, "pitch": 86, "duration": 90, "velocity": 116}, {"time": 68520, "pitch": 86, "duration": 340, "velocity": 127}, {"time": 68880, "pitch": 85, "duration": 80, "velocity": 113}, {"time": 69480, "pitch": 83, "duration": 340, "velocity": 122}, {"time": 69840, "pitch": 85, "duration": 60, "velocity": 127}, {"time": 70560, "pitch": 76, "duration": 230, "velocity": 127}, {"time": 70800, "pitch": 78, "duration": 100, "velocity": 102}, {"time": 70920, "pitch": 79, "duration": 90, "velocity": 110}, {"time": 71040, "pitch": 80, "duration": 100, "velocity": 113}, {"time": 71160, "pitch": 83, "duration": 110, "velocity": 89}, {"time": 71280, "pitch": 85, "duration": 90, "velocity": 100}, {"time": 71400, "pitch": 88, "duration": 340, "velocity": 119}, {"time": 71760, "pitch": 86, "duration": 90, "velocity": 113}, {"time": 72240, "pitch": 86, "duration": 60, "velocity": 127}, {"time": 72480, "pitch": 88, "duration": 90, "velocity": 127}, {"time": 92160, "pitch": 73, "duration": 350, "velocity": 127}, {"time": 92520, "pitch": 71, "duration": 110, "velocity": 95}, {"time": 92640, "pitch": 73, "duration": 120, "velocity": 116}, {"time": 92760, "pitch": 71, "duration": 100, "velocity": 110}, {"time": 92880, "pitch": 73, "duration": 90, "velocity": 110}, {"time": 93360, "pitch": 73, "duration": 60, "velocity": 127}, {"time": 95280, "pitch": 73, "duration": 50, "velocity": 102}, {"time": 95760, "pitch": 71, "duration": 60, "velocity": 99}, {"time": 96240, "pitch": 68, "duration": 60, "velocity": 107}, {"time": 96720, "pitch": 66, "duration": 50, "velocity": 107}, {"time": 97200, "pitch": 64, "duration": 50, "velocity": 107}, {"time": 97440, "pitch": 71, "duration": 70, "velocity": 99}, {"time": 97920, "pitch": 83, "duration": 470, "velocity": 99}, {"time": 98400, "pitch": 81, "duration": 230, "velocity": 85}, {"time": 98640, "pitch": 80, "duration": 80, "velocity": 78}, {"time": 98880, "pitch": 81, "duration": 230, "velocity": 87}, {"time": 99120, "pitch": 80, "duration": 90, "velocity": 75}, {"time": 99360, "pitch": 83, "duration": 140, "velocity": 107}, {"time": 102480, "pitch": 71, "duration": 60, "velocity": 122}, {"time": 102720, "pitch": 73, "duration": 120, "velocity": 102}, {"time": 102840, "pitch": 76, "duration": 50, "velocity": 85}, {"time": 103090, "pitch": 76, "duration": 60, "velocity": 119}, {"time": 104160, "pitch": 76, "duration": 70, "velocity": 116}, {"time": 104280, "pitch": 76, "duration": 100, "velocity": 113}, {"time": 104400, "pitch": 74, "duration": 110, "velocity": 98}, {"time": 104520, "pitch": 76, "duration": 90, "velocity": 105}, {"time": 104760, "pitch": 79, "duration": 60, "velocity": 113}, {"time": 105000, "pitch": 76, "duration": 70, "velocity": 122}, {"time": 106320, "pitch": 83, "duration": 70, "velocity": 127}, {"time": 106680, "pitch": 79, "duration": 320, "velocity": 119}, {"time": 107040, "pitch": 76, "duration": 100, "velocity": 113}, {"time": 107160, "pitch": 74, "duration": 100, "velocity": 87}, {"time": 107280, "pitch": 76, "duration": 80, "velocity": 102}, {"time": 108240, "pitch": 83, "duration": 70, "velocity": 105}, {"time": 108600, "pitch": 79, "duration": 350, "velocity": 116}, {"time": 110160, "pitch": 71, "duration": 60, "velocity": 122}, {"time": 110400, "pitch": 73, "duration": 120, "velocity": 102}, {"time": 110520, "pitch": 76, "duration": 50, "velocity": 85}, {"time": 110770, "pitch": 76, "duration": 60, "velocity": 119}, {"time": 111840, "pitch": 76, "duration": 70, "velocity": 116}, {"time": 111960, "pitch": 76, "duration": 100, "velocity": 113}, {"time": 112080, "pitch": 74, "duration": 110, "velocity": 98}, {"time": 112200, "pitch": 76, "duration": 90, "velocity": 105}, {"time": 112440, "pitch": 79, "duration": 60, "velocity": 113}, {"time": 112680, "pitch": 76, "duration": 70, "velocity": 122}, {"time": 114000, "pitch": 83, "duration": 70, "velocity": 127}, {"time": 114360, "pitch": 79, "duration": 320, "velocity": 119}, {"time": 114720, "pitch": 76, "duration": 100, "velocity": 113}, {"time": 114840, "pitch": 74, "duration": 100, "velocity": 87}, {"time": 114960, "pitch": 76, "duration": 80, "velocity": 102}, {"time": 115920, "pitch": 71, "duration": 70, "velocity": 122}, {"time": 116160, "pitch": 73, "duration": 120, "velocity": 102}, {"time": 116280, "pitch": 76, "duration": 90, "velocity": 93}, {"time": 116520, "pitch": 76, "duration": 60, "velocity": 122}, {"time": 116880, "pitch": 83, "duration": 80, "velocity": 122}, {"time": 117120, "pitch": 83, "duration": 70, "velocity": 110}, {"time": 117360, "pitch": 85, "duration": 80, "velocity": 127}, {"time": 117600, "pitch": 86, "duration": 60, "velocity": 110}, {"time": 117840, "pitch": 85, "duration": 100, "velocity": 119}, {"time": 117960, "pitch": 83, "duration": 80, "velocity": 100}, {"time": 118200, "pitch": 81, "duration": 60, "velocity": 113}, {"time": 118440, "pitch": 80, "duration": 320, "velocity": 127}, {"time": 118800, "pitch": 76, "duration": 70, "velocity": 116}, {"time": 119040, "pitch": 74, "duration": 90, "velocity": 107}, {"time": 119160, "pitch": 76, "duration": 70, "velocity": 110}, {"time": 119400, "pitch": 80, "duration": 330, "velocity": 110}, {"time": 119760, "pitch": 76, "duration": 80, "velocity": 107}, {"time": 120000, "pitch": 74, "duration": 130, "velocity": 113}, {"time": 120120, "pitch": 76, "duration": 80, "velocity": 113}, {"time": 120720, "pitch": 83, "duration": 70, "velocity": 119}, {"time": 120960, "pitch": 83, "duration": 80, "velocity": 110}, {"time": 121200, "pitch": 85, "duration": 80, "velocity": 113}, {"time": 121440, "pitch": 86, "duration": 60, "velocity": 102}, {"time": 121680, "pitch": 85, "duration": 110, "velocity": 107}, {"time": 121800, "pitch": 83, "duration": 70, "velocity": 105}, {"time": 122040, "pitch": 81, "duration": 60, "velocity": 119}, {"time": 122400, "pitch": 71, "duration": 100, "velocity": 127}, {"time": 122520, "pitch": 74, "duration": 110, "velocity": 105}, {"time": 122640, "pitch": 76, "duration": 100, "velocity": 105}, {"time": 122760, "pitch": 80, "duration": 220, "velocity": 116}, {"time": 123000, "pitch": 76, "duration": 110, "velocity": 100}, {"time": 123120, "pitch": 74, "duration": 110, "velocity": 107}, {"time": 123240, "pitch": 71, "duration": 50, "velocity": 82}, {"time": 123360, "pitch": 81, "duration": 120, "velocity": 105}, {"time": 123480, "pitch": 79, "duration": 100, "velocity": 122}, {"time": 123600, "pitch": 76, "duration": 110, "velocity": 107}, {"time": 123720, "pitch": 74, "duration": 540, "velocity": 98}, {"time": 124560, "pitch": 83, "duration": 70, "velocity": 116}, {"time": 124800, "pitch": 83, "duration": 90, "velocity": 116}, {"time": 125040, "pitch": 85, "duration": 80, "velocity": 110}, {"time": 125280, "pitch": 86, "duration": 80, "velocity": 107}, {"time": 125520, "pitch": 85, "duration": 80, "velocity": 113}, {"time": 125640, "pitch": 83, "duration": 90, "velocity": 105}, {"time": 125880, "pitch": 81, "duration": 80, "velocity": 110}, {"time": 126120, "pitch": 80, "duration": 350, "velocity": 119}, {"time": 126480, "pitch": 76, "duration": 80, "velocity": 105}, {"time": 126720, "pitch": 74, "duration": 90, "velocity": 100}, {"time": 126840, "pitch": 76, "duration": 120, "velocity": 87}, {"time": 127080, "pitch": 80, "duration": 320, "velocity": 105}, {"time": 127440, "pitch": 76, "duration": 90, "velocity": 110}, {"time": 127680, "pitch": 74, "duration": 70, "velocity": 105}, {"time": 127800, "pitch": 76, "duration": 80, "velocity": 110}, {"time": 128400, "pitch": 83, "duration": 70, "velocity": 116}, {"time": 128640, "pitch": 83, "duration": 90, "velocity": 107}, {"time": 128880, "pitch": 85, "duration": 80, "velocity": 110}, {"time": 129120, "pitch": 86, "duration": 80, "velocity": 102}, {"time": 129360, "pitch": 85, "duration": 100, "velocity": 116}, {"time": 129480, "pitch": 83, "duration": 90, "velocity": 102}, {"time": 129720, "pitch": 86, "duration": 340, "velocity": 110}, {"time": 130080, "pitch": 88, "duration": 60, "velocity": 113}, {"time": 137760, "pitch": 73, "duration": 350, "velocity": 127}, {"time": 138120, "pitch": 71, "duration": 110, "velocity": 95}, {"time": 138240, "pitch": 73, "duration": 120, "velocity": 116}, {"time": 138360, "pitch": 71, "duration": 100, "velocity": 110}, {"time": 138480, "pitch": 73, "duration": 90, "velocity": 110}, {"time": 138960, "pitch": 73, "duration": 60, "velocity": 127}, {"time": 140880, "pitch": 73, "duration": 50, "velocity": 102}, {"time": 141360, "pitch": 71, "duration": 60, "velocity": 99}, {"time": 141840, "pitch": 68, "duration": 60, "velocity": 107}, {"time": 142320, "pitch": 66, "duration": 50, "velocity": 107}, {"time": 142800, "pitch": 64, "duration": 50, "velocity": 107}, {"time": 143040, "pitch": 71, "duration": 70, "velocity": 99}, {"time": 143520, "pitch": 83, "duration": 470, "velocity": 99}, {"time": 144000, "pitch": 81, "duration": 230, "velocity": 85}, {"time": 144240, "pitch": 80, "duration": 80, "velocity": 78}, {"time": 144480, "pitch": 81, "duration": 230, "velocity": 87}, {"time": 144720, "pitch": 80, "duration": 90, "velocity": 75}, {"time": 144960, "pitch": 83, "duration": 140, "velocity": 110}, {"time": 150000, "pitch": 71, "duration": 60, "velocity": 122}, {"time": 150240, "pitch": 73, "duration": 120, "velocity": 102}, {"time": 150360, "pitch": 76, "duration": 50, "velocity": 85}, {"time": 150610, "pitch": 76, "duration": 60, "velocity": 119}, {"time": 151680, "pitch": 76, "duration": 70, "velocity": 116}, {"time": 151800, "pitch": 76, "duration": 100, "velocity": 113}, {"time": 151920, "pitch": 74, "duration": 110, "velocity": 98}, {"time": 152040, "pitch": 76, "duration": 90, "velocity": 105}, {"time": 152280, "pitch": 79, "duration": 60, "velocity": 113}, {"time": 152520, "pitch": 76, "duration": 70, "velocity": 122}, {"time": 153840, "pitch": 83, "duration": 70, "velocity": 127}, {"time": 154200, "pitch": 79, "duration": 320, "velocity": 119}, {"time": 154560, "pitch": 76, "duration": 100, "velocity": 113}, {"time": 154680, "pitch": 74, "duration": 100, "velocity": 87}, {"time": 154800, "pitch": 76, "duration": 80, "velocity": 102}, {"time": 155760, "pitch": 83, "duration": 70, "velocity": 105}, {"time": 156120, "pitch": 79, "duration": 350, "velocity": 116}, {"time": 157680, "pitch": 71, "duration": 60, "velocity": 122}, {"time": 157920, "pitch": 73, "duration": 120, "velocity": 102}, {"time": 158040, "pitch": 76, "duration": 50, "velocity": 85}, {"time": 158290, "pitch": 76, "duration": 60, "velocity": 119}, {"time": 159360, "pitch": 76, "duration": 70, "velocity": 116}, {"time": 159480, "pitch": 76, "duration": 100, "velocity": 113}, {"time": 159600, "pitch": 74, "duration": 110, "velocity": 98}, {"time": 159720, "pitch": 76, "duration": 90, "velocity": 105}, {"time": 159960, "pitch": 79, "duration": 60, "velocity": 113}, {"time": 160200, "pitch": 76, "duration": 70, "velocity": 122}, {"time": 161520, "pitch": 83, "duration": 70, "velocity": 127}, {"time": 161880, "pitch": 79, "duration": 320, "velocity": 119}, {"time": 162240, "pitch": 76, "duration": 100, "velocity": 113}, {"time": 162360, "pitch": 74, "duration": 100, "velocity": 87}, {"time": 162480, "pitch": 76, "duration": 80, "velocity": 102}, {"time": 163440, "pitch": 83, "duration": 70, "velocity": 105}, {"time": 163800, "pitch": 79, "duration": 350, "velocity": 116}, {"time": 165360, "pitch": 71, "duration": 60, "velocity": 122}, {"time": 165600, "pitch": 73, "duration": 120, "velocity": 102}, {"time": 165720, "pitch": 76, "duration": 50, "velocity": 85}, {"time": 165970, "pitch": 76, "duration": 60, "velocity": 119}, {"time": 167040, "pitch": 76, "duration": 70, "velocity": 116}, {"time": 167160, "pitch": 76, "duration": 100, "velocity": 113}, {"time": 167280, "pitch": 74, "duration": 110, "velocity": 98}, {"time": 167400, "pitch": 76, "duration": 90, "velocity": 105}, {"time": 167640, "pitch": 79, "duration": 60, "velocity": 113}, {"time": 167880, "pitch": 76, "duration": 70, "velocity": 122}, {"time": 169200, "pitch": 83, "duration": 70, "velocity": 127}, {"time": 169560, "pitch": 79, "duration": 320, "velocity": 119}, {"time": 169920, "pitch": 76, "duration": 100, "velocity": 113}, {"time": 170040, "pitch": 74, "duration": 100, "velocity": 87}, {"time": 170160, "pitch": 76, "duration": 80, "velocity": 102}, {"time": 171120, "pitch": 83, "duration": 70, "velocity": 105}, {"time": 171480, "pitch": 79, "duration": 350, "velocity": 116}, {"time": 173040, "pitch": 71, "duration": 60, "velocity": 122}, {"time": 173280, "pitch": 73, "duration": 120, "velocity": 102}, {"time": 173400, "pitch": 76, "duration": 50, "velocity": 85}, {"time": 173650, "pitch": 76, "duration": 60, "velocity": 119}, {"time": 174720, "pitch": 76, "duration": 70, "velocity": 116}, {"time": 174840, "pitch": 76, "duration": 100, "velocity": 113}, {"time": 174960, "pitch": 74, "duration": 110, "velocity": 98}, {"time": 175080, "pitch": 76, "duration": 90, "velocity": 105}, {"time": 175320, "pitch": 79, "duration": 60, "velocity": 113}, {"time": 175560, "pitch": 76, "duration": 70, "velocity": 122}, {"time": 176880, "pitch": 83, "duration": 70, "velocity": 127}, {"time": 177240, "pitch": 79, "duration": 320, "velocity": 119}, {"time": 177600, "pitch": 76, "duration": 100, "velocity": 113}, {"time": 177720, "pitch": 74, "duration": 100, "velocity": 87}, {"time": 177840, "pitch": 76, "duration": 80, "velocity": 102}, {"time": 178800, "pitch": 71, "duration": 70, "velocity": 122}, {"time": 179040, "pitch": 73, "duration": 120, "velocity": 102}, {"time": 179160, "pitch": 76, "duration": 90, "velocity": 93}, {"time": 179400, "pitch": 76, "duration": 60, "velocity": 122}, {"time": 16440, "pitch": 53, "duration": 360, "velocity": 127}, {"time": 16800, "pitch": 52, "duration": 230, "velocity": 122}, {"time": 17040, "pitch": 54, "duration": 110, "velocity": 98}, {"time": 17160, "pitch": 55, "duration": 110, "velocity": 89}, {"time": 17280, "pitch": 56, "duration": 110, "velocity": 98}, {"time": 17400, "pitch": 59, "duration": 110, "velocity": 93}, {"time": 17520, "pitch": 61, "duration": 120, "velocity": 93}, {"time": 17640, "pitch": 64, "duration": 350, "velocity": 127}, {"time": 18000, "pitch": 62, "duration": 70, "velocity": 119}, {"time": 18600, "pitch": 62, "duration": 360, "velocity": 127}, {"time": 18960, "pitch": 61, "duration": 80, "velocity": 107}, {"time": 19560, "pitch": 59, "duration": 380, "velocity": 127}, {"time": 19920, "pitch": 61, "duration": 70, "velocity": 122}, {"time": 20640, "pitch": 52, "duration": 230, "velocity": 122}, {"time": 20880, "pitch": 54, "duration": 110, "velocity": 98}, {"time": 21000, "pitch": 55, "duration": 110, "velocity": 89}, {"time": 21120, "pitch": 56, "duration": 110, "velocity": 98}, {"time": 21240, "pitch": 59, "duration": 110, "velocity": 93}, {"time": 21360, "pitch": 61, "duration": 120, "velocity": 93}, {"time": 21480, "pitch": 64, "duration": 350, "velocity": 127}, {"time": 21840, "pitch": 62, "duration": 70, "velocity": 119}, {"time": 22440, "pitch": 62, "duration": 360, "velocity": 127}, {"time": 22800, "pitch": 61, "duration": 80, "velocity": 122}, {"time": 23520, "pitch": 47, "duration": 100, "velocity": 122}, {"time": 23640, "pitch": 55, "duration": 100, "velocity": 107}, {"time": 23880, "pitch": 55, "duration": 70, "velocity": 116}, {"time": 24120, "pitch": 55, "duration": 70, "velocity": 127}, {"time": 39840, "pitch": 59, "duration": 1070, "velocity": 102}, {"time": 41040, "pitch": 59, "duration": 230, "velocity": 110}, {"time": 41280, "pitch": 61, "duration": 80, "velocity": 78}, {"time": 41520, "pitch": 64, "duration": 160, "velocity": 107}, {"time": 42000, "pitch": 59, "duration": 200, "velocity": 107}, {"time": 42480, "pitch": 58, "duration": 1100, "velocity": 100}, {"time": 43680, "pitch": 59, "duration": 1050, "velocity": 107}, {"time": 44880, "pitch": 59, "duration": 270, "velocity": 113}, {"time": 45120, "pitch": 61, "duration": 80, "velocity": 78}, {"time": 45360, "pitch": 58, "duration": 1960, "velocity": 107}, {"time": 47520, "pitch": 59, "duration": 60, "velocity": 119}, {"time": 48000, "pitch": 71, "duration": 470, "velocity": 119}, {"time": 48480, "pitch": 69, "duration": 240, "velocity": 102}, {"time": 48720, "pitch": 68, "duration": 80, "velocity": 89}, {"time": 48960, "pitch": 69, "duration": 230, "velocity": 105}, {"time": 49200, "pitch": 68, "duration": 80, "velocity": 87}, {"time": 49440, "pitch": 71, "duration": 150, "velocity": 127}, {"time": 52560, "pitch": 59, "duration": 80, "velocity": 119}, {"time": 52800, "pitch": 61, "duration": 110, "velocity": 100}, {"time": 52920, "pitch": 64, "duration": 90, "velocity": 100}, {"time": 53160, "pitch": 64, "duration": 60, "velocity": 119}, {"time": 54240, "pitch": 64, "duration": 60, "velocity": 116}, {"time": 54360, "pitch": 64, "duration": 80, "velocity": 110}, {"time": 54480, "pitch": 62, "duration": 130, "velocity": 102}, {"time": 54600, "pitch": 64, "duration": 80, "velocity": 110}, {"time": 54840, "pitch": 67, "duration": 60, "velocity": 116}, {"time": 55080, "pitch": 64, "duration": 70, "velocity": 127}, {"time": 56400, "pitch": 71, "duration": 80, "velocity": 122}, {"time": 56760, "pitch": 67, "duration": 250, "velocity": 122}, {"time": 57120, "pitch": 64, "duration": 120, "velocity": 119}, {"time": 57240, "pitch": 62, "duration": 140, "velocity": 102}, {"time": 57360, "pitch": 64, "duration": 90, "velocity": 110}, {"time": 58320, "pitch": 71, "duration": 100, "velocity": 122}, {"time": 58680, "pitch": 67, "duration": 270, "velocity": 127}, {"time": 60240, "pitch": 59, "duration": 60, "velocity": 122}, {"time": 60480, "pitch": 61, "duration": 120, "velocity": 102}, {"time": 60600, "pitch": 64, "duration": 60, "velocity": 85}, {"time": 60850, "pitch": 64, "duration": 60, "velocity": 119}, {"time": 61920, "pitch": 64, "duration": 70, "velocity": 116}, {"time": 62040, "pitch": 64, "duration": 100, "velocity": 113}, {"time": 62160, "pitch": 62, "duration": 110, "velocity": 98}, {"time": 62280, "pitch": 64, "duration": 90, "velocity": 105}, {"time": 62520, "pitch": 67, "duration": 60, "velocity": 113}, {"time": 62760, "pitch": 64, "duration": 70, "velocity": 122}, {"time": 64080, "pitch": 71, "duration": 70, "velocity": 127}, {"time": 64440, "pitch": 67, "duration": 320, "velocity": 119}, {"time": 64800, "pitch": 64, "duration": 100, "velocity": 113}, {"time": 64920, "pitch": 62, "duration": 100, "velocity": 87}, {"time": 65040, "pitch": 64, "duration": 80, "velocity": 102}, {"time": 66000, "pitch": 59, "duration": 70, "velocity": 122}, {"time": 66240, "pitch": 61, "duration": 120, "velocity": 102}, {"time": 66360, "pitch": 64, "duration": 90, "velocity": 93}, {"time": 66600, "pitch": 64, "duration": 60, "velocity": 122}, {"time": 66720, "pitch": 52, "duration": 230, "velocity": 122}, {"time": 66960, "pitch": 54, "duration": 110, "velocity": 98}, {"time": 67080, "pitch": 55, "duration": 110, "velocity": 89}, {"time": 67200, "pitch": 56, "duration": 110, "velocity": 98}, {"time": 67320, "pitch": 59, "duration": 110, "velocity": 93}, {"time": 67440, "pitch": 61, "duration": 120, "velocity": 93}, {"time": 67560, "pitch": 64, "duration": 350, "velocity": 127}, {"time": 67920, "pitch": 62, "duration": 70, "velocity": 119}, {"time": 68520, "pitch": 62, "duration": 360, "velocity": 127}, {"time": 68880, "pitch": 61, "duration": 80, "velocity": 107}, {"time": 69480, "pitch": 59, "duration": 380, "velocity": 127}, {"time": 69840, "pitch": 61, "duration": 70, "velocity": 122}, {"time": 70560, "pitch": 52, "duration": 220, "velocity": 127}, {"time": 70800, "pitch": 54, "duration": 110, "velocity": 85}, {"time": 70920, "pitch": 55, "duration": 110, "velocity": 110}, {"time": 71040, "pitch": 56, "duration": 100, "velocity": 105}, {"time": 71160, "pitch": 59, "duration": 110, "velocity": 60}, {"time": 71280, "pitch": 61, "duration": 100, "velocity": 95}, {"time": 71400, "pitch": 64, "duration": 340, "velocity": 122}, {"time": 71760, "pitch": 62, "duration": 50, "velocity": 116}, {"time": 72240, "pitch": 62, "duration": 50, "velocity": 127}, {"time": 72480, "pitch": 64, "duration": 80, "velocity": 127}, {"time": 89760, "pitch": 59, "duration": 1070, "velocity": 102}, {"time": 90960, "pitch": 59, "duration": 230, "velocity": 110}, {"time": 91200, "pitch": 61, "duration": 80, "velocity": 78}, {"time": 91440, "pitch": 64, "duration": 160, "velocity": 107}, {"time": 91920, "pitch": 59, "duration": 200, "velocity": 107}, {"time": 92400, "pitch": 58, "duration": 1100, "velocity": 100}, {"time": 93600, "pitch": 59, "duration": 1050, "velocity": 107}, {"time": 94800, "pitch": 59, "duration": 270, "velocity": 113}, {"time": 95040, "pitch": 61, "duration": 80, "velocity": 78}, {"time": 95280, "pitch": 58, "duration": 1960, "velocity": 107}, {"time": 97440, "pitch": 59, "duration": 60, "velocity": 119}, {"time": 97920, "pitch": 71, "duration": 470, "velocity": 119}, {"time": 98400, "pitch": 69, "duration": 240, "velocity": 102}, {"time": 98640, "pitch": 68, "duration": 80, "velocity": 89}, {"time": 98880, "pitch": 69, "duration": 230, "velocity": 105}, {"time": 99120, "pitch": 68, "duration": 80, "velocity": 87}, {"time": 99360, "pitch": 71, "duration": 160, "velocity": 127}, {"time": 102480, "pitch": 59, "duration": 80, "velocity": 119}, {"time": 102720, "pitch": 61, "duration": 110, "velocity": 100}, {"time": 102840, "pitch": 64, "duration": 90, "velocity": 100}, {"time": 103080, "pitch": 64, "duration": 60, "velocity": 119}, {"time": 104160, "pitch": 64, "duration": 60, "velocity": 116}, {"time": 104280, "pitch": 64, "duration": 80, "velocity": 110}, {"time": 104400, "pitch": 62, "duration": 130, "velocity": 102}, {"time": 104520, "pitch": 64, "duration": 80, "velocity": 110}, {"time": 104760, "pitch": 67, "duration": 60, "velocity": 116}, {"time": 105000, "pitch": 64, "duration": 70, "velocity": 127}, {"time": 106320, "pitch": 71, "duration": 80, "velocity": 122}, {"time": 106680, "pitch": 67, "duration": 250, "velocity": 122}, {"time": 107040, "pitch": 64, "duration": 120, "velocity": 119}, {"time": 107160, "pitch": 62, "duration": 140, "velocity": 102}, {"time": 107280, "pitch": 64, "duration": 90, "velocity": 110}, {"time": 108240, "pitch": 71, "duration": 100, "velocity": 122}, {"time": 108600, "pitch": 67, "duration": 270, "velocity": 127}, {"time": 110160, "pitch": 59, "duration": 60, "velocity": 122}, {"time": 110400, "pitch": 61, "duration": 120, "velocity": 102}, {"time": 110520, "pitch": 64, "duration": 60, "velocity": 85}, {"time": 110770, "pitch": 64, "duration": 60, "velocity": 119}, {"time": 111840, "pitch": 64, "duration": 70, "velocity": 116}, {"time": 111960, "pitch": 64, "duration": 100, "velocity": 113}, {"time": 112080, "pitch": 62, "duration": 110, "velocity": 98}, {"time": 112200, "pitch": 64, "duration": 90, "velocity": 105}, {"time": 112440, "pitch": 67, "duration": 60, "velocity": 113}, {"time": 112680, "pitch": 64, "duration": 70, "velocity": 122}, {"time": 114000, "pitch": 71, "duration": 70, "velocity": 127}, {"time": 114360, "pitch": 67, "duration": 320, "velocity": 119}, {"time": 114720, "pitch": 64, "duration": 100, "velocity": 113}, {"time": 114840, "pitch": 62, "duration": 100, "velocity": 87}, {"time": 114960, "pitch": 64, "duration": 80, "velocity": 102}, {"time": 115920, "pitch": 59, "duration": 70, "velocity": 122}, {"time": 116160, "pitch": 61, "duration": 120, "velocity": 102}, {"time": 116280, "pitch": 64, "duration": 90, "velocity": 93}, {"time": 116520, "pitch": 64, "duration": 60, "velocity": 122}, {"time": 116880, "pitch": 71, "duration": 70, "velocity": 119}, {"time": 117120, "pitch": 71, "duration": 70, "velocity": 119}, {"time": 117360, "pitch": 73, "duration": 90, "velocity": 107}, {"time": 117600, "pitch": 74, "duration": 70, "velocity": 102}, {"time": 117840, "pitch": 73, "duration": 100, "velocity": 102}, {"time": 117960, "pitch": 71, "duration": 80, "velocity": 100}, {"time": 118200, "pitch": 69, "duration": 70, "velocity": 107}, {"time": 118440, "pitch": 68, "duration": 350, "velocity": 116}, {"time": 118800, "pitch": 64, "duration": 60, "velocity": 113}, {"time": 119040, "pitch": 62, "duration": 110, "velocity": 113}, {"time": 119160, "pitch": 64, "duration": 90, "velocity": 107}, {"time": 119400, "pitch": 68, "duration": 350, "velocity": 127}, {"time": 119760, "pitch": 64, "duration": 70, "velocity": 107}, {"time": 120000, "pitch": 62, "duration": 110, "velocity": 110}, {"time": 120120, "pitch": 64, "duration": 70, "velocity": 116}, {"time": 120720, "pitch": 71, "duration": 60, "velocity": 119}, {"time": 120960, "pitch": 71, "duration": 80, "velocity": 113}, {"time": 121200, "pitch": 73, "duration": 70, "velocity": 113}, {"time": 121440, "pitch": 74, "duration": 70, "velocity": 110}, {"time": 121680, "pitch": 73, "duration": 110, "velocity": 102}, {"time": 121800, "pitch": 71, "duration": 80, "velocity": 95}, {"time": 122040, "pitch": 69, "duration": 60, "velocity": 110}, {"time": 122400, "pitch": 59, "duration": 110, "velocity": 110}, {"time": 122520, "pitch": 62, "duration": 110, "velocity": 102}, {"time": 122640, "pitch": 64, "duration": 120, "velocity": 87}, {"time": 122760, "pitch": 68, "duration": 230, "velocity": 89}, {"time": 123000, "pitch": 64, "duration": 90, "velocity": 105}, {"time": 123120, "pitch": 62, "duration": 110, "velocity": 105}, {"time": 123240, "pitch": 59, "duration": 110, "velocity": 74}, {"time": 123360, "pitch": 69, "duration": 110, "velocity": 105}, {"time": 123480, "pitch": 67, "duration": 110, "velocity": 93}, {"time": 123600, "pitch": 64, "duration": 110, "velocity": 87}, {"time": 123720, "pitch": 62, "duration": 490, "velocity": 60}, {"time": 124560, "pitch": 71, "duration": 70, "velocity": 116}, {"time": 124800, "pitch": 71, "duration": 80, "velocity": 122}, {"time": 125040, "pitch": 73, "duration": 70, "velocity": 113}, {"time": 125280, "pitch": 74, "duration": 60, "velocity": 105}, {"time": 125520, "pitch": 73, "duration": 90, "velocity": 116}, {"time": 125640, "pitch": 71, "duration": 60, "velocity": 107}, {"time": 125880, "pitch": 69, "duration": 60, "velocity": 116}, {"time": 126120, "pitch": 68, "duration": 380, "velocity": 122}, {"time": 126600, "pitch": 64, "duration": 60, "velocity": 110}, {"time": 126720, "pitch": 62, "duration": 140, "velocity": 105}, {"time": 126840, "pitch": 64, "duration": 70, "velocity": 119}, {"time": 127080, "pitch": 68, "duration": 370, "velocity": 116}, {"time": 127440, "pitch": 64, "duration": 80, "velocity": 107}, {"time": 127680, "pitch": 62, "duration": 130, "velocity": 116}, {"time": 127800, "pitch": 64, "duration": 70, "velocity": 116}, {"time": 128400, "pitch": 71, "duration": 60, "velocity": 122}, {"time": 128640, "pitch": 71, "duration": 80, "velocity": 119}, {"time": 128880, "pitch": 73, "duration": 70, "velocity": 116}, {"time": 129120, "pitch": 74, "duration": 60, "velocity": 110}, {"time": 129360, "pitch": 73, "duration": 110, "velocity": 116}, {"time": 129480, "pitch": 71, "duration": 70, "velocity": 102}, {"time": 129720, "pitch": 74, "duration": 380, "velocity": 102}, {"time": 130080, "pitch": 76, "duration": 60, "velocity": 116}, {"time": 135360, "pitch": 59, "duration": 1070, "velocity": 102}, {"time": 136560, "pitch": 59, "duration": 230, "velocity": 110}, {"time": 136800, "pitch": 61, "duration": 80, "velocity": 78}, {"time": 137040, "pitch": 64, "duration": 160, "velocity": 107}, {"time": 137520, "pitch": 59, "duration": 200, "velocity": 107}, {"time": 138000, "pitch": 58, "duration": 1100, "velocity": 100}, {"time": 139200, "pitch": 59, "duration": 1050, "velocity": 107}, {"time": 140400, "pitch": 59, "duration": 270, "velocity": 113}, {"time": 140640, "pitch": 61, "duration": 80, "velocity": 78}, {"time": 140880, "pitch": 58, "duration": 1960, "velocity": 107}, {"time": 143040, "pitch": 59, "duration": 60, "velocity": 119}, {"time": 143520, "pitch": 71, "duration": 470, "velocity": 119}, {"time": 144000, "pitch": 69, "duration": 240, "velocity": 102}, {"time": 144240, "pitch": 68, "duration": 80, "velocity": 89}, {"time": 144480, "pitch": 69, "duration": 230, "velocity": 105}, {"time": 144720, "pitch": 68, "duration": 80, "velocity": 87}, {"time": 144960, "pitch": 71, "duration": 160, "velocity": 116}, {"time": 150000, "pitch": 59, "duration": 80, "velocity": 119}, {"time": 150240, "pitch": 61, "duration": 110, "velocity": 100}, {"time": 150360, "pitch": 64, "duration": 90, "velocity": 100}, {"time": 150600, "pitch": 64, "duration": 60, "velocity": 119}, {"time": 151680, "pitch": 64, "duration": 60, "velocity": 116}, {"time": 151800, "pitch": 64, "duration": 80, "velocity": 110}, {"time": 151920, "pitch": 62, "duration": 130, "velocity": 102}, {"time": 152040, "pitch": 64, "duration": 80, "velocity": 110}, {"time": 152280, "pitch": 67, "duration": 60, "velocity": 116}, {"time": 152520, "pitch": 64, "duration": 70, "velocity": 127}, {"time": 153840, "pitch": 71, "duration": 80, "velocity": 122}, {"time": 154200, "pitch": 67, "duration": 250, "velocity": 122}, {"time": 154560, "pitch": 64, "duration": 120, "velocity": 119}, {"time": 154680, "pitch": 62, "duration": 140, "velocity": 102}, {"time": 154800, "pitch": 64, "duration": 90, "velocity": 110}, {"time": 155760, "pitch": 71, "duration": 100, "velocity": 122}, {"time": 156120, "pitch": 67, "duration": 270, "velocity": 127}, {"time": 157680, "pitch": 59, "duration": 80, "velocity": 119}, {"time": 157920, "pitch": 61, "duration": 110, "velocity": 100}, {"time": 158040, "pitch": 64, "duration": 90, "velocity": 100}, {"time": 158280, "pitch": 64, "duration": 60, "velocity": 119}, {"time": 159360, "pitch": 64, "duration": 60, "velocity": 116}, {"time": 159480, "pitch": 64, "duration": 80, "velocity": 110}, {"time": 159600, "pitch": 62, "duration": 130, "velocity": 102}, {"time": 159720, "pitch": 64, "duration": 80, "velocity": 110}, {"time": 159960, "pitch": 67, "duration": 60, "velocity": 116}, {"time": 160200, "pitch": 64, "duration": 70, "velocity": 127}, {"time": 161520, "pitch": 71, "duration": 80, "velocity": 122}, {"time": 161880, "pitch": 67, "duration": 250, "velocity": 122}, {"time": 162240, "pitch": 64, "duration": 120, "velocity": 119}, {"time": 162360, "pitch": 62, "duration": 140, "velocity": 102}, {"time": 162480, "pitch": 64, "duration": 90, "velocity": 110}, {"time": 163440, "pitch": 71, "duration": 100, "velocity": 122}, {"time": 163800, "pitch": 67, "duration": 270, "velocity": 127}, {"time": 165360, "pitch": 59, "duration": 80, "velocity": 119}, {"time": 165600, "pitch": 61, "duration": 110, "velocity": 100}, {"time": 165720, "pitch": 64, "duration": 90, "velocity": 100}, {"time": 165960, "pitch": 64, "duration": 60, "velocity": 119}, {"time": 167040, "pitch": 64, "duration": 60, "velocity": 116}, {"time": 167160, "pitch": 64, "duration": 80, "velocity": 110}, {"time": 167280, "pitch": 62, "duration": 130, "velocity": 102}, {"time": 167400, "pitch": 64, "duration": 80, "velocity": 110}, {"time": 167640, "pitch": 67, "duration": 60, "velocity": 116}, {"time": 167880, "pitch": 64, "duration": 70, "velocity": 127}, {"time": 169200, "pitch": 71, "duration": 80, "velocity": 122}, {"time": 169560, "pitch": 67, "duration": 250, "velocity": 122}, {"time": 169920, "pitch": 64, "duration": 120, "velocity": 119}, {"time": 170040, "pitch": 62, "duration": 140, "velocity": 102}, {"time": 170160, "pitch": 64, "duration": 90, "velocity": 110}, {"time": 171120, "pitch": 71, "duration": 100, "velocity": 122}, {"time": 171480, "pitch": 67, "duration": 270, "velocity": 127}, {"time": 173040, "pitch": 59, "duration": 60, "velocity": 122}, {"time": 173280, "pitch": 61, "duration": 120, "velocity": 102}, {"time": 173400, "pitch": 64, "duration": 60, "velocity": 85}, {"time": 173650, "pitch": 64, "duration": 60, "velocity": 119}, {"time": 174720, "pitch": 64, "duration": 70, "velocity": 116}, {"time": 174840, "pitch": 64, "duration": 100, "velocity": 113}, {"time": 174960, "pitch": 62, "duration": 110, "velocity": 98}, {"time": 175080, "pitch": 64, "duration": 90, "velocity": 105}, {"time": 175320, "pitch": 67, "duration": 60, "velocity": 113}, {"time": 175560, "pitch": 64, "duration": 70, "velocity": 122}, {"time": 176880, "pitch": 71, "duration": 70, "velocity": 127}, {"time": 177240, "pitch": 67, "duration": 320, "velocity": 119}, {"time": 177600, "pitch": 64, "duration": 100, "velocity": 113}, {"time": 177720, "pitch": 62, "duration": 100, "velocity": 87}, {"time": 177840, "pitch": 64, "duration": 80, "velocity": 102}, {"time": 178800, "pitch": 59, "duration": 70, "velocity": 122}, {"time": 179040, "pitch": 61, "duration": 120, "velocity": 102}, {"time": 179160, "pitch": 64, "duration": 90, "velocity": 93}, {"time": 179400, "pitch": 64, "duration": 60, "velocity": 122}, {"time": 16440, "pitch": 41, "duration": 360, "velocity": 127}, {"time": 16800, "pitch": 40, "duration": 230, "velocity": 122}, {"time": 17040, "pitch": 42, "duration": 110, "velocity": 98}, {"time": 17160, "pitch": 43, "duration": 110, "velocity": 89}, {"time": 17280, "pitch": 44, "duration": 110, "velocity": 98}, {"time": 17400, "pitch": 47, "duration": 110, "velocity": 93}, {"time": 17520, "pitch": 49, "duration": 120, "velocity": 93}, {"time": 17640, "pitch": 52, "duration": 350, "velocity": 127}, {"time": 18000, "pitch": 50, "duration": 70, "velocity": 119}, {"time": 18600, "pitch": 50, "duration": 360, "velocity": 127}, {"time": 18960, "pitch": 49, "duration": 80, "velocity": 107}, {"time": 19560, "pitch": 47, "duration": 380, "velocity": 127}, {"time": 19920, "pitch": 49, "duration": 70, "velocity": 122}, {"time": 20640, "pitch": 40, "duration": 230, "velocity": 122}, {"time": 20880, "pitch": 42, "duration": 110, "velocity": 98}, {"time": 21000, "pitch": 43, "duration": 110, "velocity": 89}, {"time": 21120, "pitch": 44, "duration": 110, "velocity": 98}, {"time": 21240, "pitch": 47, "duration": 110, "velocity": 93}, {"time": 21360, "pitch": 49, "duration": 120, "velocity": 93}, {"time": 21480, "pitch": 52, "duration": 350, "velocity": 127}, {"time": 21840, "pitch": 50, "duration": 70, "velocity": 119}, {"time": 22440, "pitch": 50, "duration": 360, "velocity": 127}, {"time": 22800, "pitch": 49, "duration": 80, "velocity": 122}, {"time": 23520, "pitch": 35, "duration": 100, "velocity": 122}, {"time": 23640, "pitch": 43, "duration": 100, "velocity": 107}, {"time": 23880, "pitch": 43, "duration": 70, "velocity": 116}, {"time": 24120, "pitch": 43, "duration": 70, "velocity": 127}, {"time": 39840, "pitch": 59, "duration": 1070, "velocity": 102}, {"time": 41040, "pitch": 59, "duration": 230, "velocity": 110}, {"time": 41280, "pitch": 61, "duration": 80, "velocity": 78}, {"time": 41520, "pitch": 64, "duration": 160, "velocity": 107}, {"time": 42000, "pitch": 59, "duration": 200, "velocity": 107}, {"time": 42480, "pitch": 58, "duration": 1100, "velocity": 100}, {"time": 43680, "pitch": 59, "duration": 1050, "velocity": 107}, {"time": 44880, "pitch": 59, "duration": 270, "velocity": 113}, {"time": 45120, "pitch": 61, "duration": 80, "velocity": 78}, {"time": 45360, "pitch": 58, "duration": 1960, "velocity": 107}, {"time": 47520, "pitch": 59, "duration": 60, "velocity": 119}, {"time": 48000, "pitch": 71, "duration": 470, "velocity": 119}, {"time": 48480, "pitch": 69, "duration": 240, "velocity": 102}, {"time": 48720, "pitch": 68, "duration": 80, "velocity": 89}, {"time": 48960, "pitch": 69, "duration": 230, "velocity": 105}, {"time": 49200, "pitch": 68, "duration": 80, "velocity": 87}, {"time": 49440, "pitch": 71, "duration": 150, "velocity": 127}, {"time": 52560, "pitch": 59, "duration": 80, "velocity": 119}, {"time": 52800, "pitch": 61, "duration": 110, "velocity": 100}, {"time": 52920, "pitch": 64, "duration": 90, "velocity": 100}, {"time": 53160, "pitch": 64, "duration": 60, "velocity": 119}, {"time": 54240, "pitch": 64, "duration": 60, "velocity": 116}, {"time": 54360, "pitch": 64, "duration": 80, "velocity": 110}, {"time": 54480, "pitch": 62, "duration": 130, "velocity": 102}, {"time": 54600, "pitch": 64, "duration": 80, "velocity": 110}, {"time": 54840, "pitch": 67, "duration": 60, "velocity": 116}, {"time": 55080, "pitch": 64, "duration": 70, "velocity": 127}, {"time": 56400, "pitch": 71, "duration": 80, "velocity": 122}, {"time": 56760, "pitch": 67, "duration": 250, "velocity": 122}, {"time": 57120, "pitch": 64, "duration": 120, "velocity": 119}, {"time": 57240, "pitch": 62, "duration": 140, "velocity": 102}, {"time": 57360, "pitch": 64, "duration": 90, "velocity": 110}, {"time": 58320, "pitch": 71, "duration": 100, "velocity": 122}, {"time": 58680, "pitch": 67, "duration": 270, "velocity": 127}, {"time": 60240, "pitch": 59, "duration": 60, "velocity": 122}, {"time": 60480, "pitch": 61, "duration": 120, "velocity": 102}, {"time": 60600, "pitch": 64, "duration": 60, "velocity": 85}, {"time": 60850, "pitch": 64, "duration": 60, "velocity": 119}, {"time": 61920, "pitch": 64, "duration": 70, "velocity": 116}, {"time": 62040, "pitch": 64, "duration": 100, "velocity": 113}, {"time": 62160, "pitch": 62, "duration": 110, "velocity": 98}, {"time": 62280, "pitch": 64, "duration": 90, "velocity": 105}, {"time": 62520, "pitch": 67, "duration": 60, "velocity": 113}, {"time": 62760, "pitch": 64, "duration": 70, "velocity": 122}, {"time": 64080, "pitch": 71, "duration": 70, "velocity": 127}, {"time": 64440, "pitch": 67, "duration": 320, "velocity": 119}, {"time": 64800, "pitch": 64, "duration": 100, "velocity": 113}, {"time": 64920, "pitch": 62, "duration": 100, "velocity": 87}, {"time": 65040, "pitch": 64, "duration": 80, "velocity": 102}, {"time": 66000, "pitch": 59, "duration": 70, "velocity": 122}, {"time": 66240, "pitch": 61, "duration": 120, "velocity": 102}, {"time": 66360, "pitch": 64, "duration": 90, "velocity": 93}, {"time": 66600, "pitch": 64, "duration": 60, "velocity": 122}, {"time": 66720, "pitch": 40, "duration": 230, "velocity": 122}, {"time": 66960, "pitch": 42, "duration": 110, "velocity": 98}, {"time": 67080, "pitch": 43, "duration": 110, "velocity": 89}, {"time": 67200, "pitch": 44, "duration": 110, "velocity": 98}, {"time": 67320, "pitch": 47, "duration": 110, "velocity": 93}, {"time": 67440, "pitch": 49, "duration": 120, "velocity": 93}, {"time": 67560, "pitch": 52, "duration": 350, "velocity": 127}, {"time": 67920, "pitch": 50, "duration": 70, "velocity": 119}, {"time": 68520, "pitch": 50, "duration": 360, "velocity": 127}, {"time": 68880, "pitch": 49, "duration": 80, "velocity": 107}, {"time": 69480, "pitch": 47, "duration": 380, "velocity": 127}, {"time": 69840, "pitch": 49, "duration": 70, "velocity": 122}, {"time": 70560, "pitch": 40, "duration": 220, "velocity": 127}, {"time": 70800, "pitch": 42, "duration": 110, "velocity": 85}, {"time": 70920, "pitch": 43, "duration": 110, "velocity": 110}, {"time": 71040, "pitch": 44, "duration": 100, "velocity": 105}, {"time": 71160, "pitch": 47, "duration": 110, "velocity": 60}, {"time": 71280, "pitch": 49, "duration": 100, "velocity": 95}, {"time": 71400, "pitch": 52, "duration": 340, "velocity": 122}, {"time": 71760, "pitch": 50, "duration": 50, "velocity": 116}, {"time": 72240, "pitch": 50, "duration": 50, "velocity": 127}, {"time": 72480, "pitch": 52, "duration": 80, "velocity": 127}, {"time": 89760, "pitch": 59, "duration": 1070, "velocity": 102}, {"time": 90960, "pitch": 59, "duration": 230, "velocity": 110}, {"time": 91200, "pitch": 61, "duration": 80, "velocity": 78}, {"time": 91440, "pitch": 64, "duration": 160, "velocity": 107}, {"time": 91920, "pitch": 59, "duration": 200, "velocity": 107}, {"time": 92400, "pitch": 58, "duration": 1100, "velocity": 100}, {"time": 93600, "pitch": 59, "duration": 1050, "velocity": 107}, {"time": 94800, "pitch": 59, "duration": 270, "velocity": 113}, {"time": 95040, "pitch": 61, "duration": 80, "velocity": 78}, {"time": 95280, "pitch": 58, "duration": 1960, "velocity": 107}, {"time": 97440, "pitch": 59, "duration": 60, "velocity": 119}, {"time": 97920, "pitch": 71, "duration": 470, "velocity": 119}, {"time": 98400, "pitch": 69, "duration": 240, "velocity": 102}, {"time": 98640, "pitch": 68, "duration": 80, "velocity": 89}, {"time": 98880, "pitch": 69, "duration": 230, "velocity": 105}, {"time": 99120, "pitch": 68, "duration": 80, "velocity": 87}, {"time": 99360, "pitch": 71, "duration": 160, "velocity": 127}, {"time": 102480, "pitch": 59, "duration": 80, "velocity": 119}, {"time": 102720, "pitch": 61, "duration": 110, "velocity": 100}, {"time": 102840, "pitch": 64, "duration": 90, "velocity": 100}, {"time": 103080, "pitch": 64, "duration": 60, "velocity": 119}, {"time": 104160, "pitch": 64, "duration": 60, "velocity": 116}, {"time": 104280, "pitch": 64, "duration": 80, "velocity": 110}, {"time": 104400, "pitch": 62, "duration": 130, "velocity": 102}, {"time": 104520, "pitch": 64, "duration": 80, "velocity": 110}, {"time": 104760, "pitch": 67, "duration": 60, "velocity": 116}, {"time": 105000, "pitch": 64, "duration": 70, "velocity": 127}, {"time": 106320, "pitch": 71, "duration": 80, "velocity": 122}, {"time": 106680, "pitch": 67, "duration": 250, "velocity": 122}, {"time": 107040, "pitch": 64, "duration": 120, "velocity": 119}, {"time": 107160, "pitch": 62, "duration": 140, "velocity": 102}, {"time": 107280, "pitch": 64, "duration": 90, "velocity": 110}, {"time": 108240, "pitch": 71, "duration": 100, "velocity": 122}, {"time": 108600, "pitch": 67, "duration": 270, "velocity": 127}, {"time": 110160, "pitch": 59, "duration": 60, "velocity": 122}, {"time": 110400, "pitch": 61, "duration": 120, "velocity": 102}, {"time": 110520, "pitch": 64, "duration": 60, "velocity": 85}, {"time": 110770, "pitch": 64, "duration": 60, "velocity": 119}, {"time": 111840, "pitch": 64, "duration": 70, "velocity": 116}, {"time": 111960, "pitch": 64, "duration": 100, "velocity": 113}, {"time": 112080, "pitch": 62, "duration": 110, "velocity": 98}, {"time": 112200, "pitch": 64, "duration": 90, "velocity": 105}, {"time": 112440, "pitch": 67, "duration": 60, "velocity": 113}, {"time": 112680, "pitch": 64, "duration": 70, "velocity": 122}, {"time": 114000, "pitch": 71, "duration": 70, "velocity": 127}, {"time": 114360, "pitch": 67, "duration": 320, "velocity": 119}, {"time": 114720, "pitch": 64, "duration": 100, "velocity": 113}, {"time": 114840, "pitch": 62, "duration": 100, "velocity": 87}, {"time": 114960, "pitch": 64, "duration": 80, "velocity": 102}, {"time": 115920, "pitch": 59, "duration": 70, "velocity": 122}, {"time": 116160, "pitch": 61, "duration": 120, "velocity": 102}, {"time": 116280, "pitch": 64, "duration": 90, "velocity": 93}, {"time": 116400, "pitch": 50, "duration": 240, "velocity": 105}, {"time": 116520, "pitch": 64, "duration": 60, "velocity": 122}, {"time": 116640, "pitch": 40, "duration": 80, "velocity": 95}, {"time": 116880, "pitch": 37, "duration": 60, "velocity": 107}, {"time": 117120, "pitch": 38, "duration": 60, "velocity": 102}, {"time": 117360, "pitch": 37, "duration": 70, "velocity": 107}, {"time": 117600, "pitch": 38, "duration": 70, "velocity": 100}, {"time": 117840, "pitch": 37, "duration": 70, "velocity": 98}, {"time": 117960, "pitch": 38, "duration": 80, "velocity": 93}, {"time": 118200, "pitch": 37, "duration": 60, "velocity": 110}, {"time": 118440, "pitch": 38, "duration": 350, "velocity": 113}, {"time": 118800, "pitch": 37, "duration": 60, "velocity": 100}, {"time": 119040, "pitch": 38, "duration": 70, "velocity": 110}, {"time": 119280, "pitch": 37, "duration": 70, "velocity": 105}, {"time": 119520, "pitch": 38, "duration": 70, "velocity": 102}, {"time": 119760, "pitch": 37, "duration": 110, "velocity": 95}, {"time": 119880, "pitch": 38, "duration": 70, "velocity": 105}, {"time": 120240, "pitch": 38, "duration": 230, "velocity": 119}, {"time": 120480, "pitch": 40, "duration": 80, "velocity": 95}, {"time": 120720, "pitch": 37, "duration": 60, "velocity": 107}, {"time": 120960, "pitch": 38, "duration": 60, "velocity": 102}, {"time": 121200, "pitch": 37, "duration": 70, "velocity": 107}, {"time": 121440, "pitch": 38, "duration": 70, "velocity": 100}, {"time": 121680, "pitch": 37, "duration": 70, "velocity": 98}, {"time": 121800, "pitch": 38, "duration": 80, "velocity": 93}, {"time": 122040, "pitch": 37, "duration": 60, "velocity": 110}, {"time": 122280, "pitch": 38, "duration": 350, "velocity": 113}, {"time": 122640, "pitch": 37, "duration": 60, "velocity": 100}, {"time": 122880, "pitch": 38, "duration": 70, "velocity": 110}, {"time": 123120, "pitch": 37, "duration": 70, "velocity": 105}, {"time": 123360, "pitch": 38, "duration": 70, "velocity": 102}, {"time": 123600, "pitch": 37, "duration": 110, "velocity": 95}, {"time": 123720, "pitch": 38, "duration": 70, "velocity": 105}, {"time": 124080, "pitch": 38, "duration": 230, "velocity": 119}, {"time": 124320, "pitch": 40, "duration": 80, "velocity": 95}, {"time": 124560, "pitch": 37, "duration": 60, "velocity": 107}, {"time": 124800, "pitch": 38, "duration": 60, "velocity": 102}, {"time": 125040, "pitch": 37, "duration": 70, "velocity": 107}, {"time": 125280, "pitch": 38, "duration": 70, "velocity": 100}, {"time": 125520, "pitch": 37, "duration": 70, "velocity": 98}, {"time": 125640, "pitch": 38, "duration": 80, "velocity": 93}, {"time": 125880, "pitch": 37, "duration": 60, "velocity": 110}, {"time": 126120, "pitch": 38, "duration": 350, "velocity": 113}, {"time": 126480, "pitch": 37, "duration": 60, "velocity": 100}, {"time": 126720, "pitch": 38, "duration": 70, "velocity": 110}, {"time": 126960, "pitch": 37, "duration": 70, "velocity": 105}, {"time": 127200, "pitch": 38, "duration": 70, "velocity": 102}, {"time": 127440, "pitch": 37, "duration": 110, "velocity": 95}, {"time": 127560, "pitch": 38, "duration": 70, "velocity": 105}, {"time": 127920, "pitch": 38, "duration": 230, "velocity": 119}, {"time": 128160, "pitch": 40, "duration": 80, "velocity": 95}, {"time": 128400, "pitch": 37, "duration": 60, "velocity": 107}, {"time": 128640, "pitch": 38, "duration": 60, "velocity": 102}, {"time": 128880, "pitch": 37, "duration": 70, "velocity": 107}, {"time": 129120, "pitch": 38, "duration": 70, "velocity": 100}, {"time": 129360, "pitch": 37, "duration": 70, "velocity": 98}, {"time": 129480, "pitch": 38, "duration": 80, "velocity": 93}, {"time": 129720, "pitch": 37, "duration": 60, "velocity": 110}, {"time": 129840, "pitch": 38, "duration": 240, "velocity": 113}, {"time": 130080, "pitch": 40, "duration": 60, "velocity": 100}, {"time": 135360, "pitch": 59, "duration": 1070, "velocity": 102}, {"time": 136560, "pitch": 59, "duration": 230, "velocity": 110}, {"time": 136800, "pitch": 61, "duration": 80, "velocity": 78}, {"time": 137040, "pitch": 64, "duration": 160, "velocity": 107}, {"time": 137520, "pitch": 59, "duration": 200, "velocity": 107}, {"time": 138000, "pitch": 58, "duration": 1100, "velocity": 100}, {"time": 139200, "pitch": 59, "duration": 1050, "velocity": 107}, {"time": 140400, "pitch": 59, "duration": 270, "velocity": 113}, {"time": 140640, "pitch": 61, "duration": 80, "velocity": 78}, {"time": 140880, "pitch": 58, "duration": 1960, "velocity": 107}, {"time": 143040, "pitch": 59, "duration": 60, "velocity": 119}, {"time": 143520, "pitch": 71, "duration": 470, "velocity": 119}, {"time": 144000, "pitch": 69, "duration": 240, "velocity": 102}, {"time": 144240, "pitch": 68, "duration": 80, "velocity": 89}, {"time": 144480, "pitch": 69, "duration": 230, "velocity": 105}, {"time": 144720, "pitch": 68, "duration": 80, "velocity": 87}, {"time": 144960, "pitch": 71, "duration": 160, "velocity": 116}, {"time": 150000, "pitch": 59, "duration": 80, "velocity": 119}, {"time": 150240, "pitch": 61, "duration": 110, "velocity": 100}, {"time": 150360, "pitch": 64, "duration": 90, "velocity": 100}, {"time": 150600, "pitch": 64, "duration": 60, "velocity": 119}, {"time": 151680, "pitch": 64, "duration": 60, "velocity": 116}, {"time": 151800, "pitch": 64, "duration": 80, "velocity": 110}, {"time": 151920, "pitch": 62, "duration": 130, "velocity": 102}, {"time": 152040, "pitch": 64, "duration": 80, "velocity": 110}, {"time": 152280, "pitch": 67, "duration": 60, "velocity": 116}, {"time": 152520, "pitch": 64, "duration": 70, "velocity": 127}, {"time": 153840, "pitch": 71, "duration": 80, "velocity": 122}, {"time": 154200, "pitch": 67, "duration": 250, "velocity": 122}, {"time": 154560, "pitch": 64, "duration": 120, "velocity": 119}, {"time": 154680, "pitch": 62, "duration": 140, "velocity": 102}, {"time": 154800, "pitch": 64, "duration": 90, "velocity": 110}, {"time": 155760, "pitch": 71, "duration": 100, "velocity": 122}, {"time": 156120, "pitch": 67, "duration": 270, "velocity": 127}, {"time": 157680, "pitch": 59, "duration": 80, "velocity": 119}, {"time": 157920, "pitch": 61, "duration": 110, "velocity": 100}, {"time": 158040, "pitch": 64, "duration": 90, "velocity": 100}, {"time": 158280, "pitch": 64, "duration": 60, "velocity": 119}, {"time": 159360, "pitch": 64, "duration": 60, "velocity": 116}, {"time": 159480, "pitch": 64, "duration": 80, "velocity": 110}, {"time": 159600, "pitch": 62, "duration": 130, "velocity": 102}, {"time": 159720, "pitch": 64, "duration": 80, "velocity": 110}, {"time": 159960, "pitch": 67, "duration": 60, "velocity": 116}, {"time": 160200, "pitch": 64, "duration": 70, "velocity": 127}, {"time": 161520, "pitch": 71, "duration": 80, "velocity": 122}, {"time": 161880, "pitch": 67, "duration": 250, "velocity": 122}, {"time": 162240, "pitch": 64, "duration": 120, "velocity": 119}, {"time": 162360, "pitch": 62, "duration": 140, "velocity": 102}, {"time": 162480, "pitch": 64, "duration": 90, "velocity": 110}, {"time": 163440, "pitch": 71, "duration": 100, "velocity": 122}, {"time": 163800, "pitch": 67, "duration": 270, "velocity": 127}, {"time": 165360, "pitch": 59, "duration": 80, "velocity": 119}, {"time": 165600, "pitch": 61, "duration": 110, "velocity": 100}, {"time": 165720, "pitch": 64, "duration": 90, "velocity": 100}, {"time": 165960, "pitch": 64, "duration": 60, "velocity": 119}, {"time": 167040, "pitch": 64, "duration": 60, "velocity": 116}, {"time": 167160, "pitch": 64, "duration": 80, "velocity": 110}, {"time": 167280, "pitch": 62, "duration": 130, "velocity": 102}, {"time": 167400, "pitch": 64, "duration": 80, "velocity": 110}, {"time": 167640, "pitch": 67, "duration": 60, "velocity": 116}, {"time": 167880, "pitch": 64, "duration": 70, "velocity": 127}, {"time": 169200, "pitch": 71, "duration": 80, "velocity": 122}, {"time": 169560, "pitch": 67, "duration": 250, "velocity": 122}, {"time": 169920, "pitch": 64, "duration": 120, "velocity": 119}, {"time": 170040, "pitch": 62, "duration": 140, "velocity": 102}, {"time": 170160, "pitch": 64, "duration": 90, "velocity": 110}, {"time": 171120, "pitch": 71, "duration": 100, "velocity": 122}, {"time": 171480, "pitch": 67, "duration": 270, "velocity": 127}, {"time": 173040, "pitch": 59, "duration": 60, "velocity": 122}, {"time": 173280, "pitch": 61, "duration": 120, "velocity": 102}, {"time": 173400, "pitch": 64, "duration": 60, "velocity": 85}, {"time": 173650, "pitch": 64, "duration": 60, "velocity": 119}, {"time": 174720, "pitch": 64, "duration": 70, "velocity": 116}, {"time": 174840, "pitch": 64, "duration": 100, "velocity": 113}, {"time": 174960, "pitch": 62, "duration": 110, "velocity": 98}, {"time": 175080, "pitch": 64, "duration": 90, "velocity": 105}, {"time": 175320, "pitch": 67, "duration": 60, "velocity": 113}, {"time": 175560, "pitch": 64, "duration": 70, "velocity": 122}, {"time": 176880, "pitch": 71, "duration": 70, "velocity": 127}, {"time": 177240, "pitch": 67, "duration": 320, "velocity": 119}, {"time": 177600, "pitch": 64, "duration": 100, "velocity": 113}, {"time": 177720, "pitch": 62, "duration": 100, "velocity": 87}, {"time": 177840, "pitch": 64, "duration": 80, "velocity": 102}, {"time": 178800, "pitch": 59, "duration": 70, "velocity": 122}, {"time": 179040, "pitch": 61, "duration": 120, "velocity": 102}, {"time": 179160, "pitch": 64, "duration": 90, "velocity": 93}, {"time": 179400, "pitch": 64, "duration": 60, "velocity": 122}, {"time": 480, "pitch": 36, "duration": 10, "velocity": 120}, {"time": 480, "pitch": 44, "duration": 20, "velocity": 104}, {"time": 600, "pitch": 40, "duration": 10, "velocity": 110}, {"time": 840, "pitch": 36, "duration": 10, "velocity": 120}, {"time": 960, "pitch": 40, "duration": 10, "velocity": 106}, {"time": 960, "pitch": 44, "duration": 20, "velocity": 95}, {"time": 1200, "pitch": 36, "duration": 10, "velocity": 120}, {"time": 1200, "pitch": 46, "duration": 20, "velocity": 117}, {"time": 1440, "pitch": 36, "duration": 10, "velocity": 110}, {"time": 1440, "pitch": 42, "duration": 20, "velocity": 116}, {"time": 1570, "pitch": 42, "duration": 10, "velocity": 44}, {"time": 1680, "pitch": 42, "duration": 10, "velocity": 69}, {"time": 1810, "pitch": 42, "duration": 10, "velocity": 47}, {"time": 1920, "pitch": 40, "duration": 10, "velocity": 108}, {"time": 1920, "pitch": 42, "duration": 20, "velocity": 103}, {"time": 2040, "pitch": 42, "duration": 10, "velocity": 37}, {"time": 2160, "pitch": 36, "duration": 10, "velocity": 83}, {"time": 2160, "pitch": 42, "duration": 20, "velocity": 59}, {"time": 2280, "pitch": 42, "duration": 10, "velocity": 93}, {"time": 2390, "pitch": 42, "duration": 10, "velocity": 103}, {"time": 2400, "pitch": 36, "duration": 10, "velocity": 110}, {"time": 2520, "pitch": 42, "duration": 10, "velocity": 44}, {"time": 2640, "pitch": 36, "duration": 10, "velocity": 83}, {"time": 2650, "pitch": 42, "duration": 10, "velocity": 61}, {"time": 2770, "pitch": 42, "duration": 10, "velocity": 64}, {"time": 2880, "pitch": 40, "duration": 10, "velocity": 108}, {"time": 2880, "pitch": 42, "duration": 20, "velocity": 96}, {"time": 3000, "pitch": 42, "duration": 10, "velocity": 46}, {"time": 3120, "pitch": 36, "duration": 10, "velocity": 83}, {"time": 3120, "pitch": 42, "duration": 20, "velocity": 62}, {"time": 3250, "pitch": 42, "duration": 10, "velocity": 67}, {"time": 3360, "pitch": 36, "duration": 10, "velocity": 110}, {"time": 3360, "pitch": 42, "duration": 20, "velocity": 114}, {"time": 3490, "pitch": 42, "duration": 10, "velocity": 38}, {"time": 3600, "pitch": 42, "duration": 10, "velocity": 55}, {"time": 3720, "pitch": 42, "duration": 10, "velocity": 54}, {"time": 3830, "pitch": 42, "duration": 10, "velocity": 105}, {"time": 3840, "pitch": 40, "duration": 10, "velocity": 108}, {"time": 3960, "pitch": 42, "duration": 10, "velocity": 37}, {"time": 4080, "pitch": 36, "duration": 10, "velocity": 83}, {"time": 4080, "pitch": 42, "duration": 20, "velocity": 67}, {"time": 4200, "pitch": 42, "duration": 10, "velocity": 90}, {"time": 4320, "pitch": 36, "duration": 10, "velocity": 110}, {"time": 4320, "pitch": 42, "duration": 20, "velocity": 94}, {"time": 4440, "pitch": 42, "duration": 10, "velocity": 43}, {"time": 4560, "pitch": 36, "duration": 10, "velocity": 83}, {"time": 4560, "pitch": 42, "duration": 20, "velocity": 66}, {"time": 4680, "pitch": 42, "duration": 10, "velocity": 63}, {"time": 4790, "pitch": 42, "duration": 10, "velocity": 116}, {"time": 4800, "pitch": 40, "duration": 10, "velocity": 108}, {"time": 4930, "pitch": 42, "duration": 10, "velocity": 40}, {"time": 5040, "pitch": 36, "duration": 10, "velocity": 83}, {"time": 5040, "pitch": 42, "duration": 20, "velocity": 58}, {"time": 5170, "pitch": 42, "duration": 10, "velocity": 52}, {"time": 5280, "pitch": 36, "duration": 10, "velocity": 110}, {"time": 5280, "pitch": 42, "duration": 20, "velocity": 116}, {"time": 5410, "pitch": 42, "duration": 10, "velocity": 44}, {"time": 5520, "pitch": 42, "duration": 10, "velocity": 69}, {"time": 5650, "pitch": 42, "duration": 10, "velocity": 47}, {"time": 5760, "pitch": 40, "duration": 10, "velocity": 108}, {"time": 5760, "pitch": 42, "duration": 20, "velocity": 103}, {"time": 5880, "pitch": 42, "duration": 10, "velocity": 37}, {"time": 6000, "pitch": 42, "duration": 10, "velocity": 59}, {"time": 6120, "pitch": 36, "duration": 10, "velocity": 83}, {"time": 6120, "pitch": 42, "duration": 20, "velocity": 93}, {"time": 6230, "pitch": 42, "duration": 10, "velocity": 103}, {"time": 6240, "pitch": 36, "duration": 10, "velocity": 110}, {"time": 6360, "pitch": 42, "duration": 10, "velocity": 44}, {"time": 6490, "pitch": 42, "duration": 10, "velocity": 61}, {"time": 6610, "pitch": 42, "duration": 10, "velocity": 64}, {"time": 6720, "pitch": 40, "duration": 10, "velocity": 108}, {"time": 6720, "pitch": 42, "duration": 20, "velocity": 96}, {"time": 6840, "pitch": 42, "duration": 10, "velocity": 46}, {"time": 6960, "pitch": 36, "duration": 10, "velocity": 83}, {"time": 6960, "pitch": 42, "duration": 20, "velocity": 62}, {"time": 7090, "pitch": 42, "duration": 10, "velocity": 67}, {"time": 7200, "pitch": 36, "duration": 10, "velocity": 110}, {"time": 7200, "pitch": 42, "duration": 20, "velocity": 114}, {"time": 7330, "pitch": 42, "duration": 10, "velocity": 38}, {"time": 7440, "pitch": 42, "duration": 10, "velocity": 55}, {"time": 7560, "pitch": 42, "duration": 10, "velocity": 54}, {"time": 7670, "pitch": 42, "duration": 10, "velocity": 105}, {"time": 7680, "pitch": 40, "duration": 10, "velocity": 108}, {"time": 7800, "pitch": 42, "duration": 10, "velocity": 37}, {"time": 7920, "pitch": 42, "duration": 10, "velocity": 67}, {"time": 8040, "pitch": 36, "duration": 10, "velocity": 83}, {"time": 8040, "pitch": 42, "duration": 20, "velocity": 90}, {"time": 8160, "pitch": 36, "duration": 10, "velocity": 110}, {"time": 8160, "pitch": 42, "duration": 20, "velocity": 94}, {"time": 8280, "pitch": 42, "duration": 10, "velocity": 43}, {"time": 8400, "pitch": 42, "duration": 10, "velocity": 66}, {"time": 8520, "pitch": 42, "duration": 10, "velocity": 63}, {"time": 8630, "pitch": 42, "duration": 10, "velocity": 116}, {"time": 8640, "pitch": 40, "duration": 10, "velocity": 108}, {"time": 8770, "pitch": 42, "duration": 10, "velocity": 40}, {"time": 8880, "pitch": 36, "duration": 10, "velocity": 83}, {"time": 8880, "pitch": 42, "duration": 20, "velocity": 58}, {"time": 9010, "pitch": 42, "duration": 10, "velocity": 52}, {"time": 9120, "pitch": 36, "duration": 10, "velocity": 110}, {"time": 9120, "pitch": 42, "duration": 20, "velocity": 116}, {"time": 9250, "pitch": 42, "duration": 10, "velocity": 44}, {"time": 9360, "pitch": 42, "duration": 10, "velocity": 69}, {"time": 9490, "pitch": 42, "duration": 10, "velocity": 47}, {"time": 9600, "pitch": 40, "duration": 10, "velocity": 108}, {"time": 9600, "pitch": 42, "duration": 20, "velocity": 103}, {"time": 9720, "pitch": 42, "duration": 10, "velocity": 37}, {"time": 9840, "pitch": 42, "duration": 10, "velocity": 59}, {"time": 9960, "pitch": 36, "duration": 10, "velocity": 83}, {"time": 9960, "pitch": 42, "duration": 20, "velocity": 93}, {"time": 10070, "pitch": 42, "duration": 10, "velocity": 103}, {"time": 10080, "pitch": 36, "duration": 10, "velocity": 110}, {"time": 10200, "pitch": 42, "duration": 10, "velocity": 44}, {"time": 10330, "pitch": 42, "duration": 10, "velocity": 61}, {"time": 10450, "pitch": 42, "duration": 10, "velocity": 64}, {"time": 10560, "pitch": 40, "duration": 10, "velocity": 108}, {"time": 10560, "pitch": 42, "duration": 20, "velocity": 96}, {"time": 10680, "pitch": 42, "duration": 10, "velocity": 46}, {"time": 10800, "pitch": 36, "duration": 10, "velocity": 83}, {"time": 10800, "pitch": 42, "duration": 20, "velocity": 62}, {"time": 10930, "pitch": 42, "duration": 10, "velocity": 67}, {"time": 11040, "pitch": 36, "duration": 10, "velocity": 110}, {"time": 11040, "pitch": 42, "duration": 20, "velocity": 114}, {"time": 11170, "pitch": 42, "duration": 10, "velocity": 38}, {"time": 11280, "pitch": 42, "duration": 10, "velocity": 55}, {"time": 11400, "pitch": 42, "duration": 10, "velocity": 54}, {"time": 11510, "pitch": 42, "duration": 10, "velocity": 105}, {"time": 11520, "pitch": 40, "duration": 10, "velocity": 108}, {"time": 11640, "pitch": 42, "duration": 10, "velocity": 37}, {"time": 11760, "pitch": 42, "duration": 10, "velocity": 67}, {"time": 11880, "pitch": 36, "duration": 10, "velocity": 83}, {"time": 11880, "pitch": 42, "duration": 20, "velocity": 90}, {"time": 12000, "pitch": 36, "duration": 10, "velocity": 110}, {"time": 12000, "pitch": 42, "duration": 20, "velocity": 94}, {"time": 12120, "pitch": 42, "duration": 10, "velocity": 43}, {"time": 12240, "pitch": 42, "duration": 10, "velocity": 66}, {"time": 12360, "pitch": 42, "duration": 10, "velocity": 63}, {"time": 12470, "pitch": 42, "duration": 10, "velocity": 116}, {"time": 12480, "pitch": 40, "duration": 10, "velocity": 108}, {"time": 12610, "pitch": 42, "duration": 10, "velocity": 40}, {"time": 12720, "pitch": 36, "duration": 10, "velocity": 83}, {"time": 12720, "pitch": 42, "duration": 20, "velocity": 58}, {"time": 12850, "pitch": 42, "duration": 10, "velocity": 52}, {"time": 12960, "pitch": 36, "duration": 10, "velocity": 110}, {"time": 12960, "pitch": 42, "duration": 20, "velocity": 116}, {"time": 13090, "pitch": 42, "duration": 10, "velocity": 44}, {"time": 13200, "pitch": 42, "duration": 10, "velocity": 69}, {"time": 13330, "pitch": 42, "duration": 10, "velocity": 47}, {"time": 13440, "pitch": 40, "duration": 10, "velocity": 108}, {"time": 13440, "pitch": 42, "duration": 20, "velocity": 103}, {"time": 13560, "pitch": 42, "duration": 10, "velocity": 37}, {"time": 13680, "pitch": 42, "duration": 10, "velocity": 59}, {"time": 13800, "pitch": 36, "duration": 10, "velocity": 83}, {"time": 13800, "pitch": 42, "duration": 20, "velocity": 93}, {"time": 13910, "pitch": 42, "duration": 10, "velocity": 103}, {"time": 13920, "pitch": 36, "duration": 10, "velocity": 110}, {"time": 14040, "pitch": 40, "duration": 10, "velocity": 95}, {"time": 14040, "pitch": 42, "duration": 20, "velocity": 44}, {"time": 14160, "pitch": 36, "duration": 10, "velocity": 110}, {"time": 14170, "pitch": 42, "duration": 10, "velocity": 61}, {"time": 14290, "pitch": 42, "duration": 10, "velocity": 64}, {"time": 14400, "pitch": 40, "duration": 10, "velocity": 108}, {"time": 14400, "pitch": 42, "duration": 20, "velocity": 96}, {"time": 14520, "pitch": 36, "duration": 10, "velocity": 111}, {"time": 14520, "pitch": 42, "duration": 20, "velocity": 46}, {"time": 14640, "pitch": 42, "duration": 10, "velocity": 62}, {"time": 14770, "pitch": 42, "duration": 10, "velocity": 67}, {"time": 14880, "pitch": 36, "duration": 10, "velocity": 110}, {"time": 14880, "pitch": 46, "duration": 20, "velocity": 114}, {"time": 14970, "pitch": 44, "duration": 10, "velocity": 98}, {"time": 16440, "pitch": 36, "duration": 10, "velocity": 110}, {"time": 16440, "pitch": 46, "duration": 20, "velocity": 114}, {"time": 16800, "pitch": 36, "duration": 10, "velocity": 110}, {"time": 16800, "pitch": 42, "duration": 20, "velocity": 114}, {"time": 16800, "pitch": 57, "duration": 30, "velocity": 100}, {"time": 16930, "pitch": 42, "duration": 10, "velocity": 38}, {"time": 17040, "pitch": 42, "duration": 10, "velocity": 55}, {"time": 17160, "pitch": 42, "duration": 10, "velocity": 54}, {"time": 17270, "pitch": 42, "duration": 10, "velocity": 105}, {"time": 17280, "pitch": 40, "duration": 10, "velocity": 108}, {"time": 17400, "pitch": 42, "duration": 10, "velocity": 37}, {"time": 17520, "pitch": 42, "duration": 10, "velocity": 67}, {"time": 17640, "pitch": 42, "duration": 10, "velocity": 90}, {"time": 17760, "pitch": 36, "duration": 10, "velocity": 110}, {"time": 17760, "pitch": 42, "duration": 20, "velocity": 94}, {"time": 17880, "pitch": 42, "duration": 10, "velocity": 43}, {"time": 18000, "pitch": 42, "duration": 10, "velocity": 66}, {"time": 18120, "pitch": 42, "duration": 10, "velocity": 63}, {"time": 18230, "pitch": 42, "duration": 10, "velocity": 116}, {"time": 18240, "pitch": 40, "duration": 10, "velocity": 108}, {"time": 18370, "pitch": 42, "duration": 10, "velocity": 40}, {"time": 18480, "pitch": 36, "duration": 10, "velocity": 83}, {"time": 18480, "pitch": 42, "duration": 20, "velocity": 58}, {"time": 18610, "pitch": 42, "duration": 10, "velocity": 52}, {"time": 18720, "pitch": 36, "duration": 10, "velocity": 110}, {"time": 18720, "pitch": 42, "duration": 20, "velocity": 116}, {"time": 18850, "pitch": 42, "duration": 10, "velocity": 44}, {"time": 18960, "pitch": 42, "duration": 10, "velocity": 69}, {"time": 19090, "pitch": 42, "duration": 10, "velocity": 47}, {"time": 19200, "pitch": 40, "duration": 10, "velocity": 108}, {"time": 19200, "pitch": 42, "duration": 20, "velocity": 103}, {"time": 19320, "pitch": 42, "duration": 10, "velocity": 37}, {"time": 19440, "pitch": 42, "duration": 10, "velocity": 59}, {"time": 19560, "pitch": 42, "duration": 10, "velocity": 93}, {"time": 19670, "pitch": 42, "duration": 10, "velocity": 103}, {"time": 19680, "pitch": 36, "duration": 10, "velocity": 110}, {"time": 19800, "pitch": 42, "duration": 10, "velocity": 44}, {"time": 19930, "pitch": 42, "duration": 10, "velocity": 61}, {"time": 20050, "pitch": 42, "duration": 10, "velocity": 64}, {"time": 20160, "pitch": 40, "duration": 10, "velocity": 108}, {"time": 20160, "pitch": 42, "duration": 20, "velocity": 96}, {"time": 20280, "pitch": 42, "duration": 10, "velocity": 46}, {"time": 20400, "pitch": 36, "duration": 10, "velocity": 83}, {"time": 20400, "pitch": 42, "duration": 20, "velocity": 62}, {"time": 20530, "pitch": 42, "duration": 10, "velocity": 67}, {"time": 20640, "pitch": 36, "duration": 10, "velocity": 110}, {"time": 20640, "pitch": 42, "duration": 20, "velocity": 114}, {"time": 20640, "pitch": 57, "duration": 30, "velocity": 100}, {"time": 20770, "pitch": 42, "duration": 10, "velocity": 38}, {"time": 20880, "pitch": 42, "duration": 10, "velocity": 55}, {"time": 21000, "pitch": 42, "duration": 10, "velocity": 54}, {"time": 21110, "pitch": 42, "duration": 10, "velocity": 105}, {"time": 21120, "pitch": 40, "duration": 10, "velocity": 108}, {"time": 21240, "pitch": 42, "duration": 10, "velocity": 37}, {"time": 21360, "pitch": 42, "duration": 10, "velocity": 67}, {"time": 21480, "pitch": 42, "duration": 10, "velocity": 90}, {"time": 21600, "pitch": 36, "duration": 10, "velocity": 110}, {"time": 21600, "pitch": 42, "duration": 20, "velocity": 94}, {"time": 21720, "pitch": 42, "duration": 10, "velocity": 43}, {"time": 21840, "pitch": 42, "duration": 10, "velocity": 66}, {"time": 21960, "pitch": 42, "duration": 10, "velocity": 63}, {"time": 22070, "pitch": 42, "duration": 10, "velocity": 116}, {"time": 22080, "pitch": 40, "duration": 10, "velocity": 108}, {"time": 22210, "pitch": 42, "duration": 10, "velocity": 40}, {"time": 22320, "pitch": 36, "duration": 10, "velocity": 83}, {"time": 22320, "pitch": 42, "duration": 20, "velocity": 58}, {"time": 22450, "pitch": 42, "duration": 10, "velocity": 52}, {"time": 22560, "pitch": 36, "duration": 10, "velocity": 110}, {"time": 22560, "pitch": 42, "duration": 20, "velocity": 116}, {"time": 22690, "pitch": 42, "duration": 10, "velocity": 44}, {"time": 22800, "pitch": 42, "duration": 10, "velocity": 69}, {"time": 22930, "pitch": 42, "duration": 10, "velocity": 47}, {"time": 23040, "pitch": 40, "duration": 10, "velocity": 108}, {"time": 23040, "pitch": 42, "duration": 20, "velocity": 103}, {"time": 23160, "pitch": 42, "duration": 10, "velocity": 37}, {"time": 23280, "pitch": 36, "duration": 10, "velocity": 83}, {"time": 23280, "pitch": 42, "duration": 20, "velocity": 59}, {"time": 23400, "pitch": 42, "duration": 10, "velocity": 93}, {"time": 23510, "pitch": 42, "duration": 10, "velocity": 103}, {"time": 23520, "pitch": 36, "duration": 10, "velocity": 110}, {"time": 23640, "pitch": 40, "duration": 10, "velocity": 95}, {"time": 23640, "pitch": 42, "duration": 20, "velocity": 44}, {"time": 23760, "pitch": 36, "duration": 10, "velocity": 110}, {"time": 23770, "pitch": 42, "duration": 10, "velocity": 61}, {"time": 23890, "pitch": 42, "duration": 10, "velocity": 64}, {"time": 24000, "pitch": 40, "duration": 10, "velocity": 108}, {"time": 24000, "pitch": 42, "duration": 20, "velocity": 96}, {"time": 24120, "pitch": 36, "duration": 10, "velocity": 111}, {"time": 24120, "pitch": 46, "duration": 20, "velocity": 115}, {"time": 24360, "pitch": 40, "duration": 10, "velocity": 108}, {"time": 24480, "pitch": 36, "duration": 10, "velocity": 110}, {"time": 24480, "pitch": 42, "duration": 20, "velocity": 114}, {"time": 24610, "pitch": 42, "duration": 10, "velocity": 38}, {"time": 24720, "pitch": 42, "duration": 10, "velocity": 55}, {"time": 24840, "pitch": 42, "duration": 10, "velocity": 54}, {"time": 24950, "pitch": 42, "duration": 10, "velocity": 105}, {"time": 24960, "pitch": 40, "duration": 10, "velocity": 108}, {"time": 25080, "pitch": 42, "duration": 10, "velocity": 37}, {"time": 25200, "pitch": 42, "duration": 10, "velocity": 67}, {"time": 25320, "pitch": 42, "duration": 10, "velocity": 90}, {"time": 25440, "pitch": 36, "duration": 10, "velocity": 110}, {"time": 25440, "pitch": 42, "duration": 20, "velocity": 94}, {"time": 25560, "pitch": 42, "duration": 10, "velocity": 43}, {"time": 25680, "pitch": 42, "duration": 10, "velocity": 66}, {"time": 25800, "pitch": 42, "duration": 10, "velocity": 63}, {"time": 25910, "pitch": 42, "duration": 10, "velocity": 116}, {"time": 25920, "pitch": 40, "duration": 10, "velocity": 108}, {"time": 26050, "pitch": 42, "duration": 10, "velocity": 40}, {"time": 26160, "pitch": 36, "duration": 10, "velocity": 83}, {"time": 26160, "pitch": 42, "duration": 20, "velocity": 58}, {"time": 26290, "pitch": 42, "duration": 10, "velocity": 52}, {"time": 26400, "pitch": 36, "duration": 10, "velocity": 110}, {"time": 26400, "pitch": 42, "duration": 20, "velocity": 116}, {"time": 26530, "pitch": 42, "duration": 10, "velocity": 44}, {"time": 26640, "pitch": 42, "duration": 10, "velocity": 69}, {"time": 26770, "pitch": 42, "duration": 10, "velocity": 47}, {"time": 26880, "pitch": 40, "duration": 10, "velocity": 108}, {"time": 26880, "pitch": 42, "duration": 20, "velocity": 103}, {"time": 27000, "pitch": 42, "duration": 10, "velocity": 37}, {"time": 27120, "pitch": 36, "duration": 10, "velocity": 83}, {"time": 27120, "pitch": 42, "duration": 20, "velocity": 59}, {"time": 27240, "pitch": 42, "duration": 10, "velocity": 93}, {"time": 27350, "pitch": 42, "duration": 10, "velocity": 103}, {"time": 27360, "pitch": 36, "duration": 10, "velocity": 110}, {"time": 27480, "pitch": 42, "duration": 10, "velocity": 44}, {"time": 27610, "pitch": 42, "duration": 10, "velocity": 61}, {"time": 27730, "pitch": 42, "duration": 10, "velocity": 64}, {"time": 27840, "pitch": 40, "duration": 10, "velocity": 108}, {"time": 27840, "pitch": 42, "duration": 20, "velocity": 96}, {"time": 27960, "pitch": 42, "duration": 10, "velocity": 46}, {"time": 28080, "pitch": 36, "duration": 10, "velocity": 83}, {"time": 28080, "pitch": 42, "duration": 20, "velocity": 62}, {"time": 28210, "pitch": 42, "duration": 10, "velocity": 67}, {"time": 28320, "pitch": 36, "duration": 10, "velocity": 110}, {"time": 28320, "pitch": 42, "duration": 20, "velocity": 114}, {"time": 28450, "pitch": 42, "duration": 10, "velocity": 38}, {"time": 28560, "pitch": 42, "duration": 10, "velocity": 55}, {"time": 28680, "pitch": 42, "duration": 10, "velocity": 54}, {"time": 28790, "pitch": 42, "duration": 10, "velocity": 105}, {"time": 28800, "pitch": 40, "duration": 10, "velocity": 108}, {"time": 28920, "pitch": 42, "duration": 10, "velocity": 37}, {"time": 29040, "pitch": 42, "duration": 10, "velocity": 67}, {"time": 29160, "pitch": 42, "duration": 10, "velocity": 90}, {"time": 29280, "pitch": 36, "duration": 10, "velocity": 110}, {"time": 29280, "pitch": 42, "duration": 20, "velocity": 94}, {"time": 29400, "pitch": 42, "duration": 10, "velocity": 43}, {"time": 29520, "pitch": 42, "duration": 10, "velocity": 66}, {"time": 29640, "pitch": 42, "duration": 10, "velocity": 63}, {"time": 29750, "pitch": 42, "duration": 10, "velocity": 116}, {"time": 29760, "pitch": 40, "duration": 10, "velocity": 108}, {"time": 29890, "pitch": 42, "duration": 10, "velocity": 40}, {"time": 30000, "pitch": 36, "duration": 10, "velocity": 83}, {"time": 30000, "pitch": 42, "duration": 20, "velocity": 58}, {"time": 30130, "pitch": 42, "duration": 10, "velocity": 52}, {"time": 30240, "pitch": 36, "duration": 10, "velocity": 110}, {"time": 30240, "pitch": 42, "duration": 20, "velocity": 116}, {"time": 30370, "pitch": 42, "duration": 10, "velocity": 44}, {"time": 30480, "pitch": 42, "duration": 10, "velocity": 69}, {"time": 30610, "pitch": 42, "duration": 10, "velocity": 47}, {"time": 30720, "pitch": 40, "duration": 10, "velocity": 108}, {"time": 30720, "pitch": 42, "duration": 20, "velocity": 103}, {"time": 30840, "pitch": 42, "duration": 10, "velocity": 37}, {"time": 30960, "pitch": 36, "duration": 10, "velocity": 83}, {"time": 30960, "pitch": 42, "duration": 20, "velocity": 59}, {"time": 31080, "pitch": 42, "duration": 10, "velocity": 93}, {"time": 31190, "pitch": 42, "duration": 10, "velocity": 103}, {"time": 31200, "pitch": 36, "duration": 10, "velocity": 110}, {"time": 31320, "pitch": 42, "duration": 10, "velocity": 44}, {"time": 31450, "pitch": 42, "duration": 10, "velocity": 61}, {"time": 31570, "pitch": 42, "duration": 10, "velocity": 64}, {"time": 31680, "pitch": 40, "duration": 10, "velocity": 108}, {"time": 31680, "pitch": 42, "duration": 20, "velocity": 96}, {"time": 31800, "pitch": 42, "duration": 10, "velocity": 46}, {"time": 31920, "pitch": 36, "duration": 10, "velocity": 83}, {"time": 31920, "pitch": 42, "duration": 20, "velocity": 62}, {"time": 32050, "pitch": 42, "duration": 10, "velocity": 67}, {"time": 32160, "pitch": 36, "duration": 10, "velocity": 110}, {"time": 32160, "pitch": 42, "duration": 20, "velocity": 114}, {"time": 32290, "pitch": 42, "duration": 10, "velocity": 38}, {"time": 32400, "pitch": 42, "duration": 10, "velocity": 55}, {"time": 32520, "pitch": 42, "duration": 10, "velocity": 54}, {"time": 32630, "pitch": 42, "duration": 10, "velocity": 105}, {"time": 32640, "pitch": 40, "duration": 10, "velocity": 108}, {"time": 32760, "pitch": 42, "duration": 10, "velocity": 37}, {"time": 32880, "pitch": 42, "duration": 10, "velocity": 67}, {"time": 33000, "pitch": 42, "duration": 10, "velocity": 90}, {"time": 33120, "pitch": 36, "duration": 10, "velocity": 110}, {"time": 33120, "pitch": 42, "duration": 20, "velocity": 94}, {"time": 33240, "pitch": 42, "duration": 10, "velocity": 43}, {"time": 33360, "pitch": 42, "duration": 10, "velocity": 66}, {"time": 33480, "pitch": 42, "duration": 10, "velocity": 63}, {"time": 33590, "pitch": 42, "duration": 10, "velocity": 116}, {"time": 33600, "pitch": 40, "duration": 10, "velocity": 108}, {"time": 33730, "pitch": 42, "duration": 10, "velocity": 40}, {"time": 33840, "pitch": 36, "duration": 10, "velocity": 83}, {"time": 33840, "pitch": 42, "duration": 20, "velocity": 58}, {"time": 33970, "pitch": 42, "duration": 10, "velocity": 52}, {"time": 34080, "pitch": 36, "duration": 10, "velocity": 110}, {"time": 34080, "pitch": 42, "duration": 20, "velocity": 116}, {"time": 34210, "pitch": 42, "duration": 10, "velocity": 44}, {"time": 34320, "pitch": 42, "duration": 10, "velocity": 69}, {"time": 34450, "pitch": 42, "duration": 10, "velocity": 47}, {"time": 34560, "pitch": 40, "duration": 10, "velocity": 108}, {"time": 34560, "pitch": 42, "duration": 20, "velocity": 103}, {"time": 34680, "pitch": 42, "duration": 10, "velocity": 37}, {"time": 34800, "pitch": 36, "duration": 10, "velocity": 83}, {"time": 34800, "pitch": 42, "duration": 20, "velocity": 59}, {"time": 34920, "pitch": 42, "duration": 10, "velocity": 93}, {"time": 35030, "pitch": 42, "duration": 10, "velocity": 103}, {"time": 35040, "pitch": 36, "duration": 10, "velocity": 110}, {"time": 35160, "pitch": 42, "duration": 10, "velocity": 44}, {"time": 35290, "pitch": 42, "duration": 10, "velocity": 61}, {"time": 35410, "pitch": 42, "duration": 10, "velocity": 64}, {"time": 35520, "pitch": 40, "duration": 10, "velocity": 108}, {"time": 35520, "pitch": 42, "duration": 20, "velocity": 96}, {"time": 35640, "pitch": 42, "duration": 10, "velocity": 46}, {"time": 35760, "pitch": 36, "duration": 10, "velocity": 83}, {"time": 35760, "pitch": 42, "duration": 20, "velocity": 62}, {"time": 35890, "pitch": 42, "duration": 10, "velocity": 67}, {"time": 36000, "pitch": 36, "duration": 10, "velocity": 110}, {"time": 36000, "pitch": 42, "duration": 20, "velocity": 114}, {"time": 36130, "pitch": 42, "duration": 10, "velocity": 38}, {"time": 36240, "pitch": 42, "duration": 10, "velocity": 55}, {"time": 36360, "pitch": 42, "duration": 10, "velocity": 54}, {"time": 36470, "pitch": 42, "duration": 10, "velocity": 105}, {"time": 36480, "pitch": 40, "duration": 10, "velocity": 108}, {"time": 36600, "pitch": 42, "duration": 10, "velocity": 37}, {"time": 36720, "pitch": 42, "duration": 10, "velocity": 67}, {"time": 36840, "pitch": 42, "duration": 10, "velocity": 90}, {"time": 36960, "pitch": 36, "duration": 10, "velocity": 110}, {"time": 36960, "pitch": 42, "duration": 20, "velocity": 94}, {"time": 37080, "pitch": 42, "duration": 10, "velocity": 43}, {"time": 37200, "pitch": 42, "duration": 10, "velocity": 66}, {"time": 37320, "pitch": 42, "duration": 10, "velocity": 63}, {"time": 37430, "pitch": 42, "duration": 10, "velocity": 116}, {"time": 37440, "pitch": 40, "duration": 10, "velocity": 108}, {"time": 37570, "pitch": 42, "duration": 10, "velocity": 40}, {"time": 37680, "pitch": 36, "duration": 10, "velocity": 83}, {"time": 37680, "pitch": 42, "duration": 20, "velocity": 58}, {"time": 37810, "pitch": 42, "duration": 10, "velocity": 52}, {"time": 37920, "pitch": 36, "duration": 10, "velocity": 110}, {"time": 37920, "pitch": 42, "duration": 20, "velocity": 116}, {"time": 38050, "pitch": 42, "duration": 10, "velocity": 44}, {"time": 38160, "pitch": 42, "duration": 10, "velocity": 69}, {"time": 38290, "pitch": 42, "duration": 10, "velocity": 47}, {"time": 38400, "pitch": 40, "duration": 10, "velocity": 108}, {"time": 38400, "pitch": 42, "duration": 20, "velocity": 103}, {"time": 38520, "pitch": 42, "duration": 10, "velocity": 37}, {"time": 38640, "pitch": 36, "duration": 10, "velocity": 83}, {"time": 38640, "pitch": 42, "duration": 20, "velocity": 59}, {"time": 38760, "pitch": 42, "duration": 10, "velocity": 93}, {"time": 38870, "pitch": 42, "duration": 10, "velocity": 103}, {"time": 38880, "pitch": 36, "duration": 10, "velocity": 110}, {"time": 39000, "pitch": 40, "duration": 10, "velocity": 110}, {"time": 39000, "pitch": 42, "duration": 20, "velocity": 44}, {"time": 39130, "pitch": 42, "duration": 10, "velocity": 61}, {"time": 39240, "pitch": 36, "duration": 10, "velocity": 120}, {"time": 39250, "pitch": 42, "duration": 10, "velocity": 64}, {"time": 39360, "pitch": 40, "duration": 10, "velocity": 110}, {"time": 39360, "pitch": 42, "duration": 20, "velocity": 96}, {"time": 39480, "pitch": 42, "duration": 10, "velocity": 46}, {"time": 39600, "pitch": 36, "duration": 10, "velocity": 111}, {"time": 39600, "pitch": 46, "duration": 20, "velocity": 114}, {"time": 39840, "pitch": 36, "duration": 10, "velocity": 110}, {"time": 39840, "pitch": 42, "duration": 20, "velocity": 116}, {"time": 39840, "pitch": 57, "duration": 30, "velocity": 100}, {"time": 39970, "pitch": 42, "duration": 10, "velocity": 44}, {"time": 40080, "pitch": 42, "duration": 10, "velocity": 69}, {"time": 40210, "pitch": 42, "duration": 10, "velocity": 47}, {"time": 40320, "pitch": 40, "duration": 10, "velocity": 108}, {"time": 40320, "pitch": 42, "duration": 20, "velocity": 103}, {"time": 40440, "pitch": 42, "duration": 10, "velocity": 37}, {"time": 40560, "pitch": 42, "duration": 10, "velocity": 59}, {"time": 40680, "pitch": 42, "duration": 10, "velocity": 93}, {"time": 40790, "pitch": 42, "duration": 10, "velocity": 103}, {"time": 40800, "pitch": 36, "duration": 10, "velocity": 110}, {"time": 40920, "pitch": 42, "duration": 10, "velocity": 44}, {"time": 41050, "pitch": 42, "duration": 10, "velocity": 61}, {"time": 41170, "pitch": 42, "duration": 10, "velocity": 64}, {"time": 41280, "pitch": 40, "duration": 10, "velocity": 108}, {"time": 41280, "pitch": 42, "duration": 20, "velocity": 96}, {"time": 41400, "pitch": 42, "duration": 10, "velocity": 46}, {"time": 41520, "pitch": 42, "duration": 10, "velocity": 62}, {"time": 41650, "pitch": 42, "duration": 10, "velocity": 67}, {"time": 41760, "pitch": 36, "duration": 10, "velocity": 110}, {"time": 41760, "pitch": 42, "duration": 20, "velocity": 114}, {"time": 41890, "pitch": 42, "duration": 10, "velocity": 38}, {"time": 42000, "pitch": 42, "duration": 10, "velocity": 55}, {"time": 42120, "pitch": 42, "duration": 10, "velocity": 54}, {"time": 42230, "pitch": 42, "duration": 10, "velocity": 105}, {"time": 42240, "pitch": 40, "duration": 10, "velocity": 108}, {"time": 42360, "pitch": 42, "duration": 10, "velocity": 37}, {"time": 42480, "pitch": 42, "duration": 10, "velocity": 67}, {"time": 42600, "pitch": 42, "duration": 10, "velocity": 90}, {"time": 42720, "pitch": 36, "duration": 10, "velocity": 110}, {"time": 42720, "pitch": 42, "duration": 20, "velocity": 94}, {"time": 42840, "pitch": 42, "duration": 10, "velocity": 43}, {"time": 42960, "pitch": 42, "duration": 10, "velocity": 66}, {"time": 43080, "pitch": 42, "duration": 10, "velocity": 63}, {"time": 43190, "pitch": 42, "duration": 10, "velocity": 116}, {"time": 43200, "pitch": 40, "duration": 10, "velocity": 108}, {"time": 43330, "pitch": 42, "duration": 10, "velocity": 40}, {"time": 43440, "pitch": 36, "duration": 10, "velocity": 83}, {"time": 43440, "pitch": 42, "duration": 20, "velocity": 58}, {"time": 43570, "pitch": 42, "duration": 10, "velocity": 52}, {"time": 43680, "pitch": 36, "duration": 10, "velocity": 110}, {"time": 43680, "pitch": 42, "duration": 20, "velocity": 116}, {"time": 43810, "pitch": 42, "duration": 10, "velocity": 44}, {"time": 43920, "pitch": 42, "duration": 10, "velocity": 69}, {"time": 44050, "pitch": 42, "duration": 10, "velocity": 47}, {"time": 44160, "pitch": 40, "duration": 10, "velocity": 108}, {"time": 44160, "pitch": 42, "duration": 20, "velocity": 103}, {"time": 44280, "pitch": 42, "duration": 10, "velocity": 37}, {"time": 44400, "pitch": 42, "duration": 10, "velocity": 59}, {"time": 44520, "pitch": 42, "duration": 10, "velocity": 93}, {"time": 44630, "pitch": 42, "duration": 10, "velocity": 103}, {"time": 44640, "pitch": 36, "duration": 10, "velocity": 110}, {"time": 44760, "pitch": 42, "duration": 10, "velocity": 44}, {"time": 44890, "pitch": 42, "duration": 10, "velocity": 61}, {"time": 45010, "pitch": 42, "duration": 10, "velocity": 64}, {"time": 45120, "pitch": 40, "duration": 10, "velocity": 108}, {"time": 45120, "pitch": 42, "duration": 20, "velocity": 96}, {"time": 45240, "pitch": 42, "duration": 10, "velocity": 46}, {"time": 45360, "pitch": 42, "duration": 10, "velocity": 62}, {"time": 45490, "pitch": 42, "duration": 10, "velocity": 67}, {"time": 45600, "pitch": 36, "duration": 10, "velocity": 110}, {"time": 45600, "pitch": 42, "duration": 20, "velocity": 114}, {"time": 45730, "pitch": 42, "duration": 10, "velocity": 38}, {"time": 45840, "pitch": 42, "duration": 10, "velocity": 55}, {"time": 45960, "pitch": 42, "duration": 10, "velocity": 54}, {"time": 46070, "pitch": 42, "duration": 10, "velocity": 105}, {"time": 46080, "pitch": 40, "duration": 10, "velocity": 108}, {"time": 46200, "pitch": 42, "duration": 10, "velocity": 37}, {"time": 46320, "pitch": 42, "duration": 10, "velocity": 67}, {"time": 46440, "pitch": 42, "duration": 10, "velocity": 90}, {"time": 46560, "pitch": 36, "duration": 10, "velocity": 110}, {"time": 46560, "pitch": 42, "duration": 20, "velocity": 94}, {"time": 46680, "pitch": 42, "duration": 10, "velocity": 43}, {"time": 46800, "pitch": 42, "duration": 10, "velocity": 66}, {"time": 46920, "pitch": 42, "duration": 10, "velocity": 63}, {"time": 47030, "pitch": 42, "duration": 10, "velocity": 116}, {"time": 47040, "pitch": 40, "duration": 10, "velocity": 108}, {"time": 47170, "pitch": 42, "duration": 10, "velocity": 40}, {"time": 47280, "pitch": 36, "duration": 10, "velocity": 83}, {"time": 47280, "pitch": 42, "duration": 20, "velocity": 58}, {"time": 47410, "pitch": 42, "duration": 10, "velocity": 52}, {"time": 47520, "pitch": 36, "duration": 10, "velocity": 110}, {"time": 47520, "pitch": 42, "duration": 20, "velocity": 116}, {"time": 47520, "pitch": 57, "duration": 30, "velocity": 100}, {"time": 47650, "pitch": 42, "duration": 10, "velocity": 44}, {"time": 47760, "pitch": 42, "duration": 10, "velocity": 69}, {"time": 47890, "pitch": 42, "duration": 10, "velocity": 47}, {"time": 48000, "pitch": 40, "duration": 10, "velocity": 108}, {"time": 48000, "pitch": 42, "duration": 20, "velocity": 103}, {"time": 48120, "pitch": 42, "duration": 10, "velocity": 37}, {"time": 48240, "pitch": 42, "duration": 10, "velocity": 59}, {"time": 48360, "pitch": 42, "duration": 10, "velocity": 93}, {"time": 48470, "pitch": 42, "duration": 10, "velocity": 103}, {"time": 48480, "pitch": 36, "duration": 10, "velocity": 110}, {"time": 48600, "pitch": 42, "duration": 10, "velocity": 44}, {"time": 48730, "pitch": 42, "duration": 10, "velocity": 61}, {"time": 48850, "pitch": 42, "duration": 10, "velocity": 64}, {"time": 48960, "pitch": 40, "duration": 10, "velocity": 108}, {"time": 48960, "pitch": 42, "duration": 20, "velocity": 96}, {"time": 49080, "pitch": 42, "duration": 10, "velocity": 46}, {"time": 49200, "pitch": 36, "duration": 10, "velocity": 83}, {"time": 49200, "pitch": 42, "duration": 20, "velocity": 62}, {"time": 49330, "pitch": 42, "duration": 10, "velocity": 67}, {"time": 49440, "pitch": 36, "duration": 10, "velocity": 110}, {"time": 49440, "pitch": 46, "duration": 20, "velocity": 116}, {"time": 49560, "pitch": 44, "duration": 10, "velocity": 68}, {"time": 50400, "pitch": 36, "duration": 10, "velocity": 120}, {"time": 50520, "pitch": 40, "duration": 10, "velocity": 110}, {"time": 50760, "pitch": 36, "duration": 10, "velocity": 120}, {"time": 50880, "pitch": 40, "duration": 10, "velocity": 110}, {"time": 51120, "pitch": 36, "duration": 10, "velocity": 120}, {"time": 51360, "pitch": 36, "duration": 10, "velocity": 110}, {"time": 51360, "pitch": 42, "duration": 20, "velocity": 116}, {"time": 51360, "pitch": 57, "duration": 30, "velocity": 100}, {"time": 51490, "pitch": 42, "duration": 10, "velocity": 44}, {"time": 51600, "pitch": 42, "duration": 10, "velocity": 69}, {"time": 51730, "pitch": 42, "duration": 10, "velocity": 47}, {"time": 51840, "pitch": 39, "duration": 30, "velocity": 110}, {"time": 51840, "pitch": 40, "duration": 10, "velocity": 108}, {"time": 51840, "pitch": 42, "duration": 20, "velocity": 103}, {"time": 51960, "pitch": 42, "duration": 10, "velocity": 37}, {"time": 52080, "pitch": 42, "duration": 10, "velocity": 59}, {"time": 52200, "pitch": 36, "duration": 10, "velocity": 110}, {"time": 52200, "pitch": 42, "duration": 20, "velocity": 93}, {"time": 52310, "pitch": 42, "duration": 10, "velocity": 103}, {"time": 52320, "pitch": 36, "duration": 10, "velocity": 110}, {"time": 52440, "pitch": 42, "duration": 10, "velocity": 44}, {"time": 52560, "pitch": 36, "duration": 10, "velocity": 110}, {"time": 52570, "pitch": 42, "duration": 10, "velocity": 61}, {"time": 52690, "pitch": 42, "duration": 10, "velocity": 64}, {"time": 52800, "pitch": 39, "duration": 30, "velocity": 110}, {"time": 52800, "pitch": 40, "duration": 10, "velocity": 108}, {"time": 52800, "pitch": 42, "duration": 20, "velocity": 96}, {"time": 52920, "pitch": 42, "duration": 10, "velocity": 46}, {"time": 53040, "pitch": 36, "duration": 10, "velocity": 83}, {"time": 53040, "pitch": 42, "duration": 20, "velocity": 62}, {"time": 53170, "pitch": 42, "duration": 10, "velocity": 67}, {"time": 53280, "pitch": 36, "duration": 10, "velocity": 110}, {"time": 53280, "pitch": 42, "duration": 20, "velocity": 114}, {"time": 53410, "pitch": 42, "duration": 10, "velocity": 38}, {"time": 53520, "pitch": 42, "duration": 10, "velocity": 55}, {"time": 53640, "pitch": 42, "duration": 10, "velocity": 54}, {"time": 53750, "pitch": 42, "duration": 10, "velocity": 105}, {"time": 53760, "pitch": 39, "duration": 20, "velocity": 110}, {"time": 53760, "pitch": 40, "duration": 10, "velocity": 108}, {"time": 53880, "pitch": 42, "duration": 10, "velocity": 37}, {"time": 54000, "pitch": 36, "duration": 10, "velocity": 110}, {"time": 54000, "pitch": 42, "duration": 20, "velocity": 67}, {"time": 54120, "pitch": 42, "duration": 10, "velocity": 90}, {"time": 54240, "pitch": 36, "duration": 10, "velocity": 110}, {"time": 54240, "pitch": 42, "duration": 20, "velocity": 94}, {"time": 54360, "pitch": 42, "duration": 10, "velocity": 43}, {"time": 54480, "pitch": 39, "duration": 20, "velocity": 110}, {"time": 54480, "pitch": 42, "duration": 10, "velocity": 66}, {"time": 54600, "pitch": 42, "duration": 10, "velocity": 63}, {"time": 54710, "pitch": 42, "duration": 10, "velocity": 116}, {"time": 54720, "pitch": 39, "duration": 20, "velocity": 110}, {"time": 54720, "pitch": 40, "duration": 10, "velocity": 108}, {"time": 54850, "pitch": 42, "duration": 10, "velocity": 40}, {"time": 54960, "pitch": 36, "duration": 10, "velocity": 83}, {"time": 54960, "pitch": 42, "duration": 20, "velocity": 58}, {"time": 55090, "pitch": 42, "duration": 10, "velocity": 52}, {"time": 55200, "pitch": 36, "duration": 10, "velocity": 110}, {"time": 55200, "pitch": 42, "duration": 20, "velocity": 116}, {"time": 55330, "pitch": 42, "duration": 10, "velocity": 44}, {"time": 55440, "pitch": 42, "duration": 10, "velocity": 69}, {"time": 55570, "pitch": 42, "duration": 10, "velocity": 47}, {"time": 55680, "pitch": 39, "duration": 30, "velocity": 110}, {"time": 55680, "pitch": 40, "duration": 10, "velocity": 108}, {"time": 55680, "pitch": 42, "duration": 20, "velocity": 103}, {"time": 55800, "pitch": 42, "duration": 10, "velocity": 37}, {"time": 55920, "pitch": 36, "duration": 10, "velocity": 110}, {"time": 55920, "pitch": 42, "duration": 20, "velocity": 59}, {"time": 56040, "pitch": 42, "duration": 10, "velocity": 93}, {"time": 56150, "pitch": 42, "duration": 10, "velocity": 103}, {"time": 56160, "pitch": 36, "duration": 10, "velocity": 110}, {"time": 56280, "pitch": 42, "duration": 10, "velocity": 44}, {"time": 56410, "pitch": 42, "duration": 10, "velocity": 61}, {"time": 56530, "pitch": 42, "duration": 10, "velocity": 64}, {"time": 56640, "pitch": 39, "duration": 30, "velocity": 110}, {"time": 56640, "pitch": 40, "duration": 10, "velocity": 108}, {"time": 56640, "pitch": 42, "duration": 20, "velocity": 96}, {"time": 56760, "pitch": 42, "duration": 10, "velocity": 46}, {"time": 56880, "pitch": 36, "duration": 10, "velocity": 83}, {"time": 56880, "pitch": 42, "duration": 20, "velocity": 62}, {"time": 57010, "pitch": 42, "duration": 10, "velocity": 67}, {"time": 57120, "pitch": 36, "duration": 10, "velocity": 110}, {"time": 57120, "pitch": 42, "duration": 20, "velocity": 114}, {"time": 57250, "pitch": 42, "duration": 10, "velocity": 38}, {"time": 57360, "pitch": 42, "duration": 10, "velocity": 55}, {"time": 57480, "pitch": 42, "duration": 10, "velocity": 54}, {"time": 57590, "pitch": 42, "duration": 10, "velocity": 105}, {"time": 57600, "pitch": 39, "duration": 20, "velocity": 110}, {"time": 57600, "pitch": 40, "duration": 10, "velocity": 108}, {"time": 57720, "pitch": 42, "duration": 10, "velocity": 37}, {"time": 57840, "pitch": 36, "duration": 10, "velocity": 110}, {"time": 57840, "pitch": 42, "duration": 20, "velocity": 67}, {"time": 57960, "pitch": 42, "duration": 10, "velocity": 90}, {"time": 58080, "pitch": 36, "duration": 10, "velocity": 110}, {"time": 58080, "pitch": 42, "duration": 20, "velocity": 94}, {"time": 58200, "pitch": 42, "duration": 10, "velocity": 43}, {"time": 58320, "pitch": 36, "duration": 10, "velocity": 83}, {"time": 58320, "pitch": 39, "duration": 30, "velocity": 110}, {"time": 58320, "pitch": 42, "duration": 20, "velocity": 66}, {"time": 58440, "pitch": 42, "duration": 10, "velocity": 63}, {"time": 58550, "pitch": 42, "duration": 10, "velocity": 116}, {"time": 58560, "pitch": 39, "duration": 20, "velocity": 110}, {"time": 58560, "pitch": 40, "duration": 10, "velocity": 108}, {"time": 58690, "pitch": 42, "duration": 10, "velocity": 40}, {"time": 58800, "pitch": 36, "duration": 10, "velocity": 112}, {"time": 58800, "pitch": 46, "duration": 20, "velocity": 117}, {"time": 58930, "pitch": 42, "duration": 10, "velocity": 52}, {"time": 59040, "pitch": 36, "duration": 10, "velocity": 110}, {"time": 59040, "pitch": 42, "duration": 20, "velocity": 116}, {"time": 59040, "pitch": 57, "duration": 30, "velocity": 100}, {"time": 59170, "pitch": 42, "duration": 10, "velocity": 44}, {"time": 59280, "pitch": 42, "duration": 10, "velocity": 69}, {"time": 59410, "pitch": 42, "duration": 10, "velocity": 47}, {"time": 59520, "pitch": 39, "duration": 30, "velocity": 110}, {"time": 59520, "pitch": 40, "duration": 10, "velocity": 108}, {"time": 59520, "pitch": 42, "duration": 20, "velocity": 103}, {"time": 59640, "pitch": 42, "duration": 10, "velocity": 37}, {"time": 59760, "pitch": 36, "duration": 10, "velocity": 110}, {"time": 59760, "pitch": 42, "duration": 20, "velocity": 59}, {"time": 59880, "pitch": 42, "duration": 10, "velocity": 93}, {"time": 59990, "pitch": 42, "duration": 10, "velocity": 103}, {"time": 60000, "pitch": 36, "duration": 10, "velocity": 110}, {"time": 60120, "pitch": 42, "duration": 10, "velocity": 44}, {"time": 60250, "pitch": 42, "duration": 10, "velocity": 61}, {"time": 60370, "pitch": 42, "duration": 10, "velocity": 64}, {"time": 60480, "pitch": 39, "duration": 30, "velocity": 110}, {"time": 60480, "pitch": 40, "duration": 10, "velocity": 108}, {"time": 60480, "pitch": 42, "duration": 20, "velocity": 96}, {"time": 60600, "pitch": 42, "duration": 10, "velocity": 46}, {"time": 60720, "pitch": 36, "duration": 10, "velocity": 83}, {"time": 60720, "pitch": 42, "duration": 20, "velocity": 62}, {"time": 60850, "pitch": 42, "duration": 10, "velocity": 67}, {"time": 60960, "pitch": 36, "duration": 10, "velocity": 110}, {"time": 60960, "pitch": 42, "duration": 20, "velocity": 114}, {"time": 61090, "pitch": 42, "duration": 10, "velocity": 38}, {"time": 61200, "pitch": 42, "duration": 10, "velocity": 55}, {"time": 61320, "pitch": 42, "duration": 10, "velocity": 54}, {"time": 61430, "pitch": 42, "duration": 10, "velocity": 105}, {"time": 61440, "pitch": 39, "duration": 20, "velocity": 110}, {"time": 61440, "pitch": 40, "duration": 10, "velocity": 108}, {"time": 61560, "pitch": 42, "duration": 10, "velocity": 37}, {"time": 61680, "pitch": 36, "duration": 10, "velocity": 110}, {"time": 61680, "pitch": 42, "duration": 20, "velocity": 67}, {"time": 61800, "pitch": 42, "duration": 10, "velocity": 90}, {"time": 61920, "pitch": 36, "duration": 10, "velocity": 110}, {"time": 61920, "pitch": 42, "duration": 20, "velocity": 94}, {"time": 62040, "pitch": 42, "duration": 10, "velocity": 43}, {"time": 62160, "pitch": 39, "duration": 20, "velocity": 110}, {"time": 62160, "pitch": 42, "duration": 10, "velocity": 66}, {"time": 62280, "pitch": 42, "duration": 10, "velocity": 63}, {"time": 62390, "pitch": 42, "duration": 10, "velocity": 116}, {"time": 62400, "pitch": 39, "duration": 20, "velocity": 110}, {"time": 62400, "pitch": 40, "duration": 10, "velocity": 108}, {"time": 62530, "pitch": 42, "duration": 10, "velocity": 40}, {"time": 62640, "pitch": 36, "duration": 10, "velocity": 83}, {"time": 62640, "pitch": 42, "duration": 20, "velocity": 58}, {"time": 62770, "pitch": 42, "duration": 10, "velocity": 52}, {"time": 62880, "pitch": 36, "duration": 10, "velocity": 110}, {"time": 62880, "pitch": 42, "duration": 20, "velocity": 116}, {"time": 63010, "pitch": 42, "duration": 10, "velocity": 44}, {"time": 63120, "pitch": 42, "duration": 10, "velocity": 69}, {"time": 63250, "pitch": 42, "duration": 10, "velocity": 47}, {"time": 63360, "pitch": 39, "duration": 30, "velocity": 110}, {"time": 63360, "pitch": 40, "duration": 10, "velocity": 108}, {"time": 63360, "pitch": 42, "duration": 20, "velocity": 103}, {"time": 63480, "pitch": 42, "duration": 10, "velocity": 37}, {"time": 63600, "pitch": 36, "duration": 10, "velocity": 110}, {"time": 63600, "pitch": 42, "duration": 20, "velocity": 59}, {"time": 63720, "pitch": 42, "duration": 10, "velocity": 93}, {"time": 63830, "pitch": 42, "duration": 10, "velocity": 103}, {"time": 63840, "pitch": 36, "duration": 10, "velocity": 110}, {"time": 63960, "pitch": 42, "duration": 10, "velocity": 44}, {"time": 64090, "pitch": 42, "duration": 10, "velocity": 61}, {"time": 64210, "pitch": 42, "duration": 10, "velocity": 64}, {"time": 64320, "pitch": 39, "duration": 30, "velocity": 110}, {"time": 64320, "pitch": 40, "duration": 10, "velocity": 108}, {"time": 64320, "pitch": 42, "duration": 20, "velocity": 96}, {"time": 64440, "pitch": 42, "duration": 10, "velocity": 46}, {"time": 64560, "pitch": 36, "duration": 10, "velocity": 83}, {"time": 64560, "pitch": 42, "duration": 20, "velocity": 62}, {"time": 64690, "pitch": 42, "duration": 10, "velocity": 67}, {"time": 64800, "pitch": 36, "duration": 10, "velocity": 110}, {"time": 64800, "pitch": 42, "duration": 20, "velocity": 114}, {"time": 64930, "pitch": 42, "duration": 10, "velocity": 38}, {"time": 65040, "pitch": 42, "duration": 10, "velocity": 55}, {"time": 65160, "pitch": 42, "duration": 10, "velocity": 54}, {"time": 65270, "pitch": 42, "duration": 10, "velocity": 105}, {"time": 65280, "pitch": 39, "duration": 20, "velocity": 110}, {"time": 65280, "pitch": 40, "duration": 10, "velocity": 108}, {"time": 65400, "pitch": 42, "duration": 10, "velocity": 37}, {"time": 65520, "pitch": 36, "duration": 10, "velocity": 110}, {"time": 65520, "pitch": 42, "duration": 20, "velocity": 67}, {"time": 65640, "pitch": 42, "duration": 10, "velocity": 90}, {"time": 65760, "pitch": 36, "duration": 10, "velocity": 110}, {"time": 65760, "pitch": 42, "duration": 20, "velocity": 94}, {"time": 65880, "pitch": 42, "duration": 10, "velocity": 43}, {"time": 66000, "pitch": 39, "duration": 20, "velocity": 110}, {"time": 66000, "pitch": 42, "duration": 10, "velocity": 66}, {"time": 66120, "pitch": 42, "duration": 10, "velocity": 63}, {"time": 66230, "pitch": 42, "duration": 10, "velocity": 116}, {"time": 66240, "pitch": 39, "duration": 20, "velocity": 110}, {"time": 66240, "pitch": 40, "duration": 10, "velocity": 108}, {"time": 66370, "pitch": 42, "duration": 10, "velocity": 40}, {"time": 66480, "pitch": 36, "duration": 10, "velocity": 83}, {"time": 66480, "pitch": 42, "duration": 20, "velocity": 58}, {"time": 66610, "pitch": 42, "duration": 10, "velocity": 52}, {"time": 66720, "pitch": 36, "duration": 10, "velocity": 110}, {"time": 66720, "pitch": 42, "duration": 20, "velocity": 114}, {"time": 66720, "pitch": 57, "duration": 30, "velocity": 100}, {"time": 66850, "pitch": 42, "duration": 10, "velocity": 38}, {"time": 66960, "pitch": 42, "duration": 10, "velocity": 55}, {"time": 67080, "pitch": 42, "duration": 10, "velocity": 54}, {"time": 67190, "pitch": 42, "duration": 10, "velocity": 105}, {"time": 67200, "pitch": 40, "duration": 10, "velocity": 108}, {"time": 67320, "pitch": 42, "duration": 10, "velocity": 37}, {"time": 67440, "pitch": 42, "duration": 10, "velocity": 67}, {"time": 67560, "pitch": 42, "duration": 10, "velocity": 90}, {"time": 67680, "pitch": 36, "duration": 10, "velocity": 110}, {"time": 67680, "pitch": 42, "duration": 20, "velocity": 94}, {"time": 67800, "pitch": 42, "duration": 10, "velocity": 43}, {"time": 67920, "pitch": 42, "duration": 10, "velocity": 66}, {"time": 68040, "pitch": 42, "duration": 10, "velocity": 63}, {"time": 68150, "pitch": 42, "duration": 10, "velocity": 116}, {"time": 68160, "pitch": 40, "duration": 10, "velocity": 108}, {"time": 68290, "pitch": 42, "duration": 10, "velocity": 40}, {"time": 68400, "pitch": 36, "duration": 10, "velocity": 83}, {"time": 68400, "pitch": 42, "duration": 20, "velocity": 58}, {"time": 68530, "pitch": 42, "duration": 10, "velocity": 52}, {"time": 68640, "pitch": 36, "duration": 10, "velocity": 110}, {"time": 68640, "pitch": 42, "duration": 20, "velocity": 116}, {"time": 68770, "pitch": 42, "duration": 10, "velocity": 44}, {"time": 68880, "pitch": 42, "duration": 10, "velocity": 69}, {"time": 69010, "pitch": 42, "duration": 10, "velocity": 47}, {"time": 69120, "pitch": 40, "duration": 10, "velocity": 108}, {"time": 69120, "pitch": 42, "duration": 20, "velocity": 103}, {"time": 69240, "pitch": 42, "duration": 10, "velocity": 37}, {"time": 69360, "pitch": 42, "duration": 10, "velocity": 59}, {"time": 69480, "pitch": 42, "duration": 10, "velocity": 93}, {"time": 69590, "pitch": 42, "duration": 10, "velocity": 103}, {"time": 69600, "pitch": 36, "duration": 10, "velocity": 110}, {"time": 69720, "pitch": 42, "duration": 10, "velocity": 44}, {"time": 69850, "pitch": 42, "duration": 10, "velocity": 61}, {"time": 69970, "pitch": 42, "duration": 10, "velocity": 64}, {"time": 70080, "pitch": 40, "duration": 10, "velocity": 108}, {"time": 70080, "pitch": 42, "duration": 20, "velocity": 96}, {"time": 70200, "pitch": 42, "duration": 10, "velocity": 46}, {"time": 70320, "pitch": 36, "duration": 10, "velocity": 83}, {"time": 70320, "pitch": 42, "duration": 20, "velocity": 62}, {"time": 70450, "pitch": 42, "duration": 10, "velocity": 67}, {"time": 70560, "pitch": 36, "duration": 10, "velocity": 110}, {"time": 70560, "pitch": 42, "duration": 20, "velocity": 114}, {"time": 70690, "pitch": 42, "duration": 10, "velocity": 38}, {"time": 70800, "pitch": 42, "duration": 10, "velocity": 55}, {"time": 70920, "pitch": 42, "duration": 10, "velocity": 54}, {"time": 71030, "pitch": 42, "duration": 10, "velocity": 105}, {"time": 71040, "pitch": 40, "duration": 10, "velocity": 108}, {"time": 71160, "pitch": 42, "duration": 10, "velocity": 37}, {"time": 71280, "pitch": 42, "duration": 10, "velocity": 67}, {"time": 71400, "pitch": 42, "duration": 10, "velocity": 90}, {"time": 71520, "pitch": 36, "duration": 10, "velocity": 110}, {"time": 71520, "pitch": 42, "duration": 20, "velocity": 94}, {"time": 71640, "pitch": 42, "duration": 10, "velocity": 43}, {"time": 71760, "pitch": 42, "duration": 10, "velocity": 66}, {"time": 71880, "pitch": 42, "duration": 10, "velocity": 63}, {"time": 71990, "pitch": 42, "duration": 10, "velocity": 116}, {"time": 72000, "pitch": 40, "duration": 10, "velocity": 108}, {"time": 72130, "pitch": 42, "duration": 10, "velocity": 40}, {"time": 72240, "pitch": 36, "duration": 10, "velocity": 83}, {"time": 72240, "pitch": 42, "duration": 20, "velocity": 58}, {"time": 72370, "pitch": 42, "duration": 10, "velocity": 52}, {"time": 72480, "pitch": 36, "duration": 10, "velocity": 110}, {"time": 72480, "pitch": 46, "duration": 20, "velocity": 114}, {"time": 72570, "pitch": 44, "duration": 10, "velocity": 98}, {"time": 74160, "pitch": 40, "duration": 10, "velocity": 110}, {"time": 74400, "pitch": 36, "duration": 10, "velocity": 110}, {"time": 74400, "pitch": 42, "duration": 20, "velocity": 116}, {"time": 74400, "pitch": 57, "duration": 30, "velocity": 100}, {"time": 74400, "pitch": 75, "duration": 40, "velocity": 88}, {"time": 74530, "pitch": 42, "duration": 10, "velocity": 44}, {"time": 74640, "pitch": 42, "duration": 10, "velocity": 69}, {"time": 74640, "pitch": 75, "duration": 20, "velocity": 81}, {"time": 74770, "pitch": 42, "duration": 10, "velocity": 47}, {"time": 74880, "pitch": 40, "duration": 10, "velocity": 108}, {"time": 74880, "pitch": 42, "duration": 20, "velocity": 103}, {"time": 75000, "pitch": 42, "duration": 10, "velocity": 37}, {"time": 75000, "pitch": 75, "duration": 20, "velocity": 83}, {"time": 75120, "pitch": 42, "duration": 10, "velocity": 59}, {"time": 75240, "pitch": 42, "duration": 10, "velocity": 93}, {"time": 75240, "pitch": 75, "duration": 20, "velocity": 85}, {"time": 75350, "pitch": 42, "duration": 10, "velocity": 103}, {"time": 75360, "pitch": 36, "duration": 10, "velocity": 110}, {"time": 75480, "pitch": 42, "duration": 10, "velocity": 44}, {"time": 75480, "pitch": 75, "duration": 20, "velocity": 70}, {"time": 75610, "pitch": 42, "duration": 10, "velocity": 61}, {"time": 75720, "pitch": 75, "duration": 10, "velocity": 78}, {"time": 75730, "pitch": 42, "duration": 10, "velocity": 64}, {"time": 75840, "pitch": 40, "duration": 10, "velocity": 108}, {"time": 75840, "pitch": 42, "duration": 20, "velocity": 96}, {"time": 75840, "pitch": 75, "duration": 30, "velocity": 43}, {"time": 75960, "pitch": 42, "duration": 10, "velocity": 46}, {"time": 76080, "pitch": 36, "duration": 10, "velocity": 83}, {"time": 76080, "pitch": 42, "duration": 20, "velocity": 62}, {"time": 76080, "pitch": 75, "duration": 30, "velocity": 81}, {"time": 76210, "pitch": 42, "duration": 10, "velocity": 67}, {"time": 76320, "pitch": 36, "duration": 10, "velocity": 110}, {"time": 76320, "pitch": 42, "duration": 20, "velocity": 114}, {"time": 76320, "pitch": 75, "duration": 30, "velocity": 88}, {"time": 76450, "pitch": 42, "duration": 10, "velocity": 38}, {"time": 76560, "pitch": 42, "duration": 10, "velocity": 55}, {"time": 76560, "pitch": 75, "duration": 20, "velocity": 81}, {"time": 76680, "pitch": 42, "duration": 10, "velocity": 54}, {"time": 76790, "pitch": 42, "duration": 10, "velocity": 105}, {"time": 76800, "pitch": 40, "duration": 10, "velocity": 108}, {"time": 76920, "pitch": 42, "duration": 10, "velocity": 37}, {"time": 76920, "pitch": 75, "duration": 20, "velocity": 83}, {"time": 77040, "pitch": 36, "duration": 10, "velocity": 83}, {"time": 77040, "pitch": 42, "duration": 20, "velocity": 67}, {"time": 77160, "pitch": 42, "duration": 10, "velocity": 90}, {"time": 77160, "pitch": 75, "duration": 20, "velocity": 85}, {"time": 77280, "pitch": 36, "duration": 10, "velocity": 110}, {"time": 77280, "pitch": 42, "duration": 20, "velocity": 94}, {"time": 77400, "pitch": 42, "duration": 10, "velocity": 43}, {"time": 77400, "pitch": 75, "duration": 20, "velocity": 70}, {"time": 77520, "pitch": 42, "duration": 10, "velocity": 66}, {"time": 77640, "pitch": 42, "duration": 10, "velocity": 63}, {"time": 77640, "pitch": 75, "duration": 20, "velocity": 78}, {"time": 77750, "pitch": 42, "duration": 10, "velocity": 116}, {"time": 77760, "pitch": 40, "duration": 10, "velocity": 108}, {"time": 77760, "pitch": 75, "duration": 20, "velocity": 43}, {"time": 77890, "pitch": 42, "duration": 10, "velocity": 40}, {"time": 78000, "pitch": 36, "duration": 10, "velocity": 83}, {"time": 78000, "pitch": 42, "duration": 20, "velocity": 58}, {"time": 78000, "pitch": 75, "duration": 30, "velocity": 81}, {"time": 78130, "pitch": 42, "duration": 10, "velocity": 52}, {"time": 78240, "pitch": 36, "duration": 10, "velocity": 110}, {"time": 78240, "pitch": 42, "duration": 20, "velocity": 116}, {"time": 78240, "pitch": 75, "duration": 30, "velocity": 88}, {"time": 78370, "pitch": 42, "duration": 10, "velocity": 44}, {"time": 78480, "pitch": 42, "duration": 10, "velocity": 69}, {"time": 78480, "pitch": 75, "duration": 20, "velocity": 81}, {"time": 78610, "pitch": 42, "duration": 10, "velocity": 47}, {"time": 78720, "pitch": 40, "duration": 10, "velocity": 108}, {"time": 78720, "pitch": 42, "duration": 20, "velocity": 103}, {"time": 78840, "pitch": 42, "duration": 10, "velocity": 37}, {"time": 78840, "pitch": 75, "duration": 20, "velocity": 83}, {"time": 78960, "pitch": 42, "duration": 10, "velocity": 59}, {"time": 79080, "pitch": 42, "duration": 10, "velocity": 93}, {"time": 79080, "pitch": 75, "duration": 20, "velocity": 85}, {"time": 79190, "pitch": 42, "duration": 10, "velocity": 103}, {"time": 79200, "pitch": 36, "duration": 10, "velocity": 110}, {"time": 79320, "pitch": 42, "duration": 10, "velocity": 44}, {"time": 79320, "pitch": 75, "duration": 20, "velocity": 70}, {"time": 79450, "pitch": 42, "duration": 10, "velocity": 61}, {"time": 79560, "pitch": 75, "duration": 10, "velocity": 78}, {"time": 79570, "pitch": 42, "duration": 10, "velocity": 64}, {"time": 79680, "pitch": 40, "duration": 10, "velocity": 108}, {"time": 79680, "pitch": 42, "duration": 20, "velocity": 96}, {"time": 79680, "pitch": 75, "duration": 30, "velocity": 43}, {"time": 79800, "pitch": 42, "duration": 10, "velocity": 46}, {"time": 79920, "pitch": 36, "duration": 10, "velocity": 83}, {"time": 79920, "pitch": 42, "duration": 20, "velocity": 62}, {"time": 79920, "pitch": 75, "duration": 30, "velocity": 81}, {"time": 80050, "pitch": 42, "duration": 10, "velocity": 67}, {"time": 80160, "pitch": 36, "duration": 10, "velocity": 110}, {"time": 80160, "pitch": 42, "duration": 20, "velocity": 114}, {"time": 80160, "pitch": 75, "duration": 30, "velocity": 88}, {"time": 80290, "pitch": 42, "duration": 10, "velocity": 38}, {"time": 80400, "pitch": 42, "duration": 10, "velocity": 55}, {"time": 80400, "pitch": 75, "duration": 20, "velocity": 81}, {"time": 80520, "pitch": 42, "duration": 10, "velocity": 54}, {"time": 80630, "pitch": 42, "duration": 10, "velocity": 105}, {"time": 80640, "pitch": 40, "duration": 10, "velocity": 108}, {"time": 80760, "pitch": 42, "duration": 10, "velocity": 37}, {"time": 80760, "pitch": 75, "duration": 20, "velocity": 83}, {"time": 80880, "pitch": 36, "duration": 10, "velocity": 83}, {"time": 80880, "pitch": 42, "duration": 20, "velocity": 67}, {"time": 81000, "pitch": 42, "duration": 10, "velocity": 90}, {"time": 81000, "pitch": 75, "duration": 20, "velocity": 85}, {"time": 81120, "pitch": 36, "duration": 10, "velocity": 110}, {"time": 81120, "pitch": 42, "duration": 20, "velocity": 94}, {"time": 81240, "pitch": 42, "duration": 10, "velocity": 43}, {"time": 81240, "pitch": 75, "duration": 20, "velocity": 70}, {"time": 81360, "pitch": 42, "duration": 10, "velocity": 66}, {"time": 81480, "pitch": 42, "duration": 10, "velocity": 63}, {"time": 81480, "pitch": 75, "duration": 20, "velocity": 78}, {"time": 81590, "pitch": 42, "duration": 10, "velocity": 116}, {"time": 81600, "pitch": 40, "duration": 10, "velocity": 108}, {"time": 81600, "pitch": 75, "duration": 20, "velocity": 43}, {"time": 81730, "pitch": 42, "duration": 10, "velocity": 40}, {"time": 81840, "pitch": 36, "duration": 10, "velocity": 83}, {"time": 81840, "pitch": 42, "duration": 20, "velocity": 58}, {"time": 81840, "pitch": 75, "duration": 30, "velocity": 81}, {"time": 81970, "pitch": 42, "duration": 10, "velocity": 52}, {"time": 82080, "pitch": 36, "duration": 10, "velocity": 110}, {"time": 82080, "pitch": 42, "duration": 20, "velocity": 116}, {"time": 82080, "pitch": 75, "duration": 30, "velocity": 88}, {"time": 82210, "pitch": 42, "duration": 10, "velocity": 44}, {"time": 82320, "pitch": 42, "duration": 10, "velocity": 69}, {"time": 82320, "pitch": 75, "duration": 20, "velocity": 81}, {"time": 82450, "pitch": 42, "duration": 10, "velocity": 47}, {"time": 82560, "pitch": 40, "duration": 10, "velocity": 108}, {"time": 82560, "pitch": 42, "duration": 20, "velocity": 103}, {"time": 82680, "pitch": 42, "duration": 10, "velocity": 37}, {"time": 82680, "pitch": 75, "duration": 20, "velocity": 83}, {"time": 82800, "pitch": 42, "duration": 10, "velocity": 59}, {"time": 82920, "pitch": 42, "duration": 10, "velocity": 93}, {"time": 82920, "pitch": 75, "duration": 20, "velocity": 85}, {"time": 83030, "pitch": 42, "duration": 10, "velocity": 103}, {"time": 83040, "pitch": 36, "duration": 10, "velocity": 110}, {"time": 83160, "pitch": 42, "duration": 10, "velocity": 44}, {"time": 83160, "pitch": 75, "duration": 20, "velocity": 70}, {"time": 83290, "pitch": 42, "duration": 10, "velocity": 61}, {"time": 83400, "pitch": 75, "duration": 10, "velocity": 78}, {"time": 83410, "pitch": 42, "duration": 10, "velocity": 64}, {"time": 83520, "pitch": 40, "duration": 10, "velocity": 108}, {"time": 83520, "pitch": 42, "duration": 20, "velocity": 96}, {"time": 83520, "pitch": 75, "duration": 30, "velocity": 43}, {"time": 83640, "pitch": 42, "duration": 10, "velocity": 46}, {"time": 83760, "pitch": 36, "duration": 10, "velocity": 83}, {"time": 83760, "pitch": 42, "duration": 20, "velocity": 62}, {"time": 83760, "pitch": 75, "duration": 30, "velocity": 81}, {"time": 83890, "pitch": 42, "duration": 10, "velocity": 67}, {"time": 84000, "pitch": 36, "duration": 10, "velocity": 110}, {"time": 84000, "pitch": 42, "duration": 20, "velocity": 114}, {"time": 84000, "pitch": 75, "duration": 30, "velocity": 88}, {"time": 84130, "pitch": 42, "duration": 10, "velocity": 38}, {"time": 84240, "pitch": 42, "duration": 10, "velocity": 55}, {"time": 84240, "pitch": 75, "duration": 20, "velocity": 81}, {"time": 84360, "pitch": 42, "duration": 10, "velocity": 54}, {"time": 84470, "pitch": 42, "duration": 10, "velocity": 105}, {"time": 84480, "pitch": 40, "duration": 10, "velocity": 108}, {"time": 84600, "pitch": 42, "duration": 10, "velocity": 37}, {"time": 84600, "pitch": 75, "duration": 20, "velocity": 83}, {"time": 84720, "pitch": 36, "duration": 10, "velocity": 83}, {"time": 84720, "pitch": 42, "duration": 20, "velocity": 67}, {"time": 84840, "pitch": 42, "duration": 10, "velocity": 90}, {"time": 84840, "pitch": 75, "duration": 20, "velocity": 85}, {"time": 84960, "pitch": 36, "duration": 10, "velocity": 110}, {"time": 84960, "pitch": 42, "duration": 20, "velocity": 94}, {"time": 85080, "pitch": 42, "duration": 10, "velocity": 43}, {"time": 85080, "pitch": 75, "duration": 20, "velocity": 70}, {"time": 85200, "pitch": 42, "duration": 10, "velocity": 66}, {"time": 85320, "pitch": 42, "duration": 10, "velocity": 63}, {"time": 85320, "pitch": 75, "duration": 20, "velocity": 78}, {"time": 85430, "pitch": 42, "duration": 10, "velocity": 116}, {"time": 85440, "pitch": 40, "duration": 10, "velocity": 108}, {"time": 85440, "pitch": 75, "duration": 20, "velocity": 43}, {"time": 85570, "pitch": 42, "duration": 10, "velocity": 40}, {"time": 85680, "pitch": 36, "duration": 10, "velocity": 83}, {"time": 85680, "pitch": 42, "duration": 20, "velocity": 58}, {"time": 85680, "pitch": 75, "duration": 30, "velocity": 81}, {"time": 85810, "pitch": 42, "duration": 10, "velocity": 52}, {"time": 85920, "pitch": 36, "duration": 10, "velocity": 110}, {"time": 85920, "pitch": 42, "duration": 20, "velocity": 116}, {"time": 85920, "pitch": 75, "duration": 30, "velocity": 88}, {"time": 86050, "pitch": 42, "duration": 10, "velocity": 44}, {"time": 86160, "pitch": 42, "duration": 10, "velocity": 69}, {"time": 86160, "pitch": 75, "duration": 20, "velocity": 81}, {"time": 86290, "pitch": 42, "duration": 10, "velocity": 47}, {"time": 86400, "pitch": 40, "duration": 10, "velocity": 108}, {"time": 86400, "pitch": 42, "duration": 20, "velocity": 103}, {"time": 86520, "pitch": 42, "duration": 10, "velocity": 37}, {"time": 86520, "pitch": 75, "duration": 20, "velocity": 83}, {"time": 86640, "pitch": 42, "duration": 10, "velocity": 59}, {"time": 86760, "pitch": 42, "duration": 10, "velocity": 93}, {"time": 86760, "pitch": 75, "duration": 20, "velocity": 85}, {"time": 86870, "pitch": 42, "duration": 10, "velocity": 103}, {"time": 86880, "pitch": 36, "duration": 10, "velocity": 110}, {"time": 87000, "pitch": 42, "duration": 10, "velocity": 44}, {"time": 87000, "pitch": 75, "duration": 20, "velocity": 70}, {"time": 87130, "pitch": 42, "duration": 10, "velocity": 61}, {"time": 87240, "pitch": 75, "duration": 10, "velocity": 78}, {"time": 87250, "pitch": 42, "duration": 10, "velocity": 64}, {"time": 87360, "pitch": 40, "duration": 10, "velocity": 108}, {"time": 87360, "pitch": 42, "duration": 20, "velocity": 96}, {"time": 87360, "pitch": 75, "duration": 30, "velocity": 43}, {"time": 87480, "pitch": 42, "duration": 10, "velocity": 46}, {"time": 87600, "pitch": 36, "duration": 10, "velocity": 83}, {"time": 87600, "pitch": 42, "duration": 20, "velocity": 62}, {"time": 87600, "pitch": 75, "duration": 30, "velocity": 81}, {"time": 87730, "pitch": 42, "duration": 10, "velocity": 67}, {"time": 87840, "pitch": 36, "duration": 10, "velocity": 110}, {"time": 87840, "pitch": 42, "duration": 20, "velocity": 114}, {"time": 87840, "pitch": 75, "duration": 30, "velocity": 88}, {"time": 87970, "pitch": 42, "duration": 10, "velocity": 38}, {"time": 88080, "pitch": 42, "duration": 10, "velocity": 55}, {"time": 88080, "pitch": 75, "duration": 20, "velocity": 81}, {"time": 88200, "pitch": 42, "duration": 10, "velocity": 54}, {"time": 88310, "pitch": 42, "duration": 10, "velocity": 105}, {"time": 88320, "pitch": 40, "duration": 10, "velocity": 108}, {"time": 88440, "pitch": 42, "duration": 10, "velocity": 37}, {"time": 88440, "pitch": 75, "duration": 20, "velocity": 83}, {"time": 88560, "pitch": 36, "duration": 10, "velocity": 83}, {"time": 88560, "pitch": 42, "duration": 20, "velocity": 67}, {"time": 88680, "pitch": 42, "duration": 10, "velocity": 90}, {"time": 88680, "pitch": 75, "duration": 20, "velocity": 85}, {"time": 88800, "pitch": 36, "duration": 10, "velocity": 110}, {"time": 88800, "pitch": 42, "duration": 20, "velocity": 94}, {"time": 88920, "pitch": 40, "duration": 10, "velocity": 108}, {"time": 88920, "pitch": 42, "duration": 20, "velocity": 43}, {"time": 88920, "pitch": 75, "duration": 30, "velocity": 70}, {"time": 89040, "pitch": 42, "duration": 10, "velocity": 66}, {"time": 89160, "pitch": 42, "duration": 10, "velocity": 63}, {"time": 89160, "pitch": 75, "duration": 20, "velocity": 78}, {"time": 89270, "pitch": 42, "duration": 10, "velocity": 116}, {"time": 89280, "pitch": 40, "duration": 10, "velocity": 108}, {"time": 89280, "pitch": 75, "duration": 20, "velocity": 43}, {"time": 89410, "pitch": 42, "duration": 10, "velocity": 40}, {"time": 89520, "pitch": 36, "duration": 10, "velocity": 83}, {"time": 89520, "pitch": 42, "duration": 20, "velocity": 58}, {"time": 89520, "pitch": 75, "duration": 30, "velocity": 81}, {"time": 89650, "pitch": 42, "duration": 10, "velocity": 52}, {"time": 89760, "pitch": 36, "duration": 10, "velocity": 110}, {"time": 89760, "pitch": 42, "duration": 20, "velocity": 116}, {"time": 89760, "pitch": 57, "duration": 30, "velocity": 100}, {"time": 89890, "pitch": 42, "duration": 10, "velocity": 44}, {"time": 90000, "pitch": 42, "duration": 10, "velocity": 69}, {"time": 90130, "pitch": 42, "duration": 10, "velocity": 47}, {"time": 90240, "pitch": 40, "duration": 10, "velocity": 108}, {"time": 90240, "pitch": 42, "duration": 20, "velocity": 103}, {"time": 90360, "pitch": 42, "duration": 10, "velocity": 37}, {"time": 90480, "pitch": 42, "duration": 10, "velocity": 59}, {"time": 90600, "pitch": 42, "duration": 10, "velocity": 93}, {"time": 90710, "pitch": 42, "duration": 10, "velocity": 103}, {"time": 90720, "pitch": 36, "duration": 10, "velocity": 110}, {"time": 90840, "pitch": 42, "duration": 10, "velocity": 44}, {"time": 90970, "pitch": 42, "duration": 10, "velocity": 61}, {"time": 91090, "pitch": 42, "duration": 10, "velocity": 64}, {"time": 91200, "pitch": 40, "duration": 10, "velocity": 108}, {"time": 91200, "pitch": 42, "duration": 20, "velocity": 96}, {"time": 91320, "pitch": 42, "duration": 10, "velocity": 46}, {"time": 91440, "pitch": 42, "duration": 10, "velocity": 62}, {"time": 91570, "pitch": 42, "duration": 10, "velocity": 67}, {"time": 91680, "pitch": 36, "duration": 10, "velocity": 110}, {"time": 91680, "pitch": 42, "duration": 20, "velocity": 114}, {"time": 91810, "pitch": 42, "duration": 10, "velocity": 38}, {"time": 91920, "pitch": 42, "duration": 10, "velocity": 55}, {"time": 92040, "pitch": 42, "duration": 10, "velocity": 54}, {"time": 92150, "pitch": 42, "duration": 10, "velocity": 105}, {"time": 92160, "pitch": 40, "duration": 10, "velocity": 108}, {"time": 92280, "pitch": 42, "duration": 10, "velocity": 37}, {"time": 92400, "pitch": 42, "duration": 10, "velocity": 67}, {"time": 92520, "pitch": 42, "duration": 10, "velocity": 90}, {"time": 92640, "pitch": 36, "duration": 10, "velocity": 110}, {"time": 92640, "pitch": 42, "duration": 20, "velocity": 94}, {"time": 92760, "pitch": 42, "duration": 10, "velocity": 43}, {"time": 92880, "pitch": 42, "duration": 10, "velocity": 66}, {"time": 93000, "pitch": 42, "duration": 10, "velocity": 63}, {"time": 93110, "pitch": 42, "duration": 10, "velocity": 116}, {"time": 93120, "pitch": 40, "duration": 10, "velocity": 108}, {"time": 93250, "pitch": 42, "duration": 10, "velocity": 40}, {"time": 93360, "pitch": 36, "duration": 10, "velocity": 83}, {"time": 93360, "pitch": 42, "duration": 20, "velocity": 58}, {"time": 93490, "pitch": 42, "duration": 10, "velocity": 52}, {"time": 93600, "pitch": 36, "duration": 10, "velocity": 110}, {"time": 93600, "pitch": 42, "duration": 20, "velocity": 116}, {"time": 93730, "pitch": 42, "duration": 10, "velocity": 44}, {"time": 93840, "pitch": 42, "duration": 10, "velocity": 69}, {"time": 93970, "pitch": 42, "duration": 10, "velocity": 47}, {"time": 94080, "pitch": 40, "duration": 10, "velocity": 108}, {"time": 94080, "pitch": 42, "duration": 20, "velocity": 103}, {"time": 94200, "pitch": 42, "duration": 10, "velocity": 37}, {"time": 94320, "pitch": 42, "duration": 10, "velocity": 59}, {"time": 94440, "pitch": 42, "duration": 10, "velocity": 93}, {"time": 94550, "pitch": 42, "duration": 10, "velocity": 103}, {"time": 94560, "pitch": 36, "duration": 10, "velocity": 110}, {"time": 94680, "pitch": 42, "duration": 10, "velocity": 44}, {"time": 94810, "pitch": 42, "duration": 10, "velocity": 61}, {"time": 94930, "pitch": 42, "duration": 10, "velocity": 64}, {"time": 95040, "pitch": 40, "duration": 10, "velocity": 108}, {"time": 95040, "pitch": 42, "duration": 20, "velocity": 96}, {"time": 95160, "pitch": 42, "duration": 10, "velocity": 46}, {"time": 95280, "pitch": 42, "duration": 10, "velocity": 62}, {"time": 95410, "pitch": 42, "duration": 10, "velocity": 67}, {"time": 95520, "pitch": 36, "duration": 10, "velocity": 110}, {"time": 95520, "pitch": 42, "duration": 20, "velocity": 114}, {"time": 95650, "pitch": 42, "duration": 10, "velocity": 38}, {"time": 95760, "pitch": 42, "duration": 10, "velocity": 55}, {"time": 95880, "pitch": 42, "duration": 10, "velocity": 54}, {"time": 95990, "pitch": 42, "duration": 10, "velocity": 105}, {"time": 96000, "pitch": 40, "duration": 10, "velocity": 108}, {"time": 96120, "pitch": 42, "duration": 10, "velocity": 37}, {"time": 96240, "pitch": 42, "duration": 10, "velocity": 67}, {"time": 96360, "pitch": 42, "duration": 10, "velocity": 90}, {"time": 96480, "pitch": 36, "duration": 10, "velocity": 110}, {"time": 96480, "pitch": 42, "duration": 20, "velocity": 94}, {"time": 96600, "pitch": 42, "duration": 10, "velocity": 43}, {"time": 96720, "pitch": 42, "duration": 10, "velocity": 66}, {"time": 96840, "pitch": 42, "duration": 10, "velocity": 63}, {"time": 96950, "pitch": 42, "duration": 10, "velocity": 116}, {"time": 96960, "pitch": 40, "duration": 10, "velocity": 108}, {"time": 97090, "pitch": 42, "duration": 10, "velocity": 40}, {"time": 97200, "pitch": 36, "duration": 10, "velocity": 83}, {"time": 97200, "pitch": 42, "duration": 20, "velocity": 58}, {"time": 97330, "pitch": 42, "duration": 10, "velocity": 52}, {"time": 97440, "pitch": 36, "duration": 10, "velocity": 110}, {"time": 97440, "pitch": 42, "duration": 20, "velocity": 116}, {"time": 97440, "pitch": 57, "duration": 30, "velocity": 100}, {"time": 97570, "pitch": 42, "duration": 10, "velocity": 44}, {"time": 97680, "pitch": 42, "duration": 10, "velocity": 69}, {"time": 97810, "pitch": 42, "duration": 10, "velocity": 47}, {"time": 97920, "pitch": 40, "duration": 10, "velocity": 108}, {"time": 97920, "pitch": 42, "duration": 20, "velocity": 103}, {"time": 98040, "pitch": 42, "duration": 10, "velocity": 37}, {"time": 98160, "pitch": 42, "duration": 10, "velocity": 59}, {"time": 98280, "pitch": 42, "duration": 10, "velocity": 93}, {"time": 98390, "pitch": 42, "duration": 10, "velocity": 103}, {"time": 98400, "pitch": 36, "duration": 10, "velocity": 110}, {"time": 98520, "pitch": 42, "duration": 10, "velocity": 44}, {"time": 98650, "pitch": 42, "duration": 10, "velocity": 61}, {"time": 98770, "pitch": 42, "duration": 10, "velocity": 64}, {"time": 98880, "pitch": 40, "duration": 10, "velocity": 108}, {"time": 98880, "pitch": 42, "duration": 20, "velocity": 96}, {"time": 99000, "pitch": 42, "duration": 10, "velocity": 46}, {"time": 99120, "pitch": 36, "duration": 10, "velocity": 83}, {"time": 99120, "pitch": 42, "duration": 20, "velocity": 62}, {"time": 99250, "pitch": 42, "duration": 10, "velocity": 67}, {"time": 99360, "pitch": 36, "duration": 10, "velocity": 110}, {"time": 99360, "pitch": 46, "duration": 20, "velocity": 116}, {"time": 99480, "pitch": 44, "duration": 10, "velocity": 68}, {"time": 100320, "pitch": 36, "duration": 10, "velocity": 120}, {"time": 100440, "pitch": 40, "duration": 10, "velocity": 110}, {"time": 100680, "pitch": 36, "duration": 10, "velocity": 120}, {"time": 100800, "pitch": 40, "duration": 10, "velocity": 110}, {"time": 101040, "pitch": 36, "duration": 10, "velocity": 120}, {"time": 101280, "pitch": 36, "duration": 10, "velocity": 110}, {"time": 101280, "pitch": 42, "duration": 20, "velocity": 116}, {"time": 101280, "pitch": 57, "duration": 30, "velocity": 100}, {"time": 101410, "pitch": 42, "duration": 10, "velocity": 44}, {"time": 101520, "pitch": 42, "duration": 10, "velocity": 69}, {"time": 101650, "pitch": 42, "duration": 10, "velocity": 47}, {"time": 101760, "pitch": 39, "duration": 30, "velocity": 110}, {"time": 101760, "pitch": 40, "duration": 10, "velocity": 108}, {"time": 101760, "pitch": 42, "duration": 20, "velocity": 103}, {"time": 101880, "pitch": 42, "duration": 10, "velocity": 37}, {"time": 102000, "pitch": 42, "duration": 10, "velocity": 59}, {"time": 102120, "pitch": 36, "duration": 10, "velocity": 110}, {"time": 102120, "pitch": 42, "duration": 20, "velocity": 93}, {"time": 102230, "pitch": 42, "duration": 10, "velocity": 103}, {"time": 102240, "pitch": 36, "duration": 10, "velocity": 110}, {"time": 102360, "pitch": 42, "duration": 10, "velocity": 44}, {"time": 102480, "pitch": 36, "duration": 10, "velocity": 110}, {"time": 102490, "pitch": 42, "duration": 10, "velocity": 61}, {"time": 102610, "pitch": 42, "duration": 10, "velocity": 64}, {"time": 102720, "pitch": 39, "duration": 30, "velocity": 110}, {"time": 102720, "pitch": 40, "duration": 10, "velocity": 108}, {"time": 102720, "pitch": 42, "duration": 20, "velocity": 96}, {"time": 102840, "pitch": 42, "duration": 10, "velocity": 46}, {"time": 102960, "pitch": 36, "duration": 10, "velocity": 83}, {"time": 102960, "pitch": 42, "duration": 20, "velocity": 62}, {"time": 103090, "pitch": 42, "duration": 10, "velocity": 67}, {"time": 103200, "pitch": 36, "duration": 10, "velocity": 110}, {"time": 103200, "pitch": 42, "duration": 20, "velocity": 114}, {"time": 103330, "pitch": 42, "duration": 10, "velocity": 38}, {"time": 103440, "pitch": 42, "duration": 10, "velocity": 55}, {"time": 103560, "pitch": 42, "duration": 10, "velocity": 54}, {"time": 103670, "pitch": 42, "duration": 10, "velocity": 105}, {"time": 103680, "pitch": 39, "duration": 20, "velocity": 110}, {"time": 103680, "pitch": 40, "duration": 10, "velocity": 108}, {"time": 103800, "pitch": 42, "duration": 10, "velocity": 37}, {"time": 103920, "pitch": 36, "duration": 10, "velocity": 110}, {"time": 103920, "pitch": 42, "duration": 20, "velocity": 67}, {"time": 104040, "pitch": 42, "duration": 10, "velocity": 90}, {"time": 104160, "pitch": 36, "duration": 10, "velocity": 110}, {"time": 104160, "pitch": 42, "duration": 20, "velocity": 94}, {"time": 104280, "pitch": 42, "duration": 10, "velocity": 43}, {"time": 104400, "pitch": 39, "duration": 20, "velocity": 110}, {"time": 104400, "pitch": 42, "duration": 10, "velocity": 66}, {"time": 104520, "pitch": 42, "duration": 10, "velocity": 63}, {"time": 104630, "pitch": 42, "duration": 10, "velocity": 116}, {"time": 104640, "pitch": 39, "duration": 20, "velocity": 110}, {"time": 104640, "pitch": 40, "duration": 10, "velocity": 108}, {"time": 104770, "pitch": 42, "duration": 10, "velocity": 40}, {"time": 104880, "pitch": 36, "duration": 10, "velocity": 83}, {"time": 104880, "pitch": 42, "duration": 20, "velocity": 58}, {"time": 105010, "pitch": 42, "duration": 10, "velocity": 52}, {"time": 105120, "pitch": 36, "duration": 10, "velocity": 110}, {"time": 105120, "pitch": 42, "duration": 20, "velocity": 116}, {"time": 105250, "pitch": 42, "duration": 10, "velocity": 44}, {"time": 105360, "pitch": 42, "duration": 10, "velocity": 69}, {"time": 105490, "pitch": 42, "duration": 10, "velocity": 47}, {"time": 105600, "pitch": 39, "duration": 30, "velocity": 110}, {"time": 105600, "pitch": 40, "duration": 10, "velocity": 108}, {"time": 105600, "pitch": 42, "duration": 20, "velocity": 103}, {"time": 105720, "pitch": 42, "duration": 10, "velocity": 37}, {"time": 105840, "pitch": 36, "duration": 10, "velocity": 110}, {"time": 105840, "pitch": 42, "duration": 20, "velocity": 59}, {"time": 105960, "pitch": 42, "duration": 10, "velocity": 93}, {"time": 106070, "pitch": 42, "duration": 10, "velocity": 103}, {"time": 106080, "pitch": 36, "duration": 10, "velocity": 110}, {"time": 106200, "pitch": 42, "duration": 10, "velocity": 44}, {"time": 106330, "pitch": 42, "duration": 10, "velocity": 61}, {"time": 106450, "pitch": 42, "duration": 10, "velocity": 64}, {"time": 106560, "pitch": 39, "duration": 30, "velocity": 110}, {"time": 106560, "pitch": 40, "duration": 10, "velocity": 108}, {"time": 106560, "pitch": 42, "duration": 20, "velocity": 96}, {"time": 106680, "pitch": 42, "duration": 10, "velocity": 46}, {"time": 106800, "pitch": 36, "duration": 10, "velocity": 83}, {"time": 106800, "pitch": 42, "duration": 20, "velocity": 62}, {"time": 106930, "pitch": 42, "duration": 10, "velocity": 67}, {"time": 107040, "pitch": 36, "duration": 10, "velocity": 110}, {"time": 107040, "pitch": 42, "duration": 20, "velocity": 114}, {"time": 107170, "pitch": 42, "duration": 10, "velocity": 38}, {"time": 107280, "pitch": 42, "duration": 10, "velocity": 55}, {"time": 107400, "pitch": 42, "duration": 10, "velocity": 54}, {"time": 107510, "pitch": 42, "duration": 10, "velocity": 105}, {"time": 107520, "pitch": 39, "duration": 20, "velocity": 110}, {"time": 107520, "pitch": 40, "duration": 10, "velocity": 108}, {"time": 107640, "pitch": 42, "duration": 10, "velocity": 37}, {"time": 107760, "pitch": 36, "duration": 10, "velocity": 110}, {"time": 107760, "pitch": 42, "duration": 20, "velocity": 67}, {"time": 107880, "pitch": 42, "duration": 10, "velocity": 90}, {"time": 108000, "pitch": 36, "duration": 10, "velocity": 110}, {"time": 108000, "pitch": 42, "duration": 20, "velocity": 94}, {"time": 108120, "pitch": 42, "duration": 10, "velocity": 43}, {"time": 108240, "pitch": 39, "duration": 20, "velocity": 110}, {"time": 108240, "pitch": 42, "duration": 10, "velocity": 66}, {"time": 108360, "pitch": 42, "duration": 10, "velocity": 63}, {"time": 108470, "pitch": 42, "duration": 10, "velocity": 116}, {"time": 108480, "pitch": 39, "duration": 20, "velocity": 110}, {"time": 108480, "pitch": 40, "duration": 10, "velocity": 108}, {"time": 108610, "pitch": 42, "duration": 10, "velocity": 40}, {"time": 108720, "pitch": 36, "duration": 10, "velocity": 112}, {"time": 108720, "pitch": 46, "duration": 20, "velocity": 117}, {"time": 108850, "pitch": 42, "duration": 10, "velocity": 52}, {"time": 108960, "pitch": 36, "duration": 10, "velocity": 110}, {"time": 108960, "pitch": 42, "duration": 20, "velocity": 116}, {"time": 108960, "pitch": 57, "duration": 30, "velocity": 100}, {"time": 109090, "pitch": 42, "duration": 10, "velocity": 44}, {"time": 109200, "pitch": 42, "duration": 10, "velocity": 69}, {"time": 109330, "pitch": 42, "duration": 10, "velocity": 47}, {"time": 109440, "pitch": 39, "duration": 30, "velocity": 110}, {"time": 109440, "pitch": 40, "duration": 10, "velocity": 108}, {"time": 109440, "pitch": 42, "duration": 20, "velocity": 103}, {"time": 109560, "pitch": 42, "duration": 10, "velocity": 37}, {"time": 109680, "pitch": 36, "duration": 10, "velocity": 110}, {"time": 109680, "pitch": 42, "duration": 20, "velocity": 59}, {"time": 109800, "pitch": 42, "duration": 10, "velocity": 93}, {"time": 109910, "pitch": 42, "duration": 10, "velocity": 103}, {"time": 109920, "pitch": 36, "duration": 10, "velocity": 110}, {"time": 110040, "pitch": 42, "duration": 10, "velocity": 44}, {"time": 110170, "pitch": 42, "duration": 10, "velocity": 61}, {"time": 110290, "pitch": 42, "duration": 10, "velocity": 64}, {"time": 110400, "pitch": 39, "duration": 30, "velocity": 110}, {"time": 110400, "pitch": 40, "duration": 10, "velocity": 108}, {"time": 110400, "pitch": 42, "duration": 20, "velocity": 96}, {"time": 110520, "pitch": 42, "duration": 10, "velocity": 46}, {"time": 110640, "pitch": 36, "duration": 10, "velocity": 83}, {"time": 110640, "pitch": 42, "duration": 20, "velocity": 62}, {"time": 110770, "pitch": 42, "duration": 10, "velocity": 67}, {"time": 110880, "pitch": 36, "duration": 10, "velocity": 110}, {"time": 110880, "pitch": 42, "duration": 20, "velocity": 114}, {"time": 111010, "pitch": 42, "duration": 10, "velocity": 38}, {"time": 111120, "pitch": 42, "duration": 10, "velocity": 55}, {"time": 111240, "pitch": 42, "duration": 10, "velocity": 54}, {"time": 111350, "pitch": 42, "duration": 10, "velocity": 105}, {"time": 111360, "pitch": 39, "duration": 20, "velocity": 110}, {"time": 111360, "pitch": 40, "duration": 10, "velocity": 108}, {"time": 111480, "pitch": 42, "duration": 10, "velocity": 37}, {"time": 111600, "pitch": 36, "duration": 10, "velocity": 110}, {"time": 111600, "pitch": 42, "duration": 20, "velocity": 67}, {"time": 111720, "pitch": 42, "duration": 10, "velocity": 90}, {"time": 111840, "pitch": 36, "duration": 10, "velocity": 110}, {"time": 111840, "pitch": 42, "duration": 20, "velocity": 94}, {"time": 111960, "pitch": 42, "duration": 10, "velocity": 43}, {"time": 112080, "pitch": 39, "duration": 20, "velocity": 110}, {"time": 112080, "pitch": 42, "duration": 10, "velocity": 66}, {"time": 112200, "pitch": 42, "duration": 10, "velocity": 63}, {"time": 112310, "pitch": 42, "duration": 10, "velocity": 116}, {"time": 112320, "pitch": 39, "duration": 20, "velocity": 110}, {"time": 112320, "pitch": 40, "duration": 10, "velocity": 108}, {"time": 112450, "pitch": 42, "duration": 10, "velocity": 40}, {"time": 112560, "pitch": 36, "duration": 10, "velocity": 83}, {"time": 112560, "pitch": 42, "duration": 20, "velocity": 58}, {"time": 112690, "pitch": 42, "duration": 10, "velocity": 52}, {"time": 112800, "pitch": 36, "duration": 10, "velocity": 110}, {"time": 112800, "pitch": 42, "duration": 20, "velocity": 116}, {"time": 112930, "pitch": 42, "duration": 10, "velocity": 44}, {"time": 113040, "pitch": 42, "duration": 10, "velocity": 69}, {"time": 113170, "pitch": 42, "duration": 10, "velocity": 47}, {"time": 113280, "pitch": 39, "duration": 30, "velocity": 110}, {"time": 113280, "pitch": 40, "duration": 10, "velocity": 108}, {"time": 113280, "pitch": 42, "duration": 20, "velocity": 103}, {"time": 113400, "pitch": 42, "duration": 10, "velocity": 37}, {"time": 113520, "pitch": 36, "duration": 10, "velocity": 110}, {"time": 113520, "pitch": 42, "duration": 20, "velocity": 59}, {"time": 113640, "pitch": 42, "duration": 10, "velocity": 93}, {"time": 113750, "pitch": 42, "duration": 10, "velocity": 103}, {"time": 113760, "pitch": 36, "duration": 10, "velocity": 110}, {"time": 113880, "pitch": 42, "duration": 10, "velocity": 44}, {"time": 114010, "pitch": 42, "duration": 10, "velocity": 61}, {"time": 114130, "pitch": 42, "duration": 10, "velocity": 64}, {"time": 114240, "pitch": 39, "duration": 30, "velocity": 110}, {"time": 114240, "pitch": 40, "duration": 10, "velocity": 108}, {"time": 114240, "pitch": 42, "duration": 20, "velocity": 96}, {"time": 114360, "pitch": 42, "duration": 10, "velocity": 46}, {"time": 114480, "pitch": 36, "duration": 10, "velocity": 83}, {"time": 114480, "pitch": 42, "duration": 20, "velocity": 62}, {"time": 114610, "pitch": 42, "duration": 10, "velocity": 67}, {"time": 114720, "pitch": 36, "duration": 10, "velocity": 110}, {"time": 114720, "pitch": 42, "duration": 20, "velocity": 114}, {"time": 114850, "pitch": 42, "duration": 10, "velocity": 38}, {"time": 114960, "pitch": 42, "duration": 10, "velocity": 55}, {"time": 115080, "pitch": 42, "duration": 10, "velocity": 54}, {"time": 115190, "pitch": 42, "duration": 10, "velocity": 105}, {"time": 115200, "pitch": 39, "duration": 20, "velocity": 110}, {"time": 115200, "pitch": 40, "duration": 10, "velocity": 108}, {"time": 115320, "pitch": 42, "duration": 10, "velocity": 37}, {"time": 115440, "pitch": 36, "duration": 10, "velocity": 110}, {"time": 115440, "pitch": 42, "duration": 20, "velocity": 67}, {"time": 115560, "pitch": 42, "duration": 10, "velocity": 90}, {"time": 115680, "pitch": 36, "duration": 10, "velocity": 110}, {"time": 115680, "pitch": 42, "duration": 20, "velocity": 94}, {"time": 115800, "pitch": 42, "duration": 10, "velocity": 43}, {"time": 115920, "pitch": 39, "duration": 20, "velocity": 110}, {"time": 115920, "pitch": 42, "duration": 10, "velocity": 66}, {"time": 116040, "pitch": 42, "duration": 10, "velocity": 63}, {"time": 116150, "pitch": 42, "duration": 10, "velocity": 116}, {"time": 116160, "pitch": 39, "duration": 20, "velocity": 110}, {"time": 116160, "pitch": 40, "duration": 10, "velocity": 108}, {"time": 116290, "pitch": 42, "duration": 10, "velocity": 40}, {"time": 116400, "pitch": 36, "duration": 10, "velocity": 83}, {"time": 116400, "pitch": 42, "duration": 20, "velocity": 58}, {"time": 116530, "pitch": 42, "duration": 10, "velocity": 52}, {"time": 116640, "pitch": 36, "duration": 10, "velocity": 110}, {"time": 116640, "pitch": 42, "duration": 20, "velocity": 114}, {"time": 116770, "pitch": 42, "duration": 10, "velocity": 38}, {"time": 116880, "pitch": 42, "duration": 10, "velocity": 55}, {"time": 117000, "pitch": 42, "duration": 10, "velocity": 54}, {"time": 117110, "pitch": 42, "duration": 10, "velocity": 105}, {"time": 117120, "pitch": 40, "duration": 10, "velocity": 108}, {"time": 117240, "pitch": 42, "duration": 10, "velocity": 37}, {"time": 117360, "pitch": 42, "duration": 10, "velocity": 67}, {"time": 117480, "pitch": 42, "duration": 10, "velocity": 90}, {"time": 117600, "pitch": 36, "duration": 10, "velocity": 110}, {"time": 117600, "pitch": 42, "duration": 20, "velocity": 94}, {"time": 117720, "pitch": 42, "duration": 10, "velocity": 43}, {"time": 117840, "pitch": 42, "duration": 10, "velocity": 66}, {"time": 117960, "pitch": 42, "duration": 10, "velocity": 63}, {"time": 118070, "pitch": 42, "duration": 10, "velocity": 116}, {"time": 118080, "pitch": 40, "duration": 10, "velocity": 108}, {"time": 118210, "pitch": 42, "duration": 10, "velocity": 40}, {"time": 118320, "pitch": 36, "duration": 10, "velocity": 83}, {"time": 118320, "pitch": 42, "duration": 20, "velocity": 58}, {"time": 118450, "pitch": 42, "duration": 10, "velocity": 52}, {"time": 118560, "pitch": 36, "duration": 10, "velocity": 110}, {"time": 118560, "pitch": 42, "duration": 20, "velocity": 116}, {"time": 118690, "pitch": 42, "duration": 10, "velocity": 44}, {"time": 118800, "pitch": 42, "duration": 10, "velocity": 69}, {"time": 118930, "pitch": 42, "duration": 10, "velocity": 47}, {"time": 119040, "pitch": 40, "duration": 10, "velocity": 108}, {"time": 119040, "pitch": 42, "duration": 20, "velocity": 103}, {"time": 119160, "pitch": 42, "duration": 10, "velocity": 37}, {"time": 119280, "pitch": 42, "duration": 10, "velocity": 59}, {"time": 119400, "pitch": 42, "duration": 10, "velocity": 93}, {"time": 119510, "pitch": 42, "duration": 10, "velocity": 103}, {"time": 119520, "pitch": 36, "duration": 10, "velocity": 110}, {"time": 119640, "pitch": 42, "duration": 10, "velocity": 44}, {"time": 119770, "pitch": 42, "duration": 10, "velocity": 61}, {"time": 119890, "pitch": 42, "duration": 10, "velocity": 64}, {"time": 120000, "pitch": 40, "duration": 10, "velocity": 108}, {"time": 120000, "pitch": 42, "duration": 20, "velocity": 96}, {"time": 120120, "pitch": 42, "duration": 10, "velocity": 46}, {"time": 120240, "pitch": 36, "duration": 10, "velocity": 83}, {"time": 120240, "pitch": 42, "duration": 20, "velocity": 62}, {"time": 120370, "pitch": 42, "duration": 10, "velocity": 67}, {"time": 120480, "pitch": 36, "duration": 10, "velocity": 110}, {"time": 120480, "pitch": 42, "duration": 20, "velocity": 114}, {"time": 120610, "pitch": 42, "duration": 10, "velocity": 38}, {"time": 120720, "pitch": 42, "duration": 10, "velocity": 55}, {"time": 120840, "pitch": 42, "duration": 10, "velocity": 54}, {"time": 120950, "pitch": 42, "duration": 10, "velocity": 105}, {"time": 120960, "pitch": 40, "duration": 10, "velocity": 108}, {"time": 121080, "pitch": 42, "duration": 10, "velocity": 37}, {"time": 121200, "pitch": 42, "duration": 10, "velocity": 67}, {"time": 121320, "pitch": 42, "duration": 10, "velocity": 90}, {"time": 121440, "pitch": 36, "duration": 10, "velocity": 110}, {"time": 121440, "pitch": 42, "duration": 20, "velocity": 94}, {"time": 121560, "pitch": 42, "duration": 10, "velocity": 43}, {"time": 121680, "pitch": 42, "duration": 10, "velocity": 66}, {"time": 121800, "pitch": 42, "duration": 10, "velocity": 63}, {"time": 121910, "pitch": 42, "duration": 10, "velocity": 116}, {"time": 121920, "pitch": 40, "duration": 10, "velocity": 108}, {"time": 122050, "pitch": 42, "duration": 10, "velocity": 40}, {"time": 122160, "pitch": 36, "duration": 10, "velocity": 83}, {"time": 122160, "pitch": 42, "duration": 20, "velocity": 58}, {"time": 122290, "pitch": 42, "duration": 10, "velocity": 52}, {"time": 122400, "pitch": 36, "duration": 10, "velocity": 110}, {"time": 122400, "pitch": 42, "duration": 20, "velocity": 116}, {"time": 122530, "pitch": 42, "duration": 10, "velocity": 44}, {"time": 122640, "pitch": 42, "duration": 10, "velocity": 69}, {"time": 122770, "pitch": 42, "duration": 10, "velocity": 47}, {"time": 122880, "pitch": 40, "duration": 10, "velocity": 108}, {"time": 122880, "pitch": 42, "duration": 20, "velocity": 103}, {"time": 123000, "pitch": 42, "duration": 10, "velocity": 37}, {"time": 123120, "pitch": 42, "duration": 10, "velocity": 59}, {"time": 123240, "pitch": 42, "duration": 10, "velocity": 93}, {"time": 123350, "pitch": 42, "duration": 10, "velocity": 103}, {"time": 123360, "pitch": 36, "duration": 10, "velocity": 110}, {"time": 123480, "pitch": 42, "duration": 10, "velocity": 44}, {"time": 123610, "pitch": 42, "duration": 10, "velocity": 61}, {"time": 123730, "pitch": 42, "duration": 10, "velocity": 64}, {"time": 123840, "pitch": 40, "duration": 10, "velocity": 108}, {"time": 123840, "pitch": 42, "duration": 20, "velocity": 96}, {"time": 123960, "pitch": 42, "duration": 10, "velocity": 46}, {"time": 124080, "pitch": 36, "duration": 10, "velocity": 83}, {"time": 124080, "pitch": 42, "duration": 20, "velocity": 62}, {"time": 124210, "pitch": 42, "duration": 10, "velocity": 67}, {"time": 124320, "pitch": 36, "duration": 10, "velocity": 110}, {"time": 124320, "pitch": 42, "duration": 20, "velocity": 114}, {"time": 124450, "pitch": 42, "duration": 10, "velocity": 38}, {"time": 124560, "pitch": 42, "duration": 10, "velocity": 55}, {"time": 124680, "pitch": 42, "duration": 10, "velocity": 54}, {"time": 124790, "pitch": 42, "duration": 10, "velocity": 105}, {"time": 124800, "pitch": 40, "duration": 10, "velocity": 108}, {"time": 124920, "pitch": 42, "duration": 10, "velocity": 37}, {"time": 125040, "pitch": 42, "duration": 10, "velocity": 67}, {"time": 125160, "pitch": 42, "duration": 10, "velocity": 90}, {"time": 125280, "pitch": 36, "duration": 10, "velocity": 110}, {"time": 125280, "pitch": 42, "duration": 20, "velocity": 94}, {"time": 125400, "pitch": 42, "duration": 10, "velocity": 43}, {"time": 125520, "pitch": 42, "duration": 10, "velocity": 66}, {"time": 125640, "pitch": 42, "duration": 10, "velocity": 63}, {"time": 125750, "pitch": 42, "duration": 10, "velocity": 116}, {"time": 125760, "pitch": 40, "duration": 10, "velocity": 108}, {"time": 125890, "pitch": 42, "duration": 10, "velocity": 40}, {"time": 126000, "pitch": 36, "duration": 10, "velocity": 83}, {"time": 126000, "pitch": 42, "duration": 20, "velocity": 58}, {"time": 126130, "pitch": 42, "duration": 10, "velocity": 52}, {"time": 126240, "pitch": 36, "duration": 10, "velocity": 110}, {"time": 126240, "pitch": 42, "duration": 20, "velocity": 116}, {"time": 126370, "pitch": 42, "duration": 10, "velocity": 44}, {"time": 126480, "pitch": 42, "duration": 10, "velocity": 69}, {"time": 126610, "pitch": 42, "duration": 10, "velocity": 47}, {"time": 126720, "pitch": 40, "duration": 10, "velocity": 108}, {"time": 126720, "pitch": 42, "duration": 20, "velocity": 103}, {"time": 126840, "pitch": 42, "duration": 10, "velocity": 37}, {"time": 126960, "pitch": 42, "duration": 10, "velocity": 59}, {"time": 127080, "pitch": 42, "duration": 10, "velocity": 93}, {"time": 127190, "pitch": 42, "duration": 10, "velocity": 103}, {"time": 127200, "pitch": 36, "duration": 10, "velocity": 110}, {"time": 127320, "pitch": 42, "duration": 10, "velocity": 44}, {"time": 127450, "pitch": 42, "duration": 10, "velocity": 61}, {"time": 127570, "pitch": 42, "duration": 10, "velocity": 64}, {"time": 127680, "pitch": 40, "duration": 10, "velocity": 108}, {"time": 127680, "pitch": 42, "duration": 20, "velocity": 96}, {"time": 127800, "pitch": 42, "duration": 10, "velocity": 46}, {"time": 127920, "pitch": 36, "duration": 10, "velocity": 83}, {"time": 127920, "pitch": 42, "duration": 20, "velocity": 62}, {"time": 128050, "pitch": 42, "duration": 10, "velocity": 67}, {"time": 128160, "pitch": 36, "duration": 10, "velocity": 110}, {"time": 128160, "pitch": 42, "duration": 20, "velocity": 114}, {"time": 128290, "pitch": 42, "duration": 10, "velocity": 38}, {"time": 128400, "pitch": 42, "duration": 10, "velocity": 55}, {"time": 128520, "pitch": 42, "duration": 10, "velocity": 54}, {"time": 128630, "pitch": 42, "duration": 10, "velocity": 105}, {"time": 128640, "pitch": 40, "duration": 10, "velocity": 108}, {"time": 128760, "pitch": 42, "duration": 10, "velocity": 37}, {"time": 128880, "pitch": 42, "duration": 10, "velocity": 67}, {"time": 129000, "pitch": 42, "duration": 10, "velocity": 90}, {"time": 129120, "pitch": 36, "duration": 10, "velocity": 110}, {"time": 129120, "pitch": 42, "duration": 20, "velocity": 94}, {"time": 129240, "pitch": 42, "duration": 10, "velocity": 43}, {"time": 129360, "pitch": 42, "duration": 10, "velocity": 66}, {"time": 129480, "pitch": 42, "duration": 10, "velocity": 63}, {"time": 129590, "pitch": 42, "duration": 10, "velocity": 116}, {"time": 129600, "pitch": 40, "duration": 10, "velocity": 108}, {"time": 129730, "pitch": 42, "duration": 10, "velocity": 40}, {"time": 129840, "pitch": 36, "duration": 10, "velocity": 83}, {"time": 129840, "pitch": 42, "duration": 20, "velocity": 58}, {"time": 129970, "pitch": 42, "duration": 10, "velocity": 52}, {"time": 130080, "pitch": 36, "duration": 10, "velocity": 110}, {"time": 130080, "pitch": 46, "duration": 20, "velocity": 116}, {"time": 130210, "pitch": 42, "duration": 10, "velocity": 44}, {"time": 132000, "pitch": 40, "duration": 10, "velocity": 1}, {"time": 132040, "pitch": 40, "duration": 10, "velocity": 2}, {"time": 132080, "pitch": 40, "duration": 10, "velocity": 4}, {"time": 132120, "pitch": 40, "duration": 10, "velocity": 5}, {"time": 132160, "pitch": 40, "duration": 10, "velocity": 7}, {"time": 132200, "pitch": 40, "duration": 10, "velocity": 8}, {"time": 132240, "pitch": 40, "duration": 10, "velocity": 9}, {"time": 132280, "pitch": 40, "duration": 10, "velocity": 11}, {"time": 132320, "pitch": 40, "duration": 10, "velocity": 12}, {"time": 132360, "pitch": 40, "duration": 10, "velocity": 14}, {"time": 132400, "pitch": 40, "duration": 10, "velocity": 15}, {"time": 132440, "pitch": 40, "duration": 10, "velocity": 16}, {"time": 132480, "pitch": 40, "duration": 10, "velocity": 18}, {"time": 132520, "pitch": 40, "duration": 10, "velocity": 19}, {"time": 132560, "pitch": 40, "duration": 10, "velocity": 21}, {"time": 132600, "pitch": 40, "duration": 10, "velocity": 22}, {"time": 132640, "pitch": 40, "duration": 10, "velocity": 23}, {"time": 132680, "pitch": 40, "duration": 10, "velocity": 25}, {"time": 132720, "pitch": 40, "duration": 10, "velocity": 26}, {"time": 132760, "pitch": 40, "duration": 10, "velocity": 28}, {"time": 132800, "pitch": 40, "duration": 10, "velocity": 29}, {"time": 132840, "pitch": 40, "duration": 10, "velocity": 30}, {"time": 132880, "pitch": 40, "duration": 10, "velocity": 32}, {"time": 132920, "pitch": 40, "duration": 10, "velocity": 33}, {"time": 132960, "pitch": 40, "duration": 10, "velocity": 35}, {"time": 133000, "pitch": 40, "duration": 10, "velocity": 36}, {"time": 133040, "pitch": 40, "duration": 10, "velocity": 37}, {"time": 133080, "pitch": 40, "duration": 10, "velocity": 39}, {"time": 133120, "pitch": 40, "duration": 10, "velocity": 40}, {"time": 133160, "pitch": 40, "duration": 10, "velocity": 42}, {"time": 133200, "pitch": 40, "duration": 10, "velocity": 43}, {"time": 133240, "pitch": 40, "duration": 10, "velocity": 44}, {"time": 133280, "pitch": 40, "duration": 10, "velocity": 46}, {"time": 133320, "pitch": 40, "duration": 10, "velocity": 47}, {"time": 133360, "pitch": 40, "duration": 10, "velocity": 49}, {"time": 133400, "pitch": 40, "duration": 10, "velocity": 50}, {"time": 134880, "pitch": 40, "duration": 10, "velocity": 100}, {"time": 135000, "pitch": 36, "duration": 10, "velocity": 110}, {"time": 135120, "pitch": 40, "duration": 10, "velocity": 108}, {"time": 135360, "pitch": 36, "duration": 10, "velocity": 110}, {"time": 135360, "pitch": 42, "duration": 20, "velocity": 116}, {"time": 135360, "pitch": 57, "duration": 30, "velocity": 100}, {"time": 135490, "pitch": 42, "duration": 10, "velocity": 44}, {"time": 135600, "pitch": 42, "duration": 10, "velocity": 69}, {"time": 135730, "pitch": 42, "duration": 10, "velocity": 47}, {"time": 135840, "pitch": 40, "duration": 10, "velocity": 108}, {"time": 135840, "pitch": 42, "duration": 20, "velocity": 103}, {"time": 135960, "pitch": 42, "duration": 10, "velocity": 37}, {"time": 136080, "pitch": 42, "duration": 10, "velocity": 59}, {"time": 136200, "pitch": 42, "duration": 10, "velocity": 93}, {"time": 136310, "pitch": 42, "duration": 10, "velocity": 103}, {"time": 136320, "pitch": 36, "duration": 10, "velocity": 110}, {"time": 136440, "pitch": 42, "duration": 10, "velocity": 44}, {"time": 136570, "pitch": 42, "duration": 10, "velocity": 61}, {"time": 136690, "pitch": 42, "duration": 10, "velocity": 64}, {"time": 136800, "pitch": 40, "duration": 10, "velocity": 108}, {"time": 136800, "pitch": 42, "duration": 20, "velocity": 96}, {"time": 136920, "pitch": 42, "duration": 10, "velocity": 46}, {"time": 137040, "pitch": 36, "duration": 10, "velocity": 83}, {"time": 137040, "pitch": 42, "duration": 20, "velocity": 62}, {"time": 137170, "pitch": 42, "duration": 10, "velocity": 67}, {"time": 137280, "pitch": 36, "duration": 10, "velocity": 110}, {"time": 137280, "pitch": 42, "duration": 20, "velocity": 114}, {"time": 137410, "pitch": 42, "duration": 10, "velocity": 38}, {"time": 137520, "pitch": 42, "duration": 10, "velocity": 55}, {"time": 137640, "pitch": 42, "duration": 10, "velocity": 54}, {"time": 137750, "pitch": 42, "duration": 10, "velocity": 105}, {"time": 137760, "pitch": 40, "duration": 10, "velocity": 108}, {"time": 137880, "pitch": 42, "duration": 10, "velocity": 37}, {"time": 138000, "pitch": 42, "duration": 10, "velocity": 67}, {"time": 138120, "pitch": 42, "duration": 10, "velocity": 90}, {"time": 138240, "pitch": 36, "duration": 10, "velocity": 110}, {"time": 138240, "pitch": 42, "duration": 20, "velocity": 94}, {"time": 138360, "pitch": 42, "duration": 10, "velocity": 43}, {"time": 138480, "pitch": 42, "duration": 10, "velocity": 66}, {"time": 138600, "pitch": 42, "duration": 10, "velocity": 63}, {"time": 138710, "pitch": 42, "duration": 10, "velocity": 116}, {"time": 138720, "pitch": 40, "duration": 10, "velocity": 108}, {"time": 138850, "pitch": 42, "duration": 10, "velocity": 40}, {"time": 138960, "pitch": 36, "duration": 10, "velocity": 83}, {"time": 138960, "pitch": 42, "duration": 20, "velocity": 58}, {"time": 139090, "pitch": 42, "duration": 10, "velocity": 52}, {"time": 139200, "pitch": 36, "duration": 10, "velocity": 110}, {"time": 139200, "pitch": 42, "duration": 20, "velocity": 116}, {"time": 139330, "pitch": 42, "duration": 10, "velocity": 44}, {"time": 139440, "pitch": 42, "duration": 10, "velocity": 69}, {"time": 139570, "pitch": 42, "duration": 10, "velocity": 47}, {"time": 139680, "pitch": 40, "duration": 10, "velocity": 108}, {"time": 139680, "pitch": 42, "duration": 20, "velocity": 103}, {"time": 139800, "pitch": 42, "duration": 10, "velocity": 37}, {"time": 139920, "pitch": 42, "duration": 10, "velocity": 59}, {"time": 140040, "pitch": 42, "duration": 10, "velocity": 93}, {"time": 140150, "pitch": 42, "duration": 10, "velocity": 103}, {"time": 140160, "pitch": 36, "duration": 10, "velocity": 110}, {"time": 140280, "pitch": 42, "duration": 10, "velocity": 44}, {"time": 140410, "pitch": 42, "duration": 10, "velocity": 61}, {"time": 140530, "pitch": 42, "duration": 10, "velocity": 64}, {"time": 140640, "pitch": 40, "duration": 10, "velocity": 108}, {"time": 140640, "pitch": 42, "duration": 20, "velocity": 96}, {"time": 140760, "pitch": 42, "duration": 10, "velocity": 46}, {"time": 140880, "pitch": 36, "duration": 10, "velocity": 83}, {"time": 140880, "pitch": 42, "duration": 20, "velocity": 62}, {"time": 141010, "pitch": 42, "duration": 10, "velocity": 67}, {"time": 141120, "pitch": 36, "duration": 10, "velocity": 110}, {"time": 141120, "pitch": 42, "duration": 20, "velocity": 114}, {"time": 141250, "pitch": 42, "duration": 10, "velocity": 38}, {"time": 141360, "pitch": 42, "duration": 10, "velocity": 55}, {"time": 141480, "pitch": 42, "duration": 10, "velocity": 54}, {"time": 141590, "pitch": 42, "duration": 10, "velocity": 105}, {"time": 141600, "pitch": 40, "duration": 10, "velocity": 108}, {"time": 141720, "pitch": 42, "duration": 10, "velocity": 37}, {"time": 141840, "pitch": 42, "duration": 10, "velocity": 67}, {"time": 141960, "pitch": 42, "duration": 10, "velocity": 90}, {"time": 142080, "pitch": 36, "duration": 10, "velocity": 110}, {"time": 142080, "pitch": 42, "duration": 20, "velocity": 94}, {"time": 142200, "pitch": 42, "duration": 10, "velocity": 43}, {"time": 142320, "pitch": 42, "duration": 10, "velocity": 66}, {"time": 142440, "pitch": 42, "duration": 10, "velocity": 63}, {"time": 142550, "pitch": 42, "duration": 10, "velocity": 116}, {"time": 142560, "pitch": 40, "duration": 10, "velocity": 108}, {"time": 142690, "pitch": 42, "duration": 10, "velocity": 40}, {"time": 142800, "pitch": 36, "duration": 10, "velocity": 83}, {"time": 142800, "pitch": 42, "duration": 20, "velocity": 58}, {"time": 142930, "pitch": 42, "duration": 10, "velocity": 52}, {"time": 143040, "pitch": 36, "duration": 10, "velocity": 110}, {"time": 143040, "pitch": 42, "duration": 20, "velocity": 116}, {"time": 143040, "pitch": 57, "duration": 30, "velocity": 100}, {"time": 143170, "pitch": 42, "duration": 10, "velocity": 44}, {"time": 143280, "pitch": 42, "duration": 10, "velocity": 69}, {"time": 143410, "pitch": 42, "duration": 10, "velocity": 47}, {"time": 143520, "pitch": 40, "duration": 10, "velocity": 108}, {"time": 143520, "pitch": 42, "duration": 20, "velocity": 103}, {"time": 143640, "pitch": 42, "duration": 10, "velocity": 37}, {"time": 143760, "pitch": 42, "duration": 10, "velocity": 59}, {"time": 143880, "pitch": 42, "duration": 10, "velocity": 93}, {"time": 143990, "pitch": 42, "duration": 10, "velocity": 103}, {"time": 144000, "pitch": 36, "duration": 10, "velocity": 110}, {"time": 144120, "pitch": 42, "duration": 10, "velocity": 44}, {"time": 144250, "pitch": 42, "duration": 10, "velocity": 61}, {"time": 144370, "pitch": 42, "duration": 10, "velocity": 64}, {"time": 144480, "pitch": 40, "duration": 10, "velocity": 108}, {"time": 144480, "pitch": 42, "duration": 20, "velocity": 96}, {"time": 144600, "pitch": 42, "duration": 10, "velocity": 46}, {"time": 144720, "pitch": 36, "duration": 10, "velocity": 83}, {"time": 144720, "pitch": 42, "duration": 20, "velocity": 62}, {"time": 144850, "pitch": 42, "duration": 10, "velocity": 20}, {"time": 144960, "pitch": 36, "duration": 10, "velocity": 119}, {"time": 144960, "pitch": 46, "duration": 20, "velocity": 20}, {"time": 145080, "pitch": 44, "duration": 10, "velocity": 20}, {"time": 147840, "pitch": 36, "duration": 10, "velocity": 120}, {"time": 147960, "pitch": 40, "duration": 10, "velocity": 110}, {"time": 148200, "pitch": 36, "duration": 10, "velocity": 120}, {"time": 148320, "pitch": 40, "duration": 10, "velocity": 110}, {"time": 148560, "pitch": 36, "duration": 10, "velocity": 120}, {"time": 148800, "pitch": 36, "duration": 10, "velocity": 110}, {"time": 148800, "pitch": 42, "duration": 20, "velocity": 116}, {"time": 148800, "pitch": 57, "duration": 30, "velocity": 100}, {"time": 148930, "pitch": 42, "duration": 10, "velocity": 44}, {"time": 149040, "pitch": 42, "duration": 10, "velocity": 69}, {"time": 149170, "pitch": 42, "duration": 10, "velocity": 47}, {"time": 149280, "pitch": 39, "duration": 30, "velocity": 110}, {"time": 149280, "pitch": 40, "duration": 10, "velocity": 108}, {"time": 149280, "pitch": 42, "duration": 20, "velocity": 103}, {"time": 149400, "pitch": 42, "duration": 10, "velocity": 37}, {"time": 149520, "pitch": 42, "duration": 10, "velocity": 59}, {"time": 149640, "pitch": 36, "duration": 10, "velocity": 110}, {"time": 149640, "pitch": 42, "duration": 20, "velocity": 93}, {"time": 149750, "pitch": 42, "duration": 10, "velocity": 103}, {"time": 149760, "pitch": 36, "duration": 10, "velocity": 110}, {"time": 149880, "pitch": 42, "duration": 10, "velocity": 44}, {"time": 150000, "pitch": 36, "duration": 10, "velocity": 110}, {"time": 150010, "pitch": 42, "duration": 10, "velocity": 61}, {"time": 150130, "pitch": 42, "duration": 10, "velocity": 64}, {"time": 150240, "pitch": 39, "duration": 30, "velocity": 110}, {"time": 150240, "pitch": 40, "duration": 10, "velocity": 108}, {"time": 150240, "pitch": 42, "duration": 20, "velocity": 96}, {"time": 150360, "pitch": 42, "duration": 10, "velocity": 46}, {"time": 150480, "pitch": 36, "duration": 10, "velocity": 83}, {"time": 150480, "pitch": 42, "duration": 20, "velocity": 62}, {"time": 150610, "pitch": 42, "duration": 10, "velocity": 67}, {"time": 150720, "pitch": 36, "duration": 10, "velocity": 110}, {"time": 150720, "pitch": 42, "duration": 20, "velocity": 114}, {"time": 150850, "pitch": 42, "duration": 10, "velocity": 38}, {"time": 150960, "pitch": 42, "duration": 10, "velocity": 55}, {"time": 151080, "pitch": 42, "duration": 10, "velocity": 54}, {"time": 151190, "pitch": 42, "duration": 10, "velocity": 105}, {"time": 151200, "pitch": 39, "duration": 20, "velocity": 110}, {"time": 151200, "pitch": 40, "duration": 10, "velocity": 108}, {"time": 151320, "pitch": 42, "duration": 10, "velocity": 37}, {"time": 151440, "pitch": 36, "duration": 10, "velocity": 110}, {"time": 151440, "pitch": 42, "duration": 20, "velocity": 67}, {"time": 151560, "pitch": 42, "duration": 10, "velocity": 90}, {"time": 151680, "pitch": 36, "duration": 10, "velocity": 110}, {"time": 151680, "pitch": 42, "duration": 20, "velocity": 94}, {"time": 151800, "pitch": 42, "duration": 10, "velocity": 43}, {"time": 151920, "pitch": 39, "duration": 20, "velocity": 110}, {"time": 151920, "pitch": 42, "duration": 10, "velocity": 66}, {"time": 152040, "pitch": 42, "duration": 10, "velocity": 63}, {"time": 152150, "pitch": 42, "duration": 10, "velocity": 116}, {"time": 152160, "pitch": 39, "duration": 20, "velocity": 110}, {"time": 152160, "pitch": 40, "duration": 10, "velocity": 108}, {"time": 152290, "pitch": 42, "duration": 10, "velocity": 40}, {"time": 152400, "pitch": 36, "duration": 10, "velocity": 83}, {"time": 152400, "pitch": 42, "duration": 20, "velocity": 58}, {"time": 152530, "pitch": 42, "duration": 10, "velocity": 52}, {"time": 152640, "pitch": 36, "duration": 10, "velocity": 110}, {"time": 152640, "pitch": 42, "duration": 20, "velocity": 116}, {"time": 152770, "pitch": 42, "duration": 10, "velocity": 44}, {"time": 152880, "pitch": 42, "duration": 10, "velocity": 69}, {"time": 153010, "pitch": 42, "duration": 10, "velocity": 47}, {"time": 153120, "pitch": 39, "duration": 30, "velocity": 110}, {"time": 153120, "pitch": 40, "duration": 10, "velocity": 108}, {"time": 153120, "pitch": 42, "duration": 20, "velocity": 103}, {"time": 153240, "pitch": 42, "duration": 10, "velocity": 37}, {"time": 153360, "pitch": 36, "duration": 10, "velocity": 110}, {"time": 153360, "pitch": 42, "duration": 20, "velocity": 59}, {"time": 153480, "pitch": 42, "duration": 10, "velocity": 93}, {"time": 153590, "pitch": 42, "duration": 10, "velocity": 103}, {"time": 153600, "pitch": 36, "duration": 10, "velocity": 110}, {"time": 153720, "pitch": 42, "duration": 10, "velocity": 44}, {"time": 153850, "pitch": 42, "duration": 10, "velocity": 61}, {"time": 153970, "pitch": 42, "duration": 10, "velocity": 64}, {"time": 154080, "pitch": 39, "duration": 30, "velocity": 110}, {"time": 154080, "pitch": 40, "duration": 10, "velocity": 108}, {"time": 154080, "pitch": 42, "duration": 20, "velocity": 96}, {"time": 154200, "pitch": 42, "duration": 10, "velocity": 46}, {"time": 154320, "pitch": 36, "duration": 10, "velocity": 83}, {"time": 154320, "pitch": 42, "duration": 20, "velocity": 62}, {"time": 154450, "pitch": 42, "duration": 10, "velocity": 67}, {"time": 154560, "pitch": 36, "duration": 10, "velocity": 110}, {"time": 154560, "pitch": 42, "duration": 20, "velocity": 114}, {"time": 154690, "pitch": 42, "duration": 10, "velocity": 38}, {"time": 154800, "pitch": 42, "duration": 10, "velocity": 55}, {"time": 154920, "pitch": 42, "duration": 10, "velocity": 54}, {"time": 155030, "pitch": 42, "duration": 10, "velocity": 105}, {"time": 155040, "pitch": 39, "duration": 20, "velocity": 110}, {"time": 155040, "pitch": 40, "duration": 10, "velocity": 108}, {"time": 155160, "pitch": 42, "duration": 10, "velocity": 37}, {"time": 155280, "pitch": 36, "duration": 10, "velocity": 110}, {"time": 155280, "pitch": 42, "duration": 20, "velocity": 67}, {"time": 155400, "pitch": 42, "duration": 10, "velocity": 90}, {"time": 155520, "pitch": 36, "duration": 10, "velocity": 110}, {"time": 155520, "pitch": 42, "duration": 20, "velocity": 94}, {"time": 155640, "pitch": 42, "duration": 10, "velocity": 43}, {"time": 155760, "pitch": 39, "duration": 20, "velocity": 110}, {"time": 155760, "pitch": 42, "duration": 10, "velocity": 66}, {"time": 155880, "pitch": 42, "duration": 10, "velocity": 63}, {"time": 155990, "pitch": 42, "duration": 10, "velocity": 116}, {"time": 156000, "pitch": 39, "duration": 20, "velocity": 110}, {"time": 156000, "pitch": 40, "duration": 10, "velocity": 108}, {"time": 156130, "pitch": 42, "duration": 10, "velocity": 40}, {"time": 156240, "pitch": 36, "duration": 10, "velocity": 112}, {"time": 156240, "pitch": 46, "duration": 20, "velocity": 117}, {"time": 156370, "pitch": 42, "duration": 10, "velocity": 52}, {"time": 156480, "pitch": 36, "duration": 10, "velocity": 110}, {"time": 156480, "pitch": 42, "duration": 20, "velocity": 116}, {"time": 156480, "pitch": 57, "duration": 30, "velocity": 100}, {"time": 156610, "pitch": 42, "duration": 10, "velocity": 44}, {"time": 156720, "pitch": 42, "duration": 10, "velocity": 69}, {"time": 156850, "pitch": 42, "duration": 10, "velocity": 47}, {"time": 156960, "pitch": 39, "duration": 30, "velocity": 110}, {"time": 156960, "pitch": 40, "duration": 10, "velocity": 108}, {"time": 156960, "pitch": 42, "duration": 20, "velocity": 103}, {"time": 157080, "pitch": 42, "duration": 10, "velocity": 37}, {"time": 157200, "pitch": 36, "duration": 10, "velocity": 110}, {"time": 157200, "pitch": 42, "duration": 20, "velocity": 59}, {"time": 157320, "pitch": 42, "duration": 10, "velocity": 93}, {"time": 157430, "pitch": 42, "duration": 10, "velocity": 103}, {"time": 157440, "pitch": 36, "duration": 10, "velocity": 110}, {"time": 157560, "pitch": 42, "duration": 10, "velocity": 44}, {"time": 157690, "pitch": 42, "duration": 10, "velocity": 61}, {"time": 157810, "pitch": 42, "duration": 10, "velocity": 64}, {"time": 157920, "pitch": 39, "duration": 30, "velocity": 110}, {"time": 157920, "pitch": 40, "duration": 10, "velocity": 108}, {"time": 157920, "pitch": 42, "duration": 20, "velocity": 96}, {"time": 158040, "pitch": 42, "duration": 10, "velocity": 46}, {"time": 158160, "pitch": 36, "duration": 10, "velocity": 83}, {"time": 158160, "pitch": 42, "duration": 20, "velocity": 62}, {"time": 158290, "pitch": 42, "duration": 10, "velocity": 67}, {"time": 158400, "pitch": 36, "duration": 10, "velocity": 110}, {"time": 158400, "pitch": 42, "duration": 20, "velocity": 114}, {"time": 158530, "pitch": 42, "duration": 10, "velocity": 38}, {"time": 158640, "pitch": 42, "duration": 10, "velocity": 55}, {"time": 158760, "pitch": 42, "duration": 10, "velocity": 54}, {"time": 158870, "pitch": 42, "duration": 10, "velocity": 105}, {"time": 158880, "pitch": 39, "duration": 20, "velocity": 110}, {"time": 158880, "pitch": 40, "duration": 10, "velocity": 108}, {"time": 159000, "pitch": 42, "duration": 10, "velocity": 37}, {"time": 159120, "pitch": 36, "duration": 10, "velocity": 110}, {"time": 159120, "pitch": 42, "duration": 20, "velocity": 67}, {"time": 159240, "pitch": 42, "duration": 10, "velocity": 90}, {"time": 159360, "pitch": 36, "duration": 10, "velocity": 110}, {"time": 159360, "pitch": 42, "duration": 20, "velocity": 94}, {"time": 159480, "pitch": 42, "duration": 10, "velocity": 43}, {"time": 159600, "pitch": 39, "duration": 20, "velocity": 110}, {"time": 159600, "pitch": 42, "duration": 10, "velocity": 66}, {"time": 159720, "pitch": 42, "duration": 10, "velocity": 63}, {"time": 159830, "pitch": 42, "duration": 10, "velocity": 116}, {"time": 159840, "pitch": 39, "duration": 20, "velocity": 110}, {"time": 159840, "pitch": 40, "duration": 10, "velocity": 108}, {"time": 159970, "pitch": 42, "duration": 10, "velocity": 40}, {"time": 160080, "pitch": 36, "duration": 10, "velocity": 83}, {"time": 160080, "pitch": 42, "duration": 20, "velocity": 58}, {"time": 160210, "pitch": 42, "duration": 10, "velocity": 52}, {"time": 160320, "pitch": 36, "duration": 10, "velocity": 110}, {"time": 160320, "pitch": 42, "duration": 20, "velocity": 116}, {"time": 160450, "pitch": 42, "duration": 10, "velocity": 44}, {"time": 160560, "pitch": 42, "duration": 10, "velocity": 69}, {"time": 160690, "pitch": 42, "duration": 10, "velocity": 47}, {"time": 160800, "pitch": 39, "duration": 30, "velocity": 110}, {"time": 160800, "pitch": 40, "duration": 10, "velocity": 108}, {"time": 160800, "pitch": 42, "duration": 20, "velocity": 103}, {"time": 160920, "pitch": 42, "duration": 10, "velocity": 37}, {"time": 161040, "pitch": 36, "duration": 10, "velocity": 110}, {"time": 161040, "pitch": 42, "duration": 20, "velocity": 59}, {"time": 161160, "pitch": 42, "duration": 10, "velocity": 93}, {"time": 161270, "pitch": 42, "duration": 10, "velocity": 103}, {"time": 161280, "pitch": 36, "duration": 10, "velocity": 110}, {"time": 161400, "pitch": 42, "duration": 10, "velocity": 44}, {"time": 161530, "pitch": 42, "duration": 10, "velocity": 61}, {"time": 161650, "pitch": 42, "duration": 10, "velocity": 64}, {"time": 161760, "pitch": 39, "duration": 30, "velocity": 110}, {"time": 161760, "pitch": 40, "duration": 10, "velocity": 108}, {"time": 161760, "pitch": 42, "duration": 20, "velocity": 96}, {"time": 161880, "pitch": 42, "duration": 10, "velocity": 46}, {"time": 162000, "pitch": 36, "duration": 10, "velocity": 83}, {"time": 162000, "pitch": 42, "duration": 20, "velocity": 62}, {"time": 162130, "pitch": 42, "duration": 10, "velocity": 67}, {"time": 162240, "pitch": 36, "duration": 10, "velocity": 110}, {"time": 162240, "pitch": 42, "duration": 20, "velocity": 114}, {"time": 162370, "pitch": 42, "duration": 10, "velocity": 38}, {"time": 162480, "pitch": 42, "duration": 10, "velocity": 55}, {"time": 162600, "pitch": 42, "duration": 10, "velocity": 54}, {"time": 162710, "pitch": 42, "duration": 10, "velocity": 105}, {"time": 162720, "pitch": 39, "duration": 20, "velocity": 110}, {"time": 162720, "pitch": 40, "duration": 10, "velocity": 108}, {"time": 162840, "pitch": 42, "duration": 10, "velocity": 37}, {"time": 162960, "pitch": 36, "duration": 10, "velocity": 110}, {"time": 162960, "pitch": 42, "duration": 20, "velocity": 67}, {"time": 163080, "pitch": 42, "duration": 10, "velocity": 90}, {"time": 163200, "pitch": 36, "duration": 10, "velocity": 110}, {"time": 163200, "pitch": 42, "duration": 20, "velocity": 94}, {"time": 163320, "pitch": 42, "duration": 10, "velocity": 43}, {"time": 163440, "pitch": 39, "duration": 20, "velocity": 110}, {"time": 163440, "pitch": 42, "duration": 10, "velocity": 66}, {"time": 163560, "pitch": 42, "duration": 10, "velocity": 63}, {"time": 163670, "pitch": 42, "duration": 10, "velocity": 116}, {"time": 163680, "pitch": 39, "duration": 20, "velocity": 110}, {"time": 163680, "pitch": 40, "duration": 10, "velocity": 108}, {"time": 163810, "pitch": 42, "duration": 10, "velocity": 40}, {"time": 163920, "pitch": 36, "duration": 10, "velocity": 83}, {"time": 163920, "pitch": 42, "duration": 20, "velocity": 58}, {"time": 164050, "pitch": 42, "duration": 10, "velocity": 52}, {"time": 164160, "pitch": 36, "duration": 10, "velocity": 110}, {"time": 164160, "pitch": 42, "duration": 20, "velocity": 116}, {"time": 164160, "pitch": 57, "duration": 30, "velocity": 100}, {"time": 164290, "pitch": 42, "duration": 10, "velocity": 44}, {"time": 164400, "pitch": 42, "duration": 10, "velocity": 69}, {"time": 164530, "pitch": 42, "duration": 10, "velocity": 47}, {"time": 164640, "pitch": 39, "duration": 30, "velocity": 110}, {"time": 164640, "pitch": 40, "duration": 10, "velocity": 108}, {"time": 164640, "pitch": 42, "duration": 20, "velocity": 103}, {"time": 164760, "pitch": 42, "duration": 10, "velocity": 37}, {"time": 164880, "pitch": 42, "duration": 10, "velocity": 59}, {"time": 165000, "pitch": 36, "duration": 10, "velocity": 110}, {"time": 165000, "pitch": 42, "duration": 20, "velocity": 93}, {"time": 165110, "pitch": 42, "duration": 10, "velocity": 103}, {"time": 165120, "pitch": 36, "duration": 10, "velocity": 110}, {"time": 165240, "pitch": 42, "duration": 10, "velocity": 44}, {"time": 165360, "pitch": 36, "duration": 10, "velocity": 110}, {"time": 165370, "pitch": 42, "duration": 10, "velocity": 61}, {"time": 165490, "pitch": 42, "duration": 10, "velocity": 64}, {"time": 165600, "pitch": 39, "duration": 30, "velocity": 110}, {"time": 165600, "pitch": 40, "duration": 10, "velocity": 108}, {"time": 165600, "pitch": 42, "duration": 20, "velocity": 96}, {"time": 165720, "pitch": 42, "duration": 10, "velocity": 46}, {"time": 165840, "pitch": 36, "duration": 10, "velocity": 83}, {"time": 165840, "pitch": 42, "duration": 20, "velocity": 62}, {"time": 165970, "pitch": 42, "duration": 10, "velocity": 67}, {"time": 166080, "pitch": 36, "duration": 10, "velocity": 110}, {"time": 166080, "pitch": 42, "duration": 20, "velocity": 114}, {"time": 166210, "pitch": 42, "duration": 10, "velocity": 38}, {"time": 166320, "pitch": 42, "duration": 10, "velocity": 55}, {"time": 166440, "pitch": 42, "duration": 10, "velocity": 54}, {"time": 166550, "pitch": 42, "duration": 10, "velocity": 105}, {"time": 166560, "pitch": 39, "duration": 20, "velocity": 110}, {"time": 166560, "pitch": 40, "duration": 10, "velocity": 108}, {"time": 166680, "pitch": 42, "duration": 10, "velocity": 37}, {"time": 166800, "pitch": 36, "duration": 10, "velocity": 110}, {"time": 166800, "pitch": 42, "duration": 20, "velocity": 67}, {"time": 166920, "pitch": 42, "duration": 10, "velocity": 90}, {"time": 167040, "pitch": 36, "duration": 10, "velocity": 110}, {"time": 167040, "pitch": 42, "duration": 20, "velocity": 94}, {"time": 167160, "pitch": 42, "duration": 10, "velocity": 43}, {"time": 167280, "pitch": 39, "duration": 20, "velocity": 110}, {"time": 167280, "pitch": 42, "duration": 10, "velocity": 66}, {"time": 167400, "pitch": 42, "duration": 10, "velocity": 63}, {"time": 167510, "pitch": 42, "duration": 10, "velocity": 116}, {"time": 167520, "pitch": 39, "duration": 20, "velocity": 110}, {"time": 167520, "pitch": 40, "duration": 10, "velocity": 108}, {"time": 167650, "pitch": 42, "duration": 10, "velocity": 40}, {"time": 167760, "pitch": 36, "duration": 10, "velocity": 83}, {"time": 167760, "pitch": 42, "duration": 20, "velocity": 58}, {"time": 167890, "pitch": 42, "duration": 10, "velocity": 52}, {"time": 168000, "pitch": 36, "duration": 10, "velocity": 110}, {"time": 168000, "pitch": 42, "duration": 20, "velocity": 116}, {"time": 168130, "pitch": 42, "duration": 10, "velocity": 44}, {"time": 168240, "pitch": 42, "duration": 10, "velocity": 69}, {"time": 168370, "pitch": 42, "duration": 10, "velocity": 47}, {"time": 168480, "pitch": 39, "duration": 30, "velocity": 110}, {"time": 168480, "pitch": 40, "duration": 10, "velocity": 108}, {"time": 168480, "pitch": 42, "duration": 20, "velocity": 103}, {"time": 168600, "pitch": 42, "duration": 10, "velocity": 37}, {"time": 168720, "pitch": 36, "duration": 10, "velocity": 110}, {"time": 168720, "pitch": 42, "duration": 20, "velocity": 59}, {"time": 168840, "pitch": 42, "duration": 10, "velocity": 93}, {"time": 168950, "pitch": 42, "duration": 10, "velocity": 103}, {"time": 168960, "pitch": 36, "duration": 10, "velocity": 110}, {"time": 169080, "pitch": 42, "duration": 10, "velocity": 44}, {"time": 169210, "pitch": 42, "duration": 10, "velocity": 61}, {"time": 169330, "pitch": 42, "duration": 10, "velocity": 64}, {"time": 169440, "pitch": 39, "duration": 30, "velocity": 110}, {"time": 169440, "pitch": 40, "duration": 10, "velocity": 108}, {"time": 169440, "pitch": 42, "duration": 20, "velocity": 96}, {"time": 169560, "pitch": 42, "duration": 10, "velocity": 46}, {"time": 169680, "pitch": 36, "duration": 10, "velocity": 83}, {"time": 169680, "pitch": 42, "duration": 20, "velocity": 62}, {"time": 169810, "pitch": 42, "duration": 10, "velocity": 67}, {"time": 169920, "pitch": 36, "duration": 10, "velocity": 110}, {"time": 169920, "pitch": 42, "duration": 20, "velocity": 114}, {"time": 170050, "pitch": 42, "duration": 10, "velocity": 38}, {"time": 170160, "pitch": 42, "duration": 10, "velocity": 55}, {"time": 170280, "pitch": 42, "duration": 10, "velocity": 54}, {"time": 170390, "pitch": 42, "duration": 10, "velocity": 105}, {"time": 170400, "pitch": 39, "duration": 20, "velocity": 110}, {"time": 170400, "pitch": 40, "duration": 10, "velocity": 108}, {"time": 170520, "pitch": 42, "duration": 10, "velocity": 37}, {"time": 170640, "pitch": 36, "duration": 10, "velocity": 110}, {"time": 170640, "pitch": 42, "duration": 20, "velocity": 67}, {"time": 170760, "pitch": 42, "duration": 10, "velocity": 90}, {"time": 170880, "pitch": 36, "duration": 10, "velocity": 110}, {"time": 170880, "pitch": 42, "duration": 20, "velocity": 94}, {"time": 171000, "pitch": 42, "duration": 10, "velocity": 43}, {"time": 171120, "pitch": 39, "duration": 20, "velocity": 110}, {"time": 171120, "pitch": 42, "duration": 10, "velocity": 66}, {"time": 171240, "pitch": 42, "duration": 10, "velocity": 63}, {"time": 171350, "pitch": 42, "duration": 10, "velocity": 116}, {"time": 171360, "pitch": 39, "duration": 20, "velocity": 110}, {"time": 171360, "pitch": 40, "duration": 10, "velocity": 108}, {"time": 171490, "pitch": 42, "duration": 10, "velocity": 40}, {"time": 171600, "pitch": 36, "duration": 10, "velocity": 112}, {"time": 171600, "pitch": 46, "duration": 20, "velocity": 117}, {"time": 171730, "pitch": 42, "duration": 10, "velocity": 52}, {"time": 171840, "pitch": 36, "duration": 10, "velocity": 110}, {"time": 171840, "pitch": 42, "duration": 20, "velocity": 116}, {"time": 171840, "pitch": 57, "duration": 30, "velocity": 100}, {"time": 171970, "pitch": 42, "duration": 10, "velocity": 44}, {"time": 172080, "pitch": 42, "duration": 10, "velocity": 69}, {"time": 172210, "pitch": 42, "duration": 10, "velocity": 47}, {"time": 172320, "pitch": 39, "duration": 30, "velocity": 110}, {"time": 172320, "pitch": 40, "duration": 10, "velocity": 108}, {"time": 172320, "pitch": 42, "duration": 20, "velocity": 103}, {"time": 172440, "pitch": 42, "duration": 10, "velocity": 37}, {"time": 172560, "pitch": 36, "duration": 10, "velocity": 110}, {"time": 172560, "pitch": 42, "duration": 20, "velocity": 59}, {"time": 172680, "pitch": 42, "duration": 10, "velocity": 93}, {"time": 172790, "pitch": 42, "duration": 10, "velocity": 103}, {"time": 172800, "pitch": 36, "duration": 10, "velocity": 110}, {"time": 172920, "pitch": 42, "duration": 10, "velocity": 44}, {"time": 173050, "pitch": 42, "duration": 10, "velocity": 61}, {"time": 173170, "pitch": 42, "duration": 10, "velocity": 64}, {"time": 173280, "pitch": 39, "duration": 30, "velocity": 110}, {"time": 173280, "pitch": 40, "duration": 10, "velocity": 108}, {"time": 173280, "pitch": 42, "duration": 20, "velocity": 96}, {"time": 173400, "pitch": 42, "duration": 10, "velocity": 46}, {"time": 173520, "pitch": 36, "duration": 10, "velocity": 83}, {"time": 173520, "pitch": 42, "duration": 20, "velocity": 62}, {"time": 173650, "pitch": 42, "duration": 10, "velocity": 67}, {"time": 173760, "pitch": 36, "duration": 10, "velocity": 110}, {"time": 173760, "pitch": 42, "duration": 20, "velocity": 114}, {"time": 173890, "pitch": 42, "duration": 10, "velocity": 38}, {"time": 174000, "pitch": 42, "duration": 10, "velocity": 55}, {"time": 174120, "pitch": 42, "duration": 10, "velocity": 54}, {"time": 174230, "pitch": 42, "duration": 10, "velocity": 105}, {"time": 174240, "pitch": 39, "duration": 20, "velocity": 110}, {"time": 174240, "pitch": 40, "duration": 10, "velocity": 108}, {"time": 174360, "pitch": 42, "duration": 10, "velocity": 37}, {"time": 174480, "pitch": 36, "duration": 10, "velocity": 110}, {"time": 174480, "pitch": 42, "duration": 20, "velocity": 67}, {"time": 174600, "pitch": 42, "duration": 10, "velocity": 90}, {"time": 174720, "pitch": 36, "duration": 10, "velocity": 110}, {"time": 174720, "pitch": 42, "duration": 20, "velocity": 94}, {"time": 174840, "pitch": 42, "duration": 10, "velocity": 43}, {"time": 174960, "pitch": 39, "duration": 20, "velocity": 110}, {"time": 174960, "pitch": 42, "duration": 10, "velocity": 66}, {"time": 175080, "pitch": 42, "duration": 10, "velocity": 63}, {"time": 175190, "pitch": 42, "duration": 10, "velocity": 116}, {"time": 175200, "pitch": 39, "duration": 20, "velocity": 110}, {"time": 175200, "pitch": 40, "duration": 10, "velocity": 108}, {"time": 175330, "pitch": 42, "duration": 10, "velocity": 40}, {"time": 175440, "pitch": 36, "duration": 10, "velocity": 83}, {"time": 175440, "pitch": 42, "duration": 20, "velocity": 58}, {"time": 175570, "pitch": 42, "duration": 10, "velocity": 52}, {"time": 175680, "pitch": 36, "duration": 10, "velocity": 110}, {"time": 175680, "pitch": 42, "duration": 20, "velocity": 116}, {"time": 175810, "pitch": 42, "duration": 10, "velocity": 44}, {"time": 175920, "pitch": 42, "duration": 10, "velocity": 69}, {"time": 176050, "pitch": 42, "duration": 10, "velocity": 47}, {"time": 176160, "pitch": 39, "duration": 30, "velocity": 110}, {"time": 176160, "pitch": 40, "duration": 10, "velocity": 108}, {"time": 176160, "pitch": 42, "duration": 20, "velocity": 103}, {"time": 176280, "pitch": 42, "duration": 10, "velocity": 37}, {"time": 176400, "pitch": 36, "duration": 10, "velocity": 110}, {"time": 176400, "pitch": 42, "duration": 20, "velocity": 59}, {"time": 176520, "pitch": 42, "duration": 10, "velocity": 93}, {"time": 176630, "pitch": 42, "duration": 10, "velocity": 103}, {"time": 176640, "pitch": 36, "duration": 10, "velocity": 110}, {"time": 176760, "pitch": 42, "duration": 10, "velocity": 44}, {"time": 176890, "pitch": 42, "duration": 10, "velocity": 61}, {"time": 177010, "pitch": 42, "duration": 10, "velocity": 64}, {"time": 177120, "pitch": 39, "duration": 30, "velocity": 110}, {"time": 177120, "pitch": 40, "duration": 10, "velocity": 108}, {"time": 177120, "pitch": 42, "duration": 20, "velocity": 96}, {"time": 177240, "pitch": 42, "duration": 10, "velocity": 46}, {"time": 177360, "pitch": 36, "duration": 10, "velocity": 83}, {"time": 177360, "pitch": 42, "duration": 20, "velocity": 62}, {"time": 177490, "pitch": 42, "duration": 10, "velocity": 67}, {"time": 177600, "pitch": 36, "duration": 10, "velocity": 110}, {"time": 177600, "pitch": 42, "duration": 20, "velocity": 114}, {"time": 177730, "pitch": 42, "duration": 10, "velocity": 38}, {"time": 177840, "pitch": 42, "duration": 10, "velocity": 55}, {"time": 177960, "pitch": 42, "duration": 10, "velocity": 54}, {"time": 178070, "pitch": 42, "duration": 10, "velocity": 105}, {"time": 178080, "pitch": 39, "duration": 20, "velocity": 110}, {"time": 178080, "pitch": 40, "duration": 10, "velocity": 108}, {"time": 178200, "pitch": 42, "duration": 10, "velocity": 37}, {"time": 178320, "pitch": 36, "duration": 10, "velocity": 110}, {"time": 178320, "pitch": 42, "duration": 20, "velocity": 67}, {"time": 178440, "pitch": 42, "duration": 10, "velocity": 90}, {"time": 178560, "pitch": 36, "duration": 10, "velocity": 110}, {"time": 178560, "pitch": 42, "duration": 20, "velocity": 94}, {"time": 178680, "pitch": 42, "duration": 10, "velocity": 43}, {"time": 178800, "pitch": 39, "duration": 20, "velocity": 110}, {"time": 178800, "pitch": 42, "duration": 10, "velocity": 66}, {"time": 178920, "pitch": 42, "duration": 10, "velocity": 63}, {"time": 179030, "pitch": 42, "duration": 10, "velocity": 116}, {"time": 179040, "pitch": 39, "duration": 20, "velocity": 110}, {"time": 179040, "pitch": 40, "duration": 10, "velocity": 108}, {"time": 179170, "pitch": 42, "duration": 10, "velocity": 40}, {"time": 179280, "pitch": 36, "duration": 10, "velocity": 83}, {"time": 179280, "pitch": 42, "duration": 20, "velocity": 58}, {"time": 179410, "pitch": 42, "duration": 10, "velocity": 52}, {"time": 179520, "pitch": 36, "duration": 10, "velocity": 110}, {"time": 179520, "pitch": 42, "duration": 20, "velocity": 116}, {"time": 179650, "pitch": 42, "duration": 10, "velocity": 44}, {"time": 179760, "pitch": 42, "duration": 10, "velocity": 69}, {"time": 179890, "pitch": 42, "duration": 10, "velocity": 47}, {"time": 180000, "pitch": 40, "duration": 10, "velocity": 108}, {"time": 180000, "pitch": 42, "duration": 20, "velocity": 103}, {"time": 180120, "pitch": 42, "duration": 10, "velocity": 37}, {"time": 180240, "pitch": 42, "duration": 10, "velocity": 59}, {"time": 180360, "pitch": 42, "duration": 10, "velocity": 93}, {"time": 180470, "pitch": 42, "duration": 10, "velocity": 103}, {"time": 180480, "pitch": 36, "duration": 10, "velocity": 110}, {"time": 180600, "pitch": 42, "duration": 10, "velocity": 44}, {"time": 180720, "pitch": 36, "duration": 10, "velocity": 83}, {"time": 180730, "pitch": 42, "duration": 10, "velocity": 61}, {"time": 180850, "pitch": 42, "duration": 10, "velocity": 64}, {"time": 180960, "pitch": 40, "duration": 10, "velocity": 108}, {"time": 180960, "pitch": 42, "duration": 20, "velocity": 96}, {"time": 181080, "pitch": 42, "duration": 10, "velocity": 46}, {"time": 181200, "pitch": 36, "duration": 10, "velocity": 83}, {"time": 181200, "pitch": 42, "duration": 20, "velocity": 62}, {"time": 181330, "pitch": 42, "duration": 10, "velocity": 67}, {"time": 181440, "pitch": 36, "duration": 10, "velocity": 110}, {"time": 181440, "pitch": 42, "duration": 20, "velocity": 114}, {"time": 181570, "pitch": 42, "duration": 10, "velocity": 38}, {"time": 181680, "pitch": 42, "duration": 10, "velocity": 55}, {"time": 181800, "pitch": 42, "duration": 10, "velocity": 54}, {"time": 181910, "pitch": 42, "duration": 10, "velocity": 105}, {"time": 181920, "pitch": 40, "duration": 10, "velocity": 108}, {"time": 182040, "pitch": 42, "duration": 10, "velocity": 37}, {"time": 182160, "pitch": 42, "duration": 10, "velocity": 67}, {"time": 182280, "pitch": 42, "duration": 10, "velocity": 90}, {"time": 182400, "pitch": 36, "duration": 10, "velocity": 110}, {"time": 182400, "pitch": 42, "duration": 20, "velocity": 94}, {"time": 182520, "pitch": 42, "duration": 10, "velocity": 43}, {"time": 182640, "pitch": 36, "duration": 10, "velocity": 83}, {"time": 182640, "pitch": 42, "duration": 20, "velocity": 66}, {"time": 182760, "pitch": 42, "duration": 10, "velocity": 63}, {"time": 182870, "pitch": 42, "duration": 10, "velocity": 116}, {"time": 182880, "pitch": 40, "duration": 10, "velocity": 108}, {"time": 183010, "pitch": 42, "duration": 10, "velocity": 40}, {"time": 183120, "pitch": 36, "duration": 10, "velocity": 83}, {"time": 183120, "pitch": 42, "duration": 20, "velocity": 58}, {"time": 183250, "pitch": 42, "duration": 10, "velocity": 52}, {"time": 183360, "pitch": 36, "duration": 10, "velocity": 110}, {"time": 183360, "pitch": 42, "duration": 20, "velocity": 116}, {"time": 183490, "pitch": 42, "duration": 10, "velocity": 44}, {"time": 183600, "pitch": 42, "duration": 10, "velocity": 69}, {"time": 183730, "pitch": 42, "duration": 10, "velocity": 47}, {"time": 183840, "pitch": 40, "duration": 10, "velocity": 108}, {"time": 183840, "pitch": 42, "duration": 20, "velocity": 103}, {"time": 183960, "pitch": 42, "duration": 10, "velocity": 37}, {"time": 184080, "pitch": 42, "duration": 10, "velocity": 59}, {"time": 184200, "pitch": 42, "duration": 10, "velocity": 93}, {"time": 184310, "pitch": 42, "duration": 10, "velocity": 103}, {"time": 184320, "pitch": 36, "duration": 10, "velocity": 110}, {"time": 184440, "pitch": 42, "duration": 10, "velocity": 44}, {"time": 184560, "pitch": 36, "duration": 10, "velocity": 83}, {"time": 184570, "pitch": 42, "duration": 10, "velocity": 61}, {"time": 184690, "pitch": 42, "duration": 10, "velocity": 64}, {"time": 184800, "pitch": 40, "duration": 10, "velocity": 108}, {"time": 184800, "pitch": 42, "duration": 20, "velocity": 96}, {"time": 184920, "pitch": 42, "duration": 10, "velocity": 46}, {"time": 185040, "pitch": 36, "duration": 10, "velocity": 83}, {"time": 185040, "pitch": 42, "duration": 20, "velocity": 62}, {"time": 185170, "pitch": 42, "duration": 10, "velocity": 67}, {"time": 185280, "pitch": 36, "duration": 10, "velocity": 110}, {"time": 185280, "pitch": 42, "duration": 20, "velocity": 114}, {"time": 185410, "pitch": 42, "duration": 10, "velocity": 38}, {"time": 185520, "pitch": 42, "duration": 10, "velocity": 55}, {"time": 185640, "pitch": 42, "duration": 10, "velocity": 54}, {"time": 185750, "pitch": 42, "duration": 10, "velocity": 105}, {"time": 185760, "pitch": 40, "duration": 10, "velocity": 108}, {"time": 185880, "pitch": 42, "duration": 10, "velocity": 37}, {"time": 186000, "pitch": 42, "duration": 10, "velocity": 67}, {"time": 186120, "pitch": 42, "duration": 10, "velocity": 90}, {"time": 186240, "pitch": 36, "duration": 10, "velocity": 110}, {"time": 186240, "pitch": 42, "duration": 20, "velocity": 94}, {"time": 186360, "pitch": 42, "duration": 10, "velocity": 43}, {"time": 186480, "pitch": 36, "duration": 10, "velocity": 83}, {"time": 186480, "pitch": 42, "duration": 20, "velocity": 66}, {"time": 186600, "pitch": 42, "duration": 10, "velocity": 63}, {"time": 186710, "pitch": 42, "duration": 10, "velocity": 116}, {"time": 186720, "pitch": 40, "duration": 10, "velocity": 108}, {"time": 186850, "pitch": 42, "duration": 10, "velocity": 40}, {"time": 186960, "pitch": 36, "duration": 10, "velocity": 83}, {"time": 186960, "pitch": 42, "duration": 20, "velocity": 58}, {"time": 187090, "pitch": 42, "duration": 10, "velocity": 52}, {"time": 187200, "pitch": 36, "duration": 10, "velocity": 110}, {"time": 187200, "pitch": 42, "duration": 20, "velocity": 116}, {"time": 187330, "pitch": 42, "duration": 10, "velocity": 44}, {"time": 187440, "pitch": 42, "duration": 10, "velocity": 69}, {"time": 187570, "pitch": 42, "duration": 10, "velocity": 47}, {"time": 187680, "pitch": 40, "duration": 10, "velocity": 108}, {"time": 187680, "pitch": 42, "duration": 20, "velocity": 103}, {"time": 187800, "pitch": 42, "duration": 10, "velocity": 37}, {"time": 187920, "pitch": 42, "duration": 10, "velocity": 59}, {"time": 188040, "pitch": 42, "duration": 10, "velocity": 93}, {"time": 188150, "pitch": 42, "duration": 10, "velocity": 103}, {"time": 188160, "pitch": 36, "duration": 10, "velocity": 110}, {"time": 188280, "pitch": 42, "duration": 10, "velocity": 44}, {"time": 188400, "pitch": 36, "duration": 10, "velocity": 83}, {"time": 188410, "pitch": 42, "duration": 10, "velocity": 61}, {"time": 188530, "pitch": 42, "duration": 10, "velocity": 64}, {"time": 188640, "pitch": 40, "duration": 10, "velocity": 108}, {"time": 188640, "pitch": 42, "duration": 20, "velocity": 96}, {"time": 188760, "pitch": 42, "duration": 10, "velocity": 46}, {"time": 188880, "pitch": 36, "duration": 10, "velocity": 83}, {"time": 188880, "pitch": 42, "duration": 20, "velocity": 62}, {"time": 189010, "pitch": 42, "duration": 10, "velocity": 67}, {"time": 189120, "pitch": 36, "duration": 10, "velocity": 110}, {"time": 189120, "pitch": 42, "duration": 20, "velocity": 114}, {"time": 189250, "pitch": 42, "duration": 10, "velocity": 38}, {"time": 189360, "pitch": 42, "duration": 10, "velocity": 55}, {"time": 189480, "pitch": 42, "duration": 10, "velocity": 54}, {"time": 189590, "pitch": 42, "duration": 10, "velocity": 105}, {"time": 189600, "pitch": 40, "duration": 10, "velocity": 108}, {"time": 189720, "pitch": 42, "duration": 10, "velocity": 37}, {"time": 189840, "pitch": 42, "duration": 10, "velocity": 67}, {"time": 189960, "pitch": 42, "duration": 10, "velocity": 90}, {"time": 190080, "pitch": 36, "duration": 10, "velocity": 110}, {"time": 190080, "pitch": 42, "duration": 20, "velocity": 94}, {"time": 190200, "pitch": 42, "duration": 10, "velocity": 43}, {"time": 190320, "pitch": 36, "duration": 10, "velocity": 83}, {"time": 190320, "pitch": 42, "duration": 20, "velocity": 66}, {"time": 190440, "pitch": 42, "duration": 10, "velocity": 63}, {"time": 190550, "pitch": 42, "duration": 10, "velocity": 116}, {"time": 190560, "pitch": 40, "duration": 10, "velocity": 108}, {"time": 190690, "pitch": 42, "duration": 10, "velocity": 40}, {"time": 190800, "pitch": 36, "duration": 10, "velocity": 83}, {"time": 190800, "pitch": 42, "duration": 20, "velocity": 58}, {"time": 190930, "pitch": 42, "duration": 10, "velocity": 52}, {"time": 191040, "pitch": 36, "duration": 10, "velocity": 110}, {"time": 191040, "pitch": 42, "duration": 20, "velocity": 116}, {"time": 191170, "pitch": 42, "duration": 10, "velocity": 44}, {"time": 191280, "pitch": 42, "duration": 10, "velocity": 69}, {"time": 191410, "pitch": 42, "duration": 10, "velocity": 47}, {"time": 191520, "pitch": 40, "duration": 10, "velocity": 108}, {"time": 191520, "pitch": 42, "duration": 20, "velocity": 103}, {"time": 191640, "pitch": 42, "duration": 10, "velocity": 37}, {"time": 191760, "pitch": 42, "duration": 10, "velocity": 59}, {"time": 191880, "pitch": 42, "duration": 10, "velocity": 93}, {"time": 191990, "pitch": 42, "duration": 10, "velocity": 103}, {"time": 192000, "pitch": 36, "duration": 10, "velocity": 110}, {"time": 192120, "pitch": 40, "duration": 10, "velocity": 95}, {"time": 192120, "pitch": 42, "duration": 20, "velocity": 44}, {"time": 192240, "pitch": 36, "duration": 10, "velocity": 110}, {"time": 192250, "pitch": 42, "duration": 10, "velocity": 61}, {"time": 192370, "pitch": 42, "duration": 10, "velocity": 64}, {"time": 192480, "pitch": 40, "duration": 10, "velocity": 108}, {"time": 192480, "pitch": 42, "duration": 20, "velocity": 96}, {"time": 192600, "pitch": 36, "duration": 10, "velocity": 111}, {"time": 192600, "pitch": 42, "duration": 20, "velocity": 46}, {"time": 192720, "pitch": 42, "duration": 10, "velocity": 62}, {"time": 192850, "pitch": 42, "duration": 10, "velocity": 67}, {"time": 192960, "pitch": 36, "duration": 10, "velocity": 110}, {"time": 192960, "pitch": 46, "duration": 20, "velocity": 114}, {"time": 193050, "pitch": 44, "duration": 10, "velocity": 98}, {"time": 194520, "pitch": 36, "duration": 10, "velocity": 110}, {"time": 194520, "pitch": 46, "duration": 20, "velocity": 114}, {"time": 194710, "pitch": 44, "duration": 10, "velocity": 114}, {"time": 600, "pitch": 40, "duration": 10, "velocity": 127}, {"time": 960, "pitch": 40, "duration": 10, "velocity": 123}, {"time": 960, "pitch": 44, "duration": 20, "velocity": 120}, {"time": 1200, "pitch": 46, "duration": 10, "velocity": 120}, {"time": 1440, "pitch": 44, "duration": 10, "velocity": 120}, {"time": 1680, "pitch": 44, "duration": 10, "velocity": 120}, {"time": 1920, "pitch": 40, "duration": 10, "velocity": 125}, {"time": 1920, "pitch": 44, "duration": 20, "velocity": 120}, {"time": 2160, "pitch": 44, "duration": 10, "velocity": 120}, {"time": 2400, "pitch": 44, "duration": 10, "velocity": 120}, {"time": 2640, "pitch": 46, "duration": 10, "velocity": 120}, {"time": 2880, "pitch": 40, "duration": 10, "velocity": 125}, {"time": 2880, "pitch": 44, "duration": 20, "velocity": 120}, {"time": 3120, "pitch": 44, "duration": 10, "velocity": 120}, {"time": 3360, "pitch": 44, "duration": 10, "velocity": 120}, {"time": 3600, "pitch": 44, "duration": 10, "velocity": 120}, {"time": 3840, "pitch": 40, "duration": 10, "velocity": 125}, {"time": 3840, "pitch": 44, "duration": 20, "velocity": 120}, {"time": 4080, "pitch": 44, "duration": 10, "velocity": 120}, {"time": 4320, "pitch": 44, "duration": 10, "velocity": 120}, {"time": 4560, "pitch": 46, "duration": 10, "velocity": 120}, {"time": 4800, "pitch": 40, "duration": 10, "velocity": 125}, {"time": 4800, "pitch": 44, "duration": 20, "velocity": 120}, {"time": 5040, "pitch": 44, "duration": 10, "velocity": 120}, {"time": 5280, "pitch": 44, "duration": 10, "velocity": 120}, {"time": 5520, "pitch": 44, "duration": 10, "velocity": 120}, {"time": 5760, "pitch": 40, "duration": 10, "velocity": 125}, {"time": 5760, "pitch": 44, "duration": 20, "velocity": 120}, {"time": 6000, "pitch": 44, "duration": 10, "velocity": 120}, {"time": 6240, "pitch": 44, "duration": 10, "velocity": 120}, {"time": 6480, "pitch": 46, "duration": 10, "velocity": 120}, {"time": 6720, "pitch": 40, "duration": 10, "velocity": 125}, {"time": 6720, "pitch": 44, "duration": 20, "velocity": 120}, {"time": 6960, "pitch": 44, "duration": 10, "velocity": 120}, {"time": 7200, "pitch": 44, "duration": 10, "velocity": 120}, {"time": 7440, "pitch": 44, "duration": 10, "velocity": 120}, {"time": 7680, "pitch": 40, "duration": 10, "velocity": 125}, {"time": 7680, "pitch": 44, "duration": 20, "velocity": 120}, {"time": 7920, "pitch": 44, "duration": 10, "velocity": 120}, {"time": 8160, "pitch": 44, "duration": 10, "velocity": 120}, {"time": 8400, "pitch": 46, "duration": 10, "velocity": 120}, {"time": 8640, "pitch": 40, "duration": 10, "velocity": 125}, {"time": 8640, "pitch": 44, "duration": 20, "velocity": 120}, {"time": 8880, "pitch": 44, "duration": 10, "velocity": 120}, {"time": 9120, "pitch": 44, "duration": 10, "velocity": 120}, {"time": 9360, "pitch": 44, "duration": 10, "velocity": 120}, {"time": 9600, "pitch": 40, "duration": 10, "velocity": 125}, {"time": 9600, "pitch": 44, "duration": 20, "velocity": 120}, {"time": 9840, "pitch": 44, "duration": 10, "velocity": 120}, {"time": 10080, "pitch": 44, "duration": 10, "velocity": 120}, {"time": 10320, "pitch": 46, "duration": 10, "velocity": 120}, {"time": 10560, "pitch": 40, "duration": 10, "velocity": 125}, {"time": 10560, "pitch": 44, "duration": 20, "velocity": 120}, {"time": 10800, "pitch": 44, "duration": 10, "velocity": 120}, {"time": 11040, "pitch": 44, "duration": 10, "velocity": 120}, {"time": 11280, "pitch": 44, "duration": 10, "velocity": 120}, {"time": 11520, "pitch": 40, "duration": 10, "velocity": 125}, {"time": 11520, "pitch": 44, "duration": 20, "velocity": 120}, {"time": 11760, "pitch": 44, "duration": 10, "velocity": 120}, {"time": 12000, "pitch": 44, "duration": 10, "velocity": 120}, {"time": 12240, "pitch": 46, "duration": 10, "velocity": 120}, {"time": 12480, "pitch": 40, "duration": 10, "velocity": 125}, {"time": 12480, "pitch": 44, "duration": 20, "velocity": 120}, {"time": 12720, "pitch": 44, "duration": 10, "velocity": 120}, {"time": 12960, "pitch": 44, "duration": 10, "velocity": 120}, {"time": 13200, "pitch": 44, "duration": 10, "velocity": 120}, {"time": 13440, "pitch": 40, "duration": 10, "velocity": 125}, {"time": 13440, "pitch": 44, "duration": 20, "velocity": 120}, {"time": 13680, "pitch": 44, "duration": 10, "velocity": 120}, {"time": 13920, "pitch": 44, "duration": 10, "velocity": 120}, {"time": 14040, "pitch": 40, "duration": 10, "velocity": 112}, {"time": 14160, "pitch": 46, "duration": 10, "velocity": 120}, {"time": 14400, "pitch": 40, "duration": 10, "velocity": 125}, {"time": 14400, "pitch": 44, "duration": 20, "velocity": 120}, {"time": 14640, "pitch": 44, "duration": 10, "velocity": 120}, {"time": 14880, "pitch": 42, "duration": 10, "velocity": 120}, {"time": 16440, "pitch": 46, "duration": 10, "velocity": 120}, {"time": 16800, "pitch": 44, "duration": 10, "velocity": 120}, {"time": 17040, "pitch": 44, "duration": 10, "velocity": 120}, {"time": 17280, "pitch": 40, "duration": 10, "velocity": 125}, {"time": 17280, "pitch": 44, "duration": 20, "velocity": 120}, {"time": 17520, "pitch": 44, "duration": 10, "velocity": 120}, {"time": 17760, "pitch": 44, "duration": 10, "velocity": 120}, {"time": 18000, "pitch": 46, "duration": 10, "velocity": 120}, {"time": 18240, "pitch": 40, "duration": 10, "velocity": 125}, {"time": 18240, "pitch": 44, "duration": 20, "velocity": 120}, {"time": 18480, "pitch": 44, "duration": 10, "velocity": 120}, {"time": 18720, "pitch": 44, "duration": 10, "velocity": 120}, {"time": 18960, "pitch": 44, "duration": 10, "velocity": 120}, {"time": 19200, "pitch": 40, "duration": 10, "velocity": 125}, {"time": 19200, "pitch": 44, "duration": 20, "velocity": 120}, {"time": 19440, "pitch": 44, "duration": 10, "velocity": 120}, {"time": 19680, "pitch": 44, "duration": 10, "velocity": 120}, {"time": 19920, "pitch": 46, "duration": 10, "velocity": 120}, {"time": 20160, "pitch": 40, "duration": 10, "velocity": 125}, {"time": 20160, "pitch": 44, "duration": 20, "velocity": 120}, {"time": 20400, "pitch": 44, "duration": 10, "velocity": 120}, {"time": 20640, "pitch": 44, "duration": 10, "velocity": 120}, {"time": 20880, "pitch": 44, "duration": 10, "velocity": 120}, {"time": 21120, "pitch": 40, "duration": 10, "velocity": 125}, {"time": 21120, "pitch": 44, "duration": 20, "velocity": 120}, {"time": 21360, "pitch": 44, "duration": 10, "velocity": 120}, {"time": 21600, "pitch": 44, "duration": 10, "velocity": 120}, {"time": 21840, "pitch": 46, "duration": 10, "velocity": 120}, {"time": 22080, "pitch": 40, "duration": 10, "velocity": 125}, {"time": 22080, "pitch": 44, "duration": 20, "velocity": 120}, {"time": 22320, "pitch": 44, "duration": 10, "velocity": 120}, {"time": 22560, "pitch": 44, "duration": 10, "velocity": 120}, {"time": 22800, "pitch": 44, "duration": 10, "velocity": 120}, {"time": 23040, "pitch": 40, "duration": 10, "velocity": 125}, {"time": 23040, "pitch": 44, "duration": 20, "velocity": 120}, {"time": 23280, "pitch": 44, "duration": 10, "velocity": 120}, {"time": 23520, "pitch": 44, "duration": 10, "velocity": 120}, {"time": 23640, "pitch": 40, "duration": 10, "velocity": 112}, {"time": 23760, "pitch": 46, "duration": 10, "velocity": 120}, {"time": 24000, "pitch": 40, "duration": 10, "velocity": 125}, {"time": 24000, "pitch": 44, "duration": 20, "velocity": 120}, {"time": 24240, "pitch": 44, "duration": 10, "velocity": 120}, {"time": 24360, "pitch": 40, "duration": 10, "velocity": 125}, {"time": 24480, "pitch": 44, "duration": 10, "velocity": 120}, {"time": 24720, "pitch": 44, "duration": 10, "velocity": 120}, {"time": 24960, "pitch": 40, "duration": 10, "velocity": 125}, {"time": 24960, "pitch": 44, "duration": 20, "velocity": 120}, {"time": 25200, "pitch": 44, "duration": 10, "velocity": 120}, {"time": 25440, "pitch": 44, "duration": 10, "velocity": 120}, {"time": 25680, "pitch": 46, "duration": 10, "velocity": 120}, {"time": 25920, "pitch": 40, "duration": 10, "velocity": 125}, {"time": 25920, "pitch": 44, "duration": 20, "velocity": 120}, {"time": 26160, "pitch": 44, "duration": 10, "velocity": 120}, {"time": 26400, "pitch": 44, "duration": 10, "velocity": 120}, {"time": 26640, "pitch": 44, "duration": 10, "velocity": 120}, {"time": 26880, "pitch": 40, "duration": 10, "velocity": 125}, {"time": 26880, "pitch": 44, "duration": 20, "velocity": 120}, {"time": 27120, "pitch": 44, "duration": 10, "velocity": 120}, {"time": 27360, "pitch": 44, "duration": 10, "velocity": 120}, {"time": 27600, "pitch": 46, "duration": 10, "velocity": 120}, {"time": 27840, "pitch": 40, "duration": 10, "velocity": 125}, {"time": 27840, "pitch": 44, "duration": 20, "velocity": 120}, {"time": 28080, "pitch": 44, "duration": 10, "velocity": 120}, {"time": 28320, "pitch": 44, "duration": 10, "velocity": 120}, {"time": 28560, "pitch": 44, "duration": 10, "velocity": 120}, {"time": 28800, "pitch": 40, "duration": 10, "velocity": 125}, {"time": 28800, "pitch": 44, "duration": 20, "velocity": 120}, {"time": 29040, "pitch": 44, "duration": 10, "velocity": 120}, {"time": 29280, "pitch": 44, "duration": 10, "velocity": 120}, {"time": 29520, "pitch": 46, "duration": 10, "velocity": 120}, {"time": 29760, "pitch": 40, "duration": 10, "velocity": 125}, {"time": 29760, "pitch": 44, "duration": 20, "velocity": 120}, {"time": 30000, "pitch": 44, "duration": 10, "velocity": 120}, {"time": 30240, "pitch": 44, "duration": 10, "velocity": 120}, {"time": 30480, "pitch": 44, "duration": 10, "velocity": 120}, {"time": 30720, "pitch": 40, "duration": 10, "velocity": 125}, {"time": 30720, "pitch": 44, "duration": 20, "velocity": 120}, {"time": 30960, "pitch": 44, "duration": 10, "velocity": 120}, {"time": 31200, "pitch": 44, "duration": 10, "velocity": 120}, {"time": 31440, "pitch": 46, "duration": 10, "velocity": 120}, {"time": 31680, "pitch": 40, "duration": 10, "velocity": 125}, {"time": 31680, "pitch": 44, "duration": 20, "velocity": 120}, {"time": 31920, "pitch": 44, "duration": 10, "velocity": 120}, {"time": 32160, "pitch": 44, "duration": 10, "velocity": 120}, {"time": 32400, "pitch": 44, "duration": 10, "velocity": 120}, {"time": 32640, "pitch": 40, "duration": 10, "velocity": 125}, {"time": 32640, "pitch": 44, "duration": 20, "velocity": 120}, {"time": 32880, "pitch": 44, "duration": 10, "velocity": 120}, {"time": 33120, "pitch": 44, "duration": 10, "velocity": 120}, {"time": 33360, "pitch": 46, "duration": 10, "velocity": 120}, {"time": 33600, "pitch": 40, "duration": 10, "velocity": 125}, {"time": 33600, "pitch": 44, "duration": 20, "velocity": 120}, {"time": 33840, "pitch": 44, "duration": 10, "velocity": 120}, {"time": 34080, "pitch": 44, "duration": 10, "velocity": 120}, {"time": 34320, "pitch": 44, "duration": 10, "velocity": 120}, {"time": 34560, "pitch": 40, "duration": 10, "velocity": 125}, {"time": 34560, "pitch": 44, "duration": 20, "velocity": 120}, {"time": 34800, "pitch": 44, "duration": 10, "velocity": 120}, {"time": 35040, "pitch": 44, "duration": 10, "velocity": 120}, {"time": 35280, "pitch": 46, "duration": 10, "velocity": 120}, {"time": 35520, "pitch": 40, "duration": 10, "velocity": 125}, {"time": 35520, "pitch": 44, "duration": 20, "velocity": 120}, {"time": 35760, "pitch": 44, "duration": 10, "velocity": 120}, {"time": 36000, "pitch": 44, "duration": 10, "velocity": 120}, {"time": 36240, "pitch": 44, "duration": 10, "velocity": 120}, {"time": 36480, "pitch": 40, "duration": 10, "velocity": 125}, {"time": 36480, "pitch": 44, "duration": 20, "velocity": 120}, {"time": 36720, "pitch": 44, "duration": 10, "velocity": 120}, {"time": 36960, "pitch": 44, "duration": 10, "velocity": 120}, {"time": 37200, "pitch": 46, "duration": 10, "velocity": 120}, {"time": 37440, "pitch": 40, "duration": 10, "velocity": 125}, {"time": 37440, "pitch": 44, "duration": 20, "velocity": 120}, {"time": 37680, "pitch": 44, "duration": 10, "velocity": 120}, {"time": 37920, "pitch": 44, "duration": 10, "velocity": 120}, {"time": 38160, "pitch": 44, "duration": 10, "velocity": 120}, {"time": 38400, "pitch": 40, "duration": 10, "velocity": 125}, {"time": 38400, "pitch": 44, "duration": 20, "velocity": 120}, {"time": 38640, "pitch": 44, "duration": 10, "velocity": 120}, {"time": 38880, "pitch": 44, "duration": 10, "velocity": 120}, {"time": 39000, "pitch": 40, "duration": 10, "velocity": 127}, {"time": 39120, "pitch": 44, "duration": 10, "velocity": 120}, {"time": 39360, "pitch": 40, "duration": 10, "velocity": 127}, {"time": 39360, "pitch": 44, "duration": 20, "velocity": 120}, {"time": 39600, "pitch": 46, "duration": 10, "velocity": 120}, {"time": 39840, "pitch": 44, "duration": 10, "velocity": 120}, {"time": 40080, "pitch": 44, "duration": 10, "velocity": 120}, {"time": 40320, "pitch": 40, "duration": 10, "velocity": 125}, {"time": 40320, "pitch": 44, "duration": 20, "velocity": 120}, {"time": 40560, "pitch": 44, "duration": 10, "velocity": 120}, {"time": 40800, "pitch": 44, "duration": 10, "velocity": 120}, {"time": 41040, "pitch": 46, "duration": 10, "velocity": 120}, {"time": 41280, "pitch": 40, "duration": 10, "velocity": 125}, {"time": 41280, "pitch": 44, "duration": 20, "velocity": 120}, {"time": 41520, "pitch": 44, "duration": 10, "velocity": 120}, {"time": 41760, "pitch": 44, "duration": 10, "velocity": 120}, {"time": 42000, "pitch": 44, "duration": 10, "velocity": 120}, {"time": 42240, "pitch": 40, "duration": 10, "velocity": 125}, {"time": 42240, "pitch": 44, "duration": 20, "velocity": 120}, {"time": 42480, "pitch": 44, "duration": 10, "velocity": 120}, {"time": 42720, "pitch": 44, "duration": 10, "velocity": 120}, {"time": 42960, "pitch": 46, "duration": 10, "velocity": 120}, {"time": 43200, "pitch": 40, "duration": 10, "velocity": 125}, {"time": 43200, "pitch": 44, "duration": 20, "velocity": 120}, {"time": 43440, "pitch": 44, "duration": 10, "velocity": 120}, {"time": 43680, "pitch": 44, "duration": 10, "velocity": 120}, {"time": 43920, "pitch": 44, "duration": 10, "velocity": 120}, {"time": 44160, "pitch": 40, "duration": 10, "velocity": 125}, {"time": 44160, "pitch": 44, "duration": 20, "velocity": 120}, {"time": 44400, "pitch": 44, "duration": 10, "velocity": 120}, {"time": 44640, "pitch": 44, "duration": 10, "velocity": 120}, {"time": 44880, "pitch": 46, "duration": 10, "velocity": 120}, {"time": 45120, "pitch": 40, "duration": 10, "velocity": 125}, {"time": 45120, "pitch": 44, "duration": 20, "velocity": 120}, {"time": 45360, "pitch": 44, "duration": 10, "velocity": 120}, {"time": 45600, "pitch": 44, "duration": 10, "velocity": 120}, {"time": 45840, "pitch": 44, "duration": 10, "velocity": 120}, {"time": 46080, "pitch": 40, "duration": 10, "velocity": 125}, {"time": 46080, "pitch": 44, "duration": 20, "velocity": 120}, {"time": 46320, "pitch": 44, "duration": 10, "velocity": 120}, {"time": 46560, "pitch": 44, "duration": 10, "velocity": 120}, {"time": 46800, "pitch": 46, "duration": 10, "velocity": 120}, {"time": 47040, "pitch": 40, "duration": 10, "velocity": 125}, {"time": 47040, "pitch": 44, "duration": 20, "velocity": 120}, {"time": 47280, "pitch": 44, "duration": 10, "velocity": 120}, {"time": 47520, "pitch": 44, "duration": 10, "velocity": 120}, {"time": 47760, "pitch": 44, "duration": 10, "velocity": 120}, {"time": 48000, "pitch": 40, "duration": 10, "velocity": 125}, {"time": 48000, "pitch": 44, "duration": 20, "velocity": 120}, {"time": 48240, "pitch": 44, "duration": 10, "velocity": 120}, {"time": 48480, "pitch": 44, "duration": 10, "velocity": 120}, {"time": 48720, "pitch": 46, "duration": 10, "velocity": 120}, {"time": 48960, "pitch": 40, "duration": 10, "velocity": 125}, {"time": 48960, "pitch": 44, "duration": 20, "velocity": 120}, {"time": 49200, "pitch": 44, "duration": 10, "velocity": 120}, {"time": 49440, "pitch": 42, "duration": 10, "velocity": 106}, {"time": 50400, "pitch": 42, "duration": 10, "velocity": 120}, {"time": 50520, "pitch": 40, "duration": 10, "velocity": 127}, {"time": 50520, "pitch": 42, "duration": 20, "velocity": 120}, {"time": 50760, "pitch": 42, "duration": 10, "velocity": 120}, {"time": 50880, "pitch": 40, "duration": 10, "velocity": 127}, {"time": 50880, "pitch": 42, "duration": 20, "velocity": 120}, {"time": 51120, "pitch": 42, "duration": 10, "velocity": 106}, {"time": 51360, "pitch": 44, "duration": 10, "velocity": 120}, {"time": 51600, "pitch": 44, "duration": 10, "velocity": 120}, {"time": 51840, "pitch": 40, "duration": 10, "velocity": 125}, {"time": 51840, "pitch": 44, "duration": 20, "velocity": 120}, {"time": 52080, "pitch": 44, "duration": 10, "velocity": 120}, {"time": 52320, "pitch": 44, "duration": 10, "velocity": 120}, {"time": 52560, "pitch": 46, "duration": 10, "velocity": 120}, {"time": 52800, "pitch": 40, "duration": 10, "velocity": 125}, {"time": 52800, "pitch": 44, "duration": 20, "velocity": 120}, {"time": 53040, "pitch": 44, "duration": 10, "velocity": 120}, {"time": 53280, "pitch": 44, "duration": 10, "velocity": 120}, {"time": 53520, "pitch": 44, "duration": 10, "velocity": 120}, {"time": 53760, "pitch": 40, "duration": 10, "velocity": 125}, {"time": 53760, "pitch": 44, "duration": 20, "velocity": 120}, {"time": 54000, "pitch": 44, "duration": 10, "velocity": 120}, {"time": 54240, "pitch": 44, "duration": 10, "velocity": 120}, {"time": 54480, "pitch": 46, "duration": 10, "velocity": 120}, {"time": 54720, "pitch": 40, "duration": 10, "velocity": 125}, {"time": 54720, "pitch": 44, "duration": 20, "velocity": 120}, {"time": 54960, "pitch": 44, "duration": 10, "velocity": 120}, {"time": 55200, "pitch": 44, "duration": 10, "velocity": 120}, {"time": 55440, "pitch": 44, "duration": 10, "velocity": 120}, {"time": 55680, "pitch": 40, "duration": 10, "velocity": 125}, {"time": 55680, "pitch": 44, "duration": 20, "velocity": 120}, {"time": 55920, "pitch": 44, "duration": 10, "velocity": 120}, {"time": 56160, "pitch": 44, "duration": 10, "velocity": 120}, {"time": 56400, "pitch": 46, "duration": 10, "velocity": 120}, {"time": 56640, "pitch": 40, "duration": 10, "velocity": 125}, {"time": 56640, "pitch": 44, "duration": 20, "velocity": 120}, {"time": 56880, "pitch": 44, "duration": 10, "velocity": 120}, {"time": 57120, "pitch": 44, "duration": 10, "velocity": 120}, {"time": 57360, "pitch": 44, "duration": 10, "velocity": 120}, {"time": 57600, "pitch": 40, "duration": 10, "velocity": 125}, {"time": 57600, "pitch": 44, "duration": 20, "velocity": 120}, {"time": 57840, "pitch": 44, "duration": 10, "velocity": 120}, {"time": 58080, "pitch": 44, "duration": 10, "velocity": 120}, {"time": 58320, "pitch": 46, "duration": 10, "velocity": 120}, {"time": 58560, "pitch": 40, "duration": 10, "velocity": 125}, {"time": 58560, "pitch": 44, "duration": 20, "velocity": 120}, {"time": 58800, "pitch": 44, "duration": 10, "velocity": 120}, {"time": 59040, "pitch": 44, "duration": 10, "velocity": 120}, {"time": 59280, "pitch": 44, "duration": 10, "velocity": 120}, {"time": 59520, "pitch": 40, "duration": 10, "velocity": 125}, {"time": 59520, "pitch": 44, "duration": 20, "velocity": 120}, {"time": 59760, "pitch": 44, "duration": 10, "velocity": 120}, {"time": 60000, "pitch": 44, "duration": 10, "velocity": 120}, {"time": 60240, "pitch": 46, "duration": 10, "velocity": 120}, {"time": 60480, "pitch": 40, "duration": 10, "velocity": 125}, {"time": 60480, "pitch": 44, "duration": 20, "velocity": 120}, {"time": 60720, "pitch": 44, "duration": 10, "velocity": 120}, {"time": 60960, "pitch": 44, "duration": 10, "velocity": 120}, {"time": 61200, "pitch": 44, "duration": 10, "velocity": 120}, {"time": 61440, "pitch": 40, "duration": 10, "velocity": 125}, {"time": 61440, "pitch": 44, "duration": 20, "velocity": 120}, {"time": 61680, "pitch": 44, "duration": 10, "velocity": 120}, {"time": 61920, "pitch": 44, "duration": 10, "velocity": 120}, {"time": 62160, "pitch": 46, "duration": 10, "velocity": 120}, {"time": 62400, "pitch": 40, "duration": 10, "velocity": 125}, {"time": 62400, "pitch": 44, "duration": 20, "velocity": 120}, {"time": 62640, "pitch": 44, "duration": 10, "velocity": 120}, {"time": 62880, "pitch": 44, "duration": 10, "velocity": 120}, {"time": 63120, "pitch": 44, "duration": 10, "velocity": 120}, {"time": 63360, "pitch": 40, "duration": 10, "velocity": 125}, {"time": 63360, "pitch": 44, "duration": 20, "velocity": 120}, {"time": 63600, "pitch": 44, "duration": 10, "velocity": 120}, {"time": 63840, "pitch": 44, "duration": 10, "velocity": 120}, {"time": 64080, "pitch": 46, "duration": 10, "velocity": 120}, {"time": 64320, "pitch": 40, "duration": 10, "velocity": 125}, {"time": 64320, "pitch": 44, "duration": 20, "velocity": 120}, {"time": 64560, "pitch": 44, "duration": 10, "velocity": 120}, {"time": 64800, "pitch": 44, "duration": 10, "velocity": 120}, {"time": 65040, "pitch": 44, "duration": 10, "velocity": 120}, {"time": 65280, "pitch": 40, "duration": 10, "velocity": 125}, {"time": 65280, "pitch": 44, "duration": 20, "velocity": 120}, {"time": 65520, "pitch": 44, "duration": 10, "velocity": 120}, {"time": 65760, "pitch": 44, "duration": 10, "velocity": 120}, {"time": 66000, "pitch": 46, "duration": 10, "velocity": 120}, {"time": 66240, "pitch": 40, "duration": 10, "velocity": 125}, {"time": 66240, "pitch": 44, "duration": 20, "velocity": 120}, {"time": 66480, "pitch": 44, "duration": 10, "velocity": 120}, {"time": 66720, "pitch": 44, "duration": 10, "velocity": 120}, {"time": 66960, "pitch": 44, "duration": 10, "velocity": 120}, {"time": 67200, "pitch": 40, "duration": 10, "velocity": 125}, {"time": 67200, "pitch": 44, "duration": 20, "velocity": 120}, {"time": 67440, "pitch": 44, "duration": 10, "velocity": 120}, {"time": 67680, "pitch": 44, "duration": 10, "velocity": 120}, {"time": 67920, "pitch": 46, "duration": 10, "velocity": 120}, {"time": 68160, "pitch": 40, "duration": 10, "velocity": 125}, {"time": 68160, "pitch": 44, "duration": 20, "velocity": 120}, {"time": 68400, "pitch": 44, "duration": 10, "velocity": 120}, {"time": 68640, "pitch": 44, "duration": 10, "velocity": 120}, {"time": 68880, "pitch": 44, "duration": 10, "velocity": 120}, {"time": 69120, "pitch": 40, "duration": 10, "velocity": 125}, {"time": 69120, "pitch": 44, "duration": 20, "velocity": 120}, {"time": 69360, "pitch": 44, "duration": 10, "velocity": 120}, {"time": 69600, "pitch": 44, "duration": 10, "velocity": 120}, {"time": 69840, "pitch": 46, "duration": 10, "velocity": 120}, {"time": 70080, "pitch": 40, "duration": 10, "velocity": 125}, {"time": 70080, "pitch": 44, "duration": 20, "velocity": 120}, {"time": 70320, "pitch": 44, "duration": 10, "velocity": 120}, {"time": 70560, "pitch": 44, "duration": 10, "velocity": 120}, {"time": 70800, "pitch": 44, "duration": 10, "velocity": 120}, {"time": 71040, "pitch": 40, "duration": 10, "velocity": 125}, {"time": 71040, "pitch": 44, "duration": 20, "velocity": 120}, {"time": 71280, "pitch": 44, "duration": 10, "velocity": 120}, {"time": 71520, "pitch": 44, "duration": 10, "velocity": 120}, {"time": 71760, "pitch": 46, "duration": 10, "velocity": 120}, {"time": 72000, "pitch": 40, "duration": 10, "velocity": 125}, {"time": 72000, "pitch": 44, "duration": 20, "velocity": 120}, {"time": 72240, "pitch": 44, "duration": 10, "velocity": 120}, {"time": 72480, "pitch": 42, "duration": 10, "velocity": 120}, {"time": 74160, "pitch": 40, "duration": 10, "velocity": 127}, {"time": 74160, "pitch": 42, "duration": 20, "velocity": 120}, {"time": 74400, "pitch": 44, "duration": 10, "velocity": 120}, {"time": 74640, "pitch": 44, "duration": 10, "velocity": 120}, {"time": 74880, "pitch": 40, "duration": 10, "velocity": 125}, {"time": 74880, "pitch": 44, "duration": 20, "velocity": 120}, {"time": 75120, "pitch": 44, "duration": 10, "velocity": 120}, {"time": 75360, "pitch": 44, "duration": 10, "velocity": 120}, {"time": 75600, "pitch": 46, "duration": 10, "velocity": 120}, {"time": 75840, "pitch": 40, "duration": 10, "velocity": 125}, {"time": 75840, "pitch": 44, "duration": 20, "velocity": 120}, {"time": 76080, "pitch": 44, "duration": 10, "velocity": 120}, {"time": 76320, "pitch": 44, "duration": 10, "velocity": 120}, {"time": 76560, "pitch": 44, "duration": 10, "velocity": 120}, {"time": 76800, "pitch": 40, "duration": 10, "velocity": 125}, {"time": 76800, "pitch": 44, "duration": 20, "velocity": 120}, {"time": 77040, "pitch": 44, "duration": 10, "velocity": 120}, {"time": 77280, "pitch": 44, "duration": 10, "velocity": 120}, {"time": 77520, "pitch": 46, "duration": 10, "velocity": 120}, {"time": 77760, "pitch": 40, "duration": 10, "velocity": 125}, {"time": 77760, "pitch": 44, "duration": 20, "velocity": 120}, {"time": 78000, "pitch": 44, "duration": 10, "velocity": 120}, {"time": 78240, "pitch": 44, "duration": 10, "velocity": 120}, {"time": 78480, "pitch": 44, "duration": 10, "velocity": 120}, {"time": 78720, "pitch": 40, "duration": 10, "velocity": 125}, {"time": 78720, "pitch": 44, "duration": 20, "velocity": 120}, {"time": 78960, "pitch": 44, "duration": 10, "velocity": 120}, {"time": 79200, "pitch": 44, "duration": 10, "velocity": 120}, {"time": 79440, "pitch": 46, "duration": 10, "velocity": 120}, {"time": 79680, "pitch": 40, "duration": 10, "velocity": 125}, {"time": 79680, "pitch": 44, "duration": 20, "velocity": 120}, {"time": 79920, "pitch": 44, "duration": 10, "velocity": 120}, {"time": 80160, "pitch": 44, "duration": 10, "velocity": 120}, {"time": 80400, "pitch": 44, "duration": 10, "velocity": 120}, {"time": 80640, "pitch": 40, "duration": 10, "velocity": 125}, {"time": 80640, "pitch": 44, "duration": 20, "velocity": 120}, {"time": 80880, "pitch": 44, "duration": 10, "velocity": 120}, {"time": 81120, "pitch": 44, "duration": 10, "velocity": 120}, {"time": 81360, "pitch": 46, "duration": 10, "velocity": 120}, {"time": 81600, "pitch": 40, "duration": 10, "velocity": 125}, {"time": 81600, "pitch": 44, "duration": 20, "velocity": 120}, {"time": 81840, "pitch": 44, "duration": 10, "velocity": 120}, {"time": 82080, "pitch": 44, "duration": 10, "velocity": 120}, {"time": 82320, "pitch": 44, "duration": 10, "velocity": 120}, {"time": 82560, "pitch": 40, "duration": 10, "velocity": 125}, {"time": 82560, "pitch": 44, "duration": 20, "velocity": 120}, {"time": 82800, "pitch": 44, "duration": 10, "velocity": 120}, {"time": 83040, "pitch": 44, "duration": 10, "velocity": 120}, {"time": 83280, "pitch": 46, "duration": 10, "velocity": 120}, {"time": 83520, "pitch": 40, "duration": 10, "velocity": 125}, {"time": 83520, "pitch": 44, "duration": 20, "velocity": 120}, {"time": 83760, "pitch": 44, "duration": 10, "velocity": 120}, {"time": 84000, "pitch": 44, "duration": 10, "velocity": 120}, {"time": 84240, "pitch": 44, "duration": 10, "velocity": 120}, {"time": 84480, "pitch": 40, "duration": 10, "velocity": 125}, {"time": 84480, "pitch": 44, "duration": 20, "velocity": 120}, {"time": 84720, "pitch": 44, "duration": 10, "velocity": 120}, {"time": 84960, "pitch": 44, "duration": 10, "velocity": 120}, {"time": 85200, "pitch": 46, "duration": 10, "velocity": 120}, {"time": 85440, "pitch": 40, "duration": 10, "velocity": 125}, {"time": 85440, "pitch": 44, "duration": 20, "velocity": 120}, {"time": 85680, "pitch": 44, "duration": 10, "velocity": 120}, {"time": 85920, "pitch": 44, "duration": 10, "velocity": 120}, {"time": 86160, "pitch": 44, "duration": 10, "velocity": 120}, {"time": 86400, "pitch": 40, "duration": 10, "velocity": 125}, {"time": 86400, "pitch": 44, "duration": 20, "velocity": 120}, {"time": 86640, "pitch": 44, "duration": 10, "velocity": 120}, {"time": 86880, "pitch": 44, "duration": 10, "velocity": 120}, {"time": 87120, "pitch": 46, "duration": 10, "velocity": 120}, {"time": 87360, "pitch": 40, "duration": 10, "velocity": 125}, {"time": 87360, "pitch": 44, "duration": 20, "velocity": 120}, {"time": 87600, "pitch": 44, "duration": 10, "velocity": 120}, {"time": 87840, "pitch": 44, "duration": 10, "velocity": 120}, {"time": 88080, "pitch": 44, "duration": 10, "velocity": 120}, {"time": 88320, "pitch": 40, "duration": 10, "velocity": 125}, {"time": 88320, "pitch": 44, "duration": 20, "velocity": 120}, {"time": 88560, "pitch": 44, "duration": 10, "velocity": 120}, {"time": 88800, "pitch": 44, "duration": 10, "velocity": 120}, {"time": 89040, "pitch": 44, "duration": 10, "velocity": 120}, {"time": 89280, "pitch": 40, "duration": 10, "velocity": 125}, {"time": 89280, "pitch": 44, "duration": 20, "velocity": 120}, {"time": 89520, "pitch": 46, "duration": 10, "velocity": 120}, {"time": 89760, "pitch": 44, "duration": 10, "velocity": 120}, {"time": 90000, "pitch": 44, "duration": 10, "velocity": 120}, {"time": 90240, "pitch": 40, "duration": 10, "velocity": 125}, {"time": 90240, "pitch": 44, "duration": 20, "velocity": 120}, {"time": 90480, "pitch": 44, "duration": 10, "velocity": 120}, {"time": 90720, "pitch": 44, "duration": 10, "velocity": 120}, {"time": 90960, "pitch": 46, "duration": 10, "velocity": 120}, {"time": 91200, "pitch": 40, "duration": 10, "velocity": 125}, {"time": 91200, "pitch": 44, "duration": 20, "velocity": 120}, {"time": 91440, "pitch": 44, "duration": 10, "velocity": 120}, {"time": 91680, "pitch": 44, "duration": 10, "velocity": 120}, {"time": 91920, "pitch": 44, "duration": 10, "velocity": 120}, {"time": 92160, "pitch": 40, "duration": 10, "velocity": 125}, {"time": 92160, "pitch": 44, "duration": 20, "velocity": 120}, {"time": 92400, "pitch": 44, "duration": 10, "velocity": 120}, {"time": 92640, "pitch": 44, "duration": 10, "velocity": 120}, {"time": 92880, "pitch": 46, "duration": 10, "velocity": 120}, {"time": 93120, "pitch": 40, "duration": 10, "velocity": 125}, {"time": 93120, "pitch": 44, "duration": 20, "velocity": 120}, {"time": 93360, "pitch": 44, "duration": 10, "velocity": 120}, {"time": 93600, "pitch": 44, "duration": 10, "velocity": 120}, {"time": 93840, "pitch": 44, "duration": 10, "velocity": 120}, {"time": 94080, "pitch": 40, "duration": 10, "velocity": 125}, {"time": 94080, "pitch": 44, "duration": 20, "velocity": 120}, {"time": 94320, "pitch": 44, "duration": 10, "velocity": 120}, {"time": 94560, "pitch": 44, "duration": 10, "velocity": 120}, {"time": 94800, "pitch": 46, "duration": 10, "velocity": 120}, {"time": 95040, "pitch": 40, "duration": 10, "velocity": 125}, {"time": 95040, "pitch": 44, "duration": 20, "velocity": 120}, {"time": 95280, "pitch": 44, "duration": 10, "velocity": 120}, {"time": 95520, "pitch": 44, "duration": 10, "velocity": 120}, {"time": 95760, "pitch": 44, "duration": 10, "velocity": 120}, {"time": 96000, "pitch": 40, "duration": 10, "velocity": 125}, {"time": 96000, "pitch": 44, "duration": 20, "velocity": 120}, {"time": 96240, "pitch": 44, "duration": 10, "velocity": 120}, {"time": 96480, "pitch": 44, "duration": 10, "velocity": 120}, {"time": 96720, "pitch": 46, "duration": 10, "velocity": 120}, {"time": 96960, "pitch": 40, "duration": 10, "velocity": 125}, {"time": 96960, "pitch": 44, "duration": 20, "velocity": 120}, {"time": 97200, "pitch": 44, "duration": 10, "velocity": 120}, {"time": 97440, "pitch": 44, "duration": 10, "velocity": 120}, {"time": 97680, "pitch": 44, "duration": 10, "velocity": 120}, {"time": 97920, "pitch": 40, "duration": 10, "velocity": 125}, {"time": 97920, "pitch": 44, "duration": 20, "velocity": 120}, {"time": 98160, "pitch": 44, "duration": 10, "velocity": 120}, {"time": 98400, "pitch": 44, "duration": 10, "velocity": 120}, {"time": 98640, "pitch": 46, "duration": 10, "velocity": 120}, {"time": 98880, "pitch": 40, "duration": 10, "velocity": 125}, {"time": 98880, "pitch": 44, "duration": 20, "velocity": 120}, {"time": 99120, "pitch": 44, "duration": 10, "velocity": 120}, {"time": 99360, "pitch": 42, "duration": 10, "velocity": 106}, {"time": 100320, "pitch": 42, "duration": 10, "velocity": 120}, {"time": 100440, "pitch": 40, "duration": 10, "velocity": 127}, {"time": 100440, "pitch": 42, "duration": 20, "velocity": 120}, {"time": 100680, "pitch": 42, "duration": 10, "velocity": 120}, {"time": 100800, "pitch": 40, "duration": 10, "velocity": 127}, {"time": 100800, "pitch": 42, "duration": 20, "velocity": 120}, {"time": 101040, "pitch": 42, "duration": 10, "velocity": 106}, {"time": 101280, "pitch": 44, "duration": 10, "velocity": 120}, {"time": 101520, "pitch": 44, "duration": 10, "velocity": 120}, {"time": 101760, "pitch": 40, "duration": 10, "velocity": 125}, {"time": 101760, "pitch": 44, "duration": 20, "velocity": 120}, {"time": 102000, "pitch": 44, "duration": 10, "velocity": 120}, {"time": 102240, "pitch": 44, "duration": 10, "velocity": 120}, {"time": 102480, "pitch": 46, "duration": 10, "velocity": 120}, {"time": 102720, "pitch": 40, "duration": 10, "velocity": 125}, {"time": 102720, "pitch": 44, "duration": 20, "velocity": 120}, {"time": 102960, "pitch": 44, "duration": 10, "velocity": 120}, {"time": 103200, "pitch": 44, "duration": 10, "velocity": 120}, {"time": 103440, "pitch": 44, "duration": 10, "velocity": 120}, {"time": 103680, "pitch": 40, "duration": 10, "velocity": 125}, {"time": 103680, "pitch": 44, "duration": 20, "velocity": 120}, {"time": 103920, "pitch": 44, "duration": 10, "velocity": 120}, {"time": 104160, "pitch": 44, "duration": 10, "velocity": 120}, {"time": 104400, "pitch": 46, "duration": 10, "velocity": 120}, {"time": 104640, "pitch": 40, "duration": 10, "velocity": 125}, {"time": 104640, "pitch": 44, "duration": 20, "velocity": 120}, {"time": 104880, "pitch": 44, "duration": 10, "velocity": 120}, {"time": 105120, "pitch": 44, "duration": 10, "velocity": 120}, {"time": 105360, "pitch": 44, "duration": 10, "velocity": 120}, {"time": 105600, "pitch": 40, "duration": 10, "velocity": 125}, {"time": 105600, "pitch": 44, "duration": 20, "velocity": 120}, {"time": 105840, "pitch": 44, "duration": 10, "velocity": 120}, {"time": 106080, "pitch": 44, "duration": 10, "velocity": 120}, {"time": 106320, "pitch": 46, "duration": 10, "velocity": 120}, {"time": 106560, "pitch": 40, "duration": 10, "velocity": 125}, {"time": 106560, "pitch": 44, "duration": 20, "velocity": 120}, {"time": 106800, "pitch": 44, "duration": 10, "velocity": 120}, {"time": 107040, "pitch": 44, "duration": 10, "velocity": 120}, {"time": 107280, "pitch": 44, "duration": 10, "velocity": 120}, {"time": 107520, "pitch": 40, "duration": 10, "velocity": 125}, {"time": 107520, "pitch": 44, "duration": 20, "velocity": 120}, {"time": 107760, "pitch": 44, "duration": 10, "velocity": 120}, {"time": 108000, "pitch": 44, "duration": 10, "velocity": 120}, {"time": 108240, "pitch": 46, "duration": 10, "velocity": 120}, {"time": 108480, "pitch": 40, "duration": 10, "velocity": 125}, {"time": 108480, "pitch": 44, "duration": 20, "velocity": 120}, {"time": 108720, "pitch": 44, "duration": 10, "velocity": 120}, {"time": 108960, "pitch": 44, "duration": 10, "velocity": 120}, {"time": 109200, "pitch": 44, "duration": 10, "velocity": 120}, {"time": 109440, "pitch": 40, "duration": 10, "velocity": 125}, {"time": 109440, "pitch": 44, "duration": 20, "velocity": 120}, {"time": 109680, "pitch": 44, "duration": 10, "velocity": 120}, {"time": 109920, "pitch": 44, "duration": 10, "velocity": 120}, {"time": 110160, "pitch": 46, "duration": 10, "velocity": 120}, {"time": 110400, "pitch": 40, "duration": 10, "velocity": 125}, {"time": 110400, "pitch": 44, "duration": 20, "velocity": 120}, {"time": 110640, "pitch": 44, "duration": 10, "velocity": 120}, {"time": 110880, "pitch": 44, "duration": 10, "velocity": 120}, {"time": 111120, "pitch": 44, "duration": 10, "velocity": 120}, {"time": 111360, "pitch": 40, "duration": 10, "velocity": 125}, {"time": 111360, "pitch": 44, "duration": 20, "velocity": 120}, {"time": 111600, "pitch": 44, "duration": 10, "velocity": 120}, {"time": 111840, "pitch": 44, "duration": 10, "velocity": 120}, {"time": 112080, "pitch": 46, "duration": 10, "velocity": 120}, {"time": 112320, "pitch": 40, "duration": 10, "velocity": 125}, {"time": 112320, "pitch": 44, "duration": 20, "velocity": 120}, {"time": 112560, "pitch": 44, "duration": 10, "velocity": 120}, {"time": 112800, "pitch": 44, "duration": 10, "velocity": 120}, {"time": 113040, "pitch": 44, "duration": 10, "velocity": 120}, {"time": 113280, "pitch": 40, "duration": 10, "velocity": 125}, {"time": 113280, "pitch": 44, "duration": 20, "velocity": 120}, {"time": 113520, "pitch": 44, "duration": 10, "velocity": 120}, {"time": 113760, "pitch": 44, "duration": 10, "velocity": 120}, {"time": 114000, "pitch": 46, "duration": 10, "velocity": 120}, {"time": 114240, "pitch": 40, "duration": 10, "velocity": 125}, {"time": 114240, "pitch": 44, "duration": 20, "velocity": 120}, {"time": 114480, "pitch": 44, "duration": 10, "velocity": 120}, {"time": 114720, "pitch": 44, "duration": 10, "velocity": 120}, {"time": 114960, "pitch": 44, "duration": 10, "velocity": 120}, {"time": 115200, "pitch": 40, "duration": 10, "velocity": 125}, {"time": 115200, "pitch": 44, "duration": 20, "velocity": 120}, {"time": 115440, "pitch": 44, "duration": 10, "velocity": 120}, {"time": 115680, "pitch": 44, "duration": 10, "velocity": 120}, {"time": 115920, "pitch": 46, "duration": 10, "velocity": 120}, {"time": 116160, "pitch": 40, "duration": 10, "velocity": 125}, {"time": 116160, "pitch": 44, "duration": 20, "velocity": 120}, {"time": 116400, "pitch": 44, "duration": 10, "velocity": 120}, {"time": 116640, "pitch": 44, "duration": 10, "velocity": 120}, {"time": 116880, "pitch": 44, "duration": 10, "velocity": 120}, {"time": 117120, "pitch": 40, "duration": 10, "velocity": 125}, {"time": 117120, "pitch": 44, "duration": 20, "velocity": 120}, {"time": 117360, "pitch": 44, "duration": 10, "velocity": 120}, {"time": 117600, "pitch": 44, "duration": 10, "velocity": 120}, {"time": 117720, "pitch": 40, "duration": 10, "velocity": 70}, {"time": 117840, "pitch": 46, "duration": 10, "velocity": 120}, {"time": 118080, "pitch": 40, "duration": 10, "velocity": 125}, {"time": 118080, "pitch": 44, "duration": 20, "velocity": 120}, {"time": 118320, "pitch": 44, "duration": 10, "velocity": 120}, {"time": 118560, "pitch": 44, "duration": 10, "velocity": 120}, {"time": 118800, "pitch": 44, "duration": 10, "velocity": 120}, {"time": 119040, "pitch": 40, "duration": 10, "velocity": 125}, {"time": 119040, "pitch": 44, "duration": 20, "velocity": 120}, {"time": 119280, "pitch": 44, "duration": 10, "velocity": 120}, {"time": 119520, "pitch": 44, "duration": 10, "velocity": 120}, {"time": 119640, "pitch": 40, "duration": 10, "velocity": 70}, {"time": 119760, "pitch": 46, "duration": 10, "velocity": 120}, {"time": 120000, "pitch": 40, "duration": 10, "velocity": 125}, {"time": 120000, "pitch": 44, "duration": 20, "velocity": 120}, {"time": 120240, "pitch": 44, "duration": 10, "velocity": 120}, {"time": 120480, "pitch": 44, "duration": 10, "velocity": 120}, {"time": 120720, "pitch": 44, "duration": 10, "velocity": 120}, {"time": 120960, "pitch": 40, "duration": 10, "velocity": 125}, {"time": 120960, "pitch": 44, "duration": 20, "velocity": 120}, {"time": 121200, "pitch": 44, "duration": 10, "velocity": 120}, {"time": 121440, "pitch": 44, "duration": 10, "velocity": 120}, {"time": 121560, "pitch": 40, "duration": 10, "velocity": 70}, {"time": 121680, "pitch": 46, "duration": 10, "velocity": 120}, {"time": 121920, "pitch": 40, "duration": 10, "velocity": 125}, {"time": 121920, "pitch": 44, "duration": 20, "velocity": 120}, {"time": 122160, "pitch": 44, "duration": 10, "velocity": 120}, {"time": 122400, "pitch": 44, "duration": 10, "velocity": 120}, {"time": 122640, "pitch": 44, "duration": 10, "velocity": 120}, {"time": 122880, "pitch": 40, "duration": 10, "velocity": 125}, {"time": 122880, "pitch": 44, "duration": 20, "velocity": 120}, {"time": 123120, "pitch": 44, "duration": 10, "velocity": 120}, {"time": 123360, "pitch": 44, "duration": 10, "velocity": 120}, {"time": 123480, "pitch": 40, "duration": 10, "velocity": 70}, {"time": 123600, "pitch": 46, "duration": 10, "velocity": 120}, {"time": 123840, "pitch": 40, "duration": 10, "velocity": 125}, {"time": 123840, "pitch": 44, "duration": 20, "velocity": 120}, {"time": 124080, "pitch": 44, "duration": 10, "velocity": 120}, {"time": 124320, "pitch": 44, "duration": 10, "velocity": 120}, {"time": 124560, "pitch": 44, "duration": 10, "velocity": 120}, {"time": 124800, "pitch": 40, "duration": 10, "velocity": 125}, {"time": 124800, "pitch": 44, "duration": 20, "velocity": 120}, {"time": 125040, "pitch": 44, "duration": 10, "velocity": 120}, {"time": 125280, "pitch": 44, "duration": 10, "velocity": 120}, {"time": 125400, "pitch": 40, "duration": 10, "velocity": 70}, {"time": 125520, "pitch": 46, "duration": 10, "velocity": 120}, {"time": 125760, "pitch": 40, "duration": 10, "velocity": 125}, {"time": 125760, "pitch": 44, "duration": 20, "velocity": 120}, {"time": 126000, "pitch": 44, "duration": 10, "velocity": 120}, {"time": 126240, "pitch": 44, "duration": 10, "velocity": 120}, {"time": 126480, "pitch": 44, "duration": 10, "velocity": 120}, {"time": 126720, "pitch": 40, "duration": 10, "velocity": 125}, {"time": 126720, "pitch": 44, "duration": 20, "velocity": 120}, {"time": 126960, "pitch": 44, "duration": 10, "velocity": 120}, {"time": 127200, "pitch": 44, "duration": 10, "velocity": 120}, {"time": 127320, "pitch": 40, "duration": 10, "velocity": 70}, {"time": 127440, "pitch": 46, "duration": 10, "velocity": 120}, {"time": 127680, "pitch": 40, "duration": 10, "velocity": 125}, {"time": 127680, "pitch": 44, "duration": 20, "velocity": 120}, {"time": 127920, "pitch": 44, "duration": 10, "velocity": 120}, {"time": 128160, "pitch": 44, "duration": 10, "velocity": 120}, {"time": 128400, "pitch": 44, "duration": 10, "velocity": 120}, {"time": 128640, "pitch": 40, "duration": 10, "velocity": 125}, {"time": 128640, "pitch": 44, "duration": 20, "velocity": 120}, {"time": 128880, "pitch": 44, "duration": 10, "velocity": 120}, {"time": 129120, "pitch": 44, "duration": 10, "velocity": 120}, {"time": 129240, "pitch": 40, "duration": 10, "velocity": 70}, {"time": 129360, "pitch": 46, "duration": 10, "velocity": 120}, {"time": 129600, "pitch": 40, "duration": 10, "velocity": 125}, {"time": 129600, "pitch": 44, "duration": 20, "velocity": 120}, {"time": 129840, "pitch": 44, "duration": 10, "velocity": 120}, {"time": 130080, "pitch": 44, "duration": 10, "velocity": 120}, {"time": 133440, "pitch": 44, "duration": 10, "velocity": 120}, {"time": 133680, "pitch": 44, "duration": 10, "velocity": 120}, {"time": 133920, "pitch": 40, "duration": 20, "velocity": 117}, {"time": 133920, "pitch": 44, "duration": 10, "velocity": 120}, {"time": 134160, "pitch": 44, "duration": 10, "velocity": 120}, {"time": 134400, "pitch": 44, "duration": 10, "velocity": 120}, {"time": 134640, "pitch": 46, "duration": 10, "velocity": 120}, {"time": 134880, "pitch": 40, "duration": 10, "velocity": 117}, {"time": 134880, "pitch": 44, "duration": 20, "velocity": 120}, {"time": 135120, "pitch": 40, "duration": 10, "velocity": 125}, {"time": 135120, "pitch": 44, "duration": 20, "velocity": 120}, {"time": 135360, "pitch": 44, "duration": 10, "velocity": 120}, {"time": 135600, "pitch": 44, "duration": 10, "velocity": 120}, {"time": 135840, "pitch": 40, "duration": 10, "velocity": 125}, {"time": 135840, "pitch": 44, "duration": 20, "velocity": 120}, {"time": 136080, "pitch": 44, "duration": 10, "velocity": 120}, {"time": 136320, "pitch": 44, "duration": 10, "velocity": 120}, {"time": 136560, "pitch": 46, "duration": 10, "velocity": 120}, {"time": 136800, "pitch": 40, "duration": 10, "velocity": 125}, {"time": 136800, "pitch": 44, "duration": 20, "velocity": 120}, {"time": 137040, "pitch": 44, "duration": 10, "velocity": 120}, {"time": 137280, "pitch": 44, "duration": 10, "velocity": 120}, {"time": 137520, "pitch": 44, "duration": 10, "velocity": 120}, {"time": 137760, "pitch": 40, "duration": 10, "velocity": 125}, {"time": 137760, "pitch": 44, "duration": 20, "velocity": 120}, {"time": 138000, "pitch": 44, "duration": 10, "velocity": 120}, {"time": 138240, "pitch": 44, "duration": 10, "velocity": 120}, {"time": 138480, "pitch": 46, "duration": 10, "velocity": 120}, {"time": 138720, "pitch": 40, "duration": 10, "velocity": 125}, {"time": 138720, "pitch": 44, "duration": 20, "velocity": 120}, {"time": 138960, "pitch": 44, "duration": 10, "velocity": 120}, {"time": 139200, "pitch": 44, "duration": 10, "velocity": 120}, {"time": 139440, "pitch": 44, "duration": 10, "velocity": 120}, {"time": 139680, "pitch": 40, "duration": 10, "velocity": 125}, {"time": 139680, "pitch": 44, "duration": 20, "velocity": 120}, {"time": 139920, "pitch": 44, "duration": 10, "velocity": 120}, {"time": 140160, "pitch": 44, "duration": 10, "velocity": 120}, {"time": 140400, "pitch": 46, "duration": 10, "velocity": 120}, {"time": 140640, "pitch": 40, "duration": 10, "velocity": 125}, {"time": 140640, "pitch": 44, "duration": 20, "velocity": 120}, {"time": 140880, "pitch": 44, "duration": 10, "velocity": 120}, {"time": 141120, "pitch": 44, "duration": 10, "velocity": 120}, {"time": 141360, "pitch": 44, "duration": 10, "velocity": 120}, {"time": 141600, "pitch": 40, "duration": 10, "velocity": 125}, {"time": 141600, "pitch": 44, "duration": 20, "velocity": 120}, {"time": 141840, "pitch": 44, "duration": 10, "velocity": 120}, {"time": 142080, "pitch": 44, "duration": 10, "velocity": 120}, {"time": 142320, "pitch": 46, "duration": 10, "velocity": 120}, {"time": 142560, "pitch": 40, "duration": 10, "velocity": 125}, {"time": 142560, "pitch": 44, "duration": 20, "velocity": 120}, {"time": 142800, "pitch": 44, "duration": 10, "velocity": 120}, {"time": 143040, "pitch": 44, "duration": 10, "velocity": 120}, {"time": 143280, "pitch": 44, "duration": 10, "velocity": 120}, {"time": 143520, "pitch": 40, "duration": 10, "velocity": 125}, {"time": 143520, "pitch": 44, "duration": 20, "velocity": 120}, {"time": 143760, "pitch": 44, "duration": 10, "velocity": 120}, {"time": 144000, "pitch": 44, "duration": 10, "velocity": 120}, {"time": 144240, "pitch": 46, "duration": 10, "velocity": 120}, {"time": 144480, "pitch": 40, "duration": 10, "velocity": 125}, {"time": 144480, "pitch": 44, "duration": 20, "velocity": 120}, {"time": 144720, "pitch": 44, "duration": 10, "velocity": 120}, {"time": 144960, "pitch": 42, "duration": 10, "velocity": 120}, {"time": 147840, "pitch": 42, "duration": 10, "velocity": 120}, {"time": 147960, "pitch": 40, "duration": 10, "velocity": 127}, {"time": 147960, "pitch": 42, "duration": 20, "velocity": 120}, {"time": 148200, "pitch": 42, "duration": 10, "velocity": 120}, {"time": 148320, "pitch": 40, "duration": 10, "velocity": 127}, {"time": 148320, "pitch": 42, "duration": 20, "velocity": 120}, {"time": 148560, "pitch": 42, "duration": 10, "velocity": 106}, {"time": 148800, "pitch": 44, "duration": 10, "velocity": 120}, {"time": 149040, "pitch": 44, "duration": 10, "velocity": 120}, {"time": 149280, "pitch": 40, "duration": 10, "velocity": 125}, {"time": 149280, "pitch": 44, "duration": 20, "velocity": 120}, {"time": 149520, "pitch": 44, "duration": 10, "velocity": 120}, {"time": 149760, "pitch": 44, "duration": 10, "velocity": 120}, {"time": 150000, "pitch": 46, "duration": 10, "velocity": 120}, {"time": 150240, "pitch": 40, "duration": 10, "velocity": 125}, {"time": 150240, "pitch": 44, "duration": 20, "velocity": 120}, {"time": 150480, "pitch": 44, "duration": 10, "velocity": 120}, {"time": 150720, "pitch": 44, "duration": 10, "velocity": 120}, {"time": 150960, "pitch": 44, "duration": 10, "velocity": 120}, {"time": 151200, "pitch": 40, "duration": 10, "velocity": 125}, {"time": 151200, "pitch": 44, "duration": 20, "velocity": 120}, {"time": 151440, "pitch": 44, "duration": 10, "velocity": 120}, {"time": 151680, "pitch": 44, "duration": 10, "velocity": 120}, {"time": 151920, "pitch": 46, "duration": 10, "velocity": 120}, {"time": 152160, "pitch": 40, "duration": 10, "velocity": 125}, {"time": 152160, "pitch": 44, "duration": 20, "velocity": 120}, {"time": 152400, "pitch": 44, "duration": 10, "velocity": 120}, {"time": 152640, "pitch": 44, "duration": 10, "velocity": 120}, {"time": 152880, "pitch": 44, "duration": 10, "velocity": 120}, {"time": 153120, "pitch": 40, "duration": 10, "velocity": 125}, {"time": 153120, "pitch": 44, "duration": 20, "velocity": 120}, {"time": 153360, "pitch": 44, "duration": 10, "velocity": 120}, {"time": 153600, "pitch": 44, "duration": 10, "velocity": 120}, {"time": 153840, "pitch": 46, "duration": 10, "velocity": 120}, {"time": 154080, "pitch": 40, "duration": 10, "velocity": 125}, {"time": 154080, "pitch": 44, "duration": 20, "velocity": 120}, {"time": 154320, "pitch": 44, "duration": 10, "velocity": 120}, {"time": 154560, "pitch": 44, "duration": 10, "velocity": 120}, {"time": 154800, "pitch": 44, "duration": 10, "velocity": 120}, {"time": 155040, "pitch": 40, "duration": 10, "velocity": 125}, {"time": 155040, "pitch": 44, "duration": 20, "velocity": 120}, {"time": 155280, "pitch": 44, "duration": 10, "velocity": 120}, {"time": 155520, "pitch": 44, "duration": 10, "velocity": 120}, {"time": 155760, "pitch": 46, "duration": 10, "velocity": 120}, {"time": 156000, "pitch": 40, "duration": 10, "velocity": 125}, {"time": 156000, "pitch": 44, "duration": 20, "velocity": 120}, {"time": 156240, "pitch": 44, "duration": 10, "velocity": 120}, {"time": 156480, "pitch": 44, "duration": 10, "velocity": 120}, {"time": 156720, "pitch": 44, "duration": 10, "velocity": 120}, {"time": 156960, "pitch": 40, "duration": 10, "velocity": 125}, {"time": 156960, "pitch": 44, "duration": 20, "velocity": 120}, {"time": 157200, "pitch": 44, "duration": 10, "velocity": 120}, {"time": 157440, "pitch": 44, "duration": 10, "velocity": 120}, {"time": 157680, "pitch": 46, "duration": 10, "velocity": 120}, {"time": 157920, "pitch": 40, "duration": 10, "velocity": 125}, {"time": 157920, "pitch": 44, "duration": 20, "velocity": 120}, {"time": 158160, "pitch": 44, "duration": 10, "velocity": 120}, {"time": 158400, "pitch": 44, "duration": 10, "velocity": 120}, {"time": 158640, "pitch": 44, "duration": 10, "velocity": 120}, {"time": 158880, "pitch": 40, "duration": 10, "velocity": 125}, {"time": 158880, "pitch": 44, "duration": 20, "velocity": 120}, {"time": 159120, "pitch": 44, "duration": 10, "velocity": 120}, {"time": 159360, "pitch": 44, "duration": 10, "velocity": 120}, {"time": 159600, "pitch": 46, "duration": 10, "velocity": 120}, {"time": 159840, "pitch": 40, "duration": 10, "velocity": 125}, {"time": 159840, "pitch": 44, "duration": 20, "velocity": 120}, {"time": 160080, "pitch": 44, "duration": 10, "velocity": 120}, {"time": 160320, "pitch": 44, "duration": 10, "velocity": 120}, {"time": 160560, "pitch": 44, "duration": 10, "velocity": 120}, {"time": 160800, "pitch": 40, "duration": 10, "velocity": 125}, {"time": 160800, "pitch": 44, "duration": 20, "velocity": 120}, {"time": 161040, "pitch": 44, "duration": 10, "velocity": 120}, {"time": 161280, "pitch": 44, "duration": 10, "velocity": 120}, {"time": 161520, "pitch": 46, "duration": 10, "velocity": 120}, {"time": 161760, "pitch": 40, "duration": 10, "velocity": 125}, {"time": 161760, "pitch": 44, "duration": 20, "velocity": 120}, {"time": 162000, "pitch": 44, "duration": 10, "velocity": 120}, {"time": 162240, "pitch": 44, "duration": 10, "velocity": 120}, {"time": 162480, "pitch": 44, "duration": 10, "velocity": 120}, {"time": 162720, "pitch": 40, "duration": 10, "velocity": 125}, {"time": 162720, "pitch": 44, "duration": 20, "velocity": 120}, {"time": 162960, "pitch": 44, "duration": 10, "velocity": 120}, {"time": 163200, "pitch": 44, "duration": 10, "velocity": 120}, {"time": 163320, "pitch": 40, "duration": 10, "velocity": 70}, {"time": 163440, "pitch": 46, "duration": 10, "velocity": 120}, {"time": 163680, "pitch": 40, "duration": 10, "velocity": 125}, {"time": 163680, "pitch": 44, "duration": 20, "velocity": 120}, {"time": 163920, "pitch": 44, "duration": 10, "velocity": 120}, {"time": 164160, "pitch": 44, "duration": 10, "velocity": 120}, {"time": 164400, "pitch": 44, "duration": 10, "velocity": 120}, {"time": 164640, "pitch": 40, "duration": 10, "velocity": 125}, {"time": 164640, "pitch": 44, "duration": 20, "velocity": 120}, {"time": 164880, "pitch": 44, "duration": 10, "velocity": 120}, {"time": 165120, "pitch": 44, "duration": 10, "velocity": 120}, {"time": 165360, "pitch": 46, "duration": 10, "velocity": 120}, {"time": 165600, "pitch": 40, "duration": 10, "velocity": 125}, {"time": 165600, "pitch": 44, "duration": 20, "velocity": 120}, {"time": 165840, "pitch": 44, "duration": 10, "velocity": 120}, {"time": 166080, "pitch": 44, "duration": 10, "velocity": 120}, {"time": 166320, "pitch": 44, "duration": 10, "velocity": 120}, {"time": 166560, "pitch": 40, "duration": 10, "velocity": 125}, {"time": 166560, "pitch": 44, "duration": 20, "velocity": 120}, {"time": 166800, "pitch": 44, "duration": 10, "velocity": 120}, {"time": 167040, "pitch": 44, "duration": 10, "velocity": 120}, {"time": 167280, "pitch": 46, "duration": 10, "velocity": 120}, {"time": 167520, "pitch": 40, "duration": 10, "velocity": 125}, {"time": 167520, "pitch": 44, "duration": 20, "velocity": 120}, {"time": 167760, "pitch": 44, "duration": 10, "velocity": 120}, {"time": 168000, "pitch": 44, "duration": 10, "velocity": 120}, {"time": 168240, "pitch": 44, "duration": 10, "velocity": 120}, {"time": 168480, "pitch": 40, "duration": 10, "velocity": 125}, {"time": 168480, "pitch": 44, "duration": 20, "velocity": 120}, {"time": 168720, "pitch": 44, "duration": 10, "velocity": 120}, {"time": 168960, "pitch": 44, "duration": 10, "velocity": 120}, {"time": 169200, "pitch": 46, "duration": 10, "velocity": 120}, {"time": 169440, "pitch": 40, "duration": 10, "velocity": 125}, {"time": 169440, "pitch": 44, "duration": 20, "velocity": 120}, {"time": 169680, "pitch": 44, "duration": 10, "velocity": 120}, {"time": 169920, "pitch": 44, "duration": 10, "velocity": 120}, {"time": 170160, "pitch": 44, "duration": 10, "velocity": 120}, {"time": 170400, "pitch": 40, "duration": 10, "velocity": 125}, {"time": 170400, "pitch": 44, "duration": 20, "velocity": 120}, {"time": 170640, "pitch": 44, "duration": 10, "velocity": 120}, {"time": 170880, "pitch": 44, "duration": 10, "velocity": 120}, {"time": 171120, "pitch": 46, "duration": 10, "velocity": 120}, {"time": 171360, "pitch": 40, "duration": 10, "velocity": 125}, {"time": 171360, "pitch": 44, "duration": 20, "velocity": 120}, {"time": 171600, "pitch": 44, "duration": 10, "velocity": 120}, {"time": 171840, "pitch": 44, "duration": 10, "velocity": 120}, {"time": 172080, "pitch": 44, "duration": 10, "velocity": 120}, {"time": 172320, "pitch": 40, "duration": 10, "velocity": 125}, {"time": 172320, "pitch": 44, "duration": 20, "velocity": 120}, {"time": 172560, "pitch": 44, "duration": 10, "velocity": 120}, {"time": 172800, "pitch": 44, "duration": 10, "velocity": 120}, {"time": 173040, "pitch": 46, "duration": 10, "velocity": 120}, {"time": 173280, "pitch": 40, "duration": 10, "velocity": 125}, {"time": 173280, "pitch": 44, "duration": 20, "velocity": 120}, {"time": 173520, "pitch": 44, "duration": 10, "velocity": 120}, {"time": 173760, "pitch": 44, "duration": 10, "velocity": 120}, {"time": 174000, "pitch": 44, "duration": 10, "velocity": 120}, {"time": 174240, "pitch": 40, "duration": 10, "velocity": 125}, {"time": 174240, "pitch": 44, "duration": 20, "velocity": 120}, {"time": 174480, "pitch": 44, "duration": 10, "velocity": 120}, {"time": 174720, "pitch": 44, "duration": 10, "velocity": 120}, {"time": 174960, "pitch": 46, "duration": 10, "velocity": 120}, {"time": 175200, "pitch": 40, "duration": 10, "velocity": 125}, {"time": 175200, "pitch": 44, "duration": 20, "velocity": 120}, {"time": 175440, "pitch": 44, "duration": 10, "velocity": 120}, {"time": 175680, "pitch": 44, "duration": 10, "velocity": 120}, {"time": 175920, "pitch": 44, "duration": 10, "velocity": 120}, {"time": 176160, "pitch": 40, "duration": 10, "velocity": 125}, {"time": 176160, "pitch": 44, "duration": 20, "velocity": 120}, {"time": 176400, "pitch": 44, "duration": 10, "velocity": 120}, {"time": 176640, "pitch": 44, "duration": 10, "velocity": 120}, {"time": 176880, "pitch": 46, "duration": 10, "velocity": 120}, {"time": 177120, "pitch": 40, "duration": 10, "velocity": 125}, {"time": 177120, "pitch": 44, "duration": 20, "velocity": 120}, {"time": 177360, "pitch": 44, "duration": 10, "velocity": 120}, {"time": 177600, "pitch": 44, "duration": 10, "velocity": 120}, {"time": 177840, "pitch": 44, "duration": 10, "velocity": 120}, {"time": 178080, "pitch": 40, "duration": 10, "velocity": 125}, {"time": 178080, "pitch": 44, "duration": 20, "velocity": 120}, {"time": 178320, "pitch": 44, "duration": 10, "velocity": 120}, {"time": 178560, "pitch": 44, "duration": 10, "velocity": 120}, {"time": 178680, "pitch": 40, "duration": 10, "velocity": 70}, {"time": 178800, "pitch": 46, "duration": 10, "velocity": 120}, {"time": 179040, "pitch": 40, "duration": 10, "velocity": 125}, {"time": 179040, "pitch": 44, "duration": 20, "velocity": 120}, {"time": 179280, "pitch": 44, "duration": 10, "velocity": 120}, {"time": 179520, "pitch": 44, "duration": 10, "velocity": 120}, {"time": 179760, "pitch": 44, "duration": 10, "velocity": 120}, {"time": 180000, "pitch": 40, "duration": 10, "velocity": 125}, {"time": 180000, "pitch": 44, "duration": 20, "velocity": 120}, {"time": 180240, "pitch": 44, "duration": 10, "velocity": 120}, {"time": 180480, "pitch": 44, "duration": 10, "velocity": 120}, {"time": 180720, "pitch": 46, "duration": 10, "velocity": 120}, {"time": 180960, "pitch": 40, "duration": 10, "velocity": 125}, {"time": 180960, "pitch": 44, "duration": 20, "velocity": 120}, {"time": 181200, "pitch": 44, "duration": 10, "velocity": 120}, {"time": 181440, "pitch": 44, "duration": 10, "velocity": 120}, {"time": 181680, "pitch": 44, "duration": 10, "velocity": 120}, {"time": 181920, "pitch": 40, "duration": 10, "velocity": 125}, {"time": 181920, "pitch": 44, "duration": 20, "velocity": 120}, {"time": 182160, "pitch": 44, "duration": 10, "velocity": 120}, {"time": 182400, "pitch": 44, "duration": 10, "velocity": 120}, {"time": 182640, "pitch": 46, "duration": 10, "velocity": 120}, {"time": 182880, "pitch": 40, "duration": 10, "velocity": 125}, {"time": 182880, "pitch": 44, "duration": 20, "velocity": 120}, {"time": 183120, "pitch": 44, "duration": 10, "velocity": 120}, {"time": 183360, "pitch": 44, "duration": 10, "velocity": 120}, {"time": 183600, "pitch": 44, "duration": 10, "velocity": 120}, {"time": 183840, "pitch": 40, "duration": 10, "velocity": 125}, {"time": 183840, "pitch": 44, "duration": 20, "velocity": 120}, {"time": 184080, "pitch": 44, "duration": 10, "velocity": 120}, {"time": 184320, "pitch": 44, "duration": 10, "velocity": 120}, {"time": 184560, "pitch": 46, "duration": 10, "velocity": 120}, {"time": 184800, "pitch": 40, "duration": 10, "velocity": 125}, {"time": 184800, "pitch": 44, "duration": 20, "velocity": 120}, {"time": 185040, "pitch": 44, "duration": 10, "velocity": 120}, {"time": 185280, "pitch": 44, "duration": 10, "velocity": 120}, {"time": 185520, "pitch": 44, "duration": 10, "velocity": 120}, {"time": 185760, "pitch": 40, "duration": 10, "velocity": 125}, {"time": 185760, "pitch": 44, "duration": 20, "velocity": 120}, {"time": 186000, "pitch": 44, "duration": 10, "velocity": 120}, {"time": 186240, "pitch": 44, "duration": 10, "velocity": 120}, {"time": 186480, "pitch": 46, "duration": 10, "velocity": 120}, {"time": 186720, "pitch": 40, "duration": 10, "velocity": 125}, {"time": 186720, "pitch": 44, "duration": 20, "velocity": 120}, {"time": 186960, "pitch": 44, "duration": 10, "velocity": 120}, {"time": 187200, "pitch": 44, "duration": 10, "velocity": 120}, {"time": 187440, "pitch": 44, "duration": 10, "velocity": 120}, {"time": 187680, "pitch": 40, "duration": 10, "velocity": 125}, {"time": 187680, "pitch": 44, "duration": 20, "velocity": 120}, {"time": 187920, "pitch": 44, "duration": 10, "velocity": 120}, {"time": 188160, "pitch": 44, "duration": 10, "velocity": 120}, {"time": 188400, "pitch": 46, "duration": 10, "velocity": 120}, {"time": 188640, "pitch": 40, "duration": 10, "velocity": 125}, {"time": 188640, "pitch": 44, "duration": 20, "velocity": 120}, {"time": 188880, "pitch": 44, "duration": 10, "velocity": 120}, {"time": 189120, "pitch": 44, "duration": 10, "velocity": 120}, {"time": 189360, "pitch": 44, "duration": 10, "velocity": 120}, {"time": 189600, "pitch": 40, "duration": 10, "velocity": 125}, {"time": 189600, "pitch": 44, "duration": 20, "velocity": 120}, {"time": 189840, "pitch": 44, "duration": 10, "velocity": 120}, {"time": 190080, "pitch": 44, "duration": 10, "velocity": 120}, {"time": 190320, "pitch": 46, "duration": 10, "velocity": 120}, {"time": 190560, "pitch": 40, "duration": 10, "velocity": 125}, {"time": 190560, "pitch": 44, "duration": 20, "velocity": 120}, {"time": 190800, "pitch": 44, "duration": 10, "velocity": 120}, {"time": 191040, "pitch": 44, "duration": 10, "velocity": 120}, {"time": 191280, "pitch": 44, "duration": 10, "velocity": 120}, {"time": 191520, "pitch": 40, "duration": 10, "velocity": 125}, {"time": 191520, "pitch": 44, "duration": 20, "velocity": 120}, {"time": 191760, "pitch": 44, "duration": 10, "velocity": 120}, {"time": 192000, "pitch": 44, "duration": 10, "velocity": 120}, {"time": 192120, "pitch": 40, "duration": 10, "velocity": 112}, {"time": 192240, "pitch": 46, "duration": 10, "velocity": 120}, {"time": 192480, "pitch": 40, "duration": 10, "velocity": 125}, {"time": 192480, "pitch": 44, "duration": 20, "velocity": 120}, {"time": 192720, "pitch": 44, "duration": 10, "velocity": 120}, {"time": 192960, "pitch": 42, "duration": 10, "velocity": 120}, {"time": 194520, "pitch": 46, "duration": 10, "velocity": 120}, {"time": 194760, "pitch": 42, "duration": 10, "velocity": 60}, {"time": 55200, "pitch": 73, "duration": 460, "velocity": 70}, {"time": 55680, "pitch": 74, "duration": 220, "velocity": 65}, {"time": 55920, "pitch": 71, "duration": 700, "velocity": 70}, {"time": 57120, "pitch": 73, "duration": 460, "velocity": 70}, {"time": 57600, "pitch": 74, "duration": 220, "velocity": 65}, {"time": 57840, "pitch": 71, "duration": 700, "velocity": 70}, {"time": 62880, "pitch": 73, "duration": 460, "velocity": 70}, {"time": 63360, "pitch": 74, "duration": 220, "velocity": 65}, {"time": 63600, "pitch": 71, "duration": 700, "velocity": 70}, {"time": 64800, "pitch": 73, "duration": 460, "velocity": 70}, {"time": 65280, "pitch": 74, "duration": 220, "velocity": 65}, {"time": 65520, "pitch": 71, "duration": 700, "velocity": 70}, {"time": 105120, "pitch": 73, "duration": 460, "velocity": 70}, {"time": 105600, "pitch": 74, "duration": 220, "velocity": 65}, {"time": 105840, "pitch": 71, "duration": 700, "velocity": 70}, {"time": 107040, "pitch": 73, "duration": 460, "velocity": 70}, {"time": 107520, "pitch": 74, "duration": 220, "velocity": 65}, {"time": 107760, "pitch": 71, "duration": 700, "velocity": 70}, {"time": 112800, "pitch": 73, "duration": 460, "velocity": 70}, {"time": 113280, "pitch": 74, "duration": 220, "velocity": 65}, {"time": 113520, "pitch": 71, "duration": 700, "velocity": 70}, {"time": 114720, "pitch": 73, "duration": 460, "velocity": 70}, {"time": 115200, "pitch": 74, "duration": 220, "velocity": 65}, {"time": 115440, "pitch": 71, "duration": 700, "velocity": 70}, {"time": 152640, "pitch": 73, "duration": 460, "velocity": 70}, {"time": 153120, "pitch": 74, "duration": 220, "velocity": 65}, {"time": 153360, "pitch": 71, "duration": 700, "velocity": 70}, {"time": 154560, "pitch": 73, "duration": 460, "velocity": 70}, {"time": 155040, "pitch": 74, "duration": 220, "velocity": 65}, {"time": 155280, "pitch": 71, "duration": 700, "velocity": 70}, {"time": 160320, "pitch": 73, "duration": 460, "velocity": 70}, {"time": 160800, "pitch": 74, "duration": 220, "velocity": 65}, {"time": 161040, "pitch": 71, "duration": 700, "velocity": 70}, {"time": 162240, "pitch": 73, "duration": 460, "velocity": 70}, {"time": 162720, "pitch": 74, "duration": 220, "velocity": 65}, {"time": 162960, "pitch": 71, "duration": 700, "velocity": 70}, {"time": 168000, "pitch": 73, "duration": 460, "velocity": 70}, {"time": 168480, "pitch": 74, "duration": 220, "velocity": 65}, {"time": 168720, "pitch": 71, "duration": 700, "velocity": 70}, {"time": 169920, "pitch": 73, "duration": 460, "velocity": 70}, {"time": 170400, "pitch": 74, "duration": 220, "velocity": 65}, {"time": 170640, "pitch": 71, "duration": 700, "velocity": 70}, {"time": 175680, "pitch": 73, "duration": 460, "velocity": 70}, {"time": 176160, "pitch": 74, "duration": 220, "velocity": 65}, {"time": 176400, "pitch": 71, "duration": 700, "velocity": 70}, {"time": 177600, "pitch": 73, "duration": 460, "velocity": 70}, {"time": 178080, "pitch": 74, "duration": 220, "velocity": 65}, {"time": 178320, "pitch": 71, "duration": 700, "velocity": 70}, {"time": 180000, "pitch": 62, "duration": 100, "velocity": 90}, {"time": 180000, "pitch": 66, "duration": 100, "velocity": 95}, {"time": 180120, "pitch": 64, "duration": 100, "velocity": 95}, {"time": 180120, "pitch": 68, "duration": 100, "velocity": 100}, {"time": 180360, "pitch": 62, "duration": 100, "velocity": 90}, {"time": 180360, "pitch": 66, "duration": 100, "velocity": 95}, {"time": 180480, "pitch": 64, "duration": 100, "velocity": 95}, {"time": 180480, "pitch": 68, "duration": 100, "velocity": 100}, {"time": 180720, "pitch": 62, "duration": 100, "velocity": 85}, {"time": 180720, "pitch": 66, "duration": 100, "velocity": 90}, {"time": 180840, "pitch": 69, "duration": 260, "velocity": 85}, {"time": 180840, "pitch": 71, "duration": 260, "velocity": 100}, {"time": 181200, "pitch": 64, "duration": 460, "velocity": 90}, {"time": 181200, "pitch": 68, "duration": 460, "velocity": 95}, {"time": 181920, "pitch": 62, "duration": 100, "velocity": 90}, {"time": 181920, "pitch": 66, "duration": 100, "velocity": 95}, {"time": 182040, "pitch": 64, "duration": 100, "velocity": 95}, {"time": 182040, "pitch": 68, "duration": 100, "velocity": 100}, {"time": 182280, "pitch": 62, "duration": 100, "velocity": 90}, {"time": 182280, "pitch": 66, "duration": 100, "velocity": 95}, {"time": 182400, "pitch": 64, "duration": 100, "velocity": 95}, {"time": 182400, "pitch": 68, "duration": 100, "velocity": 100}, {"time": 182640, "pitch": 62, "duration": 100, "velocity": 85}, {"time": 182640, "pitch": 66, "duration": 100, "velocity": 90}, {"time": 182760, "pitch": 69, "duration": 260, "velocity": 85}, {"time": 182760, "pitch": 71, "duration": 260, "velocity": 100}, {"time": 183120, "pitch": 64, "duration": 460, "velocity": 90}, {"time": 183120, "pitch": 68, "duration": 460, "velocity": 95}, {"time": 183840, "pitch": 62, "duration": 100, "velocity": 90}, {"time": 183840, "pitch": 66, "duration": 100, "velocity": 95}, {"time": 183960, "pitch": 64, "duration": 100, "velocity": 95}, {"time": 183960, "pitch": 68, "duration": 100, "velocity": 100}, {"time": 184200, "pitch": 62, "duration": 100, "velocity": 90}, {"time": 184200, "pitch": 66, "duration": 100, "velocity": 95}, {"time": 184320, "pitch": 64, "duration": 100, "velocity": 95}, {"time": 184320, "pitch": 68, "duration": 100, "velocity": 100}, {"time": 184560, "pitch": 62, "duration": 100, "velocity": 85}, {"time": 184560, "pitch": 66, "duration": 100, "velocity": 90}, {"time": 184680, "pitch": 69, "duration": 260, "velocity": 85}, {"time": 184680, "pitch": 71, "duration": 260, "velocity": 100}, {"time": 185040, "pitch": 64, "duration": 460, "velocity": 90}, {"time": 185040, "pitch": 68, "duration": 460, "velocity": 95}, {"time": 185760, "pitch": 62, "duration": 100, "velocity": 90}, {"time": 185760, "pitch": 66, "duration": 100, "velocity": 95}, {"time": 185880, "pitch": 64, "duration": 100, "velocity": 95}, {"time": 185880, "pitch": 68, "duration": 100, "velocity": 100}, {"time": 186120, "pitch": 62, "duration": 100, "velocity": 90}, {"time": 186120, "pitch": 66, "duration": 100, "velocity": 95}, {"time": 186240, "pitch": 64, "duration": 100, "velocity": 95}, {"time": 186240, "pitch": 68, "duration": 100, "velocity": 100}, {"time": 186480, "pitch": 62, "duration": 100, "velocity": 85}, {"time": 186480, "pitch": 66, "duration": 100, "velocity": 90}, {"time": 186600, "pitch": 69, "duration": 260, "velocity": 85}, {"time": 186600, "pitch": 71, "duration": 260, "velocity": 100}, {"time": 186960, "pitch": 64, "duration": 460, "velocity": 90}, {"time": 186960, "pitch": 68, "duration": 460, "velocity": 95}, {"time": 187680, "pitch": 62, "duration": 100, "velocity": 90}, {"time": 187680, "pitch": 66, "duration": 100, "velocity": 95}, {"time": 187800, "pitch": 64, "duration": 100, "velocity": 95}, {"time": 187800, "pitch": 68, "duration": 100, "velocity": 100}, {"time": 188040, "pitch": 62, "duration": 100, "velocity": 90}, {"time": 188040, "pitch": 66, "duration": 100, "velocity": 95}, {"time": 188160, "pitch": 64, "duration": 100, "velocity": 95}, {"time": 188160, "pitch": 68, "duration": 100, "velocity": 100}, {"time": 188400, "pitch": 62, "duration": 100, "velocity": 85}, {"time": 188400, "pitch": 66, "duration": 100, "velocity": 90}, {"time": 188520, "pitch": 69, "duration": 260, "velocity": 85}, {"time": 188520, "pitch": 71, "duration": 260, "velocity": 100}, {"time": 188880, "pitch": 64, "duration": 460, "velocity": 90}, {"time": 188880, "pitch": 68, "duration": 460, "velocity": 95}, {"time": 189600, "pitch": 62, "duration": 100, "velocity": 90}, {"time": 189600, "pitch": 66, "duration": 100, "velocity": 95}, {"time": 189720, "pitch": 64, "duration": 100, "velocity": 95}, {"time": 189720, "pitch": 68, "duration": 100, "velocity": 100}, {"time": 189960, "pitch": 62, "duration": 100, "velocity": 90}, {"time": 189960, "pitch": 66, "duration": 100, "velocity": 95}, {"time": 190080, "pitch": 64, "duration": 100, "velocity": 95}, {"time": 190080, "pitch": 68, "duration": 100, "velocity": 100}, {"time": 190320, "pitch": 62, "duration": 100, "velocity": 85}, {"time": 190320, "pitch": 66, "duration": 100, "velocity": 90}, {"time": 190440, "pitch": 69, "duration": 260, "velocity": 85}, {"time": 190440, "pitch": 71, "duration": 260, "velocity": 100}, {"time": 190800, "pitch": 64, "duration": 460, "velocity": 90}, {"time": 190800, "pitch": 68, "duration": 460, "velocity": 95}, {"time": 191520, "pitch": 62, "duration": 100, "velocity": 90}, {"time": 191520, "pitch": 66, "duration": 100, "velocity": 95}, {"time": 191640, "pitch": 64, "duration": 100, "velocity": 95}, {"time": 191640, "pitch": 68, "duration": 100, "velocity": 100}, {"time": 191880, "pitch": 62, "duration": 100, "velocity": 90}, {"time": 191880, "pitch": 66, "duration": 100, "velocity": 95}, {"time": 192000, "pitch": 64, "duration": 100, "velocity": 95}, {"time": 192000, "pitch": 68, "duration": 100, "velocity": 100}, {"time": 192240, "pitch": 62, "duration": 100, "velocity": 85}, {"time": 192240, "pitch": 66, "duration": 100, "velocity": 90}, {"time": 192360, "pitch": 69, "duration": 260, "velocity": 85}, {"time": 192360, "pitch": 71, "duration": 260, "velocity": 100}, {"time": 192720, "pitch": 64, "duration": 240, "velocity": 90}, {"time": 192720, "pitch": 68, "duration": 240, "velocity": 95}, {"time": 72600, "pitch": 73, "duration": 100, "velocity": 45}, {"time": 72720, "pitch": 74, "duration": 120, "velocity": 95}, {"time": 72840, "pitch": 73, "duration": 100, "velocity": 45}, {"time": 72960, "pitch": 73, "duration": 120, "velocity": 95}, {"time": 73080, "pitch": 74, "duration": 120, "velocity": 90}, {"time": 73200, "pitch": 73, "duration": 100, "velocity": 40}, {"time": 73320, "pitch": 71, "duration": 120, "velocity": 95}, {"time": 73440, "pitch": 71, "duration": 100, "velocity": 40}, {"time": 73560, "pitch": 69, "duration": 700, "velocity": 85}, {"time": 116640, "pitch": 86, "duration": 220, "velocity": 110}, {"time": 116880, "pitch": 86, "duration": 300, "velocity": 95}, {"time": 117240, "pitch": 86, "duration": 260, "velocity": 97}, {"time": 117600, "pitch": 86, "duration": 290, "velocity": 95}, {"time": 117960, "pitch": 86, "duration": 260, "velocity": 95}, {"time": 118320, "pitch": 86, "duration": 300, "velocity": 90}, {"time": 118800, "pitch": 86, "duration": 300, "velocity": 86}, {"time": 119160, "pitch": 86, "duration": 230, "velocity": 71}, {"time": 119520, "pitch": 86, "duration": 250, "velocity": 86}, {"time": 119880, "pitch": 86, "duration": 240, "velocity": 82}, {"time": 120240, "pitch": 86, "duration": 240, "velocity": 86}, {"time": 120720, "pitch": 86, "duration": 250, "velocity": 92}, {"time": 121080, "pitch": 86, "duration": 220, "velocity": 90}, {"time": 121440, "pitch": 86, "duration": 190, "velocity": 84}, {"time": 121800, "pitch": 86, "duration": 190, "velocity": 86}, {"time": 122160, "pitch": 86, "duration": 190, "velocity": 88}, {"time": 122520, "pitch": 86, "duration": 210, "velocity": 86}, {"time": 123000, "pitch": 86, "duration": 170, "velocity": 97}, {"time": 123240, "pitch": 86, "duration": 190, "velocity": 97}, {"time": 123600, "pitch": 86, "duration": 190, "velocity": 92}, {"time": 123960, "pitch": 86, "duration": 190, "velocity": 108}, {"time": 124320, "pitch": 86, "duration": 170, "velocity": 99}, {"time": 124560, "pitch": 86, "duration": 120, "velocity": 95}, {"time": 124920, "pitch": 86, "duration": 200, "velocity": 92}, {"time": 125280, "pitch": 86, "duration": 200, "velocity": 90}, {"time": 125640, "pitch": 86, "duration": 190, "velocity": 90}, {"time": 126000, "pitch": 86, "duration": 210, "velocity": 88}, {"time": 126480, "pitch": 86, "duration": 210, "velocity": 90}, {"time": 126840, "pitch": 86, "duration": 210, "velocity": 90}, {"time": 127200, "pitch": 86, "duration": 250, "velocity": 92}, {"time": 127560, "pitch": 86, "duration": 190, "velocity": 80}, {"time": 127920, "pitch": 86, "duration": 220, "velocity": 88}, {"time": 128400, "pitch": 86, "duration": 220, "velocity": 95}, {"time": 128760, "pitch": 86, "duration": 210, "velocity": 88}, {"time": 129120, "pitch": 86, "duration": 240, "velocity": 90}, {"time": 129480, "pitch": 86, "duration": 220, "velocity": 92}, {"time": 129840, "pitch": 86, "duration": 200, "velocity": 97}, {"time": 130320, "pitch": 86, "duration": 250, "velocity": 88}, {"time": 130680, "pitch": 86, "duration": 190, "velocity": 84}, {"time": 131040, "pitch": 86, "duration": 230, "velocity": 95}, {"time": 131400, "pitch": 86, "duration": 200, "velocity": 92}, {"time": 131760, "pitch": 86, "duration": 190, "velocity": 105}, {"time": 132240, "pitch": 86, "duration": 240, "velocity": 88}, {"time": 132480, "pitch": 86, "duration": 230, "velocity": 95}, {"time": 132840, "pitch": 86, "duration": 200, "velocity": 92}, {"time": 133200, "pitch": 86, "duration": 190, "velocity": 105}, {"time": 51360, "pitch": 74, "duration": 960, "velocity": 80}, {"time": 51360, "pitch": 79, "duration": 960, "velocity": 90}, {"time": 51360, "pitch": 83, "duration": 960, "velocity": 120}, {"time": 59040, "pitch": 74, "duration": 960, "velocity": 80}, {"time": 59040, "pitch": 79, "duration": 960, "velocity": 90}, {"time": 59040, "pitch": 83, "duration": 960, "velocity": 120}, {"time": 101280, "pitch": 74, "duration": 960, "velocity": 80}, {"time": 101280, "pitch": 79, "duration": 960, "velocity": 90}, {"time": 101280, "pitch": 83, "duration": 960, "velocity": 120}, {"time": 108960, "pitch": 74, "duration": 960, "velocity": 80}, {"time": 108960, "pitch": 79, "duration": 960, "velocity": 90}, {"time": 108960, "pitch": 83, "duration": 960, "velocity": 120}, {"time": 130560, "pitch": 79, "duration": 2880, "velocity": 100}, {"time": 130560, "pitch": 81, "duration": 2880, "velocity": 80}, {"time": 130560, "pitch": 86, "duration": 2880, "velocity": 120}, {"time": 148800, "pitch": 74, "duration": 960, "velocity": 80}, {"time": 148800, "pitch": 79, "duration": 960, "velocity": 90}, {"time": 148800, "pitch": 83, "duration": 960, "velocity": 120}, {"time": 156480, "pitch": 74, "duration": 960, "velocity": 80}, {"time": 156480, "pitch": 79, "duration": 960, "velocity": 90}, {"time": 156480, "pitch": 83, "duration": 960, "velocity": 120}, {"time": 164160, "pitch": 74, "duration": 960, "velocity": 80}, {"time": 164160, "pitch": 79, "duration": 960, "velocity": 90}, {"time": 164160, "pitch": 83, "duration": 960, "velocity": 120}, {"time": 171840, "pitch": 74, "duration": 960, "velocity": 80}, {"time": 171840, "pitch": 79, "duration": 960, "velocity": 90}, {"time": 171840, "pitch": 83, "duration": 960, "velocity": 120}, {"time": 179520, "pitch": 74, "duration": 960, "velocity": 80}, {"time": 179520, "pitch": 79, "duration": 960, "velocity": 90}, {"time": 179520, "pitch": 83, "duration": 960, "velocity": 120}, {"time": 187200, "pitch": 74, "duration": 960, "velocity": 80}, {"time": 187200, "pitch": 79, "duration": 960, "velocity": 90}, {"time": 187200, "pitch": 83, "duration": 960, "velocity": 120}, {"time": 1440, "pitch": 56, "duration": 110, "velocity": 95}, {"time": 1440, "pitch": 62, "duration": 110, "velocity": 100}, {"time": 1450, "pitch": 66, "duration": 100, "velocity": 105}, {"time": 1450, "pitch": 71, "duration": 100, "velocity": 110}, {"time": 1560, "pitch": 66, "duration": 10, "velocity": 45}, {"time": 1560, "pitch": 71, "duration": 10, "velocity": 50}, {"time": 1570, "pitch": 56, "duration": 10, "velocity": 35}, {"time": 1570, "pitch": 62, "duration": 10, "velocity": 40}, {"time": 1680, "pitch": 56, "duration": 10, "velocity": 85}, {"time": 1680, "pitch": 62, "duration": 10, "velocity": 70}, {"time": 1690, "pitch": 66, "duration": 10, "velocity": 75}, {"time": 1690, "pitch": 71, "duration": 10, "velocity": 80}, {"time": 1800, "pitch": 66, "duration": 110, "velocity": 100}, {"time": 1800, "pitch": 71, "duration": 110, "velocity": 105}, {"time": 1810, "pitch": 56, "duration": 100, "velocity": 90}, {"time": 1810, "pitch": 62, "duration": 100, "velocity": 95}, {"time": 1920, "pitch": 56, "duration": 10, "velocity": 75}, {"time": 1920, "pitch": 62, "duration": 10, "velocity": 80}, {"time": 1930, "pitch": 66, "duration": 10, "velocity": 85}, {"time": 1930, "pitch": 71, "duration": 10, "velocity": 90}, {"time": 2040, "pitch": 66, "duration": 10, "velocity": 65}, {"time": 2040, "pitch": 71, "duration": 10, "velocity": 70}, {"time": 2050, "pitch": 56, "duration": 10, "velocity": 55}, {"time": 2050, "pitch": 62, "duration": 10, "velocity": 60}, {"time": 2160, "pitch": 56, "duration": 110, "velocity": 105}, {"time": 2160, "pitch": 62, "duration": 110, "velocity": 90}, {"time": 2170, "pitch": 66, "duration": 100, "velocity": 95}, {"time": 2170, "pitch": 71, "duration": 100, "velocity": 100}, {"time": 2280, "pitch": 66, "duration": 110, "velocity": 90}, {"time": 2280, "pitch": 71, "duration": 110, "velocity": 95}, {"time": 2290, "pitch": 56, "duration": 100, "velocity": 80}, {"time": 2290, "pitch": 62, "duration": 100, "velocity": 85}, {"time": 2400, "pitch": 56, "duration": 10, "velocity": 75}, {"time": 2400, "pitch": 62, "duration": 10, "velocity": 80}, {"time": 2410, "pitch": 66, "duration": 10, "velocity": 85}, {"time": 2410, "pitch": 71, "duration": 10, "velocity": 90}, {"time": 2520, "pitch": 66, "duration": 110, "velocity": 100}, {"time": 2520, "pitch": 71, "duration": 110, "velocity": 105}, {"time": 2530, "pitch": 56, "duration": 100, "velocity": 90}, {"time": 2530, "pitch": 62, "duration": 100, "velocity": 95}, {"time": 2640, "pitch": 56, "duration": 10, "velocity": 85}, {"time": 2640, "pitch": 62, "duration": 10, "velocity": 70}, {"time": 2650, "pitch": 66, "duration": 10, "velocity": 75}, {"time": 2650, "pitch": 71, "duration": 10, "velocity": 80}, {"time": 2760, "pitch": 66, "duration": 10, "velocity": 85}, {"time": 2760, "pitch": 71, "duration": 10, "velocity": 90}, {"time": 2770, "pitch": 56, "duration": 10, "velocity": 75}, {"time": 2770, "pitch": 62, "duration": 10, "velocity": 80}, {"time": 2880, "pitch": 56, "duration": 110, "velocity": 95}, {"time": 2880, "pitch": 62, "duration": 110, "velocity": 100}, {"time": 2890, "pitch": 66, "duration": 100, "velocity": 105}, {"time": 2890, "pitch": 71, "duration": 100, "velocity": 110}, {"time": 3000, "pitch": 66, "duration": 110, "velocity": 75}, {"time": 3000, "pitch": 71, "duration": 110, "velocity": 80}, {"time": 3010, "pitch": 56, "duration": 100, "velocity": 65}, {"time": 3010, "pitch": 62, "duration": 100, "velocity": 70}, {"time": 3120, "pitch": 56, "duration": 10, "velocity": 85}, {"time": 3120, "pitch": 62, "duration": 10, "velocity": 70}, {"time": 3130, "pitch": 66, "duration": 10, "velocity": 75}, {"time": 3130, "pitch": 71, "duration": 10, "velocity": 80}, {"time": 3240, "pitch": 66, "duration": 10, "velocity": 85}, {"time": 3240, "pitch": 71, "duration": 10, "velocity": 90}, {"time": 3250, "pitch": 56, "duration": 10, "velocity": 75}, {"time": 3250, "pitch": 62, "duration": 10, "velocity": 80}, {"time": 3360, "pitch": 56, "duration": 110, "velocity": 95}, {"time": 3360, "pitch": 62, "duration": 110, "velocity": 100}, {"time": 3370, "pitch": 66, "duration": 100, "velocity": 105}, {"time": 3370, "pitch": 71, "duration": 100, "velocity": 110}, {"time": 3480, "pitch": 66, "duration": 10, "velocity": 45}, {"time": 3480, "pitch": 71, "duration": 10, "velocity": 50}, {"time": 3490, "pitch": 56, "duration": 10, "velocity": 35}, {"time": 3490, "pitch": 62, "duration": 10, "velocity": 40}, {"time": 3600, "pitch": 56, "duration": 10, "velocity": 85}, {"time": 3600, "pitch": 62, "duration": 10, "velocity": 70}, {"time": 3610, "pitch": 66, "duration": 10, "velocity": 75}, {"time": 3610, "pitch": 71, "duration": 10, "velocity": 80}, {"time": 3720, "pitch": 66, "duration": 110, "velocity": 100}, {"time": 3720, "pitch": 71, "duration": 110, "velocity": 105}, {"time": 3730, "pitch": 56, "duration": 100, "velocity": 90}, {"time": 3730, "pitch": 62, "duration": 100, "velocity": 95}, {"time": 3840, "pitch": 56, "duration": 10, "velocity": 75}, {"time": 3840, "pitch": 62, "duration": 10, "velocity": 80}, {"time": 3850, "pitch": 66, "duration": 10, "velocity": 85}, {"time": 3850, "pitch": 71, "duration": 10, "velocity": 90}, {"time": 3960, "pitch": 66, "duration": 10, "velocity": 65}, {"time": 3960, "pitch": 71, "duration": 10, "velocity": 70}, {"time": 3970, "pitch": 56, "duration": 10, "velocity": 55}, {"time": 3970, "pitch": 62, "duration": 10, "velocity": 60}, {"time": 4080, "pitch": 56, "duration": 110, "velocity": 105}, {"time": 4080, "pitch": 62, "duration": 110, "velocity": 90}, {"time": 4090, "pitch": 66, "duration": 100, "velocity": 95}, {"time": 4090, "pitch": 71, "duration": 100, "velocity": 100}, {"time": 4200, "pitch": 66, "duration": 110, "velocity": 90}, {"time": 4200, "pitch": 71, "duration": 110, "velocity": 95}, {"time": 4210, "pitch": 56, "duration": 100, "velocity": 80}, {"time": 4210, "pitch": 62, "duration": 100, "velocity": 85}, {"time": 4320, "pitch": 56, "duration": 10, "velocity": 75}, {"time": 4320, "pitch": 62, "duration": 10, "velocity": 80}, {"time": 4330, "pitch": 66, "duration": 10, "velocity": 85}, {"time": 4330, "pitch": 71, "duration": 10, "velocity": 90}, {"time": 4440, "pitch": 66, "duration": 110, "velocity": 100}, {"time": 4440, "pitch": 71, "duration": 110, "velocity": 105}, {"time": 4450, "pitch": 56, "duration": 100, "velocity": 90}, {"time": 4450, "pitch": 62, "duration": 100, "velocity": 95}, {"time": 4560, "pitch": 56, "duration": 10, "velocity": 85}, {"time": 4560, "pitch": 62, "duration": 10, "velocity": 70}, {"time": 4570, "pitch": 66, "duration": 10, "velocity": 75}, {"time": 4570, "pitch": 71, "duration": 10, "velocity": 80}, {"time": 4680, "pitch": 66, "duration": 10, "velocity": 85}, {"time": 4680, "pitch": 71, "duration": 10, "velocity": 90}, {"time": 4690, "pitch": 56, "duration": 10, "velocity": 75}, {"time": 4690, "pitch": 62, "duration": 10, "velocity": 80}, {"time": 4800, "pitch": 56, "duration": 110, "velocity": 95}, {"time": 4800, "pitch": 62, "duration": 110, "velocity": 100}, {"time": 4810, "pitch": 66, "duration": 100, "velocity": 105}, {"time": 4810, "pitch": 71, "duration": 100, "velocity": 110}, {"time": 4920, "pitch": 66, "duration": 110, "velocity": 75}, {"time": 4920, "pitch": 71, "duration": 110, "velocity": 80}, {"time": 4930, "pitch": 56, "duration": 100, "velocity": 65}, {"time": 4930, "pitch": 62, "duration": 100, "velocity": 70}, {"time": 5040, "pitch": 56, "duration": 10, "velocity": 85}, {"time": 5040, "pitch": 62, "duration": 10, "velocity": 70}, {"time": 5050, "pitch": 66, "duration": 10, "velocity": 75}, {"time": 5050, "pitch": 71, "duration": 10, "velocity": 80}, {"time": 5160, "pitch": 66, "duration": 10, "velocity": 85}, {"time": 5160, "pitch": 71, "duration": 10, "velocity": 90}, {"time": 5170, "pitch": 56, "duration": 10, "velocity": 75}, {"time": 5170, "pitch": 62, "duration": 10, "velocity": 80}, {"time": 5280, "pitch": 56, "duration": 110, "velocity": 95}, {"time": 5280, "pitch": 62, "duration": 110, "velocity": 100}, {"time": 5290, "pitch": 66, "duration": 100, "velocity": 105}, {"time": 5290, "pitch": 71, "duration": 100, "velocity": 110}, {"time": 5400, "pitch": 66, "duration": 10, "velocity": 45}, {"time": 5400, "pitch": 71, "duration": 10, "velocity": 50}, {"time": 5410, "pitch": 56, "duration": 10, "velocity": 35}, {"time": 5410, "pitch": 62, "duration": 10, "velocity": 40}, {"time": 5520, "pitch": 56, "duration": 10, "velocity": 85}, {"time": 5520, "pitch": 62, "duration": 10, "velocity": 70}, {"time": 5530, "pitch": 66, "duration": 10, "velocity": 75}, {"time": 5530, "pitch": 71, "duration": 10, "velocity": 80}, {"time": 5640, "pitch": 66, "duration": 110, "velocity": 100}, {"time": 5640, "pitch": 71, "duration": 110, "velocity": 105}, {"time": 5650, "pitch": 56, "duration": 100, "velocity": 90}, {"time": 5650, "pitch": 62, "duration": 100, "velocity": 95}, {"time": 5760, "pitch": 56, "duration": 10, "velocity": 75}, {"time": 5760, "pitch": 62, "duration": 10, "velocity": 80}, {"time": 5770, "pitch": 66, "duration": 10, "velocity": 85}, {"time": 5770, "pitch": 71, "duration": 10, "velocity": 90}, {"time": 5880, "pitch": 66, "duration": 10, "velocity": 65}, {"time": 5880, "pitch": 71, "duration": 10, "velocity": 70}, {"time": 5890, "pitch": 56, "duration": 10, "velocity": 55}, {"time": 5890, "pitch": 62, "duration": 10, "velocity": 60}, {"time": 6000, "pitch": 56, "duration": 110, "velocity": 105}, {"time": 6000, "pitch": 62, "duration": 110, "velocity": 90}, {"time": 6010, "pitch": 66, "duration": 100, "velocity": 95}, {"time": 6010, "pitch": 71, "duration": 100, "velocity": 100}, {"time": 6120, "pitch": 66, "duration": 110, "velocity": 90}, {"time": 6120, "pitch": 71, "duration": 110, "velocity": 95}, {"time": 6130, "pitch": 56, "duration": 100, "velocity": 80}, {"time": 6130, "pitch": 62, "duration": 100, "velocity": 85}, {"time": 6240, "pitch": 56, "duration": 10, "velocity": 75}, {"time": 6240, "pitch": 62, "duration": 10, "velocity": 80}, {"time": 6250, "pitch": 66, "duration": 10, "velocity": 85}, {"time": 6250, "pitch": 71, "duration": 10, "velocity": 90}, {"time": 6360, "pitch": 66, "duration": 110, "velocity": 100}, {"time": 6360, "pitch": 71, "duration": 110, "velocity": 105}, {"time": 6370, "pitch": 56, "duration": 100, "velocity": 90}, {"time": 6370, "pitch": 62, "duration": 100, "velocity": 95}, {"time": 6480, "pitch": 56, "duration": 10, "velocity": 85}, {"time": 6480, "pitch": 62, "duration": 10, "velocity": 70}, {"time": 6490, "pitch": 66, "duration": 10, "velocity": 75}, {"time": 6490, "pitch": 71, "duration": 10, "velocity": 80}, {"time": 6600, "pitch": 66, "duration": 10, "velocity": 85}, {"time": 6600, "pitch": 71, "duration": 10, "velocity": 90}, {"time": 6610, "pitch": 56, "duration": 10, "velocity": 75}, {"time": 6610, "pitch": 62, "duration": 10, "velocity": 80}, {"time": 6720, "pitch": 56, "duration": 110, "velocity": 95}, {"time": 6720, "pitch": 62, "duration": 110, "velocity": 100}, {"time": 6730, "pitch": 66, "duration": 100, "velocity": 105}, {"time": 6730, "pitch": 71, "duration": 100, "velocity": 110}, {"time": 6840, "pitch": 66, "duration": 110, "velocity": 75}, {"time": 6840, "pitch": 71, "duration": 110, "velocity": 80}, {"time": 6850, "pitch": 56, "duration": 100, "velocity": 65}, {"time": 6850, "pitch": 62, "duration": 100, "velocity": 70}, {"time": 6960, "pitch": 56, "duration": 10, "velocity": 85}, {"time": 6960, "pitch": 62, "duration": 10, "velocity": 70}, {"time": 6970, "pitch": 66, "duration": 10, "velocity": 75}, {"time": 6970, "pitch": 71, "duration": 10, "velocity": 80}, {"time": 7080, "pitch": 66, "duration": 10, "velocity": 85}, {"time": 7080, "pitch": 71, "duration": 10, "velocity": 90}, {"time": 7090, "pitch": 56, "duration": 10, "velocity": 75}, {"time": 7090, "pitch": 62, "duration": 10, "velocity": 80}, {"time": 7200, "pitch": 56, "duration": 110, "velocity": 95}, {"time": 7200, "pitch": 62, "duration": 110, "velocity": 100}, {"time": 7210, "pitch": 66, "duration": 100, "velocity": 105}, {"time": 7210, "pitch": 71, "duration": 100, "velocity": 110}, {"time": 7320, "pitch": 66, "duration": 10, "velocity": 45}, {"time": 7320, "pitch": 71, "duration": 10, "velocity": 50}, {"time": 7330, "pitch": 56, "duration": 10, "velocity": 35}, {"time": 7330, "pitch": 62, "duration": 10, "velocity": 40}, {"time": 7440, "pitch": 56, "duration": 10, "velocity": 85}, {"time": 7440, "pitch": 62, "duration": 10, "velocity": 70}, {"time": 7450, "pitch": 66, "duration": 10, "velocity": 75}, {"time": 7450, "pitch": 71, "duration": 10, "velocity": 80}, {"time": 7560, "pitch": 66, "duration": 110, "velocity": 100}, {"time": 7560, "pitch": 71, "duration": 110, "velocity": 105}, {"time": 7570, "pitch": 56, "duration": 100, "velocity": 90}, {"time": 7570, "pitch": 62, "duration": 100, "velocity": 95}, {"time": 7680, "pitch": 56, "duration": 10, "velocity": 75}, {"time": 7680, "pitch": 62, "duration": 10, "velocity": 80}, {"time": 7690, "pitch": 66, "duration": 10, "velocity": 85}, {"time": 7690, "pitch": 71, "duration": 10, "velocity": 90}, {"time": 7800, "pitch": 66, "duration": 10, "velocity": 65}, {"time": 7800, "pitch": 71, "duration": 10, "velocity": 70}, {"time": 7810, "pitch": 56, "duration": 10, "velocity": 55}, {"time": 7810, "pitch": 62, "duration": 10, "velocity": 60}, {"time": 7920, "pitch": 56, "duration": 110, "velocity": 105}, {"time": 7920, "pitch": 62, "duration": 110, "velocity": 90}, {"time": 7930, "pitch": 66, "duration": 100, "velocity": 95}, {"time": 7930, "pitch": 71, "duration": 100, "velocity": 100}, {"time": 8040, "pitch": 66, "duration": 110, "velocity": 90}, {"time": 8040, "pitch": 71, "duration": 110, "velocity": 95}, {"time": 8050, "pitch": 56, "duration": 100, "velocity": 80}, {"time": 8050, "pitch": 62, "duration": 100, "velocity": 85}, {"time": 8160, "pitch": 56, "duration": 10, "velocity": 75}, {"time": 8160, "pitch": 62, "duration": 10, "velocity": 80}, {"time": 8170, "pitch": 66, "duration": 10, "velocity": 85}, {"time": 8170, "pitch": 71, "duration": 10, "velocity": 90}, {"time": 8280, "pitch": 66, "duration": 110, "velocity": 100}, {"time": 8280, "pitch": 71, "duration": 110, "velocity": 105}, {"time": 8290, "pitch": 56, "duration": 100, "velocity": 90}, {"time": 8290, "pitch": 62, "duration": 100, "velocity": 95}, {"time": 8400, "pitch": 56, "duration": 10, "velocity": 85}, {"time": 8400, "pitch": 62, "duration": 10, "velocity": 70}, {"time": 8410, "pitch": 66, "duration": 10, "velocity": 75}, {"time": 8410, "pitch": 71, "duration": 10, "velocity": 80}, {"time": 8520, "pitch": 66, "duration": 10, "velocity": 85}, {"time": 8520, "pitch": 71, "duration": 10, "velocity": 90}, {"time": 8530, "pitch": 56, "duration": 10, "velocity": 75}, {"time": 8530, "pitch": 62, "duration": 10, "velocity": 80}, {"time": 8640, "pitch": 56, "duration": 110, "velocity": 95}, {"time": 8640, "pitch": 62, "duration": 110, "velocity": 100}, {"time": 8650, "pitch": 66, "duration": 100, "velocity": 105}, {"time": 8650, "pitch": 71, "duration": 100, "velocity": 110}, {"time": 8760, "pitch": 66, "duration": 110, "velocity": 75}, {"time": 8760, "pitch": 71, "duration": 110, "velocity": 80}, {"time": 8770, "pitch": 56, "duration": 100, "velocity": 65}, {"time": 8770, "pitch": 62, "duration": 100, "velocity": 70}, {"time": 8880, "pitch": 56, "duration": 10, "velocity": 85}, {"time": 8880, "pitch": 62, "duration": 10, "velocity": 70}, {"time": 8890, "pitch": 66, "duration": 10, "velocity": 75}, {"time": 8890, "pitch": 71, "duration": 10, "velocity": 80}, {"time": 9000, "pitch": 66, "duration": 10, "velocity": 85}, {"time": 9000, "pitch": 71, "duration": 10, "velocity": 90}, {"time": 9010, "pitch": 56, "duration": 10, "velocity": 75}, {"time": 9010, "pitch": 62, "duration": 10, "velocity": 80}, {"time": 9120, "pitch": 56, "duration": 110, "velocity": 95}, {"time": 9120, "pitch": 62, "duration": 110, "velocity": 100}, {"time": 9130, "pitch": 66, "duration": 100, "velocity": 105}, {"time": 9130, "pitch": 71, "duration": 100, "velocity": 110}, {"time": 9240, "pitch": 66, "duration": 10, "velocity": 45}, {"time": 9240, "pitch": 71, "duration": 10, "velocity": 50}, {"time": 9250, "pitch": 56, "duration": 10, "velocity": 35}, {"time": 9250, "pitch": 62, "duration": 10, "velocity": 40}, {"time": 9360, "pitch": 56, "duration": 10, "velocity": 85}, {"time": 9360, "pitch": 62, "duration": 10, "velocity": 70}, {"time": 9370, "pitch": 66, "duration": 10, "velocity": 75}, {"time": 9370, "pitch": 71, "duration": 10, "velocity": 80}, {"time": 9480, "pitch": 66, "duration": 110, "velocity": 100}, {"time": 9480, "pitch": 71, "duration": 110, "velocity": 105}, {"time": 9490, "pitch": 56, "duration": 100, "velocity": 90}, {"time": 9490, "pitch": 62, "duration": 100, "velocity": 95}, {"time": 9600, "pitch": 56, "duration": 10, "velocity": 75}, {"time": 9600, "pitch": 62, "duration": 10, "velocity": 80}, {"time": 9610, "pitch": 66, "duration": 10, "velocity": 85}, {"time": 9610, "pitch": 71, "duration": 10, "velocity": 90}, {"time": 9720, "pitch": 66, "duration": 10, "velocity": 65}, {"time": 9720, "pitch": 71, "duration": 10, "velocity": 70}, {"time": 9730, "pitch": 56, "duration": 10, "velocity": 55}, {"time": 9730, "pitch": 62, "duration": 10, "velocity": 60}, {"time": 9840, "pitch": 56, "duration": 110, "velocity": 105}, {"time": 9840, "pitch": 62, "duration": 110, "velocity": 90}, {"time": 9850, "pitch": 66, "duration": 100, "velocity": 95}, {"time": 9850, "pitch": 71, "duration": 100, "velocity": 100}, {"time": 9960, "pitch": 66, "duration": 110, "velocity": 90}, {"time": 9960, "pitch": 71, "duration": 110, "velocity": 95}, {"time": 9970, "pitch": 56, "duration": 100, "velocity": 80}, {"time": 9970, "pitch": 62, "duration": 100, "velocity": 85}, {"time": 10080, "pitch": 56, "duration": 10, "velocity": 75}, {"time": 10080, "pitch": 62, "duration": 10, "velocity": 80}, {"time": 10090, "pitch": 66, "duration": 10, "velocity": 85}, {"time": 10090, "pitch": 71, "duration": 10, "velocity": 90}, {"time": 10200, "pitch": 66, "duration": 110, "velocity": 100}, {"time": 10200, "pitch": 71, "duration": 110, "velocity": 105}, {"time": 10210, "pitch": 56, "duration": 100, "velocity": 90}, {"time": 10210, "pitch": 62, "duration": 100, "velocity": 95}, {"time": 10320, "pitch": 56, "duration": 10, "velocity": 85}, {"time": 10320, "pitch": 62, "duration": 10, "velocity": 70}, {"time": 10330, "pitch": 66, "duration": 10, "velocity": 75}, {"time": 10330, "pitch": 71, "duration": 10, "velocity": 80}, {"time": 10440, "pitch": 66, "duration": 10, "velocity": 85}, {"time": 10440, "pitch": 71, "duration": 10, "velocity": 90}, {"time": 10450, "pitch": 56, "duration": 10, "velocity": 75}, {"time": 10450, "pitch": 62, "duration": 10, "velocity": 80}, {"time": 10560, "pitch": 56, "duration": 110, "velocity": 95}, {"time": 10560, "pitch": 62, "duration": 110, "velocity": 100}, {"time": 10570, "pitch": 66, "duration": 100, "velocity": 105}, {"time": 10570, "pitch": 71, "duration": 100, "velocity": 110}, {"time": 10680, "pitch": 66, "duration": 110, "velocity": 75}, {"time": 10680, "pitch": 71, "duration": 110, "velocity": 80}, {"time": 10690, "pitch": 56, "duration": 100, "velocity": 65}, {"time": 10690, "pitch": 62, "duration": 100, "velocity": 70}, {"time": 10800, "pitch": 56, "duration": 10, "velocity": 85}, {"time": 10800, "pitch": 62, "duration": 10, "velocity": 70}, {"time": 10810, "pitch": 66, "duration": 10, "velocity": 75}, {"time": 10810, "pitch": 71, "duration": 10, "velocity": 80}, {"time": 10920, "pitch": 66, "duration": 10, "velocity": 85}, {"time": 10920, "pitch": 71, "duration": 10, "velocity": 90}, {"time": 10930, "pitch": 56, "duration": 10, "velocity": 75}, {"time": 10930, "pitch": 62, "duration": 10, "velocity": 80}, {"time": 11040, "pitch": 56, "duration": 110, "velocity": 95}, {"time": 11040, "pitch": 62, "duration": 110, "velocity": 100}, {"time": 11050, "pitch": 66, "duration": 100, "velocity": 105}, {"time": 11050, "pitch": 71, "duration": 100, "velocity": 110}, {"time": 11160, "pitch": 66, "duration": 10, "velocity": 45}, {"time": 11160, "pitch": 71, "duration": 10, "velocity": 50}, {"time": 11170, "pitch": 56, "duration": 10, "velocity": 35}, {"time": 11170, "pitch": 62, "duration": 10, "velocity": 40}, {"time": 11280, "pitch": 56, "duration": 10, "velocity": 85}, {"time": 11280, "pitch": 62, "duration": 10, "velocity": 70}, {"time": 11290, "pitch": 66, "duration": 10, "velocity": 75}, {"time": 11290, "pitch": 71, "duration": 10, "velocity": 80}, {"time": 11400, "pitch": 66, "duration": 110, "velocity": 100}, {"time": 11400, "pitch": 71, "duration": 110, "velocity": 105}, {"time": 11410, "pitch": 56, "duration": 100, "velocity": 90}, {"time": 11410, "pitch": 62, "duration": 100, "velocity": 95}, {"time": 11520, "pitch": 56, "duration": 10, "velocity": 75}, {"time": 11520, "pitch": 62, "duration": 10, "velocity": 80}, {"time": 11530, "pitch": 66, "duration": 10, "velocity": 85}, {"time": 11530, "pitch": 71, "duration": 10, "velocity": 90}, {"time": 11640, "pitch": 66, "duration": 10, "velocity": 65}, {"time": 11640, "pitch": 71, "duration": 10, "velocity": 70}, {"time": 11650, "pitch": 56, "duration": 10, "velocity": 55}, {"time": 11650, "pitch": 62, "duration": 10, "velocity": 60}, {"time": 11760, "pitch": 56, "duration": 110, "velocity": 105}, {"time": 11760, "pitch": 62, "duration": 110, "velocity": 90}, {"time": 11770, "pitch": 66, "duration": 100, "velocity": 95}, {"time": 11770, "pitch": 71, "duration": 100, "velocity": 100}, {"time": 11880, "pitch": 66, "duration": 110, "velocity": 90}, {"time": 11880, "pitch": 71, "duration": 110, "velocity": 95}, {"time": 11890, "pitch": 56, "duration": 100, "velocity": 80}, {"time": 11890, "pitch": 62, "duration": 100, "velocity": 85}, {"time": 12000, "pitch": 56, "duration": 10, "velocity": 75}, {"time": 12000, "pitch": 62, "duration": 10, "velocity": 80}, {"time": 12010, "pitch": 66, "duration": 10, "velocity": 85}, {"time": 12010, "pitch": 71, "duration": 10, "velocity": 90}, {"time": 12120, "pitch": 66, "duration": 110, "velocity": 100}, {"time": 12120, "pitch": 71, "duration": 110, "velocity": 105}, {"time": 12130, "pitch": 56, "duration": 100, "velocity": 90}, {"time": 12130, "pitch": 62, "duration": 100, "velocity": 95}, {"time": 12240, "pitch": 56, "duration": 10, "velocity": 85}, {"time": 12240, "pitch": 62, "duration": 10, "velocity": 70}, {"time": 12250, "pitch": 66, "duration": 10, "velocity": 75}, {"time": 12250, "pitch": 71, "duration": 10, "velocity": 80}, {"time": 12360, "pitch": 66, "duration": 10, "velocity": 85}, {"time": 12360, "pitch": 71, "duration": 10, "velocity": 90}, {"time": 12370, "pitch": 56, "duration": 10, "velocity": 75}, {"time": 12370, "pitch": 62, "duration": 10, "velocity": 80}, {"time": 12480, "pitch": 56, "duration": 110, "velocity": 95}, {"time": 12480, "pitch": 62, "duration": 110, "velocity": 100}, {"time": 12490, "pitch": 66, "duration": 100, "velocity": 105}, {"time": 12490, "pitch": 71, "duration": 100, "velocity": 110}, {"time": 12600, "pitch": 66, "duration": 110, "velocity": 75}, {"time": 12600, "pitch": 71, "duration": 110, "velocity": 80}, {"time": 12610, "pitch": 56, "duration": 100, "velocity": 65}, {"time": 12610, "pitch": 62, "duration": 100, "velocity": 70}, {"time": 12720, "pitch": 56, "duration": 10, "velocity": 85}, {"time": 12720, "pitch": 62, "duration": 10, "velocity": 70}, {"time": 12730, "pitch": 66, "duration": 10, "velocity": 75}, {"time": 12730, "pitch": 71, "duration": 10, "velocity": 80}, {"time": 12840, "pitch": 66, "duration": 10, "velocity": 85}, {"time": 12840, "pitch": 71, "duration": 10, "velocity": 90}, {"time": 12850, "pitch": 56, "duration": 10, "velocity": 75}, {"time": 12850, "pitch": 62, "duration": 10, "velocity": 80}, {"time": 12960, "pitch": 56, "duration": 110, "velocity": 95}, {"time": 12960, "pitch": 62, "duration": 110, "velocity": 100}, {"time": 12970, "pitch": 66, "duration": 100, "velocity": 105}, {"time": 12970, "pitch": 71, "duration": 100, "velocity": 110}, {"time": 13080, "pitch": 66, "duration": 10, "velocity": 45}, {"time": 13080, "pitch": 71, "duration": 10, "velocity": 50}, {"time": 13090, "pitch": 56, "duration": 10, "velocity": 35}, {"time": 13090, "pitch": 62, "duration": 10, "velocity": 40}, {"time": 13200, "pitch": 56, "duration": 10, "velocity": 85}, {"time": 13200, "pitch": 62, "duration": 10, "velocity": 70}, {"time": 13210, "pitch": 66, "duration": 10, "velocity": 75}, {"time": 13210, "pitch": 71, "duration": 10, "velocity": 80}, {"time": 13320, "pitch": 66, "duration": 110, "velocity": 100}, {"time": 13320, "pitch": 71, "duration": 110, "velocity": 105}, {"time": 13330, "pitch": 56, "duration": 100, "velocity": 90}, {"time": 13330, "pitch": 62, "duration": 100, "velocity": 95}, {"time": 13440, "pitch": 56, "duration": 10, "velocity": 75}, {"time": 13440, "pitch": 62, "duration": 10, "velocity": 80}, {"time": 13450, "pitch": 66, "duration": 10, "velocity": 85}, {"time": 13450, "pitch": 71, "duration": 10, "velocity": 90}, {"time": 13560, "pitch": 66, "duration": 10, "velocity": 65}, {"time": 13560, "pitch": 71, "duration": 10, "velocity": 70}, {"time": 13570, "pitch": 56, "duration": 10, "velocity": 55}, {"time": 13570, "pitch": 62, "duration": 10, "velocity": 60}, {"time": 13680, "pitch": 56, "duration": 110, "velocity": 105}, {"time": 13680, "pitch": 62, "duration": 110, "velocity": 90}, {"time": 13690, "pitch": 66, "duration": 100, "velocity": 95}, {"time": 13690, "pitch": 71, "duration": 100, "velocity": 100}, {"time": 13800, "pitch": 66, "duration": 110, "velocity": 90}, {"time": 13800, "pitch": 71, "duration": 110, "velocity": 95}, {"time": 13810, "pitch": 56, "duration": 100, "velocity": 80}, {"time": 13810, "pitch": 62, "duration": 100, "velocity": 85}, {"time": 13920, "pitch": 56, "duration": 10, "velocity": 75}, {"time": 13920, "pitch": 62, "duration": 10, "velocity": 80}, {"time": 13930, "pitch": 66, "duration": 10, "velocity": 85}, {"time": 13930, "pitch": 71, "duration": 10, "velocity": 90}, {"time": 14040, "pitch": 66, "duration": 110, "velocity": 100}, {"time": 14040, "pitch": 71, "duration": 110, "velocity": 105}, {"time": 14050, "pitch": 56, "duration": 100, "velocity": 90}, {"time": 14050, "pitch": 62, "duration": 100, "velocity": 95}, {"time": 14160, "pitch": 56, "duration": 10, "velocity": 85}, {"time": 14160, "pitch": 62, "duration": 10, "velocity": 70}, {"time": 14170, "pitch": 66, "duration": 10, "velocity": 75}, {"time": 14170, "pitch": 71, "duration": 10, "velocity": 80}, {"time": 14280, "pitch": 66, "duration": 10, "velocity": 85}, {"time": 14280, "pitch": 71, "duration": 10, "velocity": 90}, {"time": 14290, "pitch": 56, "duration": 10, "velocity": 75}, {"time": 14290, "pitch": 62, "duration": 10, "velocity": 80}, {"time": 14400, "pitch": 56, "duration": 110, "velocity": 95}, {"time": 14400, "pitch": 62, "duration": 110, "velocity": 100}, {"time": 14410, "pitch": 66, "duration": 100, "velocity": 105}, {"time": 14410, "pitch": 71, "duration": 100, "velocity": 110}, {"time": 14520, "pitch": 66, "duration": 110, "velocity": 75}, {"time": 14520, "pitch": 71, "duration": 110, "velocity": 80}, {"time": 14530, "pitch": 56, "duration": 100, "velocity": 65}, {"time": 14530, "pitch": 62, "duration": 100, "velocity": 70}, {"time": 14640, "pitch": 56, "duration": 10, "velocity": 85}, {"time": 14640, "pitch": 62, "duration": 10, "velocity": 70}, {"time": 14650, "pitch": 66, "duration": 10, "velocity": 75}, {"time": 14650, "pitch": 71, "duration": 10, "velocity": 80}, {"time": 14760, "pitch": 66, "duration": 10, "velocity": 85}, {"time": 14760, "pitch": 71, "duration": 10, "velocity": 90}, {"time": 14770, "pitch": 56, "duration": 10, "velocity": 75}, {"time": 14770, "pitch": 62, "duration": 10, "velocity": 80}, {"time": 14880, "pitch": 56, "duration": 110, "velocity": 95}, {"time": 14880, "pitch": 62, "duration": 110, "velocity": 100}, {"time": 14890, "pitch": 66, "duration": 100, "velocity": 105}, {"time": 14890, "pitch": 71, "duration": 100, "velocity": 110}, {"time": 16440, "pitch": 53, "duration": 350, "velocity": 105}, {"time": 16440, "pitch": 63, "duration": 350, "velocity": 100}, {"time": 16450, "pitch": 67, "duration": 350, "velocity": 95}, {"time": 16450, "pitch": 70, "duration": 350, "velocity": 90}, {"time": 16800, "pitch": 62, "duration": 120, "velocity": 90}, {"time": 16800, "pitch": 66, "duration": 110, "velocity": 95}, {"time": 16810, "pitch": 69, "duration": 100, "velocity": 100}, {"time": 16920, "pitch": 66, "duration": 110, "velocity": 75}, {"time": 16920, "pitch": 69, "duration": 120, "velocity": 80}, {"time": 16930, "pitch": 62, "duration": 110, "velocity": 70}, {"time": 17040, "pitch": 62, "duration": 100, "velocity": 85}, {"time": 17040, "pitch": 66, "duration": 100, "velocity": 90}, {"time": 17050, "pitch": 69, "duration": 100, "velocity": 95}, {"time": 17280, "pitch": 62, "duration": 100, "velocity": 90}, {"time": 17280, "pitch": 66, "duration": 100, "velocity": 95}, {"time": 17290, "pitch": 69, "duration": 100, "velocity": 100}, {"time": 17520, "pitch": 62, "duration": 120, "velocity": 85}, {"time": 17520, "pitch": 66, "duration": 110, "velocity": 90}, {"time": 17530, "pitch": 69, "duration": 110, "velocity": 95}, {"time": 17640, "pitch": 66, "duration": 350, "velocity": 95}, {"time": 17640, "pitch": 69, "duration": 350, "velocity": 100}, {"time": 17650, "pitch": 62, "duration": 350, "velocity": 90}, {"time": 18000, "pitch": 62, "duration": 100, "velocity": 85}, {"time": 18000, "pitch": 66, "duration": 100, "velocity": 90}, {"time": 18010, "pitch": 69, "duration": 100, "velocity": 95}, {"time": 18240, "pitch": 62, "duration": 100, "velocity": 90}, {"time": 18240, "pitch": 66, "duration": 100, "velocity": 95}, {"time": 18250, "pitch": 69, "duration": 100, "velocity": 100}, {"time": 18480, "pitch": 62, "duration": 120, "velocity": 85}, {"time": 18480, "pitch": 66, "duration": 110, "velocity": 90}, {"time": 18490, "pitch": 69, "duration": 110, "velocity": 95}, {"time": 18600, "pitch": 62, "duration": 350, "velocity": 95}, {"time": 18600, "pitch": 68, "duration": 350, "velocity": 100}, {"time": 18610, "pitch": 59, "duration": 340, "velocity": 90}, {"time": 18960, "pitch": 59, "duration": 100, "velocity": 85}, {"time": 18960, "pitch": 62, "duration": 100, "velocity": 90}, {"time": 18970, "pitch": 68, "duration": 100, "velocity": 95}, {"time": 19200, "pitch": 59, "duration": 100, "velocity": 90}, {"time": 19200, "pitch": 62, "duration": 100, "velocity": 95}, {"time": 19210, "pitch": 68, "duration": 100, "velocity": 100}, {"time": 19440, "pitch": 59, "duration": 120, "velocity": 85}, {"time": 19440, "pitch": 62, "duration": 110, "velocity": 90}, {"time": 19450, "pitch": 68, "duration": 110, "velocity": 95}, {"time": 19560, "pitch": 62, "duration": 350, "velocity": 95}, {"time": 19560, "pitch": 68, "duration": 350, "velocity": 100}, {"time": 19570, "pitch": 59, "duration": 350, "velocity": 90}, {"time": 19920, "pitch": 59, "duration": 120, "velocity": 85}, {"time": 19920, "pitch": 62, "duration": 110, "velocity": 90}, {"time": 19930, "pitch": 68, "duration": 110, "velocity": 95}, {"time": 20040, "pitch": 62, "duration": 110, "velocity": 85}, {"time": 20040, "pitch": 68, "duration": 120, "velocity": 90}, {"time": 20050, "pitch": 59, "duration": 110, "velocity": 80}, {"time": 20160, "pitch": 59, "duration": 10, "velocity": 85}, {"time": 20160, "pitch": 62, "duration": 10, "velocity": 90}, {"time": 20170, "pitch": 68, "duration": 10, "velocity": 95}, {"time": 20280, "pitch": 62, "duration": 10, "velocity": 84}, {"time": 20280, "pitch": 68, "duration": 10, "velocity": 80}, {"time": 20290, "pitch": 59, "duration": 10, "velocity": 70}, {"time": 20400, "pitch": 59, "duration": 10, "velocity": 85}, {"time": 20400, "pitch": 62, "duration": 10, "velocity": 90}, {"time": 20410, "pitch": 68, "duration": 10, "velocity": 95}, {"time": 20520, "pitch": 66, "duration": 240, "velocity": 95}, {"time": 20520, "pitch": 69, "duration": 230, "velocity": 100}, {"time": 20530, "pitch": 62, "duration": 230, "velocity": 90}, {"time": 20760, "pitch": 66, "duration": 110, "velocity": 75}, {"time": 20760, "pitch": 69, "duration": 120, "velocity": 80}, {"time": 20770, "pitch": 62, "duration": 110, "velocity": 70}, {"time": 20880, "pitch": 62, "duration": 100, "velocity": 85}, {"time": 20880, "pitch": 66, "duration": 100, "velocity": 90}, {"time": 20890, "pitch": 69, "duration": 100, "velocity": 95}, {"time": 21120, "pitch": 62, "duration": 100, "velocity": 90}, {"time": 21120, "pitch": 66, "duration": 100, "velocity": 95}, {"time": 21130, "pitch": 69, "duration": 100, "velocity": 100}, {"time": 21360, "pitch": 62, "duration": 100, "velocity": 85}, {"time": 21360, "pitch": 66, "duration": 100, "velocity": 90}, {"time": 21370, "pitch": 69, "duration": 100, "velocity": 95}, {"time": 21600, "pitch": 62, "duration": 100, "velocity": 90}, {"time": 21600, "pitch": 66, "duration": 100, "velocity": 95}, {"time": 21610, "pitch": 69, "duration": 100, "velocity": 100}, {"time": 21840, "pitch": 62, "duration": 100, "velocity": 85}, {"time": 21840, "pitch": 66, "duration": 100, "velocity": 90}, {"time": 21850, "pitch": 69, "duration": 100, "velocity": 95}, {"time": 22080, "pitch": 62, "duration": 100, "velocity": 90}, {"time": 22080, "pitch": 66, "duration": 100, "velocity": 95}, {"time": 22090, "pitch": 69, "duration": 100, "velocity": 100}, {"time": 22320, "pitch": 62, "duration": 120, "velocity": 85}, {"time": 22320, "pitch": 66, "duration": 110, "velocity": 90}, {"time": 22330, "pitch": 69, "duration": 110, "velocity": 95}, {"time": 22440, "pitch": 62, "duration": 360, "velocity": 95}, {"time": 22440, "pitch": 68, "duration": 360, "velocity": 100}, {"time": 22450, "pitch": 59, "duration": 350, "velocity": 90}, {"time": 22800, "pitch": 59, "duration": 100, "velocity": 85}, {"time": 22800, "pitch": 62, "duration": 100, "velocity": 90}, {"time": 22810, "pitch": 68, "duration": 100, "velocity": 95}, {"time": 23040, "pitch": 59, "duration": 130, "velocity": 90}, {"time": 23040, "pitch": 62, "duration": 120, "velocity": 95}, {"time": 23050, "pitch": 68, "duration": 110, "velocity": 100}, {"time": 23160, "pitch": 62, "duration": 120, "velocity": 85}, {"time": 23160, "pitch": 68, "duration": 130, "velocity": 90}, {"time": 23170, "pitch": 59, "duration": 110, "velocity": 80}, {"time": 23280, "pitch": 59, "duration": 240, "velocity": 85}, {"time": 23280, "pitch": 62, "duration": 240, "velocity": 90}, {"time": 23290, "pitch": 68, "duration": 240, "velocity": 95}, {"time": 23520, "pitch": 59, "duration": 10, "velocity": 50}, {"time": 23520, "pitch": 62, "duration": 10, "velocity": 55}, {"time": 23530, "pitch": 68, "duration": 10, "velocity": 60}, {"time": 23640, "pitch": 62, "duration": 110, "velocity": 90}, {"time": 23640, "pitch": 68, "duration": 110, "velocity": 95}, {"time": 23650, "pitch": 59, "duration": 110, "velocity": 85}, {"time": 23760, "pitch": 59, "duration": 10, "velocity": 40}, {"time": 23760, "pitch": 62, "duration": 10, "velocity": 45}, {"time": 23770, "pitch": 68, "duration": 10, "velocity": 50}, {"time": 23880, "pitch": 62, "duration": 110, "velocity": 95}, {"time": 23880, "pitch": 68, "duration": 110, "velocity": 100}, {"time": 23890, "pitch": 59, "duration": 110, "velocity": 90}, {"time": 24000, "pitch": 59, "duration": 10, "velocity": 40}, {"time": 24000, "pitch": 62, "duration": 10, "velocity": 45}, {"time": 24010, "pitch": 68, "duration": 10, "velocity": 50}, {"time": 24120, "pitch": 62, "duration": 110, "velocity": 95}, {"time": 24120, "pitch": 68, "duration": 110, "velocity": 100}, {"time": 24130, "pitch": 59, "duration": 110, "velocity": 90}, {"time": 24240, "pitch": 59, "duration": 10, "velocity": 40}, {"time": 24240, "pitch": 62, "duration": 10, "velocity": 45}, {"time": 24250, "pitch": 68, "duration": 10, "velocity": 50}, {"time": 24360, "pitch": 62, "duration": 110, "velocity": 85}, {"time": 24360, "pitch": 68, "duration": 110, "velocity": 90}, {"time": 24370, "pitch": 59, "duration": 110, "velocity": 80}, {"time": 24480, "pitch": 62, "duration": 120, "velocity": 90}, {"time": 24480, "pitch": 66, "duration": 110, "velocity": 95}, {"time": 24490, "pitch": 69, "duration": 100, "velocity": 100}, {"time": 24600, "pitch": 66, "duration": 110, "velocity": 75}, {"time": 24600, "pitch": 69, "duration": 120, "velocity": 80}, {"time": 24610, "pitch": 62, "duration": 110, "velocity": 70}, {"time": 24720, "pitch": 62, "duration": 100, "velocity": 85}, {"time": 24720, "pitch": 66, "duration": 100, "velocity": 90}, {"time": 24730, "pitch": 69, "duration": 100, "velocity": 95}, {"time": 24960, "pitch": 62, "duration": 100, "velocity": 90}, {"time": 24960, "pitch": 66, "duration": 100, "velocity": 95}, {"time": 24970, "pitch": 69, "duration": 100, "velocity": 100}, {"time": 25200, "pitch": 62, "duration": 120, "velocity": 85}, {"time": 25200, "pitch": 66, "duration": 110, "velocity": 90}, {"time": 25210, "pitch": 69, "duration": 110, "velocity": 95}, {"time": 25320, "pitch": 66, "duration": 350, "velocity": 95}, {"time": 25320, "pitch": 69, "duration": 350, "velocity": 100}, {"time": 25330, "pitch": 62, "duration": 350, "velocity": 90}, {"time": 25680, "pitch": 62, "duration": 100, "velocity": 85}, {"time": 25680, "pitch": 66, "duration": 100, "velocity": 90}, {"time": 25690, "pitch": 69, "duration": 100, "velocity": 95}, {"time": 25920, "pitch": 62, "duration": 100, "velocity": 90}, {"time": 25920, "pitch": 66, "duration": 100, "velocity": 95}, {"time": 25930, "pitch": 69, "duration": 100, "velocity": 100}, {"time": 26160, "pitch": 62, "duration": 120, "velocity": 85}, {"time": 26160, "pitch": 66, "duration": 110, "velocity": 90}, {"time": 26170, "pitch": 69, "duration": 110, "velocity": 95}, {"time": 26280, "pitch": 62, "duration": 350, "velocity": 95}, {"time": 26280, "pitch": 68, "duration": 350, "velocity": 100}, {"time": 26290, "pitch": 59, "duration": 340, "velocity": 90}, {"time": 26640, "pitch": 59, "duration": 100, "velocity": 85}, {"time": 26640, "pitch": 62, "duration": 100, "velocity": 90}, {"time": 26650, "pitch": 68, "duration": 100, "velocity": 95}, {"time": 26880, "pitch": 59, "duration": 100, "velocity": 90}, {"time": 26880, "pitch": 62, "duration": 100, "velocity": 95}, {"time": 26890, "pitch": 68, "duration": 100, "velocity": 100}, {"time": 27120, "pitch": 59, "duration": 120, "velocity": 85}, {"time": 27120, "pitch": 62, "duration": 110, "velocity": 90}, {"time": 27130, "pitch": 68, "duration": 110, "velocity": 95}, {"time": 27240, "pitch": 62, "duration": 230, "velocity": 95}, {"time": 27240, "pitch": 68, "duration": 230, "velocity": 90}, {"time": 27250, "pitch": 59, "duration": 230, "velocity": 100}, {"time": 27480, "pitch": 62, "duration": 110, "velocity": 80}, {"time": 27480, "pitch": 68, "duration": 120, "velocity": 75}, {"time": 27490, "pitch": 59, "duration": 110, "velocity": 85}, {"time": 27600, "pitch": 59, "duration": 100, "velocity": 90}, {"time": 27600, "pitch": 62, "duration": 100, "velocity": 95}, {"time": 27610, "pitch": 68, "duration": 100, "velocity": 100}, {"time": 27840, "pitch": 59, "duration": 100, "velocity": 85}, {"time": 27840, "pitch": 62, "duration": 100, "velocity": 90}, {"time": 27850, "pitch": 68, "duration": 100, "velocity": 95}, {"time": 27960, "pitch": 62, "duration": 10, "velocity": 74}, {"time": 27960, "pitch": 68, "duration": 10, "velocity": 70}, {"time": 27970, "pitch": 59, "duration": 10, "velocity": 60}, {"time": 28080, "pitch": 59, "duration": 10, "velocity": 75}, {"time": 28080, "pitch": 62, "duration": 10, "velocity": 80}, {"time": 28090, "pitch": 68, "duration": 10, "velocity": 85}, {"time": 28200, "pitch": 66, "duration": 240, "velocity": 95}, {"time": 28200, "pitch": 69, "duration": 230, "velocity": 100}, {"time": 28210, "pitch": 62, "duration": 230, "velocity": 90}, {"time": 28440, "pitch": 66, "duration": 110, "velocity": 75}, {"time": 28440, "pitch": 69, "duration": 120, "velocity": 80}, {"time": 28450, "pitch": 62, "duration": 110, "velocity": 70}, {"time": 28560, "pitch": 62, "duration": 100, "velocity": 85}, {"time": 28560, "pitch": 66, "duration": 100, "velocity": 90}, {"time": 28570, "pitch": 69, "duration": 100, "velocity": 95}, {"time": 28800, "pitch": 62, "duration": 100, "velocity": 90}, {"time": 28800, "pitch": 66, "duration": 100, "velocity": 95}, {"time": 28810, "pitch": 69, "duration": 100, "velocity": 100}, {"time": 29040, "pitch": 62, "duration": 100, "velocity": 85}, {"time": 29040, "pitch": 66, "duration": 100, "velocity": 90}, {"time": 29050, "pitch": 69, "duration": 100, "velocity": 95}, {"time": 29280, "pitch": 62, "duration": 100, "velocity": 90}, {"time": 29280, "pitch": 66, "duration": 100, "velocity": 95}, {"time": 29290, "pitch": 69, "duration": 100, "velocity": 100}, {"time": 29520, "pitch": 62, "duration": 100, "velocity": 85}, {"time": 29520, "pitch": 66, "duration": 100, "velocity": 90}, {"time": 29530, "pitch": 69, "duration": 100, "velocity": 95}, {"time": 29760, "pitch": 62, "duration": 100, "velocity": 90}, {"time": 29760, "pitch": 66, "duration": 100, "velocity": 95}, {"time": 29770, "pitch": 69, "duration": 100, "velocity": 100}, {"time": 30000, "pitch": 62, "duration": 120, "velocity": 85}, {"time": 30000, "pitch": 66, "duration": 110, "velocity": 90}, {"time": 30010, "pitch": 69, "duration": 110, "velocity": 95}, {"time": 30120, "pitch": 62, "duration": 240, "velocity": 95}, {"time": 30120, "pitch": 68, "duration": 240, "velocity": 100}, {"time": 30130, "pitch": 59, "duration": 230, "velocity": 90}, {"time": 30360, "pitch": 62, "duration": 120, "velocity": 85}, {"time": 30360, "pitch": 68, "duration": 130, "velocity": 90}, {"time": 30370, "pitch": 59, "duration": 110, "velocity": 80}, {"time": 30480, "pitch": 59, "duration": 100, "velocity": 85}, {"time": 30480, "pitch": 62, "duration": 100, "velocity": 90}, {"time": 30490, "pitch": 68, "duration": 100, "velocity": 95}, {"time": 30720, "pitch": 59, "duration": 130, "velocity": 90}, {"time": 30720, "pitch": 62, "duration": 120, "velocity": 95}, {"time": 30730, "pitch": 68, "duration": 110, "velocity": 100}, {"time": 30840, "pitch": 62, "duration": 10, "velocity": 80}, {"time": 30840, "pitch": 68, "duration": 10, "velocity": 85}, {"time": 30850, "pitch": 59, "duration": 10, "velocity": 75}, {"time": 30960, "pitch": 59, "duration": 10, "velocity": 70}, {"time": 30960, "pitch": 62, "duration": 10, "velocity": 75}, {"time": 30970, "pitch": 68, "duration": 10, "velocity": 80}, {"time": 31080, "pitch": 62, "duration": 10, "velocity": 85}, {"time": 31080, "pitch": 68, "duration": 10, "velocity": 90}, {"time": 31090, "pitch": 59, "duration": 10, "velocity": 80}, {"time": 31200, "pitch": 59, "duration": 10, "velocity": 50}, {"time": 31200, "pitch": 62, "duration": 10, "velocity": 55}, {"time": 31210, "pitch": 68, "duration": 10, "velocity": 60}, {"time": 31320, "pitch": 62, "duration": 110, "velocity": 90}, {"time": 31320, "pitch": 68, "duration": 110, "velocity": 95}, {"time": 31330, "pitch": 59, "duration": 110, "velocity": 85}, {"time": 31440, "pitch": 59, "duration": 10, "velocity": 40}, {"time": 31440, "pitch": 62, "duration": 10, "velocity": 45}, {"time": 31450, "pitch": 68, "duration": 10, "velocity": 50}, {"time": 31560, "pitch": 62, "duration": 110, "velocity": 95}, {"time": 31560, "pitch": 68, "duration": 110, "velocity": 100}, {"time": 31570, "pitch": 59, "duration": 110, "velocity": 90}, {"time": 31680, "pitch": 59, "duration": 10, "velocity": 40}, {"time": 31680, "pitch": 62, "duration": 10, "velocity": 45}, {"time": 31690, "pitch": 68, "duration": 10, "velocity": 50}, {"time": 31800, "pitch": 62, "duration": 110, "velocity": 95}, {"time": 31800, "pitch": 68, "duration": 110, "velocity": 100}, {"time": 31810, "pitch": 59, "duration": 110, "velocity": 90}, {"time": 31920, "pitch": 59, "duration": 10, "velocity": 40}, {"time": 31920, "pitch": 62, "duration": 10, "velocity": 45}, {"time": 31930, "pitch": 68, "duration": 10, "velocity": 50}, {"time": 32040, "pitch": 66, "duration": 110, "velocity": 85}, {"time": 32040, "pitch": 69, "duration": 110, "velocity": 90}, {"time": 32050, "pitch": 62, "duration": 110, "velocity": 80}, {"time": 32160, "pitch": 62, "duration": 120, "velocity": 90}, {"time": 32160, "pitch": 66, "duration": 110, "velocity": 95}, {"time": 32170, "pitch": 69, "duration": 100, "velocity": 100}, {"time": 32280, "pitch": 66, "duration": 110, "velocity": 75}, {"time": 32280, "pitch": 69, "duration": 120, "velocity": 80}, {"time": 32290, "pitch": 62, "duration": 110, "velocity": 70}, {"time": 32400, "pitch": 62, "duration": 100, "velocity": 85}, {"time": 32400, "pitch": 66, "duration": 100, "velocity": 90}, {"time": 32410, "pitch": 69, "duration": 100, "velocity": 95}, {"time": 32640, "pitch": 62, "duration": 100, "velocity": 90}, {"time": 32640, "pitch": 66, "duration": 100, "velocity": 95}, {"time": 32650, "pitch": 69, "duration": 100, "velocity": 100}, {"time": 32880, "pitch": 62, "duration": 120, "velocity": 85}, {"time": 32880, "pitch": 66, "duration": 110, "velocity": 90}, {"time": 32890, "pitch": 69, "duration": 110, "velocity": 95}, {"time": 33000, "pitch": 66, "duration": 350, "velocity": 95}, {"time": 33000, "pitch": 69, "duration": 350, "velocity": 100}, {"time": 33010, "pitch": 62, "duration": 350, "velocity": 90}, {"time": 33360, "pitch": 62, "duration": 100, "velocity": 85}, {"time": 33360, "pitch": 66, "duration": 100, "velocity": 90}, {"time": 33370, "pitch": 69, "duration": 100, "velocity": 95}, {"time": 33600, "pitch": 62, "duration": 100, "velocity": 90}, {"time": 33600, "pitch": 66, "duration": 100, "velocity": 95}, {"time": 33610, "pitch": 69, "duration": 100, "velocity": 100}, {"time": 33840, "pitch": 62, "duration": 120, "velocity": 85}, {"time": 33840, "pitch": 66, "duration": 110, "velocity": 90}, {"time": 33850, "pitch": 69, "duration": 110, "velocity": 95}, {"time": 33960, "pitch": 62, "duration": 240, "velocity": 95}, {"time": 33960, "pitch": 68, "duration": 240, "velocity": 100}, {"time": 33970, "pitch": 59, "duration": 230, "velocity": 90}, {"time": 34200, "pitch": 62, "duration": 120, "velocity": 80}, {"time": 34200, "pitch": 68, "duration": 120, "velocity": 85}, {"time": 34210, "pitch": 59, "duration": 100, "velocity": 75}, {"time": 34320, "pitch": 59, "duration": 100, "velocity": 85}, {"time": 34320, "pitch": 62, "duration": 100, "velocity": 90}, {"time": 34330, "pitch": 68, "duration": 100, "velocity": 95}, {"time": 34560, "pitch": 59, "duration": 100, "velocity": 90}, {"time": 34560, "pitch": 62, "duration": 100, "velocity": 95}, {"time": 34570, "pitch": 68, "duration": 100, "velocity": 100}, {"time": 34800, "pitch": 59, "duration": 120, "velocity": 85}, {"time": 34800, "pitch": 62, "duration": 110, "velocity": 90}, {"time": 34810, "pitch": 68, "duration": 110, "velocity": 95}, {"time": 34920, "pitch": 62, "duration": 230, "velocity": 95}, {"time": 34920, "pitch": 68, "duration": 230, "velocity": 90}, {"time": 34930, "pitch": 59, "duration": 230, "velocity": 100}, {"time": 35160, "pitch": 62, "duration": 110, "velocity": 80}, {"time": 35160, "pitch": 68, "duration": 120, "velocity": 75}, {"time": 35170, "pitch": 59, "duration": 110, "velocity": 85}, {"time": 35280, "pitch": 59, "duration": 100, "velocity": 90}, {"time": 35280, "pitch": 62, "duration": 100, "velocity": 95}, {"time": 35290, "pitch": 68, "duration": 100, "velocity": 100}, {"time": 35520, "pitch": 59, "duration": 100, "velocity": 85}, {"time": 35520, "pitch": 62, "duration": 100, "velocity": 90}, {"time": 35530, "pitch": 68, "duration": 100, "velocity": 95}, {"time": 35640, "pitch": 62, "duration": 10, "velocity": 74}, {"time": 35640, "pitch": 68, "duration": 10, "velocity": 70}, {"time": 35650, "pitch": 59, "duration": 10, "velocity": 60}, {"time": 35760, "pitch": 59, "duration": 10, "velocity": 75}, {"time": 35760, "pitch": 62, "duration": 10, "velocity": 80}, {"time": 35770, "pitch": 68, "duration": 10, "velocity": 85}, {"time": 35880, "pitch": 66, "duration": 240, "velocity": 95}, {"time": 35880, "pitch": 69, "duration": 230, "velocity": 100}, {"time": 35890, "pitch": 62, "duration": 230, "velocity": 90}, {"time": 36120, "pitch": 66, "duration": 110, "velocity": 75}, {"time": 36120, "pitch": 69, "duration": 120, "velocity": 80}, {"time": 36130, "pitch": 62, "duration": 110, "velocity": 70}, {"time": 36240, "pitch": 62, "duration": 100, "velocity": 85}, {"time": 36240, "pitch": 66, "duration": 100, "velocity": 90}, {"time": 36250, "pitch": 69, "duration": 100, "velocity": 95}, {"time": 36480, "pitch": 62, "duration": 100, "velocity": 90}, {"time": 36480, "pitch": 66, "duration": 100, "velocity": 95}, {"time": 36490, "pitch": 69, "duration": 100, "velocity": 100}, {"time": 36720, "pitch": 62, "duration": 100, "velocity": 85}, {"time": 36720, "pitch": 66, "duration": 100, "velocity": 90}, {"time": 36730, "pitch": 69, "duration": 100, "velocity": 95}, {"time": 36960, "pitch": 62, "duration": 100, "velocity": 90}, {"time": 36960, "pitch": 66, "duration": 100, "velocity": 95}, {"time": 36970, "pitch": 69, "duration": 100, "velocity": 100}, {"time": 37200, "pitch": 62, "duration": 100, "velocity": 85}, {"time": 37200, "pitch": 66, "duration": 100, "velocity": 90}, {"time": 37210, "pitch": 69, "duration": 100, "velocity": 95}, {"time": 37440, "pitch": 62, "duration": 100, "velocity": 90}, {"time": 37440, "pitch": 66, "duration": 100, "velocity": 95}, {"time": 37450, "pitch": 69, "duration": 100, "velocity": 100}, {"time": 37680, "pitch": 62, "duration": 120, "velocity": 85}, {"time": 37680, "pitch": 66, "duration": 110, "velocity": 90}, {"time": 37690, "pitch": 69, "duration": 110, "velocity": 95}, {"time": 37800, "pitch": 62, "duration": 240, "velocity": 95}, {"time": 37800, "pitch": 68, "duration": 240, "velocity": 100}, {"time": 37810, "pitch": 59, "duration": 230, "velocity": 90}, {"time": 38040, "pitch": 62, "duration": 120, "velocity": 85}, {"time": 38040, "pitch": 68, "duration": 130, "velocity": 90}, {"time": 38050, "pitch": 59, "duration": 110, "velocity": 80}, {"time": 38160, "pitch": 59, "duration": 100, "velocity": 85}, {"time": 38160, "pitch": 62, "duration": 100, "velocity": 90}, {"time": 38170, "pitch": 68, "duration": 100, "velocity": 95}, {"time": 38400, "pitch": 59, "duration": 130, "velocity": 90}, {"time": 38400, "pitch": 62, "duration": 120, "velocity": 95}, {"time": 38410, "pitch": 68, "duration": 110, "velocity": 100}, {"time": 38520, "pitch": 62, "duration": 10, "velocity": 80}, {"time": 38520, "pitch": 68, "duration": 10, "velocity": 85}, {"time": 38530, "pitch": 59, "duration": 10, "velocity": 75}, {"time": 38640, "pitch": 59, "duration": 10, "velocity": 70}, {"time": 38640, "pitch": 62, "duration": 10, "velocity": 75}, {"time": 38650, "pitch": 68, "duration": 10, "velocity": 80}, {"time": 38760, "pitch": 62, "duration": 10, "velocity": 85}, {"time": 38760, "pitch": 68, "duration": 10, "velocity": 90}, {"time": 38770, "pitch": 59, "duration": 10, "velocity": 80}, {"time": 38880, "pitch": 59, "duration": 110, "velocity": 90}, {"time": 38880, "pitch": 62, "duration": 110, "velocity": 95}, {"time": 38890, "pitch": 68, "duration": 110, "velocity": 100}, {"time": 39000, "pitch": 62, "duration": 110, "velocity": 85}, {"time": 39000, "pitch": 68, "duration": 110, "velocity": 90}, {"time": 39010, "pitch": 59, "duration": 110, "velocity": 80}, {"time": 39120, "pitch": 59, "duration": 10, "velocity": 60}, {"time": 39120, "pitch": 62, "duration": 10, "velocity": 65}, {"time": 39130, "pitch": 68, "duration": 10, "velocity": 70}, {"time": 39240, "pitch": 62, "duration": 10, "velocity": 75}, {"time": 39240, "pitch": 68, "duration": 10, "velocity": 80}, {"time": 39250, "pitch": 59, "duration": 10, "velocity": 70}, {"time": 39360, "pitch": 59, "duration": 110, "velocity": 90}, {"time": 39360, "pitch": 62, "duration": 110, "velocity": 95}, {"time": 39370, "pitch": 68, "duration": 110, "velocity": 100}, {"time": 39480, "pitch": 62, "duration": 110, "velocity": 85}, {"time": 39480, "pitch": 68, "duration": 110, "velocity": 90}, {"time": 39490, "pitch": 59, "duration": 110, "velocity": 80}, {"time": 39600, "pitch": 59, "duration": 10, "velocity": 60}, {"time": 39600, "pitch": 62, "duration": 10, "velocity": 65}, {"time": 39610, "pitch": 68, "duration": 10, "velocity": 70}, {"time": 39720, "pitch": 62, "duration": 10, "velocity": 75}, {"time": 39720, "pitch": 68, "duration": 10, "velocity": 80}, {"time": 39730, "pitch": 59, "duration": 10, "velocity": 70}, {"time": 39840, "pitch": 59, "duration": 710, "velocity": 90}, {"time": 39840, "pitch": 64, "duration": 710, "velocity": 95}, {"time": 39850, "pitch": 68, "duration": 710, "velocity": 100}, {"time": 40560, "pitch": 59, "duration": 10, "velocity": 80}, {"time": 40560, "pitch": 64, "duration": 10, "velocity": 85}, {"time": 40570, "pitch": 68, "duration": 10, "velocity": 90}, {"time": 40680, "pitch": 64, "duration": 10, "velocity": 75}, {"time": 40680, "pitch": 68, "duration": 10, "velocity": 80}, {"time": 40690, "pitch": 59, "duration": 10, "velocity": 70}, {"time": 40800, "pitch": 59, "duration": 110, "velocity": 90}, {"time": 40800, "pitch": 64, "duration": 110, "velocity": 95}, {"time": 40810, "pitch": 68, "duration": 110, "velocity": 100}, {"time": 40920, "pitch": 64, "duration": 10, "velocity": 75}, {"time": 40920, "pitch": 68, "duration": 10, "velocity": 80}, {"time": 40930, "pitch": 59, "duration": 10, "velocity": 70}, {"time": 41040, "pitch": 59, "duration": 10, "velocity": 60}, {"time": 41040, "pitch": 64, "duration": 10, "velocity": 65}, {"time": 41050, "pitch": 68, "duration": 10, "velocity": 70}, {"time": 41160, "pitch": 64, "duration": 110, "velocity": 90}, {"time": 41160, "pitch": 68, "duration": 110, "velocity": 95}, {"time": 41170, "pitch": 59, "duration": 110, "velocity": 85}, {"time": 41280, "pitch": 59, "duration": 10, "velocity": 70}, {"time": 41280, "pitch": 64, "duration": 10, "velocity": 75}, {"time": 41290, "pitch": 68, "duration": 10, "velocity": 80}, {"time": 41400, "pitch": 64, "duration": 10, "velocity": 65}, {"time": 41400, "pitch": 68, "duration": 10, "velocity": 70}, {"time": 41410, "pitch": 59, "duration": 10, "velocity": 60}, {"time": 41520, "pitch": 59, "duration": 10, "velocity": 70}, {"time": 41520, "pitch": 64, "duration": 10, "velocity": 75}, {"time": 41530, "pitch": 68, "duration": 10, "velocity": 80}, {"time": 41640, "pitch": 64, "duration": 10, "velocity": 85}, {"time": 41640, "pitch": 68, "duration": 10, "velocity": 90}, {"time": 41650, "pitch": 59, "duration": 10, "velocity": 80}, {"time": 41760, "pitch": 58, "duration": 100, "velocity": 90}, {"time": 41760, "pitch": 64, "duration": 100, "velocity": 95}, {"time": 41770, "pitch": 68, "duration": 100, "velocity": 100}, {"time": 41880, "pitch": 64, "duration": 10, "velocity": 65}, {"time": 41880, "pitch": 68, "duration": 10, "velocity": 70}, {"time": 41890, "pitch": 58, "duration": 10, "velocity": 60}, {"time": 42000, "pitch": 58, "duration": 100, "velocity": 85}, {"time": 42000, "pitch": 64, "duration": 100, "velocity": 90}, {"time": 42010, "pitch": 68, "duration": 100, "velocity": 95}, {"time": 42120, "pitch": 64, "duration": 10, "velocity": 65}, {"time": 42120, "pitch": 68, "duration": 10, "velocity": 70}, {"time": 42130, "pitch": 58, "duration": 10, "velocity": 60}, {"time": 42240, "pitch": 58, "duration": 100, "velocity": 90}, {"time": 42240, "pitch": 64, "duration": 100, "velocity": 95}, {"time": 42250, "pitch": 68, "duration": 100, "velocity": 100}, {"time": 42360, "pitch": 64, "duration": 10, "velocity": 65}, {"time": 42360, "pitch": 68, "duration": 10, "velocity": 70}, {"time": 42370, "pitch": 58, "duration": 10, "velocity": 60}, {"time": 42480, "pitch": 58, "duration": 10, "velocity": 70}, {"time": 42480, "pitch": 64, "duration": 10, "velocity": 75}, {"time": 42490, "pitch": 68, "duration": 10, "velocity": 80}, {"time": 42600, "pitch": 64, "duration": 10, "velocity": 85}, {"time": 42600, "pitch": 68, "duration": 10, "velocity": 90}, {"time": 42610, "pitch": 58, "duration": 10, "velocity": 80}, {"time": 42720, "pitch": 58, "duration": 100, "velocity": 90}, {"time": 42720, "pitch": 64, "duration": 100, "velocity": 95}, {"time": 42730, "pitch": 68, "duration": 100, "velocity": 100}, {"time": 42840, "pitch": 64, "duration": 10, "velocity": 65}, {"time": 42840, "pitch": 68, "duration": 10, "velocity": 70}, {"time": 42850, "pitch": 58, "duration": 10, "velocity": 60}, {"time": 42960, "pitch": 58, "duration": 100, "velocity": 85}, {"time": 42960, "pitch": 64, "duration": 100, "velocity": 90}, {"time": 42970, "pitch": 68, "duration": 100, "velocity": 95}, {"time": 43080, "pitch": 64, "duration": 10, "velocity": 65}, {"time": 43080, "pitch": 68, "duration": 10, "velocity": 70}, {"time": 43090, "pitch": 58, "duration": 10, "velocity": 60}, {"time": 43200, "pitch": 58, "duration": 100, "velocity": 90}, {"time": 43200, "pitch": 64, "duration": 100, "velocity": 95}, {"time": 43210, "pitch": 68, "duration": 100, "velocity": 100}, {"time": 43320, "pitch": 64, "duration": 10, "velocity": 65}, {"time": 43320, "pitch": 68, "duration": 10, "velocity": 70}, {"time": 43330, "pitch": 58, "duration": 10, "velocity": 60}, {"time": 43440, "pitch": 64, "duration": 10, "velocity": 70}, {"time": 43440, "pitch": 71, "duration": 10, "velocity": 75}, {"time": 43450, "pitch": 75, "duration": 10, "velocity": 80}, {"time": 43560, "pitch": 71, "duration": 110, "velocity": 90}, {"time": 43560, "pitch": 75, "duration": 110, "velocity": 95}, {"time": 43570, "pitch": 64, "duration": 110, "velocity": 85}, {"time": 43680, "pitch": 64, "duration": 240, "velocity": 90}, {"time": 43680, "pitch": 71, "duration": 240, "velocity": 95}, {"time": 43690, "pitch": 75, "duration": 240, "velocity": 100}, {"time": 43920, "pitch": 64, "duration": 110, "velocity": 70}, {"time": 43920, "pitch": 71, "duration": 110, "velocity": 75}, {"time": 43930, "pitch": 75, "duration": 110, "velocity": 80}, {"time": 44040, "pitch": 71, "duration": 110, "velocity": 85}, {"time": 44040, "pitch": 75, "duration": 110, "velocity": 90}, {"time": 44050, "pitch": 64, "duration": 110, "velocity": 80}, {"time": 44160, "pitch": 64, "duration": 110, "velocity": 90}, {"time": 44160, "pitch": 71, "duration": 110, "velocity": 95}, {"time": 44170, "pitch": 75, "duration": 110, "velocity": 100}, {"time": 44280, "pitch": 71, "duration": 110, "velocity": 85}, {"time": 44280, "pitch": 75, "duration": 110, "velocity": 90}, {"time": 44290, "pitch": 64, "duration": 110, "velocity": 80}, {"time": 44400, "pitch": 64, "duration": 10, "velocity": 60}, {"time": 44400, "pitch": 71, "duration": 10, "velocity": 65}, {"time": 44410, "pitch": 75, "duration": 10, "velocity": 70}, {"time": 44520, "pitch": 71, "duration": 10, "velocity": 75}, {"time": 44520, "pitch": 75, "duration": 10, "velocity": 80}, {"time": 44530, "pitch": 64, "duration": 10, "velocity": 70}, {"time": 44640, "pitch": 64, "duration": 110, "velocity": 90}, {"time": 44640, "pitch": 71, "duration": 110, "velocity": 95}, {"time": 44650, "pitch": 75, "duration": 110, "velocity": 100}, {"time": 44760, "pitch": 71, "duration": 110, "velocity": 85}, {"time": 44760, "pitch": 75, "duration": 110, "velocity": 90}, {"time": 44770, "pitch": 64, "duration": 110, "velocity": 80}, {"time": 44880, "pitch": 64, "duration": 10, "velocity": 60}, {"time": 44880, "pitch": 71, "duration": 10, "velocity": 65}, {"time": 44890, "pitch": 75, "duration": 10, "velocity": 70}, {"time": 45000, "pitch": 71, "duration": 10, "velocity": 75}, {"time": 45000, "pitch": 75, "duration": 10, "velocity": 80}, {"time": 45010, "pitch": 64, "duration": 10, "velocity": 70}, {"time": 45120, "pitch": 64, "duration": 10, "velocity": 80}, {"time": 45120, "pitch": 71, "duration": 10, "velocity": 85}, {"time": 45130, "pitch": 75, "duration": 10, "velocity": 90}, {"time": 45240, "pitch": 71, "duration": 10, "velocity": 75}, {"time": 45240, "pitch": 75, "duration": 10, "velocity": 80}, {"time": 45250, "pitch": 64, "duration": 10, "velocity": 70}, {"time": 45360, "pitch": 64, "duration": 10, "velocity": 60}, {"time": 45360, "pitch": 71, "duration": 10, "velocity": 65}, {"time": 45370, "pitch": 75, "duration": 10, "velocity": 70}, {"time": 45480, "pitch": 71, "duration": 10, "velocity": 75}, {"time": 45480, "pitch": 75, "duration": 10, "velocity": 80}, {"time": 45490, "pitch": 64, "duration": 10, "velocity": 70}, {"time": 45600, "pitch": 58, "duration": 110, "velocity": 90}, {"time": 45600, "pitch": 64, "duration": 110, "velocity": 95}, {"time": 45610, "pitch": 68, "duration": 110, "velocity": 100}, {"time": 45720, "pitch": 64, "duration": 10, "velocity": 65}, {"time": 45720, "pitch": 68, "duration": 10, "velocity": 70}, {"time": 45730, "pitch": 58, "duration": 10, "velocity": 60}, {"time": 45840, "pitch": 58, "duration": 10, "velocity": 65}, {"time": 45840, "pitch": 64, "duration": 10, "velocity": 70}, {"time": 45850, "pitch": 68, "duration": 10, "velocity": 75}, {"time": 45960, "pitch": 64, "duration": 10, "velocity": 75}, {"time": 45960, "pitch": 68, "duration": 10, "velocity": 80}, {"time": 45970, "pitch": 58, "duration": 10, "velocity": 70}, {"time": 46080, "pitch": 58, "duration": 110, "velocity": 85}, {"time": 46080, "pitch": 64, "duration": 110, "velocity": 90}, {"time": 46090, "pitch": 68, "duration": 110, "velocity": 95}, {"time": 46200, "pitch": 64, "duration": 110, "velocity": 75}, {"time": 46200, "pitch": 68, "duration": 110, "velocity": 80}, {"time": 46210, "pitch": 58, "duration": 110, "velocity": 70}, {"time": 46320, "pitch": 58, "duration": 10, "velocity": 65}, {"time": 46320, "pitch": 64, "duration": 10, "velocity": 70}, {"time": 46330, "pitch": 68, "duration": 10, "velocity": 75}, {"time": 46440, "pitch": 64, "duration": 10, "velocity": 75}, {"time": 46440, "pitch": 68, "duration": 10, "velocity": 80}, {"time": 46450, "pitch": 58, "duration": 10, "velocity": 70}, {"time": 46560, "pitch": 58, "duration": 110, "velocity": 80}, {"time": 46560, "pitch": 64, "duration": 110, "velocity": 85}, {"time": 46570, "pitch": 68, "duration": 110, "velocity": 90}, {"time": 46680, "pitch": 64, "duration": 10, "velocity": 65}, {"time": 46680, "pitch": 68, "duration": 10, "velocity": 70}, {"time": 46690, "pitch": 58, "duration": 10, "velocity": 60}, {"time": 46800, "pitch": 58, "duration": 10, "velocity": 65}, {"time": 46800, "pitch": 64, "duration": 10, "velocity": 70}, {"time": 46810, "pitch": 68, "duration": 10, "velocity": 75}, {"time": 46920, "pitch": 64, "duration": 110, "velocity": 85}, {"time": 46920, "pitch": 68, "duration": 110, "velocity": 90}, {"time": 46930, "pitch": 58, "duration": 110, "velocity": 80}, {"time": 47040, "pitch": 58, "duration": 100, "velocity": 90}, {"time": 47040, "pitch": 64, "duration": 100, "velocity": 95}, {"time": 47050, "pitch": 68, "duration": 100, "velocity": 100}, {"time": 47160, "pitch": 64, "duration": 10, "velocity": 65}, {"time": 47160, "pitch": 68, "duration": 10, "velocity": 70}, {"time": 47170, "pitch": 58, "duration": 10, "velocity": 60}, {"time": 47280, "pitch": 58, "duration": 10, "velocity": 65}, {"time": 47280, "pitch": 64, "duration": 10, "velocity": 70}, {"time": 47290, "pitch": 68, "duration": 10, "velocity": 75}, {"time": 47400, "pitch": 64, "duration": 10, "velocity": 75}, {"time": 47400, "pitch": 68, "duration": 10, "velocity": 80}, {"time": 47410, "pitch": 58, "duration": 10, "velocity": 70}, {"time": 47520, "pitch": 65, "duration": 110, "velocity": 90}, {"time": 47520, "pitch": 69, "duration": 110, "velocity": 95}, {"time": 47530, "pitch": 73, "duration": 110, "velocity": 100}, {"time": 47640, "pitch": 69, "duration": 10, "velocity": 75}, {"time": 47640, "pitch": 73, "duration": 10, "velocity": 80}, {"time": 47650, "pitch": 65, "duration": 10, "velocity": 70}, {"time": 47760, "pitch": 65, "duration": 10, "velocity": 65}, {"time": 47760, "pitch": 69, "duration": 10, "velocity": 70}, {"time": 47770, "pitch": 73, "duration": 10, "velocity": 75}, {"time": 47880, "pitch": 69, "duration": 10, "velocity": 75}, {"time": 47880, "pitch": 73, "duration": 10, "velocity": 80}, {"time": 47890, "pitch": 65, "duration": 10, "velocity": 70}, {"time": 48000, "pitch": 65, "duration": 110, "velocity": 90}, {"time": 48000, "pitch": 69, "duration": 110, "velocity": 95}, {"time": 48010, "pitch": 73, "duration": 110, "velocity": 100}, {"time": 48120, "pitch": 69, "duration": 110, "velocity": 80}, {"time": 48120, "pitch": 73, "duration": 110, "velocity": 85}, {"time": 48130, "pitch": 65, "duration": 110, "velocity": 75}, {"time": 48240, "pitch": 64, "duration": 10, "velocity": 70}, {"time": 48240, "pitch": 69, "duration": 10, "velocity": 75}, {"time": 48250, "pitch": 73, "duration": 10, "velocity": 80}, {"time": 48360, "pitch": 69, "duration": 10, "velocity": 80}, {"time": 48360, "pitch": 73, "duration": 10, "velocity": 85}, {"time": 48370, "pitch": 64, "duration": 10, "velocity": 75}, {"time": 48480, "pitch": 64, "duration": 10, "velocity": 70}, {"time": 48480, "pitch": 69, "duration": 10, "velocity": 75}, {"time": 48490, "pitch": 73, "duration": 10, "velocity": 80}, {"time": 48600, "pitch": 69, "duration": 10, "velocity": 90}, {"time": 48600, "pitch": 73, "duration": 10, "velocity": 95}, {"time": 48610, "pitch": 64, "duration": 10, "velocity": 85}, {"time": 48720, "pitch": 64, "duration": 10, "velocity": 70}, {"time": 48720, "pitch": 69, "duration": 10, "velocity": 75}, {"time": 48730, "pitch": 73, "duration": 10, "velocity": 80}, {"time": 48840, "pitch": 69, "duration": 10, "velocity": 80}, {"time": 48840, "pitch": 73, "duration": 10, "velocity": 85}, {"time": 48850, "pitch": 64, "duration": 10, "velocity": 75}, {"time": 48960, "pitch": 64, "duration": 10, "velocity": 85}, {"time": 48960, "pitch": 69, "duration": 10, "velocity": 90}, {"time": 48970, "pitch": 73, "duration": 10, "velocity": 95}, {"time": 49080, "pitch": 69, "duration": 10, "velocity": 80}, {"time": 49080, "pitch": 73, "duration": 10, "velocity": 85}, {"time": 49090, "pitch": 64, "duration": 10, "velocity": 75}, {"time": 49200, "pitch": 64, "duration": 110, "velocity": 80}, {"time": 49200, "pitch": 69, "duration": 110, "velocity": 85}, {"time": 49210, "pitch": 73, "duration": 110, "velocity": 90}, {"time": 49320, "pitch": 69, "duration": 110, "velocity": 90}, {"time": 49320, "pitch": 73, "duration": 110, "velocity": 95}, {"time": 49330, "pitch": 64, "duration": 110, "velocity": 85}, {"time": 49440, "pitch": 63, "duration": 140, "velocity": 90}, {"time": 49440, "pitch": 66, "duration": 140, "velocity": 95}, {"time": 49450, "pitch": 71, "duration": 140, "velocity": 100}, {"time": 51360, "pitch": 62, "duration": 110, "velocity": 90}, {"time": 51360, "pitch": 66, "duration": 110, "velocity": 95}, {"time": 51370, "pitch": 71, "duration": 110, "velocity": 100}, {"time": 51480, "pitch": 66, "duration": 10, "velocity": 75}, {"time": 51480, "pitch": 71, "duration": 10, "velocity": 80}, {"time": 51490, "pitch": 62, "duration": 10, "velocity": 70}, {"time": 51600, "pitch": 62, "duration": 10, "velocity": 65}, {"time": 51600, "pitch": 66, "duration": 10, "velocity": 70}, {"time": 51610, "pitch": 71, "duration": 10, "velocity": 75}, {"time": 51720, "pitch": 66, "duration": 10, "velocity": 75}, {"time": 51720, "pitch": 71, "duration": 10, "velocity": 80}, {"time": 51730, "pitch": 62, "duration": 10, "velocity": 70}, {"time": 51840, "pitch": 62, "duration": 10, "velocity": 80}, {"time": 51840, "pitch": 66, "duration": 10, "velocity": 85}, {"time": 51850, "pitch": 71, "duration": 10, "velocity": 90}, {"time": 51960, "pitch": 66, "duration": 10, "velocity": 75}, {"time": 51960, "pitch": 71, "duration": 10, "velocity": 80}, {"time": 51970, "pitch": 62, "duration": 10, "velocity": 70}, {"time": 52080, "pitch": 62, "duration": 110, "velocity": 85}, {"time": 52080, "pitch": 66, "duration": 110, "velocity": 90}, {"time": 52090, "pitch": 71, "duration": 110, "velocity": 95}, {"time": 52200, "pitch": 66, "duration": 110, "velocity": 85}, {"time": 52200, "pitch": 71, "duration": 110, "velocity": 90}, {"time": 52210, "pitch": 62, "duration": 110, "velocity": 80}, {"time": 52320, "pitch": 62, "duration": 10, "velocity": 70}, {"time": 52320, "pitch": 66, "duration": 10, "velocity": 75}, {"time": 52330, "pitch": 71, "duration": 10, "velocity": 80}, {"time": 52440, "pitch": 66, "duration": 10, "velocity": 65}, {"time": 52440, "pitch": 71, "duration": 10, "velocity": 70}, {"time": 52450, "pitch": 62, "duration": 10, "velocity": 60}, {"time": 52560, "pitch": 62, "duration": 110, "velocity": 85}, {"time": 52560, "pitch": 66, "duration": 110, "velocity": 90}, {"time": 52570, "pitch": 71, "duration": 110, "velocity": 95}, {"time": 52680, "pitch": 66, "duration": 10, "velocity": 75}, {"time": 52680, "pitch": 71, "duration": 10, "velocity": 80}, {"time": 52690, "pitch": 62, "duration": 10, "velocity": 70}, {"time": 52800, "pitch": 62, "duration": 10, "velocity": 70}, {"time": 52800, "pitch": 66, "duration": 10, "velocity": 75}, {"time": 52810, "pitch": 71, "duration": 10, "velocity": 80}, {"time": 52920, "pitch": 66, "duration": 110, "velocity": 95}, {"time": 52920, "pitch": 71, "duration": 110, "velocity": 100}, {"time": 52930, "pitch": 62, "duration": 110, "velocity": 90}, {"time": 53040, "pitch": 62, "duration": 10, "velocity": 65}, {"time": 53040, "pitch": 66, "duration": 10, "velocity": 70}, {"time": 53050, "pitch": 71, "duration": 10, "velocity": 75}, {"time": 53160, "pitch": 66, "duration": 10, "velocity": 75}, {"time": 53160, "pitch": 71, "duration": 10, "velocity": 80}, {"time": 53170, "pitch": 62, "duration": 10, "velocity": 70}, {"time": 53280, "pitch": 62, "duration": 10, "velocity": 70}, {"time": 53280, "pitch": 66, "duration": 10, "velocity": 75}, {"time": 53290, "pitch": 71, "duration": 10, "velocity": 80}, {"time": 53400, "pitch": 66, "duration": 110, "velocity": 95}, {"time": 53400, "pitch": 71, "duration": 110, "velocity": 100}, {"time": 53410, "pitch": 62, "duration": 110, "velocity": 90}, {"time": 53520, "pitch": 62, "duration": 10, "velocity": 65}, {"time": 53520, "pitch": 66, "duration": 10, "velocity": 70}, {"time": 53530, "pitch": 71, "duration": 10, "velocity": 75}, {"time": 53640, "pitch": 66, "duration": 10, "velocity": 75}, {"time": 53640, "pitch": 71, "duration": 10, "velocity": 80}, {"time": 53650, "pitch": 62, "duration": 10, "velocity": 70}, {"time": 53760, "pitch": 62, "duration": 110, "velocity": 90}, {"time": 53760, "pitch": 66, "duration": 110, "velocity": 95}, {"time": 53770, "pitch": 71, "duration": 110, "velocity": 100}, {"time": 53880, "pitch": 66, "duration": 110, "velocity": 85}, {"time": 53880, "pitch": 71, "duration": 110, "velocity": 90}, {"time": 53890, "pitch": 62, "duration": 110, "velocity": 80}, {"time": 54000, "pitch": 62, "duration": 10, "velocity": 75}, {"time": 54000, "pitch": 66, "duration": 10, "velocity": 80}, {"time": 54010, "pitch": 71, "duration": 10, "velocity": 85}, {"time": 54120, "pitch": 66, "duration": 10, "velocity": 85}, {"time": 54120, "pitch": 71, "duration": 10, "velocity": 90}, {"time": 54130, "pitch": 62, "duration": 10, "velocity": 80}, {"time": 54240, "pitch": 62, "duration": 10, "velocity": 70}, {"time": 54240, "pitch": 66, "duration": 10, "velocity": 75}, {"time": 54250, "pitch": 71, "duration": 10, "velocity": 80}, {"time": 54360, "pitch": 66, "duration": 10, "velocity": 65}, {"time": 54360, "pitch": 71, "duration": 10, "velocity": 70}, {"time": 54370, "pitch": 62, "duration": 10, "velocity": 60}, {"time": 54480, "pitch": 62, "duration": 110, "velocity": 85}, {"time": 54480, "pitch": 66, "duration": 110, "velocity": 90}, {"time": 54490, "pitch": 71, "duration": 110, "velocity": 95}, {"time": 54600, "pitch": 66, "duration": 10, "velocity": 75}, {"time": 54600, "pitch": 71, "duration": 10, "velocity": 80}, {"time": 54610, "pitch": 62, "duration": 10, "velocity": 70}, {"time": 54720, "pitch": 62, "duration": 10, "velocity": 70}, {"time": 54720, "pitch": 66, "duration": 10, "velocity": 75}, {"time": 54730, "pitch": 71, "duration": 10, "velocity": 80}, {"time": 54840, "pitch": 66, "duration": 110, "velocity": 95}, {"time": 54840, "pitch": 71, "duration": 110, "velocity": 100}, {"time": 54850, "pitch": 62, "duration": 110, "velocity": 90}, {"time": 54960, "pitch": 62, "duration": 10, "velocity": 65}, {"time": 54960, "pitch": 66, "duration": 10, "velocity": 70}, {"time": 54970, "pitch": 71, "duration": 10, "velocity": 75}, {"time": 55080, "pitch": 66, "duration": 10, "velocity": 75}, {"time": 55080, "pitch": 71, "duration": 10, "velocity": 80}, {"time": 55090, "pitch": 62, "duration": 10, "velocity": 70}, {"time": 55200, "pitch": 61, "duration": 10, "velocity": 80}, {"time": 55200, "pitch": 67, "duration": 10, "velocity": 85}, {"time": 55210, "pitch": 71, "duration": 10, "velocity": 90}, {"time": 55320, "pitch": 67, "duration": 10, "velocity": 75}, {"time": 55320, "pitch": 71, "duration": 10, "velocity": 80}, {"time": 55330, "pitch": 61, "duration": 10, "velocity": 70}, {"time": 55440, "pitch": 61, "duration": 110, "velocity": 85}, {"time": 55440, "pitch": 67, "duration": 110, "velocity": 90}, {"time": 55450, "pitch": 71, "duration": 110, "velocity": 95}, {"time": 55560, "pitch": 67, "duration": 110, "velocity": 95}, {"time": 55560, "pitch": 71, "duration": 110, "velocity": 100}, {"time": 55570, "pitch": 61, "duration": 110, "velocity": 90}, {"time": 55680, "pitch": 61, "duration": 10, "velocity": 80}, {"time": 55680, "pitch": 67, "duration": 10, "velocity": 85}, {"time": 55690, "pitch": 71, "duration": 10, "velocity": 90}, {"time": 55800, "pitch": 67, "duration": 10, "velocity": 75}, {"time": 55800, "pitch": 71, "duration": 10, "velocity": 80}, {"time": 55810, "pitch": 61, "duration": 10, "velocity": 70}, {"time": 55920, "pitch": 61, "duration": 110, "velocity": 85}, {"time": 55920, "pitch": 67, "duration": 110, "velocity": 90}, {"time": 55930, "pitch": 71, "duration": 110, "velocity": 95}, {"time": 56040, "pitch": 67, "duration": 110, "velocity": 85}, {"time": 56040, "pitch": 71, "duration": 110, "velocity": 90}, {"time": 56050, "pitch": 61, "duration": 110, "velocity": 80}, {"time": 56160, "pitch": 61, "duration": 10, "velocity": 70}, {"time": 56160, "pitch": 67, "duration": 10, "velocity": 75}, {"time": 56170, "pitch": 71, "duration": 10, "velocity": 80}, {"time": 56280, "pitch": 67, "duration": 10, "velocity": 65}, {"time": 56280, "pitch": 71, "duration": 10, "velocity": 70}, {"time": 56290, "pitch": 61, "duration": 10, "velocity": 60}, {"time": 56400, "pitch": 61, "duration": 110, "velocity": 85}, {"time": 56400, "pitch": 67, "duration": 110, "velocity": 90}, {"time": 56410, "pitch": 71, "duration": 110, "velocity": 95}, {"time": 56520, "pitch": 67, "duration": 10, "velocity": 75}, {"time": 56520, "pitch": 71, "duration": 10, "velocity": 80}, {"time": 56530, "pitch": 61, "duration": 10, "velocity": 70}, {"time": 56640, "pitch": 61, "duration": 10, "velocity": 70}, {"time": 56640, "pitch": 67, "duration": 10, "velocity": 75}, {"time": 56650, "pitch": 71, "duration": 10, "velocity": 80}, {"time": 56760, "pitch": 67, "duration": 110, "velocity": 95}, {"time": 56760, "pitch": 71, "duration": 110, "velocity": 100}, {"time": 56770, "pitch": 61, "duration": 110, "velocity": 90}, {"time": 56880, "pitch": 61, "duration": 10, "velocity": 65}, {"time": 56880, "pitch": 67, "duration": 10, "velocity": 70}, {"time": 56890, "pitch": 71, "duration": 10, "velocity": 75}, {"time": 57000, "pitch": 67, "duration": 10, "velocity": 75}, {"time": 57000, "pitch": 71, "duration": 10, "velocity": 80}, {"time": 57010, "pitch": 61, "duration": 10, "velocity": 70}, {"time": 57120, "pitch": 61, "duration": 10, "velocity": 80}, {"time": 57120, "pitch": 67, "duration": 10, "velocity": 85}, {"time": 57130, "pitch": 71, "duration": 10, "velocity": 90}, {"time": 57240, "pitch": 67, "duration": 10, "velocity": 75}, {"time": 57240, "pitch": 71, "duration": 10, "velocity": 80}, {"time": 57250, "pitch": 61, "duration": 10, "velocity": 70}, {"time": 57360, "pitch": 61, "duration": 110, "velocity": 85}, {"time": 57360, "pitch": 67, "duration": 110, "velocity": 90}, {"time": 57370, "pitch": 71, "duration": 110, "velocity": 95}, {"time": 57480, "pitch": 67, "duration": 110, "velocity": 95}, {"time": 57480, "pitch": 71, "duration": 110, "velocity": 100}, {"time": 57490, "pitch": 61, "duration": 110, "velocity": 90}, {"time": 57600, "pitch": 61, "duration": 10, "velocity": 80}, {"time": 57600, "pitch": 67, "duration": 10, "velocity": 85}, {"time": 57610, "pitch": 71, "duration": 10, "velocity": 90}, {"time": 57720, "pitch": 67, "duration": 10, "velocity": 75}, {"time": 57720, "pitch": 71, "duration": 10, "velocity": 80}, {"time": 57730, "pitch": 61, "duration": 10, "velocity": 70}, {"time": 57840, "pitch": 61, "duration": 110, "velocity": 85}, {"time": 57840, "pitch": 67, "duration": 110, "velocity": 90}, {"time": 57850, "pitch": 71, "duration": 110, "velocity": 95}, {"time": 57960, "pitch": 67, "duration": 110, "velocity": 85}, {"time": 57960, "pitch": 71, "duration": 110, "velocity": 90}, {"time": 57970, "pitch": 61, "duration": 110, "velocity": 80}, {"time": 58080, "pitch": 61, "duration": 10, "velocity": 70}, {"time": 58080, "pitch": 67, "duration": 10, "velocity": 75}, {"time": 58090, "pitch": 71, "duration": 10, "velocity": 80}, {"time": 58200, "pitch": 67, "duration": 10, "velocity": 65}, {"time": 58200, "pitch": 71, "duration": 10, "velocity": 70}, {"time": 58210, "pitch": 61, "duration": 10, "velocity": 60}, {"time": 58320, "pitch": 61, "duration": 110, "velocity": 85}, {"time": 58320, "pitch": 67, "duration": 110, "velocity": 90}, {"time": 58330, "pitch": 71, "duration": 110, "velocity": 95}, {"time": 58440, "pitch": 67, "duration": 10, "velocity": 75}, {"time": 58440, "pitch": 71, "duration": 10, "velocity": 80}, {"time": 58450, "pitch": 61, "duration": 10, "velocity": 70}, {"time": 58560, "pitch": 61, "duration": 10, "velocity": 70}, {"time": 58560, "pitch": 67, "duration": 10, "velocity": 75}, {"time": 58570, "pitch": 71, "duration": 10, "velocity": 80}, {"time": 58680, "pitch": 67, "duration": 10, "velocity": 65}, {"time": 58680, "pitch": 71, "duration": 10, "velocity": 70}, {"time": 58690, "pitch": 61, "duration": 10, "velocity": 60}, {"time": 58800, "pitch": 61, "duration": 110, "velocity": 80}, {"time": 58800, "pitch": 67, "duration": 110, "velocity": 85}, {"time": 58810, "pitch": 71, "duration": 110, "velocity": 90}, {"time": 58920, "pitch": 67, "duration": 110, "velocity": 90}, {"time": 58920, "pitch": 71, "duration": 110, "velocity": 95}, {"time": 58930, "pitch": 61, "duration": 110, "velocity": 85}, {"time": 59040, "pitch": 62, "duration": 110, "velocity": 90}, {"time": 59040, "pitch": 66, "duration": 110, "velocity": 95}, {"time": 59050, "pitch": 71, "duration": 110, "velocity": 100}, {"time": 59160, "pitch": 66, "duration": 10, "velocity": 75}, {"time": 59160, "pitch": 71, "duration": 10, "velocity": 80}, {"time": 59170, "pitch": 62, "duration": 10, "velocity": 70}, {"time": 59280, "pitch": 62, "duration": 10, "velocity": 65}, {"time": 59280, "pitch": 66, "duration": 10, "velocity": 70}, {"time": 59290, "pitch": 71, "duration": 10, "velocity": 75}, {"time": 59400, "pitch": 66, "duration": 10, "velocity": 75}, {"time": 59400, "pitch": 71, "duration": 10, "velocity": 80}, {"time": 59410, "pitch": 62, "duration": 10, "velocity": 70}, {"time": 59520, "pitch": 62, "duration": 10, "velocity": 80}, {"time": 59520, "pitch": 66, "duration": 10, "velocity": 85}, {"time": 59530, "pitch": 71, "duration": 10, "velocity": 90}, {"time": 59640, "pitch": 66, "duration": 10, "velocity": 75}, {"time": 59640, "pitch": 71, "duration": 10, "velocity": 80}, {"time": 59650, "pitch": 62, "duration": 10, "velocity": 70}, {"time": 59760, "pitch": 62, "duration": 110, "velocity": 85}, {"time": 59760, "pitch": 66, "duration": 110, "velocity": 90}, {"time": 59770, "pitch": 71, "duration": 110, "velocity": 95}, {"time": 59880, "pitch": 66, "duration": 110, "velocity": 85}, {"time": 59880, "pitch": 71, "duration": 110, "velocity": 90}, {"time": 59890, "pitch": 62, "duration": 110, "velocity": 80}, {"time": 60000, "pitch": 62, "duration": 10, "velocity": 70}, {"time": 60000, "pitch": 66, "duration": 10, "velocity": 75}, {"time": 60010, "pitch": 71, "duration": 10, "velocity": 80}, {"time": 60120, "pitch": 66, "duration": 10, "velocity": 65}, {"time": 60120, "pitch": 71, "duration": 10, "velocity": 70}, {"time": 60130, "pitch": 62, "duration": 10, "velocity": 60}, {"time": 60240, "pitch": 62, "duration": 110, "velocity": 85}, {"time": 60240, "pitch": 66, "duration": 110, "velocity": 90}, {"time": 60250, "pitch": 71, "duration": 110, "velocity": 95}, {"time": 60360, "pitch": 66, "duration": 10, "velocity": 75}, {"time": 60360, "pitch": 71, "duration": 10, "velocity": 80}, {"time": 60370, "pitch": 62, "duration": 10, "velocity": 70}, {"time": 60480, "pitch": 62, "duration": 10, "velocity": 70}, {"time": 60480, "pitch": 66, "duration": 10, "velocity": 75}, {"time": 60490, "pitch": 71, "duration": 10, "velocity": 80}, {"time": 60600, "pitch": 66, "duration": 110, "velocity": 95}, {"time": 60600, "pitch": 71, "duration": 110, "velocity": 100}, {"time": 60610, "pitch": 62, "duration": 110, "velocity": 90}, {"time": 60720, "pitch": 62, "duration": 10, "velocity": 65}, {"time": 60720, "pitch": 66, "duration": 10, "velocity": 70}, {"time": 60730, "pitch": 71, "duration": 10, "velocity": 75}, {"time": 60840, "pitch": 66, "duration": 10, "velocity": 75}, {"time": 60840, "pitch": 71, "duration": 10, "velocity": 80}, {"time": 60850, "pitch": 62, "duration": 10, "velocity": 70}, {"time": 60960, "pitch": 62, "duration": 10, "velocity": 70}, {"time": 60960, "pitch": 66, "duration": 10, "velocity": 75}, {"time": 60970, "pitch": 71, "duration": 10, "velocity": 80}, {"time": 61080, "pitch": 66, "duration": 110, "velocity": 95}, {"time": 61080, "pitch": 71, "duration": 110, "velocity": 100}, {"time": 61090, "pitch": 62, "duration": 110, "velocity": 90}, {"time": 61200, "pitch": 62, "duration": 10, "velocity": 65}, {"time": 61200, "pitch": 66, "duration": 10, "velocity": 70}, {"time": 61210, "pitch": 71, "duration": 10, "velocity": 75}, {"time": 61320, "pitch": 66, "duration": 10, "velocity": 75}, {"time": 61320, "pitch": 71, "duration": 10, "velocity": 80}, {"time": 61330, "pitch": 62, "duration": 10, "velocity": 70}, {"time": 61440, "pitch": 62, "duration": 110, "velocity": 90}, {"time": 61440, "pitch": 66, "duration": 110, "velocity": 95}, {"time": 61450, "pitch": 71, "duration": 110, "velocity": 100}, {"time": 61560, "pitch": 66, "duration": 110, "velocity": 85}, {"time": 61560, "pitch": 71, "duration": 110, "velocity": 90}, {"time": 61570, "pitch": 62, "duration": 110, "velocity": 80}, {"time": 61680, "pitch": 62, "duration": 10, "velocity": 75}, {"time": 61680, "pitch": 66, "duration": 10, "velocity": 80}, {"time": 61690, "pitch": 71, "duration": 10, "velocity": 85}, {"time": 61800, "pitch": 66, "duration": 10, "velocity": 85}, {"time": 61800, "pitch": 71, "duration": 10, "velocity": 90}, {"time": 61810, "pitch": 62, "duration": 10, "velocity": 80}, {"time": 61920, "pitch": 62, "duration": 10, "velocity": 70}, {"time": 61920, "pitch": 66, "duration": 10, "velocity": 75}, {"time": 61930, "pitch": 71, "duration": 10, "velocity": 80}, {"time": 62040, "pitch": 66, "duration": 10, "velocity": 65}, {"time": 62040, "pitch": 71, "duration": 10, "velocity": 70}, {"time": 62050, "pitch": 62, "duration": 10, "velocity": 60}, {"time": 62160, "pitch": 62, "duration": 110, "velocity": 85}, {"time": 62160, "pitch": 66, "duration": 110, "velocity": 90}, {"time": 62170, "pitch": 71, "duration": 110, "velocity": 95}, {"time": 62280, "pitch": 66, "duration": 10, "velocity": 75}, {"time": 62280, "pitch": 71, "duration": 10, "velocity": 80}, {"time": 62290, "pitch": 62, "duration": 10, "velocity": 70}, {"time": 62400, "pitch": 62, "duration": 10, "velocity": 70}, {"time": 62400, "pitch": 66, "duration": 10, "velocity": 75}, {"time": 62410, "pitch": 71, "duration": 10, "velocity": 80}, {"time": 62520, "pitch": 66, "duration": 110, "velocity": 95}, {"time": 62520, "pitch": 71, "duration": 110, "velocity": 100}, {"time": 62530, "pitch": 62, "duration": 110, "velocity": 90}, {"time": 62640, "pitch": 62, "duration": 10, "velocity": 65}, {"time": 62640, "pitch": 66, "duration": 10, "velocity": 70}, {"time": 62650, "pitch": 71, "duration": 10, "velocity": 75}, {"time": 62760, "pitch": 66, "duration": 10, "velocity": 75}, {"time": 62760, "pitch": 71, "duration": 10, "velocity": 80}, {"time": 62770, "pitch": 62, "duration": 10, "velocity": 70}, {"time": 62880, "pitch": 61, "duration": 10, "velocity": 80}, {"time": 62880, "pitch": 67, "duration": 10, "velocity": 85}, {"time": 62890, "pitch": 71, "duration": 10, "velocity": 90}, {"time": 63000, "pitch": 67, "duration": 10, "velocity": 75}, {"time": 63000, "pitch": 71, "duration": 10, "velocity": 80}, {"time": 63010, "pitch": 61, "duration": 10, "velocity": 70}, {"time": 63120, "pitch": 61, "duration": 110, "velocity": 85}, {"time": 63120, "pitch": 67, "duration": 110, "velocity": 90}, {"time": 63130, "pitch": 71, "duration": 110, "velocity": 95}, {"time": 63240, "pitch": 67, "duration": 110, "velocity": 95}, {"time": 63240, "pitch": 71, "duration": 110, "velocity": 100}, {"time": 63250, "pitch": 61, "duration": 110, "velocity": 90}, {"time": 63360, "pitch": 61, "duration": 10, "velocity": 80}, {"time": 63360, "pitch": 67, "duration": 10, "velocity": 85}, {"time": 63370, "pitch": 71, "duration": 10, "velocity": 90}, {"time": 63480, "pitch": 67, "duration": 10, "velocity": 75}, {"time": 63480, "pitch": 71, "duration": 10, "velocity": 80}, {"time": 63490, "pitch": 61, "duration": 10, "velocity": 70}, {"time": 63600, "pitch": 61, "duration": 110, "velocity": 85}, {"time": 63600, "pitch": 67, "duration": 110, "velocity": 90}, {"time": 63610, "pitch": 71, "duration": 110, "velocity": 95}, {"time": 63720, "pitch": 67, "duration": 110, "velocity": 85}, {"time": 63720, "pitch": 71, "duration": 110, "velocity": 90}, {"time": 63730, "pitch": 61, "duration": 110, "velocity": 80}, {"time": 63840, "pitch": 61, "duration": 10, "velocity": 70}, {"time": 63840, "pitch": 67, "duration": 10, "velocity": 75}, {"time": 63850, "pitch": 71, "duration": 10, "velocity": 80}, {"time": 63960, "pitch": 67, "duration": 10, "velocity": 65}, {"time": 63960, "pitch": 71, "duration": 10, "velocity": 70}, {"time": 63970, "pitch": 61, "duration": 10, "velocity": 60}, {"time": 64080, "pitch": 61, "duration": 110, "velocity": 85}, {"time": 64080, "pitch": 67, "duration": 110, "velocity": 90}, {"time": 64090, "pitch": 71, "duration": 110, "velocity": 95}, {"time": 64200, "pitch": 67, "duration": 10, "velocity": 75}, {"time": 64200, "pitch": 71, "duration": 10, "velocity": 80}, {"time": 64210, "pitch": 61, "duration": 10, "velocity": 70}, {"time": 64320, "pitch": 61, "duration": 10, "velocity": 70}, {"time": 64320, "pitch": 67, "duration": 10, "velocity": 75}, {"time": 64330, "pitch": 71, "duration": 10, "velocity": 80}, {"time": 64440, "pitch": 67, "duration": 110, "velocity": 95}, {"time": 64440, "pitch": 71, "duration": 110, "velocity": 100}, {"time": 64450, "pitch": 61, "duration": 110, "velocity": 90}, {"time": 64560, "pitch": 61, "duration": 10, "velocity": 65}, {"time": 64560, "pitch": 67, "duration": 10, "velocity": 70}, {"time": 64570, "pitch": 71, "duration": 10, "velocity": 75}, {"time": 64680, "pitch": 67, "duration": 10, "velocity": 75}, {"time": 64680, "pitch": 71, "duration": 10, "velocity": 80}, {"time": 64690, "pitch": 61, "duration": 10, "velocity": 70}, {"time": 64800, "pitch": 61, "duration": 10, "velocity": 80}, {"time": 64800, "pitch": 67, "duration": 10, "velocity": 85}, {"time": 64810, "pitch": 71, "duration": 10, "velocity": 90}, {"time": 64920, "pitch": 67, "duration": 10, "velocity": 75}, {"time": 64920, "pitch": 71, "duration": 10, "velocity": 80}, {"time": 64930, "pitch": 61, "duration": 10, "velocity": 70}, {"time": 65040, "pitch": 61, "duration": 110, "velocity": 85}, {"time": 65040, "pitch": 67, "duration": 110, "velocity": 90}, {"time": 65050, "pitch": 71, "duration": 110, "velocity": 95}, {"time": 65160, "pitch": 67, "duration": 110, "velocity": 95}, {"time": 65160, "pitch": 71, "duration": 110, "velocity": 100}, {"time": 65170, "pitch": 61, "duration": 110, "velocity": 90}, {"time": 65280, "pitch": 61, "duration": 10, "velocity": 80}, {"time": 65280, "pitch": 67, "duration": 10, "velocity": 85}, {"time": 65290, "pitch": 71, "duration": 10, "velocity": 90}, {"time": 65400, "pitch": 67, "duration": 10, "velocity": 75}, {"time": 65400, "pitch": 71, "duration": 10, "velocity": 80}, {"time": 65410, "pitch": 61, "duration": 10, "velocity": 70}, {"time": 65520, "pitch": 61, "duration": 110, "velocity": 85}, {"time": 65520, "pitch": 67, "duration": 110, "velocity": 90}, {"time": 65530, "pitch": 71, "duration": 110, "velocity": 95}, {"time": 65640, "pitch": 67, "duration": 110, "velocity": 85}, {"time": 65640, "pitch": 71, "duration": 110, "velocity": 90}, {"time": 65650, "pitch": 61, "duration": 110, "velocity": 80}, {"time": 65760, "pitch": 61, "duration": 10, "velocity": 70}, {"time": 65760, "pitch": 67, "duration": 10, "velocity": 75}, {"time": 65770, "pitch": 71, "duration": 10, "velocity": 80}, {"time": 65880, "pitch": 67, "duration": 10, "velocity": 65}, {"time": 65880, "pitch": 71, "duration": 10, "velocity": 70}, {"time": 65890, "pitch": 61, "duration": 10, "velocity": 60}, {"time": 66000, "pitch": 61, "duration": 110, "velocity": 85}, {"time": 66000, "pitch": 67, "duration": 110, "velocity": 90}, {"time": 66010, "pitch": 71, "duration": 110, "velocity": 95}, {"time": 66120, "pitch": 67, "duration": 10, "velocity": 75}, {"time": 66120, "pitch": 71, "duration": 10, "velocity": 80}, {"time": 66130, "pitch": 61, "duration": 10, "velocity": 70}, {"time": 66240, "pitch": 61, "duration": 10, "velocity": 70}, {"time": 66240, "pitch": 67, "duration": 10, "velocity": 75}, {"time": 66250, "pitch": 71, "duration": 10, "velocity": 80}, {"time": 66360, "pitch": 67, "duration": 10, "velocity": 65}, {"time": 66360, "pitch": 71, "duration": 10, "velocity": 70}, {"time": 66370, "pitch": 61, "duration": 10, "velocity": 60}, {"time": 66480, "pitch": 61, "duration": 110, "velocity": 80}, {"time": 66480, "pitch": 67, "duration": 110, "velocity": 85}, {"time": 66490, "pitch": 71, "duration": 110, "velocity": 90}, {"time": 66600, "pitch": 67, "duration": 110, "velocity": 90}, {"time": 66600, "pitch": 71, "duration": 110, "velocity": 95}, {"time": 66610, "pitch": 61, "duration": 110, "velocity": 85}, {"time": 66720, "pitch": 62, "duration": 10, "velocity": 80}, {"time": 66720, "pitch": 66, "duration": 10, "velocity": 85}, {"time": 66730, "pitch": 69, "duration": 10, "velocity": 90}, {"time": 66840, "pitch": 66, "duration": 10, "velocity": 75}, {"time": 66840, "pitch": 69, "duration": 10, "velocity": 80}, {"time": 66850, "pitch": 62, "duration": 10, "velocity": 70}, {"time": 66960, "pitch": 62, "duration": 110, "velocity": 90}, {"time": 66960, "pitch": 66, "duration": 110, "velocity": 95}, {"time": 66970, "pitch": 69, "duration": 110, "velocity": 100}, {"time": 67080, "pitch": 66, "duration": 10, "velocity": 65}, {"time": 67080, "pitch": 69, "duration": 10, "velocity": 70}, {"time": 67090, "pitch": 62, "duration": 10, "velocity": 60}, {"time": 67200, "pitch": 62, "duration": 10, "velocity": 70}, {"time": 67200, "pitch": 66, "duration": 10, "velocity": 75}, {"time": 67210, "pitch": 69, "duration": 10, "velocity": 80}, {"time": 67320, "pitch": 66, "duration": 110, "velocity": 95}, {"time": 67320, "pitch": 69, "duration": 110, "velocity": 100}, {"time": 67330, "pitch": 62, "duration": 110, "velocity": 90}, {"time": 67440, "pitch": 62, "duration": 10, "velocity": 65}, {"time": 67440, "pitch": 66, "duration": 10, "velocity": 70}, {"time": 67450, "pitch": 69, "duration": 10, "velocity": 75}, {"time": 67560, "pitch": 66, "duration": 10, "velocity": 85}, {"time": 67560, "pitch": 69, "duration": 10, "velocity": 90}, {"time": 67570, "pitch": 62, "duration": 10, "velocity": 80}, {"time": 67680, "pitch": 62, "duration": 110, "velocity": 90}, {"time": 67680, "pitch": 66, "duration": 110, "velocity": 95}, {"time": 67690, "pitch": 69, "duration": 110, "velocity": 100}, {"time": 67800, "pitch": 66, "duration": 10, "velocity": 55}, {"time": 67800, "pitch": 69, "duration": 10, "velocity": 60}, {"time": 67810, "pitch": 62, "duration": 10, "velocity": 50}, {"time": 67920, "pitch": 62, "duration": 10, "velocity": 65}, {"time": 67920, "pitch": 66, "duration": 10, "velocity": 70}, {"time": 67930, "pitch": 69, "duration": 10, "velocity": 75}, {"time": 68040, "pitch": 66, "duration": 110, "velocity": 90}, {"time": 68040, "pitch": 69, "duration": 110, "velocity": 95}, {"time": 68050, "pitch": 62, "duration": 110, "velocity": 85}, {"time": 68160, "pitch": 62, "duration": 10, "velocity": 70}, {"time": 68160, "pitch": 66, "duration": 10, "velocity": 75}, {"time": 68170, "pitch": 69, "duration": 10, "velocity": 80}, {"time": 68280, "pitch": 66, "duration": 10, "velocity": 65}, {"time": 68280, "pitch": 69, "duration": 10, "velocity": 70}, {"time": 68290, "pitch": 62, "duration": 10, "velocity": 60}, {"time": 68400, "pitch": 62, "duration": 230, "velocity": 90}, {"time": 68400, "pitch": 66, "duration": 230, "velocity": 95}, {"time": 68410, "pitch": 69, "duration": 230, "velocity": 100}, {"time": 68640, "pitch": 62, "duration": 10, "velocity": 80}, {"time": 68640, "pitch": 66, "duration": 10, "velocity": 85}, {"time": 68650, "pitch": 69, "duration": 10, "velocity": 90}, {"time": 68760, "pitch": 66, "duration": 10, "velocity": 75}, {"time": 68760, "pitch": 69, "duration": 10, "velocity": 80}, {"time": 68770, "pitch": 62, "duration": 10, "velocity": 70}, {"time": 68880, "pitch": 62, "duration": 110, "velocity": 90}, {"time": 68880, "pitch": 66, "duration": 110, "velocity": 95}, {"time": 68890, "pitch": 69, "duration": 110, "velocity": 100}, {"time": 69000, "pitch": 66, "duration": 10, "velocity": 65}, {"time": 69000, "pitch": 69, "duration": 10, "velocity": 70}, {"time": 69010, "pitch": 62, "duration": 10, "velocity": 60}, {"time": 69120, "pitch": 62, "duration": 10, "velocity": 70}, {"time": 69120, "pitch": 66, "duration": 10, "velocity": 75}, {"time": 69130, "pitch": 69, "duration": 10, "velocity": 80}, {"time": 69240, "pitch": 66, "duration": 110, "velocity": 95}, {"time": 69240, "pitch": 69, "duration": 110, "velocity": 100}, {"time": 69250, "pitch": 62, "duration": 110, "velocity": 90}, {"time": 69360, "pitch": 62, "duration": 10, "velocity": 65}, {"time": 69360, "pitch": 66, "duration": 10, "velocity": 70}, {"time": 69370, "pitch": 69, "duration": 10, "velocity": 75}, {"time": 69480, "pitch": 66, "duration": 10, "velocity": 85}, {"time": 69480, "pitch": 69, "duration": 10, "velocity": 90}, {"time": 69490, "pitch": 62, "duration": 10, "velocity": 80}, {"time": 69600, "pitch": 62, "duration": 110, "velocity": 90}, {"time": 69600, "pitch": 66, "duration": 110, "velocity": 95}, {"time": 69610, "pitch": 69, "duration": 110, "velocity": 100}, {"time": 69720, "pitch": 66, "duration": 10, "velocity": 55}, {"time": 69720, "pitch": 69, "duration": 10, "velocity": 60}, {"time": 69730, "pitch": 62, "duration": 10, "velocity": 50}, {"time": 69840, "pitch": 62, "duration": 10, "velocity": 65}, {"time": 69840, "pitch": 66, "duration": 10, "velocity": 70}, {"time": 69850, "pitch": 69, "duration": 10, "velocity": 75}, {"time": 69960, "pitch": 66, "duration": 110, "velocity": 90}, {"time": 69960, "pitch": 69, "duration": 110, "velocity": 95}, {"time": 69970, "pitch": 62, "duration": 110, "velocity": 85}, {"time": 70080, "pitch": 62, "duration": 10, "velocity": 70}, {"time": 70080, "pitch": 66, "duration": 10, "velocity": 75}, {"time": 70090, "pitch": 69, "duration": 10, "velocity": 80}, {"time": 70320, "pitch": 58, "duration": 230, "velocity": 90}, {"time": 70320, "pitch": 63, "duration": 230, "velocity": 95}, {"time": 70330, "pitch": 66, "duration": 230, "velocity": 100}, {"time": 70560, "pitch": 62, "duration": 10, "velocity": 80}, {"time": 70560, "pitch": 66, "duration": 10, "velocity": 85}, {"time": 70570, "pitch": 69, "duration": 10, "velocity": 90}, {"time": 70680, "pitch": 66, "duration": 10, "velocity": 75}, {"time": 70680, "pitch": 69, "duration": 10, "velocity": 80}, {"time": 70690, "pitch": 62, "duration": 10, "velocity": 70}, {"time": 70800, "pitch": 62, "duration": 110, "velocity": 90}, {"time": 70800, "pitch": 66, "duration": 110, "velocity": 95}, {"time": 70810, "pitch": 69, "duration": 110, "velocity": 100}, {"time": 70920, "pitch": 66, "duration": 10, "velocity": 65}, {"time": 70920, "pitch": 69, "duration": 10, "velocity": 70}, {"time": 70930, "pitch": 62, "duration": 10, "velocity": 60}, {"time": 71040, "pitch": 62, "duration": 10, "velocity": 70}, {"time": 71040, "pitch": 66, "duration": 10, "velocity": 75}, {"time": 71050, "pitch": 69, "duration": 10, "velocity": 80}, {"time": 71160, "pitch": 66, "duration": 110, "velocity": 95}, {"time": 71160, "pitch": 69, "duration": 110, "velocity": 100}, {"time": 71170, "pitch": 62, "duration": 110, "velocity": 90}, {"time": 71280, "pitch": 62, "duration": 10, "velocity": 65}, {"time": 71280, "pitch": 66, "duration": 10, "velocity": 70}, {"time": 71290, "pitch": 69, "duration": 10, "velocity": 75}, {"time": 71400, "pitch": 66, "duration": 10, "velocity": 85}, {"time": 71400, "pitch": 69, "duration": 10, "velocity": 90}, {"time": 71410, "pitch": 62, "duration": 10, "velocity": 80}, {"time": 71520, "pitch": 62, "duration": 110, "velocity": 90}, {"time": 71520, "pitch": 66, "duration": 110, "velocity": 95}, {"time": 71530, "pitch": 69, "duration": 110, "velocity": 100}, {"time": 71640, "pitch": 66, "duration": 10, "velocity": 55}, {"time": 71640, "pitch": 69, "duration": 10, "velocity": 60}, {"time": 71650, "pitch": 62, "duration": 10, "velocity": 50}, {"time": 71760, "pitch": 62, "duration": 10, "velocity": 65}, {"time": 71760, "pitch": 66, "duration": 10, "velocity": 70}, {"time": 71770, "pitch": 69, "duration": 10, "velocity": 75}, {"time": 71880, "pitch": 66, "duration": 110, "velocity": 90}, {"time": 71880, "pitch": 69, "duration": 110, "velocity": 95}, {"time": 71890, "pitch": 62, "duration": 110, "velocity": 85}, {"time": 72000, "pitch": 62, "duration": 10, "velocity": 70}, {"time": 72000, "pitch": 66, "duration": 10, "velocity": 75}, {"time": 72010, "pitch": 69, "duration": 10, "velocity": 80}, {"time": 72120, "pitch": 66, "duration": 10, "velocity": 65}, {"time": 72120, "pitch": 69, "duration": 10, "velocity": 70}, {"time": 72130, "pitch": 62, "duration": 10, "velocity": 60}, {"time": 72240, "pitch": 62, "duration": 110, "velocity": 85}, {"time": 72240, "pitch": 66, "duration": 110, "velocity": 90}, {"time": 72250, "pitch": 71, "duration": 110, "velocity": 95}, {"time": 72360, "pitch": 66, "duration": 110, "velocity": 80}, {"time": 72360, "pitch": 71, "duration": 110, "velocity": 85}, {"time": 72370, "pitch": 62, "duration": 110, "velocity": 75}, {"time": 72480, "pitch": 62, "duration": 140, "velocity": 90}, {"time": 72480, "pitch": 66, "duration": 140, "velocity": 95}, {"time": 72490, "pitch": 71, "duration": 140, "velocity": 100}, {"time": 89760, "pitch": 59, "duration": 710, "velocity": 90}, {"time": 89760, "pitch": 64, "duration": 710, "velocity": 95}, {"time": 89770, "pitch": 68, "duration": 710, "velocity": 100}, {"time": 90480, "pitch": 59, "duration": 10, "velocity": 80}, {"time": 90480, "pitch": 64, "duration": 10, "velocity": 85}, {"time": 90490, "pitch": 68, "duration": 10, "velocity": 90}, {"time": 90600, "pitch": 64, "duration": 10, "velocity": 75}, {"time": 90600, "pitch": 68, "duration": 10, "velocity": 80}, {"time": 90610, "pitch": 59, "duration": 10, "velocity": 70}, {"time": 90720, "pitch": 59, "duration": 110, "velocity": 90}, {"time": 90720, "pitch": 64, "duration": 110, "velocity": 95}, {"time": 90730, "pitch": 68, "duration": 110, "velocity": 100}, {"time": 90840, "pitch": 64, "duration": 10, "velocity": 75}, {"time": 90840, "pitch": 68, "duration": 10, "velocity": 80}, {"time": 90850, "pitch": 59, "duration": 10, "velocity": 70}, {"time": 90960, "pitch": 59, "duration": 10, "velocity": 60}, {"time": 90960, "pitch": 64, "duration": 10, "velocity": 65}, {"time": 90970, "pitch": 68, "duration": 10, "velocity": 70}, {"time": 91080, "pitch": 64, "duration": 110, "velocity": 90}, {"time": 91080, "pitch": 68, "duration": 110, "velocity": 95}, {"time": 91090, "pitch": 59, "duration": 110, "velocity": 85}, {"time": 91200, "pitch": 59, "duration": 10, "velocity": 70}, {"time": 91200, "pitch": 64, "duration": 10, "velocity": 75}, {"time": 91210, "pitch": 68, "duration": 10, "velocity": 80}, {"time": 91320, "pitch": 64, "duration": 10, "velocity": 65}, {"time": 91320, "pitch": 68, "duration": 10, "velocity": 70}, {"time": 91330, "pitch": 59, "duration": 10, "velocity": 60}, {"time": 91440, "pitch": 59, "duration": 10, "velocity": 70}, {"time": 91440, "pitch": 64, "duration": 10, "velocity": 75}, {"time": 91450, "pitch": 68, "duration": 10, "velocity": 80}, {"time": 91560, "pitch": 64, "duration": 10, "velocity": 85}, {"time": 91560, "pitch": 68, "duration": 10, "velocity": 90}, {"time": 91570, "pitch": 59, "duration": 10, "velocity": 80}, {"time": 91680, "pitch": 58, "duration": 100, "velocity": 90}, {"time": 91680, "pitch": 64, "duration": 100, "velocity": 95}, {"time": 91690, "pitch": 68, "duration": 100, "velocity": 100}, {"time": 91800, "pitch": 64, "duration": 10, "velocity": 65}, {"time": 91800, "pitch": 68, "duration": 10, "velocity": 70}, {"time": 91810, "pitch": 58, "duration": 10, "velocity": 60}, {"time": 91920, "pitch": 58, "duration": 100, "velocity": 85}, {"time": 91920, "pitch": 64, "duration": 100, "velocity": 90}, {"time": 91930, "pitch": 68, "duration": 100, "velocity": 95}, {"time": 92040, "pitch": 64, "duration": 10, "velocity": 65}, {"time": 92040, "pitch": 68, "duration": 10, "velocity": 70}, {"time": 92050, "pitch": 58, "duration": 10, "velocity": 60}, {"time": 92160, "pitch": 58, "duration": 100, "velocity": 90}, {"time": 92160, "pitch": 64, "duration": 100, "velocity": 95}, {"time": 92170, "pitch": 68, "duration": 100, "velocity": 100}, {"time": 92280, "pitch": 64, "duration": 10, "velocity": 65}, {"time": 92280, "pitch": 68, "duration": 10, "velocity": 70}, {"time": 92290, "pitch": 58, "duration": 10, "velocity": 60}, {"time": 92400, "pitch": 58, "duration": 10, "velocity": 70}, {"time": 92400, "pitch": 64, "duration": 10, "velocity": 75}, {"time": 92410, "pitch": 68, "duration": 10, "velocity": 80}, {"time": 92520, "pitch": 64, "duration": 10, "velocity": 85}, {"time": 92520, "pitch": 68, "duration": 10, "velocity": 90}, {"time": 92530, "pitch": 58, "duration": 10, "velocity": 80}, {"time": 92640, "pitch": 58, "duration": 100, "velocity": 90}, {"time": 92640, "pitch": 64, "duration": 100, "velocity": 95}, {"time": 92650, "pitch": 68, "duration": 100, "velocity": 100}, {"time": 92760, "pitch": 64, "duration": 10, "velocity": 65}, {"time": 92760, "pitch": 68, "duration": 10, "velocity": 70}, {"time": 92770, "pitch": 58, "duration": 10, "velocity": 60}, {"time": 92880, "pitch": 58, "duration": 100, "velocity": 85}, {"time": 92880, "pitch": 64, "duration": 100, "velocity": 90}, {"time": 92890, "pitch": 68, "duration": 100, "velocity": 95}, {"time": 93000, "pitch": 64, "duration": 10, "velocity": 65}, {"time": 93000, "pitch": 68, "duration": 10, "velocity": 70}, {"time": 93010, "pitch": 58, "duration": 10, "velocity": 60}, {"time": 93120, "pitch": 58, "duration": 100, "velocity": 90}, {"time": 93120, "pitch": 64, "duration": 100, "velocity": 95}, {"time": 93130, "pitch": 68, "duration": 100, "velocity": 100}, {"time": 93240, "pitch": 64, "duration": 10, "velocity": 65}, {"time": 93240, "pitch": 68, "duration": 10, "velocity": 70}, {"time": 93250, "pitch": 58, "duration": 10, "velocity": 60}, {"time": 93360, "pitch": 64, "duration": 10, "velocity": 70}, {"time": 93360, "pitch": 71, "duration": 10, "velocity": 75}, {"time": 93370, "pitch": 75, "duration": 10, "velocity": 80}, {"time": 93480, "pitch": 71, "duration": 110, "velocity": 90}, {"time": 93480, "pitch": 75, "duration": 110, "velocity": 95}, {"time": 93490, "pitch": 64, "duration": 110, "velocity": 85}, {"time": 93600, "pitch": 64, "duration": 240, "velocity": 90}, {"time": 93600, "pitch": 71, "duration": 240, "velocity": 95}, {"time": 93610, "pitch": 75, "duration": 240, "velocity": 100}, {"time": 93840, "pitch": 64, "duration": 110, "velocity": 70}, {"time": 93840, "pitch": 71, "duration": 110, "velocity": 75}, {"time": 93850, "pitch": 75, "duration": 110, "velocity": 80}, {"time": 93960, "pitch": 71, "duration": 110, "velocity": 85}, {"time": 93960, "pitch": 75, "duration": 110, "velocity": 90}, {"time": 93970, "pitch": 64, "duration": 110, "velocity": 80}, {"time": 94080, "pitch": 64, "duration": 110, "velocity": 90}, {"time": 94080, "pitch": 71, "duration": 110, "velocity": 95}, {"time": 94090, "pitch": 75, "duration": 110, "velocity": 100}, {"time": 94200, "pitch": 71, "duration": 110, "velocity": 85}, {"time": 94200, "pitch": 75, "duration": 110, "velocity": 90}, {"time": 94210, "pitch": 64, "duration": 110, "velocity": 80}, {"time": 94320, "pitch": 64, "duration": 10, "velocity": 60}, {"time": 94320, "pitch": 71, "duration": 10, "velocity": 65}, {"time": 94330, "pitch": 75, "duration": 10, "velocity": 70}, {"time": 94440, "pitch": 71, "duration": 10, "velocity": 75}, {"time": 94440, "pitch": 75, "duration": 10, "velocity": 80}, {"time": 94450, "pitch": 64, "duration": 10, "velocity": 70}, {"time": 94560, "pitch": 64, "duration": 110, "velocity": 90}, {"time": 94560, "pitch": 71, "duration": 110, "velocity": 95}, {"time": 94570, "pitch": 75, "duration": 110, "velocity": 100}, {"time": 94680, "pitch": 71, "duration": 110, "velocity": 85}, {"time": 94680, "pitch": 75, "duration": 110, "velocity": 90}, {"time": 94690, "pitch": 64, "duration": 110, "velocity": 80}, {"time": 94800, "pitch": 64, "duration": 10, "velocity": 60}, {"time": 94800, "pitch": 71, "duration": 10, "velocity": 65}, {"time": 94810, "pitch": 75, "duration": 10, "velocity": 70}, {"time": 94920, "pitch": 71, "duration": 10, "velocity": 75}, {"time": 94920, "pitch": 75, "duration": 10, "velocity": 80}, {"time": 94930, "pitch": 64, "duration": 10, "velocity": 70}, {"time": 95040, "pitch": 64, "duration": 10, "velocity": 80}, {"time": 95040, "pitch": 71, "duration": 10, "velocity": 85}, {"time": 95050, "pitch": 75, "duration": 10, "velocity": 90}, {"time": 95160, "pitch": 71, "duration": 10, "velocity": 75}, {"time": 95160, "pitch": 75, "duration": 10, "velocity": 80}, {"time": 95170, "pitch": 64, "duration": 10, "velocity": 70}, {"time": 95280, "pitch": 64, "duration": 10, "velocity": 60}, {"time": 95280, "pitch": 71, "duration": 10, "velocity": 65}, {"time": 95290, "pitch": 75, "duration": 10, "velocity": 70}, {"time": 95400, "pitch": 71, "duration": 10, "velocity": 75}, {"time": 95400, "pitch": 75, "duration": 10, "velocity": 80}, {"time": 95410, "pitch": 64, "duration": 10, "velocity": 70}, {"time": 95520, "pitch": 58, "duration": 110, "velocity": 90}, {"time": 95520, "pitch": 64, "duration": 110, "velocity": 95}, {"time": 95530, "pitch": 68, "duration": 110, "velocity": 100}, {"time": 95640, "pitch": 64, "duration": 10, "velocity": 65}, {"time": 95640, "pitch": 68, "duration": 10, "velocity": 70}, {"time": 95650, "pitch": 58, "duration": 10, "velocity": 60}, {"time": 95760, "pitch": 58, "duration": 10, "velocity": 65}, {"time": 95760, "pitch": 64, "duration": 10, "velocity": 70}, {"time": 95770, "pitch": 68, "duration": 10, "velocity": 75}, {"time": 95880, "pitch": 64, "duration": 10, "velocity": 75}, {"time": 95880, "pitch": 68, "duration": 10, "velocity": 80}, {"time": 95890, "pitch": 58, "duration": 10, "velocity": 70}, {"time": 96000, "pitch": 58, "duration": 110, "velocity": 85}, {"time": 96000, "pitch": 64, "duration": 110, "velocity": 90}, {"time": 96010, "pitch": 68, "duration": 110, "velocity": 95}, {"time": 96120, "pitch": 64, "duration": 110, "velocity": 75}, {"time": 96120, "pitch": 68, "duration": 110, "velocity": 80}, {"time": 96130, "pitch": 58, "duration": 110, "velocity": 70}, {"time": 96240, "pitch": 58, "duration": 10, "velocity": 65}, {"time": 96240, "pitch": 64, "duration": 10, "velocity": 70}, {"time": 96250, "pitch": 68, "duration": 10, "velocity": 75}, {"time": 96360, "pitch": 64, "duration": 10, "velocity": 75}, {"time": 96360, "pitch": 68, "duration": 10, "velocity": 80}, {"time": 96370, "pitch": 58, "duration": 10, "velocity": 70}, {"time": 96480, "pitch": 58, "duration": 110, "velocity": 80}, {"time": 96480, "pitch": 64, "duration": 110, "velocity": 85}, {"time": 96490, "pitch": 68, "duration": 110, "velocity": 90}, {"time": 96600, "pitch": 64, "duration": 10, "velocity": 65}, {"time": 96600, "pitch": 68, "duration": 10, "velocity": 70}, {"time": 96610, "pitch": 58, "duration": 10, "velocity": 60}, {"time": 96720, "pitch": 58, "duration": 10, "velocity": 65}, {"time": 96720, "pitch": 64, "duration": 10, "velocity": 70}, {"time": 96730, "pitch": 68, "duration": 10, "velocity": 75}, {"time": 96840, "pitch": 64, "duration": 110, "velocity": 85}, {"time": 96840, "pitch": 68, "duration": 110, "velocity": 90}, {"time": 96850, "pitch": 58, "duration": 110, "velocity": 80}, {"time": 96960, "pitch": 58, "duration": 100, "velocity": 90}, {"time": 96960, "pitch": 64, "duration": 100, "velocity": 95}, {"time": 96970, "pitch": 68, "duration": 100, "velocity": 100}, {"time": 97080, "pitch": 64, "duration": 10, "velocity": 65}, {"time": 97080, "pitch": 68, "duration": 10, "velocity": 70}, {"time": 97090, "pitch": 58, "duration": 10, "velocity": 60}, {"time": 97200, "pitch": 58, "duration": 10, "velocity": 65}, {"time": 97200, "pitch": 64, "duration": 10, "velocity": 70}, {"time": 97210, "pitch": 68, "duration": 10, "velocity": 75}, {"time": 97320, "pitch": 64, "duration": 10, "velocity": 75}, {"time": 97320, "pitch": 68, "duration": 10, "velocity": 80}, {"time": 97330, "pitch": 58, "duration": 10, "velocity": 70}, {"time": 97440, "pitch": 65, "duration": 110, "velocity": 90}, {"time": 97440, "pitch": 69, "duration": 110, "velocity": 95}, {"time": 97450, "pitch": 73, "duration": 110, "velocity": 100}, {"time": 97560, "pitch": 69, "duration": 10, "velocity": 75}, {"time": 97560, "pitch": 73, "duration": 10, "velocity": 80}, {"time": 97570, "pitch": 65, "duration": 10, "velocity": 70}, {"time": 97680, "pitch": 65, "duration": 10, "velocity": 65}, {"time": 97680, "pitch": 69, "duration": 10, "velocity": 70}, {"time": 97690, "pitch": 73, "duration": 10, "velocity": 75}, {"time": 97800, "pitch": 69, "duration": 10, "velocity": 75}, {"time": 97800, "pitch": 73, "duration": 10, "velocity": 80}, {"time": 97810, "pitch": 65, "duration": 10, "velocity": 70}, {"time": 97920, "pitch": 65, "duration": 110, "velocity": 90}, {"time": 97920, "pitch": 69, "duration": 110, "velocity": 95}, {"time": 97930, "pitch": 73, "duration": 110, "velocity": 100}, {"time": 98040, "pitch": 69, "duration": 110, "velocity": 80}, {"time": 98040, "pitch": 73, "duration": 110, "velocity": 85}, {"time": 98050, "pitch": 65, "duration": 110, "velocity": 75}, {"time": 98160, "pitch": 64, "duration": 10, "velocity": 70}, {"time": 98160, "pitch": 69, "duration": 10, "velocity": 75}, {"time": 98170, "pitch": 73, "duration": 10, "velocity": 80}, {"time": 98280, "pitch": 69, "duration": 10, "velocity": 80}, {"time": 98280, "pitch": 73, "duration": 10, "velocity": 85}, {"time": 98290, "pitch": 64, "duration": 10, "velocity": 75}, {"time": 98400, "pitch": 64, "duration": 10, "velocity": 70}, {"time": 98400, "pitch": 69, "duration": 10, "velocity": 75}, {"time": 98410, "pitch": 73, "duration": 10, "velocity": 80}, {"time": 98520, "pitch": 69, "duration": 10, "velocity": 90}, {"time": 98520, "pitch": 73, "duration": 10, "velocity": 95}, {"time": 98530, "pitch": 64, "duration": 10, "velocity": 85}, {"time": 98640, "pitch": 64, "duration": 10, "velocity": 70}, {"time": 98640, "pitch": 69, "duration": 10, "velocity": 75}, {"time": 98650, "pitch": 73, "duration": 10, "velocity": 80}, {"time": 98760, "pitch": 69, "duration": 10, "velocity": 80}, {"time": 98760, "pitch": 73, "duration": 10, "velocity": 85}, {"time": 98770, "pitch": 64, "duration": 10, "velocity": 75}, {"time": 98880, "pitch": 64, "duration": 10, "velocity": 85}, {"time": 98880, "pitch": 69, "duration": 10, "velocity": 90}, {"time": 98890, "pitch": 73, "duration": 10, "velocity": 95}, {"time": 99000, "pitch": 69, "duration": 10, "velocity": 80}, {"time": 99000, "pitch": 73, "duration": 10, "velocity": 85}, {"time": 99010, "pitch": 64, "duration": 10, "velocity": 75}, {"time": 99120, "pitch": 64, "duration": 110, "velocity": 80}, {"time": 99120, "pitch": 69, "duration": 110, "velocity": 85}, {"time": 99130, "pitch": 73, "duration": 110, "velocity": 90}, {"time": 99240, "pitch": 69, "duration": 110, "velocity": 90}, {"time": 99240, "pitch": 73, "duration": 110, "velocity": 95}, {"time": 99250, "pitch": 64, "duration": 110, "velocity": 85}, {"time": 99360, "pitch": 63, "duration": 140, "velocity": 90}, {"time": 99360, "pitch": 66, "duration": 140, "velocity": 95}, {"time": 99370, "pitch": 71, "duration": 140, "velocity": 100}, {"time": 101280, "pitch": 62, "duration": 110, "velocity": 90}, {"time": 101280, "pitch": 66, "duration": 110, "velocity": 95}, {"time": 101290, "pitch": 71, "duration": 110, "velocity": 100}, {"time": 101400, "pitch": 66, "duration": 10, "velocity": 75}, {"time": 101400, "pitch": 71, "duration": 10, "velocity": 80}, {"time": 101410, "pitch": 62, "duration": 10, "velocity": 70}, {"time": 101520, "pitch": 62, "duration": 10, "velocity": 65}, {"time": 101520, "pitch": 66, "duration": 10, "velocity": 70}, {"time": 101530, "pitch": 71, "duration": 10, "velocity": 75}, {"time": 101640, "pitch": 66, "duration": 10, "velocity": 75}, {"time": 101640, "pitch": 71, "duration": 10, "velocity": 80}, {"time": 101650, "pitch": 62, "duration": 10, "velocity": 70}, {"time": 101760, "pitch": 62, "duration": 10, "velocity": 80}, {"time": 101760, "pitch": 66, "duration": 10, "velocity": 85}, {"time": 101770, "pitch": 71, "duration": 10, "velocity": 90}, {"time": 101880, "pitch": 66, "duration": 10, "velocity": 75}, {"time": 101880, "pitch": 71, "duration": 10, "velocity": 80}, {"time": 101890, "pitch": 62, "duration": 10, "velocity": 70}, {"time": 102000, "pitch": 62, "duration": 110, "velocity": 85}, {"time": 102000, "pitch": 66, "duration": 110, "velocity": 90}, {"time": 102010, "pitch": 71, "duration": 110, "velocity": 95}, {"time": 102120, "pitch": 66, "duration": 110, "velocity": 85}, {"time": 102120, "pitch": 71, "duration": 110, "velocity": 90}, {"time": 102130, "pitch": 62, "duration": 110, "velocity": 80}, {"time": 102240, "pitch": 62, "duration": 10, "velocity": 70}, {"time": 102240, "pitch": 66, "duration": 10, "velocity": 75}, {"time": 102250, "pitch": 71, "duration": 10, "velocity": 80}, {"time": 102360, "pitch": 66, "duration": 10, "velocity": 65}, {"time": 102360, "pitch": 71, "duration": 10, "velocity": 70}, {"time": 102370, "pitch": 62, "duration": 10, "velocity": 60}, {"time": 102480, "pitch": 62, "duration": 110, "velocity": 85}, {"time": 102480, "pitch": 66, "duration": 110, "velocity": 90}, {"time": 102490, "pitch": 71, "duration": 110, "velocity": 95}, {"time": 102600, "pitch": 66, "duration": 10, "velocity": 75}, {"time": 102600, "pitch": 71, "duration": 10, "velocity": 80}, {"time": 102610, "pitch": 62, "duration": 10, "velocity": 70}, {"time": 102720, "pitch": 62, "duration": 10, "velocity": 70}, {"time": 102720, "pitch": 66, "duration": 10, "velocity": 75}, {"time": 102730, "pitch": 71, "duration": 10, "velocity": 80}, {"time": 102840, "pitch": 66, "duration": 110, "velocity": 95}, {"time": 102840, "pitch": 71, "duration": 110, "velocity": 100}, {"time": 102850, "pitch": 62, "duration": 110, "velocity": 90}, {"time": 102960, "pitch": 62, "duration": 10, "velocity": 65}, {"time": 102960, "pitch": 66, "duration": 10, "velocity": 70}, {"time": 102970, "pitch": 71, "duration": 10, "velocity": 75}, {"time": 103080, "pitch": 66, "duration": 10, "velocity": 75}, {"time": 103080, "pitch": 71, "duration": 10, "velocity": 80}, {"time": 103090, "pitch": 62, "duration": 10, "velocity": 70}, {"time": 103200, "pitch": 62, "duration": 10, "velocity": 70}, {"time": 103200, "pitch": 66, "duration": 10, "velocity": 75}, {"time": 103210, "pitch": 71, "duration": 10, "velocity": 80}, {"time": 103320, "pitch": 66, "duration": 110, "velocity": 95}, {"time": 103320, "pitch": 71, "duration": 110, "velocity": 100}, {"time": 103330, "pitch": 62, "duration": 110, "velocity": 90}, {"time": 103440, "pitch": 62, "duration": 10, "velocity": 65}, {"time": 103440, "pitch": 66, "duration": 10, "velocity": 70}, {"time": 103450, "pitch": 71, "duration": 10, "velocity": 75}, {"time": 103560, "pitch": 66, "duration": 10, "velocity": 75}, {"time": 103560, "pitch": 71, "duration": 10, "velocity": 80}, {"time": 103570, "pitch": 62, "duration": 10, "velocity": 70}, {"time": 103680, "pitch": 62, "duration": 110, "velocity": 90}, {"time": 103680, "pitch": 66, "duration": 110, "velocity": 95}, {"time": 103690, "pitch": 71, "duration": 110, "velocity": 100}, {"time": 103800, "pitch": 66, "duration": 110, "velocity": 85}, {"time": 103800, "pitch": 71, "duration": 110, "velocity": 90}, {"time": 103810, "pitch": 62, "duration": 110, "velocity": 80}, {"time": 103920, "pitch": 62, "duration": 10, "velocity": 75}, {"time": 103920, "pitch": 66, "duration": 10, "velocity": 80}, {"time": 103930, "pitch": 71, "duration": 10, "velocity": 85}, {"time": 104040, "pitch": 66, "duration": 10, "velocity": 85}, {"time": 104040, "pitch": 71, "duration": 10, "velocity": 90}, {"time": 104050, "pitch": 62, "duration": 10, "velocity": 80}, {"time": 104160, "pitch": 62, "duration": 10, "velocity": 70}, {"time": 104160, "pitch": 66, "duration": 10, "velocity": 75}, {"time": 104170, "pitch": 71, "duration": 10, "velocity": 80}, {"time": 104280, "pitch": 66, "duration": 10, "velocity": 65}, {"time": 104280, "pitch": 71, "duration": 10, "velocity": 70}, {"time": 104290, "pitch": 62, "duration": 10, "velocity": 60}, {"time": 104400, "pitch": 62, "duration": 110, "velocity": 85}, {"time": 104400, "pitch": 66, "duration": 110, "velocity": 90}, {"time": 104410, "pitch": 71, "duration": 110, "velocity": 95}, {"time": 104520, "pitch": 66, "duration": 10, "velocity": 75}, {"time": 104520, "pitch": 71, "duration": 10, "velocity": 80}, {"time": 104530, "pitch": 62, "duration": 10, "velocity": 70}, {"time": 104640, "pitch": 62, "duration": 10, "velocity": 70}, {"time": 104640, "pitch": 66, "duration": 10, "velocity": 75}, {"time": 104650, "pitch": 71, "duration": 10, "velocity": 80}, {"time": 104760, "pitch": 66, "duration": 110, "velocity": 95}, {"time": 104760, "pitch": 71, "duration": 110, "velocity": 100}, {"time": 104770, "pitch": 62, "duration": 110, "velocity": 90}, {"time": 104880, "pitch": 62, "duration": 10, "velocity": 65}, {"time": 104880, "pitch": 66, "duration": 10, "velocity": 70}, {"time": 104890, "pitch": 71, "duration": 10, "velocity": 75}, {"time": 105000, "pitch": 66, "duration": 10, "velocity": 75}, {"time": 105000, "pitch": 71, "duration": 10, "velocity": 80}, {"time": 105010, "pitch": 62, "duration": 10, "velocity": 70}, {"time": 105120, "pitch": 61, "duration": 10, "velocity": 80}, {"time": 105120, "pitch": 67, "duration": 10, "velocity": 85}, {"time": 105130, "pitch": 71, "duration": 10, "velocity": 90}, {"time": 105240, "pitch": 67, "duration": 10, "velocity": 75}, {"time": 105240, "pitch": 71, "duration": 10, "velocity": 80}, {"time": 105250, "pitch": 61, "duration": 10, "velocity": 70}, {"time": 105360, "pitch": 61, "duration": 110, "velocity": 85}, {"time": 105360, "pitch": 67, "duration": 110, "velocity": 90}, {"time": 105370, "pitch": 71, "duration": 110, "velocity": 95}, {"time": 105480, "pitch": 67, "duration": 110, "velocity": 95}, {"time": 105480, "pitch": 71, "duration": 110, "velocity": 100}, {"time": 105490, "pitch": 61, "duration": 110, "velocity": 90}, {"time": 105600, "pitch": 61, "duration": 10, "velocity": 80}, {"time": 105600, "pitch": 67, "duration": 10, "velocity": 85}, {"time": 105610, "pitch": 71, "duration": 10, "velocity": 90}, {"time": 105720, "pitch": 67, "duration": 10, "velocity": 75}, {"time": 105720, "pitch": 71, "duration": 10, "velocity": 80}, {"time": 105730, "pitch": 61, "duration": 10, "velocity": 70}, {"time": 105840, "pitch": 61, "duration": 110, "velocity": 85}, {"time": 105840, "pitch": 67, "duration": 110, "velocity": 90}, {"time": 105850, "pitch": 71, "duration": 110, "velocity": 95}, {"time": 105960, "pitch": 67, "duration": 110, "velocity": 85}, {"time": 105960, "pitch": 71, "duration": 110, "velocity": 90}, {"time": 105970, "pitch": 61, "duration": 110, "velocity": 80}, {"time": 106080, "pitch": 61, "duration": 10, "velocity": 70}, {"time": 106080, "pitch": 67, "duration": 10, "velocity": 75}, {"time": 106090, "pitch": 71, "duration": 10, "velocity": 80}, {"time": 106200, "pitch": 67, "duration": 10, "velocity": 65}, {"time": 106200, "pitch": 71, "duration": 10, "velocity": 70}, {"time": 106210, "pitch": 61, "duration": 10, "velocity": 60}, {"time": 106320, "pitch": 61, "duration": 110, "velocity": 85}, {"time": 106320, "pitch": 67, "duration": 110, "velocity": 90}, {"time": 106330, "pitch": 71, "duration": 110, "velocity": 95}, {"time": 106440, "pitch": 67, "duration": 10, "velocity": 75}, {"time": 106440, "pitch": 71, "duration": 10, "velocity": 80}, {"time": 106450, "pitch": 61, "duration": 10, "velocity": 70}, {"time": 106560, "pitch": 61, "duration": 10, "velocity": 70}, {"time": 106560, "pitch": 67, "duration": 10, "velocity": 75}, {"time": 106570, "pitch": 71, "duration": 10, "velocity": 80}, {"time": 106680, "pitch": 67, "duration": 110, "velocity": 95}, {"time": 106680, "pitch": 71, "duration": 110, "velocity": 100}, {"time": 106690, "pitch": 61, "duration": 110, "velocity": 90}, {"time": 106800, "pitch": 61, "duration": 10, "velocity": 65}, {"time": 106800, "pitch": 67, "duration": 10, "velocity": 70}, {"time": 106810, "pitch": 71, "duration": 10, "velocity": 75}, {"time": 106920, "pitch": 67, "duration": 10, "velocity": 75}, {"time": 106920, "pitch": 71, "duration": 10, "velocity": 80}, {"time": 106930, "pitch": 61, "duration": 10, "velocity": 70}, {"time": 107040, "pitch": 61, "duration": 10, "velocity": 80}, {"time": 107040, "pitch": 67, "duration": 10, "velocity": 85}, {"time": 107050, "pitch": 71, "duration": 10, "velocity": 90}, {"time": 107160, "pitch": 67, "duration": 10, "velocity": 75}, {"time": 107160, "pitch": 71, "duration": 10, "velocity": 80}, {"time": 107170, "pitch": 61, "duration": 10, "velocity": 70}, {"time": 107280, "pitch": 61, "duration": 110, "velocity": 85}, {"time": 107280, "pitch": 67, "duration": 110, "velocity": 90}, {"time": 107290, "pitch": 71, "duration": 110, "velocity": 95}, {"time": 107400, "pitch": 67, "duration": 110, "velocity": 95}, {"time": 107400, "pitch": 71, "duration": 110, "velocity": 100}, {"time": 107410, "pitch": 61, "duration": 110, "velocity": 90}, {"time": 107520, "pitch": 61, "duration": 10, "velocity": 80}, {"time": 107520, "pitch": 67, "duration": 10, "velocity": 85}, {"time": 107530, "pitch": 71, "duration": 10, "velocity": 90}, {"time": 107640, "pitch": 67, "duration": 10, "velocity": 75}, {"time": 107640, "pitch": 71, "duration": 10, "velocity": 80}, {"time": 107650, "pitch": 61, "duration": 10, "velocity": 70}, {"time": 107760, "pitch": 61, "duration": 110, "velocity": 85}, {"time": 107760, "pitch": 67, "duration": 110, "velocity": 90}, {"time": 107770, "pitch": 71, "duration": 110, "velocity": 95}, {"time": 107880, "pitch": 67, "duration": 110, "velocity": 85}, {"time": 107880, "pitch": 71, "duration": 110, "velocity": 90}, {"time": 107890, "pitch": 61, "duration": 110, "velocity": 80}, {"time": 108000, "pitch": 61, "duration": 10, "velocity": 70}, {"time": 108000, "pitch": 67, "duration": 10, "velocity": 75}, {"time": 108010, "pitch": 71, "duration": 10, "velocity": 80}, {"time": 108120, "pitch": 67, "duration": 10, "velocity": 65}, {"time": 108120, "pitch": 71, "duration": 10, "velocity": 70}, {"time": 108130, "pitch": 61, "duration": 10, "velocity": 60}, {"time": 108240, "pitch": 61, "duration": 110, "velocity": 85}, {"time": 108240, "pitch": 67, "duration": 110, "velocity": 90}, {"time": 108250, "pitch": 71, "duration": 110, "velocity": 95}, {"time": 108360, "pitch": 67, "duration": 10, "velocity": 75}, {"time": 108360, "pitch": 71, "duration": 10, "velocity": 80}, {"time": 108370, "pitch": 61, "duration": 10, "velocity": 70}, {"time": 108480, "pitch": 61, "duration": 10, "velocity": 70}, {"time": 108480, "pitch": 67, "duration": 10, "velocity": 75}, {"time": 108490, "pitch": 71, "duration": 10, "velocity": 80}, {"time": 108600, "pitch": 67, "duration": 10, "velocity": 65}, {"time": 108600, "pitch": 71, "duration": 10, "velocity": 70}, {"time": 108610, "pitch": 61, "duration": 10, "velocity": 60}, {"time": 108720, "pitch": 61, "duration": 110, "velocity": 80}, {"time": 108720, "pitch": 67, "duration": 110, "velocity": 85}, {"time": 108730, "pitch": 71, "duration": 110, "velocity": 90}, {"time": 108840, "pitch": 67, "duration": 110, "velocity": 90}, {"time": 108840, "pitch": 71, "duration": 110, "velocity": 95}, {"time": 108850, "pitch": 61, "duration": 110, "velocity": 85}, {"time": 108960, "pitch": 62, "duration": 110, "velocity": 90}, {"time": 108960, "pitch": 66, "duration": 110, "velocity": 95}, {"time": 108970, "pitch": 71, "duration": 110, "velocity": 100}, {"time": 109080, "pitch": 66, "duration": 10, "velocity": 75}, {"time": 109080, "pitch": 71, "duration": 10, "velocity": 80}, {"time": 109090, "pitch": 62, "duration": 10, "velocity": 70}, {"time": 109200, "pitch": 62, "duration": 10, "velocity": 65}, {"time": 109200, "pitch": 66, "duration": 10, "velocity": 70}, {"time": 109210, "pitch": 71, "duration": 10, "velocity": 75}, {"time": 109320, "pitch": 66, "duration": 10, "velocity": 75}, {"time": 109320, "pitch": 71, "duration": 10, "velocity": 80}, {"time": 109330, "pitch": 62, "duration": 10, "velocity": 70}, {"time": 109440, "pitch": 62, "duration": 10, "velocity": 80}, {"time": 109440, "pitch": 66, "duration": 10, "velocity": 85}, {"time": 109450, "pitch": 71, "duration": 10, "velocity": 90}, {"time": 109560, "pitch": 66, "duration": 10, "velocity": 75}, {"time": 109560, "pitch": 71, "duration": 10, "velocity": 80}, {"time": 109570, "pitch": 62, "duration": 10, "velocity": 70}, {"time": 109680, "pitch": 62, "duration": 110, "velocity": 85}, {"time": 109680, "pitch": 66, "duration": 110, "velocity": 90}, {"time": 109690, "pitch": 71, "duration": 110, "velocity": 95}, {"time": 109800, "pitch": 66, "duration": 110, "velocity": 85}, {"time": 109800, "pitch": 71, "duration": 110, "velocity": 90}, {"time": 109810, "pitch": 62, "duration": 110, "velocity": 80}, {"time": 109920, "pitch": 62, "duration": 10, "velocity": 70}, {"time": 109920, "pitch": 66, "duration": 10, "velocity": 75}, {"time": 109930, "pitch": 71, "duration": 10, "velocity": 80}, {"time": 110040, "pitch": 66, "duration": 10, "velocity": 65}, {"time": 110040, "pitch": 71, "duration": 10, "velocity": 70}, {"time": 110050, "pitch": 62, "duration": 10, "velocity": 60}, {"time": 110160, "pitch": 62, "duration": 110, "velocity": 85}, {"time": 110160, "pitch": 66, "duration": 110, "velocity": 90}, {"time": 110170, "pitch": 71, "duration": 110, "velocity": 95}, {"time": 110280, "pitch": 66, "duration": 10, "velocity": 75}, {"time": 110280, "pitch": 71, "duration": 10, "velocity": 80}, {"time": 110290, "pitch": 62, "duration": 10, "velocity": 70}, {"time": 110400, "pitch": 62, "duration": 10, "velocity": 70}, {"time": 110400, "pitch": 66, "duration": 10, "velocity": 75}, {"time": 110410, "pitch": 71, "duration": 10, "velocity": 80}, {"time": 110520, "pitch": 66, "duration": 110, "velocity": 95}, {"time": 110520, "pitch": 71, "duration": 110, "velocity": 100}, {"time": 110530, "pitch": 62, "duration": 110, "velocity": 90}, {"time": 110640, "pitch": 62, "duration": 10, "velocity": 65}, {"time": 110640, "pitch": 66, "duration": 10, "velocity": 70}, {"time": 110650, "pitch": 71, "duration": 10, "velocity": 75}, {"time": 110760, "pitch": 66, "duration": 10, "velocity": 75}, {"time": 110760, "pitch": 71, "duration": 10, "velocity": 80}, {"time": 110770, "pitch": 62, "duration": 10, "velocity": 70}, {"time": 110880, "pitch": 62, "duration": 10, "velocity": 70}, {"time": 110880, "pitch": 66, "duration": 10, "velocity": 75}, {"time": 110890, "pitch": 71, "duration": 10, "velocity": 80}, {"time": 111000, "pitch": 66, "duration": 110, "velocity": 95}, {"time": 111000, "pitch": 71, "duration": 110, "velocity": 100}, {"time": 111010, "pitch": 62, "duration": 110, "velocity": 90}, {"time": 111120, "pitch": 62, "duration": 10, "velocity": 65}, {"time": 111120, "pitch": 66, "duration": 10, "velocity": 70}, {"time": 111130, "pitch": 71, "duration": 10, "velocity": 75}, {"time": 111240, "pitch": 66, "duration": 10, "velocity": 75}, {"time": 111240, "pitch": 71, "duration": 10, "velocity": 80}, {"time": 111250, "pitch": 62, "duration": 10, "velocity": 70}, {"time": 111360, "pitch": 62, "duration": 110, "velocity": 90}, {"time": 111360, "pitch": 66, "duration": 110, "velocity": 95}, {"time": 111370, "pitch": 71, "duration": 110, "velocity": 100}, {"time": 111480, "pitch": 66, "duration": 110, "velocity": 85}, {"time": 111480, "pitch": 71, "duration": 110, "velocity": 90}, {"time": 111490, "pitch": 62, "duration": 110, "velocity": 80}, {"time": 111600, "pitch": 62, "duration": 10, "velocity": 75}, {"time": 111600, "pitch": 66, "duration": 10, "velocity": 80}, {"time": 111610, "pitch": 71, "duration": 10, "velocity": 85}, {"time": 111720, "pitch": 66, "duration": 10, "velocity": 85}, {"time": 111720, "pitch": 71, "duration": 10, "velocity": 90}, {"time": 111730, "pitch": 62, "duration": 10, "velocity": 80}, {"time": 111840, "pitch": 62, "duration": 10, "velocity": 70}, {"time": 111840, "pitch": 66, "duration": 10, "velocity": 75}, {"time": 111850, "pitch": 71, "duration": 10, "velocity": 80}, {"time": 111960, "pitch": 66, "duration": 10, "velocity": 65}, {"time": 111960, "pitch": 71, "duration": 10, "velocity": 70}, {"time": 111970, "pitch": 62, "duration": 10, "velocity": 60}, {"time": 112080, "pitch": 62, "duration": 110, "velocity": 85}, {"time": 112080, "pitch": 66, "duration": 110, "velocity": 90}, {"time": 112090, "pitch": 71, "duration": 110, "velocity": 95}, {"time": 112200, "pitch": 66, "duration": 10, "velocity": 75}, {"time": 112200, "pitch": 71, "duration": 10, "velocity": 80}, {"time": 112210, "pitch": 62, "duration": 10, "velocity": 70}, {"time": 112320, "pitch": 62, "duration": 10, "velocity": 70}, {"time": 112320, "pitch": 66, "duration": 10, "velocity": 75}, {"time": 112330, "pitch": 71, "duration": 10, "velocity": 80}, {"time": 112440, "pitch": 66, "duration": 110, "velocity": 95}, {"time": 112440, "pitch": 71, "duration": 110, "velocity": 100}, {"time": 112450, "pitch": 62, "duration": 110, "velocity": 90}, {"time": 112560, "pitch": 62, "duration": 10, "velocity": 65}, {"time": 112560, "pitch": 66, "duration": 10, "velocity": 70}, {"time": 112570, "pitch": 71, "duration": 10, "velocity": 75}, {"time": 112680, "pitch": 66, "duration": 10, "velocity": 75}, {"time": 112680, "pitch": 71, "duration": 10, "velocity": 80}, {"time": 112690, "pitch": 62, "duration": 10, "velocity": 70}, {"time": 112800, "pitch": 61, "duration": 10, "velocity": 80}, {"time": 112800, "pitch": 67, "duration": 10, "velocity": 85}, {"time": 112810, "pitch": 71, "duration": 10, "velocity": 90}, {"time": 112920, "pitch": 67, "duration": 10, "velocity": 75}, {"time": 112920, "pitch": 71, "duration": 10, "velocity": 80}, {"time": 112930, "pitch": 61, "duration": 10, "velocity": 70}, {"time": 113040, "pitch": 61, "duration": 110, "velocity": 85}, {"time": 113040, "pitch": 67, "duration": 110, "velocity": 90}, {"time": 113050, "pitch": 71, "duration": 110, "velocity": 95}, {"time": 113160, "pitch": 67, "duration": 110, "velocity": 95}, {"time": 113160, "pitch": 71, "duration": 110, "velocity": 100}, {"time": 113170, "pitch": 61, "duration": 110, "velocity": 90}, {"time": 113280, "pitch": 61, "duration": 10, "velocity": 80}, {"time": 113280, "pitch": 67, "duration": 10, "velocity": 85}, {"time": 113290, "pitch": 71, "duration": 10, "velocity": 90}, {"time": 113400, "pitch": 67, "duration": 10, "velocity": 75}, {"time": 113400, "pitch": 71, "duration": 10, "velocity": 80}, {"time": 113410, "pitch": 61, "duration": 10, "velocity": 70}, {"time": 113520, "pitch": 61, "duration": 110, "velocity": 85}, {"time": 113520, "pitch": 67, "duration": 110, "velocity": 90}, {"time": 113530, "pitch": 71, "duration": 110, "velocity": 95}, {"time": 113640, "pitch": 67, "duration": 110, "velocity": 85}, {"time": 113640, "pitch": 71, "duration": 110, "velocity": 90}, {"time": 113650, "pitch": 61, "duration": 110, "velocity": 80}, {"time": 113760, "pitch": 61, "duration": 10, "velocity": 70}, {"time": 113760, "pitch": 67, "duration": 10, "velocity": 75}, {"time": 113770, "pitch": 71, "duration": 10, "velocity": 80}, {"time": 113880, "pitch": 67, "duration": 10, "velocity": 65}, {"time": 113880, "pitch": 71, "duration": 10, "velocity": 70}, {"time": 113890, "pitch": 61, "duration": 10, "velocity": 60}, {"time": 114000, "pitch": 61, "duration": 110, "velocity": 85}, {"time": 114000, "pitch": 67, "duration": 110, "velocity": 90}, {"time": 114010, "pitch": 71, "duration": 110, "velocity": 95}, {"time": 114120, "pitch": 67, "duration": 10, "velocity": 75}, {"time": 114120, "pitch": 71, "duration": 10, "velocity": 80}, {"time": 114130, "pitch": 61, "duration": 10, "velocity": 70}, {"time": 114240, "pitch": 61, "duration": 10, "velocity": 70}, {"time": 114240, "pitch": 67, "duration": 10, "velocity": 75}, {"time": 114250, "pitch": 71, "duration": 10, "velocity": 80}, {"time": 114360, "pitch": 67, "duration": 110, "velocity": 95}, {"time": 114360, "pitch": 71, "duration": 110, "velocity": 100}, {"time": 114370, "pitch": 61, "duration": 110, "velocity": 90}, {"time": 114480, "pitch": 61, "duration": 10, "velocity": 65}, {"time": 114480, "pitch": 67, "duration": 10, "velocity": 70}, {"time": 114490, "pitch": 71, "duration": 10, "velocity": 75}, {"time": 114600, "pitch": 67, "duration": 10, "velocity": 75}, {"time": 114600, "pitch": 71, "duration": 10, "velocity": 80}, {"time": 114610, "pitch": 61, "duration": 10, "velocity": 70}, {"time": 114720, "pitch": 61, "duration": 10, "velocity": 80}, {"time": 114720, "pitch": 67, "duration": 10, "velocity": 85}, {"time": 114730, "pitch": 71, "duration": 10, "velocity": 90}, {"time": 114840, "pitch": 67, "duration": 10, "velocity": 75}, {"time": 114840, "pitch": 71, "duration": 10, "velocity": 80}, {"time": 114850, "pitch": 61, "duration": 10, "velocity": 70}, {"time": 114960, "pitch": 61, "duration": 110, "velocity": 85}, {"time": 114960, "pitch": 67, "duration": 110, "velocity": 90}, {"time": 114970, "pitch": 71, "duration": 110, "velocity": 95}, {"time": 115080, "pitch": 67, "duration": 110, "velocity": 95}, {"time": 115080, "pitch": 71, "duration": 110, "velocity": 100}, {"time": 115090, "pitch": 61, "duration": 110, "velocity": 90}, {"time": 115200, "pitch": 61, "duration": 10, "velocity": 80}, {"time": 115200, "pitch": 67, "duration": 10, "velocity": 85}, {"time": 115210, "pitch": 71, "duration": 10, "velocity": 90}, {"time": 115320, "pitch": 67, "duration": 10, "velocity": 75}, {"time": 115320, "pitch": 71, "duration": 10, "velocity": 80}, {"time": 115330, "pitch": 61, "duration": 10, "velocity": 70}, {"time": 115440, "pitch": 61, "duration": 110, "velocity": 85}, {"time": 115440, "pitch": 67, "duration": 110, "velocity": 90}, {"time": 115450, "pitch": 71, "duration": 110, "velocity": 95}, {"time": 115560, "pitch": 67, "duration": 110, "velocity": 85}, {"time": 115560, "pitch": 71, "duration": 110, "velocity": 90}, {"time": 115570, "pitch": 61, "duration": 110, "velocity": 80}, {"time": 115680, "pitch": 61, "duration": 10, "velocity": 70}, {"time": 115680, "pitch": 67, "duration": 10, "velocity": 75}, {"time": 115690, "pitch": 71, "duration": 10, "velocity": 80}, {"time": 115800, "pitch": 67, "duration": 10, "velocity": 65}, {"time": 115800, "pitch": 71, "duration": 10, "velocity": 70}, {"time": 115810, "pitch": 61, "duration": 10, "velocity": 60}, {"time": 115920, "pitch": 61, "duration": 110, "velocity": 85}, {"time": 115920, "pitch": 67, "duration": 110, "velocity": 90}, {"time": 115930, "pitch": 71, "duration": 110, "velocity": 95}, {"time": 116040, "pitch": 67, "duration": 10, "velocity": 75}, {"time": 116040, "pitch": 71, "duration": 10, "velocity": 80}, {"time": 116050, "pitch": 61, "duration": 10, "velocity": 70}, {"time": 116160, "pitch": 61, "duration": 10, "velocity": 70}, {"time": 116160, "pitch": 67, "duration": 10, "velocity": 75}, {"time": 116170, "pitch": 71, "duration": 10, "velocity": 80}, {"time": 116280, "pitch": 67, "duration": 10, "velocity": 65}, {"time": 116280, "pitch": 71, "duration": 10, "velocity": 70}, {"time": 116290, "pitch": 61, "duration": 10, "velocity": 60}, {"time": 116400, "pitch": 61, "duration": 110, "velocity": 80}, {"time": 116400, "pitch": 67, "duration": 110, "velocity": 85}, {"time": 116410, "pitch": 71, "duration": 110, "velocity": 90}, {"time": 116520, "pitch": 67, "duration": 110, "velocity": 90}, {"time": 116520, "pitch": 71, "duration": 110, "velocity": 95}, {"time": 116530, "pitch": 61, "duration": 110, "velocity": 85}, {"time": 116640, "pitch": 62, "duration": 10, "velocity": 80}, {"time": 116640, "pitch": 66, "duration": 10, "velocity": 85}, {"time": 116650, "pitch": 69, "duration": 10, "velocity": 90}, {"time": 116760, "pitch": 66, "duration": 10, "velocity": 75}, {"time": 116760, "pitch": 69, "duration": 10, "velocity": 80}, {"time": 116770, "pitch": 62, "duration": 10, "velocity": 70}, {"time": 116880, "pitch": 62, "duration": 110, "velocity": 90}, {"time": 116880, "pitch": 66, "duration": 110, "velocity": 95}, {"time": 116890, "pitch": 69, "duration": 110, "velocity": 100}, {"time": 117000, "pitch": 66, "duration": 10, "velocity": 65}, {"time": 117000, "pitch": 69, "duration": 10, "velocity": 70}, {"time": 117010, "pitch": 62, "duration": 10, "velocity": 60}, {"time": 117120, "pitch": 62, "duration": 10, "velocity": 70}, {"time": 117120, "pitch": 66, "duration": 10, "velocity": 75}, {"time": 117130, "pitch": 69, "duration": 10, "velocity": 80}, {"time": 117240, "pitch": 66, "duration": 110, "velocity": 95}, {"time": 117240, "pitch": 69, "duration": 110, "velocity": 100}, {"time": 117250, "pitch": 62, "duration": 110, "velocity": 90}, {"time": 117360, "pitch": 62, "duration": 10, "velocity": 65}, {"time": 117360, "pitch": 66, "duration": 10, "velocity": 70}, {"time": 117370, "pitch": 69, "duration": 10, "velocity": 75}, {"time": 117480, "pitch": 66, "duration": 10, "velocity": 85}, {"time": 117480, "pitch": 69, "duration": 10, "velocity": 90}, {"time": 117490, "pitch": 62, "duration": 10, "velocity": 80}, {"time": 117600, "pitch": 62, "duration": 110, "velocity": 90}, {"time": 117600, "pitch": 66, "duration": 110, "velocity": 95}, {"time": 117610, "pitch": 69, "duration": 110, "velocity": 100}, {"time": 117720, "pitch": 66, "duration": 10, "velocity": 55}, {"time": 117720, "pitch": 69, "duration": 10, "velocity": 60}, {"time": 117730, "pitch": 62, "duration": 10, "velocity": 50}, {"time": 117840, "pitch": 62, "duration": 10, "velocity": 65}, {"time": 117840, "pitch": 66, "duration": 10, "velocity": 70}, {"time": 117850, "pitch": 69, "duration": 10, "velocity": 75}, {"time": 117960, "pitch": 66, "duration": 110, "velocity": 90}, {"time": 117960, "pitch": 69, "duration": 110, "velocity": 95}, {"time": 117970, "pitch": 62, "duration": 110, "velocity": 85}, {"time": 118080, "pitch": 62, "duration": 10, "velocity": 70}, {"time": 118080, "pitch": 66, "duration": 10, "velocity": 75}, {"time": 118090, "pitch": 69, "duration": 10, "velocity": 80}, {"time": 118200, "pitch": 66, "duration": 10, "velocity": 65}, {"time": 118200, "pitch": 69, "duration": 10, "velocity": 70}, {"time": 118210, "pitch": 62, "duration": 10, "velocity": 60}, {"time": 118320, "pitch": 62, "duration": 110, "velocity": 85}, {"time": 118320, "pitch": 66, "duration": 110, "velocity": 90}, {"time": 118330, "pitch": 69, "duration": 110, "velocity": 95}, {"time": 118440, "pitch": 66, "duration": 110, "velocity": 80}, {"time": 118440, "pitch": 69, "duration": 110, "velocity": 85}, {"time": 118450, "pitch": 62, "duration": 110, "velocity": 75}, {"time": 118560, "pitch": 62, "duration": 10, "velocity": 80}, {"time": 118560, "pitch": 66, "duration": 10, "velocity": 85}, {"time": 118570, "pitch": 69, "duration": 10, "velocity": 90}, {"time": 118680, "pitch": 66, "duration": 10, "velocity": 75}, {"time": 118680, "pitch": 69, "duration": 10, "velocity": 80}, {"time": 118690, "pitch": 62, "duration": 10, "velocity": 70}, {"time": 118800, "pitch": 62, "duration": 110, "velocity": 90}, {"time": 118800, "pitch": 66, "duration": 110, "velocity": 95}, {"time": 118810, "pitch": 69, "duration": 110, "velocity": 100}, {"time": 118920, "pitch": 66, "duration": 10, "velocity": 65}, {"time": 118920, "pitch": 69, "duration": 10, "velocity": 70}, {"time": 118930, "pitch": 62, "duration": 10, "velocity": 60}, {"time": 119040, "pitch": 62, "duration": 10, "velocity": 70}, {"time": 119040, "pitch": 66, "duration": 10, "velocity": 75}, {"time": 119050, "pitch": 69, "duration": 10, "velocity": 80}, {"time": 119160, "pitch": 66, "duration": 110, "velocity": 95}, {"time": 119160, "pitch": 69, "duration": 110, "velocity": 100}, {"time": 119170, "pitch": 62, "duration": 110, "velocity": 90}, {"time": 119280, "pitch": 62, "duration": 10, "velocity": 65}, {"time": 119280, "pitch": 66, "duration": 10, "velocity": 70}, {"time": 119290, "pitch": 69, "duration": 10, "velocity": 75}, {"time": 119400, "pitch": 66, "duration": 10, "velocity": 85}, {"time": 119400, "pitch": 69, "duration": 10, "velocity": 90}, {"time": 119410, "pitch": 62, "duration": 10, "velocity": 80}, {"time": 119520, "pitch": 62, "duration": 110, "velocity": 90}, {"time": 119520, "pitch": 66, "duration": 110, "velocity": 95}, {"time": 119530, "pitch": 69, "duration": 110, "velocity": 100}, {"time": 119640, "pitch": 66, "duration": 10, "velocity": 55}, {"time": 119640, "pitch": 69, "duration": 10, "velocity": 60}, {"time": 119650, "pitch": 62, "duration": 10, "velocity": 50}, {"time": 119760, "pitch": 62, "duration": 10, "velocity": 65}, {"time": 119760, "pitch": 66, "duration": 10, "velocity": 70}, {"time": 119770, "pitch": 69, "duration": 10, "velocity": 75}, {"time": 119880, "pitch": 66, "duration": 110, "velocity": 90}, {"time": 119880, "pitch": 69, "duration": 110, "velocity": 95}, {"time": 119890, "pitch": 62, "duration": 110, "velocity": 85}, {"time": 120000, "pitch": 62, "duration": 10, "velocity": 70}, {"time": 120000, "pitch": 66, "duration": 10, "velocity": 75}, {"time": 120010, "pitch": 69, "duration": 10, "velocity": 80}, {"time": 120120, "pitch": 66, "duration": 10, "velocity": 65}, {"time": 120120, "pitch": 69, "duration": 10, "velocity": 70}, {"time": 120130, "pitch": 62, "duration": 10, "velocity": 60}, {"time": 120240, "pitch": 62, "duration": 110, "velocity": 85}, {"time": 120240, "pitch": 66, "duration": 110, "velocity": 90}, {"time": 120250, "pitch": 69, "duration": 110, "velocity": 95}, {"time": 120360, "pitch": 66, "duration": 110, "velocity": 80}, {"time": 120360, "pitch": 69, "duration": 110, "velocity": 85}, {"time": 120370, "pitch": 62, "duration": 110, "velocity": 75}, {"time": 120480, "pitch": 62, "duration": 10, "velocity": 80}, {"time": 120480, "pitch": 66, "duration": 10, "velocity": 85}, {"time": 120490, "pitch": 71, "duration": 10, "velocity": 90}, {"time": 120600, "pitch": 66, "duration": 10, "velocity": 75}, {"time": 120600, "pitch": 71, "duration": 10, "velocity": 80}, {"time": 120610, "pitch": 62, "duration": 10, "velocity": 70}, {"time": 120720, "pitch": 62, "duration": 110, "velocity": 90}, {"time": 120720, "pitch": 66, "duration": 110, "velocity": 95}, {"time": 120730, "pitch": 71, "duration": 110, "velocity": 100}, {"time": 120840, "pitch": 66, "duration": 10, "velocity": 65}, {"time": 120840, "pitch": 71, "duration": 10, "velocity": 70}, {"time": 120850, "pitch": 62, "duration": 10, "velocity": 60}, {"time": 120960, "pitch": 62, "duration": 10, "velocity": 70}, {"time": 120960, "pitch": 66, "duration": 10, "velocity": 75}, {"time": 120970, "pitch": 71, "duration": 10, "velocity": 80}, {"time": 121080, "pitch": 66, "duration": 110, "velocity": 95}, {"time": 121080, "pitch": 71, "duration": 110, "velocity": 100}, {"time": 121090, "pitch": 62, "duration": 110, "velocity": 90}, {"time": 121200, "pitch": 62, "duration": 10, "velocity": 65}, {"time": 121200, "pitch": 66, "duration": 10, "velocity": 70}, {"time": 121210, "pitch": 71, "duration": 10, "velocity": 75}, {"time": 121320, "pitch": 66, "duration": 10, "velocity": 85}, {"time": 121320, "pitch": 71, "duration": 10, "velocity": 90}, {"time": 121330, "pitch": 62, "duration": 10, "velocity": 80}, {"time": 121440, "pitch": 62, "duration": 110, "velocity": 90}, {"time": 121440, "pitch": 66, "duration": 110, "velocity": 95}, {"time": 121450, "pitch": 71, "duration": 110, "velocity": 100}, {"time": 121560, "pitch": 66, "duration": 10, "velocity": 55}, {"time": 121560, "pitch": 71, "duration": 10, "velocity": 60}, {"time": 121570, "pitch": 62, "duration": 10, "velocity": 50}, {"time": 121680, "pitch": 62, "duration": 10, "velocity": 65}, {"time": 121680, "pitch": 66, "duration": 10, "velocity": 70}, {"time": 121690, "pitch": 71, "duration": 10, "velocity": 75}, {"time": 121800, "pitch": 66, "duration": 110, "velocity": 90}, {"time": 121800, "pitch": 71, "duration": 110, "velocity": 95}, {"time": 121810, "pitch": 62, "duration": 110, "velocity": 85}, {"time": 121920, "pitch": 62, "duration": 10, "velocity": 70}, {"time": 121920, "pitch": 66, "duration": 10, "velocity": 75}, {"time": 121930, "pitch": 71, "duration": 10, "velocity": 80}, {"time": 122040, "pitch": 66, "duration": 10, "velocity": 65}, {"time": 122040, "pitch": 71, "duration": 10, "velocity": 70}, {"time": 122050, "pitch": 62, "duration": 10, "velocity": 60}, {"time": 122160, "pitch": 62, "duration": 110, "velocity": 85}, {"time": 122160, "pitch": 66, "duration": 110, "velocity": 90}, {"time": 122170, "pitch": 71, "duration": 110, "velocity": 95}, {"time": 122280, "pitch": 66, "duration": 110, "velocity": 80}, {"time": 122280, "pitch": 71, "duration": 110, "velocity": 85}, {"time": 122290, "pitch": 62, "duration": 110, "velocity": 75}, {"time": 122400, "pitch": 62, "duration": 10, "velocity": 80}, {"time": 122400, "pitch": 66, "duration": 10, "velocity": 85}, {"time": 122410, "pitch": 71, "duration": 10, "velocity": 90}, {"time": 122520, "pitch": 66, "duration": 10, "velocity": 75}, {"time": 122520, "pitch": 71, "duration": 10, "velocity": 80}, {"time": 122530, "pitch": 62, "duration": 10, "velocity": 70}, {"time": 122640, "pitch": 62, "duration": 110, "velocity": 90}, {"time": 122640, "pitch": 66, "duration": 110, "velocity": 95}, {"time": 122650, "pitch": 71, "duration": 110, "velocity": 100}, {"time": 122760, "pitch": 66, "duration": 10, "velocity": 65}, {"time": 122760, "pitch": 71, "duration": 10, "velocity": 70}, {"time": 122770, "pitch": 62, "duration": 10, "velocity": 60}, {"time": 122880, "pitch": 62, "duration": 10, "velocity": 70}, {"time": 122880, "pitch": 66, "duration": 10, "velocity": 75}, {"time": 122890, "pitch": 71, "duration": 10, "velocity": 80}, {"time": 123000, "pitch": 66, "duration": 110, "velocity": 95}, {"time": 123000, "pitch": 71, "duration": 110, "velocity": 100}, {"time": 123010, "pitch": 62, "duration": 110, "velocity": 90}, {"time": 123120, "pitch": 62, "duration": 10, "velocity": 65}, {"time": 123120, "pitch": 66, "duration": 10, "velocity": 70}, {"time": 123130, "pitch": 71, "duration": 10, "velocity": 75}, {"time": 123240, "pitch": 66, "duration": 10, "velocity": 85}, {"time": 123240, "pitch": 71, "duration": 10, "velocity": 90}, {"time": 123250, "pitch": 62, "duration": 10, "velocity": 80}, {"time": 123360, "pitch": 62, "duration": 110, "velocity": 90}, {"time": 123360, "pitch": 66, "duration": 110, "velocity": 95}, {"time": 123370, "pitch": 71, "duration": 110, "velocity": 100}, {"time": 123480, "pitch": 66, "duration": 10, "velocity": 55}, {"time": 123480, "pitch": 71, "duration": 10, "velocity": 60}, {"time": 123490, "pitch": 62, "duration": 10, "velocity": 50}, {"time": 123600, "pitch": 62, "duration": 10, "velocity": 65}, {"time": 123600, "pitch": 66, "duration": 10, "velocity": 70}, {"time": 123610, "pitch": 71, "duration": 10, "velocity": 75}, {"time": 123720, "pitch": 66, "duration": 110, "velocity": 90}, {"time": 123720, "pitch": 71, "duration": 110, "velocity": 95}, {"time": 123730, "pitch": 62, "duration": 110, "velocity": 85}, {"time": 123840, "pitch": 62, "duration": 10, "velocity": 70}, {"time": 123840, "pitch": 66, "duration": 10, "velocity": 75}, {"time": 123850, "pitch": 71, "duration": 10, "velocity": 80}, {"time": 123960, "pitch": 66, "duration": 10, "velocity": 65}, {"time": 123960, "pitch": 71, "duration": 10, "velocity": 70}, {"time": 123970, "pitch": 62, "duration": 10, "velocity": 60}, {"time": 124080, "pitch": 62, "duration": 110, "velocity": 85}, {"time": 124080, "pitch": 66, "duration": 110, "velocity": 90}, {"time": 124090, "pitch": 71, "duration": 110, "velocity": 95}, {"time": 124200, "pitch": 66, "duration": 110, "velocity": 80}, {"time": 124200, "pitch": 71, "duration": 110, "velocity": 85}, {"time": 124210, "pitch": 62, "duration": 110, "velocity": 75}, {"time": 124320, "pitch": 62, "duration": 10, "velocity": 80}, {"time": 124320, "pitch": 66, "duration": 10, "velocity": 85}, {"time": 124330, "pitch": 69, "duration": 10, "velocity": 90}, {"time": 124440, "pitch": 66, "duration": 10, "velocity": 75}, {"time": 124440, "pitch": 69, "duration": 10, "velocity": 80}, {"time": 124450, "pitch": 62, "duration": 10, "velocity": 70}, {"time": 124560, "pitch": 62, "duration": 110, "velocity": 90}, {"time": 124560, "pitch": 66, "duration": 110, "velocity": 95}, {"time": 124570, "pitch": 69, "duration": 110, "velocity": 100}, {"time": 124680, "pitch": 66, "duration": 10, "velocity": 65}, {"time": 124680, "pitch": 69, "duration": 10, "velocity": 70}, {"time": 124690, "pitch": 62, "duration": 10, "velocity": 60}, {"time": 124800, "pitch": 62, "duration": 10, "velocity": 70}, {"time": 124800, "pitch": 66, "duration": 10, "velocity": 75}, {"time": 124810, "pitch": 69, "duration": 10, "velocity": 80}, {"time": 124920, "pitch": 66, "duration": 110, "velocity": 95}, {"time": 124920, "pitch": 69, "duration": 110, "velocity": 100}, {"time": 124930, "pitch": 62, "duration": 110, "velocity": 90}, {"time": 125040, "pitch": 62, "duration": 10, "velocity": 65}, {"time": 125040, "pitch": 66, "duration": 10, "velocity": 70}, {"time": 125050, "pitch": 69, "duration": 10, "velocity": 75}, {"time": 125160, "pitch": 66, "duration": 10, "velocity": 85}, {"time": 125160, "pitch": 69, "duration": 10, "velocity": 90}, {"time": 125170, "pitch": 62, "duration": 10, "velocity": 80}, {"time": 125280, "pitch": 62, "duration": 110, "velocity": 90}, {"time": 125280, "pitch": 66, "duration": 110, "velocity": 95}, {"time": 125290, "pitch": 69, "duration": 110, "velocity": 100}, {"time": 125400, "pitch": 66, "duration": 10, "velocity": 55}, {"time": 125400, "pitch": 69, "duration": 10, "velocity": 60}, {"time": 125410, "pitch": 62, "duration": 10, "velocity": 50}, {"time": 125520, "pitch": 62, "duration": 10, "velocity": 65}, {"time": 125520, "pitch": 66, "duration": 10, "velocity": 70}, {"time": 125530, "pitch": 69, "duration": 10, "velocity": 75}, {"time": 125640, "pitch": 66, "duration": 110, "velocity": 90}, {"time": 125640, "pitch": 69, "duration": 110, "velocity": 95}, {"time": 125650, "pitch": 62, "duration": 110, "velocity": 85}, {"time": 125760, "pitch": 62, "duration": 10, "velocity": 70}, {"time": 125760, "pitch": 66, "duration": 10, "velocity": 75}, {"time": 125770, "pitch": 69, "duration": 10, "velocity": 80}, {"time": 125880, "pitch": 66, "duration": 10, "velocity": 65}, {"time": 125880, "pitch": 69, "duration": 10, "velocity": 70}, {"time": 125890, "pitch": 62, "duration": 10, "velocity": 60}, {"time": 126000, "pitch": 62, "duration": 110, "velocity": 85}, {"time": 126000, "pitch": 66, "duration": 110, "velocity": 90}, {"time": 126010, "pitch": 69, "duration": 110, "velocity": 95}, {"time": 126120, "pitch": 66, "duration": 110, "velocity": 80}, {"time": 126120, "pitch": 69, "duration": 110, "velocity": 85}, {"time": 126130, "pitch": 62, "duration": 110, "velocity": 75}, {"time": 126240, "pitch": 62, "duration": 10, "velocity": 80}, {"time": 126240, "pitch": 66, "duration": 10, "velocity": 85}, {"time": 126250, "pitch": 69, "duration": 10, "velocity": 90}, {"time": 126360, "pitch": 66, "duration": 10, "velocity": 75}, {"time": 126360, "pitch": 69, "duration": 10, "velocity": 80}, {"time": 126370, "pitch": 62, "duration": 10, "velocity": 70}, {"time": 126480, "pitch": 62, "duration": 110, "velocity": 90}, {"time": 126480, "pitch": 66, "duration": 110, "velocity": 95}, {"time": 126490, "pitch": 69, "duration": 110, "velocity": 100}, {"time": 126600, "pitch": 66, "duration": 10, "velocity": 65}, {"time": 126600, "pitch": 69, "duration": 10, "velocity": 70}, {"time": 126610, "pitch": 62, "duration": 10, "velocity": 60}, {"time": 126720, "pitch": 62, "duration": 10, "velocity": 70}, {"time": 126720, "pitch": 66, "duration": 10, "velocity": 75}, {"time": 126730, "pitch": 69, "duration": 10, "velocity": 80}, {"time": 126840, "pitch": 66, "duration": 110, "velocity": 95}, {"time": 126840, "pitch": 69, "duration": 110, "velocity": 100}, {"time": 126850, "pitch": 62, "duration": 110, "velocity": 90}, {"time": 126960, "pitch": 62, "duration": 10, "velocity": 65}, {"time": 126960, "pitch": 66, "duration": 10, "velocity": 70}, {"time": 126970, "pitch": 69, "duration": 10, "velocity": 75}, {"time": 127080, "pitch": 66, "duration": 10, "velocity": 85}, {"time": 127080, "pitch": 69, "duration": 10, "velocity": 90}, {"time": 127090, "pitch": 62, "duration": 10, "velocity": 80}, {"time": 127200, "pitch": 62, "duration": 110, "velocity": 90}, {"time": 127200, "pitch": 66, "duration": 110, "velocity": 95}, {"time": 127210, "pitch": 69, "duration": 110, "velocity": 100}, {"time": 127320, "pitch": 66, "duration": 10, "velocity": 55}, {"time": 127320, "pitch": 69, "duration": 10, "velocity": 60}, {"time": 127330, "pitch": 62, "duration": 10, "velocity": 50}, {"time": 127440, "pitch": 62, "duration": 10, "velocity": 65}, {"time": 127440, "pitch": 66, "duration": 10, "velocity": 70}, {"time": 127450, "pitch": 69, "duration": 10, "velocity": 75}, {"time": 127560, "pitch": 66, "duration": 110, "velocity": 90}, {"time": 127560, "pitch": 69, "duration": 110, "velocity": 95}, {"time": 127570, "pitch": 62, "duration": 110, "velocity": 85}, {"time": 127680, "pitch": 62, "duration": 10, "velocity": 70}, {"time": 127680, "pitch": 66, "duration": 10, "velocity": 75}, {"time": 127690, "pitch": 69, "duration": 10, "velocity": 80}, {"time": 127800, "pitch": 66, "duration": 10, "velocity": 65}, {"time": 127800, "pitch": 69, "duration": 10, "velocity": 70}, {"time": 127810, "pitch": 62, "duration": 10, "velocity": 60}, {"time": 127920, "pitch": 62, "duration": 110, "velocity": 85}, {"time": 127920, "pitch": 66, "duration": 110, "velocity": 90}, {"time": 127930, "pitch": 69, "duration": 110, "velocity": 95}, {"time": 128040, "pitch": 66, "duration": 110, "velocity": 80}, {"time": 128040, "pitch": 69, "duration": 110, "velocity": 85}, {"time": 128050, "pitch": 62, "duration": 110, "velocity": 75}, {"time": 128160, "pitch": 62, "duration": 10, "velocity": 80}, {"time": 128160, "pitch": 66, "duration": 10, "velocity": 85}, {"time": 128170, "pitch": 71, "duration": 10, "velocity": 90}, {"time": 128280, "pitch": 66, "duration": 10, "velocity": 75}, {"time": 128280, "pitch": 71, "duration": 10, "velocity": 80}, {"time": 128290, "pitch": 62, "duration": 10, "velocity": 70}, {"time": 128400, "pitch": 62, "duration": 110, "velocity": 90}, {"time": 128400, "pitch": 66, "duration": 110, "velocity": 95}, {"time": 128410, "pitch": 71, "duration": 110, "velocity": 100}, {"time": 128520, "pitch": 66, "duration": 10, "velocity": 65}, {"time": 128520, "pitch": 71, "duration": 10, "velocity": 70}, {"time": 128530, "pitch": 62, "duration": 10, "velocity": 60}, {"time": 128640, "pitch": 62, "duration": 10, "velocity": 70}, {"time": 128640, "pitch": 66, "duration": 10, "velocity": 75}, {"time": 128650, "pitch": 71, "duration": 10, "velocity": 80}, {"time": 128760, "pitch": 66, "duration": 110, "velocity": 95}, {"time": 128760, "pitch": 71, "duration": 110, "velocity": 100}, {"time": 128770, "pitch": 62, "duration": 110, "velocity": 90}, {"time": 128880, "pitch": 62, "duration": 10, "velocity": 65}, {"time": 128880, "pitch": 66, "duration": 10, "velocity": 70}, {"time": 128890, "pitch": 71, "duration": 10, "velocity": 75}, {"time": 129000, "pitch": 66, "duration": 10, "velocity": 85}, {"time": 129000, "pitch": 71, "duration": 10, "velocity": 90}, {"time": 129010, "pitch": 62, "duration": 10, "velocity": 80}, {"time": 129120, "pitch": 62, "duration": 110, "velocity": 90}, {"time": 129120, "pitch": 66, "duration": 110, "velocity": 95}, {"time": 129130, "pitch": 71, "duration": 110, "velocity": 100}, {"time": 129240, "pitch": 66, "duration": 10, "velocity": 55}, {"time": 129240, "pitch": 71, "duration": 10, "velocity": 60}, {"time": 129250, "pitch": 62, "duration": 10, "velocity": 50}, {"time": 129360, "pitch": 62, "duration": 10, "velocity": 65}, {"time": 129360, "pitch": 66, "duration": 10, "velocity": 70}, {"time": 129370, "pitch": 71, "duration": 10, "velocity": 75}, {"time": 129480, "pitch": 66, "duration": 110, "velocity": 90}, {"time": 129480, "pitch": 71, "duration": 110, "velocity": 95}, {"time": 129490, "pitch": 62, "duration": 110, "velocity": 85}, {"time": 129600, "pitch": 62, "duration": 10, "velocity": 70}, {"time": 129600, "pitch": 66, "duration": 10, "velocity": 75}, {"time": 129610, "pitch": 71, "duration": 10, "velocity": 80}, {"time": 129720, "pitch": 66, "duration": 10, "velocity": 65}, {"time": 129720, "pitch": 71, "duration": 10, "velocity": 70}, {"time": 129730, "pitch": 62, "duration": 10, "velocity": 60}, {"time": 129840, "pitch": 62, "duration": 110, "velocity": 85}, {"time": 129840, "pitch": 66, "duration": 110, "velocity": 90}, {"time": 129850, "pitch": 71, "duration": 110, "velocity": 95}, {"time": 129960, "pitch": 66, "duration": 110, "velocity": 80}, {"time": 129960, "pitch": 71, "duration": 110, "velocity": 85}, {"time": 129970, "pitch": 62, "duration": 110, "velocity": 75}, {"time": 130080, "pitch": 62, "duration": 10, "velocity": 80}, {"time": 130080, "pitch": 66, "duration": 10, "velocity": 85}, {"time": 130090, "pitch": 71, "duration": 10, "velocity": 90}, {"time": 130200, "pitch": 66, "duration": 10, "velocity": 75}, {"time": 130200, "pitch": 71, "duration": 10, "velocity": 80}, {"time": 130210, "pitch": 62, "duration": 10, "velocity": 70}, {"time": 135360, "pitch": 59, "duration": 710, "velocity": 90}, {"time": 135360, "pitch": 64, "duration": 710, "velocity": 95}, {"time": 135370, "pitch": 68, "duration": 710, "velocity": 100}, {"time": 136080, "pitch": 59, "duration": 10, "velocity": 80}, {"time": 136080, "pitch": 64, "duration": 10, "velocity": 85}, {"time": 136090, "pitch": 68, "duration": 10, "velocity": 90}, {"time": 136200, "pitch": 64, "duration": 10, "velocity": 75}, {"time": 136200, "pitch": 68, "duration": 10, "velocity": 80}, {"time": 136210, "pitch": 59, "duration": 10, "velocity": 70}, {"time": 136320, "pitch": 59, "duration": 110, "velocity": 90}, {"time": 136320, "pitch": 64, "duration": 110, "velocity": 95}, {"time": 136330, "pitch": 68, "duration": 110, "velocity": 100}, {"time": 136440, "pitch": 64, "duration": 10, "velocity": 75}, {"time": 136440, "pitch": 68, "duration": 10, "velocity": 80}, {"time": 136450, "pitch": 59, "duration": 10, "velocity": 70}, {"time": 136560, "pitch": 59, "duration": 10, "velocity": 60}, {"time": 136560, "pitch": 64, "duration": 10, "velocity": 65}, {"time": 136570, "pitch": 68, "duration": 10, "velocity": 70}, {"time": 136680, "pitch": 64, "duration": 110, "velocity": 90}, {"time": 136680, "pitch": 68, "duration": 110, "velocity": 95}, {"time": 136690, "pitch": 59, "duration": 110, "velocity": 85}, {"time": 136800, "pitch": 59, "duration": 10, "velocity": 70}, {"time": 136800, "pitch": 64, "duration": 10, "velocity": 75}, {"time": 136810, "pitch": 68, "duration": 10, "velocity": 80}, {"time": 136920, "pitch": 64, "duration": 10, "velocity": 65}, {"time": 136920, "pitch": 68, "duration": 10, "velocity": 70}, {"time": 136930, "pitch": 59, "duration": 10, "velocity": 60}, {"time": 137040, "pitch": 59, "duration": 10, "velocity": 70}, {"time": 137040, "pitch": 64, "duration": 10, "velocity": 75}, {"time": 137050, "pitch": 68, "duration": 10, "velocity": 80}, {"time": 137160, "pitch": 64, "duration": 10, "velocity": 85}, {"time": 137160, "pitch": 68, "duration": 10, "velocity": 90}, {"time": 137170, "pitch": 59, "duration": 10, "velocity": 80}, {"time": 137280, "pitch": 58, "duration": 100, "velocity": 90}, {"time": 137280, "pitch": 64, "duration": 100, "velocity": 95}, {"time": 137290, "pitch": 68, "duration": 100, "velocity": 100}, {"time": 137400, "pitch": 64, "duration": 10, "velocity": 65}, {"time": 137400, "pitch": 68, "duration": 10, "velocity": 70}, {"time": 137410, "pitch": 58, "duration": 10, "velocity": 60}, {"time": 137520, "pitch": 58, "duration": 100, "velocity": 85}, {"time": 137520, "pitch": 64, "duration": 100, "velocity": 90}, {"time": 137530, "pitch": 68, "duration": 100, "velocity": 95}, {"time": 137640, "pitch": 64, "duration": 10, "velocity": 65}, {"time": 137640, "pitch": 68, "duration": 10, "velocity": 70}, {"time": 137650, "pitch": 58, "duration": 10, "velocity": 60}, {"time": 137760, "pitch": 58, "duration": 100, "velocity": 90}, {"time": 137760, "pitch": 64, "duration": 100, "velocity": 95}, {"time": 137770, "pitch": 68, "duration": 100, "velocity": 100}, {"time": 137880, "pitch": 64, "duration": 10, "velocity": 65}, {"time": 137880, "pitch": 68, "duration": 10, "velocity": 70}, {"time": 137890, "pitch": 58, "duration": 10, "velocity": 60}, {"time": 138000, "pitch": 58, "duration": 10, "velocity": 70}, {"time": 138000, "pitch": 64, "duration": 10, "velocity": 75}, {"time": 138010, "pitch": 68, "duration": 10, "velocity": 80}, {"time": 138120, "pitch": 64, "duration": 10, "velocity": 85}, {"time": 138120, "pitch": 68, "duration": 10, "velocity": 90}, {"time": 138130, "pitch": 58, "duration": 10, "velocity": 80}, {"time": 138240, "pitch": 58, "duration": 100, "velocity": 90}, {"time": 138240, "pitch": 64, "duration": 100, "velocity": 95}, {"time": 138250, "pitch": 68, "duration": 100, "velocity": 100}, {"time": 138360, "pitch": 64, "duration": 10, "velocity": 65}, {"time": 138360, "pitch": 68, "duration": 10, "velocity": 70}, {"time": 138370, "pitch": 58, "duration": 10, "velocity": 60}, {"time": 138480, "pitch": 58, "duration": 100, "velocity": 85}, {"time": 138480, "pitch": 64, "duration": 100, "velocity": 90}, {"time": 138490, "pitch": 68, "duration": 100, "velocity": 95}, {"time": 138600, "pitch": 64, "duration": 10, "velocity": 65}, {"time": 138600, "pitch": 68, "duration": 10, "velocity": 70}, {"time": 138610, "pitch": 58, "duration": 10, "velocity": 60}, {"time": 138720, "pitch": 58, "duration": 100, "velocity": 90}, {"time": 138720, "pitch": 64, "duration": 100, "velocity": 95}, {"time": 138730, "pitch": 68, "duration": 100, "velocity": 100}, {"time": 138840, "pitch": 64, "duration": 10, "velocity": 65}, {"time": 138840, "pitch": 68, "duration": 10, "velocity": 70}, {"time": 138850, "pitch": 58, "duration": 10, "velocity": 60}, {"time": 138960, "pitch": 64, "duration": 10, "velocity": 70}, {"time": 138960, "pitch": 71, "duration": 10, "velocity": 75}, {"time": 138970, "pitch": 75, "duration": 10, "velocity": 80}, {"time": 139080, "pitch": 71, "duration": 110, "velocity": 90}, {"time": 139080, "pitch": 75, "duration": 110, "velocity": 95}, {"time": 139090, "pitch": 64, "duration": 110, "velocity": 85}, {"time": 139200, "pitch": 64, "duration": 240, "velocity": 90}, {"time": 139200, "pitch": 71, "duration": 240, "velocity": 95}, {"time": 139210, "pitch": 75, "duration": 240, "velocity": 100}, {"time": 139440, "pitch": 64, "duration": 110, "velocity": 70}, {"time": 139440, "pitch": 71, "duration": 110, "velocity": 75}, {"time": 139450, "pitch": 75, "duration": 110, "velocity": 80}, {"time": 139560, "pitch": 71, "duration": 110, "velocity": 85}, {"time": 139560, "pitch": 75, "duration": 110, "velocity": 90}, {"time": 139570, "pitch": 64, "duration": 110, "velocity": 80}, {"time": 139680, "pitch": 64, "duration": 110, "velocity": 90}, {"time": 139680, "pitch": 71, "duration": 110, "velocity": 95}, {"time": 139690, "pitch": 75, "duration": 110, "velocity": 100}, {"time": 139800, "pitch": 71, "duration": 110, "velocity": 85}, {"time": 139800, "pitch": 75, "duration": 110, "velocity": 90}, {"time": 139810, "pitch": 64, "duration": 110, "velocity": 80}, {"time": 139920, "pitch": 64, "duration": 10, "velocity": 60}, {"time": 139920, "pitch": 71, "duration": 10, "velocity": 65}, {"time": 139930, "pitch": 75, "duration": 10, "velocity": 70}, {"time": 140040, "pitch": 71, "duration": 10, "velocity": 75}, {"time": 140040, "pitch": 75, "duration": 10, "velocity": 80}, {"time": 140050, "pitch": 64, "duration": 10, "velocity": 70}, {"time": 140160, "pitch": 64, "duration": 110, "velocity": 90}, {"time": 140160, "pitch": 71, "duration": 110, "velocity": 95}, {"time": 140170, "pitch": 75, "duration": 110, "velocity": 100}, {"time": 140280, "pitch": 71, "duration": 110, "velocity": 85}, {"time": 140280, "pitch": 75, "duration": 110, "velocity": 90}, {"time": 140290, "pitch": 64, "duration": 110, "velocity": 80}, {"time": 140400, "pitch": 64, "duration": 10, "velocity": 60}, {"time": 140400, "pitch": 71, "duration": 10, "velocity": 65}, {"time": 140410, "pitch": 75, "duration": 10, "velocity": 70}, {"time": 140520, "pitch": 71, "duration": 10, "velocity": 75}, {"time": 140520, "pitch": 75, "duration": 10, "velocity": 80}, {"time": 140530, "pitch": 64, "duration": 10, "velocity": 70}, {"time": 140640, "pitch": 64, "duration": 10, "velocity": 80}, {"time": 140640, "pitch": 71, "duration": 10, "velocity": 85}, {"time": 140650, "pitch": 75, "duration": 10, "velocity": 90}, {"time": 140760, "pitch": 71, "duration": 10, "velocity": 75}, {"time": 140760, "pitch": 75, "duration": 10, "velocity": 80}, {"time": 140770, "pitch": 64, "duration": 10, "velocity": 70}, {"time": 140880, "pitch": 64, "duration": 10, "velocity": 60}, {"time": 140880, "pitch": 71, "duration": 10, "velocity": 65}, {"time": 140890, "pitch": 75, "duration": 10, "velocity": 70}, {"time": 141000, "pitch": 71, "duration": 10, "velocity": 75}, {"time": 141000, "pitch": 75, "duration": 10, "velocity": 80}, {"time": 141010, "pitch": 64, "duration": 10, "velocity": 70}, {"time": 141120, "pitch": 58, "duration": 110, "velocity": 90}, {"time": 141120, "pitch": 64, "duration": 110, "velocity": 95}, {"time": 141130, "pitch": 68, "duration": 110, "velocity": 100}, {"time": 141240, "pitch": 64, "duration": 10, "velocity": 65}, {"time": 141240, "pitch": 68, "duration": 10, "velocity": 70}, {"time": 141250, "pitch": 58, "duration": 10, "velocity": 60}, {"time": 141360, "pitch": 58, "duration": 10, "velocity": 65}, {"time": 141360, "pitch": 64, "duration": 10, "velocity": 70}, {"time": 141370, "pitch": 68, "duration": 10, "velocity": 75}, {"time": 141480, "pitch": 64, "duration": 10, "velocity": 75}, {"time": 141480, "pitch": 68, "duration": 10, "velocity": 80}, {"time": 141490, "pitch": 58, "duration": 10, "velocity": 70}, {"time": 141600, "pitch": 58, "duration": 110, "velocity": 85}, {"time": 141600, "pitch": 64, "duration": 110, "velocity": 90}, {"time": 141610, "pitch": 68, "duration": 110, "velocity": 95}, {"time": 141720, "pitch": 64, "duration": 110, "velocity": 75}, {"time": 141720, "pitch": 68, "duration": 110, "velocity": 80}, {"time": 141730, "pitch": 58, "duration": 110, "velocity": 70}, {"time": 141840, "pitch": 58, "duration": 10, "velocity": 65}, {"time": 141840, "pitch": 64, "duration": 10, "velocity": 70}, {"time": 141850, "pitch": 68, "duration": 10, "velocity": 75}, {"time": 141960, "pitch": 64, "duration": 10, "velocity": 75}, {"time": 141960, "pitch": 68, "duration": 10, "velocity": 80}, {"time": 141970, "pitch": 58, "duration": 10, "velocity": 70}, {"time": 142080, "pitch": 58, "duration": 110, "velocity": 80}, {"time": 142080, "pitch": 64, "duration": 110, "velocity": 85}, {"time": 142090, "pitch": 68, "duration": 110, "velocity": 90}, {"time": 142200, "pitch": 64, "duration": 10, "velocity": 65}, {"time": 142200, "pitch": 68, "duration": 10, "velocity": 70}, {"time": 142210, "pitch": 58, "duration": 10, "velocity": 60}, {"time": 142320, "pitch": 58, "duration": 10, "velocity": 65}, {"time": 142320, "pitch": 64, "duration": 10, "velocity": 70}, {"time": 142330, "pitch": 68, "duration": 10, "velocity": 75}, {"time": 142440, "pitch": 64, "duration": 110, "velocity": 85}, {"time": 142440, "pitch": 68, "duration": 110, "velocity": 90}, {"time": 142450, "pitch": 58, "duration": 110, "velocity": 80}, {"time": 142560, "pitch": 58, "duration": 100, "velocity": 90}, {"time": 142560, "pitch": 64, "duration": 100, "velocity": 95}, {"time": 142570, "pitch": 68, "duration": 100, "velocity": 100}, {"time": 142680, "pitch": 64, "duration": 10, "velocity": 65}, {"time": 142680, "pitch": 68, "duration": 10, "velocity": 70}, {"time": 142690, "pitch": 58, "duration": 10, "velocity": 60}, {"time": 142800, "pitch": 58, "duration": 10, "velocity": 65}, {"time": 142800, "pitch": 64, "duration": 10, "velocity": 70}, {"time": 142810, "pitch": 68, "duration": 10, "velocity": 75}, {"time": 142920, "pitch": 64, "duration": 10, "velocity": 75}, {"time": 142920, "pitch": 68, "duration": 10, "velocity": 80}, {"time": 142930, "pitch": 58, "duration": 10, "velocity": 70}, {"time": 143040, "pitch": 65, "duration": 110, "velocity": 90}, {"time": 143040, "pitch": 69, "duration": 110, "velocity": 95}, {"time": 143050, "pitch": 73, "duration": 110, "velocity": 100}, {"time": 143160, "pitch": 69, "duration": 10, "velocity": 75}, {"time": 143160, "pitch": 73, "duration": 10, "velocity": 80}, {"time": 143170, "pitch": 65, "duration": 10, "velocity": 70}, {"time": 143280, "pitch": 65, "duration": 10, "velocity": 65}, {"time": 143280, "pitch": 69, "duration": 10, "velocity": 70}, {"time": 143290, "pitch": 73, "duration": 10, "velocity": 75}, {"time": 143400, "pitch": 69, "duration": 10, "velocity": 75}, {"time": 143400, "pitch": 73, "duration": 10, "velocity": 80}, {"time": 143410, "pitch": 65, "duration": 10, "velocity": 70}, {"time": 143520, "pitch": 65, "duration": 110, "velocity": 90}, {"time": 143520, "pitch": 69, "duration": 110, "velocity": 95}, {"time": 143530, "pitch": 73, "duration": 110, "velocity": 100}, {"time": 143640, "pitch": 69, "duration": 110, "velocity": 80}, {"time": 143640, "pitch": 73, "duration": 110, "velocity": 85}, {"time": 143650, "pitch": 65, "duration": 110, "velocity": 75}, {"time": 143760, "pitch": 64, "duration": 10, "velocity": 70}, {"time": 143760, "pitch": 69, "duration": 10, "velocity": 75}, {"time": 143770, "pitch": 73, "duration": 10, "velocity": 80}, {"time": 143880, "pitch": 69, "duration": 10, "velocity": 80}, {"time": 143880, "pitch": 73, "duration": 10, "velocity": 85}, {"time": 143890, "pitch": 64, "duration": 10, "velocity": 75}, {"time": 144000, "pitch": 64, "duration": 10, "velocity": 70}, {"time": 144000, "pitch": 69, "duration": 10, "velocity": 75}, {"time": 144010, "pitch": 73, "duration": 10, "velocity": 80}, {"time": 144120, "pitch": 69, "duration": 10, "velocity": 90}, {"time": 144120, "pitch": 73, "duration": 10, "velocity": 95}, {"time": 144130, "pitch": 64, "duration": 10, "velocity": 85}, {"time": 144240, "pitch": 64, "duration": 10, "velocity": 70}, {"time": 144240, "pitch": 69, "duration": 10, "velocity": 75}, {"time": 144250, "pitch": 73, "duration": 10, "velocity": 80}, {"time": 144360, "pitch": 69, "duration": 10, "velocity": 80}, {"time": 144360, "pitch": 73, "duration": 10, "velocity": 85}, {"time": 144370, "pitch": 64, "duration": 10, "velocity": 75}, {"time": 144480, "pitch": 64, "duration": 10, "velocity": 85}, {"time": 144480, "pitch": 69, "duration": 10, "velocity": 90}, {"time": 144490, "pitch": 73, "duration": 10, "velocity": 95}, {"time": 144600, "pitch": 69, "duration": 10, "velocity": 80}, {"time": 144600, "pitch": 73, "duration": 10, "velocity": 85}, {"time": 144610, "pitch": 64, "duration": 10, "velocity": 75}, {"time": 144720, "pitch": 64, "duration": 110, "velocity": 80}, {"time": 144720, "pitch": 69, "duration": 110, "velocity": 85}, {"time": 144730, "pitch": 73, "duration": 110, "velocity": 90}, {"time": 144840, "pitch": 69, "duration": 110, "velocity": 90}, {"time": 144840, "pitch": 73, "duration": 110, "velocity": 95}, {"time": 144850, "pitch": 64, "duration": 110, "velocity": 85}, {"time": 144960, "pitch": 63, "duration": 140, "velocity": 90}, {"time": 144960, "pitch": 66, "duration": 140, "velocity": 95}, {"time": 144970, "pitch": 71, "duration": 140, "velocity": 100}, {"time": 148800, "pitch": 62, "duration": 110, "velocity": 90}, {"time": 148800, "pitch": 66, "duration": 110, "velocity": 95}, {"time": 148810, "pitch": 71, "duration": 110, "velocity": 100}, {"time": 148920, "pitch": 66, "duration": 10, "velocity": 75}, {"time": 148920, "pitch": 71, "duration": 10, "velocity": 80}, {"time": 148930, "pitch": 62, "duration": 10, "velocity": 70}, {"time": 149040, "pitch": 62, "duration": 10, "velocity": 65}, {"time": 149040, "pitch": 66, "duration": 10, "velocity": 70}, {"time": 149050, "pitch": 71, "duration": 10, "velocity": 75}, {"time": 149160, "pitch": 66, "duration": 10, "velocity": 75}, {"time": 149160, "pitch": 71, "duration": 10, "velocity": 80}, {"time": 149170, "pitch": 62, "duration": 10, "velocity": 70}, {"time": 149280, "pitch": 62, "duration": 10, "velocity": 80}, {"time": 149280, "pitch": 66, "duration": 10, "velocity": 85}, {"time": 149290, "pitch": 71, "duration": 10, "velocity": 90}, {"time": 149400, "pitch": 66, "duration": 10, "velocity": 75}, {"time": 149400, "pitch": 71, "duration": 10, "velocity": 80}, {"time": 149410, "pitch": 62, "duration": 10, "velocity": 70}, {"time": 149520, "pitch": 62, "duration": 110, "velocity": 85}, {"time": 149520, "pitch": 66, "duration": 110, "velocity": 90}, {"time": 149530, "pitch": 71, "duration": 110, "velocity": 95}, {"time": 149640, "pitch": 66, "duration": 110, "velocity": 85}, {"time": 149640, "pitch": 71, "duration": 110, "velocity": 90}, {"time": 149650, "pitch": 62, "duration": 110, "velocity": 80}, {"time": 149760, "pitch": 62, "duration": 10, "velocity": 70}, {"time": 149760, "pitch": 66, "duration": 10, "velocity": 75}, {"time": 149770, "pitch": 71, "duration": 10, "velocity": 80}, {"time": 149880, "pitch": 66, "duration": 10, "velocity": 65}, {"time": 149880, "pitch": 71, "duration": 10, "velocity": 70}, {"time": 149890, "pitch": 62, "duration": 10, "velocity": 60}, {"time": 150000, "pitch": 62, "duration": 110, "velocity": 85}, {"time": 150000, "pitch": 66, "duration": 110, "velocity": 90}, {"time": 150010, "pitch": 71, "duration": 110, "velocity": 95}, {"time": 150120, "pitch": 66, "duration": 10, "velocity": 75}, {"time": 150120, "pitch": 71, "duration": 10, "velocity": 80}, {"time": 150130, "pitch": 62, "duration": 10, "velocity": 70}, {"time": 150240, "pitch": 62, "duration": 10, "velocity": 70}, {"time": 150240, "pitch": 66, "duration": 10, "velocity": 75}, {"time": 150250, "pitch": 71, "duration": 10, "velocity": 80}, {"time": 150360, "pitch": 66, "duration": 110, "velocity": 95}, {"time": 150360, "pitch": 71, "duration": 110, "velocity": 100}, {"time": 150370, "pitch": 62, "duration": 110, "velocity": 90}, {"time": 150480, "pitch": 62, "duration": 10, "velocity": 65}, {"time": 150480, "pitch": 66, "duration": 10, "velocity": 70}, {"time": 150490, "pitch": 71, "duration": 10, "velocity": 75}, {"time": 150600, "pitch": 66, "duration": 10, "velocity": 75}, {"time": 150600, "pitch": 71, "duration": 10, "velocity": 80}, {"time": 150610, "pitch": 62, "duration": 10, "velocity": 70}, {"time": 150720, "pitch": 62, "duration": 10, "velocity": 70}, {"time": 150720, "pitch": 66, "duration": 10, "velocity": 75}, {"time": 150730, "pitch": 71, "duration": 10, "velocity": 80}, {"time": 150840, "pitch": 66, "duration": 110, "velocity": 95}, {"time": 150840, "pitch": 71, "duration": 110, "velocity": 100}, {"time": 150850, "pitch": 62, "duration": 110, "velocity": 90}, {"time": 150960, "pitch": 62, "duration": 10, "velocity": 65}, {"time": 150960, "pitch": 66, "duration": 10, "velocity": 70}, {"time": 150970, "pitch": 71, "duration": 10, "velocity": 75}, {"time": 151080, "pitch": 66, "duration": 10, "velocity": 75}, {"time": 151080, "pitch": 71, "duration": 10, "velocity": 80}, {"time": 151090, "pitch": 62, "duration": 10, "velocity": 70}, {"time": 151200, "pitch": 62, "duration": 110, "velocity": 90}, {"time": 151200, "pitch": 66, "duration": 110, "velocity": 95}, {"time": 151210, "pitch": 71, "duration": 110, "velocity": 100}, {"time": 151320, "pitch": 66, "duration": 110, "velocity": 85}, {"time": 151320, "pitch": 71, "duration": 110, "velocity": 90}, {"time": 151330, "pitch": 62, "duration": 110, "velocity": 80}, {"time": 151440, "pitch": 62, "duration": 10, "velocity": 75}, {"time": 151440, "pitch": 66, "duration": 10, "velocity": 80}, {"time": 151450, "pitch": 71, "duration": 10, "velocity": 85}, {"time": 151560, "pitch": 66, "duration": 10, "velocity": 85}, {"time": 151560, "pitch": 71, "duration": 10, "velocity": 90}, {"time": 151570, "pitch": 62, "duration": 10, "velocity": 80}, {"time": 151680, "pitch": 62, "duration": 10, "velocity": 70}, {"time": 151680, "pitch": 66, "duration": 10, "velocity": 75}, {"time": 151690, "pitch": 71, "duration": 10, "velocity": 80}, {"time": 151800, "pitch": 66, "duration": 10, "velocity": 65}, {"time": 151800, "pitch": 71, "duration": 10, "velocity": 70}, {"time": 151810, "pitch": 62, "duration": 10, "velocity": 60}, {"time": 151920, "pitch": 62, "duration": 110, "velocity": 85}, {"time": 151920, "pitch": 66, "duration": 110, "velocity": 90}, {"time": 151930, "pitch": 71, "duration": 110, "velocity": 95}, {"time": 152040, "pitch": 66, "duration": 10, "velocity": 75}, {"time": 152040, "pitch": 71, "duration": 10, "velocity": 80}, {"time": 152050, "pitch": 62, "duration": 10, "velocity": 70}, {"time": 152160, "pitch": 62, "duration": 10, "velocity": 70}, {"time": 152160, "pitch": 66, "duration": 10, "velocity": 75}, {"time": 152170, "pitch": 71, "duration": 10, "velocity": 80}, {"time": 152280, "pitch": 66, "duration": 110, "velocity": 95}, {"time": 152280, "pitch": 71, "duration": 110, "velocity": 100}, {"time": 152290, "pitch": 62, "duration": 110, "velocity": 90}, {"time": 152400, "pitch": 62, "duration": 10, "velocity": 65}, {"time": 152400, "pitch": 66, "duration": 10, "velocity": 70}, {"time": 152410, "pitch": 71, "duration": 10, "velocity": 75}, {"time": 152520, "pitch": 66, "duration": 10, "velocity": 75}, {"time": 152520, "pitch": 71, "duration": 10, "velocity": 80}, {"time": 152530, "pitch": 62, "duration": 10, "velocity": 70}, {"time": 152640, "pitch": 61, "duration": 10, "velocity": 80}, {"time": 152640, "pitch": 67, "duration": 10, "velocity": 85}, {"time": 152650, "pitch": 71, "duration": 10, "velocity": 90}, {"time": 152760, "pitch": 67, "duration": 10, "velocity": 75}, {"time": 152760, "pitch": 71, "duration": 10, "velocity": 80}, {"time": 152770, "pitch": 61, "duration": 10, "velocity": 70}, {"time": 152880, "pitch": 61, "duration": 110, "velocity": 85}, {"time": 152880, "pitch": 67, "duration": 110, "velocity": 90}, {"time": 152890, "pitch": 71, "duration": 110, "velocity": 95}, {"time": 153000, "pitch": 67, "duration": 110, "velocity": 95}, {"time": 153000, "pitch": 71, "duration": 110, "velocity": 100}, {"time": 153010, "pitch": 61, "duration": 110, "velocity": 90}, {"time": 153120, "pitch": 61, "duration": 10, "velocity": 80}, {"time": 153120, "pitch": 67, "duration": 10, "velocity": 85}, {"time": 153130, "pitch": 71, "duration": 10, "velocity": 90}, {"time": 153240, "pitch": 67, "duration": 10, "velocity": 75}, {"time": 153240, "pitch": 71, "duration": 10, "velocity": 80}, {"time": 153250, "pitch": 61, "duration": 10, "velocity": 70}, {"time": 153360, "pitch": 61, "duration": 110, "velocity": 85}, {"time": 153360, "pitch": 67, "duration": 110, "velocity": 90}, {"time": 153370, "pitch": 71, "duration": 110, "velocity": 95}, {"time": 153480, "pitch": 67, "duration": 110, "velocity": 85}, {"time": 153480, "pitch": 71, "duration": 110, "velocity": 90}, {"time": 153490, "pitch": 61, "duration": 110, "velocity": 80}, {"time": 153600, "pitch": 61, "duration": 10, "velocity": 70}, {"time": 153600, "pitch": 67, "duration": 10, "velocity": 75}, {"time": 153610, "pitch": 71, "duration": 10, "velocity": 80}, {"time": 153720, "pitch": 67, "duration": 10, "velocity": 65}, {"time": 153720, "pitch": 71, "duration": 10, "velocity": 70}, {"time": 153730, "pitch": 61, "duration": 10, "velocity": 60}, {"time": 153840, "pitch": 61, "duration": 110, "velocity": 85}, {"time": 153840, "pitch": 67, "duration": 110, "velocity": 90}, {"time": 153850, "pitch": 71, "duration": 110, "velocity": 95}, {"time": 153960, "pitch": 67, "duration": 10, "velocity": 75}, {"time": 153960, "pitch": 71, "duration": 10, "velocity": 80}, {"time": 153970, "pitch": 61, "duration": 10, "velocity": 70}, {"time": 154080, "pitch": 61, "duration": 10, "velocity": 70}, {"time": 154080, "pitch": 67, "duration": 10, "velocity": 75}, {"time": 154090, "pitch": 71, "duration": 10, "velocity": 80}, {"time": 154200, "pitch": 67, "duration": 110, "velocity": 95}, {"time": 154200, "pitch": 71, "duration": 110, "velocity": 100}, {"time": 154210, "pitch": 61, "duration": 110, "velocity": 90}, {"time": 154320, "pitch": 61, "duration": 10, "velocity": 65}, {"time": 154320, "pitch": 67, "duration": 10, "velocity": 70}, {"time": 154330, "pitch": 71, "duration": 10, "velocity": 75}, {"time": 154440, "pitch": 67, "duration": 10, "velocity": 75}, {"time": 154440, "pitch": 71, "duration": 10, "velocity": 80}, {"time": 154450, "pitch": 61, "duration": 10, "velocity": 70}, {"time": 154560, "pitch": 61, "duration": 10, "velocity": 80}, {"time": 154560, "pitch": 67, "duration": 10, "velocity": 85}, {"time": 154570, "pitch": 71, "duration": 10, "velocity": 90}, {"time": 154680, "pitch": 67, "duration": 10, "velocity": 75}, {"time": 154680, "pitch": 71, "duration": 10, "velocity": 80}, {"time": 154690, "pitch": 61, "duration": 10, "velocity": 70}, {"time": 154800, "pitch": 61, "duration": 110, "velocity": 85}, {"time": 154800, "pitch": 67, "duration": 110, "velocity": 90}, {"time": 154810, "pitch": 71, "duration": 110, "velocity": 95}, {"time": 154920, "pitch": 67, "duration": 110, "velocity": 95}, {"time": 154920, "pitch": 71, "duration": 110, "velocity": 100}, {"time": 154930, "pitch": 61, "duration": 110, "velocity": 90}, {"time": 155040, "pitch": 61, "duration": 10, "velocity": 80}, {"time": 155040, "pitch": 67, "duration": 10, "velocity": 85}, {"time": 155050, "pitch": 71, "duration": 10, "velocity": 90}, {"time": 155160, "pitch": 67, "duration": 10, "velocity": 75}, {"time": 155160, "pitch": 71, "duration": 10, "velocity": 80}, {"time": 155170, "pitch": 61, "duration": 10, "velocity": 70}, {"time": 155280, "pitch": 61, "duration": 110, "velocity": 85}, {"time": 155280, "pitch": 67, "duration": 110, "velocity": 90}, {"time": 155290, "pitch": 71, "duration": 110, "velocity": 95}, {"time": 155400, "pitch": 67, "duration": 110, "velocity": 85}, {"time": 155400, "pitch": 71, "duration": 110, "velocity": 90}, {"time": 155410, "pitch": 61, "duration": 110, "velocity": 80}, {"time": 155520, "pitch": 61, "duration": 10, "velocity": 70}, {"time": 155520, "pitch": 67, "duration": 10, "velocity": 75}, {"time": 155530, "pitch": 71, "duration": 10, "velocity": 80}, {"time": 155640, "pitch": 67, "duration": 10, "velocity": 65}, {"time": 155640, "pitch": 71, "duration": 10, "velocity": 70}, {"time": 155650, "pitch": 61, "duration": 10, "velocity": 60}, {"time": 155760, "pitch": 61, "duration": 110, "velocity": 85}, {"time": 155760, "pitch": 67, "duration": 110, "velocity": 90}, {"time": 155770, "pitch": 71, "duration": 110, "velocity": 95}, {"time": 155880, "pitch": 67, "duration": 10, "velocity": 75}, {"time": 155880, "pitch": 71, "duration": 10, "velocity": 80}, {"time": 155890, "pitch": 61, "duration": 10, "velocity": 70}, {"time": 156000, "pitch": 61, "duration": 10, "velocity": 70}, {"time": 156000, "pitch": 67, "duration": 10, "velocity": 75}, {"time": 156010, "pitch": 71, "duration": 10, "velocity": 80}, {"time": 156120, "pitch": 67, "duration": 10, "velocity": 65}, {"time": 156120, "pitch": 71, "duration": 10, "velocity": 70}, {"time": 156130, "pitch": 61, "duration": 10, "velocity": 60}, {"time": 156240, "pitch": 61, "duration": 110, "velocity": 80}, {"time": 156240, "pitch": 67, "duration": 110, "velocity": 85}, {"time": 156250, "pitch": 71, "duration": 110, "velocity": 90}, {"time": 156360, "pitch": 67, "duration": 110, "velocity": 90}, {"time": 156360, "pitch": 71, "duration": 110, "velocity": 95}, {"time": 156370, "pitch": 61, "duration": 110, "velocity": 85}, {"time": 156480, "pitch": 62, "duration": 110, "velocity": 90}, {"time": 156480, "pitch": 66, "duration": 110, "velocity": 95}, {"time": 156490, "pitch": 71, "duration": 110, "velocity": 100}, {"time": 156600, "pitch": 66, "duration": 10, "velocity": 75}, {"time": 156600, "pitch": 71, "duration": 10, "velocity": 80}, {"time": 156610, "pitch": 62, "duration": 10, "velocity": 70}, {"time": 156720, "pitch": 62, "duration": 10, "velocity": 65}, {"time": 156720, "pitch": 66, "duration": 10, "velocity": 70}, {"time": 156730, "pitch": 71, "duration": 10, "velocity": 75}, {"time": 156840, "pitch": 66, "duration": 10, "velocity": 75}, {"time": 156840, "pitch": 71, "duration": 10, "velocity": 80}, {"time": 156850, "pitch": 62, "duration": 10, "velocity": 70}, {"time": 156960, "pitch": 62, "duration": 10, "velocity": 80}, {"time": 156960, "pitch": 66, "duration": 10, "velocity": 85}, {"time": 156970, "pitch": 71, "duration": 10, "velocity": 90}, {"time": 157080, "pitch": 66, "duration": 10, "velocity": 75}, {"time": 157080, "pitch": 71, "duration": 10, "velocity": 80}, {"time": 157090, "pitch": 62, "duration": 10, "velocity": 70}, {"time": 157200, "pitch": 62, "duration": 110, "velocity": 85}, {"time": 157200, "pitch": 66, "duration": 110, "velocity": 90}, {"time": 157210, "pitch": 71, "duration": 110, "velocity": 95}, {"time": 157320, "pitch": 66, "duration": 110, "velocity": 85}, {"time": 157320, "pitch": 71, "duration": 110, "velocity": 90}, {"time": 157330, "pitch": 62, "duration": 110, "velocity": 80}, {"time": 157440, "pitch": 62, "duration": 10, "velocity": 70}, {"time": 157440, "pitch": 66, "duration": 10, "velocity": 75}, {"time": 157450, "pitch": 71, "duration": 10, "velocity": 80}, {"time": 157560, "pitch": 66, "duration": 10, "velocity": 65}, {"time": 157560, "pitch": 71, "duration": 10, "velocity": 70}, {"time": 157570, "pitch": 62, "duration": 10, "velocity": 60}, {"time": 157680, "pitch": 62, "duration": 110, "velocity": 85}, {"time": 157680, "pitch": 66, "duration": 110, "velocity": 90}, {"time": 157690, "pitch": 71, "duration": 110, "velocity": 95}, {"time": 157800, "pitch": 66, "duration": 10, "velocity": 75}, {"time": 157800, "pitch": 71, "duration": 10, "velocity": 80}, {"time": 157810, "pitch": 62, "duration": 10, "velocity": 70}, {"time": 157920, "pitch": 62, "duration": 10, "velocity": 70}, {"time": 157920, "pitch": 66, "duration": 10, "velocity": 75}, {"time": 157930, "pitch": 71, "duration": 10, "velocity": 80}, {"time": 158040, "pitch": 66, "duration": 110, "velocity": 95}, {"time": 158040, "pitch": 71, "duration": 110, "velocity": 100}, {"time": 158050, "pitch": 62, "duration": 110, "velocity": 90}, {"time": 158160, "pitch": 62, "duration": 10, "velocity": 65}, {"time": 158160, "pitch": 66, "duration": 10, "velocity": 70}, {"time": 158170, "pitch": 71, "duration": 10, "velocity": 75}, {"time": 158280, "pitch": 66, "duration": 10, "velocity": 75}, {"time": 158280, "pitch": 71, "duration": 10, "velocity": 80}, {"time": 158290, "pitch": 62, "duration": 10, "velocity": 70}, {"time": 158400, "pitch": 62, "duration": 10, "velocity": 70}, {"time": 158400, "pitch": 66, "duration": 10, "velocity": 75}, {"time": 158410, "pitch": 71, "duration": 10, "velocity": 80}, {"time": 158520, "pitch": 66, "duration": 110, "velocity": 95}, {"time": 158520, "pitch": 71, "duration": 110, "velocity": 100}, {"time": 158530, "pitch": 62, "duration": 110, "velocity": 90}, {"time": 158640, "pitch": 62, "duration": 10, "velocity": 65}, {"time": 158640, "pitch": 66, "duration": 10, "velocity": 70}, {"time": 158650, "pitch": 71, "duration": 10, "velocity": 75}, {"time": 158760, "pitch": 66, "duration": 10, "velocity": 75}, {"time": 158760, "pitch": 71, "duration": 10, "velocity": 80}, {"time": 158770, "pitch": 62, "duration": 10, "velocity": 70}, {"time": 158880, "pitch": 62, "duration": 110, "velocity": 90}, {"time": 158880, "pitch": 66, "duration": 110, "velocity": 95}, {"time": 158890, "pitch": 71, "duration": 110, "velocity": 100}, {"time": 159000, "pitch": 66, "duration": 110, "velocity": 85}, {"time": 159000, "pitch": 71, "duration": 110, "velocity": 90}, {"time": 159010, "pitch": 62, "duration": 110, "velocity": 80}, {"time": 159120, "pitch": 62, "duration": 10, "velocity": 75}, {"time": 159120, "pitch": 66, "duration": 10, "velocity": 80}, {"time": 159130, "pitch": 71, "duration": 10, "velocity": 85}, {"time": 159240, "pitch": 66, "duration": 10, "velocity": 85}, {"time": 159240, "pitch": 71, "duration": 10, "velocity": 90}, {"time": 159250, "pitch": 62, "duration": 10, "velocity": 80}, {"time": 159360, "pitch": 62, "duration": 10, "velocity": 70}, {"time": 159360, "pitch": 66, "duration": 10, "velocity": 75}, {"time": 159370, "pitch": 71, "duration": 10, "velocity": 80}, {"time": 159480, "pitch": 66, "duration": 10, "velocity": 65}, {"time": 159480, "pitch": 71, "duration": 10, "velocity": 70}, {"time": 159490, "pitch": 62, "duration": 10, "velocity": 60}, {"time": 159600, "pitch": 62, "duration": 110, "velocity": 85}, {"time": 159600, "pitch": 66, "duration": 110, "velocity": 90}, {"time": 159610, "pitch": 71, "duration": 110, "velocity": 95}, {"time": 159720, "pitch": 66, "duration": 10, "velocity": 75}, {"time": 159720, "pitch": 71, "duration": 10, "velocity": 80}, {"time": 159730, "pitch": 62, "duration": 10, "velocity": 70}, {"time": 159840, "pitch": 62, "duration": 10, "velocity": 70}, {"time": 159840, "pitch": 66, "duration": 10, "velocity": 75}, {"time": 159850, "pitch": 71, "duration": 10, "velocity": 80}, {"time": 159960, "pitch": 66, "duration": 110, "velocity": 95}, {"time": 159960, "pitch": 71, "duration": 110, "velocity": 100}, {"time": 159970, "pitch": 62, "duration": 110, "velocity": 90}, {"time": 160080, "pitch": 62, "duration": 10, "velocity": 65}, {"time": 160080, "pitch": 66, "duration": 10, "velocity": 70}, {"time": 160090, "pitch": 71, "duration": 10, "velocity": 75}, {"time": 160200, "pitch": 66, "duration": 10, "velocity": 75}, {"time": 160200, "pitch": 71, "duration": 10, "velocity": 80}, {"time": 160210, "pitch": 62, "duration": 10, "velocity": 70}, {"time": 160320, "pitch": 61, "duration": 10, "velocity": 80}, {"time": 160320, "pitch": 67, "duration": 10, "velocity": 85}, {"time": 160330, "pitch": 71, "duration": 10, "velocity": 90}, {"time": 160440, "pitch": 67, "duration": 10, "velocity": 75}, {"time": 160440, "pitch": 71, "duration": 10, "velocity": 80}, {"time": 160450, "pitch": 61, "duration": 10, "velocity": 70}, {"time": 160560, "pitch": 61, "duration": 110, "velocity": 85}, {"time": 160560, "pitch": 67, "duration": 110, "velocity": 90}, {"time": 160570, "pitch": 71, "duration": 110, "velocity": 95}, {"time": 160680, "pitch": 67, "duration": 110, "velocity": 95}, {"time": 160680, "pitch": 71, "duration": 110, "velocity": 100}, {"time": 160690, "pitch": 61, "duration": 110, "velocity": 90}, {"time": 160800, "pitch": 61, "duration": 10, "velocity": 80}, {"time": 160800, "pitch": 67, "duration": 10, "velocity": 85}, {"time": 160810, "pitch": 71, "duration": 10, "velocity": 90}, {"time": 160920, "pitch": 67, "duration": 10, "velocity": 75}, {"time": 160920, "pitch": 71, "duration": 10, "velocity": 80}, {"time": 160930, "pitch": 61, "duration": 10, "velocity": 70}, {"time": 161040, "pitch": 61, "duration": 110, "velocity": 85}, {"time": 161040, "pitch": 67, "duration": 110, "velocity": 90}, {"time": 161050, "pitch": 71, "duration": 110, "velocity": 95}, {"time": 161160, "pitch": 67, "duration": 110, "velocity": 85}, {"time": 161160, "pitch": 71, "duration": 110, "velocity": 90}, {"time": 161170, "pitch": 61, "duration": 110, "velocity": 80}, {"time": 161280, "pitch": 61, "duration": 10, "velocity": 70}, {"time": 161280, "pitch": 67, "duration": 10, "velocity": 75}, {"time": 161290, "pitch": 71, "duration": 10, "velocity": 80}, {"time": 161400, "pitch": 67, "duration": 10, "velocity": 65}, {"time": 161400, "pitch": 71, "duration": 10, "velocity": 70}, {"time": 161410, "pitch": 61, "duration": 10, "velocity": 60}, {"time": 161520, "pitch": 61, "duration": 110, "velocity": 85}, {"time": 161520, "pitch": 67, "duration": 110, "velocity": 90}, {"time": 161530, "pitch": 71, "duration": 110, "velocity": 95}, {"time": 161640, "pitch": 67, "duration": 10, "velocity": 75}, {"time": 161640, "pitch": 71, "duration": 10, "velocity": 80}, {"time": 161650, "pitch": 61, "duration": 10, "velocity": 70}, {"time": 161760, "pitch": 61, "duration": 10, "velocity": 70}, {"time": 161760, "pitch": 67, "duration": 10, "velocity": 75}, {"time": 161770, "pitch": 71, "duration": 10, "velocity": 80}, {"time": 161880, "pitch": 67, "duration": 110, "velocity": 95}, {"time": 161880, "pitch": 71, "duration": 110, "velocity": 100}, {"time": 161890, "pitch": 61, "duration": 110, "velocity": 90}, {"time": 162000, "pitch": 61, "duration": 10, "velocity": 65}, {"time": 162000, "pitch": 67, "duration": 10, "velocity": 70}, {"time": 162010, "pitch": 71, "duration": 10, "velocity": 75}, {"time": 162120, "pitch": 67, "duration": 10, "velocity": 75}, {"time": 162120, "pitch": 71, "duration": 10, "velocity": 80}, {"time": 162130, "pitch": 61, "duration": 10, "velocity": 70}, {"time": 162240, "pitch": 61, "duration": 10, "velocity": 80}, {"time": 162240, "pitch": 67, "duration": 10, "velocity": 85}, {"time": 162250, "pitch": 71, "duration": 10, "velocity": 90}, {"time": 162360, "pitch": 67, "duration": 10, "velocity": 75}, {"time": 162360, "pitch": 71, "duration": 10, "velocity": 80}, {"time": 162370, "pitch": 61, "duration": 10, "velocity": 70}, {"time": 162480, "pitch": 61, "duration": 110, "velocity": 85}, {"time": 162480, "pitch": 67, "duration": 110, "velocity": 90}, {"time": 162490, "pitch": 71, "duration": 110, "velocity": 95}, {"time": 162600, "pitch": 67, "duration": 110, "velocity": 95}, {"time": 162600, "pitch": 71, "duration": 110, "velocity": 100}, {"time": 162610, "pitch": 61, "duration": 110, "velocity": 90}, {"time": 162720, "pitch": 61, "duration": 10, "velocity": 80}, {"time": 162720, "pitch": 67, "duration": 10, "velocity": 85}, {"time": 162730, "pitch": 71, "duration": 10, "velocity": 90}, {"time": 162840, "pitch": 67, "duration": 10, "velocity": 75}, {"time": 162840, "pitch": 71, "duration": 10, "velocity": 80}, {"time": 162850, "pitch": 61, "duration": 10, "velocity": 70}, {"time": 162960, "pitch": 61, "duration": 110, "velocity": 85}, {"time": 162960, "pitch": 67, "duration": 110, "velocity": 90}, {"time": 162970, "pitch": 71, "duration": 110, "velocity": 95}, {"time": 163080, "pitch": 67, "duration": 110, "velocity": 85}, {"time": 163080, "pitch": 71, "duration": 110, "velocity": 90}, {"time": 163090, "pitch": 61, "duration": 110, "velocity": 80}, {"time": 163200, "pitch": 61, "duration": 10, "velocity": 70}, {"time": 163200, "pitch": 67, "duration": 10, "velocity": 75}, {"time": 163210, "pitch": 71, "duration": 10, "velocity": 80}, {"time": 163320, "pitch": 67, "duration": 10, "velocity": 65}, {"time": 163320, "pitch": 71, "duration": 10, "velocity": 70}, {"time": 163330, "pitch": 61, "duration": 10, "velocity": 60}, {"time": 163440, "pitch": 61, "duration": 110, "velocity": 85}, {"time": 163440, "pitch": 67, "duration": 110, "velocity": 90}, {"time": 163450, "pitch": 71, "duration": 110, "velocity": 95}, {"time": 163560, "pitch": 67, "duration": 10, "velocity": 75}, {"time": 163560, "pitch": 71, "duration": 10, "velocity": 80}, {"time": 163570, "pitch": 61, "duration": 10, "velocity": 70}, {"time": 163680, "pitch": 61, "duration": 10, "velocity": 70}, {"time": 163680, "pitch": 67, "duration": 10, "velocity": 75}, {"time": 163690, "pitch": 71, "duration": 10, "velocity": 80}, {"time": 163800, "pitch": 67, "duration": 10, "velocity": 65}, {"time": 163800, "pitch": 71, "duration": 10, "velocity": 70}, {"time": 163810, "pitch": 61, "duration": 10, "velocity": 60}, {"time": 163920, "pitch": 61, "duration": 110, "velocity": 80}, {"time": 163920, "pitch": 67, "duration": 110, "velocity": 85}, {"time": 163930, "pitch": 71, "duration": 110, "velocity": 90}, {"time": 164040, "pitch": 67, "duration": 110, "velocity": 90}, {"time": 164040, "pitch": 71, "duration": 110, "velocity": 95}, {"time": 164050, "pitch": 61, "duration": 110, "velocity": 85}, {"time": 164160, "pitch": 62, "duration": 110, "velocity": 90}, {"time": 164160, "pitch": 66, "duration": 110, "velocity": 95}, {"time": 164170, "pitch": 71, "duration": 110, "velocity": 100}, {"time": 164280, "pitch": 66, "duration": 10, "velocity": 75}, {"time": 164280, "pitch": 71, "duration": 10, "velocity": 80}, {"time": 164290, "pitch": 62, "duration": 10, "velocity": 70}, {"time": 164400, "pitch": 62, "duration": 10, "velocity": 65}, {"time": 164400, "pitch": 66, "duration": 10, "velocity": 70}, {"time": 164410, "pitch": 71, "duration": 10, "velocity": 75}, {"time": 164520, "pitch": 66, "duration": 10, "velocity": 75}, {"time": 164520, "pitch": 71, "duration": 10, "velocity": 80}, {"time": 164530, "pitch": 62, "duration": 10, "velocity": 70}, {"time": 164640, "pitch": 62, "duration": 10, "velocity": 80}, {"time": 164640, "pitch": 66, "duration": 10, "velocity": 85}, {"time": 164650, "pitch": 71, "duration": 10, "velocity": 90}, {"time": 164760, "pitch": 66, "duration": 10, "velocity": 75}, {"time": 164760, "pitch": 71, "duration": 10, "velocity": 80}, {"time": 164770, "pitch": 62, "duration": 10, "velocity": 70}, {"time": 164880, "pitch": 62, "duration": 110, "velocity": 85}, {"time": 164880, "pitch": 66, "duration": 110, "velocity": 90}, {"time": 164890, "pitch": 71, "duration": 110, "velocity": 95}, {"time": 165000, "pitch": 66, "duration": 110, "velocity": 85}, {"time": 165000, "pitch": 71, "duration": 110, "velocity": 90}, {"time": 165010, "pitch": 62, "duration": 110, "velocity": 80}, {"time": 165120, "pitch": 62, "duration": 10, "velocity": 70}, {"time": 165120, "pitch": 66, "duration": 10, "velocity": 75}, {"time": 165130, "pitch": 71, "duration": 10, "velocity": 80}, {"time": 165240, "pitch": 66, "duration": 10, "velocity": 65}, {"time": 165240, "pitch": 71, "duration": 10, "velocity": 70}, {"time": 165250, "pitch": 62, "duration": 10, "velocity": 60}, {"time": 165360, "pitch": 62, "duration": 110, "velocity": 85}, {"time": 165360, "pitch": 66, "duration": 110, "velocity": 90}, {"time": 165370, "pitch": 71, "duration": 110, "velocity": 95}, {"time": 165480, "pitch": 66, "duration": 10, "velocity": 75}, {"time": 165480, "pitch": 71, "duration": 10, "velocity": 80}, {"time": 165490, "pitch": 62, "duration": 10, "velocity": 70}, {"time": 165600, "pitch": 62, "duration": 10, "velocity": 70}, {"time": 165600, "pitch": 66, "duration": 10, "velocity": 75}, {"time": 165610, "pitch": 71, "duration": 10, "velocity": 80}, {"time": 165720, "pitch": 66, "duration": 110, "velocity": 95}, {"time": 165720, "pitch": 71, "duration": 110, "velocity": 100}, {"time": 165730, "pitch": 62, "duration": 110, "velocity": 90}, {"time": 165840, "pitch": 62, "duration": 10, "velocity": 65}, {"time": 165840, "pitch": 66, "duration": 10, "velocity": 70}, {"time": 165850, "pitch": 71, "duration": 10, "velocity": 75}, {"time": 165960, "pitch": 66, "duration": 10, "velocity": 75}, {"time": 165960, "pitch": 71, "duration": 10, "velocity": 80}, {"time": 165970, "pitch": 62, "duration": 10, "velocity": 70}, {"time": 166080, "pitch": 62, "duration": 10, "velocity": 70}, {"time": 166080, "pitch": 66, "duration": 10, "velocity": 75}, {"time": 166090, "pitch": 71, "duration": 10, "velocity": 80}, {"time": 166200, "pitch": 66, "duration": 110, "velocity": 95}, {"time": 166200, "pitch": 71, "duration": 110, "velocity": 100}, {"time": 166210, "pitch": 62, "duration": 110, "velocity": 90}, {"time": 166320, "pitch": 62, "duration": 10, "velocity": 65}, {"time": 166320, "pitch": 66, "duration": 10, "velocity": 70}, {"time": 166330, "pitch": 71, "duration": 10, "velocity": 75}, {"time": 166440, "pitch": 66, "duration": 10, "velocity": 75}, {"time": 166440, "pitch": 71, "duration": 10, "velocity": 80}, {"time": 166450, "pitch": 62, "duration": 10, "velocity": 70}, {"time": 166560, "pitch": 62, "duration": 110, "velocity": 90}, {"time": 166560, "pitch": 66, "duration": 110, "velocity": 95}, {"time": 166570, "pitch": 71, "duration": 110, "velocity": 100}, {"time": 166680, "pitch": 66, "duration": 110, "velocity": 85}, {"time": 166680, "pitch": 71, "duration": 110, "velocity": 90}, {"time": 166690, "pitch": 62, "duration": 110, "velocity": 80}, {"time": 166800, "pitch": 62, "duration": 10, "velocity": 75}, {"time": 166800, "pitch": 66, "duration": 10, "velocity": 80}, {"time": 166810, "pitch": 71, "duration": 10, "velocity": 85}, {"time": 166920, "pitch": 66, "duration": 10, "velocity": 85}, {"time": 166920, "pitch": 71, "duration": 10, "velocity": 90}, {"time": 166930, "pitch": 62, "duration": 10, "velocity": 80}, {"time": 167040, "pitch": 62, "duration": 10, "velocity": 70}, {"time": 167040, "pitch": 66, "duration": 10, "velocity": 75}, {"time": 167050, "pitch": 71, "duration": 10, "velocity": 80}, {"time": 167160, "pitch": 66, "duration": 10, "velocity": 65}, {"time": 167160, "pitch": 71, "duration": 10, "velocity": 70}, {"time": 167170, "pitch": 62, "duration": 10, "velocity": 60}, {"time": 167280, "pitch": 62, "duration": 110, "velocity": 85}, {"time": 167280, "pitch": 66, "duration": 110, "velocity": 90}, {"time": 167290, "pitch": 71, "duration": 110, "velocity": 95}, {"time": 167400, "pitch": 66, "duration": 10, "velocity": 75}, {"time": 167400, "pitch": 71, "duration": 10, "velocity": 80}, {"time": 167410, "pitch": 62, "duration": 10, "velocity": 70}, {"time": 167520, "pitch": 62, "duration": 10, "velocity": 70}, {"time": 167520, "pitch": 66, "duration": 10, "velocity": 75}, {"time": 167530, "pitch": 71, "duration": 10, "velocity": 80}, {"time": 167640, "pitch": 66, "duration": 110, "velocity": 95}, {"time": 167640, "pitch": 71, "duration": 110, "velocity": 100}, {"time": 167650, "pitch": 62, "duration": 110, "velocity": 90}, {"time": 167760, "pitch": 62, "duration": 10, "velocity": 65}, {"time": 167760, "pitch": 66, "duration": 10, "velocity": 70}, {"time": 167770, "pitch": 71, "duration": 10, "velocity": 75}, {"time": 167880, "pitch": 66, "duration": 10, "velocity": 75}, {"time": 167880, "pitch": 71, "duration": 10, "velocity": 80}, {"time": 167890, "pitch": 62, "duration": 10, "velocity": 70}, {"time": 168000, "pitch": 61, "duration": 10, "velocity": 80}, {"time": 168000, "pitch": 67, "duration": 10, "velocity": 85}, {"time": 168010, "pitch": 71, "duration": 10, "velocity": 90}, {"time": 168120, "pitch": 67, "duration": 10, "velocity": 75}, {"time": 168120, "pitch": 71, "duration": 10, "velocity": 80}, {"time": 168130, "pitch": 61, "duration": 10, "velocity": 70}, {"time": 168240, "pitch": 61, "duration": 110, "velocity": 85}, {"time": 168240, "pitch": 67, "duration": 110, "velocity": 90}, {"time": 168250, "pitch": 71, "duration": 110, "velocity": 95}, {"time": 168360, "pitch": 67, "duration": 110, "velocity": 95}, {"time": 168360, "pitch": 71, "duration": 110, "velocity": 100}, {"time": 168370, "pitch": 61, "duration": 110, "velocity": 90}, {"time": 168480, "pitch": 61, "duration": 10, "velocity": 80}, {"time": 168480, "pitch": 67, "duration": 10, "velocity": 85}, {"time": 168490, "pitch": 71, "duration": 10, "velocity": 90}, {"time": 168600, "pitch": 67, "duration": 10, "velocity": 75}, {"time": 168600, "pitch": 71, "duration": 10, "velocity": 80}, {"time": 168610, "pitch": 61, "duration": 10, "velocity": 70}, {"time": 168720, "pitch": 61, "duration": 110, "velocity": 85}, {"time": 168720, "pitch": 67, "duration": 110, "velocity": 90}, {"time": 168730, "pitch": 71, "duration": 110, "velocity": 95}, {"time": 168840, "pitch": 67, "duration": 110, "velocity": 85}, {"time": 168840, "pitch": 71, "duration": 110, "velocity": 90}, {"time": 168850, "pitch": 61, "duration": 110, "velocity": 80}, {"time": 168960, "pitch": 61, "duration": 10, "velocity": 70}, {"time": 168960, "pitch": 67, "duration": 10, "velocity": 75}, {"time": 168970, "pitch": 71, "duration": 10, "velocity": 80}, {"time": 169080, "pitch": 67, "duration": 10, "velocity": 65}, {"time": 169080, "pitch": 71, "duration": 10, "velocity": 70}, {"time": 169090, "pitch": 61, "duration": 10, "velocity": 60}, {"time": 169200, "pitch": 61, "duration": 110, "velocity": 85}, {"time": 169200, "pitch": 67, "duration": 110, "velocity": 90}, {"time": 169210, "pitch": 71, "duration": 110, "velocity": 95}, {"time": 169320, "pitch": 67, "duration": 10, "velocity": 75}, {"time": 169320, "pitch": 71, "duration": 10, "velocity": 80}, {"time": 169330, "pitch": 61, "duration": 10, "velocity": 70}, {"time": 169440, "pitch": 61, "duration": 10, "velocity": 70}, {"time": 169440, "pitch": 67, "duration": 10, "velocity": 75}, {"time": 169450, "pitch": 71, "duration": 10, "velocity": 80}, {"time": 169560, "pitch": 67, "duration": 110, "velocity": 95}, {"time": 169560, "pitch": 71, "duration": 110, "velocity": 100}, {"time": 169570, "pitch": 61, "duration": 110, "velocity": 90}, {"time": 169680, "pitch": 61, "duration": 10, "velocity": 65}, {"time": 169680, "pitch": 67, "duration": 10, "velocity": 70}, {"time": 169690, "pitch": 71, "duration": 10, "velocity": 75}, {"time": 169800, "pitch": 67, "duration": 10, "velocity": 75}, {"time": 169800, "pitch": 71, "duration": 10, "velocity": 80}, {"time": 169810, "pitch": 61, "duration": 10, "velocity": 70}, {"time": 169920, "pitch": 61, "duration": 10, "velocity": 80}, {"time": 169920, "pitch": 67, "duration": 10, "velocity": 85}, {"time": 169930, "pitch": 71, "duration": 10, "velocity": 90}, {"time": 170040, "pitch": 67, "duration": 10, "velocity": 75}, {"time": 170040, "pitch": 71, "duration": 10, "velocity": 80}, {"time": 170050, "pitch": 61, "duration": 10, "velocity": 70}, {"time": 170160, "pitch": 61, "duration": 110, "velocity": 85}, {"time": 170160, "pitch": 67, "duration": 110, "velocity": 90}, {"time": 170170, "pitch": 71, "duration": 110, "velocity": 95}, {"time": 170280, "pitch": 67, "duration": 110, "velocity": 95}, {"time": 170280, "pitch": 71, "duration": 110, "velocity": 100}, {"time": 170290, "pitch": 61, "duration": 110, "velocity": 90}, {"time": 170400, "pitch": 61, "duration": 10, "velocity": 80}, {"time": 170400, "pitch": 67, "duration": 10, "velocity": 85}, {"time": 170410, "pitch": 71, "duration": 10, "velocity": 90}, {"time": 170520, "pitch": 67, "duration": 10, "velocity": 75}, {"time": 170520, "pitch": 71, "duration": 10, "velocity": 80}, {"time": 170530, "pitch": 61, "duration": 10, "velocity": 70}, {"time": 170640, "pitch": 61, "duration": 110, "velocity": 85}, {"time": 170640, "pitch": 67, "duration": 110, "velocity": 90}, {"time": 170650, "pitch": 71, "duration": 110, "velocity": 95}, {"time": 170760, "pitch": 67, "duration": 110, "velocity": 85}, {"time": 170760, "pitch": 71, "duration": 110, "velocity": 90}, {"time": 170770, "pitch": 61, "duration": 110, "velocity": 80}, {"time": 170880, "pitch": 61, "duration": 10, "velocity": 70}, {"time": 170880, "pitch": 67, "duration": 10, "velocity": 75}, {"time": 170890, "pitch": 71, "duration": 10, "velocity": 80}, {"time": 171000, "pitch": 67, "duration": 10, "velocity": 65}, {"time": 171000, "pitch": 71, "duration": 10, "velocity": 70}, {"time": 171010, "pitch": 61, "duration": 10, "velocity": 60}, {"time": 171120, "pitch": 61, "duration": 110, "velocity": 85}, {"time": 171120, "pitch": 67, "duration": 110, "velocity": 90}, {"time": 171130, "pitch": 71, "duration": 110, "velocity": 95}, {"time": 171240, "pitch": 67, "duration": 10, "velocity": 75}, {"time": 171240, "pitch": 71, "duration": 10, "velocity": 80}, {"time": 171250, "pitch": 61, "duration": 10, "velocity": 70}, {"time": 171360, "pitch": 61, "duration": 10, "velocity": 70}, {"time": 171360, "pitch": 67, "duration": 10, "velocity": 75}, {"time": 171370, "pitch": 71, "duration": 10, "velocity": 80}, {"time": 171480, "pitch": 67, "duration": 10, "velocity": 65}, {"time": 171480, "pitch": 71, "duration": 10, "velocity": 70}, {"time": 171490, "pitch": 61, "duration": 10, "velocity": 60}, {"time": 171600, "pitch": 61, "duration": 110, "velocity": 80}, {"time": 171600, "pitch": 67, "duration": 110, "velocity": 85}, {"time": 171610, "pitch": 71, "duration": 110, "velocity": 90}, {"time": 171720, "pitch": 67, "duration": 110, "velocity": 90}, {"time": 171720, "pitch": 71, "duration": 110, "velocity": 95}, {"time": 171730, "pitch": 61, "duration": 110, "velocity": 85}, {"time": 171840, "pitch": 62, "duration": 110, "velocity": 90}, {"time": 171840, "pitch": 66, "duration": 110, "velocity": 95}, {"time": 171850, "pitch": 71, "duration": 110, "velocity": 100}, {"time": 171960, "pitch": 66, "duration": 10, "velocity": 75}, {"time": 171960, "pitch": 71, "duration": 10, "velocity": 80}, {"time": 171970, "pitch": 62, "duration": 10, "velocity": 70}, {"time": 172080, "pitch": 62, "duration": 10, "velocity": 65}, {"time": 172080, "pitch": 66, "duration": 10, "velocity": 70}, {"time": 172090, "pitch": 71, "duration": 10, "velocity": 75}, {"time": 172200, "pitch": 66, "duration": 10, "velocity": 75}, {"time": 172200, "pitch": 71, "duration": 10, "velocity": 80}, {"time": 172210, "pitch": 62, "duration": 10, "velocity": 70}, {"time": 172320, "pitch": 62, "duration": 10, "velocity": 80}, {"time": 172320, "pitch": 66, "duration": 10, "velocity": 85}, {"time": 172330, "pitch": 71, "duration": 10, "velocity": 90}, {"time": 172440, "pitch": 66, "duration": 10, "velocity": 75}, {"time": 172440, "pitch": 71, "duration": 10, "velocity": 80}, {"time": 172450, "pitch": 62, "duration": 10, "velocity": 70}, {"time": 172560, "pitch": 62, "duration": 110, "velocity": 85}, {"time": 172560, "pitch": 66, "duration": 110, "velocity": 90}, {"time": 172570, "pitch": 71, "duration": 110, "velocity": 95}, {"time": 172680, "pitch": 66, "duration": 110, "velocity": 85}, {"time": 172680, "pitch": 71, "duration": 110, "velocity": 90}, {"time": 172690, "pitch": 62, "duration": 110, "velocity": 80}, {"time": 172800, "pitch": 62, "duration": 10, "velocity": 70}, {"time": 172800, "pitch": 66, "duration": 10, "velocity": 75}, {"time": 172810, "pitch": 71, "duration": 10, "velocity": 80}, {"time": 172920, "pitch": 66, "duration": 10, "velocity": 65}, {"time": 172920, "pitch": 71, "duration": 10, "velocity": 70}, {"time": 172930, "pitch": 62, "duration": 10, "velocity": 60}, {"time": 173040, "pitch": 62, "duration": 110, "velocity": 85}, {"time": 173040, "pitch": 66, "duration": 110, "velocity": 90}, {"time": 173050, "pitch": 71, "duration": 110, "velocity": 95}, {"time": 173160, "pitch": 66, "duration": 10, "velocity": 75}, {"time": 173160, "pitch": 71, "duration": 10, "velocity": 80}, {"time": 173170, "pitch": 62, "duration": 10, "velocity": 70}, {"time": 173280, "pitch": 62, "duration": 10, "velocity": 70}, {"time": 173280, "pitch": 66, "duration": 10, "velocity": 75}, {"time": 173290, "pitch": 71, "duration": 10, "velocity": 80}, {"time": 173400, "pitch": 66, "duration": 110, "velocity": 95}, {"time": 173400, "pitch": 71, "duration": 110, "velocity": 100}, {"time": 173410, "pitch": 62, "duration": 110, "velocity": 90}, {"time": 173520, "pitch": 62, "duration": 10, "velocity": 65}, {"time": 173520, "pitch": 66, "duration": 10, "velocity": 70}, {"time": 173530, "pitch": 71, "duration": 10, "velocity": 75}, {"time": 173640, "pitch": 66, "duration": 10, "velocity": 75}, {"time": 173640, "pitch": 71, "duration": 10, "velocity": 80}, {"time": 173650, "pitch": 62, "duration": 10, "velocity": 70}, {"time": 173760, "pitch": 62, "duration": 10, "velocity": 70}, {"time": 173760, "pitch": 66, "duration": 10, "velocity": 75}, {"time": 173770, "pitch": 71, "duration": 10, "velocity": 80}, {"time": 173880, "pitch": 66, "duration": 110, "velocity": 95}, {"time": 173880, "pitch": 71, "duration": 110, "velocity": 100}, {"time": 173890, "pitch": 62, "duration": 110, "velocity": 90}, {"time": 174000, "pitch": 62, "duration": 10, "velocity": 65}, {"time": 174000, "pitch": 66, "duration": 10, "velocity": 70}, {"time": 174010, "pitch": 71, "duration": 10, "velocity": 75}, {"time": 174120, "pitch": 66, "duration": 10, "velocity": 75}, {"time": 174120, "pitch": 71, "duration": 10, "velocity": 80}, {"time": 174130, "pitch": 62, "duration": 10, "velocity": 70}, {"time": 174240, "pitch": 62, "duration": 110, "velocity": 90}, {"time": 174240, "pitch": 66, "duration": 110, "velocity": 95}, {"time": 174250, "pitch": 71, "duration": 110, "velocity": 100}, {"time": 174360, "pitch": 66, "duration": 110, "velocity": 85}, {"time": 174360, "pitch": 71, "duration": 110, "velocity": 90}, {"time": 174370, "pitch": 62, "duration": 110, "velocity": 80}, {"time": 174480, "pitch": 62, "duration": 10, "velocity": 75}, {"time": 174480, "pitch": 66, "duration": 10, "velocity": 80}, {"time": 174490, "pitch": 71, "duration": 10, "velocity": 85}, {"time": 174600, "pitch": 66, "duration": 10, "velocity": 85}, {"time": 174600, "pitch": 71, "duration": 10, "velocity": 90}, {"time": 174610, "pitch": 62, "duration": 10, "velocity": 80}, {"time": 174720, "pitch": 62, "duration": 10, "velocity": 70}, {"time": 174720, "pitch": 66, "duration": 10, "velocity": 75}, {"time": 174730, "pitch": 71, "duration": 10, "velocity": 80}, {"time": 174840, "pitch": 66, "duration": 10, "velocity": 65}, {"time": 174840, "pitch": 71, "duration": 10, "velocity": 70}, {"time": 174850, "pitch": 62, "duration": 10, "velocity": 60}, {"time": 174960, "pitch": 62, "duration": 110, "velocity": 85}, {"time": 174960, "pitch": 66, "duration": 110, "velocity": 90}, {"time": 174970, "pitch": 71, "duration": 110, "velocity": 95}, {"time": 175080, "pitch": 66, "duration": 10, "velocity": 75}, {"time": 175080, "pitch": 71, "duration": 10, "velocity": 80}, {"time": 175090, "pitch": 62, "duration": 10, "velocity": 70}, {"time": 175200, "pitch": 62, "duration": 10, "velocity": 70}, {"time": 175200, "pitch": 66, "duration": 10, "velocity": 75}, {"time": 175210, "pitch": 71, "duration": 10, "velocity": 80}, {"time": 175320, "pitch": 66, "duration": 110, "velocity": 95}, {"time": 175320, "pitch": 71, "duration": 110, "velocity": 100}, {"time": 175330, "pitch": 62, "duration": 110, "velocity": 90}, {"time": 175440, "pitch": 62, "duration": 10, "velocity": 65}, {"time": 175440, "pitch": 66, "duration": 10, "velocity": 70}, {"time": 175450, "pitch": 71, "duration": 10, "velocity": 75}, {"time": 175560, "pitch": 66, "duration": 10, "velocity": 75}, {"time": 175560, "pitch": 71, "duration": 10, "velocity": 80}, {"time": 175570, "pitch": 62, "duration": 10, "velocity": 70}, {"time": 175680, "pitch": 61, "duration": 10, "velocity": 80}, {"time": 175680, "pitch": 67, "duration": 10, "velocity": 85}, {"time": 175690, "pitch": 71, "duration": 10, "velocity": 90}, {"time": 175800, "pitch": 67, "duration": 10, "velocity": 75}, {"time": 175800, "pitch": 71, "duration": 10, "velocity": 80}, {"time": 175810, "pitch": 61, "duration": 10, "velocity": 70}, {"time": 175920, "pitch": 61, "duration": 110, "velocity": 85}, {"time": 175920, "pitch": 67, "duration": 110, "velocity": 90}, {"time": 175930, "pitch": 71, "duration": 110, "velocity": 95}, {"time": 176040, "pitch": 67, "duration": 110, "velocity": 95}, {"time": 176040, "pitch": 71, "duration": 110, "velocity": 100}, {"time": 176050, "pitch": 61, "duration": 110, "velocity": 90}, {"time": 176160, "pitch": 61, "duration": 10, "velocity": 80}, {"time": 176160, "pitch": 67, "duration": 10, "velocity": 85}, {"time": 176170, "pitch": 71, "duration": 10, "velocity": 90}, {"time": 176280, "pitch": 67, "duration": 10, "velocity": 75}, {"time": 176280, "pitch": 71, "duration": 10, "velocity": 80}, {"time": 176290, "pitch": 61, "duration": 10, "velocity": 70}, {"time": 176400, "pitch": 61, "duration": 110, "velocity": 85}, {"time": 176400, "pitch": 67, "duration": 110, "velocity": 90}, {"time": 176410, "pitch": 71, "duration": 110, "velocity": 95}, {"time": 176520, "pitch": 67, "duration": 110, "velocity": 85}, {"time": 176520, "pitch": 71, "duration": 110, "velocity": 90}, {"time": 176530, "pitch": 61, "duration": 110, "velocity": 80}, {"time": 176640, "pitch": 61, "duration": 10, "velocity": 70}, {"time": 176640, "pitch": 67, "duration": 10, "velocity": 75}, {"time": 176650, "pitch": 71, "duration": 10, "velocity": 80}, {"time": 176760, "pitch": 67, "duration": 10, "velocity": 65}, {"time": 176760, "pitch": 71, "duration": 10, "velocity": 70}, {"time": 176770, "pitch": 61, "duration": 10, "velocity": 60}, {"time": 176880, "pitch": 61, "duration": 110, "velocity": 85}, {"time": 176880, "pitch": 67, "duration": 110, "velocity": 90}, {"time": 176890, "pitch": 71, "duration": 110, "velocity": 95}, {"time": 177000, "pitch": 67, "duration": 10, "velocity": 75}, {"time": 177000, "pitch": 71, "duration": 10, "velocity": 80}, {"time": 177010, "pitch": 61, "duration": 10, "velocity": 70}, {"time": 177120, "pitch": 61, "duration": 10, "velocity": 70}, {"time": 177120, "pitch": 67, "duration": 10, "velocity": 75}, {"time": 177130, "pitch": 71, "duration": 10, "velocity": 80}, {"time": 177240, "pitch": 67, "duration": 110, "velocity": 95}, {"time": 177240, "pitch": 71, "duration": 110, "velocity": 100}, {"time": 177250, "pitch": 61, "duration": 110, "velocity": 90}, {"time": 177360, "pitch": 61, "duration": 10, "velocity": 65}, {"time": 177360, "pitch": 67, "duration": 10, "velocity": 70}, {"time": 177370, "pitch": 71, "duration": 10, "velocity": 75}, {"time": 177480, "pitch": 67, "duration": 10, "velocity": 75}, {"time": 177480, "pitch": 71, "duration": 10, "velocity": 80}, {"time": 177490, "pitch": 61, "duration": 10, "velocity": 70}, {"time": 177600, "pitch": 61, "duration": 10, "velocity": 80}, {"time": 177600, "pitch": 67, "duration": 10, "velocity": 85}, {"time": 177610, "pitch": 71, "duration": 10, "velocity": 90}, {"time": 177720, "pitch": 67, "duration": 10, "velocity": 75}, {"time": 177720, "pitch": 71, "duration": 10, "velocity": 80}, {"time": 177730, "pitch": 61, "duration": 10, "velocity": 70}, {"time": 177840, "pitch": 61, "duration": 110, "velocity": 85}, {"time": 177840, "pitch": 67, "duration": 110, "velocity": 90}, {"time": 177850, "pitch": 71, "duration": 110, "velocity": 95}, {"time": 177960, "pitch": 67, "duration": 110, "velocity": 95}, {"time": 177960, "pitch": 71, "duration": 110, "velocity": 100}, {"time": 177970, "pitch": 61, "duration": 110, "velocity": 90}, {"time": 178080, "pitch": 61, "duration": 10, "velocity": 80}, {"time": 178080, "pitch": 67, "duration": 10, "velocity": 85}, {"time": 178090, "pitch": 71, "duration": 10, "velocity": 90}, {"time": 178200, "pitch": 67, "duration": 10, "velocity": 75}, {"time": 178200, "pitch": 71, "duration": 10, "velocity": 80}, {"time": 178210, "pitch": 61, "duration": 10, "velocity": 70}, {"time": 178320, "pitch": 61, "duration": 110, "velocity": 85}, {"time": 178320, "pitch": 67, "duration": 110, "velocity": 90}, {"time": 178330, "pitch": 71, "duration": 110, "velocity": 95}, {"time": 178440, "pitch": 67, "duration": 110, "velocity": 85}, {"time": 178440, "pitch": 71, "duration": 110, "velocity": 90}, {"time": 178450, "pitch": 61, "duration": 110, "velocity": 80}, {"time": 178560, "pitch": 61, "duration": 10, "velocity": 70}, {"time": 178560, "pitch": 67, "duration": 10, "velocity": 75}, {"time": 178570, "pitch": 71, "duration": 10, "velocity": 80}, {"time": 178680, "pitch": 67, "duration": 10, "velocity": 65}, {"time": 178680, "pitch": 71, "duration": 10, "velocity": 70}, {"time": 178690, "pitch": 61, "duration": 10, "velocity": 60}, {"time": 178800, "pitch": 61, "duration": 110, "velocity": 85}, {"time": 178800, "pitch": 67, "duration": 110, "velocity": 90}, {"time": 178810, "pitch": 71, "duration": 110, "velocity": 95}, {"time": 178920, "pitch": 67, "duration": 10, "velocity": 75}, {"time": 178920, "pitch": 71, "duration": 10, "velocity": 80}, {"time": 178930, "pitch": 61, "duration": 10, "velocity": 70}, {"time": 179040, "pitch": 61, "duration": 10, "velocity": 70}, {"time": 179040, "pitch": 67, "duration": 10, "velocity": 75}, {"time": 179050, "pitch": 71, "duration": 10, "velocity": 80}, {"time": 179160, "pitch": 67, "duration": 10, "velocity": 65}, {"time": 179160, "pitch": 71, "duration": 10, "velocity": 70}, {"time": 179170, "pitch": 61, "duration": 10, "velocity": 60}, {"time": 179280, "pitch": 61, "duration": 110, "velocity": 80}, {"time": 179280, "pitch": 67, "duration": 110, "velocity": 85}, {"time": 179290, "pitch": 71, "duration": 110, "velocity": 90}, {"time": 179400, "pitch": 67, "duration": 110, "velocity": 90}, {"time": 179400, "pitch": 71, "duration": 110, "velocity": 95}, {"time": 179410, "pitch": 61, "duration": 110, "velocity": 85}, {"time": 179520, "pitch": 56, "duration": 110, "velocity": 95}, {"time": 179520, "pitch": 62, "duration": 110, "velocity": 100}, {"time": 179530, "pitch": 66, "duration": 100, "velocity": 105}, {"time": 179530, "pitch": 71, "duration": 100, "velocity": 110}, {"time": 179640, "pitch": 66, "duration": 10, "velocity": 45}, {"time": 179640, "pitch": 71, "duration": 10, "velocity": 50}, {"time": 179650, "pitch": 56, "duration": 10, "velocity": 35}, {"time": 179650, "pitch": 62, "duration": 10, "velocity": 40}, {"time": 179760, "pitch": 56, "duration": 10, "velocity": 85}, {"time": 179760, "pitch": 62, "duration": 10, "velocity": 70}, {"time": 179770, "pitch": 66, "duration": 10, "velocity": 75}, {"time": 179770, "pitch": 71, "duration": 10, "velocity": 80}, {"time": 179880, "pitch": 66, "duration": 110, "velocity": 100}, {"time": 179880, "pitch": 71, "duration": 110, "velocity": 105}, {"time": 179890, "pitch": 56, "duration": 100, "velocity": 90}, {"time": 179890, "pitch": 62, "duration": 100, "velocity": 95}, {"time": 180000, "pitch": 56, "duration": 10, "velocity": 75}, {"time": 180000, "pitch": 62, "duration": 10, "velocity": 80}, {"time": 180010, "pitch": 66, "duration": 10, "velocity": 85}, {"time": 180010, "pitch": 71, "duration": 10, "velocity": 90}, {"time": 180120, "pitch": 66, "duration": 10, "velocity": 65}, {"time": 180120, "pitch": 71, "duration": 10, "velocity": 70}, {"time": 180130, "pitch": 56, "duration": 10, "velocity": 55}, {"time": 180130, "pitch": 62, "duration": 10, "velocity": 60}, {"time": 180240, "pitch": 56, "duration": 110, "velocity": 105}, {"time": 180240, "pitch": 62, "duration": 110, "velocity": 90}, {"time": 180250, "pitch": 66, "duration": 100, "velocity": 95}, {"time": 180250, "pitch": 71, "duration": 100, "velocity": 100}, {"time": 180360, "pitch": 66, "duration": 110, "velocity": 90}, {"time": 180360, "pitch": 71, "duration": 110, "velocity": 95}, {"time": 180370, "pitch": 56, "duration": 100, "velocity": 80}, {"time": 180370, "pitch": 62, "duration": 100, "velocity": 85}, {"time": 180480, "pitch": 56, "duration": 10, "velocity": 75}, {"time": 180480, "pitch": 62, "duration": 10, "velocity": 80}, {"time": 180490, "pitch": 66, "duration": 10, "velocity": 85}, {"time": 180490, "pitch": 71, "duration": 10, "velocity": 90}, {"time": 180600, "pitch": 66, "duration": 110, "velocity": 100}, {"time": 180600, "pitch": 71, "duration": 110, "velocity": 105}, {"time": 180610, "pitch": 56, "duration": 100, "velocity": 90}, {"time": 180610, "pitch": 62, "duration": 100, "velocity": 95}, {"time": 180720, "pitch": 56, "duration": 10, "velocity": 85}, {"time": 180720, "pitch": 62, "duration": 10, "velocity": 70}, {"time": 180730, "pitch": 66, "duration": 10, "velocity": 75}, {"time": 180730, "pitch": 71, "duration": 10, "velocity": 80}, {"time": 180840, "pitch": 66, "duration": 10, "velocity": 85}, {"time": 180840, "pitch": 71, "duration": 10, "velocity": 90}, {"time": 180850, "pitch": 56, "duration": 10, "velocity": 75}, {"time": 180850, "pitch": 62, "duration": 10, "velocity": 80}, {"time": 180960, "pitch": 56, "duration": 110, "velocity": 95}, {"time": 180960, "pitch": 62, "duration": 110, "velocity": 100}, {"time": 180970, "pitch": 66, "duration": 100, "velocity": 105}, {"time": 180970, "pitch": 71, "duration": 100, "velocity": 110}, {"time": 181080, "pitch": 66, "duration": 110, "velocity": 75}, {"time": 181080, "pitch": 71, "duration": 110, "velocity": 80}, {"time": 181090, "pitch": 56, "duration": 100, "velocity": 65}, {"time": 181090, "pitch": 62, "duration": 100, "velocity": 70}, {"time": 181200, "pitch": 56, "duration": 10, "velocity": 85}, {"time": 181200, "pitch": 62, "duration": 10, "velocity": 70}, {"time": 181210, "pitch": 66, "duration": 10, "velocity": 75}, {"time": 181210, "pitch": 71, "duration": 10, "velocity": 80}, {"time": 181320, "pitch": 66, "duration": 10, "velocity": 85}, {"time": 181320, "pitch": 71, "duration": 10, "velocity": 90}, {"time": 181330, "pitch": 56, "duration": 10, "velocity": 75}, {"time": 181330, "pitch": 62, "duration": 10, "velocity": 80}, {"time": 181440, "pitch": 56, "duration": 110, "velocity": 95}, {"time": 181440, "pitch": 62, "duration": 110, "velocity": 100}, {"time": 181450, "pitch": 66, "duration": 100, "velocity": 105}, {"time": 181450, "pitch": 71, "duration": 100, "velocity": 110}, {"time": 181560, "pitch": 66, "duration": 10, "velocity": 45}, {"time": 181560, "pitch": 71, "duration": 10, "velocity": 50}, {"time": 181570, "pitch": 56, "duration": 10, "velocity": 35}, {"time": 181570, "pitch": 62, "duration": 10, "velocity": 40}, {"time": 181680, "pitch": 56, "duration": 10, "velocity": 85}, {"time": 181680, "pitch": 62, "duration": 10, "velocity": 70}, {"time": 181690, "pitch": 66, "duration": 10, "velocity": 75}, {"time": 181690, "pitch": 71, "duration": 10, "velocity": 80}, {"time": 181800, "pitch": 66, "duration": 110, "velocity": 100}, {"time": 181800, "pitch": 71, "duration": 110, "velocity": 105}, {"time": 181810, "pitch": 56, "duration": 100, "velocity": 90}, {"time": 181810, "pitch": 62, "duration": 100, "velocity": 95}, {"time": 181920, "pitch": 56, "duration": 10, "velocity": 75}, {"time": 181920, "pitch": 62, "duration": 10, "velocity": 80}, {"time": 181930, "pitch": 66, "duration": 10, "velocity": 85}, {"time": 181930, "pitch": 71, "duration": 10, "velocity": 90}, {"time": 182040, "pitch": 66, "duration": 10, "velocity": 65}, {"time": 182040, "pitch": 71, "duration": 10, "velocity": 70}, {"time": 182050, "pitch": 56, "duration": 10, "velocity": 55}, {"time": 182050, "pitch": 62, "duration": 10, "velocity": 60}, {"time": 182160, "pitch": 56, "duration": 110, "velocity": 105}, {"time": 182160, "pitch": 62, "duration": 110, "velocity": 90}, {"time": 182170, "pitch": 66, "duration": 100, "velocity": 95}, {"time": 182170, "pitch": 71, "duration": 100, "velocity": 100}, {"time": 182280, "pitch": 66, "duration": 110, "velocity": 90}, {"time": 182280, "pitch": 71, "duration": 110, "velocity": 95}, {"time": 182290, "pitch": 56, "duration": 100, "velocity": 80}, {"time": 182290, "pitch": 62, "duration": 100, "velocity": 85}, {"time": 182400, "pitch": 56, "duration": 10, "velocity": 75}, {"time": 182400, "pitch": 62, "duration": 10, "velocity": 80}, {"time": 182410, "pitch": 66, "duration": 10, "velocity": 85}, {"time": 182410, "pitch": 71, "duration": 10, "velocity": 90}, {"time": 182520, "pitch": 66, "duration": 110, "velocity": 100}, {"time": 182520, "pitch": 71, "duration": 110, "velocity": 105}, {"time": 182530, "pitch": 56, "duration": 100, "velocity": 90}, {"time": 182530, "pitch": 62, "duration": 100, "velocity": 95}, {"time": 182640, "pitch": 56, "duration": 10, "velocity": 85}, {"time": 182640, "pitch": 62, "duration": 10, "velocity": 70}, {"time": 182650, "pitch": 66, "duration": 10, "velocity": 75}, {"time": 182650, "pitch": 71, "duration": 10, "velocity": 80}, {"time": 182760, "pitch": 66, "duration": 10, "velocity": 85}, {"time": 182760, "pitch": 71, "duration": 10, "velocity": 90}, {"time": 182770, "pitch": 56, "duration": 10, "velocity": 75}, {"time": 182770, "pitch": 62, "duration": 10, "velocity": 80}, {"time": 182880, "pitch": 56, "duration": 110, "velocity": 95}, {"time": 182880, "pitch": 62, "duration": 110, "velocity": 100}, {"time": 182890, "pitch": 66, "duration": 100, "velocity": 105}, {"time": 182890, "pitch": 71, "duration": 100, "velocity": 110}, {"time": 183000, "pitch": 66, "duration": 110, "velocity": 75}, {"time": 183000, "pitch": 71, "duration": 110, "velocity": 80}, {"time": 183010, "pitch": 56, "duration": 100, "velocity": 65}, {"time": 183010, "pitch": 62, "duration": 100, "velocity": 70}, {"time": 183120, "pitch": 56, "duration": 10, "velocity": 85}, {"time": 183120, "pitch": 62, "duration": 10, "velocity": 70}, {"time": 183130, "pitch": 66, "duration": 10, "velocity": 75}, {"time": 183130, "pitch": 71, "duration": 10, "velocity": 80}, {"time": 183240, "pitch": 66, "duration": 10, "velocity": 85}, {"time": 183240, "pitch": 71, "duration": 10, "velocity": 90}, {"time": 183250, "pitch": 56, "duration": 10, "velocity": 75}, {"time": 183250, "pitch": 62, "duration": 10, "velocity": 80}, {"time": 183360, "pitch": 56, "duration": 110, "velocity": 95}, {"time": 183360, "pitch": 62, "duration": 110, "velocity": 100}, {"time": 183370, "pitch": 66, "duration": 100, "velocity": 105}, {"time": 183370, "pitch": 71, "duration": 100, "velocity": 110}, {"time": 183480, "pitch": 66, "duration": 10, "velocity": 45}, {"time": 183480, "pitch": 71, "duration": 10, "velocity": 50}, {"time": 183490, "pitch": 56, "duration": 10, "velocity": 35}, {"time": 183490, "pitch": 62, "duration": 10, "velocity": 40}, {"time": 183600, "pitch": 56, "duration": 10, "velocity": 85}, {"time": 183600, "pitch": 62, "duration": 10, "velocity": 70}, {"time": 183610, "pitch": 66, "duration": 10, "velocity": 75}, {"time": 183610, "pitch": 71, "duration": 10, "velocity": 80}, {"time": 183720, "pitch": 66, "duration": 110, "velocity": 100}, {"time": 183720, "pitch": 71, "duration": 110, "velocity": 105}, {"time": 183730, "pitch": 56, "duration": 100, "velocity": 90}, {"time": 183730, "pitch": 62, "duration": 100, "velocity": 95}, {"time": 183840, "pitch": 56, "duration": 10, "velocity": 75}, {"time": 183840, "pitch": 62, "duration": 10, "velocity": 80}, {"time": 183850, "pitch": 66, "duration": 10, "velocity": 85}, {"time": 183850, "pitch": 71, "duration": 10, "velocity": 90}, {"time": 183960, "pitch": 66, "duration": 10, "velocity": 65}, {"time": 183960, "pitch": 71, "duration": 10, "velocity": 70}, {"time": 183970, "pitch": 56, "duration": 10, "velocity": 55}, {"time": 183970, "pitch": 62, "duration": 10, "velocity": 60}, {"time": 184080, "pitch": 56, "duration": 110, "velocity": 105}, {"time": 184080, "pitch": 62, "duration": 110, "velocity": 90}, {"time": 184090, "pitch": 66, "duration": 100, "velocity": 95}, {"time": 184090, "pitch": 71, "duration": 100, "velocity": 100}, {"time": 184200, "pitch": 66, "duration": 110, "velocity": 90}, {"time": 184200, "pitch": 71, "duration": 110, "velocity": 95}, {"time": 184210, "pitch": 56, "duration": 100, "velocity": 80}, {"time": 184210, "pitch": 62, "duration": 100, "velocity": 85}, {"time": 184320, "pitch": 56, "duration": 10, "velocity": 75}, {"time": 184320, "pitch": 62, "duration": 10, "velocity": 80}, {"time": 184330, "pitch": 66, "duration": 10, "velocity": 85}, {"time": 184330, "pitch": 71, "duration": 10, "velocity": 90}, {"time": 184440, "pitch": 66, "duration": 110, "velocity": 100}, {"time": 184440, "pitch": 71, "duration": 110, "velocity": 105}, {"time": 184450, "pitch": 56, "duration": 100, "velocity": 90}, {"time": 184450, "pitch": 62, "duration": 100, "velocity": 95}, {"time": 184560, "pitch": 56, "duration": 10, "velocity": 85}, {"time": 184560, "pitch": 62, "duration": 10, "velocity": 70}, {"time": 184570, "pitch": 66, "duration": 10, "velocity": 75}, {"time": 184570, "pitch": 71, "duration": 10, "velocity": 80}, {"time": 184680, "pitch": 66, "duration": 10, "velocity": 85}, {"time": 184680, "pitch": 71, "duration": 10, "velocity": 90}, {"time": 184690, "pitch": 56, "duration": 10, "velocity": 75}, {"time": 184690, "pitch": 62, "duration": 10, "velocity": 80}, {"time": 184800, "pitch": 56, "duration": 110, "velocity": 95}, {"time": 184800, "pitch": 62, "duration": 110, "velocity": 100}, {"time": 184810, "pitch": 66, "duration": 100, "velocity": 105}, {"time": 184810, "pitch": 71, "duration": 100, "velocity": 110}, {"time": 184920, "pitch": 66, "duration": 110, "velocity": 75}, {"time": 184920, "pitch": 71, "duration": 110, "velocity": 80}, {"time": 184930, "pitch": 56, "duration": 100, "velocity": 65}, {"time": 184930, "pitch": 62, "duration": 100, "velocity": 70}, {"time": 185040, "pitch": 56, "duration": 10, "velocity": 85}, {"time": 185040, "pitch": 62, "duration": 10, "velocity": 70}, {"time": 185050, "pitch": 66, "duration": 10, "velocity": 75}, {"time": 185050, "pitch": 71, "duration": 10, "velocity": 80}, {"time": 185160, "pitch": 66, "duration": 10, "velocity": 85}, {"time": 185160, "pitch": 71, "duration": 10, "velocity": 90}, {"time": 185170, "pitch": 56, "duration": 10, "velocity": 75}, {"time": 185170, "pitch": 62, "duration": 10, "velocity": 80}, {"time": 185280, "pitch": 56, "duration": 110, "velocity": 95}, {"time": 185280, "pitch": 62, "duration": 110, "velocity": 100}, {"time": 185290, "pitch": 66, "duration": 100, "velocity": 105}, {"time": 185290, "pitch": 71, "duration": 100, "velocity": 110}, {"time": 185400, "pitch": 66, "duration": 10, "velocity": 45}, {"time": 185400, "pitch": 71, "duration": 10, "velocity": 50}, {"time": 185410, "pitch": 56, "duration": 10, "velocity": 35}, {"time": 185410, "pitch": 62, "duration": 10, "velocity": 40}, {"time": 185520, "pitch": 56, "duration": 10, "velocity": 85}, {"time": 185520, "pitch": 62, "duration": 10, "velocity": 70}, {"time": 185530, "pitch": 66, "duration": 10, "velocity": 75}, {"time": 185530, "pitch": 71, "duration": 10, "velocity": 80}, {"time": 185640, "pitch": 66, "duration": 110, "velocity": 100}, {"time": 185640, "pitch": 71, "duration": 110, "velocity": 105}, {"time": 185650, "pitch": 56, "duration": 100, "velocity": 90}, {"time": 185650, "pitch": 62, "duration": 100, "velocity": 95}, {"time": 185760, "pitch": 56, "duration": 10, "velocity": 75}, {"time": 185760, "pitch": 62, "duration": 10, "velocity": 80}, {"time": 185770, "pitch": 66, "duration": 10, "velocity": 85}, {"time": 185770, "pitch": 71, "duration": 10, "velocity": 90}, {"time": 185880, "pitch": 66, "duration": 10, "velocity": 65}, {"time": 185880, "pitch": 71, "duration": 10, "velocity": 70}, {"time": 185890, "pitch": 56, "duration": 10, "velocity": 55}, {"time": 185890, "pitch": 62, "duration": 10, "velocity": 60}, {"time": 186000, "pitch": 56, "duration": 110, "velocity": 105}, {"time": 186000, "pitch": 62, "duration": 110, "velocity": 90}, {"time": 186010, "pitch": 66, "duration": 100, "velocity": 95}, {"time": 186010, "pitch": 71, "duration": 100, "velocity": 100}, {"time": 186120, "pitch": 66, "duration": 110, "velocity": 90}, {"time": 186120, "pitch": 71, "duration": 110, "velocity": 95}, {"time": 186130, "pitch": 56, "duration": 100, "velocity": 80}, {"time": 186130, "pitch": 62, "duration": 100, "velocity": 85}, {"time": 186240, "pitch": 56, "duration": 10, "velocity": 75}, {"time": 186240, "pitch": 62, "duration": 10, "velocity": 80}, {"time": 186250, "pitch": 66, "duration": 10, "velocity": 85}, {"time": 186250, "pitch": 71, "duration": 10, "velocity": 90}, {"time": 186360, "pitch": 66, "duration": 110, "velocity": 100}, {"time": 186360, "pitch": 71, "duration": 110, "velocity": 105}, {"time": 186370, "pitch": 56, "duration": 100, "velocity": 90}, {"time": 186370, "pitch": 62, "duration": 100, "velocity": 95}, {"time": 186480, "pitch": 56, "duration": 10, "velocity": 85}, {"time": 186480, "pitch": 62, "duration": 10, "velocity": 70}, {"time": 186490, "pitch": 66, "duration": 10, "velocity": 75}, {"time": 186490, "pitch": 71, "duration": 10, "velocity": 80}, {"time": 186600, "pitch": 66, "duration": 10, "velocity": 85}, {"time": 186600, "pitch": 71, "duration": 10, "velocity": 90}, {"time": 186610, "pitch": 56, "duration": 10, "velocity": 75}, {"time": 186610, "pitch": 62, "duration": 10, "velocity": 80}, {"time": 186720, "pitch": 56, "duration": 110, "velocity": 95}, {"time": 186720, "pitch": 62, "duration": 110, "velocity": 100}, {"time": 186730, "pitch": 66, "duration": 100, "velocity": 105}, {"time": 186730, "pitch": 71, "duration": 100, "velocity": 110}, {"time": 186840, "pitch": 66, "duration": 110, "velocity": 75}, {"time": 186840, "pitch": 71, "duration": 110, "velocity": 80}, {"time": 186850, "pitch": 56, "duration": 100, "velocity": 65}, {"time": 186850, "pitch": 62, "duration": 100, "velocity": 70}, {"time": 186960, "pitch": 56, "duration": 10, "velocity": 85}, {"time": 186960, "pitch": 62, "duration": 10, "velocity": 70}, {"time": 186970, "pitch": 66, "duration": 10, "velocity": 75}, {"time": 186970, "pitch": 71, "duration": 10, "velocity": 80}, {"time": 187080, "pitch": 66, "duration": 10, "velocity": 85}, {"time": 187080, "pitch": 71, "duration": 10, "velocity": 90}, {"time": 187090, "pitch": 56, "duration": 10, "velocity": 75}, {"time": 187090, "pitch": 62, "duration": 10, "velocity": 80}, {"time": 187200, "pitch": 56, "duration": 110, "velocity": 95}, {"time": 187200, "pitch": 62, "duration": 110, "velocity": 100}, {"time": 187210, "pitch": 66, "duration": 100, "velocity": 105}, {"time": 187210, "pitch": 71, "duration": 100, "velocity": 110}, {"time": 187320, "pitch": 66, "duration": 10, "velocity": 45}, {"time": 187320, "pitch": 71, "duration": 10, "velocity": 50}, {"time": 187330, "pitch": 56, "duration": 10, "velocity": 35}, {"time": 187330, "pitch": 62, "duration": 10, "velocity": 40}, {"time": 187440, "pitch": 56, "duration": 10, "velocity": 85}, {"time": 187440, "pitch": 62, "duration": 10, "velocity": 70}, {"time": 187450, "pitch": 66, "duration": 10, "velocity": 75}, {"time": 187450, "pitch": 71, "duration": 10, "velocity": 80}, {"time": 187560, "pitch": 66, "duration": 110, "velocity": 100}, {"time": 187560, "pitch": 71, "duration": 110, "velocity": 105}, {"time": 187570, "pitch": 56, "duration": 100, "velocity": 90}, {"time": 187570, "pitch": 62, "duration": 100, "velocity": 95}, {"time": 187680, "pitch": 56, "duration": 10, "velocity": 75}, {"time": 187680, "pitch": 62, "duration": 10, "velocity": 80}, {"time": 187690, "pitch": 66, "duration": 10, "velocity": 85}, {"time": 187690, "pitch": 71, "duration": 10, "velocity": 90}, {"time": 187800, "pitch": 66, "duration": 10, "velocity": 65}, {"time": 187800, "pitch": 71, "duration": 10, "velocity": 70}, {"time": 187810, "pitch": 56, "duration": 10, "velocity": 55}, {"time": 187810, "pitch": 62, "duration": 10, "velocity": 60}, {"time": 187920, "pitch": 56, "duration": 110, "velocity": 105}, {"time": 187920, "pitch": 62, "duration": 110, "velocity": 90}, {"time": 187930, "pitch": 66, "duration": 100, "velocity": 95}, {"time": 187930, "pitch": 71, "duration": 100, "velocity": 100}, {"time": 188040, "pitch": 66, "duration": 110, "velocity": 90}, {"time": 188040, "pitch": 71, "duration": 110, "velocity": 95}, {"time": 188050, "pitch": 56, "duration": 100, "velocity": 80}, {"time": 188050, "pitch": 62, "duration": 100, "velocity": 85}, {"time": 188160, "pitch": 56, "duration": 10, "velocity": 75}, {"time": 188160, "pitch": 62, "duration": 10, "velocity": 80}, {"time": 188170, "pitch": 66, "duration": 10, "velocity": 85}, {"time": 188170, "pitch": 71, "duration": 10, "velocity": 90}, {"time": 188280, "pitch": 66, "duration": 110, "velocity": 100}, {"time": 188280, "pitch": 71, "duration": 110, "velocity": 105}, {"time": 188290, "pitch": 56, "duration": 100, "velocity": 90}, {"time": 188290, "pitch": 62, "duration": 100, "velocity": 95}, {"time": 188400, "pitch": 56, "duration": 10, "velocity": 85}, {"time": 188400, "pitch": 62, "duration": 10, "velocity": 70}, {"time": 188410, "pitch": 66, "duration": 10, "velocity": 75}, {"time": 188410, "pitch": 71, "duration": 10, "velocity": 80}, {"time": 188520, "pitch": 66, "duration": 10, "velocity": 85}, {"time": 188520, "pitch": 71, "duration": 10, "velocity": 90}, {"time": 188530, "pitch": 56, "duration": 10, "velocity": 75}, {"time": 188530, "pitch": 62, "duration": 10, "velocity": 80}, {"time": 188640, "pitch": 56, "duration": 110, "velocity": 95}, {"time": 188640, "pitch": 62, "duration": 110, "velocity": 100}, {"time": 188650, "pitch": 66, "duration": 100, "velocity": 105}, {"time": 188650, "pitch": 71, "duration": 100, "velocity": 110}, {"time": 188760, "pitch": 66, "duration": 110, "velocity": 75}, {"time": 188760, "pitch": 71, "duration": 110, "velocity": 80}, {"time": 188770, "pitch": 56, "duration": 100, "velocity": 65}, {"time": 188770, "pitch": 62, "duration": 100, "velocity": 70}, {"time": 188880, "pitch": 56, "duration": 10, "velocity": 85}, {"time": 188880, "pitch": 62, "duration": 10, "velocity": 70}, {"time": 188890, "pitch": 66, "duration": 10, "velocity": 75}, {"time": 188890, "pitch": 71, "duration": 10, "velocity": 80}, {"time": 189000, "pitch": 66, "duration": 10, "velocity": 85}, {"time": 189000, "pitch": 71, "duration": 10, "velocity": 90}, {"time": 189010, "pitch": 56, "duration": 10, "velocity": 75}, {"time": 189010, "pitch": 62, "duration": 10, "velocity": 80}, {"time": 189120, "pitch": 56, "duration": 110, "velocity": 95}, {"time": 189120, "pitch": 62, "duration": 110, "velocity": 100}, {"time": 189130, "pitch": 66, "duration": 100, "velocity": 105}, {"time": 189130, "pitch": 71, "duration": 100, "velocity": 110}, {"time": 189240, "pitch": 66, "duration": 10, "velocity": 45}, {"time": 189240, "pitch": 71, "duration": 10, "velocity": 50}, {"time": 189250, "pitch": 56, "duration": 10, "velocity": 35}, {"time": 189250, "pitch": 62, "duration": 10, "velocity": 40}, {"time": 189360, "pitch": 56, "duration": 10, "velocity": 85}, {"time": 189360, "pitch": 62, "duration": 10, "velocity": 70}, {"time": 189370, "pitch": 66, "duration": 10, "velocity": 75}, {"time": 189370, "pitch": 71, "duration": 10, "velocity": 80}, {"time": 189480, "pitch": 66, "duration": 110, "velocity": 100}, {"time": 189480, "pitch": 71, "duration": 110, "velocity": 105}, {"time": 189490, "pitch": 56, "duration": 100, "velocity": 90}, {"time": 189490, "pitch": 62, "duration": 100, "velocity": 95}, {"time": 189600, "pitch": 56, "duration": 10, "velocity": 75}, {"time": 189600, "pitch": 62, "duration": 10, "velocity": 80}, {"time": 189610, "pitch": 66, "duration": 10, "velocity": 85}, {"time": 189610, "pitch": 71, "duration": 10, "velocity": 90}, {"time": 189720, "pitch": 66, "duration": 10, "velocity": 65}, {"time": 189720, "pitch": 71, "duration": 10, "velocity": 70}, {"time": 189730, "pitch": 56, "duration": 10, "velocity": 55}, {"time": 189730, "pitch": 62, "duration": 10, "velocity": 60}, {"time": 189840, "pitch": 56, "duration": 110, "velocity": 105}, {"time": 189840, "pitch": 62, "duration": 110, "velocity": 90}, {"time": 189850, "pitch": 66, "duration": 100, "velocity": 95}, {"time": 189850, "pitch": 71, "duration": 100, "velocity": 100}, {"time": 189960, "pitch": 66, "duration": 110, "velocity": 90}, {"time": 189960, "pitch": 71, "duration": 110, "velocity": 95}, {"time": 189970, "pitch": 56, "duration": 100, "velocity": 80}, {"time": 189970, "pitch": 62, "duration": 100, "velocity": 85}, {"time": 190080, "pitch": 56, "duration": 10, "velocity": 75}, {"time": 190080, "pitch": 62, "duration": 10, "velocity": 80}, {"time": 190090, "pitch": 66, "duration": 10, "velocity": 85}, {"time": 190090, "pitch": 71, "duration": 10, "velocity": 90}, {"time": 190200, "pitch": 66, "duration": 110, "velocity": 100}, {"time": 190200, "pitch": 71, "duration": 110, "velocity": 105}, {"time": 190210, "pitch": 56, "duration": 100, "velocity": 90}, {"time": 190210, "pitch": 62, "duration": 100, "velocity": 95}, {"time": 190320, "pitch": 56, "duration": 10, "velocity": 85}, {"time": 190320, "pitch": 62, "duration": 10, "velocity": 70}, {"time": 190330, "pitch": 66, "duration": 10, "velocity": 75}, {"time": 190330, "pitch": 71, "duration": 10, "velocity": 80}, {"time": 190440, "pitch": 66, "duration": 10, "velocity": 85}, {"time": 190440, "pitch": 71, "duration": 10, "velocity": 90}, {"time": 190450, "pitch": 56, "duration": 10, "velocity": 75}, {"time": 190450, "pitch": 62, "duration": 10, "velocity": 80}, {"time": 190560, "pitch": 56, "duration": 110, "velocity": 95}, {"time": 190560, "pitch": 62, "duration": 110, "velocity": 100}, {"time": 190570, "pitch": 66, "duration": 100, "velocity": 105}, {"time": 190570, "pitch": 71, "duration": 100, "velocity": 110}, {"time": 190680, "pitch": 66, "duration": 110, "velocity": 75}, {"time": 190680, "pitch": 71, "duration": 110, "velocity": 80}, {"time": 190690, "pitch": 56, "duration": 100, "velocity": 65}, {"time": 190690, "pitch": 62, "duration": 100, "velocity": 70}, {"time": 190800, "pitch": 56, "duration": 10, "velocity": 85}, {"time": 190800, "pitch": 62, "duration": 10, "velocity": 70}, {"time": 190810, "pitch": 66, "duration": 10, "velocity": 75}, {"time": 190810, "pitch": 71, "duration": 10, "velocity": 80}, {"time": 190920, "pitch": 66, "duration": 10, "velocity": 85}, {"time": 190920, "pitch": 71, "duration": 10, "velocity": 90}, {"time": 190930, "pitch": 56, "duration": 10, "velocity": 75}, {"time": 190930, "pitch": 62, "duration": 10, "velocity": 80}, {"time": 191040, "pitch": 56, "duration": 110, "velocity": 95}, {"time": 191040, "pitch": 62, "duration": 110, "velocity": 100}, {"time": 191050, "pitch": 66, "duration": 100, "velocity": 105}, {"time": 191050, "pitch": 71, "duration": 100, "velocity": 110}, {"time": 191160, "pitch": 66, "duration": 10, "velocity": 45}, {"time": 191160, "pitch": 71, "duration": 10, "velocity": 50}, {"time": 191170, "pitch": 56, "duration": 10, "velocity": 35}, {"time": 191170, "pitch": 62, "duration": 10, "velocity": 40}, {"time": 191280, "pitch": 56, "duration": 10, "velocity": 85}, {"time": 191280, "pitch": 62, "duration": 10, "velocity": 70}, {"time": 191290, "pitch": 66, "duration": 10, "velocity": 75}, {"time": 191290, "pitch": 71, "duration": 10, "velocity": 80}, {"time": 191400, "pitch": 66, "duration": 110, "velocity": 100}, {"time": 191400, "pitch": 71, "duration": 110, "velocity": 105}, {"time": 191410, "pitch": 56, "duration": 100, "velocity": 90}, {"time": 191410, "pitch": 62, "duration": 100, "velocity": 95}, {"time": 191520, "pitch": 56, "duration": 10, "velocity": 75}, {"time": 191520, "pitch": 62, "duration": 10, "velocity": 80}, {"time": 191530, "pitch": 66, "duration": 10, "velocity": 85}, {"time": 191530, "pitch": 71, "duration": 10, "velocity": 90}, {"time": 191640, "pitch": 66, "duration": 10, "velocity": 65}, {"time": 191640, "pitch": 71, "duration": 10, "velocity": 70}, {"time": 191650, "pitch": 56, "duration": 10, "velocity": 55}, {"time": 191650, "pitch": 62, "duration": 10, "velocity": 60}, {"time": 191760, "pitch": 56, "duration": 110, "velocity": 105}, {"time": 191760, "pitch": 62, "duration": 110, "velocity": 90}, {"time": 191770, "pitch": 66, "duration": 100, "velocity": 95}, {"time": 191770, "pitch": 71, "duration": 100, "velocity": 100}, {"time": 191880, "pitch": 66, "duration": 110, "velocity": 90}, {"time": 191880, "pitch": 71, "duration": 110, "velocity": 95}, {"time": 191890, "pitch": 56, "duration": 100, "velocity": 80}, {"time": 191890, "pitch": 62, "duration": 100, "velocity": 85}, {"time": 192000, "pitch": 56, "duration": 10, "velocity": 75}, {"time": 192000, "pitch": 62, "duration": 10, "velocity": 80}, {"time": 192010, "pitch": 66, "duration": 10, "velocity": 85}, {"time": 192010, "pitch": 71, "duration": 10, "velocity": 90}, {"time": 192120, "pitch": 66, "duration": 110, "velocity": 100}, {"time": 192120, "pitch": 71, "duration": 110, "velocity": 105}, {"time": 192130, "pitch": 56, "duration": 100, "velocity": 90}, {"time": 192130, "pitch": 62, "duration": 100, "velocity": 95}, {"time": 192240, "pitch": 56, "duration": 10, "velocity": 85}, {"time": 192240, "pitch": 62, "duration": 10, "velocity": 70}, {"time": 192250, "pitch": 66, "duration": 10, "velocity": 75}, {"time": 192250, "pitch": 71, "duration": 10, "velocity": 80}, {"time": 192360, "pitch": 66, "duration": 10, "velocity": 85}, {"time": 192360, "pitch": 71, "duration": 10, "velocity": 90}, {"time": 192370, "pitch": 56, "duration": 10, "velocity": 75}, {"time": 192370, "pitch": 62, "duration": 10, "velocity": 80}, {"time": 192480, "pitch": 56, "duration": 110, "velocity": 95}, {"time": 192480, "pitch": 62, "duration": 110, "velocity": 100}, {"time": 192490, "pitch": 66, "duration": 100, "velocity": 105}, {"time": 192490, "pitch": 71, "duration": 100, "velocity": 110}, {"time": 192600, "pitch": 66, "duration": 110, "velocity": 75}, {"time": 192600, "pitch": 71, "duration": 110, "velocity": 80}, {"time": 192610, "pitch": 56, "duration": 100, "velocity": 65}, {"time": 192610, "pitch": 62, "duration": 100, "velocity": 70}, {"time": 192720, "pitch": 56, "duration": 10, "velocity": 85}, {"time": 192720, "pitch": 62, "duration": 10, "velocity": 70}, {"time": 192730, "pitch": 66, "duration": 10, "velocity": 75}, {"time": 192730, "pitch": 71, "duration": 10, "velocity": 80}, {"time": 192840, "pitch": 66, "duration": 10, "velocity": 85}, {"time": 192840, "pitch": 71, "duration": 10, "velocity": 90}, {"time": 192850, "pitch": 56, "duration": 10, "velocity": 75}, {"time": 192850, "pitch": 62, "duration": 10, "velocity": 80}, {"time": 192960, "pitch": 56, "duration": 160, "velocity": 95}, {"time": 192960, "pitch": 62, "duration": 160, "velocity": 100}, {"time": 192970, "pitch": 66, "duration": 160, "velocity": 105}, {"time": 192970, "pitch": 71, "duration": 160, "velocity": 110}, {"time": 194520, "pitch": 53, "duration": 340, "velocity": 85}, {"time": 194520, "pitch": 63, "duration": 340, "velocity": 90}, {"time": 194530, "pitch": 65, "duration": 340, "velocity": 95}, {"time": 194530, "pitch": 70, "duration": 340, "velocity": 100}, {"time": 1440, "pitch": 40, "duration": 320, "velocity": 100}, {"time": 1680, "pitch": 52, "duration": 240, "velocity": 110}, {"time": 1920, "pitch": 40, "duration": 240, "velocity": 50}, {"time": 1920, "pitch": 50, "duration": 30, "velocity": 90}, {"time": 2040, "pitch": 50, "duration": 120, "velocity": 105}, {"time": 2160, "pitch": 50, "duration": 30, "velocity": 90}, {"time": 2280, "pitch": 50, "duration": 120, "velocity": 105}, {"time": 2400, "pitch": 50, "duration": 30, "velocity": 90}, {"time": 2520, "pitch": 50, "duration": 120, "velocity": 75}, {"time": 2640, "pitch": 40, "duration": 120, "velocity": 55}, {"time": 2640, "pitch": 49, "duration": 120, "velocity": 105}, {"time": 2760, "pitch": 49, "duration": 30, "velocity": 85}, {"time": 2880, "pitch": 40, "duration": 120, "velocity": 50}, {"time": 2880, "pitch": 50, "duration": 160, "velocity": 100}, {"time": 3000, "pitch": 40, "duration": 120, "velocity": 55}, {"time": 3120, "pitch": 40, "duration": 120, "velocity": 75}, {"time": 3240, "pitch": 40, "duration": 120, "velocity": 70}, {"time": 3360, "pitch": 40, "duration": 320, "velocity": 100}, {"time": 3600, "pitch": 52, "duration": 240, "velocity": 110}, {"time": 3840, "pitch": 40, "duration": 240, "velocity": 50}, {"time": 3840, "pitch": 50, "duration": 30, "velocity": 90}, {"time": 3960, "pitch": 50, "duration": 120, "velocity": 105}, {"time": 4080, "pitch": 50, "duration": 30, "velocity": 90}, {"time": 4200, "pitch": 50, "duration": 120, "velocity": 105}, {"time": 4320, "pitch": 50, "duration": 30, "velocity": 90}, {"time": 4440, "pitch": 50, "duration": 120, "velocity": 75}, {"time": 4560, "pitch": 40, "duration": 120, "velocity": 55}, {"time": 4560, "pitch": 49, "duration": 120, "velocity": 105}, {"time": 4680, "pitch": 49, "duration": 30, "velocity": 85}, {"time": 4800, "pitch": 40, "duration": 120, "velocity": 50}, {"time": 4800, "pitch": 50, "duration": 160, "velocity": 100}, {"time": 4920, "pitch": 40, "duration": 120, "velocity": 55}, {"time": 5040, "pitch": 40, "duration": 120, "velocity": 75}, {"time": 5160, "pitch": 40, "duration": 120, "velocity": 70}, {"time": 5280, "pitch": 40, "duration": 320, "velocity": 100}, {"time": 5520, "pitch": 52, "duration": 240, "velocity": 110}, {"time": 5760, "pitch": 40, "duration": 240, "velocity": 50}, {"time": 5760, "pitch": 50, "duration": 30, "velocity": 90}, {"time": 5880, "pitch": 50, "duration": 120, "velocity": 105}, {"time": 6000, "pitch": 50, "duration": 30, "velocity": 90}, {"time": 6120, "pitch": 50, "duration": 120, "velocity": 105}, {"time": 6240, "pitch": 50, "duration": 30, "velocity": 90}, {"time": 6360, "pitch": 50, "duration": 120, "velocity": 75}, {"time": 6480, "pitch": 40, "duration": 120, "velocity": 55}, {"time": 6480, "pitch": 49, "duration": 120, "velocity": 105}, {"time": 6600, "pitch": 49, "duration": 30, "velocity": 85}, {"time": 6720, "pitch": 40, "duration": 120, "velocity": 50}, {"time": 6720, "pitch": 50, "duration": 160, "velocity": 100}, {"time": 6840, "pitch": 40, "duration": 120, "velocity": 55}, {"time": 6960, "pitch": 40, "duration": 120, "velocity": 75}, {"time": 7080, "pitch": 40, "duration": 120, "velocity": 70}, {"time": 7200, "pitch": 40, "duration": 320, "velocity": 100}, {"time": 7440, "pitch": 52, "duration": 240, "velocity": 110}, {"time": 7680, "pitch": 40, "duration": 240, "velocity": 50}, {"time": 7680, "pitch": 50, "duration": 30, "velocity": 90}, {"time": 7800, "pitch": 50, "duration": 120, "velocity": 105}, {"time": 7920, "pitch": 50, "duration": 30, "velocity": 90}, {"time": 8040, "pitch": 50, "duration": 120, "velocity": 105}, {"time": 8160, "pitch": 50, "duration": 30, "velocity": 90}, {"time": 8280, "pitch": 50, "duration": 120, "velocity": 75}, {"time": 8400, "pitch": 40, "duration": 120, "velocity": 55}, {"time": 8400, "pitch": 49, "duration": 120, "velocity": 105}, {"time": 8520, "pitch": 49, "duration": 30, "velocity": 85}, {"time": 8640, "pitch": 40, "duration": 120, "velocity": 50}, {"time": 8640, "pitch": 50, "duration": 160, "velocity": 100}, {"time": 8760, "pitch": 40, "duration": 120, "velocity": 55}, {"time": 8880, "pitch": 40, "duration": 120, "velocity": 75}, {"time": 9000, "pitch": 40, "duration": 120, "velocity": 70}, {"time": 9120, "pitch": 40, "duration": 320, "velocity": 100}, {"time": 9360, "pitch": 52, "duration": 240, "velocity": 110}, {"time": 9600, "pitch": 40, "duration": 240, "velocity": 50}, {"time": 9600, "pitch": 50, "duration": 30, "velocity": 90}, {"time": 9720, "pitch": 50, "duration": 120, "velocity": 105}, {"time": 9840, "pitch": 50, "duration": 30, "velocity": 90}, {"time": 9960, "pitch": 50, "duration": 120, "velocity": 105}, {"time": 10080, "pitch": 50, "duration": 30, "velocity": 90}, {"time": 10200, "pitch": 50, "duration": 120, "velocity": 75}, {"time": 10320, "pitch": 40, "duration": 120, "velocity": 55}, {"time": 10320, "pitch": 49, "duration": 120, "velocity": 105}, {"time": 10440, "pitch": 49, "duration": 30, "velocity": 85}, {"time": 10560, "pitch": 40, "duration": 120, "velocity": 50}, {"time": 10560, "pitch": 50, "duration": 160, "velocity": 100}, {"time": 10680, "pitch": 40, "duration": 120, "velocity": 55}, {"time": 10800, "pitch": 40, "duration": 120, "velocity": 75}, {"time": 10920, "pitch": 40, "duration": 120, "velocity": 70}, {"time": 11040, "pitch": 40, "duration": 320, "velocity": 100}, {"time": 11280, "pitch": 52, "duration": 240, "velocity": 110}, {"time": 11520, "pitch": 40, "duration": 240, "velocity": 50}, {"time": 11520, "pitch": 50, "duration": 30, "velocity": 90}, {"time": 11640, "pitch": 50, "duration": 120, "velocity": 105}, {"time": 11760, "pitch": 50, "duration": 30, "velocity": 90}, {"time": 11880, "pitch": 50, "duration": 120, "velocity": 105}, {"time": 12000, "pitch": 50, "duration": 30, "velocity": 90}, {"time": 12120, "pitch": 50, "duration": 120, "velocity": 75}, {"time": 12240, "pitch": 40, "duration": 120, "velocity": 55}, {"time": 12240, "pitch": 49, "duration": 120, "velocity": 105}, {"time": 12360, "pitch": 49, "duration": 30, "velocity": 85}, {"time": 12480, "pitch": 40, "duration": 120, "velocity": 50}, {"time": 12480, "pitch": 50, "duration": 160, "velocity": 100}, {"time": 12600, "pitch": 40, "duration": 120, "velocity": 55}, {"time": 12720, "pitch": 40, "duration": 120, "velocity": 75}, {"time": 12840, "pitch": 40, "duration": 120, "velocity": 70}, {"time": 12960, "pitch": 40, "duration": 320, "velocity": 100}, {"time": 13200, "pitch": 52, "duration": 240, "velocity": 110}, {"time": 13440, "pitch": 40, "duration": 240, "velocity": 50}, {"time": 13440, "pitch": 50, "duration": 30, "velocity": 90}, {"time": 13560, "pitch": 50, "duration": 120, "velocity": 105}, {"time": 13680, "pitch": 50, "duration": 30, "velocity": 90}, {"time": 13800, "pitch": 50, "duration": 120, "velocity": 105}, {"time": 13920, "pitch": 50, "duration": 30, "velocity": 90}, {"time": 14040, "pitch": 50, "duration": 120, "velocity": 75}, {"time": 14160, "pitch": 40, "duration": 120, "velocity": 55}, {"time": 14160, "pitch": 49, "duration": 120, "velocity": 105}, {"time": 14280, "pitch": 49, "duration": 30, "velocity": 85}, {"time": 14400, "pitch": 40, "duration": 120, "velocity": 50}, {"time": 14400, "pitch": 50, "duration": 160, "velocity": 100}, {"time": 14520, "pitch": 40, "duration": 120, "velocity": 55}, {"time": 14640, "pitch": 40, "duration": 120, "velocity": 75}, {"time": 14760, "pitch": 40, "duration": 120, "velocity": 70}, {"time": 14880, "pitch": 40, "duration": 160, "velocity": 100}, {"time": 16440, "pitch": 53, "duration": 340, "velocity": 90}, {"time": 16800, "pitch": 40, "duration": 320, "velocity": 100}, {"time": 17040, "pitch": 52, "duration": 240, "velocity": 110}, {"time": 17280, "pitch": 40, "duration": 240, "velocity": 50}, {"time": 17280, "pitch": 50, "duration": 30, "velocity": 90}, {"time": 17400, "pitch": 50, "duration": 120, "velocity": 105}, {"time": 17520, "pitch": 50, "duration": 30, "velocity": 90}, {"time": 17640, "pitch": 50, "duration": 120, "velocity": 105}, {"time": 17760, "pitch": 50, "duration": 30, "velocity": 90}, {"time": 17880, "pitch": 50, "duration": 120, "velocity": 75}, {"time": 18000, "pitch": 40, "duration": 120, "velocity": 55}, {"time": 18000, "pitch": 49, "duration": 120, "velocity": 105}, {"time": 18120, "pitch": 49, "duration": 30, "velocity": 85}, {"time": 18240, "pitch": 40, "duration": 120, "velocity": 50}, {"time": 18240, "pitch": 50, "duration": 160, "velocity": 100}, {"time": 18360, "pitch": 40, "duration": 120, "velocity": 55}, {"time": 18480, "pitch": 40, "duration": 120, "velocity": 75}, {"time": 18600, "pitch": 40, "duration": 120, "velocity": 70}, {"time": 18720, "pitch": 40, "duration": 320, "velocity": 100}, {"time": 18960, "pitch": 52, "duration": 240, "velocity": 110}, {"time": 19200, "pitch": 40, "duration": 240, "velocity": 50}, {"time": 19200, "pitch": 50, "duration": 30, "velocity": 90}, {"time": 19320, "pitch": 50, "duration": 120, "velocity": 105}, {"time": 19440, "pitch": 50, "duration": 30, "velocity": 90}, {"time": 19560, "pitch": 50, "duration": 120, "velocity": 105}, {"time": 19680, "pitch": 50, "duration": 30, "velocity": 90}, {"time": 19800, "pitch": 50, "duration": 120, "velocity": 75}, {"time": 19920, "pitch": 40, "duration": 120, "velocity": 55}, {"time": 19920, "pitch": 49, "duration": 120, "velocity": 105}, {"time": 20040, "pitch": 49, "duration": 30, "velocity": 85}, {"time": 20160, "pitch": 40, "duration": 120, "velocity": 50}, {"time": 20160, "pitch": 50, "duration": 160, "velocity": 100}, {"time": 20280, "pitch": 40, "duration": 120, "velocity": 55}, {"time": 20400, "pitch": 40, "duration": 120, "velocity": 75}, {"time": 20520, "pitch": 40, "duration": 120, "velocity": 70}, {"time": 20640, "pitch": 40, "duration": 320, "velocity": 100}, {"time": 20880, "pitch": 52, "duration": 240, "velocity": 110}, {"time": 21120, "pitch": 40, "duration": 240, "velocity": 50}, {"time": 21120, "pitch": 50, "duration": 30, "velocity": 90}, {"time": 21240, "pitch": 50, "duration": 120, "velocity": 105}, {"time": 21360, "pitch": 50, "duration": 30, "velocity": 90}, {"time": 21480, "pitch": 50, "duration": 120, "velocity": 105}, {"time": 21600, "pitch": 50, "duration": 30, "velocity": 90}, {"time": 21720, "pitch": 50, "duration": 120, "velocity": 75}, {"time": 21840, "pitch": 40, "duration": 120, "velocity": 55}, {"time": 21840, "pitch": 49, "duration": 120, "velocity": 105}, {"time": 21960, "pitch": 49, "duration": 30, "velocity": 85}, {"time": 22080, "pitch": 40, "duration": 120, "velocity": 50}, {"time": 22080, "pitch": 50, "duration": 160, "velocity": 100}, {"time": 22200, "pitch": 40, "duration": 120, "velocity": 55}, {"time": 22320, "pitch": 40, "duration": 120, "velocity": 75}, {"time": 22440, "pitch": 40, "duration": 120, "velocity": 70}, {"time": 22560, "pitch": 40, "duration": 320, "velocity": 100}, {"time": 22800, "pitch": 52, "duration": 240, "velocity": 110}, {"time": 23040, "pitch": 40, "duration": 240, "velocity": 50}, {"time": 23040, "pitch": 50, "duration": 30, "velocity": 90}, {"time": 23160, "pitch": 50, "duration": 120, "velocity": 105}, {"time": 23280, "pitch": 50, "duration": 30, "velocity": 90}, {"time": 23400, "pitch": 50, "duration": 120, "velocity": 105}, {"time": 23520, "pitch": 50, "duration": 30, "velocity": 90}, {"time": 23640, "pitch": 50, "duration": 120, "velocity": 105}, {"time": 23760, "pitch": 50, "duration": 30, "velocity": 90}, {"time": 23880, "pitch": 50, "duration": 120, "velocity": 100}, {"time": 24120, "pitch": 50, "duration": 120, "velocity": 100}, {"time": 24240, "pitch": 50, "duration": 10, "velocity": 105}, {"time": 24360, "pitch": 50, "duration": 10, "velocity": 90}, {"time": 24480, "pitch": 40, "duration": 320, "velocity": 100}, {"time": 24720, "pitch": 52, "duration": 240, "velocity": 110}, {"time": 24960, "pitch": 40, "duration": 240, "velocity": 50}, {"time": 24960, "pitch": 50, "duration": 30, "velocity": 90}, {"time": 25080, "pitch": 50, "duration": 120, "velocity": 105}, {"time": 25200, "pitch": 50, "duration": 30, "velocity": 90}, {"time": 25320, "pitch": 50, "duration": 120, "velocity": 105}, {"time": 25440, "pitch": 50, "duration": 30, "velocity": 90}, {"time": 25560, "pitch": 50, "duration": 120, "velocity": 75}, {"time": 25680, "pitch": 40, "duration": 120, "velocity": 55}, {"time": 25680, "pitch": 49, "duration": 120, "velocity": 105}, {"time": 25800, "pitch": 49, "duration": 30, "velocity": 85}, {"time": 25920, "pitch": 40, "duration": 120, "velocity": 50}, {"time": 25920, "pitch": 50, "duration": 160, "velocity": 100}, {"time": 26040, "pitch": 40, "duration": 120, "velocity": 55}, {"time": 26160, "pitch": 40, "duration": 120, "velocity": 75}, {"time": 26280, "pitch": 40, "duration": 120, "velocity": 70}, {"time": 26400, "pitch": 40, "duration": 320, "velocity": 100}, {"time": 26640, "pitch": 52, "duration": 240, "velocity": 110}, {"time": 26880, "pitch": 40, "duration": 240, "velocity": 50}, {"time": 26880, "pitch": 50, "duration": 30, "velocity": 90}, {"time": 27000, "pitch": 50, "duration": 120, "velocity": 105}, {"time": 27120, "pitch": 50, "duration": 30, "velocity": 90}, {"time": 27240, "pitch": 50, "duration": 120, "velocity": 105}, {"time": 27360, "pitch": 50, "duration": 30, "velocity": 90}, {"time": 27480, "pitch": 50, "duration": 120, "velocity": 75}, {"time": 27600, "pitch": 40, "duration": 120, "velocity": 55}, {"time": 27600, "pitch": 49, "duration": 120, "velocity": 105}, {"time": 27720, "pitch": 49, "duration": 30, "velocity": 85}, {"time": 27840, "pitch": 40, "duration": 120, "velocity": 50}, {"time": 27840, "pitch": 50, "duration": 160, "velocity": 100}, {"time": 27960, "pitch": 40, "duration": 120, "velocity": 55}, {"time": 28080, "pitch": 40, "duration": 120, "velocity": 75}, {"time": 28200, "pitch": 40, "duration": 120, "velocity": 70}, {"time": 28320, "pitch": 40, "duration": 320, "velocity": 100}, {"time": 28560, "pitch": 52, "duration": 240, "velocity": 110}, {"time": 28800, "pitch": 40, "duration": 240, "velocity": 50}, {"time": 28800, "pitch": 50, "duration": 30, "velocity": 90}, {"time": 28920, "pitch": 50, "duration": 120, "velocity": 105}, {"time": 29040, "pitch": 50, "duration": 30, "velocity": 90}, {"time": 29160, "pitch": 50, "duration": 120, "velocity": 105}, {"time": 29280, "pitch": 50, "duration": 30, "velocity": 90}, {"time": 29400, "pitch": 50, "duration": 120, "velocity": 75}, {"time": 29520, "pitch": 40, "duration": 120, "velocity": 55}, {"time": 29520, "pitch": 49, "duration": 120, "velocity": 105}, {"time": 29640, "pitch": 49, "duration": 30, "velocity": 85}, {"time": 29760, "pitch": 40, "duration": 120, "velocity": 50}, {"time": 29760, "pitch": 50, "duration": 160, "velocity": 100}, {"time": 29880, "pitch": 40, "duration": 120, "velocity": 55}, {"time": 30000, "pitch": 40, "duration": 120, "velocity": 75}, {"time": 30120, "pitch": 40, "duration": 120, "velocity": 70}, {"time": 30240, "pitch": 40, "duration": 320, "velocity": 100}, {"time": 30480, "pitch": 52, "duration": 240, "velocity": 110}, {"time": 30720, "pitch": 40, "duration": 240, "velocity": 50}, {"time": 30720, "pitch": 50, "duration": 30, "velocity": 90}, {"time": 30840, "pitch": 50, "duration": 120, "velocity": 105}, {"time": 30960, "pitch": 50, "duration": 30, "velocity": 90}, {"time": 31080, "pitch": 50, "duration": 120, "velocity": 105}, {"time": 31200, "pitch": 50, "duration": 30, "velocity": 90}, {"time": 31320, "pitch": 50, "duration": 120, "velocity": 105}, {"time": 31440, "pitch": 50, "duration": 30, "velocity": 90}, {"time": 31560, "pitch": 50, "duration": 120, "velocity": 100}, {"time": 31800, "pitch": 50, "duration": 120, "velocity": 100}, {"time": 31920, "pitch": 50, "duration": 10, "velocity": 105}, {"time": 32040, "pitch": 50, "duration": 10, "velocity": 90}, {"time": 32160, "pitch": 40, "duration": 320, "velocity": 100}, {"time": 32400, "pitch": 52, "duration": 240, "velocity": 110}, {"time": 32640, "pitch": 40, "duration": 240, "velocity": 50}, {"time": 32640, "pitch": 50, "duration": 30, "velocity": 90}, {"time": 32760, "pitch": 50, "duration": 120, "velocity": 105}, {"time": 32880, "pitch": 50, "duration": 30, "velocity": 90}, {"time": 33000, "pitch": 50, "duration": 120, "velocity": 105}, {"time": 33120, "pitch": 50, "duration": 30, "velocity": 90}, {"time": 33240, "pitch": 50, "duration": 120, "velocity": 75}, {"time": 33360, "pitch": 40, "duration": 120, "velocity": 55}, {"time": 33360, "pitch": 49, "duration": 120, "velocity": 105}, {"time": 33480, "pitch": 49, "duration": 30, "velocity": 85}, {"time": 33600, "pitch": 40, "duration": 120, "velocity": 50}, {"time": 33600, "pitch": 50, "duration": 160, "velocity": 100}, {"time": 33720, "pitch": 40, "duration": 120, "velocity": 55}, {"time": 33840, "pitch": 40, "duration": 120, "velocity": 75}, {"time": 33960, "pitch": 40, "duration": 120, "velocity": 70}, {"time": 34080, "pitch": 40, "duration": 320, "velocity": 100}, {"time": 34320, "pitch": 52, "duration": 240, "velocity": 110}, {"time": 34560, "pitch": 40, "duration": 240, "velocity": 50}, {"time": 34560, "pitch": 50, "duration": 30, "velocity": 90}, {"time": 34680, "pitch": 50, "duration": 120, "velocity": 105}, {"time": 34800, "pitch": 50, "duration": 30, "velocity": 90}, {"time": 34920, "pitch": 50, "duration": 120, "velocity": 105}, {"time": 35040, "pitch": 50, "duration": 30, "velocity": 90}, {"time": 35160, "pitch": 50, "duration": 120, "velocity": 75}, {"time": 35280, "pitch": 40, "duration": 120, "velocity": 55}, {"time": 35280, "pitch": 49, "duration": 120, "velocity": 105}, {"time": 35400, "pitch": 49, "duration": 30, "velocity": 85}, {"time": 35520, "pitch": 40, "duration": 120, "velocity": 50}, {"time": 35520, "pitch": 50, "duration": 160, "velocity": 100}, {"time": 35640, "pitch": 40, "duration": 120, "velocity": 55}, {"time": 35760, "pitch": 40, "duration": 120, "velocity": 75}, {"time": 35880, "pitch": 40, "duration": 120, "velocity": 70}, {"time": 36000, "pitch": 40, "duration": 320, "velocity": 100}, {"time": 36240, "pitch": 52, "duration": 240, "velocity": 110}, {"time": 36480, "pitch": 40, "duration": 240, "velocity": 50}, {"time": 36480, "pitch": 50, "duration": 30, "velocity": 90}, {"time": 36600, "pitch": 50, "duration": 120, "velocity": 105}, {"time": 36720, "pitch": 50, "duration": 30, "velocity": 90}, {"time": 36840, "pitch": 50, "duration": 120, "velocity": 105}, {"time": 36960, "pitch": 50, "duration": 30, "velocity": 90}, {"time": 37080, "pitch": 50, "duration": 120, "velocity": 75}, {"time": 37200, "pitch": 40, "duration": 120, "velocity": 55}, {"time": 37200, "pitch": 49, "duration": 120, "velocity": 105}, {"time": 37320, "pitch": 49, "duration": 30, "velocity": 85}, {"time": 37440, "pitch": 40, "duration": 120, "velocity": 50}, {"time": 37440, "pitch": 50, "duration": 160, "velocity": 100}, {"time": 37560, "pitch": 40, "duration": 120, "velocity": 55}, {"time": 37680, "pitch": 40, "duration": 120, "velocity": 75}, {"time": 37800, "pitch": 40, "duration": 120, "velocity": 70}, {"time": 37920, "pitch": 40, "duration": 320, "velocity": 100}, {"time": 38160, "pitch": 52, "duration": 240, "velocity": 110}, {"time": 38400, "pitch": 40, "duration": 240, "velocity": 50}, {"time": 38400, "pitch": 50, "duration": 30, "velocity": 90}, {"time": 38520, "pitch": 50, "duration": 120, "velocity": 105}, {"time": 38640, "pitch": 50, "duration": 30, "velocity": 90}, {"time": 38760, "pitch": 50, "duration": 120, "velocity": 105}, {"time": 38880, "pitch": 50, "duration": 30, "velocity": 90}, {"time": 39000, "pitch": 50, "duration": 120, "velocity": 105}, {"time": 39120, "pitch": 50, "duration": 30, "velocity": 90}, {"time": 39240, "pitch": 50, "duration": 120, "velocity": 100}, {"time": 39480, "pitch": 50, "duration": 120, "velocity": 95}, {"time": 39600, "pitch": 50, "duration": 240, "velocity": 80}, {"time": 51360, "pitch": 40, "duration": 320, "velocity": 100}, {"time": 51600, "pitch": 52, "duration": 240, "velocity": 110}, {"time": 51840, "pitch": 40, "duration": 240, "velocity": 50}, {"time": 51840, "pitch": 50, "duration": 30, "velocity": 90}, {"time": 51960, "pitch": 50, "duration": 120, "velocity": 105}, {"time": 52080, "pitch": 50, "duration": 30, "velocity": 90}, {"time": 52200, "pitch": 50, "duration": 120, "velocity": 105}, {"time": 52320, "pitch": 50, "duration": 30, "velocity": 90}, {"time": 52440, "pitch": 50, "duration": 120, "velocity": 75}, {"time": 52560, "pitch": 40, "duration": 120, "velocity": 55}, {"time": 52560, "pitch": 49, "duration": 120, "velocity": 105}, {"time": 52680, "pitch": 49, "duration": 30, "velocity": 85}, {"time": 52800, "pitch": 40, "duration": 120, "velocity": 50}, {"time": 52800, "pitch": 50, "duration": 160, "velocity": 100}, {"time": 52920, "pitch": 40, "duration": 120, "velocity": 55}, {"time": 53040, "pitch": 40, "duration": 120, "velocity": 75}, {"time": 53160, "pitch": 40, "duration": 120, "velocity": 70}, {"time": 53280, "pitch": 40, "duration": 320, "velocity": 100}, {"time": 53520, "pitch": 52, "duration": 240, "velocity": 110}, {"time": 53760, "pitch": 40, "duration": 240, "velocity": 50}, {"time": 53760, "pitch": 50, "duration": 30, "velocity": 90}, {"time": 53880, "pitch": 50, "duration": 120, "velocity": 105}, {"time": 54000, "pitch": 50, "duration": 30, "velocity": 90}, {"time": 54120, "pitch": 50, "duration": 120, "velocity": 105}, {"time": 54240, "pitch": 50, "duration": 30, "velocity": 90}, {"time": 54360, "pitch": 50, "duration": 120, "velocity": 75}, {"time": 54480, "pitch": 40, "duration": 120, "velocity": 55}, {"time": 54480, "pitch": 49, "duration": 120, "velocity": 105}, {"time": 54600, "pitch": 49, "duration": 30, "velocity": 85}, {"time": 54720, "pitch": 40, "duration": 120, "velocity": 50}, {"time": 54720, "pitch": 50, "duration": 160, "velocity": 100}, {"time": 54840, "pitch": 40, "duration": 120, "velocity": 55}, {"time": 54960, "pitch": 40, "duration": 120, "velocity": 75}, {"time": 59040, "pitch": 40, "duration": 320, "velocity": 100}, {"time": 59280, "pitch": 52, "duration": 240, "velocity": 110}, {"time": 59520, "pitch": 40, "duration": 240, "velocity": 50}, {"time": 59520, "pitch": 50, "duration": 30, "velocity": 90}, {"time": 59640, "pitch": 50, "duration": 120, "velocity": 105}, {"time": 59760, "pitch": 50, "duration": 30, "velocity": 90}, {"time": 59880, "pitch": 50, "duration": 120, "velocity": 105}, {"time": 60000, "pitch": 50, "duration": 30, "velocity": 90}, {"time": 60120, "pitch": 50, "duration": 120, "velocity": 75}, {"time": 60240, "pitch": 40, "duration": 120, "velocity": 55}, {"time": 60240, "pitch": 49, "duration": 120, "velocity": 105}, {"time": 60360, "pitch": 49, "duration": 30, "velocity": 85}, {"time": 60480, "pitch": 40, "duration": 120, "velocity": 50}, {"time": 60480, "pitch": 50, "duration": 160, "velocity": 100}, {"time": 60600, "pitch": 40, "duration": 120, "velocity": 55}, {"time": 60720, "pitch": 40, "duration": 120, "velocity": 75}, {"time": 60840, "pitch": 40, "duration": 120, "velocity": 70}, {"time": 60960, "pitch": 40, "duration": 320, "velocity": 100}, {"time": 61200, "pitch": 52, "duration": 240, "velocity": 110}, {"time": 61440, "pitch": 40, "duration": 240, "velocity": 50}, {"time": 61440, "pitch": 50, "duration": 30, "velocity": 90}, {"time": 61560, "pitch": 50, "duration": 120, "velocity": 105}, {"time": 61680, "pitch": 50, "duration": 30, "velocity": 90}, {"time": 61800, "pitch": 50, "duration": 120, "velocity": 105}, {"time": 61920, "pitch": 50, "duration": 30, "velocity": 90}, {"time": 62040, "pitch": 50, "duration": 120, "velocity": 75}, {"time": 62160, "pitch": 40, "duration": 120, "velocity": 55}, {"time": 62160, "pitch": 49, "duration": 120, "velocity": 105}, {"time": 62280, "pitch": 49, "duration": 30, "velocity": 85}, {"time": 62400, "pitch": 40, "duration": 120, "velocity": 50}, {"time": 62400, "pitch": 50, "duration": 160, "velocity": 100}, {"time": 62520, "pitch": 40, "duration": 120, "velocity": 55}, {"time": 62640, "pitch": 40, "duration": 120, "velocity": 75}, {"time": 66720, "pitch": 40, "duration": 320, "velocity": 100}, {"time": 66960, "pitch": 52, "duration": 240, "velocity": 110}, {"time": 67200, "pitch": 40, "duration": 240, "velocity": 50}, {"time": 67200, "pitch": 50, "duration": 30, "velocity": 90}, {"time": 67320, "pitch": 50, "duration": 120, "velocity": 105}, {"time": 67440, "pitch": 50, "duration": 30, "velocity": 90}, {"time": 67560, "pitch": 50, "duration": 120, "velocity": 105}, {"time": 67680, "pitch": 50, "duration": 30, "velocity": 90}, {"time": 67800, "pitch": 50, "duration": 120, "velocity": 75}, {"time": 67920, "pitch": 40, "duration": 120, "velocity": 55}, {"time": 67920, "pitch": 49, "duration": 120, "velocity": 105}, {"time": 68040, "pitch": 49, "duration": 30, "velocity": 85}, {"time": 68160, "pitch": 40, "duration": 120, "velocity": 50}, {"time": 68160, "pitch": 50, "duration": 160, "velocity": 100}, {"time": 68280, "pitch": 40, "duration": 120, "velocity": 55}, {"time": 68400, "pitch": 40, "duration": 120, "velocity": 75}, {"time": 68520, "pitch": 40, "duration": 120, "velocity": 70}, {"time": 68640, "pitch": 40, "duration": 320, "velocity": 100}, {"time": 68880, "pitch": 52, "duration": 240, "velocity": 110}, {"time": 69120, "pitch": 40, "duration": 240, "velocity": 50}, {"time": 69120, "pitch": 50, "duration": 30, "velocity": 90}, {"time": 69240, "pitch": 50, "duration": 120, "velocity": 105}, {"time": 69360, "pitch": 50, "duration": 30, "velocity": 90}, {"time": 69480, "pitch": 50, "duration": 120, "velocity": 105}, {"time": 69600, "pitch": 50, "duration": 30, "velocity": 90}, {"time": 69720, "pitch": 50, "duration": 120, "velocity": 75}, {"time": 69840, "pitch": 40, "duration": 120, "velocity": 55}, {"time": 69840, "pitch": 49, "duration": 120, "velocity": 105}, {"time": 69960, "pitch": 49, "duration": 30, "velocity": 85}, {"time": 70080, "pitch": 40, "duration": 120, "velocity": 50}, {"time": 70080, "pitch": 50, "duration": 160, "velocity": 100}, {"time": 70200, "pitch": 40, "duration": 120, "velocity": 55}, {"time": 70320, "pitch": 40, "duration": 120, "velocity": 75}, {"time": 70440, "pitch": 40, "duration": 120, "velocity": 70}, {"time": 70560, "pitch": 40, "duration": 320, "velocity": 100}, {"time": 70800, "pitch": 52, "duration": 240, "velocity": 110}, {"time": 71040, "pitch": 40, "duration": 240, "velocity": 50}, {"time": 71040, "pitch": 50, "duration": 30, "velocity": 90}, {"time": 71160, "pitch": 50, "duration": 120, "velocity": 105}, {"time": 71280, "pitch": 50, "duration": 30, "velocity": 90}, {"time": 71400, "pitch": 50, "duration": 120, "velocity": 105}, {"time": 71520, "pitch": 50, "duration": 30, "velocity": 90}, {"time": 71640, "pitch": 50, "duration": 120, "velocity": 75}, {"time": 71760, "pitch": 40, "duration": 120, "velocity": 55}, {"time": 71760, "pitch": 49, "duration": 120, "velocity": 105}, {"time": 71880, "pitch": 49, "duration": 30, "velocity": 85}, {"time": 72000, "pitch": 40, "duration": 120, "velocity": 50}, {"time": 72000, "pitch": 50, "duration": 160, "velocity": 100}, {"time": 72120, "pitch": 40, "duration": 120, "velocity": 55}, {"time": 72240, "pitch": 40, "duration": 120, "velocity": 75}, {"time": 72360, "pitch": 40, "duration": 120, "velocity": 70}, {"time": 72480, "pitch": 40, "duration": 160, "velocity": 100}, {"time": 101280, "pitch": 40, "duration": 320, "velocity": 100}, {"time": 101520, "pitch": 52, "duration": 240, "velocity": 110}, {"time": 101760, "pitch": 40, "duration": 240, "velocity": 50}, {"time": 101760, "pitch": 50, "duration": 30, "velocity": 90}, {"time": 101880, "pitch": 50, "duration": 120, "velocity": 105}, {"time": 102000, "pitch": 50, "duration": 30, "velocity": 90}, {"time": 102120, "pitch": 50, "duration": 120, "velocity": 105}, {"time": 102240, "pitch": 50, "duration": 30, "velocity": 90}, {"time": 102360, "pitch": 50, "duration": 120, "velocity": 75}, {"time": 102480, "pitch": 40, "duration": 120, "velocity": 55}, {"time": 102480, "pitch": 49, "duration": 120, "velocity": 105}, {"time": 102600, "pitch": 49, "duration": 30, "velocity": 85}, {"time": 102720, "pitch": 40, "duration": 120, "velocity": 50}, {"time": 102720, "pitch": 50, "duration": 160, "velocity": 100}, {"time": 102840, "pitch": 40, "duration": 120, "velocity": 55}, {"time": 102960, "pitch": 40, "duration": 120, "velocity": 75}, {"time": 103080, "pitch": 40, "duration": 120, "velocity": 70}, {"time": 103200, "pitch": 40, "duration": 320, "velocity": 100}, {"time": 103440, "pitch": 52, "duration": 240, "velocity": 110}, {"time": 103680, "pitch": 40, "duration": 240, "velocity": 50}, {"time": 103680, "pitch": 50, "duration": 30, "velocity": 90}, {"time": 103800, "pitch": 50, "duration": 120, "velocity": 105}, {"time": 103920, "pitch": 50, "duration": 30, "velocity": 90}, {"time": 104040, "pitch": 50, "duration": 120, "velocity": 105}, {"time": 104160, "pitch": 50, "duration": 30, "velocity": 90}, {"time": 104280, "pitch": 50, "duration": 120, "velocity": 75}, {"time": 104400, "pitch": 40, "duration": 120, "velocity": 55}, {"time": 104400, "pitch": 49, "duration": 120, "velocity": 105}, {"time": 104520, "pitch": 49, "duration": 30, "velocity": 85}, {"time": 104640, "pitch": 40, "duration": 120, "velocity": 50}, {"time": 104640, "pitch": 50, "duration": 160, "velocity": 100}, {"time": 104760, "pitch": 40, "duration": 120, "velocity": 55}, {"time": 104880, "pitch": 40, "duration": 120, "velocity": 75}, {"time": 108960, "pitch": 40, "duration": 320, "velocity": 100}, {"time": 109200, "pitch": 52, "duration": 240, "velocity": 110}, {"time": 109440, "pitch": 40, "duration": 240, "velocity": 50}, {"time": 109440, "pitch": 50, "duration": 30, "velocity": 90}, {"time": 109560, "pitch": 50, "duration": 120, "velocity": 105}, {"time": 109680, "pitch": 50, "duration": 30, "velocity": 90}, {"time": 109800, "pitch": 50, "duration": 120, "velocity": 105}, {"time": 109920, "pitch": 50, "duration": 30, "velocity": 90}, {"time": 110040, "pitch": 50, "duration": 120, "velocity": 75}, {"time": 110160, "pitch": 40, "duration": 120, "velocity": 55}, {"time": 110160, "pitch": 49, "duration": 120, "velocity": 105}, {"time": 110280, "pitch": 49, "duration": 30, "velocity": 85}, {"time": 110400, "pitch": 40, "duration": 120, "velocity": 50}, {"time": 110400, "pitch": 50, "duration": 160, "velocity": 100}, {"time": 110520, "pitch": 40, "duration": 120, "velocity": 55}, {"time": 110640, "pitch": 40, "duration": 120, "velocity": 75}, {"time": 110760, "pitch": 40, "duration": 120, "velocity": 70}, {"time": 110880, "pitch": 40, "duration": 320, "velocity": 100}, {"time": 111120, "pitch": 52, "duration": 240, "velocity": 110}, {"time": 111360, "pitch": 40, "duration": 240, "velocity": 50}, {"time": 111360, "pitch": 50, "duration": 30, "velocity": 90}, {"time": 111480, "pitch": 50, "duration": 120, "velocity": 105}, {"time": 111600, "pitch": 50, "duration": 30, "velocity": 90}, {"time": 111720, "pitch": 50, "duration": 120, "velocity": 105}, {"time": 111840, "pitch": 50, "duration": 30, "velocity": 90}, {"time": 111960, "pitch": 50, "duration": 120, "velocity": 75}, {"time": 112080, "pitch": 40, "duration": 120, "velocity": 55}, {"time": 112080, "pitch": 49, "duration": 120, "velocity": 105}, {"time": 112200, "pitch": 49, "duration": 30, "velocity": 85}, {"time": 112320, "pitch": 40, "duration": 120, "velocity": 50}, {"time": 112320, "pitch": 50, "duration": 160, "velocity": 100}, {"time": 112440, "pitch": 40, "duration": 120, "velocity": 55}, {"time": 112560, "pitch": 40, "duration": 120, "velocity": 75}, {"time": 116640, "pitch": 40, "duration": 320, "velocity": 100}, {"time": 116880, "pitch": 52, "duration": 240, "velocity": 110}, {"time": 117120, "pitch": 40, "duration": 240, "velocity": 50}, {"time": 117120, "pitch": 50, "duration": 30, "velocity": 90}, {"time": 117240, "pitch": 50, "duration": 120, "velocity": 105}, {"time": 117360, "pitch": 50, "duration": 30, "velocity": 90}, {"time": 117480, "pitch": 50, "duration": 120, "velocity": 105}, {"time": 117600, "pitch": 50, "duration": 30, "velocity": 90}, {"time": 117720, "pitch": 50, "duration": 120, "velocity": 75}, {"time": 117840, "pitch": 40, "duration": 120, "velocity": 55}, {"time": 117840, "pitch": 49, "duration": 120, "velocity": 105}, {"time": 117960, "pitch": 49, "duration": 30, "velocity": 85}, {"time": 118080, "pitch": 40, "duration": 120, "velocity": 50}, {"time": 118080, "pitch": 50, "duration": 160, "velocity": 100}, {"time": 118200, "pitch": 40, "duration": 120, "velocity": 55}, {"time": 118320, "pitch": 40, "duration": 120, "velocity": 75}, {"time": 118440, "pitch": 40, "duration": 120, "velocity": 70}, {"time": 118560, "pitch": 40, "duration": 320, "velocity": 100}, {"time": 118800, "pitch": 52, "duration": 240, "velocity": 110}, {"time": 119040, "pitch": 40, "duration": 240, "velocity": 50}, {"time": 119040, "pitch": 50, "duration": 30, "velocity": 90}, {"time": 119160, "pitch": 50, "duration": 120, "velocity": 105}, {"time": 119280, "pitch": 50, "duration": 30, "velocity": 90}, {"time": 119400, "pitch": 50, "duration": 120, "velocity": 105}, {"time": 119520, "pitch": 50, "duration": 30, "velocity": 90}, {"time": 119640, "pitch": 50, "duration": 120, "velocity": 75}, {"time": 119760, "pitch": 40, "duration": 120, "velocity": 55}, {"time": 119760, "pitch": 49, "duration": 120, "velocity": 105}, {"time": 119880, "pitch": 49, "duration": 30, "velocity": 85}, {"time": 120000, "pitch": 40, "duration": 120, "velocity": 50}, {"time": 120000, "pitch": 50, "duration": 160, "velocity": 100}, {"time": 120120, "pitch": 40, "duration": 120, "velocity": 55}, {"time": 120240, "pitch": 40, "duration": 120, "velocity": 75}, {"time": 120360, "pitch": 40, "duration": 120, "velocity": 70}, {"time": 120480, "pitch": 40, "duration": 320, "velocity": 100}, {"time": 120720, "pitch": 52, "duration": 240, "velocity": 110}, {"time": 120960, "pitch": 40, "duration": 240, "velocity": 50}, {"time": 120960, "pitch": 50, "duration": 30, "velocity": 90}, {"time": 121080, "pitch": 50, "duration": 120, "velocity": 105}, {"time": 121200, "pitch": 50, "duration": 30, "velocity": 90}, {"time": 121320, "pitch": 50, "duration": 120, "velocity": 105}, {"time": 121440, "pitch": 50, "duration": 30, "velocity": 90}, {"time": 121560, "pitch": 50, "duration": 120, "velocity": 75}, {"time": 121680, "pitch": 40, "duration": 120, "velocity": 55}, {"time": 121680, "pitch": 49, "duration": 120, "velocity": 105}, {"time": 121800, "pitch": 49, "duration": 30, "velocity": 85}, {"time": 121920, "pitch": 40, "duration": 120, "velocity": 50}, {"time": 121920, "pitch": 50, "duration": 160, "velocity": 100}, {"time": 122040, "pitch": 40, "duration": 120, "velocity": 55}, {"time": 122160, "pitch": 40, "duration": 120, "velocity": 75}, {"time": 122280, "pitch": 40, "duration": 120, "velocity": 70}, {"time": 122400, "pitch": 40, "duration": 320, "velocity": 100}, {"time": 122640, "pitch": 52, "duration": 240, "velocity": 110}, {"time": 122880, "pitch": 40, "duration": 240, "velocity": 50}, {"time": 122880, "pitch": 50, "duration": 30, "velocity": 90}, {"time": 123000, "pitch": 50, "duration": 120, "velocity": 105}, {"time": 123120, "pitch": 50, "duration": 30, "velocity": 90}, {"time": 123240, "pitch": 50, "duration": 120, "velocity": 105}, {"time": 123360, "pitch": 50, "duration": 30, "velocity": 90}, {"time": 123480, "pitch": 50, "duration": 120, "velocity": 75}, {"time": 123600, "pitch": 40, "duration": 120, "velocity": 55}, {"time": 123600, "pitch": 49, "duration": 120, "velocity": 105}, {"time": 123720, "pitch": 49, "duration": 30, "velocity": 85}, {"time": 123840, "pitch": 40, "duration": 120, "velocity": 50}, {"time": 123840, "pitch": 50, "duration": 160, "velocity": 100}, {"time": 123960, "pitch": 40, "duration": 120, "velocity": 55}, {"time": 124080, "pitch": 40, "duration": 120, "velocity": 75}, {"time": 124200, "pitch": 40, "duration": 120, "velocity": 70}, {"time": 124320, "pitch": 40, "duration": 320, "velocity": 100}, {"time": 124560, "pitch": 52, "duration": 240, "velocity": 110}, {"time": 124800, "pitch": 40, "duration": 240, "velocity": 50}, {"time": 124800, "pitch": 50, "duration": 30, "velocity": 90}, {"time": 124920, "pitch": 50, "duration": 120, "velocity": 105}, {"time": 125040, "pitch": 50, "duration": 30, "velocity": 90}, {"time": 125160, "pitch": 50, "duration": 120, "velocity": 105}, {"time": 125280, "pitch": 50, "duration": 30, "velocity": 90}, {"time": 125400, "pitch": 50, "duration": 120, "velocity": 75}, {"time": 125520, "pitch": 40, "duration": 120, "velocity": 55}, {"time": 125520, "pitch": 49, "duration": 120, "velocity": 105}, {"time": 125640, "pitch": 49, "duration": 30, "velocity": 85}, {"time": 125760, "pitch": 40, "duration": 120, "velocity": 50}, {"time": 125760, "pitch": 50, "duration": 160, "velocity": 100}, {"time": 125880, "pitch": 40, "duration": 120, "velocity": 55}, {"time": 126000, "pitch": 40, "duration": 120, "velocity": 75}, {"time": 126120, "pitch": 40, "duration": 120, "velocity": 70}, {"time": 126240, "pitch": 40, "duration": 320, "velocity": 100}, {"time": 126480, "pitch": 52, "duration": 240, "velocity": 110}, {"time": 126720, "pitch": 40, "duration": 240, "velocity": 50}, {"time": 126720, "pitch": 50, "duration": 30, "velocity": 90}, {"time": 126840, "pitch": 50, "duration": 120, "velocity": 105}, {"time": 126960, "pitch": 50, "duration": 30, "velocity": 90}, {"time": 127080, "pitch": 50, "duration": 120, "velocity": 105}, {"time": 127200, "pitch": 50, "duration": 30, "velocity": 90}, {"time": 127320, "pitch": 50, "duration": 120, "velocity": 75}, {"time": 127440, "pitch": 40, "duration": 120, "velocity": 55}, {"time": 127440, "pitch": 49, "duration": 120, "velocity": 105}, {"time": 127560, "pitch": 49, "duration": 30, "velocity": 85}, {"time": 127680, "pitch": 40, "duration": 120, "velocity": 50}, {"time": 127680, "pitch": 50, "duration": 160, "velocity": 100}, {"time": 127800, "pitch": 40, "duration": 120, "velocity": 55}, {"time": 127920, "pitch": 40, "duration": 120, "velocity": 75}, {"time": 128040, "pitch": 40, "duration": 120, "velocity": 70}, {"time": 128160, "pitch": 40, "duration": 320, "velocity": 100}, {"time": 128400, "pitch": 52, "duration": 240, "velocity": 110}, {"time": 128640, "pitch": 40, "duration": 240, "velocity": 50}, {"time": 128640, "pitch": 50, "duration": 30, "velocity": 90}, {"time": 128760, "pitch": 50, "duration": 120, "velocity": 105}, {"time": 128880, "pitch": 50, "duration": 30, "velocity": 90}, {"time": 129000, "pitch": 50, "duration": 120, "velocity": 105}, {"time": 129120, "pitch": 50, "duration": 30, "velocity": 90}, {"time": 129240, "pitch": 50, "duration": 120, "velocity": 75}, {"time": 129360, "pitch": 40, "duration": 120, "velocity": 55}, {"time": 129360, "pitch": 49, "duration": 120, "velocity": 105}, {"time": 129480, "pitch": 49, "duration": 30, "velocity": 85}, {"time": 129600, "pitch": 40, "duration": 120, "velocity": 50}, {"time": 129600, "pitch": 50, "duration": 160, "velocity": 100}, {"time": 129720, "pitch": 40, "duration": 120, "velocity": 55}, {"time": 129840, "pitch": 40, "duration": 120, "velocity": 75}, {"time": 129960, "pitch": 40, "duration": 120, "velocity": 70}, {"time": 130080, "pitch": 40, "duration": 160, "velocity": 100}, {"time": 148800, "pitch": 40, "duration": 320, "velocity": 100}, {"time": 149040, "pitch": 52, "duration": 240, "velocity": 110}, {"time": 149280, "pitch": 40, "duration": 240, "velocity": 50}, {"time": 149280, "pitch": 50, "duration": 30, "velocity": 90}, {"time": 149400, "pitch": 50, "duration": 120, "velocity": 105}, {"time": 149520, "pitch": 50, "duration": 30, "velocity": 90}, {"time": 149640, "pitch": 50, "duration": 120, "velocity": 105}, {"time": 149760, "pitch": 50, "duration": 30, "velocity": 90}, {"time": 149880, "pitch": 50, "duration": 120, "velocity": 75}, {"time": 150000, "pitch": 40, "duration": 120, "velocity": 55}, {"time": 150000, "pitch": 49, "duration": 120, "velocity": 105}, {"time": 150120, "pitch": 49, "duration": 30, "velocity": 85}, {"time": 150240, "pitch": 40, "duration": 120, "velocity": 50}, {"time": 150240, "pitch": 50, "duration": 160, "velocity": 100}, {"time": 150360, "pitch": 40, "duration": 120, "velocity": 55}, {"time": 150480, "pitch": 40, "duration": 120, "velocity": 75}, {"time": 150600, "pitch": 40, "duration": 120, "velocity": 70}, {"time": 150720, "pitch": 40, "duration": 320, "velocity": 100}, {"time": 150960, "pitch": 52, "duration": 240, "velocity": 110}, {"time": 151200, "pitch": 40, "duration": 240, "velocity": 50}, {"time": 151200, "pitch": 50, "duration": 30, "velocity": 90}, {"time": 151320, "pitch": 50, "duration": 120, "velocity": 105}, {"time": 151440, "pitch": 50, "duration": 30, "velocity": 90}, {"time": 151560, "pitch": 50, "duration": 120, "velocity": 105}, {"time": 151680, "pitch": 50, "duration": 30, "velocity": 90}, {"time": 151800, "pitch": 50, "duration": 120, "velocity": 75}, {"time": 151920, "pitch": 40, "duration": 120, "velocity": 55}, {"time": 151920, "pitch": 49, "duration": 120, "velocity": 105}, {"time": 152040, "pitch": 49, "duration": 30, "velocity": 85}, {"time": 152160, "pitch": 40, "duration": 120, "velocity": 50}, {"time": 152160, "pitch": 50, "duration": 160, "velocity": 100}, {"time": 152280, "pitch": 40, "duration": 120, "velocity": 55}, {"time": 152400, "pitch": 40, "duration": 120, "velocity": 75}, {"time": 156480, "pitch": 40, "duration": 320, "velocity": 100}, {"time": 156720, "pitch": 52, "duration": 240, "velocity": 110}, {"time": 156960, "pitch": 40, "duration": 240, "velocity": 50}, {"time": 156960, "pitch": 50, "duration": 30, "velocity": 90}, {"time": 157080, "pitch": 50, "duration": 120, "velocity": 105}, {"time": 157200, "pitch": 50, "duration": 30, "velocity": 90}, {"time": 157320, "pitch": 50, "duration": 120, "velocity": 105}, {"time": 157440, "pitch": 50, "duration": 30, "velocity": 90}, {"time": 157560, "pitch": 50, "duration": 120, "velocity": 75}, {"time": 157680, "pitch": 40, "duration": 120, "velocity": 55}, {"time": 157680, "pitch": 49, "duration": 120, "velocity": 105}, {"time": 157800, "pitch": 49, "duration": 30, "velocity": 85}, {"time": 157920, "pitch": 40, "duration": 120, "velocity": 50}, {"time": 157920, "pitch": 50, "duration": 160, "velocity": 100}, {"time": 158040, "pitch": 40, "duration": 120, "velocity": 55}, {"time": 158160, "pitch": 40, "duration": 120, "velocity": 75}, {"time": 158280, "pitch": 40, "duration": 120, "velocity": 70}, {"time": 158400, "pitch": 40, "duration": 320, "velocity": 100}, {"time": 158640, "pitch": 52, "duration": 240, "velocity": 110}, {"time": 158880, "pitch": 40, "duration": 240, "velocity": 50}, {"time": 158880, "pitch": 50, "duration": 30, "velocity": 90}, {"time": 159000, "pitch": 50, "duration": 120, "velocity": 105}, {"time": 159120, "pitch": 50, "duration": 30, "velocity": 90}, {"time": 159240, "pitch": 50, "duration": 120, "velocity": 105}, {"time": 159360, "pitch": 50, "duration": 30, "velocity": 90}, {"time": 159480, "pitch": 50, "duration": 120, "velocity": 75}, {"time": 159600, "pitch": 40, "duration": 120, "velocity": 55}, {"time": 159600, "pitch": 49, "duration": 120, "velocity": 105}, {"time": 159720, "pitch": 49, "duration": 30, "velocity": 85}, {"time": 159840, "pitch": 40, "duration": 120, "velocity": 50}, {"time": 159840, "pitch": 50, "duration": 160, "velocity": 100}, {"time": 159960, "pitch": 40, "duration": 120, "velocity": 55}, {"time": 160080, "pitch": 40, "duration": 120, "velocity": 75}, {"time": 164160, "pitch": 40, "duration": 320, "velocity": 100}, {"time": 164400, "pitch": 52, "duration": 240, "velocity": 110}, {"time": 164640, "pitch": 40, "duration": 240, "velocity": 50}, {"time": 164640, "pitch": 50, "duration": 30, "velocity": 90}, {"time": 164760, "pitch": 50, "duration": 120, "velocity": 105}, {"time": 164880, "pitch": 50, "duration": 30, "velocity": 90}, {"time": 165000, "pitch": 50, "duration": 120, "velocity": 105}, {"time": 165120, "pitch": 50, "duration": 30, "velocity": 90}, {"time": 165240, "pitch": 50, "duration": 120, "velocity": 75}, {"time": 165360, "pitch": 40, "duration": 120, "velocity": 55}, {"time": 165360, "pitch": 49, "duration": 120, "velocity": 105}, {"time": 165480, "pitch": 49, "duration": 30, "velocity": 85}, {"time": 165600, "pitch": 40, "duration": 120, "velocity": 50}, {"time": 165600, "pitch": 50, "duration": 160, "velocity": 100}, {"time": 165720, "pitch": 40, "duration": 120, "velocity": 55}, {"time": 165840, "pitch": 40, "duration": 120, "velocity": 75}, {"time": 165960, "pitch": 40, "duration": 120, "velocity": 70}, {"time": 166080, "pitch": 40, "duration": 320, "velocity": 100}, {"time": 166320, "pitch": 52, "duration": 240, "velocity": 110}, {"time": 166560, "pitch": 40, "duration": 240, "velocity": 50}, {"time": 166560, "pitch": 50, "duration": 30, "velocity": 90}, {"time": 166680, "pitch": 50, "duration": 120, "velocity": 105}, {"time": 166800, "pitch": 50, "duration": 30, "velocity": 90}, {"time": 166920, "pitch": 50, "duration": 120, "velocity": 105}, {"time": 167040, "pitch": 50, "duration": 30, "velocity": 90}, {"time": 167160, "pitch": 50, "duration": 120, "velocity": 75}, {"time": 167280, "pitch": 40, "duration": 120, "velocity": 55}, {"time": 167280, "pitch": 49, "duration": 120, "velocity": 105}, {"time": 167400, "pitch": 49, "duration": 30, "velocity": 85}, {"time": 167520, "pitch": 40, "duration": 120, "velocity": 50}, {"time": 167520, "pitch": 50, "duration": 160, "velocity": 100}, {"time": 167640, "pitch": 40, "duration": 120, "velocity": 55}, {"time": 167760, "pitch": 40, "duration": 120, "velocity": 75}, {"time": 171840, "pitch": 40, "duration": 320, "velocity": 100}, {"time": 172080, "pitch": 52, "duration": 240, "velocity": 110}, {"time": 172320, "pitch": 40, "duration": 240, "velocity": 50}, {"time": 172320, "pitch": 50, "duration": 30, "velocity": 90}, {"time": 172440, "pitch": 50, "duration": 120, "velocity": 105}, {"time": 172560, "pitch": 50, "duration": 30, "velocity": 90}, {"time": 172680, "pitch": 50, "duration": 120, "velocity": 105}, {"time": 172800, "pitch": 50, "duration": 30, "velocity": 90}, {"time": 172920, "pitch": 50, "duration": 120, "velocity": 75}, {"time": 173040, "pitch": 40, "duration": 120, "velocity": 55}, {"time": 173040, "pitch": 49, "duration": 120, "velocity": 105}, {"time": 173160, "pitch": 49, "duration": 30, "velocity": 85}, {"time": 173280, "pitch": 40, "duration": 120, "velocity": 50}, {"time": 173280, "pitch": 50, "duration": 160, "velocity": 100}, {"time": 173400, "pitch": 40, "duration": 120, "velocity": 55}, {"time": 173520, "pitch": 40, "duration": 120, "velocity": 75}, {"time": 173640, "pitch": 40, "duration": 120, "velocity": 70}, {"time": 173760, "pitch": 40, "duration": 320, "velocity": 100}, {"time": 174000, "pitch": 52, "duration": 240, "velocity": 110}, {"time": 174240, "pitch": 40, "duration": 240, "velocity": 50}, {"time": 174240, "pitch": 50, "duration": 30, "velocity": 90}, {"time": 174360, "pitch": 50, "duration": 120, "velocity": 105}, {"time": 174480, "pitch": 50, "duration": 30, "velocity": 90}, {"time": 174600, "pitch": 50, "duration": 120, "velocity": 105}, {"time": 174720, "pitch": 50, "duration": 30, "velocity": 90}, {"time": 174840, "pitch": 50, "duration": 120, "velocity": 75}, {"time": 174960, "pitch": 40, "duration": 120, "velocity": 55}, {"time": 174960, "pitch": 49, "duration": 120, "velocity": 105}, {"time": 175080, "pitch": 49, "duration": 30, "velocity": 85}, {"time": 175200, "pitch": 40, "duration": 120, "velocity": 50}, {"time": 175200, "pitch": 50, "duration": 160, "velocity": 100}, {"time": 175320, "pitch": 40, "duration": 120, "velocity": 55}, {"time": 175440, "pitch": 40, "duration": 120, "velocity": 75}, {"time": 179520, "pitch": 40, "duration": 320, "velocity": 100}, {"time": 179760, "pitch": 52, "duration": 240, "velocity": 110}, {"time": 180000, "pitch": 40, "duration": 240, "velocity": 50}, {"time": 180000, "pitch": 50, "duration": 30, "velocity": 90}, {"time": 180120, "pitch": 50, "duration": 120, "velocity": 105}, {"time": 180240, "pitch": 50, "duration": 30, "velocity": 90}, {"time": 180360, "pitch": 50, "duration": 120, "velocity": 105}, {"time": 180480, "pitch": 50, "duration": 30, "velocity": 90}, {"time": 180600, "pitch": 50, "duration": 120, "velocity": 75}, {"time": 180720, "pitch": 40, "duration": 120, "velocity": 55}, {"time": 180720, "pitch": 49, "duration": 120, "velocity": 105}, {"time": 180840, "pitch": 49, "duration": 30, "velocity": 85}, {"time": 180960, "pitch": 40, "duration": 120, "velocity": 50}, {"time": 180960, "pitch": 50, "duration": 160, "velocity": 100}, {"time": 181080, "pitch": 40, "duration": 120, "velocity": 55}, {"time": 181200, "pitch": 40, "duration": 120, "velocity": 75}, {"time": 181320, "pitch": 40, "duration": 120, "velocity": 70}, {"time": 181440, "pitch": 40, "duration": 320, "velocity": 100}, {"time": 181680, "pitch": 52, "duration": 240, "velocity": 110}, {"time": 181920, "pitch": 40, "duration": 240, "velocity": 50}, {"time": 181920, "pitch": 50, "duration": 30, "velocity": 90}, {"time": 182040, "pitch": 50, "duration": 120, "velocity": 105}, {"time": 182160, "pitch": 50, "duration": 30, "velocity": 90}, {"time": 182280, "pitch": 50, "duration": 120, "velocity": 105}, {"time": 182400, "pitch": 50, "duration": 30, "velocity": 90}, {"time": 182520, "pitch": 50, "duration": 120, "velocity": 75}, {"time": 182640, "pitch": 40, "duration": 120, "velocity": 55}, {"time": 182640, "pitch": 49, "duration": 120, "velocity": 105}, {"time": 182760, "pitch": 49, "duration": 30, "velocity": 85}, {"time": 182880, "pitch": 40, "duration": 120, "velocity": 50}, {"time": 182880, "pitch": 50, "duration": 160, "velocity": 100}, {"time": 183000, "pitch": 40, "duration": 120, "velocity": 55}, {"time": 183120, "pitch": 40, "duration": 120, "velocity": 75}, {"time": 183240, "pitch": 40, "duration": 120, "velocity": 70}, {"time": 183360, "pitch": 40, "duration": 320, "velocity": 100}, {"time": 183600, "pitch": 52, "duration": 240, "velocity": 110}, {"time": 183840, "pitch": 40, "duration": 240, "velocity": 50}, {"time": 183840, "pitch": 50, "duration": 30, "velocity": 90}, {"time": 183960, "pitch": 50, "duration": 120, "velocity": 105}, {"time": 184080, "pitch": 50, "duration": 30, "velocity": 90}, {"time": 184200, "pitch": 50, "duration": 120, "velocity": 105}, {"time": 184320, "pitch": 50, "duration": 30, "velocity": 90}, {"time": 184440, "pitch": 50, "duration": 120, "velocity": 75}, {"time": 184560, "pitch": 40, "duration": 120, "velocity": 55}, {"time": 184560, "pitch": 49, "duration": 120, "velocity": 105}, {"time": 184680, "pitch": 49, "duration": 30, "velocity": 85}, {"time": 184800, "pitch": 40, "duration": 120, "velocity": 50}, {"time": 184800, "pitch": 50, "duration": 160, "velocity": 100}, {"time": 184920, "pitch": 40, "duration": 120, "velocity": 55}, {"time": 185040, "pitch": 40, "duration": 120, "velocity": 75}, {"time": 185160, "pitch": 40, "duration": 120, "velocity": 70}, {"time": 185280, "pitch": 40, "duration": 320, "velocity": 100}, {"time": 185520, "pitch": 52, "duration": 240, "velocity": 110}, {"time": 185760, "pitch": 40, "duration": 240, "velocity": 50}, {"time": 185760, "pitch": 50, "duration": 30, "velocity": 90}, {"time": 185880, "pitch": 50, "duration": 120, "velocity": 105}, {"time": 186000, "pitch": 50, "duration": 30, "velocity": 90}, {"time": 186120, "pitch": 50, "duration": 120, "velocity": 105}, {"time": 186240, "pitch": 50, "duration": 30, "velocity": 90}, {"time": 186360, "pitch": 50, "duration": 120, "velocity": 75}, {"time": 186480, "pitch": 40, "duration": 120, "velocity": 55}, {"time": 186480, "pitch": 49, "duration": 120, "velocity": 105}, {"time": 186600, "pitch": 49, "duration": 30, "velocity": 85}, {"time": 186720, "pitch": 40, "duration": 120, "velocity": 50}, {"time": 186720, "pitch": 50, "duration": 160, "velocity": 100}, {"time": 186840, "pitch": 40, "duration": 120, "velocity": 55}, {"time": 186960, "pitch": 40, "duration": 120, "velocity": 75}, {"time": 187080, "pitch": 40, "duration": 120, "velocity": 70}, {"time": 187200, "pitch": 40, "duration": 320, "velocity": 100}, {"time": 187440, "pitch": 52, "duration": 240, "velocity": 110}, {"time": 187680, "pitch": 40, "duration": 240, "velocity": 50}, {"time": 187680, "pitch": 50, "duration": 30, "velocity": 90}, {"time": 187800, "pitch": 50, "duration": 120, "velocity": 105}, {"time": 187920, "pitch": 50, "duration": 30, "velocity": 90}, {"time": 188040, "pitch": 50, "duration": 120, "velocity": 105}, {"time": 188160, "pitch": 50, "duration": 30, "velocity": 90}, {"time": 188280, "pitch": 50, "duration": 120, "velocity": 75}, {"time": 188400, "pitch": 40, "duration": 120, "velocity": 55}, {"time": 188400, "pitch": 49, "duration": 120, "velocity": 105}, {"time": 188520, "pitch": 49, "duration": 30, "velocity": 85}, {"time": 188640, "pitch": 40, "duration": 120, "velocity": 50}, {"time": 188640, "pitch": 50, "duration": 160, "velocity": 100}, {"time": 188760, "pitch": 40, "duration": 120, "velocity": 55}, {"time": 188880, "pitch": 40, "duration": 120, "velocity": 75}, {"time": 189000, "pitch": 40, "duration": 120, "velocity": 70}, {"time": 189120, "pitch": 40, "duration": 320, "velocity": 100}, {"time": 189360, "pitch": 52, "duration": 240, "velocity": 110}, {"time": 189600, "pitch": 40, "duration": 240, "velocity": 50}, {"time": 189600, "pitch": 50, "duration": 30, "velocity": 90}, {"time": 189720, "pitch": 50, "duration": 120, "velocity": 105}, {"time": 189840, "pitch": 50, "duration": 30, "velocity": 90}, {"time": 189960, "pitch": 50, "duration": 120, "velocity": 105}, {"time": 190080, "pitch": 50, "duration": 30, "velocity": 90}, {"time": 190200, "pitch": 50, "duration": 120, "velocity": 75}, {"time": 190320, "pitch": 40, "duration": 120, "velocity": 55}, {"time": 190320, "pitch": 49, "duration": 120, "velocity": 105}, {"time": 190440, "pitch": 49, "duration": 30, "velocity": 85}, {"time": 190560, "pitch": 40, "duration": 120, "velocity": 50}, {"time": 190560, "pitch": 50, "duration": 160, "velocity": 100}, {"time": 190680, "pitch": 40, "duration": 120, "velocity": 55}, {"time": 190800, "pitch": 40, "duration": 120, "velocity": 75}, {"time": 190920, "pitch": 40, "duration": 120, "velocity": 70}, {"time": 191040, "pitch": 40, "duration": 320, "velocity": 100}, {"time": 191280, "pitch": 52, "duration": 240, "velocity": 110}, {"time": 191520, "pitch": 40, "duration": 240, "velocity": 50}, {"time": 191520, "pitch": 50, "duration": 30, "velocity": 90}, {"time": 191640, "pitch": 50, "duration": 120, "velocity": 105}, {"time": 191760, "pitch": 50, "duration": 30, "velocity": 90}, {"time": 191880, "pitch": 50, "duration": 120, "velocity": 105}, {"time": 192000, "pitch": 50, "duration": 30, "velocity": 90}, {"time": 192120, "pitch": 50, "duration": 120, "velocity": 75}, {"time": 192240, "pitch": 40, "duration": 120, "velocity": 55}, {"time": 192240, "pitch": 49, "duration": 120, "velocity": 105}, {"time": 192360, "pitch": 49, "duration": 30, "velocity": 85}, {"time": 192480, "pitch": 40, "duration": 120, "velocity": 50}, {"time": 192480, "pitch": 50, "duration": 160, "velocity": 100}, {"time": 192600, "pitch": 40, "duration": 120, "velocity": 55}, {"time": 192720, "pitch": 40, "duration": 120, "velocity": 75}, {"time": 192840, "pitch": 40, "duration": 120, "velocity": 70}, {"time": 192960, "pitch": 40, "duration": 160, "velocity": 100}, {"time": 194520, "pitch": 53, "duration": 340, "velocity": 90}, {"time": 40080, "pitch": 59, "duration": 60, "velocity": 100}, {"time": 40200, "pitch": 59, "duration": 10, "velocity": 40}, {"time": 40320, "pitch": 59, "duration": 10, "velocity": 60}, {"time": 40440, "pitch": 59, "duration": 100, "velocity": 100}, {"time": 40560, "pitch": 56, "duration": 20, "velocity": 80}, {"time": 40680, "pitch": 56, "duration": 20, "velocity": 70}, {"time": 40800, "pitch": 59, "duration": 240, "velocity": 100}, {"time": 41040, "pitch": 59, "duration": 20, "velocity": 60}, {"time": 41160, "pitch": 59, "duration": 100, "velocity": 95}, {"time": 41280, "pitch": 59, "duration": 10, "velocity": 50}, {"time": 41400, "pitch": 59, "duration": 10, "velocity": 60}, {"time": 41520, "pitch": 59, "duration": 100, "velocity": 95}, {"time": 41640, "pitch": 59, "duration": 100, "velocity": 90}, {"time": 42000, "pitch": 59, "duration": 60, "velocity": 100}, {"time": 42120, "pitch": 59, "duration": 10, "velocity": 40}, {"time": 42240, "pitch": 59, "duration": 10, "velocity": 60}, {"time": 42360, "pitch": 59, "duration": 100, "velocity": 100}, {"time": 42480, "pitch": 56, "duration": 20, "velocity": 80}, {"time": 42600, "pitch": 56, "duration": 20, "velocity": 70}, {"time": 42720, "pitch": 59, "duration": 100, "velocity": 100}, {"time": 42840, "pitch": 59, "duration": 10, "velocity": 40}, {"time": 42960, "pitch": 61, "duration": 100, "velocity": 95}, {"time": 43080, "pitch": 61, "duration": 20, "velocity": 70}, {"time": 43200, "pitch": 64, "duration": 240, "velocity": 105}, {"time": 43440, "pitch": 61, "duration": 100, "velocity": 70}, {"time": 43920, "pitch": 59, "duration": 60, "velocity": 100}, {"time": 44040, "pitch": 59, "duration": 10, "velocity": 40}, {"time": 44160, "pitch": 59, "duration": 10, "velocity": 60}, {"time": 44280, "pitch": 59, "duration": 100, "velocity": 100}, {"time": 44400, "pitch": 56, "duration": 20, "velocity": 80}, {"time": 44520, "pitch": 56, "duration": 20, "velocity": 70}, {"time": 44640, "pitch": 59, "duration": 240, "velocity": 100}, {"time": 44880, "pitch": 59, "duration": 20, "velocity": 60}, {"time": 45000, "pitch": 59, "duration": 100, "velocity": 95}, {"time": 45120, "pitch": 59, "duration": 10, "velocity": 50}, {"time": 45240, "pitch": 59, "duration": 10, "velocity": 60}, {"time": 45360, "pitch": 59, "duration": 100, "velocity": 95}, {"time": 45480, "pitch": 59, "duration": 100, "velocity": 90}, {"time": 45840, "pitch": 59, "duration": 60, "velocity": 100}, {"time": 45960, "pitch": 59, "duration": 10, "velocity": 40}, {"time": 46080, "pitch": 59, "duration": 10, "velocity": 60}, {"time": 46200, "pitch": 59, "duration": 100, "velocity": 100}, {"time": 46320, "pitch": 56, "duration": 20, "velocity": 80}, {"time": 46440, "pitch": 56, "duration": 20, "velocity": 70}, {"time": 46560, "pitch": 59, "duration": 100, "velocity": 100}, {"time": 46680, "pitch": 59, "duration": 10, "velocity": 40}, {"time": 46800, "pitch": 61, "duration": 100, "velocity": 95}, {"time": 46920, "pitch": 61, "duration": 20, "velocity": 70}, {"time": 47040, "pitch": 64, "duration": 240, "velocity": 105}, {"time": 47280, "pitch": 61, "duration": 100, "velocity": 70}, {"time": 47520, "pitch": 59, "duration": 60, "velocity": 100}, {"time": 47640, "pitch": 59, "duration": 10, "velocity": 40}, {"time": 47760, "pitch": 59, "duration": 60, "velocity": 100}, {"time": 47880, "pitch": 59, "duration": 10, "velocity": 40}, {"time": 48000, "pitch": 59, "duration": 10, "velocity": 60}, {"time": 48120, "pitch": 59, "duration": 10, "velocity": 70}, {"time": 48240, "pitch": 59, "duration": 10, "velocity": 70}, {"time": 48360, "pitch": 59, "duration": 10, "velocity": 80}, {"time": 48480, "pitch": 59, "duration": 60, "velocity": 100}, {"time": 48600, "pitch": 59, "duration": 10, "velocity": 40}, {"time": 48720, "pitch": 59, "duration": 60, "velocity": 70}, {"time": 48840, "pitch": 59, "duration": 60, "velocity": 90}, {"time": 48960, "pitch": 59, "duration": 100, "velocity": 100}, {"time": 49080, "pitch": 59, "duration": 100, "velocity": 95}, {"time": 49200, "pitch": 59, "duration": 100, "velocity": 80}, {"time": 49320, "pitch": 59, "duration": 100, "velocity": 90}, {"time": 49440, "pitch": 59, "duration": 140, "velocity": 100}, {"time": 55080, "pitch": 40, "duration": 120, "velocity": 70}, {"time": 55200, "pitch": 55, "duration": 10, "velocity": 70}, {"time": 55320, "pitch": 55, "duration": 10, "velocity": 60}, {"time": 55440, "pitch": 55, "duration": 100, "velocity": 100}, {"time": 55560, "pitch": 55, "duration": 10, "velocity": 70}, {"time": 55680, "pitch": 55, "duration": 10, "velocity": 60}, {"time": 55800, "pitch": 55, "duration": 100, "velocity": 95}, {"time": 55920, "pitch": 55, "duration": 10, "velocity": 70}, {"time": 56040, "pitch": 55, "duration": 10, "velocity": 60}, {"time": 56160, "pitch": 55, "duration": 100, "velocity": 100}, {"time": 56280, "pitch": 55, "duration": 10, "velocity": 70}, {"time": 56400, "pitch": 55, "duration": 10, "velocity": 60}, {"time": 56520, "pitch": 55, "duration": 100, "velocity": 95}, {"time": 56640, "pitch": 55, "duration": 10, "velocity": 70}, {"time": 56760, "pitch": 55, "duration": 100, "velocity": 100}, {"time": 56880, "pitch": 55, "duration": 10, "velocity": 75}, {"time": 57000, "pitch": 55, "duration": 10, "velocity": 60}, {"time": 57120, "pitch": 55, "duration": 100, "velocity": 100}, {"time": 57240, "pitch": 55, "duration": 10, "velocity": 70}, {"time": 57360, "pitch": 55, "duration": 10, "velocity": 60}, {"time": 57480, "pitch": 55, "duration": 100, "velocity": 95}, {"time": 57600, "pitch": 55, "duration": 10, "velocity": 60}, {"time": 57720, "pitch": 55, "duration": 10, "velocity": 65}, {"time": 57840, "pitch": 55, "duration": 100, "velocity": 95}, {"time": 57960, "pitch": 55, "duration": 100, "velocity": 90}, {"time": 58080, "pitch": 55, "duration": 10, "velocity": 60}, {"time": 58200, "pitch": 55, "duration": 10, "velocity": 70}, {"time": 58320, "pitch": 55, "duration": 100, "velocity": 100}, {"time": 58440, "pitch": 55, "duration": 10, "velocity": 55}, {"time": 58560, "pitch": 55, "duration": 10, "velocity": 70}, {"time": 58680, "pitch": 55, "duration": 100, "velocity": 95}, {"time": 58800, "pitch": 55, "duration": 10, "velocity": 65}, {"time": 58920, "pitch": 55, "duration": 10, "velocity": 60}, {"time": 62760, "pitch": 40, "duration": 120, "velocity": 70}, {"time": 62880, "pitch": 55, "duration": 10, "velocity": 70}, {"time": 63000, "pitch": 55, "duration": 10, "velocity": 60}, {"time": 63120, "pitch": 55, "duration": 100, "velocity": 100}, {"time": 63240, "pitch": 55, "duration": 10, "velocity": 70}, {"time": 63360, "pitch": 55, "duration": 10, "velocity": 60}, {"time": 63480, "pitch": 55, "duration": 100, "velocity": 95}, {"time": 63600, "pitch": 55, "duration": 10, "velocity": 70}, {"time": 63720, "pitch": 55, "duration": 10, "velocity": 60}, {"time": 63840, "pitch": 55, "duration": 100, "velocity": 100}, {"time": 63960, "pitch": 55, "duration": 10, "velocity": 70}, {"time": 64080, "pitch": 55, "duration": 10, "velocity": 60}, {"time": 64200, "pitch": 55, "duration": 100, "velocity": 95}, {"time": 64320, "pitch": 55, "duration": 10, "velocity": 70}, {"time": 64440, "pitch": 55, "duration": 100, "velocity": 100}, {"time": 64560, "pitch": 55, "duration": 10, "velocity": 75}, {"time": 64680, "pitch": 55, "duration": 10, "velocity": 60}, {"time": 64800, "pitch": 55, "duration": 100, "velocity": 100}, {"time": 64920, "pitch": 55, "duration": 10, "velocity": 70}, {"time": 65040, "pitch": 55, "duration": 10, "velocity": 60}, {"time": 65160, "pitch": 55, "duration": 100, "velocity": 95}, {"time": 65280, "pitch": 55, "duration": 10, "velocity": 60}, {"time": 65400, "pitch": 55, "duration": 10, "velocity": 65}, {"time": 65520, "pitch": 55, "duration": 100, "velocity": 95}, {"time": 65640, "pitch": 55, "duration": 100, "velocity": 90}, {"time": 65760, "pitch": 55, "duration": 10, "velocity": 60}, {"time": 65880, "pitch": 55, "duration": 10, "velocity": 70}, {"time": 66000, "pitch": 55, "duration": 100, "velocity": 100}, {"time": 66120, "pitch": 55, "duration": 10, "velocity": 55}, {"time": 66240, "pitch": 55, "duration": 10, "velocity": 70}, {"time": 66360, "pitch": 55, "duration": 100, "velocity": 95}, {"time": 66480, "pitch": 55, "duration": 10, "velocity": 65}, {"time": 66600, "pitch": 55, "duration": 10, "velocity": 60}, {"time": 90000, "pitch": 59, "duration": 60, "velocity": 100}, {"time": 90120, "pitch": 59, "duration": 10, "velocity": 40}, {"time": 90240, "pitch": 59, "duration": 10, "velocity": 60}, {"time": 90360, "pitch": 59, "duration": 100, "velocity": 100}, {"time": 90480, "pitch": 56, "duration": 20, "velocity": 80}, {"time": 90600, "pitch": 56, "duration": 20, "velocity": 70}, {"time": 90720, "pitch": 59, "duration": 240, "velocity": 100}, {"time": 90960, "pitch": 59, "duration": 20, "velocity": 60}, {"time": 91080, "pitch": 59, "duration": 100, "velocity": 95}, {"time": 91200, "pitch": 59, "duration": 10, "velocity": 50}, {"time": 91320, "pitch": 59, "duration": 10, "velocity": 60}, {"time": 91440, "pitch": 59, "duration": 100, "velocity": 95}, {"time": 91560, "pitch": 59, "duration": 100, "velocity": 90}, {"time": 91920, "pitch": 59, "duration": 60, "velocity": 100}, {"time": 92040, "pitch": 59, "duration": 10, "velocity": 40}, {"time": 92160, "pitch": 59, "duration": 10, "velocity": 60}, {"time": 92280, "pitch": 59, "duration": 100, "velocity": 100}, {"time": 92400, "pitch": 56, "duration": 20, "velocity": 80}, {"time": 92520, "pitch": 56, "duration": 20, "velocity": 70}, {"time": 92640, "pitch": 59, "duration": 100, "velocity": 100}, {"time": 92760, "pitch": 59, "duration": 10, "velocity": 40}, {"time": 92880, "pitch": 61, "duration": 100, "velocity": 95}, {"time": 93000, "pitch": 61, "duration": 20, "velocity": 70}, {"time": 93120, "pitch": 64, "duration": 240, "velocity": 105}, {"time": 93360, "pitch": 61, "duration": 100, "velocity": 70}, {"time": 93840, "pitch": 59, "duration": 60, "velocity": 100}, {"time": 93960, "pitch": 59, "duration": 10, "velocity": 40}, {"time": 94080, "pitch": 59, "duration": 10, "velocity": 60}, {"time": 94200, "pitch": 59, "duration": 100, "velocity": 100}, {"time": 94320, "pitch": 56, "duration": 20, "velocity": 80}, {"time": 94440, "pitch": 56, "duration": 20, "velocity": 70}, {"time": 94560, "pitch": 59, "duration": 240, "velocity": 100}, {"time": 94800, "pitch": 59, "duration": 20, "velocity": 60}, {"time": 94920, "pitch": 59, "duration": 100, "velocity": 95}, {"time": 95040, "pitch": 59, "duration": 10, "velocity": 50}, {"time": 95160, "pitch": 59, "duration": 10, "velocity": 60}, {"time": 95280, "pitch": 59, "duration": 100, "velocity": 95}, {"time": 95400, "pitch": 59, "duration": 100, "velocity": 90}, {"time": 95760, "pitch": 59, "duration": 60, "velocity": 100}, {"time": 95880, "pitch": 59, "duration": 10, "velocity": 40}, {"time": 96000, "pitch": 59, "duration": 10, "velocity": 60}, {"time": 96120, "pitch": 59, "duration": 100, "velocity": 100}, {"time": 96240, "pitch": 56, "duration": 20, "velocity": 80}, {"time": 96360, "pitch": 56, "duration": 20, "velocity": 70}, {"time": 96480, "pitch": 59, "duration": 100, "velocity": 100}, {"time": 96600, "pitch": 59, "duration": 10, "velocity": 40}, {"time": 96720, "pitch": 61, "duration": 100, "velocity": 95}, {"time": 96840, "pitch": 61, "duration": 20, "velocity": 70}, {"time": 96960, "pitch": 64, "duration": 240, "velocity": 105}, {"time": 97200, "pitch": 61, "duration": 100, "velocity": 70}, {"time": 97440, "pitch": 59, "duration": 60, "velocity": 100}, {"time": 97560, "pitch": 59, "duration": 10, "velocity": 40}, {"time": 97680, "pitch": 59, "duration": 60, "velocity": 100}, {"time": 97800, "pitch": 59, "duration": 10, "velocity": 40}, {"time": 97920, "pitch": 59, "duration": 10, "velocity": 60}, {"time": 98040, "pitch": 59, "duration": 10, "velocity": 70}, {"time": 98160, "pitch": 59, "duration": 10, "velocity": 70}, {"time": 98280, "pitch": 59, "duration": 10, "velocity": 80}, {"time": 98400, "pitch": 59, "duration": 60, "velocity": 100}, {"time": 98520, "pitch": 59, "duration": 10, "velocity": 40}, {"time": 98640, "pitch": 59, "duration": 60, "velocity": 70}, {"time": 98760, "pitch": 59, "duration": 60, "velocity": 90}, {"time": 98880, "pitch": 59, "duration": 100, "velocity": 100}, {"time": 99000, "pitch": 59, "duration": 100, "velocity": 95}, {"time": 99120, "pitch": 59, "duration": 100, "velocity": 80}, {"time": 99240, "pitch": 59, "duration": 100, "velocity": 90}, {"time": 99360, "pitch": 59, "duration": 140, "velocity": 100}, {"time": 105000, "pitch": 40, "duration": 120, "velocity": 70}, {"time": 105120, "pitch": 55, "duration": 10, "velocity": 70}, {"time": 105240, "pitch": 55, "duration": 10, "velocity": 60}, {"time": 105360, "pitch": 55, "duration": 100, "velocity": 100}, {"time": 105480, "pitch": 55, "duration": 10, "velocity": 70}, {"time": 105600, "pitch": 55, "duration": 10, "velocity": 60}, {"time": 105720, "pitch": 55, "duration": 100, "velocity": 95}, {"time": 105840, "pitch": 55, "duration": 10, "velocity": 70}, {"time": 105960, "pitch": 55, "duration": 10, "velocity": 60}, {"time": 106080, "pitch": 55, "duration": 100, "velocity": 100}, {"time": 106200, "pitch": 55, "duration": 10, "velocity": 70}, {"time": 106320, "pitch": 55, "duration": 10, "velocity": 60}, {"time": 106440, "pitch": 55, "duration": 100, "velocity": 95}, {"time": 106560, "pitch": 55, "duration": 10, "velocity": 70}, {"time": 106680, "pitch": 55, "duration": 100, "velocity": 100}, {"time": 106800, "pitch": 55, "duration": 10, "velocity": 75}, {"time": 106920, "pitch": 55, "duration": 10, "velocity": 60}, {"time": 107040, "pitch": 55, "duration": 100, "velocity": 100}, {"time": 107160, "pitch": 55, "duration": 10, "velocity": 70}, {"time": 107280, "pitch": 55, "duration": 10, "velocity": 60}, {"time": 107400, "pitch": 55, "duration": 100, "velocity": 95}, {"time": 107520, "pitch": 55, "duration": 10, "velocity": 60}, {"time": 107640, "pitch": 55, "duration": 10, "velocity": 65}, {"time": 107760, "pitch": 55, "duration": 100, "velocity": 95}, {"time": 107880, "pitch": 55, "duration": 100, "velocity": 90}, {"time": 108000, "pitch": 55, "duration": 10, "velocity": 60}, {"time": 108120, "pitch": 55, "duration": 10, "velocity": 70}, {"time": 108240, "pitch": 55, "duration": 100, "velocity": 100}, {"time": 108360, "pitch": 55, "duration": 10, "velocity": 55}, {"time": 108480, "pitch": 55, "duration": 10, "velocity": 70}, {"time": 108600, "pitch": 55, "duration": 100, "velocity": 95}, {"time": 108720, "pitch": 55, "duration": 10, "velocity": 65}, {"time": 108840, "pitch": 55, "duration": 10, "velocity": 60}, {"time": 112680, "pitch": 40, "duration": 120, "velocity": 70}, {"time": 112800, "pitch": 55, "duration": 10, "velocity": 70}, {"time": 112920, "pitch": 55, "duration": 10, "velocity": 60}, {"time": 113040, "pitch": 55, "duration": 100, "velocity": 100}, {"time": 113160, "pitch": 55, "duration": 10, "velocity": 70}, {"time": 113280, "pitch": 55, "duration": 10, "velocity": 60}, {"time": 113400, "pitch": 55, "duration": 100, "velocity": 95}, {"time": 113520, "pitch": 55, "duration": 10, "velocity": 70}, {"time": 113640, "pitch": 55, "duration": 10, "velocity": 60}, {"time": 113760, "pitch": 55, "duration": 100, "velocity": 100}, {"time": 113880, "pitch": 55, "duration": 10, "velocity": 70}, {"time": 114000, "pitch": 55, "duration": 10, "velocity": 60}, {"time": 114120, "pitch": 55, "duration": 100, "velocity": 95}, {"time": 114240, "pitch": 55, "duration": 10, "velocity": 70}, {"time": 114360, "pitch": 55, "duration": 100, "velocity": 100}, {"time": 114480, "pitch": 55, "duration": 10, "velocity": 75}, {"time": 114600, "pitch": 55, "duration": 10, "velocity": 60}, {"time": 114720, "pitch": 55, "duration": 100, "velocity": 100}, {"time": 114840, "pitch": 55, "duration": 10, "velocity": 70}, {"time": 114960, "pitch": 55, "duration": 10, "velocity": 60}, {"time": 115080, "pitch": 55, "duration": 100, "velocity": 95}, {"time": 115200, "pitch": 55, "duration": 10, "velocity": 60}, {"time": 115320, "pitch": 55, "duration": 10, "velocity": 65}, {"time": 115440, "pitch": 55, "duration": 100, "velocity": 95}, {"time": 115560, "pitch": 55, "duration": 100, "velocity": 90}, {"time": 115680, "pitch": 55, "duration": 10, "velocity": 60}, {"time": 115800, "pitch": 55, "duration": 10, "velocity": 70}, {"time": 115920, "pitch": 55, "duration": 100, "velocity": 100}, {"time": 116040, "pitch": 55, "duration": 10, "velocity": 55}, {"time": 116160, "pitch": 55, "duration": 10, "velocity": 70}, {"time": 116280, "pitch": 55, "duration": 100, "velocity": 95}, {"time": 116400, "pitch": 55, "duration": 10, "velocity": 65}, {"time": 116520, "pitch": 55, "duration": 10, "velocity": 60}, {"time": 135600, "pitch": 59, "duration": 60, "velocity": 100}, {"time": 135720, "pitch": 59, "duration": 10, "velocity": 40}, {"time": 135840, "pitch": 59, "duration": 10, "velocity": 60}, {"time": 135960, "pitch": 59, "duration": 100, "velocity": 100}, {"time": 136080, "pitch": 56, "duration": 20, "velocity": 80}, {"time": 136200, "pitch": 56, "duration": 20, "velocity": 70}, {"time": 136320, "pitch": 59, "duration": 240, "velocity": 100}, {"time": 136560, "pitch": 59, "duration": 20, "velocity": 60}, {"time": 136680, "pitch": 59, "duration": 100, "velocity": 95}, {"time": 136800, "pitch": 59, "duration": 10, "velocity": 50}, {"time": 136920, "pitch": 59, "duration": 10, "velocity": 60}, {"time": 137040, "pitch": 59, "duration": 100, "velocity": 95}, {"time": 137160, "pitch": 59, "duration": 100, "velocity": 90}, {"time": 137520, "pitch": 59, "duration": 60, "velocity": 100}, {"time": 137640, "pitch": 59, "duration": 10, "velocity": 40}, {"time": 137760, "pitch": 59, "duration": 10, "velocity": 60}, {"time": 137880, "pitch": 59, "duration": 100, "velocity": 100}, {"time": 138000, "pitch": 56, "duration": 20, "velocity": 80}, {"time": 138120, "pitch": 56, "duration": 20, "velocity": 70}, {"time": 138240, "pitch": 59, "duration": 100, "velocity": 100}, {"time": 138360, "pitch": 59, "duration": 10, "velocity": 40}, {"time": 138480, "pitch": 61, "duration": 100, "velocity": 95}, {"time": 138600, "pitch": 61, "duration": 20, "velocity": 70}, {"time": 138720, "pitch": 64, "duration": 240, "velocity": 105}, {"time": 138960, "pitch": 61, "duration": 100, "velocity": 70}, {"time": 139440, "pitch": 59, "duration": 60, "velocity": 100}, {"time": 139560, "pitch": 59, "duration": 10, "velocity": 40}, {"time": 139680, "pitch": 59, "duration": 10, "velocity": 60}, {"time": 139800, "pitch": 59, "duration": 100, "velocity": 100}, {"time": 139920, "pitch": 56, "duration": 20, "velocity": 80}, {"time": 140040, "pitch": 56, "duration": 20, "velocity": 70}, {"time": 140160, "pitch": 59, "duration": 240, "velocity": 100}, {"time": 140400, "pitch": 59, "duration": 20, "velocity": 60}, {"time": 140520, "pitch": 59, "duration": 100, "velocity": 95}, {"time": 140640, "pitch": 59, "duration": 10, "velocity": 50}, {"time": 140760, "pitch": 59, "duration": 10, "velocity": 60}, {"time": 140880, "pitch": 59, "duration": 100, "velocity": 95}, {"time": 141000, "pitch": 59, "duration": 100, "velocity": 90}, {"time": 141360, "pitch": 59, "duration": 60, "velocity": 100}, {"time": 141480, "pitch": 59, "duration": 10, "velocity": 40}, {"time": 141600, "pitch": 59, "duration": 10, "velocity": 60}, {"time": 141720, "pitch": 59, "duration": 100, "velocity": 100}, {"time": 141840, "pitch": 56, "duration": 20, "velocity": 80}, {"time": 141960, "pitch": 56, "duration": 20, "velocity": 70}, {"time": 142080, "pitch": 59, "duration": 100, "velocity": 100}, {"time": 142200, "pitch": 59, "duration": 10, "velocity": 40}, {"time": 142320, "pitch": 61, "duration": 100, "velocity": 95}, {"time": 142440, "pitch": 61, "duration": 20, "velocity": 70}, {"time": 142560, "pitch": 64, "duration": 240, "velocity": 105}, {"time": 142800, "pitch": 61, "duration": 100, "velocity": 70}, {"time": 143040, "pitch": 59, "duration": 60, "velocity": 100}, {"time": 143160, "pitch": 59, "duration": 10, "velocity": 40}, {"time": 143280, "pitch": 59, "duration": 60, "velocity": 100}, {"time": 143400, "pitch": 59, "duration": 10, "velocity": 40}, {"time": 143520, "pitch": 59, "duration": 10, "velocity": 60}, {"time": 143640, "pitch": 59, "duration": 10, "velocity": 70}, {"time": 143760, "pitch": 59, "duration": 10, "velocity": 70}, {"time": 143880, "pitch": 59, "duration": 10, "velocity": 80}, {"time": 144000, "pitch": 59, "duration": 60, "velocity": 100}, {"time": 144120, "pitch": 59, "duration": 10, "velocity": 40}, {"time": 144240, "pitch": 59, "duration": 60, "velocity": 70}, {"time": 144360, "pitch": 59, "duration": 60, "velocity": 90}, {"time": 144480, "pitch": 59, "duration": 100, "velocity": 100}, {"time": 144600, "pitch": 59, "duration": 100, "velocity": 95}, {"time": 144720, "pitch": 59, "duration": 100, "velocity": 80}, {"time": 144840, "pitch": 59, "duration": 100, "velocity": 90}, {"time": 144960, "pitch": 59, "duration": 140, "velocity": 100}, {"time": 152520, "pitch": 40, "duration": 120, "velocity": 70}, {"time": 152640, "pitch": 55, "duration": 10, "velocity": 70}, {"time": 152760, "pitch": 55, "duration": 10, "velocity": 60}, {"time": 152880, "pitch": 55, "duration": 100, "velocity": 100}, {"time": 153000, "pitch": 55, "duration": 10, "velocity": 70}, {"time": 153120, "pitch": 55, "duration": 10, "velocity": 60}, {"time": 153240, "pitch": 55, "duration": 100, "velocity": 95}, {"time": 153360, "pitch": 55, "duration": 10, "velocity": 70}, {"time": 153480, "pitch": 55, "duration": 10, "velocity": 60}, {"time": 153600, "pitch": 55, "duration": 100, "velocity": 100}, {"time": 153720, "pitch": 55, "duration": 10, "velocity": 70}, {"time": 153840, "pitch": 55, "duration": 10, "velocity": 60}, {"time": 153960, "pitch": 55, "duration": 100, "velocity": 95}, {"time": 154080, "pitch": 55, "duration": 10, "velocity": 70}, {"time": 154200, "pitch": 55, "duration": 100, "velocity": 100}, {"time": 154320, "pitch": 55, "duration": 10, "velocity": 75}, {"time": 154440, "pitch": 55, "duration": 10, "velocity": 60}, {"time": 154560, "pitch": 55, "duration": 100, "velocity": 100}, {"time": 154680, "pitch": 55, "duration": 10, "velocity": 70}, {"time": 154800, "pitch": 55, "duration": 10, "velocity": 60}, {"time": 154920, "pitch": 55, "duration": 100, "velocity": 95}, {"time": 155040, "pitch": 55, "duration": 10, "velocity": 60}, {"time": 155160, "pitch": 55, "duration": 10, "velocity": 65}, {"time": 155280, "pitch": 55, "duration": 100, "velocity": 95}, {"time": 155400, "pitch": 55, "duration": 100, "velocity": 90}, {"time": 155520, "pitch": 55, "duration": 10, "velocity": 60}, {"time": 155640, "pitch": 55, "duration": 10, "velocity": 70}, {"time": 155760, "pitch": 55, "duration": 100, "velocity": 100}, {"time": 155880, "pitch": 55, "duration": 10, "velocity": 55}, {"time": 156000, "pitch": 55, "duration": 10, "velocity": 70}, {"time": 156120, "pitch": 55, "duration": 100, "velocity": 95}, {"time": 156240, "pitch": 55, "duration": 10, "velocity": 65}, {"time": 156360, "pitch": 55, "duration": 10, "velocity": 60}, {"time": 160200, "pitch": 40, "duration": 120, "velocity": 70}, {"time": 160320, "pitch": 55, "duration": 10, "velocity": 70}, {"time": 160440, "pitch": 55, "duration": 10, "velocity": 60}, {"time": 160560, "pitch": 55, "duration": 100, "velocity": 100}, {"time": 160680, "pitch": 55, "duration": 10, "velocity": 70}, {"time": 160800, "pitch": 55, "duration": 10, "velocity": 60}, {"time": 160920, "pitch": 55, "duration": 100, "velocity": 95}, {"time": 161040, "pitch": 55, "duration": 10, "velocity": 70}, {"time": 161160, "pitch": 55, "duration": 10, "velocity": 60}, {"time": 161280, "pitch": 55, "duration": 100, "velocity": 100}, {"time": 161400, "pitch": 55, "duration": 10, "velocity": 70}, {"time": 161520, "pitch": 55, "duration": 10, "velocity": 60}, {"time": 161640, "pitch": 55, "duration": 100, "velocity": 95}, {"time": 161760, "pitch": 55, "duration": 10, "velocity": 70}, {"time": 161880, "pitch": 55, "duration": 100, "velocity": 100}, {"time": 162000, "pitch": 55, "duration": 10, "velocity": 75}, {"time": 162120, "pitch": 55, "duration": 10, "velocity": 60}, {"time": 162240, "pitch": 55, "duration": 100, "velocity": 100}, {"time": 162360, "pitch": 55, "duration": 10, "velocity": 70}, {"time": 162480, "pitch": 55, "duration": 10, "velocity": 60}, {"time": 162600, "pitch": 55, "duration": 100, "velocity": 95}, {"time": 162720, "pitch": 55, "duration": 10, "velocity": 60}, {"time": 162840, "pitch": 55, "duration": 10, "velocity": 65}, {"time": 162960, "pitch": 55, "duration": 100, "velocity": 95}, {"time": 163080, "pitch": 55, "duration": 100, "velocity": 90}, {"time": 163200, "pitch": 55, "duration": 10, "velocity": 60}, {"time": 163320, "pitch": 55, "duration": 10, "velocity": 70}, {"time": 163440, "pitch": 55, "duration": 100, "velocity": 100}, {"time": 163560, "pitch": 55, "duration": 10, "velocity": 55}, {"time": 163680, "pitch": 55, "duration": 10, "velocity": 70}, {"time": 163800, "pitch": 55, "duration": 100, "velocity": 95}, {"time": 163920, "pitch": 55, "duration": 10, "velocity": 65}, {"time": 164040, "pitch": 55, "duration": 10, "velocity": 60}, {"time": 167880, "pitch": 40, "duration": 120, "velocity": 70}, {"time": 168000, "pitch": 55, "duration": 10, "velocity": 70}, {"time": 168120, "pitch": 55, "duration": 10, "velocity": 60}, {"time": 168240, "pitch": 55, "duration": 100, "velocity": 100}, {"time": 168360, "pitch": 55, "duration": 10, "velocity": 70}, {"time": 168480, "pitch": 55, "duration": 10, "velocity": 60}, {"time": 168600, "pitch": 55, "duration": 100, "velocity": 95}, {"time": 168720, "pitch": 55, "duration": 10, "velocity": 70}, {"time": 168840, "pitch": 55, "duration": 10, "velocity": 60}, {"time": 168960, "pitch": 55, "duration": 100, "velocity": 100}, {"time": 169080, "pitch": 55, "duration": 10, "velocity": 70}, {"time": 169200, "pitch": 55, "duration": 10, "velocity": 60}, {"time": 169320, "pitch": 55, "duration": 100, "velocity": 95}, {"time": 169440, "pitch": 55, "duration": 10, "velocity": 70}, {"time": 169560, "pitch": 55, "duration": 100, "velocity": 100}, {"time": 169680, "pitch": 55, "duration": 10, "velocity": 75}, {"time": 169800, "pitch": 55, "duration": 10, "velocity": 60}, {"time": 169920, "pitch": 55, "duration": 100, "velocity": 100}, {"time": 170040, "pitch": 55, "duration": 10, "velocity": 70}, {"time": 170160, "pitch": 55, "duration": 10, "velocity": 60}, {"time": 170280, "pitch": 55, "duration": 100, "velocity": 95}, {"time": 170400, "pitch": 55, "duration": 10, "velocity": 60}, {"time": 170520, "pitch": 55, "duration": 10, "velocity": 65}, {"time": 170640, "pitch": 55, "duration": 100, "velocity": 95}, {"time": 170760, "pitch": 55, "duration": 100, "velocity": 90}, {"time": 170880, "pitch": 55, "duration": 10, "velocity": 60}, {"time": 171000, "pitch": 55, "duration": 10, "velocity": 70}, {"time": 171120, "pitch": 55, "duration": 100, "velocity": 100}, {"time": 171240, "pitch": 55, "duration": 10, "velocity": 55}, {"time": 171360, "pitch": 55, "duration": 10, "velocity": 70}, {"time": 171480, "pitch": 55, "duration": 100, "velocity": 95}, {"time": 171600, "pitch": 55, "duration": 10, "velocity": 65}, {"time": 171720, "pitch": 55, "duration": 10, "velocity": 60}, {"time": 175560, "pitch": 40, "duration": 120, "velocity": 70}, {"time": 175680, "pitch": 55, "duration": 10, "velocity": 70}, {"time": 175800, "pitch": 55, "duration": 10, "velocity": 60}, {"time": 175920, "pitch": 55, "duration": 100, "velocity": 100}, {"time": 176040, "pitch": 55, "duration": 10, "velocity": 70}, {"time": 176160, "pitch": 55, "duration": 10, "velocity": 60}, {"time": 176280, "pitch": 55, "duration": 100, "velocity": 95}, {"time": 176400, "pitch": 55, "duration": 10, "velocity": 70}, {"time": 176520, "pitch": 55, "duration": 10, "velocity": 60}, {"time": 176640, "pitch": 55, "duration": 100, "velocity": 100}, {"time": 176760, "pitch": 55, "duration": 10, "velocity": 70}, {"time": 176880, "pitch": 55, "duration": 10, "velocity": 60}, {"time": 177000, "pitch": 55, "duration": 100, "velocity": 95}, {"time": 177120, "pitch": 55, "duration": 10, "velocity": 70}, {"time": 177240, "pitch": 55, "duration": 100, "velocity": 100}, {"time": 177360, "pitch": 55, "duration": 10, "velocity": 75}, {"time": 177480, "pitch": 55, "duration": 10, "velocity": 60}, {"time": 177600, "pitch": 55, "duration": 100, "velocity": 100}, {"time": 177720, "pitch": 55, "duration": 10, "velocity": 70}, {"time": 177840, "pitch": 55, "duration": 10, "velocity": 60}, {"time": 177960, "pitch": 55, "duration": 100, "velocity": 95}, {"time": 178080, "pitch": 55, "duration": 10, "velocity": 60}, {"time": 178200, "pitch": 55, "duration": 10, "velocity": 65}, {"time": 178320, "pitch": 55, "duration": 100, "velocity": 95}, {"time": 178440, "pitch": 55, "duration": 100, "velocity": 90}, {"time": 178560, "pitch": 55, "duration": 10, "velocity": 60}, {"time": 178680, "pitch": 55, "duration": 10, "velocity": 70}, {"time": 178800, "pitch": 55, "duration": 100, "velocity": 100}, {"time": 178920, "pitch": 55, "duration": 10, "velocity": 55}, {"time": 179040, "pitch": 55, "duration": 10, "velocity": 70}, {"time": 179160, "pitch": 55, "duration": 100, "velocity": 95}, {"time": 179280, "pitch": 55, "duration": 10, "velocity": 65}, {"time": 179400, "pitch": 55, "duration": 10, "velocity": 60}, {"time": 5040, "pitch": 66, "duration": 140, "velocity": 95}, {"time": 5280, "pitch": 68, "duration": 340, "velocity": 100}, {"time": 6000, "pitch": 66, "duration": 140, "velocity": 95}, {"time": 6240, "pitch": 68, "duration": 340, "velocity": 100}, {"time": 6960, "pitch": 66, "duration": 140, "velocity": 95}, {"time": 7200, "pitch": 68, "duration": 140, "velocity": 100}, {"time": 7440, "pitch": 68, "duration": 100, "velocity": 90}, {"time": 7560, "pitch": 68, "duration": 140, "velocity": 100}, {"time": 7800, "pitch": 68, "duration": 100, "velocity": 90}, {"time": 7920, "pitch": 68, "duration": 220, "velocity": 95}, {"time": 8160, "pitch": 68, "duration": 340, "velocity": 100}, {"time": 8880, "pitch": 66, "duration": 140, "velocity": 95}, {"time": 9120, "pitch": 68, "duration": 340, "velocity": 100}, {"time": 9840, "pitch": 66, "duration": 140, "velocity": 95}, {"time": 10080, "pitch": 68, "duration": 340, "velocity": 100}, {"time": 10800, "pitch": 66, "duration": 140, "velocity": 95}, {"time": 11040, "pitch": 68, "duration": 140, "velocity": 100}, {"time": 11280, "pitch": 68, "duration": 100, "velocity": 90}, {"time": 11400, "pitch": 68, "duration": 140, "velocity": 100}, {"time": 11640, "pitch": 68, "duration": 100, "velocity": 90}, {"time": 11760, "pitch": 68, "duration": 220, "velocity": 95}, {"time": 12000, "pitch": 68, "duration": 340, "velocity": 100}, {"time": 12720, "pitch": 66, "duration": 140, "velocity": 95}, {"time": 12960, "pitch": 68, "duration": 340, "velocity": 100}, {"time": 13680, "pitch": 66, "duration": 140, "velocity": 95}, {"time": 13920, "pitch": 68, "duration": 340, "velocity": 100}, {"time": 144960, "pitch": 69, "duration": 460, "velocity": 120}, {"time": 145440, "pitch": 71, "duration": 200, "velocity": 105}, {"time": 145680, "pitch": 69, "duration": 180, "velocity": 95}, {"time": 145880, "pitch": 64, "duration": 220, "velocity": 105}, {"time": 145880, "pitch": 76, "duration": 120, "velocity": 75}, {"time": 182880, "pitch": 71, "duration": 300, "velocity": 95}, {"time": 182880, "pitch": 74, "duration": 300, "velocity": 100}, {"time": 186240, "pitch": 69, "duration": 240, "velocity": 95}, {"time": 186240, "pitch": 73, "duration": 240, "velocity": 100}, {"time": 186480, "pitch": 71, "duration": 160, "velocity": 85}, {"time": 186480, "pitch": 74, "duration": 160, "velocity": 90}, {"time": 186720, "pitch": 69, "duration": 240, "velocity": 95}, {"time": 186720, "pitch": 73, "duration": 240, "velocity": 100}, {"time": 186960, "pitch": 71, "duration": 160, "velocity": 85}, {"time": 186960, "pitch": 74, "duration": 160, "velocity": 90}, {"time": 189600, "pitch": 69, "duration": 240, "velocity": 95}, {"time": 189600, "pitch": 73, "duration": 240, "velocity": 100}, {"time": 189840, "pitch": 71, "duration": 160, "velocity": 85}, {"time": 189840, "pitch": 74, "duration": 160, "velocity": 90}, {"time": 190080, "pitch": 69, "duration": 240, "velocity": 95}, {"time": 190080, "pitch": 73, "duration": 240, "velocity": 100}, {"time": 190320, "pitch": 71, "duration": 160, "velocity": 85}, {"time": 190320, "pitch": 74, "duration": 160, "velocity": 90}, {"time": 190560, "pitch": 69, "duration": 240, "velocity": 95}, {"time": 190560, "pitch": 73, "duration": 240, "velocity": 100}, {"time": 190800, "pitch": 71, "duration": 160, "velocity": 85}, {"time": 190800, "pitch": 74, "duration": 160, "velocity": 90}, {"time": 24000, "pitch": 80, "duration": 480, "velocity": 115}, {"time": 41520, "pitch": 64, "duration": 480, "velocity": 100}, {"time": 42000, "pitch": 63, "duration": 220, "velocity": 90}, {"time": 42240, "pitch": 64, "duration": 220, "velocity": 95}, {"time": 42480, "pitch": 63, "duration": 240, "velocity": 100}, {"time": 42720, "pitch": 61, "duration": 700, "velocity": 95}, {"time": 45360, "pitch": 64, "duration": 460, "velocity": 100}, {"time": 45840, "pitch": 64, "duration": 460, "velocity": 95}, {"time": 46320, "pitch": 63, "duration": 220, "velocity": 90}, {"time": 46560, "pitch": 61, "duration": 140, "velocity": 95}, {"time": 49680, "pitch": 61, "duration": 140, "velocity": 95}, {"time": 49920, "pitch": 64, "duration": 220, "velocity": 100}, {"time": 50160, "pitch": 64, "duration": 220, "velocity": 95}, {"time": 50400, "pitch": 68, "duration": 220, "velocity": 100}, {"time": 50640, "pitch": 61, "duration": 220, "velocity": 90}, {"time": 50880, "pitch": 64, "duration": 380, "velocity": 95}, {"time": 55200, "pitch": 69, "duration": 460, "velocity": 80}, {"time": 55680, "pitch": 71, "duration": 220, "velocity": 75}, {"time": 55920, "pitch": 67, "duration": 700, "velocity": 80}, {"time": 57120, "pitch": 69, "duration": 460, "velocity": 80}, {"time": 57600, "pitch": 71, "duration": 220, "velocity": 75}, {"time": 57840, "pitch": 67, "duration": 700, "velocity": 80}, {"time": 62880, "pitch": 69, "duration": 460, "velocity": 80}, {"time": 63360, "pitch": 71, "duration": 220, "velocity": 75}, {"time": 63600, "pitch": 67, "duration": 700, "velocity": 80}, {"time": 64800, "pitch": 69, "duration": 460, "velocity": 80}, {"time": 65280, "pitch": 71, "duration": 220, "velocity": 75}, {"time": 65520, "pitch": 67, "duration": 700, "velocity": 80}, {"time": 91440, "pitch": 64, "duration": 480, "velocity": 100}, {"time": 91920, "pitch": 63, "duration": 220, "velocity": 90}, {"time": 92160, "pitch": 64, "duration": 220, "velocity": 95}, {"time": 92400, "pitch": 63, "duration": 240, "velocity": 100}, {"time": 92640, "pitch": 61, "duration": 700, "velocity": 95}, {"time": 95280, "pitch": 64, "duration": 460, "velocity": 100}, {"time": 95760, "pitch": 64, "duration": 460, "velocity": 95}, {"time": 96240, "pitch": 63, "duration": 240, "velocity": 100}, {"time": 96480, "pitch": 61, "duration": 220, "velocity": 95}, {"time": 99600, "pitch": 61, "duration": 140, "velocity": 95}, {"time": 99840, "pitch": 64, "duration": 220, "velocity": 100}, {"time": 100080, "pitch": 64, "duration": 220, "velocity": 95}, {"time": 100320, "pitch": 68, "duration": 220, "velocity": 100}, {"time": 100560, "pitch": 61, "duration": 220, "velocity": 90}, {"time": 100800, "pitch": 64, "duration": 380, "velocity": 95}, {"time": 105120, "pitch": 69, "duration": 460, "velocity": 80}, {"time": 105600, "pitch": 71, "duration": 220, "velocity": 75}, {"time": 105840, "pitch": 67, "duration": 700, "velocity": 80}, {"time": 107040, "pitch": 69, "duration": 460, "velocity": 80}, {"time": 107520, "pitch": 71, "duration": 220, "velocity": 75}, {"time": 107760, "pitch": 67, "duration": 700, "velocity": 80}, {"time": 112800, "pitch": 69, "duration": 460, "velocity": 80}, {"time": 113280, "pitch": 71, "duration": 220, "velocity": 75}, {"time": 113520, "pitch": 67, "duration": 700, "velocity": 80}, {"time": 114720, "pitch": 69, "duration": 460, "velocity": 80}, {"time": 115200, "pitch": 71, "duration": 220, "velocity": 75}, {"time": 115440, "pitch": 67, "duration": 700, "velocity": 80}, {"time": 118560, "pitch": 64, "duration": 100, "velocity": 85}, {"time": 118560, "pitch": 68, "duration": 100, "velocity": 90}, {"time": 118560, "pitch": 71, "duration": 100, "velocity": 95}, {"time": 118680, "pitch": 64, "duration": 100, "velocity": 90}, {"time": 118680, "pitch": 68, "duration": 100, "velocity": 95}, {"time": 118680, "pitch": 71, "duration": 100, "velocity": 100}, {"time": 118920, "pitch": 61, "duration": 100, "velocity": 80}, {"time": 118920, "pitch": 64, "duration": 100, "velocity": 85}, {"time": 118920, "pitch": 68, "duration": 100, "velocity": 90}, {"time": 119040, "pitch": 64, "duration": 100, "velocity": 90}, {"time": 119040, "pitch": 68, "duration": 100, "velocity": 95}, {"time": 119040, "pitch": 71, "duration": 100, "velocity": 100}, {"time": 119280, "pitch": 61, "duration": 120, "velocity": 85}, {"time": 119280, "pitch": 64, "duration": 120, "velocity": 90}, {"time": 119280, "pitch": 68, "duration": 120, "velocity": 95}, {"time": 119400, "pitch": 64, "duration": 100, "velocity": 75}, {"time": 119400, "pitch": 68, "duration": 100, "velocity": 80}, {"time": 119400, "pitch": 71, "duration": 100, "velocity": 85}, {"time": 119640, "pitch": 61, "duration": 100, "velocity": 80}, {"time": 119640, "pitch": 64, "duration": 100, "velocity": 85}, {"time": 119640, "pitch": 68, "duration": 100, "velocity": 90}, {"time": 119760, "pitch": 64, "duration": 100, "velocity": 85}, {"time": 119760, "pitch": 68, "duration": 100, "velocity": 90}, {"time": 119760, "pitch": 71, "duration": 100, "velocity": 95}, {"time": 120000, "pitch": 61, "duration": 220, "velocity": 70}, {"time": 120000, "pitch": 64, "duration": 220, "velocity": 75}, {"time": 120000, "pitch": 68, "duration": 220, "velocity": 80}, {"time": 120240, "pitch": 64, "duration": 220, "velocity": 85}, {"time": 120240, "pitch": 68, "duration": 220, "velocity": 90}, {"time": 120240, "pitch": 71, "duration": 220, "velocity": 95}, {"time": 122400, "pitch": 68, "duration": 320, "velocity": 90}, {"time": 122400, "pitch": 71, "duration": 320, "velocity": 100}, {"time": 122880, "pitch": 68, "duration": 320, "velocity": 90}, {"time": 122880, "pitch": 71, "duration": 320, "velocity": 100}, {"time": 126240, "pitch": 64, "duration": 100, "velocity": 85}, {"time": 126240, "pitch": 68, "duration": 100, "velocity": 90}, {"time": 126240, "pitch": 71, "duration": 100, "velocity": 95}, {"time": 126360, "pitch": 64, "duration": 100, "velocity": 90}, {"time": 126360, "pitch": 68, "duration": 100, "velocity": 95}, {"time": 126360, "pitch": 71, "duration": 100, "velocity": 100}, {"time": 126600, "pitch": 61, "duration": 100, "velocity": 80}, {"time": 126600, "pitch": 64, "duration": 100, "velocity": 85}, {"time": 126600, "pitch": 68, "duration": 100, "velocity": 90}, {"time": 126720, "pitch": 64, "duration": 100, "velocity": 90}, {"time": 126720, "pitch": 68, "duration": 100, "velocity": 95}, {"time": 126720, "pitch": 71, "duration": 100, "velocity": 100}, {"time": 126960, "pitch": 61, "duration": 120, "velocity": 85}, {"time": 126960, "pitch": 64, "duration": 120, "velocity": 90}, {"time": 126960, "pitch": 68, "duration": 120, "velocity": 95}, {"time": 127080, "pitch": 64, "duration": 100, "velocity": 75}, {"time": 127080, "pitch": 68, "duration": 100, "velocity": 80}, {"time": 127080, "pitch": 71, "duration": 100, "velocity": 85}, {"time": 127320, "pitch": 61, "duration": 100, "velocity": 80}, {"time": 127320, "pitch": 64, "duration": 100, "velocity": 85}, {"time": 127320, "pitch": 68, "duration": 100, "velocity": 90}, {"time": 127440, "pitch": 64, "duration": 100, "velocity": 85}, {"time": 127440, "pitch": 68, "duration": 100, "velocity": 90}, {"time": 127440, "pitch": 71, "duration": 100, "velocity": 95}, {"time": 127680, "pitch": 61, "duration": 220, "velocity": 70}, {"time": 127680, "pitch": 64, "duration": 220, "velocity": 75}, {"time": 127680, "pitch": 68, "duration": 220, "velocity": 80}, {"time": 127920, "pitch": 64, "duration": 220, "velocity": 85}, {"time": 127920, "pitch": 68, "duration": 220, "velocity": 90}, {"time": 127920, "pitch": 71, "duration": 220, "velocity": 95}, {"time": 137040, "pitch": 64, "duration": 480, "velocity": 100}, {"time": 137520, "pitch": 63, "duration": 220, "velocity": 90}, {"time": 137760, "pitch": 64, "duration": 220, "velocity": 95}, {"time": 138000, "pitch": 63, "duration": 240, "velocity": 100}, {"time": 138240, "pitch": 61, "duration": 700, "velocity": 95}, {"time": 140880, "pitch": 64, "duration": 460, "velocity": 100}, {"time": 141360, "pitch": 64, "duration": 460, "velocity": 95}, {"time": 141840, "pitch": 63, "duration": 220, "velocity": 90}, {"time": 142080, "pitch": 61, "duration": 140, "velocity": 95}, {"time": 150240, "pitch": 80, "duration": 480, "velocity": 115}, {"time": 152640, "pitch": 69, "duration": 460, "velocity": 80}, {"time": 153120, "pitch": 71, "duration": 220, "velocity": 75}, {"time": 153360, "pitch": 67, "duration": 700, "velocity": 80}, {"time": 154560, "pitch": 69, "duration": 460, "velocity": 80}, {"time": 155040, "pitch": 71, "duration": 220, "velocity": 75}, {"time": 155280, "pitch": 67, "duration": 700, "velocity": 80}, {"time": 157920, "pitch": 80, "duration": 480, "velocity": 115}, {"time": 160320, "pitch": 69, "duration": 460, "velocity": 80}, {"time": 160800, "pitch": 71, "duration": 220, "velocity": 75}, {"time": 161040, "pitch": 67, "duration": 700, "velocity": 80}, {"time": 162240, "pitch": 69, "duration": 460, "velocity": 80}, {"time": 162720, "pitch": 71, "duration": 220, "velocity": 75}, {"time": 162960, "pitch": 67, "duration": 700, "velocity": 80}, {"time": 165600, "pitch": 80, "duration": 480, "velocity": 115}, {"time": 168000, "pitch": 69, "duration": 460, "velocity": 80}, {"time": 168480, "pitch": 71, "duration": 220, "velocity": 75}, {"time": 168720, "pitch": 67, "duration": 700, "velocity": 80}, {"time": 169920, "pitch": 69, "duration": 460, "velocity": 80}, {"time": 170400, "pitch": 71, "duration": 220, "velocity": 75}, {"time": 170640, "pitch": 67, "duration": 700, "velocity": 80}, {"time": 173280, "pitch": 80, "duration": 480, "velocity": 115}, {"time": 175680, "pitch": 69, "duration": 460, "velocity": 80}, {"time": 176160, "pitch": 71, "duration": 220, "velocity": 75}, {"time": 176400, "pitch": 67, "duration": 700, "velocity": 80}, {"time": 177600, "pitch": 69, "duration": 460, "velocity": 80}, {"time": 178080, "pitch": 71, "duration": 220, "velocity": 75}, {"time": 178320, "pitch": 67, "duration": 700, "velocity": 80}, {"time": 72600, "pitch": 69, "duration": 100, "velocity": 50}, {"time": 72720, "pitch": 71, "duration": 120, "velocity": 100}, {"time": 72840, "pitch": 71, "duration": 100, "velocity": 50}, {"time": 72960, "pitch": 69, "duration": 120, "velocity": 100}, {"time": 73080, "pitch": 71, "duration": 120, "velocity": 95}, {"time": 73200, "pitch": 71, "duration": 100, "velocity": 45}, {"time": 73320, "pitch": 69, "duration": 120, "velocity": 100}, {"time": 73440, "pitch": 69, "duration": 100, "velocity": 50}, {"time": 73560, "pitch": 68, "duration": 700, "velocity": 95}]}]}