{"metadata": {"schema_version": "0.1", "title": "RWC-MDB-P-2001 No. 52: Haru ga kurukara / Tomomi Ogata", "copyright": "RWC Music Database. Copyright (C) 2001 Real World Computing Partnership (contact: Masataka GOTO <m.goto@aist.go.jp>)", "source_filename": "RM-P052.SMF_SYNC.MID", "source_format": "midi"}, "resolution": 480, "tempos": [{"time": 0, "qpm": 58.8235294117647}, {"time": 480, "qpm": 139.53488372093022}, {"time": 2880, "qpm": 142.85714285714286}, {"time": 3360, "qpm": 139.53488372093022}, {"time": 6240, "qpm": 142.85714285714286}, {"time": 6720, "qpm": 139.53488372093022}, {"time": 9600, "qpm": 142.85714285714286}, {"time": 10080, "qpm": 139.53488372093022}, {"time": 12960, "qpm": 142.85714285714286}, {"time": 13440, "qpm": 139.53488372093022}, {"time": 16320, "qpm": 142.85714285714286}, {"time": 16800, "qpm": 139.53488372093022}, {"time": 19680, "qpm": 142.85714285714286}, {"time": 20160, "qpm": 139.53488372093022}, {"time": 23040, "qpm": 142.85714285714286}, {"time": 23520, "qpm": 139.53488372093022}, {"time": 26400, "qpm": 142.85714285714286}, {"time": 26880, "qpm": 139.53488372093022}, {"time": 29760, "qpm": 142.85714285714286}, {"time": 30240, "qpm": 139.53488372093022}, {"time": 33120, "qpm": 142.85714285714286}, {"time": 33600, "qpm": 139.53488372093022}, {"time": 36480, "qpm": 142.85714285714286}, {"time": 36960, "qpm": 139.53488372093022}, {"time": 39840, "qpm": 142.85714285714286}, {"time": 40320, "qpm": 139.53488372093022}, {"time": 43200, "qpm": 142.85714285714286}, {"time": 43680, "qpm": 139.53488372093022}, {"time": 46560, "qpm": 142.85714285714286}, {"time": 47040, "qpm": 139.53488372093022}, {"time": 49920, "qpm": 142.85714285714286}, {"time": 50400, "qpm": 139.53488372093022}, {"time": 53280, "qpm": 142.85714285714286}, {"time": 53760, "qpm": 139.53488372093022}, {"time": 56640, "qpm": 142.85714285714286}, {"time": 57120, "qpm": 139.53488372093022}, {"time": 60000, "qpm": 142.85714285714286}, {"time": 60480, "qpm": 139.53488372093022}, {"time": 63360, "qpm": 142.85714285714286}, {"time": 63840, "qpm": 139.53488372093022}, {"time": 66720, "qpm": 142.85714285714286}, {"time": 67200, "qpm": 139.53488372093022}, {"time": 70080, "qpm": 142.85714285714286}, {"time": 70560, "qpm": 139.53488372093022}, {"time": 73440, "qpm": 142.85714285714286}, {"time": 73920, "qpm": 139.53488372093022}, {"time": 76800, "qpm": 142.85714285714286}, {"time": 77280, "qpm": 139.53488372093022}, {"time": 80160, "qpm": 142.85714285714286}, {"time": 80640, "qpm": 139.53488372093022}, {"time": 83520, "qpm": 142.85714285714286}, {"time": 84000, "qpm": 139.53488372093022}, {"time": 86880, "qpm": 142.85714285714286}, {"time": 87360, "qpm": 139.53488372093022}, {"time": 90240, "qpm": 142.85714285714286}, {"time": 90720, "qpm": 139.53488372093022}, {"time": 93600, "qpm": 142.85714285714286}, {"time": 94080, "qpm": 139.53488372093022}, {"time": 96960, "qpm": 142.85714285714286}, {"time": 97440, "qpm": 139.53488372093022}, {"time": 100320, "qpm": 142.85714285714286}, {"time": 100800, "qpm": 139.53488372093022}, {"time": 103680, "qpm": 142.85714285714286}, {"time": 104160, "qpm": 139.53488372093022}, {"time": 107040, "qpm": 142.85714285714286}, {"time": 107520, "qpm": 139.53488372093022}, {"time": 110400, "qpm": 142.85714285714286}, {"time": 110880, "qpm": 139.53488372093022}, {"time": 113760, "qpm": 142.85714285714286}, {"time": 114240, "qpm": 139.53488372093022}, {"time": 117120, "qpm": 142.85714285714286}, {"time": 117600, "qpm": 139.53488372093022}, {"time": 120480, "qpm": 142.85714285714286}, {"time": 120960, "qpm": 139.53488372093022}, {"time": 123840, "qpm": 142.85714285714286}, {"time": 124320, "qpm": 139.53488372093022}, {"time": 127200, "qpm": 142.85714285714286}, {"time": 127680, "qpm": 139.53488372093022}, {"time": 130560, "qpm": 142.85714285714286}, {"time": 131040, "qpm": 139.53488372093022}, {"time": 133920, "qpm": 142.85714285714286}, {"time": 134400, "qpm": 139.53488372093022}, {"time": 137280, "qpm": 142.85714285714286}, {"time": 137760, "qpm": 139.53488372093022}, {"time": 140640, "qpm": 142.85714285714286}, {"time": 141120, "qpm": 139.53488372093022}, {"time": 144000, "qpm": 142.85714285714286}, {"time": 144480, "qpm": 139.53488372093022}, {"time": 147360, "qpm": 142.85714285714286}, {"time": 147840, "qpm": 139.53488372093022}, {"time": 150720, "qpm": 142.85714285714286}, {"time": 151200, "qpm": 139.53488372093022}, {"time": 154080, "qpm": 142.85714285714286}, {"time": 154560, "qpm": 139.53488372093022}, {"time": 157440, "qpm": 142.85714285714286}, {"time": 157920, "qpm": 139.53488372093022}, {"time": 160800, "qpm": 142.85714285714286}, {"time": 161280, "qpm": 139.53488372093022}, {"time": 164160, "qpm": 142.85714285714286}, {"time": 164640, "qpm": 139.53488372093022}, {"time": 167520, "qpm": 142.85714285714286}, {"time": 168000, "qpm": 139.53488372093022}, {"time": 170880, "qpm": 142.85714285714286}, {"time": 171360, "qpm": 139.53488372093022}, {"time": 174240, "qpm": 142.85714285714286}, {"time": 174720, "qpm": 139.53488372093022}, {"time": 177600, "qpm": 142.85714285714286}, {"time": 178080, "qpm": 139.53488372093022}, {"time": 180960, "qpm": 142.85714285714286}, {"time": 181440, "qpm": 139.53488372093022}, {"time": 184320, "qpm": 142.85714285714286}, {"time": 184800, "qpm": 139.53488372093022}, {"time": 187680, "qpm": 142.85714285714286}, {"time": 188160, "qpm": 139.53488372093022}, {"time": 191040, "qpm": 142.85714285714286}, {"time": 191520, "qpm": 139.53488372093022}, {"time": 194400, "qpm": 142.85714285714286}, {"time": 194880, "qpm": 139.53488372093022}, {"time": 197760, "qpm": 142.85714285714286}, {"time": 198240, "qpm": 139.53488372093022}, {"time": 201120, "qpm": 142.85714285714286}, {"time": 201600, "qpm": 139.53488372093022}, {"time": 204480, "qpm": 142.85714285714286}, {"time": 204960, "qpm": 139.53488372093022}, {"time": 207840, "qpm": 142.85714285714286}, {"time": 208320, "qpm": 139.53488372093022}, {"time": 211200, "qpm": 142.85714285714286}, {"time": 211680, "qpm": 139.53488372093022}, {"time": 214560, "qpm": 142.85714285714286}, {"time": 215040, "qpm": 139.53488372093022}, {"time": 217920, "qpm": 142.85714285714286}, {"time": 218400, "qpm": 139.53488372093022}, {"time": 221280, "qpm": 142.85714285714286}, {"time": 221760, "qpm": 139.53488372093022}, {"time": 224640, "qpm": 142.85714285714286}, {"time": 225120, "qpm": 139.53488372093022}, {"time": 228000, "qpm": 142.85714285714286}, {"time": 228480, "qpm": 139.53488372093022}, {"time": 231360, "qpm": 142.85714285714286}, {"time": 231840, "qpm": 139.53488372093022}, {"time": 234720, "qpm": 142.85714285714286}, {"time": 235200, "qpm": 139.53488372093022}, {"time": 238080, "qpm": 142.85714285714286}, {"time": 238560, "qpm": 139.53488372093022}, {"time": 241440, "qpm": 142.85714285714286}, {"time": 241920, "qpm": 139.53488372093022}, {"time": 244800, "qpm": 142.85714285714286}, {"time": 245280, "qpm": 139.53488372093022}], "key_signatures": [{"time": 0, "root": 0, "mode": "major"}], "time_signatures": [{"time": 0, "numerator": 3, "denominator": 4}, {"time": 1440, "numerator": 4, "denominator": 4}], "tracks": [{"program": 0, "is_drum": false, "name": "Piano", "notes": [{"time": 1442, "pitch": 45, "duration": 488, "velocity": 90}, {"time": 1442, "pitch": 52, "duration": 299, "velocity": 100}, {"time": 1442, "pitch": 57, "duration": 299, "velocity": 100}, {"time": 1442, "pitch": 61, "duration": 289, "velocity": 110}, {"time": 1920, "pitch": 52, "duration": 608, "velocity": 100}, {"time": 1920, "pitch": 57, "duration": 618, "velocity": 100}, {"time": 1920, "pitch": 61, "duration": 598, "velocity": 110}, {"time": 2159, "pitch": 45, "duration": 100, "velocity": 90}, {"time": 2398, "pitch": 45, "duration": 270, "velocity": 90}, {"time": 2638, "pitch": 52, "duration": 289, "velocity": 100}, {"time": 2638, "pitch": 57, "duration": 319, "velocity": 100}, {"time": 2638, "pitch": 61, "duration": 309, "velocity": 110}, {"time": 2877, "pitch": 45, "duration": 149, "velocity": 90}, {"time": 3116, "pitch": 40, "duration": 779, "velocity": 90}, {"time": 3116, "pitch": 54, "duration": 321, "velocity": 100}, {"time": 3116, "pitch": 57, "duration": 311, "velocity": 100}, {"time": 3116, "pitch": 62, "duration": 300, "velocity": 110}, {"time": 3600, "pitch": 54, "duration": 71, "velocity": 100}, {"time": 3600, "pitch": 57, "duration": 51, "velocity": 100}, {"time": 3600, "pitch": 62, "duration": 51, "velocity": 110}, {"time": 3845, "pitch": 54, "duration": 309, "velocity": 100}, {"time": 3845, "pitch": 57, "duration": 309, "velocity": 100}, {"time": 3845, "pitch": 62, "duration": 289, "velocity": 110}, {"time": 4084, "pitch": 40, "duration": 100, "velocity": 90}, {"time": 4323, "pitch": 40, "duration": 439, "velocity": 90}, {"time": 4323, "pitch": 54, "duration": 209, "velocity": 100}, {"time": 4323, "pitch": 57, "duration": 200, "velocity": 100}, {"time": 4323, "pitch": 62, "duration": 180, "velocity": 110}, {"time": 4802, "pitch": 54, "duration": 299, "velocity": 100}, {"time": 4802, "pitch": 57, "duration": 299, "velocity": 100}, {"time": 4802, "pitch": 62, "duration": 269, "velocity": 110}, {"time": 5041, "pitch": 40, "duration": 129, "velocity": 90}, {"time": 5280, "pitch": 45, "duration": 439, "velocity": 90}, {"time": 5280, "pitch": 52, "duration": 219, "velocity": 100}, {"time": 5280, "pitch": 57, "duration": 239, "velocity": 100}, {"time": 5280, "pitch": 61, "duration": 239, "velocity": 110}, {"time": 5758, "pitch": 52, "duration": 529, "velocity": 100}, {"time": 5758, "pitch": 57, "duration": 519, "velocity": 100}, {"time": 5758, "pitch": 61, "duration": 509, "velocity": 110}, {"time": 5998, "pitch": 45, "duration": 79, "velocity": 90}, {"time": 6237, "pitch": 45, "duration": 239, "velocity": 90}, {"time": 6476, "pitch": 52, "duration": 300, "velocity": 100}, {"time": 6476, "pitch": 57, "duration": 331, "velocity": 100}, {"time": 6476, "pitch": 61, "duration": 331, "velocity": 110}, {"time": 6715, "pitch": 45, "duration": 163, "velocity": 90}, {"time": 6960, "pitch": 40, "duration": 753, "velocity": 90}, {"time": 6960, "pitch": 54, "duration": 315, "velocity": 100}, {"time": 6960, "pitch": 57, "duration": 305, "velocity": 100}, {"time": 6960, "pitch": 62, "duration": 305, "velocity": 110}, {"time": 7444, "pitch": 54, "duration": 60, "velocity": 100}, {"time": 7444, "pitch": 57, "duration": 60, "velocity": 100}, {"time": 7444, "pitch": 62, "duration": 50, "velocity": 110}, {"time": 7683, "pitch": 54, "duration": 329, "velocity": 100}, {"time": 7683, "pitch": 57, "duration": 329, "velocity": 100}, {"time": 7683, "pitch": 62, "duration": 309, "velocity": 110}, {"time": 7922, "pitch": 40, "duration": 90, "velocity": 90}, {"time": 8162, "pitch": 40, "duration": 428, "velocity": 90}, {"time": 8162, "pitch": 54, "duration": 229, "velocity": 100}, {"time": 8162, "pitch": 57, "duration": 229, "velocity": 100}, {"time": 8162, "pitch": 62, "duration": 209, "velocity": 110}, {"time": 8640, "pitch": 54, "duration": 299, "velocity": 100}, {"time": 8640, "pitch": 57, "duration": 299, "velocity": 100}, {"time": 8640, "pitch": 62, "duration": 269, "velocity": 110}, {"time": 8879, "pitch": 40, "duration": 160, "velocity": 90}, {"time": 9118, "pitch": 45, "duration": 439, "velocity": 90}, {"time": 9118, "pitch": 52, "duration": 240, "velocity": 100}, {"time": 9118, "pitch": 57, "duration": 269, "velocity": 100}, {"time": 9118, "pitch": 61, "duration": 250, "velocity": 110}, {"time": 9597, "pitch": 52, "duration": 478, "velocity": 100}, {"time": 9597, "pitch": 57, "duration": 488, "velocity": 100}, {"time": 9597, "pitch": 61, "duration": 478, "velocity": 110}, {"time": 9836, "pitch": 45, "duration": 80, "velocity": 90}, {"time": 10075, "pitch": 45, "duration": 214, "velocity": 90}, {"time": 10320, "pitch": 52, "duration": 295, "velocity": 100}, {"time": 10320, "pitch": 57, "duration": 344, "velocity": 100}, {"time": 10320, "pitch": 61, "duration": 334, "velocity": 110}, {"time": 10565, "pitch": 45, "duration": 109, "velocity": 90}, {"time": 10804, "pitch": 40, "duration": 747, "velocity": 90}, {"time": 10804, "pitch": 54, "duration": 299, "velocity": 100}, {"time": 10804, "pitch": 57, "duration": 289, "velocity": 100}, {"time": 10804, "pitch": 62, "duration": 289, "velocity": 110}, {"time": 11282, "pitch": 54, "duration": 80, "velocity": 100}, {"time": 11282, "pitch": 57, "duration": 70, "velocity": 100}, {"time": 11282, "pitch": 62, "duration": 90, "velocity": 110}, {"time": 11522, "pitch": 54, "duration": 309, "velocity": 100}, {"time": 11522, "pitch": 57, "duration": 299, "velocity": 100}, {"time": 11522, "pitch": 62, "duration": 289, "velocity": 110}, {"time": 11761, "pitch": 40, "duration": 89, "velocity": 90}, {"time": 12000, "pitch": 40, "duration": 419, "velocity": 90}, {"time": 12000, "pitch": 54, "duration": 199, "velocity": 100}, {"time": 12000, "pitch": 57, "duration": 199, "velocity": 100}, {"time": 12000, "pitch": 62, "duration": 189, "velocity": 110}, {"time": 12478, "pitch": 54, "duration": 299, "velocity": 100}, {"time": 12478, "pitch": 57, "duration": 309, "velocity": 100}, {"time": 12478, "pitch": 62, "duration": 289, "velocity": 110}, {"time": 12718, "pitch": 40, "duration": 159, "velocity": 90}, {"time": 12957, "pitch": 45, "duration": 448, "velocity": 90}, {"time": 12957, "pitch": 52, "duration": 229, "velocity": 100}, {"time": 12957, "pitch": 57, "duration": 259, "velocity": 100}, {"time": 12957, "pitch": 61, "duration": 259, "velocity": 110}, {"time": 13435, "pitch": 52, "duration": 530, "velocity": 100}, {"time": 13435, "pitch": 57, "duration": 550, "velocity": 100}, {"time": 13435, "pitch": 61, "duration": 530, "velocity": 110}, {"time": 13680, "pitch": 45, "duration": 92, "velocity": 90}, {"time": 13925, "pitch": 45, "duration": 229, "velocity": 90}, {"time": 14164, "pitch": 52, "duration": 349, "velocity": 100}, {"time": 14164, "pitch": 57, "duration": 369, "velocity": 100}, {"time": 14164, "pitch": 61, "duration": 339, "velocity": 110}, {"time": 14403, "pitch": 45, "duration": 130, "velocity": 90}, {"time": 14642, "pitch": 40, "duration": 150, "velocity": 90}, {"time": 14642, "pitch": 50, "duration": 130, "velocity": 100}, {"time": 14642, "pitch": 56, "duration": 130, "velocity": 100}, {"time": 14642, "pitch": 61, "duration": 140, "velocity": 110}, {"time": 15360, "pitch": 40, "duration": 1385, "velocity": 90}, {"time": 15360, "pitch": 50, "duration": 1375, "velocity": 100}, {"time": 15360, "pitch": 56, "duration": 1375, "velocity": 100}, {"time": 15360, "pitch": 61, "duration": 1395, "velocity": 110}, {"time": 16795, "pitch": 38, "duration": 439, "velocity": 90}, {"time": 16795, "pitch": 54, "duration": 276, "velocity": 100}, {"time": 16795, "pitch": 57, "duration": 286, "velocity": 100}, {"time": 16795, "pitch": 61, "duration": 286, "velocity": 100}, {"time": 16795, "pitch": 64, "duration": 255, "velocity": 110}, {"time": 17285, "pitch": 54, "duration": 528, "velocity": 100}, {"time": 17285, "pitch": 57, "duration": 528, "velocity": 100}, {"time": 17285, "pitch": 61, "duration": 528, "velocity": 100}, {"time": 17285, "pitch": 64, "duration": 508, "velocity": 110}, {"time": 17524, "pitch": 38, "duration": 90, "velocity": 90}, {"time": 17763, "pitch": 38, "duration": 249, "velocity": 90}, {"time": 18002, "pitch": 54, "duration": 329, "velocity": 100}, {"time": 18002, "pitch": 57, "duration": 339, "velocity": 100}, {"time": 18002, "pitch": 61, "duration": 359, "velocity": 100}, {"time": 18002, "pitch": 64, "duration": 339, "velocity": 110}, {"time": 18242, "pitch": 38, "duration": 159, "velocity": 90}, {"time": 18481, "pitch": 37, "duration": 717, "velocity": 90}, {"time": 18481, "pitch": 56, "duration": 309, "velocity": 100}, {"time": 18481, "pitch": 59, "duration": 289, "velocity": 100}, {"time": 18481, "pitch": 61, "duration": 299, "velocity": 100}, {"time": 18481, "pitch": 64, "duration": 289, "velocity": 110}, {"time": 18959, "pitch": 56, "duration": 60, "velocity": 100}, {"time": 18959, "pitch": 59, "duration": 70, "velocity": 100}, {"time": 18959, "pitch": 61, "duration": 40, "velocity": 100}, {"time": 18959, "pitch": 64, "duration": 50, "velocity": 110}, {"time": 19198, "pitch": 56, "duration": 309, "velocity": 100}, {"time": 19198, "pitch": 59, "duration": 309, "velocity": 100}, {"time": 19198, "pitch": 61, "duration": 309, "velocity": 100}, {"time": 19198, "pitch": 64, "duration": 289, "velocity": 110}, {"time": 19438, "pitch": 37, "duration": 89, "velocity": 90}, {"time": 19677, "pitch": 37, "duration": 478, "velocity": 90}, {"time": 19677, "pitch": 56, "duration": 229, "velocity": 100}, {"time": 19677, "pitch": 59, "duration": 239, "velocity": 100}, {"time": 19677, "pitch": 61, "duration": 219, "velocity": 100}, {"time": 19677, "pitch": 64, "duration": 229, "velocity": 110}, {"time": 20155, "pitch": 56, "duration": 276, "velocity": 100}, {"time": 20155, "pitch": 59, "duration": 276, "velocity": 100}, {"time": 20155, "pitch": 61, "duration": 255, "velocity": 100}, {"time": 20155, "pitch": 64, "duration": 255, "velocity": 110}, {"time": 20400, "pitch": 37, "duration": 163, "velocity": 90}, {"time": 20645, "pitch": 35, "duration": 438, "velocity": 90}, {"time": 20645, "pitch": 54, "duration": 239, "velocity": 100}, {"time": 20645, "pitch": 57, "duration": 249, "velocity": 100}, {"time": 20645, "pitch": 59, "duration": 239, "velocity": 100}, {"time": 20645, "pitch": 62, "duration": 239, "velocity": 110}, {"time": 21123, "pitch": 54, "duration": 209, "velocity": 100}, {"time": 21123, "pitch": 57, "duration": 200, "velocity": 100}, {"time": 21123, "pitch": 59, "duration": 190, "velocity": 100}, {"time": 21123, "pitch": 62, "duration": 200, "velocity": 110}, {"time": 21362, "pitch": 40, "duration": 529, "velocity": 90}, {"time": 21362, "pitch": 54, "duration": 260, "velocity": 100}, {"time": 21362, "pitch": 57, "duration": 269, "velocity": 100}, {"time": 21362, "pitch": 59, "duration": 260, "velocity": 100}, {"time": 21362, "pitch": 62, "duration": 250, "velocity": 110}, {"time": 21841, "pitch": 54, "duration": 289, "velocity": 100}, {"time": 21841, "pitch": 57, "duration": 309, "velocity": 100}, {"time": 21841, "pitch": 59, "duration": 299, "velocity": 100}, {"time": 21841, "pitch": 62, "duration": 299, "velocity": 110}, {"time": 22080, "pitch": 40, "duration": 169, "velocity": 90}, {"time": 22319, "pitch": 33, "duration": 748, "velocity": 90}, {"time": 22319, "pitch": 56, "duration": 289, "velocity": 100}, {"time": 22319, "pitch": 59, "duration": 289, "velocity": 100}, {"time": 22319, "pitch": 61, "duration": 289, "velocity": 100}, {"time": 22319, "pitch": 64, "duration": 269, "velocity": 110}, {"time": 22798, "pitch": 56, "duration": 39, "velocity": 100}, {"time": 22798, "pitch": 59, "duration": 39, "velocity": 100}, {"time": 22798, "pitch": 61, "duration": 49, "velocity": 100}, {"time": 22798, "pitch": 64, "duration": 29, "velocity": 110}, {"time": 23037, "pitch": 56, "duration": 299, "velocity": 100}, {"time": 23037, "pitch": 59, "duration": 289, "velocity": 100}, {"time": 23037, "pitch": 61, "duration": 299, "velocity": 100}, {"time": 23037, "pitch": 64, "duration": 279, "velocity": 110}, {"time": 23276, "pitch": 33, "duration": 80, "velocity": 90}, {"time": 23515, "pitch": 33, "duration": 500, "velocity": 90}, {"time": 23515, "pitch": 56, "duration": 204, "velocity": 100}, {"time": 23515, "pitch": 59, "duration": 194, "velocity": 100}, {"time": 23515, "pitch": 61, "duration": 204, "velocity": 100}, {"time": 23515, "pitch": 64, "duration": 204, "velocity": 110}, {"time": 24005, "pitch": 56, "duration": 229, "velocity": 100}, {"time": 24005, "pitch": 59, "duration": 229, "velocity": 100}, {"time": 24005, "pitch": 61, "duration": 229, "velocity": 100}, {"time": 24005, "pitch": 64, "duration": 219, "velocity": 110}, {"time": 24244, "pitch": 33, "duration": 110, "velocity": 90}, {"time": 24483, "pitch": 38, "duration": 429, "velocity": 90}, {"time": 24483, "pitch": 54, "duration": 269, "velocity": 100}, {"time": 24483, "pitch": 57, "duration": 279, "velocity": 100}, {"time": 24483, "pitch": 61, "duration": 279, "velocity": 100}, {"time": 24483, "pitch": 64, "duration": 249, "velocity": 110}, {"time": 24962, "pitch": 54, "duration": 528, "velocity": 100}, {"time": 24962, "pitch": 57, "duration": 528, "velocity": 100}, {"time": 24962, "pitch": 61, "duration": 528, "velocity": 100}, {"time": 24962, "pitch": 64, "duration": 508, "velocity": 110}, {"time": 25201, "pitch": 38, "duration": 89, "velocity": 90}, {"time": 25440, "pitch": 38, "duration": 249, "velocity": 90}, {"time": 25679, "pitch": 54, "duration": 329, "velocity": 100}, {"time": 25679, "pitch": 57, "duration": 339, "velocity": 100}, {"time": 25679, "pitch": 61, "duration": 359, "velocity": 100}, {"time": 25679, "pitch": 64, "duration": 339, "velocity": 110}, {"time": 25918, "pitch": 38, "duration": 160, "velocity": 90}, {"time": 26158, "pitch": 37, "duration": 717, "velocity": 90}, {"time": 26158, "pitch": 56, "duration": 309, "velocity": 100}, {"time": 26158, "pitch": 59, "duration": 289, "velocity": 100}, {"time": 26158, "pitch": 61, "duration": 299, "velocity": 100}, {"time": 26158, "pitch": 64, "duration": 289, "velocity": 110}, {"time": 26636, "pitch": 56, "duration": 60, "velocity": 100}, {"time": 26636, "pitch": 59, "duration": 70, "velocity": 100}, {"time": 26636, "pitch": 61, "duration": 40, "velocity": 100}, {"time": 26636, "pitch": 64, "duration": 50, "velocity": 110}, {"time": 26875, "pitch": 56, "duration": 316, "velocity": 100}, {"time": 26875, "pitch": 59, "duration": 316, "velocity": 100}, {"time": 26875, "pitch": 61, "duration": 316, "velocity": 100}, {"time": 26875, "pitch": 64, "duration": 296, "velocity": 110}, {"time": 27120, "pitch": 37, "duration": 92, "velocity": 90}, {"time": 27365, "pitch": 37, "duration": 478, "velocity": 90}, {"time": 27365, "pitch": 56, "duration": 229, "velocity": 100}, {"time": 27365, "pitch": 59, "duration": 239, "velocity": 100}, {"time": 27365, "pitch": 61, "duration": 219, "velocity": 100}, {"time": 27365, "pitch": 64, "duration": 229, "velocity": 110}, {"time": 27843, "pitch": 56, "duration": 269, "velocity": 100}, {"time": 27843, "pitch": 59, "duration": 269, "velocity": 100}, {"time": 27843, "pitch": 61, "duration": 249, "velocity": 100}, {"time": 27843, "pitch": 64, "duration": 249, "velocity": 110}, {"time": 28082, "pitch": 37, "duration": 160, "velocity": 90}, {"time": 28322, "pitch": 35, "duration": 438, "velocity": 90}, {"time": 28322, "pitch": 54, "duration": 239, "velocity": 100}, {"time": 28322, "pitch": 57, "duration": 249, "velocity": 100}, {"time": 28322, "pitch": 59, "duration": 239, "velocity": 100}, {"time": 28322, "pitch": 62, "duration": 239, "velocity": 110}, {"time": 28800, "pitch": 54, "duration": 209, "velocity": 100}, {"time": 28800, "pitch": 57, "duration": 199, "velocity": 100}, {"time": 28800, "pitch": 59, "duration": 189, "velocity": 100}, {"time": 28800, "pitch": 62, "duration": 199, "velocity": 110}, {"time": 29039, "pitch": 40, "duration": 528, "velocity": 90}, {"time": 29039, "pitch": 54, "duration": 259, "velocity": 100}, {"time": 29039, "pitch": 57, "duration": 269, "velocity": 100}, {"time": 29039, "pitch": 59, "duration": 259, "velocity": 100}, {"time": 29039, "pitch": 62, "duration": 249, "velocity": 110}, {"time": 29518, "pitch": 54, "duration": 289, "velocity": 100}, {"time": 29518, "pitch": 57, "duration": 309, "velocity": 100}, {"time": 29518, "pitch": 59, "duration": 299, "velocity": 100}, {"time": 29518, "pitch": 62, "duration": 299, "velocity": 110}, {"time": 29757, "pitch": 40, "duration": 169, "velocity": 90}, {"time": 29996, "pitch": 33, "duration": 759, "velocity": 90}, {"time": 29996, "pitch": 56, "duration": 290, "velocity": 100}, {"time": 29996, "pitch": 59, "duration": 290, "velocity": 100}, {"time": 29996, "pitch": 61, "duration": 290, "velocity": 100}, {"time": 29996, "pitch": 64, "duration": 270, "velocity": 110}, {"time": 30480, "pitch": 56, "duration": 41, "velocity": 100}, {"time": 30480, "pitch": 59, "duration": 41, "velocity": 100}, {"time": 30480, "pitch": 61, "duration": 51, "velocity": 100}, {"time": 30480, "pitch": 64, "duration": 31, "velocity": 110}, {"time": 30725, "pitch": 56, "duration": 299, "velocity": 100}, {"time": 30725, "pitch": 59, "duration": 289, "velocity": 100}, {"time": 30725, "pitch": 61, "duration": 299, "velocity": 100}, {"time": 30725, "pitch": 64, "duration": 279, "velocity": 110}, {"time": 30964, "pitch": 33, "duration": 80, "velocity": 80}, {"time": 31203, "pitch": 33, "duration": 489, "velocity": 90}, {"time": 31203, "pitch": 56, "duration": 199, "velocity": 100}, {"time": 31203, "pitch": 59, "duration": 190, "velocity": 100}, {"time": 31203, "pitch": 61, "duration": 199, "velocity": 100}, {"time": 31203, "pitch": 64, "duration": 199, "velocity": 110}, {"time": 31682, "pitch": 56, "duration": 229, "velocity": 100}, {"time": 31682, "pitch": 59, "duration": 229, "velocity": 100}, {"time": 31682, "pitch": 61, "duration": 229, "velocity": 100}, {"time": 31682, "pitch": 64, "duration": 219, "velocity": 110}, {"time": 31921, "pitch": 33, "duration": 109, "velocity": 90}, {"time": 32160, "pitch": 35, "duration": 488, "velocity": 90}, {"time": 32160, "pitch": 54, "duration": 319, "velocity": 100}, {"time": 32160, "pitch": 57, "duration": 319, "velocity": 100}, {"time": 32160, "pitch": 62, "duration": 309, "velocity": 110}, {"time": 32638, "pitch": 54, "duration": 648, "velocity": 100}, {"time": 32638, "pitch": 57, "duration": 648, "velocity": 100}, {"time": 32638, "pitch": 62, "duration": 618, "velocity": 110}, {"time": 32878, "pitch": 35, "duration": 119, "velocity": 90}, {"time": 33117, "pitch": 35, "duration": 349, "velocity": 90}, {"time": 33356, "pitch": 54, "duration": 413, "velocity": 100}, {"time": 33356, "pitch": 57, "duration": 423, "velocity": 100}, {"time": 33356, "pitch": 62, "duration": 413, "velocity": 110}, {"time": 33595, "pitch": 35, "duration": 133, "velocity": 90}, {"time": 33840, "pitch": 35, "duration": 763, "velocity": 90}, {"time": 33840, "pitch": 54, "duration": 344, "velocity": 100}, {"time": 33840, "pitch": 57, "duration": 364, "velocity": 100}, {"time": 33840, "pitch": 62, "duration": 334, "velocity": 110}, {"time": 34324, "pitch": 54, "duration": 110, "velocity": 100}, {"time": 34324, "pitch": 57, "duration": 110, "velocity": 100}, {"time": 34324, "pitch": 62, "duration": 90, "velocity": 110}, {"time": 34563, "pitch": 54, "duration": 339, "velocity": 100}, {"time": 34563, "pitch": 57, "duration": 359, "velocity": 100}, {"time": 34563, "pitch": 62, "duration": 329, "velocity": 110}, {"time": 34802, "pitch": 35, "duration": 130, "velocity": 90}, {"time": 35042, "pitch": 35, "duration": 558, "velocity": 90}, {"time": 35042, "pitch": 54, "duration": 338, "velocity": 100}, {"time": 35042, "pitch": 57, "duration": 358, "velocity": 100}, {"time": 35042, "pitch": 62, "duration": 338, "velocity": 110}, {"time": 35520, "pitch": 54, "duration": 349, "velocity": 100}, {"time": 35520, "pitch": 57, "duration": 389, "velocity": 100}, {"time": 35520, "pitch": 62, "duration": 399, "velocity": 110}, {"time": 35759, "pitch": 35, "duration": 219, "velocity": 90}, {"time": 35998, "pitch": 37, "duration": 549, "velocity": 90}, {"time": 35998, "pitch": 56, "duration": 369, "velocity": 100}, {"time": 35998, "pitch": 59, "duration": 389, "velocity": 100}, {"time": 35998, "pitch": 64, "duration": 389, "velocity": 110}, {"time": 36477, "pitch": 56, "duration": 662, "velocity": 100}, {"time": 36477, "pitch": 59, "duration": 672, "velocity": 100}, {"time": 36477, "pitch": 64, "duration": 641, "velocity": 110}, {"time": 36716, "pitch": 37, "duration": 140, "velocity": 90}, {"time": 36955, "pitch": 37, "duration": 388, "velocity": 90}, {"time": 37200, "pitch": 56, "duration": 424, "velocity": 100}, {"time": 37200, "pitch": 59, "duration": 424, "velocity": 100}, {"time": 37200, "pitch": 64, "duration": 374, "velocity": 110}, {"time": 37445, "pitch": 37, "duration": 209, "velocity": 90}, {"time": 37684, "pitch": 37, "duration": 728, "velocity": 90}, {"time": 37684, "pitch": 56, "duration": 339, "velocity": 100}, {"time": 37684, "pitch": 59, "duration": 369, "velocity": 100}, {"time": 37684, "pitch": 64, "duration": 339, "velocity": 110}, {"time": 38162, "pitch": 56, "duration": 90, "velocity": 100}, {"time": 38162, "pitch": 59, "duration": 100, "velocity": 100}, {"time": 38162, "pitch": 64, "duration": 50, "velocity": 110}, {"time": 38402, "pitch": 56, "duration": 388, "velocity": 100}, {"time": 38402, "pitch": 59, "duration": 388, "velocity": 100}, {"time": 38402, "pitch": 64, "duration": 378, "velocity": 110}, {"time": 38641, "pitch": 37, "duration": 139, "velocity": 90}, {"time": 38880, "pitch": 37, "duration": 608, "velocity": 90}, {"time": 38880, "pitch": 56, "duration": 379, "velocity": 100}, {"time": 38880, "pitch": 59, "duration": 389, "velocity": 100}, {"time": 38880, "pitch": 64, "duration": 359, "velocity": 110}, {"time": 39358, "pitch": 56, "duration": 399, "velocity": 100}, {"time": 39358, "pitch": 59, "duration": 399, "velocity": 100}, {"time": 39358, "pitch": 64, "duration": 319, "velocity": 110}, {"time": 39598, "pitch": 37, "duration": 179, "velocity": 90}, {"time": 39837, "pitch": 35, "duration": 529, "velocity": 90}, {"time": 39837, "pitch": 54, "duration": 309, "velocity": 100}, {"time": 39837, "pitch": 57, "duration": 339, "velocity": 100}, {"time": 39837, "pitch": 62, "duration": 309, "velocity": 110}, {"time": 40315, "pitch": 54, "duration": 709, "velocity": 100}, {"time": 40315, "pitch": 57, "duration": 719, "velocity": 100}, {"time": 40315, "pitch": 62, "duration": 709, "velocity": 110}, {"time": 40560, "pitch": 35, "duration": 143, "velocity": 90}, {"time": 40805, "pitch": 35, "duration": 359, "velocity": 90}, {"time": 41044, "pitch": 54, "duration": 419, "velocity": 100}, {"time": 41044, "pitch": 57, "duration": 429, "velocity": 100}, {"time": 41044, "pitch": 62, "duration": 389, "velocity": 110}, {"time": 41283, "pitch": 35, "duration": 199, "velocity": 90}, {"time": 41522, "pitch": 35, "duration": 778, "velocity": 90}, {"time": 41522, "pitch": 54, "duration": 359, "velocity": 100}, {"time": 41522, "pitch": 57, "duration": 389, "velocity": 100}, {"time": 41522, "pitch": 62, "duration": 379, "velocity": 110}, {"time": 42001, "pitch": 54, "duration": 60, "velocity": 100}, {"time": 42001, "pitch": 57, "duration": 89, "velocity": 100}, {"time": 42001, "pitch": 62, "duration": 89, "velocity": 110}, {"time": 42240, "pitch": 54, "duration": 359, "velocity": 100}, {"time": 42240, "pitch": 57, "duration": 379, "velocity": 100}, {"time": 42240, "pitch": 62, "duration": 359, "velocity": 110}, {"time": 42479, "pitch": 35, "duration": 90, "velocity": 90}, {"time": 42718, "pitch": 35, "duration": 509, "velocity": 90}, {"time": 42718, "pitch": 54, "duration": 309, "velocity": 100}, {"time": 42718, "pitch": 57, "duration": 339, "velocity": 100}, {"time": 42718, "pitch": 62, "duration": 299, "velocity": 110}, {"time": 43197, "pitch": 54, "duration": 279, "velocity": 100}, {"time": 43197, "pitch": 57, "duration": 289, "velocity": 100}, {"time": 43197, "pitch": 62, "duration": 229, "velocity": 110}, {"time": 43436, "pitch": 35, "duration": 199, "velocity": 90}, {"time": 43675, "pitch": 40, "duration": 530, "velocity": 90}, {"time": 43675, "pitch": 54, "duration": 337, "velocity": 100}, {"time": 43675, "pitch": 57, "duration": 327, "velocity": 100}, {"time": 43675, "pitch": 62, "duration": 296, "velocity": 110}, {"time": 44165, "pitch": 54, "duration": 648, "velocity": 100}, {"time": 44165, "pitch": 57, "duration": 618, "velocity": 100}, {"time": 44165, "pitch": 62, "duration": 618, "velocity": 110}, {"time": 44404, "pitch": 40, "duration": 110, "velocity": 90}, {"time": 44643, "pitch": 40, "duration": 259, "velocity": 90}, {"time": 44882, "pitch": 54, "duration": 339, "velocity": 100}, {"time": 44882, "pitch": 57, "duration": 349, "velocity": 100}, {"time": 44882, "pitch": 62, "duration": 309, "velocity": 110}, {"time": 45122, "pitch": 40, "duration": 119, "velocity": 90}, {"time": 45361, "pitch": 40, "duration": 777, "velocity": 90}, {"time": 45361, "pitch": 56, "duration": 349, "velocity": 100}, {"time": 45361, "pitch": 59, "duration": 359, "velocity": 100}, {"time": 45361, "pitch": 64, "duration": 309, "velocity": 110}, {"time": 45839, "pitch": 56, "duration": 90, "velocity": 100}, {"time": 45839, "pitch": 59, "duration": 80, "velocity": 100}, {"time": 45839, "pitch": 64, "duration": 70, "velocity": 110}, {"time": 46078, "pitch": 56, "duration": 369, "velocity": 100}, {"time": 46078, "pitch": 59, "duration": 329, "velocity": 100}, {"time": 46078, "pitch": 64, "duration": 339, "velocity": 110}, {"time": 46318, "pitch": 40, "duration": 109, "velocity": 90}, {"time": 46557, "pitch": 40, "duration": 539, "velocity": 90}, {"time": 46557, "pitch": 56, "duration": 289, "velocity": 100}, {"time": 46557, "pitch": 59, "duration": 249, "velocity": 100}, {"time": 46557, "pitch": 64, "duration": 259, "velocity": 110}, {"time": 47035, "pitch": 56, "duration": 357, "velocity": 100}, {"time": 47035, "pitch": 59, "duration": 357, "velocity": 100}, {"time": 47035, "pitch": 64, "duration": 347, "velocity": 110}, {"time": 47280, "pitch": 40, "duration": 143, "velocity": 90}, {"time": 47525, "pitch": 38, "duration": 428, "velocity": 90}, {"time": 47525, "pitch": 54, "duration": 269, "velocity": 100}, {"time": 47525, "pitch": 57, "duration": 279, "velocity": 100}, {"time": 47525, "pitch": 61, "duration": 279, "velocity": 100}, {"time": 47525, "pitch": 64, "duration": 249, "velocity": 110}, {"time": 48003, "pitch": 54, "duration": 528, "velocity": 100}, {"time": 48003, "pitch": 57, "duration": 528, "velocity": 100}, {"time": 48003, "pitch": 61, "duration": 528, "velocity": 100}, {"time": 48003, "pitch": 64, "duration": 508, "velocity": 110}, {"time": 48242, "pitch": 38, "duration": 90, "velocity": 90}, {"time": 48482, "pitch": 38, "duration": 249, "velocity": 90}, {"time": 48721, "pitch": 54, "duration": 329, "velocity": 100}, {"time": 48721, "pitch": 57, "duration": 339, "velocity": 100}, {"time": 48721, "pitch": 61, "duration": 359, "velocity": 100}, {"time": 48721, "pitch": 64, "duration": 339, "velocity": 110}, {"time": 48960, "pitch": 38, "duration": 159, "velocity": 90}, {"time": 49199, "pitch": 37, "duration": 718, "velocity": 90}, {"time": 49199, "pitch": 56, "duration": 309, "velocity": 100}, {"time": 49199, "pitch": 59, "duration": 289, "velocity": 100}, {"time": 49199, "pitch": 61, "duration": 299, "velocity": 100}, {"time": 49199, "pitch": 64, "duration": 289, "velocity": 110}, {"time": 49678, "pitch": 56, "duration": 59, "velocity": 100}, {"time": 49678, "pitch": 59, "duration": 69, "velocity": 100}, {"time": 49678, "pitch": 61, "duration": 39, "velocity": 100}, {"time": 49678, "pitch": 64, "duration": 49, "velocity": 110}, {"time": 49917, "pitch": 56, "duration": 309, "velocity": 100}, {"time": 49917, "pitch": 59, "duration": 309, "velocity": 100}, {"time": 49917, "pitch": 61, "duration": 309, "velocity": 100}, {"time": 49917, "pitch": 64, "duration": 289, "velocity": 110}, {"time": 50156, "pitch": 37, "duration": 90, "velocity": 90}, {"time": 50395, "pitch": 37, "duration": 490, "velocity": 90}, {"time": 50395, "pitch": 56, "duration": 235, "velocity": 100}, {"time": 50395, "pitch": 59, "duration": 245, "velocity": 100}, {"time": 50395, "pitch": 61, "duration": 225, "velocity": 100}, {"time": 50395, "pitch": 64, "duration": 235, "velocity": 110}, {"time": 50885, "pitch": 56, "duration": 269, "velocity": 100}, {"time": 50885, "pitch": 59, "duration": 269, "velocity": 100}, {"time": 50885, "pitch": 61, "duration": 249, "velocity": 100}, {"time": 50885, "pitch": 64, "duration": 249, "velocity": 110}, {"time": 51124, "pitch": 37, "duration": 159, "velocity": 90}, {"time": 51363, "pitch": 35, "duration": 439, "velocity": 90}, {"time": 51363, "pitch": 54, "duration": 239, "velocity": 100}, {"time": 51363, "pitch": 57, "duration": 249, "velocity": 100}, {"time": 51363, "pitch": 59, "duration": 239, "velocity": 100}, {"time": 51363, "pitch": 62, "duration": 239, "velocity": 110}, {"time": 51842, "pitch": 54, "duration": 209, "velocity": 100}, {"time": 51842, "pitch": 57, "duration": 199, "velocity": 100}, {"time": 51842, "pitch": 59, "duration": 189, "velocity": 100}, {"time": 51842, "pitch": 62, "duration": 199, "velocity": 110}, {"time": 52081, "pitch": 40, "duration": 528, "velocity": 90}, {"time": 52081, "pitch": 54, "duration": 259, "velocity": 100}, {"time": 52081, "pitch": 57, "duration": 269, "velocity": 100}, {"time": 52081, "pitch": 59, "duration": 259, "velocity": 100}, {"time": 52081, "pitch": 62, "duration": 249, "velocity": 110}, {"time": 52559, "pitch": 54, "duration": 289, "velocity": 100}, {"time": 52559, "pitch": 57, "duration": 309, "velocity": 100}, {"time": 52559, "pitch": 59, "duration": 299, "velocity": 100}, {"time": 52559, "pitch": 62, "duration": 299, "velocity": 110}, {"time": 52798, "pitch": 40, "duration": 170, "velocity": 90}, {"time": 53038, "pitch": 33, "duration": 748, "velocity": 90}, {"time": 53038, "pitch": 56, "duration": 289, "velocity": 100}, {"time": 53038, "pitch": 59, "duration": 289, "velocity": 100}, {"time": 53038, "pitch": 61, "duration": 289, "velocity": 100}, {"time": 53038, "pitch": 64, "duration": 269, "velocity": 110}, {"time": 53516, "pitch": 56, "duration": 40, "velocity": 100}, {"time": 53516, "pitch": 59, "duration": 40, "velocity": 100}, {"time": 53516, "pitch": 61, "duration": 50, "velocity": 100}, {"time": 53516, "pitch": 64, "duration": 30, "velocity": 110}, {"time": 53755, "pitch": 56, "duration": 306, "velocity": 100}, {"time": 53755, "pitch": 59, "duration": 296, "velocity": 100}, {"time": 53755, "pitch": 61, "duration": 306, "velocity": 100}, {"time": 53755, "pitch": 64, "duration": 286, "velocity": 110}, {"time": 54000, "pitch": 33, "duration": 82, "velocity": 90}, {"time": 54245, "pitch": 33, "duration": 488, "velocity": 90}, {"time": 54245, "pitch": 56, "duration": 199, "velocity": 100}, {"time": 54245, "pitch": 59, "duration": 189, "velocity": 100}, {"time": 54245, "pitch": 61, "duration": 199, "velocity": 100}, {"time": 54245, "pitch": 64, "duration": 199, "velocity": 110}, {"time": 54723, "pitch": 56, "duration": 229, "velocity": 100}, {"time": 54723, "pitch": 59, "duration": 229, "velocity": 100}, {"time": 54723, "pitch": 61, "duration": 229, "velocity": 100}, {"time": 54723, "pitch": 64, "duration": 219, "velocity": 110}, {"time": 54962, "pitch": 33, "duration": 110, "velocity": 90}, {"time": 55202, "pitch": 38, "duration": 428, "velocity": 90}, {"time": 55202, "pitch": 54, "duration": 269, "velocity": 100}, {"time": 55202, "pitch": 57, "duration": 279, "velocity": 100}, {"time": 55202, "pitch": 61, "duration": 279, "velocity": 100}, {"time": 55202, "pitch": 64, "duration": 249, "velocity": 110}, {"time": 55680, "pitch": 54, "duration": 528, "velocity": 100}, {"time": 55680, "pitch": 57, "duration": 528, "velocity": 100}, {"time": 55680, "pitch": 61, "duration": 528, "velocity": 100}, {"time": 55680, "pitch": 64, "duration": 508, "velocity": 110}, {"time": 55919, "pitch": 38, "duration": 90, "velocity": 90}, {"time": 56158, "pitch": 38, "duration": 250, "velocity": 90}, {"time": 56398, "pitch": 54, "duration": 328, "velocity": 100}, {"time": 56398, "pitch": 57, "duration": 338, "velocity": 100}, {"time": 56398, "pitch": 61, "duration": 358, "velocity": 100}, {"time": 56398, "pitch": 64, "duration": 338, "velocity": 110}, {"time": 56637, "pitch": 38, "duration": 159, "velocity": 90}, {"time": 56876, "pitch": 37, "duration": 729, "velocity": 90}, {"time": 56876, "pitch": 56, "duration": 310, "velocity": 100}, {"time": 56876, "pitch": 59, "duration": 290, "velocity": 100}, {"time": 56876, "pitch": 61, "duration": 300, "velocity": 100}, {"time": 56876, "pitch": 64, "duration": 290, "velocity": 110}, {"time": 57360, "pitch": 56, "duration": 61, "velocity": 100}, {"time": 57360, "pitch": 59, "duration": 71, "velocity": 100}, {"time": 57360, "pitch": 61, "duration": 41, "velocity": 100}, {"time": 57360, "pitch": 64, "duration": 51, "velocity": 110}, {"time": 57605, "pitch": 56, "duration": 309, "velocity": 100}, {"time": 57605, "pitch": 59, "duration": 309, "velocity": 100}, {"time": 57605, "pitch": 61, "duration": 309, "velocity": 100}, {"time": 57605, "pitch": 64, "duration": 289, "velocity": 110}, {"time": 57844, "pitch": 37, "duration": 90, "velocity": 90}, {"time": 58083, "pitch": 37, "duration": 479, "velocity": 90}, {"time": 58083, "pitch": 56, "duration": 229, "velocity": 100}, {"time": 58083, "pitch": 59, "duration": 239, "velocity": 100}, {"time": 58083, "pitch": 61, "duration": 219, "velocity": 100}, {"time": 58083, "pitch": 64, "duration": 229, "velocity": 110}, {"time": 58562, "pitch": 56, "duration": 269, "velocity": 100}, {"time": 58562, "pitch": 59, "duration": 269, "velocity": 100}, {"time": 58562, "pitch": 61, "duration": 249, "velocity": 100}, {"time": 58562, "pitch": 64, "duration": 249, "velocity": 110}, {"time": 58801, "pitch": 37, "duration": 159, "velocity": 90}, {"time": 59040, "pitch": 35, "duration": 438, "velocity": 90}, {"time": 59040, "pitch": 54, "duration": 239, "velocity": 100}, {"time": 59040, "pitch": 57, "duration": 249, "velocity": 100}, {"time": 59040, "pitch": 59, "duration": 239, "velocity": 100}, {"time": 59040, "pitch": 62, "duration": 239, "velocity": 110}, {"time": 59518, "pitch": 54, "duration": 210, "velocity": 100}, {"time": 59518, "pitch": 57, "duration": 200, "velocity": 100}, {"time": 59518, "pitch": 59, "duration": 190, "velocity": 100}, {"time": 59518, "pitch": 62, "duration": 200, "velocity": 110}, {"time": 59758, "pitch": 40, "duration": 528, "velocity": 90}, {"time": 59758, "pitch": 54, "duration": 259, "velocity": 100}, {"time": 59758, "pitch": 57, "duration": 269, "velocity": 100}, {"time": 59758, "pitch": 59, "duration": 259, "velocity": 100}, {"time": 59758, "pitch": 62, "duration": 249, "velocity": 110}, {"time": 60236, "pitch": 54, "duration": 290, "velocity": 100}, {"time": 60236, "pitch": 57, "duration": 310, "velocity": 100}, {"time": 60236, "pitch": 59, "duration": 300, "velocity": 100}, {"time": 60236, "pitch": 62, "duration": 300, "velocity": 110}, {"time": 60475, "pitch": 40, "duration": 174, "velocity": 90}, {"time": 60720, "pitch": 33, "duration": 753, "velocity": 90}, {"time": 60720, "pitch": 56, "duration": 295, "velocity": 100}, {"time": 60720, "pitch": 59, "duration": 295, "velocity": 100}, {"time": 60720, "pitch": 61, "duration": 295, "velocity": 100}, {"time": 60720, "pitch": 64, "duration": 275, "velocity": 110}, {"time": 61204, "pitch": 56, "duration": 40, "velocity": 100}, {"time": 61204, "pitch": 59, "duration": 40, "velocity": 100}, {"time": 61204, "pitch": 61, "duration": 50, "velocity": 100}, {"time": 61204, "pitch": 64, "duration": 30, "velocity": 110}, {"time": 61443, "pitch": 56, "duration": 299, "velocity": 100}, {"time": 61443, "pitch": 59, "duration": 289, "velocity": 100}, {"time": 61443, "pitch": 61, "duration": 299, "velocity": 100}, {"time": 61443, "pitch": 64, "duration": 279, "velocity": 110}, {"time": 61682, "pitch": 33, "duration": 80, "velocity": 80}, {"time": 61922, "pitch": 33, "duration": 488, "velocity": 90}, {"time": 61922, "pitch": 56, "duration": 199, "velocity": 100}, {"time": 61922, "pitch": 59, "duration": 189, "velocity": 100}, {"time": 61922, "pitch": 61, "duration": 199, "velocity": 100}, {"time": 61922, "pitch": 64, "duration": 199, "velocity": 110}, {"time": 62400, "pitch": 56, "duration": 229, "velocity": 100}, {"time": 62400, "pitch": 59, "duration": 229, "velocity": 100}, {"time": 62400, "pitch": 61, "duration": 229, "velocity": 100}, {"time": 62400, "pitch": 64, "duration": 219, "velocity": 110}, {"time": 62639, "pitch": 33, "duration": 110, "velocity": 90}, {"time": 62878, "pitch": 35, "duration": 489, "velocity": 90}, {"time": 62878, "pitch": 54, "duration": 319, "velocity": 100}, {"time": 62878, "pitch": 57, "duration": 319, "velocity": 100}, {"time": 62878, "pitch": 62, "duration": 309, "velocity": 110}, {"time": 63357, "pitch": 54, "duration": 652, "velocity": 100}, {"time": 63357, "pitch": 57, "duration": 652, "velocity": 100}, {"time": 63357, "pitch": 62, "duration": 621, "velocity": 110}, {"time": 63596, "pitch": 35, "duration": 120, "velocity": 90}, {"time": 63835, "pitch": 35, "duration": 357, "velocity": 90}, {"time": 64080, "pitch": 54, "duration": 414, "velocity": 100}, {"time": 64080, "pitch": 57, "duration": 424, "velocity": 100}, {"time": 64080, "pitch": 62, "duration": 414, "velocity": 110}, {"time": 64325, "pitch": 35, "duration": 129, "velocity": 90}, {"time": 64564, "pitch": 35, "duration": 757, "velocity": 90}, {"time": 64564, "pitch": 54, "duration": 339, "velocity": 100}, {"time": 64564, "pitch": 57, "duration": 359, "velocity": 100}, {"time": 64564, "pitch": 62, "duration": 329, "velocity": 110}, {"time": 65042, "pitch": 54, "duration": 110, "velocity": 100}, {"time": 65042, "pitch": 57, "duration": 110, "velocity": 100}, {"time": 65042, "pitch": 62, "duration": 90, "velocity": 110}, {"time": 65282, "pitch": 54, "duration": 338, "velocity": 100}, {"time": 65282, "pitch": 57, "duration": 358, "velocity": 100}, {"time": 65282, "pitch": 62, "duration": 328, "velocity": 110}, {"time": 65521, "pitch": 35, "duration": 129, "velocity": 90}, {"time": 65760, "pitch": 35, "duration": 558, "velocity": 90}, {"time": 65760, "pitch": 54, "duration": 339, "velocity": 100}, {"time": 65760, "pitch": 57, "duration": 359, "velocity": 100}, {"time": 65760, "pitch": 62, "duration": 339, "velocity": 110}, {"time": 66238, "pitch": 54, "duration": 349, "velocity": 100}, {"time": 66238, "pitch": 57, "duration": 389, "velocity": 100}, {"time": 66238, "pitch": 62, "duration": 399, "velocity": 110}, {"time": 66478, "pitch": 35, "duration": 219, "velocity": 90}, {"time": 66717, "pitch": 37, "duration": 549, "velocity": 90}, {"time": 66717, "pitch": 56, "duration": 369, "velocity": 100}, {"time": 66717, "pitch": 59, "duration": 388, "velocity": 100}, {"time": 66717, "pitch": 64, "duration": 388, "velocity": 110}, {"time": 67195, "pitch": 56, "duration": 669, "velocity": 100}, {"time": 67195, "pitch": 59, "duration": 679, "velocity": 100}, {"time": 67195, "pitch": 64, "duration": 649, "velocity": 110}, {"time": 67440, "pitch": 37, "duration": 143, "velocity": 90}, {"time": 67685, "pitch": 37, "duration": 378, "velocity": 90}, {"time": 67924, "pitch": 56, "duration": 419, "velocity": 100}, {"time": 67924, "pitch": 59, "duration": 419, "velocity": 100}, {"time": 67924, "pitch": 64, "duration": 369, "velocity": 110}, {"time": 68163, "pitch": 37, "duration": 209, "velocity": 90}, {"time": 68402, "pitch": 37, "duration": 728, "velocity": 90}, {"time": 68402, "pitch": 56, "duration": 339, "velocity": 100}, {"time": 68402, "pitch": 59, "duration": 369, "velocity": 100}, {"time": 68402, "pitch": 64, "duration": 339, "velocity": 110}, {"time": 68881, "pitch": 56, "duration": 89, "velocity": 100}, {"time": 68881, "pitch": 59, "duration": 99, "velocity": 100}, {"time": 68881, "pitch": 64, "duration": 50, "velocity": 110}, {"time": 69120, "pitch": 56, "duration": 389, "velocity": 100}, {"time": 69120, "pitch": 59, "duration": 389, "velocity": 100}, {"time": 69120, "pitch": 64, "duration": 379, "velocity": 110}, {"time": 69359, "pitch": 37, "duration": 140, "velocity": 90}, {"time": 69598, "pitch": 37, "duration": 608, "velocity": 90}, {"time": 69598, "pitch": 56, "duration": 379, "velocity": 100}, {"time": 69598, "pitch": 59, "duration": 389, "velocity": 100}, {"time": 69598, "pitch": 64, "duration": 359, "velocity": 110}, {"time": 70077, "pitch": 56, "duration": 398, "velocity": 100}, {"time": 70077, "pitch": 59, "duration": 398, "velocity": 100}, {"time": 70077, "pitch": 64, "duration": 319, "velocity": 110}, {"time": 70316, "pitch": 37, "duration": 179, "velocity": 90}, {"time": 70555, "pitch": 35, "duration": 540, "velocity": 90}, {"time": 70555, "pitch": 54, "duration": 316, "velocity": 100}, {"time": 70555, "pitch": 57, "duration": 347, "velocity": 100}, {"time": 70555, "pitch": 62, "duration": 316, "velocity": 110}, {"time": 71045, "pitch": 54, "duration": 697, "velocity": 100}, {"time": 71045, "pitch": 57, "duration": 707, "velocity": 100}, {"time": 71045, "pitch": 62, "duration": 697, "velocity": 110}, {"time": 71284, "pitch": 35, "duration": 139, "velocity": 90}, {"time": 71523, "pitch": 35, "duration": 359, "velocity": 90}, {"time": 71762, "pitch": 54, "duration": 419, "velocity": 100}, {"time": 71762, "pitch": 57, "duration": 429, "velocity": 100}, {"time": 71762, "pitch": 62, "duration": 389, "velocity": 110}, {"time": 72002, "pitch": 35, "duration": 199, "velocity": 90}, {"time": 72241, "pitch": 35, "duration": 777, "velocity": 90}, {"time": 72241, "pitch": 54, "duration": 359, "velocity": 100}, {"time": 72241, "pitch": 57, "duration": 388, "velocity": 100}, {"time": 72241, "pitch": 62, "duration": 378, "velocity": 110}, {"time": 72719, "pitch": 54, "duration": 60, "velocity": 100}, {"time": 72719, "pitch": 57, "duration": 90, "velocity": 100}, {"time": 72719, "pitch": 62, "duration": 90, "velocity": 110}, {"time": 72958, "pitch": 54, "duration": 359, "velocity": 100}, {"time": 72958, "pitch": 57, "duration": 379, "velocity": 100}, {"time": 72958, "pitch": 62, "duration": 359, "velocity": 110}, {"time": 73198, "pitch": 35, "duration": 89, "velocity": 90}, {"time": 73437, "pitch": 35, "duration": 509, "velocity": 90}, {"time": 73437, "pitch": 54, "duration": 309, "velocity": 100}, {"time": 73437, "pitch": 57, "duration": 339, "velocity": 100}, {"time": 73437, "pitch": 62, "duration": 299, "velocity": 110}, {"time": 73915, "pitch": 54, "duration": 286, "velocity": 100}, {"time": 73915, "pitch": 57, "duration": 296, "velocity": 100}, {"time": 73915, "pitch": 62, "duration": 235, "velocity": 110}, {"time": 74160, "pitch": 35, "duration": 204, "velocity": 90}, {"time": 74405, "pitch": 38, "duration": 518, "velocity": 90}, {"time": 74405, "pitch": 57, "duration": 319, "velocity": 100}, {"time": 74405, "pitch": 60, "duration": 289, "velocity": 100}, {"time": 74405, "pitch": 65, "duration": 329, "velocity": 110}, {"time": 74883, "pitch": 57, "duration": 618, "velocity": 100}, {"time": 74883, "pitch": 60, "duration": 618, "velocity": 100}, {"time": 74883, "pitch": 65, "duration": 648, "velocity": 110}, {"time": 75122, "pitch": 38, "duration": 110, "velocity": 90}, {"time": 75362, "pitch": 38, "duration": 259, "velocity": 90}, {"time": 75601, "pitch": 57, "duration": 349, "velocity": 100}, {"time": 75601, "pitch": 60, "duration": 309, "velocity": 100}, {"time": 75601, "pitch": 65, "duration": 339, "velocity": 110}, {"time": 75840, "pitch": 38, "duration": 120, "velocity": 90}, {"time": 76079, "pitch": 40, "duration": 778, "velocity": 90}, {"time": 76079, "pitch": 57, "duration": 389, "velocity": 100}, {"time": 76079, "pitch": 62, "duration": 379, "velocity": 100}, {"time": 76079, "pitch": 66, "duration": 359, "velocity": 110}, {"time": 76558, "pitch": 57, "duration": 89, "velocity": 100}, {"time": 76558, "pitch": 62, "duration": 89, "velocity": 100}, {"time": 76558, "pitch": 66, "duration": 59, "velocity": 110}, {"time": 76797, "pitch": 57, "duration": 378, "velocity": 100}, {"time": 76797, "pitch": 62, "duration": 359, "velocity": 100}, {"time": 76797, "pitch": 66, "duration": 359, "velocity": 110}, {"time": 77036, "pitch": 40, "duration": 110, "velocity": 90}, {"time": 77275, "pitch": 40, "duration": 550, "velocity": 90}, {"time": 77275, "pitch": 59, "duration": 347, "velocity": 100}, {"time": 77275, "pitch": 64, "duration": 306, "velocity": 100}, {"time": 77275, "pitch": 68, "duration": 316, "velocity": 110}, {"time": 77765, "pitch": 59, "duration": 289, "velocity": 100}, {"time": 77765, "pitch": 64, "duration": 229, "velocity": 100}, {"time": 77765, "pitch": 68, "duration": 279, "velocity": 110}, {"time": 78004, "pitch": 40, "duration": 139, "velocity": 90}, {"time": 78243, "pitch": 45, "duration": 518, "velocity": 90}, {"time": 78243, "pitch": 57, "duration": 329, "velocity": 100}, {"time": 78243, "pitch": 61, "duration": 289, "velocity": 100}, {"time": 78243, "pitch": 64, "duration": 309, "velocity": 110}, {"time": 78722, "pitch": 57, "duration": 627, "velocity": 100}, {"time": 78722, "pitch": 61, "duration": 588, "velocity": 100}, {"time": 78722, "pitch": 64, "duration": 617, "velocity": 110}, {"time": 78961, "pitch": 45, "duration": 89, "velocity": 90}, {"time": 79200, "pitch": 45, "duration": 239, "velocity": 90}, {"time": 79439, "pitch": 57, "duration": 329, "velocity": 100}, {"time": 79439, "pitch": 61, "duration": 319, "velocity": 100}, {"time": 79439, "pitch": 64, "duration": 329, "velocity": 110}, {"time": 79678, "pitch": 45, "duration": 120, "velocity": 90}, {"time": 79918, "pitch": 46, "duration": 717, "velocity": 90}, {"time": 79918, "pitch": 58, "duration": 289, "velocity": 100}, {"time": 79918, "pitch": 61, "duration": 299, "velocity": 100}, {"time": 79918, "pitch": 64, "duration": 299, "velocity": 110}, {"time": 80396, "pitch": 58, "duration": 70, "velocity": 100}, {"time": 80396, "pitch": 61, "duration": 70, "velocity": 100}, {"time": 80396, "pitch": 64, "duration": 60, "velocity": 110}, {"time": 80635, "pitch": 58, "duration": 347, "velocity": 100}, {"time": 80635, "pitch": 61, "duration": 337, "velocity": 100}, {"time": 80635, "pitch": 64, "duration": 347, "velocity": 110}, {"time": 80880, "pitch": 46, "duration": 92, "velocity": 90}, {"time": 81125, "pitch": 46, "duration": 508, "velocity": 90}, {"time": 81125, "pitch": 58, "duration": 249, "velocity": 100}, {"time": 81125, "pitch": 61, "duration": 249, "velocity": 100}, {"time": 81125, "pitch": 64, "duration": 239, "velocity": 110}, {"time": 81603, "pitch": 58, "duration": 299, "velocity": 100}, {"time": 81603, "pitch": 61, "duration": 279, "velocity": 100}, {"time": 81603, "pitch": 64, "duration": 239, "velocity": 110}, {"time": 81842, "pitch": 46, "duration": 150, "velocity": 90}, {"time": 82082, "pitch": 47, "duration": 488, "velocity": 90}, {"time": 82082, "pitch": 57, "duration": 289, "velocity": 100}, {"time": 82082, "pitch": 62, "duration": 279, "velocity": 100}, {"time": 82082, "pitch": 66, "duration": 279, "velocity": 110}, {"time": 82560, "pitch": 57, "duration": 618, "velocity": 100}, {"time": 82560, "pitch": 62, "duration": 618, "velocity": 100}, {"time": 82560, "pitch": 66, "duration": 638, "velocity": 110}, {"time": 82799, "pitch": 47, "duration": 80, "velocity": 90}, {"time": 83038, "pitch": 47, "duration": 279, "velocity": 90}, {"time": 83278, "pitch": 57, "duration": 279, "velocity": 100}, {"time": 83278, "pitch": 62, "duration": 289, "velocity": 100}, {"time": 83278, "pitch": 66, "duration": 259, "velocity": 110}, {"time": 83517, "pitch": 47, "duration": 229, "velocity": 90}, {"time": 83756, "pitch": 38, "duration": 779, "velocity": 90}, {"time": 83756, "pitch": 57, "duration": 331, "velocity": 100}, {"time": 83756, "pitch": 60, "duration": 310, "velocity": 100}, {"time": 83756, "pitch": 65, "duration": 300, "velocity": 110}, {"time": 84240, "pitch": 57, "duration": 71, "velocity": 100}, {"time": 84240, "pitch": 60, "duration": 41, "velocity": 100}, {"time": 84240, "pitch": 65, "duration": 61, "velocity": 110}, {"time": 84485, "pitch": 57, "duration": 319, "velocity": 100}, {"time": 84485, "pitch": 60, "duration": 309, "velocity": 100}, {"time": 84485, "pitch": 65, "duration": 319, "velocity": 110}, {"time": 84724, "pitch": 38, "duration": 80, "velocity": 90}, {"time": 84963, "pitch": 38, "duration": 508, "velocity": 90}, {"time": 84963, "pitch": 57, "duration": 269, "velocity": 100}, {"time": 84963, "pitch": 60, "duration": 269, "velocity": 100}, {"time": 84963, "pitch": 65, "duration": 269, "velocity": 110}, {"time": 85442, "pitch": 57, "duration": 269, "velocity": 100}, {"time": 85442, "pitch": 60, "duration": 289, "velocity": 100}, {"time": 85442, "pitch": 65, "duration": 249, "velocity": 110}, {"time": 85681, "pitch": 38, "duration": 179, "velocity": 90}, {"time": 85920, "pitch": 37, "duration": 458, "velocity": 90}, {"time": 85920, "pitch": 56, "duration": 239, "velocity": 100}, {"time": 85920, "pitch": 59, "duration": 259, "velocity": 100}, {"time": 85920, "pitch": 64, "duration": 249, "velocity": 110}, {"time": 86398, "pitch": 56, "duration": 299, "velocity": 100}, {"time": 86398, "pitch": 59, "duration": 309, "velocity": 100}, {"time": 86398, "pitch": 64, "duration": 299, "velocity": 110}, {"time": 86638, "pitch": 37, "duration": 99, "velocity": 90}, {"time": 86877, "pitch": 37, "duration": 229, "velocity": 90}, {"time": 86877, "pitch": 56, "duration": 570, "velocity": 100}, {"time": 86877, "pitch": 59, "duration": 560, "velocity": 100}, {"time": 86877, "pitch": 64, "duration": 580, "velocity": 110}, {"time": 87116, "pitch": 40, "duration": 229, "velocity": 90}, {"time": 87355, "pitch": 41, "duration": 235, "velocity": 90}, {"time": 87600, "pitch": 42, "duration": 703, "velocity": 90}, {"time": 87600, "pitch": 58, "duration": 285, "velocity": 100}, {"time": 87600, "pitch": 61, "duration": 285, "velocity": 100}, {"time": 87600, "pitch": 64, "duration": 285, "velocity": 110}, {"time": 88084, "pitch": 58, "duration": 60, "velocity": 100}, {"time": 88084, "pitch": 61, "duration": 60, "velocity": 100}, {"time": 88084, "pitch": 64, "duration": 50, "velocity": 110}, {"time": 88323, "pitch": 58, "duration": 329, "velocity": 100}, {"time": 88323, "pitch": 61, "duration": 309, "velocity": 100}, {"time": 88323, "pitch": 64, "duration": 309, "velocity": 110}, {"time": 88562, "pitch": 42, "duration": 80, "velocity": 90}, {"time": 88802, "pitch": 42, "duration": 538, "velocity": 90}, {"time": 88802, "pitch": 58, "duration": 259, "velocity": 100}, {"time": 88802, "pitch": 61, "duration": 249, "velocity": 100}, {"time": 88802, "pitch": 64, "duration": 259, "velocity": 110}, {"time": 89280, "pitch": 58, "duration": 309, "velocity": 100}, {"time": 89280, "pitch": 61, "duration": 309, "velocity": 100}, {"time": 89280, "pitch": 64, "duration": 299, "velocity": 110}, {"time": 89519, "pitch": 42, "duration": 249, "velocity": 90}, {"time": 89758, "pitch": 35, "duration": 479, "velocity": 90}, {"time": 89758, "pitch": 57, "duration": 269, "velocity": 100}, {"time": 89758, "pitch": 62, "duration": 269, "velocity": 100}, {"time": 89758, "pitch": 66, "duration": 269, "velocity": 110}, {"time": 90237, "pitch": 57, "duration": 600, "velocity": 100}, {"time": 90237, "pitch": 62, "duration": 600, "velocity": 100}, {"time": 90237, "pitch": 66, "duration": 600, "velocity": 110}, {"time": 90476, "pitch": 35, "duration": 80, "velocity": 90}, {"time": 90715, "pitch": 35, "duration": 255, "velocity": 90}, {"time": 90960, "pitch": 57, "duration": 304, "velocity": 100}, {"time": 90960, "pitch": 62, "duration": 314, "velocity": 100}, {"time": 90960, "pitch": 66, "duration": 304, "velocity": 110}, {"time": 91205, "pitch": 35, "duration": 119, "velocity": 90}, {"time": 91444, "pitch": 40, "duration": 767, "velocity": 90}, {"time": 91444, "pitch": 57, "duration": 299, "velocity": 100}, {"time": 91444, "pitch": 62, "duration": 299, "velocity": 100}, {"time": 91444, "pitch": 66, "duration": 289, "velocity": 110}, {"time": 91922, "pitch": 57, "duration": 50, "velocity": 100}, {"time": 91922, "pitch": 62, "duration": 60, "velocity": 100}, {"time": 91922, "pitch": 66, "duration": 60, "velocity": 110}, {"time": 92162, "pitch": 57, "duration": 318, "velocity": 100}, {"time": 92162, "pitch": 62, "duration": 338, "velocity": 100}, {"time": 92162, "pitch": 66, "duration": 338, "velocity": 110}, {"time": 92401, "pitch": 40, "duration": 60, "velocity": 90}, {"time": 92640, "pitch": 40, "duration": 668, "velocity": 90}, {"time": 92640, "pitch": 57, "duration": 209, "velocity": 100}, {"time": 92640, "pitch": 62, "duration": 229, "velocity": 100}, {"time": 92640, "pitch": 66, "duration": 229, "velocity": 110}, {"time": 93118, "pitch": 57, "duration": 200, "velocity": 100}, {"time": 93118, "pitch": 62, "duration": 220, "velocity": 100}, {"time": 93118, "pitch": 66, "duration": 220, "velocity": 110}, {"time": 93597, "pitch": 45, "duration": 438, "velocity": 98}, {"time": 93597, "pitch": 52, "duration": 239, "velocity": 95}, {"time": 93597, "pitch": 57, "duration": 269, "velocity": 95}, {"time": 93597, "pitch": 61, "duration": 249, "velocity": 98}, {"time": 94075, "pitch": 52, "duration": 490, "velocity": 98}, {"time": 94075, "pitch": 57, "duration": 500, "velocity": 100}, {"time": 94075, "pitch": 61, "duration": 490, "velocity": 102}, {"time": 94320, "pitch": 45, "duration": 82, "velocity": 87}, {"time": 94565, "pitch": 45, "duration": 209, "velocity": 102}, {"time": 94804, "pitch": 52, "duration": 289, "velocity": 98}, {"time": 94804, "pitch": 57, "duration": 339, "velocity": 98}, {"time": 94804, "pitch": 61, "duration": 329, "velocity": 102}, {"time": 95043, "pitch": 45, "duration": 110, "velocity": 89}, {"time": 95282, "pitch": 40, "duration": 748, "velocity": 102}, {"time": 95282, "pitch": 54, "duration": 299, "velocity": 102}, {"time": 95282, "pitch": 57, "duration": 289, "velocity": 105}, {"time": 95282, "pitch": 62, "duration": 289, "velocity": 102}, {"time": 95761, "pitch": 54, "duration": 79, "velocity": 85}, {"time": 95761, "pitch": 57, "duration": 69, "velocity": 91}, {"time": 95761, "pitch": 62, "duration": 89, "velocity": 87}, {"time": 96000, "pitch": 54, "duration": 309, "velocity": 102}, {"time": 96000, "pitch": 57, "duration": 299, "velocity": 102}, {"time": 96000, "pitch": 62, "duration": 289, "velocity": 102}, {"time": 96239, "pitch": 40, "duration": 90, "velocity": 91}, {"time": 96478, "pitch": 40, "duration": 419, "velocity": 102}, {"time": 96478, "pitch": 54, "duration": 200, "velocity": 105}, {"time": 96478, "pitch": 57, "duration": 200, "velocity": 107}, {"time": 96478, "pitch": 62, "duration": 190, "velocity": 102}, {"time": 96957, "pitch": 54, "duration": 299, "velocity": 100}, {"time": 96957, "pitch": 57, "duration": 309, "velocity": 102}, {"time": 96957, "pitch": 62, "duration": 289, "velocity": 95}, {"time": 97196, "pitch": 40, "duration": 159, "velocity": 105}, {"time": 97435, "pitch": 45, "duration": 459, "velocity": 102}, {"time": 97435, "pitch": 52, "duration": 235, "velocity": 105}, {"time": 97435, "pitch": 57, "duration": 265, "velocity": 95}, {"time": 97435, "pitch": 61, "duration": 265, "velocity": 98}, {"time": 97925, "pitch": 52, "duration": 518, "velocity": 105}, {"time": 97925, "pitch": 57, "duration": 538, "velocity": 100}, {"time": 97925, "pitch": 61, "duration": 518, "velocity": 102}, {"time": 98164, "pitch": 45, "duration": 90, "velocity": 95}, {"time": 98403, "pitch": 45, "duration": 229, "velocity": 105}, {"time": 98642, "pitch": 52, "duration": 349, "velocity": 98}, {"time": 98642, "pitch": 57, "duration": 369, "velocity": 100}, {"time": 98642, "pitch": 61, "duration": 339, "velocity": 100}, {"time": 98881, "pitch": 45, "duration": 130, "velocity": 102}, {"time": 99121, "pitch": 40, "duration": 149, "velocity": 113}, {"time": 99121, "pitch": 50, "duration": 129, "velocity": 116}, {"time": 99121, "pitch": 56, "duration": 129, "velocity": 113}, {"time": 99121, "pitch": 61, "duration": 139, "velocity": 110}, {"time": 99838, "pitch": 40, "duration": 1396, "velocity": 127}, {"time": 99838, "pitch": 50, "duration": 1386, "velocity": 127}, {"time": 99838, "pitch": 56, "duration": 1386, "velocity": 122}, {"time": 99838, "pitch": 61, "duration": 1406, "velocity": 119}, {"time": 101285, "pitch": 38, "duration": 428, "velocity": 90}, {"time": 101285, "pitch": 54, "duration": 269, "velocity": 100}, {"time": 101285, "pitch": 57, "duration": 279, "velocity": 100}, {"time": 101285, "pitch": 61, "duration": 279, "velocity": 100}, {"time": 101285, "pitch": 64, "duration": 249, "velocity": 110}, {"time": 101763, "pitch": 54, "duration": 528, "velocity": 100}, {"time": 101763, "pitch": 57, "duration": 528, "velocity": 100}, {"time": 101763, "pitch": 61, "duration": 528, "velocity": 100}, {"time": 101763, "pitch": 64, "duration": 508, "velocity": 110}, {"time": 102002, "pitch": 38, "duration": 90, "velocity": 90}, {"time": 102241, "pitch": 38, "duration": 250, "velocity": 90}, {"time": 102481, "pitch": 54, "duration": 329, "velocity": 100}, {"time": 102481, "pitch": 57, "duration": 339, "velocity": 100}, {"time": 102481, "pitch": 61, "duration": 358, "velocity": 100}, {"time": 102481, "pitch": 64, "duration": 339, "velocity": 110}, {"time": 102720, "pitch": 38, "duration": 159, "velocity": 90}, {"time": 102959, "pitch": 37, "duration": 718, "velocity": 90}, {"time": 102959, "pitch": 56, "duration": 309, "velocity": 100}, {"time": 102959, "pitch": 59, "duration": 289, "velocity": 100}, {"time": 102959, "pitch": 61, "duration": 299, "velocity": 100}, {"time": 102959, "pitch": 64, "duration": 289, "velocity": 110}, {"time": 103438, "pitch": 56, "duration": 59, "velocity": 100}, {"time": 103438, "pitch": 59, "duration": 69, "velocity": 100}, {"time": 103438, "pitch": 61, "duration": 39, "velocity": 100}, {"time": 103438, "pitch": 64, "duration": 49, "velocity": 110}, {"time": 103677, "pitch": 56, "duration": 309, "velocity": 100}, {"time": 103677, "pitch": 59, "duration": 309, "velocity": 100}, {"time": 103677, "pitch": 61, "duration": 309, "velocity": 100}, {"time": 103677, "pitch": 64, "duration": 289, "velocity": 110}, {"time": 103916, "pitch": 37, "duration": 90, "velocity": 90}, {"time": 104155, "pitch": 37, "duration": 490, "velocity": 90}, {"time": 104155, "pitch": 56, "duration": 235, "velocity": 100}, {"time": 104155, "pitch": 59, "duration": 245, "velocity": 100}, {"time": 104155, "pitch": 61, "duration": 224, "velocity": 100}, {"time": 104155, "pitch": 64, "duration": 235, "velocity": 110}, {"time": 104645, "pitch": 56, "duration": 269, "velocity": 100}, {"time": 104645, "pitch": 59, "duration": 269, "velocity": 100}, {"time": 104645, "pitch": 61, "duration": 249, "velocity": 100}, {"time": 104645, "pitch": 64, "duration": 249, "velocity": 110}, {"time": 104884, "pitch": 37, "duration": 159, "velocity": 90}, {"time": 105123, "pitch": 35, "duration": 439, "velocity": 90}, {"time": 105123, "pitch": 54, "duration": 239, "velocity": 100}, {"time": 105123, "pitch": 57, "duration": 249, "velocity": 100}, {"time": 105123, "pitch": 59, "duration": 239, "velocity": 100}, {"time": 105123, "pitch": 62, "duration": 239, "velocity": 110}, {"time": 105601, "pitch": 54, "duration": 210, "velocity": 100}, {"time": 105601, "pitch": 57, "duration": 200, "velocity": 100}, {"time": 105601, "pitch": 59, "duration": 190, "velocity": 100}, {"time": 105601, "pitch": 62, "duration": 200, "velocity": 110}, {"time": 105841, "pitch": 40, "duration": 528, "velocity": 90}, {"time": 105841, "pitch": 54, "duration": 259, "velocity": 100}, {"time": 105841, "pitch": 57, "duration": 269, "velocity": 100}, {"time": 105841, "pitch": 59, "duration": 259, "velocity": 100}, {"time": 105841, "pitch": 62, "duration": 249, "velocity": 110}, {"time": 106319, "pitch": 54, "duration": 289, "velocity": 100}, {"time": 106319, "pitch": 57, "duration": 309, "velocity": 100}, {"time": 106319, "pitch": 59, "duration": 299, "velocity": 100}, {"time": 106319, "pitch": 62, "duration": 299, "velocity": 110}, {"time": 106558, "pitch": 40, "duration": 170, "velocity": 90}, {"time": 106798, "pitch": 33, "duration": 748, "velocity": 90}, {"time": 106798, "pitch": 56, "duration": 289, "velocity": 100}, {"time": 106798, "pitch": 59, "duration": 289, "velocity": 100}, {"time": 106798, "pitch": 61, "duration": 289, "velocity": 100}, {"time": 106798, "pitch": 64, "duration": 269, "velocity": 110}, {"time": 107276, "pitch": 56, "duration": 40, "velocity": 100}, {"time": 107276, "pitch": 59, "duration": 40, "velocity": 100}, {"time": 107276, "pitch": 61, "duration": 50, "velocity": 100}, {"time": 107276, "pitch": 64, "duration": 30, "velocity": 110}, {"time": 107515, "pitch": 56, "duration": 306, "velocity": 100}, {"time": 107515, "pitch": 59, "duration": 296, "velocity": 100}, {"time": 107515, "pitch": 61, "duration": 306, "velocity": 100}, {"time": 107515, "pitch": 64, "duration": 286, "velocity": 110}, {"time": 107760, "pitch": 33, "duration": 82, "velocity": 90}, {"time": 108005, "pitch": 33, "duration": 488, "velocity": 90}, {"time": 108005, "pitch": 56, "duration": 199, "velocity": 100}, {"time": 108005, "pitch": 59, "duration": 189, "velocity": 100}, {"time": 108005, "pitch": 61, "duration": 199, "velocity": 100}, {"time": 108005, "pitch": 64, "duration": 199, "velocity": 110}, {"time": 108483, "pitch": 56, "duration": 229, "velocity": 100}, {"time": 108483, "pitch": 59, "duration": 229, "velocity": 100}, {"time": 108483, "pitch": 61, "duration": 229, "velocity": 100}, {"time": 108483, "pitch": 64, "duration": 219, "velocity": 110}, {"time": 108722, "pitch": 33, "duration": 110, "velocity": 90}, {"time": 108961, "pitch": 38, "duration": 429, "velocity": 90}, {"time": 108961, "pitch": 54, "duration": 270, "velocity": 100}, {"time": 108961, "pitch": 57, "duration": 280, "velocity": 100}, {"time": 108961, "pitch": 61, "duration": 280, "velocity": 100}, {"time": 108961, "pitch": 64, "duration": 250, "velocity": 110}, {"time": 109440, "pitch": 54, "duration": 528, "velocity": 100}, {"time": 109440, "pitch": 57, "duration": 528, "velocity": 100}, {"time": 109440, "pitch": 61, "duration": 528, "velocity": 100}, {"time": 109440, "pitch": 64, "duration": 508, "velocity": 110}, {"time": 109679, "pitch": 38, "duration": 90, "velocity": 90}, {"time": 109918, "pitch": 38, "duration": 249, "velocity": 90}, {"time": 110157, "pitch": 54, "duration": 329, "velocity": 100}, {"time": 110157, "pitch": 57, "duration": 339, "velocity": 100}, {"time": 110157, "pitch": 61, "duration": 359, "velocity": 100}, {"time": 110157, "pitch": 64, "duration": 339, "velocity": 110}, {"time": 110397, "pitch": 38, "duration": 159, "velocity": 90}, {"time": 110636, "pitch": 37, "duration": 729, "velocity": 90}, {"time": 110636, "pitch": 56, "duration": 310, "velocity": 100}, {"time": 110636, "pitch": 59, "duration": 290, "velocity": 100}, {"time": 110636, "pitch": 61, "duration": 300, "velocity": 100}, {"time": 110636, "pitch": 64, "duration": 290, "velocity": 110}, {"time": 111120, "pitch": 56, "duration": 61, "velocity": 100}, {"time": 111120, "pitch": 59, "duration": 71, "velocity": 100}, {"time": 111120, "pitch": 61, "duration": 41, "velocity": 100}, {"time": 111120, "pitch": 64, "duration": 51, "velocity": 110}, {"time": 111365, "pitch": 56, "duration": 309, "velocity": 100}, {"time": 111365, "pitch": 59, "duration": 309, "velocity": 100}, {"time": 111365, "pitch": 61, "duration": 309, "velocity": 100}, {"time": 111365, "pitch": 64, "duration": 289, "velocity": 110}, {"time": 111604, "pitch": 37, "duration": 90, "velocity": 90}, {"time": 111843, "pitch": 37, "duration": 478, "velocity": 90}, {"time": 111843, "pitch": 56, "duration": 229, "velocity": 100}, {"time": 111843, "pitch": 59, "duration": 239, "velocity": 100}, {"time": 111843, "pitch": 61, "duration": 219, "velocity": 100}, {"time": 111843, "pitch": 64, "duration": 229, "velocity": 110}, {"time": 112321, "pitch": 56, "duration": 270, "velocity": 100}, {"time": 112321, "pitch": 59, "duration": 270, "velocity": 100}, {"time": 112321, "pitch": 61, "duration": 250, "velocity": 100}, {"time": 112321, "pitch": 64, "duration": 250, "velocity": 110}, {"time": 112561, "pitch": 37, "duration": 159, "velocity": 90}, {"time": 112800, "pitch": 35, "duration": 438, "velocity": 90}, {"time": 112800, "pitch": 54, "duration": 239, "velocity": 100}, {"time": 112800, "pitch": 57, "duration": 249, "velocity": 100}, {"time": 112800, "pitch": 59, "duration": 239, "velocity": 100}, {"time": 112800, "pitch": 62, "duration": 239, "velocity": 110}, {"time": 113278, "pitch": 54, "duration": 210, "velocity": 100}, {"time": 113278, "pitch": 57, "duration": 200, "velocity": 100}, {"time": 113278, "pitch": 59, "duration": 190, "velocity": 100}, {"time": 113278, "pitch": 62, "duration": 200, "velocity": 110}, {"time": 113517, "pitch": 40, "duration": 529, "velocity": 90}, {"time": 113517, "pitch": 54, "duration": 260, "velocity": 100}, {"time": 113517, "pitch": 57, "duration": 270, "velocity": 100}, {"time": 113517, "pitch": 59, "duration": 260, "velocity": 100}, {"time": 113517, "pitch": 62, "duration": 250, "velocity": 110}, {"time": 113996, "pitch": 54, "duration": 290, "velocity": 100}, {"time": 113996, "pitch": 57, "duration": 310, "velocity": 100}, {"time": 113996, "pitch": 59, "duration": 300, "velocity": 100}, {"time": 113996, "pitch": 62, "duration": 300, "velocity": 110}, {"time": 114235, "pitch": 40, "duration": 173, "velocity": 90}, {"time": 114480, "pitch": 33, "duration": 753, "velocity": 90}, {"time": 114480, "pitch": 56, "duration": 295, "velocity": 100}, {"time": 114480, "pitch": 59, "duration": 295, "velocity": 100}, {"time": 114480, "pitch": 61, "duration": 295, "velocity": 100}, {"time": 114480, "pitch": 64, "duration": 275, "velocity": 110}, {"time": 114964, "pitch": 56, "duration": 40, "velocity": 100}, {"time": 114964, "pitch": 59, "duration": 40, "velocity": 100}, {"time": 114964, "pitch": 61, "duration": 50, "velocity": 100}, {"time": 114964, "pitch": 64, "duration": 30, "velocity": 110}, {"time": 115203, "pitch": 56, "duration": 299, "velocity": 100}, {"time": 115203, "pitch": 59, "duration": 289, "velocity": 100}, {"time": 115203, "pitch": 61, "duration": 299, "velocity": 100}, {"time": 115203, "pitch": 64, "duration": 279, "velocity": 110}, {"time": 115442, "pitch": 33, "duration": 80, "velocity": 80}, {"time": 115681, "pitch": 33, "duration": 489, "velocity": 90}, {"time": 115681, "pitch": 56, "duration": 200, "velocity": 100}, {"time": 115681, "pitch": 59, "duration": 190, "velocity": 100}, {"time": 115681, "pitch": 61, "duration": 200, "velocity": 100}, {"time": 115681, "pitch": 64, "duration": 200, "velocity": 110}, {"time": 116160, "pitch": 56, "duration": 229, "velocity": 100}, {"time": 116160, "pitch": 59, "duration": 229, "velocity": 100}, {"time": 116160, "pitch": 61, "duration": 229, "velocity": 100}, {"time": 116160, "pitch": 64, "duration": 219, "velocity": 110}, {"time": 116399, "pitch": 33, "duration": 110, "velocity": 90}, {"time": 116638, "pitch": 35, "duration": 489, "velocity": 90}, {"time": 116638, "pitch": 54, "duration": 319, "velocity": 100}, {"time": 116638, "pitch": 57, "duration": 319, "velocity": 100}, {"time": 116638, "pitch": 62, "duration": 309, "velocity": 110}, {"time": 117117, "pitch": 54, "duration": 651, "velocity": 100}, {"time": 117117, "pitch": 57, "duration": 651, "velocity": 100}, {"time": 117117, "pitch": 62, "duration": 621, "velocity": 110}, {"time": 117356, "pitch": 35, "duration": 119, "velocity": 90}, {"time": 117595, "pitch": 35, "duration": 357, "velocity": 90}, {"time": 117840, "pitch": 54, "duration": 414, "velocity": 100}, {"time": 117840, "pitch": 57, "duration": 424, "velocity": 100}, {"time": 117840, "pitch": 62, "duration": 414, "velocity": 110}, {"time": 118085, "pitch": 35, "duration": 129, "velocity": 90}, {"time": 118324, "pitch": 35, "duration": 757, "velocity": 90}, {"time": 118324, "pitch": 54, "duration": 339, "velocity": 100}, {"time": 118324, "pitch": 57, "duration": 359, "velocity": 100}, {"time": 118324, "pitch": 62, "duration": 329, "velocity": 110}, {"time": 118802, "pitch": 54, "duration": 110, "velocity": 100}, {"time": 118802, "pitch": 57, "duration": 110, "velocity": 100}, {"time": 118802, "pitch": 62, "duration": 90, "velocity": 110}, {"time": 119041, "pitch": 54, "duration": 339, "velocity": 100}, {"time": 119041, "pitch": 57, "duration": 359, "velocity": 100}, {"time": 119041, "pitch": 62, "duration": 329, "velocity": 110}, {"time": 119281, "pitch": 35, "duration": 129, "velocity": 90}, {"time": 119520, "pitch": 35, "duration": 558, "velocity": 90}, {"time": 119520, "pitch": 54, "duration": 339, "velocity": 100}, {"time": 119520, "pitch": 57, "duration": 359, "velocity": 100}, {"time": 119520, "pitch": 62, "duration": 339, "velocity": 110}, {"time": 119998, "pitch": 54, "duration": 349, "velocity": 100}, {"time": 119998, "pitch": 57, "duration": 389, "velocity": 100}, {"time": 119998, "pitch": 62, "duration": 399, "velocity": 110}, {"time": 120237, "pitch": 35, "duration": 220, "velocity": 90}, {"time": 120477, "pitch": 37, "duration": 549, "velocity": 90}, {"time": 120477, "pitch": 56, "duration": 368, "velocity": 100}, {"time": 120477, "pitch": 59, "duration": 388, "velocity": 100}, {"time": 120477, "pitch": 64, "duration": 388, "velocity": 110}, {"time": 120955, "pitch": 56, "duration": 669, "velocity": 100}, {"time": 120955, "pitch": 59, "duration": 679, "velocity": 100}, {"time": 120955, "pitch": 64, "duration": 649, "velocity": 110}, {"time": 121200, "pitch": 37, "duration": 143, "velocity": 90}, {"time": 121445, "pitch": 37, "duration": 378, "velocity": 90}, {"time": 121684, "pitch": 56, "duration": 418, "velocity": 100}, {"time": 121684, "pitch": 59, "duration": 418, "velocity": 100}, {"time": 121684, "pitch": 64, "duration": 369, "velocity": 110}, {"time": 121923, "pitch": 37, "duration": 209, "velocity": 90}, {"time": 122162, "pitch": 37, "duration": 728, "velocity": 90}, {"time": 122162, "pitch": 56, "duration": 339, "velocity": 100}, {"time": 122162, "pitch": 59, "duration": 369, "velocity": 100}, {"time": 122162, "pitch": 64, "duration": 339, "velocity": 110}, {"time": 122641, "pitch": 56, "duration": 89, "velocity": 100}, {"time": 122641, "pitch": 59, "duration": 99, "velocity": 100}, {"time": 122641, "pitch": 64, "duration": 50, "velocity": 110}, {"time": 122880, "pitch": 56, "duration": 389, "velocity": 100}, {"time": 122880, "pitch": 59, "duration": 389, "velocity": 100}, {"time": 122880, "pitch": 64, "duration": 379, "velocity": 110}, {"time": 123119, "pitch": 37, "duration": 140, "velocity": 90}, {"time": 123358, "pitch": 37, "duration": 608, "velocity": 90}, {"time": 123358, "pitch": 56, "duration": 379, "velocity": 100}, {"time": 123358, "pitch": 59, "duration": 389, "velocity": 100}, {"time": 123358, "pitch": 64, "duration": 359, "velocity": 110}, {"time": 123837, "pitch": 56, "duration": 398, "velocity": 100}, {"time": 123837, "pitch": 59, "duration": 398, "velocity": 100}, {"time": 123837, "pitch": 64, "duration": 319, "velocity": 110}, {"time": 124076, "pitch": 37, "duration": 179, "velocity": 90}, {"time": 124315, "pitch": 35, "duration": 539, "velocity": 90}, {"time": 124315, "pitch": 54, "duration": 316, "velocity": 100}, {"time": 124315, "pitch": 57, "duration": 347, "velocity": 100}, {"time": 124315, "pitch": 62, "duration": 316, "velocity": 110}, {"time": 124805, "pitch": 54, "duration": 697, "velocity": 100}, {"time": 124805, "pitch": 57, "duration": 707, "velocity": 100}, {"time": 124805, "pitch": 62, "duration": 697, "velocity": 110}, {"time": 125044, "pitch": 35, "duration": 139, "velocity": 90}, {"time": 125283, "pitch": 35, "duration": 359, "velocity": 90}, {"time": 125522, "pitch": 54, "duration": 419, "velocity": 100}, {"time": 125522, "pitch": 57, "duration": 429, "velocity": 100}, {"time": 125522, "pitch": 62, "duration": 389, "velocity": 110}, {"time": 125761, "pitch": 35, "duration": 200, "velocity": 90}, {"time": 126001, "pitch": 35, "duration": 777, "velocity": 90}, {"time": 126001, "pitch": 54, "duration": 358, "velocity": 100}, {"time": 126001, "pitch": 57, "duration": 388, "velocity": 100}, {"time": 126001, "pitch": 62, "duration": 378, "velocity": 110}, {"time": 126479, "pitch": 54, "duration": 60, "velocity": 100}, {"time": 126479, "pitch": 57, "duration": 90, "velocity": 100}, {"time": 126479, "pitch": 62, "duration": 90, "velocity": 110}, {"time": 126718, "pitch": 54, "duration": 359, "velocity": 100}, {"time": 126718, "pitch": 57, "duration": 379, "velocity": 100}, {"time": 126718, "pitch": 62, "duration": 359, "velocity": 110}, {"time": 126957, "pitch": 35, "duration": 90, "velocity": 90}, {"time": 127197, "pitch": 35, "duration": 509, "velocity": 90}, {"time": 127197, "pitch": 54, "duration": 309, "velocity": 100}, {"time": 127197, "pitch": 57, "duration": 339, "velocity": 100}, {"time": 127197, "pitch": 62, "duration": 299, "velocity": 110}, {"time": 127675, "pitch": 54, "duration": 286, "velocity": 80}, {"time": 127675, "pitch": 57, "duration": 296, "velocity": 100}, {"time": 127675, "pitch": 62, "duration": 235, "velocity": 110}, {"time": 127920, "pitch": 35, "duration": 204, "velocity": 90}, {"time": 128165, "pitch": 38, "duration": 518, "velocity": 90}, {"time": 128165, "pitch": 53, "duration": 329, "velocity": 100}, {"time": 128165, "pitch": 57, "duration": 319, "velocity": 110}, {"time": 128165, "pitch": 60, "duration": 289, "velocity": 100}, {"time": 128643, "pitch": 53, "duration": 648, "velocity": 100}, {"time": 128643, "pitch": 57, "duration": 618, "velocity": 110}, {"time": 128643, "pitch": 60, "duration": 618, "velocity": 100}, {"time": 128882, "pitch": 38, "duration": 110, "velocity": 90}, {"time": 129121, "pitch": 38, "duration": 260, "velocity": 90}, {"time": 129361, "pitch": 53, "duration": 339, "velocity": 100}, {"time": 129361, "pitch": 57, "duration": 349, "velocity": 110}, {"time": 129361, "pitch": 60, "duration": 309, "velocity": 100}, {"time": 129600, "pitch": 38, "duration": 119, "velocity": 90}, {"time": 129839, "pitch": 40, "duration": 777, "velocity": 90}, {"time": 129839, "pitch": 54, "duration": 359, "velocity": 100}, {"time": 129839, "pitch": 57, "duration": 389, "velocity": 100}, {"time": 129839, "pitch": 62, "duration": 379, "velocity": 110}, {"time": 130317, "pitch": 54, "duration": 60, "velocity": 100}, {"time": 130317, "pitch": 57, "duration": 90, "velocity": 100}, {"time": 130317, "pitch": 62, "duration": 90, "velocity": 110}, {"time": 130557, "pitch": 54, "duration": 358, "velocity": 100}, {"time": 130557, "pitch": 57, "duration": 378, "velocity": 100}, {"time": 130557, "pitch": 62, "duration": 358, "velocity": 110}, {"time": 130796, "pitch": 40, "duration": 110, "velocity": 90}, {"time": 131035, "pitch": 40, "duration": 549, "velocity": 90}, {"time": 131035, "pitch": 56, "duration": 316, "velocity": 100}, {"time": 131035, "pitch": 59, "duration": 347, "velocity": 100}, {"time": 131035, "pitch": 64, "duration": 306, "velocity": 110}, {"time": 131525, "pitch": 56, "duration": 279, "velocity": 80}, {"time": 131525, "pitch": 59, "duration": 289, "velocity": 100}, {"time": 131525, "pitch": 64, "duration": 229, "velocity": 110}, {"time": 131764, "pitch": 40, "duration": 139, "velocity": 90}, {"time": 132003, "pitch": 45, "duration": 518, "velocity": 90}, {"time": 132003, "pitch": 52, "duration": 309, "velocity": 100}, {"time": 132003, "pitch": 57, "duration": 329, "velocity": 100}, {"time": 132003, "pitch": 61, "duration": 289, "velocity": 110}, {"time": 132481, "pitch": 52, "duration": 618, "velocity": 100}, {"time": 132481, "pitch": 57, "duration": 628, "velocity": 100}, {"time": 132481, "pitch": 61, "duration": 589, "velocity": 110}, {"time": 132721, "pitch": 45, "duration": 89, "velocity": 90}, {"time": 132960, "pitch": 45, "duration": 239, "velocity": 90}, {"time": 133199, "pitch": 52, "duration": 329, "velocity": 100}, {"time": 133199, "pitch": 57, "duration": 329, "velocity": 100}, {"time": 133199, "pitch": 61, "duration": 319, "velocity": 110}, {"time": 133438, "pitch": 45, "duration": 120, "velocity": 90}, {"time": 133677, "pitch": 46, "duration": 718, "velocity": 90}, {"time": 133677, "pitch": 52, "duration": 299, "velocity": 100}, {"time": 133677, "pitch": 58, "duration": 290, "velocity": 100}, {"time": 133677, "pitch": 61, "duration": 299, "velocity": 110}, {"time": 134156, "pitch": 52, "duration": 60, "velocity": 100}, {"time": 134156, "pitch": 58, "duration": 70, "velocity": 100}, {"time": 134156, "pitch": 61, "duration": 70, "velocity": 110}, {"time": 134395, "pitch": 52, "duration": 347, "velocity": 100}, {"time": 134395, "pitch": 58, "duration": 347, "velocity": 100}, {"time": 134395, "pitch": 61, "duration": 337, "velocity": 110}, {"time": 134640, "pitch": 46, "duration": 92, "velocity": 90}, {"time": 134885, "pitch": 46, "duration": 508, "velocity": 90}, {"time": 134885, "pitch": 52, "duration": 239, "velocity": 100}, {"time": 134885, "pitch": 58, "duration": 249, "velocity": 100}, {"time": 134885, "pitch": 61, "duration": 249, "velocity": 110}, {"time": 135363, "pitch": 52, "duration": 239, "velocity": 100}, {"time": 135363, "pitch": 58, "duration": 299, "velocity": 100}, {"time": 135363, "pitch": 61, "duration": 279, "velocity": 110}, {"time": 135602, "pitch": 46, "duration": 150, "velocity": 90}, {"time": 135841, "pitch": 47, "duration": 489, "velocity": 90}, {"time": 135841, "pitch": 54, "duration": 280, "velocity": 100}, {"time": 135841, "pitch": 57, "duration": 289, "velocity": 100}, {"time": 135841, "pitch": 62, "duration": 280, "velocity": 110}, {"time": 136320, "pitch": 54, "duration": 638, "velocity": 100}, {"time": 136320, "pitch": 57, "duration": 618, "velocity": 100}, {"time": 136320, "pitch": 62, "duration": 618, "velocity": 110}, {"time": 136559, "pitch": 47, "duration": 80, "velocity": 90}, {"time": 136798, "pitch": 47, "duration": 279, "velocity": 90}, {"time": 137037, "pitch": 54, "duration": 260, "velocity": 100}, {"time": 137037, "pitch": 57, "duration": 280, "velocity": 100}, {"time": 137037, "pitch": 62, "duration": 290, "velocity": 110}, {"time": 137277, "pitch": 47, "duration": 229, "velocity": 90}, {"time": 137516, "pitch": 38, "duration": 778, "velocity": 90}, {"time": 137516, "pitch": 57, "duration": 331, "velocity": 100}, {"time": 137516, "pitch": 60, "duration": 310, "velocity": 100}, {"time": 137516, "pitch": 65, "duration": 300, "velocity": 110}, {"time": 138000, "pitch": 57, "duration": 71, "velocity": 100}, {"time": 138000, "pitch": 60, "duration": 41, "velocity": 100}, {"time": 138000, "pitch": 65, "duration": 61, "velocity": 110}, {"time": 138245, "pitch": 57, "duration": 319, "velocity": 100}, {"time": 138245, "pitch": 60, "duration": 309, "velocity": 100}, {"time": 138245, "pitch": 65, "duration": 319, "velocity": 110}, {"time": 138484, "pitch": 38, "duration": 80, "velocity": 90}, {"time": 138723, "pitch": 38, "duration": 508, "velocity": 90}, {"time": 138723, "pitch": 57, "duration": 269, "velocity": 100}, {"time": 138723, "pitch": 60, "duration": 269, "velocity": 100}, {"time": 138723, "pitch": 65, "duration": 269, "velocity": 110}, {"time": 139201, "pitch": 57, "duration": 270, "velocity": 100}, {"time": 139201, "pitch": 60, "duration": 289, "velocity": 100}, {"time": 139201, "pitch": 65, "duration": 250, "velocity": 110}, {"time": 139441, "pitch": 38, "duration": 179, "velocity": 90}, {"time": 139680, "pitch": 37, "duration": 458, "velocity": 90}, {"time": 139680, "pitch": 56, "duration": 239, "velocity": 100}, {"time": 139680, "pitch": 59, "duration": 259, "velocity": 100}, {"time": 139680, "pitch": 64, "duration": 249, "velocity": 110}, {"time": 140158, "pitch": 56, "duration": 299, "velocity": 100}, {"time": 140158, "pitch": 59, "duration": 309, "velocity": 100}, {"time": 140158, "pitch": 64, "duration": 299, "velocity": 110}, {"time": 140397, "pitch": 37, "duration": 100, "velocity": 90}, {"time": 140637, "pitch": 37, "duration": 229, "velocity": 90}, {"time": 140637, "pitch": 56, "duration": 570, "velocity": 100}, {"time": 140637, "pitch": 59, "duration": 560, "velocity": 100}, {"time": 140637, "pitch": 64, "duration": 580, "velocity": 110}, {"time": 140876, "pitch": 40, "duration": 229, "velocity": 90}, {"time": 141115, "pitch": 41, "duration": 235, "velocity": 90}, {"time": 141360, "pitch": 42, "duration": 703, "velocity": 90}, {"time": 141360, "pitch": 58, "duration": 285, "velocity": 100}, {"time": 141360, "pitch": 61, "duration": 285, "velocity": 100}, {"time": 141360, "pitch": 64, "duration": 285, "velocity": 110}, {"time": 141844, "pitch": 58, "duration": 60, "velocity": 100}, {"time": 141844, "pitch": 61, "duration": 60, "velocity": 100}, {"time": 141844, "pitch": 64, "duration": 50, "velocity": 110}, {"time": 142083, "pitch": 58, "duration": 329, "velocity": 100}, {"time": 142083, "pitch": 61, "duration": 309, "velocity": 100}, {"time": 142083, "pitch": 64, "duration": 309, "velocity": 110}, {"time": 142322, "pitch": 42, "duration": 80, "velocity": 90}, {"time": 142561, "pitch": 42, "duration": 539, "velocity": 90}, {"time": 142561, "pitch": 58, "duration": 260, "velocity": 100}, {"time": 142561, "pitch": 61, "duration": 250, "velocity": 100}, {"time": 142561, "pitch": 64, "duration": 260, "velocity": 110}, {"time": 143040, "pitch": 58, "duration": 309, "velocity": 100}, {"time": 143040, "pitch": 61, "duration": 309, "velocity": 100}, {"time": 143040, "pitch": 64, "duration": 299, "velocity": 110}, {"time": 143279, "pitch": 42, "duration": 249, "velocity": 90}, {"time": 143518, "pitch": 35, "duration": 479, "velocity": 90}, {"time": 143518, "pitch": 57, "duration": 269, "velocity": 100}, {"time": 143518, "pitch": 62, "duration": 269, "velocity": 100}, {"time": 143518, "pitch": 66, "duration": 269, "velocity": 110}, {"time": 143997, "pitch": 57, "duration": 600, "velocity": 100}, {"time": 143997, "pitch": 62, "duration": 600, "velocity": 100}, {"time": 143997, "pitch": 66, "duration": 600, "velocity": 110}, {"time": 144236, "pitch": 35, "duration": 80, "velocity": 90}, {"time": 144475, "pitch": 35, "duration": 255, "velocity": 90}, {"time": 144720, "pitch": 57, "duration": 304, "velocity": 100}, {"time": 144720, "pitch": 62, "duration": 314, "velocity": 100}, {"time": 144720, "pitch": 66, "duration": 304, "velocity": 110}, {"time": 144965, "pitch": 35, "duration": 119, "velocity": 90}, {"time": 145204, "pitch": 40, "duration": 767, "velocity": 90}, {"time": 145204, "pitch": 57, "duration": 299, "velocity": 100}, {"time": 145204, "pitch": 62, "duration": 299, "velocity": 100}, {"time": 145204, "pitch": 66, "duration": 289, "velocity": 110}, {"time": 145682, "pitch": 57, "duration": 50, "velocity": 100}, {"time": 145682, "pitch": 62, "duration": 60, "velocity": 100}, {"time": 145682, "pitch": 66, "duration": 60, "velocity": 110}, {"time": 145921, "pitch": 57, "duration": 319, "velocity": 100}, {"time": 145921, "pitch": 62, "duration": 339, "velocity": 100}, {"time": 145921, "pitch": 66, "duration": 339, "velocity": 110}, {"time": 146161, "pitch": 40, "duration": 59, "velocity": 90}, {"time": 146400, "pitch": 40, "duration": 668, "velocity": 90}, {"time": 146400, "pitch": 57, "duration": 209, "velocity": 100}, {"time": 146400, "pitch": 62, "duration": 229, "velocity": 100}, {"time": 146400, "pitch": 66, "duration": 229, "velocity": 110}, {"time": 146878, "pitch": 57, "duration": 200, "velocity": 100}, {"time": 146878, "pitch": 62, "duration": 220, "velocity": 100}, {"time": 146878, "pitch": 66, "duration": 220, "velocity": 110}, {"time": 147357, "pitch": 45, "duration": 519, "velocity": 90}, {"time": 147357, "pitch": 52, "duration": 309, "velocity": 100}, {"time": 147357, "pitch": 57, "duration": 329, "velocity": 100}, {"time": 147357, "pitch": 61, "duration": 289, "velocity": 110}, {"time": 147835, "pitch": 52, "duration": 629, "velocity": 100}, {"time": 147835, "pitch": 57, "duration": 639, "velocity": 100}, {"time": 147835, "pitch": 61, "duration": 599, "velocity": 110}, {"time": 148080, "pitch": 45, "duration": 92, "velocity": 90}, {"time": 148325, "pitch": 45, "duration": 239, "velocity": 90}, {"time": 148564, "pitch": 52, "duration": 329, "velocity": 100}, {"time": 148564, "pitch": 57, "duration": 329, "velocity": 100}, {"time": 148564, "pitch": 61, "duration": 319, "velocity": 110}, {"time": 148803, "pitch": 45, "duration": 120, "velocity": 90}, {"time": 149042, "pitch": 46, "duration": 718, "velocity": 90}, {"time": 149042, "pitch": 52, "duration": 299, "velocity": 100}, {"time": 149042, "pitch": 58, "duration": 289, "velocity": 100}, {"time": 149042, "pitch": 61, "duration": 299, "velocity": 110}, {"time": 149521, "pitch": 52, "duration": 59, "velocity": 100}, {"time": 149521, "pitch": 58, "duration": 69, "velocity": 100}, {"time": 149521, "pitch": 61, "duration": 69, "velocity": 110}, {"time": 149760, "pitch": 52, "duration": 339, "velocity": 100}, {"time": 149760, "pitch": 58, "duration": 339, "velocity": 100}, {"time": 149760, "pitch": 61, "duration": 329, "velocity": 110}, {"time": 149999, "pitch": 46, "duration": 90, "velocity": 90}, {"time": 150238, "pitch": 46, "duration": 509, "velocity": 90}, {"time": 150238, "pitch": 52, "duration": 239, "velocity": 100}, {"time": 150238, "pitch": 58, "duration": 249, "velocity": 100}, {"time": 150238, "pitch": 61, "duration": 249, "velocity": 110}, {"time": 150717, "pitch": 52, "duration": 239, "velocity": 100}, {"time": 150717, "pitch": 58, "duration": 299, "velocity": 100}, {"time": 150717, "pitch": 61, "duration": 279, "velocity": 110}, {"time": 150956, "pitch": 46, "duration": 149, "velocity": 90}, {"time": 151195, "pitch": 47, "duration": 500, "velocity": 90}, {"time": 151195, "pitch": 54, "duration": 286, "velocity": 100}, {"time": 151195, "pitch": 57, "duration": 296, "velocity": 100}, {"time": 151195, "pitch": 62, "duration": 286, "velocity": 110}, {"time": 151685, "pitch": 54, "duration": 638, "velocity": 100}, {"time": 151685, "pitch": 57, "duration": 618, "velocity": 100}, {"time": 151685, "pitch": 62, "duration": 618, "velocity": 110}, {"time": 151924, "pitch": 47, "duration": 80, "velocity": 90}, {"time": 152163, "pitch": 47, "duration": 279, "velocity": 90}, {"time": 152402, "pitch": 54, "duration": 259, "velocity": 100}, {"time": 152402, "pitch": 57, "duration": 279, "velocity": 100}, {"time": 152402, "pitch": 62, "duration": 289, "velocity": 110}, {"time": 152641, "pitch": 47, "duration": 230, "velocity": 90}, {"time": 152881, "pitch": 38, "duration": 767, "velocity": 90}, {"time": 152881, "pitch": 57, "duration": 329, "velocity": 100}, {"time": 152881, "pitch": 60, "duration": 309, "velocity": 100}, {"time": 152881, "pitch": 65, "duration": 299, "velocity": 110}, {"time": 153359, "pitch": 57, "duration": 70, "velocity": 100}, {"time": 153359, "pitch": 60, "duration": 40, "velocity": 100}, {"time": 153359, "pitch": 65, "duration": 60, "velocity": 110}, {"time": 153598, "pitch": 57, "duration": 319, "velocity": 100}, {"time": 153598, "pitch": 60, "duration": 309, "velocity": 100}, {"time": 153598, "pitch": 65, "duration": 319, "velocity": 110}, {"time": 153837, "pitch": 38, "duration": 80, "velocity": 90}, {"time": 154077, "pitch": 38, "duration": 509, "velocity": 90}, {"time": 154077, "pitch": 57, "duration": 269, "velocity": 100}, {"time": 154077, "pitch": 60, "duration": 269, "velocity": 100}, {"time": 154077, "pitch": 65, "duration": 269, "velocity": 110}, {"time": 154555, "pitch": 57, "duration": 275, "velocity": 100}, {"time": 154555, "pitch": 60, "duration": 296, "velocity": 100}, {"time": 154555, "pitch": 65, "duration": 255, "velocity": 110}, {"time": 154800, "pitch": 38, "duration": 184, "velocity": 90}, {"time": 155045, "pitch": 37, "duration": 458, "velocity": 90}, {"time": 155045, "pitch": 56, "duration": 239, "velocity": 100}, {"time": 155045, "pitch": 59, "duration": 259, "velocity": 100}, {"time": 155045, "pitch": 64, "duration": 249, "velocity": 110}, {"time": 155523, "pitch": 56, "duration": 299, "velocity": 100}, {"time": 155523, "pitch": 59, "duration": 309, "velocity": 100}, {"time": 155523, "pitch": 64, "duration": 299, "velocity": 110}, {"time": 155762, "pitch": 37, "duration": 100, "velocity": 90}, {"time": 156001, "pitch": 37, "duration": 230, "velocity": 90}, {"time": 156001, "pitch": 56, "duration": 569, "velocity": 100}, {"time": 156001, "pitch": 59, "duration": 559, "velocity": 100}, {"time": 156001, "pitch": 64, "duration": 579, "velocity": 110}, {"time": 156241, "pitch": 40, "duration": 229, "velocity": 90}, {"time": 156480, "pitch": 41, "duration": 229, "velocity": 90}, {"time": 156719, "pitch": 42, "duration": 698, "velocity": 90}, {"time": 156719, "pitch": 58, "duration": 279, "velocity": 100}, {"time": 156719, "pitch": 61, "duration": 279, "velocity": 100}, {"time": 156719, "pitch": 64, "duration": 279, "velocity": 110}, {"time": 157197, "pitch": 58, "duration": 60, "velocity": 100}, {"time": 157197, "pitch": 61, "duration": 60, "velocity": 100}, {"time": 157197, "pitch": 64, "duration": 50, "velocity": 110}, {"time": 157437, "pitch": 58, "duration": 329, "velocity": 100}, {"time": 157437, "pitch": 61, "duration": 309, "velocity": 100}, {"time": 157437, "pitch": 64, "duration": 309, "velocity": 110}, {"time": 157676, "pitch": 42, "duration": 80, "velocity": 90}, {"time": 157915, "pitch": 42, "duration": 549, "velocity": 90}, {"time": 157915, "pitch": 58, "duration": 265, "velocity": 100}, {"time": 157915, "pitch": 61, "duration": 255, "velocity": 100}, {"time": 157915, "pitch": 64, "duration": 265, "velocity": 110}, {"time": 158405, "pitch": 58, "duration": 309, "velocity": 100}, {"time": 158405, "pitch": 61, "duration": 309, "velocity": 100}, {"time": 158405, "pitch": 64, "duration": 299, "velocity": 110}, {"time": 158644, "pitch": 42, "duration": 249, "velocity": 90}, {"time": 158883, "pitch": 35, "duration": 478, "velocity": 90}, {"time": 158883, "pitch": 57, "duration": 269, "velocity": 100}, {"time": 158883, "pitch": 62, "duration": 269, "velocity": 100}, {"time": 158883, "pitch": 66, "duration": 269, "velocity": 110}, {"time": 159361, "pitch": 57, "duration": 598, "velocity": 100}, {"time": 159361, "pitch": 62, "duration": 598, "velocity": 100}, {"time": 159361, "pitch": 66, "duration": 598, "velocity": 110}, {"time": 159601, "pitch": 35, "duration": 79, "velocity": 90}, {"time": 159840, "pitch": 35, "duration": 249, "velocity": 90}, {"time": 160079, "pitch": 57, "duration": 299, "velocity": 100}, {"time": 160079, "pitch": 62, "duration": 309, "velocity": 100}, {"time": 160079, "pitch": 66, "duration": 299, "velocity": 110}, {"time": 160318, "pitch": 35, "duration": 120, "velocity": 90}, {"time": 160557, "pitch": 40, "duration": 769, "velocity": 90}, {"time": 160557, "pitch": 57, "duration": 299, "velocity": 100}, {"time": 160557, "pitch": 62, "duration": 299, "velocity": 100}, {"time": 160557, "pitch": 66, "duration": 289, "velocity": 110}, {"time": 161036, "pitch": 57, "duration": 50, "velocity": 100}, {"time": 161036, "pitch": 62, "duration": 60, "velocity": 100}, {"time": 161036, "pitch": 66, "duration": 60, "velocity": 110}, {"time": 161275, "pitch": 57, "duration": 326, "velocity": 100}, {"time": 161275, "pitch": 62, "duration": 347, "velocity": 100}, {"time": 161275, "pitch": 66, "duration": 347, "velocity": 110}, {"time": 161520, "pitch": 40, "duration": 61, "velocity": 90}, {"time": 161765, "pitch": 40, "duration": 667, "velocity": 90}, {"time": 161765, "pitch": 57, "duration": 209, "velocity": 100}, {"time": 161765, "pitch": 62, "duration": 229, "velocity": 100}, {"time": 161765, "pitch": 66, "duration": 229, "velocity": 110}, {"time": 162243, "pitch": 57, "duration": 199, "velocity": 100}, {"time": 162243, "pitch": 62, "duration": 219, "velocity": 100}, {"time": 162243, "pitch": 66, "duration": 219, "velocity": 110}, {"time": 178075, "pitch": 35, "duration": 500, "velocity": 90}, {"time": 178075, "pitch": 54, "duration": 326, "velocity": 100}, {"time": 178075, "pitch": 57, "duration": 326, "velocity": 100}, {"time": 178075, "pitch": 62, "duration": 316, "velocity": 110}, {"time": 178565, "pitch": 54, "duration": 647, "velocity": 100}, {"time": 178565, "pitch": 57, "duration": 647, "velocity": 100}, {"time": 178565, "pitch": 62, "duration": 618, "velocity": 110}, {"time": 178804, "pitch": 35, "duration": 119, "velocity": 90}, {"time": 179043, "pitch": 35, "duration": 349, "velocity": 90}, {"time": 179282, "pitch": 54, "duration": 409, "velocity": 100}, {"time": 179282, "pitch": 57, "duration": 419, "velocity": 100}, {"time": 179282, "pitch": 62, "duration": 409, "velocity": 110}, {"time": 179521, "pitch": 35, "duration": 130, "velocity": 90}, {"time": 179761, "pitch": 35, "duration": 757, "velocity": 90}, {"time": 179761, "pitch": 54, "duration": 338, "velocity": 100}, {"time": 179761, "pitch": 57, "duration": 358, "velocity": 100}, {"time": 179761, "pitch": 62, "duration": 329, "velocity": 110}, {"time": 180239, "pitch": 54, "duration": 110, "velocity": 100}, {"time": 180239, "pitch": 57, "duration": 110, "velocity": 100}, {"time": 180239, "pitch": 62, "duration": 90, "velocity": 110}, {"time": 180478, "pitch": 54, "duration": 339, "velocity": 100}, {"time": 180478, "pitch": 57, "duration": 359, "velocity": 100}, {"time": 180478, "pitch": 62, "duration": 329, "velocity": 110}, {"time": 180717, "pitch": 35, "duration": 130, "velocity": 90}, {"time": 180957, "pitch": 35, "duration": 560, "velocity": 90}, {"time": 180957, "pitch": 54, "duration": 338, "velocity": 100}, {"time": 180957, "pitch": 57, "duration": 358, "velocity": 100}, {"time": 180957, "pitch": 62, "duration": 338, "velocity": 110}, {"time": 181435, "pitch": 54, "duration": 357, "velocity": 100}, {"time": 181435, "pitch": 57, "duration": 398, "velocity": 100}, {"time": 181435, "pitch": 62, "duration": 408, "velocity": 110}, {"time": 181680, "pitch": 35, "duration": 224, "velocity": 90}, {"time": 181925, "pitch": 37, "duration": 548, "velocity": 90}, {"time": 181925, "pitch": 56, "duration": 368, "velocity": 100}, {"time": 181925, "pitch": 59, "duration": 388, "velocity": 100}, {"time": 181925, "pitch": 64, "duration": 388, "velocity": 110}, {"time": 182403, "pitch": 56, "duration": 658, "velocity": 100}, {"time": 182403, "pitch": 59, "duration": 668, "velocity": 100}, {"time": 182403, "pitch": 64, "duration": 638, "velocity": 110}, {"time": 182642, "pitch": 37, "duration": 140, "velocity": 90}, {"time": 182881, "pitch": 37, "duration": 379, "velocity": 90}, {"time": 183121, "pitch": 56, "duration": 418, "velocity": 100}, {"time": 183121, "pitch": 59, "duration": 418, "velocity": 100}, {"time": 183121, "pitch": 64, "duration": 368, "velocity": 110}, {"time": 183360, "pitch": 37, "duration": 209, "velocity": 90}, {"time": 183599, "pitch": 37, "duration": 728, "velocity": 90}, {"time": 183599, "pitch": 56, "duration": 339, "velocity": 100}, {"time": 183599, "pitch": 59, "duration": 369, "velocity": 100}, {"time": 183599, "pitch": 64, "duration": 339, "velocity": 110}, {"time": 184077, "pitch": 56, "duration": 90, "velocity": 100}, {"time": 184077, "pitch": 59, "duration": 100, "velocity": 100}, {"time": 184077, "pitch": 64, "duration": 50, "velocity": 110}, {"time": 184317, "pitch": 56, "duration": 388, "velocity": 100}, {"time": 184317, "pitch": 59, "duration": 388, "velocity": 100}, {"time": 184317, "pitch": 64, "duration": 378, "velocity": 110}, {"time": 184556, "pitch": 37, "duration": 139, "velocity": 90}, {"time": 184795, "pitch": 37, "duration": 619, "velocity": 90}, {"time": 184795, "pitch": 56, "duration": 388, "velocity": 100}, {"time": 184795, "pitch": 59, "duration": 398, "velocity": 100}, {"time": 184795, "pitch": 64, "duration": 367, "velocity": 110}, {"time": 185285, "pitch": 56, "duration": 398, "velocity": 100}, {"time": 185285, "pitch": 59, "duration": 398, "velocity": 100}, {"time": 185285, "pitch": 64, "duration": 319, "velocity": 110}, {"time": 185524, "pitch": 37, "duration": 179, "velocity": 90}, {"time": 185763, "pitch": 35, "duration": 528, "velocity": 90}, {"time": 185763, "pitch": 54, "duration": 309, "velocity": 100}, {"time": 185763, "pitch": 57, "duration": 339, "velocity": 100}, {"time": 185763, "pitch": 62, "duration": 309, "velocity": 110}, {"time": 186241, "pitch": 54, "duration": 698, "velocity": 100}, {"time": 186241, "pitch": 57, "duration": 708, "velocity": 100}, {"time": 186241, "pitch": 62, "duration": 698, "velocity": 110}, {"time": 186481, "pitch": 35, "duration": 139, "velocity": 90}, {"time": 186720, "pitch": 35, "duration": 359, "velocity": 90}, {"time": 186959, "pitch": 54, "duration": 419, "velocity": 100}, {"time": 186959, "pitch": 57, "duration": 429, "velocity": 100}, {"time": 186959, "pitch": 62, "duration": 389, "velocity": 110}, {"time": 187198, "pitch": 35, "duration": 200, "velocity": 90}, {"time": 187437, "pitch": 35, "duration": 779, "velocity": 90}, {"time": 187437, "pitch": 54, "duration": 359, "velocity": 100}, {"time": 187437, "pitch": 57, "duration": 389, "velocity": 100}, {"time": 187437, "pitch": 62, "duration": 379, "velocity": 110}, {"time": 187916, "pitch": 54, "duration": 60, "velocity": 100}, {"time": 187916, "pitch": 57, "duration": 90, "velocity": 100}, {"time": 187916, "pitch": 62, "duration": 90, "velocity": 110}, {"time": 188155, "pitch": 54, "duration": 367, "velocity": 100}, {"time": 188155, "pitch": 57, "duration": 388, "velocity": 100}, {"time": 188155, "pitch": 62, "duration": 367, "velocity": 110}, {"time": 188400, "pitch": 35, "duration": 92, "velocity": 90}, {"time": 188645, "pitch": 35, "duration": 508, "velocity": 90}, {"time": 188645, "pitch": 54, "duration": 309, "velocity": 100}, {"time": 188645, "pitch": 57, "duration": 338, "velocity": 100}, {"time": 188645, "pitch": 62, "duration": 299, "velocity": 110}, {"time": 189123, "pitch": 54, "duration": 279, "velocity": 80}, {"time": 189123, "pitch": 57, "duration": 289, "velocity": 100}, {"time": 189123, "pitch": 62, "duration": 229, "velocity": 110}, {"time": 189362, "pitch": 35, "duration": 200, "velocity": 90}, {"time": 189601, "pitch": 38, "duration": 519, "velocity": 90}, {"time": 189601, "pitch": 53, "duration": 329, "velocity": 100}, {"time": 189601, "pitch": 57, "duration": 319, "velocity": 110}, {"time": 189601, "pitch": 60, "duration": 289, "velocity": 100}, {"time": 190080, "pitch": 53, "duration": 648, "velocity": 100}, {"time": 190080, "pitch": 57, "duration": 618, "velocity": 110}, {"time": 190080, "pitch": 60, "duration": 618, "velocity": 100}, {"time": 190319, "pitch": 38, "duration": 110, "velocity": 90}, {"time": 190558, "pitch": 38, "duration": 259, "velocity": 90}, {"time": 190797, "pitch": 53, "duration": 339, "velocity": 100}, {"time": 190797, "pitch": 57, "duration": 349, "velocity": 110}, {"time": 190797, "pitch": 60, "duration": 309, "velocity": 100}, {"time": 191037, "pitch": 38, "duration": 119, "velocity": 90}, {"time": 191276, "pitch": 40, "duration": 788, "velocity": 90}, {"time": 191276, "pitch": 54, "duration": 361, "velocity": 100}, {"time": 191276, "pitch": 57, "duration": 392, "velocity": 100}, {"time": 191276, "pitch": 62, "duration": 382, "velocity": 110}, {"time": 191760, "pitch": 54, "duration": 61, "velocity": 100}, {"time": 191760, "pitch": 57, "duration": 92, "velocity": 100}, {"time": 191760, "pitch": 62, "duration": 92, "velocity": 110}, {"time": 192005, "pitch": 54, "duration": 358, "velocity": 100}, {"time": 192005, "pitch": 57, "duration": 378, "velocity": 100}, {"time": 192005, "pitch": 62, "duration": 358, "velocity": 110}, {"time": 192244, "pitch": 40, "duration": 109, "velocity": 90}, {"time": 192483, "pitch": 40, "duration": 538, "velocity": 90}, {"time": 192483, "pitch": 56, "duration": 309, "velocity": 100}, {"time": 192483, "pitch": 59, "duration": 339, "velocity": 100}, {"time": 192483, "pitch": 64, "duration": 299, "velocity": 110}, {"time": 192961, "pitch": 56, "duration": 279, "velocity": 80}, {"time": 192961, "pitch": 59, "duration": 289, "velocity": 100}, {"time": 192961, "pitch": 64, "duration": 230, "velocity": 110}, {"time": 193201, "pitch": 40, "duration": 139, "velocity": 90}, {"time": 193440, "pitch": 45, "duration": 518, "velocity": 90}, {"time": 193440, "pitch": 52, "duration": 309, "velocity": 100}, {"time": 193440, "pitch": 57, "duration": 329, "velocity": 100}, {"time": 193440, "pitch": 61, "duration": 289, "velocity": 110}, {"time": 193918, "pitch": 52, "duration": 618, "velocity": 100}, {"time": 193918, "pitch": 57, "duration": 628, "velocity": 100}, {"time": 193918, "pitch": 61, "duration": 588, "velocity": 110}, {"time": 194157, "pitch": 45, "duration": 90, "velocity": 90}, {"time": 194397, "pitch": 45, "duration": 239, "velocity": 90}, {"time": 194636, "pitch": 52, "duration": 331, "velocity": 100}, {"time": 194636, "pitch": 57, "duration": 331, "velocity": 100}, {"time": 194636, "pitch": 61, "duration": 321, "velocity": 110}, {"time": 194875, "pitch": 45, "duration": 122, "velocity": 90}, {"time": 195120, "pitch": 46, "duration": 723, "velocity": 90}, {"time": 195120, "pitch": 52, "duration": 304, "velocity": 100}, {"time": 195120, "pitch": 58, "duration": 294, "velocity": 100}, {"time": 195120, "pitch": 61, "duration": 304, "velocity": 110}, {"time": 195604, "pitch": 52, "duration": 60, "velocity": 100}, {"time": 195604, "pitch": 58, "duration": 70, "velocity": 100}, {"time": 195604, "pitch": 61, "duration": 70, "velocity": 110}, {"time": 195843, "pitch": 52, "duration": 339, "velocity": 100}, {"time": 195843, "pitch": 58, "duration": 339, "velocity": 100}, {"time": 195843, "pitch": 61, "duration": 329, "velocity": 110}, {"time": 196082, "pitch": 46, "duration": 90, "velocity": 90}, {"time": 196321, "pitch": 46, "duration": 509, "velocity": 90}, {"time": 196321, "pitch": 52, "duration": 240, "velocity": 100}, {"time": 196321, "pitch": 58, "duration": 250, "velocity": 100}, {"time": 196321, "pitch": 61, "duration": 250, "velocity": 110}, {"time": 196800, "pitch": 52, "duration": 239, "velocity": 100}, {"time": 196800, "pitch": 58, "duration": 299, "velocity": 100}, {"time": 196800, "pitch": 61, "duration": 279, "velocity": 110}, {"time": 197039, "pitch": 46, "duration": 150, "velocity": 90}, {"time": 197278, "pitch": 47, "duration": 489, "velocity": 90}, {"time": 197278, "pitch": 54, "duration": 279, "velocity": 100}, {"time": 197278, "pitch": 57, "duration": 289, "velocity": 100}, {"time": 197278, "pitch": 62, "duration": 279, "velocity": 110}, {"time": 197757, "pitch": 54, "duration": 641, "velocity": 100}, {"time": 197757, "pitch": 57, "duration": 621, "velocity": 100}, {"time": 197757, "pitch": 62, "duration": 621, "velocity": 110}, {"time": 197996, "pitch": 47, "duration": 80, "velocity": 90}, {"time": 198235, "pitch": 47, "duration": 286, "velocity": 90}, {"time": 198480, "pitch": 54, "duration": 265, "velocity": 100}, {"time": 198480, "pitch": 57, "duration": 284, "velocity": 100}, {"time": 198480, "pitch": 62, "duration": 294, "velocity": 110}, {"time": 198725, "pitch": 47, "duration": 229, "velocity": 90}, {"time": 198964, "pitch": 38, "duration": 767, "velocity": 90}, {"time": 198964, "pitch": 57, "duration": 329, "velocity": 100}, {"time": 198964, "pitch": 60, "duration": 309, "velocity": 100}, {"time": 198964, "pitch": 65, "duration": 299, "velocity": 110}, {"time": 199442, "pitch": 57, "duration": 70, "velocity": 100}, {"time": 199442, "pitch": 60, "duration": 40, "velocity": 100}, {"time": 199442, "pitch": 65, "duration": 60, "velocity": 110}, {"time": 199681, "pitch": 57, "duration": 319, "velocity": 100}, {"time": 199681, "pitch": 60, "duration": 309, "velocity": 100}, {"time": 199681, "pitch": 65, "duration": 319, "velocity": 110}, {"time": 199921, "pitch": 38, "duration": 79, "velocity": 90}, {"time": 200160, "pitch": 38, "duration": 508, "velocity": 90}, {"time": 200160, "pitch": 57, "duration": 269, "velocity": 100}, {"time": 200160, "pitch": 60, "duration": 269, "velocity": 100}, {"time": 200160, "pitch": 65, "duration": 269, "velocity": 110}, {"time": 200638, "pitch": 57, "duration": 269, "velocity": 100}, {"time": 200638, "pitch": 60, "duration": 289, "velocity": 100}, {"time": 200638, "pitch": 65, "duration": 249, "velocity": 110}, {"time": 200877, "pitch": 38, "duration": 180, "velocity": 90}, {"time": 201117, "pitch": 37, "duration": 458, "velocity": 90}, {"time": 201117, "pitch": 56, "duration": 239, "velocity": 100}, {"time": 201117, "pitch": 59, "duration": 259, "velocity": 100}, {"time": 201117, "pitch": 64, "duration": 249, "velocity": 110}, {"time": 201595, "pitch": 56, "duration": 306, "velocity": 100}, {"time": 201595, "pitch": 59, "duration": 316, "velocity": 100}, {"time": 201595, "pitch": 64, "duration": 306, "velocity": 110}, {"time": 201840, "pitch": 37, "duration": 102, "velocity": 90}, {"time": 202085, "pitch": 37, "duration": 229, "velocity": 90}, {"time": 202085, "pitch": 56, "duration": 568, "velocity": 100}, {"time": 202085, "pitch": 59, "duration": 558, "velocity": 100}, {"time": 202085, "pitch": 64, "duration": 578, "velocity": 110}, {"time": 202324, "pitch": 40, "duration": 229, "velocity": 90}, {"time": 202563, "pitch": 41, "duration": 229, "velocity": 90}, {"time": 202802, "pitch": 42, "duration": 698, "velocity": 90}, {"time": 202802, "pitch": 58, "duration": 279, "velocity": 100}, {"time": 202802, "pitch": 61, "duration": 279, "velocity": 100}, {"time": 202802, "pitch": 64, "duration": 279, "velocity": 110}, {"time": 203281, "pitch": 58, "duration": 59, "velocity": 100}, {"time": 203281, "pitch": 61, "duration": 59, "velocity": 100}, {"time": 203281, "pitch": 64, "duration": 49, "velocity": 110}, {"time": 203520, "pitch": 58, "duration": 329, "velocity": 100}, {"time": 203520, "pitch": 61, "duration": 309, "velocity": 100}, {"time": 203520, "pitch": 64, "duration": 309, "velocity": 110}, {"time": 203759, "pitch": 42, "duration": 80, "velocity": 90}, {"time": 203998, "pitch": 42, "duration": 538, "velocity": 90}, {"time": 203998, "pitch": 58, "duration": 259, "velocity": 100}, {"time": 203998, "pitch": 61, "duration": 249, "velocity": 100}, {"time": 203998, "pitch": 64, "duration": 259, "velocity": 110}, {"time": 204477, "pitch": 58, "duration": 309, "velocity": 100}, {"time": 204477, "pitch": 61, "duration": 309, "velocity": 100}, {"time": 204477, "pitch": 64, "duration": 299, "velocity": 110}, {"time": 204716, "pitch": 42, "duration": 249, "velocity": 90}, {"time": 204955, "pitch": 35, "duration": 490, "velocity": 90}, {"time": 204955, "pitch": 57, "duration": 275, "velocity": 100}, {"time": 204955, "pitch": 62, "duration": 275, "velocity": 100}, {"time": 204955, "pitch": 66, "duration": 275, "velocity": 110}, {"time": 205445, "pitch": 57, "duration": 598, "velocity": 100}, {"time": 205445, "pitch": 62, "duration": 598, "velocity": 100}, {"time": 205445, "pitch": 66, "duration": 598, "velocity": 110}, {"time": 205684, "pitch": 35, "duration": 80, "velocity": 90}, {"time": 205923, "pitch": 35, "duration": 249, "velocity": 90}, {"time": 206162, "pitch": 57, "duration": 299, "velocity": 100}, {"time": 206162, "pitch": 62, "duration": 309, "velocity": 100}, {"time": 206162, "pitch": 66, "duration": 299, "velocity": 110}, {"time": 206401, "pitch": 35, "duration": 120, "velocity": 90}, {"time": 206641, "pitch": 40, "duration": 767, "velocity": 90}, {"time": 206641, "pitch": 57, "duration": 299, "velocity": 100}, {"time": 206641, "pitch": 62, "duration": 299, "velocity": 100}, {"time": 206641, "pitch": 66, "duration": 289, "velocity": 110}, {"time": 207119, "pitch": 57, "duration": 50, "velocity": 100}, {"time": 207119, "pitch": 62, "duration": 60, "velocity": 100}, {"time": 207119, "pitch": 66, "duration": 60, "velocity": 110}, {"time": 207358, "pitch": 57, "duration": 319, "velocity": 100}, {"time": 207358, "pitch": 62, "duration": 339, "velocity": 100}, {"time": 207358, "pitch": 66, "duration": 339, "velocity": 110}, {"time": 207597, "pitch": 40, "duration": 60, "velocity": 90}, {"time": 207837, "pitch": 40, "duration": 672, "velocity": 90}, {"time": 207837, "pitch": 57, "duration": 209, "velocity": 100}, {"time": 207837, "pitch": 62, "duration": 229, "velocity": 100}, {"time": 207837, "pitch": 66, "duration": 229, "velocity": 110}, {"time": 208315, "pitch": 57, "duration": 204, "velocity": 100}, {"time": 208315, "pitch": 62, "duration": 224, "velocity": 100}, {"time": 208315, "pitch": 66, "duration": 224, "velocity": 110}, {"time": 208805, "pitch": 45, "duration": 518, "velocity": 90}, {"time": 208805, "pitch": 52, "duration": 309, "velocity": 100}, {"time": 208805, "pitch": 57, "duration": 328, "velocity": 100}, {"time": 208805, "pitch": 61, "duration": 289, "velocity": 110}, {"time": 209283, "pitch": 52, "duration": 618, "velocity": 100}, {"time": 209283, "pitch": 57, "duration": 628, "velocity": 100}, {"time": 209283, "pitch": 61, "duration": 588, "velocity": 110}, {"time": 209522, "pitch": 45, "duration": 90, "velocity": 90}, {"time": 209761, "pitch": 45, "duration": 240, "velocity": 90}, {"time": 210001, "pitch": 52, "duration": 328, "velocity": 100}, {"time": 210001, "pitch": 57, "duration": 328, "velocity": 100}, {"time": 210001, "pitch": 61, "duration": 319, "velocity": 110}, {"time": 210240, "pitch": 45, "duration": 119, "velocity": 90}, {"time": 210479, "pitch": 46, "duration": 718, "velocity": 90}, {"time": 210479, "pitch": 52, "duration": 299, "velocity": 100}, {"time": 210479, "pitch": 58, "duration": 289, "velocity": 100}, {"time": 210479, "pitch": 61, "duration": 299, "velocity": 110}, {"time": 210957, "pitch": 52, "duration": 60, "velocity": 100}, {"time": 210957, "pitch": 58, "duration": 70, "velocity": 100}, {"time": 210957, "pitch": 61, "duration": 70, "velocity": 110}, {"time": 211197, "pitch": 52, "duration": 338, "velocity": 100}, {"time": 211197, "pitch": 58, "duration": 338, "velocity": 100}, {"time": 211197, "pitch": 61, "duration": 329, "velocity": 110}, {"time": 211436, "pitch": 46, "duration": 90, "velocity": 90}, {"time": 211675, "pitch": 46, "duration": 519, "velocity": 90}, {"time": 211675, "pitch": 52, "duration": 245, "velocity": 100}, {"time": 211675, "pitch": 58, "duration": 255, "velocity": 100}, {"time": 211675, "pitch": 61, "duration": 255, "velocity": 110}, {"time": 212165, "pitch": 52, "duration": 239, "velocity": 100}, {"time": 212165, "pitch": 58, "duration": 299, "velocity": 100}, {"time": 212165, "pitch": 61, "duration": 279, "velocity": 110}, {"time": 212404, "pitch": 46, "duration": 149, "velocity": 90}, {"time": 212643, "pitch": 47, "duration": 488, "velocity": 90}, {"time": 212643, "pitch": 54, "duration": 279, "velocity": 100}, {"time": 212643, "pitch": 57, "duration": 289, "velocity": 100}, {"time": 212643, "pitch": 62, "duration": 279, "velocity": 110}, {"time": 213121, "pitch": 54, "duration": 638, "velocity": 100}, {"time": 213121, "pitch": 57, "duration": 618, "velocity": 100}, {"time": 213121, "pitch": 62, "duration": 618, "velocity": 110}, {"time": 213361, "pitch": 47, "duration": 79, "velocity": 90}, {"time": 213600, "pitch": 47, "duration": 279, "velocity": 90}, {"time": 213839, "pitch": 54, "duration": 259, "velocity": 100}, {"time": 213839, "pitch": 57, "duration": 279, "velocity": 100}, {"time": 213839, "pitch": 62, "duration": 289, "velocity": 110}, {"time": 214078, "pitch": 47, "duration": 229, "velocity": 90}, {"time": 214317, "pitch": 38, "duration": 769, "velocity": 90}, {"time": 214317, "pitch": 57, "duration": 329, "velocity": 100}, {"time": 214317, "pitch": 60, "duration": 309, "velocity": 100}, {"time": 214317, "pitch": 65, "duration": 299, "velocity": 110}, {"time": 214796, "pitch": 57, "duration": 70, "velocity": 100}, {"time": 214796, "pitch": 60, "duration": 40, "velocity": 100}, {"time": 214796, "pitch": 65, "duration": 60, "velocity": 110}, {"time": 215035, "pitch": 57, "duration": 326, "velocity": 100}, {"time": 215035, "pitch": 60, "duration": 316, "velocity": 100}, {"time": 215035, "pitch": 65, "duration": 326, "velocity": 110}, {"time": 215280, "pitch": 38, "duration": 81, "velocity": 90}, {"time": 215525, "pitch": 38, "duration": 508, "velocity": 90}, {"time": 215525, "pitch": 57, "duration": 269, "velocity": 100}, {"time": 215525, "pitch": 60, "duration": 269, "velocity": 100}, {"time": 215525, "pitch": 65, "duration": 269, "velocity": 110}, {"time": 216003, "pitch": 57, "duration": 269, "velocity": 100}, {"time": 216003, "pitch": 60, "duration": 289, "velocity": 100}, {"time": 216003, "pitch": 65, "duration": 249, "velocity": 110}, {"time": 216242, "pitch": 38, "duration": 180, "velocity": 90}, {"time": 216481, "pitch": 37, "duration": 459, "velocity": 90}, {"time": 216481, "pitch": 56, "duration": 240, "velocity": 100}, {"time": 216481, "pitch": 59, "duration": 260, "velocity": 100}, {"time": 216481, "pitch": 64, "duration": 250, "velocity": 110}, {"time": 216960, "pitch": 56, "duration": 299, "velocity": 100}, {"time": 216960, "pitch": 59, "duration": 309, "velocity": 100}, {"time": 216960, "pitch": 64, "duration": 299, "velocity": 110}, {"time": 217199, "pitch": 37, "duration": 100, "velocity": 90}, {"time": 217438, "pitch": 37, "duration": 229, "velocity": 90}, {"time": 217438, "pitch": 56, "duration": 568, "velocity": 100}, {"time": 217438, "pitch": 59, "duration": 558, "velocity": 100}, {"time": 217438, "pitch": 64, "duration": 578, "velocity": 110}, {"time": 217677, "pitch": 40, "duration": 230, "velocity": 90}, {"time": 217917, "pitch": 41, "duration": 229, "velocity": 90}, {"time": 218156, "pitch": 42, "duration": 708, "velocity": 90}, {"time": 218156, "pitch": 58, "duration": 280, "velocity": 100}, {"time": 218156, "pitch": 61, "duration": 280, "velocity": 100}, {"time": 218156, "pitch": 64, "duration": 280, "velocity": 110}, {"time": 218640, "pitch": 58, "duration": 61, "velocity": 100}, {"time": 218640, "pitch": 61, "duration": 61, "velocity": 100}, {"time": 218640, "pitch": 64, "duration": 51, "velocity": 110}, {"time": 218885, "pitch": 58, "duration": 328, "velocity": 100}, {"time": 218885, "pitch": 61, "duration": 309, "velocity": 100}, {"time": 218885, "pitch": 64, "duration": 309, "velocity": 110}, {"time": 219124, "pitch": 42, "duration": 80, "velocity": 90}, {"time": 219363, "pitch": 42, "duration": 538, "velocity": 90}, {"time": 219363, "pitch": 58, "duration": 259, "velocity": 100}, {"time": 219363, "pitch": 61, "duration": 249, "velocity": 100}, {"time": 219363, "pitch": 64, "duration": 259, "velocity": 110}, {"time": 219841, "pitch": 58, "duration": 309, "velocity": 100}, {"time": 219841, "pitch": 61, "duration": 309, "velocity": 100}, {"time": 219841, "pitch": 64, "duration": 299, "velocity": 110}, {"time": 220081, "pitch": 42, "duration": 249, "velocity": 90}, {"time": 220320, "pitch": 35, "duration": 478, "velocity": 90}, {"time": 220320, "pitch": 57, "duration": 269, "velocity": 100}, {"time": 220320, "pitch": 62, "duration": 269, "velocity": 100}, {"time": 220320, "pitch": 66, "duration": 269, "velocity": 110}, {"time": 220798, "pitch": 57, "duration": 598, "velocity": 100}, {"time": 220798, "pitch": 62, "duration": 598, "velocity": 100}, {"time": 220798, "pitch": 66, "duration": 598, "velocity": 110}, {"time": 221037, "pitch": 35, "duration": 80, "velocity": 90}, {"time": 221277, "pitch": 35, "duration": 249, "velocity": 90}, {"time": 221516, "pitch": 57, "duration": 300, "velocity": 100}, {"time": 221516, "pitch": 62, "duration": 310, "velocity": 100}, {"time": 221516, "pitch": 66, "duration": 300, "velocity": 110}, {"time": 221755, "pitch": 35, "duration": 122, "velocity": 90}, {"time": 222000, "pitch": 40, "duration": 773, "velocity": 90}, {"time": 222000, "pitch": 57, "duration": 304, "velocity": 100}, {"time": 222000, "pitch": 62, "duration": 304, "velocity": 100}, {"time": 222000, "pitch": 66, "duration": 294, "velocity": 110}, {"time": 222484, "pitch": 57, "duration": 50, "velocity": 100}, {"time": 222484, "pitch": 62, "duration": 60, "velocity": 100}, {"time": 222484, "pitch": 66, "duration": 60, "velocity": 110}, {"time": 222723, "pitch": 57, "duration": 319, "velocity": 100}, {"time": 222723, "pitch": 62, "duration": 339, "velocity": 100}, {"time": 222723, "pitch": 66, "duration": 339, "velocity": 110}, {"time": 222962, "pitch": 40, "duration": 60, "velocity": 90}, {"time": 223201, "pitch": 40, "duration": 668, "velocity": 90}, {"time": 223201, "pitch": 57, "duration": 210, "velocity": 100}, {"time": 223201, "pitch": 62, "duration": 230, "velocity": 100}, {"time": 223201, "pitch": 66, "duration": 230, "velocity": 110}, {"time": 223680, "pitch": 57, "duration": 199, "velocity": 100}, {"time": 223680, "pitch": 62, "duration": 219, "velocity": 100}, {"time": 223680, "pitch": 66, "duration": 219, "velocity": 110}, {"time": 224158, "pitch": 45, "duration": 489, "velocity": 90}, {"time": 224158, "pitch": 52, "duration": 299, "velocity": 100}, {"time": 224158, "pitch": 57, "duration": 299, "velocity": 100}, {"time": 224158, "pitch": 61, "duration": 289, "velocity": 110}, {"time": 224637, "pitch": 52, "duration": 611, "velocity": 100}, {"time": 224637, "pitch": 57, "duration": 621, "velocity": 100}, {"time": 224637, "pitch": 61, "duration": 600, "velocity": 110}, {"time": 224876, "pitch": 45, "duration": 99, "velocity": 90}, {"time": 225115, "pitch": 45, "duration": 275, "velocity": 90}, {"time": 225360, "pitch": 52, "duration": 294, "velocity": 100}, {"time": 225360, "pitch": 57, "duration": 324, "velocity": 100}, {"time": 225360, "pitch": 61, "duration": 314, "velocity": 110}, {"time": 225605, "pitch": 45, "duration": 149, "velocity": 90}, {"time": 225844, "pitch": 40, "duration": 767, "velocity": 90}, {"time": 225844, "pitch": 54, "duration": 319, "velocity": 100}, {"time": 225844, "pitch": 57, "duration": 309, "velocity": 100}, {"time": 225844, "pitch": 62, "duration": 299, "velocity": 110}, {"time": 226322, "pitch": 54, "duration": 70, "velocity": 100}, {"time": 226322, "pitch": 57, "duration": 50, "velocity": 100}, {"time": 226322, "pitch": 62, "duration": 50, "velocity": 110}, {"time": 226561, "pitch": 54, "duration": 309, "velocity": 100}, {"time": 226561, "pitch": 57, "duration": 309, "velocity": 100}, {"time": 226561, "pitch": 62, "duration": 289, "velocity": 110}, {"time": 226801, "pitch": 40, "duration": 99, "velocity": 90}, {"time": 227040, "pitch": 40, "duration": 438, "velocity": 90}, {"time": 227040, "pitch": 54, "duration": 209, "velocity": 100}, {"time": 227040, "pitch": 57, "duration": 199, "velocity": 100}, {"time": 227040, "pitch": 62, "duration": 179, "velocity": 110}, {"time": 227518, "pitch": 54, "duration": 299, "velocity": 100}, {"time": 227518, "pitch": 57, "duration": 299, "velocity": 100}, {"time": 227518, "pitch": 62, "duration": 269, "velocity": 110}, {"time": 227757, "pitch": 40, "duration": 130, "velocity": 90}, {"time": 227997, "pitch": 45, "duration": 438, "velocity": 90}, {"time": 227997, "pitch": 52, "duration": 219, "velocity": 100}, {"time": 227997, "pitch": 57, "duration": 239, "velocity": 100}, {"time": 227997, "pitch": 61, "duration": 239, "velocity": 110}, {"time": 228475, "pitch": 52, "duration": 539, "velocity": 100}, {"time": 228475, "pitch": 57, "duration": 529, "velocity": 100}, {"time": 228475, "pitch": 61, "duration": 519, "velocity": 110}, {"time": 228720, "pitch": 45, "duration": 81, "velocity": 90}, {"time": 228965, "pitch": 45, "duration": 239, "velocity": 90}, {"time": 229204, "pitch": 52, "duration": 299, "velocity": 100}, {"time": 229204, "pitch": 57, "duration": 329, "velocity": 100}, {"time": 229204, "pitch": 61, "duration": 329, "velocity": 110}, {"time": 229443, "pitch": 45, "duration": 159, "velocity": 90}, {"time": 229682, "pitch": 40, "duration": 748, "velocity": 90}, {"time": 229682, "pitch": 54, "duration": 309, "velocity": 100}, {"time": 229682, "pitch": 57, "duration": 299, "velocity": 100}, {"time": 229682, "pitch": 62, "duration": 299, "velocity": 110}, {"time": 230161, "pitch": 54, "duration": 59, "velocity": 100}, {"time": 230161, "pitch": 57, "duration": 59, "velocity": 100}, {"time": 230161, "pitch": 62, "duration": 49, "velocity": 110}, {"time": 230400, "pitch": 54, "duration": 329, "velocity": 100}, {"time": 230400, "pitch": 57, "duration": 329, "velocity": 100}, {"time": 230400, "pitch": 62, "duration": 309, "velocity": 110}, {"time": 230639, "pitch": 40, "duration": 90, "velocity": 90}, {"time": 230878, "pitch": 40, "duration": 429, "velocity": 90}, {"time": 230878, "pitch": 54, "duration": 229, "velocity": 100}, {"time": 230878, "pitch": 57, "duration": 229, "velocity": 100}, {"time": 230878, "pitch": 62, "duration": 209, "velocity": 110}, {"time": 231357, "pitch": 54, "duration": 299, "velocity": 100}, {"time": 231357, "pitch": 57, "duration": 299, "velocity": 100}, {"time": 231357, "pitch": 62, "duration": 269, "velocity": 110}, {"time": 231596, "pitch": 40, "duration": 159, "velocity": 90}, {"time": 231835, "pitch": 45, "duration": 449, "velocity": 90}, {"time": 231835, "pitch": 52, "duration": 245, "velocity": 100}, {"time": 231835, "pitch": 57, "duration": 275, "velocity": 100}, {"time": 231835, "pitch": 61, "duration": 255, "velocity": 110}, {"time": 232325, "pitch": 52, "duration": 478, "velocity": 100}, {"time": 232325, "pitch": 57, "duration": 488, "velocity": 100}, {"time": 232325, "pitch": 61, "duration": 478, "velocity": 110}, {"time": 232564, "pitch": 45, "duration": 79, "velocity": 90}, {"time": 232803, "pitch": 45, "duration": 209, "velocity": 90}, {"time": 233042, "pitch": 52, "duration": 289, "velocity": 100}, {"time": 233042, "pitch": 57, "duration": 339, "velocity": 100}, {"time": 233042, "pitch": 61, "duration": 329, "velocity": 110}, {"time": 233281, "pitch": 45, "duration": 110, "velocity": 90}, {"time": 233521, "pitch": 40, "duration": 747, "velocity": 90}, {"time": 233521, "pitch": 54, "duration": 299, "velocity": 100}, {"time": 233521, "pitch": 57, "duration": 289, "velocity": 100}, {"time": 233521, "pitch": 62, "duration": 289, "velocity": 110}, {"time": 233999, "pitch": 54, "duration": 80, "velocity": 100}, {"time": 233999, "pitch": 57, "duration": 70, "velocity": 100}, {"time": 233999, "pitch": 62, "duration": 90, "velocity": 110}, {"time": 234238, "pitch": 54, "duration": 309, "velocity": 100}, {"time": 234238, "pitch": 57, "duration": 299, "velocity": 100}, {"time": 234238, "pitch": 62, "duration": 289, "velocity": 110}, {"time": 234477, "pitch": 40, "duration": 90, "velocity": 90}, {"time": 234717, "pitch": 40, "duration": 418, "velocity": 90}, {"time": 234717, "pitch": 54, "duration": 199, "velocity": 100}, {"time": 234717, "pitch": 57, "duration": 199, "velocity": 100}, {"time": 234717, "pitch": 62, "duration": 189, "velocity": 110}, {"time": 235195, "pitch": 54, "duration": 306, "velocity": 100}, {"time": 235195, "pitch": 57, "duration": 316, "velocity": 100}, {"time": 235195, "pitch": 62, "duration": 296, "velocity": 110}, {"time": 235440, "pitch": 40, "duration": 163, "velocity": 90}, {"time": 235685, "pitch": 45, "duration": 448, "velocity": 90}, {"time": 235685, "pitch": 52, "duration": 229, "velocity": 100}, {"time": 235685, "pitch": 57, "duration": 259, "velocity": 100}, {"time": 235685, "pitch": 61, "duration": 259, "velocity": 110}, {"time": 236163, "pitch": 52, "duration": 518, "velocity": 100}, {"time": 236163, "pitch": 57, "duration": 538, "velocity": 100}, {"time": 236163, "pitch": 61, "duration": 518, "velocity": 110}, {"time": 236402, "pitch": 45, "duration": 90, "velocity": 90}, {"time": 236641, "pitch": 45, "duration": 230, "velocity": 90}, {"time": 236881, "pitch": 52, "duration": 348, "velocity": 100}, {"time": 236881, "pitch": 57, "duration": 368, "velocity": 100}, {"time": 236881, "pitch": 61, "duration": 338, "velocity": 110}, {"time": 237120, "pitch": 45, "duration": 129, "velocity": 90}, {"time": 237359, "pitch": 40, "duration": 149, "velocity": 90}, {"time": 237359, "pitch": 50, "duration": 130, "velocity": 100}, {"time": 237359, "pitch": 56, "duration": 130, "velocity": 100}, {"time": 237359, "pitch": 61, "duration": 139, "velocity": 110}, {"time": 238077, "pitch": 40, "duration": 1157, "velocity": 90}, {"time": 238077, "pitch": 50, "duration": 1147, "velocity": 100}, {"time": 238077, "pitch": 56, "duration": 1147, "velocity": 100}, {"time": 238077, "pitch": 61, "duration": 1167, "velocity": 110}, {"time": 239284, "pitch": 46, "duration": 2103, "velocity": 90}, {"time": 239284, "pitch": 55, "duration": 2093, "velocity": 100}, {"time": 239284, "pitch": 60, "duration": 2093, "velocity": 100}, {"time": 239284, "pitch": 65, "duration": 2113, "velocity": 110}, {"time": 241437, "pitch": 45, "duration": 7666, "velocity": 90}, {"time": 241437, "pitch": 54, "duration": 7666, "velocity": 100}, {"time": 241437, "pitch": 59, "duration": 7666, "velocity": 100}, {"time": 241437, "pitch": 64, "duration": 7666, "velocity": 110}, {"time": 1442, "pitch": 33, "duration": 468, "velocity": 110}, {"time": 1920, "pitch": 33, "duration": 10, "velocity": 80}, {"time": 2159, "pitch": 33, "duration": 229, "velocity": 110}, {"time": 2398, "pitch": 33, "duration": 230, "velocity": 110}, {"time": 2638, "pitch": 25, "duration": 229, "velocity": 110}, {"time": 2877, "pitch": 26, "duration": 229, "velocity": 110}, {"time": 3116, "pitch": 28, "duration": 719, "velocity": 110}, {"time": 3845, "pitch": 28, "duration": 10, "velocity": 80}, {"time": 4084, "pitch": 28, "duration": 229, "velocity": 110}, {"time": 4323, "pitch": 28, "duration": 229, "velocity": 110}, {"time": 4562, "pitch": 30, "duration": 230, "velocity": 110}, {"time": 4802, "pitch": 33, "duration": 229, "velocity": 110}, {"time": 5041, "pitch": 30, "duration": 229, "velocity": 110}, {"time": 5280, "pitch": 33, "duration": 468, "velocity": 110}, {"time": 5758, "pitch": 33, "duration": 10, "velocity": 80}, {"time": 5998, "pitch": 33, "duration": 229, "velocity": 110}, {"time": 6237, "pitch": 33, "duration": 229, "velocity": 110}, {"time": 6476, "pitch": 25, "duration": 229, "velocity": 110}, {"time": 6715, "pitch": 26, "duration": 235, "velocity": 110}, {"time": 6960, "pitch": 28, "duration": 713, "velocity": 110}, {"time": 7683, "pitch": 28, "duration": 10, "velocity": 80}, {"time": 7922, "pitch": 28, "duration": 230, "velocity": 110}, {"time": 8162, "pitch": 30, "duration": 229, "velocity": 110}, {"time": 8401, "pitch": 33, "duration": 229, "velocity": 110}, {"time": 8640, "pitch": 30, "duration": 229, "velocity": 110}, {"time": 8879, "pitch": 28, "duration": 229, "velocity": 110}, {"time": 9118, "pitch": 33, "duration": 469, "velocity": 110}, {"time": 9597, "pitch": 33, "duration": 10, "velocity": 80}, {"time": 9836, "pitch": 33, "duration": 229, "velocity": 110}, {"time": 10075, "pitch": 33, "duration": 235, "velocity": 110}, {"time": 10320, "pitch": 25, "duration": 235, "velocity": 110}, {"time": 10565, "pitch": 26, "duration": 229, "velocity": 110}, {"time": 10804, "pitch": 28, "duration": 708, "velocity": 110}, {"time": 11522, "pitch": 28, "duration": 10, "velocity": 80}, {"time": 11761, "pitch": 28, "duration": 229, "velocity": 110}, {"time": 12000, "pitch": 28, "duration": 229, "velocity": 110}, {"time": 12239, "pitch": 30, "duration": 229, "velocity": 110}, {"time": 12478, "pitch": 33, "duration": 230, "velocity": 110}, {"time": 12718, "pitch": 30, "duration": 229, "velocity": 110}, {"time": 12957, "pitch": 33, "duration": 468, "velocity": 110}, {"time": 13435, "pitch": 33, "duration": 10, "velocity": 80}, {"time": 13680, "pitch": 33, "duration": 235, "velocity": 110}, {"time": 13925, "pitch": 33, "duration": 229, "velocity": 110}, {"time": 14164, "pitch": 25, "duration": 229, "velocity": 110}, {"time": 14403, "pitch": 26, "duration": 229, "velocity": 110}, {"time": 14642, "pitch": 28, "duration": 230, "velocity": 110}, {"time": 15360, "pitch": 28, "duration": 1425, "velocity": 110}, {"time": 16795, "pitch": 26, "duration": 480, "velocity": 110}, {"time": 17285, "pitch": 26, "duration": 10, "velocity": 80}, {"time": 17524, "pitch": 33, "duration": 110, "velocity": 110}, {"time": 17763, "pitch": 33, "duration": 469, "velocity": 110}, {"time": 18242, "pitch": 26, "duration": 109, "velocity": 110}, {"time": 18481, "pitch": 25, "duration": 707, "velocity": 110}, {"time": 19198, "pitch": 25, "duration": 10, "velocity": 80}, {"time": 19438, "pitch": 32, "duration": 109, "velocity": 110}, {"time": 19677, "pitch": 32, "duration": 468, "velocity": 110}, {"time": 20155, "pitch": 37, "duration": 235, "velocity": 110}, {"time": 20400, "pitch": 32, "duration": 235, "velocity": 110}, {"time": 20645, "pitch": 35, "duration": 438, "velocity": 110}, {"time": 21123, "pitch": 35, "duration": 110, "velocity": 110}, {"time": 21362, "pitch": 28, "duration": 439, "velocity": 110}, {"time": 21841, "pitch": 28, "duration": 468, "velocity": 110}, {"time": 22319, "pitch": 33, "duration": 708, "velocity": 110}, {"time": 23037, "pitch": 33, "duration": 10, "velocity": 80}, {"time": 23276, "pitch": 28, "duration": 110, "velocity": 110}, {"time": 23515, "pitch": 28, "duration": 480, "velocity": 110}, {"time": 24005, "pitch": 33, "duration": 229, "velocity": 110}, {"time": 24244, "pitch": 28, "duration": 229, "velocity": 110}, {"time": 24483, "pitch": 26, "duration": 469, "velocity": 110}, {"time": 24962, "pitch": 26, "duration": 10, "velocity": 80}, {"time": 25201, "pitch": 33, "duration": 109, "velocity": 110}, {"time": 25440, "pitch": 33, "duration": 468, "velocity": 110}, {"time": 25918, "pitch": 26, "duration": 110, "velocity": 110}, {"time": 26158, "pitch": 25, "duration": 707, "velocity": 110}, {"time": 26875, "pitch": 25, "duration": 10, "velocity": 80}, {"time": 27120, "pitch": 32, "duration": 112, "velocity": 110}, {"time": 27365, "pitch": 32, "duration": 468, "velocity": 110}, {"time": 27843, "pitch": 37, "duration": 229, "velocity": 110}, {"time": 28082, "pitch": 32, "duration": 230, "velocity": 110}, {"time": 28322, "pitch": 35, "duration": 438, "velocity": 110}, {"time": 28800, "pitch": 35, "duration": 110, "velocity": 110}, {"time": 29039, "pitch": 28, "duration": 439, "velocity": 110}, {"time": 29518, "pitch": 28, "duration": 468, "velocity": 110}, {"time": 29996, "pitch": 33, "duration": 719, "velocity": 110}, {"time": 30725, "pitch": 33, "duration": 10, "velocity": 80}, {"time": 30964, "pitch": 28, "duration": 110, "velocity": 110}, {"time": 31203, "pitch": 33, "duration": 469, "velocity": 110}, {"time": 31682, "pitch": 33, "duration": 229, "velocity": 110}, {"time": 31921, "pitch": 34, "duration": 229, "velocity": 110}, {"time": 32160, "pitch": 35, "duration": 468, "velocity": 110}, {"time": 32638, "pitch": 35, "duration": 10, "velocity": 80}, {"time": 32878, "pitch": 30, "duration": 229, "velocity": 95}, {"time": 33117, "pitch": 35, "duration": 468, "velocity": 110}, {"time": 33595, "pitch": 35, "duration": 10, "velocity": 80}, {"time": 33840, "pitch": 30, "duration": 235, "velocity": 95}, {"time": 34085, "pitch": 35, "duration": 468, "velocity": 110}, {"time": 34563, "pitch": 35, "duration": 10, "velocity": 80}, {"time": 34802, "pitch": 30, "duration": 230, "velocity": 95}, {"time": 35042, "pitch": 35, "duration": 468, "velocity": 110}, {"time": 35520, "pitch": 30, "duration": 229, "velocity": 105}, {"time": 35759, "pitch": 35, "duration": 229, "velocity": 100}, {"time": 35998, "pitch": 37, "duration": 469, "velocity": 110}, {"time": 36477, "pitch": 37, "duration": 10, "velocity": 80}, {"time": 36716, "pitch": 32, "duration": 229, "velocity": 95}, {"time": 36955, "pitch": 37, "duration": 480, "velocity": 110}, {"time": 37445, "pitch": 37, "duration": 10, "velocity": 80}, {"time": 37684, "pitch": 32, "duration": 229, "velocity": 95}, {"time": 37923, "pitch": 37, "duration": 469, "velocity": 110}, {"time": 38402, "pitch": 37, "duration": 10, "velocity": 80}, {"time": 38641, "pitch": 32, "duration": 229, "velocity": 95}, {"time": 38880, "pitch": 37, "duration": 468, "velocity": 110}, {"time": 39358, "pitch": 32, "duration": 230, "velocity": 105}, {"time": 39598, "pitch": 25, "duration": 229, "velocity": 100}, {"time": 39837, "pitch": 35, "duration": 468, "velocity": 110}, {"time": 40315, "pitch": 35, "duration": 10, "velocity": 80}, {"time": 40560, "pitch": 30, "duration": 235, "velocity": 95}, {"time": 40805, "pitch": 35, "duration": 468, "velocity": 110}, {"time": 41283, "pitch": 35, "duration": 10, "velocity": 80}, {"time": 41522, "pitch": 30, "duration": 230, "velocity": 95}, {"time": 41762, "pitch": 35, "duration": 468, "velocity": 110}, {"time": 42240, "pitch": 35, "duration": 10, "velocity": 80}, {"time": 42479, "pitch": 30, "duration": 229, "velocity": 95}, {"time": 42718, "pitch": 35, "duration": 469, "velocity": 110}, {"time": 43197, "pitch": 42, "duration": 229, "velocity": 105}, {"time": 43436, "pitch": 35, "duration": 229, "velocity": 100}, {"time": 43675, "pitch": 28, "duration": 480, "velocity": 110}, {"time": 44165, "pitch": 35, "duration": 229, "velocity": 95}, {"time": 44404, "pitch": 40, "duration": 468, "velocity": 110}, {"time": 44882, "pitch": 40, "duration": 230, "velocity": 95}, {"time": 45122, "pitch": 35, "duration": 229, "velocity": 110}, {"time": 45361, "pitch": 28, "duration": 438, "velocity": 110}, {"time": 45839, "pitch": 28, "duration": 349, "velocity": 110}, {"time": 46318, "pitch": 28, "duration": 348, "velocity": 110}, {"time": 46796, "pitch": 28, "duration": 229, "velocity": 110}, {"time": 47035, "pitch": 35, "duration": 235, "velocity": 110}, {"time": 47280, "pitch": 40, "duration": 235, "velocity": 110}, {"time": 47525, "pitch": 26, "duration": 468, "velocity": 110}, {"time": 48003, "pitch": 26, "duration": 10, "velocity": 80}, {"time": 48242, "pitch": 33, "duration": 110, "velocity": 110}, {"time": 48482, "pitch": 33, "duration": 468, "velocity": 110}, {"time": 48960, "pitch": 26, "duration": 110, "velocity": 110}, {"time": 49199, "pitch": 25, "duration": 708, "velocity": 110}, {"time": 49917, "pitch": 25, "duration": 10, "velocity": 80}, {"time": 50156, "pitch": 32, "duration": 110, "velocity": 110}, {"time": 50395, "pitch": 32, "duration": 480, "velocity": 110}, {"time": 50885, "pitch": 37, "duration": 229, "velocity": 110}, {"time": 51124, "pitch": 32, "duration": 229, "velocity": 110}, {"time": 51363, "pitch": 35, "duration": 439, "velocity": 110}, {"time": 51842, "pitch": 35, "duration": 109, "velocity": 110}, {"time": 52081, "pitch": 28, "duration": 438, "velocity": 110}, {"time": 52559, "pitch": 28, "duration": 469, "velocity": 110}, {"time": 53038, "pitch": 33, "duration": 707, "velocity": 110}, {"time": 53755, "pitch": 33, "duration": 10, "velocity": 80}, {"time": 54000, "pitch": 28, "duration": 112, "velocity": 110}, {"time": 54245, "pitch": 28, "duration": 468, "velocity": 110}, {"time": 54723, "pitch": 33, "duration": 229, "velocity": 110}, {"time": 54962, "pitch": 28, "duration": 230, "velocity": 110}, {"time": 55202, "pitch": 26, "duration": 468, "velocity": 110}, {"time": 55680, "pitch": 26, "duration": 10, "velocity": 80}, {"time": 55919, "pitch": 33, "duration": 110, "velocity": 110}, {"time": 56158, "pitch": 33, "duration": 469, "velocity": 110}, {"time": 56637, "pitch": 26, "duration": 109, "velocity": 110}, {"time": 56876, "pitch": 25, "duration": 719, "velocity": 110}, {"time": 57605, "pitch": 25, "duration": 10, "velocity": 80}, {"time": 57844, "pitch": 32, "duration": 110, "velocity": 110}, {"time": 58083, "pitch": 32, "duration": 469, "velocity": 110}, {"time": 58562, "pitch": 37, "duration": 229, "velocity": 110}, {"time": 58801, "pitch": 32, "duration": 229, "velocity": 110}, {"time": 59040, "pitch": 35, "duration": 438, "velocity": 110}, {"time": 59518, "pitch": 35, "duration": 110, "velocity": 110}, {"time": 59758, "pitch": 28, "duration": 438, "velocity": 110}, {"time": 60236, "pitch": 28, "duration": 474, "velocity": 110}, {"time": 60720, "pitch": 33, "duration": 713, "velocity": 110}, {"time": 61443, "pitch": 33, "duration": 10, "velocity": 80}, {"time": 61682, "pitch": 28, "duration": 110, "velocity": 110}, {"time": 61922, "pitch": 33, "duration": 468, "velocity": 110}, {"time": 62400, "pitch": 33, "duration": 229, "velocity": 110}, {"time": 62639, "pitch": 34, "duration": 229, "velocity": 110}, {"time": 62878, "pitch": 35, "duration": 469, "velocity": 110}, {"time": 63357, "pitch": 35, "duration": 10, "velocity": 80}, {"time": 63596, "pitch": 30, "duration": 229, "velocity": 95}, {"time": 63835, "pitch": 35, "duration": 480, "velocity": 110}, {"time": 64325, "pitch": 35, "duration": 10, "velocity": 80}, {"time": 64564, "pitch": 30, "duration": 229, "velocity": 95}, {"time": 64803, "pitch": 35, "duration": 469, "velocity": 110}, {"time": 65282, "pitch": 35, "duration": 9, "velocity": 80}, {"time": 65521, "pitch": 30, "duration": 229, "velocity": 95}, {"time": 65760, "pitch": 35, "duration": 468, "velocity": 110}, {"time": 66238, "pitch": 30, "duration": 230, "velocity": 105}, {"time": 66478, "pitch": 35, "duration": 229, "velocity": 100}, {"time": 66717, "pitch": 37, "duration": 468, "velocity": 110}, {"time": 67195, "pitch": 37, "duration": 10, "velocity": 80}, {"time": 67440, "pitch": 32, "duration": 235, "velocity": 95}, {"time": 67685, "pitch": 37, "duration": 468, "velocity": 110}, {"time": 68163, "pitch": 37, "duration": 10, "velocity": 80}, {"time": 68402, "pitch": 32, "duration": 230, "velocity": 95}, {"time": 68642, "pitch": 37, "duration": 468, "velocity": 110}, {"time": 69120, "pitch": 37, "duration": 10, "velocity": 80}, {"time": 69359, "pitch": 32, "duration": 229, "velocity": 95}, {"time": 69598, "pitch": 37, "duration": 469, "velocity": 110}, {"time": 70077, "pitch": 32, "duration": 229, "velocity": 105}, {"time": 70316, "pitch": 25, "duration": 229, "velocity": 100}, {"time": 70555, "pitch": 35, "duration": 480, "velocity": 110}, {"time": 71045, "pitch": 35, "duration": 10, "velocity": 80}, {"time": 71284, "pitch": 30, "duration": 229, "velocity": 95}, {"time": 71523, "pitch": 35, "duration": 469, "velocity": 110}, {"time": 72002, "pitch": 35, "duration": 9, "velocity": 80}, {"time": 72241, "pitch": 30, "duration": 229, "velocity": 95}, {"time": 72480, "pitch": 35, "duration": 468, "velocity": 110}, {"time": 72958, "pitch": 35, "duration": 10, "velocity": 80}, {"time": 73198, "pitch": 30, "duration": 229, "velocity": 95}, {"time": 73437, "pitch": 35, "duration": 468, "velocity": 110}, {"time": 73915, "pitch": 42, "duration": 235, "velocity": 105}, {"time": 74160, "pitch": 35, "duration": 235, "velocity": 100}, {"time": 74405, "pitch": 26, "duration": 468, "velocity": 110}, {"time": 74883, "pitch": 33, "duration": 229, "velocity": 95}, {"time": 75122, "pitch": 38, "duration": 469, "velocity": 110}, {"time": 75601, "pitch": 33, "duration": 229, "velocity": 95}, {"time": 75840, "pitch": 26, "duration": 229, "velocity": 110}, {"time": 76079, "pitch": 28, "duration": 439, "velocity": 110}, {"time": 76558, "pitch": 28, "duration": 348, "velocity": 110}, {"time": 77036, "pitch": 28, "duration": 351, "velocity": 110}, {"time": 77520, "pitch": 28, "duration": 235, "velocity": 110}, {"time": 77765, "pitch": 30, "duration": 229, "velocity": 110}, {"time": 78004, "pitch": 32, "duration": 229, "velocity": 110}, {"time": 78243, "pitch": 33, "duration": 469, "velocity": 110}, {"time": 78722, "pitch": 33, "duration": 9, "velocity": 80}, {"time": 78961, "pitch": 33, "duration": 229, "velocity": 110}, {"time": 79200, "pitch": 33, "duration": 229, "velocity": 110}, {"time": 79439, "pitch": 28, "duration": 229, "velocity": 110}, {"time": 79678, "pitch": 33, "duration": 230, "velocity": 110}, {"time": 79918, "pitch": 34, "duration": 707, "velocity": 110}, {"time": 80635, "pitch": 34, "duration": 10, "velocity": 80}, {"time": 80880, "pitch": 34, "duration": 235, "velocity": 110}, {"time": 81125, "pitch": 34, "duration": 468, "velocity": 110}, {"time": 81603, "pitch": 30, "duration": 469, "velocity": 110}, {"time": 82082, "pitch": 35, "duration": 468, "velocity": 110}, {"time": 82560, "pitch": 35, "duration": 10, "velocity": 80}, {"time": 82799, "pitch": 30, "duration": 229, "velocity": 110}, {"time": 83038, "pitch": 35, "duration": 230, "velocity": 110}, {"time": 83278, "pitch": 36, "duration": 229, "velocity": 110}, {"time": 83517, "pitch": 37, "duration": 229, "velocity": 110}, {"time": 83756, "pitch": 38, "duration": 719, "velocity": 110}, {"time": 84485, "pitch": 38, "duration": 10, "velocity": 80}, {"time": 84724, "pitch": 33, "duration": 229, "velocity": 110}, {"time": 84963, "pitch": 38, "duration": 469, "velocity": 110}, {"time": 85442, "pitch": 40, "duration": 229, "velocity": 110}, {"time": 85681, "pitch": 38, "duration": 229, "velocity": 110}, {"time": 85920, "pitch": 37, "duration": 468, "velocity": 110}, {"time": 86398, "pitch": 37, "duration": 10, "velocity": 80}, {"time": 86638, "pitch": 32, "duration": 229, "velocity": 110}, {"time": 86877, "pitch": 37, "duration": 229, "velocity": 110}, {"time": 87116, "pitch": 28, "duration": 229, "velocity": 110}, {"time": 87355, "pitch": 29, "duration": 235, "velocity": 110}, {"time": 87600, "pitch": 30, "duration": 713, "velocity": 110}, {"time": 88323, "pitch": 30, "duration": 10, "velocity": 80}, {"time": 88562, "pitch": 25, "duration": 230, "velocity": 110}, {"time": 88802, "pitch": 30, "duration": 229, "velocity": 110}, {"time": 89041, "pitch": 32, "duration": 229, "velocity": 110}, {"time": 89280, "pitch": 33, "duration": 229, "velocity": 110}, {"time": 89519, "pitch": 34, "duration": 229, "velocity": 110}, {"time": 89758, "pitch": 35, "duration": 469, "velocity": 110}, {"time": 90237, "pitch": 35, "duration": 10, "velocity": 80}, {"time": 90476, "pitch": 35, "duration": 229, "velocity": 110}, {"time": 90715, "pitch": 35, "duration": 235, "velocity": 110}, {"time": 90960, "pitch": 30, "duration": 235, "velocity": 110}, {"time": 91205, "pitch": 29, "duration": 229, "velocity": 110}, {"time": 91444, "pitch": 28, "duration": 468, "velocity": 110}, {"time": 91922, "pitch": 28, "duration": 230, "velocity": 110}, {"time": 92162, "pitch": 35, "duration": 229, "velocity": 110}, {"time": 92401, "pitch": 40, "duration": 468, "velocity": 110}, {"time": 92879, "pitch": 35, "duration": 229, "velocity": 110}, {"time": 93118, "pitch": 28, "duration": 469, "velocity": 110}, {"time": 93597, "pitch": 33, "duration": 468, "velocity": 110}, {"time": 94075, "pitch": 33, "duration": 10, "velocity": 80}, {"time": 94320, "pitch": 33, "duration": 235, "velocity": 110}, {"time": 94565, "pitch": 33, "duration": 229, "velocity": 110}, {"time": 94804, "pitch": 25, "duration": 229, "velocity": 110}, {"time": 95043, "pitch": 26, "duration": 229, "velocity": 110}, {"time": 95282, "pitch": 28, "duration": 708, "velocity": 110}, {"time": 96000, "pitch": 28, "duration": 10, "velocity": 80}, {"time": 96239, "pitch": 28, "duration": 229, "velocity": 110}, {"time": 96478, "pitch": 28, "duration": 230, "velocity": 110}, {"time": 96718, "pitch": 30, "duration": 229, "velocity": 110}, {"time": 96957, "pitch": 33, "duration": 229, "velocity": 110}, {"time": 97196, "pitch": 30, "duration": 229, "velocity": 110}, {"time": 97435, "pitch": 33, "duration": 480, "velocity": 110}, {"time": 97925, "pitch": 33, "duration": 10, "velocity": 80}, {"time": 98164, "pitch": 33, "duration": 229, "velocity": 110}, {"time": 98403, "pitch": 33, "duration": 229, "velocity": 110}, {"time": 98642, "pitch": 25, "duration": 230, "velocity": 110}, {"time": 98881, "pitch": 26, "duration": 230, "velocity": 110}, {"time": 99121, "pitch": 28, "duration": 229, "velocity": 110}, {"time": 99838, "pitch": 28, "duration": 1437, "velocity": 110}, {"time": 101285, "pitch": 26, "duration": 468, "velocity": 110}, {"time": 101763, "pitch": 26, "duration": 10, "velocity": 80}, {"time": 102002, "pitch": 33, "duration": 110, "velocity": 110}, {"time": 102241, "pitch": 33, "duration": 469, "velocity": 110}, {"time": 102720, "pitch": 26, "duration": 110, "velocity": 110}, {"time": 102959, "pitch": 25, "duration": 708, "velocity": 110}, {"time": 103677, "pitch": 25, "duration": 10, "velocity": 80}, {"time": 103916, "pitch": 32, "duration": 110, "velocity": 110}, {"time": 104155, "pitch": 32, "duration": 480, "velocity": 110}, {"time": 104645, "pitch": 37, "duration": 229, "velocity": 110}, {"time": 104884, "pitch": 32, "duration": 229, "velocity": 110}, {"time": 105123, "pitch": 35, "duration": 439, "velocity": 110}, {"time": 105601, "pitch": 35, "duration": 110, "velocity": 110}, {"time": 105841, "pitch": 28, "duration": 438, "velocity": 110}, {"time": 106319, "pitch": 28, "duration": 469, "velocity": 110}, {"time": 106798, "pitch": 33, "duration": 707, "velocity": 110}, {"time": 107515, "pitch": 33, "duration": 10, "velocity": 80}, {"time": 107760, "pitch": 28, "duration": 112, "velocity": 110}, {"time": 108005, "pitch": 28, "duration": 468, "velocity": 110}, {"time": 108483, "pitch": 33, "duration": 229, "velocity": 110}, {"time": 108722, "pitch": 28, "duration": 230, "velocity": 110}, {"time": 108961, "pitch": 26, "duration": 469, "velocity": 110}, {"time": 109440, "pitch": 26, "duration": 10, "velocity": 80}, {"time": 109679, "pitch": 33, "duration": 110, "velocity": 110}, {"time": 109918, "pitch": 33, "duration": 469, "velocity": 110}, {"time": 110397, "pitch": 26, "duration": 109, "velocity": 110}, {"time": 110636, "pitch": 25, "duration": 719, "velocity": 110}, {"time": 111365, "pitch": 25, "duration": 10, "velocity": 80}, {"time": 111604, "pitch": 32, "duration": 110, "velocity": 110}, {"time": 111843, "pitch": 32, "duration": 469, "velocity": 110}, {"time": 112321, "pitch": 37, "duration": 230, "velocity": 110}, {"time": 112561, "pitch": 32, "duration": 229, "velocity": 110}, {"time": 112800, "pitch": 35, "duration": 438, "velocity": 110}, {"time": 113278, "pitch": 35, "duration": 110, "velocity": 110}, {"time": 113517, "pitch": 28, "duration": 439, "velocity": 110}, {"time": 113996, "pitch": 28, "duration": 474, "velocity": 110}, {"time": 114480, "pitch": 33, "duration": 713, "velocity": 110}, {"time": 115203, "pitch": 33, "duration": 10, "velocity": 80}, {"time": 115442, "pitch": 28, "duration": 110, "velocity": 110}, {"time": 115681, "pitch": 33, "duration": 469, "velocity": 110}, {"time": 116160, "pitch": 33, "duration": 229, "velocity": 110}, {"time": 116399, "pitch": 34, "duration": 229, "velocity": 110}, {"time": 116638, "pitch": 35, "duration": 469, "velocity": 110}, {"time": 117117, "pitch": 35, "duration": 10, "velocity": 80}, {"time": 117356, "pitch": 30, "duration": 229, "velocity": 95}, {"time": 117595, "pitch": 35, "duration": 480, "velocity": 110}, {"time": 118085, "pitch": 35, "duration": 10, "velocity": 80}, {"time": 118324, "pitch": 30, "duration": 229, "velocity": 95}, {"time": 118563, "pitch": 35, "duration": 469, "velocity": 110}, {"time": 119041, "pitch": 35, "duration": 10, "velocity": 80}, {"time": 119281, "pitch": 30, "duration": 229, "velocity": 95}, {"time": 119520, "pitch": 35, "duration": 468, "velocity": 110}, {"time": 119998, "pitch": 30, "duration": 230, "velocity": 105}, {"time": 120237, "pitch": 35, "duration": 230, "velocity": 100}, {"time": 120477, "pitch": 37, "duration": 468, "velocity": 110}, {"time": 120955, "pitch": 37, "duration": 10, "velocity": 80}, {"time": 121200, "pitch": 32, "duration": 235, "velocity": 95}, {"time": 121445, "pitch": 37, "duration": 468, "velocity": 110}, {"time": 121923, "pitch": 37, "duration": 10, "velocity": 80}, {"time": 122162, "pitch": 32, "duration": 230, "velocity": 95}, {"time": 122401, "pitch": 37, "duration": 469, "velocity": 110}, {"time": 122880, "pitch": 37, "duration": 10, "velocity": 80}, {"time": 123119, "pitch": 32, "duration": 229, "velocity": 95}, {"time": 123358, "pitch": 37, "duration": 469, "velocity": 110}, {"time": 123837, "pitch": 32, "duration": 229, "velocity": 105}, {"time": 124076, "pitch": 25, "duration": 229, "velocity": 100}, {"time": 124315, "pitch": 35, "duration": 480, "velocity": 110}, {"time": 124805, "pitch": 35, "duration": 10, "velocity": 80}, {"time": 125044, "pitch": 30, "duration": 229, "velocity": 95}, {"time": 125283, "pitch": 35, "duration": 469, "velocity": 110}, {"time": 125761, "pitch": 35, "duration": 10, "velocity": 80}, {"time": 126001, "pitch": 30, "duration": 229, "velocity": 95}, {"time": 126240, "pitch": 35, "duration": 468, "velocity": 110}, {"time": 126718, "pitch": 35, "duration": 10, "velocity": 80}, {"time": 126957, "pitch": 30, "duration": 230, "velocity": 95}, {"time": 127197, "pitch": 35, "duration": 468, "velocity": 110}, {"time": 127675, "pitch": 42, "duration": 235, "velocity": 105}, {"time": 127920, "pitch": 35, "duration": 235, "velocity": 100}, {"time": 128165, "pitch": 26, "duration": 468, "velocity": 110}, {"time": 128643, "pitch": 33, "duration": 229, "velocity": 95}, {"time": 128882, "pitch": 38, "duration": 469, "velocity": 110}, {"time": 129361, "pitch": 33, "duration": 229, "velocity": 95}, {"time": 129600, "pitch": 26, "duration": 229, "velocity": 110}, {"time": 129839, "pitch": 28, "duration": 439, "velocity": 110}, {"time": 130317, "pitch": 28, "duration": 349, "velocity": 110}, {"time": 130796, "pitch": 28, "duration": 351, "velocity": 110}, {"time": 131280, "pitch": 28, "duration": 235, "velocity": 110}, {"time": 131525, "pitch": 30, "duration": 229, "velocity": 110}, {"time": 131764, "pitch": 32, "duration": 229, "velocity": 110}, {"time": 132003, "pitch": 33, "duration": 468, "velocity": 110}, {"time": 132481, "pitch": 33, "duration": 10, "velocity": 80}, {"time": 132721, "pitch": 33, "duration": 229, "velocity": 110}, {"time": 132960, "pitch": 33, "duration": 229, "velocity": 110}, {"time": 133199, "pitch": 28, "duration": 229, "velocity": 110}, {"time": 133438, "pitch": 33, "duration": 230, "velocity": 110}, {"time": 133677, "pitch": 34, "duration": 708, "velocity": 110}, {"time": 134395, "pitch": 34, "duration": 10, "velocity": 80}, {"time": 134640, "pitch": 34, "duration": 235, "velocity": 110}, {"time": 134885, "pitch": 34, "duration": 468, "velocity": 110}, {"time": 135363, "pitch": 30, "duration": 468, "velocity": 110}, {"time": 135841, "pitch": 35, "duration": 469, "velocity": 110}, {"time": 136320, "pitch": 35, "duration": 10, "velocity": 80}, {"time": 136559, "pitch": 30, "duration": 229, "velocity": 110}, {"time": 136798, "pitch": 35, "duration": 230, "velocity": 110}, {"time": 137037, "pitch": 36, "duration": 230, "velocity": 110}, {"time": 137277, "pitch": 37, "duration": 229, "velocity": 110}, {"time": 137516, "pitch": 38, "duration": 719, "velocity": 110}, {"time": 138245, "pitch": 38, "duration": 10, "velocity": 80}, {"time": 138484, "pitch": 33, "duration": 229, "velocity": 110}, {"time": 138723, "pitch": 38, "duration": 468, "velocity": 110}, {"time": 139201, "pitch": 40, "duration": 230, "velocity": 110}, {"time": 139441, "pitch": 38, "duration": 229, "velocity": 110}, {"time": 139680, "pitch": 37, "duration": 468, "velocity": 110}, {"time": 140158, "pitch": 37, "duration": 10, "velocity": 80}, {"time": 140397, "pitch": 32, "duration": 230, "velocity": 110}, {"time": 140637, "pitch": 37, "duration": 229, "velocity": 110}, {"time": 140876, "pitch": 28, "duration": 229, "velocity": 110}, {"time": 141115, "pitch": 29, "duration": 235, "velocity": 110}, {"time": 141360, "pitch": 30, "duration": 713, "velocity": 110}, {"time": 142083, "pitch": 30, "duration": 10, "velocity": 80}, {"time": 142322, "pitch": 25, "duration": 229, "velocity": 110}, {"time": 142561, "pitch": 30, "duration": 230, "velocity": 110}, {"time": 142801, "pitch": 32, "duration": 229, "velocity": 110}, {"time": 143040, "pitch": 33, "duration": 229, "velocity": 110}, {"time": 143279, "pitch": 34, "duration": 229, "velocity": 110}, {"time": 143518, "pitch": 35, "duration": 469, "velocity": 110}, {"time": 143997, "pitch": 35, "duration": 10, "velocity": 80}, {"time": 144236, "pitch": 35, "duration": 229, "velocity": 110}, {"time": 144475, "pitch": 35, "duration": 235, "velocity": 110}, {"time": 144720, "pitch": 30, "duration": 235, "velocity": 110}, {"time": 144965, "pitch": 29, "duration": 229, "velocity": 110}, {"time": 145204, "pitch": 28, "duration": 468, "velocity": 110}, {"time": 145682, "pitch": 28, "duration": 229, "velocity": 110}, {"time": 145921, "pitch": 35, "duration": 230, "velocity": 110}, {"time": 146161, "pitch": 40, "duration": 468, "velocity": 110}, {"time": 146639, "pitch": 35, "duration": 229, "velocity": 110}, {"time": 146878, "pitch": 28, "duration": 469, "velocity": 110}, {"time": 147357, "pitch": 33, "duration": 468, "velocity": 110}, {"time": 147835, "pitch": 33, "duration": 10, "velocity": 80}, {"time": 148080, "pitch": 33, "duration": 235, "velocity": 110}, {"time": 148325, "pitch": 33, "duration": 229, "velocity": 110}, {"time": 148564, "pitch": 28, "duration": 229, "velocity": 110}, {"time": 148803, "pitch": 33, "duration": 229, "velocity": 110}, {"time": 149042, "pitch": 34, "duration": 708, "velocity": 110}, {"time": 149760, "pitch": 34, "duration": 10, "velocity": 80}, {"time": 149999, "pitch": 34, "duration": 229, "velocity": 110}, {"time": 150238, "pitch": 34, "duration": 469, "velocity": 110}, {"time": 150717, "pitch": 30, "duration": 468, "velocity": 110}, {"time": 151195, "pitch": 35, "duration": 480, "velocity": 110}, {"time": 151685, "pitch": 35, "duration": 10, "velocity": 80}, {"time": 151924, "pitch": 30, "duration": 229, "velocity": 110}, {"time": 152163, "pitch": 35, "duration": 229, "velocity": 110}, {"time": 152402, "pitch": 36, "duration": 229, "velocity": 110}, {"time": 152641, "pitch": 37, "duration": 230, "velocity": 110}, {"time": 152881, "pitch": 38, "duration": 707, "velocity": 110}, {"time": 153598, "pitch": 38, "duration": 10, "velocity": 80}, {"time": 153837, "pitch": 33, "duration": 230, "velocity": 110}, {"time": 154077, "pitch": 38, "duration": 468, "velocity": 110}, {"time": 154555, "pitch": 40, "duration": 235, "velocity": 110}, {"time": 154800, "pitch": 38, "duration": 235, "velocity": 110}, {"time": 155045, "pitch": 37, "duration": 468, "velocity": 110}, {"time": 155523, "pitch": 37, "duration": 10, "velocity": 80}, {"time": 155762, "pitch": 32, "duration": 229, "velocity": 110}, {"time": 156001, "pitch": 37, "duration": 230, "velocity": 110}, {"time": 156241, "pitch": 28, "duration": 229, "velocity": 110}, {"time": 156480, "pitch": 29, "duration": 229, "velocity": 110}, {"time": 156719, "pitch": 30, "duration": 708, "velocity": 110}, {"time": 157437, "pitch": 30, "duration": 10, "velocity": 80}, {"time": 157676, "pitch": 25, "duration": 229, "velocity": 110}, {"time": 157915, "pitch": 30, "duration": 235, "velocity": 110}, {"time": 158160, "pitch": 32, "duration": 235, "velocity": 110}, {"time": 158405, "pitch": 33, "duration": 229, "velocity": 110}, {"time": 158644, "pitch": 34, "duration": 229, "velocity": 110}, {"time": 158883, "pitch": 35, "duration": 468, "velocity": 110}, {"time": 159361, "pitch": 35, "duration": 10, "velocity": 80}, {"time": 159601, "pitch": 35, "duration": 229, "velocity": 110}, {"time": 159840, "pitch": 35, "duration": 229, "velocity": 110}, {"time": 160079, "pitch": 30, "duration": 229, "velocity": 110}, {"time": 160318, "pitch": 29, "duration": 229, "velocity": 110}, {"time": 160557, "pitch": 28, "duration": 469, "velocity": 110}, {"time": 161036, "pitch": 28, "duration": 229, "velocity": 110}, {"time": 161275, "pitch": 35, "duration": 235, "velocity": 110}, {"time": 161520, "pitch": 40, "duration": 474, "velocity": 110}, {"time": 162004, "pitch": 35, "duration": 229, "velocity": 110}, {"time": 162243, "pitch": 28, "duration": 468, "velocity": 110}, {"time": 162721, "pitch": 38, "duration": 469, "velocity": 110}, {"time": 163439, "pitch": 38, "duration": 110, "velocity": 110}, {"time": 163678, "pitch": 38, "duration": 708, "velocity": 110}, {"time": 164635, "pitch": 38, "duration": 480, "velocity": 110}, {"time": 165364, "pitch": 33, "duration": 229, "velocity": 110}, {"time": 165603, "pitch": 38, "duration": 110, "velocity": 110}, {"time": 165842, "pitch": 38, "duration": 349, "velocity": 110}, {"time": 166321, "pitch": 38, "duration": 109, "velocity": 110}, {"time": 166560, "pitch": 33, "duration": 468, "velocity": 110}, {"time": 167277, "pitch": 33, "duration": 110, "velocity": 110}, {"time": 167517, "pitch": 33, "duration": 468, "velocity": 110}, {"time": 168240, "pitch": 33, "duration": 235, "velocity": 110}, {"time": 168724, "pitch": 33, "duration": 229, "velocity": 110}, {"time": 169202, "pitch": 33, "duration": 110, "velocity": 110}, {"time": 169441, "pitch": 33, "duration": 469, "velocity": 110}, {"time": 169920, "pitch": 35, "duration": 229, "velocity": 110}, {"time": 170159, "pitch": 36, "duration": 229, "velocity": 110}, {"time": 170398, "pitch": 38, "duration": 469, "velocity": 110}, {"time": 171116, "pitch": 38, "duration": 109, "velocity": 110}, {"time": 171355, "pitch": 38, "duration": 480, "velocity": 110}, {"time": 172084, "pitch": 33, "duration": 229, "velocity": 110}, {"time": 172323, "pitch": 38, "duration": 468, "velocity": 110}, {"time": 173041, "pitch": 38, "duration": 109, "velocity": 110}, {"time": 173280, "pitch": 38, "duration": 109, "velocity": 110}, {"time": 173519, "pitch": 38, "duration": 349, "velocity": 110}, {"time": 173997, "pitch": 38, "duration": 230, "velocity": 110}, {"time": 174237, "pitch": 40, "duration": 468, "velocity": 110}, {"time": 174960, "pitch": 40, "duration": 112, "velocity": 110}, {"time": 175205, "pitch": 40, "duration": 109, "velocity": 110}, {"time": 175444, "pitch": 40, "duration": 349, "velocity": 110}, {"time": 175922, "pitch": 40, "duration": 229, "velocity": 110}, {"time": 176161, "pitch": 42, "duration": 230, "velocity": 110}, {"time": 176640, "pitch": 30, "duration": 1425, "velocity": 110}, {"time": 178075, "pitch": 35, "duration": 480, "velocity": 110}, {"time": 178565, "pitch": 35, "duration": 10, "velocity": 80}, {"time": 178804, "pitch": 30, "duration": 229, "velocity": 95}, {"time": 179043, "pitch": 35, "duration": 468, "velocity": 110}, {"time": 179521, "pitch": 35, "duration": 10, "velocity": 80}, {"time": 179761, "pitch": 30, "duration": 229, "velocity": 95}, {"time": 180000, "pitch": 35, "duration": 468, "velocity": 110}, {"time": 180478, "pitch": 35, "duration": 10, "velocity": 80}, {"time": 180717, "pitch": 30, "duration": 230, "velocity": 95}, {"time": 180957, "pitch": 35, "duration": 468, "velocity": 110}, {"time": 181435, "pitch": 30, "duration": 235, "velocity": 105}, {"time": 181680, "pitch": 35, "duration": 235, "velocity": 100}, {"time": 181925, "pitch": 37, "duration": 468, "velocity": 110}, {"time": 182403, "pitch": 37, "duration": 10, "velocity": 80}, {"time": 182642, "pitch": 32, "duration": 229, "velocity": 95}, {"time": 182881, "pitch": 37, "duration": 469, "velocity": 110}, {"time": 183360, "pitch": 37, "duration": 10, "velocity": 80}, {"time": 183599, "pitch": 32, "duration": 229, "velocity": 95}, {"time": 183838, "pitch": 37, "duration": 469, "velocity": 110}, {"time": 184317, "pitch": 37, "duration": 10, "velocity": 80}, {"time": 184556, "pitch": 32, "duration": 229, "velocity": 95}, {"time": 184795, "pitch": 37, "duration": 480, "velocity": 110}, {"time": 185285, "pitch": 32, "duration": 229, "velocity": 105}, {"time": 185524, "pitch": 25, "duration": 229, "velocity": 100}, {"time": 185763, "pitch": 35, "duration": 468, "velocity": 110}, {"time": 186241, "pitch": 35, "duration": 10, "velocity": 80}, {"time": 186481, "pitch": 30, "duration": 229, "velocity": 95}, {"time": 186720, "pitch": 35, "duration": 468, "velocity": 110}, {"time": 187198, "pitch": 35, "duration": 10, "velocity": 80}, {"time": 187437, "pitch": 30, "duration": 230, "velocity": 95}, {"time": 187677, "pitch": 35, "duration": 468, "velocity": 110}, {"time": 188155, "pitch": 35, "duration": 10, "velocity": 80}, {"time": 188400, "pitch": 30, "duration": 234, "velocity": 95}, {"time": 188645, "pitch": 35, "duration": 468, "velocity": 110}, {"time": 189123, "pitch": 42, "duration": 229, "velocity": 105}, {"time": 189362, "pitch": 35, "duration": 229, "velocity": 100}, {"time": 189601, "pitch": 26, "duration": 469, "velocity": 110}, {"time": 190080, "pitch": 33, "duration": 229, "velocity": 95}, {"time": 190319, "pitch": 38, "duration": 468, "velocity": 110}, {"time": 190797, "pitch": 33, "duration": 230, "velocity": 95}, {"time": 191037, "pitch": 26, "duration": 229, "velocity": 110}, {"time": 191276, "pitch": 28, "duration": 443, "velocity": 110}, {"time": 191760, "pitch": 28, "duration": 354, "velocity": 110}, {"time": 192244, "pitch": 28, "duration": 349, "velocity": 110}, {"time": 192722, "pitch": 28, "duration": 229, "velocity": 110}, {"time": 192961, "pitch": 30, "duration": 230, "velocity": 110}, {"time": 193201, "pitch": 32, "duration": 229, "velocity": 110}, {"time": 193440, "pitch": 33, "duration": 468, "velocity": 110}, {"time": 193918, "pitch": 33, "duration": 10, "velocity": 80}, {"time": 194157, "pitch": 33, "duration": 230, "velocity": 110}, {"time": 194397, "pitch": 33, "duration": 229, "velocity": 110}, {"time": 194636, "pitch": 28, "duration": 229, "velocity": 110}, {"time": 194875, "pitch": 33, "duration": 235, "velocity": 110}, {"time": 195120, "pitch": 34, "duration": 713, "velocity": 110}, {"time": 195843, "pitch": 34, "duration": 10, "velocity": 80}, {"time": 196082, "pitch": 34, "duration": 229, "velocity": 110}, {"time": 196321, "pitch": 34, "duration": 469, "velocity": 110}, {"time": 196800, "pitch": 30, "duration": 468, "velocity": 110}, {"time": 197278, "pitch": 35, "duration": 469, "velocity": 110}, {"time": 197757, "pitch": 35, "duration": 10, "velocity": 80}, {"time": 197996, "pitch": 30, "duration": 229, "velocity": 110}, {"time": 198235, "pitch": 35, "duration": 235, "velocity": 110}, {"time": 198480, "pitch": 36, "duration": 234, "velocity": 110}, {"time": 198725, "pitch": 37, "duration": 229, "velocity": 110}, {"time": 198964, "pitch": 38, "duration": 707, "velocity": 110}, {"time": 199681, "pitch": 38, "duration": 10, "velocity": 80}, {"time": 199921, "pitch": 33, "duration": 229, "velocity": 110}, {"time": 200160, "pitch": 38, "duration": 468, "velocity": 110}, {"time": 200638, "pitch": 40, "duration": 229, "velocity": 110}, {"time": 200877, "pitch": 38, "duration": 230, "velocity": 110}, {"time": 201117, "pitch": 37, "duration": 468, "velocity": 110}, {"time": 201595, "pitch": 37, "duration": 10, "velocity": 80}, {"time": 201840, "pitch": 32, "duration": 234, "velocity": 110}, {"time": 202085, "pitch": 37, "duration": 229, "velocity": 110}, {"time": 202324, "pitch": 28, "duration": 229, "velocity": 110}, {"time": 202563, "pitch": 29, "duration": 229, "velocity": 110}, {"time": 202802, "pitch": 30, "duration": 708, "velocity": 110}, {"time": 203520, "pitch": 30, "duration": 10, "velocity": 80}, {"time": 203759, "pitch": 25, "duration": 229, "velocity": 110}, {"time": 203998, "pitch": 30, "duration": 229, "velocity": 110}, {"time": 204237, "pitch": 32, "duration": 230, "velocity": 110}, {"time": 204477, "pitch": 33, "duration": 229, "velocity": 110}, {"time": 204716, "pitch": 34, "duration": 229, "velocity": 110}, {"time": 204955, "pitch": 35, "duration": 479, "velocity": 110}, {"time": 205445, "pitch": 35, "duration": 10, "velocity": 80}, {"time": 205684, "pitch": 35, "duration": 229, "velocity": 110}, {"time": 205923, "pitch": 35, "duration": 229, "velocity": 110}, {"time": 206162, "pitch": 30, "duration": 229, "velocity": 110}, {"time": 206401, "pitch": 29, "duration": 230, "velocity": 110}, {"time": 206641, "pitch": 28, "duration": 468, "velocity": 110}, {"time": 207119, "pitch": 28, "duration": 229, "velocity": 110}, {"time": 207358, "pitch": 35, "duration": 229, "velocity": 110}, {"time": 207597, "pitch": 40, "duration": 469, "velocity": 110}, {"time": 208076, "pitch": 35, "duration": 229, "velocity": 110}, {"time": 208315, "pitch": 28, "duration": 479, "velocity": 110}, {"time": 208805, "pitch": 33, "duration": 468, "velocity": 110}, {"time": 209283, "pitch": 33, "duration": 10, "velocity": 80}, {"time": 209522, "pitch": 33, "duration": 229, "velocity": 110}, {"time": 209761, "pitch": 33, "duration": 230, "velocity": 110}, {"time": 210001, "pitch": 28, "duration": 229, "velocity": 110}, {"time": 210240, "pitch": 33, "duration": 229, "velocity": 110}, {"time": 210479, "pitch": 34, "duration": 708, "velocity": 110}, {"time": 211197, "pitch": 34, "duration": 10, "velocity": 80}, {"time": 211436, "pitch": 34, "duration": 229, "velocity": 110}, {"time": 211675, "pitch": 34, "duration": 479, "velocity": 110}, {"time": 212165, "pitch": 30, "duration": 468, "velocity": 110}, {"time": 212643, "pitch": 35, "duration": 468, "velocity": 110}, {"time": 213121, "pitch": 35, "duration": 10, "velocity": 80}, {"time": 213361, "pitch": 30, "duration": 229, "velocity": 110}, {"time": 213600, "pitch": 35, "duration": 229, "velocity": 110}, {"time": 213839, "pitch": 36, "duration": 229, "velocity": 110}, {"time": 214078, "pitch": 37, "duration": 229, "velocity": 110}, {"time": 214317, "pitch": 38, "duration": 708, "velocity": 110}, {"time": 215035, "pitch": 38, "duration": 10, "velocity": 80}, {"time": 215280, "pitch": 33, "duration": 234, "velocity": 110}, {"time": 215525, "pitch": 38, "duration": 468, "velocity": 110}, {"time": 216003, "pitch": 40, "duration": 229, "velocity": 110}, {"time": 216242, "pitch": 38, "duration": 229, "velocity": 110}, {"time": 216481, "pitch": 37, "duration": 469, "velocity": 110}, {"time": 216960, "pitch": 37, "duration": 10, "velocity": 80}, {"time": 217199, "pitch": 32, "duration": 229, "velocity": 110}, {"time": 217438, "pitch": 37, "duration": 229, "velocity": 110}, {"time": 217677, "pitch": 28, "duration": 230, "velocity": 110}, {"time": 217917, "pitch": 29, "duration": 229, "velocity": 110}, {"time": 218156, "pitch": 30, "duration": 718, "velocity": 110}, {"time": 218885, "pitch": 30, "duration": 10, "velocity": 80}, {"time": 219124, "pitch": 25, "duration": 229, "velocity": 110}, {"time": 219363, "pitch": 30, "duration": 229, "velocity": 110}, {"time": 219602, "pitch": 32, "duration": 229, "velocity": 110}, {"time": 219841, "pitch": 33, "duration": 230, "velocity": 110}, {"time": 220081, "pitch": 34, "duration": 229, "velocity": 110}, {"time": 220320, "pitch": 35, "duration": 468, "velocity": 110}, {"time": 220798, "pitch": 35, "duration": 10, "velocity": 80}, {"time": 221037, "pitch": 35, "duration": 230, "velocity": 110}, {"time": 221277, "pitch": 35, "duration": 229, "velocity": 110}, {"time": 221516, "pitch": 30, "duration": 229, "velocity": 110}, {"time": 221755, "pitch": 29, "duration": 235, "velocity": 110}, {"time": 222000, "pitch": 28, "duration": 474, "velocity": 110}, {"time": 222484, "pitch": 28, "duration": 229, "velocity": 110}, {"time": 222723, "pitch": 35, "duration": 229, "velocity": 110}, {"time": 222962, "pitch": 40, "duration": 469, "velocity": 110}, {"time": 223441, "pitch": 35, "duration": 229, "velocity": 110}, {"time": 223680, "pitch": 28, "duration": 468, "velocity": 110}, {"time": 224158, "pitch": 33, "duration": 469, "velocity": 110}, {"time": 224637, "pitch": 33, "duration": 10, "velocity": 80}, {"time": 224876, "pitch": 33, "duration": 229, "velocity": 110}, {"time": 225115, "pitch": 33, "duration": 235, "velocity": 110}, {"time": 225360, "pitch": 25, "duration": 234, "velocity": 110}, {"time": 225605, "pitch": 26, "duration": 229, "velocity": 110}, {"time": 225844, "pitch": 28, "duration": 707, "velocity": 110}, {"time": 226561, "pitch": 28, "duration": 10, "velocity": 80}, {"time": 226801, "pitch": 28, "duration": 229, "velocity": 110}, {"time": 227040, "pitch": 28, "duration": 229, "velocity": 110}, {"time": 227279, "pitch": 30, "duration": 229, "velocity": 110}, {"time": 227518, "pitch": 33, "duration": 229, "velocity": 110}, {"time": 227757, "pitch": 30, "duration": 230, "velocity": 110}, {"time": 227997, "pitch": 33, "duration": 468, "velocity": 110}, {"time": 228475, "pitch": 33, "duration": 10, "velocity": 80}, {"time": 228720, "pitch": 33, "duration": 234, "velocity": 110}, {"time": 228965, "pitch": 33, "duration": 229, "velocity": 110}, {"time": 229204, "pitch": 25, "duration": 229, "velocity": 110}, {"time": 229443, "pitch": 26, "duration": 229, "velocity": 110}, {"time": 229682, "pitch": 28, "duration": 708, "velocity": 110}, {"time": 230400, "pitch": 28, "duration": 10, "velocity": 80}, {"time": 230639, "pitch": 28, "duration": 229, "velocity": 110}, {"time": 230878, "pitch": 30, "duration": 229, "velocity": 110}, {"time": 231117, "pitch": 33, "duration": 230, "velocity": 110}, {"time": 231357, "pitch": 30, "duration": 229, "velocity": 110}, {"time": 231596, "pitch": 28, "duration": 229, "velocity": 110}, {"time": 231835, "pitch": 33, "duration": 479, "velocity": 110}, {"time": 232325, "pitch": 33, "duration": 10, "velocity": 80}, {"time": 232564, "pitch": 33, "duration": 229, "velocity": 110}, {"time": 232803, "pitch": 33, "duration": 229, "velocity": 110}, {"time": 233042, "pitch": 25, "duration": 229, "velocity": 110}, {"time": 233281, "pitch": 26, "duration": 230, "velocity": 110}, {"time": 233521, "pitch": 28, "duration": 707, "velocity": 110}, {"time": 234238, "pitch": 28, "duration": 10, "velocity": 80}, {"time": 234477, "pitch": 28, "duration": 230, "velocity": 110}, {"time": 234717, "pitch": 28, "duration": 229, "velocity": 110}, {"time": 234956, "pitch": 30, "duration": 229, "velocity": 110}, {"time": 235195, "pitch": 33, "duration": 235, "velocity": 110}, {"time": 235440, "pitch": 30, "duration": 234, "velocity": 110}, {"time": 235685, "pitch": 33, "duration": 468, "velocity": 110}, {"time": 236163, "pitch": 33, "duration": 10, "velocity": 80}, {"time": 236402, "pitch": 33, "duration": 229, "velocity": 110}, {"time": 236641, "pitch": 33, "duration": 230, "velocity": 110}, {"time": 236881, "pitch": 25, "duration": 229, "velocity": 110}, {"time": 237120, "pitch": 26, "duration": 229, "velocity": 110}, {"time": 237359, "pitch": 28, "duration": 229, "velocity": 110}, {"time": 238077, "pitch": 28, "duration": 1197, "velocity": 110}, {"time": 239284, "pitch": 34, "duration": 2143, "velocity": 110}, {"time": 241437, "pitch": 33, "duration": 7666, "velocity": 110}, {"time": 1033, "pitch": 45, "duration": 50, "velocity": 60}, {"time": 1043, "pitch": 47, "duration": 70, "velocity": 61}, {"time": 1063, "pitch": 49, "duration": 90, "velocity": 62}, {"time": 1083, "pitch": 50, "duration": 99, "velocity": 63}, {"time": 1113, "pitch": 52, "duration": 89, "velocity": 65}, {"time": 1143, "pitch": 54, "duration": 89, "velocity": 67}, {"time": 1163, "pitch": 56, "duration": 89, "velocity": 68}, {"time": 1192, "pitch": 57, "duration": 80, "velocity": 70}, {"time": 1222, "pitch": 59, "duration": 80, "velocity": 72}, {"time": 1252, "pitch": 61, "duration": 80, "velocity": 74}, {"time": 1272, "pitch": 62, "duration": 80, "velocity": 75}, {"time": 1302, "pitch": 64, "duration": 80, "velocity": 77}, {"time": 1332, "pitch": 66, "duration": 80, "velocity": 79}, {"time": 1352, "pitch": 68, "duration": 70, "velocity": 80}, {"time": 1382, "pitch": 69, "duration": 60, "velocity": 80}, {"time": 1412, "pitch": 71, "duration": 30, "velocity": 80}, {"time": 1442, "pitch": 69, "duration": 10, "velocity": 75}, {"time": 1442, "pitch": 71, "duration": 20, "velocity": 80}, {"time": 1442, "pitch": 73, "duration": 1664, "velocity": 105}, {"time": 1442, "pitch": 81, "duration": 1664, "velocity": 110}, {"time": 3116, "pitch": 74, "duration": 2154, "velocity": 105}, {"time": 3116, "pitch": 81, "duration": 2154, "velocity": 110}, {"time": 5280, "pitch": 76, "duration": 1629, "velocity": 105}, {"time": 5280, "pitch": 81, "duration": 1629, "velocity": 110}, {"time": 6919, "pitch": 76, "duration": 112, "velocity": 110}, {"time": 6940, "pitch": 77, "duration": 91, "velocity": 110}, {"time": 6960, "pitch": 78, "duration": 942, "velocity": 105}, {"time": 6960, "pitch": 81, "duration": 2138, "velocity": 110}, {"time": 7902, "pitch": 79, "duration": 60, "velocity": 110}, {"time": 7982, "pitch": 78, "duration": 170, "velocity": 110}, {"time": 8162, "pitch": 76, "duration": 468, "velocity": 110}, {"time": 8640, "pitch": 74, "duration": 468, "velocity": 110}, {"time": 9118, "pitch": 73, "duration": 1676, "velocity": 105}, {"time": 9118, "pitch": 81, "duration": 1676, "velocity": 110}, {"time": 10804, "pitch": 74, "duration": 2143, "velocity": 105}, {"time": 10804, "pitch": 81, "duration": 2143, "velocity": 110}, {"time": 12957, "pitch": 76, "duration": 1675, "velocity": 105}, {"time": 12957, "pitch": 81, "duration": 1675, "velocity": 110}, {"time": 14642, "pitch": 74, "duration": 110, "velocity": 100}, {"time": 14642, "pitch": 80, "duration": 110, "velocity": 105}, {"time": 14642, "pitch": 85, "duration": 110, "velocity": 110}, {"time": 15360, "pitch": 74, "duration": 1136, "velocity": 100}, {"time": 15360, "pitch": 81, "duration": 1136, "velocity": 105}, {"time": 15360, "pitch": 85, "duration": 1136, "velocity": 110}, {"time": 16506, "pitch": 83, "duration": 50, "velocity": 80}, {"time": 16516, "pitch": 80, "duration": 110, "velocity": 80}, {"time": 16566, "pitch": 78, "duration": 90, "velocity": 80}, {"time": 16596, "pitch": 73, "duration": 40, "velocity": 80}, {"time": 16616, "pitch": 76, "duration": 70, "velocity": 80}, {"time": 16636, "pitch": 71, "duration": 20, "velocity": 75}, {"time": 16636, "pitch": 74, "duration": 60, "velocity": 80}, {"time": 16666, "pitch": 73, "duration": 49, "velocity": 80}, {"time": 16676, "pitch": 69, "duration": 69, "velocity": 80}, {"time": 16686, "pitch": 71, "duration": 49, "velocity": 80}, {"time": 16715, "pitch": 68, "duration": 40, "velocity": 80}, {"time": 16735, "pitch": 66, "duration": 40, "velocity": 80}, {"time": 16755, "pitch": 64, "duration": 40, "velocity": 80}, {"time": 16765, "pitch": 62, "duration": 30, "velocity": 80}, {"time": 16785, "pitch": 61, "duration": 10, "velocity": 80}, {"time": 16795, "pitch": 61, "duration": 31, "velocity": 75}, {"time": 16795, "pitch": 62, "duration": 10, "velocity": 80}, {"time": 16795, "pitch": 64, "duration": 10, "velocity": 85}, {"time": 16805, "pitch": 59, "duration": 31, "velocity": 80}, {"time": 16815, "pitch": 57, "duration": 31, "velocity": 80}, {"time": 16836, "pitch": 56, "duration": 41, "velocity": 80}, {"time": 16846, "pitch": 54, "duration": 41, "velocity": 80}, {"time": 16867, "pitch": 52, "duration": 40, "velocity": 80}, {"time": 16887, "pitch": 50, "duration": 41, "velocity": 80}, {"time": 16907, "pitch": 49, "duration": 41, "velocity": 80}, {"time": 16928, "pitch": 47, "duration": 30, "velocity": 80}, {"time": 16948, "pitch": 45, "duration": 31, "velocity": 80}, {"time": 16979, "pitch": 44, "duration": 10, "velocity": 80}, {"time": 65152, "pitch": 62, "duration": 159, "velocity": 80}, {"time": 65232, "pitch": 63, "duration": 149, "velocity": 80}, {"time": 65282, "pitch": 64, "duration": 468, "velocity": 110}, {"time": 65760, "pitch": 69, "duration": 468, "velocity": 110}, {"time": 66238, "pitch": 71, "duration": 379, "velocity": 110}, {"time": 66617, "pitch": 66, "duration": 100, "velocity": 80}, {"time": 66667, "pitch": 67, "duration": 50, "velocity": 80}, {"time": 66717, "pitch": 66, "duration": 60, "velocity": 75}, {"time": 66717, "pitch": 67, "duration": 139, "velocity": 80}, {"time": 66717, "pitch": 68, "duration": 1197, "velocity": 110}, {"time": 67924, "pitch": 71, "duration": 468, "velocity": 110}, {"time": 68402, "pitch": 75, "duration": 947, "velocity": 110}, {"time": 69359, "pitch": 78, "duration": 708, "velocity": 110}, {"time": 70077, "pitch": 77, "duration": 468, "velocity": 110}, {"time": 70555, "pitch": 76, "duration": 2393, "velocity": 110}, {"time": 72958, "pitch": 76, "duration": 469, "velocity": 110}, {"time": 73437, "pitch": 81, "duration": 468, "velocity": 110}, {"time": 73915, "pitch": 83, "duration": 480, "velocity": 110}, {"time": 74405, "pitch": 77, "duration": 1664, "velocity": 100}, {"time": 74405, "pitch": 81, "duration": 1664, "velocity": 105}, {"time": 74405, "pitch": 84, "duration": 1664, "velocity": 110}, {"time": 76079, "pitch": 76, "duration": 2154, "velocity": 100}, {"time": 76079, "pitch": 81, "duration": 2154, "velocity": 105}, {"time": 76079, "pitch": 85, "duration": 2154, "velocity": 110}, {"time": 78243, "pitch": 76, "duration": 1665, "velocity": 105}, {"time": 78243, "pitch": 81, "duration": 1665, "velocity": 110}, {"time": 78243, "pitch": 85, "duration": 1665, "velocity": 115}, {"time": 79918, "pitch": 76, "duration": 2154, "velocity": 100}, {"time": 79918, "pitch": 82, "duration": 2154, "velocity": 105}, {"time": 79918, "pitch": 85, "duration": 2154, "velocity": 110}, {"time": 82082, "pitch": 78, "duration": 1664, "velocity": 105}, {"time": 82082, "pitch": 81, "duration": 1664, "velocity": 110}, {"time": 82082, "pitch": 86, "duration": 1664, "velocity": 115}, {"time": 83756, "pitch": 77, "duration": 2154, "velocity": 100}, {"time": 83756, "pitch": 81, "duration": 2154, "velocity": 105}, {"time": 83756, "pitch": 86, "duration": 2154, "velocity": 110}, {"time": 85920, "pitch": 76, "duration": 1670, "velocity": 105}, {"time": 85920, "pitch": 80, "duration": 1670, "velocity": 110}, {"time": 85920, "pitch": 85, "duration": 1670, "velocity": 115}, {"time": 87600, "pitch": 76, "duration": 2148, "velocity": 100}, {"time": 87600, "pitch": 82, "duration": 2148, "velocity": 105}, {"time": 87600, "pitch": 85, "duration": 2148, "velocity": 110}, {"time": 89758, "pitch": 78, "duration": 1676, "velocity": 115}, {"time": 89758, "pitch": 81, "duration": 1676, "velocity": 110}, {"time": 89758, "pitch": 85, "duration": 1676, "velocity": 105}, {"time": 91444, "pitch": 78, "duration": 2143, "velocity": 110}, {"time": 91444, "pitch": 81, "duration": 2143, "velocity": 110}, {"time": 91444, "pitch": 86, "duration": 2143, "velocity": 110}, {"time": 93597, "pitch": 81, "duration": 3539, "velocity": 110}, {"time": 97146, "pitch": 83, "duration": 70, "velocity": 80}, {"time": 97186, "pitch": 85, "duration": 50, "velocity": 80}, {"time": 97226, "pitch": 86, "duration": 50, "velocity": 80}, {"time": 97256, "pitch": 88, "duration": 50, "velocity": 80}, {"time": 97296, "pitch": 90, "duration": 49, "velocity": 80}, {"time": 97325, "pitch": 92, "duration": 110, "velocity": 80}, {"time": 97435, "pitch": 92, "duration": 10, "velocity": 80}, {"time": 97435, "pitch": 93, "duration": 3493, "velocity": 110}, {"time": 99011, "pitch": 88, "duration": 189, "velocity": 80}, {"time": 99081, "pitch": 89, "duration": 129, "velocity": 80}, {"time": 99121, "pitch": 90, "duration": 707, "velocity": 110}, {"time": 99838, "pitch": 88, "duration": 1110, "velocity": 125}, {"time": 100948, "pitch": 92, "duration": 20, "velocity": 95}, {"time": 100958, "pitch": 86, "duration": 72, "velocity": 95}, {"time": 100968, "pitch": 90, "duration": 21, "velocity": 95}, {"time": 100999, "pitch": 85, "duration": 61, "velocity": 95}, {"time": 101019, "pitch": 83, "duration": 52, "velocity": 90}, {"time": 101040, "pitch": 81, "duration": 41, "velocity": 95}, {"time": 101050, "pitch": 80, "duration": 51, "velocity": 95}, {"time": 101071, "pitch": 78, "duration": 51, "velocity": 95}, {"time": 101091, "pitch": 76, "duration": 51, "velocity": 95}, {"time": 101111, "pitch": 74, "duration": 51, "velocity": 90}, {"time": 101132, "pitch": 73, "duration": 51, "velocity": 95}, {"time": 101142, "pitch": 71, "duration": 41, "velocity": 95}, {"time": 101162, "pitch": 69, "duration": 41, "velocity": 95}, {"time": 101183, "pitch": 68, "duration": 41, "velocity": 95}, {"time": 101193, "pitch": 66, "duration": 51, "velocity": 95}, {"time": 101213, "pitch": 64, "duration": 51, "velocity": 95}, {"time": 101234, "pitch": 62, "duration": 51, "velocity": 95}, {"time": 101254, "pitch": 61, "duration": 31, "velocity": 95}, {"time": 101275, "pitch": 59, "duration": 10, "velocity": 95}, {"time": 101285, "pitch": 59, "duration": 30, "velocity": 90}, {"time": 101285, "pitch": 61, "duration": 20, "velocity": 95}, {"time": 101285, "pitch": 62, "duration": 10, "velocity": 95}, {"time": 101295, "pitch": 57, "duration": 20, "velocity": 95}, {"time": 101315, "pitch": 56, "duration": 29, "velocity": 95}, {"time": 101344, "pitch": 54, "duration": 30, "velocity": 95}, {"time": 118912, "pitch": 62, "duration": 159, "velocity": 80}, {"time": 118992, "pitch": 63, "duration": 149, "velocity": 80}, {"time": 119041, "pitch": 64, "duration": 469, "velocity": 110}, {"time": 119520, "pitch": 69, "duration": 468, "velocity": 110}, {"time": 119998, "pitch": 71, "duration": 379, "velocity": 110}, {"time": 120377, "pitch": 66, "duration": 100, "velocity": 80}, {"time": 120427, "pitch": 67, "duration": 50, "velocity": 80}, {"time": 120477, "pitch": 66, "duration": 59, "velocity": 75}, {"time": 120477, "pitch": 67, "duration": 139, "velocity": 80}, {"time": 120477, "pitch": 68, "duration": 1197, "velocity": 110}, {"time": 121684, "pitch": 71, "duration": 468, "velocity": 110}, {"time": 122162, "pitch": 75, "duration": 947, "velocity": 110}, {"time": 123119, "pitch": 78, "duration": 708, "velocity": 110}, {"time": 123837, "pitch": 77, "duration": 468, "velocity": 110}, {"time": 124315, "pitch": 76, "duration": 2393, "velocity": 110}, {"time": 126718, "pitch": 76, "duration": 469, "velocity": 110}, {"time": 127197, "pitch": 81, "duration": 468, "velocity": 110}, {"time": 127675, "pitch": 83, "duration": 480, "velocity": 110}, {"time": 128165, "pitch": 77, "duration": 1664, "velocity": 100}, {"time": 128165, "pitch": 81, "duration": 1664, "velocity": 105}, {"time": 128165, "pitch": 84, "duration": 1664, "velocity": 110}, {"time": 129839, "pitch": 76, "duration": 2154, "velocity": 105}, {"time": 129839, "pitch": 81, "duration": 2154, "velocity": 110}, {"time": 129839, "pitch": 85, "duration": 2154, "velocity": 115}, {"time": 132003, "pitch": 76, "duration": 1665, "velocity": 100}, {"time": 132003, "pitch": 81, "duration": 1665, "velocity": 105}, {"time": 132003, "pitch": 85, "duration": 1665, "velocity": 110}, {"time": 133677, "pitch": 76, "duration": 2154, "velocity": 105}, {"time": 133677, "pitch": 82, "duration": 2154, "velocity": 110}, {"time": 133677, "pitch": 85, "duration": 2154, "velocity": 115}, {"time": 135841, "pitch": 78, "duration": 1665, "velocity": 100}, {"time": 135841, "pitch": 81, "duration": 1665, "velocity": 105}, {"time": 135841, "pitch": 86, "duration": 1665, "velocity": 110}, {"time": 137516, "pitch": 77, "duration": 2154, "velocity": 105}, {"time": 137516, "pitch": 81, "duration": 2154, "velocity": 110}, {"time": 137516, "pitch": 86, "duration": 2154, "velocity": 115}, {"time": 139680, "pitch": 76, "duration": 1670, "velocity": 105}, {"time": 139680, "pitch": 80, "duration": 1670, "velocity": 110}, {"time": 139680, "pitch": 85, "duration": 1670, "velocity": 115}, {"time": 141360, "pitch": 76, "duration": 2148, "velocity": 100}, {"time": 141360, "pitch": 82, "duration": 2148, "velocity": 105}, {"time": 141360, "pitch": 85, "duration": 2148, "velocity": 110}, {"time": 143518, "pitch": 78, "duration": 1676, "velocity": 105}, {"time": 143518, "pitch": 81, "duration": 1676, "velocity": 110}, {"time": 143518, "pitch": 85, "duration": 1676, "velocity": 115}, {"time": 145204, "pitch": 78, "duration": 2143, "velocity": 100}, {"time": 145204, "pitch": 81, "duration": 2143, "velocity": 105}, {"time": 145204, "pitch": 86, "duration": 2143, "velocity": 110}, {"time": 147357, "pitch": 76, "duration": 1675, "velocity": 100}, {"time": 147357, "pitch": 81, "duration": 1675, "velocity": 105}, {"time": 147357, "pitch": 85, "duration": 1675, "velocity": 110}, {"time": 149042, "pitch": 76, "duration": 2143, "velocity": 100}, {"time": 149042, "pitch": 82, "duration": 2143, "velocity": 105}, {"time": 149042, "pitch": 85, "duration": 2143, "velocity": 110}, {"time": 151195, "pitch": 78, "duration": 1676, "velocity": 105}, {"time": 151195, "pitch": 81, "duration": 1676, "velocity": 110}, {"time": 151195, "pitch": 86, "duration": 1676, "velocity": 115}, {"time": 152881, "pitch": 77, "duration": 2154, "velocity": 100}, {"time": 152881, "pitch": 81, "duration": 2154, "velocity": 105}, {"time": 152881, "pitch": 86, "duration": 2154, "velocity": 110}, {"time": 155045, "pitch": 76, "duration": 1664, "velocity": 100}, {"time": 155045, "pitch": 80, "duration": 1664, "velocity": 105}, {"time": 155045, "pitch": 85, "duration": 1664, "velocity": 110}, {"time": 156719, "pitch": 76, "duration": 2154, "velocity": 105}, {"time": 156719, "pitch": 82, "duration": 2154, "velocity": 110}, {"time": 156719, "pitch": 85, "duration": 2154, "velocity": 115}, {"time": 158883, "pitch": 78, "duration": 1664, "velocity": 105}, {"time": 158883, "pitch": 81, "duration": 1664, "velocity": 110}, {"time": 158883, "pitch": 85, "duration": 1664, "velocity": 115}, {"time": 160557, "pitch": 78, "duration": 2154, "velocity": 110}, {"time": 160557, "pitch": 81, "duration": 2154, "velocity": 110}, {"time": 160557, "pitch": 86, "duration": 2154, "velocity": 110}, {"time": 180349, "pitch": 62, "duration": 159, "velocity": 70}, {"time": 180428, "pitch": 63, "duration": 150, "velocity": 70}, {"time": 180478, "pitch": 64, "duration": 469, "velocity": 100}, {"time": 180957, "pitch": 69, "duration": 468, "velocity": 100}, {"time": 181435, "pitch": 71, "duration": 388, "velocity": 100}, {"time": 181823, "pitch": 66, "duration": 102, "velocity": 70}, {"time": 181874, "pitch": 67, "duration": 51, "velocity": 70}, {"time": 181925, "pitch": 66, "duration": 59, "velocity": 65}, {"time": 181925, "pitch": 67, "duration": 139, "velocity": 70}, {"time": 181925, "pitch": 68, "duration": 1186, "velocity": 100}, {"time": 183121, "pitch": 71, "duration": 468, "velocity": 100}, {"time": 183599, "pitch": 75, "duration": 947, "velocity": 100}, {"time": 184556, "pitch": 78, "duration": 719, "velocity": 100}, {"time": 185285, "pitch": 77, "duration": 468, "velocity": 100}, {"time": 185763, "pitch": 76, "duration": 2382, "velocity": 100}, {"time": 188155, "pitch": 76, "duration": 479, "velocity": 100}, {"time": 188645, "pitch": 81, "duration": 468, "velocity": 100}, {"time": 189123, "pitch": 83, "duration": 468, "velocity": 100}, {"time": 189601, "pitch": 77, "duration": 1665, "velocity": 90}, {"time": 189601, "pitch": 81, "duration": 1665, "velocity": 95}, {"time": 189601, "pitch": 84, "duration": 1665, "velocity": 100}, {"time": 191276, "pitch": 76, "duration": 2154, "velocity": 95}, {"time": 191276, "pitch": 81, "duration": 2154, "velocity": 100}, {"time": 191276, "pitch": 85, "duration": 2154, "velocity": 105}, {"time": 193440, "pitch": 76, "duration": 1670, "velocity": 95}, {"time": 193440, "pitch": 81, "duration": 1670, "velocity": 100}, {"time": 193440, "pitch": 85, "duration": 1670, "velocity": 105}, {"time": 195120, "pitch": 76, "duration": 2148, "velocity": 90}, {"time": 195120, "pitch": 82, "duration": 2148, "velocity": 95}, {"time": 195120, "pitch": 85, "duration": 2148, "velocity": 100}, {"time": 197278, "pitch": 78, "duration": 1676, "velocity": 90}, {"time": 197278, "pitch": 81, "duration": 1676, "velocity": 95}, {"time": 197278, "pitch": 86, "duration": 1676, "velocity": 100}, {"time": 198964, "pitch": 77, "duration": 2143, "velocity": 95}, {"time": 198964, "pitch": 81, "duration": 2143, "velocity": 100}, {"time": 198964, "pitch": 86, "duration": 2143, "velocity": 105}, {"time": 201117, "pitch": 76, "duration": 1675, "velocity": 90}, {"time": 201117, "pitch": 80, "duration": 1675, "velocity": 95}, {"time": 201117, "pitch": 85, "duration": 1675, "velocity": 100}, {"time": 202802, "pitch": 76, "duration": 2143, "velocity": 95}, {"time": 202802, "pitch": 82, "duration": 2143, "velocity": 100}, {"time": 202802, "pitch": 85, "duration": 2143, "velocity": 105}, {"time": 204955, "pitch": 78, "duration": 1676, "velocity": 90}, {"time": 204955, "pitch": 81, "duration": 1676, "velocity": 95}, {"time": 204955, "pitch": 85, "duration": 1676, "velocity": 100}, {"time": 206641, "pitch": 78, "duration": 2153, "velocity": 95}, {"time": 206641, "pitch": 81, "duration": 2153, "velocity": 100}, {"time": 206641, "pitch": 86, "duration": 2153, "velocity": 105}, {"time": 208805, "pitch": 76, "duration": 1664, "velocity": 90}, {"time": 208805, "pitch": 81, "duration": 1664, "velocity": 95}, {"time": 208805, "pitch": 85, "duration": 1664, "velocity": 100}, {"time": 210479, "pitch": 76, "duration": 2154, "velocity": 90}, {"time": 210479, "pitch": 82, "duration": 2154, "velocity": 95}, {"time": 210479, "pitch": 85, "duration": 2154, "velocity": 100}, {"time": 212643, "pitch": 78, "duration": 1664, "velocity": 90}, {"time": 212643, "pitch": 81, "duration": 1664, "velocity": 95}, {"time": 212643, "pitch": 86, "duration": 1664, "velocity": 100}, {"time": 214317, "pitch": 77, "duration": 2154, "velocity": 90}, {"time": 214317, "pitch": 81, "duration": 2154, "velocity": 95}, {"time": 214317, "pitch": 86, "duration": 2154, "velocity": 100}, {"time": 216481, "pitch": 76, "duration": 1665, "velocity": 95}, {"time": 216481, "pitch": 80, "duration": 1665, "velocity": 100}, {"time": 216481, "pitch": 85, "duration": 1665, "velocity": 105}, {"time": 218156, "pitch": 76, "duration": 2154, "velocity": 90}, {"time": 218156, "pitch": 82, "duration": 2154, "velocity": 95}, {"time": 218156, "pitch": 85, "duration": 2154, "velocity": 100}, {"time": 220320, "pitch": 78, "duration": 1670, "velocity": 90}, {"time": 220320, "pitch": 81, "duration": 1670, "velocity": 95}, {"time": 220320, "pitch": 85, "duration": 1670, "velocity": 100}, {"time": 222000, "pitch": 78, "duration": 1789, "velocity": 95}, {"time": 222000, "pitch": 81, "duration": 1789, "velocity": 100}, {"time": 222000, "pitch": 86, "duration": 1789, "velocity": 105}, {"time": 223750, "pitch": 45, "duration": 49, "velocity": 70}, {"time": 223760, "pitch": 47, "duration": 69, "velocity": 70}, {"time": 223779, "pitch": 49, "duration": 90, "velocity": 70}, {"time": 223799, "pitch": 50, "duration": 100, "velocity": 70}, {"time": 223829, "pitch": 52, "duration": 90, "velocity": 70}, {"time": 223859, "pitch": 54, "duration": 90, "velocity": 70}, {"time": 223879, "pitch": 56, "duration": 90, "velocity": 70}, {"time": 223909, "pitch": 57, "duration": 80, "velocity": 70}, {"time": 223939, "pitch": 59, "duration": 80, "velocity": 70}, {"time": 223969, "pitch": 61, "duration": 80, "velocity": 70}, {"time": 223989, "pitch": 62, "duration": 79, "velocity": 70}, {"time": 224019, "pitch": 64, "duration": 79, "velocity": 70}, {"time": 224049, "pitch": 66, "duration": 79, "velocity": 70}, {"time": 224068, "pitch": 68, "duration": 70, "velocity": 70}, {"time": 224098, "pitch": 69, "duration": 60, "velocity": 70}, {"time": 224128, "pitch": 71, "duration": 30, "velocity": 70}, {"time": 224158, "pitch": 69, "duration": 10, "velocity": 65}, {"time": 224158, "pitch": 71, "duration": 20, "velocity": 70}, {"time": 224158, "pitch": 73, "duration": 1676, "velocity": 95}, {"time": 224158, "pitch": 81, "duration": 1676, "velocity": 100}, {"time": 225844, "pitch": 74, "duration": 2143, "velocity": 95}, {"time": 225844, "pitch": 81, "duration": 2143, "velocity": 100}, {"time": 227997, "pitch": 76, "duration": 1635, "velocity": 95}, {"time": 227997, "pitch": 81, "duration": 1635, "velocity": 100}, {"time": 229642, "pitch": 76, "duration": 110, "velocity": 100}, {"time": 229662, "pitch": 77, "duration": 90, "velocity": 100}, {"time": 229682, "pitch": 78, "duration": 937, "velocity": 100}, {"time": 229682, "pitch": 81, "duration": 2133, "velocity": 100}, {"time": 230619, "pitch": 79, "duration": 60, "velocity": 100}, {"time": 230699, "pitch": 78, "duration": 169, "velocity": 100}, {"time": 230878, "pitch": 76, "duration": 469, "velocity": 100}, {"time": 231357, "pitch": 74, "duration": 468, "velocity": 100}, {"time": 231835, "pitch": 73, "duration": 1676, "velocity": 95}, {"time": 231835, "pitch": 81, "duration": 1676, "velocity": 100}, {"time": 233521, "pitch": 74, "duration": 2153, "velocity": 95}, {"time": 233521, "pitch": 81, "duration": 2153, "velocity": 100}, {"time": 235685, "pitch": 76, "duration": 1664, "velocity": 95}, {"time": 235685, "pitch": 81, "duration": 1664, "velocity": 100}, {"time": 237359, "pitch": 74, "duration": 110, "velocity": 90}, {"time": 237359, "pitch": 80, "duration": 110, "velocity": 95}, {"time": 237359, "pitch": 85, "duration": 110, "velocity": 100}, {"time": 238077, "pitch": 74, "duration": 1147, "velocity": 90}, {"time": 238077, "pitch": 81, "duration": 1147, "velocity": 95}, {"time": 238077, "pitch": 85, "duration": 1147, "velocity": 100}, {"time": 239234, "pitch": 83, "duration": 50, "velocity": 70}, {"time": 239244, "pitch": 80, "duration": 110, "velocity": 70}, {"time": 239294, "pitch": 78, "duration": 89, "velocity": 70}, {"time": 239324, "pitch": 73, "duration": 39, "velocity": 70}, {"time": 239344, "pitch": 76, "duration": 69, "velocity": 70}, {"time": 239363, "pitch": 71, "duration": 20, "velocity": 65}, {"time": 239363, "pitch": 74, "duration": 60, "velocity": 70}, {"time": 239393, "pitch": 73, "duration": 50, "velocity": 70}, {"time": 239403, "pitch": 69, "duration": 70, "velocity": 70}, {"time": 239413, "pitch": 71, "duration": 50, "velocity": 70}, {"time": 239443, "pitch": 68, "duration": 40, "velocity": 70}, {"time": 239463, "pitch": 66, "duration": 40, "velocity": 70}, {"time": 239483, "pitch": 64, "duration": 40, "velocity": 70}, {"time": 239493, "pitch": 62, "duration": 30, "velocity": 70}, {"time": 239513, "pitch": 61, "duration": 10, "velocity": 70}, {"time": 239523, "pitch": 61, "duration": 30, "velocity": 65}, {"time": 239523, "pitch": 62, "duration": 10, "velocity": 70}, {"time": 239523, "pitch": 64, "duration": 10, "velocity": 70}, {"time": 239533, "pitch": 59, "duration": 30, "velocity": 70}, {"time": 239543, "pitch": 57, "duration": 30, "velocity": 70}, {"time": 239563, "pitch": 56, "duration": 40, "velocity": 70}, {"time": 239573, "pitch": 54, "duration": 40, "velocity": 70}, {"time": 239593, "pitch": 52, "duration": 40, "velocity": 70}, {"time": 239613, "pitch": 50, "duration": 40, "velocity": 70}, {"time": 239633, "pitch": 49, "duration": 39, "velocity": 70}, {"time": 239653, "pitch": 47, "duration": 29, "velocity": 70}, {"time": 239672, "pitch": 45, "duration": 30, "velocity": 70}, {"time": 239702, "pitch": 44, "duration": 10, "velocity": 70}, {"time": 16795, "pitch": 73, "duration": 316, "velocity": 100}, {"time": 17285, "pitch": 73, "duration": 259, "velocity": 90}, {"time": 17763, "pitch": 73, "duration": 219, "velocity": 100}, {"time": 18002, "pitch": 69, "duration": 200, "velocity": 90}, {"time": 18242, "pitch": 71, "duration": 229, "velocity": 95}, {"time": 18481, "pitch": 73, "duration": 279, "velocity": 100}, {"time": 18959, "pitch": 78, "duration": 299, "velocity": 95}, {"time": 19438, "pitch": 76, "duration": 338, "velocity": 100}, {"time": 19916, "pitch": 73, "duration": 270, "velocity": 90}, {"time": 20400, "pitch": 71, "duration": 584, "velocity": 95}, {"time": 21123, "pitch": 73, "duration": 160, "velocity": 90}, {"time": 21362, "pitch": 71, "duration": 269, "velocity": 100}, {"time": 21841, "pitch": 69, "duration": 299, "velocity": 90}, {"time": 22319, "pitch": 76, "duration": 279, "velocity": 95}, {"time": 24005, "pitch": 69, "duration": 159, "velocity": 95}, {"time": 24244, "pitch": 71, "duration": 159, "velocity": 90}, {"time": 24483, "pitch": 73, "duration": 269, "velocity": 100}, {"time": 24962, "pitch": 73, "duration": 269, "velocity": 90}, {"time": 25440, "pitch": 73, "duration": 219, "velocity": 100}, {"time": 25679, "pitch": 69, "duration": 219, "velocity": 90}, {"time": 25918, "pitch": 71, "duration": 269, "velocity": 95}, {"time": 26158, "pitch": 73, "duration": 328, "velocity": 100}, {"time": 26636, "pitch": 78, "duration": 249, "velocity": 90}, {"time": 27120, "pitch": 76, "duration": 285, "velocity": 100}, {"time": 27604, "pitch": 73, "duration": 259, "velocity": 90}, {"time": 28082, "pitch": 71, "duration": 668, "velocity": 95}, {"time": 28800, "pitch": 73, "duration": 199, "velocity": 90}, {"time": 29039, "pitch": 71, "duration": 349, "velocity": 95}, {"time": 29518, "pitch": 69, "duration": 348, "velocity": 90}, {"time": 29996, "pitch": 69, "duration": 310, "velocity": 95}, {"time": 32160, "pitch": 76, "duration": 349, "velocity": 100}, {"time": 32638, "pitch": 76, "duration": 289, "velocity": 90}, {"time": 33117, "pitch": 76, "duration": 229, "velocity": 100}, {"time": 33356, "pitch": 73, "duration": 169, "velocity": 90}, {"time": 33595, "pitch": 74, "duration": 153, "velocity": 95}, {"time": 33840, "pitch": 76, "duration": 1291, "velocity": 100}, {"time": 35520, "pitch": 78, "duration": 369, "velocity": 90}, {"time": 35998, "pitch": 80, "duration": 409, "velocity": 100}, {"time": 36477, "pitch": 80, "duration": 388, "velocity": 90}, {"time": 36955, "pitch": 80, "duration": 276, "velocity": 100}, {"time": 37200, "pitch": 76, "duration": 153, "velocity": 90}, {"time": 37445, "pitch": 78, "duration": 149, "velocity": 95}, {"time": 37684, "pitch": 80, "duration": 897, "velocity": 100}, {"time": 38880, "pitch": 78, "duration": 399, "velocity": 100}, {"time": 39358, "pitch": 77, "duration": 339, "velocity": 95}, {"time": 39837, "pitch": 76, "duration": 379, "velocity": 100}, {"time": 40315, "pitch": 76, "duration": 367, "velocity": 90}, {"time": 40805, "pitch": 76, "duration": 249, "velocity": 100}, {"time": 41044, "pitch": 73, "duration": 199, "velocity": 90}, {"time": 41283, "pitch": 74, "duration": 160, "velocity": 95}, {"time": 41522, "pitch": 76, "duration": 768, "velocity": 100}, {"time": 42479, "pitch": 76, "duration": 199, "velocity": 90}, {"time": 42718, "pitch": 73, "duration": 210, "velocity": 100}, {"time": 42958, "pitch": 74, "duration": 269, "velocity": 90}, {"time": 43197, "pitch": 76, "duration": 339, "velocity": 95}, {"time": 43675, "pitch": 78, "duration": 480, "velocity": 100}, {"time": 44165, "pitch": 76, "duration": 159, "velocity": 90}, {"time": 44404, "pitch": 78, "duration": 339, "velocity": 100}, {"time": 44882, "pitch": 80, "duration": 279, "velocity": 90}, {"time": 45361, "pitch": 81, "duration": 608, "velocity": 95}, {"time": 46078, "pitch": 80, "duration": 180, "velocity": 90}, {"time": 46318, "pitch": 81, "duration": 289, "velocity": 100}, {"time": 46796, "pitch": 83, "duration": 331, "velocity": 90}, {"time": 47525, "pitch": 73, "duration": 309, "velocity": 100}, {"time": 48003, "pitch": 73, "duration": 259, "velocity": 90}, {"time": 48482, "pitch": 73, "duration": 219, "velocity": 100}, {"time": 48721, "pitch": 69, "duration": 199, "velocity": 90}, {"time": 48960, "pitch": 71, "duration": 229, "velocity": 95}, {"time": 49199, "pitch": 73, "duration": 279, "velocity": 100}, {"time": 49678, "pitch": 78, "duration": 299, "velocity": 95}, {"time": 50156, "pitch": 76, "duration": 341, "velocity": 100}, {"time": 50640, "pitch": 73, "duration": 275, "velocity": 90}, {"time": 51124, "pitch": 71, "duration": 578, "velocity": 95}, {"time": 51842, "pitch": 73, "duration": 159, "velocity": 90}, {"time": 52081, "pitch": 71, "duration": 269, "velocity": 100}, {"time": 52559, "pitch": 69, "duration": 299, "velocity": 90}, {"time": 53038, "pitch": 76, "duration": 279, "velocity": 95}, {"time": 54723, "pitch": 69, "duration": 160, "velocity": 95}, {"time": 54962, "pitch": 71, "duration": 160, "velocity": 90}, {"time": 55202, "pitch": 73, "duration": 269, "velocity": 100}, {"time": 55680, "pitch": 73, "duration": 269, "velocity": 90}, {"time": 56158, "pitch": 73, "duration": 220, "velocity": 100}, {"time": 56398, "pitch": 69, "duration": 219, "velocity": 90}, {"time": 56637, "pitch": 71, "duration": 269, "velocity": 95}, {"time": 56876, "pitch": 73, "duration": 331, "velocity": 100}, {"time": 57360, "pitch": 78, "duration": 255, "velocity": 90}, {"time": 57844, "pitch": 76, "duration": 279, "velocity": 100}, {"time": 58322, "pitch": 73, "duration": 259, "velocity": 90}, {"time": 58801, "pitch": 71, "duration": 668, "velocity": 95}, {"time": 59518, "pitch": 73, "duration": 200, "velocity": 90}, {"time": 59758, "pitch": 71, "duration": 348, "velocity": 95}, {"time": 60236, "pitch": 69, "duration": 351, "velocity": 90}, {"time": 60720, "pitch": 69, "duration": 314, "velocity": 95}, {"time": 62878, "pitch": 76, "duration": 349, "velocity": 100}, {"time": 63357, "pitch": 76, "duration": 289, "velocity": 90}, {"time": 63835, "pitch": 76, "duration": 235, "velocity": 100}, {"time": 64080, "pitch": 73, "duration": 173, "velocity": 90}, {"time": 64325, "pitch": 74, "duration": 149, "velocity": 95}, {"time": 64564, "pitch": 76, "duration": 1286, "velocity": 100}, {"time": 66238, "pitch": 78, "duration": 369, "velocity": 90}, {"time": 66717, "pitch": 80, "duration": 408, "velocity": 100}, {"time": 67195, "pitch": 80, "duration": 398, "velocity": 90}, {"time": 67685, "pitch": 80, "duration": 269, "velocity": 100}, {"time": 67924, "pitch": 76, "duration": 149, "velocity": 90}, {"time": 68163, "pitch": 78, "duration": 150, "velocity": 95}, {"time": 68402, "pitch": 80, "duration": 897, "velocity": 100}, {"time": 69598, "pitch": 78, "duration": 399, "velocity": 100}, {"time": 70077, "pitch": 77, "duration": 339, "velocity": 95}, {"time": 70555, "pitch": 76, "duration": 388, "velocity": 100}, {"time": 71045, "pitch": 76, "duration": 359, "velocity": 90}, {"time": 71523, "pitch": 76, "duration": 249, "velocity": 100}, {"time": 71762, "pitch": 73, "duration": 200, "velocity": 90}, {"time": 72002, "pitch": 74, "duration": 159, "velocity": 95}, {"time": 72241, "pitch": 76, "duration": 767, "velocity": 100}, {"time": 73198, "pitch": 76, "duration": 199, "velocity": 90}, {"time": 73437, "pitch": 81, "duration": 458, "velocity": 100}, {"time": 73915, "pitch": 80, "duration": 347, "velocity": 90}, {"time": 74405, "pitch": 79, "duration": 468, "velocity": 100}, {"time": 74883, "pitch": 77, "duration": 160, "velocity": 90}, {"time": 75122, "pitch": 79, "duration": 339, "velocity": 100}, {"time": 75601, "pitch": 81, "duration": 279, "velocity": 90}, {"time": 76079, "pitch": 83, "duration": 608, "velocity": 95}, {"time": 77275, "pitch": 81, "duration": 296, "velocity": 100}, {"time": 77765, "pitch": 83, "duration": 329, "velocity": 90}, {"time": 78243, "pitch": 85, "duration": 1126, "velocity": 100}, {"time": 79439, "pitch": 76, "duration": 180, "velocity": 100}, {"time": 79678, "pitch": 81, "duration": 150, "velocity": 90}, {"time": 79918, "pitch": 85, "duration": 1346, "velocity": 95}, {"time": 81364, "pitch": 76, "duration": 159, "velocity": 100}, {"time": 81603, "pitch": 81, "duration": 160, "velocity": 95}, {"time": 81842, "pitch": 85, "duration": 638, "velocity": 100}, {"time": 82560, "pitch": 83, "duration": 149, "velocity": 90}, {"time": 82799, "pitch": 85, "duration": 389, "velocity": 100}, {"time": 83278, "pitch": 86, "duration": 398, "velocity": 90}, {"time": 83756, "pitch": 85, "duration": 402, "velocity": 95}, {"time": 84240, "pitch": 83, "duration": 394, "velocity": 100}, {"time": 84724, "pitch": 81, "duration": 349, "velocity": 90}, {"time": 85202, "pitch": 77, "duration": 359, "velocity": 95}, {"time": 85681, "pitch": 76, "duration": 1016, "velocity": 90}, {"time": 86877, "pitch": 76, "duration": 259, "velocity": 100}, {"time": 87116, "pitch": 75, "duration": 219, "velocity": 90}, {"time": 87355, "pitch": 76, "duration": 204, "velocity": 95}, {"time": 87600, "pitch": 78, "duration": 982, "velocity": 100}, {"time": 88802, "pitch": 78, "duration": 289, "velocity": 100}, {"time": 89041, "pitch": 80, "duration": 219, "velocity": 90}, {"time": 89280, "pitch": 81, "duration": 169, "velocity": 95}, {"time": 89519, "pitch": 81, "duration": 698, "velocity": 100}, {"time": 90237, "pitch": 78, "duration": 159, "velocity": 90}, {"time": 90476, "pitch": 81, "duration": 331, "velocity": 100}, {"time": 90960, "pitch": 83, "duration": 354, "velocity": 90}, {"time": 91444, "pitch": 85, "duration": 648, "velocity": 100}, {"time": 92162, "pitch": 83, "duration": 179, "velocity": 95}, {"time": 92401, "pitch": 81, "duration": 398, "velocity": 90}, {"time": 92879, "pitch": 83, "duration": 409, "velocity": 100}, {"time": 93358, "pitch": 81, "duration": 5713, "velocity": 95}, {"time": 101285, "pitch": 73, "duration": 309, "velocity": 100}, {"time": 101763, "pitch": 73, "duration": 259, "velocity": 90}, {"time": 102241, "pitch": 73, "duration": 220, "velocity": 100}, {"time": 102481, "pitch": 69, "duration": 199, "velocity": 90}, {"time": 102720, "pitch": 71, "duration": 229, "velocity": 95}, {"time": 102959, "pitch": 73, "duration": 279, "velocity": 100}, {"time": 103438, "pitch": 78, "duration": 299, "velocity": 95}, {"time": 103916, "pitch": 76, "duration": 341, "velocity": 100}, {"time": 104400, "pitch": 73, "duration": 275, "velocity": 90}, {"time": 104884, "pitch": 71, "duration": 578, "velocity": 95}, {"time": 105601, "pitch": 73, "duration": 160, "velocity": 90}, {"time": 105841, "pitch": 71, "duration": 269, "velocity": 100}, {"time": 106319, "pitch": 69, "duration": 299, "velocity": 90}, {"time": 106798, "pitch": 76, "duration": 279, "velocity": 95}, {"time": 108483, "pitch": 69, "duration": 160, "velocity": 95}, {"time": 108722, "pitch": 71, "duration": 160, "velocity": 90}, {"time": 108961, "pitch": 73, "duration": 270, "velocity": 100}, {"time": 109440, "pitch": 73, "duration": 269, "velocity": 90}, {"time": 109918, "pitch": 73, "duration": 220, "velocity": 100}, {"time": 110157, "pitch": 69, "duration": 220, "velocity": 90}, {"time": 110397, "pitch": 71, "duration": 269, "velocity": 95}, {"time": 110636, "pitch": 73, "duration": 331, "velocity": 100}, {"time": 111120, "pitch": 78, "duration": 255, "velocity": 90}, {"time": 111604, "pitch": 76, "duration": 279, "velocity": 100}, {"time": 112082, "pitch": 73, "duration": 259, "velocity": 90}, {"time": 112561, "pitch": 71, "duration": 667, "velocity": 95}, {"time": 113278, "pitch": 73, "duration": 200, "velocity": 90}, {"time": 113517, "pitch": 71, "duration": 349, "velocity": 95}, {"time": 113996, "pitch": 69, "duration": 351, "velocity": 90}, {"time": 114480, "pitch": 69, "duration": 314, "velocity": 95}, {"time": 116638, "pitch": 76, "duration": 349, "velocity": 100}, {"time": 117117, "pitch": 76, "duration": 289, "velocity": 90}, {"time": 117595, "pitch": 76, "duration": 235, "velocity": 100}, {"time": 117840, "pitch": 73, "duration": 173, "velocity": 90}, {"time": 118085, "pitch": 74, "duration": 149, "velocity": 95}, {"time": 118324, "pitch": 76, "duration": 1286, "velocity": 100}, {"time": 119998, "pitch": 78, "duration": 369, "velocity": 90}, {"time": 120477, "pitch": 80, "duration": 408, "velocity": 100}, {"time": 120955, "pitch": 80, "duration": 398, "velocity": 90}, {"time": 121445, "pitch": 80, "duration": 269, "velocity": 100}, {"time": 121684, "pitch": 76, "duration": 149, "velocity": 90}, {"time": 121923, "pitch": 78, "duration": 150, "velocity": 95}, {"time": 122162, "pitch": 80, "duration": 897, "velocity": 100}, {"time": 123358, "pitch": 78, "duration": 399, "velocity": 100}, {"time": 123837, "pitch": 77, "duration": 339, "velocity": 95}, {"time": 124315, "pitch": 76, "duration": 388, "velocity": 100}, {"time": 124805, "pitch": 76, "duration": 358, "velocity": 90}, {"time": 125283, "pitch": 76, "duration": 249, "velocity": 100}, {"time": 125522, "pitch": 73, "duration": 200, "velocity": 90}, {"time": 125761, "pitch": 74, "duration": 160, "velocity": 95}, {"time": 126001, "pitch": 76, "duration": 767, "velocity": 100}, {"time": 126957, "pitch": 76, "duration": 200, "velocity": 90}, {"time": 127197, "pitch": 81, "duration": 458, "velocity": 100}, {"time": 127675, "pitch": 80, "duration": 347, "velocity": 90}, {"time": 128165, "pitch": 79, "duration": 468, "velocity": 100}, {"time": 128643, "pitch": 77, "duration": 160, "velocity": 90}, {"time": 128882, "pitch": 79, "duration": 339, "velocity": 100}, {"time": 129361, "pitch": 81, "duration": 279, "velocity": 90}, {"time": 129839, "pitch": 83, "duration": 608, "velocity": 95}, {"time": 131035, "pitch": 81, "duration": 296, "velocity": 100}, {"time": 131525, "pitch": 83, "duration": 329, "velocity": 90}, {"time": 132003, "pitch": 85, "duration": 1126, "velocity": 100}, {"time": 133199, "pitch": 76, "duration": 179, "velocity": 100}, {"time": 133438, "pitch": 81, "duration": 150, "velocity": 90}, {"time": 133677, "pitch": 85, "duration": 1347, "velocity": 95}, {"time": 135124, "pitch": 76, "duration": 159, "velocity": 100}, {"time": 135363, "pitch": 81, "duration": 160, "velocity": 95}, {"time": 135602, "pitch": 85, "duration": 638, "velocity": 100}, {"time": 136320, "pitch": 83, "duration": 149, "velocity": 90}, {"time": 136559, "pitch": 85, "duration": 389, "velocity": 100}, {"time": 137037, "pitch": 86, "duration": 399, "velocity": 90}, {"time": 137516, "pitch": 85, "duration": 402, "velocity": 95}, {"time": 138000, "pitch": 83, "duration": 394, "velocity": 100}, {"time": 138484, "pitch": 81, "duration": 349, "velocity": 90}, {"time": 138962, "pitch": 77, "duration": 359, "velocity": 95}, {"time": 139441, "pitch": 76, "duration": 1016, "velocity": 90}, {"time": 140637, "pitch": 76, "duration": 259, "velocity": 100}, {"time": 140876, "pitch": 75, "duration": 219, "velocity": 90}, {"time": 141115, "pitch": 76, "duration": 204, "velocity": 95}, {"time": 141360, "pitch": 78, "duration": 982, "velocity": 100}, {"time": 142561, "pitch": 78, "duration": 289, "velocity": 100}, {"time": 142801, "pitch": 80, "duration": 219, "velocity": 90}, {"time": 143040, "pitch": 81, "duration": 169, "velocity": 95}, {"time": 143279, "pitch": 81, "duration": 698, "velocity": 100}, {"time": 143997, "pitch": 78, "duration": 159, "velocity": 90}, {"time": 144236, "pitch": 81, "duration": 331, "velocity": 100}, {"time": 144720, "pitch": 83, "duration": 354, "velocity": 90}, {"time": 145204, "pitch": 85, "duration": 648, "velocity": 100}, {"time": 145921, "pitch": 83, "duration": 180, "velocity": 90}, {"time": 146161, "pitch": 81, "duration": 398, "velocity": 95}, {"time": 146639, "pitch": 83, "duration": 409, "velocity": 90}, {"time": 147357, "pitch": 85, "duration": 1137, "velocity": 100}, {"time": 148564, "pitch": 76, "duration": 179, "velocity": 100}, {"time": 148803, "pitch": 81, "duration": 150, "velocity": 90}, {"time": 149042, "pitch": 85, "duration": 1336, "velocity": 95}, {"time": 150477, "pitch": 76, "duration": 160, "velocity": 100}, {"time": 150717, "pitch": 81, "duration": 159, "velocity": 95}, {"time": 150956, "pitch": 85, "duration": 647, "velocity": 100}, {"time": 151685, "pitch": 83, "duration": 149, "velocity": 90}, {"time": 151924, "pitch": 85, "duration": 389, "velocity": 100}, {"time": 152402, "pitch": 86, "duration": 399, "velocity": 90}, {"time": 152881, "pitch": 85, "duration": 398, "velocity": 95}, {"time": 153359, "pitch": 83, "duration": 389, "velocity": 100}, {"time": 153837, "pitch": 81, "duration": 349, "velocity": 90}, {"time": 154316, "pitch": 77, "duration": 361, "velocity": 95}, {"time": 154800, "pitch": 76, "duration": 1022, "velocity": 90}, {"time": 156001, "pitch": 76, "duration": 260, "velocity": 100}, {"time": 156241, "pitch": 75, "duration": 219, "velocity": 90}, {"time": 156480, "pitch": 76, "duration": 199, "velocity": 95}, {"time": 156719, "pitch": 78, "duration": 977, "velocity": 100}, {"time": 157915, "pitch": 78, "duration": 296, "velocity": 100}, {"time": 158160, "pitch": 80, "duration": 224, "velocity": 90}, {"time": 158405, "pitch": 81, "duration": 169, "velocity": 95}, {"time": 158644, "pitch": 81, "duration": 698, "velocity": 100}, {"time": 159361, "pitch": 78, "duration": 160, "velocity": 90}, {"time": 159601, "pitch": 81, "duration": 329, "velocity": 100}, {"time": 160079, "pitch": 83, "duration": 349, "velocity": 90}, {"time": 160557, "pitch": 85, "duration": 648, "velocity": 100}, {"time": 161275, "pitch": 83, "duration": 184, "velocity": 95}, {"time": 161520, "pitch": 81, "duration": 404, "velocity": 90}, {"time": 162004, "pitch": 83, "duration": 408, "velocity": 100}, {"time": 162482, "pitch": 81, "duration": 5707, "velocity": 95}, {"time": 178075, "pitch": 76, "duration": 357, "velocity": 100}, {"time": 178565, "pitch": 76, "duration": 289, "velocity": 90}, {"time": 179043, "pitch": 76, "duration": 229, "velocity": 100}, {"time": 179282, "pitch": 73, "duration": 170, "velocity": 90}, {"time": 179521, "pitch": 74, "duration": 150, "velocity": 95}, {"time": 179761, "pitch": 76, "duration": 1285, "velocity": 100}, {"time": 181435, "pitch": 78, "duration": 377, "velocity": 90}, {"time": 181925, "pitch": 80, "duration": 408, "velocity": 100}, {"time": 182403, "pitch": 80, "duration": 389, "velocity": 90}, {"time": 182881, "pitch": 80, "duration": 270, "velocity": 100}, {"time": 183121, "pitch": 76, "duration": 149, "velocity": 90}, {"time": 183360, "pitch": 78, "duration": 149, "velocity": 95}, {"time": 183599, "pitch": 80, "duration": 897, "velocity": 100}, {"time": 184795, "pitch": 78, "duration": 408, "velocity": 100}, {"time": 185285, "pitch": 77, "duration": 338, "velocity": 95}, {"time": 185763, "pitch": 76, "duration": 379, "velocity": 100}, {"time": 186241, "pitch": 76, "duration": 359, "velocity": 90}, {"time": 186720, "pitch": 76, "duration": 249, "velocity": 100}, {"time": 186959, "pitch": 73, "duration": 199, "velocity": 90}, {"time": 187198, "pitch": 74, "duration": 160, "velocity": 95}, {"time": 187437, "pitch": 76, "duration": 769, "velocity": 100}, {"time": 188400, "pitch": 76, "duration": 204, "velocity": 90}, {"time": 188645, "pitch": 81, "duration": 458, "velocity": 100}, {"time": 189123, "pitch": 80, "duration": 339, "velocity": 90}, {"time": 189601, "pitch": 79, "duration": 469, "velocity": 100}, {"time": 190080, "pitch": 77, "duration": 159, "velocity": 90}, {"time": 190319, "pitch": 79, "duration": 339, "velocity": 100}, {"time": 190797, "pitch": 81, "duration": 279, "velocity": 90}, {"time": 191276, "pitch": 83, "duration": 616, "velocity": 95}, {"time": 192483, "pitch": 81, "duration": 289, "velocity": 100}, {"time": 192961, "pitch": 83, "duration": 329, "velocity": 90}, {"time": 193440, "pitch": 85, "duration": 1126, "velocity": 100}, {"time": 194636, "pitch": 76, "duration": 179, "velocity": 100}, {"time": 194875, "pitch": 81, "duration": 153, "velocity": 90}, {"time": 195120, "pitch": 85, "duration": 1341, "velocity": 95}, {"time": 196561, "pitch": 76, "duration": 159, "velocity": 100}, {"time": 196800, "pitch": 81, "duration": 159, "velocity": 95}, {"time": 197039, "pitch": 85, "duration": 638, "velocity": 100}, {"time": 197757, "pitch": 83, "duration": 149, "velocity": 90}, {"time": 197996, "pitch": 85, "duration": 392, "velocity": 100}, {"time": 198480, "pitch": 86, "duration": 404, "velocity": 90}, {"time": 198964, "pitch": 85, "duration": 398, "velocity": 95}, {"time": 199442, "pitch": 83, "duration": 389, "velocity": 100}, {"time": 199921, "pitch": 81, "duration": 348, "velocity": 90}, {"time": 200399, "pitch": 77, "duration": 359, "velocity": 95}, {"time": 200877, "pitch": 76, "duration": 1024, "velocity": 90}, {"time": 202085, "pitch": 76, "duration": 259, "velocity": 100}, {"time": 202324, "pitch": 75, "duration": 219, "velocity": 90}, {"time": 202563, "pitch": 76, "duration": 199, "velocity": 95}, {"time": 202802, "pitch": 78, "duration": 977, "velocity": 100}, {"time": 203998, "pitch": 78, "duration": 289, "velocity": 100}, {"time": 204237, "pitch": 80, "duration": 220, "velocity": 90}, {"time": 204477, "pitch": 81, "duration": 169, "velocity": 95}, {"time": 204716, "pitch": 81, "duration": 708, "velocity": 100}, {"time": 205445, "pitch": 78, "duration": 159, "velocity": 90}, {"time": 205684, "pitch": 81, "duration": 329, "velocity": 100}, {"time": 206162, "pitch": 83, "duration": 349, "velocity": 90}, {"time": 206641, "pitch": 85, "duration": 647, "velocity": 100}, {"time": 207358, "pitch": 83, "duration": 180, "velocity": 90}, {"time": 207597, "pitch": 81, "duration": 399, "velocity": 95}, {"time": 208076, "pitch": 83, "duration": 412, "velocity": 90}, {"time": 208805, "pitch": 85, "duration": 1126, "velocity": 100}, {"time": 210001, "pitch": 76, "duration": 179, "velocity": 100}, {"time": 210240, "pitch": 81, "duration": 149, "velocity": 90}, {"time": 210479, "pitch": 85, "duration": 1339, "velocity": 95}, {"time": 211920, "pitch": 76, "duration": 163, "velocity": 100}, {"time": 212165, "pitch": 81, "duration": 159, "velocity": 95}, {"time": 212404, "pitch": 85, "duration": 638, "velocity": 100}, {"time": 213121, "pitch": 83, "duration": 150, "velocity": 90}, {"time": 213361, "pitch": 85, "duration": 388, "velocity": 100}, {"time": 213839, "pitch": 86, "duration": 399, "velocity": 90}, {"time": 214317, "pitch": 85, "duration": 399, "velocity": 95}, {"time": 214796, "pitch": 83, "duration": 392, "velocity": 100}, {"time": 215280, "pitch": 81, "duration": 354, "velocity": 90}, {"time": 215764, "pitch": 77, "duration": 359, "velocity": 95}, {"time": 216242, "pitch": 76, "duration": 1017, "velocity": 90}, {"time": 217438, "pitch": 76, "duration": 259, "velocity": 100}, {"time": 217677, "pitch": 75, "duration": 220, "velocity": 90}, {"time": 217917, "pitch": 76, "duration": 199, "velocity": 95}, {"time": 218156, "pitch": 78, "duration": 988, "velocity": 100}, {"time": 219363, "pitch": 78, "duration": 289, "velocity": 100}, {"time": 219602, "pitch": 80, "duration": 219, "velocity": 90}, {"time": 219841, "pitch": 81, "duration": 170, "velocity": 95}, {"time": 220081, "pitch": 81, "duration": 697, "velocity": 100}, {"time": 220798, "pitch": 78, "duration": 160, "velocity": 90}, {"time": 221037, "pitch": 81, "duration": 329, "velocity": 100}, {"time": 221516, "pitch": 83, "duration": 351, "velocity": 90}, {"time": 222000, "pitch": 85, "duration": 653, "velocity": 100}, {"time": 222723, "pitch": 83, "duration": 179, "velocity": 95}, {"time": 222962, "pitch": 81, "duration": 399, "velocity": 90}, {"time": 223441, "pitch": 83, "duration": 408, "velocity": 100}, {"time": 223919, "pitch": 81, "duration": 5713, "velocity": 95}, {"time": 68642, "pitch": 76, "duration": 299, "velocity": 120}, {"time": 69598, "pitch": 71, "duration": 299, "velocity": 120}, {"time": 70555, "pitch": 64, "duration": 306, "velocity": 120}, {"time": 75362, "pitch": 76, "duration": 299, "velocity": 120}, {"time": 76318, "pitch": 71, "duration": 299, "velocity": 120}, {"time": 77275, "pitch": 64, "duration": 306, "velocity": 120}, {"time": 122401, "pitch": 76, "duration": 299, "velocity": 120}, {"time": 123358, "pitch": 71, "duration": 299, "velocity": 120}, {"time": 124315, "pitch": 64, "duration": 306, "velocity": 120}, {"time": 129121, "pitch": 76, "duration": 299, "velocity": 120}, {"time": 130078, "pitch": 71, "duration": 299, "velocity": 120}, {"time": 131035, "pitch": 64, "duration": 306, "velocity": 120}, {"time": 183838, "pitch": 76, "duration": 299, "velocity": 120}, {"time": 184795, "pitch": 71, "duration": 306, "velocity": 120}, {"time": 185763, "pitch": 64, "duration": 299, "velocity": 120}, {"time": 190558, "pitch": 76, "duration": 299, "velocity": 120}, {"time": 191515, "pitch": 71, "duration": 306, "velocity": 120}, {"time": 192483, "pitch": 64, "duration": 299, "velocity": 120}, {"time": 1442, "pitch": 64, "duration": 229, "velocity": 120}, {"time": 1681, "pitch": 69, "duration": 229, "velocity": 110}, {"time": 1920, "pitch": 73, "duration": 229, "velocity": 115}, {"time": 2159, "pitch": 64, "duration": 229, "velocity": 120}, {"time": 2398, "pitch": 69, "duration": 230, "velocity": 110}, {"time": 2638, "pitch": 73, "duration": 229, "velocity": 115}, {"time": 2877, "pitch": 64, "duration": 229, "velocity": 120}, {"time": 3116, "pitch": 69, "duration": 229, "velocity": 115}, {"time": 3355, "pitch": 71, "duration": 235, "velocity": 120}, {"time": 3600, "pitch": 64, "duration": 235, "velocity": 110}, {"time": 3845, "pitch": 69, "duration": 229, "velocity": 115}, {"time": 4084, "pitch": 71, "duration": 229, "velocity": 120}, {"time": 4323, "pitch": 64, "duration": 229, "velocity": 110}, {"time": 4562, "pitch": 69, "duration": 230, "velocity": 115}, {"time": 4802, "pitch": 71, "duration": 229, "velocity": 120}, {"time": 5041, "pitch": 76, "duration": 229, "velocity": 115}, {"time": 5280, "pitch": 64, "duration": 229, "velocity": 120}, {"time": 5519, "pitch": 69, "duration": 229, "velocity": 110}, {"time": 5758, "pitch": 73, "duration": 230, "velocity": 115}, {"time": 5998, "pitch": 64, "duration": 229, "velocity": 120}, {"time": 6237, "pitch": 69, "duration": 229, "velocity": 110}, {"time": 6476, "pitch": 73, "duration": 229, "velocity": 115}, {"time": 6715, "pitch": 64, "duration": 235, "velocity": 120}, {"time": 6960, "pitch": 69, "duration": 235, "velocity": 115}, {"time": 7205, "pitch": 71, "duration": 229, "velocity": 120}, {"time": 7444, "pitch": 64, "duration": 229, "velocity": 110}, {"time": 7683, "pitch": 69, "duration": 229, "velocity": 115}, {"time": 7922, "pitch": 71, "duration": 230, "velocity": 120}, {"time": 8162, "pitch": 64, "duration": 229, "velocity": 110}, {"time": 8401, "pitch": 69, "duration": 229, "velocity": 115}, {"time": 8640, "pitch": 71, "duration": 229, "velocity": 120}, {"time": 8879, "pitch": 76, "duration": 229, "velocity": 115}, {"time": 9118, "pitch": 64, "duration": 230, "velocity": 120}, {"time": 9358, "pitch": 69, "duration": 229, "velocity": 110}, {"time": 9597, "pitch": 73, "duration": 229, "velocity": 115}, {"time": 9836, "pitch": 64, "duration": 229, "velocity": 120}, {"time": 10075, "pitch": 69, "duration": 235, "velocity": 110}, {"time": 10320, "pitch": 73, "duration": 235, "velocity": 115}, {"time": 10565, "pitch": 64, "duration": 229, "velocity": 120}, {"time": 10804, "pitch": 69, "duration": 229, "velocity": 115}, {"time": 11043, "pitch": 71, "duration": 229, "velocity": 120}, {"time": 11282, "pitch": 64, "duration": 230, "velocity": 110}, {"time": 11522, "pitch": 69, "duration": 229, "velocity": 115}, {"time": 11761, "pitch": 71, "duration": 229, "velocity": 120}, {"time": 12000, "pitch": 64, "duration": 229, "velocity": 110}, {"time": 12239, "pitch": 69, "duration": 229, "velocity": 115}, {"time": 12478, "pitch": 71, "duration": 230, "velocity": 120}, {"time": 12718, "pitch": 76, "duration": 229, "velocity": 115}, {"time": 12957, "pitch": 64, "duration": 229, "velocity": 120}, {"time": 13196, "pitch": 69, "duration": 229, "velocity": 110}, {"time": 13435, "pitch": 73, "duration": 235, "velocity": 115}, {"time": 13680, "pitch": 64, "duration": 235, "velocity": 120}, {"time": 13925, "pitch": 69, "duration": 229, "velocity": 110}, {"time": 14164, "pitch": 73, "duration": 229, "velocity": 115}, {"time": 14403, "pitch": 64, "duration": 229, "velocity": 120}, {"time": 14642, "pitch": 62, "duration": 110, "velocity": 110}, {"time": 14642, "pitch": 68, "duration": 110, "velocity": 115}, {"time": 14642, "pitch": 73, "duration": 110, "velocity": 120}, {"time": 15360, "pitch": 62, "duration": 1425, "velocity": 100}, {"time": 15360, "pitch": 68, "duration": 1425, "velocity": 110}, {"time": 15360, "pitch": 73, "duration": 1425, "velocity": 120}, {"time": 93597, "pitch": 64, "duration": 229, "velocity": 120}, {"time": 93836, "pitch": 69, "duration": 229, "velocity": 110}, {"time": 94075, "pitch": 73, "duration": 235, "velocity": 115}, {"time": 94320, "pitch": 64, "duration": 235, "velocity": 120}, {"time": 94565, "pitch": 69, "duration": 229, "velocity": 110}, {"time": 94804, "pitch": 73, "duration": 229, "velocity": 115}, {"time": 95043, "pitch": 64, "duration": 229, "velocity": 120}, {"time": 95282, "pitch": 69, "duration": 230, "velocity": 115}, {"time": 95521, "pitch": 71, "duration": 230, "velocity": 120}, {"time": 95761, "pitch": 64, "duration": 229, "velocity": 110}, {"time": 96000, "pitch": 69, "duration": 229, "velocity": 115}, {"time": 96239, "pitch": 71, "duration": 229, "velocity": 120}, {"time": 96478, "pitch": 64, "duration": 230, "velocity": 110}, {"time": 96718, "pitch": 69, "duration": 229, "velocity": 115}, {"time": 96957, "pitch": 71, "duration": 229, "velocity": 120}, {"time": 97196, "pitch": 76, "duration": 229, "velocity": 115}, {"time": 97435, "pitch": 64, "duration": 235, "velocity": 120}, {"time": 97680, "pitch": 69, "duration": 235, "velocity": 110}, {"time": 97925, "pitch": 73, "duration": 229, "velocity": 115}, {"time": 98164, "pitch": 64, "duration": 229, "velocity": 120}, {"time": 98403, "pitch": 69, "duration": 229, "velocity": 110}, {"time": 98642, "pitch": 73, "duration": 230, "velocity": 115}, {"time": 98881, "pitch": 64, "duration": 230, "velocity": 120}, {"time": 99121, "pitch": 62, "duration": 109, "velocity": 110}, {"time": 99121, "pitch": 68, "duration": 109, "velocity": 115}, {"time": 99121, "pitch": 73, "duration": 109, "velocity": 120}, {"time": 99838, "pitch": 62, "duration": 1437, "velocity": 100}, {"time": 99838, "pitch": 68, "duration": 1437, "velocity": 110}, {"time": 99838, "pitch": 73, "duration": 1437, "velocity": 120}, {"time": 224158, "pitch": 64, "duration": 229, "velocity": 120}, {"time": 224397, "pitch": 69, "duration": 230, "velocity": 110}, {"time": 224637, "pitch": 73, "duration": 229, "velocity": 115}, {"time": 224876, "pitch": 64, "duration": 229, "velocity": 120}, {"time": 225115, "pitch": 69, "duration": 235, "velocity": 110}, {"time": 225360, "pitch": 73, "duration": 234, "velocity": 115}, {"time": 225605, "pitch": 64, "duration": 229, "velocity": 120}, {"time": 225844, "pitch": 69, "duration": 229, "velocity": 115}, {"time": 226083, "pitch": 71, "duration": 229, "velocity": 120}, {"time": 226322, "pitch": 64, "duration": 229, "velocity": 110}, {"time": 226561, "pitch": 69, "duration": 230, "velocity": 115}, {"time": 226801, "pitch": 71, "duration": 229, "velocity": 120}, {"time": 227040, "pitch": 64, "duration": 229, "velocity": 110}, {"time": 227279, "pitch": 69, "duration": 229, "velocity": 115}, {"time": 227518, "pitch": 71, "duration": 229, "velocity": 120}, {"time": 227757, "pitch": 76, "duration": 230, "velocity": 115}, {"time": 227997, "pitch": 64, "duration": 229, "velocity": 120}, {"time": 228236, "pitch": 69, "duration": 229, "velocity": 110}, {"time": 228475, "pitch": 73, "duration": 235, "velocity": 115}, {"time": 228720, "pitch": 64, "duration": 234, "velocity": 120}, {"time": 228965, "pitch": 69, "duration": 229, "velocity": 110}, {"time": 229204, "pitch": 73, "duration": 229, "velocity": 115}, {"time": 229443, "pitch": 64, "duration": 229, "velocity": 120}, {"time": 229682, "pitch": 69, "duration": 229, "velocity": 115}, {"time": 229921, "pitch": 71, "duration": 230, "velocity": 120}, {"time": 230161, "pitch": 64, "duration": 229, "velocity": 110}, {"time": 230400, "pitch": 69, "duration": 229, "velocity": 115}, {"time": 230639, "pitch": 71, "duration": 229, "velocity": 120}, {"time": 230878, "pitch": 64, "duration": 229, "velocity": 110}, {"time": 231117, "pitch": 69, "duration": 230, "velocity": 115}, {"time": 231357, "pitch": 71, "duration": 229, "velocity": 120}, {"time": 231596, "pitch": 76, "duration": 229, "velocity": 115}, {"time": 231835, "pitch": 64, "duration": 235, "velocity": 120}, {"time": 232080, "pitch": 69, "duration": 234, "velocity": 110}, {"time": 232325, "pitch": 73, "duration": 229, "velocity": 115}, {"time": 232564, "pitch": 64, "duration": 229, "velocity": 120}, {"time": 232803, "pitch": 69, "duration": 229, "velocity": 110}, {"time": 233042, "pitch": 73, "duration": 229, "velocity": 115}, {"time": 233281, "pitch": 64, "duration": 230, "velocity": 120}, {"time": 233521, "pitch": 69, "duration": 229, "velocity": 115}, {"time": 233760, "pitch": 71, "duration": 229, "velocity": 120}, {"time": 233999, "pitch": 64, "duration": 229, "velocity": 110}, {"time": 234238, "pitch": 69, "duration": 229, "velocity": 115}, {"time": 234477, "pitch": 71, "duration": 230, "velocity": 120}, {"time": 234717, "pitch": 64, "duration": 229, "velocity": 110}, {"time": 234956, "pitch": 69, "duration": 229, "velocity": 115}, {"time": 235195, "pitch": 71, "duration": 235, "velocity": 120}, {"time": 235440, "pitch": 76, "duration": 234, "velocity": 115}, {"time": 235685, "pitch": 64, "duration": 229, "velocity": 120}, {"time": 235924, "pitch": 69, "duration": 229, "velocity": 110}, {"time": 236163, "pitch": 73, "duration": 229, "velocity": 115}, {"time": 236402, "pitch": 64, "duration": 229, "velocity": 120}, {"time": 236641, "pitch": 69, "duration": 230, "velocity": 110}, {"time": 236881, "pitch": 73, "duration": 229, "velocity": 115}, {"time": 237120, "pitch": 64, "duration": 229, "velocity": 120}, {"time": 237359, "pitch": 62, "duration": 110, "velocity": 110}, {"time": 237359, "pitch": 68, "duration": 110, "velocity": 115}, {"time": 237359, "pitch": 73, "duration": 110, "velocity": 120}, {"time": 238077, "pitch": 62, "duration": 1197, "velocity": 100}, {"time": 238077, "pitch": 68, "duration": 1197, "velocity": 110}, {"time": 238077, "pitch": 73, "duration": 1197, "velocity": 120}, {"time": 239284, "pitch": 67, "duration": 2143, "velocity": 100}, {"time": 239284, "pitch": 72, "duration": 2143, "velocity": 110}, {"time": 239284, "pitch": 77, "duration": 2143, "velocity": 120}, {"time": 241437, "pitch": 66, "duration": 7666, "velocity": 100}, {"time": 241437, "pitch": 71, "duration": 7666, "velocity": 110}, {"time": 241437, "pitch": 76, "duration": 7666, "velocity": 120}, {"time": 53516, "pitch": 64, "duration": 110, "velocity": 110}, {"time": 53516, "pitch": 76, "duration": 110, "velocity": 90}, {"time": 53755, "pitch": 69, "duration": 112, "velocity": 110}, {"time": 53755, "pitch": 81, "duration": 112, "velocity": 90}, {"time": 54000, "pitch": 64, "duration": 112, "velocity": 110}, {"time": 54000, "pitch": 76, "duration": 112, "velocity": 90}, {"time": 54245, "pitch": 74, "duration": 109, "velocity": 110}, {"time": 54245, "pitch": 86, "duration": 109, "velocity": 90}, {"time": 54484, "pitch": 73, "duration": 110, "velocity": 110}, {"time": 54484, "pitch": 85, "duration": 110, "velocity": 90}, {"time": 54723, "pitch": 71, "duration": 110, "velocity": 110}, {"time": 54723, "pitch": 83, "duration": 110, "velocity": 90}, {"time": 54962, "pitch": 69, "duration": 110, "velocity": 110}, {"time": 54962, "pitch": 81, "duration": 110, "velocity": 90}, {"time": 55202, "pitch": 71, "duration": 109, "velocity": 110}, {"time": 55202, "pitch": 83, "duration": 109, "velocity": 90}, {"time": 55441, "pitch": 76, "duration": 109, "velocity": 110}, {"time": 55441, "pitch": 88, "duration": 109, "velocity": 90}, {"time": 61204, "pitch": 64, "duration": 110, "velocity": 110}, {"time": 61204, "pitch": 76, "duration": 110, "velocity": 90}, {"time": 61443, "pitch": 69, "duration": 110, "velocity": 110}, {"time": 61443, "pitch": 81, "duration": 110, "velocity": 90}, {"time": 61682, "pitch": 73, "duration": 110, "velocity": 110}, {"time": 61682, "pitch": 85, "duration": 110, "velocity": 90}, {"time": 61922, "pitch": 74, "duration": 109, "velocity": 110}, {"time": 61922, "pitch": 86, "duration": 109, "velocity": 90}, {"time": 62161, "pitch": 73, "duration": 109, "velocity": 110}, {"time": 62161, "pitch": 85, "duration": 109, "velocity": 90}, {"time": 62400, "pitch": 74, "duration": 110, "velocity": 110}, {"time": 62400, "pitch": 86, "duration": 110, "velocity": 90}, {"time": 62639, "pitch": 76, "duration": 110, "velocity": 110}, {"time": 62639, "pitch": 88, "duration": 110, "velocity": 90}, {"time": 62878, "pitch": 73, "duration": 110, "velocity": 110}, {"time": 62878, "pitch": 85, "duration": 110, "velocity": 90}, {"time": 63118, "pitch": 81, "duration": 109, "velocity": 110}, {"time": 63118, "pitch": 93, "duration": 109, "velocity": 90}, {"time": 76558, "pitch": 64, "duration": 109, "velocity": 110}, {"time": 76558, "pitch": 76, "duration": 109, "velocity": 90}, {"time": 76797, "pitch": 69, "duration": 109, "velocity": 110}, {"time": 76797, "pitch": 81, "duration": 109, "velocity": 90}, {"time": 77036, "pitch": 73, "duration": 110, "velocity": 110}, {"time": 77036, "pitch": 85, "duration": 110, "velocity": 90}, {"time": 77275, "pitch": 74, "duration": 112, "velocity": 110}, {"time": 77275, "pitch": 86, "duration": 112, "velocity": 90}, {"time": 77520, "pitch": 73, "duration": 112, "velocity": 110}, {"time": 77520, "pitch": 85, "duration": 112, "velocity": 90}, {"time": 77765, "pitch": 74, "duration": 109, "velocity": 110}, {"time": 77765, "pitch": 86, "duration": 109, "velocity": 90}, {"time": 78004, "pitch": 78, "duration": 110, "velocity": 110}, {"time": 78004, "pitch": 90, "duration": 110, "velocity": 90}, {"time": 78243, "pitch": 76, "duration": 110, "velocity": 110}, {"time": 78243, "pitch": 88, "duration": 110, "velocity": 90}, {"time": 78482, "pitch": 81, "duration": 110, "velocity": 110}, {"time": 78482, "pitch": 93, "duration": 110, "velocity": 90}, {"time": 80396, "pitch": 64, "duration": 110, "velocity": 110}, {"time": 80396, "pitch": 76, "duration": 110, "velocity": 90}, {"time": 80635, "pitch": 69, "duration": 112, "velocity": 110}, {"time": 80635, "pitch": 81, "duration": 112, "velocity": 90}, {"time": 80880, "pitch": 73, "duration": 112, "velocity": 110}, {"time": 80880, "pitch": 85, "duration": 112, "velocity": 90}, {"time": 81125, "pitch": 74, "duration": 109, "velocity": 110}, {"time": 81125, "pitch": 86, "duration": 109, "velocity": 90}, {"time": 81364, "pitch": 73, "duration": 110, "velocity": 110}, {"time": 81364, "pitch": 85, "duration": 110, "velocity": 90}, {"time": 81603, "pitch": 71, "duration": 110, "velocity": 110}, {"time": 81603, "pitch": 83, "duration": 110, "velocity": 90}, {"time": 81842, "pitch": 69, "duration": 110, "velocity": 110}, {"time": 81842, "pitch": 81, "duration": 110, "velocity": 90}, {"time": 82082, "pitch": 71, "duration": 109, "velocity": 110}, {"time": 82082, "pitch": 83, "duration": 109, "velocity": 90}, {"time": 82321, "pitch": 73, "duration": 109, "velocity": 110}, {"time": 82321, "pitch": 85, "duration": 109, "velocity": 90}, {"time": 84240, "pitch": 69, "duration": 112, "velocity": 110}, {"time": 84240, "pitch": 81, "duration": 112, "velocity": 90}, {"time": 84485, "pitch": 74, "duration": 109, "velocity": 110}, {"time": 84485, "pitch": 86, "duration": 109, "velocity": 90}, {"time": 84724, "pitch": 69, "duration": 110, "velocity": 110}, {"time": 84724, "pitch": 81, "duration": 110, "velocity": 90}, {"time": 84963, "pitch": 77, "duration": 110, "velocity": 110}, {"time": 84963, "pitch": 89, "duration": 110, "velocity": 90}, {"time": 85202, "pitch": 76, "duration": 110, "velocity": 110}, {"time": 85202, "pitch": 88, "duration": 110, "velocity": 90}, {"time": 85442, "pitch": 74, "duration": 109, "velocity": 110}, {"time": 85442, "pitch": 86, "duration": 109, "velocity": 90}, {"time": 85681, "pitch": 73, "duration": 109, "velocity": 110}, {"time": 85681, "pitch": 85, "duration": 109, "velocity": 90}, {"time": 85920, "pitch": 76, "duration": 110, "velocity": 110}, {"time": 85920, "pitch": 88, "duration": 110, "velocity": 90}, {"time": 86159, "pitch": 80, "duration": 110, "velocity": 110}, {"time": 86159, "pitch": 92, "duration": 110, "velocity": 90}, {"time": 88084, "pitch": 80, "duration": 110, "velocity": 110}, {"time": 88084, "pitch": 92, "duration": 110, "velocity": 90}, {"time": 88323, "pitch": 76, "duration": 110, "velocity": 110}, {"time": 88323, "pitch": 88, "duration": 110, "velocity": 90}, {"time": 88562, "pitch": 73, "duration": 110, "velocity": 110}, {"time": 88562, "pitch": 85, "duration": 110, "velocity": 90}, {"time": 88802, "pitch": 78, "duration": 109, "velocity": 110}, {"time": 88802, "pitch": 90, "duration": 109, "velocity": 90}, {"time": 89041, "pitch": 76, "duration": 109, "velocity": 110}, {"time": 89041, "pitch": 88, "duration": 109, "velocity": 90}, {"time": 89280, "pitch": 74, "duration": 110, "velocity": 110}, {"time": 89280, "pitch": 86, "duration": 110, "velocity": 90}, {"time": 89519, "pitch": 73, "duration": 110, "velocity": 110}, {"time": 89519, "pitch": 85, "duration": 110, "velocity": 90}, {"time": 89758, "pitch": 74, "duration": 110, "velocity": 110}, {"time": 89758, "pitch": 86, "duration": 110, "velocity": 90}, {"time": 89998, "pitch": 76, "duration": 109, "velocity": 110}, {"time": 89998, "pitch": 88, "duration": 109, "velocity": 90}, {"time": 91922, "pitch": 64, "duration": 110, "velocity": 110}, {"time": 91922, "pitch": 76, "duration": 110, "velocity": 90}, {"time": 92162, "pitch": 69, "duration": 109, "velocity": 110}, {"time": 92162, "pitch": 81, "duration": 109, "velocity": 90}, {"time": 92401, "pitch": 73, "duration": 109, "velocity": 110}, {"time": 92401, "pitch": 85, "duration": 109, "velocity": 90}, {"time": 92640, "pitch": 74, "duration": 110, "velocity": 110}, {"time": 92640, "pitch": 86, "duration": 110, "velocity": 90}, {"time": 92879, "pitch": 73, "duration": 110, "velocity": 110}, {"time": 92879, "pitch": 85, "duration": 110, "velocity": 90}, {"time": 93118, "pitch": 74, "duration": 110, "velocity": 110}, {"time": 93118, "pitch": 86, "duration": 110, "velocity": 90}, {"time": 93358, "pitch": 78, "duration": 109, "velocity": 110}, {"time": 93358, "pitch": 90, "duration": 109, "velocity": 90}, {"time": 93597, "pitch": 76, "duration": 109, "velocity": 110}, {"time": 93597, "pitch": 88, "duration": 109, "velocity": 90}, {"time": 93836, "pitch": 81, "duration": 110, "velocity": 110}, {"time": 93836, "pitch": 93, "duration": 110, "velocity": 90}, {"time": 130317, "pitch": 64, "duration": 110, "velocity": 110}, {"time": 130317, "pitch": 76, "duration": 110, "velocity": 90}, {"time": 130557, "pitch": 69, "duration": 109, "velocity": 110}, {"time": 130557, "pitch": 81, "duration": 109, "velocity": 90}, {"time": 130796, "pitch": 73, "duration": 110, "velocity": 110}, {"time": 130796, "pitch": 85, "duration": 110, "velocity": 90}, {"time": 131035, "pitch": 74, "duration": 112, "velocity": 110}, {"time": 131035, "pitch": 86, "duration": 112, "velocity": 90}, {"time": 131280, "pitch": 73, "duration": 112, "velocity": 110}, {"time": 131280, "pitch": 85, "duration": 112, "velocity": 90}, {"time": 131525, "pitch": 74, "duration": 109, "velocity": 110}, {"time": 131525, "pitch": 86, "duration": 109, "velocity": 90}, {"time": 131764, "pitch": 78, "duration": 109, "velocity": 110}, {"time": 131764, "pitch": 90, "duration": 109, "velocity": 90}, {"time": 132003, "pitch": 76, "duration": 110, "velocity": 110}, {"time": 132003, "pitch": 88, "duration": 110, "velocity": 90}, {"time": 132242, "pitch": 81, "duration": 110, "velocity": 110}, {"time": 132242, "pitch": 93, "duration": 110, "velocity": 90}, {"time": 134156, "pitch": 64, "duration": 110, "velocity": 110}, {"time": 134156, "pitch": 76, "duration": 110, "velocity": 90}, {"time": 134395, "pitch": 69, "duration": 112, "velocity": 110}, {"time": 134395, "pitch": 81, "duration": 112, "velocity": 90}, {"time": 134640, "pitch": 73, "duration": 112, "velocity": 110}, {"time": 134640, "pitch": 85, "duration": 112, "velocity": 90}, {"time": 134885, "pitch": 74, "duration": 109, "velocity": 110}, {"time": 134885, "pitch": 86, "duration": 109, "velocity": 90}, {"time": 135124, "pitch": 73, "duration": 109, "velocity": 110}, {"time": 135124, "pitch": 85, "duration": 109, "velocity": 90}, {"time": 135363, "pitch": 71, "duration": 110, "velocity": 110}, {"time": 135363, "pitch": 83, "duration": 110, "velocity": 90}, {"time": 135602, "pitch": 69, "duration": 110, "velocity": 110}, {"time": 135602, "pitch": 81, "duration": 110, "velocity": 90}, {"time": 135841, "pitch": 71, "duration": 110, "velocity": 110}, {"time": 135841, "pitch": 83, "duration": 110, "velocity": 90}, {"time": 136081, "pitch": 73, "duration": 109, "velocity": 110}, {"time": 136081, "pitch": 85, "duration": 109, "velocity": 90}, {"time": 138000, "pitch": 69, "duration": 112, "velocity": 110}, {"time": 138000, "pitch": 81, "duration": 112, "velocity": 90}, {"time": 138245, "pitch": 74, "duration": 109, "velocity": 110}, {"time": 138245, "pitch": 86, "duration": 109, "velocity": 90}, {"time": 138484, "pitch": 69, "duration": 109, "velocity": 110}, {"time": 138484, "pitch": 81, "duration": 109, "velocity": 90}, {"time": 138723, "pitch": 77, "duration": 110, "velocity": 110}, {"time": 138723, "pitch": 89, "duration": 110, "velocity": 90}, {"time": 138962, "pitch": 76, "duration": 110, "velocity": 110}, {"time": 138962, "pitch": 88, "duration": 110, "velocity": 90}, {"time": 139201, "pitch": 74, "duration": 110, "velocity": 110}, {"time": 139201, "pitch": 86, "duration": 110, "velocity": 90}, {"time": 139441, "pitch": 73, "duration": 109, "velocity": 110}, {"time": 139441, "pitch": 85, "duration": 109, "velocity": 90}, {"time": 139680, "pitch": 76, "duration": 109, "velocity": 110}, {"time": 139680, "pitch": 88, "duration": 109, "velocity": 90}, {"time": 139919, "pitch": 80, "duration": 110, "velocity": 110}, {"time": 139919, "pitch": 92, "duration": 110, "velocity": 90}, {"time": 141844, "pitch": 80, "duration": 109, "velocity": 110}, {"time": 141844, "pitch": 92, "duration": 109, "velocity": 90}, {"time": 142083, "pitch": 76, "duration": 110, "velocity": 110}, {"time": 142083, "pitch": 88, "duration": 110, "velocity": 90}, {"time": 142322, "pitch": 73, "duration": 110, "velocity": 110}, {"time": 142322, "pitch": 85, "duration": 110, "velocity": 90}, {"time": 142561, "pitch": 78, "duration": 110, "velocity": 110}, {"time": 142561, "pitch": 90, "duration": 110, "velocity": 90}, {"time": 142801, "pitch": 76, "duration": 109, "velocity": 110}, {"time": 142801, "pitch": 88, "duration": 109, "velocity": 90}, {"time": 143040, "pitch": 74, "duration": 109, "velocity": 110}, {"time": 143040, "pitch": 86, "duration": 109, "velocity": 90}, {"time": 143279, "pitch": 73, "duration": 110, "velocity": 110}, {"time": 143279, "pitch": 85, "duration": 110, "velocity": 90}, {"time": 143518, "pitch": 74, "duration": 110, "velocity": 110}, {"time": 143518, "pitch": 86, "duration": 110, "velocity": 90}, {"time": 143757, "pitch": 76, "duration": 110, "velocity": 110}, {"time": 143757, "pitch": 88, "duration": 110, "velocity": 90}, {"time": 145682, "pitch": 64, "duration": 110, "velocity": 110}, {"time": 145682, "pitch": 76, "duration": 110, "velocity": 90}, {"time": 145921, "pitch": 69, "duration": 110, "velocity": 110}, {"time": 145921, "pitch": 81, "duration": 110, "velocity": 90}, {"time": 146161, "pitch": 73, "duration": 109, "velocity": 110}, {"time": 146161, "pitch": 85, "duration": 109, "velocity": 90}, {"time": 146400, "pitch": 74, "duration": 109, "velocity": 110}, {"time": 146400, "pitch": 86, "duration": 109, "velocity": 90}, {"time": 146639, "pitch": 73, "duration": 110, "velocity": 110}, {"time": 146639, "pitch": 85, "duration": 110, "velocity": 90}, {"time": 146878, "pitch": 74, "duration": 110, "velocity": 110}, {"time": 146878, "pitch": 86, "duration": 110, "velocity": 90}, {"time": 147117, "pitch": 78, "duration": 110, "velocity": 110}, {"time": 147117, "pitch": 90, "duration": 110, "velocity": 90}, {"time": 147357, "pitch": 76, "duration": 109, "velocity": 110}, {"time": 147357, "pitch": 88, "duration": 109, "velocity": 90}, {"time": 147596, "pitch": 81, "duration": 109, "velocity": 110}, {"time": 147596, "pitch": 93, "duration": 109, "velocity": 90}, {"time": 149521, "pitch": 64, "duration": 109, "velocity": 110}, {"time": 149521, "pitch": 76, "duration": 109, "velocity": 90}, {"time": 149760, "pitch": 69, "duration": 109, "velocity": 110}, {"time": 149760, "pitch": 81, "duration": 109, "velocity": 90}, {"time": 149999, "pitch": 73, "duration": 110, "velocity": 110}, {"time": 149999, "pitch": 85, "duration": 110, "velocity": 90}, {"time": 150238, "pitch": 74, "duration": 110, "velocity": 110}, {"time": 150238, "pitch": 86, "duration": 110, "velocity": 90}, {"time": 150477, "pitch": 73, "duration": 110, "velocity": 110}, {"time": 150477, "pitch": 85, "duration": 110, "velocity": 90}, {"time": 150717, "pitch": 71, "duration": 109, "velocity": 110}, {"time": 150717, "pitch": 83, "duration": 109, "velocity": 90}, {"time": 150956, "pitch": 69, "duration": 109, "velocity": 110}, {"time": 150956, "pitch": 81, "duration": 109, "velocity": 90}, {"time": 151195, "pitch": 71, "duration": 112, "velocity": 110}, {"time": 151195, "pitch": 83, "duration": 112, "velocity": 90}, {"time": 151440, "pitch": 73, "duration": 112, "velocity": 110}, {"time": 151440, "pitch": 85, "duration": 112, "velocity": 90}, {"time": 153359, "pitch": 69, "duration": 110, "velocity": 110}, {"time": 153359, "pitch": 81, "duration": 110, "velocity": 90}, {"time": 153598, "pitch": 74, "duration": 110, "velocity": 110}, {"time": 153598, "pitch": 86, "duration": 110, "velocity": 90}, {"time": 153837, "pitch": 69, "duration": 110, "velocity": 110}, {"time": 153837, "pitch": 81, "duration": 110, "velocity": 90}, {"time": 154077, "pitch": 77, "duration": 109, "velocity": 110}, {"time": 154077, "pitch": 89, "duration": 109, "velocity": 90}, {"time": 154316, "pitch": 76, "duration": 109, "velocity": 110}, {"time": 154316, "pitch": 88, "duration": 109, "velocity": 90}, {"time": 154555, "pitch": 74, "duration": 112, "velocity": 110}, {"time": 154555, "pitch": 86, "duration": 112, "velocity": 90}, {"time": 154800, "pitch": 73, "duration": 112, "velocity": 110}, {"time": 154800, "pitch": 85, "duration": 112, "velocity": 90}, {"time": 155045, "pitch": 76, "duration": 109, "velocity": 110}, {"time": 155045, "pitch": 88, "duration": 109, "velocity": 90}, {"time": 155284, "pitch": 80, "duration": 109, "velocity": 110}, {"time": 155284, "pitch": 92, "duration": 109, "velocity": 90}, {"time": 157197, "pitch": 80, "duration": 110, "velocity": 110}, {"time": 157197, "pitch": 92, "duration": 110, "velocity": 90}, {"time": 157437, "pitch": 76, "duration": 109, "velocity": 110}, {"time": 157437, "pitch": 88, "duration": 109, "velocity": 90}, {"time": 157676, "pitch": 73, "duration": 109, "velocity": 110}, {"time": 157676, "pitch": 85, "duration": 109, "velocity": 90}, {"time": 157915, "pitch": 78, "duration": 112, "velocity": 110}, {"time": 157915, "pitch": 90, "duration": 112, "velocity": 90}, {"time": 158160, "pitch": 76, "duration": 112, "velocity": 110}, {"time": 158160, "pitch": 88, "duration": 112, "velocity": 90}, {"time": 158405, "pitch": 74, "duration": 109, "velocity": 110}, {"time": 158405, "pitch": 86, "duration": 109, "velocity": 90}, {"time": 158644, "pitch": 73, "duration": 109, "velocity": 110}, {"time": 158644, "pitch": 85, "duration": 109, "velocity": 90}, {"time": 158883, "pitch": 74, "duration": 110, "velocity": 110}, {"time": 158883, "pitch": 86, "duration": 110, "velocity": 90}, {"time": 159122, "pitch": 76, "duration": 110, "velocity": 110}, {"time": 159122, "pitch": 88, "duration": 110, "velocity": 90}, {"time": 161036, "pitch": 64, "duration": 109, "velocity": 110}, {"time": 161036, "pitch": 76, "duration": 109, "velocity": 90}, {"time": 161275, "pitch": 69, "duration": 112, "velocity": 110}, {"time": 161275, "pitch": 81, "duration": 112, "velocity": 90}, {"time": 161520, "pitch": 73, "duration": 112, "velocity": 110}, {"time": 161520, "pitch": 85, "duration": 112, "velocity": 90}, {"time": 161765, "pitch": 74, "duration": 109, "velocity": 110}, {"time": 161765, "pitch": 86, "duration": 109, "velocity": 90}, {"time": 162004, "pitch": 73, "duration": 109, "velocity": 110}, {"time": 162004, "pitch": 85, "duration": 109, "velocity": 90}, {"time": 162243, "pitch": 74, "duration": 110, "velocity": 110}, {"time": 162243, "pitch": 86, "duration": 110, "velocity": 90}, {"time": 162482, "pitch": 78, "duration": 110, "velocity": 110}, {"time": 162482, "pitch": 90, "duration": 110, "velocity": 90}, {"time": 162721, "pitch": 76, "duration": 110, "velocity": 110}, {"time": 162721, "pitch": 88, "duration": 110, "velocity": 90}, {"time": 162961, "pitch": 81, "duration": 109, "velocity": 110}, {"time": 162961, "pitch": 93, "duration": 109, "velocity": 90}, {"time": 191760, "pitch": 64, "duration": 112, "velocity": 110}, {"time": 191760, "pitch": 76, "duration": 112, "velocity": 90}, {"time": 192005, "pitch": 69, "duration": 109, "velocity": 110}, {"time": 192005, "pitch": 81, "duration": 109, "velocity": 90}, {"time": 192244, "pitch": 73, "duration": 109, "velocity": 110}, {"time": 192244, "pitch": 85, "duration": 109, "velocity": 90}, {"time": 192483, "pitch": 74, "duration": 110, "velocity": 110}, {"time": 192483, "pitch": 86, "duration": 110, "velocity": 90}, {"time": 192722, "pitch": 73, "duration": 110, "velocity": 110}, {"time": 192722, "pitch": 85, "duration": 110, "velocity": 90}, {"time": 192961, "pitch": 74, "duration": 110, "velocity": 110}, {"time": 192961, "pitch": 86, "duration": 110, "velocity": 90}, {"time": 193201, "pitch": 78, "duration": 109, "velocity": 110}, {"time": 193201, "pitch": 90, "duration": 109, "velocity": 90}, {"time": 193440, "pitch": 76, "duration": 109, "velocity": 110}, {"time": 193440, "pitch": 88, "duration": 109, "velocity": 90}, {"time": 193679, "pitch": 81, "duration": 110, "velocity": 110}, {"time": 193679, "pitch": 93, "duration": 110, "velocity": 90}, {"time": 195604, "pitch": 64, "duration": 109, "velocity": 110}, {"time": 195604, "pitch": 76, "duration": 109, "velocity": 90}, {"time": 195843, "pitch": 69, "duration": 110, "velocity": 110}, {"time": 195843, "pitch": 81, "duration": 110, "velocity": 90}, {"time": 196082, "pitch": 73, "duration": 110, "velocity": 110}, {"time": 196082, "pitch": 85, "duration": 110, "velocity": 90}, {"time": 196321, "pitch": 74, "duration": 110, "velocity": 110}, {"time": 196321, "pitch": 86, "duration": 110, "velocity": 90}, {"time": 196561, "pitch": 73, "duration": 109, "velocity": 110}, {"time": 196561, "pitch": 85, "duration": 109, "velocity": 90}, {"time": 196800, "pitch": 71, "duration": 109, "velocity": 110}, {"time": 196800, "pitch": 83, "duration": 109, "velocity": 90}, {"time": 197039, "pitch": 69, "duration": 110, "velocity": 110}, {"time": 197039, "pitch": 81, "duration": 110, "velocity": 90}, {"time": 197278, "pitch": 71, "duration": 110, "velocity": 110}, {"time": 197278, "pitch": 83, "duration": 110, "velocity": 90}, {"time": 197517, "pitch": 73, "duration": 110, "velocity": 110}, {"time": 197517, "pitch": 85, "duration": 110, "velocity": 90}, {"time": 199442, "pitch": 69, "duration": 110, "velocity": 110}, {"time": 199442, "pitch": 81, "duration": 110, "velocity": 90}, {"time": 199681, "pitch": 74, "duration": 110, "velocity": 110}, {"time": 199681, "pitch": 86, "duration": 110, "velocity": 90}, {"time": 199921, "pitch": 69, "duration": 109, "velocity": 110}, {"time": 199921, "pitch": 81, "duration": 109, "velocity": 90}, {"time": 200160, "pitch": 77, "duration": 109, "velocity": 110}, {"time": 200160, "pitch": 89, "duration": 109, "velocity": 90}, {"time": 200399, "pitch": 76, "duration": 110, "velocity": 110}, {"time": 200399, "pitch": 88, "duration": 110, "velocity": 90}, {"time": 200638, "pitch": 74, "duration": 110, "velocity": 110}, {"time": 200638, "pitch": 86, "duration": 110, "velocity": 90}, {"time": 200877, "pitch": 73, "duration": 110, "velocity": 110}, {"time": 200877, "pitch": 85, "duration": 110, "velocity": 90}, {"time": 201117, "pitch": 76, "duration": 109, "velocity": 110}, {"time": 201117, "pitch": 88, "duration": 109, "velocity": 90}, {"time": 201356, "pitch": 80, "duration": 109, "velocity": 110}, {"time": 201356, "pitch": 92, "duration": 109, "velocity": 90}, {"time": 203281, "pitch": 80, "duration": 109, "velocity": 110}, {"time": 203281, "pitch": 92, "duration": 109, "velocity": 90}, {"time": 203520, "pitch": 76, "duration": 109, "velocity": 110}, {"time": 203520, "pitch": 88, "duration": 109, "velocity": 90}, {"time": 203759, "pitch": 73, "duration": 110, "velocity": 110}, {"time": 203759, "pitch": 85, "duration": 110, "velocity": 90}, {"time": 203998, "pitch": 78, "duration": 110, "velocity": 110}, {"time": 203998, "pitch": 90, "duration": 110, "velocity": 90}, {"time": 204237, "pitch": 76, "duration": 110, "velocity": 110}, {"time": 204237, "pitch": 88, "duration": 110, "velocity": 90}, {"time": 204477, "pitch": 74, "duration": 109, "velocity": 110}, {"time": 204477, "pitch": 86, "duration": 109, "velocity": 90}, {"time": 204716, "pitch": 73, "duration": 109, "velocity": 110}, {"time": 204716, "pitch": 85, "duration": 109, "velocity": 90}, {"time": 204955, "pitch": 74, "duration": 112, "velocity": 110}, {"time": 204955, "pitch": 86, "duration": 112, "velocity": 90}, {"time": 205200, "pitch": 76, "duration": 112, "velocity": 110}, {"time": 205200, "pitch": 88, "duration": 112, "velocity": 90}, {"time": 207119, "pitch": 64, "duration": 110, "velocity": 110}, {"time": 207119, "pitch": 76, "duration": 110, "velocity": 90}, {"time": 207358, "pitch": 69, "duration": 110, "velocity": 110}, {"time": 207358, "pitch": 81, "duration": 110, "velocity": 90}, {"time": 207597, "pitch": 73, "duration": 110, "velocity": 110}, {"time": 207597, "pitch": 85, "duration": 110, "velocity": 90}, {"time": 207837, "pitch": 74, "duration": 109, "velocity": 110}, {"time": 207837, "pitch": 86, "duration": 109, "velocity": 90}, {"time": 208076, "pitch": 73, "duration": 109, "velocity": 110}, {"time": 208076, "pitch": 85, "duration": 109, "velocity": 90}, {"time": 208315, "pitch": 74, "duration": 112, "velocity": 110}, {"time": 208315, "pitch": 86, "duration": 112, "velocity": 90}, {"time": 208560, "pitch": 78, "duration": 112, "velocity": 110}, {"time": 208560, "pitch": 90, "duration": 112, "velocity": 90}, {"time": 208805, "pitch": 76, "duration": 109, "velocity": 110}, {"time": 208805, "pitch": 88, "duration": 109, "velocity": 90}, {"time": 209044, "pitch": 81, "duration": 109, "velocity": 110}, {"time": 209044, "pitch": 93, "duration": 109, "velocity": 90}, {"time": 210957, "pitch": 64, "duration": 110, "velocity": 110}, {"time": 210957, "pitch": 76, "duration": 110, "velocity": 90}, {"time": 211197, "pitch": 69, "duration": 109, "velocity": 110}, {"time": 211197, "pitch": 81, "duration": 109, "velocity": 90}, {"time": 211436, "pitch": 73, "duration": 109, "velocity": 110}, {"time": 211436, "pitch": 85, "duration": 109, "velocity": 90}, {"time": 211675, "pitch": 74, "duration": 112, "velocity": 110}, {"time": 211675, "pitch": 86, "duration": 112, "velocity": 90}, {"time": 211920, "pitch": 73, "duration": 112, "velocity": 110}, {"time": 211920, "pitch": 85, "duration": 112, "velocity": 90}, {"time": 212165, "pitch": 71, "duration": 109, "velocity": 110}, {"time": 212165, "pitch": 83, "duration": 109, "velocity": 90}, {"time": 212404, "pitch": 69, "duration": 109, "velocity": 110}, {"time": 212404, "pitch": 81, "duration": 109, "velocity": 90}, {"time": 212643, "pitch": 71, "duration": 110, "velocity": 110}, {"time": 212643, "pitch": 83, "duration": 110, "velocity": 90}, {"time": 212882, "pitch": 73, "duration": 110, "velocity": 110}, {"time": 212882, "pitch": 85, "duration": 110, "velocity": 90}, {"time": 214796, "pitch": 69, "duration": 109, "velocity": 110}, {"time": 214796, "pitch": 81, "duration": 109, "velocity": 90}, {"time": 215035, "pitch": 74, "duration": 112, "velocity": 110}, {"time": 215035, "pitch": 86, "duration": 112, "velocity": 90}, {"time": 215280, "pitch": 69, "duration": 112, "velocity": 110}, {"time": 215280, "pitch": 81, "duration": 112, "velocity": 90}, {"time": 215525, "pitch": 77, "duration": 109, "velocity": 110}, {"time": 215525, "pitch": 89, "duration": 109, "velocity": 90}, {"time": 215764, "pitch": 76, "duration": 109, "velocity": 110}, {"time": 215764, "pitch": 88, "duration": 109, "velocity": 90}, {"time": 216003, "pitch": 74, "duration": 110, "velocity": 110}, {"time": 216003, "pitch": 86, "duration": 110, "velocity": 90}, {"time": 216242, "pitch": 73, "duration": 110, "velocity": 110}, {"time": 216242, "pitch": 85, "duration": 110, "velocity": 90}, {"time": 216481, "pitch": 76, "duration": 110, "velocity": 110}, {"time": 216481, "pitch": 88, "duration": 110, "velocity": 90}, {"time": 216721, "pitch": 80, "duration": 109, "velocity": 110}, {"time": 216721, "pitch": 92, "duration": 109, "velocity": 90}, {"time": 218640, "pitch": 80, "duration": 112, "velocity": 110}, {"time": 218640, "pitch": 92, "duration": 112, "velocity": 90}, {"time": 218885, "pitch": 76, "duration": 109, "velocity": 110}, {"time": 218885, "pitch": 88, "duration": 109, "velocity": 90}, {"time": 219124, "pitch": 73, "duration": 109, "velocity": 110}, {"time": 219124, "pitch": 85, "duration": 109, "velocity": 90}, {"time": 219363, "pitch": 78, "duration": 110, "velocity": 110}, {"time": 219363, "pitch": 90, "duration": 110, "velocity": 90}, {"time": 219602, "pitch": 76, "duration": 110, "velocity": 110}, {"time": 219602, "pitch": 88, "duration": 110, "velocity": 90}, {"time": 219841, "pitch": 74, "duration": 110, "velocity": 110}, {"time": 219841, "pitch": 86, "duration": 110, "velocity": 90}, {"time": 220081, "pitch": 73, "duration": 109, "velocity": 110}, {"time": 220081, "pitch": 85, "duration": 109, "velocity": 90}, {"time": 220320, "pitch": 74, "duration": 109, "velocity": 110}, {"time": 220320, "pitch": 86, "duration": 109, "velocity": 90}, {"time": 220559, "pitch": 76, "duration": 110, "velocity": 110}, {"time": 220559, "pitch": 88, "duration": 110, "velocity": 90}, {"time": 222484, "pitch": 64, "duration": 109, "velocity": 110}, {"time": 222484, "pitch": 76, "duration": 109, "velocity": 90}, {"time": 222723, "pitch": 69, "duration": 110, "velocity": 110}, {"time": 222723, "pitch": 81, "duration": 110, "velocity": 90}, {"time": 222962, "pitch": 73, "duration": 110, "velocity": 110}, {"time": 222962, "pitch": 85, "duration": 110, "velocity": 90}, {"time": 223201, "pitch": 74, "duration": 110, "velocity": 110}, {"time": 223201, "pitch": 86, "duration": 110, "velocity": 90}, {"time": 223441, "pitch": 73, "duration": 109, "velocity": 110}, {"time": 223441, "pitch": 85, "duration": 109, "velocity": 90}, {"time": 223680, "pitch": 74, "duration": 109, "velocity": 110}, {"time": 223680, "pitch": 86, "duration": 109, "velocity": 90}, {"time": 223919, "pitch": 78, "duration": 110, "velocity": 110}, {"time": 223919, "pitch": 90, "duration": 110, "velocity": 90}, {"time": 224158, "pitch": 76, "duration": 110, "velocity": 110}, {"time": 224158, "pitch": 88, "duration": 110, "velocity": 90}, {"time": 224397, "pitch": 81, "duration": 110, "velocity": 110}, {"time": 224397, "pitch": 93, "duration": 110, "velocity": 90}, {"time": 1442, "pitch": 64, "duration": 69, "velocity": 70}, {"time": 1442, "pitch": 76, "duration": 69, "velocity": 95}, {"time": 1442, "pitch": 88, "duration": 69, "velocity": 100}, {"time": 1920, "pitch": 64, "duration": 70, "velocity": 75}, {"time": 1920, "pitch": 76, "duration": 70, "velocity": 100}, {"time": 1920, "pitch": 88, "duration": 70, "velocity": 105}, {"time": 2398, "pitch": 64, "duration": 70, "velocity": 70}, {"time": 2398, "pitch": 76, "duration": 70, "velocity": 95}, {"time": 2398, "pitch": 88, "duration": 70, "velocity": 100}, {"time": 2877, "pitch": 64, "duration": 70, "velocity": 75}, {"time": 2877, "pitch": 76, "duration": 70, "velocity": 100}, {"time": 2877, "pitch": 88, "duration": 70, "velocity": 105}, {"time": 3355, "pitch": 64, "duration": 72, "velocity": 70}, {"time": 3355, "pitch": 76, "duration": 72, "velocity": 95}, {"time": 3355, "pitch": 88, "duration": 72, "velocity": 100}, {"time": 3845, "pitch": 64, "duration": 70, "velocity": 75}, {"time": 3845, "pitch": 76, "duration": 70, "velocity": 100}, {"time": 3845, "pitch": 88, "duration": 70, "velocity": 105}, {"time": 4323, "pitch": 64, "duration": 70, "velocity": 70}, {"time": 4323, "pitch": 76, "duration": 70, "velocity": 95}, {"time": 4323, "pitch": 88, "duration": 70, "velocity": 100}, {"time": 4802, "pitch": 64, "duration": 69, "velocity": 75}, {"time": 4802, "pitch": 76, "duration": 69, "velocity": 100}, {"time": 4802, "pitch": 88, "duration": 69, "velocity": 105}, {"time": 5280, "pitch": 64, "duration": 70, "velocity": 70}, {"time": 5280, "pitch": 76, "duration": 70, "velocity": 95}, {"time": 5280, "pitch": 88, "duration": 70, "velocity": 100}, {"time": 5758, "pitch": 64, "duration": 70, "velocity": 75}, {"time": 5758, "pitch": 76, "duration": 70, "velocity": 100}, {"time": 5758, "pitch": 88, "duration": 70, "velocity": 105}, {"time": 6237, "pitch": 64, "duration": 70, "velocity": 70}, {"time": 6237, "pitch": 76, "duration": 70, "velocity": 95}, {"time": 6237, "pitch": 88, "duration": 70, "velocity": 100}, {"time": 6715, "pitch": 64, "duration": 72, "velocity": 75}, {"time": 6715, "pitch": 76, "duration": 72, "velocity": 100}, {"time": 6715, "pitch": 88, "duration": 72, "velocity": 105}, {"time": 7205, "pitch": 64, "duration": 70, "velocity": 70}, {"time": 7205, "pitch": 76, "duration": 70, "velocity": 95}, {"time": 7205, "pitch": 88, "duration": 70, "velocity": 100}, {"time": 7683, "pitch": 64, "duration": 70, "velocity": 75}, {"time": 7683, "pitch": 76, "duration": 70, "velocity": 100}, {"time": 7683, "pitch": 88, "duration": 70, "velocity": 105}, {"time": 8162, "pitch": 64, "duration": 69, "velocity": 70}, {"time": 8162, "pitch": 76, "duration": 69, "velocity": 95}, {"time": 8162, "pitch": 88, "duration": 69, "velocity": 100}, {"time": 8640, "pitch": 64, "duration": 70, "velocity": 75}, {"time": 8640, "pitch": 76, "duration": 70, "velocity": 100}, {"time": 8640, "pitch": 88, "duration": 70, "velocity": 105}, {"time": 9118, "pitch": 64, "duration": 70, "velocity": 70}, {"time": 9118, "pitch": 76, "duration": 70, "velocity": 95}, {"time": 9118, "pitch": 88, "duration": 70, "velocity": 100}, {"time": 9597, "pitch": 64, "duration": 70, "velocity": 75}, {"time": 9597, "pitch": 76, "duration": 70, "velocity": 100}, {"time": 9597, "pitch": 88, "duration": 70, "velocity": 105}, {"time": 10075, "pitch": 64, "duration": 72, "velocity": 70}, {"time": 10075, "pitch": 76, "duration": 72, "velocity": 95}, {"time": 10075, "pitch": 88, "duration": 72, "velocity": 100}, {"time": 10565, "pitch": 64, "duration": 70, "velocity": 75}, {"time": 10565, "pitch": 76, "duration": 70, "velocity": 100}, {"time": 10565, "pitch": 88, "duration": 70, "velocity": 105}, {"time": 11043, "pitch": 64, "duration": 70, "velocity": 70}, {"time": 11043, "pitch": 76, "duration": 70, "velocity": 95}, {"time": 11043, "pitch": 88, "duration": 70, "velocity": 100}, {"time": 11522, "pitch": 64, "duration": 69, "velocity": 75}, {"time": 11522, "pitch": 76, "duration": 69, "velocity": 100}, {"time": 11522, "pitch": 88, "duration": 69, "velocity": 105}, {"time": 12000, "pitch": 64, "duration": 70, "velocity": 70}, {"time": 12000, "pitch": 76, "duration": 70, "velocity": 95}, {"time": 12000, "pitch": 88, "duration": 70, "velocity": 100}, {"time": 12478, "pitch": 64, "duration": 70, "velocity": 75}, {"time": 12478, "pitch": 76, "duration": 70, "velocity": 100}, {"time": 12478, "pitch": 88, "duration": 70, "velocity": 105}, {"time": 12957, "pitch": 64, "duration": 70, "velocity": 70}, {"time": 12957, "pitch": 76, "duration": 70, "velocity": 95}, {"time": 12957, "pitch": 88, "duration": 70, "velocity": 100}, {"time": 13435, "pitch": 64, "duration": 72, "velocity": 75}, {"time": 13435, "pitch": 76, "duration": 72, "velocity": 100}, {"time": 13435, "pitch": 88, "duration": 72, "velocity": 105}, {"time": 13925, "pitch": 57, "duration": 70, "velocity": 70}, {"time": 13925, "pitch": 69, "duration": 70, "velocity": 95}, {"time": 13925, "pitch": 81, "duration": 70, "velocity": 100}, {"time": 14164, "pitch": 49, "duration": 70, "velocity": 75}, {"time": 14164, "pitch": 61, "duration": 70, "velocity": 100}, {"time": 14164, "pitch": 73, "duration": 70, "velocity": 105}, {"time": 14403, "pitch": 50, "duration": 70, "velocity": 70}, {"time": 14403, "pitch": 62, "duration": 70, "velocity": 95}, {"time": 14403, "pitch": 74, "duration": 70, "velocity": 100}, {"time": 14642, "pitch": 52, "duration": 70, "velocity": 75}, {"time": 14642, "pitch": 64, "duration": 70, "velocity": 100}, {"time": 14642, "pitch": 76, "duration": 70, "velocity": 105}, {"time": 15360, "pitch": 52, "duration": 1425, "velocity": 70}, {"time": 15360, "pitch": 64, "duration": 1425, "velocity": 95}, {"time": 15360, "pitch": 76, "duration": 1425, "velocity": 100}, {"time": 119041, "pitch": 52, "duration": 469, "velocity": 50}, {"time": 119041, "pitch": 64, "duration": 469, "velocity": 75}, {"time": 119041, "pitch": 76, "duration": 469, "velocity": 80}, {"time": 119520, "pitch": 54, "duration": 468, "velocity": 55}, {"time": 119520, "pitch": 66, "duration": 468, "velocity": 80}, {"time": 119520, "pitch": 78, "duration": 468, "velocity": 85}, {"time": 119998, "pitch": 56, "duration": 469, "velocity": 50}, {"time": 119998, "pitch": 68, "duration": 469, "velocity": 75}, {"time": 119998, "pitch": 80, "duration": 469, "velocity": 80}, {"time": 120477, "pitch": 59, "duration": 2393, "velocity": 55}, {"time": 120477, "pitch": 71, "duration": 2393, "velocity": 80}, {"time": 120477, "pitch": 83, "duration": 2393, "velocity": 85}, {"time": 122880, "pitch": 58, "duration": 468, "velocity": 50}, {"time": 122880, "pitch": 70, "duration": 468, "velocity": 75}, {"time": 122880, "pitch": 82, "duration": 468, "velocity": 80}, {"time": 123358, "pitch": 57, "duration": 469, "velocity": 55}, {"time": 123358, "pitch": 69, "duration": 469, "velocity": 80}, {"time": 123358, "pitch": 81, "duration": 469, "velocity": 85}, {"time": 123837, "pitch": 56, "duration": 468, "velocity": 50}, {"time": 123837, "pitch": 68, "duration": 468, "velocity": 75}, {"time": 123837, "pitch": 80, "duration": 468, "velocity": 80}, {"time": 124315, "pitch": 54, "duration": 2393, "velocity": 50}, {"time": 124315, "pitch": 66, "duration": 2393, "velocity": 75}, {"time": 124315, "pitch": 78, "duration": 2393, "velocity": 80}, {"time": 126718, "pitch": 56, "duration": 469, "velocity": 55}, {"time": 126718, "pitch": 68, "duration": 469, "velocity": 80}, {"time": 126718, "pitch": 80, "duration": 469, "velocity": 85}, {"time": 127197, "pitch": 57, "duration": 468, "velocity": 60}, {"time": 127197, "pitch": 69, "duration": 468, "velocity": 85}, {"time": 127197, "pitch": 81, "duration": 468, "velocity": 90}, {"time": 127675, "pitch": 59, "duration": 480, "velocity": 55}, {"time": 127675, "pitch": 71, "duration": 480, "velocity": 80}, {"time": 127675, "pitch": 83, "duration": 480, "velocity": 85}, {"time": 128165, "pitch": 60, "duration": 1186, "velocity": 50}, {"time": 128165, "pitch": 72, "duration": 1186, "velocity": 75}, {"time": 128165, "pitch": 84, "duration": 1186, "velocity": 80}, {"time": 129361, "pitch": 62, "duration": 468, "velocity": 55}, {"time": 129361, "pitch": 74, "duration": 468, "velocity": 80}, {"time": 129361, "pitch": 86, "duration": 468, "velocity": 85}, {"time": 129839, "pitch": 64, "duration": 708, "velocity": 50}, {"time": 129839, "pitch": 76, "duration": 708, "velocity": 75}, {"time": 129839, "pitch": 88, "duration": 708, "velocity": 80}, {"time": 130557, "pitch": 62, "duration": 468, "velocity": 55}, {"time": 130557, "pitch": 74, "duration": 468, "velocity": 80}, {"time": 130557, "pitch": 86, "duration": 468, "velocity": 85}, {"time": 131035, "pitch": 57, "duration": 480, "velocity": 60}, {"time": 131035, "pitch": 69, "duration": 480, "velocity": 85}, {"time": 131035, "pitch": 81, "duration": 480, "velocity": 90}, {"time": 131525, "pitch": 59, "duration": 468, "velocity": 55}, {"time": 131525, "pitch": 71, "duration": 468, "velocity": 80}, {"time": 131525, "pitch": 83, "duration": 468, "velocity": 85}, {"time": 132003, "pitch": 64, "duration": 2382, "velocity": 60}, {"time": 132003, "pitch": 76, "duration": 2382, "velocity": 85}, {"time": 132003, "pitch": 88, "duration": 2382, "velocity": 90}, {"time": 134395, "pitch": 52, "duration": 480, "velocity": 55}, {"time": 134395, "pitch": 64, "duration": 480, "velocity": 80}, {"time": 134395, "pitch": 76, "duration": 480, "velocity": 85}, {"time": 134885, "pitch": 57, "duration": 468, "velocity": 60}, {"time": 134885, "pitch": 69, "duration": 468, "velocity": 85}, {"time": 134885, "pitch": 81, "duration": 468, "velocity": 90}, {"time": 135363, "pitch": 61, "duration": 468, "velocity": 65}, {"time": 135363, "pitch": 73, "duration": 468, "velocity": 90}, {"time": 135363, "pitch": 85, "duration": 468, "velocity": 95}, {"time": 135841, "pitch": 64, "duration": 708, "velocity": 60}, {"time": 135841, "pitch": 76, "duration": 708, "velocity": 85}, {"time": 135841, "pitch": 88, "duration": 708, "velocity": 90}, {"time": 136559, "pitch": 62, "duration": 469, "velocity": 65}, {"time": 136559, "pitch": 74, "duration": 469, "velocity": 90}, {"time": 136559, "pitch": 86, "duration": 469, "velocity": 95}, {"time": 137037, "pitch": 64, "duration": 469, "velocity": 60}, {"time": 137037, "pitch": 76, "duration": 469, "velocity": 85}, {"time": 137037, "pitch": 88, "duration": 469, "velocity": 90}, {"time": 137516, "pitch": 65, "duration": 958, "velocity": 65}, {"time": 137516, "pitch": 77, "duration": 958, "velocity": 90}, {"time": 137516, "pitch": 89, "duration": 958, "velocity": 95}, {"time": 138484, "pitch": 64, "duration": 468, "velocity": 60}, {"time": 138484, "pitch": 76, "duration": 468, "velocity": 85}, {"time": 138484, "pitch": 88, "duration": 468, "velocity": 90}, {"time": 138962, "pitch": 62, "duration": 469, "velocity": 65}, {"time": 138962, "pitch": 74, "duration": 469, "velocity": 90}, {"time": 138962, "pitch": 86, "duration": 469, "velocity": 95}, {"time": 139441, "pitch": 61, "duration": 1186, "velocity": 60}, {"time": 139441, "pitch": 73, "duration": 1186, "velocity": 85}, {"time": 139441, "pitch": 85, "duration": 1186, "velocity": 90}, {"time": 140637, "pitch": 61, "duration": 229, "velocity": 50}, {"time": 140637, "pitch": 73, "duration": 229, "velocity": 75}, {"time": 140637, "pitch": 85, "duration": 229, "velocity": 80}, {"time": 140876, "pitch": 60, "duration": 229, "velocity": 55}, {"time": 140876, "pitch": 72, "duration": 229, "velocity": 80}, {"time": 140876, "pitch": 84, "duration": 229, "velocity": 85}, {"time": 141115, "pitch": 59, "duration": 235, "velocity": 60}, {"time": 141115, "pitch": 71, "duration": 235, "velocity": 85}, {"time": 141115, "pitch": 83, "duration": 235, "velocity": 90}, {"time": 141360, "pitch": 58, "duration": 1191, "velocity": 55}, {"time": 141360, "pitch": 70, "duration": 1191, "velocity": 80}, {"time": 141360, "pitch": 82, "duration": 1191, "velocity": 85}, {"time": 142561, "pitch": 58, "duration": 230, "velocity": 60}, {"time": 142561, "pitch": 70, "duration": 230, "velocity": 85}, {"time": 142561, "pitch": 82, "duration": 230, "velocity": 90}, {"time": 142801, "pitch": 59, "duration": 229, "velocity": 55}, {"time": 142801, "pitch": 71, "duration": 229, "velocity": 80}, {"time": 142801, "pitch": 83, "duration": 229, "velocity": 85}, {"time": 143040, "pitch": 61, "duration": 229, "velocity": 60}, {"time": 143040, "pitch": 73, "duration": 229, "velocity": 85}, {"time": 143040, "pitch": 85, "duration": 229, "velocity": 90}, {"time": 143279, "pitch": 62, "duration": 708, "velocity": 55}, {"time": 143279, "pitch": 74, "duration": 708, "velocity": 80}, {"time": 143279, "pitch": 86, "duration": 708, "velocity": 85}, {"time": 143997, "pitch": 61, "duration": 229, "velocity": 60}, {"time": 143997, "pitch": 73, "duration": 229, "velocity": 85}, {"time": 143997, "pitch": 85, "duration": 229, "velocity": 90}, {"time": 144236, "pitch": 62, "duration": 474, "velocity": 55}, {"time": 144236, "pitch": 74, "duration": 474, "velocity": 80}, {"time": 144236, "pitch": 86, "duration": 474, "velocity": 85}, {"time": 144720, "pitch": 64, "duration": 474, "velocity": 60}, {"time": 144720, "pitch": 76, "duration": 474, "velocity": 85}, {"time": 144720, "pitch": 88, "duration": 474, "velocity": 90}, {"time": 145204, "pitch": 66, "duration": 707, "velocity": 55}, {"time": 145204, "pitch": 78, "duration": 707, "velocity": 80}, {"time": 145204, "pitch": 90, "duration": 707, "velocity": 85}, {"time": 145921, "pitch": 64, "duration": 230, "velocity": 60}, {"time": 145921, "pitch": 76, "duration": 230, "velocity": 85}, {"time": 145921, "pitch": 88, "duration": 230, "velocity": 90}, {"time": 146161, "pitch": 52, "duration": 468, "velocity": 55}, {"time": 146161, "pitch": 64, "duration": 468, "velocity": 80}, {"time": 146161, "pitch": 76, "duration": 468, "velocity": 85}, {"time": 146639, "pitch": 49, "duration": 110, "velocity": 60}, {"time": 146639, "pitch": 61, "duration": 110, "velocity": 85}, {"time": 146639, "pitch": 73, "duration": 110, "velocity": 90}, {"time": 146759, "pitch": 50, "duration": 109, "velocity": 55}, {"time": 146759, "pitch": 62, "duration": 109, "velocity": 80}, {"time": 146759, "pitch": 74, "duration": 109, "velocity": 85}, {"time": 146878, "pitch": 52, "duration": 70, "velocity": 60}, {"time": 146878, "pitch": 64, "duration": 70, "velocity": 85}, {"time": 146878, "pitch": 76, "duration": 70, "velocity": 90}, {"time": 146958, "pitch": 54, "duration": 70, "velocity": 50}, {"time": 146958, "pitch": 66, "duration": 70, "velocity": 75}, {"time": 146958, "pitch": 78, "duration": 70, "velocity": 80}, {"time": 147038, "pitch": 56, "duration": 69, "velocity": 55}, {"time": 147038, "pitch": 68, "duration": 69, "velocity": 80}, {"time": 147038, "pitch": 80, "duration": 69, "velocity": 85}, {"time": 147117, "pitch": 57, "duration": 50, "velocity": 60}, {"time": 147117, "pitch": 69, "duration": 50, "velocity": 85}, {"time": 147117, "pitch": 81, "duration": 50, "velocity": 90}, {"time": 147177, "pitch": 59, "duration": 50, "velocity": 65}, {"time": 147177, "pitch": 71, "duration": 50, "velocity": 90}, {"time": 147177, "pitch": 83, "duration": 50, "velocity": 95}, {"time": 147237, "pitch": 61, "duration": 50, "velocity": 65}, {"time": 147237, "pitch": 73, "duration": 50, "velocity": 90}, {"time": 147237, "pitch": 85, "duration": 50, "velocity": 95}, {"time": 147297, "pitch": 62, "duration": 50, "velocity": 65}, {"time": 147297, "pitch": 74, "duration": 50, "velocity": 90}, {"time": 147297, "pitch": 86, "duration": 50, "velocity": 95}, {"time": 147357, "pitch": 64, "duration": 2393, "velocity": 55}, {"time": 147357, "pitch": 76, "duration": 2393, "velocity": 80}, {"time": 147357, "pitch": 88, "duration": 2393, "velocity": 85}, {"time": 149760, "pitch": 52, "duration": 468, "velocity": 60}, {"time": 149760, "pitch": 64, "duration": 468, "velocity": 85}, {"time": 149760, "pitch": 76, "duration": 468, "velocity": 90}, {"time": 150238, "pitch": 57, "duration": 469, "velocity": 55}, {"time": 150238, "pitch": 69, "duration": 469, "velocity": 80}, {"time": 150238, "pitch": 81, "duration": 469, "velocity": 85}, {"time": 150717, "pitch": 61, "duration": 468, "velocity": 60}, {"time": 150717, "pitch": 73, "duration": 468, "velocity": 85}, {"time": 150717, "pitch": 85, "duration": 468, "velocity": 90}, {"time": 151195, "pitch": 64, "duration": 719, "velocity": 50}, {"time": 151195, "pitch": 76, "duration": 719, "velocity": 75}, {"time": 151195, "pitch": 88, "duration": 719, "velocity": 80}, {"time": 151924, "pitch": 62, "duration": 468, "velocity": 60}, {"time": 151924, "pitch": 74, "duration": 468, "velocity": 85}, {"time": 151924, "pitch": 86, "duration": 468, "velocity": 90}, {"time": 152402, "pitch": 64, "duration": 469, "velocity": 50}, {"time": 152402, "pitch": 76, "duration": 469, "velocity": 75}, {"time": 152402, "pitch": 88, "duration": 469, "velocity": 80}, {"time": 152881, "pitch": 65, "duration": 946, "velocity": 60}, {"time": 152881, "pitch": 77, "duration": 946, "velocity": 85}, {"time": 152881, "pitch": 89, "duration": 946, "velocity": 90}, {"time": 153837, "pitch": 64, "duration": 469, "velocity": 55}, {"time": 153837, "pitch": 76, "duration": 469, "velocity": 80}, {"time": 153837, "pitch": 88, "duration": 469, "velocity": 85}, {"time": 154316, "pitch": 62, "duration": 474, "velocity": 60}, {"time": 154316, "pitch": 74, "duration": 474, "velocity": 85}, {"time": 154316, "pitch": 86, "duration": 474, "velocity": 90}, {"time": 154800, "pitch": 61, "duration": 1191, "velocity": 60}, {"time": 154800, "pitch": 73, "duration": 1191, "velocity": 85}, {"time": 154800, "pitch": 85, "duration": 1191, "velocity": 90}, {"time": 156001, "pitch": 61, "duration": 230, "velocity": 55}, {"time": 156001, "pitch": 73, "duration": 230, "velocity": 80}, {"time": 156001, "pitch": 85, "duration": 230, "velocity": 85}, {"time": 156241, "pitch": 60, "duration": 229, "velocity": 60}, {"time": 156241, "pitch": 72, "duration": 229, "velocity": 85}, {"time": 156241, "pitch": 84, "duration": 229, "velocity": 90}, {"time": 156480, "pitch": 59, "duration": 229, "velocity": 55}, {"time": 156480, "pitch": 71, "duration": 229, "velocity": 80}, {"time": 156480, "pitch": 83, "duration": 229, "velocity": 85}, {"time": 156719, "pitch": 58, "duration": 1186, "velocity": 60}, {"time": 156719, "pitch": 70, "duration": 1186, "velocity": 85}, {"time": 156719, "pitch": 82, "duration": 1186, "velocity": 90}, {"time": 157915, "pitch": 58, "duration": 235, "velocity": 55}, {"time": 157915, "pitch": 70, "duration": 235, "velocity": 80}, {"time": 157915, "pitch": 82, "duration": 235, "velocity": 85}, {"time": 158160, "pitch": 59, "duration": 235, "velocity": 60}, {"time": 158160, "pitch": 71, "duration": 235, "velocity": 85}, {"time": 158160, "pitch": 83, "duration": 235, "velocity": 90}, {"time": 158405, "pitch": 61, "duration": 229, "velocity": 55}, {"time": 158405, "pitch": 73, "duration": 229, "velocity": 80}, {"time": 158405, "pitch": 85, "duration": 229, "velocity": 85}, {"time": 158644, "pitch": 62, "duration": 707, "velocity": 60}, {"time": 158644, "pitch": 74, "duration": 707, "velocity": 85}, {"time": 158644, "pitch": 86, "duration": 707, "velocity": 90}, {"time": 159361, "pitch": 61, "duration": 230, "velocity": 55}, {"time": 159361, "pitch": 73, "duration": 230, "velocity": 80}, {"time": 159361, "pitch": 85, "duration": 230, "velocity": 85}, {"time": 159601, "pitch": 62, "duration": 468, "velocity": 60}, {"time": 159601, "pitch": 74, "duration": 468, "velocity": 85}, {"time": 159601, "pitch": 86, "duration": 468, "velocity": 90}, {"time": 160079, "pitch": 64, "duration": 468, "velocity": 55}, {"time": 160079, "pitch": 76, "duration": 468, "velocity": 80}, {"time": 160079, "pitch": 88, "duration": 468, "velocity": 85}, {"time": 160557, "pitch": 66, "duration": 708, "velocity": 60}, {"time": 160557, "pitch": 78, "duration": 708, "velocity": 85}, {"time": 160557, "pitch": 90, "duration": 708, "velocity": 90}, {"time": 161275, "pitch": 64, "duration": 235, "velocity": 55}, {"time": 161275, "pitch": 76, "duration": 235, "velocity": 80}, {"time": 161275, "pitch": 88, "duration": 235, "velocity": 85}, {"time": 161520, "pitch": 52, "duration": 474, "velocity": 60}, {"time": 161520, "pitch": 64, "duration": 474, "velocity": 85}, {"time": 161520, "pitch": 76, "duration": 474, "velocity": 90}, {"time": 162004, "pitch": 49, "duration": 109, "velocity": 55}, {"time": 162004, "pitch": 61, "duration": 109, "velocity": 80}, {"time": 162004, "pitch": 73, "duration": 109, "velocity": 85}, {"time": 162123, "pitch": 50, "duration": 110, "velocity": 60}, {"time": 162123, "pitch": 62, "duration": 110, "velocity": 85}, {"time": 162123, "pitch": 74, "duration": 110, "velocity": 90}, {"time": 162243, "pitch": 52, "duration": 70, "velocity": 55}, {"time": 162243, "pitch": 64, "duration": 70, "velocity": 80}, {"time": 162243, "pitch": 76, "duration": 70, "velocity": 85}, {"time": 162323, "pitch": 54, "duration": 70, "velocity": 60}, {"time": 162323, "pitch": 66, "duration": 70, "velocity": 85}, {"time": 162323, "pitch": 78, "duration": 70, "velocity": 90}, {"time": 162402, "pitch": 56, "duration": 70, "velocity": 55}, {"time": 162402, "pitch": 68, "duration": 70, "velocity": 80}, {"time": 162402, "pitch": 80, "duration": 70, "velocity": 85}, {"time": 162482, "pitch": 57, "duration": 50, "velocity": 60}, {"time": 162482, "pitch": 69, "duration": 50, "velocity": 85}, {"time": 162482, "pitch": 81, "duration": 50, "velocity": 90}, {"time": 162542, "pitch": 59, "duration": 50, "velocity": 65}, {"time": 162542, "pitch": 71, "duration": 50, "velocity": 90}, {"time": 162542, "pitch": 83, "duration": 50, "velocity": 95}, {"time": 162602, "pitch": 61, "duration": 50, "velocity": 65}, {"time": 162602, "pitch": 73, "duration": 50, "velocity": 90}, {"time": 162602, "pitch": 85, "duration": 50, "velocity": 95}, {"time": 162662, "pitch": 62, "duration": 49, "velocity": 65}, {"time": 162662, "pitch": 74, "duration": 49, "velocity": 90}, {"time": 162662, "pitch": 86, "duration": 49, "velocity": 95}, {"time": 162721, "pitch": 64, "duration": 70, "velocity": 65}, {"time": 162721, "pitch": 76, "duration": 70, "velocity": 90}, {"time": 162721, "pitch": 88, "duration": 70, "velocity": 95}, {"time": 163200, "pitch": 64, "duration": 70, "velocity": 70}, {"time": 163200, "pitch": 76, "duration": 70, "velocity": 95}, {"time": 163200, "pitch": 88, "duration": 70, "velocity": 100}, {"time": 163678, "pitch": 64, "duration": 70, "velocity": 65}, {"time": 163678, "pitch": 76, "duration": 70, "velocity": 90}, {"time": 163678, "pitch": 88, "duration": 70, "velocity": 95}, {"time": 164157, "pitch": 64, "duration": 69, "velocity": 70}, {"time": 164157, "pitch": 76, "duration": 69, "velocity": 95}, {"time": 164157, "pitch": 88, "duration": 69, "velocity": 100}, {"time": 164635, "pitch": 64, "duration": 71, "velocity": 65}, {"time": 164635, "pitch": 76, "duration": 71, "velocity": 90}, {"time": 164635, "pitch": 88, "duration": 71, "velocity": 95}, {"time": 165125, "pitch": 64, "duration": 69, "velocity": 70}, {"time": 165125, "pitch": 76, "duration": 69, "velocity": 95}, {"time": 165125, "pitch": 88, "duration": 69, "velocity": 100}, {"time": 165603, "pitch": 64, "duration": 70, "velocity": 65}, {"time": 165603, "pitch": 76, "duration": 70, "velocity": 90}, {"time": 165603, "pitch": 88, "duration": 70, "velocity": 95}, {"time": 166081, "pitch": 64, "duration": 70, "velocity": 70}, {"time": 166081, "pitch": 76, "duration": 70, "velocity": 95}, {"time": 166081, "pitch": 88, "duration": 70, "velocity": 100}, {"time": 166560, "pitch": 64, "duration": 70, "velocity": 65}, {"time": 166560, "pitch": 76, "duration": 70, "velocity": 90}, {"time": 166560, "pitch": 88, "duration": 70, "velocity": 95}, {"time": 167038, "pitch": 64, "duration": 70, "velocity": 70}, {"time": 167038, "pitch": 76, "duration": 70, "velocity": 95}, {"time": 167038, "pitch": 88, "duration": 70, "velocity": 100}, {"time": 167517, "pitch": 64, "duration": 69, "velocity": 65}, {"time": 167517, "pitch": 76, "duration": 69, "velocity": 90}, {"time": 167517, "pitch": 88, "duration": 69, "velocity": 95}, {"time": 167995, "pitch": 64, "duration": 71, "velocity": 70}, {"time": 167995, "pitch": 76, "duration": 71, "velocity": 95}, {"time": 167995, "pitch": 88, "duration": 71, "velocity": 100}, {"time": 168485, "pitch": 64, "duration": 69, "velocity": 65}, {"time": 168485, "pitch": 76, "duration": 69, "velocity": 90}, {"time": 168485, "pitch": 88, "duration": 69, "velocity": 95}, {"time": 168963, "pitch": 64, "duration": 70, "velocity": 70}, {"time": 168963, "pitch": 76, "duration": 70, "velocity": 95}, {"time": 168963, "pitch": 88, "duration": 70, "velocity": 100}, {"time": 169441, "pitch": 64, "duration": 70, "velocity": 65}, {"time": 169441, "pitch": 76, "duration": 70, "velocity": 90}, {"time": 169441, "pitch": 88, "duration": 70, "velocity": 95}, {"time": 169920, "pitch": 64, "duration": 70, "velocity": 70}, {"time": 169920, "pitch": 76, "duration": 70, "velocity": 95}, {"time": 169920, "pitch": 88, "duration": 70, "velocity": 100}, {"time": 170398, "pitch": 64, "duration": 70, "velocity": 65}, {"time": 170398, "pitch": 76, "duration": 70, "velocity": 90}, {"time": 170398, "pitch": 88, "duration": 70, "velocity": 95}, {"time": 170877, "pitch": 64, "duration": 69, "velocity": 70}, {"time": 170877, "pitch": 76, "duration": 69, "velocity": 95}, {"time": 170877, "pitch": 88, "duration": 69, "velocity": 100}, {"time": 171355, "pitch": 64, "duration": 71, "velocity": 65}, {"time": 171355, "pitch": 76, "duration": 71, "velocity": 90}, {"time": 171355, "pitch": 88, "duration": 71, "velocity": 95}, {"time": 171845, "pitch": 64, "duration": 69, "velocity": 70}, {"time": 171845, "pitch": 76, "duration": 69, "velocity": 95}, {"time": 171845, "pitch": 88, "duration": 69, "velocity": 100}, {"time": 172323, "pitch": 64, "duration": 70, "velocity": 65}, {"time": 172323, "pitch": 76, "duration": 70, "velocity": 90}, {"time": 172323, "pitch": 88, "duration": 70, "velocity": 95}, {"time": 172801, "pitch": 64, "duration": 70, "velocity": 70}, {"time": 172801, "pitch": 76, "duration": 70, "velocity": 95}, {"time": 172801, "pitch": 88, "duration": 70, "velocity": 100}, {"time": 173280, "pitch": 64, "duration": 70, "velocity": 65}, {"time": 173280, "pitch": 76, "duration": 70, "velocity": 90}, {"time": 173280, "pitch": 88, "duration": 70, "velocity": 95}, {"time": 173758, "pitch": 64, "duration": 70, "velocity": 70}, {"time": 173758, "pitch": 76, "duration": 70, "velocity": 95}, {"time": 173758, "pitch": 88, "duration": 70, "velocity": 100}, {"time": 174237, "pitch": 64, "duration": 69, "velocity": 65}, {"time": 174237, "pitch": 76, "duration": 69, "velocity": 90}, {"time": 174237, "pitch": 88, "duration": 69, "velocity": 95}, {"time": 174715, "pitch": 64, "duration": 71, "velocity": 70}, {"time": 174715, "pitch": 76, "duration": 71, "velocity": 95}, {"time": 174715, "pitch": 88, "duration": 71, "velocity": 100}, {"time": 175205, "pitch": 57, "duration": 69, "velocity": 65}, {"time": 175205, "pitch": 69, "duration": 69, "velocity": 90}, {"time": 175205, "pitch": 81, "duration": 69, "velocity": 95}, {"time": 175444, "pitch": 49, "duration": 70, "velocity": 70}, {"time": 175444, "pitch": 61, "duration": 70, "velocity": 95}, {"time": 175444, "pitch": 73, "duration": 70, "velocity": 100}, {"time": 175683, "pitch": 50, "duration": 70, "velocity": 65}, {"time": 175683, "pitch": 62, "duration": 70, "velocity": 90}, {"time": 175683, "pitch": 74, "duration": 70, "velocity": 95}, {"time": 175922, "pitch": 52, "duration": 70, "velocity": 70}, {"time": 175922, "pitch": 64, "duration": 70, "velocity": 95}, {"time": 175922, "pitch": 76, "duration": 70, "velocity": 100}, {"time": 176640, "pitch": 52, "duration": 1425, "velocity": 70}, {"time": 176640, "pitch": 64, "duration": 1425, "velocity": 95}, {"time": 176640, "pitch": 76, "duration": 1425, "velocity": 100}, {"time": 180478, "pitch": 52, "duration": 469, "velocity": 50}, {"time": 180478, "pitch": 64, "duration": 469, "velocity": 75}, {"time": 180478, "pitch": 76, "duration": 469, "velocity": 80}, {"time": 180957, "pitch": 54, "duration": 468, "velocity": 55}, {"time": 180957, "pitch": 66, "duration": 468, "velocity": 80}, {"time": 180957, "pitch": 78, "duration": 468, "velocity": 85}, {"time": 181435, "pitch": 56, "duration": 480, "velocity": 50}, {"time": 181435, "pitch": 68, "duration": 480, "velocity": 75}, {"time": 181435, "pitch": 80, "duration": 480, "velocity": 80}, {"time": 181925, "pitch": 59, "duration": 2382, "velocity": 55}, {"time": 181925, "pitch": 71, "duration": 2382, "velocity": 80}, {"time": 181925, "pitch": 83, "duration": 2382, "velocity": 85}, {"time": 184317, "pitch": 58, "duration": 468, "velocity": 50}, {"time": 184317, "pitch": 70, "duration": 468, "velocity": 75}, {"time": 184317, "pitch": 82, "duration": 468, "velocity": 80}, {"time": 184795, "pitch": 57, "duration": 480, "velocity": 55}, {"time": 184795, "pitch": 69, "duration": 480, "velocity": 80}, {"time": 184795, "pitch": 81, "duration": 480, "velocity": 85}, {"time": 185285, "pitch": 56, "duration": 468, "velocity": 50}, {"time": 185285, "pitch": 68, "duration": 468, "velocity": 75}, {"time": 185285, "pitch": 80, "duration": 468, "velocity": 80}, {"time": 185763, "pitch": 54, "duration": 2382, "velocity": 50}, {"time": 185763, "pitch": 66, "duration": 2382, "velocity": 75}, {"time": 185763, "pitch": 78, "duration": 2382, "velocity": 80}, {"time": 188155, "pitch": 56, "duration": 479, "velocity": 55}, {"time": 188155, "pitch": 68, "duration": 479, "velocity": 80}, {"time": 188155, "pitch": 80, "duration": 479, "velocity": 85}, {"time": 188645, "pitch": 57, "duration": 468, "velocity": 60}, {"time": 188645, "pitch": 69, "duration": 468, "velocity": 85}, {"time": 188645, "pitch": 81, "duration": 468, "velocity": 90}, {"time": 189123, "pitch": 59, "duration": 468, "velocity": 55}, {"time": 189123, "pitch": 71, "duration": 468, "velocity": 80}, {"time": 189123, "pitch": 83, "duration": 468, "velocity": 85}, {"time": 189601, "pitch": 60, "duration": 1186, "velocity": 50}, {"time": 189601, "pitch": 72, "duration": 1186, "velocity": 75}, {"time": 189601, "pitch": 84, "duration": 1186, "velocity": 80}, {"time": 190797, "pitch": 62, "duration": 469, "velocity": 55}, {"time": 190797, "pitch": 74, "duration": 469, "velocity": 80}, {"time": 190797, "pitch": 86, "duration": 469, "velocity": 85}, {"time": 191276, "pitch": 64, "duration": 718, "velocity": 50}, {"time": 191276, "pitch": 76, "duration": 718, "velocity": 75}, {"time": 191276, "pitch": 88, "duration": 718, "velocity": 80}, {"time": 192005, "pitch": 62, "duration": 468, "velocity": 55}, {"time": 192005, "pitch": 74, "duration": 468, "velocity": 80}, {"time": 192005, "pitch": 86, "duration": 468, "velocity": 85}, {"time": 192483, "pitch": 57, "duration": 468, "velocity": 60}, {"time": 192483, "pitch": 69, "duration": 468, "velocity": 85}, {"time": 192483, "pitch": 81, "duration": 468, "velocity": 90}, {"time": 192961, "pitch": 59, "duration": 469, "velocity": 55}, {"time": 192961, "pitch": 71, "duration": 469, "velocity": 80}, {"time": 192961, "pitch": 83, "duration": 469, "velocity": 85}, {"time": 193440, "pitch": 64, "duration": 2393, "velocity": 60}, {"time": 193440, "pitch": 76, "duration": 2393, "velocity": 85}, {"time": 193440, "pitch": 88, "duration": 2393, "velocity": 90}, {"time": 195843, "pitch": 52, "duration": 468, "velocity": 55}, {"time": 195843, "pitch": 64, "duration": 468, "velocity": 80}, {"time": 195843, "pitch": 76, "duration": 468, "velocity": 85}, {"time": 196321, "pitch": 57, "duration": 469, "velocity": 60}, {"time": 196321, "pitch": 69, "duration": 469, "velocity": 85}, {"time": 196321, "pitch": 81, "duration": 469, "velocity": 90}, {"time": 196800, "pitch": 61, "duration": 468, "velocity": 65}, {"time": 196800, "pitch": 73, "duration": 468, "velocity": 90}, {"time": 196800, "pitch": 85, "duration": 468, "velocity": 95}, {"time": 197278, "pitch": 64, "duration": 708, "velocity": 60}, {"time": 197278, "pitch": 76, "duration": 708, "velocity": 85}, {"time": 197278, "pitch": 88, "duration": 708, "velocity": 90}, {"time": 197996, "pitch": 62, "duration": 474, "velocity": 65}, {"time": 197996, "pitch": 74, "duration": 474, "velocity": 90}, {"time": 197996, "pitch": 86, "duration": 474, "velocity": 95}, {"time": 198480, "pitch": 64, "duration": 474, "velocity": 60}, {"time": 198480, "pitch": 76, "duration": 474, "velocity": 85}, {"time": 198480, "pitch": 88, "duration": 474, "velocity": 90}, {"time": 198964, "pitch": 65, "duration": 947, "velocity": 65}, {"time": 198964, "pitch": 77, "duration": 947, "velocity": 90}, {"time": 198964, "pitch": 89, "duration": 947, "velocity": 95}, {"time": 199921, "pitch": 64, "duration": 468, "velocity": 60}, {"time": 199921, "pitch": 76, "duration": 468, "velocity": 85}, {"time": 199921, "pitch": 88, "duration": 468, "velocity": 90}, {"time": 200399, "pitch": 62, "duration": 468, "velocity": 65}, {"time": 200399, "pitch": 74, "duration": 468, "velocity": 90}, {"time": 200399, "pitch": 86, "duration": 468, "velocity": 95}, {"time": 200877, "pitch": 61, "duration": 1197, "velocity": 60}, {"time": 200877, "pitch": 73, "duration": 1197, "velocity": 85}, {"time": 200877, "pitch": 85, "duration": 1197, "velocity": 90}, {"time": 202085, "pitch": 61, "duration": 229, "velocity": 50}, {"time": 202085, "pitch": 73, "duration": 229, "velocity": 75}, {"time": 202085, "pitch": 85, "duration": 229, "velocity": 80}, {"time": 202324, "pitch": 60, "duration": 229, "velocity": 55}, {"time": 202324, "pitch": 72, "duration": 229, "velocity": 80}, {"time": 202324, "pitch": 84, "duration": 229, "velocity": 85}, {"time": 202563, "pitch": 59, "duration": 229, "velocity": 60}, {"time": 202563, "pitch": 71, "duration": 229, "velocity": 85}, {"time": 202563, "pitch": 83, "duration": 229, "velocity": 90}, {"time": 202802, "pitch": 58, "duration": 1186, "velocity": 55}, {"time": 202802, "pitch": 70, "duration": 1186, "velocity": 80}, {"time": 202802, "pitch": 82, "duration": 1186, "velocity": 85}, {"time": 203998, "pitch": 58, "duration": 229, "velocity": 60}, {"time": 203998, "pitch": 70, "duration": 229, "velocity": 85}, {"time": 203998, "pitch": 82, "duration": 229, "velocity": 90}, {"time": 204237, "pitch": 59, "duration": 230, "velocity": 55}, {"time": 204237, "pitch": 71, "duration": 230, "velocity": 80}, {"time": 204237, "pitch": 83, "duration": 230, "velocity": 85}, {"time": 204477, "pitch": 61, "duration": 229, "velocity": 60}, {"time": 204477, "pitch": 73, "duration": 229, "velocity": 85}, {"time": 204477, "pitch": 85, "duration": 229, "velocity": 90}, {"time": 204716, "pitch": 62, "duration": 718, "velocity": 55}, {"time": 204716, "pitch": 74, "duration": 718, "velocity": 80}, {"time": 204716, "pitch": 86, "duration": 718, "velocity": 85}, {"time": 205445, "pitch": 61, "duration": 229, "velocity": 60}, {"time": 205445, "pitch": 73, "duration": 229, "velocity": 85}, {"time": 205445, "pitch": 85, "duration": 229, "velocity": 90}, {"time": 205684, "pitch": 62, "duration": 468, "velocity": 55}, {"time": 205684, "pitch": 74, "duration": 468, "velocity": 80}, {"time": 205684, "pitch": 86, "duration": 468, "velocity": 85}, {"time": 206162, "pitch": 64, "duration": 469, "velocity": 60}, {"time": 206162, "pitch": 76, "duration": 469, "velocity": 85}, {"time": 206162, "pitch": 88, "duration": 469, "velocity": 90}, {"time": 206641, "pitch": 66, "duration": 707, "velocity": 55}, {"time": 206641, "pitch": 78, "duration": 707, "velocity": 80}, {"time": 206641, "pitch": 90, "duration": 707, "velocity": 85}, {"time": 207358, "pitch": 64, "duration": 229, "velocity": 60}, {"time": 207358, "pitch": 76, "duration": 229, "velocity": 85}, {"time": 207358, "pitch": 88, "duration": 229, "velocity": 90}, {"time": 207597, "pitch": 52, "duration": 469, "velocity": 55}, {"time": 207597, "pitch": 64, "duration": 469, "velocity": 80}, {"time": 207597, "pitch": 76, "duration": 469, "velocity": 85}, {"time": 208076, "pitch": 49, "duration": 109, "velocity": 60}, {"time": 208076, "pitch": 61, "duration": 109, "velocity": 85}, {"time": 208076, "pitch": 73, "duration": 109, "velocity": 90}, {"time": 208195, "pitch": 50, "duration": 110, "velocity": 55}, {"time": 208195, "pitch": 62, "duration": 110, "velocity": 80}, {"time": 208195, "pitch": 74, "duration": 110, "velocity": 85}, {"time": 208315, "pitch": 52, "duration": 71, "velocity": 60}, {"time": 208315, "pitch": 64, "duration": 71, "velocity": 85}, {"time": 208315, "pitch": 76, "duration": 71, "velocity": 90}, {"time": 208397, "pitch": 54, "duration": 71, "velocity": 50}, {"time": 208397, "pitch": 66, "duration": 71, "velocity": 75}, {"time": 208397, "pitch": 78, "duration": 71, "velocity": 80}, {"time": 208478, "pitch": 56, "duration": 72, "velocity": 55}, {"time": 208478, "pitch": 68, "duration": 72, "velocity": 80}, {"time": 208478, "pitch": 80, "duration": 72, "velocity": 85}, {"time": 208560, "pitch": 57, "duration": 51, "velocity": 60}, {"time": 208560, "pitch": 69, "duration": 51, "velocity": 85}, {"time": 208560, "pitch": 81, "duration": 51, "velocity": 90}, {"time": 208621, "pitch": 59, "duration": 51, "velocity": 65}, {"time": 208621, "pitch": 71, "duration": 51, "velocity": 90}, {"time": 208621, "pitch": 83, "duration": 51, "velocity": 95}, {"time": 208682, "pitch": 61, "duration": 51, "velocity": 65}, {"time": 208682, "pitch": 73, "duration": 51, "velocity": 90}, {"time": 208682, "pitch": 85, "duration": 51, "velocity": 95}, {"time": 208743, "pitch": 62, "duration": 51, "velocity": 65}, {"time": 208743, "pitch": 74, "duration": 51, "velocity": 90}, {"time": 208743, "pitch": 86, "duration": 51, "velocity": 95}, {"time": 208805, "pitch": 64, "duration": 2282, "velocity": 55}, {"time": 208805, "pitch": 76, "duration": 2282, "velocity": 80}, {"time": 208805, "pitch": 88, "duration": 2282, "velocity": 85}, {"time": 211197, "pitch": 52, "duration": 468, "velocity": 60}, {"time": 211197, "pitch": 64, "duration": 468, "velocity": 85}, {"time": 211197, "pitch": 76, "duration": 468, "velocity": 90}, {"time": 211675, "pitch": 57, "duration": 479, "velocity": 55}, {"time": 211675, "pitch": 69, "duration": 479, "velocity": 80}, {"time": 211675, "pitch": 81, "duration": 479, "velocity": 85}, {"time": 212165, "pitch": 61, "duration": 468, "velocity": 60}, {"time": 212165, "pitch": 73, "duration": 468, "velocity": 85}, {"time": 212165, "pitch": 85, "duration": 468, "velocity": 90}, {"time": 212643, "pitch": 64, "duration": 708, "velocity": 50}, {"time": 212643, "pitch": 76, "duration": 708, "velocity": 75}, {"time": 212643, "pitch": 88, "duration": 708, "velocity": 80}, {"time": 213361, "pitch": 62, "duration": 468, "velocity": 60}, {"time": 213361, "pitch": 74, "duration": 468, "velocity": 85}, {"time": 213361, "pitch": 86, "duration": 468, "velocity": 90}, {"time": 213839, "pitch": 64, "duration": 468, "velocity": 50}, {"time": 213839, "pitch": 76, "duration": 468, "velocity": 75}, {"time": 213839, "pitch": 88, "duration": 468, "velocity": 80}, {"time": 214317, "pitch": 65, "duration": 953, "velocity": 60}, {"time": 214317, "pitch": 77, "duration": 953, "velocity": 85}, {"time": 214317, "pitch": 89, "duration": 953, "velocity": 90}, {"time": 215280, "pitch": 64, "duration": 474, "velocity": 55}, {"time": 215280, "pitch": 76, "duration": 474, "velocity": 80}, {"time": 215280, "pitch": 88, "duration": 474, "velocity": 85}, {"time": 215764, "pitch": 62, "duration": 468, "velocity": 60}, {"time": 215764, "pitch": 74, "duration": 468, "velocity": 85}, {"time": 215764, "pitch": 86, "duration": 468, "velocity": 90}, {"time": 216242, "pitch": 61, "duration": 1186, "velocity": 60}, {"time": 216242, "pitch": 73, "duration": 1186, "velocity": 85}, {"time": 216242, "pitch": 85, "duration": 1186, "velocity": 90}, {"time": 217438, "pitch": 61, "duration": 229, "velocity": 55}, {"time": 217438, "pitch": 73, "duration": 229, "velocity": 80}, {"time": 217438, "pitch": 85, "duration": 229, "velocity": 85}, {"time": 217677, "pitch": 60, "duration": 230, "velocity": 60}, {"time": 217677, "pitch": 72, "duration": 230, "velocity": 85}, {"time": 217677, "pitch": 84, "duration": 230, "velocity": 90}, {"time": 217917, "pitch": 59, "duration": 229, "velocity": 55}, {"time": 217917, "pitch": 71, "duration": 229, "velocity": 80}, {"time": 217917, "pitch": 83, "duration": 229, "velocity": 85}, {"time": 218156, "pitch": 58, "duration": 1197, "velocity": 60}, {"time": 218156, "pitch": 70, "duration": 1197, "velocity": 85}, {"time": 218156, "pitch": 82, "duration": 1197, "velocity": 90}, {"time": 219363, "pitch": 58, "duration": 229, "velocity": 55}, {"time": 219363, "pitch": 70, "duration": 229, "velocity": 80}, {"time": 219363, "pitch": 82, "duration": 229, "velocity": 85}, {"time": 219602, "pitch": 59, "duration": 229, "velocity": 60}, {"time": 219602, "pitch": 71, "duration": 229, "velocity": 85}, {"time": 219602, "pitch": 83, "duration": 229, "velocity": 90}, {"time": 219841, "pitch": 61, "duration": 230, "velocity": 55}, {"time": 219841, "pitch": 73, "duration": 230, "velocity": 80}, {"time": 219841, "pitch": 85, "duration": 230, "velocity": 85}, {"time": 220081, "pitch": 62, "duration": 707, "velocity": 60}, {"time": 220081, "pitch": 74, "duration": 707, "velocity": 85}, {"time": 220081, "pitch": 86, "duration": 707, "velocity": 90}, {"time": 220798, "pitch": 61, "duration": 229, "velocity": 55}, {"time": 220798, "pitch": 73, "duration": 229, "velocity": 80}, {"time": 220798, "pitch": 85, "duration": 229, "velocity": 85}, {"time": 221037, "pitch": 62, "duration": 469, "velocity": 60}, {"time": 221037, "pitch": 74, "duration": 469, "velocity": 85}, {"time": 221037, "pitch": 86, "duration": 469, "velocity": 90}, {"time": 221516, "pitch": 64, "duration": 474, "velocity": 55}, {"time": 221516, "pitch": 76, "duration": 474, "velocity": 80}, {"time": 221516, "pitch": 88, "duration": 474, "velocity": 85}, {"time": 222000, "pitch": 66, "duration": 713, "velocity": 60}, {"time": 222000, "pitch": 78, "duration": 713, "velocity": 85}, {"time": 222000, "pitch": 90, "duration": 713, "velocity": 90}, {"time": 222723, "pitch": 64, "duration": 229, "velocity": 55}, {"time": 222723, "pitch": 76, "duration": 229, "velocity": 80}, {"time": 222723, "pitch": 88, "duration": 229, "velocity": 85}, {"time": 222962, "pitch": 52, "duration": 469, "velocity": 60}, {"time": 222962, "pitch": 64, "duration": 469, "velocity": 85}, {"time": 222962, "pitch": 76, "duration": 469, "velocity": 90}, {"time": 223441, "pitch": 49, "duration": 109, "velocity": 55}, {"time": 223441, "pitch": 61, "duration": 109, "velocity": 80}, {"time": 223441, "pitch": 73, "duration": 109, "velocity": 85}, {"time": 223560, "pitch": 50, "duration": 110, "velocity": 60}, {"time": 223560, "pitch": 62, "duration": 110, "velocity": 85}, {"time": 223560, "pitch": 74, "duration": 110, "velocity": 90}, {"time": 223680, "pitch": 52, "duration": 70, "velocity": 55}, {"time": 223680, "pitch": 64, "duration": 70, "velocity": 80}, {"time": 223680, "pitch": 76, "duration": 70, "velocity": 85}, {"time": 223760, "pitch": 54, "duration": 69, "velocity": 60}, {"time": 223760, "pitch": 66, "duration": 69, "velocity": 85}, {"time": 223760, "pitch": 78, "duration": 69, "velocity": 90}, {"time": 223839, "pitch": 56, "duration": 70, "velocity": 55}, {"time": 223839, "pitch": 68, "duration": 70, "velocity": 80}, {"time": 223839, "pitch": 80, "duration": 70, "velocity": 85}, {"time": 223919, "pitch": 57, "duration": 50, "velocity": 60}, {"time": 223919, "pitch": 69, "duration": 50, "velocity": 85}, {"time": 223919, "pitch": 81, "duration": 50, "velocity": 90}, {"time": 223979, "pitch": 59, "duration": 50, "velocity": 65}, {"time": 223979, "pitch": 71, "duration": 50, "velocity": 90}, {"time": 223979, "pitch": 83, "duration": 50, "velocity": 95}, {"time": 224039, "pitch": 61, "duration": 49, "velocity": 65}, {"time": 224039, "pitch": 73, "duration": 49, "velocity": 90}, {"time": 224039, "pitch": 85, "duration": 49, "velocity": 95}, {"time": 224098, "pitch": 62, "duration": 50, "velocity": 65}, {"time": 224098, "pitch": 74, "duration": 50, "velocity": 90}, {"time": 224098, "pitch": 86, "duration": 50, "velocity": 95}, {"time": 224158, "pitch": 64, "duration": 70, "velocity": 65}, {"time": 224158, "pitch": 76, "duration": 70, "velocity": 90}, {"time": 224158, "pitch": 88, "duration": 70, "velocity": 95}, {"time": 224637, "pitch": 64, "duration": 69, "velocity": 70}, {"time": 224637, "pitch": 76, "duration": 69, "velocity": 95}, {"time": 224637, "pitch": 88, "duration": 69, "velocity": 100}, {"time": 225115, "pitch": 64, "duration": 71, "velocity": 65}, {"time": 225115, "pitch": 76, "duration": 71, "velocity": 90}, {"time": 225115, "pitch": 88, "duration": 71, "velocity": 95}, {"time": 225605, "pitch": 64, "duration": 69, "velocity": 70}, {"time": 225605, "pitch": 76, "duration": 69, "velocity": 95}, {"time": 225605, "pitch": 88, "duration": 69, "velocity": 100}, {"time": 226083, "pitch": 64, "duration": 70, "velocity": 65}, {"time": 226083, "pitch": 76, "duration": 70, "velocity": 90}, {"time": 226083, "pitch": 88, "duration": 70, "velocity": 95}, {"time": 226561, "pitch": 64, "duration": 70, "velocity": 70}, {"time": 226561, "pitch": 76, "duration": 70, "velocity": 95}, {"time": 226561, "pitch": 88, "duration": 70, "velocity": 100}, {"time": 227040, "pitch": 64, "duration": 70, "velocity": 65}, {"time": 227040, "pitch": 76, "duration": 70, "velocity": 90}, {"time": 227040, "pitch": 88, "duration": 70, "velocity": 95}, {"time": 227518, "pitch": 64, "duration": 70, "velocity": 70}, {"time": 227518, "pitch": 76, "duration": 70, "velocity": 95}, {"time": 227518, "pitch": 88, "duration": 70, "velocity": 100}, {"time": 227997, "pitch": 64, "duration": 69, "velocity": 65}, {"time": 227997, "pitch": 76, "duration": 69, "velocity": 90}, {"time": 227997, "pitch": 88, "duration": 69, "velocity": 95}, {"time": 228475, "pitch": 64, "duration": 71, "velocity": 70}, {"time": 228475, "pitch": 76, "duration": 71, "velocity": 95}, {"time": 228475, "pitch": 88, "duration": 71, "velocity": 100}, {"time": 228965, "pitch": 64, "duration": 69, "velocity": 65}, {"time": 228965, "pitch": 76, "duration": 69, "velocity": 90}, {"time": 228965, "pitch": 88, "duration": 69, "velocity": 95}, {"time": 229443, "pitch": 64, "duration": 70, "velocity": 70}, {"time": 229443, "pitch": 76, "duration": 70, "velocity": 95}, {"time": 229443, "pitch": 88, "duration": 70, "velocity": 100}, {"time": 229921, "pitch": 64, "duration": 70, "velocity": 65}, {"time": 229921, "pitch": 76, "duration": 70, "velocity": 90}, {"time": 229921, "pitch": 88, "duration": 70, "velocity": 95}, {"time": 230400, "pitch": 64, "duration": 70, "velocity": 70}, {"time": 230400, "pitch": 76, "duration": 70, "velocity": 95}, {"time": 230400, "pitch": 88, "duration": 70, "velocity": 100}, {"time": 230878, "pitch": 64, "duration": 70, "velocity": 65}, {"time": 230878, "pitch": 76, "duration": 70, "velocity": 90}, {"time": 230878, "pitch": 88, "duration": 70, "velocity": 95}, {"time": 231357, "pitch": 64, "duration": 69, "velocity": 70}, {"time": 231357, "pitch": 76, "duration": 69, "velocity": 95}, {"time": 231357, "pitch": 88, "duration": 69, "velocity": 100}, {"time": 231835, "pitch": 64, "duration": 71, "velocity": 65}, {"time": 231835, "pitch": 76, "duration": 71, "velocity": 90}, {"time": 231835, "pitch": 88, "duration": 71, "velocity": 95}, {"time": 232325, "pitch": 64, "duration": 69, "velocity": 70}, {"time": 232325, "pitch": 76, "duration": 69, "velocity": 95}, {"time": 232325, "pitch": 88, "duration": 69, "velocity": 100}, {"time": 232803, "pitch": 64, "duration": 70, "velocity": 65}, {"time": 232803, "pitch": 76, "duration": 70, "velocity": 90}, {"time": 232803, "pitch": 88, "duration": 70, "velocity": 95}, {"time": 233281, "pitch": 64, "duration": 70, "velocity": 70}, {"time": 233281, "pitch": 76, "duration": 70, "velocity": 95}, {"time": 233281, "pitch": 88, "duration": 70, "velocity": 100}, {"time": 233760, "pitch": 64, "duration": 70, "velocity": 65}, {"time": 233760, "pitch": 76, "duration": 70, "velocity": 90}, {"time": 233760, "pitch": 88, "duration": 70, "velocity": 95}, {"time": 234238, "pitch": 64, "duration": 70, "velocity": 70}, {"time": 234238, "pitch": 76, "duration": 70, "velocity": 95}, {"time": 234238, "pitch": 88, "duration": 70, "velocity": 100}, {"time": 234717, "pitch": 64, "duration": 69, "velocity": 65}, {"time": 234717, "pitch": 76, "duration": 69, "velocity": 90}, {"time": 234717, "pitch": 88, "duration": 69, "velocity": 95}, {"time": 235195, "pitch": 64, "duration": 71, "velocity": 70}, {"time": 235195, "pitch": 76, "duration": 71, "velocity": 95}, {"time": 235195, "pitch": 88, "duration": 71, "velocity": 100}, {"time": 235685, "pitch": 64, "duration": 69, "velocity": 65}, {"time": 235685, "pitch": 76, "duration": 69, "velocity": 90}, {"time": 235685, "pitch": 88, "duration": 69, "velocity": 95}, {"time": 236163, "pitch": 64, "duration": 70, "velocity": 70}, {"time": 236163, "pitch": 76, "duration": 70, "velocity": 95}, {"time": 236163, "pitch": 88, "duration": 70, "velocity": 100}, {"time": 236641, "pitch": 57, "duration": 70, "velocity": 65}, {"time": 236641, "pitch": 69, "duration": 70, "velocity": 90}, {"time": 236641, "pitch": 81, "duration": 70, "velocity": 95}, {"time": 236881, "pitch": 49, "duration": 69, "velocity": 70}, {"time": 236881, "pitch": 61, "duration": 69, "velocity": 95}, {"time": 236881, "pitch": 73, "duration": 69, "velocity": 100}, {"time": 237120, "pitch": 50, "duration": 70, "velocity": 65}, {"time": 237120, "pitch": 62, "duration": 70, "velocity": 90}, {"time": 237120, "pitch": 74, "duration": 70, "velocity": 95}, {"time": 237359, "pitch": 52, "duration": 70, "velocity": 70}, {"time": 237359, "pitch": 64, "duration": 70, "velocity": 95}, {"time": 237359, "pitch": 76, "duration": 70, "velocity": 100}, {"time": 238077, "pitch": 52, "duration": 1197, "velocity": 65}, {"time": 238077, "pitch": 64, "duration": 1197, "velocity": 90}, {"time": 238077, "pitch": 76, "duration": 1197, "velocity": 95}, {"time": 239284, "pitch": 53, "duration": 2143, "velocity": 70}, {"time": 239284, "pitch": 65, "duration": 2143, "velocity": 95}, {"time": 239284, "pitch": 77, "duration": 2143, "velocity": 100}, {"time": 241437, "pitch": 54, "duration": 7666, "velocity": 65}, {"time": 241437, "pitch": 66, "duration": 7666, "velocity": 90}, {"time": 241437, "pitch": 78, "duration": 7666, "velocity": 95}, {"time": 162721, "pitch": 50, "duration": 768, "velocity": 90}, {"time": 162721, "pitch": 60, "duration": 1027, "velocity": 100}, {"time": 162721, "pitch": 64, "duration": 1037, "velocity": 100}, {"time": 162721, "pitch": 65, "duration": 1027, "velocity": 100}, {"time": 162721, "pitch": 69, "duration": 997, "velocity": 110}, {"time": 163678, "pitch": 50, "duration": 409, "velocity": 90}, {"time": 163917, "pitch": 60, "duration": 50, "velocity": 100}, {"time": 163917, "pitch": 64, "duration": 70, "velocity": 100}, {"time": 163917, "pitch": 65, "duration": 70, "velocity": 100}, {"time": 163917, "pitch": 69, "duration": 50, "velocity": 110}, {"time": 164157, "pitch": 50, "duration": 896, "velocity": 90}, {"time": 164880, "pitch": 60, "duration": 51, "velocity": 100}, {"time": 164880, "pitch": 64, "duration": 61, "velocity": 100}, {"time": 164880, "pitch": 65, "duration": 71, "velocity": 100}, {"time": 164880, "pitch": 69, "duration": 71, "velocity": 110}, {"time": 165125, "pitch": 50, "duration": 897, "velocity": 90}, {"time": 165603, "pitch": 65, "duration": 159, "velocity": 100}, {"time": 165603, "pitch": 69, "duration": 169, "velocity": 100}, {"time": 165603, "pitch": 72, "duration": 169, "velocity": 100}, {"time": 165603, "pitch": 76, "duration": 159, "velocity": 110}, {"time": 165842, "pitch": 65, "duration": 200, "velocity": 100}, {"time": 165842, "pitch": 69, "duration": 210, "velocity": 100}, {"time": 165842, "pitch": 72, "duration": 210, "velocity": 100}, {"time": 165842, "pitch": 76, "duration": 210, "velocity": 110}, {"time": 166081, "pitch": 50, "duration": 200, "velocity": 90}, {"time": 166560, "pitch": 45, "duration": 2214, "velocity": 90}, {"time": 166560, "pitch": 59, "duration": 1046, "velocity": 100}, {"time": 166560, "pitch": 61, "duration": 1076, "velocity": 100}, {"time": 166560, "pitch": 64, "duration": 1066, "velocity": 100}, {"time": 166560, "pitch": 68, "duration": 1066, "velocity": 110}, {"time": 167756, "pitch": 59, "duration": 70, "velocity": 100}, {"time": 167756, "pitch": 61, "duration": 80, "velocity": 100}, {"time": 167756, "pitch": 64, "duration": 70, "velocity": 100}, {"time": 167756, "pitch": 68, "duration": 70, "velocity": 110}, {"time": 168724, "pitch": 59, "duration": 70, "velocity": 100}, {"time": 168724, "pitch": 61, "duration": 80, "velocity": 100}, {"time": 168724, "pitch": 64, "duration": 70, "velocity": 100}, {"time": 168724, "pitch": 68, "duration": 80, "velocity": 110}, {"time": 169202, "pitch": 45, "duration": 618, "velocity": 90}, {"time": 169441, "pitch": 59, "duration": 100, "velocity": 100}, {"time": 169441, "pitch": 61, "duration": 120, "velocity": 100}, {"time": 169441, "pitch": 64, "duration": 120, "velocity": 100}, {"time": 169441, "pitch": 68, "duration": 130, "velocity": 110}, {"time": 169681, "pitch": 59, "duration": 518, "velocity": 100}, {"time": 169681, "pitch": 61, "duration": 518, "velocity": 100}, {"time": 169681, "pitch": 64, "duration": 498, "velocity": 100}, {"time": 169681, "pitch": 68, "duration": 518, "velocity": 110}, {"time": 169920, "pitch": 45, "duration": 309, "velocity": 90}, {"time": 170398, "pitch": 50, "duration": 3540, "velocity": 90}, {"time": 170398, "pitch": 60, "duration": 1130, "velocity": 100}, {"time": 170398, "pitch": 64, "duration": 1141, "velocity": 100}, {"time": 170398, "pitch": 65, "duration": 1151, "velocity": 100}, {"time": 170398, "pitch": 69, "duration": 1151, "velocity": 110}, {"time": 171600, "pitch": 60, "duration": 41, "velocity": 100}, {"time": 171600, "pitch": 64, "duration": 71, "velocity": 100}, {"time": 171600, "pitch": 65, "duration": 71, "velocity": 100}, {"time": 171600, "pitch": 69, "duration": 81, "velocity": 110}, {"time": 172562, "pitch": 60, "duration": 90, "velocity": 100}, {"time": 172562, "pitch": 65, "duration": 60, "velocity": 100}, {"time": 172562, "pitch": 69, "duration": 70, "velocity": 100}, {"time": 172562, "pitch": 72, "duration": 70, "velocity": 100}, {"time": 172562, "pitch": 76, "duration": 80, "velocity": 110}, {"time": 173280, "pitch": 60, "duration": 189, "velocity": 100}, {"time": 173280, "pitch": 65, "duration": 189, "velocity": 100}, {"time": 173280, "pitch": 69, "duration": 199, "velocity": 100}, {"time": 173280, "pitch": 72, "duration": 199, "velocity": 100}, {"time": 173280, "pitch": 76, "duration": 209, "velocity": 110}, {"time": 173519, "pitch": 60, "duration": 159, "velocity": 100}, {"time": 173519, "pitch": 65, "duration": 120, "velocity": 100}, {"time": 173519, "pitch": 69, "duration": 120, "velocity": 100}, {"time": 173519, "pitch": 72, "duration": 130, "velocity": 100}, {"time": 173519, "pitch": 76, "duration": 140, "velocity": 110}, {"time": 174237, "pitch": 52, "duration": 1904, "velocity": 90}, {"time": 174237, "pitch": 62, "duration": 845, "velocity": 100}, {"time": 174237, "pitch": 66, "duration": 876, "velocity": 100}, {"time": 174237, "pitch": 69, "duration": 886, "velocity": 110}, {"time": 175444, "pitch": 66, "duration": 678, "velocity": 100}, {"time": 175444, "pitch": 69, "duration": 668, "velocity": 100}, {"time": 175444, "pitch": 74, "duration": 697, "velocity": 110}, {"time": 176161, "pitch": 54, "duration": 140, "velocity": 90}, {"time": 176161, "pitch": 64, "duration": 90, "velocity": 100}, {"time": 176161, "pitch": 68, "duration": 100, "velocity": 100}, {"time": 176161, "pitch": 69, "duration": 100, "velocity": 100}, {"time": 176161, "pitch": 73, "duration": 90, "velocity": 110}, {"time": 176640, "pitch": 54, "duration": 1365, "velocity": 90}, {"time": 176640, "pitch": 64, "duration": 1385, "velocity": 100}, {"time": 176640, "pitch": 68, "duration": 1385, "velocity": 100}, {"time": 176640, "pitch": 69, "duration": 1385, "velocity": 100}, {"time": 176640, "pitch": 73, "duration": 1385, "velocity": 110}, {"time": 178075, "pitch": 47, "duration": 3840, "velocity": 95}, {"time": 178075, "pitch": 62, "duration": 3840, "velocity": 80}, {"time": 178075, "pitch": 66, "duration": 3840, "velocity": 90}, {"time": 178075, "pitch": 69, "duration": 3840, "velocity": 100}, {"time": 178075, "pitch": 73, "duration": 3840, "velocity": 110}, {"time": 180239, "pitch": 76, "duration": 1676, "velocity": 110}, {"time": 180717, "pitch": 71, "duration": 1198, "velocity": 105}, {"time": 181196, "pitch": 64, "duration": 719, "velocity": 100}, {"time": 181925, "pitch": 49, "duration": 3828, "velocity": 95}, {"time": 181925, "pitch": 64, "duration": 1903, "velocity": 80}, {"time": 181925, "pitch": 68, "duration": 1903, "velocity": 90}, {"time": 181925, "pitch": 71, "duration": 1903, "velocity": 100}, {"time": 181925, "pitch": 75, "duration": 2621, "velocity": 110}, {"time": 183838, "pitch": 59, "duration": 1915, "velocity": 80}, {"time": 183838, "pitch": 64, "duration": 708, "velocity": 90}, {"time": 183838, "pitch": 68, "duration": 708, "velocity": 100}, {"time": 183838, "pitch": 71, "duration": 708, "velocity": 110}, {"time": 184556, "pitch": 64, "duration": 1197, "velocity": 80}, {"time": 184556, "pitch": 68, "duration": 719, "velocity": 90}, {"time": 184556, "pitch": 71, "duration": 719, "velocity": 100}, {"time": 184556, "pitch": 75, "duration": 719, "velocity": 110}, {"time": 185285, "pitch": 68, "duration": 468, "velocity": 80}, {"time": 185285, "pitch": 71, "duration": 468, "velocity": 90}, {"time": 185285, "pitch": 75, "duration": 468, "velocity": 100}, {"time": 185285, "pitch": 78, "duration": 468, "velocity": 110}, {"time": 185763, "pitch": 47, "duration": 3828, "velocity": 95}, {"time": 185763, "pitch": 62, "duration": 3828, "velocity": 80}, {"time": 185763, "pitch": 66, "duration": 3828, "velocity": 90}, {"time": 185763, "pitch": 69, "duration": 3828, "velocity": 100}, {"time": 185763, "pitch": 73, "duration": 3828, "velocity": 110}, {"time": 187916, "pitch": 76, "duration": 1675, "velocity": 110}, {"time": 188400, "pitch": 71, "duration": 1191, "velocity": 105}, {"time": 188884, "pitch": 64, "duration": 707, "velocity": 100}, {"time": 189601, "pitch": 50, "duration": 1665, "velocity": 95}, {"time": 189601, "pitch": 65, "duration": 1665, "velocity": 80}, {"time": 189601, "pitch": 69, "duration": 1665, "velocity": 90}, {"time": 189601, "pitch": 72, "duration": 1665, "velocity": 100}, {"time": 189601, "pitch": 76, "duration": 1665, "velocity": 110}, {"time": 191276, "pitch": 52, "duration": 1197, "velocity": 95}, {"time": 191276, "pitch": 62, "duration": 1197, "velocity": 90}, {"time": 191276, "pitch": 66, "duration": 1197, "velocity": 100}, {"time": 191276, "pitch": 69, "duration": 1197, "velocity": 110}, {"time": 192483, "pitch": 52, "duration": 947, "velocity": 95}, {"time": 192483, "pitch": 64, "duration": 947, "velocity": 90}, {"time": 192483, "pitch": 68, "duration": 947, "velocity": 100}, {"time": 192483, "pitch": 71, "duration": 947, "velocity": 110}, {"time": 193440, "pitch": 45, "duration": 1256, "velocity": 100}, {"time": 193440, "pitch": 57, "duration": 957, "velocity": 100}, {"time": 193440, "pitch": 61, "duration": 967, "velocity": 100}, {"time": 193440, "pitch": 64, "duration": 947, "velocity": 100}, {"time": 194636, "pitch": 57, "duration": 119, "velocity": 100}, {"time": 194636, "pitch": 61, "duration": 149, "velocity": 100}, {"time": 194636, "pitch": 64, "duration": 119, "velocity": 100}, {"time": 194875, "pitch": 45, "duration": 163, "velocity": 100}, {"time": 195120, "pitch": 46, "duration": 882, "velocity": 100}, {"time": 195120, "pitch": 58, "duration": 265, "velocity": 100}, {"time": 195120, "pitch": 61, "duration": 294, "velocity": 100}, {"time": 195120, "pitch": 64, "duration": 274, "velocity": 100}, {"time": 195604, "pitch": 58, "duration": 119, "velocity": 100}, {"time": 195604, "pitch": 61, "duration": 119, "velocity": 100}, {"time": 195604, "pitch": 64, "duration": 119, "velocity": 100}, {"time": 196082, "pitch": 46, "duration": 499, "velocity": 100}, {"time": 196321, "pitch": 58, "duration": 160, "velocity": 100}, {"time": 196321, "pitch": 61, "duration": 210, "velocity": 100}, {"time": 196321, "pitch": 64, "duration": 200, "velocity": 100}, {"time": 196561, "pitch": 58, "duration": 518, "velocity": 100}, {"time": 196561, "pitch": 61, "duration": 568, "velocity": 100}, {"time": 196561, "pitch": 64, "duration": 558, "velocity": 100}, {"time": 196800, "pitch": 46, "duration": 428, "velocity": 100}, {"time": 197278, "pitch": 47, "duration": 359, "velocity": 100}, {"time": 197278, "pitch": 57, "duration": 768, "velocity": 100}, {"time": 197278, "pitch": 62, "duration": 808, "velocity": 100}, {"time": 197278, "pitch": 66, "duration": 778, "velocity": 100}, {"time": 197757, "pitch": 47, "duration": 600, "velocity": 100}, {"time": 198235, "pitch": 57, "duration": 265, "velocity": 100}, {"time": 198235, "pitch": 62, "duration": 306, "velocity": 100}, {"time": 198235, "pitch": 66, "duration": 306, "velocity": 100}, {"time": 198480, "pitch": 47, "duration": 424, "velocity": 100}, {"time": 198964, "pitch": 50, "duration": 986, "velocity": 100}, {"time": 198964, "pitch": 60, "duration": 309, "velocity": 100}, {"time": 198964, "pitch": 65, "duration": 339, "velocity": 100}, {"time": 198964, "pitch": 69, "duration": 279, "velocity": 100}, {"time": 199442, "pitch": 60, "duration": 50, "velocity": 100}, {"time": 199442, "pitch": 65, "duration": 30, "velocity": 100}, {"time": 199442, "pitch": 69, "duration": 40, "velocity": 100}, {"time": 199681, "pitch": 60, "duration": 499, "velocity": 100}, {"time": 199681, "pitch": 65, "duration": 519, "velocity": 100}, {"time": 199681, "pitch": 69, "duration": 469, "velocity": 100}, {"time": 200160, "pitch": 50, "duration": 359, "velocity": 100}, {"time": 200399, "pitch": 60, "duration": 189, "velocity": 100}, {"time": 200399, "pitch": 65, "duration": 359, "velocity": 100}, {"time": 200399, "pitch": 69, "duration": 219, "velocity": 100}, {"time": 200638, "pitch": 50, "duration": 140, "velocity": 100}, {"time": 200877, "pitch": 49, "duration": 922, "velocity": 100}, {"time": 200877, "pitch": 59, "duration": 499, "velocity": 100}, {"time": 200877, "pitch": 64, "duration": 509, "velocity": 100}, {"time": 200877, "pitch": 68, "duration": 489, "velocity": 100}, {"time": 201595, "pitch": 59, "duration": 1147, "velocity": 100}, {"time": 201595, "pitch": 64, "duration": 1157, "velocity": 100}, {"time": 201595, "pitch": 68, "duration": 1137, "velocity": 100}, {"time": 202085, "pitch": 49, "duration": 269, "velocity": 100}, {"time": 202324, "pitch": 40, "duration": 279, "velocity": 100}, {"time": 202563, "pitch": 41, "duration": 229, "velocity": 100}, {"time": 202802, "pitch": 42, "duration": 1306, "velocity": 100}, {"time": 202802, "pitch": 58, "duration": 319, "velocity": 100}, {"time": 202802, "pitch": 61, "duration": 339, "velocity": 100}, {"time": 202802, "pitch": 68, "duration": 349, "velocity": 100}, {"time": 203281, "pitch": 58, "duration": 687, "velocity": 100}, {"time": 203281, "pitch": 61, "duration": 707, "velocity": 100}, {"time": 203281, "pitch": 68, "duration": 1554, "velocity": 100}, {"time": 203998, "pitch": 58, "duration": 588, "velocity": 100}, {"time": 203998, "pitch": 61, "duration": 827, "velocity": 100}, {"time": 204237, "pitch": 42, "duration": 130, "velocity": 100}, {"time": 204477, "pitch": 42, "duration": 458, "velocity": 100}, {"time": 204955, "pitch": 47, "duration": 818, "velocity": 100}, {"time": 204955, "pitch": 57, "duration": 306, "velocity": 100}, {"time": 204955, "pitch": 61, "duration": 326, "velocity": 100}, {"time": 204955, "pitch": 62, "duration": 337, "velocity": 100}, {"time": 204955, "pitch": 66, "duration": 306, "velocity": 100}, {"time": 205445, "pitch": 57, "duration": 528, "velocity": 100}, {"time": 205445, "pitch": 61, "duration": 528, "velocity": 100}, {"time": 205445, "pitch": 62, "duration": 548, "velocity": 100}, {"time": 205445, "pitch": 66, "duration": 528, "velocity": 100}, {"time": 205923, "pitch": 47, "duration": 259, "velocity": 100}, {"time": 206162, "pitch": 57, "duration": 239, "velocity": 100}, {"time": 206162, "pitch": 61, "duration": 279, "velocity": 100}, {"time": 206162, "pitch": 62, "duration": 279, "velocity": 100}, {"time": 206162, "pitch": 66, "duration": 279, "velocity": 100}, {"time": 206401, "pitch": 47, "duration": 150, "velocity": 100}, {"time": 206641, "pitch": 40, "duration": 817, "velocity": 100}, {"time": 206641, "pitch": 57, "duration": 299, "velocity": 100}, {"time": 206641, "pitch": 62, "duration": 319, "velocity": 100}, {"time": 206641, "pitch": 66, "duration": 309, "velocity": 100}, {"time": 207119, "pitch": 57, "duration": 40, "velocity": 100}, {"time": 207119, "pitch": 62, "duration": 50, "velocity": 100}, {"time": 207119, "pitch": 66, "duration": 40, "velocity": 100}, {"time": 207358, "pitch": 57, "duration": 518, "velocity": 100}, {"time": 207358, "pitch": 62, "duration": 548, "velocity": 100}, {"time": 207358, "pitch": 66, "duration": 538, "velocity": 100}, {"time": 207837, "pitch": 40, "duration": 329, "velocity": 100}, {"time": 208076, "pitch": 57, "duration": 351, "velocity": 100}, {"time": 208076, "pitch": 62, "duration": 372, "velocity": 100}, {"time": 208076, "pitch": 66, "duration": 392, "velocity": 100}, {"time": 208805, "pitch": 45, "duration": 1255, "velocity": 100}, {"time": 208805, "pitch": 57, "duration": 956, "velocity": 100}, {"time": 208805, "pitch": 61, "duration": 966, "velocity": 100}, {"time": 208805, "pitch": 64, "duration": 946, "velocity": 100}, {"time": 210001, "pitch": 57, "duration": 119, "velocity": 100}, {"time": 210001, "pitch": 61, "duration": 149, "velocity": 100}, {"time": 210001, "pitch": 64, "duration": 119, "velocity": 100}, {"time": 210240, "pitch": 45, "duration": 159, "velocity": 100}, {"time": 210479, "pitch": 46, "duration": 877, "velocity": 100}, {"time": 210479, "pitch": 58, "duration": 259, "velocity": 100}, {"time": 210479, "pitch": 61, "duration": 289, "velocity": 100}, {"time": 210479, "pitch": 64, "duration": 269, "velocity": 100}, {"time": 210957, "pitch": 58, "duration": 120, "velocity": 100}, {"time": 210957, "pitch": 61, "duration": 120, "velocity": 100}, {"time": 210957, "pitch": 64, "duration": 120, "velocity": 100}, {"time": 211436, "pitch": 46, "duration": 504, "velocity": 100}, {"time": 211675, "pitch": 58, "duration": 163, "velocity": 100}, {"time": 211675, "pitch": 61, "duration": 214, "velocity": 100}, {"time": 211675, "pitch": 64, "duration": 204, "velocity": 100}, {"time": 211920, "pitch": 58, "duration": 524, "velocity": 100}, {"time": 211920, "pitch": 61, "duration": 573, "velocity": 100}, {"time": 211920, "pitch": 64, "duration": 564, "velocity": 100}, {"time": 212165, "pitch": 46, "duration": 428, "velocity": 100}, {"time": 212643, "pitch": 47, "duration": 359, "velocity": 100}, {"time": 212643, "pitch": 57, "duration": 767, "velocity": 100}, {"time": 212643, "pitch": 62, "duration": 807, "velocity": 100}, {"time": 212643, "pitch": 66, "duration": 777, "velocity": 100}, {"time": 213121, "pitch": 47, "duration": 598, "velocity": 100}, {"time": 213600, "pitch": 57, "duration": 259, "velocity": 100}, {"time": 213600, "pitch": 62, "duration": 299, "velocity": 100}, {"time": 213600, "pitch": 66, "duration": 299, "velocity": 100}, {"time": 213839, "pitch": 47, "duration": 419, "velocity": 100}, {"time": 214317, "pitch": 50, "duration": 993, "velocity": 100}, {"time": 214317, "pitch": 60, "duration": 309, "velocity": 100}, {"time": 214317, "pitch": 65, "duration": 339, "velocity": 100}, {"time": 214317, "pitch": 69, "duration": 279, "velocity": 100}, {"time": 214796, "pitch": 60, "duration": 50, "velocity": 100}, {"time": 214796, "pitch": 65, "duration": 30, "velocity": 100}, {"time": 214796, "pitch": 69, "duration": 40, "velocity": 100}, {"time": 215035, "pitch": 60, "duration": 510, "velocity": 100}, {"time": 215035, "pitch": 65, "duration": 529, "velocity": 100}, {"time": 215035, "pitch": 69, "duration": 479, "velocity": 100}, {"time": 215525, "pitch": 50, "duration": 358, "velocity": 100}, {"time": 215764, "pitch": 60, "duration": 189, "velocity": 100}, {"time": 215764, "pitch": 65, "duration": 359, "velocity": 100}, {"time": 215764, "pitch": 69, "duration": 219, "velocity": 100}, {"time": 216003, "pitch": 50, "duration": 140, "velocity": 100}, {"time": 216242, "pitch": 49, "duration": 917, "velocity": 100}, {"time": 216242, "pitch": 59, "duration": 499, "velocity": 100}, {"time": 216242, "pitch": 64, "duration": 508, "velocity": 100}, {"time": 216242, "pitch": 68, "duration": 489, "velocity": 100}, {"time": 216960, "pitch": 59, "duration": 1136, "velocity": 100}, {"time": 216960, "pitch": 64, "duration": 1146, "velocity": 100}, {"time": 216960, "pitch": 68, "duration": 1126, "velocity": 100}, {"time": 217438, "pitch": 49, "duration": 269, "velocity": 100}, {"time": 217677, "pitch": 40, "duration": 279, "velocity": 100}, {"time": 217917, "pitch": 41, "duration": 229, "velocity": 100}, {"time": 218156, "pitch": 42, "duration": 1317, "velocity": 100}, {"time": 218156, "pitch": 58, "duration": 321, "velocity": 100}, {"time": 218156, "pitch": 61, "duration": 341, "velocity": 100}, {"time": 218156, "pitch": 68, "duration": 351, "velocity": 100}, {"time": 218640, "pitch": 58, "duration": 693, "velocity": 100}, {"time": 218640, "pitch": 61, "duration": 713, "velocity": 100}, {"time": 218640, "pitch": 68, "duration": 1560, "velocity": 100}, {"time": 219363, "pitch": 58, "duration": 588, "velocity": 100}, {"time": 219363, "pitch": 61, "duration": 827, "velocity": 100}, {"time": 219602, "pitch": 42, "duration": 130, "velocity": 100}, {"time": 219841, "pitch": 42, "duration": 459, "velocity": 100}, {"time": 220320, "pitch": 47, "duration": 807, "velocity": 100}, {"time": 220320, "pitch": 57, "duration": 299, "velocity": 100}, {"time": 220320, "pitch": 61, "duration": 319, "velocity": 100}, {"time": 220320, "pitch": 62, "duration": 329, "velocity": 100}, {"time": 220320, "pitch": 66, "duration": 299, "velocity": 100}, {"time": 220798, "pitch": 57, "duration": 528, "velocity": 100}, {"time": 220798, "pitch": 61, "duration": 528, "velocity": 100}, {"time": 220798, "pitch": 62, "duration": 548, "velocity": 100}, {"time": 220798, "pitch": 66, "duration": 528, "velocity": 100}, {"time": 221277, "pitch": 47, "duration": 259, "velocity": 100}, {"time": 221516, "pitch": 57, "duration": 239, "velocity": 100}, {"time": 221516, "pitch": 61, "duration": 280, "velocity": 100}, {"time": 221516, "pitch": 62, "duration": 280, "velocity": 100}, {"time": 221516, "pitch": 66, "duration": 280, "velocity": 100}, {"time": 221755, "pitch": 47, "duration": 153, "velocity": 100}, {"time": 222000, "pitch": 40, "duration": 823, "velocity": 100}, {"time": 222000, "pitch": 57, "duration": 304, "velocity": 100}, {"time": 222000, "pitch": 62, "duration": 324, "velocity": 100}, {"time": 222000, "pitch": 66, "duration": 314, "velocity": 100}, {"time": 222484, "pitch": 57, "duration": 40, "velocity": 100}, {"time": 222484, "pitch": 62, "duration": 50, "velocity": 100}, {"time": 222484, "pitch": 66, "duration": 40, "velocity": 100}, {"time": 222723, "pitch": 57, "duration": 518, "velocity": 100}, {"time": 222723, "pitch": 62, "duration": 548, "velocity": 100}, {"time": 222723, "pitch": 66, "duration": 538, "velocity": 100}, {"time": 223201, "pitch": 40, "duration": 329, "velocity": 100}, {"time": 223441, "pitch": 57, "duration": 348, "velocity": 100}, {"time": 223441, "pitch": 62, "duration": 368, "velocity": 100}, {"time": 223441, "pitch": 66, "duration": 388, "velocity": 100}, {"time": 224158, "pitch": 45, "duration": 608, "velocity": 102}, {"time": 224158, "pitch": 56, "duration": 239, "velocity": 100}, {"time": 224158, "pitch": 59, "duration": 239, "velocity": 102}, {"time": 224158, "pitch": 61, "duration": 229, "velocity": 93}, {"time": 224158, "pitch": 64, "duration": 219, "velocity": 98}, {"time": 224637, "pitch": 56, "duration": 549, "velocity": 113}, {"time": 224637, "pitch": 59, "duration": 539, "velocity": 110}, {"time": 224637, "pitch": 61, "duration": 529, "velocity": 110}, {"time": 224637, "pitch": 64, "duration": 508, "velocity": 107}, {"time": 224876, "pitch": 45, "duration": 89, "velocity": 80}, {"time": 225115, "pitch": 45, "duration": 275, "velocity": 102}, {"time": 225360, "pitch": 56, "duration": 255, "velocity": 102}, {"time": 225360, "pitch": 59, "duration": 294, "velocity": 110}, {"time": 225360, "pitch": 61, "duration": 294, "velocity": 102}, {"time": 225360, "pitch": 64, "duration": 274, "velocity": 105}, {"time": 225605, "pitch": 45, "duration": 249, "velocity": 93}, {"time": 225844, "pitch": 40, "duration": 787, "velocity": 105}, {"time": 225844, "pitch": 57, "duration": 249, "velocity": 107}, {"time": 225844, "pitch": 62, "duration": 289, "velocity": 110}, {"time": 225844, "pitch": 66, "duration": 279, "velocity": 107}, {"time": 226322, "pitch": 57, "duration": 40, "velocity": 64}, {"time": 226322, "pitch": 62, "duration": 60, "velocity": 72}, {"time": 226322, "pitch": 66, "duration": 40, "velocity": 58}, {"time": 226561, "pitch": 57, "duration": 279, "velocity": 113}, {"time": 226561, "pitch": 62, "duration": 309, "velocity": 110}, {"time": 226561, "pitch": 66, "duration": 289, "velocity": 107}, {"time": 226801, "pitch": 40, "duration": 159, "velocity": 100}, {"time": 227040, "pitch": 40, "duration": 219, "velocity": 89}, {"time": 227040, "pitch": 57, "duration": 249, "velocity": 110}, {"time": 227040, "pitch": 62, "duration": 289, "velocity": 110}, {"time": 227040, "pitch": 66, "duration": 279, "velocity": 110}, {"time": 227518, "pitch": 40, "duration": 259, "velocity": 119}, {"time": 227518, "pitch": 57, "duration": 229, "velocity": 119}, {"time": 227518, "pitch": 62, "duration": 259, "velocity": 110}, {"time": 227518, "pitch": 66, "duration": 239, "velocity": 116}, {"time": 227997, "pitch": 45, "duration": 458, "velocity": 105}, {"time": 227997, "pitch": 56, "duration": 209, "velocity": 113}, {"time": 227997, "pitch": 59, "duration": 219, "velocity": 107}, {"time": 227997, "pitch": 61, "duration": 219, "velocity": 107}, {"time": 227997, "pitch": 64, "duration": 199, "velocity": 105}, {"time": 228475, "pitch": 56, "duration": 579, "velocity": 110}, {"time": 228475, "pitch": 59, "duration": 559, "velocity": 107}, {"time": 228475, "pitch": 61, "duration": 579, "velocity": 110}, {"time": 228475, "pitch": 64, "duration": 549, "velocity": 110}, {"time": 228720, "pitch": 45, "duration": 81, "velocity": 100}, {"time": 228965, "pitch": 45, "duration": 279, "velocity": 113}, {"time": 229204, "pitch": 56, "duration": 259, "velocity": 102}, {"time": 229204, "pitch": 59, "duration": 279, "velocity": 107}, {"time": 229204, "pitch": 61, "duration": 299, "velocity": 102}, {"time": 229204, "pitch": 64, "duration": 269, "velocity": 105}, {"time": 229443, "pitch": 45, "duration": 130, "velocity": 100}, {"time": 229682, "pitch": 40, "duration": 309, "velocity": 113}, {"time": 229682, "pitch": 57, "duration": 279, "velocity": 116}, {"time": 229682, "pitch": 62, "duration": 309, "velocity": 110}, {"time": 229682, "pitch": 66, "duration": 299, "velocity": 110}, {"time": 230161, "pitch": 40, "duration": 89, "velocity": 105}, {"time": 230161, "pitch": 57, "duration": 69, "velocity": 98}, {"time": 230161, "pitch": 62, "duration": 79, "velocity": 98}, {"time": 230161, "pitch": 66, "duration": 69, "velocity": 91}, {"time": 230400, "pitch": 40, "duration": 279, "velocity": 107}, {"time": 230400, "pitch": 57, "duration": 269, "velocity": 105}, {"time": 230400, "pitch": 62, "duration": 299, "velocity": 102}, {"time": 230400, "pitch": 66, "duration": 279, "velocity": 102}, {"time": 230878, "pitch": 40, "duration": 279, "velocity": 119}, {"time": 230878, "pitch": 57, "duration": 200, "velocity": 119}, {"time": 230878, "pitch": 62, "duration": 259, "velocity": 116}, {"time": 230878, "pitch": 66, "duration": 279, "velocity": 119}, {"time": 231357, "pitch": 40, "duration": 299, "velocity": 119}, {"time": 231357, "pitch": 62, "duration": 279, "velocity": 122}, {"time": 231357, "pitch": 66, "duration": 259, "velocity": 122}, {"time": 231357, "pitch": 69, "duration": 269, "velocity": 116}, {"time": 231835, "pitch": 45, "duration": 265, "velocity": 105}, {"time": 231835, "pitch": 56, "duration": 235, "velocity": 105}, {"time": 231835, "pitch": 59, "duration": 224, "velocity": 107}, {"time": 231835, "pitch": 61, "duration": 214, "velocity": 98}, {"time": 231835, "pitch": 64, "duration": 204, "velocity": 91}, {"time": 232325, "pitch": 56, "duration": 568, "velocity": 116}, {"time": 232325, "pitch": 59, "duration": 558, "velocity": 110}, {"time": 232325, "pitch": 61, "duration": 548, "velocity": 110}, {"time": 232325, "pitch": 64, "duration": 548, "velocity": 113}, {"time": 232564, "pitch": 45, "duration": 89, "velocity": 110}, {"time": 232803, "pitch": 45, "duration": 279, "velocity": 107}, {"time": 233042, "pitch": 56, "duration": 299, "velocity": 110}, {"time": 233042, "pitch": 59, "duration": 299, "velocity": 107}, {"time": 233042, "pitch": 61, "duration": 319, "velocity": 105}, {"time": 233042, "pitch": 64, "duration": 309, "velocity": 110}, {"time": 233281, "pitch": 45, "duration": 130, "velocity": 105}, {"time": 233521, "pitch": 40, "duration": 787, "velocity": 110}, {"time": 233521, "pitch": 57, "duration": 259, "velocity": 105}, {"time": 233521, "pitch": 62, "duration": 299, "velocity": 102}, {"time": 233521, "pitch": 66, "duration": 279, "velocity": 107}, {"time": 233999, "pitch": 57, "duration": 40, "velocity": 64}, {"time": 233999, "pitch": 62, "duration": 60, "velocity": 72}, {"time": 233999, "pitch": 66, "duration": 50, "velocity": 70}, {"time": 234238, "pitch": 57, "duration": 299, "velocity": 110}, {"time": 234238, "pitch": 62, "duration": 319, "velocity": 110}, {"time": 234238, "pitch": 66, "duration": 309, "velocity": 107}, {"time": 234477, "pitch": 40, "duration": 120, "velocity": 100}, {"time": 234717, "pitch": 40, "duration": 219, "velocity": 110}, {"time": 234717, "pitch": 57, "duration": 259, "velocity": 116}, {"time": 234717, "pitch": 62, "duration": 269, "velocity": 113}, {"time": 234717, "pitch": 66, "duration": 269, "velocity": 110}, {"time": 235195, "pitch": 40, "duration": 265, "velocity": 113}, {"time": 235195, "pitch": 57, "duration": 265, "velocity": 113}, {"time": 235195, "pitch": 62, "duration": 275, "velocity": 110}, {"time": 235195, "pitch": 66, "duration": 265, "velocity": 107}, {"time": 235685, "pitch": 45, "duration": 518, "velocity": 110}, {"time": 235685, "pitch": 56, "duration": 259, "velocity": 113}, {"time": 235685, "pitch": 59, "duration": 239, "velocity": 110}, {"time": 235685, "pitch": 61, "duration": 259, "velocity": 107}, {"time": 235685, "pitch": 64, "duration": 239, "velocity": 107}, {"time": 236163, "pitch": 56, "duration": 538, "velocity": 107}, {"time": 236163, "pitch": 59, "duration": 518, "velocity": 102}, {"time": 236163, "pitch": 61, "duration": 528, "velocity": 107}, {"time": 236163, "pitch": 64, "duration": 508, "velocity": 107}, {"time": 236402, "pitch": 45, "duration": 90, "velocity": 98}, {"time": 236641, "pitch": 45, "duration": 259, "velocity": 107}, {"time": 236881, "pitch": 56, "duration": 309, "velocity": 110}, {"time": 236881, "pitch": 59, "duration": 309, "velocity": 110}, {"time": 236881, "pitch": 61, "duration": 318, "velocity": 107}, {"time": 236881, "pitch": 64, "duration": 309, "velocity": 110}, {"time": 237120, "pitch": 45, "duration": 149, "velocity": 102}, {"time": 237359, "pitch": 40, "duration": 169, "velocity": 110}, {"time": 237359, "pitch": 62, "duration": 149, "velocity": 116}, {"time": 237359, "pitch": 68, "duration": 179, "velocity": 110}, {"time": 237359, "pitch": 73, "duration": 189, "velocity": 110}, {"time": 238077, "pitch": 40, "duration": 1197, "velocity": 116}, {"time": 238077, "pitch": 62, "duration": 1197, "velocity": 116}, {"time": 238077, "pitch": 68, "duration": 1197, "velocity": 110}, {"time": 238077, "pitch": 73, "duration": 1197, "velocity": 113}, {"time": 239284, "pitch": 46, "duration": 2143, "velocity": 116}, {"time": 239284, "pitch": 55, "duration": 2143, "velocity": 116}, {"time": 239284, "pitch": 60, "duration": 2143, "velocity": 110}, {"time": 239284, "pitch": 65, "duration": 2143, "velocity": 113}, {"time": 241437, "pitch": 45, "duration": 7666, "velocity": 116}, {"time": 241437, "pitch": 54, "duration": 7666, "velocity": 116}, {"time": 241437, "pitch": 59, "duration": 7666, "velocity": 110}, {"time": 241437, "pitch": 64, "duration": 7666, "velocity": 113}, {"time": 485, "pitch": 45, "duration": 10, "velocity": 100}, {"time": 724, "pitch": 35, "duration": 20, "velocity": 70}, {"time": 724, "pitch": 46, "duration": 10, "velocity": 70}, {"time": 844, "pitch": 40, "duration": 10, "velocity": 70}, {"time": 963, "pitch": 40, "duration": 20, "velocity": 110}, {"time": 963, "pitch": 44, "duration": 10, "velocity": 70}, {"time": 1083, "pitch": 40, "duration": 10, "velocity": 90}, {"time": 1202, "pitch": 41, "duration": 20, "velocity": 100}, {"time": 1202, "pitch": 44, "duration": 10, "velocity": 70}, {"time": 1442, "pitch": 35, "duration": 39, "velocity": 110}, {"time": 1442, "pitch": 42, "duration": 29, "velocity": 80}, {"time": 1442, "pitch": 49, "duration": 20, "velocity": 60}, {"time": 1442, "pitch": 54, "duration": 10, "velocity": 52}, {"time": 1681, "pitch": 42, "duration": 20, "velocity": 60}, {"time": 1681, "pitch": 54, "duration": 10, "velocity": 52}, {"time": 1920, "pitch": 40, "duration": 30, "velocity": 110}, {"time": 1920, "pitch": 42, "duration": 20, "velocity": 80}, {"time": 1920, "pitch": 54, "duration": 10, "velocity": 107}, {"time": 2159, "pitch": 35, "duration": 30, "velocity": 90}, {"time": 2159, "pitch": 42, "duration": 20, "velocity": 60}, {"time": 2159, "pitch": 54, "duration": 10, "velocity": 39}, {"time": 2398, "pitch": 35, "duration": 30, "velocity": 110}, {"time": 2398, "pitch": 42, "duration": 20, "velocity": 80}, {"time": 2398, "pitch": 54, "duration": 10, "velocity": 38}, {"time": 2638, "pitch": 42, "duration": 20, "velocity": 60}, {"time": 2638, "pitch": 54, "duration": 10, "velocity": 62}, {"time": 2877, "pitch": 40, "duration": 30, "velocity": 110}, {"time": 2877, "pitch": 42, "duration": 20, "velocity": 80}, {"time": 2877, "pitch": 54, "duration": 10, "velocity": 99}, {"time": 3116, "pitch": 35, "duration": 30, "velocity": 110}, {"time": 3116, "pitch": 42, "duration": 20, "velocity": 60}, {"time": 3116, "pitch": 54, "duration": 10, "velocity": 62}, {"time": 3355, "pitch": 42, "duration": 21, "velocity": 80}, {"time": 3355, "pitch": 54, "duration": 10, "velocity": 42}, {"time": 3600, "pitch": 35, "duration": 31, "velocity": 90}, {"time": 3600, "pitch": 42, "duration": 20, "velocity": 60}, {"time": 3600, "pitch": 54, "duration": 10, "velocity": 60}, {"time": 3845, "pitch": 40, "duration": 30, "velocity": 110}, {"time": 3845, "pitch": 42, "duration": 20, "velocity": 80}, {"time": 3845, "pitch": 54, "duration": 10, "velocity": 99}, {"time": 4084, "pitch": 35, "duration": 30, "velocity": 80}, {"time": 4084, "pitch": 42, "duration": 20, "velocity": 60}, {"time": 4084, "pitch": 54, "duration": 10, "velocity": 46}, {"time": 4323, "pitch": 35, "duration": 30, "velocity": 110}, {"time": 4323, "pitch": 42, "duration": 20, "velocity": 80}, {"time": 4323, "pitch": 54, "duration": 10, "velocity": 65}, {"time": 4562, "pitch": 42, "duration": 20, "velocity": 60}, {"time": 4562, "pitch": 54, "duration": 10, "velocity": 46}, {"time": 4802, "pitch": 40, "duration": 29, "velocity": 110}, {"time": 4802, "pitch": 42, "duration": 20, "velocity": 80}, {"time": 4802, "pitch": 54, "duration": 10, "velocity": 107}, {"time": 5041, "pitch": 35, "duration": 30, "velocity": 80}, {"time": 5041, "pitch": 42, "duration": 20, "velocity": 60}, {"time": 5041, "pitch": 54, "duration": 10, "velocity": 27}, {"time": 5280, "pitch": 35, "duration": 30, "velocity": 110}, {"time": 5280, "pitch": 42, "duration": 20, "velocity": 80}, {"time": 5280, "pitch": 54, "duration": 10, "velocity": 56}, {"time": 5519, "pitch": 42, "duration": 20, "velocity": 60}, {"time": 5519, "pitch": 54, "duration": 10, "velocity": 44}, {"time": 5758, "pitch": 40, "duration": 30, "velocity": 110}, {"time": 5758, "pitch": 42, "duration": 20, "velocity": 80}, {"time": 5758, "pitch": 54, "duration": 10, "velocity": 107}, {"time": 5998, "pitch": 35, "duration": 30, "velocity": 90}, {"time": 5998, "pitch": 42, "duration": 20, "velocity": 60}, {"time": 5998, "pitch": 54, "duration": 10, "velocity": 18}, {"time": 6237, "pitch": 35, "duration": 30, "velocity": 110}, {"time": 6237, "pitch": 42, "duration": 20, "velocity": 80}, {"time": 6237, "pitch": 54, "duration": 10, "velocity": 67}, {"time": 6476, "pitch": 42, "duration": 20, "velocity": 60}, {"time": 6476, "pitch": 54, "duration": 10, "velocity": 60}, {"time": 6715, "pitch": 40, "duration": 31, "velocity": 110}, {"time": 6715, "pitch": 42, "duration": 21, "velocity": 80}, {"time": 6715, "pitch": 54, "duration": 10, "velocity": 102}, {"time": 6960, "pitch": 35, "duration": 31, "velocity": 110}, {"time": 6960, "pitch": 42, "duration": 20, "velocity": 60}, {"time": 6960, "pitch": 54, "duration": 10, "velocity": 56}, {"time": 7205, "pitch": 42, "duration": 20, "velocity": 80}, {"time": 7205, "pitch": 54, "duration": 10, "velocity": 58}, {"time": 7444, "pitch": 35, "duration": 30, "velocity": 90}, {"time": 7444, "pitch": 42, "duration": 20, "velocity": 60}, {"time": 7444, "pitch": 54, "duration": 10, "velocity": 54}, {"time": 7683, "pitch": 40, "duration": 30, "velocity": 110}, {"time": 7683, "pitch": 42, "duration": 20, "velocity": 80}, {"time": 7683, "pitch": 54, "duration": 10, "velocity": 102}, {"time": 7922, "pitch": 35, "duration": 30, "velocity": 80}, {"time": 7922, "pitch": 42, "duration": 20, "velocity": 60}, {"time": 7922, "pitch": 54, "duration": 10, "velocity": 31}, {"time": 8162, "pitch": 35, "duration": 29, "velocity": 110}, {"time": 8162, "pitch": 42, "duration": 20, "velocity": 80}, {"time": 8162, "pitch": 54, "duration": 10, "velocity": 78}, {"time": 8401, "pitch": 46, "duration": 20, "velocity": 60}, {"time": 8401, "pitch": 54, "duration": 10, "velocity": 39}, {"time": 8640, "pitch": 40, "duration": 30, "velocity": 110}, {"time": 8640, "pitch": 42, "duration": 20, "velocity": 80}, {"time": 8640, "pitch": 54, "duration": 10, "velocity": 99}, {"time": 8760, "pitch": 40, "duration": 10, "velocity": 90}, {"time": 8879, "pitch": 35, "duration": 40, "velocity": 80}, {"time": 8879, "pitch": 42, "duration": 30, "velocity": 60}, {"time": 8879, "pitch": 45, "duration": 20, "velocity": 90}, {"time": 8879, "pitch": 54, "duration": 10, "velocity": 50}, {"time": 9118, "pitch": 35, "duration": 40, "velocity": 110}, {"time": 9118, "pitch": 42, "duration": 30, "velocity": 80}, {"time": 9118, "pitch": 54, "duration": 20, "velocity": 58}, {"time": 9118, "pitch": 57, "duration": 10, "velocity": 60}, {"time": 9358, "pitch": 42, "duration": 20, "velocity": 60}, {"time": 9358, "pitch": 54, "duration": 10, "velocity": 48}, {"time": 9597, "pitch": 40, "duration": 30, "velocity": 110}, {"time": 9597, "pitch": 42, "duration": 20, "velocity": 80}, {"time": 9597, "pitch": 54, "duration": 10, "velocity": 99}, {"time": 9836, "pitch": 35, "duration": 30, "velocity": 90}, {"time": 9836, "pitch": 42, "duration": 20, "velocity": 60}, {"time": 9836, "pitch": 54, "duration": 10, "velocity": 48}, {"time": 10075, "pitch": 35, "duration": 31, "velocity": 110}, {"time": 10075, "pitch": 42, "duration": 20, "velocity": 80}, {"time": 10075, "pitch": 54, "duration": 10, "velocity": 52}, {"time": 10320, "pitch": 42, "duration": 20, "velocity": 60}, {"time": 10320, "pitch": 54, "duration": 10, "velocity": 44}, {"time": 10565, "pitch": 40, "duration": 30, "velocity": 110}, {"time": 10565, "pitch": 42, "duration": 20, "velocity": 80}, {"time": 10565, "pitch": 54, "duration": 10, "velocity": 102}, {"time": 10804, "pitch": 35, "duration": 30, "velocity": 110}, {"time": 10804, "pitch": 42, "duration": 20, "velocity": 60}, {"time": 10804, "pitch": 54, "duration": 10, "velocity": 58}, {"time": 11043, "pitch": 42, "duration": 20, "velocity": 80}, {"time": 11043, "pitch": 54, "duration": 10, "velocity": 50}, {"time": 11282, "pitch": 35, "duration": 30, "velocity": 90}, {"time": 11282, "pitch": 42, "duration": 20, "velocity": 60}, {"time": 11282, "pitch": 54, "duration": 10, "velocity": 60}, {"time": 11522, "pitch": 40, "duration": 29, "velocity": 110}, {"time": 11522, "pitch": 42, "duration": 20, "velocity": 80}, {"time": 11522, "pitch": 54, "duration": 10, "velocity": 96}, {"time": 11761, "pitch": 35, "duration": 30, "velocity": 80}, {"time": 11761, "pitch": 42, "duration": 20, "velocity": 60}, {"time": 11761, "pitch": 54, "duration": 10, "velocity": 32}, {"time": 12000, "pitch": 35, "duration": 30, "velocity": 110}, {"time": 12000, "pitch": 42, "duration": 20, "velocity": 80}, {"time": 12000, "pitch": 54, "duration": 10, "velocity": 60}, {"time": 12239, "pitch": 42, "duration": 20, "velocity": 60}, {"time": 12239, "pitch": 54, "duration": 10, "velocity": 46}, {"time": 12478, "pitch": 40, "duration": 30, "velocity": 110}, {"time": 12478, "pitch": 42, "duration": 20, "velocity": 80}, {"time": 12478, "pitch": 54, "duration": 10, "velocity": 107}, {"time": 12718, "pitch": 35, "duration": 29, "velocity": 80}, {"time": 12718, "pitch": 42, "duration": 20, "velocity": 60}, {"time": 12718, "pitch": 54, "duration": 10, "velocity": 43}, {"time": 12957, "pitch": 35, "duration": 30, "velocity": 110}, {"time": 12957, "pitch": 42, "duration": 20, "velocity": 80}, {"time": 12957, "pitch": 54, "duration": 10, "velocity": 60}, {"time": 13196, "pitch": 42, "duration": 20, "velocity": 60}, {"time": 13196, "pitch": 54, "duration": 10, "velocity": 52}, {"time": 13435, "pitch": 40, "duration": 31, "velocity": 110}, {"time": 13435, "pitch": 42, "duration": 20, "velocity": 80}, {"time": 13435, "pitch": 54, "duration": 10, "velocity": 102}, {"time": 13680, "pitch": 35, "duration": 31, "velocity": 90}, {"time": 13680, "pitch": 42, "duration": 20, "velocity": 60}, {"time": 13680, "pitch": 54, "duration": 10, "velocity": 35}, {"time": 13925, "pitch": 40, "duration": 30, "velocity": 110}, {"time": 13925, "pitch": 42, "duration": 20, "velocity": 80}, {"time": 13925, "pitch": 54, "duration": 10, "velocity": 78}, {"time": 14164, "pitch": 42, "duration": 30, "velocity": 60}, {"time": 14164, "pitch": 45, "duration": 20, "velocity": 90}, {"time": 14164, "pitch": 54, "duration": 10, "velocity": 43}, {"time": 14403, "pitch": 41, "duration": 30, "velocity": 90}, {"time": 14403, "pitch": 42, "duration": 20, "velocity": 80}, {"time": 14403, "pitch": 54, "duration": 10, "velocity": 87}, {"time": 14642, "pitch": 35, "duration": 40, "velocity": 110}, {"time": 14642, "pitch": 42, "duration": 30, "velocity": 60}, {"time": 14642, "pitch": 49, "duration": 20, "velocity": 60}, {"time": 14642, "pitch": 54, "duration": 10, "velocity": 82}, {"time": 14882, "pitch": 42, "duration": 10, "velocity": 80}, {"time": 15121, "pitch": 35, "duration": 20, "velocity": 90}, {"time": 15121, "pitch": 42, "duration": 10, "velocity": 60}, {"time": 15360, "pitch": 40, "duration": 40, "velocity": 110}, {"time": 15360, "pitch": 42, "duration": 30, "velocity": 80}, {"time": 15360, "pitch": 54, "duration": 20, "velocity": 86}, {"time": 15360, "pitch": 57, "duration": 10, "velocity": 60}, {"time": 15400, "pitch": 54, "duration": 10, "velocity": 84}, {"time": 15440, "pitch": 54, "duration": 10, "velocity": 81}, {"time": 15480, "pitch": 54, "duration": 10, "velocity": 78}, {"time": 15519, "pitch": 54, "duration": 10, "velocity": 75}, {"time": 15559, "pitch": 54, "duration": 10, "velocity": 73}, {"time": 15599, "pitch": 44, "duration": 20, "velocity": 60}, {"time": 15599, "pitch": 54, "duration": 10, "velocity": 70}, {"time": 15639, "pitch": 54, "duration": 10, "velocity": 67}, {"time": 15679, "pitch": 54, "duration": 10, "velocity": 64}, {"time": 15719, "pitch": 54, "duration": 10, "velocity": 62}, {"time": 15759, "pitch": 54, "duration": 10, "velocity": 59}, {"time": 15799, "pitch": 54, "duration": 9, "velocity": 56}, {"time": 15838, "pitch": 54, "duration": 10, "velocity": 53}, {"time": 15878, "pitch": 54, "duration": 10, "velocity": 51}, {"time": 15918, "pitch": 54, "duration": 10, "velocity": 48}, {"time": 15958, "pitch": 54, "duration": 10, "velocity": 45}, {"time": 15998, "pitch": 54, "duration": 10, "velocity": 42}, {"time": 16038, "pitch": 54, "duration": 10, "velocity": 40}, {"time": 16078, "pitch": 44, "duration": 20, "velocity": 60}, {"time": 16078, "pitch": 45, "duration": 20, "velocity": 60}, {"time": 16078, "pitch": 54, "duration": 10, "velocity": 37}, {"time": 16098, "pitch": 41, "duration": 9, "velocity": 60}, {"time": 16117, "pitch": 54, "duration": 10, "velocity": 34}, {"time": 16157, "pitch": 54, "duration": 10, "velocity": 31}, {"time": 16197, "pitch": 54, "duration": 10, "velocity": 29}, {"time": 16237, "pitch": 54, "duration": 10, "velocity": 26}, {"time": 16277, "pitch": 54, "duration": 10, "velocity": 23}, {"time": 16317, "pitch": 45, "duration": 20, "velocity": 75}, {"time": 16317, "pitch": 54, "duration": 10, "velocity": 20}, {"time": 16337, "pitch": 41, "duration": 10, "velocity": 75}, {"time": 16556, "pitch": 35, "duration": 20, "velocity": 80}, {"time": 16556, "pitch": 44, "duration": 20, "velocity": 60}, {"time": 16556, "pitch": 45, "duration": 10, "velocity": 85}, {"time": 16576, "pitch": 41, "duration": 10, "velocity": 85}, {"time": 16795, "pitch": 35, "duration": 31, "velocity": 110}, {"time": 16795, "pitch": 42, "duration": 20, "velocity": 80}, {"time": 16795, "pitch": 49, "duration": 10, "velocity": 60}, {"time": 17040, "pitch": 42, "duration": 10, "velocity": 60}, {"time": 17285, "pitch": 40, "duration": 20, "velocity": 110}, {"time": 17285, "pitch": 42, "duration": 10, "velocity": 80}, {"time": 17524, "pitch": 35, "duration": 20, "velocity": 90}, {"time": 17524, "pitch": 42, "duration": 10, "velocity": 60}, {"time": 17763, "pitch": 35, "duration": 20, "velocity": 110}, {"time": 17763, "pitch": 42, "duration": 10, "velocity": 80}, {"time": 18002, "pitch": 42, "duration": 10, "velocity": 60}, {"time": 18242, "pitch": 40, "duration": 20, "velocity": 110}, {"time": 18242, "pitch": 42, "duration": 10, "velocity": 80}, {"time": 18481, "pitch": 35, "duration": 20, "velocity": 110}, {"time": 18481, "pitch": 42, "duration": 10, "velocity": 60}, {"time": 18720, "pitch": 42, "duration": 10, "velocity": 80}, {"time": 18959, "pitch": 35, "duration": 20, "velocity": 90}, {"time": 18959, "pitch": 42, "duration": 10, "velocity": 60}, {"time": 19198, "pitch": 40, "duration": 20, "velocity": 110}, {"time": 19198, "pitch": 42, "duration": 10, "velocity": 80}, {"time": 19438, "pitch": 35, "duration": 20, "velocity": 80}, {"time": 19438, "pitch": 42, "duration": 10, "velocity": 60}, {"time": 19677, "pitch": 35, "duration": 20, "velocity": 110}, {"time": 19677, "pitch": 42, "duration": 10, "velocity": 80}, {"time": 19916, "pitch": 42, "duration": 10, "velocity": 60}, {"time": 20155, "pitch": 40, "duration": 20, "velocity": 110}, {"time": 20155, "pitch": 42, "duration": 10, "velocity": 80}, {"time": 20400, "pitch": 35, "duration": 20, "velocity": 80}, {"time": 20400, "pitch": 42, "duration": 10, "velocity": 60}, {"time": 20645, "pitch": 35, "duration": 20, "velocity": 110}, {"time": 20645, "pitch": 42, "duration": 10, "velocity": 80}, {"time": 20884, "pitch": 42, "duration": 10, "velocity": 60}, {"time": 21123, "pitch": 40, "duration": 20, "velocity": 110}, {"time": 21123, "pitch": 42, "duration": 10, "velocity": 80}, {"time": 21362, "pitch": 35, "duration": 20, "velocity": 90}, {"time": 21362, "pitch": 42, "duration": 10, "velocity": 60}, {"time": 21602, "pitch": 35, "duration": 20, "velocity": 110}, {"time": 21602, "pitch": 42, "duration": 10, "velocity": 80}, {"time": 21841, "pitch": 42, "duration": 10, "velocity": 60}, {"time": 22080, "pitch": 40, "duration": 20, "velocity": 110}, {"time": 22080, "pitch": 42, "duration": 10, "velocity": 80}, {"time": 22319, "pitch": 35, "duration": 20, "velocity": 110}, {"time": 22319, "pitch": 42, "duration": 10, "velocity": 60}, {"time": 22558, "pitch": 42, "duration": 10, "velocity": 80}, {"time": 22798, "pitch": 35, "duration": 20, "velocity": 90}, {"time": 22798, "pitch": 42, "duration": 10, "velocity": 60}, {"time": 23037, "pitch": 40, "duration": 20, "velocity": 110}, {"time": 23037, "pitch": 42, "duration": 10, "velocity": 80}, {"time": 23276, "pitch": 35, "duration": 20, "velocity": 80}, {"time": 23276, "pitch": 42, "duration": 10, "velocity": 60}, {"time": 23515, "pitch": 35, "duration": 20, "velocity": 110}, {"time": 23515, "pitch": 42, "duration": 10, "velocity": 80}, {"time": 23760, "pitch": 46, "duration": 10, "velocity": 60}, {"time": 24005, "pitch": 40, "duration": 20, "velocity": 110}, {"time": 24005, "pitch": 42, "duration": 10, "velocity": 80}, {"time": 24244, "pitch": 35, "duration": 20, "velocity": 80}, {"time": 24244, "pitch": 42, "duration": 10, "velocity": 60}, {"time": 24483, "pitch": 35, "duration": 20, "velocity": 110}, {"time": 24483, "pitch": 42, "duration": 10, "velocity": 80}, {"time": 24722, "pitch": 42, "duration": 10, "velocity": 60}, {"time": 24962, "pitch": 40, "duration": 20, "velocity": 110}, {"time": 24962, "pitch": 42, "duration": 10, "velocity": 80}, {"time": 25201, "pitch": 35, "duration": 20, "velocity": 90}, {"time": 25201, "pitch": 42, "duration": 10, "velocity": 60}, {"time": 25440, "pitch": 35, "duration": 20, "velocity": 110}, {"time": 25440, "pitch": 42, "duration": 10, "velocity": 80}, {"time": 25679, "pitch": 42, "duration": 10, "velocity": 60}, {"time": 25918, "pitch": 40, "duration": 20, "velocity": 110}, {"time": 25918, "pitch": 42, "duration": 10, "velocity": 80}, {"time": 26158, "pitch": 35, "duration": 20, "velocity": 110}, {"time": 26158, "pitch": 42, "duration": 10, "velocity": 60}, {"time": 26397, "pitch": 42, "duration": 10, "velocity": 80}, {"time": 26636, "pitch": 35, "duration": 20, "velocity": 90}, {"time": 26636, "pitch": 42, "duration": 10, "velocity": 60}, {"time": 26875, "pitch": 40, "duration": 20, "velocity": 110}, {"time": 26875, "pitch": 42, "duration": 10, "velocity": 80}, {"time": 27120, "pitch": 35, "duration": 20, "velocity": 80}, {"time": 27120, "pitch": 42, "duration": 10, "velocity": 60}, {"time": 27365, "pitch": 35, "duration": 20, "velocity": 110}, {"time": 27365, "pitch": 42, "duration": 10, "velocity": 80}, {"time": 27604, "pitch": 42, "duration": 10, "velocity": 60}, {"time": 27843, "pitch": 40, "duration": 20, "velocity": 110}, {"time": 27843, "pitch": 42, "duration": 10, "velocity": 80}, {"time": 28082, "pitch": 35, "duration": 20, "velocity": 80}, {"time": 28082, "pitch": 42, "duration": 10, "velocity": 60}, {"time": 28322, "pitch": 35, "duration": 19, "velocity": 110}, {"time": 28322, "pitch": 42, "duration": 10, "velocity": 80}, {"time": 28561, "pitch": 42, "duration": 10, "velocity": 60}, {"time": 28800, "pitch": 40, "duration": 20, "velocity": 110}, {"time": 28800, "pitch": 42, "duration": 10, "velocity": 80}, {"time": 29039, "pitch": 35, "duration": 20, "velocity": 90}, {"time": 29039, "pitch": 42, "duration": 10, "velocity": 60}, {"time": 29278, "pitch": 35, "duration": 20, "velocity": 110}, {"time": 29278, "pitch": 42, "duration": 10, "velocity": 80}, {"time": 29518, "pitch": 42, "duration": 10, "velocity": 60}, {"time": 29757, "pitch": 40, "duration": 20, "velocity": 110}, {"time": 29757, "pitch": 42, "duration": 10, "velocity": 80}, {"time": 29996, "pitch": 35, "duration": 20, "velocity": 110}, {"time": 29996, "pitch": 42, "duration": 10, "velocity": 60}, {"time": 30235, "pitch": 42, "duration": 10, "velocity": 80}, {"time": 30480, "pitch": 35, "duration": 20, "velocity": 90}, {"time": 30480, "pitch": 42, "duration": 10, "velocity": 60}, {"time": 30725, "pitch": 40, "duration": 20, "velocity": 110}, {"time": 30725, "pitch": 42, "duration": 10, "velocity": 80}, {"time": 30964, "pitch": 35, "duration": 20, "velocity": 80}, {"time": 30964, "pitch": 42, "duration": 10, "velocity": 60}, {"time": 31203, "pitch": 35, "duration": 20, "velocity": 110}, {"time": 31203, "pitch": 42, "duration": 10, "velocity": 80}, {"time": 31442, "pitch": 46, "duration": 10, "velocity": 60}, {"time": 31562, "pitch": 40, "duration": 10, "velocity": 80}, {"time": 31682, "pitch": 40, "duration": 19, "velocity": 110}, {"time": 31682, "pitch": 42, "duration": 10, "velocity": 80}, {"time": 31801, "pitch": 45, "duration": 10, "velocity": 80}, {"time": 31921, "pitch": 35, "duration": 30, "velocity": 80}, {"time": 31921, "pitch": 41, "duration": 20, "velocity": 80}, {"time": 31921, "pitch": 42, "duration": 10, "velocity": 60}, {"time": 32160, "pitch": 35, "duration": 30, "velocity": 110}, {"time": 32160, "pitch": 42, "duration": 20, "velocity": 80}, {"time": 32160, "pitch": 49, "duration": 10, "velocity": 60}, {"time": 32399, "pitch": 42, "duration": 10, "velocity": 60}, {"time": 32638, "pitch": 40, "duration": 20, "velocity": 110}, {"time": 32638, "pitch": 42, "duration": 10, "velocity": 80}, {"time": 32878, "pitch": 35, "duration": 20, "velocity": 90}, {"time": 32878, "pitch": 42, "duration": 10, "velocity": 60}, {"time": 33117, "pitch": 35, "duration": 20, "velocity": 110}, {"time": 33117, "pitch": 42, "duration": 10, "velocity": 80}, {"time": 33356, "pitch": 42, "duration": 10, "velocity": 60}, {"time": 33595, "pitch": 40, "duration": 20, "velocity": 110}, {"time": 33595, "pitch": 42, "duration": 10, "velocity": 80}, {"time": 33840, "pitch": 46, "duration": 10, "velocity": 60}, {"time": 34085, "pitch": 35, "duration": 20, "velocity": 110}, {"time": 34085, "pitch": 42, "duration": 10, "velocity": 80}, {"time": 34324, "pitch": 42, "duration": 10, "velocity": 60}, {"time": 34563, "pitch": 40, "duration": 20, "velocity": 110}, {"time": 34563, "pitch": 42, "duration": 10, "velocity": 80}, {"time": 34802, "pitch": 35, "duration": 20, "velocity": 80}, {"time": 34802, "pitch": 42, "duration": 10, "velocity": 60}, {"time": 35042, "pitch": 35, "duration": 19, "velocity": 110}, {"time": 35042, "pitch": 42, "duration": 10, "velocity": 80}, {"time": 35281, "pitch": 42, "duration": 10, "velocity": 60}, {"time": 35520, "pitch": 40, "duration": 20, "velocity": 110}, {"time": 35520, "pitch": 42, "duration": 10, "velocity": 80}, {"time": 35759, "pitch": 35, "duration": 20, "velocity": 80}, {"time": 35759, "pitch": 42, "duration": 10, "velocity": 60}, {"time": 35998, "pitch": 35, "duration": 20, "velocity": 110}, {"time": 35998, "pitch": 42, "duration": 10, "velocity": 80}, {"time": 36238, "pitch": 42, "duration": 10, "velocity": 60}, {"time": 36477, "pitch": 40, "duration": 20, "velocity": 110}, {"time": 36477, "pitch": 42, "duration": 10, "velocity": 80}, {"time": 36716, "pitch": 35, "duration": 20, "velocity": 90}, {"time": 36716, "pitch": 42, "duration": 10, "velocity": 60}, {"time": 36955, "pitch": 35, "duration": 20, "velocity": 110}, {"time": 36955, "pitch": 42, "duration": 10, "velocity": 80}, {"time": 37200, "pitch": 42, "duration": 10, "velocity": 60}, {"time": 37445, "pitch": 40, "duration": 20, "velocity": 110}, {"time": 37445, "pitch": 42, "duration": 10, "velocity": 80}, {"time": 37684, "pitch": 46, "duration": 10, "velocity": 60}, {"time": 37923, "pitch": 35, "duration": 20, "velocity": 110}, {"time": 37923, "pitch": 42, "duration": 10, "velocity": 80}, {"time": 38162, "pitch": 42, "duration": 10, "velocity": 60}, {"time": 38402, "pitch": 40, "duration": 19, "velocity": 110}, {"time": 38402, "pitch": 42, "duration": 10, "velocity": 80}, {"time": 38641, "pitch": 35, "duration": 20, "velocity": 80}, {"time": 38641, "pitch": 42, "duration": 10, "velocity": 60}, {"time": 38880, "pitch": 35, "duration": 20, "velocity": 110}, {"time": 38880, "pitch": 42, "duration": 10, "velocity": 80}, {"time": 39119, "pitch": 40, "duration": 20, "velocity": 110}, {"time": 39119, "pitch": 46, "duration": 10, "velocity": 60}, {"time": 39358, "pitch": 42, "duration": 20, "velocity": 80}, {"time": 39358, "pitch": 45, "duration": 10, "velocity": 90}, {"time": 39598, "pitch": 35, "duration": 29, "velocity": 80}, {"time": 39598, "pitch": 41, "duration": 20, "velocity": 90}, {"time": 39598, "pitch": 42, "duration": 10, "velocity": 60}, {"time": 39837, "pitch": 35, "duration": 30, "velocity": 110}, {"time": 39837, "pitch": 42, "duration": 20, "velocity": 80}, {"time": 39837, "pitch": 57, "duration": 10, "velocity": 60}, {"time": 40076, "pitch": 42, "duration": 10, "velocity": 60}, {"time": 40315, "pitch": 40, "duration": 20, "velocity": 110}, {"time": 40315, "pitch": 42, "duration": 10, "velocity": 80}, {"time": 40560, "pitch": 35, "duration": 20, "velocity": 90}, {"time": 40560, "pitch": 42, "duration": 10, "velocity": 60}, {"time": 40805, "pitch": 35, "duration": 20, "velocity": 110}, {"time": 40805, "pitch": 42, "duration": 10, "velocity": 80}, {"time": 41044, "pitch": 42, "duration": 10, "velocity": 60}, {"time": 41283, "pitch": 40, "duration": 20, "velocity": 110}, {"time": 41283, "pitch": 42, "duration": 10, "velocity": 80}, {"time": 41522, "pitch": 46, "duration": 10, "velocity": 60}, {"time": 41762, "pitch": 35, "duration": 19, "velocity": 110}, {"time": 41762, "pitch": 42, "duration": 10, "velocity": 80}, {"time": 42001, "pitch": 42, "duration": 10, "velocity": 60}, {"time": 42240, "pitch": 40, "duration": 20, "velocity": 110}, {"time": 42240, "pitch": 42, "duration": 10, "velocity": 80}, {"time": 42479, "pitch": 35, "duration": 20, "velocity": 80}, {"time": 42479, "pitch": 42, "duration": 10, "velocity": 60}, {"time": 42718, "pitch": 35, "duration": 20, "velocity": 110}, {"time": 42718, "pitch": 42, "duration": 10, "velocity": 80}, {"time": 42958, "pitch": 42, "duration": 10, "velocity": 60}, {"time": 43197, "pitch": 40, "duration": 20, "velocity": 110}, {"time": 43197, "pitch": 42, "duration": 10, "velocity": 80}, {"time": 43436, "pitch": 35, "duration": 20, "velocity": 80}, {"time": 43436, "pitch": 42, "duration": 10, "velocity": 60}, {"time": 43675, "pitch": 35, "duration": 31, "velocity": 110}, {"time": 43675, "pitch": 42, "duration": 20, "velocity": 80}, {"time": 43675, "pitch": 49, "duration": 10, "velocity": 60}, {"time": 43920, "pitch": 42, "duration": 10, "velocity": 60}, {"time": 44165, "pitch": 40, "duration": 20, "velocity": 110}, {"time": 44165, "pitch": 42, "duration": 10, "velocity": 80}, {"time": 44404, "pitch": 35, "duration": 20, "velocity": 90}, {"time": 44404, "pitch": 42, "duration": 10, "velocity": 60}, {"time": 44643, "pitch": 35, "duration": 30, "velocity": 110}, {"time": 44643, "pitch": 41, "duration": 20, "velocity": 90}, {"time": 44643, "pitch": 42, "duration": 10, "velocity": 80}, {"time": 44882, "pitch": 40, "duration": 20, "velocity": 40}, {"time": 44882, "pitch": 46, "duration": 10, "velocity": 60}, {"time": 45002, "pitch": 40, "duration": 10, "velocity": 60}, {"time": 45122, "pitch": 40, "duration": 10, "velocity": 110}, {"time": 45361, "pitch": 35, "duration": 30, "velocity": 110}, {"time": 45361, "pitch": 44, "duration": 20, "velocity": 60}, {"time": 45361, "pitch": 57, "duration": 10, "velocity": 60}, {"time": 45600, "pitch": 42, "duration": 10, "velocity": 80}, {"time": 45839, "pitch": 35, "duration": 20, "velocity": 80}, {"time": 45839, "pitch": 42, "duration": 10, "velocity": 60}, {"time": 46078, "pitch": 40, "duration": 20, "velocity": 110}, {"time": 46078, "pitch": 42, "duration": 10, "velocity": 80}, {"time": 46318, "pitch": 35, "duration": 29, "velocity": 110}, {"time": 46318, "pitch": 42, "duration": 19, "velocity": 60}, {"time": 46318, "pitch": 49, "duration": 10, "velocity": 60}, {"time": 46557, "pitch": 40, "duration": 20, "velocity": 110}, {"time": 46557, "pitch": 42, "duration": 10, "velocity": 80}, {"time": 46796, "pitch": 35, "duration": 20, "velocity": 110}, {"time": 46796, "pitch": 46, "duration": 10, "velocity": 60}, {"time": 47035, "pitch": 40, "duration": 20, "velocity": 110}, {"time": 47035, "pitch": 42, "duration": 10, "velocity": 80}, {"time": 47158, "pitch": 35, "duration": 10, "velocity": 80}, {"time": 47280, "pitch": 40, "duration": 20, "velocity": 95}, {"time": 47280, "pitch": 42, "duration": 10, "velocity": 60}, {"time": 47402, "pitch": 40, "duration": 11, "velocity": 110}, {"time": 47525, "pitch": 35, "duration": 30, "velocity": 110}, {"time": 47525, "pitch": 42, "duration": 20, "velocity": 80}, {"time": 47525, "pitch": 49, "duration": 10, "velocity": 60}, {"time": 47764, "pitch": 42, "duration": 10, "velocity": 60}, {"time": 48003, "pitch": 40, "duration": 20, "velocity": 110}, {"time": 48003, "pitch": 42, "duration": 10, "velocity": 80}, {"time": 48242, "pitch": 35, "duration": 20, "velocity": 90}, {"time": 48242, "pitch": 42, "duration": 10, "velocity": 60}, {"time": 48482, "pitch": 35, "duration": 19, "velocity": 110}, {"time": 48482, "pitch": 42, "duration": 10, "velocity": 80}, {"time": 48721, "pitch": 42, "duration": 10, "velocity": 60}, {"time": 48960, "pitch": 40, "duration": 20, "velocity": 110}, {"time": 48960, "pitch": 42, "duration": 10, "velocity": 80}, {"time": 49199, "pitch": 35, "duration": 20, "velocity": 110}, {"time": 49199, "pitch": 42, "duration": 10, "velocity": 60}, {"time": 49438, "pitch": 42, "duration": 10, "velocity": 80}, {"time": 49678, "pitch": 35, "duration": 19, "velocity": 90}, {"time": 49678, "pitch": 42, "duration": 10, "velocity": 60}, {"time": 49917, "pitch": 40, "duration": 20, "velocity": 110}, {"time": 49917, "pitch": 42, "duration": 10, "velocity": 80}, {"time": 50156, "pitch": 35, "duration": 20, "velocity": 80}, {"time": 50156, "pitch": 42, "duration": 10, "velocity": 60}, {"time": 50395, "pitch": 35, "duration": 20, "velocity": 110}, {"time": 50395, "pitch": 42, "duration": 10, "velocity": 80}, {"time": 50640, "pitch": 42, "duration": 10, "velocity": 60}, {"time": 50885, "pitch": 40, "duration": 20, "velocity": 110}, {"time": 50885, "pitch": 42, "duration": 10, "velocity": 80}, {"time": 51124, "pitch": 35, "duration": 20, "velocity": 80}, {"time": 51124, "pitch": 42, "duration": 10, "velocity": 60}, {"time": 51363, "pitch": 35, "duration": 20, "velocity": 110}, {"time": 51363, "pitch": 42, "duration": 10, "velocity": 80}, {"time": 51602, "pitch": 42, "duration": 10, "velocity": 60}, {"time": 51842, "pitch": 40, "duration": 19, "velocity": 110}, {"time": 51842, "pitch": 42, "duration": 10, "velocity": 80}, {"time": 52081, "pitch": 35, "duration": 20, "velocity": 90}, {"time": 52081, "pitch": 42, "duration": 10, "velocity": 60}, {"time": 52320, "pitch": 35, "duration": 20, "velocity": 110}, {"time": 52320, "pitch": 42, "duration": 10, "velocity": 80}, {"time": 52559, "pitch": 42, "duration": 10, "velocity": 60}, {"time": 52798, "pitch": 40, "duration": 20, "velocity": 110}, {"time": 52798, "pitch": 42, "duration": 10, "velocity": 80}, {"time": 53038, "pitch": 35, "duration": 19, "velocity": 110}, {"time": 53038, "pitch": 42, "duration": 10, "velocity": 60}, {"time": 53277, "pitch": 42, "duration": 10, "velocity": 80}, {"time": 53516, "pitch": 35, "duration": 20, "velocity": 90}, {"time": 53516, "pitch": 42, "duration": 10, "velocity": 60}, {"time": 53755, "pitch": 40, "duration": 20, "velocity": 110}, {"time": 53755, "pitch": 42, "duration": 10, "velocity": 80}, {"time": 54000, "pitch": 35, "duration": 20, "velocity": 80}, {"time": 54000, "pitch": 42, "duration": 10, "velocity": 60}, {"time": 54245, "pitch": 35, "duration": 20, "velocity": 110}, {"time": 54245, "pitch": 42, "duration": 10, "velocity": 80}, {"time": 54484, "pitch": 46, "duration": 10, "velocity": 60}, {"time": 54723, "pitch": 40, "duration": 20, "velocity": 110}, {"time": 54723, "pitch": 42, "duration": 10, "velocity": 80}, {"time": 54962, "pitch": 35, "duration": 20, "velocity": 80}, {"time": 54962, "pitch": 42, "duration": 10, "velocity": 60}, {"time": 55202, "pitch": 35, "duration": 19, "velocity": 110}, {"time": 55202, "pitch": 42, "duration": 10, "velocity": 80}, {"time": 55441, "pitch": 42, "duration": 10, "velocity": 60}, {"time": 55680, "pitch": 40, "duration": 20, "velocity": 110}, {"time": 55680, "pitch": 42, "duration": 10, "velocity": 80}, {"time": 55919, "pitch": 35, "duration": 20, "velocity": 90}, {"time": 55919, "pitch": 42, "duration": 10, "velocity": 60}, {"time": 56158, "pitch": 35, "duration": 20, "velocity": 110}, {"time": 56158, "pitch": 42, "duration": 10, "velocity": 80}, {"time": 56398, "pitch": 42, "duration": 10, "velocity": 60}, {"time": 56637, "pitch": 40, "duration": 20, "velocity": 110}, {"time": 56637, "pitch": 42, "duration": 10, "velocity": 80}, {"time": 56876, "pitch": 35, "duration": 20, "velocity": 110}, {"time": 56876, "pitch": 42, "duration": 10, "velocity": 60}, {"time": 57115, "pitch": 42, "duration": 10, "velocity": 80}, {"time": 57360, "pitch": 35, "duration": 20, "velocity": 90}, {"time": 57360, "pitch": 42, "duration": 10, "velocity": 60}, {"time": 57605, "pitch": 40, "duration": 20, "velocity": 110}, {"time": 57605, "pitch": 42, "duration": 10, "velocity": 80}, {"time": 57844, "pitch": 35, "duration": 20, "velocity": 80}, {"time": 57844, "pitch": 42, "duration": 10, "velocity": 60}, {"time": 58083, "pitch": 35, "duration": 20, "velocity": 110}, {"time": 58083, "pitch": 42, "duration": 10, "velocity": 80}, {"time": 58322, "pitch": 42, "duration": 10, "velocity": 60}, {"time": 58562, "pitch": 40, "duration": 19, "velocity": 110}, {"time": 58562, "pitch": 42, "duration": 10, "velocity": 80}, {"time": 58801, "pitch": 35, "duration": 20, "velocity": 80}, {"time": 58801, "pitch": 42, "duration": 10, "velocity": 60}, {"time": 59040, "pitch": 35, "duration": 20, "velocity": 110}, {"time": 59040, "pitch": 42, "duration": 10, "velocity": 80}, {"time": 59279, "pitch": 42, "duration": 10, "velocity": 60}, {"time": 59518, "pitch": 40, "duration": 20, "velocity": 110}, {"time": 59518, "pitch": 42, "duration": 10, "velocity": 80}, {"time": 59758, "pitch": 35, "duration": 19, "velocity": 90}, {"time": 59758, "pitch": 42, "duration": 10, "velocity": 60}, {"time": 59997, "pitch": 35, "duration": 20, "velocity": 110}, {"time": 59997, "pitch": 42, "duration": 10, "velocity": 80}, {"time": 60236, "pitch": 42, "duration": 10, "velocity": 60}, {"time": 60475, "pitch": 40, "duration": 20, "velocity": 110}, {"time": 60475, "pitch": 42, "duration": 10, "velocity": 80}, {"time": 60720, "pitch": 35, "duration": 20, "velocity": 110}, {"time": 60720, "pitch": 42, "duration": 10, "velocity": 60}, {"time": 60965, "pitch": 42, "duration": 10, "velocity": 80}, {"time": 61204, "pitch": 35, "duration": 20, "velocity": 90}, {"time": 61204, "pitch": 42, "duration": 10, "velocity": 60}, {"time": 61443, "pitch": 40, "duration": 20, "velocity": 110}, {"time": 61443, "pitch": 42, "duration": 10, "velocity": 80}, {"time": 61682, "pitch": 35, "duration": 20, "velocity": 80}, {"time": 61682, "pitch": 42, "duration": 10, "velocity": 60}, {"time": 61922, "pitch": 35, "duration": 19, "velocity": 110}, {"time": 61922, "pitch": 42, "duration": 9, "velocity": 80}, {"time": 62161, "pitch": 40, "duration": 20, "velocity": 100}, {"time": 62161, "pitch": 46, "duration": 10, "velocity": 60}, {"time": 62400, "pitch": 40, "duration": 20, "velocity": 110}, {"time": 62400, "pitch": 42, "duration": 10, "velocity": 80}, {"time": 62639, "pitch": 35, "duration": 30, "velocity": 80}, {"time": 62639, "pitch": 41, "duration": 20, "velocity": 80}, {"time": 62639, "pitch": 42, "duration": 10, "velocity": 60}, {"time": 62878, "pitch": 35, "duration": 30, "velocity": 110}, {"time": 62878, "pitch": 42, "duration": 20, "velocity": 80}, {"time": 62878, "pitch": 49, "duration": 10, "velocity": 60}, {"time": 63118, "pitch": 42, "duration": 10, "velocity": 60}, {"time": 63357, "pitch": 40, "duration": 20, "velocity": 110}, {"time": 63357, "pitch": 42, "duration": 10, "velocity": 80}, {"time": 63596, "pitch": 35, "duration": 20, "velocity": 90}, {"time": 63596, "pitch": 42, "duration": 10, "velocity": 60}, {"time": 63835, "pitch": 35, "duration": 20, "velocity": 110}, {"time": 63835, "pitch": 42, "duration": 10, "velocity": 80}, {"time": 64080, "pitch": 42, "duration": 10, "velocity": 60}, {"time": 64325, "pitch": 40, "duration": 20, "velocity": 110}, {"time": 64325, "pitch": 42, "duration": 10, "velocity": 80}, {"time": 64564, "pitch": 46, "duration": 10, "velocity": 60}, {"time": 64803, "pitch": 35, "duration": 20, "velocity": 110}, {"time": 64803, "pitch": 42, "duration": 10, "velocity": 80}, {"time": 65042, "pitch": 42, "duration": 10, "velocity": 60}, {"time": 65282, "pitch": 40, "duration": 19, "velocity": 110}, {"time": 65282, "pitch": 42, "duration": 9, "velocity": 80}, {"time": 65521, "pitch": 35, "duration": 20, "velocity": 80}, {"time": 65521, "pitch": 42, "duration": 10, "velocity": 60}, {"time": 65760, "pitch": 35, "duration": 20, "velocity": 110}, {"time": 65760, "pitch": 42, "duration": 10, "velocity": 80}, {"time": 65999, "pitch": 42, "duration": 10, "velocity": 60}, {"time": 66238, "pitch": 40, "duration": 20, "velocity": 110}, {"time": 66238, "pitch": 42, "duration": 10, "velocity": 80}, {"time": 66478, "pitch": 35, "duration": 19, "velocity": 80}, {"time": 66478, "pitch": 42, "duration": 10, "velocity": 60}, {"time": 66717, "pitch": 35, "duration": 20, "velocity": 110}, {"time": 66717, "pitch": 42, "duration": 10, "velocity": 80}, {"time": 66956, "pitch": 42, "duration": 10, "velocity": 60}, {"time": 67195, "pitch": 40, "duration": 20, "velocity": 110}, {"time": 67195, "pitch": 42, "duration": 10, "velocity": 80}, {"time": 67440, "pitch": 35, "duration": 20, "velocity": 90}, {"time": 67440, "pitch": 42, "duration": 10, "velocity": 60}, {"time": 67685, "pitch": 35, "duration": 20, "velocity": 110}, {"time": 67685, "pitch": 42, "duration": 10, "velocity": 80}, {"time": 67924, "pitch": 42, "duration": 10, "velocity": 60}, {"time": 68163, "pitch": 40, "duration": 20, "velocity": 110}, {"time": 68163, "pitch": 42, "duration": 10, "velocity": 80}, {"time": 68402, "pitch": 46, "duration": 10, "velocity": 60}, {"time": 68642, "pitch": 35, "duration": 19, "velocity": 110}, {"time": 68642, "pitch": 42, "duration": 9, "velocity": 80}, {"time": 68881, "pitch": 42, "duration": 10, "velocity": 60}, {"time": 69120, "pitch": 40, "duration": 20, "velocity": 110}, {"time": 69120, "pitch": 42, "duration": 10, "velocity": 80}, {"time": 69359, "pitch": 35, "duration": 20, "velocity": 80}, {"time": 69359, "pitch": 42, "duration": 10, "velocity": 60}, {"time": 69598, "pitch": 35, "duration": 20, "velocity": 110}, {"time": 69598, "pitch": 42, "duration": 10, "velocity": 80}, {"time": 69838, "pitch": 46, "duration": 19, "velocity": 60}, {"time": 69838, "pitch": 48, "duration": 10, "velocity": 90}, {"time": 70077, "pitch": 40, "duration": 20, "velocity": 110}, {"time": 70077, "pitch": 42, "duration": 10, "velocity": 80}, {"time": 70316, "pitch": 35, "duration": 30, "velocity": 80}, {"time": 70316, "pitch": 42, "duration": 20, "velocity": 60}, {"time": 70316, "pitch": 45, "duration": 10, "velocity": 90}, {"time": 70555, "pitch": 35, "duration": 31, "velocity": 110}, {"time": 70555, "pitch": 42, "duration": 20, "velocity": 80}, {"time": 70555, "pitch": 57, "duration": 10, "velocity": 60}, {"time": 70800, "pitch": 42, "duration": 10, "velocity": 60}, {"time": 71045, "pitch": 40, "duration": 20, "velocity": 110}, {"time": 71045, "pitch": 42, "duration": 10, "velocity": 80}, {"time": 71284, "pitch": 35, "duration": 20, "velocity": 90}, {"time": 71284, "pitch": 42, "duration": 10, "velocity": 60}, {"time": 71523, "pitch": 35, "duration": 20, "velocity": 110}, {"time": 71523, "pitch": 42, "duration": 10, "velocity": 80}, {"time": 71762, "pitch": 42, "duration": 10, "velocity": 60}, {"time": 72002, "pitch": 40, "duration": 19, "velocity": 110}, {"time": 72002, "pitch": 42, "duration": 9, "velocity": 80}, {"time": 72241, "pitch": 46, "duration": 10, "velocity": 60}, {"time": 72480, "pitch": 35, "duration": 20, "velocity": 110}, {"time": 72480, "pitch": 42, "duration": 10, "velocity": 80}, {"time": 72719, "pitch": 42, "duration": 10, "velocity": 60}, {"time": 72958, "pitch": 40, "duration": 20, "velocity": 110}, {"time": 72958, "pitch": 42, "duration": 10, "velocity": 80}, {"time": 73198, "pitch": 35, "duration": 19, "velocity": 80}, {"time": 73198, "pitch": 42, "duration": 10, "velocity": 60}, {"time": 73437, "pitch": 35, "duration": 20, "velocity": 110}, {"time": 73437, "pitch": 42, "duration": 10, "velocity": 80}, {"time": 73676, "pitch": 42, "duration": 10, "velocity": 60}, {"time": 73915, "pitch": 40, "duration": 20, "velocity": 110}, {"time": 73915, "pitch": 42, "duration": 10, "velocity": 80}, {"time": 74160, "pitch": 35, "duration": 20, "velocity": 80}, {"time": 74160, "pitch": 42, "duration": 10, "velocity": 60}, {"time": 74405, "pitch": 35, "duration": 30, "velocity": 110}, {"time": 74405, "pitch": 42, "duration": 20, "velocity": 80}, {"time": 74405, "pitch": 49, "duration": 10, "velocity": 60}, {"time": 74644, "pitch": 42, "duration": 10, "velocity": 60}, {"time": 74883, "pitch": 40, "duration": 20, "velocity": 110}, {"time": 74883, "pitch": 42, "duration": 10, "velocity": 80}, {"time": 75122, "pitch": 35, "duration": 20, "velocity": 90}, {"time": 75122, "pitch": 42, "duration": 20, "velocity": 60}, {"time": 75122, "pitch": 45, "duration": 10, "velocity": 80}, {"time": 75142, "pitch": 41, "duration": 10, "velocity": 80}, {"time": 75362, "pitch": 35, "duration": 19, "velocity": 110}, {"time": 75362, "pitch": 42, "duration": 19, "velocity": 80}, {"time": 75362, "pitch": 45, "duration": 9, "velocity": 90}, {"time": 75381, "pitch": 41, "duration": 10, "velocity": 90}, {"time": 75601, "pitch": 40, "duration": 20, "velocity": 40}, {"time": 75601, "pitch": 46, "duration": 10, "velocity": 60}, {"time": 75720, "pitch": 40, "duration": 10, "velocity": 60}, {"time": 75840, "pitch": 40, "duration": 10, "velocity": 110}, {"time": 76079, "pitch": 35, "duration": 30, "velocity": 110}, {"time": 76079, "pitch": 44, "duration": 20, "velocity": 60}, {"time": 76079, "pitch": 57, "duration": 10, "velocity": 60}, {"time": 76318, "pitch": 42, "duration": 10, "velocity": 80}, {"time": 76558, "pitch": 35, "duration": 19, "velocity": 80}, {"time": 76558, "pitch": 42, "duration": 9, "velocity": 60}, {"time": 76797, "pitch": 40, "duration": 20, "velocity": 110}, {"time": 76797, "pitch": 42, "duration": 10, "velocity": 80}, {"time": 77036, "pitch": 35, "duration": 20, "velocity": 110}, {"time": 77036, "pitch": 42, "duration": 10, "velocity": 60}, {"time": 77275, "pitch": 40, "duration": 20, "velocity": 110}, {"time": 77275, "pitch": 49, "duration": 10, "velocity": 60}, {"time": 77520, "pitch": 35, "duration": 10, "velocity": 110}, {"time": 77765, "pitch": 40, "duration": 30, "velocity": 110}, {"time": 77765, "pitch": 42, "duration": 20, "velocity": 80}, {"time": 77765, "pitch": 57, "duration": 10, "velocity": 60}, {"time": 77884, "pitch": 35, "duration": 10, "velocity": 80}, {"time": 78004, "pitch": 40, "duration": 20, "velocity": 95}, {"time": 78004, "pitch": 42, "duration": 10, "velocity": 60}, {"time": 78124, "pitch": 40, "duration": 9, "velocity": 110}, {"time": 78243, "pitch": 35, "duration": 30, "velocity": 110}, {"time": 78243, "pitch": 49, "duration": 20, "velocity": 60}, {"time": 78243, "pitch": 54, "duration": 10, "velocity": 52}, {"time": 78482, "pitch": 44, "duration": 30, "velocity": 50}, {"time": 78482, "pitch": 51, "duration": 20, "velocity": 60}, {"time": 78482, "pitch": 54, "duration": 10, "velocity": 52}, {"time": 78722, "pitch": 40, "duration": 29, "velocity": 110}, {"time": 78722, "pitch": 51, "duration": 19, "velocity": 50}, {"time": 78722, "pitch": 54, "duration": 9, "velocity": 107}, {"time": 78961, "pitch": 35, "duration": 40, "velocity": 110}, {"time": 78961, "pitch": 44, "duration": 30, "velocity": 50}, {"time": 78961, "pitch": 51, "duration": 20, "velocity": 70}, {"time": 78961, "pitch": 54, "duration": 10, "velocity": 39}, {"time": 79200, "pitch": 51, "duration": 20, "velocity": 60}, {"time": 79200, "pitch": 54, "duration": 10, "velocity": 38}, {"time": 79439, "pitch": 35, "duration": 40, "velocity": 90}, {"time": 79439, "pitch": 44, "duration": 30, "velocity": 50}, {"time": 79439, "pitch": 51, "duration": 20, "velocity": 50}, {"time": 79439, "pitch": 54, "duration": 10, "velocity": 62}, {"time": 79678, "pitch": 40, "duration": 30, "velocity": 110}, {"time": 79678, "pitch": 51, "duration": 20, "velocity": 70}, {"time": 79678, "pitch": 54, "duration": 10, "velocity": 99}, {"time": 79918, "pitch": 35, "duration": 39, "velocity": 110}, {"time": 79918, "pitch": 44, "duration": 29, "velocity": 50}, {"time": 79918, "pitch": 51, "duration": 19, "velocity": 60}, {"time": 79918, "pitch": 54, "duration": 9, "velocity": 62}, {"time": 80157, "pitch": 51, "duration": 20, "velocity": 50}, {"time": 80157, "pitch": 54, "duration": 10, "velocity": 42}, {"time": 80396, "pitch": 35, "duration": 40, "velocity": 90}, {"time": 80396, "pitch": 44, "duration": 30, "velocity": 50}, {"time": 80396, "pitch": 51, "duration": 20, "velocity": 70}, {"time": 80396, "pitch": 54, "duration": 10, "velocity": 60}, {"time": 80635, "pitch": 40, "duration": 31, "velocity": 110}, {"time": 80635, "pitch": 51, "duration": 20, "velocity": 60}, {"time": 80635, "pitch": 54, "duration": 10, "velocity": 99}, {"time": 80880, "pitch": 35, "duration": 41, "velocity": 80}, {"time": 80880, "pitch": 44, "duration": 31, "velocity": 50}, {"time": 80880, "pitch": 51, "duration": 20, "velocity": 50}, {"time": 80880, "pitch": 54, "duration": 10, "velocity": 46}, {"time": 81125, "pitch": 35, "duration": 30, "velocity": 110}, {"time": 81125, "pitch": 51, "duration": 20, "velocity": 70}, {"time": 81125, "pitch": 54, "duration": 10, "velocity": 65}, {"time": 81364, "pitch": 44, "duration": 30, "velocity": 50}, {"time": 81364, "pitch": 51, "duration": 20, "velocity": 60}, {"time": 81364, "pitch": 54, "duration": 10, "velocity": 46}, {"time": 81603, "pitch": 40, "duration": 30, "velocity": 110}, {"time": 81603, "pitch": 51, "duration": 20, "velocity": 50}, {"time": 81603, "pitch": 54, "duration": 10, "velocity": 107}, {"time": 81842, "pitch": 35, "duration": 40, "velocity": 80}, {"time": 81842, "pitch": 44, "duration": 30, "velocity": 50}, {"time": 81842, "pitch": 51, "duration": 20, "velocity": 70}, {"time": 81842, "pitch": 54, "duration": 10, "velocity": 27}, {"time": 82082, "pitch": 35, "duration": 29, "velocity": 110}, {"time": 82082, "pitch": 51, "duration": 19, "velocity": 60}, {"time": 82082, "pitch": 54, "duration": 9, "velocity": 56}, {"time": 82321, "pitch": 44, "duration": 30, "velocity": 50}, {"time": 82321, "pitch": 51, "duration": 20, "velocity": 50}, {"time": 82321, "pitch": 54, "duration": 10, "velocity": 44}, {"time": 82560, "pitch": 40, "duration": 30, "velocity": 110}, {"time": 82560, "pitch": 51, "duration": 20, "velocity": 70}, {"time": 82560, "pitch": 54, "duration": 10, "velocity": 107}, {"time": 82799, "pitch": 35, "duration": 40, "velocity": 90}, {"time": 82799, "pitch": 44, "duration": 30, "velocity": 50}, {"time": 82799, "pitch": 51, "duration": 20, "velocity": 60}, {"time": 82799, "pitch": 54, "duration": 10, "velocity": 18}, {"time": 83038, "pitch": 35, "duration": 30, "velocity": 110}, {"time": 83038, "pitch": 51, "duration": 20, "velocity": 50}, {"time": 83038, "pitch": 54, "duration": 10, "velocity": 67}, {"time": 83278, "pitch": 44, "duration": 29, "velocity": 50}, {"time": 83278, "pitch": 51, "duration": 19, "velocity": 70}, {"time": 83278, "pitch": 54, "duration": 9, "velocity": 60}, {"time": 83517, "pitch": 40, "duration": 30, "velocity": 110}, {"time": 83517, "pitch": 51, "duration": 20, "velocity": 60}, {"time": 83517, "pitch": 54, "duration": 10, "velocity": 102}, {"time": 83756, "pitch": 35, "duration": 40, "velocity": 110}, {"time": 83756, "pitch": 44, "duration": 30, "velocity": 50}, {"time": 83756, "pitch": 51, "duration": 20, "velocity": 50}, {"time": 83756, "pitch": 54, "duration": 10, "velocity": 56}, {"time": 83995, "pitch": 51, "duration": 20, "velocity": 70}, {"time": 83995, "pitch": 54, "duration": 10, "velocity": 58}, {"time": 84240, "pitch": 35, "duration": 41, "velocity": 90}, {"time": 84240, "pitch": 44, "duration": 31, "velocity": 50}, {"time": 84240, "pitch": 51, "duration": 20, "velocity": 60}, {"time": 84240, "pitch": 54, "duration": 10, "velocity": 54}, {"time": 84485, "pitch": 40, "duration": 30, "velocity": 110}, {"time": 84485, "pitch": 51, "duration": 20, "velocity": 50}, {"time": 84485, "pitch": 54, "duration": 10, "velocity": 102}, {"time": 84724, "pitch": 35, "duration": 40, "velocity": 80}, {"time": 84724, "pitch": 44, "duration": 30, "velocity": 50}, {"time": 84724, "pitch": 51, "duration": 20, "velocity": 70}, {"time": 84724, "pitch": 54, "duration": 10, "velocity": 31}, {"time": 84963, "pitch": 35, "duration": 30, "velocity": 110}, {"time": 84963, "pitch": 51, "duration": 20, "velocity": 60}, {"time": 84963, "pitch": 54, "duration": 10, "velocity": 78}, {"time": 85202, "pitch": 40, "duration": 40, "velocity": 95}, {"time": 85202, "pitch": 44, "duration": 30, "velocity": 50}, {"time": 85202, "pitch": 51, "duration": 20, "velocity": 50}, {"time": 85202, "pitch": 54, "duration": 10, "velocity": 39}, {"time": 85442, "pitch": 40, "duration": 29, "velocity": 110}, {"time": 85442, "pitch": 51, "duration": 19, "velocity": 70}, {"time": 85442, "pitch": 54, "duration": 9, "velocity": 99}, {"time": 85681, "pitch": 35, "duration": 50, "velocity": 80}, {"time": 85681, "pitch": 44, "duration": 40, "velocity": 50}, {"time": 85681, "pitch": 45, "duration": 30, "velocity": 90}, {"time": 85681, "pitch": 51, "duration": 20, "velocity": 50}, {"time": 85681, "pitch": 54, "duration": 10, "velocity": 50}, {"time": 85920, "pitch": 35, "duration": 30, "velocity": 110}, {"time": 85920, "pitch": 54, "duration": 20, "velocity": 52}, {"time": 85920, "pitch": 57, "duration": 10, "velocity": 60}, {"time": 86159, "pitch": 44, "duration": 30, "velocity": 50}, {"time": 86159, "pitch": 51, "duration": 20, "velocity": 60}, {"time": 86159, "pitch": 54, "duration": 10, "velocity": 52}, {"time": 86398, "pitch": 40, "duration": 30, "velocity": 110}, {"time": 86398, "pitch": 51, "duration": 20, "velocity": 50}, {"time": 86398, "pitch": 54, "duration": 10, "velocity": 107}, {"time": 86638, "pitch": 35, "duration": 39, "velocity": 110}, {"time": 86638, "pitch": 44, "duration": 29, "velocity": 50}, {"time": 86638, "pitch": 51, "duration": 19, "velocity": 70}, {"time": 86638, "pitch": 54, "duration": 9, "velocity": 39}, {"time": 86877, "pitch": 51, "duration": 20, "velocity": 60}, {"time": 86877, "pitch": 54, "duration": 10, "velocity": 38}, {"time": 87116, "pitch": 35, "duration": 40, "velocity": 90}, {"time": 87116, "pitch": 44, "duration": 30, "velocity": 50}, {"time": 87116, "pitch": 51, "duration": 20, "velocity": 50}, {"time": 87116, "pitch": 54, "duration": 10, "velocity": 62}, {"time": 87355, "pitch": 40, "duration": 31, "velocity": 110}, {"time": 87355, "pitch": 51, "duration": 20, "velocity": 70}, {"time": 87355, "pitch": 54, "duration": 10, "velocity": 99}, {"time": 87600, "pitch": 35, "duration": 41, "velocity": 110}, {"time": 87600, "pitch": 44, "duration": 31, "velocity": 50}, {"time": 87600, "pitch": 51, "duration": 20, "velocity": 60}, {"time": 87600, "pitch": 54, "duration": 10, "velocity": 62}, {"time": 87845, "pitch": 51, "duration": 20, "velocity": 50}, {"time": 87845, "pitch": 54, "duration": 10, "velocity": 42}, {"time": 88084, "pitch": 35, "duration": 40, "velocity": 90}, {"time": 88084, "pitch": 44, "duration": 30, "velocity": 50}, {"time": 88084, "pitch": 51, "duration": 20, "velocity": 70}, {"time": 88084, "pitch": 54, "duration": 10, "velocity": 60}, {"time": 88323, "pitch": 40, "duration": 30, "velocity": 110}, {"time": 88323, "pitch": 51, "duration": 20, "velocity": 60}, {"time": 88323, "pitch": 54, "duration": 10, "velocity": 99}, {"time": 88562, "pitch": 35, "duration": 40, "velocity": 80}, {"time": 88562, "pitch": 44, "duration": 30, "velocity": 50}, {"time": 88562, "pitch": 51, "duration": 20, "velocity": 50}, {"time": 88562, "pitch": 54, "duration": 10, "velocity": 46}, {"time": 88802, "pitch": 35, "duration": 29, "velocity": 110}, {"time": 88802, "pitch": 51, "duration": 19, "velocity": 70}, {"time": 88802, "pitch": 54, "duration": 9, "velocity": 65}, {"time": 89041, "pitch": 44, "duration": 30, "velocity": 50}, {"time": 89041, "pitch": 51, "duration": 20, "velocity": 60}, {"time": 89041, "pitch": 54, "duration": 10, "velocity": 46}, {"time": 89280, "pitch": 40, "duration": 30, "velocity": 110}, {"time": 89280, "pitch": 51, "duration": 20, "velocity": 50}, {"time": 89280, "pitch": 54, "duration": 10, "velocity": 107}, {"time": 89519, "pitch": 35, "duration": 40, "velocity": 80}, {"time": 89519, "pitch": 44, "duration": 30, "velocity": 50}, {"time": 89519, "pitch": 51, "duration": 20, "velocity": 70}, {"time": 89519, "pitch": 54, "duration": 10, "velocity": 27}, {"time": 89758, "pitch": 35, "duration": 30, "velocity": 110}, {"time": 89758, "pitch": 51, "duration": 20, "velocity": 60}, {"time": 89758, "pitch": 54, "duration": 10, "velocity": 56}, {"time": 89998, "pitch": 44, "duration": 29, "velocity": 50}, {"time": 89998, "pitch": 51, "duration": 19, "velocity": 50}, {"time": 89998, "pitch": 54, "duration": 9, "velocity": 44}, {"time": 90237, "pitch": 40, "duration": 30, "velocity": 110}, {"time": 90237, "pitch": 51, "duration": 20, "velocity": 70}, {"time": 90237, "pitch": 54, "duration": 10, "velocity": 107}, {"time": 90476, "pitch": 35, "duration": 40, "velocity": 90}, {"time": 90476, "pitch": 44, "duration": 30, "velocity": 50}, {"time": 90476, "pitch": 51, "duration": 20, "velocity": 60}, {"time": 90476, "pitch": 54, "duration": 10, "velocity": 18}, {"time": 90715, "pitch": 35, "duration": 31, "velocity": 110}, {"time": 90715, "pitch": 51, "duration": 20, "velocity": 50}, {"time": 90715, "pitch": 54, "duration": 10, "velocity": 67}, {"time": 90960, "pitch": 44, "duration": 31, "velocity": 50}, {"time": 90960, "pitch": 51, "duration": 20, "velocity": 70}, {"time": 90960, "pitch": 54, "duration": 10, "velocity": 60}, {"time": 91205, "pitch": 40, "duration": 30, "velocity": 110}, {"time": 91205, "pitch": 51, "duration": 20, "velocity": 60}, {"time": 91205, "pitch": 54, "duration": 10, "velocity": 102}, {"time": 91444, "pitch": 35, "duration": 40, "velocity": 110}, {"time": 91444, "pitch": 44, "duration": 30, "velocity": 50}, {"time": 91444, "pitch": 49, "duration": 20, "velocity": 60}, {"time": 91444, "pitch": 54, "duration": 10, "velocity": 56}, {"time": 91683, "pitch": 40, "duration": 30, "velocity": 110}, {"time": 91683, "pitch": 51, "duration": 20, "velocity": 70}, {"time": 91683, "pitch": 54, "duration": 10, "velocity": 58}, {"time": 91922, "pitch": 35, "duration": 50, "velocity": 90}, {"time": 91922, "pitch": 44, "duration": 40, "velocity": 50}, {"time": 91922, "pitch": 48, "duration": 30, "velocity": 90}, {"time": 91922, "pitch": 51, "duration": 20, "velocity": 60}, {"time": 91922, "pitch": 54, "duration": 10, "velocity": 54}, {"time": 92162, "pitch": 40, "duration": 29, "velocity": 110}, {"time": 92162, "pitch": 51, "duration": 19, "velocity": 50}, {"time": 92162, "pitch": 54, "duration": 9, "velocity": 102}, {"time": 92281, "pitch": 40, "duration": 10, "velocity": 80}, {"time": 92401, "pitch": 35, "duration": 50, "velocity": 110}, {"time": 92401, "pitch": 44, "duration": 40, "velocity": 50}, {"time": 92401, "pitch": 45, "duration": 30, "velocity": 90}, {"time": 92401, "pitch": 54, "duration": 20, "velocity": 31}, {"time": 92401, "pitch": 57, "duration": 10, "velocity": 60}, {"time": 92640, "pitch": 40, "duration": 20, "velocity": 110}, {"time": 92640, "pitch": 54, "duration": 10, "velocity": 78}, {"time": 92879, "pitch": 35, "duration": 40, "velocity": 90}, {"time": 92879, "pitch": 44, "duration": 30, "velocity": 50}, {"time": 92879, "pitch": 45, "duration": 20, "velocity": 90}, {"time": 92879, "pitch": 54, "duration": 10, "velocity": 39}, {"time": 93118, "pitch": 40, "duration": 20, "velocity": 110}, {"time": 93118, "pitch": 54, "duration": 10, "velocity": 99}, {"time": 93238, "pitch": 40, "duration": 10, "velocity": 90}, {"time": 93358, "pitch": 35, "duration": 39, "velocity": 80}, {"time": 93358, "pitch": 41, "duration": 29, "velocity": 90}, {"time": 93358, "pitch": 44, "duration": 19, "velocity": 50}, {"time": 93358, "pitch": 54, "duration": 9, "velocity": 50}, {"time": 93597, "pitch": 35, "duration": 40, "velocity": 110}, {"time": 93597, "pitch": 42, "duration": 30, "velocity": 80}, {"time": 93597, "pitch": 54, "duration": 20, "velocity": 58}, {"time": 93597, "pitch": 57, "duration": 10, "velocity": 60}, {"time": 93836, "pitch": 42, "duration": 20, "velocity": 60}, {"time": 93836, "pitch": 54, "duration": 10, "velocity": 48}, {"time": 94075, "pitch": 40, "duration": 31, "velocity": 110}, {"time": 94075, "pitch": 42, "duration": 20, "velocity": 80}, {"time": 94075, "pitch": 54, "duration": 10, "velocity": 99}, {"time": 94320, "pitch": 35, "duration": 31, "velocity": 90}, {"time": 94320, "pitch": 42, "duration": 20, "velocity": 60}, {"time": 94320, "pitch": 54, "duration": 10, "velocity": 48}, {"time": 94565, "pitch": 35, "duration": 30, "velocity": 110}, {"time": 94565, "pitch": 42, "duration": 20, "velocity": 80}, {"time": 94565, "pitch": 54, "duration": 10, "velocity": 52}, {"time": 94804, "pitch": 42, "duration": 20, "velocity": 60}, {"time": 94804, "pitch": 54, "duration": 10, "velocity": 44}, {"time": 95043, "pitch": 40, "duration": 30, "velocity": 110}, {"time": 95043, "pitch": 42, "duration": 20, "velocity": 80}, {"time": 95043, "pitch": 54, "duration": 10, "velocity": 102}, {"time": 95282, "pitch": 35, "duration": 30, "velocity": 110}, {"time": 95282, "pitch": 42, "duration": 20, "velocity": 60}, {"time": 95282, "pitch": 54, "duration": 10, "velocity": 58}, {"time": 95521, "pitch": 42, "duration": 20, "velocity": 80}, {"time": 95521, "pitch": 54, "duration": 10, "velocity": 50}, {"time": 95761, "pitch": 35, "duration": 30, "velocity": 90}, {"time": 95761, "pitch": 42, "duration": 20, "velocity": 60}, {"time": 95761, "pitch": 54, "duration": 10, "velocity": 60}, {"time": 96000, "pitch": 40, "duration": 30, "velocity": 110}, {"time": 96000, "pitch": 42, "duration": 20, "velocity": 80}, {"time": 96000, "pitch": 54, "duration": 10, "velocity": 96}, {"time": 96239, "pitch": 35, "duration": 30, "velocity": 80}, {"time": 96239, "pitch": 42, "duration": 20, "velocity": 60}, {"time": 96239, "pitch": 54, "duration": 10, "velocity": 32}, {"time": 96478, "pitch": 35, "duration": 30, "velocity": 110}, {"time": 96478, "pitch": 42, "duration": 20, "velocity": 80}, {"time": 96478, "pitch": 54, "duration": 10, "velocity": 60}, {"time": 96718, "pitch": 42, "duration": 19, "velocity": 60}, {"time": 96718, "pitch": 54, "duration": 9, "velocity": 46}, {"time": 96957, "pitch": 40, "duration": 30, "velocity": 110}, {"time": 96957, "pitch": 42, "duration": 20, "velocity": 80}, {"time": 96957, "pitch": 54, "duration": 10, "velocity": 107}, {"time": 97196, "pitch": 35, "duration": 30, "velocity": 80}, {"time": 97196, "pitch": 42, "duration": 20, "velocity": 60}, {"time": 97196, "pitch": 54, "duration": 10, "velocity": 43}, {"time": 97435, "pitch": 35, "duration": 31, "velocity": 110}, {"time": 97435, "pitch": 42, "duration": 20, "velocity": 80}, {"time": 97435, "pitch": 54, "duration": 10, "velocity": 60}, {"time": 97680, "pitch": 42, "duration": 20, "velocity": 60}, {"time": 97680, "pitch": 54, "duration": 10, "velocity": 52}, {"time": 97904, "pitch": 40, "duration": 11, "velocity": 110}, {"time": 97925, "pitch": 40, "duration": 30, "velocity": 110}, {"time": 97925, "pitch": 42, "duration": 20, "velocity": 80}, {"time": 97925, "pitch": 54, "duration": 10, "velocity": 102}, {"time": 98164, "pitch": 35, "duration": 30, "velocity": 90}, {"time": 98164, "pitch": 42, "duration": 20, "velocity": 60}, {"time": 98164, "pitch": 54, "duration": 10, "velocity": 35}, {"time": 98383, "pitch": 40, "duration": 10, "velocity": 110}, {"time": 98403, "pitch": 40, "duration": 30, "velocity": 110}, {"time": 98403, "pitch": 42, "duration": 20, "velocity": 80}, {"time": 98403, "pitch": 54, "duration": 10, "velocity": 78}, {"time": 98642, "pitch": 42, "duration": 30, "velocity": 60}, {"time": 98642, "pitch": 45, "duration": 20, "velocity": 90}, {"time": 98642, "pitch": 54, "duration": 10, "velocity": 43}, {"time": 98881, "pitch": 41, "duration": 30, "velocity": 90}, {"time": 98881, "pitch": 42, "duration": 20, "velocity": 80}, {"time": 98881, "pitch": 54, "duration": 10, "velocity": 87}, {"time": 99121, "pitch": 35, "duration": 40, "velocity": 110}, {"time": 99121, "pitch": 42, "duration": 30, "velocity": 60}, {"time": 99121, "pitch": 49, "duration": 20, "velocity": 60}, {"time": 99121, "pitch": 54, "duration": 10, "velocity": 82}, {"time": 99360, "pitch": 42, "duration": 10, "velocity": 80}, {"time": 99599, "pitch": 35, "duration": 20, "velocity": 90}, {"time": 99599, "pitch": 42, "duration": 10, "velocity": 60}, {"time": 99838, "pitch": 40, "duration": 40, "velocity": 110}, {"time": 99838, "pitch": 42, "duration": 30, "velocity": 80}, {"time": 99838, "pitch": 54, "duration": 20, "velocity": 86}, {"time": 99838, "pitch": 57, "duration": 10, "velocity": 60}, {"time": 99878, "pitch": 54, "duration": 10, "velocity": 84}, {"time": 99918, "pitch": 54, "duration": 10, "velocity": 81}, {"time": 99958, "pitch": 54, "duration": 10, "velocity": 78}, {"time": 99998, "pitch": 54, "duration": 10, "velocity": 75}, {"time": 100038, "pitch": 54, "duration": 10, "velocity": 73}, {"time": 100078, "pitch": 44, "duration": 19, "velocity": 60}, {"time": 100078, "pitch": 54, "duration": 9, "velocity": 70}, {"time": 100117, "pitch": 54, "duration": 10, "velocity": 67}, {"time": 100157, "pitch": 54, "duration": 10, "velocity": 64}, {"time": 100197, "pitch": 54, "duration": 10, "velocity": 62}, {"time": 100237, "pitch": 54, "duration": 10, "velocity": 59}, {"time": 100277, "pitch": 54, "duration": 10, "velocity": 56}, {"time": 100317, "pitch": 45, "duration": 20, "velocity": 90}, {"time": 100317, "pitch": 54, "duration": 10, "velocity": 53}, {"time": 100357, "pitch": 54, "duration": 10, "velocity": 51}, {"time": 100396, "pitch": 54, "duration": 10, "velocity": 48}, {"time": 100436, "pitch": 54, "duration": 10, "velocity": 45}, {"time": 100476, "pitch": 54, "duration": 10, "velocity": 42}, {"time": 100516, "pitch": 54, "duration": 10, "velocity": 40}, {"time": 100556, "pitch": 40, "duration": 30, "velocity": 25}, {"time": 100556, "pitch": 46, "duration": 20, "velocity": 70}, {"time": 100556, "pitch": 54, "duration": 10, "velocity": 37}, {"time": 100596, "pitch": 54, "duration": 10, "velocity": 34}, {"time": 100636, "pitch": 54, "duration": 10, "velocity": 31}, {"time": 100676, "pitch": 40, "duration": 19, "velocity": 50}, {"time": 100676, "pitch": 54, "duration": 9, "velocity": 29}, {"time": 100715, "pitch": 54, "duration": 10, "velocity": 26}, {"time": 100755, "pitch": 54, "duration": 10, "velocity": 23}, {"time": 100795, "pitch": 40, "duration": 20, "velocity": 110}, {"time": 100795, "pitch": 54, "duration": 10, "velocity": 20}, {"time": 100917, "pitch": 40, "duration": 11, "velocity": 90}, {"time": 101040, "pitch": 35, "duration": 31, "velocity": 80}, {"time": 101040, "pitch": 41, "duration": 20, "velocity": 90}, {"time": 101040, "pitch": 44, "duration": 10, "velocity": 60}, {"time": 101285, "pitch": 35, "duration": 30, "velocity": 110}, {"time": 101285, "pitch": 42, "duration": 20, "velocity": 80}, {"time": 101285, "pitch": 49, "duration": 10, "velocity": 60}, {"time": 101524, "pitch": 42, "duration": 10, "velocity": 60}, {"time": 101763, "pitch": 40, "duration": 20, "velocity": 110}, {"time": 101763, "pitch": 42, "duration": 10, "velocity": 80}, {"time": 102002, "pitch": 35, "duration": 20, "velocity": 90}, {"time": 102002, "pitch": 42, "duration": 10, "velocity": 60}, {"time": 102241, "pitch": 35, "duration": 20, "velocity": 110}, {"time": 102241, "pitch": 42, "duration": 10, "velocity": 80}, {"time": 102481, "pitch": 42, "duration": 10, "velocity": 60}, {"time": 102720, "pitch": 40, "duration": 20, "velocity": 110}, {"time": 102720, "pitch": 42, "duration": 10, "velocity": 80}, {"time": 102959, "pitch": 35, "duration": 20, "velocity": 110}, {"time": 102959, "pitch": 42, "duration": 10, "velocity": 60}, {"time": 103198, "pitch": 42, "duration": 10, "velocity": 80}, {"time": 103438, "pitch": 35, "duration": 19, "velocity": 90}, {"time": 103438, "pitch": 42, "duration": 9, "velocity": 60}, {"time": 103677, "pitch": 40, "duration": 20, "velocity": 110}, {"time": 103677, "pitch": 42, "duration": 10, "velocity": 80}, {"time": 103916, "pitch": 35, "duration": 20, "velocity": 80}, {"time": 103916, "pitch": 42, "duration": 10, "velocity": 60}, {"time": 104155, "pitch": 35, "duration": 20, "velocity": 110}, {"time": 104155, "pitch": 42, "duration": 10, "velocity": 80}, {"time": 104400, "pitch": 42, "duration": 10, "velocity": 60}, {"time": 104645, "pitch": 40, "duration": 20, "velocity": 110}, {"time": 104645, "pitch": 42, "duration": 10, "velocity": 80}, {"time": 104884, "pitch": 35, "duration": 20, "velocity": 80}, {"time": 104884, "pitch": 42, "duration": 10, "velocity": 60}, {"time": 105123, "pitch": 35, "duration": 20, "velocity": 110}, {"time": 105123, "pitch": 42, "duration": 10, "velocity": 80}, {"time": 105362, "pitch": 42, "duration": 10, "velocity": 60}, {"time": 105601, "pitch": 40, "duration": 20, "velocity": 110}, {"time": 105601, "pitch": 42, "duration": 10, "velocity": 80}, {"time": 105841, "pitch": 35, "duration": 20, "velocity": 90}, {"time": 105841, "pitch": 42, "duration": 10, "velocity": 60}, {"time": 106080, "pitch": 35, "duration": 20, "velocity": 110}, {"time": 106080, "pitch": 42, "duration": 10, "velocity": 80}, {"time": 106319, "pitch": 42, "duration": 10, "velocity": 60}, {"time": 106558, "pitch": 40, "duration": 20, "velocity": 110}, {"time": 106558, "pitch": 42, "duration": 10, "velocity": 80}, {"time": 106798, "pitch": 35, "duration": 19, "velocity": 110}, {"time": 106798, "pitch": 42, "duration": 9, "velocity": 60}, {"time": 107037, "pitch": 42, "duration": 10, "velocity": 80}, {"time": 107276, "pitch": 35, "duration": 20, "velocity": 90}, {"time": 107276, "pitch": 42, "duration": 10, "velocity": 60}, {"time": 107515, "pitch": 40, "duration": 20, "velocity": 110}, {"time": 107515, "pitch": 42, "duration": 10, "velocity": 80}, {"time": 107760, "pitch": 35, "duration": 20, "velocity": 80}, {"time": 107760, "pitch": 42, "duration": 10, "velocity": 60}, {"time": 108005, "pitch": 35, "duration": 20, "velocity": 110}, {"time": 108005, "pitch": 42, "duration": 10, "velocity": 80}, {"time": 108244, "pitch": 46, "duration": 10, "velocity": 60}, {"time": 108483, "pitch": 40, "duration": 20, "velocity": 110}, {"time": 108483, "pitch": 42, "duration": 10, "velocity": 80}, {"time": 108722, "pitch": 35, "duration": 20, "velocity": 80}, {"time": 108722, "pitch": 42, "duration": 10, "velocity": 60}, {"time": 108961, "pitch": 35, "duration": 20, "velocity": 110}, {"time": 108961, "pitch": 42, "duration": 10, "velocity": 80}, {"time": 109201, "pitch": 42, "duration": 10, "velocity": 60}, {"time": 109440, "pitch": 40, "duration": 20, "velocity": 110}, {"time": 109440, "pitch": 42, "duration": 10, "velocity": 80}, {"time": 109679, "pitch": 35, "duration": 20, "velocity": 90}, {"time": 109679, "pitch": 42, "duration": 10, "velocity": 60}, {"time": 109918, "pitch": 35, "duration": 20, "velocity": 110}, {"time": 109918, "pitch": 42, "duration": 10, "velocity": 80}, {"time": 110157, "pitch": 42, "duration": 10, "velocity": 60}, {"time": 110397, "pitch": 40, "duration": 20, "velocity": 110}, {"time": 110397, "pitch": 42, "duration": 10, "velocity": 80}, {"time": 110636, "pitch": 35, "duration": 20, "velocity": 110}, {"time": 110636, "pitch": 42, "duration": 10, "velocity": 60}, {"time": 110875, "pitch": 42, "duration": 10, "velocity": 80}, {"time": 111120, "pitch": 35, "duration": 20, "velocity": 90}, {"time": 111120, "pitch": 42, "duration": 10, "velocity": 60}, {"time": 111365, "pitch": 40, "duration": 20, "velocity": 110}, {"time": 111365, "pitch": 42, "duration": 10, "velocity": 80}, {"time": 111604, "pitch": 35, "duration": 20, "velocity": 80}, {"time": 111604, "pitch": 42, "duration": 10, "velocity": 60}, {"time": 111843, "pitch": 35, "duration": 20, "velocity": 110}, {"time": 111843, "pitch": 42, "duration": 10, "velocity": 80}, {"time": 112082, "pitch": 42, "duration": 10, "velocity": 60}, {"time": 112321, "pitch": 40, "duration": 20, "velocity": 110}, {"time": 112321, "pitch": 42, "duration": 10, "velocity": 80}, {"time": 112561, "pitch": 35, "duration": 20, "velocity": 80}, {"time": 112561, "pitch": 42, "duration": 10, "velocity": 60}, {"time": 112800, "pitch": 35, "duration": 20, "velocity": 110}, {"time": 112800, "pitch": 42, "duration": 10, "velocity": 80}, {"time": 113039, "pitch": 42, "duration": 10, "velocity": 60}, {"time": 113278, "pitch": 40, "duration": 20, "velocity": 110}, {"time": 113278, "pitch": 42, "duration": 10, "velocity": 80}, {"time": 113517, "pitch": 35, "duration": 20, "velocity": 90}, {"time": 113517, "pitch": 42, "duration": 10, "velocity": 60}, {"time": 113757, "pitch": 35, "duration": 20, "velocity": 110}, {"time": 113757, "pitch": 42, "duration": 10, "velocity": 80}, {"time": 113996, "pitch": 42, "duration": 10, "velocity": 60}, {"time": 114235, "pitch": 40, "duration": 20, "velocity": 110}, {"time": 114235, "pitch": 42, "duration": 10, "velocity": 80}, {"time": 114480, "pitch": 35, "duration": 20, "velocity": 110}, {"time": 114480, "pitch": 42, "duration": 10, "velocity": 60}, {"time": 114725, "pitch": 42, "duration": 10, "velocity": 80}, {"time": 114964, "pitch": 35, "duration": 20, "velocity": 90}, {"time": 114964, "pitch": 42, "duration": 10, "velocity": 60}, {"time": 115203, "pitch": 40, "duration": 20, "velocity": 110}, {"time": 115203, "pitch": 42, "duration": 10, "velocity": 80}, {"time": 115442, "pitch": 35, "duration": 20, "velocity": 80}, {"time": 115442, "pitch": 42, "duration": 10, "velocity": 60}, {"time": 115681, "pitch": 35, "duration": 20, "velocity": 110}, {"time": 115681, "pitch": 42, "duration": 10, "velocity": 80}, {"time": 115921, "pitch": 40, "duration": 20, "velocity": 100}, {"time": 115921, "pitch": 46, "duration": 10, "velocity": 60}, {"time": 116160, "pitch": 42, "duration": 20, "velocity": 80}, {"time": 116160, "pitch": 45, "duration": 10, "velocity": 80}, {"time": 116399, "pitch": 35, "duration": 30, "velocity": 80}, {"time": 116399, "pitch": 41, "duration": 20, "velocity": 80}, {"time": 116399, "pitch": 42, "duration": 10, "velocity": 60}, {"time": 116638, "pitch": 35, "duration": 30, "velocity": 110}, {"time": 116638, "pitch": 42, "duration": 20, "velocity": 80}, {"time": 116638, "pitch": 49, "duration": 10, "velocity": 60}, {"time": 116877, "pitch": 42, "duration": 10, "velocity": 60}, {"time": 117117, "pitch": 40, "duration": 20, "velocity": 110}, {"time": 117117, "pitch": 42, "duration": 10, "velocity": 80}, {"time": 117356, "pitch": 35, "duration": 20, "velocity": 90}, {"time": 117356, "pitch": 42, "duration": 10, "velocity": 60}, {"time": 117595, "pitch": 35, "duration": 20, "velocity": 110}, {"time": 117595, "pitch": 42, "duration": 10, "velocity": 80}, {"time": 117840, "pitch": 42, "duration": 10, "velocity": 60}, {"time": 118085, "pitch": 40, "duration": 20, "velocity": 110}, {"time": 118085, "pitch": 42, "duration": 10, "velocity": 80}, {"time": 118324, "pitch": 46, "duration": 10, "velocity": 60}, {"time": 118563, "pitch": 35, "duration": 20, "velocity": 110}, {"time": 118563, "pitch": 42, "duration": 10, "velocity": 80}, {"time": 118802, "pitch": 42, "duration": 10, "velocity": 60}, {"time": 119041, "pitch": 40, "duration": 20, "velocity": 110}, {"time": 119041, "pitch": 42, "duration": 10, "velocity": 80}, {"time": 119281, "pitch": 35, "duration": 20, "velocity": 80}, {"time": 119281, "pitch": 42, "duration": 10, "velocity": 60}, {"time": 119520, "pitch": 35, "duration": 20, "velocity": 110}, {"time": 119520, "pitch": 42, "duration": 10, "velocity": 80}, {"time": 119759, "pitch": 42, "duration": 10, "velocity": 60}, {"time": 119998, "pitch": 40, "duration": 20, "velocity": 110}, {"time": 119998, "pitch": 42, "duration": 10, "velocity": 80}, {"time": 120237, "pitch": 35, "duration": 20, "velocity": 80}, {"time": 120237, "pitch": 42, "duration": 10, "velocity": 60}, {"time": 120477, "pitch": 35, "duration": 20, "velocity": 110}, {"time": 120477, "pitch": 42, "duration": 10, "velocity": 80}, {"time": 120716, "pitch": 42, "duration": 10, "velocity": 60}, {"time": 120955, "pitch": 40, "duration": 20, "velocity": 110}, {"time": 120955, "pitch": 42, "duration": 10, "velocity": 80}, {"time": 121200, "pitch": 35, "duration": 20, "velocity": 90}, {"time": 121200, "pitch": 42, "duration": 10, "velocity": 60}, {"time": 121445, "pitch": 35, "duration": 20, "velocity": 110}, {"time": 121445, "pitch": 42, "duration": 10, "velocity": 80}, {"time": 121684, "pitch": 42, "duration": 10, "velocity": 60}, {"time": 121923, "pitch": 40, "duration": 20, "velocity": 110}, {"time": 121923, "pitch": 42, "duration": 10, "velocity": 80}, {"time": 122162, "pitch": 46, "duration": 10, "velocity": 60}, {"time": 122401, "pitch": 35, "duration": 20, "velocity": 110}, {"time": 122401, "pitch": 42, "duration": 10, "velocity": 80}, {"time": 122641, "pitch": 42, "duration": 10, "velocity": 60}, {"time": 122880, "pitch": 40, "duration": 20, "velocity": 110}, {"time": 122880, "pitch": 42, "duration": 10, "velocity": 80}, {"time": 123119, "pitch": 35, "duration": 20, "velocity": 80}, {"time": 123119, "pitch": 42, "duration": 10, "velocity": 60}, {"time": 123358, "pitch": 35, "duration": 20, "velocity": 110}, {"time": 123358, "pitch": 42, "duration": 10, "velocity": 80}, {"time": 123597, "pitch": 46, "duration": 20, "velocity": 60}, {"time": 123597, "pitch": 48, "duration": 10, "velocity": 90}, {"time": 123837, "pitch": 40, "duration": 20, "velocity": 110}, {"time": 123837, "pitch": 42, "duration": 10, "velocity": 80}, {"time": 124076, "pitch": 35, "duration": 30, "velocity": 80}, {"time": 124076, "pitch": 42, "duration": 20, "velocity": 60}, {"time": 124076, "pitch": 45, "duration": 10, "velocity": 90}, {"time": 124315, "pitch": 35, "duration": 31, "velocity": 110}, {"time": 124315, "pitch": 42, "duration": 20, "velocity": 80}, {"time": 124315, "pitch": 57, "duration": 10, "velocity": 60}, {"time": 124560, "pitch": 42, "duration": 10, "velocity": 60}, {"time": 124805, "pitch": 40, "duration": 20, "velocity": 110}, {"time": 124805, "pitch": 42, "duration": 10, "velocity": 80}, {"time": 125044, "pitch": 35, "duration": 20, "velocity": 90}, {"time": 125044, "pitch": 42, "duration": 10, "velocity": 60}, {"time": 125283, "pitch": 35, "duration": 20, "velocity": 110}, {"time": 125283, "pitch": 42, "duration": 10, "velocity": 80}, {"time": 125522, "pitch": 42, "duration": 10, "velocity": 60}, {"time": 125761, "pitch": 40, "duration": 20, "velocity": 110}, {"time": 125761, "pitch": 42, "duration": 10, "velocity": 80}, {"time": 126001, "pitch": 46, "duration": 10, "velocity": 60}, {"time": 126240, "pitch": 35, "duration": 20, "velocity": 110}, {"time": 126240, "pitch": 42, "duration": 10, "velocity": 80}, {"time": 126479, "pitch": 42, "duration": 10, "velocity": 60}, {"time": 126718, "pitch": 40, "duration": 20, "velocity": 110}, {"time": 126718, "pitch": 42, "duration": 10, "velocity": 80}, {"time": 126957, "pitch": 35, "duration": 20, "velocity": 80}, {"time": 126957, "pitch": 42, "duration": 10, "velocity": 60}, {"time": 127197, "pitch": 35, "duration": 20, "velocity": 110}, {"time": 127197, "pitch": 42, "duration": 10, "velocity": 80}, {"time": 127436, "pitch": 42, "duration": 10, "velocity": 60}, {"time": 127675, "pitch": 40, "duration": 20, "velocity": 110}, {"time": 127675, "pitch": 42, "duration": 10, "velocity": 80}, {"time": 127920, "pitch": 35, "duration": 20, "velocity": 80}, {"time": 127920, "pitch": 42, "duration": 10, "velocity": 60}, {"time": 128144, "pitch": 40, "duration": 11, "velocity": 80}, {"time": 128165, "pitch": 40, "duration": 30, "velocity": 110}, {"time": 128165, "pitch": 42, "duration": 20, "velocity": 80}, {"time": 128165, "pitch": 49, "duration": 10, "velocity": 60}, {"time": 128404, "pitch": 35, "duration": 20, "velocity": 110}, {"time": 128404, "pitch": 42, "duration": 10, "velocity": 60}, {"time": 128623, "pitch": 40, "duration": 10, "velocity": 80}, {"time": 128643, "pitch": 40, "duration": 20, "velocity": 110}, {"time": 128643, "pitch": 42, "duration": 10, "velocity": 80}, {"time": 128882, "pitch": 35, "duration": 20, "velocity": 110}, {"time": 128882, "pitch": 42, "duration": 10, "velocity": 60}, {"time": 129102, "pitch": 40, "duration": 9, "velocity": 80}, {"time": 129121, "pitch": 40, "duration": 20, "velocity": 110}, {"time": 129121, "pitch": 42, "duration": 10, "velocity": 80}, {"time": 129361, "pitch": 35, "duration": 30, "velocity": 110}, {"time": 129361, "pitch": 40, "duration": 20, "velocity": 40}, {"time": 129361, "pitch": 46, "duration": 10, "velocity": 60}, {"time": 129480, "pitch": 40, "duration": 10, "velocity": 60}, {"time": 129600, "pitch": 40, "duration": 10, "velocity": 110}, {"time": 129839, "pitch": 35, "duration": 30, "velocity": 110}, {"time": 129839, "pitch": 44, "duration": 20, "velocity": 60}, {"time": 129839, "pitch": 57, "duration": 10, "velocity": 60}, {"time": 130078, "pitch": 42, "duration": 10, "velocity": 80}, {"time": 130317, "pitch": 40, "duration": 20, "velocity": 110}, {"time": 130317, "pitch": 42, "duration": 10, "velocity": 60}, {"time": 130557, "pitch": 40, "duration": 20, "velocity": 110}, {"time": 130557, "pitch": 42, "duration": 10, "velocity": 80}, {"time": 130796, "pitch": 35, "duration": 20, "velocity": 110}, {"time": 130796, "pitch": 42, "duration": 10, "velocity": 60}, {"time": 131035, "pitch": 45, "duration": 20, "velocity": 110}, {"time": 131035, "pitch": 49, "duration": 10, "velocity": 60}, {"time": 131280, "pitch": 35, "duration": 10, "velocity": 110}, {"time": 131402, "pitch": 40, "duration": 11, "velocity": 75}, {"time": 131525, "pitch": 40, "duration": 30, "velocity": 110}, {"time": 131525, "pitch": 42, "duration": 20, "velocity": 80}, {"time": 131525, "pitch": 57, "duration": 10, "velocity": 60}, {"time": 131644, "pitch": 35, "duration": 20, "velocity": 80}, {"time": 131644, "pitch": 45, "duration": 10, "velocity": 90}, {"time": 131764, "pitch": 41, "duration": 20, "velocity": 90}, {"time": 131764, "pitch": 42, "duration": 10, "velocity": 60}, {"time": 132003, "pitch": 35, "duration": 30, "velocity": 110}, {"time": 132003, "pitch": 49, "duration": 20, "velocity": 60}, {"time": 132003, "pitch": 54, "duration": 10, "velocity": 52}, {"time": 132242, "pitch": 44, "duration": 30, "velocity": 50}, {"time": 132242, "pitch": 51, "duration": 20, "velocity": 60}, {"time": 132242, "pitch": 54, "duration": 10, "velocity": 52}, {"time": 132481, "pitch": 40, "duration": 30, "velocity": 110}, {"time": 132481, "pitch": 51, "duration": 20, "velocity": 50}, {"time": 132481, "pitch": 54, "duration": 10, "velocity": 107}, {"time": 132721, "pitch": 35, "duration": 40, "velocity": 110}, {"time": 132721, "pitch": 44, "duration": 30, "velocity": 50}, {"time": 132721, "pitch": 51, "duration": 20, "velocity": 70}, {"time": 132721, "pitch": 54, "duration": 10, "velocity": 39}, {"time": 132960, "pitch": 51, "duration": 20, "velocity": 60}, {"time": 132960, "pitch": 54, "duration": 10, "velocity": 38}, {"time": 133199, "pitch": 35, "duration": 40, "velocity": 90}, {"time": 133199, "pitch": 44, "duration": 30, "velocity": 50}, {"time": 133199, "pitch": 51, "duration": 20, "velocity": 50}, {"time": 133199, "pitch": 54, "duration": 10, "velocity": 62}, {"time": 133438, "pitch": 40, "duration": 30, "velocity": 110}, {"time": 133438, "pitch": 51, "duration": 20, "velocity": 70}, {"time": 133438, "pitch": 54, "duration": 10, "velocity": 99}, {"time": 133677, "pitch": 35, "duration": 40, "velocity": 110}, {"time": 133677, "pitch": 44, "duration": 30, "velocity": 50}, {"time": 133677, "pitch": 51, "duration": 20, "velocity": 60}, {"time": 133677, "pitch": 54, "duration": 10, "velocity": 62}, {"time": 133917, "pitch": 51, "duration": 20, "velocity": 50}, {"time": 133917, "pitch": 54, "duration": 10, "velocity": 42}, {"time": 134156, "pitch": 35, "duration": 40, "velocity": 90}, {"time": 134156, "pitch": 44, "duration": 30, "velocity": 50}, {"time": 134156, "pitch": 51, "duration": 20, "velocity": 70}, {"time": 134156, "pitch": 54, "duration": 10, "velocity": 60}, {"time": 134395, "pitch": 40, "duration": 31, "velocity": 110}, {"time": 134395, "pitch": 51, "duration": 20, "velocity": 60}, {"time": 134395, "pitch": 54, "duration": 10, "velocity": 99}, {"time": 134640, "pitch": 35, "duration": 41, "velocity": 80}, {"time": 134640, "pitch": 44, "duration": 30, "velocity": 50}, {"time": 134640, "pitch": 51, "duration": 20, "velocity": 50}, {"time": 134640, "pitch": 54, "duration": 10, "velocity": 46}, {"time": 134885, "pitch": 35, "duration": 30, "velocity": 110}, {"time": 134885, "pitch": 51, "duration": 20, "velocity": 70}, {"time": 134885, "pitch": 54, "duration": 10, "velocity": 65}, {"time": 135124, "pitch": 44, "duration": 30, "velocity": 50}, {"time": 135124, "pitch": 51, "duration": 20, "velocity": 60}, {"time": 135124, "pitch": 54, "duration": 10, "velocity": 46}, {"time": 135363, "pitch": 40, "duration": 30, "velocity": 110}, {"time": 135363, "pitch": 51, "duration": 20, "velocity": 50}, {"time": 135363, "pitch": 54, "duration": 10, "velocity": 107}, {"time": 135602, "pitch": 35, "duration": 40, "velocity": 80}, {"time": 135602, "pitch": 44, "duration": 30, "velocity": 50}, {"time": 135602, "pitch": 51, "duration": 20, "velocity": 70}, {"time": 135602, "pitch": 54, "duration": 10, "velocity": 27}, {"time": 135841, "pitch": 35, "duration": 30, "velocity": 110}, {"time": 135841, "pitch": 51, "duration": 20, "velocity": 60}, {"time": 135841, "pitch": 54, "duration": 10, "velocity": 56}, {"time": 136081, "pitch": 44, "duration": 30, "velocity": 50}, {"time": 136081, "pitch": 51, "duration": 20, "velocity": 50}, {"time": 136081, "pitch": 54, "duration": 10, "velocity": 44}, {"time": 136320, "pitch": 40, "duration": 30, "velocity": 110}, {"time": 136320, "pitch": 51, "duration": 20, "velocity": 70}, {"time": 136320, "pitch": 54, "duration": 10, "velocity": 107}, {"time": 136559, "pitch": 35, "duration": 40, "velocity": 90}, {"time": 136559, "pitch": 44, "duration": 30, "velocity": 50}, {"time": 136559, "pitch": 51, "duration": 20, "velocity": 60}, {"time": 136559, "pitch": 54, "duration": 10, "velocity": 18}, {"time": 136798, "pitch": 35, "duration": 30, "velocity": 110}, {"time": 136798, "pitch": 51, "duration": 20, "velocity": 50}, {"time": 136798, "pitch": 54, "duration": 10, "velocity": 67}, {"time": 137037, "pitch": 44, "duration": 30, "velocity": 50}, {"time": 137037, "pitch": 51, "duration": 20, "velocity": 70}, {"time": 137037, "pitch": 54, "duration": 10, "velocity": 60}, {"time": 137277, "pitch": 40, "duration": 30, "velocity": 110}, {"time": 137277, "pitch": 51, "duration": 20, "velocity": 60}, {"time": 137277, "pitch": 54, "duration": 10, "velocity": 102}, {"time": 137516, "pitch": 35, "duration": 40, "velocity": 110}, {"time": 137516, "pitch": 44, "duration": 30, "velocity": 50}, {"time": 137516, "pitch": 51, "duration": 20, "velocity": 50}, {"time": 137516, "pitch": 54, "duration": 10, "velocity": 56}, {"time": 137755, "pitch": 51, "duration": 20, "velocity": 70}, {"time": 137755, "pitch": 54, "duration": 10, "velocity": 58}, {"time": 138000, "pitch": 35, "duration": 41, "velocity": 90}, {"time": 138000, "pitch": 44, "duration": 30, "velocity": 50}, {"time": 138000, "pitch": 51, "duration": 20, "velocity": 60}, {"time": 138000, "pitch": 54, "duration": 10, "velocity": 54}, {"time": 138245, "pitch": 40, "duration": 30, "velocity": 110}, {"time": 138245, "pitch": 51, "duration": 20, "velocity": 50}, {"time": 138245, "pitch": 54, "duration": 10, "velocity": 102}, {"time": 138484, "pitch": 35, "duration": 40, "velocity": 80}, {"time": 138484, "pitch": 44, "duration": 30, "velocity": 50}, {"time": 138484, "pitch": 51, "duration": 20, "velocity": 70}, {"time": 138484, "pitch": 54, "duration": 10, "velocity": 31}, {"time": 138723, "pitch": 35, "duration": 30, "velocity": 110}, {"time": 138723, "pitch": 51, "duration": 20, "velocity": 60}, {"time": 138723, "pitch": 54, "duration": 10, "velocity": 78}, {"time": 138843, "pitch": 40, "duration": 10, "velocity": 30}, {"time": 138962, "pitch": 40, "duration": 40, "velocity": 50}, {"time": 138962, "pitch": 44, "duration": 30, "velocity": 50}, {"time": 138962, "pitch": 51, "duration": 20, "velocity": 50}, {"time": 138962, "pitch": 54, "duration": 10, "velocity": 39}, {"time": 139082, "pitch": 40, "duration": 10, "velocity": 70}, {"time": 139201, "pitch": 40, "duration": 30, "velocity": 110}, {"time": 139201, "pitch": 51, "duration": 20, "velocity": 70}, {"time": 139201, "pitch": 54, "duration": 10, "velocity": 99}, {"time": 139321, "pitch": 40, "duration": 10, "velocity": 50}, {"time": 139441, "pitch": 35, "duration": 49, "velocity": 80}, {"time": 139441, "pitch": 44, "duration": 40, "velocity": 50}, {"time": 139441, "pitch": 45, "duration": 30, "velocity": 90}, {"time": 139441, "pitch": 51, "duration": 20, "velocity": 50}, {"time": 139441, "pitch": 54, "duration": 10, "velocity": 50}, {"time": 139680, "pitch": 35, "duration": 30, "velocity": 110}, {"time": 139680, "pitch": 54, "duration": 20, "velocity": 52}, {"time": 139680, "pitch": 57, "duration": 10, "velocity": 60}, {"time": 139919, "pitch": 44, "duration": 30, "velocity": 50}, {"time": 139919, "pitch": 51, "duration": 20, "velocity": 60}, {"time": 139919, "pitch": 54, "duration": 10, "velocity": 52}, {"time": 140158, "pitch": 40, "duration": 30, "velocity": 110}, {"time": 140158, "pitch": 51, "duration": 20, "velocity": 50}, {"time": 140158, "pitch": 54, "duration": 10, "velocity": 107}, {"time": 140397, "pitch": 35, "duration": 40, "velocity": 110}, {"time": 140397, "pitch": 44, "duration": 30, "velocity": 50}, {"time": 140397, "pitch": 51, "duration": 20, "velocity": 70}, {"time": 140397, "pitch": 54, "duration": 10, "velocity": 39}, {"time": 140637, "pitch": 51, "duration": 20, "velocity": 60}, {"time": 140637, "pitch": 54, "duration": 10, "velocity": 38}, {"time": 140876, "pitch": 35, "duration": 40, "velocity": 90}, {"time": 140876, "pitch": 44, "duration": 30, "velocity": 50}, {"time": 140876, "pitch": 51, "duration": 20, "velocity": 50}, {"time": 140876, "pitch": 54, "duration": 10, "velocity": 62}, {"time": 141115, "pitch": 40, "duration": 31, "velocity": 110}, {"time": 141115, "pitch": 51, "duration": 20, "velocity": 70}, {"time": 141115, "pitch": 54, "duration": 10, "velocity": 99}, {"time": 141360, "pitch": 35, "duration": 41, "velocity": 110}, {"time": 141360, "pitch": 44, "duration": 30, "velocity": 50}, {"time": 141360, "pitch": 51, "duration": 20, "velocity": 60}, {"time": 141360, "pitch": 54, "duration": 10, "velocity": 62}, {"time": 141605, "pitch": 51, "duration": 20, "velocity": 50}, {"time": 141605, "pitch": 54, "duration": 10, "velocity": 42}, {"time": 141844, "pitch": 35, "duration": 40, "velocity": 90}, {"time": 141844, "pitch": 44, "duration": 30, "velocity": 50}, {"time": 141844, "pitch": 51, "duration": 20, "velocity": 70}, {"time": 141844, "pitch": 54, "duration": 10, "velocity": 60}, {"time": 142083, "pitch": 40, "duration": 30, "velocity": 110}, {"time": 142083, "pitch": 51, "duration": 20, "velocity": 60}, {"time": 142083, "pitch": 54, "duration": 10, "velocity": 99}, {"time": 142322, "pitch": 35, "duration": 40, "velocity": 80}, {"time": 142322, "pitch": 44, "duration": 30, "velocity": 50}, {"time": 142322, "pitch": 51, "duration": 20, "velocity": 50}, {"time": 142322, "pitch": 54, "duration": 10, "velocity": 46}, {"time": 142561, "pitch": 35, "duration": 30, "velocity": 110}, {"time": 142561, "pitch": 51, "duration": 20, "velocity": 70}, {"time": 142561, "pitch": 54, "duration": 10, "velocity": 65}, {"time": 142801, "pitch": 44, "duration": 30, "velocity": 50}, {"time": 142801, "pitch": 51, "duration": 20, "velocity": 60}, {"time": 142801, "pitch": 54, "duration": 10, "velocity": 46}, {"time": 143040, "pitch": 40, "duration": 30, "velocity": 110}, {"time": 143040, "pitch": 51, "duration": 20, "velocity": 50}, {"time": 143040, "pitch": 54, "duration": 10, "velocity": 107}, {"time": 143279, "pitch": 35, "duration": 40, "velocity": 80}, {"time": 143279, "pitch": 44, "duration": 30, "velocity": 50}, {"time": 143279, "pitch": 51, "duration": 20, "velocity": 70}, {"time": 143279, "pitch": 54, "duration": 10, "velocity": 27}, {"time": 143518, "pitch": 35, "duration": 30, "velocity": 110}, {"time": 143518, "pitch": 51, "duration": 20, "velocity": 60}, {"time": 143518, "pitch": 54, "duration": 10, "velocity": 56}, {"time": 143757, "pitch": 44, "duration": 30, "velocity": 50}, {"time": 143757, "pitch": 51, "duration": 20, "velocity": 50}, {"time": 143757, "pitch": 54, "duration": 10, "velocity": 44}, {"time": 143997, "pitch": 40, "duration": 30, "velocity": 110}, {"time": 143997, "pitch": 51, "duration": 20, "velocity": 70}, {"time": 143997, "pitch": 54, "duration": 10, "velocity": 107}, {"time": 144236, "pitch": 35, "duration": 40, "velocity": 90}, {"time": 144236, "pitch": 44, "duration": 30, "velocity": 50}, {"time": 144236, "pitch": 51, "duration": 20, "velocity": 60}, {"time": 144236, "pitch": 54, "duration": 10, "velocity": 18}, {"time": 144475, "pitch": 35, "duration": 20, "velocity": 110}, {"time": 144475, "pitch": 45, "duration": 20, "velocity": 60}, {"time": 144475, "pitch": 51, "duration": 20, "velocity": 50}, {"time": 144475, "pitch": 54, "duration": 10, "velocity": 67}, {"time": 144495, "pitch": 41, "duration": 11, "velocity": 60}, {"time": 144720, "pitch": 44, "duration": 20, "velocity": 50}, {"time": 144720, "pitch": 45, "duration": 20, "velocity": 70}, {"time": 144720, "pitch": 51, "duration": 20, "velocity": 70}, {"time": 144720, "pitch": 54, "duration": 10, "velocity": 60}, {"time": 144740, "pitch": 41, "duration": 10, "velocity": 70}, {"time": 144965, "pitch": 45, "duration": 20, "velocity": 90}, {"time": 144965, "pitch": 51, "duration": 20, "velocity": 60}, {"time": 144965, "pitch": 54, "duration": 10, "velocity": 102}, {"time": 144985, "pitch": 41, "duration": 10, "velocity": 90}, {"time": 145204, "pitch": 35, "duration": 40, "velocity": 110}, {"time": 145204, "pitch": 44, "duration": 30, "velocity": 50}, {"time": 145204, "pitch": 49, "duration": 20, "velocity": 60}, {"time": 145204, "pitch": 54, "duration": 10, "velocity": 56}, {"time": 145443, "pitch": 40, "duration": 30, "velocity": 110}, {"time": 145443, "pitch": 51, "duration": 20, "velocity": 70}, {"time": 145443, "pitch": 54, "duration": 10, "velocity": 58}, {"time": 145682, "pitch": 35, "duration": 50, "velocity": 90}, {"time": 145682, "pitch": 44, "duration": 40, "velocity": 50}, {"time": 145682, "pitch": 48, "duration": 30, "velocity": 90}, {"time": 145682, "pitch": 51, "duration": 20, "velocity": 60}, {"time": 145682, "pitch": 54, "duration": 10, "velocity": 54}, {"time": 145921, "pitch": 40, "duration": 30, "velocity": 110}, {"time": 145921, "pitch": 51, "duration": 20, "velocity": 50}, {"time": 145921, "pitch": 54, "duration": 10, "velocity": 102}, {"time": 146041, "pitch": 40, "duration": 10, "velocity": 80}, {"time": 146161, "pitch": 35, "duration": 49, "velocity": 110}, {"time": 146161, "pitch": 44, "duration": 40, "velocity": 50}, {"time": 146161, "pitch": 45, "duration": 30, "velocity": 90}, {"time": 146161, "pitch": 54, "duration": 20, "velocity": 31}, {"time": 146161, "pitch": 57, "duration": 10, "velocity": 60}, {"time": 146400, "pitch": 40, "duration": 20, "velocity": 110}, {"time": 146400, "pitch": 54, "duration": 10, "velocity": 78}, {"time": 146519, "pitch": 40, "duration": 10, "velocity": 80}, {"time": 146639, "pitch": 35, "duration": 40, "velocity": 90}, {"time": 146639, "pitch": 44, "duration": 30, "velocity": 50}, {"time": 146639, "pitch": 45, "duration": 20, "velocity": 90}, {"time": 146639, "pitch": 54, "duration": 10, "velocity": 39}, {"time": 146878, "pitch": 40, "duration": 20, "velocity": 110}, {"time": 146878, "pitch": 54, "duration": 10, "velocity": 99}, {"time": 146998, "pitch": 40, "duration": 10, "velocity": 90}, {"time": 147117, "pitch": 35, "duration": 40, "velocity": 80}, {"time": 147117, "pitch": 41, "duration": 30, "velocity": 90}, {"time": 147117, "pitch": 44, "duration": 20, "velocity": 50}, {"time": 147117, "pitch": 54, "duration": 10, "velocity": 50}, {"time": 147357, "pitch": 35, "duration": 30, "velocity": 110}, {"time": 147357, "pitch": 49, "duration": 20, "velocity": 60}, {"time": 147357, "pitch": 54, "duration": 10, "velocity": 52}, {"time": 147596, "pitch": 44, "duration": 30, "velocity": 50}, {"time": 147596, "pitch": 51, "duration": 20, "velocity": 60}, {"time": 147596, "pitch": 54, "duration": 10, "velocity": 52}, {"time": 147835, "pitch": 40, "duration": 31, "velocity": 110}, {"time": 147835, "pitch": 51, "duration": 20, "velocity": 50}, {"time": 147835, "pitch": 54, "duration": 10, "velocity": 107}, {"time": 148080, "pitch": 35, "duration": 41, "velocity": 110}, {"time": 148080, "pitch": 44, "duration": 30, "velocity": 50}, {"time": 148080, "pitch": 51, "duration": 20, "velocity": 70}, {"time": 148080, "pitch": 54, "duration": 10, "velocity": 39}, {"time": 148325, "pitch": 51, "duration": 20, "velocity": 60}, {"time": 148325, "pitch": 54, "duration": 10, "velocity": 38}, {"time": 148564, "pitch": 35, "duration": 40, "velocity": 90}, {"time": 148564, "pitch": 44, "duration": 30, "velocity": 50}, {"time": 148564, "pitch": 51, "duration": 20, "velocity": 50}, {"time": 148564, "pitch": 54, "duration": 10, "velocity": 62}, {"time": 148803, "pitch": 40, "duration": 30, "velocity": 110}, {"time": 148803, "pitch": 51, "duration": 20, "velocity": 70}, {"time": 148803, "pitch": 54, "duration": 10, "velocity": 99}, {"time": 149042, "pitch": 35, "duration": 40, "velocity": 110}, {"time": 149042, "pitch": 44, "duration": 30, "velocity": 50}, {"time": 149042, "pitch": 51, "duration": 20, "velocity": 60}, {"time": 149042, "pitch": 54, "duration": 10, "velocity": 62}, {"time": 149281, "pitch": 51, "duration": 20, "velocity": 50}, {"time": 149281, "pitch": 54, "duration": 10, "velocity": 42}, {"time": 149521, "pitch": 35, "duration": 40, "velocity": 90}, {"time": 149521, "pitch": 44, "duration": 30, "velocity": 50}, {"time": 149521, "pitch": 51, "duration": 20, "velocity": 70}, {"time": 149521, "pitch": 54, "duration": 10, "velocity": 60}, {"time": 149760, "pitch": 40, "duration": 30, "velocity": 110}, {"time": 149760, "pitch": 51, "duration": 20, "velocity": 60}, {"time": 149760, "pitch": 54, "duration": 10, "velocity": 99}, {"time": 149999, "pitch": 35, "duration": 40, "velocity": 80}, {"time": 149999, "pitch": 44, "duration": 30, "velocity": 50}, {"time": 149999, "pitch": 51, "duration": 20, "velocity": 50}, {"time": 149999, "pitch": 54, "duration": 10, "velocity": 46}, {"time": 150238, "pitch": 35, "duration": 30, "velocity": 110}, {"time": 150238, "pitch": 51, "duration": 20, "velocity": 70}, {"time": 150238, "pitch": 54, "duration": 10, "velocity": 65}, {"time": 150477, "pitch": 44, "duration": 30, "velocity": 50}, {"time": 150477, "pitch": 51, "duration": 20, "velocity": 60}, {"time": 150477, "pitch": 54, "duration": 10, "velocity": 46}, {"time": 150717, "pitch": 40, "duration": 30, "velocity": 110}, {"time": 150717, "pitch": 51, "duration": 20, "velocity": 50}, {"time": 150717, "pitch": 54, "duration": 10, "velocity": 107}, {"time": 150956, "pitch": 35, "duration": 40, "velocity": 80}, {"time": 150956, "pitch": 44, "duration": 30, "velocity": 50}, {"time": 150956, "pitch": 51, "duration": 20, "velocity": 70}, {"time": 150956, "pitch": 54, "duration": 10, "velocity": 27}, {"time": 151195, "pitch": 35, "duration": 31, "velocity": 110}, {"time": 151195, "pitch": 51, "duration": 20, "velocity": 60}, {"time": 151195, "pitch": 54, "duration": 10, "velocity": 56}, {"time": 151440, "pitch": 44, "duration": 30, "velocity": 50}, {"time": 151440, "pitch": 51, "duration": 20, "velocity": 50}, {"time": 151440, "pitch": 54, "duration": 10, "velocity": 44}, {"time": 151685, "pitch": 40, "duration": 30, "velocity": 110}, {"time": 151685, "pitch": 51, "duration": 20, "velocity": 70}, {"time": 151685, "pitch": 54, "duration": 10, "velocity": 107}, {"time": 151924, "pitch": 35, "duration": 40, "velocity": 90}, {"time": 151924, "pitch": 44, "duration": 30, "velocity": 50}, {"time": 151924, "pitch": 51, "duration": 20, "velocity": 60}, {"time": 151924, "pitch": 54, "duration": 10, "velocity": 18}, {"time": 152163, "pitch": 35, "duration": 30, "velocity": 110}, {"time": 152163, "pitch": 51, "duration": 20, "velocity": 50}, {"time": 152163, "pitch": 54, "duration": 10, "velocity": 67}, {"time": 152402, "pitch": 44, "duration": 30, "velocity": 50}, {"time": 152402, "pitch": 51, "duration": 20, "velocity": 70}, {"time": 152402, "pitch": 54, "duration": 10, "velocity": 60}, {"time": 152641, "pitch": 40, "duration": 30, "velocity": 110}, {"time": 152641, "pitch": 51, "duration": 20, "velocity": 60}, {"time": 152641, "pitch": 54, "duration": 10, "velocity": 102}, {"time": 152881, "pitch": 35, "duration": 40, "velocity": 110}, {"time": 152881, "pitch": 44, "duration": 30, "velocity": 50}, {"time": 152881, "pitch": 51, "duration": 20, "velocity": 50}, {"time": 152881, "pitch": 54, "duration": 10, "velocity": 56}, {"time": 153120, "pitch": 51, "duration": 20, "velocity": 70}, {"time": 153120, "pitch": 54, "duration": 10, "velocity": 58}, {"time": 153359, "pitch": 35, "duration": 40, "velocity": 90}, {"time": 153359, "pitch": 44, "duration": 30, "velocity": 50}, {"time": 153359, "pitch": 51, "duration": 20, "velocity": 60}, {"time": 153359, "pitch": 54, "duration": 10, "velocity": 54}, {"time": 153598, "pitch": 40, "duration": 30, "velocity": 110}, {"time": 153598, "pitch": 51, "duration": 20, "velocity": 50}, {"time": 153598, "pitch": 54, "duration": 10, "velocity": 102}, {"time": 153837, "pitch": 35, "duration": 40, "velocity": 80}, {"time": 153837, "pitch": 44, "duration": 30, "velocity": 50}, {"time": 153837, "pitch": 51, "duration": 20, "velocity": 70}, {"time": 153837, "pitch": 54, "duration": 10, "velocity": 31}, {"time": 153957, "pitch": 40, "duration": 10, "velocity": 40}, {"time": 154077, "pitch": 35, "duration": 30, "velocity": 110}, {"time": 154077, "pitch": 51, "duration": 20, "velocity": 60}, {"time": 154077, "pitch": 54, "duration": 10, "velocity": 78}, {"time": 154196, "pitch": 40, "duration": 10, "velocity": 110}, {"time": 154316, "pitch": 44, "duration": 30, "velocity": 50}, {"time": 154316, "pitch": 51, "duration": 20, "velocity": 50}, {"time": 154316, "pitch": 54, "duration": 10, "velocity": 39}, {"time": 154555, "pitch": 40, "duration": 31, "velocity": 110}, {"time": 154555, "pitch": 51, "duration": 20, "velocity": 70}, {"time": 154555, "pitch": 54, "duration": 10, "velocity": 99}, {"time": 154800, "pitch": 35, "duration": 51, "velocity": 80}, {"time": 154800, "pitch": 40, "duration": 41, "velocity": 80}, {"time": 154800, "pitch": 44, "duration": 30, "velocity": 50}, {"time": 154800, "pitch": 51, "duration": 20, "velocity": 50}, {"time": 154800, "pitch": 54, "duration": 10, "velocity": 50}, {"time": 154922, "pitch": 40, "duration": 10, "velocity": 110}, {"time": 155045, "pitch": 35, "duration": 30, "velocity": 110}, {"time": 155045, "pitch": 54, "duration": 20, "velocity": 52}, {"time": 155045, "pitch": 57, "duration": 10, "velocity": 60}, {"time": 155284, "pitch": 44, "duration": 30, "velocity": 50}, {"time": 155284, "pitch": 51, "duration": 20, "velocity": 60}, {"time": 155284, "pitch": 54, "duration": 10, "velocity": 52}, {"time": 155523, "pitch": 40, "duration": 30, "velocity": 110}, {"time": 155523, "pitch": 51, "duration": 20, "velocity": 50}, {"time": 155523, "pitch": 54, "duration": 10, "velocity": 107}, {"time": 155762, "pitch": 35, "duration": 40, "velocity": 110}, {"time": 155762, "pitch": 44, "duration": 30, "velocity": 50}, {"time": 155762, "pitch": 51, "duration": 20, "velocity": 70}, {"time": 155762, "pitch": 54, "duration": 10, "velocity": 39}, {"time": 156001, "pitch": 51, "duration": 20, "velocity": 60}, {"time": 156001, "pitch": 54, "duration": 10, "velocity": 38}, {"time": 156241, "pitch": 35, "duration": 40, "velocity": 90}, {"time": 156241, "pitch": 44, "duration": 30, "velocity": 50}, {"time": 156241, "pitch": 51, "duration": 20, "velocity": 50}, {"time": 156241, "pitch": 54, "duration": 10, "velocity": 62}, {"time": 156480, "pitch": 40, "duration": 30, "velocity": 110}, {"time": 156480, "pitch": 51, "duration": 20, "velocity": 70}, {"time": 156480, "pitch": 54, "duration": 10, "velocity": 99}, {"time": 156719, "pitch": 35, "duration": 40, "velocity": 110}, {"time": 156719, "pitch": 44, "duration": 30, "velocity": 50}, {"time": 156719, "pitch": 51, "duration": 20, "velocity": 60}, {"time": 156719, "pitch": 54, "duration": 10, "velocity": 62}, {"time": 156958, "pitch": 51, "duration": 20, "velocity": 50}, {"time": 156958, "pitch": 54, "duration": 10, "velocity": 42}, {"time": 157197, "pitch": 35, "duration": 40, "velocity": 90}, {"time": 157197, "pitch": 44, "duration": 30, "velocity": 50}, {"time": 157197, "pitch": 51, "duration": 20, "velocity": 70}, {"time": 157197, "pitch": 54, "duration": 10, "velocity": 60}, {"time": 157437, "pitch": 40, "duration": 30, "velocity": 110}, {"time": 157437, "pitch": 51, "duration": 20, "velocity": 60}, {"time": 157437, "pitch": 54, "duration": 10, "velocity": 99}, {"time": 157676, "pitch": 35, "duration": 40, "velocity": 80}, {"time": 157676, "pitch": 44, "duration": 30, "velocity": 50}, {"time": 157676, "pitch": 51, "duration": 20, "velocity": 50}, {"time": 157676, "pitch": 54, "duration": 10, "velocity": 46}, {"time": 157915, "pitch": 35, "duration": 31, "velocity": 110}, {"time": 157915, "pitch": 51, "duration": 20, "velocity": 70}, {"time": 157915, "pitch": 54, "duration": 10, "velocity": 65}, {"time": 158160, "pitch": 44, "duration": 30, "velocity": 50}, {"time": 158160, "pitch": 51, "duration": 20, "velocity": 60}, {"time": 158160, "pitch": 54, "duration": 10, "velocity": 46}, {"time": 158405, "pitch": 40, "duration": 30, "velocity": 110}, {"time": 158405, "pitch": 51, "duration": 20, "velocity": 50}, {"time": 158405, "pitch": 54, "duration": 10, "velocity": 107}, {"time": 158644, "pitch": 35, "duration": 40, "velocity": 80}, {"time": 158644, "pitch": 44, "duration": 30, "velocity": 50}, {"time": 158644, "pitch": 51, "duration": 20, "velocity": 70}, {"time": 158644, "pitch": 54, "duration": 10, "velocity": 27}, {"time": 158883, "pitch": 35, "duration": 30, "velocity": 110}, {"time": 158883, "pitch": 51, "duration": 20, "velocity": 60}, {"time": 158883, "pitch": 54, "duration": 10, "velocity": 56}, {"time": 159122, "pitch": 44, "duration": 30, "velocity": 50}, {"time": 159122, "pitch": 51, "duration": 20, "velocity": 50}, {"time": 159122, "pitch": 54, "duration": 10, "velocity": 44}, {"time": 159361, "pitch": 40, "duration": 30, "velocity": 110}, {"time": 159361, "pitch": 51, "duration": 20, "velocity": 70}, {"time": 159361, "pitch": 54, "duration": 10, "velocity": 107}, {"time": 159601, "pitch": 35, "duration": 40, "velocity": 90}, {"time": 159601, "pitch": 44, "duration": 30, "velocity": 50}, {"time": 159601, "pitch": 51, "duration": 20, "velocity": 60}, {"time": 159601, "pitch": 54, "duration": 10, "velocity": 18}, {"time": 159840, "pitch": 35, "duration": 30, "velocity": 110}, {"time": 159840, "pitch": 51, "duration": 20, "velocity": 50}, {"time": 159840, "pitch": 54, "duration": 10, "velocity": 67}, {"time": 160079, "pitch": 44, "duration": 30, "velocity": 50}, {"time": 160079, "pitch": 51, "duration": 20, "velocity": 70}, {"time": 160079, "pitch": 54, "duration": 10, "velocity": 60}, {"time": 160318, "pitch": 40, "duration": 30, "velocity": 110}, {"time": 160318, "pitch": 51, "duration": 20, "velocity": 60}, {"time": 160318, "pitch": 54, "duration": 10, "velocity": 102}, {"time": 160557, "pitch": 35, "duration": 40, "velocity": 110}, {"time": 160557, "pitch": 44, "duration": 30, "velocity": 50}, {"time": 160557, "pitch": 49, "duration": 20, "velocity": 60}, {"time": 160557, "pitch": 54, "duration": 10, "velocity": 56}, {"time": 160777, "pitch": 40, "duration": 10, "velocity": 80}, {"time": 160797, "pitch": 40, "duration": 30, "velocity": 110}, {"time": 160797, "pitch": 51, "duration": 20, "velocity": 70}, {"time": 160797, "pitch": 54, "duration": 10, "velocity": 58}, {"time": 161036, "pitch": 35, "duration": 40, "velocity": 90}, {"time": 161036, "pitch": 44, "duration": 30, "velocity": 50}, {"time": 161036, "pitch": 51, "duration": 20, "velocity": 60}, {"time": 161036, "pitch": 54, "duration": 10, "velocity": 54}, {"time": 161255, "pitch": 40, "duration": 10, "velocity": 80}, {"time": 161275, "pitch": 40, "duration": 31, "velocity": 110}, {"time": 161275, "pitch": 51, "duration": 20, "velocity": 50}, {"time": 161275, "pitch": 54, "duration": 10, "velocity": 102}, {"time": 161520, "pitch": 35, "duration": 41, "velocity": 110}, {"time": 161520, "pitch": 44, "duration": 30, "velocity": 50}, {"time": 161520, "pitch": 54, "duration": 20, "velocity": 31}, {"time": 161520, "pitch": 57, "duration": 10, "velocity": 60}, {"time": 161744, "pitch": 40, "duration": 11, "velocity": 80}, {"time": 161765, "pitch": 40, "duration": 20, "velocity": 110}, {"time": 161765, "pitch": 54, "duration": 10, "velocity": 78}, {"time": 162004, "pitch": 35, "duration": 30, "velocity": 90}, {"time": 162004, "pitch": 44, "duration": 20, "velocity": 50}, {"time": 162004, "pitch": 54, "duration": 10, "velocity": 39}, {"time": 162243, "pitch": 40, "duration": 20, "velocity": 110}, {"time": 162243, "pitch": 54, "duration": 10, "velocity": 99}, {"time": 162363, "pitch": 40, "duration": 10, "velocity": 90}, {"time": 162482, "pitch": 35, "duration": 40, "velocity": 80}, {"time": 162482, "pitch": 44, "duration": 30, "velocity": 50}, {"time": 162482, "pitch": 45, "duration": 20, "velocity": 90}, {"time": 162482, "pitch": 54, "duration": 10, "velocity": 50}, {"time": 162721, "pitch": 35, "duration": 30, "velocity": 110}, {"time": 162721, "pitch": 49, "duration": 20, "velocity": 60}, {"time": 162721, "pitch": 54, "duration": 10, "velocity": 52}, {"time": 162961, "pitch": 44, "duration": 30, "velocity": 50}, {"time": 162961, "pitch": 51, "duration": 20, "velocity": 60}, {"time": 162961, "pitch": 54, "duration": 10, "velocity": 52}, {"time": 163200, "pitch": 40, "duration": 30, "velocity": 110}, {"time": 163200, "pitch": 51, "duration": 20, "velocity": 50}, {"time": 163200, "pitch": 54, "duration": 10, "velocity": 107}, {"time": 163439, "pitch": 35, "duration": 40, "velocity": 110}, {"time": 163439, "pitch": 44, "duration": 30, "velocity": 50}, {"time": 163439, "pitch": 51, "duration": 20, "velocity": 70}, {"time": 163439, "pitch": 54, "duration": 10, "velocity": 39}, {"time": 163678, "pitch": 51, "duration": 20, "velocity": 60}, {"time": 163678, "pitch": 54, "duration": 10, "velocity": 38}, {"time": 163917, "pitch": 35, "duration": 40, "velocity": 90}, {"time": 163917, "pitch": 44, "duration": 30, "velocity": 50}, {"time": 163917, "pitch": 51, "duration": 20, "velocity": 50}, {"time": 163917, "pitch": 54, "duration": 10, "velocity": 62}, {"time": 164157, "pitch": 40, "duration": 30, "velocity": 110}, {"time": 164157, "pitch": 51, "duration": 20, "velocity": 70}, {"time": 164157, "pitch": 54, "duration": 10, "velocity": 99}, {"time": 164396, "pitch": 35, "duration": 40, "velocity": 110}, {"time": 164396, "pitch": 44, "duration": 30, "velocity": 50}, {"time": 164396, "pitch": 51, "duration": 20, "velocity": 60}, {"time": 164396, "pitch": 54, "duration": 10, "velocity": 62}, {"time": 164635, "pitch": 51, "duration": 20, "velocity": 50}, {"time": 164635, "pitch": 54, "duration": 10, "velocity": 42}, {"time": 164880, "pitch": 35, "duration": 41, "velocity": 90}, {"time": 164880, "pitch": 44, "duration": 30, "velocity": 50}, {"time": 164880, "pitch": 51, "duration": 20, "velocity": 70}, {"time": 164880, "pitch": 54, "duration": 10, "velocity": 60}, {"time": 165125, "pitch": 40, "duration": 30, "velocity": 110}, {"time": 165125, "pitch": 51, "duration": 20, "velocity": 60}, {"time": 165125, "pitch": 54, "duration": 10, "velocity": 99}, {"time": 165364, "pitch": 35, "duration": 40, "velocity": 80}, {"time": 165364, "pitch": 44, "duration": 30, "velocity": 50}, {"time": 165364, "pitch": 51, "duration": 20, "velocity": 50}, {"time": 165364, "pitch": 54, "duration": 10, "velocity": 46}, {"time": 165603, "pitch": 35, "duration": 30, "velocity": 110}, {"time": 165603, "pitch": 51, "duration": 20, "velocity": 70}, {"time": 165603, "pitch": 54, "duration": 10, "velocity": 65}, {"time": 165842, "pitch": 44, "duration": 30, "velocity": 50}, {"time": 165842, "pitch": 51, "duration": 20, "velocity": 60}, {"time": 165842, "pitch": 54, "duration": 10, "velocity": 46}, {"time": 166081, "pitch": 40, "duration": 30, "velocity": 110}, {"time": 166081, "pitch": 51, "duration": 20, "velocity": 50}, {"time": 166081, "pitch": 54, "duration": 10, "velocity": 107}, {"time": 166321, "pitch": 35, "duration": 39, "velocity": 80}, {"time": 166321, "pitch": 44, "duration": 30, "velocity": 50}, {"time": 166321, "pitch": 51, "duration": 20, "velocity": 70}, {"time": 166321, "pitch": 54, "duration": 10, "velocity": 27}, {"time": 166560, "pitch": 35, "duration": 30, "velocity": 110}, {"time": 166560, "pitch": 51, "duration": 20, "velocity": 60}, {"time": 166560, "pitch": 54, "duration": 10, "velocity": 56}, {"time": 166799, "pitch": 44, "duration": 30, "velocity": 50}, {"time": 166799, "pitch": 51, "duration": 20, "velocity": 50}, {"time": 166799, "pitch": 54, "duration": 10, "velocity": 44}, {"time": 167038, "pitch": 40, "duration": 30, "velocity": 110}, {"time": 167038, "pitch": 51, "duration": 20, "velocity": 70}, {"time": 167038, "pitch": 54, "duration": 10, "velocity": 107}, {"time": 167277, "pitch": 35, "duration": 40, "velocity": 90}, {"time": 167277, "pitch": 44, "duration": 30, "velocity": 50}, {"time": 167277, "pitch": 51, "duration": 20, "velocity": 60}, {"time": 167277, "pitch": 54, "duration": 10, "velocity": 18}, {"time": 167517, "pitch": 35, "duration": 30, "velocity": 110}, {"time": 167517, "pitch": 51, "duration": 20, "velocity": 50}, {"time": 167517, "pitch": 54, "duration": 10, "velocity": 67}, {"time": 167756, "pitch": 44, "duration": 30, "velocity": 50}, {"time": 167756, "pitch": 51, "duration": 20, "velocity": 70}, {"time": 167756, "pitch": 54, "duration": 10, "velocity": 60}, {"time": 167995, "pitch": 40, "duration": 31, "velocity": 110}, {"time": 167995, "pitch": 51, "duration": 20, "velocity": 60}, {"time": 167995, "pitch": 54, "duration": 10, "velocity": 102}, {"time": 168240, "pitch": 35, "duration": 41, "velocity": 110}, {"time": 168240, "pitch": 44, "duration": 30, "velocity": 50}, {"time": 168240, "pitch": 51, "duration": 20, "velocity": 50}, {"time": 168240, "pitch": 54, "duration": 10, "velocity": 56}, {"time": 168485, "pitch": 51, "duration": 20, "velocity": 70}, {"time": 168485, "pitch": 54, "duration": 10, "velocity": 58}, {"time": 168724, "pitch": 35, "duration": 40, "velocity": 90}, {"time": 168724, "pitch": 44, "duration": 30, "velocity": 50}, {"time": 168724, "pitch": 51, "duration": 20, "velocity": 60}, {"time": 168724, "pitch": 54, "duration": 10, "velocity": 54}, {"time": 168963, "pitch": 40, "duration": 30, "velocity": 110}, {"time": 168963, "pitch": 51, "duration": 20, "velocity": 50}, {"time": 168963, "pitch": 54, "duration": 10, "velocity": 102}, {"time": 169202, "pitch": 35, "duration": 40, "velocity": 80}, {"time": 169202, "pitch": 44, "duration": 30, "velocity": 50}, {"time": 169202, "pitch": 51, "duration": 20, "velocity": 70}, {"time": 169202, "pitch": 54, "duration": 10, "velocity": 31}, {"time": 169441, "pitch": 35, "duration": 30, "velocity": 110}, {"time": 169441, "pitch": 51, "duration": 20, "velocity": 60}, {"time": 169441, "pitch": 54, "duration": 10, "velocity": 78}, {"time": 169681, "pitch": 40, "duration": 39, "velocity": 90}, {"time": 169681, "pitch": 44, "duration": 30, "velocity": 50}, {"time": 169681, "pitch": 51, "duration": 20, "velocity": 50}, {"time": 169681, "pitch": 54, "duration": 10, "velocity": 39}, {"time": 169920, "pitch": 40, "duration": 20, "velocity": 110}, {"time": 169920, "pitch": 54, "duration": 10, "velocity": 99}, {"time": 170039, "pitch": 40, "duration": 10, "velocity": 90}, {"time": 170159, "pitch": 35, "duration": 40, "velocity": 80}, {"time": 170159, "pitch": 44, "duration": 30, "velocity": 50}, {"time": 170159, "pitch": 45, "duration": 20, "velocity": 90}, {"time": 170159, "pitch": 54, "duration": 10, "velocity": 50}, {"time": 170398, "pitch": 35, "duration": 30, "velocity": 110}, {"time": 170398, "pitch": 54, "duration": 20, "velocity": 58}, {"time": 170398, "pitch": 57, "duration": 10, "velocity": 60}, {"time": 170637, "pitch": 44, "duration": 30, "velocity": 50}, {"time": 170637, "pitch": 51, "duration": 20, "velocity": 60}, {"time": 170637, "pitch": 54, "duration": 10, "velocity": 48}, {"time": 170877, "pitch": 40, "duration": 30, "velocity": 110}, {"time": 170877, "pitch": 51, "duration": 20, "velocity": 50}, {"time": 170877, "pitch": 54, "duration": 10, "velocity": 99}, {"time": 171116, "pitch": 35, "duration": 40, "velocity": 110}, {"time": 171116, "pitch": 44, "duration": 30, "velocity": 50}, {"time": 171116, "pitch": 51, "duration": 20, "velocity": 70}, {"time": 171116, "pitch": 54, "duration": 10, "velocity": 48}, {"time": 171355, "pitch": 51, "duration": 20, "velocity": 60}, {"time": 171355, "pitch": 54, "duration": 10, "velocity": 52}, {"time": 171600, "pitch": 35, "duration": 41, "velocity": 90}, {"time": 171600, "pitch": 44, "duration": 30, "velocity": 50}, {"time": 171600, "pitch": 51, "duration": 20, "velocity": 50}, {"time": 171600, "pitch": 54, "duration": 10, "velocity": 44}, {"time": 171845, "pitch": 40, "duration": 30, "velocity": 110}, {"time": 171845, "pitch": 51, "duration": 20, "velocity": 70}, {"time": 171845, "pitch": 54, "duration": 10, "velocity": 102}, {"time": 172084, "pitch": 35, "duration": 40, "velocity": 110}, {"time": 172084, "pitch": 44, "duration": 30, "velocity": 50}, {"time": 172084, "pitch": 51, "duration": 20, "velocity": 60}, {"time": 172084, "pitch": 54, "duration": 10, "velocity": 58}, {"time": 172323, "pitch": 51, "duration": 20, "velocity": 50}, {"time": 172323, "pitch": 54, "duration": 10, "velocity": 50}, {"time": 172562, "pitch": 35, "duration": 40, "velocity": 90}, {"time": 172562, "pitch": 44, "duration": 30, "velocity": 50}, {"time": 172562, "pitch": 51, "duration": 20, "velocity": 70}, {"time": 172562, "pitch": 54, "duration": 10, "velocity": 60}, {"time": 172801, "pitch": 40, "duration": 30, "velocity": 110}, {"time": 172801, "pitch": 51, "duration": 20, "velocity": 60}, {"time": 172801, "pitch": 54, "duration": 10, "velocity": 96}, {"time": 173041, "pitch": 35, "duration": 39, "velocity": 80}, {"time": 173041, "pitch": 44, "duration": 30, "velocity": 50}, {"time": 173041, "pitch": 51, "duration": 20, "velocity": 50}, {"time": 173041, "pitch": 54, "duration": 10, "velocity": 32}, {"time": 173280, "pitch": 35, "duration": 30, "velocity": 110}, {"time": 173280, "pitch": 51, "duration": 20, "velocity": 70}, {"time": 173280, "pitch": 54, "duration": 10, "velocity": 60}, {"time": 173519, "pitch": 44, "duration": 30, "velocity": 50}, {"time": 173519, "pitch": 51, "duration": 20, "velocity": 60}, {"time": 173519, "pitch": 54, "duration": 10, "velocity": 46}, {"time": 173758, "pitch": 40, "duration": 30, "velocity": 110}, {"time": 173758, "pitch": 51, "duration": 20, "velocity": 50}, {"time": 173758, "pitch": 54, "duration": 10, "velocity": 107}, {"time": 173997, "pitch": 35, "duration": 40, "velocity": 80}, {"time": 173997, "pitch": 44, "duration": 30, "velocity": 50}, {"time": 173997, "pitch": 51, "duration": 20, "velocity": 70}, {"time": 173997, "pitch": 54, "duration": 10, "velocity": 43}, {"time": 174237, "pitch": 35, "duration": 40, "velocity": 110}, {"time": 174237, "pitch": 49, "duration": 30, "velocity": 60}, {"time": 174237, "pitch": 51, "duration": 20, "velocity": 60}, {"time": 174237, "pitch": 54, "duration": 10, "velocity": 60}, {"time": 174476, "pitch": 44, "duration": 30, "velocity": 50}, {"time": 174476, "pitch": 51, "duration": 20, "velocity": 50}, {"time": 174476, "pitch": 54, "duration": 10, "velocity": 52}, {"time": 174715, "pitch": 40, "duration": 31, "velocity": 110}, {"time": 174715, "pitch": 51, "duration": 20, "velocity": 70}, {"time": 174715, "pitch": 54, "duration": 10, "velocity": 102}, {"time": 174960, "pitch": 35, "duration": 41, "velocity": 90}, {"time": 174960, "pitch": 44, "duration": 30, "velocity": 50}, {"time": 174960, "pitch": 51, "duration": 20, "velocity": 60}, {"time": 174960, "pitch": 54, "duration": 10, "velocity": 35}, {"time": 175205, "pitch": 35, "duration": 30, "velocity": 110}, {"time": 175205, "pitch": 51, "duration": 20, "velocity": 50}, {"time": 175205, "pitch": 54, "duration": 10, "velocity": 78}, {"time": 175444, "pitch": 44, "duration": 30, "velocity": 50}, {"time": 175444, "pitch": 51, "duration": 20, "velocity": 70}, {"time": 175444, "pitch": 54, "duration": 10, "velocity": 43}, {"time": 175683, "pitch": 40, "duration": 30, "velocity": 110}, {"time": 175683, "pitch": 51, "duration": 20, "velocity": 60}, {"time": 175683, "pitch": 54, "duration": 10, "velocity": 87}, {"time": 175922, "pitch": 35, "duration": 40, "velocity": 110}, {"time": 175922, "pitch": 44, "duration": 30, "velocity": 50}, {"time": 175922, "pitch": 51, "duration": 20, "velocity": 50}, {"time": 175922, "pitch": 54, "duration": 10, "velocity": 82}, {"time": 176141, "pitch": 40, "duration": 10, "velocity": 80}, {"time": 176161, "pitch": 40, "duration": 20, "velocity": 110}, {"time": 176161, "pitch": 57, "duration": 10, "velocity": 60}, {"time": 176401, "pitch": 44, "duration": 20, "velocity": 50}, {"time": 176401, "pitch": 45, "duration": 10, "velocity": 80}, {"time": 176640, "pitch": 35, "duration": 30, "velocity": 110}, {"time": 176640, "pitch": 49, "duration": 20, "velocity": 60}, {"time": 176640, "pitch": 54, "duration": 10, "velocity": 86}, {"time": 176680, "pitch": 54, "duration": 10, "velocity": 84}, {"time": 176720, "pitch": 54, "duration": 10, "velocity": 81}, {"time": 176759, "pitch": 54, "duration": 10, "velocity": 78}, {"time": 176799, "pitch": 54, "duration": 10, "velocity": 75}, {"time": 176839, "pitch": 54, "duration": 10, "velocity": 73}, {"time": 176879, "pitch": 54, "duration": 10, "velocity": 70}, {"time": 176919, "pitch": 54, "duration": 10, "velocity": 67}, {"time": 176959, "pitch": 54, "duration": 10, "velocity": 64}, {"time": 176999, "pitch": 54, "duration": 10, "velocity": 62}, {"time": 177038, "pitch": 54, "duration": 10, "velocity": 59}, {"time": 177078, "pitch": 54, "duration": 10, "velocity": 56}, {"time": 177118, "pitch": 54, "duration": 10, "velocity": 53}, {"time": 177158, "pitch": 54, "duration": 10, "velocity": 51}, {"time": 177198, "pitch": 54, "duration": 10, "velocity": 48}, {"time": 177238, "pitch": 54, "duration": 10, "velocity": 45}, {"time": 177278, "pitch": 54, "duration": 10, "velocity": 42}, {"time": 177318, "pitch": 54, "duration": 10, "velocity": 40}, {"time": 177357, "pitch": 35, "duration": 20, "velocity": 80}, {"time": 177357, "pitch": 54, "duration": 10, "velocity": 37}, {"time": 177397, "pitch": 54, "duration": 10, "velocity": 34}, {"time": 177437, "pitch": 54, "duration": 10, "velocity": 31}, {"time": 177477, "pitch": 54, "duration": 10, "velocity": 29}, {"time": 177517, "pitch": 54, "duration": 10, "velocity": 26}, {"time": 177557, "pitch": 54, "duration": 10, "velocity": 23}, {"time": 177577, "pitch": 40, "duration": 10, "velocity": 80}, {"time": 177597, "pitch": 40, "duration": 20, "velocity": 110}, {"time": 177597, "pitch": 54, "duration": 10, "velocity": 20}, {"time": 177836, "pitch": 35, "duration": 10, "velocity": 80}, {"time": 178075, "pitch": 35, "duration": 31, "velocity": 110}, {"time": 178075, "pitch": 42, "duration": 20, "velocity": 80}, {"time": 178075, "pitch": 49, "duration": 10, "velocity": 60}, {"time": 178320, "pitch": 42, "duration": 10, "velocity": 60}, {"time": 178565, "pitch": 40, "duration": 20, "velocity": 110}, {"time": 178565, "pitch": 42, "duration": 10, "velocity": 80}, {"time": 178804, "pitch": 35, "duration": 20, "velocity": 90}, {"time": 178804, "pitch": 42, "duration": 10, "velocity": 60}, {"time": 179043, "pitch": 35, "duration": 20, "velocity": 110}, {"time": 179043, "pitch": 42, "duration": 10, "velocity": 80}, {"time": 179282, "pitch": 42, "duration": 10, "velocity": 60}, {"time": 179521, "pitch": 40, "duration": 20, "velocity": 110}, {"time": 179521, "pitch": 42, "duration": 10, "velocity": 80}, {"time": 179761, "pitch": 46, "duration": 10, "velocity": 60}, {"time": 180000, "pitch": 35, "duration": 20, "velocity": 110}, {"time": 180000, "pitch": 42, "duration": 10, "velocity": 80}, {"time": 180239, "pitch": 42, "duration": 10, "velocity": 60}, {"time": 180478, "pitch": 40, "duration": 20, "velocity": 110}, {"time": 180478, "pitch": 42, "duration": 10, "velocity": 80}, {"time": 180717, "pitch": 35, "duration": 20, "velocity": 80}, {"time": 180717, "pitch": 42, "duration": 10, "velocity": 60}, {"time": 180957, "pitch": 35, "duration": 20, "velocity": 110}, {"time": 180957, "pitch": 42, "duration": 10, "velocity": 80}, {"time": 181196, "pitch": 42, "duration": 10, "velocity": 60}, {"time": 181435, "pitch": 40, "duration": 20, "velocity": 110}, {"time": 181435, "pitch": 42, "duration": 10, "velocity": 80}, {"time": 181680, "pitch": 35, "duration": 20, "velocity": 80}, {"time": 181680, "pitch": 42, "duration": 10, "velocity": 60}, {"time": 181925, "pitch": 35, "duration": 20, "velocity": 110}, {"time": 181925, "pitch": 42, "duration": 10, "velocity": 80}, {"time": 182164, "pitch": 42, "duration": 10, "velocity": 60}, {"time": 182403, "pitch": 40, "duration": 20, "velocity": 110}, {"time": 182403, "pitch": 42, "duration": 10, "velocity": 80}, {"time": 182642, "pitch": 35, "duration": 20, "velocity": 90}, {"time": 182642, "pitch": 42, "duration": 10, "velocity": 60}, {"time": 182881, "pitch": 35, "duration": 20, "velocity": 110}, {"time": 182881, "pitch": 42, "duration": 10, "velocity": 80}, {"time": 183121, "pitch": 42, "duration": 10, "velocity": 60}, {"time": 183360, "pitch": 40, "duration": 20, "velocity": 110}, {"time": 183360, "pitch": 42, "duration": 10, "velocity": 80}, {"time": 183599, "pitch": 46, "duration": 10, "velocity": 60}, {"time": 183838, "pitch": 35, "duration": 20, "velocity": 110}, {"time": 183838, "pitch": 42, "duration": 10, "velocity": 80}, {"time": 184077, "pitch": 42, "duration": 10, "velocity": 60}, {"time": 184317, "pitch": 40, "duration": 20, "velocity": 110}, {"time": 184317, "pitch": 42, "duration": 10, "velocity": 80}, {"time": 184556, "pitch": 35, "duration": 20, "velocity": 80}, {"time": 184556, "pitch": 42, "duration": 10, "velocity": 60}, {"time": 184795, "pitch": 35, "duration": 20, "velocity": 110}, {"time": 184795, "pitch": 42, "duration": 10, "velocity": 80}, {"time": 185040, "pitch": 46, "duration": 20, "velocity": 60}, {"time": 185040, "pitch": 48, "duration": 10, "velocity": 90}, {"time": 185285, "pitch": 40, "duration": 20, "velocity": 110}, {"time": 185285, "pitch": 42, "duration": 10, "velocity": 80}, {"time": 185524, "pitch": 35, "duration": 30, "velocity": 80}, {"time": 185524, "pitch": 42, "duration": 20, "velocity": 60}, {"time": 185524, "pitch": 45, "duration": 10, "velocity": 90}, {"time": 185763, "pitch": 35, "duration": 30, "velocity": 110}, {"time": 185763, "pitch": 42, "duration": 20, "velocity": 80}, {"time": 185763, "pitch": 57, "duration": 10, "velocity": 60}, {"time": 186002, "pitch": 42, "duration": 10, "velocity": 60}, {"time": 186241, "pitch": 40, "duration": 20, "velocity": 110}, {"time": 186241, "pitch": 42, "duration": 10, "velocity": 80}, {"time": 186481, "pitch": 35, "duration": 20, "velocity": 90}, {"time": 186481, "pitch": 42, "duration": 10, "velocity": 60}, {"time": 186720, "pitch": 35, "duration": 20, "velocity": 110}, {"time": 186720, "pitch": 42, "duration": 10, "velocity": 80}, {"time": 186959, "pitch": 42, "duration": 10, "velocity": 60}, {"time": 187198, "pitch": 40, "duration": 20, "velocity": 110}, {"time": 187198, "pitch": 42, "duration": 10, "velocity": 80}, {"time": 187437, "pitch": 46, "duration": 10, "velocity": 60}, {"time": 187677, "pitch": 35, "duration": 20, "velocity": 110}, {"time": 187677, "pitch": 42, "duration": 10, "velocity": 80}, {"time": 187916, "pitch": 42, "duration": 10, "velocity": 60}, {"time": 188155, "pitch": 40, "duration": 20, "velocity": 110}, {"time": 188155, "pitch": 42, "duration": 10, "velocity": 80}, {"time": 188400, "pitch": 35, "duration": 20, "velocity": 80}, {"time": 188400, "pitch": 42, "duration": 10, "velocity": 60}, {"time": 188645, "pitch": 35, "duration": 20, "velocity": 110}, {"time": 188645, "pitch": 42, "duration": 10, "velocity": 80}, {"time": 188884, "pitch": 42, "duration": 10, "velocity": 60}, {"time": 189123, "pitch": 40, "duration": 20, "velocity": 110}, {"time": 189123, "pitch": 42, "duration": 10, "velocity": 80}, {"time": 189362, "pitch": 35, "duration": 20, "velocity": 80}, {"time": 189362, "pitch": 42, "duration": 10, "velocity": 60}, {"time": 189601, "pitch": 35, "duration": 30, "velocity": 110}, {"time": 189601, "pitch": 42, "duration": 20, "velocity": 80}, {"time": 189601, "pitch": 49, "duration": 10, "velocity": 60}, {"time": 189841, "pitch": 42, "duration": 10, "velocity": 60}, {"time": 190080, "pitch": 40, "duration": 20, "velocity": 110}, {"time": 190080, "pitch": 42, "duration": 10, "velocity": 80}, {"time": 190319, "pitch": 35, "duration": 20, "velocity": 90}, {"time": 190319, "pitch": 42, "duration": 20, "velocity": 60}, {"time": 190319, "pitch": 45, "duration": 10, "velocity": 80}, {"time": 190339, "pitch": 41, "duration": 10, "velocity": 80}, {"time": 190558, "pitch": 35, "duration": 20, "velocity": 110}, {"time": 190558, "pitch": 42, "duration": 20, "velocity": 80}, {"time": 190558, "pitch": 45, "duration": 10, "velocity": 90}, {"time": 190578, "pitch": 41, "duration": 10, "velocity": 90}, {"time": 190797, "pitch": 40, "duration": 20, "velocity": 40}, {"time": 190797, "pitch": 46, "duration": 10, "velocity": 60}, {"time": 190917, "pitch": 40, "duration": 10, "velocity": 60}, {"time": 191037, "pitch": 40, "duration": 10, "velocity": 110}, {"time": 191276, "pitch": 35, "duration": 30, "velocity": 110}, {"time": 191276, "pitch": 44, "duration": 20, "velocity": 60}, {"time": 191276, "pitch": 57, "duration": 10, "velocity": 60}, {"time": 191515, "pitch": 42, "duration": 10, "velocity": 80}, {"time": 191760, "pitch": 35, "duration": 20, "velocity": 80}, {"time": 191760, "pitch": 42, "duration": 10, "velocity": 60}, {"time": 192005, "pitch": 40, "duration": 20, "velocity": 110}, {"time": 192005, "pitch": 42, "duration": 10, "velocity": 80}, {"time": 192244, "pitch": 35, "duration": 20, "velocity": 110}, {"time": 192244, "pitch": 42, "duration": 10, "velocity": 60}, {"time": 192483, "pitch": 40, "duration": 20, "velocity": 110}, {"time": 192483, "pitch": 49, "duration": 10, "velocity": 60}, {"time": 192722, "pitch": 35, "duration": 10, "velocity": 110}, {"time": 192961, "pitch": 40, "duration": 30, "velocity": 110}, {"time": 192961, "pitch": 42, "duration": 20, "velocity": 80}, {"time": 192961, "pitch": 57, "duration": 10, "velocity": 60}, {"time": 193081, "pitch": 35, "duration": 10, "velocity": 80}, {"time": 193201, "pitch": 40, "duration": 20, "velocity": 95}, {"time": 193201, "pitch": 42, "duration": 10, "velocity": 60}, {"time": 193320, "pitch": 40, "duration": 10, "velocity": 110}, {"time": 193440, "pitch": 35, "duration": 30, "velocity": 110}, {"time": 193440, "pitch": 49, "duration": 20, "velocity": 60}, {"time": 193440, "pitch": 54, "duration": 10, "velocity": 52}, {"time": 193679, "pitch": 44, "duration": 30, "velocity": 50}, {"time": 193679, "pitch": 51, "duration": 20, "velocity": 60}, {"time": 193679, "pitch": 54, "duration": 10, "velocity": 52}, {"time": 193918, "pitch": 40, "duration": 30, "velocity": 110}, {"time": 193918, "pitch": 51, "duration": 20, "velocity": 50}, {"time": 193918, "pitch": 54, "duration": 10, "velocity": 107}, {"time": 194157, "pitch": 35, "duration": 40, "velocity": 110}, {"time": 194157, "pitch": 44, "duration": 30, "velocity": 50}, {"time": 194157, "pitch": 51, "duration": 20, "velocity": 70}, {"time": 194157, "pitch": 54, "duration": 10, "velocity": 39}, {"time": 194397, "pitch": 51, "duration": 20, "velocity": 60}, {"time": 194397, "pitch": 54, "duration": 10, "velocity": 38}, {"time": 194636, "pitch": 35, "duration": 40, "velocity": 90}, {"time": 194636, "pitch": 44, "duration": 30, "velocity": 50}, {"time": 194636, "pitch": 51, "duration": 20, "velocity": 50}, {"time": 194636, "pitch": 54, "duration": 10, "velocity": 62}, {"time": 194875, "pitch": 40, "duration": 31, "velocity": 110}, {"time": 194875, "pitch": 51, "duration": 20, "velocity": 70}, {"time": 194875, "pitch": 54, "duration": 10, "velocity": 99}, {"time": 195120, "pitch": 35, "duration": 41, "velocity": 110}, {"time": 195120, "pitch": 44, "duration": 30, "velocity": 50}, {"time": 195120, "pitch": 51, "duration": 20, "velocity": 60}, {"time": 195120, "pitch": 54, "duration": 10, "velocity": 62}, {"time": 195365, "pitch": 51, "duration": 20, "velocity": 50}, {"time": 195365, "pitch": 54, "duration": 10, "velocity": 42}, {"time": 195604, "pitch": 35, "duration": 40, "velocity": 90}, {"time": 195604, "pitch": 44, "duration": 30, "velocity": 50}, {"time": 195604, "pitch": 51, "duration": 20, "velocity": 70}, {"time": 195604, "pitch": 54, "duration": 10, "velocity": 60}, {"time": 195843, "pitch": 40, "duration": 30, "velocity": 110}, {"time": 195843, "pitch": 51, "duration": 20, "velocity": 60}, {"time": 195843, "pitch": 54, "duration": 10, "velocity": 99}, {"time": 196082, "pitch": 35, "duration": 40, "velocity": 80}, {"time": 196082, "pitch": 44, "duration": 30, "velocity": 50}, {"time": 196082, "pitch": 51, "duration": 20, "velocity": 50}, {"time": 196082, "pitch": 54, "duration": 10, "velocity": 46}, {"time": 196321, "pitch": 35, "duration": 30, "velocity": 110}, {"time": 196321, "pitch": 51, "duration": 20, "velocity": 70}, {"time": 196321, "pitch": 54, "duration": 10, "velocity": 65}, {"time": 196561, "pitch": 44, "duration": 30, "velocity": 50}, {"time": 196561, "pitch": 51, "duration": 20, "velocity": 60}, {"time": 196561, "pitch": 54, "duration": 10, "velocity": 46}, {"time": 196800, "pitch": 40, "duration": 30, "velocity": 110}, {"time": 196800, "pitch": 51, "duration": 20, "velocity": 50}, {"time": 196800, "pitch": 54, "duration": 10, "velocity": 107}, {"time": 197039, "pitch": 35, "duration": 40, "velocity": 80}, {"time": 197039, "pitch": 44, "duration": 30, "velocity": 50}, {"time": 197039, "pitch": 51, "duration": 20, "velocity": 70}, {"time": 197039, "pitch": 54, "duration": 10, "velocity": 27}, {"time": 197278, "pitch": 35, "duration": 30, "velocity": 110}, {"time": 197278, "pitch": 51, "duration": 20, "velocity": 60}, {"time": 197278, "pitch": 54, "duration": 10, "velocity": 56}, {"time": 197517, "pitch": 44, "duration": 30, "velocity": 50}, {"time": 197517, "pitch": 51, "duration": 20, "velocity": 50}, {"time": 197517, "pitch": 54, "duration": 10, "velocity": 44}, {"time": 197757, "pitch": 40, "duration": 30, "velocity": 110}, {"time": 197757, "pitch": 51, "duration": 20, "velocity": 70}, {"time": 197757, "pitch": 54, "duration": 10, "velocity": 107}, {"time": 197996, "pitch": 35, "duration": 40, "velocity": 90}, {"time": 197996, "pitch": 44, "duration": 30, "velocity": 50}, {"time": 197996, "pitch": 51, "duration": 20, "velocity": 60}, {"time": 197996, "pitch": 54, "duration": 10, "velocity": 18}, {"time": 198235, "pitch": 35, "duration": 31, "velocity": 110}, {"time": 198235, "pitch": 51, "duration": 20, "velocity": 50}, {"time": 198235, "pitch": 54, "duration": 10, "velocity": 67}, {"time": 198480, "pitch": 44, "duration": 30, "velocity": 50}, {"time": 198480, "pitch": 51, "duration": 20, "velocity": 70}, {"time": 198480, "pitch": 54, "duration": 10, "velocity": 60}, {"time": 198725, "pitch": 40, "duration": 29, "velocity": 110}, {"time": 198725, "pitch": 51, "duration": 20, "velocity": 60}, {"time": 198725, "pitch": 54, "duration": 10, "velocity": 102}, {"time": 198964, "pitch": 35, "duration": 40, "velocity": 110}, {"time": 198964, "pitch": 44, "duration": 30, "velocity": 50}, {"time": 198964, "pitch": 51, "duration": 20, "velocity": 50}, {"time": 198964, "pitch": 54, "duration": 10, "velocity": 56}, {"time": 199203, "pitch": 51, "duration": 20, "velocity": 70}, {"time": 199203, "pitch": 54, "duration": 10, "velocity": 58}, {"time": 199442, "pitch": 35, "duration": 40, "velocity": 90}, {"time": 199442, "pitch": 44, "duration": 30, "velocity": 50}, {"time": 199442, "pitch": 51, "duration": 20, "velocity": 60}, {"time": 199442, "pitch": 54, "duration": 10, "velocity": 54}, {"time": 199681, "pitch": 40, "duration": 30, "velocity": 110}, {"time": 199681, "pitch": 51, "duration": 20, "velocity": 50}, {"time": 199681, "pitch": 54, "duration": 10, "velocity": 102}, {"time": 199921, "pitch": 35, "duration": 39, "velocity": 80}, {"time": 199921, "pitch": 44, "duration": 29, "velocity": 50}, {"time": 199921, "pitch": 51, "duration": 20, "velocity": 70}, {"time": 199921, "pitch": 54, "duration": 10, "velocity": 31}, {"time": 200160, "pitch": 35, "duration": 30, "velocity": 110}, {"time": 200160, "pitch": 51, "duration": 20, "velocity": 60}, {"time": 200160, "pitch": 54, "duration": 10, "velocity": 78}, {"time": 200399, "pitch": 40, "duration": 40, "velocity": 95}, {"time": 200399, "pitch": 44, "duration": 30, "velocity": 50}, {"time": 200399, "pitch": 51, "duration": 20, "velocity": 50}, {"time": 200399, "pitch": 54, "duration": 10, "velocity": 39}, {"time": 200638, "pitch": 40, "duration": 30, "velocity": 110}, {"time": 200638, "pitch": 51, "duration": 20, "velocity": 70}, {"time": 200638, "pitch": 54, "duration": 10, "velocity": 99}, {"time": 200877, "pitch": 35, "duration": 50, "velocity": 80}, {"time": 200877, "pitch": 44, "duration": 40, "velocity": 50}, {"time": 200877, "pitch": 45, "duration": 30, "velocity": 90}, {"time": 200877, "pitch": 51, "duration": 20, "velocity": 50}, {"time": 200877, "pitch": 54, "duration": 10, "velocity": 50}, {"time": 201117, "pitch": 35, "duration": 30, "velocity": 110}, {"time": 201117, "pitch": 54, "duration": 20, "velocity": 52}, {"time": 201117, "pitch": 57, "duration": 10, "velocity": 60}, {"time": 201356, "pitch": 44, "duration": 30, "velocity": 50}, {"time": 201356, "pitch": 51, "duration": 20, "velocity": 60}, {"time": 201356, "pitch": 54, "duration": 10, "velocity": 52}, {"time": 201595, "pitch": 40, "duration": 31, "velocity": 110}, {"time": 201595, "pitch": 51, "duration": 20, "velocity": 50}, {"time": 201595, "pitch": 54, "duration": 10, "velocity": 107}, {"time": 201840, "pitch": 35, "duration": 41, "velocity": 110}, {"time": 201840, "pitch": 44, "duration": 30, "velocity": 50}, {"time": 201840, "pitch": 51, "duration": 20, "velocity": 70}, {"time": 201840, "pitch": 54, "duration": 10, "velocity": 39}, {"time": 202085, "pitch": 51, "duration": 20, "velocity": 60}, {"time": 202085, "pitch": 54, "duration": 10, "velocity": 38}, {"time": 202324, "pitch": 35, "duration": 40, "velocity": 90}, {"time": 202324, "pitch": 44, "duration": 30, "velocity": 50}, {"time": 202324, "pitch": 51, "duration": 20, "velocity": 50}, {"time": 202324, "pitch": 54, "duration": 10, "velocity": 62}, {"time": 202563, "pitch": 40, "duration": 30, "velocity": 110}, {"time": 202563, "pitch": 51, "duration": 20, "velocity": 70}, {"time": 202563, "pitch": 54, "duration": 10, "velocity": 99}, {"time": 202802, "pitch": 35, "duration": 40, "velocity": 110}, {"time": 202802, "pitch": 44, "duration": 30, "velocity": 50}, {"time": 202802, "pitch": 51, "duration": 20, "velocity": 60}, {"time": 202802, "pitch": 54, "duration": 10, "velocity": 62}, {"time": 203041, "pitch": 51, "duration": 20, "velocity": 50}, {"time": 203041, "pitch": 54, "duration": 10, "velocity": 42}, {"time": 203281, "pitch": 35, "duration": 39, "velocity": 90}, {"time": 203281, "pitch": 44, "duration": 29, "velocity": 50}, {"time": 203281, "pitch": 51, "duration": 20, "velocity": 70}, {"time": 203281, "pitch": 54, "duration": 10, "velocity": 60}, {"time": 203520, "pitch": 40, "duration": 30, "velocity": 110}, {"time": 203520, "pitch": 51, "duration": 20, "velocity": 60}, {"time": 203520, "pitch": 54, "duration": 10, "velocity": 99}, {"time": 203759, "pitch": 35, "duration": 40, "velocity": 80}, {"time": 203759, "pitch": 44, "duration": 30, "velocity": 50}, {"time": 203759, "pitch": 51, "duration": 20, "velocity": 50}, {"time": 203759, "pitch": 54, "duration": 10, "velocity": 46}, {"time": 203998, "pitch": 35, "duration": 30, "velocity": 110}, {"time": 203998, "pitch": 51, "duration": 20, "velocity": 70}, {"time": 203998, "pitch": 54, "duration": 10, "velocity": 65}, {"time": 204237, "pitch": 44, "duration": 30, "velocity": 50}, {"time": 204237, "pitch": 51, "duration": 20, "velocity": 60}, {"time": 204237, "pitch": 54, "duration": 10, "velocity": 46}, {"time": 204477, "pitch": 40, "duration": 30, "velocity": 110}, {"time": 204477, "pitch": 51, "duration": 20, "velocity": 50}, {"time": 204477, "pitch": 54, "duration": 10, "velocity": 107}, {"time": 204716, "pitch": 35, "duration": 40, "velocity": 80}, {"time": 204716, "pitch": 44, "duration": 30, "velocity": 50}, {"time": 204716, "pitch": 51, "duration": 20, "velocity": 70}, {"time": 204716, "pitch": 54, "duration": 10, "velocity": 27}, {"time": 204955, "pitch": 35, "duration": 31, "velocity": 110}, {"time": 204955, "pitch": 51, "duration": 20, "velocity": 60}, {"time": 204955, "pitch": 54, "duration": 10, "velocity": 56}, {"time": 205200, "pitch": 44, "duration": 30, "velocity": 50}, {"time": 205200, "pitch": 51, "duration": 20, "velocity": 50}, {"time": 205200, "pitch": 54, "duration": 10, "velocity": 44}, {"time": 205445, "pitch": 40, "duration": 29, "velocity": 110}, {"time": 205445, "pitch": 51, "duration": 20, "velocity": 70}, {"time": 205445, "pitch": 54, "duration": 10, "velocity": 107}, {"time": 205684, "pitch": 35, "duration": 40, "velocity": 90}, {"time": 205684, "pitch": 44, "duration": 30, "velocity": 50}, {"time": 205684, "pitch": 51, "duration": 20, "velocity": 60}, {"time": 205684, "pitch": 54, "duration": 10, "velocity": 18}, {"time": 205923, "pitch": 35, "duration": 30, "velocity": 110}, {"time": 205923, "pitch": 51, "duration": 20, "velocity": 50}, {"time": 205923, "pitch": 54, "duration": 10, "velocity": 67}, {"time": 206162, "pitch": 44, "duration": 30, "velocity": 50}, {"time": 206162, "pitch": 51, "duration": 20, "velocity": 70}, {"time": 206162, "pitch": 54, "duration": 10, "velocity": 60}, {"time": 206401, "pitch": 40, "duration": 30, "velocity": 110}, {"time": 206401, "pitch": 51, "duration": 20, "velocity": 60}, {"time": 206401, "pitch": 54, "duration": 10, "velocity": 102}, {"time": 206641, "pitch": 35, "duration": 39, "velocity": 110}, {"time": 206641, "pitch": 44, "duration": 29, "velocity": 50}, {"time": 206641, "pitch": 49, "duration": 20, "velocity": 60}, {"time": 206641, "pitch": 54, "duration": 10, "velocity": 56}, {"time": 206880, "pitch": 40, "duration": 30, "velocity": 110}, {"time": 206880, "pitch": 51, "duration": 20, "velocity": 70}, {"time": 206880, "pitch": 54, "duration": 10, "velocity": 58}, {"time": 207119, "pitch": 35, "duration": 50, "velocity": 90}, {"time": 207119, "pitch": 44, "duration": 40, "velocity": 50}, {"time": 207119, "pitch": 48, "duration": 30, "velocity": 90}, {"time": 207119, "pitch": 51, "duration": 20, "velocity": 60}, {"time": 207119, "pitch": 54, "duration": 10, "velocity": 54}, {"time": 207358, "pitch": 40, "duration": 30, "velocity": 110}, {"time": 207358, "pitch": 51, "duration": 20, "velocity": 50}, {"time": 207358, "pitch": 54, "duration": 10, "velocity": 102}, {"time": 207478, "pitch": 40, "duration": 10, "velocity": 80}, {"time": 207597, "pitch": 35, "duration": 50, "velocity": 110}, {"time": 207597, "pitch": 44, "duration": 40, "velocity": 50}, {"time": 207597, "pitch": 45, "duration": 30, "velocity": 90}, {"time": 207597, "pitch": 54, "duration": 20, "velocity": 31}, {"time": 207597, "pitch": 57, "duration": 10, "velocity": 60}, {"time": 207837, "pitch": 40, "duration": 20, "velocity": 110}, {"time": 207837, "pitch": 54, "duration": 10, "velocity": 78}, {"time": 208076, "pitch": 35, "duration": 40, "velocity": 90}, {"time": 208076, "pitch": 44, "duration": 30, "velocity": 50}, {"time": 208076, "pitch": 45, "duration": 20, "velocity": 90}, {"time": 208076, "pitch": 54, "duration": 10, "velocity": 39}, {"time": 208315, "pitch": 40, "duration": 20, "velocity": 110}, {"time": 208315, "pitch": 54, "duration": 10, "velocity": 99}, {"time": 208437, "pitch": 40, "duration": 11, "velocity": 90}, {"time": 208560, "pitch": 35, "duration": 41, "velocity": 80}, {"time": 208560, "pitch": 41, "duration": 30, "velocity": 90}, {"time": 208560, "pitch": 44, "duration": 20, "velocity": 50}, {"time": 208560, "pitch": 54, "duration": 10, "velocity": 50}, {"time": 208805, "pitch": 35, "duration": 29, "velocity": 110}, {"time": 208805, "pitch": 49, "duration": 20, "velocity": 60}, {"time": 208805, "pitch": 54, "duration": 10, "velocity": 52}, {"time": 209044, "pitch": 44, "duration": 30, "velocity": 50}, {"time": 209044, "pitch": 51, "duration": 20, "velocity": 60}, {"time": 209044, "pitch": 54, "duration": 10, "velocity": 52}, {"time": 209283, "pitch": 40, "duration": 30, "velocity": 110}, {"time": 209283, "pitch": 51, "duration": 20, "velocity": 50}, {"time": 209283, "pitch": 54, "duration": 10, "velocity": 107}, {"time": 209522, "pitch": 35, "duration": 40, "velocity": 110}, {"time": 209522, "pitch": 44, "duration": 30, "velocity": 50}, {"time": 209522, "pitch": 51, "duration": 20, "velocity": 70}, {"time": 209522, "pitch": 54, "duration": 10, "velocity": 39}, {"time": 209761, "pitch": 51, "duration": 20, "velocity": 60}, {"time": 209761, "pitch": 54, "duration": 10, "velocity": 38}, {"time": 210001, "pitch": 35, "duration": 39, "velocity": 90}, {"time": 210001, "pitch": 44, "duration": 29, "velocity": 50}, {"time": 210001, "pitch": 51, "duration": 20, "velocity": 50}, {"time": 210001, "pitch": 54, "duration": 10, "velocity": 62}, {"time": 210240, "pitch": 40, "duration": 30, "velocity": 110}, {"time": 210240, "pitch": 51, "duration": 20, "velocity": 70}, {"time": 210240, "pitch": 54, "duration": 10, "velocity": 99}, {"time": 210479, "pitch": 35, "duration": 40, "velocity": 110}, {"time": 210479, "pitch": 44, "duration": 30, "velocity": 50}, {"time": 210479, "pitch": 51, "duration": 20, "velocity": 60}, {"time": 210479, "pitch": 54, "duration": 10, "velocity": 62}, {"time": 210718, "pitch": 51, "duration": 20, "velocity": 50}, {"time": 210718, "pitch": 54, "duration": 10, "velocity": 42}, {"time": 210957, "pitch": 35, "duration": 40, "velocity": 90}, {"time": 210957, "pitch": 44, "duration": 30, "velocity": 50}, {"time": 210957, "pitch": 51, "duration": 20, "velocity": 70}, {"time": 210957, "pitch": 54, "duration": 10, "velocity": 60}, {"time": 211197, "pitch": 40, "duration": 29, "velocity": 110}, {"time": 211197, "pitch": 51, "duration": 20, "velocity": 60}, {"time": 211197, "pitch": 54, "duration": 10, "velocity": 99}, {"time": 211436, "pitch": 35, "duration": 40, "velocity": 80}, {"time": 211436, "pitch": 44, "duration": 30, "velocity": 50}, {"time": 211436, "pitch": 51, "duration": 20, "velocity": 50}, {"time": 211436, "pitch": 54, "duration": 10, "velocity": 46}, {"time": 211675, "pitch": 35, "duration": 30, "velocity": 110}, {"time": 211675, "pitch": 51, "duration": 20, "velocity": 70}, {"time": 211675, "pitch": 54, "duration": 10, "velocity": 65}, {"time": 211920, "pitch": 44, "duration": 30, "velocity": 50}, {"time": 211920, "pitch": 51, "duration": 20, "velocity": 60}, {"time": 211920, "pitch": 54, "duration": 10, "velocity": 46}, {"time": 212165, "pitch": 40, "duration": 29, "velocity": 110}, {"time": 212165, "pitch": 51, "duration": 20, "velocity": 50}, {"time": 212165, "pitch": 54, "duration": 10, "velocity": 107}, {"time": 212404, "pitch": 35, "duration": 40, "velocity": 80}, {"time": 212404, "pitch": 44, "duration": 30, "velocity": 50}, {"time": 212404, "pitch": 51, "duration": 20, "velocity": 70}, {"time": 212404, "pitch": 54, "duration": 10, "velocity": 27}, {"time": 212643, "pitch": 35, "duration": 30, "velocity": 110}, {"time": 212643, "pitch": 51, "duration": 20, "velocity": 60}, {"time": 212643, "pitch": 54, "duration": 10, "velocity": 56}, {"time": 212882, "pitch": 44, "duration": 30, "velocity": 50}, {"time": 212882, "pitch": 51, "duration": 20, "velocity": 50}, {"time": 212882, "pitch": 54, "duration": 10, "velocity": 44}, {"time": 213121, "pitch": 40, "duration": 30, "velocity": 110}, {"time": 213121, "pitch": 51, "duration": 20, "velocity": 70}, {"time": 213121, "pitch": 54, "duration": 10, "velocity": 107}, {"time": 213361, "pitch": 35, "duration": 39, "velocity": 90}, {"time": 213361, "pitch": 44, "duration": 29, "velocity": 50}, {"time": 213361, "pitch": 51, "duration": 20, "velocity": 60}, {"time": 213361, "pitch": 54, "duration": 10, "velocity": 18}, {"time": 213600, "pitch": 35, "duration": 30, "velocity": 110}, {"time": 213600, "pitch": 51, "duration": 20, "velocity": 50}, {"time": 213600, "pitch": 54, "duration": 10, "velocity": 67}, {"time": 213839, "pitch": 44, "duration": 30, "velocity": 50}, {"time": 213839, "pitch": 51, "duration": 20, "velocity": 70}, {"time": 213839, "pitch": 54, "duration": 10, "velocity": 60}, {"time": 214078, "pitch": 40, "duration": 30, "velocity": 110}, {"time": 214078, "pitch": 51, "duration": 20, "velocity": 60}, {"time": 214078, "pitch": 54, "duration": 10, "velocity": 102}, {"time": 214317, "pitch": 35, "duration": 40, "velocity": 110}, {"time": 214317, "pitch": 44, "duration": 30, "velocity": 50}, {"time": 214317, "pitch": 51, "duration": 20, "velocity": 50}, {"time": 214317, "pitch": 54, "duration": 10, "velocity": 56}, {"time": 214557, "pitch": 51, "duration": 20, "velocity": 70}, {"time": 214557, "pitch": 54, "duration": 10, "velocity": 58}, {"time": 214796, "pitch": 35, "duration": 40, "velocity": 90}, {"time": 214796, "pitch": 44, "duration": 30, "velocity": 50}, {"time": 214796, "pitch": 51, "duration": 20, "velocity": 60}, {"time": 214796, "pitch": 54, "duration": 10, "velocity": 54}, {"time": 215035, "pitch": 40, "duration": 30, "velocity": 110}, {"time": 215035, "pitch": 51, "duration": 20, "velocity": 50}, {"time": 215035, "pitch": 54, "duration": 10, "velocity": 102}, {"time": 215280, "pitch": 35, "duration": 41, "velocity": 80}, {"time": 215280, "pitch": 44, "duration": 30, "velocity": 50}, {"time": 215280, "pitch": 51, "duration": 20, "velocity": 70}, {"time": 215280, "pitch": 54, "duration": 10, "velocity": 31}, {"time": 215402, "pitch": 40, "duration": 10, "velocity": 40}, {"time": 215525, "pitch": 35, "duration": 29, "velocity": 110}, {"time": 215525, "pitch": 51, "duration": 20, "velocity": 60}, {"time": 215525, "pitch": 54, "duration": 10, "velocity": 78}, {"time": 215644, "pitch": 40, "duration": 10, "velocity": 110}, {"time": 215764, "pitch": 44, "duration": 30, "velocity": 50}, {"time": 215764, "pitch": 51, "duration": 20, "velocity": 50}, {"time": 215764, "pitch": 54, "duration": 10, "velocity": 39}, {"time": 216003, "pitch": 40, "duration": 30, "velocity": 110}, {"time": 216003, "pitch": 51, "duration": 20, "velocity": 70}, {"time": 216003, "pitch": 54, "duration": 10, "velocity": 99}, {"time": 216242, "pitch": 35, "duration": 50, "velocity": 80}, {"time": 216242, "pitch": 40, "duration": 40, "velocity": 80}, {"time": 216242, "pitch": 44, "duration": 30, "velocity": 50}, {"time": 216242, "pitch": 51, "duration": 20, "velocity": 50}, {"time": 216242, "pitch": 54, "duration": 10, "velocity": 50}, {"time": 216362, "pitch": 40, "duration": 10, "velocity": 110}, {"time": 216481, "pitch": 35, "duration": 30, "velocity": 110}, {"time": 216481, "pitch": 54, "duration": 20, "velocity": 52}, {"time": 216481, "pitch": 57, "duration": 10, "velocity": 60}, {"time": 216721, "pitch": 44, "duration": 29, "velocity": 50}, {"time": 216721, "pitch": 51, "duration": 20, "velocity": 60}, {"time": 216721, "pitch": 54, "duration": 10, "velocity": 52}, {"time": 216960, "pitch": 40, "duration": 30, "velocity": 110}, {"time": 216960, "pitch": 51, "duration": 20, "velocity": 50}, {"time": 216960, "pitch": 54, "duration": 10, "velocity": 107}, {"time": 217199, "pitch": 35, "duration": 40, "velocity": 110}, {"time": 217199, "pitch": 44, "duration": 30, "velocity": 50}, {"time": 217199, "pitch": 51, "duration": 20, "velocity": 70}, {"time": 217199, "pitch": 54, "duration": 10, "velocity": 39}, {"time": 217438, "pitch": 51, "duration": 20, "velocity": 60}, {"time": 217438, "pitch": 54, "duration": 10, "velocity": 38}, {"time": 217677, "pitch": 35, "duration": 40, "velocity": 90}, {"time": 217677, "pitch": 44, "duration": 30, "velocity": 50}, {"time": 217677, "pitch": 51, "duration": 20, "velocity": 50}, {"time": 217677, "pitch": 54, "duration": 10, "velocity": 62}, {"time": 217917, "pitch": 40, "duration": 29, "velocity": 110}, {"time": 217917, "pitch": 51, "duration": 20, "velocity": 70}, {"time": 217917, "pitch": 54, "duration": 10, "velocity": 99}, {"time": 218156, "pitch": 35, "duration": 40, "velocity": 110}, {"time": 218156, "pitch": 44, "duration": 30, "velocity": 50}, {"time": 218156, "pitch": 51, "duration": 20, "velocity": 60}, {"time": 218156, "pitch": 54, "duration": 10, "velocity": 62}, {"time": 218395, "pitch": 51, "duration": 20, "velocity": 50}, {"time": 218395, "pitch": 54, "duration": 10, "velocity": 42}, {"time": 218640, "pitch": 35, "duration": 41, "velocity": 90}, {"time": 218640, "pitch": 44, "duration": 30, "velocity": 50}, {"time": 218640, "pitch": 51, "duration": 20, "velocity": 70}, {"time": 218640, "pitch": 54, "duration": 10, "velocity": 60}, {"time": 218885, "pitch": 40, "duration": 29, "velocity": 110}, {"time": 218885, "pitch": 51, "duration": 19, "velocity": 60}, {"time": 218885, "pitch": 54, "duration": 10, "velocity": 99}, {"time": 219124, "pitch": 35, "duration": 40, "velocity": 80}, {"time": 219124, "pitch": 44, "duration": 30, "velocity": 50}, {"time": 219124, "pitch": 51, "duration": 20, "velocity": 50}, {"time": 219124, "pitch": 54, "duration": 10, "velocity": 46}, {"time": 219363, "pitch": 35, "duration": 30, "velocity": 110}, {"time": 219363, "pitch": 51, "duration": 20, "velocity": 70}, {"time": 219363, "pitch": 54, "duration": 10, "velocity": 65}, {"time": 219602, "pitch": 44, "duration": 30, "velocity": 50}, {"time": 219602, "pitch": 51, "duration": 20, "velocity": 60}, {"time": 219602, "pitch": 54, "duration": 10, "velocity": 46}, {"time": 219841, "pitch": 40, "duration": 30, "velocity": 110}, {"time": 219841, "pitch": 51, "duration": 20, "velocity": 50}, {"time": 219841, "pitch": 54, "duration": 10, "velocity": 107}, {"time": 220081, "pitch": 35, "duration": 39, "velocity": 80}, {"time": 220081, "pitch": 44, "duration": 29, "velocity": 50}, {"time": 220081, "pitch": 51, "duration": 20, "velocity": 70}, {"time": 220081, "pitch": 54, "duration": 10, "velocity": 27}, {"time": 220320, "pitch": 35, "duration": 30, "velocity": 110}, {"time": 220320, "pitch": 51, "duration": 20, "velocity": 60}, {"time": 220320, "pitch": 54, "duration": 10, "velocity": 56}, {"time": 220559, "pitch": 44, "duration": 30, "velocity": 50}, {"time": 220559, "pitch": 51, "duration": 20, "velocity": 50}, {"time": 220559, "pitch": 54, "duration": 10, "velocity": 44}, {"time": 220798, "pitch": 40, "duration": 30, "velocity": 110}, {"time": 220798, "pitch": 51, "duration": 20, "velocity": 70}, {"time": 220798, "pitch": 54, "duration": 10, "velocity": 107}, {"time": 221037, "pitch": 35, "duration": 40, "velocity": 90}, {"time": 221037, "pitch": 44, "duration": 30, "velocity": 50}, {"time": 221037, "pitch": 51, "duration": 20, "velocity": 60}, {"time": 221037, "pitch": 54, "duration": 10, "velocity": 18}, {"time": 221277, "pitch": 35, "duration": 29, "velocity": 110}, {"time": 221277, "pitch": 51, "duration": 20, "velocity": 50}, {"time": 221277, "pitch": 54, "duration": 10, "velocity": 67}, {"time": 221516, "pitch": 44, "duration": 30, "velocity": 50}, {"time": 221516, "pitch": 51, "duration": 20, "velocity": 70}, {"time": 221516, "pitch": 54, "duration": 10, "velocity": 60}, {"time": 221755, "pitch": 40, "duration": 30, "velocity": 110}, {"time": 221755, "pitch": 51, "duration": 20, "velocity": 60}, {"time": 221755, "pitch": 54, "duration": 10, "velocity": 102}, {"time": 222000, "pitch": 35, "duration": 41, "velocity": 110}, {"time": 222000, "pitch": 44, "duration": 30, "velocity": 50}, {"time": 222000, "pitch": 49, "duration": 20, "velocity": 60}, {"time": 222000, "pitch": 54, "duration": 10, "velocity": 56}, {"time": 222224, "pitch": 40, "duration": 10, "velocity": 80}, {"time": 222245, "pitch": 40, "duration": 29, "velocity": 110}, {"time": 222245, "pitch": 51, "duration": 19, "velocity": 70}, {"time": 222245, "pitch": 54, "duration": 10, "velocity": 58}, {"time": 222484, "pitch": 35, "duration": 40, "velocity": 90}, {"time": 222484, "pitch": 44, "duration": 30, "velocity": 50}, {"time": 222484, "pitch": 51, "duration": 20, "velocity": 60}, {"time": 222484, "pitch": 54, "duration": 10, "velocity": 54}, {"time": 222703, "pitch": 40, "duration": 10, "velocity": 80}, {"time": 222723, "pitch": 40, "duration": 30, "velocity": 110}, {"time": 222723, "pitch": 51, "duration": 20, "velocity": 50}, {"time": 222723, "pitch": 54, "duration": 10, "velocity": 102}, {"time": 222962, "pitch": 35, "duration": 40, "velocity": 110}, {"time": 222962, "pitch": 44, "duration": 30, "velocity": 50}, {"time": 222962, "pitch": 54, "duration": 20, "velocity": 31}, {"time": 222962, "pitch": 57, "duration": 10, "velocity": 60}, {"time": 223181, "pitch": 40, "duration": 10, "velocity": 80}, {"time": 223201, "pitch": 40, "duration": 20, "velocity": 110}, {"time": 223201, "pitch": 54, "duration": 10, "velocity": 78}, {"time": 223441, "pitch": 35, "duration": 29, "velocity": 90}, {"time": 223441, "pitch": 44, "duration": 20, "velocity": 50}, {"time": 223441, "pitch": 54, "duration": 10, "velocity": 39}, {"time": 223680, "pitch": 40, "duration": 20, "velocity": 110}, {"time": 223680, "pitch": 54, "duration": 10, "velocity": 99}, {"time": 223799, "pitch": 40, "duration": 10, "velocity": 90}, {"time": 223919, "pitch": 35, "duration": 40, "velocity": 80}, {"time": 223919, "pitch": 44, "duration": 30, "velocity": 50}, {"time": 223919, "pitch": 45, "duration": 20, "velocity": 90}, {"time": 223919, "pitch": 54, "duration": 10, "velocity": 50}, {"time": 224158, "pitch": 35, "duration": 40, "velocity": 110}, {"time": 224158, "pitch": 42, "duration": 30, "velocity": 80}, {"time": 224158, "pitch": 49, "duration": 20, "velocity": 60}, {"time": 224158, "pitch": 54, "duration": 10, "velocity": 52}, {"time": 224397, "pitch": 42, "duration": 20, "velocity": 60}, {"time": 224397, "pitch": 54, "duration": 10, "velocity": 52}, {"time": 224637, "pitch": 40, "duration": 29, "velocity": 110}, {"time": 224637, "pitch": 42, "duration": 20, "velocity": 80}, {"time": 224637, "pitch": 54, "duration": 10, "velocity": 107}, {"time": 224876, "pitch": 35, "duration": 30, "velocity": 90}, {"time": 224876, "pitch": 42, "duration": 20, "velocity": 60}, {"time": 224876, "pitch": 54, "duration": 10, "velocity": 39}, {"time": 225115, "pitch": 35, "duration": 30, "velocity": 110}, {"time": 225115, "pitch": 42, "duration": 20, "velocity": 80}, {"time": 225115, "pitch": 54, "duration": 10, "velocity": 38}, {"time": 225360, "pitch": 42, "duration": 20, "velocity": 60}, {"time": 225360, "pitch": 54, "duration": 10, "velocity": 62}, {"time": 225605, "pitch": 40, "duration": 29, "velocity": 110}, {"time": 225605, "pitch": 42, "duration": 19, "velocity": 80}, {"time": 225605, "pitch": 54, "duration": 10, "velocity": 99}, {"time": 225844, "pitch": 35, "duration": 30, "velocity": 110}, {"time": 225844, "pitch": 42, "duration": 20, "velocity": 60}, {"time": 225844, "pitch": 54, "duration": 10, "velocity": 62}, {"time": 226083, "pitch": 42, "duration": 20, "velocity": 80}, {"time": 226083, "pitch": 54, "duration": 10, "velocity": 42}, {"time": 226322, "pitch": 35, "duration": 30, "velocity": 90}, {"time": 226322, "pitch": 42, "duration": 20, "velocity": 60}, {"time": 226322, "pitch": 54, "duration": 10, "velocity": 60}, {"time": 226561, "pitch": 40, "duration": 30, "velocity": 110}, {"time": 226561, "pitch": 42, "duration": 20, "velocity": 80}, {"time": 226561, "pitch": 54, "duration": 10, "velocity": 99}, {"time": 226801, "pitch": 35, "duration": 29, "velocity": 80}, {"time": 226801, "pitch": 42, "duration": 20, "velocity": 60}, {"time": 226801, "pitch": 54, "duration": 10, "velocity": 46}, {"time": 227040, "pitch": 35, "duration": 30, "velocity": 110}, {"time": 227040, "pitch": 42, "duration": 20, "velocity": 80}, {"time": 227040, "pitch": 54, "duration": 10, "velocity": 65}, {"time": 227279, "pitch": 42, "duration": 20, "velocity": 60}, {"time": 227279, "pitch": 54, "duration": 10, "velocity": 46}, {"time": 227518, "pitch": 40, "duration": 30, "velocity": 110}, {"time": 227518, "pitch": 42, "duration": 20, "velocity": 80}, {"time": 227518, "pitch": 54, "duration": 10, "velocity": 107}, {"time": 227757, "pitch": 35, "duration": 30, "velocity": 80}, {"time": 227757, "pitch": 42, "duration": 20, "velocity": 60}, {"time": 227757, "pitch": 54, "duration": 10, "velocity": 27}, {"time": 227997, "pitch": 35, "duration": 29, "velocity": 110}, {"time": 227997, "pitch": 42, "duration": 20, "velocity": 80}, {"time": 227997, "pitch": 54, "duration": 10, "velocity": 56}, {"time": 228236, "pitch": 42, "duration": 20, "velocity": 60}, {"time": 228236, "pitch": 54, "duration": 10, "velocity": 44}, {"time": 228475, "pitch": 40, "duration": 30, "velocity": 110}, {"time": 228475, "pitch": 42, "duration": 20, "velocity": 80}, {"time": 228475, "pitch": 54, "duration": 10, "velocity": 107}, {"time": 228720, "pitch": 35, "duration": 30, "velocity": 90}, {"time": 228720, "pitch": 42, "duration": 20, "velocity": 60}, {"time": 228720, "pitch": 54, "duration": 10, "velocity": 18}, {"time": 228965, "pitch": 35, "duration": 29, "velocity": 110}, {"time": 228965, "pitch": 42, "duration": 19, "velocity": 80}, {"time": 228965, "pitch": 54, "duration": 10, "velocity": 67}, {"time": 229204, "pitch": 42, "duration": 20, "velocity": 60}, {"time": 229204, "pitch": 54, "duration": 10, "velocity": 60}, {"time": 229443, "pitch": 40, "duration": 30, "velocity": 110}, {"time": 229443, "pitch": 42, "duration": 20, "velocity": 80}, {"time": 229443, "pitch": 54, "duration": 10, "velocity": 102}, {"time": 229682, "pitch": 35, "duration": 30, "velocity": 110}, {"time": 229682, "pitch": 42, "duration": 20, "velocity": 60}, {"time": 229682, "pitch": 54, "duration": 10, "velocity": 56}, {"time": 229921, "pitch": 42, "duration": 20, "velocity": 80}, {"time": 229921, "pitch": 54, "duration": 10, "velocity": 58}, {"time": 230161, "pitch": 35, "duration": 29, "velocity": 90}, {"time": 230161, "pitch": 42, "duration": 20, "velocity": 60}, {"time": 230161, "pitch": 54, "duration": 10, "velocity": 54}, {"time": 230400, "pitch": 40, "duration": 30, "velocity": 110}, {"time": 230400, "pitch": 42, "duration": 20, "velocity": 80}, {"time": 230400, "pitch": 54, "duration": 10, "velocity": 102}, {"time": 230639, "pitch": 35, "duration": 30, "velocity": 80}, {"time": 230639, "pitch": 42, "duration": 20, "velocity": 60}, {"time": 230639, "pitch": 54, "duration": 10, "velocity": 31}, {"time": 230878, "pitch": 35, "duration": 30, "velocity": 110}, {"time": 230878, "pitch": 42, "duration": 20, "velocity": 80}, {"time": 230878, "pitch": 54, "duration": 10, "velocity": 78}, {"time": 231117, "pitch": 46, "duration": 20, "velocity": 60}, {"time": 231117, "pitch": 54, "duration": 10, "velocity": 39}, {"time": 231357, "pitch": 40, "duration": 29, "velocity": 110}, {"time": 231357, "pitch": 42, "duration": 20, "velocity": 80}, {"time": 231357, "pitch": 54, "duration": 10, "velocity": 99}, {"time": 231476, "pitch": 40, "duration": 10, "velocity": 90}, {"time": 231596, "pitch": 35, "duration": 40, "velocity": 80}, {"time": 231596, "pitch": 42, "duration": 30, "velocity": 60}, {"time": 231596, "pitch": 45, "duration": 20, "velocity": 90}, {"time": 231596, "pitch": 54, "duration": 10, "velocity": 50}, {"time": 231835, "pitch": 35, "duration": 41, "velocity": 110}, {"time": 231835, "pitch": 42, "duration": 30, "velocity": 80}, {"time": 231835, "pitch": 54, "duration": 20, "velocity": 58}, {"time": 231835, "pitch": 57, "duration": 10, "velocity": 60}, {"time": 232080, "pitch": 42, "duration": 20, "velocity": 60}, {"time": 232080, "pitch": 54, "duration": 10, "velocity": 48}, {"time": 232325, "pitch": 40, "duration": 29, "velocity": 110}, {"time": 232325, "pitch": 42, "duration": 19, "velocity": 80}, {"time": 232325, "pitch": 54, "duration": 10, "velocity": 99}, {"time": 232564, "pitch": 35, "duration": 30, "velocity": 90}, {"time": 232564, "pitch": 42, "duration": 20, "velocity": 60}, {"time": 232564, "pitch": 54, "duration": 10, "velocity": 48}, {"time": 232803, "pitch": 35, "duration": 30, "velocity": 110}, {"time": 232803, "pitch": 42, "duration": 20, "velocity": 80}, {"time": 232803, "pitch": 54, "duration": 10, "velocity": 52}, {"time": 233042, "pitch": 42, "duration": 20, "velocity": 60}, {"time": 233042, "pitch": 54, "duration": 10, "velocity": 44}, {"time": 233281, "pitch": 40, "duration": 30, "velocity": 110}, {"time": 233281, "pitch": 42, "duration": 20, "velocity": 80}, {"time": 233281, "pitch": 54, "duration": 10, "velocity": 102}, {"time": 233521, "pitch": 35, "duration": 29, "velocity": 110}, {"time": 233521, "pitch": 42, "duration": 19, "velocity": 60}, {"time": 233521, "pitch": 54, "duration": 10, "velocity": 58}, {"time": 233760, "pitch": 42, "duration": 20, "velocity": 80}, {"time": 233760, "pitch": 54, "duration": 10, "velocity": 50}, {"time": 233999, "pitch": 35, "duration": 30, "velocity": 90}, {"time": 233999, "pitch": 42, "duration": 20, "velocity": 60}, {"time": 233999, "pitch": 54, "duration": 10, "velocity": 60}, {"time": 234238, "pitch": 40, "duration": 30, "velocity": 110}, {"time": 234238, "pitch": 42, "duration": 20, "velocity": 80}, {"time": 234238, "pitch": 54, "duration": 10, "velocity": 96}, {"time": 234477, "pitch": 35, "duration": 30, "velocity": 80}, {"time": 234477, "pitch": 42, "duration": 20, "velocity": 60}, {"time": 234477, "pitch": 54, "duration": 10, "velocity": 32}, {"time": 234717, "pitch": 35, "duration": 29, "velocity": 110}, {"time": 234717, "pitch": 42, "duration": 20, "velocity": 80}, {"time": 234717, "pitch": 54, "duration": 10, "velocity": 60}, {"time": 234956, "pitch": 42, "duration": 20, "velocity": 60}, {"time": 234956, "pitch": 54, "duration": 10, "velocity": 46}, {"time": 235195, "pitch": 40, "duration": 30, "velocity": 110}, {"time": 235195, "pitch": 42, "duration": 20, "velocity": 80}, {"time": 235195, "pitch": 54, "duration": 10, "velocity": 107}, {"time": 235440, "pitch": 35, "duration": 30, "velocity": 80}, {"time": 235440, "pitch": 42, "duration": 20, "velocity": 60}, {"time": 235440, "pitch": 54, "duration": 10, "velocity": 43}, {"time": 235685, "pitch": 35, "duration": 29, "velocity": 110}, {"time": 235685, "pitch": 42, "duration": 19, "velocity": 80}, {"time": 235685, "pitch": 54, "duration": 10, "velocity": 60}, {"time": 235924, "pitch": 42, "duration": 20, "velocity": 60}, {"time": 235924, "pitch": 54, "duration": 10, "velocity": 52}, {"time": 236163, "pitch": 40, "duration": 30, "velocity": 110}, {"time": 236163, "pitch": 42, "duration": 20, "velocity": 80}, {"time": 236163, "pitch": 54, "duration": 10, "velocity": 102}, {"time": 236402, "pitch": 35, "duration": 30, "velocity": 90}, {"time": 236402, "pitch": 42, "duration": 20, "velocity": 60}, {"time": 236402, "pitch": 54, "duration": 10, "velocity": 35}, {"time": 236641, "pitch": 40, "duration": 30, "velocity": 110}, {"time": 236641, "pitch": 42, "duration": 20, "velocity": 80}, {"time": 236641, "pitch": 54, "duration": 10, "velocity": 78}, {"time": 236881, "pitch": 42, "duration": 29, "velocity": 60}, {"time": 236881, "pitch": 45, "duration": 19, "velocity": 90}, {"time": 236881, "pitch": 54, "duration": 10, "velocity": 43}, {"time": 237120, "pitch": 41, "duration": 30, "velocity": 90}, {"time": 237120, "pitch": 42, "duration": 20, "velocity": 80}, {"time": 237120, "pitch": 54, "duration": 10, "velocity": 87}, {"time": 237359, "pitch": 35, "duration": 40, "velocity": 110}, {"time": 237359, "pitch": 42, "duration": 30, "velocity": 60}, {"time": 237359, "pitch": 49, "duration": 20, "velocity": 60}, {"time": 237359, "pitch": 54, "duration": 10, "velocity": 82}, {"time": 237598, "pitch": 42, "duration": 10, "velocity": 80}, {"time": 237837, "pitch": 35, "duration": 20, "velocity": 90}, {"time": 237837, "pitch": 42, "duration": 10, "velocity": 60}, {"time": 238077, "pitch": 40, "duration": 39, "velocity": 110}, {"time": 238077, "pitch": 42, "duration": 29, "velocity": 80}, {"time": 238077, "pitch": 54, "duration": 20, "velocity": 100}, {"time": 238077, "pitch": 57, "duration": 10, "velocity": 60}, {"time": 238136, "pitch": 54, "duration": 10, "velocity": 96}, {"time": 238196, "pitch": 54, "duration": 10, "velocity": 92}, {"time": 238256, "pitch": 54, "duration": 10, "velocity": 87}, {"time": 238316, "pitch": 44, "duration": 20, "velocity": 60}, {"time": 238316, "pitch": 54, "duration": 10, "velocity": 83}, {"time": 238376, "pitch": 54, "duration": 10, "velocity": 78}, {"time": 238435, "pitch": 54, "duration": 10, "velocity": 74}, {"time": 238495, "pitch": 54, "duration": 10, "velocity": 69}, {"time": 238555, "pitch": 54, "duration": 10, "velocity": 65}, {"time": 238616, "pitch": 54, "duration": 10, "velocity": 61}, {"time": 238677, "pitch": 54, "duration": 11, "velocity": 56}, {"time": 238739, "pitch": 54, "duration": 10, "velocity": 52}, {"time": 238800, "pitch": 44, "duration": 20, "velocity": 60}, {"time": 238800, "pitch": 45, "duration": 20, "velocity": 60}, {"time": 238800, "pitch": 54, "duration": 10, "velocity": 47}, {"time": 238820, "pitch": 41, "duration": 10, "velocity": 60}, {"time": 238861, "pitch": 54, "duration": 10, "velocity": 43}, {"time": 238922, "pitch": 54, "duration": 10, "velocity": 38}, {"time": 238983, "pitch": 54, "duration": 11, "velocity": 34}, {"time": 239045, "pitch": 45, "duration": 19, "velocity": 75}, {"time": 239045, "pitch": 54, "duration": 10, "velocity": 30}, {"time": 239064, "pitch": 41, "duration": 10, "velocity": 75}, {"time": 239104, "pitch": 54, "duration": 10, "velocity": 25}, {"time": 239164, "pitch": 54, "duration": 10, "velocity": 21}, {"time": 239224, "pitch": 54, "duration": 10, "velocity": 16}, {"time": 239284, "pitch": 35, "duration": 30, "velocity": 80}, {"time": 239284, "pitch": 49, "duration": 20, "velocity": 60}, {"time": 239284, "pitch": 54, "duration": 10, "velocity": 12}, {"time": 239344, "pitch": 54, "duration": 10, "velocity": 7}, {"time": 239403, "pitch": 54, "duration": 10, "velocity": 3}, {"time": 241437, "pitch": 35, "duration": 29, "velocity": 80}, {"time": 241437, "pitch": 49, "duration": 20, "velocity": 60}, {"time": 241437, "pitch": 57, "duration": 10, "velocity": 60}, {"time": 132481, "pitch": 76, "duration": 110, "velocity": 90}, {"time": 132960, "pitch": 81, "duration": 110, "velocity": 100}, {"time": 133199, "pitch": 85, "duration": 110, "velocity": 95}, {"time": 133677, "pitch": 88, "duration": 110, "velocity": 100}, {"time": 136320, "pitch": 78, "duration": 109, "velocity": 90}, {"time": 136798, "pitch": 83, "duration": 110, "velocity": 100}, {"time": 137037, "pitch": 86, "duration": 110, "velocity": 95}, {"time": 137516, "pitch": 89, "duration": 110, "velocity": 100}, {"time": 140158, "pitch": 76, "duration": 110, "velocity": 90}, {"time": 140637, "pitch": 80, "duration": 109, "velocity": 100}, {"time": 140876, "pitch": 83, "duration": 110, "velocity": 95}, {"time": 141360, "pitch": 88, "duration": 112, "velocity": 100}, {"time": 143997, "pitch": 78, "duration": 109, "velocity": 90}, {"time": 144475, "pitch": 81, "duration": 112, "velocity": 100}, {"time": 144720, "pitch": 86, "duration": 112, "velocity": 95}, {"time": 145204, "pitch": 90, "duration": 109, "velocity": 100}, {"time": 147835, "pitch": 76, "duration": 112, "velocity": 90}, {"time": 148325, "pitch": 81, "duration": 109, "velocity": 100}, {"time": 148564, "pitch": 85, "duration": 109, "velocity": 95}, {"time": 149042, "pitch": 88, "duration": 110, "velocity": 100}, {"time": 151685, "pitch": 78, "duration": 109, "velocity": 90}, {"time": 152163, "pitch": 83, "duration": 110, "velocity": 100}, {"time": 152402, "pitch": 86, "duration": 110, "velocity": 95}, {"time": 152881, "pitch": 89, "duration": 109, "velocity": 100}, {"time": 155523, "pitch": 76, "duration": 110, "velocity": 90}, {"time": 156001, "pitch": 80, "duration": 110, "velocity": 100}, {"time": 156241, "pitch": 83, "duration": 109, "velocity": 95}, {"time": 156719, "pitch": 88, "duration": 110, "velocity": 100}, {"time": 159361, "pitch": 78, "duration": 110, "velocity": 90}, {"time": 159840, "pitch": 81, "duration": 109, "velocity": 100}, {"time": 160079, "pitch": 86, "duration": 110, "velocity": 95}, {"time": 160557, "pitch": 90, "duration": 110, "velocity": 100}, {"time": 193918, "pitch": 76, "duration": 110, "velocity": 90}, {"time": 194397, "pitch": 81, "duration": 109, "velocity": 100}, {"time": 194636, "pitch": 85, "duration": 109, "velocity": 95}, {"time": 195120, "pitch": 88, "duration": 112, "velocity": 100}, {"time": 197757, "pitch": 78, "duration": 109, "velocity": 90}, {"time": 198235, "pitch": 83, "duration": 112, "velocity": 100}, {"time": 198480, "pitch": 86, "duration": 112, "velocity": 95}, {"time": 198964, "pitch": 89, "duration": 109, "velocity": 100}, {"time": 201595, "pitch": 76, "duration": 112, "velocity": 90}, {"time": 202085, "pitch": 80, "duration": 109, "velocity": 100}, {"time": 202324, "pitch": 83, "duration": 109, "velocity": 95}, {"time": 202802, "pitch": 88, "duration": 110, "velocity": 100}, {"time": 205445, "pitch": 78, "duration": 109, "velocity": 90}, {"time": 205923, "pitch": 81, "duration": 110, "velocity": 100}, {"time": 206162, "pitch": 86, "duration": 110, "velocity": 95}, {"time": 206641, "pitch": 90, "duration": 109, "velocity": 100}, {"time": 209283, "pitch": 76, "duration": 110, "velocity": 90}, {"time": 209761, "pitch": 81, "duration": 110, "velocity": 100}, {"time": 210001, "pitch": 85, "duration": 109, "velocity": 95}, {"time": 210479, "pitch": 88, "duration": 110, "velocity": 100}, {"time": 213121, "pitch": 78, "duration": 110, "velocity": 90}, {"time": 213600, "pitch": 83, "duration": 109, "velocity": 100}, {"time": 213839, "pitch": 86, "duration": 110, "velocity": 95}, {"time": 214317, "pitch": 89, "duration": 110, "velocity": 100}, {"time": 216960, "pitch": 76, "duration": 109, "velocity": 90}, {"time": 217438, "pitch": 80, "duration": 110, "velocity": 100}, {"time": 217677, "pitch": 83, "duration": 110, "velocity": 95}, {"time": 218156, "pitch": 88, "duration": 109, "velocity": 100}, {"time": 220798, "pitch": 78, "duration": 110, "velocity": 90}, {"time": 221277, "pitch": 81, "duration": 109, "velocity": 100}, {"time": 221516, "pitch": 86, "duration": 109, "velocity": 95}, {"time": 222000, "pitch": 90, "duration": 112, "velocity": 100}, {"time": 162004, "pitch": 62, "duration": 239, "velocity": 110}, {"time": 162243, "pitch": 62, "duration": 120, "velocity": 100}, {"time": 162363, "pitch": 60, "duration": 119, "velocity": 80}, {"time": 162482, "pitch": 57, "duration": 120, "velocity": 100}, {"time": 162721, "pitch": 60, "duration": 549, "velocity": 110}, {"time": 163439, "pitch": 52, "duration": 160, "velocity": 90}, {"time": 163678, "pitch": 55, "duration": 479, "velocity": 95}, {"time": 164157, "pitch": 57, "duration": 119, "velocity": 100}, {"time": 164396, "pitch": 52, "duration": 484, "velocity": 90}, {"time": 164880, "pitch": 55, "duration": 245, "velocity": 85}, {"time": 165125, "pitch": 57, "duration": 119, "velocity": 95}, {"time": 165364, "pitch": 52, "duration": 119, "velocity": 80}, {"time": 165603, "pitch": 55, "duration": 478, "velocity": 90}, {"time": 166081, "pitch": 57, "duration": 120, "velocity": 95}, {"time": 166321, "pitch": 60, "duration": 478, "velocity": 100}, {"time": 166799, "pitch": 61, "duration": 239, "velocity": 80}, {"time": 167038, "pitch": 62, "duration": 239, "velocity": 90}, {"time": 167277, "pitch": 62, "duration": 718, "velocity": 105}, {"time": 167995, "pitch": 60, "duration": 245, "velocity": 105}, {"time": 168240, "pitch": 57, "duration": 843, "velocity": 100}, {"time": 169202, "pitch": 64, "duration": 239, "velocity": 100}, {"time": 169441, "pitch": 67, "duration": 240, "velocity": 105}, {"time": 169681, "pitch": 64, "duration": 119, "velocity": 90}, {"time": 169920, "pitch": 67, "duration": 239, "velocity": 105}, {"time": 170159, "pitch": 69, "duration": 219, "velocity": 95}, {"time": 170398, "pitch": 72, "duration": 479, "velocity": 110}, {"time": 170877, "pitch": 69, "duration": 119, "velocity": 100}, {"time": 171116, "pitch": 74, "duration": 729, "velocity": 110}, {"time": 171845, "pitch": 69, "duration": 239, "velocity": 95}, {"time": 172084, "pitch": 69, "duration": 508, "velocity": 105}, {"time": 172801, "pitch": 66, "duration": 240, "velocity": 105}, {"time": 173041, "pitch": 69, "duration": 159, "velocity": 100}, {"time": 173280, "pitch": 78, "duration": 239, "velocity": 110}, {"time": 173519, "pitch": 77, "duration": 159, "velocity": 100}, {"time": 173758, "pitch": 76, "duration": 160, "velocity": 105}, {"time": 173997, "pitch": 74, "duration": 479, "velocity": 100}, {"time": 174476, "pitch": 72, "duration": 239, "velocity": 90}, {"time": 174715, "pitch": 74, "duration": 245, "velocity": 110}, {"time": 174960, "pitch": 69, "duration": 245, "velocity": 95}, {"time": 175205, "pitch": 72, "duration": 119, "velocity": 95}, {"time": 175444, "pitch": 72, "duration": 359, "velocity": 100}, {"time": 175803, "pitch": 69, "duration": 119, "velocity": 90}, {"time": 175922, "pitch": 66, "duration": 120, "velocity": 95}, {"time": 176161, "pitch": 69, "duration": 1645, "velocity": 95}, {"time": 1442, "pitch": 69, "duration": 239, "velocity": 100}, {"time": 1681, "pitch": 66, "duration": 239, "velocity": 95}, {"time": 1920, "pitch": 64, "duration": 239, "velocity": 90}, {"time": 2159, "pitch": 69, "duration": 479, "velocity": 100}, {"time": 2638, "pitch": 66, "duration": 239, "velocity": 90}, {"time": 2877, "pitch": 64, "duration": 239, "velocity": 95}, {"time": 3116, "pitch": 71, "duration": 199, "velocity": 100}, {"time": 3600, "pitch": 71, "duration": 484, "velocity": 100}, {"time": 4084, "pitch": 69, "duration": 239, "velocity": 90}, {"time": 4323, "pitch": 71, "duration": 479, "velocity": 100}, {"time": 4802, "pitch": 69, "duration": 239, "velocity": 90}, {"time": 5280, "pitch": 69, "duration": 239, "velocity": 100}, {"time": 5519, "pitch": 66, "duration": 239, "velocity": 95}, {"time": 5758, "pitch": 64, "duration": 240, "velocity": 90}, {"time": 5998, "pitch": 69, "duration": 478, "velocity": 100}, {"time": 6476, "pitch": 66, "duration": 239, "velocity": 90}, {"time": 6715, "pitch": 64, "duration": 245, "velocity": 95}, {"time": 6960, "pitch": 71, "duration": 204, "velocity": 100}, {"time": 7444, "pitch": 71, "duration": 478, "velocity": 100}, {"time": 7922, "pitch": 69, "duration": 240, "velocity": 90}, {"time": 8162, "pitch": 66, "duration": 478, "velocity": 100}, {"time": 8640, "pitch": 69, "duration": 239, "velocity": 90}, {"time": 9118, "pitch": 69, "duration": 240, "velocity": 100}, {"time": 9358, "pitch": 66, "duration": 239, "velocity": 95}, {"time": 9597, "pitch": 64, "duration": 239, "velocity": 90}, {"time": 9836, "pitch": 69, "duration": 484, "velocity": 100}, {"time": 10320, "pitch": 66, "duration": 245, "velocity": 90}, {"time": 10565, "pitch": 64, "duration": 239, "velocity": 95}, {"time": 10804, "pitch": 71, "duration": 199, "velocity": 100}, {"time": 11282, "pitch": 71, "duration": 479, "velocity": 100}, {"time": 11761, "pitch": 69, "duration": 239, "velocity": 90}, {"time": 12000, "pitch": 71, "duration": 478, "velocity": 100}, {"time": 12478, "pitch": 69, "duration": 240, "velocity": 90}, {"time": 12957, "pitch": 69, "duration": 239, "velocity": 100}, {"time": 13196, "pitch": 66, "duration": 239, "velocity": 95}, {"time": 13435, "pitch": 64, "duration": 245, "velocity": 90}, {"time": 13680, "pitch": 69, "duration": 484, "velocity": 100}, {"time": 14164, "pitch": 66, "duration": 239, "velocity": 90}, {"time": 14403, "pitch": 64, "duration": 239, "velocity": 95}, {"time": 14642, "pitch": 69, "duration": 279, "velocity": 100}, {"time": 15360, "pitch": 71, "duration": 1146, "velocity": 100}, {"time": 93597, "pitch": 69, "duration": 239, "velocity": 100}, {"time": 93836, "pitch": 66, "duration": 239, "velocity": 95}, {"time": 94075, "pitch": 64, "duration": 245, "velocity": 90}, {"time": 94320, "pitch": 69, "duration": 484, "velocity": 100}, {"time": 94804, "pitch": 66, "duration": 239, "velocity": 90}, {"time": 95043, "pitch": 64, "duration": 239, "velocity": 95}, {"time": 95282, "pitch": 71, "duration": 200, "velocity": 100}, {"time": 95761, "pitch": 71, "duration": 478, "velocity": 100}, {"time": 96239, "pitch": 69, "duration": 239, "velocity": 90}, {"time": 96478, "pitch": 71, "duration": 479, "velocity": 100}, {"time": 96957, "pitch": 69, "duration": 239, "velocity": 90}, {"time": 97435, "pitch": 69, "duration": 245, "velocity": 100}, {"time": 97680, "pitch": 66, "duration": 245, "velocity": 95}, {"time": 97925, "pitch": 64, "duration": 239, "velocity": 90}, {"time": 98164, "pitch": 69, "duration": 478, "velocity": 100}, {"time": 98642, "pitch": 66, "duration": 239, "velocity": 90}, {"time": 98881, "pitch": 64, "duration": 240, "velocity": 95}, {"time": 99121, "pitch": 69, "duration": 279, "velocity": 100}, {"time": 99838, "pitch": 71, "duration": 1151, "velocity": 100}, {"time": 224158, "pitch": 69, "duration": 239, "velocity": 100}, {"time": 224397, "pitch": 66, "duration": 240, "velocity": 95}, {"time": 224637, "pitch": 64, "duration": 239, "velocity": 90}, {"time": 224876, "pitch": 69, "duration": 484, "velocity": 100}, {"time": 225360, "pitch": 66, "duration": 245, "velocity": 90}, {"time": 225605, "pitch": 64, "duration": 239, "velocity": 95}, {"time": 225844, "pitch": 71, "duration": 199, "velocity": 100}, {"time": 226322, "pitch": 71, "duration": 479, "velocity": 100}, {"time": 226801, "pitch": 69, "duration": 239, "velocity": 90}, {"time": 227040, "pitch": 71, "duration": 478, "velocity": 100}, {"time": 227518, "pitch": 69, "duration": 239, "velocity": 90}, {"time": 227997, "pitch": 69, "duration": 239, "velocity": 100}, {"time": 228236, "pitch": 66, "duration": 239, "velocity": 95}, {"time": 228475, "pitch": 64, "duration": 245, "velocity": 90}, {"time": 228720, "pitch": 69, "duration": 484, "velocity": 100}, {"time": 229204, "pitch": 66, "duration": 239, "velocity": 90}, {"time": 229443, "pitch": 64, "duration": 239, "velocity": 95}, {"time": 229682, "pitch": 71, "duration": 199, "velocity": 100}, {"time": 230161, "pitch": 71, "duration": 478, "velocity": 100}, {"time": 230639, "pitch": 69, "duration": 239, "velocity": 90}, {"time": 230878, "pitch": 66, "duration": 479, "velocity": 100}, {"time": 231357, "pitch": 69, "duration": 239, "velocity": 90}, {"time": 231835, "pitch": 69, "duration": 245, "velocity": 100}, {"time": 232080, "pitch": 66, "duration": 245, "velocity": 95}, {"time": 232325, "pitch": 64, "duration": 239, "velocity": 90}, {"time": 232564, "pitch": 69, "duration": 478, "velocity": 100}, {"time": 233042, "pitch": 66, "duration": 239, "velocity": 90}, {"time": 233281, "pitch": 64, "duration": 240, "velocity": 95}, {"time": 233521, "pitch": 71, "duration": 199, "velocity": 100}, {"time": 233999, "pitch": 71, "duration": 478, "velocity": 100}, {"time": 234477, "pitch": 69, "duration": 240, "velocity": 90}, {"time": 234717, "pitch": 71, "duration": 478, "velocity": 100}, {"time": 235195, "pitch": 69, "duration": 245, "velocity": 90}, {"time": 235685, "pitch": 69, "duration": 239, "velocity": 100}, {"time": 235924, "pitch": 66, "duration": 239, "velocity": 95}, {"time": 236163, "pitch": 64, "duration": 239, "velocity": 90}, {"time": 236402, "pitch": 69, "duration": 479, "velocity": 100}, {"time": 236881, "pitch": 66, "duration": 239, "velocity": 90}, {"time": 237120, "pitch": 64, "duration": 239, "velocity": 95}, {"time": 237359, "pitch": 69, "duration": 279, "velocity": 100}, {"time": 238067, "pitch": 66, "duration": 1157, "velocity": 90}, {"time": 238077, "pitch": 71, "duration": 1157, "velocity": 100}, {"time": 239284, "pitch": 70, "duration": 2073, "velocity": 100}, {"time": 239294, "pitch": 75, "duration": 1216, "velocity": 105}, {"time": 241357, "pitch": 66, "duration": 1606, "velocity": 50}, {"time": 241357, "pitch": 69, "duration": 1606, "velocity": 70}, {"time": 241367, "pitch": 73, "duration": 1596, "velocity": 95}, {"time": 242993, "pitch": 52, "duration": 817, "velocity": 85}, {"time": 243770, "pitch": 45, "duration": 5323, "velocity": 80}, {"time": 1442, "pitch": 81, "duration": 239, "velocity": 110}, {"time": 1681, "pitch": 78, "duration": 239, "velocity": 105}, {"time": 1920, "pitch": 76, "duration": 239, "velocity": 100}, {"time": 2159, "pitch": 81, "duration": 479, "velocity": 110}, {"time": 2638, "pitch": 78, "duration": 239, "velocity": 100}, {"time": 2877, "pitch": 76, "duration": 239, "velocity": 105}, {"time": 3116, "pitch": 83, "duration": 199, "velocity": 110}, {"time": 3600, "pitch": 83, "duration": 484, "velocity": 110}, {"time": 4084, "pitch": 81, "duration": 239, "velocity": 100}, {"time": 4323, "pitch": 83, "duration": 479, "velocity": 110}, {"time": 4802, "pitch": 81, "duration": 239, "velocity": 100}, {"time": 5280, "pitch": 81, "duration": 239, "velocity": 110}, {"time": 5519, "pitch": 78, "duration": 239, "velocity": 105}, {"time": 5758, "pitch": 76, "duration": 240, "velocity": 100}, {"time": 5998, "pitch": 81, "duration": 478, "velocity": 110}, {"time": 6476, "pitch": 78, "duration": 239, "velocity": 100}, {"time": 6715, "pitch": 76, "duration": 245, "velocity": 105}, {"time": 6960, "pitch": 83, "duration": 204, "velocity": 110}, {"time": 7444, "pitch": 83, "duration": 478, "velocity": 110}, {"time": 7922, "pitch": 81, "duration": 240, "velocity": 100}, {"time": 8162, "pitch": 78, "duration": 478, "velocity": 110}, {"time": 8640, "pitch": 81, "duration": 239, "velocity": 100}, {"time": 9118, "pitch": 81, "duration": 240, "velocity": 110}, {"time": 9358, "pitch": 78, "duration": 239, "velocity": 105}, {"time": 9597, "pitch": 76, "duration": 239, "velocity": 100}, {"time": 9836, "pitch": 81, "duration": 484, "velocity": 110}, {"time": 10320, "pitch": 78, "duration": 245, "velocity": 100}, {"time": 10565, "pitch": 76, "duration": 239, "velocity": 105}, {"time": 10804, "pitch": 83, "duration": 199, "velocity": 110}, {"time": 11282, "pitch": 83, "duration": 479, "velocity": 110}, {"time": 11761, "pitch": 81, "duration": 239, "velocity": 100}, {"time": 12000, "pitch": 83, "duration": 478, "velocity": 110}, {"time": 12478, "pitch": 81, "duration": 240, "velocity": 100}, {"time": 12957, "pitch": 81, "duration": 239, "velocity": 110}, {"time": 13196, "pitch": 78, "duration": 239, "velocity": 105}, {"time": 13435, "pitch": 76, "duration": 245, "velocity": 100}, {"time": 13680, "pitch": 81, "duration": 484, "velocity": 110}, {"time": 14164, "pitch": 78, "duration": 239, "velocity": 100}, {"time": 14403, "pitch": 76, "duration": 239, "velocity": 105}, {"time": 14642, "pitch": 81, "duration": 279, "velocity": 110}, {"time": 15360, "pitch": 83, "duration": 1146, "velocity": 110}, {"time": 93597, "pitch": 81, "duration": 239, "velocity": 110}, {"time": 93836, "pitch": 78, "duration": 239, "velocity": 105}, {"time": 94075, "pitch": 76, "duration": 245, "velocity": 100}, {"time": 94320, "pitch": 81, "duration": 484, "velocity": 110}, {"time": 94804, "pitch": 78, "duration": 239, "velocity": 100}, {"time": 95043, "pitch": 76, "duration": 239, "velocity": 105}, {"time": 95282, "pitch": 83, "duration": 200, "velocity": 110}, {"time": 95761, "pitch": 83, "duration": 478, "velocity": 110}, {"time": 96239, "pitch": 81, "duration": 239, "velocity": 100}, {"time": 96478, "pitch": 83, "duration": 479, "velocity": 110}, {"time": 96957, "pitch": 81, "duration": 239, "velocity": 100}, {"time": 97435, "pitch": 81, "duration": 245, "velocity": 110}, {"time": 97680, "pitch": 78, "duration": 245, "velocity": 105}, {"time": 97925, "pitch": 76, "duration": 239, "velocity": 100}, {"time": 98164, "pitch": 81, "duration": 478, "velocity": 110}, {"time": 98642, "pitch": 78, "duration": 239, "velocity": 100}, {"time": 98881, "pitch": 76, "duration": 240, "velocity": 105}, {"time": 99121, "pitch": 81, "duration": 279, "velocity": 110}, {"time": 99838, "pitch": 83, "duration": 1151, "velocity": 110}, {"time": 224158, "pitch": 81, "duration": 239, "velocity": 110}, {"time": 224397, "pitch": 78, "duration": 240, "velocity": 105}, {"time": 224637, "pitch": 76, "duration": 239, "velocity": 100}, {"time": 224876, "pitch": 81, "duration": 484, "velocity": 110}, {"time": 225360, "pitch": 78, "duration": 245, "velocity": 100}, {"time": 225605, "pitch": 76, "duration": 239, "velocity": 105}, {"time": 225844, "pitch": 83, "duration": 199, "velocity": 110}, {"time": 226322, "pitch": 83, "duration": 479, "velocity": 110}, {"time": 226801, "pitch": 81, "duration": 239, "velocity": 100}, {"time": 227040, "pitch": 83, "duration": 478, "velocity": 110}, {"time": 227518, "pitch": 81, "duration": 239, "velocity": 100}, {"time": 227997, "pitch": 81, "duration": 239, "velocity": 110}, {"time": 228236, "pitch": 78, "duration": 239, "velocity": 105}, {"time": 228475, "pitch": 76, "duration": 245, "velocity": 100}, {"time": 228720, "pitch": 81, "duration": 484, "velocity": 110}, {"time": 229204, "pitch": 78, "duration": 239, "velocity": 100}, {"time": 229443, "pitch": 76, "duration": 239, "velocity": 105}, {"time": 229682, "pitch": 83, "duration": 199, "velocity": 110}, {"time": 230161, "pitch": 83, "duration": 478, "velocity": 110}, {"time": 230639, "pitch": 81, "duration": 239, "velocity": 100}, {"time": 230878, "pitch": 78, "duration": 479, "velocity": 110}, {"time": 231357, "pitch": 81, "duration": 239, "velocity": 100}, {"time": 231835, "pitch": 81, "duration": 245, "velocity": 110}, {"time": 232080, "pitch": 78, "duration": 245, "velocity": 105}, {"time": 232325, "pitch": 76, "duration": 239, "velocity": 100}, {"time": 232564, "pitch": 81, "duration": 478, "velocity": 110}, {"time": 233042, "pitch": 78, "duration": 239, "velocity": 100}, {"time": 233281, "pitch": 76, "duration": 240, "velocity": 105}, {"time": 233521, "pitch": 83, "duration": 199, "velocity": 110}, {"time": 233999, "pitch": 83, "duration": 478, "velocity": 110}, {"time": 234477, "pitch": 81, "duration": 240, "velocity": 100}, {"time": 234717, "pitch": 83, "duration": 478, "velocity": 110}, {"time": 235195, "pitch": 81, "duration": 245, "velocity": 100}, {"time": 235685, "pitch": 81, "duration": 239, "velocity": 110}, {"time": 235924, "pitch": 78, "duration": 239, "velocity": 105}, {"time": 236163, "pitch": 76, "duration": 239, "velocity": 100}, {"time": 236402, "pitch": 81, "duration": 479, "velocity": 110}, {"time": 236881, "pitch": 78, "duration": 239, "velocity": 100}, {"time": 237120, "pitch": 76, "duration": 239, "velocity": 105}, {"time": 237359, "pitch": 81, "duration": 279, "velocity": 110}, {"time": 243162, "pitch": 57, "duration": 5951, "velocity": 90}, {"time": 1442, "pitch": 52, "duration": 229, "velocity": 90}, {"time": 1442, "pitch": 57, "duration": 229, "velocity": 95}, {"time": 1452, "pitch": 61, "duration": 229, "velocity": 100}, {"time": 1920, "pitch": 52, "duration": 229, "velocity": 90}, {"time": 1920, "pitch": 57, "duration": 229, "velocity": 95}, {"time": 1930, "pitch": 61, "duration": 229, "velocity": 100}, {"time": 2398, "pitch": 52, "duration": 30, "velocity": 100}, {"time": 2638, "pitch": 57, "duration": 229, "velocity": 95}, {"time": 2638, "pitch": 61, "duration": 229, "velocity": 100}, {"time": 2648, "pitch": 52, "duration": 229, "velocity": 90}, {"time": 2877, "pitch": 45, "duration": 359, "velocity": 90}, {"time": 3116, "pitch": 57, "duration": 120, "velocity": 100}, {"time": 3116, "pitch": 62, "duration": 120, "velocity": 105}, {"time": 3126, "pitch": 54, "duration": 120, "velocity": 95}, {"time": 3355, "pitch": 52, "duration": 10, "velocity": 90}, {"time": 3600, "pitch": 57, "duration": 122, "velocity": 95}, {"time": 3600, "pitch": 62, "duration": 122, "velocity": 100}, {"time": 3610, "pitch": 54, "duration": 123, "velocity": 90}, {"time": 3845, "pitch": 52, "duration": 30, "velocity": 95}, {"time": 4084, "pitch": 57, "duration": 239, "velocity": 100}, {"time": 4094, "pitch": 54, "duration": 229, "velocity": 90}, {"time": 4323, "pitch": 54, "duration": 229, "velocity": 90}, {"time": 4323, "pitch": 57, "duration": 229, "velocity": 95}, {"time": 4333, "pitch": 62, "duration": 229, "velocity": 100}, {"time": 4562, "pitch": 54, "duration": 30, "velocity": 90}, {"time": 4802, "pitch": 54, "duration": 478, "velocity": 90}, {"time": 4802, "pitch": 57, "duration": 478, "velocity": 95}, {"time": 4812, "pitch": 62, "duration": 468, "velocity": 100}, {"time": 5280, "pitch": 52, "duration": 229, "velocity": 90}, {"time": 5280, "pitch": 57, "duration": 229, "velocity": 95}, {"time": 5290, "pitch": 61, "duration": 229, "velocity": 100}, {"time": 5758, "pitch": 52, "duration": 230, "velocity": 90}, {"time": 5758, "pitch": 57, "duration": 230, "velocity": 95}, {"time": 5768, "pitch": 61, "duration": 230, "velocity": 100}, {"time": 6237, "pitch": 52, "duration": 30, "velocity": 100}, {"time": 6476, "pitch": 57, "duration": 229, "velocity": 95}, {"time": 6476, "pitch": 61, "duration": 229, "velocity": 100}, {"time": 6486, "pitch": 52, "duration": 229, "velocity": 90}, {"time": 6715, "pitch": 45, "duration": 367, "velocity": 90}, {"time": 6960, "pitch": 57, "duration": 122, "velocity": 100}, {"time": 6960, "pitch": 62, "duration": 122, "velocity": 105}, {"time": 6970, "pitch": 54, "duration": 123, "velocity": 95}, {"time": 7205, "pitch": 52, "duration": 10, "velocity": 90}, {"time": 7444, "pitch": 57, "duration": 120, "velocity": 95}, {"time": 7444, "pitch": 62, "duration": 120, "velocity": 100}, {"time": 7454, "pitch": 54, "duration": 120, "velocity": 90}, {"time": 7683, "pitch": 52, "duration": 30, "velocity": 95}, {"time": 7922, "pitch": 57, "duration": 240, "velocity": 100}, {"time": 7932, "pitch": 54, "duration": 230, "velocity": 90}, {"time": 8162, "pitch": 54, "duration": 229, "velocity": 90}, {"time": 8162, "pitch": 57, "duration": 229, "velocity": 95}, {"time": 8172, "pitch": 62, "duration": 229, "velocity": 100}, {"time": 8401, "pitch": 54, "duration": 30, "velocity": 90}, {"time": 8640, "pitch": 54, "duration": 478, "velocity": 90}, {"time": 8640, "pitch": 57, "duration": 478, "velocity": 95}, {"time": 8650, "pitch": 62, "duration": 468, "velocity": 100}, {"time": 9118, "pitch": 52, "duration": 230, "velocity": 90}, {"time": 9118, "pitch": 57, "duration": 230, "velocity": 95}, {"time": 9128, "pitch": 61, "duration": 230, "velocity": 100}, {"time": 9597, "pitch": 52, "duration": 229, "velocity": 90}, {"time": 9597, "pitch": 57, "duration": 229, "velocity": 95}, {"time": 9607, "pitch": 61, "duration": 229, "velocity": 100}, {"time": 10075, "pitch": 52, "duration": 31, "velocity": 100}, {"time": 10320, "pitch": 57, "duration": 235, "velocity": 95}, {"time": 10320, "pitch": 61, "duration": 235, "velocity": 100}, {"time": 10330, "pitch": 52, "duration": 235, "velocity": 90}, {"time": 10565, "pitch": 45, "duration": 359, "velocity": 90}, {"time": 10804, "pitch": 57, "duration": 120, "velocity": 100}, {"time": 10804, "pitch": 62, "duration": 120, "velocity": 105}, {"time": 10814, "pitch": 54, "duration": 120, "velocity": 95}, {"time": 11043, "pitch": 52, "duration": 10, "velocity": 90}, {"time": 11282, "pitch": 57, "duration": 120, "velocity": 95}, {"time": 11282, "pitch": 62, "duration": 120, "velocity": 100}, {"time": 11292, "pitch": 54, "duration": 120, "velocity": 90}, {"time": 11522, "pitch": 52, "duration": 29, "velocity": 95}, {"time": 11761, "pitch": 57, "duration": 239, "velocity": 100}, {"time": 11771, "pitch": 54, "duration": 229, "velocity": 90}, {"time": 12000, "pitch": 54, "duration": 229, "velocity": 90}, {"time": 12000, "pitch": 57, "duration": 229, "velocity": 95}, {"time": 12010, "pitch": 62, "duration": 229, "velocity": 100}, {"time": 12239, "pitch": 54, "duration": 30, "velocity": 90}, {"time": 12478, "pitch": 54, "duration": 479, "velocity": 90}, {"time": 12478, "pitch": 57, "duration": 479, "velocity": 95}, {"time": 12488, "pitch": 62, "duration": 469, "velocity": 100}, {"time": 12957, "pitch": 52, "duration": 229, "velocity": 90}, {"time": 12957, "pitch": 57, "duration": 229, "velocity": 95}, {"time": 12967, "pitch": 61, "duration": 229, "velocity": 100}, {"time": 13435, "pitch": 52, "duration": 235, "velocity": 90}, {"time": 13435, "pitch": 57, "duration": 235, "velocity": 95}, {"time": 13445, "pitch": 61, "duration": 235, "velocity": 100}, {"time": 13925, "pitch": 52, "duration": 30, "velocity": 100}, {"time": 14164, "pitch": 57, "duration": 229, "velocity": 95}, {"time": 14164, "pitch": 61, "duration": 229, "velocity": 100}, {"time": 14174, "pitch": 52, "duration": 229, "velocity": 90}, {"time": 14403, "pitch": 45, "duration": 359, "velocity": 90}, {"time": 14642, "pitch": 50, "duration": 200, "velocity": 90}, {"time": 14642, "pitch": 56, "duration": 200, "velocity": 95}, {"time": 14642, "pitch": 61, "duration": 200, "velocity": 100}, {"time": 14652, "pitch": 40, "duration": 200, "velocity": 85}, {"time": 14882, "pitch": 52, "duration": 10, "velocity": 90}, {"time": 15121, "pitch": 40, "duration": 10, "velocity": 90}, {"time": 15360, "pitch": 40, "duration": 1435, "velocity": 85}, {"time": 15360, "pitch": 50, "duration": 1435, "velocity": 90}, {"time": 15360, "pitch": 56, "duration": 1435, "velocity": 95}, {"time": 15370, "pitch": 61, "duration": 1425, "velocity": 100}, {"time": 16795, "pitch": 57, "duration": 235, "velocity": 90}, {"time": 16795, "pitch": 62, "duration": 235, "velocity": 95}, {"time": 16805, "pitch": 66, "duration": 235, "velocity": 100}, {"time": 17285, "pitch": 57, "duration": 229, "velocity": 90}, {"time": 17285, "pitch": 62, "duration": 229, "velocity": 95}, {"time": 17295, "pitch": 66, "duration": 229, "velocity": 100}, {"time": 17763, "pitch": 57, "duration": 30, "velocity": 100}, {"time": 18002, "pitch": 62, "duration": 230, "velocity": 95}, {"time": 18002, "pitch": 66, "duration": 230, "velocity": 100}, {"time": 18012, "pitch": 57, "duration": 230, "velocity": 90}, {"time": 18242, "pitch": 45, "duration": 358, "velocity": 90}, {"time": 18481, "pitch": 59, "duration": 119, "velocity": 100}, {"time": 18481, "pitch": 64, "duration": 119, "velocity": 105}, {"time": 18491, "pitch": 56, "duration": 119, "velocity": 95}, {"time": 18720, "pitch": 49, "duration": 10, "velocity": 90}, {"time": 18959, "pitch": 59, "duration": 120, "velocity": 95}, {"time": 18959, "pitch": 64, "duration": 120, "velocity": 100}, {"time": 18969, "pitch": 56, "duration": 120, "velocity": 90}, {"time": 19198, "pitch": 49, "duration": 30, "velocity": 95}, {"time": 19438, "pitch": 59, "duration": 239, "velocity": 100}, {"time": 19448, "pitch": 56, "duration": 229, "velocity": 90}, {"time": 19677, "pitch": 56, "duration": 229, "velocity": 90}, {"time": 19677, "pitch": 59, "duration": 229, "velocity": 95}, {"time": 19687, "pitch": 64, "duration": 229, "velocity": 100}, {"time": 19916, "pitch": 49, "duration": 30, "velocity": 90}, {"time": 20155, "pitch": 56, "duration": 235, "velocity": 90}, {"time": 20155, "pitch": 59, "duration": 235, "velocity": 95}, {"time": 20165, "pitch": 64, "duration": 235, "velocity": 100}, {"time": 20400, "pitch": 49, "duration": 31, "velocity": 90}, {"time": 20645, "pitch": 57, "duration": 229, "velocity": 90}, {"time": 20645, "pitch": 62, "duration": 229, "velocity": 95}, {"time": 20655, "pitch": 66, "duration": 229, "velocity": 100}, {"time": 20884, "pitch": 52, "duration": 30, "velocity": 90}, {"time": 21123, "pitch": 52, "duration": 30, "velocity": 90}, {"time": 21362, "pitch": 62, "duration": 230, "velocity": 95}, {"time": 21362, "pitch": 66, "duration": 230, "velocity": 100}, {"time": 21372, "pitch": 57, "duration": 230, "velocity": 90}, {"time": 21841, "pitch": 52, "duration": 30, "velocity": 90}, {"time": 22080, "pitch": 52, "duration": 30, "velocity": 90}, {"time": 22319, "pitch": 61, "duration": 229, "velocity": 95}, {"time": 22319, "pitch": 64, "duration": 229, "velocity": 100}, {"time": 22329, "pitch": 56, "duration": 229, "velocity": 90}, {"time": 22558, "pitch": 45, "duration": 30, "velocity": 90}, {"time": 22798, "pitch": 61, "duration": 229, "velocity": 95}, {"time": 22798, "pitch": 64, "duration": 229, "velocity": 90}, {"time": 22808, "pitch": 56, "duration": 229, "velocity": 100}, {"time": 23037, "pitch": 52, "duration": 30, "velocity": 90}, {"time": 23276, "pitch": 45, "duration": 30, "velocity": 80}, {"time": 23515, "pitch": 52, "duration": 163, "velocity": 85}, {"time": 23525, "pitch": 57, "duration": 164, "velocity": 90}, {"time": 23760, "pitch": 45, "duration": 31, "velocity": 70}, {"time": 24005, "pitch": 52, "duration": 159, "velocity": 85}, {"time": 24015, "pitch": 57, "duration": 159, "velocity": 90}, {"time": 24244, "pitch": 45, "duration": 30, "velocity": 70}, {"time": 24483, "pitch": 57, "duration": 229, "velocity": 90}, {"time": 24483, "pitch": 62, "duration": 229, "velocity": 95}, {"time": 24493, "pitch": 66, "duration": 229, "velocity": 100}, {"time": 24962, "pitch": 57, "duration": 229, "velocity": 90}, {"time": 24962, "pitch": 62, "duration": 229, "velocity": 95}, {"time": 24972, "pitch": 66, "duration": 229, "velocity": 100}, {"time": 25440, "pitch": 57, "duration": 30, "velocity": 100}, {"time": 25679, "pitch": 62, "duration": 229, "velocity": 95}, {"time": 25679, "pitch": 66, "duration": 229, "velocity": 100}, {"time": 25689, "pitch": 57, "duration": 229, "velocity": 90}, {"time": 25918, "pitch": 45, "duration": 359, "velocity": 90}, {"time": 26158, "pitch": 59, "duration": 119, "velocity": 100}, {"time": 26158, "pitch": 64, "duration": 119, "velocity": 105}, {"time": 26168, "pitch": 56, "duration": 119, "velocity": 95}, {"time": 26397, "pitch": 49, "duration": 10, "velocity": 90}, {"time": 26636, "pitch": 59, "duration": 120, "velocity": 95}, {"time": 26636, "pitch": 64, "duration": 120, "velocity": 100}, {"time": 26646, "pitch": 56, "duration": 120, "velocity": 90}, {"time": 26875, "pitch": 49, "duration": 31, "velocity": 95}, {"time": 27120, "pitch": 59, "duration": 245, "velocity": 100}, {"time": 27130, "pitch": 56, "duration": 235, "velocity": 90}, {"time": 27365, "pitch": 56, "duration": 229, "velocity": 90}, {"time": 27365, "pitch": 59, "duration": 229, "velocity": 95}, {"time": 27375, "pitch": 64, "duration": 229, "velocity": 100}, {"time": 27604, "pitch": 49, "duration": 30, "velocity": 90}, {"time": 27843, "pitch": 56, "duration": 229, "velocity": 90}, {"time": 27843, "pitch": 59, "duration": 229, "velocity": 95}, {"time": 27853, "pitch": 64, "duration": 229, "velocity": 100}, {"time": 28082, "pitch": 49, "duration": 30, "velocity": 90}, {"time": 28322, "pitch": 57, "duration": 229, "velocity": 90}, {"time": 28322, "pitch": 62, "duration": 229, "velocity": 95}, {"time": 28332, "pitch": 66, "duration": 229, "velocity": 100}, {"time": 28561, "pitch": 52, "duration": 30, "velocity": 90}, {"time": 28800, "pitch": 52, "duration": 30, "velocity": 90}, {"time": 29039, "pitch": 62, "duration": 229, "velocity": 95}, {"time": 29039, "pitch": 66, "duration": 229, "velocity": 100}, {"time": 29049, "pitch": 57, "duration": 229, "velocity": 90}, {"time": 29278, "pitch": 57, "duration": 230, "velocity": 100}, {"time": 29278, "pitch": 62, "duration": 230, "velocity": 95}, {"time": 29288, "pitch": 66, "duration": 230, "velocity": 90}, {"time": 29518, "pitch": 62, "duration": 229, "velocity": 95}, {"time": 29518, "pitch": 66, "duration": 229, "velocity": 100}, {"time": 29528, "pitch": 57, "duration": 229, "velocity": 90}, {"time": 29757, "pitch": 52, "duration": 30, "velocity": 90}, {"time": 29996, "pitch": 61, "duration": 484, "velocity": 95}, {"time": 29996, "pitch": 64, "duration": 484, "velocity": 100}, {"time": 30006, "pitch": 56, "duration": 474, "velocity": 90}, {"time": 30235, "pitch": 45, "duration": 31, "velocity": 90}, {"time": 30480, "pitch": 61, "duration": 235, "velocity": 95}, {"time": 30480, "pitch": 64, "duration": 235, "velocity": 90}, {"time": 30490, "pitch": 56, "duration": 235, "velocity": 100}, {"time": 30725, "pitch": 52, "duration": 30, "velocity": 90}, {"time": 30964, "pitch": 61, "duration": 239, "velocity": 95}, {"time": 30964, "pitch": 64, "duration": 239, "velocity": 90}, {"time": 30974, "pitch": 56, "duration": 229, "velocity": 100}, {"time": 31203, "pitch": 56, "duration": 239, "velocity": 90}, {"time": 31203, "pitch": 61, "duration": 239, "velocity": 95}, {"time": 31213, "pitch": 64, "duration": 229, "velocity": 100}, {"time": 31442, "pitch": 45, "duration": 30, "velocity": 90}, {"time": 31682, "pitch": 56, "duration": 239, "velocity": 90}, {"time": 31682, "pitch": 61, "duration": 239, "velocity": 95}, {"time": 31692, "pitch": 64, "duration": 229, "velocity": 100}, {"time": 31921, "pitch": 45, "duration": 30, "velocity": 90}, {"time": 32160, "pitch": 57, "duration": 229, "velocity": 90}, {"time": 32160, "pitch": 62, "duration": 229, "velocity": 95}, {"time": 32170, "pitch": 66, "duration": 229, "velocity": 100}, {"time": 32399, "pitch": 47, "duration": 30, "velocity": 90}, {"time": 32638, "pitch": 47, "duration": 30, "velocity": 90}, {"time": 32878, "pitch": 62, "duration": 229, "velocity": 95}, {"time": 32878, "pitch": 66, "duration": 229, "velocity": 100}, {"time": 32888, "pitch": 57, "duration": 229, "velocity": 90}, {"time": 33117, "pitch": 57, "duration": 229, "velocity": 100}, {"time": 33117, "pitch": 62, "duration": 229, "velocity": 95}, {"time": 33127, "pitch": 66, "duration": 229, "velocity": 90}, {"time": 33356, "pitch": 62, "duration": 229, "velocity": 95}, {"time": 33356, "pitch": 66, "duration": 229, "velocity": 100}, {"time": 33366, "pitch": 57, "duration": 229, "velocity": 90}, {"time": 33595, "pitch": 47, "duration": 31, "velocity": 90}, {"time": 33840, "pitch": 62, "duration": 245, "velocity": 95}, {"time": 33840, "pitch": 66, "duration": 245, "velocity": 100}, {"time": 33850, "pitch": 57, "duration": 235, "velocity": 90}, {"time": 34085, "pitch": 47, "duration": 30, "velocity": 90}, {"time": 34324, "pitch": 62, "duration": 229, "velocity": 95}, {"time": 34324, "pitch": 66, "duration": 229, "velocity": 90}, {"time": 34334, "pitch": 57, "duration": 229, "velocity": 100}, {"time": 34563, "pitch": 47, "duration": 30, "velocity": 90}, {"time": 34802, "pitch": 62, "duration": 240, "velocity": 95}, {"time": 34802, "pitch": 66, "duration": 240, "velocity": 90}, {"time": 34812, "pitch": 57, "duration": 230, "velocity": 100}, {"time": 35042, "pitch": 57, "duration": 239, "velocity": 90}, {"time": 35042, "pitch": 62, "duration": 239, "velocity": 95}, {"time": 35052, "pitch": 66, "duration": 229, "velocity": 100}, {"time": 35281, "pitch": 47, "duration": 30, "velocity": 90}, {"time": 35520, "pitch": 57, "duration": 239, "velocity": 90}, {"time": 35520, "pitch": 62, "duration": 239, "velocity": 95}, {"time": 35530, "pitch": 66, "duration": 229, "velocity": 100}, {"time": 35759, "pitch": 47, "duration": 30, "velocity": 90}, {"time": 35998, "pitch": 59, "duration": 230, "velocity": 90}, {"time": 35998, "pitch": 64, "duration": 230, "velocity": 95}, {"time": 36008, "pitch": 68, "duration": 230, "velocity": 100}, {"time": 36238, "pitch": 49, "duration": 29, "velocity": 90}, {"time": 36477, "pitch": 49, "duration": 30, "velocity": 90}, {"time": 36716, "pitch": 64, "duration": 229, "velocity": 95}, {"time": 36716, "pitch": 68, "duration": 229, "velocity": 100}, {"time": 36726, "pitch": 59, "duration": 229, "velocity": 90}, {"time": 36955, "pitch": 59, "duration": 235, "velocity": 100}, {"time": 36955, "pitch": 64, "duration": 235, "velocity": 95}, {"time": 36965, "pitch": 68, "duration": 235, "velocity": 90}, {"time": 37200, "pitch": 64, "duration": 235, "velocity": 95}, {"time": 37200, "pitch": 68, "duration": 235, "velocity": 100}, {"time": 37210, "pitch": 59, "duration": 235, "velocity": 90}, {"time": 37445, "pitch": 49, "duration": 30, "velocity": 90}, {"time": 37684, "pitch": 64, "duration": 478, "velocity": 95}, {"time": 37684, "pitch": 68, "duration": 478, "velocity": 100}, {"time": 37694, "pitch": 59, "duration": 458, "velocity": 90}, {"time": 38162, "pitch": 64, "duration": 230, "velocity": 95}, {"time": 38162, "pitch": 68, "duration": 230, "velocity": 90}, {"time": 38172, "pitch": 59, "duration": 230, "velocity": 100}, {"time": 38402, "pitch": 49, "duration": 29, "velocity": 90}, {"time": 38641, "pitch": 64, "duration": 239, "velocity": 95}, {"time": 38641, "pitch": 68, "duration": 239, "velocity": 90}, {"time": 38651, "pitch": 59, "duration": 229, "velocity": 100}, {"time": 38880, "pitch": 59, "duration": 239, "velocity": 90}, {"time": 38880, "pitch": 64, "duration": 239, "velocity": 95}, {"time": 38890, "pitch": 68, "duration": 229, "velocity": 100}, {"time": 39119, "pitch": 49, "duration": 30, "velocity": 90}, {"time": 39358, "pitch": 59, "duration": 240, "velocity": 90}, {"time": 39358, "pitch": 64, "duration": 240, "velocity": 95}, {"time": 39368, "pitch": 68, "duration": 230, "velocity": 100}, {"time": 39598, "pitch": 49, "duration": 29, "velocity": 90}, {"time": 39837, "pitch": 57, "duration": 229, "velocity": 90}, {"time": 39837, "pitch": 62, "duration": 229, "velocity": 95}, {"time": 39847, "pitch": 66, "duration": 229, "velocity": 100}, {"time": 40076, "pitch": 47, "duration": 30, "velocity": 90}, {"time": 40315, "pitch": 47, "duration": 31, "velocity": 90}, {"time": 40560, "pitch": 62, "duration": 235, "velocity": 95}, {"time": 40560, "pitch": 66, "duration": 235, "velocity": 100}, {"time": 40570, "pitch": 57, "duration": 235, "velocity": 90}, {"time": 40805, "pitch": 57, "duration": 229, "velocity": 100}, {"time": 40805, "pitch": 62, "duration": 229, "velocity": 95}, {"time": 40815, "pitch": 66, "duration": 229, "velocity": 90}, {"time": 41044, "pitch": 62, "duration": 229, "velocity": 95}, {"time": 41044, "pitch": 66, "duration": 229, "velocity": 100}, {"time": 41054, "pitch": 57, "duration": 229, "velocity": 90}, {"time": 41283, "pitch": 47, "duration": 30, "velocity": 90}, {"time": 41522, "pitch": 62, "duration": 479, "velocity": 95}, {"time": 41522, "pitch": 66, "duration": 479, "velocity": 100}, {"time": 41532, "pitch": 57, "duration": 459, "velocity": 90}, {"time": 42001, "pitch": 62, "duration": 229, "velocity": 95}, {"time": 42001, "pitch": 66, "duration": 229, "velocity": 90}, {"time": 42011, "pitch": 57, "duration": 229, "velocity": 100}, {"time": 42240, "pitch": 47, "duration": 30, "velocity": 90}, {"time": 42479, "pitch": 62, "duration": 239, "velocity": 95}, {"time": 42479, "pitch": 66, "duration": 239, "velocity": 90}, {"time": 42489, "pitch": 57, "duration": 229, "velocity": 100}, {"time": 42718, "pitch": 57, "duration": 240, "velocity": 90}, {"time": 42718, "pitch": 62, "duration": 240, "velocity": 95}, {"time": 42728, "pitch": 66, "duration": 230, "velocity": 100}, {"time": 42958, "pitch": 47, "duration": 29, "velocity": 90}, {"time": 43197, "pitch": 57, "duration": 239, "velocity": 90}, {"time": 43197, "pitch": 62, "duration": 239, "velocity": 95}, {"time": 43207, "pitch": 66, "duration": 229, "velocity": 100}, {"time": 43436, "pitch": 47, "duration": 30, "velocity": 90}, {"time": 43675, "pitch": 57, "duration": 235, "velocity": 90}, {"time": 43675, "pitch": 62, "duration": 235, "velocity": 95}, {"time": 43685, "pitch": 66, "duration": 235, "velocity": 100}, {"time": 43920, "pitch": 40, "duration": 31, "velocity": 90}, {"time": 44165, "pitch": 40, "duration": 30, "velocity": 90}, {"time": 44404, "pitch": 66, "duration": 229, "velocity": 95}, {"time": 44404, "pitch": 71, "duration": 229, "velocity": 100}, {"time": 44414, "pitch": 62, "duration": 229, "velocity": 90}, {"time": 44643, "pitch": 62, "duration": 229, "velocity": 100}, {"time": 44643, "pitch": 66, "duration": 229, "velocity": 95}, {"time": 44653, "pitch": 71, "duration": 229, "velocity": 90}, {"time": 44882, "pitch": 66, "duration": 230, "velocity": 95}, {"time": 44882, "pitch": 71, "duration": 230, "velocity": 100}, {"time": 44892, "pitch": 62, "duration": 230, "velocity": 90}, {"time": 45122, "pitch": 40, "duration": 29, "velocity": 90}, {"time": 45361, "pitch": 59, "duration": 468, "velocity": 95}, {"time": 45361, "pitch": 64, "duration": 468, "velocity": 100}, {"time": 45371, "pitch": 56, "duration": 458, "velocity": 90}, {"time": 45839, "pitch": 59, "duration": 229, "velocity": 90}, {"time": 45839, "pitch": 64, "duration": 229, "velocity": 85}, {"time": 45849, "pitch": 56, "duration": 229, "velocity": 95}, {"time": 46078, "pitch": 40, "duration": 230, "velocity": 90}, {"time": 46318, "pitch": 59, "duration": 229, "velocity": 85}, {"time": 46318, "pitch": 64, "duration": 229, "velocity": 80}, {"time": 46328, "pitch": 56, "duration": 229, "velocity": 90}, {"time": 46557, "pitch": 40, "duration": 30, "velocity": 90}, {"time": 47035, "pitch": 56, "duration": 123, "velocity": 75}, {"time": 47035, "pitch": 59, "duration": 123, "velocity": 80}, {"time": 47045, "pitch": 64, "duration": 123, "velocity": 85}, {"time": 47525, "pitch": 57, "duration": 229, "velocity": 90}, {"time": 47525, "pitch": 62, "duration": 229, "velocity": 95}, {"time": 47535, "pitch": 66, "duration": 229, "velocity": 100}, {"time": 48003, "pitch": 57, "duration": 229, "velocity": 90}, {"time": 48003, "pitch": 62, "duration": 229, "velocity": 95}, {"time": 48013, "pitch": 66, "duration": 229, "velocity": 100}, {"time": 48482, "pitch": 57, "duration": 29, "velocity": 100}, {"time": 48721, "pitch": 62, "duration": 229, "velocity": 95}, {"time": 48721, "pitch": 66, "duration": 229, "velocity": 100}, {"time": 48731, "pitch": 57, "duration": 229, "velocity": 90}, {"time": 48960, "pitch": 45, "duration": 359, "velocity": 90}, {"time": 49199, "pitch": 59, "duration": 120, "velocity": 100}, {"time": 49199, "pitch": 64, "duration": 120, "velocity": 105}, {"time": 49209, "pitch": 56, "duration": 120, "velocity": 95}, {"time": 49438, "pitch": 49, "duration": 10, "velocity": 90}, {"time": 49678, "pitch": 59, "duration": 119, "velocity": 95}, {"time": 49678, "pitch": 64, "duration": 119, "velocity": 100}, {"time": 49688, "pitch": 56, "duration": 119, "velocity": 90}, {"time": 49917, "pitch": 49, "duration": 30, "velocity": 95}, {"time": 50156, "pitch": 59, "duration": 239, "velocity": 100}, {"time": 50166, "pitch": 56, "duration": 229, "velocity": 90}, {"time": 50395, "pitch": 56, "duration": 235, "velocity": 90}, {"time": 50395, "pitch": 59, "duration": 235, "velocity": 95}, {"time": 50405, "pitch": 64, "duration": 235, "velocity": 100}, {"time": 50640, "pitch": 49, "duration": 31, "velocity": 90}, {"time": 50885, "pitch": 56, "duration": 229, "velocity": 90}, {"time": 50885, "pitch": 59, "duration": 229, "velocity": 95}, {"time": 50895, "pitch": 64, "duration": 229, "velocity": 100}, {"time": 51124, "pitch": 49, "duration": 30, "velocity": 90}, {"time": 51363, "pitch": 57, "duration": 229, "velocity": 90}, {"time": 51363, "pitch": 62, "duration": 229, "velocity": 95}, {"time": 51373, "pitch": 66, "duration": 229, "velocity": 100}, {"time": 51602, "pitch": 52, "duration": 30, "velocity": 90}, {"time": 51842, "pitch": 52, "duration": 29, "velocity": 90}, {"time": 52081, "pitch": 62, "duration": 229, "velocity": 95}, {"time": 52081, "pitch": 66, "duration": 229, "velocity": 100}, {"time": 52091, "pitch": 57, "duration": 229, "velocity": 90}, {"time": 52559, "pitch": 52, "duration": 30, "velocity": 90}, {"time": 52798, "pitch": 52, "duration": 30, "velocity": 90}, {"time": 53038, "pitch": 61, "duration": 229, "velocity": 95}, {"time": 53038, "pitch": 64, "duration": 229, "velocity": 100}, {"time": 53048, "pitch": 56, "duration": 229, "velocity": 90}, {"time": 53277, "pitch": 45, "duration": 30, "velocity": 90}, {"time": 53516, "pitch": 61, "duration": 229, "velocity": 95}, {"time": 53516, "pitch": 64, "duration": 229, "velocity": 90}, {"time": 53526, "pitch": 56, "duration": 229, "velocity": 100}, {"time": 53755, "pitch": 52, "duration": 31, "velocity": 90}, {"time": 54000, "pitch": 45, "duration": 31, "velocity": 80}, {"time": 54245, "pitch": 52, "duration": 159, "velocity": 85}, {"time": 54255, "pitch": 57, "duration": 159, "velocity": 90}, {"time": 54484, "pitch": 45, "duration": 30, "velocity": 70}, {"time": 54723, "pitch": 52, "duration": 160, "velocity": 85}, {"time": 54733, "pitch": 57, "duration": 160, "velocity": 90}, {"time": 54962, "pitch": 45, "duration": 30, "velocity": 70}, {"time": 55202, "pitch": 57, "duration": 229, "velocity": 90}, {"time": 55202, "pitch": 62, "duration": 229, "velocity": 95}, {"time": 55212, "pitch": 66, "duration": 229, "velocity": 100}, {"time": 55680, "pitch": 57, "duration": 229, "velocity": 90}, {"time": 55680, "pitch": 62, "duration": 229, "velocity": 95}, {"time": 55690, "pitch": 66, "duration": 229, "velocity": 100}, {"time": 56158, "pitch": 57, "duration": 30, "velocity": 100}, {"time": 56398, "pitch": 62, "duration": 229, "velocity": 95}, {"time": 56398, "pitch": 66, "duration": 229, "velocity": 100}, {"time": 56408, "pitch": 57, "duration": 229, "velocity": 90}, {"time": 56637, "pitch": 45, "duration": 359, "velocity": 90}, {"time": 56876, "pitch": 59, "duration": 120, "velocity": 100}, {"time": 56876, "pitch": 64, "duration": 120, "velocity": 105}, {"time": 56886, "pitch": 56, "duration": 120, "velocity": 95}, {"time": 57115, "pitch": 49, "duration": 10, "velocity": 90}, {"time": 57360, "pitch": 59, "duration": 122, "velocity": 95}, {"time": 57360, "pitch": 64, "duration": 122, "velocity": 100}, {"time": 57370, "pitch": 56, "duration": 123, "velocity": 90}, {"time": 57605, "pitch": 49, "duration": 30, "velocity": 95}, {"time": 57844, "pitch": 59, "duration": 239, "velocity": 100}, {"time": 57854, "pitch": 56, "duration": 229, "velocity": 90}, {"time": 58083, "pitch": 56, "duration": 229, "velocity": 90}, {"time": 58083, "pitch": 59, "duration": 229, "velocity": 95}, {"time": 58093, "pitch": 64, "duration": 229, "velocity": 100}, {"time": 58322, "pitch": 49, "duration": 30, "velocity": 90}, {"time": 58562, "pitch": 56, "duration": 229, "velocity": 90}, {"time": 58562, "pitch": 59, "duration": 229, "velocity": 95}, {"time": 58572, "pitch": 64, "duration": 229, "velocity": 100}, {"time": 58801, "pitch": 49, "duration": 30, "velocity": 90}, {"time": 59040, "pitch": 57, "duration": 229, "velocity": 90}, {"time": 59040, "pitch": 62, "duration": 229, "velocity": 95}, {"time": 59050, "pitch": 66, "duration": 229, "velocity": 100}, {"time": 59279, "pitch": 52, "duration": 30, "velocity": 90}, {"time": 59518, "pitch": 52, "duration": 30, "velocity": 90}, {"time": 59758, "pitch": 62, "duration": 229, "velocity": 95}, {"time": 59758, "pitch": 66, "duration": 229, "velocity": 100}, {"time": 59768, "pitch": 57, "duration": 229, "velocity": 90}, {"time": 59997, "pitch": 57, "duration": 229, "velocity": 100}, {"time": 59997, "pitch": 62, "duration": 229, "velocity": 95}, {"time": 60007, "pitch": 66, "duration": 229, "velocity": 90}, {"time": 60236, "pitch": 62, "duration": 229, "velocity": 95}, {"time": 60236, "pitch": 66, "duration": 229, "velocity": 100}, {"time": 60246, "pitch": 57, "duration": 229, "velocity": 90}, {"time": 60475, "pitch": 52, "duration": 31, "velocity": 90}, {"time": 60720, "pitch": 68, "duration": 484, "velocity": 95}, {"time": 60720, "pitch": 73, "duration": 484, "velocity": 100}, {"time": 60730, "pitch": 64, "duration": 474, "velocity": 90}, {"time": 60965, "pitch": 45, "duration": 30, "velocity": 90}, {"time": 61204, "pitch": 68, "duration": 229, "velocity": 95}, {"time": 61204, "pitch": 73, "duration": 229, "velocity": 90}, {"time": 61214, "pitch": 64, "duration": 229, "velocity": 100}, {"time": 61443, "pitch": 52, "duration": 30, "velocity": 90}, {"time": 61682, "pitch": 68, "duration": 240, "velocity": 95}, {"time": 61682, "pitch": 73, "duration": 240, "velocity": 90}, {"time": 61692, "pitch": 64, "duration": 230, "velocity": 100}, {"time": 61922, "pitch": 64, "duration": 239, "velocity": 90}, {"time": 61922, "pitch": 68, "duration": 239, "velocity": 95}, {"time": 61931, "pitch": 73, "duration": 230, "velocity": 100}, {"time": 62161, "pitch": 45, "duration": 30, "velocity": 90}, {"time": 62400, "pitch": 61, "duration": 239, "velocity": 90}, {"time": 62400, "pitch": 64, "duration": 239, "velocity": 95}, {"time": 62410, "pitch": 68, "duration": 229, "velocity": 100}, {"time": 62639, "pitch": 45, "duration": 30, "velocity": 90}, {"time": 62878, "pitch": 57, "duration": 230, "velocity": 90}, {"time": 62878, "pitch": 62, "duration": 230, "velocity": 95}, {"time": 62888, "pitch": 66, "duration": 230, "velocity": 100}, {"time": 63118, "pitch": 47, "duration": 29, "velocity": 90}, {"time": 63357, "pitch": 47, "duration": 30, "velocity": 90}, {"time": 63596, "pitch": 62, "duration": 229, "velocity": 95}, {"time": 63596, "pitch": 66, "duration": 229, "velocity": 100}, {"time": 63606, "pitch": 57, "duration": 229, "velocity": 90}, {"time": 63835, "pitch": 57, "duration": 235, "velocity": 100}, {"time": 63835, "pitch": 62, "duration": 235, "velocity": 95}, {"time": 63845, "pitch": 66, "duration": 235, "velocity": 90}, {"time": 64080, "pitch": 62, "duration": 235, "velocity": 95}, {"time": 64080, "pitch": 66, "duration": 235, "velocity": 100}, {"time": 64090, "pitch": 57, "duration": 235, "velocity": 90}, {"time": 64325, "pitch": 47, "duration": 30, "velocity": 90}, {"time": 64564, "pitch": 62, "duration": 239, "velocity": 95}, {"time": 64564, "pitch": 66, "duration": 239, "velocity": 100}, {"time": 64574, "pitch": 57, "duration": 229, "velocity": 90}, {"time": 64803, "pitch": 47, "duration": 30, "velocity": 90}, {"time": 65042, "pitch": 62, "duration": 230, "velocity": 95}, {"time": 65042, "pitch": 66, "duration": 230, "velocity": 90}, {"time": 65052, "pitch": 57, "duration": 230, "velocity": 100}, {"time": 65282, "pitch": 47, "duration": 29, "velocity": 90}, {"time": 65521, "pitch": 62, "duration": 239, "velocity": 95}, {"time": 65521, "pitch": 66, "duration": 239, "velocity": 90}, {"time": 65531, "pitch": 57, "duration": 229, "velocity": 100}, {"time": 65760, "pitch": 57, "duration": 239, "velocity": 90}, {"time": 65760, "pitch": 62, "duration": 239, "velocity": 95}, {"time": 65770, "pitch": 66, "duration": 229, "velocity": 100}, {"time": 65999, "pitch": 47, "duration": 30, "velocity": 90}, {"time": 66238, "pitch": 57, "duration": 240, "velocity": 90}, {"time": 66238, "pitch": 62, "duration": 240, "velocity": 95}, {"time": 66248, "pitch": 66, "duration": 230, "velocity": 100}, {"time": 66478, "pitch": 47, "duration": 29, "velocity": 90}, {"time": 66717, "pitch": 59, "duration": 229, "velocity": 90}, {"time": 66717, "pitch": 64, "duration": 229, "velocity": 95}, {"time": 66727, "pitch": 68, "duration": 229, "velocity": 100}, {"time": 66956, "pitch": 49, "duration": 30, "velocity": 90}, {"time": 67195, "pitch": 49, "duration": 31, "velocity": 90}, {"time": 67440, "pitch": 64, "duration": 235, "velocity": 95}, {"time": 67440, "pitch": 68, "duration": 235, "velocity": 100}, {"time": 67450, "pitch": 59, "duration": 235, "velocity": 90}, {"time": 67685, "pitch": 59, "duration": 229, "velocity": 100}, {"time": 67685, "pitch": 64, "duration": 229, "velocity": 95}, {"time": 67695, "pitch": 68, "duration": 229, "velocity": 90}, {"time": 67924, "pitch": 64, "duration": 229, "velocity": 95}, {"time": 67924, "pitch": 68, "duration": 229, "velocity": 100}, {"time": 67934, "pitch": 59, "duration": 229, "velocity": 90}, {"time": 68163, "pitch": 49, "duration": 30, "velocity": 90}, {"time": 68402, "pitch": 64, "duration": 479, "velocity": 95}, {"time": 68402, "pitch": 68, "duration": 479, "velocity": 100}, {"time": 68412, "pitch": 59, "duration": 459, "velocity": 90}, {"time": 68881, "pitch": 64, "duration": 229, "velocity": 95}, {"time": 68881, "pitch": 68, "duration": 229, "velocity": 90}, {"time": 68891, "pitch": 59, "duration": 229, "velocity": 100}, {"time": 69120, "pitch": 49, "duration": 30, "velocity": 90}, {"time": 69359, "pitch": 64, "duration": 239, "velocity": 95}, {"time": 69359, "pitch": 68, "duration": 239, "velocity": 90}, {"time": 69369, "pitch": 59, "duration": 229, "velocity": 100}, {"time": 69598, "pitch": 59, "duration": 240, "velocity": 90}, {"time": 69598, "pitch": 64, "duration": 240, "velocity": 95}, {"time": 69608, "pitch": 68, "duration": 230, "velocity": 100}, {"time": 69838, "pitch": 49, "duration": 29, "velocity": 90}, {"time": 70077, "pitch": 59, "duration": 239, "velocity": 90}, {"time": 70077, "pitch": 64, "duration": 239, "velocity": 95}, {"time": 70087, "pitch": 68, "duration": 229, "velocity": 100}, {"time": 70316, "pitch": 49, "duration": 30, "velocity": 90}, {"time": 70555, "pitch": 57, "duration": 235, "velocity": 90}, {"time": 70555, "pitch": 62, "duration": 235, "velocity": 95}, {"time": 70565, "pitch": 66, "duration": 235, "velocity": 100}, {"time": 70800, "pitch": 47, "duration": 31, "velocity": 90}, {"time": 71045, "pitch": 47, "duration": 30, "velocity": 90}, {"time": 71284, "pitch": 62, "duration": 229, "velocity": 95}, {"time": 71284, "pitch": 66, "duration": 229, "velocity": 100}, {"time": 71294, "pitch": 57, "duration": 229, "velocity": 90}, {"time": 71523, "pitch": 57, "duration": 229, "velocity": 100}, {"time": 71523, "pitch": 62, "duration": 229, "velocity": 95}, {"time": 71533, "pitch": 66, "duration": 229, "velocity": 90}, {"time": 71762, "pitch": 62, "duration": 230, "velocity": 95}, {"time": 71762, "pitch": 66, "duration": 230, "velocity": 100}, {"time": 71772, "pitch": 57, "duration": 230, "velocity": 90}, {"time": 72002, "pitch": 47, "duration": 29, "velocity": 90}, {"time": 72241, "pitch": 62, "duration": 478, "velocity": 95}, {"time": 72241, "pitch": 66, "duration": 478, "velocity": 100}, {"time": 72251, "pitch": 57, "duration": 458, "velocity": 90}, {"time": 72719, "pitch": 62, "duration": 229, "velocity": 95}, {"time": 72719, "pitch": 66, "duration": 229, "velocity": 90}, {"time": 72729, "pitch": 57, "duration": 229, "velocity": 100}, {"time": 72958, "pitch": 47, "duration": 30, "velocity": 90}, {"time": 73198, "pitch": 62, "duration": 239, "velocity": 95}, {"time": 73198, "pitch": 66, "duration": 239, "velocity": 90}, {"time": 73208, "pitch": 57, "duration": 229, "velocity": 100}, {"time": 73437, "pitch": 57, "duration": 239, "velocity": 90}, {"time": 73437, "pitch": 62, "duration": 239, "velocity": 95}, {"time": 73447, "pitch": 66, "duration": 229, "velocity": 100}, {"time": 73676, "pitch": 47, "duration": 30, "velocity": 90}, {"time": 73915, "pitch": 57, "duration": 245, "velocity": 90}, {"time": 73915, "pitch": 62, "duration": 245, "velocity": 95}, {"time": 73925, "pitch": 66, "duration": 235, "velocity": 100}, {"time": 74160, "pitch": 47, "duration": 31, "velocity": 90}, {"time": 74405, "pitch": 60, "duration": 239, "velocity": 90}, {"time": 74405, "pitch": 65, "duration": 239, "velocity": 95}, {"time": 74415, "pitch": 69, "duration": 478, "velocity": 100}, {"time": 74644, "pitch": 65, "duration": 239, "velocity": 80}, {"time": 74654, "pitch": 60, "duration": 219, "velocity": 90}, {"time": 74883, "pitch": 60, "duration": 239, "velocity": 90}, {"time": 74883, "pitch": 65, "duration": 239, "velocity": 95}, {"time": 74893, "pitch": 69, "duration": 478, "velocity": 100}, {"time": 75122, "pitch": 65, "duration": 240, "velocity": 80}, {"time": 75132, "pitch": 60, "duration": 220, "velocity": 90}, {"time": 75362, "pitch": 60, "duration": 239, "velocity": 90}, {"time": 75362, "pitch": 65, "duration": 239, "velocity": 95}, {"time": 75371, "pitch": 69, "duration": 479, "velocity": 100}, {"time": 75601, "pitch": 65, "duration": 239, "velocity": 80}, {"time": 75611, "pitch": 60, "duration": 219, "velocity": 90}, {"time": 75840, "pitch": 60, "duration": 120, "velocity": 90}, {"time": 75840, "pitch": 65, "duration": 120, "velocity": 95}, {"time": 75850, "pitch": 69, "duration": 119, "velocity": 100}, {"time": 76079, "pitch": 66, "duration": 479, "velocity": 95}, {"time": 76079, "pitch": 69, "duration": 479, "velocity": 100}, {"time": 76089, "pitch": 62, "duration": 469, "velocity": 90}, {"time": 76558, "pitch": 62, "duration": 239, "velocity": 90}, {"time": 76558, "pitch": 66, "duration": 239, "velocity": 95}, {"time": 76567, "pitch": 69, "duration": 230, "velocity": 100}, {"time": 76797, "pitch": 62, "duration": 20, "velocity": 80}, {"time": 77036, "pitch": 62, "duration": 20, "velocity": 80}, {"time": 77275, "pitch": 57, "duration": 490, "velocity": 80}, {"time": 77275, "pitch": 62, "duration": 245, "velocity": 85}, {"time": 77285, "pitch": 66, "duration": 235, "velocity": 90}, {"time": 77520, "pitch": 66, "duration": 245, "velocity": 95}, {"time": 77520, "pitch": 71, "duration": 484, "velocity": 100}, {"time": 77530, "pitch": 62, "duration": 235, "velocity": 90}, {"time": 77765, "pitch": 57, "duration": 229, "velocity": 85}, {"time": 77765, "pitch": 62, "duration": 229, "velocity": 90}, {"time": 77775, "pitch": 66, "duration": 229, "velocity": 95}, {"time": 78004, "pitch": 52, "duration": 20, "velocity": 80}, {"time": 78243, "pitch": 57, "duration": 229, "velocity": 90}, {"time": 78243, "pitch": 61, "duration": 229, "velocity": 95}, {"time": 78253, "pitch": 64, "duration": 229, "velocity": 100}, {"time": 78722, "pitch": 57, "duration": 229, "velocity": 90}, {"time": 78722, "pitch": 61, "duration": 229, "velocity": 95}, {"time": 78731, "pitch": 64, "duration": 230, "velocity": 100}, {"time": 79200, "pitch": 57, "duration": 30, "velocity": 100}, {"time": 79439, "pitch": 61, "duration": 229, "velocity": 95}, {"time": 79439, "pitch": 64, "duration": 229, "velocity": 100}, {"time": 79449, "pitch": 57, "duration": 229, "velocity": 90}, {"time": 79678, "pitch": 57, "duration": 359, "velocity": 90}, {"time": 79918, "pitch": 61, "duration": 119, "velocity": 100}, {"time": 79918, "pitch": 64, "duration": 119, "velocity": 105}, {"time": 79927, "pitch": 58, "duration": 120, "velocity": 95}, {"time": 80157, "pitch": 58, "duration": 30, "velocity": 90}, {"time": 80396, "pitch": 61, "duration": 229, "velocity": 95}, {"time": 80396, "pitch": 64, "duration": 229, "velocity": 90}, {"time": 80406, "pitch": 58, "duration": 229, "velocity": 100}, {"time": 80635, "pitch": 58, "duration": 31, "velocity": 90}, {"time": 80880, "pitch": 58, "duration": 31, "velocity": 80}, {"time": 81125, "pitch": 61, "duration": 159, "velocity": 85}, {"time": 81135, "pitch": 64, "duration": 159, "velocity": 90}, {"time": 81364, "pitch": 58, "duration": 30, "velocity": 70}, {"time": 81603, "pitch": 61, "duration": 160, "velocity": 85}, {"time": 81613, "pitch": 64, "duration": 160, "velocity": 90}, {"time": 81842, "pitch": 58, "duration": 30, "velocity": 70}, {"time": 82082, "pitch": 57, "duration": 229, "velocity": 90}, {"time": 82082, "pitch": 62, "duration": 229, "velocity": 95}, {"time": 82091, "pitch": 66, "duration": 230, "velocity": 100}, {"time": 82560, "pitch": 57, "duration": 229, "velocity": 90}, {"time": 82560, "pitch": 62, "duration": 229, "velocity": 95}, {"time": 82570, "pitch": 66, "duration": 229, "velocity": 100}, {"time": 83038, "pitch": 57, "duration": 30, "velocity": 100}, {"time": 83278, "pitch": 62, "duration": 229, "velocity": 95}, {"time": 83278, "pitch": 66, "duration": 229, "velocity": 100}, {"time": 83287, "pitch": 57, "duration": 230, "velocity": 90}, {"time": 83517, "pitch": 57, "duration": 359, "velocity": 90}, {"time": 83756, "pitch": 65, "duration": 474, "velocity": 100}, {"time": 83756, "pitch": 69, "duration": 474, "velocity": 105}, {"time": 83766, "pitch": 60, "duration": 260, "velocity": 95}, {"time": 84240, "pitch": 65, "duration": 235, "velocity": 95}, {"time": 84240, "pitch": 69, "duration": 235, "velocity": 90}, {"time": 84250, "pitch": 60, "duration": 235, "velocity": 100}, {"time": 84485, "pitch": 60, "duration": 30, "velocity": 90}, {"time": 84724, "pitch": 60, "duration": 30, "velocity": 80}, {"time": 84963, "pitch": 60, "duration": 160, "velocity": 85}, {"time": 84973, "pitch": 65, "duration": 160, "velocity": 90}, {"time": 85202, "pitch": 60, "duration": 30, "velocity": 70}, {"time": 85442, "pitch": 60, "duration": 159, "velocity": 85}, {"time": 85451, "pitch": 65, "duration": 160, "velocity": 90}, {"time": 85681, "pitch": 60, "duration": 30, "velocity": 70}, {"time": 85920, "pitch": 59, "duration": 229, "velocity": 90}, {"time": 85920, "pitch": 64, "duration": 229, "velocity": 95}, {"time": 85930, "pitch": 68, "duration": 229, "velocity": 100}, {"time": 86398, "pitch": 59, "duration": 230, "velocity": 90}, {"time": 86398, "pitch": 64, "duration": 230, "velocity": 95}, {"time": 86408, "pitch": 68, "duration": 230, "velocity": 100}, {"time": 86877, "pitch": 59, "duration": 30, "velocity": 100}, {"time": 87116, "pitch": 64, "duration": 229, "velocity": 95}, {"time": 87116, "pitch": 68, "duration": 229, "velocity": 100}, {"time": 87126, "pitch": 59, "duration": 229, "velocity": 90}, {"time": 87355, "pitch": 59, "duration": 367, "velocity": 90}, {"time": 87600, "pitch": 61, "duration": 474, "velocity": 100}, {"time": 87600, "pitch": 66, "duration": 474, "velocity": 105}, {"time": 87610, "pitch": 58, "duration": 265, "velocity": 95}, {"time": 88084, "pitch": 61, "duration": 229, "velocity": 95}, {"time": 88084, "pitch": 66, "duration": 229, "velocity": 90}, {"time": 88094, "pitch": 58, "duration": 229, "velocity": 100}, {"time": 88323, "pitch": 58, "duration": 30, "velocity": 90}, {"time": 88562, "pitch": 58, "duration": 30, "velocity": 80}, {"time": 88802, "pitch": 61, "duration": 159, "velocity": 85}, {"time": 88811, "pitch": 66, "duration": 160, "velocity": 90}, {"time": 89041, "pitch": 58, "duration": 30, "velocity": 70}, {"time": 89280, "pitch": 61, "duration": 159, "velocity": 85}, {"time": 89290, "pitch": 66, "duration": 159, "velocity": 90}, {"time": 89519, "pitch": 58, "duration": 30, "velocity": 70}, {"time": 89758, "pitch": 57, "duration": 230, "velocity": 90}, {"time": 89758, "pitch": 62, "duration": 230, "velocity": 95}, {"time": 89768, "pitch": 66, "duration": 230, "velocity": 100}, {"time": 90237, "pitch": 57, "duration": 229, "velocity": 90}, {"time": 90237, "pitch": 62, "duration": 229, "velocity": 95}, {"time": 90247, "pitch": 66, "duration": 229, "velocity": 100}, {"time": 90715, "pitch": 57, "duration": 31, "velocity": 100}, {"time": 90960, "pitch": 62, "duration": 235, "velocity": 95}, {"time": 90960, "pitch": 66, "duration": 235, "velocity": 100}, {"time": 90970, "pitch": 57, "duration": 235, "velocity": 90}, {"time": 91205, "pitch": 57, "duration": 239, "velocity": 90}, {"time": 91444, "pitch": 62, "duration": 468, "velocity": 100}, {"time": 91444, "pitch": 66, "duration": 468, "velocity": 105}, {"time": 91454, "pitch": 57, "duration": 259, "velocity": 95}, {"time": 91922, "pitch": 62, "duration": 230, "velocity": 95}, {"time": 91922, "pitch": 66, "duration": 230, "velocity": 90}, {"time": 91932, "pitch": 57, "duration": 230, "velocity": 100}, {"time": 92162, "pitch": 57, "duration": 29, "velocity": 90}, {"time": 92401, "pitch": 57, "duration": 30, "velocity": 80}, {"time": 92640, "pitch": 62, "duration": 159, "velocity": 85}, {"time": 92650, "pitch": 66, "duration": 159, "velocity": 90}, {"time": 92879, "pitch": 57, "duration": 30, "velocity": 70}, {"time": 93118, "pitch": 62, "duration": 160, "velocity": 85}, {"time": 93128, "pitch": 66, "duration": 160, "velocity": 90}, {"time": 93358, "pitch": 57, "duration": 29, "velocity": 70}, {"time": 93597, "pitch": 52, "duration": 229, "velocity": 90}, {"time": 93597, "pitch": 57, "duration": 229, "velocity": 95}, {"time": 93607, "pitch": 61, "duration": 229, "velocity": 100}, {"time": 94075, "pitch": 52, "duration": 235, "velocity": 90}, {"time": 94075, "pitch": 57, "duration": 235, "velocity": 95}, {"time": 94085, "pitch": 61, "duration": 235, "velocity": 100}, {"time": 94565, "pitch": 52, "duration": 30, "velocity": 100}, {"time": 94804, "pitch": 57, "duration": 229, "velocity": 95}, {"time": 94804, "pitch": 61, "duration": 229, "velocity": 100}, {"time": 94814, "pitch": 52, "duration": 229, "velocity": 90}, {"time": 95043, "pitch": 45, "duration": 359, "velocity": 90}, {"time": 95282, "pitch": 57, "duration": 120, "velocity": 100}, {"time": 95282, "pitch": 62, "duration": 120, "velocity": 105}, {"time": 95292, "pitch": 54, "duration": 120, "velocity": 95}, {"time": 95521, "pitch": 52, "duration": 10, "velocity": 90}, {"time": 95761, "pitch": 57, "duration": 119, "velocity": 95}, {"time": 95761, "pitch": 62, "duration": 119, "velocity": 100}, {"time": 95771, "pitch": 54, "duration": 119, "velocity": 90}, {"time": 96000, "pitch": 52, "duration": 30, "velocity": 95}, {"time": 96239, "pitch": 57, "duration": 239, "velocity": 100}, {"time": 96249, "pitch": 54, "duration": 229, "velocity": 90}, {"time": 96478, "pitch": 54, "duration": 230, "velocity": 90}, {"time": 96478, "pitch": 57, "duration": 230, "velocity": 95}, {"time": 96488, "pitch": 62, "duration": 230, "velocity": 100}, {"time": 96718, "pitch": 54, "duration": 29, "velocity": 90}, {"time": 96957, "pitch": 54, "duration": 478, "velocity": 90}, {"time": 96957, "pitch": 57, "duration": 478, "velocity": 95}, {"time": 96967, "pitch": 62, "duration": 468, "velocity": 100}, {"time": 97435, "pitch": 52, "duration": 235, "velocity": 90}, {"time": 97435, "pitch": 57, "duration": 235, "velocity": 95}, {"time": 97445, "pitch": 61, "duration": 235, "velocity": 100}, {"time": 97925, "pitch": 52, "duration": 229, "velocity": 90}, {"time": 97925, "pitch": 57, "duration": 229, "velocity": 95}, {"time": 97935, "pitch": 61, "duration": 229, "velocity": 100}, {"time": 98403, "pitch": 52, "duration": 30, "velocity": 100}, {"time": 98642, "pitch": 57, "duration": 230, "velocity": 95}, {"time": 98642, "pitch": 61, "duration": 230, "velocity": 100}, {"time": 98652, "pitch": 52, "duration": 229, "velocity": 90}, {"time": 98881, "pitch": 45, "duration": 359, "velocity": 90}, {"time": 99121, "pitch": 50, "duration": 199, "velocity": 90}, {"time": 99121, "pitch": 56, "duration": 199, "velocity": 95}, {"time": 99121, "pitch": 61, "duration": 199, "velocity": 100}, {"time": 99131, "pitch": 40, "duration": 199, "velocity": 85}, {"time": 99360, "pitch": 52, "duration": 10, "velocity": 90}, {"time": 99599, "pitch": 40, "duration": 10, "velocity": 90}, {"time": 99838, "pitch": 40, "duration": 1447, "velocity": 85}, {"time": 99838, "pitch": 50, "duration": 1447, "velocity": 90}, {"time": 99838, "pitch": 56, "duration": 1447, "velocity": 95}, {"time": 99848, "pitch": 61, "duration": 1437, "velocity": 100}, {"time": 101285, "pitch": 57, "duration": 229, "velocity": 90}, {"time": 101285, "pitch": 62, "duration": 229, "velocity": 95}, {"time": 101295, "pitch": 66, "duration": 229, "velocity": 100}, {"time": 101763, "pitch": 57, "duration": 229, "velocity": 90}, {"time": 101763, "pitch": 62, "duration": 229, "velocity": 95}, {"time": 101773, "pitch": 66, "duration": 229, "velocity": 100}, {"time": 102241, "pitch": 57, "duration": 30, "velocity": 100}, {"time": 102481, "pitch": 62, "duration": 229, "velocity": 95}, {"time": 102481, "pitch": 66, "duration": 229, "velocity": 100}, {"time": 102491, "pitch": 57, "duration": 229, "velocity": 90}, {"time": 102720, "pitch": 45, "duration": 359, "velocity": 90}, {"time": 102959, "pitch": 59, "duration": 120, "velocity": 100}, {"time": 102959, "pitch": 64, "duration": 120, "velocity": 105}, {"time": 102969, "pitch": 56, "duration": 120, "velocity": 95}, {"time": 103198, "pitch": 49, "duration": 10, "velocity": 90}, {"time": 103438, "pitch": 59, "duration": 119, "velocity": 95}, {"time": 103438, "pitch": 64, "duration": 119, "velocity": 100}, {"time": 103447, "pitch": 56, "duration": 120, "velocity": 90}, {"time": 103677, "pitch": 49, "duration": 30, "velocity": 95}, {"time": 103916, "pitch": 59, "duration": 239, "velocity": 100}, {"time": 103926, "pitch": 56, "duration": 229, "velocity": 90}, {"time": 104155, "pitch": 56, "duration": 235, "velocity": 90}, {"time": 104155, "pitch": 59, "duration": 235, "velocity": 95}, {"time": 104165, "pitch": 64, "duration": 235, "velocity": 100}, {"time": 104400, "pitch": 49, "duration": 31, "velocity": 90}, {"time": 104645, "pitch": 56, "duration": 229, "velocity": 90}, {"time": 104645, "pitch": 59, "duration": 229, "velocity": 95}, {"time": 104655, "pitch": 64, "duration": 229, "velocity": 100}, {"time": 104884, "pitch": 49, "duration": 30, "velocity": 90}, {"time": 105123, "pitch": 57, "duration": 229, "velocity": 90}, {"time": 105123, "pitch": 62, "duration": 229, "velocity": 95}, {"time": 105133, "pitch": 66, "duration": 229, "velocity": 100}, {"time": 105362, "pitch": 52, "duration": 30, "velocity": 90}, {"time": 105601, "pitch": 52, "duration": 30, "velocity": 90}, {"time": 105841, "pitch": 62, "duration": 229, "velocity": 95}, {"time": 105841, "pitch": 66, "duration": 229, "velocity": 100}, {"time": 105851, "pitch": 57, "duration": 229, "velocity": 90}, {"time": 106319, "pitch": 52, "duration": 30, "velocity": 90}, {"time": 106558, "pitch": 52, "duration": 30, "velocity": 90}, {"time": 106798, "pitch": 61, "duration": 229, "velocity": 95}, {"time": 106798, "pitch": 64, "duration": 229, "velocity": 100}, {"time": 106807, "pitch": 56, "duration": 230, "velocity": 90}, {"time": 107037, "pitch": 45, "duration": 30, "velocity": 90}, {"time": 107276, "pitch": 61, "duration": 229, "velocity": 95}, {"time": 107276, "pitch": 64, "duration": 229, "velocity": 90}, {"time": 107286, "pitch": 56, "duration": 229, "velocity": 100}, {"time": 107515, "pitch": 52, "duration": 31, "velocity": 90}, {"time": 107760, "pitch": 45, "duration": 31, "velocity": 80}, {"time": 108005, "pitch": 52, "duration": 159, "velocity": 85}, {"time": 108015, "pitch": 57, "duration": 159, "velocity": 90}, {"time": 108244, "pitch": 45, "duration": 30, "velocity": 70}, {"time": 108483, "pitch": 52, "duration": 160, "velocity": 85}, {"time": 108493, "pitch": 57, "duration": 160, "velocity": 90}, {"time": 108722, "pitch": 45, "duration": 30, "velocity": 70}, {"time": 108961, "pitch": 57, "duration": 230, "velocity": 90}, {"time": 108961, "pitch": 62, "duration": 230, "velocity": 95}, {"time": 108971, "pitch": 66, "duration": 230, "velocity": 100}, {"time": 109440, "pitch": 57, "duration": 229, "velocity": 90}, {"time": 109440, "pitch": 62, "duration": 229, "velocity": 95}, {"time": 109450, "pitch": 66, "duration": 229, "velocity": 100}, {"time": 109918, "pitch": 57, "duration": 30, "velocity": 100}, {"time": 110157, "pitch": 62, "duration": 230, "velocity": 95}, {"time": 110157, "pitch": 66, "duration": 230, "velocity": 100}, {"time": 110167, "pitch": 57, "duration": 230, "velocity": 90}, {"time": 110397, "pitch": 45, "duration": 359, "velocity": 90}, {"time": 110636, "pitch": 59, "duration": 120, "velocity": 100}, {"time": 110636, "pitch": 64, "duration": 120, "velocity": 105}, {"time": 110646, "pitch": 56, "duration": 119, "velocity": 95}, {"time": 110875, "pitch": 49, "duration": 10, "velocity": 90}, {"time": 111120, "pitch": 59, "duration": 122, "velocity": 95}, {"time": 111120, "pitch": 64, "duration": 122, "velocity": 100}, {"time": 111130, "pitch": 56, "duration": 123, "velocity": 90}, {"time": 111365, "pitch": 49, "duration": 30, "velocity": 95}, {"time": 111604, "pitch": 59, "duration": 239, "velocity": 100}, {"time": 111614, "pitch": 56, "duration": 229, "velocity": 90}, {"time": 111843, "pitch": 56, "duration": 229, "velocity": 90}, {"time": 111843, "pitch": 59, "duration": 229, "velocity": 95}, {"time": 111853, "pitch": 64, "duration": 229, "velocity": 100}, {"time": 112082, "pitch": 49, "duration": 30, "velocity": 90}, {"time": 112321, "pitch": 56, "duration": 230, "velocity": 90}, {"time": 112321, "pitch": 59, "duration": 230, "velocity": 95}, {"time": 112331, "pitch": 64, "duration": 230, "velocity": 100}, {"time": 112561, "pitch": 49, "duration": 30, "velocity": 90}, {"time": 112800, "pitch": 57, "duration": 229, "velocity": 90}, {"time": 112800, "pitch": 62, "duration": 229, "velocity": 95}, {"time": 112810, "pitch": 66, "duration": 229, "velocity": 100}, {"time": 113039, "pitch": 52, "duration": 30, "velocity": 90}, {"time": 113278, "pitch": 52, "duration": 30, "velocity": 90}, {"time": 113517, "pitch": 62, "duration": 230, "velocity": 95}, {"time": 113517, "pitch": 66, "duration": 230, "velocity": 100}, {"time": 113527, "pitch": 57, "duration": 230, "velocity": 90}, {"time": 113757, "pitch": 57, "duration": 229, "velocity": 100}, {"time": 113757, "pitch": 62, "duration": 229, "velocity": 95}, {"time": 113767, "pitch": 66, "duration": 229, "velocity": 90}, {"time": 113996, "pitch": 62, "duration": 229, "velocity": 95}, {"time": 113996, "pitch": 66, "duration": 229, "velocity": 100}, {"time": 114006, "pitch": 57, "duration": 229, "velocity": 90}, {"time": 114235, "pitch": 52, "duration": 31, "velocity": 90}, {"time": 114480, "pitch": 68, "duration": 484, "velocity": 95}, {"time": 114480, "pitch": 73, "duration": 484, "velocity": 100}, {"time": 114490, "pitch": 64, "duration": 474, "velocity": 90}, {"time": 114725, "pitch": 45, "duration": 30, "velocity": 90}, {"time": 114964, "pitch": 68, "duration": 229, "velocity": 95}, {"time": 114964, "pitch": 73, "duration": 229, "velocity": 90}, {"time": 114974, "pitch": 64, "duration": 229, "velocity": 100}, {"time": 115203, "pitch": 52, "duration": 30, "velocity": 90}, {"time": 115442, "pitch": 68, "duration": 239, "velocity": 95}, {"time": 115442, "pitch": 73, "duration": 239, "velocity": 90}, {"time": 115452, "pitch": 64, "duration": 229, "velocity": 100}, {"time": 115681, "pitch": 64, "duration": 240, "velocity": 90}, {"time": 115681, "pitch": 68, "duration": 240, "velocity": 95}, {"time": 115691, "pitch": 73, "duration": 230, "velocity": 100}, {"time": 115921, "pitch": 45, "duration": 30, "velocity": 90}, {"time": 116160, "pitch": 61, "duration": 239, "velocity": 90}, {"time": 116160, "pitch": 64, "duration": 239, "velocity": 95}, {"time": 116170, "pitch": 68, "duration": 229, "velocity": 100}, {"time": 116399, "pitch": 45, "duration": 30, "velocity": 90}, {"time": 116638, "pitch": 57, "duration": 230, "velocity": 90}, {"time": 116638, "pitch": 62, "duration": 230, "velocity": 95}, {"time": 116648, "pitch": 66, "duration": 229, "velocity": 100}, {"time": 116877, "pitch": 47, "duration": 30, "velocity": 90}, {"time": 117117, "pitch": 47, "duration": 30, "velocity": 90}, {"time": 117356, "pitch": 62, "duration": 229, "velocity": 95}, {"time": 117356, "pitch": 66, "duration": 229, "velocity": 100}, {"time": 117366, "pitch": 57, "duration": 229, "velocity": 90}, {"time": 117595, "pitch": 57, "duration": 235, "velocity": 100}, {"time": 117595, "pitch": 62, "duration": 235, "velocity": 95}, {"time": 117605, "pitch": 66, "duration": 235, "velocity": 90}, {"time": 117840, "pitch": 62, "duration": 235, "velocity": 95}, {"time": 117840, "pitch": 66, "duration": 235, "velocity": 100}, {"time": 117850, "pitch": 57, "duration": 235, "velocity": 90}, {"time": 118085, "pitch": 47, "duration": 30, "velocity": 90}, {"time": 118324, "pitch": 62, "duration": 239, "velocity": 95}, {"time": 118324, "pitch": 66, "duration": 239, "velocity": 100}, {"time": 118334, "pitch": 57, "duration": 229, "velocity": 90}, {"time": 118563, "pitch": 47, "duration": 30, "velocity": 90}, {"time": 118802, "pitch": 62, "duration": 230, "velocity": 95}, {"time": 118802, "pitch": 66, "duration": 230, "velocity": 90}, {"time": 118812, "pitch": 57, "duration": 229, "velocity": 100}, {"time": 119041, "pitch": 47, "duration": 30, "velocity": 90}, {"time": 119281, "pitch": 62, "duration": 239, "velocity": 95}, {"time": 119281, "pitch": 66, "duration": 239, "velocity": 90}, {"time": 119291, "pitch": 57, "duration": 229, "velocity": 100}, {"time": 119520, "pitch": 57, "duration": 239, "velocity": 90}, {"time": 119520, "pitch": 62, "duration": 239, "velocity": 95}, {"time": 119530, "pitch": 66, "duration": 229, "velocity": 100}, {"time": 119759, "pitch": 47, "duration": 30, "velocity": 90}, {"time": 119998, "pitch": 57, "duration": 239, "velocity": 90}, {"time": 119998, "pitch": 62, "duration": 239, "velocity": 95}, {"time": 120008, "pitch": 66, "duration": 229, "velocity": 100}, {"time": 120237, "pitch": 47, "duration": 30, "velocity": 90}, {"time": 120477, "pitch": 59, "duration": 229, "velocity": 90}, {"time": 120477, "pitch": 64, "duration": 229, "velocity": 95}, {"time": 120487, "pitch": 68, "duration": 229, "velocity": 100}, {"time": 120716, "pitch": 49, "duration": 30, "velocity": 90}, {"time": 120955, "pitch": 49, "duration": 31, "velocity": 90}, {"time": 121200, "pitch": 64, "duration": 235, "velocity": 95}, {"time": 121200, "pitch": 68, "duration": 235, "velocity": 100}, {"time": 121210, "pitch": 59, "duration": 235, "velocity": 90}, {"time": 121445, "pitch": 59, "duration": 229, "velocity": 100}, {"time": 121445, "pitch": 64, "duration": 229, "velocity": 95}, {"time": 121455, "pitch": 68, "duration": 229, "velocity": 90}, {"time": 121684, "pitch": 64, "duration": 229, "velocity": 95}, {"time": 121684, "pitch": 68, "duration": 229, "velocity": 100}, {"time": 121694, "pitch": 59, "duration": 229, "velocity": 90}, {"time": 121923, "pitch": 49, "duration": 30, "velocity": 90}, {"time": 122162, "pitch": 64, "duration": 479, "velocity": 95}, {"time": 122162, "pitch": 68, "duration": 479, "velocity": 100}, {"time": 122172, "pitch": 59, "duration": 459, "velocity": 90}, {"time": 122641, "pitch": 64, "duration": 229, "velocity": 95}, {"time": 122641, "pitch": 68, "duration": 229, "velocity": 90}, {"time": 122651, "pitch": 59, "duration": 229, "velocity": 100}, {"time": 122880, "pitch": 49, "duration": 30, "velocity": 90}, {"time": 123119, "pitch": 64, "duration": 239, "velocity": 95}, {"time": 123119, "pitch": 68, "duration": 239, "velocity": 90}, {"time": 123129, "pitch": 59, "duration": 229, "velocity": 100}, {"time": 123358, "pitch": 59, "duration": 239, "velocity": 90}, {"time": 123358, "pitch": 64, "duration": 239, "velocity": 95}, {"time": 123368, "pitch": 68, "duration": 229, "velocity": 100}, {"time": 123597, "pitch": 49, "duration": 30, "velocity": 90}, {"time": 123837, "pitch": 59, "duration": 239, "velocity": 90}, {"time": 123837, "pitch": 64, "duration": 239, "velocity": 95}, {"time": 123847, "pitch": 68, "duration": 229, "velocity": 100}, {"time": 124076, "pitch": 49, "duration": 30, "velocity": 90}, {"time": 124315, "pitch": 57, "duration": 235, "velocity": 90}, {"time": 124315, "pitch": 62, "duration": 235, "velocity": 95}, {"time": 124325, "pitch": 66, "duration": 235, "velocity": 100}, {"time": 124560, "pitch": 47, "duration": 30, "velocity": 90}, {"time": 124805, "pitch": 47, "duration": 30, "velocity": 90}, {"time": 125044, "pitch": 62, "duration": 229, "velocity": 95}, {"time": 125044, "pitch": 66, "duration": 229, "velocity": 100}, {"time": 125054, "pitch": 57, "duration": 229, "velocity": 90}, {"time": 125283, "pitch": 57, "duration": 229, "velocity": 100}, {"time": 125283, "pitch": 62, "duration": 229, "velocity": 95}, {"time": 125293, "pitch": 66, "duration": 229, "velocity": 90}, {"time": 125522, "pitch": 62, "duration": 230, "velocity": 95}, {"time": 125522, "pitch": 66, "duration": 230, "velocity": 100}, {"time": 125532, "pitch": 57, "duration": 229, "velocity": 90}, {"time": 125761, "pitch": 47, "duration": 30, "velocity": 90}, {"time": 126001, "pitch": 62, "duration": 478, "velocity": 95}, {"time": 126001, "pitch": 66, "duration": 478, "velocity": 100}, {"time": 126011, "pitch": 57, "duration": 458, "velocity": 90}, {"time": 126479, "pitch": 62, "duration": 229, "velocity": 95}, {"time": 126479, "pitch": 66, "duration": 229, "velocity": 90}, {"time": 126489, "pitch": 57, "duration": 229, "velocity": 100}, {"time": 126718, "pitch": 47, "duration": 30, "velocity": 90}, {"time": 126957, "pitch": 62, "duration": 240, "velocity": 95}, {"time": 126957, "pitch": 66, "duration": 240, "velocity": 90}, {"time": 126967, "pitch": 57, "duration": 230, "velocity": 100}, {"time": 127197, "pitch": 57, "duration": 239, "velocity": 90}, {"time": 127197, "pitch": 62, "duration": 239, "velocity": 95}, {"time": 127207, "pitch": 66, "duration": 229, "velocity": 100}, {"time": 127436, "pitch": 47, "duration": 30, "velocity": 90}, {"time": 127675, "pitch": 57, "duration": 245, "velocity": 90}, {"time": 127675, "pitch": 62, "duration": 245, "velocity": 95}, {"time": 127685, "pitch": 66, "duration": 235, "velocity": 100}, {"time": 127920, "pitch": 47, "duration": 30, "velocity": 90}, {"time": 128165, "pitch": 60, "duration": 239, "velocity": 90}, {"time": 128165, "pitch": 65, "duration": 239, "velocity": 95}, {"time": 128175, "pitch": 69, "duration": 478, "velocity": 100}, {"time": 128404, "pitch": 65, "duration": 239, "velocity": 80}, {"time": 128414, "pitch": 60, "duration": 219, "velocity": 90}, {"time": 128643, "pitch": 60, "duration": 239, "velocity": 90}, {"time": 128643, "pitch": 65, "duration": 239, "velocity": 95}, {"time": 128653, "pitch": 69, "duration": 478, "velocity": 100}, {"time": 128882, "pitch": 65, "duration": 239, "velocity": 80}, {"time": 128892, "pitch": 60, "duration": 219, "velocity": 90}, {"time": 129121, "pitch": 60, "duration": 240, "velocity": 90}, {"time": 129121, "pitch": 65, "duration": 240, "velocity": 95}, {"time": 129131, "pitch": 69, "duration": 479, "velocity": 100}, {"time": 129361, "pitch": 65, "duration": 239, "velocity": 80}, {"time": 129371, "pitch": 60, "duration": 219, "velocity": 90}, {"time": 129600, "pitch": 60, "duration": 119, "velocity": 90}, {"time": 129600, "pitch": 65, "duration": 119, "velocity": 95}, {"time": 129610, "pitch": 69, "duration": 119, "velocity": 100}, {"time": 129839, "pitch": 66, "duration": 478, "velocity": 95}, {"time": 129839, "pitch": 69, "duration": 478, "velocity": 100}, {"time": 129849, "pitch": 62, "duration": 468, "velocity": 90}, {"time": 130317, "pitch": 62, "duration": 240, "velocity": 90}, {"time": 130317, "pitch": 66, "duration": 240, "velocity": 95}, {"time": 130327, "pitch": 69, "duration": 230, "velocity": 100}, {"time": 130557, "pitch": 62, "duration": 20, "velocity": 80}, {"time": 130796, "pitch": 62, "duration": 20, "velocity": 80}, {"time": 131035, "pitch": 57, "duration": 490, "velocity": 80}, {"time": 131035, "pitch": 62, "duration": 245, "velocity": 85}, {"time": 131045, "pitch": 66, "duration": 235, "velocity": 90}, {"time": 131280, "pitch": 66, "duration": 245, "velocity": 95}, {"time": 131280, "pitch": 71, "duration": 484, "velocity": 100}, {"time": 131290, "pitch": 62, "duration": 235, "velocity": 90}, {"time": 131525, "pitch": 57, "duration": 229, "velocity": 85}, {"time": 131525, "pitch": 62, "duration": 229, "velocity": 90}, {"time": 131535, "pitch": 66, "duration": 229, "velocity": 95}, {"time": 131764, "pitch": 52, "duration": 20, "velocity": 80}, {"time": 132003, "pitch": 57, "duration": 229, "velocity": 90}, {"time": 132003, "pitch": 61, "duration": 229, "velocity": 95}, {"time": 132013, "pitch": 64, "duration": 229, "velocity": 100}, {"time": 132481, "pitch": 57, "duration": 230, "velocity": 90}, {"time": 132481, "pitch": 61, "duration": 230, "velocity": 95}, {"time": 132491, "pitch": 64, "duration": 230, "velocity": 100}, {"time": 132960, "pitch": 57, "duration": 30, "velocity": 100}, {"time": 133199, "pitch": 61, "duration": 229, "velocity": 95}, {"time": 133199, "pitch": 64, "duration": 229, "velocity": 100}, {"time": 133209, "pitch": 57, "duration": 229, "velocity": 90}, {"time": 133438, "pitch": 57, "duration": 359, "velocity": 90}, {"time": 133677, "pitch": 61, "duration": 120, "velocity": 100}, {"time": 133677, "pitch": 64, "duration": 120, "velocity": 105}, {"time": 133687, "pitch": 58, "duration": 120, "velocity": 95}, {"time": 133917, "pitch": 58, "duration": 30, "velocity": 90}, {"time": 134156, "pitch": 61, "duration": 229, "velocity": 95}, {"time": 134156, "pitch": 64, "duration": 229, "velocity": 90}, {"time": 134166, "pitch": 58, "duration": 229, "velocity": 100}, {"time": 134395, "pitch": 58, "duration": 31, "velocity": 90}, {"time": 134640, "pitch": 58, "duration": 30, "velocity": 80}, {"time": 134885, "pitch": 61, "duration": 159, "velocity": 85}, {"time": 134895, "pitch": 64, "duration": 159, "velocity": 90}, {"time": 135124, "pitch": 58, "duration": 30, "velocity": 70}, {"time": 135363, "pitch": 61, "duration": 160, "velocity": 85}, {"time": 135373, "pitch": 64, "duration": 159, "velocity": 90}, {"time": 135602, "pitch": 58, "duration": 30, "velocity": 70}, {"time": 135841, "pitch": 57, "duration": 230, "velocity": 90}, {"time": 135841, "pitch": 62, "duration": 230, "velocity": 95}, {"time": 135851, "pitch": 66, "duration": 230, "velocity": 100}, {"time": 136320, "pitch": 57, "duration": 229, "velocity": 90}, {"time": 136320, "pitch": 62, "duration": 229, "velocity": 95}, {"time": 136330, "pitch": 66, "duration": 229, "velocity": 100}, {"time": 136798, "pitch": 57, "duration": 30, "velocity": 100}, {"time": 137037, "pitch": 62, "duration": 230, "velocity": 95}, {"time": 137037, "pitch": 66, "duration": 230, "velocity": 100}, {"time": 137047, "pitch": 57, "duration": 230, "velocity": 90}, {"time": 137277, "pitch": 57, "duration": 358, "velocity": 90}, {"time": 137516, "pitch": 65, "duration": 474, "velocity": 100}, {"time": 137516, "pitch": 69, "duration": 474, "velocity": 105}, {"time": 137526, "pitch": 60, "duration": 260, "velocity": 95}, {"time": 138000, "pitch": 65, "duration": 235, "velocity": 95}, {"time": 138000, "pitch": 69, "duration": 235, "velocity": 90}, {"time": 138010, "pitch": 60, "duration": 235, "velocity": 100}, {"time": 138245, "pitch": 60, "duration": 30, "velocity": 90}, {"time": 138484, "pitch": 60, "duration": 30, "velocity": 80}, {"time": 138723, "pitch": 60, "duration": 160, "velocity": 85}, {"time": 138733, "pitch": 65, "duration": 159, "velocity": 90}, {"time": 138962, "pitch": 60, "duration": 30, "velocity": 70}, {"time": 139201, "pitch": 60, "duration": 160, "velocity": 85}, {"time": 139211, "pitch": 65, "duration": 160, "velocity": 90}, {"time": 139441, "pitch": 60, "duration": 30, "velocity": 70}, {"time": 139680, "pitch": 59, "duration": 229, "velocity": 90}, {"time": 139680, "pitch": 64, "duration": 229, "velocity": 95}, {"time": 139690, "pitch": 68, "duration": 229, "velocity": 100}, {"time": 140158, "pitch": 59, "duration": 229, "velocity": 90}, {"time": 140158, "pitch": 64, "duration": 229, "velocity": 95}, {"time": 140168, "pitch": 68, "duration": 229, "velocity": 100}, {"time": 140637, "pitch": 59, "duration": 30, "velocity": 100}, {"time": 140876, "pitch": 64, "duration": 229, "velocity": 95}, {"time": 140876, "pitch": 68, "duration": 229, "velocity": 100}, {"time": 140886, "pitch": 59, "duration": 229, "velocity": 90}, {"time": 141115, "pitch": 59, "duration": 367, "velocity": 90}, {"time": 141360, "pitch": 61, "duration": 474, "velocity": 100}, {"time": 141360, "pitch": 66, "duration": 474, "velocity": 105}, {"time": 141370, "pitch": 58, "duration": 265, "velocity": 95}, {"time": 141844, "pitch": 61, "duration": 229, "velocity": 95}, {"time": 141844, "pitch": 66, "duration": 229, "velocity": 90}, {"time": 141854, "pitch": 58, "duration": 229, "velocity": 100}, {"time": 142083, "pitch": 58, "duration": 30, "velocity": 90}, {"time": 142322, "pitch": 58, "duration": 30, "velocity": 80}, {"time": 142561, "pitch": 61, "duration": 160, "velocity": 85}, {"time": 142571, "pitch": 66, "duration": 160, "velocity": 90}, {"time": 142801, "pitch": 58, "duration": 30, "velocity": 70}, {"time": 143040, "pitch": 61, "duration": 159, "velocity": 85}, {"time": 143050, "pitch": 66, "duration": 159, "velocity": 90}, {"time": 143279, "pitch": 58, "duration": 30, "velocity": 70}, {"time": 143518, "pitch": 57, "duration": 229, "velocity": 90}, {"time": 143518, "pitch": 62, "duration": 229, "velocity": 95}, {"time": 143528, "pitch": 66, "duration": 229, "velocity": 100}, {"time": 143997, "pitch": 57, "duration": 229, "velocity": 90}, {"time": 143997, "pitch": 62, "duration": 229, "velocity": 95}, {"time": 144007, "pitch": 66, "duration": 229, "velocity": 100}, {"time": 144475, "pitch": 57, "duration": 31, "velocity": 100}, {"time": 144720, "pitch": 62, "duration": 235, "velocity": 95}, {"time": 144720, "pitch": 66, "duration": 235, "velocity": 100}, {"time": 144730, "pitch": 57, "duration": 235, "velocity": 90}, {"time": 144965, "pitch": 57, "duration": 239, "velocity": 90}, {"time": 145204, "pitch": 62, "duration": 468, "velocity": 100}, {"time": 145204, "pitch": 66, "duration": 468, "velocity": 105}, {"time": 145214, "pitch": 57, "duration": 259, "velocity": 95}, {"time": 145682, "pitch": 62, "duration": 229, "velocity": 95}, {"time": 145682, "pitch": 66, "duration": 229, "velocity": 90}, {"time": 145692, "pitch": 57, "duration": 229, "velocity": 100}, {"time": 145921, "pitch": 57, "duration": 30, "velocity": 90}, {"time": 146161, "pitch": 57, "duration": 30, "velocity": 80}, {"time": 146400, "pitch": 62, "duration": 159, "velocity": 85}, {"time": 146410, "pitch": 66, "duration": 159, "velocity": 90}, {"time": 146639, "pitch": 57, "duration": 30, "velocity": 70}, {"time": 146878, "pitch": 62, "duration": 160, "velocity": 85}, {"time": 146888, "pitch": 66, "duration": 160, "velocity": 90}, {"time": 147117, "pitch": 57, "duration": 30, "velocity": 70}, {"time": 147357, "pitch": 57, "duration": 229, "velocity": 90}, {"time": 147357, "pitch": 61, "duration": 229, "velocity": 95}, {"time": 147367, "pitch": 64, "duration": 229, "velocity": 100}, {"time": 147835, "pitch": 57, "duration": 235, "velocity": 90}, {"time": 147835, "pitch": 61, "duration": 235, "velocity": 95}, {"time": 147845, "pitch": 64, "duration": 235, "velocity": 100}, {"time": 148325, "pitch": 57, "duration": 30, "velocity": 100}, {"time": 148564, "pitch": 61, "duration": 229, "velocity": 95}, {"time": 148564, "pitch": 64, "duration": 229, "velocity": 100}, {"time": 148574, "pitch": 57, "duration": 229, "velocity": 90}, {"time": 148803, "pitch": 57, "duration": 359, "velocity": 90}, {"time": 149042, "pitch": 61, "duration": 120, "velocity": 100}, {"time": 149042, "pitch": 64, "duration": 120, "velocity": 105}, {"time": 149052, "pitch": 58, "duration": 120, "velocity": 95}, {"time": 149281, "pitch": 58, "duration": 30, "velocity": 90}, {"time": 149521, "pitch": 61, "duration": 229, "velocity": 95}, {"time": 149521, "pitch": 64, "duration": 229, "velocity": 90}, {"time": 149531, "pitch": 58, "duration": 229, "velocity": 100}, {"time": 149760, "pitch": 58, "duration": 30, "velocity": 90}, {"time": 149999, "pitch": 58, "duration": 30, "velocity": 80}, {"time": 150238, "pitch": 61, "duration": 160, "velocity": 85}, {"time": 150248, "pitch": 64, "duration": 160, "velocity": 90}, {"time": 150477, "pitch": 58, "duration": 30, "velocity": 70}, {"time": 150717, "pitch": 61, "duration": 159, "velocity": 85}, {"time": 150727, "pitch": 64, "duration": 159, "velocity": 90}, {"time": 150956, "pitch": 58, "duration": 30, "velocity": 70}, {"time": 151195, "pitch": 57, "duration": 235, "velocity": 90}, {"time": 151195, "pitch": 62, "duration": 235, "velocity": 95}, {"time": 151205, "pitch": 66, "duration": 235, "velocity": 100}, {"time": 151685, "pitch": 57, "duration": 229, "velocity": 90}, {"time": 151685, "pitch": 62, "duration": 229, "velocity": 95}, {"time": 151695, "pitch": 66, "duration": 229, "velocity": 100}, {"time": 152163, "pitch": 57, "duration": 30, "velocity": 100}, {"time": 152402, "pitch": 62, "duration": 229, "velocity": 95}, {"time": 152402, "pitch": 66, "duration": 229, "velocity": 100}, {"time": 152412, "pitch": 57, "duration": 229, "velocity": 90}, {"time": 152641, "pitch": 57, "duration": 359, "velocity": 90}, {"time": 152881, "pitch": 65, "duration": 468, "velocity": 100}, {"time": 152881, "pitch": 69, "duration": 468, "velocity": 105}, {"time": 152891, "pitch": 60, "duration": 259, "velocity": 95}, {"time": 153359, "pitch": 65, "duration": 229, "velocity": 95}, {"time": 153359, "pitch": 69, "duration": 229, "velocity": 90}, {"time": 153369, "pitch": 60, "duration": 229, "velocity": 100}, {"time": 153598, "pitch": 60, "duration": 30, "velocity": 90}, {"time": 153837, "pitch": 60, "duration": 30, "velocity": 80}, {"time": 154077, "pitch": 60, "duration": 159, "velocity": 85}, {"time": 154087, "pitch": 65, "duration": 159, "velocity": 90}, {"time": 154316, "pitch": 60, "duration": 30, "velocity": 70}, {"time": 154555, "pitch": 60, "duration": 163, "velocity": 85}, {"time": 154565, "pitch": 65, "duration": 163, "velocity": 90}, {"time": 154800, "pitch": 60, "duration": 30, "velocity": 70}, {"time": 155045, "pitch": 59, "duration": 229, "velocity": 90}, {"time": 155045, "pitch": 64, "duration": 229, "velocity": 95}, {"time": 155055, "pitch": 68, "duration": 229, "velocity": 100}, {"time": 155523, "pitch": 59, "duration": 229, "velocity": 90}, {"time": 155523, "pitch": 64, "duration": 229, "velocity": 95}, {"time": 155533, "pitch": 68, "duration": 229, "velocity": 100}, {"time": 156001, "pitch": 59, "duration": 30, "velocity": 100}, {"time": 156241, "pitch": 64, "duration": 229, "velocity": 95}, {"time": 156241, "pitch": 68, "duration": 229, "velocity": 100}, {"time": 156251, "pitch": 59, "duration": 229, "velocity": 90}, {"time": 156480, "pitch": 59, "duration": 359, "velocity": 90}, {"time": 156719, "pitch": 61, "duration": 468, "velocity": 100}, {"time": 156719, "pitch": 66, "duration": 468, "velocity": 105}, {"time": 156729, "pitch": 58, "duration": 259, "velocity": 95}, {"time": 157197, "pitch": 61, "duration": 230, "velocity": 95}, {"time": 157197, "pitch": 66, "duration": 230, "velocity": 90}, {"time": 157207, "pitch": 58, "duration": 230, "velocity": 100}, {"time": 157437, "pitch": 58, "duration": 30, "velocity": 90}, {"time": 157676, "pitch": 58, "duration": 30, "velocity": 80}, {"time": 157915, "pitch": 61, "duration": 163, "velocity": 85}, {"time": 157925, "pitch": 66, "duration": 163, "velocity": 90}, {"time": 158160, "pitch": 58, "duration": 30, "velocity": 70}, {"time": 158405, "pitch": 61, "duration": 159, "velocity": 85}, {"time": 158415, "pitch": 66, "duration": 159, "velocity": 90}, {"time": 158644, "pitch": 58, "duration": 30, "velocity": 70}, {"time": 158883, "pitch": 57, "duration": 229, "velocity": 90}, {"time": 158883, "pitch": 62, "duration": 229, "velocity": 95}, {"time": 158893, "pitch": 66, "duration": 229, "velocity": 100}, {"time": 159361, "pitch": 57, "duration": 230, "velocity": 90}, {"time": 159361, "pitch": 62, "duration": 230, "velocity": 95}, {"time": 159371, "pitch": 66, "duration": 230, "velocity": 100}, {"time": 159840, "pitch": 57, "duration": 30, "velocity": 100}, {"time": 160079, "pitch": 62, "duration": 229, "velocity": 95}, {"time": 160079, "pitch": 66, "duration": 229, "velocity": 100}, {"time": 160089, "pitch": 57, "duration": 229, "velocity": 90}, {"time": 160318, "pitch": 57, "duration": 239, "velocity": 90}, {"time": 160557, "pitch": 62, "duration": 469, "velocity": 100}, {"time": 160557, "pitch": 66, "duration": 469, "velocity": 105}, {"time": 160567, "pitch": 57, "duration": 260, "velocity": 95}, {"time": 161036, "pitch": 62, "duration": 229, "velocity": 95}, {"time": 161036, "pitch": 66, "duration": 229, "velocity": 90}, {"time": 161046, "pitch": 57, "duration": 229, "velocity": 100}, {"time": 161275, "pitch": 57, "duration": 31, "velocity": 90}, {"time": 161520, "pitch": 57, "duration": 30, "velocity": 80}, {"time": 161765, "pitch": 62, "duration": 159, "velocity": 85}, {"time": 161775, "pitch": 66, "duration": 159, "velocity": 90}, {"time": 162004, "pitch": 57, "duration": 30, "velocity": 70}, {"time": 162243, "pitch": 62, "duration": 159, "velocity": 85}, {"time": 162253, "pitch": 66, "duration": 159, "velocity": 90}, {"time": 162482, "pitch": 57, "duration": 30, "velocity": 70}, {"time": 162721, "pitch": 55, "duration": 459, "velocity": 90}, {"time": 162721, "pitch": 60, "duration": 459, "velocity": 95}, {"time": 162721, "pitch": 64, "duration": 459, "velocity": 100}, {"time": 163200, "pitch": 50, "duration": 119, "velocity": 80}, {"time": 163439, "pitch": 60, "duration": 478, "velocity": 90}, {"time": 163439, "pitch": 64, "duration": 478, "velocity": 85}, {"time": 163449, "pitch": 55, "duration": 468, "velocity": 95}, {"time": 163917, "pitch": 60, "duration": 120, "velocity": 95}, {"time": 163917, "pitch": 64, "duration": 120, "velocity": 100}, {"time": 163927, "pitch": 55, "duration": 120, "velocity": 90}, {"time": 164157, "pitch": 50, "duration": 119, "velocity": 80}, {"time": 164396, "pitch": 60, "duration": 484, "velocity": 90}, {"time": 164396, "pitch": 64, "duration": 484, "velocity": 85}, {"time": 164406, "pitch": 55, "duration": 474, "velocity": 95}, {"time": 164880, "pitch": 60, "duration": 122, "velocity": 95}, {"time": 164880, "pitch": 64, "duration": 122, "velocity": 100}, {"time": 164890, "pitch": 55, "duration": 122, "velocity": 90}, {"time": 165125, "pitch": 50, "duration": 119, "velocity": 80}, {"time": 165364, "pitch": 60, "duration": 478, "velocity": 90}, {"time": 165364, "pitch": 64, "duration": 478, "velocity": 85}, {"time": 165374, "pitch": 55, "duration": 468, "velocity": 95}, {"time": 165842, "pitch": 60, "duration": 120, "velocity": 95}, {"time": 165842, "pitch": 64, "duration": 120, "velocity": 100}, {"time": 165852, "pitch": 55, "duration": 120, "velocity": 90}, {"time": 166081, "pitch": 50, "duration": 120, "velocity": 80}, {"time": 166321, "pitch": 61, "duration": 478, "velocity": 90}, {"time": 166321, "pitch": 64, "duration": 478, "velocity": 85}, {"time": 166331, "pitch": 56, "duration": 468, "velocity": 95}, {"time": 166799, "pitch": 61, "duration": 120, "velocity": 95}, {"time": 166799, "pitch": 64, "duration": 120, "velocity": 100}, {"time": 166809, "pitch": 56, "duration": 120, "velocity": 90}, {"time": 167038, "pitch": 50, "duration": 120, "velocity": 80}, {"time": 167277, "pitch": 61, "duration": 479, "velocity": 90}, {"time": 167277, "pitch": 64, "duration": 479, "velocity": 85}, {"time": 167287, "pitch": 56, "duration": 469, "velocity": 95}, {"time": 167756, "pitch": 61, "duration": 119, "velocity": 95}, {"time": 167756, "pitch": 64, "duration": 119, "velocity": 100}, {"time": 167766, "pitch": 56, "duration": 119, "velocity": 90}, {"time": 167995, "pitch": 50, "duration": 122, "velocity": 80}, {"time": 168240, "pitch": 61, "duration": 484, "velocity": 90}, {"time": 168240, "pitch": 64, "duration": 484, "velocity": 85}, {"time": 168250, "pitch": 56, "duration": 474, "velocity": 95}, {"time": 168724, "pitch": 61, "duration": 119, "velocity": 95}, {"time": 168724, "pitch": 64, "duration": 119, "velocity": 100}, {"time": 168734, "pitch": 56, "duration": 119, "velocity": 90}, {"time": 168963, "pitch": 50, "duration": 120, "velocity": 80}, {"time": 169202, "pitch": 61, "duration": 479, "velocity": 90}, {"time": 169202, "pitch": 64, "duration": 479, "velocity": 85}, {"time": 169212, "pitch": 56, "duration": 469, "velocity": 95}, {"time": 169681, "pitch": 61, "duration": 119, "velocity": 95}, {"time": 169681, "pitch": 64, "duration": 119, "velocity": 100}, {"time": 169691, "pitch": 56, "duration": 119, "velocity": 90}, {"time": 169920, "pitch": 50, "duration": 119, "velocity": 80}, {"time": 170159, "pitch": 61, "duration": 120, "velocity": 85}, {"time": 170159, "pitch": 64, "duration": 120, "velocity": 90}, {"time": 170169, "pitch": 56, "duration": 120, "velocity": 80}, {"time": 170398, "pitch": 55, "duration": 459, "velocity": 90}, {"time": 170398, "pitch": 60, "duration": 459, "velocity": 95}, {"time": 170398, "pitch": 64, "duration": 459, "velocity": 100}, {"time": 170877, "pitch": 50, "duration": 119, "velocity": 80}, {"time": 171116, "pitch": 60, "duration": 484, "velocity": 90}, {"time": 171116, "pitch": 64, "duration": 484, "velocity": 85}, {"time": 171126, "pitch": 55, "duration": 474, "velocity": 95}, {"time": 171600, "pitch": 60, "duration": 122, "velocity": 95}, {"time": 171600, "pitch": 64, "duration": 122, "velocity": 100}, {"time": 171610, "pitch": 55, "duration": 122, "velocity": 90}, {"time": 171845, "pitch": 50, "duration": 119, "velocity": 80}, {"time": 172084, "pitch": 60, "duration": 478, "velocity": 90}, {"time": 172084, "pitch": 64, "duration": 478, "velocity": 85}, {"time": 172094, "pitch": 55, "duration": 468, "velocity": 95}, {"time": 172562, "pitch": 60, "duration": 120, "velocity": 95}, {"time": 172562, "pitch": 64, "duration": 120, "velocity": 100}, {"time": 172572, "pitch": 55, "duration": 120, "velocity": 90}, {"time": 172801, "pitch": 50, "duration": 120, "velocity": 80}, {"time": 173041, "pitch": 60, "duration": 478, "velocity": 90}, {"time": 173041, "pitch": 64, "duration": 478, "velocity": 85}, {"time": 173051, "pitch": 55, "duration": 468, "velocity": 95}, {"time": 173519, "pitch": 60, "duration": 120, "velocity": 95}, {"time": 173519, "pitch": 64, "duration": 120, "velocity": 100}, {"time": 173529, "pitch": 55, "duration": 120, "velocity": 90}, {"time": 173758, "pitch": 50, "duration": 120, "velocity": 80}, {"time": 173997, "pitch": 60, "duration": 240, "velocity": 90}, {"time": 173997, "pitch": 64, "duration": 240, "velocity": 85}, {"time": 174007, "pitch": 55, "duration": 230, "velocity": 95}, {"time": 174237, "pitch": 54, "duration": 458, "velocity": 90}, {"time": 174237, "pitch": 62, "duration": 458, "velocity": 95}, {"time": 174237, "pitch": 64, "duration": 458, "velocity": 100}, {"time": 174715, "pitch": 52, "duration": 122, "velocity": 80}, {"time": 174960, "pitch": 54, "duration": 484, "velocity": 85}, {"time": 174960, "pitch": 62, "duration": 484, "velocity": 90}, {"time": 174970, "pitch": 64, "duration": 474, "velocity": 95}, {"time": 175444, "pitch": 62, "duration": 119, "velocity": 95}, {"time": 175444, "pitch": 64, "duration": 119, "velocity": 100}, {"time": 175454, "pitch": 54, "duration": 119, "velocity": 90}, {"time": 175683, "pitch": 52, "duration": 120, "velocity": 80}, {"time": 175922, "pitch": 62, "duration": 239, "velocity": 90}, {"time": 175922, "pitch": 64, "duration": 239, "velocity": 85}, {"time": 175932, "pitch": 54, "duration": 229, "velocity": 95}, {"time": 176161, "pitch": 57, "duration": 120, "velocity": 85}, {"time": 176161, "pitch": 61, "duration": 120, "velocity": 90}, {"time": 176171, "pitch": 64, "duration": 120, "velocity": 95}, {"time": 176640, "pitch": 57, "duration": 1435, "velocity": 90}, {"time": 176640, "pitch": 61, "duration": 1435, "velocity": 95}, {"time": 176650, "pitch": 64, "duration": 1425, "velocity": 100}, {"time": 178075, "pitch": 57, "duration": 235, "velocity": 90}, {"time": 178075, "pitch": 62, "duration": 235, "velocity": 95}, {"time": 178085, "pitch": 66, "duration": 235, "velocity": 100}, {"time": 178320, "pitch": 47, "duration": 30, "velocity": 90}, {"time": 178565, "pitch": 47, "duration": 30, "velocity": 90}, {"time": 178804, "pitch": 62, "duration": 229, "velocity": 95}, {"time": 178804, "pitch": 66, "duration": 229, "velocity": 100}, {"time": 178814, "pitch": 57, "duration": 229, "velocity": 90}, {"time": 179043, "pitch": 57, "duration": 229, "velocity": 100}, {"time": 179043, "pitch": 62, "duration": 229, "velocity": 95}, {"time": 179053, "pitch": 66, "duration": 229, "velocity": 90}, {"time": 179282, "pitch": 62, "duration": 229, "velocity": 95}, {"time": 179282, "pitch": 66, "duration": 229, "velocity": 100}, {"time": 179292, "pitch": 57, "duration": 229, "velocity": 90}, {"time": 179521, "pitch": 47, "duration": 30, "velocity": 90}, {"time": 179761, "pitch": 62, "duration": 239, "velocity": 95}, {"time": 179761, "pitch": 66, "duration": 239, "velocity": 100}, {"time": 179771, "pitch": 57, "duration": 229, "velocity": 90}, {"time": 180000, "pitch": 47, "duration": 30, "velocity": 90}, {"time": 180239, "pitch": 62, "duration": 229, "velocity": 95}, {"time": 180239, "pitch": 66, "duration": 229, "velocity": 90}, {"time": 180249, "pitch": 57, "duration": 229, "velocity": 100}, {"time": 180478, "pitch": 47, "duration": 30, "velocity": 90}, {"time": 180717, "pitch": 62, "duration": 240, "velocity": 95}, {"time": 180717, "pitch": 66, "duration": 240, "velocity": 90}, {"time": 180727, "pitch": 57, "duration": 230, "velocity": 100}, {"time": 180957, "pitch": 57, "duration": 239, "velocity": 90}, {"time": 180957, "pitch": 62, "duration": 239, "velocity": 95}, {"time": 180967, "pitch": 66, "duration": 229, "velocity": 100}, {"time": 181196, "pitch": 47, "duration": 30, "velocity": 90}, {"time": 181435, "pitch": 57, "duration": 245, "velocity": 90}, {"time": 181435, "pitch": 62, "duration": 245, "velocity": 95}, {"time": 181445, "pitch": 66, "duration": 235, "velocity": 100}, {"time": 181680, "pitch": 47, "duration": 30, "velocity": 90}, {"time": 181925, "pitch": 59, "duration": 229, "velocity": 90}, {"time": 181925, "pitch": 64, "duration": 229, "velocity": 95}, {"time": 181935, "pitch": 68, "duration": 229, "velocity": 100}, {"time": 182164, "pitch": 49, "duration": 30, "velocity": 90}, {"time": 182403, "pitch": 49, "duration": 30, "velocity": 90}, {"time": 182642, "pitch": 64, "duration": 229, "velocity": 95}, {"time": 182642, "pitch": 68, "duration": 229, "velocity": 100}, {"time": 182652, "pitch": 59, "duration": 229, "velocity": 90}, {"time": 182881, "pitch": 59, "duration": 230, "velocity": 100}, {"time": 182881, "pitch": 64, "duration": 230, "velocity": 95}, {"time": 182891, "pitch": 68, "duration": 230, "velocity": 90}, {"time": 183121, "pitch": 64, "duration": 229, "velocity": 95}, {"time": 183121, "pitch": 68, "duration": 229, "velocity": 100}, {"time": 183131, "pitch": 59, "duration": 229, "velocity": 90}, {"time": 183360, "pitch": 49, "duration": 30, "velocity": 90}, {"time": 183599, "pitch": 64, "duration": 478, "velocity": 95}, {"time": 183599, "pitch": 68, "duration": 478, "velocity": 100}, {"time": 183609, "pitch": 59, "duration": 458, "velocity": 90}, {"time": 184077, "pitch": 64, "duration": 230, "velocity": 95}, {"time": 184077, "pitch": 68, "duration": 230, "velocity": 90}, {"time": 184087, "pitch": 59, "duration": 230, "velocity": 100}, {"time": 184317, "pitch": 49, "duration": 30, "velocity": 90}, {"time": 184556, "pitch": 64, "duration": 239, "velocity": 95}, {"time": 184556, "pitch": 68, "duration": 239, "velocity": 90}, {"time": 184566, "pitch": 59, "duration": 229, "velocity": 100}, {"time": 184795, "pitch": 59, "duration": 245, "velocity": 90}, {"time": 184795, "pitch": 64, "duration": 245, "velocity": 95}, {"time": 184805, "pitch": 68, "duration": 235, "velocity": 100}, {"time": 185040, "pitch": 49, "duration": 30, "velocity": 90}, {"time": 185285, "pitch": 59, "duration": 239, "velocity": 90}, {"time": 185285, "pitch": 64, "duration": 239, "velocity": 95}, {"time": 185295, "pitch": 68, "duration": 229, "velocity": 100}, {"time": 185524, "pitch": 49, "duration": 30, "velocity": 90}, {"time": 185763, "pitch": 57, "duration": 229, "velocity": 90}, {"time": 185763, "pitch": 62, "duration": 229, "velocity": 95}, {"time": 185773, "pitch": 66, "duration": 229, "velocity": 100}, {"time": 186002, "pitch": 47, "duration": 30, "velocity": 90}, {"time": 186241, "pitch": 47, "duration": 30, "velocity": 90}, {"time": 186481, "pitch": 62, "duration": 229, "velocity": 95}, {"time": 186481, "pitch": 66, "duration": 229, "velocity": 100}, {"time": 186491, "pitch": 57, "duration": 229, "velocity": 90}, {"time": 186720, "pitch": 57, "duration": 229, "velocity": 100}, {"time": 186720, "pitch": 62, "duration": 229, "velocity": 95}, {"time": 186730, "pitch": 66, "duration": 229, "velocity": 90}, {"time": 186959, "pitch": 62, "duration": 229, "velocity": 95}, {"time": 186959, "pitch": 66, "duration": 229, "velocity": 100}, {"time": 186969, "pitch": 57, "duration": 229, "velocity": 90}, {"time": 187198, "pitch": 47, "duration": 30, "velocity": 90}, {"time": 187437, "pitch": 62, "duration": 479, "velocity": 95}, {"time": 187437, "pitch": 66, "duration": 479, "velocity": 100}, {"time": 187447, "pitch": 57, "duration": 459, "velocity": 90}, {"time": 187916, "pitch": 62, "duration": 229, "velocity": 95}, {"time": 187916, "pitch": 66, "duration": 229, "velocity": 90}, {"time": 187926, "pitch": 57, "duration": 229, "velocity": 100}, {"time": 188155, "pitch": 47, "duration": 31, "velocity": 90}, {"time": 188400, "pitch": 62, "duration": 245, "velocity": 95}, {"time": 188400, "pitch": 66, "duration": 245, "velocity": 90}, {"time": 188410, "pitch": 57, "duration": 235, "velocity": 100}, {"time": 188645, "pitch": 57, "duration": 239, "velocity": 90}, {"time": 188645, "pitch": 62, "duration": 239, "velocity": 95}, {"time": 188655, "pitch": 66, "duration": 229, "velocity": 100}, {"time": 188884, "pitch": 47, "duration": 30, "velocity": 90}, {"time": 189123, "pitch": 57, "duration": 239, "velocity": 90}, {"time": 189123, "pitch": 62, "duration": 239, "velocity": 95}, {"time": 189133, "pitch": 66, "duration": 229, "velocity": 100}, {"time": 189362, "pitch": 47, "duration": 30, "velocity": 90}, {"time": 189601, "pitch": 60, "duration": 240, "velocity": 90}, {"time": 189601, "pitch": 65, "duration": 240, "velocity": 95}, {"time": 189611, "pitch": 69, "duration": 479, "velocity": 100}, {"time": 189841, "pitch": 65, "duration": 239, "velocity": 80}, {"time": 189851, "pitch": 60, "duration": 219, "velocity": 90}, {"time": 190080, "pitch": 60, "duration": 239, "velocity": 90}, {"time": 190080, "pitch": 65, "duration": 239, "velocity": 95}, {"time": 190090, "pitch": 69, "duration": 478, "velocity": 100}, {"time": 190319, "pitch": 65, "duration": 239, "velocity": 80}, {"time": 190329, "pitch": 60, "duration": 219, "velocity": 90}, {"time": 190558, "pitch": 60, "duration": 239, "velocity": 90}, {"time": 190558, "pitch": 65, "duration": 239, "velocity": 95}, {"time": 190568, "pitch": 69, "duration": 479, "velocity": 100}, {"time": 190797, "pitch": 65, "duration": 240, "velocity": 80}, {"time": 190807, "pitch": 60, "duration": 220, "velocity": 90}, {"time": 191037, "pitch": 60, "duration": 119, "velocity": 90}, {"time": 191037, "pitch": 65, "duration": 119, "velocity": 95}, {"time": 191047, "pitch": 69, "duration": 119, "velocity": 100}, {"time": 191276, "pitch": 66, "duration": 484, "velocity": 95}, {"time": 191276, "pitch": 69, "duration": 484, "velocity": 100}, {"time": 191286, "pitch": 62, "duration": 474, "velocity": 90}, {"time": 191760, "pitch": 62, "duration": 245, "velocity": 90}, {"time": 191760, "pitch": 66, "duration": 245, "velocity": 95}, {"time": 191770, "pitch": 69, "duration": 235, "velocity": 100}, {"time": 192005, "pitch": 62, "duration": 20, "velocity": 80}, {"time": 192244, "pitch": 62, "duration": 20, "velocity": 80}, {"time": 192483, "pitch": 57, "duration": 478, "velocity": 80}, {"time": 192483, "pitch": 62, "duration": 239, "velocity": 85}, {"time": 192493, "pitch": 66, "duration": 229, "velocity": 90}, {"time": 192722, "pitch": 66, "duration": 239, "velocity": 95}, {"time": 192722, "pitch": 71, "duration": 479, "velocity": 100}, {"time": 192732, "pitch": 62, "duration": 229, "velocity": 90}, {"time": 192961, "pitch": 57, "duration": 230, "velocity": 85}, {"time": 192961, "pitch": 62, "duration": 230, "velocity": 90}, {"time": 192971, "pitch": 66, "duration": 230, "velocity": 95}, {"time": 193201, "pitch": 52, "duration": 20, "velocity": 80}, {"time": 193440, "pitch": 57, "duration": 229, "velocity": 90}, {"time": 193440, "pitch": 61, "duration": 229, "velocity": 95}, {"time": 193450, "pitch": 64, "duration": 229, "velocity": 100}, {"time": 193918, "pitch": 57, "duration": 229, "velocity": 90}, {"time": 193918, "pitch": 61, "duration": 229, "velocity": 95}, {"time": 193928, "pitch": 64, "duration": 229, "velocity": 100}, {"time": 194397, "pitch": 57, "duration": 30, "velocity": 100}, {"time": 194636, "pitch": 61, "duration": 229, "velocity": 95}, {"time": 194636, "pitch": 64, "duration": 229, "velocity": 100}, {"time": 194646, "pitch": 57, "duration": 229, "velocity": 90}, {"time": 194875, "pitch": 57, "duration": 367, "velocity": 90}, {"time": 195120, "pitch": 61, "duration": 122, "velocity": 100}, {"time": 195120, "pitch": 64, "duration": 122, "velocity": 105}, {"time": 195130, "pitch": 58, "duration": 122, "velocity": 95}, {"time": 195365, "pitch": 58, "duration": 29, "velocity": 90}, {"time": 195604, "pitch": 61, "duration": 229, "velocity": 95}, {"time": 195604, "pitch": 64, "duration": 229, "velocity": 90}, {"time": 195614, "pitch": 58, "duration": 229, "velocity": 100}, {"time": 195843, "pitch": 58, "duration": 30, "velocity": 90}, {"time": 196082, "pitch": 58, "duration": 30, "velocity": 80}, {"time": 196321, "pitch": 61, "duration": 160, "velocity": 85}, {"time": 196331, "pitch": 64, "duration": 160, "velocity": 90}, {"time": 196561, "pitch": 58, "duration": 30, "velocity": 70}, {"time": 196800, "pitch": 61, "duration": 159, "velocity": 85}, {"time": 196810, "pitch": 64, "duration": 159, "velocity": 90}, {"time": 197039, "pitch": 58, "duration": 30, "velocity": 70}, {"time": 197278, "pitch": 57, "duration": 229, "velocity": 90}, {"time": 197278, "pitch": 62, "duration": 229, "velocity": 95}, {"time": 197288, "pitch": 66, "duration": 229, "velocity": 100}, {"time": 197757, "pitch": 57, "duration": 229, "velocity": 90}, {"time": 197757, "pitch": 62, "duration": 229, "velocity": 95}, {"time": 197767, "pitch": 66, "duration": 229, "velocity": 100}, {"time": 198235, "pitch": 57, "duration": 31, "velocity": 100}, {"time": 198480, "pitch": 62, "duration": 234, "velocity": 95}, {"time": 198480, "pitch": 66, "duration": 234, "velocity": 100}, {"time": 198490, "pitch": 57, "duration": 235, "velocity": 90}, {"time": 198725, "pitch": 57, "duration": 358, "velocity": 90}, {"time": 198964, "pitch": 65, "duration": 468, "velocity": 100}, {"time": 198964, "pitch": 69, "duration": 468, "velocity": 105}, {"time": 198974, "pitch": 60, "duration": 259, "velocity": 95}, {"time": 199442, "pitch": 65, "duration": 229, "velocity": 95}, {"time": 199442, "pitch": 69, "duration": 229, "velocity": 90}, {"time": 199452, "pitch": 60, "duration": 229, "velocity": 100}, {"time": 199681, "pitch": 60, "duration": 30, "velocity": 90}, {"time": 199921, "pitch": 60, "duration": 29, "velocity": 80}, {"time": 200160, "pitch": 60, "duration": 159, "velocity": 85}, {"time": 200170, "pitch": 65, "duration": 159, "velocity": 90}, {"time": 200399, "pitch": 60, "duration": 30, "velocity": 70}, {"time": 200638, "pitch": 60, "duration": 160, "velocity": 85}, {"time": 200648, "pitch": 65, "duration": 160, "velocity": 90}, {"time": 200877, "pitch": 60, "duration": 30, "velocity": 70}, {"time": 201117, "pitch": 59, "duration": 229, "velocity": 90}, {"time": 201117, "pitch": 64, "duration": 229, "velocity": 95}, {"time": 201127, "pitch": 68, "duration": 229, "velocity": 100}, {"time": 201595, "pitch": 59, "duration": 235, "velocity": 90}, {"time": 201595, "pitch": 64, "duration": 235, "velocity": 95}, {"time": 201605, "pitch": 68, "duration": 235, "velocity": 100}, {"time": 202085, "pitch": 59, "duration": 29, "velocity": 100}, {"time": 202324, "pitch": 64, "duration": 229, "velocity": 95}, {"time": 202324, "pitch": 68, "duration": 229, "velocity": 100}, {"time": 202334, "pitch": 59, "duration": 229, "velocity": 90}, {"time": 202563, "pitch": 59, "duration": 359, "velocity": 90}, {"time": 202802, "pitch": 61, "duration": 469, "velocity": 100}, {"time": 202802, "pitch": 66, "duration": 469, "velocity": 105}, {"time": 202812, "pitch": 58, "duration": 259, "velocity": 95}, {"time": 203281, "pitch": 61, "duration": 229, "velocity": 95}, {"time": 203281, "pitch": 66, "duration": 229, "velocity": 90}, {"time": 203291, "pitch": 58, "duration": 229, "velocity": 100}, {"time": 203520, "pitch": 58, "duration": 30, "velocity": 90}, {"time": 203759, "pitch": 58, "duration": 30, "velocity": 80}, {"time": 203998, "pitch": 61, "duration": 160, "velocity": 85}, {"time": 204008, "pitch": 66, "duration": 160, "velocity": 90}, {"time": 204237, "pitch": 58, "duration": 30, "velocity": 70}, {"time": 204477, "pitch": 61, "duration": 159, "velocity": 85}, {"time": 204487, "pitch": 66, "duration": 159, "velocity": 90}, {"time": 204716, "pitch": 58, "duration": 30, "velocity": 70}, {"time": 204955, "pitch": 57, "duration": 235, "velocity": 90}, {"time": 204955, "pitch": 62, "duration": 235, "velocity": 95}, {"time": 204965, "pitch": 66, "duration": 235, "velocity": 100}, {"time": 205445, "pitch": 57, "duration": 229, "velocity": 90}, {"time": 205445, "pitch": 62, "duration": 229, "velocity": 95}, {"time": 205455, "pitch": 66, "duration": 229, "velocity": 100}, {"time": 205923, "pitch": 57, "duration": 30, "velocity": 100}, {"time": 206162, "pitch": 62, "duration": 229, "velocity": 95}, {"time": 206162, "pitch": 66, "duration": 229, "velocity": 100}, {"time": 206172, "pitch": 57, "duration": 229, "velocity": 90}, {"time": 206401, "pitch": 57, "duration": 240, "velocity": 90}, {"time": 206641, "pitch": 62, "duration": 468, "velocity": 100}, {"time": 206641, "pitch": 66, "duration": 468, "velocity": 105}, {"time": 206651, "pitch": 57, "duration": 259, "velocity": 95}, {"time": 207119, "pitch": 62, "duration": 229, "velocity": 95}, {"time": 207119, "pitch": 66, "duration": 229, "velocity": 90}, {"time": 207129, "pitch": 57, "duration": 229, "velocity": 100}, {"time": 207358, "pitch": 57, "duration": 30, "velocity": 90}, {"time": 207597, "pitch": 57, "duration": 30, "velocity": 80}, {"time": 207837, "pitch": 62, "duration": 159, "velocity": 85}, {"time": 207847, "pitch": 66, "duration": 159, "velocity": 90}, {"time": 208076, "pitch": 57, "duration": 30, "velocity": 70}, {"time": 208315, "pitch": 62, "duration": 163, "velocity": 85}, {"time": 208325, "pitch": 66, "duration": 163, "velocity": 90}, {"time": 208560, "pitch": 57, "duration": 30, "velocity": 70}, {"time": 208805, "pitch": 57, "duration": 229, "velocity": 90}, {"time": 208805, "pitch": 61, "duration": 229, "velocity": 95}, {"time": 208815, "pitch": 64, "duration": 229, "velocity": 100}, {"time": 209283, "pitch": 57, "duration": 229, "velocity": 90}, {"time": 209283, "pitch": 61, "duration": 229, "velocity": 95}, {"time": 209293, "pitch": 64, "duration": 229, "velocity": 100}, {"time": 209761, "pitch": 57, "duration": 30, "velocity": 100}, {"time": 210001, "pitch": 61, "duration": 229, "velocity": 95}, {"time": 210001, "pitch": 64, "duration": 229, "velocity": 100}, {"time": 210011, "pitch": 57, "duration": 229, "velocity": 90}, {"time": 210240, "pitch": 57, "duration": 359, "velocity": 90}, {"time": 210479, "pitch": 61, "duration": 120, "velocity": 100}, {"time": 210479, "pitch": 64, "duration": 120, "velocity": 105}, {"time": 210489, "pitch": 58, "duration": 120, "velocity": 95}, {"time": 210718, "pitch": 58, "duration": 30, "velocity": 90}, {"time": 210957, "pitch": 61, "duration": 230, "velocity": 95}, {"time": 210957, "pitch": 64, "duration": 230, "velocity": 90}, {"time": 210967, "pitch": 58, "duration": 230, "velocity": 100}, {"time": 211197, "pitch": 58, "duration": 29, "velocity": 90}, {"time": 211436, "pitch": 58, "duration": 30, "velocity": 80}, {"time": 211675, "pitch": 61, "duration": 163, "velocity": 85}, {"time": 211685, "pitch": 64, "duration": 163, "velocity": 90}, {"time": 211920, "pitch": 58, "duration": 30, "velocity": 70}, {"time": 212165, "pitch": 61, "duration": 159, "velocity": 85}, {"time": 212175, "pitch": 64, "duration": 159, "velocity": 90}, {"time": 212404, "pitch": 58, "duration": 30, "velocity": 70}, {"time": 212643, "pitch": 57, "duration": 229, "velocity": 90}, {"time": 212643, "pitch": 62, "duration": 229, "velocity": 95}, {"time": 212653, "pitch": 66, "duration": 229, "velocity": 100}, {"time": 213121, "pitch": 57, "duration": 230, "velocity": 90}, {"time": 213121, "pitch": 62, "duration": 230, "velocity": 95}, {"time": 213131, "pitch": 66, "duration": 230, "velocity": 100}, {"time": 213600, "pitch": 57, "duration": 30, "velocity": 100}, {"time": 213839, "pitch": 62, "duration": 229, "velocity": 95}, {"time": 213839, "pitch": 66, "duration": 229, "velocity": 100}, {"time": 213849, "pitch": 57, "duration": 229, "velocity": 90}, {"time": 214078, "pitch": 57, "duration": 359, "velocity": 90}, {"time": 214317, "pitch": 65, "duration": 469, "velocity": 100}, {"time": 214317, "pitch": 69, "duration": 469, "velocity": 105}, {"time": 214327, "pitch": 60, "duration": 259, "velocity": 95}, {"time": 214796, "pitch": 65, "duration": 229, "velocity": 95}, {"time": 214796, "pitch": 69, "duration": 229, "velocity": 90}, {"time": 214806, "pitch": 60, "duration": 229, "velocity": 100}, {"time": 215035, "pitch": 60, "duration": 30, "velocity": 90}, {"time": 215280, "pitch": 60, "duration": 30, "velocity": 80}, {"time": 215525, "pitch": 60, "duration": 159, "velocity": 85}, {"time": 215535, "pitch": 65, "duration": 159, "velocity": 90}, {"time": 215764, "pitch": 60, "duration": 30, "velocity": 70}, {"time": 216003, "pitch": 60, "duration": 159, "velocity": 85}, {"time": 216013, "pitch": 65, "duration": 159, "velocity": 90}, {"time": 216242, "pitch": 60, "duration": 30, "velocity": 70}, {"time": 216481, "pitch": 59, "duration": 230, "velocity": 90}, {"time": 216481, "pitch": 64, "duration": 230, "velocity": 95}, {"time": 216491, "pitch": 68, "duration": 230, "velocity": 100}, {"time": 216960, "pitch": 59, "duration": 229, "velocity": 90}, {"time": 216960, "pitch": 64, "duration": 229, "velocity": 95}, {"time": 216970, "pitch": 68, "duration": 229, "velocity": 100}, {"time": 217438, "pitch": 59, "duration": 30, "velocity": 100}, {"time": 217677, "pitch": 64, "duration": 230, "velocity": 95}, {"time": 217677, "pitch": 68, "duration": 230, "velocity": 100}, {"time": 217687, "pitch": 59, "duration": 230, "velocity": 90}, {"time": 217917, "pitch": 59, "duration": 358, "velocity": 90}, {"time": 218156, "pitch": 61, "duration": 474, "velocity": 100}, {"time": 218156, "pitch": 66, "duration": 474, "velocity": 105}, {"time": 218166, "pitch": 58, "duration": 259, "velocity": 95}, {"time": 218640, "pitch": 61, "duration": 234, "velocity": 95}, {"time": 218640, "pitch": 66, "duration": 234, "velocity": 90}, {"time": 218650, "pitch": 58, "duration": 235, "velocity": 100}, {"time": 218885, "pitch": 58, "duration": 29, "velocity": 90}, {"time": 219124, "pitch": 58, "duration": 30, "velocity": 80}, {"time": 219363, "pitch": 61, "duration": 159, "velocity": 85}, {"time": 219373, "pitch": 66, "duration": 159, "velocity": 90}, {"time": 219602, "pitch": 58, "duration": 30, "velocity": 70}, {"time": 219841, "pitch": 61, "duration": 160, "velocity": 85}, {"time": 219851, "pitch": 66, "duration": 160, "velocity": 90}, {"time": 220081, "pitch": 58, "duration": 29, "velocity": 70}, {"time": 220320, "pitch": 57, "duration": 229, "velocity": 90}, {"time": 220320, "pitch": 62, "duration": 229, "velocity": 95}, {"time": 220330, "pitch": 66, "duration": 229, "velocity": 100}, {"time": 220798, "pitch": 57, "duration": 229, "velocity": 90}, {"time": 220798, "pitch": 62, "duration": 229, "velocity": 95}, {"time": 220808, "pitch": 66, "duration": 229, "velocity": 100}, {"time": 221277, "pitch": 57, "duration": 29, "velocity": 100}, {"time": 221516, "pitch": 62, "duration": 229, "velocity": 95}, {"time": 221516, "pitch": 66, "duration": 229, "velocity": 100}, {"time": 221526, "pitch": 57, "duration": 229, "velocity": 90}, {"time": 221755, "pitch": 57, "duration": 245, "velocity": 90}, {"time": 222000, "pitch": 62, "duration": 474, "velocity": 100}, {"time": 222000, "pitch": 66, "duration": 474, "velocity": 105}, {"time": 222010, "pitch": 57, "duration": 264, "velocity": 95}, {"time": 222484, "pitch": 62, "duration": 229, "velocity": 95}, {"time": 222484, "pitch": 66, "duration": 229, "velocity": 90}, {"time": 222494, "pitch": 57, "duration": 229, "velocity": 100}, {"time": 222723, "pitch": 57, "duration": 30, "velocity": 90}, {"time": 222962, "pitch": 57, "duration": 30, "velocity": 80}, {"time": 223201, "pitch": 62, "duration": 160, "velocity": 85}, {"time": 223211, "pitch": 66, "duration": 160, "velocity": 90}, {"time": 223441, "pitch": 57, "duration": 29, "velocity": 70}, {"time": 223680, "pitch": 62, "duration": 159, "velocity": 85}, {"time": 223690, "pitch": 66, "duration": 159, "velocity": 90}, {"time": 223919, "pitch": 57, "duration": 30, "velocity": 70}, {"time": 224158, "pitch": 52, "duration": 229, "velocity": 90}, {"time": 224158, "pitch": 57, "duration": 229, "velocity": 95}, {"time": 224168, "pitch": 61, "duration": 229, "velocity": 100}, {"time": 224637, "pitch": 52, "duration": 229, "velocity": 90}, {"time": 224637, "pitch": 57, "duration": 229, "velocity": 95}, {"time": 224647, "pitch": 61, "duration": 229, "velocity": 100}, {"time": 225115, "pitch": 52, "duration": 30, "velocity": 100}, {"time": 225360, "pitch": 57, "duration": 234, "velocity": 95}, {"time": 225360, "pitch": 61, "duration": 234, "velocity": 100}, {"time": 225370, "pitch": 52, "duration": 235, "velocity": 90}, {"time": 225605, "pitch": 45, "duration": 358, "velocity": 90}, {"time": 225844, "pitch": 57, "duration": 119, "velocity": 100}, {"time": 225844, "pitch": 62, "duration": 119, "velocity": 105}, {"time": 225854, "pitch": 54, "duration": 119, "velocity": 95}, {"time": 226083, "pitch": 52, "duration": 10, "velocity": 90}, {"time": 226322, "pitch": 57, "duration": 120, "velocity": 95}, {"time": 226322, "pitch": 62, "duration": 120, "velocity": 100}, {"time": 226332, "pitch": 54, "duration": 120, "velocity": 90}, {"time": 226561, "pitch": 52, "duration": 30, "velocity": 95}, {"time": 226801, "pitch": 57, "duration": 239, "velocity": 100}, {"time": 226811, "pitch": 54, "duration": 229, "velocity": 90}, {"time": 227040, "pitch": 54, "duration": 229, "velocity": 90}, {"time": 227040, "pitch": 57, "duration": 229, "velocity": 95}, {"time": 227050, "pitch": 62, "duration": 229, "velocity": 100}, {"time": 227279, "pitch": 54, "duration": 30, "velocity": 90}, {"time": 227518, "pitch": 54, "duration": 479, "velocity": 90}, {"time": 227518, "pitch": 57, "duration": 479, "velocity": 95}, {"time": 227528, "pitch": 62, "duration": 469, "velocity": 100}, {"time": 227997, "pitch": 52, "duration": 229, "velocity": 90}, {"time": 227997, "pitch": 57, "duration": 229, "velocity": 95}, {"time": 228007, "pitch": 61, "duration": 229, "velocity": 100}, {"time": 228475, "pitch": 52, "duration": 235, "velocity": 90}, {"time": 228475, "pitch": 57, "duration": 235, "velocity": 95}, {"time": 228485, "pitch": 61, "duration": 235, "velocity": 100}, {"time": 228965, "pitch": 52, "duration": 29, "velocity": 100}, {"time": 229204, "pitch": 57, "duration": 229, "velocity": 95}, {"time": 229204, "pitch": 61, "duration": 229, "velocity": 100}, {"time": 229214, "pitch": 52, "duration": 229, "velocity": 90}, {"time": 229443, "pitch": 45, "duration": 359, "velocity": 90}, {"time": 229682, "pitch": 57, "duration": 120, "velocity": 100}, {"time": 229682, "pitch": 62, "duration": 120, "velocity": 105}, {"time": 229692, "pitch": 54, "duration": 120, "velocity": 95}, {"time": 229921, "pitch": 52, "duration": 10, "velocity": 90}, {"time": 230161, "pitch": 57, "duration": 119, "velocity": 95}, {"time": 230161, "pitch": 62, "duration": 119, "velocity": 100}, {"time": 230171, "pitch": 54, "duration": 119, "velocity": 90}, {"time": 230400, "pitch": 52, "duration": 30, "velocity": 95}, {"time": 230639, "pitch": 57, "duration": 239, "velocity": 100}, {"time": 230649, "pitch": 54, "duration": 229, "velocity": 90}, {"time": 230878, "pitch": 54, "duration": 229, "velocity": 90}, {"time": 230878, "pitch": 57, "duration": 229, "velocity": 95}, {"time": 230888, "pitch": 62, "duration": 229, "velocity": 100}, {"time": 231117, "pitch": 54, "duration": 30, "velocity": 90}, {"time": 231357, "pitch": 54, "duration": 478, "velocity": 90}, {"time": 231357, "pitch": 57, "duration": 478, "velocity": 95}, {"time": 231367, "pitch": 62, "duration": 468, "velocity": 100}, {"time": 231835, "pitch": 52, "duration": 235, "velocity": 90}, {"time": 231835, "pitch": 57, "duration": 235, "velocity": 95}, {"time": 231845, "pitch": 61, "duration": 235, "velocity": 100}, {"time": 232325, "pitch": 52, "duration": 229, "velocity": 90}, {"time": 232325, "pitch": 57, "duration": 229, "velocity": 95}, {"time": 232335, "pitch": 61, "duration": 229, "velocity": 100}, {"time": 232803, "pitch": 52, "duration": 30, "velocity": 100}, {"time": 233042, "pitch": 57, "duration": 229, "velocity": 95}, {"time": 233042, "pitch": 61, "duration": 229, "velocity": 100}, {"time": 233052, "pitch": 52, "duration": 229, "velocity": 90}, {"time": 233281, "pitch": 45, "duration": 359, "velocity": 90}, {"time": 233521, "pitch": 57, "duration": 119, "velocity": 100}, {"time": 233521, "pitch": 62, "duration": 119, "velocity": 105}, {"time": 233531, "pitch": 54, "duration": 119, "velocity": 95}, {"time": 233760, "pitch": 52, "duration": 10, "velocity": 90}, {"time": 233999, "pitch": 57, "duration": 120, "velocity": 95}, {"time": 233999, "pitch": 62, "duration": 120, "velocity": 100}, {"time": 234009, "pitch": 54, "duration": 120, "velocity": 90}, {"time": 234238, "pitch": 52, "duration": 30, "velocity": 95}, {"time": 234477, "pitch": 57, "duration": 240, "velocity": 100}, {"time": 234487, "pitch": 54, "duration": 230, "velocity": 90}, {"time": 234717, "pitch": 54, "duration": 229, "velocity": 90}, {"time": 234717, "pitch": 57, "duration": 229, "velocity": 95}, {"time": 234727, "pitch": 62, "duration": 229, "velocity": 100}, {"time": 234956, "pitch": 54, "duration": 30, "velocity": 90}, {"time": 235195, "pitch": 54, "duration": 490, "velocity": 90}, {"time": 235195, "pitch": 57, "duration": 490, "velocity": 95}, {"time": 235205, "pitch": 62, "duration": 480, "velocity": 100}, {"time": 235685, "pitch": 52, "duration": 229, "velocity": 90}, {"time": 235685, "pitch": 57, "duration": 229, "velocity": 95}, {"time": 235695, "pitch": 61, "duration": 229, "velocity": 100}, {"time": 236163, "pitch": 52, "duration": 229, "velocity": 90}, {"time": 236163, "pitch": 57, "duration": 229, "velocity": 95}, {"time": 236173, "pitch": 61, "duration": 229, "velocity": 100}, {"time": 236641, "pitch": 52, "duration": 30, "velocity": 100}, {"time": 236881, "pitch": 57, "duration": 229, "velocity": 95}, {"time": 236881, "pitch": 61, "duration": 229, "velocity": 100}, {"time": 236891, "pitch": 52, "duration": 229, "velocity": 90}, {"time": 237120, "pitch": 45, "duration": 359, "velocity": 90}, {"time": 237359, "pitch": 50, "duration": 199, "velocity": 90}, {"time": 237359, "pitch": 56, "duration": 199, "velocity": 95}, {"time": 237359, "pitch": 61, "duration": 199, "velocity": 100}, {"time": 237369, "pitch": 40, "duration": 199, "velocity": 85}, {"time": 237598, "pitch": 52, "duration": 10, "velocity": 90}, {"time": 237837, "pitch": 40, "duration": 10, "velocity": 90}, {"time": 238077, "pitch": 40, "duration": 1157, "velocity": 85}, {"time": 238077, "pitch": 50, "duration": 1147, "velocity": 90}, {"time": 238077, "pitch": 56, "duration": 1147, "velocity": 95}, {"time": 238087, "pitch": 61, "duration": 1167, "velocity": 100}, {"time": 239284, "pitch": 46, "duration": 2103, "velocity": 85}, {"time": 239284, "pitch": 55, "duration": 2093, "velocity": 90}, {"time": 239284, "pitch": 60, "duration": 2093, "velocity": 95}, {"time": 239294, "pitch": 65, "duration": 239, "velocity": 100}, {"time": 239533, "pitch": 65, "duration": 1874, "velocity": 100}, {"time": 241437, "pitch": 45, "duration": 7666, "velocity": 85}, {"time": 241437, "pitch": 54, "duration": 7666, "velocity": 90}, {"time": 241437, "pitch": 59, "duration": 7666, "velocity": 95}, {"time": 241447, "pitch": 64, "duration": 7656, "velocity": 100}, {"time": 1442, "pitch": 45, "duration": 229, "velocity": 90}, {"time": 1442, "pitch": 52, "duration": 229, "velocity": 95}, {"time": 1452, "pitch": 57, "duration": 229, "velocity": 100}, {"time": 1920, "pitch": 45, "duration": 229, "velocity": 90}, {"time": 1920, "pitch": 52, "duration": 229, "velocity": 95}, {"time": 1930, "pitch": 57, "duration": 229, "velocity": 100}, {"time": 2398, "pitch": 45, "duration": 30, "velocity": 100}, {"time": 2638, "pitch": 52, "duration": 229, "velocity": 95}, {"time": 2638, "pitch": 57, "duration": 229, "velocity": 100}, {"time": 2648, "pitch": 45, "duration": 229, "velocity": 90}, {"time": 2877, "pitch": 45, "duration": 239, "velocity": 90}, {"time": 3116, "pitch": 47, "duration": 120, "velocity": 100}, {"time": 3116, "pitch": 52, "duration": 120, "velocity": 105}, {"time": 3126, "pitch": 40, "duration": 120, "velocity": 95}, {"time": 3355, "pitch": 40, "duration": 10, "velocity": 90}, {"time": 3600, "pitch": 47, "duration": 122, "velocity": 95}, {"time": 3600, "pitch": 52, "duration": 122, "velocity": 100}, {"time": 3610, "pitch": 40, "duration": 123, "velocity": 90}, {"time": 3845, "pitch": 40, "duration": 30, "velocity": 95}, {"time": 4084, "pitch": 47, "duration": 239, "velocity": 100}, {"time": 4094, "pitch": 40, "duration": 229, "velocity": 90}, {"time": 4323, "pitch": 40, "duration": 229, "velocity": 90}, {"time": 4323, "pitch": 47, "duration": 229, "velocity": 95}, {"time": 4333, "pitch": 52, "duration": 229, "velocity": 100}, {"time": 4562, "pitch": 40, "duration": 30, "velocity": 90}, {"time": 4802, "pitch": 40, "duration": 478, "velocity": 90}, {"time": 4802, "pitch": 47, "duration": 478, "velocity": 95}, {"time": 4812, "pitch": 52, "duration": 468, "velocity": 100}, {"time": 5280, "pitch": 45, "duration": 229, "velocity": 90}, {"time": 5280, "pitch": 52, "duration": 229, "velocity": 95}, {"time": 5290, "pitch": 57, "duration": 229, "velocity": 100}, {"time": 5758, "pitch": 45, "duration": 230, "velocity": 90}, {"time": 5758, "pitch": 52, "duration": 230, "velocity": 95}, {"time": 5768, "pitch": 57, "duration": 230, "velocity": 100}, {"time": 6237, "pitch": 45, "duration": 30, "velocity": 100}, {"time": 6476, "pitch": 52, "duration": 229, "velocity": 95}, {"time": 6476, "pitch": 57, "duration": 229, "velocity": 100}, {"time": 6486, "pitch": 45, "duration": 229, "velocity": 90}, {"time": 6715, "pitch": 45, "duration": 245, "velocity": 90}, {"time": 6960, "pitch": 47, "duration": 122, "velocity": 100}, {"time": 6960, "pitch": 52, "duration": 122, "velocity": 105}, {"time": 6970, "pitch": 40, "duration": 123, "velocity": 95}, {"time": 7205, "pitch": 40, "duration": 10, "velocity": 90}, {"time": 7444, "pitch": 47, "duration": 120, "velocity": 95}, {"time": 7444, "pitch": 52, "duration": 120, "velocity": 100}, {"time": 7454, "pitch": 40, "duration": 120, "velocity": 90}, {"time": 7683, "pitch": 40, "duration": 30, "velocity": 95}, {"time": 7922, "pitch": 47, "duration": 240, "velocity": 100}, {"time": 7932, "pitch": 40, "duration": 230, "velocity": 90}, {"time": 8162, "pitch": 40, "duration": 229, "velocity": 90}, {"time": 8162, "pitch": 47, "duration": 229, "velocity": 95}, {"time": 8172, "pitch": 52, "duration": 229, "velocity": 100}, {"time": 8401, "pitch": 40, "duration": 30, "velocity": 90}, {"time": 8640, "pitch": 40, "duration": 478, "velocity": 90}, {"time": 8640, "pitch": 47, "duration": 478, "velocity": 95}, {"time": 8650, "pitch": 52, "duration": 468, "velocity": 100}, {"time": 9118, "pitch": 45, "duration": 230, "velocity": 90}, {"time": 9118, "pitch": 52, "duration": 230, "velocity": 95}, {"time": 9128, "pitch": 57, "duration": 230, "velocity": 100}, {"time": 9597, "pitch": 45, "duration": 229, "velocity": 90}, {"time": 9597, "pitch": 52, "duration": 229, "velocity": 95}, {"time": 9607, "pitch": 57, "duration": 229, "velocity": 100}, {"time": 10075, "pitch": 45, "duration": 31, "velocity": 100}, {"time": 10320, "pitch": 52, "duration": 235, "velocity": 95}, {"time": 10320, "pitch": 57, "duration": 235, "velocity": 100}, {"time": 10330, "pitch": 45, "duration": 235, "velocity": 90}, {"time": 10565, "pitch": 45, "duration": 239, "velocity": 90}, {"time": 10804, "pitch": 47, "duration": 120, "velocity": 100}, {"time": 10804, "pitch": 52, "duration": 120, "velocity": 105}, {"time": 10814, "pitch": 40, "duration": 120, "velocity": 95}, {"time": 11043, "pitch": 40, "duration": 10, "velocity": 90}, {"time": 11282, "pitch": 47, "duration": 120, "velocity": 95}, {"time": 11282, "pitch": 52, "duration": 120, "velocity": 100}, {"time": 11292, "pitch": 40, "duration": 120, "velocity": 90}, {"time": 11522, "pitch": 40, "duration": 29, "velocity": 95}, {"time": 11761, "pitch": 47, "duration": 239, "velocity": 100}, {"time": 11771, "pitch": 40, "duration": 229, "velocity": 90}, {"time": 12000, "pitch": 40, "duration": 229, "velocity": 90}, {"time": 12000, "pitch": 47, "duration": 229, "velocity": 95}, {"time": 12010, "pitch": 52, "duration": 229, "velocity": 100}, {"time": 12239, "pitch": 40, "duration": 30, "velocity": 90}, {"time": 12478, "pitch": 40, "duration": 479, "velocity": 90}, {"time": 12478, "pitch": 47, "duration": 479, "velocity": 95}, {"time": 12488, "pitch": 52, "duration": 469, "velocity": 100}, {"time": 12957, "pitch": 45, "duration": 229, "velocity": 90}, {"time": 12957, "pitch": 52, "duration": 229, "velocity": 95}, {"time": 12967, "pitch": 57, "duration": 229, "velocity": 100}, {"time": 13435, "pitch": 45, "duration": 235, "velocity": 90}, {"time": 13435, "pitch": 52, "duration": 235, "velocity": 95}, {"time": 13445, "pitch": 57, "duration": 235, "velocity": 100}, {"time": 13925, "pitch": 45, "duration": 30, "velocity": 100}, {"time": 14164, "pitch": 52, "duration": 229, "velocity": 95}, {"time": 14164, "pitch": 57, "duration": 229, "velocity": 100}, {"time": 14174, "pitch": 45, "duration": 229, "velocity": 90}, {"time": 14403, "pitch": 45, "duration": 239, "velocity": 90}, {"time": 14642, "pitch": 50, "duration": 200, "velocity": 90}, {"time": 14642, "pitch": 56, "duration": 200, "velocity": 95}, {"time": 14642, "pitch": 61, "duration": 200, "velocity": 100}, {"time": 14652, "pitch": 40, "duration": 200, "velocity": 85}, {"time": 14882, "pitch": 52, "duration": 10, "velocity": 100}, {"time": 15121, "pitch": 40, "duration": 10, "velocity": 90}, {"time": 15360, "pitch": 40, "duration": 1435, "velocity": 85}, {"time": 15360, "pitch": 50, "duration": 1435, "velocity": 90}, {"time": 15360, "pitch": 56, "duration": 1435, "velocity": 95}, {"time": 15370, "pitch": 61, "duration": 1425, "velocity": 100}, {"time": 16795, "pitch": 54, "duration": 235, "velocity": 90}, {"time": 16795, "pitch": 57, "duration": 235, "velocity": 95}, {"time": 16805, "pitch": 62, "duration": 235, "velocity": 100}, {"time": 17285, "pitch": 54, "duration": 229, "velocity": 90}, {"time": 17285, "pitch": 57, "duration": 229, "velocity": 95}, {"time": 17295, "pitch": 62, "duration": 229, "velocity": 100}, {"time": 17763, "pitch": 54, "duration": 30, "velocity": 100}, {"time": 18002, "pitch": 57, "duration": 230, "velocity": 95}, {"time": 18002, "pitch": 62, "duration": 230, "velocity": 100}, {"time": 18012, "pitch": 54, "duration": 230, "velocity": 90}, {"time": 18242, "pitch": 45, "duration": 358, "velocity": 90}, {"time": 18481, "pitch": 59, "duration": 119, "velocity": 100}, {"time": 18481, "pitch": 64, "duration": 119, "velocity": 105}, {"time": 18491, "pitch": 56, "duration": 119, "velocity": 95}, {"time": 18720, "pitch": 49, "duration": 10, "velocity": 90}, {"time": 18959, "pitch": 59, "duration": 120, "velocity": 95}, {"time": 18959, "pitch": 64, "duration": 120, "velocity": 100}, {"time": 18969, "pitch": 56, "duration": 120, "velocity": 90}, {"time": 19198, "pitch": 49, "duration": 30, "velocity": 95}, {"time": 19438, "pitch": 59, "duration": 239, "velocity": 100}, {"time": 19448, "pitch": 56, "duration": 229, "velocity": 90}, {"time": 19677, "pitch": 56, "duration": 229, "velocity": 90}, {"time": 19677, "pitch": 59, "duration": 229, "velocity": 95}, {"time": 19687, "pitch": 64, "duration": 229, "velocity": 100}, {"time": 19916, "pitch": 49, "duration": 30, "velocity": 90}, {"time": 20155, "pitch": 56, "duration": 235, "velocity": 90}, {"time": 20155, "pitch": 59, "duration": 235, "velocity": 95}, {"time": 20165, "pitch": 64, "duration": 235, "velocity": 100}, {"time": 20400, "pitch": 49, "duration": 31, "velocity": 90}, {"time": 20645, "pitch": 62, "duration": 229, "velocity": 90}, {"time": 20645, "pitch": 66, "duration": 229, "velocity": 95}, {"time": 20655, "pitch": 71, "duration": 229, "velocity": 100}, {"time": 21123, "pitch": 62, "duration": 229, "velocity": 90}, {"time": 21123, "pitch": 66, "duration": 229, "velocity": 95}, {"time": 21133, "pitch": 71, "duration": 229, "velocity": 100}, {"time": 21602, "pitch": 62, "duration": 29, "velocity": 100}, {"time": 21841, "pitch": 66, "duration": 229, "velocity": 95}, {"time": 21841, "pitch": 71, "duration": 229, "velocity": 100}, {"time": 21851, "pitch": 62, "duration": 229, "velocity": 90}, {"time": 22080, "pitch": 62, "duration": 359, "velocity": 90}, {"time": 22319, "pitch": 68, "duration": 479, "velocity": 100}, {"time": 22319, "pitch": 73, "duration": 479, "velocity": 105}, {"time": 22329, "pitch": 64, "duration": 469, "velocity": 95}, {"time": 22558, "pitch": 45, "duration": 10, "velocity": 90}, {"time": 22798, "pitch": 68, "duration": 119, "velocity": 95}, {"time": 22798, "pitch": 73, "duration": 119, "velocity": 100}, {"time": 22808, "pitch": 64, "duration": 119, "velocity": 90}, {"time": 23037, "pitch": 64, "duration": 30, "velocity": 95}, {"time": 23276, "pitch": 68, "duration": 239, "velocity": 100}, {"time": 23286, "pitch": 64, "duration": 229, "velocity": 90}, {"time": 23515, "pitch": 64, "duration": 235, "velocity": 90}, {"time": 23515, "pitch": 68, "duration": 235, "velocity": 95}, {"time": 23525, "pitch": 73, "duration": 235, "velocity": 100}, {"time": 23760, "pitch": 45, "duration": 31, "velocity": 90}, {"time": 24005, "pitch": 64, "duration": 229, "velocity": 90}, {"time": 24005, "pitch": 68, "duration": 229, "velocity": 95}, {"time": 24015, "pitch": 73, "duration": 229, "velocity": 100}, {"time": 24244, "pitch": 45, "duration": 30, "velocity": 90}, {"time": 24483, "pitch": 54, "duration": 229, "velocity": 90}, {"time": 24483, "pitch": 57, "duration": 229, "velocity": 95}, {"time": 24493, "pitch": 62, "duration": 229, "velocity": 100}, {"time": 24962, "pitch": 54, "duration": 229, "velocity": 90}, {"time": 24962, "pitch": 57, "duration": 229, "velocity": 95}, {"time": 24972, "pitch": 62, "duration": 229, "velocity": 100}, {"time": 25440, "pitch": 54, "duration": 30, "velocity": 100}, {"time": 25679, "pitch": 57, "duration": 229, "velocity": 95}, {"time": 25679, "pitch": 62, "duration": 229, "velocity": 100}, {"time": 25689, "pitch": 54, "duration": 229, "velocity": 90}, {"time": 25918, "pitch": 45, "duration": 359, "velocity": 90}, {"time": 26158, "pitch": 59, "duration": 119, "velocity": 100}, {"time": 26158, "pitch": 64, "duration": 119, "velocity": 105}, {"time": 26168, "pitch": 56, "duration": 119, "velocity": 95}, {"time": 26397, "pitch": 49, "duration": 10, "velocity": 90}, {"time": 26636, "pitch": 59, "duration": 120, "velocity": 95}, {"time": 26636, "pitch": 64, "duration": 120, "velocity": 100}, {"time": 26646, "pitch": 56, "duration": 120, "velocity": 90}, {"time": 26875, "pitch": 49, "duration": 31, "velocity": 95}, {"time": 27120, "pitch": 59, "duration": 245, "velocity": 100}, {"time": 27130, "pitch": 56, "duration": 235, "velocity": 90}, {"time": 27365, "pitch": 56, "duration": 229, "velocity": 90}, {"time": 27365, "pitch": 59, "duration": 229, "velocity": 95}, {"time": 27375, "pitch": 64, "duration": 229, "velocity": 100}, {"time": 27604, "pitch": 49, "duration": 30, "velocity": 90}, {"time": 27843, "pitch": 56, "duration": 229, "velocity": 90}, {"time": 27843, "pitch": 59, "duration": 229, "velocity": 95}, {"time": 27853, "pitch": 64, "duration": 229, "velocity": 100}, {"time": 28082, "pitch": 49, "duration": 30, "velocity": 90}, {"time": 28322, "pitch": 62, "duration": 229, "velocity": 90}, {"time": 28322, "pitch": 66, "duration": 229, "velocity": 95}, {"time": 28332, "pitch": 71, "duration": 229, "velocity": 100}, {"time": 28800, "pitch": 62, "duration": 229, "velocity": 90}, {"time": 28800, "pitch": 66, "duration": 229, "velocity": 95}, {"time": 28810, "pitch": 71, "duration": 229, "velocity": 100}, {"time": 29278, "pitch": 62, "duration": 30, "velocity": 100}, {"time": 29518, "pitch": 66, "duration": 229, "velocity": 95}, {"time": 29518, "pitch": 71, "duration": 229, "velocity": 100}, {"time": 29528, "pitch": 62, "duration": 229, "velocity": 90}, {"time": 29757, "pitch": 62, "duration": 359, "velocity": 90}, {"time": 29996, "pitch": 68, "duration": 484, "velocity": 100}, {"time": 29996, "pitch": 73, "duration": 484, "velocity": 105}, {"time": 30006, "pitch": 64, "duration": 474, "velocity": 95}, {"time": 30235, "pitch": 45, "duration": 10, "velocity": 90}, {"time": 30480, "pitch": 68, "duration": 122, "velocity": 95}, {"time": 30480, "pitch": 73, "duration": 122, "velocity": 100}, {"time": 30490, "pitch": 64, "duration": 123, "velocity": 90}, {"time": 30725, "pitch": 64, "duration": 30, "velocity": 95}, {"time": 30964, "pitch": 68, "duration": 239, "velocity": 100}, {"time": 30974, "pitch": 64, "duration": 229, "velocity": 90}, {"time": 31203, "pitch": 64, "duration": 229, "velocity": 90}, {"time": 31203, "pitch": 68, "duration": 229, "velocity": 95}, {"time": 31213, "pitch": 73, "duration": 229, "velocity": 100}, {"time": 31442, "pitch": 45, "duration": 30, "velocity": 90}, {"time": 31682, "pitch": 64, "duration": 229, "velocity": 90}, {"time": 31682, "pitch": 68, "duration": 229, "velocity": 95}, {"time": 31692, "pitch": 73, "duration": 229, "velocity": 100}, {"time": 31921, "pitch": 45, "duration": 30, "velocity": 90}, {"time": 32160, "pitch": 62, "duration": 229, "velocity": 90}, {"time": 32160, "pitch": 66, "duration": 229, "velocity": 95}, {"time": 32170, "pitch": 73, "duration": 229, "velocity": 100}, {"time": 32399, "pitch": 47, "duration": 30, "velocity": 90}, {"time": 32638, "pitch": 47, "duration": 30, "velocity": 90}, {"time": 32878, "pitch": 66, "duration": 229, "velocity": 95}, {"time": 32878, "pitch": 73, "duration": 229, "velocity": 100}, {"time": 32888, "pitch": 62, "duration": 229, "velocity": 90}, {"time": 33117, "pitch": 62, "duration": 229, "velocity": 100}, {"time": 33117, "pitch": 66, "duration": 229, "velocity": 95}, {"time": 33127, "pitch": 73, "duration": 229, "velocity": 90}, {"time": 33356, "pitch": 66, "duration": 229, "velocity": 95}, {"time": 33356, "pitch": 71, "duration": 229, "velocity": 100}, {"time": 33366, "pitch": 62, "duration": 229, "velocity": 90}, {"time": 33595, "pitch": 47, "duration": 31, "velocity": 90}, {"time": 33840, "pitch": 66, "duration": 245, "velocity": 95}, {"time": 33840, "pitch": 73, "duration": 245, "velocity": 100}, {"time": 33850, "pitch": 62, "duration": 235, "velocity": 90}, {"time": 34085, "pitch": 47, "duration": 30, "velocity": 90}, {"time": 34324, "pitch": 66, "duration": 229, "velocity": 95}, {"time": 34324, "pitch": 73, "duration": 229, "velocity": 90}, {"time": 34334, "pitch": 62, "duration": 229, "velocity": 100}, {"time": 34563, "pitch": 47, "duration": 30, "velocity": 90}, {"time": 34802, "pitch": 66, "duration": 240, "velocity": 95}, {"time": 34802, "pitch": 73, "duration": 240, "velocity": 90}, {"time": 34812, "pitch": 62, "duration": 230, "velocity": 100}, {"time": 35042, "pitch": 62, "duration": 239, "velocity": 90}, {"time": 35042, "pitch": 66, "duration": 239, "velocity": 95}, {"time": 35052, "pitch": 73, "duration": 229, "velocity": 100}, {"time": 35281, "pitch": 66, "duration": 239, "velocity": 95}, {"time": 35281, "pitch": 71, "duration": 239, "velocity": 90}, {"time": 35291, "pitch": 62, "duration": 229, "velocity": 100}, {"time": 35520, "pitch": 62, "duration": 239, "velocity": 90}, {"time": 35520, "pitch": 66, "duration": 239, "velocity": 95}, {"time": 35530, "pitch": 71, "duration": 229, "velocity": 100}, {"time": 35759, "pitch": 47, "duration": 30, "velocity": 90}, {"time": 35998, "pitch": 64, "duration": 230, "velocity": 90}, {"time": 35998, "pitch": 68, "duration": 230, "velocity": 95}, {"time": 36008, "pitch": 75, "duration": 230, "velocity": 100}, {"time": 36238, "pitch": 49, "duration": 29, "velocity": 90}, {"time": 36477, "pitch": 49, "duration": 30, "velocity": 90}, {"time": 36716, "pitch": 68, "duration": 229, "velocity": 95}, {"time": 36716, "pitch": 75, "duration": 229, "velocity": 100}, {"time": 36726, "pitch": 64, "duration": 229, "velocity": 90}, {"time": 36955, "pitch": 64, "duration": 235, "velocity": 100}, {"time": 36955, "pitch": 68, "duration": 235, "velocity": 95}, {"time": 36965, "pitch": 75, "duration": 235, "velocity": 90}, {"time": 37200, "pitch": 68, "duration": 235, "velocity": 95}, {"time": 37200, "pitch": 73, "duration": 235, "velocity": 100}, {"time": 37210, "pitch": 64, "duration": 235, "velocity": 90}, {"time": 37445, "pitch": 49, "duration": 30, "velocity": 90}, {"time": 37684, "pitch": 68, "duration": 239, "velocity": 95}, {"time": 37684, "pitch": 75, "duration": 239, "velocity": 100}, {"time": 37694, "pitch": 64, "duration": 229, "velocity": 90}, {"time": 37923, "pitch": 49, "duration": 30, "velocity": 90}, {"time": 38162, "pitch": 68, "duration": 230, "velocity": 95}, {"time": 38162, "pitch": 75, "duration": 230, "velocity": 90}, {"time": 38172, "pitch": 64, "duration": 230, "velocity": 100}, {"time": 38402, "pitch": 49, "duration": 29, "velocity": 90}, {"time": 38641, "pitch": 68, "duration": 239, "velocity": 95}, {"time": 38641, "pitch": 75, "duration": 239, "velocity": 90}, {"time": 38651, "pitch": 64, "duration": 229, "velocity": 100}, {"time": 38880, "pitch": 64, "duration": 239, "velocity": 90}, {"time": 38880, "pitch": 68, "duration": 239, "velocity": 95}, {"time": 38890, "pitch": 75, "duration": 229, "velocity": 100}, {"time": 39119, "pitch": 49, "duration": 30, "velocity": 90}, {"time": 39358, "pitch": 64, "duration": 240, "velocity": 90}, {"time": 39358, "pitch": 68, "duration": 240, "velocity": 95}, {"time": 39368, "pitch": 73, "duration": 230, "velocity": 100}, {"time": 39598, "pitch": 49, "duration": 29, "velocity": 90}, {"time": 39837, "pitch": 62, "duration": 229, "velocity": 90}, {"time": 39837, "pitch": 66, "duration": 229, "velocity": 95}, {"time": 39847, "pitch": 73, "duration": 229, "velocity": 100}, {"time": 40076, "pitch": 47, "duration": 30, "velocity": 90}, {"time": 40315, "pitch": 47, "duration": 31, "velocity": 90}, {"time": 40560, "pitch": 66, "duration": 235, "velocity": 95}, {"time": 40560, "pitch": 73, "duration": 235, "velocity": 100}, {"time": 40570, "pitch": 62, "duration": 235, "velocity": 90}, {"time": 40805, "pitch": 62, "duration": 229, "velocity": 100}, {"time": 40805, "pitch": 66, "duration": 229, "velocity": 95}, {"time": 40815, "pitch": 73, "duration": 229, "velocity": 90}, {"time": 41044, "pitch": 66, "duration": 229, "velocity": 95}, {"time": 41044, "pitch": 71, "duration": 229, "velocity": 100}, {"time": 41054, "pitch": 62, "duration": 229, "velocity": 90}, {"time": 41283, "pitch": 47, "duration": 30, "velocity": 90}, {"time": 41522, "pitch": 66, "duration": 240, "velocity": 95}, {"time": 41522, "pitch": 73, "duration": 240, "velocity": 100}, {"time": 41532, "pitch": 62, "duration": 230, "velocity": 90}, {"time": 41762, "pitch": 47, "duration": 29, "velocity": 90}, {"time": 42001, "pitch": 66, "duration": 229, "velocity": 95}, {"time": 42001, "pitch": 73, "duration": 229, "velocity": 90}, {"time": 42011, "pitch": 62, "duration": 229, "velocity": 100}, {"time": 42240, "pitch": 47, "duration": 30, "velocity": 90}, {"time": 42479, "pitch": 66, "duration": 239, "velocity": 95}, {"time": 42479, "pitch": 73, "duration": 239, "velocity": 90}, {"time": 42489, "pitch": 62, "duration": 229, "velocity": 100}, {"time": 42718, "pitch": 62, "duration": 240, "velocity": 90}, {"time": 42718, "pitch": 66, "duration": 240, "velocity": 95}, {"time": 42728, "pitch": 73, "duration": 230, "velocity": 100}, {"time": 42958, "pitch": 66, "duration": 239, "velocity": 95}, {"time": 42958, "pitch": 71, "duration": 239, "velocity": 90}, {"time": 42968, "pitch": 62, "duration": 229, "velocity": 100}, {"time": 43197, "pitch": 62, "duration": 239, "velocity": 90}, {"time": 43197, "pitch": 66, "duration": 239, "velocity": 95}, {"time": 43207, "pitch": 71, "duration": 229, "velocity": 100}, {"time": 43436, "pitch": 47, "duration": 30, "velocity": 90}, {"time": 43675, "pitch": 57, "duration": 235, "velocity": 90}, {"time": 43675, "pitch": 62, "duration": 235, "velocity": 95}, {"time": 43685, "pitch": 66, "duration": 235, "velocity": 100}, {"time": 43920, "pitch": 40, "duration": 31, "velocity": 90}, {"time": 44165, "pitch": 40, "duration": 30, "velocity": 90}, {"time": 44404, "pitch": 66, "duration": 229, "velocity": 95}, {"time": 44404, "pitch": 71, "duration": 229, "velocity": 100}, {"time": 44414, "pitch": 62, "duration": 229, "velocity": 90}, {"time": 44643, "pitch": 62, "duration": 229, "velocity": 100}, {"time": 44643, "pitch": 66, "duration": 229, "velocity": 95}, {"time": 44653, "pitch": 71, "duration": 229, "velocity": 90}, {"time": 44882, "pitch": 66, "duration": 230, "velocity": 95}, {"time": 44882, "pitch": 71, "duration": 230, "velocity": 100}, {"time": 44892, "pitch": 62, "duration": 230, "velocity": 90}, {"time": 45122, "pitch": 40, "duration": 29, "velocity": 90}, {"time": 45361, "pitch": 59, "duration": 468, "velocity": 95}, {"time": 45361, "pitch": 64, "duration": 468, "velocity": 100}, {"time": 45371, "pitch": 56, "duration": 458, "velocity": 90}, {"time": 45839, "pitch": 59, "duration": 229, "velocity": 90}, {"time": 45839, "pitch": 64, "duration": 229, "velocity": 85}, {"time": 45849, "pitch": 56, "duration": 229, "velocity": 95}, {"time": 46078, "pitch": 40, "duration": 230, "velocity": 90}, {"time": 46318, "pitch": 64, "duration": 229, "velocity": 85}, {"time": 46318, "pitch": 68, "duration": 229, "velocity": 80}, {"time": 46328, "pitch": 59, "duration": 229, "velocity": 90}, {"time": 46557, "pitch": 40, "duration": 30, "velocity": 90}, {"time": 47035, "pitch": 59, "duration": 123, "velocity": 75}, {"time": 47035, "pitch": 64, "duration": 123, "velocity": 80}, {"time": 47045, "pitch": 68, "duration": 123, "velocity": 85}, {"time": 47525, "pitch": 54, "duration": 229, "velocity": 90}, {"time": 47525, "pitch": 57, "duration": 229, "velocity": 95}, {"time": 47535, "pitch": 62, "duration": 229, "velocity": 100}, {"time": 48003, "pitch": 54, "duration": 229, "velocity": 90}, {"time": 48003, "pitch": 57, "duration": 229, "velocity": 95}, {"time": 48013, "pitch": 62, "duration": 229, "velocity": 100}, {"time": 48482, "pitch": 54, "duration": 29, "velocity": 100}, {"time": 48721, "pitch": 57, "duration": 229, "velocity": 95}, {"time": 48721, "pitch": 62, "duration": 229, "velocity": 100}, {"time": 48731, "pitch": 54, "duration": 229, "velocity": 90}, {"time": 48960, "pitch": 45, "duration": 359, "velocity": 90}, {"time": 49199, "pitch": 59, "duration": 120, "velocity": 100}, {"time": 49199, "pitch": 64, "duration": 120, "velocity": 105}, {"time": 49209, "pitch": 56, "duration": 120, "velocity": 95}, {"time": 49438, "pitch": 49, "duration": 10, "velocity": 90}, {"time": 49678, "pitch": 59, "duration": 119, "velocity": 95}, {"time": 49678, "pitch": 64, "duration": 119, "velocity": 100}, {"time": 49688, "pitch": 56, "duration": 119, "velocity": 90}, {"time": 49917, "pitch": 49, "duration": 30, "velocity": 95}, {"time": 50156, "pitch": 59, "duration": 239, "velocity": 100}, {"time": 50166, "pitch": 56, "duration": 229, "velocity": 90}, {"time": 50395, "pitch": 56, "duration": 235, "velocity": 90}, {"time": 50395, "pitch": 59, "duration": 235, "velocity": 95}, {"time": 50405, "pitch": 64, "duration": 235, "velocity": 100}, {"time": 50640, "pitch": 49, "duration": 31, "velocity": 90}, {"time": 50885, "pitch": 56, "duration": 229, "velocity": 90}, {"time": 50885, "pitch": 59, "duration": 229, "velocity": 95}, {"time": 50895, "pitch": 64, "duration": 229, "velocity": 100}, {"time": 51124, "pitch": 49, "duration": 30, "velocity": 90}, {"time": 51363, "pitch": 62, "duration": 229, "velocity": 90}, {"time": 51363, "pitch": 66, "duration": 229, "velocity": 95}, {"time": 51373, "pitch": 71, "duration": 229, "velocity": 100}, {"time": 51842, "pitch": 62, "duration": 229, "velocity": 90}, {"time": 51842, "pitch": 66, "duration": 229, "velocity": 95}, {"time": 51852, "pitch": 71, "duration": 229, "velocity": 100}, {"time": 52320, "pitch": 62, "duration": 30, "velocity": 100}, {"time": 52559, "pitch": 66, "duration": 229, "velocity": 95}, {"time": 52559, "pitch": 71, "duration": 229, "velocity": 100}, {"time": 52569, "pitch": 62, "duration": 229, "velocity": 90}, {"time": 52798, "pitch": 62, "duration": 359, "velocity": 90}, {"time": 53038, "pitch": 68, "duration": 478, "velocity": 100}, {"time": 53038, "pitch": 73, "duration": 478, "velocity": 105}, {"time": 53048, "pitch": 64, "duration": 468, "velocity": 95}, {"time": 53277, "pitch": 45, "duration": 10, "velocity": 90}, {"time": 53516, "pitch": 68, "duration": 120, "velocity": 95}, {"time": 53516, "pitch": 73, "duration": 120, "velocity": 100}, {"time": 53526, "pitch": 64, "duration": 120, "velocity": 90}, {"time": 53755, "pitch": 64, "duration": 31, "velocity": 95}, {"time": 54000, "pitch": 68, "duration": 245, "velocity": 100}, {"time": 54010, "pitch": 64, "duration": 235, "velocity": 90}, {"time": 54245, "pitch": 64, "duration": 229, "velocity": 90}, {"time": 54245, "pitch": 68, "duration": 229, "velocity": 95}, {"time": 54255, "pitch": 73, "duration": 229, "velocity": 100}, {"time": 54484, "pitch": 45, "duration": 30, "velocity": 90}, {"time": 54723, "pitch": 64, "duration": 229, "velocity": 90}, {"time": 54723, "pitch": 68, "duration": 229, "velocity": 95}, {"time": 54733, "pitch": 73, "duration": 229, "velocity": 100}, {"time": 54962, "pitch": 45, "duration": 30, "velocity": 90}, {"time": 55202, "pitch": 54, "duration": 229, "velocity": 90}, {"time": 55202, "pitch": 57, "duration": 229, "velocity": 95}, {"time": 55212, "pitch": 62, "duration": 229, "velocity": 100}, {"time": 55680, "pitch": 54, "duration": 229, "velocity": 90}, {"time": 55680, "pitch": 57, "duration": 229, "velocity": 95}, {"time": 55690, "pitch": 62, "duration": 229, "velocity": 100}, {"time": 56158, "pitch": 54, "duration": 30, "velocity": 100}, {"time": 56398, "pitch": 57, "duration": 229, "velocity": 95}, {"time": 56398, "pitch": 62, "duration": 229, "velocity": 100}, {"time": 56408, "pitch": 54, "duration": 229, "velocity": 90}, {"time": 56637, "pitch": 45, "duration": 359, "velocity": 90}, {"time": 56876, "pitch": 59, "duration": 120, "velocity": 100}, {"time": 56876, "pitch": 64, "duration": 120, "velocity": 105}, {"time": 56886, "pitch": 56, "duration": 120, "velocity": 95}, {"time": 57115, "pitch": 49, "duration": 10, "velocity": 90}, {"time": 57360, "pitch": 59, "duration": 122, "velocity": 95}, {"time": 57360, "pitch": 64, "duration": 122, "velocity": 100}, {"time": 57370, "pitch": 56, "duration": 123, "velocity": 90}, {"time": 57605, "pitch": 49, "duration": 30, "velocity": 95}, {"time": 57844, "pitch": 59, "duration": 239, "velocity": 100}, {"time": 57854, "pitch": 56, "duration": 229, "velocity": 90}, {"time": 58083, "pitch": 56, "duration": 229, "velocity": 90}, {"time": 58083, "pitch": 59, "duration": 229, "velocity": 95}, {"time": 58093, "pitch": 64, "duration": 229, "velocity": 100}, {"time": 58322, "pitch": 49, "duration": 30, "velocity": 90}, {"time": 58562, "pitch": 56, "duration": 229, "velocity": 90}, {"time": 58562, "pitch": 59, "duration": 229, "velocity": 95}, {"time": 58572, "pitch": 64, "duration": 229, "velocity": 100}, {"time": 58801, "pitch": 49, "duration": 30, "velocity": 90}, {"time": 59040, "pitch": 62, "duration": 229, "velocity": 90}, {"time": 59040, "pitch": 66, "duration": 229, "velocity": 95}, {"time": 59050, "pitch": 71, "duration": 229, "velocity": 100}, {"time": 59518, "pitch": 62, "duration": 230, "velocity": 90}, {"time": 59518, "pitch": 66, "duration": 230, "velocity": 95}, {"time": 59528, "pitch": 71, "duration": 230, "velocity": 100}, {"time": 59997, "pitch": 62, "duration": 30, "velocity": 100}, {"time": 60236, "pitch": 66, "duration": 229, "velocity": 95}, {"time": 60236, "pitch": 71, "duration": 229, "velocity": 100}, {"time": 60246, "pitch": 62, "duration": 229, "velocity": 90}, {"time": 60475, "pitch": 62, "duration": 367, "velocity": 90}, {"time": 60720, "pitch": 68, "duration": 484, "velocity": 100}, {"time": 60720, "pitch": 73, "duration": 484, "velocity": 105}, {"time": 60730, "pitch": 64, "duration": 474, "velocity": 95}, {"time": 60965, "pitch": 45, "duration": 10, "velocity": 90}, {"time": 61204, "pitch": 68, "duration": 120, "velocity": 95}, {"time": 61204, "pitch": 73, "duration": 120, "velocity": 100}, {"time": 61214, "pitch": 64, "duration": 119, "velocity": 90}, {"time": 61443, "pitch": 64, "duration": 30, "velocity": 95}, {"time": 61682, "pitch": 68, "duration": 240, "velocity": 100}, {"time": 61692, "pitch": 64, "duration": 230, "velocity": 90}, {"time": 61922, "pitch": 64, "duration": 229, "velocity": 90}, {"time": 61922, "pitch": 68, "duration": 229, "velocity": 95}, {"time": 61931, "pitch": 73, "duration": 230, "velocity": 100}, {"time": 62161, "pitch": 45, "duration": 30, "velocity": 90}, {"time": 62400, "pitch": 64, "duration": 229, "velocity": 90}, {"time": 62400, "pitch": 68, "duration": 229, "velocity": 95}, {"time": 62410, "pitch": 73, "duration": 229, "velocity": 100}, {"time": 62639, "pitch": 45, "duration": 30, "velocity": 90}, {"time": 62878, "pitch": 62, "duration": 230, "velocity": 90}, {"time": 62878, "pitch": 66, "duration": 230, "velocity": 95}, {"time": 62888, "pitch": 73, "duration": 230, "velocity": 100}, {"time": 63118, "pitch": 47, "duration": 29, "velocity": 90}, {"time": 63357, "pitch": 47, "duration": 30, "velocity": 90}, {"time": 63596, "pitch": 66, "duration": 229, "velocity": 95}, {"time": 63596, "pitch": 73, "duration": 229, "velocity": 100}, {"time": 63606, "pitch": 62, "duration": 229, "velocity": 90}, {"time": 63835, "pitch": 62, "duration": 235, "velocity": 100}, {"time": 63835, "pitch": 66, "duration": 235, "velocity": 95}, {"time": 63845, "pitch": 73, "duration": 235, "velocity": 90}, {"time": 64080, "pitch": 66, "duration": 235, "velocity": 95}, {"time": 64080, "pitch": 71, "duration": 235, "velocity": 100}, {"time": 64090, "pitch": 62, "duration": 235, "velocity": 90}, {"time": 64325, "pitch": 47, "duration": 30, "velocity": 90}, {"time": 64564, "pitch": 66, "duration": 239, "velocity": 95}, {"time": 64564, "pitch": 73, "duration": 239, "velocity": 100}, {"time": 64574, "pitch": 62, "duration": 229, "velocity": 90}, {"time": 64803, "pitch": 47, "duration": 30, "velocity": 90}, {"time": 65042, "pitch": 66, "duration": 230, "velocity": 95}, {"time": 65042, "pitch": 73, "duration": 230, "velocity": 90}, {"time": 65052, "pitch": 62, "duration": 230, "velocity": 100}, {"time": 65282, "pitch": 47, "duration": 29, "velocity": 90}, {"time": 65521, "pitch": 66, "duration": 239, "velocity": 95}, {"time": 65521, "pitch": 73, "duration": 239, "velocity": 90}, {"time": 65531, "pitch": 62, "duration": 229, "velocity": 100}, {"time": 65760, "pitch": 62, "duration": 239, "velocity": 90}, {"time": 65760, "pitch": 66, "duration": 239, "velocity": 95}, {"time": 65770, "pitch": 73, "duration": 229, "velocity": 100}, {"time": 65999, "pitch": 66, "duration": 239, "velocity": 95}, {"time": 65999, "pitch": 71, "duration": 239, "velocity": 90}, {"time": 66009, "pitch": 62, "duration": 229, "velocity": 100}, {"time": 66238, "pitch": 62, "duration": 240, "velocity": 90}, {"time": 66238, "pitch": 66, "duration": 240, "velocity": 95}, {"time": 66248, "pitch": 71, "duration": 230, "velocity": 100}, {"time": 66478, "pitch": 47, "duration": 29, "velocity": 90}, {"time": 66717, "pitch": 64, "duration": 229, "velocity": 90}, {"time": 66717, "pitch": 68, "duration": 229, "velocity": 95}, {"time": 66727, "pitch": 75, "duration": 229, "velocity": 100}, {"time": 66956, "pitch": 49, "duration": 30, "velocity": 90}, {"time": 67195, "pitch": 49, "duration": 31, "velocity": 90}, {"time": 67440, "pitch": 68, "duration": 235, "velocity": 95}, {"time": 67440, "pitch": 75, "duration": 235, "velocity": 100}, {"time": 67450, "pitch": 64, "duration": 235, "velocity": 90}, {"time": 67685, "pitch": 64, "duration": 229, "velocity": 100}, {"time": 67685, "pitch": 68, "duration": 229, "velocity": 95}, {"time": 67695, "pitch": 75, "duration": 229, "velocity": 90}, {"time": 67924, "pitch": 68, "duration": 229, "velocity": 95}, {"time": 67924, "pitch": 73, "duration": 229, "velocity": 100}, {"time": 67934, "pitch": 64, "duration": 229, "velocity": 90}, {"time": 68163, "pitch": 49, "duration": 30, "velocity": 90}, {"time": 68402, "pitch": 68, "duration": 240, "velocity": 95}, {"time": 68402, "pitch": 75, "duration": 240, "velocity": 100}, {"time": 68412, "pitch": 64, "duration": 230, "velocity": 90}, {"time": 68642, "pitch": 49, "duration": 29, "velocity": 90}, {"time": 68881, "pitch": 68, "duration": 229, "velocity": 95}, {"time": 68881, "pitch": 75, "duration": 229, "velocity": 90}, {"time": 68891, "pitch": 64, "duration": 229, "velocity": 100}, {"time": 69120, "pitch": 49, "duration": 30, "velocity": 90}, {"time": 69359, "pitch": 68, "duration": 239, "velocity": 95}, {"time": 69359, "pitch": 75, "duration": 239, "velocity": 90}, {"time": 69369, "pitch": 64, "duration": 229, "velocity": 100}, {"time": 69598, "pitch": 64, "duration": 240, "velocity": 90}, {"time": 69598, "pitch": 68, "duration": 240, "velocity": 95}, {"time": 69608, "pitch": 75, "duration": 230, "velocity": 100}, {"time": 69838, "pitch": 49, "duration": 29, "velocity": 90}, {"time": 70077, "pitch": 64, "duration": 239, "velocity": 90}, {"time": 70077, "pitch": 68, "duration": 239, "velocity": 95}, {"time": 70087, "pitch": 73, "duration": 229, "velocity": 100}, {"time": 70316, "pitch": 49, "duration": 30, "velocity": 90}, {"time": 70555, "pitch": 62, "duration": 235, "velocity": 90}, {"time": 70555, "pitch": 66, "duration": 235, "velocity": 95}, {"time": 70565, "pitch": 73, "duration": 235, "velocity": 100}, {"time": 70800, "pitch": 47, "duration": 31, "velocity": 90}, {"time": 71045, "pitch": 47, "duration": 30, "velocity": 90}, {"time": 71284, "pitch": 66, "duration": 229, "velocity": 95}, {"time": 71284, "pitch": 73, "duration": 229, "velocity": 100}, {"time": 71294, "pitch": 62, "duration": 229, "velocity": 90}, {"time": 71523, "pitch": 62, "duration": 229, "velocity": 100}, {"time": 71523, "pitch": 66, "duration": 229, "velocity": 95}, {"time": 71533, "pitch": 73, "duration": 229, "velocity": 90}, {"time": 71762, "pitch": 66, "duration": 230, "velocity": 95}, {"time": 71762, "pitch": 71, "duration": 230, "velocity": 100}, {"time": 71772, "pitch": 62, "duration": 230, "velocity": 90}, {"time": 72002, "pitch": 47, "duration": 29, "velocity": 90}, {"time": 72241, "pitch": 66, "duration": 239, "velocity": 95}, {"time": 72241, "pitch": 73, "duration": 239, "velocity": 100}, {"time": 72251, "pitch": 62, "duration": 229, "velocity": 90}, {"time": 72480, "pitch": 47, "duration": 30, "velocity": 90}, {"time": 72719, "pitch": 66, "duration": 229, "velocity": 95}, {"time": 72719, "pitch": 73, "duration": 229, "velocity": 90}, {"time": 72729, "pitch": 62, "duration": 229, "velocity": 100}, {"time": 72958, "pitch": 47, "duration": 30, "velocity": 90}, {"time": 73198, "pitch": 66, "duration": 239, "velocity": 95}, {"time": 73198, "pitch": 73, "duration": 239, "velocity": 90}, {"time": 73208, "pitch": 62, "duration": 229, "velocity": 100}, {"time": 73437, "pitch": 62, "duration": 239, "velocity": 90}, {"time": 73437, "pitch": 66, "duration": 239, "velocity": 95}, {"time": 73447, "pitch": 73, "duration": 229, "velocity": 100}, {"time": 73676, "pitch": 66, "duration": 239, "velocity": 95}, {"time": 73676, "pitch": 71, "duration": 239, "velocity": 90}, {"time": 73686, "pitch": 62, "duration": 229, "velocity": 100}, {"time": 73915, "pitch": 62, "duration": 245, "velocity": 90}, {"time": 73915, "pitch": 66, "duration": 245, "velocity": 95}, {"time": 73925, "pitch": 71, "duration": 235, "velocity": 100}, {"time": 74160, "pitch": 47, "duration": 31, "velocity": 90}, {"time": 74405, "pitch": 60, "duration": 239, "velocity": 90}, {"time": 74405, "pitch": 65, "duration": 239, "velocity": 95}, {"time": 74415, "pitch": 69, "duration": 478, "velocity": 100}, {"time": 74644, "pitch": 65, "duration": 239, "velocity": 80}, {"time": 74654, "pitch": 60, "duration": 219, "velocity": 90}, {"time": 74883, "pitch": 60, "duration": 239, "velocity": 90}, {"time": 74883, "pitch": 65, "duration": 239, "velocity": 95}, {"time": 74893, "pitch": 69, "duration": 478, "velocity": 100}, {"time": 75122, "pitch": 65, "duration": 240, "velocity": 80}, {"time": 75132, "pitch": 60, "duration": 220, "velocity": 90}, {"time": 75362, "pitch": 60, "duration": 239, "velocity": 90}, {"time": 75362, "pitch": 65, "duration": 239, "velocity": 95}, {"time": 75371, "pitch": 69, "duration": 479, "velocity": 100}, {"time": 75601, "pitch": 65, "duration": 239, "velocity": 80}, {"time": 75611, "pitch": 60, "duration": 219, "velocity": 90}, {"time": 75840, "pitch": 60, "duration": 120, "velocity": 90}, {"time": 75840, "pitch": 65, "duration": 120, "velocity": 95}, {"time": 75850, "pitch": 69, "duration": 119, "velocity": 100}, {"time": 76079, "pitch": 66, "duration": 479, "velocity": 95}, {"time": 76079, "pitch": 69, "duration": 479, "velocity": 100}, {"time": 76089, "pitch": 62, "duration": 469, "velocity": 90}, {"time": 76558, "pitch": 62, "duration": 239, "velocity": 90}, {"time": 76558, "pitch": 66, "duration": 239, "velocity": 95}, {"time": 76567, "pitch": 69, "duration": 230, "velocity": 100}, {"time": 76797, "pitch": 62, "duration": 20, "velocity": 80}, {"time": 77036, "pitch": 62, "duration": 20, "velocity": 80}, {"time": 77275, "pitch": 62, "duration": 245, "velocity": 90}, {"time": 77275, "pitch": 66, "duration": 245, "velocity": 95}, {"time": 77285, "pitch": 71, "duration": 490, "velocity": 100}, {"time": 77520, "pitch": 66, "duration": 245, "velocity": 80}, {"time": 77530, "pitch": 62, "duration": 225, "velocity": 90}, {"time": 77765, "pitch": 62, "duration": 239, "velocity": 90}, {"time": 77765, "pitch": 66, "duration": 239, "velocity": 95}, {"time": 77775, "pitch": 71, "duration": 468, "velocity": 100}, {"time": 78004, "pitch": 66, "duration": 239, "velocity": 80}, {"time": 78014, "pitch": 62, "duration": 219, "velocity": 90}, {"time": 78243, "pitch": 57, "duration": 229, "velocity": 90}, {"time": 78243, "pitch": 61, "duration": 229, "velocity": 95}, {"time": 78253, "pitch": 64, "duration": 229, "velocity": 100}, {"time": 78722, "pitch": 57, "duration": 229, "velocity": 90}, {"time": 78722, "pitch": 61, "duration": 229, "velocity": 95}, {"time": 78731, "pitch": 64, "duration": 230, "velocity": 100}, {"time": 79200, "pitch": 57, "duration": 30, "velocity": 100}, {"time": 79439, "pitch": 61, "duration": 229, "velocity": 95}, {"time": 79439, "pitch": 64, "duration": 229, "velocity": 100}, {"time": 79449, "pitch": 57, "duration": 229, "velocity": 90}, {"time": 79678, "pitch": 57, "duration": 359, "velocity": 90}, {"time": 79918, "pitch": 61, "duration": 119, "velocity": 100}, {"time": 79918, "pitch": 64, "duration": 119, "velocity": 105}, {"time": 79927, "pitch": 58, "duration": 120, "velocity": 95}, {"time": 80157, "pitch": 58, "duration": 30, "velocity": 90}, {"time": 80396, "pitch": 61, "duration": 229, "velocity": 95}, {"time": 80396, "pitch": 64, "duration": 229, "velocity": 90}, {"time": 80406, "pitch": 58, "duration": 229, "velocity": 100}, {"time": 80635, "pitch": 58, "duration": 31, "velocity": 90}, {"time": 80880, "pitch": 58, "duration": 31, "velocity": 80}, {"time": 81125, "pitch": 61, "duration": 159, "velocity": 85}, {"time": 81135, "pitch": 64, "duration": 159, "velocity": 90}, {"time": 81364, "pitch": 58, "duration": 30, "velocity": 70}, {"time": 81603, "pitch": 61, "duration": 160, "velocity": 85}, {"time": 81613, "pitch": 64, "duration": 160, "velocity": 90}, {"time": 81842, "pitch": 58, "duration": 30, "velocity": 70}, {"time": 82082, "pitch": 57, "duration": 229, "velocity": 90}, {"time": 82082, "pitch": 62, "duration": 229, "velocity": 95}, {"time": 82091, "pitch": 66, "duration": 230, "velocity": 100}, {"time": 82560, "pitch": 57, "duration": 229, "velocity": 90}, {"time": 82560, "pitch": 62, "duration": 229, "velocity": 95}, {"time": 82570, "pitch": 66, "duration": 229, "velocity": 100}, {"time": 83038, "pitch": 57, "duration": 30, "velocity": 100}, {"time": 83278, "pitch": 62, "duration": 229, "velocity": 95}, {"time": 83278, "pitch": 66, "duration": 229, "velocity": 100}, {"time": 83287, "pitch": 57, "duration": 230, "velocity": 90}, {"time": 83517, "pitch": 57, "duration": 359, "velocity": 90}, {"time": 83756, "pitch": 65, "duration": 474, "velocity": 100}, {"time": 83756, "pitch": 69, "duration": 474, "velocity": 105}, {"time": 83766, "pitch": 60, "duration": 260, "velocity": 95}, {"time": 84240, "pitch": 65, "duration": 235, "velocity": 95}, {"time": 84240, "pitch": 69, "duration": 235, "velocity": 90}, {"time": 84250, "pitch": 60, "duration": 235, "velocity": 100}, {"time": 84485, "pitch": 60, "duration": 30, "velocity": 90}, {"time": 84724, "pitch": 60, "duration": 30, "velocity": 80}, {"time": 84963, "pitch": 60, "duration": 160, "velocity": 85}, {"time": 84973, "pitch": 65, "duration": 160, "velocity": 90}, {"time": 85202, "pitch": 60, "duration": 30, "velocity": 70}, {"time": 85442, "pitch": 60, "duration": 159, "velocity": 85}, {"time": 85451, "pitch": 65, "duration": 160, "velocity": 90}, {"time": 85681, "pitch": 60, "duration": 30, "velocity": 70}, {"time": 85920, "pitch": 59, "duration": 229, "velocity": 90}, {"time": 85920, "pitch": 64, "duration": 229, "velocity": 95}, {"time": 85930, "pitch": 68, "duration": 229, "velocity": 100}, {"time": 86159, "pitch": 49, "duration": 30, "velocity": 90}, {"time": 86398, "pitch": 49, "duration": 30, "velocity": 90}, {"time": 86638, "pitch": 64, "duration": 229, "velocity": 95}, {"time": 86638, "pitch": 68, "duration": 229, "velocity": 100}, {"time": 86647, "pitch": 59, "duration": 230, "velocity": 90}, {"time": 86877, "pitch": 59, "duration": 229, "velocity": 100}, {"time": 86877, "pitch": 64, "duration": 229, "velocity": 95}, {"time": 86887, "pitch": 68, "duration": 229, "velocity": 90}, {"time": 87116, "pitch": 64, "duration": 229, "velocity": 95}, {"time": 87116, "pitch": 68, "duration": 229, "velocity": 100}, {"time": 87126, "pitch": 59, "duration": 229, "velocity": 90}, {"time": 87355, "pitch": 49, "duration": 31, "velocity": 90}, {"time": 87600, "pitch": 64, "duration": 484, "velocity": 105}, {"time": 87600, "pitch": 68, "duration": 484, "velocity": 110}, {"time": 87610, "pitch": 59, "duration": 474, "velocity": 100}, {"time": 87845, "pitch": 42, "duration": 30, "velocity": 90}, {"time": 88084, "pitch": 64, "duration": 229, "velocity": 105}, {"time": 88084, "pitch": 68, "duration": 229, "velocity": 100}, {"time": 88094, "pitch": 59, "duration": 229, "velocity": 110}, {"time": 88323, "pitch": 42, "duration": 30, "velocity": 90}, {"time": 88562, "pitch": 68, "duration": 240, "velocity": 100}, {"time": 88562, "pitch": 75, "duration": 240, "velocity": 105}, {"time": 88572, "pitch": 64, "duration": 230, "velocity": 95}, {"time": 88802, "pitch": 42, "duration": 29, "velocity": 90}, {"time": 89041, "pitch": 68, "duration": 239, "velocity": 105}, {"time": 89041, "pitch": 73, "duration": 239, "velocity": 110}, {"time": 89051, "pitch": 64, "duration": 229, "velocity": 100}, {"time": 89280, "pitch": 42, "duration": 30, "velocity": 90}, {"time": 89519, "pitch": 64, "duration": 239, "velocity": 95}, {"time": 89519, "pitch": 68, "duration": 239, "velocity": 90}, {"time": 89529, "pitch": 59, "duration": 229, "velocity": 100}, {"time": 89758, "pitch": 57, "duration": 230, "velocity": 90}, {"time": 89758, "pitch": 62, "duration": 230, "velocity": 95}, {"time": 89768, "pitch": 66, "duration": 230, "velocity": 100}, {"time": 90237, "pitch": 57, "duration": 229, "velocity": 90}, {"time": 90237, "pitch": 62, "duration": 229, "velocity": 95}, {"time": 90247, "pitch": 66, "duration": 229, "velocity": 100}, {"time": 90715, "pitch": 57, "duration": 31, "velocity": 100}, {"time": 90960, "pitch": 62, "duration": 235, "velocity": 95}, {"time": 90960, "pitch": 66, "duration": 235, "velocity": 100}, {"time": 90970, "pitch": 57, "duration": 235, "velocity": 90}, {"time": 91205, "pitch": 57, "duration": 239, "velocity": 90}, {"time": 91444, "pitch": 62, "duration": 468, "velocity": 100}, {"time": 91444, "pitch": 66, "duration": 468, "velocity": 105}, {"time": 91454, "pitch": 57, "duration": 259, "velocity": 95}, {"time": 91922, "pitch": 62, "duration": 230, "velocity": 95}, {"time": 91922, "pitch": 66, "duration": 230, "velocity": 90}, {"time": 91932, "pitch": 57, "duration": 230, "velocity": 100}, {"time": 92162, "pitch": 57, "duration": 29, "velocity": 90}, {"time": 92401, "pitch": 57, "duration": 30, "velocity": 80}, {"time": 92640, "pitch": 62, "duration": 159, "velocity": 85}, {"time": 92650, "pitch": 66, "duration": 159, "velocity": 90}, {"time": 92879, "pitch": 57, "duration": 30, "velocity": 70}, {"time": 93118, "pitch": 62, "duration": 160, "velocity": 85}, {"time": 93128, "pitch": 66, "duration": 160, "velocity": 90}, {"time": 93358, "pitch": 57, "duration": 29, "velocity": 70}, {"time": 93597, "pitch": 45, "duration": 229, "velocity": 90}, {"time": 93597, "pitch": 52, "duration": 229, "velocity": 95}, {"time": 93607, "pitch": 57, "duration": 229, "velocity": 100}, {"time": 94075, "pitch": 45, "duration": 235, "velocity": 90}, {"time": 94075, "pitch": 52, "duration": 235, "velocity": 95}, {"time": 94085, "pitch": 57, "duration": 235, "velocity": 100}, {"time": 94565, "pitch": 45, "duration": 30, "velocity": 100}, {"time": 94804, "pitch": 52, "duration": 229, "velocity": 95}, {"time": 94804, "pitch": 57, "duration": 229, "velocity": 100}, {"time": 94814, "pitch": 45, "duration": 229, "velocity": 90}, {"time": 95043, "pitch": 45, "duration": 239, "velocity": 90}, {"time": 95282, "pitch": 47, "duration": 120, "velocity": 100}, {"time": 95282, "pitch": 52, "duration": 120, "velocity": 105}, {"time": 95292, "pitch": 40, "duration": 120, "velocity": 95}, {"time": 95521, "pitch": 40, "duration": 10, "velocity": 90}, {"time": 95761, "pitch": 47, "duration": 119, "velocity": 95}, {"time": 95761, "pitch": 52, "duration": 119, "velocity": 100}, {"time": 95771, "pitch": 40, "duration": 119, "velocity": 90}, {"time": 96000, "pitch": 40, "duration": 30, "velocity": 95}, {"time": 96239, "pitch": 47, "duration": 239, "velocity": 100}, {"time": 96249, "pitch": 40, "duration": 229, "velocity": 90}, {"time": 96478, "pitch": 40, "duration": 230, "velocity": 90}, {"time": 96478, "pitch": 47, "duration": 230, "velocity": 95}, {"time": 96488, "pitch": 52, "duration": 230, "velocity": 100}, {"time": 96718, "pitch": 40, "duration": 29, "velocity": 90}, {"time": 96957, "pitch": 40, "duration": 478, "velocity": 90}, {"time": 96957, "pitch": 47, "duration": 478, "velocity": 95}, {"time": 96967, "pitch": 52, "duration": 468, "velocity": 100}, {"time": 97435, "pitch": 45, "duration": 235, "velocity": 90}, {"time": 97435, "pitch": 52, "duration": 235, "velocity": 95}, {"time": 97445, "pitch": 57, "duration": 235, "velocity": 100}, {"time": 97925, "pitch": 45, "duration": 229, "velocity": 90}, {"time": 97925, "pitch": 52, "duration": 229, "velocity": 95}, {"time": 97935, "pitch": 57, "duration": 229, "velocity": 100}, {"time": 98403, "pitch": 45, "duration": 30, "velocity": 100}, {"time": 98642, "pitch": 52, "duration": 230, "velocity": 95}, {"time": 98642, "pitch": 57, "duration": 230, "velocity": 100}, {"time": 98652, "pitch": 45, "duration": 229, "velocity": 90}, {"time": 98881, "pitch": 45, "duration": 240, "velocity": 90}, {"time": 99121, "pitch": 50, "duration": 199, "velocity": 90}, {"time": 99121, "pitch": 56, "duration": 199, "velocity": 95}, {"time": 99121, "pitch": 61, "duration": 199, "velocity": 100}, {"time": 99131, "pitch": 40, "duration": 199, "velocity": 85}, {"time": 99360, "pitch": 52, "duration": 10, "velocity": 100}, {"time": 99599, "pitch": 40, "duration": 10, "velocity": 90}, {"time": 99838, "pitch": 40, "duration": 1447, "velocity": 85}, {"time": 99838, "pitch": 50, "duration": 1447, "velocity": 90}, {"time": 99838, "pitch": 56, "duration": 1447, "velocity": 95}, {"time": 99848, "pitch": 61, "duration": 1437, "velocity": 100}, {"time": 101285, "pitch": 54, "duration": 229, "velocity": 90}, {"time": 101285, "pitch": 57, "duration": 229, "velocity": 95}, {"time": 101295, "pitch": 62, "duration": 229, "velocity": 100}, {"time": 101763, "pitch": 54, "duration": 229, "velocity": 90}, {"time": 101763, "pitch": 57, "duration": 229, "velocity": 95}, {"time": 101773, "pitch": 62, "duration": 229, "velocity": 100}, {"time": 102241, "pitch": 54, "duration": 30, "velocity": 100}, {"time": 102481, "pitch": 57, "duration": 229, "velocity": 95}, {"time": 102481, "pitch": 62, "duration": 229, "velocity": 100}, {"time": 102491, "pitch": 54, "duration": 229, "velocity": 90}, {"time": 102720, "pitch": 45, "duration": 359, "velocity": 90}, {"time": 102959, "pitch": 59, "duration": 120, "velocity": 100}, {"time": 102959, "pitch": 64, "duration": 120, "velocity": 105}, {"time": 102969, "pitch": 56, "duration": 120, "velocity": 95}, {"time": 103198, "pitch": 49, "duration": 10, "velocity": 90}, {"time": 103438, "pitch": 59, "duration": 119, "velocity": 95}, {"time": 103438, "pitch": 64, "duration": 119, "velocity": 100}, {"time": 103447, "pitch": 56, "duration": 120, "velocity": 90}, {"time": 103677, "pitch": 49, "duration": 30, "velocity": 95}, {"time": 103916, "pitch": 59, "duration": 239, "velocity": 100}, {"time": 103926, "pitch": 56, "duration": 229, "velocity": 90}, {"time": 104155, "pitch": 56, "duration": 235, "velocity": 90}, {"time": 104155, "pitch": 59, "duration": 235, "velocity": 95}, {"time": 104165, "pitch": 64, "duration": 235, "velocity": 100}, {"time": 104400, "pitch": 49, "duration": 31, "velocity": 90}, {"time": 104645, "pitch": 56, "duration": 229, "velocity": 90}, {"time": 104645, "pitch": 59, "duration": 229, "velocity": 95}, {"time": 104655, "pitch": 64, "duration": 229, "velocity": 100}, {"time": 104884, "pitch": 49, "duration": 30, "velocity": 90}, {"time": 105123, "pitch": 62, "duration": 229, "velocity": 90}, {"time": 105123, "pitch": 66, "duration": 229, "velocity": 95}, {"time": 105133, "pitch": 71, "duration": 229, "velocity": 100}, {"time": 105601, "pitch": 62, "duration": 230, "velocity": 90}, {"time": 105601, "pitch": 66, "duration": 230, "velocity": 95}, {"time": 105611, "pitch": 71, "duration": 230, "velocity": 100}, {"time": 106080, "pitch": 62, "duration": 30, "velocity": 100}, {"time": 106319, "pitch": 66, "duration": 229, "velocity": 95}, {"time": 106319, "pitch": 71, "duration": 229, "velocity": 100}, {"time": 106329, "pitch": 62, "duration": 229, "velocity": 90}, {"time": 106558, "pitch": 62, "duration": 359, "velocity": 90}, {"time": 106798, "pitch": 68, "duration": 478, "velocity": 100}, {"time": 106798, "pitch": 73, "duration": 478, "velocity": 105}, {"time": 106807, "pitch": 64, "duration": 469, "velocity": 95}, {"time": 107037, "pitch": 45, "duration": 10, "velocity": 90}, {"time": 107276, "pitch": 68, "duration": 120, "velocity": 95}, {"time": 107276, "pitch": 73, "duration": 120, "velocity": 100}, {"time": 107286, "pitch": 64, "duration": 119, "velocity": 90}, {"time": 107515, "pitch": 64, "duration": 31, "velocity": 95}, {"time": 107760, "pitch": 68, "duration": 245, "velocity": 100}, {"time": 107770, "pitch": 64, "duration": 235, "velocity": 90}, {"time": 108005, "pitch": 64, "duration": 229, "velocity": 90}, {"time": 108005, "pitch": 68, "duration": 229, "velocity": 95}, {"time": 108015, "pitch": 73, "duration": 229, "velocity": 100}, {"time": 108244, "pitch": 45, "duration": 30, "velocity": 90}, {"time": 108483, "pitch": 64, "duration": 229, "velocity": 90}, {"time": 108483, "pitch": 68, "duration": 229, "velocity": 95}, {"time": 108493, "pitch": 73, "duration": 229, "velocity": 100}, {"time": 108722, "pitch": 45, "duration": 30, "velocity": 90}, {"time": 108961, "pitch": 54, "duration": 230, "velocity": 90}, {"time": 108961, "pitch": 57, "duration": 230, "velocity": 95}, {"time": 108971, "pitch": 62, "duration": 230, "velocity": 100}, {"time": 109440, "pitch": 54, "duration": 229, "velocity": 90}, {"time": 109440, "pitch": 57, "duration": 229, "velocity": 95}, {"time": 109450, "pitch": 62, "duration": 229, "velocity": 100}, {"time": 109918, "pitch": 54, "duration": 30, "velocity": 100}, {"time": 110157, "pitch": 57, "duration": 230, "velocity": 95}, {"time": 110157, "pitch": 62, "duration": 230, "velocity": 100}, {"time": 110167, "pitch": 54, "duration": 230, "velocity": 90}, {"time": 110397, "pitch": 45, "duration": 359, "velocity": 90}, {"time": 110636, "pitch": 59, "duration": 120, "velocity": 100}, {"time": 110636, "pitch": 64, "duration": 120, "velocity": 105}, {"time": 110646, "pitch": 56, "duration": 119, "velocity": 95}, {"time": 110875, "pitch": 49, "duration": 10, "velocity": 90}, {"time": 111120, "pitch": 59, "duration": 122, "velocity": 95}, {"time": 111120, "pitch": 64, "duration": 122, "velocity": 100}, {"time": 111130, "pitch": 56, "duration": 123, "velocity": 90}, {"time": 111365, "pitch": 49, "duration": 30, "velocity": 95}, {"time": 111604, "pitch": 59, "duration": 239, "velocity": 100}, {"time": 111614, "pitch": 56, "duration": 229, "velocity": 90}, {"time": 111843, "pitch": 56, "duration": 229, "velocity": 90}, {"time": 111843, "pitch": 59, "duration": 229, "velocity": 95}, {"time": 111853, "pitch": 64, "duration": 229, "velocity": 100}, {"time": 112082, "pitch": 49, "duration": 30, "velocity": 90}, {"time": 112321, "pitch": 56, "duration": 230, "velocity": 90}, {"time": 112321, "pitch": 59, "duration": 230, "velocity": 95}, {"time": 112331, "pitch": 64, "duration": 230, "velocity": 100}, {"time": 112561, "pitch": 49, "duration": 30, "velocity": 90}, {"time": 112800, "pitch": 62, "duration": 229, "velocity": 90}, {"time": 112800, "pitch": 66, "duration": 229, "velocity": 95}, {"time": 112810, "pitch": 71, "duration": 229, "velocity": 100}, {"time": 113278, "pitch": 62, "duration": 230, "velocity": 90}, {"time": 113278, "pitch": 66, "duration": 230, "velocity": 95}, {"time": 113288, "pitch": 71, "duration": 229, "velocity": 100}, {"time": 113757, "pitch": 62, "duration": 30, "velocity": 100}, {"time": 113996, "pitch": 66, "duration": 229, "velocity": 95}, {"time": 113996, "pitch": 71, "duration": 229, "velocity": 100}, {"time": 114006, "pitch": 62, "duration": 229, "velocity": 90}, {"time": 114235, "pitch": 62, "duration": 367, "velocity": 90}, {"time": 114480, "pitch": 68, "duration": 484, "velocity": 100}, {"time": 114480, "pitch": 73, "duration": 484, "velocity": 105}, {"time": 114490, "pitch": 64, "duration": 474, "velocity": 95}, {"time": 114725, "pitch": 45, "duration": 10, "velocity": 90}, {"time": 114964, "pitch": 68, "duration": 119, "velocity": 95}, {"time": 114964, "pitch": 73, "duration": 119, "velocity": 100}, {"time": 114974, "pitch": 64, "duration": 119, "velocity": 90}, {"time": 115203, "pitch": 64, "duration": 30, "velocity": 95}, {"time": 115442, "pitch": 68, "duration": 239, "velocity": 100}, {"time": 115452, "pitch": 64, "duration": 229, "velocity": 90}, {"time": 115681, "pitch": 64, "duration": 230, "velocity": 90}, {"time": 115681, "pitch": 68, "duration": 230, "velocity": 95}, {"time": 115691, "pitch": 73, "duration": 230, "velocity": 100}, {"time": 115921, "pitch": 45, "duration": 30, "velocity": 90}, {"time": 116160, "pitch": 64, "duration": 229, "velocity": 90}, {"time": 116160, "pitch": 68, "duration": 229, "velocity": 95}, {"time": 116170, "pitch": 73, "duration": 229, "velocity": 100}, {"time": 116399, "pitch": 45, "duration": 30, "velocity": 90}, {"time": 116638, "pitch": 62, "duration": 230, "velocity": 90}, {"time": 116638, "pitch": 66, "duration": 230, "velocity": 95}, {"time": 116648, "pitch": 73, "duration": 229, "velocity": 100}, {"time": 116877, "pitch": 47, "duration": 30, "velocity": 90}, {"time": 117117, "pitch": 47, "duration": 30, "velocity": 90}, {"time": 117356, "pitch": 66, "duration": 229, "velocity": 95}, {"time": 117356, "pitch": 73, "duration": 229, "velocity": 100}, {"time": 117366, "pitch": 62, "duration": 229, "velocity": 90}, {"time": 117595, "pitch": 62, "duration": 235, "velocity": 100}, {"time": 117595, "pitch": 66, "duration": 235, "velocity": 95}, {"time": 117605, "pitch": 73, "duration": 235, "velocity": 90}, {"time": 117840, "pitch": 66, "duration": 235, "velocity": 95}, {"time": 117840, "pitch": 71, "duration": 235, "velocity": 100}, {"time": 117850, "pitch": 62, "duration": 235, "velocity": 90}, {"time": 118085, "pitch": 47, "duration": 30, "velocity": 90}, {"time": 118324, "pitch": 66, "duration": 239, "velocity": 95}, {"time": 118324, "pitch": 73, "duration": 239, "velocity": 100}, {"time": 118334, "pitch": 62, "duration": 229, "velocity": 90}, {"time": 118563, "pitch": 47, "duration": 30, "velocity": 90}, {"time": 118802, "pitch": 66, "duration": 230, "velocity": 95}, {"time": 118802, "pitch": 73, "duration": 230, "velocity": 90}, {"time": 118812, "pitch": 62, "duration": 229, "velocity": 100}, {"time": 119041, "pitch": 47, "duration": 30, "velocity": 90}, {"time": 119281, "pitch": 66, "duration": 239, "velocity": 95}, {"time": 119281, "pitch": 73, "duration": 239, "velocity": 90}, {"time": 119291, "pitch": 62, "duration": 229, "velocity": 100}, {"time": 119520, "pitch": 62, "duration": 239, "velocity": 90}, {"time": 119520, "pitch": 66, "duration": 239, "velocity": 95}, {"time": 119530, "pitch": 73, "duration": 229, "velocity": 100}, {"time": 119759, "pitch": 66, "duration": 239, "velocity": 95}, {"time": 119759, "pitch": 71, "duration": 239, "velocity": 90}, {"time": 119769, "pitch": 62, "duration": 229, "velocity": 100}, {"time": 119998, "pitch": 62, "duration": 239, "velocity": 90}, {"time": 119998, "pitch": 66, "duration": 239, "velocity": 95}, {"time": 120008, "pitch": 71, "duration": 229, "velocity": 100}, {"time": 120237, "pitch": 47, "duration": 30, "velocity": 90}, {"time": 120477, "pitch": 64, "duration": 229, "velocity": 90}, {"time": 120477, "pitch": 68, "duration": 229, "velocity": 95}, {"time": 120487, "pitch": 75, "duration": 229, "velocity": 100}, {"time": 120716, "pitch": 49, "duration": 30, "velocity": 90}, {"time": 120955, "pitch": 49, "duration": 31, "velocity": 90}, {"time": 121200, "pitch": 68, "duration": 235, "velocity": 95}, {"time": 121200, "pitch": 75, "duration": 235, "velocity": 100}, {"time": 121210, "pitch": 64, "duration": 235, "velocity": 90}, {"time": 121445, "pitch": 64, "duration": 229, "velocity": 100}, {"time": 121445, "pitch": 68, "duration": 229, "velocity": 95}, {"time": 121455, "pitch": 75, "duration": 229, "velocity": 90}, {"time": 121684, "pitch": 68, "duration": 229, "velocity": 95}, {"time": 121684, "pitch": 73, "duration": 229, "velocity": 100}, {"time": 121694, "pitch": 64, "duration": 229, "velocity": 90}, {"time": 121923, "pitch": 49, "duration": 30, "velocity": 90}, {"time": 122162, "pitch": 68, "duration": 239, "velocity": 95}, {"time": 122162, "pitch": 75, "duration": 239, "velocity": 100}, {"time": 122172, "pitch": 64, "duration": 229, "velocity": 90}, {"time": 122401, "pitch": 49, "duration": 30, "velocity": 90}, {"time": 122641, "pitch": 68, "duration": 229, "velocity": 95}, {"time": 122641, "pitch": 75, "duration": 229, "velocity": 90}, {"time": 122651, "pitch": 64, "duration": 229, "velocity": 100}, {"time": 122880, "pitch": 49, "duration": 30, "velocity": 90}, {"time": 123119, "pitch": 68, "duration": 239, "velocity": 95}, {"time": 123119, "pitch": 75, "duration": 239, "velocity": 90}, {"time": 123129, "pitch": 64, "duration": 229, "velocity": 100}, {"time": 123358, "pitch": 64, "duration": 239, "velocity": 90}, {"time": 123358, "pitch": 68, "duration": 239, "velocity": 95}, {"time": 123368, "pitch": 75, "duration": 229, "velocity": 100}, {"time": 123597, "pitch": 49, "duration": 30, "velocity": 90}, {"time": 123837, "pitch": 64, "duration": 239, "velocity": 90}, {"time": 123837, "pitch": 68, "duration": 239, "velocity": 95}, {"time": 123847, "pitch": 73, "duration": 229, "velocity": 100}, {"time": 124076, "pitch": 49, "duration": 30, "velocity": 90}, {"time": 124315, "pitch": 62, "duration": 235, "velocity": 90}, {"time": 124315, "pitch": 66, "duration": 235, "velocity": 95}, {"time": 124325, "pitch": 73, "duration": 235, "velocity": 100}, {"time": 124560, "pitch": 47, "duration": 30, "velocity": 90}, {"time": 124805, "pitch": 47, "duration": 30, "velocity": 90}, {"time": 125044, "pitch": 66, "duration": 229, "velocity": 95}, {"time": 125044, "pitch": 73, "duration": 229, "velocity": 100}, {"time": 125054, "pitch": 62, "duration": 229, "velocity": 90}, {"time": 125283, "pitch": 62, "duration": 229, "velocity": 100}, {"time": 125283, "pitch": 66, "duration": 229, "velocity": 95}, {"time": 125293, "pitch": 73, "duration": 229, "velocity": 90}, {"time": 125522, "pitch": 66, "duration": 230, "velocity": 95}, {"time": 125522, "pitch": 71, "duration": 230, "velocity": 100}, {"time": 125532, "pitch": 62, "duration": 229, "velocity": 90}, {"time": 125761, "pitch": 47, "duration": 30, "velocity": 90}, {"time": 126001, "pitch": 66, "duration": 239, "velocity": 95}, {"time": 126001, "pitch": 73, "duration": 239, "velocity": 100}, {"time": 126011, "pitch": 62, "duration": 229, "velocity": 90}, {"time": 126240, "pitch": 47, "duration": 30, "velocity": 90}, {"time": 126479, "pitch": 66, "duration": 229, "velocity": 95}, {"time": 126479, "pitch": 73, "duration": 229, "velocity": 90}, {"time": 126489, "pitch": 62, "duration": 229, "velocity": 100}, {"time": 126718, "pitch": 47, "duration": 30, "velocity": 90}, {"time": 126957, "pitch": 66, "duration": 240, "velocity": 95}, {"time": 126957, "pitch": 73, "duration": 240, "velocity": 90}, {"time": 126967, "pitch": 62, "duration": 230, "velocity": 100}, {"time": 127197, "pitch": 62, "duration": 239, "velocity": 90}, {"time": 127197, "pitch": 66, "duration": 239, "velocity": 95}, {"time": 127207, "pitch": 73, "duration": 229, "velocity": 100}, {"time": 127436, "pitch": 66, "duration": 239, "velocity": 95}, {"time": 127436, "pitch": 71, "duration": 239, "velocity": 90}, {"time": 127446, "pitch": 62, "duration": 229, "velocity": 100}, {"time": 127675, "pitch": 62, "duration": 245, "velocity": 90}, {"time": 127675, "pitch": 66, "duration": 245, "velocity": 95}, {"time": 127685, "pitch": 71, "duration": 235, "velocity": 100}, {"time": 127920, "pitch": 47, "duration": 30, "velocity": 90}, {"time": 128165, "pitch": 60, "duration": 239, "velocity": 90}, {"time": 128165, "pitch": 65, "duration": 239, "velocity": 95}, {"time": 128175, "pitch": 69, "duration": 478, "velocity": 100}, {"time": 128404, "pitch": 65, "duration": 239, "velocity": 80}, {"time": 128414, "pitch": 60, "duration": 219, "velocity": 90}, {"time": 128643, "pitch": 60, "duration": 239, "velocity": 90}, {"time": 128643, "pitch": 65, "duration": 239, "velocity": 95}, {"time": 128653, "pitch": 69, "duration": 478, "velocity": 100}, {"time": 128882, "pitch": 65, "duration": 239, "velocity": 80}, {"time": 128892, "pitch": 60, "duration": 219, "velocity": 90}, {"time": 129121, "pitch": 60, "duration": 240, "velocity": 90}, {"time": 129121, "pitch": 65, "duration": 240, "velocity": 95}, {"time": 129131, "pitch": 69, "duration": 479, "velocity": 100}, {"time": 129361, "pitch": 65, "duration": 239, "velocity": 80}, {"time": 129371, "pitch": 60, "duration": 219, "velocity": 90}, {"time": 129600, "pitch": 60, "duration": 119, "velocity": 90}, {"time": 129600, "pitch": 65, "duration": 119, "velocity": 95}, {"time": 129610, "pitch": 69, "duration": 119, "velocity": 100}, {"time": 129839, "pitch": 66, "duration": 478, "velocity": 95}, {"time": 129839, "pitch": 69, "duration": 478, "velocity": 100}, {"time": 129849, "pitch": 62, "duration": 468, "velocity": 90}, {"time": 130317, "pitch": 62, "duration": 240, "velocity": 90}, {"time": 130317, "pitch": 66, "duration": 240, "velocity": 95}, {"time": 130327, "pitch": 69, "duration": 230, "velocity": 100}, {"time": 130557, "pitch": 62, "duration": 20, "velocity": 80}, {"time": 130796, "pitch": 62, "duration": 20, "velocity": 80}, {"time": 131035, "pitch": 62, "duration": 245, "velocity": 90}, {"time": 131035, "pitch": 66, "duration": 245, "velocity": 95}, {"time": 131045, "pitch": 71, "duration": 490, "velocity": 100}, {"time": 131280, "pitch": 66, "duration": 245, "velocity": 80}, {"time": 131290, "pitch": 62, "duration": 225, "velocity": 90}, {"time": 131525, "pitch": 62, "duration": 239, "velocity": 90}, {"time": 131525, "pitch": 66, "duration": 239, "velocity": 95}, {"time": 131535, "pitch": 71, "duration": 468, "velocity": 100}, {"time": 131764, "pitch": 66, "duration": 239, "velocity": 80}, {"time": 131774, "pitch": 62, "duration": 219, "velocity": 90}, {"time": 132003, "pitch": 57, "duration": 229, "velocity": 90}, {"time": 132003, "pitch": 61, "duration": 229, "velocity": 95}, {"time": 132013, "pitch": 64, "duration": 229, "velocity": 100}, {"time": 132481, "pitch": 57, "duration": 230, "velocity": 90}, {"time": 132481, "pitch": 61, "duration": 230, "velocity": 95}, {"time": 132491, "pitch": 64, "duration": 230, "velocity": 100}, {"time": 132960, "pitch": 57, "duration": 30, "velocity": 100}, {"time": 133199, "pitch": 61, "duration": 229, "velocity": 95}, {"time": 133199, "pitch": 64, "duration": 229, "velocity": 100}, {"time": 133209, "pitch": 57, "duration": 229, "velocity": 90}, {"time": 133438, "pitch": 57, "duration": 359, "velocity": 90}, {"time": 133677, "pitch": 61, "duration": 120, "velocity": 100}, {"time": 133677, "pitch": 64, "duration": 120, "velocity": 105}, {"time": 133687, "pitch": 58, "duration": 120, "velocity": 95}, {"time": 133917, "pitch": 58, "duration": 30, "velocity": 90}, {"time": 134156, "pitch": 61, "duration": 229, "velocity": 95}, {"time": 134156, "pitch": 64, "duration": 229, "velocity": 90}, {"time": 134166, "pitch": 58, "duration": 229, "velocity": 100}, {"time": 134395, "pitch": 58, "duration": 31, "velocity": 90}, {"time": 134640, "pitch": 58, "duration": 30, "velocity": 80}, {"time": 134885, "pitch": 61, "duration": 159, "velocity": 85}, {"time": 134895, "pitch": 64, "duration": 159, "velocity": 90}, {"time": 135124, "pitch": 58, "duration": 30, "velocity": 70}, {"time": 135363, "pitch": 61, "duration": 160, "velocity": 85}, {"time": 135373, "pitch": 64, "duration": 159, "velocity": 90}, {"time": 135602, "pitch": 58, "duration": 30, "velocity": 70}, {"time": 135841, "pitch": 57, "duration": 230, "velocity": 90}, {"time": 135841, "pitch": 62, "duration": 230, "velocity": 95}, {"time": 135851, "pitch": 66, "duration": 230, "velocity": 100}, {"time": 136320, "pitch": 57, "duration": 229, "velocity": 90}, {"time": 136320, "pitch": 62, "duration": 229, "velocity": 95}, {"time": 136330, "pitch": 66, "duration": 229, "velocity": 100}, {"time": 136798, "pitch": 57, "duration": 30, "velocity": 100}, {"time": 137037, "pitch": 62, "duration": 230, "velocity": 95}, {"time": 137037, "pitch": 66, "duration": 230, "velocity": 100}, {"time": 137047, "pitch": 57, "duration": 230, "velocity": 90}, {"time": 137277, "pitch": 57, "duration": 358, "velocity": 90}, {"time": 137516, "pitch": 65, "duration": 474, "velocity": 100}, {"time": 137516, "pitch": 69, "duration": 474, "velocity": 105}, {"time": 137526, "pitch": 60, "duration": 260, "velocity": 95}, {"time": 138000, "pitch": 65, "duration": 235, "velocity": 95}, {"time": 138000, "pitch": 69, "duration": 235, "velocity": 90}, {"time": 138010, "pitch": 60, "duration": 235, "velocity": 100}, {"time": 138245, "pitch": 60, "duration": 30, "velocity": 90}, {"time": 138484, "pitch": 60, "duration": 30, "velocity": 80}, {"time": 138723, "pitch": 60, "duration": 160, "velocity": 85}, {"time": 138733, "pitch": 65, "duration": 159, "velocity": 90}, {"time": 138962, "pitch": 60, "duration": 30, "velocity": 70}, {"time": 139201, "pitch": 60, "duration": 160, "velocity": 85}, {"time": 139211, "pitch": 65, "duration": 160, "velocity": 90}, {"time": 139441, "pitch": 60, "duration": 30, "velocity": 70}, {"time": 139680, "pitch": 59, "duration": 229, "velocity": 90}, {"time": 139680, "pitch": 64, "duration": 229, "velocity": 95}, {"time": 139690, "pitch": 68, "duration": 229, "velocity": 100}, {"time": 139919, "pitch": 49, "duration": 30, "velocity": 90}, {"time": 140158, "pitch": 49, "duration": 30, "velocity": 90}, {"time": 140397, "pitch": 64, "duration": 230, "velocity": 95}, {"time": 140397, "pitch": 68, "duration": 230, "velocity": 100}, {"time": 140407, "pitch": 59, "duration": 230, "velocity": 90}, {"time": 140637, "pitch": 59, "duration": 229, "velocity": 100}, {"time": 140637, "pitch": 64, "duration": 229, "velocity": 95}, {"time": 140647, "pitch": 68, "duration": 229, "velocity": 90}, {"time": 140876, "pitch": 64, "duration": 229, "velocity": 95}, {"time": 140876, "pitch": 68, "duration": 229, "velocity": 100}, {"time": 140886, "pitch": 59, "duration": 229, "velocity": 90}, {"time": 141115, "pitch": 49, "duration": 31, "velocity": 90}, {"time": 141360, "pitch": 64, "duration": 484, "velocity": 105}, {"time": 141360, "pitch": 68, "duration": 484, "velocity": 110}, {"time": 141370, "pitch": 59, "duration": 474, "velocity": 100}, {"time": 141605, "pitch": 42, "duration": 30, "velocity": 90}, {"time": 141844, "pitch": 64, "duration": 229, "velocity": 105}, {"time": 141844, "pitch": 68, "duration": 229, "velocity": 100}, {"time": 141854, "pitch": 59, "duration": 229, "velocity": 110}, {"time": 142083, "pitch": 42, "duration": 30, "velocity": 90}, {"time": 142322, "pitch": 68, "duration": 239, "velocity": 100}, {"time": 142322, "pitch": 75, "duration": 239, "velocity": 105}, {"time": 142332, "pitch": 64, "duration": 229, "velocity": 95}, {"time": 142561, "pitch": 42, "duration": 30, "velocity": 90}, {"time": 142801, "pitch": 68, "duration": 239, "velocity": 105}, {"time": 142801, "pitch": 73, "duration": 239, "velocity": 110}, {"time": 142811, "pitch": 64, "duration": 229, "velocity": 100}, {"time": 143040, "pitch": 42, "duration": 30, "velocity": 90}, {"time": 143279, "pitch": 64, "duration": 239, "velocity": 95}, {"time": 143279, "pitch": 68, "duration": 239, "velocity": 90}, {"time": 143289, "pitch": 59, "duration": 229, "velocity": 100}, {"time": 143518, "pitch": 57, "duration": 229, "velocity": 90}, {"time": 143518, "pitch": 62, "duration": 229, "velocity": 95}, {"time": 143528, "pitch": 66, "duration": 229, "velocity": 100}, {"time": 143997, "pitch": 57, "duration": 229, "velocity": 90}, {"time": 143997, "pitch": 62, "duration": 229, "velocity": 95}, {"time": 144007, "pitch": 66, "duration": 229, "velocity": 100}, {"time": 144475, "pitch": 57, "duration": 31, "velocity": 100}, {"time": 144720, "pitch": 62, "duration": 235, "velocity": 95}, {"time": 144720, "pitch": 66, "duration": 235, "velocity": 100}, {"time": 144730, "pitch": 57, "duration": 235, "velocity": 90}, {"time": 144965, "pitch": 57, "duration": 239, "velocity": 90}, {"time": 145204, "pitch": 62, "duration": 468, "velocity": 100}, {"time": 145204, "pitch": 66, "duration": 468, "velocity": 105}, {"time": 145214, "pitch": 57, "duration": 259, "velocity": 95}, {"time": 145682, "pitch": 62, "duration": 229, "velocity": 95}, {"time": 145682, "pitch": 66, "duration": 229, "velocity": 90}, {"time": 145692, "pitch": 57, "duration": 229, "velocity": 100}, {"time": 145921, "pitch": 57, "duration": 30, "velocity": 90}, {"time": 146161, "pitch": 57, "duration": 30, "velocity": 80}, {"time": 146400, "pitch": 62, "duration": 159, "velocity": 85}, {"time": 146410, "pitch": 66, "duration": 159, "velocity": 90}, {"time": 146639, "pitch": 57, "duration": 30, "velocity": 70}, {"time": 146878, "pitch": 62, "duration": 160, "velocity": 85}, {"time": 146888, "pitch": 66, "duration": 160, "velocity": 90}, {"time": 147117, "pitch": 57, "duration": 30, "velocity": 70}, {"time": 147357, "pitch": 57, "duration": 229, "velocity": 90}, {"time": 147357, "pitch": 61, "duration": 229, "velocity": 95}, {"time": 147367, "pitch": 64, "duration": 229, "velocity": 100}, {"time": 147835, "pitch": 57, "duration": 235, "velocity": 90}, {"time": 147835, "pitch": 61, "duration": 235, "velocity": 95}, {"time": 147845, "pitch": 64, "duration": 235, "velocity": 100}, {"time": 148325, "pitch": 57, "duration": 30, "velocity": 100}, {"time": 148564, "pitch": 61, "duration": 229, "velocity": 95}, {"time": 148564, "pitch": 64, "duration": 229, "velocity": 100}, {"time": 148574, "pitch": 57, "duration": 229, "velocity": 90}, {"time": 148803, "pitch": 57, "duration": 359, "velocity": 90}, {"time": 149042, "pitch": 61, "duration": 120, "velocity": 100}, {"time": 149042, "pitch": 64, "duration": 120, "velocity": 105}, {"time": 149052, "pitch": 58, "duration": 120, "velocity": 95}, {"time": 149281, "pitch": 58, "duration": 30, "velocity": 90}, {"time": 149521, "pitch": 61, "duration": 229, "velocity": 95}, {"time": 149521, "pitch": 64, "duration": 229, "velocity": 90}, {"time": 149531, "pitch": 58, "duration": 229, "velocity": 100}, {"time": 149760, "pitch": 58, "duration": 30, "velocity": 90}, {"time": 149999, "pitch": 58, "duration": 30, "velocity": 80}, {"time": 150238, "pitch": 61, "duration": 160, "velocity": 85}, {"time": 150248, "pitch": 64, "duration": 160, "velocity": 90}, {"time": 150477, "pitch": 58, "duration": 30, "velocity": 70}, {"time": 150717, "pitch": 61, "duration": 159, "velocity": 85}, {"time": 150727, "pitch": 64, "duration": 159, "velocity": 90}, {"time": 150956, "pitch": 58, "duration": 30, "velocity": 70}, {"time": 151195, "pitch": 57, "duration": 235, "velocity": 90}, {"time": 151195, "pitch": 62, "duration": 235, "velocity": 95}, {"time": 151205, "pitch": 66, "duration": 235, "velocity": 100}, {"time": 151685, "pitch": 57, "duration": 229, "velocity": 90}, {"time": 151685, "pitch": 62, "duration": 229, "velocity": 95}, {"time": 151695, "pitch": 66, "duration": 229, "velocity": 100}, {"time": 152163, "pitch": 57, "duration": 30, "velocity": 100}, {"time": 152402, "pitch": 62, "duration": 229, "velocity": 95}, {"time": 152402, "pitch": 66, "duration": 229, "velocity": 100}, {"time": 152412, "pitch": 57, "duration": 229, "velocity": 90}, {"time": 152641, "pitch": 57, "duration": 359, "velocity": 90}, {"time": 152881, "pitch": 65, "duration": 468, "velocity": 100}, {"time": 152881, "pitch": 69, "duration": 468, "velocity": 105}, {"time": 152891, "pitch": 60, "duration": 259, "velocity": 95}, {"time": 153359, "pitch": 65, "duration": 229, "velocity": 95}, {"time": 153359, "pitch": 69, "duration": 229, "velocity": 90}, {"time": 153369, "pitch": 60, "duration": 229, "velocity": 100}, {"time": 153598, "pitch": 60, "duration": 30, "velocity": 90}, {"time": 153837, "pitch": 60, "duration": 30, "velocity": 80}, {"time": 154077, "pitch": 60, "duration": 159, "velocity": 85}, {"time": 154087, "pitch": 65, "duration": 159, "velocity": 90}, {"time": 154316, "pitch": 60, "duration": 30, "velocity": 70}, {"time": 154555, "pitch": 60, "duration": 163, "velocity": 85}, {"time": 154565, "pitch": 65, "duration": 163, "velocity": 90}, {"time": 154800, "pitch": 60, "duration": 30, "velocity": 70}, {"time": 155045, "pitch": 59, "duration": 229, "velocity": 90}, {"time": 155045, "pitch": 64, "duration": 229, "velocity": 95}, {"time": 155055, "pitch": 68, "duration": 229, "velocity": 100}, {"time": 155284, "pitch": 49, "duration": 30, "velocity": 90}, {"time": 155523, "pitch": 49, "duration": 30, "velocity": 90}, {"time": 155762, "pitch": 64, "duration": 229, "velocity": 95}, {"time": 155762, "pitch": 68, "duration": 229, "velocity": 100}, {"time": 155772, "pitch": 59, "duration": 229, "velocity": 90}, {"time": 156001, "pitch": 59, "duration": 230, "velocity": 100}, {"time": 156001, "pitch": 64, "duration": 230, "velocity": 95}, {"time": 156011, "pitch": 68, "duration": 230, "velocity": 90}, {"time": 156241, "pitch": 64, "duration": 229, "velocity": 95}, {"time": 156241, "pitch": 68, "duration": 229, "velocity": 100}, {"time": 156251, "pitch": 59, "duration": 229, "velocity": 90}, {"time": 156480, "pitch": 49, "duration": 30, "velocity": 90}, {"time": 156719, "pitch": 64, "duration": 478, "velocity": 105}, {"time": 156719, "pitch": 68, "duration": 478, "velocity": 110}, {"time": 156729, "pitch": 59, "duration": 468, "velocity": 100}, {"time": 156958, "pitch": 42, "duration": 30, "velocity": 90}, {"time": 157197, "pitch": 64, "duration": 230, "velocity": 105}, {"time": 157197, "pitch": 68, "duration": 230, "velocity": 100}, {"time": 157207, "pitch": 59, "duration": 230, "velocity": 110}, {"time": 157437, "pitch": 42, "duration": 30, "velocity": 90}, {"time": 157676, "pitch": 68, "duration": 239, "velocity": 100}, {"time": 157676, "pitch": 75, "duration": 239, "velocity": 105}, {"time": 157686, "pitch": 64, "duration": 229, "velocity": 95}, {"time": 157915, "pitch": 42, "duration": 31, "velocity": 90}, {"time": 158160, "pitch": 68, "duration": 245, "velocity": 105}, {"time": 158160, "pitch": 73, "duration": 245, "velocity": 110}, {"time": 158170, "pitch": 64, "duration": 235, "velocity": 100}, {"time": 158405, "pitch": 42, "duration": 30, "velocity": 90}, {"time": 158644, "pitch": 64, "duration": 239, "velocity": 95}, {"time": 158644, "pitch": 68, "duration": 239, "velocity": 90}, {"time": 158654, "pitch": 59, "duration": 229, "velocity": 100}, {"time": 158883, "pitch": 57, "duration": 229, "velocity": 90}, {"time": 158883, "pitch": 62, "duration": 229, "velocity": 95}, {"time": 158893, "pitch": 66, "duration": 229, "velocity": 100}, {"time": 159361, "pitch": 57, "duration": 230, "velocity": 90}, {"time": 159361, "pitch": 62, "duration": 230, "velocity": 95}, {"time": 159371, "pitch": 66, "duration": 230, "velocity": 100}, {"time": 159840, "pitch": 57, "duration": 30, "velocity": 100}, {"time": 160079, "pitch": 62, "duration": 229, "velocity": 95}, {"time": 160079, "pitch": 66, "duration": 229, "velocity": 100}, {"time": 160089, "pitch": 57, "duration": 229, "velocity": 90}, {"time": 160318, "pitch": 57, "duration": 239, "velocity": 90}, {"time": 160557, "pitch": 62, "duration": 469, "velocity": 100}, {"time": 160557, "pitch": 66, "duration": 469, "velocity": 105}, {"time": 160567, "pitch": 57, "duration": 260, "velocity": 95}, {"time": 161036, "pitch": 62, "duration": 229, "velocity": 95}, {"time": 161036, "pitch": 66, "duration": 229, "velocity": 90}, {"time": 161046, "pitch": 57, "duration": 229, "velocity": 100}, {"time": 161275, "pitch": 57, "duration": 31, "velocity": 90}, {"time": 161520, "pitch": 57, "duration": 30, "velocity": 80}, {"time": 161765, "pitch": 62, "duration": 159, "velocity": 85}, {"time": 161775, "pitch": 66, "duration": 159, "velocity": 90}, {"time": 162004, "pitch": 57, "duration": 30, "velocity": 70}, {"time": 162243, "pitch": 62, "duration": 159, "velocity": 85}, {"time": 162253, "pitch": 66, "duration": 159, "velocity": 90}, {"time": 162482, "pitch": 57, "duration": 30, "velocity": 70}, {"time": 162721, "pitch": 65, "duration": 718, "velocity": 90}, {"time": 162721, "pitch": 69, "duration": 718, "velocity": 95}, {"time": 162731, "pitch": 76, "duration": 708, "velocity": 100}, {"time": 163439, "pitch": 69, "duration": 239, "velocity": 90}, {"time": 163439, "pitch": 76, "duration": 239, "velocity": 95}, {"time": 163449, "pitch": 65, "duration": 229, "velocity": 85}, {"time": 163678, "pitch": 65, "duration": 239, "velocity": 100}, {"time": 163678, "pitch": 69, "duration": 239, "velocity": 95}, {"time": 163688, "pitch": 76, "duration": 229, "velocity": 90}, {"time": 163917, "pitch": 69, "duration": 240, "velocity": 95}, {"time": 163917, "pitch": 74, "duration": 240, "velocity": 100}, {"time": 163927, "pitch": 65, "duration": 230, "velocity": 90}, {"time": 164157, "pitch": 62, "duration": 30, "velocity": 80}, {"time": 164396, "pitch": 69, "duration": 239, "velocity": 95}, {"time": 164396, "pitch": 76, "duration": 239, "velocity": 100}, {"time": 164406, "pitch": 65, "duration": 229, "velocity": 90}, {"time": 164635, "pitch": 50, "duration": 31, "velocity": 90}, {"time": 164880, "pitch": 69, "duration": 235, "velocity": 95}, {"time": 164880, "pitch": 76, "duration": 235, "velocity": 90}, {"time": 164890, "pitch": 65, "duration": 235, "velocity": 100}, {"time": 165125, "pitch": 65, "duration": 229, "velocity": 90}, {"time": 165125, "pitch": 69, "duration": 229, "velocity": 95}, {"time": 165135, "pitch": 74, "duration": 229, "velocity": 100}, {"time": 165364, "pitch": 50, "duration": 30, "velocity": 90}, {"time": 165603, "pitch": 65, "duration": 229, "velocity": 90}, {"time": 165603, "pitch": 69, "duration": 229, "velocity": 95}, {"time": 165613, "pitch": 76, "duration": 229, "velocity": 100}, {"time": 165842, "pitch": 69, "duration": 229, "velocity": 95}, {"time": 165842, "pitch": 74, "duration": 229, "velocity": 100}, {"time": 165852, "pitch": 65, "duration": 229, "velocity": 90}, {"time": 166081, "pitch": 50, "duration": 30, "velocity": 90}, {"time": 166560, "pitch": 61, "duration": 717, "velocity": 90}, {"time": 166560, "pitch": 66, "duration": 717, "velocity": 95}, {"time": 166570, "pitch": 71, "duration": 707, "velocity": 100}, {"time": 167277, "pitch": 66, "duration": 240, "velocity": 90}, {"time": 167277, "pitch": 71, "duration": 240, "velocity": 95}, {"time": 167287, "pitch": 61, "duration": 230, "velocity": 85}, {"time": 167517, "pitch": 61, "duration": 239, "velocity": 100}, {"time": 167517, "pitch": 66, "duration": 239, "velocity": 95}, {"time": 167527, "pitch": 71, "duration": 229, "velocity": 90}, {"time": 167756, "pitch": 66, "duration": 239, "velocity": 95}, {"time": 167756, "pitch": 71, "duration": 239, "velocity": 100}, {"time": 167766, "pitch": 61, "duration": 229, "velocity": 90}, {"time": 167995, "pitch": 57, "duration": 31, "velocity": 80}, {"time": 168240, "pitch": 66, "duration": 245, "velocity": 95}, {"time": 168240, "pitch": 71, "duration": 245, "velocity": 100}, {"time": 168250, "pitch": 61, "duration": 235, "velocity": 90}, {"time": 168485, "pitch": 57, "duration": 30, "velocity": 90}, {"time": 168724, "pitch": 66, "duration": 229, "velocity": 95}, {"time": 168724, "pitch": 71, "duration": 229, "velocity": 90}, {"time": 168734, "pitch": 61, "duration": 229, "velocity": 100}, {"time": 168963, "pitch": 57, "duration": 30, "velocity": 90}, {"time": 169202, "pitch": 66, "duration": 229, "velocity": 95}, {"time": 169202, "pitch": 71, "duration": 229, "velocity": 90}, {"time": 169212, "pitch": 61, "duration": 229, "velocity": 100}, {"time": 169441, "pitch": 61, "duration": 230, "velocity": 90}, {"time": 169441, "pitch": 66, "duration": 230, "velocity": 95}, {"time": 169451, "pitch": 71, "duration": 230, "velocity": 100}, {"time": 169681, "pitch": 57, "duration": 30, "velocity": 90}, {"time": 169920, "pitch": 61, "duration": 229, "velocity": 90}, {"time": 169920, "pitch": 66, "duration": 229, "velocity": 95}, {"time": 169930, "pitch": 71, "duration": 229, "velocity": 100}, {"time": 170159, "pitch": 57, "duration": 30, "velocity": 90}, {"time": 170398, "pitch": 65, "duration": 718, "velocity": 90}, {"time": 170398, "pitch": 69, "duration": 718, "velocity": 95}, {"time": 170408, "pitch": 76, "duration": 708, "velocity": 100}, {"time": 171116, "pitch": 69, "duration": 239, "velocity": 90}, {"time": 171116, "pitch": 76, "duration": 239, "velocity": 95}, {"time": 171126, "pitch": 65, "duration": 229, "velocity": 85}, {"time": 171355, "pitch": 65, "duration": 245, "velocity": 100}, {"time": 171355, "pitch": 69, "duration": 245, "velocity": 95}, {"time": 171365, "pitch": 76, "duration": 235, "velocity": 90}, {"time": 171600, "pitch": 69, "duration": 245, "velocity": 95}, {"time": 171600, "pitch": 74, "duration": 245, "velocity": 100}, {"time": 171610, "pitch": 65, "duration": 235, "velocity": 90}, {"time": 171845, "pitch": 62, "duration": 30, "velocity": 80}, {"time": 172084, "pitch": 69, "duration": 239, "velocity": 95}, {"time": 172084, "pitch": 76, "duration": 239, "velocity": 100}, {"time": 172094, "pitch": 65, "duration": 229, "velocity": 90}, {"time": 172323, "pitch": 50, "duration": 30, "velocity": 90}, {"time": 172562, "pitch": 69, "duration": 229, "velocity": 95}, {"time": 172562, "pitch": 76, "duration": 229, "velocity": 90}, {"time": 172572, "pitch": 65, "duration": 229, "velocity": 100}, {"time": 172801, "pitch": 65, "duration": 230, "velocity": 90}, {"time": 172801, "pitch": 69, "duration": 230, "velocity": 95}, {"time": 172811, "pitch": 74, "duration": 230, "velocity": 100}, {"time": 173041, "pitch": 50, "duration": 30, "velocity": 90}, {"time": 173280, "pitch": 65, "duration": 229, "velocity": 90}, {"time": 173280, "pitch": 69, "duration": 229, "velocity": 95}, {"time": 173290, "pitch": 76, "duration": 229, "velocity": 100}, {"time": 173519, "pitch": 69, "duration": 229, "velocity": 95}, {"time": 173519, "pitch": 74, "duration": 229, "velocity": 100}, {"time": 173529, "pitch": 65, "duration": 229, "velocity": 90}, {"time": 173758, "pitch": 50, "duration": 30, "velocity": 90}, {"time": 174237, "pitch": 62, "duration": 723, "velocity": 90}, {"time": 174237, "pitch": 66, "duration": 723, "velocity": 95}, {"time": 174247, "pitch": 69, "duration": 713, "velocity": 100}, {"time": 174960, "pitch": 66, "duration": 245, "velocity": 90}, {"time": 174960, "pitch": 69, "duration": 245, "velocity": 95}, {"time": 174970, "pitch": 62, "duration": 235, "velocity": 85}, {"time": 175205, "pitch": 62, "duration": 239, "velocity": 100}, {"time": 175205, "pitch": 66, "duration": 239, "velocity": 95}, {"time": 175215, "pitch": 69, "duration": 229, "velocity": 90}, {"time": 175444, "pitch": 66, "duration": 239, "velocity": 95}, {"time": 175444, "pitch": 69, "duration": 239, "velocity": 100}, {"time": 175454, "pitch": 62, "duration": 229, "velocity": 90}, {"time": 175683, "pitch": 57, "duration": 30, "velocity": 80}, {"time": 175922, "pitch": 66, "duration": 239, "velocity": 95}, {"time": 175922, "pitch": 69, "duration": 239, "velocity": 100}, {"time": 175932, "pitch": 62, "duration": 229, "velocity": 90}, {"time": 176161, "pitch": 57, "duration": 120, "velocity": 85}, {"time": 176161, "pitch": 61, "duration": 120, "velocity": 90}, {"time": 176171, "pitch": 64, "duration": 120, "velocity": 95}, {"time": 176640, "pitch": 57, "duration": 1435, "velocity": 90}, {"time": 176640, "pitch": 61, "duration": 1435, "velocity": 95}, {"time": 176650, "pitch": 64, "duration": 1425, "velocity": 100}, {"time": 178075, "pitch": 62, "duration": 235, "velocity": 90}, {"time": 178075, "pitch": 66, "duration": 235, "velocity": 95}, {"time": 178085, "pitch": 73, "duration": 235, "velocity": 100}, {"time": 178320, "pitch": 47, "duration": 30, "velocity": 90}, {"time": 178565, "pitch": 47, "duration": 30, "velocity": 90}, {"time": 178804, "pitch": 66, "duration": 229, "velocity": 95}, {"time": 178804, "pitch": 73, "duration": 229, "velocity": 100}, {"time": 178814, "pitch": 62, "duration": 229, "velocity": 90}, {"time": 179043, "pitch": 62, "duration": 229, "velocity": 100}, {"time": 179043, "pitch": 66, "duration": 229, "velocity": 95}, {"time": 179053, "pitch": 73, "duration": 229, "velocity": 90}, {"time": 179282, "pitch": 66, "duration": 229, "velocity": 95}, {"time": 179282, "pitch": 71, "duration": 229, "velocity": 100}, {"time": 179292, "pitch": 62, "duration": 229, "velocity": 90}, {"time": 179521, "pitch": 47, "duration": 30, "velocity": 90}, {"time": 179761, "pitch": 66, "duration": 239, "velocity": 95}, {"time": 179761, "pitch": 73, "duration": 239, "velocity": 100}, {"time": 179771, "pitch": 62, "duration": 229, "velocity": 90}, {"time": 180000, "pitch": 47, "duration": 30, "velocity": 90}, {"time": 180239, "pitch": 66, "duration": 229, "velocity": 95}, {"time": 180239, "pitch": 73, "duration": 229, "velocity": 90}, {"time": 180249, "pitch": 62, "duration": 229, "velocity": 100}, {"time": 180478, "pitch": 47, "duration": 30, "velocity": 90}, {"time": 180717, "pitch": 66, "duration": 240, "velocity": 95}, {"time": 180717, "pitch": 73, "duration": 240, "velocity": 90}, {"time": 180727, "pitch": 62, "duration": 230, "velocity": 100}, {"time": 180957, "pitch": 62, "duration": 239, "velocity": 90}, {"time": 180957, "pitch": 66, "duration": 239, "velocity": 95}, {"time": 180967, "pitch": 73, "duration": 229, "velocity": 100}, {"time": 181196, "pitch": 66, "duration": 239, "velocity": 95}, {"time": 181196, "pitch": 71, "duration": 239, "velocity": 90}, {"time": 181206, "pitch": 62, "duration": 229, "velocity": 100}, {"time": 181435, "pitch": 62, "duration": 245, "velocity": 90}, {"time": 181435, "pitch": 66, "duration": 245, "velocity": 95}, {"time": 181445, "pitch": 71, "duration": 235, "velocity": 100}, {"time": 181680, "pitch": 47, "duration": 30, "velocity": 90}, {"time": 181925, "pitch": 64, "duration": 229, "velocity": 90}, {"time": 181925, "pitch": 68, "duration": 229, "velocity": 95}, {"time": 181935, "pitch": 75, "duration": 229, "velocity": 100}, {"time": 182164, "pitch": 49, "duration": 30, "velocity": 90}, {"time": 182403, "pitch": 49, "duration": 30, "velocity": 90}, {"time": 182642, "pitch": 68, "duration": 229, "velocity": 95}, {"time": 182642, "pitch": 75, "duration": 229, "velocity": 100}, {"time": 182652, "pitch": 64, "duration": 229, "velocity": 90}, {"time": 182881, "pitch": 64, "duration": 230, "velocity": 100}, {"time": 182881, "pitch": 68, "duration": 230, "velocity": 95}, {"time": 182891, "pitch": 75, "duration": 230, "velocity": 90}, {"time": 183121, "pitch": 68, "duration": 229, "velocity": 95}, {"time": 183121, "pitch": 73, "duration": 229, "velocity": 100}, {"time": 183131, "pitch": 64, "duration": 229, "velocity": 90}, {"time": 183360, "pitch": 49, "duration": 30, "velocity": 90}, {"time": 183599, "pitch": 68, "duration": 239, "velocity": 95}, {"time": 183599, "pitch": 75, "duration": 239, "velocity": 100}, {"time": 183609, "pitch": 64, "duration": 229, "velocity": 90}, {"time": 183838, "pitch": 49, "duration": 30, "velocity": 90}, {"time": 184077, "pitch": 68, "duration": 230, "velocity": 95}, {"time": 184077, "pitch": 75, "duration": 230, "velocity": 90}, {"time": 184087, "pitch": 64, "duration": 230, "velocity": 100}, {"time": 184317, "pitch": 49, "duration": 30, "velocity": 90}, {"time": 184556, "pitch": 68, "duration": 239, "velocity": 95}, {"time": 184556, "pitch": 75, "duration": 239, "velocity": 90}, {"time": 184566, "pitch": 64, "duration": 229, "velocity": 100}, {"time": 184795, "pitch": 64, "duration": 245, "velocity": 90}, {"time": 184795, "pitch": 68, "duration": 245, "velocity": 95}, {"time": 184805, "pitch": 75, "duration": 235, "velocity": 100}, {"time": 185040, "pitch": 49, "duration": 30, "velocity": 90}, {"time": 185285, "pitch": 64, "duration": 239, "velocity": 90}, {"time": 185285, "pitch": 68, "duration": 239, "velocity": 95}, {"time": 185295, "pitch": 73, "duration": 229, "velocity": 100}, {"time": 185524, "pitch": 49, "duration": 30, "velocity": 90}, {"time": 185763, "pitch": 62, "duration": 229, "velocity": 90}, {"time": 185763, "pitch": 66, "duration": 229, "velocity": 95}, {"time": 185773, "pitch": 73, "duration": 229, "velocity": 100}, {"time": 186002, "pitch": 47, "duration": 30, "velocity": 90}, {"time": 186241, "pitch": 47, "duration": 30, "velocity": 90}, {"time": 186481, "pitch": 66, "duration": 229, "velocity": 95}, {"time": 186481, "pitch": 73, "duration": 229, "velocity": 100}, {"time": 186491, "pitch": 62, "duration": 229, "velocity": 90}, {"time": 186720, "pitch": 62, "duration": 229, "velocity": 100}, {"time": 186720, "pitch": 66, "duration": 229, "velocity": 95}, {"time": 186730, "pitch": 73, "duration": 229, "velocity": 90}, {"time": 186959, "pitch": 66, "duration": 229, "velocity": 95}, {"time": 186959, "pitch": 71, "duration": 229, "velocity": 100}, {"time": 186969, "pitch": 62, "duration": 229, "velocity": 90}, {"time": 187198, "pitch": 47, "duration": 30, "velocity": 90}, {"time": 187437, "pitch": 66, "duration": 240, "velocity": 95}, {"time": 187437, "pitch": 73, "duration": 240, "velocity": 100}, {"time": 187447, "pitch": 62, "duration": 230, "velocity": 90}, {"time": 187677, "pitch": 47, "duration": 30, "velocity": 90}, {"time": 187916, "pitch": 66, "duration": 229, "velocity": 95}, {"time": 187916, "pitch": 73, "duration": 229, "velocity": 90}, {"time": 187926, "pitch": 62, "duration": 229, "velocity": 100}, {"time": 188155, "pitch": 47, "duration": 31, "velocity": 90}, {"time": 188400, "pitch": 66, "duration": 245, "velocity": 95}, {"time": 188400, "pitch": 73, "duration": 245, "velocity": 90}, {"time": 188410, "pitch": 62, "duration": 235, "velocity": 100}, {"time": 188645, "pitch": 62, "duration": 239, "velocity": 90}, {"time": 188645, "pitch": 66, "duration": 239, "velocity": 95}, {"time": 188655, "pitch": 73, "duration": 229, "velocity": 100}, {"time": 188884, "pitch": 66, "duration": 239, "velocity": 95}, {"time": 188884, "pitch": 71, "duration": 239, "velocity": 90}, {"time": 188894, "pitch": 62, "duration": 229, "velocity": 100}, {"time": 189123, "pitch": 62, "duration": 239, "velocity": 90}, {"time": 189123, "pitch": 66, "duration": 239, "velocity": 95}, {"time": 189133, "pitch": 71, "duration": 229, "velocity": 100}, {"time": 189362, "pitch": 47, "duration": 30, "velocity": 90}, {"time": 189601, "pitch": 60, "duration": 240, "velocity": 90}, {"time": 189601, "pitch": 65, "duration": 240, "velocity": 95}, {"time": 189611, "pitch": 69, "duration": 479, "velocity": 100}, {"time": 189841, "pitch": 65, "duration": 239, "velocity": 80}, {"time": 189851, "pitch": 60, "duration": 219, "velocity": 90}, {"time": 190080, "pitch": 60, "duration": 239, "velocity": 90}, {"time": 190080, "pitch": 65, "duration": 239, "velocity": 95}, {"time": 190090, "pitch": 69, "duration": 478, "velocity": 100}, {"time": 190319, "pitch": 65, "duration": 239, "velocity": 80}, {"time": 190329, "pitch": 60, "duration": 219, "velocity": 90}, {"time": 190558, "pitch": 60, "duration": 239, "velocity": 90}, {"time": 190558, "pitch": 65, "duration": 239, "velocity": 95}, {"time": 190568, "pitch": 69, "duration": 479, "velocity": 100}, {"time": 190797, "pitch": 65, "duration": 240, "velocity": 80}, {"time": 190807, "pitch": 60, "duration": 220, "velocity": 90}, {"time": 191037, "pitch": 60, "duration": 119, "velocity": 90}, {"time": 191037, "pitch": 65, "duration": 119, "velocity": 95}, {"time": 191047, "pitch": 69, "duration": 119, "velocity": 100}, {"time": 191276, "pitch": 66, "duration": 484, "velocity": 95}, {"time": 191276, "pitch": 69, "duration": 484, "velocity": 100}, {"time": 191286, "pitch": 62, "duration": 474, "velocity": 90}, {"time": 191760, "pitch": 62, "duration": 245, "velocity": 90}, {"time": 191760, "pitch": 66, "duration": 245, "velocity": 95}, {"time": 191770, "pitch": 69, "duration": 235, "velocity": 100}, {"time": 192005, "pitch": 62, "duration": 20, "velocity": 80}, {"time": 192244, "pitch": 62, "duration": 20, "velocity": 80}, {"time": 192483, "pitch": 62, "duration": 239, "velocity": 90}, {"time": 192483, "pitch": 66, "duration": 239, "velocity": 95}, {"time": 192493, "pitch": 71, "duration": 478, "velocity": 100}, {"time": 192722, "pitch": 66, "duration": 239, "velocity": 80}, {"time": 192732, "pitch": 62, "duration": 219, "velocity": 90}, {"time": 192961, "pitch": 62, "duration": 240, "velocity": 90}, {"time": 192961, "pitch": 66, "duration": 240, "velocity": 95}, {"time": 192971, "pitch": 71, "duration": 469, "velocity": 100}, {"time": 193201, "pitch": 66, "duration": 239, "velocity": 80}, {"time": 193211, "pitch": 62, "duration": 219, "velocity": 90}, {"time": 193440, "pitch": 57, "duration": 229, "velocity": 90}, {"time": 193440, "pitch": 61, "duration": 229, "velocity": 95}, {"time": 193450, "pitch": 64, "duration": 229, "velocity": 100}, {"time": 193918, "pitch": 57, "duration": 229, "velocity": 90}, {"time": 193918, "pitch": 61, "duration": 229, "velocity": 95}, {"time": 193928, "pitch": 64, "duration": 229, "velocity": 100}, {"time": 194397, "pitch": 57, "duration": 30, "velocity": 100}, {"time": 194636, "pitch": 61, "duration": 229, "velocity": 95}, {"time": 194636, "pitch": 64, "duration": 229, "velocity": 100}, {"time": 194646, "pitch": 57, "duration": 229, "velocity": 90}, {"time": 194875, "pitch": 57, "duration": 367, "velocity": 90}, {"time": 195120, "pitch": 61, "duration": 122, "velocity": 100}, {"time": 195120, "pitch": 64, "duration": 122, "velocity": 105}, {"time": 195130, "pitch": 58, "duration": 122, "velocity": 95}, {"time": 195365, "pitch": 58, "duration": 29, "velocity": 90}, {"time": 195604, "pitch": 61, "duration": 229, "velocity": 95}, {"time": 195604, "pitch": 64, "duration": 229, "velocity": 90}, {"time": 195614, "pitch": 58, "duration": 229, "velocity": 100}, {"time": 195843, "pitch": 58, "duration": 30, "velocity": 90}, {"time": 196082, "pitch": 58, "duration": 30, "velocity": 80}, {"time": 196321, "pitch": 61, "duration": 160, "velocity": 85}, {"time": 196331, "pitch": 64, "duration": 160, "velocity": 90}, {"time": 196561, "pitch": 58, "duration": 30, "velocity": 70}, {"time": 196800, "pitch": 61, "duration": 159, "velocity": 85}, {"time": 196810, "pitch": 64, "duration": 159, "velocity": 90}, {"time": 197039, "pitch": 58, "duration": 30, "velocity": 70}, {"time": 197278, "pitch": 57, "duration": 229, "velocity": 90}, {"time": 197278, "pitch": 62, "duration": 229, "velocity": 95}, {"time": 197288, "pitch": 66, "duration": 229, "velocity": 100}, {"time": 197757, "pitch": 57, "duration": 229, "velocity": 90}, {"time": 197757, "pitch": 62, "duration": 229, "velocity": 95}, {"time": 197767, "pitch": 66, "duration": 229, "velocity": 100}, {"time": 198235, "pitch": 57, "duration": 31, "velocity": 100}, {"time": 198480, "pitch": 62, "duration": 234, "velocity": 95}, {"time": 198480, "pitch": 66, "duration": 234, "velocity": 100}, {"time": 198490, "pitch": 57, "duration": 235, "velocity": 90}, {"time": 198725, "pitch": 57, "duration": 358, "velocity": 90}, {"time": 198964, "pitch": 65, "duration": 468, "velocity": 100}, {"time": 198964, "pitch": 69, "duration": 468, "velocity": 105}, {"time": 198974, "pitch": 60, "duration": 259, "velocity": 95}, {"time": 199442, "pitch": 65, "duration": 229, "velocity": 95}, {"time": 199442, "pitch": 69, "duration": 229, "velocity": 90}, {"time": 199452, "pitch": 60, "duration": 229, "velocity": 100}, {"time": 199681, "pitch": 60, "duration": 30, "velocity": 90}, {"time": 199921, "pitch": 60, "duration": 29, "velocity": 80}, {"time": 200160, "pitch": 60, "duration": 159, "velocity": 85}, {"time": 200170, "pitch": 65, "duration": 159, "velocity": 90}, {"time": 200399, "pitch": 60, "duration": 30, "velocity": 70}, {"time": 200638, "pitch": 60, "duration": 160, "velocity": 85}, {"time": 200648, "pitch": 65, "duration": 160, "velocity": 90}, {"time": 200877, "pitch": 60, "duration": 30, "velocity": 70}, {"time": 201117, "pitch": 59, "duration": 229, "velocity": 90}, {"time": 201117, "pitch": 64, "duration": 229, "velocity": 95}, {"time": 201127, "pitch": 68, "duration": 229, "velocity": 100}, {"time": 201356, "pitch": 49, "duration": 30, "velocity": 90}, {"time": 201595, "pitch": 49, "duration": 31, "velocity": 90}, {"time": 201840, "pitch": 64, "duration": 234, "velocity": 95}, {"time": 201840, "pitch": 68, "duration": 234, "velocity": 100}, {"time": 201850, "pitch": 59, "duration": 235, "velocity": 90}, {"time": 202085, "pitch": 59, "duration": 229, "velocity": 100}, {"time": 202085, "pitch": 64, "duration": 229, "velocity": 95}, {"time": 202095, "pitch": 68, "duration": 229, "velocity": 90}, {"time": 202324, "pitch": 64, "duration": 229, "velocity": 95}, {"time": 202324, "pitch": 68, "duration": 229, "velocity": 100}, {"time": 202334, "pitch": 59, "duration": 229, "velocity": 90}, {"time": 202563, "pitch": 49, "duration": 30, "velocity": 90}, {"time": 202802, "pitch": 64, "duration": 479, "velocity": 105}, {"time": 202802, "pitch": 68, "duration": 479, "velocity": 110}, {"time": 202812, "pitch": 59, "duration": 469, "velocity": 100}, {"time": 203041, "pitch": 42, "duration": 30, "velocity": 90}, {"time": 203281, "pitch": 64, "duration": 229, "velocity": 105}, {"time": 203281, "pitch": 68, "duration": 229, "velocity": 100}, {"time": 203291, "pitch": 59, "duration": 229, "velocity": 110}, {"time": 203520, "pitch": 42, "duration": 30, "velocity": 90}, {"time": 203759, "pitch": 68, "duration": 239, "velocity": 100}, {"time": 203759, "pitch": 75, "duration": 239, "velocity": 105}, {"time": 203769, "pitch": 64, "duration": 229, "velocity": 95}, {"time": 203998, "pitch": 42, "duration": 30, "velocity": 90}, {"time": 204237, "pitch": 68, "duration": 240, "velocity": 105}, {"time": 204237, "pitch": 73, "duration": 240, "velocity": 110}, {"time": 204247, "pitch": 64, "duration": 230, "velocity": 100}, {"time": 204477, "pitch": 42, "duration": 30, "velocity": 90}, {"time": 204716, "pitch": 64, "duration": 239, "velocity": 95}, {"time": 204716, "pitch": 68, "duration": 239, "velocity": 90}, {"time": 204726, "pitch": 59, "duration": 229, "velocity": 100}, {"time": 204955, "pitch": 57, "duration": 235, "velocity": 90}, {"time": 204955, "pitch": 62, "duration": 235, "velocity": 95}, {"time": 204965, "pitch": 66, "duration": 235, "velocity": 100}, {"time": 205445, "pitch": 57, "duration": 229, "velocity": 90}, {"time": 205445, "pitch": 62, "duration": 229, "velocity": 95}, {"time": 205455, "pitch": 66, "duration": 229, "velocity": 100}, {"time": 205923, "pitch": 57, "duration": 30, "velocity": 100}, {"time": 206162, "pitch": 62, "duration": 229, "velocity": 95}, {"time": 206162, "pitch": 66, "duration": 229, "velocity": 100}, {"time": 206172, "pitch": 57, "duration": 229, "velocity": 90}, {"time": 206401, "pitch": 57, "duration": 240, "velocity": 90}, {"time": 206641, "pitch": 62, "duration": 468, "velocity": 100}, {"time": 206641, "pitch": 66, "duration": 468, "velocity": 105}, {"time": 206651, "pitch": 57, "duration": 259, "velocity": 95}, {"time": 207119, "pitch": 62, "duration": 229, "velocity": 95}, {"time": 207119, "pitch": 66, "duration": 229, "velocity": 90}, {"time": 207129, "pitch": 57, "duration": 229, "velocity": 100}, {"time": 207358, "pitch": 57, "duration": 30, "velocity": 90}, {"time": 207597, "pitch": 57, "duration": 30, "velocity": 80}, {"time": 207837, "pitch": 62, "duration": 159, "velocity": 85}, {"time": 207847, "pitch": 66, "duration": 159, "velocity": 90}, {"time": 208076, "pitch": 57, "duration": 30, "velocity": 70}, {"time": 208315, "pitch": 62, "duration": 163, "velocity": 85}, {"time": 208325, "pitch": 66, "duration": 163, "velocity": 90}, {"time": 208560, "pitch": 57, "duration": 30, "velocity": 70}, {"time": 208805, "pitch": 57, "duration": 229, "velocity": 90}, {"time": 208805, "pitch": 61, "duration": 229, "velocity": 95}, {"time": 208815, "pitch": 64, "duration": 229, "velocity": 100}, {"time": 209283, "pitch": 57, "duration": 229, "velocity": 90}, {"time": 209283, "pitch": 61, "duration": 229, "velocity": 95}, {"time": 209293, "pitch": 64, "duration": 229, "velocity": 100}, {"time": 209761, "pitch": 57, "duration": 30, "velocity": 100}, {"time": 210001, "pitch": 61, "duration": 229, "velocity": 95}, {"time": 210001, "pitch": 64, "duration": 229, "velocity": 100}, {"time": 210011, "pitch": 57, "duration": 229, "velocity": 90}, {"time": 210240, "pitch": 57, "duration": 359, "velocity": 90}, {"time": 210479, "pitch": 61, "duration": 120, "velocity": 100}, {"time": 210479, "pitch": 64, "duration": 120, "velocity": 105}, {"time": 210489, "pitch": 58, "duration": 120, "velocity": 95}, {"time": 210718, "pitch": 58, "duration": 30, "velocity": 90}, {"time": 210957, "pitch": 61, "duration": 230, "velocity": 95}, {"time": 210957, "pitch": 64, "duration": 230, "velocity": 90}, {"time": 210967, "pitch": 58, "duration": 230, "velocity": 100}, {"time": 211197, "pitch": 58, "duration": 29, "velocity": 90}, {"time": 211436, "pitch": 58, "duration": 30, "velocity": 80}, {"time": 211675, "pitch": 61, "duration": 163, "velocity": 85}, {"time": 211685, "pitch": 64, "duration": 163, "velocity": 90}, {"time": 211920, "pitch": 58, "duration": 30, "velocity": 70}, {"time": 212165, "pitch": 61, "duration": 159, "velocity": 85}, {"time": 212175, "pitch": 64, "duration": 159, "velocity": 90}, {"time": 212404, "pitch": 58, "duration": 30, "velocity": 70}, {"time": 212643, "pitch": 57, "duration": 229, "velocity": 90}, {"time": 212643, "pitch": 62, "duration": 229, "velocity": 95}, {"time": 212653, "pitch": 66, "duration": 229, "velocity": 100}, {"time": 213121, "pitch": 57, "duration": 230, "velocity": 90}, {"time": 213121, "pitch": 62, "duration": 230, "velocity": 95}, {"time": 213131, "pitch": 66, "duration": 230, "velocity": 100}, {"time": 213600, "pitch": 57, "duration": 30, "velocity": 100}, {"time": 213839, "pitch": 62, "duration": 229, "velocity": 95}, {"time": 213839, "pitch": 66, "duration": 229, "velocity": 100}, {"time": 213849, "pitch": 57, "duration": 229, "velocity": 90}, {"time": 214078, "pitch": 57, "duration": 359, "velocity": 90}, {"time": 214317, "pitch": 65, "duration": 469, "velocity": 100}, {"time": 214317, "pitch": 69, "duration": 469, "velocity": 105}, {"time": 214327, "pitch": 60, "duration": 259, "velocity": 95}, {"time": 214796, "pitch": 65, "duration": 229, "velocity": 95}, {"time": 214796, "pitch": 69, "duration": 229, "velocity": 90}, {"time": 214806, "pitch": 60, "duration": 229, "velocity": 100}, {"time": 215035, "pitch": 60, "duration": 30, "velocity": 90}, {"time": 215280, "pitch": 60, "duration": 30, "velocity": 80}, {"time": 215525, "pitch": 60, "duration": 159, "velocity": 85}, {"time": 215535, "pitch": 65, "duration": 159, "velocity": 90}, {"time": 215764, "pitch": 60, "duration": 30, "velocity": 70}, {"time": 216003, "pitch": 60, "duration": 159, "velocity": 85}, {"time": 216013, "pitch": 65, "duration": 159, "velocity": 90}, {"time": 216242, "pitch": 60, "duration": 30, "velocity": 70}, {"time": 216481, "pitch": 59, "duration": 230, "velocity": 90}, {"time": 216481, "pitch": 64, "duration": 230, "velocity": 95}, {"time": 216491, "pitch": 68, "duration": 230, "velocity": 100}, {"time": 216721, "pitch": 49, "duration": 29, "velocity": 90}, {"time": 216960, "pitch": 49, "duration": 30, "velocity": 90}, {"time": 217199, "pitch": 64, "duration": 229, "velocity": 95}, {"time": 217199, "pitch": 68, "duration": 229, "velocity": 100}, {"time": 217209, "pitch": 59, "duration": 229, "velocity": 90}, {"time": 217438, "pitch": 59, "duration": 229, "velocity": 100}, {"time": 217438, "pitch": 64, "duration": 229, "velocity": 95}, {"time": 217448, "pitch": 68, "duration": 229, "velocity": 90}, {"time": 217677, "pitch": 64, "duration": 230, "velocity": 95}, {"time": 217677, "pitch": 68, "duration": 230, "velocity": 100}, {"time": 217687, "pitch": 59, "duration": 230, "velocity": 90}, {"time": 217917, "pitch": 49, "duration": 29, "velocity": 90}, {"time": 218156, "pitch": 64, "duration": 484, "velocity": 105}, {"time": 218156, "pitch": 68, "duration": 484, "velocity": 110}, {"time": 218166, "pitch": 59, "duration": 474, "velocity": 100}, {"time": 218395, "pitch": 42, "duration": 30, "velocity": 90}, {"time": 218640, "pitch": 64, "duration": 234, "velocity": 105}, {"time": 218640, "pitch": 68, "duration": 234, "velocity": 100}, {"time": 218650, "pitch": 59, "duration": 235, "velocity": 110}, {"time": 218885, "pitch": 42, "duration": 29, "velocity": 90}, {"time": 219124, "pitch": 68, "duration": 239, "velocity": 100}, {"time": 219124, "pitch": 75, "duration": 239, "velocity": 105}, {"time": 219134, "pitch": 64, "duration": 229, "velocity": 95}, {"time": 219363, "pitch": 42, "duration": 30, "velocity": 90}, {"time": 219602, "pitch": 68, "duration": 239, "velocity": 105}, {"time": 219602, "pitch": 73, "duration": 239, "velocity": 110}, {"time": 219612, "pitch": 64, "duration": 229, "velocity": 100}, {"time": 219841, "pitch": 42, "duration": 30, "velocity": 90}, {"time": 220081, "pitch": 64, "duration": 239, "velocity": 95}, {"time": 220081, "pitch": 68, "duration": 239, "velocity": 90}, {"time": 220091, "pitch": 59, "duration": 229, "velocity": 100}, {"time": 220320, "pitch": 57, "duration": 229, "velocity": 90}, {"time": 220320, "pitch": 62, "duration": 229, "velocity": 95}, {"time": 220330, "pitch": 66, "duration": 229, "velocity": 100}, {"time": 220798, "pitch": 57, "duration": 229, "velocity": 90}, {"time": 220798, "pitch": 62, "duration": 229, "velocity": 95}, {"time": 220808, "pitch": 66, "duration": 229, "velocity": 100}, {"time": 221277, "pitch": 57, "duration": 29, "velocity": 100}, {"time": 221516, "pitch": 62, "duration": 229, "velocity": 95}, {"time": 221516, "pitch": 66, "duration": 229, "velocity": 100}, {"time": 221526, "pitch": 57, "duration": 229, "velocity": 90}, {"time": 221755, "pitch": 57, "duration": 245, "velocity": 90}, {"time": 222000, "pitch": 62, "duration": 474, "velocity": 100}, {"time": 222000, "pitch": 66, "duration": 474, "velocity": 105}, {"time": 222010, "pitch": 57, "duration": 264, "velocity": 95}, {"time": 222484, "pitch": 62, "duration": 229, "velocity": 95}, {"time": 222484, "pitch": 66, "duration": 229, "velocity": 90}, {"time": 222494, "pitch": 57, "duration": 229, "velocity": 100}, {"time": 222723, "pitch": 57, "duration": 30, "velocity": 90}, {"time": 222962, "pitch": 57, "duration": 30, "velocity": 80}, {"time": 223201, "pitch": 62, "duration": 160, "velocity": 85}, {"time": 223211, "pitch": 66, "duration": 160, "velocity": 90}, {"time": 223441, "pitch": 57, "duration": 29, "velocity": 70}, {"time": 223680, "pitch": 62, "duration": 159, "velocity": 85}, {"time": 223690, "pitch": 66, "duration": 159, "velocity": 90}, {"time": 223919, "pitch": 57, "duration": 30, "velocity": 70}, {"time": 224158, "pitch": 45, "duration": 229, "velocity": 90}, {"time": 224158, "pitch": 52, "duration": 229, "velocity": 95}, {"time": 224168, "pitch": 57, "duration": 229, "velocity": 100}, {"time": 224637, "pitch": 45, "duration": 229, "velocity": 90}, {"time": 224637, "pitch": 52, "duration": 229, "velocity": 95}, {"time": 224647, "pitch": 57, "duration": 229, "velocity": 100}, {"time": 225115, "pitch": 45, "duration": 30, "velocity": 100}, {"time": 225360, "pitch": 52, "duration": 234, "velocity": 95}, {"time": 225360, "pitch": 57, "duration": 234, "velocity": 100}, {"time": 225370, "pitch": 45, "duration": 235, "velocity": 90}, {"time": 225605, "pitch": 45, "duration": 239, "velocity": 90}, {"time": 225844, "pitch": 47, "duration": 119, "velocity": 100}, {"time": 225844, "pitch": 52, "duration": 119, "velocity": 105}, {"time": 225854, "pitch": 40, "duration": 119, "velocity": 95}, {"time": 226083, "pitch": 40, "duration": 10, "velocity": 90}, {"time": 226322, "pitch": 47, "duration": 120, "velocity": 95}, {"time": 226322, "pitch": 52, "duration": 120, "velocity": 100}, {"time": 226332, "pitch": 40, "duration": 120, "velocity": 90}, {"time": 226561, "pitch": 40, "duration": 30, "velocity": 95}, {"time": 226801, "pitch": 47, "duration": 239, "velocity": 100}, {"time": 226811, "pitch": 40, "duration": 229, "velocity": 90}, {"time": 227040, "pitch": 40, "duration": 229, "velocity": 90}, {"time": 227040, "pitch": 47, "duration": 229, "velocity": 95}, {"time": 227050, "pitch": 52, "duration": 229, "velocity": 100}, {"time": 227279, "pitch": 40, "duration": 30, "velocity": 90}, {"time": 227518, "pitch": 40, "duration": 479, "velocity": 90}, {"time": 227518, "pitch": 47, "duration": 479, "velocity": 95}, {"time": 227528, "pitch": 52, "duration": 469, "velocity": 100}, {"time": 227997, "pitch": 45, "duration": 229, "velocity": 90}, {"time": 227997, "pitch": 52, "duration": 229, "velocity": 95}, {"time": 228007, "pitch": 57, "duration": 229, "velocity": 100}, {"time": 228475, "pitch": 45, "duration": 235, "velocity": 90}, {"time": 228475, "pitch": 52, "duration": 235, "velocity": 95}, {"time": 228485, "pitch": 57, "duration": 235, "velocity": 100}, {"time": 228965, "pitch": 45, "duration": 29, "velocity": 100}, {"time": 229204, "pitch": 52, "duration": 229, "velocity": 95}, {"time": 229204, "pitch": 57, "duration": 229, "velocity": 100}, {"time": 229214, "pitch": 45, "duration": 229, "velocity": 90}, {"time": 229443, "pitch": 45, "duration": 239, "velocity": 90}, {"time": 229682, "pitch": 47, "duration": 120, "velocity": 100}, {"time": 229682, "pitch": 52, "duration": 120, "velocity": 105}, {"time": 229692, "pitch": 40, "duration": 120, "velocity": 95}, {"time": 229921, "pitch": 40, "duration": 10, "velocity": 90}, {"time": 230161, "pitch": 47, "duration": 119, "velocity": 95}, {"time": 230161, "pitch": 52, "duration": 119, "velocity": 100}, {"time": 230171, "pitch": 40, "duration": 119, "velocity": 90}, {"time": 230400, "pitch": 40, "duration": 30, "velocity": 95}, {"time": 230639, "pitch": 47, "duration": 239, "velocity": 100}, {"time": 230649, "pitch": 40, "duration": 229, "velocity": 90}, {"time": 230878, "pitch": 40, "duration": 229, "velocity": 90}, {"time": 230878, "pitch": 47, "duration": 229, "velocity": 95}, {"time": 230888, "pitch": 52, "duration": 229, "velocity": 100}, {"time": 231117, "pitch": 40, "duration": 30, "velocity": 90}, {"time": 231357, "pitch": 40, "duration": 478, "velocity": 90}, {"time": 231357, "pitch": 47, "duration": 478, "velocity": 95}, {"time": 231367, "pitch": 52, "duration": 468, "velocity": 100}, {"time": 231835, "pitch": 45, "duration": 235, "velocity": 90}, {"time": 231835, "pitch": 52, "duration": 235, "velocity": 95}, {"time": 231845, "pitch": 57, "duration": 235, "velocity": 100}, {"time": 232325, "pitch": 45, "duration": 229, "velocity": 90}, {"time": 232325, "pitch": 52, "duration": 229, "velocity": 95}, {"time": 232335, "pitch": 57, "duration": 229, "velocity": 100}, {"time": 232803, "pitch": 45, "duration": 30, "velocity": 100}, {"time": 233042, "pitch": 52, "duration": 229, "velocity": 95}, {"time": 233042, "pitch": 57, "duration": 229, "velocity": 100}, {"time": 233052, "pitch": 45, "duration": 229, "velocity": 90}, {"time": 233281, "pitch": 45, "duration": 240, "velocity": 90}, {"time": 233521, "pitch": 47, "duration": 119, "velocity": 100}, {"time": 233521, "pitch": 52, "duration": 119, "velocity": 105}, {"time": 233531, "pitch": 40, "duration": 119, "velocity": 95}, {"time": 233760, "pitch": 40, "duration": 10, "velocity": 90}, {"time": 233999, "pitch": 47, "duration": 120, "velocity": 95}, {"time": 233999, "pitch": 52, "duration": 120, "velocity": 100}, {"time": 234009, "pitch": 40, "duration": 120, "velocity": 90}, {"time": 234238, "pitch": 40, "duration": 30, "velocity": 95}, {"time": 234477, "pitch": 47, "duration": 240, "velocity": 100}, {"time": 234487, "pitch": 40, "duration": 230, "velocity": 90}, {"time": 234717, "pitch": 40, "duration": 229, "velocity": 90}, {"time": 234717, "pitch": 47, "duration": 229, "velocity": 95}, {"time": 234727, "pitch": 52, "duration": 229, "velocity": 100}, {"time": 234956, "pitch": 40, "duration": 30, "velocity": 90}, {"time": 235195, "pitch": 40, "duration": 490, "velocity": 90}, {"time": 235195, "pitch": 47, "duration": 490, "velocity": 95}, {"time": 235205, "pitch": 52, "duration": 480, "velocity": 100}, {"time": 235685, "pitch": 45, "duration": 229, "velocity": 90}, {"time": 235685, "pitch": 52, "duration": 229, "velocity": 95}, {"time": 235695, "pitch": 57, "duration": 229, "velocity": 100}, {"time": 236163, "pitch": 45, "duration": 229, "velocity": 90}, {"time": 236163, "pitch": 52, "duration": 229, "velocity": 95}, {"time": 236173, "pitch": 57, "duration": 229, "velocity": 100}, {"time": 236641, "pitch": 45, "duration": 30, "velocity": 100}, {"time": 236881, "pitch": 52, "duration": 229, "velocity": 95}, {"time": 236881, "pitch": 57, "duration": 229, "velocity": 100}, {"time": 236891, "pitch": 45, "duration": 229, "velocity": 90}, {"time": 237120, "pitch": 45, "duration": 239, "velocity": 90}, {"time": 237359, "pitch": 50, "duration": 199, "velocity": 90}, {"time": 237359, "pitch": 56, "duration": 199, "velocity": 95}, {"time": 237359, "pitch": 61, "duration": 199, "velocity": 100}, {"time": 237369, "pitch": 40, "duration": 199, "velocity": 85}, {"time": 237598, "pitch": 52, "duration": 10, "velocity": 100}, {"time": 237837, "pitch": 40, "duration": 10, "velocity": 90}, {"time": 238077, "pitch": 40, "duration": 1157, "velocity": 85}, {"time": 238077, "pitch": 50, "duration": 1147, "velocity": 90}, {"time": 238077, "pitch": 56, "duration": 1147, "velocity": 95}, {"time": 238087, "pitch": 61, "duration": 1167, "velocity": 100}, {"time": 239284, "pitch": 46, "duration": 2103, "velocity": 85}, {"time": 239284, "pitch": 55, "duration": 2093, "velocity": 90}, {"time": 239284, "pitch": 60, "duration": 2093, "velocity": 95}, {"time": 239294, "pitch": 65, "duration": 239, "velocity": 100}, {"time": 239533, "pitch": 65, "duration": 1874, "velocity": 100}, {"time": 241437, "pitch": 45, "duration": 7666, "velocity": 85}, {"time": 241437, "pitch": 54, "duration": 7666, "velocity": 90}, {"time": 241437, "pitch": 59, "duration": 7666, "velocity": 95}, {"time": 241447, "pitch": 64, "duration": 7656, "velocity": 100}]}]}