{"metadata": {"schema_version": "0.1", "title": "RWC-MDB-P-2001 No. 59: Tenshi no utatane / Rin", "copyright": "RWC Music Database. Copyright (C) 2001 Real World Computing Partnership (contact: Masataka GOTO <m.goto@aist.go.jp>)", "source_filename": "RM-P059.SMF_SYNC.MID", "source_format": "midi"}, "resolution": 480, "tempos": [{"time": 0, "qpm": 57.142857142857146}, {"time": 480, "qpm": 98.36065573770492}, {"time": 960, "qpm": 96.7741935483871}, {"time": 1440, "qpm": 98.36065573770492}, {"time": 1920, "qpm": 96.7741935483871}, {"time": 2400, "qpm": 98.36065573770492}, {"time": 2880, "qpm": 96.7741935483871}, {"time": 3360, "qpm": 98.36065573770492}, {"time": 3840, "qpm": 96.7741935483871}, {"time": 4320, "qpm": 98.36065573770492}, {"time": 4800, "qpm": 96.7741935483871}, {"time": 5280, "qpm": 98.36065573770492}, {"time": 5760, "qpm": 96.7741935483871}, {"time": 6240, "qpm": 98.36065573770492}, {"time": 6720, "qpm": 96.7741935483871}, {"time": 8160, "qpm": 98.36065573770492}, {"time": 9600, "qpm": 96.7741935483871}, {"time": 10080, "qpm": 98.36065573770492}, {"time": 23520, "qpm": 96.7741935483871}, {"time": 25440, "qpm": 98.36065573770492}, {"time": 27360, "qpm": 96.7741935483871}, {"time": 29280, "qpm": 98.36065573770492}, {"time": 30720, "qpm": 96.7741935483871}, {"time": 31200, "qpm": 98.36065573770492}, {"time": 38400, "qpm": 96.7741935483871}, {"time": 38880, "qpm": 98.36065573770492}, {"time": 40320, "qpm": 96.7741935483871}, {"time": 40800, "qpm": 98.36065573770492}, {"time": 41280, "qpm": 96.7741935483871}, {"time": 42720, "qpm": 98.36065573770492}, {"time": 48480, "qpm": 96.7741935483871}, {"time": 49920, "qpm": 98.36065573770492}, {"time": 56640, "qpm": 96.7741935483871}, {"time": 58080, "qpm": 98.36065573770492}, {"time": 60480, "qpm": 96.7741935483871}, {"time": 60960, "qpm": 98.36065573770492}, {"time": 67680, "qpm": 96.7741935483871}, {"time": 69600, "qpm": 98.36065573770492}, {"time": 71040, "qpm": 96.7741935483871}, {"time": 71520, "qpm": 98.36065573770492}, {"time": 72000, "qpm": 96.7741935483871}, {"time": 72480, "qpm": 98.36065573770492}, {"time": 72960, "qpm": 96.7741935483871}, {"time": 73440, "qpm": 98.36065573770492}, {"time": 77280, "qpm": 96.7741935483871}, {"time": 79200, "qpm": 98.36065573770492}, {"time": 82560, "qpm": 96.7741935483871}, {"time": 83040, "qpm": 98.36065573770492}, {"time": 88800, "qpm": 96.7741935483871}, {"time": 89760, "qpm": 98.36065573770492}, {"time": 91680, "qpm": 96.7741935483871}, {"time": 92160, "qpm": 98.36065573770492}, {"time": 95040, "qpm": 96.7741935483871}, {"time": 96000, "qpm": 98.36065573770492}, {"time": 98880, "qpm": 96.7741935483871}, {"time": 99360, "qpm": 98.36065573770492}, {"time": 99840, "qpm": 96.7741935483871}, {"time": 100320, "qpm": 98.36065573770492}, {"time": 100800, "qpm": 96.7741935483871}, {"time": 101280, "qpm": 98.36065573770492}, {"time": 101760, "qpm": 96.7741935483871}, {"time": 102240, "qpm": 98.36065573770492}, {"time": 106080, "qpm": 96.7741935483871}, {"time": 108000, "qpm": 98.36065573770492}, {"time": 114240, "qpm": 96.7741935483871}, {"time": 114720, "qpm": 98.36065573770492}, {"time": 115200, "qpm": 96.7741935483871}, {"time": 115680, "qpm": 98.36065573770492}, {"time": 116160, "qpm": 96.7741935483871}, {"time": 116640, "qpm": 98.36065573770492}, {"time": 117120, "qpm": 96.7741935483871}, {"time": 117600, "qpm": 98.36065573770492}, {"time": 120000, "qpm": 96.7741935483871}, {"time": 120480, "qpm": 98.36065573770492}, {"time": 125280, "qpm": 96.7741935483871}, {"time": 126720, "qpm": 98.36065573770492}, {"time": 136320, "qpm": 96.7741935483871}, {"time": 136800, "qpm": 98.36065573770492}, {"time": 137280, "qpm": 96.7741935483871}, {"time": 138720, "qpm": 98.36065573770492}, {"time": 145440, "qpm": 96.7741935483871}, {"time": 146880, "qpm": 98.36065573770492}, {"time": 147360, "qpm": 96.7741935483871}, {"time": 148320, "qpm": 98.36065573770492}, {"time": 148800, "qpm": 96.7741935483871}, {"time": 149280, "qpm": 98.36065573770492}, {"time": 152160, "qpm": 96.7741935483871}], "key_signatures": [{"time": 0, "root": 2, "mode": "major"}], "time_signatures": [{"time": 0, "numerator": 1, "denominator": 4}, {"time": 480, "numerator": 4, "denominator": 4}], "tracks": [{"program": 0, "is_drum": false, "name": "Piano", "notes": [{"time": 8165, "pitch": 40, "duration": 786, "velocity": 127}, {"time": 9010, "pitch": 40, "duration": 27, "velocity": 91}, {"time": 9361, "pitch": 40, "duration": 396, "velocity": 120}, {"time": 9843, "pitch": 35, "duration": 32, "velocity": 85}, {"time": 9843, "pitch": 40, "duration": 223, "velocity": 93}, {"time": 9843, "pitch": 42, "duration": 32, "velocity": 71}, {"time": 10085, "pitch": 42, "duration": 796, "velocity": 115}, {"time": 10929, "pitch": 42, "duration": 37, "velocity": 73}, {"time": 11282, "pitch": 42, "duration": 421, "velocity": 124}, {"time": 11762, "pitch": 42, "duration": 259, "velocity": 112}, {"time": 12003, "pitch": 40, "duration": 817, "velocity": 124}, {"time": 12848, "pitch": 40, "duration": 40, "velocity": 68}, {"time": 13200, "pitch": 40, "duration": 395, "velocity": 120}, {"time": 13571, "pitch": 35, "duration": 27, "velocity": 91}, {"time": 13682, "pitch": 40, "duration": 238, "velocity": 102}, {"time": 13922, "pitch": 42, "duration": 822, "velocity": 117}, {"time": 14769, "pitch": 42, "duration": 24, "velocity": 97}, {"time": 15119, "pitch": 42, "duration": 330, "velocity": 120}, {"time": 15601, "pitch": 42, "duration": 221, "velocity": 113}, {"time": 15842, "pitch": 40, "duration": 847, "velocity": 122}, {"time": 16689, "pitch": 40, "duration": 18, "velocity": 110}, {"time": 17038, "pitch": 40, "duration": 375, "velocity": 115}, {"time": 17410, "pitch": 35, "duration": 50, "velocity": 98}, {"time": 17520, "pitch": 40, "duration": 213, "velocity": 108}, {"time": 17762, "pitch": 42, "duration": 790, "velocity": 124}, {"time": 18614, "pitch": 42, "duration": 28, "velocity": 89}, {"time": 18962, "pitch": 42, "duration": 360, "velocity": 120}, {"time": 19329, "pitch": 35, "duration": 31, "velocity": 83}, {"time": 19439, "pitch": 42, "duration": 215, "velocity": 101}, {"time": 19680, "pitch": 40, "duration": 837, "velocity": 124}, {"time": 20533, "pitch": 40, "duration": 20, "velocity": 104}, {"time": 20880, "pitch": 40, "duration": 345, "velocity": 124}, {"time": 21248, "pitch": 35, "duration": 31, "velocity": 93}, {"time": 21358, "pitch": 40, "duration": 205, "velocity": 110}, {"time": 21599, "pitch": 42, "duration": 535, "velocity": 127}, {"time": 22081, "pitch": 30, "duration": 445, "velocity": 101}, {"time": 22563, "pitch": 31, "duration": 60, "velocity": 120}, {"time": 22804, "pitch": 31, "duration": 649, "velocity": 122}, {"time": 23518, "pitch": 40, "duration": 809, "velocity": 120}, {"time": 24372, "pitch": 40, "duration": 20, "velocity": 101}, {"time": 24723, "pitch": 40, "duration": 363, "velocity": 110}, {"time": 24723, "pitch": 42, "duration": 23, "velocity": 108}, {"time": 25201, "pitch": 35, "duration": 37, "velocity": 73}, {"time": 25201, "pitch": 40, "duration": 184, "velocity": 104}, {"time": 25439, "pitch": 42, "duration": 796, "velocity": 117}, {"time": 26291, "pitch": 42, "duration": 23, "velocity": 95}, {"time": 26643, "pitch": 42, "duration": 359, "velocity": 124}, {"time": 27013, "pitch": 35, "duration": 36, "velocity": 64}, {"time": 27124, "pitch": 42, "duration": 213, "velocity": 104}, {"time": 27365, "pitch": 40, "duration": 814, "velocity": 124}, {"time": 28210, "pitch": 40, "duration": 25, "velocity": 106}, {"time": 28561, "pitch": 40, "duration": 651, "velocity": 124}, {"time": 29284, "pitch": 38, "duration": 763, "velocity": 124}, {"time": 30129, "pitch": 38, "duration": 20, "velocity": 110}, {"time": 30480, "pitch": 49, "duration": 336, "velocity": 117}, {"time": 30852, "pitch": 45, "duration": 353, "velocity": 110}, {"time": 31203, "pitch": 40, "duration": 782, "velocity": 124}, {"time": 32050, "pitch": 40, "duration": 22, "velocity": 101}, {"time": 32400, "pitch": 40, "duration": 345, "velocity": 124}, {"time": 32881, "pitch": 40, "duration": 231, "velocity": 101}, {"time": 33123, "pitch": 42, "duration": 866, "velocity": 120}, {"time": 33969, "pitch": 41, "duration": 45, "velocity": 101}, {"time": 34320, "pitch": 41, "duration": 339, "velocity": 113}, {"time": 34690, "pitch": 33, "duration": 35, "velocity": 78}, {"time": 34801, "pitch": 41, "duration": 211, "velocity": 102}, {"time": 35041, "pitch": 40, "duration": 841, "velocity": 120}, {"time": 35889, "pitch": 30, "duration": 65, "velocity": 104}, {"time": 36238, "pitch": 30, "duration": 310, "velocity": 115}, {"time": 36609, "pitch": 30, "duration": 72, "velocity": 91}, {"time": 36720, "pitch": 33, "duration": 260, "velocity": 117}, {"time": 37202, "pitch": 35, "duration": 52, "velocity": 120}, {"time": 37573, "pitch": 33, "duration": 295, "velocity": 127}, {"time": 37924, "pitch": 35, "duration": 46, "velocity": 120}, {"time": 38880, "pitch": 40, "duration": 794, "velocity": 124}, {"time": 39733, "pitch": 40, "duration": 32, "velocity": 58}, {"time": 40080, "pitch": 40, "duration": 386, "velocity": 122}, {"time": 40558, "pitch": 40, "duration": 212, "velocity": 104}, {"time": 40800, "pitch": 42, "duration": 885, "velocity": 117}, {"time": 41652, "pitch": 35, "duration": 26, "velocity": 94}, {"time": 42004, "pitch": 42, "duration": 401, "velocity": 122}, {"time": 42373, "pitch": 30, "duration": 329, "velocity": 110}, {"time": 42718, "pitch": 40, "duration": 750, "velocity": 124}, {"time": 43571, "pitch": 40, "duration": 28, "velocity": 87}, {"time": 43923, "pitch": 40, "duration": 387, "velocity": 106}, {"time": 43923, "pitch": 42, "duration": 22, "velocity": 101}, {"time": 44400, "pitch": 40, "duration": 200, "velocity": 98}, {"time": 44637, "pitch": 38, "duration": 878, "velocity": 110}, {"time": 45491, "pitch": 33, "duration": 28, "velocity": 92}, {"time": 45842, "pitch": 38, "duration": 367, "velocity": 120}, {"time": 46324, "pitch": 38, "duration": 228, "velocity": 113}, {"time": 46564, "pitch": 40, "duration": 786, "velocity": 120}, {"time": 47410, "pitch": 40, "duration": 36, "velocity": 104}, {"time": 47761, "pitch": 40, "duration": 358, "velocity": 120}, {"time": 48243, "pitch": 35, "duration": 33, "velocity": 59}, {"time": 48243, "pitch": 40, "duration": 192, "velocity": 104}, {"time": 48485, "pitch": 42, "duration": 783, "velocity": 127}, {"time": 49329, "pitch": 41, "duration": 20, "velocity": 92}, {"time": 49681, "pitch": 41, "duration": 357, "velocity": 115}, {"time": 50162, "pitch": 41, "duration": 223, "velocity": 112}, {"time": 50403, "pitch": 40, "duration": 849, "velocity": 120}, {"time": 51250, "pitch": 30, "duration": 27, "velocity": 93}, {"time": 51599, "pitch": 30, "duration": 286, "velocity": 104}, {"time": 51971, "pitch": 30, "duration": 30, "velocity": 89}, {"time": 52081, "pitch": 33, "duration": 283, "velocity": 110}, {"time": 52563, "pitch": 35, "duration": 71, "velocity": 124}, {"time": 52932, "pitch": 33, "duration": 302, "velocity": 127}, {"time": 53278, "pitch": 35, "duration": 76, "velocity": 124}, {"time": 54241, "pitch": 33, "duration": 679, "velocity": 127}, {"time": 54964, "pitch": 33, "duration": 902, "velocity": 127}, {"time": 55920, "pitch": 33, "duration": 897, "velocity": 127}, {"time": 56883, "pitch": 33, "duration": 1177, "velocity": 124}, {"time": 58080, "pitch": 33, "duration": 696, "velocity": 127}, {"time": 58802, "pitch": 33, "duration": 946, "velocity": 127}, {"time": 59762, "pitch": 35, "duration": 1058, "velocity": 127}, {"time": 60852, "pitch": 42, "duration": 50, "velocity": 120}, {"time": 61093, "pitch": 47, "duration": 98, "velocity": 124}, {"time": 61203, "pitch": 42, "duration": 149, "velocity": 98}, {"time": 61334, "pitch": 47, "duration": 226, "velocity": 117}, {"time": 61572, "pitch": 42, "duration": 52, "velocity": 117}, {"time": 61681, "pitch": 35, "duration": 246, "velocity": 127}, {"time": 61918, "pitch": 33, "duration": 703, "velocity": 127}, {"time": 62641, "pitch": 33, "duration": 899, "velocity": 127}, {"time": 63600, "pitch": 33, "duration": 919, "velocity": 127}, {"time": 64560, "pitch": 33, "duration": 1199, "velocity": 127}, {"time": 65764, "pitch": 32, "duration": 786, "velocity": 127}, {"time": 66610, "pitch": 32, "duration": 29, "velocity": 108}, {"time": 66961, "pitch": 32, "duration": 671, "velocity": 122}, {"time": 67683, "pitch": 32, "duration": 801, "velocity": 120}, {"time": 68529, "pitch": 32, "duration": 49, "velocity": 108}, {"time": 68880, "pitch": 32, "duration": 699, "velocity": 115}, {"time": 69603, "pitch": 31, "duration": 793, "velocity": 124}, {"time": 69603, "pitch": 32, "duration": 29, "velocity": 56}, {"time": 70450, "pitch": 31, "duration": 32, "velocity": 117}, {"time": 70799, "pitch": 38, "duration": 353, "velocity": 124}, {"time": 71171, "pitch": 43, "duration": 357, "velocity": 112}, {"time": 71523, "pitch": 31, "duration": 750, "velocity": 122}, {"time": 72241, "pitch": 38, "duration": 340, "velocity": 122}, {"time": 72608, "pitch": 43, "duration": 94, "velocity": 115}, {"time": 72719, "pitch": 38, "duration": 130, "velocity": 115}, {"time": 72849, "pitch": 43, "duration": 222, "velocity": 117}, {"time": 73090, "pitch": 38, "duration": 64, "velocity": 117}, {"time": 73200, "pitch": 31, "duration": 250, "velocity": 124}, {"time": 73441, "pitch": 32, "duration": 809, "velocity": 127}, {"time": 74294, "pitch": 32, "duration": 44, "velocity": 98}, {"time": 74642, "pitch": 32, "duration": 474, "velocity": 117}, {"time": 75119, "pitch": 38, "duration": 108, "velocity": 112}, {"time": 75360, "pitch": 44, "duration": 833, "velocity": 127}, {"time": 76213, "pitch": 39, "duration": 258, "velocity": 104}, {"time": 76452, "pitch": 44, "duration": 66, "velocity": 112}, {"time": 76561, "pitch": 39, "duration": 115, "velocity": 97}, {"time": 76689, "pitch": 44, "duration": 247, "velocity": 122}, {"time": 76928, "pitch": 39, "duration": 76, "velocity": 106}, {"time": 77039, "pitch": 32, "duration": 210, "velocity": 110}, {"time": 77279, "pitch": 31, "duration": 822, "velocity": 120}, {"time": 78133, "pitch": 31, "duration": 52, "velocity": 99}, {"time": 78484, "pitch": 31, "duration": 665, "velocity": 120}, {"time": 79200, "pitch": 31, "duration": 851, "velocity": 124}, {"time": 80162, "pitch": 31, "duration": 23, "velocity": 97}, {"time": 80404, "pitch": 31, "duration": 639, "velocity": 124}, {"time": 81118, "pitch": 40, "duration": 809, "velocity": 120}, {"time": 81971, "pitch": 40, "duration": 20, "velocity": 101}, {"time": 82322, "pitch": 40, "duration": 366, "velocity": 110}, {"time": 82322, "pitch": 42, "duration": 23, "velocity": 108}, {"time": 82804, "pitch": 35, "duration": 38, "velocity": 73}, {"time": 82804, "pitch": 40, "duration": 188, "velocity": 104}, {"time": 83046, "pitch": 42, "duration": 788, "velocity": 117}, {"time": 83890, "pitch": 42, "duration": 23, "velocity": 95}, {"time": 84242, "pitch": 42, "duration": 360, "velocity": 124}, {"time": 84613, "pitch": 35, "duration": 36, "velocity": 64}, {"time": 84723, "pitch": 42, "duration": 213, "velocity": 104}, {"time": 84964, "pitch": 40, "duration": 814, "velocity": 124}, {"time": 85809, "pitch": 40, "duration": 25, "velocity": 106}, {"time": 86161, "pitch": 40, "duration": 650, "velocity": 124}, {"time": 86883, "pitch": 38, "duration": 763, "velocity": 124}, {"time": 87729, "pitch": 38, "duration": 20, "velocity": 110}, {"time": 88080, "pitch": 49, "duration": 335, "velocity": 117}, {"time": 88451, "pitch": 45, "duration": 353, "velocity": 110}, {"time": 88802, "pitch": 40, "duration": 782, "velocity": 124}, {"time": 89650, "pitch": 40, "duration": 21, "velocity": 101}, {"time": 89999, "pitch": 40, "duration": 345, "velocity": 124}, {"time": 90481, "pitch": 40, "duration": 231, "velocity": 101}, {"time": 90723, "pitch": 42, "duration": 866, "velocity": 120}, {"time": 91569, "pitch": 41, "duration": 44, "velocity": 101}, {"time": 91919, "pitch": 41, "duration": 339, "velocity": 113}, {"time": 92290, "pitch": 33, "duration": 35, "velocity": 78}, {"time": 92400, "pitch": 41, "duration": 212, "velocity": 102}, {"time": 92641, "pitch": 40, "duration": 846, "velocity": 120}, {"time": 93494, "pitch": 30, "duration": 66, "velocity": 104}, {"time": 93841, "pitch": 30, "duration": 307, "velocity": 115}, {"time": 94209, "pitch": 30, "duration": 71, "velocity": 91}, {"time": 94319, "pitch": 33, "duration": 260, "velocity": 117}, {"time": 94801, "pitch": 35, "duration": 52, "velocity": 120}, {"time": 95172, "pitch": 33, "duration": 295, "velocity": 127}, {"time": 95524, "pitch": 35, "duration": 45, "velocity": 120}, {"time": 96479, "pitch": 40, "duration": 809, "velocity": 120}, {"time": 97332, "pitch": 40, "duration": 20, "velocity": 101}, {"time": 97684, "pitch": 40, "duration": 363, "velocity": 110}, {"time": 97684, "pitch": 42, "duration": 23, "velocity": 108}, {"time": 98161, "pitch": 35, "duration": 38, "velocity": 73}, {"time": 98161, "pitch": 40, "duration": 185, "velocity": 104}, {"time": 98399, "pitch": 42, "duration": 796, "velocity": 117}, {"time": 99252, "pitch": 42, "duration": 23, "velocity": 95}, {"time": 99604, "pitch": 42, "duration": 357, "velocity": 124}, {"time": 99972, "pitch": 35, "duration": 36, "velocity": 64}, {"time": 100081, "pitch": 42, "duration": 209, "velocity": 104}, {"time": 100318, "pitch": 40, "duration": 822, "velocity": 124}, {"time": 101171, "pitch": 40, "duration": 25, "velocity": 106}, {"time": 101522, "pitch": 40, "duration": 650, "velocity": 124}, {"time": 102245, "pitch": 38, "duration": 763, "velocity": 124}, {"time": 103090, "pitch": 38, "duration": 20, "velocity": 110}, {"time": 103441, "pitch": 49, "duration": 335, "velocity": 117}, {"time": 103813, "pitch": 45, "duration": 353, "velocity": 110}, {"time": 104164, "pitch": 40, "duration": 779, "velocity": 124}, {"time": 105009, "pitch": 40, "duration": 22, "velocity": 101}, {"time": 105360, "pitch": 40, "duration": 346, "velocity": 124}, {"time": 105842, "pitch": 40, "duration": 231, "velocity": 101}, {"time": 106084, "pitch": 42, "duration": 866, "velocity": 120}, {"time": 106930, "pitch": 41, "duration": 45, "velocity": 101}, {"time": 107281, "pitch": 41, "duration": 339, "velocity": 113}, {"time": 107651, "pitch": 33, "duration": 35, "velocity": 78}, {"time": 107761, "pitch": 41, "duration": 212, "velocity": 102}, {"time": 108002, "pitch": 40, "duration": 840, "velocity": 120}, {"time": 108849, "pitch": 30, "duration": 66, "velocity": 104}, {"time": 109199, "pitch": 30, "duration": 310, "velocity": 115}, {"time": 109570, "pitch": 30, "duration": 71, "velocity": 91}, {"time": 109681, "pitch": 33, "duration": 260, "velocity": 117}, {"time": 110162, "pitch": 35, "duration": 53, "velocity": 120}, {"time": 110532, "pitch": 33, "duration": 290, "velocity": 127}, {"time": 110877, "pitch": 35, "duration": 46, "velocity": 120}, {"time": 111841, "pitch": 40, "duration": 794, "velocity": 124}, {"time": 112694, "pitch": 40, "duration": 32, "velocity": 58}, {"time": 113041, "pitch": 40, "duration": 386, "velocity": 122}, {"time": 113519, "pitch": 40, "duration": 212, "velocity": 104}, {"time": 113761, "pitch": 42, "duration": 885, "velocity": 117}, {"time": 114613, "pitch": 35, "duration": 26, "velocity": 94}, {"time": 114961, "pitch": 42, "duration": 400, "velocity": 122}, {"time": 115328, "pitch": 30, "duration": 335, "velocity": 110}, {"time": 115679, "pitch": 40, "duration": 750, "velocity": 124}, {"time": 116532, "pitch": 40, "duration": 28, "velocity": 87}, {"time": 116883, "pitch": 40, "duration": 387, "velocity": 106}, {"time": 116883, "pitch": 42, "duration": 23, "velocity": 101}, {"time": 117361, "pitch": 40, "duration": 200, "velocity": 98}, {"time": 117598, "pitch": 38, "duration": 877, "velocity": 110}, {"time": 118451, "pitch": 33, "duration": 28, "velocity": 92}, {"time": 118803, "pitch": 38, "duration": 365, "velocity": 120}, {"time": 119280, "pitch": 38, "duration": 226, "velocity": 113}, {"time": 119517, "pitch": 40, "duration": 793, "velocity": 120}, {"time": 120371, "pitch": 40, "duration": 36, "velocity": 104}, {"time": 120722, "pitch": 40, "duration": 358, "velocity": 120}, {"time": 121204, "pitch": 35, "duration": 33, "velocity": 59}, {"time": 121204, "pitch": 40, "duration": 192, "velocity": 104}, {"time": 121445, "pitch": 42, "duration": 784, "velocity": 127}, {"time": 122290, "pitch": 41, "duration": 20, "velocity": 92}, {"time": 122642, "pitch": 41, "duration": 356, "velocity": 115}, {"time": 123123, "pitch": 41, "duration": 223, "velocity": 112}, {"time": 123364, "pitch": 40, "duration": 847, "velocity": 120}, {"time": 124209, "pitch": 30, "duration": 27, "velocity": 93}, {"time": 124560, "pitch": 30, "duration": 286, "velocity": 104}, {"time": 124932, "pitch": 30, "duration": 30, "velocity": 89}, {"time": 125042, "pitch": 33, "duration": 283, "velocity": 110}, {"time": 125524, "pitch": 35, "duration": 71, "velocity": 124}, {"time": 125893, "pitch": 33, "duration": 302, "velocity": 127}, {"time": 126239, "pitch": 35, "duration": 76, "velocity": 124}, {"time": 127202, "pitch": 33, "duration": 675, "velocity": 127}, {"time": 127921, "pitch": 33, "duration": 906, "velocity": 127}, {"time": 128880, "pitch": 33, "duration": 898, "velocity": 127}, {"time": 129844, "pitch": 33, "duration": 1176, "velocity": 124}, {"time": 131040, "pitch": 33, "duration": 697, "velocity": 127}, {"time": 131763, "pitch": 33, "duration": 942, "velocity": 127}, {"time": 132719, "pitch": 35, "duration": 1062, "velocity": 127}, {"time": 133813, "pitch": 42, "duration": 50, "velocity": 120}, {"time": 134052, "pitch": 47, "duration": 96, "velocity": 124}, {"time": 134160, "pitch": 42, "duration": 146, "velocity": 98}, {"time": 134289, "pitch": 47, "duration": 226, "velocity": 117}, {"time": 134528, "pitch": 42, "duration": 52, "velocity": 117}, {"time": 134638, "pitch": 35, "duration": 250, "velocity": 127}, {"time": 134879, "pitch": 33, "duration": 702, "velocity": 127}, {"time": 135602, "pitch": 33, "duration": 899, "velocity": 127}, {"time": 136561, "pitch": 33, "duration": 919, "velocity": 127}, {"time": 137521, "pitch": 33, "duration": 1191, "velocity": 127}, {"time": 138717, "pitch": 32, "duration": 794, "velocity": 127}, {"time": 139570, "pitch": 32, "duration": 29, "velocity": 108}, {"time": 139922, "pitch": 32, "duration": 671, "velocity": 122}, {"time": 140644, "pitch": 32, "duration": 800, "velocity": 120}, {"time": 141490, "pitch": 32, "duration": 49, "velocity": 108}, {"time": 141841, "pitch": 32, "duration": 698, "velocity": 115}, {"time": 142563, "pitch": 31, "duration": 792, "velocity": 124}, {"time": 142563, "pitch": 32, "duration": 29, "velocity": 56}, {"time": 143409, "pitch": 31, "duration": 33, "velocity": 117}, {"time": 143760, "pitch": 38, "duration": 352, "velocity": 124}, {"time": 144131, "pitch": 43, "duration": 358, "velocity": 112}, {"time": 144484, "pitch": 31, "duration": 750, "velocity": 122}, {"time": 145201, "pitch": 38, "duration": 341, "velocity": 122}, {"time": 145569, "pitch": 43, "duration": 94, "velocity": 115}, {"time": 145680, "pitch": 38, "duration": 130, "velocity": 115}, {"time": 145810, "pitch": 43, "duration": 222, "velocity": 117}, {"time": 146051, "pitch": 38, "duration": 64, "velocity": 117}, {"time": 146161, "pitch": 31, "duration": 250, "velocity": 124}, {"time": 146402, "pitch": 32, "duration": 804, "velocity": 127}, {"time": 147249, "pitch": 32, "duration": 43, "velocity": 98}, {"time": 147598, "pitch": 32, "duration": 479, "velocity": 117}, {"time": 148080, "pitch": 38, "duration": 108, "velocity": 112}, {"time": 148321, "pitch": 44, "duration": 833, "velocity": 127}, {"time": 149174, "pitch": 39, "duration": 258, "velocity": 104}, {"time": 149413, "pitch": 44, "duration": 66, "velocity": 112}, {"time": 149522, "pitch": 39, "duration": 115, "velocity": 97}, {"time": 149650, "pitch": 44, "duration": 247, "velocity": 122}, {"time": 149889, "pitch": 39, "duration": 76, "velocity": 106}, {"time": 149999, "pitch": 32, "duration": 211, "velocity": 110}, {"time": 150240, "pitch": 31, "duration": 822, "velocity": 120}, {"time": 151093, "pitch": 31, "duration": 53, "velocity": 99}, {"time": 151441, "pitch": 31, "duration": 668, "velocity": 120}, {"time": 152160, "pitch": 31, "duration": 852, "velocity": 124}, {"time": 153123, "pitch": 31, "duration": 23, "velocity": 97}, {"time": 153365, "pitch": 31, "duration": 4500, "velocity": 124}, {"time": 480, "pitch": 40, "duration": 464, "velocity": 82}, {"time": 480, "pitch": 55, "duration": 523, "velocity": 85}, {"time": 480, "pitch": 59, "duration": 597, "velocity": 100}, {"time": 480, "pitch": 62, "duration": 564, "velocity": 87}, {"time": 480, "pitch": 66, "duration": 541, "velocity": 86}, {"time": 1203, "pitch": 40, "duration": 1008, "velocity": 67}, {"time": 1444, "pitch": 55, "duration": 743, "velocity": 85}, {"time": 1809, "pitch": 59, "duration": 389, "velocity": 114}, {"time": 2159, "pitch": 62, "duration": 160, "velocity": 91}, {"time": 2400, "pitch": 42, "duration": 430, "velocity": 70}, {"time": 2400, "pitch": 57, "duration": 772, "velocity": 96}, {"time": 2400, "pitch": 61, "duration": 588, "velocity": 96}, {"time": 3122, "pitch": 42, "duration": 757, "velocity": 48}, {"time": 3363, "pitch": 64, "duration": 254, "velocity": 112}, {"time": 3363, "pitch": 69, "duration": 238, "velocity": 103}, {"time": 3846, "pitch": 61, "duration": 149, "velocity": 102}, {"time": 3846, "pitch": 64, "duration": 127, "velocity": 100}, {"time": 4082, "pitch": 42, "duration": 182, "velocity": 62}, {"time": 4319, "pitch": 40, "duration": 416, "velocity": 77}, {"time": 4319, "pitch": 55, "duration": 715, "velocity": 100}, {"time": 4319, "pitch": 62, "duration": 654, "velocity": 91}, {"time": 4319, "pitch": 66, "duration": 691, "velocity": 89}, {"time": 5041, "pitch": 40, "duration": 1101, "velocity": 62}, {"time": 5282, "pitch": 59, "duration": 753, "velocity": 102}, {"time": 5282, "pitch": 62, "duration": 265, "velocity": 102}, {"time": 5653, "pitch": 64, "duration": 363, "velocity": 117}, {"time": 6001, "pitch": 69, "duration": 70, "velocity": 116}, {"time": 6238, "pitch": 42, "duration": 111, "velocity": 89}, {"time": 6238, "pitch": 57, "duration": 187, "velocity": 112}, {"time": 6238, "pitch": 61, "duration": 211, "velocity": 110}, {"time": 6238, "pitch": 64, "duration": 256, "velocity": 112}, {"time": 6720, "pitch": 69, "duration": 173, "velocity": 127}, {"time": 6720, "pitch": 73, "duration": 124, "velocity": 127}, {"time": 7201, "pitch": 41, "duration": 506, "velocity": 94}, {"time": 7201, "pitch": 57, "duration": 298, "velocity": 117}, {"time": 7201, "pitch": 60, "duration": 306, "velocity": 96}, {"time": 7201, "pitch": 63, "duration": 251, "velocity": 103}, {"time": 7201, "pitch": 67, "duration": 266, "velocity": 105}, {"time": 7683, "pitch": 63, "duration": 201, "velocity": 126}, {"time": 8165, "pitch": 40, "duration": 1702, "velocity": 102}, {"time": 8165, "pitch": 55, "duration": 1512, "velocity": 111}, {"time": 8165, "pitch": 59, "duration": 1517, "velocity": 113}, {"time": 8165, "pitch": 62, "duration": 1561, "velocity": 100}, {"time": 8165, "pitch": 66, "duration": 1566, "velocity": 100}, {"time": 10085, "pitch": 42, "duration": 1493, "velocity": 89}, {"time": 10085, "pitch": 57, "duration": 602, "velocity": 96}, {"time": 10085, "pitch": 61, "duration": 868, "velocity": 102}, {"time": 10085, "pitch": 64, "duration": 919, "velocity": 102}, {"time": 11040, "pitch": 57, "duration": 433, "velocity": 100}, {"time": 11522, "pitch": 57, "duration": 141, "velocity": 56}, {"time": 11522, "pitch": 61, "duration": 123, "velocity": 107}, {"time": 12003, "pitch": 40, "duration": 1781, "velocity": 85}, {"time": 12003, "pitch": 55, "duration": 595, "velocity": 88}, {"time": 12003, "pitch": 59, "duration": 641, "velocity": 100}, {"time": 12003, "pitch": 62, "duration": 696, "velocity": 91}, {"time": 12959, "pitch": 62, "duration": 333, "velocity": 112}, {"time": 13330, "pitch": 64, "duration": 315, "velocity": 122}, {"time": 13682, "pitch": 66, "duration": 81, "velocity": 96}, {"time": 13922, "pitch": 42, "duration": 339, "velocity": 73}, {"time": 13922, "pitch": 61, "duration": 461, "velocity": 103}, {"time": 13922, "pitch": 64, "duration": 523, "velocity": 107}, {"time": 14641, "pitch": 42, "duration": 1012, "velocity": 68}, {"time": 14878, "pitch": 69, "duration": 226, "velocity": 117}, {"time": 14878, "pitch": 73, "duration": 301, "velocity": 122}, {"time": 15249, "pitch": 69, "duration": 318, "velocity": 110}, {"time": 15601, "pitch": 66, "duration": 64, "velocity": 94}, {"time": 15842, "pitch": 40, "duration": 614, "velocity": 87}, {"time": 15842, "pitch": 55, "duration": 818, "velocity": 87}, {"time": 15842, "pitch": 59, "duration": 936, "velocity": 88}, {"time": 15842, "pitch": 62, "duration": 1071, "velocity": 88}, {"time": 15842, "pitch": 66, "duration": 1065, "velocity": 89}, {"time": 17038, "pitch": 55, "duration": 528, "velocity": 91}, {"time": 17279, "pitch": 59, "duration": 318, "velocity": 86}, {"time": 17520, "pitch": 62, "duration": 107, "velocity": 72}, {"time": 17762, "pitch": 42, "duration": 471, "velocity": 87}, {"time": 17762, "pitch": 57, "duration": 765, "velocity": 103}, {"time": 17762, "pitch": 61, "duration": 712, "velocity": 107}, {"time": 18483, "pitch": 42, "duration": 809, "velocity": 66}, {"time": 18724, "pitch": 69, "duration": 317, "velocity": 117}, {"time": 19208, "pitch": 64, "duration": 129, "velocity": 112}, {"time": 19680, "pitch": 40, "duration": 505, "velocity": 81}, {"time": 19680, "pitch": 55, "duration": 822, "velocity": 94}, {"time": 19680, "pitch": 59, "duration": 873, "velocity": 102}, {"time": 19680, "pitch": 62, "duration": 870, "velocity": 91}, {"time": 19680, "pitch": 66, "duration": 905, "velocity": 87}, {"time": 20403, "pitch": 40, "duration": 1035, "velocity": 67}, {"time": 20643, "pitch": 55, "duration": 432, "velocity": 100}, {"time": 21117, "pitch": 55, "duration": 213, "velocity": 54}, {"time": 21117, "pitch": 62, "duration": 288, "velocity": 98}, {"time": 21599, "pitch": 42, "duration": 584, "velocity": 84}, {"time": 21599, "pitch": 57, "duration": 522, "velocity": 98}, {"time": 21599, "pitch": 61, "duration": 522, "velocity": 100}, {"time": 21599, "pitch": 64, "duration": 516, "velocity": 103}, {"time": 22563, "pitch": 43, "duration": 85, "velocity": 92}, {"time": 22563, "pitch": 59, "duration": 58, "velocity": 117}, {"time": 22563, "pitch": 62, "duration": 54, "velocity": 105}, {"time": 22563, "pitch": 66, "duration": 23, "velocity": 96}, {"time": 22563, "pitch": 69, "duration": 84, "velocity": 105}, {"time": 22804, "pitch": 43, "duration": 698, "velocity": 103}, {"time": 22804, "pitch": 59, "duration": 677, "velocity": 127}, {"time": 22804, "pitch": 62, "duration": 676, "velocity": 112}, {"time": 22804, "pitch": 66, "duration": 670, "velocity": 98}, {"time": 22804, "pitch": 69, "duration": 701, "velocity": 110}, {"time": 23518, "pitch": 40, "duration": 1628, "velocity": 86}, {"time": 23518, "pitch": 59, "duration": 1533, "velocity": 107}, {"time": 23518, "pitch": 62, "duration": 1558, "velocity": 91}, {"time": 23518, "pitch": 66, "duration": 1603, "velocity": 88}, {"time": 25439, "pitch": 42, "duration": 1469, "velocity": 75}, {"time": 25439, "pitch": 57, "duration": 1396, "velocity": 85}, {"time": 25439, "pitch": 61, "duration": 1431, "velocity": 87}, {"time": 25439, "pitch": 64, "duration": 1447, "velocity": 89}, {"time": 27365, "pitch": 40, "duration": 1598, "velocity": 80}, {"time": 27365, "pitch": 59, "duration": 605, "velocity": 89}, {"time": 27365, "pitch": 62, "duration": 563, "velocity": 92}, {"time": 29284, "pitch": 42, "duration": 51, "velocity": 52}, {"time": 29284, "pitch": 57, "duration": 540, "velocity": 89}, {"time": 29284, "pitch": 61, "duration": 547, "velocity": 96}, {"time": 29284, "pitch": 66, "duration": 584, "velocity": 85}, {"time": 30240, "pitch": 73, "duration": 464, "velocity": 98}, {"time": 30721, "pitch": 69, "duration": 89, "velocity": 83}, {"time": 31203, "pitch": 40, "duration": 1559, "velocity": 69}, {"time": 31203, "pitch": 55, "duration": 1114, "velocity": 85}, {"time": 31203, "pitch": 59, "duration": 1113, "velocity": 94}, {"time": 31203, "pitch": 62, "duration": 1108, "velocity": 82}, {"time": 31203, "pitch": 66, "duration": 1133, "velocity": 80}, {"time": 33123, "pitch": 42, "duration": 559, "velocity": 66}, {"time": 33123, "pitch": 57, "duration": 452, "velocity": 73}, {"time": 33123, "pitch": 61, "duration": 483, "velocity": 80}, {"time": 33123, "pitch": 64, "duration": 476, "velocity": 81}, {"time": 34078, "pitch": 41, "duration": 665, "velocity": 65}, {"time": 34078, "pitch": 57, "duration": 360, "velocity": 100}, {"time": 34078, "pitch": 63, "duration": 385, "velocity": 86}, {"time": 34078, "pitch": 67, "duration": 341, "velocity": 100}, {"time": 34561, "pitch": 57, "duration": 223, "velocity": 92}, {"time": 34561, "pitch": 63, "duration": 160, "velocity": 94}, {"time": 35041, "pitch": 40, "duration": 781, "velocity": 80}, {"time": 35041, "pitch": 55, "duration": 627, "velocity": 88}, {"time": 35041, "pitch": 59, "duration": 598, "velocity": 89}, {"time": 35041, "pitch": 62, "duration": 524, "velocity": 88}, {"time": 35041, "pitch": 66, "duration": 634, "velocity": 94}, {"time": 35997, "pitch": 42, "duration": 689, "velocity": 74}, {"time": 35997, "pitch": 57, "duration": 679, "velocity": 75}, {"time": 35997, "pitch": 61, "duration": 696, "velocity": 82}, {"time": 35997, "pitch": 64, "duration": 676, "velocity": 82}, {"time": 37202, "pitch": 47, "duration": 62, "velocity": 100}, {"time": 37202, "pitch": 57, "duration": 50, "velocity": 112}, {"time": 37202, "pitch": 61, "duration": 21, "velocity": 105}, {"time": 37202, "pitch": 62, "duration": 19, "velocity": 100}, {"time": 37202, "pitch": 66, "duration": 73, "velocity": 96}, {"time": 37573, "pitch": 45, "duration": 352, "velocity": 96}, {"time": 37573, "pitch": 55, "duration": 289, "velocity": 92}, {"time": 37573, "pitch": 59, "duration": 297, "velocity": 100}, {"time": 37573, "pitch": 60, "duration": 315, "velocity": 84}, {"time": 37573, "pitch": 64, "duration": 303, "velocity": 91}, {"time": 37924, "pitch": 47, "duration": 90, "velocity": 102}, {"time": 37924, "pitch": 57, "duration": 64, "velocity": 105}, {"time": 37924, "pitch": 61, "duration": 76, "velocity": 102}, {"time": 37924, "pitch": 62, "duration": 18, "velocity": 94}, {"time": 37924, "pitch": 66, "duration": 105, "velocity": 100}, {"time": 38880, "pitch": 40, "duration": 1850, "velocity": 84}, {"time": 38880, "pitch": 55, "duration": 1179, "velocity": 92}, {"time": 38880, "pitch": 59, "duration": 1247, "velocity": 100}, {"time": 38880, "pitch": 62, "duration": 1264, "velocity": 88}, {"time": 38880, "pitch": 66, "duration": 1246, "velocity": 86}, {"time": 40080, "pitch": 55, "duration": 541, "velocity": 88}, {"time": 40317, "pitch": 59, "duration": 335, "velocity": 91}, {"time": 40558, "pitch": 62, "duration": 135, "velocity": 89}, {"time": 40800, "pitch": 42, "duration": 489, "velocity": 79}, {"time": 40800, "pitch": 57, "duration": 885, "velocity": 100}, {"time": 40800, "pitch": 61, "duration": 861, "velocity": 100}, {"time": 41522, "pitch": 42, "duration": 937, "velocity": 76}, {"time": 41763, "pitch": 57, "duration": 718, "velocity": 32}, {"time": 41763, "pitch": 64, "duration": 469, "velocity": 112}, {"time": 42245, "pitch": 61, "duration": 192, "velocity": 89}, {"time": 42718, "pitch": 38, "duration": 1714, "velocity": 67}, {"time": 42718, "pitch": 59, "duration": 1490, "velocity": 96}, {"time": 42718, "pitch": 62, "duration": 823, "velocity": 92}, {"time": 43682, "pitch": 64, "duration": 503, "velocity": 105}, {"time": 44637, "pitch": 42, "duration": 262, "velocity": 81}, {"time": 44637, "pitch": 57, "duration": 359, "velocity": 91}, {"time": 44637, "pitch": 61, "duration": 384, "velocity": 94}, {"time": 44637, "pitch": 66, "duration": 448, "velocity": 85}, {"time": 45119, "pitch": 42, "duration": 1273, "velocity": 73}, {"time": 45360, "pitch": 69, "duration": 166, "velocity": 110}, {"time": 45360, "pitch": 73, "duration": 125, "velocity": 114}, {"time": 45491, "pitch": 74, "duration": 114, "velocity": 88}, {"time": 45601, "pitch": 73, "duration": 143, "velocity": 91}, {"time": 45731, "pitch": 69, "duration": 82, "velocity": 92}, {"time": 45972, "pitch": 66, "duration": 332, "velocity": 103}, {"time": 46324, "pitch": 57, "duration": 48, "velocity": 91}, {"time": 46564, "pitch": 40, "duration": 427, "velocity": 83}, {"time": 46564, "pitch": 55, "duration": 652, "velocity": 96}, {"time": 46564, "pitch": 59, "duration": 752, "velocity": 100}, {"time": 46564, "pitch": 62, "duration": 914, "velocity": 89}, {"time": 46564, "pitch": 66, "duration": 773, "velocity": 89}, {"time": 47279, "pitch": 40, "duration": 1102, "velocity": 65}, {"time": 47520, "pitch": 55, "duration": 704, "velocity": 74}, {"time": 48243, "pitch": 62, "duration": 119, "velocity": 69}, {"time": 48485, "pitch": 42, "duration": 688, "velocity": 77}, {"time": 48485, "pitch": 57, "duration": 429, "velocity": 100}, {"time": 48485, "pitch": 61, "duration": 430, "velocity": 103}, {"time": 48958, "pitch": 57, "duration": 296, "velocity": 60}, {"time": 48958, "pitch": 64, "duration": 151, "velocity": 112}, {"time": 49439, "pitch": 41, "duration": 688, "velocity": 82}, {"time": 49439, "pitch": 57, "duration": 360, "velocity": 112}, {"time": 49439, "pitch": 63, "duration": 363, "velocity": 98}, {"time": 49439, "pitch": 67, "duration": 319, "velocity": 100}, {"time": 49922, "pitch": 57, "duration": 204, "velocity": 107}, {"time": 49922, "pitch": 63, "duration": 149, "velocity": 103}, {"time": 50403, "pitch": 40, "duration": 879, "velocity": 83}, {"time": 50403, "pitch": 55, "duration": 652, "velocity": 98}, {"time": 50403, "pitch": 59, "duration": 639, "velocity": 102}, {"time": 50403, "pitch": 62, "duration": 700, "velocity": 91}, {"time": 50403, "pitch": 66, "duration": 760, "velocity": 88}, {"time": 51359, "pitch": 42, "duration": 622, "velocity": 67}, {"time": 51359, "pitch": 57, "duration": 613, "velocity": 89}, {"time": 51359, "pitch": 61, "duration": 607, "velocity": 92}, {"time": 51359, "pitch": 64, "duration": 614, "velocity": 91}, {"time": 52563, "pitch": 47, "duration": 68, "velocity": 102}, {"time": 52563, "pitch": 57, "duration": 49, "velocity": 107}, {"time": 52563, "pitch": 61, "duration": 63, "velocity": 105}, {"time": 52563, "pitch": 62, "duration": 15, "velocity": 98}, {"time": 52563, "pitch": 66, "duration": 69, "velocity": 102}, {"time": 52932, "pitch": 45, "duration": 347, "velocity": 91}, {"time": 52932, "pitch": 55, "duration": 288, "velocity": 105}, {"time": 52932, "pitch": 59, "duration": 292, "velocity": 112}, {"time": 52932, "pitch": 60, "duration": 310, "velocity": 87}, {"time": 52932, "pitch": 64, "duration": 307, "velocity": 105}, {"time": 53278, "pitch": 47, "duration": 93, "velocity": 102}, {"time": 53278, "pitch": 57, "duration": 70, "velocity": 105}, {"time": 53278, "pitch": 61, "duration": 87, "velocity": 107}, {"time": 53278, "pitch": 62, "duration": 18, "velocity": 100}, {"time": 53278, "pitch": 66, "duration": 112, "velocity": 102}, {"time": 54241, "pitch": 45, "duration": 607, "velocity": 103}, {"time": 54241, "pitch": 55, "duration": 597, "velocity": 107}, {"time": 54241, "pitch": 59, "duration": 594, "velocity": 105}, {"time": 54241, "pitch": 62, "duration": 582, "velocity": 98}, {"time": 54241, "pitch": 66, "duration": 594, "velocity": 102}, {"time": 54964, "pitch": 45, "duration": 370, "velocity": 96}, {"time": 54964, "pitch": 55, "duration": 595, "velocity": 107}, {"time": 54964, "pitch": 59, "duration": 665, "velocity": 103}, {"time": 54964, "pitch": 62, "duration": 677, "velocity": 98}, {"time": 54964, "pitch": 66, "duration": 687, "velocity": 98}, {"time": 55442, "pitch": 45, "duration": 365, "velocity": 77}, {"time": 55679, "pitch": 55, "duration": 168, "velocity": 72}, {"time": 55920, "pitch": 45, "duration": 773, "velocity": 85}, {"time": 55920, "pitch": 55, "duration": 746, "velocity": 102}, {"time": 55920, "pitch": 59, "duration": 726, "velocity": 103}, {"time": 55920, "pitch": 62, "duration": 717, "velocity": 100}, {"time": 55920, "pitch": 66, "duration": 771, "velocity": 89}, {"time": 56883, "pitch": 45, "duration": 377, "velocity": 98}, {"time": 56883, "pitch": 55, "duration": 610, "velocity": 98}, {"time": 56883, "pitch": 59, "duration": 619, "velocity": 100}, {"time": 56883, "pitch": 62, "duration": 612, "velocity": 91}, {"time": 56883, "pitch": 66, "duration": 605, "velocity": 87}, {"time": 57252, "pitch": 45, "duration": 8, "velocity": 39}, {"time": 57599, "pitch": 55, "duration": 306, "velocity": 76}, {"time": 57599, "pitch": 59, "duration": 279, "velocity": 88}, {"time": 57599, "pitch": 62, "duration": 32, "velocity": 67}, {"time": 57839, "pitch": 45, "duration": 160, "velocity": 67}, {"time": 58080, "pitch": 45, "duration": 607, "velocity": 87}, {"time": 58080, "pitch": 55, "duration": 559, "velocity": 96}, {"time": 58080, "pitch": 59, "duration": 505, "velocity": 107}, {"time": 58080, "pitch": 62, "duration": 493, "velocity": 96}, {"time": 58080, "pitch": 66, "duration": 550, "velocity": 92}, {"time": 58802, "pitch": 45, "duration": 356, "velocity": 67}, {"time": 58802, "pitch": 55, "duration": 713, "velocity": 94}, {"time": 58802, "pitch": 59, "duration": 682, "velocity": 96}, {"time": 58802, "pitch": 62, "duration": 643, "velocity": 89}, {"time": 58802, "pitch": 66, "duration": 652, "velocity": 89}, {"time": 59284, "pitch": 45, "duration": 211, "velocity": 86}, {"time": 59762, "pitch": 47, "duration": 698, "velocity": 100}, {"time": 59762, "pitch": 54, "duration": 587, "velocity": 102}, {"time": 59762, "pitch": 57, "duration": 601, "velocity": 102}, {"time": 59762, "pitch": 61, "duration": 637, "velocity": 100}, {"time": 59762, "pitch": 64, "duration": 664, "velocity": 103}, {"time": 60721, "pitch": 47, "duration": 184, "velocity": 88}, {"time": 60721, "pitch": 57, "duration": 317, "velocity": 102}, {"time": 60721, "pitch": 61, "duration": 336, "velocity": 102}, {"time": 60721, "pitch": 62, "duration": 331, "velocity": 96}, {"time": 60721, "pitch": 66, "duration": 397, "velocity": 94}, {"time": 61203, "pitch": 47, "duration": 216, "velocity": 80}, {"time": 61444, "pitch": 62, "duration": 188, "velocity": 98}, {"time": 61444, "pitch": 66, "duration": 153, "velocity": 94}, {"time": 61444, "pitch": 69, "duration": 137, "velocity": 89}, {"time": 61681, "pitch": 47, "duration": 104, "velocity": 81}, {"time": 61918, "pitch": 45, "duration": 525, "velocity": 92}, {"time": 61918, "pitch": 55, "duration": 525, "velocity": 102}, {"time": 61918, "pitch": 59, "duration": 486, "velocity": 107}, {"time": 61918, "pitch": 62, "duration": 485, "velocity": 92}, {"time": 61918, "pitch": 66, "duration": 527, "velocity": 92}, {"time": 62641, "pitch": 45, "duration": 297, "velocity": 100}, {"time": 62641, "pitch": 55, "duration": 466, "velocity": 98}, {"time": 62641, "pitch": 59, "duration": 529, "velocity": 103}, {"time": 62641, "pitch": 62, "duration": 684, "velocity": 96}, {"time": 62641, "pitch": 66, "duration": 711, "velocity": 92}, {"time": 63122, "pitch": 45, "duration": 434, "velocity": 77}, {"time": 63363, "pitch": 55, "duration": 170, "velocity": 96}, {"time": 63600, "pitch": 45, "duration": 815, "velocity": 73}, {"time": 63600, "pitch": 55, "duration": 776, "velocity": 117}, {"time": 63600, "pitch": 59, "duration": 735, "velocity": 110}, {"time": 63600, "pitch": 62, "duration": 714, "velocity": 102}, {"time": 63600, "pitch": 66, "duration": 760, "velocity": 100}, {"time": 64560, "pitch": 45, "duration": 220, "velocity": 81}, {"time": 64560, "pitch": 55, "duration": 519, "velocity": 102}, {"time": 64560, "pitch": 59, "duration": 523, "velocity": 107}, {"time": 64560, "pitch": 62, "duration": 495, "velocity": 96}, {"time": 64560, "pitch": 66, "duration": 520, "velocity": 96}, {"time": 65043, "pitch": 45, "duration": 242, "velocity": 66}, {"time": 65284, "pitch": 59, "duration": 161, "velocity": 92}, {"time": 65284, "pitch": 62, "duration": 171, "velocity": 86}, {"time": 65284, "pitch": 66, "duration": 217, "velocity": 76}, {"time": 65764, "pitch": 44, "duration": 502, "velocity": 88}, {"time": 65764, "pitch": 59, "duration": 408, "velocity": 112}, {"time": 65764, "pitch": 63, "duration": 481, "velocity": 92}, {"time": 65764, "pitch": 66, "duration": 519, "velocity": 100}, {"time": 66479, "pitch": 44, "duration": 885, "velocity": 64}, {"time": 66961, "pitch": 59, "duration": 202, "velocity": 87}, {"time": 67202, "pitch": 59, "duration": 362, "velocity": 34}, {"time": 67202, "pitch": 63, "duration": 426, "velocity": 100}, {"time": 67443, "pitch": 44, "duration": 155, "velocity": 64}, {"time": 67443, "pitch": 66, "duration": 137, "velocity": 72}, {"time": 67683, "pitch": 44, "duration": 858, "velocity": 32}, {"time": 67683, "pitch": 59, "duration": 248, "velocity": 83}, {"time": 67683, "pitch": 63, "duration": 251, "velocity": 54}, {"time": 67683, "pitch": 66, "duration": 22, "velocity": 91}, {"time": 67683, "pitch": 70, "duration": 230, "velocity": 92}, {"time": 68049, "pitch": 59, "duration": 177, "velocity": 96}, {"time": 68049, "pitch": 63, "duration": 270, "velocity": 84}, {"time": 68049, "pitch": 71, "duration": 101, "velocity": 98}, {"time": 68398, "pitch": 59, "duration": 371, "velocity": 100}, {"time": 68398, "pitch": 63, "duration": 260, "velocity": 91}, {"time": 68398, "pitch": 70, "duration": 307, "velocity": 96}, {"time": 68880, "pitch": 44, "duration": 373, "velocity": 61}, {"time": 69121, "pitch": 59, "duration": 169, "velocity": 102}, {"time": 69121, "pitch": 66, "duration": 121, "velocity": 105}, {"time": 69362, "pitch": 44, "duration": 46, "velocity": 46}, {"time": 69603, "pitch": 43, "duration": 385, "velocity": 77}, {"time": 69603, "pitch": 55, "duration": 649, "velocity": 102}, {"time": 69603, "pitch": 59, "duration": 650, "velocity": 107}, {"time": 69603, "pitch": 62, "duration": 641, "velocity": 92}, {"time": 69603, "pitch": 66, "duration": 639, "velocity": 91}, {"time": 70321, "pitch": 43, "duration": 216, "velocity": 72}, {"time": 70321, "pitch": 55, "duration": 485, "velocity": 88}, {"time": 70321, "pitch": 59, "duration": 460, "velocity": 92}, {"time": 70321, "pitch": 62, "duration": 432, "velocity": 83}, {"time": 70321, "pitch": 66, "duration": 472, "velocity": 88}, {"time": 70799, "pitch": 43, "duration": 202, "velocity": 72}, {"time": 71040, "pitch": 55, "duration": 129, "velocity": 80}, {"time": 71040, "pitch": 59, "duration": 149, "velocity": 88}, {"time": 71040, "pitch": 62, "duration": 93, "velocity": 83}, {"time": 71040, "pitch": 66, "duration": 230, "velocity": 80}, {"time": 71281, "pitch": 43, "duration": 82, "velocity": 67}, {"time": 71523, "pitch": 43, "duration": 352, "velocity": 75}, {"time": 71523, "pitch": 66, "duration": 327, "velocity": 87}, {"time": 71523, "pitch": 69, "duration": 161, "velocity": 89}, {"time": 71523, "pitch": 73, "duration": 132, "velocity": 79}, {"time": 71652, "pitch": 69, "duration": 32, "velocity": 42}, {"time": 71652, "pitch": 74, "duration": 121, "velocity": 103}, {"time": 71893, "pitch": 43, "duration": 1141, "velocity": 66}, {"time": 71893, "pitch": 66, "duration": 123, "velocity": 105}, {"time": 71893, "pitch": 69, "duration": 23, "velocity": 87}, {"time": 71893, "pitch": 73, "duration": 167, "velocity": 107}, {"time": 72132, "pitch": 69, "duration": 118, "velocity": 103}, {"time": 72241, "pitch": 66, "duration": 23, "velocity": 35}, {"time": 72369, "pitch": 66, "duration": 132, "velocity": 114}, {"time": 72719, "pitch": 62, "duration": 192, "velocity": 103}, {"time": 72960, "pitch": 59, "duration": 251, "velocity": 117}, {"time": 73200, "pitch": 43, "duration": 83, "velocity": 72}, {"time": 73200, "pitch": 59, "duration": 11, "velocity": 72}, {"time": 73200, "pitch": 62, "duration": 63, "velocity": 98}, {"time": 73441, "pitch": 44, "duration": 427, "velocity": 88}, {"time": 73441, "pitch": 59, "duration": 409, "velocity": 107}, {"time": 73441, "pitch": 63, "duration": 372, "velocity": 98}, {"time": 73441, "pitch": 66, "duration": 359, "velocity": 103}, {"time": 74164, "pitch": 44, "duration": 173, "velocity": 88}, {"time": 74164, "pitch": 59, "duration": 118, "velocity": 107}, {"time": 74164, "pitch": 63, "duration": 133, "velocity": 96}, {"time": 74164, "pitch": 66, "duration": 144, "velocity": 102}, {"time": 74642, "pitch": 44, "duration": 99, "velocity": 80}, {"time": 74642, "pitch": 63, "duration": 77, "velocity": 44}, {"time": 74642, "pitch": 66, "duration": 81, "velocity": 81}, {"time": 74642, "pitch": 70, "duration": 71, "velocity": 59}, {"time": 74770, "pitch": 44, "duration": 75, "velocity": 61}, {"time": 74770, "pitch": 63, "duration": 51, "velocity": 48}, {"time": 74770, "pitch": 66, "duration": 35, "velocity": 87}, {"time": 74770, "pitch": 70, "duration": 56, "velocity": 68}, {"time": 74879, "pitch": 44, "duration": 82, "velocity": 81}, {"time": 74879, "pitch": 63, "duration": 76, "velocity": 91}, {"time": 74879, "pitch": 66, "duration": 58, "velocity": 98}, {"time": 74879, "pitch": 70, "duration": 87, "velocity": 84}, {"time": 75009, "pitch": 44, "duration": 146, "velocity": 94}, {"time": 75009, "pitch": 63, "duration": 131, "velocity": 102}, {"time": 75009, "pitch": 66, "duration": 92, "velocity": 112}, {"time": 75009, "pitch": 70, "duration": 146, "velocity": 94}, {"time": 75360, "pitch": 44, "duration": 217, "velocity": 98}, {"time": 75360, "pitch": 63, "duration": 241, "velocity": 114}, {"time": 75360, "pitch": 66, "duration": 184, "velocity": 110}, {"time": 75360, "pitch": 70, "duration": 220, "velocity": 96}, {"time": 75732, "pitch": 44, "duration": 180, "velocity": 86}, {"time": 75732, "pitch": 63, "duration": 180, "velocity": 98}, {"time": 75732, "pitch": 66, "duration": 216, "velocity": 105}, {"time": 75732, "pitch": 71, "duration": 145, "velocity": 103}, {"time": 76083, "pitch": 44, "duration": 443, "velocity": 85}, {"time": 76083, "pitch": 63, "duration": 188, "velocity": 103}, {"time": 76083, "pitch": 66, "duration": 166, "velocity": 100}, {"time": 76083, "pitch": 73, "duration": 188, "velocity": 105}, {"time": 76452, "pitch": 63, "duration": 177, "velocity": 82}, {"time": 76561, "pitch": 66, "duration": 184, "velocity": 84}, {"time": 76561, "pitch": 71, "duration": 180, "velocity": 91}, {"time": 76798, "pitch": 63, "duration": 142, "velocity": 86}, {"time": 76798, "pitch": 66, "duration": 134, "velocity": 89}, {"time": 76798, "pitch": 70, "duration": 229, "velocity": 96}, {"time": 77039, "pitch": 66, "duration": 92, "velocity": 100}, {"time": 77279, "pitch": 43, "duration": 438, "velocity": 83}, {"time": 77279, "pitch": 62, "duration": 498, "velocity": 100}, {"time": 77279, "pitch": 66, "duration": 523, "velocity": 102}, {"time": 77279, "pitch": 69, "duration": 515, "velocity": 103}, {"time": 78002, "pitch": 43, "duration": 182, "velocity": 67}, {"time": 78002, "pitch": 62, "duration": 152, "velocity": 105}, {"time": 78002, "pitch": 66, "duration": 169, "velocity": 103}, {"time": 78002, "pitch": 69, "duration": 151, "velocity": 105}, {"time": 78484, "pitch": 43, "duration": 746, "velocity": 72}, {"time": 78725, "pitch": 55, "duration": 616, "velocity": 94}, {"time": 78962, "pitch": 59, "duration": 413, "velocity": 91}, {"time": 79200, "pitch": 62, "duration": 206, "velocity": 86}, {"time": 79440, "pitch": 43, "duration": 257, "velocity": 73}, {"time": 79680, "pitch": 62, "duration": 119, "velocity": 89}, {"time": 79680, "pitch": 66, "duration": 152, "velocity": 100}, {"time": 80162, "pitch": 43, "duration": 82, "velocity": 107}, {"time": 80162, "pitch": 62, "duration": 42, "velocity": 112}, {"time": 80162, "pitch": 66, "duration": 46, "velocity": 117}, {"time": 80162, "pitch": 69, "duration": 70, "velocity": 112}, {"time": 80404, "pitch": 43, "duration": 722, "velocity": 107}, {"time": 80404, "pitch": 62, "duration": 703, "velocity": 119}, {"time": 80404, "pitch": 66, "duration": 735, "velocity": 117}, {"time": 80404, "pitch": 69, "duration": 737, "velocity": 114}, {"time": 81118, "pitch": 40, "duration": 1587, "velocity": 89}, {"time": 81118, "pitch": 59, "duration": 1196, "velocity": 103}, {"time": 81118, "pitch": 62, "duration": 1105, "velocity": 94}, {"time": 82563, "pitch": 62, "duration": 276, "velocity": 103}, {"time": 83045, "pitch": 42, "duration": 514, "velocity": 84}, {"time": 83045, "pitch": 57, "duration": 986, "velocity": 94}, {"time": 83045, "pitch": 61, "duration": 829, "velocity": 100}, {"time": 83760, "pitch": 64, "duration": 408, "velocity": 96}, {"time": 84241, "pitch": 57, "duration": 521, "velocity": 88}, {"time": 84482, "pitch": 61, "duration": 310, "velocity": 96}, {"time": 84723, "pitch": 64, "duration": 130, "velocity": 96}, {"time": 84964, "pitch": 40, "duration": 368, "velocity": 87}, {"time": 84964, "pitch": 59, "duration": 752, "velocity": 110}, {"time": 84964, "pitch": 62, "duration": 717, "velocity": 105}, {"time": 85679, "pitch": 40, "duration": 903, "velocity": 81}, {"time": 86161, "pitch": 69, "duration": 132, "velocity": 107}, {"time": 86161, "pitch": 73, "duration": 170, "velocity": 112}, {"time": 86532, "pitch": 64, "duration": 75, "velocity": 107}, {"time": 86532, "pitch": 69, "duration": 75, "velocity": 107}, {"time": 86884, "pitch": 38, "duration": 1546, "velocity": 75}, {"time": 86884, "pitch": 59, "duration": 497, "velocity": 103}, {"time": 86884, "pitch": 64, "duration": 375, "velocity": 110}, {"time": 87598, "pitch": 57, "duration": 684, "velocity": 87}, {"time": 87598, "pitch": 66, "duration": 726, "velocity": 87}, {"time": 88802, "pitch": 40, "duration": 1628, "velocity": 85}, {"time": 88802, "pitch": 55, "duration": 1083, "velocity": 98}, {"time": 88802, "pitch": 59, "duration": 1084, "velocity": 80}, {"time": 88802, "pitch": 62, "duration": 1084, "velocity": 80}, {"time": 89999, "pitch": 55, "duration": 487, "velocity": 81}, {"time": 90240, "pitch": 59, "duration": 289, "velocity": 105}, {"time": 90481, "pitch": 62, "duration": 121, "velocity": 91}, {"time": 90722, "pitch": 42, "duration": 579, "velocity": 88}, {"time": 90722, "pitch": 57, "duration": 313, "velocity": 110}, {"time": 90722, "pitch": 61, "duration": 349, "velocity": 110}, {"time": 91203, "pitch": 57, "duration": 245, "velocity": 107}, {"time": 91203, "pitch": 64, "duration": 112, "velocity": 112}, {"time": 91677, "pitch": 41, "duration": 642, "velocity": 96}, {"time": 91677, "pitch": 57, "duration": 300, "velocity": 105}, {"time": 91677, "pitch": 60, "duration": 239, "velocity": 94}, {"time": 91677, "pitch": 63, "duration": 188, "velocity": 96}, {"time": 91677, "pitch": 67, "duration": 248, "velocity": 100}, {"time": 92159, "pitch": 57, "duration": 126, "velocity": 112}, {"time": 92159, "pitch": 63, "duration": 102, "velocity": 107}, {"time": 92641, "pitch": 40, "duration": 868, "velocity": 86}, {"time": 92641, "pitch": 55, "duration": 583, "velocity": 105}, {"time": 92641, "pitch": 59, "duration": 518, "velocity": 98}, {"time": 92641, "pitch": 62, "duration": 616, "velocity": 85}, {"time": 92641, "pitch": 66, "duration": 588, "velocity": 87}, {"time": 93604, "pitch": 42, "duration": 702, "velocity": 84}, {"time": 93604, "pitch": 57, "duration": 747, "velocity": 88}, {"time": 93604, "pitch": 61, "duration": 748, "velocity": 92}, {"time": 93604, "pitch": 64, "duration": 780, "velocity": 92}, {"time": 94801, "pitch": 47, "duration": 67, "velocity": 117}, {"time": 94801, "pitch": 57, "duration": 10, "velocity": 71}, {"time": 94801, "pitch": 57, "duration": 10, "velocity": 122}, {"time": 94801, "pitch": 61, "duration": 53, "velocity": 110}, {"time": 94801, "pitch": 62, "duration": 12, "velocity": 110}, {"time": 94801, "pitch": 66, "duration": 49, "velocity": 107}, {"time": 95172, "pitch": 45, "duration": 337, "velocity": 107}, {"time": 95172, "pitch": 55, "duration": 265, "velocity": 105}, {"time": 95172, "pitch": 59, "duration": 271, "velocity": 107}, {"time": 95172, "pitch": 60, "duration": 288, "velocity": 88}, {"time": 95172, "pitch": 64, "duration": 293, "velocity": 105}, {"time": 95524, "pitch": 47, "duration": 78, "velocity": 105}, {"time": 95524, "pitch": 57, "duration": 51, "velocity": 110}, {"time": 95524, "pitch": 61, "duration": 58, "velocity": 107}, {"time": 95524, "pitch": 62, "duration": 13, "velocity": 107}, {"time": 95524, "pitch": 66, "duration": 81, "velocity": 105}, {"time": 96479, "pitch": 40, "duration": 1628, "velocity": 86}, {"time": 96479, "pitch": 59, "duration": 1532, "velocity": 107}, {"time": 96479, "pitch": 62, "duration": 1558, "velocity": 91}, {"time": 96479, "pitch": 66, "duration": 1602, "velocity": 88}, {"time": 98399, "pitch": 42, "duration": 1469, "velocity": 75}, {"time": 98399, "pitch": 57, "duration": 1397, "velocity": 85}, {"time": 98399, "pitch": 61, "duration": 1432, "velocity": 87}, {"time": 98399, "pitch": 64, "duration": 1448, "velocity": 89}, {"time": 100318, "pitch": 40, "duration": 1606, "velocity": 80}, {"time": 100318, "pitch": 59, "duration": 613, "velocity": 89}, {"time": 100318, "pitch": 62, "duration": 571, "velocity": 92}, {"time": 102245, "pitch": 42, "duration": 51, "velocity": 52}, {"time": 102245, "pitch": 57, "duration": 540, "velocity": 89}, {"time": 102245, "pitch": 61, "duration": 547, "velocity": 96}, {"time": 102245, "pitch": 66, "duration": 584, "velocity": 85}, {"time": 103200, "pitch": 73, "duration": 465, "velocity": 98}, {"time": 103682, "pitch": 69, "duration": 88, "velocity": 83}, {"time": 104164, "pitch": 40, "duration": 1559, "velocity": 69}, {"time": 104164, "pitch": 55, "duration": 1114, "velocity": 85}, {"time": 104164, "pitch": 59, "duration": 1113, "velocity": 94}, {"time": 104164, "pitch": 62, "duration": 1108, "velocity": 82}, {"time": 104164, "pitch": 66, "duration": 1133, "velocity": 80}, {"time": 106084, "pitch": 42, "duration": 559, "velocity": 66}, {"time": 106084, "pitch": 57, "duration": 452, "velocity": 73}, {"time": 106084, "pitch": 61, "duration": 483, "velocity": 80}, {"time": 106084, "pitch": 64, "duration": 476, "velocity": 81}, {"time": 107039, "pitch": 41, "duration": 665, "velocity": 65}, {"time": 107039, "pitch": 57, "duration": 360, "velocity": 100}, {"time": 107039, "pitch": 63, "duration": 385, "velocity": 86}, {"time": 107039, "pitch": 67, "duration": 341, "velocity": 100}, {"time": 107522, "pitch": 57, "duration": 223, "velocity": 92}, {"time": 107522, "pitch": 63, "duration": 160, "velocity": 94}, {"time": 108002, "pitch": 40, "duration": 781, "velocity": 80}, {"time": 108002, "pitch": 55, "duration": 627, "velocity": 88}, {"time": 108002, "pitch": 59, "duration": 598, "velocity": 89}, {"time": 108002, "pitch": 62, "duration": 523, "velocity": 88}, {"time": 108002, "pitch": 66, "duration": 634, "velocity": 94}, {"time": 108958, "pitch": 42, "duration": 688, "velocity": 74}, {"time": 108958, "pitch": 57, "duration": 678, "velocity": 75}, {"time": 108958, "pitch": 61, "duration": 696, "velocity": 82}, {"time": 108958, "pitch": 64, "duration": 675, "velocity": 82}, {"time": 110162, "pitch": 47, "duration": 63, "velocity": 100}, {"time": 110162, "pitch": 57, "duration": 51, "velocity": 112}, {"time": 110162, "pitch": 61, "duration": 21, "velocity": 105}, {"time": 110162, "pitch": 62, "duration": 19, "velocity": 100}, {"time": 110162, "pitch": 66, "duration": 74, "velocity": 96}, {"time": 110532, "pitch": 45, "duration": 346, "velocity": 96}, {"time": 110532, "pitch": 55, "duration": 284, "velocity": 92}, {"time": 110532, "pitch": 59, "duration": 292, "velocity": 100}, {"time": 110532, "pitch": 60, "duration": 310, "velocity": 84}, {"time": 110532, "pitch": 64, "duration": 298, "velocity": 91}, {"time": 110877, "pitch": 47, "duration": 91, "velocity": 102}, {"time": 110877, "pitch": 57, "duration": 65, "velocity": 105}, {"time": 110877, "pitch": 61, "duration": 77, "velocity": 102}, {"time": 110877, "pitch": 62, "duration": 18, "velocity": 94}, {"time": 110877, "pitch": 66, "duration": 107, "velocity": 100}, {"time": 111841, "pitch": 40, "duration": 1850, "velocity": 84}, {"time": 111841, "pitch": 55, "duration": 1178, "velocity": 92}, {"time": 111841, "pitch": 59, "duration": 1247, "velocity": 100}, {"time": 111841, "pitch": 62, "duration": 1264, "velocity": 88}, {"time": 111841, "pitch": 66, "duration": 1246, "velocity": 86}, {"time": 113041, "pitch": 55, "duration": 541, "velocity": 88}, {"time": 113278, "pitch": 59, "duration": 335, "velocity": 91}, {"time": 113519, "pitch": 62, "duration": 134, "velocity": 89}, {"time": 113761, "pitch": 42, "duration": 489, "velocity": 79}, {"time": 113761, "pitch": 57, "duration": 885, "velocity": 100}, {"time": 113761, "pitch": 61, "duration": 861, "velocity": 100}, {"time": 114483, "pitch": 42, "duration": 932, "velocity": 76}, {"time": 114723, "pitch": 57, "duration": 715, "velocity": 32}, {"time": 114723, "pitch": 64, "duration": 462, "velocity": 112}, {"time": 115198, "pitch": 61, "duration": 195, "velocity": 89}, {"time": 115679, "pitch": 38, "duration": 1714, "velocity": 67}, {"time": 115679, "pitch": 59, "duration": 1490, "velocity": 96}, {"time": 115679, "pitch": 62, "duration": 823, "velocity": 92}, {"time": 116643, "pitch": 64, "duration": 503, "velocity": 105}, {"time": 117598, "pitch": 42, "duration": 262, "velocity": 81}, {"time": 117598, "pitch": 57, "duration": 359, "velocity": 91}, {"time": 117598, "pitch": 61, "duration": 384, "velocity": 94}, {"time": 117598, "pitch": 66, "duration": 448, "velocity": 85}, {"time": 118080, "pitch": 42, "duration": 1268, "velocity": 73}, {"time": 118321, "pitch": 69, "duration": 166, "velocity": 110}, {"time": 118321, "pitch": 73, "duration": 124, "velocity": 114}, {"time": 118451, "pitch": 74, "duration": 115, "velocity": 88}, {"time": 118562, "pitch": 73, "duration": 143, "velocity": 91}, {"time": 118692, "pitch": 69, "duration": 82, "velocity": 92}, {"time": 118933, "pitch": 66, "duration": 328, "velocity": 103}, {"time": 119280, "pitch": 57, "duration": 48, "velocity": 91}, {"time": 119517, "pitch": 40, "duration": 434, "velocity": 83}, {"time": 119517, "pitch": 55, "duration": 660, "velocity": 96}, {"time": 119517, "pitch": 59, "duration": 760, "velocity": 100}, {"time": 119517, "pitch": 62, "duration": 922, "velocity": 89}, {"time": 119517, "pitch": 66, "duration": 781, "velocity": 89}, {"time": 120240, "pitch": 40, "duration": 1102, "velocity": 65}, {"time": 120481, "pitch": 55, "duration": 704, "velocity": 74}, {"time": 121204, "pitch": 62, "duration": 119, "velocity": 69}, {"time": 121445, "pitch": 42, "duration": 689, "velocity": 77}, {"time": 121445, "pitch": 57, "duration": 430, "velocity": 100}, {"time": 121445, "pitch": 61, "duration": 431, "velocity": 103}, {"time": 121918, "pitch": 57, "duration": 296, "velocity": 60}, {"time": 121918, "pitch": 64, "duration": 152, "velocity": 112}, {"time": 122400, "pitch": 41, "duration": 688, "velocity": 82}, {"time": 122400, "pitch": 57, "duration": 359, "velocity": 112}, {"time": 122400, "pitch": 63, "duration": 363, "velocity": 98}, {"time": 122400, "pitch": 67, "duration": 319, "velocity": 100}, {"time": 122883, "pitch": 57, "duration": 204, "velocity": 107}, {"time": 122883, "pitch": 63, "duration": 148, "velocity": 103}, {"time": 123364, "pitch": 40, "duration": 877, "velocity": 83}, {"time": 123364, "pitch": 55, "duration": 647, "velocity": 98}, {"time": 123364, "pitch": 59, "duration": 633, "velocity": 102}, {"time": 123364, "pitch": 62, "duration": 695, "velocity": 91}, {"time": 123364, "pitch": 66, "duration": 757, "velocity": 88}, {"time": 124319, "pitch": 42, "duration": 623, "velocity": 67}, {"time": 124319, "pitch": 57, "duration": 614, "velocity": 89}, {"time": 124319, "pitch": 61, "duration": 608, "velocity": 92}, {"time": 124319, "pitch": 64, "duration": 615, "velocity": 91}, {"time": 125524, "pitch": 47, "duration": 68, "velocity": 102}, {"time": 125524, "pitch": 57, "duration": 49, "velocity": 107}, {"time": 125524, "pitch": 61, "duration": 63, "velocity": 105}, {"time": 125524, "pitch": 62, "duration": 15, "velocity": 98}, {"time": 125524, "pitch": 66, "duration": 69, "velocity": 102}, {"time": 125893, "pitch": 45, "duration": 347, "velocity": 91}, {"time": 125893, "pitch": 55, "duration": 288, "velocity": 105}, {"time": 125893, "pitch": 59, "duration": 292, "velocity": 112}, {"time": 125893, "pitch": 60, "duration": 310, "velocity": 87}, {"time": 125893, "pitch": 64, "duration": 307, "velocity": 105}, {"time": 126239, "pitch": 47, "duration": 93, "velocity": 102}, {"time": 126239, "pitch": 57, "duration": 70, "velocity": 105}, {"time": 126239, "pitch": 61, "duration": 87, "velocity": 107}, {"time": 126239, "pitch": 62, "duration": 18, "velocity": 100}, {"time": 126239, "pitch": 66, "duration": 112, "velocity": 102}, {"time": 127202, "pitch": 45, "duration": 605, "velocity": 103}, {"time": 127202, "pitch": 55, "duration": 595, "velocity": 107}, {"time": 127202, "pitch": 59, "duration": 592, "velocity": 105}, {"time": 127202, "pitch": 62, "duration": 581, "velocity": 98}, {"time": 127202, "pitch": 66, "duration": 592, "velocity": 102}, {"time": 127921, "pitch": 45, "duration": 368, "velocity": 96}, {"time": 127921, "pitch": 55, "duration": 597, "velocity": 107}, {"time": 127921, "pitch": 59, "duration": 668, "velocity": 103}, {"time": 127921, "pitch": 62, "duration": 680, "velocity": 98}, {"time": 127921, "pitch": 66, "duration": 690, "velocity": 98}, {"time": 128399, "pitch": 45, "duration": 369, "velocity": 77}, {"time": 128640, "pitch": 55, "duration": 168, "velocity": 72}, {"time": 128880, "pitch": 45, "duration": 774, "velocity": 85}, {"time": 128880, "pitch": 55, "duration": 747, "velocity": 102}, {"time": 128880, "pitch": 59, "duration": 727, "velocity": 103}, {"time": 128880, "pitch": 62, "duration": 718, "velocity": 100}, {"time": 128880, "pitch": 66, "duration": 772, "velocity": 89}, {"time": 129844, "pitch": 45, "duration": 377, "velocity": 98}, {"time": 129844, "pitch": 55, "duration": 610, "velocity": 98}, {"time": 129844, "pitch": 59, "duration": 619, "velocity": 100}, {"time": 129844, "pitch": 62, "duration": 612, "velocity": 91}, {"time": 129844, "pitch": 66, "duration": 605, "velocity": 87}, {"time": 130213, "pitch": 45, "duration": 8, "velocity": 39}, {"time": 130560, "pitch": 55, "duration": 306, "velocity": 76}, {"time": 130560, "pitch": 59, "duration": 279, "velocity": 88}, {"time": 130560, "pitch": 62, "duration": 32, "velocity": 67}, {"time": 130800, "pitch": 45, "duration": 160, "velocity": 67}, {"time": 131040, "pitch": 45, "duration": 608, "velocity": 87}, {"time": 131040, "pitch": 55, "duration": 560, "velocity": 96}, {"time": 131040, "pitch": 59, "duration": 506, "velocity": 107}, {"time": 131040, "pitch": 62, "duration": 494, "velocity": 96}, {"time": 131040, "pitch": 66, "duration": 551, "velocity": 92}, {"time": 131763, "pitch": 45, "duration": 354, "velocity": 67}, {"time": 131763, "pitch": 55, "duration": 705, "velocity": 94}, {"time": 131763, "pitch": 59, "duration": 674, "velocity": 96}, {"time": 131763, "pitch": 62, "duration": 636, "velocity": 89}, {"time": 131763, "pitch": 66, "duration": 645, "velocity": 89}, {"time": 132241, "pitch": 45, "duration": 207, "velocity": 86}, {"time": 132719, "pitch": 47, "duration": 701, "velocity": 100}, {"time": 132719, "pitch": 54, "duration": 591, "velocity": 102}, {"time": 132719, "pitch": 57, "duration": 605, "velocity": 102}, {"time": 132719, "pitch": 61, "duration": 641, "velocity": 100}, {"time": 132719, "pitch": 64, "duration": 668, "velocity": 103}, {"time": 133682, "pitch": 47, "duration": 184, "velocity": 88}, {"time": 133682, "pitch": 57, "duration": 315, "velocity": 102}, {"time": 133682, "pitch": 61, "duration": 334, "velocity": 102}, {"time": 133682, "pitch": 62, "duration": 329, "velocity": 96}, {"time": 133682, "pitch": 66, "duration": 394, "velocity": 94}, {"time": 134160, "pitch": 47, "duration": 212, "velocity": 80}, {"time": 134397, "pitch": 62, "duration": 191, "velocity": 98}, {"time": 134397, "pitch": 66, "duration": 156, "velocity": 94}, {"time": 134397, "pitch": 69, "duration": 140, "velocity": 89}, {"time": 134638, "pitch": 47, "duration": 105, "velocity": 81}, {"time": 134879, "pitch": 45, "duration": 525, "velocity": 92}, {"time": 134879, "pitch": 55, "duration": 525, "velocity": 102}, {"time": 134879, "pitch": 59, "duration": 486, "velocity": 107}, {"time": 134879, "pitch": 62, "duration": 485, "velocity": 92}, {"time": 134879, "pitch": 66, "duration": 527, "velocity": 92}, {"time": 135602, "pitch": 45, "duration": 297, "velocity": 100}, {"time": 135602, "pitch": 55, "duration": 466, "velocity": 98}, {"time": 135602, "pitch": 59, "duration": 528, "velocity": 103}, {"time": 135602, "pitch": 62, "duration": 684, "velocity": 96}, {"time": 135602, "pitch": 66, "duration": 711, "velocity": 92}, {"time": 136083, "pitch": 45, "duration": 434, "velocity": 77}, {"time": 136324, "pitch": 55, "duration": 170, "velocity": 96}, {"time": 136561, "pitch": 45, "duration": 815, "velocity": 73}, {"time": 136561, "pitch": 55, "duration": 776, "velocity": 117}, {"time": 136561, "pitch": 59, "duration": 735, "velocity": 110}, {"time": 136561, "pitch": 62, "duration": 714, "velocity": 102}, {"time": 136561, "pitch": 66, "duration": 760, "velocity": 100}, {"time": 137521, "pitch": 45, "duration": 220, "velocity": 81}, {"time": 137521, "pitch": 55, "duration": 519, "velocity": 102}, {"time": 137521, "pitch": 59, "duration": 523, "velocity": 107}, {"time": 137521, "pitch": 62, "duration": 495, "velocity": 96}, {"time": 137521, "pitch": 66, "duration": 520, "velocity": 96}, {"time": 138003, "pitch": 45, "duration": 242, "velocity": 66}, {"time": 138244, "pitch": 59, "duration": 159, "velocity": 92}, {"time": 138244, "pitch": 62, "duration": 169, "velocity": 86}, {"time": 138244, "pitch": 66, "duration": 215, "velocity": 76}, {"time": 138717, "pitch": 44, "duration": 510, "velocity": 88}, {"time": 138717, "pitch": 59, "duration": 415, "velocity": 112}, {"time": 138717, "pitch": 63, "duration": 489, "velocity": 92}, {"time": 138717, "pitch": 66, "duration": 527, "velocity": 100}, {"time": 139440, "pitch": 44, "duration": 885, "velocity": 64}, {"time": 139922, "pitch": 59, "duration": 201, "velocity": 87}, {"time": 140163, "pitch": 59, "duration": 362, "velocity": 34}, {"time": 140163, "pitch": 63, "duration": 426, "velocity": 100}, {"time": 140403, "pitch": 44, "duration": 156, "velocity": 64}, {"time": 140403, "pitch": 66, "duration": 138, "velocity": 72}, {"time": 140644, "pitch": 44, "duration": 858, "velocity": 32}, {"time": 140644, "pitch": 59, "duration": 248, "velocity": 83}, {"time": 140644, "pitch": 63, "duration": 251, "velocity": 54}, {"time": 140644, "pitch": 66, "duration": 22, "velocity": 91}, {"time": 140644, "pitch": 70, "duration": 229, "velocity": 92}, {"time": 141010, "pitch": 59, "duration": 176, "velocity": 96}, {"time": 141010, "pitch": 63, "duration": 270, "velocity": 84}, {"time": 141010, "pitch": 71, "duration": 100, "velocity": 98}, {"time": 141359, "pitch": 59, "duration": 370, "velocity": 100}, {"time": 141359, "pitch": 63, "duration": 260, "velocity": 91}, {"time": 141359, "pitch": 70, "duration": 307, "velocity": 96}, {"time": 141841, "pitch": 44, "duration": 373, "velocity": 61}, {"time": 142082, "pitch": 59, "duration": 168, "velocity": 102}, {"time": 142082, "pitch": 66, "duration": 121, "velocity": 105}, {"time": 142323, "pitch": 44, "duration": 46, "velocity": 46}, {"time": 142563, "pitch": 43, "duration": 380, "velocity": 77}, {"time": 142563, "pitch": 55, "duration": 645, "velocity": 102}, {"time": 142563, "pitch": 59, "duration": 646, "velocity": 107}, {"time": 142563, "pitch": 62, "duration": 637, "velocity": 92}, {"time": 142563, "pitch": 66, "duration": 635, "velocity": 91}, {"time": 143278, "pitch": 43, "duration": 219, "velocity": 72}, {"time": 143278, "pitch": 55, "duration": 489, "velocity": 88}, {"time": 143278, "pitch": 59, "duration": 464, "velocity": 92}, {"time": 143278, "pitch": 62, "duration": 436, "velocity": 83}, {"time": 143278, "pitch": 66, "duration": 476, "velocity": 88}, {"time": 143760, "pitch": 43, "duration": 202, "velocity": 72}, {"time": 144001, "pitch": 55, "duration": 128, "velocity": 80}, {"time": 144001, "pitch": 59, "duration": 148, "velocity": 88}, {"time": 144001, "pitch": 62, "duration": 93, "velocity": 83}, {"time": 144001, "pitch": 66, "duration": 230, "velocity": 80}, {"time": 144242, "pitch": 43, "duration": 82, "velocity": 67}, {"time": 144484, "pitch": 43, "duration": 352, "velocity": 75}, {"time": 144484, "pitch": 66, "duration": 327, "velocity": 87}, {"time": 144484, "pitch": 69, "duration": 161, "velocity": 89}, {"time": 144484, "pitch": 73, "duration": 132, "velocity": 79}, {"time": 144613, "pitch": 69, "duration": 32, "velocity": 42}, {"time": 144613, "pitch": 74, "duration": 121, "velocity": 103}, {"time": 144854, "pitch": 43, "duration": 1140, "velocity": 66}, {"time": 144854, "pitch": 66, "duration": 123, "velocity": 105}, {"time": 144854, "pitch": 69, "duration": 23, "velocity": 87}, {"time": 144854, "pitch": 73, "duration": 167, "velocity": 107}, {"time": 145093, "pitch": 69, "duration": 118, "velocity": 103}, {"time": 145201, "pitch": 66, "duration": 24, "velocity": 35}, {"time": 145330, "pitch": 66, "duration": 131, "velocity": 114}, {"time": 145680, "pitch": 62, "duration": 192, "velocity": 103}, {"time": 145921, "pitch": 59, "duration": 251, "velocity": 117}, {"time": 146161, "pitch": 43, "duration": 83, "velocity": 72}, {"time": 146161, "pitch": 59, "duration": 11, "velocity": 72}, {"time": 146161, "pitch": 62, "duration": 63, "velocity": 98}, {"time": 146402, "pitch": 44, "duration": 426, "velocity": 88}, {"time": 146402, "pitch": 59, "duration": 408, "velocity": 107}, {"time": 146402, "pitch": 63, "duration": 372, "velocity": 98}, {"time": 146402, "pitch": 66, "duration": 359, "velocity": 103}, {"time": 147121, "pitch": 44, "duration": 170, "velocity": 88}, {"time": 147121, "pitch": 59, "duration": 116, "velocity": 107}, {"time": 147121, "pitch": 63, "duration": 131, "velocity": 96}, {"time": 147121, "pitch": 66, "duration": 142, "velocity": 102}, {"time": 147598, "pitch": 44, "duration": 102, "velocity": 80}, {"time": 147598, "pitch": 63, "duration": 79, "velocity": 44}, {"time": 147598, "pitch": 66, "duration": 84, "velocity": 81}, {"time": 147598, "pitch": 70, "duration": 73, "velocity": 59}, {"time": 147729, "pitch": 44, "duration": 76, "velocity": 61}, {"time": 147729, "pitch": 63, "duration": 52, "velocity": 48}, {"time": 147729, "pitch": 66, "duration": 36, "velocity": 87}, {"time": 147729, "pitch": 70, "duration": 57, "velocity": 68}, {"time": 147839, "pitch": 44, "duration": 83, "velocity": 81}, {"time": 147839, "pitch": 63, "duration": 77, "velocity": 91}, {"time": 147839, "pitch": 66, "duration": 59, "velocity": 98}, {"time": 147839, "pitch": 70, "duration": 88, "velocity": 84}, {"time": 147970, "pitch": 44, "duration": 146, "velocity": 94}, {"time": 147970, "pitch": 63, "duration": 131, "velocity": 102}, {"time": 147970, "pitch": 66, "duration": 92, "velocity": 112}, {"time": 147970, "pitch": 70, "duration": 146, "velocity": 94}, {"time": 148321, "pitch": 44, "duration": 217, "velocity": 98}, {"time": 148321, "pitch": 63, "duration": 241, "velocity": 114}, {"time": 148321, "pitch": 66, "duration": 184, "velocity": 110}, {"time": 148321, "pitch": 70, "duration": 220, "velocity": 96}, {"time": 148692, "pitch": 44, "duration": 181, "velocity": 86}, {"time": 148692, "pitch": 63, "duration": 181, "velocity": 98}, {"time": 148692, "pitch": 66, "duration": 217, "velocity": 105}, {"time": 148692, "pitch": 71, "duration": 146, "velocity": 103}, {"time": 149044, "pitch": 44, "duration": 443, "velocity": 85}, {"time": 149044, "pitch": 63, "duration": 187, "velocity": 103}, {"time": 149044, "pitch": 66, "duration": 165, "velocity": 100}, {"time": 149044, "pitch": 73, "duration": 187, "velocity": 105}, {"time": 149413, "pitch": 63, "duration": 177, "velocity": 82}, {"time": 149522, "pitch": 66, "duration": 184, "velocity": 84}, {"time": 149522, "pitch": 71, "duration": 180, "velocity": 91}, {"time": 149759, "pitch": 63, "duration": 142, "velocity": 86}, {"time": 149759, "pitch": 66, "duration": 134, "velocity": 89}, {"time": 149759, "pitch": 70, "duration": 228, "velocity": 96}, {"time": 149999, "pitch": 66, "duration": 93, "velocity": 100}, {"time": 150239, "pitch": 59, "duration": 776, "velocity": 117}, {"time": 150239, "pitch": 62, "duration": 930, "velocity": 102}, {"time": 150239, "pitch": 66, "duration": 972, "velocity": 103}, {"time": 150239, "pitch": 69, "duration": 814, "velocity": 94}, {"time": 150246, "pitch": 43, "duration": 485, "velocity": 103}, {"time": 150965, "pitch": 43, "duration": 1863, "velocity": 100}, {"time": 151199, "pitch": 55, "duration": 1600, "velocity": 102}, {"time": 151437, "pitch": 59, "duration": 806, "velocity": 110}, {"time": 151689, "pitch": 62, "duration": 544, "velocity": 94}, {"time": 151915, "pitch": 66, "duration": 286, "velocity": 98}, {"time": 152152, "pitch": 69, "duration": 170, "velocity": 107}, {"time": 152635, "pitch": 66, "duration": 190, "velocity": 105}, {"time": 153117, "pitch": 66, "duration": 44, "velocity": 116}, {"time": 153117, "pitch": 73, "duration": 79, "velocity": 116}, {"time": 153118, "pitch": 69, "duration": 49, "velocity": 120}, {"time": 153128, "pitch": 43, "duration": 77, "velocity": 104}, {"time": 153364, "pitch": 66, "duration": 466, "velocity": 125}, {"time": 153368, "pitch": 43, "duration": 480, "velocity": 109}, {"time": 153368, "pitch": 73, "duration": 446, "velocity": 123}, {"time": 153370, "pitch": 69, "duration": 441, "velocity": 127}, {"time": 23281, "pitch": 78, "duration": 87, "velocity": 103}, {"time": 23518, "pitch": 71, "duration": 161, "velocity": 103}, {"time": 23760, "pitch": 71, "duration": 121, "velocity": 89}, {"time": 23890, "pitch": 74, "duration": 1091, "velocity": 100}, {"time": 25201, "pitch": 76, "duration": 91, "velocity": 103}, {"time": 25439, "pitch": 73, "duration": 289, "velocity": 107}, {"time": 25809, "pitch": 69, "duration": 314, "velocity": 94}, {"time": 26160, "pitch": 66, "duration": 757, "velocity": 100}, {"time": 27124, "pitch": 78, "duration": 90, "velocity": 100}, {"time": 27365, "pitch": 71, "duration": 156, "velocity": 91}, {"time": 27602, "pitch": 71, "duration": 107, "velocity": 92}, {"time": 27730, "pitch": 74, "duration": 802, "velocity": 98}, {"time": 28802, "pitch": 74, "duration": 100, "velocity": 107}, {"time": 28933, "pitch": 76, "duration": 98, "velocity": 88}, {"time": 29043, "pitch": 74, "duration": 164, "velocity": 75}, {"time": 29284, "pitch": 78, "duration": 262, "velocity": 103}, {"time": 29649, "pitch": 78, "duration": 1122, "velocity": 91}, {"time": 30962, "pitch": 78, "duration": 123, "velocity": 103}, {"time": 31203, "pitch": 71, "duration": 131, "velocity": 88}, {"time": 31445, "pitch": 71, "duration": 161, "velocity": 84}, {"time": 31574, "pitch": 74, "duration": 969, "velocity": 100}, {"time": 32640, "pitch": 74, "duration": 201, "velocity": 98}, {"time": 32881, "pitch": 76, "duration": 202, "velocity": 96}, {"time": 33123, "pitch": 73, "duration": 420, "velocity": 100}, {"time": 33604, "pitch": 69, "duration": 137, "velocity": 107}, {"time": 33732, "pitch": 66, "duration": 140, "velocity": 89}, {"time": 33969, "pitch": 74, "duration": 518, "velocity": 103}, {"time": 34561, "pitch": 71, "duration": 158, "velocity": 102}, {"time": 34801, "pitch": 73, "duration": 188, "velocity": 102}, {"time": 35041, "pitch": 74, "duration": 323, "velocity": 103}, {"time": 35413, "pitch": 76, "duration": 270, "velocity": 96}, {"time": 35760, "pitch": 78, "duration": 209, "velocity": 98}, {"time": 35997, "pitch": 76, "duration": 445, "velocity": 100}, {"time": 36479, "pitch": 73, "duration": 340, "velocity": 98}, {"time": 36850, "pitch": 71, "duration": 1146, "velocity": 92}, {"time": 38639, "pitch": 78, "duration": 149, "velocity": 110}, {"time": 38880, "pitch": 71, "duration": 116, "velocity": 83}, {"time": 39122, "pitch": 71, "duration": 149, "velocity": 83}, {"time": 39251, "pitch": 74, "duration": 923, "velocity": 96}, {"time": 40317, "pitch": 74, "duration": 165, "velocity": 103}, {"time": 40558, "pitch": 76, "duration": 218, "velocity": 94}, {"time": 40800, "pitch": 73, "duration": 297, "velocity": 98}, {"time": 41170, "pitch": 69, "duration": 334, "velocity": 87}, {"time": 41522, "pitch": 66, "duration": 850, "velocity": 94}, {"time": 42481, "pitch": 78, "duration": 141, "velocity": 105}, {"time": 42718, "pitch": 71, "duration": 113, "velocity": 88}, {"time": 42959, "pitch": 71, "duration": 122, "velocity": 73}, {"time": 43090, "pitch": 74, "duration": 923, "velocity": 88}, {"time": 44163, "pitch": 74, "duration": 96, "velocity": 102}, {"time": 44292, "pitch": 76, "duration": 60, "velocity": 100}, {"time": 44400, "pitch": 74, "duration": 58, "velocity": 91}, {"time": 44529, "pitch": 74, "duration": 59, "velocity": 94}, {"time": 44637, "pitch": 78, "duration": 287, "velocity": 96}, {"time": 45009, "pitch": 78, "duration": 1259, "velocity": 100}, {"time": 46324, "pitch": 78, "duration": 228, "velocity": 100}, {"time": 46564, "pitch": 71, "duration": 136, "velocity": 96}, {"time": 46802, "pitch": 71, "duration": 155, "velocity": 89}, {"time": 46930, "pitch": 74, "duration": 935, "velocity": 96}, {"time": 48002, "pitch": 74, "duration": 193, "velocity": 103}, {"time": 48243, "pitch": 76, "duration": 215, "velocity": 94}, {"time": 48485, "pitch": 73, "duration": 287, "velocity": 96}, {"time": 48849, "pitch": 73, "duration": 98, "velocity": 94}, {"time": 48958, "pitch": 69, "duration": 154, "velocity": 91}, {"time": 49088, "pitch": 66, "duration": 141, "velocity": 88}, {"time": 49329, "pitch": 74, "duration": 567, "velocity": 98}, {"time": 49922, "pitch": 71, "duration": 178, "velocity": 103}, {"time": 50162, "pitch": 73, "duration": 183, "velocity": 100}, {"time": 50403, "pitch": 74, "duration": 313, "velocity": 103}, {"time": 50774, "pitch": 76, "duration": 298, "velocity": 105}, {"time": 51122, "pitch": 78, "duration": 200, "velocity": 91}, {"time": 51359, "pitch": 76, "duration": 432, "velocity": 102}, {"time": 51840, "pitch": 73, "duration": 331, "velocity": 103}, {"time": 52212, "pitch": 71, "duration": 1227, "velocity": 103}, {"time": 54241, "pitch": 78, "duration": 65, "velocity": 117}, {"time": 54372, "pitch": 78, "duration": 49, "velocity": 107}, {"time": 54483, "pitch": 78, "duration": 62, "velocity": 96}, {"time": 54613, "pitch": 78, "duration": 118, "velocity": 103}, {"time": 55442, "pitch": 78, "duration": 426, "velocity": 110}, {"time": 55920, "pitch": 78, "duration": 372, "velocity": 107}, {"time": 56401, "pitch": 79, "duration": 188, "velocity": 110}, {"time": 56642, "pitch": 81, "duration": 219, "velocity": 107}, {"time": 56883, "pitch": 76, "duration": 433, "velocity": 105}, {"time": 57362, "pitch": 74, "duration": 387, "velocity": 105}, {"time": 57728, "pitch": 71, "duration": 111, "velocity": 96}, {"time": 57839, "pitch": 74, "duration": 171, "velocity": 100}, {"time": 58080, "pitch": 78, "duration": 172, "velocity": 105}, {"time": 58321, "pitch": 78, "duration": 59, "velocity": 98}, {"time": 58451, "pitch": 78, "duration": 708, "velocity": 100}, {"time": 59284, "pitch": 78, "duration": 458, "velocity": 100}, {"time": 59762, "pitch": 85, "duration": 381, "velocity": 110}, {"time": 60240, "pitch": 86, "duration": 191, "velocity": 114}, {"time": 60481, "pitch": 88, "duration": 166, "velocity": 103}, {"time": 60721, "pitch": 88, "duration": 399, "velocity": 96}, {"time": 61203, "pitch": 86, "duration": 774, "velocity": 105}, {"time": 61918, "pitch": 78, "duration": 55, "velocity": 102}, {"time": 62048, "pitch": 78, "duration": 64, "velocity": 91}, {"time": 62160, "pitch": 78, "duration": 55, "velocity": 83}, {"time": 62289, "pitch": 78, "duration": 1210, "velocity": 88}, {"time": 63600, "pitch": 78, "duration": 434, "velocity": 103}, {"time": 64078, "pitch": 79, "duration": 170, "velocity": 110}, {"time": 64319, "pitch": 81, "duration": 241, "velocity": 110}, {"time": 64560, "pitch": 76, "duration": 454, "velocity": 102}, {"time": 65043, "pitch": 74, "duration": 357, "velocity": 107}, {"time": 65413, "pitch": 71, "duration": 105, "velocity": 94}, {"time": 65523, "pitch": 74, "duration": 194, "velocity": 91}, {"time": 65764, "pitch": 78, "duration": 195, "velocity": 105}, {"time": 66001, "pitch": 78, "duration": 54, "velocity": 102}, {"time": 66130, "pitch": 78, "duration": 1558, "velocity": 100}, {"time": 69362, "pitch": 71, "duration": 39, "velocity": 94}, {"time": 69492, "pitch": 71, "duration": 97, "velocity": 94}, {"time": 69603, "pitch": 78, "duration": 194, "velocity": 102}, {"time": 69845, "pitch": 78, "duration": 87, "velocity": 100}, {"time": 69974, "pitch": 78, "duration": 1596, "velocity": 87}, {"time": 73200, "pitch": 71, "duration": 204, "velocity": 100}, {"time": 73441, "pitch": 78, "duration": 153, "velocity": 103}, {"time": 73682, "pitch": 78, "duration": 69, "velocity": 103}, {"time": 73812, "pitch": 78, "duration": 1481, "velocity": 102}, {"time": 77039, "pitch": 71, "duration": 25, "velocity": 94}, {"time": 77169, "pitch": 71, "duration": 111, "velocity": 98}, {"time": 77279, "pitch": 78, "duration": 246, "velocity": 107}, {"time": 77521, "pitch": 81, "duration": 136, "velocity": 103}, {"time": 77651, "pitch": 78, "duration": 1747, "velocity": 107}, {"time": 80881, "pitch": 78, "duration": 148, "velocity": 110}, {"time": 81118, "pitch": 71, "duration": 154, "velocity": 98}, {"time": 81359, "pitch": 71, "duration": 85, "velocity": 94}, {"time": 81489, "pitch": 74, "duration": 1029, "velocity": 103}, {"time": 82563, "pitch": 74, "duration": 228, "velocity": 96}, {"time": 82804, "pitch": 76, "duration": 200, "velocity": 98}, {"time": 83045, "pitch": 73, "duration": 340, "velocity": 103}, {"time": 83410, "pitch": 69, "duration": 307, "velocity": 103}, {"time": 83760, "pitch": 66, "duration": 805, "velocity": 110}, {"time": 84723, "pitch": 78, "duration": 138, "velocity": 107}, {"time": 84964, "pitch": 71, "duration": 116, "velocity": 102}, {"time": 85202, "pitch": 71, "duration": 96, "velocity": 100}, {"time": 85329, "pitch": 74, "duration": 980, "velocity": 103}, {"time": 86402, "pitch": 74, "duration": 91, "velocity": 96}, {"time": 86532, "pitch": 76, "duration": 96, "velocity": 94}, {"time": 86642, "pitch": 74, "duration": 204, "velocity": 94}, {"time": 86884, "pitch": 78, "duration": 323, "velocity": 107}, {"time": 87249, "pitch": 78, "duration": 1211, "velocity": 110}, {"time": 88562, "pitch": 78, "duration": 231, "velocity": 92}, {"time": 88802, "pitch": 71, "duration": 128, "velocity": 103}, {"time": 89043, "pitch": 71, "duration": 101, "velocity": 98}, {"time": 89174, "pitch": 74, "duration": 1024, "velocity": 102}, {"time": 90240, "pitch": 74, "duration": 191, "velocity": 103}, {"time": 90481, "pitch": 76, "duration": 234, "velocity": 96}, {"time": 90722, "pitch": 73, "duration": 304, "velocity": 107}, {"time": 91093, "pitch": 73, "duration": 86, "velocity": 96}, {"time": 91203, "pitch": 69, "duration": 128, "velocity": 103}, {"time": 91332, "pitch": 66, "duration": 164, "velocity": 83}, {"time": 91569, "pitch": 74, "duration": 556, "velocity": 105}, {"time": 92159, "pitch": 71, "duration": 214, "velocity": 100}, {"time": 92400, "pitch": 73, "duration": 224, "velocity": 110}, {"time": 92641, "pitch": 74, "duration": 332, "velocity": 105}, {"time": 93012, "pitch": 76, "duration": 305, "velocity": 100}, {"time": 93364, "pitch": 78, "duration": 270, "velocity": 102}, {"time": 93604, "pitch": 76, "duration": 448, "velocity": 112}, {"time": 94078, "pitch": 73, "duration": 338, "velocity": 107}, {"time": 94450, "pitch": 71, "duration": 1156, "velocity": 103}, {"time": 127202, "pitch": 78, "duration": 76, "velocity": 112}, {"time": 127333, "pitch": 78, "duration": 50, "velocity": 114}, {"time": 127443, "pitch": 78, "duration": 63, "velocity": 98}, {"time": 127573, "pitch": 78, "duration": 1230, "velocity": 105}, {"time": 128880, "pitch": 78, "duration": 456, "velocity": 100}, {"time": 129362, "pitch": 79, "duration": 188, "velocity": 112}, {"time": 129603, "pitch": 81, "duration": 262, "velocity": 103}, {"time": 129844, "pitch": 76, "duration": 455, "velocity": 105}, {"time": 130322, "pitch": 74, "duration": 364, "velocity": 103}, {"time": 130689, "pitch": 71, "duration": 22, "velocity": 91}, {"time": 130800, "pitch": 71, "duration": 70, "velocity": 94}, {"time": 130800, "pitch": 74, "duration": 164, "velocity": 102}, {"time": 131040, "pitch": 78, "duration": 93, "velocity": 110}, {"time": 131171, "pitch": 78, "duration": 56, "velocity": 107}, {"time": 131282, "pitch": 78, "duration": 74, "velocity": 107}, {"time": 131412, "pitch": 78, "duration": 1211, "velocity": 105}, {"time": 132719, "pitch": 85, "duration": 455, "velocity": 114}, {"time": 133201, "pitch": 86, "duration": 190, "velocity": 110}, {"time": 133441, "pitch": 88, "duration": 170, "velocity": 102}, {"time": 133682, "pitch": 88, "duration": 435, "velocity": 92}, {"time": 134161, "pitch": 86, "duration": 718, "velocity": 107}, {"time": 134879, "pitch": 78, "duration": 55, "velocity": 103}, {"time": 135009, "pitch": 78, "duration": 61, "velocity": 88}, {"time": 135120, "pitch": 78, "duration": 55, "velocity": 100}, {"time": 135250, "pitch": 78, "duration": 1268, "velocity": 94}, {"time": 136561, "pitch": 78, "duration": 424, "velocity": 100}, {"time": 137039, "pitch": 79, "duration": 212, "velocity": 114}, {"time": 137280, "pitch": 81, "duration": 253, "velocity": 107}, {"time": 137521, "pitch": 76, "duration": 511, "velocity": 105}, {"time": 138002, "pitch": 74, "duration": 323, "velocity": 105}, {"time": 138372, "pitch": 71, "duration": 93, "velocity": 94}, {"time": 138480, "pitch": 74, "duration": 190, "velocity": 88}, {"time": 138717, "pitch": 78, "duration": 178, "velocity": 105}, {"time": 138959, "pitch": 78, "duration": 80, "velocity": 105}, {"time": 139089, "pitch": 78, "duration": 1632, "velocity": 112}, {"time": 142323, "pitch": 71, "duration": 24, "velocity": 96}, {"time": 142453, "pitch": 71, "duration": 69, "velocity": 88}, {"time": 142563, "pitch": 78, "duration": 189, "velocity": 100}, {"time": 142800, "pitch": 78, "duration": 76, "velocity": 103}, {"time": 142929, "pitch": 78, "duration": 1539, "velocity": 107}, {"time": 146161, "pitch": 71, "duration": 26, "velocity": 91}, {"time": 146292, "pitch": 71, "duration": 64, "velocity": 88}, {"time": 146402, "pitch": 78, "duration": 186, "velocity": 103}, {"time": 146644, "pitch": 78, "duration": 87, "velocity": 103}, {"time": 146773, "pitch": 78, "duration": 1480, "velocity": 103}, {"time": 149999, "pitch": 71, "duration": 33, "velocity": 100}, {"time": 150130, "pitch": 71, "duration": 91, "velocity": 100}, {"time": 150240, "pitch": 78, "duration": 236, "velocity": 103}, {"time": 150481, "pitch": 81, "duration": 137, "velocity": 107}, {"time": 150612, "pitch": 78, "duration": 1525, "velocity": 112}, {"time": 8403, "pitch": 71, "duration": 136, "velocity": 88}, {"time": 8403, "pitch": 74, "duration": 130, "velocity": 85}, {"time": 8403, "pitch": 78, "duration": 119, "velocity": 85}, {"time": 8530, "pitch": 67, "duration": 32, "velocity": 82}, {"time": 8639, "pitch": 67, "duration": 155, "velocity": 77}, {"time": 8769, "pitch": 71, "duration": 28, "velocity": 84}, {"time": 8769, "pitch": 74, "duration": 26, "velocity": 88}, {"time": 8769, "pitch": 78, "duration": 29, "velocity": 72}, {"time": 9010, "pitch": 67, "duration": 30, "velocity": 84}, {"time": 9121, "pitch": 71, "duration": 25, "velocity": 88}, {"time": 9121, "pitch": 74, "duration": 25, "velocity": 88}, {"time": 9121, "pitch": 78, "duration": 33, "velocity": 63}, {"time": 9361, "pitch": 71, "duration": 245, "velocity": 86}, {"time": 9361, "pitch": 74, "duration": 242, "velocity": 85}, {"time": 9361, "pitch": 78, "duration": 227, "velocity": 75}, {"time": 9602, "pitch": 67, "duration": 30, "velocity": 74}, {"time": 9733, "pitch": 71, "duration": 339, "velocity": 86}, {"time": 9733, "pitch": 74, "duration": 296, "velocity": 86}, {"time": 9733, "pitch": 78, "duration": 298, "velocity": 75}, {"time": 10321, "pitch": 69, "duration": 151, "velocity": 86}, {"time": 10321, "pitch": 73, "duration": 142, "velocity": 83}, {"time": 10321, "pitch": 76, "duration": 147, "velocity": 76}, {"time": 10449, "pitch": 66, "duration": 32, "velocity": 57}, {"time": 10558, "pitch": 66, "duration": 78, "velocity": 87}, {"time": 10688, "pitch": 69, "duration": 28, "velocity": 83}, {"time": 10688, "pitch": 73, "duration": 35, "velocity": 81}, {"time": 10688, "pitch": 76, "duration": 33, "velocity": 73}, {"time": 10929, "pitch": 66, "duration": 31, "velocity": 80}, {"time": 11040, "pitch": 69, "duration": 31, "velocity": 71}, {"time": 11040, "pitch": 73, "duration": 34, "velocity": 81}, {"time": 11040, "pitch": 76, "duration": 33, "velocity": 68}, {"time": 11282, "pitch": 69, "duration": 229, "velocity": 86}, {"time": 11282, "pitch": 73, "duration": 232, "velocity": 86}, {"time": 11282, "pitch": 76, "duration": 223, "velocity": 75}, {"time": 11522, "pitch": 66, "duration": 33, "velocity": 84}, {"time": 11652, "pitch": 69, "duration": 323, "velocity": 87}, {"time": 11652, "pitch": 73, "duration": 320, "velocity": 83}, {"time": 11652, "pitch": 76, "duration": 356, "velocity": 72}, {"time": 12240, "pitch": 71, "duration": 79, "velocity": 92}, {"time": 12240, "pitch": 74, "duration": 37, "velocity": 87}, {"time": 12240, "pitch": 78, "duration": 95, "velocity": 87}, {"time": 12369, "pitch": 67, "duration": 27, "velocity": 81}, {"time": 12477, "pitch": 67, "duration": 69, "velocity": 100}, {"time": 12608, "pitch": 71, "duration": 73, "velocity": 84}, {"time": 12608, "pitch": 74, "duration": 66, "velocity": 87}, {"time": 12608, "pitch": 78, "duration": 31, "velocity": 81}, {"time": 12848, "pitch": 67, "duration": 27, "velocity": 91}, {"time": 12959, "pitch": 71, "duration": 25, "velocity": 89}, {"time": 12959, "pitch": 74, "duration": 25, "velocity": 88}, {"time": 12959, "pitch": 78, "duration": 29, "velocity": 79}, {"time": 13200, "pitch": 71, "duration": 229, "velocity": 92}, {"time": 13200, "pitch": 74, "duration": 237, "velocity": 86}, {"time": 13200, "pitch": 78, "duration": 223, "velocity": 79}, {"time": 13441, "pitch": 67, "duration": 71, "velocity": 103}, {"time": 13571, "pitch": 71, "duration": 315, "velocity": 86}, {"time": 13571, "pitch": 74, "duration": 273, "velocity": 85}, {"time": 13571, "pitch": 78, "duration": 290, "velocity": 76}, {"time": 14163, "pitch": 69, "duration": 128, "velocity": 96}, {"time": 14163, "pitch": 73, "duration": 144, "velocity": 100}, {"time": 14163, "pitch": 76, "duration": 133, "velocity": 94}, {"time": 14294, "pitch": 66, "duration": 25, "velocity": 91}, {"time": 14404, "pitch": 66, "duration": 63, "velocity": 96}, {"time": 14532, "pitch": 69, "duration": 25, "velocity": 86}, {"time": 14532, "pitch": 73, "duration": 25, "velocity": 86}, {"time": 14641, "pitch": 76, "duration": 28, "velocity": 73}, {"time": 14769, "pitch": 66, "duration": 30, "velocity": 76}, {"time": 14878, "pitch": 69, "duration": 24, "velocity": 89}, {"time": 14878, "pitch": 73, "duration": 23, "velocity": 92}, {"time": 14878, "pitch": 76, "duration": 27, "velocity": 85}, {"time": 15119, "pitch": 69, "duration": 211, "velocity": 91}, {"time": 15119, "pitch": 73, "duration": 242, "velocity": 91}, {"time": 15119, "pitch": 76, "duration": 233, "velocity": 87}, {"time": 15360, "pitch": 66, "duration": 66, "velocity": 92}, {"time": 15490, "pitch": 69, "duration": 337, "velocity": 84}, {"time": 15490, "pitch": 73, "duration": 347, "velocity": 83}, {"time": 15490, "pitch": 76, "duration": 368, "velocity": 71}, {"time": 16084, "pitch": 71, "duration": 123, "velocity": 85}, {"time": 16084, "pitch": 74, "duration": 128, "velocity": 84}, {"time": 16084, "pitch": 78, "duration": 128, "velocity": 72}, {"time": 16323, "pitch": 67, "duration": 32, "velocity": 71}, {"time": 16323, "pitch": 67, "duration": 32, "velocity": 98}, {"time": 16452, "pitch": 71, "duration": 30, "velocity": 86}, {"time": 16452, "pitch": 74, "duration": 25, "velocity": 89}, {"time": 16560, "pitch": 78, "duration": 29, "velocity": 81}, {"time": 16689, "pitch": 67, "duration": 25, "velocity": 88}, {"time": 16797, "pitch": 71, "duration": 28, "velocity": 87}, {"time": 16797, "pitch": 74, "duration": 48, "velocity": 88}, {"time": 16797, "pitch": 78, "duration": 29, "velocity": 73}, {"time": 17038, "pitch": 71, "duration": 194, "velocity": 85}, {"time": 17038, "pitch": 74, "duration": 210, "velocity": 91}, {"time": 17038, "pitch": 78, "duration": 201, "velocity": 77}, {"time": 17279, "pitch": 67, "duration": 29, "velocity": 94}, {"time": 17410, "pitch": 71, "duration": 283, "velocity": 72}, {"time": 17410, "pitch": 74, "duration": 269, "velocity": 80}, {"time": 17410, "pitch": 78, "duration": 285, "velocity": 66}, {"time": 18002, "pitch": 69, "duration": 90, "velocity": 88}, {"time": 18002, "pitch": 73, "duration": 109, "velocity": 89}, {"time": 18002, "pitch": 76, "duration": 112, "velocity": 85}, {"time": 18132, "pitch": 66, "duration": 25, "velocity": 81}, {"time": 18243, "pitch": 66, "duration": 44, "velocity": 89}, {"time": 18373, "pitch": 69, "duration": 27, "velocity": 89}, {"time": 18373, "pitch": 73, "duration": 46, "velocity": 87}, {"time": 18373, "pitch": 76, "duration": 27, "velocity": 76}, {"time": 18614, "pitch": 66, "duration": 32, "velocity": 62}, {"time": 18724, "pitch": 69, "duration": 27, "velocity": 86}, {"time": 18724, "pitch": 73, "duration": 27, "velocity": 86}, {"time": 18724, "pitch": 76, "duration": 29, "velocity": 73}, {"time": 18962, "pitch": 69, "duration": 215, "velocity": 86}, {"time": 18962, "pitch": 73, "duration": 234, "velocity": 86}, {"time": 18962, "pitch": 76, "duration": 219, "velocity": 75}, {"time": 19199, "pitch": 66, "duration": 70, "velocity": 91}, {"time": 19329, "pitch": 69, "duration": 228, "velocity": 84}, {"time": 19329, "pitch": 73, "duration": 223, "velocity": 81}, {"time": 19329, "pitch": 76, "duration": 235, "velocity": 72}, {"time": 19570, "pitch": 66, "duration": 28, "velocity": 91}, {"time": 19921, "pitch": 71, "duration": 153, "velocity": 89}, {"time": 19921, "pitch": 74, "duration": 141, "velocity": 91}, {"time": 19921, "pitch": 78, "duration": 143, "velocity": 86}, {"time": 20051, "pitch": 67, "duration": 31, "velocity": 75}, {"time": 20162, "pitch": 67, "duration": 75, "velocity": 88}, {"time": 20292, "pitch": 71, "duration": 25, "velocity": 89}, {"time": 20292, "pitch": 74, "duration": 25, "velocity": 88}, {"time": 20292, "pitch": 78, "duration": 27, "velocity": 84}, {"time": 20533, "pitch": 67, "duration": 30, "velocity": 82}, {"time": 20643, "pitch": 71, "duration": 22, "velocity": 88}, {"time": 20643, "pitch": 74, "duration": 21, "velocity": 89}, {"time": 20643, "pitch": 78, "duration": 27, "velocity": 83}, {"time": 20880, "pitch": 71, "duration": 209, "velocity": 88}, {"time": 20880, "pitch": 74, "duration": 231, "velocity": 89}, {"time": 20880, "pitch": 78, "duration": 188, "velocity": 85}, {"time": 21117, "pitch": 67, "duration": 30, "velocity": 86}, {"time": 21248, "pitch": 71, "duration": 208, "velocity": 88}, {"time": 21248, "pitch": 74, "duration": 223, "velocity": 91}, {"time": 21358, "pitch": 78, "duration": 31, "velocity": 27}, {"time": 21358, "pitch": 78, "duration": 31, "velocity": 81}, {"time": 21489, "pitch": 67, "duration": 25, "velocity": 96}, {"time": 21849, "pitch": 84, "duration": 88, "velocity": 102}, {"time": 21861, "pitch": 81, "duration": 245, "velocity": 96}, {"time": 21869, "pitch": 85, "duration": 295, "velocity": 86}, {"time": 21874, "pitch": 78, "duration": 251, "velocity": 102}, {"time": 22206, "pitch": 81, "duration": 271, "velocity": 94}, {"time": 22210, "pitch": 74, "duration": 272, "velocity": 94}, {"time": 22215, "pitch": 78, "duration": 262, "velocity": 85}, {"time": 22578, "pitch": 71, "duration": 79, "velocity": 96}, {"time": 22585, "pitch": 73, "duration": 46, "velocity": 103}, {"time": 22585, "pitch": 78, "duration": 67, "velocity": 87}, {"time": 22592, "pitch": 74, "duration": 17, "velocity": 105}, {"time": 22604, "pitch": 77, "duration": 30, "velocity": 56}, {"time": 22817, "pitch": 78, "duration": 679, "velocity": 107}, {"time": 22824, "pitch": 74, "duration": 692, "velocity": 100}, {"time": 22831, "pitch": 71, "duration": 694, "velocity": 105}, {"time": 39122, "pitch": 71, "duration": 138, "velocity": 88}, {"time": 39122, "pitch": 74, "duration": 132, "velocity": 85}, {"time": 39122, "pitch": 78, "duration": 121, "velocity": 85}, {"time": 39251, "pitch": 67, "duration": 32, "velocity": 82}, {"time": 39362, "pitch": 67, "duration": 155, "velocity": 77}, {"time": 39492, "pitch": 71, "duration": 28, "velocity": 84}, {"time": 39492, "pitch": 74, "duration": 26, "velocity": 88}, {"time": 39492, "pitch": 78, "duration": 29, "velocity": 72}, {"time": 39733, "pitch": 67, "duration": 30, "velocity": 84}, {"time": 39843, "pitch": 71, "duration": 25, "velocity": 88}, {"time": 39843, "pitch": 74, "duration": 25, "velocity": 88}, {"time": 39843, "pitch": 78, "duration": 33, "velocity": 63}, {"time": 40080, "pitch": 71, "duration": 241, "velocity": 86}, {"time": 40080, "pitch": 74, "duration": 238, "velocity": 85}, {"time": 40080, "pitch": 78, "duration": 223, "velocity": 75}, {"time": 40317, "pitch": 67, "duration": 30, "velocity": 74}, {"time": 40448, "pitch": 71, "duration": 339, "velocity": 86}, {"time": 40448, "pitch": 74, "duration": 296, "velocity": 86}, {"time": 40448, "pitch": 78, "duration": 298, "velocity": 75}, {"time": 41040, "pitch": 69, "duration": 153, "velocity": 86}, {"time": 41040, "pitch": 73, "duration": 144, "velocity": 83}, {"time": 41040, "pitch": 76, "duration": 149, "velocity": 76}, {"time": 41170, "pitch": 66, "duration": 32, "velocity": 57}, {"time": 41281, "pitch": 66, "duration": 78, "velocity": 87}, {"time": 41411, "pitch": 69, "duration": 27, "velocity": 83}, {"time": 41411, "pitch": 73, "duration": 34, "velocity": 81}, {"time": 41411, "pitch": 76, "duration": 32, "velocity": 73}, {"time": 41652, "pitch": 66, "duration": 31, "velocity": 80}, {"time": 41763, "pitch": 69, "duration": 31, "velocity": 71}, {"time": 41763, "pitch": 73, "duration": 34, "velocity": 81}, {"time": 41763, "pitch": 76, "duration": 33, "velocity": 68}, {"time": 42004, "pitch": 69, "duration": 230, "velocity": 86}, {"time": 42004, "pitch": 73, "duration": 233, "velocity": 86}, {"time": 42004, "pitch": 76, "duration": 224, "velocity": 75}, {"time": 42245, "pitch": 66, "duration": 32, "velocity": 84}, {"time": 42373, "pitch": 69, "duration": 318, "velocity": 87}, {"time": 42373, "pitch": 73, "duration": 315, "velocity": 83}, {"time": 42373, "pitch": 76, "duration": 350, "velocity": 72}, {"time": 42959, "pitch": 71, "duration": 80, "velocity": 92}, {"time": 42959, "pitch": 74, "duration": 37, "velocity": 87}, {"time": 42959, "pitch": 78, "duration": 96, "velocity": 87}, {"time": 43090, "pitch": 67, "duration": 28, "velocity": 81}, {"time": 43200, "pitch": 67, "duration": 69, "velocity": 100}, {"time": 43330, "pitch": 71, "duration": 74, "velocity": 84}, {"time": 43330, "pitch": 74, "duration": 67, "velocity": 87}, {"time": 43330, "pitch": 78, "duration": 32, "velocity": 81}, {"time": 43571, "pitch": 67, "duration": 26, "velocity": 91}, {"time": 43682, "pitch": 71, "duration": 25, "velocity": 89}, {"time": 43682, "pitch": 74, "duration": 25, "velocity": 88}, {"time": 43682, "pitch": 78, "duration": 29, "velocity": 79}, {"time": 43923, "pitch": 71, "duration": 228, "velocity": 92}, {"time": 43923, "pitch": 74, "duration": 236, "velocity": 86}, {"time": 43923, "pitch": 78, "duration": 222, "velocity": 79}, {"time": 44163, "pitch": 67, "duration": 71, "velocity": 103}, {"time": 44292, "pitch": 71, "duration": 310, "velocity": 86}, {"time": 44292, "pitch": 74, "duration": 268, "velocity": 85}, {"time": 44292, "pitch": 78, "duration": 285, "velocity": 76}, {"time": 44878, "pitch": 69, "duration": 128, "velocity": 96}, {"time": 44878, "pitch": 73, "duration": 144, "velocity": 100}, {"time": 44878, "pitch": 76, "duration": 133, "velocity": 94}, {"time": 45009, "pitch": 66, "duration": 25, "velocity": 91}, {"time": 45119, "pitch": 66, "duration": 64, "velocity": 96}, {"time": 45250, "pitch": 69, "duration": 25, "velocity": 86}, {"time": 45250, "pitch": 73, "duration": 25, "velocity": 86}, {"time": 45360, "pitch": 76, "duration": 28, "velocity": 73}, {"time": 45491, "pitch": 66, "duration": 30, "velocity": 76}, {"time": 45601, "pitch": 69, "duration": 24, "velocity": 89}, {"time": 45601, "pitch": 73, "duration": 23, "velocity": 92}, {"time": 45601, "pitch": 76, "duration": 27, "velocity": 85}, {"time": 45842, "pitch": 69, "duration": 211, "velocity": 91}, {"time": 45842, "pitch": 73, "duration": 242, "velocity": 91}, {"time": 45842, "pitch": 76, "duration": 233, "velocity": 87}, {"time": 46083, "pitch": 66, "duration": 66, "velocity": 92}, {"time": 46213, "pitch": 69, "duration": 336, "velocity": 84}, {"time": 46213, "pitch": 73, "duration": 346, "velocity": 83}, {"time": 46213, "pitch": 76, "duration": 367, "velocity": 71}, {"time": 46802, "pitch": 71, "duration": 122, "velocity": 85}, {"time": 46802, "pitch": 74, "duration": 127, "velocity": 84}, {"time": 46802, "pitch": 78, "duration": 127, "velocity": 72}, {"time": 47038, "pitch": 67, "duration": 32, "velocity": 71}, {"time": 47038, "pitch": 67, "duration": 32, "velocity": 98}, {"time": 47169, "pitch": 71, "duration": 31, "velocity": 86}, {"time": 47169, "pitch": 74, "duration": 26, "velocity": 89}, {"time": 47279, "pitch": 78, "duration": 29, "velocity": 81}, {"time": 47410, "pitch": 67, "duration": 26, "velocity": 88}, {"time": 47520, "pitch": 71, "duration": 28, "velocity": 87}, {"time": 47520, "pitch": 74, "duration": 48, "velocity": 88}, {"time": 47520, "pitch": 78, "duration": 29, "velocity": 73}, {"time": 47761, "pitch": 71, "duration": 194, "velocity": 85}, {"time": 47761, "pitch": 74, "duration": 210, "velocity": 91}, {"time": 47761, "pitch": 78, "duration": 201, "velocity": 77}, {"time": 48002, "pitch": 67, "duration": 29, "velocity": 94}, {"time": 48132, "pitch": 71, "duration": 283, "velocity": 72}, {"time": 48132, "pitch": 74, "duration": 269, "velocity": 80}, {"time": 48132, "pitch": 78, "duration": 285, "velocity": 66}, {"time": 48721, "pitch": 73, "duration": 166, "velocity": 100}, {"time": 48721, "pitch": 76, "duration": 179, "velocity": 103}, {"time": 48849, "pitch": 69, "duration": 27, "velocity": 88}, {"time": 48958, "pitch": 69, "duration": 75, "velocity": 89}, {"time": 49088, "pitch": 73, "duration": 24, "velocity": 86}, {"time": 49088, "pitch": 76, "duration": 29, "velocity": 94}, {"time": 49329, "pitch": 69, "duration": 28, "velocity": 81}, {"time": 49439, "pitch": 72, "duration": 71, "velocity": 98}, {"time": 49439, "pitch": 75, "duration": 69, "velocity": 86}, {"time": 49439, "pitch": 79, "duration": 29, "velocity": 84}, {"time": 49681, "pitch": 72, "duration": 243, "velocity": 98}, {"time": 49681, "pitch": 75, "duration": 242, "velocity": 87}, {"time": 49681, "pitch": 79, "duration": 218, "velocity": 98}, {"time": 49922, "pitch": 69, "duration": 24, "velocity": 85}, {"time": 50052, "pitch": 72, "duration": 231, "velocity": 98}, {"time": 50052, "pitch": 75, "duration": 227, "velocity": 89}, {"time": 50052, "pitch": 79, "duration": 215, "velocity": 96}, {"time": 50292, "pitch": 69, "duration": 21, "velocity": 92}, {"time": 50641, "pitch": 71, "duration": 139, "velocity": 94}, {"time": 50641, "pitch": 74, "duration": 116, "velocity": 98}, {"time": 50645, "pitch": 78, "duration": 97, "velocity": 89}, {"time": 50793, "pitch": 67, "duration": 41, "velocity": 62}, {"time": 50861, "pitch": 67, "duration": 69, "velocity": 41}, {"time": 50995, "pitch": 71, "duration": 50, "velocity": 94}, {"time": 50995, "pitch": 74, "duration": 27, "velocity": 91}, {"time": 50998, "pitch": 78, "duration": 29, "velocity": 87}, {"time": 51237, "pitch": 67, "duration": 25, "velocity": 88}, {"time": 51339, "pitch": 69, "duration": 30, "velocity": 91}, {"time": 51339, "pitch": 73, "duration": 27, "velocity": 91}, {"time": 51343, "pitch": 76, "duration": 29, "velocity": 86}, {"time": 51582, "pitch": 73, "duration": 239, "velocity": 94}, {"time": 51584, "pitch": 69, "duration": 234, "velocity": 96}, {"time": 51591, "pitch": 76, "duration": 227, "velocity": 86}, {"time": 51863, "pitch": 66, "duration": 34, "velocity": 58}, {"time": 51992, "pitch": 73, "duration": 256, "velocity": 94}, {"time": 51993, "pitch": 69, "duration": 255, "velocity": 98}, {"time": 51999, "pitch": 76, "duration": 278, "velocity": 85}, {"time": 52245, "pitch": 66, "duration": 24, "velocity": 84}, {"time": 52573, "pitch": 69, "duration": 59, "velocity": 102}, {"time": 52573, "pitch": 74, "duration": 55, "velocity": 100}, {"time": 52577, "pitch": 73, "duration": 30, "velocity": 80}, {"time": 52577, "pitch": 78, "duration": 48, "velocity": 92}, {"time": 52589, "pitch": 71, "duration": 31, "velocity": 63}, {"time": 52916, "pitch": 72, "duration": 289, "velocity": 96}, {"time": 52924, "pitch": 76, "duration": 278, "velocity": 100}, {"time": 52926, "pitch": 69, "duration": 18, "velocity": 98}, {"time": 52929, "pitch": 67, "duration": 289, "velocity": 105}, {"time": 53258, "pitch": 78, "duration": 136, "velocity": 102}, {"time": 53262, "pitch": 69, "duration": 122, "velocity": 100}, {"time": 53264, "pitch": 74, "duration": 104, "velocity": 107}, {"time": 53276, "pitch": 73, "duration": 92, "velocity": 107}, {"time": 53942, "pitch": 54, "duration": 28, "velocity": 67}, {"time": 53943, "pitch": 55, "duration": 42, "velocity": 80}, {"time": 53945, "pitch": 59, "duration": 22, "velocity": 91}, {"time": 53947, "pitch": 52, "duration": 33, "velocity": 54}, {"time": 53951, "pitch": 57, "duration": 34, "velocity": 63}, {"time": 53973, "pitch": 61, "duration": 57, "velocity": 60}, {"time": 53988, "pitch": 59, "duration": 26, "velocity": 77}, {"time": 53998, "pitch": 62, "duration": 29, "velocity": 61}, {"time": 54004, "pitch": 64, "duration": 37, "velocity": 79}, {"time": 54011, "pitch": 66, "duration": 49, "velocity": 75}, {"time": 54018, "pitch": 67, "duration": 52, "velocity": 85}, {"time": 54024, "pitch": 69, "duration": 51, "velocity": 86}, {"time": 54035, "pitch": 71, "duration": 55, "velocity": 81}, {"time": 54048, "pitch": 73, "duration": 52, "velocity": 84}, {"time": 54065, "pitch": 74, "duration": 33, "velocity": 79}, {"time": 54078, "pitch": 76, "duration": 29, "velocity": 76}, {"time": 54090, "pitch": 78, "duration": 23, "velocity": 88}, {"time": 54107, "pitch": 79, "duration": 24, "velocity": 98}, {"time": 54128, "pitch": 81, "duration": 27, "velocity": 84}, {"time": 54164, "pitch": 83, "duration": 25, "velocity": 42}, {"time": 54207, "pitch": 79, "duration": 5477, "velocity": 82}, {"time": 54214, "pitch": 83, "duration": 5470, "velocity": 98}, {"time": 54216, "pitch": 86, "duration": 5532, "velocity": 101}, {"time": 54235, "pitch": 90, "duration": 15313, "velocity": 83}, {"time": 54241, "pitch": 88, "duration": 39, "velocity": 56}, {"time": 59760, "pitch": 85, "duration": 2171, "velocity": 92}, {"time": 59764, "pitch": 81, "duration": 2078, "velocity": 97}, {"time": 59771, "pitch": 78, "duration": 2150, "velocity": 93}, {"time": 61910, "pitch": 83, "duration": 3799, "velocity": 97}, {"time": 61910, "pitch": 86, "duration": 3802, "velocity": 92}, {"time": 61921, "pitch": 79, "duration": 3804, "velocity": 94}, {"time": 65754, "pitch": 87, "duration": 3799, "velocity": 85}, {"time": 65757, "pitch": 80, "duration": 3842, "velocity": 92}, {"time": 65759, "pitch": 83, "duration": 14263, "velocity": 97}, {"time": 69596, "pitch": 86, "duration": 3814, "velocity": 94}, {"time": 69604, "pitch": 79, "duration": 3832, "velocity": 94}, {"time": 69623, "pitch": 93, "duration": 3768, "velocity": 73}, {"time": 73433, "pitch": 90, "duration": 6646, "velocity": 75}, {"time": 73439, "pitch": 80, "duration": 3847, "velocity": 80}, {"time": 73439, "pitch": 87, "duration": 3818, "velocity": 80}, {"time": 77257, "pitch": 86, "duration": 2801, "velocity": 85}, {"time": 77269, "pitch": 79, "duration": 2797, "velocity": 93}, {"time": 80087, "pitch": 83, "duration": 151, "velocity": 85}, {"time": 80150, "pitch": 86, "duration": 99, "velocity": 75}, {"time": 80158, "pitch": 79, "duration": 94, "velocity": 80}, {"time": 80171, "pitch": 90, "duration": 73, "velocity": 76}, {"time": 80201, "pitch": 93, "duration": 59, "velocity": 81}, {"time": 80398, "pitch": 83, "duration": 717, "velocity": 92}, {"time": 80399, "pitch": 86, "duration": 709, "velocity": 92}, {"time": 80402, "pitch": 90, "duration": 699, "velocity": 79}, {"time": 80404, "pitch": 93, "duration": 707, "velocity": 84}, {"time": 80405, "pitch": 79, "duration": 719, "velocity": 92}, {"time": 126732, "pitch": 45, "duration": 20, "velocity": 80}, {"time": 126739, "pitch": 47, "duration": 44, "velocity": 92}, {"time": 126752, "pitch": 49, "duration": 54, "velocity": 72}, {"time": 126771, "pitch": 50, "duration": 54, "velocity": 59}, {"time": 126798, "pitch": 52, "duration": 47, "velocity": 66}, {"time": 126813, "pitch": 54, "duration": 47, "velocity": 79}, {"time": 126829, "pitch": 55, "duration": 47, "velocity": 84}, {"time": 126845, "pitch": 57, "duration": 45, "velocity": 73}, {"time": 126863, "pitch": 59, "duration": 51, "velocity": 68}, {"time": 126882, "pitch": 61, "duration": 52, "velocity": 68}, {"time": 126901, "pitch": 62, "duration": 52, "velocity": 84}, {"time": 126918, "pitch": 64, "duration": 47, "velocity": 88}, {"time": 126937, "pitch": 66, "duration": 56, "velocity": 84}, {"time": 126961, "pitch": 67, "duration": 57, "velocity": 88}, {"time": 126982, "pitch": 69, "duration": 55, "velocity": 84}, {"time": 127005, "pitch": 71, "duration": 59, "velocity": 75}, {"time": 127029, "pitch": 73, "duration": 64, "velocity": 79}, {"time": 127060, "pitch": 74, "duration": 18, "velocity": 81}, {"time": 127086, "pitch": 76, "duration": 57, "velocity": 73}, {"time": 127096, "pitch": 74, "duration": 30, "velocity": 58}, {"time": 127111, "pitch": 78, "duration": 70, "velocity": 80}, {"time": 127143, "pitch": 79, "duration": 69, "velocity": 81}, {"time": 127175, "pitch": 81, "duration": 24, "velocity": 68}, {"time": 127175, "pitch": 83, "duration": 5465, "velocity": 94}, {"time": 127177, "pitch": 86, "duration": 5528, "velocity": 96}, {"time": 127196, "pitch": 90, "duration": 15313, "velocity": 80}, {"time": 127202, "pitch": 88, "duration": 39, "velocity": 53}, {"time": 132717, "pitch": 85, "duration": 2175, "velocity": 92}, {"time": 132721, "pitch": 81, "duration": 2081, "velocity": 97}, {"time": 132728, "pitch": 78, "duration": 2154, "velocity": 93}, {"time": 134871, "pitch": 83, "duration": 3792, "velocity": 97}, {"time": 134871, "pitch": 86, "duration": 3795, "velocity": 92}, {"time": 134882, "pitch": 79, "duration": 3797, "velocity": 94}, {"time": 138707, "pitch": 87, "duration": 3807, "velocity": 85}, {"time": 138710, "pitch": 80, "duration": 3850, "velocity": 92}, {"time": 138712, "pitch": 83, "duration": 14271, "velocity": 97}, {"time": 142556, "pitch": 86, "duration": 3815, "velocity": 94}, {"time": 142564, "pitch": 79, "duration": 3833, "velocity": 94}, {"time": 142583, "pitch": 93, "duration": 3769, "velocity": 73}, {"time": 146394, "pitch": 90, "duration": 6646, "velocity": 75}, {"time": 146400, "pitch": 80, "duration": 3847, "velocity": 80}, {"time": 146400, "pitch": 87, "duration": 3818, "velocity": 80}, {"time": 150218, "pitch": 86, "duration": 2801, "velocity": 85}, {"time": 150230, "pitch": 79, "duration": 2797, "velocity": 93}, {"time": 153048, "pitch": 83, "duration": 151, "velocity": 85}, {"time": 153111, "pitch": 86, "duration": 99, "velocity": 75}, {"time": 153119, "pitch": 79, "duration": 94, "velocity": 80}, {"time": 153132, "pitch": 90, "duration": 73, "velocity": 76}, {"time": 153162, "pitch": 93, "duration": 58, "velocity": 81}, {"time": 153359, "pitch": 83, "duration": 4532, "velocity": 92}, {"time": 153360, "pitch": 86, "duration": 4524, "velocity": 92}, {"time": 153363, "pitch": 90, "duration": 4514, "velocity": 79}, {"time": 153365, "pitch": 93, "duration": 4522, "velocity": 84}, {"time": 153366, "pitch": 79, "duration": 4534, "velocity": 92}, {"time": 38880, "pitch": 67, "duration": 1899, "velocity": 82}, {"time": 38880, "pitch": 71, "duration": 1916, "velocity": 87}, {"time": 40800, "pitch": 69, "duration": 1909, "velocity": 61}, {"time": 40800, "pitch": 73, "duration": 1908, "velocity": 77}, {"time": 42718, "pitch": 71, "duration": 1899, "velocity": 87}, {"time": 42718, "pitch": 74, "duration": 1912, "velocity": 91}, {"time": 44637, "pitch": 69, "duration": 1945, "velocity": 74}, {"time": 44637, "pitch": 73, "duration": 1966, "velocity": 100}, {"time": 46564, "pitch": 67, "duration": 1878, "velocity": 87}, {"time": 46564, "pitch": 71, "duration": 1915, "velocity": 86}, {"time": 48485, "pitch": 69, "duration": 1928, "velocity": 82}, {"time": 48485, "pitch": 73, "duration": 952, "velocity": 88}, {"time": 49439, "pitch": 72, "duration": 1027, "velocity": 87}, {"time": 49439, "pitch": 75, "duration": 982, "velocity": 76}, {"time": 50403, "pitch": 67, "duration": 949, "velocity": 83}, {"time": 50403, "pitch": 71, "duration": 937, "velocity": 87}, {"time": 50403, "pitch": 74, "duration": 961, "velocity": 89}, {"time": 51359, "pitch": 69, "duration": 1002, "velocity": 82}, {"time": 51359, "pitch": 73, "duration": 1005, "velocity": 94}, {"time": 51359, "pitch": 76, "duration": 992, "velocity": 85}, {"time": 52563, "pitch": 71, "duration": 69, "velocity": 87}, {"time": 52563, "pitch": 74, "duration": 83, "velocity": 96}, {"time": 52563, "pitch": 78, "duration": 82, "velocity": 92}, {"time": 52932, "pitch": 67, "duration": 330, "velocity": 87}, {"time": 52932, "pitch": 72, "duration": 311, "velocity": 77}, {"time": 52932, "pitch": 76, "duration": 329, "velocity": 85}, {"time": 53278, "pitch": 71, "duration": 102, "velocity": 86}, {"time": 53278, "pitch": 74, "duration": 109, "velocity": 82}, {"time": 53278, "pitch": 78, "duration": 113, "velocity": 89}, {"time": 54241, "pitch": 67, "duration": 5525, "velocity": 98}, {"time": 54241, "pitch": 71, "duration": 5530, "velocity": 98}, {"time": 54241, "pitch": 74, "duration": 5534, "velocity": 100}, {"time": 59762, "pitch": 66, "duration": 2177, "velocity": 92}, {"time": 59762, "pitch": 69, "duration": 2203, "velocity": 89}, {"time": 59762, "pitch": 73, "duration": 2154, "velocity": 94}, {"time": 61918, "pitch": 67, "duration": 3817, "velocity": 103}, {"time": 61918, "pitch": 71, "duration": 17982, "velocity": 96}, {"time": 61918, "pitch": 74, "duration": 3816, "velocity": 86}, {"time": 65654, "pitch": 75, "duration": 3893, "velocity": 88}, {"time": 65764, "pitch": 68, "duration": 3868, "velocity": 89}, {"time": 69603, "pitch": 67, "duration": 3840, "velocity": 84}, {"time": 69603, "pitch": 74, "duration": 3835, "velocity": 85}, {"time": 73441, "pitch": 68, "duration": 3816, "velocity": 85}, {"time": 73441, "pitch": 75, "duration": 3833, "velocity": 85}, {"time": 77278, "pitch": 67, "duration": 2867, "velocity": 84}, {"time": 77278, "pitch": 71, "duration": 2622, "velocity": 77}, {"time": 77278, "pitch": 74, "duration": 2818, "velocity": 76}, {"time": 80161, "pitch": 71, "duration": 51, "velocity": 85}, {"time": 80162, "pitch": 74, "duration": 52, "velocity": 85}, {"time": 80172, "pitch": 78, "duration": 76, "velocity": 78}, {"time": 80384, "pitch": 71, "duration": 682, "velocity": 78}, {"time": 80384, "pitch": 74, "duration": 679, "velocity": 78}, {"time": 80385, "pitch": 78, "duration": 685, "velocity": 76}, {"time": 96479, "pitch": 67, "duration": 1900, "velocity": 82}, {"time": 96479, "pitch": 71, "duration": 1917, "velocity": 87}, {"time": 98399, "pitch": 69, "duration": 1910, "velocity": 61}, {"time": 98399, "pitch": 73, "duration": 1909, "velocity": 77}, {"time": 100318, "pitch": 71, "duration": 1906, "velocity": 87}, {"time": 100318, "pitch": 74, "duration": 1919, "velocity": 91}, {"time": 102245, "pitch": 69, "duration": 1937, "velocity": 74}, {"time": 102245, "pitch": 73, "duration": 1957, "velocity": 100}, {"time": 104164, "pitch": 67, "duration": 1877, "velocity": 87}, {"time": 104164, "pitch": 71, "duration": 1914, "velocity": 86}, {"time": 106084, "pitch": 69, "duration": 1928, "velocity": 82}, {"time": 106084, "pitch": 73, "duration": 953, "velocity": 88}, {"time": 107039, "pitch": 72, "duration": 1027, "velocity": 87}, {"time": 107039, "pitch": 75, "duration": 981, "velocity": 76}, {"time": 108002, "pitch": 67, "duration": 949, "velocity": 83}, {"time": 108002, "pitch": 71, "duration": 937, "velocity": 87}, {"time": 108002, "pitch": 74, "duration": 961, "velocity": 89}, {"time": 108958, "pitch": 69, "duration": 1003, "velocity": 82}, {"time": 108958, "pitch": 73, "duration": 1006, "velocity": 94}, {"time": 108958, "pitch": 76, "duration": 993, "velocity": 85}, {"time": 110162, "pitch": 71, "duration": 75, "velocity": 87}, {"time": 110162, "pitch": 74, "duration": 67, "velocity": 89}, {"time": 110162, "pitch": 78, "duration": 83, "velocity": 88}, {"time": 110532, "pitch": 69, "duration": 308, "velocity": 79}, {"time": 110532, "pitch": 72, "duration": 286, "velocity": 79}, {"time": 110532, "pitch": 76, "duration": 285, "velocity": 75}, {"time": 110877, "pitch": 71, "duration": 93, "velocity": 85}, {"time": 110877, "pitch": 74, "duration": 107, "velocity": 79}, {"time": 110877, "pitch": 78, "duration": 93, "velocity": 76}, {"time": 111841, "pitch": 67, "duration": 1899, "velocity": 82}, {"time": 111841, "pitch": 71, "duration": 1916, "velocity": 87}, {"time": 113761, "pitch": 69, "duration": 1909, "velocity": 61}, {"time": 113761, "pitch": 73, "duration": 1908, "velocity": 77}, {"time": 115679, "pitch": 71, "duration": 1899, "velocity": 87}, {"time": 115679, "pitch": 74, "duration": 1911, "velocity": 91}, {"time": 117598, "pitch": 69, "duration": 1938, "velocity": 74}, {"time": 117598, "pitch": 73, "duration": 1959, "velocity": 100}, {"time": 119517, "pitch": 67, "duration": 1885, "velocity": 87}, {"time": 119517, "pitch": 71, "duration": 1922, "velocity": 86}, {"time": 121445, "pitch": 69, "duration": 1929, "velocity": 82}, {"time": 121445, "pitch": 73, "duration": 953, "velocity": 88}, {"time": 122400, "pitch": 72, "duration": 1026, "velocity": 87}, {"time": 122400, "pitch": 75, "duration": 981, "velocity": 76}, {"time": 123364, "pitch": 67, "duration": 948, "velocity": 83}, {"time": 123364, "pitch": 71, "duration": 936, "velocity": 87}, {"time": 123364, "pitch": 74, "duration": 960, "velocity": 89}, {"time": 124319, "pitch": 69, "duration": 1003, "velocity": 82}, {"time": 124319, "pitch": 73, "duration": 1006, "velocity": 94}, {"time": 124319, "pitch": 76, "duration": 993, "velocity": 85}, {"time": 125524, "pitch": 71, "duration": 74, "velocity": 87}, {"time": 125524, "pitch": 74, "duration": 66, "velocity": 89}, {"time": 125524, "pitch": 78, "duration": 82, "velocity": 88}, {"time": 125893, "pitch": 69, "duration": 308, "velocity": 79}, {"time": 125893, "pitch": 72, "duration": 286, "velocity": 79}, {"time": 125893, "pitch": 76, "duration": 285, "velocity": 75}, {"time": 126239, "pitch": 71, "duration": 93, "velocity": 85}, {"time": 126239, "pitch": 74, "duration": 106, "velocity": 79}, {"time": 126239, "pitch": 78, "duration": 93, "velocity": 76}, {"time": 127202, "pitch": 67, "duration": 5521, "velocity": 98}, {"time": 127202, "pitch": 71, "duration": 5526, "velocity": 98}, {"time": 127202, "pitch": 74, "duration": 5530, "velocity": 100}, {"time": 132719, "pitch": 66, "duration": 2181, "velocity": 92}, {"time": 132719, "pitch": 69, "duration": 2207, "velocity": 89}, {"time": 132719, "pitch": 73, "duration": 2158, "velocity": 94}, {"time": 134879, "pitch": 67, "duration": 3810, "velocity": 103}, {"time": 134879, "pitch": 71, "duration": 17982, "velocity": 96}, {"time": 134879, "pitch": 74, "duration": 3809, "velocity": 86}, {"time": 138609, "pitch": 75, "duration": 3899, "velocity": 88}, {"time": 138717, "pitch": 68, "duration": 3875, "velocity": 89}, {"time": 142563, "pitch": 67, "duration": 3841, "velocity": 84}, {"time": 142563, "pitch": 74, "duration": 3836, "velocity": 85}, {"time": 146402, "pitch": 68, "duration": 3816, "velocity": 85}, {"time": 146402, "pitch": 75, "duration": 3833, "velocity": 85}, {"time": 150239, "pitch": 67, "duration": 2867, "velocity": 84}, {"time": 150239, "pitch": 71, "duration": 2622, "velocity": 77}, {"time": 150239, "pitch": 74, "duration": 2818, "velocity": 76}, {"time": 153122, "pitch": 71, "duration": 51, "velocity": 85}, {"time": 153123, "pitch": 74, "duration": 52, "velocity": 85}, {"time": 153133, "pitch": 78, "duration": 76, "velocity": 78}, {"time": 153345, "pitch": 71, "duration": 681, "velocity": 78}, {"time": 153345, "pitch": 74, "duration": 678, "velocity": 78}, {"time": 153346, "pitch": 78, "duration": 685, "velocity": 76}, {"time": 95894, "pitch": 66, "duration": 115, "velocity": 103}, {"time": 96009, "pitch": 67, "duration": 119, "velocity": 105}, {"time": 96128, "pitch": 69, "duration": 104, "velocity": 85}, {"time": 96226, "pitch": 71, "duration": 123, "velocity": 91}, {"time": 96368, "pitch": 73, "duration": 145, "velocity": 94}, {"time": 96502, "pitch": 74, "duration": 117, "velocity": 105}, {"time": 96745, "pitch": 74, "duration": 795, "velocity": 100}, {"time": 97664, "pitch": 76, "duration": 133, "velocity": 110}, {"time": 97788, "pitch": 73, "duration": 143, "velocity": 81}, {"time": 97923, "pitch": 74, "duration": 148, "velocity": 107}, {"time": 98068, "pitch": 76, "duration": 121, "velocity": 49}, {"time": 98263, "pitch": 76, "duration": 156, "velocity": 96}, {"time": 98412, "pitch": 73, "duration": 128, "velocity": 100}, {"time": 98682, "pitch": 73, "duration": 421, "velocity": 105}, {"time": 99113, "pitch": 69, "duration": 110, "velocity": 103}, {"time": 99257, "pitch": 67, "duration": 111, "velocity": 82}, {"time": 99374, "pitch": 66, "duration": 168, "velocity": 100}, {"time": 99545, "pitch": 69, "duration": 103, "velocity": 103}, {"time": 99763, "pitch": 69, "duration": 305, "velocity": 86}, {"time": 100055, "pitch": 66, "duration": 147, "velocity": 100}, {"time": 100304, "pitch": 62, "duration": 222, "velocity": 110}, {"time": 100523, "pitch": 64, "duration": 135, "velocity": 88}, {"time": 100665, "pitch": 61, "duration": 130, "velocity": 96}, {"time": 100805, "pitch": 62, "duration": 171, "velocity": 102}, {"time": 100965, "pitch": 64, "duration": 152, "velocity": 100}, {"time": 101109, "pitch": 66, "duration": 118, "velocity": 94}, {"time": 101265, "pitch": 69, "duration": 104, "velocity": 110}, {"time": 101496, "pitch": 69, "duration": 462, "velocity": 98}, {"time": 101977, "pitch": 67, "duration": 141, "velocity": 98}, {"time": 102118, "pitch": 66, "duration": 163, "velocity": 98}, {"time": 102394, "pitch": 69, "duration": 290, "velocity": 107}, {"time": 103587, "pitch": 66, "duration": 100, "velocity": 100}, {"time": 103687, "pitch": 67, "duration": 126, "velocity": 98}, {"time": 103816, "pitch": 69, "duration": 128, "velocity": 86}, {"time": 103941, "pitch": 71, "duration": 94, "velocity": 96}, {"time": 104066, "pitch": 73, "duration": 124, "velocity": 100}, {"time": 104199, "pitch": 74, "duration": 132, "velocity": 114}, {"time": 104427, "pitch": 76, "duration": 98, "velocity": 112}, {"time": 104578, "pitch": 76, "duration": 128, "velocity": 105}, {"time": 104803, "pitch": 74, "duration": 142, "velocity": 100}, {"time": 104950, "pitch": 76, "duration": 167, "velocity": 103}, {"time": 105112, "pitch": 78, "duration": 122, "velocity": 102}, {"time": 105359, "pitch": 78, "duration": 1182, "velocity": 103}, {"time": 106555, "pitch": 81, "duration": 112, "velocity": 107}, {"time": 106748, "pitch": 79, "duration": 111, "velocity": 100}, {"time": 106904, "pitch": 77, "duration": 101, "velocity": 100}, {"time": 107083, "pitch": 75, "duration": 115, "velocity": 100}, {"time": 107258, "pitch": 74, "duration": 135, "velocity": 91}, {"time": 107405, "pitch": 72, "duration": 102, "velocity": 96}, {"time": 107561, "pitch": 71, "duration": 123, "velocity": 100}, {"time": 107704, "pitch": 69, "duration": 140, "velocity": 88}, {"time": 107856, "pitch": 67, "duration": 78, "velocity": 88}, {"time": 107996, "pitch": 66, "duration": 190, "velocity": 92}, {"time": 108235, "pitch": 67, "duration": 122, "velocity": 94}, {"time": 108390, "pitch": 69, "duration": 105, "velocity": 96}, {"time": 108612, "pitch": 66, "duration": 332, "velocity": 103}, {"time": 108994, "pitch": 62, "duration": 106, "velocity": 100}, {"time": 109100, "pitch": 64, "duration": 111, "velocity": 94}, {"time": 109213, "pitch": 61, "duration": 119, "velocity": 88}, {"time": 109324, "pitch": 62, "duration": 105, "velocity": 100}, {"time": 109439, "pitch": 64, "duration": 116, "velocity": 94}, {"time": 109555, "pitch": 66, "duration": 111, "velocity": 98}, {"time": 109692, "pitch": 69, "duration": 94, "velocity": 100}, {"time": 109830, "pitch": 69, "duration": 254, "velocity": 98}, {"time": 111041, "pitch": 66, "duration": 107, "velocity": 105}, {"time": 111141, "pitch": 67, "duration": 126, "velocity": 107}, {"time": 111270, "pitch": 69, "duration": 103, "velocity": 83}, {"time": 111370, "pitch": 71, "duration": 111, "velocity": 85}, {"time": 111503, "pitch": 73, "duration": 141, "velocity": 100}, {"time": 111622, "pitch": 74, "duration": 114, "velocity": 110}, {"time": 111748, "pitch": 76, "duration": 142, "velocity": 96}, {"time": 111875, "pitch": 78, "duration": 2576, "velocity": 114}, {"time": 114496, "pitch": 81, "duration": 146, "velocity": 91}, {"time": 114499, "pitch": 79, "duration": 21, "velocity": 92}, {"time": 114628, "pitch": 79, "duration": 154, "velocity": 110}, {"time": 114759, "pitch": 78, "duration": 156, "velocity": 100}, {"time": 114928, "pitch": 76, "duration": 150, "velocity": 102}, {"time": 115068, "pitch": 74, "duration": 131, "velocity": 103}, {"time": 115208, "pitch": 73, "duration": 181, "velocity": 96}, {"time": 115364, "pitch": 74, "duration": 138, "velocity": 103}, {"time": 115505, "pitch": 76, "duration": 133, "velocity": 110}, {"time": 115634, "pitch": 73, "duration": 146, "velocity": 92}, {"time": 115874, "pitch": 73, "duration": 187, "velocity": 86}, {"time": 116048, "pitch": 69, "duration": 704, "velocity": 105}, {"time": 116835, "pitch": 71, "duration": 138, "velocity": 100}, {"time": 116969, "pitch": 66, "duration": 149, "velocity": 91}, {"time": 117114, "pitch": 69, "duration": 146, "velocity": 91}, {"time": 117334, "pitch": 69, "duration": 173, "velocity": 87}, {"time": 117465, "pitch": 67, "duration": 92, "velocity": 70}, {"time": 117620, "pitch": 66, "duration": 160, "velocity": 112}, {"time": 117839, "pitch": 69, "duration": 113, "velocity": 100}, {"time": 117989, "pitch": 69, "duration": 154, "velocity": 91}, {"time": 118220, "pitch": 66, "duration": 122, "velocity": 96}, {"time": 118412, "pitch": 66, "duration": 142, "velocity": 91}, {"time": 118548, "pitch": 62, "duration": 160, "velocity": 100}, {"time": 118806, "pitch": 69, "duration": 717, "velocity": 96}, {"time": 119796, "pitch": 71, "duration": 83, "velocity": 107}, {"time": 120037, "pitch": 71, "duration": 151, "velocity": 103}, {"time": 120242, "pitch": 71, "duration": 76, "velocity": 103}, {"time": 120352, "pitch": 71, "duration": 183, "velocity": 98}, {"time": 120619, "pitch": 73, "duration": 125, "velocity": 94}, {"time": 120744, "pitch": 74, "duration": 113, "velocity": 107}, {"time": 120845, "pitch": 76, "duration": 128, "velocity": 92}, {"time": 120949, "pitch": 73, "duration": 161, "velocity": 96}, {"time": 120979, "pitch": 75, "duration": 28, "velocity": 46}, {"time": 121195, "pitch": 73, "duration": 159, "velocity": 98}, {"time": 121439, "pitch": 78, "duration": 854, "velocity": 112}, {"time": 122391, "pitch": 77, "duration": 885, "velocity": 110}, {"time": 123350, "pitch": 76, "duration": 430, "velocity": 114}, {"time": 123850, "pitch": 73, "duration": 146, "velocity": 100}, {"time": 124027, "pitch": 74, "duration": 153, "velocity": 103}, {"time": 124176, "pitch": 76, "duration": 143, "velocity": 103}, {"time": 124325, "pitch": 73, "duration": 154, "velocity": 96}, {"time": 124559, "pitch": 73, "duration": 158, "velocity": 100}, {"time": 124711, "pitch": 69, "duration": 622, "velocity": 103}, {"time": 125654, "pitch": 66, "duration": 125, "velocity": 107}, {"time": 125776, "pitch": 67, "duration": 119, "velocity": 102}, {"time": 125894, "pitch": 69, "duration": 128, "velocity": 84}, {"time": 126017, "pitch": 71, "duration": 102, "velocity": 96}, {"time": 126136, "pitch": 73, "duration": 136, "velocity": 96}, {"time": 126277, "pitch": 74, "duration": 154, "velocity": 102}, {"time": 126446, "pitch": 73, "duration": 139, "velocity": 100}, {"time": 126578, "pitch": 74, "duration": 156, "velocity": 96}, {"time": 126734, "pitch": 76, "duration": 150, "velocity": 114}, {"time": 126878, "pitch": 74, "duration": 142, "velocity": 86}, {"time": 127012, "pitch": 76, "duration": 189, "velocity": 89}, {"time": 127176, "pitch": 78, "duration": 3856, "velocity": 110}, {"time": 139902, "pitch": 70, "duration": 439, "velocity": 91}, {"time": 140412, "pitch": 70, "duration": 139, "velocity": 89}, {"time": 140543, "pitch": 71, "duration": 123, "velocity": 91}, {"time": 140658, "pitch": 70, "duration": 132, "velocity": 88}, {"time": 140803, "pitch": 66, "duration": 111, "velocity": 92}, {"time": 141010, "pitch": 66, "duration": 276, "velocity": 94}, {"time": 141319, "pitch": 63, "duration": 130, "velocity": 91}, {"time": 141449, "pitch": 64, "duration": 124, "velocity": 92}, {"time": 141592, "pitch": 66, "duration": 153, "velocity": 92}, {"time": 141844, "pitch": 66, "duration": 709, "velocity": 87}, {"time": 143637, "pitch": 66, "duration": 111, "velocity": 96}, {"time": 143745, "pitch": 67, "duration": 120, "velocity": 103}, {"time": 143865, "pitch": 69, "duration": 102, "velocity": 85}, {"time": 143972, "pitch": 71, "duration": 109, "velocity": 77}, {"time": 144114, "pitch": 73, "duration": 127, "velocity": 94}, {"time": 144239, "pitch": 74, "duration": 109, "velocity": 103}, {"time": 144345, "pitch": 76, "duration": 134, "velocity": 92}, {"time": 144471, "pitch": 78, "duration": 644, "velocity": 107}, {"time": 145171, "pitch": 76, "duration": 116, "velocity": 103}, {"time": 145287, "pitch": 74, "duration": 119, "velocity": 100}, {"time": 145409, "pitch": 73, "duration": 171, "velocity": 96}, {"time": 145597, "pitch": 69, "duration": 122, "velocity": 103}, {"time": 145819, "pitch": 69, "duration": 346, "velocity": 85}, {"time": 146154, "pitch": 67, "duration": 213, "velocity": 91}, {"time": 146399, "pitch": 66, "duration": 833, "velocity": 86}, {"time": 147616, "pitch": 70, "duration": 389, "velocity": 91}, {"time": 148075, "pitch": 70, "duration": 156, "velocity": 86}, {"time": 148224, "pitch": 71, "duration": 131, "velocity": 100}, {"time": 148347, "pitch": 70, "duration": 149, "velocity": 96}, {"time": 148513, "pitch": 66, "duration": 118, "velocity": 89}, {"time": 148729, "pitch": 66, "duration": 263, "velocity": 87}, {"time": 148999, "pitch": 63, "duration": 131, "velocity": 83}, {"time": 149133, "pitch": 64, "duration": 141, "velocity": 103}, {"time": 149290, "pitch": 66, "duration": 749, "velocity": 91}, {"time": 151323, "pitch": 66, "duration": 100, "velocity": 96}, {"time": 151425, "pitch": 67, "duration": 124, "velocity": 96}, {"time": 151552, "pitch": 69, "duration": 94, "velocity": 94}, {"time": 151650, "pitch": 71, "duration": 123, "velocity": 96}, {"time": 151787, "pitch": 73, "duration": 131, "velocity": 100}, {"time": 151904, "pitch": 74, "duration": 97, "velocity": 110}, {"time": 152001, "pitch": 76, "duration": 167, "velocity": 107}, {"time": 152160, "pitch": 78, "duration": 619, "velocity": 107}, {"time": 152884, "pitch": 76, "duration": 127, "velocity": 105}, {"time": 153011, "pitch": 74, "duration": 135, "velocity": 96}, {"time": 153142, "pitch": 73, "duration": 178, "velocity": 91}, {"time": 153312, "pitch": 76, "duration": 175, "velocity": 98}, {"time": 153474, "pitch": 73, "duration": 167, "velocity": 77}, {"time": 153636, "pitch": 69, "duration": 166, "velocity": 86}, {"time": 153808, "pitch": 73, "duration": 176, "velocity": 80}, {"time": 153996, "pitch": 69, "duration": 214, "velocity": 85}, {"time": 154217, "pitch": 66, "duration": 189, "velocity": 49}, {"time": 154501, "pitch": 66, "duration": 671, "velocity": 91}, {"time": 155180, "pitch": 64, "duration": 206, "velocity": 85}, {"time": 155386, "pitch": 62, "duration": 210, "velocity": 84}, {"time": 155610, "pitch": 61, "duration": 1941, "velocity": 77}, {"time": 8401, "pitch": 62, "duration": 148, "velocity": 76}, {"time": 8401, "pitch": 64, "duration": 148, "velocity": 74}, {"time": 8401, "pitch": 67, "duration": 148, "velocity": 75}, {"time": 8401, "pitch": 71, "duration": 148, "velocity": 52}, {"time": 8562, "pitch": 62, "duration": 29, "velocity": 73}, {"time": 8562, "pitch": 64, "duration": 29, "velocity": 77}, {"time": 8562, "pitch": 67, "duration": 29, "velocity": 69}, {"time": 8562, "pitch": 71, "duration": 29, "velocity": 46}, {"time": 8638, "pitch": 62, "duration": 30, "velocity": 56}, {"time": 8638, "pitch": 64, "duration": 30, "velocity": 70}, {"time": 8638, "pitch": 67, "duration": 30, "velocity": 69}, {"time": 8638, "pitch": 71, "duration": 30, "velocity": 69}, {"time": 8801, "pitch": 62, "duration": 30, "velocity": 58}, {"time": 8801, "pitch": 64, "duration": 30, "velocity": 68}, {"time": 8801, "pitch": 67, "duration": 30, "velocity": 64}, {"time": 8801, "pitch": 71, "duration": 30, "velocity": 74}, {"time": 9042, "pitch": 62, "duration": 30, "velocity": 79}, {"time": 9042, "pitch": 64, "duration": 30, "velocity": 84}, {"time": 9042, "pitch": 67, "duration": 30, "velocity": 77}, {"time": 9042, "pitch": 71, "duration": 30, "velocity": 62}, {"time": 9283, "pitch": 62, "duration": 30, "velocity": 72}, {"time": 9283, "pitch": 64, "duration": 30, "velocity": 70}, {"time": 9283, "pitch": 67, "duration": 30, "velocity": 77}, {"time": 9283, "pitch": 71, "duration": 30, "velocity": 64}, {"time": 9524, "pitch": 62, "duration": 30, "velocity": 74}, {"time": 9524, "pitch": 64, "duration": 30, "velocity": 71}, {"time": 9524, "pitch": 67, "duration": 30, "velocity": 68}, {"time": 9524, "pitch": 71, "duration": 30, "velocity": 52}, {"time": 9601, "pitch": 62, "duration": 151, "velocity": 62}, {"time": 9601, "pitch": 64, "duration": 151, "velocity": 69}, {"time": 9601, "pitch": 67, "duration": 151, "velocity": 80}, {"time": 9601, "pitch": 71, "duration": 151, "velocity": 79}, {"time": 9765, "pitch": 62, "duration": 30, "velocity": 46}, {"time": 9765, "pitch": 64, "duration": 30, "velocity": 64}, {"time": 9765, "pitch": 67, "duration": 30, "velocity": 81}, {"time": 9765, "pitch": 71, "duration": 30, "velocity": 77}, {"time": 10320, "pitch": 64, "duration": 148, "velocity": 84}, {"time": 10320, "pitch": 66, "duration": 148, "velocity": 71}, {"time": 10320, "pitch": 69, "duration": 148, "velocity": 81}, {"time": 10320, "pitch": 73, "duration": 148, "velocity": 62}, {"time": 10481, "pitch": 64, "duration": 30, "velocity": 64}, {"time": 10481, "pitch": 66, "duration": 30, "velocity": 61}, {"time": 10481, "pitch": 69, "duration": 30, "velocity": 72}, {"time": 10481, "pitch": 73, "duration": 30, "velocity": 50}, {"time": 10557, "pitch": 64, "duration": 30, "velocity": 66}, {"time": 10557, "pitch": 66, "duration": 30, "velocity": 51}, {"time": 10557, "pitch": 69, "duration": 30, "velocity": 79}, {"time": 10557, "pitch": 73, "duration": 30, "velocity": 38}, {"time": 10721, "pitch": 64, "duration": 30, "velocity": 72}, {"time": 10721, "pitch": 66, "duration": 30, "velocity": 61}, {"time": 10721, "pitch": 69, "duration": 30, "velocity": 73}, {"time": 10721, "pitch": 73, "duration": 30, "velocity": 40}, {"time": 10961, "pitch": 64, "duration": 31, "velocity": 79}, {"time": 10961, "pitch": 66, "duration": 31, "velocity": 83}, {"time": 10961, "pitch": 69, "duration": 31, "velocity": 83}, {"time": 10961, "pitch": 73, "duration": 31, "velocity": 71}, {"time": 11202, "pitch": 64, "duration": 30, "velocity": 67}, {"time": 11202, "pitch": 66, "duration": 30, "velocity": 65}, {"time": 11202, "pitch": 69, "duration": 30, "velocity": 79}, {"time": 11202, "pitch": 73, "duration": 30, "velocity": 50}, {"time": 11443, "pitch": 64, "duration": 30, "velocity": 61}, {"time": 11443, "pitch": 66, "duration": 30, "velocity": 61}, {"time": 11443, "pitch": 69, "duration": 30, "velocity": 74}, {"time": 11443, "pitch": 73, "duration": 30, "velocity": 74}, {"time": 11520, "pitch": 64, "duration": 151, "velocity": 75}, {"time": 11520, "pitch": 66, "duration": 151, "velocity": 52}, {"time": 11520, "pitch": 69, "duration": 151, "velocity": 36}, {"time": 11520, "pitch": 69, "duration": 151, "velocity": 70}, {"time": 11520, "pitch": 73, "duration": 151, "velocity": 15}, {"time": 11684, "pitch": 64, "duration": 30, "velocity": 67}, {"time": 11684, "pitch": 66, "duration": 30, "velocity": 73}, {"time": 11684, "pitch": 69, "duration": 30, "velocity": 76}, {"time": 11684, "pitch": 73, "duration": 30, "velocity": 64}, {"time": 12239, "pitch": 62, "duration": 148, "velocity": 76}, {"time": 12239, "pitch": 64, "duration": 148, "velocity": 74}, {"time": 12239, "pitch": 67, "duration": 148, "velocity": 75}, {"time": 12239, "pitch": 71, "duration": 148, "velocity": 52}, {"time": 12400, "pitch": 62, "duration": 30, "velocity": 73}, {"time": 12400, "pitch": 64, "duration": 30, "velocity": 77}, {"time": 12400, "pitch": 67, "duration": 30, "velocity": 69}, {"time": 12400, "pitch": 71, "duration": 30, "velocity": 46}, {"time": 12476, "pitch": 62, "duration": 30, "velocity": 56}, {"time": 12476, "pitch": 64, "duration": 30, "velocity": 70}, {"time": 12476, "pitch": 67, "duration": 30, "velocity": 69}, {"time": 12476, "pitch": 71, "duration": 30, "velocity": 69}, {"time": 12640, "pitch": 62, "duration": 30, "velocity": 58}, {"time": 12640, "pitch": 64, "duration": 30, "velocity": 68}, {"time": 12640, "pitch": 67, "duration": 30, "velocity": 64}, {"time": 12640, "pitch": 71, "duration": 30, "velocity": 74}, {"time": 12881, "pitch": 62, "duration": 30, "velocity": 79}, {"time": 12881, "pitch": 64, "duration": 30, "velocity": 84}, {"time": 12881, "pitch": 67, "duration": 30, "velocity": 77}, {"time": 12881, "pitch": 71, "duration": 30, "velocity": 62}, {"time": 13121, "pitch": 62, "duration": 31, "velocity": 72}, {"time": 13121, "pitch": 64, "duration": 31, "velocity": 70}, {"time": 13121, "pitch": 67, "duration": 31, "velocity": 77}, {"time": 13121, "pitch": 71, "duration": 31, "velocity": 64}, {"time": 13362, "pitch": 62, "duration": 30, "velocity": 74}, {"time": 13362, "pitch": 64, "duration": 30, "velocity": 71}, {"time": 13362, "pitch": 67, "duration": 30, "velocity": 68}, {"time": 13362, "pitch": 71, "duration": 30, "velocity": 52}, {"time": 13440, "pitch": 62, "duration": 150, "velocity": 62}, {"time": 13440, "pitch": 64, "duration": 150, "velocity": 69}, {"time": 13440, "pitch": 67, "duration": 150, "velocity": 80}, {"time": 13440, "pitch": 71, "duration": 150, "velocity": 79}, {"time": 13603, "pitch": 62, "duration": 30, "velocity": 46}, {"time": 13603, "pitch": 64, "duration": 30, "velocity": 64}, {"time": 13603, "pitch": 67, "duration": 30, "velocity": 81}, {"time": 13603, "pitch": 71, "duration": 30, "velocity": 77}, {"time": 14162, "pitch": 64, "duration": 151, "velocity": 84}, {"time": 14162, "pitch": 66, "duration": 151, "velocity": 71}, {"time": 14162, "pitch": 69, "duration": 151, "velocity": 81}, {"time": 14162, "pitch": 73, "duration": 151, "velocity": 62}, {"time": 14326, "pitch": 64, "duration": 30, "velocity": 64}, {"time": 14326, "pitch": 66, "duration": 30, "velocity": 61}, {"time": 14326, "pitch": 69, "duration": 30, "velocity": 72}, {"time": 14326, "pitch": 73, "duration": 30, "velocity": 50}, {"time": 14403, "pitch": 64, "duration": 30, "velocity": 66}, {"time": 14403, "pitch": 66, "duration": 30, "velocity": 51}, {"time": 14403, "pitch": 69, "duration": 30, "velocity": 79}, {"time": 14403, "pitch": 73, "duration": 30, "velocity": 38}, {"time": 14564, "pitch": 64, "duration": 30, "velocity": 72}, {"time": 14564, "pitch": 66, "duration": 30, "velocity": 61}, {"time": 14564, "pitch": 69, "duration": 30, "velocity": 73}, {"time": 14564, "pitch": 73, "duration": 30, "velocity": 40}, {"time": 14801, "pitch": 64, "duration": 30, "velocity": 79}, {"time": 14801, "pitch": 66, "duration": 30, "velocity": 83}, {"time": 14801, "pitch": 69, "duration": 30, "velocity": 83}, {"time": 14801, "pitch": 73, "duration": 30, "velocity": 71}, {"time": 15041, "pitch": 64, "duration": 30, "velocity": 67}, {"time": 15041, "pitch": 66, "duration": 30, "velocity": 65}, {"time": 15041, "pitch": 69, "duration": 30, "velocity": 79}, {"time": 15041, "pitch": 73, "duration": 30, "velocity": 50}, {"time": 15282, "pitch": 64, "duration": 30, "velocity": 61}, {"time": 15282, "pitch": 66, "duration": 30, "velocity": 61}, {"time": 15282, "pitch": 69, "duration": 30, "velocity": 74}, {"time": 15282, "pitch": 73, "duration": 30, "velocity": 74}, {"time": 15359, "pitch": 64, "duration": 150, "velocity": 75}, {"time": 15359, "pitch": 66, "duration": 150, "velocity": 52}, {"time": 15359, "pitch": 69, "duration": 150, "velocity": 36}, {"time": 15359, "pitch": 69, "duration": 150, "velocity": 70}, {"time": 15359, "pitch": 73, "duration": 150, "velocity": 15}, {"time": 15522, "pitch": 64, "duration": 31, "velocity": 67}, {"time": 15522, "pitch": 66, "duration": 31, "velocity": 73}, {"time": 15522, "pitch": 69, "duration": 31, "velocity": 76}, {"time": 15522, "pitch": 73, "duration": 31, "velocity": 64}, {"time": 16081, "pitch": 62, "duration": 151, "velocity": 76}, {"time": 16081, "pitch": 64, "duration": 151, "velocity": 74}, {"time": 16081, "pitch": 67, "duration": 151, "velocity": 75}, {"time": 16081, "pitch": 71, "duration": 151, "velocity": 52}, {"time": 16245, "pitch": 62, "duration": 30, "velocity": 73}, {"time": 16245, "pitch": 64, "duration": 30, "velocity": 77}, {"time": 16245, "pitch": 67, "duration": 30, "velocity": 69}, {"time": 16245, "pitch": 71, "duration": 30, "velocity": 46}, {"time": 16322, "pitch": 62, "duration": 30, "velocity": 56}, {"time": 16322, "pitch": 64, "duration": 30, "velocity": 70}, {"time": 16322, "pitch": 67, "duration": 30, "velocity": 69}, {"time": 16322, "pitch": 71, "duration": 30, "velocity": 69}, {"time": 16483, "pitch": 62, "duration": 30, "velocity": 58}, {"time": 16483, "pitch": 64, "duration": 30, "velocity": 68}, {"time": 16483, "pitch": 67, "duration": 30, "velocity": 64}, {"time": 16483, "pitch": 71, "duration": 30, "velocity": 74}, {"time": 16720, "pitch": 62, "duration": 30, "velocity": 79}, {"time": 16720, "pitch": 64, "duration": 30, "velocity": 84}, {"time": 16720, "pitch": 67, "duration": 30, "velocity": 77}, {"time": 16720, "pitch": 71, "duration": 30, "velocity": 62}, {"time": 16960, "pitch": 62, "duration": 30, "velocity": 72}, {"time": 16960, "pitch": 64, "duration": 30, "velocity": 70}, {"time": 16960, "pitch": 67, "duration": 30, "velocity": 77}, {"time": 16960, "pitch": 71, "duration": 30, "velocity": 64}, {"time": 17201, "pitch": 62, "duration": 30, "velocity": 74}, {"time": 17201, "pitch": 64, "duration": 30, "velocity": 71}, {"time": 17201, "pitch": 67, "duration": 30, "velocity": 68}, {"time": 17201, "pitch": 71, "duration": 30, "velocity": 52}, {"time": 17278, "pitch": 62, "duration": 151, "velocity": 62}, {"time": 17278, "pitch": 64, "duration": 151, "velocity": 69}, {"time": 17278, "pitch": 67, "duration": 151, "velocity": 80}, {"time": 17278, "pitch": 71, "duration": 151, "velocity": 79}, {"time": 17442, "pitch": 62, "duration": 30, "velocity": 46}, {"time": 17442, "pitch": 64, "duration": 30, "velocity": 64}, {"time": 17442, "pitch": 67, "duration": 30, "velocity": 81}, {"time": 17442, "pitch": 71, "duration": 30, "velocity": 77}, {"time": 18001, "pitch": 64, "duration": 150, "velocity": 84}, {"time": 18001, "pitch": 66, "duration": 150, "velocity": 71}, {"time": 18001, "pitch": 69, "duration": 150, "velocity": 81}, {"time": 18001, "pitch": 73, "duration": 150, "velocity": 62}, {"time": 18164, "pitch": 64, "duration": 30, "velocity": 64}, {"time": 18164, "pitch": 66, "duration": 30, "velocity": 61}, {"time": 18164, "pitch": 69, "duration": 30, "velocity": 72}, {"time": 18164, "pitch": 73, "duration": 30, "velocity": 50}, {"time": 18242, "pitch": 64, "duration": 30, "velocity": 66}, {"time": 18242, "pitch": 66, "duration": 30, "velocity": 51}, {"time": 18242, "pitch": 69, "duration": 30, "velocity": 79}, {"time": 18242, "pitch": 73, "duration": 30, "velocity": 38}, {"time": 18405, "pitch": 64, "duration": 30, "velocity": 72}, {"time": 18405, "pitch": 66, "duration": 30, "velocity": 61}, {"time": 18405, "pitch": 69, "duration": 30, "velocity": 73}, {"time": 18405, "pitch": 73, "duration": 30, "velocity": 40}, {"time": 18646, "pitch": 64, "duration": 30, "velocity": 79}, {"time": 18646, "pitch": 66, "duration": 30, "velocity": 83}, {"time": 18646, "pitch": 69, "duration": 30, "velocity": 83}, {"time": 18646, "pitch": 73, "duration": 30, "velocity": 71}, {"time": 18884, "pitch": 64, "duration": 30, "velocity": 67}, {"time": 18884, "pitch": 66, "duration": 30, "velocity": 65}, {"time": 18884, "pitch": 69, "duration": 30, "velocity": 79}, {"time": 18884, "pitch": 73, "duration": 30, "velocity": 50}, {"time": 19121, "pitch": 64, "duration": 30, "velocity": 61}, {"time": 19121, "pitch": 66, "duration": 30, "velocity": 61}, {"time": 19121, "pitch": 69, "duration": 30, "velocity": 74}, {"time": 19121, "pitch": 73, "duration": 30, "velocity": 74}, {"time": 19197, "pitch": 64, "duration": 151, "velocity": 75}, {"time": 19197, "pitch": 66, "duration": 151, "velocity": 52}, {"time": 19197, "pitch": 69, "duration": 151, "velocity": 36}, {"time": 19197, "pitch": 69, "duration": 151, "velocity": 70}, {"time": 19197, "pitch": 73, "duration": 151, "velocity": 15}, {"time": 19361, "pitch": 64, "duration": 30, "velocity": 67}, {"time": 19361, "pitch": 66, "duration": 30, "velocity": 73}, {"time": 19361, "pitch": 69, "duration": 30, "velocity": 76}, {"time": 19361, "pitch": 73, "duration": 30, "velocity": 64}, {"time": 19920, "pitch": 62, "duration": 150, "velocity": 76}, {"time": 19920, "pitch": 64, "duration": 150, "velocity": 74}, {"time": 19920, "pitch": 67, "duration": 150, "velocity": 75}, {"time": 19920, "pitch": 71, "duration": 150, "velocity": 52}, {"time": 20083, "pitch": 62, "duration": 31, "velocity": 73}, {"time": 20083, "pitch": 64, "duration": 31, "velocity": 77}, {"time": 20083, "pitch": 67, "duration": 31, "velocity": 69}, {"time": 20083, "pitch": 71, "duration": 31, "velocity": 46}, {"time": 20161, "pitch": 62, "duration": 30, "velocity": 56}, {"time": 20161, "pitch": 64, "duration": 30, "velocity": 70}, {"time": 20161, "pitch": 67, "duration": 30, "velocity": 69}, {"time": 20161, "pitch": 71, "duration": 30, "velocity": 69}, {"time": 20324, "pitch": 62, "duration": 30, "velocity": 58}, {"time": 20324, "pitch": 64, "duration": 30, "velocity": 68}, {"time": 20324, "pitch": 67, "duration": 30, "velocity": 64}, {"time": 20324, "pitch": 71, "duration": 30, "velocity": 74}, {"time": 20565, "pitch": 62, "duration": 30, "velocity": 79}, {"time": 20565, "pitch": 64, "duration": 30, "velocity": 84}, {"time": 20565, "pitch": 67, "duration": 30, "velocity": 77}, {"time": 20565, "pitch": 71, "duration": 30, "velocity": 62}, {"time": 20803, "pitch": 62, "duration": 30, "velocity": 72}, {"time": 20803, "pitch": 64, "duration": 30, "velocity": 70}, {"time": 20803, "pitch": 67, "duration": 30, "velocity": 77}, {"time": 20803, "pitch": 71, "duration": 30, "velocity": 64}, {"time": 21040, "pitch": 62, "duration": 30, "velocity": 74}, {"time": 21040, "pitch": 64, "duration": 30, "velocity": 71}, {"time": 21040, "pitch": 67, "duration": 30, "velocity": 68}, {"time": 21040, "pitch": 71, "duration": 30, "velocity": 52}, {"time": 21116, "pitch": 62, "duration": 151, "velocity": 62}, {"time": 21116, "pitch": 64, "duration": 151, "velocity": 69}, {"time": 21116, "pitch": 67, "duration": 151, "velocity": 80}, {"time": 21116, "pitch": 71, "duration": 151, "velocity": 79}, {"time": 21280, "pitch": 62, "duration": 30, "velocity": 46}, {"time": 21280, "pitch": 64, "duration": 30, "velocity": 64}, {"time": 21280, "pitch": 67, "duration": 30, "velocity": 81}, {"time": 21280, "pitch": 71, "duration": 30, "velocity": 77}, {"time": 21839, "pitch": 54, "duration": 286, "velocity": 98}, {"time": 21839, "pitch": 57, "duration": 287, "velocity": 94}, {"time": 21839, "pitch": 61, "duration": 297, "velocity": 89}, {"time": 21839, "pitch": 64, "duration": 287, "velocity": 89}, {"time": 22214, "pitch": 54, "duration": 354, "velocity": 84}, {"time": 22214, "pitch": 57, "duration": 357, "velocity": 94}, {"time": 22214, "pitch": 61, "duration": 360, "velocity": 88}, {"time": 22214, "pitch": 64, "duration": 362, "velocity": 94}, {"time": 22562, "pitch": 55, "duration": 18, "velocity": 100}, {"time": 22562, "pitch": 59, "duration": 27, "velocity": 86}, {"time": 22562, "pitch": 62, "duration": 20, "velocity": 98}, {"time": 22562, "pitch": 66, "duration": 27, "velocity": 69}, {"time": 22803, "pitch": 55, "duration": 714, "velocity": 100}, {"time": 22803, "pitch": 59, "duration": 714, "velocity": 88}, {"time": 22803, "pitch": 62, "duration": 714, "velocity": 98}, {"time": 22803, "pitch": 66, "duration": 714, "velocity": 85}, {"time": 23758, "pitch": 62, "duration": 151, "velocity": 76}, {"time": 23758, "pitch": 64, "duration": 151, "velocity": 74}, {"time": 23758, "pitch": 67, "duration": 151, "velocity": 75}, {"time": 23758, "pitch": 71, "duration": 151, "velocity": 52}, {"time": 23922, "pitch": 62, "duration": 30, "velocity": 73}, {"time": 23922, "pitch": 64, "duration": 30, "velocity": 77}, {"time": 23922, "pitch": 67, "duration": 30, "velocity": 69}, {"time": 23922, "pitch": 71, "duration": 30, "velocity": 46}, {"time": 23999, "pitch": 62, "duration": 30, "velocity": 56}, {"time": 23999, "pitch": 64, "duration": 30, "velocity": 70}, {"time": 23999, "pitch": 67, "duration": 30, "velocity": 69}, {"time": 23999, "pitch": 71, "duration": 30, "velocity": 69}, {"time": 24163, "pitch": 62, "duration": 30, "velocity": 58}, {"time": 24163, "pitch": 64, "duration": 30, "velocity": 68}, {"time": 24163, "pitch": 67, "duration": 30, "velocity": 64}, {"time": 24163, "pitch": 71, "duration": 30, "velocity": 74}, {"time": 24404, "pitch": 62, "duration": 30, "velocity": 79}, {"time": 24404, "pitch": 64, "duration": 30, "velocity": 84}, {"time": 24404, "pitch": 67, "duration": 30, "velocity": 77}, {"time": 24404, "pitch": 71, "duration": 30, "velocity": 62}, {"time": 24645, "pitch": 62, "duration": 30, "velocity": 72}, {"time": 24645, "pitch": 64, "duration": 30, "velocity": 70}, {"time": 24645, "pitch": 67, "duration": 30, "velocity": 77}, {"time": 24645, "pitch": 71, "duration": 30, "velocity": 64}, {"time": 24885, "pitch": 62, "duration": 31, "velocity": 74}, {"time": 24885, "pitch": 64, "duration": 31, "velocity": 71}, {"time": 24885, "pitch": 67, "duration": 31, "velocity": 68}, {"time": 24885, "pitch": 71, "duration": 31, "velocity": 52}, {"time": 24963, "pitch": 62, "duration": 148, "velocity": 62}, {"time": 24963, "pitch": 64, "duration": 148, "velocity": 69}, {"time": 24963, "pitch": 67, "duration": 148, "velocity": 80}, {"time": 24963, "pitch": 71, "duration": 148, "velocity": 79}, {"time": 25124, "pitch": 62, "duration": 29, "velocity": 46}, {"time": 25124, "pitch": 64, "duration": 29, "velocity": 64}, {"time": 25124, "pitch": 67, "duration": 29, "velocity": 81}, {"time": 25124, "pitch": 71, "duration": 29, "velocity": 77}, {"time": 25677, "pitch": 64, "duration": 151, "velocity": 84}, {"time": 25677, "pitch": 66, "duration": 151, "velocity": 71}, {"time": 25677, "pitch": 69, "duration": 151, "velocity": 81}, {"time": 25677, "pitch": 73, "duration": 151, "velocity": 62}, {"time": 25841, "pitch": 64, "duration": 30, "velocity": 64}, {"time": 25841, "pitch": 66, "duration": 30, "velocity": 61}, {"time": 25841, "pitch": 69, "duration": 30, "velocity": 72}, {"time": 25841, "pitch": 73, "duration": 30, "velocity": 50}, {"time": 25918, "pitch": 64, "duration": 30, "velocity": 66}, {"time": 25918, "pitch": 66, "duration": 30, "velocity": 51}, {"time": 25918, "pitch": 69, "duration": 30, "velocity": 79}, {"time": 25918, "pitch": 73, "duration": 30, "velocity": 38}, {"time": 26082, "pitch": 64, "duration": 30, "velocity": 72}, {"time": 26082, "pitch": 66, "duration": 30, "velocity": 61}, {"time": 26082, "pitch": 69, "duration": 30, "velocity": 73}, {"time": 26082, "pitch": 73, "duration": 30, "velocity": 40}, {"time": 26323, "pitch": 64, "duration": 30, "velocity": 79}, {"time": 26323, "pitch": 66, "duration": 30, "velocity": 83}, {"time": 26323, "pitch": 69, "duration": 30, "velocity": 83}, {"time": 26323, "pitch": 73, "duration": 30, "velocity": 71}, {"time": 26564, "pitch": 64, "duration": 30, "velocity": 67}, {"time": 26564, "pitch": 66, "duration": 30, "velocity": 65}, {"time": 26564, "pitch": 69, "duration": 30, "velocity": 79}, {"time": 26564, "pitch": 73, "duration": 30, "velocity": 50}, {"time": 26805, "pitch": 64, "duration": 30, "velocity": 61}, {"time": 26805, "pitch": 66, "duration": 30, "velocity": 61}, {"time": 26805, "pitch": 69, "duration": 30, "velocity": 74}, {"time": 26805, "pitch": 73, "duration": 30, "velocity": 74}, {"time": 26882, "pitch": 64, "duration": 150, "velocity": 75}, {"time": 26882, "pitch": 66, "duration": 150, "velocity": 52}, {"time": 26882, "pitch": 69, "duration": 150, "velocity": 36}, {"time": 26882, "pitch": 69, "duration": 150, "velocity": 70}, {"time": 26882, "pitch": 73, "duration": 150, "velocity": 15}, {"time": 27045, "pitch": 64, "duration": 31, "velocity": 67}, {"time": 27045, "pitch": 66, "duration": 31, "velocity": 73}, {"time": 27045, "pitch": 69, "duration": 31, "velocity": 76}, {"time": 27045, "pitch": 73, "duration": 31, "velocity": 64}, {"time": 27601, "pitch": 62, "duration": 148, "velocity": 76}, {"time": 27601, "pitch": 64, "duration": 148, "velocity": 74}, {"time": 27601, "pitch": 67, "duration": 148, "velocity": 75}, {"time": 27601, "pitch": 71, "duration": 148, "velocity": 52}, {"time": 27762, "pitch": 62, "duration": 29, "velocity": 73}, {"time": 27762, "pitch": 64, "duration": 29, "velocity": 77}, {"time": 27762, "pitch": 67, "duration": 29, "velocity": 69}, {"time": 27762, "pitch": 71, "duration": 29, "velocity": 46}, {"time": 27838, "pitch": 62, "duration": 30, "velocity": 56}, {"time": 27838, "pitch": 64, "duration": 30, "velocity": 70}, {"time": 27838, "pitch": 67, "duration": 30, "velocity": 69}, {"time": 27838, "pitch": 71, "duration": 30, "velocity": 69}, {"time": 28001, "pitch": 62, "duration": 30, "velocity": 58}, {"time": 28001, "pitch": 64, "duration": 30, "velocity": 68}, {"time": 28001, "pitch": 67, "duration": 30, "velocity": 64}, {"time": 28001, "pitch": 71, "duration": 30, "velocity": 74}, {"time": 28242, "pitch": 62, "duration": 30, "velocity": 79}, {"time": 28242, "pitch": 64, "duration": 30, "velocity": 84}, {"time": 28242, "pitch": 67, "duration": 30, "velocity": 77}, {"time": 28242, "pitch": 71, "duration": 30, "velocity": 62}, {"time": 28483, "pitch": 62, "duration": 30, "velocity": 72}, {"time": 28483, "pitch": 64, "duration": 30, "velocity": 70}, {"time": 28483, "pitch": 67, "duration": 30, "velocity": 77}, {"time": 28483, "pitch": 71, "duration": 30, "velocity": 64}, {"time": 28724, "pitch": 62, "duration": 30, "velocity": 74}, {"time": 28724, "pitch": 64, "duration": 30, "velocity": 71}, {"time": 28724, "pitch": 67, "duration": 30, "velocity": 68}, {"time": 28724, "pitch": 71, "duration": 30, "velocity": 52}, {"time": 28801, "pitch": 62, "duration": 151, "velocity": 62}, {"time": 28801, "pitch": 64, "duration": 151, "velocity": 69}, {"time": 28801, "pitch": 67, "duration": 151, "velocity": 80}, {"time": 28801, "pitch": 71, "duration": 151, "velocity": 79}, {"time": 28965, "pitch": 62, "duration": 30, "velocity": 46}, {"time": 28965, "pitch": 64, "duration": 30, "velocity": 64}, {"time": 28965, "pitch": 67, "duration": 30, "velocity": 81}, {"time": 28965, "pitch": 71, "duration": 30, "velocity": 77}, {"time": 29520, "pitch": 61, "duration": 148, "velocity": 84}, {"time": 29520, "pitch": 62, "duration": 148, "velocity": 71}, {"time": 29520, "pitch": 66, "duration": 148, "velocity": 81}, {"time": 29520, "pitch": 69, "duration": 148, "velocity": 62}, {"time": 29681, "pitch": 61, "duration": 29, "velocity": 64}, {"time": 29681, "pitch": 62, "duration": 29, "velocity": 61}, {"time": 29681, "pitch": 66, "duration": 29, "velocity": 72}, {"time": 29681, "pitch": 69, "duration": 29, "velocity": 50}, {"time": 29757, "pitch": 61, "duration": 30, "velocity": 66}, {"time": 29757, "pitch": 62, "duration": 30, "velocity": 51}, {"time": 29757, "pitch": 66, "duration": 30, "velocity": 79}, {"time": 29757, "pitch": 69, "duration": 30, "velocity": 38}, {"time": 29920, "pitch": 61, "duration": 30, "velocity": 72}, {"time": 29920, "pitch": 62, "duration": 30, "velocity": 61}, {"time": 29920, "pitch": 66, "duration": 30, "velocity": 73}, {"time": 29920, "pitch": 69, "duration": 30, "velocity": 40}, {"time": 30161, "pitch": 61, "duration": 30, "velocity": 79}, {"time": 30161, "pitch": 62, "duration": 30, "velocity": 83}, {"time": 30161, "pitch": 66, "duration": 30, "velocity": 83}, {"time": 30161, "pitch": 69, "duration": 30, "velocity": 71}, {"time": 30402, "pitch": 61, "duration": 30, "velocity": 67}, {"time": 30402, "pitch": 62, "duration": 30, "velocity": 65}, {"time": 30402, "pitch": 66, "duration": 30, "velocity": 79}, {"time": 30402, "pitch": 69, "duration": 30, "velocity": 50}, {"time": 30643, "pitch": 61, "duration": 30, "velocity": 61}, {"time": 30643, "pitch": 62, "duration": 30, "velocity": 61}, {"time": 30643, "pitch": 66, "duration": 30, "velocity": 74}, {"time": 30643, "pitch": 69, "duration": 30, "velocity": 74}, {"time": 30720, "pitch": 61, "duration": 151, "velocity": 75}, {"time": 30720, "pitch": 62, "duration": 151, "velocity": 52}, {"time": 30720, "pitch": 66, "duration": 151, "velocity": 36}, {"time": 30720, "pitch": 66, "duration": 151, "velocity": 70}, {"time": 30720, "pitch": 69, "duration": 151, "velocity": 15}, {"time": 30884, "pitch": 61, "duration": 30, "velocity": 67}, {"time": 30884, "pitch": 62, "duration": 30, "velocity": 73}, {"time": 30884, "pitch": 66, "duration": 30, "velocity": 76}, {"time": 30884, "pitch": 69, "duration": 30, "velocity": 64}, {"time": 31443, "pitch": 62, "duration": 150, "velocity": 76}, {"time": 31443, "pitch": 64, "duration": 150, "velocity": 74}, {"time": 31443, "pitch": 67, "duration": 150, "velocity": 75}, {"time": 31443, "pitch": 71, "duration": 150, "velocity": 52}, {"time": 31607, "pitch": 62, "duration": 30, "velocity": 73}, {"time": 31607, "pitch": 64, "duration": 30, "velocity": 77}, {"time": 31607, "pitch": 67, "duration": 30, "velocity": 69}, {"time": 31607, "pitch": 71, "duration": 30, "velocity": 46}, {"time": 31684, "pitch": 62, "duration": 29, "velocity": 56}, {"time": 31684, "pitch": 64, "duration": 29, "velocity": 70}, {"time": 31684, "pitch": 67, "duration": 29, "velocity": 69}, {"time": 31684, "pitch": 71, "duration": 29, "velocity": 69}, {"time": 31845, "pitch": 62, "duration": 29, "velocity": 58}, {"time": 31845, "pitch": 64, "duration": 29, "velocity": 68}, {"time": 31845, "pitch": 67, "duration": 29, "velocity": 64}, {"time": 31845, "pitch": 71, "duration": 29, "velocity": 74}, {"time": 32082, "pitch": 62, "duration": 29, "velocity": 79}, {"time": 32082, "pitch": 64, "duration": 29, "velocity": 84}, {"time": 32082, "pitch": 67, "duration": 29, "velocity": 77}, {"time": 32082, "pitch": 71, "duration": 29, "velocity": 62}, {"time": 32321, "pitch": 62, "duration": 30, "velocity": 72}, {"time": 32321, "pitch": 64, "duration": 30, "velocity": 70}, {"time": 32321, "pitch": 67, "duration": 30, "velocity": 77}, {"time": 32321, "pitch": 71, "duration": 30, "velocity": 64}, {"time": 32562, "pitch": 62, "duration": 30, "velocity": 74}, {"time": 32562, "pitch": 64, "duration": 30, "velocity": 71}, {"time": 32562, "pitch": 67, "duration": 30, "velocity": 68}, {"time": 32562, "pitch": 71, "duration": 30, "velocity": 52}, {"time": 32639, "pitch": 62, "duration": 151, "velocity": 62}, {"time": 32639, "pitch": 64, "duration": 151, "velocity": 69}, {"time": 32639, "pitch": 67, "duration": 151, "velocity": 80}, {"time": 32639, "pitch": 71, "duration": 151, "velocity": 79}, {"time": 32803, "pitch": 62, "duration": 30, "velocity": 46}, {"time": 32803, "pitch": 64, "duration": 30, "velocity": 64}, {"time": 32803, "pitch": 67, "duration": 30, "velocity": 81}, {"time": 32803, "pitch": 71, "duration": 30, "velocity": 77}, {"time": 33362, "pitch": 64, "duration": 151, "velocity": 84}, {"time": 33362, "pitch": 66, "duration": 151, "velocity": 71}, {"time": 33362, "pitch": 69, "duration": 151, "velocity": 81}, {"time": 33362, "pitch": 73, "duration": 151, "velocity": 62}, {"time": 33526, "pitch": 64, "duration": 30, "velocity": 64}, {"time": 33526, "pitch": 66, "duration": 30, "velocity": 61}, {"time": 33526, "pitch": 69, "duration": 30, "velocity": 72}, {"time": 33526, "pitch": 73, "duration": 30, "velocity": 50}, {"time": 33603, "pitch": 64, "duration": 30, "velocity": 66}, {"time": 33603, "pitch": 66, "duration": 30, "velocity": 51}, {"time": 33603, "pitch": 69, "duration": 30, "velocity": 79}, {"time": 33603, "pitch": 73, "duration": 30, "velocity": 38}, {"time": 33764, "pitch": 64, "duration": 30, "velocity": 72}, {"time": 33764, "pitch": 66, "duration": 30, "velocity": 61}, {"time": 33764, "pitch": 69, "duration": 30, "velocity": 73}, {"time": 33764, "pitch": 73, "duration": 30, "velocity": 40}, {"time": 34001, "pitch": 63, "duration": 30, "velocity": 79}, {"time": 34001, "pitch": 65, "duration": 30, "velocity": 83}, {"time": 34001, "pitch": 69, "duration": 30, "velocity": 83}, {"time": 34001, "pitch": 72, "duration": 30, "velocity": 71}, {"time": 34240, "pitch": 63, "duration": 31, "velocity": 67}, {"time": 34240, "pitch": 65, "duration": 31, "velocity": 65}, {"time": 34240, "pitch": 69, "duration": 31, "velocity": 79}, {"time": 34240, "pitch": 72, "duration": 31, "velocity": 50}, {"time": 34481, "pitch": 63, "duration": 30, "velocity": 61}, {"time": 34481, "pitch": 65, "duration": 30, "velocity": 61}, {"time": 34481, "pitch": 69, "duration": 30, "velocity": 74}, {"time": 34481, "pitch": 72, "duration": 30, "velocity": 74}, {"time": 34559, "pitch": 63, "duration": 150, "velocity": 75}, {"time": 34559, "pitch": 65, "duration": 150, "velocity": 52}, {"time": 34559, "pitch": 69, "duration": 150, "velocity": 36}, {"time": 34559, "pitch": 69, "duration": 150, "velocity": 70}, {"time": 34559, "pitch": 72, "duration": 150, "velocity": 15}, {"time": 34722, "pitch": 63, "duration": 30, "velocity": 67}, {"time": 34722, "pitch": 65, "duration": 30, "velocity": 73}, {"time": 34722, "pitch": 69, "duration": 30, "velocity": 76}, {"time": 34722, "pitch": 72, "duration": 30, "velocity": 64}, {"time": 35281, "pitch": 62, "duration": 151, "velocity": 76}, {"time": 35281, "pitch": 64, "duration": 151, "velocity": 74}, {"time": 35281, "pitch": 67, "duration": 151, "velocity": 75}, {"time": 35281, "pitch": 71, "duration": 151, "velocity": 52}, {"time": 35445, "pitch": 62, "duration": 30, "velocity": 73}, {"time": 35445, "pitch": 64, "duration": 30, "velocity": 77}, {"time": 35445, "pitch": 67, "duration": 30, "velocity": 69}, {"time": 35445, "pitch": 71, "duration": 30, "velocity": 46}, {"time": 35522, "pitch": 62, "duration": 30, "velocity": 56}, {"time": 35522, "pitch": 64, "duration": 30, "velocity": 70}, {"time": 35522, "pitch": 67, "duration": 30, "velocity": 69}, {"time": 35522, "pitch": 71, "duration": 30, "velocity": 69}, {"time": 35683, "pitch": 62, "duration": 30, "velocity": 58}, {"time": 35683, "pitch": 64, "duration": 30, "velocity": 68}, {"time": 35683, "pitch": 67, "duration": 30, "velocity": 64}, {"time": 35683, "pitch": 71, "duration": 30, "velocity": 74}, {"time": 35920, "pitch": 61, "duration": 30, "velocity": 79}, {"time": 35920, "pitch": 66, "duration": 30, "velocity": 84}, {"time": 35920, "pitch": 69, "duration": 30, "velocity": 77}, {"time": 35920, "pitch": 73, "duration": 30, "velocity": 62}, {"time": 36160, "pitch": 61, "duration": 30, "velocity": 72}, {"time": 36160, "pitch": 66, "duration": 30, "velocity": 70}, {"time": 36160, "pitch": 69, "duration": 30, "velocity": 77}, {"time": 36160, "pitch": 73, "duration": 30, "velocity": 64}, {"time": 36401, "pitch": 61, "duration": 30, "velocity": 74}, {"time": 36401, "pitch": 66, "duration": 30, "velocity": 71}, {"time": 36401, "pitch": 69, "duration": 30, "velocity": 68}, {"time": 36401, "pitch": 73, "duration": 30, "velocity": 52}, {"time": 36478, "pitch": 61, "duration": 150, "velocity": 62}, {"time": 36478, "pitch": 66, "duration": 150, "velocity": 69}, {"time": 36478, "pitch": 69, "duration": 150, "velocity": 80}, {"time": 36478, "pitch": 73, "duration": 150, "velocity": 79}, {"time": 36641, "pitch": 61, "duration": 31, "velocity": 46}, {"time": 36641, "pitch": 66, "duration": 31, "velocity": 64}, {"time": 36641, "pitch": 69, "duration": 31, "velocity": 81}, {"time": 36641, "pitch": 73, "duration": 31, "velocity": 77}, {"time": 37201, "pitch": 59, "duration": 60, "velocity": 82}, {"time": 37201, "pitch": 62, "duration": 68, "velocity": 83}, {"time": 37201, "pitch": 66, "duration": 76, "velocity": 75}, {"time": 37201, "pitch": 69, "duration": 71, "velocity": 75}, {"time": 37576, "pitch": 57, "duration": 316, "velocity": 84}, {"time": 37576, "pitch": 60, "duration": 311, "velocity": 78}, {"time": 37576, "pitch": 64, "duration": 309, "velocity": 75}, {"time": 37576, "pitch": 67, "duration": 327, "velocity": 71}, {"time": 37923, "pitch": 59, "duration": 52, "velocity": 82}, {"time": 37923, "pitch": 62, "duration": 58, "velocity": 85}, {"time": 37923, "pitch": 66, "duration": 81, "velocity": 79}, {"time": 37923, "pitch": 69, "duration": 76, "velocity": 75}, {"time": 39120, "pitch": 62, "duration": 150, "velocity": 76}, {"time": 39120, "pitch": 64, "duration": 150, "velocity": 74}, {"time": 39120, "pitch": 67, "duration": 150, "velocity": 75}, {"time": 39120, "pitch": 71, "duration": 150, "velocity": 52}, {"time": 39283, "pitch": 62, "duration": 30, "velocity": 73}, {"time": 39283, "pitch": 64, "duration": 30, "velocity": 77}, {"time": 39283, "pitch": 67, "duration": 30, "velocity": 69}, {"time": 39283, "pitch": 71, "duration": 30, "velocity": 46}, {"time": 39361, "pitch": 62, "duration": 30, "velocity": 56}, {"time": 39361, "pitch": 64, "duration": 30, "velocity": 70}, {"time": 39361, "pitch": 67, "duration": 30, "velocity": 69}, {"time": 39361, "pitch": 71, "duration": 30, "velocity": 69}, {"time": 39524, "pitch": 62, "duration": 30, "velocity": 58}, {"time": 39524, "pitch": 64, "duration": 30, "velocity": 68}, {"time": 39524, "pitch": 67, "duration": 30, "velocity": 64}, {"time": 39524, "pitch": 71, "duration": 30, "velocity": 74}, {"time": 39765, "pitch": 62, "duration": 30, "velocity": 79}, {"time": 39765, "pitch": 64, "duration": 30, "velocity": 84}, {"time": 39765, "pitch": 67, "duration": 30, "velocity": 77}, {"time": 39765, "pitch": 71, "duration": 30, "velocity": 62}, {"time": 40003, "pitch": 62, "duration": 30, "velocity": 72}, {"time": 40003, "pitch": 64, "duration": 30, "velocity": 70}, {"time": 40003, "pitch": 67, "duration": 30, "velocity": 77}, {"time": 40003, "pitch": 71, "duration": 30, "velocity": 64}, {"time": 40240, "pitch": 62, "duration": 30, "velocity": 74}, {"time": 40240, "pitch": 64, "duration": 30, "velocity": 71}, {"time": 40240, "pitch": 67, "duration": 30, "velocity": 68}, {"time": 40240, "pitch": 71, "duration": 30, "velocity": 52}, {"time": 40316, "pitch": 62, "duration": 151, "velocity": 62}, {"time": 40316, "pitch": 64, "duration": 151, "velocity": 69}, {"time": 40316, "pitch": 67, "duration": 151, "velocity": 80}, {"time": 40316, "pitch": 71, "duration": 151, "velocity": 79}, {"time": 40480, "pitch": 62, "duration": 30, "velocity": 46}, {"time": 40480, "pitch": 64, "duration": 30, "velocity": 64}, {"time": 40480, "pitch": 67, "duration": 30, "velocity": 81}, {"time": 40480, "pitch": 71, "duration": 30, "velocity": 77}, {"time": 41039, "pitch": 64, "duration": 150, "velocity": 84}, {"time": 41039, "pitch": 66, "duration": 150, "velocity": 71}, {"time": 41039, "pitch": 69, "duration": 150, "velocity": 81}, {"time": 41039, "pitch": 73, "duration": 150, "velocity": 62}, {"time": 41202, "pitch": 64, "duration": 31, "velocity": 64}, {"time": 41202, "pitch": 66, "duration": 31, "velocity": 61}, {"time": 41202, "pitch": 69, "duration": 31, "velocity": 72}, {"time": 41202, "pitch": 73, "duration": 31, "velocity": 50}, {"time": 41280, "pitch": 64, "duration": 30, "velocity": 66}, {"time": 41280, "pitch": 66, "duration": 30, "velocity": 51}, {"time": 41280, "pitch": 69, "duration": 30, "velocity": 79}, {"time": 41280, "pitch": 73, "duration": 30, "velocity": 38}, {"time": 41443, "pitch": 64, "duration": 30, "velocity": 72}, {"time": 41443, "pitch": 66, "duration": 30, "velocity": 61}, {"time": 41443, "pitch": 69, "duration": 30, "velocity": 73}, {"time": 41443, "pitch": 73, "duration": 30, "velocity": 40}, {"time": 41684, "pitch": 64, "duration": 30, "velocity": 79}, {"time": 41684, "pitch": 66, "duration": 30, "velocity": 83}, {"time": 41684, "pitch": 69, "duration": 30, "velocity": 83}, {"time": 41684, "pitch": 73, "duration": 30, "velocity": 71}, {"time": 41925, "pitch": 64, "duration": 30, "velocity": 67}, {"time": 41925, "pitch": 66, "duration": 30, "velocity": 65}, {"time": 41925, "pitch": 69, "duration": 30, "velocity": 79}, {"time": 41925, "pitch": 73, "duration": 30, "velocity": 50}, {"time": 42166, "pitch": 64, "duration": 30, "velocity": 61}, {"time": 42166, "pitch": 66, "duration": 30, "velocity": 61}, {"time": 42166, "pitch": 69, "duration": 30, "velocity": 74}, {"time": 42166, "pitch": 73, "duration": 30, "velocity": 74}, {"time": 42243, "pitch": 64, "duration": 148, "velocity": 75}, {"time": 42243, "pitch": 66, "duration": 148, "velocity": 52}, {"time": 42243, "pitch": 69, "duration": 148, "velocity": 36}, {"time": 42243, "pitch": 69, "duration": 148, "velocity": 70}, {"time": 42243, "pitch": 73, "duration": 148, "velocity": 15}, {"time": 42404, "pitch": 64, "duration": 30, "velocity": 67}, {"time": 42404, "pitch": 66, "duration": 30, "velocity": 73}, {"time": 42404, "pitch": 69, "duration": 30, "velocity": 76}, {"time": 42404, "pitch": 73, "duration": 30, "velocity": 64}, {"time": 42958, "pitch": 62, "duration": 151, "velocity": 76}, {"time": 42958, "pitch": 64, "duration": 151, "velocity": 74}, {"time": 42958, "pitch": 67, "duration": 151, "velocity": 75}, {"time": 42958, "pitch": 71, "duration": 151, "velocity": 52}, {"time": 43122, "pitch": 62, "duration": 30, "velocity": 73}, {"time": 43122, "pitch": 64, "duration": 30, "velocity": 77}, {"time": 43122, "pitch": 67, "duration": 30, "velocity": 69}, {"time": 43122, "pitch": 71, "duration": 30, "velocity": 46}, {"time": 43199, "pitch": 62, "duration": 30, "velocity": 56}, {"time": 43199, "pitch": 64, "duration": 30, "velocity": 70}, {"time": 43199, "pitch": 67, "duration": 30, "velocity": 69}, {"time": 43199, "pitch": 71, "duration": 30, "velocity": 69}, {"time": 43363, "pitch": 62, "duration": 30, "velocity": 58}, {"time": 43363, "pitch": 64, "duration": 30, "velocity": 68}, {"time": 43363, "pitch": 67, "duration": 30, "velocity": 64}, {"time": 43363, "pitch": 71, "duration": 30, "velocity": 74}, {"time": 43603, "pitch": 62, "duration": 31, "velocity": 79}, {"time": 43603, "pitch": 64, "duration": 31, "velocity": 84}, {"time": 43603, "pitch": 67, "duration": 31, "velocity": 77}, {"time": 43603, "pitch": 71, "duration": 31, "velocity": 62}, {"time": 43844, "pitch": 62, "duration": 30, "velocity": 72}, {"time": 43844, "pitch": 64, "duration": 30, "velocity": 70}, {"time": 43844, "pitch": 67, "duration": 30, "velocity": 77}, {"time": 43844, "pitch": 71, "duration": 30, "velocity": 64}, {"time": 44085, "pitch": 62, "duration": 30, "velocity": 74}, {"time": 44085, "pitch": 64, "duration": 30, "velocity": 71}, {"time": 44085, "pitch": 67, "duration": 30, "velocity": 68}, {"time": 44085, "pitch": 71, "duration": 30, "velocity": 52}, {"time": 44162, "pitch": 62, "duration": 149, "velocity": 62}, {"time": 44162, "pitch": 64, "duration": 149, "velocity": 69}, {"time": 44162, "pitch": 67, "duration": 149, "velocity": 80}, {"time": 44162, "pitch": 71, "duration": 149, "velocity": 79}, {"time": 44323, "pitch": 62, "duration": 30, "velocity": 46}, {"time": 44323, "pitch": 64, "duration": 30, "velocity": 64}, {"time": 44323, "pitch": 67, "duration": 30, "velocity": 81}, {"time": 44323, "pitch": 71, "duration": 30, "velocity": 77}, {"time": 44877, "pitch": 61, "duration": 151, "velocity": 84}, {"time": 44877, "pitch": 62, "duration": 151, "velocity": 71}, {"time": 44877, "pitch": 66, "duration": 151, "velocity": 81}, {"time": 44877, "pitch": 69, "duration": 151, "velocity": 62}, {"time": 45041, "pitch": 61, "duration": 30, "velocity": 64}, {"time": 45041, "pitch": 62, "duration": 30, "velocity": 61}, {"time": 45041, "pitch": 66, "duration": 30, "velocity": 72}, {"time": 45041, "pitch": 69, "duration": 30, "velocity": 50}, {"time": 45118, "pitch": 61, "duration": 30, "velocity": 66}, {"time": 45118, "pitch": 62, "duration": 30, "velocity": 51}, {"time": 45118, "pitch": 66, "duration": 30, "velocity": 79}, {"time": 45118, "pitch": 69, "duration": 30, "velocity": 38}, {"time": 45282, "pitch": 61, "duration": 30, "velocity": 72}, {"time": 45282, "pitch": 62, "duration": 30, "velocity": 61}, {"time": 45282, "pitch": 66, "duration": 30, "velocity": 73}, {"time": 45282, "pitch": 69, "duration": 30, "velocity": 40}, {"time": 45523, "pitch": 61, "duration": 30, "velocity": 79}, {"time": 45523, "pitch": 62, "duration": 30, "velocity": 83}, {"time": 45523, "pitch": 66, "duration": 30, "velocity": 83}, {"time": 45523, "pitch": 69, "duration": 30, "velocity": 71}, {"time": 45764, "pitch": 61, "duration": 30, "velocity": 67}, {"time": 45764, "pitch": 62, "duration": 30, "velocity": 65}, {"time": 45764, "pitch": 66, "duration": 30, "velocity": 79}, {"time": 45764, "pitch": 69, "duration": 30, "velocity": 50}, {"time": 46004, "pitch": 61, "duration": 31, "velocity": 61}, {"time": 46004, "pitch": 62, "duration": 31, "velocity": 61}, {"time": 46004, "pitch": 66, "duration": 31, "velocity": 74}, {"time": 46004, "pitch": 69, "duration": 31, "velocity": 74}, {"time": 46082, "pitch": 61, "duration": 150, "velocity": 75}, {"time": 46082, "pitch": 62, "duration": 150, "velocity": 52}, {"time": 46082, "pitch": 66, "duration": 150, "velocity": 36}, {"time": 46082, "pitch": 66, "duration": 150, "velocity": 70}, {"time": 46082, "pitch": 69, "duration": 150, "velocity": 15}, {"time": 46245, "pitch": 61, "duration": 30, "velocity": 67}, {"time": 46245, "pitch": 62, "duration": 30, "velocity": 73}, {"time": 46245, "pitch": 66, "duration": 30, "velocity": 76}, {"time": 46245, "pitch": 69, "duration": 30, "velocity": 64}, {"time": 46800, "pitch": 62, "duration": 149, "velocity": 76}, {"time": 46800, "pitch": 64, "duration": 149, "velocity": 74}, {"time": 46800, "pitch": 67, "duration": 149, "velocity": 75}, {"time": 46800, "pitch": 71, "duration": 149, "velocity": 52}, {"time": 46961, "pitch": 62, "duration": 30, "velocity": 73}, {"time": 46961, "pitch": 64, "duration": 30, "velocity": 77}, {"time": 46961, "pitch": 67, "duration": 30, "velocity": 69}, {"time": 46961, "pitch": 71, "duration": 30, "velocity": 46}, {"time": 47037, "pitch": 62, "duration": 30, "velocity": 56}, {"time": 47037, "pitch": 64, "duration": 30, "velocity": 70}, {"time": 47037, "pitch": 67, "duration": 30, "velocity": 69}, {"time": 47037, "pitch": 71, "duration": 30, "velocity": 69}, {"time": 47201, "pitch": 62, "duration": 30, "velocity": 58}, {"time": 47201, "pitch": 64, "duration": 30, "velocity": 68}, {"time": 47201, "pitch": 67, "duration": 30, "velocity": 64}, {"time": 47201, "pitch": 71, "duration": 30, "velocity": 74}, {"time": 47442, "pitch": 62, "duration": 30, "velocity": 79}, {"time": 47442, "pitch": 64, "duration": 30, "velocity": 84}, {"time": 47442, "pitch": 67, "duration": 30, "velocity": 77}, {"time": 47442, "pitch": 71, "duration": 30, "velocity": 62}, {"time": 47683, "pitch": 62, "duration": 30, "velocity": 72}, {"time": 47683, "pitch": 64, "duration": 30, "velocity": 70}, {"time": 47683, "pitch": 67, "duration": 30, "velocity": 77}, {"time": 47683, "pitch": 71, "duration": 30, "velocity": 64}, {"time": 47924, "pitch": 62, "duration": 30, "velocity": 74}, {"time": 47924, "pitch": 64, "duration": 30, "velocity": 71}, {"time": 47924, "pitch": 67, "duration": 30, "velocity": 68}, {"time": 47924, "pitch": 71, "duration": 30, "velocity": 52}, {"time": 48001, "pitch": 62, "duration": 150, "velocity": 62}, {"time": 48001, "pitch": 64, "duration": 150, "velocity": 69}, {"time": 48001, "pitch": 67, "duration": 150, "velocity": 80}, {"time": 48001, "pitch": 71, "duration": 150, "velocity": 79}, {"time": 48164, "pitch": 62, "duration": 31, "velocity": 46}, {"time": 48164, "pitch": 64, "duration": 31, "velocity": 64}, {"time": 48164, "pitch": 67, "duration": 31, "velocity": 81}, {"time": 48164, "pitch": 71, "duration": 31, "velocity": 77}, {"time": 48720, "pitch": 64, "duration": 148, "velocity": 84}, {"time": 48720, "pitch": 66, "duration": 148, "velocity": 71}, {"time": 48720, "pitch": 69, "duration": 148, "velocity": 81}, {"time": 48720, "pitch": 73, "duration": 148, "velocity": 62}, {"time": 48881, "pitch": 64, "duration": 29, "velocity": 64}, {"time": 48881, "pitch": 66, "duration": 29, "velocity": 61}, {"time": 48881, "pitch": 69, "duration": 29, "velocity": 72}, {"time": 48881, "pitch": 73, "duration": 29, "velocity": 50}, {"time": 48957, "pitch": 64, "duration": 30, "velocity": 66}, {"time": 48957, "pitch": 66, "duration": 30, "velocity": 51}, {"time": 48957, "pitch": 69, "duration": 30, "velocity": 79}, {"time": 48957, "pitch": 73, "duration": 30, "velocity": 38}, {"time": 49120, "pitch": 64, "duration": 30, "velocity": 72}, {"time": 49120, "pitch": 66, "duration": 30, "velocity": 61}, {"time": 49120, "pitch": 69, "duration": 30, "velocity": 73}, {"time": 49120, "pitch": 73, "duration": 30, "velocity": 40}, {"time": 49361, "pitch": 63, "duration": 30, "velocity": 79}, {"time": 49361, "pitch": 65, "duration": 30, "velocity": 83}, {"time": 49361, "pitch": 69, "duration": 30, "velocity": 83}, {"time": 49361, "pitch": 72, "duration": 30, "velocity": 71}, {"time": 49602, "pitch": 63, "duration": 30, "velocity": 67}, {"time": 49602, "pitch": 65, "duration": 30, "velocity": 65}, {"time": 49602, "pitch": 69, "duration": 30, "velocity": 79}, {"time": 49602, "pitch": 72, "duration": 30, "velocity": 50}, {"time": 49843, "pitch": 63, "duration": 30, "velocity": 61}, {"time": 49843, "pitch": 65, "duration": 30, "velocity": 61}, {"time": 49843, "pitch": 69, "duration": 30, "velocity": 74}, {"time": 49843, "pitch": 72, "duration": 30, "velocity": 74}, {"time": 49920, "pitch": 63, "duration": 151, "velocity": 75}, {"time": 49920, "pitch": 65, "duration": 151, "velocity": 52}, {"time": 49920, "pitch": 69, "duration": 151, "velocity": 36}, {"time": 49920, "pitch": 69, "duration": 151, "velocity": 70}, {"time": 49920, "pitch": 72, "duration": 151, "velocity": 15}, {"time": 50084, "pitch": 63, "duration": 30, "velocity": 67}, {"time": 50084, "pitch": 65, "duration": 30, "velocity": 73}, {"time": 50084, "pitch": 69, "duration": 30, "velocity": 76}, {"time": 50084, "pitch": 72, "duration": 30, "velocity": 64}, {"time": 50643, "pitch": 62, "duration": 150, "velocity": 76}, {"time": 50643, "pitch": 64, "duration": 150, "velocity": 74}, {"time": 50643, "pitch": 67, "duration": 150, "velocity": 75}, {"time": 50643, "pitch": 71, "duration": 150, "velocity": 52}, {"time": 50806, "pitch": 62, "duration": 30, "velocity": 73}, {"time": 50806, "pitch": 64, "duration": 30, "velocity": 77}, {"time": 50806, "pitch": 67, "duration": 30, "velocity": 69}, {"time": 50806, "pitch": 71, "duration": 30, "velocity": 46}, {"time": 50884, "pitch": 62, "duration": 29, "velocity": 56}, {"time": 50884, "pitch": 64, "duration": 29, "velocity": 70}, {"time": 50884, "pitch": 67, "duration": 29, "velocity": 69}, {"time": 50884, "pitch": 71, "duration": 29, "velocity": 69}, {"time": 51045, "pitch": 62, "duration": 29, "velocity": 58}, {"time": 51045, "pitch": 64, "duration": 29, "velocity": 68}, {"time": 51045, "pitch": 67, "duration": 29, "velocity": 64}, {"time": 51045, "pitch": 71, "duration": 29, "velocity": 74}, {"time": 51282, "pitch": 61, "duration": 29, "velocity": 79}, {"time": 51282, "pitch": 66, "duration": 29, "velocity": 84}, {"time": 51282, "pitch": 69, "duration": 29, "velocity": 77}, {"time": 51282, "pitch": 73, "duration": 29, "velocity": 62}, {"time": 51521, "pitch": 61, "duration": 30, "velocity": 72}, {"time": 51521, "pitch": 66, "duration": 30, "velocity": 70}, {"time": 51521, "pitch": 69, "duration": 30, "velocity": 77}, {"time": 51521, "pitch": 73, "duration": 30, "velocity": 64}, {"time": 51762, "pitch": 61, "duration": 30, "velocity": 74}, {"time": 51762, "pitch": 66, "duration": 30, "velocity": 71}, {"time": 51762, "pitch": 69, "duration": 30, "velocity": 68}, {"time": 51762, "pitch": 73, "duration": 30, "velocity": 52}, {"time": 51839, "pitch": 61, "duration": 151, "velocity": 62}, {"time": 51839, "pitch": 66, "duration": 151, "velocity": 69}, {"time": 51839, "pitch": 69, "duration": 151, "velocity": 80}, {"time": 51839, "pitch": 73, "duration": 151, "velocity": 79}, {"time": 52003, "pitch": 61, "duration": 30, "velocity": 46}, {"time": 52003, "pitch": 66, "duration": 30, "velocity": 64}, {"time": 52003, "pitch": 69, "duration": 30, "velocity": 81}, {"time": 52003, "pitch": 73, "duration": 30, "velocity": 77}, {"time": 52562, "pitch": 59, "duration": 60, "velocity": 82}, {"time": 52562, "pitch": 62, "duration": 68, "velocity": 83}, {"time": 52562, "pitch": 66, "duration": 76, "velocity": 75}, {"time": 52562, "pitch": 69, "duration": 71, "velocity": 75}, {"time": 52935, "pitch": 57, "duration": 311, "velocity": 84}, {"time": 52935, "pitch": 60, "duration": 306, "velocity": 78}, {"time": 52935, "pitch": 64, "duration": 304, "velocity": 75}, {"time": 52935, "pitch": 67, "duration": 322, "velocity": 71}, {"time": 53277, "pitch": 59, "duration": 53, "velocity": 82}, {"time": 53277, "pitch": 62, "duration": 59, "velocity": 85}, {"time": 53277, "pitch": 66, "duration": 82, "velocity": 79}, {"time": 53277, "pitch": 69, "duration": 77, "velocity": 75}, {"time": 54240, "pitch": 55, "duration": 690, "velocity": 114}, {"time": 54240, "pitch": 59, "duration": 708, "velocity": 102}, {"time": 54240, "pitch": 62, "duration": 707, "velocity": 105}, {"time": 54240, "pitch": 66, "duration": 698, "velocity": 88}, {"time": 54963, "pitch": 55, "duration": 872, "velocity": 114}, {"time": 54963, "pitch": 59, "duration": 885, "velocity": 102}, {"time": 54963, "pitch": 62, "duration": 892, "velocity": 100}, {"time": 54963, "pitch": 66, "duration": 882, "velocity": 89}, {"time": 55919, "pitch": 55, "duration": 882, "velocity": 110}, {"time": 55919, "pitch": 59, "duration": 893, "velocity": 102}, {"time": 55919, "pitch": 62, "duration": 899, "velocity": 103}, {"time": 55919, "pitch": 66, "duration": 890, "velocity": 92}, {"time": 56882, "pitch": 55, "duration": 1101, "velocity": 103}, {"time": 56882, "pitch": 59, "duration": 1112, "velocity": 105}, {"time": 56882, "pitch": 62, "duration": 1112, "velocity": 110}, {"time": 56882, "pitch": 66, "duration": 1101, "velocity": 88}, {"time": 58079, "pitch": 55, "duration": 642, "velocity": 110}, {"time": 58079, "pitch": 59, "duration": 668, "velocity": 102}, {"time": 58079, "pitch": 62, "duration": 668, "velocity": 96}, {"time": 58079, "pitch": 66, "duration": 652, "velocity": 82}, {"time": 58801, "pitch": 55, "duration": 749, "velocity": 105}, {"time": 58801, "pitch": 59, "duration": 760, "velocity": 102}, {"time": 58801, "pitch": 62, "duration": 766, "velocity": 105}, {"time": 58801, "pitch": 66, "duration": 786, "velocity": 86}, {"time": 59761, "pitch": 54, "duration": 821, "velocity": 107}, {"time": 59761, "pitch": 57, "duration": 790, "velocity": 98}, {"time": 59761, "pitch": 61, "duration": 773, "velocity": 102}, {"time": 59761, "pitch": 64, "duration": 789, "velocity": 92}, {"time": 60720, "pitch": 57, "duration": 1142, "velocity": 110}, {"time": 60720, "pitch": 59, "duration": 1133, "velocity": 100}, {"time": 60720, "pitch": 62, "duration": 1149, "velocity": 105}, {"time": 60720, "pitch": 66, "duration": 1173, "velocity": 82}, {"time": 61917, "pitch": 55, "duration": 690, "velocity": 114}, {"time": 61917, "pitch": 59, "duration": 708, "velocity": 102}, {"time": 61917, "pitch": 62, "duration": 707, "velocity": 105}, {"time": 61917, "pitch": 66, "duration": 698, "velocity": 88}, {"time": 62640, "pitch": 55, "duration": 877, "velocity": 114}, {"time": 62640, "pitch": 59, "duration": 890, "velocity": 102}, {"time": 62640, "pitch": 62, "duration": 897, "velocity": 100}, {"time": 62640, "pitch": 66, "duration": 887, "velocity": 89}, {"time": 63599, "pitch": 55, "duration": 879, "velocity": 110}, {"time": 63599, "pitch": 59, "duration": 890, "velocity": 102}, {"time": 63599, "pitch": 62, "duration": 896, "velocity": 103}, {"time": 63599, "pitch": 66, "duration": 887, "velocity": 92}, {"time": 64559, "pitch": 55, "duration": 1109, "velocity": 103}, {"time": 64559, "pitch": 59, "duration": 1120, "velocity": 105}, {"time": 64559, "pitch": 62, "duration": 1120, "velocity": 110}, {"time": 64559, "pitch": 66, "duration": 1109, "velocity": 88}, {"time": 65763, "pitch": 56, "duration": 509, "velocity": 105}, {"time": 65763, "pitch": 59, "duration": 494, "velocity": 102}, {"time": 65763, "pitch": 63, "duration": 489, "velocity": 102}, {"time": 65763, "pitch": 66, "duration": 527, "velocity": 88}, {"time": 66478, "pitch": 56, "duration": 678, "velocity": 92}, {"time": 66719, "pitch": 59, "duration": 539, "velocity": 86}, {"time": 66960, "pitch": 63, "duration": 255, "velocity": 89}, {"time": 67201, "pitch": 66, "duration": 244, "velocity": 88}, {"time": 67442, "pitch": 56, "duration": 103, "velocity": 72}, {"time": 67682, "pitch": 56, "duration": 561, "velocity": 86}, {"time": 67682, "pitch": 59, "duration": 412, "velocity": 64}, {"time": 67682, "pitch": 63, "duration": 420, "velocity": 87}, {"time": 67682, "pitch": 66, "duration": 439, "velocity": 74}, {"time": 68397, "pitch": 56, "duration": 350, "velocity": 81}, {"time": 68532, "pitch": 59, "duration": 298, "velocity": 87}, {"time": 68773, "pitch": 63, "duration": 261, "velocity": 89}, {"time": 69014, "pitch": 56, "duration": 93, "velocity": 71}, {"time": 69120, "pitch": 66, "duration": 179, "velocity": 96}, {"time": 69254, "pitch": 63, "duration": 125, "velocity": 88}, {"time": 69361, "pitch": 59, "duration": 203, "velocity": 66}, {"time": 69602, "pitch": 55, "duration": 509, "velocity": 112}, {"time": 69602, "pitch": 59, "duration": 514, "velocity": 100}, {"time": 69602, "pitch": 62, "duration": 461, "velocity": 105}, {"time": 69602, "pitch": 66, "duration": 526, "velocity": 91}, {"time": 70320, "pitch": 55, "duration": 199, "velocity": 96}, {"time": 70453, "pitch": 59, "duration": 351, "velocity": 83}, {"time": 70692, "pitch": 62, "duration": 246, "velocity": 91}, {"time": 70933, "pitch": 55, "duration": 261, "velocity": 88}, {"time": 71039, "pitch": 66, "duration": 262, "velocity": 79}, {"time": 71280, "pitch": 55, "duration": 60, "velocity": 76}, {"time": 71521, "pitch": 55, "duration": 54, "velocity": 105}, {"time": 71521, "pitch": 59, "duration": 278, "velocity": 87}, {"time": 71521, "pitch": 62, "duration": 298, "velocity": 103}, {"time": 71521, "pitch": 66, "duration": 300, "velocity": 77}, {"time": 71655, "pitch": 55, "duration": 127, "velocity": 45}, {"time": 72240, "pitch": 55, "duration": 63, "velocity": 85}, {"time": 72240, "pitch": 59, "duration": 29, "velocity": 68}, {"time": 72240, "pitch": 62, "duration": 29, "velocity": 80}, {"time": 72240, "pitch": 66, "duration": 40, "velocity": 48}, {"time": 72372, "pitch": 55, "duration": 28, "velocity": 65}, {"time": 72372, "pitch": 59, "duration": 32, "velocity": 66}, {"time": 72372, "pitch": 62, "duration": 30, "velocity": 84}, {"time": 72372, "pitch": 66, "duration": 35, "velocity": 52}, {"time": 72477, "pitch": 55, "duration": 53, "velocity": 88}, {"time": 72477, "pitch": 59, "duration": 66, "velocity": 86}, {"time": 72477, "pitch": 62, "duration": 34, "velocity": 91}, {"time": 72477, "pitch": 66, "duration": 52, "velocity": 72}, {"time": 72611, "pitch": 55, "duration": 48, "velocity": 107}, {"time": 72611, "pitch": 59, "duration": 19, "velocity": 98}, {"time": 72611, "pitch": 62, "duration": 20, "velocity": 103}, {"time": 72611, "pitch": 66, "duration": 100, "velocity": 76}, {"time": 72958, "pitch": 55, "duration": 18, "velocity": 96}, {"time": 72958, "pitch": 59, "duration": 24, "velocity": 91}, {"time": 72958, "pitch": 62, "duration": 22, "velocity": 94}, {"time": 72958, "pitch": 66, "duration": 37, "velocity": 66}, {"time": 73093, "pitch": 55, "duration": 63, "velocity": 100}, {"time": 73093, "pitch": 59, "duration": 28, "velocity": 91}, {"time": 73093, "pitch": 62, "duration": 24, "velocity": 96}, {"time": 73093, "pitch": 66, "duration": 124, "velocity": 43}, {"time": 73440, "pitch": 56, "duration": 377, "velocity": 102}, {"time": 73440, "pitch": 59, "duration": 376, "velocity": 94}, {"time": 73440, "pitch": 63, "duration": 395, "velocity": 92}, {"time": 73440, "pitch": 66, "duration": 407, "velocity": 81}, {"time": 74163, "pitch": 56, "duration": 190, "velocity": 88}, {"time": 74297, "pitch": 59, "duration": 209, "velocity": 82}, {"time": 74536, "pitch": 59, "duration": 29, "velocity": 56}, {"time": 74536, "pitch": 63, "duration": 225, "velocity": 96}, {"time": 74773, "pitch": 56, "duration": 68, "velocity": 67}, {"time": 74878, "pitch": 59, "duration": 36, "velocity": 63}, {"time": 74878, "pitch": 66, "duration": 239, "velocity": 89}, {"time": 75118, "pitch": 56, "duration": 82, "velocity": 67}, {"time": 75359, "pitch": 56, "duration": 436, "velocity": 92}, {"time": 75359, "pitch": 59, "duration": 435, "velocity": 94}, {"time": 75359, "pitch": 63, "duration": 448, "velocity": 86}, {"time": 75359, "pitch": 66, "duration": 475, "velocity": 71}, {"time": 76082, "pitch": 56, "duration": 237, "velocity": 91}, {"time": 76082, "pitch": 59, "duration": 26, "velocity": 92}, {"time": 76082, "pitch": 63, "duration": 264, "velocity": 81}, {"time": 76082, "pitch": 66, "duration": 262, "velocity": 74}, {"time": 76216, "pitch": 59, "duration": 185, "velocity": 16}, {"time": 76455, "pitch": 56, "duration": 153, "velocity": 96}, {"time": 76455, "pitch": 59, "duration": 131, "velocity": 94}, {"time": 76455, "pitch": 63, "duration": 131, "velocity": 92}, {"time": 76455, "pitch": 66, "duration": 163, "velocity": 71}, {"time": 76797, "pitch": 56, "duration": 57, "velocity": 92}, {"time": 76797, "pitch": 59, "duration": 18, "velocity": 91}, {"time": 76797, "pitch": 63, "duration": 78, "velocity": 86}, {"time": 76797, "pitch": 66, "duration": 235, "velocity": 70}, {"time": 76931, "pitch": 56, "duration": 94, "velocity": 98}, {"time": 76931, "pitch": 59, "duration": 95, "velocity": 87}, {"time": 76931, "pitch": 63, "duration": 101, "velocity": 81}, {"time": 77278, "pitch": 55, "duration": 425, "velocity": 110}, {"time": 77278, "pitch": 59, "duration": 429, "velocity": 91}, {"time": 77278, "pitch": 62, "duration": 409, "velocity": 102}, {"time": 77278, "pitch": 66, "duration": 455, "velocity": 82}, {"time": 78001, "pitch": 55, "duration": 252, "velocity": 94}, {"time": 78136, "pitch": 59, "duration": 294, "velocity": 85}, {"time": 78376, "pitch": 62, "duration": 239, "velocity": 103}, {"time": 78617, "pitch": 55, "duration": 62, "velocity": 84}, {"time": 78724, "pitch": 55, "duration": 32, "velocity": 75}, {"time": 78724, "pitch": 66, "duration": 249, "velocity": 91}, {"time": 78961, "pitch": 55, "duration": 86, "velocity": 94}, {"time": 79198, "pitch": 55, "duration": 68, "velocity": 85}, {"time": 79198, "pitch": 59, "duration": 84, "velocity": 83}, {"time": 79198, "pitch": 62, "duration": 23, "velocity": 91}, {"time": 79212, "pitch": 66, "duration": 372, "velocity": 88}, {"time": 79679, "pitch": 55, "duration": 191, "velocity": 91}, {"time": 80161, "pitch": 55, "duration": 93, "velocity": 37}, {"time": 80161, "pitch": 59, "duration": 43, "velocity": 88}, {"time": 80161, "pitch": 62, "duration": 65, "velocity": 103}, {"time": 80161, "pitch": 66, "duration": 70, "velocity": 70}, {"time": 80402, "pitch": 55, "duration": 675, "velocity": 110}, {"time": 80402, "pitch": 59, "duration": 690, "velocity": 96}, {"time": 80402, "pitch": 62, "duration": 691, "velocity": 98}, {"time": 80402, "pitch": 66, "duration": 728, "velocity": 86}, {"time": 81358, "pitch": 62, "duration": 150, "velocity": 76}, {"time": 81358, "pitch": 64, "duration": 150, "velocity": 74}, {"time": 81358, "pitch": 67, "duration": 150, "velocity": 75}, {"time": 81358, "pitch": 71, "duration": 150, "velocity": 52}, {"time": 81521, "pitch": 62, "duration": 30, "velocity": 73}, {"time": 81521, "pitch": 64, "duration": 30, "velocity": 77}, {"time": 81521, "pitch": 67, "duration": 30, "velocity": 69}, {"time": 81521, "pitch": 71, "duration": 30, "velocity": 46}, {"time": 81599, "pitch": 62, "duration": 30, "velocity": 56}, {"time": 81599, "pitch": 64, "duration": 30, "velocity": 70}, {"time": 81599, "pitch": 67, "duration": 30, "velocity": 69}, {"time": 81599, "pitch": 71, "duration": 30, "velocity": 69}, {"time": 81762, "pitch": 62, "duration": 30, "velocity": 58}, {"time": 81762, "pitch": 64, "duration": 30, "velocity": 68}, {"time": 81762, "pitch": 67, "duration": 30, "velocity": 64}, {"time": 81762, "pitch": 71, "duration": 30, "velocity": 74}, {"time": 82003, "pitch": 62, "duration": 30, "velocity": 79}, {"time": 82003, "pitch": 64, "duration": 30, "velocity": 84}, {"time": 82003, "pitch": 67, "duration": 30, "velocity": 77}, {"time": 82003, "pitch": 71, "duration": 30, "velocity": 62}, {"time": 82244, "pitch": 62, "duration": 30, "velocity": 72}, {"time": 82244, "pitch": 64, "duration": 30, "velocity": 70}, {"time": 82244, "pitch": 67, "duration": 30, "velocity": 77}, {"time": 82244, "pitch": 71, "duration": 30, "velocity": 64}, {"time": 82485, "pitch": 62, "duration": 30, "velocity": 74}, {"time": 82485, "pitch": 64, "duration": 30, "velocity": 71}, {"time": 82485, "pitch": 67, "duration": 30, "velocity": 68}, {"time": 82485, "pitch": 71, "duration": 30, "velocity": 52}, {"time": 82562, "pitch": 62, "duration": 151, "velocity": 62}, {"time": 82562, "pitch": 64, "duration": 151, "velocity": 69}, {"time": 82562, "pitch": 67, "duration": 151, "velocity": 80}, {"time": 82562, "pitch": 71, "duration": 151, "velocity": 79}, {"time": 82726, "pitch": 62, "duration": 30, "velocity": 46}, {"time": 82726, "pitch": 64, "duration": 30, "velocity": 64}, {"time": 82726, "pitch": 67, "duration": 30, "velocity": 81}, {"time": 82726, "pitch": 71, "duration": 30, "velocity": 77}, {"time": 83281, "pitch": 64, "duration": 148, "velocity": 84}, {"time": 83281, "pitch": 66, "duration": 148, "velocity": 71}, {"time": 83281, "pitch": 69, "duration": 148, "velocity": 81}, {"time": 83281, "pitch": 73, "duration": 148, "velocity": 62}, {"time": 83442, "pitch": 64, "duration": 29, "velocity": 64}, {"time": 83442, "pitch": 66, "duration": 29, "velocity": 61}, {"time": 83442, "pitch": 69, "duration": 29, "velocity": 72}, {"time": 83442, "pitch": 73, "duration": 29, "velocity": 50}, {"time": 83518, "pitch": 64, "duration": 30, "velocity": 66}, {"time": 83518, "pitch": 66, "duration": 30, "velocity": 51}, {"time": 83518, "pitch": 69, "duration": 30, "velocity": 79}, {"time": 83518, "pitch": 73, "duration": 30, "velocity": 38}, {"time": 83681, "pitch": 64, "duration": 30, "velocity": 72}, {"time": 83681, "pitch": 66, "duration": 30, "velocity": 61}, {"time": 83681, "pitch": 69, "duration": 30, "velocity": 73}, {"time": 83681, "pitch": 73, "duration": 30, "velocity": 40}, {"time": 83922, "pitch": 64, "duration": 30, "velocity": 79}, {"time": 83922, "pitch": 66, "duration": 30, "velocity": 83}, {"time": 83922, "pitch": 69, "duration": 30, "velocity": 83}, {"time": 83922, "pitch": 73, "duration": 30, "velocity": 71}, {"time": 84163, "pitch": 64, "duration": 30, "velocity": 67}, {"time": 84163, "pitch": 66, "duration": 30, "velocity": 65}, {"time": 84163, "pitch": 69, "duration": 30, "velocity": 79}, {"time": 84163, "pitch": 73, "duration": 30, "velocity": 50}, {"time": 84404, "pitch": 64, "duration": 30, "velocity": 61}, {"time": 84404, "pitch": 66, "duration": 30, "velocity": 61}, {"time": 84404, "pitch": 69, "duration": 30, "velocity": 74}, {"time": 84404, "pitch": 73, "duration": 30, "velocity": 74}, {"time": 84481, "pitch": 64, "duration": 151, "velocity": 75}, {"time": 84481, "pitch": 66, "duration": 151, "velocity": 52}, {"time": 84481, "pitch": 69, "duration": 151, "velocity": 36}, {"time": 84481, "pitch": 69, "duration": 151, "velocity": 70}, {"time": 84481, "pitch": 73, "duration": 151, "velocity": 15}, {"time": 84645, "pitch": 64, "duration": 30, "velocity": 67}, {"time": 84645, "pitch": 66, "duration": 30, "velocity": 73}, {"time": 84645, "pitch": 69, "duration": 30, "velocity": 76}, {"time": 84645, "pitch": 73, "duration": 30, "velocity": 64}, {"time": 85200, "pitch": 62, "duration": 148, "velocity": 76}, {"time": 85200, "pitch": 64, "duration": 148, "velocity": 74}, {"time": 85200, "pitch": 67, "duration": 148, "velocity": 75}, {"time": 85200, "pitch": 71, "duration": 148, "velocity": 52}, {"time": 85361, "pitch": 62, "duration": 30, "velocity": 73}, {"time": 85361, "pitch": 64, "duration": 30, "velocity": 77}, {"time": 85361, "pitch": 67, "duration": 30, "velocity": 69}, {"time": 85361, "pitch": 71, "duration": 30, "velocity": 46}, {"time": 85437, "pitch": 62, "duration": 30, "velocity": 56}, {"time": 85437, "pitch": 64, "duration": 30, "velocity": 70}, {"time": 85437, "pitch": 67, "duration": 30, "velocity": 69}, {"time": 85437, "pitch": 71, "duration": 30, "velocity": 69}, {"time": 85601, "pitch": 62, "duration": 30, "velocity": 58}, {"time": 85601, "pitch": 64, "duration": 30, "velocity": 68}, {"time": 85601, "pitch": 67, "duration": 30, "velocity": 64}, {"time": 85601, "pitch": 71, "duration": 30, "velocity": 74}, {"time": 85841, "pitch": 62, "duration": 31, "velocity": 79}, {"time": 85841, "pitch": 64, "duration": 31, "velocity": 84}, {"time": 85841, "pitch": 67, "duration": 31, "velocity": 77}, {"time": 85841, "pitch": 71, "duration": 31, "velocity": 62}, {"time": 86082, "pitch": 62, "duration": 30, "velocity": 72}, {"time": 86082, "pitch": 64, "duration": 30, "velocity": 70}, {"time": 86082, "pitch": 67, "duration": 30, "velocity": 77}, {"time": 86082, "pitch": 71, "duration": 30, "velocity": 64}, {"time": 86323, "pitch": 62, "duration": 30, "velocity": 74}, {"time": 86323, "pitch": 64, "duration": 30, "velocity": 71}, {"time": 86323, "pitch": 67, "duration": 30, "velocity": 68}, {"time": 86323, "pitch": 71, "duration": 30, "velocity": 52}, {"time": 86401, "pitch": 62, "duration": 150, "velocity": 62}, {"time": 86401, "pitch": 64, "duration": 150, "velocity": 69}, {"time": 86401, "pitch": 67, "duration": 150, "velocity": 80}, {"time": 86401, "pitch": 71, "duration": 150, "velocity": 79}, {"time": 86564, "pitch": 62, "duration": 30, "velocity": 46}, {"time": 86564, "pitch": 64, "duration": 30, "velocity": 64}, {"time": 86564, "pitch": 67, "duration": 30, "velocity": 81}, {"time": 86564, "pitch": 71, "duration": 30, "velocity": 77}, {"time": 87119, "pitch": 61, "duration": 148, "velocity": 84}, {"time": 87119, "pitch": 62, "duration": 148, "velocity": 71}, {"time": 87119, "pitch": 66, "duration": 148, "velocity": 81}, {"time": 87119, "pitch": 69, "duration": 148, "velocity": 62}, {"time": 87280, "pitch": 61, "duration": 30, "velocity": 64}, {"time": 87280, "pitch": 62, "duration": 30, "velocity": 61}, {"time": 87280, "pitch": 66, "duration": 30, "velocity": 72}, {"time": 87280, "pitch": 69, "duration": 30, "velocity": 50}, {"time": 87356, "pitch": 61, "duration": 30, "velocity": 66}, {"time": 87356, "pitch": 62, "duration": 30, "velocity": 51}, {"time": 87356, "pitch": 66, "duration": 30, "velocity": 79}, {"time": 87356, "pitch": 69, "duration": 30, "velocity": 38}, {"time": 87520, "pitch": 61, "duration": 30, "velocity": 72}, {"time": 87520, "pitch": 62, "duration": 30, "velocity": 61}, {"time": 87520, "pitch": 66, "duration": 30, "velocity": 73}, {"time": 87520, "pitch": 69, "duration": 30, "velocity": 40}, {"time": 87761, "pitch": 61, "duration": 30, "velocity": 79}, {"time": 87761, "pitch": 62, "duration": 30, "velocity": 83}, {"time": 87761, "pitch": 66, "duration": 30, "velocity": 83}, {"time": 87761, "pitch": 69, "duration": 30, "velocity": 71}, {"time": 88002, "pitch": 61, "duration": 30, "velocity": 67}, {"time": 88002, "pitch": 62, "duration": 30, "velocity": 65}, {"time": 88002, "pitch": 66, "duration": 30, "velocity": 79}, {"time": 88002, "pitch": 69, "duration": 30, "velocity": 50}, {"time": 88242, "pitch": 61, "duration": 31, "velocity": 61}, {"time": 88242, "pitch": 62, "duration": 31, "velocity": 61}, {"time": 88242, "pitch": 66, "duration": 31, "velocity": 74}, {"time": 88242, "pitch": 69, "duration": 31, "velocity": 74}, {"time": 88320, "pitch": 61, "duration": 150, "velocity": 75}, {"time": 88320, "pitch": 62, "duration": 150, "velocity": 52}, {"time": 88320, "pitch": 66, "duration": 150, "velocity": 36}, {"time": 88320, "pitch": 66, "duration": 150, "velocity": 70}, {"time": 88320, "pitch": 69, "duration": 150, "velocity": 15}, {"time": 88483, "pitch": 61, "duration": 30, "velocity": 67}, {"time": 88483, "pitch": 62, "duration": 30, "velocity": 73}, {"time": 88483, "pitch": 66, "duration": 30, "velocity": 76}, {"time": 88483, "pitch": 69, "duration": 30, "velocity": 64}, {"time": 89042, "pitch": 62, "duration": 151, "velocity": 76}, {"time": 89042, "pitch": 64, "duration": 151, "velocity": 74}, {"time": 89042, "pitch": 67, "duration": 151, "velocity": 75}, {"time": 89042, "pitch": 71, "duration": 151, "velocity": 52}, {"time": 89206, "pitch": 62, "duration": 30, "velocity": 73}, {"time": 89206, "pitch": 64, "duration": 30, "velocity": 77}, {"time": 89206, "pitch": 67, "duration": 30, "velocity": 69}, {"time": 89206, "pitch": 71, "duration": 30, "velocity": 46}, {"time": 89283, "pitch": 62, "duration": 30, "velocity": 56}, {"time": 89283, "pitch": 64, "duration": 30, "velocity": 70}, {"time": 89283, "pitch": 67, "duration": 30, "velocity": 69}, {"time": 89283, "pitch": 71, "duration": 30, "velocity": 69}, {"time": 89444, "pitch": 62, "duration": 30, "velocity": 58}, {"time": 89444, "pitch": 64, "duration": 30, "velocity": 68}, {"time": 89444, "pitch": 67, "duration": 30, "velocity": 64}, {"time": 89444, "pitch": 71, "duration": 30, "velocity": 74}, {"time": 89681, "pitch": 62, "duration": 30, "velocity": 79}, {"time": 89681, "pitch": 64, "duration": 30, "velocity": 84}, {"time": 89681, "pitch": 67, "duration": 30, "velocity": 77}, {"time": 89681, "pitch": 71, "duration": 30, "velocity": 62}, {"time": 89921, "pitch": 62, "duration": 30, "velocity": 72}, {"time": 89921, "pitch": 64, "duration": 30, "velocity": 70}, {"time": 89921, "pitch": 67, "duration": 30, "velocity": 77}, {"time": 89921, "pitch": 71, "duration": 30, "velocity": 64}, {"time": 90162, "pitch": 62, "duration": 30, "velocity": 74}, {"time": 90162, "pitch": 64, "duration": 30, "velocity": 71}, {"time": 90162, "pitch": 67, "duration": 30, "velocity": 68}, {"time": 90162, "pitch": 71, "duration": 30, "velocity": 52}, {"time": 90239, "pitch": 62, "duration": 150, "velocity": 62}, {"time": 90239, "pitch": 64, "duration": 150, "velocity": 69}, {"time": 90239, "pitch": 67, "duration": 150, "velocity": 80}, {"time": 90239, "pitch": 71, "duration": 150, "velocity": 79}, {"time": 90403, "pitch": 62, "duration": 30, "velocity": 46}, {"time": 90403, "pitch": 64, "duration": 30, "velocity": 64}, {"time": 90403, "pitch": 67, "duration": 30, "velocity": 81}, {"time": 90403, "pitch": 71, "duration": 30, "velocity": 77}, {"time": 90962, "pitch": 64, "duration": 150, "velocity": 84}, {"time": 90962, "pitch": 66, "duration": 150, "velocity": 71}, {"time": 90962, "pitch": 69, "duration": 150, "velocity": 81}, {"time": 90962, "pitch": 73, "duration": 150, "velocity": 62}, {"time": 91125, "pitch": 64, "duration": 30, "velocity": 64}, {"time": 91125, "pitch": 66, "duration": 30, "velocity": 61}, {"time": 91125, "pitch": 69, "duration": 30, "velocity": 72}, {"time": 91125, "pitch": 73, "duration": 30, "velocity": 50}, {"time": 91202, "pitch": 64, "duration": 30, "velocity": 66}, {"time": 91202, "pitch": 66, "duration": 30, "velocity": 51}, {"time": 91202, "pitch": 69, "duration": 30, "velocity": 79}, {"time": 91202, "pitch": 73, "duration": 30, "velocity": 38}, {"time": 91363, "pitch": 64, "duration": 30, "velocity": 72}, {"time": 91363, "pitch": 66, "duration": 30, "velocity": 61}, {"time": 91363, "pitch": 69, "duration": 30, "velocity": 73}, {"time": 91363, "pitch": 73, "duration": 30, "velocity": 40}, {"time": 91600, "pitch": 63, "duration": 30, "velocity": 79}, {"time": 91600, "pitch": 65, "duration": 30, "velocity": 83}, {"time": 91600, "pitch": 69, "duration": 30, "velocity": 83}, {"time": 91600, "pitch": 72, "duration": 30, "velocity": 71}, {"time": 91840, "pitch": 63, "duration": 30, "velocity": 67}, {"time": 91840, "pitch": 65, "duration": 30, "velocity": 65}, {"time": 91840, "pitch": 69, "duration": 30, "velocity": 79}, {"time": 91840, "pitch": 72, "duration": 30, "velocity": 50}, {"time": 92081, "pitch": 63, "duration": 30, "velocity": 61}, {"time": 92081, "pitch": 65, "duration": 30, "velocity": 61}, {"time": 92081, "pitch": 69, "duration": 30, "velocity": 74}, {"time": 92081, "pitch": 72, "duration": 30, "velocity": 74}, {"time": 92158, "pitch": 63, "duration": 151, "velocity": 75}, {"time": 92158, "pitch": 65, "duration": 151, "velocity": 52}, {"time": 92158, "pitch": 69, "duration": 151, "velocity": 36}, {"time": 92158, "pitch": 69, "duration": 151, "velocity": 70}, {"time": 92158, "pitch": 72, "duration": 151, "velocity": 15}, {"time": 92322, "pitch": 63, "duration": 30, "velocity": 67}, {"time": 92322, "pitch": 65, "duration": 30, "velocity": 73}, {"time": 92322, "pitch": 69, "duration": 30, "velocity": 76}, {"time": 92322, "pitch": 72, "duration": 30, "velocity": 64}, {"time": 92881, "pitch": 62, "duration": 150, "velocity": 76}, {"time": 92881, "pitch": 64, "duration": 150, "velocity": 74}, {"time": 92881, "pitch": 67, "duration": 150, "velocity": 75}, {"time": 92881, "pitch": 71, "duration": 150, "velocity": 52}, {"time": 93044, "pitch": 62, "duration": 30, "velocity": 73}, {"time": 93044, "pitch": 64, "duration": 30, "velocity": 77}, {"time": 93044, "pitch": 67, "duration": 30, "velocity": 69}, {"time": 93044, "pitch": 71, "duration": 30, "velocity": 46}, {"time": 93122, "pitch": 62, "duration": 30, "velocity": 56}, {"time": 93122, "pitch": 64, "duration": 30, "velocity": 70}, {"time": 93122, "pitch": 67, "duration": 30, "velocity": 69}, {"time": 93122, "pitch": 71, "duration": 30, "velocity": 69}, {"time": 93285, "pitch": 62, "duration": 30, "velocity": 58}, {"time": 93285, "pitch": 64, "duration": 30, "velocity": 68}, {"time": 93285, "pitch": 67, "duration": 30, "velocity": 64}, {"time": 93285, "pitch": 71, "duration": 30, "velocity": 74}, {"time": 93526, "pitch": 61, "duration": 30, "velocity": 79}, {"time": 93526, "pitch": 66, "duration": 30, "velocity": 84}, {"time": 93526, "pitch": 69, "duration": 30, "velocity": 77}, {"time": 93526, "pitch": 73, "duration": 30, "velocity": 62}, {"time": 93764, "pitch": 61, "duration": 30, "velocity": 72}, {"time": 93764, "pitch": 66, "duration": 30, "velocity": 70}, {"time": 93764, "pitch": 69, "duration": 30, "velocity": 77}, {"time": 93764, "pitch": 73, "duration": 30, "velocity": 64}, {"time": 94001, "pitch": 61, "duration": 30, "velocity": 74}, {"time": 94001, "pitch": 66, "duration": 30, "velocity": 71}, {"time": 94001, "pitch": 69, "duration": 30, "velocity": 68}, {"time": 94001, "pitch": 73, "duration": 30, "velocity": 52}, {"time": 94077, "pitch": 61, "duration": 151, "velocity": 62}, {"time": 94077, "pitch": 66, "duration": 151, "velocity": 69}, {"time": 94077, "pitch": 69, "duration": 151, "velocity": 80}, {"time": 94077, "pitch": 73, "duration": 151, "velocity": 79}, {"time": 94241, "pitch": 61, "duration": 30, "velocity": 46}, {"time": 94241, "pitch": 66, "duration": 30, "velocity": 64}, {"time": 94241, "pitch": 69, "duration": 30, "velocity": 81}, {"time": 94241, "pitch": 73, "duration": 30, "velocity": 77}, {"time": 94800, "pitch": 59, "duration": 60, "velocity": 82}, {"time": 94800, "pitch": 62, "duration": 68, "velocity": 83}, {"time": 94800, "pitch": 66, "duration": 76, "velocity": 75}, {"time": 94800, "pitch": 69, "duration": 71, "velocity": 75}, {"time": 95175, "pitch": 57, "duration": 316, "velocity": 84}, {"time": 95175, "pitch": 60, "duration": 311, "velocity": 78}, {"time": 95175, "pitch": 64, "duration": 309, "velocity": 75}, {"time": 95175, "pitch": 67, "duration": 328, "velocity": 71}, {"time": 95523, "pitch": 59, "duration": 52, "velocity": 82}, {"time": 95523, "pitch": 62, "duration": 58, "velocity": 85}, {"time": 95523, "pitch": 66, "duration": 81, "velocity": 79}, {"time": 95523, "pitch": 69, "duration": 76, "velocity": 75}, {"time": 96719, "pitch": 62, "duration": 151, "velocity": 76}, {"time": 96719, "pitch": 64, "duration": 151, "velocity": 74}, {"time": 96719, "pitch": 67, "duration": 151, "velocity": 75}, {"time": 96719, "pitch": 71, "duration": 151, "velocity": 52}, {"time": 96883, "pitch": 62, "duration": 30, "velocity": 73}, {"time": 96883, "pitch": 64, "duration": 30, "velocity": 77}, {"time": 96883, "pitch": 67, "duration": 30, "velocity": 69}, {"time": 96883, "pitch": 71, "duration": 30, "velocity": 46}, {"time": 96960, "pitch": 62, "duration": 30, "velocity": 56}, {"time": 96960, "pitch": 64, "duration": 30, "velocity": 70}, {"time": 96960, "pitch": 67, "duration": 30, "velocity": 69}, {"time": 96960, "pitch": 71, "duration": 30, "velocity": 69}, {"time": 97124, "pitch": 62, "duration": 30, "velocity": 58}, {"time": 97124, "pitch": 64, "duration": 30, "velocity": 68}, {"time": 97124, "pitch": 67, "duration": 30, "velocity": 64}, {"time": 97124, "pitch": 71, "duration": 30, "velocity": 74}, {"time": 97364, "pitch": 62, "duration": 31, "velocity": 79}, {"time": 97364, "pitch": 64, "duration": 31, "velocity": 84}, {"time": 97364, "pitch": 67, "duration": 31, "velocity": 77}, {"time": 97364, "pitch": 71, "duration": 31, "velocity": 62}, {"time": 97605, "pitch": 62, "duration": 30, "velocity": 72}, {"time": 97605, "pitch": 64, "duration": 30, "velocity": 70}, {"time": 97605, "pitch": 67, "duration": 30, "velocity": 77}, {"time": 97605, "pitch": 71, "duration": 30, "velocity": 64}, {"time": 97846, "pitch": 62, "duration": 30, "velocity": 74}, {"time": 97846, "pitch": 64, "duration": 30, "velocity": 71}, {"time": 97846, "pitch": 67, "duration": 30, "velocity": 68}, {"time": 97846, "pitch": 71, "duration": 30, "velocity": 52}, {"time": 97923, "pitch": 62, "duration": 149, "velocity": 62}, {"time": 97923, "pitch": 64, "duration": 149, "velocity": 69}, {"time": 97923, "pitch": 67, "duration": 149, "velocity": 80}, {"time": 97923, "pitch": 71, "duration": 149, "velocity": 79}, {"time": 98084, "pitch": 62, "duration": 30, "velocity": 46}, {"time": 98084, "pitch": 64, "duration": 30, "velocity": 64}, {"time": 98084, "pitch": 67, "duration": 30, "velocity": 81}, {"time": 98084, "pitch": 71, "duration": 30, "velocity": 77}, {"time": 98638, "pitch": 64, "duration": 151, "velocity": 84}, {"time": 98638, "pitch": 66, "duration": 151, "velocity": 71}, {"time": 98638, "pitch": 69, "duration": 151, "velocity": 81}, {"time": 98638, "pitch": 73, "duration": 151, "velocity": 62}, {"time": 98802, "pitch": 64, "duration": 30, "velocity": 64}, {"time": 98802, "pitch": 66, "duration": 30, "velocity": 61}, {"time": 98802, "pitch": 69, "duration": 30, "velocity": 72}, {"time": 98802, "pitch": 73, "duration": 30, "velocity": 50}, {"time": 98879, "pitch": 64, "duration": 30, "velocity": 66}, {"time": 98879, "pitch": 66, "duration": 30, "velocity": 51}, {"time": 98879, "pitch": 69, "duration": 30, "velocity": 79}, {"time": 98879, "pitch": 73, "duration": 30, "velocity": 38}, {"time": 99043, "pitch": 64, "duration": 30, "velocity": 72}, {"time": 99043, "pitch": 66, "duration": 30, "velocity": 61}, {"time": 99043, "pitch": 69, "duration": 30, "velocity": 73}, {"time": 99043, "pitch": 73, "duration": 30, "velocity": 40}, {"time": 99284, "pitch": 64, "duration": 30, "velocity": 79}, {"time": 99284, "pitch": 66, "duration": 30, "velocity": 83}, {"time": 99284, "pitch": 69, "duration": 30, "velocity": 83}, {"time": 99284, "pitch": 73, "duration": 30, "velocity": 71}, {"time": 99525, "pitch": 64, "duration": 30, "velocity": 67}, {"time": 99525, "pitch": 66, "duration": 30, "velocity": 65}, {"time": 99525, "pitch": 69, "duration": 30, "velocity": 79}, {"time": 99525, "pitch": 73, "duration": 30, "velocity": 50}, {"time": 99765, "pitch": 64, "duration": 31, "velocity": 61}, {"time": 99765, "pitch": 66, "duration": 31, "velocity": 61}, {"time": 99765, "pitch": 69, "duration": 31, "velocity": 74}, {"time": 99765, "pitch": 73, "duration": 31, "velocity": 74}, {"time": 99843, "pitch": 64, "duration": 148, "velocity": 75}, {"time": 99843, "pitch": 66, "duration": 148, "velocity": 52}, {"time": 99843, "pitch": 69, "duration": 148, "velocity": 36}, {"time": 99843, "pitch": 69, "duration": 148, "velocity": 70}, {"time": 99843, "pitch": 73, "duration": 148, "velocity": 15}, {"time": 100004, "pitch": 64, "duration": 29, "velocity": 67}, {"time": 100004, "pitch": 66, "duration": 29, "velocity": 73}, {"time": 100004, "pitch": 69, "duration": 29, "velocity": 76}, {"time": 100004, "pitch": 73, "duration": 29, "velocity": 64}, {"time": 100558, "pitch": 62, "duration": 150, "velocity": 76}, {"time": 100558, "pitch": 64, "duration": 150, "velocity": 74}, {"time": 100558, "pitch": 67, "duration": 150, "velocity": 75}, {"time": 100558, "pitch": 71, "duration": 150, "velocity": 52}, {"time": 100721, "pitch": 62, "duration": 30, "velocity": 73}, {"time": 100721, "pitch": 64, "duration": 30, "velocity": 77}, {"time": 100721, "pitch": 67, "duration": 30, "velocity": 69}, {"time": 100721, "pitch": 71, "duration": 30, "velocity": 46}, {"time": 100798, "pitch": 62, "duration": 31, "velocity": 56}, {"time": 100798, "pitch": 64, "duration": 31, "velocity": 70}, {"time": 100798, "pitch": 67, "duration": 31, "velocity": 69}, {"time": 100798, "pitch": 71, "duration": 31, "velocity": 69}, {"time": 100962, "pitch": 62, "duration": 30, "velocity": 58}, {"time": 100962, "pitch": 64, "duration": 30, "velocity": 68}, {"time": 100962, "pitch": 67, "duration": 30, "velocity": 64}, {"time": 100962, "pitch": 71, "duration": 30, "velocity": 74}, {"time": 101203, "pitch": 62, "duration": 30, "velocity": 79}, {"time": 101203, "pitch": 64, "duration": 30, "velocity": 84}, {"time": 101203, "pitch": 67, "duration": 30, "velocity": 77}, {"time": 101203, "pitch": 71, "duration": 30, "velocity": 62}, {"time": 101444, "pitch": 62, "duration": 30, "velocity": 72}, {"time": 101444, "pitch": 64, "duration": 30, "velocity": 70}, {"time": 101444, "pitch": 67, "duration": 30, "velocity": 77}, {"time": 101444, "pitch": 71, "duration": 30, "velocity": 64}, {"time": 101685, "pitch": 62, "duration": 30, "velocity": 74}, {"time": 101685, "pitch": 64, "duration": 30, "velocity": 71}, {"time": 101685, "pitch": 67, "duration": 30, "velocity": 68}, {"time": 101685, "pitch": 71, "duration": 30, "velocity": 52}, {"time": 101762, "pitch": 62, "duration": 150, "velocity": 62}, {"time": 101762, "pitch": 64, "duration": 150, "velocity": 69}, {"time": 101762, "pitch": 67, "duration": 150, "velocity": 80}, {"time": 101762, "pitch": 71, "duration": 150, "velocity": 79}, {"time": 101926, "pitch": 62, "duration": 30, "velocity": 46}, {"time": 101926, "pitch": 64, "duration": 30, "velocity": 64}, {"time": 101926, "pitch": 67, "duration": 30, "velocity": 81}, {"time": 101926, "pitch": 71, "duration": 30, "velocity": 77}, {"time": 102481, "pitch": 61, "duration": 148, "velocity": 84}, {"time": 102481, "pitch": 62, "duration": 148, "velocity": 71}, {"time": 102481, "pitch": 66, "duration": 148, "velocity": 81}, {"time": 102481, "pitch": 69, "duration": 148, "velocity": 62}, {"time": 102642, "pitch": 61, "duration": 29, "velocity": 64}, {"time": 102642, "pitch": 62, "duration": 29, "velocity": 61}, {"time": 102642, "pitch": 66, "duration": 29, "velocity": 72}, {"time": 102642, "pitch": 69, "duration": 29, "velocity": 50}, {"time": 102718, "pitch": 61, "duration": 30, "velocity": 66}, {"time": 102718, "pitch": 62, "duration": 30, "velocity": 51}, {"time": 102718, "pitch": 66, "duration": 30, "velocity": 79}, {"time": 102718, "pitch": 69, "duration": 30, "velocity": 38}, {"time": 102881, "pitch": 61, "duration": 30, "velocity": 72}, {"time": 102881, "pitch": 62, "duration": 30, "velocity": 61}, {"time": 102881, "pitch": 66, "duration": 30, "velocity": 73}, {"time": 102881, "pitch": 69, "duration": 30, "velocity": 40}, {"time": 103122, "pitch": 61, "duration": 30, "velocity": 79}, {"time": 103122, "pitch": 62, "duration": 30, "velocity": 83}, {"time": 103122, "pitch": 66, "duration": 30, "velocity": 83}, {"time": 103122, "pitch": 69, "duration": 30, "velocity": 71}, {"time": 103363, "pitch": 61, "duration": 30, "velocity": 67}, {"time": 103363, "pitch": 62, "duration": 30, "velocity": 65}, {"time": 103363, "pitch": 66, "duration": 30, "velocity": 79}, {"time": 103363, "pitch": 69, "duration": 30, "velocity": 50}, {"time": 103604, "pitch": 61, "duration": 30, "velocity": 61}, {"time": 103604, "pitch": 62, "duration": 30, "velocity": 61}, {"time": 103604, "pitch": 66, "duration": 30, "velocity": 74}, {"time": 103604, "pitch": 69, "duration": 30, "velocity": 74}, {"time": 103681, "pitch": 61, "duration": 151, "velocity": 75}, {"time": 103681, "pitch": 62, "duration": 151, "velocity": 52}, {"time": 103681, "pitch": 66, "duration": 151, "velocity": 36}, {"time": 103681, "pitch": 66, "duration": 151, "velocity": 70}, {"time": 103681, "pitch": 69, "duration": 151, "velocity": 15}, {"time": 103845, "pitch": 61, "duration": 30, "velocity": 67}, {"time": 103845, "pitch": 62, "duration": 30, "velocity": 73}, {"time": 103845, "pitch": 66, "duration": 30, "velocity": 76}, {"time": 103845, "pitch": 69, "duration": 30, "velocity": 64}, {"time": 104400, "pitch": 62, "duration": 148, "velocity": 76}, {"time": 104400, "pitch": 64, "duration": 148, "velocity": 74}, {"time": 104400, "pitch": 67, "duration": 148, "velocity": 75}, {"time": 104400, "pitch": 71, "duration": 148, "velocity": 52}, {"time": 104561, "pitch": 62, "duration": 29, "velocity": 73}, {"time": 104561, "pitch": 64, "duration": 29, "velocity": 77}, {"time": 104561, "pitch": 67, "duration": 29, "velocity": 69}, {"time": 104561, "pitch": 71, "duration": 29, "velocity": 46}, {"time": 104637, "pitch": 62, "duration": 30, "velocity": 56}, {"time": 104637, "pitch": 64, "duration": 30, "velocity": 70}, {"time": 104637, "pitch": 67, "duration": 30, "velocity": 69}, {"time": 104637, "pitch": 71, "duration": 30, "velocity": 69}, {"time": 104800, "pitch": 62, "duration": 31, "velocity": 58}, {"time": 104800, "pitch": 64, "duration": 31, "velocity": 68}, {"time": 104800, "pitch": 67, "duration": 31, "velocity": 64}, {"time": 104800, "pitch": 71, "duration": 31, "velocity": 74}, {"time": 105041, "pitch": 62, "duration": 30, "velocity": 79}, {"time": 105041, "pitch": 64, "duration": 30, "velocity": 84}, {"time": 105041, "pitch": 67, "duration": 30, "velocity": 77}, {"time": 105041, "pitch": 71, "duration": 30, "velocity": 62}, {"time": 105282, "pitch": 62, "duration": 30, "velocity": 72}, {"time": 105282, "pitch": 64, "duration": 30, "velocity": 70}, {"time": 105282, "pitch": 67, "duration": 30, "velocity": 77}, {"time": 105282, "pitch": 71, "duration": 30, "velocity": 64}, {"time": 105523, "pitch": 62, "duration": 30, "velocity": 74}, {"time": 105523, "pitch": 64, "duration": 30, "velocity": 71}, {"time": 105523, "pitch": 67, "duration": 30, "velocity": 68}, {"time": 105523, "pitch": 71, "duration": 30, "velocity": 52}, {"time": 105600, "pitch": 62, "duration": 151, "velocity": 62}, {"time": 105600, "pitch": 64, "duration": 151, "velocity": 69}, {"time": 105600, "pitch": 67, "duration": 151, "velocity": 80}, {"time": 105600, "pitch": 71, "duration": 151, "velocity": 79}, {"time": 105764, "pitch": 62, "duration": 30, "velocity": 46}, {"time": 105764, "pitch": 64, "duration": 30, "velocity": 64}, {"time": 105764, "pitch": 67, "duration": 30, "velocity": 81}, {"time": 105764, "pitch": 71, "duration": 30, "velocity": 77}, {"time": 106323, "pitch": 64, "duration": 151, "velocity": 84}, {"time": 106323, "pitch": 66, "duration": 151, "velocity": 71}, {"time": 106323, "pitch": 69, "duration": 151, "velocity": 81}, {"time": 106323, "pitch": 73, "duration": 151, "velocity": 62}, {"time": 106487, "pitch": 64, "duration": 30, "velocity": 64}, {"time": 106487, "pitch": 66, "duration": 30, "velocity": 61}, {"time": 106487, "pitch": 69, "duration": 30, "velocity": 72}, {"time": 106487, "pitch": 73, "duration": 30, "velocity": 50}, {"time": 106564, "pitch": 64, "duration": 29, "velocity": 66}, {"time": 106564, "pitch": 66, "duration": 29, "velocity": 51}, {"time": 106564, "pitch": 69, "duration": 29, "velocity": 79}, {"time": 106564, "pitch": 73, "duration": 29, "velocity": 38}, {"time": 106725, "pitch": 64, "duration": 29, "velocity": 72}, {"time": 106725, "pitch": 66, "duration": 29, "velocity": 61}, {"time": 106725, "pitch": 69, "duration": 29, "velocity": 73}, {"time": 106725, "pitch": 73, "duration": 29, "velocity": 40}, {"time": 106962, "pitch": 63, "duration": 29, "velocity": 79}, {"time": 106962, "pitch": 65, "duration": 29, "velocity": 83}, {"time": 106962, "pitch": 69, "duration": 29, "velocity": 83}, {"time": 106962, "pitch": 72, "duration": 29, "velocity": 71}, {"time": 107201, "pitch": 63, "duration": 30, "velocity": 67}, {"time": 107201, "pitch": 65, "duration": 30, "velocity": 65}, {"time": 107201, "pitch": 69, "duration": 30, "velocity": 79}, {"time": 107201, "pitch": 72, "duration": 30, "velocity": 50}, {"time": 107442, "pitch": 63, "duration": 30, "velocity": 61}, {"time": 107442, "pitch": 65, "duration": 30, "velocity": 61}, {"time": 107442, "pitch": 69, "duration": 30, "velocity": 74}, {"time": 107442, "pitch": 72, "duration": 30, "velocity": 74}, {"time": 107520, "pitch": 63, "duration": 150, "velocity": 75}, {"time": 107520, "pitch": 65, "duration": 150, "velocity": 52}, {"time": 107520, "pitch": 69, "duration": 150, "velocity": 36}, {"time": 107520, "pitch": 69, "duration": 150, "velocity": 70}, {"time": 107520, "pitch": 72, "duration": 150, "velocity": 15}, {"time": 107683, "pitch": 63, "duration": 30, "velocity": 67}, {"time": 107683, "pitch": 65, "duration": 30, "velocity": 73}, {"time": 107683, "pitch": 69, "duration": 30, "velocity": 76}, {"time": 107683, "pitch": 72, "duration": 30, "velocity": 64}, {"time": 108242, "pitch": 62, "duration": 151, "velocity": 76}, {"time": 108242, "pitch": 64, "duration": 151, "velocity": 74}, {"time": 108242, "pitch": 67, "duration": 151, "velocity": 75}, {"time": 108242, "pitch": 71, "duration": 151, "velocity": 52}, {"time": 108406, "pitch": 62, "duration": 30, "velocity": 73}, {"time": 108406, "pitch": 64, "duration": 30, "velocity": 77}, {"time": 108406, "pitch": 67, "duration": 30, "velocity": 69}, {"time": 108406, "pitch": 71, "duration": 30, "velocity": 46}, {"time": 108483, "pitch": 62, "duration": 30, "velocity": 56}, {"time": 108483, "pitch": 64, "duration": 30, "velocity": 70}, {"time": 108483, "pitch": 67, "duration": 30, "velocity": 69}, {"time": 108483, "pitch": 71, "duration": 30, "velocity": 69}, {"time": 108644, "pitch": 62, "duration": 30, "velocity": 58}, {"time": 108644, "pitch": 64, "duration": 30, "velocity": 68}, {"time": 108644, "pitch": 67, "duration": 30, "velocity": 64}, {"time": 108644, "pitch": 71, "duration": 30, "velocity": 74}, {"time": 108881, "pitch": 61, "duration": 30, "velocity": 79}, {"time": 108881, "pitch": 66, "duration": 30, "velocity": 84}, {"time": 108881, "pitch": 69, "duration": 30, "velocity": 77}, {"time": 108881, "pitch": 73, "duration": 30, "velocity": 62}, {"time": 109121, "pitch": 61, "duration": 30, "velocity": 72}, {"time": 109121, "pitch": 66, "duration": 30, "velocity": 70}, {"time": 109121, "pitch": 69, "duration": 30, "velocity": 77}, {"time": 109121, "pitch": 73, "duration": 30, "velocity": 64}, {"time": 109361, "pitch": 61, "duration": 31, "velocity": 74}, {"time": 109361, "pitch": 66, "duration": 31, "velocity": 71}, {"time": 109361, "pitch": 69, "duration": 31, "velocity": 68}, {"time": 109361, "pitch": 73, "duration": 31, "velocity": 52}, {"time": 109439, "pitch": 61, "duration": 150, "velocity": 62}, {"time": 109439, "pitch": 66, "duration": 150, "velocity": 69}, {"time": 109439, "pitch": 69, "duration": 150, "velocity": 80}, {"time": 109439, "pitch": 73, "duration": 150, "velocity": 79}, {"time": 109602, "pitch": 61, "duration": 30, "velocity": 46}, {"time": 109602, "pitch": 66, "duration": 30, "velocity": 64}, {"time": 109602, "pitch": 69, "duration": 30, "velocity": 81}, {"time": 109602, "pitch": 73, "duration": 30, "velocity": 77}, {"time": 110161, "pitch": 59, "duration": 61, "velocity": 82}, {"time": 110161, "pitch": 62, "duration": 69, "velocity": 83}, {"time": 110161, "pitch": 66, "duration": 77, "velocity": 75}, {"time": 110161, "pitch": 69, "duration": 72, "velocity": 75}, {"time": 110535, "pitch": 57, "duration": 311, "velocity": 84}, {"time": 110535, "pitch": 60, "duration": 306, "velocity": 78}, {"time": 110535, "pitch": 64, "duration": 304, "velocity": 75}, {"time": 110535, "pitch": 67, "duration": 321, "velocity": 71}, {"time": 110876, "pitch": 59, "duration": 53, "velocity": 82}, {"time": 110876, "pitch": 62, "duration": 59, "velocity": 85}, {"time": 110876, "pitch": 66, "duration": 82, "velocity": 79}, {"time": 110876, "pitch": 69, "duration": 77, "velocity": 75}, {"time": 112081, "pitch": 62, "duration": 150, "velocity": 76}, {"time": 112081, "pitch": 64, "duration": 150, "velocity": 74}, {"time": 112081, "pitch": 67, "duration": 150, "velocity": 75}, {"time": 112081, "pitch": 71, "duration": 150, "velocity": 52}, {"time": 112244, "pitch": 62, "duration": 30, "velocity": 73}, {"time": 112244, "pitch": 64, "duration": 30, "velocity": 77}, {"time": 112244, "pitch": 67, "duration": 30, "velocity": 69}, {"time": 112244, "pitch": 71, "duration": 30, "velocity": 46}, {"time": 112321, "pitch": 62, "duration": 31, "velocity": 56}, {"time": 112321, "pitch": 64, "duration": 31, "velocity": 70}, {"time": 112321, "pitch": 67, "duration": 31, "velocity": 69}, {"time": 112321, "pitch": 71, "duration": 31, "velocity": 69}, {"time": 112485, "pitch": 62, "duration": 30, "velocity": 58}, {"time": 112485, "pitch": 64, "duration": 30, "velocity": 68}, {"time": 112485, "pitch": 67, "duration": 30, "velocity": 64}, {"time": 112485, "pitch": 71, "duration": 30, "velocity": 74}, {"time": 112726, "pitch": 62, "duration": 30, "velocity": 79}, {"time": 112726, "pitch": 64, "duration": 30, "velocity": 84}, {"time": 112726, "pitch": 67, "duration": 30, "velocity": 77}, {"time": 112726, "pitch": 71, "duration": 30, "velocity": 62}, {"time": 112964, "pitch": 62, "duration": 30, "velocity": 72}, {"time": 112964, "pitch": 64, "duration": 30, "velocity": 70}, {"time": 112964, "pitch": 67, "duration": 30, "velocity": 77}, {"time": 112964, "pitch": 71, "duration": 30, "velocity": 64}, {"time": 113201, "pitch": 62, "duration": 30, "velocity": 74}, {"time": 113201, "pitch": 64, "duration": 30, "velocity": 71}, {"time": 113201, "pitch": 67, "duration": 30, "velocity": 68}, {"time": 113201, "pitch": 71, "duration": 30, "velocity": 52}, {"time": 113277, "pitch": 62, "duration": 151, "velocity": 62}, {"time": 113277, "pitch": 64, "duration": 151, "velocity": 69}, {"time": 113277, "pitch": 67, "duration": 151, "velocity": 80}, {"time": 113277, "pitch": 71, "duration": 151, "velocity": 79}, {"time": 113441, "pitch": 62, "duration": 30, "velocity": 46}, {"time": 113441, "pitch": 64, "duration": 30, "velocity": 64}, {"time": 113441, "pitch": 67, "duration": 30, "velocity": 81}, {"time": 113441, "pitch": 71, "duration": 30, "velocity": 77}, {"time": 114000, "pitch": 64, "duration": 150, "velocity": 84}, {"time": 114000, "pitch": 66, "duration": 150, "velocity": 71}, {"time": 114000, "pitch": 69, "duration": 150, "velocity": 81}, {"time": 114000, "pitch": 73, "duration": 150, "velocity": 62}, {"time": 114163, "pitch": 64, "duration": 30, "velocity": 64}, {"time": 114163, "pitch": 66, "duration": 30, "velocity": 61}, {"time": 114163, "pitch": 69, "duration": 30, "velocity": 72}, {"time": 114163, "pitch": 73, "duration": 30, "velocity": 50}, {"time": 114241, "pitch": 64, "duration": 30, "velocity": 66}, {"time": 114241, "pitch": 66, "duration": 30, "velocity": 51}, {"time": 114241, "pitch": 69, "duration": 30, "velocity": 79}, {"time": 114241, "pitch": 73, "duration": 30, "velocity": 38}, {"time": 114404, "pitch": 64, "duration": 30, "velocity": 72}, {"time": 114404, "pitch": 66, "duration": 30, "velocity": 61}, {"time": 114404, "pitch": 69, "duration": 30, "velocity": 73}, {"time": 114404, "pitch": 73, "duration": 30, "velocity": 40}, {"time": 114645, "pitch": 64, "duration": 30, "velocity": 79}, {"time": 114645, "pitch": 66, "duration": 30, "velocity": 83}, {"time": 114645, "pitch": 69, "duration": 30, "velocity": 83}, {"time": 114645, "pitch": 73, "duration": 30, "velocity": 71}, {"time": 114883, "pitch": 64, "duration": 30, "velocity": 67}, {"time": 114883, "pitch": 66, "duration": 30, "velocity": 65}, {"time": 114883, "pitch": 69, "duration": 30, "velocity": 79}, {"time": 114883, "pitch": 73, "duration": 30, "velocity": 50}, {"time": 115120, "pitch": 64, "duration": 30, "velocity": 61}, {"time": 115120, "pitch": 66, "duration": 30, "velocity": 61}, {"time": 115120, "pitch": 69, "duration": 30, "velocity": 74}, {"time": 115120, "pitch": 73, "duration": 30, "velocity": 74}, {"time": 115196, "pitch": 64, "duration": 151, "velocity": 75}, {"time": 115196, "pitch": 66, "duration": 151, "velocity": 52}, {"time": 115196, "pitch": 69, "duration": 151, "velocity": 36}, {"time": 115196, "pitch": 69, "duration": 151, "velocity": 70}, {"time": 115196, "pitch": 73, "duration": 151, "velocity": 15}, {"time": 115360, "pitch": 64, "duration": 30, "velocity": 67}, {"time": 115360, "pitch": 66, "duration": 30, "velocity": 73}, {"time": 115360, "pitch": 69, "duration": 30, "velocity": 76}, {"time": 115360, "pitch": 73, "duration": 30, "velocity": 64}, {"time": 115919, "pitch": 62, "duration": 150, "velocity": 76}, {"time": 115919, "pitch": 64, "duration": 150, "velocity": 74}, {"time": 115919, "pitch": 67, "duration": 150, "velocity": 75}, {"time": 115919, "pitch": 71, "duration": 150, "velocity": 52}, {"time": 116083, "pitch": 62, "duration": 30, "velocity": 73}, {"time": 116083, "pitch": 64, "duration": 30, "velocity": 77}, {"time": 116083, "pitch": 67, "duration": 30, "velocity": 69}, {"time": 116083, "pitch": 71, "duration": 30, "velocity": 46}, {"time": 116160, "pitch": 62, "duration": 30, "velocity": 56}, {"time": 116160, "pitch": 64, "duration": 30, "velocity": 70}, {"time": 116160, "pitch": 67, "duration": 30, "velocity": 69}, {"time": 116160, "pitch": 71, "duration": 30, "velocity": 69}, {"time": 116323, "pitch": 62, "duration": 31, "velocity": 58}, {"time": 116323, "pitch": 64, "duration": 31, "velocity": 68}, {"time": 116323, "pitch": 67, "duration": 31, "velocity": 64}, {"time": 116323, "pitch": 71, "duration": 31, "velocity": 74}, {"time": 116564, "pitch": 62, "duration": 30, "velocity": 79}, {"time": 116564, "pitch": 64, "duration": 30, "velocity": 84}, {"time": 116564, "pitch": 67, "duration": 30, "velocity": 77}, {"time": 116564, "pitch": 71, "duration": 30, "velocity": 62}, {"time": 116805, "pitch": 62, "duration": 30, "velocity": 72}, {"time": 116805, "pitch": 64, "duration": 30, "velocity": 70}, {"time": 116805, "pitch": 67, "duration": 30, "velocity": 77}, {"time": 116805, "pitch": 71, "duration": 30, "velocity": 64}, {"time": 117046, "pitch": 62, "duration": 30, "velocity": 74}, {"time": 117046, "pitch": 64, "duration": 30, "velocity": 71}, {"time": 117046, "pitch": 67, "duration": 30, "velocity": 68}, {"time": 117046, "pitch": 71, "duration": 30, "velocity": 52}, {"time": 117123, "pitch": 62, "duration": 148, "velocity": 62}, {"time": 117123, "pitch": 64, "duration": 148, "velocity": 69}, {"time": 117123, "pitch": 67, "duration": 148, "velocity": 80}, {"time": 117123, "pitch": 71, "duration": 148, "velocity": 79}, {"time": 117284, "pitch": 62, "duration": 30, "velocity": 46}, {"time": 117284, "pitch": 64, "duration": 30, "velocity": 64}, {"time": 117284, "pitch": 67, "duration": 30, "velocity": 81}, {"time": 117284, "pitch": 71, "duration": 30, "velocity": 77}, {"time": 117838, "pitch": 61, "duration": 151, "velocity": 84}, {"time": 117838, "pitch": 62, "duration": 151, "velocity": 71}, {"time": 117838, "pitch": 66, "duration": 151, "velocity": 81}, {"time": 117838, "pitch": 69, "duration": 151, "velocity": 62}, {"time": 118002, "pitch": 61, "duration": 30, "velocity": 64}, {"time": 118002, "pitch": 62, "duration": 30, "velocity": 61}, {"time": 118002, "pitch": 66, "duration": 30, "velocity": 72}, {"time": 118002, "pitch": 69, "duration": 30, "velocity": 50}, {"time": 118079, "pitch": 61, "duration": 30, "velocity": 66}, {"time": 118079, "pitch": 62, "duration": 30, "velocity": 51}, {"time": 118079, "pitch": 66, "duration": 30, "velocity": 79}, {"time": 118079, "pitch": 69, "duration": 30, "velocity": 38}, {"time": 118243, "pitch": 61, "duration": 30, "velocity": 72}, {"time": 118243, "pitch": 62, "duration": 30, "velocity": 61}, {"time": 118243, "pitch": 66, "duration": 30, "velocity": 73}, {"time": 118243, "pitch": 69, "duration": 30, "velocity": 40}, {"time": 118484, "pitch": 61, "duration": 30, "velocity": 79}, {"time": 118484, "pitch": 62, "duration": 30, "velocity": 83}, {"time": 118484, "pitch": 66, "duration": 30, "velocity": 83}, {"time": 118484, "pitch": 69, "duration": 30, "velocity": 71}, {"time": 118724, "pitch": 61, "duration": 30, "velocity": 67}, {"time": 118724, "pitch": 62, "duration": 30, "velocity": 65}, {"time": 118724, "pitch": 66, "duration": 30, "velocity": 79}, {"time": 118724, "pitch": 69, "duration": 30, "velocity": 50}, {"time": 118965, "pitch": 61, "duration": 30, "velocity": 61}, {"time": 118965, "pitch": 62, "duration": 30, "velocity": 61}, {"time": 118965, "pitch": 66, "duration": 30, "velocity": 74}, {"time": 118965, "pitch": 69, "duration": 30, "velocity": 74}, {"time": 119043, "pitch": 61, "duration": 148, "velocity": 75}, {"time": 119043, "pitch": 62, "duration": 148, "velocity": 52}, {"time": 119043, "pitch": 66, "duration": 148, "velocity": 36}, {"time": 119043, "pitch": 66, "duration": 148, "velocity": 70}, {"time": 119043, "pitch": 69, "duration": 148, "velocity": 15}, {"time": 119203, "pitch": 61, "duration": 30, "velocity": 67}, {"time": 119203, "pitch": 62, "duration": 30, "velocity": 73}, {"time": 119203, "pitch": 66, "duration": 30, "velocity": 76}, {"time": 119203, "pitch": 69, "duration": 30, "velocity": 64}, {"time": 119757, "pitch": 62, "duration": 151, "velocity": 76}, {"time": 119757, "pitch": 64, "duration": 151, "velocity": 74}, {"time": 119757, "pitch": 67, "duration": 151, "velocity": 75}, {"time": 119757, "pitch": 71, "duration": 151, "velocity": 52}, {"time": 119921, "pitch": 62, "duration": 30, "velocity": 73}, {"time": 119921, "pitch": 64, "duration": 30, "velocity": 77}, {"time": 119921, "pitch": 67, "duration": 30, "velocity": 69}, {"time": 119921, "pitch": 71, "duration": 30, "velocity": 46}, {"time": 119998, "pitch": 62, "duration": 30, "velocity": 56}, {"time": 119998, "pitch": 64, "duration": 30, "velocity": 70}, {"time": 119998, "pitch": 67, "duration": 30, "velocity": 69}, {"time": 119998, "pitch": 71, "duration": 30, "velocity": 69}, {"time": 120162, "pitch": 62, "duration": 30, "velocity": 58}, {"time": 120162, "pitch": 64, "duration": 30, "velocity": 68}, {"time": 120162, "pitch": 67, "duration": 30, "velocity": 64}, {"time": 120162, "pitch": 71, "duration": 30, "velocity": 74}, {"time": 120403, "pitch": 62, "duration": 30, "velocity": 79}, {"time": 120403, "pitch": 64, "duration": 30, "velocity": 84}, {"time": 120403, "pitch": 67, "duration": 30, "velocity": 77}, {"time": 120403, "pitch": 71, "duration": 30, "velocity": 62}, {"time": 120644, "pitch": 62, "duration": 30, "velocity": 72}, {"time": 120644, "pitch": 64, "duration": 30, "velocity": 70}, {"time": 120644, "pitch": 67, "duration": 30, "velocity": 77}, {"time": 120644, "pitch": 71, "duration": 30, "velocity": 64}, {"time": 120884, "pitch": 62, "duration": 31, "velocity": 74}, {"time": 120884, "pitch": 64, "duration": 31, "velocity": 71}, {"time": 120884, "pitch": 67, "duration": 31, "velocity": 68}, {"time": 120884, "pitch": 71, "duration": 31, "velocity": 52}, {"time": 120962, "pitch": 62, "duration": 150, "velocity": 62}, {"time": 120962, "pitch": 64, "duration": 150, "velocity": 69}, {"time": 120962, "pitch": 67, "duration": 150, "velocity": 80}, {"time": 120962, "pitch": 71, "duration": 150, "velocity": 79}, {"time": 121125, "pitch": 62, "duration": 30, "velocity": 46}, {"time": 121125, "pitch": 64, "duration": 30, "velocity": 64}, {"time": 121125, "pitch": 67, "duration": 30, "velocity": 81}, {"time": 121125, "pitch": 71, "duration": 30, "velocity": 77}, {"time": 121680, "pitch": 64, "duration": 149, "velocity": 84}, {"time": 121680, "pitch": 66, "duration": 149, "velocity": 71}, {"time": 121680, "pitch": 69, "duration": 149, "velocity": 81}, {"time": 121680, "pitch": 73, "duration": 149, "velocity": 62}, {"time": 121841, "pitch": 64, "duration": 30, "velocity": 64}, {"time": 121841, "pitch": 66, "duration": 30, "velocity": 61}, {"time": 121841, "pitch": 69, "duration": 30, "velocity": 72}, {"time": 121841, "pitch": 73, "duration": 30, "velocity": 50}, {"time": 121917, "pitch": 64, "duration": 31, "velocity": 66}, {"time": 121917, "pitch": 66, "duration": 31, "velocity": 51}, {"time": 121917, "pitch": 69, "duration": 31, "velocity": 79}, {"time": 121917, "pitch": 73, "duration": 31, "velocity": 38}, {"time": 122081, "pitch": 64, "duration": 30, "velocity": 72}, {"time": 122081, "pitch": 66, "duration": 30, "velocity": 61}, {"time": 122081, "pitch": 69, "duration": 30, "velocity": 73}, {"time": 122081, "pitch": 73, "duration": 30, "velocity": 40}, {"time": 122322, "pitch": 63, "duration": 30, "velocity": 79}, {"time": 122322, "pitch": 65, "duration": 30, "velocity": 83}, {"time": 122322, "pitch": 69, "duration": 30, "velocity": 83}, {"time": 122322, "pitch": 72, "duration": 30, "velocity": 71}, {"time": 122563, "pitch": 63, "duration": 30, "velocity": 67}, {"time": 122563, "pitch": 65, "duration": 30, "velocity": 65}, {"time": 122563, "pitch": 69, "duration": 30, "velocity": 79}, {"time": 122563, "pitch": 72, "duration": 30, "velocity": 50}, {"time": 122804, "pitch": 63, "duration": 30, "velocity": 61}, {"time": 122804, "pitch": 65, "duration": 30, "velocity": 61}, {"time": 122804, "pitch": 69, "duration": 30, "velocity": 74}, {"time": 122804, "pitch": 72, "duration": 30, "velocity": 74}, {"time": 122881, "pitch": 63, "duration": 150, "velocity": 75}, {"time": 122881, "pitch": 65, "duration": 150, "velocity": 52}, {"time": 122881, "pitch": 69, "duration": 150, "velocity": 36}, {"time": 122881, "pitch": 69, "duration": 150, "velocity": 70}, {"time": 122881, "pitch": 72, "duration": 150, "velocity": 15}, {"time": 123045, "pitch": 63, "duration": 30, "velocity": 67}, {"time": 123045, "pitch": 65, "duration": 30, "velocity": 73}, {"time": 123045, "pitch": 69, "duration": 30, "velocity": 76}, {"time": 123045, "pitch": 72, "duration": 30, "velocity": 64}, {"time": 123600, "pitch": 62, "duration": 148, "velocity": 76}, {"time": 123600, "pitch": 64, "duration": 148, "velocity": 74}, {"time": 123600, "pitch": 67, "duration": 148, "velocity": 75}, {"time": 123600, "pitch": 71, "duration": 148, "velocity": 52}, {"time": 123761, "pitch": 62, "duration": 29, "velocity": 73}, {"time": 123761, "pitch": 64, "duration": 29, "velocity": 77}, {"time": 123761, "pitch": 67, "duration": 29, "velocity": 69}, {"time": 123761, "pitch": 71, "duration": 29, "velocity": 46}, {"time": 123837, "pitch": 62, "duration": 30, "velocity": 56}, {"time": 123837, "pitch": 64, "duration": 30, "velocity": 70}, {"time": 123837, "pitch": 67, "duration": 30, "velocity": 69}, {"time": 123837, "pitch": 71, "duration": 30, "velocity": 69}, {"time": 124000, "pitch": 62, "duration": 30, "velocity": 58}, {"time": 124000, "pitch": 64, "duration": 30, "velocity": 68}, {"time": 124000, "pitch": 67, "duration": 30, "velocity": 64}, {"time": 124000, "pitch": 71, "duration": 30, "velocity": 74}, {"time": 124241, "pitch": 61, "duration": 30, "velocity": 79}, {"time": 124241, "pitch": 66, "duration": 30, "velocity": 84}, {"time": 124241, "pitch": 69, "duration": 30, "velocity": 77}, {"time": 124241, "pitch": 73, "duration": 30, "velocity": 62}, {"time": 124482, "pitch": 61, "duration": 30, "velocity": 72}, {"time": 124482, "pitch": 66, "duration": 30, "velocity": 70}, {"time": 124482, "pitch": 69, "duration": 30, "velocity": 77}, {"time": 124482, "pitch": 73, "duration": 30, "velocity": 64}, {"time": 124723, "pitch": 61, "duration": 30, "velocity": 74}, {"time": 124723, "pitch": 66, "duration": 30, "velocity": 71}, {"time": 124723, "pitch": 69, "duration": 30, "velocity": 68}, {"time": 124723, "pitch": 73, "duration": 30, "velocity": 52}, {"time": 124800, "pitch": 61, "duration": 151, "velocity": 62}, {"time": 124800, "pitch": 66, "duration": 151, "velocity": 69}, {"time": 124800, "pitch": 69, "duration": 151, "velocity": 80}, {"time": 124800, "pitch": 73, "duration": 151, "velocity": 79}, {"time": 124964, "pitch": 61, "duration": 30, "velocity": 46}, {"time": 124964, "pitch": 66, "duration": 30, "velocity": 64}, {"time": 124964, "pitch": 69, "duration": 30, "velocity": 81}, {"time": 124964, "pitch": 73, "duration": 30, "velocity": 77}, {"time": 125523, "pitch": 59, "duration": 60, "velocity": 82}, {"time": 125523, "pitch": 62, "duration": 68, "velocity": 83}, {"time": 125523, "pitch": 66, "duration": 76, "velocity": 75}, {"time": 125523, "pitch": 69, "duration": 71, "velocity": 75}, {"time": 125896, "pitch": 57, "duration": 311, "velocity": 84}, {"time": 125896, "pitch": 60, "duration": 306, "velocity": 78}, {"time": 125896, "pitch": 64, "duration": 304, "velocity": 75}, {"time": 125896, "pitch": 67, "duration": 322, "velocity": 71}, {"time": 126238, "pitch": 59, "duration": 53, "velocity": 82}, {"time": 126238, "pitch": 62, "duration": 59, "velocity": 85}, {"time": 126238, "pitch": 66, "duration": 82, "velocity": 79}, {"time": 126238, "pitch": 69, "duration": 77, "velocity": 75}, {"time": 127201, "pitch": 55, "duration": 686, "velocity": 114}, {"time": 127201, "pitch": 59, "duration": 704, "velocity": 102}, {"time": 127201, "pitch": 62, "duration": 703, "velocity": 105}, {"time": 127201, "pitch": 66, "duration": 694, "velocity": 88}, {"time": 127920, "pitch": 55, "duration": 876, "velocity": 114}, {"time": 127920, "pitch": 59, "duration": 889, "velocity": 102}, {"time": 127920, "pitch": 62, "duration": 896, "velocity": 100}, {"time": 127920, "pitch": 66, "duration": 886, "velocity": 89}, {"time": 128879, "pitch": 55, "duration": 883, "velocity": 110}, {"time": 128879, "pitch": 59, "duration": 894, "velocity": 102}, {"time": 128879, "pitch": 62, "duration": 900, "velocity": 103}, {"time": 128879, "pitch": 66, "duration": 891, "velocity": 92}, {"time": 129843, "pitch": 55, "duration": 1101, "velocity": 103}, {"time": 129843, "pitch": 59, "duration": 1112, "velocity": 105}, {"time": 129843, "pitch": 62, "duration": 1112, "velocity": 110}, {"time": 129843, "pitch": 66, "duration": 1101, "velocity": 88}, {"time": 131039, "pitch": 55, "duration": 643, "velocity": 110}, {"time": 131039, "pitch": 59, "duration": 669, "velocity": 102}, {"time": 131039, "pitch": 62, "duration": 669, "velocity": 96}, {"time": 131039, "pitch": 66, "duration": 653, "velocity": 82}, {"time": 131762, "pitch": 55, "duration": 741, "velocity": 105}, {"time": 131762, "pitch": 59, "duration": 753, "velocity": 102}, {"time": 131762, "pitch": 62, "duration": 759, "velocity": 105}, {"time": 131762, "pitch": 66, "duration": 779, "velocity": 86}, {"time": 132718, "pitch": 54, "duration": 825, "velocity": 107}, {"time": 132718, "pitch": 57, "duration": 794, "velocity": 98}, {"time": 132718, "pitch": 61, "duration": 777, "velocity": 102}, {"time": 132718, "pitch": 64, "duration": 793, "velocity": 92}, {"time": 133681, "pitch": 57, "duration": 1141, "velocity": 110}, {"time": 133681, "pitch": 59, "duration": 1132, "velocity": 100}, {"time": 133681, "pitch": 62, "duration": 1148, "velocity": 105}, {"time": 133681, "pitch": 66, "duration": 1173, "velocity": 82}, {"time": 134878, "pitch": 55, "duration": 689, "velocity": 114}, {"time": 134878, "pitch": 59, "duration": 707, "velocity": 102}, {"time": 134878, "pitch": 62, "duration": 706, "velocity": 105}, {"time": 134878, "pitch": 66, "duration": 697, "velocity": 88}, {"time": 135601, "pitch": 55, "duration": 877, "velocity": 114}, {"time": 135601, "pitch": 59, "duration": 890, "velocity": 102}, {"time": 135601, "pitch": 62, "duration": 897, "velocity": 100}, {"time": 135601, "pitch": 66, "duration": 887, "velocity": 89}, {"time": 136560, "pitch": 55, "duration": 878, "velocity": 110}, {"time": 136560, "pitch": 59, "duration": 889, "velocity": 102}, {"time": 136560, "pitch": 62, "duration": 895, "velocity": 103}, {"time": 136560, "pitch": 66, "duration": 886, "velocity": 92}, {"time": 137520, "pitch": 55, "duration": 1103, "velocity": 103}, {"time": 137520, "pitch": 59, "duration": 1113, "velocity": 105}, {"time": 137520, "pitch": 62, "duration": 1113, "velocity": 110}, {"time": 137520, "pitch": 66, "duration": 1103, "velocity": 88}, {"time": 138716, "pitch": 56, "duration": 517, "velocity": 105}, {"time": 138716, "pitch": 59, "duration": 502, "velocity": 102}, {"time": 138716, "pitch": 63, "duration": 497, "velocity": 102}, {"time": 138716, "pitch": 66, "duration": 535, "velocity": 88}, {"time": 139439, "pitch": 56, "duration": 677, "velocity": 92}, {"time": 139680, "pitch": 59, "duration": 539, "velocity": 86}, {"time": 139921, "pitch": 63, "duration": 255, "velocity": 89}, {"time": 140162, "pitch": 66, "duration": 243, "velocity": 88}, {"time": 140402, "pitch": 56, "duration": 104, "velocity": 72}, {"time": 140643, "pitch": 56, "duration": 561, "velocity": 86}, {"time": 140643, "pitch": 59, "duration": 412, "velocity": 64}, {"time": 140643, "pitch": 63, "duration": 420, "velocity": 87}, {"time": 140643, "pitch": 66, "duration": 439, "velocity": 74}, {"time": 141358, "pitch": 56, "duration": 349, "velocity": 81}, {"time": 141493, "pitch": 59, "duration": 298, "velocity": 87}, {"time": 141733, "pitch": 63, "duration": 261, "velocity": 89}, {"time": 141974, "pitch": 56, "duration": 94, "velocity": 71}, {"time": 142081, "pitch": 66, "duration": 178, "velocity": 96}, {"time": 142215, "pitch": 63, "duration": 125, "velocity": 88}, {"time": 142322, "pitch": 59, "duration": 202, "velocity": 66}, {"time": 142562, "pitch": 55, "duration": 503, "velocity": 112}, {"time": 142562, "pitch": 59, "duration": 508, "velocity": 100}, {"time": 142562, "pitch": 62, "duration": 455, "velocity": 105}, {"time": 142562, "pitch": 66, "duration": 520, "velocity": 91}, {"time": 143277, "pitch": 55, "duration": 202, "velocity": 96}, {"time": 143412, "pitch": 59, "duration": 353, "velocity": 83}, {"time": 143653, "pitch": 62, "duration": 246, "velocity": 91}, {"time": 143894, "pitch": 55, "duration": 261, "velocity": 88}, {"time": 144000, "pitch": 66, "duration": 262, "velocity": 79}, {"time": 144241, "pitch": 55, "duration": 60, "velocity": 76}, {"time": 144482, "pitch": 55, "duration": 54, "velocity": 105}, {"time": 144482, "pitch": 59, "duration": 278, "velocity": 87}, {"time": 144482, "pitch": 62, "duration": 298, "velocity": 103}, {"time": 144482, "pitch": 66, "duration": 300, "velocity": 77}, {"time": 144616, "pitch": 55, "duration": 127, "velocity": 45}, {"time": 145200, "pitch": 55, "duration": 64, "velocity": 85}, {"time": 145200, "pitch": 59, "duration": 30, "velocity": 68}, {"time": 145200, "pitch": 62, "duration": 30, "velocity": 80}, {"time": 145200, "pitch": 66, "duration": 41, "velocity": 48}, {"time": 145333, "pitch": 55, "duration": 27, "velocity": 65}, {"time": 145333, "pitch": 59, "duration": 32, "velocity": 66}, {"time": 145333, "pitch": 62, "duration": 29, "velocity": 84}, {"time": 145333, "pitch": 66, "duration": 35, "velocity": 52}, {"time": 145437, "pitch": 55, "duration": 54, "velocity": 88}, {"time": 145437, "pitch": 59, "duration": 67, "velocity": 86}, {"time": 145437, "pitch": 62, "duration": 34, "velocity": 91}, {"time": 145437, "pitch": 66, "duration": 53, "velocity": 72}, {"time": 145572, "pitch": 55, "duration": 48, "velocity": 107}, {"time": 145572, "pitch": 59, "duration": 19, "velocity": 98}, {"time": 145572, "pitch": 62, "duration": 20, "velocity": 103}, {"time": 145572, "pitch": 66, "duration": 100, "velocity": 76}, {"time": 145919, "pitch": 55, "duration": 18, "velocity": 96}, {"time": 145919, "pitch": 59, "duration": 24, "velocity": 91}, {"time": 145919, "pitch": 62, "duration": 22, "velocity": 94}, {"time": 145919, "pitch": 66, "duration": 37, "velocity": 66}, {"time": 146054, "pitch": 55, "duration": 63, "velocity": 100}, {"time": 146054, "pitch": 59, "duration": 28, "velocity": 91}, {"time": 146054, "pitch": 62, "duration": 24, "velocity": 96}, {"time": 146054, "pitch": 66, "duration": 124, "velocity": 43}, {"time": 146401, "pitch": 56, "duration": 377, "velocity": 102}, {"time": 146401, "pitch": 59, "duration": 376, "velocity": 94}, {"time": 146401, "pitch": 63, "duration": 395, "velocity": 92}, {"time": 146401, "pitch": 66, "duration": 406, "velocity": 81}, {"time": 147120, "pitch": 56, "duration": 187, "velocity": 88}, {"time": 147252, "pitch": 59, "duration": 209, "velocity": 82}, {"time": 147491, "pitch": 59, "duration": 30, "velocity": 56}, {"time": 147491, "pitch": 63, "duration": 229, "velocity": 96}, {"time": 147732, "pitch": 56, "duration": 69, "velocity": 67}, {"time": 147838, "pitch": 59, "duration": 36, "velocity": 63}, {"time": 147838, "pitch": 66, "duration": 240, "velocity": 89}, {"time": 148079, "pitch": 56, "duration": 82, "velocity": 67}, {"time": 148320, "pitch": 56, "duration": 436, "velocity": 92}, {"time": 148320, "pitch": 59, "duration": 435, "velocity": 94}, {"time": 148320, "pitch": 63, "duration": 448, "velocity": 86}, {"time": 148320, "pitch": 66, "duration": 475, "velocity": 71}, {"time": 149043, "pitch": 56, "duration": 237, "velocity": 91}, {"time": 149043, "pitch": 59, "duration": 26, "velocity": 92}, {"time": 149043, "pitch": 63, "duration": 264, "velocity": 81}, {"time": 149043, "pitch": 66, "duration": 262, "velocity": 74}, {"time": 149177, "pitch": 59, "duration": 185, "velocity": 16}, {"time": 149416, "pitch": 56, "duration": 153, "velocity": 96}, {"time": 149416, "pitch": 59, "duration": 131, "velocity": 94}, {"time": 149416, "pitch": 63, "duration": 131, "velocity": 92}, {"time": 149416, "pitch": 66, "duration": 163, "velocity": 71}, {"time": 149758, "pitch": 56, "duration": 57, "velocity": 92}, {"time": 149758, "pitch": 59, "duration": 18, "velocity": 91}, {"time": 149758, "pitch": 63, "duration": 78, "velocity": 86}, {"time": 149758, "pitch": 66, "duration": 234, "velocity": 70}, {"time": 149892, "pitch": 56, "duration": 93, "velocity": 98}, {"time": 149892, "pitch": 59, "duration": 94, "velocity": 87}, {"time": 149892, "pitch": 63, "duration": 100, "velocity": 81}, {"time": 150239, "pitch": 55, "duration": 425, "velocity": 110}, {"time": 150239, "pitch": 59, "duration": 429, "velocity": 91}, {"time": 150239, "pitch": 62, "duration": 409, "velocity": 102}, {"time": 150239, "pitch": 66, "duration": 455, "velocity": 82}, {"time": 150962, "pitch": 55, "duration": 252, "velocity": 94}, {"time": 151096, "pitch": 59, "duration": 291, "velocity": 85}, {"time": 151335, "pitch": 62, "duration": 235, "velocity": 103}, {"time": 151572, "pitch": 55, "duration": 60, "velocity": 84}, {"time": 151677, "pitch": 55, "duration": 33, "velocity": 75}, {"time": 151677, "pitch": 66, "duration": 253, "velocity": 91}, {"time": 151918, "pitch": 55, "duration": 87, "velocity": 94}, {"time": 152158, "pitch": 55, "duration": 69, "velocity": 85}, {"time": 152158, "pitch": 59, "duration": 85, "velocity": 83}, {"time": 152158, "pitch": 62, "duration": 24, "velocity": 91}, {"time": 152173, "pitch": 66, "duration": 372, "velocity": 88}, {"time": 152640, "pitch": 55, "duration": 191, "velocity": 91}, {"time": 153122, "pitch": 55, "duration": 92, "velocity": 37}, {"time": 153122, "pitch": 59, "duration": 43, "velocity": 88}, {"time": 153122, "pitch": 62, "duration": 65, "velocity": 103}, {"time": 153122, "pitch": 66, "duration": 70, "velocity": 70}, {"time": 153363, "pitch": 55, "duration": 675, "velocity": 110}, {"time": 153363, "pitch": 59, "duration": 690, "velocity": 96}, {"time": 153363, "pitch": 62, "duration": 691, "velocity": 98}, {"time": 153363, "pitch": 66, "duration": 728, "velocity": 86}, {"time": 7693, "pitch": 50, "duration": 141, "velocity": 100}, {"time": 7841, "pitch": 47, "duration": 115, "velocity": 74}, {"time": 7932, "pitch": 43, "duration": 286, "velocity": 68}, {"time": 8165, "pitch": 49, "duration": 3785, "velocity": 114}, {"time": 8165, "pitch": 54, "duration": 81, "velocity": 87}, {"time": 8170, "pitch": 64, "duration": 200, "velocity": 114}, {"time": 8294, "pitch": 54, "duration": 28, "velocity": 59}, {"time": 8391, "pitch": 54, "duration": 82, "velocity": 73}, {"time": 8402, "pitch": 70, "duration": 80, "velocity": 103}, {"time": 8403, "pitch": 42, "duration": 111, "velocity": 75}, {"time": 8410, "pitch": 63, "duration": 132, "velocity": 91}, {"time": 8541, "pitch": 54, "duration": 27, "velocity": 62}, {"time": 8541, "pitch": 70, "duration": 59, "velocity": 83}, {"time": 8635, "pitch": 62, "duration": 139, "velocity": 119}, {"time": 8637, "pitch": 54, "duration": 78, "velocity": 87}, {"time": 8639, "pitch": 40, "duration": 461, "velocity": 74}, {"time": 8639, "pitch": 42, "duration": 149, "velocity": 105}, {"time": 8784, "pitch": 54, "duration": 28, "velocity": 64}, {"time": 8875, "pitch": 64, "duration": 79, "velocity": 98}, {"time": 8878, "pitch": 54, "duration": 79, "velocity": 76}, {"time": 8878, "pitch": 69, "duration": 43, "velocity": 112}, {"time": 8880, "pitch": 42, "duration": 107, "velocity": 85}, {"time": 9019, "pitch": 54, "duration": 37, "velocity": 66}, {"time": 9022, "pitch": 64, "duration": 108, "velocity": 103}, {"time": 9099, "pitch": 54, "duration": 82, "velocity": 88}, {"time": 9121, "pitch": 42, "duration": 157, "velocity": 91}, {"time": 9268, "pitch": 64, "duration": 72, "velocity": 94}, {"time": 9270, "pitch": 54, "duration": 31, "velocity": 57}, {"time": 9351, "pitch": 63, "duration": 202, "velocity": 96}, {"time": 9355, "pitch": 54, "duration": 76, "velocity": 76}, {"time": 9361, "pitch": 42, "duration": 156, "velocity": 94}, {"time": 9502, "pitch": 54, "duration": 32, "velocity": 62}, {"time": 9591, "pitch": 54, "duration": 78, "velocity": 92}, {"time": 9602, "pitch": 40, "duration": 504, "velocity": 70}, {"time": 9602, "pitch": 42, "duration": 158, "velocity": 103}, {"time": 9610, "pitch": 62, "duration": 144, "velocity": 119}, {"time": 9766, "pitch": 54, "duration": 32, "velocity": 43}, {"time": 9827, "pitch": 63, "duration": 103, "velocity": 77}, {"time": 9837, "pitch": 54, "duration": 83, "velocity": 70}, {"time": 9843, "pitch": 42, "duration": 140, "velocity": 88}, {"time": 9980, "pitch": 54, "duration": 26, "velocity": 70}, {"time": 9985, "pitch": 62, "duration": 88, "velocity": 112}, {"time": 10064, "pitch": 54, "duration": 86, "velocity": 95}, {"time": 10085, "pitch": 42, "duration": 154, "velocity": 92}, {"time": 10236, "pitch": 54, "duration": 34, "velocity": 43}, {"time": 10240, "pitch": 62, "duration": 70, "velocity": 102}, {"time": 10316, "pitch": 63, "duration": 179, "velocity": 98}, {"time": 10321, "pitch": 42, "duration": 124, "velocity": 91}, {"time": 10321, "pitch": 70, "duration": 80, "velocity": 103}, {"time": 10323, "pitch": 54, "duration": 72, "velocity": 72}, {"time": 10452, "pitch": 54, "duration": 56, "velocity": 71}, {"time": 10460, "pitch": 70, "duration": 59, "velocity": 83}, {"time": 10548, "pitch": 64, "duration": 120, "velocity": 110}, {"time": 10558, "pitch": 40, "duration": 455, "velocity": 80}, {"time": 10558, "pitch": 42, "duration": 177, "velocity": 103}, {"time": 10559, "pitch": 54, "duration": 75, "velocity": 99}, {"time": 10741, "pitch": 54, "duration": 32, "velocity": 46}, {"time": 10782, "pitch": 63, "duration": 69, "velocity": 86}, {"time": 10797, "pitch": 69, "duration": 43, "velocity": 112}, {"time": 10799, "pitch": 42, "duration": 74, "velocity": 77}, {"time": 10809, "pitch": 54, "duration": 87, "velocity": 85}, {"time": 10927, "pitch": 62, "duration": 62, "velocity": 103}, {"time": 10929, "pitch": 42, "duration": 26, "velocity": 77}, {"time": 10963, "pitch": 54, "duration": 38, "velocity": 68}, {"time": 11040, "pitch": 42, "duration": 112, "velocity": 92}, {"time": 11047, "pitch": 54, "duration": 88, "velocity": 95}, {"time": 11175, "pitch": 62, "duration": 22, "velocity": 96}, {"time": 11222, "pitch": 54, "duration": 38, "velocity": 43}, {"time": 11276, "pitch": 63, "duration": 67, "velocity": 89}, {"time": 11282, "pitch": 42, "duration": 164, "velocity": 100}, {"time": 11284, "pitch": 54, "duration": 93, "velocity": 73}, {"time": 11441, "pitch": 54, "duration": 54, "velocity": 68}, {"time": 11518, "pitch": 62, "duration": 99, "velocity": 110}, {"time": 11522, "pitch": 40, "duration": 475, "velocity": 77}, {"time": 11522, "pitch": 42, "duration": 138, "velocity": 105}, {"time": 11536, "pitch": 54, "duration": 80, "velocity": 95}, {"time": 11671, "pitch": 64, "duration": 53, "velocity": 103}, {"time": 11682, "pitch": 54, "duration": 36, "velocity": 62}, {"time": 11762, "pitch": 46, "duration": 227, "velocity": 102}, {"time": 11770, "pitch": 54, "duration": 82, "velocity": 88}, {"time": 11933, "pitch": 54, "duration": 53, "velocity": 60}, {"time": 12003, "pitch": 42, "duration": 122, "velocity": 92}, {"time": 12003, "pitch": 54, "duration": 81, "velocity": 87}, {"time": 12008, "pitch": 64, "duration": 201, "velocity": 114}, {"time": 12133, "pitch": 54, "duration": 27, "velocity": 59}, {"time": 12229, "pitch": 54, "duration": 82, "velocity": 73}, {"time": 12240, "pitch": 42, "duration": 66, "velocity": 94}, {"time": 12240, "pitch": 70, "duration": 80, "velocity": 103}, {"time": 12248, "pitch": 63, "duration": 132, "velocity": 91}, {"time": 12379, "pitch": 54, "duration": 27, "velocity": 62}, {"time": 12379, "pitch": 70, "duration": 60, "velocity": 83}, {"time": 12473, "pitch": 62, "duration": 140, "velocity": 119}, {"time": 12475, "pitch": 54, "duration": 78, "velocity": 87}, {"time": 12477, "pitch": 40, "duration": 462, "velocity": 74}, {"time": 12477, "pitch": 42, "duration": 108, "velocity": 103}, {"time": 12623, "pitch": 54, "duration": 28, "velocity": 64}, {"time": 12713, "pitch": 64, "duration": 79, "velocity": 98}, {"time": 12716, "pitch": 54, "duration": 79, "velocity": 76}, {"time": 12716, "pitch": 69, "duration": 43, "velocity": 112}, {"time": 12718, "pitch": 42, "duration": 59, "velocity": 87}, {"time": 12848, "pitch": 42, "duration": 31, "velocity": 63}, {"time": 12858, "pitch": 54, "duration": 37, "velocity": 66}, {"time": 12861, "pitch": 64, "duration": 107, "velocity": 103}, {"time": 12938, "pitch": 54, "duration": 81, "velocity": 88}, {"time": 12959, "pitch": 42, "duration": 103, "velocity": 100}, {"time": 13106, "pitch": 64, "duration": 73, "velocity": 94}, {"time": 13108, "pitch": 54, "duration": 32, "velocity": 57}, {"time": 13190, "pitch": 63, "duration": 201, "velocity": 96}, {"time": 13194, "pitch": 54, "duration": 75, "velocity": 76}, {"time": 13200, "pitch": 42, "duration": 121, "velocity": 98}, {"time": 13340, "pitch": 54, "duration": 32, "velocity": 62}, {"time": 13430, "pitch": 54, "duration": 77, "velocity": 92}, {"time": 13441, "pitch": 40, "duration": 504, "velocity": 70}, {"time": 13441, "pitch": 42, "duration": 116, "velocity": 100}, {"time": 13449, "pitch": 62, "duration": 143, "velocity": 119}, {"time": 13604, "pitch": 54, "duration": 32, "velocity": 43}, {"time": 13665, "pitch": 63, "duration": 104, "velocity": 77}, {"time": 13676, "pitch": 54, "duration": 83, "velocity": 70}, {"time": 13682, "pitch": 42, "duration": 100, "velocity": 98}, {"time": 13818, "pitch": 54, "duration": 26, "velocity": 70}, {"time": 13823, "pitch": 62, "duration": 88, "velocity": 112}, {"time": 13902, "pitch": 54, "duration": 88, "velocity": 95}, {"time": 13921, "pitch": 63, "duration": 14, "velocity": 108}, {"time": 13922, "pitch": 42, "duration": 129, "velocity": 100}, {"time": 13981, "pitch": 63, "duration": 56, "velocity": 102}, {"time": 14077, "pitch": 54, "duration": 34, "velocity": 43}, {"time": 14089, "pitch": 63, "duration": 77, "velocity": 100}, {"time": 14163, "pitch": 42, "duration": 107, "velocity": 92}, {"time": 14163, "pitch": 70, "duration": 82, "velocity": 103}, {"time": 14165, "pitch": 54, "duration": 74, "velocity": 72}, {"time": 14182, "pitch": 62, "duration": 90, "velocity": 122}, {"time": 14297, "pitch": 54, "duration": 56, "velocity": 71}, {"time": 14305, "pitch": 70, "duration": 60, "velocity": 83}, {"time": 14404, "pitch": 40, "duration": 447, "velocity": 80}, {"time": 14404, "pitch": 42, "duration": 141, "velocity": 98}, {"time": 14405, "pitch": 54, "duration": 74, "velocity": 99}, {"time": 14407, "pitch": 62, "duration": 100, "velocity": 114}, {"time": 14584, "pitch": 54, "duration": 31, "velocity": 46}, {"time": 14637, "pitch": 63, "duration": 80, "velocity": 102}, {"time": 14639, "pitch": 69, "duration": 43, "velocity": 112}, {"time": 14641, "pitch": 42, "duration": 131, "velocity": 98}, {"time": 14651, "pitch": 54, "duration": 86, "velocity": 85}, {"time": 14791, "pitch": 62, "duration": 73, "velocity": 119}, {"time": 14803, "pitch": 54, "duration": 37, "velocity": 68}, {"time": 14878, "pitch": 42, "duration": 84, "velocity": 92}, {"time": 14885, "pitch": 54, "duration": 88, "velocity": 95}, {"time": 15009, "pitch": 42, "duration": 27, "velocity": 69}, {"time": 15009, "pitch": 62, "duration": 50, "velocity": 114}, {"time": 15061, "pitch": 54, "duration": 37, "velocity": 43}, {"time": 15113, "pitch": 63, "duration": 82, "velocity": 100}, {"time": 15119, "pitch": 42, "duration": 85, "velocity": 94}, {"time": 15122, "pitch": 54, "duration": 93, "velocity": 73}, {"time": 15280, "pitch": 54, "duration": 54, "velocity": 68}, {"time": 15346, "pitch": 62, "duration": 87, "velocity": 122}, {"time": 15360, "pitch": 42, "duration": 152, "velocity": 107}, {"time": 15361, "pitch": 40, "duration": 475, "velocity": 77}, {"time": 15374, "pitch": 54, "duration": 80, "velocity": 95}, {"time": 15499, "pitch": 63, "duration": 100, "velocity": 112}, {"time": 15520, "pitch": 54, "duration": 37, "velocity": 62}, {"time": 15591, "pitch": 64, "duration": 149, "velocity": 127}, {"time": 15601, "pitch": 46, "duration": 231, "velocity": 105}, {"time": 15609, "pitch": 54, "duration": 81, "velocity": 88}, {"time": 15771, "pitch": 54, "duration": 54, "velocity": 60}, {"time": 15842, "pitch": 49, "duration": 3785, "velocity": 114}, {"time": 15842, "pitch": 54, "duration": 82, "velocity": 87}, {"time": 15847, "pitch": 64, "duration": 203, "velocity": 114}, {"time": 15973, "pitch": 54, "duration": 28, "velocity": 59}, {"time": 16071, "pitch": 54, "duration": 84, "velocity": 73}, {"time": 16083, "pitch": 70, "duration": 81, "velocity": 103}, {"time": 16084, "pitch": 42, "duration": 113, "velocity": 75}, {"time": 16091, "pitch": 63, "duration": 134, "velocity": 91}, {"time": 16224, "pitch": 54, "duration": 27, "velocity": 62}, {"time": 16224, "pitch": 70, "duration": 60, "velocity": 83}, {"time": 16319, "pitch": 62, "duration": 138, "velocity": 119}, {"time": 16321, "pitch": 54, "duration": 77, "velocity": 87}, {"time": 16323, "pitch": 40, "duration": 455, "velocity": 74}, {"time": 16323, "pitch": 42, "duration": 147, "velocity": 105}, {"time": 16467, "pitch": 54, "duration": 27, "velocity": 64}, {"time": 16555, "pitch": 64, "duration": 78, "velocity": 98}, {"time": 16558, "pitch": 54, "duration": 78, "velocity": 76}, {"time": 16558, "pitch": 69, "duration": 43, "velocity": 112}, {"time": 16560, "pitch": 42, "duration": 106, "velocity": 85}, {"time": 16698, "pitch": 54, "duration": 36, "velocity": 66}, {"time": 16701, "pitch": 64, "duration": 105, "velocity": 103}, {"time": 16777, "pitch": 54, "duration": 81, "velocity": 88}, {"time": 16797, "pitch": 42, "duration": 158, "velocity": 91}, {"time": 16945, "pitch": 64, "duration": 72, "velocity": 94}, {"time": 16947, "pitch": 54, "duration": 31, "velocity": 57}, {"time": 17028, "pitch": 63, "duration": 202, "velocity": 96}, {"time": 17032, "pitch": 54, "duration": 75, "velocity": 76}, {"time": 17038, "pitch": 42, "duration": 156, "velocity": 94}, {"time": 17179, "pitch": 54, "duration": 32, "velocity": 62}, {"time": 17268, "pitch": 54, "duration": 77, "velocity": 92}, {"time": 17279, "pitch": 40, "duration": 504, "velocity": 70}, {"time": 17279, "pitch": 42, "duration": 158, "velocity": 103}, {"time": 17287, "pitch": 62, "duration": 144, "velocity": 119}, {"time": 17443, "pitch": 54, "duration": 32, "velocity": 43}, {"time": 17504, "pitch": 63, "duration": 103, "velocity": 77}, {"time": 17514, "pitch": 54, "duration": 83, "velocity": 70}, {"time": 17520, "pitch": 42, "duration": 139, "velocity": 88}, {"time": 17656, "pitch": 54, "duration": 27, "velocity": 70}, {"time": 17661, "pitch": 62, "duration": 89, "velocity": 112}, {"time": 17741, "pitch": 54, "duration": 87, "velocity": 95}, {"time": 17762, "pitch": 42, "duration": 156, "velocity": 92}, {"time": 17915, "pitch": 54, "duration": 35, "velocity": 43}, {"time": 17919, "pitch": 62, "duration": 72, "velocity": 102}, {"time": 17997, "pitch": 63, "duration": 181, "velocity": 98}, {"time": 18002, "pitch": 42, "duration": 126, "velocity": 91}, {"time": 18002, "pitch": 70, "duration": 81, "velocity": 103}, {"time": 18004, "pitch": 54, "duration": 73, "velocity": 72}, {"time": 18135, "pitch": 54, "duration": 56, "velocity": 71}, {"time": 18143, "pitch": 70, "duration": 60, "velocity": 83}, {"time": 18233, "pitch": 64, "duration": 120, "velocity": 110}, {"time": 18243, "pitch": 40, "duration": 454, "velocity": 80}, {"time": 18243, "pitch": 42, "duration": 176, "velocity": 103}, {"time": 18244, "pitch": 54, "duration": 75, "velocity": 99}, {"time": 18425, "pitch": 54, "duration": 32, "velocity": 46}, {"time": 18466, "pitch": 63, "duration": 70, "velocity": 86}, {"time": 18481, "pitch": 69, "duration": 44, "velocity": 112}, {"time": 18483, "pitch": 42, "duration": 75, "velocity": 77}, {"time": 18494, "pitch": 54, "duration": 87, "velocity": 85}, {"time": 18612, "pitch": 62, "duration": 61, "velocity": 103}, {"time": 18614, "pitch": 42, "duration": 26, "velocity": 77}, {"time": 18648, "pitch": 54, "duration": 37, "velocity": 68}, {"time": 18724, "pitch": 42, "duration": 111, "velocity": 92}, {"time": 18731, "pitch": 54, "duration": 87, "velocity": 95}, {"time": 18858, "pitch": 62, "duration": 21, "velocity": 96}, {"time": 18904, "pitch": 54, "duration": 37, "velocity": 43}, {"time": 18956, "pitch": 63, "duration": 66, "velocity": 89}, {"time": 18962, "pitch": 42, "duration": 162, "velocity": 100}, {"time": 18964, "pitch": 54, "duration": 92, "velocity": 73}, {"time": 19119, "pitch": 54, "duration": 54, "velocity": 68}, {"time": 19195, "pitch": 62, "duration": 99, "velocity": 110}, {"time": 19199, "pitch": 40, "duration": 475, "velocity": 77}, {"time": 19199, "pitch": 42, "duration": 138, "velocity": 105}, {"time": 19212, "pitch": 54, "duration": 81, "velocity": 95}, {"time": 19348, "pitch": 64, "duration": 53, "velocity": 103}, {"time": 19359, "pitch": 54, "duration": 36, "velocity": 62}, {"time": 19439, "pitch": 46, "duration": 227, "velocity": 102}, {"time": 19447, "pitch": 54, "duration": 81, "velocity": 88}, {"time": 19610, "pitch": 54, "duration": 53, "velocity": 60}, {"time": 19680, "pitch": 42, "duration": 123, "velocity": 92}, {"time": 19680, "pitch": 54, "duration": 82, "velocity": 87}, {"time": 19685, "pitch": 64, "duration": 204, "velocity": 114}, {"time": 19811, "pitch": 54, "duration": 29, "velocity": 59}, {"time": 19910, "pitch": 54, "duration": 83, "velocity": 73}, {"time": 19921, "pitch": 42, "duration": 67, "velocity": 94}, {"time": 19921, "pitch": 70, "duration": 81, "velocity": 103}, {"time": 19929, "pitch": 63, "duration": 134, "velocity": 91}, {"time": 20062, "pitch": 54, "duration": 28, "velocity": 62}, {"time": 20062, "pitch": 70, "duration": 61, "velocity": 83}, {"time": 20158, "pitch": 62, "duration": 139, "velocity": 119}, {"time": 20160, "pitch": 54, "duration": 78, "velocity": 87}, {"time": 20162, "pitch": 40, "duration": 461, "velocity": 74}, {"time": 20162, "pitch": 42, "duration": 107, "velocity": 103}, {"time": 20307, "pitch": 54, "duration": 28, "velocity": 64}, {"time": 20398, "pitch": 64, "duration": 79, "velocity": 98}, {"time": 20401, "pitch": 54, "duration": 79, "velocity": 76}, {"time": 20401, "pitch": 69, "duration": 43, "velocity": 112}, {"time": 20403, "pitch": 42, "duration": 59, "velocity": 87}, {"time": 20533, "pitch": 42, "duration": 30, "velocity": 63}, {"time": 20542, "pitch": 54, "duration": 37, "velocity": 66}, {"time": 20545, "pitch": 64, "duration": 107, "velocity": 103}, {"time": 20622, "pitch": 54, "duration": 81, "velocity": 88}, {"time": 20643, "pitch": 42, "duration": 102, "velocity": 100}, {"time": 20789, "pitch": 64, "duration": 71, "velocity": 94}, {"time": 20791, "pitch": 54, "duration": 30, "velocity": 57}, {"time": 20871, "pitch": 63, "duration": 198, "velocity": 96}, {"time": 20875, "pitch": 54, "duration": 74, "velocity": 76}, {"time": 20880, "pitch": 42, "duration": 120, "velocity": 98}, {"time": 21019, "pitch": 54, "duration": 31, "velocity": 62}, {"time": 21107, "pitch": 54, "duration": 77, "velocity": 92}, {"time": 21117, "pitch": 40, "duration": 504, "velocity": 70}, {"time": 21117, "pitch": 42, "duration": 117, "velocity": 100}, {"time": 21125, "pitch": 62, "duration": 144, "velocity": 119}, {"time": 21281, "pitch": 54, "duration": 32, "velocity": 43}, {"time": 21342, "pitch": 63, "duration": 104, "velocity": 77}, {"time": 21352, "pitch": 54, "duration": 84, "velocity": 70}, {"time": 21358, "pitch": 42, "duration": 101, "velocity": 98}, {"time": 21495, "pitch": 54, "duration": 26, "velocity": 70}, {"time": 21500, "pitch": 62, "duration": 88, "velocity": 112}, {"time": 21579, "pitch": 54, "duration": 87, "velocity": 95}, {"time": 21598, "pitch": 63, "duration": 14, "velocity": 108}, {"time": 21599, "pitch": 42, "duration": 129, "velocity": 100}, {"time": 21657, "pitch": 63, "duration": 57, "velocity": 102}, {"time": 21754, "pitch": 54, "duration": 34, "velocity": 43}, {"time": 21766, "pitch": 63, "duration": 77, "velocity": 100}, {"time": 21840, "pitch": 42, "duration": 106, "velocity": 92}, {"time": 21840, "pitch": 70, "duration": 81, "velocity": 103}, {"time": 21842, "pitch": 54, "duration": 73, "velocity": 72}, {"time": 21859, "pitch": 62, "duration": 89, "velocity": 122}, {"time": 21974, "pitch": 54, "duration": 56, "velocity": 71}, {"time": 21982, "pitch": 70, "duration": 60, "velocity": 83}, {"time": 22081, "pitch": 40, "duration": 455, "velocity": 80}, {"time": 22081, "pitch": 42, "duration": 143, "velocity": 98}, {"time": 22082, "pitch": 54, "duration": 75, "velocity": 99}, {"time": 22084, "pitch": 62, "duration": 101, "velocity": 114}, {"time": 22264, "pitch": 54, "duration": 32, "velocity": 46}, {"time": 22318, "pitch": 63, "duration": 81, "velocity": 102}, {"time": 22320, "pitch": 69, "duration": 43, "velocity": 112}, {"time": 22322, "pitch": 42, "duration": 133, "velocity": 98}, {"time": 22332, "pitch": 54, "duration": 87, "velocity": 85}, {"time": 22474, "pitch": 62, "duration": 75, "velocity": 119}, {"time": 22486, "pitch": 54, "duration": 38, "velocity": 68}, {"time": 22563, "pitch": 40, "duration": 65, "velocity": 84}, {"time": 22563, "pitch": 42, "duration": 128, "velocity": 100}, {"time": 22570, "pitch": 54, "duration": 88, "velocity": 95}, {"time": 22693, "pitch": 62, "duration": 50, "velocity": 114}, {"time": 22745, "pitch": 54, "duration": 38, "velocity": 43}, {"time": 22798, "pitch": 63, "duration": 82, "velocity": 100}, {"time": 22804, "pitch": 40, "duration": 563, "velocity": 74}, {"time": 22804, "pitch": 46, "duration": 226, "velocity": 122}, {"time": 22807, "pitch": 54, "duration": 93, "velocity": 73}, {"time": 22964, "pitch": 54, "duration": 54, "velocity": 68}, {"time": 23030, "pitch": 62, "duration": 87, "velocity": 122}, {"time": 23058, "pitch": 54, "duration": 79, "velocity": 95}, {"time": 23182, "pitch": 63, "duration": 97, "velocity": 112}, {"time": 23202, "pitch": 54, "duration": 36, "velocity": 62}, {"time": 23272, "pitch": 64, "duration": 147, "velocity": 127}, {"time": 23289, "pitch": 54, "duration": 80, "velocity": 88}, {"time": 23449, "pitch": 54, "duration": 53, "velocity": 60}, {"time": 23518, "pitch": 49, "duration": 3793, "velocity": 114}, {"time": 23518, "pitch": 54, "duration": 83, "velocity": 87}, {"time": 23523, "pitch": 64, "duration": 204, "velocity": 114}, {"time": 23650, "pitch": 54, "duration": 28, "velocity": 59}, {"time": 23748, "pitch": 54, "duration": 84, "velocity": 73}, {"time": 23759, "pitch": 70, "duration": 82, "velocity": 103}, {"time": 23767, "pitch": 63, "duration": 135, "velocity": 91}, {"time": 23901, "pitch": 54, "duration": 27, "velocity": 62}, {"time": 23901, "pitch": 70, "duration": 60, "velocity": 83}, {"time": 23996, "pitch": 62, "duration": 140, "velocity": 119}, {"time": 23998, "pitch": 54, "duration": 78, "velocity": 87}, {"time": 24146, "pitch": 54, "duration": 28, "velocity": 64}, {"time": 24236, "pitch": 64, "duration": 79, "velocity": 98}, {"time": 24239, "pitch": 54, "duration": 79, "velocity": 76}, {"time": 24239, "pitch": 69, "duration": 43, "velocity": 112}, {"time": 24381, "pitch": 54, "duration": 37, "velocity": 66}, {"time": 24384, "pitch": 64, "duration": 107, "velocity": 103}, {"time": 24461, "pitch": 54, "duration": 81, "velocity": 88}, {"time": 24629, "pitch": 64, "duration": 73, "velocity": 94}, {"time": 24631, "pitch": 54, "duration": 32, "velocity": 57}, {"time": 24713, "pitch": 63, "duration": 202, "velocity": 96}, {"time": 24717, "pitch": 54, "duration": 75, "velocity": 76}, {"time": 24863, "pitch": 54, "duration": 32, "velocity": 62}, {"time": 24953, "pitch": 54, "duration": 76, "velocity": 92}, {"time": 24972, "pitch": 62, "duration": 141, "velocity": 119}, {"time": 25125, "pitch": 54, "duration": 31, "velocity": 43}, {"time": 25185, "pitch": 63, "duration": 102, "velocity": 77}, {"time": 25195, "pitch": 54, "duration": 82, "velocity": 70}, {"time": 25335, "pitch": 54, "duration": 26, "velocity": 70}, {"time": 25340, "pitch": 62, "duration": 87, "velocity": 112}, {"time": 25418, "pitch": 54, "duration": 87, "velocity": 95}, {"time": 25592, "pitch": 54, "duration": 34, "velocity": 43}, {"time": 25596, "pitch": 62, "duration": 71, "velocity": 102}, {"time": 25673, "pitch": 63, "duration": 182, "velocity": 98}, {"time": 25678, "pitch": 70, "duration": 82, "velocity": 103}, {"time": 25680, "pitch": 54, "duration": 74, "velocity": 72}, {"time": 25812, "pitch": 54, "duration": 56, "velocity": 71}, {"time": 25820, "pitch": 70, "duration": 60, "velocity": 83}, {"time": 25909, "pitch": 64, "duration": 121, "velocity": 110}, {"time": 25920, "pitch": 54, "duration": 76, "velocity": 99}, {"time": 26102, "pitch": 54, "duration": 32, "velocity": 46}, {"time": 26143, "pitch": 63, "duration": 69, "velocity": 86}, {"time": 26158, "pitch": 69, "duration": 43, "velocity": 112}, {"time": 26170, "pitch": 54, "duration": 88, "velocity": 85}, {"time": 26289, "pitch": 62, "duration": 61, "velocity": 103}, {"time": 26325, "pitch": 54, "duration": 37, "velocity": 68}, {"time": 26408, "pitch": 54, "duration": 88, "velocity": 95}, {"time": 26537, "pitch": 62, "duration": 22, "velocity": 96}, {"time": 26584, "pitch": 54, "duration": 37, "velocity": 43}, {"time": 26637, "pitch": 63, "duration": 67, "velocity": 89}, {"time": 26645, "pitch": 54, "duration": 93, "velocity": 73}, {"time": 26803, "pitch": 54, "duration": 54, "velocity": 68}, {"time": 26880, "pitch": 62, "duration": 98, "velocity": 110}, {"time": 26897, "pitch": 54, "duration": 80, "velocity": 95}, {"time": 27032, "pitch": 64, "duration": 54, "velocity": 103}, {"time": 27043, "pitch": 54, "duration": 37, "velocity": 62}, {"time": 27132, "pitch": 54, "duration": 81, "velocity": 88}, {"time": 27294, "pitch": 54, "duration": 54, "velocity": 60}, {"time": 27365, "pitch": 54, "duration": 81, "velocity": 87}, {"time": 27370, "pitch": 64, "duration": 200, "velocity": 114}, {"time": 27494, "pitch": 54, "duration": 28, "velocity": 59}, {"time": 27591, "pitch": 54, "duration": 82, "velocity": 73}, {"time": 27602, "pitch": 70, "duration": 80, "velocity": 103}, {"time": 27609, "pitch": 63, "duration": 133, "velocity": 91}, {"time": 27741, "pitch": 54, "duration": 26, "velocity": 62}, {"time": 27741, "pitch": 70, "duration": 59, "velocity": 83}, {"time": 27835, "pitch": 62, "duration": 139, "velocity": 119}, {"time": 27837, "pitch": 54, "duration": 78, "velocity": 87}, {"time": 27984, "pitch": 54, "duration": 28, "velocity": 64}, {"time": 28074, "pitch": 64, "duration": 80, "velocity": 98}, {"time": 28077, "pitch": 54, "duration": 80, "velocity": 76}, {"time": 28077, "pitch": 69, "duration": 44, "velocity": 112}, {"time": 28219, "pitch": 54, "duration": 37, "velocity": 66}, {"time": 28222, "pitch": 64, "duration": 107, "velocity": 103}, {"time": 28299, "pitch": 54, "duration": 82, "velocity": 88}, {"time": 28468, "pitch": 64, "duration": 72, "velocity": 94}, {"time": 28470, "pitch": 54, "duration": 31, "velocity": 57}, {"time": 28551, "pitch": 63, "duration": 202, "velocity": 96}, {"time": 28555, "pitch": 54, "duration": 75, "velocity": 76}, {"time": 28702, "pitch": 54, "duration": 32, "velocity": 62}, {"time": 28791, "pitch": 54, "duration": 77, "velocity": 92}, {"time": 28810, "pitch": 62, "duration": 144, "velocity": 119}, {"time": 28966, "pitch": 54, "duration": 32, "velocity": 43}, {"time": 29027, "pitch": 63, "duration": 103, "velocity": 77}, {"time": 29037, "pitch": 54, "duration": 83, "velocity": 70}, {"time": 29179, "pitch": 54, "duration": 27, "velocity": 70}, {"time": 29184, "pitch": 62, "duration": 89, "velocity": 112}, {"time": 29264, "pitch": 54, "duration": 86, "velocity": 95}, {"time": 29283, "pitch": 63, "duration": 14, "velocity": 108}, {"time": 29341, "pitch": 63, "duration": 55, "velocity": 102}, {"time": 29436, "pitch": 54, "duration": 33, "velocity": 43}, {"time": 29448, "pitch": 63, "duration": 76, "velocity": 100}, {"time": 29521, "pitch": 70, "duration": 80, "velocity": 103}, {"time": 29523, "pitch": 54, "duration": 72, "velocity": 72}, {"time": 29540, "pitch": 62, "duration": 87, "velocity": 122}, {"time": 29652, "pitch": 54, "duration": 55, "velocity": 71}, {"time": 29660, "pitch": 70, "duration": 59, "velocity": 83}, {"time": 29759, "pitch": 54, "duration": 75, "velocity": 99}, {"time": 29761, "pitch": 62, "duration": 101, "velocity": 114}, {"time": 29940, "pitch": 54, "duration": 33, "velocity": 46}, {"time": 29995, "pitch": 63, "duration": 81, "velocity": 102}, {"time": 29997, "pitch": 69, "duration": 43, "velocity": 112}, {"time": 30009, "pitch": 54, "duration": 87, "velocity": 85}, {"time": 30151, "pitch": 62, "duration": 74, "velocity": 119}, {"time": 30163, "pitch": 54, "duration": 37, "velocity": 68}, {"time": 30247, "pitch": 54, "duration": 88, "velocity": 95}, {"time": 30370, "pitch": 62, "duration": 50, "velocity": 114}, {"time": 30422, "pitch": 54, "duration": 37, "velocity": 43}, {"time": 30474, "pitch": 63, "duration": 83, "velocity": 100}, {"time": 30483, "pitch": 54, "duration": 94, "velocity": 73}, {"time": 30641, "pitch": 54, "duration": 54, "velocity": 68}, {"time": 30707, "pitch": 62, "duration": 88, "velocity": 122}, {"time": 30735, "pitch": 54, "duration": 81, "velocity": 95}, {"time": 30861, "pitch": 63, "duration": 99, "velocity": 112}, {"time": 30882, "pitch": 54, "duration": 36, "velocity": 62}, {"time": 30952, "pitch": 64, "duration": 150, "velocity": 127}, {"time": 30970, "pitch": 54, "duration": 81, "velocity": 88}, {"time": 31133, "pitch": 54, "duration": 53, "velocity": 60}, {"time": 31203, "pitch": 54, "duration": 82, "velocity": 87}, {"time": 31208, "pitch": 64, "duration": 204, "velocity": 114}, {"time": 31335, "pitch": 54, "duration": 28, "velocity": 59}, {"time": 31433, "pitch": 54, "duration": 83, "velocity": 73}, {"time": 31444, "pitch": 70, "duration": 81, "velocity": 103}, {"time": 31452, "pitch": 63, "duration": 134, "velocity": 91}, {"time": 31585, "pitch": 54, "duration": 28, "velocity": 62}, {"time": 31585, "pitch": 70, "duration": 61, "velocity": 83}, {"time": 31681, "pitch": 62, "duration": 137, "velocity": 119}, {"time": 31683, "pitch": 54, "duration": 77, "velocity": 87}, {"time": 31828, "pitch": 54, "duration": 28, "velocity": 64}, {"time": 31917, "pitch": 64, "duration": 78, "velocity": 98}, {"time": 31920, "pitch": 54, "duration": 78, "velocity": 76}, {"time": 31920, "pitch": 69, "duration": 42, "velocity": 112}, {"time": 32059, "pitch": 54, "duration": 37, "velocity": 66}, {"time": 32062, "pitch": 64, "duration": 106, "velocity": 103}, {"time": 32138, "pitch": 54, "duration": 81, "velocity": 88}, {"time": 32306, "pitch": 64, "duration": 73, "velocity": 94}, {"time": 32308, "pitch": 54, "duration": 31, "velocity": 57}, {"time": 32390, "pitch": 63, "duration": 201, "velocity": 96}, {"time": 32394, "pitch": 54, "duration": 75, "velocity": 76}, {"time": 32540, "pitch": 54, "duration": 32, "velocity": 62}, {"time": 32629, "pitch": 54, "duration": 78, "velocity": 92}, {"time": 32649, "pitch": 62, "duration": 143, "velocity": 119}, {"time": 32804, "pitch": 54, "duration": 32, "velocity": 43}, {"time": 32865, "pitch": 63, "duration": 104, "velocity": 77}, {"time": 32875, "pitch": 54, "duration": 84, "velocity": 70}, {"time": 33018, "pitch": 54, "duration": 26, "velocity": 70}, {"time": 33023, "pitch": 62, "duration": 88, "velocity": 112}, {"time": 33102, "pitch": 54, "duration": 87, "velocity": 95}, {"time": 33277, "pitch": 54, "duration": 34, "velocity": 43}, {"time": 33281, "pitch": 62, "duration": 71, "velocity": 102}, {"time": 33358, "pitch": 63, "duration": 182, "velocity": 98}, {"time": 33363, "pitch": 70, "duration": 81, "velocity": 103}, {"time": 33365, "pitch": 54, "duration": 73, "velocity": 72}, {"time": 33497, "pitch": 54, "duration": 56, "velocity": 71}, {"time": 33505, "pitch": 70, "duration": 60, "velocity": 83}, {"time": 33594, "pitch": 64, "duration": 119, "velocity": 110}, {"time": 33605, "pitch": 54, "duration": 74, "velocity": 99}, {"time": 33784, "pitch": 54, "duration": 31, "velocity": 46}, {"time": 33824, "pitch": 63, "duration": 68, "velocity": 86}, {"time": 33839, "pitch": 69, "duration": 42, "velocity": 112}, {"time": 33851, "pitch": 54, "duration": 86, "velocity": 85}, {"time": 33967, "pitch": 62, "duration": 61, "velocity": 103}, {"time": 34003, "pitch": 54, "duration": 36, "velocity": 68}, {"time": 34085, "pitch": 54, "duration": 88, "velocity": 95}, {"time": 34213, "pitch": 62, "duration": 22, "velocity": 96}, {"time": 34261, "pitch": 54, "duration": 37, "velocity": 43}, {"time": 34314, "pitch": 63, "duration": 67, "velocity": 89}, {"time": 34322, "pitch": 54, "duration": 93, "velocity": 73}, {"time": 34479, "pitch": 54, "duration": 55, "velocity": 68}, {"time": 34557, "pitch": 62, "duration": 98, "velocity": 110}, {"time": 34574, "pitch": 54, "duration": 80, "velocity": 95}, {"time": 34709, "pitch": 64, "duration": 53, "velocity": 103}, {"time": 34720, "pitch": 54, "duration": 36, "velocity": 62}, {"time": 34809, "pitch": 54, "duration": 81, "velocity": 88}, {"time": 34971, "pitch": 54, "duration": 53, "velocity": 60}, {"time": 35041, "pitch": 54, "duration": 83, "velocity": 87}, {"time": 35046, "pitch": 64, "duration": 204, "velocity": 114}, {"time": 35173, "pitch": 54, "duration": 28, "velocity": 59}, {"time": 35271, "pitch": 54, "duration": 84, "velocity": 73}, {"time": 35282, "pitch": 70, "duration": 82, "velocity": 103}, {"time": 35290, "pitch": 63, "duration": 135, "velocity": 91}, {"time": 35424, "pitch": 54, "duration": 27, "velocity": 62}, {"time": 35424, "pitch": 70, "duration": 60, "velocity": 83}, {"time": 35519, "pitch": 62, "duration": 137, "velocity": 119}, {"time": 35521, "pitch": 54, "duration": 77, "velocity": 87}, {"time": 35666, "pitch": 54, "duration": 28, "velocity": 64}, {"time": 35755, "pitch": 64, "duration": 78, "velocity": 98}, {"time": 35758, "pitch": 54, "duration": 78, "velocity": 76}, {"time": 35758, "pitch": 69, "duration": 43, "velocity": 112}, {"time": 35897, "pitch": 54, "duration": 37, "velocity": 66}, {"time": 35900, "pitch": 64, "duration": 106, "velocity": 103}, {"time": 35976, "pitch": 54, "duration": 81, "velocity": 88}, {"time": 36145, "pitch": 64, "duration": 72, "velocity": 94}, {"time": 36147, "pitch": 54, "duration": 31, "velocity": 57}, {"time": 36228, "pitch": 63, "duration": 202, "velocity": 96}, {"time": 36232, "pitch": 54, "duration": 75, "velocity": 76}, {"time": 36378, "pitch": 54, "duration": 33, "velocity": 62}, {"time": 36468, "pitch": 54, "duration": 77, "velocity": 92}, {"time": 36487, "pitch": 62, "duration": 143, "velocity": 119}, {"time": 36642, "pitch": 54, "duration": 33, "velocity": 43}, {"time": 36704, "pitch": 63, "duration": 103, "velocity": 77}, {"time": 36714, "pitch": 54, "duration": 83, "velocity": 70}, {"time": 36856, "pitch": 54, "duration": 26, "velocity": 70}, {"time": 36861, "pitch": 62, "duration": 89, "velocity": 112}, {"time": 36941, "pitch": 54, "duration": 87, "velocity": 95}, {"time": 36960, "pitch": 63, "duration": 14, "velocity": 108}, {"time": 37019, "pitch": 63, "duration": 56, "velocity": 102}, {"time": 37115, "pitch": 54, "duration": 34, "velocity": 43}, {"time": 37127, "pitch": 63, "duration": 78, "velocity": 100}, {"time": 37202, "pitch": 70, "duration": 81, "velocity": 103}, {"time": 37204, "pitch": 54, "duration": 73, "velocity": 72}, {"time": 37221, "pitch": 62, "duration": 89, "velocity": 122}, {"time": 37335, "pitch": 54, "duration": 56, "velocity": 71}, {"time": 37343, "pitch": 70, "duration": 60, "velocity": 83}, {"time": 37443, "pitch": 54, "duration": 76, "velocity": 99}, {"time": 37445, "pitch": 62, "duration": 102, "velocity": 114}, {"time": 37625, "pitch": 54, "duration": 32, "velocity": 46}, {"time": 37679, "pitch": 63, "duration": 82, "velocity": 102}, {"time": 37681, "pitch": 69, "duration": 43, "velocity": 112}, {"time": 37693, "pitch": 54, "duration": 88, "velocity": 85}, {"time": 37836, "pitch": 62, "duration": 74, "velocity": 119}, {"time": 37848, "pitch": 54, "duration": 37, "velocity": 68}, {"time": 37924, "pitch": 42, "duration": 103, "velocity": 100}, {"time": 37931, "pitch": 54, "duration": 87, "velocity": 95}, {"time": 38052, "pitch": 62, "duration": 50, "velocity": 114}, {"time": 38104, "pitch": 54, "duration": 36, "velocity": 43}, {"time": 38155, "pitch": 63, "duration": 81, "velocity": 100}, {"time": 38161, "pitch": 42, "duration": 90, "velocity": 96}, {"time": 38164, "pitch": 36, "duration": 237, "velocity": 103}, {"time": 38164, "pitch": 54, "duration": 92, "velocity": 73}, {"time": 38319, "pitch": 54, "duration": 53, "velocity": 68}, {"time": 38384, "pitch": 62, "duration": 87, "velocity": 122}, {"time": 38398, "pitch": 42, "duration": 117, "velocity": 103}, {"time": 38401, "pitch": 40, "duration": 63, "velocity": 79}, {"time": 38412, "pitch": 54, "duration": 80, "velocity": 95}, {"time": 38538, "pitch": 63, "duration": 99, "velocity": 112}, {"time": 38541, "pitch": 40, "duration": 71, "velocity": 66}, {"time": 38559, "pitch": 54, "duration": 36, "velocity": 62}, {"time": 38629, "pitch": 64, "duration": 149, "velocity": 127}, {"time": 38639, "pitch": 42, "duration": 340, "velocity": 110}, {"time": 38647, "pitch": 54, "duration": 81, "velocity": 88}, {"time": 38649, "pitch": 36, "duration": 324, "velocity": 91}, {"time": 38810, "pitch": 54, "duration": 53, "velocity": 60}, {"time": 38880, "pitch": 49, "duration": 3786, "velocity": 114}, {"time": 38880, "pitch": 54, "duration": 82, "velocity": 87}, {"time": 38885, "pitch": 64, "duration": 204, "velocity": 114}, {"time": 39011, "pitch": 54, "duration": 28, "velocity": 59}, {"time": 39110, "pitch": 54, "duration": 83, "velocity": 73}, {"time": 39121, "pitch": 70, "duration": 81, "velocity": 103}, {"time": 39129, "pitch": 63, "duration": 134, "velocity": 91}, {"time": 39262, "pitch": 54, "duration": 27, "velocity": 62}, {"time": 39262, "pitch": 70, "duration": 60, "velocity": 83}, {"time": 39358, "pitch": 62, "duration": 139, "velocity": 119}, {"time": 39360, "pitch": 54, "duration": 78, "velocity": 87}, {"time": 39507, "pitch": 54, "duration": 28, "velocity": 64}, {"time": 39597, "pitch": 64, "duration": 80, "velocity": 98}, {"time": 39600, "pitch": 54, "duration": 80, "velocity": 76}, {"time": 39600, "pitch": 69, "duration": 44, "velocity": 112}, {"time": 39742, "pitch": 54, "duration": 37, "velocity": 66}, {"time": 39745, "pitch": 64, "duration": 107, "velocity": 103}, {"time": 39822, "pitch": 54, "duration": 81, "velocity": 88}, {"time": 39988, "pitch": 64, "duration": 72, "velocity": 94}, {"time": 39990, "pitch": 54, "duration": 31, "velocity": 57}, {"time": 40070, "pitch": 63, "duration": 199, "velocity": 96}, {"time": 40074, "pitch": 54, "duration": 74, "velocity": 76}, {"time": 40219, "pitch": 54, "duration": 31, "velocity": 62}, {"time": 40306, "pitch": 54, "duration": 77, "velocity": 92}, {"time": 40325, "pitch": 62, "duration": 144, "velocity": 119}, {"time": 40481, "pitch": 54, "duration": 32, "velocity": 43}, {"time": 40542, "pitch": 63, "duration": 103, "velocity": 77}, {"time": 40552, "pitch": 54, "duration": 83, "velocity": 70}, {"time": 40695, "pitch": 54, "duration": 26, "velocity": 70}, {"time": 40700, "pitch": 62, "duration": 88, "velocity": 112}, {"time": 40779, "pitch": 54, "duration": 87, "velocity": 95}, {"time": 40954, "pitch": 54, "duration": 34, "velocity": 43}, {"time": 40958, "pitch": 62, "duration": 71, "velocity": 102}, {"time": 41035, "pitch": 63, "duration": 182, "velocity": 98}, {"time": 41040, "pitch": 70, "duration": 81, "velocity": 103}, {"time": 41042, "pitch": 54, "duration": 73, "velocity": 72}, {"time": 41173, "pitch": 54, "duration": 57, "velocity": 71}, {"time": 41181, "pitch": 70, "duration": 61, "velocity": 83}, {"time": 41271, "pitch": 64, "duration": 120, "velocity": 110}, {"time": 41282, "pitch": 54, "duration": 75, "velocity": 99}, {"time": 41463, "pitch": 54, "duration": 33, "velocity": 46}, {"time": 41505, "pitch": 63, "duration": 69, "velocity": 86}, {"time": 41520, "pitch": 69, "duration": 43, "velocity": 112}, {"time": 41532, "pitch": 54, "duration": 87, "velocity": 85}, {"time": 41650, "pitch": 62, "duration": 61, "velocity": 103}, {"time": 41686, "pitch": 54, "duration": 37, "velocity": 68}, {"time": 41770, "pitch": 54, "duration": 88, "velocity": 95}, {"time": 41898, "pitch": 62, "duration": 22, "velocity": 96}, {"time": 41945, "pitch": 54, "duration": 37, "velocity": 43}, {"time": 41998, "pitch": 63, "duration": 68, "velocity": 89}, {"time": 42006, "pitch": 54, "duration": 94, "velocity": 73}, {"time": 42164, "pitch": 54, "duration": 54, "velocity": 68}, {"time": 42241, "pitch": 62, "duration": 97, "velocity": 110}, {"time": 42258, "pitch": 54, "duration": 79, "velocity": 95}, {"time": 42391, "pitch": 64, "duration": 53, "velocity": 103}, {"time": 42402, "pitch": 54, "duration": 36, "velocity": 62}, {"time": 42489, "pitch": 54, "duration": 80, "velocity": 88}, {"time": 42649, "pitch": 54, "duration": 52, "velocity": 60}, {"time": 42718, "pitch": 54, "duration": 83, "velocity": 87}, {"time": 42723, "pitch": 64, "duration": 204, "velocity": 114}, {"time": 42850, "pitch": 54, "duration": 28, "velocity": 59}, {"time": 42948, "pitch": 54, "duration": 83, "velocity": 73}, {"time": 42959, "pitch": 70, "duration": 81, "velocity": 103}, {"time": 42967, "pitch": 63, "duration": 135, "velocity": 91}, {"time": 43101, "pitch": 54, "duration": 27, "velocity": 62}, {"time": 43101, "pitch": 70, "duration": 60, "velocity": 83}, {"time": 43196, "pitch": 62, "duration": 139, "velocity": 119}, {"time": 43198, "pitch": 54, "duration": 78, "velocity": 87}, {"time": 43346, "pitch": 54, "duration": 28, "velocity": 64}, {"time": 43436, "pitch": 64, "duration": 79, "velocity": 98}, {"time": 43439, "pitch": 54, "duration": 79, "velocity": 76}, {"time": 43439, "pitch": 69, "duration": 43, "velocity": 112}, {"time": 43580, "pitch": 54, "duration": 38, "velocity": 66}, {"time": 43583, "pitch": 64, "duration": 108, "velocity": 103}, {"time": 43661, "pitch": 54, "duration": 81, "velocity": 88}, {"time": 43829, "pitch": 64, "duration": 73, "velocity": 94}, {"time": 43831, "pitch": 54, "duration": 31, "velocity": 57}, {"time": 43913, "pitch": 63, "duration": 201, "velocity": 96}, {"time": 43917, "pitch": 54, "duration": 75, "velocity": 76}, {"time": 44063, "pitch": 54, "duration": 32, "velocity": 62}, {"time": 44152, "pitch": 54, "duration": 77, "velocity": 92}, {"time": 44171, "pitch": 62, "duration": 142, "velocity": 119}, {"time": 44324, "pitch": 54, "duration": 32, "velocity": 43}, {"time": 44385, "pitch": 63, "duration": 101, "velocity": 77}, {"time": 44395, "pitch": 54, "duration": 81, "velocity": 70}, {"time": 44535, "pitch": 54, "duration": 25, "velocity": 70}, {"time": 44540, "pitch": 62, "duration": 87, "velocity": 112}, {"time": 44618, "pitch": 54, "duration": 87, "velocity": 95}, {"time": 44636, "pitch": 63, "duration": 14, "velocity": 108}, {"time": 44696, "pitch": 63, "duration": 56, "velocity": 102}, {"time": 44792, "pitch": 54, "duration": 34, "velocity": 43}, {"time": 44804, "pitch": 63, "duration": 77, "velocity": 100}, {"time": 44878, "pitch": 70, "duration": 82, "velocity": 103}, {"time": 44880, "pitch": 54, "duration": 74, "velocity": 72}, {"time": 44897, "pitch": 62, "duration": 90, "velocity": 122}, {"time": 45012, "pitch": 54, "duration": 56, "velocity": 71}, {"time": 45020, "pitch": 70, "duration": 60, "velocity": 83}, {"time": 45120, "pitch": 54, "duration": 75, "velocity": 99}, {"time": 45122, "pitch": 62, "duration": 102, "velocity": 114}, {"time": 45302, "pitch": 54, "duration": 32, "velocity": 46}, {"time": 45356, "pitch": 63, "duration": 81, "velocity": 102}, {"time": 45358, "pitch": 69, "duration": 43, "velocity": 112}, {"time": 45370, "pitch": 54, "duration": 87, "velocity": 85}, {"time": 45513, "pitch": 62, "duration": 74, "velocity": 119}, {"time": 45525, "pitch": 54, "duration": 37, "velocity": 68}, {"time": 45608, "pitch": 54, "duration": 88, "velocity": 95}, {"time": 45731, "pitch": 62, "duration": 51, "velocity": 114}, {"time": 45784, "pitch": 54, "duration": 37, "velocity": 43}, {"time": 45836, "pitch": 63, "duration": 82, "velocity": 100}, {"time": 45845, "pitch": 54, "duration": 93, "velocity": 73}, {"time": 46002, "pitch": 54, "duration": 55, "velocity": 68}, {"time": 46069, "pitch": 62, "duration": 87, "velocity": 122}, {"time": 46097, "pitch": 54, "duration": 80, "velocity": 95}, {"time": 46222, "pitch": 63, "duration": 100, "velocity": 112}, {"time": 46243, "pitch": 54, "duration": 36, "velocity": 62}, {"time": 46314, "pitch": 64, "duration": 149, "velocity": 127}, {"time": 46332, "pitch": 54, "duration": 81, "velocity": 88}, {"time": 46494, "pitch": 54, "duration": 53, "velocity": 60}, {"time": 46564, "pitch": 54, "duration": 81, "velocity": 87}, {"time": 46569, "pitch": 64, "duration": 201, "velocity": 114}, {"time": 46694, "pitch": 54, "duration": 27, "velocity": 59}, {"time": 46791, "pitch": 54, "duration": 81, "velocity": 73}, {"time": 46801, "pitch": 70, "duration": 80, "velocity": 103}, {"time": 46809, "pitch": 63, "duration": 133, "velocity": 91}, {"time": 46941, "pitch": 54, "duration": 26, "velocity": 62}, {"time": 46941, "pitch": 70, "duration": 59, "velocity": 83}, {"time": 47034, "pitch": 62, "duration": 140, "velocity": 119}, {"time": 47036, "pitch": 54, "duration": 79, "velocity": 87}, {"time": 47184, "pitch": 54, "duration": 28, "velocity": 64}, {"time": 47274, "pitch": 64, "duration": 80, "velocity": 98}, {"time": 47277, "pitch": 54, "duration": 80, "velocity": 76}, {"time": 47277, "pitch": 69, "duration": 43, "velocity": 112}, {"time": 47419, "pitch": 54, "duration": 37, "velocity": 66}, {"time": 47422, "pitch": 64, "duration": 107, "velocity": 103}, {"time": 47499, "pitch": 54, "duration": 81, "velocity": 88}, {"time": 47668, "pitch": 64, "duration": 72, "velocity": 94}, {"time": 47670, "pitch": 54, "duration": 31, "velocity": 57}, {"time": 47751, "pitch": 63, "duration": 202, "velocity": 96}, {"time": 47755, "pitch": 54, "duration": 75, "velocity": 76}, {"time": 47902, "pitch": 54, "duration": 32, "velocity": 62}, {"time": 47991, "pitch": 54, "duration": 77, "velocity": 92}, {"time": 48010, "pitch": 62, "duration": 143, "velocity": 119}, {"time": 48165, "pitch": 54, "duration": 33, "velocity": 43}, {"time": 48227, "pitch": 63, "duration": 103, "velocity": 77}, {"time": 48237, "pitch": 54, "duration": 83, "velocity": 70}, {"time": 48379, "pitch": 54, "duration": 26, "velocity": 70}, {"time": 48384, "pitch": 62, "duration": 89, "velocity": 112}, {"time": 48464, "pitch": 54, "duration": 86, "velocity": 95}, {"time": 48636, "pitch": 54, "duration": 33, "velocity": 43}, {"time": 48640, "pitch": 62, "duration": 70, "velocity": 102}, {"time": 48716, "pitch": 63, "duration": 178, "velocity": 98}, {"time": 48721, "pitch": 70, "duration": 80, "velocity": 103}, {"time": 48723, "pitch": 54, "duration": 72, "velocity": 72}, {"time": 48852, "pitch": 54, "duration": 55, "velocity": 71}, {"time": 48860, "pitch": 70, "duration": 59, "velocity": 83}, {"time": 48948, "pitch": 64, "duration": 120, "velocity": 110}, {"time": 48959, "pitch": 54, "duration": 75, "velocity": 99}, {"time": 49140, "pitch": 54, "duration": 32, "velocity": 46}, {"time": 49181, "pitch": 63, "duration": 70, "velocity": 86}, {"time": 49196, "pitch": 69, "duration": 44, "velocity": 112}, {"time": 49208, "pitch": 54, "duration": 88, "velocity": 85}, {"time": 49327, "pitch": 62, "duration": 61, "velocity": 103}, {"time": 49363, "pitch": 54, "duration": 37, "velocity": 68}, {"time": 49446, "pitch": 54, "duration": 89, "velocity": 95}, {"time": 49575, "pitch": 62, "duration": 22, "velocity": 96}, {"time": 49622, "pitch": 54, "duration": 37, "velocity": 43}, {"time": 49675, "pitch": 63, "duration": 67, "velocity": 89}, {"time": 49683, "pitch": 54, "duration": 94, "velocity": 73}, {"time": 49841, "pitch": 54, "duration": 54, "velocity": 68}, {"time": 49918, "pitch": 62, "duration": 98, "velocity": 110}, {"time": 49935, "pitch": 54, "duration": 80, "velocity": 95}, {"time": 50071, "pitch": 64, "duration": 53, "velocity": 103}, {"time": 50082, "pitch": 54, "duration": 36, "velocity": 62}, {"time": 50170, "pitch": 54, "duration": 81, "velocity": 88}, {"time": 50333, "pitch": 54, "duration": 53, "velocity": 60}, {"time": 50403, "pitch": 54, "duration": 82, "velocity": 87}, {"time": 50408, "pitch": 64, "duration": 204, "velocity": 114}, {"time": 50534, "pitch": 54, "duration": 28, "velocity": 59}, {"time": 50633, "pitch": 54, "duration": 83, "velocity": 73}, {"time": 50644, "pitch": 70, "duration": 81, "velocity": 103}, {"time": 50652, "pitch": 63, "duration": 134, "velocity": 91}, {"time": 50785, "pitch": 54, "duration": 27, "velocity": 62}, {"time": 50785, "pitch": 70, "duration": 60, "velocity": 83}, {"time": 50881, "pitch": 62, "duration": 137, "velocity": 119}, {"time": 50883, "pitch": 54, "duration": 77, "velocity": 87}, {"time": 51028, "pitch": 54, "duration": 27, "velocity": 64}, {"time": 51117, "pitch": 64, "duration": 78, "velocity": 98}, {"time": 51120, "pitch": 54, "duration": 78, "velocity": 76}, {"time": 51120, "pitch": 69, "duration": 42, "velocity": 112}, {"time": 51259, "pitch": 54, "duration": 36, "velocity": 66}, {"time": 51262, "pitch": 64, "duration": 106, "velocity": 103}, {"time": 51338, "pitch": 54, "duration": 81, "velocity": 88}, {"time": 51506, "pitch": 64, "duration": 72, "velocity": 94}, {"time": 51508, "pitch": 54, "duration": 31, "velocity": 57}, {"time": 51589, "pitch": 63, "duration": 202, "velocity": 96}, {"time": 51593, "pitch": 54, "duration": 76, "velocity": 76}, {"time": 51740, "pitch": 54, "duration": 32, "velocity": 62}, {"time": 51829, "pitch": 54, "duration": 78, "velocity": 92}, {"time": 51848, "pitch": 62, "duration": 144, "velocity": 119}, {"time": 52004, "pitch": 54, "duration": 32, "velocity": 43}, {"time": 52065, "pitch": 63, "duration": 103, "velocity": 77}, {"time": 52075, "pitch": 54, "duration": 83, "velocity": 70}, {"time": 52218, "pitch": 54, "duration": 26, "velocity": 70}, {"time": 52223, "pitch": 62, "duration": 88, "velocity": 112}, {"time": 52302, "pitch": 54, "duration": 87, "velocity": 95}, {"time": 52321, "pitch": 63, "duration": 14, "velocity": 108}, {"time": 52380, "pitch": 63, "duration": 56, "velocity": 102}, {"time": 52477, "pitch": 54, "duration": 34, "velocity": 43}, {"time": 52489, "pitch": 63, "duration": 77, "velocity": 100}, {"time": 52563, "pitch": 70, "duration": 81, "velocity": 103}, {"time": 52565, "pitch": 54, "duration": 73, "velocity": 72}, {"time": 52582, "pitch": 62, "duration": 89, "velocity": 122}, {"time": 52696, "pitch": 54, "duration": 57, "velocity": 71}, {"time": 52704, "pitch": 70, "duration": 61, "velocity": 83}, {"time": 52805, "pitch": 54, "duration": 74, "velocity": 99}, {"time": 52807, "pitch": 62, "duration": 99, "velocity": 114}, {"time": 52983, "pitch": 54, "duration": 32, "velocity": 46}, {"time": 53037, "pitch": 63, "duration": 80, "velocity": 102}, {"time": 53039, "pitch": 69, "duration": 42, "velocity": 112}, {"time": 53051, "pitch": 54, "duration": 86, "velocity": 85}, {"time": 53191, "pitch": 62, "duration": 73, "velocity": 119}, {"time": 53203, "pitch": 54, "duration": 36, "velocity": 68}, {"time": 53285, "pitch": 54, "duration": 88, "velocity": 95}, {"time": 53408, "pitch": 62, "duration": 50, "velocity": 114}, {"time": 53460, "pitch": 54, "duration": 38, "velocity": 43}, {"time": 53513, "pitch": 63, "duration": 82, "velocity": 100}, {"time": 53522, "pitch": 54, "duration": 93, "velocity": 73}, {"time": 53679, "pitch": 54, "duration": 54, "velocity": 68}, {"time": 53745, "pitch": 62, "duration": 88, "velocity": 122}, {"time": 53774, "pitch": 54, "duration": 80, "velocity": 95}, {"time": 53899, "pitch": 63, "duration": 99, "velocity": 112}, {"time": 53920, "pitch": 54, "duration": 36, "velocity": 62}, {"time": 53990, "pitch": 64, "duration": 150, "velocity": 127}, {"time": 54008, "pitch": 54, "duration": 82, "velocity": 88}, {"time": 54171, "pitch": 54, "duration": 53, "velocity": 60}, {"time": 54241, "pitch": 49, "duration": 645, "velocity": 96}, {"time": 54241, "pitch": 54, "duration": 83, "velocity": 87}, {"time": 54246, "pitch": 64, "duration": 204, "velocity": 114}, {"time": 54373, "pitch": 54, "duration": 28, "velocity": 59}, {"time": 54471, "pitch": 54, "duration": 83, "velocity": 73}, {"time": 54482, "pitch": 70, "duration": 81, "velocity": 103}, {"time": 54490, "pitch": 63, "duration": 135, "velocity": 91}, {"time": 54624, "pitch": 54, "duration": 27, "velocity": 62}, {"time": 54624, "pitch": 70, "duration": 60, "velocity": 83}, {"time": 54719, "pitch": 62, "duration": 140, "velocity": 119}, {"time": 54721, "pitch": 54, "duration": 78, "velocity": 87}, {"time": 54869, "pitch": 54, "duration": 28, "velocity": 64}, {"time": 54959, "pitch": 64, "duration": 79, "velocity": 98}, {"time": 54962, "pitch": 54, "duration": 79, "velocity": 76}, {"time": 54962, "pitch": 69, "duration": 43, "velocity": 112}, {"time": 54964, "pitch": 49, "duration": 712, "velocity": 98}, {"time": 55103, "pitch": 54, "duration": 38, "velocity": 66}, {"time": 55106, "pitch": 64, "duration": 108, "velocity": 103}, {"time": 55184, "pitch": 54, "duration": 80, "velocity": 88}, {"time": 55350, "pitch": 64, "duration": 71, "velocity": 94}, {"time": 55352, "pitch": 54, "duration": 30, "velocity": 57}, {"time": 55432, "pitch": 63, "duration": 198, "velocity": 96}, {"time": 55436, "pitch": 54, "duration": 74, "velocity": 76}, {"time": 55580, "pitch": 54, "duration": 32, "velocity": 62}, {"time": 55668, "pitch": 54, "duration": 77, "velocity": 92}, {"time": 55687, "pitch": 62, "duration": 143, "velocity": 119}, {"time": 55842, "pitch": 54, "duration": 32, "velocity": 43}, {"time": 55903, "pitch": 63, "duration": 104, "velocity": 77}, {"time": 55914, "pitch": 54, "duration": 83, "velocity": 70}, {"time": 55920, "pitch": 49, "duration": 788, "velocity": 91}, {"time": 56056, "pitch": 54, "duration": 26, "velocity": 70}, {"time": 56061, "pitch": 62, "duration": 88, "velocity": 112}, {"time": 56140, "pitch": 54, "duration": 88, "velocity": 95}, {"time": 56315, "pitch": 54, "duration": 34, "velocity": 43}, {"time": 56319, "pitch": 62, "duration": 71, "velocity": 102}, {"time": 56396, "pitch": 63, "duration": 182, "velocity": 98}, {"time": 56401, "pitch": 70, "duration": 82, "velocity": 103}, {"time": 56403, "pitch": 54, "duration": 74, "velocity": 72}, {"time": 56535, "pitch": 54, "duration": 56, "velocity": 71}, {"time": 56543, "pitch": 70, "duration": 60, "velocity": 83}, {"time": 56632, "pitch": 64, "duration": 121, "velocity": 110}, {"time": 56643, "pitch": 54, "duration": 75, "velocity": 99}, {"time": 56825, "pitch": 54, "duration": 32, "velocity": 46}, {"time": 56866, "pitch": 63, "duration": 69, "velocity": 86}, {"time": 56881, "pitch": 69, "duration": 43, "velocity": 112}, {"time": 56883, "pitch": 49, "duration": 1022, "velocity": 92}, {"time": 56893, "pitch": 54, "duration": 87, "velocity": 85}, {"time": 57012, "pitch": 62, "duration": 61, "velocity": 103}, {"time": 57048, "pitch": 54, "duration": 37, "velocity": 68}, {"time": 57131, "pitch": 54, "duration": 87, "velocity": 95}, {"time": 57257, "pitch": 62, "duration": 22, "velocity": 96}, {"time": 57304, "pitch": 54, "duration": 36, "velocity": 43}, {"time": 57356, "pitch": 63, "duration": 66, "velocity": 89}, {"time": 57364, "pitch": 54, "duration": 92, "velocity": 73}, {"time": 57519, "pitch": 54, "duration": 53, "velocity": 68}, {"time": 57595, "pitch": 62, "duration": 98, "velocity": 110}, {"time": 57612, "pitch": 54, "duration": 80, "velocity": 95}, {"time": 57747, "pitch": 64, "duration": 54, "velocity": 103}, {"time": 57758, "pitch": 54, "duration": 37, "velocity": 62}, {"time": 57847, "pitch": 54, "duration": 81, "velocity": 88}, {"time": 58009, "pitch": 54, "duration": 54, "velocity": 60}, {"time": 58080, "pitch": 49, "duration": 621, "velocity": 94}, {"time": 58080, "pitch": 54, "duration": 82, "velocity": 87}, {"time": 58085, "pitch": 64, "duration": 203, "velocity": 114}, {"time": 58211, "pitch": 54, "duration": 28, "velocity": 59}, {"time": 58309, "pitch": 54, "duration": 84, "velocity": 73}, {"time": 58321, "pitch": 70, "duration": 81, "velocity": 103}, {"time": 58329, "pitch": 63, "duration": 134, "velocity": 91}, {"time": 58462, "pitch": 54, "duration": 27, "velocity": 62}, {"time": 58462, "pitch": 70, "duration": 60, "velocity": 83}, {"time": 58557, "pitch": 62, "duration": 140, "velocity": 119}, {"time": 58559, "pitch": 54, "duration": 79, "velocity": 87}, {"time": 58707, "pitch": 54, "duration": 28, "velocity": 64}, {"time": 58797, "pitch": 64, "duration": 80, "velocity": 98}, {"time": 58800, "pitch": 54, "duration": 80, "velocity": 76}, {"time": 58800, "pitch": 69, "duration": 43, "velocity": 112}, {"time": 58802, "pitch": 49, "duration": 814, "velocity": 98}, {"time": 58942, "pitch": 54, "duration": 37, "velocity": 66}, {"time": 58945, "pitch": 64, "duration": 107, "velocity": 103}, {"time": 59022, "pitch": 54, "duration": 81, "velocity": 88}, {"time": 59191, "pitch": 64, "duration": 72, "velocity": 94}, {"time": 59193, "pitch": 54, "duration": 31, "velocity": 57}, {"time": 59274, "pitch": 63, "duration": 202, "velocity": 96}, {"time": 59278, "pitch": 54, "duration": 75, "velocity": 76}, {"time": 59425, "pitch": 54, "duration": 32, "velocity": 62}, {"time": 59514, "pitch": 54, "duration": 76, "velocity": 92}, {"time": 59533, "pitch": 62, "duration": 141, "velocity": 119}, {"time": 59686, "pitch": 54, "duration": 31, "velocity": 43}, {"time": 59746, "pitch": 63, "duration": 102, "velocity": 77}, {"time": 59756, "pitch": 54, "duration": 82, "velocity": 70}, {"time": 59762, "pitch": 49, "duration": 808, "velocity": 94}, {"time": 59896, "pitch": 54, "duration": 26, "velocity": 70}, {"time": 59901, "pitch": 62, "duration": 87, "velocity": 112}, {"time": 59979, "pitch": 54, "duration": 87, "velocity": 95}, {"time": 59998, "pitch": 63, "duration": 14, "velocity": 108}, {"time": 60057, "pitch": 63, "duration": 56, "velocity": 102}, {"time": 60153, "pitch": 54, "duration": 35, "velocity": 43}, {"time": 60165, "pitch": 63, "duration": 78, "velocity": 100}, {"time": 60240, "pitch": 70, "duration": 81, "velocity": 103}, {"time": 60242, "pitch": 54, "duration": 73, "velocity": 72}, {"time": 60259, "pitch": 62, "duration": 89, "velocity": 122}, {"time": 60373, "pitch": 54, "duration": 56, "velocity": 71}, {"time": 60381, "pitch": 70, "duration": 60, "velocity": 83}, {"time": 60482, "pitch": 54, "duration": 75, "velocity": 99}, {"time": 60484, "pitch": 62, "duration": 101, "velocity": 114}, {"time": 60663, "pitch": 54, "duration": 32, "velocity": 46}, {"time": 60717, "pitch": 63, "duration": 82, "velocity": 102}, {"time": 60719, "pitch": 69, "duration": 44, "velocity": 112}, {"time": 60721, "pitch": 49, "duration": 784, "velocity": 96}, {"time": 60732, "pitch": 54, "duration": 87, "velocity": 85}, {"time": 60874, "pitch": 62, "duration": 74, "velocity": 119}, {"time": 60886, "pitch": 54, "duration": 37, "velocity": 68}, {"time": 60969, "pitch": 54, "duration": 89, "velocity": 95}, {"time": 61093, "pitch": 62, "duration": 50, "velocity": 114}, {"time": 61145, "pitch": 54, "duration": 37, "velocity": 43}, {"time": 61197, "pitch": 63, "duration": 83, "velocity": 100}, {"time": 61206, "pitch": 54, "duration": 94, "velocity": 73}, {"time": 61364, "pitch": 54, "duration": 54, "velocity": 68}, {"time": 61430, "pitch": 62, "duration": 86, "velocity": 122}, {"time": 61458, "pitch": 54, "duration": 79, "velocity": 95}, {"time": 61581, "pitch": 63, "duration": 98, "velocity": 112}, {"time": 61602, "pitch": 54, "duration": 36, "velocity": 62}, {"time": 61671, "pitch": 64, "duration": 147, "velocity": 127}, {"time": 61689, "pitch": 54, "duration": 80, "velocity": 88}, {"time": 61849, "pitch": 54, "duration": 52, "velocity": 60}, {"time": 61918, "pitch": 49, "duration": 603, "velocity": 91}, {"time": 61918, "pitch": 54, "duration": 82, "velocity": 87}, {"time": 61923, "pitch": 64, "duration": 204, "velocity": 114}, {"time": 62050, "pitch": 54, "duration": 28, "velocity": 59}, {"time": 62148, "pitch": 54, "duration": 83, "velocity": 73}, {"time": 62159, "pitch": 70, "duration": 81, "velocity": 103}, {"time": 62167, "pitch": 63, "duration": 134, "velocity": 91}, {"time": 62300, "pitch": 54, "duration": 28, "velocity": 62}, {"time": 62300, "pitch": 70, "duration": 61, "velocity": 83}, {"time": 62396, "pitch": 62, "duration": 139, "velocity": 119}, {"time": 62398, "pitch": 54, "duration": 78, "velocity": 87}, {"time": 62545, "pitch": 54, "duration": 28, "velocity": 64}, {"time": 62636, "pitch": 64, "duration": 79, "velocity": 98}, {"time": 62639, "pitch": 54, "duration": 79, "velocity": 76}, {"time": 62639, "pitch": 69, "duration": 43, "velocity": 112}, {"time": 62641, "pitch": 49, "duration": 753, "velocity": 88}, {"time": 62780, "pitch": 54, "duration": 37, "velocity": 66}, {"time": 62783, "pitch": 64, "duration": 108, "velocity": 103}, {"time": 62860, "pitch": 54, "duration": 82, "velocity": 88}, {"time": 63029, "pitch": 64, "duration": 72, "velocity": 94}, {"time": 63031, "pitch": 54, "duration": 31, "velocity": 57}, {"time": 63112, "pitch": 63, "duration": 202, "velocity": 96}, {"time": 63116, "pitch": 54, "duration": 76, "velocity": 76}, {"time": 63263, "pitch": 54, "duration": 32, "velocity": 62}, {"time": 63352, "pitch": 54, "duration": 76, "velocity": 92}, {"time": 63371, "pitch": 62, "duration": 141, "velocity": 119}, {"time": 63524, "pitch": 54, "duration": 32, "velocity": 43}, {"time": 63584, "pitch": 63, "duration": 102, "velocity": 77}, {"time": 63594, "pitch": 54, "duration": 82, "velocity": 70}, {"time": 63600, "pitch": 49, "duration": 768, "velocity": 100}, {"time": 63735, "pitch": 54, "duration": 25, "velocity": 70}, {"time": 63739, "pitch": 62, "duration": 87, "velocity": 112}, {"time": 63818, "pitch": 54, "duration": 86, "velocity": 95}, {"time": 63992, "pitch": 54, "duration": 34, "velocity": 43}, {"time": 63996, "pitch": 62, "duration": 71, "velocity": 102}, {"time": 64073, "pitch": 63, "duration": 182, "velocity": 98}, {"time": 64078, "pitch": 70, "duration": 81, "velocity": 103}, {"time": 64080, "pitch": 54, "duration": 73, "velocity": 72}, {"time": 64212, "pitch": 54, "duration": 56, "velocity": 71}, {"time": 64220, "pitch": 70, "duration": 60, "velocity": 83}, {"time": 64309, "pitch": 64, "duration": 120, "velocity": 110}, {"time": 64320, "pitch": 54, "duration": 75, "velocity": 99}, {"time": 64502, "pitch": 54, "duration": 32, "velocity": 46}, {"time": 64543, "pitch": 63, "duration": 69, "velocity": 86}, {"time": 64558, "pitch": 69, "duration": 43, "velocity": 112}, {"time": 64560, "pitch": 49, "duration": 779, "velocity": 103}, {"time": 64570, "pitch": 54, "duration": 87, "velocity": 85}, {"time": 64688, "pitch": 62, "duration": 62, "velocity": 103}, {"time": 64724, "pitch": 54, "duration": 38, "velocity": 68}, {"time": 64808, "pitch": 54, "duration": 88, "velocity": 95}, {"time": 64936, "pitch": 62, "duration": 22, "velocity": 96}, {"time": 64983, "pitch": 54, "duration": 38, "velocity": 43}, {"time": 65037, "pitch": 63, "duration": 67, "velocity": 89}, {"time": 65045, "pitch": 54, "duration": 93, "velocity": 73}, {"time": 65202, "pitch": 54, "duration": 54, "velocity": 68}, {"time": 65280, "pitch": 62, "duration": 98, "velocity": 110}, {"time": 65297, "pitch": 54, "duration": 80, "velocity": 95}, {"time": 65432, "pitch": 64, "duration": 53, "velocity": 103}, {"time": 65443, "pitch": 54, "duration": 36, "velocity": 62}, {"time": 65531, "pitch": 54, "duration": 82, "velocity": 88}, {"time": 65694, "pitch": 54, "duration": 53, "velocity": 60}, {"time": 65764, "pitch": 49, "duration": 223, "velocity": 102}, {"time": 65764, "pitch": 54, "duration": 81, "velocity": 87}, {"time": 65769, "pitch": 64, "duration": 201, "velocity": 114}, {"time": 65894, "pitch": 54, "duration": 27, "velocity": 59}, {"time": 65990, "pitch": 54, "duration": 82, "velocity": 73}, {"time": 66001, "pitch": 51, "duration": 82, "velocity": 67}, {"time": 66001, "pitch": 70, "duration": 80, "velocity": 103}, {"time": 66009, "pitch": 63, "duration": 132, "velocity": 91}, {"time": 66140, "pitch": 54, "duration": 27, "velocity": 62}, {"time": 66140, "pitch": 70, "duration": 60, "velocity": 83}, {"time": 66234, "pitch": 62, "duration": 140, "velocity": 119}, {"time": 66236, "pitch": 54, "duration": 78, "velocity": 87}, {"time": 66238, "pitch": 51, "duration": 170, "velocity": 88}, {"time": 66384, "pitch": 54, "duration": 28, "velocity": 64}, {"time": 66474, "pitch": 64, "duration": 79, "velocity": 98}, {"time": 66477, "pitch": 54, "duration": 79, "velocity": 76}, {"time": 66477, "pitch": 69, "duration": 43, "velocity": 112}, {"time": 66479, "pitch": 51, "duration": 53, "velocity": 49}, {"time": 66610, "pitch": 51, "duration": 254, "velocity": 88}, {"time": 66619, "pitch": 54, "duration": 37, "velocity": 66}, {"time": 66622, "pitch": 64, "duration": 107, "velocity": 103}, {"time": 66699, "pitch": 54, "duration": 81, "velocity": 88}, {"time": 66867, "pitch": 64, "duration": 73, "velocity": 94}, {"time": 66869, "pitch": 54, "duration": 32, "velocity": 57}, {"time": 66951, "pitch": 63, "duration": 202, "velocity": 96}, {"time": 66955, "pitch": 54, "duration": 75, "velocity": 76}, {"time": 66961, "pitch": 51, "duration": 91, "velocity": 67}, {"time": 67101, "pitch": 54, "duration": 32, "velocity": 62}, {"time": 67191, "pitch": 54, "duration": 77, "velocity": 92}, {"time": 67202, "pitch": 51, "duration": 124, "velocity": 103}, {"time": 67210, "pitch": 62, "duration": 143, "velocity": 119}, {"time": 67365, "pitch": 54, "duration": 32, "velocity": 43}, {"time": 67427, "pitch": 63, "duration": 103, "velocity": 77}, {"time": 67437, "pitch": 54, "duration": 83, "velocity": 70}, {"time": 67443, "pitch": 51, "duration": 75, "velocity": 63}, {"time": 67579, "pitch": 54, "duration": 26, "velocity": 70}, {"time": 67584, "pitch": 62, "duration": 88, "velocity": 112}, {"time": 67663, "pitch": 54, "duration": 87, "velocity": 95}, {"time": 67682, "pitch": 63, "duration": 14, "velocity": 108}, {"time": 67683, "pitch": 51, "duration": 104, "velocity": 98}, {"time": 67741, "pitch": 63, "duration": 55, "velocity": 102}, {"time": 67835, "pitch": 54, "duration": 34, "velocity": 43}, {"time": 67847, "pitch": 63, "duration": 76, "velocity": 100}, {"time": 67920, "pitch": 51, "duration": 69, "velocity": 73}, {"time": 67920, "pitch": 70, "duration": 80, "velocity": 103}, {"time": 67922, "pitch": 54, "duration": 72, "velocity": 72}, {"time": 67939, "pitch": 62, "duration": 88, "velocity": 122}, {"time": 68052, "pitch": 54, "duration": 55, "velocity": 71}, {"time": 68060, "pitch": 70, "duration": 59, "velocity": 83}, {"time": 68157, "pitch": 51, "duration": 152, "velocity": 100}, {"time": 68158, "pitch": 54, "duration": 76, "velocity": 99}, {"time": 68160, "pitch": 62, "duration": 102, "velocity": 114}, {"time": 68340, "pitch": 54, "duration": 32, "velocity": 46}, {"time": 68394, "pitch": 63, "duration": 82, "velocity": 102}, {"time": 68396, "pitch": 69, "duration": 43, "velocity": 112}, {"time": 68398, "pitch": 51, "duration": 62, "velocity": 50}, {"time": 68408, "pitch": 54, "duration": 88, "velocity": 85}, {"time": 68529, "pitch": 51, "duration": 30, "velocity": 72}, {"time": 68551, "pitch": 62, "duration": 74, "velocity": 119}, {"time": 68563, "pitch": 54, "duration": 37, "velocity": 68}, {"time": 68639, "pitch": 51, "duration": 158, "velocity": 88}, {"time": 68646, "pitch": 54, "duration": 88, "velocity": 95}, {"time": 68770, "pitch": 62, "duration": 50, "velocity": 114}, {"time": 68822, "pitch": 54, "duration": 37, "velocity": 43}, {"time": 68874, "pitch": 63, "duration": 82, "velocity": 100}, {"time": 68880, "pitch": 51, "duration": 80, "velocity": 50}, {"time": 68883, "pitch": 54, "duration": 93, "velocity": 73}, {"time": 69041, "pitch": 54, "duration": 54, "velocity": 68}, {"time": 69107, "pitch": 62, "duration": 87, "velocity": 122}, {"time": 69121, "pitch": 51, "duration": 125, "velocity": 102}, {"time": 69135, "pitch": 54, "duration": 80, "velocity": 95}, {"time": 69260, "pitch": 63, "duration": 100, "velocity": 112}, {"time": 69281, "pitch": 54, "duration": 37, "velocity": 62}, {"time": 69352, "pitch": 64, "duration": 149, "velocity": 127}, {"time": 69362, "pitch": 51, "duration": 62, "velocity": 79}, {"time": 69370, "pitch": 54, "duration": 81, "velocity": 88}, {"time": 69532, "pitch": 54, "duration": 54, "velocity": 60}, {"time": 69603, "pitch": 49, "duration": 221, "velocity": 103}, {"time": 69603, "pitch": 54, "duration": 82, "velocity": 87}, {"time": 69608, "pitch": 64, "duration": 203, "velocity": 114}, {"time": 69734, "pitch": 54, "duration": 28, "velocity": 59}, {"time": 69833, "pitch": 54, "duration": 83, "velocity": 73}, {"time": 69844, "pitch": 70, "duration": 81, "velocity": 103}, {"time": 69845, "pitch": 51, "duration": 50, "velocity": 74}, {"time": 69852, "pitch": 63, "duration": 134, "velocity": 91}, {"time": 69985, "pitch": 54, "duration": 27, "velocity": 62}, {"time": 69985, "pitch": 70, "duration": 60, "velocity": 83}, {"time": 70080, "pitch": 62, "duration": 138, "velocity": 119}, {"time": 70082, "pitch": 54, "duration": 77, "velocity": 87}, {"time": 70084, "pitch": 51, "duration": 127, "velocity": 98}, {"time": 70228, "pitch": 54, "duration": 27, "velocity": 64}, {"time": 70316, "pitch": 64, "duration": 78, "velocity": 98}, {"time": 70319, "pitch": 54, "duration": 78, "velocity": 76}, {"time": 70319, "pitch": 69, "duration": 43, "velocity": 112}, {"time": 70321, "pitch": 51, "duration": 44, "velocity": 50}, {"time": 70450, "pitch": 51, "duration": 215, "velocity": 85}, {"time": 70459, "pitch": 54, "duration": 36, "velocity": 66}, {"time": 70462, "pitch": 64, "duration": 105, "velocity": 103}, {"time": 70538, "pitch": 54, "duration": 81, "velocity": 88}, {"time": 70706, "pitch": 64, "duration": 72, "velocity": 94}, {"time": 70708, "pitch": 54, "duration": 31, "velocity": 57}, {"time": 70789, "pitch": 63, "duration": 202, "velocity": 96}, {"time": 70793, "pitch": 54, "duration": 75, "velocity": 76}, {"time": 70799, "pitch": 51, "duration": 66, "velocity": 82}, {"time": 70940, "pitch": 54, "duration": 32, "velocity": 62}, {"time": 71029, "pitch": 54, "duration": 77, "velocity": 92}, {"time": 71040, "pitch": 51, "duration": 125, "velocity": 105}, {"time": 71048, "pitch": 62, "duration": 144, "velocity": 119}, {"time": 71204, "pitch": 54, "duration": 32, "velocity": 43}, {"time": 71265, "pitch": 63, "duration": 103, "velocity": 77}, {"time": 71275, "pitch": 54, "duration": 83, "velocity": 70}, {"time": 71281, "pitch": 51, "duration": 66, "velocity": 69}, {"time": 71417, "pitch": 54, "duration": 27, "velocity": 70}, {"time": 71422, "pitch": 62, "duration": 89, "velocity": 112}, {"time": 71502, "pitch": 54, "duration": 87, "velocity": 95}, {"time": 71523, "pitch": 51, "duration": 91, "velocity": 98}, {"time": 71676, "pitch": 54, "duration": 35, "velocity": 43}, {"time": 71680, "pitch": 62, "duration": 72, "velocity": 102}, {"time": 71758, "pitch": 63, "duration": 181, "velocity": 98}, {"time": 71763, "pitch": 51, "duration": 75, "velocity": 70}, {"time": 71763, "pitch": 70, "duration": 81, "velocity": 103}, {"time": 71765, "pitch": 54, "duration": 73, "velocity": 72}, {"time": 71896, "pitch": 54, "duration": 56, "velocity": 71}, {"time": 71904, "pitch": 70, "duration": 60, "velocity": 83}, {"time": 71994, "pitch": 64, "duration": 118, "velocity": 110}, {"time": 72004, "pitch": 51, "duration": 131, "velocity": 100}, {"time": 72005, "pitch": 54, "duration": 74, "velocity": 99}, {"time": 72183, "pitch": 54, "duration": 32, "velocity": 46}, {"time": 72224, "pitch": 63, "duration": 68, "velocity": 86}, {"time": 72239, "pitch": 69, "duration": 42, "velocity": 112}, {"time": 72241, "pitch": 51, "duration": 63, "velocity": 74}, {"time": 72250, "pitch": 54, "duration": 86, "velocity": 85}, {"time": 72367, "pitch": 62, "duration": 60, "velocity": 103}, {"time": 72403, "pitch": 54, "duration": 36, "velocity": 68}, {"time": 72478, "pitch": 51, "duration": 84, "velocity": 82}, {"time": 72485, "pitch": 54, "duration": 88, "velocity": 95}, {"time": 72613, "pitch": 62, "duration": 22, "velocity": 96}, {"time": 72660, "pitch": 54, "duration": 37, "velocity": 43}, {"time": 72713, "pitch": 63, "duration": 68, "velocity": 89}, {"time": 72719, "pitch": 51, "duration": 59, "velocity": 83}, {"time": 72721, "pitch": 54, "duration": 94, "velocity": 73}, {"time": 72879, "pitch": 54, "duration": 54, "velocity": 68}, {"time": 72956, "pitch": 62, "duration": 99, "velocity": 110}, {"time": 72960, "pitch": 51, "duration": 93, "velocity": 107}, {"time": 72973, "pitch": 54, "duration": 81, "velocity": 95}, {"time": 73109, "pitch": 64, "duration": 53, "velocity": 103}, {"time": 73120, "pitch": 54, "duration": 36, "velocity": 62}, {"time": 73200, "pitch": 51, "duration": 44, "velocity": 72}, {"time": 73208, "pitch": 54, "duration": 81, "velocity": 88}, {"time": 73331, "pitch": 51, "duration": 28, "velocity": 80}, {"time": 73371, "pitch": 54, "duration": 53, "velocity": 60}, {"time": 73441, "pitch": 49, "duration": 141, "velocity": 103}, {"time": 73441, "pitch": 54, "duration": 82, "velocity": 87}, {"time": 73446, "pitch": 64, "duration": 204, "velocity": 114}, {"time": 73573, "pitch": 54, "duration": 28, "velocity": 59}, {"time": 73671, "pitch": 54, "duration": 83, "velocity": 73}, {"time": 73682, "pitch": 51, "duration": 30, "velocity": 67}, {"time": 73682, "pitch": 70, "duration": 81, "velocity": 103}, {"time": 73690, "pitch": 63, "duration": 134, "velocity": 91}, {"time": 73823, "pitch": 54, "duration": 28, "velocity": 62}, {"time": 73823, "pitch": 70, "duration": 61, "velocity": 83}, {"time": 73919, "pitch": 62, "duration": 139, "velocity": 119}, {"time": 73921, "pitch": 54, "duration": 78, "velocity": 87}, {"time": 73923, "pitch": 51, "duration": 93, "velocity": 100}, {"time": 74068, "pitch": 54, "duration": 28, "velocity": 64}, {"time": 74159, "pitch": 64, "duration": 79, "velocity": 98}, {"time": 74162, "pitch": 54, "duration": 79, "velocity": 76}, {"time": 74162, "pitch": 69, "duration": 43, "velocity": 112}, {"time": 74164, "pitch": 51, "duration": 47, "velocity": 42}, {"time": 74294, "pitch": 51, "duration": 30, "velocity": 84}, {"time": 74303, "pitch": 54, "duration": 37, "velocity": 66}, {"time": 74306, "pitch": 64, "duration": 107, "velocity": 103}, {"time": 74384, "pitch": 54, "duration": 80, "velocity": 88}, {"time": 74405, "pitch": 51, "duration": 119, "velocity": 86}, {"time": 74550, "pitch": 64, "duration": 71, "velocity": 94}, {"time": 74552, "pitch": 54, "duration": 30, "velocity": 57}, {"time": 74632, "pitch": 63, "duration": 198, "velocity": 96}, {"time": 74636, "pitch": 54, "duration": 74, "velocity": 76}, {"time": 74642, "pitch": 51, "duration": 51, "velocity": 66}, {"time": 74780, "pitch": 54, "duration": 31, "velocity": 62}, {"time": 74868, "pitch": 54, "duration": 77, "velocity": 92}, {"time": 74879, "pitch": 51, "duration": 86, "velocity": 105}, {"time": 74887, "pitch": 62, "duration": 143, "velocity": 119}, {"time": 75042, "pitch": 54, "duration": 32, "velocity": 43}, {"time": 75103, "pitch": 63, "duration": 104, "velocity": 77}, {"time": 75113, "pitch": 54, "duration": 84, "velocity": 70}, {"time": 75119, "pitch": 51, "duration": 63, "velocity": 74}, {"time": 75256, "pitch": 54, "duration": 26, "velocity": 70}, {"time": 75261, "pitch": 62, "duration": 88, "velocity": 112}, {"time": 75340, "pitch": 54, "duration": 87, "velocity": 95}, {"time": 75359, "pitch": 63, "duration": 14, "velocity": 108}, {"time": 75360, "pitch": 51, "duration": 91, "velocity": 100}, {"time": 75418, "pitch": 63, "duration": 57, "velocity": 102}, {"time": 75515, "pitch": 54, "duration": 34, "velocity": 43}, {"time": 75527, "pitch": 63, "duration": 77, "velocity": 100}, {"time": 75601, "pitch": 51, "duration": 60, "velocity": 83}, {"time": 75601, "pitch": 70, "duration": 81, "velocity": 103}, {"time": 75603, "pitch": 54, "duration": 73, "velocity": 72}, {"time": 75620, "pitch": 62, "duration": 90, "velocity": 122}, {"time": 75735, "pitch": 54, "duration": 56, "velocity": 71}, {"time": 75743, "pitch": 70, "duration": 60, "velocity": 83}, {"time": 75842, "pitch": 51, "duration": 86, "velocity": 102}, {"time": 75843, "pitch": 54, "duration": 75, "velocity": 99}, {"time": 75845, "pitch": 62, "duration": 101, "velocity": 114}, {"time": 76025, "pitch": 54, "duration": 32, "velocity": 46}, {"time": 76079, "pitch": 63, "duration": 81, "velocity": 102}, {"time": 76081, "pitch": 69, "duration": 43, "velocity": 112}, {"time": 76083, "pitch": 51, "duration": 61, "velocity": 74}, {"time": 76093, "pitch": 54, "duration": 87, "velocity": 85}, {"time": 76235, "pitch": 62, "duration": 75, "velocity": 119}, {"time": 76248, "pitch": 54, "duration": 37, "velocity": 68}, {"time": 76324, "pitch": 51, "duration": 64, "velocity": 94}, {"time": 76331, "pitch": 54, "duration": 87, "velocity": 95}, {"time": 76452, "pitch": 62, "duration": 49, "velocity": 114}, {"time": 76503, "pitch": 54, "duration": 37, "velocity": 43}, {"time": 76555, "pitch": 63, "duration": 81, "velocity": 100}, {"time": 76561, "pitch": 51, "duration": 72, "velocity": 89}, {"time": 76564, "pitch": 54, "duration": 92, "velocity": 73}, {"time": 76719, "pitch": 54, "duration": 53, "velocity": 68}, {"time": 76784, "pitch": 62, "duration": 87, "velocity": 122}, {"time": 76798, "pitch": 51, "duration": 71, "velocity": 103}, {"time": 76812, "pitch": 54, "duration": 80, "velocity": 95}, {"time": 76937, "pitch": 63, "duration": 100, "velocity": 112}, {"time": 76958, "pitch": 54, "duration": 36, "velocity": 62}, {"time": 77029, "pitch": 64, "duration": 149, "velocity": 127}, {"time": 77039, "pitch": 51, "duration": 74, "velocity": 88}, {"time": 77047, "pitch": 54, "duration": 81, "velocity": 88}, {"time": 77209, "pitch": 54, "duration": 53, "velocity": 60}, {"time": 77279, "pitch": 49, "duration": 122, "velocity": 102}, {"time": 77279, "pitch": 54, "duration": 83, "velocity": 87}, {"time": 77284, "pitch": 64, "duration": 204, "velocity": 114}, {"time": 77411, "pitch": 54, "duration": 28, "velocity": 59}, {"time": 77509, "pitch": 54, "duration": 84, "velocity": 73}, {"time": 77520, "pitch": 70, "duration": 82, "velocity": 103}, {"time": 77521, "pitch": 51, "duration": 63, "velocity": 88}, {"time": 77528, "pitch": 63, "duration": 135, "velocity": 91}, {"time": 77662, "pitch": 54, "duration": 27, "velocity": 62}, {"time": 77662, "pitch": 70, "duration": 60, "velocity": 83}, {"time": 77757, "pitch": 62, "duration": 140, "velocity": 119}, {"time": 77759, "pitch": 54, "duration": 78, "velocity": 87}, {"time": 77761, "pitch": 51, "duration": 76, "velocity": 88}, {"time": 77907, "pitch": 54, "duration": 28, "velocity": 64}, {"time": 77997, "pitch": 64, "duration": 79, "velocity": 98}, {"time": 78000, "pitch": 54, "duration": 79, "velocity": 76}, {"time": 78000, "pitch": 69, "duration": 43, "velocity": 112}, {"time": 78002, "pitch": 51, "duration": 53, "velocity": 72}, {"time": 78142, "pitch": 54, "duration": 37, "velocity": 66}, {"time": 78145, "pitch": 64, "duration": 107, "velocity": 103}, {"time": 78222, "pitch": 54, "duration": 81, "velocity": 88}, {"time": 78243, "pitch": 51, "duration": 65, "velocity": 88}, {"time": 78391, "pitch": 64, "duration": 72, "velocity": 94}, {"time": 78393, "pitch": 54, "duration": 31, "velocity": 57}, {"time": 78474, "pitch": 63, "duration": 202, "velocity": 96}, {"time": 78478, "pitch": 54, "duration": 75, "velocity": 76}, {"time": 78484, "pitch": 51, "duration": 43, "velocity": 70}, {"time": 78624, "pitch": 54, "duration": 32, "velocity": 62}, {"time": 78714, "pitch": 54, "duration": 76, "velocity": 92}, {"time": 78725, "pitch": 51, "duration": 90, "velocity": 96}, {"time": 78733, "pitch": 62, "duration": 141, "velocity": 119}, {"time": 78886, "pitch": 54, "duration": 31, "velocity": 43}, {"time": 78946, "pitch": 63, "duration": 102, "velocity": 77}, {"time": 78956, "pitch": 54, "duration": 82, "velocity": 70}, {"time": 78962, "pitch": 51, "duration": 53, "velocity": 68}, {"time": 79096, "pitch": 54, "duration": 26, "velocity": 70}, {"time": 79101, "pitch": 62, "duration": 87, "velocity": 112}, {"time": 79179, "pitch": 54, "duration": 87, "velocity": 95}, {"time": 79200, "pitch": 51, "duration": 67, "velocity": 94}, {"time": 79353, "pitch": 54, "duration": 34, "velocity": 43}, {"time": 79357, "pitch": 62, "duration": 71, "velocity": 102}, {"time": 79435, "pitch": 63, "duration": 181, "velocity": 98}, {"time": 79440, "pitch": 51, "duration": 65, "velocity": 81}, {"time": 79440, "pitch": 70, "duration": 81, "velocity": 103}, {"time": 79442, "pitch": 54, "duration": 73, "velocity": 72}, {"time": 79573, "pitch": 54, "duration": 56, "velocity": 71}, {"time": 79581, "pitch": 70, "duration": 60, "velocity": 83}, {"time": 79670, "pitch": 64, "duration": 121, "velocity": 110}, {"time": 79680, "pitch": 51, "duration": 75, "velocity": 92}, {"time": 79681, "pitch": 54, "duration": 76, "velocity": 99}, {"time": 79863, "pitch": 54, "duration": 32, "velocity": 46}, {"time": 79904, "pitch": 63, "duration": 69, "velocity": 86}, {"time": 79919, "pitch": 69, "duration": 43, "velocity": 112}, {"time": 79921, "pitch": 51, "duration": 54, "velocity": 66}, {"time": 79931, "pitch": 54, "duration": 88, "velocity": 85}, {"time": 80050, "pitch": 62, "duration": 61, "velocity": 103}, {"time": 80086, "pitch": 54, "duration": 37, "velocity": 68}, {"time": 80162, "pitch": 51, "duration": 71, "velocity": 100}, {"time": 80169, "pitch": 54, "duration": 89, "velocity": 95}, {"time": 80298, "pitch": 62, "duration": 22, "velocity": 96}, {"time": 80345, "pitch": 54, "duration": 37, "velocity": 43}, {"time": 80398, "pitch": 63, "duration": 67, "velocity": 89}, {"time": 80404, "pitch": 53, "duration": 427, "velocity": 119}, {"time": 80406, "pitch": 54, "duration": 93, "velocity": 73}, {"time": 80564, "pitch": 54, "duration": 54, "velocity": 68}, {"time": 80641, "pitch": 62, "duration": 97, "velocity": 110}, {"time": 80658, "pitch": 54, "duration": 79, "velocity": 95}, {"time": 80791, "pitch": 64, "duration": 52, "velocity": 103}, {"time": 80802, "pitch": 54, "duration": 35, "velocity": 62}, {"time": 80889, "pitch": 54, "duration": 80, "velocity": 88}, {"time": 81049, "pitch": 54, "duration": 52, "velocity": 60}, {"time": 81118, "pitch": 49, "duration": 710, "velocity": 105}, {"time": 81118, "pitch": 54, "duration": 82, "velocity": 87}, {"time": 81123, "pitch": 64, "duration": 204, "velocity": 114}, {"time": 81249, "pitch": 54, "duration": 28, "velocity": 59}, {"time": 81348, "pitch": 54, "duration": 83, "velocity": 73}, {"time": 81359, "pitch": 70, "duration": 81, "velocity": 103}, {"time": 81367, "pitch": 63, "duration": 134, "velocity": 91}, {"time": 81500, "pitch": 54, "duration": 27, "velocity": 62}, {"time": 81500, "pitch": 70, "duration": 60, "velocity": 83}, {"time": 81596, "pitch": 62, "duration": 139, "velocity": 119}, {"time": 81598, "pitch": 54, "duration": 78, "velocity": 87}, {"time": 81745, "pitch": 54, "duration": 28, "velocity": 64}, {"time": 81835, "pitch": 64, "duration": 80, "velocity": 98}, {"time": 81838, "pitch": 54, "duration": 80, "velocity": 76}, {"time": 81838, "pitch": 69, "duration": 44, "velocity": 112}, {"time": 81980, "pitch": 54, "duration": 37, "velocity": 66}, {"time": 81983, "pitch": 64, "duration": 107, "velocity": 103}, {"time": 82060, "pitch": 54, "duration": 82, "velocity": 88}, {"time": 82229, "pitch": 64, "duration": 72, "velocity": 94}, {"time": 82231, "pitch": 54, "duration": 31, "velocity": 57}, {"time": 82312, "pitch": 63, "duration": 202, "velocity": 96}, {"time": 82316, "pitch": 54, "duration": 75, "velocity": 76}, {"time": 82463, "pitch": 54, "duration": 32, "velocity": 62}, {"time": 82552, "pitch": 54, "duration": 77, "velocity": 92}, {"time": 82571, "pitch": 62, "duration": 144, "velocity": 119}, {"time": 82727, "pitch": 54, "duration": 32, "velocity": 43}, {"time": 82788, "pitch": 63, "duration": 103, "velocity": 77}, {"time": 82798, "pitch": 54, "duration": 83, "velocity": 70}, {"time": 82941, "pitch": 54, "duration": 26, "velocity": 70}, {"time": 82946, "pitch": 62, "duration": 88, "velocity": 112}, {"time": 83025, "pitch": 54, "duration": 86, "velocity": 95}, {"time": 83044, "pitch": 63, "duration": 14, "velocity": 108}, {"time": 83102, "pitch": 63, "duration": 55, "velocity": 102}, {"time": 83197, "pitch": 54, "duration": 33, "velocity": 43}, {"time": 83209, "pitch": 63, "duration": 76, "velocity": 100}, {"time": 83282, "pitch": 70, "duration": 80, "velocity": 103}, {"time": 83284, "pitch": 54, "duration": 72, "velocity": 72}, {"time": 83301, "pitch": 62, "duration": 87, "velocity": 122}, {"time": 83413, "pitch": 54, "duration": 55, "velocity": 71}, {"time": 83421, "pitch": 70, "duration": 59, "velocity": 83}, {"time": 83520, "pitch": 54, "duration": 75, "velocity": 99}, {"time": 83522, "pitch": 62, "duration": 101, "velocity": 114}, {"time": 83701, "pitch": 54, "duration": 33, "velocity": 46}, {"time": 83756, "pitch": 63, "duration": 81, "velocity": 102}, {"time": 83758, "pitch": 69, "duration": 43, "velocity": 112}, {"time": 83770, "pitch": 54, "duration": 87, "velocity": 85}, {"time": 83912, "pitch": 62, "duration": 75, "velocity": 119}, {"time": 83924, "pitch": 54, "duration": 37, "velocity": 68}, {"time": 84008, "pitch": 54, "duration": 88, "velocity": 95}, {"time": 84131, "pitch": 62, "duration": 50, "velocity": 114}, {"time": 84183, "pitch": 54, "duration": 37, "velocity": 43}, {"time": 84235, "pitch": 63, "duration": 83, "velocity": 100}, {"time": 84244, "pitch": 54, "duration": 94, "velocity": 73}, {"time": 84402, "pitch": 54, "duration": 54, "velocity": 68}, {"time": 84468, "pitch": 62, "duration": 88, "velocity": 122}, {"time": 84496, "pitch": 54, "duration": 81, "velocity": 95}, {"time": 84622, "pitch": 63, "duration": 99, "velocity": 112}, {"time": 84643, "pitch": 54, "duration": 36, "velocity": 62}, {"time": 84713, "pitch": 64, "duration": 150, "velocity": 127}, {"time": 84731, "pitch": 54, "duration": 82, "velocity": 88}, {"time": 84894, "pitch": 54, "duration": 53, "velocity": 60}, {"time": 84964, "pitch": 54, "duration": 81, "velocity": 87}, {"time": 84969, "pitch": 64, "duration": 200, "velocity": 114}, {"time": 85093, "pitch": 54, "duration": 28, "velocity": 59}, {"time": 85190, "pitch": 54, "duration": 82, "velocity": 73}, {"time": 85201, "pitch": 70, "duration": 80, "velocity": 103}, {"time": 85209, "pitch": 63, "duration": 132, "velocity": 91}, {"time": 85340, "pitch": 54, "duration": 27, "velocity": 62}, {"time": 85340, "pitch": 70, "duration": 60, "velocity": 83}, {"time": 85434, "pitch": 62, "duration": 139, "velocity": 119}, {"time": 85436, "pitch": 54, "duration": 78, "velocity": 87}, {"time": 85584, "pitch": 54, "duration": 28, "velocity": 64}, {"time": 85674, "pitch": 64, "duration": 79, "velocity": 98}, {"time": 85677, "pitch": 54, "duration": 79, "velocity": 76}, {"time": 85677, "pitch": 69, "duration": 43, "velocity": 112}, {"time": 85818, "pitch": 54, "duration": 38, "velocity": 66}, {"time": 85821, "pitch": 64, "duration": 108, "velocity": 103}, {"time": 85899, "pitch": 54, "duration": 81, "velocity": 88}, {"time": 86067, "pitch": 64, "duration": 73, "velocity": 94}, {"time": 86069, "pitch": 54, "duration": 31, "velocity": 57}, {"time": 86151, "pitch": 63, "duration": 201, "velocity": 96}, {"time": 86155, "pitch": 54, "duration": 75, "velocity": 76}, {"time": 86301, "pitch": 54, "duration": 32, "velocity": 62}, {"time": 86390, "pitch": 54, "duration": 78, "velocity": 92}, {"time": 86410, "pitch": 62, "duration": 143, "velocity": 119}, {"time": 86565, "pitch": 54, "duration": 32, "velocity": 43}, {"time": 86626, "pitch": 63, "duration": 104, "velocity": 77}, {"time": 86636, "pitch": 54, "duration": 84, "velocity": 70}, {"time": 86779, "pitch": 54, "duration": 26, "velocity": 70}, {"time": 86784, "pitch": 62, "duration": 88, "velocity": 112}, {"time": 86863, "pitch": 54, "duration": 86, "velocity": 95}, {"time": 87035, "pitch": 54, "duration": 34, "velocity": 43}, {"time": 87039, "pitch": 62, "duration": 70, "velocity": 102}, {"time": 87115, "pitch": 63, "duration": 179, "velocity": 98}, {"time": 87120, "pitch": 70, "duration": 80, "velocity": 103}, {"time": 87122, "pitch": 54, "duration": 72, "velocity": 72}, {"time": 87252, "pitch": 54, "duration": 55, "velocity": 71}, {"time": 87259, "pitch": 70, "duration": 60, "velocity": 83}, {"time": 87347, "pitch": 64, "duration": 121, "velocity": 110}, {"time": 87358, "pitch": 54, "duration": 75, "velocity": 99}, {"time": 87540, "pitch": 54, "duration": 32, "velocity": 46}, {"time": 87581, "pitch": 63, "duration": 69, "velocity": 86}, {"time": 87596, "pitch": 69, "duration": 43, "velocity": 112}, {"time": 87608, "pitch": 54, "duration": 87, "velocity": 85}, {"time": 87727, "pitch": 62, "duration": 61, "velocity": 103}, {"time": 87763, "pitch": 54, "duration": 37, "velocity": 68}, {"time": 87846, "pitch": 54, "duration": 88, "velocity": 95}, {"time": 87974, "pitch": 62, "duration": 23, "velocity": 96}, {"time": 88022, "pitch": 54, "duration": 37, "velocity": 43}, {"time": 88075, "pitch": 63, "duration": 67, "velocity": 89}, {"time": 88083, "pitch": 54, "duration": 93, "velocity": 73}, {"time": 88240, "pitch": 54, "duration": 55, "velocity": 68}, {"time": 88318, "pitch": 62, "duration": 98, "velocity": 110}, {"time": 88335, "pitch": 54, "duration": 80, "velocity": 95}, {"time": 88470, "pitch": 64, "duration": 53, "velocity": 103}, {"time": 88481, "pitch": 54, "duration": 36, "velocity": 62}, {"time": 88570, "pitch": 54, "duration": 81, "velocity": 88}, {"time": 88732, "pitch": 54, "duration": 53, "velocity": 60}, {"time": 88802, "pitch": 54, "duration": 83, "velocity": 87}, {"time": 88807, "pitch": 64, "duration": 204, "velocity": 114}, {"time": 88934, "pitch": 54, "duration": 28, "velocity": 59}, {"time": 89032, "pitch": 54, "duration": 84, "velocity": 73}, {"time": 89043, "pitch": 70, "duration": 82, "velocity": 103}, {"time": 89051, "pitch": 63, "duration": 135, "velocity": 91}, {"time": 89185, "pitch": 54, "duration": 27, "velocity": 62}, {"time": 89185, "pitch": 70, "duration": 60, "velocity": 83}, {"time": 89280, "pitch": 62, "duration": 137, "velocity": 119}, {"time": 89282, "pitch": 54, "duration": 77, "velocity": 87}, {"time": 89427, "pitch": 54, "duration": 28, "velocity": 64}, {"time": 89516, "pitch": 64, "duration": 78, "velocity": 98}, {"time": 89519, "pitch": 54, "duration": 78, "velocity": 76}, {"time": 89519, "pitch": 69, "duration": 43, "velocity": 112}, {"time": 89658, "pitch": 54, "duration": 37, "velocity": 66}, {"time": 89661, "pitch": 64, "duration": 106, "velocity": 103}, {"time": 89737, "pitch": 54, "duration": 81, "velocity": 88}, {"time": 89906, "pitch": 64, "duration": 72, "velocity": 94}, {"time": 89908, "pitch": 54, "duration": 31, "velocity": 57}, {"time": 89989, "pitch": 63, "duration": 202, "velocity": 96}, {"time": 89993, "pitch": 54, "duration": 75, "velocity": 76}, {"time": 90140, "pitch": 54, "duration": 32, "velocity": 62}, {"time": 90229, "pitch": 54, "duration": 77, "velocity": 92}, {"time": 90248, "pitch": 62, "duration": 143, "velocity": 119}, {"time": 90404, "pitch": 54, "duration": 32, "velocity": 43}, {"time": 90465, "pitch": 63, "duration": 103, "velocity": 77}, {"time": 90475, "pitch": 54, "duration": 83, "velocity": 70}, {"time": 90617, "pitch": 54, "duration": 26, "velocity": 70}, {"time": 90622, "pitch": 62, "duration": 89, "velocity": 112}, {"time": 90702, "pitch": 54, "duration": 87, "velocity": 95}, {"time": 90721, "pitch": 63, "duration": 14, "velocity": 108}, {"time": 90780, "pitch": 63, "duration": 56, "velocity": 102}, {"time": 90876, "pitch": 54, "duration": 34, "velocity": 43}, {"time": 90888, "pitch": 63, "duration": 78, "velocity": 100}, {"time": 90963, "pitch": 70, "duration": 81, "velocity": 103}, {"time": 90965, "pitch": 54, "duration": 73, "velocity": 72}, {"time": 90982, "pitch": 62, "duration": 89, "velocity": 122}, {"time": 91096, "pitch": 54, "duration": 56, "velocity": 71}, {"time": 91104, "pitch": 70, "duration": 60, "velocity": 83}, {"time": 91204, "pitch": 54, "duration": 74, "velocity": 99}, {"time": 91206, "pitch": 62, "duration": 100, "velocity": 114}, {"time": 91383, "pitch": 54, "duration": 32, "velocity": 46}, {"time": 91436, "pitch": 63, "duration": 80, "velocity": 102}, {"time": 91438, "pitch": 69, "duration": 43, "velocity": 112}, {"time": 91450, "pitch": 54, "duration": 86, "velocity": 85}, {"time": 91590, "pitch": 62, "duration": 74, "velocity": 119}, {"time": 91602, "pitch": 54, "duration": 37, "velocity": 68}, {"time": 91684, "pitch": 54, "duration": 89, "velocity": 95}, {"time": 91808, "pitch": 62, "duration": 50, "velocity": 114}, {"time": 91860, "pitch": 54, "duration": 37, "velocity": 43}, {"time": 91912, "pitch": 63, "duration": 82, "velocity": 100}, {"time": 91921, "pitch": 54, "duration": 94, "velocity": 73}, {"time": 92079, "pitch": 54, "duration": 54, "velocity": 68}, {"time": 92145, "pitch": 62, "duration": 87, "velocity": 122}, {"time": 92173, "pitch": 54, "duration": 80, "velocity": 95}, {"time": 92299, "pitch": 63, "duration": 99, "velocity": 112}, {"time": 92320, "pitch": 54, "duration": 36, "velocity": 62}, {"time": 92390, "pitch": 64, "duration": 149, "velocity": 127}, {"time": 92408, "pitch": 54, "duration": 81, "velocity": 88}, {"time": 92571, "pitch": 54, "duration": 53, "velocity": 60}, {"time": 92641, "pitch": 54, "duration": 82, "velocity": 87}, {"time": 92646, "pitch": 64, "duration": 204, "velocity": 114}, {"time": 92772, "pitch": 54, "duration": 28, "velocity": 59}, {"time": 92871, "pitch": 54, "duration": 83, "velocity": 73}, {"time": 92882, "pitch": 70, "duration": 81, "velocity": 103}, {"time": 92890, "pitch": 63, "duration": 134, "velocity": 91}, {"time": 93023, "pitch": 54, "duration": 27, "velocity": 62}, {"time": 93023, "pitch": 70, "duration": 60, "velocity": 83}, {"time": 93119, "pitch": 62, "duration": 139, "velocity": 119}, {"time": 93121, "pitch": 54, "duration": 78, "velocity": 87}, {"time": 93268, "pitch": 54, "duration": 28, "velocity": 64}, {"time": 93358, "pitch": 64, "duration": 80, "velocity": 98}, {"time": 93362, "pitch": 54, "duration": 79, "velocity": 76}, {"time": 93362, "pitch": 69, "duration": 43, "velocity": 112}, {"time": 93503, "pitch": 54, "duration": 37, "velocity": 66}, {"time": 93506, "pitch": 64, "duration": 107, "velocity": 103}, {"time": 93583, "pitch": 54, "duration": 81, "velocity": 88}, {"time": 93749, "pitch": 64, "duration": 72, "velocity": 94}, {"time": 93751, "pitch": 54, "duration": 31, "velocity": 57}, {"time": 93831, "pitch": 63, "duration": 199, "velocity": 96}, {"time": 93835, "pitch": 54, "duration": 74, "velocity": 76}, {"time": 93980, "pitch": 54, "duration": 31, "velocity": 62}, {"time": 94067, "pitch": 54, "duration": 78, "velocity": 92}, {"time": 94086, "pitch": 62, "duration": 144, "velocity": 119}, {"time": 94242, "pitch": 54, "duration": 32, "velocity": 43}, {"time": 94303, "pitch": 63, "duration": 103, "velocity": 77}, {"time": 94313, "pitch": 54, "duration": 83, "velocity": 70}, {"time": 94456, "pitch": 54, "duration": 26, "velocity": 70}, {"time": 94461, "pitch": 62, "duration": 88, "velocity": 112}, {"time": 94540, "pitch": 54, "duration": 87, "velocity": 95}, {"time": 94715, "pitch": 54, "duration": 34, "velocity": 43}, {"time": 94719, "pitch": 62, "duration": 71, "velocity": 102}, {"time": 94796, "pitch": 63, "duration": 182, "velocity": 98}, {"time": 94801, "pitch": 70, "duration": 81, "velocity": 103}, {"time": 94803, "pitch": 54, "duration": 73, "velocity": 72}, {"time": 94934, "pitch": 54, "duration": 57, "velocity": 71}, {"time": 94942, "pitch": 70, "duration": 61, "velocity": 83}, {"time": 95032, "pitch": 64, "duration": 120, "velocity": 110}, {"time": 95043, "pitch": 54, "duration": 75, "velocity": 99}, {"time": 95224, "pitch": 54, "duration": 33, "velocity": 46}, {"time": 95266, "pitch": 63, "duration": 69, "velocity": 86}, {"time": 95281, "pitch": 69, "duration": 43, "velocity": 112}, {"time": 95293, "pitch": 54, "duration": 87, "velocity": 85}, {"time": 95411, "pitch": 62, "duration": 61, "velocity": 103}, {"time": 95447, "pitch": 54, "duration": 37, "velocity": 68}, {"time": 95524, "pitch": 42, "duration": 102, "velocity": 100}, {"time": 95657, "pitch": 62, "duration": 22, "velocity": 96}, {"time": 95756, "pitch": 63, "duration": 66, "velocity": 89}, {"time": 95761, "pitch": 42, "duration": 89, "velocity": 96}, {"time": 95763, "pitch": 36, "duration": 237, "velocity": 103}, {"time": 95995, "pitch": 62, "duration": 98, "velocity": 110}, {"time": 95998, "pitch": 42, "duration": 117, "velocity": 103}, {"time": 96000, "pitch": 40, "duration": 64, "velocity": 79}, {"time": 96140, "pitch": 40, "duration": 71, "velocity": 66}, {"time": 96147, "pitch": 64, "duration": 53, "velocity": 103}, {"time": 96238, "pitch": 42, "duration": 341, "velocity": 110}, {"time": 96248, "pitch": 36, "duration": 325, "velocity": 91}, {"time": 96479, "pitch": 49, "duration": 3786, "velocity": 114}, {"time": 96479, "pitch": 54, "duration": 83, "velocity": 87}, {"time": 96484, "pitch": 64, "duration": 204, "velocity": 114}, {"time": 96611, "pitch": 54, "duration": 28, "velocity": 59}, {"time": 96709, "pitch": 54, "duration": 83, "velocity": 73}, {"time": 96720, "pitch": 70, "duration": 81, "velocity": 103}, {"time": 96728, "pitch": 63, "duration": 135, "velocity": 91}, {"time": 96862, "pitch": 54, "duration": 27, "velocity": 62}, {"time": 96862, "pitch": 70, "duration": 60, "velocity": 83}, {"time": 96957, "pitch": 62, "duration": 140, "velocity": 119}, {"time": 96959, "pitch": 54, "duration": 78, "velocity": 87}, {"time": 97107, "pitch": 54, "duration": 28, "velocity": 64}, {"time": 97197, "pitch": 64, "duration": 79, "velocity": 98}, {"time": 97200, "pitch": 54, "duration": 79, "velocity": 76}, {"time": 97200, "pitch": 69, "duration": 43, "velocity": 112}, {"time": 97341, "pitch": 54, "duration": 38, "velocity": 66}, {"time": 97344, "pitch": 64, "duration": 108, "velocity": 103}, {"time": 97422, "pitch": 54, "duration": 81, "velocity": 88}, {"time": 97590, "pitch": 64, "duration": 73, "velocity": 94}, {"time": 97592, "pitch": 54, "duration": 31, "velocity": 57}, {"time": 97674, "pitch": 63, "duration": 201, "velocity": 96}, {"time": 97678, "pitch": 54, "duration": 75, "velocity": 76}, {"time": 97824, "pitch": 54, "duration": 32, "velocity": 62}, {"time": 97914, "pitch": 54, "duration": 76, "velocity": 92}, {"time": 97932, "pitch": 62, "duration": 142, "velocity": 119}, {"time": 98085, "pitch": 54, "duration": 32, "velocity": 43}, {"time": 98146, "pitch": 63, "duration": 101, "velocity": 77}, {"time": 98156, "pitch": 54, "duration": 82, "velocity": 70}, {"time": 98296, "pitch": 54, "duration": 25, "velocity": 70}, {"time": 98301, "pitch": 62, "duration": 87, "velocity": 112}, {"time": 98379, "pitch": 54, "duration": 87, "velocity": 95}, {"time": 98397, "pitch": 63, "duration": 14, "velocity": 108}, {"time": 98457, "pitch": 63, "duration": 56, "velocity": 102}, {"time": 98553, "pitch": 54, "duration": 34, "velocity": 43}, {"time": 98565, "pitch": 63, "duration": 77, "velocity": 100}, {"time": 98639, "pitch": 70, "duration": 82, "velocity": 103}, {"time": 98641, "pitch": 54, "duration": 74, "velocity": 72}, {"time": 98658, "pitch": 62, "duration": 90, "velocity": 122}, {"time": 98773, "pitch": 54, "duration": 56, "velocity": 71}, {"time": 98781, "pitch": 70, "duration": 60, "velocity": 83}, {"time": 98881, "pitch": 54, "duration": 75, "velocity": 99}, {"time": 98883, "pitch": 62, "duration": 102, "velocity": 114}, {"time": 99063, "pitch": 54, "duration": 32, "velocity": 46}, {"time": 99117, "pitch": 63, "duration": 81, "velocity": 102}, {"time": 99119, "pitch": 69, "duration": 43, "velocity": 112}, {"time": 99131, "pitch": 54, "duration": 87, "velocity": 85}, {"time": 99274, "pitch": 62, "duration": 74, "velocity": 119}, {"time": 99286, "pitch": 54, "duration": 37, "velocity": 68}, {"time": 99369, "pitch": 54, "duration": 88, "velocity": 95}, {"time": 99492, "pitch": 62, "duration": 51, "velocity": 114}, {"time": 99545, "pitch": 54, "duration": 37, "velocity": 43}, {"time": 99597, "pitch": 63, "duration": 82, "velocity": 100}, {"time": 99606, "pitch": 54, "duration": 93, "velocity": 73}, {"time": 99763, "pitch": 54, "duration": 55, "velocity": 68}, {"time": 99830, "pitch": 62, "duration": 86, "velocity": 122}, {"time": 99858, "pitch": 54, "duration": 79, "velocity": 95}, {"time": 99981, "pitch": 63, "duration": 98, "velocity": 112}, {"time": 100002, "pitch": 54, "duration": 35, "velocity": 62}, {"time": 100071, "pitch": 64, "duration": 147, "velocity": 127}, {"time": 100089, "pitch": 54, "duration": 80, "velocity": 88}, {"time": 100249, "pitch": 54, "duration": 52, "velocity": 60}, {"time": 100318, "pitch": 54, "duration": 82, "velocity": 87}, {"time": 100323, "pitch": 64, "duration": 203, "velocity": 114}, {"time": 100449, "pitch": 54, "duration": 28, "velocity": 59}, {"time": 100547, "pitch": 54, "duration": 84, "velocity": 73}, {"time": 100559, "pitch": 70, "duration": 81, "velocity": 103}, {"time": 100567, "pitch": 63, "duration": 134, "velocity": 91}, {"time": 100700, "pitch": 54, "duration": 27, "velocity": 62}, {"time": 100700, "pitch": 70, "duration": 60, "velocity": 83}, {"time": 100795, "pitch": 62, "duration": 140, "velocity": 119}, {"time": 100797, "pitch": 54, "duration": 79, "velocity": 87}, {"time": 100945, "pitch": 54, "duration": 28, "velocity": 64}, {"time": 101035, "pitch": 64, "duration": 80, "velocity": 98}, {"time": 101038, "pitch": 54, "duration": 80, "velocity": 76}, {"time": 101038, "pitch": 69, "duration": 43, "velocity": 112}, {"time": 101180, "pitch": 54, "duration": 37, "velocity": 66}, {"time": 101183, "pitch": 64, "duration": 107, "velocity": 103}, {"time": 101260, "pitch": 54, "duration": 81, "velocity": 88}, {"time": 101429, "pitch": 64, "duration": 72, "velocity": 94}, {"time": 101431, "pitch": 54, "duration": 31, "velocity": 57}, {"time": 101512, "pitch": 63, "duration": 202, "velocity": 96}, {"time": 101516, "pitch": 54, "duration": 75, "velocity": 76}, {"time": 101663, "pitch": 54, "duration": 32, "velocity": 62}, {"time": 101752, "pitch": 54, "duration": 77, "velocity": 92}, {"time": 101771, "pitch": 62, "duration": 143, "velocity": 119}, {"time": 101927, "pitch": 54, "duration": 32, "velocity": 43}, {"time": 101988, "pitch": 63, "duration": 103, "velocity": 77}, {"time": 101998, "pitch": 54, "duration": 83, "velocity": 70}, {"time": 102140, "pitch": 54, "duration": 26, "velocity": 70}, {"time": 102145, "pitch": 62, "duration": 89, "velocity": 112}, {"time": 102225, "pitch": 54, "duration": 86, "velocity": 95}, {"time": 102397, "pitch": 54, "duration": 33, "velocity": 43}, {"time": 102401, "pitch": 62, "duration": 70, "velocity": 102}, {"time": 102477, "pitch": 63, "duration": 178, "velocity": 98}, {"time": 102482, "pitch": 70, "duration": 80, "velocity": 103}, {"time": 102484, "pitch": 54, "duration": 72, "velocity": 72}, {"time": 102613, "pitch": 54, "duration": 55, "velocity": 71}, {"time": 102621, "pitch": 70, "duration": 59, "velocity": 83}, {"time": 102709, "pitch": 64, "duration": 120, "velocity": 110}, {"time": 102720, "pitch": 54, "duration": 75, "velocity": 99}, {"time": 102901, "pitch": 54, "duration": 32, "velocity": 46}, {"time": 102942, "pitch": 63, "duration": 70, "velocity": 86}, {"time": 102957, "pitch": 69, "duration": 44, "velocity": 112}, {"time": 102970, "pitch": 54, "duration": 87, "velocity": 85}, {"time": 103088, "pitch": 62, "duration": 61, "velocity": 103}, {"time": 103124, "pitch": 54, "duration": 37, "velocity": 68}, {"time": 103207, "pitch": 54, "duration": 89, "velocity": 95}, {"time": 103336, "pitch": 62, "duration": 22, "velocity": 96}, {"time": 103383, "pitch": 54, "duration": 37, "velocity": 43}, {"time": 103436, "pitch": 63, "duration": 67, "velocity": 89}, {"time": 103444, "pitch": 54, "duration": 94, "velocity": 73}, {"time": 103602, "pitch": 54, "duration": 54, "velocity": 68}, {"time": 103679, "pitch": 62, "duration": 98, "velocity": 110}, {"time": 103696, "pitch": 54, "duration": 80, "velocity": 95}, {"time": 103832, "pitch": 64, "duration": 53, "velocity": 103}, {"time": 103843, "pitch": 54, "duration": 36, "velocity": 62}, {"time": 103931, "pitch": 54, "duration": 81, "velocity": 88}, {"time": 104094, "pitch": 54, "duration": 53, "velocity": 60}, {"time": 104164, "pitch": 54, "duration": 81, "velocity": 87}, {"time": 104169, "pitch": 64, "duration": 200, "velocity": 114}, {"time": 104293, "pitch": 54, "duration": 28, "velocity": 59}, {"time": 104390, "pitch": 54, "duration": 82, "velocity": 73}, {"time": 104401, "pitch": 70, "duration": 80, "velocity": 103}, {"time": 104409, "pitch": 63, "duration": 132, "velocity": 91}, {"time": 104540, "pitch": 54, "duration": 27, "velocity": 62}, {"time": 104540, "pitch": 70, "duration": 59, "velocity": 83}, {"time": 104634, "pitch": 62, "duration": 139, "velocity": 119}, {"time": 104636, "pitch": 54, "duration": 78, "velocity": 87}, {"time": 104783, "pitch": 54, "duration": 28, "velocity": 64}, {"time": 104874, "pitch": 64, "duration": 79, "velocity": 98}, {"time": 104877, "pitch": 54, "duration": 79, "velocity": 76}, {"time": 104877, "pitch": 69, "duration": 43, "velocity": 112}, {"time": 105018, "pitch": 54, "duration": 37, "velocity": 66}, {"time": 105021, "pitch": 64, "duration": 108, "velocity": 103}, {"time": 105098, "pitch": 54, "duration": 82, "velocity": 88}, {"time": 105267, "pitch": 64, "duration": 72, "velocity": 94}, {"time": 105269, "pitch": 54, "duration": 31, "velocity": 57}, {"time": 105350, "pitch": 63, "duration": 202, "velocity": 96}, {"time": 105354, "pitch": 54, "duration": 76, "velocity": 76}, {"time": 105501, "pitch": 54, "duration": 32, "velocity": 62}, {"time": 105590, "pitch": 54, "duration": 78, "velocity": 92}, {"time": 105609, "pitch": 62, "duration": 144, "velocity": 119}, {"time": 105765, "pitch": 54, "duration": 32, "velocity": 43}, {"time": 105826, "pitch": 63, "duration": 104, "velocity": 77}, {"time": 105836, "pitch": 54, "duration": 83, "velocity": 70}, {"time": 105979, "pitch": 54, "duration": 26, "velocity": 70}, {"time": 105984, "pitch": 62, "duration": 88, "velocity": 112}, {"time": 106063, "pitch": 54, "duration": 87, "velocity": 95}, {"time": 106082, "pitch": 63, "duration": 14, "velocity": 108}, {"time": 106141, "pitch": 63, "duration": 57, "velocity": 102}, {"time": 106238, "pitch": 54, "duration": 34, "velocity": 43}, {"time": 106250, "pitch": 63, "duration": 77, "velocity": 100}, {"time": 106324, "pitch": 70, "duration": 81, "velocity": 103}, {"time": 106326, "pitch": 54, "duration": 73, "velocity": 72}, {"time": 106343, "pitch": 62, "duration": 89, "velocity": 122}, {"time": 106457, "pitch": 54, "duration": 57, "velocity": 71}, {"time": 106465, "pitch": 70, "duration": 61, "velocity": 83}, {"time": 106566, "pitch": 54, "duration": 74, "velocity": 99}, {"time": 106568, "pitch": 62, "duration": 99, "velocity": 114}, {"time": 106745, "pitch": 54, "duration": 31, "velocity": 46}, {"time": 106798, "pitch": 63, "duration": 80, "velocity": 102}, {"time": 106800, "pitch": 69, "duration": 42, "velocity": 112}, {"time": 106812, "pitch": 54, "duration": 86, "velocity": 85}, {"time": 106952, "pitch": 62, "duration": 73, "velocity": 119}, {"time": 106964, "pitch": 54, "duration": 36, "velocity": 68}, {"time": 107046, "pitch": 54, "duration": 88, "velocity": 95}, {"time": 107169, "pitch": 62, "duration": 50, "velocity": 114}, {"time": 107221, "pitch": 54, "duration": 38, "velocity": 43}, {"time": 107274, "pitch": 63, "duration": 82, "velocity": 100}, {"time": 107283, "pitch": 54, "duration": 93, "velocity": 73}, {"time": 107440, "pitch": 54, "duration": 54, "velocity": 68}, {"time": 107506, "pitch": 62, "duration": 88, "velocity": 122}, {"time": 107535, "pitch": 54, "duration": 80, "velocity": 95}, {"time": 107660, "pitch": 63, "duration": 99, "velocity": 112}, {"time": 107681, "pitch": 54, "duration": 36, "velocity": 62}, {"time": 107751, "pitch": 64, "duration": 150, "velocity": 127}, {"time": 107769, "pitch": 54, "duration": 82, "velocity": 88}, {"time": 107932, "pitch": 54, "duration": 53, "velocity": 60}, {"time": 108002, "pitch": 54, "duration": 83, "velocity": 87}, {"time": 108007, "pitch": 64, "duration": 204, "velocity": 114}, {"time": 108134, "pitch": 54, "duration": 28, "velocity": 59}, {"time": 108232, "pitch": 54, "duration": 83, "velocity": 73}, {"time": 108243, "pitch": 70, "duration": 81, "velocity": 103}, {"time": 108251, "pitch": 63, "duration": 135, "velocity": 91}, {"time": 108385, "pitch": 54, "duration": 27, "velocity": 62}, {"time": 108385, "pitch": 70, "duration": 60, "velocity": 83}, {"time": 108480, "pitch": 62, "duration": 137, "velocity": 119}, {"time": 108482, "pitch": 54, "duration": 77, "velocity": 87}, {"time": 108627, "pitch": 54, "duration": 28, "velocity": 64}, {"time": 108716, "pitch": 64, "duration": 78, "velocity": 98}, {"time": 108719, "pitch": 54, "duration": 78, "velocity": 76}, {"time": 108719, "pitch": 69, "duration": 42, "velocity": 112}, {"time": 108858, "pitch": 54, "duration": 37, "velocity": 66}, {"time": 108861, "pitch": 64, "duration": 106, "velocity": 103}, {"time": 108937, "pitch": 54, "duration": 81, "velocity": 88}, {"time": 109105, "pitch": 64, "duration": 73, "velocity": 94}, {"time": 109107, "pitch": 54, "duration": 32, "velocity": 57}, {"time": 109189, "pitch": 63, "duration": 202, "velocity": 96}, {"time": 109193, "pitch": 54, "duration": 75, "velocity": 76}, {"time": 109339, "pitch": 54, "duration": 32, "velocity": 62}, {"time": 109429, "pitch": 54, "duration": 77, "velocity": 92}, {"time": 109448, "pitch": 62, "duration": 143, "velocity": 119}, {"time": 109603, "pitch": 54, "duration": 32, "velocity": 43}, {"time": 109665, "pitch": 63, "duration": 103, "velocity": 77}, {"time": 109675, "pitch": 54, "duration": 83, "velocity": 70}, {"time": 109817, "pitch": 54, "duration": 26, "velocity": 70}, {"time": 109822, "pitch": 62, "duration": 88, "velocity": 112}, {"time": 109901, "pitch": 54, "duration": 88, "velocity": 95}, {"time": 110076, "pitch": 54, "duration": 34, "velocity": 43}, {"time": 110080, "pitch": 62, "duration": 71, "velocity": 102}, {"time": 110157, "pitch": 63, "duration": 182, "velocity": 98}, {"time": 110162, "pitch": 70, "duration": 82, "velocity": 103}, {"time": 110164, "pitch": 54, "duration": 74, "velocity": 72}, {"time": 110296, "pitch": 54, "duration": 56, "velocity": 71}, {"time": 110304, "pitch": 70, "duration": 60, "velocity": 83}, {"time": 110393, "pitch": 64, "duration": 119, "velocity": 110}, {"time": 110404, "pitch": 54, "duration": 74, "velocity": 99}, {"time": 110583, "pitch": 54, "duration": 32, "velocity": 46}, {"time": 110623, "pitch": 63, "duration": 69, "velocity": 86}, {"time": 110638, "pitch": 69, "duration": 43, "velocity": 112}, {"time": 110650, "pitch": 54, "duration": 86, "velocity": 85}, {"time": 110767, "pitch": 62, "duration": 60, "velocity": 103}, {"time": 110802, "pitch": 54, "duration": 37, "velocity": 68}, {"time": 110877, "pitch": 42, "duration": 105, "velocity": 100}, {"time": 110884, "pitch": 54, "duration": 88, "velocity": 95}, {"time": 111013, "pitch": 62, "duration": 22, "velocity": 96}, {"time": 111060, "pitch": 54, "duration": 37, "velocity": 43}, {"time": 111113, "pitch": 63, "duration": 67, "velocity": 89}, {"time": 111118, "pitch": 42, "duration": 91, "velocity": 96}, {"time": 111121, "pitch": 36, "duration": 241, "velocity": 103}, {"time": 111121, "pitch": 54, "duration": 93, "velocity": 73}, {"time": 111279, "pitch": 54, "duration": 54, "velocity": 68}, {"time": 111356, "pitch": 62, "duration": 98, "velocity": 110}, {"time": 111359, "pitch": 42, "duration": 117, "velocity": 103}, {"time": 111362, "pitch": 40, "duration": 63, "velocity": 79}, {"time": 111373, "pitch": 54, "duration": 80, "velocity": 95}, {"time": 111501, "pitch": 40, "duration": 72, "velocity": 66}, {"time": 111508, "pitch": 64, "duration": 54, "velocity": 103}, {"time": 111519, "pitch": 54, "duration": 37, "velocity": 62}, {"time": 111600, "pitch": 42, "duration": 340, "velocity": 110}, {"time": 111608, "pitch": 54, "duration": 81, "velocity": 88}, {"time": 111610, "pitch": 36, "duration": 324, "velocity": 91}, {"time": 111770, "pitch": 54, "duration": 54, "velocity": 60}, {"time": 111841, "pitch": 49, "duration": 3785, "velocity": 114}, {"time": 111841, "pitch": 54, "duration": 82, "velocity": 87}, {"time": 111846, "pitch": 64, "duration": 203, "velocity": 114}, {"time": 111972, "pitch": 54, "duration": 28, "velocity": 59}, {"time": 112071, "pitch": 54, "duration": 83, "velocity": 73}, {"time": 112082, "pitch": 70, "duration": 81, "velocity": 103}, {"time": 112090, "pitch": 63, "duration": 134, "velocity": 91}, {"time": 112223, "pitch": 54, "duration": 27, "velocity": 62}, {"time": 112223, "pitch": 70, "duration": 60, "velocity": 83}, {"time": 112318, "pitch": 62, "duration": 140, "velocity": 119}, {"time": 112320, "pitch": 54, "duration": 79, "velocity": 87}, {"time": 112468, "pitch": 54, "duration": 28, "velocity": 64}, {"time": 112558, "pitch": 64, "duration": 80, "velocity": 98}, {"time": 112561, "pitch": 54, "duration": 80, "velocity": 76}, {"time": 112561, "pitch": 69, "duration": 43, "velocity": 112}, {"time": 112703, "pitch": 54, "duration": 37, "velocity": 66}, {"time": 112706, "pitch": 64, "duration": 107, "velocity": 103}, {"time": 112783, "pitch": 54, "duration": 80, "velocity": 88}, {"time": 112949, "pitch": 64, "duration": 71, "velocity": 94}, {"time": 112951, "pitch": 54, "duration": 31, "velocity": 57}, {"time": 113031, "pitch": 63, "duration": 199, "velocity": 96}, {"time": 113035, "pitch": 54, "duration": 74, "velocity": 76}, {"time": 113179, "pitch": 54, "duration": 32, "velocity": 62}, {"time": 113267, "pitch": 54, "duration": 77, "velocity": 92}, {"time": 113286, "pitch": 62, "duration": 144, "velocity": 119}, {"time": 113442, "pitch": 54, "duration": 32, "velocity": 43}, {"time": 113503, "pitch": 63, "duration": 103, "velocity": 77}, {"time": 113513, "pitch": 54, "duration": 83, "velocity": 70}, {"time": 113655, "pitch": 54, "duration": 27, "velocity": 70}, {"time": 113661, "pitch": 62, "duration": 88, "velocity": 112}, {"time": 113740, "pitch": 54, "duration": 87, "velocity": 95}, {"time": 113759, "pitch": 63, "duration": 14, "velocity": 108}, {"time": 113818, "pitch": 63, "duration": 56, "velocity": 102}, {"time": 113914, "pitch": 54, "duration": 35, "velocity": 43}, {"time": 113926, "pitch": 63, "duration": 78, "velocity": 100}, {"time": 114001, "pitch": 70, "duration": 81, "velocity": 103}, {"time": 114003, "pitch": 54, "duration": 73, "velocity": 72}, {"time": 114020, "pitch": 62, "duration": 89, "velocity": 122}, {"time": 114134, "pitch": 54, "duration": 56, "velocity": 71}, {"time": 114142, "pitch": 70, "duration": 60, "velocity": 83}, {"time": 114243, "pitch": 54, "duration": 75, "velocity": 99}, {"time": 114245, "pitch": 62, "duration": 101, "velocity": 114}, {"time": 114424, "pitch": 54, "duration": 32, "velocity": 46}, {"time": 114479, "pitch": 63, "duration": 81, "velocity": 102}, {"time": 114481, "pitch": 69, "duration": 43, "velocity": 112}, {"time": 114493, "pitch": 54, "duration": 87, "velocity": 85}, {"time": 114635, "pitch": 62, "duration": 74, "velocity": 119}, {"time": 114647, "pitch": 54, "duration": 37, "velocity": 68}, {"time": 114730, "pitch": 54, "duration": 87, "velocity": 95}, {"time": 114852, "pitch": 62, "duration": 49, "velocity": 114}, {"time": 114903, "pitch": 54, "duration": 37, "velocity": 43}, {"time": 114954, "pitch": 63, "duration": 81, "velocity": 100}, {"time": 114963, "pitch": 54, "duration": 92, "velocity": 73}, {"time": 115118, "pitch": 54, "duration": 54, "velocity": 68}, {"time": 115184, "pitch": 62, "duration": 87, "velocity": 122}, {"time": 115211, "pitch": 54, "duration": 81, "velocity": 95}, {"time": 115337, "pitch": 63, "duration": 99, "velocity": 112}, {"time": 115358, "pitch": 54, "duration": 36, "velocity": 62}, {"time": 115428, "pitch": 64, "duration": 150, "velocity": 127}, {"time": 115446, "pitch": 54, "duration": 82, "velocity": 88}, {"time": 115609, "pitch": 54, "duration": 53, "velocity": 60}, {"time": 115679, "pitch": 54, "duration": 82, "velocity": 87}, {"time": 115684, "pitch": 64, "duration": 204, "velocity": 114}, {"time": 115811, "pitch": 54, "duration": 28, "velocity": 59}, {"time": 115909, "pitch": 54, "duration": 83, "velocity": 73}, {"time": 115920, "pitch": 70, "duration": 81, "velocity": 103}, {"time": 115928, "pitch": 63, "duration": 134, "velocity": 91}, {"time": 116061, "pitch": 54, "duration": 28, "velocity": 62}, {"time": 116061, "pitch": 70, "duration": 61, "velocity": 83}, {"time": 116157, "pitch": 62, "duration": 139, "velocity": 119}, {"time": 116159, "pitch": 54, "duration": 78, "velocity": 87}, {"time": 116306, "pitch": 54, "duration": 28, "velocity": 64}, {"time": 116397, "pitch": 64, "duration": 79, "velocity": 98}, {"time": 116400, "pitch": 54, "duration": 79, "velocity": 76}, {"time": 116400, "pitch": 69, "duration": 43, "velocity": 112}, {"time": 116541, "pitch": 54, "duration": 37, "velocity": 66}, {"time": 116544, "pitch": 64, "duration": 108, "velocity": 103}, {"time": 116622, "pitch": 54, "duration": 81, "velocity": 88}, {"time": 116790, "pitch": 64, "duration": 72, "velocity": 94}, {"time": 116792, "pitch": 54, "duration": 31, "velocity": 57}, {"time": 116873, "pitch": 63, "duration": 202, "velocity": 96}, {"time": 116877, "pitch": 54, "duration": 76, "velocity": 76}, {"time": 117024, "pitch": 54, "duration": 32, "velocity": 62}, {"time": 117113, "pitch": 54, "duration": 76, "velocity": 92}, {"time": 117132, "pitch": 62, "duration": 141, "velocity": 119}, {"time": 117285, "pitch": 54, "duration": 32, "velocity": 43}, {"time": 117345, "pitch": 63, "duration": 102, "velocity": 77}, {"time": 117355, "pitch": 54, "duration": 82, "velocity": 70}, {"time": 117496, "pitch": 54, "duration": 25, "velocity": 70}, {"time": 117501, "pitch": 62, "duration": 86, "velocity": 112}, {"time": 117579, "pitch": 54, "duration": 87, "velocity": 95}, {"time": 117753, "pitch": 54, "duration": 34, "velocity": 43}, {"time": 117757, "pitch": 62, "duration": 71, "velocity": 102}, {"time": 117834, "pitch": 63, "duration": 182, "velocity": 98}, {"time": 117839, "pitch": 70, "duration": 81, "velocity": 103}, {"time": 117841, "pitch": 54, "duration": 73, "velocity": 72}, {"time": 117973, "pitch": 54, "duration": 56, "velocity": 71}, {"time": 117981, "pitch": 70, "duration": 60, "velocity": 83}, {"time": 118070, "pitch": 64, "duration": 120, "velocity": 110}, {"time": 118081, "pitch": 54, "duration": 75, "velocity": 99}, {"time": 118263, "pitch": 54, "duration": 32, "velocity": 46}, {"time": 118304, "pitch": 63, "duration": 69, "velocity": 86}, {"time": 118319, "pitch": 69, "duration": 43, "velocity": 112}, {"time": 118331, "pitch": 54, "duration": 87, "velocity": 85}, {"time": 118449, "pitch": 62, "duration": 62, "velocity": 103}, {"time": 118486, "pitch": 54, "duration": 37, "velocity": 68}, {"time": 118569, "pitch": 54, "duration": 88, "velocity": 95}, {"time": 118697, "pitch": 62, "duration": 22, "velocity": 96}, {"time": 118744, "pitch": 54, "duration": 38, "velocity": 43}, {"time": 118798, "pitch": 63, "duration": 67, "velocity": 89}, {"time": 118806, "pitch": 54, "duration": 93, "velocity": 73}, {"time": 118963, "pitch": 54, "duration": 54, "velocity": 68}, {"time": 119041, "pitch": 62, "duration": 96, "velocity": 110}, {"time": 119057, "pitch": 54, "duration": 79, "velocity": 95}, {"time": 119191, "pitch": 64, "duration": 52, "velocity": 103}, {"time": 119201, "pitch": 54, "duration": 36, "velocity": 62}, {"time": 119288, "pitch": 54, "duration": 80, "velocity": 88}, {"time": 119448, "pitch": 54, "duration": 53, "velocity": 60}, {"time": 119517, "pitch": 54, "duration": 83, "velocity": 87}, {"time": 119522, "pitch": 64, "duration": 204, "velocity": 114}, {"time": 119649, "pitch": 54, "duration": 28, "velocity": 59}, {"time": 119747, "pitch": 54, "duration": 84, "velocity": 73}, {"time": 119758, "pitch": 70, "duration": 82, "velocity": 103}, {"time": 119766, "pitch": 63, "duration": 135, "velocity": 91}, {"time": 119900, "pitch": 54, "duration": 27, "velocity": 62}, {"time": 119900, "pitch": 70, "duration": 60, "velocity": 83}, {"time": 119995, "pitch": 62, "duration": 140, "velocity": 119}, {"time": 119997, "pitch": 54, "duration": 78, "velocity": 87}, {"time": 120145, "pitch": 54, "duration": 28, "velocity": 64}, {"time": 120235, "pitch": 64, "duration": 79, "velocity": 98}, {"time": 120238, "pitch": 54, "duration": 79, "velocity": 76}, {"time": 120238, "pitch": 69, "duration": 43, "velocity": 112}, {"time": 120380, "pitch": 54, "duration": 37, "velocity": 66}, {"time": 120383, "pitch": 64, "duration": 107, "velocity": 103}, {"time": 120460, "pitch": 54, "duration": 81, "velocity": 88}, {"time": 120629, "pitch": 64, "duration": 72, "velocity": 94}, {"time": 120631, "pitch": 54, "duration": 31, "velocity": 57}, {"time": 120712, "pitch": 63, "duration": 202, "velocity": 96}, {"time": 120716, "pitch": 54, "duration": 75, "velocity": 76}, {"time": 120862, "pitch": 54, "duration": 33, "velocity": 62}, {"time": 120952, "pitch": 54, "duration": 77, "velocity": 92}, {"time": 120971, "pitch": 62, "duration": 143, "velocity": 119}, {"time": 121126, "pitch": 54, "duration": 32, "velocity": 43}, {"time": 121188, "pitch": 63, "duration": 103, "velocity": 77}, {"time": 121198, "pitch": 54, "duration": 83, "velocity": 70}, {"time": 121340, "pitch": 54, "duration": 26, "velocity": 70}, {"time": 121345, "pitch": 62, "duration": 88, "velocity": 112}, {"time": 121424, "pitch": 54, "duration": 87, "velocity": 95}, {"time": 121443, "pitch": 63, "duration": 14, "velocity": 108}, {"time": 121502, "pitch": 63, "duration": 55, "velocity": 102}, {"time": 121597, "pitch": 54, "duration": 33, "velocity": 43}, {"time": 121608, "pitch": 63, "duration": 76, "velocity": 100}, {"time": 121681, "pitch": 70, "duration": 80, "velocity": 103}, {"time": 121683, "pitch": 54, "duration": 73, "velocity": 72}, {"time": 121700, "pitch": 62, "duration": 88, "velocity": 122}, {"time": 121813, "pitch": 54, "duration": 55, "velocity": 71}, {"time": 121821, "pitch": 70, "duration": 59, "velocity": 83}, {"time": 121919, "pitch": 54, "duration": 76, "velocity": 99}, {"time": 121921, "pitch": 62, "duration": 102, "velocity": 114}, {"time": 122101, "pitch": 54, "duration": 32, "velocity": 46}, {"time": 122155, "pitch": 63, "duration": 82, "velocity": 102}, {"time": 122157, "pitch": 69, "duration": 43, "velocity": 112}, {"time": 122169, "pitch": 54, "duration": 88, "velocity": 85}, {"time": 122312, "pitch": 62, "duration": 74, "velocity": 119}, {"time": 122324, "pitch": 54, "duration": 37, "velocity": 68}, {"time": 122407, "pitch": 54, "duration": 89, "velocity": 95}, {"time": 122531, "pitch": 62, "duration": 50, "velocity": 114}, {"time": 122583, "pitch": 54, "duration": 37, "velocity": 43}, {"time": 122635, "pitch": 63, "duration": 82, "velocity": 100}, {"time": 122644, "pitch": 54, "duration": 93, "velocity": 73}, {"time": 122802, "pitch": 54, "duration": 54, "velocity": 68}, {"time": 122868, "pitch": 62, "duration": 87, "velocity": 122}, {"time": 122896, "pitch": 54, "duration": 80, "velocity": 95}, {"time": 123021, "pitch": 63, "duration": 100, "velocity": 112}, {"time": 123043, "pitch": 54, "duration": 36, "velocity": 62}, {"time": 123113, "pitch": 64, "duration": 149, "velocity": 127}, {"time": 123131, "pitch": 54, "duration": 81, "velocity": 88}, {"time": 123293, "pitch": 54, "duration": 54, "velocity": 60}, {"time": 123364, "pitch": 54, "duration": 81, "velocity": 87}, {"time": 123369, "pitch": 64, "duration": 200, "velocity": 114}, {"time": 123493, "pitch": 54, "duration": 28, "velocity": 59}, {"time": 123590, "pitch": 54, "duration": 82, "velocity": 73}, {"time": 123601, "pitch": 70, "duration": 80, "velocity": 103}, {"time": 123609, "pitch": 63, "duration": 132, "velocity": 91}, {"time": 123740, "pitch": 54, "duration": 27, "velocity": 62}, {"time": 123740, "pitch": 70, "duration": 59, "velocity": 83}, {"time": 123834, "pitch": 62, "duration": 139, "velocity": 119}, {"time": 123836, "pitch": 54, "duration": 78, "velocity": 87}, {"time": 123983, "pitch": 54, "duration": 28, "velocity": 64}, {"time": 124073, "pitch": 64, "duration": 80, "velocity": 98}, {"time": 124076, "pitch": 54, "duration": 80, "velocity": 76}, {"time": 124076, "pitch": 69, "duration": 44, "velocity": 112}, {"time": 124218, "pitch": 54, "duration": 37, "velocity": 66}, {"time": 124221, "pitch": 64, "duration": 107, "velocity": 103}, {"time": 124298, "pitch": 54, "duration": 82, "velocity": 88}, {"time": 124467, "pitch": 64, "duration": 72, "velocity": 94}, {"time": 124469, "pitch": 54, "duration": 31, "velocity": 57}, {"time": 124550, "pitch": 63, "duration": 202, "velocity": 96}, {"time": 124554, "pitch": 54, "duration": 76, "velocity": 76}, {"time": 124701, "pitch": 54, "duration": 32, "velocity": 62}, {"time": 124790, "pitch": 54, "duration": 77, "velocity": 92}, {"time": 124809, "pitch": 62, "duration": 144, "velocity": 119}, {"time": 124965, "pitch": 54, "duration": 32, "velocity": 43}, {"time": 125026, "pitch": 63, "duration": 103, "velocity": 77}, {"time": 125036, "pitch": 54, "duration": 83, "velocity": 70}, {"time": 125179, "pitch": 54, "duration": 26, "velocity": 70}, {"time": 125184, "pitch": 62, "duration": 88, "velocity": 112}, {"time": 125263, "pitch": 54, "duration": 87, "velocity": 95}, {"time": 125437, "pitch": 54, "duration": 35, "velocity": 43}, {"time": 125441, "pitch": 62, "duration": 72, "velocity": 102}, {"time": 125519, "pitch": 63, "duration": 181, "velocity": 98}, {"time": 125524, "pitch": 70, "duration": 81, "velocity": 103}, {"time": 125526, "pitch": 54, "duration": 73, "velocity": 72}, {"time": 125657, "pitch": 54, "duration": 56, "velocity": 71}, {"time": 125665, "pitch": 70, "duration": 61, "velocity": 83}, {"time": 125755, "pitch": 64, "duration": 118, "velocity": 110}, {"time": 125766, "pitch": 54, "duration": 74, "velocity": 99}, {"time": 125944, "pitch": 54, "duration": 32, "velocity": 46}, {"time": 125985, "pitch": 63, "duration": 68, "velocity": 86}, {"time": 126000, "pitch": 69, "duration": 42, "velocity": 112}, {"time": 126011, "pitch": 54, "duration": 86, "velocity": 85}, {"time": 126128, "pitch": 62, "duration": 60, "velocity": 103}, {"time": 126164, "pitch": 54, "duration": 36, "velocity": 68}, {"time": 126224, "pitch": 40, "duration": 83, "velocity": 103}, {"time": 126239, "pitch": 42, "duration": 104, "velocity": 100}, {"time": 126246, "pitch": 54, "duration": 88, "velocity": 95}, {"time": 126374, "pitch": 62, "duration": 22, "velocity": 96}, {"time": 126421, "pitch": 54, "duration": 37, "velocity": 43}, {"time": 126474, "pitch": 63, "duration": 68, "velocity": 89}, {"time": 126479, "pitch": 42, "duration": 92, "velocity": 96}, {"time": 126482, "pitch": 36, "duration": 241, "velocity": 103}, {"time": 126482, "pitch": 54, "duration": 94, "velocity": 73}, {"time": 126640, "pitch": 54, "duration": 54, "velocity": 68}, {"time": 126717, "pitch": 62, "duration": 99, "velocity": 110}, {"time": 126720, "pitch": 42, "duration": 118, "velocity": 103}, {"time": 126723, "pitch": 40, "duration": 64, "velocity": 79}, {"time": 126734, "pitch": 54, "duration": 81, "velocity": 95}, {"time": 126863, "pitch": 40, "duration": 71, "velocity": 66}, {"time": 126870, "pitch": 64, "duration": 53, "velocity": 103}, {"time": 126881, "pitch": 54, "duration": 36, "velocity": 62}, {"time": 126961, "pitch": 42, "duration": 340, "velocity": 110}, {"time": 126969, "pitch": 54, "duration": 82, "velocity": 88}, {"time": 126971, "pitch": 36, "duration": 324, "velocity": 91}, {"time": 127132, "pitch": 54, "duration": 53, "velocity": 60}, {"time": 127202, "pitch": 49, "duration": 642, "velocity": 96}, {"time": 127202, "pitch": 54, "duration": 82, "velocity": 87}, {"time": 127207, "pitch": 64, "duration": 204, "velocity": 114}, {"time": 127334, "pitch": 54, "duration": 28, "velocity": 59}, {"time": 127432, "pitch": 54, "duration": 83, "velocity": 73}, {"time": 127443, "pitch": 70, "duration": 81, "velocity": 103}, {"time": 127451, "pitch": 63, "duration": 135, "velocity": 91}, {"time": 127585, "pitch": 54, "duration": 27, "velocity": 62}, {"time": 127585, "pitch": 70, "duration": 60, "velocity": 83}, {"time": 127680, "pitch": 62, "duration": 137, "velocity": 119}, {"time": 127682, "pitch": 54, "duration": 77, "velocity": 87}, {"time": 127827, "pitch": 54, "duration": 28, "velocity": 64}, {"time": 127916, "pitch": 64, "duration": 78, "velocity": 98}, {"time": 127919, "pitch": 54, "duration": 78, "velocity": 76}, {"time": 127919, "pitch": 69, "duration": 42, "velocity": 112}, {"time": 127921, "pitch": 49, "duration": 716, "velocity": 98}, {"time": 128058, "pitch": 54, "duration": 37, "velocity": 66}, {"time": 128061, "pitch": 64, "duration": 106, "velocity": 103}, {"time": 128137, "pitch": 54, "duration": 81, "velocity": 88}, {"time": 128305, "pitch": 64, "duration": 73, "velocity": 94}, {"time": 128307, "pitch": 54, "duration": 31, "velocity": 57}, {"time": 128389, "pitch": 63, "duration": 201, "velocity": 96}, {"time": 128393, "pitch": 54, "duration": 75, "velocity": 76}, {"time": 128539, "pitch": 54, "duration": 32, "velocity": 62}, {"time": 128628, "pitch": 54, "duration": 78, "velocity": 92}, {"time": 128648, "pitch": 62, "duration": 143, "velocity": 119}, {"time": 128803, "pitch": 54, "duration": 32, "velocity": 43}, {"time": 128864, "pitch": 63, "duration": 104, "velocity": 77}, {"time": 128874, "pitch": 54, "duration": 84, "velocity": 70}, {"time": 128880, "pitch": 49, "duration": 789, "velocity": 91}, {"time": 129017, "pitch": 54, "duration": 26, "velocity": 70}, {"time": 129022, "pitch": 62, "duration": 88, "velocity": 112}, {"time": 129101, "pitch": 54, "duration": 88, "velocity": 95}, {"time": 129120, "pitch": 63, "duration": 14, "velocity": 108}, {"time": 129180, "pitch": 63, "duration": 56, "velocity": 102}, {"time": 129276, "pitch": 54, "duration": 34, "velocity": 43}, {"time": 129288, "pitch": 63, "duration": 77, "velocity": 100}, {"time": 129362, "pitch": 70, "duration": 81, "velocity": 103}, {"time": 129364, "pitch": 54, "duration": 73, "velocity": 72}, {"time": 129381, "pitch": 62, "duration": 90, "velocity": 122}, {"time": 129496, "pitch": 54, "duration": 56, "velocity": 71}, {"time": 129504, "pitch": 70, "duration": 60, "velocity": 83}, {"time": 129604, "pitch": 54, "duration": 75, "velocity": 99}, {"time": 129606, "pitch": 62, "duration": 101, "velocity": 114}, {"time": 129786, "pitch": 54, "duration": 32, "velocity": 46}, {"time": 129840, "pitch": 63, "duration": 81, "velocity": 102}, {"time": 129842, "pitch": 69, "duration": 43, "velocity": 112}, {"time": 129844, "pitch": 49, "duration": 1022, "velocity": 92}, {"time": 129854, "pitch": 54, "duration": 87, "velocity": 85}, {"time": 129997, "pitch": 62, "duration": 74, "velocity": 119}, {"time": 130009, "pitch": 54, "duration": 37, "velocity": 68}, {"time": 130092, "pitch": 54, "duration": 87, "velocity": 95}, {"time": 130213, "pitch": 62, "duration": 49, "velocity": 114}, {"time": 130264, "pitch": 54, "duration": 37, "velocity": 43}, {"time": 130316, "pitch": 63, "duration": 81, "velocity": 100}, {"time": 130325, "pitch": 54, "duration": 92, "velocity": 73}, {"time": 130480, "pitch": 54, "duration": 53, "velocity": 68}, {"time": 130545, "pitch": 62, "duration": 87, "velocity": 122}, {"time": 130573, "pitch": 54, "duration": 80, "velocity": 95}, {"time": 130698, "pitch": 63, "duration": 100, "velocity": 112}, {"time": 130719, "pitch": 54, "duration": 36, "velocity": 62}, {"time": 130790, "pitch": 64, "duration": 149, "velocity": 127}, {"time": 130808, "pitch": 54, "duration": 81, "velocity": 88}, {"time": 130970, "pitch": 54, "duration": 53, "velocity": 60}, {"time": 131040, "pitch": 49, "duration": 622, "velocity": 94}, {"time": 131040, "pitch": 54, "duration": 83, "velocity": 87}, {"time": 131046, "pitch": 64, "duration": 203, "velocity": 114}, {"time": 131172, "pitch": 54, "duration": 28, "velocity": 59}, {"time": 131270, "pitch": 54, "duration": 84, "velocity": 73}, {"time": 131281, "pitch": 70, "duration": 82, "velocity": 103}, {"time": 131289, "pitch": 63, "duration": 135, "velocity": 91}, {"time": 131423, "pitch": 54, "duration": 27, "velocity": 62}, {"time": 131423, "pitch": 70, "duration": 60, "velocity": 83}, {"time": 131518, "pitch": 62, "duration": 140, "velocity": 119}, {"time": 131520, "pitch": 54, "duration": 79, "velocity": 87}, {"time": 131668, "pitch": 54, "duration": 28, "velocity": 64}, {"time": 131758, "pitch": 64, "duration": 79, "velocity": 98}, {"time": 131761, "pitch": 54, "duration": 79, "velocity": 76}, {"time": 131761, "pitch": 69, "duration": 43, "velocity": 112}, {"time": 131763, "pitch": 49, "duration": 807, "velocity": 98}, {"time": 131903, "pitch": 54, "duration": 37, "velocity": 66}, {"time": 131906, "pitch": 64, "duration": 107, "velocity": 103}, {"time": 131983, "pitch": 54, "duration": 80, "velocity": 88}, {"time": 132149, "pitch": 64, "duration": 71, "velocity": 94}, {"time": 132151, "pitch": 54, "duration": 31, "velocity": 57}, {"time": 132231, "pitch": 63, "duration": 199, "velocity": 96}, {"time": 132235, "pitch": 54, "duration": 74, "velocity": 76}, {"time": 132379, "pitch": 54, "duration": 32, "velocity": 62}, {"time": 132467, "pitch": 54, "duration": 77, "velocity": 92}, {"time": 132486, "pitch": 62, "duration": 143, "velocity": 119}, {"time": 132642, "pitch": 54, "duration": 32, "velocity": 43}, {"time": 132703, "pitch": 63, "duration": 103, "velocity": 77}, {"time": 132713, "pitch": 54, "duration": 83, "velocity": 70}, {"time": 132719, "pitch": 49, "duration": 812, "velocity": 94}, {"time": 132855, "pitch": 54, "duration": 26, "velocity": 70}, {"time": 132860, "pitch": 62, "duration": 89, "velocity": 112}, {"time": 132940, "pitch": 54, "duration": 87, "velocity": 95}, {"time": 133114, "pitch": 54, "duration": 34, "velocity": 43}, {"time": 133118, "pitch": 62, "duration": 72, "velocity": 102}, {"time": 133196, "pitch": 63, "duration": 181, "velocity": 98}, {"time": 133201, "pitch": 70, "duration": 81, "velocity": 103}, {"time": 133203, "pitch": 54, "duration": 73, "velocity": 72}, {"time": 133334, "pitch": 54, "duration": 56, "velocity": 71}, {"time": 133342, "pitch": 70, "duration": 60, "velocity": 83}, {"time": 133431, "pitch": 64, "duration": 121, "velocity": 110}, {"time": 133442, "pitch": 54, "duration": 76, "velocity": 99}, {"time": 133624, "pitch": 54, "duration": 32, "velocity": 46}, {"time": 133665, "pitch": 63, "duration": 70, "velocity": 86}, {"time": 133680, "pitch": 69, "duration": 43, "velocity": 112}, {"time": 133682, "pitch": 49, "duration": 777, "velocity": 96}, {"time": 133692, "pitch": 54, "duration": 88, "velocity": 85}, {"time": 133811, "pitch": 62, "duration": 61, "velocity": 103}, {"time": 133847, "pitch": 54, "duration": 37, "velocity": 68}, {"time": 133930, "pitch": 54, "duration": 87, "velocity": 95}, {"time": 134056, "pitch": 62, "duration": 22, "velocity": 96}, {"time": 134103, "pitch": 54, "duration": 36, "velocity": 43}, {"time": 134155, "pitch": 63, "duration": 66, "velocity": 89}, {"time": 134163, "pitch": 54, "duration": 92, "velocity": 73}, {"time": 134318, "pitch": 54, "duration": 53, "velocity": 68}, {"time": 134394, "pitch": 62, "duration": 98, "velocity": 110}, {"time": 134411, "pitch": 54, "duration": 80, "velocity": 95}, {"time": 134547, "pitch": 64, "duration": 53, "velocity": 103}, {"time": 134558, "pitch": 54, "duration": 36, "velocity": 62}, {"time": 134646, "pitch": 54, "duration": 81, "velocity": 88}, {"time": 134809, "pitch": 54, "duration": 53, "velocity": 60}, {"time": 134879, "pitch": 49, "duration": 603, "velocity": 91}, {"time": 134879, "pitch": 54, "duration": 82, "velocity": 87}, {"time": 134884, "pitch": 64, "duration": 204, "velocity": 114}, {"time": 135010, "pitch": 54, "duration": 28, "velocity": 59}, {"time": 135109, "pitch": 54, "duration": 83, "velocity": 73}, {"time": 135120, "pitch": 70, "duration": 81, "velocity": 103}, {"time": 135128, "pitch": 63, "duration": 134, "velocity": 91}, {"time": 135261, "pitch": 54, "duration": 27, "velocity": 62}, {"time": 135261, "pitch": 70, "duration": 60, "velocity": 83}, {"time": 135357, "pitch": 62, "duration": 139, "velocity": 119}, {"time": 135359, "pitch": 54, "duration": 78, "velocity": 87}, {"time": 135506, "pitch": 54, "duration": 28, "velocity": 64}, {"time": 135597, "pitch": 64, "duration": 79, "velocity": 98}, {"time": 135600, "pitch": 54, "duration": 79, "velocity": 76}, {"time": 135600, "pitch": 69, "duration": 43, "velocity": 112}, {"time": 135602, "pitch": 49, "duration": 753, "velocity": 88}, {"time": 135741, "pitch": 54, "duration": 37, "velocity": 66}, {"time": 135744, "pitch": 64, "duration": 107, "velocity": 103}, {"time": 135821, "pitch": 54, "duration": 82, "velocity": 88}, {"time": 135990, "pitch": 64, "duration": 72, "velocity": 94}, {"time": 135992, "pitch": 54, "duration": 31, "velocity": 57}, {"time": 136073, "pitch": 63, "duration": 202, "velocity": 96}, {"time": 136077, "pitch": 54, "duration": 76, "velocity": 76}, {"time": 136224, "pitch": 54, "duration": 32, "velocity": 62}, {"time": 136313, "pitch": 54, "duration": 76, "velocity": 92}, {"time": 136332, "pitch": 62, "duration": 141, "velocity": 119}, {"time": 136485, "pitch": 54, "duration": 32, "velocity": 43}, {"time": 136545, "pitch": 63, "duration": 102, "velocity": 77}, {"time": 136555, "pitch": 54, "duration": 82, "velocity": 70}, {"time": 136561, "pitch": 49, "duration": 768, "velocity": 100}, {"time": 136695, "pitch": 54, "duration": 26, "velocity": 70}, {"time": 136700, "pitch": 62, "duration": 87, "velocity": 112}, {"time": 136778, "pitch": 54, "duration": 87, "velocity": 95}, {"time": 136797, "pitch": 63, "duration": 14, "velocity": 108}, {"time": 136856, "pitch": 63, "duration": 56, "velocity": 102}, {"time": 136953, "pitch": 54, "duration": 34, "velocity": 43}, {"time": 136965, "pitch": 63, "duration": 77, "velocity": 100}, {"time": 137039, "pitch": 70, "duration": 81, "velocity": 103}, {"time": 137041, "pitch": 54, "duration": 73, "velocity": 72}, {"time": 137058, "pitch": 62, "duration": 89, "velocity": 122}, {"time": 137172, "pitch": 54, "duration": 57, "velocity": 71}, {"time": 137180, "pitch": 70, "duration": 61, "velocity": 83}, {"time": 137281, "pitch": 54, "duration": 75, "velocity": 99}, {"time": 137283, "pitch": 62, "duration": 101, "velocity": 114}, {"time": 137463, "pitch": 54, "duration": 32, "velocity": 46}, {"time": 137517, "pitch": 63, "duration": 81, "velocity": 102}, {"time": 137519, "pitch": 69, "duration": 43, "velocity": 112}, {"time": 137521, "pitch": 49, "duration": 778, "velocity": 103}, {"time": 137531, "pitch": 54, "duration": 87, "velocity": 85}, {"time": 137673, "pitch": 62, "duration": 75, "velocity": 119}, {"time": 137685, "pitch": 54, "duration": 37, "velocity": 68}, {"time": 137769, "pitch": 54, "duration": 88, "velocity": 95}, {"time": 137892, "pitch": 62, "duration": 50, "velocity": 114}, {"time": 137944, "pitch": 54, "duration": 37, "velocity": 43}, {"time": 137996, "pitch": 63, "duration": 83, "velocity": 100}, {"time": 138005, "pitch": 54, "duration": 94, "velocity": 73}, {"time": 138163, "pitch": 54, "duration": 54, "velocity": 68}, {"time": 138229, "pitch": 62, "duration": 86, "velocity": 122}, {"time": 138257, "pitch": 54, "duration": 79, "velocity": 95}, {"time": 138381, "pitch": 63, "duration": 97, "velocity": 112}, {"time": 138401, "pitch": 54, "duration": 36, "velocity": 62}, {"time": 138470, "pitch": 64, "duration": 148, "velocity": 127}, {"time": 138488, "pitch": 54, "duration": 80, "velocity": 88}, {"time": 138648, "pitch": 54, "duration": 53, "velocity": 60}, {"time": 138717, "pitch": 49, "duration": 227, "velocity": 102}, {"time": 138717, "pitch": 54, "duration": 83, "velocity": 87}, {"time": 138722, "pitch": 64, "duration": 204, "velocity": 114}, {"time": 138849, "pitch": 54, "duration": 28, "velocity": 59}, {"time": 138947, "pitch": 54, "duration": 83, "velocity": 73}, {"time": 138958, "pitch": 51, "duration": 83, "velocity": 67}, {"time": 138958, "pitch": 70, "duration": 81, "velocity": 103}, {"time": 138966, "pitch": 63, "duration": 135, "velocity": 91}, {"time": 139100, "pitch": 54, "duration": 27, "velocity": 62}, {"time": 139100, "pitch": 70, "duration": 60, "velocity": 83}, {"time": 139195, "pitch": 62, "duration": 140, "velocity": 119}, {"time": 139197, "pitch": 54, "duration": 78, "velocity": 87}, {"time": 139199, "pitch": 51, "duration": 170, "velocity": 88}, {"time": 139345, "pitch": 54, "duration": 28, "velocity": 64}, {"time": 139435, "pitch": 64, "duration": 79, "velocity": 98}, {"time": 139438, "pitch": 54, "duration": 79, "velocity": 76}, {"time": 139438, "pitch": 69, "duration": 43, "velocity": 112}, {"time": 139440, "pitch": 51, "duration": 53, "velocity": 49}, {"time": 139570, "pitch": 51, "duration": 255, "velocity": 88}, {"time": 139579, "pitch": 54, "duration": 38, "velocity": 66}, {"time": 139582, "pitch": 64, "duration": 108, "velocity": 103}, {"time": 139660, "pitch": 54, "duration": 81, "velocity": 88}, {"time": 139828, "pitch": 64, "duration": 73, "velocity": 94}, {"time": 139830, "pitch": 54, "duration": 31, "velocity": 57}, {"time": 139912, "pitch": 63, "duration": 201, "velocity": 96}, {"time": 139916, "pitch": 54, "duration": 75, "velocity": 76}, {"time": 139922, "pitch": 51, "duration": 91, "velocity": 67}, {"time": 140062, "pitch": 54, "duration": 32, "velocity": 62}, {"time": 140152, "pitch": 54, "duration": 77, "velocity": 92}, {"time": 140163, "pitch": 51, "duration": 124, "velocity": 103}, {"time": 140171, "pitch": 62, "duration": 143, "velocity": 119}, {"time": 140326, "pitch": 54, "duration": 32, "velocity": 43}, {"time": 140387, "pitch": 63, "duration": 104, "velocity": 77}, {"time": 140397, "pitch": 54, "duration": 84, "velocity": 70}, {"time": 140403, "pitch": 51, "duration": 76, "velocity": 63}, {"time": 140540, "pitch": 54, "duration": 26, "velocity": 70}, {"time": 140545, "pitch": 62, "duration": 88, "velocity": 112}, {"time": 140624, "pitch": 54, "duration": 86, "velocity": 95}, {"time": 140644, "pitch": 51, "duration": 104, "velocity": 98}, {"time": 140796, "pitch": 54, "duration": 34, "velocity": 43}, {"time": 140800, "pitch": 62, "duration": 70, "velocity": 102}, {"time": 140876, "pitch": 63, "duration": 179, "velocity": 98}, {"time": 140881, "pitch": 51, "duration": 68, "velocity": 73}, {"time": 140881, "pitch": 70, "duration": 80, "velocity": 103}, {"time": 140883, "pitch": 54, "duration": 72, "velocity": 72}, {"time": 141013, "pitch": 54, "duration": 55, "velocity": 71}, {"time": 141020, "pitch": 70, "duration": 60, "velocity": 83}, {"time": 141108, "pitch": 64, "duration": 121, "velocity": 110}, {"time": 141118, "pitch": 51, "duration": 152, "velocity": 100}, {"time": 141119, "pitch": 54, "duration": 76, "velocity": 99}, {"time": 141301, "pitch": 54, "duration": 32, "velocity": 46}, {"time": 141342, "pitch": 63, "duration": 69, "velocity": 86}, {"time": 141357, "pitch": 69, "duration": 43, "velocity": 112}, {"time": 141359, "pitch": 51, "duration": 62, "velocity": 50}, {"time": 141369, "pitch": 54, "duration": 87, "velocity": 85}, {"time": 141488, "pitch": 62, "duration": 61, "velocity": 103}, {"time": 141490, "pitch": 51, "duration": 30, "velocity": 72}, {"time": 141524, "pitch": 54, "duration": 37, "velocity": 68}, {"time": 141600, "pitch": 51, "duration": 158, "velocity": 88}, {"time": 141607, "pitch": 54, "duration": 88, "velocity": 95}, {"time": 141735, "pitch": 62, "duration": 23, "velocity": 96}, {"time": 141783, "pitch": 54, "duration": 37, "velocity": 43}, {"time": 141836, "pitch": 63, "duration": 67, "velocity": 89}, {"time": 141841, "pitch": 51, "duration": 80, "velocity": 50}, {"time": 141844, "pitch": 54, "duration": 93, "velocity": 73}, {"time": 142001, "pitch": 54, "duration": 55, "velocity": 68}, {"time": 142079, "pitch": 62, "duration": 98, "velocity": 110}, {"time": 142082, "pitch": 51, "duration": 125, "velocity": 102}, {"time": 142096, "pitch": 54, "duration": 80, "velocity": 95}, {"time": 142231, "pitch": 64, "duration": 53, "velocity": 103}, {"time": 142242, "pitch": 54, "duration": 36, "velocity": 62}, {"time": 142323, "pitch": 51, "duration": 62, "velocity": 79}, {"time": 142331, "pitch": 54, "duration": 81, "velocity": 88}, {"time": 142493, "pitch": 54, "duration": 53, "velocity": 60}, {"time": 142563, "pitch": 49, "duration": 219, "velocity": 103}, {"time": 142563, "pitch": 54, "duration": 81, "velocity": 87}, {"time": 142568, "pitch": 64, "duration": 201, "velocity": 114}, {"time": 142693, "pitch": 54, "duration": 27, "velocity": 59}, {"time": 142790, "pitch": 54, "duration": 82, "velocity": 73}, {"time": 142800, "pitch": 70, "duration": 80, "velocity": 103}, {"time": 142801, "pitch": 51, "duration": 50, "velocity": 74}, {"time": 142808, "pitch": 63, "duration": 133, "velocity": 91}, {"time": 142940, "pitch": 54, "duration": 26, "velocity": 62}, {"time": 142940, "pitch": 70, "duration": 59, "velocity": 83}, {"time": 143034, "pitch": 62, "duration": 139, "velocity": 119}, {"time": 143035, "pitch": 54, "duration": 79, "velocity": 87}, {"time": 143037, "pitch": 51, "duration": 129, "velocity": 98}, {"time": 143183, "pitch": 54, "duration": 28, "velocity": 64}, {"time": 143273, "pitch": 64, "duration": 80, "velocity": 98}, {"time": 143276, "pitch": 54, "duration": 80, "velocity": 76}, {"time": 143276, "pitch": 69, "duration": 43, "velocity": 112}, {"time": 143278, "pitch": 51, "duration": 44, "velocity": 50}, {"time": 143409, "pitch": 51, "duration": 217, "velocity": 85}, {"time": 143418, "pitch": 54, "duration": 37, "velocity": 66}, {"time": 143421, "pitch": 64, "duration": 107, "velocity": 103}, {"time": 143498, "pitch": 54, "duration": 81, "velocity": 88}, {"time": 143667, "pitch": 64, "duration": 72, "velocity": 94}, {"time": 143669, "pitch": 54, "duration": 31, "velocity": 57}, {"time": 143750, "pitch": 63, "duration": 202, "velocity": 96}, {"time": 143754, "pitch": 54, "duration": 75, "velocity": 76}, {"time": 143760, "pitch": 51, "duration": 66, "velocity": 82}, {"time": 143901, "pitch": 54, "duration": 32, "velocity": 62}, {"time": 143990, "pitch": 54, "duration": 77, "velocity": 92}, {"time": 144001, "pitch": 51, "duration": 124, "velocity": 105}, {"time": 144009, "pitch": 62, "duration": 144, "velocity": 119}, {"time": 144165, "pitch": 54, "duration": 32, "velocity": 43}, {"time": 144226, "pitch": 63, "duration": 103, "velocity": 77}, {"time": 144236, "pitch": 54, "duration": 83, "velocity": 70}, {"time": 144242, "pitch": 51, "duration": 66, "velocity": 69}, {"time": 144378, "pitch": 54, "duration": 26, "velocity": 70}, {"time": 144383, "pitch": 62, "duration": 89, "velocity": 112}, {"time": 144463, "pitch": 54, "duration": 87, "velocity": 95}, {"time": 144482, "pitch": 63, "duration": 14, "velocity": 108}, {"time": 144484, "pitch": 51, "duration": 91, "velocity": 98}, {"time": 144541, "pitch": 63, "duration": 56, "velocity": 102}, {"time": 144637, "pitch": 54, "duration": 34, "velocity": 43}, {"time": 144649, "pitch": 63, "duration": 78, "velocity": 100}, {"time": 144724, "pitch": 51, "duration": 75, "velocity": 70}, {"time": 144724, "pitch": 70, "duration": 81, "velocity": 103}, {"time": 144726, "pitch": 54, "duration": 73, "velocity": 72}, {"time": 144743, "pitch": 62, "duration": 89, "velocity": 122}, {"time": 144857, "pitch": 54, "duration": 56, "velocity": 71}, {"time": 144865, "pitch": 70, "duration": 60, "velocity": 83}, {"time": 144964, "pitch": 51, "duration": 132, "velocity": 100}, {"time": 144965, "pitch": 54, "duration": 74, "velocity": 99}, {"time": 144967, "pitch": 62, "duration": 100, "velocity": 114}, {"time": 145144, "pitch": 54, "duration": 32, "velocity": 46}, {"time": 145197, "pitch": 63, "duration": 80, "velocity": 102}, {"time": 145199, "pitch": 69, "duration": 43, "velocity": 112}, {"time": 145201, "pitch": 51, "duration": 64, "velocity": 74}, {"time": 145211, "pitch": 54, "duration": 86, "velocity": 85}, {"time": 145352, "pitch": 62, "duration": 73, "velocity": 119}, {"time": 145363, "pitch": 54, "duration": 37, "velocity": 68}, {"time": 145438, "pitch": 51, "duration": 85, "velocity": 82}, {"time": 145445, "pitch": 54, "duration": 89, "velocity": 95}, {"time": 145569, "pitch": 62, "duration": 50, "velocity": 114}, {"time": 145621, "pitch": 54, "duration": 37, "velocity": 43}, {"time": 145673, "pitch": 63, "duration": 83, "velocity": 100}, {"time": 145680, "pitch": 51, "duration": 58, "velocity": 83}, {"time": 145682, "pitch": 54, "duration": 94, "velocity": 73}, {"time": 145840, "pitch": 54, "duration": 54, "velocity": 68}, {"time": 145906, "pitch": 62, "duration": 87, "velocity": 122}, {"time": 145921, "pitch": 51, "duration": 92, "velocity": 107}, {"time": 145934, "pitch": 54, "duration": 80, "velocity": 95}, {"time": 146060, "pitch": 63, "duration": 99, "velocity": 112}, {"time": 146081, "pitch": 54, "duration": 36, "velocity": 62}, {"time": 146151, "pitch": 64, "duration": 150, "velocity": 127}, {"time": 146161, "pitch": 51, "duration": 44, "velocity": 72}, {"time": 146169, "pitch": 54, "duration": 81, "velocity": 88}, {"time": 146292, "pitch": 51, "duration": 28, "velocity": 80}, {"time": 146332, "pitch": 54, "duration": 53, "velocity": 60}, {"time": 146402, "pitch": 49, "duration": 140, "velocity": 103}, {"time": 146402, "pitch": 54, "duration": 82, "velocity": 87}, {"time": 146407, "pitch": 64, "duration": 204, "velocity": 114}, {"time": 146533, "pitch": 54, "duration": 28, "velocity": 59}, {"time": 146632, "pitch": 54, "duration": 83, "velocity": 73}, {"time": 146643, "pitch": 51, "duration": 30, "velocity": 67}, {"time": 146643, "pitch": 70, "duration": 81, "velocity": 103}, {"time": 146651, "pitch": 63, "duration": 134, "velocity": 91}, {"time": 146784, "pitch": 54, "duration": 27, "velocity": 62}, {"time": 146784, "pitch": 70, "duration": 61, "velocity": 83}, {"time": 146880, "pitch": 62, "duration": 137, "velocity": 119}, {"time": 146882, "pitch": 54, "duration": 77, "velocity": 87}, {"time": 146884, "pitch": 51, "duration": 91, "velocity": 100}, {"time": 147027, "pitch": 54, "duration": 27, "velocity": 64}, {"time": 147116, "pitch": 64, "duration": 78, "velocity": 98}, {"time": 147119, "pitch": 54, "duration": 78, "velocity": 76}, {"time": 147119, "pitch": 69, "duration": 42, "velocity": 112}, {"time": 147121, "pitch": 51, "duration": 46, "velocity": 42}, {"time": 147249, "pitch": 51, "duration": 30, "velocity": 84}, {"time": 147258, "pitch": 54, "duration": 36, "velocity": 66}, {"time": 147261, "pitch": 64, "duration": 106, "velocity": 103}, {"time": 147337, "pitch": 54, "duration": 81, "velocity": 88}, {"time": 147358, "pitch": 51, "duration": 121, "velocity": 86}, {"time": 147505, "pitch": 64, "duration": 72, "velocity": 94}, {"time": 147507, "pitch": 54, "duration": 31, "velocity": 57}, {"time": 147588, "pitch": 63, "duration": 202, "velocity": 96}, {"time": 147592, "pitch": 54, "duration": 76, "velocity": 76}, {"time": 147598, "pitch": 51, "duration": 53, "velocity": 66}, {"time": 147739, "pitch": 54, "duration": 32, "velocity": 62}, {"time": 147828, "pitch": 54, "duration": 78, "velocity": 92}, {"time": 147839, "pitch": 51, "duration": 87, "velocity": 105}, {"time": 147847, "pitch": 62, "duration": 144, "velocity": 119}, {"time": 148003, "pitch": 54, "duration": 32, "velocity": 43}, {"time": 148064, "pitch": 63, "duration": 104, "velocity": 77}, {"time": 148074, "pitch": 54, "duration": 84, "velocity": 70}, {"time": 148080, "pitch": 51, "duration": 62, "velocity": 74}, {"time": 148217, "pitch": 54, "duration": 26, "velocity": 70}, {"time": 148222, "pitch": 62, "duration": 88, "velocity": 112}, {"time": 148301, "pitch": 54, "duration": 87, "velocity": 95}, {"time": 148321, "pitch": 51, "duration": 90, "velocity": 100}, {"time": 148476, "pitch": 54, "duration": 34, "velocity": 43}, {"time": 148480, "pitch": 62, "duration": 71, "velocity": 102}, {"time": 148557, "pitch": 63, "duration": 182, "velocity": 98}, {"time": 148562, "pitch": 51, "duration": 60, "velocity": 83}, {"time": 148562, "pitch": 70, "duration": 81, "velocity": 103}, {"time": 148564, "pitch": 54, "duration": 73, "velocity": 72}, {"time": 148695, "pitch": 54, "duration": 57, "velocity": 71}, {"time": 148704, "pitch": 70, "duration": 60, "velocity": 83}, {"time": 148793, "pitch": 64, "duration": 120, "velocity": 110}, {"time": 148803, "pitch": 51, "duration": 86, "velocity": 102}, {"time": 148804, "pitch": 54, "duration": 75, "velocity": 99}, {"time": 148986, "pitch": 54, "duration": 32, "velocity": 46}, {"time": 149027, "pitch": 63, "duration": 69, "velocity": 86}, {"time": 149042, "pitch": 69, "duration": 43, "velocity": 112}, {"time": 149044, "pitch": 51, "duration": 61, "velocity": 74}, {"time": 149054, "pitch": 54, "duration": 87, "velocity": 85}, {"time": 149172, "pitch": 62, "duration": 61, "velocity": 103}, {"time": 149208, "pitch": 54, "duration": 37, "velocity": 68}, {"time": 149285, "pitch": 51, "duration": 64, "velocity": 94}, {"time": 149291, "pitch": 54, "duration": 87, "velocity": 95}, {"time": 149418, "pitch": 62, "duration": 22, "velocity": 96}, {"time": 149464, "pitch": 54, "duration": 37, "velocity": 43}, {"time": 149517, "pitch": 63, "duration": 66, "velocity": 89}, {"time": 149522, "pitch": 51, "duration": 72, "velocity": 89}, {"time": 149525, "pitch": 54, "duration": 91, "velocity": 73}, {"time": 149680, "pitch": 54, "duration": 53, "velocity": 68}, {"time": 149756, "pitch": 62, "duration": 98, "velocity": 110}, {"time": 149759, "pitch": 51, "duration": 71, "velocity": 103}, {"time": 149773, "pitch": 54, "duration": 80, "velocity": 95}, {"time": 149908, "pitch": 64, "duration": 53, "velocity": 103}, {"time": 149919, "pitch": 54, "duration": 36, "velocity": 62}, {"time": 149999, "pitch": 51, "duration": 75, "velocity": 88}, {"time": 150007, "pitch": 54, "duration": 82, "velocity": 88}, {"time": 150170, "pitch": 54, "duration": 53, "velocity": 60}, {"time": 150240, "pitch": 49, "duration": 122, "velocity": 102}, {"time": 150240, "pitch": 54, "duration": 83, "velocity": 87}, {"time": 150245, "pitch": 64, "duration": 204, "velocity": 114}, {"time": 150372, "pitch": 54, "duration": 28, "velocity": 59}, {"time": 150470, "pitch": 54, "duration": 83, "velocity": 73}, {"time": 150481, "pitch": 70, "duration": 81, "velocity": 103}, {"time": 150482, "pitch": 51, "duration": 62, "velocity": 88}, {"time": 150489, "pitch": 63, "duration": 135, "velocity": 91}, {"time": 150623, "pitch": 54, "duration": 27, "velocity": 62}, {"time": 150623, "pitch": 70, "duration": 60, "velocity": 83}, {"time": 150718, "pitch": 62, "duration": 140, "velocity": 119}, {"time": 150720, "pitch": 54, "duration": 78, "velocity": 87}, {"time": 150722, "pitch": 51, "duration": 76, "velocity": 88}, {"time": 150868, "pitch": 54, "duration": 28, "velocity": 64}, {"time": 150958, "pitch": 64, "duration": 79, "velocity": 98}, {"time": 150961, "pitch": 54, "duration": 79, "velocity": 76}, {"time": 150961, "pitch": 69, "duration": 43, "velocity": 112}, {"time": 150963, "pitch": 51, "duration": 53, "velocity": 72}, {"time": 151102, "pitch": 54, "duration": 38, "velocity": 66}, {"time": 151105, "pitch": 64, "duration": 108, "velocity": 103}, {"time": 151183, "pitch": 54, "duration": 80, "velocity": 88}, {"time": 151204, "pitch": 51, "duration": 64, "velocity": 88}, {"time": 151349, "pitch": 64, "duration": 71, "velocity": 94}, {"time": 151351, "pitch": 54, "duration": 31, "velocity": 57}, {"time": 151431, "pitch": 63, "duration": 198, "velocity": 96}, {"time": 151435, "pitch": 54, "duration": 74, "velocity": 76}, {"time": 151441, "pitch": 51, "duration": 42, "velocity": 70}, {"time": 151579, "pitch": 54, "duration": 32, "velocity": 62}, {"time": 151667, "pitch": 54, "duration": 77, "velocity": 92}, {"time": 151678, "pitch": 51, "duration": 91, "velocity": 96}, {"time": 151686, "pitch": 62, "duration": 143, "velocity": 119}, {"time": 151841, "pitch": 54, "duration": 32, "velocity": 43}, {"time": 151903, "pitch": 63, "duration": 103, "velocity": 77}, {"time": 151913, "pitch": 54, "duration": 83, "velocity": 70}, {"time": 151919, "pitch": 51, "duration": 54, "velocity": 68}, {"time": 152055, "pitch": 54, "duration": 26, "velocity": 70}, {"time": 152060, "pitch": 62, "duration": 88, "velocity": 112}, {"time": 152139, "pitch": 54, "duration": 88, "velocity": 95}, {"time": 152158, "pitch": 63, "duration": 15, "velocity": 108}, {"time": 152160, "pitch": 51, "duration": 68, "velocity": 94}, {"time": 152218, "pitch": 63, "duration": 56, "velocity": 102}, {"time": 152314, "pitch": 54, "duration": 34, "velocity": 43}, {"time": 152326, "pitch": 63, "duration": 77, "velocity": 100}, {"time": 152400, "pitch": 51, "duration": 66, "velocity": 81}, {"time": 152400, "pitch": 70, "duration": 82, "velocity": 103}, {"time": 152402, "pitch": 54, "duration": 74, "velocity": 72}, {"time": 152419, "pitch": 62, "duration": 90, "velocity": 122}, {"time": 152534, "pitch": 54, "duration": 56, "velocity": 71}, {"time": 152542, "pitch": 70, "duration": 60, "velocity": 83}, {"time": 152641, "pitch": 51, "duration": 75, "velocity": 92}, {"time": 152642, "pitch": 54, "duration": 76, "velocity": 99}, {"time": 152644, "pitch": 62, "duration": 102, "velocity": 114}, {"time": 152824, "pitch": 54, "duration": 32, "velocity": 46}, {"time": 152878, "pitch": 63, "duration": 81, "velocity": 102}, {"time": 152880, "pitch": 69, "duration": 43, "velocity": 112}, {"time": 152882, "pitch": 51, "duration": 54, "velocity": 66}, {"time": 152892, "pitch": 54, "duration": 87, "velocity": 85}, {"time": 153035, "pitch": 62, "duration": 74, "velocity": 119}, {"time": 153047, "pitch": 54, "duration": 37, "velocity": 68}, {"time": 153122, "pitch": 62, "duration": 39, "velocity": 110}, {"time": 153122, "pitch": 64, "duration": 41, "velocity": 107}, {"time": 153123, "pitch": 40, "duration": 71, "velocity": 100}, {"time": 153123, "pitch": 51, "duration": 71, "velocity": 100}, {"time": 153130, "pitch": 54, "duration": 88, "velocity": 95}, {"time": 153306, "pitch": 54, "duration": 37, "velocity": 43}, {"time": 153350, "pitch": 64, "duration": 136, "velocity": 117}, {"time": 153352, "pitch": 62, "duration": 143, "velocity": 122}, {"time": 153365, "pitch": 36, "duration": 426, "velocity": 119}, {"time": 153365, "pitch": 49, "duration": 426, "velocity": 119}, {"time": 153365, "pitch": 53, "duration": 426, "velocity": 119}, {"time": 153367, "pitch": 54, "duration": 93, "velocity": 73}, {"time": 155043, "pitch": 53, "duration": 1865, "velocity": 114}, {"time": 8164, "pitch": 36, "duration": 59, "velocity": 101}, {"time": 8164, "pitch": 42, "duration": 59, "velocity": 91}, {"time": 8401, "pitch": 42, "duration": 59, "velocity": 51}, {"time": 8638, "pitch": 38, "duration": 60, "velocity": 100}, {"time": 8638, "pitch": 42, "duration": 60, "velocity": 103}, {"time": 8879, "pitch": 36, "duration": 60, "velocity": 88}, {"time": 8879, "pitch": 42, "duration": 60, "velocity": 72}, {"time": 9042, "pitch": 36, "duration": 60, "velocity": 85}, {"time": 9120, "pitch": 42, "duration": 60, "velocity": 88}, {"time": 9360, "pitch": 36, "duration": 61, "velocity": 96}, {"time": 9360, "pitch": 42, "duration": 61, "velocity": 69}, {"time": 9601, "pitch": 38, "duration": 60, "velocity": 100}, {"time": 9601, "pitch": 42, "duration": 60, "velocity": 103}, {"time": 9765, "pitch": 36, "duration": 60, "velocity": 84}, {"time": 9842, "pitch": 42, "duration": 60, "velocity": 59}, {"time": 10083, "pitch": 36, "duration": 59, "velocity": 101}, {"time": 10083, "pitch": 42, "duration": 59, "velocity": 91}, {"time": 10320, "pitch": 42, "duration": 59, "velocity": 51}, {"time": 10557, "pitch": 38, "duration": 60, "velocity": 100}, {"time": 10557, "pitch": 42, "duration": 60, "velocity": 103}, {"time": 10798, "pitch": 36, "duration": 60, "velocity": 88}, {"time": 10798, "pitch": 42, "duration": 60, "velocity": 72}, {"time": 10961, "pitch": 36, "duration": 61, "velocity": 85}, {"time": 11039, "pitch": 42, "duration": 60, "velocity": 88}, {"time": 11280, "pitch": 36, "duration": 60, "velocity": 96}, {"time": 11280, "pitch": 42, "duration": 60, "velocity": 69}, {"time": 11520, "pitch": 38, "duration": 61, "velocity": 100}, {"time": 11520, "pitch": 42, "duration": 61, "velocity": 103}, {"time": 11684, "pitch": 36, "duration": 60, "velocity": 84}, {"time": 11761, "pitch": 42, "duration": 61, "velocity": 59}, {"time": 12002, "pitch": 36, "duration": 59, "velocity": 101}, {"time": 12002, "pitch": 42, "duration": 59, "velocity": 91}, {"time": 12239, "pitch": 42, "duration": 59, "velocity": 51}, {"time": 12476, "pitch": 38, "duration": 60, "velocity": 100}, {"time": 12476, "pitch": 42, "duration": 60, "velocity": 103}, {"time": 12717, "pitch": 36, "duration": 60, "velocity": 88}, {"time": 12717, "pitch": 42, "duration": 60, "velocity": 72}, {"time": 12881, "pitch": 36, "duration": 60, "velocity": 85}, {"time": 12958, "pitch": 42, "duration": 60, "velocity": 88}, {"time": 13199, "pitch": 36, "duration": 60, "velocity": 96}, {"time": 13199, "pitch": 42, "duration": 60, "velocity": 69}, {"time": 13440, "pitch": 38, "duration": 60, "velocity": 100}, {"time": 13440, "pitch": 42, "duration": 60, "velocity": 103}, {"time": 13603, "pitch": 36, "duration": 60, "velocity": 84}, {"time": 13681, "pitch": 42, "duration": 60, "velocity": 59}, {"time": 13921, "pitch": 36, "duration": 61, "velocity": 101}, {"time": 13921, "pitch": 42, "duration": 61, "velocity": 91}, {"time": 14162, "pitch": 42, "duration": 61, "velocity": 51}, {"time": 14403, "pitch": 38, "duration": 59, "velocity": 100}, {"time": 14403, "pitch": 42, "duration": 59, "velocity": 103}, {"time": 14640, "pitch": 36, "duration": 59, "velocity": 88}, {"time": 14640, "pitch": 42, "duration": 59, "velocity": 72}, {"time": 14801, "pitch": 36, "duration": 59, "velocity": 85}, {"time": 14877, "pitch": 42, "duration": 60, "velocity": 88}, {"time": 15118, "pitch": 36, "duration": 60, "velocity": 96}, {"time": 15118, "pitch": 42, "duration": 60, "velocity": 69}, {"time": 15359, "pitch": 38, "duration": 60, "velocity": 100}, {"time": 15359, "pitch": 42, "duration": 60, "velocity": 103}, {"time": 15522, "pitch": 36, "duration": 61, "velocity": 84}, {"time": 15600, "pitch": 42, "duration": 60, "velocity": 59}, {"time": 15841, "pitch": 36, "duration": 60, "velocity": 101}, {"time": 15841, "pitch": 42, "duration": 60, "velocity": 91}, {"time": 16081, "pitch": 42, "duration": 61, "velocity": 51}, {"time": 16322, "pitch": 38, "duration": 60, "velocity": 100}, {"time": 16322, "pitch": 42, "duration": 60, "velocity": 103}, {"time": 16559, "pitch": 36, "duration": 60, "velocity": 88}, {"time": 16559, "pitch": 42, "duration": 60, "velocity": 72}, {"time": 16720, "pitch": 36, "duration": 60, "velocity": 85}, {"time": 16796, "pitch": 42, "duration": 61, "velocity": 88}, {"time": 17037, "pitch": 36, "duration": 60, "velocity": 96}, {"time": 17037, "pitch": 42, "duration": 60, "velocity": 69}, {"time": 17278, "pitch": 38, "duration": 60, "velocity": 100}, {"time": 17278, "pitch": 42, "duration": 60, "velocity": 103}, {"time": 17442, "pitch": 36, "duration": 60, "velocity": 84}, {"time": 17519, "pitch": 42, "duration": 60, "velocity": 59}, {"time": 17760, "pitch": 36, "duration": 60, "velocity": 101}, {"time": 17760, "pitch": 42, "duration": 60, "velocity": 91}, {"time": 18001, "pitch": 42, "duration": 60, "velocity": 51}, {"time": 18242, "pitch": 38, "duration": 60, "velocity": 100}, {"time": 18242, "pitch": 42, "duration": 60, "velocity": 103}, {"time": 18482, "pitch": 36, "duration": 61, "velocity": 88}, {"time": 18482, "pitch": 42, "duration": 61, "velocity": 72}, {"time": 18646, "pitch": 36, "duration": 60, "velocity": 85}, {"time": 18723, "pitch": 42, "duration": 60, "velocity": 88}, {"time": 18960, "pitch": 36, "duration": 60, "velocity": 96}, {"time": 18960, "pitch": 42, "duration": 60, "velocity": 69}, {"time": 19197, "pitch": 38, "duration": 60, "velocity": 100}, {"time": 19197, "pitch": 42, "duration": 60, "velocity": 103}, {"time": 19361, "pitch": 36, "duration": 60, "velocity": 84}, {"time": 19438, "pitch": 42, "duration": 60, "velocity": 59}, {"time": 19679, "pitch": 36, "duration": 60, "velocity": 101}, {"time": 19679, "pitch": 42, "duration": 60, "velocity": 91}, {"time": 19920, "pitch": 42, "duration": 60, "velocity": 51}, {"time": 20161, "pitch": 38, "duration": 60, "velocity": 100}, {"time": 20161, "pitch": 42, "duration": 60, "velocity": 103}, {"time": 20402, "pitch": 36, "duration": 60, "velocity": 88}, {"time": 20402, "pitch": 42, "duration": 60, "velocity": 72}, {"time": 20565, "pitch": 36, "duration": 60, "velocity": 85}, {"time": 20642, "pitch": 42, "duration": 60, "velocity": 88}, {"time": 20879, "pitch": 36, "duration": 60, "velocity": 96}, {"time": 20879, "pitch": 42, "duration": 60, "velocity": 69}, {"time": 21116, "pitch": 38, "duration": 61, "velocity": 100}, {"time": 21116, "pitch": 42, "duration": 61, "velocity": 103}, {"time": 21280, "pitch": 36, "duration": 60, "velocity": 84}, {"time": 21357, "pitch": 42, "duration": 61, "velocity": 59}, {"time": 21598, "pitch": 36, "duration": 60, "velocity": 101}, {"time": 21598, "pitch": 42, "duration": 60, "velocity": 91}, {"time": 21839, "pitch": 42, "duration": 60, "velocity": 51}, {"time": 22080, "pitch": 38, "duration": 60, "velocity": 100}, {"time": 22080, "pitch": 42, "duration": 60, "velocity": 103}, {"time": 22321, "pitch": 36, "duration": 60, "velocity": 88}, {"time": 22321, "pitch": 42, "duration": 60, "velocity": 72}, {"time": 22484, "pitch": 36, "duration": 61, "velocity": 85}, {"time": 22562, "pitch": 42, "duration": 60, "velocity": 88}, {"time": 22803, "pitch": 36, "duration": 60, "velocity": 96}, {"time": 22803, "pitch": 42, "duration": 60, "velocity": 69}, {"time": 23043, "pitch": 38, "duration": 60, "velocity": 100}, {"time": 23043, "pitch": 42, "duration": 60, "velocity": 103}, {"time": 23204, "pitch": 36, "duration": 60, "velocity": 84}, {"time": 23280, "pitch": 42, "duration": 60, "velocity": 59}, {"time": 23517, "pitch": 36, "duration": 61, "velocity": 101}, {"time": 23517, "pitch": 42, "duration": 61, "velocity": 91}, {"time": 23758, "pitch": 42, "duration": 60, "velocity": 51}, {"time": 23999, "pitch": 38, "duration": 60, "velocity": 100}, {"time": 23999, "pitch": 42, "duration": 60, "velocity": 103}, {"time": 24240, "pitch": 36, "duration": 60, "velocity": 88}, {"time": 24240, "pitch": 42, "duration": 60, "velocity": 72}, {"time": 24404, "pitch": 36, "duration": 60, "velocity": 85}, {"time": 24481, "pitch": 42, "duration": 60, "velocity": 88}, {"time": 24722, "pitch": 36, "duration": 60, "velocity": 96}, {"time": 24722, "pitch": 42, "duration": 60, "velocity": 69}, {"time": 24963, "pitch": 38, "duration": 59, "velocity": 100}, {"time": 24963, "pitch": 42, "duration": 59, "velocity": 103}, {"time": 25124, "pitch": 36, "duration": 59, "velocity": 84}, {"time": 25200, "pitch": 42, "duration": 59, "velocity": 59}, {"time": 25437, "pitch": 36, "duration": 60, "velocity": 101}, {"time": 25437, "pitch": 42, "duration": 60, "velocity": 91}, {"time": 25677, "pitch": 42, "duration": 61, "velocity": 51}, {"time": 25918, "pitch": 38, "duration": 61, "velocity": 100}, {"time": 25918, "pitch": 42, "duration": 61, "velocity": 103}, {"time": 26159, "pitch": 36, "duration": 60, "velocity": 88}, {"time": 26159, "pitch": 42, "duration": 60, "velocity": 72}, {"time": 26323, "pitch": 36, "duration": 60, "velocity": 85}, {"time": 26400, "pitch": 42, "duration": 60, "velocity": 88}, {"time": 26641, "pitch": 36, "duration": 60, "velocity": 96}, {"time": 26641, "pitch": 42, "duration": 60, "velocity": 69}, {"time": 26882, "pitch": 38, "duration": 60, "velocity": 100}, {"time": 26882, "pitch": 42, "duration": 60, "velocity": 103}, {"time": 27045, "pitch": 36, "duration": 61, "velocity": 84}, {"time": 27123, "pitch": 42, "duration": 60, "velocity": 59}, {"time": 27364, "pitch": 36, "duration": 59, "velocity": 101}, {"time": 27364, "pitch": 42, "duration": 59, "velocity": 91}, {"time": 27601, "pitch": 42, "duration": 59, "velocity": 51}, {"time": 27838, "pitch": 38, "duration": 60, "velocity": 100}, {"time": 27838, "pitch": 42, "duration": 60, "velocity": 103}, {"time": 28078, "pitch": 36, "duration": 61, "velocity": 88}, {"time": 28078, "pitch": 42, "duration": 61, "velocity": 72}, {"time": 28242, "pitch": 36, "duration": 60, "velocity": 85}, {"time": 28319, "pitch": 42, "duration": 61, "velocity": 88}, {"time": 28560, "pitch": 36, "duration": 60, "velocity": 96}, {"time": 28560, "pitch": 42, "duration": 60, "velocity": 69}, {"time": 28801, "pitch": 38, "duration": 60, "velocity": 100}, {"time": 28801, "pitch": 42, "duration": 60, "velocity": 103}, {"time": 28965, "pitch": 36, "duration": 60, "velocity": 84}, {"time": 29042, "pitch": 42, "duration": 60, "velocity": 59}, {"time": 29283, "pitch": 36, "duration": 59, "velocity": 101}, {"time": 29283, "pitch": 42, "duration": 59, "velocity": 91}, {"time": 29520, "pitch": 42, "duration": 59, "velocity": 51}, {"time": 29757, "pitch": 38, "duration": 60, "velocity": 100}, {"time": 29757, "pitch": 42, "duration": 60, "velocity": 103}, {"time": 29998, "pitch": 36, "duration": 60, "velocity": 88}, {"time": 29998, "pitch": 42, "duration": 60, "velocity": 72}, {"time": 30161, "pitch": 36, "duration": 60, "velocity": 85}, {"time": 30239, "pitch": 42, "duration": 60, "velocity": 88}, {"time": 30479, "pitch": 36, "duration": 61, "velocity": 96}, {"time": 30479, "pitch": 42, "duration": 61, "velocity": 69}, {"time": 30720, "pitch": 38, "duration": 60, "velocity": 100}, {"time": 30720, "pitch": 42, "duration": 60, "velocity": 103}, {"time": 30884, "pitch": 36, "duration": 60, "velocity": 84}, {"time": 30961, "pitch": 42, "duration": 60, "velocity": 59}, {"time": 31202, "pitch": 36, "duration": 60, "velocity": 101}, {"time": 31202, "pitch": 42, "duration": 60, "velocity": 91}, {"time": 31443, "pitch": 42, "duration": 60, "velocity": 51}, {"time": 31684, "pitch": 38, "duration": 59, "velocity": 100}, {"time": 31684, "pitch": 42, "duration": 59, "velocity": 103}, {"time": 31921, "pitch": 36, "duration": 59, "velocity": 88}, {"time": 31921, "pitch": 42, "duration": 59, "velocity": 72}, {"time": 32082, "pitch": 36, "duration": 59, "velocity": 85}, {"time": 32158, "pitch": 42, "duration": 60, "velocity": 88}, {"time": 32399, "pitch": 36, "duration": 60, "velocity": 96}, {"time": 32399, "pitch": 42, "duration": 60, "velocity": 69}, {"time": 32639, "pitch": 38, "duration": 61, "velocity": 100}, {"time": 32639, "pitch": 42, "duration": 61, "velocity": 103}, {"time": 32803, "pitch": 36, "duration": 60, "velocity": 84}, {"time": 32880, "pitch": 42, "duration": 61, "velocity": 59}, {"time": 33121, "pitch": 36, "duration": 60, "velocity": 101}, {"time": 33121, "pitch": 42, "duration": 60, "velocity": 91}, {"time": 33362, "pitch": 42, "duration": 60, "velocity": 51}, {"time": 33603, "pitch": 38, "duration": 59, "velocity": 100}, {"time": 33603, "pitch": 42, "duration": 59, "velocity": 103}, {"time": 33840, "pitch": 36, "duration": 59, "velocity": 88}, {"time": 33840, "pitch": 42, "duration": 59, "velocity": 72}, {"time": 34001, "pitch": 36, "duration": 59, "velocity": 85}, {"time": 34077, "pitch": 42, "duration": 60, "velocity": 88}, {"time": 34318, "pitch": 36, "duration": 60, "velocity": 96}, {"time": 34318, "pitch": 42, "duration": 60, "velocity": 69}, {"time": 34559, "pitch": 38, "duration": 60, "velocity": 100}, {"time": 34559, "pitch": 42, "duration": 60, "velocity": 103}, {"time": 34722, "pitch": 36, "duration": 60, "velocity": 84}, {"time": 34800, "pitch": 42, "duration": 60, "velocity": 59}, {"time": 35040, "pitch": 36, "duration": 61, "velocity": 101}, {"time": 35040, "pitch": 42, "duration": 61, "velocity": 91}, {"time": 35281, "pitch": 42, "duration": 61, "velocity": 51}, {"time": 35522, "pitch": 38, "duration": 59, "velocity": 100}, {"time": 35522, "pitch": 42, "duration": 59, "velocity": 103}, {"time": 35759, "pitch": 36, "duration": 59, "velocity": 88}, {"time": 35759, "pitch": 42, "duration": 59, "velocity": 72}, {"time": 35920, "pitch": 36, "duration": 59, "velocity": 85}, {"time": 35996, "pitch": 42, "duration": 60, "velocity": 88}, {"time": 36237, "pitch": 36, "duration": 60, "velocity": 96}, {"time": 36237, "pitch": 42, "duration": 60, "velocity": 69}, {"time": 36478, "pitch": 38, "duration": 60, "velocity": 100}, {"time": 36478, "pitch": 42, "duration": 60, "velocity": 103}, {"time": 36641, "pitch": 36, "duration": 61, "velocity": 84}, {"time": 36719, "pitch": 42, "duration": 60, "velocity": 59}, {"time": 36960, "pitch": 36, "duration": 60, "velocity": 101}, {"time": 36960, "pitch": 42, "duration": 60, "velocity": 91}, {"time": 37201, "pitch": 42, "duration": 60, "velocity": 51}, {"time": 37441, "pitch": 38, "duration": 61, "velocity": 100}, {"time": 37441, "pitch": 42, "duration": 61, "velocity": 103}, {"time": 37682, "pitch": 36, "duration": 60, "velocity": 88}, {"time": 37682, "pitch": 42, "duration": 60, "velocity": 72}, {"time": 37846, "pitch": 36, "duration": 60, "velocity": 85}, {"time": 37923, "pitch": 42, "duration": 59, "velocity": 88}, {"time": 38160, "pitch": 36, "duration": 59, "velocity": 96}, {"time": 38160, "pitch": 42, "duration": 59, "velocity": 69}, {"time": 38397, "pitch": 38, "duration": 60, "velocity": 100}, {"time": 38397, "pitch": 42, "duration": 60, "velocity": 103}, {"time": 38561, "pitch": 36, "duration": 60, "velocity": 84}, {"time": 38638, "pitch": 42, "duration": 60, "velocity": 59}, {"time": 38879, "pitch": 36, "duration": 60, "velocity": 101}, {"time": 38879, "pitch": 42, "duration": 60, "velocity": 91}, {"time": 39120, "pitch": 42, "duration": 60, "velocity": 51}, {"time": 39361, "pitch": 38, "duration": 60, "velocity": 100}, {"time": 39361, "pitch": 42, "duration": 60, "velocity": 103}, {"time": 39601, "pitch": 36, "duration": 61, "velocity": 88}, {"time": 39601, "pitch": 42, "duration": 61, "velocity": 72}, {"time": 39765, "pitch": 36, "duration": 60, "velocity": 85}, {"time": 39842, "pitch": 42, "duration": 60, "velocity": 88}, {"time": 40079, "pitch": 36, "duration": 60, "velocity": 96}, {"time": 40079, "pitch": 42, "duration": 60, "velocity": 69}, {"time": 40316, "pitch": 38, "duration": 60, "velocity": 100}, {"time": 40316, "pitch": 42, "duration": 60, "velocity": 103}, {"time": 40480, "pitch": 36, "duration": 60, "velocity": 84}, {"time": 40557, "pitch": 42, "duration": 60, "velocity": 59}, {"time": 40798, "pitch": 36, "duration": 60, "velocity": 101}, {"time": 40798, "pitch": 42, "duration": 60, "velocity": 91}, {"time": 41039, "pitch": 42, "duration": 60, "velocity": 51}, {"time": 41280, "pitch": 38, "duration": 60, "velocity": 100}, {"time": 41280, "pitch": 42, "duration": 60, "velocity": 103}, {"time": 41521, "pitch": 36, "duration": 60, "velocity": 88}, {"time": 41521, "pitch": 42, "duration": 60, "velocity": 72}, {"time": 41684, "pitch": 36, "duration": 60, "velocity": 85}, {"time": 41762, "pitch": 42, "duration": 60, "velocity": 88}, {"time": 42002, "pitch": 36, "duration": 61, "velocity": 96}, {"time": 42002, "pitch": 42, "duration": 61, "velocity": 69}, {"time": 42243, "pitch": 38, "duration": 60, "velocity": 100}, {"time": 42243, "pitch": 42, "duration": 60, "velocity": 103}, {"time": 42404, "pitch": 36, "duration": 59, "velocity": 84}, {"time": 42480, "pitch": 42, "duration": 60, "velocity": 59}, {"time": 42717, "pitch": 36, "duration": 60, "velocity": 101}, {"time": 42717, "pitch": 42, "duration": 60, "velocity": 91}, {"time": 42958, "pitch": 42, "duration": 60, "velocity": 51}, {"time": 43199, "pitch": 38, "duration": 60, "velocity": 100}, {"time": 43199, "pitch": 42, "duration": 60, "velocity": 103}, {"time": 43440, "pitch": 36, "duration": 60, "velocity": 88}, {"time": 43440, "pitch": 42, "duration": 60, "velocity": 72}, {"time": 43603, "pitch": 36, "duration": 61, "velocity": 85}, {"time": 43681, "pitch": 42, "duration": 60, "velocity": 88}, {"time": 43922, "pitch": 36, "duration": 60, "velocity": 96}, {"time": 43922, "pitch": 42, "duration": 60, "velocity": 69}, {"time": 44162, "pitch": 38, "duration": 60, "velocity": 100}, {"time": 44162, "pitch": 42, "duration": 60, "velocity": 103}, {"time": 44323, "pitch": 36, "duration": 60, "velocity": 84}, {"time": 44399, "pitch": 42, "duration": 60, "velocity": 59}, {"time": 44636, "pitch": 36, "duration": 61, "velocity": 101}, {"time": 44636, "pitch": 42, "duration": 61, "velocity": 91}, {"time": 44877, "pitch": 42, "duration": 61, "velocity": 51}, {"time": 45118, "pitch": 38, "duration": 60, "velocity": 100}, {"time": 45118, "pitch": 42, "duration": 60, "velocity": 103}, {"time": 45359, "pitch": 36, "duration": 60, "velocity": 88}, {"time": 45359, "pitch": 42, "duration": 60, "velocity": 72}, {"time": 45523, "pitch": 36, "duration": 60, "velocity": 85}, {"time": 45600, "pitch": 42, "duration": 60, "velocity": 88}, {"time": 45841, "pitch": 36, "duration": 60, "velocity": 96}, {"time": 45841, "pitch": 42, "duration": 60, "velocity": 69}, {"time": 46082, "pitch": 38, "duration": 60, "velocity": 100}, {"time": 46082, "pitch": 42, "duration": 60, "velocity": 103}, {"time": 46245, "pitch": 36, "duration": 61, "velocity": 84}, {"time": 46323, "pitch": 42, "duration": 60, "velocity": 59}, {"time": 46563, "pitch": 36, "duration": 60, "velocity": 101}, {"time": 46563, "pitch": 42, "duration": 60, "velocity": 91}, {"time": 46800, "pitch": 42, "duration": 60, "velocity": 51}, {"time": 47037, "pitch": 38, "duration": 61, "velocity": 100}, {"time": 47037, "pitch": 42, "duration": 61, "velocity": 103}, {"time": 47278, "pitch": 36, "duration": 60, "velocity": 88}, {"time": 47278, "pitch": 42, "duration": 60, "velocity": 72}, {"time": 47442, "pitch": 36, "duration": 60, "velocity": 85}, {"time": 47519, "pitch": 42, "duration": 60, "velocity": 88}, {"time": 47760, "pitch": 36, "duration": 60, "velocity": 96}, {"time": 47760, "pitch": 42, "duration": 60, "velocity": 69}, {"time": 48001, "pitch": 38, "duration": 60, "velocity": 100}, {"time": 48001, "pitch": 42, "duration": 60, "velocity": 103}, {"time": 48164, "pitch": 36, "duration": 61, "velocity": 84}, {"time": 48242, "pitch": 42, "duration": 60, "velocity": 59}, {"time": 48483, "pitch": 36, "duration": 59, "velocity": 101}, {"time": 48483, "pitch": 42, "duration": 59, "velocity": 91}, {"time": 48720, "pitch": 42, "duration": 59, "velocity": 51}, {"time": 48957, "pitch": 38, "duration": 60, "velocity": 100}, {"time": 48957, "pitch": 42, "duration": 60, "velocity": 103}, {"time": 49197, "pitch": 36, "duration": 61, "velocity": 88}, {"time": 49197, "pitch": 42, "duration": 61, "velocity": 72}, {"time": 49361, "pitch": 36, "duration": 60, "velocity": 85}, {"time": 49438, "pitch": 42, "duration": 61, "velocity": 88}, {"time": 49679, "pitch": 36, "duration": 60, "velocity": 96}, {"time": 49679, "pitch": 42, "duration": 60, "velocity": 69}, {"time": 49920, "pitch": 38, "duration": 60, "velocity": 100}, {"time": 49920, "pitch": 42, "duration": 60, "velocity": 103}, {"time": 50084, "pitch": 36, "duration": 60, "velocity": 84}, {"time": 50161, "pitch": 42, "duration": 60, "velocity": 59}, {"time": 50402, "pitch": 36, "duration": 60, "velocity": 101}, {"time": 50402, "pitch": 42, "duration": 60, "velocity": 91}, {"time": 50643, "pitch": 42, "duration": 60, "velocity": 51}, {"time": 50884, "pitch": 38, "duration": 59, "velocity": 100}, {"time": 50884, "pitch": 42, "duration": 59, "velocity": 103}, {"time": 51121, "pitch": 36, "duration": 59, "velocity": 88}, {"time": 51121, "pitch": 42, "duration": 59, "velocity": 72}, {"time": 51282, "pitch": 36, "duration": 59, "velocity": 85}, {"time": 51358, "pitch": 42, "duration": 60, "velocity": 88}, {"time": 51598, "pitch": 36, "duration": 61, "velocity": 96}, {"time": 51598, "pitch": 42, "duration": 61, "velocity": 69}, {"time": 51839, "pitch": 38, "duration": 61, "velocity": 100}, {"time": 51839, "pitch": 42, "duration": 61, "velocity": 103}, {"time": 52003, "pitch": 36, "duration": 60, "velocity": 84}, {"time": 52080, "pitch": 42, "duration": 60, "velocity": 59}, {"time": 52321, "pitch": 36, "duration": 60, "velocity": 101}, {"time": 52321, "pitch": 42, "duration": 60, "velocity": 91}, {"time": 52562, "pitch": 42, "duration": 60, "velocity": 51}, {"time": 52803, "pitch": 38, "duration": 59, "velocity": 100}, {"time": 52803, "pitch": 42, "duration": 59, "velocity": 103}, {"time": 53040, "pitch": 36, "duration": 59, "velocity": 88}, {"time": 53040, "pitch": 42, "duration": 59, "velocity": 72}, {"time": 53201, "pitch": 36, "duration": 59, "velocity": 85}, {"time": 53277, "pitch": 42, "duration": 60, "velocity": 88}, {"time": 53518, "pitch": 36, "duration": 60, "velocity": 96}, {"time": 53518, "pitch": 42, "duration": 60, "velocity": 69}, {"time": 53758, "pitch": 38, "duration": 61, "velocity": 100}, {"time": 53758, "pitch": 42, "duration": 61, "velocity": 103}, {"time": 53922, "pitch": 36, "duration": 60, "velocity": 84}, {"time": 53999, "pitch": 42, "duration": 61, "velocity": 59}, {"time": 54240, "pitch": 36, "duration": 60, "velocity": 101}, {"time": 54240, "pitch": 42, "duration": 60, "velocity": 91}, {"time": 54481, "pitch": 42, "duration": 60, "velocity": 51}, {"time": 54722, "pitch": 38, "duration": 60, "velocity": 100}, {"time": 54722, "pitch": 42, "duration": 60, "velocity": 103}, {"time": 54963, "pitch": 36, "duration": 60, "velocity": 88}, {"time": 54963, "pitch": 42, "duration": 60, "velocity": 72}, {"time": 55126, "pitch": 36, "duration": 61, "velocity": 85}, {"time": 55204, "pitch": 42, "duration": 59, "velocity": 88}, {"time": 55441, "pitch": 36, "duration": 59, "velocity": 96}, {"time": 55441, "pitch": 42, "duration": 59, "velocity": 69}, {"time": 55678, "pitch": 38, "duration": 60, "velocity": 100}, {"time": 55678, "pitch": 42, "duration": 60, "velocity": 103}, {"time": 55841, "pitch": 36, "duration": 60, "velocity": 84}, {"time": 55919, "pitch": 42, "duration": 60, "velocity": 59}, {"time": 56159, "pitch": 36, "duration": 61, "velocity": 101}, {"time": 56159, "pitch": 42, "duration": 61, "velocity": 91}, {"time": 56400, "pitch": 42, "duration": 61, "velocity": 51}, {"time": 56641, "pitch": 38, "duration": 60, "velocity": 100}, {"time": 56641, "pitch": 42, "duration": 60, "velocity": 103}, {"time": 56882, "pitch": 36, "duration": 60, "velocity": 88}, {"time": 56882, "pitch": 42, "duration": 60, "velocity": 72}, {"time": 57046, "pitch": 36, "duration": 60, "velocity": 85}, {"time": 57123, "pitch": 42, "duration": 59, "velocity": 88}, {"time": 57360, "pitch": 36, "duration": 59, "velocity": 96}, {"time": 57360, "pitch": 42, "duration": 59, "velocity": 69}, {"time": 57597, "pitch": 38, "duration": 60, "velocity": 100}, {"time": 57597, "pitch": 42, "duration": 60, "velocity": 103}, {"time": 57760, "pitch": 36, "duration": 61, "velocity": 84}, {"time": 57838, "pitch": 42, "duration": 60, "velocity": 59}, {"time": 58079, "pitch": 36, "duration": 60, "velocity": 101}, {"time": 58079, "pitch": 42, "duration": 60, "velocity": 91}, {"time": 58320, "pitch": 42, "duration": 60, "velocity": 51}, {"time": 58560, "pitch": 38, "duration": 61, "velocity": 100}, {"time": 58560, "pitch": 42, "duration": 61, "velocity": 103}, {"time": 58801, "pitch": 36, "duration": 60, "velocity": 88}, {"time": 58801, "pitch": 42, "duration": 60, "velocity": 72}, {"time": 58965, "pitch": 36, "duration": 60, "velocity": 85}, {"time": 59042, "pitch": 42, "duration": 60, "velocity": 88}, {"time": 59283, "pitch": 36, "duration": 60, "velocity": 96}, {"time": 59283, "pitch": 42, "duration": 60, "velocity": 69}, {"time": 59524, "pitch": 38, "duration": 59, "velocity": 100}, {"time": 59524, "pitch": 42, "duration": 59, "velocity": 103}, {"time": 59685, "pitch": 36, "duration": 59, "velocity": 84}, {"time": 59761, "pitch": 42, "duration": 59, "velocity": 59}, {"time": 59998, "pitch": 36, "duration": 60, "velocity": 101}, {"time": 59998, "pitch": 42, "duration": 60, "velocity": 91}, {"time": 60239, "pitch": 42, "duration": 60, "velocity": 51}, {"time": 60480, "pitch": 38, "duration": 60, "velocity": 100}, {"time": 60480, "pitch": 42, "duration": 60, "velocity": 103}, {"time": 60720, "pitch": 36, "duration": 61, "velocity": 88}, {"time": 60720, "pitch": 42, "duration": 61, "velocity": 72}, {"time": 60884, "pitch": 36, "duration": 60, "velocity": 85}, {"time": 60961, "pitch": 42, "duration": 61, "velocity": 88}, {"time": 61202, "pitch": 36, "duration": 60, "velocity": 96}, {"time": 61202, "pitch": 42, "duration": 60, "velocity": 69}, {"time": 61443, "pitch": 38, "duration": 59, "velocity": 100}, {"time": 61443, "pitch": 42, "duration": 59, "velocity": 103}, {"time": 61604, "pitch": 36, "duration": 59, "velocity": 84}, {"time": 61680, "pitch": 42, "duration": 59, "velocity": 59}, {"time": 61917, "pitch": 36, "duration": 60, "velocity": 101}, {"time": 61917, "pitch": 42, "duration": 60, "velocity": 91}, {"time": 62158, "pitch": 42, "duration": 60, "velocity": 51}, {"time": 62399, "pitch": 38, "duration": 60, "velocity": 100}, {"time": 62399, "pitch": 42, "duration": 60, "velocity": 103}, {"time": 62640, "pitch": 36, "duration": 60, "velocity": 88}, {"time": 62640, "pitch": 42, "duration": 60, "velocity": 72}, {"time": 62803, "pitch": 36, "duration": 60, "velocity": 85}, {"time": 62881, "pitch": 42, "duration": 60, "velocity": 88}, {"time": 63121, "pitch": 36, "duration": 61, "velocity": 96}, {"time": 63121, "pitch": 42, "duration": 61, "velocity": 69}, {"time": 63362, "pitch": 38, "duration": 60, "velocity": 100}, {"time": 63362, "pitch": 42, "duration": 60, "velocity": 103}, {"time": 63523, "pitch": 36, "duration": 59, "velocity": 84}, {"time": 63599, "pitch": 42, "duration": 60, "velocity": 59}, {"time": 63836, "pitch": 36, "duration": 60, "velocity": 101}, {"time": 63836, "pitch": 42, "duration": 60, "velocity": 91}, {"time": 64077, "pitch": 42, "duration": 60, "velocity": 51}, {"time": 64318, "pitch": 38, "duration": 60, "velocity": 100}, {"time": 64318, "pitch": 42, "duration": 60, "velocity": 103}, {"time": 64559, "pitch": 36, "duration": 60, "velocity": 88}, {"time": 64559, "pitch": 42, "duration": 60, "velocity": 72}, {"time": 64722, "pitch": 36, "duration": 61, "velocity": 85}, {"time": 64800, "pitch": 42, "duration": 60, "velocity": 88}, {"time": 65041, "pitch": 36, "duration": 60, "velocity": 96}, {"time": 65041, "pitch": 42, "duration": 60, "velocity": 69}, {"time": 65282, "pitch": 38, "duration": 60, "velocity": 100}, {"time": 65282, "pitch": 42, "duration": 60, "velocity": 103}, {"time": 65445, "pitch": 36, "duration": 60, "velocity": 84}, {"time": 65522, "pitch": 42, "duration": 61, "velocity": 59}, {"time": 65763, "pitch": 36, "duration": 59, "velocity": 101}, {"time": 65763, "pitch": 42, "duration": 59, "velocity": 91}, {"time": 66000, "pitch": 42, "duration": 59, "velocity": 51}, {"time": 66237, "pitch": 38, "duration": 60, "velocity": 100}, {"time": 66237, "pitch": 42, "duration": 60, "velocity": 103}, {"time": 66478, "pitch": 36, "duration": 60, "velocity": 88}, {"time": 66478, "pitch": 42, "duration": 60, "velocity": 72}, {"time": 66642, "pitch": 36, "duration": 60, "velocity": 85}, {"time": 66719, "pitch": 42, "duration": 60, "velocity": 88}, {"time": 66960, "pitch": 36, "duration": 60, "velocity": 96}, {"time": 66960, "pitch": 42, "duration": 60, "velocity": 69}, {"time": 67201, "pitch": 38, "duration": 60, "velocity": 100}, {"time": 67201, "pitch": 42, "duration": 60, "velocity": 103}, {"time": 67364, "pitch": 36, "duration": 61, "velocity": 84}, {"time": 67442, "pitch": 42, "duration": 60, "velocity": 59}, {"time": 67682, "pitch": 36, "duration": 60, "velocity": 101}, {"time": 67682, "pitch": 42, "duration": 60, "velocity": 91}, {"time": 67919, "pitch": 42, "duration": 60, "velocity": 51}, {"time": 68156, "pitch": 38, "duration": 61, "velocity": 100}, {"time": 68156, "pitch": 42, "duration": 61, "velocity": 103}, {"time": 68397, "pitch": 36, "duration": 60, "velocity": 88}, {"time": 68397, "pitch": 42, "duration": 60, "velocity": 72}, {"time": 68561, "pitch": 36, "duration": 60, "velocity": 85}, {"time": 68638, "pitch": 42, "duration": 60, "velocity": 88}, {"time": 68879, "pitch": 36, "duration": 60, "velocity": 96}, {"time": 68879, "pitch": 42, "duration": 60, "velocity": 69}, {"time": 69120, "pitch": 38, "duration": 60, "velocity": 100}, {"time": 69120, "pitch": 42, "duration": 60, "velocity": 103}, {"time": 69283, "pitch": 36, "duration": 61, "velocity": 84}, {"time": 69361, "pitch": 42, "duration": 60, "velocity": 59}, {"time": 69602, "pitch": 36, "duration": 60, "velocity": 101}, {"time": 69602, "pitch": 42, "duration": 60, "velocity": 91}, {"time": 69843, "pitch": 42, "duration": 60, "velocity": 51}, {"time": 70083, "pitch": 38, "duration": 60, "velocity": 100}, {"time": 70083, "pitch": 42, "duration": 60, "velocity": 103}, {"time": 70320, "pitch": 36, "duration": 60, "velocity": 88}, {"time": 70320, "pitch": 42, "duration": 60, "velocity": 72}, {"time": 70481, "pitch": 36, "duration": 60, "velocity": 85}, {"time": 70557, "pitch": 42, "duration": 61, "velocity": 88}, {"time": 70798, "pitch": 36, "duration": 60, "velocity": 96}, {"time": 70798, "pitch": 42, "duration": 60, "velocity": 69}, {"time": 71039, "pitch": 38, "duration": 60, "velocity": 100}, {"time": 71039, "pitch": 42, "duration": 60, "velocity": 103}, {"time": 71203, "pitch": 36, "duration": 60, "velocity": 84}, {"time": 71280, "pitch": 42, "duration": 60, "velocity": 59}, {"time": 71521, "pitch": 36, "duration": 60, "velocity": 101}, {"time": 71521, "pitch": 42, "duration": 60, "velocity": 91}, {"time": 71762, "pitch": 42, "duration": 60, "velocity": 51}, {"time": 72003, "pitch": 38, "duration": 59, "velocity": 100}, {"time": 72003, "pitch": 42, "duration": 59, "velocity": 103}, {"time": 72240, "pitch": 36, "duration": 59, "velocity": 88}, {"time": 72240, "pitch": 42, "duration": 59, "velocity": 72}, {"time": 72401, "pitch": 36, "duration": 59, "velocity": 85}, {"time": 72477, "pitch": 42, "duration": 60, "velocity": 88}, {"time": 72717, "pitch": 36, "duration": 61, "velocity": 96}, {"time": 72717, "pitch": 42, "duration": 61, "velocity": 69}, {"time": 72958, "pitch": 38, "duration": 61, "velocity": 100}, {"time": 72958, "pitch": 42, "duration": 61, "velocity": 103}, {"time": 73122, "pitch": 36, "duration": 60, "velocity": 84}, {"time": 73199, "pitch": 42, "duration": 60, "velocity": 59}, {"time": 73440, "pitch": 36, "duration": 60, "velocity": 101}, {"time": 73440, "pitch": 42, "duration": 60, "velocity": 91}, {"time": 73681, "pitch": 42, "duration": 60, "velocity": 51}, {"time": 73922, "pitch": 38, "duration": 60, "velocity": 100}, {"time": 73922, "pitch": 42, "duration": 60, "velocity": 103}, {"time": 74163, "pitch": 36, "duration": 60, "velocity": 88}, {"time": 74163, "pitch": 42, "duration": 60, "velocity": 72}, {"time": 74326, "pitch": 36, "duration": 61, "velocity": 85}, {"time": 74404, "pitch": 42, "duration": 59, "velocity": 88}, {"time": 74641, "pitch": 36, "duration": 59, "velocity": 96}, {"time": 74641, "pitch": 42, "duration": 59, "velocity": 69}, {"time": 74878, "pitch": 38, "duration": 60, "velocity": 100}, {"time": 74878, "pitch": 42, "duration": 60, "velocity": 103}, {"time": 75041, "pitch": 36, "duration": 60, "velocity": 84}, {"time": 75118, "pitch": 42, "duration": 61, "velocity": 59}, {"time": 75359, "pitch": 36, "duration": 60, "velocity": 101}, {"time": 75359, "pitch": 42, "duration": 60, "velocity": 91}, {"time": 75600, "pitch": 42, "duration": 60, "velocity": 51}, {"time": 75841, "pitch": 38, "duration": 60, "velocity": 100}, {"time": 75841, "pitch": 42, "duration": 60, "velocity": 103}, {"time": 76082, "pitch": 36, "duration": 60, "velocity": 88}, {"time": 76082, "pitch": 42, "duration": 60, "velocity": 72}, {"time": 76245, "pitch": 36, "duration": 61, "velocity": 85}, {"time": 76323, "pitch": 42, "duration": 59, "velocity": 88}, {"time": 76560, "pitch": 36, "duration": 59, "velocity": 96}, {"time": 76560, "pitch": 42, "duration": 59, "velocity": 69}, {"time": 76797, "pitch": 38, "duration": 60, "velocity": 100}, {"time": 76797, "pitch": 42, "duration": 60, "velocity": 103}, {"time": 76960, "pitch": 36, "duration": 60, "velocity": 84}, {"time": 77038, "pitch": 42, "duration": 60, "velocity": 59}, {"time": 77278, "pitch": 36, "duration": 61, "velocity": 101}, {"time": 77278, "pitch": 42, "duration": 61, "velocity": 91}, {"time": 77519, "pitch": 42, "duration": 61, "velocity": 51}, {"time": 77760, "pitch": 38, "duration": 60, "velocity": 100}, {"time": 77760, "pitch": 42, "duration": 60, "velocity": 103}, {"time": 78001, "pitch": 36, "duration": 60, "velocity": 88}, {"time": 78001, "pitch": 42, "duration": 60, "velocity": 72}, {"time": 78165, "pitch": 36, "duration": 60, "velocity": 85}, {"time": 78242, "pitch": 42, "duration": 60, "velocity": 88}, {"time": 78483, "pitch": 36, "duration": 60, "velocity": 96}, {"time": 78483, "pitch": 42, "duration": 60, "velocity": 69}, {"time": 78724, "pitch": 38, "duration": 59, "velocity": 100}, {"time": 78724, "pitch": 42, "duration": 59, "velocity": 103}, {"time": 78885, "pitch": 36, "duration": 59, "velocity": 84}, {"time": 78961, "pitch": 42, "duration": 59, "velocity": 59}, {"time": 79198, "pitch": 36, "duration": 60, "velocity": 101}, {"time": 79198, "pitch": 42, "duration": 60, "velocity": 91}, {"time": 79439, "pitch": 42, "duration": 60, "velocity": 51}, {"time": 79679, "pitch": 38, "duration": 61, "velocity": 100}, {"time": 79679, "pitch": 42, "duration": 61, "velocity": 103}, {"time": 79920, "pitch": 36, "duration": 61, "velocity": 88}, {"time": 79920, "pitch": 42, "duration": 61, "velocity": 72}, {"time": 80084, "pitch": 36, "duration": 60, "velocity": 85}, {"time": 80161, "pitch": 42, "duration": 60, "velocity": 88}, {"time": 80402, "pitch": 36, "duration": 60, "velocity": 96}, {"time": 80402, "pitch": 42, "duration": 60, "velocity": 69}, {"time": 80643, "pitch": 38, "duration": 59, "velocity": 100}, {"time": 80643, "pitch": 42, "duration": 59, "velocity": 103}, {"time": 80804, "pitch": 36, "duration": 59, "velocity": 84}, {"time": 80880, "pitch": 42, "duration": 59, "velocity": 59}, {"time": 81117, "pitch": 36, "duration": 60, "velocity": 101}, {"time": 81117, "pitch": 42, "duration": 60, "velocity": 91}, {"time": 81358, "pitch": 42, "duration": 60, "velocity": 51}, {"time": 81599, "pitch": 38, "duration": 60, "velocity": 100}, {"time": 81599, "pitch": 42, "duration": 60, "velocity": 103}, {"time": 81839, "pitch": 36, "duration": 61, "velocity": 88}, {"time": 81839, "pitch": 42, "duration": 61, "velocity": 72}, {"time": 82003, "pitch": 36, "duration": 60, "velocity": 85}, {"time": 82080, "pitch": 42, "duration": 61, "velocity": 88}, {"time": 82321, "pitch": 36, "duration": 60, "velocity": 96}, {"time": 82321, "pitch": 42, "duration": 60, "velocity": 69}, {"time": 82562, "pitch": 38, "duration": 60, "velocity": 100}, {"time": 82562, "pitch": 42, "duration": 60, "velocity": 103}, {"time": 82726, "pitch": 36, "duration": 60, "velocity": 84}, {"time": 82803, "pitch": 42, "duration": 60, "velocity": 59}, {"time": 83044, "pitch": 36, "duration": 59, "velocity": 101}, {"time": 83044, "pitch": 42, "duration": 59, "velocity": 91}, {"time": 83281, "pitch": 42, "duration": 59, "velocity": 51}, {"time": 83518, "pitch": 38, "duration": 60, "velocity": 100}, {"time": 83518, "pitch": 42, "duration": 60, "velocity": 103}, {"time": 83759, "pitch": 36, "duration": 60, "velocity": 88}, {"time": 83759, "pitch": 42, "duration": 60, "velocity": 72}, {"time": 83922, "pitch": 36, "duration": 60, "velocity": 85}, {"time": 84000, "pitch": 42, "duration": 60, "velocity": 88}, {"time": 84240, "pitch": 36, "duration": 61, "velocity": 96}, {"time": 84240, "pitch": 42, "duration": 61, "velocity": 69}, {"time": 84481, "pitch": 38, "duration": 61, "velocity": 100}, {"time": 84481, "pitch": 42, "duration": 61, "velocity": 103}, {"time": 84645, "pitch": 36, "duration": 60, "velocity": 84}, {"time": 84722, "pitch": 42, "duration": 60, "velocity": 59}, {"time": 84963, "pitch": 36, "duration": 59, "velocity": 101}, {"time": 84963, "pitch": 42, "duration": 59, "velocity": 91}, {"time": 85200, "pitch": 42, "duration": 59, "velocity": 51}, {"time": 85437, "pitch": 38, "duration": 60, "velocity": 100}, {"time": 85437, "pitch": 42, "duration": 60, "velocity": 103}, {"time": 85678, "pitch": 36, "duration": 60, "velocity": 88}, {"time": 85678, "pitch": 42, "duration": 60, "velocity": 72}, {"time": 85841, "pitch": 36, "duration": 61, "velocity": 85}, {"time": 85919, "pitch": 42, "duration": 60, "velocity": 88}, {"time": 86160, "pitch": 36, "duration": 60, "velocity": 96}, {"time": 86160, "pitch": 42, "duration": 60, "velocity": 69}, {"time": 86401, "pitch": 38, "duration": 60, "velocity": 100}, {"time": 86401, "pitch": 42, "duration": 60, "velocity": 103}, {"time": 86564, "pitch": 36, "duration": 60, "velocity": 84}, {"time": 86641, "pitch": 42, "duration": 61, "velocity": 59}, {"time": 86882, "pitch": 36, "duration": 59, "velocity": 101}, {"time": 86882, "pitch": 42, "duration": 59, "velocity": 91}, {"time": 87119, "pitch": 42, "duration": 59, "velocity": 51}, {"time": 87356, "pitch": 38, "duration": 60, "velocity": 100}, {"time": 87356, "pitch": 42, "duration": 60, "velocity": 103}, {"time": 87597, "pitch": 36, "duration": 60, "velocity": 88}, {"time": 87597, "pitch": 42, "duration": 60, "velocity": 72}, {"time": 87761, "pitch": 36, "duration": 60, "velocity": 85}, {"time": 87838, "pitch": 42, "duration": 60, "velocity": 88}, {"time": 88079, "pitch": 36, "duration": 60, "velocity": 96}, {"time": 88079, "pitch": 42, "duration": 60, "velocity": 69}, {"time": 88320, "pitch": 38, "duration": 60, "velocity": 100}, {"time": 88320, "pitch": 42, "duration": 60, "velocity": 103}, {"time": 88483, "pitch": 36, "duration": 61, "velocity": 84}, {"time": 88561, "pitch": 42, "duration": 60, "velocity": 59}, {"time": 88801, "pitch": 36, "duration": 61, "velocity": 101}, {"time": 88801, "pitch": 42, "duration": 61, "velocity": 91}, {"time": 89042, "pitch": 42, "duration": 61, "velocity": 51}, {"time": 89283, "pitch": 38, "duration": 59, "velocity": 100}, {"time": 89283, "pitch": 42, "duration": 59, "velocity": 103}, {"time": 89520, "pitch": 36, "duration": 59, "velocity": 88}, {"time": 89520, "pitch": 42, "duration": 59, "velocity": 72}, {"time": 89681, "pitch": 36, "duration": 59, "velocity": 85}, {"time": 89757, "pitch": 42, "duration": 60, "velocity": 88}, {"time": 89998, "pitch": 36, "duration": 60, "velocity": 96}, {"time": 89998, "pitch": 42, "duration": 60, "velocity": 69}, {"time": 90239, "pitch": 38, "duration": 60, "velocity": 100}, {"time": 90239, "pitch": 42, "duration": 60, "velocity": 103}, {"time": 90403, "pitch": 36, "duration": 60, "velocity": 84}, {"time": 90480, "pitch": 42, "duration": 60, "velocity": 59}, {"time": 90721, "pitch": 36, "duration": 60, "velocity": 101}, {"time": 90721, "pitch": 42, "duration": 60, "velocity": 91}, {"time": 90962, "pitch": 42, "duration": 60, "velocity": 51}, {"time": 91202, "pitch": 38, "duration": 60, "velocity": 100}, {"time": 91202, "pitch": 42, "duration": 60, "velocity": 103}, {"time": 91439, "pitch": 36, "duration": 60, "velocity": 88}, {"time": 91439, "pitch": 42, "duration": 60, "velocity": 72}, {"time": 91600, "pitch": 36, "duration": 60, "velocity": 85}, {"time": 91676, "pitch": 42, "duration": 61, "velocity": 88}, {"time": 91917, "pitch": 36, "duration": 60, "velocity": 96}, {"time": 91917, "pitch": 42, "duration": 60, "velocity": 69}, {"time": 92158, "pitch": 38, "duration": 60, "velocity": 100}, {"time": 92158, "pitch": 42, "duration": 60, "velocity": 103}, {"time": 92322, "pitch": 36, "duration": 60, "velocity": 84}, {"time": 92399, "pitch": 42, "duration": 60, "velocity": 59}, {"time": 92640, "pitch": 36, "duration": 60, "velocity": 101}, {"time": 92640, "pitch": 42, "duration": 60, "velocity": 91}, {"time": 92881, "pitch": 42, "duration": 60, "velocity": 51}, {"time": 93122, "pitch": 38, "duration": 60, "velocity": 100}, {"time": 93122, "pitch": 42, "duration": 60, "velocity": 103}, {"time": 93363, "pitch": 36, "duration": 60, "velocity": 88}, {"time": 93363, "pitch": 42, "duration": 60, "velocity": 72}, {"time": 93526, "pitch": 36, "duration": 60, "velocity": 85}, {"time": 93603, "pitch": 42, "duration": 60, "velocity": 88}, {"time": 93840, "pitch": 36, "duration": 60, "velocity": 96}, {"time": 93840, "pitch": 42, "duration": 60, "velocity": 69}, {"time": 94077, "pitch": 38, "duration": 61, "velocity": 100}, {"time": 94077, "pitch": 42, "duration": 61, "velocity": 103}, {"time": 94241, "pitch": 36, "duration": 60, "velocity": 84}, {"time": 94318, "pitch": 42, "duration": 60, "velocity": 59}, {"time": 94559, "pitch": 36, "duration": 60, "velocity": 101}, {"time": 94559, "pitch": 42, "duration": 60, "velocity": 91}, {"time": 94800, "pitch": 42, "duration": 60, "velocity": 51}, {"time": 95041, "pitch": 38, "duration": 60, "velocity": 100}, {"time": 95041, "pitch": 42, "duration": 60, "velocity": 103}, {"time": 95282, "pitch": 36, "duration": 60, "velocity": 88}, {"time": 95282, "pitch": 42, "duration": 60, "velocity": 72}, {"time": 95445, "pitch": 36, "duration": 61, "velocity": 85}, {"time": 95523, "pitch": 42, "duration": 59, "velocity": 88}, {"time": 95760, "pitch": 36, "duration": 59, "velocity": 96}, {"time": 95760, "pitch": 42, "duration": 59, "velocity": 69}, {"time": 95997, "pitch": 38, "duration": 60, "velocity": 100}, {"time": 95997, "pitch": 42, "duration": 60, "velocity": 103}, {"time": 96160, "pitch": 36, "duration": 60, "velocity": 84}, {"time": 96237, "pitch": 42, "duration": 61, "velocity": 59}, {"time": 96478, "pitch": 36, "duration": 60, "velocity": 101}, {"time": 96478, "pitch": 42, "duration": 60, "velocity": 91}, {"time": 96719, "pitch": 42, "duration": 60, "velocity": 51}, {"time": 96960, "pitch": 38, "duration": 60, "velocity": 100}, {"time": 96960, "pitch": 42, "duration": 60, "velocity": 103}, {"time": 97201, "pitch": 36, "duration": 60, "velocity": 88}, {"time": 97201, "pitch": 42, "duration": 60, "velocity": 72}, {"time": 97364, "pitch": 36, "duration": 61, "velocity": 85}, {"time": 97442, "pitch": 42, "duration": 60, "velocity": 88}, {"time": 97683, "pitch": 36, "duration": 60, "velocity": 96}, {"time": 97683, "pitch": 42, "duration": 60, "velocity": 69}, {"time": 97923, "pitch": 38, "duration": 60, "velocity": 100}, {"time": 97923, "pitch": 42, "duration": 60, "velocity": 103}, {"time": 98084, "pitch": 36, "duration": 60, "velocity": 84}, {"time": 98160, "pitch": 42, "duration": 60, "velocity": 59}, {"time": 98397, "pitch": 36, "duration": 61, "velocity": 101}, {"time": 98397, "pitch": 42, "duration": 61, "velocity": 91}, {"time": 98638, "pitch": 42, "duration": 61, "velocity": 51}, {"time": 98879, "pitch": 38, "duration": 60, "velocity": 100}, {"time": 98879, "pitch": 42, "duration": 60, "velocity": 103}, {"time": 99120, "pitch": 36, "duration": 60, "velocity": 88}, {"time": 99120, "pitch": 42, "duration": 60, "velocity": 72}, {"time": 99284, "pitch": 36, "duration": 60, "velocity": 85}, {"time": 99361, "pitch": 42, "duration": 60, "velocity": 88}, {"time": 99602, "pitch": 36, "duration": 60, "velocity": 96}, {"time": 99602, "pitch": 42, "duration": 60, "velocity": 69}, {"time": 99843, "pitch": 38, "duration": 59, "velocity": 100}, {"time": 99843, "pitch": 42, "duration": 59, "velocity": 103}, {"time": 100004, "pitch": 36, "duration": 59, "velocity": 84}, {"time": 100080, "pitch": 42, "duration": 59, "velocity": 59}, {"time": 100317, "pitch": 36, "duration": 60, "velocity": 101}, {"time": 100317, "pitch": 42, "duration": 60, "velocity": 91}, {"time": 100558, "pitch": 42, "duration": 60, "velocity": 51}, {"time": 100798, "pitch": 38, "duration": 61, "velocity": 100}, {"time": 100798, "pitch": 42, "duration": 61, "velocity": 103}, {"time": 101039, "pitch": 36, "duration": 61, "velocity": 88}, {"time": 101039, "pitch": 42, "duration": 61, "velocity": 72}, {"time": 101203, "pitch": 36, "duration": 60, "velocity": 85}, {"time": 101280, "pitch": 42, "duration": 60, "velocity": 88}, {"time": 101521, "pitch": 36, "duration": 60, "velocity": 96}, {"time": 101521, "pitch": 42, "duration": 60, "velocity": 69}, {"time": 101762, "pitch": 38, "duration": 60, "velocity": 100}, {"time": 101762, "pitch": 42, "duration": 60, "velocity": 103}, {"time": 101926, "pitch": 36, "duration": 60, "velocity": 84}, {"time": 102003, "pitch": 42, "duration": 60, "velocity": 59}, {"time": 102244, "pitch": 36, "duration": 59, "velocity": 101}, {"time": 102244, "pitch": 42, "duration": 59, "velocity": 91}, {"time": 102481, "pitch": 42, "duration": 59, "velocity": 51}, {"time": 102718, "pitch": 38, "duration": 60, "velocity": 100}, {"time": 102718, "pitch": 42, "duration": 60, "velocity": 103}, {"time": 102958, "pitch": 36, "duration": 61, "velocity": 88}, {"time": 102958, "pitch": 42, "duration": 61, "velocity": 72}, {"time": 103122, "pitch": 36, "duration": 60, "velocity": 85}, {"time": 103199, "pitch": 42, "duration": 61, "velocity": 88}, {"time": 103440, "pitch": 36, "duration": 60, "velocity": 96}, {"time": 103440, "pitch": 42, "duration": 60, "velocity": 69}, {"time": 103681, "pitch": 38, "duration": 60, "velocity": 100}, {"time": 103681, "pitch": 42, "duration": 60, "velocity": 103}, {"time": 103845, "pitch": 36, "duration": 60, "velocity": 84}, {"time": 103922, "pitch": 42, "duration": 60, "velocity": 59}, {"time": 104163, "pitch": 36, "duration": 59, "velocity": 101}, {"time": 104163, "pitch": 42, "duration": 59, "velocity": 91}, {"time": 104400, "pitch": 42, "duration": 59, "velocity": 51}, {"time": 104637, "pitch": 38, "duration": 60, "velocity": 100}, {"time": 104637, "pitch": 42, "duration": 60, "velocity": 103}, {"time": 104878, "pitch": 36, "duration": 60, "velocity": 88}, {"time": 104878, "pitch": 42, "duration": 60, "velocity": 72}, {"time": 105041, "pitch": 36, "duration": 60, "velocity": 85}, {"time": 105119, "pitch": 42, "duration": 60, "velocity": 88}, {"time": 105359, "pitch": 36, "duration": 61, "velocity": 96}, {"time": 105359, "pitch": 42, "duration": 61, "velocity": 69}, {"time": 105600, "pitch": 38, "duration": 61, "velocity": 100}, {"time": 105600, "pitch": 42, "duration": 61, "velocity": 103}, {"time": 105764, "pitch": 36, "duration": 60, "velocity": 84}, {"time": 105841, "pitch": 42, "duration": 60, "velocity": 59}, {"time": 106082, "pitch": 36, "duration": 60, "velocity": 101}, {"time": 106082, "pitch": 42, "duration": 60, "velocity": 91}, {"time": 106323, "pitch": 42, "duration": 60, "velocity": 51}, {"time": 106564, "pitch": 38, "duration": 59, "velocity": 100}, {"time": 106564, "pitch": 42, "duration": 59, "velocity": 103}, {"time": 106801, "pitch": 36, "duration": 59, "velocity": 88}, {"time": 106801, "pitch": 42, "duration": 59, "velocity": 72}, {"time": 106962, "pitch": 36, "duration": 59, "velocity": 85}, {"time": 107038, "pitch": 42, "duration": 60, "velocity": 88}, {"time": 107279, "pitch": 36, "duration": 60, "velocity": 96}, {"time": 107279, "pitch": 42, "duration": 60, "velocity": 69}, {"time": 107520, "pitch": 38, "duration": 60, "velocity": 100}, {"time": 107520, "pitch": 42, "duration": 60, "velocity": 103}, {"time": 107683, "pitch": 36, "duration": 60, "velocity": 84}, {"time": 107760, "pitch": 42, "duration": 61, "velocity": 59}, {"time": 108001, "pitch": 36, "duration": 61, "velocity": 101}, {"time": 108001, "pitch": 42, "duration": 61, "velocity": 91}, {"time": 108242, "pitch": 42, "duration": 60, "velocity": 51}, {"time": 108483, "pitch": 38, "duration": 59, "velocity": 100}, {"time": 108483, "pitch": 42, "duration": 59, "velocity": 103}, {"time": 108720, "pitch": 36, "duration": 59, "velocity": 88}, {"time": 108720, "pitch": 42, "duration": 59, "velocity": 72}, {"time": 108881, "pitch": 36, "duration": 59, "velocity": 85}, {"time": 108957, "pitch": 42, "duration": 60, "velocity": 88}, {"time": 109198, "pitch": 36, "duration": 60, "velocity": 96}, {"time": 109198, "pitch": 42, "duration": 60, "velocity": 69}, {"time": 109439, "pitch": 38, "duration": 60, "velocity": 100}, {"time": 109439, "pitch": 42, "duration": 60, "velocity": 103}, {"time": 109602, "pitch": 36, "duration": 61, "velocity": 84}, {"time": 109680, "pitch": 42, "duration": 60, "velocity": 59}, {"time": 109920, "pitch": 36, "duration": 61, "velocity": 101}, {"time": 109920, "pitch": 42, "duration": 61, "velocity": 91}, {"time": 110161, "pitch": 42, "duration": 61, "velocity": 51}, {"time": 110402, "pitch": 38, "duration": 59, "velocity": 100}, {"time": 110402, "pitch": 42, "duration": 59, "velocity": 103}, {"time": 110639, "pitch": 36, "duration": 59, "velocity": 88}, {"time": 110639, "pitch": 42, "duration": 59, "velocity": 72}, {"time": 110800, "pitch": 36, "duration": 59, "velocity": 85}, {"time": 110876, "pitch": 42, "duration": 60, "velocity": 88}, {"time": 111117, "pitch": 36, "duration": 60, "velocity": 96}, {"time": 111117, "pitch": 42, "duration": 60, "velocity": 69}, {"time": 111358, "pitch": 38, "duration": 60, "velocity": 100}, {"time": 111358, "pitch": 42, "duration": 60, "velocity": 103}, {"time": 111522, "pitch": 36, "duration": 60, "velocity": 84}, {"time": 111599, "pitch": 42, "duration": 60, "velocity": 59}, {"time": 111840, "pitch": 36, "duration": 60, "velocity": 101}, {"time": 111840, "pitch": 42, "duration": 60, "velocity": 91}, {"time": 112081, "pitch": 42, "duration": 60, "velocity": 51}, {"time": 112321, "pitch": 38, "duration": 61, "velocity": 100}, {"time": 112321, "pitch": 42, "duration": 61, "velocity": 103}, {"time": 112562, "pitch": 36, "duration": 61, "velocity": 88}, {"time": 112562, "pitch": 42, "duration": 61, "velocity": 72}, {"time": 112726, "pitch": 36, "duration": 60, "velocity": 85}, {"time": 112803, "pitch": 42, "duration": 59, "velocity": 88}, {"time": 113040, "pitch": 36, "duration": 59, "velocity": 96}, {"time": 113040, "pitch": 42, "duration": 59, "velocity": 69}, {"time": 113277, "pitch": 38, "duration": 60, "velocity": 100}, {"time": 113277, "pitch": 42, "duration": 60, "velocity": 103}, {"time": 113441, "pitch": 36, "duration": 60, "velocity": 84}, {"time": 113518, "pitch": 42, "duration": 60, "velocity": 59}, {"time": 113759, "pitch": 36, "duration": 60, "velocity": 101}, {"time": 113759, "pitch": 42, "duration": 60, "velocity": 91}, {"time": 114000, "pitch": 42, "duration": 60, "velocity": 51}, {"time": 114241, "pitch": 38, "duration": 60, "velocity": 100}, {"time": 114241, "pitch": 42, "duration": 60, "velocity": 103}, {"time": 114482, "pitch": 36, "duration": 60, "velocity": 88}, {"time": 114482, "pitch": 42, "duration": 60, "velocity": 72}, {"time": 114645, "pitch": 36, "duration": 60, "velocity": 85}, {"time": 114722, "pitch": 42, "duration": 60, "velocity": 88}, {"time": 114959, "pitch": 36, "duration": 60, "velocity": 96}, {"time": 114959, "pitch": 42, "duration": 60, "velocity": 69}, {"time": 115196, "pitch": 38, "duration": 61, "velocity": 100}, {"time": 115196, "pitch": 42, "duration": 61, "velocity": 103}, {"time": 115360, "pitch": 36, "duration": 60, "velocity": 84}, {"time": 115437, "pitch": 42, "duration": 60, "velocity": 59}, {"time": 115678, "pitch": 36, "duration": 60, "velocity": 101}, {"time": 115678, "pitch": 42, "duration": 60, "velocity": 91}, {"time": 115919, "pitch": 42, "duration": 60, "velocity": 51}, {"time": 116160, "pitch": 38, "duration": 60, "velocity": 100}, {"time": 116160, "pitch": 42, "duration": 60, "velocity": 103}, {"time": 116401, "pitch": 36, "duration": 60, "velocity": 88}, {"time": 116401, "pitch": 42, "duration": 60, "velocity": 72}, {"time": 116564, "pitch": 36, "duration": 61, "velocity": 85}, {"time": 116642, "pitch": 42, "duration": 60, "velocity": 88}, {"time": 116882, "pitch": 36, "duration": 61, "velocity": 96}, {"time": 116882, "pitch": 42, "duration": 61, "velocity": 69}, {"time": 117123, "pitch": 38, "duration": 60, "velocity": 100}, {"time": 117123, "pitch": 42, "duration": 60, "velocity": 103}, {"time": 117284, "pitch": 36, "duration": 60, "velocity": 84}, {"time": 117360, "pitch": 42, "duration": 60, "velocity": 59}, {"time": 117597, "pitch": 36, "duration": 60, "velocity": 101}, {"time": 117597, "pitch": 42, "duration": 60, "velocity": 91}, {"time": 117838, "pitch": 42, "duration": 60, "velocity": 51}, {"time": 118079, "pitch": 38, "duration": 60, "velocity": 100}, {"time": 118079, "pitch": 42, "duration": 60, "velocity": 103}, {"time": 118320, "pitch": 36, "duration": 60, "velocity": 88}, {"time": 118320, "pitch": 42, "duration": 60, "velocity": 72}, {"time": 118484, "pitch": 36, "duration": 60, "velocity": 85}, {"time": 118561, "pitch": 42, "duration": 60, "velocity": 88}, {"time": 118802, "pitch": 36, "duration": 60, "velocity": 96}, {"time": 118802, "pitch": 42, "duration": 60, "velocity": 69}, {"time": 119043, "pitch": 38, "duration": 59, "velocity": 100}, {"time": 119043, "pitch": 42, "duration": 59, "velocity": 103}, {"time": 119203, "pitch": 36, "duration": 60, "velocity": 84}, {"time": 119280, "pitch": 42, "duration": 59, "velocity": 59}, {"time": 119517, "pitch": 36, "duration": 60, "velocity": 101}, {"time": 119517, "pitch": 42, "duration": 60, "velocity": 91}, {"time": 119757, "pitch": 42, "duration": 61, "velocity": 51}, {"time": 119998, "pitch": 38, "duration": 60, "velocity": 100}, {"time": 119998, "pitch": 42, "duration": 60, "velocity": 103}, {"time": 120239, "pitch": 36, "duration": 60, "velocity": 88}, {"time": 120239, "pitch": 42, "duration": 60, "velocity": 72}, {"time": 120403, "pitch": 36, "duration": 60, "velocity": 85}, {"time": 120480, "pitch": 42, "duration": 60, "velocity": 88}, {"time": 120721, "pitch": 36, "duration": 60, "velocity": 96}, {"time": 120721, "pitch": 42, "duration": 60, "velocity": 69}, {"time": 120962, "pitch": 38, "duration": 60, "velocity": 100}, {"time": 120962, "pitch": 42, "duration": 60, "velocity": 103}, {"time": 121125, "pitch": 36, "duration": 61, "velocity": 84}, {"time": 121203, "pitch": 42, "duration": 60, "velocity": 59}, {"time": 121443, "pitch": 36, "duration": 60, "velocity": 101}, {"time": 121443, "pitch": 42, "duration": 60, "velocity": 91}, {"time": 121680, "pitch": 42, "duration": 60, "velocity": 51}, {"time": 121917, "pitch": 38, "duration": 61, "velocity": 100}, {"time": 121917, "pitch": 42, "duration": 61, "velocity": 103}, {"time": 122158, "pitch": 36, "duration": 61, "velocity": 88}, {"time": 122158, "pitch": 42, "duration": 61, "velocity": 72}, {"time": 122322, "pitch": 36, "duration": 60, "velocity": 85}, {"time": 122399, "pitch": 42, "duration": 60, "velocity": 88}, {"time": 122640, "pitch": 36, "duration": 60, "velocity": 96}, {"time": 122640, "pitch": 42, "duration": 60, "velocity": 69}, {"time": 122881, "pitch": 38, "duration": 60, "velocity": 100}, {"time": 122881, "pitch": 42, "duration": 60, "velocity": 103}, {"time": 123045, "pitch": 36, "duration": 60, "velocity": 84}, {"time": 123122, "pitch": 42, "duration": 60, "velocity": 59}, {"time": 123363, "pitch": 36, "duration": 59, "velocity": 101}, {"time": 123363, "pitch": 42, "duration": 59, "velocity": 91}, {"time": 123600, "pitch": 42, "duration": 59, "velocity": 51}, {"time": 123837, "pitch": 38, "duration": 60, "velocity": 100}, {"time": 123837, "pitch": 42, "duration": 60, "velocity": 103}, {"time": 124077, "pitch": 36, "duration": 61, "velocity": 88}, {"time": 124077, "pitch": 42, "duration": 61, "velocity": 72}, {"time": 124241, "pitch": 36, "duration": 60, "velocity": 85}, {"time": 124318, "pitch": 42, "duration": 61, "velocity": 88}, {"time": 124559, "pitch": 36, "duration": 60, "velocity": 96}, {"time": 124559, "pitch": 42, "duration": 60, "velocity": 69}, {"time": 124800, "pitch": 38, "duration": 60, "velocity": 100}, {"time": 124800, "pitch": 42, "duration": 60, "velocity": 103}, {"time": 124964, "pitch": 36, "duration": 60, "velocity": 84}, {"time": 125041, "pitch": 42, "duration": 60, "velocity": 59}, {"time": 125282, "pitch": 36, "duration": 60, "velocity": 101}, {"time": 125282, "pitch": 42, "duration": 60, "velocity": 91}, {"time": 125523, "pitch": 42, "duration": 60, "velocity": 51}, {"time": 125764, "pitch": 38, "duration": 59, "velocity": 100}, {"time": 125764, "pitch": 42, "duration": 59, "velocity": 103}, {"time": 126001, "pitch": 36, "duration": 59, "velocity": 88}, {"time": 126001, "pitch": 42, "duration": 59, "velocity": 72}, {"time": 126162, "pitch": 36, "duration": 59, "velocity": 85}, {"time": 126238, "pitch": 42, "duration": 60, "velocity": 88}, {"time": 126478, "pitch": 36, "duration": 61, "velocity": 96}, {"time": 126478, "pitch": 42, "duration": 61, "velocity": 69}, {"time": 126719, "pitch": 38, "duration": 61, "velocity": 100}, {"time": 126719, "pitch": 42, "duration": 61, "velocity": 103}, {"time": 126883, "pitch": 36, "duration": 60, "velocity": 84}, {"time": 126960, "pitch": 42, "duration": 60, "velocity": 59}, {"time": 127201, "pitch": 36, "duration": 60, "velocity": 101}, {"time": 127201, "pitch": 42, "duration": 60, "velocity": 91}, {"time": 127442, "pitch": 42, "duration": 60, "velocity": 51}, {"time": 127683, "pitch": 38, "duration": 59, "velocity": 100}, {"time": 127683, "pitch": 42, "duration": 59, "velocity": 103}, {"time": 127920, "pitch": 36, "duration": 59, "velocity": 88}, {"time": 127920, "pitch": 42, "duration": 59, "velocity": 72}, {"time": 128081, "pitch": 36, "duration": 59, "velocity": 85}, {"time": 128157, "pitch": 42, "duration": 60, "velocity": 88}, {"time": 128398, "pitch": 36, "duration": 60, "velocity": 96}, {"time": 128398, "pitch": 42, "duration": 60, "velocity": 69}, {"time": 128639, "pitch": 38, "duration": 60, "velocity": 100}, {"time": 128639, "pitch": 42, "duration": 60, "velocity": 103}, {"time": 128802, "pitch": 36, "duration": 60, "velocity": 84}, {"time": 128879, "pitch": 42, "duration": 61, "velocity": 59}, {"time": 129120, "pitch": 36, "duration": 61, "velocity": 101}, {"time": 129120, "pitch": 42, "duration": 61, "velocity": 91}, {"time": 129361, "pitch": 42, "duration": 60, "velocity": 51}, {"time": 129602, "pitch": 38, "duration": 60, "velocity": 100}, {"time": 129602, "pitch": 42, "duration": 60, "velocity": 103}, {"time": 129843, "pitch": 36, "duration": 60, "velocity": 88}, {"time": 129843, "pitch": 42, "duration": 60, "velocity": 72}, {"time": 130007, "pitch": 36, "duration": 60, "velocity": 85}, {"time": 130084, "pitch": 42, "duration": 59, "velocity": 88}, {"time": 130321, "pitch": 36, "duration": 59, "velocity": 96}, {"time": 130321, "pitch": 42, "duration": 59, "velocity": 69}, {"time": 130558, "pitch": 38, "duration": 60, "velocity": 100}, {"time": 130558, "pitch": 42, "duration": 60, "velocity": 103}, {"time": 130721, "pitch": 36, "duration": 61, "velocity": 84}, {"time": 130799, "pitch": 42, "duration": 60, "velocity": 59}, {"time": 131039, "pitch": 36, "duration": 61, "velocity": 101}, {"time": 131039, "pitch": 42, "duration": 61, "velocity": 91}, {"time": 131280, "pitch": 42, "duration": 61, "velocity": 51}, {"time": 131521, "pitch": 38, "duration": 60, "velocity": 100}, {"time": 131521, "pitch": 42, "duration": 60, "velocity": 103}, {"time": 131762, "pitch": 36, "duration": 60, "velocity": 88}, {"time": 131762, "pitch": 42, "duration": 60, "velocity": 72}, {"time": 131926, "pitch": 36, "duration": 60, "velocity": 85}, {"time": 132003, "pitch": 42, "duration": 59, "velocity": 88}, {"time": 132240, "pitch": 36, "duration": 59, "velocity": 96}, {"time": 132240, "pitch": 42, "duration": 59, "velocity": 69}, {"time": 132477, "pitch": 38, "duration": 60, "velocity": 100}, {"time": 132477, "pitch": 42, "duration": 60, "velocity": 103}, {"time": 132641, "pitch": 36, "duration": 60, "velocity": 84}, {"time": 132718, "pitch": 42, "duration": 60, "velocity": 59}, {"time": 132959, "pitch": 36, "duration": 60, "velocity": 101}, {"time": 132959, "pitch": 42, "duration": 60, "velocity": 91}, {"time": 133200, "pitch": 42, "duration": 60, "velocity": 51}, {"time": 133440, "pitch": 38, "duration": 61, "velocity": 100}, {"time": 133440, "pitch": 42, "duration": 61, "velocity": 103}, {"time": 133681, "pitch": 36, "duration": 61, "velocity": 88}, {"time": 133681, "pitch": 42, "duration": 61, "velocity": 72}, {"time": 133845, "pitch": 36, "duration": 60, "velocity": 85}, {"time": 133922, "pitch": 42, "duration": 59, "velocity": 88}, {"time": 134159, "pitch": 36, "duration": 59, "velocity": 96}, {"time": 134159, "pitch": 42, "duration": 59, "velocity": 69}, {"time": 134396, "pitch": 38, "duration": 60, "velocity": 100}, {"time": 134396, "pitch": 42, "duration": 60, "velocity": 103}, {"time": 134560, "pitch": 36, "duration": 60, "velocity": 84}, {"time": 134637, "pitch": 42, "duration": 60, "velocity": 59}, {"time": 134878, "pitch": 36, "duration": 60, "velocity": 101}, {"time": 134878, "pitch": 42, "duration": 60, "velocity": 91}, {"time": 135119, "pitch": 42, "duration": 60, "velocity": 51}, {"time": 135360, "pitch": 38, "duration": 60, "velocity": 100}, {"time": 135360, "pitch": 42, "duration": 60, "velocity": 103}, {"time": 135601, "pitch": 36, "duration": 60, "velocity": 88}, {"time": 135601, "pitch": 42, "duration": 60, "velocity": 72}, {"time": 135764, "pitch": 36, "duration": 60, "velocity": 85}, {"time": 135841, "pitch": 42, "duration": 61, "velocity": 88}, {"time": 136082, "pitch": 36, "duration": 61, "velocity": 96}, {"time": 136082, "pitch": 42, "duration": 61, "velocity": 69}, {"time": 136323, "pitch": 38, "duration": 59, "velocity": 100}, {"time": 136323, "pitch": 42, "duration": 59, "velocity": 103}, {"time": 136484, "pitch": 36, "duration": 59, "velocity": 84}, {"time": 136560, "pitch": 42, "duration": 59, "velocity": 59}, {"time": 136797, "pitch": 36, "duration": 60, "velocity": 101}, {"time": 136797, "pitch": 42, "duration": 60, "velocity": 91}, {"time": 137038, "pitch": 42, "duration": 60, "velocity": 51}, {"time": 137279, "pitch": 38, "duration": 60, "velocity": 100}, {"time": 137279, "pitch": 42, "duration": 60, "velocity": 103}, {"time": 137520, "pitch": 36, "duration": 60, "velocity": 88}, {"time": 137520, "pitch": 42, "duration": 60, "velocity": 72}, {"time": 137683, "pitch": 36, "duration": 61, "velocity": 85}, {"time": 137761, "pitch": 42, "duration": 60, "velocity": 88}, {"time": 138001, "pitch": 36, "duration": 61, "velocity": 96}, {"time": 138001, "pitch": 42, "duration": 61, "velocity": 69}, {"time": 138242, "pitch": 38, "duration": 60, "velocity": 100}, {"time": 138242, "pitch": 42, "duration": 60, "velocity": 103}, {"time": 138403, "pitch": 36, "duration": 60, "velocity": 84}, {"time": 138479, "pitch": 42, "duration": 60, "velocity": 59}, {"time": 138716, "pitch": 36, "duration": 60, "velocity": 101}, {"time": 138716, "pitch": 42, "duration": 60, "velocity": 91}, {"time": 138957, "pitch": 42, "duration": 60, "velocity": 51}, {"time": 139198, "pitch": 38, "duration": 60, "velocity": 100}, {"time": 139198, "pitch": 42, "duration": 60, "velocity": 103}, {"time": 139439, "pitch": 36, "duration": 60, "velocity": 88}, {"time": 139439, "pitch": 42, "duration": 60, "velocity": 72}, {"time": 139603, "pitch": 36, "duration": 60, "velocity": 85}, {"time": 139680, "pitch": 42, "duration": 60, "velocity": 88}, {"time": 139921, "pitch": 36, "duration": 60, "velocity": 96}, {"time": 139921, "pitch": 42, "duration": 60, "velocity": 69}, {"time": 140162, "pitch": 38, "duration": 60, "velocity": 100}, {"time": 140162, "pitch": 42, "duration": 60, "velocity": 103}, {"time": 140325, "pitch": 36, "duration": 60, "velocity": 84}, {"time": 140402, "pitch": 42, "duration": 61, "velocity": 59}, {"time": 140643, "pitch": 36, "duration": 60, "velocity": 101}, {"time": 140643, "pitch": 42, "duration": 60, "velocity": 91}, {"time": 140880, "pitch": 42, "duration": 60, "velocity": 51}, {"time": 141117, "pitch": 38, "duration": 60, "velocity": 100}, {"time": 141117, "pitch": 42, "duration": 60, "velocity": 103}, {"time": 141358, "pitch": 36, "duration": 60, "velocity": 88}, {"time": 141358, "pitch": 42, "duration": 60, "velocity": 72}, {"time": 141522, "pitch": 36, "duration": 60, "velocity": 85}, {"time": 141599, "pitch": 42, "duration": 60, "velocity": 88}, {"time": 141840, "pitch": 36, "duration": 60, "velocity": 96}, {"time": 141840, "pitch": 42, "duration": 60, "velocity": 69}, {"time": 142081, "pitch": 38, "duration": 60, "velocity": 100}, {"time": 142081, "pitch": 42, "duration": 60, "velocity": 103}, {"time": 142244, "pitch": 36, "duration": 61, "velocity": 84}, {"time": 142322, "pitch": 42, "duration": 60, "velocity": 59}, {"time": 142562, "pitch": 36, "duration": 60, "velocity": 101}, {"time": 142562, "pitch": 42, "duration": 60, "velocity": 91}, {"time": 142799, "pitch": 42, "duration": 60, "velocity": 51}, {"time": 143036, "pitch": 38, "duration": 61, "velocity": 100}, {"time": 143036, "pitch": 42, "duration": 61, "velocity": 103}, {"time": 143277, "pitch": 36, "duration": 61, "velocity": 88}, {"time": 143277, "pitch": 42, "duration": 61, "velocity": 72}, {"time": 143441, "pitch": 36, "duration": 60, "velocity": 85}, {"time": 143518, "pitch": 42, "duration": 60, "velocity": 88}, {"time": 143759, "pitch": 36, "duration": 60, "velocity": 96}, {"time": 143759, "pitch": 42, "duration": 60, "velocity": 69}, {"time": 144000, "pitch": 38, "duration": 60, "velocity": 100}, {"time": 144000, "pitch": 42, "duration": 60, "velocity": 103}, {"time": 144164, "pitch": 36, "duration": 60, "velocity": 84}, {"time": 144241, "pitch": 42, "duration": 60, "velocity": 59}, {"time": 144482, "pitch": 36, "duration": 60, "velocity": 101}, {"time": 144482, "pitch": 42, "duration": 60, "velocity": 91}, {"time": 144723, "pitch": 42, "duration": 60, "velocity": 51}, {"time": 144963, "pitch": 38, "duration": 60, "velocity": 100}, {"time": 144963, "pitch": 42, "duration": 60, "velocity": 103}, {"time": 145200, "pitch": 36, "duration": 60, "velocity": 88}, {"time": 145200, "pitch": 42, "duration": 60, "velocity": 72}, {"time": 145361, "pitch": 36, "duration": 60, "velocity": 85}, {"time": 145437, "pitch": 42, "duration": 61, "velocity": 88}, {"time": 145678, "pitch": 36, "duration": 60, "velocity": 96}, {"time": 145678, "pitch": 42, "duration": 60, "velocity": 69}, {"time": 145919, "pitch": 38, "duration": 60, "velocity": 100}, {"time": 145919, "pitch": 42, "duration": 60, "velocity": 103}, {"time": 146083, "pitch": 36, "duration": 60, "velocity": 84}, {"time": 146160, "pitch": 42, "duration": 60, "velocity": 59}, {"time": 146401, "pitch": 36, "duration": 60, "velocity": 101}, {"time": 146401, "pitch": 42, "duration": 60, "velocity": 91}, {"time": 146642, "pitch": 42, "duration": 60, "velocity": 51}, {"time": 146883, "pitch": 38, "duration": 59, "velocity": 100}, {"time": 146883, "pitch": 42, "duration": 59, "velocity": 103}, {"time": 147120, "pitch": 36, "duration": 59, "velocity": 88}, {"time": 147120, "pitch": 42, "duration": 59, "velocity": 72}, {"time": 147281, "pitch": 36, "duration": 59, "velocity": 85}, {"time": 147357, "pitch": 42, "duration": 60, "velocity": 88}, {"time": 147597, "pitch": 36, "duration": 61, "velocity": 96}, {"time": 147597, "pitch": 42, "duration": 61, "velocity": 69}, {"time": 147838, "pitch": 38, "duration": 61, "velocity": 100}, {"time": 147838, "pitch": 42, "duration": 61, "velocity": 103}, {"time": 148002, "pitch": 36, "duration": 60, "velocity": 84}, {"time": 148079, "pitch": 42, "duration": 60, "velocity": 59}, {"time": 148320, "pitch": 36, "duration": 60, "velocity": 101}, {"time": 148320, "pitch": 42, "duration": 60, "velocity": 91}, {"time": 148561, "pitch": 42, "duration": 60, "velocity": 51}, {"time": 148802, "pitch": 38, "duration": 60, "velocity": 100}, {"time": 148802, "pitch": 42, "duration": 60, "velocity": 103}, {"time": 149043, "pitch": 36, "duration": 60, "velocity": 88}, {"time": 149043, "pitch": 42, "duration": 60, "velocity": 72}, {"time": 149206, "pitch": 36, "duration": 61, "velocity": 85}, {"time": 149284, "pitch": 42, "duration": 59, "velocity": 88}, {"time": 149521, "pitch": 36, "duration": 59, "velocity": 96}, {"time": 149521, "pitch": 42, "duration": 59, "velocity": 69}, {"time": 149758, "pitch": 38, "duration": 60, "velocity": 100}, {"time": 149758, "pitch": 42, "duration": 60, "velocity": 103}, {"time": 149921, "pitch": 36, "duration": 60, "velocity": 84}, {"time": 149998, "pitch": 42, "duration": 61, "velocity": 59}, {"time": 150239, "pitch": 36, "duration": 61, "velocity": 101}, {"time": 150239, "pitch": 42, "duration": 61, "velocity": 91}, {"time": 150480, "pitch": 42, "duration": 60, "velocity": 51}, {"time": 150721, "pitch": 38, "duration": 60, "velocity": 100}, {"time": 150721, "pitch": 42, "duration": 60, "velocity": 103}, {"time": 150962, "pitch": 36, "duration": 60, "velocity": 88}, {"time": 150962, "pitch": 42, "duration": 60, "velocity": 72}, {"time": 151126, "pitch": 36, "duration": 60, "velocity": 85}, {"time": 151203, "pitch": 42, "duration": 59, "velocity": 88}, {"time": 151440, "pitch": 36, "duration": 59, "velocity": 96}, {"time": 151440, "pitch": 42, "duration": 59, "velocity": 69}, {"time": 151677, "pitch": 38, "duration": 60, "velocity": 100}, {"time": 151677, "pitch": 42, "duration": 60, "velocity": 103}, {"time": 151840, "pitch": 36, "duration": 61, "velocity": 84}, {"time": 151918, "pitch": 42, "duration": 60, "velocity": 59}, {"time": 152158, "pitch": 36, "duration": 61, "velocity": 101}, {"time": 152158, "pitch": 42, "duration": 61, "velocity": 91}, {"time": 152399, "pitch": 42, "duration": 61, "velocity": 51}, {"time": 152640, "pitch": 38, "duration": 60, "velocity": 100}, {"time": 152640, "pitch": 42, "duration": 60, "velocity": 103}, {"time": 152881, "pitch": 36, "duration": 60, "velocity": 88}, {"time": 152881, "pitch": 42, "duration": 60, "velocity": 72}, {"time": 153045, "pitch": 36, "duration": 60, "velocity": 85}, {"time": 153122, "pitch": 42, "duration": 60, "velocity": 88}, {"time": 153363, "pitch": 36, "duration": 60, "velocity": 96}, {"time": 153363, "pitch": 42, "duration": 60, "velocity": 69}]}]}