{"metadata": {"schema_version": "0.1", "title": "RWC-MDB-P-2001 No. 99: Once and For All / Shinya Iguchi", "copyright": "RWC Music Database. Copyright (C) 2001 Real World Computing Partnership (contact: Masataka GOTO <m.goto@aist.go.jp>)", "source_filename": "RM-P099.SMF_SYNC.MID", "source_format": "midi"}, "resolution": 480, "tempos": [{"time": 0, "qpm": 41.95804195804196}, {"time": 480, "qpm": 73.17073170731707}, {"time": 23520, "qpm": 72.28915662650603}, {"time": 25920, "qpm": 73.17073170731707}, {"time": 26400, "qpm": 72.28915662650603}, {"time": 29280, "qpm": 73.17073170731707}, {"time": 40800, "qpm": 72.28915662650603}, {"time": 42240, "qpm": 73.17073170731707}, {"time": 43200, "qpm": 72.28915662650603}, {"time": 43680, "qpm": 73.17073170731707}, {"time": 46560, "qpm": 72.28915662650603}, {"time": 48480, "qpm": 73.17073170731707}, {"time": 52800, "qpm": 72.28915662650603}, {"time": 54240, "qpm": 73.17073170731707}, {"time": 66240, "qpm": 72.28915662650603}, {"time": 67200, "qpm": 73.17073170731707}, {"time": 69120, "qpm": 72.28915662650603}, {"time": 69600, "qpm": 73.17073170731707}, {"time": 70560, "qpm": 72.28915662650603}, {"time": 71040, "qpm": 73.17073170731707}, {"time": 77280, "qpm": 72.28915662650603}, {"time": 79200, "qpm": 73.17073170731707}, {"time": 83520, "qpm": 72.28915662650603}, {"time": 85440, "qpm": 73.17073170731707}, {"time": 90240, "qpm": 72.28915662650603}, {"time": 90720, "qpm": 73.17073170731707}, {"time": 93120, "qpm": 72.28915662650603}, {"time": 94560, "qpm": 73.17073170731707}, {"time": 101760, "qpm": 72.28915662650603}, {"time": 102240, "qpm": 73.17073170731707}, {"time": 109440, "qpm": 72.28915662650603}, {"time": 109920, "qpm": 73.17073170731707}, {"time": 110400, "qpm": 72.28915662650603}, {"time": 111840, "qpm": 73.17073170731707}, {"time": 116640, "qpm": 72.28915662650603}, {"time": 117600, "qpm": 73.17073170731707}, {"time": 120960, "qpm": 72.28915662650603}, {"time": 121440, "qpm": 73.17073170731707}, {"time": 124800, "qpm": 72.28915662650603}, {"time": 125280, "qpm": 73.17073170731707}, {"time": 125760, "qpm": 72.28915662650603}, {"time": 127200, "qpm": 73.17073170731707}, {"time": 129600, "qpm": 72.28915662650603}, {"time": 130080, "qpm": 73.17073170731707}, {"time": 130560, "qpm": 72.28915662650603}, {"time": 131040, "qpm": 73.17073170731707}, {"time": 139200, "qpm": 72.28915662650603}, {"time": 140160, "qpm": 73.17073170731707}, {"time": 144960, "qpm": 72.28915662650603}, {"time": 145920, "qpm": 73.17073170731707}, {"time": 150720, "qpm": 72.28915662650603}, {"time": 151680, "qpm": 73.17073170731707}, {"time": 154080, "qpm": 72.28915662650603}, {"time": 155520, "qpm": 73.17073170731707}, {"time": 159840, "qpm": 72.28915662650603}, {"time": 160800, "qpm": 73.17073170731707}, {"time": 165600, "qpm": 72.28915662650603}, {"time": 167520, "qpm": 73.17073170731707}, {"time": 171360, "qpm": 72.28915662650603}, {"time": 171840, "qpm": 73.17073170731707}, {"time": 180000, "qpm": 72.28915662650603}], "key_signatures": [{"time": 20, "root": 2, "mode": "major"}], "time_signatures": [{"time": 0, "numerator": 1, "denominator": 4}, {"time": 480, "numerator": 4, "denominator": 4}, {"time": 175200, "numerator": 5, "denominator": 4}, {"time": 177600, "numerator": 4, "denominator": 4}], "tracks": [{"program": 0, "is_drum": false, "name": "Piano", "notes": [{"time": 436, "pitch": 55, "duration": 1184, "velocity": 65}, {"time": 444, "pitch": 60, "duration": 1296, "velocity": 54}, {"time": 455, "pitch": 62, "duration": 1275, "velocity": 70}, {"time": 471, "pitch": 64, "duration": 1439, "velocity": 73}, {"time": 495, "pitch": 36, "duration": 1695, "velocity": 63}, {"time": 545, "pitch": 67, "duration": 1553, "velocity": 90}, {"time": 1630, "pitch": 48, "duration": 2527, "velocity": 38}, {"time": 1880, "pitch": 55, "duration": 282, "velocity": 78}, {"time": 2069, "pitch": 60, "duration": 185, "velocity": 81}, {"time": 2233, "pitch": 64, "duration": 36, "velocity": 90}, {"time": 2398, "pitch": 36, "duration": 1752, "velocity": 58}, {"time": 2410, "pitch": 57, "duration": 1138, "velocity": 78}, {"time": 2410, "pitch": 62, "duration": 1228, "velocity": 84}, {"time": 2410, "pitch": 66, "duration": 1228, "velocity": 87}, {"time": 3778, "pitch": 57, "duration": 212, "velocity": 50}, {"time": 3976, "pitch": 69, "duration": 152, "velocity": 75}, {"time": 4150, "pitch": 57, "duration": 36, "velocity": 70}, {"time": 4347, "pitch": 35, "duration": 1723, "velocity": 58}, {"time": 4347, "pitch": 47, "duration": 474, "velocity": 60}, {"time": 4347, "pitch": 57, "duration": 1145, "velocity": 75}, {"time": 4347, "pitch": 62, "duration": 1205, "velocity": 87}, {"time": 4347, "pitch": 67, "duration": 1355, "velocity": 78}, {"time": 5332, "pitch": 47, "duration": 40, "velocity": 7}, {"time": 5482, "pitch": 59, "duration": 351, "velocity": 75}, {"time": 5702, "pitch": 47, "duration": 239, "velocity": 58}, {"time": 5898, "pitch": 62, "duration": 150, "velocity": 103}, {"time": 6070, "pitch": 47, "duration": 22, "velocity": 70}, {"time": 6248, "pitch": 34, "duration": 1761, "velocity": 80}, {"time": 6248, "pitch": 55, "duration": 673, "velocity": 70}, {"time": 6248, "pitch": 62, "duration": 1062, "velocity": 75}, {"time": 6262, "pitch": 58, "duration": 878, "velocity": 71}, {"time": 6931, "pitch": 46, "duration": 917, "velocity": 87}, {"time": 7140, "pitch": 55, "duration": 700, "velocity": 68}, {"time": 7380, "pitch": 58, "duration": 490, "velocity": 74}, {"time": 7630, "pitch": 62, "duration": 232, "velocity": 84}, {"time": 7812, "pitch": 64, "duration": 204, "velocity": 107}, {"time": 7994, "pitch": 62, "duration": 854, "velocity": 87}, {"time": 8165, "pitch": 57, "duration": 484, "velocity": 63}, {"time": 8165, "pitch": 66, "duration": 863, "velocity": 91}, {"time": 8181, "pitch": 33, "duration": 1730, "velocity": 81}, {"time": 8544, "pitch": 45, "duration": 1323, "velocity": 68}, {"time": 8818, "pitch": 57, "duration": 500, "velocity": 73}, {"time": 9058, "pitch": 62, "duration": 470, "velocity": 75}, {"time": 9308, "pitch": 66, "duration": 440, "velocity": 101}, {"time": 9837, "pitch": 66, "duration": 119, "velocity": 91}, {"time": 10084, "pitch": 66, "duration": 888, "velocity": 80}, {"time": 10099, "pitch": 32, "duration": 1733, "velocity": 55}, {"time": 10099, "pitch": 44, "duration": 139, "velocity": 58}, {"time": 10099, "pitch": 59, "duration": 470, "velocity": 68}, {"time": 10099, "pitch": 62, "duration": 603, "velocity": 87}, {"time": 10466, "pitch": 44, "duration": 837, "velocity": 66}, {"time": 10742, "pitch": 59, "duration": 290, "velocity": 50}, {"time": 10992, "pitch": 62, "duration": 90, "velocity": 78}, {"time": 11232, "pitch": 59, "duration": 507, "velocity": 73}, {"time": 11232, "pitch": 64, "duration": 443, "velocity": 87}, {"time": 11455, "pitch": 44, "duration": 228, "velocity": 37}, {"time": 11661, "pitch": 62, "duration": 128, "velocity": 90}, {"time": 11839, "pitch": 44, "duration": 35, "velocity": 48}, {"time": 12005, "pitch": 33, "duration": 1643, "velocity": 56}, {"time": 12005, "pitch": 55, "duration": 478, "velocity": 52}, {"time": 12005, "pitch": 59, "duration": 686, "velocity": 63}, {"time": 12005, "pitch": 62, "duration": 775, "velocity": 68}, {"time": 12403, "pitch": 45, "duration": 3175, "velocity": 35}, {"time": 12661, "pitch": 55, "duration": 539, "velocity": 60}, {"time": 12900, "pitch": 59, "duration": 410, "velocity": 60}, {"time": 13150, "pitch": 62, "duration": 270, "velocity": 65}, {"time": 13583, "pitch": 67, "duration": 79, "velocity": 84}, {"time": 13849, "pitch": 57, "duration": 1409, "velocity": 44}, {"time": 13864, "pitch": 59, "duration": 1374, "velocity": 68}, {"time": 13885, "pitch": 61, "duration": 1383, "velocity": 42}, {"time": 13923, "pitch": 33, "duration": 1185, "velocity": 39}, {"time": 13939, "pitch": 64, "duration": 1586, "velocity": 84}, {"time": 15494, "pitch": 33, "duration": 76, "velocity": 63}, {"time": 15806, "pitch": 57, "duration": 1720, "velocity": 52}, {"time": 15828, "pitch": 62, "duration": 1720, "velocity": 63}, {"time": 15876, "pitch": 64, "duration": 1665, "velocity": 65}, {"time": 15892, "pitch": 50, "duration": 1693, "velocity": 46}, {"time": 15922, "pitch": 66, "duration": 1582, "velocity": 58}, {"time": 17416, "pitch": 38, "duration": 1017, "velocity": 46}, {"time": 17711, "pitch": 59, "duration": 1726, "velocity": 41}, {"time": 17725, "pitch": 62, "duration": 1668, "velocity": 58}, {"time": 17748, "pitch": 64, "duration": 1660, "velocity": 60}, {"time": 17796, "pitch": 50, "duration": 657, "velocity": 50}, {"time": 17827, "pitch": 67, "duration": 1588, "velocity": 68}, {"time": 19356, "pitch": 38, "duration": 527, "velocity": 63}, {"time": 19622, "pitch": 61, "duration": 1743, "velocity": 55}, {"time": 19659, "pitch": 64, "duration": 1706, "velocity": 65}, {"time": 19666, "pitch": 66, "duration": 1684, "velocity": 84}, {"time": 19713, "pitch": 50, "duration": 1622, "velocity": 34}, {"time": 19744, "pitch": 69, "duration": 1599, "velocity": 84}, {"time": 21261, "pitch": 38, "duration": 711, "velocity": 75}, {"time": 21544, "pitch": 59, "duration": 1735, "velocity": 56}, {"time": 21574, "pitch": 62, "duration": 1697, "velocity": 46}, {"time": 21596, "pitch": 64, "duration": 1675, "velocity": 73}, {"time": 21653, "pitch": 50, "duration": 1640, "velocity": 43}, {"time": 21668, "pitch": 67, "duration": 1618, "velocity": 73}, {"time": 23183, "pitch": 38, "duration": 1369, "velocity": 78}, {"time": 23464, "pitch": 57, "duration": 1847, "velocity": 50}, {"time": 23494, "pitch": 62, "duration": 1877, "velocity": 73}, {"time": 23528, "pitch": 64, "duration": 1833, "velocity": 73}, {"time": 23574, "pitch": 66, "duration": 1757, "velocity": 68}, {"time": 23590, "pitch": 50, "duration": 1751, "velocity": 75}, {"time": 25161, "pitch": 38, "duration": 1129, "velocity": 81}, {"time": 25521, "pitch": 59, "duration": 1477, "velocity": 40}, {"time": 25571, "pitch": 62, "duration": 1456, "velocity": 52}, {"time": 25601, "pitch": 64, "duration": 1412, "velocity": 60}, {"time": 25651, "pitch": 50, "duration": 1532, "velocity": 63}, {"time": 25661, "pitch": 67, "duration": 1537, "velocity": 90}, {"time": 27020, "pitch": 38, "duration": 200, "velocity": 81}, {"time": 27393, "pitch": 61, "duration": 865, "velocity": 80}, {"time": 27408, "pitch": 42, "duration": 870, "velocity": 66}, {"time": 27408, "pitch": 57, "duration": 580, "velocity": 70}, {"time": 27408, "pitch": 64, "duration": 850, "velocity": 75}, {"time": 28268, "pitch": 57, "duration": 30, "velocity": 44}, {"time": 28498, "pitch": 35, "duration": 512, "velocity": 40}, {"time": 28508, "pitch": 47, "duration": 524, "velocity": 56}, {"time": 28508, "pitch": 57, "duration": 591, "velocity": 54}, {"time": 28508, "pitch": 61, "duration": 568, "velocity": 74}, {"time": 28508, "pitch": 63, "duration": 488, "velocity": 71}, {"time": 28508, "pitch": 66, "duration": 428, "velocity": 71}, {"time": 28966, "pitch": 65, "duration": 125, "velocity": 78}, {"time": 29316, "pitch": 57, "duration": 637, "velocity": 54}, {"time": 29316, "pitch": 64, "duration": 886, "velocity": 68}, {"time": 29331, "pitch": 42, "duration": 831, "velocity": 48}, {"time": 29331, "pitch": 61, "duration": 871, "velocity": 80}, {"time": 29347, "pitch": 54, "duration": 416, "velocity": 55}, {"time": 29953, "pitch": 54, "duration": 89, "velocity": 71}, {"time": 30192, "pitch": 57, "duration": 130, "velocity": 52}, {"time": 30432, "pitch": 35, "duration": 503, "velocity": 46}, {"time": 30432, "pitch": 57, "duration": 599, "velocity": 58}, {"time": 30432, "pitch": 61, "duration": 592, "velocity": 68}, {"time": 30432, "pitch": 63, "duration": 584, "velocity": 68}, {"time": 30432, "pitch": 66, "duration": 555, "velocity": 68}, {"time": 30854, "pitch": 47, "duration": 118, "velocity": 78}, {"time": 31046, "pitch": 67, "duration": 51, "velocity": 87}, {"time": 31179, "pitch": 59, "duration": 691, "velocity": 50}, {"time": 31202, "pitch": 62, "duration": 639, "velocity": 84}, {"time": 31217, "pitch": 66, "duration": 643, "velocity": 94}, {"time": 31233, "pitch": 52, "duration": 1652, "velocity": 34}, {"time": 31295, "pitch": 69, "duration": 565, "velocity": 81}, {"time": 31880, "pitch": 47, "duration": 500, "velocity": 38}, {"time": 32590, "pitch": 55, "duration": 393, "velocity": 65}, {"time": 32779, "pitch": 59, "duration": 239, "velocity": 75}, {"time": 32948, "pitch": 62, "duration": 70, "velocity": 60}, {"time": 33127, "pitch": 33, "duration": 871, "velocity": 37}, {"time": 33127, "pitch": 45, "duration": 941, "velocity": 32}, {"time": 33127, "pitch": 62, "duration": 861, "velocity": 54}, {"time": 33127, "pitch": 66, "duration": 841, "velocity": 77}, {"time": 33145, "pitch": 55, "duration": 823, "velocity": 60}, {"time": 33145, "pitch": 59, "duration": 813, "velocity": 65}, {"time": 34188, "pitch": 55, "duration": 530, "velocity": 46}, {"time": 34218, "pitch": 58, "duration": 500, "velocity": 58}, {"time": 34248, "pitch": 45, "duration": 507, "velocity": 16}, {"time": 34248, "pitch": 62, "duration": 477, "velocity": 68}, {"time": 34278, "pitch": 64, "duration": 455, "velocity": 60}, {"time": 34703, "pitch": 33, "duration": 73, "velocity": 68}, {"time": 35035, "pitch": 57, "duration": 1387, "velocity": 63}, {"time": 35076, "pitch": 62, "duration": 1405, "velocity": 65}, {"time": 35091, "pitch": 38, "duration": 721, "velocity": 68}, {"time": 35122, "pitch": 64, "duration": 1340, "velocity": 58}, {"time": 35153, "pitch": 66, "duration": 1319, "velocity": 80}, {"time": 36442, "pitch": 50, "duration": 201, "velocity": 81}, {"time": 36622, "pitch": 64, "duration": 228, "velocity": 63}, {"time": 36629, "pitch": 38, "duration": 1711, "velocity": 63}, {"time": 36629, "pitch": 57, "duration": 184, "velocity": 50}, {"time": 36629, "pitch": 62, "duration": 214, "velocity": 70}, {"time": 36629, "pitch": 66, "duration": 206, "velocity": 58}, {"time": 36806, "pitch": 50, "duration": 1284, "velocity": 70}, {"time": 37008, "pitch": 59, "duration": 1727, "velocity": 48}, {"time": 37008, "pitch": 62, "duration": 1697, "velocity": 75}, {"time": 37008, "pitch": 67, "duration": 1712, "velocity": 68}, {"time": 37024, "pitch": 64, "duration": 1711, "velocity": 73}, {"time": 38350, "pitch": 50, "duration": 243, "velocity": 54}, {"time": 38541, "pitch": 38, "duration": 1710, "velocity": 93}, {"time": 38712, "pitch": 50, "duration": 1116, "velocity": 78}, {"time": 38876, "pitch": 61, "duration": 1460, "velocity": 87}, {"time": 38918, "pitch": 64, "duration": 1440, "velocity": 68}, {"time": 38933, "pitch": 66, "duration": 1396, "velocity": 77}, {"time": 38979, "pitch": 69, "duration": 1332, "velocity": 70}, {"time": 40261, "pitch": 50, "duration": 261, "velocity": 70}, {"time": 40456, "pitch": 38, "duration": 1736, "velocity": 103}, {"time": 40632, "pitch": 50, "duration": 910, "velocity": 81}, {"time": 40759, "pitch": 59, "duration": 1798, "velocity": 56}, {"time": 40782, "pitch": 62, "duration": 1782, "velocity": 81}, {"time": 40808, "pitch": 64, "duration": 1771, "velocity": 60}, {"time": 40854, "pitch": 67, "duration": 1718, "velocity": 93}, {"time": 42192, "pitch": 50, "duration": 267, "velocity": 78}, {"time": 42384, "pitch": 38, "duration": 1766, "velocity": 99}, {"time": 42572, "pitch": 50, "duration": 1338, "velocity": 107}, {"time": 42692, "pitch": 57, "duration": 1773, "velocity": 54}, {"time": 42724, "pitch": 62, "duration": 1801, "velocity": 84}, {"time": 42784, "pitch": 64, "duration": 1726, "velocity": 90}, {"time": 42814, "pitch": 66, "duration": 1673, "velocity": 94}, {"time": 44110, "pitch": 50, "duration": 288, "velocity": 87}, {"time": 44301, "pitch": 38, "duration": 1730, "velocity": 103}, {"time": 44465, "pitch": 50, "duration": 1263, "velocity": 81}, {"time": 44614, "pitch": 59, "duration": 1625, "velocity": 63}, {"time": 44629, "pitch": 62, "duration": 1654, "velocity": 73}, {"time": 44648, "pitch": 64, "duration": 1663, "velocity": 90}, {"time": 44724, "pitch": 67, "duration": 1623, "velocity": 103}, {"time": 46031, "pitch": 50, "duration": 389, "velocity": 103}, {"time": 46224, "pitch": 38, "duration": 225, "velocity": 107}, {"time": 46304, "pitch": 59, "duration": 190, "velocity": 70}, {"time": 46391, "pitch": 62, "duration": 117, "velocity": 87}, {"time": 46471, "pitch": 64, "duration": 59, "velocity": 99}, {"time": 46560, "pitch": 64, "duration": 904, "velocity": 81}, {"time": 46574, "pitch": 57, "duration": 686, "velocity": 78}, {"time": 46574, "pitch": 61, "duration": 929, "velocity": 100}, {"time": 46589, "pitch": 42, "duration": 865, "velocity": 84}, {"time": 47221, "pitch": 30, "duration": 214, "velocity": 100}, {"time": 47454, "pitch": 57, "duration": 88, "velocity": 73}, {"time": 47679, "pitch": 47, "duration": 865, "velocity": 70}, {"time": 47679, "pitch": 63, "duration": 327, "velocity": 91}, {"time": 47688, "pitch": 57, "duration": 300, "velocity": 84}, {"time": 47688, "pitch": 61, "duration": 325, "velocity": 91}, {"time": 47688, "pitch": 66, "duration": 290, "velocity": 100}, {"time": 48135, "pitch": 63, "duration": 207, "velocity": 91}, {"time": 48141, "pitch": 57, "duration": 201, "velocity": 84}, {"time": 48141, "pitch": 61, "duration": 210, "velocity": 100}, {"time": 48141, "pitch": 65, "duration": 187, "velocity": 93}, {"time": 48311, "pitch": 35, "duration": 248, "velocity": 58}, {"time": 48527, "pitch": 61, "duration": 720, "velocity": 97}, {"time": 48544, "pitch": 42, "duration": 850, "velocity": 87}, {"time": 48544, "pitch": 57, "duration": 615, "velocity": 78}, {"time": 48544, "pitch": 64, "duration": 723, "velocity": 87}, {"time": 49159, "pitch": 30, "duration": 196, "velocity": 100}, {"time": 49267, "pitch": 57, "duration": 224, "velocity": 81}, {"time": 49384, "pitch": 61, "duration": 156, "velocity": 97}, {"time": 49481, "pitch": 64, "duration": 59, "velocity": 84}, {"time": 49608, "pitch": 47, "duration": 662, "velocity": 65}, {"time": 49608, "pitch": 63, "duration": 647, "velocity": 80}, {"time": 49618, "pitch": 57, "duration": 577, "velocity": 75}, {"time": 49618, "pitch": 61, "duration": 644, "velocity": 68}, {"time": 49629, "pitch": 66, "duration": 633, "velocity": 94}, {"time": 50068, "pitch": 35, "duration": 179, "velocity": 81}, {"time": 50453, "pitch": 50, "duration": 1576, "velocity": 68}, {"time": 50453, "pitch": 60, "duration": 664, "velocity": 60}, {"time": 50453, "pitch": 64, "duration": 812, "velocity": 73}, {"time": 50453, "pitch": 66, "duration": 872, "velocity": 80}, {"time": 50453, "pitch": 71, "duration": 1109, "velocity": 65}, {"time": 51078, "pitch": 38, "duration": 2004, "velocity": 50}, {"time": 51305, "pitch": 60, "duration": 657, "velocity": 63}, {"time": 51552, "pitch": 64, "duration": 437, "velocity": 65}, {"time": 51792, "pitch": 66, "duration": 284, "velocity": 47}, {"time": 51976, "pitch": 69, "duration": 113, "velocity": 56}, {"time": 52130, "pitch": 71, "duration": 60, "velocity": 68}, {"time": 52257, "pitch": 60, "duration": 1653, "velocity": 54}, {"time": 52285, "pitch": 64, "duration": 1609, "velocity": 70}, {"time": 52298, "pitch": 66, "duration": 1604, "velocity": 66}, {"time": 52313, "pitch": 50, "duration": 1109, "velocity": 39}, {"time": 52357, "pitch": 71, "duration": 1545, "velocity": 58}, {"time": 53902, "pitch": 26, "duration": 194, "velocity": 120}, {"time": 53902, "pitch": 38, "duration": 216, "velocity": 116}, {"time": 54301, "pitch": 31, "duration": 1708, "velocity": 99}, {"time": 54301, "pitch": 43, "duration": 1571, "velocity": 99}, {"time": 54301, "pitch": 55, "duration": 457, "velocity": 75}, {"time": 54301, "pitch": 57, "duration": 467, "velocity": 87}, {"time": 54301, "pitch": 62, "duration": 448, "velocity": 90}, {"time": 54315, "pitch": 59, "duration": 453, "velocity": 87}, {"time": 54900, "pitch": 57, "duration": 314, "velocity": 90}, {"time": 54910, "pitch": 55, "duration": 294, "velocity": 87}, {"time": 54910, "pitch": 59, "duration": 314, "velocity": 84}, {"time": 54910, "pitch": 62, "duration": 304, "velocity": 96}, {"time": 55366, "pitch": 57, "duration": 349, "velocity": 84}, {"time": 55377, "pitch": 55, "duration": 338, "velocity": 81}, {"time": 55377, "pitch": 59, "duration": 346, "velocity": 81}, {"time": 55377, "pitch": 62, "duration": 338, "velocity": 96}, {"time": 55815, "pitch": 55, "duration": 178, "velocity": 90}, {"time": 55815, "pitch": 62, "duration": 200, "velocity": 103}, {"time": 55823, "pitch": 57, "duration": 206, "velocity": 93}, {"time": 55823, "pitch": 59, "duration": 192, "velocity": 87}, {"time": 55993, "pitch": 43, "duration": 1366, "velocity": 116}, {"time": 56172, "pitch": 31, "duration": 1379, "velocity": 120}, {"time": 56172, "pitch": 60, "duration": 503, "velocity": 99}, {"time": 56187, "pitch": 53, "duration": 498, "velocity": 96}, {"time": 56187, "pitch": 57, "duration": 508, "velocity": 99}, {"time": 56808, "pitch": 57, "duration": 350, "velocity": 96}, {"time": 56808, "pitch": 60, "duration": 360, "velocity": 103}, {"time": 56818, "pitch": 53, "duration": 340, "velocity": 90}, {"time": 57288, "pitch": 53, "duration": 152, "velocity": 99}, {"time": 57288, "pitch": 57, "duration": 162, "velocity": 107}, {"time": 57288, "pitch": 60, "duration": 172, "velocity": 107}, {"time": 57541, "pitch": 43, "duration": 281, "velocity": 96}, {"time": 57732, "pitch": 60, "duration": 203, "velocity": 112}, {"time": 57732, "pitch": 67, "duration": 187, "velocity": 116}, {"time": 57739, "pitch": 31, "duration": 180, "velocity": 107}, {"time": 57739, "pitch": 57, "duration": 196, "velocity": 107}, {"time": 57905, "pitch": 43, "duration": 37, "velocity": 103}, {"time": 58102, "pitch": 55, "duration": 501, "velocity": 103}, {"time": 58102, "pitch": 60, "duration": 481, "velocity": 107}, {"time": 58102, "pitch": 65, "duration": 491, "velocity": 112}, {"time": 58116, "pitch": 36, "duration": 878, "velocity": 99}, {"time": 58116, "pitch": 48, "duration": 698, "velocity": 99}, {"time": 58735, "pitch": 55, "duration": 219, "velocity": 112}, {"time": 58735, "pitch": 64, "duration": 229, "velocity": 107}, {"time": 58745, "pitch": 60, "duration": 249, "velocity": 107}, {"time": 58974, "pitch": 48, "duration": 747, "velocity": 96}, {"time": 59204, "pitch": 36, "duration": 691, "velocity": 90}, {"time": 59204, "pitch": 62, "duration": 357, "velocity": 107}, {"time": 59214, "pitch": 57, "duration": 347, "velocity": 103}, {"time": 59214, "pitch": 66, "duration": 347, "velocity": 109}, {"time": 59653, "pitch": 57, "duration": 219, "velocity": 112}, {"time": 59653, "pitch": 62, "duration": 226, "velocity": 120}, {"time": 59661, "pitch": 66, "duration": 226, "velocity": 118}, {"time": 59842, "pitch": 48, "duration": 68, "velocity": 96}, {"time": 60031, "pitch": 35, "duration": 891, "velocity": 87}, {"time": 60031, "pitch": 47, "duration": 711, "velocity": 87}, {"time": 60031, "pitch": 57, "duration": 461, "velocity": 87}, {"time": 60046, "pitch": 61, "duration": 466, "velocity": 109}, {"time": 60046, "pitch": 62, "duration": 466, "velocity": 103}, {"time": 60046, "pitch": 66, "duration": 456, "velocity": 97}, {"time": 60662, "pitch": 57, "duration": 250, "velocity": 99}, {"time": 60662, "pitch": 61, "duration": 280, "velocity": 105}, {"time": 60672, "pitch": 62, "duration": 260, "velocity": 103}, {"time": 60672, "pitch": 66, "duration": 250, "velocity": 101}, {"time": 60902, "pitch": 47, "duration": 50, "velocity": 99}, {"time": 61142, "pitch": 59, "duration": 330, "velocity": 93}, {"time": 61142, "pitch": 62, "duration": 338, "velocity": 107}, {"time": 61142, "pitch": 64, "duration": 323, "velocity": 103}, {"time": 61152, "pitch": 32, "duration": 672, "velocity": 118}, {"time": 61152, "pitch": 44, "duration": 488, "velocity": 127}, {"time": 61586, "pitch": 59, "duration": 161, "velocity": 112}, {"time": 61586, "pitch": 62, "duration": 169, "velocity": 103}, {"time": 61586, "pitch": 64, "duration": 154, "velocity": 107}, {"time": 61770, "pitch": 44, "duration": 54, "velocity": 101}, {"time": 61984, "pitch": 55, "duration": 458, "velocity": 90}, {"time": 61984, "pitch": 59, "duration": 458, "velocity": 87}, {"time": 61984, "pitch": 60, "duration": 468, "velocity": 87}, {"time": 61984, "pitch": 64, "duration": 458, "velocity": 93}, {"time": 62000, "pitch": 33, "duration": 1690, "velocity": 78}, {"time": 62000, "pitch": 45, "duration": 1101, "velocity": 84}, {"time": 62590, "pitch": 55, "duration": 310, "velocity": 87}, {"time": 62590, "pitch": 60, "duration": 320, "velocity": 84}, {"time": 62590, "pitch": 64, "duration": 310, "velocity": 96}, {"time": 62600, "pitch": 59, "duration": 310, "velocity": 84}, {"time": 63060, "pitch": 55, "duration": 243, "velocity": 103}, {"time": 63060, "pitch": 64, "duration": 311, "velocity": 107}, {"time": 63070, "pitch": 59, "duration": 293, "velocity": 96}, {"time": 63070, "pitch": 60, "duration": 301, "velocity": 93}, {"time": 63293, "pitch": 45, "duration": 374, "velocity": 99}, {"time": 63501, "pitch": 55, "duration": 75, "velocity": 116}, {"time": 63501, "pitch": 64, "duration": 91, "velocity": 124}, {"time": 63675, "pitch": 57, "duration": 84, "velocity": 116}, {"time": 63675, "pitch": 66, "duration": 76, "velocity": 123}, {"time": 63859, "pitch": 57, "duration": 470, "velocity": 75}, {"time": 63859, "pitch": 67, "duration": 446, "velocity": 93}, {"time": 63875, "pitch": 29, "duration": 296, "velocity": 103}, {"time": 63875, "pitch": 41, "duration": 636, "velocity": 96}, {"time": 63875, "pitch": 60, "duration": 475, "velocity": 99}, {"time": 63875, "pitch": 62, "duration": 475, "velocity": 93}, {"time": 64501, "pitch": 60, "duration": 299, "velocity": 90}, {"time": 64511, "pitch": 57, "duration": 279, "velocity": 93}, {"time": 64511, "pitch": 62, "duration": 289, "velocity": 87}, {"time": 64511, "pitch": 67, "duration": 289, "velocity": 93}, {"time": 64740, "pitch": 53, "duration": 652, "velocity": 81}, {"time": 64980, "pitch": 57, "duration": 280, "velocity": 99}, {"time": 64980, "pitch": 67, "duration": 260, "velocity": 99}, {"time": 64990, "pitch": 60, "duration": 290, "velocity": 93}, {"time": 64990, "pitch": 62, "duration": 290, "velocity": 90}, {"time": 65220, "pitch": 41, "duration": 269, "velocity": 107}, {"time": 65407, "pitch": 65, "duration": 195, "velocity": 107}, {"time": 65414, "pitch": 57, "duration": 196, "velocity": 112}, {"time": 65414, "pitch": 60, "duration": 181, "velocity": 107}, {"time": 65595, "pitch": 41, "duration": 53, "velocity": 107}, {"time": 65792, "pitch": 60, "duration": 698, "velocity": 96}, {"time": 65792, "pitch": 64, "duration": 698, "velocity": 107}, {"time": 65807, "pitch": 38, "duration": 643, "velocity": 107}, {"time": 65807, "pitch": 53, "duration": 416, "velocity": 96}, {"time": 65807, "pitch": 57, "duration": 673, "velocity": 103}, {"time": 66176, "pitch": 50, "duration": 164, "velocity": 112}, {"time": 66440, "pitch": 53, "duration": 70, "velocity": 103}, {"time": 66680, "pitch": 43, "duration": 240, "velocity": 120}, {"time": 66680, "pitch": 59, "duration": 410, "velocity": 99}, {"time": 66680, "pitch": 64, "duration": 410, "velocity": 112}, {"time": 66690, "pitch": 31, "duration": 860, "velocity": 124}, {"time": 66690, "pitch": 53, "duration": 380, "velocity": 103}, {"time": 67150, "pitch": 53, "duration": 183, "velocity": 112}, {"time": 67160, "pitch": 59, "duration": 166, "velocity": 93}, {"time": 67160, "pitch": 64, "duration": 166, "velocity": 107}, {"time": 67356, "pitch": 43, "duration": 112, "velocity": 103}, {"time": 67438, "pitch": 53, "duration": 104, "velocity": 107}, {"time": 67438, "pitch": 59, "duration": 112, "velocity": 96}, {"time": 67438, "pitch": 63, "duration": 119, "velocity": 113}, {"time": 67535, "pitch": 43, "duration": 212, "velocity": 90}, {"time": 67732, "pitch": 33, "duration": 854, "velocity": 90}, {"time": 67732, "pitch": 55, "duration": 449, "velocity": 103}, {"time": 67747, "pitch": 60, "duration": 463, "velocity": 107}, {"time": 67747, "pitch": 62, "duration": 453, "velocity": 107}, {"time": 68089, "pitch": 45, "duration": 327, "velocity": 75}, {"time": 68356, "pitch": 55, "duration": 250, "velocity": 103}, {"time": 68356, "pitch": 60, "duration": 340, "velocity": 103}, {"time": 68356, "pitch": 62, "duration": 300, "velocity": 107}, {"time": 68576, "pitch": 45, "duration": 260, "velocity": 96}, {"time": 68816, "pitch": 31, "duration": 659, "velocity": 93}, {"time": 68826, "pitch": 55, "duration": 332, "velocity": 90}, {"time": 68826, "pitch": 59, "duration": 339, "velocity": 81}, {"time": 68826, "pitch": 60, "duration": 348, "velocity": 96}, {"time": 68826, "pitch": 64, "duration": 339, "velocity": 103}, {"time": 69069, "pitch": 43, "duration": 211, "velocity": 87}, {"time": 69265, "pitch": 55, "duration": 188, "velocity": 99}, {"time": 69265, "pitch": 59, "duration": 165, "velocity": 93}, {"time": 69265, "pitch": 60, "duration": 180, "velocity": 99}, {"time": 69265, "pitch": 64, "duration": 195, "velocity": 112}, {"time": 69438, "pitch": 43, "duration": 37, "velocity": 124}, {"time": 69651, "pitch": 26, "duration": 881, "velocity": 112}, {"time": 69651, "pitch": 55, "duration": 335, "velocity": 99}, {"time": 69651, "pitch": 60, "duration": 335, "velocity": 99}, {"time": 69651, "pitch": 64, "duration": 351, "velocity": 107}, {"time": 70032, "pitch": 38, "duration": 301, "velocity": 93}, {"time": 70283, "pitch": 57, "duration": 169, "velocity": 112}, {"time": 70283, "pitch": 66, "duration": 219, "velocity": 118}, {"time": 70293, "pitch": 62, "duration": 229, "velocity": 116}, {"time": 70532, "pitch": 38, "duration": 40, "velocity": 107}, {"time": 70762, "pitch": 64, "duration": 260, "velocity": 107}, {"time": 70772, "pitch": 38, "duration": 624, "velocity": 116}, {"time": 70772, "pitch": 50, "duration": 100, "velocity": 107}, {"time": 70772, "pitch": 60, "duration": 269, "velocity": 107}, {"time": 70772, "pitch": 67, "duration": 260, "velocity": 116}, {"time": 71002, "pitch": 50, "duration": 232, "velocity": 107}, {"time": 71198, "pitch": 60, "duration": 146, "velocity": 107}, {"time": 71198, "pitch": 64, "duration": 154, "velocity": 107}, {"time": 71198, "pitch": 66, "duration": 161, "velocity": 105}, {"time": 71198, "pitch": 69, "duration": 146, "velocity": 107}, {"time": 71367, "pitch": 50, "duration": 29, "velocity": 112}, {"time": 71582, "pitch": 31, "duration": 896, "velocity": 112}, {"time": 71582, "pitch": 62, "duration": 479, "velocity": 103}, {"time": 71582, "pitch": 67, "duration": 489, "velocity": 107}, {"time": 71582, "pitch": 71, "duration": 469, "velocity": 103}, {"time": 71598, "pitch": 43, "duration": 1160, "velocity": 112}, {"time": 72188, "pitch": 62, "duration": 70, "velocity": 99}, {"time": 72188, "pitch": 71, "duration": 230, "velocity": 99}, {"time": 72308, "pitch": 62, "duration": 230, "velocity": 93}, {"time": 72438, "pitch": 67, "duration": 140, "velocity": 78}, {"time": 72548, "pitch": 71, "duration": 100, "velocity": 87}, {"time": 72658, "pitch": 31, "duration": 681, "velocity": 96}, {"time": 72658, "pitch": 60, "duration": 308, "velocity": 96}, {"time": 72668, "pitch": 65, "duration": 280, "velocity": 90}, {"time": 72668, "pitch": 69, "duration": 312, "velocity": 84}, {"time": 72908, "pitch": 43, "duration": 196, "velocity": 96}, {"time": 73090, "pitch": 69, "duration": 249, "velocity": 103}, {"time": 73097, "pitch": 60, "duration": 15, "velocity": 73}, {"time": 73177, "pitch": 43, "duration": 327, "velocity": 116}, {"time": 73265, "pitch": 60, "duration": 110, "velocity": 87}, {"time": 73346, "pitch": 65, "duration": 36, "velocity": 84}, {"time": 73442, "pitch": 31, "duration": 1662, "velocity": 87}, {"time": 73442, "pitch": 59, "duration": 487, "velocity": 90}, {"time": 73442, "pitch": 62, "duration": 487, "velocity": 93}, {"time": 73458, "pitch": 67, "duration": 415, "velocity": 93}, {"time": 73829, "pitch": 43, "duration": 276, "velocity": 87}, {"time": 74095, "pitch": 59, "duration": 120, "velocity": 70}, {"time": 74095, "pitch": 62, "duration": 180, "velocity": 75}, {"time": 74095, "pitch": 67, "duration": 300, "velocity": 75}, {"time": 74215, "pitch": 43, "duration": 512, "velocity": 107}, {"time": 74325, "pitch": 59, "duration": 150, "velocity": 70}, {"time": 74445, "pitch": 62, "duration": 40, "velocity": 70}, {"time": 74575, "pitch": 57, "duration": 593, "velocity": 84}, {"time": 74575, "pitch": 60, "duration": 600, "velocity": 84}, {"time": 74575, "pitch": 65, "duration": 600, "velocity": 90}, {"time": 75018, "pitch": 43, "duration": 86, "velocity": 96}, {"time": 75366, "pitch": 48, "duration": 361, "velocity": 56}, {"time": 75366, "pitch": 60, "duration": 748, "velocity": 63}, {"time": 75366, "pitch": 64, "duration": 768, "velocity": 68}, {"time": 75380, "pitch": 36, "duration": 1733, "velocity": 56}, {"time": 75380, "pitch": 55, "duration": 605, "velocity": 50}, {"time": 76015, "pitch": 48, "duration": 689, "velocity": 60}, {"time": 76134, "pitch": 55, "duration": 120, "velocity": 56}, {"time": 76254, "pitch": 60, "duration": 130, "velocity": 65}, {"time": 76364, "pitch": 64, "duration": 50, "velocity": 54}, {"time": 76504, "pitch": 62, "duration": 492, "velocity": 65}, {"time": 76504, "pitch": 66, "duration": 519, "velocity": 63}, {"time": 76514, "pitch": 57, "duration": 447, "velocity": 54}, {"time": 76941, "pitch": 48, "duration": 165, "velocity": 73}, {"time": 77113, "pitch": 67, "duration": 49, "velocity": 81}, {"time": 77274, "pitch": 35, "duration": 899, "velocity": 58}, {"time": 77274, "pitch": 47, "duration": 394, "velocity": 46}, {"time": 77282, "pitch": 57, "duration": 751, "velocity": 68}, {"time": 77282, "pitch": 62, "duration": 881, "velocity": 75}, {"time": 77282, "pitch": 67, "duration": 911, "velocity": 73}, {"time": 77943, "pitch": 47, "duration": 220, "velocity": 63}, {"time": 78183, "pitch": 57, "duration": 70, "velocity": 68}, {"time": 78422, "pitch": 34, "duration": 631, "velocity": 74}, {"time": 78422, "pitch": 57, "duration": 274, "velocity": 81}, {"time": 78432, "pitch": 46, "duration": 606, "velocity": 63}, {"time": 78432, "pitch": 62, "duration": 556, "velocity": 68}, {"time": 78686, "pitch": 55, "duration": 102, "velocity": 75}, {"time": 78858, "pitch": 54, "duration": 173, "velocity": 87}, {"time": 79031, "pitch": 55, "duration": 1059, "velocity": 81}, {"time": 79206, "pitch": 33, "duration": 1646, "velocity": 70}, {"time": 79206, "pitch": 45, "duration": 480, "velocity": 75}, {"time": 79206, "pitch": 62, "duration": 1195, "velocity": 78}, {"time": 79222, "pitch": 59, "duration": 1008, "velocity": 58}, {"time": 79222, "pitch": 66, "duration": 1209, "velocity": 87}, {"time": 80080, "pitch": 45, "duration": 2689, "velocity": 58}, {"time": 80320, "pitch": 55, "duration": 597, "velocity": 63}, {"time": 80573, "pitch": 59, "duration": 387, "velocity": 81}, {"time": 80767, "pitch": 62, "duration": 207, "velocity": 84}, {"time": 80939, "pitch": 66, "duration": 43, "velocity": 87}, {"time": 81054, "pitch": 55, "duration": 1106, "velocity": 52}, {"time": 81075, "pitch": 58, "duration": 1115, "velocity": 77}, {"time": 81104, "pitch": 62, "duration": 1086, "velocity": 90}, {"time": 81119, "pitch": 64, "duration": 1071, "velocity": 75}, {"time": 81151, "pitch": 33, "duration": 1739, "velocity": 75}, {"time": 82500, "pitch": 69, "duration": 224, "velocity": 56}, {"time": 82710, "pitch": 81, "duration": 44, "velocity": 81}, {"time": 82875, "pitch": 45, "duration": 53, "velocity": 26}, {"time": 83087, "pitch": 57, "duration": 442, "velocity": 58}, {"time": 83104, "pitch": 38, "duration": 1709, "velocity": 56}, {"time": 83104, "pitch": 62, "duration": 435, "velocity": 68}, {"time": 83104, "pitch": 64, "duration": 435, "velocity": 73}, {"time": 83104, "pitch": 66, "duration": 435, "velocity": 74}, {"time": 83119, "pitch": 50, "duration": 1531, "velocity": 70}, {"time": 83720, "pitch": 57, "duration": 290, "velocity": 70}, {"time": 83720, "pitch": 62, "duration": 270, "velocity": 78}, {"time": 83720, "pitch": 64, "duration": 270, "velocity": 81}, {"time": 83720, "pitch": 66, "duration": 260, "velocity": 80}, {"time": 84180, "pitch": 57, "duration": 280, "velocity": 63}, {"time": 84180, "pitch": 62, "duration": 270, "velocity": 81}, {"time": 84190, "pitch": 64, "duration": 270, "velocity": 84}, {"time": 84190, "pitch": 66, "duration": 270, "velocity": 80}, {"time": 84627, "pitch": 57, "duration": 178, "velocity": 73}, {"time": 84627, "pitch": 62, "duration": 193, "velocity": 84}, {"time": 84627, "pitch": 66, "duration": 178, "velocity": 80}, {"time": 84635, "pitch": 64, "duration": 193, "velocity": 81}, {"time": 84805, "pitch": 50, "duration": 1783, "velocity": 93}, {"time": 85008, "pitch": 38, "duration": 1616, "velocity": 93}, {"time": 85008, "pitch": 64, "duration": 471, "velocity": 68}, {"time": 85008, "pitch": 67, "duration": 461, "velocity": 87}, {"time": 85023, "pitch": 59, "duration": 446, "velocity": 73}, {"time": 85023, "pitch": 62, "duration": 456, "velocity": 75}, {"time": 85638, "pitch": 59, "duration": 260, "velocity": 63}, {"time": 85638, "pitch": 62, "duration": 260, "velocity": 84}, {"time": 85648, "pitch": 64, "duration": 260, "velocity": 84}, {"time": 85648, "pitch": 67, "duration": 250, "velocity": 87}, {"time": 86128, "pitch": 59, "duration": 253, "velocity": 63}, {"time": 86128, "pitch": 62, "duration": 263, "velocity": 75}, {"time": 86128, "pitch": 64, "duration": 263, "velocity": 75}, {"time": 86128, "pitch": 67, "duration": 243, "velocity": 78}, {"time": 86551, "pitch": 62, "duration": 161, "velocity": 81}, {"time": 86551, "pitch": 67, "duration": 169, "velocity": 75}, {"time": 86558, "pitch": 59, "duration": 177, "velocity": 73}, {"time": 86558, "pitch": 64, "duration": 177, "velocity": 78}, {"time": 86727, "pitch": 50, "duration": 1786, "velocity": 75}, {"time": 86931, "pitch": 38, "duration": 1715, "velocity": 87}, {"time": 86931, "pitch": 64, "duration": 472, "velocity": 75}, {"time": 86947, "pitch": 61, "duration": 466, "velocity": 94}, {"time": 86947, "pitch": 66, "duration": 446, "velocity": 87}, {"time": 86947, "pitch": 69, "duration": 446, "velocity": 78}, {"time": 87583, "pitch": 61, "duration": 259, "velocity": 80}, {"time": 87583, "pitch": 64, "duration": 249, "velocity": 84}, {"time": 87583, "pitch": 66, "duration": 229, "velocity": 87}, {"time": 87583, "pitch": 69, "duration": 239, "velocity": 78}, {"time": 88062, "pitch": 61, "duration": 267, "velocity": 63}, {"time": 88062, "pitch": 64, "duration": 259, "velocity": 81}, {"time": 88062, "pitch": 66, "duration": 240, "velocity": 71}, {"time": 88062, "pitch": 69, "duration": 240, "velocity": 70}, {"time": 88469, "pitch": 61, "duration": 192, "velocity": 60}, {"time": 88477, "pitch": 64, "duration": 184, "velocity": 84}, {"time": 88477, "pitch": 66, "duration": 169, "velocity": 80}, {"time": 88477, "pitch": 69, "duration": 154, "velocity": 75}, {"time": 88638, "pitch": 50, "duration": 1728, "velocity": 81}, {"time": 88833, "pitch": 38, "duration": 1735, "velocity": 93}, {"time": 88833, "pitch": 59, "duration": 458, "velocity": 65}, {"time": 88833, "pitch": 67, "duration": 458, "velocity": 78}, {"time": 88848, "pitch": 62, "duration": 453, "velocity": 84}, {"time": 88848, "pitch": 64, "duration": 453, "velocity": 78}, {"time": 89480, "pitch": 62, "duration": 250, "velocity": 73}, {"time": 89480, "pitch": 64, "duration": 260, "velocity": 73}, {"time": 89480, "pitch": 67, "duration": 250, "velocity": 63}, {"time": 89490, "pitch": 59, "duration": 240, "velocity": 52}, {"time": 89950, "pitch": 59, "duration": 305, "velocity": 50}, {"time": 89950, "pitch": 62, "duration": 297, "velocity": 73}, {"time": 89950, "pitch": 67, "duration": 290, "velocity": 70}, {"time": 89960, "pitch": 64, "duration": 295, "velocity": 70}, {"time": 90374, "pitch": 59, "duration": 90, "velocity": 50}, {"time": 90374, "pitch": 67, "duration": 134, "velocity": 68}, {"time": 90381, "pitch": 62, "duration": 120, "velocity": 73}, {"time": 90381, "pitch": 64, "duration": 165, "velocity": 65}, {"time": 90464, "pitch": 50, "duration": 1839, "velocity": 65}, {"time": 90561, "pitch": 59, "duration": 96, "velocity": 68}, {"time": 90643, "pitch": 62, "duration": 44, "velocity": 87}, {"time": 90758, "pitch": 62, "duration": 410, "velocity": 60}, {"time": 90758, "pitch": 64, "duration": 410, "velocity": 78}, {"time": 90773, "pitch": 38, "duration": 1714, "velocity": 73}, {"time": 90773, "pitch": 57, "duration": 395, "velocity": 75}, {"time": 90773, "pitch": 66, "duration": 410, "velocity": 68}, {"time": 91398, "pitch": 64, "duration": 280, "velocity": 70}, {"time": 91408, "pitch": 57, "duration": 260, "velocity": 70}, {"time": 91408, "pitch": 62, "duration": 260, "velocity": 81}, {"time": 91408, "pitch": 66, "duration": 260, "velocity": 77}, {"time": 91878, "pitch": 57, "duration": 283, "velocity": 63}, {"time": 91878, "pitch": 62, "duration": 291, "velocity": 73}, {"time": 91878, "pitch": 64, "duration": 298, "velocity": 68}, {"time": 91878, "pitch": 66, "duration": 283, "velocity": 71}, {"time": 92303, "pitch": 57, "duration": 177, "velocity": 81}, {"time": 92303, "pitch": 62, "duration": 199, "velocity": 87}, {"time": 92303, "pitch": 64, "duration": 199, "velocity": 78}, {"time": 92303, "pitch": 66, "duration": 177, "velocity": 80}, {"time": 92480, "pitch": 50, "duration": 1122, "velocity": 87}, {"time": 92676, "pitch": 38, "duration": 1592, "velocity": 96}, {"time": 92691, "pitch": 59, "duration": 482, "velocity": 78}, {"time": 92691, "pitch": 62, "duration": 482, "velocity": 87}, {"time": 92691, "pitch": 64, "duration": 482, "velocity": 75}, {"time": 92691, "pitch": 67, "duration": 482, "velocity": 75}, {"time": 93323, "pitch": 59, "duration": 339, "velocity": 75}, {"time": 93323, "pitch": 62, "duration": 349, "velocity": 81}, {"time": 93323, "pitch": 67, "duration": 349, "velocity": 84}, {"time": 93333, "pitch": 64, "duration": 349, "velocity": 75}, {"time": 93812, "pitch": 59, "duration": 277, "velocity": 75}, {"time": 93812, "pitch": 64, "duration": 269, "velocity": 81}, {"time": 93822, "pitch": 62, "duration": 267, "velocity": 81}, {"time": 93822, "pitch": 67, "duration": 267, "velocity": 84}, {"time": 94052, "pitch": 26, "duration": 208, "velocity": 112}, {"time": 94239, "pitch": 59, "duration": 186, "velocity": 81}, {"time": 94239, "pitch": 62, "duration": 163, "velocity": 90}, {"time": 94239, "pitch": 67, "duration": 186, "velocity": 96}, {"time": 94246, "pitch": 64, "duration": 179, "velocity": 90}, {"time": 94410, "pitch": 28, "duration": 89, "velocity": 116}, {"time": 94410, "pitch": 40, "duration": 96, "velocity": 107}, {"time": 94630, "pitch": 30, "duration": 851, "velocity": 101}, {"time": 94630, "pitch": 42, "duration": 659, "velocity": 97}, {"time": 94630, "pitch": 57, "duration": 472, "velocity": 87}, {"time": 94630, "pitch": 61, "duration": 482, "velocity": 105}, {"time": 94630, "pitch": 68, "duration": 472, "velocity": 101}, {"time": 94645, "pitch": 64, "duration": 476, "velocity": 96}, {"time": 95238, "pitch": 57, "duration": 264, "velocity": 99}, {"time": 95238, "pitch": 61, "duration": 264, "velocity": 113}, {"time": 95238, "pitch": 64, "duration": 223, "velocity": 99}, {"time": 95248, "pitch": 68, "duration": 264, "velocity": 105}, {"time": 95481, "pitch": 42, "duration": 31, "velocity": 84}, {"time": 95714, "pitch": 63, "duration": 266, "velocity": 94}, {"time": 95723, "pitch": 35, "duration": 734, "velocity": 70}, {"time": 95723, "pitch": 47, "duration": 474, "velocity": 75}, {"time": 95723, "pitch": 57, "duration": 247, "velocity": 90}, {"time": 95723, "pitch": 61, "duration": 257, "velocity": 109}, {"time": 95723, "pitch": 68, "duration": 228, "velocity": 105}, {"time": 96187, "pitch": 61, "duration": 310, "velocity": 101}, {"time": 96187, "pitch": 63, "duration": 260, "velocity": 97}, {"time": 96187, "pitch": 67, "duration": 280, "velocity": 99}, {"time": 96197, "pitch": 57, "duration": 280, "velocity": 87}, {"time": 96437, "pitch": 47, "duration": 20, "velocity": 73}, {"time": 96678, "pitch": 57, "duration": 379, "velocity": 78}, {"time": 96678, "pitch": 61, "duration": 399, "velocity": 87}, {"time": 96678, "pitch": 64, "duration": 409, "velocity": 84}, {"time": 96678, "pitch": 66, "duration": 379, "velocity": 91}, {"time": 96688, "pitch": 30, "duration": 733, "velocity": 101}, {"time": 96688, "pitch": 42, "duration": 518, "velocity": 74}, {"time": 97177, "pitch": 57, "duration": 234, "velocity": 78}, {"time": 97177, "pitch": 61, "duration": 283, "velocity": 77}, {"time": 97177, "pitch": 64, "duration": 234, "velocity": 75}, {"time": 97187, "pitch": 66, "duration": 263, "velocity": 87}, {"time": 97411, "pitch": 42, "duration": 39, "velocity": 53}, {"time": 97626, "pitch": 35, "duration": 718, "velocity": 70}, {"time": 97626, "pitch": 63, "duration": 278, "velocity": 91}, {"time": 97626, "pitch": 66, "duration": 246, "velocity": 94}, {"time": 97637, "pitch": 57, "duration": 256, "velocity": 84}, {"time": 97637, "pitch": 61, "duration": 287, "velocity": 97}, {"time": 97872, "pitch": 47, "duration": 266, "velocity": 68}, {"time": 98108, "pitch": 57, "duration": 187, "velocity": 73}, {"time": 98108, "pitch": 65, "duration": 206, "velocity": 96}, {"time": 98118, "pitch": 61, "duration": 216, "velocity": 97}, {"time": 98354, "pitch": 47, "duration": 39, "velocity": 75}, {"time": 98592, "pitch": 38, "duration": 2726, "velocity": 78}, {"time": 98592, "pitch": 50, "duration": 1014, "velocity": 68}, {"time": 98592, "pitch": 60, "duration": 313, "velocity": 56}, {"time": 98592, "pitch": 66, "duration": 313, "velocity": 74}, {"time": 98592, "pitch": 71, "duration": 303, "velocity": 41}, {"time": 98602, "pitch": 64, "duration": 303, "velocity": 68}, {"time": 99067, "pitch": 66, "duration": 289, "velocity": 71}, {"time": 99077, "pitch": 60, "duration": 259, "velocity": 73}, {"time": 99077, "pitch": 64, "duration": 269, "velocity": 78}, {"time": 99077, "pitch": 71, "duration": 269, "velocity": 75}, {"time": 99546, "pitch": 64, "duration": 270, "velocity": 60}, {"time": 99546, "pitch": 66, "duration": 270, "velocity": 63}, {"time": 99546, "pitch": 71, "duration": 270, "velocity": 58}, {"time": 99556, "pitch": 60, "duration": 260, "velocity": 41}, {"time": 99796, "pitch": 50, "duration": 269, "velocity": 63}, {"time": 100026, "pitch": 60, "duration": 239, "velocity": 65}, {"time": 100026, "pitch": 66, "duration": 289, "velocity": 68}, {"time": 100026, "pitch": 71, "duration": 269, "velocity": 63}, {"time": 100036, "pitch": 64, "duration": 269, "velocity": 75}, {"time": 100275, "pitch": 50, "duration": 358, "velocity": 63}, {"time": 100415, "pitch": 60, "duration": 346, "velocity": 65}, {"time": 100445, "pitch": 64, "duration": 327, "velocity": 75}, {"time": 100475, "pitch": 66, "duration": 317, "velocity": 84}, {"time": 100514, "pitch": 71, "duration": 774, "velocity": 73}, {"time": 100752, "pitch": 50, "duration": 188, "velocity": 56}, {"time": 100969, "pitch": 66, "duration": 329, "velocity": 48}, {"time": 100979, "pitch": 60, "duration": 299, "velocity": 41}, {"time": 100979, "pitch": 64, "duration": 299, "velocity": 50}, {"time": 101228, "pitch": 26, "duration": 40, "velocity": 103}, {"time": 101468, "pitch": 26, "duration": 49, "velocity": 68}, {"time": 101468, "pitch": 38, "duration": 59, "velocity": 78}, {"time": 101468, "pitch": 66, "duration": 69, "velocity": 40}, {"time": 101478, "pitch": 60, "duration": 49, "velocity": 54}, {"time": 101478, "pitch": 64, "duration": 59, "velocity": 63}, {"time": 101478, "pitch": 71, "duration": 69, "velocity": 60}, {"time": 101705, "pitch": 26, "duration": 79, "velocity": 112}, {"time": 101705, "pitch": 38, "duration": 89, "velocity": 112}, {"time": 101705, "pitch": 66, "duration": 99, "velocity": 74}, {"time": 101705, "pitch": 71, "duration": 89, "velocity": 65}, {"time": 101715, "pitch": 60, "duration": 79, "velocity": 41}, {"time": 101715, "pitch": 64, "duration": 79, "velocity": 73}, {"time": 101941, "pitch": 26, "duration": 128, "velocity": 116}, {"time": 101941, "pitch": 38, "duration": 128, "velocity": 116}, {"time": 101951, "pitch": 60, "duration": 138, "velocity": 90}, {"time": 101951, "pitch": 64, "duration": 138, "velocity": 93}, {"time": 101951, "pitch": 66, "duration": 148, "velocity": 94}, {"time": 101951, "pitch": 71, "duration": 138, "velocity": 93}, {"time": 102188, "pitch": 26, "duration": 49, "velocity": 120}, {"time": 102188, "pitch": 38, "duration": 69, "velocity": 120}, {"time": 102188, "pitch": 64, "duration": 59, "velocity": 99}, {"time": 102188, "pitch": 66, "duration": 59, "velocity": 105}, {"time": 102188, "pitch": 71, "duration": 49, "velocity": 99}, {"time": 102198, "pitch": 60, "duration": 69, "velocity": 96}, {"time": 102416, "pitch": 31, "duration": 1677, "velocity": 127}, {"time": 102416, "pitch": 43, "duration": 594, "velocity": 124}, {"time": 102426, "pitch": 55, "duration": 314, "velocity": 103}, {"time": 102426, "pitch": 57, "duration": 325, "velocity": 103}, {"time": 102426, "pitch": 59, "duration": 314, "velocity": 99}, {"time": 102426, "pitch": 62, "duration": 325, "velocity": 112}, {"time": 102881, "pitch": 62, "duration": 329, "velocity": 116}, {"time": 102890, "pitch": 55, "duration": 320, "velocity": 96}, {"time": 102890, "pitch": 57, "duration": 330, "velocity": 99}, {"time": 102890, "pitch": 59, "duration": 320, "velocity": 99}, {"time": 103170, "pitch": 43, "duration": 30, "velocity": 46}, {"time": 103370, "pitch": 57, "duration": 297, "velocity": 103}, {"time": 103370, "pitch": 62, "duration": 297, "velocity": 116}, {"time": 103380, "pitch": 55, "duration": 247, "velocity": 99}, {"time": 103380, "pitch": 59, "duration": 277, "velocity": 107}, {"time": 103617, "pitch": 43, "duration": 248, "velocity": 107}, {"time": 103855, "pitch": 55, "duration": 196, "velocity": 116}, {"time": 103855, "pitch": 57, "duration": 217, "velocity": 112}, {"time": 103855, "pitch": 62, "duration": 227, "velocity": 120}, {"time": 103865, "pitch": 59, "duration": 217, "velocity": 112}, {"time": 104093, "pitch": 43, "duration": 358, "velocity": 120}, {"time": 104341, "pitch": 57, "duration": 210, "velocity": 112}, {"time": 104341, "pitch": 65, "duration": 250, "velocity": 116}, {"time": 104351, "pitch": 31, "duration": 1189, "velocity": 124}, {"time": 104351, "pitch": 53, "duration": 170, "velocity": 112}, {"time": 104351, "pitch": 60, "duration": 220, "velocity": 103}, {"time": 104591, "pitch": 43, "duration": 240, "velocity": 87}, {"time": 104811, "pitch": 65, "duration": 369, "velocity": 112}, {"time": 104821, "pitch": 57, "duration": 319, "velocity": 103}, {"time": 104821, "pitch": 60, "duration": 329, "velocity": 99}, {"time": 105050, "pitch": 43, "duration": 260, "velocity": 120}, {"time": 105300, "pitch": 57, "duration": 240, "velocity": 120}, {"time": 105300, "pitch": 60, "duration": 280, "velocity": 124}, {"time": 105310, "pitch": 65, "duration": 260, "velocity": 116}, {"time": 105550, "pitch": 43, "duration": 279, "velocity": 120}, {"time": 105780, "pitch": 60, "duration": 279, "velocity": 120}, {"time": 105780, "pitch": 67, "duration": 259, "velocity": 124}, {"time": 105790, "pitch": 31, "duration": 239, "velocity": 112}, {"time": 105790, "pitch": 57, "duration": 249, "velocity": 124}, {"time": 106019, "pitch": 43, "duration": 50, "velocity": 120}, {"time": 106249, "pitch": 36, "duration": 741, "velocity": 103}, {"time": 106260, "pitch": 55, "duration": 317, "velocity": 120}, {"time": 106260, "pitch": 60, "duration": 338, "velocity": 116}, {"time": 106260, "pitch": 65, "duration": 338, "velocity": 116}, {"time": 106495, "pitch": 48, "duration": 236, "velocity": 96}, {"time": 106751, "pitch": 55, "duration": 119, "velocity": 120}, {"time": 106751, "pitch": 60, "duration": 169, "velocity": 116}, {"time": 106751, "pitch": 64, "duration": 259, "velocity": 116}, {"time": 106860, "pitch": 48, "duration": 430, "velocity": 127}, {"time": 106990, "pitch": 55, "duration": 110, "velocity": 107}, {"time": 107100, "pitch": 60, "duration": 70, "velocity": 93}, {"time": 107230, "pitch": 36, "duration": 781, "velocity": 112}, {"time": 107230, "pitch": 62, "duration": 290, "velocity": 124}, {"time": 107230, "pitch": 66, "duration": 370, "velocity": 127}, {"time": 107240, "pitch": 57, "duration": 220, "velocity": 124}, {"time": 107480, "pitch": 48, "duration": 521, "velocity": 116}, {"time": 107590, "pitch": 57, "duration": 70, "velocity": 96}, {"time": 107709, "pitch": 57, "duration": 166, "velocity": 116}, {"time": 107718, "pitch": 62, "duration": 127, "velocity": 127}, {"time": 107718, "pitch": 67, "duration": 157, "velocity": 127}, {"time": 107826, "pitch": 66, "duration": 263, "velocity": 123}, {"time": 107953, "pitch": 62, "duration": 87, "velocity": 120}, {"time": 108060, "pitch": 57, "duration": 68, "velocity": 107}, {"time": 108177, "pitch": 35, "duration": 772, "velocity": 99}, {"time": 108187, "pitch": 61, "duration": 304, "velocity": 127}, {"time": 108187, "pitch": 62, "duration": 355, "velocity": 120}, {"time": 108187, "pitch": 66, "duration": 345, "velocity": 113}, {"time": 108430, "pitch": 47, "duration": 263, "velocity": 96}, {"time": 108662, "pitch": 57, "duration": 277, "velocity": 116}, {"time": 108662, "pitch": 62, "duration": 308, "velocity": 112}, {"time": 108662, "pitch": 66, "duration": 287, "velocity": 123}, {"time": 108908, "pitch": 47, "duration": 52, "velocity": 124}, {"time": 109154, "pitch": 59, "duration": 359, "velocity": 107}, {"time": 109154, "pitch": 64, "duration": 380, "velocity": 116}, {"time": 109163, "pitch": 32, "duration": 770, "velocity": 101}, {"time": 109163, "pitch": 44, "duration": 141, "velocity": 105}, {"time": 109163, "pitch": 62, "duration": 391, "velocity": 120}, {"time": 109394, "pitch": 44, "duration": 260, "velocity": 84}, {"time": 109634, "pitch": 59, "duration": 209, "velocity": 120}, {"time": 109644, "pitch": 62, "duration": 209, "velocity": 116}, {"time": 109644, "pitch": 64, "duration": 199, "velocity": 120}, {"time": 109873, "pitch": 44, "duration": 80, "velocity": 113}, {"time": 110113, "pitch": 55, "duration": 340, "velocity": 90}, {"time": 110113, "pitch": 64, "duration": 350, "velocity": 99}, {"time": 110123, "pitch": 33, "duration": 1518, "velocity": 90}, {"time": 110123, "pitch": 45, "duration": 559, "velocity": 90}, {"time": 110123, "pitch": 59, "duration": 350, "velocity": 87}, {"time": 110123, "pitch": 60, "duration": 350, "velocity": 93}, {"time": 110613, "pitch": 60, "duration": 329, "velocity": 103}, {"time": 110613, "pitch": 64, "duration": 329, "velocity": 116}, {"time": 110623, "pitch": 55, "duration": 309, "velocity": 103}, {"time": 110623, "pitch": 59, "duration": 339, "velocity": 99}, {"time": 110852, "pitch": 45, "duration": 250, "velocity": 103}, {"time": 111092, "pitch": 55, "duration": 340, "velocity": 112}, {"time": 111092, "pitch": 59, "duration": 360, "velocity": 103}, {"time": 111092, "pitch": 64, "duration": 370, "velocity": 107}, {"time": 111102, "pitch": 60, "duration": 360, "velocity": 103}, {"time": 111322, "pitch": 45, "duration": 289, "velocity": 116}, {"time": 111562, "pitch": 55, "duration": 179, "velocity": 112}, {"time": 111562, "pitch": 59, "duration": 199, "velocity": 112}, {"time": 111562, "pitch": 60, "duration": 199, "velocity": 112}, {"time": 111562, "pitch": 64, "duration": 199, "velocity": 124}, {"time": 111791, "pitch": 31, "duration": 80, "velocity": 120}, {"time": 111801, "pitch": 43, "duration": 80, "velocity": 116}, {"time": 112031, "pitch": 29, "duration": 1666, "velocity": 112}, {"time": 112031, "pitch": 41, "duration": 517, "velocity": 107}, {"time": 112031, "pitch": 67, "duration": 361, "velocity": 107}, {"time": 112040, "pitch": 57, "duration": 361, "velocity": 96}, {"time": 112040, "pitch": 60, "duration": 371, "velocity": 99}, {"time": 112040, "pitch": 62, "duration": 371, "velocity": 96}, {"time": 112499, "pitch": 60, "duration": 319, "velocity": 103}, {"time": 112499, "pitch": 67, "duration": 309, "velocity": 107}, {"time": 112508, "pitch": 57, "duration": 300, "velocity": 103}, {"time": 112508, "pitch": 62, "duration": 320, "velocity": 107}, {"time": 112748, "pitch": 41, "duration": 260, "velocity": 107}, {"time": 112978, "pitch": 62, "duration": 300, "velocity": 116}, {"time": 112978, "pitch": 67, "duration": 290, "velocity": 120}, {"time": 112988, "pitch": 57, "duration": 280, "velocity": 116}, {"time": 112988, "pitch": 60, "duration": 310, "velocity": 112}, {"time": 113218, "pitch": 41, "duration": 309, "velocity": 120}, {"time": 113457, "pitch": 60, "duration": 200, "velocity": 124}, {"time": 113457, "pitch": 65, "duration": 210, "velocity": 127}, {"time": 113467, "pitch": 57, "duration": 200, "velocity": 127}, {"time": 113707, "pitch": 41, "duration": 50, "velocity": 124}, {"time": 113948, "pitch": 38, "duration": 410, "velocity": 116}, {"time": 113948, "pitch": 53, "duration": 235, "velocity": 103}, {"time": 113948, "pitch": 57, "duration": 439, "velocity": 103}, {"time": 113948, "pitch": 60, "duration": 450, "velocity": 107}, {"time": 113948, "pitch": 64, "duration": 480, "velocity": 107}, {"time": 113958, "pitch": 50, "duration": 92, "velocity": 116}, {"time": 114194, "pitch": 50, "duration": 92, "velocity": 120}, {"time": 114438, "pitch": 53, "duration": 50, "velocity": 87}, {"time": 114668, "pitch": 59, "duration": 170, "velocity": 120}, {"time": 114668, "pitch": 64, "duration": 180, "velocity": 124}, {"time": 114678, "pitch": 31, "duration": 1031, "velocity": 124}, {"time": 114678, "pitch": 43, "duration": 100, "velocity": 127}, {"time": 114678, "pitch": 53, "duration": 150, "velocity": 124}, {"time": 115040, "pitch": 43, "duration": 162, "velocity": 120}, {"time": 115151, "pitch": 64, "duration": 223, "velocity": 120}, {"time": 115151, "pitch": 69, "duration": 213, "velocity": 112}, {"time": 115161, "pitch": 59, "duration": 233, "velocity": 116}, {"time": 115404, "pitch": 43, "duration": 127, "velocity": 120}, {"time": 115521, "pitch": 59, "duration": 138, "velocity": 112}, {"time": 115521, "pitch": 63, "duration": 168, "velocity": 113}, {"time": 115521, "pitch": 68, "duration": 168, "velocity": 123}, {"time": 115650, "pitch": 43, "duration": 108, "velocity": 124}, {"time": 115867, "pitch": 33, "duration": 524, "velocity": 107}, {"time": 115867, "pitch": 45, "duration": 168, "velocity": 107}, {"time": 115877, "pitch": 60, "duration": 316, "velocity": 107}, {"time": 115877, "pitch": 62, "duration": 316, "velocity": 112}, {"time": 115877, "pitch": 67, "duration": 336, "velocity": 116}, {"time": 116094, "pitch": 45, "duration": 306, "velocity": 70}, {"time": 116371, "pitch": 60, "duration": 285, "velocity": 116}, {"time": 116371, "pitch": 62, "duration": 275, "velocity": 120}, {"time": 116371, "pitch": 67, "duration": 266, "velocity": 120}, {"time": 116597, "pitch": 33, "duration": 59, "velocity": 112}, {"time": 116597, "pitch": 45, "duration": 79, "velocity": 112}, {"time": 116835, "pitch": 43, "duration": 500, "velocity": 120}, {"time": 116835, "pitch": 59, "duration": 350, "velocity": 112}, {"time": 116835, "pitch": 60, "duration": 350, "velocity": 107}, {"time": 116835, "pitch": 64, "duration": 350, "velocity": 99}, {"time": 116835, "pitch": 67, "duration": 350, "velocity": 116}, {"time": 116845, "pitch": 31, "duration": 739, "velocity": 120}, {"time": 117305, "pitch": 60, "duration": 249, "velocity": 116}, {"time": 117305, "pitch": 67, "duration": 269, "velocity": 112}, {"time": 117315, "pitch": 59, "duration": 199, "velocity": 116}, {"time": 117315, "pitch": 64, "duration": 259, "velocity": 116}, {"time": 117534, "pitch": 43, "duration": 50, "velocity": 116}, {"time": 117784, "pitch": 26, "duration": 744, "velocity": 120}, {"time": 117784, "pitch": 38, "duration": 111, "velocity": 120}, {"time": 117784, "pitch": 64, "duration": 222, "velocity": 112}, {"time": 117793, "pitch": 55, "duration": 203, "velocity": 99}, {"time": 117793, "pitch": 60, "duration": 224, "velocity": 103}, {"time": 118027, "pitch": 38, "duration": 271, "velocity": 112}, {"time": 118269, "pitch": 57, "duration": 169, "velocity": 120}, {"time": 118269, "pitch": 62, "duration": 229, "velocity": 124}, {"time": 118269, "pitch": 66, "duration": 229, "velocity": 123}, {"time": 118508, "pitch": 38, "duration": 330, "velocity": 112}, {"time": 118738, "pitch": 26, "duration": 709, "velocity": 124}, {"time": 118738, "pitch": 60, "duration": 210, "velocity": 127}, {"time": 118738, "pitch": 64, "duration": 220, "velocity": 127}, {"time": 118738, "pitch": 67, "duration": 230, "velocity": 127}, {"time": 118978, "pitch": 38, "duration": 289, "velocity": 103}, {"time": 119207, "pitch": 62, "duration": 210, "velocity": 124}, {"time": 119207, "pitch": 66, "duration": 230, "velocity": 123}, {"time": 119207, "pitch": 69, "duration": 200, "velocity": 120}, {"time": 119447, "pitch": 38, "duration": 40, "velocity": 112}, {"time": 119697, "pitch": 43, "duration": 150, "velocity": 120}, {"time": 119697, "pitch": 71, "duration": 340, "velocity": 112}, {"time": 119707, "pitch": 31, "duration": 739, "velocity": 120}, {"time": 119707, "pitch": 62, "duration": 320, "velocity": 120}, {"time": 119707, "pitch": 67, "duration": 320, "velocity": 120}, {"time": 119967, "pitch": 43, "duration": 100, "velocity": 32}, {"time": 120176, "pitch": 62, "duration": 130, "velocity": 112}, {"time": 120176, "pitch": 67, "duration": 200, "velocity": 107}, {"time": 120176, "pitch": 71, "duration": 370, "velocity": 103}, {"time": 120286, "pitch": 43, "duration": 461, "velocity": 116}, {"time": 120416, "pitch": 62, "duration": 140, "velocity": 103}, {"time": 120526, "pitch": 67, "duration": 90, "velocity": 99}, {"time": 120656, "pitch": 31, "duration": 805, "velocity": 107}, {"time": 120656, "pitch": 60, "duration": 395, "velocity": 112}, {"time": 120656, "pitch": 65, "duration": 385, "velocity": 107}, {"time": 120656, "pitch": 69, "duration": 354, "velocity": 99}, {"time": 120899, "pitch": 43, "duration": 273, "velocity": 107}, {"time": 121152, "pitch": 60, "duration": 119, "velocity": 107}, {"time": 121152, "pitch": 65, "duration": 159, "velocity": 116}, {"time": 121152, "pitch": 69, "duration": 359, "velocity": 107}, {"time": 121261, "pitch": 43, "duration": 463, "velocity": 116}, {"time": 121391, "pitch": 60, "duration": 150, "velocity": 103}, {"time": 121501, "pitch": 65, "duration": 60, "velocity": 99}, {"time": 121632, "pitch": 59, "duration": 307, "velocity": 112}, {"time": 121632, "pitch": 62, "duration": 328, "velocity": 116}, {"time": 121632, "pitch": 67, "duration": 277, "velocity": 112}, {"time": 121642, "pitch": 31, "duration": 690, "velocity": 103}, {"time": 121868, "pitch": 43, "duration": 164, "velocity": 107}, {"time": 122123, "pitch": 59, "duration": 129, "velocity": 103}, {"time": 122123, "pitch": 67, "duration": 359, "velocity": 112}, {"time": 122133, "pitch": 62, "duration": 159, "velocity": 107}, {"time": 122242, "pitch": 43, "duration": 420, "velocity": 112}, {"time": 122372, "pitch": 59, "duration": 140, "velocity": 78}, {"time": 122482, "pitch": 62, "duration": 60, "velocity": 87}, {"time": 122602, "pitch": 60, "duration": 270, "velocity": 112}, {"time": 122612, "pitch": 31, "duration": 759, "velocity": 103}, {"time": 122612, "pitch": 57, "duration": 250, "velocity": 112}, {"time": 122612, "pitch": 65, "duration": 260, "velocity": 112}, {"time": 122852, "pitch": 43, "duration": 329, "velocity": 124}, {"time": 122972, "pitch": 57, "duration": 40, "velocity": 43}, {"time": 122972, "pitch": 60, "duration": 40, "velocity": 90}, {"time": 123092, "pitch": 57, "duration": 59, "velocity": 103}, {"time": 123092, "pitch": 60, "duration": 39, "velocity": 116}, {"time": 123191, "pitch": 57, "duration": 140, "velocity": 127}, {"time": 123201, "pitch": 60, "duration": 190, "velocity": 127}, {"time": 123321, "pitch": 43, "duration": 80, "velocity": 127}, {"time": 123431, "pitch": 57, "duration": 50, "velocity": 103}, {"time": 123561, "pitch": 55, "duration": 370, "velocity": 103}, {"time": 123561, "pitch": 60, "duration": 380, "velocity": 103}, {"time": 123561, "pitch": 64, "duration": 360, "velocity": 107}, {"time": 123571, "pitch": 36, "duration": 799, "velocity": 99}, {"time": 123571, "pitch": 48, "duration": 479, "velocity": 103}, {"time": 124060, "pitch": 55, "duration": 120, "velocity": 103}, {"time": 124060, "pitch": 60, "duration": 180, "velocity": 107}, {"time": 124060, "pitch": 64, "duration": 250, "velocity": 103}, {"time": 124170, "pitch": 48, "duration": 370, "velocity": 99}, {"time": 124290, "pitch": 55, "duration": 110, "velocity": 90}, {"time": 124400, "pitch": 60, "duration": 60, "velocity": 84}, {"time": 124520, "pitch": 36, "duration": 759, "velocity": 96}, {"time": 124520, "pitch": 57, "duration": 130, "velocity": 103}, {"time": 124520, "pitch": 62, "duration": 190, "velocity": 112}, {"time": 124520, "pitch": 66, "duration": 270, "velocity": 109}, {"time": 124630, "pitch": 48, "duration": 639, "velocity": 103}, {"time": 124760, "pitch": 57, "duration": 409, "velocity": 90}, {"time": 124880, "pitch": 62, "duration": 159, "velocity": 90}, {"time": 125009, "pitch": 69, "duration": 160, "velocity": 124}, {"time": 125119, "pitch": 66, "duration": 270, "velocity": 105}, {"time": 125239, "pitch": 62, "duration": 80, "velocity": 99}, {"time": 125349, "pitch": 57, "duration": 80, "velocity": 81}, {"time": 125469, "pitch": 35, "duration": 759, "velocity": 84}, {"time": 125469, "pitch": 61, "duration": 260, "velocity": 113}, {"time": 125479, "pitch": 62, "duration": 270, "velocity": 103}, {"time": 125479, "pitch": 66, "duration": 290, "velocity": 113}, {"time": 125599, "pitch": 47, "duration": 489, "velocity": 96}, {"time": 125729, "pitch": 57, "duration": 150, "velocity": 99}, {"time": 125849, "pitch": 61, "duration": 149, "velocity": 127}, {"time": 125958, "pitch": 62, "duration": 160, "velocity": 112}, {"time": 126078, "pitch": 66, "duration": 260, "velocity": 118}, {"time": 126198, "pitch": 47, "duration": 80, "velocity": 116}, {"time": 126308, "pitch": 57, "duration": 70, "velocity": 84}, {"time": 126438, "pitch": 40, "duration": 815, "velocity": 99}, {"time": 126438, "pitch": 55, "duration": 132, "velocity": 99}, {"time": 126438, "pitch": 59, "duration": 243, "velocity": 103}, {"time": 126438, "pitch": 62, "duration": 233, "velocity": 103}, {"time": 126560, "pitch": 52, "duration": 263, "velocity": 99}, {"time": 126681, "pitch": 55, "duration": 61, "velocity": 93}, {"time": 126803, "pitch": 57, "duration": 171, "velocity": 103}, {"time": 126803, "pitch": 62, "duration": 171, "velocity": 120}, {"time": 126934, "pitch": 52, "duration": 100, "velocity": 52}, {"time": 127043, "pitch": 55, "duration": 120, "velocity": 99}, {"time": 127043, "pitch": 59, "duration": 210, "velocity": 99}, {"time": 127043, "pitch": 62, "duration": 220, "velocity": 107}, {"time": 127163, "pitch": 52, "duration": 50, "velocity": 99}, {"time": 127293, "pitch": 55, "duration": 70, "velocity": 87}, {"time": 127403, "pitch": 64, "duration": 270, "velocity": 112}, {"time": 127413, "pitch": 33, "duration": 659, "velocity": 96}, {"time": 127413, "pitch": 55, "duration": 140, "velocity": 99}, {"time": 127413, "pitch": 60, "duration": 240, "velocity": 103}, {"time": 127533, "pitch": 45, "duration": 589, "velocity": 96}, {"time": 127653, "pitch": 55, "duration": 220, "velocity": 96}, {"time": 127773, "pitch": 60, "duration": 160, "velocity": 112}, {"time": 127903, "pitch": 64, "duration": 109, "velocity": 116}, {"time": 128012, "pitch": 59, "duration": 130, "velocity": 112}, {"time": 128122, "pitch": 60, "duration": 190, "velocity": 124}, {"time": 128242, "pitch": 64, "duration": 90, "velocity": 116}, {"time": 128362, "pitch": 60, "duration": 160, "velocity": 103}, {"time": 128372, "pitch": 38, "duration": 819, "velocity": 112}, {"time": 128372, "pitch": 64, "duration": 160, "velocity": 116}, {"time": 128372, "pitch": 67, "duration": 150, "velocity": 112}, {"time": 128492, "pitch": 50, "duration": 230, "velocity": 87}, {"time": 128592, "pitch": 64, "duration": 60, "velocity": 44}, {"time": 128602, "pitch": 55, "duration": 60, "velocity": 73}, {"time": 128602, "pitch": 60, "duration": 60, "velocity": 56}, {"time": 128732, "pitch": 55, "duration": 159, "velocity": 116}, {"time": 128732, "pitch": 60, "duration": 169, "velocity": 116}, {"time": 128732, "pitch": 64, "duration": 159, "velocity": 107}, {"time": 128862, "pitch": 50, "duration": 89, "velocity": 63}, {"time": 128951, "pitch": 60, "duration": 240, "velocity": 107}, {"time": 128961, "pitch": 55, "duration": 120, "velocity": 112}, {"time": 128961, "pitch": 64, "duration": 240, "velocity": 103}, {"time": 129081, "pitch": 50, "duration": 70, "velocity": 112}, {"time": 129201, "pitch": 55, "duration": 280, "velocity": 93}, {"time": 129321, "pitch": 31, "duration": 829, "velocity": 112}, {"time": 129321, "pitch": 59, "duration": 220, "velocity": 103}, {"time": 129321, "pitch": 62, "duration": 230, "velocity": 116}, {"time": 129441, "pitch": 43, "duration": 409, "velocity": 103}, {"time": 129571, "pitch": 55, "duration": 60, "velocity": 93}, {"time": 129691, "pitch": 57, "duration": 40, "velocity": 112}, {"time": 129691, "pitch": 62, "duration": 50, "velocity": 107}, {"time": 129810, "pitch": 57, "duration": 90, "velocity": 124}, {"time": 129810, "pitch": 62, "duration": 280, "velocity": 124}, {"time": 129930, "pitch": 59, "duration": 130, "velocity": 99}, {"time": 130050, "pitch": 55, "duration": 80, "velocity": 120}, {"time": 130150, "pitch": 43, "duration": 150, "velocity": 124}, {"time": 130270, "pitch": 57, "duration": 140, "velocity": 116}, {"time": 130280, "pitch": 31, "duration": 629, "velocity": 124}, {"time": 130280, "pitch": 60, "duration": 210, "velocity": 120}, {"time": 130280, "pitch": 65, "duration": 310, "velocity": 124}, {"time": 130390, "pitch": 43, "duration": 379, "velocity": 120}, {"time": 130520, "pitch": 57, "duration": 140, "velocity": 93}, {"time": 130640, "pitch": 60, "duration": 50, "velocity": 96}, {"time": 130769, "pitch": 59, "duration": 150, "velocity": 116}, {"time": 130769, "pitch": 62, "duration": 270, "velocity": 116}, {"time": 130769, "pitch": 67, "duration": 270, "velocity": 124}, {"time": 130879, "pitch": 43, "duration": 260, "velocity": 124}, {"time": 131009, "pitch": 31, "duration": 110, "velocity": 127}, {"time": 131259, "pitch": 36, "duration": 719, "velocity": 127}, {"time": 131259, "pitch": 48, "duration": 599, "velocity": 127}, {"time": 131259, "pitch": 67, "duration": 130, "velocity": 120}, {"time": 131369, "pitch": 62, "duration": 160, "velocity": 93}, {"time": 131499, "pitch": 63, "duration": 189, "velocity": 101}, {"time": 131609, "pitch": 67, "duration": 159, "velocity": 103}, {"time": 131738, "pitch": 70, "duration": 250, "velocity": 94}, {"time": 131838, "pitch": 62, "duration": 180, "velocity": 116}, {"time": 131968, "pitch": 63, "duration": 180, "velocity": 105}, {"time": 132078, "pitch": 67, "duration": 141, "velocity": 107}, {"time": 132198, "pitch": 29, "duration": 263, "velocity": 127}, {"time": 132198, "pitch": 41, "duration": 294, "velocity": 124}, {"time": 132198, "pitch": 69, "duration": 132, "velocity": 107}, {"time": 132310, "pitch": 60, "duration": 162, "velocity": 87}, {"time": 132441, "pitch": 70, "duration": 142, "velocity": 127}, {"time": 132552, "pitch": 60, "duration": 132, "velocity": 99}, {"time": 132674, "pitch": 33, "duration": 239, "velocity": 112}, {"time": 132684, "pitch": 45, "duration": 259, "velocity": 120}, {"time": 132684, "pitch": 72, "duration": 199, "velocity": 120}, {"time": 132803, "pitch": 60, "duration": 150, "velocity": 93}, {"time": 132923, "pitch": 69, "duration": 130, "velocity": 103}, {"time": 133043, "pitch": 60, "duration": 70, "velocity": 99}, {"time": 133153, "pitch": 34, "duration": 749, "velocity": 113}, {"time": 133153, "pitch": 46, "duration": 679, "velocity": 118}, {"time": 133153, "pitch": 65, "duration": 190, "velocity": 120}, {"time": 133273, "pitch": 53, "duration": 160, "velocity": 96}, {"time": 133393, "pitch": 58, "duration": 160, "velocity": 105}, {"time": 133513, "pitch": 60, "duration": 130, "velocity": 107}, {"time": 133633, "pitch": 65, "duration": 209, "velocity": 120}, {"time": 133752, "pitch": 53, "duration": 170, "velocity": 87}, {"time": 133872, "pitch": 58, "duration": 150, "velocity": 91}, {"time": 133992, "pitch": 60, "duration": 130, "velocity": 99}, {"time": 134122, "pitch": 31, "duration": 849, "velocity": 127}, {"time": 134122, "pitch": 65, "duration": 210, "velocity": 116}, {"time": 134132, "pitch": 43, "duration": 879, "velocity": 127}, {"time": 134242, "pitch": 53, "duration": 170, "velocity": 93}, {"time": 134362, "pitch": 58, "duration": 140, "velocity": 87}, {"time": 134482, "pitch": 63, "duration": 70, "velocity": 113}, {"time": 134602, "pitch": 70, "duration": 149, "velocity": 109}, {"time": 134721, "pitch": 58, "duration": 140, "velocity": 97}, {"time": 134831, "pitch": 63, "duration": 150, "velocity": 101}, {"time": 134951, "pitch": 70, "duration": 60, "velocity": 105}, {"time": 135081, "pitch": 42, "duration": 270, "velocity": 127}, {"time": 135081, "pitch": 74, "duration": 210, "velocity": 120}, {"time": 135091, "pitch": 30, "duration": 340, "velocity": 123}, {"time": 135191, "pitch": 62, "duration": 160, "velocity": 93}, {"time": 135321, "pitch": 69, "duration": 130, "velocity": 99}, {"time": 135431, "pitch": 62, "duration": 130, "velocity": 112}, {"time": 135561, "pitch": 26, "duration": 269, "velocity": 124}, {"time": 135561, "pitch": 38, "duration": 299, "velocity": 120}, {"time": 135561, "pitch": 74, "duration": 139, "velocity": 120}, {"time": 135680, "pitch": 62, "duration": 120, "velocity": 87}, {"time": 135810, "pitch": 72, "duration": 140, "velocity": 124}, {"time": 135920, "pitch": 62, "duration": 110, "velocity": 99}, {"time": 136040, "pitch": 43, "duration": 300, "velocity": 116}, {"time": 136040, "pitch": 72, "duration": 170, "velocity": 116}, {"time": 136050, "pitch": 31, "duration": 330, "velocity": 120}, {"time": 136160, "pitch": 62, "duration": 130, "velocity": 107}, {"time": 136260, "pitch": 70, "duration": 150, "velocity": 97}, {"time": 136390, "pitch": 62, "duration": 100, "velocity": 112}, {"time": 136499, "pitch": 69, "duration": 140, "velocity": 112}, {"time": 136509, "pitch": 29, "duration": 310, "velocity": 124}, {"time": 136509, "pitch": 41, "duration": 290, "velocity": 120}, {"time": 136509, "pitch": 67, "duration": 140, "velocity": 107}, {"time": 136619, "pitch": 60, "duration": 130, "velocity": 99}, {"time": 136749, "pitch": 70, "duration": 130, "velocity": 113}, {"time": 136859, "pitch": 60, "duration": 90, "velocity": 93}, {"time": 136989, "pitch": 27, "duration": 1724, "velocity": 118}, {"time": 136989, "pitch": 39, "duration": 370, "velocity": 113}, {"time": 136989, "pitch": 67, "duration": 100, "velocity": 112}, {"time": 137119, "pitch": 58, "duration": 60, "velocity": 91}, {"time": 137239, "pitch": 63, "duration": 30, "velocity": 97}, {"time": 137349, "pitch": 63, "duration": 169, "velocity": 127}, {"time": 137359, "pitch": 58, "duration": 159, "velocity": 105}, {"time": 137468, "pitch": 39, "duration": 250, "velocity": 105}, {"time": 137578, "pitch": 53, "duration": 60, "velocity": 75}, {"time": 137708, "pitch": 53, "duration": 40, "velocity": 81}, {"time": 137708, "pitch": 58, "duration": 50, "velocity": 87}, {"time": 137708, "pitch": 63, "duration": 50, "velocity": 91}, {"time": 137828, "pitch": 53, "duration": 140, "velocity": 124}, {"time": 137828, "pitch": 58, "duration": 211, "velocity": 109}, {"time": 137828, "pitch": 63, "duration": 242, "velocity": 109}, {"time": 137958, "pitch": 39, "duration": 446, "velocity": 127}, {"time": 138080, "pitch": 53, "duration": 50, "velocity": 93}, {"time": 138191, "pitch": 58, "duration": 51, "velocity": 97}, {"time": 138312, "pitch": 53, "duration": 152, "velocity": 120}, {"time": 138312, "pitch": 58, "duration": 162, "velocity": 94}, {"time": 138312, "pitch": 63, "duration": 172, "velocity": 113}, {"time": 138434, "pitch": 39, "duration": 110, "velocity": 113}, {"time": 138554, "pitch": 53, "duration": 109, "velocity": 127}, {"time": 138554, "pitch": 58, "duration": 139, "velocity": 123}, {"time": 138563, "pitch": 63, "duration": 220, "velocity": 127}, {"time": 138683, "pitch": 39, "duration": 70, "velocity": 127}, {"time": 138793, "pitch": 58, "duration": 50, "velocity": 109}, {"time": 138913, "pitch": 38, "duration": 749, "velocity": 124}, {"time": 138913, "pitch": 62, "duration": 230, "velocity": 124}, {"time": 138923, "pitch": 57, "duration": 140, "velocity": 127}, {"time": 138923, "pitch": 67, "duration": 290, "velocity": 120}, {"time": 139033, "pitch": 50, "duration": 370, "velocity": 103}, {"time": 139163, "pitch": 57, "duration": 120, "velocity": 103}, {"time": 139273, "pitch": 62, "duration": 80, "velocity": 99}, {"time": 139393, "pitch": 67, "duration": 379, "velocity": 120}, {"time": 139403, "pitch": 57, "duration": 129, "velocity": 112}, {"time": 139403, "pitch": 62, "duration": 189, "velocity": 112}, {"time": 139522, "pitch": 50, "duration": 60, "velocity": 107}, {"time": 139642, "pitch": 57, "duration": 150, "velocity": 103}, {"time": 139762, "pitch": 62, "duration": 60, "velocity": 97}, {"time": 139892, "pitch": 26, "duration": 829, "velocity": 127}, {"time": 139892, "pitch": 38, "duration": 260, "velocity": 127}, {"time": 139892, "pitch": 57, "duration": 140, "velocity": 116}, {"time": 139892, "pitch": 62, "duration": 170, "velocity": 103}, {"time": 139892, "pitch": 66, "duration": 160, "velocity": 109}, {"time": 140122, "pitch": 67, "duration": 140, "velocity": 120}, {"time": 140132, "pitch": 57, "duration": 140, "velocity": 120}, {"time": 140132, "pitch": 62, "duration": 160, "velocity": 116}, {"time": 140242, "pitch": 38, "duration": 150, "velocity": 103}, {"time": 140372, "pitch": 57, "duration": 149, "velocity": 124}, {"time": 140372, "pitch": 62, "duration": 169, "velocity": 127}, {"time": 140372, "pitch": 69, "duration": 149, "velocity": 124}, {"time": 140481, "pitch": 38, "duration": 120, "velocity": 107}, {"time": 140601, "pitch": 57, "duration": 130, "velocity": 120}, {"time": 140601, "pitch": 62, "duration": 180, "velocity": 116}, {"time": 140601, "pitch": 66, "duration": 160, "velocity": 118}, {"time": 140721, "pitch": 38, "duration": 70, "velocity": 116}, {"time": 140831, "pitch": 62, "duration": 180, "velocity": 112}, {"time": 140841, "pitch": 31, "duration": 1798, "velocity": 124}, {"time": 140841, "pitch": 59, "duration": 190, "velocity": 116}, {"time": 140841, "pitch": 67, "duration": 170, "velocity": 127}, {"time": 141081, "pitch": 43, "duration": 369, "velocity": 124}, {"time": 141191, "pitch": 62, "duration": 50, "velocity": 84}, {"time": 141201, "pitch": 57, "duration": 50, "velocity": 78}, {"time": 141321, "pitch": 57, "duration": 139, "velocity": 127}, {"time": 141321, "pitch": 62, "duration": 139, "velocity": 127}, {"time": 141430, "pitch": 59, "duration": 70, "velocity": 93}, {"time": 141560, "pitch": 55, "duration": 30, "velocity": 99}, {"time": 141680, "pitch": 59, "duration": 120, "velocity": 127}, {"time": 141690, "pitch": 62, "duration": 180, "velocity": 127}, {"time": 141690, "pitch": 67, "duration": 190, "velocity": 127}, {"time": 141810, "pitch": 43, "duration": 380, "velocity": 120}, {"time": 141930, "pitch": 59, "duration": 180, "velocity": 90}, {"time": 142040, "pitch": 62, "duration": 90, "velocity": 93}, {"time": 142150, "pitch": 69, "duration": 209, "velocity": 120}, {"time": 142289, "pitch": 43, "duration": 110, "velocity": 112}, {"time": 142399, "pitch": 59, "duration": 140, "velocity": 116}, {"time": 142399, "pitch": 67, "duration": 230, "velocity": 107}, {"time": 142509, "pitch": 43, "duration": 240, "velocity": 127}, {"time": 142619, "pitch": 59, "duration": 40, "velocity": 112}, {"time": 142749, "pitch": 31, "duration": 1824, "velocity": 127}, {"time": 142749, "pitch": 60, "duration": 120, "velocity": 124}, {"time": 142749, "pitch": 65, "duration": 190, "velocity": 120}, {"time": 142749, "pitch": 69, "duration": 270, "velocity": 107}, {"time": 142869, "pitch": 43, "duration": 1193, "velocity": 127}, {"time": 142989, "pitch": 60, "duration": 130, "velocity": 99}, {"time": 143099, "pitch": 65, "duration": 79, "velocity": 99}, {"time": 143218, "pitch": 72, "duration": 90, "velocity": 120}, {"time": 143308, "pitch": 69, "duration": 80, "velocity": 103}, {"time": 143378, "pitch": 65, "duration": 50, "velocity": 103}, {"time": 143468, "pitch": 69, "duration": 80, "velocity": 116}, {"time": 143548, "pitch": 65, "duration": 70, "velocity": 99}, {"time": 143628, "pitch": 60, "duration": 50, "velocity": 87}, {"time": 143718, "pitch": 65, "duration": 81, "velocity": 120}, {"time": 143799, "pitch": 60, "duration": 51, "velocity": 107}, {"time": 143870, "pitch": 57, "duration": 51, "velocity": 93}, {"time": 143961, "pitch": 60, "duration": 71, "velocity": 124}, {"time": 144042, "pitch": 57, "duration": 81, "velocity": 103}, {"time": 144123, "pitch": 53, "duration": 61, "velocity": 120}, {"time": 144194, "pitch": 43, "duration": 399, "velocity": 127}, {"time": 144323, "pitch": 57, "duration": 130, "velocity": 127}, {"time": 144443, "pitch": 60, "duration": 90, "velocity": 120}, {"time": 144553, "pitch": 65, "duration": 50, "velocity": 120}, {"time": 144683, "pitch": 36, "duration": 769, "velocity": 127}, {"time": 144693, "pitch": 67, "duration": 260, "velocity": 112}, {"time": 144803, "pitch": 48, "duration": 370, "velocity": 107}, {"time": 144923, "pitch": 55, "duration": 100, "velocity": 96}, {"time": 145033, "pitch": 60, "duration": 60, "velocity": 107}, {"time": 145153, "pitch": 55, "duration": 119, "velocity": 116}, {"time": 145153, "pitch": 60, "duration": 189, "velocity": 107}, {"time": 145153, "pitch": 64, "duration": 289, "velocity": 107}, {"time": 145272, "pitch": 48, "duration": 380, "velocity": 127}, {"time": 145402, "pitch": 55, "duration": 120, "velocity": 99}, {"time": 145512, "pitch": 60, "duration": 60, "velocity": 103}, {"time": 145632, "pitch": 62, "duration": 190, "velocity": 120}, {"time": 145642, "pitch": 36, "duration": 829, "velocity": 112}, {"time": 145642, "pitch": 57, "duration": 140, "velocity": 116}, {"time": 145642, "pitch": 66, "duration": 280, "velocity": 123}, {"time": 145752, "pitch": 48, "duration": 360, "velocity": 116}, {"time": 145882, "pitch": 57, "duration": 70, "velocity": 107}, {"time": 145992, "pitch": 62, "duration": 60, "velocity": 107}, {"time": 146112, "pitch": 57, "duration": 179, "velocity": 120}, {"time": 146112, "pitch": 62, "duration": 159, "velocity": 112}, {"time": 146112, "pitch": 69, "duration": 179, "velocity": 120}, {"time": 146231, "pitch": 66, "duration": 250, "velocity": 118}, {"time": 146251, "pitch": 63, "duration": 30, "velocity": 48}, {"time": 146351, "pitch": 62, "duration": 70, "velocity": 116}, {"time": 146461, "pitch": 57, "duration": 50, "velocity": 107}, {"time": 146471, "pitch": 48, "duration": 50, "velocity": 99}, {"time": 146591, "pitch": 35, "duration": 799, "velocity": 116}, {"time": 146591, "pitch": 61, "duration": 220, "velocity": 127}, {"time": 146591, "pitch": 62, "duration": 270, "velocity": 124}, {"time": 146591, "pitch": 66, "duration": 260, "velocity": 118}, {"time": 146711, "pitch": 47, "duration": 240, "velocity": 116}, {"time": 146831, "pitch": 57, "duration": 50, "velocity": 99}, {"time": 146941, "pitch": 57, "duration": 159, "velocity": 99}, {"time": 146941, "pitch": 61, "duration": 159, "velocity": 123}, {"time": 146941, "pitch": 62, "duration": 169, "velocity": 116}, {"time": 147081, "pitch": 47, "duration": 109, "velocity": 84}, {"time": 147190, "pitch": 57, "duration": 120, "velocity": 120}, {"time": 147190, "pitch": 61, "duration": 210, "velocity": 127}, {"time": 147190, "pitch": 62, "duration": 240, "velocity": 116}, {"time": 147190, "pitch": 66, "duration": 250, "velocity": 118}, {"time": 147310, "pitch": 47, "duration": 90, "velocity": 116}, {"time": 147420, "pitch": 57, "duration": 50, "velocity": 99}, {"time": 147540, "pitch": 64, "duration": 190, "velocity": 124}, {"time": 147550, "pitch": 32, "duration": 869, "velocity": 123}, {"time": 147550, "pitch": 44, "duration": 70, "velocity": 127}, {"time": 147550, "pitch": 59, "duration": 110, "velocity": 120}, {"time": 147550, "pitch": 62, "duration": 190, "velocity": 120}, {"time": 147670, "pitch": 44, "duration": 449, "velocity": 127}, {"time": 147790, "pitch": 59, "duration": 150, "velocity": 103}, {"time": 147900, "pitch": 62, "duration": 70, "velocity": 107}, {"time": 148029, "pitch": 59, "duration": 40, "velocity": 103}, {"time": 148029, "pitch": 62, "duration": 70, "velocity": 90}, {"time": 148029, "pitch": 64, "duration": 50, "velocity": 116}, {"time": 148139, "pitch": 59, "duration": 120, "velocity": 120}, {"time": 148139, "pitch": 62, "duration": 240, "velocity": 120}, {"time": 148139, "pitch": 71, "duration": 220, "velocity": 116}, {"time": 148149, "pitch": 64, "duration": 240, "velocity": 96}, {"time": 148159, "pitch": 65, "duration": 30, "velocity": 35}, {"time": 148259, "pitch": 44, "duration": 160, "velocity": 127}, {"time": 148379, "pitch": 59, "duration": 50, "velocity": 96}, {"time": 148499, "pitch": 59, "duration": 130, "velocity": 107}, {"time": 148499, "pitch": 64, "duration": 240, "velocity": 116}, {"time": 148499, "pitch": 67, "duration": 250, "velocity": 116}, {"time": 148509, "pitch": 33, "duration": 1744, "velocity": 112}, {"time": 148509, "pitch": 60, "duration": 200, "velocity": 116}, {"time": 148619, "pitch": 45, "duration": 260, "velocity": 99}, {"time": 148749, "pitch": 59, "duration": 40, "velocity": 96}, {"time": 148859, "pitch": 60, "duration": 20, "velocity": 112}, {"time": 148869, "pitch": 64, "duration": 40, "velocity": 103}, {"time": 148869, "pitch": 67, "duration": 30, "velocity": 99}, {"time": 148988, "pitch": 60, "duration": 190, "velocity": 124}, {"time": 148988, "pitch": 64, "duration": 250, "velocity": 116}, {"time": 148998, "pitch": 67, "duration": 170, "velocity": 116}, {"time": 149108, "pitch": 45, "duration": 431, "velocity": 103}, {"time": 149228, "pitch": 59, "duration": 70, "velocity": 70}, {"time": 149348, "pitch": 60, "duration": 110, "velocity": 120}, {"time": 149468, "pitch": 62, "duration": 122, "velocity": 116}, {"time": 149590, "pitch": 59, "duration": 50, "velocity": 96}, {"time": 149711, "pitch": 60, "duration": 152, "velocity": 90}, {"time": 149832, "pitch": 62, "duration": 122, "velocity": 112}, {"time": 149964, "pitch": 64, "duration": 149, "velocity": 124}, {"time": 150074, "pitch": 59, "duration": 129, "velocity": 103}, {"time": 150193, "pitch": 60, "duration": 160, "velocity": 96}, {"time": 150313, "pitch": 62, "duration": 390, "velocity": 112}, {"time": 150433, "pitch": 29, "duration": 1668, "velocity": 116}, {"time": 150443, "pitch": 57, "duration": 150, "velocity": 107}, {"time": 150443, "pitch": 60, "duration": 240, "velocity": 112}, {"time": 150443, "pitch": 67, "duration": 280, "velocity": 112}, {"time": 150563, "pitch": 41, "duration": 360, "velocity": 99}, {"time": 150693, "pitch": 57, "duration": 70, "velocity": 96}, {"time": 150823, "pitch": 60, "duration": 60, "velocity": 99}, {"time": 150833, "pitch": 57, "duration": 40, "velocity": 58}, {"time": 150833, "pitch": 62, "duration": 30, "velocity": 58}, {"time": 150933, "pitch": 60, "duration": 229, "velocity": 99}, {"time": 150933, "pitch": 62, "duration": 239, "velocity": 103}, {"time": 150943, "pitch": 57, "duration": 139, "velocity": 99}, {"time": 151052, "pitch": 41, "duration": 380, "velocity": 116}, {"time": 151162, "pitch": 57, "duration": 70, "velocity": 103}, {"time": 151292, "pitch": 60, "duration": 70, "velocity": 103}, {"time": 151402, "pitch": 62, "duration": 260, "velocity": 103}, {"time": 151522, "pitch": 41, "duration": 360, "velocity": 120}, {"time": 151642, "pitch": 57, "duration": 90, "velocity": 99}, {"time": 151752, "pitch": 60, "duration": 70, "velocity": 107}, {"time": 151872, "pitch": 57, "duration": 129, "velocity": 124}, {"time": 151872, "pitch": 60, "duration": 199, "velocity": 107}, {"time": 151872, "pitch": 65, "duration": 349, "velocity": 124}, {"time": 151981, "pitch": 41, "duration": 170, "velocity": 127}, {"time": 152111, "pitch": 57, "duration": 140, "velocity": 107}, {"time": 152231, "pitch": 60, "duration": 50, "velocity": 107}, {"time": 152351, "pitch": 38, "duration": 500, "velocity": 116}, {"time": 152351, "pitch": 53, "duration": 170, "velocity": 120}, {"time": 152351, "pitch": 57, "duration": 340, "velocity": 112}, {"time": 152351, "pitch": 60, "duration": 400, "velocity": 103}, {"time": 152351, "pitch": 64, "duration": 460, "velocity": 116}, {"time": 152491, "pitch": 50, "duration": 30, "velocity": 46}, {"time": 152591, "pitch": 50, "duration": 160, "velocity": 127}, {"time": 152711, "pitch": 53, "duration": 130, "velocity": 87}, {"time": 152821, "pitch": 57, "duration": 69, "velocity": 112}, {"time": 153080, "pitch": 43, "duration": 140, "velocity": 127}, {"time": 153080, "pitch": 53, "duration": 230, "velocity": 120}, {"time": 153080, "pitch": 59, "duration": 440, "velocity": 124}, {"time": 153080, "pitch": 64, "duration": 520, "velocity": 124}, {"time": 153090, "pitch": 31, "duration": 1049, "velocity": 127}, {"time": 153440, "pitch": 43, "duration": 389, "velocity": 127}, {"time": 153560, "pitch": 53, "duration": 100, "velocity": 99}, {"time": 153670, "pitch": 59, "duration": 70, "velocity": 107}, {"time": 153799, "pitch": 53, "duration": 110, "velocity": 120}, {"time": 153799, "pitch": 59, "duration": 180, "velocity": 112}, {"time": 153799, "pitch": 64, "duration": 110, "velocity": 124}, {"time": 153909, "pitch": 43, "duration": 100, "velocity": 56}, {"time": 154029, "pitch": 53, "duration": 90, "velocity": 120}, {"time": 154029, "pitch": 59, "duration": 100, "velocity": 120}, {"time": 154029, "pitch": 63, "duration": 110, "velocity": 118}, {"time": 154139, "pitch": 43, "duration": 110, "velocity": 107}, {"time": 154269, "pitch": 33, "duration": 829, "velocity": 99}, {"time": 154269, "pitch": 55, "duration": 150, "velocity": 124}, {"time": 154269, "pitch": 60, "duration": 260, "velocity": 116}, {"time": 154269, "pitch": 62, "duration": 250, "velocity": 120}, {"time": 154399, "pitch": 45, "duration": 399, "velocity": 103}, {"time": 154519, "pitch": 55, "duration": 259, "velocity": 107}, {"time": 154639, "pitch": 60, "duration": 179, "velocity": 112}, {"time": 154758, "pitch": 62, "duration": 140, "velocity": 116}, {"time": 154868, "pitch": 55, "duration": 150, "velocity": 99}, {"time": 154998, "pitch": 60, "duration": 160, "velocity": 116}, {"time": 155118, "pitch": 62, "duration": 130, "velocity": 116}, {"time": 155228, "pitch": 59, "duration": 132, "velocity": 99}, {"time": 155238, "pitch": 31, "duration": 815, "velocity": 127}, {"time": 155238, "pitch": 43, "duration": 51, "velocity": 116}, {"time": 155238, "pitch": 60, "duration": 233, "velocity": 120}, {"time": 155238, "pitch": 64, "duration": 274, "velocity": 116}, {"time": 155370, "pitch": 43, "duration": 364, "velocity": 127}, {"time": 155491, "pitch": 59, "duration": 122, "velocity": 103}, {"time": 155603, "pitch": 60, "duration": 81, "velocity": 103}, {"time": 155724, "pitch": 60, "duration": 159, "velocity": 124}, {"time": 155724, "pitch": 64, "duration": 279, "velocity": 120}, {"time": 155724, "pitch": 67, "duration": 289, "velocity": 116}, {"time": 155844, "pitch": 43, "duration": 159, "velocity": 127}, {"time": 155973, "pitch": 57, "duration": 110, "velocity": 99}, {"time": 156083, "pitch": 60, "duration": 100, "velocity": 107}, {"time": 156203, "pitch": 26, "duration": 769, "velocity": 124}, {"time": 156203, "pitch": 64, "duration": 280, "velocity": 116}, {"time": 156213, "pitch": 55, "duration": 160, "velocity": 120}, {"time": 156213, "pitch": 60, "duration": 210, "velocity": 99}, {"time": 156333, "pitch": 38, "duration": 370, "velocity": 120}, {"time": 156453, "pitch": 55, "duration": 120, "velocity": 90}, {"time": 156563, "pitch": 60, "duration": 60, "velocity": 107}, {"time": 156683, "pitch": 57, "duration": 129, "velocity": 120}, {"time": 156693, "pitch": 62, "duration": 189, "velocity": 120}, {"time": 156693, "pitch": 66, "duration": 279, "velocity": 123}, {"time": 156802, "pitch": 38, "duration": 390, "velocity": 120}, {"time": 156922, "pitch": 57, "duration": 90, "velocity": 103}, {"time": 157042, "pitch": 62, "duration": 70, "velocity": 99}, {"time": 157152, "pitch": 60, "duration": 130, "velocity": 127}, {"time": 157152, "pitch": 67, "duration": 290, "velocity": 127}, {"time": 157162, "pitch": 26, "duration": 739, "velocity": 124}, {"time": 157162, "pitch": 64, "duration": 230, "velocity": 124}, {"time": 157272, "pitch": 38, "duration": 370, "velocity": 120}, {"time": 157402, "pitch": 60, "duration": 130, "velocity": 112}, {"time": 157512, "pitch": 64, "duration": 60, "velocity": 107}, {"time": 157632, "pitch": 62, "duration": 139, "velocity": 127}, {"time": 157632, "pitch": 69, "duration": 289, "velocity": 120}, {"time": 157642, "pitch": 66, "duration": 239, "velocity": 127}, {"time": 157751, "pitch": 38, "duration": 190, "velocity": 127}, {"time": 157871, "pitch": 62, "duration": 150, "velocity": 120}, {"time": 157981, "pitch": 66, "duration": 90, "velocity": 101}, {"time": 158111, "pitch": 31, "duration": 749, "velocity": 127}, {"time": 158111, "pitch": 43, "duration": 60, "velocity": 127}, {"time": 158111, "pitch": 71, "duration": 260, "velocity": 120}, {"time": 158121, "pitch": 62, "duration": 150, "velocity": 127}, {"time": 158121, "pitch": 67, "duration": 220, "velocity": 124}, {"time": 158241, "pitch": 43, "duration": 869, "velocity": 120}, {"time": 158361, "pitch": 62, "duration": 200, "velocity": 96}, {"time": 158481, "pitch": 67, "duration": 159, "velocity": 90}, {"time": 158601, "pitch": 71, "duration": 219, "velocity": 90}, {"time": 158710, "pitch": 62, "duration": 270, "velocity": 99}, {"time": 158840, "pitch": 67, "duration": 170, "velocity": 87}, {"time": 158950, "pitch": 71, "duration": 70, "velocity": 84}, {"time": 159080, "pitch": 31, "duration": 729, "velocity": 93}, {"time": 159080, "pitch": 60, "duration": 140, "velocity": 99}, {"time": 159080, "pitch": 65, "duration": 220, "velocity": 93}, {"time": 159080, "pitch": 69, "duration": 260, "velocity": 90}, {"time": 159200, "pitch": 43, "duration": 859, "velocity": 90}, {"time": 159320, "pitch": 60, "duration": 170, "velocity": 84}, {"time": 159440, "pitch": 65, "duration": 159, "velocity": 78}, {"time": 159559, "pitch": 69, "duration": 180, "velocity": 78}, {"time": 159679, "pitch": 60, "duration": 220, "velocity": 75}, {"time": 159799, "pitch": 65, "duration": 140, "velocity": 73}, {"time": 159909, "pitch": 69, "duration": 50, "velocity": 73}, {"time": 160029, "pitch": 67, "duration": 260, "velocity": 81}, {"time": 160039, "pitch": 31, "duration": 759, "velocity": 73}, {"time": 160039, "pitch": 59, "duration": 140, "velocity": 73}, {"time": 160039, "pitch": 62, "duration": 220, "velocity": 81}, {"time": 160149, "pitch": 43, "duration": 890, "velocity": 93}, {"time": 160269, "pitch": 59, "duration": 259, "velocity": 70}, {"time": 160399, "pitch": 62, "duration": 179, "velocity": 75}, {"time": 160528, "pitch": 67, "duration": 150, "velocity": 81}, {"time": 160638, "pitch": 59, "duration": 200, "velocity": 63}, {"time": 160758, "pitch": 62, "duration": 160, "velocity": 58}, {"time": 160878, "pitch": 67, "duration": 50, "velocity": 75}, {"time": 161008, "pitch": 31, "duration": 650, "velocity": 73}, {"time": 161008, "pitch": 57, "duration": 132, "velocity": 58}, {"time": 161008, "pitch": 60, "duration": 172, "velocity": 70}, {"time": 161008, "pitch": 65, "duration": 253, "velocity": 68}, {"time": 161130, "pitch": 43, "duration": 528, "velocity": 68}, {"time": 161261, "pitch": 57, "duration": 152, "velocity": 58}, {"time": 161383, "pitch": 60, "duration": 139, "velocity": 63}, {"time": 161513, "pitch": 65, "duration": 116, "velocity": 73}, {"time": 161609, "pitch": 57, "duration": 147, "velocity": 58}, {"time": 161736, "pitch": 60, "duration": 146, "velocity": 70}, {"time": 161834, "pitch": 65, "duration": 58, "velocity": 75}, {"time": 161971, "pitch": 48, "duration": 3137, "velocity": 68}, {"time": 161971, "pitch": 55, "duration": 939, "velocity": 73}, {"time": 161971, "pitch": 60, "duration": 1039, "velocity": 78}, {"time": 161971, "pitch": 64, "duration": 1199, "velocity": 84}, {"time": 161981, "pitch": 36, "duration": 1678, "velocity": 58}, {"time": 163130, "pitch": 55, "duration": 519, "velocity": 50}, {"time": 163380, "pitch": 60, "duration": 289, "velocity": 68}, {"time": 163639, "pitch": 64, "duration": 50, "velocity": 84}, {"time": 163869, "pitch": 36, "duration": 1708, "velocity": 81}, {"time": 163879, "pitch": 57, "duration": 1089, "velocity": 70}, {"time": 163879, "pitch": 62, "duration": 1049, "velocity": 73}, {"time": 163879, "pitch": 66, "duration": 1079, "velocity": 87}, {"time": 165078, "pitch": 64, "duration": 259, "velocity": 81}, {"time": 165327, "pitch": 62, "duration": 220, "velocity": 78}, {"time": 165557, "pitch": 57, "duration": 70, "velocity": 73}, {"time": 165797, "pitch": 35, "duration": 1724, "velocity": 44}, {"time": 165797, "pitch": 47, "duration": 669, "velocity": 39}, {"time": 165797, "pitch": 55, "duration": 980, "velocity": 46}, {"time": 165797, "pitch": 59, "duration": 949, "velocity": 65}, {"time": 165797, "pitch": 62, "duration": 980, "velocity": 73}, {"time": 166969, "pitch": 57, "duration": 283, "velocity": 60}, {"time": 166979, "pitch": 62, "duration": 283, "velocity": 73}, {"time": 167222, "pitch": 47, "duration": 139, "velocity": 52}, {"time": 167352, "pitch": 57, "duration": 219, "velocity": 84}, {"time": 167352, "pitch": 62, "duration": 229, "velocity": 81}, {"time": 167701, "pitch": 57, "duration": 326, "velocity": 87}, {"time": 167701, "pitch": 62, "duration": 346, "velocity": 93}, {"time": 167711, "pitch": 34, "duration": 1752, "velocity": 77}, {"time": 167721, "pitch": 46, "duration": 178, "velocity": 77}, {"time": 168175, "pitch": 62, "duration": 349, "velocity": 81}, {"time": 168185, "pitch": 55, "duration": 289, "velocity": 70}, {"time": 168424, "pitch": 46, "duration": 310, "velocity": 71}, {"time": 168664, "pitch": 54, "duration": 330, "velocity": 84}, {"time": 168664, "pitch": 62, "duration": 300, "velocity": 90}, {"time": 168914, "pitch": 46, "duration": 250, "velocity": 71}, {"time": 169144, "pitch": 62, "duration": 229, "velocity": 93}, {"time": 169154, "pitch": 55, "duration": 229, "velocity": 84}, {"time": 169393, "pitch": 46, "duration": 70, "velocity": 101}, {"time": 169634, "pitch": 33, "duration": 1655, "velocity": 50}, {"time": 169634, "pitch": 45, "duration": 1655, "velocity": 60}, {"time": 169634, "pitch": 57, "duration": 976, "velocity": 84}, {"time": 169634, "pitch": 62, "duration": 1216, "velocity": 96}, {"time": 169634, "pitch": 66, "duration": 1485, "velocity": 91}, {"time": 170840, "pitch": 57, "duration": 499, "velocity": 81}, {"time": 171079, "pitch": 62, "duration": 300, "velocity": 93}, {"time": 171319, "pitch": 66, "duration": 70, "velocity": 87}, {"time": 171559, "pitch": 59, "duration": 659, "velocity": 60}, {"time": 171559, "pitch": 62, "duration": 689, "velocity": 78}, {"time": 171559, "pitch": 66, "duration": 649, "velocity": 71}, {"time": 171569, "pitch": 32, "duration": 1644, "velocity": 63}, {"time": 171569, "pitch": 44, "duration": 1664, "velocity": 60}, {"time": 172528, "pitch": 59, "duration": 645, "velocity": 65}, {"time": 172528, "pitch": 64, "duration": 526, "velocity": 78}, {"time": 173034, "pitch": 62, "duration": 159, "velocity": 75}, {"time": 173473, "pitch": 33, "duration": 1708, "velocity": 50}, {"time": 173473, "pitch": 45, "duration": 3696, "velocity": 56}, {"time": 173473, "pitch": 59, "duration": 639, "velocity": 63}, {"time": 173473, "pitch": 62, "duration": 580, "velocity": 60}, {"time": 173483, "pitch": 55, "duration": 599, "velocity": 58}, {"time": 174682, "pitch": 55, "duration": 260, "velocity": 56}, {"time": 174932, "pitch": 57, "duration": 269, "velocity": 63}, {"time": 175161, "pitch": 59, "duration": 80, "velocity": 56}, {"time": 175411, "pitch": 33, "duration": 1219, "velocity": 50}, {"time": 175411, "pitch": 52, "duration": 1838, "velocity": 37}, {"time": 175411, "pitch": 57, "duration": 1848, "velocity": 70}, {"time": 175411, "pitch": 59, "duration": 1848, "velocity": 56}, {"time": 175411, "pitch": 61, "duration": 1858, "velocity": 71}, {"time": 176969, "pitch": 33, "duration": 320, "velocity": 58}, {"time": 177629, "pitch": 57, "duration": 509, "velocity": 46}, {"time": 177669, "pitch": 62, "duration": 529, "velocity": 56}, {"time": 177699, "pitch": 64, "duration": 569, "velocity": 63}, {"time": 177758, "pitch": 38, "duration": 3382, "velocity": 70}, {"time": 177758, "pitch": 66, "duration": 541, "velocity": 87}, {"time": 177988, "pitch": 45, "duration": 1485, "velocity": 43}, {"time": 178158, "pitch": 50, "duration": 1694, "velocity": 56}, {"time": 178309, "pitch": 57, "duration": 475, "velocity": 54}, {"time": 178460, "pitch": 62, "duration": 364, "velocity": 50}, {"time": 178633, "pitch": 64, "duration": 221, "velocity": 32}, {"time": 178834, "pitch": 69, "duration": 40, "velocity": 41}, {"time": 179053, "pitch": 74, "duration": 250, "velocity": 56}, {"time": 179323, "pitch": 81, "duration": 60, "velocity": 40}, {"time": 179673, "pitch": 86, "duration": 40, "velocity": 37}, {"time": 180092, "pitch": 93, "duration": 80, "velocity": 31}, {"time": 180712, "pitch": 26, "duration": 359, "velocity": 31}, {"time": 4329, "pitch": 59, "duration": 1919, "velocity": 85}, {"time": 6248, "pitch": 58, "duration": 1917, "velocity": 101}, {"time": 8181, "pitch": 57, "duration": 1935, "velocity": 89}, {"time": 10116, "pitch": 56, "duration": 1880, "velocity": 99}, {"time": 12005, "pitch": 57, "duration": 1934, "velocity": 97}, {"time": 13923, "pitch": 45, "duration": 1984, "velocity": 95}, {"time": 83057, "pitch": 50, "duration": 7637, "velocity": 111}, {"time": 90758, "pitch": 50, "duration": 3792, "velocity": 107}, {"time": 94543, "pitch": 54, "duration": 1110, "velocity": 111}, {"time": 95694, "pitch": 47, "duration": 953, "velocity": 115}, {"time": 96637, "pitch": 54, "duration": 960, "velocity": 125}, {"time": 97606, "pitch": 47, "duration": 965, "velocity": 115}, {"time": 98561, "pitch": 50, "duration": 3834, "velocity": 113}, {"time": 102405, "pitch": 55, "duration": 3834, "velocity": 123}, {"time": 106239, "pitch": 48, "duration": 1850, "velocity": 121}, {"time": 108109, "pitch": 47, "duration": 769, "velocity": 113}, {"time": 108878, "pitch": 53, "duration": 256, "velocity": 117}, {"time": 109134, "pitch": 52, "duration": 949, "velocity": 117}, {"time": 110093, "pitch": 45, "duration": 1598, "velocity": 119}, {"time": 111791, "pitch": 52, "duration": 60, "velocity": 121}, {"time": 112011, "pitch": 53, "duration": 1446, "velocity": 123}, {"time": 113437, "pitch": 52, "duration": 470, "velocity": 115}, {"time": 113917, "pitch": 50, "duration": 711, "velocity": 115}, {"time": 114668, "pitch": 43, "duration": 1219, "velocity": 119}, {"time": 115847, "pitch": 45, "duration": 938, "velocity": 126}, {"time": 116785, "pitch": 43, "duration": 959, "velocity": 115}, {"time": 117754, "pitch": 50, "duration": 1923, "velocity": 121}, {"time": 119677, "pitch": 55, "duration": 3854, "velocity": 125}, {"time": 123561, "pitch": 48, "duration": 1888, "velocity": 127}, {"time": 125449, "pitch": 47, "duration": 949, "velocity": 123}, {"time": 126408, "pitch": 52, "duration": 506, "velocity": 121}, {"time": 126914, "pitch": 47, "duration": 219, "velocity": 121}, {"time": 127143, "pitch": 46, "duration": 230, "velocity": 127}, {"time": 127383, "pitch": 45, "duration": 969, "velocity": 126}, {"time": 128352, "pitch": 50, "duration": 949, "velocity": 125}, {"time": 129311, "pitch": 43, "duration": 739, "velocity": 123}, {"time": 130150, "pitch": 43, "duration": 30, "velocity": 127}, {"time": 130270, "pitch": 43, "duration": 959, "velocity": 127}, {"time": 131229, "pitch": 48, "duration": 949, "velocity": 123}, {"time": 132178, "pitch": 41, "duration": 516, "velocity": 121}, {"time": 132694, "pitch": 45, "duration": 439, "velocity": 126}, {"time": 133153, "pitch": 46, "duration": 929, "velocity": 127}, {"time": 134092, "pitch": 43, "duration": 959, "velocity": 125}, {"time": 135051, "pitch": 54, "duration": 470, "velocity": 127}, {"time": 135531, "pitch": 50, "duration": 499, "velocity": 126}, {"time": 136040, "pitch": 43, "duration": 469, "velocity": 126}, {"time": 136509, "pitch": 41, "duration": 460, "velocity": 121}, {"time": 136979, "pitch": 51, "duration": 1924, "velocity": 127}, {"time": 138903, "pitch": 50, "duration": 1908, "velocity": 127}, {"time": 140831, "pitch": 55, "duration": 3822, "velocity": 123}, {"time": 144653, "pitch": 48, "duration": 1848, "velocity": 121}, {"time": 146521, "pitch": 47, "duration": 759, "velocity": 113}, {"time": 147280, "pitch": 53, "duration": 250, "velocity": 117}, {"time": 147530, "pitch": 52, "duration": 949, "velocity": 117}, {"time": 148489, "pitch": 45, "duration": 1604, "velocity": 119}, {"time": 150193, "pitch": 52, "duration": 60, "velocity": 121}, {"time": 150413, "pitch": 53, "duration": 1459, "velocity": 123}, {"time": 151852, "pitch": 52, "duration": 469, "velocity": 115}, {"time": 152331, "pitch": 50, "duration": 699, "velocity": 115}, {"time": 153070, "pitch": 43, "duration": 1219, "velocity": 119}, {"time": 154249, "pitch": 45, "duration": 949, "velocity": 126}, {"time": 155198, "pitch": 43, "duration": 965, "velocity": 115}, {"time": 156173, "pitch": 50, "duration": 1918, "velocity": 121}, {"time": 158091, "pitch": 55, "duration": 3831, "velocity": 125}, {"time": 173493, "pitch": 45, "duration": 4166, "velocity": 90}, {"time": 177639, "pitch": 50, "duration": 5290, "velocity": 86}, {"time": 83042, "pitch": 50, "duration": 1904, "velocity": 110}, {"time": 83411, "pitch": 54, "duration": 519, "velocity": 100}, {"time": 83691, "pitch": 57, "duration": 914, "velocity": 105}, {"time": 83930, "pitch": 54, "duration": 480, "velocity": 100}, {"time": 84170, "pitch": 62, "duration": 776, "velocity": 110}, {"time": 84410, "pitch": 54, "duration": 373, "velocity": 100}, {"time": 84605, "pitch": 57, "duration": 341, "velocity": 105}, {"time": 84783, "pitch": 54, "duration": 163, "velocity": 100}, {"time": 84962, "pitch": 52, "duration": 1906, "velocity": 110}, {"time": 85331, "pitch": 55, "duration": 517, "velocity": 100}, {"time": 85608, "pitch": 59, "duration": 921, "velocity": 105}, {"time": 85848, "pitch": 55, "duration": 483, "velocity": 100}, {"time": 86088, "pitch": 64, "duration": 780, "velocity": 110}, {"time": 86331, "pitch": 55, "duration": 374, "velocity": 100}, {"time": 86529, "pitch": 59, "duration": 339, "velocity": 105}, {"time": 86705, "pitch": 55, "duration": 163, "velocity": 100}, {"time": 86885, "pitch": 54, "duration": 1901, "velocity": 110}, {"time": 87256, "pitch": 57, "duration": 516, "velocity": 100}, {"time": 87533, "pitch": 61, "duration": 914, "velocity": 105}, {"time": 87772, "pitch": 57, "duration": 480, "velocity": 100}, {"time": 88012, "pitch": 66, "duration": 774, "velocity": 110}, {"time": 88252, "pitch": 57, "duration": 372, "velocity": 100}, {"time": 88447, "pitch": 61, "duration": 339, "velocity": 105}, {"time": 88624, "pitch": 57, "duration": 162, "velocity": 100}, {"time": 88802, "pitch": 52, "duration": 1907, "velocity": 110}, {"time": 89173, "pitch": 55, "duration": 517, "velocity": 100}, {"time": 89451, "pitch": 59, "duration": 915, "velocity": 105}, {"time": 89690, "pitch": 55, "duration": 480, "velocity": 100}, {"time": 89930, "pitch": 64, "duration": 779, "velocity": 110}, {"time": 90170, "pitch": 55, "duration": 376, "velocity": 100}, {"time": 90366, "pitch": 59, "duration": 343, "velocity": 105}, {"time": 90546, "pitch": 55, "duration": 163, "velocity": 100}, {"time": 90728, "pitch": 50, "duration": 1900, "velocity": 110}, {"time": 91092, "pitch": 54, "duration": 516, "velocity": 100}, {"time": 91368, "pitch": 57, "duration": 921, "velocity": 105}, {"time": 91608, "pitch": 54, "duration": 483, "velocity": 100}, {"time": 91848, "pitch": 62, "duration": 780, "velocity": 110}, {"time": 92091, "pitch": 54, "duration": 374, "velocity": 100}, {"time": 92289, "pitch": 57, "duration": 339, "velocity": 105}, {"time": 92465, "pitch": 54, "duration": 163, "velocity": 100}, {"time": 92645, "pitch": 52, "duration": 1905, "velocity": 110}, {"time": 93016, "pitch": 55, "duration": 516, "velocity": 100}, {"time": 93293, "pitch": 59, "duration": 916, "velocity": 105}, {"time": 93532, "pitch": 55, "duration": 480, "velocity": 100}, {"time": 93772, "pitch": 64, "duration": 778, "velocity": 110}, {"time": 94012, "pitch": 55, "duration": 375, "velocity": 100}, {"time": 94209, "pitch": 59, "duration": 341, "velocity": 105}, {"time": 94387, "pitch": 55, "duration": 163, "velocity": 100}, {"time": 94571, "pitch": 54, "duration": 1093, "velocity": 110}, {"time": 94926, "pitch": 57, "duration": 515, "velocity": 100}, {"time": 95200, "pitch": 64, "duration": 464, "velocity": 105}, {"time": 95441, "pitch": 57, "duration": 223, "velocity": 100}, {"time": 95684, "pitch": 47, "duration": 933, "velocity": 110}, {"time": 95921, "pitch": 56, "duration": 476, "velocity": 100}, {"time": 96157, "pitch": 63, "duration": 460, "velocity": 105}, {"time": 96397, "pitch": 56, "duration": 220, "velocity": 100}, {"time": 96637, "pitch": 54, "duration": 940, "velocity": 110}, {"time": 96883, "pitch": 57, "duration": 479, "velocity": 100}, {"time": 97128, "pitch": 64, "duration": 449, "velocity": 105}, {"time": 97362, "pitch": 57, "duration": 215, "velocity": 100}, {"time": 97597, "pitch": 47, "duration": 945, "velocity": 110}, {"time": 97842, "pitch": 56, "duration": 482, "velocity": 100}, {"time": 98088, "pitch": 63, "duration": 454, "velocity": 105}, {"time": 98324, "pitch": 56, "duration": 218, "velocity": 100}, {"time": 98561, "pitch": 50, "duration": 3805, "velocity": 110}, {"time": 98804, "pitch": 54, "duration": 482, "velocity": 100}, {"time": 99047, "pitch": 57, "duration": 959, "velocity": 105}, {"time": 99286, "pitch": 54, "duration": 480, "velocity": 100}, {"time": 99526, "pitch": 60, "duration": 939, "velocity": 110}, {"time": 99766, "pitch": 54, "duration": 479, "velocity": 100}, {"time": 100006, "pitch": 57, "duration": 459, "velocity": 105}, {"time": 100245, "pitch": 54, "duration": 2121, "velocity": 100}, {"time": 100485, "pitch": 59, "duration": 475, "velocity": 90}, {"time": 100722, "pitch": 57, "duration": 476, "velocity": 80}, {"time": 100960, "pitch": 59, "duration": 478, "velocity": 70}, {"time": 101198, "pitch": 57, "duration": 1188, "velocity": 60}, {"time": 101438, "pitch": 59, "duration": 928, "velocity": 50}, {"time": 102386, "pitch": 50, "duration": 252, "velocity": 85}, {"time": 102386, "pitch": 57, "duration": 252, "velocity": 90}, {"time": 102395, "pitch": 59, "duration": 234, "velocity": 95}, {"time": 102395, "pitch": 67, "duration": 234, "velocity": 100}, {"time": 102629, "pitch": 59, "duration": 252, "velocity": 85}, {"time": 102629, "pitch": 67, "duration": 252, "velocity": 90}, {"time": 102638, "pitch": 50, "duration": 233, "velocity": 75}, {"time": 102638, "pitch": 57, "duration": 233, "velocity": 80}, {"time": 102871, "pitch": 50, "duration": 249, "velocity": 95}, {"time": 102871, "pitch": 57, "duration": 249, "velocity": 100}, {"time": 102881, "pitch": 59, "duration": 229, "velocity": 105}, {"time": 102881, "pitch": 67, "duration": 229, "velocity": 110}, {"time": 103110, "pitch": 59, "duration": 250, "velocity": 85}, {"time": 103110, "pitch": 67, "duration": 250, "velocity": 90}, {"time": 103120, "pitch": 50, "duration": 230, "velocity": 75}, {"time": 103120, "pitch": 57, "duration": 230, "velocity": 80}, {"time": 103350, "pitch": 50, "duration": 247, "velocity": 85}, {"time": 103350, "pitch": 57, "duration": 247, "velocity": 90}, {"time": 103360, "pitch": 59, "duration": 228, "velocity": 95}, {"time": 103360, "pitch": 67, "duration": 228, "velocity": 100}, {"time": 103588, "pitch": 59, "duration": 247, "velocity": 85}, {"time": 103588, "pitch": 67, "duration": 247, "velocity": 90}, {"time": 103597, "pitch": 50, "duration": 228, "velocity": 75}, {"time": 103597, "pitch": 57, "duration": 228, "velocity": 80}, {"time": 103825, "pitch": 50, "duration": 134, "velocity": 85}, {"time": 103825, "pitch": 57, "duration": 134, "velocity": 90}, {"time": 103835, "pitch": 59, "duration": 113, "velocity": 95}, {"time": 103835, "pitch": 67, "duration": 113, "velocity": 100}, {"time": 103948, "pitch": 59, "duration": 134, "velocity": 90}, {"time": 103948, "pitch": 67, "duration": 134, "velocity": 95}, {"time": 103959, "pitch": 50, "duration": 113, "velocity": 80}, {"time": 103959, "pitch": 57, "duration": 113, "velocity": 85}, {"time": 104072, "pitch": 50, "duration": 228, "velocity": 75}, {"time": 104072, "pitch": 57, "duration": 228, "velocity": 80}, {"time": 104082, "pitch": 59, "duration": 218, "velocity": 85}, {"time": 104082, "pitch": 67, "duration": 218, "velocity": 90}, {"time": 104321, "pitch": 53, "duration": 250, "velocity": 85}, {"time": 104321, "pitch": 57, "duration": 250, "velocity": 90}, {"time": 104331, "pitch": 60, "duration": 230, "velocity": 95}, {"time": 104331, "pitch": 65, "duration": 230, "velocity": 100}, {"time": 104561, "pitch": 60, "duration": 250, "velocity": 85}, {"time": 104561, "pitch": 65, "duration": 250, "velocity": 90}, {"time": 104571, "pitch": 53, "duration": 230, "velocity": 75}, {"time": 104571, "pitch": 57, "duration": 230, "velocity": 80}, {"time": 104801, "pitch": 53, "duration": 249, "velocity": 95}, {"time": 104801, "pitch": 57, "duration": 249, "velocity": 100}, {"time": 104811, "pitch": 60, "duration": 229, "velocity": 105}, {"time": 104811, "pitch": 65, "duration": 229, "velocity": 110}, {"time": 105040, "pitch": 60, "duration": 250, "velocity": 85}, {"time": 105040, "pitch": 65, "duration": 250, "velocity": 90}, {"time": 105050, "pitch": 53, "duration": 230, "velocity": 75}, {"time": 105050, "pitch": 57, "duration": 230, "velocity": 80}, {"time": 105280, "pitch": 53, "duration": 250, "velocity": 85}, {"time": 105280, "pitch": 57, "duration": 250, "velocity": 90}, {"time": 105290, "pitch": 60, "duration": 230, "velocity": 95}, {"time": 105290, "pitch": 65, "duration": 230, "velocity": 100}, {"time": 105520, "pitch": 60, "duration": 250, "velocity": 85}, {"time": 105520, "pitch": 65, "duration": 250, "velocity": 90}, {"time": 105530, "pitch": 53, "duration": 230, "velocity": 75}, {"time": 105530, "pitch": 57, "duration": 230, "velocity": 80}, {"time": 105760, "pitch": 53, "duration": 129, "velocity": 85}, {"time": 105760, "pitch": 57, "duration": 129, "velocity": 90}, {"time": 105770, "pitch": 60, "duration": 109, "velocity": 95}, {"time": 105770, "pitch": 65, "duration": 109, "velocity": 100}, {"time": 105879, "pitch": 60, "duration": 130, "velocity": 90}, {"time": 105879, "pitch": 65, "duration": 130, "velocity": 95}, {"time": 105889, "pitch": 53, "duration": 110, "velocity": 80}, {"time": 105889, "pitch": 57, "duration": 110, "velocity": 85}, {"time": 105999, "pitch": 53, "duration": 220, "velocity": 75}, {"time": 105999, "pitch": 57, "duration": 220, "velocity": 80}, {"time": 106009, "pitch": 60, "duration": 210, "velocity": 85}, {"time": 106009, "pitch": 65, "duration": 210, "velocity": 90}, {"time": 106239, "pitch": 53, "duration": 256, "velocity": 85}, {"time": 106239, "pitch": 55, "duration": 256, "velocity": 90}, {"time": 106249, "pitch": 60, "duration": 236, "velocity": 95}, {"time": 106249, "pitch": 67, "duration": 236, "velocity": 100}, {"time": 106485, "pitch": 60, "duration": 256, "velocity": 85}, {"time": 106485, "pitch": 67, "duration": 256, "velocity": 90}, {"time": 106495, "pitch": 53, "duration": 236, "velocity": 75}, {"time": 106495, "pitch": 55, "duration": 236, "velocity": 80}, {"time": 106731, "pitch": 52, "duration": 249, "velocity": 95}, {"time": 106731, "pitch": 55, "duration": 249, "velocity": 100}, {"time": 106741, "pitch": 60, "duration": 229, "velocity": 105}, {"time": 106741, "pitch": 67, "duration": 229, "velocity": 110}, {"time": 106970, "pitch": 60, "duration": 250, "velocity": 85}, {"time": 106970, "pitch": 67, "duration": 250, "velocity": 90}, {"time": 106980, "pitch": 52, "duration": 230, "velocity": 75}, {"time": 106980, "pitch": 55, "duration": 230, "velocity": 80}, {"time": 107210, "pitch": 50, "duration": 250, "velocity": 85}, {"time": 107210, "pitch": 57, "duration": 250, "velocity": 90}, {"time": 107220, "pitch": 62, "duration": 230, "velocity": 95}, {"time": 107220, "pitch": 66, "duration": 230, "velocity": 100}, {"time": 107450, "pitch": 62, "duration": 249, "velocity": 85}, {"time": 107450, "pitch": 66, "duration": 249, "velocity": 90}, {"time": 107460, "pitch": 50, "duration": 229, "velocity": 75}, {"time": 107460, "pitch": 57, "duration": 229, "velocity": 80}, {"time": 107689, "pitch": 50, "duration": 127, "velocity": 85}, {"time": 107689, "pitch": 57, "duration": 127, "velocity": 90}, {"time": 107699, "pitch": 62, "duration": 107, "velocity": 95}, {"time": 107699, "pitch": 66, "duration": 107, "velocity": 100}, {"time": 107806, "pitch": 62, "duration": 127, "velocity": 90}, {"time": 107806, "pitch": 66, "duration": 127, "velocity": 95}, {"time": 107816, "pitch": 50, "duration": 107, "velocity": 80}, {"time": 107816, "pitch": 57, "duration": 107, "velocity": 85}, {"time": 107923, "pitch": 50, "duration": 215, "velocity": 75}, {"time": 107923, "pitch": 57, "duration": 215, "velocity": 80}, {"time": 107933, "pitch": 62, "duration": 205, "velocity": 85}, {"time": 107933, "pitch": 66, "duration": 205, "velocity": 90}, {"time": 108158, "pitch": 50, "duration": 252, "velocity": 85}, {"time": 108158, "pitch": 57, "duration": 252, "velocity": 90}, {"time": 108167, "pitch": 59, "duration": 233, "velocity": 95}, {"time": 108167, "pitch": 66, "duration": 233, "velocity": 100}, {"time": 108400, "pitch": 59, "duration": 252, "velocity": 85}, {"time": 108400, "pitch": 66, "duration": 252, "velocity": 90}, {"time": 108410, "pitch": 50, "duration": 232, "velocity": 75}, {"time": 108410, "pitch": 57, "duration": 232, "velocity": 80}, {"time": 108642, "pitch": 50, "duration": 256, "velocity": 95}, {"time": 108642, "pitch": 57, "duration": 256, "velocity": 100}, {"time": 108652, "pitch": 59, "duration": 236, "velocity": 105}, {"time": 108652, "pitch": 66, "duration": 236, "velocity": 110}, {"time": 108888, "pitch": 59, "duration": 256, "velocity": 85}, {"time": 108888, "pitch": 66, "duration": 256, "velocity": 90}, {"time": 108898, "pitch": 50, "duration": 236, "velocity": 75}, {"time": 108898, "pitch": 57, "duration": 236, "velocity": 80}, {"time": 109134, "pitch": 50, "duration": 250, "velocity": 85}, {"time": 109134, "pitch": 56, "duration": 250, "velocity": 90}, {"time": 109144, "pitch": 59, "duration": 230, "velocity": 95}, {"time": 109144, "pitch": 64, "duration": 230, "velocity": 100}, {"time": 109374, "pitch": 59, "duration": 250, "velocity": 85}, {"time": 109374, "pitch": 64, "duration": 250, "velocity": 90}, {"time": 109384, "pitch": 50, "duration": 230, "velocity": 75}, {"time": 109384, "pitch": 56, "duration": 230, "velocity": 80}, {"time": 109614, "pitch": 50, "duration": 130, "velocity": 85}, {"time": 109614, "pitch": 56, "duration": 130, "velocity": 90}, {"time": 109624, "pitch": 59, "duration": 110, "velocity": 95}, {"time": 109624, "pitch": 64, "duration": 110, "velocity": 100}, {"time": 109734, "pitch": 59, "duration": 129, "velocity": 90}, {"time": 109734, "pitch": 64, "duration": 129, "velocity": 95}, {"time": 109744, "pitch": 50, "duration": 109, "velocity": 80}, {"time": 109744, "pitch": 56, "duration": 109, "velocity": 85}, {"time": 109853, "pitch": 50, "duration": 220, "velocity": 75}, {"time": 109853, "pitch": 56, "duration": 220, "velocity": 80}, {"time": 109863, "pitch": 59, "duration": 210, "velocity": 85}, {"time": 109863, "pitch": 64, "duration": 210, "velocity": 90}, {"time": 110093, "pitch": 52, "duration": 250, "velocity": 85}, {"time": 110093, "pitch": 57, "duration": 250, "velocity": 90}, {"time": 110103, "pitch": 60, "duration": 230, "velocity": 95}, {"time": 110103, "pitch": 64, "duration": 230, "velocity": 100}, {"time": 110333, "pitch": 60, "duration": 250, "velocity": 85}, {"time": 110333, "pitch": 64, "duration": 250, "velocity": 90}, {"time": 110343, "pitch": 52, "duration": 230, "velocity": 75}, {"time": 110343, "pitch": 57, "duration": 230, "velocity": 80}, {"time": 110573, "pitch": 52, "duration": 249, "velocity": 95}, {"time": 110573, "pitch": 57, "duration": 249, "velocity": 100}, {"time": 110583, "pitch": 60, "duration": 229, "velocity": 105}, {"time": 110583, "pitch": 64, "duration": 229, "velocity": 110}, {"time": 110812, "pitch": 60, "duration": 250, "velocity": 85}, {"time": 110812, "pitch": 64, "duration": 250, "velocity": 90}, {"time": 110822, "pitch": 52, "duration": 230, "velocity": 75}, {"time": 110822, "pitch": 57, "duration": 230, "velocity": 80}, {"time": 111052, "pitch": 52, "duration": 250, "velocity": 85}, {"time": 111052, "pitch": 57, "duration": 250, "velocity": 90}, {"time": 111062, "pitch": 60, "duration": 230, "velocity": 95}, {"time": 111062, "pitch": 64, "duration": 230, "velocity": 100}, {"time": 111292, "pitch": 60, "duration": 250, "velocity": 85}, {"time": 111292, "pitch": 64, "duration": 250, "velocity": 90}, {"time": 111302, "pitch": 52, "duration": 230, "velocity": 75}, {"time": 111302, "pitch": 57, "duration": 230, "velocity": 80}, {"time": 111532, "pitch": 52, "duration": 129, "velocity": 85}, {"time": 111532, "pitch": 57, "duration": 129, "velocity": 90}, {"time": 111542, "pitch": 60, "duration": 109, "velocity": 95}, {"time": 111542, "pitch": 64, "duration": 109, "velocity": 100}, {"time": 111651, "pitch": 60, "duration": 130, "velocity": 90}, {"time": 111651, "pitch": 64, "duration": 130, "velocity": 95}, {"time": 111661, "pitch": 52, "duration": 110, "velocity": 80}, {"time": 111661, "pitch": 57, "duration": 110, "velocity": 85}, {"time": 111771, "pitch": 52, "duration": 220, "velocity": 75}, {"time": 111771, "pitch": 57, "duration": 220, "velocity": 80}, {"time": 111781, "pitch": 60, "duration": 210, "velocity": 85}, {"time": 111781, "pitch": 64, "duration": 210, "velocity": 90}, {"time": 112011, "pitch": 50, "duration": 244, "velocity": 85}, {"time": 112011, "pitch": 57, "duration": 244, "velocity": 90}, {"time": 112021, "pitch": 60, "duration": 224, "velocity": 95}, {"time": 112021, "pitch": 67, "duration": 224, "velocity": 100}, {"time": 112245, "pitch": 60, "duration": 244, "velocity": 85}, {"time": 112245, "pitch": 67, "duration": 244, "velocity": 90}, {"time": 112255, "pitch": 50, "duration": 225, "velocity": 75}, {"time": 112255, "pitch": 57, "duration": 225, "velocity": 80}, {"time": 112480, "pitch": 50, "duration": 248, "velocity": 95}, {"time": 112480, "pitch": 57, "duration": 248, "velocity": 100}, {"time": 112489, "pitch": 60, "duration": 229, "velocity": 105}, {"time": 112489, "pitch": 67, "duration": 229, "velocity": 110}, {"time": 112718, "pitch": 60, "duration": 250, "velocity": 85}, {"time": 112718, "pitch": 67, "duration": 250, "velocity": 90}, {"time": 112728, "pitch": 50, "duration": 230, "velocity": 75}, {"time": 112728, "pitch": 57, "duration": 230, "velocity": 80}, {"time": 112958, "pitch": 50, "duration": 250, "velocity": 85}, {"time": 112958, "pitch": 57, "duration": 250, "velocity": 90}, {"time": 112968, "pitch": 60, "duration": 230, "velocity": 95}, {"time": 112968, "pitch": 67, "duration": 230, "velocity": 100}, {"time": 113198, "pitch": 60, "duration": 249, "velocity": 85}, {"time": 113198, "pitch": 67, "duration": 249, "velocity": 90}, {"time": 113208, "pitch": 50, "duration": 229, "velocity": 75}, {"time": 113208, "pitch": 57, "duration": 229, "velocity": 80}, {"time": 113437, "pitch": 50, "duration": 130, "velocity": 85}, {"time": 113437, "pitch": 57, "duration": 130, "velocity": 90}, {"time": 113447, "pitch": 60, "duration": 110, "velocity": 95}, {"time": 113447, "pitch": 67, "duration": 110, "velocity": 100}, {"time": 113557, "pitch": 60, "duration": 130, "velocity": 90}, {"time": 113557, "pitch": 67, "duration": 130, "velocity": 95}, {"time": 113567, "pitch": 50, "duration": 110, "velocity": 80}, {"time": 113567, "pitch": 57, "duration": 110, "velocity": 85}, {"time": 113677, "pitch": 50, "duration": 220, "velocity": 75}, {"time": 113677, "pitch": 57, "duration": 220, "velocity": 80}, {"time": 113687, "pitch": 60, "duration": 210, "velocity": 85}, {"time": 113687, "pitch": 67, "duration": 210, "velocity": 90}, {"time": 113917, "pitch": 50, "duration": 491, "velocity": 85}, {"time": 113917, "pitch": 57, "duration": 491, "velocity": 90}, {"time": 113927, "pitch": 60, "duration": 491, "velocity": 95}, {"time": 113927, "pitch": 65, "duration": 491, "velocity": 100}, {"time": 114408, "pitch": 50, "duration": 120, "velocity": 75}, {"time": 114408, "pitch": 57, "duration": 120, "velocity": 80}, {"time": 114418, "pitch": 60, "duration": 120, "velocity": 85}, {"time": 114418, "pitch": 65, "duration": 110, "velocity": 90}, {"time": 114648, "pitch": 60, "duration": 483, "velocity": 95}, {"time": 114648, "pitch": 65, "duration": 483, "velocity": 100}, {"time": 114658, "pitch": 50, "duration": 483, "velocity": 85}, {"time": 114658, "pitch": 55, "duration": 483, "velocity": 90}, {"time": 115131, "pitch": 60, "duration": 253, "velocity": 85}, {"time": 115131, "pitch": 65, "duration": 253, "velocity": 90}, {"time": 115141, "pitch": 50, "duration": 233, "velocity": 75}, {"time": 115141, "pitch": 55, "duration": 233, "velocity": 80}, {"time": 115374, "pitch": 50, "duration": 128, "velocity": 85}, {"time": 115374, "pitch": 55, "duration": 128, "velocity": 90}, {"time": 115384, "pitch": 60, "duration": 109, "velocity": 95}, {"time": 115384, "pitch": 65, "duration": 109, "velocity": 100}, {"time": 115493, "pitch": 60, "duration": 127, "velocity": 90}, {"time": 115493, "pitch": 65, "duration": 127, "velocity": 95}, {"time": 115502, "pitch": 50, "duration": 108, "velocity": 80}, {"time": 115502, "pitch": 55, "duration": 108, "velocity": 85}, {"time": 115610, "pitch": 50, "duration": 217, "velocity": 75}, {"time": 115610, "pitch": 55, "duration": 217, "velocity": 80}, {"time": 115620, "pitch": 60, "duration": 207, "velocity": 85}, {"time": 115620, "pitch": 65, "duration": 207, "velocity": 90}, {"time": 115847, "pitch": 50, "duration": 247, "velocity": 85}, {"time": 115847, "pitch": 55, "duration": 247, "velocity": 90}, {"time": 115857, "pitch": 60, "duration": 227, "velocity": 95}, {"time": 115857, "pitch": 67, "duration": 227, "velocity": 100}, {"time": 116084, "pitch": 60, "duration": 247, "velocity": 85}, {"time": 116084, "pitch": 67, "duration": 247, "velocity": 90}, {"time": 116094, "pitch": 50, "duration": 227, "velocity": 75}, {"time": 116094, "pitch": 55, "duration": 227, "velocity": 80}, {"time": 116321, "pitch": 50, "duration": 246, "velocity": 95}, {"time": 116321, "pitch": 55, "duration": 246, "velocity": 100}, {"time": 116331, "pitch": 60, "duration": 227, "velocity": 105}, {"time": 116331, "pitch": 67, "duration": 227, "velocity": 110}, {"time": 116558, "pitch": 60, "duration": 247, "velocity": 85}, {"time": 116558, "pitch": 67, "duration": 247, "velocity": 90}, {"time": 116567, "pitch": 50, "duration": 228, "velocity": 75}, {"time": 116567, "pitch": 55, "duration": 228, "velocity": 80}, {"time": 116795, "pitch": 50, "duration": 250, "velocity": 85}, {"time": 116795, "pitch": 55, "duration": 250, "velocity": 90}, {"time": 116805, "pitch": 60, "duration": 230, "velocity": 95}, {"time": 116805, "pitch": 64, "duration": 230, "velocity": 100}, {"time": 117035, "pitch": 60, "duration": 250, "velocity": 85}, {"time": 117035, "pitch": 64, "duration": 250, "velocity": 90}, {"time": 117045, "pitch": 50, "duration": 230, "velocity": 75}, {"time": 117045, "pitch": 55, "duration": 230, "velocity": 80}, {"time": 117275, "pitch": 50, "duration": 129, "velocity": 85}, {"time": 117275, "pitch": 55, "duration": 129, "velocity": 90}, {"time": 117285, "pitch": 60, "duration": 109, "velocity": 95}, {"time": 117285, "pitch": 64, "duration": 109, "velocity": 100}, {"time": 117394, "pitch": 60, "duration": 130, "velocity": 90}, {"time": 117394, "pitch": 64, "duration": 130, "velocity": 95}, {"time": 117404, "pitch": 50, "duration": 110, "velocity": 80}, {"time": 117404, "pitch": 55, "duration": 110, "velocity": 85}, {"time": 117514, "pitch": 50, "duration": 220, "velocity": 75}, {"time": 117514, "pitch": 55, "duration": 220, "velocity": 80}, {"time": 117524, "pitch": 60, "duration": 210, "velocity": 85}, {"time": 117524, "pitch": 64, "duration": 210, "velocity": 90}, {"time": 117754, "pitch": 52, "duration": 252, "velocity": 85}, {"time": 117754, "pitch": 55, "duration": 252, "velocity": 90}, {"time": 117764, "pitch": 60, "duration": 232, "velocity": 95}, {"time": 117764, "pitch": 64, "duration": 232, "velocity": 100}, {"time": 117996, "pitch": 60, "duration": 253, "velocity": 85}, {"time": 117996, "pitch": 64, "duration": 253, "velocity": 90}, {"time": 118006, "pitch": 52, "duration": 234, "velocity": 75}, {"time": 118006, "pitch": 55, "duration": 234, "velocity": 80}, {"time": 118240, "pitch": 50, "duration": 248, "velocity": 95}, {"time": 118240, "pitch": 57, "duration": 248, "velocity": 100}, {"time": 118249, "pitch": 62, "duration": 229, "velocity": 105}, {"time": 118249, "pitch": 66, "duration": 229, "velocity": 110}, {"time": 118478, "pitch": 62, "duration": 250, "velocity": 85}, {"time": 118478, "pitch": 66, "duration": 250, "velocity": 90}, {"time": 118488, "pitch": 50, "duration": 230, "velocity": 75}, {"time": 118488, "pitch": 57, "duration": 230, "velocity": 80}, {"time": 118718, "pitch": 52, "duration": 250, "velocity": 85}, {"time": 118718, "pitch": 55, "duration": 250, "velocity": 90}, {"time": 118728, "pitch": 60, "duration": 230, "velocity": 95}, {"time": 118728, "pitch": 64, "duration": 230, "velocity": 100}, {"time": 118958, "pitch": 60, "duration": 249, "velocity": 85}, {"time": 118958, "pitch": 64, "duration": 249, "velocity": 90}, {"time": 118968, "pitch": 52, "duration": 229, "velocity": 75}, {"time": 118968, "pitch": 55, "duration": 229, "velocity": 80}, {"time": 119197, "pitch": 50, "duration": 250, "velocity": 95}, {"time": 119197, "pitch": 57, "duration": 250, "velocity": 100}, {"time": 119207, "pitch": 62, "duration": 230, "velocity": 105}, {"time": 119207, "pitch": 66, "duration": 230, "velocity": 110}, {"time": 119437, "pitch": 62, "duration": 230, "velocity": 85}, {"time": 119437, "pitch": 66, "duration": 230, "velocity": 90}, {"time": 119447, "pitch": 50, "duration": 210, "velocity": 75}, {"time": 119447, "pitch": 57, "duration": 210, "velocity": 80}, {"time": 119677, "pitch": 50, "duration": 250, "velocity": 85}, {"time": 119677, "pitch": 55, "duration": 250, "velocity": 90}, {"time": 119687, "pitch": 59, "duration": 230, "velocity": 95}, {"time": 119687, "pitch": 67, "duration": 230, "velocity": 100}, {"time": 119917, "pitch": 59, "duration": 249, "velocity": 85}, {"time": 119917, "pitch": 67, "duration": 249, "velocity": 90}, {"time": 119927, "pitch": 50, "duration": 229, "velocity": 75}, {"time": 119927, "pitch": 55, "duration": 229, "velocity": 80}, {"time": 120156, "pitch": 50, "duration": 250, "velocity": 95}, {"time": 120156, "pitch": 55, "duration": 250, "velocity": 100}, {"time": 120166, "pitch": 59, "duration": 230, "velocity": 105}, {"time": 120166, "pitch": 67, "duration": 230, "velocity": 110}, {"time": 120396, "pitch": 59, "duration": 250, "velocity": 85}, {"time": 120396, "pitch": 67, "duration": 250, "velocity": 90}, {"time": 120406, "pitch": 50, "duration": 230, "velocity": 75}, {"time": 120406, "pitch": 55, "duration": 230, "velocity": 80}, {"time": 120636, "pitch": 53, "duration": 253, "velocity": 85}, {"time": 120636, "pitch": 57, "duration": 253, "velocity": 90}, {"time": 120646, "pitch": 60, "duration": 233, "velocity": 95}, {"time": 120646, "pitch": 65, "duration": 233, "velocity": 100}, {"time": 120879, "pitch": 60, "duration": 253, "velocity": 85}, {"time": 120879, "pitch": 65, "duration": 253, "velocity": 90}, {"time": 120889, "pitch": 53, "duration": 233, "velocity": 75}, {"time": 120889, "pitch": 57, "duration": 233, "velocity": 80}, {"time": 121122, "pitch": 53, "duration": 130, "velocity": 85}, {"time": 121122, "pitch": 57, "duration": 130, "velocity": 90}, {"time": 121132, "pitch": 60, "duration": 110, "velocity": 95}, {"time": 121132, "pitch": 65, "duration": 110, "velocity": 100}, {"time": 121242, "pitch": 60, "duration": 129, "velocity": 90}, {"time": 121242, "pitch": 65, "duration": 129, "velocity": 95}, {"time": 121252, "pitch": 53, "duration": 109, "velocity": 80}, {"time": 121252, "pitch": 57, "duration": 109, "velocity": 85}, {"time": 121361, "pitch": 53, "duration": 220, "velocity": 75}, {"time": 121361, "pitch": 57, "duration": 220, "velocity": 80}, {"time": 121371, "pitch": 60, "duration": 210, "velocity": 85}, {"time": 121371, "pitch": 65, "duration": 210, "velocity": 90}, {"time": 121601, "pitch": 50, "duration": 256, "velocity": 85}, {"time": 121601, "pitch": 55, "duration": 256, "velocity": 90}, {"time": 121611, "pitch": 59, "duration": 236, "velocity": 95}, {"time": 121611, "pitch": 67, "duration": 236, "velocity": 100}, {"time": 121847, "pitch": 59, "duration": 256, "velocity": 85}, {"time": 121847, "pitch": 67, "duration": 256, "velocity": 90}, {"time": 121857, "pitch": 50, "duration": 236, "velocity": 75}, {"time": 121857, "pitch": 55, "duration": 236, "velocity": 80}, {"time": 122093, "pitch": 50, "duration": 249, "velocity": 95}, {"time": 122093, "pitch": 55, "duration": 249, "velocity": 100}, {"time": 122103, "pitch": 59, "duration": 229, "velocity": 105}, {"time": 122103, "pitch": 67, "duration": 229, "velocity": 110}, {"time": 122332, "pitch": 59, "duration": 250, "velocity": 85}, {"time": 122332, "pitch": 67, "duration": 250, "velocity": 90}, {"time": 122342, "pitch": 50, "duration": 230, "velocity": 75}, {"time": 122342, "pitch": 55, "duration": 230, "velocity": 80}, {"time": 122572, "pitch": 53, "duration": 250, "velocity": 85}, {"time": 122572, "pitch": 57, "duration": 250, "velocity": 90}, {"time": 122582, "pitch": 60, "duration": 230, "velocity": 95}, {"time": 122582, "pitch": 65, "duration": 230, "velocity": 100}, {"time": 122812, "pitch": 60, "duration": 250, "velocity": 85}, {"time": 122812, "pitch": 65, "duration": 250, "velocity": 90}, {"time": 122822, "pitch": 53, "duration": 230, "velocity": 75}, {"time": 122822, "pitch": 57, "duration": 230, "velocity": 80}, {"time": 123052, "pitch": 53, "duration": 129, "velocity": 85}, {"time": 123052, "pitch": 57, "duration": 129, "velocity": 90}, {"time": 123062, "pitch": 60, "duration": 109, "velocity": 95}, {"time": 123062, "pitch": 65, "duration": 109, "velocity": 100}, {"time": 123171, "pitch": 60, "duration": 130, "velocity": 90}, {"time": 123171, "pitch": 65, "duration": 130, "velocity": 95}, {"time": 123181, "pitch": 53, "duration": 110, "velocity": 80}, {"time": 123181, "pitch": 57, "duration": 110, "velocity": 85}, {"time": 123291, "pitch": 53, "duration": 220, "velocity": 75}, {"time": 123291, "pitch": 57, "duration": 220, "velocity": 80}, {"time": 123301, "pitch": 60, "duration": 210, "velocity": 85}, {"time": 123301, "pitch": 65, "duration": 210, "velocity": 90}, {"time": 123531, "pitch": 52, "duration": 250, "velocity": 85}, {"time": 123531, "pitch": 55, "duration": 250, "velocity": 90}, {"time": 123541, "pitch": 60, "duration": 230, "velocity": 95}, {"time": 123541, "pitch": 64, "duration": 230, "velocity": 100}, {"time": 123771, "pitch": 60, "duration": 250, "velocity": 85}, {"time": 123771, "pitch": 64, "duration": 250, "velocity": 90}, {"time": 123781, "pitch": 52, "duration": 230, "velocity": 75}, {"time": 123781, "pitch": 55, "duration": 230, "velocity": 80}, {"time": 124011, "pitch": 52, "duration": 249, "velocity": 95}, {"time": 124011, "pitch": 55, "duration": 249, "velocity": 100}, {"time": 124021, "pitch": 60, "duration": 229, "velocity": 105}, {"time": 124021, "pitch": 64, "duration": 229, "velocity": 110}, {"time": 124250, "pitch": 60, "duration": 250, "velocity": 85}, {"time": 124250, "pitch": 64, "duration": 250, "velocity": 90}, {"time": 124260, "pitch": 52, "duration": 230, "velocity": 75}, {"time": 124260, "pitch": 55, "duration": 230, "velocity": 80}, {"time": 124490, "pitch": 50, "duration": 250, "velocity": 85}, {"time": 124490, "pitch": 57, "duration": 250, "velocity": 90}, {"time": 124500, "pitch": 62, "duration": 230, "velocity": 95}, {"time": 124500, "pitch": 66, "duration": 230, "velocity": 100}, {"time": 124730, "pitch": 62, "duration": 249, "velocity": 85}, {"time": 124730, "pitch": 66, "duration": 249, "velocity": 90}, {"time": 124740, "pitch": 50, "duration": 229, "velocity": 75}, {"time": 124740, "pitch": 57, "duration": 229, "velocity": 80}, {"time": 124969, "pitch": 50, "duration": 130, "velocity": 85}, {"time": 124969, "pitch": 57, "duration": 130, "velocity": 90}, {"time": 124979, "pitch": 62, "duration": 110, "velocity": 95}, {"time": 124979, "pitch": 66, "duration": 110, "velocity": 100}, {"time": 125089, "pitch": 62, "duration": 130, "velocity": 90}, {"time": 125089, "pitch": 66, "duration": 130, "velocity": 95}, {"time": 125099, "pitch": 50, "duration": 110, "velocity": 80}, {"time": 125099, "pitch": 57, "duration": 110, "velocity": 85}, {"time": 125209, "pitch": 50, "duration": 220, "velocity": 75}, {"time": 125209, "pitch": 57, "duration": 220, "velocity": 80}, {"time": 125219, "pitch": 62, "duration": 210, "velocity": 85}, {"time": 125219, "pitch": 66, "duration": 210, "velocity": 90}, {"time": 125449, "pitch": 50, "duration": 250, "velocity": 85}, {"time": 125449, "pitch": 57, "duration": 250, "velocity": 90}, {"time": 125459, "pitch": 59, "duration": 230, "velocity": 95}, {"time": 125459, "pitch": 66, "duration": 230, "velocity": 100}, {"time": 125689, "pitch": 59, "duration": 249, "velocity": 85}, {"time": 125689, "pitch": 66, "duration": 249, "velocity": 90}, {"time": 125699, "pitch": 50, "duration": 229, "velocity": 75}, {"time": 125699, "pitch": 57, "duration": 229, "velocity": 80}, {"time": 125928, "pitch": 50, "duration": 250, "velocity": 95}, {"time": 125928, "pitch": 57, "duration": 250, "velocity": 100}, {"time": 125938, "pitch": 59, "duration": 230, "velocity": 105}, {"time": 125938, "pitch": 66, "duration": 230, "velocity": 110}, {"time": 126168, "pitch": 59, "duration": 250, "velocity": 85}, {"time": 126168, "pitch": 66, "duration": 250, "velocity": 90}, {"time": 126178, "pitch": 50, "duration": 230, "velocity": 75}, {"time": 126178, "pitch": 57, "duration": 230, "velocity": 80}, {"time": 126408, "pitch": 50, "duration": 253, "velocity": 85}, {"time": 126408, "pitch": 55, "duration": 253, "velocity": 90}, {"time": 126418, "pitch": 59, "duration": 233, "velocity": 95}, {"time": 126418, "pitch": 64, "duration": 233, "velocity": 100}, {"time": 126651, "pitch": 59, "duration": 253, "velocity": 85}, {"time": 126651, "pitch": 64, "duration": 253, "velocity": 90}, {"time": 126661, "pitch": 50, "duration": 233, "velocity": 75}, {"time": 126661, "pitch": 55, "duration": 233, "velocity": 80}, {"time": 126894, "pitch": 50, "duration": 130, "velocity": 85}, {"time": 126894, "pitch": 55, "duration": 130, "velocity": 90}, {"time": 126904, "pitch": 59, "duration": 110, "velocity": 95}, {"time": 126904, "pitch": 64, "duration": 110, "velocity": 100}, {"time": 127014, "pitch": 59, "duration": 129, "velocity": 90}, {"time": 127014, "pitch": 64, "duration": 129, "velocity": 95}, {"time": 127024, "pitch": 50, "duration": 109, "velocity": 80}, {"time": 127024, "pitch": 55, "duration": 109, "velocity": 85}, {"time": 127133, "pitch": 50, "duration": 220, "velocity": 75}, {"time": 127133, "pitch": 55, "duration": 220, "velocity": 80}, {"time": 127143, "pitch": 59, "duration": 210, "velocity": 85}, {"time": 127143, "pitch": 64, "duration": 210, "velocity": 90}, {"time": 127373, "pitch": 52, "duration": 250, "velocity": 85}, {"time": 127373, "pitch": 57, "duration": 250, "velocity": 90}, {"time": 127383, "pitch": 60, "duration": 230, "velocity": 95}, {"time": 127383, "pitch": 64, "duration": 230, "velocity": 100}, {"time": 127613, "pitch": 60, "duration": 250, "velocity": 85}, {"time": 127613, "pitch": 64, "duration": 250, "velocity": 90}, {"time": 127623, "pitch": 52, "duration": 230, "velocity": 75}, {"time": 127623, "pitch": 57, "duration": 230, "velocity": 80}, {"time": 127853, "pitch": 52, "duration": 249, "velocity": 95}, {"time": 127853, "pitch": 57, "duration": 249, "velocity": 100}, {"time": 127863, "pitch": 60, "duration": 229, "velocity": 105}, {"time": 127863, "pitch": 64, "duration": 229, "velocity": 110}, {"time": 128092, "pitch": 60, "duration": 250, "velocity": 85}, {"time": 128092, "pitch": 64, "duration": 250, "velocity": 90}, {"time": 128102, "pitch": 52, "duration": 230, "velocity": 75}, {"time": 128102, "pitch": 57, "duration": 230, "velocity": 80}, {"time": 128332, "pitch": 50, "duration": 250, "velocity": 85}, {"time": 128332, "pitch": 55, "duration": 250, "velocity": 90}, {"time": 128342, "pitch": 60, "duration": 230, "velocity": 95}, {"time": 128342, "pitch": 64, "duration": 230, "velocity": 100}, {"time": 128572, "pitch": 60, "duration": 250, "velocity": 85}, {"time": 128572, "pitch": 64, "duration": 250, "velocity": 90}, {"time": 128582, "pitch": 50, "duration": 230, "velocity": 75}, {"time": 128582, "pitch": 55, "duration": 230, "velocity": 80}, {"time": 128812, "pitch": 50, "duration": 129, "velocity": 85}, {"time": 128812, "pitch": 55, "duration": 129, "velocity": 90}, {"time": 128822, "pitch": 60, "duration": 109, "velocity": 95}, {"time": 128822, "pitch": 64, "duration": 109, "velocity": 100}, {"time": 128931, "pitch": 60, "duration": 130, "velocity": 90}, {"time": 128931, "pitch": 64, "duration": 130, "velocity": 95}, {"time": 128941, "pitch": 50, "duration": 110, "velocity": 80}, {"time": 128941, "pitch": 55, "duration": 110, "velocity": 85}, {"time": 129051, "pitch": 50, "duration": 220, "velocity": 75}, {"time": 129051, "pitch": 55, "duration": 220, "velocity": 80}, {"time": 129061, "pitch": 60, "duration": 210, "velocity": 85}, {"time": 129061, "pitch": 64, "duration": 210, "velocity": 90}, {"time": 129291, "pitch": 50, "duration": 250, "velocity": 85}, {"time": 129291, "pitch": 55, "duration": 250, "velocity": 90}, {"time": 129301, "pitch": 59, "duration": 230, "velocity": 95}, {"time": 129301, "pitch": 67, "duration": 230, "velocity": 100}, {"time": 129531, "pitch": 59, "duration": 250, "velocity": 85}, {"time": 129531, "pitch": 67, "duration": 250, "velocity": 90}, {"time": 129541, "pitch": 50, "duration": 230, "velocity": 75}, {"time": 129541, "pitch": 55, "duration": 230, "velocity": 80}, {"time": 129771, "pitch": 50, "duration": 249, "velocity": 95}, {"time": 129771, "pitch": 55, "duration": 249, "velocity": 100}, {"time": 129781, "pitch": 59, "duration": 229, "velocity": 105}, {"time": 129781, "pitch": 67, "duration": 229, "velocity": 110}, {"time": 130010, "pitch": 59, "duration": 250, "velocity": 85}, {"time": 130010, "pitch": 67, "duration": 250, "velocity": 90}, {"time": 130020, "pitch": 50, "duration": 230, "velocity": 75}, {"time": 130020, "pitch": 55, "duration": 230, "velocity": 80}, {"time": 130250, "pitch": 53, "duration": 250, "velocity": 85}, {"time": 130250, "pitch": 57, "duration": 250, "velocity": 90}, {"time": 130260, "pitch": 60, "duration": 230, "velocity": 95}, {"time": 130260, "pitch": 65, "duration": 230, "velocity": 100}, {"time": 130490, "pitch": 60, "duration": 249, "velocity": 85}, {"time": 130490, "pitch": 65, "duration": 249, "velocity": 90}, {"time": 130500, "pitch": 53, "duration": 229, "velocity": 75}, {"time": 130500, "pitch": 57, "duration": 229, "velocity": 80}, {"time": 130729, "pitch": 50, "duration": 130, "velocity": 85}, {"time": 130729, "pitch": 55, "duration": 130, "velocity": 90}, {"time": 130739, "pitch": 59, "duration": 110, "velocity": 95}, {"time": 130739, "pitch": 67, "duration": 110, "velocity": 100}, {"time": 130849, "pitch": 59, "duration": 130, "velocity": 90}, {"time": 130849, "pitch": 67, "duration": 130, "velocity": 95}, {"time": 130859, "pitch": 50, "duration": 110, "velocity": 80}, {"time": 130859, "pitch": 55, "duration": 110, "velocity": 85}, {"time": 130969, "pitch": 50, "duration": 220, "velocity": 75}, {"time": 130969, "pitch": 55, "duration": 220, "velocity": 80}, {"time": 130979, "pitch": 59, "duration": 210, "velocity": 85}, {"time": 130979, "pitch": 67, "duration": 210, "velocity": 90}, {"time": 131209, "pitch": 50, "duration": 250, "velocity": 85}, {"time": 131209, "pitch": 59, "duration": 250, "velocity": 90}, {"time": 131219, "pitch": 62, "duration": 230, "velocity": 95}, {"time": 131219, "pitch": 67, "duration": 230, "velocity": 100}, {"time": 131449, "pitch": 62, "duration": 249, "velocity": 85}, {"time": 131449, "pitch": 67, "duration": 249, "velocity": 90}, {"time": 131459, "pitch": 50, "duration": 229, "velocity": 75}, {"time": 131459, "pitch": 59, "duration": 229, "velocity": 80}, {"time": 131688, "pitch": 50, "duration": 250, "velocity": 95}, {"time": 131688, "pitch": 59, "duration": 250, "velocity": 100}, {"time": 131698, "pitch": 62, "duration": 230, "velocity": 105}, {"time": 131698, "pitch": 67, "duration": 230, "velocity": 110}, {"time": 131928, "pitch": 62, "duration": 250, "velocity": 85}, {"time": 131928, "pitch": 67, "duration": 250, "velocity": 90}, {"time": 131938, "pitch": 50, "duration": 230, "velocity": 75}, {"time": 131938, "pitch": 59, "duration": 230, "velocity": 80}, {"time": 132168, "pitch": 53, "duration": 253, "velocity": 85}, {"time": 132168, "pitch": 57, "duration": 253, "velocity": 90}, {"time": 132178, "pitch": 60, "duration": 233, "velocity": 95}, {"time": 132178, "pitch": 65, "duration": 233, "velocity": 100}, {"time": 132411, "pitch": 60, "duration": 253, "velocity": 85}, {"time": 132411, "pitch": 65, "duration": 253, "velocity": 90}, {"time": 132421, "pitch": 53, "duration": 233, "velocity": 75}, {"time": 132421, "pitch": 57, "duration": 233, "velocity": 80}, {"time": 132654, "pitch": 53, "duration": 130, "velocity": 85}, {"time": 132654, "pitch": 57, "duration": 130, "velocity": 90}, {"time": 132664, "pitch": 60, "duration": 110, "velocity": 95}, {"time": 132664, "pitch": 65, "duration": 110, "velocity": 100}, {"time": 132774, "pitch": 60, "duration": 129, "velocity": 90}, {"time": 132774, "pitch": 65, "duration": 129, "velocity": 95}, {"time": 132784, "pitch": 53, "duration": 109, "velocity": 80}, {"time": 132784, "pitch": 57, "duration": 109, "velocity": 85}, {"time": 132893, "pitch": 53, "duration": 220, "velocity": 75}, {"time": 132893, "pitch": 57, "duration": 220, "velocity": 80}, {"time": 132903, "pitch": 60, "duration": 210, "velocity": 85}, {"time": 132903, "pitch": 65, "duration": 210, "velocity": 90}, {"time": 133133, "pitch": 53, "duration": 250, "velocity": 85}, {"time": 133133, "pitch": 58, "duration": 250, "velocity": 90}, {"time": 133143, "pitch": 62, "duration": 230, "velocity": 95}, {"time": 133143, "pitch": 65, "duration": 230, "velocity": 100}, {"time": 133373, "pitch": 62, "duration": 250, "velocity": 85}, {"time": 133373, "pitch": 65, "duration": 250, "velocity": 90}, {"time": 133383, "pitch": 53, "duration": 230, "velocity": 75}, {"time": 133383, "pitch": 58, "duration": 230, "velocity": 80}, {"time": 133613, "pitch": 53, "duration": 249, "velocity": 95}, {"time": 133613, "pitch": 58, "duration": 249, "velocity": 100}, {"time": 133623, "pitch": 62, "duration": 229, "velocity": 105}, {"time": 133623, "pitch": 65, "duration": 229, "velocity": 110}, {"time": 133852, "pitch": 62, "duration": 250, "velocity": 85}, {"time": 133852, "pitch": 65, "duration": 250, "velocity": 90}, {"time": 133862, "pitch": 53, "duration": 230, "velocity": 75}, {"time": 133862, "pitch": 58, "duration": 230, "velocity": 80}, {"time": 134092, "pitch": 50, "duration": 250, "velocity": 85}, {"time": 134092, "pitch": 58, "duration": 250, "velocity": 90}, {"time": 134102, "pitch": 62, "duration": 230, "velocity": 95}, {"time": 134102, "pitch": 67, "duration": 230, "velocity": 100}, {"time": 134332, "pitch": 62, "duration": 250, "velocity": 85}, {"time": 134332, "pitch": 67, "duration": 250, "velocity": 90}, {"time": 134342, "pitch": 50, "duration": 230, "velocity": 75}, {"time": 134342, "pitch": 58, "duration": 230, "velocity": 80}, {"time": 134572, "pitch": 50, "duration": 129, "velocity": 85}, {"time": 134572, "pitch": 58, "duration": 129, "velocity": 90}, {"time": 134582, "pitch": 62, "duration": 109, "velocity": 95}, {"time": 134582, "pitch": 67, "duration": 109, "velocity": 100}, {"time": 134691, "pitch": 62, "duration": 130, "velocity": 90}, {"time": 134691, "pitch": 67, "duration": 130, "velocity": 95}, {"time": 134701, "pitch": 50, "duration": 110, "velocity": 80}, {"time": 134701, "pitch": 58, "duration": 110, "velocity": 85}, {"time": 134811, "pitch": 50, "duration": 220, "velocity": 75}, {"time": 134811, "pitch": 58, "duration": 220, "velocity": 80}, {"time": 134821, "pitch": 62, "duration": 210, "velocity": 85}, {"time": 134821, "pitch": 67, "duration": 210, "velocity": 90}, {"time": 135051, "pitch": 50, "duration": 250, "velocity": 85}, {"time": 135051, "pitch": 57, "duration": 250, "velocity": 90}, {"time": 135061, "pitch": 62, "duration": 230, "velocity": 95}, {"time": 135061, "pitch": 66, "duration": 230, "velocity": 100}, {"time": 135291, "pitch": 62, "duration": 250, "velocity": 85}, {"time": 135291, "pitch": 66, "duration": 250, "velocity": 90}, {"time": 135301, "pitch": 50, "duration": 230, "velocity": 75}, {"time": 135301, "pitch": 57, "duration": 230, "velocity": 80}, {"time": 135531, "pitch": 50, "duration": 249, "velocity": 95}, {"time": 135531, "pitch": 57, "duration": 249, "velocity": 100}, {"time": 135541, "pitch": 62, "duration": 229, "velocity": 105}, {"time": 135541, "pitch": 66, "duration": 229, "velocity": 110}, {"time": 135770, "pitch": 62, "duration": 250, "velocity": 85}, {"time": 135770, "pitch": 66, "duration": 250, "velocity": 90}, {"time": 135780, "pitch": 50, "duration": 230, "velocity": 75}, {"time": 135780, "pitch": 57, "duration": 230, "velocity": 80}, {"time": 136010, "pitch": 50, "duration": 250, "velocity": 85}, {"time": 136010, "pitch": 58, "duration": 250, "velocity": 90}, {"time": 136020, "pitch": 62, "duration": 230, "velocity": 95}, {"time": 136020, "pitch": 67, "duration": 230, "velocity": 100}, {"time": 136250, "pitch": 62, "duration": 249, "velocity": 85}, {"time": 136250, "pitch": 67, "duration": 249, "velocity": 90}, {"time": 136260, "pitch": 50, "duration": 230, "velocity": 75}, {"time": 136260, "pitch": 58, "duration": 230, "velocity": 80}, {"time": 136490, "pitch": 50, "duration": 129, "velocity": 85}, {"time": 136490, "pitch": 58, "duration": 129, "velocity": 90}, {"time": 136499, "pitch": 62, "duration": 110, "velocity": 95}, {"time": 136499, "pitch": 67, "duration": 110, "velocity": 100}, {"time": 136609, "pitch": 62, "duration": 130, "velocity": 90}, {"time": 136609, "pitch": 67, "duration": 130, "velocity": 95}, {"time": 136619, "pitch": 50, "duration": 110, "velocity": 80}, {"time": 136619, "pitch": 58, "duration": 110, "velocity": 85}, {"time": 136729, "pitch": 50, "duration": 220, "velocity": 75}, {"time": 136729, "pitch": 58, "duration": 220, "velocity": 80}, {"time": 136739, "pitch": 62, "duration": 210, "velocity": 85}, {"time": 136739, "pitch": 67, "duration": 210, "velocity": 90}, {"time": 136969, "pitch": 51, "duration": 250, "velocity": 85}, {"time": 136969, "pitch": 58, "duration": 250, "velocity": 90}, {"time": 136979, "pitch": 63, "duration": 230, "velocity": 95}, {"time": 136979, "pitch": 67, "duration": 230, "velocity": 100}, {"time": 137209, "pitch": 63, "duration": 249, "velocity": 85}, {"time": 137209, "pitch": 67, "duration": 249, "velocity": 90}, {"time": 137219, "pitch": 51, "duration": 229, "velocity": 75}, {"time": 137219, "pitch": 58, "duration": 229, "velocity": 80}, {"time": 137448, "pitch": 51, "duration": 250, "velocity": 95}, {"time": 137448, "pitch": 58, "duration": 250, "velocity": 100}, {"time": 137458, "pitch": 63, "duration": 230, "velocity": 105}, {"time": 137458, "pitch": 67, "duration": 230, "velocity": 110}, {"time": 137688, "pitch": 63, "duration": 250, "velocity": 85}, {"time": 137688, "pitch": 67, "duration": 250, "velocity": 90}, {"time": 137698, "pitch": 51, "duration": 230, "velocity": 75}, {"time": 137698, "pitch": 58, "duration": 230, "velocity": 80}, {"time": 137928, "pitch": 51, "duration": 253, "velocity": 85}, {"time": 137928, "pitch": 58, "duration": 253, "velocity": 90}, {"time": 137938, "pitch": 63, "duration": 233, "velocity": 95}, {"time": 137938, "pitch": 67, "duration": 233, "velocity": 100}, {"time": 138171, "pitch": 63, "duration": 253, "velocity": 85}, {"time": 138171, "pitch": 67, "duration": 253, "velocity": 90}, {"time": 138181, "pitch": 51, "duration": 233, "velocity": 75}, {"time": 138181, "pitch": 58, "duration": 233, "velocity": 80}, {"time": 138414, "pitch": 51, "duration": 130, "velocity": 85}, {"time": 138414, "pitch": 58, "duration": 130, "velocity": 90}, {"time": 138424, "pitch": 63, "duration": 110, "velocity": 95}, {"time": 138424, "pitch": 67, "duration": 110, "velocity": 100}, {"time": 138534, "pitch": 63, "duration": 129, "velocity": 90}, {"time": 138534, "pitch": 67, "duration": 129, "velocity": 95}, {"time": 138544, "pitch": 51, "duration": 109, "velocity": 80}, {"time": 138544, "pitch": 58, "duration": 109, "velocity": 85}, {"time": 138653, "pitch": 51, "duration": 220, "velocity": 75}, {"time": 138653, "pitch": 58, "duration": 220, "velocity": 80}, {"time": 138663, "pitch": 63, "duration": 210, "velocity": 85}, {"time": 138663, "pitch": 67, "duration": 210, "velocity": 90}, {"time": 138893, "pitch": 50, "duration": 250, "velocity": 85}, {"time": 138893, "pitch": 57, "duration": 250, "velocity": 90}, {"time": 138903, "pitch": 62, "duration": 230, "velocity": 95}, {"time": 138903, "pitch": 67, "duration": 230, "velocity": 100}, {"time": 139133, "pitch": 62, "duration": 250, "velocity": 85}, {"time": 139133, "pitch": 67, "duration": 250, "velocity": 90}, {"time": 139143, "pitch": 50, "duration": 230, "velocity": 75}, {"time": 139143, "pitch": 57, "duration": 230, "velocity": 80}, {"time": 139373, "pitch": 50, "duration": 249, "velocity": 95}, {"time": 139373, "pitch": 57, "duration": 249, "velocity": 100}, {"time": 139383, "pitch": 62, "duration": 229, "velocity": 105}, {"time": 139383, "pitch": 67, "duration": 229, "velocity": 110}, {"time": 139612, "pitch": 62, "duration": 250, "velocity": 85}, {"time": 139612, "pitch": 67, "duration": 250, "velocity": 90}, {"time": 139622, "pitch": 50, "duration": 230, "velocity": 75}, {"time": 139622, "pitch": 57, "duration": 230, "velocity": 80}, {"time": 139852, "pitch": 50, "duration": 250, "velocity": 85}, {"time": 139852, "pitch": 57, "duration": 250, "velocity": 90}, {"time": 139862, "pitch": 62, "duration": 230, "velocity": 95}, {"time": 139862, "pitch": 66, "duration": 230, "velocity": 100}, {"time": 140092, "pitch": 62, "duration": 250, "velocity": 85}, {"time": 140092, "pitch": 66, "duration": 250, "velocity": 90}, {"time": 140102, "pitch": 50, "duration": 230, "velocity": 75}, {"time": 140102, "pitch": 57, "duration": 230, "velocity": 80}, {"time": 140332, "pitch": 50, "duration": 129, "velocity": 85}, {"time": 140332, "pitch": 57, "duration": 129, "velocity": 90}, {"time": 140342, "pitch": 62, "duration": 109, "velocity": 95}, {"time": 140342, "pitch": 66, "duration": 109, "velocity": 100}, {"time": 140451, "pitch": 62, "duration": 130, "velocity": 90}, {"time": 140451, "pitch": 66, "duration": 130, "velocity": 95}, {"time": 140461, "pitch": 50, "duration": 110, "velocity": 80}, {"time": 140461, "pitch": 57, "duration": 110, "velocity": 85}, {"time": 140571, "pitch": 50, "duration": 220, "velocity": 75}, {"time": 140571, "pitch": 57, "duration": 220, "velocity": 80}, {"time": 140581, "pitch": 62, "duration": 210, "velocity": 85}, {"time": 140581, "pitch": 66, "duration": 210, "velocity": 90}, {"time": 140811, "pitch": 50, "duration": 250, "velocity": 85}, {"time": 140811, "pitch": 57, "duration": 250, "velocity": 90}, {"time": 140821, "pitch": 59, "duration": 230, "velocity": 95}, {"time": 140821, "pitch": 67, "duration": 230, "velocity": 100}, {"time": 141051, "pitch": 59, "duration": 250, "velocity": 85}, {"time": 141051, "pitch": 67, "duration": 250, "velocity": 90}, {"time": 141061, "pitch": 50, "duration": 230, "velocity": 75}, {"time": 141061, "pitch": 57, "duration": 230, "velocity": 80}, {"time": 141291, "pitch": 50, "duration": 249, "velocity": 95}, {"time": 141291, "pitch": 57, "duration": 249, "velocity": 100}, {"time": 141301, "pitch": 59, "duration": 229, "velocity": 105}, {"time": 141301, "pitch": 67, "duration": 229, "velocity": 110}, {"time": 141530, "pitch": 59, "duration": 250, "velocity": 85}, {"time": 141530, "pitch": 67, "duration": 250, "velocity": 90}, {"time": 141540, "pitch": 50, "duration": 230, "velocity": 75}, {"time": 141540, "pitch": 57, "duration": 230, "velocity": 80}, {"time": 141770, "pitch": 50, "duration": 250, "velocity": 85}, {"time": 141770, "pitch": 57, "duration": 250, "velocity": 90}, {"time": 141780, "pitch": 59, "duration": 230, "velocity": 95}, {"time": 141780, "pitch": 67, "duration": 230, "velocity": 100}, {"time": 142010, "pitch": 59, "duration": 249, "velocity": 85}, {"time": 142010, "pitch": 67, "duration": 249, "velocity": 90}, {"time": 142020, "pitch": 50, "duration": 230, "velocity": 75}, {"time": 142020, "pitch": 57, "duration": 230, "velocity": 80}, {"time": 142250, "pitch": 50, "duration": 129, "velocity": 85}, {"time": 142250, "pitch": 57, "duration": 129, "velocity": 90}, {"time": 142259, "pitch": 59, "duration": 110, "velocity": 95}, {"time": 142259, "pitch": 67, "duration": 110, "velocity": 100}, {"time": 142369, "pitch": 59, "duration": 130, "velocity": 90}, {"time": 142369, "pitch": 67, "duration": 130, "velocity": 95}, {"time": 142379, "pitch": 50, "duration": 110, "velocity": 80}, {"time": 142379, "pitch": 57, "duration": 110, "velocity": 85}, {"time": 142489, "pitch": 50, "duration": 220, "velocity": 75}, {"time": 142489, "pitch": 57, "duration": 220, "velocity": 80}, {"time": 142499, "pitch": 59, "duration": 210, "velocity": 85}, {"time": 142499, "pitch": 67, "duration": 210, "velocity": 90}, {"time": 142729, "pitch": 53, "duration": 250, "velocity": 85}, {"time": 142729, "pitch": 57, "duration": 250, "velocity": 90}, {"time": 142739, "pitch": 60, "duration": 230, "velocity": 95}, {"time": 142739, "pitch": 65, "duration": 230, "velocity": 100}, {"time": 142969, "pitch": 60, "duration": 249, "velocity": 85}, {"time": 142969, "pitch": 65, "duration": 249, "velocity": 90}, {"time": 142979, "pitch": 53, "duration": 229, "velocity": 75}, {"time": 142979, "pitch": 57, "duration": 229, "velocity": 80}, {"time": 143208, "pitch": 53, "duration": 250, "velocity": 95}, {"time": 143208, "pitch": 57, "duration": 250, "velocity": 100}, {"time": 143218, "pitch": 60, "duration": 230, "velocity": 105}, {"time": 143218, "pitch": 65, "duration": 230, "velocity": 110}, {"time": 143448, "pitch": 60, "duration": 250, "velocity": 85}, {"time": 143448, "pitch": 65, "duration": 250, "velocity": 90}, {"time": 143458, "pitch": 53, "duration": 230, "velocity": 75}, {"time": 143458, "pitch": 57, "duration": 230, "velocity": 80}, {"time": 143688, "pitch": 53, "duration": 253, "velocity": 85}, {"time": 143688, "pitch": 57, "duration": 253, "velocity": 90}, {"time": 143698, "pitch": 60, "duration": 233, "velocity": 95}, {"time": 143698, "pitch": 65, "duration": 233, "velocity": 100}, {"time": 143931, "pitch": 60, "duration": 253, "velocity": 85}, {"time": 143931, "pitch": 65, "duration": 253, "velocity": 90}, {"time": 143941, "pitch": 53, "duration": 233, "velocity": 75}, {"time": 143941, "pitch": 57, "duration": 233, "velocity": 80}, {"time": 144174, "pitch": 53, "duration": 130, "velocity": 85}, {"time": 144174, "pitch": 57, "duration": 130, "velocity": 90}, {"time": 144184, "pitch": 60, "duration": 110, "velocity": 95}, {"time": 144184, "pitch": 65, "duration": 110, "velocity": 100}, {"time": 144294, "pitch": 60, "duration": 129, "velocity": 90}, {"time": 144294, "pitch": 65, "duration": 129, "velocity": 95}, {"time": 144304, "pitch": 53, "duration": 109, "velocity": 80}, {"time": 144304, "pitch": 57, "duration": 109, "velocity": 85}, {"time": 144413, "pitch": 53, "duration": 220, "velocity": 75}, {"time": 144413, "pitch": 57, "duration": 220, "velocity": 80}, {"time": 144423, "pitch": 60, "duration": 210, "velocity": 85}, {"time": 144423, "pitch": 65, "duration": 210, "velocity": 90}, {"time": 144653, "pitch": 53, "duration": 250, "velocity": 85}, {"time": 144653, "pitch": 55, "duration": 250, "velocity": 90}, {"time": 144663, "pitch": 60, "duration": 230, "velocity": 95}, {"time": 144663, "pitch": 67, "duration": 230, "velocity": 100}, {"time": 144893, "pitch": 60, "duration": 250, "velocity": 85}, {"time": 144893, "pitch": 67, "duration": 250, "velocity": 90}, {"time": 144903, "pitch": 53, "duration": 230, "velocity": 75}, {"time": 144903, "pitch": 55, "duration": 230, "velocity": 80}, {"time": 145133, "pitch": 52, "duration": 249, "velocity": 95}, {"time": 145133, "pitch": 55, "duration": 249, "velocity": 100}, {"time": 145143, "pitch": 60, "duration": 229, "velocity": 105}, {"time": 145143, "pitch": 67, "duration": 229, "velocity": 110}, {"time": 145372, "pitch": 60, "duration": 250, "velocity": 85}, {"time": 145372, "pitch": 67, "duration": 250, "velocity": 90}, {"time": 145382, "pitch": 52, "duration": 230, "velocity": 75}, {"time": 145382, "pitch": 55, "duration": 230, "velocity": 80}, {"time": 145612, "pitch": 50, "duration": 250, "velocity": 85}, {"time": 145612, "pitch": 57, "duration": 250, "velocity": 90}, {"time": 145622, "pitch": 62, "duration": 230, "velocity": 95}, {"time": 145622, "pitch": 66, "duration": 230, "velocity": 100}, {"time": 145852, "pitch": 62, "duration": 250, "velocity": 85}, {"time": 145852, "pitch": 66, "duration": 250, "velocity": 90}, {"time": 145862, "pitch": 50, "duration": 230, "velocity": 75}, {"time": 145862, "pitch": 57, "duration": 230, "velocity": 80}, {"time": 146092, "pitch": 50, "duration": 129, "velocity": 85}, {"time": 146092, "pitch": 57, "duration": 129, "velocity": 90}, {"time": 146102, "pitch": 62, "duration": 109, "velocity": 95}, {"time": 146102, "pitch": 66, "duration": 109, "velocity": 100}, {"time": 146211, "pitch": 62, "duration": 130, "velocity": 90}, {"time": 146211, "pitch": 66, "duration": 130, "velocity": 95}, {"time": 146221, "pitch": 50, "duration": 110, "velocity": 80}, {"time": 146221, "pitch": 57, "duration": 110, "velocity": 85}, {"time": 146331, "pitch": 50, "duration": 220, "velocity": 75}, {"time": 146331, "pitch": 57, "duration": 220, "velocity": 80}, {"time": 146341, "pitch": 62, "duration": 210, "velocity": 85}, {"time": 146341, "pitch": 66, "duration": 210, "velocity": 90}, {"time": 146571, "pitch": 50, "duration": 250, "velocity": 85}, {"time": 146571, "pitch": 57, "duration": 250, "velocity": 90}, {"time": 146581, "pitch": 59, "duration": 230, "velocity": 95}, {"time": 146581, "pitch": 66, "duration": 230, "velocity": 100}, {"time": 146811, "pitch": 59, "duration": 250, "velocity": 85}, {"time": 146811, "pitch": 66, "duration": 250, "velocity": 90}, {"time": 146821, "pitch": 50, "duration": 230, "velocity": 75}, {"time": 146821, "pitch": 57, "duration": 230, "velocity": 80}, {"time": 147051, "pitch": 50, "duration": 249, "velocity": 95}, {"time": 147051, "pitch": 57, "duration": 249, "velocity": 100}, {"time": 147061, "pitch": 59, "duration": 229, "velocity": 105}, {"time": 147061, "pitch": 66, "duration": 229, "velocity": 110}, {"time": 147290, "pitch": 59, "duration": 250, "velocity": 85}, {"time": 147290, "pitch": 66, "duration": 250, "velocity": 90}, {"time": 147300, "pitch": 50, "duration": 230, "velocity": 75}, {"time": 147300, "pitch": 57, "duration": 230, "velocity": 80}, {"time": 147530, "pitch": 50, "duration": 250, "velocity": 85}, {"time": 147530, "pitch": 56, "duration": 250, "velocity": 90}, {"time": 147540, "pitch": 59, "duration": 230, "velocity": 95}, {"time": 147540, "pitch": 64, "duration": 230, "velocity": 100}, {"time": 147770, "pitch": 59, "duration": 249, "velocity": 85}, {"time": 147770, "pitch": 64, "duration": 249, "velocity": 90}, {"time": 147780, "pitch": 50, "duration": 230, "velocity": 75}, {"time": 147780, "pitch": 56, "duration": 230, "velocity": 80}, {"time": 148010, "pitch": 50, "duration": 129, "velocity": 85}, {"time": 148010, "pitch": 56, "duration": 129, "velocity": 90}, {"time": 148019, "pitch": 59, "duration": 110, "velocity": 95}, {"time": 148019, "pitch": 64, "duration": 110, "velocity": 100}, {"time": 148129, "pitch": 59, "duration": 130, "velocity": 90}, {"time": 148129, "pitch": 64, "duration": 130, "velocity": 95}, {"time": 148139, "pitch": 50, "duration": 110, "velocity": 80}, {"time": 148139, "pitch": 56, "duration": 110, "velocity": 85}, {"time": 148249, "pitch": 50, "duration": 220, "velocity": 75}, {"time": 148249, "pitch": 56, "duration": 220, "velocity": 80}, {"time": 148259, "pitch": 59, "duration": 210, "velocity": 85}, {"time": 148259, "pitch": 64, "duration": 210, "velocity": 90}, {"time": 148489, "pitch": 52, "duration": 250, "velocity": 85}, {"time": 148489, "pitch": 57, "duration": 250, "velocity": 90}, {"time": 148499, "pitch": 60, "duration": 230, "velocity": 95}, {"time": 148499, "pitch": 64, "duration": 230, "velocity": 100}, {"time": 148729, "pitch": 60, "duration": 249, "velocity": 85}, {"time": 148729, "pitch": 64, "duration": 249, "velocity": 90}, {"time": 148739, "pitch": 52, "duration": 229, "velocity": 75}, {"time": 148739, "pitch": 57, "duration": 229, "velocity": 80}, {"time": 148968, "pitch": 52, "duration": 250, "velocity": 95}, {"time": 148968, "pitch": 57, "duration": 250, "velocity": 100}, {"time": 148978, "pitch": 60, "duration": 230, "velocity": 105}, {"time": 148978, "pitch": 64, "duration": 230, "velocity": 110}, {"time": 149208, "pitch": 60, "duration": 250, "velocity": 85}, {"time": 149208, "pitch": 64, "duration": 250, "velocity": 90}, {"time": 149218, "pitch": 52, "duration": 230, "velocity": 75}, {"time": 149218, "pitch": 57, "duration": 230, "velocity": 80}, {"time": 149448, "pitch": 52, "duration": 253, "velocity": 85}, {"time": 149448, "pitch": 57, "duration": 253, "velocity": 90}, {"time": 149458, "pitch": 60, "duration": 233, "velocity": 95}, {"time": 149458, "pitch": 64, "duration": 233, "velocity": 100}, {"time": 149691, "pitch": 60, "duration": 253, "velocity": 85}, {"time": 149691, "pitch": 64, "duration": 253, "velocity": 90}, {"time": 149701, "pitch": 52, "duration": 233, "velocity": 75}, {"time": 149701, "pitch": 57, "duration": 233, "velocity": 80}, {"time": 149934, "pitch": 52, "duration": 130, "velocity": 85}, {"time": 149934, "pitch": 57, "duration": 130, "velocity": 90}, {"time": 149944, "pitch": 60, "duration": 110, "velocity": 95}, {"time": 149944, "pitch": 64, "duration": 110, "velocity": 100}, {"time": 150054, "pitch": 60, "duration": 129, "velocity": 90}, {"time": 150054, "pitch": 64, "duration": 129, "velocity": 95}, {"time": 150064, "pitch": 52, "duration": 109, "velocity": 80}, {"time": 150064, "pitch": 57, "duration": 109, "velocity": 85}, {"time": 150173, "pitch": 52, "duration": 220, "velocity": 75}, {"time": 150173, "pitch": 57, "duration": 220, "velocity": 80}, {"time": 150183, "pitch": 60, "duration": 210, "velocity": 85}, {"time": 150183, "pitch": 64, "duration": 210, "velocity": 90}, {"time": 150413, "pitch": 50, "duration": 250, "velocity": 85}, {"time": 150413, "pitch": 57, "duration": 250, "velocity": 90}, {"time": 150423, "pitch": 60, "duration": 230, "velocity": 95}, {"time": 150423, "pitch": 67, "duration": 230, "velocity": 100}, {"time": 150653, "pitch": 60, "duration": 250, "velocity": 85}, {"time": 150653, "pitch": 67, "duration": 250, "velocity": 90}, {"time": 150663, "pitch": 50, "duration": 230, "velocity": 75}, {"time": 150663, "pitch": 57, "duration": 230, "velocity": 80}, {"time": 150893, "pitch": 50, "duration": 249, "velocity": 95}, {"time": 150893, "pitch": 57, "duration": 249, "velocity": 100}, {"time": 150903, "pitch": 60, "duration": 229, "velocity": 105}, {"time": 150903, "pitch": 67, "duration": 229, "velocity": 110}, {"time": 151132, "pitch": 60, "duration": 250, "velocity": 85}, {"time": 151132, "pitch": 67, "duration": 250, "velocity": 90}, {"time": 151142, "pitch": 50, "duration": 230, "velocity": 75}, {"time": 151142, "pitch": 57, "duration": 230, "velocity": 80}, {"time": 151372, "pitch": 50, "duration": 250, "velocity": 85}, {"time": 151372, "pitch": 57, "duration": 250, "velocity": 90}, {"time": 151382, "pitch": 60, "duration": 230, "velocity": 95}, {"time": 151382, "pitch": 67, "duration": 230, "velocity": 100}, {"time": 151612, "pitch": 60, "duration": 250, "velocity": 85}, {"time": 151612, "pitch": 67, "duration": 250, "velocity": 90}, {"time": 151622, "pitch": 50, "duration": 230, "velocity": 75}, {"time": 151622, "pitch": 57, "duration": 230, "velocity": 80}, {"time": 151852, "pitch": 50, "duration": 129, "velocity": 85}, {"time": 151852, "pitch": 57, "duration": 129, "velocity": 90}, {"time": 151862, "pitch": 60, "duration": 109, "velocity": 95}, {"time": 151862, "pitch": 67, "duration": 109, "velocity": 100}, {"time": 151971, "pitch": 60, "duration": 130, "velocity": 90}, {"time": 151971, "pitch": 67, "duration": 130, "velocity": 95}, {"time": 151981, "pitch": 50, "duration": 110, "velocity": 80}, {"time": 151981, "pitch": 57, "duration": 110, "velocity": 85}, {"time": 152091, "pitch": 50, "duration": 220, "velocity": 75}, {"time": 152091, "pitch": 57, "duration": 220, "velocity": 80}, {"time": 152101, "pitch": 60, "duration": 210, "velocity": 85}, {"time": 152101, "pitch": 67, "duration": 210, "velocity": 90}, {"time": 152331, "pitch": 50, "duration": 480, "velocity": 85}, {"time": 152331, "pitch": 57, "duration": 480, "velocity": 90}, {"time": 152341, "pitch": 60, "duration": 480, "velocity": 95}, {"time": 152341, "pitch": 65, "duration": 480, "velocity": 100}, {"time": 152811, "pitch": 50, "duration": 119, "velocity": 75}, {"time": 152811, "pitch": 57, "duration": 119, "velocity": 80}, {"time": 152821, "pitch": 60, "duration": 119, "velocity": 85}, {"time": 152821, "pitch": 65, "duration": 109, "velocity": 90}, {"time": 153050, "pitch": 60, "duration": 480, "velocity": 95}, {"time": 153050, "pitch": 65, "duration": 480, "velocity": 100}, {"time": 153060, "pitch": 50, "duration": 480, "velocity": 85}, {"time": 153060, "pitch": 55, "duration": 480, "velocity": 90}, {"time": 153530, "pitch": 60, "duration": 249, "velocity": 85}, {"time": 153530, "pitch": 65, "duration": 249, "velocity": 90}, {"time": 153540, "pitch": 50, "duration": 230, "velocity": 75}, {"time": 153540, "pitch": 55, "duration": 230, "velocity": 80}, {"time": 153770, "pitch": 50, "duration": 129, "velocity": 85}, {"time": 153770, "pitch": 55, "duration": 129, "velocity": 90}, {"time": 153779, "pitch": 60, "duration": 110, "velocity": 95}, {"time": 153779, "pitch": 65, "duration": 110, "velocity": 100}, {"time": 153889, "pitch": 60, "duration": 130, "velocity": 90}, {"time": 153889, "pitch": 65, "duration": 130, "velocity": 95}, {"time": 153899, "pitch": 50, "duration": 110, "velocity": 80}, {"time": 153899, "pitch": 55, "duration": 110, "velocity": 85}, {"time": 154009, "pitch": 50, "duration": 220, "velocity": 75}, {"time": 154009, "pitch": 55, "duration": 220, "velocity": 80}, {"time": 154019, "pitch": 60, "duration": 210, "velocity": 85}, {"time": 154019, "pitch": 65, "duration": 210, "velocity": 90}, {"time": 154249, "pitch": 50, "duration": 250, "velocity": 85}, {"time": 154249, "pitch": 55, "duration": 250, "velocity": 90}, {"time": 154259, "pitch": 60, "duration": 230, "velocity": 95}, {"time": 154259, "pitch": 67, "duration": 230, "velocity": 100}, {"time": 154489, "pitch": 60, "duration": 249, "velocity": 85}, {"time": 154489, "pitch": 67, "duration": 249, "velocity": 90}, {"time": 154499, "pitch": 50, "duration": 229, "velocity": 75}, {"time": 154499, "pitch": 55, "duration": 229, "velocity": 80}, {"time": 154728, "pitch": 50, "duration": 250, "velocity": 95}, {"time": 154728, "pitch": 55, "duration": 250, "velocity": 100}, {"time": 154738, "pitch": 60, "duration": 230, "velocity": 105}, {"time": 154738, "pitch": 67, "duration": 230, "velocity": 110}, {"time": 154968, "pitch": 60, "duration": 250, "velocity": 85}, {"time": 154968, "pitch": 67, "duration": 250, "velocity": 90}, {"time": 154978, "pitch": 50, "duration": 230, "velocity": 75}, {"time": 154978, "pitch": 55, "duration": 230, "velocity": 80}, {"time": 155208, "pitch": 50, "duration": 253, "velocity": 85}, {"time": 155208, "pitch": 55, "duration": 253, "velocity": 90}, {"time": 155218, "pitch": 60, "duration": 233, "velocity": 95}, {"time": 155218, "pitch": 64, "duration": 233, "velocity": 100}, {"time": 155451, "pitch": 60, "duration": 253, "velocity": 85}, {"time": 155451, "pitch": 64, "duration": 253, "velocity": 90}, {"time": 155461, "pitch": 50, "duration": 233, "velocity": 75}, {"time": 155461, "pitch": 55, "duration": 233, "velocity": 80}, {"time": 155694, "pitch": 50, "duration": 130, "velocity": 85}, {"time": 155694, "pitch": 55, "duration": 130, "velocity": 90}, {"time": 155704, "pitch": 60, "duration": 110, "velocity": 95}, {"time": 155704, "pitch": 64, "duration": 110, "velocity": 100}, {"time": 155814, "pitch": 60, "duration": 129, "velocity": 90}, {"time": 155814, "pitch": 64, "duration": 129, "velocity": 95}, {"time": 155824, "pitch": 50, "duration": 109, "velocity": 80}, {"time": 155824, "pitch": 55, "duration": 109, "velocity": 85}, {"time": 155933, "pitch": 50, "duration": 220, "velocity": 75}, {"time": 155933, "pitch": 55, "duration": 220, "velocity": 80}, {"time": 155943, "pitch": 60, "duration": 210, "velocity": 85}, {"time": 155943, "pitch": 64, "duration": 210, "velocity": 90}, {"time": 156173, "pitch": 52, "duration": 250, "velocity": 85}, {"time": 156173, "pitch": 55, "duration": 250, "velocity": 90}, {"time": 156183, "pitch": 60, "duration": 230, "velocity": 95}, {"time": 156183, "pitch": 64, "duration": 230, "velocity": 100}, {"time": 156413, "pitch": 60, "duration": 250, "velocity": 85}, {"time": 156413, "pitch": 64, "duration": 250, "velocity": 90}, {"time": 156423, "pitch": 52, "duration": 230, "velocity": 75}, {"time": 156423, "pitch": 55, "duration": 230, "velocity": 80}, {"time": 156653, "pitch": 50, "duration": 249, "velocity": 95}, {"time": 156653, "pitch": 57, "duration": 249, "velocity": 100}, {"time": 156663, "pitch": 62, "duration": 229, "velocity": 105}, {"time": 156663, "pitch": 66, "duration": 229, "velocity": 110}, {"time": 156892, "pitch": 62, "duration": 250, "velocity": 85}, {"time": 156892, "pitch": 66, "duration": 250, "velocity": 90}, {"time": 156902, "pitch": 50, "duration": 230, "velocity": 75}, {"time": 156902, "pitch": 57, "duration": 230, "velocity": 80}, {"time": 157132, "pitch": 52, "duration": 250, "velocity": 85}, {"time": 157132, "pitch": 55, "duration": 250, "velocity": 90}, {"time": 157142, "pitch": 60, "duration": 230, "velocity": 95}, {"time": 157142, "pitch": 64, "duration": 230, "velocity": 100}, {"time": 157372, "pitch": 60, "duration": 250, "velocity": 85}, {"time": 157372, "pitch": 64, "duration": 250, "velocity": 90}, {"time": 157382, "pitch": 52, "duration": 230, "velocity": 75}, {"time": 157382, "pitch": 55, "duration": 230, "velocity": 80}, {"time": 157612, "pitch": 50, "duration": 249, "velocity": 95}, {"time": 157612, "pitch": 57, "duration": 249, "velocity": 100}, {"time": 157622, "pitch": 62, "duration": 229, "velocity": 105}, {"time": 157622, "pitch": 66, "duration": 229, "velocity": 110}, {"time": 157851, "pitch": 62, "duration": 230, "velocity": 85}, {"time": 157851, "pitch": 66, "duration": 230, "velocity": 90}, {"time": 157861, "pitch": 50, "duration": 210, "velocity": 75}, {"time": 157861, "pitch": 57, "duration": 210, "velocity": 80}, {"time": 158091, "pitch": 50, "duration": 250, "velocity": 85}, {"time": 158091, "pitch": 55, "duration": 250, "velocity": 90}, {"time": 158101, "pitch": 59, "duration": 230, "velocity": 95}, {"time": 158101, "pitch": 67, "duration": 230, "velocity": 100}, {"time": 158331, "pitch": 59, "duration": 250, "velocity": 85}, {"time": 158331, "pitch": 67, "duration": 250, "velocity": 90}, {"time": 158341, "pitch": 50, "duration": 230, "velocity": 75}, {"time": 158341, "pitch": 55, "duration": 230, "velocity": 80}, {"time": 158571, "pitch": 50, "duration": 249, "velocity": 95}, {"time": 158571, "pitch": 55, "duration": 249, "velocity": 100}, {"time": 158581, "pitch": 59, "duration": 229, "velocity": 105}, {"time": 158581, "pitch": 67, "duration": 229, "velocity": 110}, {"time": 158810, "pitch": 59, "duration": 250, "velocity": 85}, {"time": 158810, "pitch": 67, "duration": 250, "velocity": 90}, {"time": 158820, "pitch": 50, "duration": 230, "velocity": 75}, {"time": 158820, "pitch": 55, "duration": 230, "velocity": 80}, {"time": 159050, "pitch": 53, "duration": 250, "velocity": 85}, {"time": 159050, "pitch": 57, "duration": 250, "velocity": 90}, {"time": 159060, "pitch": 60, "duration": 230, "velocity": 95}, {"time": 159060, "pitch": 65, "duration": 230, "velocity": 100}, {"time": 159290, "pitch": 60, "duration": 250, "velocity": 85}, {"time": 159290, "pitch": 65, "duration": 250, "velocity": 90}, {"time": 159300, "pitch": 53, "duration": 230, "velocity": 75}, {"time": 159300, "pitch": 57, "duration": 230, "velocity": 80}, {"time": 159530, "pitch": 53, "duration": 129, "velocity": 85}, {"time": 159530, "pitch": 57, "duration": 129, "velocity": 90}, {"time": 159540, "pitch": 60, "duration": 109, "velocity": 95}, {"time": 159540, "pitch": 65, "duration": 109, "velocity": 100}, {"time": 159649, "pitch": 60, "duration": 130, "velocity": 90}, {"time": 159649, "pitch": 65, "duration": 130, "velocity": 95}, {"time": 159659, "pitch": 53, "duration": 110, "velocity": 80}, {"time": 159659, "pitch": 57, "duration": 110, "velocity": 85}, {"time": 159769, "pitch": 53, "duration": 220, "velocity": 75}, {"time": 159769, "pitch": 57, "duration": 220, "velocity": 80}, {"time": 159779, "pitch": 60, "duration": 210, "velocity": 85}, {"time": 159779, "pitch": 65, "duration": 210, "velocity": 90}, {"time": 160009, "pitch": 50, "duration": 250, "velocity": 85}, {"time": 160009, "pitch": 55, "duration": 250, "velocity": 90}, {"time": 160019, "pitch": 59, "duration": 230, "velocity": 95}, {"time": 160019, "pitch": 67, "duration": 230, "velocity": 100}, {"time": 160249, "pitch": 59, "duration": 249, "velocity": 85}, {"time": 160249, "pitch": 67, "duration": 249, "velocity": 90}, {"time": 160259, "pitch": 50, "duration": 229, "velocity": 75}, {"time": 160259, "pitch": 55, "duration": 229, "velocity": 80}, {"time": 160488, "pitch": 50, "duration": 250, "velocity": 95}, {"time": 160488, "pitch": 55, "duration": 250, "velocity": 100}, {"time": 160498, "pitch": 59, "duration": 230, "velocity": 105}, {"time": 160498, "pitch": 67, "duration": 230, "velocity": 110}, {"time": 160728, "pitch": 59, "duration": 250, "velocity": 85}, {"time": 160728, "pitch": 67, "duration": 250, "velocity": 90}, {"time": 160738, "pitch": 50, "duration": 230, "velocity": 75}, {"time": 160738, "pitch": 55, "duration": 230, "velocity": 80}, {"time": 160968, "pitch": 53, "duration": 934, "velocity": 85}, {"time": 160968, "pitch": 57, "duration": 934, "velocity": 90}, {"time": 160978, "pitch": 60, "duration": 924, "velocity": 95}, {"time": 160978, "pitch": 65, "duration": 924, "velocity": 100}, {"time": 162201, "pitch": 55, "duration": 479, "velocity": 80}, {"time": 162441, "pitch": 60, "duration": 1418, "velocity": 85}, {"time": 162680, "pitch": 55, "duration": 1179, "velocity": 80}, {"time": 162920, "pitch": 64, "duration": 939, "velocity": 90}, {"time": 164119, "pitch": 57, "duration": 479, "velocity": 80}, {"time": 164359, "pitch": 62, "duration": 1418, "velocity": 85}, {"time": 164598, "pitch": 57, "duration": 1179, "velocity": 80}, {"time": 164838, "pitch": 66, "duration": 939, "velocity": 90}, {"time": 166037, "pitch": 59, "duration": 479, "velocity": 80}, {"time": 166276, "pitch": 62, "duration": 1425, "velocity": 85}, {"time": 166516, "pitch": 59, "duration": 1185, "velocity": 80}, {"time": 166756, "pitch": 67, "duration": 945, "velocity": 90}, {"time": 167958, "pitch": 58, "duration": 476, "velocity": 80}, {"time": 168195, "pitch": 62, "duration": 1419, "velocity": 85}, {"time": 168434, "pitch": 58, "duration": 1180, "velocity": 80}, {"time": 168674, "pitch": 66, "duration": 940, "velocity": 90}, {"time": 169883, "pitch": 57, "duration": 487, "velocity": 80}, {"time": 170131, "pitch": 62, "duration": 1418, "velocity": 85}, {"time": 170370, "pitch": 57, "duration": 1179, "velocity": 80}, {"time": 170610, "pitch": 66, "duration": 939, "velocity": 90}, {"time": 171809, "pitch": 56, "duration": 479, "velocity": 80}, {"time": 172048, "pitch": 62, "duration": 1425, "velocity": 85}, {"time": 172288, "pitch": 56, "duration": 1185, "velocity": 80}, {"time": 172528, "pitch": 66, "duration": 945, "velocity": 90}, {"time": 173733, "pitch": 59, "duration": 479, "velocity": 80}, {"time": 173973, "pitch": 62, "duration": 1418, "velocity": 85}, {"time": 174212, "pitch": 59, "duration": 1179, "velocity": 80}, {"time": 174452, "pitch": 67, "duration": 939, "velocity": 90}, {"time": 175651, "pitch": 57, "duration": 479, "velocity": 80}, {"time": 175891, "pitch": 61, "duration": 1418, "velocity": 85}, {"time": 176130, "pitch": 57, "duration": 1179, "velocity": 80}, {"time": 176370, "pitch": 64, "duration": 939, "velocity": 90}, {"time": 177629, "pitch": 50, "duration": 9887, "velocity": 80}, {"time": 177659, "pitch": 57, "duration": 9857, "velocity": 85}, {"time": 177689, "pitch": 62, "duration": 9827, "velocity": 80}, {"time": 177719, "pitch": 66, "duration": 9797, "velocity": 90}, {"time": 15847, "pitch": 69, "duration": 641, "velocity": 100}, {"time": 16488, "pitch": 69, "duration": 480, "velocity": 80}, {"time": 16968, "pitch": 69, "duration": 441, "velocity": 60}, {"time": 17409, "pitch": 69, "duration": 356, "velocity": 40}, {"time": 17765, "pitch": 71, "duration": 648, "velocity": 100}, {"time": 19504, "pitch": 74, "duration": 178, "velocity": 100}, {"time": 19682, "pitch": 73, "duration": 1128, "velocity": 100}, {"time": 21425, "pitch": 74, "duration": 183, "velocity": 100}, {"time": 21608, "pitch": 76, "duration": 182, "velocity": 100}, {"time": 21972, "pitch": 71, "duration": 157, "velocity": 100}, {"time": 22129, "pitch": 69, "duration": 479, "velocity": 100}, {"time": 23528, "pitch": 69, "duration": 645, "velocity": 100}, {"time": 25371, "pitch": 69, "duration": 240, "velocity": 100}, {"time": 25611, "pitch": 69, "duration": 240, "velocity": 100}, {"time": 25851, "pitch": 71, "duration": 120, "velocity": 100}, {"time": 25971, "pitch": 71, "duration": 239, "velocity": 100}, {"time": 27183, "pitch": 74, "duration": 179, "velocity": 100}, {"time": 27362, "pitch": 73, "duration": 646, "velocity": 100}, {"time": 28008, "pitch": 71, "duration": 240, "velocity": 100}, {"time": 28248, "pitch": 69, "duration": 120, "velocity": 100}, {"time": 28368, "pitch": 71, "duration": 561, "velocity": 100}, {"time": 29106, "pitch": 66, "duration": 89, "velocity": 100}, {"time": 29195, "pitch": 66, "duration": 90, "velocity": 100}, {"time": 29285, "pitch": 73, "duration": 648, "velocity": 100}, {"time": 29933, "pitch": 71, "duration": 239, "velocity": 100}, {"time": 30172, "pitch": 69, "duration": 120, "velocity": 100}, {"time": 30292, "pitch": 71, "duration": 555, "velocity": 100}, {"time": 31024, "pitch": 69, "duration": 178, "velocity": 100}, {"time": 31202, "pitch": 71, "duration": 888, "velocity": 100}, {"time": 32090, "pitch": 69, "duration": 240, "velocity": 100}, {"time": 32330, "pitch": 71, "duration": 765, "velocity": 100}, {"time": 35045, "pitch": 69, "duration": 648, "velocity": 100}, {"time": 36962, "pitch": 71, "duration": 648, "velocity": 100}, {"time": 38705, "pitch": 74, "duration": 183, "velocity": 100}, {"time": 38888, "pitch": 73, "duration": 1120, "velocity": 100}, {"time": 40625, "pitch": 74, "duration": 183, "velocity": 100}, {"time": 40808, "pitch": 76, "duration": 185, "velocity": 100}, {"time": 41177, "pitch": 71, "duration": 156, "velocity": 100}, {"time": 41333, "pitch": 69, "duration": 479, "velocity": 100}, {"time": 42739, "pitch": 69, "duration": 632, "velocity": 100}, {"time": 44648, "pitch": 69, "duration": 364, "velocity": 100}, {"time": 45012, "pitch": 71, "duration": 157, "velocity": 100}, {"time": 45169, "pitch": 71, "duration": 239, "velocity": 100}, {"time": 46383, "pitch": 74, "duration": 177, "velocity": 100}, {"time": 46560, "pitch": 73, "duration": 641, "velocity": 100}, {"time": 47201, "pitch": 71, "duration": 234, "velocity": 100}, {"time": 47435, "pitch": 69, "duration": 117, "velocity": 100}, {"time": 47552, "pitch": 71, "duration": 559, "velocity": 100}, {"time": 48296, "pitch": 66, "duration": 93, "velocity": 100}, {"time": 48389, "pitch": 66, "duration": 93, "velocity": 100}, {"time": 48482, "pitch": 73, "duration": 649, "velocity": 100}, {"time": 49131, "pitch": 71, "duration": 233, "velocity": 100}, {"time": 49364, "pitch": 69, "duration": 117, "velocity": 100}, {"time": 49481, "pitch": 71, "duration": 565, "velocity": 100}, {"time": 50225, "pitch": 69, "duration": 89, "velocity": 100}, {"time": 50314, "pitch": 69, "duration": 94, "velocity": 100}, {"time": 50408, "pitch": 71, "duration": 877, "velocity": 100}, {"time": 51285, "pitch": 69, "duration": 237, "velocity": 100}, {"time": 51522, "pitch": 71, "duration": 749, "velocity": 100}, {"time": 54242, "pitch": 69, "duration": 346, "velocity": 100}, {"time": 54588, "pitch": 71, "duration": 161, "velocity": 100}, {"time": 54749, "pitch": 71, "duration": 966, "velocity": 100}, {"time": 55807, "pitch": 71, "duration": 172, "velocity": 100}, {"time": 55979, "pitch": 72, "duration": 172, "velocity": 100}, {"time": 56151, "pitch": 72, "duration": 349, "velocity": 100}, {"time": 56500, "pitch": 74, "duration": 166, "velocity": 100}, {"time": 56666, "pitch": 74, "duration": 713, "velocity": 100}, {"time": 57501, "pitch": 67, "duration": 207, "velocity": 100}, {"time": 57708, "pitch": 79, "duration": 181, "velocity": 100}, {"time": 57889, "pitch": 77, "duration": 183, "velocity": 100}, {"time": 58072, "pitch": 77, "duration": 358, "velocity": 100}, {"time": 58430, "pitch": 76, "duration": 163, "velocity": 100}, {"time": 58593, "pitch": 76, "duration": 361, "velocity": 100}, {"time": 58954, "pitch": 74, "duration": 240, "velocity": 100}, {"time": 59194, "pitch": 74, "duration": 240, "velocity": 100}, {"time": 59434, "pitch": 72, "duration": 204, "velocity": 100}, {"time": 59819, "pitch": 72, "duration": 91, "velocity": 100}, {"time": 59910, "pitch": 72, "duration": 91, "velocity": 100}, {"time": 60001, "pitch": 76, "duration": 351, "velocity": 100}, {"time": 60352, "pitch": 78, "duration": 520, "velocity": 100}, {"time": 60872, "pitch": 76, "duration": 240, "velocity": 100}, {"time": 61112, "pitch": 74, "duration": 628, "velocity": 100}, {"time": 61927, "pitch": 74, "duration": 346, "velocity": 100}, {"time": 62273, "pitch": 72, "duration": 159, "velocity": 100}, {"time": 62432, "pitch": 72, "duration": 358, "velocity": 100}, {"time": 62790, "pitch": 71, "duration": 240, "velocity": 100}, {"time": 63030, "pitch": 71, "duration": 121, "velocity": 100}, {"time": 63151, "pitch": 69, "duration": 235, "velocity": 100}, {"time": 63386, "pitch": 69, "duration": 365, "velocity": 100}, {"time": 63844, "pitch": 74, "duration": 356, "velocity": 100}, {"time": 64200, "pitch": 72, "duration": 160, "velocity": 100}, {"time": 64360, "pitch": 72, "duration": 360, "velocity": 100}, {"time": 64720, "pitch": 71, "duration": 240, "velocity": 100}, {"time": 64960, "pitch": 71, "duration": 120, "velocity": 100}, {"time": 65080, "pitch": 69, "duration": 120, "velocity": 100}, {"time": 65200, "pitch": 69, "duration": 380, "velocity": 100}, {"time": 65580, "pitch": 69, "duration": 182, "velocity": 100}, {"time": 65762, "pitch": 69, "duration": 369, "velocity": 100}, {"time": 66131, "pitch": 71, "duration": 280, "velocity": 100}, {"time": 66411, "pitch": 72, "duration": 239, "velocity": 100}, {"time": 66650, "pitch": 71, "duration": 676, "velocity": 100}, {"time": 67505, "pitch": 69, "duration": 89, "velocity": 100}, {"time": 67594, "pitch": 71, "duration": 94, "velocity": 100}, {"time": 67688, "pitch": 72, "duration": 629, "velocity": 100}, {"time": 68556, "pitch": 71, "duration": 120, "velocity": 100}, {"time": 68676, "pitch": 72, "duration": 120, "velocity": 100}, {"time": 68796, "pitch": 74, "duration": 446, "velocity": 100}, {"time": 69423, "pitch": 72, "duration": 90, "velocity": 100}, {"time": 69513, "pitch": 74, "duration": 91, "velocity": 100}, {"time": 69604, "pitch": 76, "duration": 649, "velocity": 100}, {"time": 70253, "pitch": 78, "duration": 479, "velocity": 100}, {"time": 70732, "pitch": 79, "duration": 436, "velocity": 100}, {"time": 71168, "pitch": 81, "duration": 354, "velocity": 100}, {"time": 71522, "pitch": 83, "duration": 1904, "velocity": 100}, {"time": 83042, "pitch": 69, "duration": 649, "velocity": 100}, {"time": 84962, "pitch": 71, "duration": 646, "velocity": 100}, {"time": 86705, "pitch": 74, "duration": 180, "velocity": 100}, {"time": 86885, "pitch": 73, "duration": 1724, "velocity": 100}, {"time": 88624, "pitch": 74, "duration": 178, "velocity": 100}, {"time": 88802, "pitch": 76, "duration": 186, "velocity": 100}, {"time": 89173, "pitch": 71, "duration": 158, "velocity": 100}, {"time": 89331, "pitch": 69, "duration": 479, "velocity": 100}, {"time": 90728, "pitch": 69, "duration": 640, "velocity": 100}, {"time": 92645, "pitch": 69, "duration": 371, "velocity": 100}, {"time": 93016, "pitch": 71, "duration": 157, "velocity": 100}, {"time": 93173, "pitch": 71, "duration": 239, "velocity": 100}, {"time": 94387, "pitch": 74, "duration": 184, "velocity": 100}, {"time": 94571, "pitch": 73, "duration": 629, "velocity": 100}, {"time": 95200, "pitch": 71, "duration": 241, "velocity": 100}, {"time": 95441, "pitch": 69, "duration": 121, "velocity": 100}, {"time": 95562, "pitch": 71, "duration": 595, "velocity": 100}, {"time": 96397, "pitch": 66, "duration": 120, "velocity": 100}, {"time": 96517, "pitch": 66, "duration": 120, "velocity": 100}, {"time": 96637, "pitch": 73, "duration": 491, "velocity": 100}, {"time": 97128, "pitch": 71, "duration": 234, "velocity": 100}, {"time": 97362, "pitch": 69, "duration": 118, "velocity": 100}, {"time": 97480, "pitch": 71, "duration": 608, "velocity": 100}, {"time": 98324, "pitch": 69, "duration": 119, "velocity": 100}, {"time": 98443, "pitch": 69, "duration": 118, "velocity": 100}, {"time": 98561, "pitch": 71, "duration": 725, "velocity": 100}, {"time": 99286, "pitch": 69, "duration": 240, "velocity": 100}, {"time": 99526, "pitch": 71, "duration": 959, "velocity": 100}, {"time": 102386, "pitch": 69, "duration": 243, "velocity": 100}, {"time": 102629, "pitch": 71, "duration": 122, "velocity": 100}, {"time": 102751, "pitch": 71, "duration": 955, "velocity": 100}, {"time": 103825, "pitch": 71, "duration": 247, "velocity": 100}, {"time": 104072, "pitch": 72, "duration": 249, "velocity": 100}, {"time": 104321, "pitch": 72, "duration": 240, "velocity": 100}, {"time": 104561, "pitch": 74, "duration": 120, "velocity": 100}, {"time": 104681, "pitch": 74, "duration": 719, "velocity": 100}, {"time": 105520, "pitch": 67, "duration": 240, "velocity": 100}, {"time": 105760, "pitch": 79, "duration": 239, "velocity": 100}, {"time": 105999, "pitch": 77, "duration": 240, "velocity": 100}, {"time": 106239, "pitch": 77, "duration": 246, "velocity": 100}, {"time": 106485, "pitch": 76, "duration": 123, "velocity": 100}, {"time": 106608, "pitch": 76, "duration": 362, "velocity": 100}, {"time": 106970, "pitch": 74, "duration": 240, "velocity": 100}, {"time": 107210, "pitch": 74, "duration": 240, "velocity": 100}, {"time": 107450, "pitch": 72, "duration": 239, "velocity": 100}, {"time": 107923, "pitch": 72, "duration": 117, "velocity": 100}, {"time": 108040, "pitch": 72, "duration": 118, "velocity": 100}, {"time": 108158, "pitch": 76, "duration": 242, "velocity": 100}, {"time": 108400, "pitch": 78, "duration": 488, "velocity": 100}, {"time": 108888, "pitch": 76, "duration": 246, "velocity": 100}, {"time": 109134, "pitch": 74, "duration": 719, "velocity": 100}, {"time": 110093, "pitch": 74, "duration": 240, "velocity": 100}, {"time": 110333, "pitch": 72, "duration": 120, "velocity": 100}, {"time": 110453, "pitch": 72, "duration": 359, "velocity": 100}, {"time": 110812, "pitch": 71, "duration": 240, "velocity": 100}, {"time": 111052, "pitch": 71, "duration": 120, "velocity": 100}, {"time": 111172, "pitch": 69, "duration": 240, "velocity": 100}, {"time": 111412, "pitch": 69, "duration": 479, "velocity": 100}, {"time": 112011, "pitch": 74, "duration": 234, "velocity": 100}, {"time": 112245, "pitch": 72, "duration": 117, "velocity": 100}, {"time": 112362, "pitch": 72, "duration": 356, "velocity": 100}, {"time": 112718, "pitch": 71, "duration": 240, "velocity": 100}, {"time": 112958, "pitch": 71, "duration": 120, "velocity": 100}, {"time": 113078, "pitch": 69, "duration": 120, "velocity": 100}, {"time": 113198, "pitch": 69, "duration": 479, "velocity": 100}, {"time": 113677, "pitch": 69, "duration": 240, "velocity": 100}, {"time": 113917, "pitch": 69, "duration": 246, "velocity": 100}, {"time": 114163, "pitch": 71, "duration": 245, "velocity": 100}, {"time": 114408, "pitch": 72, "duration": 240, "velocity": 100}, {"time": 114648, "pitch": 71, "duration": 726, "velocity": 100}, {"time": 115610, "pitch": 69, "duration": 119, "velocity": 100}, {"time": 115729, "pitch": 71, "duration": 118, "velocity": 100}, {"time": 115847, "pitch": 72, "duration": 474, "velocity": 100}, {"time": 116558, "pitch": 71, "duration": 118, "velocity": 100}, {"time": 116676, "pitch": 72, "duration": 119, "velocity": 100}, {"time": 116795, "pitch": 74, "duration": 480, "velocity": 100}, {"time": 117514, "pitch": 72, "duration": 120, "velocity": 100}, {"time": 117634, "pitch": 74, "duration": 120, "velocity": 100}, {"time": 117754, "pitch": 76, "duration": 486, "velocity": 100}, {"time": 118240, "pitch": 78, "duration": 478, "velocity": 100}, {"time": 118718, "pitch": 79, "duration": 479, "velocity": 100}, {"time": 119197, "pitch": 81, "duration": 480, "velocity": 100}, {"time": 119677, "pitch": 83, "duration": 1924, "velocity": 100}, {"time": 140811, "pitch": 69, "duration": 240, "velocity": 100}, {"time": 141051, "pitch": 71, "duration": 120, "velocity": 100}, {"time": 141171, "pitch": 71, "duration": 959, "velocity": 100}, {"time": 142250, "pitch": 71, "duration": 239, "velocity": 100}, {"time": 142489, "pitch": 72, "duration": 240, "velocity": 100}, {"time": 142729, "pitch": 72, "duration": 240, "velocity": 100}, {"time": 142969, "pitch": 74, "duration": 120, "velocity": 100}, {"time": 143089, "pitch": 74, "duration": 720, "velocity": 100}, {"time": 143931, "pitch": 67, "duration": 243, "velocity": 100}, {"time": 144174, "pitch": 79, "duration": 239, "velocity": 100}, {"time": 144413, "pitch": 77, "duration": 240, "velocity": 100}, {"time": 144653, "pitch": 77, "duration": 240, "velocity": 100}, {"time": 144893, "pitch": 76, "duration": 120, "velocity": 100}, {"time": 145013, "pitch": 76, "duration": 359, "velocity": 100}, {"time": 145372, "pitch": 74, "duration": 240, "velocity": 100}, {"time": 145612, "pitch": 74, "duration": 240, "velocity": 100}, {"time": 145852, "pitch": 72, "duration": 240, "velocity": 100}, {"time": 146331, "pitch": 72, "duration": 120, "velocity": 100}, {"time": 146451, "pitch": 72, "duration": 120, "velocity": 100}, {"time": 146571, "pitch": 76, "duration": 240, "velocity": 100}, {"time": 146811, "pitch": 78, "duration": 479, "velocity": 100}, {"time": 147290, "pitch": 76, "duration": 240, "velocity": 100}, {"time": 147530, "pitch": 74, "duration": 719, "velocity": 100}, {"time": 148489, "pitch": 74, "duration": 240, "velocity": 100}, {"time": 148729, "pitch": 72, "duration": 120, "velocity": 100}, {"time": 148849, "pitch": 72, "duration": 359, "velocity": 100}, {"time": 149208, "pitch": 71, "duration": 240, "velocity": 100}, {"time": 149448, "pitch": 71, "duration": 121, "velocity": 100}, {"time": 149569, "pitch": 69, "duration": 243, "velocity": 100}, {"time": 149812, "pitch": 69, "duration": 481, "velocity": 100}, {"time": 150413, "pitch": 74, "duration": 240, "velocity": 100}, {"time": 150653, "pitch": 72, "duration": 120, "velocity": 100}, {"time": 150773, "pitch": 72, "duration": 359, "velocity": 100}, {"time": 151132, "pitch": 71, "duration": 240, "velocity": 100}, {"time": 151372, "pitch": 71, "duration": 120, "velocity": 100}, {"time": 151492, "pitch": 69, "duration": 120, "velocity": 100}, {"time": 151612, "pitch": 69, "duration": 479, "velocity": 100}, {"time": 152091, "pitch": 69, "duration": 240, "velocity": 100}, {"time": 152331, "pitch": 69, "duration": 240, "velocity": 100}, {"time": 152571, "pitch": 71, "duration": 240, "velocity": 100}, {"time": 152811, "pitch": 72, "duration": 239, "velocity": 100}, {"time": 153050, "pitch": 71, "duration": 720, "velocity": 100}, {"time": 154009, "pitch": 69, "duration": 120, "velocity": 100}, {"time": 154129, "pitch": 71, "duration": 120, "velocity": 100}, {"time": 154249, "pitch": 72, "duration": 479, "velocity": 100}, {"time": 154968, "pitch": 71, "duration": 120, "velocity": 100}, {"time": 155088, "pitch": 72, "duration": 120, "velocity": 100}, {"time": 155208, "pitch": 74, "duration": 486, "velocity": 100}, {"time": 155933, "pitch": 72, "duration": 120, "velocity": 100}, {"time": 156053, "pitch": 74, "duration": 120, "velocity": 100}, {"time": 156173, "pitch": 76, "duration": 480, "velocity": 100}, {"time": 156653, "pitch": 78, "duration": 479, "velocity": 100}, {"time": 157132, "pitch": 79, "duration": 480, "velocity": 100}, {"time": 157612, "pitch": 81, "duration": 479, "velocity": 100}, {"time": 158091, "pitch": 83, "duration": 3831, "velocity": 100}, {"time": 3039, "pitch": 98, "duration": 10868, "velocity": 40}, {"time": 13907, "pitch": 97, "duration": 1921, "velocity": 30}, {"time": 83026, "pitch": 81, "duration": 2562, "velocity": 31}, {"time": 85578, "pitch": 79, "duration": 520, "velocity": 51}, {"time": 86078, "pitch": 88, "duration": 443, "velocity": 35}, {"time": 86513, "pitch": 86, "duration": 347, "velocity": 51}, {"time": 86875, "pitch": 81, "duration": 2556, "velocity": 44}, {"time": 89411, "pitch": 86, "duration": 519, "velocity": 51}, {"time": 89900, "pitch": 91, "duration": 481, "velocity": 56}, {"time": 90359, "pitch": 90, "duration": 357, "velocity": 59}, {"time": 90716, "pitch": 81, "duration": 2537, "velocity": 41}, {"time": 93243, "pitch": 79, "duration": 529, "velocity": 50}, {"time": 93762, "pitch": 88, "duration": 447, "velocity": 44}, {"time": 94194, "pitch": 86, "duration": 349, "velocity": 46}, {"time": 94543, "pitch": 85, "duration": 1110, "velocity": 45}, {"time": 95664, "pitch": 83, "duration": 973, "velocity": 32}, {"time": 96627, "pitch": 85, "duration": 950, "velocity": 32}, {"time": 97558, "pitch": 83, "duration": 3900, "velocity": 19}, {"time": 101468, "pitch": 74, "duration": 237, "velocity": 93}, {"time": 101705, "pitch": 76, "duration": 236, "velocity": 91}, {"time": 101941, "pitch": 78, "duration": 237, "velocity": 91}, {"time": 102178, "pitch": 81, "duration": 238, "velocity": 83}, {"time": 102436, "pitch": 83, "duration": 1626, "velocity": 75}, {"time": 104072, "pitch": 84, "duration": 239, "velocity": 75}, {"time": 104311, "pitch": 86, "duration": 1429, "velocity": 81}, {"time": 105770, "pitch": 91, "duration": 1440, "velocity": 71}, {"time": 107210, "pitch": 93, "duration": 440, "velocity": 77}, {"time": 107660, "pitch": 90, "duration": 371, "velocity": 77}, {"time": 108050, "pitch": 91, "duration": 49, "velocity": 63}, {"time": 108099, "pitch": 90, "duration": 29, "velocity": 73}, {"time": 108119, "pitch": 88, "duration": 48, "velocity": 55}, {"time": 108158, "pitch": 86, "duration": 955, "velocity": 67}, {"time": 109103, "pitch": 80, "duration": 251, "velocity": 81}, {"time": 109343, "pitch": 81, "duration": 250, "velocity": 65}, {"time": 109583, "pitch": 83, "duration": 230, "velocity": 77}, {"time": 109823, "pitch": 86, "duration": 500, "velocity": 69}, {"time": 110323, "pitch": 84, "duration": 469, "velocity": 67}, {"time": 110802, "pitch": 83, "duration": 230, "velocity": 67}, {"time": 111042, "pitch": 84, "duration": 230, "velocity": 67}, {"time": 111282, "pitch": 83, "duration": 230, "velocity": 73}, {"time": 111512, "pitch": 81, "duration": 249, "velocity": 71}, {"time": 111761, "pitch": 79, "duration": 260, "velocity": 75}, {"time": 112011, "pitch": 81, "duration": 127, "velocity": 75}, {"time": 112128, "pitch": 83, "duration": 78, "velocity": 63}, {"time": 112226, "pitch": 84, "duration": 1631, "velocity": 71}, {"time": 113948, "pitch": 81, "duration": 246, "velocity": 91}, {"time": 114194, "pitch": 83, "duration": 264, "velocity": 89}, {"time": 114438, "pitch": 84, "duration": 50, "velocity": 89}, {"time": 114678, "pitch": 83, "duration": 952, "velocity": 89}, {"time": 115630, "pitch": 81, "duration": 109, "velocity": 75}, {"time": 115719, "pitch": 83, "duration": 69, "velocity": 67}, {"time": 115837, "pitch": 84, "duration": 730, "velocity": 85}, {"time": 116567, "pitch": 81, "duration": 119, "velocity": 69}, {"time": 116686, "pitch": 83, "duration": 99, "velocity": 63}, {"time": 116795, "pitch": 84, "duration": 739, "velocity": 77}, {"time": 117534, "pitch": 81, "duration": 130, "velocity": 67}, {"time": 117654, "pitch": 83, "duration": 100, "velocity": 69}, {"time": 117754, "pitch": 84, "duration": 465, "velocity": 69}, {"time": 118219, "pitch": 86, "duration": 499, "velocity": 67}, {"time": 118718, "pitch": 88, "duration": 479, "velocity": 60}, {"time": 119178, "pitch": 90, "duration": 479, "velocity": 62}, {"time": 119667, "pitch": 91, "duration": 3864, "velocity": 67}, {"time": 123541, "pitch": 91, "duration": 1428, "velocity": 81}, {"time": 124979, "pitch": 93, "duration": 230, "velocity": 95}, {"time": 125219, "pitch": 90, "duration": 240, "velocity": 99}, {"time": 125459, "pitch": 86, "duration": 2124, "velocity": 93}, {"time": 127613, "pitch": 84, "duration": 459, "velocity": 93}, {"time": 128072, "pitch": 83, "duration": 240, "velocity": 99}, {"time": 128312, "pitch": 84, "duration": 260, "velocity": 99}, {"time": 128562, "pitch": 83, "duration": 250, "velocity": 97}, {"time": 128812, "pitch": 81, "duration": 239, "velocity": 99}, {"time": 129051, "pitch": 79, "duration": 260, "velocity": 101}, {"time": 129311, "pitch": 81, "duration": 200, "velocity": 99}, {"time": 129541, "pitch": 83, "duration": 60, "velocity": 101}, {"time": 129661, "pitch": 83, "duration": 289, "velocity": 105}, {"time": 130010, "pitch": 83, "duration": 130, "velocity": 103}, {"time": 130130, "pitch": 84, "duration": 80, "velocity": 99}, {"time": 130250, "pitch": 86, "duration": 390, "velocity": 105}, {"time": 130620, "pitch": 87, "duration": 100, "velocity": 113}, {"time": 130739, "pitch": 89, "duration": 220, "velocity": 99}, {"time": 130969, "pitch": 82, "duration": 250, "velocity": 109}, {"time": 131209, "pitch": 91, "duration": 969, "velocity": 85}, {"time": 132168, "pitch": 93, "duration": 243, "velocity": 105}, {"time": 132401, "pitch": 94, "duration": 212, "velocity": 105}, {"time": 132623, "pitch": 96, "duration": 240, "velocity": 97}, {"time": 132883, "pitch": 93, "duration": 240, "velocity": 97}, {"time": 133113, "pitch": 89, "duration": 989, "velocity": 99}, {"time": 134092, "pitch": 93, "duration": 230, "velocity": 105}, {"time": 134322, "pitch": 94, "duration": 220, "velocity": 105}, {"time": 134562, "pitch": 96, "duration": 229, "velocity": 95}, {"time": 134811, "pitch": 98, "duration": 480, "velocity": 95}, {"time": 135291, "pitch": 93, "duration": 250, "velocity": 95}, {"time": 135531, "pitch": 98, "duration": 239, "velocity": 101}, {"time": 135760, "pitch": 96, "duration": 470, "velocity": 91}, {"time": 136220, "pitch": 94, "duration": 240, "velocity": 103}, {"time": 136470, "pitch": 93, "duration": 219, "velocity": 99}, {"time": 136689, "pitch": 94, "duration": 240, "velocity": 101}, {"time": 136939, "pitch": 91, "duration": 270, "velocity": 99}, {"time": 137199, "pitch": 94, "duration": 229, "velocity": 105}, {"time": 137438, "pitch": 99, "duration": 250, "velocity": 101}, {"time": 137678, "pitch": 101, "duration": 695, "velocity": 80}, {"time": 138383, "pitch": 103, "duration": 1459, "velocity": 83}, {"time": 139882, "pitch": 102, "duration": 110, "velocity": 107}, {"time": 140002, "pitch": 98, "duration": 90, "velocity": 95}, {"time": 140122, "pitch": 96, "duration": 80, "velocity": 105}, {"time": 140242, "pitch": 93, "duration": 90, "velocity": 109}, {"time": 140362, "pitch": 90, "duration": 79, "velocity": 105}, {"time": 140481, "pitch": 86, "duration": 90, "velocity": 80}, {"time": 140601, "pitch": 84, "duration": 100, "velocity": 97}, {"time": 140721, "pitch": 93, "duration": 120, "velocity": 85}, {"time": 140851, "pitch": 83, "duration": 1688, "velocity": 75}, {"time": 140851, "pitch": 95, "duration": 1688, "velocity": 75}, {"time": 142489, "pitch": 84, "duration": 230, "velocity": 75}, {"time": 142489, "pitch": 96, "duration": 230, "velocity": 75}, {"time": 142719, "pitch": 86, "duration": 909, "velocity": 81}, {"time": 142719, "pitch": 98, "duration": 909, "velocity": 81}, {"time": 143638, "pitch": 79, "duration": 536, "velocity": 83}, {"time": 143638, "pitch": 91, "duration": 536, "velocity": 83}, {"time": 144184, "pitch": 91, "duration": 10, "velocity": 71}, {"time": 144184, "pitch": 103, "duration": 1428, "velocity": 71}, {"time": 145612, "pitch": 93, "duration": 440, "velocity": 77}, {"time": 145612, "pitch": 105, "duration": 440, "velocity": 77}, {"time": 146062, "pitch": 90, "duration": 379, "velocity": 77}, {"time": 146062, "pitch": 102, "duration": 379, "velocity": 77}, {"time": 146461, "pitch": 91, "duration": 50, "velocity": 63}, {"time": 146461, "pitch": 103, "duration": 50, "velocity": 63}, {"time": 146511, "pitch": 90, "duration": 30, "velocity": 73}, {"time": 146511, "pitch": 102, "duration": 30, "velocity": 73}, {"time": 146531, "pitch": 88, "duration": 50, "velocity": 55}, {"time": 146531, "pitch": 100, "duration": 50, "velocity": 55}, {"time": 146571, "pitch": 86, "duration": 939, "velocity": 67}, {"time": 146571, "pitch": 98, "duration": 939, "velocity": 67}, {"time": 147500, "pitch": 80, "duration": 250, "velocity": 81}, {"time": 147500, "pitch": 92, "duration": 250, "velocity": 81}, {"time": 147740, "pitch": 81, "duration": 250, "velocity": 65}, {"time": 147740, "pitch": 93, "duration": 250, "velocity": 65}, {"time": 147980, "pitch": 83, "duration": 229, "velocity": 77}, {"time": 147980, "pitch": 95, "duration": 229, "velocity": 77}, {"time": 148219, "pitch": 86, "duration": 500, "velocity": 69}, {"time": 148219, "pitch": 98, "duration": 500, "velocity": 69}, {"time": 148719, "pitch": 84, "duration": 469, "velocity": 67}, {"time": 148719, "pitch": 96, "duration": 469, "velocity": 67}, {"time": 149198, "pitch": 83, "duration": 230, "velocity": 67}, {"time": 149198, "pitch": 95, "duration": 230, "velocity": 67}, {"time": 149438, "pitch": 84, "duration": 233, "velocity": 67}, {"time": 149438, "pitch": 96, "duration": 233, "velocity": 67}, {"time": 149681, "pitch": 83, "duration": 232, "velocity": 73}, {"time": 149681, "pitch": 95, "duration": 232, "velocity": 73}, {"time": 149913, "pitch": 81, "duration": 250, "velocity": 71}, {"time": 149913, "pitch": 93, "duration": 250, "velocity": 71}, {"time": 150163, "pitch": 79, "duration": 260, "velocity": 75}, {"time": 150163, "pitch": 91, "duration": 260, "velocity": 75}, {"time": 150413, "pitch": 81, "duration": 130, "velocity": 75}, {"time": 150413, "pitch": 93, "duration": 130, "velocity": 75}, {"time": 150533, "pitch": 83, "duration": 80, "velocity": 63}, {"time": 150533, "pitch": 95, "duration": 80, "velocity": 63}, {"time": 150633, "pitch": 84, "duration": 1638, "velocity": 71}, {"time": 150633, "pitch": 96, "duration": 1638, "velocity": 71}, {"time": 152321, "pitch": 81, "duration": 240, "velocity": 91}, {"time": 152321, "pitch": 93, "duration": 240, "velocity": 91}, {"time": 152561, "pitch": 83, "duration": 260, "velocity": 89}, {"time": 152561, "pitch": 95, "duration": 260, "velocity": 89}, {"time": 152811, "pitch": 84, "duration": 49, "velocity": 89}, {"time": 152811, "pitch": 96, "duration": 49, "velocity": 89}, {"time": 153060, "pitch": 83, "duration": 949, "velocity": 89}, {"time": 153060, "pitch": 95, "duration": 949, "velocity": 89}, {"time": 154029, "pitch": 81, "duration": 110, "velocity": 75}, {"time": 154029, "pitch": 93, "duration": 110, "velocity": 75}, {"time": 154119, "pitch": 83, "duration": 70, "velocity": 67}, {"time": 154119, "pitch": 95, "duration": 70, "velocity": 67}, {"time": 154239, "pitch": 84, "duration": 739, "velocity": 85}, {"time": 154239, "pitch": 96, "duration": 739, "velocity": 85}, {"time": 154978, "pitch": 81, "duration": 120, "velocity": 69}, {"time": 154978, "pitch": 93, "duration": 120, "velocity": 69}, {"time": 155098, "pitch": 83, "duration": 100, "velocity": 63}, {"time": 155098, "pitch": 95, "duration": 100, "velocity": 63}, {"time": 155208, "pitch": 84, "duration": 745, "velocity": 77}, {"time": 155208, "pitch": 96, "duration": 745, "velocity": 77}, {"time": 155953, "pitch": 81, "duration": 130, "velocity": 67}, {"time": 155953, "pitch": 93, "duration": 130, "velocity": 67}, {"time": 156073, "pitch": 83, "duration": 100, "velocity": 69}, {"time": 156073, "pitch": 95, "duration": 100, "velocity": 69}, {"time": 156173, "pitch": 84, "duration": 460, "velocity": 69}, {"time": 156173, "pitch": 96, "duration": 460, "velocity": 69}, {"time": 156633, "pitch": 86, "duration": 499, "velocity": 67}, {"time": 156633, "pitch": 98, "duration": 499, "velocity": 67}, {"time": 157132, "pitch": 88, "duration": 480, "velocity": 60}, {"time": 157132, "pitch": 100, "duration": 480, "velocity": 60}, {"time": 157592, "pitch": 90, "duration": 479, "velocity": 62}, {"time": 157592, "pitch": 102, "duration": 479, "velocity": 62}, {"time": 158081, "pitch": 91, "duration": 3841, "velocity": 67}, {"time": 158081, "pitch": 103, "duration": 3841, "velocity": 67}, {"time": 165777, "pitch": 74, "duration": 5762, "velocity": 69}, {"time": 171549, "pitch": 71, "duration": 949, "velocity": 59}, {"time": 172488, "pitch": 73, "duration": 995, "velocity": 69}, {"time": 173483, "pitch": 74, "duration": 1888, "velocity": 55}, {"time": 175371, "pitch": 73, "duration": 2248, "velocity": 69}, {"time": 177619, "pitch": 74, "duration": 5310, "velocity": 53}, {"time": 3019, "pitch": 86, "duration": 10866, "velocity": 40}, {"time": 13892, "pitch": 85, "duration": 1955, "velocity": 30}, {"time": 83026, "pitch": 76, "duration": 675, "velocity": 49}, {"time": 83701, "pitch": 74, "duration": 459, "velocity": 45}, {"time": 84150, "pitch": 79, "duration": 448, "velocity": 37}, {"time": 84598, "pitch": 78, "duration": 356, "velocity": 59}, {"time": 84962, "pitch": 76, "duration": 2551, "velocity": 49}, {"time": 87493, "pitch": 73, "duration": 932, "velocity": 57}, {"time": 88432, "pitch": 78, "duration": 347, "velocity": 55}, {"time": 88786, "pitch": 76, "duration": 2592, "velocity": 59}, {"time": 91358, "pitch": 74, "duration": 470, "velocity": 47}, {"time": 91828, "pitch": 79, "duration": 445, "velocity": 49}, {"time": 92266, "pitch": 78, "duration": 347, "velocity": 59}, {"time": 92628, "pitch": 76, "duration": 3005, "velocity": 52}, {"time": 95623, "pitch": 75, "duration": 515, "velocity": 52}, {"time": 96129, "pitch": 77, "duration": 498, "velocity": 53}, {"time": 96627, "pitch": 76, "duration": 921, "velocity": 57}, {"time": 97548, "pitch": 75, "duration": 540, "velocity": 52}, {"time": 98067, "pitch": 78, "duration": 485, "velocity": 52}, {"time": 98552, "pitch": 76, "duration": 2916, "velocity": 55}, {"time": 101468, "pitch": 69, "duration": 237, "velocity": 79}, {"time": 101705, "pitch": 72, "duration": 206, "velocity": 81}, {"time": 101941, "pitch": 74, "duration": 237, "velocity": 87}, {"time": 102178, "pitch": 76, "duration": 238, "velocity": 83}, {"time": 102405, "pitch": 74, "duration": 1854, "velocity": 73}, {"time": 104351, "pitch": 74, "duration": 120, "velocity": 75}, {"time": 104471, "pitch": 76, "duration": 120, "velocity": 69}, {"time": 104591, "pitch": 77, "duration": 1679, "velocity": 79}, {"time": 106229, "pitch": 76, "duration": 961, "velocity": 77}, {"time": 107190, "pitch": 78, "duration": 919, "velocity": 77}, {"time": 108119, "pitch": 81, "duration": 1005, "velocity": 75}, {"time": 109124, "pitch": 76, "duration": 4803, "velocity": 83}, {"time": 113948, "pitch": 77, "duration": 246, "velocity": 83}, {"time": 114194, "pitch": 79, "duration": 244, "velocity": 73}, {"time": 114438, "pitch": 81, "duration": 40, "velocity": 75}, {"time": 114678, "pitch": 79, "duration": 706, "velocity": 77}, {"time": 115374, "pitch": 75, "duration": 444, "velocity": 81}, {"time": 115808, "pitch": 76, "duration": 2432, "velocity": 73}, {"time": 118230, "pitch": 74, "duration": 488, "velocity": 77}, {"time": 118728, "pitch": 72, "duration": 969, "velocity": 75}, {"time": 119697, "pitch": 74, "duration": 3834, "velocity": 73}, {"time": 123541, "pitch": 79, "duration": 1428, "velocity": 71}, {"time": 124979, "pitch": 81, "duration": 230, "velocity": 85}, {"time": 125219, "pitch": 78, "duration": 240, "velocity": 89}, {"time": 125459, "pitch": 74, "duration": 2124, "velocity": 83}, {"time": 127613, "pitch": 72, "duration": 459, "velocity": 83}, {"time": 128072, "pitch": 71, "duration": 240, "velocity": 89}, {"time": 128312, "pitch": 72, "duration": 260, "velocity": 89}, {"time": 128562, "pitch": 71, "duration": 250, "velocity": 87}, {"time": 128812, "pitch": 69, "duration": 239, "velocity": 89}, {"time": 129051, "pitch": 67, "duration": 260, "velocity": 91}, {"time": 129311, "pitch": 69, "duration": 200, "velocity": 89}, {"time": 129541, "pitch": 71, "duration": 60, "velocity": 91}, {"time": 129661, "pitch": 71, "duration": 289, "velocity": 95}, {"time": 130010, "pitch": 71, "duration": 130, "velocity": 93}, {"time": 130130, "pitch": 72, "duration": 80, "velocity": 89}, {"time": 130250, "pitch": 74, "duration": 390, "velocity": 95}, {"time": 130620, "pitch": 75, "duration": 100, "velocity": 103}, {"time": 130739, "pitch": 77, "duration": 220, "velocity": 89}, {"time": 130969, "pitch": 70, "duration": 250, "velocity": 99}, {"time": 131209, "pitch": 79, "duration": 969, "velocity": 75}, {"time": 132168, "pitch": 81, "duration": 243, "velocity": 95}, {"time": 132401, "pitch": 82, "duration": 212, "velocity": 95}, {"time": 132623, "pitch": 84, "duration": 240, "velocity": 87}, {"time": 132883, "pitch": 81, "duration": 240, "velocity": 87}, {"time": 133113, "pitch": 77, "duration": 989, "velocity": 89}, {"time": 134092, "pitch": 81, "duration": 230, "velocity": 95}, {"time": 134322, "pitch": 82, "duration": 220, "velocity": 95}, {"time": 134562, "pitch": 84, "duration": 229, "velocity": 85}, {"time": 134811, "pitch": 86, "duration": 480, "velocity": 85}, {"time": 135291, "pitch": 81, "duration": 250, "velocity": 85}, {"time": 135531, "pitch": 86, "duration": 239, "velocity": 91}, {"time": 135760, "pitch": 84, "duration": 470, "velocity": 81}, {"time": 136220, "pitch": 82, "duration": 240, "velocity": 93}, {"time": 136470, "pitch": 81, "duration": 219, "velocity": 89}, {"time": 136689, "pitch": 82, "duration": 240, "velocity": 91}, {"time": 136939, "pitch": 79, "duration": 270, "velocity": 89}, {"time": 137199, "pitch": 82, "duration": 229, "velocity": 95}, {"time": 137438, "pitch": 87, "duration": 250, "velocity": 91}, {"time": 137678, "pitch": 89, "duration": 695, "velocity": 70}, {"time": 138383, "pitch": 91, "duration": 1459, "velocity": 73}, {"time": 139882, "pitch": 90, "duration": 110, "velocity": 97}, {"time": 140002, "pitch": 86, "duration": 90, "velocity": 85}, {"time": 140122, "pitch": 84, "duration": 80, "velocity": 95}, {"time": 140242, "pitch": 81, "duration": 120, "velocity": 99}, {"time": 140362, "pitch": 78, "duration": 109, "velocity": 95}, {"time": 140481, "pitch": 74, "duration": 120, "velocity": 70}, {"time": 140601, "pitch": 72, "duration": 130, "velocity": 87}, {"time": 140721, "pitch": 81, "duration": 120, "velocity": 75}, {"time": 140831, "pitch": 74, "duration": 1838, "velocity": 73}, {"time": 142739, "pitch": 74, "duration": 60, "velocity": 75}, {"time": 142849, "pitch": 76, "duration": 40, "velocity": 69}, {"time": 142989, "pitch": 77, "duration": 1644, "velocity": 79}, {"time": 144643, "pitch": 76, "duration": 949, "velocity": 77}, {"time": 145592, "pitch": 78, "duration": 929, "velocity": 77}, {"time": 146531, "pitch": 81, "duration": 989, "velocity": 75}, {"time": 147520, "pitch": 76, "duration": 4821, "velocity": 83}, {"time": 152341, "pitch": 77, "duration": 240, "velocity": 83}, {"time": 152581, "pitch": 79, "duration": 240, "velocity": 73}, {"time": 152821, "pitch": 81, "duration": 39, "velocity": 75}, {"time": 153060, "pitch": 79, "duration": 700, "velocity": 77}, {"time": 153770, "pitch": 75, "duration": 449, "velocity": 81}, {"time": 154209, "pitch": 76, "duration": 2444, "velocity": 73}, {"time": 156643, "pitch": 81, "duration": 489, "velocity": 77}, {"time": 157142, "pitch": 84, "duration": 969, "velocity": 75}, {"time": 158111, "pitch": 86, "duration": 3811, "velocity": 73}, {"time": 172984, "pitch": 66, "duration": 479, "velocity": 49}, {"time": 173453, "pitch": 67, "duration": 4226, "velocity": 42}, {"time": 177679, "pitch": 66, "duration": 5268, "velocity": 37}, {"time": 4329, "pitch": 76, "duration": 1133, "velocity": 35}, {"time": 5472, "pitch": 74, "duration": 790, "velocity": 40}, {"time": 6248, "pitch": 77, "duration": 673, "velocity": 42}, {"time": 6911, "pitch": 76, "duration": 879, "velocity": 53}, {"time": 7819, "pitch": 74, "duration": 1009, "velocity": 53}, {"time": 8828, "pitch": 69, "duration": 510, "velocity": 55}, {"time": 9308, "pitch": 74, "duration": 536, "velocity": 47}, {"time": 9829, "pitch": 78, "duration": 270, "velocity": 47}, {"time": 10116, "pitch": 76, "duration": 5836, "velocity": 40}, {"time": 83057, "pitch": 66, "duration": 1113, "velocity": 26}, {"time": 84180, "pitch": 76, "duration": 411, "velocity": 40}, {"time": 84584, "pitch": 74, "duration": 362, "velocity": 40}, {"time": 84962, "pitch": 67, "duration": 1923, "velocity": 36}, {"time": 86947, "pitch": 66, "duration": 1005, "velocity": 31}, {"time": 87982, "pitch": 76, "duration": 450, "velocity": 42}, {"time": 88418, "pitch": 74, "duration": 368, "velocity": 40}, {"time": 88802, "pitch": 67, "duration": 1926, "velocity": 27}, {"time": 90804, "pitch": 66, "duration": 1034, "velocity": 40}, {"time": 91858, "pitch": 76, "duration": 415, "velocity": 49}, {"time": 92266, "pitch": 74, "duration": 347, "velocity": 41}, {"time": 92620, "pitch": 67, "duration": 1923, "velocity": 34}, {"time": 94543, "pitch": 68, "duration": 1110, "velocity": 46}, {"time": 95664, "pitch": 66, "duration": 455, "velocity": 53}, {"time": 96109, "pitch": 71, "duration": 528, "velocity": 46}, {"time": 96627, "pitch": 68, "duration": 950, "velocity": 42}, {"time": 97558, "pitch": 66, "duration": 499, "velocity": 50}, {"time": 98057, "pitch": 71, "duration": 485, "velocity": 45}, {"time": 98561, "pitch": 72, "duration": 2887, "velocity": 30}, {"time": 101468, "pitch": 66, "duration": 237, "velocity": 87}, {"time": 101705, "pitch": 69, "duration": 236, "velocity": 75}, {"time": 101941, "pitch": 72, "duration": 237, "velocity": 79}, {"time": 102178, "pitch": 72, "duration": 238, "velocity": 81}, {"time": 102405, "pitch": 67, "duration": 2396, "velocity": 75}, {"time": 104811, "pitch": 67, "duration": 10, "velocity": 73}, {"time": 105310, "pitch": 69, "duration": 120, "velocity": 75}, {"time": 105430, "pitch": 71, "duration": 120, "velocity": 73}, {"time": 105550, "pitch": 72, "duration": 2637, "velocity": 77}, {"time": 108158, "pitch": 71, "duration": 1185, "velocity": 75}, {"time": 109354, "pitch": 72, "duration": 250, "velocity": 77}, {"time": 109604, "pitch": 74, "duration": 249, "velocity": 73}, {"time": 109863, "pitch": 71, "duration": 730, "velocity": 77}, {"time": 110593, "pitch": 69, "duration": 1408, "velocity": 73}, {"time": 112001, "pitch": 67, "duration": 1886, "velocity": 63}, {"time": 113948, "pitch": 69, "duration": 266, "velocity": 85}, {"time": 114194, "pitch": 71, "duration": 244, "velocity": 73}, {"time": 114438, "pitch": 72, "duration": 50, "velocity": 73}, {"time": 114678, "pitch": 71, "duration": 1653, "velocity": 75}, {"time": 116321, "pitch": 69, "duration": 944, "velocity": 65}, {"time": 117265, "pitch": 67, "duration": 954, "velocity": 69}, {"time": 118209, "pitch": 66, "duration": 479, "velocity": 86}, {"time": 118698, "pitch": 67, "duration": 499, "velocity": 75}, {"time": 119197, "pitch": 69, "duration": 490, "velocity": 77}, {"time": 119687, "pitch": 71, "duration": 929, "velocity": 77}, {"time": 120626, "pitch": 69, "duration": 465, "velocity": 77}, {"time": 121091, "pitch": 72, "duration": 450, "velocity": 75}, {"time": 121551, "pitch": 71, "duration": 1031, "velocity": 75}, {"time": 122582, "pitch": 69, "duration": 909, "velocity": 63}, {"time": 123541, "pitch": 72, "duration": 1928, "velocity": 79}, {"time": 125469, "pitch": 69, "duration": 499, "velocity": 75}, {"time": 125958, "pitch": 71, "duration": 470, "velocity": 73}, {"time": 126418, "pitch": 66, "duration": 243, "velocity": 95}, {"time": 126661, "pitch": 67, "duration": 273, "velocity": 99}, {"time": 126924, "pitch": 69, "duration": 249, "velocity": 97}, {"time": 127173, "pitch": 66, "duration": 230, "velocity": 105}, {"time": 127413, "pitch": 67, "duration": 929, "velocity": 97}, {"time": 128352, "pitch": 62, "duration": 969, "velocity": 93}, {"time": 129321, "pitch": 66, "duration": 200, "velocity": 106}, {"time": 129531, "pitch": 67, "duration": 70, "velocity": 95}, {"time": 129671, "pitch": 67, "duration": 1308, "velocity": 101}, {"time": 130969, "pitch": 74, "duration": 250, "velocity": 105}, {"time": 131219, "pitch": 75, "duration": 959, "velocity": 103}, {"time": 132178, "pitch": 72, "duration": 243, "velocity": 97}, {"time": 132421, "pitch": 74, "duration": 223, "velocity": 97}, {"time": 132654, "pitch": 75, "duration": 219, "velocity": 103}, {"time": 132893, "pitch": 72, "duration": 240, "velocity": 95}, {"time": 133133, "pitch": 74, "duration": 969, "velocity": 101}, {"time": 134092, "pitch": 75, "duration": 949, "velocity": 105}, {"time": 135051, "pitch": 78, "duration": 240, "velocity": 101}, {"time": 135301, "pitch": 74, "duration": 230, "velocity": 95}, {"time": 135531, "pitch": 78, "duration": 469, "velocity": 103}, {"time": 136000, "pitch": 79, "duration": 499, "velocity": 95}, {"time": 136499, "pitch": 77, "duration": 480, "velocity": 95}, {"time": 136969, "pitch": 75, "duration": 1914, "velocity": 101}, {"time": 138923, "pitch": 74, "duration": 909, "velocity": 95}, {"time": 139882, "pitch": 74, "duration": 120, "velocity": 93}, {"time": 140002, "pitch": 72, "duration": 130, "velocity": 83}, {"time": 140122, "pitch": 69, "duration": 110, "velocity": 97}, {"time": 140242, "pitch": 66, "duration": 130, "velocity": 105}, {"time": 140362, "pitch": 72, "duration": 119, "velocity": 95}, {"time": 140481, "pitch": 69, "duration": 110, "velocity": 97}, {"time": 140601, "pitch": 66, "duration": 110, "velocity": 106}, {"time": 140721, "pitch": 62, "duration": 120, "velocity": 101}, {"time": 140831, "pitch": 67, "duration": 2377, "velocity": 75}, {"time": 143218, "pitch": 67, "duration": 10, "velocity": 73}, {"time": 143718, "pitch": 69, "duration": 122, "velocity": 75}, {"time": 143840, "pitch": 71, "duration": 121, "velocity": 73}, {"time": 143961, "pitch": 72, "duration": 2640, "velocity": 77}, {"time": 146571, "pitch": 71, "duration": 1169, "velocity": 75}, {"time": 147750, "pitch": 72, "duration": 250, "velocity": 77}, {"time": 148000, "pitch": 74, "duration": 249, "velocity": 73}, {"time": 148259, "pitch": 71, "duration": 729, "velocity": 77}, {"time": 148988, "pitch": 69, "duration": 1415, "velocity": 73}, {"time": 150403, "pitch": 67, "duration": 1898, "velocity": 63}, {"time": 152361, "pitch": 69, "duration": 260, "velocity": 85}, {"time": 152601, "pitch": 71, "duration": 240, "velocity": 73}, {"time": 152841, "pitch": 72, "duration": 49, "velocity": 73}, {"time": 153080, "pitch": 71, "duration": 1658, "velocity": 75}, {"time": 154728, "pitch": 69, "duration": 956, "velocity": 65}, {"time": 155684, "pitch": 67, "duration": 949, "velocity": 69}, {"time": 156623, "pitch": 66, "duration": 479, "velocity": 86}, {"time": 157112, "pitch": 67, "duration": 500, "velocity": 75}, {"time": 157612, "pitch": 69, "duration": 489, "velocity": 77}, {"time": 158101, "pitch": 71, "duration": 929, "velocity": 77}, {"time": 159040, "pitch": 69, "duration": 460, "velocity": 77}, {"time": 159500, "pitch": 72, "duration": 449, "velocity": 75}, {"time": 159959, "pitch": 71, "duration": 1019, "velocity": 75}, {"time": 160978, "pitch": 69, "duration": 904, "velocity": 63}, {"time": 165777, "pitch": 69, "duration": 469, "velocity": 42}, {"time": 166236, "pitch": 67, "duration": 1465, "velocity": 55}, {"time": 167701, "pitch": 69, "duration": 474, "velocity": 53}, {"time": 168175, "pitch": 67, "duration": 489, "velocity": 54}, {"time": 168644, "pitch": 66, "duration": 490, "velocity": 55}, {"time": 169124, "pitch": 67, "duration": 510, "velocity": 53}, {"time": 169634, "pitch": 66, "duration": 1895, "velocity": 54}, {"time": 171539, "pitch": 64, "duration": 6080, "velocity": 49}, {"time": 177619, "pitch": 62, "duration": 5328, "velocity": 38}, {"time": 4329, "pitch": 57, "duration": 663, "velocity": 47}, {"time": 4992, "pitch": 55, "duration": 1287, "velocity": 41}, {"time": 6248, "pitch": 57, "duration": 673, "velocity": 33}, {"time": 6911, "pitch": 55, "duration": 1230, "velocity": 43}, {"time": 8181, "pitch": 54, "duration": 2581, "velocity": 47}, {"time": 10752, "pitch": 52, "duration": 450, "velocity": 43}, {"time": 11232, "pitch": 59, "duration": 443, "velocity": 39}, {"time": 11661, "pitch": 52, "duration": 344, "velocity": 43}, {"time": 12005, "pitch": 55, "duration": 3887, "velocity": 35}, {"time": 83057, "pitch": 45, "duration": 1867, "velocity": 54}, {"time": 84924, "pitch": 47, "duration": 1929, "velocity": 67}, {"time": 86860, "pitch": 45, "duration": 1934, "velocity": 56}, {"time": 88786, "pitch": 47, "duration": 1923, "velocity": 66}, {"time": 90716, "pitch": 45, "duration": 1919, "velocity": 62}, {"time": 92628, "pitch": 47, "duration": 1915, "velocity": 62}, {"time": 94536, "pitch": 49, "duration": 1138, "velocity": 73}, {"time": 95653, "pitch": 51, "duration": 934, "velocity": 73}, {"time": 96607, "pitch": 52, "duration": 970, "velocity": 54}, {"time": 97597, "pitch": 47, "duration": 984, "velocity": 66}, {"time": 98561, "pitch": 54, "duration": 2907, "velocity": 75}, {"time": 101468, "pitch": 50, "duration": 237, "velocity": 103}, {"time": 101705, "pitch": 52, "duration": 236, "velocity": 101}, {"time": 101941, "pitch": 54, "duration": 237, "velocity": 106}, {"time": 102178, "pitch": 57, "duration": 238, "velocity": 101}, {"time": 102405, "pitch": 50, "duration": 2296, "velocity": 99}, {"time": 104831, "pitch": 50, "duration": 109, "velocity": 97}, {"time": 104950, "pitch": 52, "duration": 90, "velocity": 105}, {"time": 105040, "pitch": 53, "duration": 1209, "velocity": 97}, {"time": 106219, "pitch": 48, "duration": 991, "velocity": 93}, {"time": 107210, "pitch": 50, "duration": 928, "velocity": 99}, {"time": 108138, "pitch": 57, "duration": 996, "velocity": 101}, {"time": 109134, "pitch": 56, "duration": 939, "velocity": 103}, {"time": 110073, "pitch": 52, "duration": 1918, "velocity": 99}, {"time": 111991, "pitch": 53, "duration": 1876, "velocity": 99}, {"time": 113948, "pitch": 50, "duration": 123, "velocity": 106}, {"time": 114194, "pitch": 50, "duration": 92, "velocity": 99}, {"time": 114438, "pitch": 50, "duration": 100, "velocity": 107}, {"time": 114678, "pitch": 50, "duration": 922, "velocity": 106}, {"time": 115580, "pitch": 51, "duration": 247, "velocity": 101}, {"time": 115827, "pitch": 52, "duration": 958, "velocity": 93}, {"time": 116785, "pitch": 50, "duration": 3831, "velocity": 91}, {"time": 120616, "pitch": 48, "duration": 506, "velocity": 91}, {"time": 121112, "pitch": 53, "duration": 469, "velocity": 89}, {"time": 121571, "pitch": 50, "duration": 1001, "velocity": 85}, {"time": 122572, "pitch": 53, "duration": 949, "velocity": 75}, {"time": 123541, "pitch": 52, "duration": 1009, "velocity": 97}, {"time": 124530, "pitch": 54, "duration": 240, "velocity": 123}, {"time": 124770, "pitch": 55, "duration": 229, "velocity": 121}, {"time": 124999, "pitch": 57, "duration": 220, "velocity": 107}, {"time": 125219, "pitch": 54, "duration": 240, "velocity": 121}, {"time": 125469, "pitch": 50, "duration": 929, "velocity": 115}, {"time": 126398, "pitch": 45, "duration": 486, "velocity": 113}, {"time": 126894, "pitch": 47, "duration": 479, "velocity": 115}, {"time": 127373, "pitch": 45, "duration": 500, "velocity": 107}, {"time": 127883, "pitch": 47, "duration": 469, "velocity": 117}, {"time": 128352, "pitch": 48, "duration": 1189, "velocity": 117}, {"time": 129531, "pitch": 50, "duration": 50, "velocity": 123}, {"time": 129661, "pitch": 50, "duration": 1568, "velocity": 121}, {"time": 131229, "pitch": 58, "duration": 959, "velocity": 119}, {"time": 132188, "pitch": 53, "duration": 223, "velocity": 113}, {"time": 132431, "pitch": 51, "duration": 213, "velocity": 121}, {"time": 132654, "pitch": 50, "duration": 239, "velocity": 117}, {"time": 132883, "pitch": 48, "duration": 240, "velocity": 113}, {"time": 133163, "pitch": 51, "duration": 230, "velocity": 121}, {"time": 133403, "pitch": 50, "duration": 250, "velocity": 119}, {"time": 133653, "pitch": 48, "duration": 239, "velocity": 115}, {"time": 133892, "pitch": 46, "duration": 220, "velocity": 123}, {"time": 134112, "pitch": 55, "duration": 919, "velocity": 115}, {"time": 135071, "pitch": 57, "duration": 190, "velocity": 115}, {"time": 135291, "pitch": 54, "duration": 230, "velocity": 113}, {"time": 135541, "pitch": 57, "duration": 449, "velocity": 109}, {"time": 136000, "pitch": 58, "duration": 240, "velocity": 119}, {"time": 136250, "pitch": 57, "duration": 180, "velocity": 111}, {"time": 136499, "pitch": 57, "duration": 230, "velocity": 117}, {"time": 136729, "pitch": 55, "duration": 2174, "velocity": 111}, {"time": 138923, "pitch": 60, "duration": 1099, "velocity": 117}, {"time": 140002, "pitch": 57, "duration": 120, "velocity": 111}, {"time": 140122, "pitch": 54, "duration": 110, "velocity": 123}, {"time": 140242, "pitch": 50, "duration": 90, "velocity": 111}, {"time": 140362, "pitch": 57, "duration": 109, "velocity": 99}, {"time": 140481, "pitch": 54, "duration": 100, "velocity": 119}, {"time": 140601, "pitch": 50, "duration": 90, "velocity": 119}, {"time": 140721, "pitch": 48, "duration": 110, "velocity": 121}, {"time": 140831, "pitch": 50, "duration": 2278, "velocity": 99}, {"time": 143238, "pitch": 50, "duration": 110, "velocity": 97}, {"time": 143358, "pitch": 52, "duration": 90, "velocity": 105}, {"time": 143448, "pitch": 53, "duration": 1215, "velocity": 97}, {"time": 144633, "pitch": 48, "duration": 979, "velocity": 93}, {"time": 145612, "pitch": 50, "duration": 939, "velocity": 99}, {"time": 146551, "pitch": 57, "duration": 979, "velocity": 101}, {"time": 147530, "pitch": 56, "duration": 939, "velocity": 103}, {"time": 148469, "pitch": 52, "duration": 1924, "velocity": 99}, {"time": 150393, "pitch": 53, "duration": 1888, "velocity": 99}, {"time": 152361, "pitch": 50, "duration": 120, "velocity": 106}, {"time": 152601, "pitch": 50, "duration": 90, "velocity": 99}, {"time": 152841, "pitch": 50, "duration": 99, "velocity": 107}, {"time": 153080, "pitch": 50, "duration": 919, "velocity": 106}, {"time": 153979, "pitch": 51, "duration": 250, "velocity": 101}, {"time": 154229, "pitch": 52, "duration": 969, "velocity": 93}, {"time": 155198, "pitch": 50, "duration": 3832, "velocity": 91}, {"time": 159030, "pitch": 48, "duration": 500, "velocity": 91}, {"time": 159520, "pitch": 53, "duration": 469, "velocity": 89}, {"time": 160039, "pitch": 50, "duration": 909, "velocity": 79}, {"time": 160948, "pitch": 53, "duration": 934, "velocity": 75}, {"time": 165767, "pitch": 47, "duration": 1954, "velocity": 72}, {"time": 167701, "pitch": 46, "duration": 1902, "velocity": 89}, {"time": 169614, "pitch": 45, "duration": 1925, "velocity": 73}, {"time": 171529, "pitch": 44, "duration": 1964, "velocity": 70}, {"time": 173493, "pitch": 45, "duration": 9427, "velocity": 70}, {"time": 35416, "pitch": 70, "duration": 157, "velocity": 39}, {"time": 35573, "pitch": 70, "duration": 120, "velocity": 31}, {"time": 36442, "pitch": 80, "duration": 99, "velocity": 63}, {"time": 36541, "pitch": 80, "duration": 88, "velocity": 55}, {"time": 36629, "pitch": 81, "duration": 88, "velocity": 72}, {"time": 37333, "pitch": 70, "duration": 158, "velocity": 39}, {"time": 37491, "pitch": 70, "duration": 119, "velocity": 31}, {"time": 39252, "pitch": 70, "duration": 157, "velocity": 39}, {"time": 39409, "pitch": 70, "duration": 119, "velocity": 31}, {"time": 41177, "pitch": 70, "duration": 156, "velocity": 39}, {"time": 41333, "pitch": 70, "duration": 120, "velocity": 31}, {"time": 42392, "pitch": 53, "duration": 89, "velocity": 53}, {"time": 43097, "pitch": 70, "duration": 154, "velocity": 39}, {"time": 43251, "pitch": 70, "duration": 120, "velocity": 31}, {"time": 44120, "pitch": 80, "duration": 100, "velocity": 81}, {"time": 44220, "pitch": 80, "duration": 88, "velocity": 59}, {"time": 44308, "pitch": 81, "duration": 90, "velocity": 70}, {"time": 45012, "pitch": 70, "duration": 157, "velocity": 39}, {"time": 45169, "pitch": 70, "duration": 119, "velocity": 31}, {"time": 46921, "pitch": 70, "duration": 160, "velocity": 39}, {"time": 47081, "pitch": 70, "duration": 120, "velocity": 31}, {"time": 48851, "pitch": 70, "duration": 159, "velocity": 39}, {"time": 49010, "pitch": 70, "duration": 121, "velocity": 31}, {"time": 54242, "pitch": 70, "duration": 174, "velocity": 90}, {"time": 54416, "pitch": 70, "duration": 172, "velocity": 12}, {"time": 54588, "pitch": 70, "duration": 161, "velocity": 66}, {"time": 54749, "pitch": 70, "duration": 114, "velocity": 60}, {"time": 54863, "pitch": 70, "duration": 118, "velocity": 99}, {"time": 54981, "pitch": 70, "duration": 122, "velocity": 22}, {"time": 55103, "pitch": 70, "duration": 121, "velocity": 64}, {"time": 55224, "pitch": 70, "duration": 122, "velocity": 64}, {"time": 55346, "pitch": 70, "duration": 126, "velocity": 99}, {"time": 55472, "pitch": 70, "duration": 128, "velocity": 24}, {"time": 55600, "pitch": 70, "duration": 115, "velocity": 60}, {"time": 55715, "pitch": 70, "duration": 92, "velocity": 69}, {"time": 55807, "pitch": 70, "duration": 87, "velocity": 92}, {"time": 55894, "pitch": 70, "duration": 85, "velocity": 32}, {"time": 55979, "pitch": 70, "duration": 87, "velocity": 69}, {"time": 56066, "pitch": 70, "duration": 85, "velocity": 71}, {"time": 56151, "pitch": 70, "duration": 169, "velocity": 90}, {"time": 56320, "pitch": 70, "duration": 180, "velocity": 12}, {"time": 56500, "pitch": 70, "duration": 166, "velocity": 66}, {"time": 56666, "pitch": 70, "duration": 114, "velocity": 60}, {"time": 56780, "pitch": 70, "duration": 118, "velocity": 99}, {"time": 56898, "pitch": 70, "duration": 120, "velocity": 22}, {"time": 57018, "pitch": 70, "duration": 120, "velocity": 64}, {"time": 57138, "pitch": 70, "duration": 120, "velocity": 64}, {"time": 57258, "pitch": 70, "duration": 121, "velocity": 99}, {"time": 57379, "pitch": 70, "duration": 122, "velocity": 24}, {"time": 57501, "pitch": 70, "duration": 116, "velocity": 60}, {"time": 57617, "pitch": 70, "duration": 91, "velocity": 69}, {"time": 57708, "pitch": 70, "duration": 90, "velocity": 92}, {"time": 57798, "pitch": 70, "duration": 91, "velocity": 32}, {"time": 57889, "pitch": 70, "duration": 91, "velocity": 69}, {"time": 57980, "pitch": 70, "duration": 92, "velocity": 71}, {"time": 58072, "pitch": 70, "duration": 179, "velocity": 90}, {"time": 58251, "pitch": 70, "duration": 179, "velocity": 12}, {"time": 58430, "pitch": 70, "duration": 163, "velocity": 66}, {"time": 58593, "pitch": 70, "duration": 123, "velocity": 60}, {"time": 58716, "pitch": 70, "duration": 118, "velocity": 99}, {"time": 58834, "pitch": 70, "duration": 120, "velocity": 22}, {"time": 58954, "pitch": 70, "duration": 120, "velocity": 64}, {"time": 59074, "pitch": 70, "duration": 120, "velocity": 64}, {"time": 59194, "pitch": 70, "duration": 120, "velocity": 99}, {"time": 59314, "pitch": 70, "duration": 120, "velocity": 24}, {"time": 59434, "pitch": 70, "duration": 112, "velocity": 60}, {"time": 59546, "pitch": 70, "duration": 92, "velocity": 69}, {"time": 59638, "pitch": 70, "duration": 90, "velocity": 92}, {"time": 59728, "pitch": 70, "duration": 91, "velocity": 32}, {"time": 59819, "pitch": 70, "duration": 91, "velocity": 69}, {"time": 59910, "pitch": 70, "duration": 91, "velocity": 71}, {"time": 60001, "pitch": 70, "duration": 175, "velocity": 90}, {"time": 60176, "pitch": 70, "duration": 176, "velocity": 12}, {"time": 60352, "pitch": 70, "duration": 160, "velocity": 66}, {"time": 60512, "pitch": 70, "duration": 122, "velocity": 60}, {"time": 60634, "pitch": 70, "duration": 118, "velocity": 99}, {"time": 60752, "pitch": 70, "duration": 120, "velocity": 22}, {"time": 60872, "pitch": 70, "duration": 120, "velocity": 64}, {"time": 60992, "pitch": 70, "duration": 120, "velocity": 64}, {"time": 61112, "pitch": 70, "duration": 120, "velocity": 99}, {"time": 61232, "pitch": 70, "duration": 120, "velocity": 24}, {"time": 61352, "pitch": 70, "duration": 113, "velocity": 60}, {"time": 61465, "pitch": 70, "duration": 91, "velocity": 69}, {"time": 61556, "pitch": 70, "duration": 92, "velocity": 92}, {"time": 61648, "pitch": 70, "duration": 92, "velocity": 32}, {"time": 61740, "pitch": 70, "duration": 92, "velocity": 69}, {"time": 61832, "pitch": 70, "duration": 95, "velocity": 71}, {"time": 61927, "pitch": 70, "duration": 172, "velocity": 90}, {"time": 62099, "pitch": 70, "duration": 174, "velocity": 12}, {"time": 62273, "pitch": 70, "duration": 159, "velocity": 66}, {"time": 62432, "pitch": 70, "duration": 119, "velocity": 60}, {"time": 62551, "pitch": 70, "duration": 119, "velocity": 99}, {"time": 62670, "pitch": 70, "duration": 120, "velocity": 22}, {"time": 62790, "pitch": 70, "duration": 120, "velocity": 64}, {"time": 62910, "pitch": 70, "duration": 120, "velocity": 64}, {"time": 63030, "pitch": 70, "duration": 121, "velocity": 99}, {"time": 63151, "pitch": 70, "duration": 122, "velocity": 24}, {"time": 63273, "pitch": 70, "duration": 113, "velocity": 60}, {"time": 63386, "pitch": 70, "duration": 92, "velocity": 69}, {"time": 63478, "pitch": 70, "duration": 91, "velocity": 92}, {"time": 63569, "pitch": 70, "duration": 91, "velocity": 32}, {"time": 63660, "pitch": 70, "duration": 91, "velocity": 69}, {"time": 63751, "pitch": 70, "duration": 93, "velocity": 71}, {"time": 63844, "pitch": 70, "duration": 177, "velocity": 90}, {"time": 64021, "pitch": 70, "duration": 179, "velocity": 12}, {"time": 64200, "pitch": 70, "duration": 160, "velocity": 66}, {"time": 64360, "pitch": 70, "duration": 122, "velocity": 60}, {"time": 64482, "pitch": 70, "duration": 118, "velocity": 99}, {"time": 64600, "pitch": 70, "duration": 120, "velocity": 22}, {"time": 64720, "pitch": 70, "duration": 120, "velocity": 64}, {"time": 64840, "pitch": 70, "duration": 120, "velocity": 64}, {"time": 64960, "pitch": 70, "duration": 120, "velocity": 99}, {"time": 65080, "pitch": 70, "duration": 120, "velocity": 24}, {"time": 65200, "pitch": 70, "duration": 110, "velocity": 60}, {"time": 65310, "pitch": 70, "duration": 89, "velocity": 69}, {"time": 65399, "pitch": 70, "duration": 90, "velocity": 92}, {"time": 65489, "pitch": 70, "duration": 91, "velocity": 32}, {"time": 65580, "pitch": 70, "duration": 91, "velocity": 69}, {"time": 65671, "pitch": 70, "duration": 91, "velocity": 71}, {"time": 65762, "pitch": 70, "duration": 185, "velocity": 90}, {"time": 65947, "pitch": 70, "duration": 184, "velocity": 12}, {"time": 66131, "pitch": 70, "duration": 159, "velocity": 66}, {"time": 66290, "pitch": 70, "duration": 121, "velocity": 60}, {"time": 66411, "pitch": 70, "duration": 119, "velocity": 99}, {"time": 66530, "pitch": 70, "duration": 120, "velocity": 22}, {"time": 66650, "pitch": 70, "duration": 120, "velocity": 64}, {"time": 66770, "pitch": 70, "duration": 120, "velocity": 64}, {"time": 66890, "pitch": 70, "duration": 120, "velocity": 99}, {"time": 67010, "pitch": 70, "duration": 120, "velocity": 24}, {"time": 67130, "pitch": 70, "duration": 107, "velocity": 60}, {"time": 67237, "pitch": 70, "duration": 89, "velocity": 69}, {"time": 67326, "pitch": 70, "duration": 89, "velocity": 92}, {"time": 67415, "pitch": 70, "duration": 90, "velocity": 32}, {"time": 67505, "pitch": 70, "duration": 89, "velocity": 69}, {"time": 67594, "pitch": 70, "duration": 94, "velocity": 71}, {"time": 67688, "pitch": 70, "duration": 177, "velocity": 90}, {"time": 67865, "pitch": 70, "duration": 178, "velocity": 12}, {"time": 68043, "pitch": 70, "duration": 157, "velocity": 66}, {"time": 68200, "pitch": 70, "duration": 117, "velocity": 60}, {"time": 68317, "pitch": 70, "duration": 119, "velocity": 99}, {"time": 68436, "pitch": 70, "duration": 120, "velocity": 22}, {"time": 68556, "pitch": 70, "duration": 120, "velocity": 64}, {"time": 68676, "pitch": 70, "duration": 120, "velocity": 64}, {"time": 68796, "pitch": 70, "duration": 121, "velocity": 99}, {"time": 68917, "pitch": 70, "duration": 122, "velocity": 24}, {"time": 69039, "pitch": 70, "duration": 111, "velocity": 60}, {"time": 69150, "pitch": 70, "duration": 92, "velocity": 69}, {"time": 69242, "pitch": 70, "duration": 90, "velocity": 92}, {"time": 69332, "pitch": 70, "duration": 91, "velocity": 32}, {"time": 69423, "pitch": 70, "duration": 90, "velocity": 69}, {"time": 69513, "pitch": 70, "duration": 91, "velocity": 71}, {"time": 69604, "pitch": 70, "duration": 184, "velocity": 90}, {"time": 69788, "pitch": 70, "duration": 183, "velocity": 12}, {"time": 69971, "pitch": 70, "duration": 159, "velocity": 66}, {"time": 70130, "pitch": 70, "duration": 123, "velocity": 60}, {"time": 70253, "pitch": 70, "duration": 119, "velocity": 99}, {"time": 70372, "pitch": 70, "duration": 120, "velocity": 22}, {"time": 70492, "pitch": 70, "duration": 120, "velocity": 64}, {"time": 70612, "pitch": 70, "duration": 120, "velocity": 64}, {"time": 70732, "pitch": 70, "duration": 120, "velocity": 99}, {"time": 70852, "pitch": 70, "duration": 120, "velocity": 24}, {"time": 70972, "pitch": 70, "duration": 107, "velocity": 60}, {"time": 71079, "pitch": 70, "duration": 89, "velocity": 69}, {"time": 71168, "pitch": 70, "duration": 88, "velocity": 92}, {"time": 71256, "pitch": 70, "duration": 88, "velocity": 32}, {"time": 71344, "pitch": 70, "duration": 89, "velocity": 69}, {"time": 71433, "pitch": 70, "duration": 89, "velocity": 71}, {"time": 71522, "pitch": 70, "duration": 180, "velocity": 90}, {"time": 71702, "pitch": 70, "duration": 180, "velocity": 12}, {"time": 71882, "pitch": 70, "duration": 159, "velocity": 66}, {"time": 72041, "pitch": 70, "duration": 118, "velocity": 60}, {"time": 72159, "pitch": 70, "duration": 119, "velocity": 99}, {"time": 72278, "pitch": 70, "duration": 120, "velocity": 22}, {"time": 72398, "pitch": 70, "duration": 120, "velocity": 64}, {"time": 72518, "pitch": 70, "duration": 120, "velocity": 64}, {"time": 72638, "pitch": 70, "duration": 120, "velocity": 99}, {"time": 72758, "pitch": 70, "duration": 120, "velocity": 24}, {"time": 72878, "pitch": 70, "duration": 110, "velocity": 60}, {"time": 72988, "pitch": 70, "duration": 87, "velocity": 69}, {"time": 73075, "pitch": 70, "duration": 88, "velocity": 92}, {"time": 73163, "pitch": 70, "duration": 88, "velocity": 32}, {"time": 73251, "pitch": 70, "duration": 88, "velocity": 69}, {"time": 73339, "pitch": 70, "duration": 87, "velocity": 71}, {"time": 73426, "pitch": 70, "duration": 171, "velocity": 90}, {"time": 73597, "pitch": 70, "duration": 184, "velocity": 12}, {"time": 73781, "pitch": 70, "duration": 168, "velocity": 66}, {"time": 73949, "pitch": 70, "duration": 117, "velocity": 60}, {"time": 74066, "pitch": 70, "duration": 119, "velocity": 99}, {"time": 74185, "pitch": 70, "duration": 120, "velocity": 22}, {"time": 74305, "pitch": 70, "duration": 120, "velocity": 64}, {"time": 74425, "pitch": 70, "duration": 120, "velocity": 64}, {"time": 74545, "pitch": 70, "duration": 121, "velocity": 99}, {"time": 74575, "pitch": 53, "duration": 122, "velocity": 61}, {"time": 90389, "pitch": 53, "duration": 90, "velocity": 52}, {"time": 101941, "pitch": 53, "duration": 119, "velocity": 69}, {"time": 102416, "pitch": 80, "duration": 122, "velocity": 107}, {"time": 102538, "pitch": 80, "duration": 121, "velocity": 95}, {"time": 102659, "pitch": 81, "duration": 122, "velocity": 86}, {"time": 102900, "pitch": 80, "duration": 120, "velocity": 101}, {"time": 103020, "pitch": 80, "duration": 120, "velocity": 93}, {"time": 103140, "pitch": 81, "duration": 120, "velocity": 90}, {"time": 103380, "pitch": 80, "duration": 119, "velocity": 95}, {"time": 103499, "pitch": 80, "duration": 118, "velocity": 89}, {"time": 103617, "pitch": 81, "duration": 119, "velocity": 87}, {"time": 103855, "pitch": 80, "duration": 124, "velocity": 101}, {"time": 103979, "pitch": 80, "duration": 124, "velocity": 89}, {"time": 104103, "pitch": 81, "duration": 125, "velocity": 92}, {"time": 104351, "pitch": 80, "duration": 120, "velocity": 107}, {"time": 104471, "pitch": 80, "duration": 120, "velocity": 95}, {"time": 104591, "pitch": 81, "duration": 120, "velocity": 86}, {"time": 104831, "pitch": 80, "duration": 119, "velocity": 101}, {"time": 104950, "pitch": 80, "duration": 120, "velocity": 93}, {"time": 105070, "pitch": 81, "duration": 120, "velocity": 90}, {"time": 105310, "pitch": 80, "duration": 120, "velocity": 95}, {"time": 105430, "pitch": 80, "duration": 120, "velocity": 89}, {"time": 105550, "pitch": 81, "duration": 120, "velocity": 87}, {"time": 105790, "pitch": 80, "duration": 119, "velocity": 101}, {"time": 105909, "pitch": 80, "duration": 120, "velocity": 89}, {"time": 106029, "pitch": 81, "duration": 120, "velocity": 92}, {"time": 106270, "pitch": 80, "duration": 123, "velocity": 107}, {"time": 106393, "pitch": 80, "duration": 123, "velocity": 95}, {"time": 106516, "pitch": 81, "duration": 123, "velocity": 86}, {"time": 106760, "pitch": 80, "duration": 120, "velocity": 101}, {"time": 106880, "pitch": 80, "duration": 120, "velocity": 93}, {"time": 107000, "pitch": 81, "duration": 120, "velocity": 90}, {"time": 107240, "pitch": 80, "duration": 120, "velocity": 95}, {"time": 107360, "pitch": 80, "duration": 120, "velocity": 89}, {"time": 107480, "pitch": 81, "duration": 120, "velocity": 87}, {"time": 107718, "pitch": 80, "duration": 117, "velocity": 101}, {"time": 107835, "pitch": 80, "duration": 118, "velocity": 89}, {"time": 107953, "pitch": 81, "duration": 117, "velocity": 92}, {"time": 108187, "pitch": 80, "duration": 122, "velocity": 107}, {"time": 108309, "pitch": 80, "duration": 121, "velocity": 95}, {"time": 108430, "pitch": 81, "duration": 122, "velocity": 86}, {"time": 108673, "pitch": 80, "duration": 123, "velocity": 101}, {"time": 108796, "pitch": 80, "duration": 123, "velocity": 93}, {"time": 108919, "pitch": 81, "duration": 123, "velocity": 90}, {"time": 109163, "pitch": 80, "duration": 121, "velocity": 95}, {"time": 109284, "pitch": 80, "duration": 120, "velocity": 89}, {"time": 109404, "pitch": 81, "duration": 120, "velocity": 87}, {"time": 109644, "pitch": 80, "duration": 119, "velocity": 101}, {"time": 109763, "pitch": 80, "duration": 120, "velocity": 89}, {"time": 109883, "pitch": 81, "duration": 120, "velocity": 92}, {"time": 110123, "pitch": 80, "duration": 120, "velocity": 107}, {"time": 110243, "pitch": 80, "duration": 120, "velocity": 95}, {"time": 110363, "pitch": 81, "duration": 120, "velocity": 86}, {"time": 110603, "pitch": 80, "duration": 119, "velocity": 101}, {"time": 110722, "pitch": 80, "duration": 120, "velocity": 93}, {"time": 110842, "pitch": 81, "duration": 120, "velocity": 90}, {"time": 111082, "pitch": 80, "duration": 120, "velocity": 95}, {"time": 111202, "pitch": 80, "duration": 120, "velocity": 89}, {"time": 111322, "pitch": 81, "duration": 120, "velocity": 87}, {"time": 111562, "pitch": 80, "duration": 119, "velocity": 101}, {"time": 111681, "pitch": 80, "duration": 120, "velocity": 89}, {"time": 111801, "pitch": 81, "duration": 120, "velocity": 92}, {"time": 112040, "pitch": 80, "duration": 117, "velocity": 107}, {"time": 112157, "pitch": 80, "duration": 118, "velocity": 95}, {"time": 112275, "pitch": 81, "duration": 117, "velocity": 86}, {"time": 112508, "pitch": 80, "duration": 120, "velocity": 101}, {"time": 112628, "pitch": 80, "duration": 120, "velocity": 93}, {"time": 112748, "pitch": 81, "duration": 120, "velocity": 90}, {"time": 112988, "pitch": 80, "duration": 120, "velocity": 95}, {"time": 113108, "pitch": 80, "duration": 120, "velocity": 89}, {"time": 113228, "pitch": 81, "duration": 120, "velocity": 87}, {"time": 113467, "pitch": 80, "duration": 120, "velocity": 101}, {"time": 113587, "pitch": 80, "duration": 120, "velocity": 89}, {"time": 113707, "pitch": 81, "duration": 120, "velocity": 92}, {"time": 113948, "pitch": 80, "duration": 123, "velocity": 107}, {"time": 114071, "pitch": 80, "duration": 123, "velocity": 95}, {"time": 114194, "pitch": 81, "duration": 123, "velocity": 86}, {"time": 114438, "pitch": 80, "duration": 120, "velocity": 101}, {"time": 114558, "pitch": 80, "duration": 120, "velocity": 93}, {"time": 114678, "pitch": 81, "duration": 120, "velocity": 90}, {"time": 114918, "pitch": 80, "duration": 122, "velocity": 95}, {"time": 115040, "pitch": 80, "duration": 121, "velocity": 89}, {"time": 115161, "pitch": 81, "duration": 122, "velocity": 87}, {"time": 115404, "pitch": 80, "duration": 117, "velocity": 101}, {"time": 115521, "pitch": 80, "duration": 119, "velocity": 89}, {"time": 115640, "pitch": 81, "duration": 118, "velocity": 92}, {"time": 115877, "pitch": 80, "duration": 118, "velocity": 107}, {"time": 115995, "pitch": 80, "duration": 119, "velocity": 95}, {"time": 116114, "pitch": 81, "duration": 118, "velocity": 86}, {"time": 116351, "pitch": 80, "duration": 118, "velocity": 101}, {"time": 116469, "pitch": 80, "duration": 118, "velocity": 93}, {"time": 116587, "pitch": 81, "duration": 119, "velocity": 90}, {"time": 116825, "pitch": 80, "duration": 120, "velocity": 95}, {"time": 116945, "pitch": 80, "duration": 120, "velocity": 89}, {"time": 117065, "pitch": 81, "duration": 120, "velocity": 87}, {"time": 117305, "pitch": 80, "duration": 119, "velocity": 101}, {"time": 117424, "pitch": 80, "duration": 120, "velocity": 89}, {"time": 117544, "pitch": 81, "duration": 120, "velocity": 92}, {"time": 117784, "pitch": 80, "duration": 121, "velocity": 107}, {"time": 117905, "pitch": 80, "duration": 122, "velocity": 95}, {"time": 118027, "pitch": 81, "duration": 122, "velocity": 86}, {"time": 118269, "pitch": 80, "duration": 119, "velocity": 101}, {"time": 118388, "pitch": 80, "duration": 120, "velocity": 93}, {"time": 118508, "pitch": 81, "duration": 120, "velocity": 90}, {"time": 118748, "pitch": 80, "duration": 120, "velocity": 95}, {"time": 118868, "pitch": 80, "duration": 120, "velocity": 89}, {"time": 118988, "pitch": 81, "duration": 120, "velocity": 87}, {"time": 119227, "pitch": 80, "duration": 120, "velocity": 101}, {"time": 119347, "pitch": 80, "duration": 120, "velocity": 89}, {"time": 119467, "pitch": 81, "duration": 120, "velocity": 92}, {"time": 119707, "pitch": 80, "duration": 120, "velocity": 107}, {"time": 119827, "pitch": 80, "duration": 120, "velocity": 95}, {"time": 119947, "pitch": 81, "duration": 120, "velocity": 86}, {"time": 120186, "pitch": 80, "duration": 120, "velocity": 101}, {"time": 120306, "pitch": 80, "duration": 120, "velocity": 93}, {"time": 120426, "pitch": 81, "duration": 120, "velocity": 90}, {"time": 120666, "pitch": 80, "duration": 122, "velocity": 95}, {"time": 120788, "pitch": 80, "duration": 121, "velocity": 89}, {"time": 120909, "pitch": 81, "duration": 122, "velocity": 87}, {"time": 121152, "pitch": 80, "duration": 119, "velocity": 101}, {"time": 121271, "pitch": 80, "duration": 120, "velocity": 89}, {"time": 121391, "pitch": 81, "duration": 120, "velocity": 92}, {"time": 121632, "pitch": 80, "duration": 123, "velocity": 107}, {"time": 121755, "pitch": 80, "duration": 123, "velocity": 95}, {"time": 121878, "pitch": 81, "duration": 123, "velocity": 86}, {"time": 122123, "pitch": 80, "duration": 119, "velocity": 101}, {"time": 122242, "pitch": 80, "duration": 120, "velocity": 93}, {"time": 122362, "pitch": 81, "duration": 120, "velocity": 90}, {"time": 122602, "pitch": 80, "duration": 120, "velocity": 95}, {"time": 122722, "pitch": 80, "duration": 120, "velocity": 89}, {"time": 122842, "pitch": 81, "duration": 120, "velocity": 87}, {"time": 123082, "pitch": 53, "duration": 119, "velocity": 81}, {"time": 123082, "pitch": 80, "duration": 119, "velocity": 101}, {"time": 123201, "pitch": 80, "duration": 120, "velocity": 89}, {"time": 123321, "pitch": 81, "duration": 120, "velocity": 92}, {"time": 123531, "pitch": 70, "duration": 120, "velocity": 90}, {"time": 123561, "pitch": 80, "duration": 120, "velocity": 107}, {"time": 123651, "pitch": 70, "duration": 120, "velocity": 12}, {"time": 123681, "pitch": 80, "duration": 120, "velocity": 95}, {"time": 123771, "pitch": 70, "duration": 120, "velocity": 66}, {"time": 123801, "pitch": 81, "duration": 120, "velocity": 86}, {"time": 123891, "pitch": 70, "duration": 120, "velocity": 60}, {"time": 124011, "pitch": 70, "duration": 119, "velocity": 99}, {"time": 124041, "pitch": 80, "duration": 119, "velocity": 101}, {"time": 124130, "pitch": 70, "duration": 120, "velocity": 22}, {"time": 124160, "pitch": 80, "duration": 120, "velocity": 93}, {"time": 124250, "pitch": 70, "duration": 120, "velocity": 64}, {"time": 124280, "pitch": 81, "duration": 120, "velocity": 90}, {"time": 124370, "pitch": 70, "duration": 120, "velocity": 64}, {"time": 124490, "pitch": 70, "duration": 120, "velocity": 99}, {"time": 124520, "pitch": 80, "duration": 120, "velocity": 95}, {"time": 124610, "pitch": 70, "duration": 120, "velocity": 24}, {"time": 124640, "pitch": 80, "duration": 120, "velocity": 89}, {"time": 124730, "pitch": 70, "duration": 120, "velocity": 60}, {"time": 124760, "pitch": 81, "duration": 120, "velocity": 87}, {"time": 124850, "pitch": 70, "duration": 119, "velocity": 69}, {"time": 124969, "pitch": 70, "duration": 120, "velocity": 92}, {"time": 124999, "pitch": 80, "duration": 120, "velocity": 101}, {"time": 125089, "pitch": 70, "duration": 120, "velocity": 32}, {"time": 125119, "pitch": 80, "duration": 120, "velocity": 89}, {"time": 125209, "pitch": 70, "duration": 120, "velocity": 69}, {"time": 125239, "pitch": 81, "duration": 120, "velocity": 92}, {"time": 125329, "pitch": 70, "duration": 120, "velocity": 71}, {"time": 125449, "pitch": 70, "duration": 120, "velocity": 90}, {"time": 125479, "pitch": 80, "duration": 120, "velocity": 107}, {"time": 125569, "pitch": 70, "duration": 120, "velocity": 12}, {"time": 125599, "pitch": 80, "duration": 120, "velocity": 95}, {"time": 125689, "pitch": 70, "duration": 120, "velocity": 66}, {"time": 125719, "pitch": 81, "duration": 120, "velocity": 86}, {"time": 125809, "pitch": 70, "duration": 119, "velocity": 60}, {"time": 125928, "pitch": 70, "duration": 120, "velocity": 99}, {"time": 125958, "pitch": 80, "duration": 120, "velocity": 101}, {"time": 126048, "pitch": 70, "duration": 120, "velocity": 22}, {"time": 126078, "pitch": 80, "duration": 120, "velocity": 93}, {"time": 126168, "pitch": 70, "duration": 120, "velocity": 64}, {"time": 126198, "pitch": 81, "duration": 120, "velocity": 90}, {"time": 126288, "pitch": 70, "duration": 120, "velocity": 64}, {"time": 126408, "pitch": 70, "duration": 121, "velocity": 99}, {"time": 126438, "pitch": 80, "duration": 122, "velocity": 95}, {"time": 126529, "pitch": 70, "duration": 122, "velocity": 24}, {"time": 126560, "pitch": 80, "duration": 121, "velocity": 89}, {"time": 126651, "pitch": 70, "duration": 121, "velocity": 60}, {"time": 126681, "pitch": 81, "duration": 122, "velocity": 87}, {"time": 126772, "pitch": 70, "duration": 122, "velocity": 69}, {"time": 126894, "pitch": 70, "duration": 120, "velocity": 92}, {"time": 126924, "pitch": 80, "duration": 119, "velocity": 101}, {"time": 127014, "pitch": 70, "duration": 119, "velocity": 32}, {"time": 127043, "pitch": 80, "duration": 120, "velocity": 89}, {"time": 127133, "pitch": 70, "duration": 120, "velocity": 69}, {"time": 127163, "pitch": 81, "duration": 120, "velocity": 92}, {"time": 127253, "pitch": 70, "duration": 120, "velocity": 71}, {"time": 127373, "pitch": 70, "duration": 120, "velocity": 90}, {"time": 127403, "pitch": 80, "duration": 120, "velocity": 107}, {"time": 127493, "pitch": 70, "duration": 120, "velocity": 12}, {"time": 127523, "pitch": 80, "duration": 120, "velocity": 95}, {"time": 127613, "pitch": 70, "duration": 120, "velocity": 66}, {"time": 127643, "pitch": 81, "duration": 120, "velocity": 86}, {"time": 127733, "pitch": 70, "duration": 120, "velocity": 60}, {"time": 127853, "pitch": 70, "duration": 119, "velocity": 99}, {"time": 127883, "pitch": 80, "duration": 119, "velocity": 101}, {"time": 127972, "pitch": 70, "duration": 120, "velocity": 22}, {"time": 128002, "pitch": 80, "duration": 120, "velocity": 93}, {"time": 128092, "pitch": 70, "duration": 120, "velocity": 64}, {"time": 128122, "pitch": 81, "duration": 120, "velocity": 90}, {"time": 128212, "pitch": 70, "duration": 120, "velocity": 64}, {"time": 128332, "pitch": 70, "duration": 120, "velocity": 99}, {"time": 128362, "pitch": 80, "duration": 120, "velocity": 95}, {"time": 128452, "pitch": 70, "duration": 120, "velocity": 24}, {"time": 128482, "pitch": 80, "duration": 120, "velocity": 89}, {"time": 128572, "pitch": 70, "duration": 120, "velocity": 60}, {"time": 128602, "pitch": 81, "duration": 120, "velocity": 87}, {"time": 128692, "pitch": 70, "duration": 120, "velocity": 69}, {"time": 128812, "pitch": 70, "duration": 119, "velocity": 92}, {"time": 128842, "pitch": 80, "duration": 119, "velocity": 101}, {"time": 128931, "pitch": 70, "duration": 120, "velocity": 32}, {"time": 128961, "pitch": 80, "duration": 120, "velocity": 89}, {"time": 129051, "pitch": 70, "duration": 120, "velocity": 69}, {"time": 129081, "pitch": 81, "duration": 120, "velocity": 92}, {"time": 129171, "pitch": 70, "duration": 120, "velocity": 71}, {"time": 129291, "pitch": 70, "duration": 120, "velocity": 90}, {"time": 129321, "pitch": 80, "duration": 120, "velocity": 107}, {"time": 129411, "pitch": 70, "duration": 120, "velocity": 12}, {"time": 129441, "pitch": 80, "duration": 120, "velocity": 95}, {"time": 129531, "pitch": 70, "duration": 120, "velocity": 66}, {"time": 129561, "pitch": 81, "duration": 120, "velocity": 86}, {"time": 129651, "pitch": 70, "duration": 120, "velocity": 60}, {"time": 129771, "pitch": 70, "duration": 119, "velocity": 99}, {"time": 129801, "pitch": 80, "duration": 119, "velocity": 101}, {"time": 129890, "pitch": 70, "duration": 120, "velocity": 22}, {"time": 129920, "pitch": 80, "duration": 120, "velocity": 93}, {"time": 130010, "pitch": 70, "duration": 120, "velocity": 64}, {"time": 130040, "pitch": 81, "duration": 120, "velocity": 90}, {"time": 130130, "pitch": 70, "duration": 120, "velocity": 64}, {"time": 130250, "pitch": 70, "duration": 120, "velocity": 99}, {"time": 130280, "pitch": 80, "duration": 120, "velocity": 95}, {"time": 130370, "pitch": 70, "duration": 120, "velocity": 24}, {"time": 130400, "pitch": 80, "duration": 120, "velocity": 89}, {"time": 130490, "pitch": 70, "duration": 120, "velocity": 60}, {"time": 130520, "pitch": 81, "duration": 120, "velocity": 87}, {"time": 130610, "pitch": 70, "duration": 119, "velocity": 69}, {"time": 130729, "pitch": 70, "duration": 120, "velocity": 92}, {"time": 130759, "pitch": 53, "duration": 120, "velocity": 83}, {"time": 130759, "pitch": 80, "duration": 120, "velocity": 101}, {"time": 130849, "pitch": 70, "duration": 120, "velocity": 32}, {"time": 130879, "pitch": 80, "duration": 120, "velocity": 89}, {"time": 130969, "pitch": 70, "duration": 120, "velocity": 69}, {"time": 130999, "pitch": 81, "duration": 120, "velocity": 92}, {"time": 131089, "pitch": 70, "duration": 120, "velocity": 71}, {"time": 131209, "pitch": 70, "duration": 120, "velocity": 90}, {"time": 131239, "pitch": 80, "duration": 120, "velocity": 107}, {"time": 131329, "pitch": 70, "duration": 120, "velocity": 12}, {"time": 131359, "pitch": 80, "duration": 120, "velocity": 95}, {"time": 131449, "pitch": 70, "duration": 120, "velocity": 66}, {"time": 131479, "pitch": 81, "duration": 120, "velocity": 86}, {"time": 131569, "pitch": 70, "duration": 119, "velocity": 60}, {"time": 131688, "pitch": 70, "duration": 120, "velocity": 99}, {"time": 131718, "pitch": 80, "duration": 120, "velocity": 101}, {"time": 131808, "pitch": 70, "duration": 120, "velocity": 22}, {"time": 131838, "pitch": 80, "duration": 120, "velocity": 93}, {"time": 131928, "pitch": 70, "duration": 120, "velocity": 64}, {"time": 131958, "pitch": 81, "duration": 120, "velocity": 90}, {"time": 132048, "pitch": 70, "duration": 120, "velocity": 64}, {"time": 132168, "pitch": 70, "duration": 121, "velocity": 99}, {"time": 132198, "pitch": 80, "duration": 122, "velocity": 95}, {"time": 132289, "pitch": 70, "duration": 122, "velocity": 24}, {"time": 132320, "pitch": 80, "duration": 121, "velocity": 89}, {"time": 132411, "pitch": 70, "duration": 121, "velocity": 60}, {"time": 132441, "pitch": 81, "duration": 122, "velocity": 87}, {"time": 132532, "pitch": 70, "duration": 122, "velocity": 69}, {"time": 132654, "pitch": 70, "duration": 120, "velocity": 92}, {"time": 132684, "pitch": 80, "duration": 119, "velocity": 101}, {"time": 132774, "pitch": 70, "duration": 119, "velocity": 32}, {"time": 132803, "pitch": 80, "duration": 120, "velocity": 89}, {"time": 132893, "pitch": 70, "duration": 120, "velocity": 69}, {"time": 132923, "pitch": 81, "duration": 120, "velocity": 92}, {"time": 133013, "pitch": 70, "duration": 120, "velocity": 71}, {"time": 133133, "pitch": 70, "duration": 120, "velocity": 90}, {"time": 133163, "pitch": 80, "duration": 120, "velocity": 107}, {"time": 133253, "pitch": 70, "duration": 120, "velocity": 12}, {"time": 133283, "pitch": 80, "duration": 120, "velocity": 95}, {"time": 133373, "pitch": 70, "duration": 120, "velocity": 66}, {"time": 133403, "pitch": 81, "duration": 120, "velocity": 86}, {"time": 133493, "pitch": 70, "duration": 120, "velocity": 60}, {"time": 133613, "pitch": 70, "duration": 119, "velocity": 99}, {"time": 133643, "pitch": 80, "duration": 119, "velocity": 101}, {"time": 133732, "pitch": 70, "duration": 120, "velocity": 22}, {"time": 133762, "pitch": 80, "duration": 120, "velocity": 93}, {"time": 133852, "pitch": 70, "duration": 120, "velocity": 64}, {"time": 133882, "pitch": 81, "duration": 120, "velocity": 90}, {"time": 133972, "pitch": 70, "duration": 120, "velocity": 64}, {"time": 134092, "pitch": 70, "duration": 120, "velocity": 99}, {"time": 134122, "pitch": 80, "duration": 120, "velocity": 95}, {"time": 134212, "pitch": 70, "duration": 120, "velocity": 24}, {"time": 134242, "pitch": 80, "duration": 120, "velocity": 89}, {"time": 134332, "pitch": 70, "duration": 120, "velocity": 60}, {"time": 134362, "pitch": 81, "duration": 120, "velocity": 87}, {"time": 134452, "pitch": 70, "duration": 120, "velocity": 69}, {"time": 134572, "pitch": 70, "duration": 119, "velocity": 92}, {"time": 134602, "pitch": 80, "duration": 119, "velocity": 101}, {"time": 134691, "pitch": 70, "duration": 120, "velocity": 32}, {"time": 134721, "pitch": 80, "duration": 120, "velocity": 89}, {"time": 134811, "pitch": 70, "duration": 120, "velocity": 69}, {"time": 134841, "pitch": 81, "duration": 120, "velocity": 92}, {"time": 134931, "pitch": 70, "duration": 120, "velocity": 71}, {"time": 135051, "pitch": 70, "duration": 120, "velocity": 90}, {"time": 135081, "pitch": 80, "duration": 120, "velocity": 107}, {"time": 135171, "pitch": 70, "duration": 120, "velocity": 12}, {"time": 135201, "pitch": 80, "duration": 120, "velocity": 95}, {"time": 135291, "pitch": 70, "duration": 120, "velocity": 66}, {"time": 135321, "pitch": 81, "duration": 120, "velocity": 86}, {"time": 135411, "pitch": 70, "duration": 120, "velocity": 60}, {"time": 135531, "pitch": 70, "duration": 119, "velocity": 99}, {"time": 135561, "pitch": 80, "duration": 119, "velocity": 101}, {"time": 135650, "pitch": 70, "duration": 120, "velocity": 22}, {"time": 135680, "pitch": 80, "duration": 120, "velocity": 93}, {"time": 135770, "pitch": 70, "duration": 120, "velocity": 64}, {"time": 135800, "pitch": 81, "duration": 120, "velocity": 90}, {"time": 135890, "pitch": 70, "duration": 120, "velocity": 64}, {"time": 136010, "pitch": 70, "duration": 120, "velocity": 99}, {"time": 136040, "pitch": 80, "duration": 120, "velocity": 95}, {"time": 136130, "pitch": 70, "duration": 120, "velocity": 24}, {"time": 136160, "pitch": 80, "duration": 120, "velocity": 89}, {"time": 136250, "pitch": 70, "duration": 120, "velocity": 60}, {"time": 136280, "pitch": 81, "duration": 120, "velocity": 87}, {"time": 136370, "pitch": 70, "duration": 120, "velocity": 69}, {"time": 136490, "pitch": 70, "duration": 119, "velocity": 92}, {"time": 136519, "pitch": 80, "duration": 120, "velocity": 101}, {"time": 136609, "pitch": 70, "duration": 120, "velocity": 32}, {"time": 136639, "pitch": 80, "duration": 120, "velocity": 89}, {"time": 136729, "pitch": 70, "duration": 120, "velocity": 69}, {"time": 136759, "pitch": 81, "duration": 120, "velocity": 92}, {"time": 136849, "pitch": 70, "duration": 120, "velocity": 71}, {"time": 136969, "pitch": 70, "duration": 120, "velocity": 90}, {"time": 136999, "pitch": 80, "duration": 120, "velocity": 107}, {"time": 137089, "pitch": 70, "duration": 120, "velocity": 12}, {"time": 137119, "pitch": 80, "duration": 120, "velocity": 95}, {"time": 137209, "pitch": 70, "duration": 120, "velocity": 66}, {"time": 137239, "pitch": 81, "duration": 120, "velocity": 86}, {"time": 137329, "pitch": 70, "duration": 119, "velocity": 60}, {"time": 137448, "pitch": 70, "duration": 120, "velocity": 99}, {"time": 137478, "pitch": 80, "duration": 120, "velocity": 101}, {"time": 137568, "pitch": 70, "duration": 120, "velocity": 22}, {"time": 137598, "pitch": 80, "duration": 120, "velocity": 93}, {"time": 137688, "pitch": 70, "duration": 120, "velocity": 64}, {"time": 137718, "pitch": 81, "duration": 120, "velocity": 90}, {"time": 137808, "pitch": 70, "duration": 120, "velocity": 64}, {"time": 137928, "pitch": 70, "duration": 121, "velocity": 99}, {"time": 137958, "pitch": 80, "duration": 122, "velocity": 95}, {"time": 138049, "pitch": 70, "duration": 122, "velocity": 24}, {"time": 138080, "pitch": 80, "duration": 121, "velocity": 89}, {"time": 138171, "pitch": 70, "duration": 121, "velocity": 60}, {"time": 138201, "pitch": 81, "duration": 122, "velocity": 87}, {"time": 138292, "pitch": 70, "duration": 122, "velocity": 69}, {"time": 138414, "pitch": 70, "duration": 120, "velocity": 92}, {"time": 138444, "pitch": 80, "duration": 119, "velocity": 101}, {"time": 138534, "pitch": 70, "duration": 119, "velocity": 32}, {"time": 138563, "pitch": 80, "duration": 120, "velocity": 89}, {"time": 138653, "pitch": 70, "duration": 120, "velocity": 69}, {"time": 138683, "pitch": 81, "duration": 120, "velocity": 92}, {"time": 138773, "pitch": 70, "duration": 120, "velocity": 71}, {"time": 138893, "pitch": 70, "duration": 120, "velocity": 90}, {"time": 138923, "pitch": 80, "duration": 120, "velocity": 107}, {"time": 139013, "pitch": 70, "duration": 120, "velocity": 12}, {"time": 139043, "pitch": 80, "duration": 120, "velocity": 95}, {"time": 139133, "pitch": 70, "duration": 120, "velocity": 66}, {"time": 139163, "pitch": 81, "duration": 120, "velocity": 86}, {"time": 139253, "pitch": 70, "duration": 120, "velocity": 60}, {"time": 139373, "pitch": 70, "duration": 119, "velocity": 99}, {"time": 139403, "pitch": 80, "duration": 119, "velocity": 101}, {"time": 139492, "pitch": 70, "duration": 120, "velocity": 22}, {"time": 139522, "pitch": 80, "duration": 120, "velocity": 93}, {"time": 139612, "pitch": 70, "duration": 120, "velocity": 64}, {"time": 139642, "pitch": 81, "duration": 120, "velocity": 90}, {"time": 139732, "pitch": 70, "duration": 120, "velocity": 64}, {"time": 139852, "pitch": 70, "duration": 120, "velocity": 99}, {"time": 139882, "pitch": 80, "duration": 120, "velocity": 95}, {"time": 139972, "pitch": 70, "duration": 120, "velocity": 24}, {"time": 140002, "pitch": 80, "duration": 120, "velocity": 89}, {"time": 140092, "pitch": 70, "duration": 120, "velocity": 60}, {"time": 140122, "pitch": 81, "duration": 120, "velocity": 87}, {"time": 140212, "pitch": 70, "duration": 120, "velocity": 69}, {"time": 140332, "pitch": 70, "duration": 119, "velocity": 92}, {"time": 140362, "pitch": 80, "duration": 119, "velocity": 101}, {"time": 140451, "pitch": 70, "duration": 120, "velocity": 32}, {"time": 140481, "pitch": 80, "duration": 120, "velocity": 89}, {"time": 140571, "pitch": 70, "duration": 120, "velocity": 69}, {"time": 140601, "pitch": 81, "duration": 120, "velocity": 92}, {"time": 140691, "pitch": 70, "duration": 120, "velocity": 71}, {"time": 140811, "pitch": 70, "duration": 120, "velocity": 90}, {"time": 140841, "pitch": 80, "duration": 120, "velocity": 107}, {"time": 140931, "pitch": 70, "duration": 120, "velocity": 12}, {"time": 140961, "pitch": 80, "duration": 120, "velocity": 95}, {"time": 141051, "pitch": 70, "duration": 120, "velocity": 66}, {"time": 141081, "pitch": 81, "duration": 120, "velocity": 86}, {"time": 141171, "pitch": 70, "duration": 120, "velocity": 60}, {"time": 141291, "pitch": 70, "duration": 119, "velocity": 99}, {"time": 141321, "pitch": 80, "duration": 119, "velocity": 101}, {"time": 141410, "pitch": 70, "duration": 120, "velocity": 22}, {"time": 141440, "pitch": 80, "duration": 120, "velocity": 93}, {"time": 141530, "pitch": 70, "duration": 120, "velocity": 64}, {"time": 141560, "pitch": 81, "duration": 120, "velocity": 90}, {"time": 141650, "pitch": 70, "duration": 120, "velocity": 64}, {"time": 141770, "pitch": 70, "duration": 120, "velocity": 99}, {"time": 141800, "pitch": 80, "duration": 120, "velocity": 95}, {"time": 141890, "pitch": 70, "duration": 120, "velocity": 24}, {"time": 141920, "pitch": 80, "duration": 120, "velocity": 89}, {"time": 142010, "pitch": 70, "duration": 120, "velocity": 60}, {"time": 142040, "pitch": 81, "duration": 120, "velocity": 87}, {"time": 142130, "pitch": 70, "duration": 120, "velocity": 69}, {"time": 142250, "pitch": 70, "duration": 119, "velocity": 92}, {"time": 142279, "pitch": 53, "duration": 120, "velocity": 71}, {"time": 142279, "pitch": 80, "duration": 120, "velocity": 101}, {"time": 142369, "pitch": 70, "duration": 120, "velocity": 32}, {"time": 142399, "pitch": 80, "duration": 120, "velocity": 89}, {"time": 142489, "pitch": 70, "duration": 120, "velocity": 69}, {"time": 142519, "pitch": 81, "duration": 120, "velocity": 92}, {"time": 142609, "pitch": 70, "duration": 120, "velocity": 71}, {"time": 142729, "pitch": 70, "duration": 120, "velocity": 90}, {"time": 142759, "pitch": 80, "duration": 120, "velocity": 107}, {"time": 142849, "pitch": 70, "duration": 120, "velocity": 12}, {"time": 142879, "pitch": 80, "duration": 120, "velocity": 95}, {"time": 142969, "pitch": 70, "duration": 120, "velocity": 66}, {"time": 142999, "pitch": 81, "duration": 120, "velocity": 86}, {"time": 143089, "pitch": 70, "duration": 119, "velocity": 60}, {"time": 143208, "pitch": 70, "duration": 120, "velocity": 99}, {"time": 143238, "pitch": 80, "duration": 120, "velocity": 101}, {"time": 143328, "pitch": 70, "duration": 120, "velocity": 22}, {"time": 143358, "pitch": 80, "duration": 120, "velocity": 93}, {"time": 143448, "pitch": 70, "duration": 120, "velocity": 64}, {"time": 143478, "pitch": 81, "duration": 120, "velocity": 90}, {"time": 143568, "pitch": 70, "duration": 120, "velocity": 64}, {"time": 143688, "pitch": 70, "duration": 121, "velocity": 99}, {"time": 143718, "pitch": 80, "duration": 122, "velocity": 95}, {"time": 143809, "pitch": 70, "duration": 122, "velocity": 24}, {"time": 143840, "pitch": 80, "duration": 121, "velocity": 89}, {"time": 143931, "pitch": 70, "duration": 121, "velocity": 60}, {"time": 143961, "pitch": 81, "duration": 122, "velocity": 87}, {"time": 144052, "pitch": 70, "duration": 122, "velocity": 69}, {"time": 144174, "pitch": 70, "duration": 120, "velocity": 92}, {"time": 144204, "pitch": 53, "duration": 119, "velocity": 65}, {"time": 144204, "pitch": 80, "duration": 119, "velocity": 101}, {"time": 144294, "pitch": 70, "duration": 119, "velocity": 32}, {"time": 144323, "pitch": 80, "duration": 120, "velocity": 89}, {"time": 144413, "pitch": 70, "duration": 120, "velocity": 69}, {"time": 144443, "pitch": 81, "duration": 120, "velocity": 92}, {"time": 144533, "pitch": 70, "duration": 120, "velocity": 71}, {"time": 144653, "pitch": 70, "duration": 120, "velocity": 90}, {"time": 144683, "pitch": 80, "duration": 120, "velocity": 107}, {"time": 144773, "pitch": 70, "duration": 120, "velocity": 12}, {"time": 144803, "pitch": 80, "duration": 120, "velocity": 95}, {"time": 144893, "pitch": 70, "duration": 120, "velocity": 66}, {"time": 144923, "pitch": 81, "duration": 120, "velocity": 86}, {"time": 145013, "pitch": 70, "duration": 120, "velocity": 60}, {"time": 145133, "pitch": 70, "duration": 119, "velocity": 99}, {"time": 145163, "pitch": 80, "duration": 119, "velocity": 101}, {"time": 145252, "pitch": 70, "duration": 120, "velocity": 22}, {"time": 145282, "pitch": 80, "duration": 120, "velocity": 93}, {"time": 145372, "pitch": 70, "duration": 120, "velocity": 64}, {"time": 145402, "pitch": 81, "duration": 120, "velocity": 90}, {"time": 145492, "pitch": 70, "duration": 120, "velocity": 64}, {"time": 145612, "pitch": 70, "duration": 120, "velocity": 99}, {"time": 145642, "pitch": 80, "duration": 120, "velocity": 95}, {"time": 145732, "pitch": 70, "duration": 120, "velocity": 24}, {"time": 145762, "pitch": 80, "duration": 120, "velocity": 89}, {"time": 145852, "pitch": 70, "duration": 120, "velocity": 60}, {"time": 145882, "pitch": 81, "duration": 120, "velocity": 87}, {"time": 145972, "pitch": 70, "duration": 120, "velocity": 69}, {"time": 146092, "pitch": 70, "duration": 119, "velocity": 92}, {"time": 146122, "pitch": 53, "duration": 119, "velocity": 55}, {"time": 146122, "pitch": 80, "duration": 119, "velocity": 101}, {"time": 146211, "pitch": 70, "duration": 120, "velocity": 32}, {"time": 146241, "pitch": 80, "duration": 120, "velocity": 89}, {"time": 146331, "pitch": 70, "duration": 120, "velocity": 69}, {"time": 146361, "pitch": 81, "duration": 120, "velocity": 92}, {"time": 146451, "pitch": 70, "duration": 120, "velocity": 71}, {"time": 146571, "pitch": 70, "duration": 120, "velocity": 90}, {"time": 146601, "pitch": 80, "duration": 120, "velocity": 107}, {"time": 146691, "pitch": 70, "duration": 120, "velocity": 12}, {"time": 146721, "pitch": 80, "duration": 120, "velocity": 95}, {"time": 146811, "pitch": 70, "duration": 120, "velocity": 66}, {"time": 146841, "pitch": 81, "duration": 120, "velocity": 86}, {"time": 146931, "pitch": 70, "duration": 120, "velocity": 60}, {"time": 147051, "pitch": 70, "duration": 119, "velocity": 99}, {"time": 147081, "pitch": 80, "duration": 119, "velocity": 101}, {"time": 147170, "pitch": 70, "duration": 120, "velocity": 22}, {"time": 147200, "pitch": 80, "duration": 120, "velocity": 93}, {"time": 147290, "pitch": 70, "duration": 120, "velocity": 64}, {"time": 147320, "pitch": 81, "duration": 120, "velocity": 90}, {"time": 147410, "pitch": 70, "duration": 120, "velocity": 64}, {"time": 147530, "pitch": 70, "duration": 120, "velocity": 99}, {"time": 147560, "pitch": 80, "duration": 120, "velocity": 95}, {"time": 147650, "pitch": 70, "duration": 120, "velocity": 24}, {"time": 147680, "pitch": 80, "duration": 120, "velocity": 89}, {"time": 147770, "pitch": 70, "duration": 120, "velocity": 60}, {"time": 147800, "pitch": 81, "duration": 120, "velocity": 87}, {"time": 147890, "pitch": 70, "duration": 120, "velocity": 69}, {"time": 148010, "pitch": 70, "duration": 119, "velocity": 92}, {"time": 148039, "pitch": 53, "duration": 120, "velocity": 52}, {"time": 148039, "pitch": 80, "duration": 120, "velocity": 101}, {"time": 148129, "pitch": 70, "duration": 120, "velocity": 32}, {"time": 148159, "pitch": 80, "duration": 120, "velocity": 89}, {"time": 148249, "pitch": 70, "duration": 120, "velocity": 69}, {"time": 148279, "pitch": 81, "duration": 120, "velocity": 92}, {"time": 148369, "pitch": 70, "duration": 120, "velocity": 71}, {"time": 148489, "pitch": 70, "duration": 120, "velocity": 90}, {"time": 148519, "pitch": 80, "duration": 120, "velocity": 107}, {"time": 148609, "pitch": 70, "duration": 120, "velocity": 12}, {"time": 148639, "pitch": 80, "duration": 120, "velocity": 95}, {"time": 148729, "pitch": 70, "duration": 120, "velocity": 66}, {"time": 148759, "pitch": 81, "duration": 120, "velocity": 86}, {"time": 148849, "pitch": 70, "duration": 119, "velocity": 60}, {"time": 148968, "pitch": 70, "duration": 120, "velocity": 99}, {"time": 148998, "pitch": 80, "duration": 120, "velocity": 101}, {"time": 149088, "pitch": 70, "duration": 120, "velocity": 22}, {"time": 149118, "pitch": 80, "duration": 120, "velocity": 93}, {"time": 149208, "pitch": 70, "duration": 120, "velocity": 64}, {"time": 149238, "pitch": 81, "duration": 120, "velocity": 90}, {"time": 149328, "pitch": 70, "duration": 120, "velocity": 64}, {"time": 149448, "pitch": 70, "duration": 121, "velocity": 99}, {"time": 149478, "pitch": 80, "duration": 122, "velocity": 95}, {"time": 149569, "pitch": 70, "duration": 122, "velocity": 24}, {"time": 149600, "pitch": 80, "duration": 121, "velocity": 89}, {"time": 149691, "pitch": 70, "duration": 121, "velocity": 60}, {"time": 149721, "pitch": 81, "duration": 122, "velocity": 87}, {"time": 149812, "pitch": 70, "duration": 122, "velocity": 69}, {"time": 149934, "pitch": 70, "duration": 120, "velocity": 92}, {"time": 149964, "pitch": 53, "duration": 120, "velocity": 71}, {"time": 149964, "pitch": 80, "duration": 120, "velocity": 101}, {"time": 150054, "pitch": 70, "duration": 119, "velocity": 32}, {"time": 150084, "pitch": 80, "duration": 119, "velocity": 89}, {"time": 150173, "pitch": 70, "duration": 120, "velocity": 69}, {"time": 150203, "pitch": 81, "duration": 120, "velocity": 92}, {"time": 150293, "pitch": 70, "duration": 120, "velocity": 71}, {"time": 150413, "pitch": 70, "duration": 120, "velocity": 90}, {"time": 150443, "pitch": 80, "duration": 120, "velocity": 107}, {"time": 150533, "pitch": 70, "duration": 120, "velocity": 12}, {"time": 150563, "pitch": 80, "duration": 120, "velocity": 95}, {"time": 150653, "pitch": 70, "duration": 120, "velocity": 66}, {"time": 150683, "pitch": 81, "duration": 120, "velocity": 86}, {"time": 150773, "pitch": 70, "duration": 120, "velocity": 60}, {"time": 150893, "pitch": 70, "duration": 119, "velocity": 99}, {"time": 150923, "pitch": 80, "duration": 119, "velocity": 101}, {"time": 151012, "pitch": 70, "duration": 120, "velocity": 22}, {"time": 151042, "pitch": 80, "duration": 120, "velocity": 93}, {"time": 151132, "pitch": 70, "duration": 120, "velocity": 64}, {"time": 151162, "pitch": 81, "duration": 120, "velocity": 90}, {"time": 151252, "pitch": 70, "duration": 120, "velocity": 64}, {"time": 151372, "pitch": 70, "duration": 120, "velocity": 99}, {"time": 151402, "pitch": 80, "duration": 120, "velocity": 95}, {"time": 151492, "pitch": 70, "duration": 120, "velocity": 24}, {"time": 151522, "pitch": 80, "duration": 120, "velocity": 89}, {"time": 151612, "pitch": 70, "duration": 120, "velocity": 60}, {"time": 151642, "pitch": 81, "duration": 120, "velocity": 87}, {"time": 151732, "pitch": 70, "duration": 120, "velocity": 69}, {"time": 151852, "pitch": 70, "duration": 119, "velocity": 92}, {"time": 151882, "pitch": 53, "duration": 119, "velocity": 69}, {"time": 151882, "pitch": 80, "duration": 119, "velocity": 101}, {"time": 151971, "pitch": 70, "duration": 120, "velocity": 32}, {"time": 152001, "pitch": 80, "duration": 120, "velocity": 89}, {"time": 152091, "pitch": 70, "duration": 120, "velocity": 69}, {"time": 152121, "pitch": 81, "duration": 120, "velocity": 92}, {"time": 152211, "pitch": 70, "duration": 120, "velocity": 71}, {"time": 152331, "pitch": 70, "duration": 120, "velocity": 90}, {"time": 152361, "pitch": 80, "duration": 120, "velocity": 107}, {"time": 152451, "pitch": 70, "duration": 120, "velocity": 12}, {"time": 152481, "pitch": 80, "duration": 120, "velocity": 95}, {"time": 152571, "pitch": 70, "duration": 120, "velocity": 66}, {"time": 152601, "pitch": 81, "duration": 120, "velocity": 86}, {"time": 152691, "pitch": 70, "duration": 120, "velocity": 60}, {"time": 152811, "pitch": 70, "duration": 119, "velocity": 99}, {"time": 152841, "pitch": 80, "duration": 119, "velocity": 101}, {"time": 152930, "pitch": 70, "duration": 120, "velocity": 22}, {"time": 153050, "pitch": 70, "duration": 120, "velocity": 64}, {"time": 153080, "pitch": 81, "duration": 120, "velocity": 90}, {"time": 153170, "pitch": 70, "duration": 120, "velocity": 64}, {"time": 153290, "pitch": 70, "duration": 120, "velocity": 99}, {"time": 153320, "pitch": 80, "duration": 120, "velocity": 95}, {"time": 153410, "pitch": 70, "duration": 120, "velocity": 24}, {"time": 153440, "pitch": 80, "duration": 120, "velocity": 89}, {"time": 153530, "pitch": 70, "duration": 120, "velocity": 60}, {"time": 153560, "pitch": 81, "duration": 120, "velocity": 87}, {"time": 153650, "pitch": 70, "duration": 120, "velocity": 69}, {"time": 153770, "pitch": 70, "duration": 119, "velocity": 92}, {"time": 153799, "pitch": 53, "duration": 120, "velocity": 73}, {"time": 153799, "pitch": 80, "duration": 120, "velocity": 101}, {"time": 153889, "pitch": 70, "duration": 120, "velocity": 32}, {"time": 153919, "pitch": 80, "duration": 120, "velocity": 89}, {"time": 154009, "pitch": 70, "duration": 120, "velocity": 69}, {"time": 154039, "pitch": 81, "duration": 120, "velocity": 92}, {"time": 154129, "pitch": 70, "duration": 120, "velocity": 71}, {"time": 154249, "pitch": 70, "duration": 120, "velocity": 90}, {"time": 154279, "pitch": 80, "duration": 120, "velocity": 107}, {"time": 154369, "pitch": 70, "duration": 120, "velocity": 12}, {"time": 154399, "pitch": 80, "duration": 120, "velocity": 95}, {"time": 154489, "pitch": 70, "duration": 120, "velocity": 66}, {"time": 154519, "pitch": 81, "duration": 120, "velocity": 86}, {"time": 154609, "pitch": 70, "duration": 119, "velocity": 60}, {"time": 154728, "pitch": 70, "duration": 120, "velocity": 99}, {"time": 154758, "pitch": 80, "duration": 120, "velocity": 101}, {"time": 154848, "pitch": 70, "duration": 120, "velocity": 22}, {"time": 154878, "pitch": 80, "duration": 120, "velocity": 93}, {"time": 154968, "pitch": 70, "duration": 120, "velocity": 64}, {"time": 154998, "pitch": 81, "duration": 120, "velocity": 90}, {"time": 155088, "pitch": 70, "duration": 120, "velocity": 64}, {"time": 155208, "pitch": 70, "duration": 121, "velocity": 99}, {"time": 155238, "pitch": 80, "duration": 122, "velocity": 95}, {"time": 155329, "pitch": 70, "duration": 122, "velocity": 24}, {"time": 155360, "pitch": 80, "duration": 121, "velocity": 89}, {"time": 155451, "pitch": 70, "duration": 121, "velocity": 60}, {"time": 155481, "pitch": 81, "duration": 122, "velocity": 87}, {"time": 155572, "pitch": 70, "duration": 122, "velocity": 69}, {"time": 155694, "pitch": 70, "duration": 120, "velocity": 92}, {"time": 155724, "pitch": 53, "duration": 120, "velocity": 73}, {"time": 155724, "pitch": 80, "duration": 120, "velocity": 101}, {"time": 155814, "pitch": 70, "duration": 119, "velocity": 32}, {"time": 155844, "pitch": 80, "duration": 119, "velocity": 89}, {"time": 155933, "pitch": 70, "duration": 120, "velocity": 69}, {"time": 155963, "pitch": 81, "duration": 120, "velocity": 92}, {"time": 156053, "pitch": 70, "duration": 120, "velocity": 71}, {"time": 156173, "pitch": 70, "duration": 120, "velocity": 90}, {"time": 156203, "pitch": 80, "duration": 120, "velocity": 107}, {"time": 156293, "pitch": 70, "duration": 120, "velocity": 12}, {"time": 156323, "pitch": 80, "duration": 120, "velocity": 95}, {"time": 156413, "pitch": 70, "duration": 120, "velocity": 66}, {"time": 156443, "pitch": 81, "duration": 120, "velocity": 86}, {"time": 156533, "pitch": 70, "duration": 120, "velocity": 60}, {"time": 156653, "pitch": 70, "duration": 119, "velocity": 99}, {"time": 156683, "pitch": 80, "duration": 119, "velocity": 101}, {"time": 156772, "pitch": 70, "duration": 120, "velocity": 22}, {"time": 156802, "pitch": 80, "duration": 120, "velocity": 93}, {"time": 156892, "pitch": 70, "duration": 120, "velocity": 64}, {"time": 156922, "pitch": 81, "duration": 120, "velocity": 90}, {"time": 157012, "pitch": 70, "duration": 120, "velocity": 64}, {"time": 157132, "pitch": 70, "duration": 120, "velocity": 99}, {"time": 157162, "pitch": 80, "duration": 120, "velocity": 95}, {"time": 157252, "pitch": 70, "duration": 120, "velocity": 24}, {"time": 157282, "pitch": 80, "duration": 120, "velocity": 89}, {"time": 157372, "pitch": 70, "duration": 120, "velocity": 60}, {"time": 157402, "pitch": 81, "duration": 120, "velocity": 87}, {"time": 157492, "pitch": 70, "duration": 120, "velocity": 69}, {"time": 157612, "pitch": 70, "duration": 119, "velocity": 92}, {"time": 157642, "pitch": 53, "duration": 119, "velocity": 67}, {"time": 157642, "pitch": 80, "duration": 119, "velocity": 101}, {"time": 157731, "pitch": 70, "duration": 120, "velocity": 32}, {"time": 157761, "pitch": 80, "duration": 120, "velocity": 89}, {"time": 157851, "pitch": 70, "duration": 120, "velocity": 69}, {"time": 157881, "pitch": 81, "duration": 120, "velocity": 92}, {"time": 157971, "pitch": 70, "duration": 120, "velocity": 71}, {"time": 158091, "pitch": 70, "duration": 120, "velocity": 90}, {"time": 158121, "pitch": 80, "duration": 120, "velocity": 107}, {"time": 158211, "pitch": 70, "duration": 120, "velocity": 12}, {"time": 158241, "pitch": 80, "duration": 120, "velocity": 95}, {"time": 158331, "pitch": 70, "duration": 120, "velocity": 66}, {"time": 158361, "pitch": 81, "duration": 120, "velocity": 86}, {"time": 158451, "pitch": 70, "duration": 120, "velocity": 60}, {"time": 158571, "pitch": 70, "duration": 119, "velocity": 99}, {"time": 158601, "pitch": 80, "duration": 119, "velocity": 101}, {"time": 158690, "pitch": 70, "duration": 120, "velocity": 22}, {"time": 158720, "pitch": 80, "duration": 120, "velocity": 93}, {"time": 158810, "pitch": 70, "duration": 120, "velocity": 64}, {"time": 158840, "pitch": 81, "duration": 120, "velocity": 90}, {"time": 158930, "pitch": 70, "duration": 120, "velocity": 64}, {"time": 159050, "pitch": 70, "duration": 120, "velocity": 99}, {"time": 159080, "pitch": 80, "duration": 120, "velocity": 95}, {"time": 159170, "pitch": 70, "duration": 120, "velocity": 24}, {"time": 159200, "pitch": 80, "duration": 120, "velocity": 89}, {"time": 159290, "pitch": 70, "duration": 120, "velocity": 60}, {"time": 159320, "pitch": 81, "duration": 120, "velocity": 87}, {"time": 159410, "pitch": 70, "duration": 120, "velocity": 69}, {"time": 159530, "pitch": 70, "duration": 119, "velocity": 92}, {"time": 159559, "pitch": 80, "duration": 120, "velocity": 101}, {"time": 159649, "pitch": 70, "duration": 120, "velocity": 32}, {"time": 159679, "pitch": 80, "duration": 120, "velocity": 89}, {"time": 159769, "pitch": 70, "duration": 120, "velocity": 69}, {"time": 159799, "pitch": 81, "duration": 120, "velocity": 92}, {"time": 159889, "pitch": 70, "duration": 120, "velocity": 71}, {"time": 160009, "pitch": 70, "duration": 120, "velocity": 90}, {"time": 160039, "pitch": 80, "duration": 120, "velocity": 97}, {"time": 160129, "pitch": 70, "duration": 120, "velocity": 12}, {"time": 160159, "pitch": 80, "duration": 120, "velocity": 93}, {"time": 160249, "pitch": 70, "duration": 120, "velocity": 66}, {"time": 160279, "pitch": 81, "duration": 120, "velocity": 90}, {"time": 160369, "pitch": 70, "duration": 119, "velocity": 60}, {"time": 160488, "pitch": 70, "duration": 120, "velocity": 99}, {"time": 160518, "pitch": 80, "duration": 120, "velocity": 92}, {"time": 160608, "pitch": 70, "duration": 120, "velocity": 22}, {"time": 160638, "pitch": 80, "duration": 120, "velocity": 82}, {"time": 160728, "pitch": 70, "duration": 120, "velocity": 64}, {"time": 160758, "pitch": 81, "duration": 120, "velocity": 74}, {"time": 160848, "pitch": 70, "duration": 120, "velocity": 64}, {"time": 160998, "pitch": 81, "duration": 122, "velocity": 86}]}]}