{"metadata": {"schema_version": "0.1", "title": "RWC-MDB-P-2001 No. 78: Kumo / Masaki Kuehara", "copyright": "RWC Music Database. Copyright (C) 2001 Real World Computing Partnership (contact: Masataka GOTO <m.goto@aist.go.jp>)", "source_filename": "RM-P078.SMF_SYNC.MID", "source_format": "midi"}, "resolution": 480, "tempos": [{"time": 0, "qpm": 58.25242718446602}, {"time": 480, "qpm": 75.0}], "key_signatures": [{"time": 0, "root": 7, "mode": "major"}], "time_signatures": [{"time": 0, "numerator": 1, "denominator": 4}, {"time": 480, "numerator": 4, "denominator": 4}], "tracks": [{"program": 0, "is_drum": false, "name": "Piano", "notes": [{"time": 479, "pitch": 43, "duration": 939, "velocity": 110}, {"time": 718, "pitch": 50, "duration": 700, "velocity": 105}, {"time": 958, "pitch": 62, "duration": 460, "velocity": 110}, {"time": 1198, "pitch": 55, "duration": 220, "velocity": 100}, {"time": 1438, "pitch": 45, "duration": 939, "velocity": 110}, {"time": 1678, "pitch": 52, "duration": 699, "velocity": 105}, {"time": 1918, "pitch": 64, "duration": 459, "velocity": 110}, {"time": 2157, "pitch": 60, "duration": 220, "velocity": 100}, {"time": 2397, "pitch": 47, "duration": 706, "velocity": 110}, {"time": 2640, "pitch": 54, "duration": 463, "velocity": 105}, {"time": 2883, "pitch": 66, "duration": 220, "velocity": 110}, {"time": 3123, "pitch": 40, "duration": 1179, "velocity": 110}, {"time": 3123, "pitch": 55, "duration": 959, "velocity": 105}, {"time": 3123, "pitch": 64, "duration": 479, "velocity": 110}, {"time": 3602, "pitch": 64, "duration": 700, "velocity": 105}, {"time": 3842, "pitch": 62, "duration": 460, "velocity": 110}, {"time": 4082, "pitch": 55, "duration": 220, "velocity": 100}, {"time": 4322, "pitch": 45, "duration": 939, "velocity": 110}, {"time": 4562, "pitch": 52, "duration": 699, "velocity": 105}, {"time": 4802, "pitch": 64, "duration": 459, "velocity": 110}, {"time": 5041, "pitch": 60, "duration": 220, "velocity": 100}, {"time": 5281, "pitch": 50, "duration": 939, "velocity": 110}, {"time": 5521, "pitch": 55, "duration": 699, "velocity": 105}, {"time": 5761, "pitch": 64, "duration": 459, "velocity": 110}, {"time": 6001, "pitch": 60, "duration": 219, "velocity": 100}, {"time": 6240, "pitch": 43, "duration": 1899, "velocity": 110}, {"time": 6480, "pitch": 50, "duration": 1439, "velocity": 105}, {"time": 6720, "pitch": 62, "duration": 720, "velocity": 110}, {"time": 6960, "pitch": 55, "duration": 719, "velocity": 100}, {"time": 7200, "pitch": 64, "duration": 939, "velocity": 110}, {"time": 7440, "pitch": 62, "duration": 699, "velocity": 105}, {"time": 7679, "pitch": 55, "duration": 460, "velocity": 110}, {"time": 7919, "pitch": 50, "duration": 220, "velocity": 100}, {"time": 8159, "pitch": 43, "duration": 939, "velocity": 110}, {"time": 8399, "pitch": 50, "duration": 699, "velocity": 105}, {"time": 8639, "pitch": 62, "duration": 459, "velocity": 110}, {"time": 8879, "pitch": 55, "duration": 219, "velocity": 100}, {"time": 9118, "pitch": 45, "duration": 940, "velocity": 110}, {"time": 9358, "pitch": 52, "duration": 700, "velocity": 105}, {"time": 9598, "pitch": 64, "duration": 460, "velocity": 110}, {"time": 9838, "pitch": 60, "duration": 220, "velocity": 100}, {"time": 10078, "pitch": 47, "duration": 945, "velocity": 110}, {"time": 10317, "pitch": 54, "duration": 706, "velocity": 105}, {"time": 10557, "pitch": 66, "duration": 466, "velocity": 110}, {"time": 10800, "pitch": 62, "duration": 223, "velocity": 100}, {"time": 11043, "pitch": 46, "duration": 939, "velocity": 110}, {"time": 11283, "pitch": 53, "duration": 699, "velocity": 105}, {"time": 11523, "pitch": 65, "duration": 459, "velocity": 110}, {"time": 11762, "pitch": 61, "duration": 220, "velocity": 100}, {"time": 12002, "pitch": 45, "duration": 940, "velocity": 110}, {"time": 12242, "pitch": 52, "duration": 700, "velocity": 105}, {"time": 12482, "pitch": 64, "duration": 460, "velocity": 110}, {"time": 12722, "pitch": 60, "duration": 220, "velocity": 100}, {"time": 12962, "pitch": 50, "duration": 939, "velocity": 110}, {"time": 13201, "pitch": 57, "duration": 700, "velocity": 105}, {"time": 13441, "pitch": 66, "duration": 460, "velocity": 110}, {"time": 13681, "pitch": 62, "duration": 220, "velocity": 100}, {"time": 13921, "pitch": 43, "duration": 1899, "velocity": 110}, {"time": 14161, "pitch": 50, "duration": 1439, "velocity": 105}, {"time": 14401, "pitch": 62, "duration": 719, "velocity": 110}, {"time": 14640, "pitch": 55, "duration": 720, "velocity": 100}, {"time": 14880, "pitch": 64, "duration": 940, "velocity": 110}, {"time": 15120, "pitch": 62, "duration": 700, "velocity": 105}, {"time": 15360, "pitch": 55, "duration": 460, "velocity": 110}, {"time": 15600, "pitch": 50, "duration": 220, "velocity": 100}, {"time": 15839, "pitch": 43, "duration": 940, "velocity": 110}, {"time": 16079, "pitch": 50, "duration": 700, "velocity": 105}, {"time": 16319, "pitch": 62, "duration": 460, "velocity": 110}, {"time": 16559, "pitch": 55, "duration": 220, "velocity": 100}, {"time": 16799, "pitch": 45, "duration": 939, "velocity": 110}, {"time": 17039, "pitch": 52, "duration": 699, "velocity": 105}, {"time": 17278, "pitch": 64, "duration": 460, "velocity": 110}, {"time": 17518, "pitch": 60, "duration": 220, "velocity": 100}, {"time": 17758, "pitch": 47, "duration": 939, "velocity": 110}, {"time": 17998, "pitch": 54, "duration": 699, "velocity": 105}, {"time": 18238, "pitch": 66, "duration": 459, "velocity": 110}, {"time": 18478, "pitch": 62, "duration": 219, "velocity": 100}, {"time": 18717, "pitch": 46, "duration": 946, "velocity": 110}, {"time": 18957, "pitch": 53, "duration": 706, "velocity": 105}, {"time": 19197, "pitch": 65, "duration": 466, "velocity": 110}, {"time": 19440, "pitch": 61, "duration": 223, "velocity": 100}, {"time": 19683, "pitch": 45, "duration": 939, "velocity": 110}, {"time": 19923, "pitch": 52, "duration": 699, "velocity": 105}, {"time": 20162, "pitch": 64, "duration": 460, "velocity": 110}, {"time": 20402, "pitch": 60, "duration": 220, "velocity": 100}, {"time": 20642, "pitch": 50, "duration": 939, "velocity": 110}, {"time": 20882, "pitch": 57, "duration": 699, "velocity": 105}, {"time": 21122, "pitch": 66, "duration": 459, "velocity": 110}, {"time": 21362, "pitch": 62, "duration": 219, "velocity": 100}, {"time": 21601, "pitch": 43, "duration": 1899, "velocity": 110}, {"time": 21841, "pitch": 50, "duration": 1439, "velocity": 105}, {"time": 22081, "pitch": 62, "duration": 719, "velocity": 110}, {"time": 22321, "pitch": 55, "duration": 719, "velocity": 100}, {"time": 22561, "pitch": 64, "duration": 939, "velocity": 110}, {"time": 22800, "pitch": 62, "duration": 700, "velocity": 105}, {"time": 23040, "pitch": 55, "duration": 460, "velocity": 110}, {"time": 23280, "pitch": 50, "duration": 220, "velocity": 100}, {"time": 23520, "pitch": 47, "duration": 1899, "velocity": 110}, {"time": 23760, "pitch": 54, "duration": 1439, "velocity": 105}, {"time": 24000, "pitch": 62, "duration": 719, "velocity": 110}, {"time": 24239, "pitch": 59, "duration": 720, "velocity": 100}, {"time": 24479, "pitch": 66, "duration": 940, "velocity": 110}, {"time": 24719, "pitch": 62, "duration": 700, "velocity": 105}, {"time": 24959, "pitch": 59, "duration": 460, "velocity": 110}, {"time": 25199, "pitch": 54, "duration": 220, "velocity": 100}, {"time": 25439, "pitch": 40, "duration": 1898, "velocity": 110}, {"time": 25678, "pitch": 47, "duration": 1659, "velocity": 105}, {"time": 25918, "pitch": 62, "duration": 720, "velocity": 110}, {"time": 26158, "pitch": 55, "duration": 719, "velocity": 100}, {"time": 26398, "pitch": 64, "duration": 939, "velocity": 110}, {"time": 26638, "pitch": 62, "duration": 479, "velocity": 105}, {"time": 26877, "pitch": 55, "duration": 460, "velocity": 110}, {"time": 27117, "pitch": 62, "duration": 220, "velocity": 100}, {"time": 27357, "pitch": 45, "duration": 1905, "velocity": 110}, {"time": 27600, "pitch": 52, "duration": 483, "velocity": 105}, {"time": 27843, "pitch": 55, "duration": 719, "velocity": 110}, {"time": 28083, "pitch": 52, "duration": 1179, "velocity": 100}, {"time": 28322, "pitch": 60, "duration": 480, "velocity": 110}, {"time": 28562, "pitch": 55, "duration": 700, "velocity": 105}, {"time": 28802, "pitch": 64, "duration": 460, "velocity": 110}, {"time": 29042, "pitch": 60, "duration": 220, "velocity": 100}, {"time": 29282, "pitch": 50, "duration": 1898, "velocity": 110}, {"time": 29522, "pitch": 54, "duration": 1658, "velocity": 105}, {"time": 29761, "pitch": 60, "duration": 720, "velocity": 110}, {"time": 30001, "pitch": 57, "duration": 720, "velocity": 100}, {"time": 30241, "pitch": 66, "duration": 939, "velocity": 110}, {"time": 30481, "pitch": 60, "duration": 480, "velocity": 105}, {"time": 30721, "pitch": 57, "duration": 459, "velocity": 110}, {"time": 30961, "pitch": 60, "duration": 219, "velocity": 100}, {"time": 31200, "pitch": 47, "duration": 1899, "velocity": 110}, {"time": 31440, "pitch": 54, "duration": 1439, "velocity": 105}, {"time": 31680, "pitch": 62, "duration": 720, "velocity": 110}, {"time": 31920, "pitch": 57, "duration": 719, "velocity": 100}, {"time": 32160, "pitch": 66, "duration": 939, "velocity": 110}, {"time": 32400, "pitch": 62, "duration": 699, "velocity": 105}, {"time": 32639, "pitch": 57, "duration": 460, "velocity": 110}, {"time": 32879, "pitch": 54, "duration": 220, "velocity": 100}, {"time": 33119, "pitch": 40, "duration": 1899, "velocity": 110}, {"time": 33359, "pitch": 47, "duration": 1659, "velocity": 105}, {"time": 33599, "pitch": 62, "duration": 719, "velocity": 110}, {"time": 33838, "pitch": 55, "duration": 720, "velocity": 100}, {"time": 34078, "pitch": 64, "duration": 940, "velocity": 110}, {"time": 34318, "pitch": 62, "duration": 480, "velocity": 105}, {"time": 34558, "pitch": 55, "duration": 460, "velocity": 110}, {"time": 34798, "pitch": 62, "duration": 220, "velocity": 100}, {"time": 35038, "pitch": 45, "duration": 945, "velocity": 110}, {"time": 35277, "pitch": 52, "duration": 706, "velocity": 105}, {"time": 35517, "pitch": 60, "duration": 466, "velocity": 110}, {"time": 35760, "pitch": 55, "duration": 223, "velocity": 100}, {"time": 36003, "pitch": 47, "duration": 939, "velocity": 110}, {"time": 36243, "pitch": 54, "duration": 699, "velocity": 105}, {"time": 36483, "pitch": 62, "duration": 459, "velocity": 110}, {"time": 36722, "pitch": 57, "duration": 220, "velocity": 100}, {"time": 36962, "pitch": 48, "duration": 940, "velocity": 110}, {"time": 37202, "pitch": 55, "duration": 700, "velocity": 105}, {"time": 37442, "pitch": 60, "duration": 240, "velocity": 95}, {"time": 37452, "pitch": 63, "duration": 460, "velocity": 110}, {"time": 37682, "pitch": 60, "duration": 220, "velocity": 100}, {"time": 37922, "pitch": 50, "duration": 939, "velocity": 110}, {"time": 38161, "pitch": 57, "duration": 700, "velocity": 105}, {"time": 38401, "pitch": 60, "duration": 240, "velocity": 95}, {"time": 38411, "pitch": 64, "duration": 460, "velocity": 110}, {"time": 38641, "pitch": 60, "duration": 220, "velocity": 100}, {"time": 38881, "pitch": 50, "duration": 1898, "velocity": 100}, {"time": 38891, "pitch": 57, "duration": 1888, "velocity": 95}, {"time": 38901, "pitch": 60, "duration": 1878, "velocity": 100}, {"time": 38911, "pitch": 67, "duration": 1868, "velocity": 110}, {"time": 40799, "pitch": 43, "duration": 940, "velocity": 110}, {"time": 41039, "pitch": 50, "duration": 700, "velocity": 105}, {"time": 41279, "pitch": 62, "duration": 460, "velocity": 110}, {"time": 41519, "pitch": 55, "duration": 220, "velocity": 100}, {"time": 41759, "pitch": 45, "duration": 939, "velocity": 110}, {"time": 41999, "pitch": 52, "duration": 699, "velocity": 105}, {"time": 42238, "pitch": 64, "duration": 460, "velocity": 110}, {"time": 42478, "pitch": 60, "duration": 220, "velocity": 100}, {"time": 42718, "pitch": 47, "duration": 700, "velocity": 110}, {"time": 42958, "pitch": 54, "duration": 460, "velocity": 105}, {"time": 43198, "pitch": 66, "duration": 220, "velocity": 110}, {"time": 43437, "pitch": 40, "duration": 1186, "velocity": 110}, {"time": 43437, "pitch": 55, "duration": 966, "velocity": 105}, {"time": 43437, "pitch": 64, "duration": 483, "velocity": 110}, {"time": 43920, "pitch": 64, "duration": 703, "velocity": 105}, {"time": 44163, "pitch": 62, "duration": 460, "velocity": 110}, {"time": 44403, "pitch": 55, "duration": 220, "velocity": 100}, {"time": 44643, "pitch": 45, "duration": 939, "velocity": 110}, {"time": 44883, "pitch": 52, "duration": 699, "velocity": 105}, {"time": 45122, "pitch": 64, "duration": 460, "velocity": 110}, {"time": 45362, "pitch": 60, "duration": 220, "velocity": 100}, {"time": 45602, "pitch": 50, "duration": 939, "velocity": 110}, {"time": 45842, "pitch": 55, "duration": 699, "velocity": 105}, {"time": 46082, "pitch": 64, "duration": 459, "velocity": 110}, {"time": 46321, "pitch": 60, "duration": 220, "velocity": 100}, {"time": 46561, "pitch": 43, "duration": 1899, "velocity": 110}, {"time": 46801, "pitch": 50, "duration": 1439, "velocity": 105}, {"time": 47041, "pitch": 62, "duration": 719, "velocity": 110}, {"time": 47281, "pitch": 55, "duration": 719, "velocity": 100}, {"time": 47521, "pitch": 64, "duration": 939, "velocity": 110}, {"time": 47760, "pitch": 62, "duration": 700, "velocity": 105}, {"time": 48000, "pitch": 55, "duration": 460, "velocity": 110}, {"time": 48240, "pitch": 50, "duration": 220, "velocity": 100}, {"time": 48480, "pitch": 43, "duration": 939, "velocity": 110}, {"time": 48720, "pitch": 50, "duration": 699, "velocity": 105}, {"time": 48960, "pitch": 62, "duration": 459, "velocity": 110}, {"time": 49199, "pitch": 55, "duration": 220, "velocity": 100}, {"time": 49439, "pitch": 45, "duration": 939, "velocity": 110}, {"time": 49679, "pitch": 52, "duration": 699, "velocity": 105}, {"time": 49919, "pitch": 64, "duration": 459, "velocity": 110}, {"time": 50159, "pitch": 60, "duration": 219, "velocity": 100}, {"time": 50398, "pitch": 47, "duration": 700, "velocity": 110}, {"time": 50638, "pitch": 54, "duration": 460, "velocity": 105}, {"time": 50878, "pitch": 66, "duration": 220, "velocity": 110}, {"time": 51118, "pitch": 40, "duration": 1179, "velocity": 110}, {"time": 51118, "pitch": 55, "duration": 959, "velocity": 105}, {"time": 51118, "pitch": 64, "duration": 480, "velocity": 110}, {"time": 51598, "pitch": 64, "duration": 699, "velocity": 105}, {"time": 51837, "pitch": 62, "duration": 460, "velocity": 110}, {"time": 52077, "pitch": 55, "duration": 220, "velocity": 100}, {"time": 52317, "pitch": 45, "duration": 945, "velocity": 110}, {"time": 52560, "pitch": 52, "duration": 702, "velocity": 105}, {"time": 52803, "pitch": 64, "duration": 459, "velocity": 110}, {"time": 53043, "pitch": 60, "duration": 219, "velocity": 100}, {"time": 53282, "pitch": 50, "duration": 940, "velocity": 110}, {"time": 53522, "pitch": 55, "duration": 700, "velocity": 105}, {"time": 53762, "pitch": 64, "duration": 460, "velocity": 110}, {"time": 54002, "pitch": 60, "duration": 220, "velocity": 100}, {"time": 54242, "pitch": 43, "duration": 1898, "velocity": 110}, {"time": 54482, "pitch": 50, "duration": 1438, "velocity": 105}, {"time": 54721, "pitch": 62, "duration": 720, "velocity": 110}, {"time": 54961, "pitch": 55, "duration": 720, "velocity": 100}, {"time": 55201, "pitch": 64, "duration": 939, "velocity": 110}, {"time": 55441, "pitch": 62, "duration": 699, "velocity": 105}, {"time": 55681, "pitch": 55, "duration": 459, "velocity": 110}, {"time": 55920, "pitch": 50, "duration": 220, "velocity": 100}, {"time": 56160, "pitch": 43, "duration": 940, "velocity": 110}, {"time": 56400, "pitch": 50, "duration": 700, "velocity": 105}, {"time": 56640, "pitch": 62, "duration": 460, "velocity": 110}, {"time": 56880, "pitch": 55, "duration": 220, "velocity": 100}, {"time": 57120, "pitch": 45, "duration": 939, "velocity": 110}, {"time": 57359, "pitch": 52, "duration": 700, "velocity": 105}, {"time": 57599, "pitch": 64, "duration": 460, "velocity": 110}, {"time": 57839, "pitch": 60, "duration": 220, "velocity": 100}, {"time": 58079, "pitch": 47, "duration": 939, "velocity": 110}, {"time": 58319, "pitch": 54, "duration": 699, "velocity": 105}, {"time": 58559, "pitch": 66, "duration": 459, "velocity": 110}, {"time": 58798, "pitch": 62, "duration": 220, "velocity": 100}, {"time": 59038, "pitch": 46, "duration": 940, "velocity": 110}, {"time": 59278, "pitch": 53, "duration": 700, "velocity": 105}, {"time": 59518, "pitch": 65, "duration": 460, "velocity": 110}, {"time": 59758, "pitch": 61, "duration": 220, "velocity": 100}, {"time": 59998, "pitch": 45, "duration": 945, "velocity": 110}, {"time": 60237, "pitch": 52, "duration": 706, "velocity": 105}, {"time": 60477, "pitch": 64, "duration": 466, "velocity": 110}, {"time": 60720, "pitch": 60, "duration": 223, "velocity": 100}, {"time": 60963, "pitch": 50, "duration": 939, "velocity": 110}, {"time": 61203, "pitch": 57, "duration": 699, "velocity": 105}, {"time": 61443, "pitch": 66, "duration": 459, "velocity": 110}, {"time": 61682, "pitch": 62, "duration": 220, "velocity": 100}, {"time": 61922, "pitch": 43, "duration": 1899, "velocity": 110}, {"time": 62162, "pitch": 50, "duration": 1439, "velocity": 105}, {"time": 62402, "pitch": 62, "duration": 719, "velocity": 110}, {"time": 62642, "pitch": 55, "duration": 719, "velocity": 100}, {"time": 62881, "pitch": 64, "duration": 940, "velocity": 110}, {"time": 63121, "pitch": 62, "duration": 700, "velocity": 105}, {"time": 63361, "pitch": 55, "duration": 460, "velocity": 110}, {"time": 63601, "pitch": 50, "duration": 220, "velocity": 100}, {"time": 63841, "pitch": 43, "duration": 939, "velocity": 110}, {"time": 64081, "pitch": 50, "duration": 699, "velocity": 105}, {"time": 64320, "pitch": 62, "duration": 460, "velocity": 110}, {"time": 64560, "pitch": 55, "duration": 220, "velocity": 100}, {"time": 64800, "pitch": 45, "duration": 939, "velocity": 110}, {"time": 65040, "pitch": 52, "duration": 699, "velocity": 105}, {"time": 65280, "pitch": 64, "duration": 459, "velocity": 110}, {"time": 65520, "pitch": 60, "duration": 219, "velocity": 100}, {"time": 65759, "pitch": 47, "duration": 940, "velocity": 110}, {"time": 65999, "pitch": 54, "duration": 700, "velocity": 105}, {"time": 66239, "pitch": 66, "duration": 460, "velocity": 110}, {"time": 66479, "pitch": 62, "duration": 220, "velocity": 100}, {"time": 66719, "pitch": 46, "duration": 939, "velocity": 110}, {"time": 66958, "pitch": 53, "duration": 700, "velocity": 105}, {"time": 67198, "pitch": 65, "duration": 460, "velocity": 110}, {"time": 67438, "pitch": 61, "duration": 220, "velocity": 100}, {"time": 67678, "pitch": 45, "duration": 939, "velocity": 110}, {"time": 67918, "pitch": 52, "duration": 699, "velocity": 105}, {"time": 68158, "pitch": 64, "duration": 459, "velocity": 110}, {"time": 68397, "pitch": 60, "duration": 220, "velocity": 100}, {"time": 68637, "pitch": 50, "duration": 946, "velocity": 110}, {"time": 68880, "pitch": 57, "duration": 703, "velocity": 105}, {"time": 69123, "pitch": 66, "duration": 460, "velocity": 110}, {"time": 69363, "pitch": 62, "duration": 220, "velocity": 100}, {"time": 69603, "pitch": 43, "duration": 1898, "velocity": 110}, {"time": 69842, "pitch": 50, "duration": 1439, "velocity": 105}, {"time": 70082, "pitch": 62, "duration": 720, "velocity": 110}, {"time": 70322, "pitch": 55, "duration": 720, "velocity": 100}, {"time": 70562, "pitch": 64, "duration": 939, "velocity": 110}, {"time": 70802, "pitch": 62, "duration": 699, "velocity": 105}, {"time": 71042, "pitch": 55, "duration": 459, "velocity": 110}, {"time": 71281, "pitch": 50, "duration": 220, "velocity": 100}, {"time": 71521, "pitch": 47, "duration": 1899, "velocity": 110}, {"time": 71761, "pitch": 54, "duration": 1439, "velocity": 105}, {"time": 72001, "pitch": 62, "duration": 719, "velocity": 110}, {"time": 72241, "pitch": 59, "duration": 719, "velocity": 100}, {"time": 72481, "pitch": 66, "duration": 939, "velocity": 110}, {"time": 72720, "pitch": 62, "duration": 700, "velocity": 105}, {"time": 72960, "pitch": 59, "duration": 460, "velocity": 110}, {"time": 73200, "pitch": 54, "duration": 220, "velocity": 100}, {"time": 73440, "pitch": 40, "duration": 1898, "velocity": 110}, {"time": 73680, "pitch": 47, "duration": 1658, "velocity": 105}, {"time": 73919, "pitch": 62, "duration": 720, "velocity": 110}, {"time": 74159, "pitch": 55, "duration": 720, "velocity": 100}, {"time": 74399, "pitch": 64, "duration": 939, "velocity": 110}, {"time": 74639, "pitch": 62, "duration": 480, "velocity": 105}, {"time": 74879, "pitch": 55, "duration": 459, "velocity": 110}, {"time": 75119, "pitch": 62, "duration": 219, "velocity": 100}, {"time": 75358, "pitch": 45, "duration": 1899, "velocity": 110}, {"time": 75598, "pitch": 52, "duration": 480, "velocity": 105}, {"time": 75838, "pitch": 55, "duration": 720, "velocity": 110}, {"time": 76078, "pitch": 52, "duration": 1179, "velocity": 100}, {"time": 76318, "pitch": 60, "duration": 479, "velocity": 110}, {"time": 76558, "pitch": 55, "duration": 699, "velocity": 105}, {"time": 76797, "pitch": 64, "duration": 460, "velocity": 110}, {"time": 77037, "pitch": 60, "duration": 220, "velocity": 100}, {"time": 77277, "pitch": 50, "duration": 1905, "velocity": 110}, {"time": 77520, "pitch": 54, "duration": 1662, "velocity": 105}, {"time": 77763, "pitch": 60, "duration": 719, "velocity": 110}, {"time": 78003, "pitch": 57, "duration": 719, "velocity": 100}, {"time": 78242, "pitch": 66, "duration": 940, "velocity": 110}, {"time": 78482, "pitch": 60, "duration": 480, "velocity": 105}, {"time": 78722, "pitch": 57, "duration": 460, "velocity": 110}, {"time": 78962, "pitch": 60, "duration": 220, "velocity": 100}, {"time": 79202, "pitch": 47, "duration": 1898, "velocity": 110}, {"time": 79441, "pitch": 54, "duration": 1439, "velocity": 105}, {"time": 79681, "pitch": 62, "duration": 720, "velocity": 110}, {"time": 79921, "pitch": 57, "duration": 720, "velocity": 100}, {"time": 80161, "pitch": 66, "duration": 939, "velocity": 110}, {"time": 80401, "pitch": 62, "duration": 699, "velocity": 105}, {"time": 80641, "pitch": 57, "duration": 459, "velocity": 110}, {"time": 80880, "pitch": 54, "duration": 220, "velocity": 100}, {"time": 81120, "pitch": 40, "duration": 1899, "velocity": 110}, {"time": 81360, "pitch": 47, "duration": 1659, "velocity": 105}, {"time": 81600, "pitch": 62, "duration": 719, "velocity": 110}, {"time": 81840, "pitch": 55, "duration": 719, "velocity": 100}, {"time": 82080, "pitch": 64, "duration": 939, "velocity": 110}, {"time": 82319, "pitch": 62, "duration": 480, "velocity": 105}, {"time": 82559, "pitch": 55, "duration": 460, "velocity": 110}, {"time": 82799, "pitch": 62, "duration": 220, "velocity": 100}, {"time": 83039, "pitch": 45, "duration": 939, "velocity": 110}, {"time": 83279, "pitch": 52, "duration": 699, "velocity": 105}, {"time": 83518, "pitch": 60, "duration": 460, "velocity": 110}, {"time": 83758, "pitch": 55, "duration": 220, "velocity": 100}, {"time": 83998, "pitch": 47, "duration": 939, "velocity": 110}, {"time": 84238, "pitch": 54, "duration": 699, "velocity": 105}, {"time": 84478, "pitch": 62, "duration": 459, "velocity": 110}, {"time": 84718, "pitch": 57, "duration": 219, "velocity": 100}, {"time": 84957, "pitch": 48, "duration": 946, "velocity": 110}, {"time": 85197, "pitch": 55, "duration": 706, "velocity": 105}, {"time": 85437, "pitch": 60, "duration": 243, "velocity": 95}, {"time": 85447, "pitch": 63, "duration": 466, "velocity": 110}, {"time": 85680, "pitch": 60, "duration": 223, "velocity": 100}, {"time": 85923, "pitch": 50, "duration": 939, "velocity": 110}, {"time": 86163, "pitch": 57, "duration": 699, "velocity": 105}, {"time": 86402, "pitch": 60, "duration": 240, "velocity": 95}, {"time": 86412, "pitch": 64, "duration": 460, "velocity": 110}, {"time": 86642, "pitch": 60, "duration": 220, "velocity": 100}, {"time": 86882, "pitch": 50, "duration": 1899, "velocity": 100}, {"time": 86892, "pitch": 57, "duration": 1889, "velocity": 95}, {"time": 86902, "pitch": 60, "duration": 1879, "velocity": 100}, {"time": 86912, "pitch": 67, "duration": 1869, "velocity": 110}, {"time": 88801, "pitch": 43, "duration": 939, "velocity": 110}, {"time": 89041, "pitch": 50, "duration": 699, "velocity": 105}, {"time": 89280, "pitch": 62, "duration": 460, "velocity": 110}, {"time": 89520, "pitch": 55, "duration": 220, "velocity": 100}, {"time": 89760, "pitch": 45, "duration": 939, "velocity": 110}, {"time": 90000, "pitch": 52, "duration": 699, "velocity": 105}, {"time": 90240, "pitch": 64, "duration": 459, "velocity": 110}, {"time": 90479, "pitch": 60, "duration": 220, "velocity": 100}, {"time": 90719, "pitch": 47, "duration": 700, "velocity": 110}, {"time": 90959, "pitch": 54, "duration": 460, "velocity": 105}, {"time": 91199, "pitch": 66, "duration": 220, "velocity": 110}, {"time": 91439, "pitch": 40, "duration": 1179, "velocity": 110}, {"time": 91439, "pitch": 55, "duration": 959, "velocity": 105}, {"time": 91439, "pitch": 64, "duration": 479, "velocity": 110}, {"time": 91918, "pitch": 64, "duration": 700, "velocity": 105}, {"time": 92158, "pitch": 62, "duration": 460, "velocity": 110}, {"time": 92398, "pitch": 55, "duration": 220, "velocity": 100}, {"time": 92638, "pitch": 45, "duration": 939, "velocity": 110}, {"time": 92878, "pitch": 52, "duration": 699, "velocity": 105}, {"time": 93118, "pitch": 64, "duration": 459, "velocity": 110}, {"time": 93357, "pitch": 60, "duration": 220, "velocity": 100}, {"time": 93597, "pitch": 50, "duration": 946, "velocity": 110}, {"time": 93840, "pitch": 55, "duration": 703, "velocity": 105}, {"time": 94083, "pitch": 64, "duration": 460, "velocity": 110}, {"time": 94323, "pitch": 60, "duration": 220, "velocity": 100}, {"time": 94563, "pitch": 43, "duration": 1898, "velocity": 110}, {"time": 94802, "pitch": 50, "duration": 1439, "velocity": 105}, {"time": 95042, "pitch": 62, "duration": 720, "velocity": 110}, {"time": 95282, "pitch": 55, "duration": 719, "velocity": 100}, {"time": 95522, "pitch": 64, "duration": 939, "velocity": 110}, {"time": 95762, "pitch": 62, "duration": 699, "velocity": 105}, {"time": 96001, "pitch": 55, "duration": 460, "velocity": 110}, {"time": 96241, "pitch": 50, "duration": 220, "velocity": 100}, {"time": 96481, "pitch": 43, "duration": 939, "velocity": 110}, {"time": 96721, "pitch": 50, "duration": 699, "velocity": 105}, {"time": 96961, "pitch": 62, "duration": 459, "velocity": 110}, {"time": 97201, "pitch": 55, "duration": 219, "velocity": 100}, {"time": 97440, "pitch": 45, "duration": 940, "velocity": 110}, {"time": 97680, "pitch": 52, "duration": 700, "velocity": 105}, {"time": 97920, "pitch": 64, "duration": 460, "velocity": 110}, {"time": 98160, "pitch": 60, "duration": 220, "velocity": 100}, {"time": 98400, "pitch": 47, "duration": 699, "velocity": 110}, {"time": 98640, "pitch": 54, "duration": 459, "velocity": 105}, {"time": 98879, "pitch": 66, "duration": 220, "velocity": 110}, {"time": 99119, "pitch": 40, "duration": 1179, "velocity": 110}, {"time": 99119, "pitch": 55, "duration": 960, "velocity": 105}, {"time": 99119, "pitch": 64, "duration": 480, "velocity": 110}, {"time": 99599, "pitch": 64, "duration": 699, "velocity": 105}, {"time": 99839, "pitch": 62, "duration": 459, "velocity": 110}, {"time": 100079, "pitch": 55, "duration": 219, "velocity": 100}, {"time": 100318, "pitch": 45, "duration": 940, "velocity": 110}, {"time": 100558, "pitch": 52, "duration": 700, "velocity": 105}, {"time": 100798, "pitch": 64, "duration": 460, "velocity": 110}, {"time": 101038, "pitch": 60, "duration": 220, "velocity": 100}, {"time": 101278, "pitch": 50, "duration": 945, "velocity": 110}, {"time": 101517, "pitch": 55, "duration": 706, "velocity": 105}, {"time": 101757, "pitch": 64, "duration": 466, "velocity": 110}, {"time": 102000, "pitch": 60, "duration": 223, "velocity": 100}, {"time": 102243, "pitch": 43, "duration": 1899, "velocity": 110}, {"time": 102483, "pitch": 50, "duration": 1439, "velocity": 105}, {"time": 102723, "pitch": 62, "duration": 719, "velocity": 110}, {"time": 102962, "pitch": 55, "duration": 720, "velocity": 100}, {"time": 103202, "pitch": 64, "duration": 940, "velocity": 110}, {"time": 103442, "pitch": 62, "duration": 700, "velocity": 105}, {"time": 103682, "pitch": 55, "duration": 460, "velocity": 110}, {"time": 103922, "pitch": 50, "duration": 220, "velocity": 100}, {"time": 104162, "pitch": 43, "duration": 939, "velocity": 110}, {"time": 104401, "pitch": 50, "duration": 700, "velocity": 105}, {"time": 104641, "pitch": 62, "duration": 460, "velocity": 110}, {"time": 104881, "pitch": 55, "duration": 220, "velocity": 100}, {"time": 105121, "pitch": 45, "duration": 939, "velocity": 110}, {"time": 105361, "pitch": 52, "duration": 699, "velocity": 105}, {"time": 105601, "pitch": 64, "duration": 459, "velocity": 110}, {"time": 105840, "pitch": 60, "duration": 220, "velocity": 100}, {"time": 106080, "pitch": 47, "duration": 939, "velocity": 110}, {"time": 106320, "pitch": 54, "duration": 699, "velocity": 105}, {"time": 106560, "pitch": 66, "duration": 459, "velocity": 110}, {"time": 106800, "pitch": 62, "duration": 219, "velocity": 100}, {"time": 107039, "pitch": 46, "duration": 940, "velocity": 110}, {"time": 107279, "pitch": 53, "duration": 700, "velocity": 105}, {"time": 107519, "pitch": 65, "duration": 460, "velocity": 110}, {"time": 107759, "pitch": 61, "duration": 220, "velocity": 100}, {"time": 107999, "pitch": 45, "duration": 939, "velocity": 110}, {"time": 108239, "pitch": 52, "duration": 699, "velocity": 105}, {"time": 108478, "pitch": 64, "duration": 460, "velocity": 110}, {"time": 108718, "pitch": 60, "duration": 220, "velocity": 100}, {"time": 108958, "pitch": 50, "duration": 939, "velocity": 110}, {"time": 109198, "pitch": 57, "duration": 699, "velocity": 105}, {"time": 109438, "pitch": 66, "duration": 459, "velocity": 110}, {"time": 109678, "pitch": 62, "duration": 219, "velocity": 100}, {"time": 109917, "pitch": 43, "duration": 1905, "velocity": 110}, {"time": 110157, "pitch": 50, "duration": 1445, "velocity": 105}, {"time": 110397, "pitch": 62, "duration": 726, "velocity": 110}, {"time": 110640, "pitch": 55, "duration": 722, "velocity": 100}, {"time": 110883, "pitch": 64, "duration": 939, "velocity": 110}, {"time": 111123, "pitch": 62, "duration": 699, "velocity": 105}, {"time": 111362, "pitch": 55, "duration": 460, "velocity": 110}, {"time": 111602, "pitch": 50, "duration": 220, "velocity": 100}, {"time": 111842, "pitch": 43, "duration": 939, "velocity": 110}, {"time": 112082, "pitch": 50, "duration": 699, "velocity": 105}, {"time": 112322, "pitch": 62, "duration": 459, "velocity": 110}, {"time": 112562, "pitch": 55, "duration": 219, "velocity": 100}, {"time": 112801, "pitch": 45, "duration": 940, "velocity": 110}, {"time": 113041, "pitch": 52, "duration": 700, "velocity": 105}, {"time": 113281, "pitch": 64, "duration": 460, "velocity": 110}, {"time": 113521, "pitch": 60, "duration": 220, "velocity": 100}, {"time": 113761, "pitch": 47, "duration": 939, "velocity": 110}, {"time": 114000, "pitch": 54, "duration": 700, "velocity": 105}, {"time": 114240, "pitch": 66, "duration": 460, "velocity": 110}, {"time": 114480, "pitch": 62, "duration": 220, "velocity": 100}, {"time": 114720, "pitch": 46, "duration": 939, "velocity": 110}, {"time": 114960, "pitch": 53, "duration": 699, "velocity": 105}, {"time": 115200, "pitch": 65, "duration": 459, "velocity": 110}, {"time": 115439, "pitch": 61, "duration": 220, "velocity": 100}, {"time": 115679, "pitch": 45, "duration": 940, "velocity": 110}, {"time": 115919, "pitch": 52, "duration": 700, "velocity": 105}, {"time": 116159, "pitch": 64, "duration": 460, "velocity": 110}, {"time": 116399, "pitch": 60, "duration": 220, "velocity": 100}, {"time": 116639, "pitch": 50, "duration": 939, "velocity": 110}, {"time": 116878, "pitch": 57, "duration": 700, "velocity": 105}, {"time": 117118, "pitch": 66, "duration": 460, "velocity": 110}, {"time": 117358, "pitch": 62, "duration": 220, "velocity": 100}, {"time": 117598, "pitch": 43, "duration": 1905, "velocity": 110}, {"time": 117838, "pitch": 50, "duration": 1445, "velocity": 105}, {"time": 118077, "pitch": 62, "duration": 723, "velocity": 110}, {"time": 118317, "pitch": 55, "duration": 726, "velocity": 100}, {"time": 118557, "pitch": 64, "duration": 946, "velocity": 110}, {"time": 118800, "pitch": 62, "duration": 703, "velocity": 105}, {"time": 119043, "pitch": 55, "duration": 460, "velocity": 110}, {"time": 119283, "pitch": 50, "duration": 220, "velocity": 100}, {"time": 119522, "pitch": 47, "duration": 1899, "velocity": 110}, {"time": 119762, "pitch": 54, "duration": 1439, "velocity": 105}, {"time": 120002, "pitch": 62, "duration": 720, "velocity": 110}, {"time": 120242, "pitch": 59, "duration": 719, "velocity": 100}, {"time": 120482, "pitch": 66, "duration": 939, "velocity": 110}, {"time": 120722, "pitch": 62, "duration": 699, "velocity": 105}, {"time": 120961, "pitch": 59, "duration": 460, "velocity": 110}, {"time": 121201, "pitch": 54, "duration": 220, "velocity": 100}, {"time": 121441, "pitch": 40, "duration": 1899, "velocity": 110}, {"time": 121681, "pitch": 47, "duration": 1659, "velocity": 105}, {"time": 121921, "pitch": 62, "duration": 719, "velocity": 110}, {"time": 122161, "pitch": 55, "duration": 719, "velocity": 100}, {"time": 122400, "pitch": 64, "duration": 940, "velocity": 110}, {"time": 122640, "pitch": 62, "duration": 480, "velocity": 105}, {"time": 122880, "pitch": 55, "duration": 460, "velocity": 110}, {"time": 123120, "pitch": 62, "duration": 220, "velocity": 100}, {"time": 123360, "pitch": 45, "duration": 1898, "velocity": 110}, {"time": 123599, "pitch": 52, "duration": 480, "velocity": 105}, {"time": 123839, "pitch": 55, "duration": 720, "velocity": 110}, {"time": 124079, "pitch": 52, "duration": 1179, "velocity": 100}, {"time": 124319, "pitch": 60, "duration": 480, "velocity": 110}, {"time": 124559, "pitch": 55, "duration": 699, "velocity": 105}, {"time": 124799, "pitch": 64, "duration": 459, "velocity": 110}, {"time": 125038, "pitch": 60, "duration": 220, "velocity": 100}, {"time": 125278, "pitch": 50, "duration": 1905, "velocity": 110}, {"time": 125518, "pitch": 54, "duration": 1665, "velocity": 105}, {"time": 125758, "pitch": 60, "duration": 719, "velocity": 110}, {"time": 125998, "pitch": 57, "duration": 719, "velocity": 100}, {"time": 126238, "pitch": 66, "duration": 945, "velocity": 110}, {"time": 126477, "pitch": 60, "duration": 483, "velocity": 105}, {"time": 126717, "pitch": 57, "duration": 466, "velocity": 110}, {"time": 126960, "pitch": 60, "duration": 223, "velocity": 100}, {"time": 127203, "pitch": 47, "duration": 1899, "velocity": 110}, {"time": 127443, "pitch": 54, "duration": 1439, "velocity": 105}, {"time": 127683, "pitch": 62, "duration": 719, "velocity": 110}, {"time": 127922, "pitch": 57, "duration": 720, "velocity": 100}, {"time": 128162, "pitch": 66, "duration": 940, "velocity": 110}, {"time": 128402, "pitch": 62, "duration": 700, "velocity": 105}, {"time": 128642, "pitch": 57, "duration": 460, "velocity": 110}, {"time": 128882, "pitch": 54, "duration": 220, "velocity": 100}, {"time": 129122, "pitch": 40, "duration": 1898, "velocity": 110}, {"time": 129361, "pitch": 47, "duration": 1659, "velocity": 105}, {"time": 129601, "pitch": 62, "duration": 720, "velocity": 110}, {"time": 129841, "pitch": 55, "duration": 719, "velocity": 100}, {"time": 130081, "pitch": 64, "duration": 939, "velocity": 110}, {"time": 130321, "pitch": 62, "duration": 479, "velocity": 105}, {"time": 130560, "pitch": 55, "duration": 460, "velocity": 110}, {"time": 130800, "pitch": 62, "duration": 220, "velocity": 100}, {"time": 131040, "pitch": 45, "duration": 939, "velocity": 110}, {"time": 131280, "pitch": 52, "duration": 699, "velocity": 105}, {"time": 131520, "pitch": 60, "duration": 459, "velocity": 110}, {"time": 131760, "pitch": 55, "duration": 219, "velocity": 100}, {"time": 131999, "pitch": 47, "duration": 940, "velocity": 110}, {"time": 132239, "pitch": 54, "duration": 700, "velocity": 105}, {"time": 132479, "pitch": 62, "duration": 460, "velocity": 110}, {"time": 132719, "pitch": 57, "duration": 220, "velocity": 100}, {"time": 132959, "pitch": 48, "duration": 939, "velocity": 110}, {"time": 133199, "pitch": 55, "duration": 699, "velocity": 105}, {"time": 133438, "pitch": 60, "duration": 240, "velocity": 95}, {"time": 133448, "pitch": 63, "duration": 460, "velocity": 110}, {"time": 133678, "pitch": 60, "duration": 220, "velocity": 100}, {"time": 133918, "pitch": 50, "duration": 939, "velocity": 110}, {"time": 134158, "pitch": 57, "duration": 699, "velocity": 105}, {"time": 134398, "pitch": 60, "duration": 239, "velocity": 95}, {"time": 134408, "pitch": 64, "duration": 459, "velocity": 110}, {"time": 134637, "pitch": 60, "duration": 220, "velocity": 100}, {"time": 134877, "pitch": 50, "duration": 1905, "velocity": 100}, {"time": 134887, "pitch": 57, "duration": 1895, "velocity": 95}, {"time": 134898, "pitch": 60, "duration": 1884, "velocity": 100}, {"time": 134908, "pitch": 67, "duration": 1874, "velocity": 110}, {"time": 136802, "pitch": 43, "duration": 939, "velocity": 110}, {"time": 137042, "pitch": 50, "duration": 699, "velocity": 105}, {"time": 137282, "pitch": 62, "duration": 459, "velocity": 110}, {"time": 137521, "pitch": 55, "duration": 220, "velocity": 100}, {"time": 137761, "pitch": 45, "duration": 940, "velocity": 110}, {"time": 138001, "pitch": 52, "duration": 700, "velocity": 105}, {"time": 138241, "pitch": 64, "duration": 460, "velocity": 110}, {"time": 138481, "pitch": 60, "duration": 220, "velocity": 100}, {"time": 138721, "pitch": 47, "duration": 699, "velocity": 110}, {"time": 138960, "pitch": 54, "duration": 460, "velocity": 105}, {"time": 139200, "pitch": 66, "duration": 220, "velocity": 110}, {"time": 139440, "pitch": 40, "duration": 1179, "velocity": 110}, {"time": 139440, "pitch": 55, "duration": 959, "velocity": 105}, {"time": 139440, "pitch": 64, "duration": 480, "velocity": 110}, {"time": 139920, "pitch": 64, "duration": 699, "velocity": 105}, {"time": 140160, "pitch": 62, "duration": 459, "velocity": 110}, {"time": 140399, "pitch": 55, "duration": 220, "velocity": 100}, {"time": 140639, "pitch": 45, "duration": 939, "velocity": 110}, {"time": 140879, "pitch": 52, "duration": 699, "velocity": 105}, {"time": 141119, "pitch": 64, "duration": 459, "velocity": 110}, {"time": 141359, "pitch": 60, "duration": 219, "velocity": 100}, {"time": 141598, "pitch": 50, "duration": 940, "velocity": 110}, {"time": 141838, "pitch": 55, "duration": 700, "velocity": 105}, {"time": 142078, "pitch": 64, "duration": 460, "velocity": 110}, {"time": 142318, "pitch": 60, "duration": 220, "velocity": 100}, {"time": 142558, "pitch": 43, "duration": 1904, "velocity": 110}, {"time": 142798, "pitch": 50, "duration": 1445, "velocity": 105}, {"time": 143037, "pitch": 62, "duration": 723, "velocity": 110}, {"time": 143277, "pitch": 55, "duration": 726, "velocity": 100}, {"time": 143517, "pitch": 64, "duration": 945, "velocity": 110}, {"time": 143760, "pitch": 62, "duration": 702, "velocity": 105}, {"time": 144003, "pitch": 55, "duration": 459, "velocity": 110}, {"time": 144243, "pitch": 50, "duration": 219, "velocity": 100}, {"time": 144482, "pitch": 43, "duration": 940, "velocity": 110}, {"time": 144722, "pitch": 50, "duration": 700, "velocity": 105}, {"time": 144962, "pitch": 62, "duration": 460, "velocity": 110}, {"time": 145202, "pitch": 55, "duration": 220, "velocity": 100}, {"time": 145442, "pitch": 45, "duration": 939, "velocity": 110}, {"time": 145682, "pitch": 52, "duration": 699, "velocity": 105}, {"time": 145921, "pitch": 64, "duration": 460, "velocity": 110}, {"time": 146161, "pitch": 60, "duration": 220, "velocity": 100}, {"time": 146401, "pitch": 47, "duration": 700, "velocity": 110}, {"time": 146641, "pitch": 54, "duration": 460, "velocity": 105}, {"time": 146881, "pitch": 66, "duration": 220, "velocity": 110}, {"time": 147120, "pitch": 40, "duration": 1180, "velocity": 110}, {"time": 147120, "pitch": 55, "duration": 960, "velocity": 105}, {"time": 147120, "pitch": 64, "duration": 480, "velocity": 110}, {"time": 147600, "pitch": 64, "duration": 700, "velocity": 105}, {"time": 147840, "pitch": 62, "duration": 460, "velocity": 110}, {"time": 148080, "pitch": 55, "duration": 220, "velocity": 100}, {"time": 148320, "pitch": 45, "duration": 939, "velocity": 110}, {"time": 148559, "pitch": 52, "duration": 700, "velocity": 105}, {"time": 148799, "pitch": 64, "duration": 460, "velocity": 110}, {"time": 149039, "pitch": 60, "duration": 220, "velocity": 100}, {"time": 149279, "pitch": 50, "duration": 939, "velocity": 110}, {"time": 149519, "pitch": 55, "duration": 699, "velocity": 105}, {"time": 149759, "pitch": 64, "duration": 459, "velocity": 110}, {"time": 149998, "pitch": 60, "duration": 220, "velocity": 100}, {"time": 150238, "pitch": 43, "duration": 1905, "velocity": 110}, {"time": 150478, "pitch": 50, "duration": 1442, "velocity": 105}, {"time": 150718, "pitch": 62, "duration": 719, "velocity": 110}, {"time": 150958, "pitch": 55, "duration": 719, "velocity": 100}, {"time": 151197, "pitch": 64, "duration": 946, "velocity": 110}, {"time": 151437, "pitch": 62, "duration": 706, "velocity": 105}, {"time": 151677, "pitch": 55, "duration": 466, "velocity": 110}, {"time": 151920, "pitch": 50, "duration": 223, "velocity": 100}, {"time": 152163, "pitch": 43, "duration": 1898, "velocity": 110}, {"time": 152183, "pitch": 50, "duration": 1878, "velocity": 100}, {"time": 152203, "pitch": 55, "duration": 1858, "velocity": 95}, {"time": 152223, "pitch": 59, "duration": 1838, "velocity": 100}, {"time": 152243, "pitch": 64, "duration": 1818, "velocity": 105}, {"time": 152263, "pitch": 67, "duration": 1798, "velocity": 110}, {"time": 479, "pitch": 43, "duration": 939, "velocity": 110}, {"time": 718, "pitch": 50, "duration": 700, "velocity": 105}, {"time": 958, "pitch": 62, "duration": 460, "velocity": 110}, {"time": 1198, "pitch": 55, "duration": 220, "velocity": 100}, {"time": 1438, "pitch": 45, "duration": 939, "velocity": 110}, {"time": 1678, "pitch": 52, "duration": 699, "velocity": 105}, {"time": 1918, "pitch": 64, "duration": 459, "velocity": 110}, {"time": 2157, "pitch": 60, "duration": 220, "velocity": 100}, {"time": 2397, "pitch": 47, "duration": 706, "velocity": 110}, {"time": 2640, "pitch": 54, "duration": 463, "velocity": 105}, {"time": 2883, "pitch": 66, "duration": 220, "velocity": 110}, {"time": 3123, "pitch": 40, "duration": 1179, "velocity": 110}, {"time": 3123, "pitch": 55, "duration": 959, "velocity": 105}, {"time": 3123, "pitch": 64, "duration": 479, "velocity": 110}, {"time": 3602, "pitch": 64, "duration": 700, "velocity": 105}, {"time": 3842, "pitch": 62, "duration": 460, "velocity": 110}, {"time": 4082, "pitch": 55, "duration": 220, "velocity": 100}, {"time": 4322, "pitch": 45, "duration": 939, "velocity": 110}, {"time": 4562, "pitch": 52, "duration": 699, "velocity": 105}, {"time": 4802, "pitch": 64, "duration": 459, "velocity": 110}, {"time": 5041, "pitch": 60, "duration": 220, "velocity": 100}, {"time": 5281, "pitch": 50, "duration": 939, "velocity": 110}, {"time": 5521, "pitch": 55, "duration": 699, "velocity": 105}, {"time": 5761, "pitch": 64, "duration": 459, "velocity": 110}, {"time": 6001, "pitch": 60, "duration": 219, "velocity": 100}, {"time": 6240, "pitch": 43, "duration": 1899, "velocity": 110}, {"time": 6480, "pitch": 50, "duration": 1439, "velocity": 105}, {"time": 6720, "pitch": 62, "duration": 720, "velocity": 110}, {"time": 6960, "pitch": 55, "duration": 719, "velocity": 100}, {"time": 7200, "pitch": 64, "duration": 939, "velocity": 110}, {"time": 7440, "pitch": 62, "duration": 699, "velocity": 105}, {"time": 7679, "pitch": 55, "duration": 460, "velocity": 110}, {"time": 7919, "pitch": 50, "duration": 220, "velocity": 100}, {"time": 8159, "pitch": 43, "duration": 939, "velocity": 110}, {"time": 8399, "pitch": 50, "duration": 699, "velocity": 105}, {"time": 8639, "pitch": 62, "duration": 459, "velocity": 110}, {"time": 8879, "pitch": 55, "duration": 219, "velocity": 100}, {"time": 9118, "pitch": 45, "duration": 940, "velocity": 110}, {"time": 9358, "pitch": 52, "duration": 700, "velocity": 105}, {"time": 9598, "pitch": 64, "duration": 460, "velocity": 110}, {"time": 9838, "pitch": 60, "duration": 220, "velocity": 100}, {"time": 10078, "pitch": 47, "duration": 945, "velocity": 110}, {"time": 10317, "pitch": 54, "duration": 706, "velocity": 105}, {"time": 10557, "pitch": 66, "duration": 466, "velocity": 110}, {"time": 10800, "pitch": 62, "duration": 223, "velocity": 100}, {"time": 11043, "pitch": 46, "duration": 939, "velocity": 110}, {"time": 11283, "pitch": 53, "duration": 699, "velocity": 105}, {"time": 11523, "pitch": 65, "duration": 459, "velocity": 110}, {"time": 11762, "pitch": 61, "duration": 220, "velocity": 100}, {"time": 12002, "pitch": 45, "duration": 940, "velocity": 110}, {"time": 12242, "pitch": 52, "duration": 700, "velocity": 105}, {"time": 12482, "pitch": 64, "duration": 460, "velocity": 110}, {"time": 12722, "pitch": 60, "duration": 220, "velocity": 100}, {"time": 12962, "pitch": 50, "duration": 939, "velocity": 110}, {"time": 13201, "pitch": 57, "duration": 700, "velocity": 105}, {"time": 13441, "pitch": 66, "duration": 460, "velocity": 110}, {"time": 13681, "pitch": 62, "duration": 220, "velocity": 100}, {"time": 13921, "pitch": 43, "duration": 1899, "velocity": 110}, {"time": 14161, "pitch": 50, "duration": 1439, "velocity": 105}, {"time": 14401, "pitch": 62, "duration": 719, "velocity": 110}, {"time": 14640, "pitch": 55, "duration": 720, "velocity": 100}, {"time": 14880, "pitch": 64, "duration": 940, "velocity": 110}, {"time": 15120, "pitch": 62, "duration": 700, "velocity": 105}, {"time": 15360, "pitch": 55, "duration": 460, "velocity": 110}, {"time": 15600, "pitch": 50, "duration": 220, "velocity": 100}, {"time": 15839, "pitch": 43, "duration": 940, "velocity": 110}, {"time": 16079, "pitch": 50, "duration": 700, "velocity": 105}, {"time": 16319, "pitch": 62, "duration": 460, "velocity": 110}, {"time": 16559, "pitch": 55, "duration": 220, "velocity": 100}, {"time": 16799, "pitch": 45, "duration": 939, "velocity": 110}, {"time": 17039, "pitch": 52, "duration": 699, "velocity": 105}, {"time": 17278, "pitch": 64, "duration": 460, "velocity": 110}, {"time": 17518, "pitch": 60, "duration": 220, "velocity": 100}, {"time": 17758, "pitch": 47, "duration": 939, "velocity": 110}, {"time": 17998, "pitch": 54, "duration": 699, "velocity": 105}, {"time": 18238, "pitch": 66, "duration": 459, "velocity": 110}, {"time": 18478, "pitch": 62, "duration": 219, "velocity": 100}, {"time": 18717, "pitch": 46, "duration": 946, "velocity": 110}, {"time": 18957, "pitch": 53, "duration": 706, "velocity": 105}, {"time": 19197, "pitch": 65, "duration": 466, "velocity": 110}, {"time": 19440, "pitch": 61, "duration": 223, "velocity": 100}, {"time": 19683, "pitch": 45, "duration": 939, "velocity": 110}, {"time": 19923, "pitch": 52, "duration": 699, "velocity": 105}, {"time": 20162, "pitch": 64, "duration": 460, "velocity": 110}, {"time": 20402, "pitch": 60, "duration": 220, "velocity": 100}, {"time": 20642, "pitch": 50, "duration": 939, "velocity": 110}, {"time": 20882, "pitch": 57, "duration": 699, "velocity": 105}, {"time": 21122, "pitch": 66, "duration": 459, "velocity": 110}, {"time": 21362, "pitch": 62, "duration": 219, "velocity": 100}, {"time": 21601, "pitch": 43, "duration": 1899, "velocity": 110}, {"time": 21841, "pitch": 50, "duration": 1439, "velocity": 105}, {"time": 22081, "pitch": 62, "duration": 719, "velocity": 110}, {"time": 22321, "pitch": 55, "duration": 719, "velocity": 100}, {"time": 22561, "pitch": 64, "duration": 939, "velocity": 110}, {"time": 22800, "pitch": 62, "duration": 700, "velocity": 105}, {"time": 23040, "pitch": 55, "duration": 460, "velocity": 110}, {"time": 23280, "pitch": 50, "duration": 220, "velocity": 100}, {"time": 23520, "pitch": 47, "duration": 1899, "velocity": 110}, {"time": 23760, "pitch": 54, "duration": 1439, "velocity": 105}, {"time": 24000, "pitch": 62, "duration": 719, "velocity": 110}, {"time": 24239, "pitch": 59, "duration": 720, "velocity": 100}, {"time": 24479, "pitch": 66, "duration": 940, "velocity": 110}, {"time": 24719, "pitch": 62, "duration": 700, "velocity": 105}, {"time": 24959, "pitch": 59, "duration": 460, "velocity": 110}, {"time": 25199, "pitch": 54, "duration": 220, "velocity": 100}, {"time": 25439, "pitch": 40, "duration": 1898, "velocity": 110}, {"time": 25678, "pitch": 47, "duration": 1659, "velocity": 105}, {"time": 25918, "pitch": 62, "duration": 720, "velocity": 110}, {"time": 26158, "pitch": 55, "duration": 719, "velocity": 100}, {"time": 26398, "pitch": 64, "duration": 939, "velocity": 110}, {"time": 26638, "pitch": 62, "duration": 479, "velocity": 105}, {"time": 26877, "pitch": 55, "duration": 460, "velocity": 110}, {"time": 27117, "pitch": 62, "duration": 220, "velocity": 100}, {"time": 27357, "pitch": 45, "duration": 1905, "velocity": 110}, {"time": 27600, "pitch": 52, "duration": 483, "velocity": 105}, {"time": 27843, "pitch": 55, "duration": 719, "velocity": 110}, {"time": 28083, "pitch": 52, "duration": 1179, "velocity": 100}, {"time": 28322, "pitch": 60, "duration": 480, "velocity": 110}, {"time": 28562, "pitch": 55, "duration": 700, "velocity": 105}, {"time": 28802, "pitch": 64, "duration": 460, "velocity": 110}, {"time": 29042, "pitch": 60, "duration": 220, "velocity": 100}, {"time": 29282, "pitch": 50, "duration": 1898, "velocity": 110}, {"time": 29522, "pitch": 54, "duration": 1658, "velocity": 105}, {"time": 29761, "pitch": 60, "duration": 720, "velocity": 110}, {"time": 30001, "pitch": 57, "duration": 720, "velocity": 100}, {"time": 30241, "pitch": 66, "duration": 939, "velocity": 110}, {"time": 30481, "pitch": 60, "duration": 480, "velocity": 105}, {"time": 30721, "pitch": 57, "duration": 459, "velocity": 110}, {"time": 30961, "pitch": 60, "duration": 219, "velocity": 100}, {"time": 31200, "pitch": 47, "duration": 1899, "velocity": 110}, {"time": 31440, "pitch": 54, "duration": 1439, "velocity": 105}, {"time": 31680, "pitch": 62, "duration": 720, "velocity": 110}, {"time": 31920, "pitch": 57, "duration": 719, "velocity": 100}, {"time": 32160, "pitch": 66, "duration": 939, "velocity": 110}, {"time": 32400, "pitch": 62, "duration": 699, "velocity": 105}, {"time": 32639, "pitch": 57, "duration": 460, "velocity": 110}, {"time": 32879, "pitch": 54, "duration": 220, "velocity": 100}, {"time": 33119, "pitch": 40, "duration": 1899, "velocity": 110}, {"time": 33359, "pitch": 47, "duration": 1659, "velocity": 105}, {"time": 33599, "pitch": 62, "duration": 719, "velocity": 110}, {"time": 33838, "pitch": 55, "duration": 720, "velocity": 100}, {"time": 34078, "pitch": 64, "duration": 940, "velocity": 110}, {"time": 34318, "pitch": 62, "duration": 480, "velocity": 105}, {"time": 34558, "pitch": 55, "duration": 460, "velocity": 110}, {"time": 34798, "pitch": 62, "duration": 220, "velocity": 100}, {"time": 35038, "pitch": 45, "duration": 945, "velocity": 110}, {"time": 35277, "pitch": 52, "duration": 706, "velocity": 105}, {"time": 35517, "pitch": 60, "duration": 466, "velocity": 110}, {"time": 35760, "pitch": 55, "duration": 223, "velocity": 100}, {"time": 36003, "pitch": 47, "duration": 939, "velocity": 110}, {"time": 36243, "pitch": 54, "duration": 699, "velocity": 105}, {"time": 36483, "pitch": 62, "duration": 459, "velocity": 110}, {"time": 36722, "pitch": 57, "duration": 220, "velocity": 100}, {"time": 36962, "pitch": 48, "duration": 940, "velocity": 110}, {"time": 37202, "pitch": 55, "duration": 700, "velocity": 105}, {"time": 37442, "pitch": 60, "duration": 240, "velocity": 95}, {"time": 37452, "pitch": 63, "duration": 460, "velocity": 110}, {"time": 37682, "pitch": 60, "duration": 220, "velocity": 100}, {"time": 37922, "pitch": 50, "duration": 939, "velocity": 110}, {"time": 38161, "pitch": 57, "duration": 700, "velocity": 105}, {"time": 38401, "pitch": 60, "duration": 240, "velocity": 95}, {"time": 38411, "pitch": 64, "duration": 460, "velocity": 110}, {"time": 38641, "pitch": 60, "duration": 220, "velocity": 100}, {"time": 38881, "pitch": 50, "duration": 1898, "velocity": 100}, {"time": 38891, "pitch": 57, "duration": 1888, "velocity": 95}, {"time": 38901, "pitch": 60, "duration": 1878, "velocity": 100}, {"time": 38911, "pitch": 67, "duration": 1868, "velocity": 110}, {"time": 40799, "pitch": 43, "duration": 940, "velocity": 110}, {"time": 41039, "pitch": 50, "duration": 700, "velocity": 105}, {"time": 41279, "pitch": 62, "duration": 460, "velocity": 110}, {"time": 41519, "pitch": 55, "duration": 220, "velocity": 100}, {"time": 41759, "pitch": 45, "duration": 939, "velocity": 110}, {"time": 41999, "pitch": 52, "duration": 699, "velocity": 105}, {"time": 42238, "pitch": 64, "duration": 460, "velocity": 110}, {"time": 42478, "pitch": 60, "duration": 220, "velocity": 100}, {"time": 42718, "pitch": 47, "duration": 700, "velocity": 110}, {"time": 42958, "pitch": 54, "duration": 460, "velocity": 105}, {"time": 43198, "pitch": 66, "duration": 220, "velocity": 110}, {"time": 43437, "pitch": 40, "duration": 1186, "velocity": 110}, {"time": 43437, "pitch": 55, "duration": 966, "velocity": 105}, {"time": 43437, "pitch": 64, "duration": 483, "velocity": 110}, {"time": 43920, "pitch": 64, "duration": 703, "velocity": 105}, {"time": 44163, "pitch": 62, "duration": 460, "velocity": 110}, {"time": 44403, "pitch": 55, "duration": 220, "velocity": 100}, {"time": 44643, "pitch": 45, "duration": 939, "velocity": 110}, {"time": 44883, "pitch": 52, "duration": 699, "velocity": 105}, {"time": 45122, "pitch": 64, "duration": 460, "velocity": 110}, {"time": 45362, "pitch": 60, "duration": 220, "velocity": 100}, {"time": 45602, "pitch": 50, "duration": 939, "velocity": 110}, {"time": 45842, "pitch": 55, "duration": 699, "velocity": 105}, {"time": 46082, "pitch": 64, "duration": 459, "velocity": 110}, {"time": 46321, "pitch": 60, "duration": 220, "velocity": 100}, {"time": 46561, "pitch": 43, "duration": 1899, "velocity": 110}, {"time": 46801, "pitch": 50, "duration": 1439, "velocity": 105}, {"time": 47041, "pitch": 62, "duration": 719, "velocity": 110}, {"time": 47281, "pitch": 55, "duration": 719, "velocity": 100}, {"time": 47521, "pitch": 64, "duration": 939, "velocity": 110}, {"time": 47760, "pitch": 62, "duration": 700, "velocity": 105}, {"time": 48000, "pitch": 55, "duration": 460, "velocity": 110}, {"time": 48240, "pitch": 50, "duration": 220, "velocity": 100}, {"time": 48480, "pitch": 43, "duration": 939, "velocity": 110}, {"time": 48720, "pitch": 50, "duration": 699, "velocity": 105}, {"time": 48960, "pitch": 62, "duration": 459, "velocity": 110}, {"time": 49199, "pitch": 55, "duration": 220, "velocity": 100}, {"time": 49439, "pitch": 45, "duration": 939, "velocity": 110}, {"time": 49679, "pitch": 52, "duration": 699, "velocity": 105}, {"time": 49919, "pitch": 64, "duration": 459, "velocity": 110}, {"time": 50159, "pitch": 60, "duration": 219, "velocity": 100}, {"time": 50398, "pitch": 47, "duration": 700, "velocity": 110}, {"time": 50638, "pitch": 54, "duration": 460, "velocity": 105}, {"time": 50878, "pitch": 66, "duration": 220, "velocity": 110}, {"time": 51118, "pitch": 40, "duration": 1179, "velocity": 110}, {"time": 51118, "pitch": 55, "duration": 959, "velocity": 105}, {"time": 51118, "pitch": 64, "duration": 480, "velocity": 110}, {"time": 51598, "pitch": 64, "duration": 699, "velocity": 105}, {"time": 51837, "pitch": 62, "duration": 460, "velocity": 110}, {"time": 52077, "pitch": 55, "duration": 220, "velocity": 100}, {"time": 52317, "pitch": 45, "duration": 945, "velocity": 110}, {"time": 52560, "pitch": 52, "duration": 702, "velocity": 105}, {"time": 52803, "pitch": 64, "duration": 459, "velocity": 110}, {"time": 53043, "pitch": 60, "duration": 219, "velocity": 100}, {"time": 53282, "pitch": 50, "duration": 940, "velocity": 110}, {"time": 53522, "pitch": 55, "duration": 700, "velocity": 105}, {"time": 53762, "pitch": 64, "duration": 460, "velocity": 110}, {"time": 54002, "pitch": 60, "duration": 220, "velocity": 100}, {"time": 54242, "pitch": 43, "duration": 1898, "velocity": 110}, {"time": 54482, "pitch": 50, "duration": 1438, "velocity": 105}, {"time": 54721, "pitch": 62, "duration": 720, "velocity": 110}, {"time": 54961, "pitch": 55, "duration": 720, "velocity": 100}, {"time": 55201, "pitch": 64, "duration": 939, "velocity": 110}, {"time": 55441, "pitch": 62, "duration": 699, "velocity": 105}, {"time": 55681, "pitch": 55, "duration": 459, "velocity": 110}, {"time": 55920, "pitch": 50, "duration": 220, "velocity": 100}, {"time": 56160, "pitch": 43, "duration": 940, "velocity": 110}, {"time": 56400, "pitch": 50, "duration": 700, "velocity": 105}, {"time": 56640, "pitch": 62, "duration": 460, "velocity": 110}, {"time": 56880, "pitch": 55, "duration": 220, "velocity": 100}, {"time": 57120, "pitch": 45, "duration": 939, "velocity": 110}, {"time": 57359, "pitch": 52, "duration": 700, "velocity": 105}, {"time": 57599, "pitch": 64, "duration": 460, "velocity": 110}, {"time": 57839, "pitch": 60, "duration": 220, "velocity": 100}, {"time": 58079, "pitch": 47, "duration": 939, "velocity": 110}, {"time": 58319, "pitch": 54, "duration": 699, "velocity": 105}, {"time": 58559, "pitch": 66, "duration": 459, "velocity": 110}, {"time": 58798, "pitch": 62, "duration": 220, "velocity": 100}, {"time": 59038, "pitch": 46, "duration": 940, "velocity": 110}, {"time": 59278, "pitch": 53, "duration": 700, "velocity": 105}, {"time": 59518, "pitch": 65, "duration": 460, "velocity": 110}, {"time": 59758, "pitch": 61, "duration": 220, "velocity": 100}, {"time": 59998, "pitch": 45, "duration": 945, "velocity": 110}, {"time": 60237, "pitch": 52, "duration": 706, "velocity": 105}, {"time": 60477, "pitch": 64, "duration": 466, "velocity": 110}, {"time": 60720, "pitch": 60, "duration": 223, "velocity": 100}, {"time": 60963, "pitch": 50, "duration": 939, "velocity": 110}, {"time": 61203, "pitch": 57, "duration": 699, "velocity": 105}, {"time": 61443, "pitch": 66, "duration": 459, "velocity": 110}, {"time": 61682, "pitch": 62, "duration": 220, "velocity": 100}, {"time": 61922, "pitch": 43, "duration": 1899, "velocity": 110}, {"time": 62162, "pitch": 50, "duration": 1439, "velocity": 105}, {"time": 62402, "pitch": 62, "duration": 719, "velocity": 110}, {"time": 62642, "pitch": 55, "duration": 719, "velocity": 100}, {"time": 62881, "pitch": 64, "duration": 940, "velocity": 110}, {"time": 63121, "pitch": 62, "duration": 700, "velocity": 105}, {"time": 63361, "pitch": 55, "duration": 460, "velocity": 110}, {"time": 63601, "pitch": 50, "duration": 220, "velocity": 100}, {"time": 63841, "pitch": 43, "duration": 939, "velocity": 110}, {"time": 64081, "pitch": 50, "duration": 699, "velocity": 105}, {"time": 64320, "pitch": 62, "duration": 460, "velocity": 110}, {"time": 64560, "pitch": 55, "duration": 220, "velocity": 100}, {"time": 64800, "pitch": 45, "duration": 939, "velocity": 110}, {"time": 65040, "pitch": 52, "duration": 699, "velocity": 105}, {"time": 65280, "pitch": 64, "duration": 459, "velocity": 110}, {"time": 65520, "pitch": 60, "duration": 219, "velocity": 100}, {"time": 65759, "pitch": 47, "duration": 940, "velocity": 110}, {"time": 65999, "pitch": 54, "duration": 700, "velocity": 105}, {"time": 66239, "pitch": 66, "duration": 460, "velocity": 110}, {"time": 66479, "pitch": 62, "duration": 220, "velocity": 100}, {"time": 66719, "pitch": 46, "duration": 939, "velocity": 110}, {"time": 66958, "pitch": 53, "duration": 700, "velocity": 105}, {"time": 67198, "pitch": 65, "duration": 460, "velocity": 110}, {"time": 67438, "pitch": 61, "duration": 220, "velocity": 100}, {"time": 67678, "pitch": 45, "duration": 939, "velocity": 110}, {"time": 67918, "pitch": 52, "duration": 699, "velocity": 105}, {"time": 68158, "pitch": 64, "duration": 459, "velocity": 110}, {"time": 68397, "pitch": 60, "duration": 220, "velocity": 100}, {"time": 68637, "pitch": 50, "duration": 946, "velocity": 110}, {"time": 68880, "pitch": 57, "duration": 703, "velocity": 105}, {"time": 69123, "pitch": 66, "duration": 460, "velocity": 110}, {"time": 69363, "pitch": 62, "duration": 220, "velocity": 100}, {"time": 69603, "pitch": 43, "duration": 1898, "velocity": 110}, {"time": 69842, "pitch": 50, "duration": 1439, "velocity": 105}, {"time": 70082, "pitch": 62, "duration": 720, "velocity": 110}, {"time": 70322, "pitch": 55, "duration": 720, "velocity": 100}, {"time": 70562, "pitch": 64, "duration": 939, "velocity": 110}, {"time": 70802, "pitch": 62, "duration": 699, "velocity": 105}, {"time": 71042, "pitch": 55, "duration": 459, "velocity": 110}, {"time": 71281, "pitch": 50, "duration": 220, "velocity": 100}, {"time": 71521, "pitch": 47, "duration": 1899, "velocity": 110}, {"time": 71761, "pitch": 54, "duration": 1439, "velocity": 105}, {"time": 72001, "pitch": 62, "duration": 719, "velocity": 110}, {"time": 72241, "pitch": 59, "duration": 719, "velocity": 100}, {"time": 72481, "pitch": 66, "duration": 939, "velocity": 110}, {"time": 72720, "pitch": 62, "duration": 700, "velocity": 105}, {"time": 72960, "pitch": 59, "duration": 460, "velocity": 110}, {"time": 73200, "pitch": 54, "duration": 220, "velocity": 100}, {"time": 73440, "pitch": 40, "duration": 1898, "velocity": 110}, {"time": 73680, "pitch": 47, "duration": 1658, "velocity": 105}, {"time": 73919, "pitch": 62, "duration": 720, "velocity": 110}, {"time": 74159, "pitch": 55, "duration": 720, "velocity": 100}, {"time": 74399, "pitch": 64, "duration": 939, "velocity": 110}, {"time": 74639, "pitch": 62, "duration": 480, "velocity": 105}, {"time": 74879, "pitch": 55, "duration": 459, "velocity": 110}, {"time": 75119, "pitch": 62, "duration": 219, "velocity": 100}, {"time": 75358, "pitch": 45, "duration": 1899, "velocity": 110}, {"time": 75598, "pitch": 52, "duration": 480, "velocity": 105}, {"time": 75838, "pitch": 55, "duration": 720, "velocity": 110}, {"time": 76078, "pitch": 52, "duration": 1179, "velocity": 100}, {"time": 76318, "pitch": 60, "duration": 479, "velocity": 110}, {"time": 76558, "pitch": 55, "duration": 699, "velocity": 105}, {"time": 76797, "pitch": 64, "duration": 460, "velocity": 110}, {"time": 77037, "pitch": 60, "duration": 220, "velocity": 100}, {"time": 77277, "pitch": 50, "duration": 1905, "velocity": 110}, {"time": 77520, "pitch": 54, "duration": 1662, "velocity": 105}, {"time": 77763, "pitch": 60, "duration": 719, "velocity": 110}, {"time": 78003, "pitch": 57, "duration": 719, "velocity": 100}, {"time": 78242, "pitch": 66, "duration": 940, "velocity": 110}, {"time": 78482, "pitch": 60, "duration": 480, "velocity": 105}, {"time": 78722, "pitch": 57, "duration": 460, "velocity": 110}, {"time": 78962, "pitch": 60, "duration": 220, "velocity": 100}, {"time": 79202, "pitch": 47, "duration": 1898, "velocity": 110}, {"time": 79441, "pitch": 54, "duration": 1439, "velocity": 105}, {"time": 79681, "pitch": 62, "duration": 720, "velocity": 110}, {"time": 79921, "pitch": 57, "duration": 720, "velocity": 100}, {"time": 80161, "pitch": 66, "duration": 939, "velocity": 110}, {"time": 80401, "pitch": 62, "duration": 699, "velocity": 105}, {"time": 80641, "pitch": 57, "duration": 459, "velocity": 110}, {"time": 80880, "pitch": 54, "duration": 220, "velocity": 100}, {"time": 81120, "pitch": 40, "duration": 1899, "velocity": 110}, {"time": 81360, "pitch": 47, "duration": 1659, "velocity": 105}, {"time": 81600, "pitch": 62, "duration": 719, "velocity": 110}, {"time": 81840, "pitch": 55, "duration": 719, "velocity": 100}, {"time": 82080, "pitch": 64, "duration": 939, "velocity": 110}, {"time": 82319, "pitch": 62, "duration": 480, "velocity": 105}, {"time": 82559, "pitch": 55, "duration": 460, "velocity": 110}, {"time": 82799, "pitch": 62, "duration": 220, "velocity": 100}, {"time": 83039, "pitch": 45, "duration": 939, "velocity": 110}, {"time": 83279, "pitch": 52, "duration": 699, "velocity": 105}, {"time": 83518, "pitch": 60, "duration": 460, "velocity": 110}, {"time": 83758, "pitch": 55, "duration": 220, "velocity": 100}, {"time": 83998, "pitch": 47, "duration": 939, "velocity": 110}, {"time": 84238, "pitch": 54, "duration": 699, "velocity": 105}, {"time": 84478, "pitch": 62, "duration": 459, "velocity": 110}, {"time": 84718, "pitch": 57, "duration": 219, "velocity": 100}, {"time": 84957, "pitch": 48, "duration": 946, "velocity": 110}, {"time": 85197, "pitch": 55, "duration": 706, "velocity": 105}, {"time": 85437, "pitch": 60, "duration": 243, "velocity": 95}, {"time": 85447, "pitch": 63, "duration": 466, "velocity": 110}, {"time": 85680, "pitch": 60, "duration": 223, "velocity": 100}, {"time": 85923, "pitch": 50, "duration": 939, "velocity": 110}, {"time": 86163, "pitch": 57, "duration": 699, "velocity": 105}, {"time": 86402, "pitch": 60, "duration": 240, "velocity": 95}, {"time": 86412, "pitch": 64, "duration": 460, "velocity": 110}, {"time": 86642, "pitch": 60, "duration": 220, "velocity": 100}, {"time": 86882, "pitch": 50, "duration": 1899, "velocity": 100}, {"time": 86892, "pitch": 57, "duration": 1889, "velocity": 95}, {"time": 86902, "pitch": 60, "duration": 1879, "velocity": 100}, {"time": 86912, "pitch": 67, "duration": 1869, "velocity": 110}, {"time": 88801, "pitch": 43, "duration": 939, "velocity": 110}, {"time": 89041, "pitch": 50, "duration": 699, "velocity": 105}, {"time": 89280, "pitch": 62, "duration": 460, "velocity": 110}, {"time": 89520, "pitch": 55, "duration": 220, "velocity": 100}, {"time": 89760, "pitch": 45, "duration": 939, "velocity": 110}, {"time": 90000, "pitch": 52, "duration": 699, "velocity": 105}, {"time": 90240, "pitch": 64, "duration": 459, "velocity": 110}, {"time": 90479, "pitch": 60, "duration": 220, "velocity": 100}, {"time": 90719, "pitch": 47, "duration": 700, "velocity": 110}, {"time": 90959, "pitch": 54, "duration": 460, "velocity": 105}, {"time": 91199, "pitch": 66, "duration": 220, "velocity": 110}, {"time": 91439, "pitch": 40, "duration": 1179, "velocity": 110}, {"time": 91439, "pitch": 55, "duration": 959, "velocity": 105}, {"time": 91439, "pitch": 64, "duration": 479, "velocity": 110}, {"time": 91918, "pitch": 64, "duration": 700, "velocity": 105}, {"time": 92158, "pitch": 62, "duration": 460, "velocity": 110}, {"time": 92398, "pitch": 55, "duration": 220, "velocity": 100}, {"time": 92638, "pitch": 45, "duration": 939, "velocity": 110}, {"time": 92878, "pitch": 52, "duration": 699, "velocity": 105}, {"time": 93118, "pitch": 64, "duration": 459, "velocity": 110}, {"time": 93357, "pitch": 60, "duration": 220, "velocity": 100}, {"time": 93597, "pitch": 50, "duration": 946, "velocity": 110}, {"time": 93840, "pitch": 55, "duration": 703, "velocity": 105}, {"time": 94083, "pitch": 64, "duration": 460, "velocity": 110}, {"time": 94323, "pitch": 60, "duration": 220, "velocity": 100}, {"time": 94563, "pitch": 43, "duration": 1898, "velocity": 110}, {"time": 94802, "pitch": 50, "duration": 1439, "velocity": 105}, {"time": 95042, "pitch": 62, "duration": 720, "velocity": 110}, {"time": 95282, "pitch": 55, "duration": 719, "velocity": 100}, {"time": 95522, "pitch": 64, "duration": 939, "velocity": 110}, {"time": 95762, "pitch": 62, "duration": 699, "velocity": 105}, {"time": 96001, "pitch": 55, "duration": 460, "velocity": 110}, {"time": 96241, "pitch": 50, "duration": 220, "velocity": 100}, {"time": 96481, "pitch": 43, "duration": 939, "velocity": 110}, {"time": 96721, "pitch": 50, "duration": 699, "velocity": 105}, {"time": 96961, "pitch": 62, "duration": 459, "velocity": 110}, {"time": 97201, "pitch": 55, "duration": 219, "velocity": 100}, {"time": 97440, "pitch": 45, "duration": 940, "velocity": 110}, {"time": 97680, "pitch": 52, "duration": 700, "velocity": 105}, {"time": 97920, "pitch": 64, "duration": 460, "velocity": 110}, {"time": 98160, "pitch": 60, "duration": 220, "velocity": 100}, {"time": 98400, "pitch": 47, "duration": 699, "velocity": 110}, {"time": 98640, "pitch": 54, "duration": 459, "velocity": 105}, {"time": 98879, "pitch": 66, "duration": 220, "velocity": 110}, {"time": 99119, "pitch": 40, "duration": 1179, "velocity": 110}, {"time": 99119, "pitch": 55, "duration": 960, "velocity": 105}, {"time": 99119, "pitch": 64, "duration": 480, "velocity": 110}, {"time": 99599, "pitch": 64, "duration": 699, "velocity": 105}, {"time": 99839, "pitch": 62, "duration": 459, "velocity": 110}, {"time": 100079, "pitch": 55, "duration": 219, "velocity": 100}, {"time": 100318, "pitch": 45, "duration": 940, "velocity": 110}, {"time": 100558, "pitch": 52, "duration": 700, "velocity": 105}, {"time": 100798, "pitch": 64, "duration": 460, "velocity": 110}, {"time": 101038, "pitch": 60, "duration": 220, "velocity": 100}, {"time": 101278, "pitch": 50, "duration": 945, "velocity": 110}, {"time": 101517, "pitch": 55, "duration": 706, "velocity": 105}, {"time": 101757, "pitch": 64, "duration": 466, "velocity": 110}, {"time": 102000, "pitch": 60, "duration": 223, "velocity": 100}, {"time": 102243, "pitch": 43, "duration": 1899, "velocity": 110}, {"time": 102483, "pitch": 50, "duration": 1439, "velocity": 105}, {"time": 102723, "pitch": 62, "duration": 719, "velocity": 110}, {"time": 102962, "pitch": 55, "duration": 720, "velocity": 100}, {"time": 103202, "pitch": 64, "duration": 940, "velocity": 110}, {"time": 103442, "pitch": 62, "duration": 700, "velocity": 105}, {"time": 103682, "pitch": 55, "duration": 460, "velocity": 110}, {"time": 103922, "pitch": 50, "duration": 220, "velocity": 100}, {"time": 104162, "pitch": 43, "duration": 939, "velocity": 110}, {"time": 104401, "pitch": 50, "duration": 700, "velocity": 105}, {"time": 104641, "pitch": 62, "duration": 460, "velocity": 110}, {"time": 104881, "pitch": 55, "duration": 220, "velocity": 100}, {"time": 105121, "pitch": 45, "duration": 939, "velocity": 110}, {"time": 105361, "pitch": 52, "duration": 699, "velocity": 105}, {"time": 105601, "pitch": 64, "duration": 459, "velocity": 110}, {"time": 105840, "pitch": 60, "duration": 220, "velocity": 100}, {"time": 106080, "pitch": 47, "duration": 939, "velocity": 110}, {"time": 106320, "pitch": 54, "duration": 699, "velocity": 105}, {"time": 106560, "pitch": 66, "duration": 459, "velocity": 110}, {"time": 106800, "pitch": 62, "duration": 219, "velocity": 100}, {"time": 107039, "pitch": 46, "duration": 940, "velocity": 110}, {"time": 107279, "pitch": 53, "duration": 700, "velocity": 105}, {"time": 107519, "pitch": 65, "duration": 460, "velocity": 110}, {"time": 107759, "pitch": 61, "duration": 220, "velocity": 100}, {"time": 107999, "pitch": 45, "duration": 939, "velocity": 110}, {"time": 108239, "pitch": 52, "duration": 699, "velocity": 105}, {"time": 108478, "pitch": 64, "duration": 460, "velocity": 110}, {"time": 108718, "pitch": 60, "duration": 220, "velocity": 100}, {"time": 108958, "pitch": 50, "duration": 939, "velocity": 110}, {"time": 109198, "pitch": 57, "duration": 699, "velocity": 105}, {"time": 109438, "pitch": 66, "duration": 459, "velocity": 110}, {"time": 109678, "pitch": 62, "duration": 219, "velocity": 100}, {"time": 109917, "pitch": 43, "duration": 1905, "velocity": 110}, {"time": 110157, "pitch": 50, "duration": 1445, "velocity": 105}, {"time": 110397, "pitch": 62, "duration": 726, "velocity": 110}, {"time": 110640, "pitch": 55, "duration": 722, "velocity": 100}, {"time": 110883, "pitch": 64, "duration": 939, "velocity": 110}, {"time": 111123, "pitch": 62, "duration": 699, "velocity": 105}, {"time": 111362, "pitch": 55, "duration": 460, "velocity": 110}, {"time": 111602, "pitch": 50, "duration": 220, "velocity": 100}, {"time": 111842, "pitch": 43, "duration": 939, "velocity": 110}, {"time": 112082, "pitch": 50, "duration": 699, "velocity": 105}, {"time": 112322, "pitch": 62, "duration": 459, "velocity": 110}, {"time": 112562, "pitch": 55, "duration": 219, "velocity": 100}, {"time": 112801, "pitch": 45, "duration": 940, "velocity": 110}, {"time": 113041, "pitch": 52, "duration": 700, "velocity": 105}, {"time": 113281, "pitch": 64, "duration": 460, "velocity": 110}, {"time": 113521, "pitch": 60, "duration": 220, "velocity": 100}, {"time": 113761, "pitch": 47, "duration": 939, "velocity": 110}, {"time": 114000, "pitch": 54, "duration": 700, "velocity": 105}, {"time": 114240, "pitch": 66, "duration": 460, "velocity": 110}, {"time": 114480, "pitch": 62, "duration": 220, "velocity": 100}, {"time": 114720, "pitch": 46, "duration": 939, "velocity": 110}, {"time": 114960, "pitch": 53, "duration": 699, "velocity": 105}, {"time": 115200, "pitch": 65, "duration": 459, "velocity": 110}, {"time": 115439, "pitch": 61, "duration": 220, "velocity": 100}, {"time": 115679, "pitch": 45, "duration": 940, "velocity": 110}, {"time": 115919, "pitch": 52, "duration": 700, "velocity": 105}, {"time": 116159, "pitch": 64, "duration": 460, "velocity": 110}, {"time": 116399, "pitch": 60, "duration": 220, "velocity": 100}, {"time": 116639, "pitch": 50, "duration": 939, "velocity": 110}, {"time": 116878, "pitch": 57, "duration": 700, "velocity": 105}, {"time": 117118, "pitch": 66, "duration": 460, "velocity": 110}, {"time": 117358, "pitch": 62, "duration": 220, "velocity": 100}, {"time": 117598, "pitch": 43, "duration": 1905, "velocity": 110}, {"time": 117838, "pitch": 50, "duration": 1445, "velocity": 105}, {"time": 118077, "pitch": 62, "duration": 723, "velocity": 110}, {"time": 118317, "pitch": 55, "duration": 726, "velocity": 100}, {"time": 118557, "pitch": 64, "duration": 946, "velocity": 110}, {"time": 118800, "pitch": 62, "duration": 703, "velocity": 105}, {"time": 119043, "pitch": 55, "duration": 460, "velocity": 110}, {"time": 119283, "pitch": 50, "duration": 220, "velocity": 100}, {"time": 119522, "pitch": 47, "duration": 1899, "velocity": 110}, {"time": 119762, "pitch": 54, "duration": 1439, "velocity": 105}, {"time": 120002, "pitch": 62, "duration": 720, "velocity": 110}, {"time": 120242, "pitch": 59, "duration": 719, "velocity": 100}, {"time": 120482, "pitch": 66, "duration": 939, "velocity": 110}, {"time": 120722, "pitch": 62, "duration": 699, "velocity": 105}, {"time": 120961, "pitch": 59, "duration": 460, "velocity": 110}, {"time": 121201, "pitch": 54, "duration": 220, "velocity": 100}, {"time": 121441, "pitch": 40, "duration": 1899, "velocity": 110}, {"time": 121681, "pitch": 47, "duration": 1659, "velocity": 105}, {"time": 121921, "pitch": 62, "duration": 719, "velocity": 110}, {"time": 122161, "pitch": 55, "duration": 719, "velocity": 100}, {"time": 122400, "pitch": 64, "duration": 940, "velocity": 110}, {"time": 122640, "pitch": 62, "duration": 480, "velocity": 105}, {"time": 122880, "pitch": 55, "duration": 460, "velocity": 110}, {"time": 123120, "pitch": 62, "duration": 220, "velocity": 100}, {"time": 123360, "pitch": 45, "duration": 1898, "velocity": 110}, {"time": 123599, "pitch": 52, "duration": 480, "velocity": 105}, {"time": 123839, "pitch": 55, "duration": 720, "velocity": 110}, {"time": 124079, "pitch": 52, "duration": 1179, "velocity": 100}, {"time": 124319, "pitch": 60, "duration": 480, "velocity": 110}, {"time": 124559, "pitch": 55, "duration": 699, "velocity": 105}, {"time": 124799, "pitch": 64, "duration": 459, "velocity": 110}, {"time": 125038, "pitch": 60, "duration": 220, "velocity": 100}, {"time": 125278, "pitch": 50, "duration": 1905, "velocity": 110}, {"time": 125518, "pitch": 54, "duration": 1665, "velocity": 105}, {"time": 125758, "pitch": 60, "duration": 719, "velocity": 110}, {"time": 125998, "pitch": 57, "duration": 719, "velocity": 100}, {"time": 126238, "pitch": 66, "duration": 945, "velocity": 110}, {"time": 126477, "pitch": 60, "duration": 483, "velocity": 105}, {"time": 126717, "pitch": 57, "duration": 466, "velocity": 110}, {"time": 126960, "pitch": 60, "duration": 223, "velocity": 100}, {"time": 127203, "pitch": 47, "duration": 1899, "velocity": 110}, {"time": 127443, "pitch": 54, "duration": 1439, "velocity": 105}, {"time": 127683, "pitch": 62, "duration": 719, "velocity": 110}, {"time": 127922, "pitch": 57, "duration": 720, "velocity": 100}, {"time": 128162, "pitch": 66, "duration": 940, "velocity": 110}, {"time": 128402, "pitch": 62, "duration": 700, "velocity": 105}, {"time": 128642, "pitch": 57, "duration": 460, "velocity": 110}, {"time": 128882, "pitch": 54, "duration": 220, "velocity": 100}, {"time": 129122, "pitch": 40, "duration": 1898, "velocity": 110}, {"time": 129361, "pitch": 47, "duration": 1659, "velocity": 105}, {"time": 129601, "pitch": 62, "duration": 720, "velocity": 110}, {"time": 129841, "pitch": 55, "duration": 719, "velocity": 100}, {"time": 130081, "pitch": 64, "duration": 939, "velocity": 110}, {"time": 130321, "pitch": 62, "duration": 479, "velocity": 105}, {"time": 130560, "pitch": 55, "duration": 460, "velocity": 110}, {"time": 130800, "pitch": 62, "duration": 220, "velocity": 100}, {"time": 131040, "pitch": 45, "duration": 939, "velocity": 110}, {"time": 131280, "pitch": 52, "duration": 699, "velocity": 105}, {"time": 131520, "pitch": 60, "duration": 459, "velocity": 110}, {"time": 131760, "pitch": 55, "duration": 219, "velocity": 100}, {"time": 131999, "pitch": 47, "duration": 940, "velocity": 110}, {"time": 132239, "pitch": 54, "duration": 700, "velocity": 105}, {"time": 132479, "pitch": 62, "duration": 460, "velocity": 110}, {"time": 132719, "pitch": 57, "duration": 220, "velocity": 100}, {"time": 132959, "pitch": 48, "duration": 939, "velocity": 110}, {"time": 133199, "pitch": 55, "duration": 699, "velocity": 105}, {"time": 133438, "pitch": 60, "duration": 240, "velocity": 95}, {"time": 133448, "pitch": 63, "duration": 460, "velocity": 110}, {"time": 133678, "pitch": 60, "duration": 220, "velocity": 100}, {"time": 133918, "pitch": 50, "duration": 939, "velocity": 110}, {"time": 134158, "pitch": 57, "duration": 699, "velocity": 105}, {"time": 134398, "pitch": 60, "duration": 239, "velocity": 95}, {"time": 134408, "pitch": 64, "duration": 459, "velocity": 110}, {"time": 134637, "pitch": 60, "duration": 220, "velocity": 100}, {"time": 134877, "pitch": 50, "duration": 1905, "velocity": 100}, {"time": 134887, "pitch": 57, "duration": 1895, "velocity": 95}, {"time": 134898, "pitch": 60, "duration": 1884, "velocity": 100}, {"time": 134908, "pitch": 67, "duration": 1874, "velocity": 110}, {"time": 136802, "pitch": 43, "duration": 939, "velocity": 110}, {"time": 137042, "pitch": 50, "duration": 699, "velocity": 105}, {"time": 137282, "pitch": 62, "duration": 459, "velocity": 110}, {"time": 137521, "pitch": 55, "duration": 220, "velocity": 100}, {"time": 137761, "pitch": 45, "duration": 940, "velocity": 110}, {"time": 138001, "pitch": 52, "duration": 700, "velocity": 105}, {"time": 138241, "pitch": 64, "duration": 460, "velocity": 110}, {"time": 138481, "pitch": 60, "duration": 220, "velocity": 100}, {"time": 138721, "pitch": 47, "duration": 699, "velocity": 110}, {"time": 138960, "pitch": 54, "duration": 460, "velocity": 105}, {"time": 139200, "pitch": 66, "duration": 220, "velocity": 110}, {"time": 139440, "pitch": 40, "duration": 1179, "velocity": 110}, {"time": 139440, "pitch": 55, "duration": 959, "velocity": 105}, {"time": 139440, "pitch": 64, "duration": 480, "velocity": 110}, {"time": 139920, "pitch": 64, "duration": 699, "velocity": 105}, {"time": 140160, "pitch": 62, "duration": 459, "velocity": 110}, {"time": 140399, "pitch": 55, "duration": 220, "velocity": 100}, {"time": 140639, "pitch": 45, "duration": 939, "velocity": 110}, {"time": 140879, "pitch": 52, "duration": 699, "velocity": 105}, {"time": 141119, "pitch": 64, "duration": 459, "velocity": 110}, {"time": 141359, "pitch": 60, "duration": 219, "velocity": 100}, {"time": 141598, "pitch": 50, "duration": 940, "velocity": 110}, {"time": 141838, "pitch": 55, "duration": 700, "velocity": 105}, {"time": 142078, "pitch": 64, "duration": 460, "velocity": 110}, {"time": 142318, "pitch": 60, "duration": 220, "velocity": 100}, {"time": 142558, "pitch": 43, "duration": 1904, "velocity": 110}, {"time": 142798, "pitch": 50, "duration": 1445, "velocity": 105}, {"time": 143037, "pitch": 62, "duration": 723, "velocity": 110}, {"time": 143277, "pitch": 55, "duration": 726, "velocity": 100}, {"time": 143517, "pitch": 64, "duration": 945, "velocity": 110}, {"time": 143760, "pitch": 62, "duration": 702, "velocity": 105}, {"time": 144003, "pitch": 55, "duration": 459, "velocity": 110}, {"time": 144243, "pitch": 50, "duration": 219, "velocity": 100}, {"time": 144482, "pitch": 43, "duration": 940, "velocity": 110}, {"time": 144722, "pitch": 50, "duration": 700, "velocity": 105}, {"time": 144962, "pitch": 62, "duration": 460, "velocity": 110}, {"time": 145202, "pitch": 55, "duration": 220, "velocity": 100}, {"time": 145442, "pitch": 45, "duration": 939, "velocity": 110}, {"time": 145682, "pitch": 52, "duration": 699, "velocity": 105}, {"time": 145921, "pitch": 64, "duration": 460, "velocity": 110}, {"time": 146161, "pitch": 60, "duration": 220, "velocity": 100}, {"time": 146401, "pitch": 47, "duration": 700, "velocity": 110}, {"time": 146641, "pitch": 54, "duration": 460, "velocity": 105}, {"time": 146881, "pitch": 66, "duration": 220, "velocity": 110}, {"time": 147120, "pitch": 40, "duration": 1180, "velocity": 110}, {"time": 147120, "pitch": 55, "duration": 960, "velocity": 105}, {"time": 147120, "pitch": 64, "duration": 480, "velocity": 110}, {"time": 147600, "pitch": 64, "duration": 700, "velocity": 105}, {"time": 147840, "pitch": 62, "duration": 460, "velocity": 110}, {"time": 148080, "pitch": 55, "duration": 220, "velocity": 100}, {"time": 148320, "pitch": 45, "duration": 939, "velocity": 110}, {"time": 148559, "pitch": 52, "duration": 700, "velocity": 105}, {"time": 148799, "pitch": 64, "duration": 460, "velocity": 110}, {"time": 149039, "pitch": 60, "duration": 220, "velocity": 100}, {"time": 149279, "pitch": 50, "duration": 939, "velocity": 110}, {"time": 149519, "pitch": 55, "duration": 699, "velocity": 105}, {"time": 149759, "pitch": 64, "duration": 459, "velocity": 110}, {"time": 149998, "pitch": 60, "duration": 220, "velocity": 100}, {"time": 150238, "pitch": 43, "duration": 1905, "velocity": 110}, {"time": 150478, "pitch": 50, "duration": 1442, "velocity": 105}, {"time": 150718, "pitch": 62, "duration": 719, "velocity": 110}, {"time": 150958, "pitch": 55, "duration": 719, "velocity": 100}, {"time": 151197, "pitch": 64, "duration": 946, "velocity": 110}, {"time": 151437, "pitch": 62, "duration": 706, "velocity": 105}, {"time": 151677, "pitch": 55, "duration": 466, "velocity": 110}, {"time": 151920, "pitch": 50, "duration": 223, "velocity": 100}, {"time": 152163, "pitch": 43, "duration": 1898, "velocity": 110}, {"time": 152183, "pitch": 50, "duration": 1878, "velocity": 100}, {"time": 152203, "pitch": 55, "duration": 1858, "velocity": 95}, {"time": 152223, "pitch": 59, "duration": 1838, "velocity": 100}, {"time": 152243, "pitch": 64, "duration": 1818, "velocity": 105}, {"time": 152263, "pitch": 67, "duration": 1798, "velocity": 110}, {"time": 1198, "pitch": 64, "duration": 240, "velocity": 120}, {"time": 1438, "pitch": 67, "duration": 959, "velocity": 110}, {"time": 3123, "pitch": 64, "duration": 719, "velocity": 120}, {"time": 3842, "pitch": 59, "duration": 240, "velocity": 100}, {"time": 4082, "pitch": 59, "duration": 240, "velocity": 100}, {"time": 4322, "pitch": 57, "duration": 480, "velocity": 110}, {"time": 4802, "pitch": 57, "duration": 239, "velocity": 100}, {"time": 5041, "pitch": 55, "duration": 720, "velocity": 110}, {"time": 5761, "pitch": 52, "duration": 240, "velocity": 120}, {"time": 6001, "pitch": 55, "duration": 239, "velocity": 110}, {"time": 6240, "pitch": 55, "duration": 1899, "velocity": 100}, {"time": 103922, "pitch": 38, "duration": 240, "velocity": 100}, {"time": 104162, "pitch": 45, "duration": 239, "velocity": 110}, {"time": 104401, "pitch": 47, "duration": 120, "velocity": 100}, {"time": 104521, "pitch": 47, "duration": 340, "velocity": 95}, {"time": 104881, "pitch": 38, "duration": 240, "velocity": 100}, {"time": 105121, "pitch": 45, "duration": 240, "velocity": 110}, {"time": 105361, "pitch": 47, "duration": 120, "velocity": 100}, {"time": 105481, "pitch": 47, "duration": 579, "velocity": 95}, {"time": 106080, "pitch": 47, "duration": 480, "velocity": 110}, {"time": 106560, "pitch": 47, "duration": 240, "velocity": 110}, {"time": 106800, "pitch": 50, "duration": 239, "velocity": 105}, {"time": 107039, "pitch": 55, "duration": 240, "velocity": 110}, {"time": 107279, "pitch": 50, "duration": 240, "velocity": 90}, {"time": 107519, "pitch": 57, "duration": 480, "velocity": 110}, {"time": 107999, "pitch": 57, "duration": 240, "velocity": 115}, {"time": 108239, "pitch": 55, "duration": 120, "velocity": 110}, {"time": 108359, "pitch": 55, "duration": 359, "velocity": 95}, {"time": 108718, "pitch": 59, "duration": 240, "velocity": 110}, {"time": 108958, "pitch": 60, "duration": 240, "velocity": 110}, {"time": 109198, "pitch": 59, "duration": 240, "velocity": 105}, {"time": 109438, "pitch": 57, "duration": 240, "velocity": 110}, {"time": 109678, "pitch": 55, "duration": 119, "velocity": 110}, {"time": 109797, "pitch": 57, "duration": 120, "velocity": 105}, {"time": 109917, "pitch": 59, "duration": 240, "velocity": 115}, {"time": 110157, "pitch": 62, "duration": 120, "velocity": 110}, {"time": 110277, "pitch": 62, "duration": 846, "velocity": 115}, {"time": 111602, "pitch": 64, "duration": 240, "velocity": 110}, {"time": 111842, "pitch": 57, "duration": 240, "velocity": 110}, {"time": 112082, "pitch": 55, "duration": 120, "velocity": 115}, {"time": 112202, "pitch": 55, "duration": 360, "velocity": 110}, {"time": 112562, "pitch": 52, "duration": 239, "velocity": 105}, {"time": 112801, "pitch": 55, "duration": 240, "velocity": 115}, {"time": 113041, "pitch": 55, "duration": 1199, "velocity": 100}, {"time": 114240, "pitch": 59, "duration": 240, "velocity": 110}, {"time": 114480, "pitch": 62, "duration": 240, "velocity": 105}, {"time": 114720, "pitch": 67, "duration": 480, "velocity": 110}, {"time": 115200, "pitch": 69, "duration": 479, "velocity": 110}, {"time": 115679, "pitch": 69, "duration": 240, "velocity": 115}, {"time": 115919, "pitch": 67, "duration": 720, "velocity": 100}, {"time": 116639, "pitch": 62, "duration": 479, "velocity": 115}, {"time": 117118, "pitch": 57, "duration": 240, "velocity": 110}, {"time": 117358, "pitch": 57, "duration": 240, "velocity": 110}, {"time": 117598, "pitch": 55, "duration": 360, "velocity": 115}, {"time": 117958, "pitch": 55, "duration": 1445, "velocity": 100}, {"time": 7919, "pitch": 62, "duration": 100, "velocity": 100}, {"time": 8039, "pitch": 62, "duration": 100, "velocity": 100}, {"time": 8159, "pitch": 69, "duration": 240, "velocity": 100}, {"time": 8399, "pitch": 71, "duration": 100, "velocity": 100}, {"time": 8519, "pitch": 71, "duration": 240, "velocity": 100}, {"time": 8879, "pitch": 62, "duration": 219, "velocity": 100}, {"time": 9118, "pitch": 69, "duration": 240, "velocity": 100}, {"time": 9358, "pitch": 71, "duration": 100, "velocity": 100}, {"time": 9478, "pitch": 71, "duration": 240, "velocity": 100}, {"time": 9838, "pitch": 62, "duration": 220, "velocity": 100}, {"time": 10078, "pitch": 69, "duration": 239, "velocity": 100}, {"time": 10317, "pitch": 71, "duration": 220, "velocity": 100}, {"time": 10557, "pitch": 71, "duration": 223, "velocity": 100}, {"time": 10800, "pitch": 71, "duration": 122, "velocity": 100}, {"time": 10922, "pitch": 70, "duration": 361, "velocity": 100}, {"time": 11283, "pitch": 67, "duration": 220, "velocity": 100}, {"time": 11762, "pitch": 70, "duration": 220, "velocity": 100}, {"time": 12002, "pitch": 69, "duration": 220, "velocity": 100}, {"time": 12242, "pitch": 67, "duration": 220, "velocity": 100}, {"time": 12482, "pitch": 67, "duration": 220, "velocity": 100}, {"time": 12722, "pitch": 64, "duration": 120, "velocity": 100}, {"time": 12842, "pitch": 67, "duration": 359, "velocity": 100}, {"time": 13201, "pitch": 69, "duration": 220, "velocity": 100}, {"time": 13681, "pitch": 62, "duration": 220, "velocity": 100}, {"time": 13921, "pitch": 69, "duration": 240, "velocity": 100}, {"time": 14161, "pitch": 71, "duration": 100, "velocity": 100}, {"time": 14281, "pitch": 71, "duration": 579, "velocity": 100}, {"time": 15600, "pitch": 62, "duration": 100, "velocity": 100}, {"time": 15720, "pitch": 62, "duration": 100, "velocity": 100}, {"time": 15839, "pitch": 69, "duration": 240, "velocity": 100}, {"time": 16079, "pitch": 71, "duration": 100, "velocity": 100}, {"time": 16199, "pitch": 71, "duration": 240, "velocity": 100}, {"time": 16559, "pitch": 62, "duration": 100, "velocity": 100}, {"time": 16679, "pitch": 62, "duration": 100, "velocity": 100}, {"time": 16799, "pitch": 69, "duration": 240, "velocity": 100}, {"time": 17039, "pitch": 71, "duration": 100, "velocity": 100}, {"time": 17159, "pitch": 71, "duration": 239, "velocity": 100}, {"time": 17518, "pitch": 62, "duration": 220, "velocity": 100}, {"time": 17758, "pitch": 69, "duration": 240, "velocity": 100}, {"time": 17998, "pitch": 71, "duration": 220, "velocity": 100}, {"time": 18238, "pitch": 71, "duration": 220, "velocity": 100}, {"time": 18478, "pitch": 71, "duration": 119, "velocity": 100}, {"time": 18597, "pitch": 70, "duration": 360, "velocity": 100}, {"time": 18957, "pitch": 67, "duration": 220, "velocity": 100}, {"time": 19440, "pitch": 70, "duration": 223, "velocity": 100}, {"time": 19683, "pitch": 69, "duration": 220, "velocity": 100}, {"time": 19923, "pitch": 67, "duration": 219, "velocity": 100}, {"time": 20162, "pitch": 67, "duration": 220, "velocity": 100}, {"time": 20402, "pitch": 71, "duration": 120, "velocity": 100}, {"time": 20522, "pitch": 72, "duration": 360, "velocity": 100}, {"time": 20882, "pitch": 74, "duration": 220, "velocity": 100}, {"time": 21122, "pitch": 71, "duration": 220, "velocity": 100}, {"time": 21362, "pitch": 69, "duration": 119, "velocity": 100}, {"time": 21481, "pitch": 67, "duration": 1080, "velocity": 100}, {"time": 23040, "pitch": 71, "duration": 240, "velocity": 100}, {"time": 23280, "pitch": 74, "duration": 240, "velocity": 100}, {"time": 23520, "pitch": 74, "duration": 959, "velocity": 100}, {"time": 24719, "pitch": 76, "duration": 240, "velocity": 100}, {"time": 24959, "pitch": 74, "duration": 240, "velocity": 100}, {"time": 25199, "pitch": 67, "duration": 240, "velocity": 100}, {"time": 25439, "pitch": 71, "duration": 239, "velocity": 100}, {"time": 25678, "pitch": 74, "duration": 720, "velocity": 100}, {"time": 27117, "pitch": 74, "duration": 240, "velocity": 100}, {"time": 27357, "pitch": 74, "duration": 243, "velocity": 100}, {"time": 27600, "pitch": 72, "duration": 243, "velocity": 100}, {"time": 27843, "pitch": 71, "duration": 240, "velocity": 100}, {"time": 28083, "pitch": 69, "duration": 120, "velocity": 100}, {"time": 28203, "pitch": 67, "duration": 359, "velocity": 100}, {"time": 28562, "pitch": 69, "duration": 240, "velocity": 100}, {"time": 28802, "pitch": 71, "duration": 240, "velocity": 100}, {"time": 29042, "pitch": 72, "duration": 120, "velocity": 100}, {"time": 29162, "pitch": 71, "duration": 360, "velocity": 100}, {"time": 29522, "pitch": 69, "duration": 719, "velocity": 100}, {"time": 30721, "pitch": 71, "duration": 240, "velocity": 100}, {"time": 30961, "pitch": 74, "duration": 239, "velocity": 100}, {"time": 31200, "pitch": 74, "duration": 960, "velocity": 100}, {"time": 32400, "pitch": 76, "duration": 239, "velocity": 100}, {"time": 32639, "pitch": 74, "duration": 240, "velocity": 100}, {"time": 32879, "pitch": 67, "duration": 240, "velocity": 100}, {"time": 33119, "pitch": 71, "duration": 240, "velocity": 100}, {"time": 33359, "pitch": 74, "duration": 120, "velocity": 100}, {"time": 33479, "pitch": 67, "duration": 479, "velocity": 100}, {"time": 34798, "pitch": 74, "duration": 240, "velocity": 100}, {"time": 35038, "pitch": 74, "duration": 239, "velocity": 100}, {"time": 35277, "pitch": 72, "duration": 240, "velocity": 100}, {"time": 35517, "pitch": 71, "duration": 243, "velocity": 100}, {"time": 35760, "pitch": 69, "duration": 122, "velocity": 100}, {"time": 35882, "pitch": 67, "duration": 361, "velocity": 100}, {"time": 36243, "pitch": 69, "duration": 240, "velocity": 100}, {"time": 36722, "pitch": 71, "duration": 240, "velocity": 100}, {"time": 36962, "pitch": 72, "duration": 240, "velocity": 100}, {"time": 37202, "pitch": 72, "duration": 120, "velocity": 100}, {"time": 37322, "pitch": 72, "duration": 360, "velocity": 100}, {"time": 37682, "pitch": 75, "duration": 240, "velocity": 100}, {"time": 37922, "pitch": 74, "duration": 1918, "velocity": 100}, {"time": 40320, "pitch": 67, "duration": 240, "velocity": 100}, {"time": 40560, "pitch": 69, "duration": 239, "velocity": 100}, {"time": 40799, "pitch": 71, "duration": 480, "velocity": 100}, {"time": 41279, "pitch": 69, "duration": 240, "velocity": 100}, {"time": 41519, "pitch": 71, "duration": 240, "velocity": 100}, {"time": 41759, "pitch": 72, "duration": 479, "velocity": 100}, {"time": 42238, "pitch": 71, "duration": 240, "velocity": 100}, {"time": 42478, "pitch": 72, "duration": 240, "velocity": 100}, {"time": 42718, "pitch": 74, "duration": 480, "velocity": 100}, {"time": 43198, "pitch": 78, "duration": 239, "velocity": 100}, {"time": 43437, "pitch": 79, "duration": 483, "velocity": 100}, {"time": 44163, "pitch": 74, "duration": 240, "velocity": 100}, {"time": 44403, "pitch": 71, "duration": 240, "velocity": 100}, {"time": 44643, "pitch": 67, "duration": 479, "velocity": 100}, {"time": 45362, "pitch": 71, "duration": 240, "velocity": 100}, {"time": 45602, "pitch": 72, "duration": 240, "velocity": 100}, {"time": 45842, "pitch": 71, "duration": 240, "velocity": 100}, {"time": 46082, "pitch": 69, "duration": 239, "velocity": 100}, {"time": 46321, "pitch": 67, "duration": 240, "velocity": 100}, {"time": 46561, "pitch": 71, "duration": 240, "velocity": 100}, {"time": 46801, "pitch": 74, "duration": 480, "velocity": 100}, {"time": 48000, "pitch": 67, "duration": 240, "velocity": 100}, {"time": 48240, "pitch": 69, "duration": 240, "velocity": 100}, {"time": 48480, "pitch": 71, "duration": 480, "velocity": 100}, {"time": 48960, "pitch": 69, "duration": 239, "velocity": 100}, {"time": 49199, "pitch": 71, "duration": 240, "velocity": 100}, {"time": 49439, "pitch": 72, "duration": 480, "velocity": 100}, {"time": 49919, "pitch": 71, "duration": 240, "velocity": 100}, {"time": 50159, "pitch": 72, "duration": 239, "velocity": 100}, {"time": 50398, "pitch": 74, "duration": 480, "velocity": 100}, {"time": 50878, "pitch": 78, "duration": 240, "velocity": 100}, {"time": 51118, "pitch": 79, "duration": 480, "velocity": 100}, {"time": 51837, "pitch": 74, "duration": 240, "velocity": 100}, {"time": 52077, "pitch": 71, "duration": 240, "velocity": 100}, {"time": 52317, "pitch": 67, "duration": 486, "velocity": 100}, {"time": 52803, "pitch": 67, "duration": 240, "velocity": 100}, {"time": 53043, "pitch": 71, "duration": 239, "velocity": 100}, {"time": 53282, "pitch": 72, "duration": 240, "velocity": 100}, {"time": 53522, "pitch": 71, "duration": 240, "velocity": 100}, {"time": 53762, "pitch": 69, "duration": 240, "velocity": 100}, {"time": 54002, "pitch": 71, "duration": 240, "velocity": 100}, {"time": 54242, "pitch": 67, "duration": 959, "velocity": 100}, {"time": 55920, "pitch": 62, "duration": 100, "velocity": 100}, {"time": 56040, "pitch": 62, "duration": 100, "velocity": 100}, {"time": 56160, "pitch": 69, "duration": 240, "velocity": 100}, {"time": 56400, "pitch": 71, "duration": 100, "velocity": 100}, {"time": 56520, "pitch": 71, "duration": 240, "velocity": 100}, {"time": 56880, "pitch": 62, "duration": 100, "velocity": 100}, {"time": 57000, "pitch": 62, "duration": 100, "velocity": 100}, {"time": 57120, "pitch": 69, "duration": 239, "velocity": 100}, {"time": 57359, "pitch": 71, "duration": 100, "velocity": 100}, {"time": 57479, "pitch": 71, "duration": 240, "velocity": 100}, {"time": 57839, "pitch": 62, "duration": 220, "velocity": 100}, {"time": 58079, "pitch": 69, "duration": 240, "velocity": 100}, {"time": 58319, "pitch": 71, "duration": 220, "velocity": 100}, {"time": 58559, "pitch": 71, "duration": 219, "velocity": 100}, {"time": 58798, "pitch": 71, "duration": 120, "velocity": 100}, {"time": 58918, "pitch": 70, "duration": 360, "velocity": 100}, {"time": 59278, "pitch": 67, "duration": 220, "velocity": 100}, {"time": 59758, "pitch": 70, "duration": 220, "velocity": 100}, {"time": 59998, "pitch": 69, "duration": 219, "velocity": 100}, {"time": 60237, "pitch": 67, "duration": 220, "velocity": 100}, {"time": 60477, "pitch": 67, "duration": 223, "velocity": 100}, {"time": 60720, "pitch": 64, "duration": 223, "velocity": 100}, {"time": 60963, "pitch": 67, "duration": 220, "velocity": 100}, {"time": 61203, "pitch": 69, "duration": 100, "velocity": 100}, {"time": 61323, "pitch": 69, "duration": 239, "velocity": 100}, {"time": 61682, "pitch": 62, "duration": 220, "velocity": 100}, {"time": 61922, "pitch": 69, "duration": 240, "velocity": 100}, {"time": 62162, "pitch": 71, "duration": 100, "velocity": 100}, {"time": 62282, "pitch": 71, "duration": 579, "velocity": 100}, {"time": 63601, "pitch": 62, "duration": 100, "velocity": 100}, {"time": 63721, "pitch": 62, "duration": 100, "velocity": 100}, {"time": 63841, "pitch": 69, "duration": 240, "velocity": 100}, {"time": 64081, "pitch": 71, "duration": 100, "velocity": 100}, {"time": 64200, "pitch": 71, "duration": 240, "velocity": 100}, {"time": 64560, "pitch": 62, "duration": 100, "velocity": 100}, {"time": 64680, "pitch": 62, "duration": 100, "velocity": 100}, {"time": 64800, "pitch": 69, "duration": 240, "velocity": 100}, {"time": 65040, "pitch": 71, "duration": 100, "velocity": 100}, {"time": 65160, "pitch": 71, "duration": 240, "velocity": 100}, {"time": 65520, "pitch": 62, "duration": 219, "velocity": 100}, {"time": 65759, "pitch": 69, "duration": 240, "velocity": 100}, {"time": 65999, "pitch": 71, "duration": 220, "velocity": 100}, {"time": 66239, "pitch": 71, "duration": 220, "velocity": 100}, {"time": 66479, "pitch": 71, "duration": 120, "velocity": 100}, {"time": 66599, "pitch": 70, "duration": 240, "velocity": 100}, {"time": 66839, "pitch": 67, "duration": 99, "velocity": 100}, {"time": 66958, "pitch": 67, "duration": 220, "velocity": 100}, {"time": 67438, "pitch": 70, "duration": 220, "velocity": 100}, {"time": 67678, "pitch": 69, "duration": 220, "velocity": 100}, {"time": 67918, "pitch": 67, "duration": 220, "velocity": 100}, {"time": 68158, "pitch": 67, "duration": 219, "velocity": 100}, {"time": 68397, "pitch": 71, "duration": 120, "velocity": 100}, {"time": 68517, "pitch": 72, "duration": 363, "velocity": 100}, {"time": 68880, "pitch": 74, "duration": 223, "velocity": 100}, {"time": 69123, "pitch": 71, "duration": 220, "velocity": 100}, {"time": 69363, "pitch": 69, "duration": 120, "velocity": 100}, {"time": 69483, "pitch": 67, "duration": 1079, "velocity": 100}, {"time": 71042, "pitch": 71, "duration": 239, "velocity": 100}, {"time": 71281, "pitch": 74, "duration": 240, "velocity": 100}, {"time": 71521, "pitch": 74, "duration": 960, "velocity": 100}, {"time": 72720, "pitch": 76, "duration": 240, "velocity": 100}, {"time": 72960, "pitch": 74, "duration": 240, "velocity": 100}, {"time": 73200, "pitch": 67, "duration": 240, "velocity": 100}, {"time": 73440, "pitch": 71, "duration": 360, "velocity": 100}, {"time": 73800, "pitch": 74, "duration": 599, "velocity": 100}, {"time": 75119, "pitch": 74, "duration": 239, "velocity": 100}, {"time": 75358, "pitch": 74, "duration": 240, "velocity": 100}, {"time": 75598, "pitch": 72, "duration": 240, "velocity": 100}, {"time": 75838, "pitch": 71, "duration": 240, "velocity": 100}, {"time": 76078, "pitch": 69, "duration": 120, "velocity": 100}, {"time": 76198, "pitch": 67, "duration": 360, "velocity": 100}, {"time": 76558, "pitch": 69, "duration": 239, "velocity": 100}, {"time": 76797, "pitch": 71, "duration": 240, "velocity": 100}, {"time": 77037, "pitch": 72, "duration": 120, "velocity": 100}, {"time": 77157, "pitch": 71, "duration": 363, "velocity": 100}, {"time": 77520, "pitch": 69, "duration": 722, "velocity": 100}, {"time": 78722, "pitch": 71, "duration": 240, "velocity": 100}, {"time": 78962, "pitch": 74, "duration": 240, "velocity": 100}, {"time": 79202, "pitch": 74, "duration": 959, "velocity": 100}, {"time": 80401, "pitch": 76, "duration": 240, "velocity": 100}, {"time": 80641, "pitch": 74, "duration": 239, "velocity": 100}, {"time": 80880, "pitch": 67, "duration": 240, "velocity": 100}, {"time": 81120, "pitch": 71, "duration": 240, "velocity": 100}, {"time": 81360, "pitch": 74, "duration": 120, "velocity": 100}, {"time": 81480, "pitch": 67, "duration": 480, "velocity": 100}, {"time": 82799, "pitch": 74, "duration": 240, "velocity": 100}, {"time": 83039, "pitch": 74, "duration": 240, "velocity": 100}, {"time": 83279, "pitch": 72, "duration": 239, "velocity": 100}, {"time": 83518, "pitch": 71, "duration": 240, "velocity": 100}, {"time": 83758, "pitch": 69, "duration": 120, "velocity": 100}, {"time": 83878, "pitch": 67, "duration": 360, "velocity": 100}, {"time": 84238, "pitch": 69, "duration": 240, "velocity": 100}, {"time": 84718, "pitch": 71, "duration": 239, "velocity": 100}, {"time": 84957, "pitch": 72, "duration": 240, "velocity": 100}, {"time": 85197, "pitch": 72, "duration": 120, "velocity": 100}, {"time": 85317, "pitch": 72, "duration": 363, "velocity": 100}, {"time": 85680, "pitch": 75, "duration": 243, "velocity": 100}, {"time": 85923, "pitch": 74, "duration": 1918, "velocity": 100}, {"time": 88321, "pitch": 67, "duration": 240, "velocity": 100}, {"time": 88561, "pitch": 69, "duration": 240, "velocity": 100}, {"time": 88801, "pitch": 71, "duration": 479, "velocity": 100}, {"time": 89280, "pitch": 69, "duration": 240, "velocity": 100}, {"time": 89520, "pitch": 71, "duration": 240, "velocity": 100}, {"time": 89760, "pitch": 72, "duration": 480, "velocity": 100}, {"time": 90240, "pitch": 71, "duration": 239, "velocity": 100}, {"time": 90479, "pitch": 72, "duration": 240, "velocity": 100}, {"time": 90719, "pitch": 74, "duration": 480, "velocity": 100}, {"time": 91199, "pitch": 78, "duration": 240, "velocity": 100}, {"time": 91439, "pitch": 79, "duration": 479, "velocity": 100}, {"time": 92158, "pitch": 74, "duration": 240, "velocity": 100}, {"time": 92398, "pitch": 71, "duration": 240, "velocity": 100}, {"time": 92638, "pitch": 67, "duration": 480, "velocity": 100}, {"time": 93357, "pitch": 71, "duration": 240, "velocity": 100}, {"time": 93597, "pitch": 72, "duration": 243, "velocity": 100}, {"time": 93840, "pitch": 71, "duration": 243, "velocity": 100}, {"time": 94083, "pitch": 69, "duration": 240, "velocity": 100}, {"time": 94323, "pitch": 67, "duration": 240, "velocity": 100}, {"time": 94563, "pitch": 71, "duration": 239, "velocity": 100}, {"time": 94802, "pitch": 74, "duration": 480, "velocity": 100}, {"time": 96001, "pitch": 67, "duration": 240, "velocity": 100}, {"time": 96241, "pitch": 69, "duration": 240, "velocity": 100}, {"time": 96481, "pitch": 71, "duration": 480, "velocity": 100}, {"time": 96961, "pitch": 69, "duration": 240, "velocity": 100}, {"time": 97201, "pitch": 71, "duration": 239, "velocity": 100}, {"time": 97440, "pitch": 72, "duration": 480, "velocity": 100}, {"time": 97920, "pitch": 71, "duration": 240, "velocity": 100}, {"time": 98160, "pitch": 72, "duration": 240, "velocity": 100}, {"time": 98400, "pitch": 74, "duration": 479, "velocity": 100}, {"time": 98879, "pitch": 78, "duration": 240, "velocity": 100}, {"time": 99119, "pitch": 79, "duration": 480, "velocity": 100}, {"time": 99839, "pitch": 74, "duration": 240, "velocity": 100}, {"time": 100079, "pitch": 71, "duration": 239, "velocity": 100}, {"time": 100318, "pitch": 67, "duration": 480, "velocity": 100}, {"time": 100798, "pitch": 67, "duration": 240, "velocity": 100}, {"time": 101038, "pitch": 71, "duration": 240, "velocity": 100}, {"time": 101278, "pitch": 72, "duration": 239, "velocity": 100}, {"time": 101517, "pitch": 71, "duration": 240, "velocity": 100}, {"time": 101757, "pitch": 69, "duration": 243, "velocity": 100}, {"time": 102000, "pitch": 71, "duration": 243, "velocity": 100}, {"time": 102243, "pitch": 67, "duration": 959, "velocity": 100}, {"time": 119043, "pitch": 71, "duration": 240, "velocity": 100}, {"time": 119283, "pitch": 74, "duration": 239, "velocity": 100}, {"time": 119522, "pitch": 74, "duration": 960, "velocity": 100}, {"time": 120722, "pitch": 76, "duration": 239, "velocity": 100}, {"time": 120961, "pitch": 74, "duration": 240, "velocity": 100}, {"time": 121201, "pitch": 67, "duration": 240, "velocity": 100}, {"time": 121441, "pitch": 71, "duration": 360, "velocity": 100}, {"time": 121801, "pitch": 74, "duration": 599, "velocity": 100}, {"time": 123120, "pitch": 74, "duration": 240, "velocity": 100}, {"time": 123360, "pitch": 74, "duration": 239, "velocity": 100}, {"time": 123599, "pitch": 72, "duration": 240, "velocity": 100}, {"time": 123839, "pitch": 71, "duration": 240, "velocity": 100}, {"time": 124079, "pitch": 69, "duration": 120, "velocity": 100}, {"time": 124199, "pitch": 67, "duration": 360, "velocity": 100}, {"time": 124559, "pitch": 69, "duration": 240, "velocity": 100}, {"time": 124799, "pitch": 71, "duration": 239, "velocity": 100}, {"time": 125038, "pitch": 72, "duration": 120, "velocity": 100}, {"time": 125158, "pitch": 71, "duration": 360, "velocity": 100}, {"time": 125518, "pitch": 69, "duration": 720, "velocity": 100}, {"time": 126717, "pitch": 71, "duration": 243, "velocity": 100}, {"time": 126960, "pitch": 74, "duration": 243, "velocity": 100}, {"time": 127203, "pitch": 74, "duration": 959, "velocity": 100}, {"time": 128402, "pitch": 76, "duration": 240, "velocity": 100}, {"time": 128642, "pitch": 74, "duration": 240, "velocity": 100}, {"time": 128882, "pitch": 67, "duration": 240, "velocity": 100}, {"time": 129122, "pitch": 71, "duration": 239, "velocity": 100}, {"time": 129361, "pitch": 74, "duration": 120, "velocity": 100}, {"time": 129481, "pitch": 67, "duration": 480, "velocity": 100}, {"time": 130800, "pitch": 74, "duration": 240, "velocity": 100}, {"time": 131040, "pitch": 74, "duration": 240, "velocity": 100}, {"time": 131280, "pitch": 72, "duration": 240, "velocity": 100}, {"time": 131520, "pitch": 71, "duration": 240, "velocity": 100}, {"time": 131760, "pitch": 69, "duration": 120, "velocity": 100}, {"time": 131880, "pitch": 67, "duration": 359, "velocity": 100}, {"time": 132239, "pitch": 69, "duration": 240, "velocity": 100}, {"time": 132959, "pitch": 72, "duration": 240, "velocity": 100}, {"time": 133199, "pitch": 72, "duration": 119, "velocity": 100}, {"time": 133318, "pitch": 72, "duration": 360, "velocity": 100}, {"time": 133678, "pitch": 75, "duration": 240, "velocity": 100}, {"time": 133918, "pitch": 74, "duration": 1925, "velocity": 100}, {"time": 136322, "pitch": 67, "duration": 240, "velocity": 100}, {"time": 136562, "pitch": 69, "duration": 240, "velocity": 100}, {"time": 136802, "pitch": 71, "duration": 480, "velocity": 100}, {"time": 137282, "pitch": 69, "duration": 239, "velocity": 100}, {"time": 137521, "pitch": 71, "duration": 240, "velocity": 100}, {"time": 137761, "pitch": 72, "duration": 480, "velocity": 100}, {"time": 138241, "pitch": 71, "duration": 240, "velocity": 100}, {"time": 138481, "pitch": 72, "duration": 240, "velocity": 100}, {"time": 138721, "pitch": 74, "duration": 479, "velocity": 100}, {"time": 139200, "pitch": 78, "duration": 240, "velocity": 100}, {"time": 139440, "pitch": 79, "duration": 480, "velocity": 100}, {"time": 140160, "pitch": 74, "duration": 239, "velocity": 100}, {"time": 140399, "pitch": 71, "duration": 240, "velocity": 100}, {"time": 140639, "pitch": 67, "duration": 480, "velocity": 100}, {"time": 141359, "pitch": 71, "duration": 239, "velocity": 100}, {"time": 141598, "pitch": 72, "duration": 240, "velocity": 100}, {"time": 141838, "pitch": 71, "duration": 240, "velocity": 100}, {"time": 142078, "pitch": 69, "duration": 240, "velocity": 100}, {"time": 142318, "pitch": 67, "duration": 240, "velocity": 100}, {"time": 142558, "pitch": 71, "duration": 240, "velocity": 100}, {"time": 142798, "pitch": 74, "duration": 479, "velocity": 100}, {"time": 144003, "pitch": 67, "duration": 240, "velocity": 100}, {"time": 144243, "pitch": 69, "duration": 239, "velocity": 100}, {"time": 144482, "pitch": 71, "duration": 480, "velocity": 100}, {"time": 144962, "pitch": 69, "duration": 240, "velocity": 100}, {"time": 145202, "pitch": 71, "duration": 240, "velocity": 100}, {"time": 145442, "pitch": 72, "duration": 479, "velocity": 100}, {"time": 145921, "pitch": 71, "duration": 240, "velocity": 100}, {"time": 146161, "pitch": 72, "duration": 240, "velocity": 100}, {"time": 146401, "pitch": 74, "duration": 480, "velocity": 100}, {"time": 146881, "pitch": 78, "duration": 239, "velocity": 100}, {"time": 147120, "pitch": 79, "duration": 480, "velocity": 100}, {"time": 147840, "pitch": 74, "duration": 240, "velocity": 100}, {"time": 148080, "pitch": 71, "duration": 240, "velocity": 100}, {"time": 148320, "pitch": 67, "duration": 479, "velocity": 100}, {"time": 148799, "pitch": 67, "duration": 240, "velocity": 100}, {"time": 149039, "pitch": 71, "duration": 240, "velocity": 100}, {"time": 149279, "pitch": 72, "duration": 240, "velocity": 100}, {"time": 149519, "pitch": 71, "duration": 240, "velocity": 100}, {"time": 149759, "pitch": 69, "duration": 239, "velocity": 100}, {"time": 149998, "pitch": 71, "duration": 240, "velocity": 100}, {"time": 150238, "pitch": 67, "duration": 959, "velocity": 100}]}]}