{"metadata": {"schema_version": "0.1", "title": "RWC-MDB-P-2001 No. 41: Non Stop Driving / Katsuyuki Ozawa", "copyright": "RWC Music Database. Copyright (C) 2001 Real World Computing Partnership (contact: Masataka GOTO <m.goto@aist.go.jp>)", "source_filename": "RM-P041.SMF_SYNC.MID", "source_format": "midi"}, "resolution": 480, "tempos": [{"time": 0, "qpm": 200.0}, {"time": 136320, "qpm": 100.0}, {"time": 144000, "qpm": 200.0}, {"time": 247680, "qpm": 100.0}], "key_signatures": [{"time": 0, "root": 0, "mode": "major"}], "time_signatures": [{"time": 0, "numerator": 4, "denominator": 4}], "tracks": [{"program": 0, "is_drum": false, "name": "Piano", "notes": [{"time": 1920, "pitch": 45, "duration": 200, "velocity": 120}, {"time": 2160, "pitch": 45, "duration": 200, "velocity": 120}, {"time": 2400, "pitch": 44, "duration": 200, "velocity": 120}, {"time": 2640, "pitch": 45, "duration": 200, "velocity": 120}, {"time": 2880, "pitch": 45, "duration": 200, "velocity": 120}, {"time": 3120, "pitch": 44, "duration": 200, "velocity": 120}, {"time": 3360, "pitch": 45, "duration": 200, "velocity": 120}, {"time": 3600, "pitch": 44, "duration": 200, "velocity": 120}, {"time": 3840, "pitch": 45, "duration": 200, "velocity": 120}, {"time": 4080, "pitch": 45, "duration": 200, "velocity": 120}, {"time": 4320, "pitch": 44, "duration": 200, "velocity": 120}, {"time": 4560, "pitch": 45, "duration": 200, "velocity": 120}, {"time": 4800, "pitch": 45, "duration": 200, "velocity": 120}, {"time": 5040, "pitch": 44, "duration": 200, "velocity": 120}, {"time": 5280, "pitch": 42, "duration": 200, "velocity": 120}, {"time": 5520, "pitch": 40, "duration": 200, "velocity": 120}, {"time": 5760, "pitch": 40, "duration": 200, "velocity": 120}, {"time": 6000, "pitch": 40, "duration": 200, "velocity": 120}, {"time": 6240, "pitch": 39, "duration": 200, "velocity": 120}, {"time": 6480, "pitch": 40, "duration": 200, "velocity": 120}, {"time": 6720, "pitch": 40, "duration": 200, "velocity": 120}, {"time": 6960, "pitch": 39, "duration": 200, "velocity": 120}, {"time": 7200, "pitch": 40, "duration": 200, "velocity": 120}, {"time": 7440, "pitch": 39, "duration": 200, "velocity": 120}, {"time": 7680, "pitch": 40, "duration": 200, "velocity": 120}, {"time": 7920, "pitch": 40, "duration": 200, "velocity": 120}, {"time": 8160, "pitch": 39, "duration": 200, "velocity": 120}, {"time": 8400, "pitch": 40, "duration": 200, "velocity": 120}, {"time": 8640, "pitch": 40, "duration": 200, "velocity": 120}, {"time": 8880, "pitch": 42, "duration": 200, "velocity": 120}, {"time": 9120, "pitch": 44, "duration": 200, "velocity": 120}, {"time": 9360, "pitch": 40, "duration": 200, "velocity": 120}, {"time": 9600, "pitch": 45, "duration": 200, "velocity": 120}, {"time": 9840, "pitch": 45, "duration": 200, "velocity": 120}, {"time": 10080, "pitch": 44, "duration": 200, "velocity": 120}, {"time": 10320, "pitch": 45, "duration": 200, "velocity": 120}, {"time": 10560, "pitch": 45, "duration": 200, "velocity": 120}, {"time": 10800, "pitch": 44, "duration": 200, "velocity": 120}, {"time": 11040, "pitch": 45, "duration": 200, "velocity": 120}, {"time": 11280, "pitch": 44, "duration": 200, "velocity": 120}, {"time": 11520, "pitch": 45, "duration": 200, "velocity": 120}, {"time": 11760, "pitch": 45, "duration": 200, "velocity": 120}, {"time": 12000, "pitch": 44, "duration": 200, "velocity": 120}, {"time": 12240, "pitch": 45, "duration": 200, "velocity": 120}, {"time": 12480, "pitch": 45, "duration": 200, "velocity": 120}, {"time": 12720, "pitch": 44, "duration": 200, "velocity": 120}, {"time": 12960, "pitch": 42, "duration": 200, "velocity": 120}, {"time": 13200, "pitch": 40, "duration": 200, "velocity": 120}, {"time": 13440, "pitch": 40, "duration": 200, "velocity": 120}, {"time": 13680, "pitch": 40, "duration": 200, "velocity": 120}, {"time": 13920, "pitch": 39, "duration": 200, "velocity": 120}, {"time": 14160, "pitch": 40, "duration": 200, "velocity": 120}, {"time": 14400, "pitch": 40, "duration": 200, "velocity": 120}, {"time": 14640, "pitch": 39, "duration": 200, "velocity": 120}, {"time": 14880, "pitch": 40, "duration": 200, "velocity": 120}, {"time": 15120, "pitch": 39, "duration": 200, "velocity": 120}, {"time": 15360, "pitch": 40, "duration": 200, "velocity": 120}, {"time": 15600, "pitch": 40, "duration": 200, "velocity": 120}, {"time": 15840, "pitch": 39, "duration": 200, "velocity": 120}, {"time": 16080, "pitch": 40, "duration": 200, "velocity": 120}, {"time": 16320, "pitch": 40, "duration": 200, "velocity": 120}, {"time": 16560, "pitch": 42, "duration": 200, "velocity": 120}, {"time": 16800, "pitch": 44, "duration": 200, "velocity": 120}, {"time": 17040, "pitch": 40, "duration": 200, "velocity": 120}, {"time": 17280, "pitch": 45, "duration": 200, "velocity": 120}, {"time": 17520, "pitch": 45, "duration": 200, "velocity": 120}, {"time": 17760, "pitch": 44, "duration": 200, "velocity": 120}, {"time": 18000, "pitch": 45, "duration": 200, "velocity": 120}, {"time": 18240, "pitch": 45, "duration": 200, "velocity": 120}, {"time": 18480, "pitch": 44, "duration": 200, "velocity": 120}, {"time": 18720, "pitch": 45, "duration": 200, "velocity": 120}, {"time": 18960, "pitch": 44, "duration": 200, "velocity": 120}, {"time": 19200, "pitch": 45, "duration": 200, "velocity": 120}, {"time": 19440, "pitch": 45, "duration": 200, "velocity": 120}, {"time": 19680, "pitch": 44, "duration": 200, "velocity": 120}, {"time": 19920, "pitch": 45, "duration": 200, "velocity": 120}, {"time": 20160, "pitch": 45, "duration": 200, "velocity": 120}, {"time": 20400, "pitch": 44, "duration": 200, "velocity": 120}, {"time": 20640, "pitch": 42, "duration": 200, "velocity": 120}, {"time": 20880, "pitch": 40, "duration": 200, "velocity": 120}, {"time": 21120, "pitch": 40, "duration": 200, "velocity": 120}, {"time": 21360, "pitch": 40, "duration": 200, "velocity": 120}, {"time": 21600, "pitch": 39, "duration": 200, "velocity": 120}, {"time": 21840, "pitch": 40, "duration": 200, "velocity": 120}, {"time": 22080, "pitch": 40, "duration": 200, "velocity": 120}, {"time": 22320, "pitch": 39, "duration": 200, "velocity": 120}, {"time": 22560, "pitch": 40, "duration": 200, "velocity": 120}, {"time": 22800, "pitch": 39, "duration": 200, "velocity": 120}, {"time": 23040, "pitch": 40, "duration": 200, "velocity": 120}, {"time": 23280, "pitch": 40, "duration": 200, "velocity": 120}, {"time": 23520, "pitch": 39, "duration": 200, "velocity": 120}, {"time": 23760, "pitch": 40, "duration": 200, "velocity": 120}, {"time": 24000, "pitch": 40, "duration": 200, "velocity": 120}, {"time": 24240, "pitch": 42, "duration": 200, "velocity": 120}, {"time": 24480, "pitch": 44, "duration": 200, "velocity": 120}, {"time": 24720, "pitch": 40, "duration": 200, "velocity": 120}, {"time": 24960, "pitch": 45, "duration": 200, "velocity": 120}, {"time": 25200, "pitch": 45, "duration": 200, "velocity": 120}, {"time": 25440, "pitch": 44, "duration": 200, "velocity": 120}, {"time": 25680, "pitch": 45, "duration": 200, "velocity": 120}, {"time": 25920, "pitch": 45, "duration": 200, "velocity": 120}, {"time": 26160, "pitch": 44, "duration": 200, "velocity": 120}, {"time": 26400, "pitch": 45, "duration": 200, "velocity": 120}, {"time": 26640, "pitch": 44, "duration": 200, "velocity": 120}, {"time": 26880, "pitch": 45, "duration": 200, "velocity": 120}, {"time": 27120, "pitch": 45, "duration": 200, "velocity": 120}, {"time": 27360, "pitch": 44, "duration": 200, "velocity": 120}, {"time": 27600, "pitch": 45, "duration": 200, "velocity": 120}, {"time": 27840, "pitch": 45, "duration": 200, "velocity": 120}, {"time": 28080, "pitch": 44, "duration": 200, "velocity": 120}, {"time": 28320, "pitch": 42, "duration": 200, "velocity": 120}, {"time": 28560, "pitch": 40, "duration": 200, "velocity": 120}, {"time": 28800, "pitch": 40, "duration": 200, "velocity": 120}, {"time": 29040, "pitch": 40, "duration": 200, "velocity": 120}, {"time": 29280, "pitch": 39, "duration": 200, "velocity": 120}, {"time": 29520, "pitch": 40, "duration": 200, "velocity": 120}, {"time": 29760, "pitch": 40, "duration": 200, "velocity": 120}, {"time": 30000, "pitch": 39, "duration": 200, "velocity": 120}, {"time": 30240, "pitch": 40, "duration": 200, "velocity": 120}, {"time": 30480, "pitch": 39, "duration": 200, "velocity": 120}, {"time": 30720, "pitch": 40, "duration": 200, "velocity": 120}, {"time": 30960, "pitch": 40, "duration": 200, "velocity": 120}, {"time": 31200, "pitch": 39, "duration": 200, "velocity": 120}, {"time": 31440, "pitch": 40, "duration": 200, "velocity": 120}, {"time": 31680, "pitch": 40, "duration": 200, "velocity": 120}, {"time": 31920, "pitch": 42, "duration": 200, "velocity": 120}, {"time": 32160, "pitch": 44, "duration": 200, "velocity": 120}, {"time": 32400, "pitch": 40, "duration": 200, "velocity": 120}, {"time": 32640, "pitch": 45, "duration": 200, "velocity": 120}, {"time": 32880, "pitch": 45, "duration": 200, "velocity": 120}, {"time": 33120, "pitch": 44, "duration": 200, "velocity": 120}, {"time": 33360, "pitch": 45, "duration": 200, "velocity": 120}, {"time": 33600, "pitch": 45, "duration": 200, "velocity": 120}, {"time": 33840, "pitch": 44, "duration": 200, "velocity": 120}, {"time": 34080, "pitch": 45, "duration": 200, "velocity": 120}, {"time": 34320, "pitch": 44, "duration": 200, "velocity": 120}, {"time": 34560, "pitch": 45, "duration": 200, "velocity": 120}, {"time": 34800, "pitch": 45, "duration": 200, "velocity": 120}, {"time": 35040, "pitch": 44, "duration": 200, "velocity": 120}, {"time": 35280, "pitch": 45, "duration": 200, "velocity": 120}, {"time": 35520, "pitch": 45, "duration": 200, "velocity": 120}, {"time": 35760, "pitch": 44, "duration": 200, "velocity": 120}, {"time": 36000, "pitch": 42, "duration": 200, "velocity": 120}, {"time": 36240, "pitch": 40, "duration": 200, "velocity": 120}, {"time": 36480, "pitch": 40, "duration": 200, "velocity": 120}, {"time": 36720, "pitch": 40, "duration": 200, "velocity": 120}, {"time": 36960, "pitch": 39, "duration": 200, "velocity": 120}, {"time": 37200, "pitch": 40, "duration": 200, "velocity": 120}, {"time": 37440, "pitch": 40, "duration": 200, "velocity": 120}, {"time": 37680, "pitch": 39, "duration": 200, "velocity": 120}, {"time": 37920, "pitch": 40, "duration": 200, "velocity": 120}, {"time": 38160, "pitch": 39, "duration": 200, "velocity": 120}, {"time": 38400, "pitch": 40, "duration": 200, "velocity": 120}, {"time": 38640, "pitch": 40, "duration": 200, "velocity": 120}, {"time": 38880, "pitch": 39, "duration": 200, "velocity": 120}, {"time": 39120, "pitch": 40, "duration": 200, "velocity": 120}, {"time": 39360, "pitch": 40, "duration": 200, "velocity": 120}, {"time": 39600, "pitch": 42, "duration": 200, "velocity": 120}, {"time": 39840, "pitch": 44, "duration": 200, "velocity": 120}, {"time": 40080, "pitch": 40, "duration": 200, "velocity": 120}, {"time": 40320, "pitch": 45, "duration": 200, "velocity": 120}, {"time": 40560, "pitch": 45, "duration": 200, "velocity": 120}, {"time": 40800, "pitch": 44, "duration": 200, "velocity": 120}, {"time": 41040, "pitch": 45, "duration": 200, "velocity": 120}, {"time": 41280, "pitch": 45, "duration": 200, "velocity": 120}, {"time": 41520, "pitch": 44, "duration": 200, "velocity": 120}, {"time": 41760, "pitch": 45, "duration": 200, "velocity": 120}, {"time": 42000, "pitch": 44, "duration": 200, "velocity": 120}, {"time": 42240, "pitch": 45, "duration": 200, "velocity": 120}, {"time": 42480, "pitch": 45, "duration": 200, "velocity": 120}, {"time": 42720, "pitch": 44, "duration": 200, "velocity": 120}, {"time": 42960, "pitch": 45, "duration": 200, "velocity": 120}, {"time": 43200, "pitch": 45, "duration": 200, "velocity": 120}, {"time": 43440, "pitch": 44, "duration": 200, "velocity": 120}, {"time": 43680, "pitch": 42, "duration": 200, "velocity": 120}, {"time": 43920, "pitch": 40, "duration": 200, "velocity": 120}, {"time": 44160, "pitch": 40, "duration": 200, "velocity": 120}, {"time": 44400, "pitch": 40, "duration": 200, "velocity": 120}, {"time": 44640, "pitch": 39, "duration": 200, "velocity": 120}, {"time": 44880, "pitch": 40, "duration": 200, "velocity": 120}, {"time": 45120, "pitch": 40, "duration": 200, "velocity": 120}, {"time": 45360, "pitch": 39, "duration": 200, "velocity": 120}, {"time": 45600, "pitch": 40, "duration": 200, "velocity": 120}, {"time": 45840, "pitch": 39, "duration": 200, "velocity": 120}, {"time": 46080, "pitch": 40, "duration": 200, "velocity": 120}, {"time": 46320, "pitch": 40, "duration": 200, "velocity": 120}, {"time": 46560, "pitch": 39, "duration": 200, "velocity": 120}, {"time": 46800, "pitch": 40, "duration": 200, "velocity": 120}, {"time": 47040, "pitch": 40, "duration": 200, "velocity": 120}, {"time": 47280, "pitch": 42, "duration": 200, "velocity": 120}, {"time": 47520, "pitch": 44, "duration": 200, "velocity": 120}, {"time": 47760, "pitch": 40, "duration": 200, "velocity": 120}, {"time": 48000, "pitch": 45, "duration": 200, "velocity": 120}, {"time": 48240, "pitch": 45, "duration": 200, "velocity": 120}, {"time": 48480, "pitch": 45, "duration": 200, "velocity": 120}, {"time": 48720, "pitch": 45, "duration": 200, "velocity": 120}, {"time": 48960, "pitch": 45, "duration": 200, "velocity": 120}, {"time": 49200, "pitch": 45, "duration": 200, "velocity": 120}, {"time": 49440, "pitch": 45, "duration": 200, "velocity": 120}, {"time": 49680, "pitch": 45, "duration": 200, "velocity": 120}, {"time": 49920, "pitch": 45, "duration": 200, "velocity": 120}, {"time": 50160, "pitch": 45, "duration": 200, "velocity": 120}, {"time": 50400, "pitch": 45, "duration": 200, "velocity": 120}, {"time": 50640, "pitch": 45, "duration": 200, "velocity": 120}, {"time": 50880, "pitch": 45, "duration": 200, "velocity": 120}, {"time": 51120, "pitch": 45, "duration": 200, "velocity": 120}, {"time": 51360, "pitch": 45, "duration": 200, "velocity": 120}, {"time": 51600, "pitch": 45, "duration": 200, "velocity": 120}, {"time": 51840, "pitch": 44, "duration": 200, "velocity": 120}, {"time": 52080, "pitch": 44, "duration": 200, "velocity": 120}, {"time": 52320, "pitch": 44, "duration": 200, "velocity": 120}, {"time": 52560, "pitch": 44, "duration": 200, "velocity": 120}, {"time": 52800, "pitch": 44, "duration": 200, "velocity": 120}, {"time": 53040, "pitch": 44, "duration": 200, "velocity": 120}, {"time": 53280, "pitch": 44, "duration": 200, "velocity": 120}, {"time": 53520, "pitch": 44, "duration": 200, "velocity": 120}, {"time": 53760, "pitch": 44, "duration": 200, "velocity": 120}, {"time": 54000, "pitch": 44, "duration": 200, "velocity": 120}, {"time": 54240, "pitch": 44, "duration": 200, "velocity": 120}, {"time": 54480, "pitch": 44, "duration": 200, "velocity": 120}, {"time": 54720, "pitch": 44, "duration": 200, "velocity": 120}, {"time": 54960, "pitch": 44, "duration": 200, "velocity": 120}, {"time": 55200, "pitch": 44, "duration": 200, "velocity": 120}, {"time": 55440, "pitch": 44, "duration": 200, "velocity": 120}, {"time": 55680, "pitch": 42, "duration": 200, "velocity": 120}, {"time": 55920, "pitch": 42, "duration": 200, "velocity": 120}, {"time": 56160, "pitch": 42, "duration": 200, "velocity": 120}, {"time": 56400, "pitch": 42, "duration": 200, "velocity": 120}, {"time": 56640, "pitch": 42, "duration": 200, "velocity": 120}, {"time": 56880, "pitch": 42, "duration": 200, "velocity": 120}, {"time": 57120, "pitch": 42, "duration": 200, "velocity": 120}, {"time": 57360, "pitch": 42, "duration": 200, "velocity": 120}, {"time": 57600, "pitch": 42, "duration": 200, "velocity": 120}, {"time": 57840, "pitch": 42, "duration": 200, "velocity": 120}, {"time": 58080, "pitch": 42, "duration": 200, "velocity": 120}, {"time": 58320, "pitch": 42, "duration": 200, "velocity": 120}, {"time": 58560, "pitch": 42, "duration": 200, "velocity": 120}, {"time": 58800, "pitch": 42, "duration": 200, "velocity": 120}, {"time": 59040, "pitch": 42, "duration": 200, "velocity": 120}, {"time": 59280, "pitch": 42, "duration": 200, "velocity": 120}, {"time": 59520, "pitch": 47, "duration": 200, "velocity": 120}, {"time": 59760, "pitch": 47, "duration": 200, "velocity": 120}, {"time": 60000, "pitch": 47, "duration": 200, "velocity": 120}, {"time": 60240, "pitch": 47, "duration": 200, "velocity": 120}, {"time": 60480, "pitch": 47, "duration": 200, "velocity": 120}, {"time": 60720, "pitch": 47, "duration": 200, "velocity": 120}, {"time": 60960, "pitch": 47, "duration": 200, "velocity": 120}, {"time": 61200, "pitch": 47, "duration": 200, "velocity": 120}, {"time": 61440, "pitch": 47, "duration": 200, "velocity": 120}, {"time": 61680, "pitch": 47, "duration": 200, "velocity": 120}, {"time": 61920, "pitch": 47, "duration": 200, "velocity": 120}, {"time": 62160, "pitch": 47, "duration": 200, "velocity": 120}, {"time": 62400, "pitch": 47, "duration": 200, "velocity": 120}, {"time": 62640, "pitch": 47, "duration": 200, "velocity": 120}, {"time": 62880, "pitch": 47, "duration": 200, "velocity": 120}, {"time": 63120, "pitch": 47, "duration": 200, "velocity": 120}, {"time": 63360, "pitch": 45, "duration": 200, "velocity": 120}, {"time": 63600, "pitch": 45, "duration": 200, "velocity": 120}, {"time": 63840, "pitch": 44, "duration": 200, "velocity": 120}, {"time": 64080, "pitch": 45, "duration": 200, "velocity": 120}, {"time": 64320, "pitch": 45, "duration": 200, "velocity": 120}, {"time": 64560, "pitch": 44, "duration": 200, "velocity": 120}, {"time": 64800, "pitch": 45, "duration": 200, "velocity": 120}, {"time": 65040, "pitch": 44, "duration": 200, "velocity": 120}, {"time": 65280, "pitch": 45, "duration": 200, "velocity": 120}, {"time": 65520, "pitch": 45, "duration": 200, "velocity": 120}, {"time": 65760, "pitch": 44, "duration": 200, "velocity": 120}, {"time": 66000, "pitch": 45, "duration": 200, "velocity": 120}, {"time": 66240, "pitch": 45, "duration": 200, "velocity": 120}, {"time": 66480, "pitch": 44, "duration": 200, "velocity": 120}, {"time": 66720, "pitch": 42, "duration": 200, "velocity": 120}, {"time": 66960, "pitch": 40, "duration": 200, "velocity": 120}, {"time": 67200, "pitch": 40, "duration": 200, "velocity": 120}, {"time": 67440, "pitch": 40, "duration": 200, "velocity": 120}, {"time": 67680, "pitch": 39, "duration": 200, "velocity": 120}, {"time": 67920, "pitch": 40, "duration": 200, "velocity": 120}, {"time": 68160, "pitch": 40, "duration": 200, "velocity": 120}, {"time": 68400, "pitch": 39, "duration": 200, "velocity": 120}, {"time": 68640, "pitch": 40, "duration": 200, "velocity": 120}, {"time": 68880, "pitch": 39, "duration": 200, "velocity": 120}, {"time": 69120, "pitch": 40, "duration": 200, "velocity": 120}, {"time": 69360, "pitch": 40, "duration": 200, "velocity": 120}, {"time": 69600, "pitch": 39, "duration": 200, "velocity": 120}, {"time": 69840, "pitch": 40, "duration": 200, "velocity": 120}, {"time": 70080, "pitch": 40, "duration": 200, "velocity": 120}, {"time": 70320, "pitch": 42, "duration": 200, "velocity": 120}, {"time": 70560, "pitch": 44, "duration": 200, "velocity": 120}, {"time": 70800, "pitch": 40, "duration": 200, "velocity": 120}, {"time": 71040, "pitch": 45, "duration": 200, "velocity": 120}, {"time": 71280, "pitch": 45, "duration": 200, "velocity": 120}, {"time": 71520, "pitch": 44, "duration": 200, "velocity": 120}, {"time": 71760, "pitch": 45, "duration": 200, "velocity": 120}, {"time": 72000, "pitch": 45, "duration": 200, "velocity": 120}, {"time": 72240, "pitch": 44, "duration": 200, "velocity": 120}, {"time": 72480, "pitch": 45, "duration": 200, "velocity": 120}, {"time": 72720, "pitch": 44, "duration": 200, "velocity": 120}, {"time": 72960, "pitch": 45, "duration": 200, "velocity": 120}, {"time": 73200, "pitch": 45, "duration": 200, "velocity": 120}, {"time": 73440, "pitch": 44, "duration": 200, "velocity": 120}, {"time": 73680, "pitch": 45, "duration": 200, "velocity": 120}, {"time": 73920, "pitch": 45, "duration": 200, "velocity": 120}, {"time": 74160, "pitch": 44, "duration": 200, "velocity": 120}, {"time": 74400, "pitch": 42, "duration": 200, "velocity": 120}, {"time": 74640, "pitch": 40, "duration": 200, "velocity": 120}, {"time": 74880, "pitch": 40, "duration": 200, "velocity": 120}, {"time": 75120, "pitch": 40, "duration": 200, "velocity": 120}, {"time": 75360, "pitch": 39, "duration": 200, "velocity": 120}, {"time": 75600, "pitch": 40, "duration": 200, "velocity": 120}, {"time": 75840, "pitch": 40, "duration": 200, "velocity": 120}, {"time": 76080, "pitch": 39, "duration": 200, "velocity": 120}, {"time": 76320, "pitch": 40, "duration": 200, "velocity": 120}, {"time": 76560, "pitch": 39, "duration": 200, "velocity": 120}, {"time": 76800, "pitch": 40, "duration": 200, "velocity": 120}, {"time": 77040, "pitch": 40, "duration": 200, "velocity": 120}, {"time": 77280, "pitch": 39, "duration": 200, "velocity": 120}, {"time": 77520, "pitch": 40, "duration": 200, "velocity": 120}, {"time": 77760, "pitch": 40, "duration": 200, "velocity": 120}, {"time": 78000, "pitch": 42, "duration": 200, "velocity": 120}, {"time": 78240, "pitch": 44, "duration": 200, "velocity": 120}, {"time": 78480, "pitch": 40, "duration": 200, "velocity": 120}, {"time": 78720, "pitch": 45, "duration": 200, "velocity": 120}, {"time": 78960, "pitch": 45, "duration": 200, "velocity": 120}, {"time": 79200, "pitch": 45, "duration": 200, "velocity": 120}, {"time": 79440, "pitch": 45, "duration": 200, "velocity": 120}, {"time": 79680, "pitch": 45, "duration": 200, "velocity": 120}, {"time": 79920, "pitch": 45, "duration": 200, "velocity": 120}, {"time": 80160, "pitch": 45, "duration": 200, "velocity": 120}, {"time": 80400, "pitch": 45, "duration": 200, "velocity": 120}, {"time": 80640, "pitch": 45, "duration": 200, "velocity": 120}, {"time": 80880, "pitch": 45, "duration": 200, "velocity": 120}, {"time": 81120, "pitch": 45, "duration": 200, "velocity": 120}, {"time": 81360, "pitch": 45, "duration": 200, "velocity": 120}, {"time": 81600, "pitch": 45, "duration": 200, "velocity": 120}, {"time": 81840, "pitch": 45, "duration": 200, "velocity": 120}, {"time": 82080, "pitch": 45, "duration": 200, "velocity": 120}, {"time": 82320, "pitch": 45, "duration": 200, "velocity": 120}, {"time": 82560, "pitch": 44, "duration": 200, "velocity": 120}, {"time": 82800, "pitch": 44, "duration": 200, "velocity": 120}, {"time": 83040, "pitch": 44, "duration": 200, "velocity": 120}, {"time": 83280, "pitch": 44, "duration": 200, "velocity": 120}, {"time": 83520, "pitch": 44, "duration": 200, "velocity": 120}, {"time": 83760, "pitch": 44, "duration": 200, "velocity": 120}, {"time": 84000, "pitch": 44, "duration": 200, "velocity": 120}, {"time": 84240, "pitch": 44, "duration": 200, "velocity": 120}, {"time": 84480, "pitch": 44, "duration": 200, "velocity": 120}, {"time": 84720, "pitch": 44, "duration": 200, "velocity": 120}, {"time": 84960, "pitch": 44, "duration": 200, "velocity": 120}, {"time": 85200, "pitch": 44, "duration": 200, "velocity": 120}, {"time": 85440, "pitch": 44, "duration": 200, "velocity": 120}, {"time": 85680, "pitch": 44, "duration": 200, "velocity": 120}, {"time": 85920, "pitch": 44, "duration": 200, "velocity": 120}, {"time": 86160, "pitch": 44, "duration": 200, "velocity": 120}, {"time": 86400, "pitch": 42, "duration": 200, "velocity": 120}, {"time": 86640, "pitch": 42, "duration": 200, "velocity": 120}, {"time": 86880, "pitch": 42, "duration": 200, "velocity": 120}, {"time": 87120, "pitch": 42, "duration": 200, "velocity": 120}, {"time": 87360, "pitch": 42, "duration": 200, "velocity": 120}, {"time": 87600, "pitch": 42, "duration": 200, "velocity": 120}, {"time": 87840, "pitch": 42, "duration": 200, "velocity": 120}, {"time": 88080, "pitch": 42, "duration": 200, "velocity": 120}, {"time": 88320, "pitch": 42, "duration": 200, "velocity": 120}, {"time": 88560, "pitch": 42, "duration": 200, "velocity": 120}, {"time": 88800, "pitch": 42, "duration": 200, "velocity": 120}, {"time": 89040, "pitch": 42, "duration": 200, "velocity": 120}, {"time": 89280, "pitch": 42, "duration": 200, "velocity": 120}, {"time": 89520, "pitch": 42, "duration": 200, "velocity": 120}, {"time": 89760, "pitch": 42, "duration": 200, "velocity": 120}, {"time": 90000, "pitch": 42, "duration": 200, "velocity": 120}, {"time": 90240, "pitch": 47, "duration": 200, "velocity": 120}, {"time": 90480, "pitch": 47, "duration": 200, "velocity": 120}, {"time": 90720, "pitch": 47, "duration": 200, "velocity": 120}, {"time": 90960, "pitch": 47, "duration": 200, "velocity": 120}, {"time": 91200, "pitch": 47, "duration": 200, "velocity": 120}, {"time": 91440, "pitch": 47, "duration": 200, "velocity": 120}, {"time": 91680, "pitch": 47, "duration": 200, "velocity": 120}, {"time": 91920, "pitch": 47, "duration": 200, "velocity": 120}, {"time": 92160, "pitch": 47, "duration": 200, "velocity": 120}, {"time": 92400, "pitch": 47, "duration": 200, "velocity": 120}, {"time": 92640, "pitch": 47, "duration": 200, "velocity": 120}, {"time": 92880, "pitch": 47, "duration": 200, "velocity": 120}, {"time": 93120, "pitch": 47, "duration": 200, "velocity": 120}, {"time": 93360, "pitch": 47, "duration": 200, "velocity": 120}, {"time": 93600, "pitch": 47, "duration": 200, "velocity": 120}, {"time": 93840, "pitch": 47, "duration": 200, "velocity": 120}, {"time": 94080, "pitch": 40, "duration": 200, "velocity": 120}, {"time": 94320, "pitch": 40, "duration": 200, "velocity": 120}, {"time": 94560, "pitch": 39, "duration": 200, "velocity": 120}, {"time": 94800, "pitch": 40, "duration": 200, "velocity": 120}, {"time": 95040, "pitch": 40, "duration": 200, "velocity": 120}, {"time": 95280, "pitch": 39, "duration": 200, "velocity": 120}, {"time": 95520, "pitch": 40, "duration": 200, "velocity": 120}, {"time": 95760, "pitch": 39, "duration": 200, "velocity": 120}, {"time": 96000, "pitch": 47, "duration": 200, "velocity": 120}, {"time": 96240, "pitch": 47, "duration": 200, "velocity": 120}, {"time": 96480, "pitch": 47, "duration": 200, "velocity": 120}, {"time": 96720, "pitch": 47, "duration": 200, "velocity": 120}, {"time": 96960, "pitch": 47, "duration": 200, "velocity": 120}, {"time": 97200, "pitch": 47, "duration": 200, "velocity": 120}, {"time": 97440, "pitch": 47, "duration": 200, "velocity": 120}, {"time": 97680, "pitch": 47, "duration": 200, "velocity": 120}, {"time": 97920, "pitch": 45, "duration": 200, "velocity": 120}, {"time": 98160, "pitch": 45, "duration": 200, "velocity": 120}, {"time": 98400, "pitch": 45, "duration": 200, "velocity": 120}, {"time": 98640, "pitch": 45, "duration": 200, "velocity": 120}, {"time": 98880, "pitch": 45, "duration": 200, "velocity": 120}, {"time": 99120, "pitch": 45, "duration": 200, "velocity": 120}, {"time": 99360, "pitch": 45, "duration": 200, "velocity": 120}, {"time": 99600, "pitch": 45, "duration": 200, "velocity": 120}, {"time": 99840, "pitch": 47, "duration": 200, "velocity": 120}, {"time": 100080, "pitch": 47, "duration": 200, "velocity": 120}, {"time": 100320, "pitch": 47, "duration": 200, "velocity": 120}, {"time": 100560, "pitch": 47, "duration": 200, "velocity": 120}, {"time": 100800, "pitch": 47, "duration": 200, "velocity": 120}, {"time": 101040, "pitch": 47, "duration": 200, "velocity": 120}, {"time": 101280, "pitch": 47, "duration": 200, "velocity": 120}, {"time": 101520, "pitch": 47, "duration": 200, "velocity": 120}, {"time": 101760, "pitch": 40, "duration": 200, "velocity": 120}, {"time": 102000, "pitch": 40, "duration": 200, "velocity": 120}, {"time": 102240, "pitch": 39, "duration": 200, "velocity": 120}, {"time": 102480, "pitch": 40, "duration": 200, "velocity": 120}, {"time": 102720, "pitch": 40, "duration": 200, "velocity": 120}, {"time": 102960, "pitch": 39, "duration": 200, "velocity": 120}, {"time": 103200, "pitch": 40, "duration": 200, "velocity": 120}, {"time": 103440, "pitch": 39, "duration": 200, "velocity": 120}, {"time": 103680, "pitch": 47, "duration": 200, "velocity": 120}, {"time": 103920, "pitch": 47, "duration": 200, "velocity": 120}, {"time": 104160, "pitch": 47, "duration": 200, "velocity": 120}, {"time": 104400, "pitch": 47, "duration": 200, "velocity": 120}, {"time": 104640, "pitch": 47, "duration": 200, "velocity": 120}, {"time": 104880, "pitch": 47, "duration": 200, "velocity": 120}, {"time": 105120, "pitch": 47, "duration": 200, "velocity": 120}, {"time": 105360, "pitch": 47, "duration": 200, "velocity": 120}, {"time": 105600, "pitch": 45, "duration": 200, "velocity": 120}, {"time": 105840, "pitch": 45, "duration": 200, "velocity": 120}, {"time": 106080, "pitch": 45, "duration": 200, "velocity": 120}, {"time": 106320, "pitch": 45, "duration": 200, "velocity": 120}, {"time": 106560, "pitch": 45, "duration": 200, "velocity": 120}, {"time": 106800, "pitch": 45, "duration": 200, "velocity": 120}, {"time": 107040, "pitch": 45, "duration": 200, "velocity": 120}, {"time": 107280, "pitch": 45, "duration": 200, "velocity": 120}, {"time": 107520, "pitch": 47, "duration": 200, "velocity": 120}, {"time": 107760, "pitch": 47, "duration": 200, "velocity": 120}, {"time": 108000, "pitch": 47, "duration": 200, "velocity": 120}, {"time": 108240, "pitch": 47, "duration": 200, "velocity": 120}, {"time": 108480, "pitch": 47, "duration": 200, "velocity": 120}, {"time": 108720, "pitch": 47, "duration": 200, "velocity": 120}, {"time": 108960, "pitch": 47, "duration": 200, "velocity": 120}, {"time": 109200, "pitch": 47, "duration": 200, "velocity": 120}, {"time": 109440, "pitch": 40, "duration": 200, "velocity": 120}, {"time": 109680, "pitch": 40, "duration": 200, "velocity": 120}, {"time": 109920, "pitch": 39, "duration": 200, "velocity": 120}, {"time": 110160, "pitch": 40, "duration": 200, "velocity": 120}, {"time": 110400, "pitch": 40, "duration": 200, "velocity": 120}, {"time": 110640, "pitch": 39, "duration": 200, "velocity": 120}, {"time": 110880, "pitch": 40, "duration": 200, "velocity": 120}, {"time": 111120, "pitch": 39, "duration": 200, "velocity": 120}, {"time": 111360, "pitch": 47, "duration": 200, "velocity": 120}, {"time": 111600, "pitch": 47, "duration": 200, "velocity": 120}, {"time": 111840, "pitch": 47, "duration": 200, "velocity": 120}, {"time": 112080, "pitch": 47, "duration": 200, "velocity": 120}, {"time": 112320, "pitch": 47, "duration": 200, "velocity": 120}, {"time": 112560, "pitch": 47, "duration": 200, "velocity": 120}, {"time": 112800, "pitch": 47, "duration": 200, "velocity": 120}, {"time": 113040, "pitch": 47, "duration": 200, "velocity": 120}, {"time": 113280, "pitch": 45, "duration": 200, "velocity": 120}, {"time": 113520, "pitch": 45, "duration": 200, "velocity": 120}, {"time": 113760, "pitch": 45, "duration": 200, "velocity": 120}, {"time": 114000, "pitch": 45, "duration": 200, "velocity": 120}, {"time": 114240, "pitch": 45, "duration": 200, "velocity": 120}, {"time": 114480, "pitch": 45, "duration": 200, "velocity": 120}, {"time": 114720, "pitch": 45, "duration": 200, "velocity": 120}, {"time": 114960, "pitch": 45, "duration": 200, "velocity": 120}, {"time": 115200, "pitch": 47, "duration": 200, "velocity": 120}, {"time": 115440, "pitch": 47, "duration": 200, "velocity": 120}, {"time": 115680, "pitch": 47, "duration": 200, "velocity": 120}, {"time": 115920, "pitch": 47, "duration": 200, "velocity": 120}, {"time": 116160, "pitch": 47, "duration": 200, "velocity": 120}, {"time": 116400, "pitch": 47, "duration": 200, "velocity": 120}, {"time": 116640, "pitch": 47, "duration": 200, "velocity": 120}, {"time": 116880, "pitch": 47, "duration": 200, "velocity": 120}, {"time": 117120, "pitch": 45, "duration": 200, "velocity": 120}, {"time": 117360, "pitch": 45, "duration": 200, "velocity": 120}, {"time": 117600, "pitch": 45, "duration": 200, "velocity": 120}, {"time": 117840, "pitch": 45, "duration": 200, "velocity": 120}, {"time": 118080, "pitch": 45, "duration": 200, "velocity": 120}, {"time": 118320, "pitch": 45, "duration": 200, "velocity": 120}, {"time": 118560, "pitch": 45, "duration": 200, "velocity": 120}, {"time": 118800, "pitch": 45, "duration": 200, "velocity": 120}, {"time": 119040, "pitch": 47, "duration": 200, "velocity": 120}, {"time": 119280, "pitch": 47, "duration": 200, "velocity": 120}, {"time": 119520, "pitch": 47, "duration": 200, "velocity": 120}, {"time": 119760, "pitch": 47, "duration": 200, "velocity": 120}, {"time": 120000, "pitch": 47, "duration": 200, "velocity": 120}, {"time": 120240, "pitch": 47, "duration": 200, "velocity": 120}, {"time": 120480, "pitch": 47, "duration": 200, "velocity": 120}, {"time": 120720, "pitch": 47, "duration": 200, "velocity": 120}, {"time": 120960, "pitch": 45, "duration": 200, "velocity": 120}, {"time": 121200, "pitch": 45, "duration": 200, "velocity": 120}, {"time": 121440, "pitch": 45, "duration": 200, "velocity": 120}, {"time": 121680, "pitch": 45, "duration": 200, "velocity": 120}, {"time": 121920, "pitch": 45, "duration": 200, "velocity": 120}, {"time": 122160, "pitch": 45, "duration": 200, "velocity": 120}, {"time": 122400, "pitch": 45, "duration": 200, "velocity": 120}, {"time": 122640, "pitch": 45, "duration": 200, "velocity": 120}, {"time": 122880, "pitch": 47, "duration": 200, "velocity": 120}, {"time": 123120, "pitch": 47, "duration": 200, "velocity": 120}, {"time": 123360, "pitch": 47, "duration": 200, "velocity": 120}, {"time": 123600, "pitch": 47, "duration": 200, "velocity": 120}, {"time": 123840, "pitch": 47, "duration": 200, "velocity": 120}, {"time": 124080, "pitch": 47, "duration": 200, "velocity": 120}, {"time": 124320, "pitch": 47, "duration": 200, "velocity": 120}, {"time": 124560, "pitch": 47, "duration": 200, "velocity": 120}, {"time": 124800, "pitch": 45, "duration": 200, "velocity": 120}, {"time": 125040, "pitch": 45, "duration": 200, "velocity": 120}, {"time": 125280, "pitch": 45, "duration": 200, "velocity": 120}, {"time": 125520, "pitch": 45, "duration": 200, "velocity": 120}, {"time": 125760, "pitch": 45, "duration": 200, "velocity": 120}, {"time": 126000, "pitch": 45, "duration": 200, "velocity": 120}, {"time": 126240, "pitch": 45, "duration": 200, "velocity": 120}, {"time": 126480, "pitch": 45, "duration": 200, "velocity": 120}, {"time": 126720, "pitch": 47, "duration": 200, "velocity": 120}, {"time": 126960, "pitch": 47, "duration": 200, "velocity": 120}, {"time": 127200, "pitch": 47, "duration": 200, "velocity": 120}, {"time": 127440, "pitch": 47, "duration": 200, "velocity": 120}, {"time": 127680, "pitch": 47, "duration": 200, "velocity": 120}, {"time": 127920, "pitch": 47, "duration": 200, "velocity": 120}, {"time": 128160, "pitch": 47, "duration": 200, "velocity": 120}, {"time": 128400, "pitch": 47, "duration": 200, "velocity": 120}, {"time": 128640, "pitch": 40, "duration": 200, "velocity": 120}, {"time": 128880, "pitch": 40, "duration": 200, "velocity": 120}, {"time": 129120, "pitch": 39, "duration": 200, "velocity": 120}, {"time": 129360, "pitch": 40, "duration": 200, "velocity": 120}, {"time": 129600, "pitch": 40, "duration": 200, "velocity": 120}, {"time": 129840, "pitch": 39, "duration": 200, "velocity": 120}, {"time": 130080, "pitch": 40, "duration": 200, "velocity": 120}, {"time": 130320, "pitch": 39, "duration": 200, "velocity": 120}, {"time": 130560, "pitch": 40, "duration": 200, "velocity": 120}, {"time": 130800, "pitch": 40, "duration": 200, "velocity": 120}, {"time": 131040, "pitch": 39, "duration": 200, "velocity": 120}, {"time": 131280, "pitch": 40, "duration": 200, "velocity": 120}, {"time": 131520, "pitch": 40, "duration": 200, "velocity": 120}, {"time": 131760, "pitch": 39, "duration": 200, "velocity": 120}, {"time": 132000, "pitch": 40, "duration": 200, "velocity": 120}, {"time": 132240, "pitch": 39, "duration": 200, "velocity": 120}, {"time": 132480, "pitch": 40, "duration": 200, "velocity": 120}, {"time": 132720, "pitch": 40, "duration": 200, "velocity": 120}, {"time": 132960, "pitch": 39, "duration": 200, "velocity": 120}, {"time": 133200, "pitch": 40, "duration": 200, "velocity": 120}, {"time": 133440, "pitch": 40, "duration": 200, "velocity": 120}, {"time": 133680, "pitch": 39, "duration": 200, "velocity": 120}, {"time": 133920, "pitch": 40, "duration": 200, "velocity": 120}, {"time": 134160, "pitch": 39, "duration": 200, "velocity": 120}, {"time": 134400, "pitch": 40, "duration": 200, "velocity": 120}, {"time": 134640, "pitch": 40, "duration": 200, "velocity": 120}, {"time": 134880, "pitch": 39, "duration": 200, "velocity": 120}, {"time": 135120, "pitch": 40, "duration": 200, "velocity": 120}, {"time": 135360, "pitch": 40, "duration": 200, "velocity": 120}, {"time": 135600, "pitch": 39, "duration": 200, "velocity": 120}, {"time": 135840, "pitch": 40, "duration": 200, "velocity": 120}, {"time": 136080, "pitch": 39, "duration": 200, "velocity": 120}, {"time": 144000, "pitch": 45, "duration": 200, "velocity": 120}, {"time": 144240, "pitch": 45, "duration": 200, "velocity": 120}, {"time": 144480, "pitch": 44, "duration": 200, "velocity": 120}, {"time": 144720, "pitch": 45, "duration": 200, "velocity": 120}, {"time": 144960, "pitch": 45, "duration": 200, "velocity": 120}, {"time": 145200, "pitch": 44, "duration": 200, "velocity": 120}, {"time": 145440, "pitch": 45, "duration": 200, "velocity": 120}, {"time": 145680, "pitch": 44, "duration": 200, "velocity": 120}, {"time": 145920, "pitch": 45, "duration": 200, "velocity": 120}, {"time": 146160, "pitch": 45, "duration": 200, "velocity": 120}, {"time": 146400, "pitch": 44, "duration": 200, "velocity": 120}, {"time": 146640, "pitch": 45, "duration": 200, "velocity": 120}, {"time": 146880, "pitch": 45, "duration": 200, "velocity": 120}, {"time": 147120, "pitch": 44, "duration": 200, "velocity": 120}, {"time": 147360, "pitch": 42, "duration": 200, "velocity": 120}, {"time": 147600, "pitch": 40, "duration": 200, "velocity": 120}, {"time": 147840, "pitch": 40, "duration": 200, "velocity": 120}, {"time": 148080, "pitch": 40, "duration": 200, "velocity": 120}, {"time": 148320, "pitch": 39, "duration": 200, "velocity": 120}, {"time": 148560, "pitch": 40, "duration": 200, "velocity": 120}, {"time": 148800, "pitch": 40, "duration": 200, "velocity": 120}, {"time": 149040, "pitch": 39, "duration": 200, "velocity": 120}, {"time": 149280, "pitch": 40, "duration": 200, "velocity": 120}, {"time": 149520, "pitch": 39, "duration": 200, "velocity": 120}, {"time": 149760, "pitch": 40, "duration": 200, "velocity": 120}, {"time": 150000, "pitch": 40, "duration": 200, "velocity": 120}, {"time": 150240, "pitch": 39, "duration": 200, "velocity": 120}, {"time": 150480, "pitch": 40, "duration": 200, "velocity": 120}, {"time": 150720, "pitch": 40, "duration": 200, "velocity": 120}, {"time": 150960, "pitch": 42, "duration": 200, "velocity": 120}, {"time": 151200, "pitch": 44, "duration": 200, "velocity": 120}, {"time": 151440, "pitch": 40, "duration": 200, "velocity": 120}, {"time": 151680, "pitch": 45, "duration": 200, "velocity": 120}, {"time": 151920, "pitch": 45, "duration": 200, "velocity": 120}, {"time": 152160, "pitch": 44, "duration": 200, "velocity": 120}, {"time": 152400, "pitch": 45, "duration": 200, "velocity": 120}, {"time": 152640, "pitch": 45, "duration": 200, "velocity": 120}, {"time": 152880, "pitch": 44, "duration": 200, "velocity": 120}, {"time": 153120, "pitch": 45, "duration": 200, "velocity": 120}, {"time": 153360, "pitch": 44, "duration": 200, "velocity": 120}, {"time": 153600, "pitch": 45, "duration": 200, "velocity": 120}, {"time": 153840, "pitch": 45, "duration": 200, "velocity": 120}, {"time": 154080, "pitch": 44, "duration": 200, "velocity": 120}, {"time": 154320, "pitch": 45, "duration": 200, "velocity": 120}, {"time": 154560, "pitch": 45, "duration": 200, "velocity": 120}, {"time": 154800, "pitch": 44, "duration": 200, "velocity": 120}, {"time": 155040, "pitch": 42, "duration": 200, "velocity": 120}, {"time": 155280, "pitch": 40, "duration": 200, "velocity": 120}, {"time": 155520, "pitch": 40, "duration": 200, "velocity": 120}, {"time": 155760, "pitch": 40, "duration": 200, "velocity": 120}, {"time": 156000, "pitch": 39, "duration": 200, "velocity": 120}, {"time": 156240, "pitch": 40, "duration": 200, "velocity": 120}, {"time": 156480, "pitch": 40, "duration": 200, "velocity": 120}, {"time": 156720, "pitch": 39, "duration": 200, "velocity": 120}, {"time": 156960, "pitch": 40, "duration": 200, "velocity": 120}, {"time": 157200, "pitch": 39, "duration": 200, "velocity": 120}, {"time": 157440, "pitch": 40, "duration": 200, "velocity": 120}, {"time": 157680, "pitch": 40, "duration": 200, "velocity": 120}, {"time": 157920, "pitch": 39, "duration": 200, "velocity": 120}, {"time": 158160, "pitch": 40, "duration": 200, "velocity": 120}, {"time": 158400, "pitch": 40, "duration": 200, "velocity": 120}, {"time": 158640, "pitch": 42, "duration": 200, "velocity": 120}, {"time": 158880, "pitch": 44, "duration": 200, "velocity": 120}, {"time": 159120, "pitch": 40, "duration": 200, "velocity": 120}, {"time": 159360, "pitch": 45, "duration": 200, "velocity": 120}, {"time": 159600, "pitch": 45, "duration": 200, "velocity": 120}, {"time": 159840, "pitch": 45, "duration": 200, "velocity": 120}, {"time": 160080, "pitch": 45, "duration": 200, "velocity": 120}, {"time": 160320, "pitch": 45, "duration": 200, "velocity": 120}, {"time": 160560, "pitch": 45, "duration": 200, "velocity": 120}, {"time": 160800, "pitch": 45, "duration": 200, "velocity": 120}, {"time": 161040, "pitch": 45, "duration": 200, "velocity": 120}, {"time": 161280, "pitch": 45, "duration": 200, "velocity": 120}, {"time": 161520, "pitch": 45, "duration": 200, "velocity": 120}, {"time": 161760, "pitch": 45, "duration": 200, "velocity": 120}, {"time": 162000, "pitch": 45, "duration": 200, "velocity": 120}, {"time": 162240, "pitch": 45, "duration": 200, "velocity": 120}, {"time": 162480, "pitch": 45, "duration": 200, "velocity": 120}, {"time": 162720, "pitch": 45, "duration": 200, "velocity": 120}, {"time": 162960, "pitch": 45, "duration": 200, "velocity": 120}, {"time": 163200, "pitch": 44, "duration": 200, "velocity": 120}, {"time": 163440, "pitch": 44, "duration": 200, "velocity": 120}, {"time": 163680, "pitch": 44, "duration": 200, "velocity": 120}, {"time": 163920, "pitch": 44, "duration": 200, "velocity": 120}, {"time": 164160, "pitch": 44, "duration": 200, "velocity": 120}, {"time": 164400, "pitch": 44, "duration": 200, "velocity": 120}, {"time": 164640, "pitch": 44, "duration": 200, "velocity": 120}, {"time": 164880, "pitch": 44, "duration": 200, "velocity": 120}, {"time": 165120, "pitch": 44, "duration": 200, "velocity": 120}, {"time": 165360, "pitch": 44, "duration": 200, "velocity": 120}, {"time": 165600, "pitch": 44, "duration": 200, "velocity": 120}, {"time": 165840, "pitch": 44, "duration": 200, "velocity": 120}, {"time": 166080, "pitch": 44, "duration": 200, "velocity": 120}, {"time": 166320, "pitch": 44, "duration": 200, "velocity": 120}, {"time": 166560, "pitch": 44, "duration": 200, "velocity": 120}, {"time": 166800, "pitch": 44, "duration": 200, "velocity": 120}, {"time": 167040, "pitch": 42, "duration": 200, "velocity": 120}, {"time": 167280, "pitch": 42, "duration": 200, "velocity": 120}, {"time": 167520, "pitch": 42, "duration": 200, "velocity": 120}, {"time": 167760, "pitch": 42, "duration": 200, "velocity": 120}, {"time": 168000, "pitch": 42, "duration": 200, "velocity": 120}, {"time": 168240, "pitch": 42, "duration": 200, "velocity": 120}, {"time": 168480, "pitch": 42, "duration": 200, "velocity": 120}, {"time": 168720, "pitch": 42, "duration": 200, "velocity": 120}, {"time": 168960, "pitch": 42, "duration": 200, "velocity": 120}, {"time": 169200, "pitch": 42, "duration": 200, "velocity": 120}, {"time": 169440, "pitch": 42, "duration": 200, "velocity": 120}, {"time": 169680, "pitch": 42, "duration": 200, "velocity": 120}, {"time": 169920, "pitch": 42, "duration": 200, "velocity": 120}, {"time": 170160, "pitch": 42, "duration": 200, "velocity": 120}, {"time": 170400, "pitch": 42, "duration": 200, "velocity": 120}, {"time": 170640, "pitch": 42, "duration": 200, "velocity": 120}, {"time": 170880, "pitch": 47, "duration": 200, "velocity": 120}, {"time": 171120, "pitch": 47, "duration": 200, "velocity": 120}, {"time": 171360, "pitch": 47, "duration": 200, "velocity": 120}, {"time": 171600, "pitch": 47, "duration": 200, "velocity": 120}, {"time": 171840, "pitch": 47, "duration": 200, "velocity": 120}, {"time": 172080, "pitch": 47, "duration": 200, "velocity": 120}, {"time": 172320, "pitch": 47, "duration": 200, "velocity": 120}, {"time": 172560, "pitch": 47, "duration": 200, "velocity": 120}, {"time": 172800, "pitch": 47, "duration": 200, "velocity": 120}, {"time": 173040, "pitch": 47, "duration": 200, "velocity": 120}, {"time": 173280, "pitch": 47, "duration": 200, "velocity": 120}, {"time": 173520, "pitch": 47, "duration": 200, "velocity": 120}, {"time": 173760, "pitch": 47, "duration": 200, "velocity": 120}, {"time": 174000, "pitch": 47, "duration": 200, "velocity": 120}, {"time": 174240, "pitch": 47, "duration": 200, "velocity": 120}, {"time": 174480, "pitch": 47, "duration": 200, "velocity": 120}, {"time": 174720, "pitch": 45, "duration": 200, "velocity": 120}, {"time": 174960, "pitch": 45, "duration": 200, "velocity": 120}, {"time": 175200, "pitch": 44, "duration": 200, "velocity": 120}, {"time": 175440, "pitch": 45, "duration": 200, "velocity": 120}, {"time": 175680, "pitch": 45, "duration": 200, "velocity": 120}, {"time": 175920, "pitch": 44, "duration": 200, "velocity": 120}, {"time": 176160, "pitch": 45, "duration": 200, "velocity": 120}, {"time": 176400, "pitch": 44, "duration": 200, "velocity": 120}, {"time": 176640, "pitch": 45, "duration": 200, "velocity": 120}, {"time": 176880, "pitch": 45, "duration": 200, "velocity": 120}, {"time": 177120, "pitch": 44, "duration": 200, "velocity": 120}, {"time": 177360, "pitch": 45, "duration": 200, "velocity": 120}, {"time": 177600, "pitch": 45, "duration": 200, "velocity": 120}, {"time": 177840, "pitch": 44, "duration": 200, "velocity": 120}, {"time": 178080, "pitch": 42, "duration": 200, "velocity": 120}, {"time": 178320, "pitch": 40, "duration": 200, "velocity": 120}, {"time": 178560, "pitch": 40, "duration": 200, "velocity": 120}, {"time": 178800, "pitch": 40, "duration": 200, "velocity": 120}, {"time": 179040, "pitch": 39, "duration": 200, "velocity": 120}, {"time": 179280, "pitch": 40, "duration": 200, "velocity": 120}, {"time": 179520, "pitch": 40, "duration": 200, "velocity": 120}, {"time": 179760, "pitch": 39, "duration": 200, "velocity": 120}, {"time": 180000, "pitch": 40, "duration": 200, "velocity": 120}, {"time": 180240, "pitch": 39, "duration": 200, "velocity": 120}, {"time": 180480, "pitch": 40, "duration": 200, "velocity": 120}, {"time": 180720, "pitch": 40, "duration": 200, "velocity": 120}, {"time": 180960, "pitch": 39, "duration": 200, "velocity": 120}, {"time": 181200, "pitch": 40, "duration": 200, "velocity": 120}, {"time": 181440, "pitch": 40, "duration": 200, "velocity": 120}, {"time": 181680, "pitch": 42, "duration": 200, "velocity": 120}, {"time": 181920, "pitch": 44, "duration": 200, "velocity": 120}, {"time": 182160, "pitch": 40, "duration": 200, "velocity": 120}, {"time": 182400, "pitch": 45, "duration": 200, "velocity": 120}, {"time": 182640, "pitch": 45, "duration": 200, "velocity": 120}, {"time": 182880, "pitch": 44, "duration": 200, "velocity": 120}, {"time": 183120, "pitch": 45, "duration": 200, "velocity": 120}, {"time": 183360, "pitch": 45, "duration": 200, "velocity": 120}, {"time": 183600, "pitch": 44, "duration": 200, "velocity": 120}, {"time": 183840, "pitch": 45, "duration": 200, "velocity": 120}, {"time": 184080, "pitch": 44, "duration": 200, "velocity": 120}, {"time": 184320, "pitch": 45, "duration": 200, "velocity": 120}, {"time": 184560, "pitch": 45, "duration": 200, "velocity": 120}, {"time": 184800, "pitch": 44, "duration": 200, "velocity": 120}, {"time": 185040, "pitch": 45, "duration": 200, "velocity": 120}, {"time": 185280, "pitch": 45, "duration": 200, "velocity": 120}, {"time": 185520, "pitch": 44, "duration": 200, "velocity": 120}, {"time": 185760, "pitch": 42, "duration": 200, "velocity": 120}, {"time": 186000, "pitch": 40, "duration": 200, "velocity": 120}, {"time": 186240, "pitch": 40, "duration": 200, "velocity": 120}, {"time": 186480, "pitch": 40, "duration": 200, "velocity": 120}, {"time": 186720, "pitch": 39, "duration": 200, "velocity": 120}, {"time": 186960, "pitch": 40, "duration": 200, "velocity": 120}, {"time": 187200, "pitch": 40, "duration": 200, "velocity": 120}, {"time": 187440, "pitch": 39, "duration": 200, "velocity": 120}, {"time": 187680, "pitch": 40, "duration": 200, "velocity": 120}, {"time": 187920, "pitch": 39, "duration": 200, "velocity": 120}, {"time": 188160, "pitch": 40, "duration": 200, "velocity": 120}, {"time": 188400, "pitch": 40, "duration": 200, "velocity": 120}, {"time": 188640, "pitch": 39, "duration": 200, "velocity": 120}, {"time": 188880, "pitch": 40, "duration": 200, "velocity": 120}, {"time": 189120, "pitch": 40, "duration": 200, "velocity": 120}, {"time": 189360, "pitch": 42, "duration": 200, "velocity": 120}, {"time": 189600, "pitch": 44, "duration": 200, "velocity": 120}, {"time": 189840, "pitch": 40, "duration": 200, "velocity": 120}, {"time": 190080, "pitch": 45, "duration": 200, "velocity": 120}, {"time": 190320, "pitch": 45, "duration": 200, "velocity": 120}, {"time": 190560, "pitch": 45, "duration": 200, "velocity": 120}, {"time": 190800, "pitch": 45, "duration": 200, "velocity": 120}, {"time": 191040, "pitch": 45, "duration": 200, "velocity": 120}, {"time": 191280, "pitch": 45, "duration": 200, "velocity": 120}, {"time": 191520, "pitch": 45, "duration": 200, "velocity": 120}, {"time": 191760, "pitch": 45, "duration": 200, "velocity": 120}, {"time": 192000, "pitch": 45, "duration": 200, "velocity": 120}, {"time": 192240, "pitch": 45, "duration": 200, "velocity": 120}, {"time": 192480, "pitch": 45, "duration": 200, "velocity": 120}, {"time": 192720, "pitch": 45, "duration": 200, "velocity": 120}, {"time": 192960, "pitch": 45, "duration": 200, "velocity": 120}, {"time": 193200, "pitch": 45, "duration": 200, "velocity": 120}, {"time": 193440, "pitch": 45, "duration": 200, "velocity": 120}, {"time": 193680, "pitch": 45, "duration": 200, "velocity": 120}, {"time": 193920, "pitch": 44, "duration": 200, "velocity": 120}, {"time": 194160, "pitch": 44, "duration": 200, "velocity": 120}, {"time": 194400, "pitch": 44, "duration": 200, "velocity": 120}, {"time": 194640, "pitch": 44, "duration": 200, "velocity": 120}, {"time": 194880, "pitch": 44, "duration": 200, "velocity": 120}, {"time": 195120, "pitch": 44, "duration": 200, "velocity": 120}, {"time": 195360, "pitch": 44, "duration": 200, "velocity": 120}, {"time": 195600, "pitch": 44, "duration": 200, "velocity": 120}, {"time": 195840, "pitch": 44, "duration": 200, "velocity": 120}, {"time": 196080, "pitch": 44, "duration": 200, "velocity": 120}, {"time": 196320, "pitch": 44, "duration": 200, "velocity": 120}, {"time": 196560, "pitch": 44, "duration": 200, "velocity": 120}, {"time": 196800, "pitch": 44, "duration": 200, "velocity": 120}, {"time": 197040, "pitch": 44, "duration": 200, "velocity": 120}, {"time": 197280, "pitch": 44, "duration": 200, "velocity": 120}, {"time": 197520, "pitch": 44, "duration": 200, "velocity": 120}, {"time": 197760, "pitch": 42, "duration": 200, "velocity": 120}, {"time": 198000, "pitch": 42, "duration": 200, "velocity": 120}, {"time": 198240, "pitch": 42, "duration": 200, "velocity": 120}, {"time": 198480, "pitch": 42, "duration": 200, "velocity": 120}, {"time": 198720, "pitch": 42, "duration": 200, "velocity": 120}, {"time": 198960, "pitch": 42, "duration": 200, "velocity": 120}, {"time": 199200, "pitch": 42, "duration": 200, "velocity": 120}, {"time": 199440, "pitch": 42, "duration": 200, "velocity": 120}, {"time": 199680, "pitch": 42, "duration": 200, "velocity": 120}, {"time": 199920, "pitch": 42, "duration": 200, "velocity": 120}, {"time": 200160, "pitch": 42, "duration": 200, "velocity": 120}, {"time": 200400, "pitch": 42, "duration": 200, "velocity": 120}, {"time": 200640, "pitch": 42, "duration": 200, "velocity": 120}, {"time": 200880, "pitch": 42, "duration": 200, "velocity": 120}, {"time": 201120, "pitch": 42, "duration": 200, "velocity": 120}, {"time": 201360, "pitch": 42, "duration": 200, "velocity": 120}, {"time": 201600, "pitch": 47, "duration": 200, "velocity": 120}, {"time": 201840, "pitch": 47, "duration": 200, "velocity": 120}, {"time": 202080, "pitch": 47, "duration": 200, "velocity": 120}, {"time": 202320, "pitch": 47, "duration": 200, "velocity": 120}, {"time": 202560, "pitch": 47, "duration": 200, "velocity": 120}, {"time": 202800, "pitch": 47, "duration": 200, "velocity": 120}, {"time": 203040, "pitch": 47, "duration": 200, "velocity": 120}, {"time": 203280, "pitch": 47, "duration": 200, "velocity": 120}, {"time": 203520, "pitch": 47, "duration": 200, "velocity": 120}, {"time": 203760, "pitch": 47, "duration": 200, "velocity": 120}, {"time": 204000, "pitch": 47, "duration": 200, "velocity": 120}, {"time": 204240, "pitch": 47, "duration": 200, "velocity": 120}, {"time": 204480, "pitch": 47, "duration": 200, "velocity": 120}, {"time": 204720, "pitch": 47, "duration": 200, "velocity": 120}, {"time": 204960, "pitch": 47, "duration": 200, "velocity": 120}, {"time": 205200, "pitch": 47, "duration": 200, "velocity": 120}, {"time": 205440, "pitch": 40, "duration": 200, "velocity": 120}, {"time": 205680, "pitch": 40, "duration": 200, "velocity": 120}, {"time": 205920, "pitch": 39, "duration": 200, "velocity": 120}, {"time": 206160, "pitch": 40, "duration": 200, "velocity": 120}, {"time": 206400, "pitch": 40, "duration": 200, "velocity": 120}, {"time": 206640, "pitch": 39, "duration": 200, "velocity": 120}, {"time": 206880, "pitch": 40, "duration": 200, "velocity": 120}, {"time": 207120, "pitch": 39, "duration": 200, "velocity": 120}, {"time": 207360, "pitch": 47, "duration": 200, "velocity": 120}, {"time": 207600, "pitch": 47, "duration": 200, "velocity": 120}, {"time": 207840, "pitch": 47, "duration": 200, "velocity": 120}, {"time": 208080, "pitch": 47, "duration": 200, "velocity": 120}, {"time": 208320, "pitch": 47, "duration": 200, "velocity": 120}, {"time": 208560, "pitch": 47, "duration": 200, "velocity": 120}, {"time": 208800, "pitch": 47, "duration": 200, "velocity": 120}, {"time": 209040, "pitch": 47, "duration": 200, "velocity": 120}, {"time": 209280, "pitch": 45, "duration": 200, "velocity": 120}, {"time": 209520, "pitch": 45, "duration": 200, "velocity": 120}, {"time": 209760, "pitch": 45, "duration": 200, "velocity": 120}, {"time": 210000, "pitch": 45, "duration": 200, "velocity": 120}, {"time": 210240, "pitch": 45, "duration": 200, "velocity": 120}, {"time": 210480, "pitch": 45, "duration": 200, "velocity": 120}, {"time": 210720, "pitch": 45, "duration": 200, "velocity": 120}, {"time": 210960, "pitch": 45, "duration": 200, "velocity": 120}, {"time": 211200, "pitch": 47, "duration": 200, "velocity": 120}, {"time": 211440, "pitch": 47, "duration": 200, "velocity": 120}, {"time": 211680, "pitch": 47, "duration": 200, "velocity": 120}, {"time": 211920, "pitch": 47, "duration": 200, "velocity": 120}, {"time": 212160, "pitch": 47, "duration": 200, "velocity": 120}, {"time": 212400, "pitch": 47, "duration": 200, "velocity": 120}, {"time": 212640, "pitch": 47, "duration": 200, "velocity": 120}, {"time": 212880, "pitch": 47, "duration": 200, "velocity": 120}, {"time": 213120, "pitch": 40, "duration": 200, "velocity": 120}, {"time": 213360, "pitch": 40, "duration": 200, "velocity": 120}, {"time": 213600, "pitch": 39, "duration": 200, "velocity": 120}, {"time": 213840, "pitch": 40, "duration": 200, "velocity": 120}, {"time": 214080, "pitch": 40, "duration": 200, "velocity": 120}, {"time": 214320, "pitch": 39, "duration": 200, "velocity": 120}, {"time": 214560, "pitch": 40, "duration": 200, "velocity": 120}, {"time": 214800, "pitch": 39, "duration": 200, "velocity": 120}, {"time": 215040, "pitch": 47, "duration": 200, "velocity": 120}, {"time": 215280, "pitch": 47, "duration": 200, "velocity": 120}, {"time": 215520, "pitch": 47, "duration": 200, "velocity": 120}, {"time": 215760, "pitch": 47, "duration": 200, "velocity": 120}, {"time": 216000, "pitch": 47, "duration": 200, "velocity": 120}, {"time": 216240, "pitch": 47, "duration": 200, "velocity": 120}, {"time": 216480, "pitch": 47, "duration": 200, "velocity": 120}, {"time": 216720, "pitch": 47, "duration": 200, "velocity": 120}, {"time": 216960, "pitch": 45, "duration": 200, "velocity": 120}, {"time": 217200, "pitch": 45, "duration": 200, "velocity": 120}, {"time": 217440, "pitch": 45, "duration": 200, "velocity": 120}, {"time": 217680, "pitch": 45, "duration": 200, "velocity": 120}, {"time": 217920, "pitch": 45, "duration": 200, "velocity": 120}, {"time": 218160, "pitch": 45, "duration": 200, "velocity": 120}, {"time": 218400, "pitch": 45, "duration": 200, "velocity": 120}, {"time": 218640, "pitch": 45, "duration": 200, "velocity": 120}, {"time": 218880, "pitch": 47, "duration": 200, "velocity": 120}, {"time": 219120, "pitch": 47, "duration": 200, "velocity": 120}, {"time": 219360, "pitch": 47, "duration": 200, "velocity": 120}, {"time": 219600, "pitch": 47, "duration": 200, "velocity": 120}, {"time": 219840, "pitch": 47, "duration": 200, "velocity": 120}, {"time": 220080, "pitch": 47, "duration": 200, "velocity": 120}, {"time": 220320, "pitch": 47, "duration": 200, "velocity": 120}, {"time": 220560, "pitch": 47, "duration": 200, "velocity": 120}, {"time": 220800, "pitch": 40, "duration": 200, "velocity": 120}, {"time": 221040, "pitch": 40, "duration": 200, "velocity": 120}, {"time": 221280, "pitch": 39, "duration": 200, "velocity": 120}, {"time": 221520, "pitch": 40, "duration": 200, "velocity": 120}, {"time": 221760, "pitch": 40, "duration": 200, "velocity": 120}, {"time": 222000, "pitch": 39, "duration": 200, "velocity": 120}, {"time": 222240, "pitch": 40, "duration": 200, "velocity": 120}, {"time": 222480, "pitch": 39, "duration": 200, "velocity": 120}, {"time": 222720, "pitch": 47, "duration": 200, "velocity": 120}, {"time": 222960, "pitch": 47, "duration": 200, "velocity": 120}, {"time": 223200, "pitch": 47, "duration": 200, "velocity": 120}, {"time": 223440, "pitch": 47, "duration": 200, "velocity": 120}, {"time": 223680, "pitch": 47, "duration": 200, "velocity": 120}, {"time": 223920, "pitch": 47, "duration": 200, "velocity": 120}, {"time": 224160, "pitch": 47, "duration": 200, "velocity": 120}, {"time": 224400, "pitch": 47, "duration": 200, "velocity": 120}, {"time": 224640, "pitch": 45, "duration": 200, "velocity": 120}, {"time": 224880, "pitch": 45, "duration": 200, "velocity": 120}, {"time": 225120, "pitch": 45, "duration": 200, "velocity": 120}, {"time": 225360, "pitch": 45, "duration": 200, "velocity": 120}, {"time": 225600, "pitch": 45, "duration": 200, "velocity": 120}, {"time": 225840, "pitch": 45, "duration": 200, "velocity": 120}, {"time": 226080, "pitch": 45, "duration": 200, "velocity": 120}, {"time": 226320, "pitch": 45, "duration": 200, "velocity": 120}, {"time": 226560, "pitch": 47, "duration": 200, "velocity": 120}, {"time": 226800, "pitch": 47, "duration": 200, "velocity": 120}, {"time": 227040, "pitch": 47, "duration": 200, "velocity": 120}, {"time": 227280, "pitch": 47, "duration": 200, "velocity": 120}, {"time": 227520, "pitch": 47, "duration": 200, "velocity": 120}, {"time": 227760, "pitch": 47, "duration": 200, "velocity": 120}, {"time": 228000, "pitch": 47, "duration": 200, "velocity": 120}, {"time": 228240, "pitch": 47, "duration": 200, "velocity": 120}, {"time": 228480, "pitch": 45, "duration": 200, "velocity": 120}, {"time": 228720, "pitch": 45, "duration": 200, "velocity": 120}, {"time": 228960, "pitch": 45, "duration": 200, "velocity": 120}, {"time": 229200, "pitch": 45, "duration": 200, "velocity": 120}, {"time": 229440, "pitch": 45, "duration": 200, "velocity": 120}, {"time": 229680, "pitch": 45, "duration": 200, "velocity": 120}, {"time": 229920, "pitch": 45, "duration": 200, "velocity": 120}, {"time": 230160, "pitch": 45, "duration": 200, "velocity": 120}, {"time": 230400, "pitch": 47, "duration": 200, "velocity": 120}, {"time": 230640, "pitch": 47, "duration": 200, "velocity": 120}, {"time": 230880, "pitch": 47, "duration": 200, "velocity": 120}, {"time": 231120, "pitch": 47, "duration": 200, "velocity": 120}, {"time": 231360, "pitch": 47, "duration": 200, "velocity": 120}, {"time": 231600, "pitch": 47, "duration": 200, "velocity": 120}, {"time": 231840, "pitch": 47, "duration": 200, "velocity": 120}, {"time": 232080, "pitch": 47, "duration": 200, "velocity": 120}, {"time": 232320, "pitch": 45, "duration": 200, "velocity": 120}, {"time": 232560, "pitch": 45, "duration": 200, "velocity": 120}, {"time": 232800, "pitch": 45, "duration": 200, "velocity": 120}, {"time": 233040, "pitch": 45, "duration": 200, "velocity": 120}, {"time": 233280, "pitch": 45, "duration": 200, "velocity": 120}, {"time": 233520, "pitch": 45, "duration": 200, "velocity": 120}, {"time": 233760, "pitch": 45, "duration": 200, "velocity": 120}, {"time": 234000, "pitch": 45, "duration": 200, "velocity": 120}, {"time": 234240, "pitch": 47, "duration": 200, "velocity": 120}, {"time": 234480, "pitch": 47, "duration": 200, "velocity": 120}, {"time": 234720, "pitch": 47, "duration": 200, "velocity": 120}, {"time": 234960, "pitch": 47, "duration": 200, "velocity": 120}, {"time": 235200, "pitch": 47, "duration": 200, "velocity": 120}, {"time": 235440, "pitch": 47, "duration": 200, "velocity": 120}, {"time": 235680, "pitch": 47, "duration": 200, "velocity": 120}, {"time": 235920, "pitch": 47, "duration": 200, "velocity": 120}, {"time": 236160, "pitch": 45, "duration": 200, "velocity": 120}, {"time": 236400, "pitch": 45, "duration": 200, "velocity": 120}, {"time": 236640, "pitch": 45, "duration": 200, "velocity": 120}, {"time": 236880, "pitch": 45, "duration": 200, "velocity": 120}, {"time": 237120, "pitch": 45, "duration": 200, "velocity": 120}, {"time": 237360, "pitch": 45, "duration": 200, "velocity": 120}, {"time": 237600, "pitch": 45, "duration": 200, "velocity": 120}, {"time": 237840, "pitch": 45, "duration": 200, "velocity": 120}, {"time": 238080, "pitch": 47, "duration": 200, "velocity": 120}, {"time": 238320, "pitch": 47, "duration": 200, "velocity": 120}, {"time": 238560, "pitch": 47, "duration": 200, "velocity": 120}, {"time": 238800, "pitch": 47, "duration": 200, "velocity": 120}, {"time": 239040, "pitch": 47, "duration": 200, "velocity": 120}, {"time": 239280, "pitch": 47, "duration": 200, "velocity": 120}, {"time": 239520, "pitch": 47, "duration": 200, "velocity": 120}, {"time": 239760, "pitch": 47, "duration": 200, "velocity": 120}, {"time": 240000, "pitch": 40, "duration": 200, "velocity": 120}, {"time": 240240, "pitch": 40, "duration": 200, "velocity": 120}, {"time": 240480, "pitch": 39, "duration": 200, "velocity": 120}, {"time": 240720, "pitch": 40, "duration": 200, "velocity": 120}, {"time": 240960, "pitch": 40, "duration": 200, "velocity": 120}, {"time": 241200, "pitch": 39, "duration": 200, "velocity": 120}, {"time": 241440, "pitch": 40, "duration": 200, "velocity": 120}, {"time": 241680, "pitch": 39, "duration": 200, "velocity": 120}, {"time": 241920, "pitch": 40, "duration": 200, "velocity": 120}, {"time": 242160, "pitch": 40, "duration": 200, "velocity": 120}, {"time": 242400, "pitch": 39, "duration": 200, "velocity": 120}, {"time": 242640, "pitch": 40, "duration": 200, "velocity": 120}, {"time": 242880, "pitch": 40, "duration": 200, "velocity": 120}, {"time": 243120, "pitch": 39, "duration": 200, "velocity": 120}, {"time": 243360, "pitch": 40, "duration": 200, "velocity": 120}, {"time": 243600, "pitch": 39, "duration": 200, "velocity": 120}, {"time": 243840, "pitch": 40, "duration": 200, "velocity": 120}, {"time": 244080, "pitch": 40, "duration": 200, "velocity": 120}, {"time": 244320, "pitch": 39, "duration": 200, "velocity": 120}, {"time": 244560, "pitch": 40, "duration": 200, "velocity": 120}, {"time": 244800, "pitch": 40, "duration": 200, "velocity": 120}, {"time": 245040, "pitch": 39, "duration": 200, "velocity": 120}, {"time": 245280, "pitch": 40, "duration": 200, "velocity": 120}, {"time": 245520, "pitch": 39, "duration": 200, "velocity": 120}, {"time": 245760, "pitch": 40, "duration": 200, "velocity": 120}, {"time": 246000, "pitch": 40, "duration": 200, "velocity": 120}, {"time": 246240, "pitch": 39, "duration": 200, "velocity": 120}, {"time": 246480, "pitch": 40, "duration": 200, "velocity": 120}, {"time": 246720, "pitch": 40, "duration": 200, "velocity": 120}, {"time": 246960, "pitch": 39, "duration": 200, "velocity": 120}, {"time": 247200, "pitch": 40, "duration": 200, "velocity": 120}, {"time": 247440, "pitch": 39, "duration": 200, "velocity": 120}, {"time": 247680, "pitch": 40, "duration": 7680, "velocity": 120}, {"time": 1920, "pitch": 45, "duration": 200, "velocity": 120}, {"time": 2160, "pitch": 45, "duration": 200, "velocity": 120}, {"time": 2400, "pitch": 44, "duration": 200, "velocity": 120}, {"time": 2640, "pitch": 45, "duration": 200, "velocity": 120}, {"time": 2880, "pitch": 45, "duration": 200, "velocity": 120}, {"time": 3120, "pitch": 44, "duration": 200, "velocity": 120}, {"time": 3360, "pitch": 45, "duration": 200, "velocity": 120}, {"time": 3600, "pitch": 44, "duration": 200, "velocity": 120}, {"time": 3840, "pitch": 45, "duration": 200, "velocity": 120}, {"time": 4080, "pitch": 45, "duration": 200, "velocity": 120}, {"time": 4320, "pitch": 44, "duration": 200, "velocity": 120}, {"time": 4560, "pitch": 45, "duration": 200, "velocity": 120}, {"time": 4800, "pitch": 45, "duration": 200, "velocity": 120}, {"time": 5040, "pitch": 44, "duration": 200, "velocity": 120}, {"time": 5280, "pitch": 42, "duration": 200, "velocity": 120}, {"time": 5520, "pitch": 40, "duration": 200, "velocity": 120}, {"time": 5760, "pitch": 40, "duration": 200, "velocity": 120}, {"time": 6000, "pitch": 40, "duration": 200, "velocity": 120}, {"time": 6240, "pitch": 39, "duration": 200, "velocity": 120}, {"time": 6480, "pitch": 40, "duration": 200, "velocity": 120}, {"time": 6720, "pitch": 40, "duration": 200, "velocity": 120}, {"time": 6960, "pitch": 39, "duration": 200, "velocity": 120}, {"time": 7200, "pitch": 40, "duration": 200, "velocity": 120}, {"time": 7440, "pitch": 39, "duration": 200, "velocity": 120}, {"time": 7680, "pitch": 40, "duration": 200, "velocity": 120}, {"time": 7920, "pitch": 40, "duration": 200, "velocity": 120}, {"time": 8160, "pitch": 39, "duration": 200, "velocity": 120}, {"time": 8400, "pitch": 40, "duration": 200, "velocity": 120}, {"time": 8640, "pitch": 40, "duration": 200, "velocity": 120}, {"time": 8880, "pitch": 42, "duration": 200, "velocity": 120}, {"time": 9120, "pitch": 44, "duration": 200, "velocity": 120}, {"time": 9360, "pitch": 40, "duration": 200, "velocity": 120}, {"time": 9600, "pitch": 45, "duration": 200, "velocity": 120}, {"time": 9840, "pitch": 45, "duration": 200, "velocity": 120}, {"time": 10080, "pitch": 44, "duration": 200, "velocity": 120}, {"time": 10320, "pitch": 45, "duration": 200, "velocity": 120}, {"time": 10560, "pitch": 45, "duration": 200, "velocity": 120}, {"time": 10800, "pitch": 44, "duration": 200, "velocity": 120}, {"time": 11040, "pitch": 45, "duration": 200, "velocity": 120}, {"time": 11280, "pitch": 44, "duration": 200, "velocity": 120}, {"time": 11520, "pitch": 45, "duration": 200, "velocity": 120}, {"time": 11760, "pitch": 45, "duration": 200, "velocity": 120}, {"time": 12000, "pitch": 44, "duration": 200, "velocity": 120}, {"time": 12240, "pitch": 45, "duration": 200, "velocity": 120}, {"time": 12480, "pitch": 45, "duration": 200, "velocity": 120}, {"time": 12720, "pitch": 44, "duration": 200, "velocity": 120}, {"time": 12960, "pitch": 42, "duration": 200, "velocity": 120}, {"time": 13200, "pitch": 40, "duration": 200, "velocity": 120}, {"time": 13440, "pitch": 40, "duration": 200, "velocity": 120}, {"time": 13680, "pitch": 40, "duration": 200, "velocity": 120}, {"time": 13920, "pitch": 39, "duration": 200, "velocity": 120}, {"time": 14160, "pitch": 40, "duration": 200, "velocity": 120}, {"time": 14400, "pitch": 40, "duration": 200, "velocity": 120}, {"time": 14640, "pitch": 39, "duration": 200, "velocity": 120}, {"time": 14880, "pitch": 40, "duration": 200, "velocity": 120}, {"time": 15120, "pitch": 39, "duration": 200, "velocity": 120}, {"time": 15360, "pitch": 40, "duration": 200, "velocity": 120}, {"time": 15600, "pitch": 40, "duration": 200, "velocity": 120}, {"time": 15840, "pitch": 39, "duration": 200, "velocity": 120}, {"time": 16080, "pitch": 40, "duration": 200, "velocity": 120}, {"time": 16320, "pitch": 40, "duration": 200, "velocity": 120}, {"time": 16560, "pitch": 42, "duration": 200, "velocity": 120}, {"time": 16800, "pitch": 44, "duration": 200, "velocity": 120}, {"time": 17040, "pitch": 40, "duration": 200, "velocity": 120}, {"time": 17280, "pitch": 45, "duration": 200, "velocity": 120}, {"time": 17520, "pitch": 45, "duration": 200, "velocity": 120}, {"time": 17760, "pitch": 44, "duration": 200, "velocity": 120}, {"time": 18000, "pitch": 45, "duration": 200, "velocity": 120}, {"time": 18240, "pitch": 45, "duration": 200, "velocity": 120}, {"time": 18480, "pitch": 44, "duration": 200, "velocity": 120}, {"time": 18720, "pitch": 45, "duration": 200, "velocity": 120}, {"time": 18960, "pitch": 44, "duration": 200, "velocity": 120}, {"time": 19200, "pitch": 45, "duration": 200, "velocity": 120}, {"time": 19440, "pitch": 45, "duration": 200, "velocity": 120}, {"time": 19680, "pitch": 44, "duration": 200, "velocity": 120}, {"time": 19920, "pitch": 45, "duration": 200, "velocity": 120}, {"time": 20160, "pitch": 45, "duration": 200, "velocity": 120}, {"time": 20400, "pitch": 44, "duration": 200, "velocity": 120}, {"time": 20640, "pitch": 42, "duration": 200, "velocity": 120}, {"time": 20880, "pitch": 40, "duration": 200, "velocity": 120}, {"time": 21120, "pitch": 40, "duration": 200, "velocity": 120}, {"time": 21360, "pitch": 40, "duration": 200, "velocity": 120}, {"time": 21600, "pitch": 39, "duration": 200, "velocity": 120}, {"time": 21840, "pitch": 40, "duration": 200, "velocity": 120}, {"time": 22080, "pitch": 40, "duration": 200, "velocity": 120}, {"time": 22320, "pitch": 39, "duration": 200, "velocity": 120}, {"time": 22560, "pitch": 40, "duration": 200, "velocity": 120}, {"time": 22800, "pitch": 39, "duration": 200, "velocity": 120}, {"time": 23040, "pitch": 40, "duration": 200, "velocity": 120}, {"time": 23280, "pitch": 40, "duration": 200, "velocity": 120}, {"time": 23520, "pitch": 39, "duration": 200, "velocity": 120}, {"time": 23760, "pitch": 40, "duration": 200, "velocity": 120}, {"time": 24000, "pitch": 40, "duration": 200, "velocity": 120}, {"time": 24240, "pitch": 42, "duration": 200, "velocity": 120}, {"time": 24480, "pitch": 44, "duration": 200, "velocity": 120}, {"time": 24720, "pitch": 40, "duration": 200, "velocity": 120}, {"time": 24960, "pitch": 45, "duration": 200, "velocity": 120}, {"time": 25200, "pitch": 45, "duration": 200, "velocity": 120}, {"time": 25440, "pitch": 44, "duration": 200, "velocity": 120}, {"time": 25680, "pitch": 45, "duration": 200, "velocity": 120}, {"time": 25920, "pitch": 45, "duration": 200, "velocity": 120}, {"time": 26160, "pitch": 44, "duration": 200, "velocity": 120}, {"time": 26400, "pitch": 45, "duration": 200, "velocity": 120}, {"time": 26640, "pitch": 44, "duration": 200, "velocity": 120}, {"time": 26880, "pitch": 45, "duration": 200, "velocity": 120}, {"time": 27120, "pitch": 45, "duration": 200, "velocity": 120}, {"time": 27360, "pitch": 44, "duration": 200, "velocity": 120}, {"time": 27600, "pitch": 45, "duration": 200, "velocity": 120}, {"time": 27840, "pitch": 45, "duration": 200, "velocity": 120}, {"time": 28080, "pitch": 44, "duration": 200, "velocity": 120}, {"time": 28320, "pitch": 42, "duration": 200, "velocity": 120}, {"time": 28560, "pitch": 40, "duration": 200, "velocity": 120}, {"time": 28800, "pitch": 40, "duration": 200, "velocity": 120}, {"time": 29040, "pitch": 40, "duration": 200, "velocity": 120}, {"time": 29280, "pitch": 39, "duration": 200, "velocity": 120}, {"time": 29520, "pitch": 40, "duration": 200, "velocity": 120}, {"time": 29760, "pitch": 40, "duration": 200, "velocity": 120}, {"time": 30000, "pitch": 39, "duration": 200, "velocity": 120}, {"time": 30240, "pitch": 40, "duration": 200, "velocity": 120}, {"time": 30480, "pitch": 39, "duration": 200, "velocity": 120}, {"time": 30720, "pitch": 40, "duration": 200, "velocity": 120}, {"time": 30960, "pitch": 40, "duration": 200, "velocity": 120}, {"time": 31200, "pitch": 39, "duration": 200, "velocity": 120}, {"time": 31440, "pitch": 40, "duration": 200, "velocity": 120}, {"time": 31680, "pitch": 40, "duration": 200, "velocity": 120}, {"time": 31920, "pitch": 42, "duration": 200, "velocity": 120}, {"time": 32160, "pitch": 44, "duration": 200, "velocity": 120}, {"time": 32400, "pitch": 40, "duration": 200, "velocity": 120}, {"time": 32640, "pitch": 45, "duration": 200, "velocity": 120}, {"time": 32880, "pitch": 45, "duration": 200, "velocity": 120}, {"time": 33120, "pitch": 44, "duration": 200, "velocity": 120}, {"time": 33360, "pitch": 45, "duration": 200, "velocity": 120}, {"time": 33600, "pitch": 45, "duration": 200, "velocity": 120}, {"time": 33840, "pitch": 44, "duration": 200, "velocity": 120}, {"time": 34080, "pitch": 45, "duration": 200, "velocity": 120}, {"time": 34320, "pitch": 44, "duration": 200, "velocity": 120}, {"time": 34560, "pitch": 45, "duration": 200, "velocity": 120}, {"time": 34800, "pitch": 45, "duration": 200, "velocity": 120}, {"time": 35040, "pitch": 44, "duration": 200, "velocity": 120}, {"time": 35280, "pitch": 45, "duration": 200, "velocity": 120}, {"time": 35520, "pitch": 45, "duration": 200, "velocity": 120}, {"time": 35760, "pitch": 44, "duration": 200, "velocity": 120}, {"time": 36000, "pitch": 42, "duration": 200, "velocity": 120}, {"time": 36240, "pitch": 40, "duration": 200, "velocity": 120}, {"time": 36480, "pitch": 40, "duration": 200, "velocity": 120}, {"time": 36720, "pitch": 40, "duration": 200, "velocity": 120}, {"time": 36960, "pitch": 39, "duration": 200, "velocity": 120}, {"time": 37200, "pitch": 40, "duration": 200, "velocity": 120}, {"time": 37440, "pitch": 40, "duration": 200, "velocity": 120}, {"time": 37680, "pitch": 39, "duration": 200, "velocity": 120}, {"time": 37920, "pitch": 40, "duration": 200, "velocity": 120}, {"time": 38160, "pitch": 39, "duration": 200, "velocity": 120}, {"time": 38400, "pitch": 40, "duration": 200, "velocity": 120}, {"time": 38640, "pitch": 40, "duration": 200, "velocity": 120}, {"time": 38880, "pitch": 39, "duration": 200, "velocity": 120}, {"time": 39120, "pitch": 40, "duration": 200, "velocity": 120}, {"time": 39360, "pitch": 40, "duration": 200, "velocity": 120}, {"time": 39600, "pitch": 42, "duration": 200, "velocity": 120}, {"time": 39840, "pitch": 44, "duration": 200, "velocity": 120}, {"time": 40080, "pitch": 40, "duration": 200, "velocity": 120}, {"time": 40320, "pitch": 45, "duration": 200, "velocity": 120}, {"time": 40560, "pitch": 45, "duration": 200, "velocity": 120}, {"time": 40800, "pitch": 44, "duration": 200, "velocity": 120}, {"time": 41040, "pitch": 45, "duration": 200, "velocity": 120}, {"time": 41280, "pitch": 45, "duration": 200, "velocity": 120}, {"time": 41520, "pitch": 44, "duration": 200, "velocity": 120}, {"time": 41760, "pitch": 45, "duration": 200, "velocity": 120}, {"time": 42000, "pitch": 44, "duration": 200, "velocity": 120}, {"time": 42240, "pitch": 45, "duration": 200, "velocity": 120}, {"time": 42480, "pitch": 45, "duration": 200, "velocity": 120}, {"time": 42720, "pitch": 44, "duration": 200, "velocity": 120}, {"time": 42960, "pitch": 45, "duration": 200, "velocity": 120}, {"time": 43200, "pitch": 45, "duration": 200, "velocity": 120}, {"time": 43440, "pitch": 44, "duration": 200, "velocity": 120}, {"time": 43680, "pitch": 42, "duration": 200, "velocity": 120}, {"time": 43920, "pitch": 40, "duration": 200, "velocity": 120}, {"time": 44160, "pitch": 40, "duration": 200, "velocity": 120}, {"time": 44400, "pitch": 40, "duration": 200, "velocity": 120}, {"time": 44640, "pitch": 39, "duration": 200, "velocity": 120}, {"time": 44880, "pitch": 40, "duration": 200, "velocity": 120}, {"time": 45120, "pitch": 40, "duration": 200, "velocity": 120}, {"time": 45360, "pitch": 39, "duration": 200, "velocity": 120}, {"time": 45600, "pitch": 40, "duration": 200, "velocity": 120}, {"time": 45840, "pitch": 39, "duration": 200, "velocity": 120}, {"time": 46080, "pitch": 40, "duration": 200, "velocity": 120}, {"time": 46320, "pitch": 40, "duration": 200, "velocity": 120}, {"time": 46560, "pitch": 39, "duration": 200, "velocity": 120}, {"time": 46800, "pitch": 40, "duration": 200, "velocity": 120}, {"time": 47040, "pitch": 40, "duration": 200, "velocity": 120}, {"time": 47280, "pitch": 42, "duration": 200, "velocity": 120}, {"time": 47520, "pitch": 44, "duration": 200, "velocity": 120}, {"time": 47760, "pitch": 40, "duration": 200, "velocity": 120}, {"time": 48000, "pitch": 45, "duration": 200, "velocity": 120}, {"time": 48240, "pitch": 45, "duration": 200, "velocity": 120}, {"time": 48480, "pitch": 45, "duration": 200, "velocity": 120}, {"time": 48720, "pitch": 45, "duration": 200, "velocity": 120}, {"time": 48960, "pitch": 45, "duration": 200, "velocity": 120}, {"time": 49200, "pitch": 45, "duration": 200, "velocity": 120}, {"time": 49440, "pitch": 45, "duration": 200, "velocity": 120}, {"time": 49680, "pitch": 45, "duration": 200, "velocity": 120}, {"time": 49920, "pitch": 45, "duration": 200, "velocity": 120}, {"time": 50160, "pitch": 45, "duration": 200, "velocity": 120}, {"time": 50400, "pitch": 45, "duration": 200, "velocity": 120}, {"time": 50640, "pitch": 45, "duration": 200, "velocity": 120}, {"time": 50880, "pitch": 45, "duration": 200, "velocity": 120}, {"time": 51120, "pitch": 45, "duration": 200, "velocity": 120}, {"time": 51360, "pitch": 45, "duration": 200, "velocity": 120}, {"time": 51600, "pitch": 45, "duration": 200, "velocity": 120}, {"time": 51840, "pitch": 44, "duration": 200, "velocity": 120}, {"time": 52080, "pitch": 44, "duration": 200, "velocity": 120}, {"time": 52320, "pitch": 44, "duration": 200, "velocity": 120}, {"time": 52560, "pitch": 44, "duration": 200, "velocity": 120}, {"time": 52800, "pitch": 44, "duration": 200, "velocity": 120}, {"time": 53040, "pitch": 44, "duration": 200, "velocity": 120}, {"time": 53280, "pitch": 44, "duration": 200, "velocity": 120}, {"time": 53520, "pitch": 44, "duration": 200, "velocity": 120}, {"time": 53760, "pitch": 44, "duration": 200, "velocity": 120}, {"time": 54000, "pitch": 44, "duration": 200, "velocity": 120}, {"time": 54240, "pitch": 44, "duration": 200, "velocity": 120}, {"time": 54480, "pitch": 44, "duration": 200, "velocity": 120}, {"time": 54720, "pitch": 44, "duration": 200, "velocity": 120}, {"time": 54960, "pitch": 44, "duration": 200, "velocity": 120}, {"time": 55200, "pitch": 44, "duration": 200, "velocity": 120}, {"time": 55440, "pitch": 44, "duration": 200, "velocity": 120}, {"time": 55680, "pitch": 42, "duration": 200, "velocity": 120}, {"time": 55920, "pitch": 42, "duration": 200, "velocity": 120}, {"time": 56160, "pitch": 42, "duration": 200, "velocity": 120}, {"time": 56400, "pitch": 42, "duration": 200, "velocity": 120}, {"time": 56640, "pitch": 42, "duration": 200, "velocity": 120}, {"time": 56880, "pitch": 42, "duration": 200, "velocity": 120}, {"time": 57120, "pitch": 42, "duration": 200, "velocity": 120}, {"time": 57360, "pitch": 42, "duration": 200, "velocity": 120}, {"time": 57600, "pitch": 42, "duration": 200, "velocity": 120}, {"time": 57840, "pitch": 42, "duration": 200, "velocity": 120}, {"time": 58080, "pitch": 42, "duration": 200, "velocity": 120}, {"time": 58320, "pitch": 42, "duration": 200, "velocity": 120}, {"time": 58560, "pitch": 42, "duration": 200, "velocity": 120}, {"time": 58800, "pitch": 42, "duration": 200, "velocity": 120}, {"time": 59040, "pitch": 42, "duration": 200, "velocity": 120}, {"time": 59280, "pitch": 42, "duration": 200, "velocity": 120}, {"time": 59520, "pitch": 47, "duration": 200, "velocity": 120}, {"time": 59760, "pitch": 47, "duration": 200, "velocity": 120}, {"time": 60000, "pitch": 47, "duration": 200, "velocity": 120}, {"time": 60240, "pitch": 47, "duration": 200, "velocity": 120}, {"time": 60480, "pitch": 47, "duration": 200, "velocity": 120}, {"time": 60720, "pitch": 47, "duration": 200, "velocity": 120}, {"time": 60960, "pitch": 47, "duration": 200, "velocity": 120}, {"time": 61200, "pitch": 47, "duration": 200, "velocity": 120}, {"time": 61440, "pitch": 47, "duration": 200, "velocity": 120}, {"time": 61680, "pitch": 47, "duration": 200, "velocity": 120}, {"time": 61920, "pitch": 47, "duration": 200, "velocity": 120}, {"time": 62160, "pitch": 47, "duration": 200, "velocity": 120}, {"time": 62400, "pitch": 47, "duration": 200, "velocity": 120}, {"time": 62640, "pitch": 47, "duration": 200, "velocity": 120}, {"time": 62880, "pitch": 47, "duration": 200, "velocity": 120}, {"time": 63120, "pitch": 47, "duration": 200, "velocity": 120}, {"time": 63360, "pitch": 45, "duration": 200, "velocity": 120}, {"time": 63600, "pitch": 45, "duration": 200, "velocity": 120}, {"time": 63840, "pitch": 44, "duration": 200, "velocity": 120}, {"time": 64080, "pitch": 45, "duration": 200, "velocity": 120}, {"time": 64320, "pitch": 45, "duration": 200, "velocity": 120}, {"time": 64560, "pitch": 44, "duration": 200, "velocity": 120}, {"time": 64800, "pitch": 45, "duration": 200, "velocity": 120}, {"time": 65040, "pitch": 44, "duration": 200, "velocity": 120}, {"time": 65280, "pitch": 45, "duration": 200, "velocity": 120}, {"time": 65520, "pitch": 45, "duration": 200, "velocity": 120}, {"time": 65760, "pitch": 44, "duration": 200, "velocity": 120}, {"time": 66000, "pitch": 45, "duration": 200, "velocity": 120}, {"time": 66240, "pitch": 45, "duration": 200, "velocity": 120}, {"time": 66480, "pitch": 44, "duration": 200, "velocity": 120}, {"time": 66720, "pitch": 42, "duration": 200, "velocity": 120}, {"time": 66960, "pitch": 40, "duration": 200, "velocity": 120}, {"time": 67200, "pitch": 40, "duration": 200, "velocity": 120}, {"time": 67440, "pitch": 40, "duration": 200, "velocity": 120}, {"time": 67680, "pitch": 39, "duration": 200, "velocity": 120}, {"time": 67920, "pitch": 40, "duration": 200, "velocity": 120}, {"time": 68160, "pitch": 40, "duration": 200, "velocity": 120}, {"time": 68400, "pitch": 39, "duration": 200, "velocity": 120}, {"time": 68640, "pitch": 40, "duration": 200, "velocity": 120}, {"time": 68880, "pitch": 39, "duration": 200, "velocity": 120}, {"time": 69120, "pitch": 40, "duration": 200, "velocity": 120}, {"time": 69360, "pitch": 40, "duration": 200, "velocity": 120}, {"time": 69600, "pitch": 39, "duration": 200, "velocity": 120}, {"time": 69840, "pitch": 40, "duration": 200, "velocity": 120}, {"time": 70080, "pitch": 40, "duration": 200, "velocity": 120}, {"time": 70320, "pitch": 42, "duration": 200, "velocity": 120}, {"time": 70560, "pitch": 44, "duration": 200, "velocity": 120}, {"time": 70800, "pitch": 40, "duration": 200, "velocity": 120}, {"time": 71040, "pitch": 45, "duration": 200, "velocity": 120}, {"time": 71280, "pitch": 45, "duration": 200, "velocity": 120}, {"time": 71520, "pitch": 44, "duration": 200, "velocity": 120}, {"time": 71760, "pitch": 45, "duration": 200, "velocity": 120}, {"time": 72000, "pitch": 45, "duration": 200, "velocity": 120}, {"time": 72240, "pitch": 44, "duration": 200, "velocity": 120}, {"time": 72480, "pitch": 45, "duration": 200, "velocity": 120}, {"time": 72720, "pitch": 44, "duration": 200, "velocity": 120}, {"time": 72960, "pitch": 45, "duration": 200, "velocity": 120}, {"time": 73200, "pitch": 45, "duration": 200, "velocity": 120}, {"time": 73440, "pitch": 44, "duration": 200, "velocity": 120}, {"time": 73680, "pitch": 45, "duration": 200, "velocity": 120}, {"time": 73920, "pitch": 45, "duration": 200, "velocity": 120}, {"time": 74160, "pitch": 44, "duration": 200, "velocity": 120}, {"time": 74400, "pitch": 42, "duration": 200, "velocity": 120}, {"time": 74640, "pitch": 40, "duration": 200, "velocity": 120}, {"time": 74880, "pitch": 40, "duration": 200, "velocity": 120}, {"time": 75120, "pitch": 40, "duration": 200, "velocity": 120}, {"time": 75360, "pitch": 39, "duration": 200, "velocity": 120}, {"time": 75600, "pitch": 40, "duration": 200, "velocity": 120}, {"time": 75840, "pitch": 40, "duration": 200, "velocity": 120}, {"time": 76080, "pitch": 39, "duration": 200, "velocity": 120}, {"time": 76320, "pitch": 40, "duration": 200, "velocity": 120}, {"time": 76560, "pitch": 39, "duration": 200, "velocity": 120}, {"time": 76800, "pitch": 40, "duration": 200, "velocity": 120}, {"time": 77040, "pitch": 40, "duration": 200, "velocity": 120}, {"time": 77280, "pitch": 39, "duration": 200, "velocity": 120}, {"time": 77520, "pitch": 40, "duration": 200, "velocity": 120}, {"time": 77760, "pitch": 40, "duration": 200, "velocity": 120}, {"time": 78000, "pitch": 42, "duration": 200, "velocity": 120}, {"time": 78240, "pitch": 44, "duration": 200, "velocity": 120}, {"time": 78480, "pitch": 40, "duration": 200, "velocity": 120}, {"time": 78720, "pitch": 45, "duration": 200, "velocity": 120}, {"time": 78960, "pitch": 45, "duration": 200, "velocity": 120}, {"time": 79200, "pitch": 45, "duration": 200, "velocity": 120}, {"time": 79440, "pitch": 45, "duration": 200, "velocity": 120}, {"time": 79680, "pitch": 45, "duration": 200, "velocity": 120}, {"time": 79920, "pitch": 45, "duration": 200, "velocity": 120}, {"time": 80160, "pitch": 45, "duration": 200, "velocity": 120}, {"time": 80400, "pitch": 45, "duration": 200, "velocity": 120}, {"time": 80640, "pitch": 45, "duration": 200, "velocity": 120}, {"time": 80880, "pitch": 45, "duration": 200, "velocity": 120}, {"time": 81120, "pitch": 45, "duration": 200, "velocity": 120}, {"time": 81360, "pitch": 45, "duration": 200, "velocity": 120}, {"time": 81600, "pitch": 45, "duration": 200, "velocity": 120}, {"time": 81840, "pitch": 45, "duration": 200, "velocity": 120}, {"time": 82080, "pitch": 45, "duration": 200, "velocity": 120}, {"time": 82320, "pitch": 45, "duration": 200, "velocity": 120}, {"time": 82560, "pitch": 44, "duration": 200, "velocity": 120}, {"time": 82800, "pitch": 44, "duration": 200, "velocity": 120}, {"time": 83040, "pitch": 44, "duration": 200, "velocity": 120}, {"time": 83280, "pitch": 44, "duration": 200, "velocity": 120}, {"time": 83520, "pitch": 44, "duration": 200, "velocity": 120}, {"time": 83760, "pitch": 44, "duration": 200, "velocity": 120}, {"time": 84000, "pitch": 44, "duration": 200, "velocity": 120}, {"time": 84240, "pitch": 44, "duration": 200, "velocity": 120}, {"time": 84480, "pitch": 44, "duration": 200, "velocity": 120}, {"time": 84720, "pitch": 44, "duration": 200, "velocity": 120}, {"time": 84960, "pitch": 44, "duration": 200, "velocity": 120}, {"time": 85200, "pitch": 44, "duration": 200, "velocity": 120}, {"time": 85440, "pitch": 44, "duration": 200, "velocity": 120}, {"time": 85680, "pitch": 44, "duration": 200, "velocity": 120}, {"time": 85920, "pitch": 44, "duration": 200, "velocity": 120}, {"time": 86160, "pitch": 44, "duration": 200, "velocity": 120}, {"time": 86400, "pitch": 42, "duration": 200, "velocity": 120}, {"time": 86640, "pitch": 42, "duration": 200, "velocity": 120}, {"time": 86880, "pitch": 42, "duration": 200, "velocity": 120}, {"time": 87120, "pitch": 42, "duration": 200, "velocity": 120}, {"time": 87360, "pitch": 42, "duration": 200, "velocity": 120}, {"time": 87600, "pitch": 42, "duration": 200, "velocity": 120}, {"time": 87840, "pitch": 42, "duration": 200, "velocity": 120}, {"time": 88080, "pitch": 42, "duration": 200, "velocity": 120}, {"time": 88320, "pitch": 42, "duration": 200, "velocity": 120}, {"time": 88560, "pitch": 42, "duration": 200, "velocity": 120}, {"time": 88800, "pitch": 42, "duration": 200, "velocity": 120}, {"time": 89040, "pitch": 42, "duration": 200, "velocity": 120}, {"time": 89280, "pitch": 42, "duration": 200, "velocity": 120}, {"time": 89520, "pitch": 42, "duration": 200, "velocity": 120}, {"time": 89760, "pitch": 42, "duration": 200, "velocity": 120}, {"time": 90000, "pitch": 42, "duration": 200, "velocity": 120}, {"time": 90240, "pitch": 47, "duration": 200, "velocity": 120}, {"time": 90480, "pitch": 47, "duration": 200, "velocity": 120}, {"time": 90720, "pitch": 47, "duration": 200, "velocity": 120}, {"time": 90960, "pitch": 47, "duration": 200, "velocity": 120}, {"time": 91200, "pitch": 47, "duration": 200, "velocity": 120}, {"time": 91440, "pitch": 47, "duration": 200, "velocity": 120}, {"time": 91680, "pitch": 47, "duration": 200, "velocity": 120}, {"time": 91920, "pitch": 47, "duration": 200, "velocity": 120}, {"time": 92160, "pitch": 47, "duration": 200, "velocity": 120}, {"time": 92400, "pitch": 47, "duration": 200, "velocity": 120}, {"time": 92640, "pitch": 47, "duration": 200, "velocity": 120}, {"time": 92880, "pitch": 47, "duration": 200, "velocity": 120}, {"time": 93120, "pitch": 47, "duration": 200, "velocity": 120}, {"time": 93360, "pitch": 47, "duration": 200, "velocity": 120}, {"time": 93600, "pitch": 47, "duration": 200, "velocity": 120}, {"time": 93840, "pitch": 47, "duration": 200, "velocity": 120}, {"time": 94080, "pitch": 40, "duration": 200, "velocity": 120}, {"time": 94320, "pitch": 40, "duration": 200, "velocity": 120}, {"time": 94560, "pitch": 39, "duration": 200, "velocity": 120}, {"time": 94800, "pitch": 40, "duration": 200, "velocity": 120}, {"time": 95040, "pitch": 40, "duration": 200, "velocity": 120}, {"time": 95280, "pitch": 39, "duration": 200, "velocity": 120}, {"time": 95520, "pitch": 40, "duration": 200, "velocity": 120}, {"time": 95760, "pitch": 39, "duration": 200, "velocity": 120}, {"time": 96000, "pitch": 47, "duration": 200, "velocity": 120}, {"time": 96240, "pitch": 47, "duration": 200, "velocity": 120}, {"time": 96480, "pitch": 47, "duration": 200, "velocity": 120}, {"time": 96720, "pitch": 47, "duration": 200, "velocity": 120}, {"time": 96960, "pitch": 47, "duration": 200, "velocity": 120}, {"time": 97200, "pitch": 47, "duration": 200, "velocity": 120}, {"time": 97440, "pitch": 47, "duration": 200, "velocity": 120}, {"time": 97680, "pitch": 47, "duration": 200, "velocity": 120}, {"time": 97920, "pitch": 45, "duration": 200, "velocity": 120}, {"time": 98160, "pitch": 45, "duration": 200, "velocity": 120}, {"time": 98400, "pitch": 45, "duration": 200, "velocity": 120}, {"time": 98640, "pitch": 45, "duration": 200, "velocity": 120}, {"time": 98880, "pitch": 45, "duration": 200, "velocity": 120}, {"time": 99120, "pitch": 45, "duration": 200, "velocity": 120}, {"time": 99360, "pitch": 45, "duration": 200, "velocity": 120}, {"time": 99600, "pitch": 45, "duration": 200, "velocity": 120}, {"time": 99840, "pitch": 47, "duration": 200, "velocity": 120}, {"time": 100080, "pitch": 47, "duration": 200, "velocity": 120}, {"time": 100320, "pitch": 47, "duration": 200, "velocity": 120}, {"time": 100560, "pitch": 47, "duration": 200, "velocity": 120}, {"time": 100800, "pitch": 47, "duration": 200, "velocity": 120}, {"time": 101040, "pitch": 47, "duration": 200, "velocity": 120}, {"time": 101280, "pitch": 47, "duration": 200, "velocity": 120}, {"time": 101520, "pitch": 47, "duration": 200, "velocity": 120}, {"time": 101760, "pitch": 40, "duration": 200, "velocity": 120}, {"time": 102000, "pitch": 40, "duration": 200, "velocity": 120}, {"time": 102240, "pitch": 39, "duration": 200, "velocity": 120}, {"time": 102480, "pitch": 40, "duration": 200, "velocity": 120}, {"time": 102720, "pitch": 40, "duration": 200, "velocity": 120}, {"time": 102960, "pitch": 39, "duration": 200, "velocity": 120}, {"time": 103200, "pitch": 40, "duration": 200, "velocity": 120}, {"time": 103440, "pitch": 39, "duration": 200, "velocity": 120}, {"time": 103680, "pitch": 47, "duration": 200, "velocity": 120}, {"time": 103920, "pitch": 47, "duration": 200, "velocity": 120}, {"time": 104160, "pitch": 47, "duration": 200, "velocity": 120}, {"time": 104400, "pitch": 47, "duration": 200, "velocity": 120}, {"time": 104640, "pitch": 47, "duration": 200, "velocity": 120}, {"time": 104880, "pitch": 47, "duration": 200, "velocity": 120}, {"time": 105120, "pitch": 47, "duration": 200, "velocity": 120}, {"time": 105360, "pitch": 47, "duration": 200, "velocity": 120}, {"time": 105600, "pitch": 45, "duration": 200, "velocity": 120}, {"time": 105840, "pitch": 45, "duration": 200, "velocity": 120}, {"time": 106080, "pitch": 45, "duration": 200, "velocity": 120}, {"time": 106320, "pitch": 45, "duration": 200, "velocity": 120}, {"time": 106560, "pitch": 45, "duration": 200, "velocity": 120}, {"time": 106800, "pitch": 45, "duration": 200, "velocity": 120}, {"time": 107040, "pitch": 45, "duration": 200, "velocity": 120}, {"time": 107280, "pitch": 45, "duration": 200, "velocity": 120}, {"time": 107520, "pitch": 47, "duration": 200, "velocity": 120}, {"time": 107760, "pitch": 47, "duration": 200, "velocity": 120}, {"time": 108000, "pitch": 47, "duration": 200, "velocity": 120}, {"time": 108240, "pitch": 47, "duration": 200, "velocity": 120}, {"time": 108480, "pitch": 47, "duration": 200, "velocity": 120}, {"time": 108720, "pitch": 47, "duration": 200, "velocity": 120}, {"time": 108960, "pitch": 47, "duration": 200, "velocity": 120}, {"time": 109200, "pitch": 47, "duration": 200, "velocity": 120}, {"time": 109440, "pitch": 40, "duration": 200, "velocity": 120}, {"time": 109680, "pitch": 40, "duration": 200, "velocity": 120}, {"time": 109920, "pitch": 39, "duration": 200, "velocity": 120}, {"time": 110160, "pitch": 40, "duration": 200, "velocity": 120}, {"time": 110400, "pitch": 40, "duration": 200, "velocity": 120}, {"time": 110640, "pitch": 39, "duration": 200, "velocity": 120}, {"time": 110880, "pitch": 40, "duration": 200, "velocity": 120}, {"time": 111120, "pitch": 39, "duration": 200, "velocity": 120}, {"time": 111360, "pitch": 47, "duration": 200, "velocity": 120}, {"time": 111600, "pitch": 47, "duration": 200, "velocity": 120}, {"time": 111840, "pitch": 47, "duration": 200, "velocity": 120}, {"time": 112080, "pitch": 47, "duration": 200, "velocity": 120}, {"time": 112320, "pitch": 47, "duration": 200, "velocity": 120}, {"time": 112560, "pitch": 47, "duration": 200, "velocity": 120}, {"time": 112800, "pitch": 47, "duration": 200, "velocity": 120}, {"time": 113040, "pitch": 47, "duration": 200, "velocity": 120}, {"time": 113280, "pitch": 45, "duration": 200, "velocity": 120}, {"time": 113520, "pitch": 45, "duration": 200, "velocity": 120}, {"time": 113760, "pitch": 45, "duration": 200, "velocity": 120}, {"time": 114000, "pitch": 45, "duration": 200, "velocity": 120}, {"time": 114240, "pitch": 45, "duration": 200, "velocity": 120}, {"time": 114480, "pitch": 45, "duration": 200, "velocity": 120}, {"time": 114720, "pitch": 45, "duration": 200, "velocity": 120}, {"time": 114960, "pitch": 45, "duration": 200, "velocity": 120}, {"time": 115200, "pitch": 47, "duration": 200, "velocity": 120}, {"time": 115440, "pitch": 47, "duration": 200, "velocity": 120}, {"time": 115680, "pitch": 47, "duration": 200, "velocity": 120}, {"time": 115920, "pitch": 47, "duration": 200, "velocity": 120}, {"time": 116160, "pitch": 47, "duration": 200, "velocity": 120}, {"time": 116400, "pitch": 47, "duration": 200, "velocity": 120}, {"time": 116640, "pitch": 47, "duration": 200, "velocity": 120}, {"time": 116880, "pitch": 47, "duration": 200, "velocity": 120}, {"time": 117120, "pitch": 45, "duration": 200, "velocity": 120}, {"time": 117360, "pitch": 45, "duration": 200, "velocity": 120}, {"time": 117600, "pitch": 45, "duration": 200, "velocity": 120}, {"time": 117840, "pitch": 45, "duration": 200, "velocity": 120}, {"time": 118080, "pitch": 45, "duration": 200, "velocity": 120}, {"time": 118320, "pitch": 45, "duration": 200, "velocity": 120}, {"time": 118560, "pitch": 45, "duration": 200, "velocity": 120}, {"time": 118800, "pitch": 45, "duration": 200, "velocity": 120}, {"time": 119040, "pitch": 47, "duration": 200, "velocity": 120}, {"time": 119280, "pitch": 47, "duration": 200, "velocity": 120}, {"time": 119520, "pitch": 47, "duration": 200, "velocity": 120}, {"time": 119760, "pitch": 47, "duration": 200, "velocity": 120}, {"time": 120000, "pitch": 47, "duration": 200, "velocity": 120}, {"time": 120240, "pitch": 47, "duration": 200, "velocity": 120}, {"time": 120480, "pitch": 47, "duration": 200, "velocity": 120}, {"time": 120720, "pitch": 47, "duration": 200, "velocity": 120}, {"time": 120960, "pitch": 45, "duration": 200, "velocity": 120}, {"time": 121200, "pitch": 45, "duration": 200, "velocity": 120}, {"time": 121440, "pitch": 45, "duration": 200, "velocity": 120}, {"time": 121680, "pitch": 45, "duration": 200, "velocity": 120}, {"time": 121920, "pitch": 45, "duration": 200, "velocity": 120}, {"time": 122160, "pitch": 45, "duration": 200, "velocity": 120}, {"time": 122400, "pitch": 45, "duration": 200, "velocity": 120}, {"time": 122640, "pitch": 45, "duration": 200, "velocity": 120}, {"time": 122880, "pitch": 47, "duration": 200, "velocity": 120}, {"time": 123120, "pitch": 47, "duration": 200, "velocity": 120}, {"time": 123360, "pitch": 47, "duration": 200, "velocity": 120}, {"time": 123600, "pitch": 47, "duration": 200, "velocity": 120}, {"time": 123840, "pitch": 47, "duration": 200, "velocity": 120}, {"time": 124080, "pitch": 47, "duration": 200, "velocity": 120}, {"time": 124320, "pitch": 47, "duration": 200, "velocity": 120}, {"time": 124560, "pitch": 47, "duration": 200, "velocity": 120}, {"time": 124800, "pitch": 45, "duration": 200, "velocity": 120}, {"time": 125040, "pitch": 45, "duration": 200, "velocity": 120}, {"time": 125280, "pitch": 45, "duration": 200, "velocity": 120}, {"time": 125520, "pitch": 45, "duration": 200, "velocity": 120}, {"time": 125760, "pitch": 45, "duration": 200, "velocity": 120}, {"time": 126000, "pitch": 45, "duration": 200, "velocity": 120}, {"time": 126240, "pitch": 45, "duration": 200, "velocity": 120}, {"time": 126480, "pitch": 45, "duration": 200, "velocity": 120}, {"time": 126720, "pitch": 47, "duration": 200, "velocity": 120}, {"time": 126960, "pitch": 47, "duration": 200, "velocity": 120}, {"time": 127200, "pitch": 47, "duration": 200, "velocity": 120}, {"time": 127440, "pitch": 47, "duration": 200, "velocity": 120}, {"time": 127680, "pitch": 47, "duration": 200, "velocity": 120}, {"time": 127920, "pitch": 47, "duration": 200, "velocity": 120}, {"time": 128160, "pitch": 47, "duration": 200, "velocity": 120}, {"time": 128400, "pitch": 47, "duration": 200, "velocity": 120}, {"time": 128640, "pitch": 40, "duration": 200, "velocity": 120}, {"time": 128880, "pitch": 40, "duration": 200, "velocity": 120}, {"time": 129120, "pitch": 39, "duration": 200, "velocity": 120}, {"time": 129360, "pitch": 40, "duration": 200, "velocity": 120}, {"time": 129600, "pitch": 40, "duration": 200, "velocity": 120}, {"time": 129840, "pitch": 39, "duration": 200, "velocity": 120}, {"time": 130080, "pitch": 40, "duration": 200, "velocity": 120}, {"time": 130320, "pitch": 39, "duration": 200, "velocity": 120}, {"time": 130560, "pitch": 40, "duration": 200, "velocity": 120}, {"time": 130800, "pitch": 40, "duration": 200, "velocity": 120}, {"time": 131040, "pitch": 39, "duration": 200, "velocity": 120}, {"time": 131280, "pitch": 40, "duration": 200, "velocity": 120}, {"time": 131520, "pitch": 40, "duration": 200, "velocity": 120}, {"time": 131760, "pitch": 39, "duration": 200, "velocity": 120}, {"time": 132000, "pitch": 40, "duration": 200, "velocity": 120}, {"time": 132240, "pitch": 39, "duration": 200, "velocity": 120}, {"time": 132480, "pitch": 40, "duration": 200, "velocity": 120}, {"time": 132720, "pitch": 40, "duration": 200, "velocity": 120}, {"time": 132960, "pitch": 39, "duration": 200, "velocity": 120}, {"time": 133200, "pitch": 40, "duration": 200, "velocity": 120}, {"time": 133440, "pitch": 40, "duration": 200, "velocity": 120}, {"time": 133680, "pitch": 39, "duration": 200, "velocity": 120}, {"time": 133920, "pitch": 40, "duration": 200, "velocity": 120}, {"time": 134160, "pitch": 39, "duration": 200, "velocity": 120}, {"time": 134400, "pitch": 40, "duration": 200, "velocity": 120}, {"time": 134640, "pitch": 40, "duration": 200, "velocity": 120}, {"time": 134880, "pitch": 39, "duration": 200, "velocity": 120}, {"time": 135120, "pitch": 40, "duration": 200, "velocity": 120}, {"time": 135360, "pitch": 40, "duration": 200, "velocity": 120}, {"time": 135600, "pitch": 39, "duration": 200, "velocity": 120}, {"time": 135840, "pitch": 40, "duration": 200, "velocity": 120}, {"time": 136080, "pitch": 39, "duration": 200, "velocity": 120}, {"time": 144000, "pitch": 45, "duration": 200, "velocity": 120}, {"time": 144240, "pitch": 45, "duration": 200, "velocity": 120}, {"time": 144480, "pitch": 44, "duration": 200, "velocity": 120}, {"time": 144720, "pitch": 45, "duration": 200, "velocity": 120}, {"time": 144960, "pitch": 45, "duration": 200, "velocity": 120}, {"time": 145200, "pitch": 44, "duration": 200, "velocity": 120}, {"time": 145440, "pitch": 45, "duration": 200, "velocity": 120}, {"time": 145680, "pitch": 44, "duration": 200, "velocity": 120}, {"time": 145920, "pitch": 45, "duration": 200, "velocity": 120}, {"time": 146160, "pitch": 45, "duration": 200, "velocity": 120}, {"time": 146400, "pitch": 44, "duration": 200, "velocity": 120}, {"time": 146640, "pitch": 45, "duration": 200, "velocity": 120}, {"time": 146880, "pitch": 45, "duration": 200, "velocity": 120}, {"time": 147120, "pitch": 44, "duration": 200, "velocity": 120}, {"time": 147360, "pitch": 42, "duration": 200, "velocity": 120}, {"time": 147600, "pitch": 40, "duration": 200, "velocity": 120}, {"time": 147840, "pitch": 40, "duration": 200, "velocity": 120}, {"time": 148080, "pitch": 40, "duration": 200, "velocity": 120}, {"time": 148320, "pitch": 39, "duration": 200, "velocity": 120}, {"time": 148560, "pitch": 40, "duration": 200, "velocity": 120}, {"time": 148800, "pitch": 40, "duration": 200, "velocity": 120}, {"time": 149040, "pitch": 39, "duration": 200, "velocity": 120}, {"time": 149280, "pitch": 40, "duration": 200, "velocity": 120}, {"time": 149520, "pitch": 39, "duration": 200, "velocity": 120}, {"time": 149760, "pitch": 40, "duration": 200, "velocity": 120}, {"time": 150000, "pitch": 40, "duration": 200, "velocity": 120}, {"time": 150240, "pitch": 39, "duration": 200, "velocity": 120}, {"time": 150480, "pitch": 40, "duration": 200, "velocity": 120}, {"time": 150720, "pitch": 40, "duration": 200, "velocity": 120}, {"time": 150960, "pitch": 42, "duration": 200, "velocity": 120}, {"time": 151200, "pitch": 44, "duration": 200, "velocity": 120}, {"time": 151440, "pitch": 40, "duration": 200, "velocity": 120}, {"time": 151680, "pitch": 45, "duration": 200, "velocity": 120}, {"time": 151920, "pitch": 45, "duration": 200, "velocity": 120}, {"time": 152160, "pitch": 44, "duration": 200, "velocity": 120}, {"time": 152400, "pitch": 45, "duration": 200, "velocity": 120}, {"time": 152640, "pitch": 45, "duration": 200, "velocity": 120}, {"time": 152880, "pitch": 44, "duration": 200, "velocity": 120}, {"time": 153120, "pitch": 45, "duration": 200, "velocity": 120}, {"time": 153360, "pitch": 44, "duration": 200, "velocity": 120}, {"time": 153600, "pitch": 45, "duration": 200, "velocity": 120}, {"time": 153840, "pitch": 45, "duration": 200, "velocity": 120}, {"time": 154080, "pitch": 44, "duration": 200, "velocity": 120}, {"time": 154320, "pitch": 45, "duration": 200, "velocity": 120}, {"time": 154560, "pitch": 45, "duration": 200, "velocity": 120}, {"time": 154800, "pitch": 44, "duration": 200, "velocity": 120}, {"time": 155040, "pitch": 42, "duration": 200, "velocity": 120}, {"time": 155280, "pitch": 40, "duration": 200, "velocity": 120}, {"time": 155520, "pitch": 40, "duration": 200, "velocity": 120}, {"time": 155760, "pitch": 40, "duration": 200, "velocity": 120}, {"time": 156000, "pitch": 39, "duration": 200, "velocity": 120}, {"time": 156240, "pitch": 40, "duration": 200, "velocity": 120}, {"time": 156480, "pitch": 40, "duration": 200, "velocity": 120}, {"time": 156720, "pitch": 39, "duration": 200, "velocity": 120}, {"time": 156960, "pitch": 40, "duration": 200, "velocity": 120}, {"time": 157200, "pitch": 39, "duration": 200, "velocity": 120}, {"time": 157440, "pitch": 40, "duration": 200, "velocity": 120}, {"time": 157680, "pitch": 40, "duration": 200, "velocity": 120}, {"time": 157920, "pitch": 39, "duration": 200, "velocity": 120}, {"time": 158160, "pitch": 40, "duration": 200, "velocity": 120}, {"time": 158400, "pitch": 40, "duration": 200, "velocity": 120}, {"time": 158640, "pitch": 42, "duration": 200, "velocity": 120}, {"time": 158880, "pitch": 44, "duration": 200, "velocity": 120}, {"time": 159120, "pitch": 40, "duration": 200, "velocity": 120}, {"time": 159360, "pitch": 45, "duration": 200, "velocity": 120}, {"time": 159600, "pitch": 45, "duration": 200, "velocity": 120}, {"time": 159840, "pitch": 45, "duration": 200, "velocity": 120}, {"time": 160080, "pitch": 45, "duration": 200, "velocity": 120}, {"time": 160320, "pitch": 45, "duration": 200, "velocity": 120}, {"time": 160560, "pitch": 45, "duration": 200, "velocity": 120}, {"time": 160800, "pitch": 45, "duration": 200, "velocity": 120}, {"time": 161040, "pitch": 45, "duration": 200, "velocity": 120}, {"time": 161280, "pitch": 45, "duration": 200, "velocity": 120}, {"time": 161520, "pitch": 45, "duration": 200, "velocity": 120}, {"time": 161760, "pitch": 45, "duration": 200, "velocity": 120}, {"time": 162000, "pitch": 45, "duration": 200, "velocity": 120}, {"time": 162240, "pitch": 45, "duration": 200, "velocity": 120}, {"time": 162480, "pitch": 45, "duration": 200, "velocity": 120}, {"time": 162720, "pitch": 45, "duration": 200, "velocity": 120}, {"time": 162960, "pitch": 45, "duration": 200, "velocity": 120}, {"time": 163200, "pitch": 44, "duration": 200, "velocity": 120}, {"time": 163440, "pitch": 44, "duration": 200, "velocity": 120}, {"time": 163680, "pitch": 44, "duration": 200, "velocity": 120}, {"time": 163920, "pitch": 44, "duration": 200, "velocity": 120}, {"time": 164160, "pitch": 44, "duration": 200, "velocity": 120}, {"time": 164400, "pitch": 44, "duration": 200, "velocity": 120}, {"time": 164640, "pitch": 44, "duration": 200, "velocity": 120}, {"time": 164880, "pitch": 44, "duration": 200, "velocity": 120}, {"time": 165120, "pitch": 44, "duration": 200, "velocity": 120}, {"time": 165360, "pitch": 44, "duration": 200, "velocity": 120}, {"time": 165600, "pitch": 44, "duration": 200, "velocity": 120}, {"time": 165840, "pitch": 44, "duration": 200, "velocity": 120}, {"time": 166080, "pitch": 44, "duration": 200, "velocity": 120}, {"time": 166320, "pitch": 44, "duration": 200, "velocity": 120}, {"time": 166560, "pitch": 44, "duration": 200, "velocity": 120}, {"time": 166800, "pitch": 44, "duration": 200, "velocity": 120}, {"time": 167040, "pitch": 42, "duration": 200, "velocity": 120}, {"time": 167280, "pitch": 42, "duration": 200, "velocity": 120}, {"time": 167520, "pitch": 42, "duration": 200, "velocity": 120}, {"time": 167760, "pitch": 42, "duration": 200, "velocity": 120}, {"time": 168000, "pitch": 42, "duration": 200, "velocity": 120}, {"time": 168240, "pitch": 42, "duration": 200, "velocity": 120}, {"time": 168480, "pitch": 42, "duration": 200, "velocity": 120}, {"time": 168720, "pitch": 42, "duration": 200, "velocity": 120}, {"time": 168960, "pitch": 42, "duration": 200, "velocity": 120}, {"time": 169200, "pitch": 42, "duration": 200, "velocity": 120}, {"time": 169440, "pitch": 42, "duration": 200, "velocity": 120}, {"time": 169680, "pitch": 42, "duration": 200, "velocity": 120}, {"time": 169920, "pitch": 42, "duration": 200, "velocity": 120}, {"time": 170160, "pitch": 42, "duration": 200, "velocity": 120}, {"time": 170400, "pitch": 42, "duration": 200, "velocity": 120}, {"time": 170640, "pitch": 42, "duration": 200, "velocity": 120}, {"time": 170880, "pitch": 47, "duration": 200, "velocity": 120}, {"time": 171120, "pitch": 47, "duration": 200, "velocity": 120}, {"time": 171360, "pitch": 47, "duration": 200, "velocity": 120}, {"time": 171600, "pitch": 47, "duration": 200, "velocity": 120}, {"time": 171840, "pitch": 47, "duration": 200, "velocity": 120}, {"time": 172080, "pitch": 47, "duration": 200, "velocity": 120}, {"time": 172320, "pitch": 47, "duration": 200, "velocity": 120}, {"time": 172560, "pitch": 47, "duration": 200, "velocity": 120}, {"time": 172800, "pitch": 47, "duration": 200, "velocity": 120}, {"time": 173040, "pitch": 47, "duration": 200, "velocity": 120}, {"time": 173280, "pitch": 47, "duration": 200, "velocity": 120}, {"time": 173520, "pitch": 47, "duration": 200, "velocity": 120}, {"time": 173760, "pitch": 47, "duration": 200, "velocity": 120}, {"time": 174000, "pitch": 47, "duration": 200, "velocity": 120}, {"time": 174240, "pitch": 47, "duration": 200, "velocity": 120}, {"time": 174480, "pitch": 47, "duration": 200, "velocity": 120}, {"time": 174720, "pitch": 45, "duration": 200, "velocity": 120}, {"time": 174960, "pitch": 45, "duration": 200, "velocity": 120}, {"time": 175200, "pitch": 44, "duration": 200, "velocity": 120}, {"time": 175440, "pitch": 45, "duration": 200, "velocity": 120}, {"time": 175680, "pitch": 45, "duration": 200, "velocity": 120}, {"time": 175920, "pitch": 44, "duration": 200, "velocity": 120}, {"time": 176160, "pitch": 45, "duration": 200, "velocity": 120}, {"time": 176400, "pitch": 44, "duration": 200, "velocity": 120}, {"time": 176640, "pitch": 45, "duration": 200, "velocity": 120}, {"time": 176880, "pitch": 45, "duration": 200, "velocity": 120}, {"time": 177120, "pitch": 44, "duration": 200, "velocity": 120}, {"time": 177360, "pitch": 45, "duration": 200, "velocity": 120}, {"time": 177600, "pitch": 45, "duration": 200, "velocity": 120}, {"time": 177840, "pitch": 44, "duration": 200, "velocity": 120}, {"time": 178080, "pitch": 42, "duration": 200, "velocity": 120}, {"time": 178320, "pitch": 40, "duration": 200, "velocity": 120}, {"time": 178560, "pitch": 40, "duration": 200, "velocity": 120}, {"time": 178800, "pitch": 40, "duration": 200, "velocity": 120}, {"time": 179040, "pitch": 39, "duration": 200, "velocity": 120}, {"time": 179280, "pitch": 40, "duration": 200, "velocity": 120}, {"time": 179520, "pitch": 40, "duration": 200, "velocity": 120}, {"time": 179760, "pitch": 39, "duration": 200, "velocity": 120}, {"time": 180000, "pitch": 40, "duration": 200, "velocity": 120}, {"time": 180240, "pitch": 39, "duration": 200, "velocity": 120}, {"time": 180480, "pitch": 40, "duration": 200, "velocity": 120}, {"time": 180720, "pitch": 40, "duration": 200, "velocity": 120}, {"time": 180960, "pitch": 39, "duration": 200, "velocity": 120}, {"time": 181200, "pitch": 40, "duration": 200, "velocity": 120}, {"time": 181440, "pitch": 40, "duration": 200, "velocity": 120}, {"time": 181680, "pitch": 42, "duration": 200, "velocity": 120}, {"time": 181920, "pitch": 44, "duration": 200, "velocity": 120}, {"time": 182160, "pitch": 40, "duration": 200, "velocity": 120}, {"time": 182400, "pitch": 45, "duration": 200, "velocity": 120}, {"time": 182640, "pitch": 45, "duration": 200, "velocity": 120}, {"time": 182880, "pitch": 44, "duration": 200, "velocity": 120}, {"time": 183120, "pitch": 45, "duration": 200, "velocity": 120}, {"time": 183360, "pitch": 45, "duration": 200, "velocity": 120}, {"time": 183600, "pitch": 44, "duration": 200, "velocity": 120}, {"time": 183840, "pitch": 45, "duration": 200, "velocity": 120}, {"time": 184080, "pitch": 44, "duration": 200, "velocity": 120}, {"time": 184320, "pitch": 45, "duration": 200, "velocity": 120}, {"time": 184560, "pitch": 45, "duration": 200, "velocity": 120}, {"time": 184800, "pitch": 44, "duration": 200, "velocity": 120}, {"time": 185040, "pitch": 45, "duration": 200, "velocity": 120}, {"time": 185280, "pitch": 45, "duration": 200, "velocity": 120}, {"time": 185520, "pitch": 44, "duration": 200, "velocity": 120}, {"time": 185760, "pitch": 42, "duration": 200, "velocity": 120}, {"time": 186000, "pitch": 40, "duration": 200, "velocity": 120}, {"time": 186240, "pitch": 40, "duration": 200, "velocity": 120}, {"time": 186480, "pitch": 40, "duration": 200, "velocity": 120}, {"time": 186720, "pitch": 39, "duration": 200, "velocity": 120}, {"time": 186960, "pitch": 40, "duration": 200, "velocity": 120}, {"time": 187200, "pitch": 40, "duration": 200, "velocity": 120}, {"time": 187440, "pitch": 39, "duration": 200, "velocity": 120}, {"time": 187680, "pitch": 40, "duration": 200, "velocity": 120}, {"time": 187920, "pitch": 39, "duration": 200, "velocity": 120}, {"time": 188160, "pitch": 40, "duration": 200, "velocity": 120}, {"time": 188400, "pitch": 40, "duration": 200, "velocity": 120}, {"time": 188640, "pitch": 39, "duration": 200, "velocity": 120}, {"time": 188880, "pitch": 40, "duration": 200, "velocity": 120}, {"time": 189120, "pitch": 40, "duration": 200, "velocity": 120}, {"time": 189360, "pitch": 42, "duration": 200, "velocity": 120}, {"time": 189600, "pitch": 44, "duration": 200, "velocity": 120}, {"time": 189840, "pitch": 40, "duration": 200, "velocity": 120}, {"time": 190080, "pitch": 45, "duration": 200, "velocity": 120}, {"time": 190320, "pitch": 45, "duration": 200, "velocity": 120}, {"time": 190560, "pitch": 45, "duration": 200, "velocity": 120}, {"time": 190800, "pitch": 45, "duration": 200, "velocity": 120}, {"time": 191040, "pitch": 45, "duration": 200, "velocity": 120}, {"time": 191280, "pitch": 45, "duration": 200, "velocity": 120}, {"time": 191520, "pitch": 45, "duration": 200, "velocity": 120}, {"time": 191760, "pitch": 45, "duration": 200, "velocity": 120}, {"time": 192000, "pitch": 45, "duration": 200, "velocity": 120}, {"time": 192240, "pitch": 45, "duration": 200, "velocity": 120}, {"time": 192480, "pitch": 45, "duration": 200, "velocity": 120}, {"time": 192720, "pitch": 45, "duration": 200, "velocity": 120}, {"time": 192960, "pitch": 45, "duration": 200, "velocity": 120}, {"time": 193200, "pitch": 45, "duration": 200, "velocity": 120}, {"time": 193440, "pitch": 45, "duration": 200, "velocity": 120}, {"time": 193680, "pitch": 45, "duration": 200, "velocity": 120}, {"time": 193920, "pitch": 44, "duration": 200, "velocity": 120}, {"time": 194160, "pitch": 44, "duration": 200, "velocity": 120}, {"time": 194400, "pitch": 44, "duration": 200, "velocity": 120}, {"time": 194640, "pitch": 44, "duration": 200, "velocity": 120}, {"time": 194880, "pitch": 44, "duration": 200, "velocity": 120}, {"time": 195120, "pitch": 44, "duration": 200, "velocity": 120}, {"time": 195360, "pitch": 44, "duration": 200, "velocity": 120}, {"time": 195600, "pitch": 44, "duration": 200, "velocity": 120}, {"time": 195840, "pitch": 44, "duration": 200, "velocity": 120}, {"time": 196080, "pitch": 44, "duration": 200, "velocity": 120}, {"time": 196320, "pitch": 44, "duration": 200, "velocity": 120}, {"time": 196560, "pitch": 44, "duration": 200, "velocity": 120}, {"time": 196800, "pitch": 44, "duration": 200, "velocity": 120}, {"time": 197040, "pitch": 44, "duration": 200, "velocity": 120}, {"time": 197280, "pitch": 44, "duration": 200, "velocity": 120}, {"time": 197520, "pitch": 44, "duration": 200, "velocity": 120}, {"time": 197760, "pitch": 42, "duration": 200, "velocity": 120}, {"time": 198000, "pitch": 42, "duration": 200, "velocity": 120}, {"time": 198240, "pitch": 42, "duration": 200, "velocity": 120}, {"time": 198480, "pitch": 42, "duration": 200, "velocity": 120}, {"time": 198720, "pitch": 42, "duration": 200, "velocity": 120}, {"time": 198960, "pitch": 42, "duration": 200, "velocity": 120}, {"time": 199200, "pitch": 42, "duration": 200, "velocity": 120}, {"time": 199440, "pitch": 42, "duration": 200, "velocity": 120}, {"time": 199680, "pitch": 42, "duration": 200, "velocity": 120}, {"time": 199920, "pitch": 42, "duration": 200, "velocity": 120}, {"time": 200160, "pitch": 42, "duration": 200, "velocity": 120}, {"time": 200400, "pitch": 42, "duration": 200, "velocity": 120}, {"time": 200640, "pitch": 42, "duration": 200, "velocity": 120}, {"time": 200880, "pitch": 42, "duration": 200, "velocity": 120}, {"time": 201120, "pitch": 42, "duration": 200, "velocity": 120}, {"time": 201360, "pitch": 42, "duration": 200, "velocity": 120}, {"time": 201600, "pitch": 47, "duration": 200, "velocity": 120}, {"time": 201840, "pitch": 47, "duration": 200, "velocity": 120}, {"time": 202080, "pitch": 47, "duration": 200, "velocity": 120}, {"time": 202320, "pitch": 47, "duration": 200, "velocity": 120}, {"time": 202560, "pitch": 47, "duration": 200, "velocity": 120}, {"time": 202800, "pitch": 47, "duration": 200, "velocity": 120}, {"time": 203040, "pitch": 47, "duration": 200, "velocity": 120}, {"time": 203280, "pitch": 47, "duration": 200, "velocity": 120}, {"time": 203520, "pitch": 47, "duration": 200, "velocity": 120}, {"time": 203760, "pitch": 47, "duration": 200, "velocity": 120}, {"time": 204000, "pitch": 47, "duration": 200, "velocity": 120}, {"time": 204240, "pitch": 47, "duration": 200, "velocity": 120}, {"time": 204480, "pitch": 47, "duration": 200, "velocity": 120}, {"time": 204720, "pitch": 47, "duration": 200, "velocity": 120}, {"time": 204960, "pitch": 47, "duration": 200, "velocity": 120}, {"time": 205200, "pitch": 47, "duration": 200, "velocity": 120}, {"time": 205440, "pitch": 40, "duration": 200, "velocity": 120}, {"time": 205680, "pitch": 40, "duration": 200, "velocity": 120}, {"time": 205920, "pitch": 39, "duration": 200, "velocity": 120}, {"time": 206160, "pitch": 40, "duration": 200, "velocity": 120}, {"time": 206400, "pitch": 40, "duration": 200, "velocity": 120}, {"time": 206640, "pitch": 39, "duration": 200, "velocity": 120}, {"time": 206880, "pitch": 40, "duration": 200, "velocity": 120}, {"time": 207120, "pitch": 39, "duration": 200, "velocity": 120}, {"time": 207360, "pitch": 47, "duration": 200, "velocity": 120}, {"time": 207600, "pitch": 47, "duration": 200, "velocity": 120}, {"time": 207840, "pitch": 47, "duration": 200, "velocity": 120}, {"time": 208080, "pitch": 47, "duration": 200, "velocity": 120}, {"time": 208320, "pitch": 47, "duration": 200, "velocity": 120}, {"time": 208560, "pitch": 47, "duration": 200, "velocity": 120}, {"time": 208800, "pitch": 47, "duration": 200, "velocity": 120}, {"time": 209040, "pitch": 47, "duration": 200, "velocity": 120}, {"time": 209280, "pitch": 45, "duration": 200, "velocity": 120}, {"time": 209520, "pitch": 45, "duration": 200, "velocity": 120}, {"time": 209760, "pitch": 45, "duration": 200, "velocity": 120}, {"time": 210000, "pitch": 45, "duration": 200, "velocity": 120}, {"time": 210240, "pitch": 45, "duration": 200, "velocity": 120}, {"time": 210480, "pitch": 45, "duration": 200, "velocity": 120}, {"time": 210720, "pitch": 45, "duration": 200, "velocity": 120}, {"time": 210960, "pitch": 45, "duration": 200, "velocity": 120}, {"time": 211200, "pitch": 47, "duration": 200, "velocity": 120}, {"time": 211440, "pitch": 47, "duration": 200, "velocity": 120}, {"time": 211680, "pitch": 47, "duration": 200, "velocity": 120}, {"time": 211920, "pitch": 47, "duration": 200, "velocity": 120}, {"time": 212160, "pitch": 47, "duration": 200, "velocity": 120}, {"time": 212400, "pitch": 47, "duration": 200, "velocity": 120}, {"time": 212640, "pitch": 47, "duration": 200, "velocity": 120}, {"time": 212880, "pitch": 47, "duration": 200, "velocity": 120}, {"time": 213120, "pitch": 40, "duration": 200, "velocity": 120}, {"time": 213360, "pitch": 40, "duration": 200, "velocity": 120}, {"time": 213600, "pitch": 39, "duration": 200, "velocity": 120}, {"time": 213840, "pitch": 40, "duration": 200, "velocity": 120}, {"time": 214080, "pitch": 40, "duration": 200, "velocity": 120}, {"time": 214320, "pitch": 39, "duration": 200, "velocity": 120}, {"time": 214560, "pitch": 40, "duration": 200, "velocity": 120}, {"time": 214800, "pitch": 39, "duration": 200, "velocity": 120}, {"time": 215040, "pitch": 47, "duration": 200, "velocity": 120}, {"time": 215280, "pitch": 47, "duration": 200, "velocity": 120}, {"time": 215520, "pitch": 47, "duration": 200, "velocity": 120}, {"time": 215760, "pitch": 47, "duration": 200, "velocity": 120}, {"time": 216000, "pitch": 47, "duration": 200, "velocity": 120}, {"time": 216240, "pitch": 47, "duration": 200, "velocity": 120}, {"time": 216480, "pitch": 47, "duration": 200, "velocity": 120}, {"time": 216720, "pitch": 47, "duration": 200, "velocity": 120}, {"time": 216960, "pitch": 45, "duration": 200, "velocity": 120}, {"time": 217200, "pitch": 45, "duration": 200, "velocity": 120}, {"time": 217440, "pitch": 45, "duration": 200, "velocity": 120}, {"time": 217680, "pitch": 45, "duration": 200, "velocity": 120}, {"time": 217920, "pitch": 45, "duration": 200, "velocity": 120}, {"time": 218160, "pitch": 45, "duration": 200, "velocity": 120}, {"time": 218400, "pitch": 45, "duration": 200, "velocity": 120}, {"time": 218640, "pitch": 45, "duration": 200, "velocity": 120}, {"time": 218880, "pitch": 47, "duration": 200, "velocity": 120}, {"time": 219120, "pitch": 47, "duration": 200, "velocity": 120}, {"time": 219360, "pitch": 47, "duration": 200, "velocity": 120}, {"time": 219600, "pitch": 47, "duration": 200, "velocity": 120}, {"time": 219840, "pitch": 47, "duration": 200, "velocity": 120}, {"time": 220080, "pitch": 47, "duration": 200, "velocity": 120}, {"time": 220320, "pitch": 47, "duration": 200, "velocity": 120}, {"time": 220560, "pitch": 47, "duration": 200, "velocity": 120}, {"time": 220800, "pitch": 40, "duration": 200, "velocity": 120}, {"time": 221040, "pitch": 40, "duration": 200, "velocity": 120}, {"time": 221280, "pitch": 39, "duration": 200, "velocity": 120}, {"time": 221520, "pitch": 40, "duration": 200, "velocity": 120}, {"time": 221760, "pitch": 40, "duration": 200, "velocity": 120}, {"time": 222000, "pitch": 39, "duration": 200, "velocity": 120}, {"time": 222240, "pitch": 40, "duration": 200, "velocity": 120}, {"time": 222480, "pitch": 39, "duration": 200, "velocity": 120}, {"time": 222720, "pitch": 47, "duration": 200, "velocity": 120}, {"time": 222960, "pitch": 47, "duration": 200, "velocity": 120}, {"time": 223200, "pitch": 47, "duration": 200, "velocity": 120}, {"time": 223440, "pitch": 47, "duration": 200, "velocity": 120}, {"time": 223680, "pitch": 47, "duration": 200, "velocity": 120}, {"time": 223920, "pitch": 47, "duration": 200, "velocity": 120}, {"time": 224160, "pitch": 47, "duration": 200, "velocity": 120}, {"time": 224400, "pitch": 47, "duration": 200, "velocity": 120}, {"time": 224640, "pitch": 45, "duration": 200, "velocity": 120}, {"time": 224880, "pitch": 45, "duration": 200, "velocity": 120}, {"time": 225120, "pitch": 45, "duration": 200, "velocity": 120}, {"time": 225360, "pitch": 45, "duration": 200, "velocity": 120}, {"time": 225600, "pitch": 45, "duration": 200, "velocity": 120}, {"time": 225840, "pitch": 45, "duration": 200, "velocity": 120}, {"time": 226080, "pitch": 45, "duration": 200, "velocity": 120}, {"time": 226320, "pitch": 45, "duration": 200, "velocity": 120}, {"time": 226560, "pitch": 47, "duration": 200, "velocity": 120}, {"time": 226800, "pitch": 47, "duration": 200, "velocity": 120}, {"time": 227040, "pitch": 47, "duration": 200, "velocity": 120}, {"time": 227280, "pitch": 47, "duration": 200, "velocity": 120}, {"time": 227520, "pitch": 47, "duration": 200, "velocity": 120}, {"time": 227760, "pitch": 47, "duration": 200, "velocity": 120}, {"time": 228000, "pitch": 47, "duration": 200, "velocity": 120}, {"time": 228240, "pitch": 47, "duration": 200, "velocity": 120}, {"time": 228480, "pitch": 45, "duration": 200, "velocity": 120}, {"time": 228720, "pitch": 45, "duration": 200, "velocity": 120}, {"time": 228960, "pitch": 45, "duration": 200, "velocity": 120}, {"time": 229200, "pitch": 45, "duration": 200, "velocity": 120}, {"time": 229440, "pitch": 45, "duration": 200, "velocity": 120}, {"time": 229680, "pitch": 45, "duration": 200, "velocity": 120}, {"time": 229920, "pitch": 45, "duration": 200, "velocity": 120}, {"time": 230160, "pitch": 45, "duration": 200, "velocity": 120}, {"time": 230400, "pitch": 47, "duration": 200, "velocity": 120}, {"time": 230640, "pitch": 47, "duration": 200, "velocity": 120}, {"time": 230880, "pitch": 47, "duration": 200, "velocity": 120}, {"time": 231120, "pitch": 47, "duration": 200, "velocity": 120}, {"time": 231360, "pitch": 47, "duration": 200, "velocity": 120}, {"time": 231600, "pitch": 47, "duration": 200, "velocity": 120}, {"time": 231840, "pitch": 47, "duration": 200, "velocity": 120}, {"time": 232080, "pitch": 47, "duration": 200, "velocity": 120}, {"time": 232320, "pitch": 45, "duration": 200, "velocity": 120}, {"time": 232560, "pitch": 45, "duration": 200, "velocity": 120}, {"time": 232800, "pitch": 45, "duration": 200, "velocity": 120}, {"time": 233040, "pitch": 45, "duration": 200, "velocity": 120}, {"time": 233280, "pitch": 45, "duration": 200, "velocity": 120}, {"time": 233520, "pitch": 45, "duration": 200, "velocity": 120}, {"time": 233760, "pitch": 45, "duration": 200, "velocity": 120}, {"time": 234000, "pitch": 45, "duration": 200, "velocity": 120}, {"time": 234240, "pitch": 47, "duration": 200, "velocity": 120}, {"time": 234480, "pitch": 47, "duration": 200, "velocity": 120}, {"time": 234720, "pitch": 47, "duration": 200, "velocity": 120}, {"time": 234960, "pitch": 47, "duration": 200, "velocity": 120}, {"time": 235200, "pitch": 47, "duration": 200, "velocity": 120}, {"time": 235440, "pitch": 47, "duration": 200, "velocity": 120}, {"time": 235680, "pitch": 47, "duration": 200, "velocity": 120}, {"time": 235920, "pitch": 47, "duration": 200, "velocity": 120}, {"time": 236160, "pitch": 45, "duration": 200, "velocity": 120}, {"time": 236400, "pitch": 45, "duration": 200, "velocity": 120}, {"time": 236640, "pitch": 45, "duration": 200, "velocity": 120}, {"time": 236880, "pitch": 45, "duration": 200, "velocity": 120}, {"time": 237120, "pitch": 45, "duration": 200, "velocity": 120}, {"time": 237360, "pitch": 45, "duration": 200, "velocity": 120}, {"time": 237600, "pitch": 45, "duration": 200, "velocity": 120}, {"time": 237840, "pitch": 45, "duration": 200, "velocity": 120}, {"time": 238080, "pitch": 47, "duration": 200, "velocity": 120}, {"time": 238320, "pitch": 47, "duration": 200, "velocity": 120}, {"time": 238560, "pitch": 47, "duration": 200, "velocity": 120}, {"time": 238800, "pitch": 47, "duration": 200, "velocity": 120}, {"time": 239040, "pitch": 47, "duration": 200, "velocity": 120}, {"time": 239280, "pitch": 47, "duration": 200, "velocity": 120}, {"time": 239520, "pitch": 47, "duration": 200, "velocity": 120}, {"time": 239760, "pitch": 47, "duration": 200, "velocity": 120}, {"time": 240000, "pitch": 40, "duration": 200, "velocity": 120}, {"time": 240240, "pitch": 40, "duration": 200, "velocity": 120}, {"time": 240480, "pitch": 39, "duration": 200, "velocity": 120}, {"time": 240720, "pitch": 40, "duration": 200, "velocity": 120}, {"time": 240960, "pitch": 40, "duration": 200, "velocity": 120}, {"time": 241200, "pitch": 39, "duration": 200, "velocity": 120}, {"time": 241440, "pitch": 40, "duration": 200, "velocity": 120}, {"time": 241680, "pitch": 39, "duration": 200, "velocity": 120}, {"time": 241920, "pitch": 40, "duration": 200, "velocity": 120}, {"time": 242160, "pitch": 40, "duration": 200, "velocity": 120}, {"time": 242400, "pitch": 39, "duration": 200, "velocity": 120}, {"time": 242640, "pitch": 40, "duration": 200, "velocity": 120}, {"time": 242880, "pitch": 40, "duration": 200, "velocity": 120}, {"time": 243120, "pitch": 39, "duration": 200, "velocity": 120}, {"time": 243360, "pitch": 40, "duration": 200, "velocity": 120}, {"time": 243600, "pitch": 39, "duration": 200, "velocity": 120}, {"time": 243840, "pitch": 40, "duration": 200, "velocity": 120}, {"time": 244080, "pitch": 40, "duration": 200, "velocity": 120}, {"time": 244320, "pitch": 39, "duration": 200, "velocity": 120}, {"time": 244560, "pitch": 40, "duration": 200, "velocity": 120}, {"time": 244800, "pitch": 40, "duration": 200, "velocity": 120}, {"time": 245040, "pitch": 39, "duration": 200, "velocity": 120}, {"time": 245280, "pitch": 40, "duration": 200, "velocity": 120}, {"time": 245520, "pitch": 39, "duration": 200, "velocity": 120}, {"time": 245760, "pitch": 40, "duration": 200, "velocity": 120}, {"time": 246000, "pitch": 40, "duration": 200, "velocity": 120}, {"time": 246240, "pitch": 39, "duration": 200, "velocity": 120}, {"time": 246480, "pitch": 40, "duration": 200, "velocity": 120}, {"time": 246720, "pitch": 40, "duration": 200, "velocity": 120}, {"time": 246960, "pitch": 39, "duration": 200, "velocity": 120}, {"time": 247200, "pitch": 40, "duration": 200, "velocity": 120}, {"time": 247440, "pitch": 39, "duration": 200, "velocity": 120}, {"time": 247680, "pitch": 40, "duration": 7680, "velocity": 120}, {"time": 17281, "pitch": 45, "duration": 240, "velocity": 120}, {"time": 17281, "pitch": 52, "duration": 240, "velocity": 120}, {"time": 17281, "pitch": 57, "duration": 240, "velocity": 120}, {"time": 17521, "pitch": 45, "duration": 120, "velocity": 120}, {"time": 17761, "pitch": 45, "duration": 100, "velocity": 120}, {"time": 18001, "pitch": 45, "duration": 240, "velocity": 120}, {"time": 18001, "pitch": 52, "duration": 240, "velocity": 120}, {"time": 18001, "pitch": 57, "duration": 240, "velocity": 120}, {"time": 18241, "pitch": 45, "duration": 120, "velocity": 120}, {"time": 18481, "pitch": 45, "duration": 100, "velocity": 120}, {"time": 18721, "pitch": 45, "duration": 120, "velocity": 120}, {"time": 18961, "pitch": 45, "duration": 100, "velocity": 120}, {"time": 19201, "pitch": 45, "duration": 240, "velocity": 120}, {"time": 19201, "pitch": 52, "duration": 240, "velocity": 120}, {"time": 19201, "pitch": 57, "duration": 240, "velocity": 120}, {"time": 19441, "pitch": 45, "duration": 120, "velocity": 120}, {"time": 19681, "pitch": 45, "duration": 100, "velocity": 120}, {"time": 19921, "pitch": 45, "duration": 240, "velocity": 120}, {"time": 19921, "pitch": 52, "duration": 240, "velocity": 120}, {"time": 19921, "pitch": 57, "duration": 240, "velocity": 120}, {"time": 20161, "pitch": 45, "duration": 120, "velocity": 120}, {"time": 20401, "pitch": 45, "duration": 100, "velocity": 120}, {"time": 20641, "pitch": 45, "duration": 120, "velocity": 120}, {"time": 20881, "pitch": 45, "duration": 100, "velocity": 120}, {"time": 21121, "pitch": 40, "duration": 240, "velocity": 120}, {"time": 21121, "pitch": 47, "duration": 240, "velocity": 120}, {"time": 21121, "pitch": 52, "duration": 240, "velocity": 120}, {"time": 21361, "pitch": 40, "duration": 120, "velocity": 120}, {"time": 21601, "pitch": 40, "duration": 100, "velocity": 120}, {"time": 21841, "pitch": 40, "duration": 240, "velocity": 120}, {"time": 21841, "pitch": 47, "duration": 240, "velocity": 120}, {"time": 21841, "pitch": 52, "duration": 240, "velocity": 120}, {"time": 22081, "pitch": 40, "duration": 120, "velocity": 120}, {"time": 22321, "pitch": 40, "duration": 100, "velocity": 120}, {"time": 22561, "pitch": 40, "duration": 120, "velocity": 120}, {"time": 22801, "pitch": 40, "duration": 100, "velocity": 120}, {"time": 23041, "pitch": 40, "duration": 240, "velocity": 120}, {"time": 23041, "pitch": 47, "duration": 240, "velocity": 120}, {"time": 23041, "pitch": 52, "duration": 240, "velocity": 120}, {"time": 23281, "pitch": 40, "duration": 120, "velocity": 120}, {"time": 23521, "pitch": 40, "duration": 100, "velocity": 120}, {"time": 23761, "pitch": 40, "duration": 240, "velocity": 120}, {"time": 23761, "pitch": 47, "duration": 240, "velocity": 120}, {"time": 23761, "pitch": 52, "duration": 240, "velocity": 120}, {"time": 24001, "pitch": 40, "duration": 120, "velocity": 120}, {"time": 24241, "pitch": 40, "duration": 100, "velocity": 120}, {"time": 24481, "pitch": 44, "duration": 240, "velocity": 120}, {"time": 24481, "pitch": 51, "duration": 240, "velocity": 120}, {"time": 24481, "pitch": 56, "duration": 240, "velocity": 120}, {"time": 24721, "pitch": 40, "duration": 120, "velocity": 120}, {"time": 24961, "pitch": 45, "duration": 240, "velocity": 120}, {"time": 24961, "pitch": 52, "duration": 240, "velocity": 120}, {"time": 24961, "pitch": 57, "duration": 240, "velocity": 120}, {"time": 25201, "pitch": 45, "duration": 120, "velocity": 120}, {"time": 25441, "pitch": 45, "duration": 100, "velocity": 120}, {"time": 25681, "pitch": 45, "duration": 240, "velocity": 120}, {"time": 25681, "pitch": 52, "duration": 240, "velocity": 120}, {"time": 25681, "pitch": 57, "duration": 240, "velocity": 120}, {"time": 25921, "pitch": 45, "duration": 120, "velocity": 120}, {"time": 26161, "pitch": 45, "duration": 100, "velocity": 120}, {"time": 26401, "pitch": 45, "duration": 120, "velocity": 120}, {"time": 26641, "pitch": 45, "duration": 100, "velocity": 120}, {"time": 26881, "pitch": 45, "duration": 240, "velocity": 120}, {"time": 26881, "pitch": 52, "duration": 240, "velocity": 120}, {"time": 26881, "pitch": 57, "duration": 240, "velocity": 120}, {"time": 27121, "pitch": 45, "duration": 120, "velocity": 120}, {"time": 27361, "pitch": 45, "duration": 100, "velocity": 120}, {"time": 27601, "pitch": 45, "duration": 240, "velocity": 120}, {"time": 27601, "pitch": 52, "duration": 240, "velocity": 120}, {"time": 27601, "pitch": 57, "duration": 240, "velocity": 120}, {"time": 27841, "pitch": 45, "duration": 120, "velocity": 120}, {"time": 28081, "pitch": 45, "duration": 100, "velocity": 120}, {"time": 28321, "pitch": 45, "duration": 120, "velocity": 120}, {"time": 28561, "pitch": 45, "duration": 100, "velocity": 120}, {"time": 28801, "pitch": 40, "duration": 240, "velocity": 120}, {"time": 28801, "pitch": 47, "duration": 240, "velocity": 120}, {"time": 28801, "pitch": 52, "duration": 240, "velocity": 120}, {"time": 29041, "pitch": 40, "duration": 120, "velocity": 120}, {"time": 29281, "pitch": 40, "duration": 100, "velocity": 120}, {"time": 29521, "pitch": 40, "duration": 240, "velocity": 120}, {"time": 29521, "pitch": 47, "duration": 240, "velocity": 120}, {"time": 29521, "pitch": 52, "duration": 240, "velocity": 120}, {"time": 29761, "pitch": 40, "duration": 120, "velocity": 120}, {"time": 30001, "pitch": 40, "duration": 100, "velocity": 120}, {"time": 30241, "pitch": 40, "duration": 120, "velocity": 120}, {"time": 30481, "pitch": 40, "duration": 100, "velocity": 120}, {"time": 30721, "pitch": 40, "duration": 240, "velocity": 120}, {"time": 30721, "pitch": 47, "duration": 240, "velocity": 120}, {"time": 30721, "pitch": 52, "duration": 240, "velocity": 120}, {"time": 30961, "pitch": 40, "duration": 120, "velocity": 120}, {"time": 31201, "pitch": 40, "duration": 100, "velocity": 120}, {"time": 31441, "pitch": 40, "duration": 240, "velocity": 120}, {"time": 31441, "pitch": 47, "duration": 240, "velocity": 120}, {"time": 31441, "pitch": 52, "duration": 240, "velocity": 120}, {"time": 31681, "pitch": 40, "duration": 120, "velocity": 120}, {"time": 31921, "pitch": 40, "duration": 100, "velocity": 120}, {"time": 32161, "pitch": 44, "duration": 240, "velocity": 120}, {"time": 32161, "pitch": 51, "duration": 240, "velocity": 120}, {"time": 32161, "pitch": 56, "duration": 240, "velocity": 120}, {"time": 32401, "pitch": 40, "duration": 120, "velocity": 120}, {"time": 32641, "pitch": 45, "duration": 240, "velocity": 120}, {"time": 32641, "pitch": 52, "duration": 240, "velocity": 120}, {"time": 32641, "pitch": 57, "duration": 240, "velocity": 120}, {"time": 32881, "pitch": 45, "duration": 120, "velocity": 120}, {"time": 33121, "pitch": 45, "duration": 100, "velocity": 120}, {"time": 33361, "pitch": 45, "duration": 240, "velocity": 120}, {"time": 33361, "pitch": 52, "duration": 240, "velocity": 120}, {"time": 33361, "pitch": 57, "duration": 240, "velocity": 120}, {"time": 33601, "pitch": 45, "duration": 120, "velocity": 120}, {"time": 33841, "pitch": 45, "duration": 100, "velocity": 120}, {"time": 34081, "pitch": 45, "duration": 120, "velocity": 120}, {"time": 34321, "pitch": 45, "duration": 100, "velocity": 120}, {"time": 34561, "pitch": 45, "duration": 240, "velocity": 120}, {"time": 34561, "pitch": 52, "duration": 240, "velocity": 120}, {"time": 34561, "pitch": 57, "duration": 240, "velocity": 120}, {"time": 34801, "pitch": 45, "duration": 120, "velocity": 120}, {"time": 35041, "pitch": 45, "duration": 100, "velocity": 120}, {"time": 35281, "pitch": 45, "duration": 240, "velocity": 120}, {"time": 35281, "pitch": 52, "duration": 240, "velocity": 120}, {"time": 35281, "pitch": 57, "duration": 240, "velocity": 120}, {"time": 35521, "pitch": 45, "duration": 120, "velocity": 120}, {"time": 35761, "pitch": 45, "duration": 100, "velocity": 120}, {"time": 36001, "pitch": 45, "duration": 120, "velocity": 120}, {"time": 36241, "pitch": 45, "duration": 100, "velocity": 120}, {"time": 36481, "pitch": 40, "duration": 240, "velocity": 120}, {"time": 36481, "pitch": 47, "duration": 240, "velocity": 120}, {"time": 36481, "pitch": 52, "duration": 240, "velocity": 120}, {"time": 36721, "pitch": 40, "duration": 120, "velocity": 120}, {"time": 36961, "pitch": 40, "duration": 100, "velocity": 120}, {"time": 37201, "pitch": 40, "duration": 240, "velocity": 120}, {"time": 37201, "pitch": 47, "duration": 240, "velocity": 120}, {"time": 37201, "pitch": 52, "duration": 240, "velocity": 120}, {"time": 37441, "pitch": 40, "duration": 120, "velocity": 120}, {"time": 37681, "pitch": 40, "duration": 100, "velocity": 120}, {"time": 37921, "pitch": 40, "duration": 120, "velocity": 120}, {"time": 38161, "pitch": 40, "duration": 100, "velocity": 120}, {"time": 38401, "pitch": 40, "duration": 240, "velocity": 120}, {"time": 38401, "pitch": 47, "duration": 240, "velocity": 120}, {"time": 38401, "pitch": 52, "duration": 240, "velocity": 120}, {"time": 38641, "pitch": 40, "duration": 120, "velocity": 120}, {"time": 38881, "pitch": 40, "duration": 100, "velocity": 120}, {"time": 39121, "pitch": 40, "duration": 240, "velocity": 120}, {"time": 39121, "pitch": 47, "duration": 240, "velocity": 120}, {"time": 39121, "pitch": 52, "duration": 240, "velocity": 120}, {"time": 39361, "pitch": 40, "duration": 120, "velocity": 120}, {"time": 39601, "pitch": 40, "duration": 100, "velocity": 120}, {"time": 39841, "pitch": 44, "duration": 240, "velocity": 120}, {"time": 39841, "pitch": 51, "duration": 240, "velocity": 120}, {"time": 39841, "pitch": 56, "duration": 240, "velocity": 120}, {"time": 40081, "pitch": 40, "duration": 120, "velocity": 120}, {"time": 40321, "pitch": 45, "duration": 240, "velocity": 120}, {"time": 40321, "pitch": 52, "duration": 240, "velocity": 120}, {"time": 40321, "pitch": 57, "duration": 240, "velocity": 120}, {"time": 40561, "pitch": 45, "duration": 120, "velocity": 120}, {"time": 40801, "pitch": 45, "duration": 100, "velocity": 120}, {"time": 41041, "pitch": 45, "duration": 240, "velocity": 120}, {"time": 41041, "pitch": 52, "duration": 240, "velocity": 120}, {"time": 41041, "pitch": 57, "duration": 240, "velocity": 120}, {"time": 41281, "pitch": 45, "duration": 120, "velocity": 120}, {"time": 41521, "pitch": 45, "duration": 100, "velocity": 120}, {"time": 41761, "pitch": 45, "duration": 120, "velocity": 120}, {"time": 42001, "pitch": 45, "duration": 100, "velocity": 120}, {"time": 42241, "pitch": 45, "duration": 240, "velocity": 120}, {"time": 42241, "pitch": 52, "duration": 240, "velocity": 120}, {"time": 42241, "pitch": 57, "duration": 240, "velocity": 120}, {"time": 42481, "pitch": 45, "duration": 120, "velocity": 120}, {"time": 42721, "pitch": 45, "duration": 100, "velocity": 120}, {"time": 42961, "pitch": 45, "duration": 240, "velocity": 120}, {"time": 42961, "pitch": 52, "duration": 240, "velocity": 120}, {"time": 42961, "pitch": 57, "duration": 240, "velocity": 120}, {"time": 43201, "pitch": 45, "duration": 120, "velocity": 120}, {"time": 43441, "pitch": 45, "duration": 100, "velocity": 120}, {"time": 43681, "pitch": 45, "duration": 120, "velocity": 120}, {"time": 43921, "pitch": 45, "duration": 100, "velocity": 120}, {"time": 44161, "pitch": 40, "duration": 240, "velocity": 120}, {"time": 44161, "pitch": 47, "duration": 240, "velocity": 120}, {"time": 44161, "pitch": 52, "duration": 240, "velocity": 120}, {"time": 44401, "pitch": 40, "duration": 120, "velocity": 120}, {"time": 44641, "pitch": 40, "duration": 100, "velocity": 120}, {"time": 44881, "pitch": 40, "duration": 240, "velocity": 120}, {"time": 44881, "pitch": 47, "duration": 240, "velocity": 120}, {"time": 44881, "pitch": 52, "duration": 240, "velocity": 120}, {"time": 45121, "pitch": 40, "duration": 120, "velocity": 120}, {"time": 45361, "pitch": 40, "duration": 100, "velocity": 120}, {"time": 45601, "pitch": 40, "duration": 120, "velocity": 120}, {"time": 45841, "pitch": 40, "duration": 100, "velocity": 120}, {"time": 46081, "pitch": 40, "duration": 240, "velocity": 120}, {"time": 46081, "pitch": 47, "duration": 240, "velocity": 120}, {"time": 46081, "pitch": 52, "duration": 240, "velocity": 120}, {"time": 46321, "pitch": 40, "duration": 120, "velocity": 120}, {"time": 46561, "pitch": 40, "duration": 100, "velocity": 120}, {"time": 46801, "pitch": 40, "duration": 240, "velocity": 120}, {"time": 46801, "pitch": 47, "duration": 240, "velocity": 120}, {"time": 46801, "pitch": 52, "duration": 240, "velocity": 120}, {"time": 47041, "pitch": 40, "duration": 120, "velocity": 120}, {"time": 47281, "pitch": 40, "duration": 100, "velocity": 120}, {"time": 47521, "pitch": 44, "duration": 240, "velocity": 120}, {"time": 47521, "pitch": 51, "duration": 240, "velocity": 120}, {"time": 47521, "pitch": 56, "duration": 240, "velocity": 120}, {"time": 47761, "pitch": 40, "duration": 120, "velocity": 120}, {"time": 48001, "pitch": 45, "duration": 240, "velocity": 120}, {"time": 48001, "pitch": 52, "duration": 240, "velocity": 120}, {"time": 48001, "pitch": 57, "duration": 240, "velocity": 120}, {"time": 48241, "pitch": 45, "duration": 120, "velocity": 120}, {"time": 48481, "pitch": 45, "duration": 100, "velocity": 120}, {"time": 48721, "pitch": 45, "duration": 240, "velocity": 120}, {"time": 48721, "pitch": 52, "duration": 240, "velocity": 120}, {"time": 48721, "pitch": 57, "duration": 240, "velocity": 120}, {"time": 48961, "pitch": 45, "duration": 120, "velocity": 120}, {"time": 49201, "pitch": 45, "duration": 100, "velocity": 120}, {"time": 49441, "pitch": 45, "duration": 120, "velocity": 120}, {"time": 49681, "pitch": 45, "duration": 100, "velocity": 120}, {"time": 49921, "pitch": 45, "duration": 240, "velocity": 120}, {"time": 49921, "pitch": 52, "duration": 240, "velocity": 120}, {"time": 49921, "pitch": 57, "duration": 240, "velocity": 120}, {"time": 50161, "pitch": 45, "duration": 120, "velocity": 120}, {"time": 50401, "pitch": 45, "duration": 100, "velocity": 120}, {"time": 50641, "pitch": 45, "duration": 240, "velocity": 120}, {"time": 50641, "pitch": 52, "duration": 240, "velocity": 120}, {"time": 50641, "pitch": 57, "duration": 240, "velocity": 120}, {"time": 50881, "pitch": 45, "duration": 120, "velocity": 120}, {"time": 51121, "pitch": 45, "duration": 100, "velocity": 120}, {"time": 51361, "pitch": 45, "duration": 120, "velocity": 120}, {"time": 51601, "pitch": 45, "duration": 100, "velocity": 120}, {"time": 51841, "pitch": 44, "duration": 240, "velocity": 120}, {"time": 51841, "pitch": 51, "duration": 240, "velocity": 120}, {"time": 51841, "pitch": 56, "duration": 240, "velocity": 120}, {"time": 52081, "pitch": 44, "duration": 120, "velocity": 120}, {"time": 52321, "pitch": 44, "duration": 100, "velocity": 120}, {"time": 52561, "pitch": 44, "duration": 240, "velocity": 120}, {"time": 52561, "pitch": 51, "duration": 240, "velocity": 120}, {"time": 52561, "pitch": 56, "duration": 240, "velocity": 120}, {"time": 52801, "pitch": 44, "duration": 120, "velocity": 120}, {"time": 53041, "pitch": 44, "duration": 100, "velocity": 120}, {"time": 53281, "pitch": 44, "duration": 120, "velocity": 120}, {"time": 53521, "pitch": 44, "duration": 100, "velocity": 120}, {"time": 53761, "pitch": 44, "duration": 240, "velocity": 120}, {"time": 53761, "pitch": 51, "duration": 240, "velocity": 120}, {"time": 53761, "pitch": 56, "duration": 240, "velocity": 120}, {"time": 54001, "pitch": 44, "duration": 120, "velocity": 120}, {"time": 54241, "pitch": 44, "duration": 100, "velocity": 120}, {"time": 54481, "pitch": 44, "duration": 240, "velocity": 120}, {"time": 54481, "pitch": 51, "duration": 240, "velocity": 120}, {"time": 54481, "pitch": 56, "duration": 240, "velocity": 120}, {"time": 54721, "pitch": 44, "duration": 120, "velocity": 120}, {"time": 54961, "pitch": 44, "duration": 100, "velocity": 120}, {"time": 55201, "pitch": 44, "duration": 240, "velocity": 120}, {"time": 55201, "pitch": 51, "duration": 240, "velocity": 120}, {"time": 55201, "pitch": 56, "duration": 240, "velocity": 120}, {"time": 55441, "pitch": 44, "duration": 120, "velocity": 120}, {"time": 55681, "pitch": 42, "duration": 240, "velocity": 120}, {"time": 55681, "pitch": 49, "duration": 240, "velocity": 120}, {"time": 55681, "pitch": 54, "duration": 240, "velocity": 120}, {"time": 55921, "pitch": 42, "duration": 120, "velocity": 120}, {"time": 56161, "pitch": 42, "duration": 100, "velocity": 120}, {"time": 56401, "pitch": 42, "duration": 240, "velocity": 120}, {"time": 56401, "pitch": 49, "duration": 240, "velocity": 120}, {"time": 56401, "pitch": 54, "duration": 240, "velocity": 120}, {"time": 56641, "pitch": 42, "duration": 120, "velocity": 120}, {"time": 56881, "pitch": 42, "duration": 100, "velocity": 120}, {"time": 57121, "pitch": 42, "duration": 120, "velocity": 120}, {"time": 57361, "pitch": 42, "duration": 100, "velocity": 120}, {"time": 57601, "pitch": 42, "duration": 240, "velocity": 120}, {"time": 57601, "pitch": 49, "duration": 240, "velocity": 120}, {"time": 57601, "pitch": 54, "duration": 240, "velocity": 120}, {"time": 57841, "pitch": 42, "duration": 120, "velocity": 120}, {"time": 58081, "pitch": 42, "duration": 100, "velocity": 120}, {"time": 58321, "pitch": 42, "duration": 240, "velocity": 120}, {"time": 58321, "pitch": 49, "duration": 240, "velocity": 120}, {"time": 58321, "pitch": 54, "duration": 240, "velocity": 120}, {"time": 58561, "pitch": 42, "duration": 120, "velocity": 120}, {"time": 58801, "pitch": 42, "duration": 100, "velocity": 120}, {"time": 59041, "pitch": 42, "duration": 120, "velocity": 120}, {"time": 59281, "pitch": 42, "duration": 100, "velocity": 120}, {"time": 59521, "pitch": 47, "duration": 240, "velocity": 120}, {"time": 59521, "pitch": 54, "duration": 240, "velocity": 120}, {"time": 59521, "pitch": 59, "duration": 240, "velocity": 120}, {"time": 59761, "pitch": 47, "duration": 120, "velocity": 120}, {"time": 60001, "pitch": 47, "duration": 100, "velocity": 120}, {"time": 60241, "pitch": 47, "duration": 240, "velocity": 120}, {"time": 60241, "pitch": 54, "duration": 240, "velocity": 120}, {"time": 60241, "pitch": 59, "duration": 240, "velocity": 120}, {"time": 60481, "pitch": 47, "duration": 120, "velocity": 120}, {"time": 60721, "pitch": 47, "duration": 100, "velocity": 120}, {"time": 60961, "pitch": 47, "duration": 120, "velocity": 120}, {"time": 61201, "pitch": 47, "duration": 100, "velocity": 120}, {"time": 61441, "pitch": 47, "duration": 240, "velocity": 120}, {"time": 61441, "pitch": 54, "duration": 240, "velocity": 120}, {"time": 61441, "pitch": 59, "duration": 240, "velocity": 120}, {"time": 61681, "pitch": 47, "duration": 120, "velocity": 120}, {"time": 61921, "pitch": 47, "duration": 100, "velocity": 120}, {"time": 62161, "pitch": 47, "duration": 240, "velocity": 120}, {"time": 62161, "pitch": 55, "duration": 240, "velocity": 120}, {"time": 62161, "pitch": 59, "duration": 240, "velocity": 120}, {"time": 62401, "pitch": 47, "duration": 120, "velocity": 120}, {"time": 62641, "pitch": 47, "duration": 100, "velocity": 120}, {"time": 62881, "pitch": 47, "duration": 240, "velocity": 120}, {"time": 62881, "pitch": 55, "duration": 240, "velocity": 120}, {"time": 62881, "pitch": 59, "duration": 240, "velocity": 120}, {"time": 63121, "pitch": 47, "duration": 120, "velocity": 120}, {"time": 63361, "pitch": 45, "duration": 240, "velocity": 120}, {"time": 63361, "pitch": 52, "duration": 240, "velocity": 120}, {"time": 63361, "pitch": 57, "duration": 240, "velocity": 120}, {"time": 63601, "pitch": 45, "duration": 120, "velocity": 120}, {"time": 63841, "pitch": 45, "duration": 100, "velocity": 120}, {"time": 64081, "pitch": 45, "duration": 240, "velocity": 120}, {"time": 64081, "pitch": 52, "duration": 240, "velocity": 120}, {"time": 64081, "pitch": 57, "duration": 240, "velocity": 120}, {"time": 64321, "pitch": 45, "duration": 120, "velocity": 120}, {"time": 64561, "pitch": 45, "duration": 100, "velocity": 120}, {"time": 64801, "pitch": 45, "duration": 120, "velocity": 120}, {"time": 65041, "pitch": 45, "duration": 100, "velocity": 120}, {"time": 65281, "pitch": 45, "duration": 240, "velocity": 120}, {"time": 65281, "pitch": 52, "duration": 240, "velocity": 120}, {"time": 65281, "pitch": 57, "duration": 240, "velocity": 120}, {"time": 65521, "pitch": 45, "duration": 120, "velocity": 120}, {"time": 65761, "pitch": 45, "duration": 100, "velocity": 120}, {"time": 66001, "pitch": 45, "duration": 240, "velocity": 120}, {"time": 66001, "pitch": 52, "duration": 240, "velocity": 120}, {"time": 66001, "pitch": 57, "duration": 240, "velocity": 120}, {"time": 66241, "pitch": 45, "duration": 120, "velocity": 120}, {"time": 66481, "pitch": 45, "duration": 100, "velocity": 120}, {"time": 66721, "pitch": 45, "duration": 120, "velocity": 120}, {"time": 66961, "pitch": 45, "duration": 100, "velocity": 120}, {"time": 67201, "pitch": 40, "duration": 240, "velocity": 120}, {"time": 67201, "pitch": 47, "duration": 240, "velocity": 120}, {"time": 67201, "pitch": 52, "duration": 240, "velocity": 120}, {"time": 67441, "pitch": 40, "duration": 120, "velocity": 120}, {"time": 67681, "pitch": 40, "duration": 100, "velocity": 120}, {"time": 67921, "pitch": 40, "duration": 240, "velocity": 120}, {"time": 67921, "pitch": 47, "duration": 240, "velocity": 120}, {"time": 67921, "pitch": 52, "duration": 240, "velocity": 120}, {"time": 68161, "pitch": 40, "duration": 120, "velocity": 120}, {"time": 68401, "pitch": 40, "duration": 100, "velocity": 120}, {"time": 68641, "pitch": 40, "duration": 120, "velocity": 120}, {"time": 68881, "pitch": 40, "duration": 100, "velocity": 120}, {"time": 69121, "pitch": 40, "duration": 240, "velocity": 120}, {"time": 69121, "pitch": 47, "duration": 240, "velocity": 120}, {"time": 69121, "pitch": 52, "duration": 240, "velocity": 120}, {"time": 69361, "pitch": 40, "duration": 120, "velocity": 120}, {"time": 69601, "pitch": 40, "duration": 100, "velocity": 120}, {"time": 69841, "pitch": 40, "duration": 240, "velocity": 120}, {"time": 69841, "pitch": 47, "duration": 240, "velocity": 120}, {"time": 69841, "pitch": 52, "duration": 240, "velocity": 120}, {"time": 70081, "pitch": 40, "duration": 120, "velocity": 120}, {"time": 70321, "pitch": 40, "duration": 100, "velocity": 120}, {"time": 70561, "pitch": 44, "duration": 240, "velocity": 120}, {"time": 70561, "pitch": 51, "duration": 240, "velocity": 120}, {"time": 70561, "pitch": 56, "duration": 240, "velocity": 120}, {"time": 70801, "pitch": 40, "duration": 120, "velocity": 120}, {"time": 71041, "pitch": 45, "duration": 240, "velocity": 120}, {"time": 71041, "pitch": 52, "duration": 240, "velocity": 120}, {"time": 71041, "pitch": 57, "duration": 240, "velocity": 120}, {"time": 71281, "pitch": 45, "duration": 120, "velocity": 120}, {"time": 71521, "pitch": 45, "duration": 100, "velocity": 120}, {"time": 71761, "pitch": 45, "duration": 240, "velocity": 120}, {"time": 71761, "pitch": 52, "duration": 240, "velocity": 120}, {"time": 71761, "pitch": 57, "duration": 240, "velocity": 120}, {"time": 72001, "pitch": 45, "duration": 120, "velocity": 120}, {"time": 72241, "pitch": 45, "duration": 100, "velocity": 120}, {"time": 72481, "pitch": 45, "duration": 120, "velocity": 120}, {"time": 72721, "pitch": 45, "duration": 100, "velocity": 120}, {"time": 72961, "pitch": 45, "duration": 240, "velocity": 120}, {"time": 72961, "pitch": 52, "duration": 240, "velocity": 120}, {"time": 72961, "pitch": 57, "duration": 240, "velocity": 120}, {"time": 73201, "pitch": 45, "duration": 120, "velocity": 120}, {"time": 73441, "pitch": 45, "duration": 100, "velocity": 120}, {"time": 73681, "pitch": 45, "duration": 240, "velocity": 120}, {"time": 73681, "pitch": 52, "duration": 240, "velocity": 120}, {"time": 73681, "pitch": 57, "duration": 240, "velocity": 120}, {"time": 73921, "pitch": 45, "duration": 120, "velocity": 120}, {"time": 74161, "pitch": 45, "duration": 100, "velocity": 120}, {"time": 74401, "pitch": 45, "duration": 120, "velocity": 120}, {"time": 74641, "pitch": 45, "duration": 100, "velocity": 120}, {"time": 74881, "pitch": 40, "duration": 240, "velocity": 120}, {"time": 74881, "pitch": 47, "duration": 240, "velocity": 120}, {"time": 74881, "pitch": 52, "duration": 240, "velocity": 120}, {"time": 75121, "pitch": 40, "duration": 120, "velocity": 120}, {"time": 75361, "pitch": 40, "duration": 100, "velocity": 120}, {"time": 75601, "pitch": 40, "duration": 240, "velocity": 120}, {"time": 75601, "pitch": 47, "duration": 240, "velocity": 120}, {"time": 75601, "pitch": 52, "duration": 240, "velocity": 120}, {"time": 75841, "pitch": 40, "duration": 120, "velocity": 120}, {"time": 76081, "pitch": 40, "duration": 100, "velocity": 120}, {"time": 76321, "pitch": 40, "duration": 120, "velocity": 120}, {"time": 76561, "pitch": 40, "duration": 100, "velocity": 120}, {"time": 76801, "pitch": 40, "duration": 240, "velocity": 120}, {"time": 76801, "pitch": 47, "duration": 240, "velocity": 120}, {"time": 76801, "pitch": 52, "duration": 240, "velocity": 120}, {"time": 77041, "pitch": 40, "duration": 120, "velocity": 120}, {"time": 77281, "pitch": 40, "duration": 100, "velocity": 120}, {"time": 77521, "pitch": 40, "duration": 240, "velocity": 120}, {"time": 77521, "pitch": 47, "duration": 240, "velocity": 120}, {"time": 77521, "pitch": 52, "duration": 240, "velocity": 120}, {"time": 77761, "pitch": 40, "duration": 120, "velocity": 120}, {"time": 78001, "pitch": 40, "duration": 100, "velocity": 120}, {"time": 78241, "pitch": 44, "duration": 240, "velocity": 120}, {"time": 78241, "pitch": 51, "duration": 240, "velocity": 120}, {"time": 78241, "pitch": 56, "duration": 240, "velocity": 120}, {"time": 78481, "pitch": 40, "duration": 120, "velocity": 120}, {"time": 78721, "pitch": 45, "duration": 240, "velocity": 120}, {"time": 78721, "pitch": 52, "duration": 240, "velocity": 120}, {"time": 78721, "pitch": 57, "duration": 240, "velocity": 120}, {"time": 78961, "pitch": 45, "duration": 120, "velocity": 120}, {"time": 79201, "pitch": 45, "duration": 100, "velocity": 120}, {"time": 79441, "pitch": 45, "duration": 240, "velocity": 120}, {"time": 79441, "pitch": 52, "duration": 240, "velocity": 120}, {"time": 79441, "pitch": 57, "duration": 240, "velocity": 120}, {"time": 79681, "pitch": 45, "duration": 120, "velocity": 120}, {"time": 79921, "pitch": 45, "duration": 100, "velocity": 120}, {"time": 80161, "pitch": 45, "duration": 120, "velocity": 120}, {"time": 80401, "pitch": 45, "duration": 100, "velocity": 120}, {"time": 80641, "pitch": 45, "duration": 240, "velocity": 120}, {"time": 80641, "pitch": 52, "duration": 240, "velocity": 120}, {"time": 80641, "pitch": 57, "duration": 240, "velocity": 120}, {"time": 80881, "pitch": 45, "duration": 120, "velocity": 120}, {"time": 81121, "pitch": 45, "duration": 100, "velocity": 120}, {"time": 81361, "pitch": 45, "duration": 240, "velocity": 120}, {"time": 81361, "pitch": 52, "duration": 240, "velocity": 120}, {"time": 81361, "pitch": 57, "duration": 240, "velocity": 120}, {"time": 81601, "pitch": 45, "duration": 120, "velocity": 120}, {"time": 81841, "pitch": 45, "duration": 100, "velocity": 120}, {"time": 82081, "pitch": 45, "duration": 120, "velocity": 120}, {"time": 82321, "pitch": 45, "duration": 100, "velocity": 120}, {"time": 82561, "pitch": 44, "duration": 240, "velocity": 120}, {"time": 82561, "pitch": 51, "duration": 240, "velocity": 120}, {"time": 82561, "pitch": 56, "duration": 240, "velocity": 120}, {"time": 82801, "pitch": 44, "duration": 120, "velocity": 120}, {"time": 83041, "pitch": 44, "duration": 100, "velocity": 120}, {"time": 83281, "pitch": 44, "duration": 240, "velocity": 120}, {"time": 83281, "pitch": 51, "duration": 240, "velocity": 120}, {"time": 83281, "pitch": 56, "duration": 240, "velocity": 120}, {"time": 83521, "pitch": 44, "duration": 120, "velocity": 120}, {"time": 83761, "pitch": 44, "duration": 100, "velocity": 120}, {"time": 84001, "pitch": 44, "duration": 120, "velocity": 120}, {"time": 84241, "pitch": 44, "duration": 100, "velocity": 120}, {"time": 84481, "pitch": 44, "duration": 240, "velocity": 120}, {"time": 84481, "pitch": 51, "duration": 240, "velocity": 120}, {"time": 84481, "pitch": 56, "duration": 240, "velocity": 120}, {"time": 84721, "pitch": 44, "duration": 120, "velocity": 120}, {"time": 84961, "pitch": 44, "duration": 100, "velocity": 120}, {"time": 85201, "pitch": 44, "duration": 240, "velocity": 120}, {"time": 85201, "pitch": 51, "duration": 240, "velocity": 120}, {"time": 85201, "pitch": 56, "duration": 240, "velocity": 120}, {"time": 85441, "pitch": 44, "duration": 120, "velocity": 120}, {"time": 85681, "pitch": 44, "duration": 100, "velocity": 120}, {"time": 85921, "pitch": 44, "duration": 240, "velocity": 120}, {"time": 85921, "pitch": 51, "duration": 240, "velocity": 120}, {"time": 85921, "pitch": 56, "duration": 240, "velocity": 120}, {"time": 86161, "pitch": 44, "duration": 120, "velocity": 120}, {"time": 86401, "pitch": 42, "duration": 240, "velocity": 120}, {"time": 86401, "pitch": 49, "duration": 240, "velocity": 120}, {"time": 86401, "pitch": 54, "duration": 240, "velocity": 120}, {"time": 86641, "pitch": 42, "duration": 120, "velocity": 120}, {"time": 86881, "pitch": 42, "duration": 100, "velocity": 120}, {"time": 87121, "pitch": 42, "duration": 240, "velocity": 120}, {"time": 87121, "pitch": 49, "duration": 240, "velocity": 120}, {"time": 87121, "pitch": 54, "duration": 240, "velocity": 120}, {"time": 87361, "pitch": 42, "duration": 120, "velocity": 120}, {"time": 87601, "pitch": 42, "duration": 100, "velocity": 120}, {"time": 87841, "pitch": 42, "duration": 120, "velocity": 120}, {"time": 88081, "pitch": 42, "duration": 100, "velocity": 120}, {"time": 88321, "pitch": 42, "duration": 240, "velocity": 120}, {"time": 88321, "pitch": 49, "duration": 240, "velocity": 120}, {"time": 88321, "pitch": 54, "duration": 240, "velocity": 120}, {"time": 88561, "pitch": 42, "duration": 120, "velocity": 120}, {"time": 88801, "pitch": 42, "duration": 100, "velocity": 120}, {"time": 89041, "pitch": 42, "duration": 240, "velocity": 120}, {"time": 89041, "pitch": 49, "duration": 240, "velocity": 120}, {"time": 89041, "pitch": 54, "duration": 240, "velocity": 120}, {"time": 89281, "pitch": 42, "duration": 120, "velocity": 120}, {"time": 89521, "pitch": 42, "duration": 100, "velocity": 120}, {"time": 89761, "pitch": 42, "duration": 120, "velocity": 120}, {"time": 90001, "pitch": 42, "duration": 100, "velocity": 120}, {"time": 90241, "pitch": 47, "duration": 240, "velocity": 120}, {"time": 90241, "pitch": 54, "duration": 240, "velocity": 120}, {"time": 90241, "pitch": 59, "duration": 240, "velocity": 120}, {"time": 90481, "pitch": 47, "duration": 120, "velocity": 120}, {"time": 90721, "pitch": 47, "duration": 100, "velocity": 120}, {"time": 90961, "pitch": 47, "duration": 240, "velocity": 120}, {"time": 90961, "pitch": 54, "duration": 240, "velocity": 120}, {"time": 90961, "pitch": 59, "duration": 240, "velocity": 120}, {"time": 91201, "pitch": 47, "duration": 120, "velocity": 120}, {"time": 91441, "pitch": 47, "duration": 100, "velocity": 120}, {"time": 91681, "pitch": 47, "duration": 120, "velocity": 120}, {"time": 91921, "pitch": 47, "duration": 100, "velocity": 120}, {"time": 92161, "pitch": 47, "duration": 240, "velocity": 120}, {"time": 92161, "pitch": 54, "duration": 240, "velocity": 120}, {"time": 92161, "pitch": 59, "duration": 240, "velocity": 120}, {"time": 92401, "pitch": 47, "duration": 120, "velocity": 120}, {"time": 92641, "pitch": 47, "duration": 100, "velocity": 120}, {"time": 92881, "pitch": 47, "duration": 240, "velocity": 120}, {"time": 92881, "pitch": 55, "duration": 240, "velocity": 120}, {"time": 92881, "pitch": 59, "duration": 240, "velocity": 120}, {"time": 93121, "pitch": 47, "duration": 120, "velocity": 120}, {"time": 93361, "pitch": 47, "duration": 100, "velocity": 120}, {"time": 93601, "pitch": 47, "duration": 240, "velocity": 120}, {"time": 93601, "pitch": 55, "duration": 240, "velocity": 120}, {"time": 93601, "pitch": 59, "duration": 240, "velocity": 120}, {"time": 93841, "pitch": 47, "duration": 120, "velocity": 120}, {"time": 94081, "pitch": 52, "duration": 240, "velocity": 120}, {"time": 94081, "pitch": 59, "duration": 240, "velocity": 120}, {"time": 94081, "pitch": 64, "duration": 240, "velocity": 120}, {"time": 94321, "pitch": 52, "duration": 120, "velocity": 120}, {"time": 94561, "pitch": 52, "duration": 100, "velocity": 120}, {"time": 94801, "pitch": 52, "duration": 240, "velocity": 120}, {"time": 94801, "pitch": 59, "duration": 240, "velocity": 120}, {"time": 94801, "pitch": 64, "duration": 240, "velocity": 120}, {"time": 95041, "pitch": 52, "duration": 120, "velocity": 120}, {"time": 95281, "pitch": 52, "duration": 100, "velocity": 120}, {"time": 95521, "pitch": 52, "duration": 120, "velocity": 120}, {"time": 95761, "pitch": 52, "duration": 100, "velocity": 120}, {"time": 96001, "pitch": 59, "duration": 240, "velocity": 120}, {"time": 96001, "pitch": 66, "duration": 240, "velocity": 120}, {"time": 96001, "pitch": 71, "duration": 240, "velocity": 120}, {"time": 96241, "pitch": 59, "duration": 120, "velocity": 120}, {"time": 96481, "pitch": 59, "duration": 100, "velocity": 120}, {"time": 96721, "pitch": 59, "duration": 240, "velocity": 120}, {"time": 96721, "pitch": 66, "duration": 240, "velocity": 120}, {"time": 96721, "pitch": 71, "duration": 240, "velocity": 120}, {"time": 96961, "pitch": 59, "duration": 120, "velocity": 120}, {"time": 97201, "pitch": 59, "duration": 100, "velocity": 120}, {"time": 97441, "pitch": 59, "duration": 120, "velocity": 120}, {"time": 97681, "pitch": 59, "duration": 100, "velocity": 120}, {"time": 97921, "pitch": 57, "duration": 240, "velocity": 120}, {"time": 97921, "pitch": 64, "duration": 240, "velocity": 120}, {"time": 97921, "pitch": 69, "duration": 240, "velocity": 120}, {"time": 98161, "pitch": 57, "duration": 120, "velocity": 120}, {"time": 98401, "pitch": 57, "duration": 100, "velocity": 120}, {"time": 98641, "pitch": 57, "duration": 240, "velocity": 120}, {"time": 98641, "pitch": 64, "duration": 240, "velocity": 120}, {"time": 98641, "pitch": 69, "duration": 240, "velocity": 120}, {"time": 98881, "pitch": 57, "duration": 120, "velocity": 120}, {"time": 99121, "pitch": 57, "duration": 100, "velocity": 120}, {"time": 99361, "pitch": 57, "duration": 120, "velocity": 120}, {"time": 99601, "pitch": 57, "duration": 100, "velocity": 120}, {"time": 99841, "pitch": 59, "duration": 240, "velocity": 120}, {"time": 99841, "pitch": 66, "duration": 240, "velocity": 120}, {"time": 99841, "pitch": 71, "duration": 240, "velocity": 120}, {"time": 100081, "pitch": 59, "duration": 120, "velocity": 120}, {"time": 100321, "pitch": 59, "duration": 100, "velocity": 120}, {"time": 100561, "pitch": 59, "duration": 240, "velocity": 120}, {"time": 100561, "pitch": 66, "duration": 240, "velocity": 120}, {"time": 100561, "pitch": 71, "duration": 240, "velocity": 120}, {"time": 100801, "pitch": 59, "duration": 120, "velocity": 120}, {"time": 101041, "pitch": 59, "duration": 100, "velocity": 120}, {"time": 101281, "pitch": 59, "duration": 240, "velocity": 120}, {"time": 101281, "pitch": 66, "duration": 240, "velocity": 120}, {"time": 101281, "pitch": 71, "duration": 240, "velocity": 120}, {"time": 101521, "pitch": 59, "duration": 120, "velocity": 120}, {"time": 101761, "pitch": 52, "duration": 240, "velocity": 120}, {"time": 101761, "pitch": 59, "duration": 240, "velocity": 120}, {"time": 101761, "pitch": 64, "duration": 240, "velocity": 120}, {"time": 102001, "pitch": 52, "duration": 120, "velocity": 120}, {"time": 102241, "pitch": 52, "duration": 100, "velocity": 120}, {"time": 102481, "pitch": 52, "duration": 240, "velocity": 120}, {"time": 102481, "pitch": 59, "duration": 240, "velocity": 120}, {"time": 102481, "pitch": 64, "duration": 240, "velocity": 120}, {"time": 102721, "pitch": 52, "duration": 120, "velocity": 120}, {"time": 102961, "pitch": 52, "duration": 100, "velocity": 120}, {"time": 103201, "pitch": 52, "duration": 120, "velocity": 120}, {"time": 103441, "pitch": 52, "duration": 100, "velocity": 120}, {"time": 103681, "pitch": 59, "duration": 240, "velocity": 120}, {"time": 103681, "pitch": 66, "duration": 240, "velocity": 120}, {"time": 103681, "pitch": 71, "duration": 240, "velocity": 120}, {"time": 103921, "pitch": 59, "duration": 120, "velocity": 120}, {"time": 104161, "pitch": 59, "duration": 100, "velocity": 120}, {"time": 104401, "pitch": 59, "duration": 240, "velocity": 120}, {"time": 104401, "pitch": 66, "duration": 240, "velocity": 120}, {"time": 104401, "pitch": 71, "duration": 240, "velocity": 120}, {"time": 104641, "pitch": 59, "duration": 120, "velocity": 120}, {"time": 104881, "pitch": 59, "duration": 100, "velocity": 120}, {"time": 105121, "pitch": 59, "duration": 120, "velocity": 120}, {"time": 105361, "pitch": 59, "duration": 100, "velocity": 120}, {"time": 105601, "pitch": 57, "duration": 240, "velocity": 120}, {"time": 105601, "pitch": 64, "duration": 240, "velocity": 120}, {"time": 105601, "pitch": 69, "duration": 240, "velocity": 120}, {"time": 105841, "pitch": 57, "duration": 120, "velocity": 120}, {"time": 106081, "pitch": 57, "duration": 100, "velocity": 120}, {"time": 106321, "pitch": 57, "duration": 240, "velocity": 120}, {"time": 106321, "pitch": 64, "duration": 240, "velocity": 120}, {"time": 106321, "pitch": 69, "duration": 240, "velocity": 120}, {"time": 106561, "pitch": 57, "duration": 120, "velocity": 120}, {"time": 106801, "pitch": 57, "duration": 100, "velocity": 120}, {"time": 107041, "pitch": 57, "duration": 120, "velocity": 120}, {"time": 107281, "pitch": 57, "duration": 100, "velocity": 120}, {"time": 107521, "pitch": 59, "duration": 240, "velocity": 120}, {"time": 107521, "pitch": 66, "duration": 240, "velocity": 120}, {"time": 107521, "pitch": 71, "duration": 240, "velocity": 120}, {"time": 107761, "pitch": 59, "duration": 120, "velocity": 120}, {"time": 108001, "pitch": 59, "duration": 100, "velocity": 120}, {"time": 108241, "pitch": 59, "duration": 240, "velocity": 120}, {"time": 108241, "pitch": 66, "duration": 240, "velocity": 120}, {"time": 108241, "pitch": 71, "duration": 240, "velocity": 120}, {"time": 108481, "pitch": 59, "duration": 120, "velocity": 120}, {"time": 108721, "pitch": 59, "duration": 100, "velocity": 120}, {"time": 108961, "pitch": 59, "duration": 240, "velocity": 120}, {"time": 108961, "pitch": 66, "duration": 240, "velocity": 120}, {"time": 108961, "pitch": 71, "duration": 240, "velocity": 120}, {"time": 109201, "pitch": 59, "duration": 120, "velocity": 120}, {"time": 109441, "pitch": 52, "duration": 240, "velocity": 120}, {"time": 109441, "pitch": 59, "duration": 240, "velocity": 120}, {"time": 109441, "pitch": 64, "duration": 240, "velocity": 120}, {"time": 109681, "pitch": 52, "duration": 120, "velocity": 120}, {"time": 109921, "pitch": 52, "duration": 100, "velocity": 120}, {"time": 110161, "pitch": 52, "duration": 240, "velocity": 120}, {"time": 110161, "pitch": 59, "duration": 240, "velocity": 120}, {"time": 110161, "pitch": 64, "duration": 240, "velocity": 120}, {"time": 110401, "pitch": 52, "duration": 120, "velocity": 120}, {"time": 110641, "pitch": 52, "duration": 100, "velocity": 120}, {"time": 110881, "pitch": 52, "duration": 120, "velocity": 120}, {"time": 111121, "pitch": 52, "duration": 100, "velocity": 120}, {"time": 111361, "pitch": 59, "duration": 240, "velocity": 120}, {"time": 111361, "pitch": 66, "duration": 240, "velocity": 120}, {"time": 111361, "pitch": 71, "duration": 240, "velocity": 120}, {"time": 111601, "pitch": 59, "duration": 120, "velocity": 120}, {"time": 111841, "pitch": 59, "duration": 100, "velocity": 120}, {"time": 112081, "pitch": 59, "duration": 240, "velocity": 120}, {"time": 112081, "pitch": 66, "duration": 240, "velocity": 120}, {"time": 112081, "pitch": 71, "duration": 240, "velocity": 120}, {"time": 112321, "pitch": 59, "duration": 120, "velocity": 120}, {"time": 112561, "pitch": 59, "duration": 100, "velocity": 120}, {"time": 112801, "pitch": 59, "duration": 120, "velocity": 120}, {"time": 113041, "pitch": 59, "duration": 100, "velocity": 120}, {"time": 113281, "pitch": 57, "duration": 240, "velocity": 120}, {"time": 113281, "pitch": 64, "duration": 240, "velocity": 120}, {"time": 113281, "pitch": 69, "duration": 240, "velocity": 120}, {"time": 113521, "pitch": 57, "duration": 120, "velocity": 120}, {"time": 113761, "pitch": 57, "duration": 100, "velocity": 120}, {"time": 114001, "pitch": 57, "duration": 240, "velocity": 120}, {"time": 114001, "pitch": 64, "duration": 240, "velocity": 120}, {"time": 114001, "pitch": 69, "duration": 240, "velocity": 120}, {"time": 114241, "pitch": 57, "duration": 120, "velocity": 120}, {"time": 114481, "pitch": 57, "duration": 100, "velocity": 120}, {"time": 114721, "pitch": 57, "duration": 120, "velocity": 120}, {"time": 114961, "pitch": 57, "duration": 100, "velocity": 120}, {"time": 115201, "pitch": 59, "duration": 240, "velocity": 120}, {"time": 115201, "pitch": 66, "duration": 240, "velocity": 120}, {"time": 115201, "pitch": 71, "duration": 240, "velocity": 120}, {"time": 115441, "pitch": 59, "duration": 120, "velocity": 120}, {"time": 115681, "pitch": 59, "duration": 100, "velocity": 120}, {"time": 115921, "pitch": 59, "duration": 240, "velocity": 120}, {"time": 115921, "pitch": 66, "duration": 240, "velocity": 120}, {"time": 115921, "pitch": 71, "duration": 240, "velocity": 120}, {"time": 116161, "pitch": 59, "duration": 120, "velocity": 120}, {"time": 116401, "pitch": 59, "duration": 100, "velocity": 120}, {"time": 116641, "pitch": 59, "duration": 240, "velocity": 120}, {"time": 116641, "pitch": 66, "duration": 240, "velocity": 120}, {"time": 116641, "pitch": 71, "duration": 240, "velocity": 120}, {"time": 116881, "pitch": 59, "duration": 120, "velocity": 120}, {"time": 117121, "pitch": 57, "duration": 240, "velocity": 120}, {"time": 117121, "pitch": 64, "duration": 240, "velocity": 120}, {"time": 117121, "pitch": 69, "duration": 240, "velocity": 120}, {"time": 117361, "pitch": 57, "duration": 120, "velocity": 120}, {"time": 117601, "pitch": 57, "duration": 100, "velocity": 120}, {"time": 117841, "pitch": 57, "duration": 240, "velocity": 120}, {"time": 117841, "pitch": 64, "duration": 240, "velocity": 120}, {"time": 117841, "pitch": 69, "duration": 240, "velocity": 120}, {"time": 118081, "pitch": 57, "duration": 120, "velocity": 120}, {"time": 118321, "pitch": 57, "duration": 100, "velocity": 120}, {"time": 118561, "pitch": 57, "duration": 120, "velocity": 120}, {"time": 118801, "pitch": 57, "duration": 100, "velocity": 120}, {"time": 119041, "pitch": 59, "duration": 240, "velocity": 120}, {"time": 119041, "pitch": 66, "duration": 240, "velocity": 120}, {"time": 119041, "pitch": 71, "duration": 240, "velocity": 120}, {"time": 119281, "pitch": 59, "duration": 120, "velocity": 120}, {"time": 119521, "pitch": 59, "duration": 100, "velocity": 120}, {"time": 119761, "pitch": 59, "duration": 240, "velocity": 120}, {"time": 119761, "pitch": 66, "duration": 240, "velocity": 120}, {"time": 119761, "pitch": 71, "duration": 240, "velocity": 120}, {"time": 120001, "pitch": 59, "duration": 120, "velocity": 120}, {"time": 120241, "pitch": 59, "duration": 100, "velocity": 120}, {"time": 120481, "pitch": 59, "duration": 240, "velocity": 120}, {"time": 120481, "pitch": 66, "duration": 240, "velocity": 120}, {"time": 120481, "pitch": 71, "duration": 240, "velocity": 120}, {"time": 120721, "pitch": 59, "duration": 120, "velocity": 120}, {"time": 120961, "pitch": 57, "duration": 240, "velocity": 120}, {"time": 120961, "pitch": 64, "duration": 240, "velocity": 120}, {"time": 120961, "pitch": 69, "duration": 240, "velocity": 120}, {"time": 121201, "pitch": 57, "duration": 120, "velocity": 120}, {"time": 121441, "pitch": 57, "duration": 100, "velocity": 120}, {"time": 121681, "pitch": 57, "duration": 240, "velocity": 120}, {"time": 121681, "pitch": 64, "duration": 240, "velocity": 120}, {"time": 121681, "pitch": 69, "duration": 240, "velocity": 120}, {"time": 121921, "pitch": 57, "duration": 120, "velocity": 120}, {"time": 122161, "pitch": 57, "duration": 100, "velocity": 120}, {"time": 122401, "pitch": 57, "duration": 120, "velocity": 120}, {"time": 122641, "pitch": 57, "duration": 100, "velocity": 120}, {"time": 122881, "pitch": 59, "duration": 240, "velocity": 120}, {"time": 122881, "pitch": 66, "duration": 240, "velocity": 120}, {"time": 122881, "pitch": 71, "duration": 240, "velocity": 120}, {"time": 123121, "pitch": 59, "duration": 120, "velocity": 120}, {"time": 123361, "pitch": 59, "duration": 100, "velocity": 120}, {"time": 123601, "pitch": 59, "duration": 240, "velocity": 120}, {"time": 123601, "pitch": 66, "duration": 240, "velocity": 120}, {"time": 123601, "pitch": 71, "duration": 240, "velocity": 120}, {"time": 123841, "pitch": 59, "duration": 120, "velocity": 120}, {"time": 124081, "pitch": 59, "duration": 100, "velocity": 120}, {"time": 124321, "pitch": 59, "duration": 240, "velocity": 120}, {"time": 124321, "pitch": 66, "duration": 240, "velocity": 120}, {"time": 124321, "pitch": 71, "duration": 240, "velocity": 120}, {"time": 124561, "pitch": 59, "duration": 120, "velocity": 120}, {"time": 124801, "pitch": 57, "duration": 240, "velocity": 120}, {"time": 124801, "pitch": 64, "duration": 240, "velocity": 120}, {"time": 124801, "pitch": 69, "duration": 240, "velocity": 120}, {"time": 125041, "pitch": 57, "duration": 120, "velocity": 120}, {"time": 125281, "pitch": 57, "duration": 100, "velocity": 120}, {"time": 125521, "pitch": 57, "duration": 240, "velocity": 120}, {"time": 125521, "pitch": 64, "duration": 240, "velocity": 120}, {"time": 125521, "pitch": 69, "duration": 240, "velocity": 120}, {"time": 125761, "pitch": 57, "duration": 120, "velocity": 120}, {"time": 126001, "pitch": 57, "duration": 100, "velocity": 120}, {"time": 126241, "pitch": 57, "duration": 120, "velocity": 120}, {"time": 126481, "pitch": 57, "duration": 100, "velocity": 120}, {"time": 126721, "pitch": 59, "duration": 240, "velocity": 120}, {"time": 126721, "pitch": 66, "duration": 240, "velocity": 120}, {"time": 126721, "pitch": 71, "duration": 240, "velocity": 120}, {"time": 126961, "pitch": 59, "duration": 120, "velocity": 120}, {"time": 127201, "pitch": 59, "duration": 100, "velocity": 120}, {"time": 127441, "pitch": 59, "duration": 240, "velocity": 120}, {"time": 127441, "pitch": 66, "duration": 240, "velocity": 120}, {"time": 127441, "pitch": 71, "duration": 240, "velocity": 120}, {"time": 127681, "pitch": 59, "duration": 120, "velocity": 120}, {"time": 127921, "pitch": 59, "duration": 100, "velocity": 120}, {"time": 128161, "pitch": 59, "duration": 240, "velocity": 120}, {"time": 128161, "pitch": 66, "duration": 240, "velocity": 120}, {"time": 128161, "pitch": 71, "duration": 240, "velocity": 120}, {"time": 128401, "pitch": 59, "duration": 120, "velocity": 120}, {"time": 128641, "pitch": 52, "duration": 240, "velocity": 120}, {"time": 128641, "pitch": 59, "duration": 240, "velocity": 120}, {"time": 128641, "pitch": 64, "duration": 240, "velocity": 120}, {"time": 128881, "pitch": 52, "duration": 120, "velocity": 120}, {"time": 129121, "pitch": 52, "duration": 100, "velocity": 120}, {"time": 129361, "pitch": 52, "duration": 240, "velocity": 120}, {"time": 129361, "pitch": 59, "duration": 240, "velocity": 120}, {"time": 129361, "pitch": 64, "duration": 240, "velocity": 120}, {"time": 129601, "pitch": 52, "duration": 120, "velocity": 120}, {"time": 129841, "pitch": 52, "duration": 100, "velocity": 120}, {"time": 130081, "pitch": 52, "duration": 120, "velocity": 120}, {"time": 130321, "pitch": 52, "duration": 100, "velocity": 120}, {"time": 130561, "pitch": 52, "duration": 240, "velocity": 120}, {"time": 130561, "pitch": 59, "duration": 240, "velocity": 120}, {"time": 130561, "pitch": 64, "duration": 240, "velocity": 120}, {"time": 130801, "pitch": 52, "duration": 120, "velocity": 120}, {"time": 131041, "pitch": 52, "duration": 100, "velocity": 120}, {"time": 131281, "pitch": 52, "duration": 240, "velocity": 120}, {"time": 131281, "pitch": 59, "duration": 240, "velocity": 120}, {"time": 131281, "pitch": 64, "duration": 240, "velocity": 120}, {"time": 131521, "pitch": 52, "duration": 120, "velocity": 120}, {"time": 131761, "pitch": 52, "duration": 100, "velocity": 120}, {"time": 132001, "pitch": 52, "duration": 120, "velocity": 120}, {"time": 132241, "pitch": 52, "duration": 100, "velocity": 120}, {"time": 132481, "pitch": 52, "duration": 240, "velocity": 120}, {"time": 132481, "pitch": 59, "duration": 240, "velocity": 120}, {"time": 132481, "pitch": 64, "duration": 240, "velocity": 120}, {"time": 132721, "pitch": 52, "duration": 120, "velocity": 120}, {"time": 132961, "pitch": 52, "duration": 100, "velocity": 120}, {"time": 133201, "pitch": 52, "duration": 240, "velocity": 120}, {"time": 133201, "pitch": 59, "duration": 240, "velocity": 120}, {"time": 133201, "pitch": 64, "duration": 240, "velocity": 120}, {"time": 133441, "pitch": 52, "duration": 120, "velocity": 120}, {"time": 133681, "pitch": 52, "duration": 100, "velocity": 120}, {"time": 133921, "pitch": 52, "duration": 120, "velocity": 120}, {"time": 134161, "pitch": 52, "duration": 100, "velocity": 120}, {"time": 134401, "pitch": 52, "duration": 240, "velocity": 120}, {"time": 134401, "pitch": 59, "duration": 240, "velocity": 120}, {"time": 134401, "pitch": 64, "duration": 240, "velocity": 120}, {"time": 134641, "pitch": 52, "duration": 120, "velocity": 120}, {"time": 134881, "pitch": 52, "duration": 100, "velocity": 120}, {"time": 135121, "pitch": 52, "duration": 240, "velocity": 120}, {"time": 135121, "pitch": 59, "duration": 240, "velocity": 120}, {"time": 135121, "pitch": 64, "duration": 240, "velocity": 120}, {"time": 135361, "pitch": 52, "duration": 120, "velocity": 120}, {"time": 135601, "pitch": 52, "duration": 100, "velocity": 120}, {"time": 135841, "pitch": 52, "duration": 120, "velocity": 120}, {"time": 136081, "pitch": 52, "duration": 100, "velocity": 120}, {"time": 136320, "pitch": 40, "duration": 5770, "velocity": 80}, {"time": 136320, "pitch": 47, "duration": 5770, "velocity": 100}, {"time": 136340, "pitch": 52, "duration": 5740, "velocity": 110}, {"time": 142080, "pitch": 45, "duration": 120, "velocity": 120}, {"time": 142200, "pitch": 45, "duration": 120, "velocity": 100}, {"time": 142320, "pitch": 45, "duration": 120, "velocity": 110}, {"time": 142440, "pitch": 45, "duration": 120, "velocity": 90}, {"time": 142560, "pitch": 45, "duration": 120, "velocity": 120}, {"time": 142680, "pitch": 45, "duration": 120, "velocity": 110}, {"time": 142800, "pitch": 45, "duration": 120, "velocity": 120}, {"time": 142920, "pitch": 45, "duration": 160, "velocity": 90}, {"time": 143160, "pitch": 47, "duration": 120, "velocity": 120}, {"time": 143280, "pitch": 47, "duration": 120, "velocity": 100}, {"time": 143400, "pitch": 47, "duration": 120, "velocity": 120}, {"time": 143520, "pitch": 47, "duration": 400, "velocity": 120}, {"time": 144001, "pitch": 45, "duration": 240, "velocity": 120}, {"time": 144001, "pitch": 52, "duration": 240, "velocity": 120}, {"time": 144001, "pitch": 57, "duration": 240, "velocity": 120}, {"time": 144241, "pitch": 45, "duration": 120, "velocity": 120}, {"time": 144481, "pitch": 45, "duration": 100, "velocity": 120}, {"time": 144721, "pitch": 45, "duration": 240, "velocity": 120}, {"time": 144721, "pitch": 52, "duration": 240, "velocity": 120}, {"time": 144721, "pitch": 57, "duration": 240, "velocity": 120}, {"time": 144961, "pitch": 45, "duration": 120, "velocity": 120}, {"time": 145201, "pitch": 45, "duration": 100, "velocity": 120}, {"time": 145441, "pitch": 45, "duration": 120, "velocity": 120}, {"time": 145681, "pitch": 45, "duration": 100, "velocity": 120}, {"time": 145921, "pitch": 45, "duration": 240, "velocity": 120}, {"time": 145921, "pitch": 52, "duration": 240, "velocity": 120}, {"time": 145921, "pitch": 57, "duration": 240, "velocity": 120}, {"time": 146161, "pitch": 45, "duration": 120, "velocity": 120}, {"time": 146401, "pitch": 45, "duration": 100, "velocity": 120}, {"time": 146641, "pitch": 45, "duration": 240, "velocity": 120}, {"time": 146641, "pitch": 52, "duration": 240, "velocity": 120}, {"time": 146641, "pitch": 57, "duration": 240, "velocity": 120}, {"time": 146881, "pitch": 45, "duration": 120, "velocity": 120}, {"time": 147121, "pitch": 45, "duration": 100, "velocity": 120}, {"time": 147361, "pitch": 45, "duration": 120, "velocity": 120}, {"time": 147601, "pitch": 45, "duration": 100, "velocity": 120}, {"time": 147841, "pitch": 40, "duration": 240, "velocity": 120}, {"time": 147841, "pitch": 47, "duration": 240, "velocity": 120}, {"time": 147841, "pitch": 52, "duration": 240, "velocity": 120}, {"time": 148081, "pitch": 40, "duration": 120, "velocity": 120}, {"time": 148321, "pitch": 40, "duration": 100, "velocity": 120}, {"time": 148561, "pitch": 40, "duration": 240, "velocity": 120}, {"time": 148561, "pitch": 47, "duration": 240, "velocity": 120}, {"time": 148561, "pitch": 52, "duration": 240, "velocity": 120}, {"time": 148801, "pitch": 40, "duration": 120, "velocity": 120}, {"time": 149041, "pitch": 40, "duration": 100, "velocity": 120}, {"time": 149281, "pitch": 40, "duration": 120, "velocity": 120}, {"time": 149521, "pitch": 40, "duration": 100, "velocity": 120}, {"time": 149761, "pitch": 40, "duration": 240, "velocity": 120}, {"time": 149761, "pitch": 47, "duration": 240, "velocity": 120}, {"time": 149761, "pitch": 52, "duration": 240, "velocity": 120}, {"time": 150001, "pitch": 40, "duration": 120, "velocity": 120}, {"time": 150241, "pitch": 40, "duration": 100, "velocity": 120}, {"time": 150481, "pitch": 40, "duration": 240, "velocity": 120}, {"time": 150481, "pitch": 47, "duration": 240, "velocity": 120}, {"time": 150481, "pitch": 52, "duration": 240, "velocity": 120}, {"time": 150721, "pitch": 40, "duration": 120, "velocity": 120}, {"time": 150961, "pitch": 40, "duration": 100, "velocity": 120}, {"time": 151201, "pitch": 44, "duration": 240, "velocity": 120}, {"time": 151201, "pitch": 51, "duration": 240, "velocity": 120}, {"time": 151201, "pitch": 56, "duration": 240, "velocity": 120}, {"time": 151441, "pitch": 40, "duration": 120, "velocity": 120}, {"time": 151681, "pitch": 45, "duration": 240, "velocity": 120}, {"time": 151681, "pitch": 52, "duration": 240, "velocity": 120}, {"time": 151681, "pitch": 57, "duration": 240, "velocity": 120}, {"time": 151921, "pitch": 45, "duration": 120, "velocity": 120}, {"time": 152161, "pitch": 45, "duration": 100, "velocity": 120}, {"time": 152401, "pitch": 45, "duration": 240, "velocity": 120}, {"time": 152401, "pitch": 52, "duration": 240, "velocity": 120}, {"time": 152401, "pitch": 57, "duration": 240, "velocity": 120}, {"time": 152641, "pitch": 45, "duration": 120, "velocity": 120}, {"time": 152881, "pitch": 45, "duration": 100, "velocity": 120}, {"time": 153121, "pitch": 45, "duration": 120, "velocity": 120}, {"time": 153361, "pitch": 45, "duration": 100, "velocity": 120}, {"time": 153601, "pitch": 45, "duration": 240, "velocity": 120}, {"time": 153601, "pitch": 52, "duration": 240, "velocity": 120}, {"time": 153601, "pitch": 57, "duration": 240, "velocity": 120}, {"time": 153841, "pitch": 45, "duration": 120, "velocity": 120}, {"time": 154081, "pitch": 45, "duration": 100, "velocity": 120}, {"time": 154321, "pitch": 45, "duration": 240, "velocity": 120}, {"time": 154321, "pitch": 52, "duration": 240, "velocity": 120}, {"time": 154321, "pitch": 57, "duration": 240, "velocity": 120}, {"time": 154561, "pitch": 45, "duration": 120, "velocity": 120}, {"time": 154801, "pitch": 45, "duration": 100, "velocity": 120}, {"time": 155041, "pitch": 45, "duration": 120, "velocity": 120}, {"time": 155281, "pitch": 45, "duration": 100, "velocity": 120}, {"time": 155521, "pitch": 40, "duration": 240, "velocity": 120}, {"time": 155521, "pitch": 47, "duration": 240, "velocity": 120}, {"time": 155521, "pitch": 52, "duration": 240, "velocity": 120}, {"time": 155761, "pitch": 40, "duration": 120, "velocity": 120}, {"time": 156001, "pitch": 40, "duration": 100, "velocity": 120}, {"time": 156241, "pitch": 40, "duration": 240, "velocity": 120}, {"time": 156241, "pitch": 47, "duration": 240, "velocity": 120}, {"time": 156241, "pitch": 52, "duration": 240, "velocity": 120}, {"time": 156481, "pitch": 40, "duration": 120, "velocity": 120}, {"time": 156721, "pitch": 40, "duration": 100, "velocity": 120}, {"time": 156961, "pitch": 40, "duration": 120, "velocity": 120}, {"time": 157201, "pitch": 40, "duration": 100, "velocity": 120}, {"time": 157441, "pitch": 40, "duration": 240, "velocity": 120}, {"time": 157441, "pitch": 47, "duration": 240, "velocity": 120}, {"time": 157441, "pitch": 52, "duration": 240, "velocity": 120}, {"time": 157681, "pitch": 40, "duration": 120, "velocity": 120}, {"time": 157921, "pitch": 40, "duration": 100, "velocity": 120}, {"time": 158161, "pitch": 40, "duration": 240, "velocity": 120}, {"time": 158161, "pitch": 47, "duration": 240, "velocity": 120}, {"time": 158161, "pitch": 52, "duration": 240, "velocity": 120}, {"time": 158401, "pitch": 40, "duration": 120, "velocity": 120}, {"time": 158641, "pitch": 40, "duration": 100, "velocity": 120}, {"time": 158881, "pitch": 44, "duration": 240, "velocity": 120}, {"time": 158881, "pitch": 51, "duration": 240, "velocity": 120}, {"time": 158881, "pitch": 56, "duration": 240, "velocity": 120}, {"time": 159121, "pitch": 40, "duration": 120, "velocity": 120}, {"time": 159361, "pitch": 45, "duration": 240, "velocity": 120}, {"time": 159361, "pitch": 52, "duration": 240, "velocity": 120}, {"time": 159361, "pitch": 57, "duration": 240, "velocity": 120}, {"time": 159601, "pitch": 45, "duration": 120, "velocity": 120}, {"time": 159841, "pitch": 45, "duration": 100, "velocity": 120}, {"time": 160081, "pitch": 45, "duration": 240, "velocity": 120}, {"time": 160081, "pitch": 52, "duration": 240, "velocity": 120}, {"time": 160081, "pitch": 57, "duration": 240, "velocity": 120}, {"time": 160321, "pitch": 45, "duration": 120, "velocity": 120}, {"time": 160561, "pitch": 45, "duration": 100, "velocity": 120}, {"time": 160801, "pitch": 45, "duration": 120, "velocity": 120}, {"time": 161041, "pitch": 45, "duration": 100, "velocity": 120}, {"time": 161281, "pitch": 45, "duration": 240, "velocity": 120}, {"time": 161281, "pitch": 52, "duration": 240, "velocity": 120}, {"time": 161281, "pitch": 57, "duration": 240, "velocity": 120}, {"time": 161521, "pitch": 45, "duration": 120, "velocity": 120}, {"time": 161761, "pitch": 45, "duration": 100, "velocity": 120}, {"time": 162001, "pitch": 45, "duration": 240, "velocity": 120}, {"time": 162001, "pitch": 52, "duration": 240, "velocity": 120}, {"time": 162001, "pitch": 57, "duration": 240, "velocity": 120}, {"time": 162241, "pitch": 45, "duration": 120, "velocity": 120}, {"time": 162481, "pitch": 45, "duration": 100, "velocity": 120}, {"time": 162721, "pitch": 45, "duration": 120, "velocity": 120}, {"time": 162961, "pitch": 45, "duration": 100, "velocity": 120}, {"time": 163201, "pitch": 44, "duration": 240, "velocity": 120}, {"time": 163201, "pitch": 51, "duration": 240, "velocity": 120}, {"time": 163201, "pitch": 56, "duration": 240, "velocity": 120}, {"time": 163441, "pitch": 44, "duration": 120, "velocity": 120}, {"time": 163681, "pitch": 44, "duration": 100, "velocity": 120}, {"time": 163921, "pitch": 44, "duration": 240, "velocity": 120}, {"time": 163921, "pitch": 51, "duration": 240, "velocity": 120}, {"time": 163921, "pitch": 56, "duration": 240, "velocity": 120}, {"time": 164161, "pitch": 44, "duration": 120, "velocity": 120}, {"time": 164401, "pitch": 44, "duration": 100, "velocity": 120}, {"time": 164641, "pitch": 44, "duration": 120, "velocity": 120}, {"time": 164881, "pitch": 44, "duration": 100, "velocity": 120}, {"time": 165121, "pitch": 44, "duration": 240, "velocity": 120}, {"time": 165121, "pitch": 51, "duration": 240, "velocity": 120}, {"time": 165121, "pitch": 56, "duration": 240, "velocity": 120}, {"time": 165361, "pitch": 44, "duration": 120, "velocity": 120}, {"time": 165601, "pitch": 44, "duration": 100, "velocity": 120}, {"time": 165841, "pitch": 44, "duration": 240, "velocity": 120}, {"time": 165841, "pitch": 51, "duration": 240, "velocity": 120}, {"time": 165841, "pitch": 56, "duration": 240, "velocity": 120}, {"time": 166081, "pitch": 44, "duration": 120, "velocity": 120}, {"time": 166321, "pitch": 44, "duration": 100, "velocity": 120}, {"time": 166561, "pitch": 44, "duration": 240, "velocity": 120}, {"time": 166561, "pitch": 51, "duration": 240, "velocity": 120}, {"time": 166561, "pitch": 56, "duration": 240, "velocity": 120}, {"time": 166801, "pitch": 44, "duration": 120, "velocity": 120}, {"time": 167041, "pitch": 42, "duration": 240, "velocity": 120}, {"time": 167041, "pitch": 49, "duration": 240, "velocity": 120}, {"time": 167041, "pitch": 54, "duration": 240, "velocity": 120}, {"time": 167281, "pitch": 42, "duration": 120, "velocity": 120}, {"time": 167521, "pitch": 42, "duration": 100, "velocity": 120}, {"time": 167761, "pitch": 42, "duration": 240, "velocity": 120}, {"time": 167761, "pitch": 49, "duration": 240, "velocity": 120}, {"time": 167761, "pitch": 54, "duration": 240, "velocity": 120}, {"time": 168001, "pitch": 42, "duration": 120, "velocity": 120}, {"time": 168241, "pitch": 42, "duration": 100, "velocity": 120}, {"time": 168481, "pitch": 42, "duration": 120, "velocity": 120}, {"time": 168721, "pitch": 42, "duration": 100, "velocity": 120}, {"time": 168961, "pitch": 42, "duration": 240, "velocity": 120}, {"time": 168961, "pitch": 49, "duration": 240, "velocity": 120}, {"time": 168961, "pitch": 54, "duration": 240, "velocity": 120}, {"time": 169201, "pitch": 42, "duration": 120, "velocity": 120}, {"time": 169441, "pitch": 42, "duration": 100, "velocity": 120}, {"time": 169681, "pitch": 42, "duration": 240, "velocity": 120}, {"time": 169681, "pitch": 49, "duration": 240, "velocity": 120}, {"time": 169681, "pitch": 54, "duration": 240, "velocity": 120}, {"time": 169921, "pitch": 42, "duration": 120, "velocity": 120}, {"time": 170161, "pitch": 42, "duration": 100, "velocity": 120}, {"time": 170401, "pitch": 42, "duration": 120, "velocity": 120}, {"time": 170641, "pitch": 42, "duration": 100, "velocity": 120}, {"time": 170881, "pitch": 47, "duration": 240, "velocity": 120}, {"time": 170881, "pitch": 54, "duration": 240, "velocity": 120}, {"time": 170881, "pitch": 59, "duration": 240, "velocity": 120}, {"time": 171121, "pitch": 47, "duration": 120, "velocity": 120}, {"time": 171361, "pitch": 47, "duration": 100, "velocity": 120}, {"time": 171601, "pitch": 47, "duration": 240, "velocity": 120}, {"time": 171601, "pitch": 54, "duration": 240, "velocity": 120}, {"time": 171601, "pitch": 59, "duration": 240, "velocity": 120}, {"time": 171841, "pitch": 47, "duration": 120, "velocity": 120}, {"time": 172081, "pitch": 47, "duration": 100, "velocity": 120}, {"time": 172321, "pitch": 47, "duration": 120, "velocity": 120}, {"time": 172561, "pitch": 47, "duration": 100, "velocity": 120}, {"time": 172801, "pitch": 47, "duration": 240, "velocity": 120}, {"time": 172801, "pitch": 54, "duration": 240, "velocity": 120}, {"time": 172801, "pitch": 59, "duration": 240, "velocity": 120}, {"time": 173041, "pitch": 47, "duration": 120, "velocity": 120}, {"time": 173281, "pitch": 47, "duration": 100, "velocity": 120}, {"time": 173521, "pitch": 47, "duration": 240, "velocity": 120}, {"time": 173521, "pitch": 55, "duration": 240, "velocity": 120}, {"time": 173521, "pitch": 59, "duration": 240, "velocity": 120}, {"time": 173761, "pitch": 47, "duration": 120, "velocity": 120}, {"time": 174001, "pitch": 47, "duration": 100, "velocity": 120}, {"time": 174241, "pitch": 47, "duration": 240, "velocity": 120}, {"time": 174241, "pitch": 55, "duration": 240, "velocity": 120}, {"time": 174241, "pitch": 59, "duration": 240, "velocity": 120}, {"time": 174481, "pitch": 47, "duration": 120, "velocity": 120}, {"time": 174721, "pitch": 45, "duration": 240, "velocity": 120}, {"time": 174721, "pitch": 52, "duration": 240, "velocity": 120}, {"time": 174721, "pitch": 57, "duration": 240, "velocity": 120}, {"time": 174961, "pitch": 45, "duration": 120, "velocity": 120}, {"time": 175201, "pitch": 45, "duration": 100, "velocity": 120}, {"time": 175441, "pitch": 45, "duration": 240, "velocity": 120}, {"time": 175441, "pitch": 52, "duration": 240, "velocity": 120}, {"time": 175441, "pitch": 57, "duration": 240, "velocity": 120}, {"time": 175681, "pitch": 45, "duration": 120, "velocity": 120}, {"time": 175921, "pitch": 45, "duration": 100, "velocity": 120}, {"time": 176161, "pitch": 45, "duration": 120, "velocity": 120}, {"time": 176401, "pitch": 45, "duration": 100, "velocity": 120}, {"time": 176641, "pitch": 45, "duration": 240, "velocity": 120}, {"time": 176641, "pitch": 52, "duration": 240, "velocity": 120}, {"time": 176641, "pitch": 57, "duration": 240, "velocity": 120}, {"time": 176881, "pitch": 45, "duration": 120, "velocity": 120}, {"time": 177121, "pitch": 45, "duration": 100, "velocity": 120}, {"time": 177361, "pitch": 45, "duration": 240, "velocity": 120}, {"time": 177361, "pitch": 52, "duration": 240, "velocity": 120}, {"time": 177361, "pitch": 57, "duration": 240, "velocity": 120}, {"time": 177601, "pitch": 45, "duration": 120, "velocity": 120}, {"time": 177841, "pitch": 45, "duration": 100, "velocity": 120}, {"time": 178081, "pitch": 45, "duration": 120, "velocity": 120}, {"time": 178321, "pitch": 45, "duration": 100, "velocity": 120}, {"time": 178561, "pitch": 40, "duration": 240, "velocity": 120}, {"time": 178561, "pitch": 47, "duration": 240, "velocity": 120}, {"time": 178561, "pitch": 52, "duration": 240, "velocity": 120}, {"time": 178801, "pitch": 40, "duration": 120, "velocity": 120}, {"time": 179041, "pitch": 40, "duration": 100, "velocity": 120}, {"time": 179281, "pitch": 40, "duration": 240, "velocity": 120}, {"time": 179281, "pitch": 47, "duration": 240, "velocity": 120}, {"time": 179281, "pitch": 52, "duration": 240, "velocity": 120}, {"time": 179521, "pitch": 40, "duration": 120, "velocity": 120}, {"time": 179761, "pitch": 40, "duration": 100, "velocity": 120}, {"time": 180001, "pitch": 40, "duration": 120, "velocity": 120}, {"time": 180241, "pitch": 40, "duration": 100, "velocity": 120}, {"time": 180481, "pitch": 40, "duration": 240, "velocity": 120}, {"time": 180481, "pitch": 47, "duration": 240, "velocity": 120}, {"time": 180481, "pitch": 52, "duration": 240, "velocity": 120}, {"time": 180721, "pitch": 40, "duration": 120, "velocity": 120}, {"time": 180961, "pitch": 40, "duration": 100, "velocity": 120}, {"time": 181201, "pitch": 40, "duration": 240, "velocity": 120}, {"time": 181201, "pitch": 47, "duration": 240, "velocity": 120}, {"time": 181201, "pitch": 52, "duration": 240, "velocity": 120}, {"time": 181441, "pitch": 40, "duration": 120, "velocity": 120}, {"time": 181681, "pitch": 40, "duration": 100, "velocity": 120}, {"time": 181921, "pitch": 44, "duration": 240, "velocity": 120}, {"time": 181921, "pitch": 51, "duration": 240, "velocity": 120}, {"time": 181921, "pitch": 56, "duration": 240, "velocity": 120}, {"time": 182161, "pitch": 40, "duration": 120, "velocity": 120}, {"time": 182401, "pitch": 45, "duration": 240, "velocity": 120}, {"time": 182401, "pitch": 52, "duration": 240, "velocity": 120}, {"time": 182401, "pitch": 57, "duration": 240, "velocity": 120}, {"time": 182641, "pitch": 45, "duration": 120, "velocity": 120}, {"time": 182881, "pitch": 45, "duration": 100, "velocity": 120}, {"time": 183121, "pitch": 45, "duration": 240, "velocity": 120}, {"time": 183121, "pitch": 52, "duration": 240, "velocity": 120}, {"time": 183121, "pitch": 57, "duration": 240, "velocity": 120}, {"time": 183361, "pitch": 45, "duration": 120, "velocity": 120}, {"time": 183601, "pitch": 45, "duration": 100, "velocity": 120}, {"time": 183841, "pitch": 45, "duration": 120, "velocity": 120}, {"time": 184081, "pitch": 45, "duration": 100, "velocity": 120}, {"time": 184321, "pitch": 45, "duration": 240, "velocity": 120}, {"time": 184321, "pitch": 52, "duration": 240, "velocity": 120}, {"time": 184321, "pitch": 57, "duration": 240, "velocity": 120}, {"time": 184561, "pitch": 45, "duration": 120, "velocity": 120}, {"time": 184801, "pitch": 45, "duration": 100, "velocity": 120}, {"time": 185041, "pitch": 45, "duration": 240, "velocity": 120}, {"time": 185041, "pitch": 52, "duration": 240, "velocity": 120}, {"time": 185041, "pitch": 57, "duration": 240, "velocity": 120}, {"time": 185281, "pitch": 45, "duration": 120, "velocity": 120}, {"time": 185521, "pitch": 45, "duration": 100, "velocity": 120}, {"time": 185761, "pitch": 45, "duration": 120, "velocity": 120}, {"time": 186001, "pitch": 45, "duration": 100, "velocity": 120}, {"time": 186241, "pitch": 40, "duration": 240, "velocity": 120}, {"time": 186241, "pitch": 47, "duration": 240, "velocity": 120}, {"time": 186241, "pitch": 52, "duration": 240, "velocity": 120}, {"time": 186481, "pitch": 40, "duration": 120, "velocity": 120}, {"time": 186721, "pitch": 40, "duration": 100, "velocity": 120}, {"time": 186961, "pitch": 40, "duration": 240, "velocity": 120}, {"time": 186961, "pitch": 47, "duration": 240, "velocity": 120}, {"time": 186961, "pitch": 52, "duration": 240, "velocity": 120}, {"time": 187201, "pitch": 40, "duration": 120, "velocity": 120}, {"time": 187441, "pitch": 40, "duration": 100, "velocity": 120}, {"time": 187681, "pitch": 40, "duration": 120, "velocity": 120}, {"time": 187921, "pitch": 40, "duration": 100, "velocity": 120}, {"time": 188161, "pitch": 40, "duration": 240, "velocity": 120}, {"time": 188161, "pitch": 47, "duration": 240, "velocity": 120}, {"time": 188161, "pitch": 52, "duration": 240, "velocity": 120}, {"time": 188401, "pitch": 40, "duration": 120, "velocity": 120}, {"time": 188641, "pitch": 40, "duration": 100, "velocity": 120}, {"time": 188881, "pitch": 40, "duration": 240, "velocity": 120}, {"time": 188881, "pitch": 47, "duration": 240, "velocity": 120}, {"time": 188881, "pitch": 52, "duration": 240, "velocity": 120}, {"time": 189121, "pitch": 40, "duration": 120, "velocity": 120}, {"time": 189361, "pitch": 40, "duration": 100, "velocity": 120}, {"time": 189601, "pitch": 44, "duration": 240, "velocity": 120}, {"time": 189601, "pitch": 51, "duration": 240, "velocity": 120}, {"time": 189601, "pitch": 56, "duration": 240, "velocity": 120}, {"time": 189841, "pitch": 40, "duration": 120, "velocity": 120}, {"time": 190081, "pitch": 45, "duration": 240, "velocity": 120}, {"time": 190081, "pitch": 52, "duration": 240, "velocity": 120}, {"time": 190081, "pitch": 57, "duration": 240, "velocity": 120}, {"time": 190321, "pitch": 45, "duration": 120, "velocity": 120}, {"time": 190561, "pitch": 45, "duration": 100, "velocity": 120}, {"time": 190801, "pitch": 45, "duration": 240, "velocity": 120}, {"time": 190801, "pitch": 52, "duration": 240, "velocity": 120}, {"time": 190801, "pitch": 57, "duration": 240, "velocity": 120}, {"time": 191041, "pitch": 45, "duration": 120, "velocity": 120}, {"time": 191281, "pitch": 45, "duration": 100, "velocity": 120}, {"time": 191521, "pitch": 45, "duration": 120, "velocity": 120}, {"time": 191761, "pitch": 45, "duration": 100, "velocity": 120}, {"time": 192001, "pitch": 45, "duration": 240, "velocity": 120}, {"time": 192001, "pitch": 52, "duration": 240, "velocity": 120}, {"time": 192001, "pitch": 57, "duration": 240, "velocity": 120}, {"time": 192241, "pitch": 45, "duration": 120, "velocity": 120}, {"time": 192481, "pitch": 45, "duration": 100, "velocity": 120}, {"time": 192721, "pitch": 45, "duration": 240, "velocity": 120}, {"time": 192721, "pitch": 52, "duration": 240, "velocity": 120}, {"time": 192721, "pitch": 57, "duration": 240, "velocity": 120}, {"time": 192961, "pitch": 45, "duration": 120, "velocity": 120}, {"time": 193201, "pitch": 45, "duration": 100, "velocity": 120}, {"time": 193441, "pitch": 45, "duration": 120, "velocity": 120}, {"time": 193681, "pitch": 45, "duration": 100, "velocity": 120}, {"time": 193921, "pitch": 44, "duration": 240, "velocity": 120}, {"time": 193921, "pitch": 51, "duration": 240, "velocity": 120}, {"time": 193921, "pitch": 56, "duration": 240, "velocity": 120}, {"time": 194161, "pitch": 44, "duration": 120, "velocity": 120}, {"time": 194401, "pitch": 44, "duration": 100, "velocity": 120}, {"time": 194641, "pitch": 44, "duration": 240, "velocity": 120}, {"time": 194641, "pitch": 51, "duration": 240, "velocity": 120}, {"time": 194641, "pitch": 56, "duration": 240, "velocity": 120}, {"time": 194881, "pitch": 44, "duration": 120, "velocity": 120}, {"time": 195121, "pitch": 44, "duration": 100, "velocity": 120}, {"time": 195361, "pitch": 44, "duration": 120, "velocity": 120}, {"time": 195601, "pitch": 44, "duration": 100, "velocity": 120}, {"time": 195841, "pitch": 44, "duration": 240, "velocity": 120}, {"time": 195841, "pitch": 51, "duration": 240, "velocity": 120}, {"time": 195841, "pitch": 56, "duration": 240, "velocity": 120}, {"time": 196081, "pitch": 44, "duration": 120, "velocity": 120}, {"time": 196321, "pitch": 44, "duration": 100, "velocity": 120}, {"time": 196561, "pitch": 44, "duration": 240, "velocity": 120}, {"time": 196561, "pitch": 51, "duration": 240, "velocity": 120}, {"time": 196561, "pitch": 56, "duration": 240, "velocity": 120}, {"time": 196801, "pitch": 44, "duration": 120, "velocity": 120}, {"time": 197041, "pitch": 44, "duration": 100, "velocity": 120}, {"time": 197281, "pitch": 44, "duration": 240, "velocity": 120}, {"time": 197281, "pitch": 51, "duration": 240, "velocity": 120}, {"time": 197281, "pitch": 56, "duration": 240, "velocity": 120}, {"time": 197521, "pitch": 44, "duration": 120, "velocity": 120}, {"time": 197761, "pitch": 42, "duration": 240, "velocity": 120}, {"time": 197761, "pitch": 49, "duration": 240, "velocity": 120}, {"time": 197761, "pitch": 54, "duration": 240, "velocity": 120}, {"time": 198001, "pitch": 42, "duration": 120, "velocity": 120}, {"time": 198241, "pitch": 42, "duration": 100, "velocity": 120}, {"time": 198481, "pitch": 42, "duration": 240, "velocity": 120}, {"time": 198481, "pitch": 49, "duration": 240, "velocity": 120}, {"time": 198481, "pitch": 54, "duration": 240, "velocity": 120}, {"time": 198721, "pitch": 42, "duration": 120, "velocity": 120}, {"time": 198961, "pitch": 42, "duration": 100, "velocity": 120}, {"time": 199201, "pitch": 42, "duration": 120, "velocity": 120}, {"time": 199441, "pitch": 42, "duration": 100, "velocity": 120}, {"time": 199681, "pitch": 42, "duration": 240, "velocity": 120}, {"time": 199681, "pitch": 49, "duration": 240, "velocity": 120}, {"time": 199681, "pitch": 54, "duration": 240, "velocity": 120}, {"time": 199921, "pitch": 42, "duration": 120, "velocity": 120}, {"time": 200161, "pitch": 42, "duration": 100, "velocity": 120}, {"time": 200401, "pitch": 42, "duration": 240, "velocity": 120}, {"time": 200401, "pitch": 49, "duration": 240, "velocity": 120}, {"time": 200401, "pitch": 54, "duration": 240, "velocity": 120}, {"time": 200641, "pitch": 42, "duration": 120, "velocity": 120}, {"time": 200881, "pitch": 42, "duration": 100, "velocity": 120}, {"time": 201121, "pitch": 42, "duration": 120, "velocity": 120}, {"time": 201361, "pitch": 42, "duration": 100, "velocity": 120}, {"time": 201601, "pitch": 47, "duration": 240, "velocity": 120}, {"time": 201601, "pitch": 54, "duration": 240, "velocity": 120}, {"time": 201601, "pitch": 59, "duration": 240, "velocity": 120}, {"time": 201841, "pitch": 47, "duration": 120, "velocity": 120}, {"time": 202081, "pitch": 47, "duration": 100, "velocity": 120}, {"time": 202321, "pitch": 47, "duration": 240, "velocity": 120}, {"time": 202321, "pitch": 54, "duration": 240, "velocity": 120}, {"time": 202321, "pitch": 59, "duration": 240, "velocity": 120}, {"time": 202561, "pitch": 47, "duration": 120, "velocity": 120}, {"time": 202801, "pitch": 47, "duration": 100, "velocity": 120}, {"time": 203041, "pitch": 47, "duration": 120, "velocity": 120}, {"time": 203281, "pitch": 47, "duration": 100, "velocity": 120}, {"time": 203521, "pitch": 47, "duration": 240, "velocity": 120}, {"time": 203521, "pitch": 54, "duration": 240, "velocity": 120}, {"time": 203521, "pitch": 59, "duration": 240, "velocity": 120}, {"time": 203761, "pitch": 47, "duration": 120, "velocity": 120}, {"time": 204001, "pitch": 47, "duration": 100, "velocity": 120}, {"time": 204241, "pitch": 47, "duration": 240, "velocity": 120}, {"time": 204241, "pitch": 55, "duration": 240, "velocity": 120}, {"time": 204241, "pitch": 59, "duration": 240, "velocity": 120}, {"time": 204481, "pitch": 47, "duration": 120, "velocity": 120}, {"time": 204721, "pitch": 47, "duration": 100, "velocity": 120}, {"time": 204961, "pitch": 47, "duration": 240, "velocity": 120}, {"time": 204961, "pitch": 55, "duration": 240, "velocity": 120}, {"time": 204961, "pitch": 59, "duration": 240, "velocity": 120}, {"time": 205201, "pitch": 47, "duration": 120, "velocity": 120}, {"time": 205441, "pitch": 52, "duration": 240, "velocity": 120}, {"time": 205441, "pitch": 59, "duration": 240, "velocity": 120}, {"time": 205441, "pitch": 64, "duration": 240, "velocity": 120}, {"time": 205681, "pitch": 52, "duration": 120, "velocity": 120}, {"time": 205921, "pitch": 52, "duration": 100, "velocity": 120}, {"time": 206161, "pitch": 52, "duration": 240, "velocity": 120}, {"time": 206161, "pitch": 59, "duration": 240, "velocity": 120}, {"time": 206161, "pitch": 64, "duration": 240, "velocity": 120}, {"time": 206401, "pitch": 52, "duration": 120, "velocity": 120}, {"time": 206641, "pitch": 52, "duration": 100, "velocity": 120}, {"time": 206881, "pitch": 52, "duration": 120, "velocity": 120}, {"time": 207121, "pitch": 52, "duration": 100, "velocity": 120}, {"time": 207361, "pitch": 59, "duration": 240, "velocity": 120}, {"time": 207361, "pitch": 66, "duration": 240, "velocity": 120}, {"time": 207361, "pitch": 71, "duration": 240, "velocity": 120}, {"time": 207601, "pitch": 59, "duration": 120, "velocity": 120}, {"time": 207841, "pitch": 59, "duration": 100, "velocity": 120}, {"time": 208081, "pitch": 59, "duration": 240, "velocity": 120}, {"time": 208081, "pitch": 66, "duration": 240, "velocity": 120}, {"time": 208081, "pitch": 71, "duration": 240, "velocity": 120}, {"time": 208321, "pitch": 59, "duration": 120, "velocity": 120}, {"time": 208561, "pitch": 59, "duration": 100, "velocity": 120}, {"time": 208801, "pitch": 59, "duration": 120, "velocity": 120}, {"time": 209041, "pitch": 59, "duration": 100, "velocity": 120}, {"time": 209281, "pitch": 57, "duration": 240, "velocity": 120}, {"time": 209281, "pitch": 64, "duration": 240, "velocity": 120}, {"time": 209281, "pitch": 69, "duration": 240, "velocity": 120}, {"time": 209521, "pitch": 57, "duration": 120, "velocity": 120}, {"time": 209761, "pitch": 57, "duration": 100, "velocity": 120}, {"time": 210001, "pitch": 57, "duration": 240, "velocity": 120}, {"time": 210001, "pitch": 64, "duration": 240, "velocity": 120}, {"time": 210001, "pitch": 69, "duration": 240, "velocity": 120}, {"time": 210241, "pitch": 57, "duration": 120, "velocity": 120}, {"time": 210481, "pitch": 57, "duration": 100, "velocity": 120}, {"time": 210721, "pitch": 57, "duration": 120, "velocity": 120}, {"time": 210961, "pitch": 57, "duration": 100, "velocity": 120}, {"time": 211201, "pitch": 59, "duration": 240, "velocity": 120}, {"time": 211201, "pitch": 66, "duration": 240, "velocity": 120}, {"time": 211201, "pitch": 71, "duration": 240, "velocity": 120}, {"time": 211441, "pitch": 59, "duration": 120, "velocity": 120}, {"time": 211681, "pitch": 59, "duration": 100, "velocity": 120}, {"time": 211921, "pitch": 59, "duration": 240, "velocity": 120}, {"time": 211921, "pitch": 66, "duration": 240, "velocity": 120}, {"time": 211921, "pitch": 71, "duration": 240, "velocity": 120}, {"time": 212161, "pitch": 59, "duration": 120, "velocity": 120}, {"time": 212401, "pitch": 59, "duration": 100, "velocity": 120}, {"time": 212641, "pitch": 59, "duration": 240, "velocity": 120}, {"time": 212641, "pitch": 66, "duration": 240, "velocity": 120}, {"time": 212641, "pitch": 71, "duration": 240, "velocity": 120}, {"time": 212881, "pitch": 59, "duration": 120, "velocity": 120}, {"time": 213121, "pitch": 52, "duration": 240, "velocity": 120}, {"time": 213121, "pitch": 59, "duration": 240, "velocity": 120}, {"time": 213121, "pitch": 64, "duration": 240, "velocity": 120}, {"time": 213361, "pitch": 52, "duration": 120, "velocity": 120}, {"time": 213601, "pitch": 52, "duration": 100, "velocity": 120}, {"time": 213841, "pitch": 52, "duration": 240, "velocity": 120}, {"time": 213841, "pitch": 59, "duration": 240, "velocity": 120}, {"time": 213841, "pitch": 64, "duration": 240, "velocity": 120}, {"time": 214081, "pitch": 52, "duration": 120, "velocity": 120}, {"time": 214321, "pitch": 52, "duration": 100, "velocity": 120}, {"time": 214561, "pitch": 52, "duration": 120, "velocity": 120}, {"time": 214801, "pitch": 52, "duration": 100, "velocity": 120}, {"time": 215041, "pitch": 59, "duration": 240, "velocity": 120}, {"time": 215041, "pitch": 66, "duration": 240, "velocity": 120}, {"time": 215041, "pitch": 71, "duration": 240, "velocity": 120}, {"time": 215281, "pitch": 59, "duration": 120, "velocity": 120}, {"time": 215521, "pitch": 59, "duration": 100, "velocity": 120}, {"time": 215761, "pitch": 59, "duration": 240, "velocity": 120}, {"time": 215761, "pitch": 66, "duration": 240, "velocity": 120}, {"time": 215761, "pitch": 71, "duration": 240, "velocity": 120}, {"time": 216001, "pitch": 59, "duration": 120, "velocity": 120}, {"time": 216241, "pitch": 59, "duration": 100, "velocity": 120}, {"time": 216481, "pitch": 59, "duration": 120, "velocity": 120}, {"time": 216721, "pitch": 59, "duration": 100, "velocity": 120}, {"time": 216961, "pitch": 57, "duration": 240, "velocity": 120}, {"time": 216961, "pitch": 64, "duration": 240, "velocity": 120}, {"time": 216961, "pitch": 69, "duration": 240, "velocity": 120}, {"time": 217201, "pitch": 57, "duration": 120, "velocity": 120}, {"time": 217441, "pitch": 57, "duration": 100, "velocity": 120}, {"time": 217681, "pitch": 57, "duration": 240, "velocity": 120}, {"time": 217681, "pitch": 64, "duration": 240, "velocity": 120}, {"time": 217681, "pitch": 69, "duration": 240, "velocity": 120}, {"time": 217921, "pitch": 57, "duration": 120, "velocity": 120}, {"time": 218161, "pitch": 57, "duration": 100, "velocity": 120}, {"time": 218401, "pitch": 57, "duration": 120, "velocity": 120}, {"time": 218641, "pitch": 57, "duration": 100, "velocity": 120}, {"time": 218881, "pitch": 59, "duration": 240, "velocity": 120}, {"time": 218881, "pitch": 66, "duration": 240, "velocity": 120}, {"time": 218881, "pitch": 71, "duration": 240, "velocity": 120}, {"time": 219121, "pitch": 59, "duration": 120, "velocity": 120}, {"time": 219361, "pitch": 59, "duration": 100, "velocity": 120}, {"time": 219601, "pitch": 59, "duration": 240, "velocity": 120}, {"time": 219601, "pitch": 66, "duration": 240, "velocity": 120}, {"time": 219601, "pitch": 71, "duration": 240, "velocity": 120}, {"time": 219841, "pitch": 59, "duration": 120, "velocity": 120}, {"time": 220081, "pitch": 59, "duration": 100, "velocity": 120}, {"time": 220321, "pitch": 59, "duration": 240, "velocity": 120}, {"time": 220321, "pitch": 66, "duration": 240, "velocity": 120}, {"time": 220321, "pitch": 71, "duration": 240, "velocity": 120}, {"time": 220561, "pitch": 59, "duration": 120, "velocity": 120}, {"time": 220801, "pitch": 52, "duration": 240, "velocity": 120}, {"time": 220801, "pitch": 59, "duration": 240, "velocity": 120}, {"time": 220801, "pitch": 64, "duration": 240, "velocity": 120}, {"time": 221041, "pitch": 52, "duration": 120, "velocity": 120}, {"time": 221281, "pitch": 52, "duration": 100, "velocity": 120}, {"time": 221521, "pitch": 52, "duration": 240, "velocity": 120}, {"time": 221521, "pitch": 59, "duration": 240, "velocity": 120}, {"time": 221521, "pitch": 64, "duration": 240, "velocity": 120}, {"time": 221761, "pitch": 52, "duration": 120, "velocity": 120}, {"time": 222001, "pitch": 52, "duration": 100, "velocity": 120}, {"time": 222241, "pitch": 52, "duration": 120, "velocity": 120}, {"time": 222481, "pitch": 52, "duration": 100, "velocity": 120}, {"time": 222721, "pitch": 59, "duration": 240, "velocity": 120}, {"time": 222721, "pitch": 66, "duration": 240, "velocity": 120}, {"time": 222721, "pitch": 71, "duration": 240, "velocity": 120}, {"time": 222961, "pitch": 59, "duration": 120, "velocity": 120}, {"time": 223201, "pitch": 59, "duration": 100, "velocity": 120}, {"time": 223441, "pitch": 59, "duration": 240, "velocity": 120}, {"time": 223441, "pitch": 66, "duration": 240, "velocity": 120}, {"time": 223441, "pitch": 71, "duration": 240, "velocity": 120}, {"time": 223681, "pitch": 59, "duration": 120, "velocity": 120}, {"time": 223921, "pitch": 59, "duration": 100, "velocity": 120}, {"time": 224161, "pitch": 59, "duration": 120, "velocity": 120}, {"time": 224401, "pitch": 59, "duration": 100, "velocity": 120}, {"time": 224641, "pitch": 57, "duration": 240, "velocity": 120}, {"time": 224641, "pitch": 64, "duration": 240, "velocity": 120}, {"time": 224641, "pitch": 69, "duration": 240, "velocity": 120}, {"time": 224881, "pitch": 57, "duration": 120, "velocity": 120}, {"time": 225121, "pitch": 57, "duration": 100, "velocity": 120}, {"time": 225361, "pitch": 57, "duration": 240, "velocity": 120}, {"time": 225361, "pitch": 64, "duration": 240, "velocity": 120}, {"time": 225361, "pitch": 69, "duration": 240, "velocity": 120}, {"time": 225601, "pitch": 57, "duration": 120, "velocity": 120}, {"time": 225841, "pitch": 57, "duration": 100, "velocity": 120}, {"time": 226081, "pitch": 57, "duration": 120, "velocity": 120}, {"time": 226321, "pitch": 57, "duration": 100, "velocity": 120}, {"time": 226561, "pitch": 59, "duration": 240, "velocity": 120}, {"time": 226561, "pitch": 66, "duration": 240, "velocity": 120}, {"time": 226561, "pitch": 71, "duration": 240, "velocity": 120}, {"time": 226801, "pitch": 59, "duration": 120, "velocity": 120}, {"time": 227041, "pitch": 59, "duration": 100, "velocity": 120}, {"time": 227281, "pitch": 59, "duration": 240, "velocity": 120}, {"time": 227281, "pitch": 66, "duration": 240, "velocity": 120}, {"time": 227281, "pitch": 71, "duration": 240, "velocity": 120}, {"time": 227521, "pitch": 59, "duration": 120, "velocity": 120}, {"time": 227761, "pitch": 59, "duration": 100, "velocity": 120}, {"time": 228001, "pitch": 59, "duration": 240, "velocity": 120}, {"time": 228001, "pitch": 66, "duration": 240, "velocity": 120}, {"time": 228001, "pitch": 71, "duration": 240, "velocity": 120}, {"time": 228241, "pitch": 59, "duration": 120, "velocity": 120}, {"time": 228481, "pitch": 57, "duration": 240, "velocity": 120}, {"time": 228481, "pitch": 64, "duration": 240, "velocity": 120}, {"time": 228481, "pitch": 69, "duration": 240, "velocity": 120}, {"time": 228721, "pitch": 57, "duration": 120, "velocity": 120}, {"time": 228961, "pitch": 57, "duration": 100, "velocity": 120}, {"time": 229201, "pitch": 57, "duration": 240, "velocity": 120}, {"time": 229201, "pitch": 64, "duration": 240, "velocity": 120}, {"time": 229201, "pitch": 69, "duration": 240, "velocity": 120}, {"time": 229441, "pitch": 57, "duration": 120, "velocity": 120}, {"time": 229681, "pitch": 57, "duration": 100, "velocity": 120}, {"time": 229921, "pitch": 57, "duration": 120, "velocity": 120}, {"time": 230161, "pitch": 57, "duration": 100, "velocity": 120}, {"time": 230401, "pitch": 59, "duration": 240, "velocity": 120}, {"time": 230401, "pitch": 66, "duration": 240, "velocity": 120}, {"time": 230401, "pitch": 71, "duration": 240, "velocity": 120}, {"time": 230641, "pitch": 59, "duration": 120, "velocity": 120}, {"time": 230881, "pitch": 59, "duration": 100, "velocity": 120}, {"time": 231121, "pitch": 59, "duration": 240, "velocity": 120}, {"time": 231121, "pitch": 66, "duration": 240, "velocity": 120}, {"time": 231121, "pitch": 71, "duration": 240, "velocity": 120}, {"time": 231361, "pitch": 59, "duration": 120, "velocity": 120}, {"time": 231601, "pitch": 59, "duration": 100, "velocity": 120}, {"time": 231841, "pitch": 59, "duration": 240, "velocity": 120}, {"time": 231841, "pitch": 66, "duration": 240, "velocity": 120}, {"time": 231841, "pitch": 71, "duration": 240, "velocity": 120}, {"time": 232081, "pitch": 59, "duration": 120, "velocity": 120}, {"time": 232321, "pitch": 57, "duration": 240, "velocity": 120}, {"time": 232321, "pitch": 64, "duration": 240, "velocity": 120}, {"time": 232321, "pitch": 69, "duration": 240, "velocity": 120}, {"time": 232561, "pitch": 57, "duration": 120, "velocity": 120}, {"time": 232801, "pitch": 57, "duration": 100, "velocity": 120}, {"time": 233041, "pitch": 57, "duration": 240, "velocity": 120}, {"time": 233041, "pitch": 64, "duration": 240, "velocity": 120}, {"time": 233041, "pitch": 69, "duration": 240, "velocity": 120}, {"time": 233281, "pitch": 57, "duration": 120, "velocity": 120}, {"time": 233521, "pitch": 57, "duration": 100, "velocity": 120}, {"time": 233761, "pitch": 57, "duration": 120, "velocity": 120}, {"time": 234001, "pitch": 57, "duration": 100, "velocity": 120}, {"time": 234241, "pitch": 59, "duration": 240, "velocity": 120}, {"time": 234241, "pitch": 66, "duration": 240, "velocity": 120}, {"time": 234241, "pitch": 71, "duration": 240, "velocity": 120}, {"time": 234481, "pitch": 59, "duration": 120, "velocity": 120}, {"time": 234721, "pitch": 59, "duration": 100, "velocity": 120}, {"time": 234961, "pitch": 59, "duration": 240, "velocity": 120}, {"time": 234961, "pitch": 66, "duration": 240, "velocity": 120}, {"time": 234961, "pitch": 71, "duration": 240, "velocity": 120}, {"time": 235201, "pitch": 59, "duration": 120, "velocity": 120}, {"time": 235441, "pitch": 59, "duration": 100, "velocity": 120}, {"time": 235681, "pitch": 59, "duration": 240, "velocity": 120}, {"time": 235681, "pitch": 66, "duration": 240, "velocity": 120}, {"time": 235681, "pitch": 71, "duration": 240, "velocity": 120}, {"time": 235921, "pitch": 59, "duration": 120, "velocity": 120}, {"time": 236161, "pitch": 57, "duration": 240, "velocity": 120}, {"time": 236161, "pitch": 64, "duration": 240, "velocity": 120}, {"time": 236161, "pitch": 69, "duration": 240, "velocity": 120}, {"time": 236401, "pitch": 57, "duration": 120, "velocity": 120}, {"time": 236641, "pitch": 57, "duration": 100, "velocity": 120}, {"time": 236881, "pitch": 57, "duration": 240, "velocity": 120}, {"time": 236881, "pitch": 64, "duration": 240, "velocity": 120}, {"time": 236881, "pitch": 69, "duration": 240, "velocity": 120}, {"time": 237121, "pitch": 57, "duration": 120, "velocity": 120}, {"time": 237361, "pitch": 57, "duration": 100, "velocity": 120}, {"time": 237601, "pitch": 57, "duration": 120, "velocity": 120}, {"time": 237841, "pitch": 57, "duration": 100, "velocity": 120}, {"time": 238081, "pitch": 59, "duration": 240, "velocity": 120}, {"time": 238081, "pitch": 66, "duration": 240, "velocity": 120}, {"time": 238081, "pitch": 71, "duration": 240, "velocity": 120}, {"time": 238321, "pitch": 59, "duration": 120, "velocity": 120}, {"time": 238561, "pitch": 59, "duration": 100, "velocity": 120}, {"time": 238801, "pitch": 59, "duration": 240, "velocity": 120}, {"time": 238801, "pitch": 66, "duration": 240, "velocity": 120}, {"time": 238801, "pitch": 71, "duration": 240, "velocity": 120}, {"time": 239041, "pitch": 59, "duration": 120, "velocity": 120}, {"time": 239281, "pitch": 59, "duration": 100, "velocity": 120}, {"time": 239521, "pitch": 59, "duration": 240, "velocity": 120}, {"time": 239521, "pitch": 66, "duration": 240, "velocity": 120}, {"time": 239521, "pitch": 71, "duration": 240, "velocity": 120}, {"time": 239761, "pitch": 59, "duration": 120, "velocity": 120}, {"time": 240001, "pitch": 52, "duration": 240, "velocity": 120}, {"time": 240001, "pitch": 59, "duration": 240, "velocity": 120}, {"time": 240001, "pitch": 64, "duration": 240, "velocity": 120}, {"time": 240241, "pitch": 52, "duration": 120, "velocity": 120}, {"time": 240481, "pitch": 52, "duration": 100, "velocity": 120}, {"time": 240721, "pitch": 52, "duration": 240, "velocity": 120}, {"time": 240721, "pitch": 59, "duration": 240, "velocity": 120}, {"time": 240721, "pitch": 64, "duration": 240, "velocity": 120}, {"time": 240961, "pitch": 52, "duration": 120, "velocity": 120}, {"time": 241201, "pitch": 52, "duration": 100, "velocity": 120}, {"time": 241441, "pitch": 52, "duration": 120, "velocity": 120}, {"time": 241681, "pitch": 52, "duration": 100, "velocity": 120}, {"time": 241921, "pitch": 52, "duration": 240, "velocity": 120}, {"time": 241921, "pitch": 59, "duration": 240, "velocity": 120}, {"time": 241921, "pitch": 64, "duration": 240, "velocity": 120}, {"time": 242161, "pitch": 52, "duration": 120, "velocity": 120}, {"time": 242401, "pitch": 52, "duration": 100, "velocity": 120}, {"time": 242641, "pitch": 52, "duration": 240, "velocity": 120}, {"time": 242641, "pitch": 59, "duration": 240, "velocity": 120}, {"time": 242641, "pitch": 64, "duration": 240, "velocity": 120}, {"time": 242881, "pitch": 52, "duration": 120, "velocity": 120}, {"time": 243121, "pitch": 52, "duration": 100, "velocity": 120}, {"time": 243361, "pitch": 52, "duration": 120, "velocity": 120}, {"time": 243601, "pitch": 52, "duration": 100, "velocity": 120}, {"time": 243841, "pitch": 52, "duration": 240, "velocity": 120}, {"time": 243841, "pitch": 59, "duration": 240, "velocity": 120}, {"time": 243841, "pitch": 64, "duration": 240, "velocity": 120}, {"time": 244081, "pitch": 52, "duration": 120, "velocity": 120}, {"time": 244321, "pitch": 52, "duration": 100, "velocity": 120}, {"time": 244561, "pitch": 52, "duration": 240, "velocity": 120}, {"time": 244561, "pitch": 59, "duration": 240, "velocity": 120}, {"time": 244561, "pitch": 64, "duration": 240, "velocity": 120}, {"time": 244801, "pitch": 52, "duration": 120, "velocity": 120}, {"time": 245041, "pitch": 52, "duration": 100, "velocity": 120}, {"time": 245281, "pitch": 52, "duration": 120, "velocity": 120}, {"time": 245521, "pitch": 52, "duration": 100, "velocity": 120}, {"time": 245761, "pitch": 52, "duration": 240, "velocity": 120}, {"time": 245761, "pitch": 59, "duration": 240, "velocity": 120}, {"time": 245761, "pitch": 64, "duration": 240, "velocity": 120}, {"time": 246001, "pitch": 52, "duration": 120, "velocity": 120}, {"time": 246241, "pitch": 52, "duration": 100, "velocity": 120}, {"time": 246481, "pitch": 52, "duration": 240, "velocity": 120}, {"time": 246481, "pitch": 59, "duration": 240, "velocity": 120}, {"time": 246481, "pitch": 64, "duration": 240, "velocity": 120}, {"time": 246721, "pitch": 52, "duration": 120, "velocity": 120}, {"time": 246961, "pitch": 52, "duration": 100, "velocity": 120}, {"time": 247201, "pitch": 52, "duration": 120, "velocity": 120}, {"time": 247441, "pitch": 52, "duration": 100, "velocity": 120}, {"time": 247680, "pitch": 40, "duration": 7680, "velocity": 120}, {"time": 247680, "pitch": 47, "duration": 7680, "velocity": 120}, {"time": 247680, "pitch": 52, "duration": 7680, "velocity": 120}, {"time": 33120, "pitch": 69, "duration": 311, "velocity": 127}, {"time": 33600, "pitch": 69, "duration": 315, "velocity": 127}, {"time": 34080, "pitch": 69, "duration": 303, "velocity": 127}, {"time": 34560, "pitch": 69, "duration": 307, "velocity": 127}, {"time": 35040, "pitch": 69, "duration": 280, "velocity": 127}, {"time": 35520, "pitch": 69, "duration": 341, "velocity": 127}, {"time": 36000, "pitch": 71, "duration": 356, "velocity": 127}, {"time": 36480, "pitch": 68, "duration": 375, "velocity": 127}, {"time": 36960, "pitch": 66, "duration": 222, "velocity": 127}, {"time": 37200, "pitch": 64, "duration": 611, "velocity": 127}, {"time": 40800, "pitch": 69, "duration": 342, "velocity": 127}, {"time": 41280, "pitch": 69, "duration": 316, "velocity": 127}, {"time": 41760, "pitch": 69, "duration": 337, "velocity": 127}, {"time": 42240, "pitch": 69, "duration": 347, "velocity": 127}, {"time": 42720, "pitch": 69, "duration": 328, "velocity": 127}, {"time": 43200, "pitch": 69, "duration": 343, "velocity": 127}, {"time": 43680, "pitch": 71, "duration": 328, "velocity": 127}, {"time": 44160, "pitch": 68, "duration": 344, "velocity": 127}, {"time": 44640, "pitch": 66, "duration": 238, "velocity": 127}, {"time": 44880, "pitch": 64, "duration": 563, "velocity": 127}, {"time": 48480, "pitch": 69, "duration": 330, "velocity": 127}, {"time": 48960, "pitch": 69, "duration": 316, "velocity": 127}, {"time": 49440, "pitch": 69, "duration": 302, "velocity": 127}, {"time": 49920, "pitch": 69, "duration": 294, "velocity": 127}, {"time": 50400, "pitch": 69, "duration": 292, "velocity": 127}, {"time": 50880, "pitch": 69, "duration": 325, "velocity": 127}, {"time": 51360, "pitch": 71, "duration": 335, "velocity": 127}, {"time": 51840, "pitch": 69, "duration": 341, "velocity": 127}, {"time": 52320, "pitch": 68, "duration": 1397, "velocity": 127}, {"time": 55200, "pitch": 66, "duration": 240, "velocity": 127}, {"time": 55440, "pitch": 68, "duration": 240, "velocity": 127}, {"time": 55680, "pitch": 69, "duration": 3161, "velocity": 127}, {"time": 59040, "pitch": 69, "duration": 405, "velocity": 127}, {"time": 59520, "pitch": 71, "duration": 3874, "velocity": 127}, {"time": 63840, "pitch": 69, "duration": 311, "velocity": 127}, {"time": 64320, "pitch": 69, "duration": 315, "velocity": 127}, {"time": 64800, "pitch": 69, "duration": 303, "velocity": 127}, {"time": 65280, "pitch": 69, "duration": 307, "velocity": 127}, {"time": 65760, "pitch": 69, "duration": 280, "velocity": 127}, {"time": 66240, "pitch": 69, "duration": 341, "velocity": 127}, {"time": 66720, "pitch": 71, "duration": 356, "velocity": 127}, {"time": 67200, "pitch": 68, "duration": 375, "velocity": 127}, {"time": 67680, "pitch": 66, "duration": 222, "velocity": 127}, {"time": 67920, "pitch": 64, "duration": 611, "velocity": 127}, {"time": 71520, "pitch": 69, "duration": 342, "velocity": 127}, {"time": 72000, "pitch": 69, "duration": 316, "velocity": 127}, {"time": 72480, "pitch": 69, "duration": 337, "velocity": 127}, {"time": 72960, "pitch": 69, "duration": 347, "velocity": 127}, {"time": 73440, "pitch": 69, "duration": 328, "velocity": 127}, {"time": 73920, "pitch": 69, "duration": 343, "velocity": 127}, {"time": 74400, "pitch": 71, "duration": 328, "velocity": 127}, {"time": 74880, "pitch": 68, "duration": 344, "velocity": 127}, {"time": 75360, "pitch": 66, "duration": 238, "velocity": 127}, {"time": 75600, "pitch": 64, "duration": 563, "velocity": 127}, {"time": 79200, "pitch": 69, "duration": 330, "velocity": 127}, {"time": 79680, "pitch": 69, "duration": 316, "velocity": 127}, {"time": 80160, "pitch": 69, "duration": 302, "velocity": 127}, {"time": 80640, "pitch": 69, "duration": 294, "velocity": 127}, {"time": 81120, "pitch": 69, "duration": 292, "velocity": 127}, {"time": 81600, "pitch": 69, "duration": 325, "velocity": 127}, {"time": 82080, "pitch": 71, "duration": 335, "velocity": 127}, {"time": 82560, "pitch": 69, "duration": 341, "velocity": 127}, {"time": 83040, "pitch": 68, "duration": 1680, "velocity": 127}, {"time": 85920, "pitch": 66, "duration": 240, "velocity": 127}, {"time": 86160, "pitch": 68, "duration": 240, "velocity": 127}, {"time": 86400, "pitch": 69, "duration": 3161, "velocity": 127}, {"time": 89760, "pitch": 69, "duration": 405, "velocity": 127}, {"time": 90240, "pitch": 71, "duration": 3874, "velocity": 127}, {"time": 94560, "pitch": 76, "duration": 295, "velocity": 127}, {"time": 95040, "pitch": 76, "duration": 384, "velocity": 127}, {"time": 95520, "pitch": 71, "duration": 298, "velocity": 127}, {"time": 96000, "pitch": 75, "duration": 361, "velocity": 127}, {"time": 96480, "pitch": 75, "duration": 293, "velocity": 127}, {"time": 96960, "pitch": 75, "duration": 375, "velocity": 127}, {"time": 97440, "pitch": 76, "duration": 346, "velocity": 127}, {"time": 97920, "pitch": 75, "duration": 385, "velocity": 127}, {"time": 98400, "pitch": 73, "duration": 151, "velocity": 127}, {"time": 98640, "pitch": 73, "duration": 985, "velocity": 127}, {"time": 102240, "pitch": 76, "duration": 295, "velocity": 127}, {"time": 102720, "pitch": 76, "duration": 384, "velocity": 127}, {"time": 103200, "pitch": 71, "duration": 298, "velocity": 127}, {"time": 103680, "pitch": 75, "duration": 361, "velocity": 127}, {"time": 104160, "pitch": 75, "duration": 293, "velocity": 127}, {"time": 104640, "pitch": 75, "duration": 375, "velocity": 127}, {"time": 105120, "pitch": 76, "duration": 346, "velocity": 127}, {"time": 105600, "pitch": 75, "duration": 385, "velocity": 127}, {"time": 106080, "pitch": 73, "duration": 151, "velocity": 127}, {"time": 106320, "pitch": 73, "duration": 985, "velocity": 127}, {"time": 109920, "pitch": 76, "duration": 295, "velocity": 127}, {"time": 110400, "pitch": 76, "duration": 384, "velocity": 127}, {"time": 110880, "pitch": 71, "duration": 298, "velocity": 127}, {"time": 111360, "pitch": 75, "duration": 361, "velocity": 127}, {"time": 111840, "pitch": 75, "duration": 293, "velocity": 127}, {"time": 112320, "pitch": 75, "duration": 375, "velocity": 127}, {"time": 112800, "pitch": 76, "duration": 346, "velocity": 127}, {"time": 113280, "pitch": 75, "duration": 385, "velocity": 127}, {"time": 113760, "pitch": 73, "duration": 151, "velocity": 127}, {"time": 114000, "pitch": 73, "duration": 985, "velocity": 127}, {"time": 117600, "pitch": 69, "duration": 343, "velocity": 127}, {"time": 118080, "pitch": 69, "duration": 240, "velocity": 127}, {"time": 118560, "pitch": 69, "duration": 328, "velocity": 127}, {"time": 119040, "pitch": 71, "duration": 577, "velocity": 127}, {"time": 119760, "pitch": 71, "duration": 557, "velocity": 127}, {"time": 120480, "pitch": 71, "duration": 587, "velocity": 127}, {"time": 121440, "pitch": 69, "duration": 264, "velocity": 127}, {"time": 121920, "pitch": 69, "duration": 240, "velocity": 127}, {"time": 122400, "pitch": 69, "duration": 244, "velocity": 127}, {"time": 122880, "pitch": 71, "duration": 638, "velocity": 127}, {"time": 123600, "pitch": 71, "duration": 560, "velocity": 127}, {"time": 124320, "pitch": 71, "duration": 570, "velocity": 127}, {"time": 125280, "pitch": 69, "duration": 215, "velocity": 127}, {"time": 125760, "pitch": 69, "duration": 204, "velocity": 127}, {"time": 126240, "pitch": 69, "duration": 199, "velocity": 127}, {"time": 126720, "pitch": 71, "duration": 979, "velocity": 127}, {"time": 127680, "pitch": 75, "duration": 262, "velocity": 127}, {"time": 127920, "pitch": 73, "duration": 275, "velocity": 127}, {"time": 128160, "pitch": 75, "duration": 229, "velocity": 127}, {"time": 128400, "pitch": 76, "duration": 4008, "velocity": 127}, {"time": 144480, "pitch": 69, "duration": 311, "velocity": 127}, {"time": 144960, "pitch": 69, "duration": 315, "velocity": 127}, {"time": 145440, "pitch": 69, "duration": 303, "velocity": 127}, {"time": 145920, "pitch": 69, "duration": 307, "velocity": 127}, {"time": 146400, "pitch": 69, "duration": 280, "velocity": 127}, {"time": 146880, "pitch": 69, "duration": 341, "velocity": 127}, {"time": 147360, "pitch": 71, "duration": 356, "velocity": 127}, {"time": 147840, "pitch": 68, "duration": 375, "velocity": 127}, {"time": 148320, "pitch": 66, "duration": 222, "velocity": 127}, {"time": 148560, "pitch": 64, "duration": 611, "velocity": 127}, {"time": 152160, "pitch": 69, "duration": 342, "velocity": 127}, {"time": 152640, "pitch": 69, "duration": 316, "velocity": 127}, {"time": 153120, "pitch": 69, "duration": 337, "velocity": 127}, {"time": 153600, "pitch": 69, "duration": 347, "velocity": 127}, {"time": 154080, "pitch": 69, "duration": 328, "velocity": 127}, {"time": 154560, "pitch": 69, "duration": 343, "velocity": 127}, {"time": 155040, "pitch": 71, "duration": 328, "velocity": 127}, {"time": 155520, "pitch": 68, "duration": 344, "velocity": 127}, {"time": 156000, "pitch": 66, "duration": 238, "velocity": 127}, {"time": 156240, "pitch": 64, "duration": 563, "velocity": 127}, {"time": 159840, "pitch": 69, "duration": 330, "velocity": 127}, {"time": 160320, "pitch": 69, "duration": 316, "velocity": 127}, {"time": 160800, "pitch": 69, "duration": 302, "velocity": 127}, {"time": 161280, "pitch": 69, "duration": 294, "velocity": 127}, {"time": 161760, "pitch": 69, "duration": 292, "velocity": 127}, {"time": 162240, "pitch": 69, "duration": 325, "velocity": 127}, {"time": 162720, "pitch": 71, "duration": 335, "velocity": 127}, {"time": 163200, "pitch": 69, "duration": 341, "velocity": 127}, {"time": 163680, "pitch": 68, "duration": 1397, "velocity": 127}, {"time": 166560, "pitch": 66, "duration": 240, "velocity": 127}, {"time": 166800, "pitch": 68, "duration": 240, "velocity": 127}, {"time": 167040, "pitch": 69, "duration": 3161, "velocity": 127}, {"time": 170400, "pitch": 69, "duration": 405, "velocity": 127}, {"time": 170880, "pitch": 71, "duration": 3874, "velocity": 127}, {"time": 175200, "pitch": 69, "duration": 311, "velocity": 127}, {"time": 175680, "pitch": 69, "duration": 315, "velocity": 127}, {"time": 176160, "pitch": 69, "duration": 303, "velocity": 127}, {"time": 176640, "pitch": 69, "duration": 307, "velocity": 127}, {"time": 177120, "pitch": 69, "duration": 280, "velocity": 127}, {"time": 177600, "pitch": 69, "duration": 341, "velocity": 127}, {"time": 178080, "pitch": 71, "duration": 356, "velocity": 127}, {"time": 178560, "pitch": 68, "duration": 375, "velocity": 127}, {"time": 179040, "pitch": 66, "duration": 222, "velocity": 127}, {"time": 179280, "pitch": 64, "duration": 611, "velocity": 127}, {"time": 182880, "pitch": 69, "duration": 342, "velocity": 127}, {"time": 183360, "pitch": 69, "duration": 316, "velocity": 127}, {"time": 183840, "pitch": 69, "duration": 337, "velocity": 127}, {"time": 184320, "pitch": 69, "duration": 347, "velocity": 127}, {"time": 184800, "pitch": 69, "duration": 328, "velocity": 127}, {"time": 185280, "pitch": 69, "duration": 343, "velocity": 127}, {"time": 185760, "pitch": 71, "duration": 328, "velocity": 127}, {"time": 186240, "pitch": 68, "duration": 344, "velocity": 127}, {"time": 186720, "pitch": 66, "duration": 238, "velocity": 127}, {"time": 186960, "pitch": 64, "duration": 563, "velocity": 127}, {"time": 190560, "pitch": 69, "duration": 330, "velocity": 127}, {"time": 191040, "pitch": 69, "duration": 316, "velocity": 127}, {"time": 191520, "pitch": 69, "duration": 302, "velocity": 127}, {"time": 192000, "pitch": 69, "duration": 294, "velocity": 127}, {"time": 192480, "pitch": 69, "duration": 292, "velocity": 127}, {"time": 192960, "pitch": 69, "duration": 325, "velocity": 127}, {"time": 193440, "pitch": 71, "duration": 335, "velocity": 127}, {"time": 193920, "pitch": 69, "duration": 341, "velocity": 127}, {"time": 194400, "pitch": 68, "duration": 1680, "velocity": 127}, {"time": 197280, "pitch": 66, "duration": 240, "velocity": 127}, {"time": 197520, "pitch": 68, "duration": 240, "velocity": 127}, {"time": 197760, "pitch": 69, "duration": 3161, "velocity": 127}, {"time": 201120, "pitch": 69, "duration": 405, "velocity": 127}, {"time": 201600, "pitch": 71, "duration": 3874, "velocity": 127}, {"time": 205920, "pitch": 76, "duration": 295, "velocity": 127}, {"time": 206400, "pitch": 76, "duration": 384, "velocity": 127}, {"time": 206880, "pitch": 71, "duration": 298, "velocity": 127}, {"time": 207360, "pitch": 75, "duration": 361, "velocity": 127}, {"time": 207840, "pitch": 75, "duration": 293, "velocity": 127}, {"time": 208320, "pitch": 75, "duration": 375, "velocity": 127}, {"time": 208800, "pitch": 76, "duration": 346, "velocity": 127}, {"time": 209280, "pitch": 75, "duration": 385, "velocity": 127}, {"time": 209760, "pitch": 73, "duration": 151, "velocity": 127}, {"time": 210000, "pitch": 73, "duration": 985, "velocity": 127}, {"time": 213600, "pitch": 76, "duration": 295, "velocity": 127}, {"time": 214080, "pitch": 76, "duration": 384, "velocity": 127}, {"time": 214560, "pitch": 71, "duration": 298, "velocity": 127}, {"time": 215040, "pitch": 75, "duration": 361, "velocity": 127}, {"time": 215520, "pitch": 75, "duration": 293, "velocity": 127}, {"time": 216000, "pitch": 75, "duration": 375, "velocity": 127}, {"time": 216480, "pitch": 76, "duration": 346, "velocity": 127}, {"time": 216960, "pitch": 75, "duration": 385, "velocity": 127}, {"time": 217440, "pitch": 73, "duration": 151, "velocity": 127}, {"time": 217680, "pitch": 73, "duration": 985, "velocity": 127}, {"time": 221280, "pitch": 76, "duration": 295, "velocity": 127}, {"time": 221760, "pitch": 76, "duration": 384, "velocity": 127}, {"time": 222240, "pitch": 71, "duration": 298, "velocity": 127}, {"time": 222720, "pitch": 75, "duration": 361, "velocity": 127}, {"time": 223200, "pitch": 75, "duration": 293, "velocity": 127}, {"time": 223680, "pitch": 75, "duration": 375, "velocity": 127}, {"time": 224160, "pitch": 76, "duration": 346, "velocity": 127}, {"time": 224640, "pitch": 75, "duration": 385, "velocity": 127}, {"time": 225120, "pitch": 73, "duration": 151, "velocity": 127}, {"time": 225360, "pitch": 73, "duration": 985, "velocity": 127}, {"time": 228960, "pitch": 69, "duration": 343, "velocity": 127}, {"time": 229440, "pitch": 69, "duration": 240, "velocity": 127}, {"time": 229920, "pitch": 69, "duration": 328, "velocity": 127}, {"time": 230400, "pitch": 71, "duration": 577, "velocity": 127}, {"time": 231120, "pitch": 71, "duration": 557, "velocity": 127}, {"time": 231840, "pitch": 71, "duration": 587, "velocity": 127}, {"time": 232800, "pitch": 69, "duration": 264, "velocity": 127}, {"time": 233280, "pitch": 69, "duration": 240, "velocity": 127}, {"time": 233760, "pitch": 69, "duration": 244, "velocity": 127}, {"time": 234240, "pitch": 71, "duration": 638, "velocity": 127}, {"time": 234960, "pitch": 71, "duration": 560, "velocity": 127}, {"time": 235680, "pitch": 71, "duration": 570, "velocity": 127}, {"time": 236640, "pitch": 69, "duration": 215, "velocity": 127}, {"time": 237120, "pitch": 69, "duration": 204, "velocity": 127}, {"time": 237600, "pitch": 69, "duration": 199, "velocity": 127}, {"time": 238080, "pitch": 71, "duration": 979, "velocity": 127}, {"time": 239040, "pitch": 75, "duration": 262, "velocity": 127}, {"time": 239280, "pitch": 73, "duration": 275, "velocity": 127}, {"time": 239520, "pitch": 75, "duration": 229, "velocity": 127}, {"time": 239760, "pitch": 76, "duration": 4008, "velocity": 127}, {"time": 5760, "pitch": 64, "duration": 562, "velocity": 120}, {"time": 5760, "pitch": 76, "duration": 549, "velocity": 120}, {"time": 6480, "pitch": 52, "duration": 972, "velocity": 120}, {"time": 6480, "pitch": 64, "duration": 1026, "velocity": 120}, {"time": 7680, "pitch": 64, "duration": 614, "velocity": 120}, {"time": 7680, "pitch": 76, "duration": 592, "velocity": 120}, {"time": 8400, "pitch": 52, "duration": 1031, "velocity": 120}, {"time": 8400, "pitch": 64, "duration": 1046, "velocity": 120}, {"time": 13440, "pitch": 64, "duration": 584, "velocity": 120}, {"time": 13440, "pitch": 76, "duration": 553, "velocity": 120}, {"time": 14160, "pitch": 52, "duration": 1022, "velocity": 120}, {"time": 14160, "pitch": 64, "duration": 1014, "velocity": 120}, {"time": 15360, "pitch": 64, "duration": 612, "velocity": 120}, {"time": 15360, "pitch": 76, "duration": 585, "velocity": 120}, {"time": 16080, "pitch": 52, "duration": 1013, "velocity": 120}, {"time": 16080, "pitch": 64, "duration": 1019, "velocity": 120}, {"time": 21120, "pitch": 64, "duration": 562, "velocity": 120}, {"time": 21120, "pitch": 76, "duration": 549, "velocity": 120}, {"time": 21840, "pitch": 52, "duration": 972, "velocity": 120}, {"time": 21840, "pitch": 64, "duration": 1026, "velocity": 120}, {"time": 23040, "pitch": 64, "duration": 614, "velocity": 120}, {"time": 23040, "pitch": 76, "duration": 592, "velocity": 120}, {"time": 23760, "pitch": 52, "duration": 1031, "velocity": 120}, {"time": 23760, "pitch": 64, "duration": 1046, "velocity": 120}, {"time": 28800, "pitch": 64, "duration": 584, "velocity": 120}, {"time": 28800, "pitch": 76, "duration": 553, "velocity": 120}, {"time": 29520, "pitch": 52, "duration": 1022, "velocity": 120}, {"time": 29520, "pitch": 64, "duration": 1014, "velocity": 120}, {"time": 30720, "pitch": 64, "duration": 612, "velocity": 120}, {"time": 30720, "pitch": 76, "duration": 585, "velocity": 120}, {"time": 31440, "pitch": 52, "duration": 1013, "velocity": 120}, {"time": 31440, "pitch": 64, "duration": 1019, "velocity": 120}, {"time": 36480, "pitch": 63, "duration": 345, "velocity": 120}, {"time": 36480, "pitch": 75, "duration": 256, "velocity": 120}, {"time": 36720, "pitch": 64, "duration": 208, "velocity": 120}, {"time": 36720, "pitch": 76, "duration": 286, "velocity": 120}, {"time": 37200, "pitch": 64, "duration": 226, "velocity": 120}, {"time": 37200, "pitch": 76, "duration": 254, "velocity": 120}, {"time": 37680, "pitch": 64, "duration": 231, "velocity": 120}, {"time": 37680, "pitch": 76, "duration": 253, "velocity": 120}, {"time": 38160, "pitch": 64, "duration": 180, "velocity": 120}, {"time": 38160, "pitch": 76, "duration": 189, "velocity": 120}, {"time": 38400, "pitch": 63, "duration": 309, "velocity": 120}, {"time": 38400, "pitch": 75, "duration": 251, "velocity": 120}, {"time": 38640, "pitch": 64, "duration": 258, "velocity": 120}, {"time": 38640, "pitch": 76, "duration": 293, "velocity": 120}, {"time": 39120, "pitch": 64, "duration": 224, "velocity": 120}, {"time": 39120, "pitch": 76, "duration": 248, "velocity": 120}, {"time": 39600, "pitch": 64, "duration": 202, "velocity": 120}, {"time": 39600, "pitch": 76, "duration": 235, "velocity": 120}, {"time": 40080, "pitch": 64, "duration": 230, "velocity": 120}, {"time": 40080, "pitch": 76, "duration": 295, "velocity": 120}, {"time": 44160, "pitch": 63, "duration": 345, "velocity": 120}, {"time": 44160, "pitch": 75, "duration": 256, "velocity": 120}, {"time": 44400, "pitch": 64, "duration": 208, "velocity": 120}, {"time": 44400, "pitch": 76, "duration": 286, "velocity": 120}, {"time": 44880, "pitch": 64, "duration": 226, "velocity": 120}, {"time": 44880, "pitch": 76, "duration": 254, "velocity": 120}, {"time": 45360, "pitch": 64, "duration": 231, "velocity": 120}, {"time": 45360, "pitch": 76, "duration": 253, "velocity": 120}, {"time": 45840, "pitch": 64, "duration": 180, "velocity": 120}, {"time": 45840, "pitch": 76, "duration": 189, "velocity": 120}, {"time": 46080, "pitch": 63, "duration": 309, "velocity": 120}, {"time": 46080, "pitch": 75, "duration": 251, "velocity": 120}, {"time": 46320, "pitch": 64, "duration": 258, "velocity": 120}, {"time": 46320, "pitch": 76, "duration": 293, "velocity": 120}, {"time": 46800, "pitch": 64, "duration": 224, "velocity": 120}, {"time": 46800, "pitch": 76, "duration": 248, "velocity": 120}, {"time": 47280, "pitch": 64, "duration": 202, "velocity": 120}, {"time": 47280, "pitch": 76, "duration": 235, "velocity": 120}, {"time": 47760, "pitch": 64, "duration": 230, "velocity": 120}, {"time": 47760, "pitch": 76, "duration": 295, "velocity": 120}, {"time": 61440, "pitch": 64, "duration": 298, "velocity": 120}, {"time": 61440, "pitch": 76, "duration": 321, "velocity": 120}, {"time": 61680, "pitch": 63, "duration": 303, "velocity": 120}, {"time": 61680, "pitch": 75, "duration": 324, "velocity": 120}, {"time": 61920, "pitch": 59, "duration": 260, "velocity": 120}, {"time": 61920, "pitch": 71, "duration": 314, "velocity": 120}, {"time": 62160, "pitch": 64, "duration": 291, "velocity": 120}, {"time": 62160, "pitch": 76, "duration": 330, "velocity": 120}, {"time": 62400, "pitch": 63, "duration": 307, "velocity": 120}, {"time": 62400, "pitch": 75, "duration": 343, "velocity": 120}, {"time": 62640, "pitch": 59, "duration": 251, "velocity": 120}, {"time": 62640, "pitch": 71, "duration": 298, "velocity": 120}, {"time": 62880, "pitch": 64, "duration": 262, "velocity": 120}, {"time": 62880, "pitch": 76, "duration": 317, "velocity": 120}, {"time": 63120, "pitch": 63, "duration": 384, "velocity": 120}, {"time": 63120, "pitch": 75, "duration": 379, "velocity": 120}, {"time": 67200, "pitch": 63, "duration": 345, "velocity": 120}, {"time": 67200, "pitch": 75, "duration": 256, "velocity": 120}, {"time": 67440, "pitch": 64, "duration": 208, "velocity": 120}, {"time": 67440, "pitch": 76, "duration": 286, "velocity": 120}, {"time": 67920, "pitch": 64, "duration": 226, "velocity": 120}, {"time": 67920, "pitch": 76, "duration": 254, "velocity": 120}, {"time": 68400, "pitch": 64, "duration": 231, "velocity": 120}, {"time": 68400, "pitch": 76, "duration": 253, "velocity": 120}, {"time": 68880, "pitch": 64, "duration": 180, "velocity": 120}, {"time": 68880, "pitch": 76, "duration": 189, "velocity": 120}, {"time": 69120, "pitch": 63, "duration": 309, "velocity": 120}, {"time": 69120, "pitch": 75, "duration": 251, "velocity": 120}, {"time": 69360, "pitch": 64, "duration": 258, "velocity": 120}, {"time": 69360, "pitch": 76, "duration": 293, "velocity": 120}, {"time": 69840, "pitch": 64, "duration": 224, "velocity": 120}, {"time": 69840, "pitch": 76, "duration": 248, "velocity": 120}, {"time": 70320, "pitch": 64, "duration": 202, "velocity": 120}, {"time": 70320, "pitch": 76, "duration": 235, "velocity": 120}, {"time": 70800, "pitch": 64, "duration": 230, "velocity": 120}, {"time": 70800, "pitch": 76, "duration": 295, "velocity": 120}, {"time": 74880, "pitch": 63, "duration": 345, "velocity": 120}, {"time": 74880, "pitch": 75, "duration": 256, "velocity": 120}, {"time": 75120, "pitch": 64, "duration": 208, "velocity": 120}, {"time": 75120, "pitch": 76, "duration": 286, "velocity": 120}, {"time": 75600, "pitch": 64, "duration": 226, "velocity": 120}, {"time": 75600, "pitch": 76, "duration": 254, "velocity": 120}, {"time": 76080, "pitch": 64, "duration": 231, "velocity": 120}, {"time": 76080, "pitch": 76, "duration": 253, "velocity": 120}, {"time": 76560, "pitch": 64, "duration": 180, "velocity": 120}, {"time": 76560, "pitch": 76, "duration": 189, "velocity": 120}, {"time": 76800, "pitch": 63, "duration": 309, "velocity": 120}, {"time": 76800, "pitch": 75, "duration": 251, "velocity": 120}, {"time": 77040, "pitch": 64, "duration": 258, "velocity": 120}, {"time": 77040, "pitch": 76, "duration": 293, "velocity": 120}, {"time": 77520, "pitch": 64, "duration": 224, "velocity": 120}, {"time": 77520, "pitch": 76, "duration": 248, "velocity": 120}, {"time": 78000, "pitch": 64, "duration": 202, "velocity": 120}, {"time": 78000, "pitch": 76, "duration": 235, "velocity": 120}, {"time": 78480, "pitch": 64, "duration": 230, "velocity": 120}, {"time": 78480, "pitch": 76, "duration": 295, "velocity": 120}, {"time": 92160, "pitch": 63, "duration": 376, "velocity": 120}, {"time": 92160, "pitch": 75, "duration": 354, "velocity": 120}, {"time": 92400, "pitch": 64, "duration": 314, "velocity": 120}, {"time": 92400, "pitch": 76, "duration": 255, "velocity": 120}, {"time": 92640, "pitch": 66, "duration": 258, "velocity": 120}, {"time": 92640, "pitch": 78, "duration": 290, "velocity": 120}, {"time": 92880, "pitch": 63, "duration": 344, "velocity": 120}, {"time": 92880, "pitch": 75, "duration": 304, "velocity": 120}, {"time": 93120, "pitch": 64, "duration": 273, "velocity": 120}, {"time": 93120, "pitch": 76, "duration": 251, "velocity": 120}, {"time": 93360, "pitch": 66, "duration": 278, "velocity": 120}, {"time": 93360, "pitch": 78, "duration": 297, "velocity": 120}, {"time": 93600, "pitch": 63, "duration": 313, "velocity": 120}, {"time": 93600, "pitch": 75, "duration": 285, "velocity": 120}, {"time": 93840, "pitch": 64, "duration": 256, "velocity": 120}, {"time": 93840, "pitch": 76, "duration": 335, "velocity": 120}, {"time": 99840, "pitch": 75, "duration": 354, "velocity": 120}, {"time": 100080, "pitch": 64, "duration": 314, "velocity": 120}, {"time": 100080, "pitch": 76, "duration": 255, "velocity": 120}, {"time": 100320, "pitch": 66, "duration": 258, "velocity": 120}, {"time": 100320, "pitch": 78, "duration": 290, "velocity": 120}, {"time": 100560, "pitch": 63, "duration": 344, "velocity": 120}, {"time": 100560, "pitch": 75, "duration": 304, "velocity": 120}, {"time": 100800, "pitch": 64, "duration": 273, "velocity": 120}, {"time": 100800, "pitch": 76, "duration": 251, "velocity": 120}, {"time": 101040, "pitch": 66, "duration": 278, "velocity": 120}, {"time": 101040, "pitch": 78, "duration": 297, "velocity": 120}, {"time": 101280, "pitch": 63, "duration": 313, "velocity": 120}, {"time": 101280, "pitch": 75, "duration": 285, "velocity": 120}, {"time": 101520, "pitch": 64, "duration": 256, "velocity": 120}, {"time": 101520, "pitch": 76, "duration": 335, "velocity": 120}, {"time": 107520, "pitch": 75, "duration": 354, "velocity": 120}, {"time": 107760, "pitch": 64, "duration": 314, "velocity": 120}, {"time": 107760, "pitch": 76, "duration": 255, "velocity": 120}, {"time": 108000, "pitch": 66, "duration": 258, "velocity": 120}, {"time": 108000, "pitch": 78, "duration": 290, "velocity": 120}, {"time": 108240, "pitch": 63, "duration": 344, "velocity": 120}, {"time": 108240, "pitch": 75, "duration": 304, "velocity": 120}, {"time": 108480, "pitch": 64, "duration": 273, "velocity": 120}, {"time": 108480, "pitch": 76, "duration": 251, "velocity": 120}, {"time": 108720, "pitch": 66, "duration": 278, "velocity": 120}, {"time": 108720, "pitch": 78, "duration": 297, "velocity": 120}, {"time": 108960, "pitch": 63, "duration": 313, "velocity": 120}, {"time": 108960, "pitch": 75, "duration": 285, "velocity": 120}, {"time": 109200, "pitch": 64, "duration": 256, "velocity": 120}, {"time": 109200, "pitch": 76, "duration": 335, "velocity": 120}, {"time": 115200, "pitch": 75, "duration": 354, "velocity": 120}, {"time": 115440, "pitch": 64, "duration": 314, "velocity": 120}, {"time": 115440, "pitch": 76, "duration": 255, "velocity": 120}, {"time": 115680, "pitch": 66, "duration": 258, "velocity": 120}, {"time": 115680, "pitch": 78, "duration": 290, "velocity": 120}, {"time": 115920, "pitch": 63, "duration": 344, "velocity": 120}, {"time": 115920, "pitch": 75, "duration": 304, "velocity": 120}, {"time": 116160, "pitch": 64, "duration": 273, "velocity": 120}, {"time": 116160, "pitch": 76, "duration": 251, "velocity": 120}, {"time": 116400, "pitch": 66, "duration": 278, "velocity": 120}, {"time": 116400, "pitch": 78, "duration": 297, "velocity": 120}, {"time": 116640, "pitch": 63, "duration": 313, "velocity": 120}, {"time": 116640, "pitch": 75, "duration": 285, "velocity": 120}, {"time": 116880, "pitch": 64, "duration": 256, "velocity": 120}, {"time": 116880, "pitch": 76, "duration": 335, "velocity": 120}, {"time": 147840, "pitch": 63, "duration": 345, "velocity": 120}, {"time": 147840, "pitch": 75, "duration": 256, "velocity": 120}, {"time": 148080, "pitch": 64, "duration": 208, "velocity": 120}, {"time": 148080, "pitch": 76, "duration": 286, "velocity": 120}, {"time": 148560, "pitch": 64, "duration": 226, "velocity": 120}, {"time": 148560, "pitch": 76, "duration": 254, "velocity": 120}, {"time": 149040, "pitch": 64, "duration": 231, "velocity": 120}, {"time": 149040, "pitch": 76, "duration": 253, "velocity": 120}, {"time": 149520, "pitch": 64, "duration": 180, "velocity": 120}, {"time": 149520, "pitch": 76, "duration": 189, "velocity": 120}, {"time": 149760, "pitch": 63, "duration": 309, "velocity": 120}, {"time": 149760, "pitch": 75, "duration": 251, "velocity": 120}, {"time": 150000, "pitch": 64, "duration": 258, "velocity": 120}, {"time": 150000, "pitch": 76, "duration": 293, "velocity": 120}, {"time": 150480, "pitch": 64, "duration": 224, "velocity": 120}, {"time": 150480, "pitch": 76, "duration": 248, "velocity": 120}, {"time": 150960, "pitch": 64, "duration": 202, "velocity": 120}, {"time": 150960, "pitch": 76, "duration": 235, "velocity": 120}, {"time": 151440, "pitch": 64, "duration": 230, "velocity": 120}, {"time": 151440, "pitch": 76, "duration": 295, "velocity": 120}, {"time": 155520, "pitch": 63, "duration": 345, "velocity": 120}, {"time": 155520, "pitch": 75, "duration": 256, "velocity": 120}, {"time": 155760, "pitch": 64, "duration": 208, "velocity": 120}, {"time": 155760, "pitch": 76, "duration": 286, "velocity": 120}, {"time": 156240, "pitch": 64, "duration": 226, "velocity": 120}, {"time": 156240, "pitch": 76, "duration": 254, "velocity": 120}, {"time": 156720, "pitch": 64, "duration": 231, "velocity": 120}, {"time": 156720, "pitch": 76, "duration": 253, "velocity": 120}, {"time": 157200, "pitch": 64, "duration": 180, "velocity": 120}, {"time": 157200, "pitch": 76, "duration": 189, "velocity": 120}, {"time": 157440, "pitch": 63, "duration": 309, "velocity": 120}, {"time": 157440, "pitch": 75, "duration": 251, "velocity": 120}, {"time": 157680, "pitch": 64, "duration": 258, "velocity": 120}, {"time": 157680, "pitch": 76, "duration": 293, "velocity": 120}, {"time": 158160, "pitch": 64, "duration": 224, "velocity": 120}, {"time": 158160, "pitch": 76, "duration": 248, "velocity": 120}, {"time": 158640, "pitch": 64, "duration": 202, "velocity": 120}, {"time": 158640, "pitch": 76, "duration": 235, "velocity": 120}, {"time": 159120, "pitch": 64, "duration": 230, "velocity": 120}, {"time": 159120, "pitch": 76, "duration": 295, "velocity": 120}, {"time": 172800, "pitch": 64, "duration": 298, "velocity": 120}, {"time": 172800, "pitch": 76, "duration": 321, "velocity": 120}, {"time": 173040, "pitch": 63, "duration": 303, "velocity": 120}, {"time": 173040, "pitch": 75, "duration": 324, "velocity": 120}, {"time": 173280, "pitch": 59, "duration": 260, "velocity": 120}, {"time": 173280, "pitch": 71, "duration": 314, "velocity": 120}, {"time": 173520, "pitch": 64, "duration": 291, "velocity": 120}, {"time": 173520, "pitch": 76, "duration": 330, "velocity": 120}, {"time": 173760, "pitch": 63, "duration": 307, "velocity": 120}, {"time": 173760, "pitch": 75, "duration": 343, "velocity": 120}, {"time": 174000, "pitch": 59, "duration": 251, "velocity": 120}, {"time": 174000, "pitch": 71, "duration": 298, "velocity": 120}, {"time": 174240, "pitch": 64, "duration": 262, "velocity": 120}, {"time": 174240, "pitch": 76, "duration": 317, "velocity": 120}, {"time": 174480, "pitch": 63, "duration": 384, "velocity": 120}, {"time": 174480, "pitch": 75, "duration": 379, "velocity": 120}, {"time": 178560, "pitch": 63, "duration": 345, "velocity": 120}, {"time": 178560, "pitch": 75, "duration": 256, "velocity": 120}, {"time": 178800, "pitch": 64, "duration": 208, "velocity": 120}, {"time": 178800, "pitch": 76, "duration": 286, "velocity": 120}, {"time": 179280, "pitch": 64, "duration": 226, "velocity": 120}, {"time": 179280, "pitch": 76, "duration": 254, "velocity": 120}, {"time": 179760, "pitch": 64, "duration": 231, "velocity": 120}, {"time": 179760, "pitch": 76, "duration": 253, "velocity": 120}, {"time": 180240, "pitch": 64, "duration": 180, "velocity": 120}, {"time": 180240, "pitch": 76, "duration": 189, "velocity": 120}, {"time": 180480, "pitch": 63, "duration": 309, "velocity": 120}, {"time": 180480, "pitch": 75, "duration": 251, "velocity": 120}, {"time": 180720, "pitch": 64, "duration": 258, "velocity": 120}, {"time": 180720, "pitch": 76, "duration": 293, "velocity": 120}, {"time": 181200, "pitch": 64, "duration": 224, "velocity": 120}, {"time": 181200, "pitch": 76, "duration": 248, "velocity": 120}, {"time": 181680, "pitch": 64, "duration": 202, "velocity": 120}, {"time": 181680, "pitch": 76, "duration": 235, "velocity": 120}, {"time": 182160, "pitch": 64, "duration": 230, "velocity": 120}, {"time": 182160, "pitch": 76, "duration": 295, "velocity": 120}, {"time": 186240, "pitch": 63, "duration": 345, "velocity": 120}, {"time": 186240, "pitch": 75, "duration": 256, "velocity": 120}, {"time": 186480, "pitch": 64, "duration": 208, "velocity": 120}, {"time": 186480, "pitch": 76, "duration": 286, "velocity": 120}, {"time": 186960, "pitch": 64, "duration": 226, "velocity": 120}, {"time": 186960, "pitch": 76, "duration": 254, "velocity": 120}, {"time": 187440, "pitch": 64, "duration": 231, "velocity": 120}, {"time": 187440, "pitch": 76, "duration": 253, "velocity": 120}, {"time": 187920, "pitch": 64, "duration": 180, "velocity": 120}, {"time": 187920, "pitch": 76, "duration": 189, "velocity": 120}, {"time": 188160, "pitch": 63, "duration": 309, "velocity": 120}, {"time": 188160, "pitch": 75, "duration": 251, "velocity": 120}, {"time": 188400, "pitch": 64, "duration": 258, "velocity": 120}, {"time": 188400, "pitch": 76, "duration": 293, "velocity": 120}, {"time": 188880, "pitch": 64, "duration": 224, "velocity": 120}, {"time": 188880, "pitch": 76, "duration": 248, "velocity": 120}, {"time": 189360, "pitch": 64, "duration": 202, "velocity": 120}, {"time": 189360, "pitch": 76, "duration": 235, "velocity": 120}, {"time": 189840, "pitch": 64, "duration": 230, "velocity": 120}, {"time": 189840, "pitch": 76, "duration": 295, "velocity": 120}, {"time": 203520, "pitch": 63, "duration": 376, "velocity": 120}, {"time": 203520, "pitch": 75, "duration": 354, "velocity": 120}, {"time": 203760, "pitch": 64, "duration": 314, "velocity": 120}, {"time": 203760, "pitch": 76, "duration": 255, "velocity": 120}, {"time": 204000, "pitch": 66, "duration": 258, "velocity": 120}, {"time": 204000, "pitch": 78, "duration": 290, "velocity": 120}, {"time": 204240, "pitch": 63, "duration": 344, "velocity": 120}, {"time": 204240, "pitch": 75, "duration": 304, "velocity": 120}, {"time": 204480, "pitch": 64, "duration": 273, "velocity": 120}, {"time": 204480, "pitch": 76, "duration": 251, "velocity": 120}, {"time": 204720, "pitch": 66, "duration": 278, "velocity": 120}, {"time": 204720, "pitch": 78, "duration": 297, "velocity": 120}, {"time": 204960, "pitch": 63, "duration": 313, "velocity": 120}, {"time": 204960, "pitch": 75, "duration": 285, "velocity": 120}, {"time": 205200, "pitch": 64, "duration": 256, "velocity": 120}, {"time": 205200, "pitch": 76, "duration": 335, "velocity": 120}, {"time": 211200, "pitch": 75, "duration": 354, "velocity": 120}, {"time": 211440, "pitch": 64, "duration": 314, "velocity": 120}, {"time": 211440, "pitch": 76, "duration": 255, "velocity": 120}, {"time": 211680, "pitch": 66, "duration": 258, "velocity": 120}, {"time": 211680, "pitch": 78, "duration": 290, "velocity": 120}, {"time": 211920, "pitch": 63, "duration": 344, "velocity": 120}, {"time": 211920, "pitch": 75, "duration": 304, "velocity": 120}, {"time": 212160, "pitch": 64, "duration": 273, "velocity": 120}, {"time": 212160, "pitch": 76, "duration": 251, "velocity": 120}, {"time": 212400, "pitch": 66, "duration": 278, "velocity": 120}, {"time": 212400, "pitch": 78, "duration": 297, "velocity": 120}, {"time": 212640, "pitch": 63, "duration": 313, "velocity": 120}, {"time": 212640, "pitch": 75, "duration": 285, "velocity": 120}, {"time": 212880, "pitch": 64, "duration": 256, "velocity": 120}, {"time": 212880, "pitch": 76, "duration": 335, "velocity": 120}, {"time": 218880, "pitch": 75, "duration": 354, "velocity": 120}, {"time": 219120, "pitch": 64, "duration": 314, "velocity": 120}, {"time": 219120, "pitch": 76, "duration": 255, "velocity": 120}, {"time": 219360, "pitch": 66, "duration": 258, "velocity": 120}, {"time": 219360, "pitch": 78, "duration": 290, "velocity": 120}, {"time": 219600, "pitch": 63, "duration": 344, "velocity": 120}, {"time": 219600, "pitch": 75, "duration": 304, "velocity": 120}, {"time": 219840, "pitch": 64, "duration": 273, "velocity": 120}, {"time": 219840, "pitch": 76, "duration": 251, "velocity": 120}, {"time": 220080, "pitch": 66, "duration": 278, "velocity": 120}, {"time": 220080, "pitch": 78, "duration": 297, "velocity": 120}, {"time": 220320, "pitch": 63, "duration": 313, "velocity": 120}, {"time": 220320, "pitch": 75, "duration": 285, "velocity": 120}, {"time": 220560, "pitch": 64, "duration": 256, "velocity": 120}, {"time": 220560, "pitch": 76, "duration": 335, "velocity": 120}, {"time": 226560, "pitch": 75, "duration": 354, "velocity": 120}, {"time": 226800, "pitch": 64, "duration": 314, "velocity": 120}, {"time": 226800, "pitch": 76, "duration": 255, "velocity": 120}, {"time": 227040, "pitch": 66, "duration": 258, "velocity": 120}, {"time": 227040, "pitch": 78, "duration": 290, "velocity": 120}, {"time": 227280, "pitch": 63, "duration": 344, "velocity": 120}, {"time": 227280, "pitch": 75, "duration": 304, "velocity": 120}, {"time": 227520, "pitch": 64, "duration": 273, "velocity": 120}, {"time": 227520, "pitch": 76, "duration": 251, "velocity": 120}, {"time": 227760, "pitch": 66, "duration": 278, "velocity": 120}, {"time": 227760, "pitch": 78, "duration": 297, "velocity": 120}, {"time": 228000, "pitch": 63, "duration": 313, "velocity": 120}, {"time": 228000, "pitch": 75, "duration": 285, "velocity": 120}, {"time": 228240, "pitch": 64, "duration": 256, "velocity": 120}, {"time": 228240, "pitch": 76, "duration": 335, "velocity": 120}, {"time": 36480, "pitch": 63, "duration": 720, "velocity": 100}, {"time": 37200, "pitch": 64, "duration": 200, "velocity": 105}, {"time": 37680, "pitch": 64, "duration": 200, "velocity": 100}, {"time": 38160, "pitch": 64, "duration": 220, "velocity": 105}, {"time": 38400, "pitch": 63, "duration": 720, "velocity": 100}, {"time": 39120, "pitch": 64, "duration": 200, "velocity": 105}, {"time": 39600, "pitch": 64, "duration": 200, "velocity": 100}, {"time": 40080, "pitch": 64, "duration": 220, "velocity": 105}, {"time": 44160, "pitch": 63, "duration": 720, "velocity": 100}, {"time": 44880, "pitch": 64, "duration": 200, "velocity": 105}, {"time": 45360, "pitch": 64, "duration": 200, "velocity": 100}, {"time": 45840, "pitch": 64, "duration": 220, "velocity": 105}, {"time": 46080, "pitch": 63, "duration": 720, "velocity": 100}, {"time": 46800, "pitch": 64, "duration": 200, "velocity": 105}, {"time": 47280, "pitch": 64, "duration": 200, "velocity": 100}, {"time": 47760, "pitch": 64, "duration": 220, "velocity": 105}, {"time": 61440, "pitch": 64, "duration": 295, "velocity": 120}, {"time": 61680, "pitch": 63, "duration": 324, "velocity": 110}, {"time": 61920, "pitch": 59, "duration": 260, "velocity": 90}, {"time": 62160, "pitch": 64, "duration": 291, "velocity": 120}, {"time": 62400, "pitch": 63, "duration": 343, "velocity": 110}, {"time": 62640, "pitch": 59, "duration": 298, "velocity": 95}, {"time": 62880, "pitch": 64, "duration": 262, "velocity": 120}, {"time": 63120, "pitch": 63, "duration": 240, "velocity": 100}, {"time": 67200, "pitch": 63, "duration": 720, "velocity": 100}, {"time": 67920, "pitch": 64, "duration": 200, "velocity": 105}, {"time": 68400, "pitch": 64, "duration": 200, "velocity": 100}, {"time": 68880, "pitch": 64, "duration": 220, "velocity": 105}, {"time": 69120, "pitch": 63, "duration": 720, "velocity": 100}, {"time": 69840, "pitch": 64, "duration": 200, "velocity": 105}, {"time": 70320, "pitch": 64, "duration": 200, "velocity": 100}, {"time": 70800, "pitch": 64, "duration": 220, "velocity": 105}, {"time": 74880, "pitch": 63, "duration": 720, "velocity": 100}, {"time": 75600, "pitch": 64, "duration": 200, "velocity": 105}, {"time": 76080, "pitch": 64, "duration": 200, "velocity": 100}, {"time": 76560, "pitch": 64, "duration": 220, "velocity": 105}, {"time": 76800, "pitch": 63, "duration": 720, "velocity": 100}, {"time": 77520, "pitch": 64, "duration": 200, "velocity": 105}, {"time": 78000, "pitch": 64, "duration": 200, "velocity": 100}, {"time": 78480, "pitch": 64, "duration": 220, "velocity": 105}, {"time": 92160, "pitch": 63, "duration": 354, "velocity": 120}, {"time": 92400, "pitch": 64, "duration": 314, "velocity": 110}, {"time": 92640, "pitch": 66, "duration": 258, "velocity": 90}, {"time": 92880, "pitch": 63, "duration": 304, "velocity": 120}, {"time": 93120, "pitch": 64, "duration": 273, "velocity": 110}, {"time": 93360, "pitch": 66, "duration": 278, "velocity": 90}, {"time": 93600, "pitch": 63, "duration": 313, "velocity": 120}, {"time": 93840, "pitch": 64, "duration": 240, "velocity": 100}, {"time": 99840, "pitch": 63, "duration": 354, "velocity": 120}, {"time": 100080, "pitch": 64, "duration": 314, "velocity": 110}, {"time": 100320, "pitch": 66, "duration": 258, "velocity": 90}, {"time": 100560, "pitch": 63, "duration": 304, "velocity": 120}, {"time": 100800, "pitch": 64, "duration": 273, "velocity": 110}, {"time": 101040, "pitch": 66, "duration": 278, "velocity": 90}, {"time": 101280, "pitch": 63, "duration": 313, "velocity": 120}, {"time": 101520, "pitch": 64, "duration": 240, "velocity": 100}, {"time": 107520, "pitch": 63, "duration": 354, "velocity": 120}, {"time": 107760, "pitch": 64, "duration": 314, "velocity": 110}, {"time": 108000, "pitch": 66, "duration": 258, "velocity": 90}, {"time": 108240, "pitch": 63, "duration": 304, "velocity": 120}, {"time": 108480, "pitch": 64, "duration": 273, "velocity": 110}, {"time": 108720, "pitch": 66, "duration": 278, "velocity": 90}, {"time": 108960, "pitch": 63, "duration": 313, "velocity": 120}, {"time": 109200, "pitch": 64, "duration": 240, "velocity": 100}, {"time": 115200, "pitch": 63, "duration": 354, "velocity": 120}, {"time": 115440, "pitch": 64, "duration": 314, "velocity": 110}, {"time": 115680, "pitch": 66, "duration": 258, "velocity": 90}, {"time": 115920, "pitch": 63, "duration": 304, "velocity": 120}, {"time": 116160, "pitch": 64, "duration": 273, "velocity": 110}, {"time": 116400, "pitch": 66, "duration": 278, "velocity": 90}, {"time": 116640, "pitch": 63, "duration": 313, "velocity": 120}, {"time": 116880, "pitch": 64, "duration": 240, "velocity": 100}, {"time": 136320, "pitch": 64, "duration": 120, "velocity": 120}, {"time": 136440, "pitch": 64, "duration": 240, "velocity": 100}, {"time": 136560, "pitch": 59, "duration": 120, "velocity": 110}, {"time": 136680, "pitch": 59, "duration": 240, "velocity": 90}, {"time": 136800, "pitch": 61, "duration": 120, "velocity": 120}, {"time": 136920, "pitch": 61, "duration": 240, "velocity": 110}, {"time": 137040, "pitch": 57, "duration": 120, "velocity": 120}, {"time": 137160, "pitch": 57, "duration": 240, "velocity": 90}, {"time": 137280, "pitch": 59, "duration": 120, "velocity": 120}, {"time": 137400, "pitch": 59, "duration": 240, "velocity": 100}, {"time": 137520, "pitch": 56, "duration": 120, "velocity": 120}, {"time": 137640, "pitch": 56, "duration": 240, "velocity": 90}, {"time": 137760, "pitch": 57, "duration": 120, "velocity": 120}, {"time": 137880, "pitch": 57, "duration": 240, "velocity": 110}, {"time": 138000, "pitch": 59, "duration": 120, "velocity": 120}, {"time": 138120, "pitch": 59, "duration": 240, "velocity": 110}, {"time": 138240, "pitch": 64, "duration": 120, "velocity": 120}, {"time": 138360, "pitch": 64, "duration": 240, "velocity": 100}, {"time": 138480, "pitch": 59, "duration": 120, "velocity": 110}, {"time": 138600, "pitch": 59, "duration": 240, "velocity": 90}, {"time": 138720, "pitch": 61, "duration": 120, "velocity": 120}, {"time": 138840, "pitch": 61, "duration": 240, "velocity": 110}, {"time": 138960, "pitch": 57, "duration": 120, "velocity": 120}, {"time": 139080, "pitch": 57, "duration": 240, "velocity": 90}, {"time": 139200, "pitch": 59, "duration": 120, "velocity": 120}, {"time": 139320, "pitch": 59, "duration": 240, "velocity": 100}, {"time": 139440, "pitch": 56, "duration": 120, "velocity": 120}, {"time": 139560, "pitch": 56, "duration": 240, "velocity": 90}, {"time": 139680, "pitch": 57, "duration": 120, "velocity": 120}, {"time": 139800, "pitch": 57, "duration": 240, "velocity": 110}, {"time": 139920, "pitch": 59, "duration": 120, "velocity": 120}, {"time": 140040, "pitch": 59, "duration": 240, "velocity": 110}, {"time": 140160, "pitch": 64, "duration": 120, "velocity": 120}, {"time": 140280, "pitch": 64, "duration": 240, "velocity": 100}, {"time": 140400, "pitch": 59, "duration": 120, "velocity": 110}, {"time": 140520, "pitch": 59, "duration": 240, "velocity": 90}, {"time": 140640, "pitch": 61, "duration": 120, "velocity": 120}, {"time": 140760, "pitch": 61, "duration": 240, "velocity": 110}, {"time": 140880, "pitch": 57, "duration": 120, "velocity": 120}, {"time": 141000, "pitch": 57, "duration": 240, "velocity": 90}, {"time": 141120, "pitch": 59, "duration": 120, "velocity": 120}, {"time": 141240, "pitch": 59, "duration": 240, "velocity": 100}, {"time": 141360, "pitch": 56, "duration": 120, "velocity": 120}, {"time": 141480, "pitch": 56, "duration": 240, "velocity": 90}, {"time": 141600, "pitch": 57, "duration": 120, "velocity": 120}, {"time": 141720, "pitch": 57, "duration": 240, "velocity": 110}, {"time": 141840, "pitch": 59, "duration": 120, "velocity": 120}, {"time": 141960, "pitch": 59, "duration": 240, "velocity": 110}, {"time": 142080, "pitch": 57, "duration": 120, "velocity": 120}, {"time": 142200, "pitch": 57, "duration": 120, "velocity": 100}, {"time": 142320, "pitch": 57, "duration": 120, "velocity": 110}, {"time": 142440, "pitch": 57, "duration": 120, "velocity": 90}, {"time": 142560, "pitch": 57, "duration": 120, "velocity": 120}, {"time": 142680, "pitch": 57, "duration": 120, "velocity": 110}, {"time": 142800, "pitch": 57, "duration": 120, "velocity": 120}, {"time": 142920, "pitch": 57, "duration": 160, "velocity": 90}, {"time": 143160, "pitch": 59, "duration": 120, "velocity": 120}, {"time": 143280, "pitch": 59, "duration": 120, "velocity": 100}, {"time": 143400, "pitch": 59, "duration": 120, "velocity": 120}, {"time": 143520, "pitch": 59, "duration": 400, "velocity": 120}, {"time": 147840, "pitch": 63, "duration": 720, "velocity": 100}, {"time": 148560, "pitch": 64, "duration": 200, "velocity": 105}, {"time": 149040, "pitch": 64, "duration": 200, "velocity": 100}, {"time": 149520, "pitch": 64, "duration": 220, "velocity": 105}, {"time": 149760, "pitch": 63, "duration": 720, "velocity": 100}, {"time": 150480, "pitch": 64, "duration": 200, "velocity": 105}, {"time": 150960, "pitch": 64, "duration": 200, "velocity": 100}, {"time": 151440, "pitch": 64, "duration": 220, "velocity": 105}, {"time": 155520, "pitch": 63, "duration": 720, "velocity": 100}, {"time": 156240, "pitch": 64, "duration": 200, "velocity": 105}, {"time": 156720, "pitch": 64, "duration": 200, "velocity": 100}, {"time": 157200, "pitch": 64, "duration": 220, "velocity": 105}, {"time": 157440, "pitch": 63, "duration": 720, "velocity": 100}, {"time": 158160, "pitch": 64, "duration": 200, "velocity": 105}, {"time": 158640, "pitch": 64, "duration": 200, "velocity": 100}, {"time": 159120, "pitch": 64, "duration": 220, "velocity": 105}, {"time": 172800, "pitch": 64, "duration": 295, "velocity": 120}, {"time": 173040, "pitch": 63, "duration": 324, "velocity": 110}, {"time": 173280, "pitch": 59, "duration": 260, "velocity": 90}, {"time": 173520, "pitch": 64, "duration": 291, "velocity": 120}, {"time": 173760, "pitch": 63, "duration": 343, "velocity": 110}, {"time": 174000, "pitch": 59, "duration": 298, "velocity": 95}, {"time": 174240, "pitch": 64, "duration": 262, "velocity": 120}, {"time": 174480, "pitch": 63, "duration": 240, "velocity": 100}, {"time": 178560, "pitch": 63, "duration": 720, "velocity": 100}, {"time": 179280, "pitch": 64, "duration": 200, "velocity": 105}, {"time": 179760, "pitch": 64, "duration": 200, "velocity": 100}, {"time": 180240, "pitch": 64, "duration": 220, "velocity": 105}, {"time": 180480, "pitch": 63, "duration": 720, "velocity": 100}, {"time": 181200, "pitch": 64, "duration": 200, "velocity": 105}, {"time": 181680, "pitch": 64, "duration": 200, "velocity": 100}, {"time": 182160, "pitch": 64, "duration": 220, "velocity": 105}, {"time": 186240, "pitch": 63, "duration": 720, "velocity": 100}, {"time": 186960, "pitch": 64, "duration": 200, "velocity": 105}, {"time": 187440, "pitch": 64, "duration": 200, "velocity": 100}, {"time": 187920, "pitch": 64, "duration": 220, "velocity": 105}, {"time": 188160, "pitch": 63, "duration": 720, "velocity": 100}, {"time": 188880, "pitch": 64, "duration": 200, "velocity": 105}, {"time": 189360, "pitch": 64, "duration": 200, "velocity": 100}, {"time": 189840, "pitch": 64, "duration": 220, "velocity": 105}, {"time": 203520, "pitch": 63, "duration": 354, "velocity": 120}, {"time": 203760, "pitch": 64, "duration": 314, "velocity": 110}, {"time": 204000, "pitch": 66, "duration": 258, "velocity": 90}, {"time": 204240, "pitch": 63, "duration": 304, "velocity": 120}, {"time": 204480, "pitch": 64, "duration": 273, "velocity": 110}, {"time": 204720, "pitch": 66, "duration": 278, "velocity": 90}, {"time": 204960, "pitch": 63, "duration": 313, "velocity": 120}, {"time": 205200, "pitch": 64, "duration": 240, "velocity": 100}, {"time": 211200, "pitch": 63, "duration": 354, "velocity": 120}, {"time": 211440, "pitch": 64, "duration": 314, "velocity": 110}, {"time": 211680, "pitch": 66, "duration": 258, "velocity": 90}, {"time": 211920, "pitch": 63, "duration": 304, "velocity": 120}, {"time": 212160, "pitch": 64, "duration": 273, "velocity": 110}, {"time": 212400, "pitch": 66, "duration": 278, "velocity": 90}, {"time": 212640, "pitch": 63, "duration": 313, "velocity": 120}, {"time": 212880, "pitch": 64, "duration": 240, "velocity": 100}, {"time": 218880, "pitch": 63, "duration": 354, "velocity": 120}, {"time": 219120, "pitch": 64, "duration": 314, "velocity": 110}, {"time": 219360, "pitch": 66, "duration": 258, "velocity": 90}, {"time": 219600, "pitch": 63, "duration": 304, "velocity": 120}, {"time": 219840, "pitch": 64, "duration": 273, "velocity": 110}, {"time": 220080, "pitch": 66, "duration": 278, "velocity": 90}, {"time": 220320, "pitch": 63, "duration": 313, "velocity": 120}, {"time": 220560, "pitch": 64, "duration": 240, "velocity": 100}, {"time": 226560, "pitch": 63, "duration": 354, "velocity": 120}, {"time": 226800, "pitch": 64, "duration": 314, "velocity": 110}, {"time": 227040, "pitch": 66, "duration": 258, "velocity": 90}, {"time": 227280, "pitch": 63, "duration": 304, "velocity": 120}, {"time": 227520, "pitch": 64, "duration": 273, "velocity": 110}, {"time": 227760, "pitch": 66, "duration": 278, "velocity": 90}, {"time": 228000, "pitch": 63, "duration": 313, "velocity": 120}, {"time": 228240, "pitch": 64, "duration": 240, "velocity": 100}, {"time": 1920, "pitch": 36, "duration": 10, "velocity": 110}, {"time": 1920, "pitch": 42, "duration": 10, "velocity": 110}, {"time": 1920, "pitch": 49, "duration": 10, "velocity": 120}, {"time": 1920, "pitch": 57, "duration": 10, "velocity": 120}, {"time": 2160, "pitch": 42, "duration": 10, "velocity": 110}, {"time": 2400, "pitch": 38, "duration": 10, "velocity": 105}, {"time": 2400, "pitch": 46, "duration": 10, "velocity": 120}, {"time": 2640, "pitch": 42, "duration": 10, "velocity": 110}, {"time": 2640, "pitch": 53, "duration": 10, "velocity": 120}, {"time": 2880, "pitch": 36, "duration": 10, "velocity": 110}, {"time": 2880, "pitch": 42, "duration": 10, "velocity": 110}, {"time": 3120, "pitch": 36, "duration": 10, "velocity": 110}, {"time": 3120, "pitch": 42, "duration": 10, "velocity": 110}, {"time": 3360, "pitch": 38, "duration": 10, "velocity": 105}, {"time": 3360, "pitch": 46, "duration": 10, "velocity": 120}, {"time": 3360, "pitch": 52, "duration": 10, "velocity": 120}, {"time": 3600, "pitch": 36, "duration": 10, "velocity": 110}, {"time": 3600, "pitch": 42, "duration": 10, "velocity": 110}, {"time": 3840, "pitch": 36, "duration": 10, "velocity": 110}, {"time": 3840, "pitch": 42, "duration": 10, "velocity": 110}, {"time": 3840, "pitch": 49, "duration": 10, "velocity": 120}, {"time": 4080, "pitch": 42, "duration": 10, "velocity": 110}, {"time": 4320, "pitch": 38, "duration": 10, "velocity": 105}, {"time": 4320, "pitch": 46, "duration": 10, "velocity": 120}, {"time": 4560, "pitch": 42, "duration": 10, "velocity": 110}, {"time": 4560, "pitch": 53, "duration": 10, "velocity": 120}, {"time": 4800, "pitch": 36, "duration": 10, "velocity": 110}, {"time": 4800, "pitch": 42, "duration": 10, "velocity": 110}, {"time": 5040, "pitch": 36, "duration": 10, "velocity": 110}, {"time": 5040, "pitch": 42, "duration": 10, "velocity": 110}, {"time": 5280, "pitch": 38, "duration": 10, "velocity": 105}, {"time": 5280, "pitch": 46, "duration": 10, "velocity": 120}, {"time": 5280, "pitch": 52, "duration": 10, "velocity": 120}, {"time": 5520, "pitch": 36, "duration": 10, "velocity": 110}, {"time": 5520, "pitch": 42, "duration": 10, "velocity": 110}, {"time": 5760, "pitch": 36, "duration": 10, "velocity": 110}, {"time": 5760, "pitch": 42, "duration": 10, "velocity": 110}, {"time": 6000, "pitch": 42, "duration": 10, "velocity": 110}, {"time": 6240, "pitch": 38, "duration": 10, "velocity": 105}, {"time": 6240, "pitch": 46, "duration": 10, "velocity": 120}, {"time": 6480, "pitch": 42, "duration": 10, "velocity": 110}, {"time": 6720, "pitch": 36, "duration": 10, "velocity": 110}, {"time": 6720, "pitch": 42, "duration": 10, "velocity": 110}, {"time": 6960, "pitch": 36, "duration": 10, "velocity": 110}, {"time": 6960, "pitch": 42, "duration": 10, "velocity": 110}, {"time": 7200, "pitch": 38, "duration": 10, "velocity": 105}, {"time": 7200, "pitch": 46, "duration": 10, "velocity": 120}, {"time": 7440, "pitch": 36, "duration": 10, "velocity": 110}, {"time": 7440, "pitch": 42, "duration": 10, "velocity": 110}, {"time": 7680, "pitch": 36, "duration": 10, "velocity": 110}, {"time": 7680, "pitch": 42, "duration": 10, "velocity": 110}, {"time": 7920, "pitch": 42, "duration": 10, "velocity": 110}, {"time": 8160, "pitch": 38, "duration": 10, "velocity": 105}, {"time": 8160, "pitch": 46, "duration": 10, "velocity": 120}, {"time": 8400, "pitch": 42, "duration": 10, "velocity": 110}, {"time": 8640, "pitch": 36, "duration": 10, "velocity": 110}, {"time": 8640, "pitch": 42, "duration": 10, "velocity": 110}, {"time": 8880, "pitch": 36, "duration": 10, "velocity": 110}, {"time": 8880, "pitch": 46, "duration": 10, "velocity": 120}, {"time": 9120, "pitch": 38, "duration": 10, "velocity": 105}, {"time": 9120, "pitch": 42, "duration": 10, "velocity": 110}, {"time": 9360, "pitch": 36, "duration": 10, "velocity": 110}, {"time": 9360, "pitch": 46, "duration": 10, "velocity": 120}, {"time": 9600, "pitch": 36, "duration": 10, "velocity": 110}, {"time": 9600, "pitch": 42, "duration": 10, "velocity": 110}, {"time": 9600, "pitch": 49, "duration": 10, "velocity": 120}, {"time": 9600, "pitch": 57, "duration": 10, "velocity": 120}, {"time": 9840, "pitch": 42, "duration": 10, "velocity": 110}, {"time": 10080, "pitch": 38, "duration": 10, "velocity": 105}, {"time": 10080, "pitch": 46, "duration": 10, "velocity": 120}, {"time": 10320, "pitch": 42, "duration": 10, "velocity": 110}, {"time": 10320, "pitch": 53, "duration": 10, "velocity": 120}, {"time": 10560, "pitch": 36, "duration": 10, "velocity": 110}, {"time": 10560, "pitch": 42, "duration": 10, "velocity": 110}, {"time": 10800, "pitch": 36, "duration": 10, "velocity": 110}, {"time": 10800, "pitch": 42, "duration": 10, "velocity": 110}, {"time": 11040, "pitch": 38, "duration": 10, "velocity": 105}, {"time": 11040, "pitch": 46, "duration": 10, "velocity": 120}, {"time": 11040, "pitch": 52, "duration": 10, "velocity": 120}, {"time": 11280, "pitch": 36, "duration": 10, "velocity": 110}, {"time": 11280, "pitch": 42, "duration": 10, "velocity": 110}, {"time": 11520, "pitch": 36, "duration": 10, "velocity": 110}, {"time": 11520, "pitch": 42, "duration": 10, "velocity": 110}, {"time": 11520, "pitch": 49, "duration": 10, "velocity": 120}, {"time": 11760, "pitch": 42, "duration": 10, "velocity": 110}, {"time": 12000, "pitch": 38, "duration": 10, "velocity": 105}, {"time": 12000, "pitch": 46, "duration": 10, "velocity": 120}, {"time": 12240, "pitch": 42, "duration": 10, "velocity": 110}, {"time": 12240, "pitch": 53, "duration": 10, "velocity": 120}, {"time": 12480, "pitch": 36, "duration": 10, "velocity": 110}, {"time": 12480, "pitch": 42, "duration": 10, "velocity": 110}, {"time": 12720, "pitch": 36, "duration": 10, "velocity": 110}, {"time": 12720, "pitch": 42, "duration": 10, "velocity": 110}, {"time": 12960, "pitch": 38, "duration": 10, "velocity": 105}, {"time": 12960, "pitch": 46, "duration": 10, "velocity": 120}, {"time": 12960, "pitch": 52, "duration": 10, "velocity": 120}, {"time": 13200, "pitch": 36, "duration": 10, "velocity": 110}, {"time": 13200, "pitch": 42, "duration": 10, "velocity": 110}, {"time": 13440, "pitch": 36, "duration": 10, "velocity": 110}, {"time": 13440, "pitch": 42, "duration": 10, "velocity": 110}, {"time": 13680, "pitch": 42, "duration": 10, "velocity": 110}, {"time": 13920, "pitch": 38, "duration": 10, "velocity": 105}, {"time": 13920, "pitch": 46, "duration": 10, "velocity": 120}, {"time": 14160, "pitch": 42, "duration": 10, "velocity": 110}, {"time": 14400, "pitch": 36, "duration": 10, "velocity": 110}, {"time": 14400, "pitch": 42, "duration": 10, "velocity": 110}, {"time": 14640, "pitch": 36, "duration": 10, "velocity": 110}, {"time": 14640, "pitch": 42, "duration": 10, "velocity": 110}, {"time": 14880, "pitch": 38, "duration": 10, "velocity": 105}, {"time": 14880, "pitch": 46, "duration": 10, "velocity": 120}, {"time": 15120, "pitch": 36, "duration": 10, "velocity": 110}, {"time": 15120, "pitch": 42, "duration": 10, "velocity": 110}, {"time": 15360, "pitch": 36, "duration": 10, "velocity": 110}, {"time": 15360, "pitch": 42, "duration": 10, "velocity": 110}, {"time": 15600, "pitch": 42, "duration": 10, "velocity": 110}, {"time": 15840, "pitch": 38, "duration": 10, "velocity": 105}, {"time": 15840, "pitch": 46, "duration": 10, "velocity": 120}, {"time": 16080, "pitch": 42, "duration": 10, "velocity": 110}, {"time": 16320, "pitch": 36, "duration": 10, "velocity": 110}, {"time": 16320, "pitch": 42, "duration": 10, "velocity": 110}, {"time": 16560, "pitch": 36, "duration": 10, "velocity": 110}, {"time": 16560, "pitch": 46, "duration": 10, "velocity": 120}, {"time": 16800, "pitch": 38, "duration": 10, "velocity": 105}, {"time": 16800, "pitch": 42, "duration": 10, "velocity": 110}, {"time": 17040, "pitch": 36, "duration": 10, "velocity": 110}, {"time": 17040, "pitch": 46, "duration": 10, "velocity": 120}, {"time": 17280, "pitch": 36, "duration": 10, "velocity": 110}, {"time": 17280, "pitch": 42, "duration": 10, "velocity": 110}, {"time": 17280, "pitch": 49, "duration": 10, "velocity": 120}, {"time": 17280, "pitch": 57, "duration": 10, "velocity": 120}, {"time": 17520, "pitch": 42, "duration": 10, "velocity": 110}, {"time": 17760, "pitch": 38, "duration": 10, "velocity": 105}, {"time": 17760, "pitch": 46, "duration": 10, "velocity": 120}, {"time": 18000, "pitch": 42, "duration": 10, "velocity": 110}, {"time": 18000, "pitch": 53, "duration": 10, "velocity": 120}, {"time": 18240, "pitch": 36, "duration": 10, "velocity": 110}, {"time": 18240, "pitch": 42, "duration": 10, "velocity": 110}, {"time": 18480, "pitch": 36, "duration": 10, "velocity": 110}, {"time": 18480, "pitch": 42, "duration": 10, "velocity": 110}, {"time": 18720, "pitch": 38, "duration": 10, "velocity": 105}, {"time": 18720, "pitch": 46, "duration": 10, "velocity": 120}, {"time": 18720, "pitch": 52, "duration": 10, "velocity": 120}, {"time": 18960, "pitch": 36, "duration": 10, "velocity": 110}, {"time": 18960, "pitch": 42, "duration": 10, "velocity": 110}, {"time": 19200, "pitch": 36, "duration": 10, "velocity": 110}, {"time": 19200, "pitch": 42, "duration": 10, "velocity": 110}, {"time": 19200, "pitch": 49, "duration": 10, "velocity": 120}, {"time": 19440, "pitch": 42, "duration": 10, "velocity": 110}, {"time": 19680, "pitch": 38, "duration": 10, "velocity": 105}, {"time": 19680, "pitch": 46, "duration": 10, "velocity": 120}, {"time": 19920, "pitch": 42, "duration": 10, "velocity": 110}, {"time": 19920, "pitch": 53, "duration": 10, "velocity": 120}, {"time": 20160, "pitch": 36, "duration": 10, "velocity": 110}, {"time": 20160, "pitch": 42, "duration": 10, "velocity": 110}, {"time": 20400, "pitch": 36, "duration": 10, "velocity": 110}, {"time": 20400, "pitch": 42, "duration": 10, "velocity": 110}, {"time": 20640, "pitch": 38, "duration": 10, "velocity": 105}, {"time": 20640, "pitch": 46, "duration": 10, "velocity": 120}, {"time": 20640, "pitch": 52, "duration": 10, "velocity": 120}, {"time": 20880, "pitch": 36, "duration": 10, "velocity": 110}, {"time": 20880, "pitch": 42, "duration": 10, "velocity": 110}, {"time": 21120, "pitch": 36, "duration": 10, "velocity": 110}, {"time": 21120, "pitch": 42, "duration": 10, "velocity": 110}, {"time": 21360, "pitch": 42, "duration": 10, "velocity": 110}, {"time": 21600, "pitch": 38, "duration": 10, "velocity": 105}, {"time": 21600, "pitch": 46, "duration": 10, "velocity": 120}, {"time": 21840, "pitch": 42, "duration": 10, "velocity": 110}, {"time": 22080, "pitch": 36, "duration": 10, "velocity": 110}, {"time": 22080, "pitch": 42, "duration": 10, "velocity": 110}, {"time": 22320, "pitch": 36, "duration": 10, "velocity": 110}, {"time": 22320, "pitch": 42, "duration": 10, "velocity": 110}, {"time": 22560, "pitch": 38, "duration": 10, "velocity": 105}, {"time": 22560, "pitch": 46, "duration": 10, "velocity": 120}, {"time": 22800, "pitch": 36, "duration": 10, "velocity": 110}, {"time": 22800, "pitch": 42, "duration": 10, "velocity": 110}, {"time": 23040, "pitch": 36, "duration": 10, "velocity": 110}, {"time": 23040, "pitch": 42, "duration": 10, "velocity": 110}, {"time": 23280, "pitch": 42, "duration": 10, "velocity": 110}, {"time": 23520, "pitch": 38, "duration": 10, "velocity": 105}, {"time": 23520, "pitch": 46, "duration": 10, "velocity": 120}, {"time": 23760, "pitch": 42, "duration": 10, "velocity": 110}, {"time": 24000, "pitch": 36, "duration": 10, "velocity": 110}, {"time": 24000, "pitch": 42, "duration": 10, "velocity": 110}, {"time": 24240, "pitch": 36, "duration": 10, "velocity": 110}, {"time": 24240, "pitch": 46, "duration": 10, "velocity": 120}, {"time": 24480, "pitch": 38, "duration": 10, "velocity": 105}, {"time": 24480, "pitch": 42, "duration": 10, "velocity": 110}, {"time": 24720, "pitch": 36, "duration": 10, "velocity": 110}, {"time": 24720, "pitch": 46, "duration": 10, "velocity": 120}, {"time": 24960, "pitch": 36, "duration": 10, "velocity": 110}, {"time": 24960, "pitch": 42, "duration": 10, "velocity": 110}, {"time": 24960, "pitch": 49, "duration": 10, "velocity": 120}, {"time": 24960, "pitch": 57, "duration": 10, "velocity": 120}, {"time": 25200, "pitch": 42, "duration": 10, "velocity": 110}, {"time": 25440, "pitch": 38, "duration": 10, "velocity": 105}, {"time": 25440, "pitch": 46, "duration": 10, "velocity": 120}, {"time": 25680, "pitch": 42, "duration": 10, "velocity": 110}, {"time": 25680, "pitch": 53, "duration": 10, "velocity": 120}, {"time": 25920, "pitch": 36, "duration": 10, "velocity": 110}, {"time": 25920, "pitch": 42, "duration": 10, "velocity": 110}, {"time": 26160, "pitch": 36, "duration": 10, "velocity": 110}, {"time": 26160, "pitch": 42, "duration": 10, "velocity": 110}, {"time": 26400, "pitch": 38, "duration": 10, "velocity": 105}, {"time": 26400, "pitch": 46, "duration": 10, "velocity": 120}, {"time": 26400, "pitch": 52, "duration": 10, "velocity": 120}, {"time": 26640, "pitch": 36, "duration": 10, "velocity": 110}, {"time": 26640, "pitch": 42, "duration": 10, "velocity": 110}, {"time": 26880, "pitch": 36, "duration": 10, "velocity": 110}, {"time": 26880, "pitch": 42, "duration": 10, "velocity": 110}, {"time": 26880, "pitch": 49, "duration": 10, "velocity": 120}, {"time": 27120, "pitch": 42, "duration": 10, "velocity": 110}, {"time": 27360, "pitch": 38, "duration": 10, "velocity": 105}, {"time": 27360, "pitch": 46, "duration": 10, "velocity": 120}, {"time": 27600, "pitch": 42, "duration": 10, "velocity": 110}, {"time": 27600, "pitch": 53, "duration": 10, "velocity": 120}, {"time": 27840, "pitch": 36, "duration": 10, "velocity": 110}, {"time": 27840, "pitch": 42, "duration": 10, "velocity": 110}, {"time": 28080, "pitch": 36, "duration": 10, "velocity": 110}, {"time": 28080, "pitch": 42, "duration": 10, "velocity": 110}, {"time": 28320, "pitch": 38, "duration": 10, "velocity": 105}, {"time": 28320, "pitch": 46, "duration": 10, "velocity": 120}, {"time": 28320, "pitch": 52, "duration": 10, "velocity": 120}, {"time": 28560, "pitch": 36, "duration": 10, "velocity": 110}, {"time": 28560, "pitch": 42, "duration": 10, "velocity": 110}, {"time": 28800, "pitch": 36, "duration": 10, "velocity": 110}, {"time": 28800, "pitch": 42, "duration": 10, "velocity": 110}, {"time": 29040, "pitch": 42, "duration": 10, "velocity": 110}, {"time": 29280, "pitch": 38, "duration": 10, "velocity": 105}, {"time": 29280, "pitch": 46, "duration": 10, "velocity": 120}, {"time": 29520, "pitch": 42, "duration": 10, "velocity": 110}, {"time": 29760, "pitch": 36, "duration": 10, "velocity": 110}, {"time": 29760, "pitch": 42, "duration": 10, "velocity": 110}, {"time": 30000, "pitch": 36, "duration": 10, "velocity": 110}, {"time": 30000, "pitch": 42, "duration": 10, "velocity": 110}, {"time": 30240, "pitch": 38, "duration": 10, "velocity": 105}, {"time": 30240, "pitch": 46, "duration": 10, "velocity": 120}, {"time": 30480, "pitch": 36, "duration": 10, "velocity": 110}, {"time": 30480, "pitch": 42, "duration": 10, "velocity": 110}, {"time": 30720, "pitch": 36, "duration": 10, "velocity": 110}, {"time": 30720, "pitch": 42, "duration": 10, "velocity": 110}, {"time": 30960, "pitch": 42, "duration": 10, "velocity": 110}, {"time": 31200, "pitch": 38, "duration": 10, "velocity": 105}, {"time": 31200, "pitch": 46, "duration": 10, "velocity": 120}, {"time": 31440, "pitch": 42, "duration": 10, "velocity": 110}, {"time": 31680, "pitch": 36, "duration": 10, "velocity": 110}, {"time": 31680, "pitch": 42, "duration": 10, "velocity": 110}, {"time": 31920, "pitch": 36, "duration": 10, "velocity": 110}, {"time": 31920, "pitch": 46, "duration": 10, "velocity": 120}, {"time": 32160, "pitch": 38, "duration": 10, "velocity": 105}, {"time": 32160, "pitch": 42, "duration": 10, "velocity": 110}, {"time": 32400, "pitch": 36, "duration": 10, "velocity": 110}, {"time": 32400, "pitch": 46, "duration": 10, "velocity": 120}, {"time": 32640, "pitch": 36, "duration": 10, "velocity": 110}, {"time": 32640, "pitch": 42, "duration": 10, "velocity": 110}, {"time": 32640, "pitch": 49, "duration": 10, "velocity": 120}, {"time": 32640, "pitch": 57, "duration": 10, "velocity": 120}, {"time": 32880, "pitch": 42, "duration": 10, "velocity": 110}, {"time": 33120, "pitch": 38, "duration": 10, "velocity": 105}, {"time": 33120, "pitch": 46, "duration": 10, "velocity": 120}, {"time": 33360, "pitch": 42, "duration": 10, "velocity": 110}, {"time": 33600, "pitch": 36, "duration": 10, "velocity": 110}, {"time": 33600, "pitch": 42, "duration": 10, "velocity": 110}, {"time": 33840, "pitch": 36, "duration": 10, "velocity": 110}, {"time": 33840, "pitch": 42, "duration": 10, "velocity": 110}, {"time": 34080, "pitch": 38, "duration": 10, "velocity": 105}, {"time": 34080, "pitch": 46, "duration": 10, "velocity": 120}, {"time": 34320, "pitch": 36, "duration": 10, "velocity": 110}, {"time": 34320, "pitch": 42, "duration": 10, "velocity": 110}, {"time": 34560, "pitch": 36, "duration": 10, "velocity": 110}, {"time": 34560, "pitch": 42, "duration": 10, "velocity": 110}, {"time": 34800, "pitch": 42, "duration": 10, "velocity": 110}, {"time": 35040, "pitch": 38, "duration": 10, "velocity": 105}, {"time": 35040, "pitch": 46, "duration": 10, "velocity": 120}, {"time": 35280, "pitch": 42, "duration": 10, "velocity": 110}, {"time": 35520, "pitch": 36, "duration": 10, "velocity": 110}, {"time": 35520, "pitch": 42, "duration": 10, "velocity": 110}, {"time": 35760, "pitch": 36, "duration": 10, "velocity": 110}, {"time": 35760, "pitch": 42, "duration": 10, "velocity": 110}, {"time": 36000, "pitch": 38, "duration": 10, "velocity": 105}, {"time": 36000, "pitch": 46, "duration": 10, "velocity": 120}, {"time": 36240, "pitch": 36, "duration": 10, "velocity": 110}, {"time": 36240, "pitch": 42, "duration": 10, "velocity": 110}, {"time": 36480, "pitch": 36, "duration": 10, "velocity": 110}, {"time": 36480, "pitch": 42, "duration": 10, "velocity": 110}, {"time": 36720, "pitch": 42, "duration": 10, "velocity": 110}, {"time": 36960, "pitch": 38, "duration": 10, "velocity": 105}, {"time": 36960, "pitch": 46, "duration": 10, "velocity": 120}, {"time": 37200, "pitch": 42, "duration": 10, "velocity": 110}, {"time": 37440, "pitch": 36, "duration": 10, "velocity": 110}, {"time": 37440, "pitch": 42, "duration": 10, "velocity": 110}, {"time": 37680, "pitch": 36, "duration": 10, "velocity": 110}, {"time": 37680, "pitch": 42, "duration": 10, "velocity": 110}, {"time": 37920, "pitch": 38, "duration": 10, "velocity": 105}, {"time": 37920, "pitch": 46, "duration": 10, "velocity": 120}, {"time": 38160, "pitch": 36, "duration": 10, "velocity": 110}, {"time": 38160, "pitch": 42, "duration": 10, "velocity": 110}, {"time": 38400, "pitch": 36, "duration": 10, "velocity": 110}, {"time": 38400, "pitch": 42, "duration": 10, "velocity": 110}, {"time": 38640, "pitch": 42, "duration": 10, "velocity": 110}, {"time": 38880, "pitch": 38, "duration": 10, "velocity": 105}, {"time": 38880, "pitch": 46, "duration": 10, "velocity": 120}, {"time": 39120, "pitch": 42, "duration": 10, "velocity": 110}, {"time": 39360, "pitch": 36, "duration": 10, "velocity": 110}, {"time": 39360, "pitch": 42, "duration": 10, "velocity": 110}, {"time": 39600, "pitch": 36, "duration": 10, "velocity": 110}, {"time": 39600, "pitch": 46, "duration": 10, "velocity": 120}, {"time": 39840, "pitch": 38, "duration": 10, "velocity": 105}, {"time": 39840, "pitch": 42, "duration": 10, "velocity": 110}, {"time": 40080, "pitch": 36, "duration": 10, "velocity": 110}, {"time": 40080, "pitch": 46, "duration": 10, "velocity": 120}, {"time": 40320, "pitch": 36, "duration": 10, "velocity": 110}, {"time": 40320, "pitch": 42, "duration": 10, "velocity": 110}, {"time": 40320, "pitch": 49, "duration": 10, "velocity": 120}, {"time": 40320, "pitch": 57, "duration": 10, "velocity": 120}, {"time": 40560, "pitch": 42, "duration": 10, "velocity": 110}, {"time": 40800, "pitch": 38, "duration": 10, "velocity": 105}, {"time": 40800, "pitch": 46, "duration": 10, "velocity": 120}, {"time": 41040, "pitch": 42, "duration": 10, "velocity": 110}, {"time": 41280, "pitch": 36, "duration": 10, "velocity": 110}, {"time": 41280, "pitch": 42, "duration": 10, "velocity": 110}, {"time": 41520, "pitch": 36, "duration": 10, "velocity": 110}, {"time": 41520, "pitch": 42, "duration": 10, "velocity": 110}, {"time": 41760, "pitch": 38, "duration": 10, "velocity": 105}, {"time": 41760, "pitch": 46, "duration": 10, "velocity": 120}, {"time": 42000, "pitch": 36, "duration": 10, "velocity": 110}, {"time": 42000, "pitch": 42, "duration": 10, "velocity": 110}, {"time": 42240, "pitch": 36, "duration": 10, "velocity": 110}, {"time": 42240, "pitch": 42, "duration": 10, "velocity": 110}, {"time": 42480, "pitch": 42, "duration": 10, "velocity": 110}, {"time": 42720, "pitch": 38, "duration": 10, "velocity": 105}, {"time": 42720, "pitch": 46, "duration": 10, "velocity": 120}, {"time": 42960, "pitch": 42, "duration": 10, "velocity": 110}, {"time": 43200, "pitch": 36, "duration": 10, "velocity": 110}, {"time": 43200, "pitch": 42, "duration": 10, "velocity": 110}, {"time": 43440, "pitch": 36, "duration": 10, "velocity": 110}, {"time": 43440, "pitch": 42, "duration": 10, "velocity": 110}, {"time": 43680, "pitch": 38, "duration": 10, "velocity": 105}, {"time": 43680, "pitch": 46, "duration": 10, "velocity": 120}, {"time": 43920, "pitch": 36, "duration": 10, "velocity": 110}, {"time": 43920, "pitch": 42, "duration": 10, "velocity": 110}, {"time": 44160, "pitch": 36, "duration": 10, "velocity": 110}, {"time": 44160, "pitch": 42, "duration": 10, "velocity": 110}, {"time": 44400, "pitch": 42, "duration": 10, "velocity": 110}, {"time": 44640, "pitch": 38, "duration": 10, "velocity": 105}, {"time": 44640, "pitch": 46, "duration": 10, "velocity": 120}, {"time": 44880, "pitch": 42, "duration": 10, "velocity": 110}, {"time": 45120, "pitch": 36, "duration": 10, "velocity": 110}, {"time": 45120, "pitch": 42, "duration": 10, "velocity": 110}, {"time": 45360, "pitch": 36, "duration": 10, "velocity": 110}, {"time": 45360, "pitch": 42, "duration": 10, "velocity": 110}, {"time": 45600, "pitch": 38, "duration": 10, "velocity": 105}, {"time": 45600, "pitch": 46, "duration": 10, "velocity": 120}, {"time": 45840, "pitch": 36, "duration": 10, "velocity": 110}, {"time": 45840, "pitch": 42, "duration": 10, "velocity": 110}, {"time": 46080, "pitch": 36, "duration": 10, "velocity": 110}, {"time": 46080, "pitch": 42, "duration": 10, "velocity": 110}, {"time": 46320, "pitch": 42, "duration": 10, "velocity": 110}, {"time": 46560, "pitch": 38, "duration": 10, "velocity": 105}, {"time": 46560, "pitch": 46, "duration": 10, "velocity": 120}, {"time": 46800, "pitch": 42, "duration": 10, "velocity": 110}, {"time": 47040, "pitch": 36, "duration": 10, "velocity": 110}, {"time": 47040, "pitch": 42, "duration": 10, "velocity": 110}, {"time": 47280, "pitch": 36, "duration": 10, "velocity": 110}, {"time": 47280, "pitch": 46, "duration": 10, "velocity": 120}, {"time": 47520, "pitch": 38, "duration": 10, "velocity": 105}, {"time": 47520, "pitch": 42, "duration": 10, "velocity": 110}, {"time": 47760, "pitch": 36, "duration": 10, "velocity": 110}, {"time": 47760, "pitch": 46, "duration": 10, "velocity": 120}, {"time": 48000, "pitch": 36, "duration": 10, "velocity": 110}, {"time": 48000, "pitch": 42, "duration": 10, "velocity": 110}, {"time": 48000, "pitch": 49, "duration": 10, "velocity": 120}, {"time": 48000, "pitch": 57, "duration": 10, "velocity": 120}, {"time": 48240, "pitch": 42, "duration": 10, "velocity": 110}, {"time": 48480, "pitch": 38, "duration": 10, "velocity": 105}, {"time": 48480, "pitch": 46, "duration": 10, "velocity": 120}, {"time": 48720, "pitch": 42, "duration": 10, "velocity": 110}, {"time": 48960, "pitch": 36, "duration": 10, "velocity": 110}, {"time": 48960, "pitch": 42, "duration": 10, "velocity": 110}, {"time": 49200, "pitch": 36, "duration": 10, "velocity": 110}, {"time": 49200, "pitch": 42, "duration": 10, "velocity": 110}, {"time": 49440, "pitch": 38, "duration": 10, "velocity": 105}, {"time": 49440, "pitch": 46, "duration": 10, "velocity": 120}, {"time": 49680, "pitch": 36, "duration": 10, "velocity": 110}, {"time": 49680, "pitch": 42, "duration": 10, "velocity": 110}, {"time": 49920, "pitch": 36, "duration": 10, "velocity": 110}, {"time": 49920, "pitch": 42, "duration": 10, "velocity": 110}, {"time": 50160, "pitch": 42, "duration": 10, "velocity": 110}, {"time": 50400, "pitch": 38, "duration": 10, "velocity": 105}, {"time": 50400, "pitch": 46, "duration": 10, "velocity": 120}, {"time": 50640, "pitch": 42, "duration": 10, "velocity": 110}, {"time": 50880, "pitch": 36, "duration": 10, "velocity": 110}, {"time": 50880, "pitch": 42, "duration": 10, "velocity": 110}, {"time": 51120, "pitch": 36, "duration": 10, "velocity": 110}, {"time": 51120, "pitch": 42, "duration": 10, "velocity": 110}, {"time": 51360, "pitch": 38, "duration": 10, "velocity": 105}, {"time": 51360, "pitch": 46, "duration": 10, "velocity": 120}, {"time": 51600, "pitch": 36, "duration": 10, "velocity": 110}, {"time": 51600, "pitch": 42, "duration": 10, "velocity": 110}, {"time": 51840, "pitch": 36, "duration": 10, "velocity": 110}, {"time": 51840, "pitch": 42, "duration": 10, "velocity": 110}, {"time": 51840, "pitch": 49, "duration": 10, "velocity": 120}, {"time": 51840, "pitch": 57, "duration": 10, "velocity": 120}, {"time": 52080, "pitch": 42, "duration": 10, "velocity": 110}, {"time": 52320, "pitch": 38, "duration": 10, "velocity": 105}, {"time": 52320, "pitch": 46, "duration": 10, "velocity": 120}, {"time": 52560, "pitch": 42, "duration": 10, "velocity": 110}, {"time": 52800, "pitch": 36, "duration": 10, "velocity": 110}, {"time": 52800, "pitch": 42, "duration": 10, "velocity": 110}, {"time": 53040, "pitch": 36, "duration": 10, "velocity": 110}, {"time": 53040, "pitch": 42, "duration": 10, "velocity": 110}, {"time": 53280, "pitch": 38, "duration": 10, "velocity": 105}, {"time": 53280, "pitch": 46, "duration": 10, "velocity": 120}, {"time": 53520, "pitch": 36, "duration": 10, "velocity": 110}, {"time": 53520, "pitch": 42, "duration": 10, "velocity": 110}, {"time": 53760, "pitch": 36, "duration": 10, "velocity": 110}, {"time": 53760, "pitch": 42, "duration": 10, "velocity": 110}, {"time": 54000, "pitch": 42, "duration": 10, "velocity": 110}, {"time": 54240, "pitch": 38, "duration": 10, "velocity": 105}, {"time": 54240, "pitch": 46, "duration": 10, "velocity": 120}, {"time": 54480, "pitch": 42, "duration": 10, "velocity": 110}, {"time": 54720, "pitch": 36, "duration": 10, "velocity": 110}, {"time": 54720, "pitch": 42, "duration": 10, "velocity": 110}, {"time": 54960, "pitch": 36, "duration": 10, "velocity": 110}, {"time": 54960, "pitch": 46, "duration": 10, "velocity": 120}, {"time": 55200, "pitch": 38, "duration": 10, "velocity": 105}, {"time": 55200, "pitch": 42, "duration": 10, "velocity": 110}, {"time": 55440, "pitch": 36, "duration": 10, "velocity": 110}, {"time": 55440, "pitch": 46, "duration": 10, "velocity": 120}, {"time": 55680, "pitch": 36, "duration": 10, "velocity": 110}, {"time": 55680, "pitch": 42, "duration": 10, "velocity": 110}, {"time": 55680, "pitch": 49, "duration": 10, "velocity": 120}, {"time": 55680, "pitch": 57, "duration": 10, "velocity": 120}, {"time": 55920, "pitch": 42, "duration": 10, "velocity": 110}, {"time": 56160, "pitch": 38, "duration": 10, "velocity": 105}, {"time": 56160, "pitch": 46, "duration": 10, "velocity": 120}, {"time": 56400, "pitch": 42, "duration": 10, "velocity": 110}, {"time": 56640, "pitch": 36, "duration": 10, "velocity": 110}, {"time": 56640, "pitch": 42, "duration": 10, "velocity": 110}, {"time": 56880, "pitch": 36, "duration": 10, "velocity": 110}, {"time": 56880, "pitch": 42, "duration": 10, "velocity": 110}, {"time": 57120, "pitch": 38, "duration": 10, "velocity": 105}, {"time": 57120, "pitch": 46, "duration": 10, "velocity": 120}, {"time": 57360, "pitch": 36, "duration": 10, "velocity": 110}, {"time": 57360, "pitch": 42, "duration": 10, "velocity": 110}, {"time": 57600, "pitch": 36, "duration": 10, "velocity": 110}, {"time": 57600, "pitch": 42, "duration": 10, "velocity": 110}, {"time": 57840, "pitch": 42, "duration": 10, "velocity": 110}, {"time": 58080, "pitch": 38, "duration": 10, "velocity": 105}, {"time": 58080, "pitch": 46, "duration": 10, "velocity": 120}, {"time": 58320, "pitch": 42, "duration": 10, "velocity": 110}, {"time": 58560, "pitch": 36, "duration": 10, "velocity": 110}, {"time": 58560, "pitch": 42, "duration": 10, "velocity": 110}, {"time": 58800, "pitch": 36, "duration": 10, "velocity": 110}, {"time": 58800, "pitch": 42, "duration": 10, "velocity": 110}, {"time": 59040, "pitch": 38, "duration": 10, "velocity": 105}, {"time": 59040, "pitch": 46, "duration": 10, "velocity": 120}, {"time": 59280, "pitch": 36, "duration": 10, "velocity": 110}, {"time": 59280, "pitch": 42, "duration": 10, "velocity": 110}, {"time": 59520, "pitch": 36, "duration": 10, "velocity": 110}, {"time": 59520, "pitch": 42, "duration": 10, "velocity": 110}, {"time": 59760, "pitch": 42, "duration": 10, "velocity": 110}, {"time": 60000, "pitch": 38, "duration": 10, "velocity": 105}, {"time": 60000, "pitch": 46, "duration": 10, "velocity": 120}, {"time": 60240, "pitch": 42, "duration": 10, "velocity": 110}, {"time": 60480, "pitch": 36, "duration": 10, "velocity": 110}, {"time": 60480, "pitch": 42, "duration": 10, "velocity": 110}, {"time": 60720, "pitch": 36, "duration": 10, "velocity": 110}, {"time": 60720, "pitch": 42, "duration": 10, "velocity": 110}, {"time": 60960, "pitch": 38, "duration": 10, "velocity": 105}, {"time": 60960, "pitch": 46, "duration": 10, "velocity": 120}, {"time": 61200, "pitch": 36, "duration": 10, "velocity": 110}, {"time": 61200, "pitch": 42, "duration": 10, "velocity": 110}, {"time": 61440, "pitch": 38, "duration": 10, "velocity": 105}, {"time": 61440, "pitch": 46, "duration": 10, "velocity": 120}, {"time": 61440, "pitch": 49, "duration": 10, "velocity": 102}, {"time": 61680, "pitch": 36, "duration": 10, "velocity": 110}, {"time": 61920, "pitch": 38, "duration": 10, "velocity": 105}, {"time": 61920, "pitch": 46, "duration": 10, "velocity": 120}, {"time": 62160, "pitch": 36, "duration": 10, "velocity": 110}, {"time": 62160, "pitch": 57, "duration": 10, "velocity": 104}, {"time": 62400, "pitch": 38, "duration": 10, "velocity": 105}, {"time": 62400, "pitch": 46, "duration": 10, "velocity": 120}, {"time": 62640, "pitch": 36, "duration": 10, "velocity": 110}, {"time": 62880, "pitch": 36, "duration": 10, "velocity": 110}, {"time": 62880, "pitch": 46, "duration": 10, "velocity": 120}, {"time": 62880, "pitch": 49, "duration": 10, "velocity": 102}, {"time": 63120, "pitch": 38, "duration": 10, "velocity": 105}, {"time": 63360, "pitch": 36, "duration": 10, "velocity": 110}, {"time": 63360, "pitch": 42, "duration": 10, "velocity": 110}, {"time": 63360, "pitch": 49, "duration": 10, "velocity": 120}, {"time": 63360, "pitch": 57, "duration": 10, "velocity": 120}, {"time": 63600, "pitch": 42, "duration": 10, "velocity": 110}, {"time": 63840, "pitch": 38, "duration": 10, "velocity": 105}, {"time": 63840, "pitch": 46, "duration": 10, "velocity": 120}, {"time": 64080, "pitch": 42, "duration": 10, "velocity": 110}, {"time": 64320, "pitch": 36, "duration": 10, "velocity": 110}, {"time": 64320, "pitch": 42, "duration": 10, "velocity": 110}, {"time": 64560, "pitch": 36, "duration": 10, "velocity": 110}, {"time": 64560, "pitch": 42, "duration": 10, "velocity": 110}, {"time": 64800, "pitch": 38, "duration": 10, "velocity": 105}, {"time": 64800, "pitch": 46, "duration": 10, "velocity": 120}, {"time": 65040, "pitch": 36, "duration": 10, "velocity": 110}, {"time": 65040, "pitch": 42, "duration": 10, "velocity": 110}, {"time": 65280, "pitch": 36, "duration": 10, "velocity": 110}, {"time": 65280, "pitch": 42, "duration": 10, "velocity": 110}, {"time": 65520, "pitch": 42, "duration": 10, "velocity": 110}, {"time": 65760, "pitch": 38, "duration": 10, "velocity": 105}, {"time": 65760, "pitch": 46, "duration": 10, "velocity": 120}, {"time": 66000, "pitch": 42, "duration": 10, "velocity": 110}, {"time": 66240, "pitch": 36, "duration": 10, "velocity": 110}, {"time": 66240, "pitch": 42, "duration": 10, "velocity": 110}, {"time": 66480, "pitch": 36, "duration": 10, "velocity": 110}, {"time": 66480, "pitch": 42, "duration": 10, "velocity": 110}, {"time": 66720, "pitch": 38, "duration": 10, "velocity": 105}, {"time": 66720, "pitch": 46, "duration": 10, "velocity": 120}, {"time": 66960, "pitch": 36, "duration": 10, "velocity": 110}, {"time": 66960, "pitch": 42, "duration": 10, "velocity": 110}, {"time": 67200, "pitch": 36, "duration": 10, "velocity": 110}, {"time": 67200, "pitch": 42, "duration": 10, "velocity": 110}, {"time": 67440, "pitch": 42, "duration": 10, "velocity": 110}, {"time": 67680, "pitch": 38, "duration": 10, "velocity": 105}, {"time": 67680, "pitch": 46, "duration": 10, "velocity": 120}, {"time": 67920, "pitch": 42, "duration": 10, "velocity": 110}, {"time": 68160, "pitch": 36, "duration": 10, "velocity": 110}, {"time": 68160, "pitch": 42, "duration": 10, "velocity": 110}, {"time": 68400, "pitch": 36, "duration": 10, "velocity": 110}, {"time": 68400, "pitch": 42, "duration": 10, "velocity": 110}, {"time": 68640, "pitch": 38, "duration": 10, "velocity": 105}, {"time": 68640, "pitch": 46, "duration": 10, "velocity": 120}, {"time": 68880, "pitch": 36, "duration": 10, "velocity": 110}, {"time": 68880, "pitch": 42, "duration": 10, "velocity": 110}, {"time": 69120, "pitch": 36, "duration": 10, "velocity": 110}, {"time": 69120, "pitch": 42, "duration": 10, "velocity": 110}, {"time": 69360, "pitch": 42, "duration": 10, "velocity": 110}, {"time": 69600, "pitch": 38, "duration": 10, "velocity": 105}, {"time": 69600, "pitch": 46, "duration": 10, "velocity": 120}, {"time": 69840, "pitch": 42, "duration": 10, "velocity": 110}, {"time": 70080, "pitch": 36, "duration": 10, "velocity": 110}, {"time": 70080, "pitch": 42, "duration": 10, "velocity": 110}, {"time": 70320, "pitch": 36, "duration": 10, "velocity": 110}, {"time": 70320, "pitch": 46, "duration": 10, "velocity": 120}, {"time": 70560, "pitch": 38, "duration": 10, "velocity": 105}, {"time": 70560, "pitch": 42, "duration": 10, "velocity": 110}, {"time": 70800, "pitch": 36, "duration": 10, "velocity": 110}, {"time": 70800, "pitch": 46, "duration": 10, "velocity": 120}, {"time": 71040, "pitch": 36, "duration": 10, "velocity": 110}, {"time": 71040, "pitch": 42, "duration": 10, "velocity": 110}, {"time": 71040, "pitch": 49, "duration": 10, "velocity": 120}, {"time": 71040, "pitch": 57, "duration": 10, "velocity": 120}, {"time": 71280, "pitch": 42, "duration": 10, "velocity": 110}, {"time": 71520, "pitch": 38, "duration": 10, "velocity": 105}, {"time": 71520, "pitch": 46, "duration": 10, "velocity": 120}, {"time": 71760, "pitch": 42, "duration": 10, "velocity": 110}, {"time": 72000, "pitch": 36, "duration": 10, "velocity": 110}, {"time": 72000, "pitch": 42, "duration": 10, "velocity": 110}, {"time": 72240, "pitch": 36, "duration": 10, "velocity": 110}, {"time": 72240, "pitch": 42, "duration": 10, "velocity": 110}, {"time": 72480, "pitch": 38, "duration": 10, "velocity": 105}, {"time": 72480, "pitch": 46, "duration": 10, "velocity": 120}, {"time": 72720, "pitch": 36, "duration": 10, "velocity": 110}, {"time": 72720, "pitch": 42, "duration": 10, "velocity": 110}, {"time": 72960, "pitch": 36, "duration": 10, "velocity": 110}, {"time": 72960, "pitch": 42, "duration": 10, "velocity": 110}, {"time": 73200, "pitch": 42, "duration": 10, "velocity": 110}, {"time": 73440, "pitch": 38, "duration": 10, "velocity": 105}, {"time": 73440, "pitch": 46, "duration": 10, "velocity": 120}, {"time": 73680, "pitch": 42, "duration": 10, "velocity": 110}, {"time": 73920, "pitch": 36, "duration": 10, "velocity": 110}, {"time": 73920, "pitch": 42, "duration": 10, "velocity": 110}, {"time": 74160, "pitch": 36, "duration": 10, "velocity": 110}, {"time": 74160, "pitch": 42, "duration": 10, "velocity": 110}, {"time": 74400, "pitch": 38, "duration": 10, "velocity": 105}, {"time": 74400, "pitch": 46, "duration": 10, "velocity": 120}, {"time": 74640, "pitch": 36, "duration": 10, "velocity": 110}, {"time": 74640, "pitch": 42, "duration": 10, "velocity": 110}, {"time": 74880, "pitch": 36, "duration": 10, "velocity": 110}, {"time": 74880, "pitch": 42, "duration": 10, "velocity": 110}, {"time": 75120, "pitch": 42, "duration": 10, "velocity": 110}, {"time": 75360, "pitch": 38, "duration": 10, "velocity": 105}, {"time": 75360, "pitch": 46, "duration": 10, "velocity": 120}, {"time": 75600, "pitch": 42, "duration": 10, "velocity": 110}, {"time": 75840, "pitch": 36, "duration": 10, "velocity": 110}, {"time": 75840, "pitch": 42, "duration": 10, "velocity": 110}, {"time": 76080, "pitch": 36, "duration": 10, "velocity": 110}, {"time": 76080, "pitch": 42, "duration": 10, "velocity": 110}, {"time": 76320, "pitch": 38, "duration": 10, "velocity": 105}, {"time": 76320, "pitch": 46, "duration": 10, "velocity": 120}, {"time": 76560, "pitch": 36, "duration": 10, "velocity": 110}, {"time": 76560, "pitch": 42, "duration": 10, "velocity": 110}, {"time": 76800, "pitch": 36, "duration": 10, "velocity": 110}, {"time": 76800, "pitch": 42, "duration": 10, "velocity": 110}, {"time": 77040, "pitch": 42, "duration": 10, "velocity": 110}, {"time": 77280, "pitch": 38, "duration": 10, "velocity": 105}, {"time": 77280, "pitch": 46, "duration": 10, "velocity": 120}, {"time": 77520, "pitch": 42, "duration": 10, "velocity": 110}, {"time": 77760, "pitch": 36, "duration": 10, "velocity": 110}, {"time": 77760, "pitch": 42, "duration": 10, "velocity": 110}, {"time": 78000, "pitch": 36, "duration": 10, "velocity": 110}, {"time": 78000, "pitch": 46, "duration": 10, "velocity": 120}, {"time": 78240, "pitch": 38, "duration": 10, "velocity": 105}, {"time": 78240, "pitch": 42, "duration": 10, "velocity": 110}, {"time": 78480, "pitch": 36, "duration": 10, "velocity": 110}, {"time": 78480, "pitch": 46, "duration": 10, "velocity": 120}, {"time": 78720, "pitch": 36, "duration": 10, "velocity": 110}, {"time": 78720, "pitch": 42, "duration": 10, "velocity": 110}, {"time": 78720, "pitch": 49, "duration": 10, "velocity": 120}, {"time": 78720, "pitch": 57, "duration": 10, "velocity": 120}, {"time": 78960, "pitch": 42, "duration": 10, "velocity": 110}, {"time": 79200, "pitch": 38, "duration": 10, "velocity": 105}, {"time": 79200, "pitch": 46, "duration": 10, "velocity": 120}, {"time": 79440, "pitch": 42, "duration": 10, "velocity": 110}, {"time": 79680, "pitch": 36, "duration": 10, "velocity": 110}, {"time": 79680, "pitch": 42, "duration": 10, "velocity": 110}, {"time": 79920, "pitch": 36, "duration": 10, "velocity": 110}, {"time": 79920, "pitch": 42, "duration": 10, "velocity": 110}, {"time": 80160, "pitch": 38, "duration": 10, "velocity": 105}, {"time": 80160, "pitch": 46, "duration": 10, "velocity": 120}, {"time": 80400, "pitch": 36, "duration": 10, "velocity": 110}, {"time": 80400, "pitch": 42, "duration": 10, "velocity": 110}, {"time": 80640, "pitch": 36, "duration": 10, "velocity": 110}, {"time": 80640, "pitch": 42, "duration": 10, "velocity": 110}, {"time": 80880, "pitch": 42, "duration": 10, "velocity": 110}, {"time": 81120, "pitch": 38, "duration": 10, "velocity": 105}, {"time": 81120, "pitch": 46, "duration": 10, "velocity": 120}, {"time": 81360, "pitch": 42, "duration": 10, "velocity": 110}, {"time": 81600, "pitch": 36, "duration": 10, "velocity": 110}, {"time": 81600, "pitch": 42, "duration": 10, "velocity": 110}, {"time": 81840, "pitch": 36, "duration": 10, "velocity": 110}, {"time": 81840, "pitch": 42, "duration": 10, "velocity": 110}, {"time": 82080, "pitch": 38, "duration": 10, "velocity": 105}, {"time": 82080, "pitch": 46, "duration": 10, "velocity": 120}, {"time": 82320, "pitch": 36, "duration": 10, "velocity": 110}, {"time": 82320, "pitch": 42, "duration": 10, "velocity": 110}, {"time": 82560, "pitch": 36, "duration": 10, "velocity": 110}, {"time": 82560, "pitch": 42, "duration": 10, "velocity": 110}, {"time": 82560, "pitch": 49, "duration": 10, "velocity": 120}, {"time": 82560, "pitch": 57, "duration": 10, "velocity": 120}, {"time": 82800, "pitch": 42, "duration": 10, "velocity": 110}, {"time": 83040, "pitch": 38, "duration": 10, "velocity": 105}, {"time": 83040, "pitch": 46, "duration": 10, "velocity": 120}, {"time": 83280, "pitch": 42, "duration": 10, "velocity": 110}, {"time": 83520, "pitch": 36, "duration": 10, "velocity": 110}, {"time": 83520, "pitch": 42, "duration": 10, "velocity": 110}, {"time": 83760, "pitch": 36, "duration": 10, "velocity": 110}, {"time": 83760, "pitch": 42, "duration": 10, "velocity": 110}, {"time": 84000, "pitch": 38, "duration": 10, "velocity": 105}, {"time": 84000, "pitch": 46, "duration": 10, "velocity": 120}, {"time": 84240, "pitch": 36, "duration": 10, "velocity": 110}, {"time": 84240, "pitch": 42, "duration": 10, "velocity": 110}, {"time": 84480, "pitch": 36, "duration": 10, "velocity": 110}, {"time": 84480, "pitch": 42, "duration": 10, "velocity": 110}, {"time": 84720, "pitch": 42, "duration": 10, "velocity": 110}, {"time": 84960, "pitch": 38, "duration": 10, "velocity": 105}, {"time": 84960, "pitch": 46, "duration": 10, "velocity": 120}, {"time": 85200, "pitch": 42, "duration": 10, "velocity": 110}, {"time": 85440, "pitch": 36, "duration": 10, "velocity": 110}, {"time": 85440, "pitch": 42, "duration": 10, "velocity": 110}, {"time": 85680, "pitch": 36, "duration": 10, "velocity": 110}, {"time": 85680, "pitch": 46, "duration": 10, "velocity": 120}, {"time": 85920, "pitch": 38, "duration": 10, "velocity": 105}, {"time": 85920, "pitch": 42, "duration": 10, "velocity": 110}, {"time": 86160, "pitch": 36, "duration": 10, "velocity": 110}, {"time": 86160, "pitch": 46, "duration": 10, "velocity": 120}, {"time": 86400, "pitch": 36, "duration": 10, "velocity": 110}, {"time": 86400, "pitch": 42, "duration": 10, "velocity": 110}, {"time": 86400, "pitch": 49, "duration": 10, "velocity": 120}, {"time": 86400, "pitch": 57, "duration": 10, "velocity": 120}, {"time": 86640, "pitch": 42, "duration": 10, "velocity": 110}, {"time": 86880, "pitch": 38, "duration": 10, "velocity": 105}, {"time": 86880, "pitch": 46, "duration": 10, "velocity": 120}, {"time": 87120, "pitch": 42, "duration": 10, "velocity": 110}, {"time": 87360, "pitch": 36, "duration": 10, "velocity": 110}, {"time": 87360, "pitch": 42, "duration": 10, "velocity": 110}, {"time": 87600, "pitch": 36, "duration": 10, "velocity": 110}, {"time": 87600, "pitch": 42, "duration": 10, "velocity": 110}, {"time": 87840, "pitch": 38, "duration": 10, "velocity": 105}, {"time": 87840, "pitch": 46, "duration": 10, "velocity": 120}, {"time": 88080, "pitch": 36, "duration": 10, "velocity": 110}, {"time": 88080, "pitch": 42, "duration": 10, "velocity": 110}, {"time": 88320, "pitch": 36, "duration": 10, "velocity": 110}, {"time": 88320, "pitch": 42, "duration": 10, "velocity": 110}, {"time": 88560, "pitch": 42, "duration": 10, "velocity": 110}, {"time": 88800, "pitch": 38, "duration": 10, "velocity": 105}, {"time": 88800, "pitch": 46, "duration": 10, "velocity": 120}, {"time": 89040, "pitch": 42, "duration": 10, "velocity": 110}, {"time": 89280, "pitch": 36, "duration": 10, "velocity": 110}, {"time": 89280, "pitch": 42, "duration": 10, "velocity": 110}, {"time": 89520, "pitch": 36, "duration": 10, "velocity": 110}, {"time": 89520, "pitch": 42, "duration": 10, "velocity": 110}, {"time": 89760, "pitch": 38, "duration": 10, "velocity": 105}, {"time": 89760, "pitch": 46, "duration": 10, "velocity": 120}, {"time": 90000, "pitch": 36, "duration": 10, "velocity": 110}, {"time": 90000, "pitch": 42, "duration": 10, "velocity": 110}, {"time": 90240, "pitch": 36, "duration": 10, "velocity": 110}, {"time": 90240, "pitch": 42, "duration": 10, "velocity": 110}, {"time": 90480, "pitch": 42, "duration": 10, "velocity": 110}, {"time": 90720, "pitch": 38, "duration": 10, "velocity": 105}, {"time": 90720, "pitch": 46, "duration": 10, "velocity": 120}, {"time": 90960, "pitch": 42, "duration": 10, "velocity": 110}, {"time": 91200, "pitch": 36, "duration": 10, "velocity": 110}, {"time": 91200, "pitch": 42, "duration": 10, "velocity": 110}, {"time": 91440, "pitch": 36, "duration": 10, "velocity": 110}, {"time": 91440, "pitch": 42, "duration": 10, "velocity": 110}, {"time": 91680, "pitch": 38, "duration": 10, "velocity": 105}, {"time": 91680, "pitch": 46, "duration": 10, "velocity": 120}, {"time": 91920, "pitch": 36, "duration": 10, "velocity": 110}, {"time": 91920, "pitch": 42, "duration": 10, "velocity": 110}, {"time": 92160, "pitch": 38, "duration": 10, "velocity": 105}, {"time": 92160, "pitch": 46, "duration": 10, "velocity": 120}, {"time": 92160, "pitch": 49, "duration": 10, "velocity": 102}, {"time": 92400, "pitch": 36, "duration": 10, "velocity": 110}, {"time": 92640, "pitch": 38, "duration": 10, "velocity": 105}, {"time": 92640, "pitch": 46, "duration": 10, "velocity": 120}, {"time": 92880, "pitch": 36, "duration": 10, "velocity": 110}, {"time": 92880, "pitch": 57, "duration": 10, "velocity": 104}, {"time": 93120, "pitch": 38, "duration": 10, "velocity": 105}, {"time": 93120, "pitch": 46, "duration": 10, "velocity": 120}, {"time": 93360, "pitch": 36, "duration": 10, "velocity": 110}, {"time": 93600, "pitch": 36, "duration": 10, "velocity": 110}, {"time": 93600, "pitch": 46, "duration": 10, "velocity": 120}, {"time": 93600, "pitch": 49, "duration": 10, "velocity": 102}, {"time": 93840, "pitch": 38, "duration": 10, "velocity": 105}, {"time": 94080, "pitch": 36, "duration": 10, "velocity": 110}, {"time": 94080, "pitch": 42, "duration": 10, "velocity": 110}, {"time": 94080, "pitch": 49, "duration": 10, "velocity": 120}, {"time": 94080, "pitch": 57, "duration": 10, "velocity": 120}, {"time": 94320, "pitch": 42, "duration": 10, "velocity": 110}, {"time": 94560, "pitch": 38, "duration": 10, "velocity": 105}, {"time": 94560, "pitch": 46, "duration": 10, "velocity": 120}, {"time": 94800, "pitch": 42, "duration": 10, "velocity": 110}, {"time": 95040, "pitch": 36, "duration": 10, "velocity": 110}, {"time": 95040, "pitch": 42, "duration": 10, "velocity": 110}, {"time": 95280, "pitch": 36, "duration": 10, "velocity": 110}, {"time": 95280, "pitch": 42, "duration": 10, "velocity": 110}, {"time": 95520, "pitch": 38, "duration": 10, "velocity": 105}, {"time": 95520, "pitch": 46, "duration": 10, "velocity": 120}, {"time": 95760, "pitch": 36, "duration": 10, "velocity": 110}, {"time": 95760, "pitch": 42, "duration": 10, "velocity": 110}, {"time": 96000, "pitch": 36, "duration": 10, "velocity": 110}, {"time": 96000, "pitch": 42, "duration": 10, "velocity": 110}, {"time": 96240, "pitch": 42, "duration": 10, "velocity": 110}, {"time": 96480, "pitch": 38, "duration": 10, "velocity": 105}, {"time": 96480, "pitch": 46, "duration": 10, "velocity": 120}, {"time": 96720, "pitch": 42, "duration": 10, "velocity": 110}, {"time": 96960, "pitch": 36, "duration": 10, "velocity": 110}, {"time": 96960, "pitch": 42, "duration": 10, "velocity": 110}, {"time": 97200, "pitch": 36, "duration": 10, "velocity": 110}, {"time": 97200, "pitch": 42, "duration": 10, "velocity": 110}, {"time": 97440, "pitch": 38, "duration": 10, "velocity": 105}, {"time": 97440, "pitch": 46, "duration": 10, "velocity": 120}, {"time": 97680, "pitch": 36, "duration": 10, "velocity": 110}, {"time": 97680, "pitch": 42, "duration": 10, "velocity": 110}, {"time": 97920, "pitch": 36, "duration": 10, "velocity": 110}, {"time": 97920, "pitch": 42, "duration": 10, "velocity": 110}, {"time": 98160, "pitch": 42, "duration": 10, "velocity": 110}, {"time": 98400, "pitch": 38, "duration": 10, "velocity": 105}, {"time": 98400, "pitch": 46, "duration": 10, "velocity": 120}, {"time": 98640, "pitch": 42, "duration": 10, "velocity": 110}, {"time": 98880, "pitch": 36, "duration": 10, "velocity": 110}, {"time": 98880, "pitch": 42, "duration": 10, "velocity": 110}, {"time": 99120, "pitch": 36, "duration": 10, "velocity": 110}, {"time": 99120, "pitch": 42, "duration": 10, "velocity": 110}, {"time": 99360, "pitch": 38, "duration": 10, "velocity": 105}, {"time": 99360, "pitch": 46, "duration": 10, "velocity": 120}, {"time": 99600, "pitch": 36, "duration": 10, "velocity": 110}, {"time": 99600, "pitch": 42, "duration": 10, "velocity": 110}, {"time": 99840, "pitch": 36, "duration": 10, "velocity": 110}, {"time": 99840, "pitch": 42, "duration": 10, "velocity": 110}, {"time": 100080, "pitch": 42, "duration": 10, "velocity": 110}, {"time": 100320, "pitch": 38, "duration": 10, "velocity": 105}, {"time": 100320, "pitch": 46, "duration": 10, "velocity": 120}, {"time": 100560, "pitch": 42, "duration": 10, "velocity": 110}, {"time": 100800, "pitch": 36, "duration": 10, "velocity": 110}, {"time": 100800, "pitch": 42, "duration": 10, "velocity": 110}, {"time": 101040, "pitch": 36, "duration": 10, "velocity": 110}, {"time": 101040, "pitch": 46, "duration": 10, "velocity": 120}, {"time": 101280, "pitch": 38, "duration": 10, "velocity": 105}, {"time": 101280, "pitch": 42, "duration": 10, "velocity": 110}, {"time": 101520, "pitch": 36, "duration": 10, "velocity": 110}, {"time": 101520, "pitch": 46, "duration": 10, "velocity": 120}, {"time": 101760, "pitch": 36, "duration": 10, "velocity": 110}, {"time": 101760, "pitch": 42, "duration": 10, "velocity": 110}, {"time": 101760, "pitch": 49, "duration": 10, "velocity": 120}, {"time": 101760, "pitch": 57, "duration": 10, "velocity": 120}, {"time": 102000, "pitch": 42, "duration": 10, "velocity": 110}, {"time": 102240, "pitch": 38, "duration": 10, "velocity": 105}, {"time": 102240, "pitch": 46, "duration": 10, "velocity": 120}, {"time": 102480, "pitch": 42, "duration": 10, "velocity": 110}, {"time": 102720, "pitch": 36, "duration": 10, "velocity": 110}, {"time": 102720, "pitch": 42, "duration": 10, "velocity": 110}, {"time": 102960, "pitch": 36, "duration": 10, "velocity": 110}, {"time": 102960, "pitch": 42, "duration": 10, "velocity": 110}, {"time": 103200, "pitch": 38, "duration": 10, "velocity": 105}, {"time": 103200, "pitch": 46, "duration": 10, "velocity": 120}, {"time": 103440, "pitch": 36, "duration": 10, "velocity": 110}, {"time": 103440, "pitch": 42, "duration": 10, "velocity": 110}, {"time": 103680, "pitch": 36, "duration": 10, "velocity": 110}, {"time": 103680, "pitch": 42, "duration": 10, "velocity": 110}, {"time": 103920, "pitch": 42, "duration": 10, "velocity": 110}, {"time": 104160, "pitch": 38, "duration": 10, "velocity": 105}, {"time": 104160, "pitch": 46, "duration": 10, "velocity": 120}, {"time": 104400, "pitch": 42, "duration": 10, "velocity": 110}, {"time": 104640, "pitch": 36, "duration": 10, "velocity": 110}, {"time": 104640, "pitch": 42, "duration": 10, "velocity": 110}, {"time": 104880, "pitch": 36, "duration": 10, "velocity": 110}, {"time": 104880, "pitch": 42, "duration": 10, "velocity": 110}, {"time": 105120, "pitch": 38, "duration": 10, "velocity": 105}, {"time": 105120, "pitch": 46, "duration": 10, "velocity": 120}, {"time": 105360, "pitch": 36, "duration": 10, "velocity": 110}, {"time": 105360, "pitch": 42, "duration": 10, "velocity": 110}, {"time": 105600, "pitch": 36, "duration": 10, "velocity": 110}, {"time": 105600, "pitch": 42, "duration": 10, "velocity": 110}, {"time": 105840, "pitch": 42, "duration": 10, "velocity": 110}, {"time": 106080, "pitch": 38, "duration": 10, "velocity": 105}, {"time": 106080, "pitch": 46, "duration": 10, "velocity": 120}, {"time": 106320, "pitch": 42, "duration": 10, "velocity": 110}, {"time": 106560, "pitch": 36, "duration": 10, "velocity": 110}, {"time": 106560, "pitch": 42, "duration": 10, "velocity": 110}, {"time": 106800, "pitch": 36, "duration": 10, "velocity": 110}, {"time": 106800, "pitch": 42, "duration": 10, "velocity": 110}, {"time": 107040, "pitch": 38, "duration": 10, "velocity": 105}, {"time": 107040, "pitch": 46, "duration": 10, "velocity": 120}, {"time": 107280, "pitch": 36, "duration": 10, "velocity": 110}, {"time": 107280, "pitch": 42, "duration": 10, "velocity": 110}, {"time": 107520, "pitch": 36, "duration": 10, "velocity": 110}, {"time": 107520, "pitch": 42, "duration": 10, "velocity": 110}, {"time": 107760, "pitch": 42, "duration": 10, "velocity": 110}, {"time": 108000, "pitch": 38, "duration": 10, "velocity": 105}, {"time": 108000, "pitch": 46, "duration": 10, "velocity": 120}, {"time": 108240, "pitch": 42, "duration": 10, "velocity": 110}, {"time": 108480, "pitch": 36, "duration": 10, "velocity": 110}, {"time": 108480, "pitch": 42, "duration": 10, "velocity": 110}, {"time": 108720, "pitch": 36, "duration": 10, "velocity": 110}, {"time": 108720, "pitch": 46, "duration": 10, "velocity": 120}, {"time": 108960, "pitch": 38, "duration": 10, "velocity": 105}, {"time": 108960, "pitch": 42, "duration": 10, "velocity": 110}, {"time": 109200, "pitch": 36, "duration": 10, "velocity": 110}, {"time": 109200, "pitch": 46, "duration": 10, "velocity": 120}, {"time": 109440, "pitch": 36, "duration": 10, "velocity": 110}, {"time": 109440, "pitch": 42, "duration": 10, "velocity": 110}, {"time": 109440, "pitch": 49, "duration": 10, "velocity": 120}, {"time": 109440, "pitch": 57, "duration": 10, "velocity": 120}, {"time": 109680, "pitch": 42, "duration": 10, "velocity": 110}, {"time": 109920, "pitch": 38, "duration": 10, "velocity": 105}, {"time": 109920, "pitch": 46, "duration": 10, "velocity": 120}, {"time": 110160, "pitch": 42, "duration": 10, "velocity": 110}, {"time": 110400, "pitch": 36, "duration": 10, "velocity": 110}, {"time": 110400, "pitch": 42, "duration": 10, "velocity": 110}, {"time": 110640, "pitch": 36, "duration": 10, "velocity": 110}, {"time": 110640, "pitch": 42, "duration": 10, "velocity": 110}, {"time": 110880, "pitch": 38, "duration": 10, "velocity": 105}, {"time": 110880, "pitch": 46, "duration": 10, "velocity": 120}, {"time": 111120, "pitch": 36, "duration": 10, "velocity": 110}, {"time": 111120, "pitch": 42, "duration": 10, "velocity": 110}, {"time": 111360, "pitch": 36, "duration": 10, "velocity": 110}, {"time": 111360, "pitch": 42, "duration": 10, "velocity": 110}, {"time": 111600, "pitch": 42, "duration": 10, "velocity": 110}, {"time": 111840, "pitch": 38, "duration": 10, "velocity": 105}, {"time": 111840, "pitch": 46, "duration": 10, "velocity": 120}, {"time": 112080, "pitch": 42, "duration": 10, "velocity": 110}, {"time": 112320, "pitch": 36, "duration": 10, "velocity": 110}, {"time": 112320, "pitch": 42, "duration": 10, "velocity": 110}, {"time": 112560, "pitch": 36, "duration": 10, "velocity": 110}, {"time": 112560, "pitch": 42, "duration": 10, "velocity": 110}, {"time": 112800, "pitch": 38, "duration": 10, "velocity": 105}, {"time": 112800, "pitch": 46, "duration": 10, "velocity": 120}, {"time": 113040, "pitch": 36, "duration": 10, "velocity": 110}, {"time": 113040, "pitch": 42, "duration": 10, "velocity": 110}, {"time": 113280, "pitch": 36, "duration": 10, "velocity": 110}, {"time": 113280, "pitch": 42, "duration": 10, "velocity": 110}, {"time": 113520, "pitch": 42, "duration": 10, "velocity": 110}, {"time": 113760, "pitch": 38, "duration": 10, "velocity": 105}, {"time": 113760, "pitch": 46, "duration": 10, "velocity": 120}, {"time": 114000, "pitch": 42, "duration": 10, "velocity": 110}, {"time": 114240, "pitch": 36, "duration": 10, "velocity": 110}, {"time": 114240, "pitch": 42, "duration": 10, "velocity": 110}, {"time": 114480, "pitch": 36, "duration": 10, "velocity": 110}, {"time": 114480, "pitch": 42, "duration": 10, "velocity": 110}, {"time": 114720, "pitch": 38, "duration": 10, "velocity": 105}, {"time": 114720, "pitch": 46, "duration": 10, "velocity": 120}, {"time": 114960, "pitch": 36, "duration": 10, "velocity": 110}, {"time": 114960, "pitch": 42, "duration": 10, "velocity": 110}, {"time": 115200, "pitch": 36, "duration": 10, "velocity": 110}, {"time": 115200, "pitch": 42, "duration": 10, "velocity": 110}, {"time": 115440, "pitch": 42, "duration": 10, "velocity": 110}, {"time": 115680, "pitch": 38, "duration": 10, "velocity": 105}, {"time": 115680, "pitch": 46, "duration": 10, "velocity": 120}, {"time": 115920, "pitch": 42, "duration": 10, "velocity": 110}, {"time": 116160, "pitch": 36, "duration": 10, "velocity": 110}, {"time": 116160, "pitch": 42, "duration": 10, "velocity": 110}, {"time": 116400, "pitch": 36, "duration": 10, "velocity": 110}, {"time": 116400, "pitch": 46, "duration": 10, "velocity": 120}, {"time": 116640, "pitch": 38, "duration": 10, "velocity": 105}, {"time": 116640, "pitch": 42, "duration": 10, "velocity": 110}, {"time": 116880, "pitch": 36, "duration": 10, "velocity": 110}, {"time": 116880, "pitch": 46, "duration": 10, "velocity": 120}, {"time": 117120, "pitch": 36, "duration": 10, "velocity": 110}, {"time": 117120, "pitch": 42, "duration": 10, "velocity": 110}, {"time": 117120, "pitch": 49, "duration": 10, "velocity": 120}, {"time": 117120, "pitch": 57, "duration": 10, "velocity": 120}, {"time": 117360, "pitch": 42, "duration": 10, "velocity": 110}, {"time": 117600, "pitch": 38, "duration": 10, "velocity": 105}, {"time": 117600, "pitch": 46, "duration": 10, "velocity": 120}, {"time": 117840, "pitch": 42, "duration": 10, "velocity": 110}, {"time": 118080, "pitch": 36, "duration": 10, "velocity": 110}, {"time": 118080, "pitch": 42, "duration": 10, "velocity": 110}, {"time": 118320, "pitch": 36, "duration": 10, "velocity": 110}, {"time": 118320, "pitch": 42, "duration": 10, "velocity": 110}, {"time": 118560, "pitch": 38, "duration": 10, "velocity": 105}, {"time": 118560, "pitch": 46, "duration": 10, "velocity": 120}, {"time": 118800, "pitch": 36, "duration": 10, "velocity": 110}, {"time": 118800, "pitch": 42, "duration": 10, "velocity": 110}, {"time": 119040, "pitch": 36, "duration": 10, "velocity": 110}, {"time": 119040, "pitch": 42, "duration": 10, "velocity": 110}, {"time": 119040, "pitch": 49, "duration": 10, "velocity": 120}, {"time": 119040, "pitch": 57, "duration": 10, "velocity": 120}, {"time": 119280, "pitch": 42, "duration": 10, "velocity": 110}, {"time": 119520, "pitch": 38, "duration": 10, "velocity": 105}, {"time": 119520, "pitch": 46, "duration": 10, "velocity": 120}, {"time": 119760, "pitch": 42, "duration": 10, "velocity": 110}, {"time": 120000, "pitch": 36, "duration": 10, "velocity": 110}, {"time": 120000, "pitch": 42, "duration": 10, "velocity": 110}, {"time": 120240, "pitch": 36, "duration": 10, "velocity": 110}, {"time": 120240, "pitch": 42, "duration": 10, "velocity": 110}, {"time": 120480, "pitch": 38, "duration": 10, "velocity": 105}, {"time": 120480, "pitch": 46, "duration": 10, "velocity": 120}, {"time": 120720, "pitch": 36, "duration": 10, "velocity": 110}, {"time": 120720, "pitch": 42, "duration": 10, "velocity": 110}, {"time": 120960, "pitch": 36, "duration": 10, "velocity": 110}, {"time": 120960, "pitch": 42, "duration": 10, "velocity": 110}, {"time": 120960, "pitch": 49, "duration": 10, "velocity": 120}, {"time": 120960, "pitch": 57, "duration": 10, "velocity": 120}, {"time": 121200, "pitch": 42, "duration": 10, "velocity": 110}, {"time": 121440, "pitch": 38, "duration": 10, "velocity": 105}, {"time": 121440, "pitch": 46, "duration": 10, "velocity": 120}, {"time": 121680, "pitch": 42, "duration": 10, "velocity": 110}, {"time": 121920, "pitch": 36, "duration": 10, "velocity": 110}, {"time": 121920, "pitch": 42, "duration": 10, "velocity": 110}, {"time": 122160, "pitch": 36, "duration": 10, "velocity": 110}, {"time": 122160, "pitch": 42, "duration": 10, "velocity": 110}, {"time": 122400, "pitch": 38, "duration": 10, "velocity": 105}, {"time": 122400, "pitch": 46, "duration": 10, "velocity": 120}, {"time": 122640, "pitch": 36, "duration": 10, "velocity": 110}, {"time": 122640, "pitch": 42, "duration": 10, "velocity": 110}, {"time": 122880, "pitch": 36, "duration": 10, "velocity": 110}, {"time": 122880, "pitch": 42, "duration": 10, "velocity": 110}, {"time": 122880, "pitch": 49, "duration": 10, "velocity": 120}, {"time": 122880, "pitch": 57, "duration": 10, "velocity": 120}, {"time": 123120, "pitch": 42, "duration": 10, "velocity": 110}, {"time": 123360, "pitch": 38, "duration": 10, "velocity": 105}, {"time": 123360, "pitch": 46, "duration": 10, "velocity": 120}, {"time": 123600, "pitch": 42, "duration": 10, "velocity": 110}, {"time": 123840, "pitch": 36, "duration": 10, "velocity": 110}, {"time": 123840, "pitch": 42, "duration": 10, "velocity": 110}, {"time": 124080, "pitch": 36, "duration": 10, "velocity": 110}, {"time": 124080, "pitch": 46, "duration": 10, "velocity": 120}, {"time": 124320, "pitch": 38, "duration": 10, "velocity": 105}, {"time": 124320, "pitch": 42, "duration": 10, "velocity": 110}, {"time": 124560, "pitch": 36, "duration": 10, "velocity": 110}, {"time": 124560, "pitch": 46, "duration": 10, "velocity": 120}, {"time": 124800, "pitch": 36, "duration": 10, "velocity": 110}, {"time": 124800, "pitch": 42, "duration": 10, "velocity": 110}, {"time": 124800, "pitch": 49, "duration": 10, "velocity": 120}, {"time": 124800, "pitch": 57, "duration": 10, "velocity": 120}, {"time": 125040, "pitch": 42, "duration": 10, "velocity": 110}, {"time": 125280, "pitch": 38, "duration": 10, "velocity": 105}, {"time": 125280, "pitch": 46, "duration": 10, "velocity": 120}, {"time": 125520, "pitch": 42, "duration": 10, "velocity": 110}, {"time": 125760, "pitch": 36, "duration": 10, "velocity": 110}, {"time": 125760, "pitch": 42, "duration": 10, "velocity": 110}, {"time": 126000, "pitch": 36, "duration": 10, "velocity": 110}, {"time": 126000, "pitch": 42, "duration": 10, "velocity": 110}, {"time": 126240, "pitch": 38, "duration": 10, "velocity": 105}, {"time": 126240, "pitch": 46, "duration": 10, "velocity": 120}, {"time": 126480, "pitch": 36, "duration": 10, "velocity": 110}, {"time": 126480, "pitch": 42, "duration": 10, "velocity": 110}, {"time": 126720, "pitch": 36, "duration": 10, "velocity": 110}, {"time": 126720, "pitch": 42, "duration": 10, "velocity": 110}, {"time": 126720, "pitch": 49, "duration": 10, "velocity": 120}, {"time": 126720, "pitch": 57, "duration": 10, "velocity": 120}, {"time": 126960, "pitch": 42, "duration": 10, "velocity": 110}, {"time": 127200, "pitch": 38, "duration": 10, "velocity": 105}, {"time": 127200, "pitch": 46, "duration": 10, "velocity": 120}, {"time": 127440, "pitch": 42, "duration": 10, "velocity": 110}, {"time": 127680, "pitch": 36, "duration": 10, "velocity": 110}, {"time": 127680, "pitch": 42, "duration": 10, "velocity": 110}, {"time": 127920, "pitch": 36, "duration": 10, "velocity": 110}, {"time": 127920, "pitch": 42, "duration": 10, "velocity": 110}, {"time": 128160, "pitch": 38, "duration": 10, "velocity": 105}, {"time": 128160, "pitch": 46, "duration": 10, "velocity": 120}, {"time": 128400, "pitch": 36, "duration": 10, "velocity": 110}, {"time": 128400, "pitch": 42, "duration": 10, "velocity": 110}, {"time": 128640, "pitch": 36, "duration": 10, "velocity": 110}, {"time": 128640, "pitch": 42, "duration": 10, "velocity": 110}, {"time": 128640, "pitch": 49, "duration": 10, "velocity": 120}, {"time": 128640, "pitch": 57, "duration": 10, "velocity": 120}, {"time": 128880, "pitch": 42, "duration": 10, "velocity": 110}, {"time": 129120, "pitch": 38, "duration": 10, "velocity": 105}, {"time": 129120, "pitch": 46, "duration": 10, "velocity": 120}, {"time": 129360, "pitch": 42, "duration": 10, "velocity": 110}, {"time": 129600, "pitch": 36, "duration": 10, "velocity": 110}, {"time": 129600, "pitch": 42, "duration": 10, "velocity": 110}, {"time": 129840, "pitch": 36, "duration": 10, "velocity": 110}, {"time": 129840, "pitch": 42, "duration": 10, "velocity": 110}, {"time": 130080, "pitch": 38, "duration": 10, "velocity": 105}, {"time": 130080, "pitch": 46, "duration": 10, "velocity": 120}, {"time": 130320, "pitch": 36, "duration": 10, "velocity": 110}, {"time": 130320, "pitch": 42, "duration": 10, "velocity": 110}, {"time": 130560, "pitch": 36, "duration": 10, "velocity": 110}, {"time": 130560, "pitch": 42, "duration": 10, "velocity": 110}, {"time": 130800, "pitch": 42, "duration": 10, "velocity": 110}, {"time": 131040, "pitch": 38, "duration": 10, "velocity": 105}, {"time": 131040, "pitch": 46, "duration": 10, "velocity": 120}, {"time": 131280, "pitch": 42, "duration": 10, "velocity": 110}, {"time": 131520, "pitch": 36, "duration": 10, "velocity": 110}, {"time": 131520, "pitch": 42, "duration": 10, "velocity": 110}, {"time": 131760, "pitch": 36, "duration": 10, "velocity": 110}, {"time": 131760, "pitch": 46, "duration": 10, "velocity": 120}, {"time": 132000, "pitch": 38, "duration": 10, "velocity": 105}, {"time": 132000, "pitch": 42, "duration": 10, "velocity": 110}, {"time": 132240, "pitch": 36, "duration": 10, "velocity": 110}, {"time": 132240, "pitch": 46, "duration": 10, "velocity": 120}, {"time": 132480, "pitch": 38, "duration": 10, "velocity": 105}, {"time": 132480, "pitch": 46, "duration": 10, "velocity": 120}, {"time": 132720, "pitch": 36, "duration": 10, "velocity": 110}, {"time": 132960, "pitch": 38, "duration": 10, "velocity": 105}, {"time": 132960, "pitch": 46, "duration": 10, "velocity": 120}, {"time": 133200, "pitch": 36, "duration": 10, "velocity": 110}, {"time": 133440, "pitch": 38, "duration": 10, "velocity": 105}, {"time": 133440, "pitch": 46, "duration": 10, "velocity": 120}, {"time": 133680, "pitch": 36, "duration": 10, "velocity": 110}, {"time": 133920, "pitch": 36, "duration": 10, "velocity": 110}, {"time": 133920, "pitch": 46, "duration": 10, "velocity": 120}, {"time": 134160, "pitch": 38, "duration": 10, "velocity": 105}, {"time": 134400, "pitch": 38, "duration": 10, "velocity": 105}, {"time": 134400, "pitch": 46, "duration": 10, "velocity": 120}, {"time": 134640, "pitch": 36, "duration": 10, "velocity": 110}, {"time": 134880, "pitch": 38, "duration": 10, "velocity": 105}, {"time": 134880, "pitch": 46, "duration": 10, "velocity": 120}, {"time": 135120, "pitch": 36, "duration": 10, "velocity": 110}, {"time": 135360, "pitch": 38, "duration": 10, "velocity": 105}, {"time": 135360, "pitch": 46, "duration": 10, "velocity": 120}, {"time": 135600, "pitch": 36, "duration": 10, "velocity": 110}, {"time": 135840, "pitch": 36, "duration": 10, "velocity": 110}, {"time": 135840, "pitch": 46, "duration": 10, "velocity": 120}, {"time": 136080, "pitch": 38, "duration": 10, "velocity": 105}, {"time": 136320, "pitch": 36, "duration": 10, "velocity": 110}, {"time": 136320, "pitch": 42, "duration": 10, "velocity": 110}, {"time": 136320, "pitch": 49, "duration": 10, "velocity": 120}, {"time": 136560, "pitch": 42, "duration": 10, "velocity": 110}, {"time": 136800, "pitch": 38, "duration": 10, "velocity": 105}, {"time": 136800, "pitch": 46, "duration": 10, "velocity": 120}, {"time": 137040, "pitch": 42, "duration": 10, "velocity": 110}, {"time": 137280, "pitch": 36, "duration": 10, "velocity": 110}, {"time": 137280, "pitch": 42, "duration": 10, "velocity": 110}, {"time": 137520, "pitch": 36, "duration": 10, "velocity": 110}, {"time": 137520, "pitch": 42, "duration": 10, "velocity": 110}, {"time": 137760, "pitch": 38, "duration": 10, "velocity": 105}, {"time": 137760, "pitch": 46, "duration": 10, "velocity": 120}, {"time": 138000, "pitch": 36, "duration": 10, "velocity": 110}, {"time": 138000, "pitch": 42, "duration": 10, "velocity": 110}, {"time": 138240, "pitch": 36, "duration": 10, "velocity": 110}, {"time": 138240, "pitch": 42, "duration": 10, "velocity": 110}, {"time": 138480, "pitch": 42, "duration": 10, "velocity": 110}, {"time": 138720, "pitch": 38, "duration": 10, "velocity": 105}, {"time": 138720, "pitch": 46, "duration": 10, "velocity": 120}, {"time": 138960, "pitch": 42, "duration": 10, "velocity": 110}, {"time": 139200, "pitch": 36, "duration": 10, "velocity": 110}, {"time": 139200, "pitch": 42, "duration": 10, "velocity": 110}, {"time": 139440, "pitch": 36, "duration": 10, "velocity": 110}, {"time": 139440, "pitch": 46, "duration": 10, "velocity": 120}, {"time": 139680, "pitch": 38, "duration": 10, "velocity": 105}, {"time": 139680, "pitch": 42, "duration": 10, "velocity": 110}, {"time": 139920, "pitch": 36, "duration": 10, "velocity": 110}, {"time": 139920, "pitch": 46, "duration": 10, "velocity": 120}, {"time": 139920, "pitch": 49, "duration": 10, "velocity": 120}, {"time": 140160, "pitch": 36, "duration": 10, "velocity": 110}, {"time": 140160, "pitch": 42, "duration": 10, "velocity": 110}, {"time": 140160, "pitch": 57, "duration": 10, "velocity": 120}, {"time": 140400, "pitch": 42, "duration": 10, "velocity": 110}, {"time": 140640, "pitch": 38, "duration": 10, "velocity": 105}, {"time": 140640, "pitch": 46, "duration": 10, "velocity": 120}, {"time": 140880, "pitch": 42, "duration": 10, "velocity": 110}, {"time": 141120, "pitch": 36, "duration": 10, "velocity": 110}, {"time": 141120, "pitch": 42, "duration": 10, "velocity": 110}, {"time": 141360, "pitch": 36, "duration": 10, "velocity": 110}, {"time": 141360, "pitch": 42, "duration": 10, "velocity": 110}, {"time": 141600, "pitch": 38, "duration": 10, "velocity": 105}, {"time": 141600, "pitch": 46, "duration": 10, "velocity": 120}, {"time": 141840, "pitch": 36, "duration": 10, "velocity": 110}, {"time": 141840, "pitch": 42, "duration": 10, "velocity": 110}, {"time": 142080, "pitch": 36, "duration": 10, "velocity": 110}, {"time": 142080, "pitch": 42, "duration": 10, "velocity": 110}, {"time": 142080, "pitch": 49, "duration": 10, "velocity": 120}, {"time": 142080, "pitch": 57, "duration": 10, "velocity": 120}, {"time": 142320, "pitch": 42, "duration": 10, "velocity": 110}, {"time": 142560, "pitch": 46, "duration": 10, "velocity": 120}, {"time": 142800, "pitch": 42, "duration": 10, "velocity": 110}, {"time": 143160, "pitch": 38, "duration": 10, "velocity": 105}, {"time": 143280, "pitch": 38, "duration": 10, "velocity": 105}, {"time": 143400, "pitch": 38, "duration": 10, "velocity": 105}, {"time": 143520, "pitch": 38, "duration": 10, "velocity": 105}, {"time": 143760, "pitch": 36, "duration": 10, "velocity": 110}, {"time": 143761, "pitch": 49, "duration": 10, "velocity": 100}, {"time": 144000, "pitch": 36, "duration": 10, "velocity": 110}, {"time": 144000, "pitch": 42, "duration": 10, "velocity": 110}, {"time": 144000, "pitch": 49, "duration": 10, "velocity": 120}, {"time": 144000, "pitch": 57, "duration": 10, "velocity": 120}, {"time": 144240, "pitch": 42, "duration": 10, "velocity": 110}, {"time": 144480, "pitch": 38, "duration": 10, "velocity": 105}, {"time": 144480, "pitch": 46, "duration": 10, "velocity": 120}, {"time": 144720, "pitch": 42, "duration": 10, "velocity": 110}, {"time": 144960, "pitch": 36, "duration": 10, "velocity": 110}, {"time": 144960, "pitch": 42, "duration": 10, "velocity": 110}, {"time": 145200, "pitch": 36, "duration": 10, "velocity": 110}, {"time": 145200, "pitch": 42, "duration": 10, "velocity": 110}, {"time": 145440, "pitch": 38, "duration": 10, "velocity": 105}, {"time": 145440, "pitch": 46, "duration": 10, "velocity": 120}, {"time": 145680, "pitch": 36, "duration": 10, "velocity": 110}, {"time": 145680, "pitch": 42, "duration": 10, "velocity": 110}, {"time": 145920, "pitch": 36, "duration": 10, "velocity": 110}, {"time": 145920, "pitch": 42, "duration": 10, "velocity": 110}, {"time": 146160, "pitch": 42, "duration": 10, "velocity": 110}, {"time": 146400, "pitch": 38, "duration": 10, "velocity": 105}, {"time": 146400, "pitch": 46, "duration": 10, "velocity": 120}, {"time": 146640, "pitch": 42, "duration": 10, "velocity": 110}, {"time": 146880, "pitch": 36, "duration": 10, "velocity": 110}, {"time": 146880, "pitch": 42, "duration": 10, "velocity": 110}, {"time": 147120, "pitch": 36, "duration": 10, "velocity": 110}, {"time": 147120, "pitch": 42, "duration": 10, "velocity": 110}, {"time": 147360, "pitch": 38, "duration": 10, "velocity": 105}, {"time": 147360, "pitch": 46, "duration": 10, "velocity": 120}, {"time": 147600, "pitch": 36, "duration": 10, "velocity": 110}, {"time": 147600, "pitch": 42, "duration": 10, "velocity": 110}, {"time": 147840, "pitch": 36, "duration": 10, "velocity": 110}, {"time": 147840, "pitch": 42, "duration": 10, "velocity": 110}, {"time": 148080, "pitch": 42, "duration": 10, "velocity": 110}, {"time": 148320, "pitch": 38, "duration": 10, "velocity": 105}, {"time": 148320, "pitch": 46, "duration": 10, "velocity": 120}, {"time": 148560, "pitch": 42, "duration": 10, "velocity": 110}, {"time": 148800, "pitch": 36, "duration": 10, "velocity": 110}, {"time": 148800, "pitch": 42, "duration": 10, "velocity": 110}, {"time": 149040, "pitch": 36, "duration": 10, "velocity": 110}, {"time": 149040, "pitch": 42, "duration": 10, "velocity": 110}, {"time": 149280, "pitch": 38, "duration": 10, "velocity": 105}, {"time": 149280, "pitch": 46, "duration": 10, "velocity": 120}, {"time": 149520, "pitch": 36, "duration": 10, "velocity": 110}, {"time": 149520, "pitch": 42, "duration": 10, "velocity": 110}, {"time": 149760, "pitch": 36, "duration": 10, "velocity": 110}, {"time": 149760, "pitch": 42, "duration": 10, "velocity": 110}, {"time": 150000, "pitch": 42, "duration": 10, "velocity": 110}, {"time": 150240, "pitch": 38, "duration": 10, "velocity": 105}, {"time": 150240, "pitch": 46, "duration": 10, "velocity": 120}, {"time": 150480, "pitch": 42, "duration": 10, "velocity": 110}, {"time": 150720, "pitch": 36, "duration": 10, "velocity": 110}, {"time": 150720, "pitch": 42, "duration": 10, "velocity": 110}, {"time": 150960, "pitch": 36, "duration": 10, "velocity": 110}, {"time": 150960, "pitch": 46, "duration": 10, "velocity": 120}, {"time": 151200, "pitch": 38, "duration": 10, "velocity": 105}, {"time": 151200, "pitch": 42, "duration": 10, "velocity": 110}, {"time": 151440, "pitch": 36, "duration": 10, "velocity": 110}, {"time": 151440, "pitch": 46, "duration": 10, "velocity": 120}, {"time": 151680, "pitch": 36, "duration": 10, "velocity": 110}, {"time": 151680, "pitch": 42, "duration": 10, "velocity": 110}, {"time": 151680, "pitch": 49, "duration": 10, "velocity": 120}, {"time": 151680, "pitch": 57, "duration": 10, "velocity": 120}, {"time": 151920, "pitch": 42, "duration": 10, "velocity": 110}, {"time": 152160, "pitch": 38, "duration": 10, "velocity": 105}, {"time": 152160, "pitch": 46, "duration": 10, "velocity": 120}, {"time": 152400, "pitch": 42, "duration": 10, "velocity": 110}, {"time": 152640, "pitch": 36, "duration": 10, "velocity": 110}, {"time": 152640, "pitch": 42, "duration": 10, "velocity": 110}, {"time": 152880, "pitch": 36, "duration": 10, "velocity": 110}, {"time": 152880, "pitch": 42, "duration": 10, "velocity": 110}, {"time": 153120, "pitch": 38, "duration": 10, "velocity": 105}, {"time": 153120, "pitch": 46, "duration": 10, "velocity": 120}, {"time": 153360, "pitch": 36, "duration": 10, "velocity": 110}, {"time": 153360, "pitch": 42, "duration": 10, "velocity": 110}, {"time": 153600, "pitch": 36, "duration": 10, "velocity": 110}, {"time": 153600, "pitch": 42, "duration": 10, "velocity": 110}, {"time": 153840, "pitch": 42, "duration": 10, "velocity": 110}, {"time": 154080, "pitch": 38, "duration": 10, "velocity": 105}, {"time": 154080, "pitch": 46, "duration": 10, "velocity": 120}, {"time": 154320, "pitch": 42, "duration": 10, "velocity": 110}, {"time": 154560, "pitch": 36, "duration": 10, "velocity": 110}, {"time": 154560, "pitch": 42, "duration": 10, "velocity": 110}, {"time": 154800, "pitch": 36, "duration": 10, "velocity": 110}, {"time": 154800, "pitch": 42, "duration": 10, "velocity": 110}, {"time": 155040, "pitch": 38, "duration": 10, "velocity": 105}, {"time": 155040, "pitch": 46, "duration": 10, "velocity": 120}, {"time": 155280, "pitch": 36, "duration": 10, "velocity": 110}, {"time": 155280, "pitch": 42, "duration": 10, "velocity": 110}, {"time": 155520, "pitch": 36, "duration": 10, "velocity": 110}, {"time": 155520, "pitch": 42, "duration": 10, "velocity": 110}, {"time": 155760, "pitch": 42, "duration": 10, "velocity": 110}, {"time": 156000, "pitch": 38, "duration": 10, "velocity": 105}, {"time": 156000, "pitch": 46, "duration": 10, "velocity": 120}, {"time": 156240, "pitch": 42, "duration": 10, "velocity": 110}, {"time": 156480, "pitch": 36, "duration": 10, "velocity": 110}, {"time": 156480, "pitch": 42, "duration": 10, "velocity": 110}, {"time": 156720, "pitch": 36, "duration": 10, "velocity": 110}, {"time": 156720, "pitch": 42, "duration": 10, "velocity": 110}, {"time": 156960, "pitch": 38, "duration": 10, "velocity": 105}, {"time": 156960, "pitch": 46, "duration": 10, "velocity": 120}, {"time": 157200, "pitch": 36, "duration": 10, "velocity": 110}, {"time": 157200, "pitch": 42, "duration": 10, "velocity": 110}, {"time": 157440, "pitch": 36, "duration": 10, "velocity": 110}, {"time": 157440, "pitch": 42, "duration": 10, "velocity": 110}, {"time": 157680, "pitch": 42, "duration": 10, "velocity": 110}, {"time": 157920, "pitch": 38, "duration": 10, "velocity": 105}, {"time": 157920, "pitch": 46, "duration": 10, "velocity": 120}, {"time": 158160, "pitch": 42, "duration": 10, "velocity": 110}, {"time": 158400, "pitch": 36, "duration": 10, "velocity": 110}, {"time": 158400, "pitch": 42, "duration": 10, "velocity": 110}, {"time": 158640, "pitch": 36, "duration": 10, "velocity": 110}, {"time": 158640, "pitch": 46, "duration": 10, "velocity": 120}, {"time": 158880, "pitch": 38, "duration": 10, "velocity": 105}, {"time": 158880, "pitch": 42, "duration": 10, "velocity": 110}, {"time": 159120, "pitch": 36, "duration": 10, "velocity": 110}, {"time": 159120, "pitch": 46, "duration": 10, "velocity": 120}, {"time": 159360, "pitch": 36, "duration": 10, "velocity": 110}, {"time": 159360, "pitch": 42, "duration": 10, "velocity": 110}, {"time": 159360, "pitch": 49, "duration": 10, "velocity": 120}, {"time": 159360, "pitch": 57, "duration": 10, "velocity": 120}, {"time": 159600, "pitch": 42, "duration": 10, "velocity": 110}, {"time": 159840, "pitch": 38, "duration": 10, "velocity": 105}, {"time": 159840, "pitch": 46, "duration": 10, "velocity": 120}, {"time": 160080, "pitch": 42, "duration": 10, "velocity": 110}, {"time": 160320, "pitch": 36, "duration": 10, "velocity": 110}, {"time": 160320, "pitch": 42, "duration": 10, "velocity": 110}, {"time": 160560, "pitch": 36, "duration": 10, "velocity": 110}, {"time": 160560, "pitch": 42, "duration": 10, "velocity": 110}, {"time": 160800, "pitch": 38, "duration": 10, "velocity": 105}, {"time": 160800, "pitch": 46, "duration": 10, "velocity": 120}, {"time": 161040, "pitch": 36, "duration": 10, "velocity": 110}, {"time": 161040, "pitch": 42, "duration": 10, "velocity": 110}, {"time": 161280, "pitch": 36, "duration": 10, "velocity": 110}, {"time": 161280, "pitch": 42, "duration": 10, "velocity": 110}, {"time": 161520, "pitch": 42, "duration": 10, "velocity": 110}, {"time": 161760, "pitch": 38, "duration": 10, "velocity": 105}, {"time": 161760, "pitch": 46, "duration": 10, "velocity": 120}, {"time": 162000, "pitch": 42, "duration": 10, "velocity": 110}, {"time": 162240, "pitch": 36, "duration": 10, "velocity": 110}, {"time": 162240, "pitch": 42, "duration": 10, "velocity": 110}, {"time": 162480, "pitch": 36, "duration": 10, "velocity": 110}, {"time": 162480, "pitch": 42, "duration": 10, "velocity": 110}, {"time": 162720, "pitch": 38, "duration": 10, "velocity": 105}, {"time": 162720, "pitch": 46, "duration": 10, "velocity": 120}, {"time": 162960, "pitch": 36, "duration": 10, "velocity": 110}, {"time": 162960, "pitch": 42, "duration": 10, "velocity": 110}, {"time": 163200, "pitch": 36, "duration": 10, "velocity": 110}, {"time": 163200, "pitch": 42, "duration": 10, "velocity": 110}, {"time": 163200, "pitch": 49, "duration": 10, "velocity": 120}, {"time": 163200, "pitch": 57, "duration": 10, "velocity": 120}, {"time": 163440, "pitch": 42, "duration": 10, "velocity": 110}, {"time": 163680, "pitch": 38, "duration": 10, "velocity": 105}, {"time": 163680, "pitch": 46, "duration": 10, "velocity": 120}, {"time": 163920, "pitch": 42, "duration": 10, "velocity": 110}, {"time": 164160, "pitch": 36, "duration": 10, "velocity": 110}, {"time": 164160, "pitch": 42, "duration": 10, "velocity": 110}, {"time": 164400, "pitch": 36, "duration": 10, "velocity": 110}, {"time": 164400, "pitch": 42, "duration": 10, "velocity": 110}, {"time": 164640, "pitch": 38, "duration": 10, "velocity": 105}, {"time": 164640, "pitch": 46, "duration": 10, "velocity": 120}, {"time": 164880, "pitch": 36, "duration": 10, "velocity": 110}, {"time": 164880, "pitch": 42, "duration": 10, "velocity": 110}, {"time": 165120, "pitch": 36, "duration": 10, "velocity": 110}, {"time": 165120, "pitch": 42, "duration": 10, "velocity": 110}, {"time": 165360, "pitch": 42, "duration": 10, "velocity": 110}, {"time": 165600, "pitch": 38, "duration": 10, "velocity": 105}, {"time": 165600, "pitch": 46, "duration": 10, "velocity": 120}, {"time": 165840, "pitch": 42, "duration": 10, "velocity": 110}, {"time": 166080, "pitch": 36, "duration": 10, "velocity": 110}, {"time": 166080, "pitch": 42, "duration": 10, "velocity": 110}, {"time": 166320, "pitch": 36, "duration": 10, "velocity": 110}, {"time": 166320, "pitch": 46, "duration": 10, "velocity": 120}, {"time": 166560, "pitch": 38, "duration": 10, "velocity": 105}, {"time": 166560, "pitch": 42, "duration": 10, "velocity": 110}, {"time": 166800, "pitch": 36, "duration": 10, "velocity": 110}, {"time": 166800, "pitch": 46, "duration": 10, "velocity": 120}, {"time": 167040, "pitch": 36, "duration": 10, "velocity": 110}, {"time": 167040, "pitch": 42, "duration": 10, "velocity": 110}, {"time": 167040, "pitch": 49, "duration": 10, "velocity": 120}, {"time": 167040, "pitch": 57, "duration": 10, "velocity": 120}, {"time": 167280, "pitch": 42, "duration": 10, "velocity": 110}, {"time": 167520, "pitch": 38, "duration": 10, "velocity": 105}, {"time": 167520, "pitch": 46, "duration": 10, "velocity": 120}, {"time": 167760, "pitch": 42, "duration": 10, "velocity": 110}, {"time": 168000, "pitch": 36, "duration": 10, "velocity": 110}, {"time": 168000, "pitch": 42, "duration": 10, "velocity": 110}, {"time": 168240, "pitch": 36, "duration": 10, "velocity": 110}, {"time": 168240, "pitch": 42, "duration": 10, "velocity": 110}, {"time": 168480, "pitch": 38, "duration": 10, "velocity": 105}, {"time": 168480, "pitch": 46, "duration": 10, "velocity": 120}, {"time": 168720, "pitch": 36, "duration": 10, "velocity": 110}, {"time": 168720, "pitch": 42, "duration": 10, "velocity": 110}, {"time": 168960, "pitch": 36, "duration": 10, "velocity": 110}, {"time": 168960, "pitch": 42, "duration": 10, "velocity": 110}, {"time": 169200, "pitch": 42, "duration": 10, "velocity": 110}, {"time": 169440, "pitch": 38, "duration": 10, "velocity": 105}, {"time": 169440, "pitch": 46, "duration": 10, "velocity": 120}, {"time": 169680, "pitch": 42, "duration": 10, "velocity": 110}, {"time": 169920, "pitch": 36, "duration": 10, "velocity": 110}, {"time": 169920, "pitch": 42, "duration": 10, "velocity": 110}, {"time": 170160, "pitch": 36, "duration": 10, "velocity": 110}, {"time": 170160, "pitch": 42, "duration": 10, "velocity": 110}, {"time": 170400, "pitch": 38, "duration": 10, "velocity": 105}, {"time": 170400, "pitch": 46, "duration": 10, "velocity": 120}, {"time": 170640, "pitch": 36, "duration": 10, "velocity": 110}, {"time": 170640, "pitch": 42, "duration": 10, "velocity": 110}, {"time": 170880, "pitch": 36, "duration": 10, "velocity": 110}, {"time": 170880, "pitch": 42, "duration": 10, "velocity": 110}, {"time": 171120, "pitch": 42, "duration": 10, "velocity": 110}, {"time": 171360, "pitch": 38, "duration": 10, "velocity": 105}, {"time": 171360, "pitch": 46, "duration": 10, "velocity": 120}, {"time": 171600, "pitch": 42, "duration": 10, "velocity": 110}, {"time": 171840, "pitch": 36, "duration": 10, "velocity": 110}, {"time": 171840, "pitch": 42, "duration": 10, "velocity": 110}, {"time": 172080, "pitch": 36, "duration": 10, "velocity": 110}, {"time": 172080, "pitch": 42, "duration": 10, "velocity": 110}, {"time": 172320, "pitch": 38, "duration": 10, "velocity": 105}, {"time": 172320, "pitch": 46, "duration": 10, "velocity": 120}, {"time": 172560, "pitch": 36, "duration": 10, "velocity": 110}, {"time": 172560, "pitch": 42, "duration": 10, "velocity": 110}, {"time": 172800, "pitch": 38, "duration": 10, "velocity": 105}, {"time": 172800, "pitch": 46, "duration": 10, "velocity": 120}, {"time": 172800, "pitch": 49, "duration": 10, "velocity": 102}, {"time": 173040, "pitch": 36, "duration": 10, "velocity": 110}, {"time": 173280, "pitch": 38, "duration": 10, "velocity": 105}, {"time": 173280, "pitch": 46, "duration": 10, "velocity": 120}, {"time": 173520, "pitch": 36, "duration": 10, "velocity": 110}, {"time": 173520, "pitch": 57, "duration": 10, "velocity": 104}, {"time": 173760, "pitch": 38, "duration": 10, "velocity": 105}, {"time": 173760, "pitch": 46, "duration": 10, "velocity": 120}, {"time": 174000, "pitch": 36, "duration": 10, "velocity": 110}, {"time": 174240, "pitch": 36, "duration": 10, "velocity": 110}, {"time": 174240, "pitch": 46, "duration": 10, "velocity": 120}, {"time": 174240, "pitch": 49, "duration": 10, "velocity": 102}, {"time": 174480, "pitch": 38, "duration": 10, "velocity": 105}, {"time": 174720, "pitch": 36, "duration": 10, "velocity": 110}, {"time": 174720, "pitch": 42, "duration": 10, "velocity": 110}, {"time": 174720, "pitch": 49, "duration": 10, "velocity": 120}, {"time": 174720, "pitch": 57, "duration": 10, "velocity": 120}, {"time": 174960, "pitch": 42, "duration": 10, "velocity": 110}, {"time": 175200, "pitch": 38, "duration": 10, "velocity": 105}, {"time": 175200, "pitch": 46, "duration": 10, "velocity": 120}, {"time": 175440, "pitch": 42, "duration": 10, "velocity": 110}, {"time": 175680, "pitch": 36, "duration": 10, "velocity": 110}, {"time": 175680, "pitch": 42, "duration": 10, "velocity": 110}, {"time": 175920, "pitch": 36, "duration": 10, "velocity": 110}, {"time": 175920, "pitch": 42, "duration": 10, "velocity": 110}, {"time": 176160, "pitch": 38, "duration": 10, "velocity": 105}, {"time": 176160, "pitch": 46, "duration": 10, "velocity": 120}, {"time": 176400, "pitch": 36, "duration": 10, "velocity": 110}, {"time": 176400, "pitch": 42, "duration": 10, "velocity": 110}, {"time": 176640, "pitch": 36, "duration": 10, "velocity": 110}, {"time": 176640, "pitch": 42, "duration": 10, "velocity": 110}, {"time": 176880, "pitch": 42, "duration": 10, "velocity": 110}, {"time": 177120, "pitch": 38, "duration": 10, "velocity": 105}, {"time": 177120, "pitch": 46, "duration": 10, "velocity": 120}, {"time": 177360, "pitch": 42, "duration": 10, "velocity": 110}, {"time": 177600, "pitch": 36, "duration": 10, "velocity": 110}, {"time": 177600, "pitch": 42, "duration": 10, "velocity": 110}, {"time": 177840, "pitch": 36, "duration": 10, "velocity": 110}, {"time": 177840, "pitch": 42, "duration": 10, "velocity": 110}, {"time": 178080, "pitch": 38, "duration": 10, "velocity": 105}, {"time": 178080, "pitch": 46, "duration": 10, "velocity": 120}, {"time": 178320, "pitch": 36, "duration": 10, "velocity": 110}, {"time": 178320, "pitch": 42, "duration": 10, "velocity": 110}, {"time": 178560, "pitch": 36, "duration": 10, "velocity": 110}, {"time": 178560, "pitch": 42, "duration": 10, "velocity": 110}, {"time": 178800, "pitch": 42, "duration": 10, "velocity": 110}, {"time": 179040, "pitch": 38, "duration": 10, "velocity": 105}, {"time": 179040, "pitch": 46, "duration": 10, "velocity": 120}, {"time": 179280, "pitch": 42, "duration": 10, "velocity": 110}, {"time": 179520, "pitch": 36, "duration": 10, "velocity": 110}, {"time": 179520, "pitch": 42, "duration": 10, "velocity": 110}, {"time": 179760, "pitch": 36, "duration": 10, "velocity": 110}, {"time": 179760, "pitch": 42, "duration": 10, "velocity": 110}, {"time": 180000, "pitch": 38, "duration": 10, "velocity": 105}, {"time": 180000, "pitch": 46, "duration": 10, "velocity": 120}, {"time": 180240, "pitch": 36, "duration": 10, "velocity": 110}, {"time": 180240, "pitch": 42, "duration": 10, "velocity": 110}, {"time": 180480, "pitch": 36, "duration": 10, "velocity": 110}, {"time": 180480, "pitch": 42, "duration": 10, "velocity": 110}, {"time": 180720, "pitch": 42, "duration": 10, "velocity": 110}, {"time": 180960, "pitch": 38, "duration": 10, "velocity": 105}, {"time": 180960, "pitch": 46, "duration": 10, "velocity": 120}, {"time": 181200, "pitch": 42, "duration": 10, "velocity": 110}, {"time": 181440, "pitch": 36, "duration": 10, "velocity": 110}, {"time": 181440, "pitch": 42, "duration": 10, "velocity": 110}, {"time": 181680, "pitch": 36, "duration": 10, "velocity": 110}, {"time": 181680, "pitch": 46, "duration": 10, "velocity": 120}, {"time": 181920, "pitch": 38, "duration": 10, "velocity": 105}, {"time": 181920, "pitch": 42, "duration": 10, "velocity": 110}, {"time": 182160, "pitch": 36, "duration": 10, "velocity": 110}, {"time": 182160, "pitch": 46, "duration": 10, "velocity": 120}, {"time": 182400, "pitch": 36, "duration": 10, "velocity": 110}, {"time": 182400, "pitch": 42, "duration": 10, "velocity": 110}, {"time": 182400, "pitch": 49, "duration": 10, "velocity": 120}, {"time": 182400, "pitch": 57, "duration": 10, "velocity": 120}, {"time": 182640, "pitch": 42, "duration": 10, "velocity": 110}, {"time": 182880, "pitch": 38, "duration": 10, "velocity": 105}, {"time": 182880, "pitch": 46, "duration": 10, "velocity": 120}, {"time": 183120, "pitch": 42, "duration": 10, "velocity": 110}, {"time": 183360, "pitch": 36, "duration": 10, "velocity": 110}, {"time": 183360, "pitch": 42, "duration": 10, "velocity": 110}, {"time": 183600, "pitch": 36, "duration": 10, "velocity": 110}, {"time": 183600, "pitch": 42, "duration": 10, "velocity": 110}, {"time": 183840, "pitch": 38, "duration": 10, "velocity": 105}, {"time": 183840, "pitch": 46, "duration": 10, "velocity": 120}, {"time": 184080, "pitch": 36, "duration": 10, "velocity": 110}, {"time": 184080, "pitch": 42, "duration": 10, "velocity": 110}, {"time": 184320, "pitch": 36, "duration": 10, "velocity": 110}, {"time": 184320, "pitch": 42, "duration": 10, "velocity": 110}, {"time": 184560, "pitch": 42, "duration": 10, "velocity": 110}, {"time": 184800, "pitch": 38, "duration": 10, "velocity": 105}, {"time": 184800, "pitch": 46, "duration": 10, "velocity": 120}, {"time": 185040, "pitch": 42, "duration": 10, "velocity": 110}, {"time": 185280, "pitch": 36, "duration": 10, "velocity": 110}, {"time": 185280, "pitch": 42, "duration": 10, "velocity": 110}, {"time": 185520, "pitch": 36, "duration": 10, "velocity": 110}, {"time": 185520, "pitch": 42, "duration": 10, "velocity": 110}, {"time": 185760, "pitch": 38, "duration": 10, "velocity": 105}, {"time": 185760, "pitch": 46, "duration": 10, "velocity": 120}, {"time": 186000, "pitch": 36, "duration": 10, "velocity": 110}, {"time": 186000, "pitch": 42, "duration": 10, "velocity": 110}, {"time": 186240, "pitch": 36, "duration": 10, "velocity": 110}, {"time": 186240, "pitch": 42, "duration": 10, "velocity": 110}, {"time": 186480, "pitch": 42, "duration": 10, "velocity": 110}, {"time": 186720, "pitch": 38, "duration": 10, "velocity": 105}, {"time": 186720, "pitch": 46, "duration": 10, "velocity": 120}, {"time": 186960, "pitch": 42, "duration": 10, "velocity": 110}, {"time": 187200, "pitch": 36, "duration": 10, "velocity": 110}, {"time": 187200, "pitch": 42, "duration": 10, "velocity": 110}, {"time": 187440, "pitch": 36, "duration": 10, "velocity": 110}, {"time": 187440, "pitch": 42, "duration": 10, "velocity": 110}, {"time": 187680, "pitch": 38, "duration": 10, "velocity": 105}, {"time": 187680, "pitch": 46, "duration": 10, "velocity": 120}, {"time": 187920, "pitch": 36, "duration": 10, "velocity": 110}, {"time": 187920, "pitch": 42, "duration": 10, "velocity": 110}, {"time": 188160, "pitch": 36, "duration": 10, "velocity": 110}, {"time": 188160, "pitch": 42, "duration": 10, "velocity": 110}, {"time": 188400, "pitch": 42, "duration": 10, "velocity": 110}, {"time": 188640, "pitch": 38, "duration": 10, "velocity": 105}, {"time": 188640, "pitch": 46, "duration": 10, "velocity": 120}, {"time": 188880, "pitch": 42, "duration": 10, "velocity": 110}, {"time": 189120, "pitch": 36, "duration": 10, "velocity": 110}, {"time": 189120, "pitch": 42, "duration": 10, "velocity": 110}, {"time": 189360, "pitch": 36, "duration": 10, "velocity": 110}, {"time": 189360, "pitch": 46, "duration": 10, "velocity": 120}, {"time": 189600, "pitch": 38, "duration": 10, "velocity": 105}, {"time": 189600, "pitch": 42, "duration": 10, "velocity": 110}, {"time": 189840, "pitch": 36, "duration": 10, "velocity": 110}, {"time": 189840, "pitch": 46, "duration": 10, "velocity": 120}, {"time": 190080, "pitch": 36, "duration": 10, "velocity": 110}, {"time": 190080, "pitch": 42, "duration": 10, "velocity": 110}, {"time": 190080, "pitch": 49, "duration": 10, "velocity": 120}, {"time": 190080, "pitch": 57, "duration": 10, "velocity": 120}, {"time": 190320, "pitch": 42, "duration": 10, "velocity": 110}, {"time": 190560, "pitch": 38, "duration": 10, "velocity": 105}, {"time": 190560, "pitch": 46, "duration": 10, "velocity": 120}, {"time": 190800, "pitch": 42, "duration": 10, "velocity": 110}, {"time": 191040, "pitch": 36, "duration": 10, "velocity": 110}, {"time": 191040, "pitch": 42, "duration": 10, "velocity": 110}, {"time": 191280, "pitch": 36, "duration": 10, "velocity": 110}, {"time": 191280, "pitch": 42, "duration": 10, "velocity": 110}, {"time": 191520, "pitch": 38, "duration": 10, "velocity": 105}, {"time": 191520, "pitch": 46, "duration": 10, "velocity": 120}, {"time": 191760, "pitch": 36, "duration": 10, "velocity": 110}, {"time": 191760, "pitch": 42, "duration": 10, "velocity": 110}, {"time": 192000, "pitch": 36, "duration": 10, "velocity": 110}, {"time": 192000, "pitch": 42, "duration": 10, "velocity": 110}, {"time": 192240, "pitch": 42, "duration": 10, "velocity": 110}, {"time": 192480, "pitch": 38, "duration": 10, "velocity": 105}, {"time": 192480, "pitch": 46, "duration": 10, "velocity": 120}, {"time": 192720, "pitch": 42, "duration": 10, "velocity": 110}, {"time": 192960, "pitch": 36, "duration": 10, "velocity": 110}, {"time": 192960, "pitch": 42, "duration": 10, "velocity": 110}, {"time": 193200, "pitch": 36, "duration": 10, "velocity": 110}, {"time": 193200, "pitch": 42, "duration": 10, "velocity": 110}, {"time": 193440, "pitch": 38, "duration": 10, "velocity": 105}, {"time": 193440, "pitch": 46, "duration": 10, "velocity": 120}, {"time": 193680, "pitch": 36, "duration": 10, "velocity": 110}, {"time": 193680, "pitch": 42, "duration": 10, "velocity": 110}, {"time": 193920, "pitch": 36, "duration": 10, "velocity": 110}, {"time": 193920, "pitch": 42, "duration": 10, "velocity": 110}, {"time": 193920, "pitch": 49, "duration": 10, "velocity": 120}, {"time": 193920, "pitch": 57, "duration": 10, "velocity": 120}, {"time": 194160, "pitch": 42, "duration": 10, "velocity": 110}, {"time": 194400, "pitch": 38, "duration": 10, "velocity": 105}, {"time": 194400, "pitch": 46, "duration": 10, "velocity": 120}, {"time": 194640, "pitch": 42, "duration": 10, "velocity": 110}, {"time": 194880, "pitch": 36, "duration": 10, "velocity": 110}, {"time": 194880, "pitch": 42, "duration": 10, "velocity": 110}, {"time": 195120, "pitch": 36, "duration": 10, "velocity": 110}, {"time": 195120, "pitch": 42, "duration": 10, "velocity": 110}, {"time": 195360, "pitch": 38, "duration": 10, "velocity": 105}, {"time": 195360, "pitch": 46, "duration": 10, "velocity": 120}, {"time": 195600, "pitch": 36, "duration": 10, "velocity": 110}, {"time": 195600, "pitch": 42, "duration": 10, "velocity": 110}, {"time": 195840, "pitch": 36, "duration": 10, "velocity": 110}, {"time": 195840, "pitch": 42, "duration": 10, "velocity": 110}, {"time": 196080, "pitch": 42, "duration": 10, "velocity": 110}, {"time": 196320, "pitch": 38, "duration": 10, "velocity": 105}, {"time": 196320, "pitch": 46, "duration": 10, "velocity": 120}, {"time": 196560, "pitch": 42, "duration": 10, "velocity": 110}, {"time": 196800, "pitch": 36, "duration": 10, "velocity": 110}, {"time": 196800, "pitch": 42, "duration": 10, "velocity": 110}, {"time": 197040, "pitch": 36, "duration": 10, "velocity": 110}, {"time": 197040, "pitch": 46, "duration": 10, "velocity": 120}, {"time": 197280, "pitch": 38, "duration": 10, "velocity": 105}, {"time": 197280, "pitch": 42, "duration": 10, "velocity": 110}, {"time": 197520, "pitch": 36, "duration": 10, "velocity": 110}, {"time": 197520, "pitch": 46, "duration": 10, "velocity": 120}, {"time": 197760, "pitch": 36, "duration": 10, "velocity": 110}, {"time": 197760, "pitch": 42, "duration": 10, "velocity": 110}, {"time": 197760, "pitch": 49, "duration": 10, "velocity": 120}, {"time": 197760, "pitch": 57, "duration": 10, "velocity": 120}, {"time": 198000, "pitch": 42, "duration": 10, "velocity": 110}, {"time": 198240, "pitch": 38, "duration": 10, "velocity": 105}, {"time": 198240, "pitch": 46, "duration": 10, "velocity": 120}, {"time": 198480, "pitch": 42, "duration": 10, "velocity": 110}, {"time": 198720, "pitch": 36, "duration": 10, "velocity": 110}, {"time": 198720, "pitch": 42, "duration": 10, "velocity": 110}, {"time": 198960, "pitch": 36, "duration": 10, "velocity": 110}, {"time": 198960, "pitch": 42, "duration": 10, "velocity": 110}, {"time": 199200, "pitch": 38, "duration": 10, "velocity": 105}, {"time": 199200, "pitch": 46, "duration": 10, "velocity": 120}, {"time": 199440, "pitch": 36, "duration": 10, "velocity": 110}, {"time": 199440, "pitch": 42, "duration": 10, "velocity": 110}, {"time": 199680, "pitch": 36, "duration": 10, "velocity": 110}, {"time": 199680, "pitch": 42, "duration": 10, "velocity": 110}, {"time": 199920, "pitch": 42, "duration": 10, "velocity": 110}, {"time": 200160, "pitch": 38, "duration": 10, "velocity": 105}, {"time": 200160, "pitch": 46, "duration": 10, "velocity": 120}, {"time": 200400, "pitch": 42, "duration": 10, "velocity": 110}, {"time": 200640, "pitch": 36, "duration": 10, "velocity": 110}, {"time": 200640, "pitch": 42, "duration": 10, "velocity": 110}, {"time": 200880, "pitch": 36, "duration": 10, "velocity": 110}, {"time": 200880, "pitch": 42, "duration": 10, "velocity": 110}, {"time": 201120, "pitch": 38, "duration": 10, "velocity": 105}, {"time": 201120, "pitch": 46, "duration": 10, "velocity": 120}, {"time": 201360, "pitch": 36, "duration": 10, "velocity": 110}, {"time": 201360, "pitch": 42, "duration": 10, "velocity": 110}, {"time": 201600, "pitch": 36, "duration": 10, "velocity": 110}, {"time": 201600, "pitch": 42, "duration": 10, "velocity": 110}, {"time": 201840, "pitch": 42, "duration": 10, "velocity": 110}, {"time": 202080, "pitch": 38, "duration": 10, "velocity": 105}, {"time": 202080, "pitch": 46, "duration": 10, "velocity": 120}, {"time": 202320, "pitch": 42, "duration": 10, "velocity": 110}, {"time": 202560, "pitch": 36, "duration": 10, "velocity": 110}, {"time": 202560, "pitch": 42, "duration": 10, "velocity": 110}, {"time": 202800, "pitch": 36, "duration": 10, "velocity": 110}, {"time": 202800, "pitch": 42, "duration": 10, "velocity": 110}, {"time": 203040, "pitch": 38, "duration": 10, "velocity": 105}, {"time": 203040, "pitch": 46, "duration": 10, "velocity": 120}, {"time": 203280, "pitch": 36, "duration": 10, "velocity": 110}, {"time": 203280, "pitch": 42, "duration": 10, "velocity": 110}, {"time": 203520, "pitch": 38, "duration": 10, "velocity": 105}, {"time": 203520, "pitch": 46, "duration": 10, "velocity": 120}, {"time": 203520, "pitch": 49, "duration": 10, "velocity": 102}, {"time": 203760, "pitch": 36, "duration": 10, "velocity": 110}, {"time": 204000, "pitch": 38, "duration": 10, "velocity": 105}, {"time": 204000, "pitch": 46, "duration": 10, "velocity": 120}, {"time": 204240, "pitch": 36, "duration": 10, "velocity": 110}, {"time": 204240, "pitch": 57, "duration": 10, "velocity": 104}, {"time": 204480, "pitch": 38, "duration": 10, "velocity": 105}, {"time": 204480, "pitch": 46, "duration": 10, "velocity": 120}, {"time": 204720, "pitch": 36, "duration": 10, "velocity": 110}, {"time": 204960, "pitch": 36, "duration": 10, "velocity": 110}, {"time": 204960, "pitch": 46, "duration": 10, "velocity": 120}, {"time": 204960, "pitch": 49, "duration": 10, "velocity": 102}, {"time": 205200, "pitch": 38, "duration": 10, "velocity": 105}, {"time": 205440, "pitch": 36, "duration": 10, "velocity": 110}, {"time": 205440, "pitch": 42, "duration": 10, "velocity": 110}, {"time": 205440, "pitch": 49, "duration": 10, "velocity": 120}, {"time": 205440, "pitch": 57, "duration": 10, "velocity": 120}, {"time": 205680, "pitch": 42, "duration": 10, "velocity": 110}, {"time": 205920, "pitch": 38, "duration": 10, "velocity": 105}, {"time": 205920, "pitch": 46, "duration": 10, "velocity": 120}, {"time": 206160, "pitch": 42, "duration": 10, "velocity": 110}, {"time": 206400, "pitch": 36, "duration": 10, "velocity": 110}, {"time": 206400, "pitch": 42, "duration": 10, "velocity": 110}, {"time": 206640, "pitch": 36, "duration": 10, "velocity": 110}, {"time": 206640, "pitch": 42, "duration": 10, "velocity": 110}, {"time": 206880, "pitch": 38, "duration": 10, "velocity": 105}, {"time": 206880, "pitch": 46, "duration": 10, "velocity": 120}, {"time": 207120, "pitch": 36, "duration": 10, "velocity": 110}, {"time": 207120, "pitch": 42, "duration": 10, "velocity": 110}, {"time": 207360, "pitch": 36, "duration": 10, "velocity": 110}, {"time": 207360, "pitch": 42, "duration": 10, "velocity": 110}, {"time": 207600, "pitch": 42, "duration": 10, "velocity": 110}, {"time": 207840, "pitch": 38, "duration": 10, "velocity": 105}, {"time": 207840, "pitch": 46, "duration": 10, "velocity": 120}, {"time": 208080, "pitch": 42, "duration": 10, "velocity": 110}, {"time": 208320, "pitch": 36, "duration": 10, "velocity": 110}, {"time": 208320, "pitch": 42, "duration": 10, "velocity": 110}, {"time": 208560, "pitch": 36, "duration": 10, "velocity": 110}, {"time": 208560, "pitch": 42, "duration": 10, "velocity": 110}, {"time": 208800, "pitch": 38, "duration": 10, "velocity": 105}, {"time": 208800, "pitch": 46, "duration": 10, "velocity": 120}, {"time": 209040, "pitch": 36, "duration": 10, "velocity": 110}, {"time": 209040, "pitch": 42, "duration": 10, "velocity": 110}, {"time": 209280, "pitch": 36, "duration": 10, "velocity": 110}, {"time": 209280, "pitch": 42, "duration": 10, "velocity": 110}, {"time": 209520, "pitch": 42, "duration": 10, "velocity": 110}, {"time": 209760, "pitch": 38, "duration": 10, "velocity": 105}, {"time": 209760, "pitch": 46, "duration": 10, "velocity": 120}, {"time": 210000, "pitch": 42, "duration": 10, "velocity": 110}, {"time": 210240, "pitch": 36, "duration": 10, "velocity": 110}, {"time": 210240, "pitch": 42, "duration": 10, "velocity": 110}, {"time": 210480, "pitch": 36, "duration": 10, "velocity": 110}, {"time": 210480, "pitch": 42, "duration": 10, "velocity": 110}, {"time": 210720, "pitch": 38, "duration": 10, "velocity": 105}, {"time": 210720, "pitch": 46, "duration": 10, "velocity": 120}, {"time": 210960, "pitch": 36, "duration": 10, "velocity": 110}, {"time": 210960, "pitch": 42, "duration": 10, "velocity": 110}, {"time": 211200, "pitch": 36, "duration": 10, "velocity": 110}, {"time": 211200, "pitch": 42, "duration": 10, "velocity": 110}, {"time": 211440, "pitch": 42, "duration": 10, "velocity": 110}, {"time": 211680, "pitch": 38, "duration": 10, "velocity": 105}, {"time": 211680, "pitch": 46, "duration": 10, "velocity": 120}, {"time": 211920, "pitch": 42, "duration": 10, "velocity": 110}, {"time": 212160, "pitch": 36, "duration": 10, "velocity": 110}, {"time": 212160, "pitch": 42, "duration": 10, "velocity": 110}, {"time": 212400, "pitch": 36, "duration": 10, "velocity": 110}, {"time": 212400, "pitch": 46, "duration": 10, "velocity": 120}, {"time": 212640, "pitch": 38, "duration": 10, "velocity": 105}, {"time": 212640, "pitch": 42, "duration": 10, "velocity": 110}, {"time": 212880, "pitch": 36, "duration": 10, "velocity": 110}, {"time": 212880, "pitch": 46, "duration": 10, "velocity": 120}, {"time": 213120, "pitch": 36, "duration": 10, "velocity": 110}, {"time": 213120, "pitch": 42, "duration": 10, "velocity": 110}, {"time": 213120, "pitch": 49, "duration": 10, "velocity": 120}, {"time": 213120, "pitch": 57, "duration": 10, "velocity": 120}, {"time": 213360, "pitch": 42, "duration": 10, "velocity": 110}, {"time": 213600, "pitch": 38, "duration": 10, "velocity": 105}, {"time": 213600, "pitch": 46, "duration": 10, "velocity": 120}, {"time": 213840, "pitch": 42, "duration": 10, "velocity": 110}, {"time": 214080, "pitch": 36, "duration": 10, "velocity": 110}, {"time": 214080, "pitch": 42, "duration": 10, "velocity": 110}, {"time": 214320, "pitch": 36, "duration": 10, "velocity": 110}, {"time": 214320, "pitch": 42, "duration": 10, "velocity": 110}, {"time": 214560, "pitch": 38, "duration": 10, "velocity": 105}, {"time": 214560, "pitch": 46, "duration": 10, "velocity": 120}, {"time": 214800, "pitch": 36, "duration": 10, "velocity": 110}, {"time": 214800, "pitch": 42, "duration": 10, "velocity": 110}, {"time": 215040, "pitch": 36, "duration": 10, "velocity": 110}, {"time": 215040, "pitch": 42, "duration": 10, "velocity": 110}, {"time": 215280, "pitch": 42, "duration": 10, "velocity": 110}, {"time": 215520, "pitch": 38, "duration": 10, "velocity": 105}, {"time": 215520, "pitch": 46, "duration": 10, "velocity": 120}, {"time": 215760, "pitch": 42, "duration": 10, "velocity": 110}, {"time": 216000, "pitch": 36, "duration": 10, "velocity": 110}, {"time": 216000, "pitch": 42, "duration": 10, "velocity": 110}, {"time": 216240, "pitch": 36, "duration": 10, "velocity": 110}, {"time": 216240, "pitch": 42, "duration": 10, "velocity": 110}, {"time": 216480, "pitch": 38, "duration": 10, "velocity": 105}, {"time": 216480, "pitch": 46, "duration": 10, "velocity": 120}, {"time": 216720, "pitch": 36, "duration": 10, "velocity": 110}, {"time": 216720, "pitch": 42, "duration": 10, "velocity": 110}, {"time": 216960, "pitch": 36, "duration": 10, "velocity": 110}, {"time": 216960, "pitch": 42, "duration": 10, "velocity": 110}, {"time": 217200, "pitch": 42, "duration": 10, "velocity": 110}, {"time": 217440, "pitch": 38, "duration": 10, "velocity": 105}, {"time": 217440, "pitch": 46, "duration": 10, "velocity": 120}, {"time": 217680, "pitch": 42, "duration": 10, "velocity": 110}, {"time": 217920, "pitch": 36, "duration": 10, "velocity": 110}, {"time": 217920, "pitch": 42, "duration": 10, "velocity": 110}, {"time": 218160, "pitch": 36, "duration": 10, "velocity": 110}, {"time": 218160, "pitch": 42, "duration": 10, "velocity": 110}, {"time": 218400, "pitch": 38, "duration": 10, "velocity": 105}, {"time": 218400, "pitch": 46, "duration": 10, "velocity": 120}, {"time": 218640, "pitch": 36, "duration": 10, "velocity": 110}, {"time": 218640, "pitch": 42, "duration": 10, "velocity": 110}, {"time": 218880, "pitch": 36, "duration": 10, "velocity": 110}, {"time": 218880, "pitch": 42, "duration": 10, "velocity": 110}, {"time": 219120, "pitch": 42, "duration": 10, "velocity": 110}, {"time": 219360, "pitch": 38, "duration": 10, "velocity": 105}, {"time": 219360, "pitch": 46, "duration": 10, "velocity": 120}, {"time": 219600, "pitch": 42, "duration": 10, "velocity": 110}, {"time": 219840, "pitch": 36, "duration": 10, "velocity": 110}, {"time": 219840, "pitch": 42, "duration": 10, "velocity": 110}, {"time": 220080, "pitch": 36, "duration": 10, "velocity": 110}, {"time": 220080, "pitch": 46, "duration": 10, "velocity": 120}, {"time": 220320, "pitch": 38, "duration": 10, "velocity": 105}, {"time": 220320, "pitch": 42, "duration": 10, "velocity": 110}, {"time": 220560, "pitch": 36, "duration": 10, "velocity": 110}, {"time": 220560, "pitch": 46, "duration": 10, "velocity": 120}, {"time": 220800, "pitch": 36, "duration": 10, "velocity": 110}, {"time": 220800, "pitch": 42, "duration": 10, "velocity": 110}, {"time": 220800, "pitch": 49, "duration": 10, "velocity": 120}, {"time": 220800, "pitch": 57, "duration": 10, "velocity": 120}, {"time": 221040, "pitch": 42, "duration": 10, "velocity": 110}, {"time": 221280, "pitch": 38, "duration": 10, "velocity": 105}, {"time": 221280, "pitch": 46, "duration": 10, "velocity": 120}, {"time": 221520, "pitch": 42, "duration": 10, "velocity": 110}, {"time": 221760, "pitch": 36, "duration": 10, "velocity": 110}, {"time": 221760, "pitch": 42, "duration": 10, "velocity": 110}, {"time": 222000, "pitch": 36, "duration": 10, "velocity": 110}, {"time": 222000, "pitch": 42, "duration": 10, "velocity": 110}, {"time": 222240, "pitch": 38, "duration": 10, "velocity": 105}, {"time": 222240, "pitch": 46, "duration": 10, "velocity": 120}, {"time": 222480, "pitch": 36, "duration": 10, "velocity": 110}, {"time": 222480, "pitch": 42, "duration": 10, "velocity": 110}, {"time": 222720, "pitch": 36, "duration": 10, "velocity": 110}, {"time": 222720, "pitch": 42, "duration": 10, "velocity": 110}, {"time": 222960, "pitch": 42, "duration": 10, "velocity": 110}, {"time": 223200, "pitch": 38, "duration": 10, "velocity": 105}, {"time": 223200, "pitch": 46, "duration": 10, "velocity": 120}, {"time": 223440, "pitch": 42, "duration": 10, "velocity": 110}, {"time": 223680, "pitch": 36, "duration": 10, "velocity": 110}, {"time": 223680, "pitch": 42, "duration": 10, "velocity": 110}, {"time": 223920, "pitch": 36, "duration": 10, "velocity": 110}, {"time": 223920, "pitch": 42, "duration": 10, "velocity": 110}, {"time": 224160, "pitch": 38, "duration": 10, "velocity": 105}, {"time": 224160, "pitch": 46, "duration": 10, "velocity": 120}, {"time": 224400, "pitch": 36, "duration": 10, "velocity": 110}, {"time": 224400, "pitch": 42, "duration": 10, "velocity": 110}, {"time": 224640, "pitch": 36, "duration": 10, "velocity": 110}, {"time": 224640, "pitch": 42, "duration": 10, "velocity": 110}, {"time": 224880, "pitch": 42, "duration": 10, "velocity": 110}, {"time": 225120, "pitch": 38, "duration": 10, "velocity": 105}, {"time": 225120, "pitch": 46, "duration": 10, "velocity": 120}, {"time": 225360, "pitch": 42, "duration": 10, "velocity": 110}, {"time": 225600, "pitch": 36, "duration": 10, "velocity": 110}, {"time": 225600, "pitch": 42, "duration": 10, "velocity": 110}, {"time": 225840, "pitch": 36, "duration": 10, "velocity": 110}, {"time": 225840, "pitch": 42, "duration": 10, "velocity": 110}, {"time": 226080, "pitch": 38, "duration": 10, "velocity": 105}, {"time": 226080, "pitch": 46, "duration": 10, "velocity": 120}, {"time": 226320, "pitch": 36, "duration": 10, "velocity": 110}, {"time": 226320, "pitch": 42, "duration": 10, "velocity": 110}, {"time": 226560, "pitch": 36, "duration": 10, "velocity": 110}, {"time": 226560, "pitch": 42, "duration": 10, "velocity": 110}, {"time": 226800, "pitch": 42, "duration": 10, "velocity": 110}, {"time": 227040, "pitch": 38, "duration": 10, "velocity": 105}, {"time": 227040, "pitch": 46, "duration": 10, "velocity": 120}, {"time": 227280, "pitch": 42, "duration": 10, "velocity": 110}, {"time": 227520, "pitch": 36, "duration": 10, "velocity": 110}, {"time": 227520, "pitch": 42, "duration": 10, "velocity": 110}, {"time": 227760, "pitch": 36, "duration": 10, "velocity": 110}, {"time": 227760, "pitch": 46, "duration": 10, "velocity": 120}, {"time": 228000, "pitch": 38, "duration": 10, "velocity": 105}, {"time": 228000, "pitch": 42, "duration": 10, "velocity": 110}, {"time": 228240, "pitch": 36, "duration": 10, "velocity": 110}, {"time": 228240, "pitch": 46, "duration": 10, "velocity": 120}, {"time": 228480, "pitch": 36, "duration": 10, "velocity": 110}, {"time": 228480, "pitch": 42, "duration": 10, "velocity": 110}, {"time": 228480, "pitch": 49, "duration": 10, "velocity": 120}, {"time": 228480, "pitch": 57, "duration": 10, "velocity": 120}, {"time": 228720, "pitch": 42, "duration": 10, "velocity": 110}, {"time": 228960, "pitch": 38, "duration": 10, "velocity": 105}, {"time": 228960, "pitch": 46, "duration": 10, "velocity": 120}, {"time": 229200, "pitch": 42, "duration": 10, "velocity": 110}, {"time": 229440, "pitch": 36, "duration": 10, "velocity": 110}, {"time": 229440, "pitch": 42, "duration": 10, "velocity": 110}, {"time": 229680, "pitch": 36, "duration": 10, "velocity": 110}, {"time": 229680, "pitch": 42, "duration": 10, "velocity": 110}, {"time": 229920, "pitch": 38, "duration": 10, "velocity": 105}, {"time": 229920, "pitch": 46, "duration": 10, "velocity": 120}, {"time": 230160, "pitch": 36, "duration": 10, "velocity": 110}, {"time": 230160, "pitch": 42, "duration": 10, "velocity": 110}, {"time": 230400, "pitch": 36, "duration": 10, "velocity": 110}, {"time": 230400, "pitch": 42, "duration": 10, "velocity": 110}, {"time": 230400, "pitch": 49, "duration": 10, "velocity": 120}, {"time": 230400, "pitch": 57, "duration": 10, "velocity": 120}, {"time": 230640, "pitch": 42, "duration": 10, "velocity": 110}, {"time": 230880, "pitch": 38, "duration": 10, "velocity": 105}, {"time": 230880, "pitch": 46, "duration": 10, "velocity": 120}, {"time": 231120, "pitch": 42, "duration": 10, "velocity": 110}, {"time": 231360, "pitch": 36, "duration": 10, "velocity": 110}, {"time": 231360, "pitch": 42, "duration": 10, "velocity": 110}, {"time": 231600, "pitch": 36, "duration": 10, "velocity": 110}, {"time": 231600, "pitch": 42, "duration": 10, "velocity": 110}, {"time": 231840, "pitch": 38, "duration": 10, "velocity": 105}, {"time": 231840, "pitch": 46, "duration": 10, "velocity": 120}, {"time": 232080, "pitch": 36, "duration": 10, "velocity": 110}, {"time": 232080, "pitch": 42, "duration": 10, "velocity": 110}, {"time": 232320, "pitch": 36, "duration": 10, "velocity": 110}, {"time": 232320, "pitch": 42, "duration": 10, "velocity": 110}, {"time": 232320, "pitch": 49, "duration": 10, "velocity": 120}, {"time": 232320, "pitch": 57, "duration": 10, "velocity": 120}, {"time": 232560, "pitch": 42, "duration": 10, "velocity": 110}, {"time": 232800, "pitch": 38, "duration": 10, "velocity": 105}, {"time": 232800, "pitch": 46, "duration": 10, "velocity": 120}, {"time": 233040, "pitch": 42, "duration": 10, "velocity": 110}, {"time": 233280, "pitch": 36, "duration": 10, "velocity": 110}, {"time": 233280, "pitch": 42, "duration": 10, "velocity": 110}, {"time": 233520, "pitch": 36, "duration": 10, "velocity": 110}, {"time": 233520, "pitch": 42, "duration": 10, "velocity": 110}, {"time": 233760, "pitch": 38, "duration": 10, "velocity": 105}, {"time": 233760, "pitch": 46, "duration": 10, "velocity": 120}, {"time": 234000, "pitch": 36, "duration": 10, "velocity": 110}, {"time": 234000, "pitch": 42, "duration": 10, "velocity": 110}, {"time": 234240, "pitch": 36, "duration": 10, "velocity": 110}, {"time": 234240, "pitch": 42, "duration": 10, "velocity": 110}, {"time": 234240, "pitch": 49, "duration": 10, "velocity": 120}, {"time": 234240, "pitch": 57, "duration": 10, "velocity": 120}, {"time": 234480, "pitch": 42, "duration": 10, "velocity": 110}, {"time": 234720, "pitch": 38, "duration": 10, "velocity": 105}, {"time": 234720, "pitch": 46, "duration": 10, "velocity": 120}, {"time": 234960, "pitch": 42, "duration": 10, "velocity": 110}, {"time": 235200, "pitch": 36, "duration": 10, "velocity": 110}, {"time": 235200, "pitch": 42, "duration": 10, "velocity": 110}, {"time": 235440, "pitch": 36, "duration": 10, "velocity": 110}, {"time": 235440, "pitch": 46, "duration": 10, "velocity": 120}, {"time": 235680, "pitch": 38, "duration": 10, "velocity": 105}, {"time": 235680, "pitch": 42, "duration": 10, "velocity": 110}, {"time": 235920, "pitch": 36, "duration": 10, "velocity": 110}, {"time": 235920, "pitch": 46, "duration": 10, "velocity": 120}, {"time": 236160, "pitch": 36, "duration": 10, "velocity": 110}, {"time": 236160, "pitch": 42, "duration": 10, "velocity": 110}, {"time": 236160, "pitch": 49, "duration": 10, "velocity": 120}, {"time": 236160, "pitch": 57, "duration": 10, "velocity": 120}, {"time": 236400, "pitch": 42, "duration": 10, "velocity": 110}, {"time": 236640, "pitch": 38, "duration": 10, "velocity": 105}, {"time": 236640, "pitch": 46, "duration": 10, "velocity": 120}, {"time": 236880, "pitch": 42, "duration": 10, "velocity": 110}, {"time": 237120, "pitch": 36, "duration": 10, "velocity": 110}, {"time": 237120, "pitch": 42, "duration": 10, "velocity": 110}, {"time": 237360, "pitch": 36, "duration": 10, "velocity": 110}, {"time": 237360, "pitch": 42, "duration": 10, "velocity": 110}, {"time": 237600, "pitch": 38, "duration": 10, "velocity": 105}, {"time": 237600, "pitch": 46, "duration": 10, "velocity": 120}, {"time": 237840, "pitch": 36, "duration": 10, "velocity": 110}, {"time": 237840, "pitch": 42, "duration": 10, "velocity": 110}, {"time": 238080, "pitch": 36, "duration": 10, "velocity": 110}, {"time": 238080, "pitch": 42, "duration": 10, "velocity": 110}, {"time": 238080, "pitch": 49, "duration": 10, "velocity": 120}, {"time": 238080, "pitch": 57, "duration": 10, "velocity": 120}, {"time": 238320, "pitch": 42, "duration": 10, "velocity": 110}, {"time": 238560, "pitch": 38, "duration": 10, "velocity": 105}, {"time": 238560, "pitch": 46, "duration": 10, "velocity": 120}, {"time": 238800, "pitch": 42, "duration": 10, "velocity": 110}, {"time": 239040, "pitch": 36, "duration": 10, "velocity": 110}, {"time": 239040, "pitch": 42, "duration": 10, "velocity": 110}, {"time": 239280, "pitch": 36, "duration": 10, "velocity": 110}, {"time": 239280, "pitch": 42, "duration": 10, "velocity": 110}, {"time": 239520, "pitch": 38, "duration": 10, "velocity": 105}, {"time": 239520, "pitch": 46, "duration": 10, "velocity": 120}, {"time": 239760, "pitch": 36, "duration": 10, "velocity": 110}, {"time": 239760, "pitch": 42, "duration": 10, "velocity": 110}, {"time": 240000, "pitch": 36, "duration": 10, "velocity": 110}, {"time": 240000, "pitch": 42, "duration": 10, "velocity": 110}, {"time": 240000, "pitch": 49, "duration": 10, "velocity": 120}, {"time": 240000, "pitch": 57, "duration": 10, "velocity": 120}, {"time": 240240, "pitch": 42, "duration": 10, "velocity": 110}, {"time": 240480, "pitch": 38, "duration": 10, "velocity": 105}, {"time": 240480, "pitch": 46, "duration": 10, "velocity": 120}, {"time": 240720, "pitch": 42, "duration": 10, "velocity": 110}, {"time": 240960, "pitch": 36, "duration": 10, "velocity": 110}, {"time": 240960, "pitch": 42, "duration": 10, "velocity": 110}, {"time": 241200, "pitch": 36, "duration": 10, "velocity": 110}, {"time": 241200, "pitch": 42, "duration": 10, "velocity": 110}, {"time": 241440, "pitch": 38, "duration": 10, "velocity": 105}, {"time": 241440, "pitch": 46, "duration": 10, "velocity": 120}, {"time": 241680, "pitch": 36, "duration": 10, "velocity": 110}, {"time": 241680, "pitch": 42, "duration": 10, "velocity": 110}, {"time": 241920, "pitch": 36, "duration": 10, "velocity": 110}, {"time": 241920, "pitch": 42, "duration": 10, "velocity": 110}, {"time": 242160, "pitch": 42, "duration": 10, "velocity": 110}, {"time": 242400, "pitch": 38, "duration": 10, "velocity": 105}, {"time": 242400, "pitch": 46, "duration": 10, "velocity": 120}, {"time": 242640, "pitch": 42, "duration": 10, "velocity": 110}, {"time": 242880, "pitch": 36, "duration": 10, "velocity": 110}, {"time": 242880, "pitch": 42, "duration": 10, "velocity": 110}, {"time": 243120, "pitch": 36, "duration": 10, "velocity": 110}, {"time": 243120, "pitch": 46, "duration": 10, "velocity": 120}, {"time": 243360, "pitch": 38, "duration": 10, "velocity": 105}, {"time": 243360, "pitch": 42, "duration": 10, "velocity": 110}, {"time": 243600, "pitch": 36, "duration": 10, "velocity": 110}, {"time": 243600, "pitch": 46, "duration": 10, "velocity": 120}, {"time": 243840, "pitch": 38, "duration": 10, "velocity": 105}, {"time": 243840, "pitch": 46, "duration": 10, "velocity": 120}, {"time": 244080, "pitch": 36, "duration": 10, "velocity": 110}, {"time": 244320, "pitch": 38, "duration": 10, "velocity": 105}, {"time": 244320, "pitch": 46, "duration": 10, "velocity": 120}, {"time": 244560, "pitch": 36, "duration": 10, "velocity": 110}, {"time": 244800, "pitch": 38, "duration": 10, "velocity": 105}, {"time": 244800, "pitch": 46, "duration": 10, "velocity": 120}, {"time": 245040, "pitch": 36, "duration": 10, "velocity": 110}, {"time": 245280, "pitch": 36, "duration": 10, "velocity": 110}, {"time": 245280, "pitch": 46, "duration": 10, "velocity": 120}, {"time": 245520, "pitch": 38, "duration": 10, "velocity": 105}, {"time": 245760, "pitch": 38, "duration": 10, "velocity": 105}, {"time": 245760, "pitch": 46, "duration": 10, "velocity": 120}, {"time": 246000, "pitch": 36, "duration": 10, "velocity": 110}, {"time": 246240, "pitch": 38, "duration": 10, "velocity": 105}, {"time": 246240, "pitch": 46, "duration": 10, "velocity": 120}, {"time": 246480, "pitch": 36, "duration": 10, "velocity": 110}, {"time": 246720, "pitch": 38, "duration": 10, "velocity": 105}, {"time": 246720, "pitch": 46, "duration": 10, "velocity": 120}, {"time": 246960, "pitch": 36, "duration": 10, "velocity": 110}, {"time": 247200, "pitch": 36, "duration": 10, "velocity": 110}, {"time": 247200, "pitch": 46, "duration": 10, "velocity": 120}, {"time": 247440, "pitch": 38, "duration": 10, "velocity": 105}, {"time": 247680, "pitch": 36, "duration": 10, "velocity": 110}, {"time": 247680, "pitch": 38, "duration": 10, "velocity": 105}, {"time": 247680, "pitch": 49, "duration": 10, "velocity": 120}, {"time": 247680, "pitch": 57, "duration": 10, "velocity": 120}, {"time": 5760, "pitch": 74, "duration": 503, "velocity": 120}, {"time": 6480, "pitch": 75, "duration": 463, "velocity": 120}, {"time": 7680, "pitch": 74, "duration": 503, "velocity": 120}, {"time": 8400, "pitch": 75, "duration": 463, "velocity": 120}, {"time": 13440, "pitch": 74, "duration": 503, "velocity": 120}, {"time": 14160, "pitch": 75, "duration": 463, "velocity": 120}, {"time": 15360, "pitch": 74, "duration": 503, "velocity": 120}, {"time": 16080, "pitch": 75, "duration": 463, "velocity": 120}, {"time": 21120, "pitch": 74, "duration": 503, "velocity": 120}, {"time": 21840, "pitch": 75, "duration": 463, "velocity": 120}, {"time": 23040, "pitch": 74, "duration": 503, "velocity": 120}, {"time": 23760, "pitch": 75, "duration": 463, "velocity": 120}, {"time": 28800, "pitch": 74, "duration": 503, "velocity": 120}, {"time": 29520, "pitch": 75, "duration": 463, "velocity": 120}, {"time": 30720, "pitch": 74, "duration": 503, "velocity": 120}, {"time": 31440, "pitch": 75, "duration": 463, "velocity": 120}, {"time": 36480, "pitch": 74, "duration": 503, "velocity": 120}, {"time": 37200, "pitch": 75, "duration": 463, "velocity": 120}, {"time": 38400, "pitch": 74, "duration": 503, "velocity": 120}, {"time": 39120, "pitch": 75, "duration": 463, "velocity": 120}, {"time": 44160, "pitch": 74, "duration": 503, "velocity": 120}, {"time": 44880, "pitch": 75, "duration": 463, "velocity": 120}, {"time": 46080, "pitch": 74, "duration": 503, "velocity": 120}, {"time": 46800, "pitch": 75, "duration": 463, "velocity": 120}, {"time": 67200, "pitch": 74, "duration": 503, "velocity": 120}, {"time": 67920, "pitch": 75, "duration": 463, "velocity": 120}, {"time": 69120, "pitch": 74, "duration": 503, "velocity": 120}, {"time": 69840, "pitch": 75, "duration": 463, "velocity": 120}, {"time": 74880, "pitch": 74, "duration": 503, "velocity": 120}, {"time": 75600, "pitch": 75, "duration": 463, "velocity": 120}, {"time": 76800, "pitch": 74, "duration": 503, "velocity": 120}, {"time": 77520, "pitch": 75, "duration": 463, "velocity": 120}, {"time": 143760, "pitch": 41, "duration": 783, "velocity": 120}, {"time": 143760, "pitch": 42, "duration": 799, "velocity": 120}, {"time": 143760, "pitch": 74, "duration": 781, "velocity": 120}, {"time": 143760, "pitch": 75, "duration": 797, "velocity": 120}, {"time": 147840, "pitch": 74, "duration": 503, "velocity": 120}, {"time": 148560, "pitch": 75, "duration": 463, "velocity": 120}, {"time": 149760, "pitch": 74, "duration": 503, "velocity": 120}, {"time": 150480, "pitch": 75, "duration": 463, "velocity": 120}, {"time": 155520, "pitch": 74, "duration": 503, "velocity": 120}, {"time": 156240, "pitch": 75, "duration": 463, "velocity": 120}, {"time": 157440, "pitch": 74, "duration": 503, "velocity": 120}, {"time": 158160, "pitch": 75, "duration": 463, "velocity": 120}, {"time": 178560, "pitch": 74, "duration": 503, "velocity": 120}, {"time": 179280, "pitch": 75, "duration": 463, "velocity": 120}, {"time": 180480, "pitch": 74, "duration": 503, "velocity": 120}, {"time": 181200, "pitch": 75, "duration": 463, "velocity": 120}, {"time": 186240, "pitch": 74, "duration": 503, "velocity": 120}, {"time": 186960, "pitch": 75, "duration": 463, "velocity": 120}, {"time": 188160, "pitch": 74, "duration": 503, "velocity": 120}, {"time": 188880, "pitch": 75, "duration": 463, "velocity": 120}]}]}