{"metadata": {"schema_version": "0.1", "title": "RWC-MDB-P-2001 No. 48: Syodoubutsu / Hiroshi Sekiya", "copyright": "RWC Music Database. Copyright (C) 2001 Real World Computing Partnership (contact: Masataka GOTO <m.goto@aist.go.jp>)", "source_filename": "RM-P048.SMF_SYNC.MID", "source_format": "midi"}, "resolution": 480, "tempos": [{"time": 0, "qpm": 58.8235294117647}, {"time": 480, "qpm": 83.33333333333333}, {"time": 960, "qpm": 86.95652173913044}, {"time": 1440, "qpm": 88.23529411764706}, {"time": 1920, "qpm": 84.50704225352112}, {"time": 2400, "qpm": 88.23529411764706}, {"time": 2880, "qpm": 85.71428571428571}, {"time": 3840, "qpm": 84.50704225352112}, {"time": 4320, "qpm": 88.23529411764706}, {"time": 4800, "qpm": 85.71428571428571}, {"time": 5280, "qpm": 86.95652173913044}, {"time": 5760, "qpm": 85.71428571428571}, {"time": 8160, "qpm": 86.95652173913044}, {"time": 8640, "qpm": 85.71428571428571}, {"time": 9120, "qpm": 86.95652173913044}, {"time": 9600, "qpm": 85.71428571428571}, {"time": 10080, "qpm": 86.95652173913044}, {"time": 10560, "qpm": 85.71428571428571}, {"time": 11520, "qpm": 86.95652173913044}, {"time": 12000, "qpm": 85.71428571428571}, {"time": 12960, "qpm": 86.95652173913044}, {"time": 13920, "qpm": 84.50704225352112}, {"time": 14400, "qpm": 86.95652173913044}, {"time": 14880, "qpm": 85.71428571428571}, {"time": 15840, "qpm": 86.95652173913044}, {"time": 16320, "qpm": 85.71428571428571}, {"time": 17280, "qpm": 86.95652173913044}, {"time": 17760, "qpm": 85.71428571428571}, {"time": 18240, "qpm": 84.50704225352112}, {"time": 18720, "qpm": 86.95652173913044}, {"time": 19680, "qpm": 85.71428571428571}, {"time": 20160, "qpm": 86.95652173913044}, {"time": 20640, "qpm": 88.23529411764706}, {"time": 21120, "qpm": 85.71428571428571}, {"time": 23040, "qpm": 86.95652173913044}, {"time": 24000, "qpm": 85.71428571428571}, {"time": 25920, "qpm": 86.95652173913044}, {"time": 26400, "qpm": 85.71428571428571}, {"time": 28320, "qpm": 86.95652173913044}, {"time": 28800, "qpm": 85.71428571428571}, {"time": 29760, "qpm": 86.95652173913044}, {"time": 30240, "qpm": 85.71428571428571}, {"time": 30720, "qpm": 86.95652173913044}, {"time": 31200, "qpm": 85.71428571428571}, {"time": 32640, "qpm": 86.95652173913044}, {"time": 33120, "qpm": 85.71428571428571}, {"time": 34080, "qpm": 86.95652173913044}, {"time": 34560, "qpm": 85.71428571428571}, {"time": 37440, "qpm": 86.95652173913044}, {"time": 37920, "qpm": 85.71428571428571}, {"time": 38400, "qpm": 86.95652173913044}, {"time": 38880, "qpm": 85.71428571428571}, {"time": 39360, "qpm": 86.95652173913044}, {"time": 40320, "qpm": 85.71428571428571}, {"time": 43680, "qpm": 86.95652173913044}, {"time": 45120, "qpm": 85.71428571428571}, {"time": 46560, "qpm": 86.95652173913044}, {"time": 47040, "qpm": 85.71428571428571}, {"time": 49440, "qpm": 86.95652173913044}, {"time": 50400, "qpm": 85.71428571428571}, {"time": 52320, "qpm": 86.95652173913044}, {"time": 53280, "qpm": 85.71428571428571}, {"time": 54240, "qpm": 86.95652173913044}, {"time": 54720, "qpm": 85.71428571428571}, {"time": 55680, "qpm": 86.95652173913044}, {"time": 56640, "qpm": 85.71428571428571}, {"time": 58080, "qpm": 86.95652173913044}, {"time": 59040, "qpm": 85.71428571428571}, {"time": 60000, "qpm": 86.95652173913044}, {"time": 60960, "qpm": 85.71428571428571}, {"time": 61920, "qpm": 86.95652173913044}, {"time": 62400, "qpm": 85.71428571428571}, {"time": 62880, "qpm": 86.95652173913044}, {"time": 63360, "qpm": 85.71428571428571}, {"time": 63840, "qpm": 86.95652173913044}, {"time": 64320, "qpm": 85.71428571428571}, {"time": 69600, "qpm": 86.95652173913044}, {"time": 70080, "qpm": 85.71428571428571}, {"time": 72960, "qpm": 86.95652173913044}, {"time": 73440, "qpm": 85.71428571428571}, {"time": 75360, "qpm": 86.95652173913044}, {"time": 75840, "qpm": 85.71428571428571}, {"time": 76320, "qpm": 86.95652173913044}, {"time": 77280, "qpm": 85.71428571428571}, {"time": 79680, "qpm": 86.95652173913044}, {"time": 80160, "qpm": 85.71428571428571}, {"time": 81120, "qpm": 86.95652173913044}, {"time": 82080, "qpm": 85.71428571428571}, {"time": 82560, "qpm": 86.95652173913044}, {"time": 83040, "qpm": 85.71428571428571}, {"time": 84480, "qpm": 86.95652173913044}, {"time": 84960, "qpm": 85.71428571428571}, {"time": 85440, "qpm": 86.95652173913044}, {"time": 86880, "qpm": 85.71428571428571}, {"time": 87840, "qpm": 86.95652173913044}, {"time": 88320, "qpm": 85.71428571428571}, {"time": 89280, "qpm": 86.95652173913044}, {"time": 89760, "qpm": 85.71428571428571}, {"time": 90240, "qpm": 86.95652173913044}, {"time": 90720, "qpm": 85.71428571428571}, {"time": 91680, "qpm": 86.95652173913044}, {"time": 92640, "qpm": 85.71428571428571}, {"time": 94080, "qpm": 86.95652173913044}, {"time": 94560, "qpm": 85.71428571428571}, {"time": 97920, "qpm": 86.95652173913044}, {"time": 98400, "qpm": 85.71428571428571}, {"time": 99840, "qpm": 86.95652173913044}, {"time": 100800, "qpm": 85.71428571428571}, {"time": 101760, "qpm": 86.95652173913044}, {"time": 102240, "qpm": 85.71428571428571}, {"time": 102720, "qpm": 86.95652173913044}, {"time": 104160, "qpm": 85.71428571428571}, {"time": 105600, "qpm": 86.95652173913044}, {"time": 106080, "qpm": 85.71428571428571}, {"time": 107520, "qpm": 86.95652173913044}, {"time": 108000, "qpm": 85.71428571428571}, {"time": 108960, "qpm": 86.95652173913044}, {"time": 109440, "qpm": 85.71428571428571}, {"time": 110400, "qpm": 86.95652173913044}, {"time": 110880, "qpm": 85.71428571428571}, {"time": 113760, "qpm": 86.95652173913044}, {"time": 114240, "qpm": 85.71428571428571}, {"time": 117120, "qpm": 86.95652173913044}, {"time": 117600, "qpm": 85.71428571428571}, {"time": 119520, "qpm": 86.95652173913044}, {"time": 120000, "qpm": 85.71428571428571}, {"time": 120480, "qpm": 86.95652173913044}, {"time": 121440, "qpm": 85.71428571428571}, {"time": 122880, "qpm": 86.95652173913044}, {"time": 123360, "qpm": 85.71428571428571}, {"time": 126720, "qpm": 86.95652173913044}, {"time": 127200, "qpm": 85.71428571428571}, {"time": 127680, "qpm": 86.95652173913044}, {"time": 128160, "qpm": 85.71428571428571}, {"time": 128640, "qpm": 86.95652173913044}, {"time": 129120, "qpm": 85.71428571428571}, {"time": 131040, "qpm": 86.95652173913044}, {"time": 131520, "qpm": 85.71428571428571}, {"time": 132480, "qpm": 86.95652173913044}, {"time": 132960, "qpm": 85.71428571428571}, {"time": 134400, "qpm": 86.95652173913044}, {"time": 134880, "qpm": 85.71428571428571}, {"time": 135360, "qpm": 86.95652173913044}, {"time": 135840, "qpm": 85.71428571428571}, {"time": 137280, "qpm": 86.95652173913044}, {"time": 137760, "qpm": 85.71428571428571}, {"time": 138240, "qpm": 86.95652173913044}, {"time": 138720, "qpm": 85.71428571428571}, {"time": 139680, "qpm": 86.95652173913044}, {"time": 140640, "qpm": 85.71428571428571}, {"time": 142080, "qpm": 86.95652173913044}, {"time": 143040, "qpm": 85.71428571428571}, {"time": 145440, "qpm": 86.95652173913044}, {"time": 146400, "qpm": 85.71428571428571}, {"time": 152160, "qpm": 86.95652173913044}, {"time": 153120, "qpm": 85.71428571428571}, {"time": 155040, "qpm": 86.95652173913044}, {"time": 156480, "qpm": 85.71428571428571}, {"time": 157440, "qpm": 86.95652173913044}, {"time": 157920, "qpm": 85.71428571428571}, {"time": 158880, "qpm": 86.95652173913044}, {"time": 159360, "qpm": 85.71428571428571}, {"time": 160320, "qpm": 86.95652173913044}, {"time": 160800, "qpm": 85.71428571428571}, {"time": 161280, "qpm": 86.95652173913044}, {"time": 161760, "qpm": 85.71428571428571}, {"time": 163200, "qpm": 86.95652173913044}, {"time": 165120, "qpm": 85.71428571428571}, {"time": 169920, "qpm": 86.95652173913044}, {"time": 170400, "qpm": 85.71428571428571}, {"time": 170880, "qpm": 86.95652173913044}, {"time": 171360, "qpm": 85.71428571428571}, {"time": 171840, "qpm": 86.95652173913044}, {"time": 172800, "qpm": 85.71428571428571}, {"time": 175680, "qpm": 86.95652173913044}, {"time": 176160, "qpm": 85.71428571428571}, {"time": 178080, "qpm": 86.95652173913044}, {"time": 179520, "qpm": 85.71428571428571}, {"time": 180480, "qpm": 86.95652173913044}, {"time": 181920, "qpm": 85.71428571428571}], "key_signatures": [{"time": 0, "root": 0, "mode": "major"}], "time_signatures": [{"time": 0, "numerator": 3, "denominator": 4}, {"time": 1440, "numerator": 4, "denominator": 4}], "tracks": [{"program": 0, "is_drum": false, "name": "Piano", "notes": [{"time": 1437, "pitch": 46, "duration": 1921, "velocity": 90}, {"time": 1437, "pitch": 58, "duration": 1861, "velocity": 110}, {"time": 1437, "pitch": 62, "duration": 1871, "velocity": 110}, {"time": 1437, "pitch": 65, "duration": 1871, "velocity": 110}, {"time": 3358, "pitch": 43, "duration": 1900, "velocity": 90}, {"time": 3358, "pitch": 46, "duration": 10, "velocity": 90}, {"time": 3358, "pitch": 55, "duration": 1850, "velocity": 110}, {"time": 3358, "pitch": 58, "duration": 1870, "velocity": 110}, {"time": 3358, "pitch": 62, "duration": 1870, "velocity": 110}, {"time": 5278, "pitch": 46, "duration": 924, "velocity": 90}, {"time": 5278, "pitch": 58, "duration": 914, "velocity": 110}, {"time": 5278, "pitch": 62, "duration": 904, "velocity": 110}, {"time": 5278, "pitch": 65, "duration": 894, "velocity": 110}, {"time": 6242, "pitch": 44, "duration": 887, "velocity": 90}, {"time": 6242, "pitch": 56, "duration": 867, "velocity": 110}, {"time": 6242, "pitch": 60, "duration": 857, "velocity": 110}, {"time": 6242, "pitch": 65, "duration": 857, "velocity": 110}, {"time": 7198, "pitch": 43, "duration": 954, "velocity": 90}, {"time": 7198, "pitch": 55, "duration": 914, "velocity": 110}, {"time": 7198, "pitch": 58, "duration": 924, "velocity": 110}, {"time": 7198, "pitch": 63, "duration": 924, "velocity": 110}, {"time": 8162, "pitch": 42, "duration": 887, "velocity": 90}, {"time": 8162, "pitch": 54, "duration": 867, "velocity": 110}, {"time": 8162, "pitch": 58, "duration": 887, "velocity": 110}, {"time": 8162, "pitch": 60, "duration": 897, "velocity": 110}, {"time": 8162, "pitch": 63, "duration": 897, "velocity": 110}, {"time": 9119, "pitch": 46, "duration": 1890, "velocity": 90}, {"time": 9119, "pitch": 58, "duration": 1841, "velocity": 110}, {"time": 9119, "pitch": 62, "duration": 1841, "velocity": 110}, {"time": 9119, "pitch": 65, "duration": 1831, "velocity": 110}, {"time": 11039, "pitch": 43, "duration": 1881, "velocity": 90}, {"time": 11039, "pitch": 55, "duration": 1851, "velocity": 110}, {"time": 11039, "pitch": 58, "duration": 1861, "velocity": 110}, {"time": 11039, "pitch": 62, "duration": 1861, "velocity": 110}, {"time": 12960, "pitch": 46, "duration": 933, "velocity": 90}, {"time": 12960, "pitch": 58, "duration": 913, "velocity": 110}, {"time": 12960, "pitch": 62, "duration": 913, "velocity": 110}, {"time": 12960, "pitch": 65, "duration": 893, "velocity": 110}, {"time": 13923, "pitch": 44, "duration": 748, "velocity": 90}, {"time": 13923, "pitch": 56, "duration": 828, "velocity": 110}, {"time": 13923, "pitch": 60, "duration": 828, "velocity": 110}, {"time": 13923, "pitch": 65, "duration": 818, "velocity": 110}, {"time": 14880, "pitch": 43, "duration": 947, "velocity": 90}, {"time": 14880, "pitch": 55, "duration": 907, "velocity": 110}, {"time": 14880, "pitch": 58, "duration": 917, "velocity": 110}, {"time": 14880, "pitch": 63, "duration": 917, "velocity": 110}, {"time": 15837, "pitch": 42, "duration": 414, "velocity": 90}, {"time": 15837, "pitch": 54, "duration": 394, "velocity": 110}, {"time": 15837, "pitch": 58, "duration": 414, "velocity": 110}, {"time": 15837, "pitch": 60, "duration": 425, "velocity": 110}, {"time": 15837, "pitch": 63, "duration": 425, "velocity": 110}, {"time": 16322, "pitch": 42, "duration": 459, "velocity": 90}, {"time": 16322, "pitch": 54, "duration": 439, "velocity": 110}, {"time": 16322, "pitch": 58, "duration": 439, "velocity": 110}, {"time": 16322, "pitch": 60, "duration": 439, "velocity": 110}, {"time": 16322, "pitch": 65, "duration": 449, "velocity": 110}, {"time": 31200, "pitch": 39, "duration": 439, "velocity": 90}, {"time": 31200, "pitch": 55, "duration": 419, "velocity": 110}, {"time": 31200, "pitch": 58, "duration": 429, "velocity": 110}, {"time": 31200, "pitch": 62, "duration": 429, "velocity": 110}, {"time": 31679, "pitch": 41, "duration": 428, "velocity": 90}, {"time": 31679, "pitch": 55, "duration": 428, "velocity": 110}, {"time": 31679, "pitch": 60, "duration": 438, "velocity": 110}, {"time": 31679, "pitch": 62, "duration": 428, "velocity": 110}, {"time": 32157, "pitch": 39, "duration": 1612, "velocity": 90}, {"time": 32157, "pitch": 55, "duration": 1372, "velocity": 110}, {"time": 32157, "pitch": 58, "duration": 1362, "velocity": 110}, {"time": 32157, "pitch": 62, "duration": 1372, "velocity": 110}, {"time": 33360, "pitch": 51, "duration": 548, "velocity": 110}, {"time": 33599, "pitch": 58, "duration": 339, "velocity": 110}, {"time": 33599, "pitch": 62, "duration": 329, "velocity": 110}, {"time": 33838, "pitch": 39, "duration": 80, "velocity": 90}, {"time": 33988, "pitch": 38, "duration": 90, "velocity": 90}, {"time": 33988, "pitch": 53, "duration": 90, "velocity": 110}, {"time": 33988, "pitch": 58, "duration": 90, "velocity": 110}, {"time": 33988, "pitch": 62, "duration": 90, "velocity": 110}, {"time": 34078, "pitch": 38, "duration": 1651, "velocity": 90}, {"time": 34078, "pitch": 53, "duration": 923, "velocity": 110}, {"time": 34078, "pitch": 58, "duration": 933, "velocity": 110}, {"time": 34078, "pitch": 62, "duration": 933, "velocity": 110}, {"time": 34802, "pitch": 50, "duration": 1146, "velocity": 110}, {"time": 35041, "pitch": 58, "duration": 419, "velocity": 110}, {"time": 35041, "pitch": 65, "duration": 419, "velocity": 110}, {"time": 35520, "pitch": 58, "duration": 438, "velocity": 110}, {"time": 35520, "pitch": 62, "duration": 438, "velocity": 110}, {"time": 35759, "pitch": 38, "duration": 219, "velocity": 90}, {"time": 35998, "pitch": 41, "duration": 645, "velocity": 90}, {"time": 35998, "pitch": 53, "duration": 764, "velocity": 110}, {"time": 35998, "pitch": 58, "duration": 784, "velocity": 110}, {"time": 35998, "pitch": 60, "duration": 774, "velocity": 110}, {"time": 35998, "pitch": 63, "duration": 784, "velocity": 110}, {"time": 36722, "pitch": 41, "duration": 140, "velocity": 90}, {"time": 36872, "pitch": 42, "duration": 907, "velocity": 90}, {"time": 36872, "pitch": 54, "duration": 747, "velocity": 110}, {"time": 36872, "pitch": 57, "duration": 737, "velocity": 110}, {"time": 36872, "pitch": 60, "duration": 757, "velocity": 110}, {"time": 36872, "pitch": 63, "duration": 757, "velocity": 110}, {"time": 37679, "pitch": 54, "duration": 170, "velocity": 110}, {"time": 37679, "pitch": 57, "duration": 150, "velocity": 110}, {"time": 37679, "pitch": 60, "duration": 180, "velocity": 110}, {"time": 37679, "pitch": 63, "duration": 180, "velocity": 110}, {"time": 37829, "pitch": 42, "duration": 69, "velocity": 90}, {"time": 37918, "pitch": 43, "duration": 379, "velocity": 90}, {"time": 37918, "pitch": 55, "duration": 369, "velocity": 110}, {"time": 37918, "pitch": 58, "duration": 379, "velocity": 110}, {"time": 37918, "pitch": 62, "duration": 379, "velocity": 110}, {"time": 38397, "pitch": 45, "duration": 424, "velocity": 90}, {"time": 38397, "pitch": 54, "duration": 404, "velocity": 110}, {"time": 38397, "pitch": 57, "duration": 384, "velocity": 110}, {"time": 38397, "pitch": 62, "duration": 414, "velocity": 110}, {"time": 38882, "pitch": 46, "duration": 389, "velocity": 90}, {"time": 38882, "pitch": 55, "duration": 379, "velocity": 110}, {"time": 38882, "pitch": 58, "duration": 379, "velocity": 110}, {"time": 38882, "pitch": 62, "duration": 389, "velocity": 110}, {"time": 39360, "pitch": 46, "duration": 449, "velocity": 90}, {"time": 39360, "pitch": 53, "duration": 409, "velocity": 110}, {"time": 39360, "pitch": 56, "duration": 419, "velocity": 110}, {"time": 39360, "pitch": 59, "duration": 409, "velocity": 110}, {"time": 39360, "pitch": 62, "duration": 419, "velocity": 110}, {"time": 39839, "pitch": 39, "duration": 1741, "velocity": 90}, {"time": 39839, "pitch": 55, "duration": 802, "velocity": 110}, {"time": 39839, "pitch": 58, "duration": 802, "velocity": 110}, {"time": 39839, "pitch": 62, "duration": 812, "velocity": 110}, {"time": 40560, "pitch": 51, "duration": 741, "velocity": 110}, {"time": 40712, "pitch": 58, "duration": 908, "velocity": 110}, {"time": 40712, "pitch": 65, "duration": 898, "velocity": 110}, {"time": 41520, "pitch": 51, "duration": 160, "velocity": 110}, {"time": 41759, "pitch": 38, "duration": 1602, "velocity": 90}, {"time": 41759, "pitch": 53, "duration": 379, "velocity": 110}, {"time": 41759, "pitch": 58, "duration": 913, "velocity": 110}, {"time": 41759, "pitch": 62, "duration": 913, "velocity": 110}, {"time": 41998, "pitch": 50, "duration": 894, "velocity": 110}, {"time": 42238, "pitch": 53, "duration": 445, "velocity": 110}, {"time": 42723, "pitch": 53, "duration": 857, "velocity": 110}, {"time": 42723, "pitch": 58, "duration": 857, "velocity": 110}, {"time": 42723, "pitch": 62, "duration": 857, "velocity": 110}, {"time": 42962, "pitch": 50, "duration": 658, "velocity": 110}, {"time": 43441, "pitch": 38, "duration": 189, "velocity": 90}, {"time": 43680, "pitch": 48, "duration": 209, "velocity": 90}, {"time": 43680, "pitch": 55, "duration": 229, "velocity": 110}, {"time": 43680, "pitch": 58, "duration": 219, "velocity": 110}, {"time": 43680, "pitch": 63, "duration": 229, "velocity": 110}, {"time": 44158, "pitch": 48, "duration": 212, "velocity": 90}, {"time": 44158, "pitch": 55, "duration": 324, "velocity": 110}, {"time": 44158, "pitch": 58, "duration": 324, "velocity": 110}, {"time": 44158, "pitch": 63, "duration": 324, "velocity": 110}, {"time": 44401, "pitch": 43, "duration": 121, "velocity": 90}, {"time": 44552, "pitch": 44, "duration": 759, "velocity": 90}, {"time": 44552, "pitch": 55, "duration": 560, "velocity": 110}, {"time": 44552, "pitch": 58, "duration": 550, "velocity": 110}, {"time": 44552, "pitch": 63, "duration": 550, "velocity": 110}, {"time": 45122, "pitch": 55, "duration": 378, "velocity": 110}, {"time": 45122, "pitch": 58, "duration": 378, "velocity": 110}, {"time": 45122, "pitch": 60, "duration": 388, "velocity": 110}, {"time": 45361, "pitch": 44, "duration": 179, "velocity": 90}, {"time": 45600, "pitch": 44, "duration": 399, "velocity": 90}, {"time": 45600, "pitch": 56, "duration": 389, "velocity": 110}, {"time": 45600, "pitch": 60, "duration": 369, "velocity": 110}, {"time": 45600, "pitch": 63, "duration": 379, "velocity": 110}, {"time": 45600, "pitch": 67, "duration": 369, "velocity": 110}, {"time": 46079, "pitch": 43, "duration": 388, "velocity": 90}, {"time": 46079, "pitch": 55, "duration": 358, "velocity": 110}, {"time": 46079, "pitch": 58, "duration": 378, "velocity": 110}, {"time": 46079, "pitch": 62, "duration": 358, "velocity": 110}, {"time": 46079, "pitch": 65, "duration": 348, "velocity": 110}, {"time": 46557, "pitch": 41, "duration": 425, "velocity": 90}, {"time": 46557, "pitch": 53, "duration": 374, "velocity": 110}, {"time": 46557, "pitch": 56, "duration": 384, "velocity": 110}, {"time": 46557, "pitch": 60, "duration": 374, "velocity": 110}, {"time": 46557, "pitch": 63, "duration": 394, "velocity": 110}, {"time": 47042, "pitch": 39, "duration": 319, "velocity": 90}, {"time": 47042, "pitch": 57, "duration": 329, "velocity": 110}, {"time": 47042, "pitch": 60, "duration": 329, "velocity": 110}, {"time": 47042, "pitch": 65, "duration": 329, "velocity": 110}, {"time": 47521, "pitch": 46, "duration": 817, "velocity": 90}, {"time": 47521, "pitch": 53, "duration": 817, "velocity": 110}, {"time": 47521, "pitch": 58, "duration": 827, "velocity": 110}, {"time": 47521, "pitch": 62, "duration": 827, "velocity": 110}, {"time": 48477, "pitch": 45, "duration": 814, "velocity": 90}, {"time": 48477, "pitch": 53, "duration": 805, "velocity": 110}, {"time": 48477, "pitch": 57, "duration": 814, "velocity": 110}, {"time": 48477, "pitch": 60, "duration": 834, "velocity": 110}, {"time": 49441, "pitch": 43, "duration": 419, "velocity": 90}, {"time": 49441, "pitch": 55, "duration": 419, "velocity": 110}, {"time": 49441, "pitch": 58, "duration": 429, "velocity": 110}, {"time": 49441, "pitch": 62, "duration": 419, "velocity": 110}, {"time": 49919, "pitch": 43, "duration": 60, "velocity": 90}, {"time": 49919, "pitch": 55, "duration": 40, "velocity": 110}, {"time": 49919, "pitch": 58, "duration": 50, "velocity": 110}, {"time": 49919, "pitch": 62, "duration": 50, "velocity": 110}, {"time": 50159, "pitch": 41, "duration": 864, "velocity": 90}, {"time": 50159, "pitch": 53, "duration": 643, "velocity": 110}, {"time": 50159, "pitch": 56, "duration": 643, "velocity": 110}, {"time": 50159, "pitch": 62, "duration": 653, "velocity": 110}, {"time": 50883, "pitch": 56, "duration": 429, "velocity": 110}, {"time": 50883, "pitch": 62, "duration": 429, "velocity": 110}, {"time": 50883, "pitch": 65, "duration": 429, "velocity": 110}, {"time": 51122, "pitch": 41, "duration": 150, "velocity": 90}, {"time": 51361, "pitch": 39, "duration": 897, "velocity": 90}, {"time": 51361, "pitch": 55, "duration": 858, "velocity": 110}, {"time": 51361, "pitch": 58, "duration": 867, "velocity": 110}, {"time": 51361, "pitch": 63, "duration": 867, "velocity": 110}, {"time": 52318, "pitch": 38, "duration": 661, "velocity": 90}, {"time": 52318, "pitch": 53, "duration": 863, "velocity": 110}, {"time": 52318, "pitch": 58, "duration": 883, "velocity": 110}, {"time": 52318, "pitch": 62, "duration": 893, "velocity": 110}, {"time": 53039, "pitch": 38, "duration": 213, "velocity": 90}, {"time": 53282, "pitch": 36, "duration": 179, "velocity": 90}, {"time": 53282, "pitch": 55, "duration": 179, "velocity": 110}, {"time": 53282, "pitch": 58, "duration": 179, "velocity": 110}, {"time": 53282, "pitch": 63, "duration": 189, "velocity": 110}, {"time": 53521, "pitch": 38, "duration": 130, "velocity": 90}, {"time": 53521, "pitch": 55, "duration": 110, "velocity": 110}, {"time": 53521, "pitch": 58, "duration": 110, "velocity": 110}, {"time": 53521, "pitch": 63, "duration": 110, "velocity": 110}, {"time": 53760, "pitch": 39, "duration": 90, "velocity": 90}, {"time": 53760, "pitch": 55, "duration": 70, "velocity": 110}, {"time": 53760, "pitch": 58, "duration": 90, "velocity": 110}, {"time": 53760, "pitch": 63, "duration": 110, "velocity": 110}, {"time": 53999, "pitch": 41, "duration": 920, "velocity": 90}, {"time": 53999, "pitch": 57, "duration": 638, "velocity": 110}, {"time": 53999, "pitch": 60, "duration": 648, "velocity": 110}, {"time": 53999, "pitch": 65, "duration": 648, "velocity": 110}, {"time": 54478, "pitch": 48, "duration": 269, "velocity": 90}, {"time": 54717, "pitch": 53, "duration": 324, "velocity": 90}, {"time": 54717, "pitch": 57, "duration": 172, "velocity": 110}, {"time": 54717, "pitch": 60, "duration": 172, "velocity": 110}, {"time": 54717, "pitch": 67, "duration": 172, "velocity": 110}, {"time": 54960, "pitch": 48, "duration": 192, "velocity": 90}, {"time": 54960, "pitch": 57, "duration": 161, "velocity": 110}, {"time": 54960, "pitch": 60, "duration": 151, "velocity": 110}, {"time": 54960, "pitch": 65, "duration": 151, "velocity": 110}, {"time": 55202, "pitch": 46, "duration": 877, "velocity": 90}, {"time": 55202, "pitch": 53, "duration": 857, "velocity": 110}, {"time": 55202, "pitch": 58, "duration": 867, "velocity": 110}, {"time": 55202, "pitch": 62, "duration": 867, "velocity": 110}, {"time": 56159, "pitch": 45, "duration": 842, "velocity": 90}, {"time": 56159, "pitch": 53, "duration": 822, "velocity": 110}, {"time": 56159, "pitch": 57, "duration": 822, "velocity": 110}, {"time": 56159, "pitch": 60, "duration": 863, "velocity": 110}, {"time": 57123, "pitch": 43, "duration": 358, "velocity": 90}, {"time": 57123, "pitch": 55, "duration": 368, "velocity": 110}, {"time": 57123, "pitch": 58, "duration": 388, "velocity": 110}, {"time": 57123, "pitch": 62, "duration": 398, "velocity": 110}, {"time": 57601, "pitch": 43, "duration": 60, "velocity": 90}, {"time": 57601, "pitch": 55, "duration": 40, "velocity": 110}, {"time": 57601, "pitch": 58, "duration": 40, "velocity": 110}, {"time": 57601, "pitch": 62, "duration": 60, "velocity": 110}, {"time": 57840, "pitch": 41, "duration": 829, "velocity": 90}, {"time": 57840, "pitch": 56, "duration": 1112, "velocity": 110}, {"time": 57840, "pitch": 62, "duration": 1102, "velocity": 110}, {"time": 57840, "pitch": 65, "duration": 1112, "velocity": 110}, {"time": 58800, "pitch": 41, "duration": 132, "velocity": 90}, {"time": 59043, "pitch": 39, "duration": 668, "velocity": 90}, {"time": 59043, "pitch": 55, "duration": 897, "velocity": 110}, {"time": 59043, "pitch": 58, "duration": 907, "velocity": 110}, {"time": 59043, "pitch": 62, "duration": 907, "velocity": 110}, {"time": 59761, "pitch": 39, "duration": 239, "velocity": 90}, {"time": 60000, "pitch": 38, "duration": 827, "velocity": 90}, {"time": 60000, "pitch": 53, "duration": 807, "velocity": 110}, {"time": 60000, "pitch": 58, "duration": 817, "velocity": 110}, {"time": 60000, "pitch": 62, "duration": 827, "velocity": 110}, {"time": 60957, "pitch": 36, "duration": 172, "velocity": 90}, {"time": 60957, "pitch": 55, "duration": 172, "velocity": 110}, {"time": 60957, "pitch": 58, "duration": 182, "velocity": 110}, {"time": 60957, "pitch": 63, "duration": 182, "velocity": 110}, {"time": 61199, "pitch": 38, "duration": 101, "velocity": 90}, {"time": 61199, "pitch": 55, "duration": 81, "velocity": 110}, {"time": 61199, "pitch": 58, "duration": 81, "velocity": 110}, {"time": 61199, "pitch": 63, "duration": 101, "velocity": 110}, {"time": 61442, "pitch": 39, "duration": 90, "velocity": 90}, {"time": 61442, "pitch": 55, "duration": 90, "velocity": 110}, {"time": 61442, "pitch": 58, "duration": 100, "velocity": 110}, {"time": 61442, "pitch": 63, "duration": 110, "velocity": 110}, {"time": 61681, "pitch": 41, "duration": 1096, "velocity": 90}, {"time": 61681, "pitch": 57, "duration": 668, "velocity": 110}, {"time": 61681, "pitch": 60, "duration": 668, "velocity": 110}, {"time": 61681, "pitch": 65, "duration": 678, "velocity": 110}, {"time": 62160, "pitch": 48, "duration": 607, "velocity": 90}, {"time": 62399, "pitch": 53, "duration": 378, "velocity": 90}, {"time": 62399, "pitch": 57, "duration": 368, "velocity": 110}, {"time": 62399, "pitch": 60, "duration": 359, "velocity": 110}, {"time": 62399, "pitch": 65, "duration": 368, "velocity": 110}, {"time": 64798, "pitch": 46, "duration": 212, "velocity": 105}, {"time": 64798, "pitch": 58, "duration": 212, "velocity": 75}, {"time": 65283, "pitch": 46, "duration": 209, "velocity": 105}, {"time": 65283, "pitch": 58, "duration": 209, "velocity": 75}, {"time": 65761, "pitch": 41, "duration": 170, "velocity": 105}, {"time": 65761, "pitch": 53, "duration": 170, "velocity": 75}, {"time": 66000, "pitch": 41, "duration": 170, "velocity": 105}, {"time": 66000, "pitch": 53, "duration": 170, "velocity": 75}, {"time": 66240, "pitch": 41, "duration": 229, "velocity": 105}, {"time": 66240, "pitch": 53, "duration": 229, "velocity": 75}, {"time": 66718, "pitch": 43, "duration": 212, "velocity": 105}, {"time": 66718, "pitch": 55, "duration": 212, "velocity": 75}, {"time": 67203, "pitch": 43, "duration": 209, "velocity": 105}, {"time": 67203, "pitch": 55, "duration": 209, "velocity": 75}, {"time": 67682, "pitch": 39, "duration": 169, "velocity": 105}, {"time": 67682, "pitch": 51, "duration": 169, "velocity": 75}, {"time": 67921, "pitch": 39, "duration": 169, "velocity": 105}, {"time": 67921, "pitch": 51, "duration": 169, "velocity": 75}, {"time": 68160, "pitch": 39, "duration": 229, "velocity": 105}, {"time": 68160, "pitch": 51, "duration": 229, "velocity": 75}, {"time": 68638, "pitch": 46, "duration": 210, "velocity": 105}, {"time": 68638, "pitch": 58, "duration": 210, "velocity": 75}, {"time": 69117, "pitch": 46, "duration": 212, "velocity": 105}, {"time": 69117, "pitch": 58, "duration": 212, "velocity": 75}, {"time": 69602, "pitch": 41, "duration": 169, "velocity": 105}, {"time": 69602, "pitch": 53, "duration": 169, "velocity": 75}, {"time": 69841, "pitch": 41, "duration": 170, "velocity": 105}, {"time": 69841, "pitch": 53, "duration": 170, "velocity": 75}, {"time": 70080, "pitch": 41, "duration": 230, "velocity": 105}, {"time": 70080, "pitch": 53, "duration": 230, "velocity": 75}, {"time": 70559, "pitch": 43, "duration": 209, "velocity": 105}, {"time": 70559, "pitch": 55, "duration": 209, "velocity": 75}, {"time": 71037, "pitch": 43, "duration": 212, "velocity": 105}, {"time": 71037, "pitch": 55, "duration": 212, "velocity": 75}, {"time": 71522, "pitch": 39, "duration": 170, "velocity": 105}, {"time": 71522, "pitch": 51, "duration": 170, "velocity": 75}, {"time": 71762, "pitch": 39, "duration": 169, "velocity": 105}, {"time": 71762, "pitch": 51, "duration": 169, "velocity": 75}, {"time": 72001, "pitch": 41, "duration": 169, "velocity": 105}, {"time": 72001, "pitch": 53, "duration": 169, "velocity": 75}, {"time": 72240, "pitch": 44, "duration": 169, "velocity": 105}, {"time": 72240, "pitch": 56, "duration": 169, "velocity": 75}, {"time": 72479, "pitch": 46, "duration": 210, "velocity": 105}, {"time": 72479, "pitch": 58, "duration": 210, "velocity": 75}, {"time": 72958, "pitch": 46, "duration": 212, "velocity": 105}, {"time": 72958, "pitch": 58, "duration": 212, "velocity": 75}, {"time": 73443, "pitch": 41, "duration": 169, "velocity": 105}, {"time": 73443, "pitch": 53, "duration": 169, "velocity": 75}, {"time": 73682, "pitch": 41, "duration": 169, "velocity": 105}, {"time": 73682, "pitch": 53, "duration": 169, "velocity": 75}, {"time": 73921, "pitch": 41, "duration": 229, "velocity": 105}, {"time": 73921, "pitch": 53, "duration": 229, "velocity": 75}, {"time": 74400, "pitch": 43, "duration": 209, "velocity": 105}, {"time": 74400, "pitch": 55, "duration": 209, "velocity": 75}, {"time": 74878, "pitch": 43, "duration": 212, "velocity": 105}, {"time": 74878, "pitch": 55, "duration": 212, "velocity": 75}, {"time": 75363, "pitch": 39, "duration": 170, "velocity": 105}, {"time": 75363, "pitch": 51, "duration": 170, "velocity": 75}, {"time": 75602, "pitch": 39, "duration": 170, "velocity": 105}, {"time": 75602, "pitch": 51, "duration": 170, "velocity": 75}, {"time": 75842, "pitch": 39, "duration": 229, "velocity": 105}, {"time": 75842, "pitch": 51, "duration": 229, "velocity": 75}, {"time": 76320, "pitch": 46, "duration": 209, "velocity": 105}, {"time": 76320, "pitch": 58, "duration": 209, "velocity": 75}, {"time": 76798, "pitch": 46, "duration": 210, "velocity": 105}, {"time": 76798, "pitch": 58, "duration": 210, "velocity": 75}, {"time": 77277, "pitch": 41, "duration": 172, "velocity": 105}, {"time": 77277, "pitch": 53, "duration": 172, "velocity": 75}, {"time": 77519, "pitch": 41, "duration": 172, "velocity": 105}, {"time": 77519, "pitch": 53, "duration": 172, "velocity": 75}, {"time": 77762, "pitch": 41, "duration": 229, "velocity": 105}, {"time": 77762, "pitch": 53, "duration": 229, "velocity": 75}, {"time": 78241, "pitch": 43, "duration": 209, "velocity": 105}, {"time": 78241, "pitch": 55, "duration": 209, "velocity": 75}, {"time": 78719, "pitch": 43, "duration": 209, "velocity": 105}, {"time": 78719, "pitch": 55, "duration": 209, "velocity": 75}, {"time": 79197, "pitch": 39, "duration": 445, "velocity": 90}, {"time": 79197, "pitch": 55, "duration": 425, "velocity": 110}, {"time": 79197, "pitch": 58, "duration": 435, "velocity": 110}, {"time": 79197, "pitch": 62, "duration": 435, "velocity": 110}, {"time": 79683, "pitch": 41, "duration": 428, "velocity": 90}, {"time": 79683, "pitch": 55, "duration": 428, "velocity": 110}, {"time": 79683, "pitch": 60, "duration": 438, "velocity": 110}, {"time": 79683, "pitch": 62, "duration": 428, "velocity": 110}, {"time": 80161, "pitch": 39, "duration": 1611, "velocity": 90}, {"time": 80161, "pitch": 55, "duration": 1371, "velocity": 110}, {"time": 80161, "pitch": 58, "duration": 1361, "velocity": 110}, {"time": 80161, "pitch": 62, "duration": 1371, "velocity": 110}, {"time": 81360, "pitch": 51, "duration": 552, "velocity": 110}, {"time": 81603, "pitch": 58, "duration": 339, "velocity": 110}, {"time": 81603, "pitch": 62, "duration": 329, "velocity": 110}, {"time": 81842, "pitch": 39, "duration": 80, "velocity": 90}, {"time": 81992, "pitch": 38, "duration": 89, "velocity": 90}, {"time": 81992, "pitch": 53, "duration": 89, "velocity": 110}, {"time": 81992, "pitch": 58, "duration": 89, "velocity": 110}, {"time": 81992, "pitch": 62, "duration": 89, "velocity": 110}, {"time": 82081, "pitch": 38, "duration": 1652, "velocity": 90}, {"time": 82081, "pitch": 53, "duration": 917, "velocity": 110}, {"time": 82081, "pitch": 58, "duration": 927, "velocity": 110}, {"time": 82081, "pitch": 62, "duration": 927, "velocity": 110}, {"time": 82799, "pitch": 50, "duration": 1153, "velocity": 110}, {"time": 83038, "pitch": 58, "duration": 425, "velocity": 110}, {"time": 83038, "pitch": 65, "duration": 425, "velocity": 110}, {"time": 83523, "pitch": 58, "duration": 439, "velocity": 110}, {"time": 83523, "pitch": 62, "duration": 439, "velocity": 110}, {"time": 83763, "pitch": 38, "duration": 219, "velocity": 90}, {"time": 84002, "pitch": 41, "duration": 638, "velocity": 90}, {"time": 84002, "pitch": 53, "duration": 757, "velocity": 110}, {"time": 84002, "pitch": 58, "duration": 777, "velocity": 110}, {"time": 84002, "pitch": 60, "duration": 767, "velocity": 110}, {"time": 84002, "pitch": 63, "duration": 777, "velocity": 110}, {"time": 84719, "pitch": 41, "duration": 140, "velocity": 90}, {"time": 84869, "pitch": 42, "duration": 912, "velocity": 90}, {"time": 84869, "pitch": 54, "duration": 750, "velocity": 110}, {"time": 84869, "pitch": 57, "duration": 740, "velocity": 110}, {"time": 84869, "pitch": 60, "duration": 760, "velocity": 110}, {"time": 84869, "pitch": 63, "duration": 760, "velocity": 110}, {"time": 85680, "pitch": 54, "duration": 171, "velocity": 110}, {"time": 85680, "pitch": 57, "duration": 151, "velocity": 110}, {"time": 85680, "pitch": 60, "duration": 182, "velocity": 110}, {"time": 85680, "pitch": 63, "duration": 182, "velocity": 110}, {"time": 85831, "pitch": 42, "duration": 71, "velocity": 90}, {"time": 85922, "pitch": 43, "duration": 379, "velocity": 90}, {"time": 85922, "pitch": 55, "duration": 369, "velocity": 110}, {"time": 85922, "pitch": 58, "duration": 379, "velocity": 110}, {"time": 85922, "pitch": 62, "duration": 379, "velocity": 110}, {"time": 86401, "pitch": 45, "duration": 418, "velocity": 90}, {"time": 86401, "pitch": 54, "duration": 398, "velocity": 110}, {"time": 86401, "pitch": 57, "duration": 378, "velocity": 110}, {"time": 86401, "pitch": 62, "duration": 408, "velocity": 110}, {"time": 86879, "pitch": 46, "duration": 389, "velocity": 90}, {"time": 86879, "pitch": 55, "duration": 379, "velocity": 110}, {"time": 86879, "pitch": 58, "duration": 379, "velocity": 110}, {"time": 86879, "pitch": 62, "duration": 389, "velocity": 110}, {"time": 87357, "pitch": 46, "duration": 455, "velocity": 90}, {"time": 87357, "pitch": 53, "duration": 415, "velocity": 110}, {"time": 87357, "pitch": 56, "duration": 425, "velocity": 110}, {"time": 87357, "pitch": 59, "duration": 415, "velocity": 110}, {"time": 87357, "pitch": 62, "duration": 425, "velocity": 110}, {"time": 87843, "pitch": 39, "duration": 1738, "velocity": 90}, {"time": 87843, "pitch": 55, "duration": 797, "velocity": 110}, {"time": 87843, "pitch": 58, "duration": 797, "velocity": 110}, {"time": 87843, "pitch": 62, "duration": 807, "velocity": 110}, {"time": 88560, "pitch": 51, "duration": 738, "velocity": 110}, {"time": 88710, "pitch": 58, "duration": 912, "velocity": 110}, {"time": 88710, "pitch": 65, "duration": 901, "velocity": 110}, {"time": 89520, "pitch": 51, "duration": 162, "velocity": 110}, {"time": 89763, "pitch": 38, "duration": 1595, "velocity": 90}, {"time": 89763, "pitch": 53, "duration": 379, "velocity": 110}, {"time": 89763, "pitch": 58, "duration": 907, "velocity": 110}, {"time": 89763, "pitch": 62, "duration": 907, "velocity": 110}, {"time": 90002, "pitch": 50, "duration": 887, "velocity": 110}, {"time": 90241, "pitch": 53, "duration": 439, "velocity": 110}, {"time": 90720, "pitch": 53, "duration": 857, "velocity": 110}, {"time": 90720, "pitch": 58, "duration": 857, "velocity": 110}, {"time": 90720, "pitch": 62, "duration": 857, "velocity": 110}, {"time": 90959, "pitch": 50, "duration": 658, "velocity": 110}, {"time": 91437, "pitch": 38, "duration": 190, "velocity": 90}, {"time": 91677, "pitch": 48, "duration": 212, "velocity": 90}, {"time": 91677, "pitch": 55, "duration": 232, "velocity": 110}, {"time": 91677, "pitch": 58, "duration": 222, "velocity": 110}, {"time": 91677, "pitch": 63, "duration": 232, "velocity": 110}, {"time": 92162, "pitch": 48, "duration": 209, "velocity": 90}, {"time": 92162, "pitch": 55, "duration": 319, "velocity": 110}, {"time": 92162, "pitch": 58, "duration": 319, "velocity": 110}, {"time": 92162, "pitch": 63, "duration": 319, "velocity": 110}, {"time": 92401, "pitch": 43, "duration": 120, "velocity": 90}, {"time": 92551, "pitch": 44, "duration": 757, "velocity": 90}, {"time": 92551, "pitch": 55, "duration": 558, "velocity": 110}, {"time": 92551, "pitch": 58, "duration": 548, "velocity": 110}, {"time": 92551, "pitch": 63, "duration": 548, "velocity": 110}, {"time": 93119, "pitch": 55, "duration": 378, "velocity": 110}, {"time": 93119, "pitch": 58, "duration": 378, "velocity": 110}, {"time": 93119, "pitch": 60, "duration": 388, "velocity": 110}, {"time": 93358, "pitch": 44, "duration": 179, "velocity": 90}, {"time": 93597, "pitch": 44, "duration": 404, "velocity": 90}, {"time": 93597, "pitch": 56, "duration": 394, "velocity": 110}, {"time": 93597, "pitch": 60, "duration": 374, "velocity": 110}, {"time": 93597, "pitch": 63, "duration": 384, "velocity": 110}, {"time": 93597, "pitch": 67, "duration": 374, "velocity": 110}, {"time": 94082, "pitch": 43, "duration": 389, "velocity": 90}, {"time": 94082, "pitch": 55, "duration": 359, "velocity": 110}, {"time": 94082, "pitch": 58, "duration": 379, "velocity": 110}, {"time": 94082, "pitch": 62, "duration": 359, "velocity": 110}, {"time": 94082, "pitch": 65, "duration": 349, "velocity": 110}, {"time": 94561, "pitch": 41, "duration": 418, "velocity": 90}, {"time": 94561, "pitch": 53, "duration": 368, "velocity": 110}, {"time": 94561, "pitch": 56, "duration": 378, "velocity": 110}, {"time": 94561, "pitch": 60, "duration": 368, "velocity": 110}, {"time": 94561, "pitch": 63, "duration": 388, "velocity": 110}, {"time": 95039, "pitch": 39, "duration": 319, "velocity": 90}, {"time": 95039, "pitch": 57, "duration": 329, "velocity": 110}, {"time": 95039, "pitch": 60, "duration": 329, "velocity": 110}, {"time": 95039, "pitch": 65, "duration": 329, "velocity": 110}, {"time": 95517, "pitch": 46, "duration": 825, "velocity": 90}, {"time": 95517, "pitch": 53, "duration": 825, "velocity": 110}, {"time": 95517, "pitch": 58, "duration": 835, "velocity": 110}, {"time": 95517, "pitch": 62, "duration": 835, "velocity": 110}, {"time": 96481, "pitch": 45, "duration": 807, "velocity": 90}, {"time": 96481, "pitch": 53, "duration": 797, "velocity": 110}, {"time": 96481, "pitch": 57, "duration": 807, "velocity": 110}, {"time": 96481, "pitch": 60, "duration": 827, "velocity": 110}, {"time": 97438, "pitch": 43, "duration": 425, "velocity": 90}, {"time": 97438, "pitch": 55, "duration": 425, "velocity": 110}, {"time": 97438, "pitch": 58, "duration": 435, "velocity": 110}, {"time": 97438, "pitch": 62, "duration": 425, "velocity": 110}, {"time": 97923, "pitch": 43, "duration": 60, "velocity": 90}, {"time": 97923, "pitch": 55, "duration": 40, "velocity": 110}, {"time": 97923, "pitch": 58, "duration": 50, "velocity": 110}, {"time": 97923, "pitch": 62, "duration": 50, "velocity": 110}, {"time": 98162, "pitch": 41, "duration": 857, "velocity": 90}, {"time": 98162, "pitch": 53, "duration": 638, "velocity": 110}, {"time": 98162, "pitch": 56, "duration": 638, "velocity": 110}, {"time": 98162, "pitch": 62, "duration": 648, "velocity": 110}, {"time": 98880, "pitch": 56, "duration": 428, "velocity": 110}, {"time": 98880, "pitch": 62, "duration": 428, "velocity": 110}, {"time": 98880, "pitch": 65, "duration": 428, "velocity": 110}, {"time": 99119, "pitch": 41, "duration": 150, "velocity": 90}, {"time": 99358, "pitch": 39, "duration": 903, "velocity": 90}, {"time": 99358, "pitch": 55, "duration": 863, "velocity": 110}, {"time": 99358, "pitch": 58, "duration": 873, "velocity": 110}, {"time": 99358, "pitch": 63, "duration": 873, "velocity": 110}, {"time": 100322, "pitch": 38, "duration": 658, "velocity": 90}, {"time": 100322, "pitch": 53, "duration": 857, "velocity": 110}, {"time": 100322, "pitch": 58, "duration": 877, "velocity": 110}, {"time": 100322, "pitch": 62, "duration": 887, "velocity": 110}, {"time": 101040, "pitch": 38, "duration": 209, "velocity": 90}, {"time": 101279, "pitch": 36, "duration": 179, "velocity": 90}, {"time": 101279, "pitch": 55, "duration": 179, "velocity": 110}, {"time": 101279, "pitch": 58, "duration": 179, "velocity": 110}, {"time": 101279, "pitch": 63, "duration": 189, "velocity": 110}, {"time": 101518, "pitch": 38, "duration": 130, "velocity": 90}, {"time": 101518, "pitch": 55, "duration": 110, "velocity": 110}, {"time": 101518, "pitch": 58, "duration": 110, "velocity": 110}, {"time": 101518, "pitch": 63, "duration": 110, "velocity": 110}, {"time": 101757, "pitch": 39, "duration": 91, "velocity": 90}, {"time": 101757, "pitch": 55, "duration": 71, "velocity": 110}, {"time": 101757, "pitch": 58, "duration": 91, "velocity": 110}, {"time": 101757, "pitch": 63, "duration": 111, "velocity": 110}, {"time": 102000, "pitch": 41, "duration": 920, "velocity": 90}, {"time": 102000, "pitch": 57, "duration": 641, "velocity": 110}, {"time": 102000, "pitch": 60, "duration": 651, "velocity": 110}, {"time": 102000, "pitch": 65, "duration": 651, "velocity": 110}, {"time": 102482, "pitch": 48, "duration": 269, "velocity": 90}, {"time": 102721, "pitch": 53, "duration": 319, "velocity": 90}, {"time": 102721, "pitch": 57, "duration": 169, "velocity": 110}, {"time": 102721, "pitch": 60, "duration": 169, "velocity": 110}, {"time": 102721, "pitch": 67, "duration": 169, "velocity": 110}, {"time": 102960, "pitch": 48, "duration": 189, "velocity": 90}, {"time": 102960, "pitch": 57, "duration": 159, "velocity": 110}, {"time": 102960, "pitch": 60, "duration": 149, "velocity": 110}, {"time": 102960, "pitch": 65, "duration": 149, "velocity": 110}, {"time": 103199, "pitch": 46, "duration": 883, "velocity": 90}, {"time": 103199, "pitch": 53, "duration": 863, "velocity": 110}, {"time": 103199, "pitch": 58, "duration": 873, "velocity": 110}, {"time": 103199, "pitch": 62, "duration": 873, "velocity": 110}, {"time": 104163, "pitch": 45, "duration": 837, "velocity": 90}, {"time": 104163, "pitch": 53, "duration": 817, "velocity": 110}, {"time": 104163, "pitch": 57, "duration": 817, "velocity": 110}, {"time": 104163, "pitch": 60, "duration": 857, "velocity": 110}, {"time": 105120, "pitch": 43, "duration": 358, "velocity": 90}, {"time": 105120, "pitch": 55, "duration": 368, "velocity": 110}, {"time": 105120, "pitch": 58, "duration": 388, "velocity": 110}, {"time": 105120, "pitch": 62, "duration": 398, "velocity": 110}, {"time": 105598, "pitch": 43, "duration": 61, "velocity": 90}, {"time": 105598, "pitch": 55, "duration": 40, "velocity": 110}, {"time": 105598, "pitch": 58, "duration": 40, "velocity": 110}, {"time": 105598, "pitch": 62, "duration": 61, "velocity": 110}, {"time": 105841, "pitch": 41, "duration": 830, "velocity": 90}, {"time": 105841, "pitch": 56, "duration": 1109, "velocity": 110}, {"time": 105841, "pitch": 62, "duration": 1099, "velocity": 110}, {"time": 105841, "pitch": 65, "duration": 1109, "velocity": 110}, {"time": 106801, "pitch": 41, "duration": 129, "velocity": 90}, {"time": 107040, "pitch": 39, "duration": 668, "velocity": 90}, {"time": 107040, "pitch": 55, "duration": 897, "velocity": 110}, {"time": 107040, "pitch": 58, "duration": 907, "velocity": 110}, {"time": 107040, "pitch": 62, "duration": 907, "velocity": 110}, {"time": 107758, "pitch": 39, "duration": 239, "velocity": 90}, {"time": 107997, "pitch": 38, "duration": 834, "velocity": 90}, {"time": 107997, "pitch": 53, "duration": 814, "velocity": 110}, {"time": 107997, "pitch": 58, "duration": 824, "velocity": 110}, {"time": 107997, "pitch": 62, "duration": 834, "velocity": 110}, {"time": 108960, "pitch": 36, "duration": 170, "velocity": 90}, {"time": 108960, "pitch": 55, "duration": 170, "velocity": 110}, {"time": 108960, "pitch": 58, "duration": 180, "velocity": 110}, {"time": 108960, "pitch": 63, "duration": 180, "velocity": 110}, {"time": 109200, "pitch": 38, "duration": 99, "velocity": 90}, {"time": 109200, "pitch": 55, "duration": 79, "velocity": 110}, {"time": 109200, "pitch": 58, "duration": 79, "velocity": 110}, {"time": 109200, "pitch": 63, "duration": 99, "velocity": 110}, {"time": 109439, "pitch": 39, "duration": 90, "velocity": 90}, {"time": 109439, "pitch": 55, "duration": 90, "velocity": 110}, {"time": 109439, "pitch": 58, "duration": 100, "velocity": 110}, {"time": 109439, "pitch": 63, "duration": 109, "velocity": 110}, {"time": 109678, "pitch": 41, "duration": 1103, "velocity": 90}, {"time": 109678, "pitch": 57, "duration": 674, "velocity": 110}, {"time": 109678, "pitch": 60, "duration": 674, "velocity": 110}, {"time": 109678, "pitch": 65, "duration": 684, "velocity": 110}, {"time": 110160, "pitch": 48, "duration": 611, "velocity": 90}, {"time": 110402, "pitch": 53, "duration": 379, "velocity": 90}, {"time": 110402, "pitch": 57, "duration": 369, "velocity": 110}, {"time": 110402, "pitch": 60, "duration": 359, "velocity": 110}, {"time": 110402, "pitch": 65, "duration": 369, "velocity": 110}, {"time": 110881, "pitch": 46, "duration": 199, "velocity": 90}, {"time": 110881, "pitch": 58, "duration": 189, "velocity": 110}, {"time": 110881, "pitch": 61, "duration": 189, "velocity": 110}, {"time": 110881, "pitch": 65, "duration": 199, "velocity": 110}, {"time": 111359, "pitch": 46, "duration": 210, "velocity": 90}, {"time": 111359, "pitch": 58, "duration": 190, "velocity": 110}, {"time": 111359, "pitch": 61, "duration": 190, "velocity": 110}, {"time": 111359, "pitch": 65, "duration": 180, "velocity": 110}, {"time": 111838, "pitch": 39, "duration": 141, "velocity": 90}, {"time": 111838, "pitch": 54, "duration": 141, "velocity": 110}, {"time": 111838, "pitch": 58, "duration": 131, "velocity": 110}, {"time": 111838, "pitch": 61, "duration": 151, "velocity": 110}, {"time": 112080, "pitch": 39, "duration": 122, "velocity": 90}, {"time": 112080, "pitch": 54, "duration": 132, "velocity": 110}, {"time": 112080, "pitch": 58, "duration": 132, "velocity": 110}, {"time": 112080, "pitch": 61, "duration": 132, "velocity": 110}, {"time": 112323, "pitch": 39, "duration": 209, "velocity": 90}, {"time": 112323, "pitch": 54, "duration": 189, "velocity": 110}, {"time": 112323, "pitch": 58, "duration": 179, "velocity": 110}, {"time": 112323, "pitch": 61, "duration": 199, "velocity": 110}, {"time": 112801, "pitch": 42, "duration": 180, "velocity": 90}, {"time": 112801, "pitch": 54, "duration": 200, "velocity": 110}, {"time": 112801, "pitch": 58, "duration": 190, "velocity": 110}, {"time": 112801, "pitch": 61, "duration": 210, "velocity": 110}, {"time": 113280, "pitch": 42, "duration": 189, "velocity": 90}, {"time": 113280, "pitch": 54, "duration": 189, "velocity": 110}, {"time": 113280, "pitch": 58, "duration": 179, "velocity": 110}, {"time": 113280, "pitch": 61, "duration": 189, "velocity": 110}, {"time": 113758, "pitch": 41, "duration": 111, "velocity": 90}, {"time": 113758, "pitch": 53, "duration": 101, "velocity": 110}, {"time": 113758, "pitch": 56, "duration": 111, "velocity": 110}, {"time": 113758, "pitch": 60, "duration": 111, "velocity": 110}, {"time": 114001, "pitch": 41, "duration": 141, "velocity": 90}, {"time": 114001, "pitch": 53, "duration": 141, "velocity": 110}, {"time": 114001, "pitch": 56, "duration": 151, "velocity": 110}, {"time": 114001, "pitch": 60, "duration": 151, "velocity": 110}, {"time": 114243, "pitch": 41, "duration": 190, "velocity": 90}, {"time": 114243, "pitch": 53, "duration": 180, "velocity": 110}, {"time": 114243, "pitch": 56, "duration": 190, "velocity": 110}, {"time": 114243, "pitch": 60, "duration": 200, "velocity": 110}, {"time": 114722, "pitch": 46, "duration": 199, "velocity": 90}, {"time": 114722, "pitch": 58, "duration": 189, "velocity": 110}, {"time": 114722, "pitch": 61, "duration": 189, "velocity": 110}, {"time": 114722, "pitch": 65, "duration": 199, "velocity": 110}, {"time": 115200, "pitch": 46, "duration": 209, "velocity": 90}, {"time": 115200, "pitch": 58, "duration": 189, "velocity": 110}, {"time": 115200, "pitch": 61, "duration": 189, "velocity": 110}, {"time": 115200, "pitch": 65, "duration": 180, "velocity": 110}, {"time": 115679, "pitch": 39, "duration": 139, "velocity": 90}, {"time": 115679, "pitch": 54, "duration": 139, "velocity": 110}, {"time": 115679, "pitch": 58, "duration": 129, "velocity": 110}, {"time": 115679, "pitch": 61, "duration": 149, "velocity": 110}, {"time": 115918, "pitch": 39, "duration": 119, "velocity": 90}, {"time": 115918, "pitch": 54, "duration": 129, "velocity": 110}, {"time": 115918, "pitch": 58, "duration": 129, "velocity": 110}, {"time": 115918, "pitch": 61, "duration": 129, "velocity": 110}, {"time": 116157, "pitch": 39, "duration": 212, "velocity": 90}, {"time": 116157, "pitch": 54, "duration": 192, "velocity": 110}, {"time": 116157, "pitch": 58, "duration": 182, "velocity": 110}, {"time": 116157, "pitch": 61, "duration": 202, "velocity": 110}, {"time": 116642, "pitch": 42, "duration": 180, "velocity": 90}, {"time": 116642, "pitch": 54, "duration": 199, "velocity": 110}, {"time": 116642, "pitch": 58, "duration": 190, "velocity": 110}, {"time": 116642, "pitch": 61, "duration": 209, "velocity": 110}, {"time": 117121, "pitch": 42, "duration": 189, "velocity": 90}, {"time": 117121, "pitch": 54, "duration": 189, "velocity": 110}, {"time": 117121, "pitch": 58, "duration": 179, "velocity": 110}, {"time": 117121, "pitch": 61, "duration": 189, "velocity": 110}, {"time": 117599, "pitch": 41, "duration": 110, "velocity": 90}, {"time": 117599, "pitch": 53, "duration": 100, "velocity": 110}, {"time": 117599, "pitch": 56, "duration": 110, "velocity": 110}, {"time": 117599, "pitch": 60, "duration": 110, "velocity": 110}, {"time": 117838, "pitch": 41, "duration": 140, "velocity": 90}, {"time": 117838, "pitch": 53, "duration": 140, "velocity": 110}, {"time": 117838, "pitch": 56, "duration": 150, "velocity": 110}, {"time": 117838, "pitch": 60, "duration": 150, "velocity": 110}, {"time": 118077, "pitch": 42, "duration": 192, "velocity": 90}, {"time": 118077, "pitch": 54, "duration": 182, "velocity": 110}, {"time": 118077, "pitch": 58, "duration": 182, "velocity": 110}, {"time": 118077, "pitch": 61, "duration": 182, "velocity": 110}, {"time": 118320, "pitch": 44, "duration": 192, "velocity": 90}, {"time": 118320, "pitch": 56, "duration": 182, "velocity": 110}, {"time": 118320, "pitch": 60, "duration": 192, "velocity": 110}, {"time": 118320, "pitch": 63, "duration": 202, "velocity": 110}, {"time": 118563, "pitch": 46, "duration": 916, "velocity": 90}, {"time": 118563, "pitch": 53, "duration": 887, "velocity": 110}, {"time": 118563, "pitch": 58, "duration": 887, "velocity": 110}, {"time": 118563, "pitch": 62, "duration": 887, "velocity": 110}, {"time": 119509, "pitch": 41, "duration": 934, "velocity": 90}, {"time": 119519, "pitch": 53, "duration": 893, "velocity": 110}, {"time": 119519, "pitch": 57, "duration": 893, "velocity": 110}, {"time": 119519, "pitch": 60, "duration": 893, "velocity": 110}, {"time": 120473, "pitch": 43, "duration": 10, "velocity": 90}, {"time": 120483, "pitch": 43, "duration": 927, "velocity": 90}, {"time": 120483, "pitch": 55, "duration": 897, "velocity": 110}, {"time": 120483, "pitch": 58, "duration": 897, "velocity": 110}, {"time": 120483, "pitch": 62, "duration": 897, "velocity": 110}, {"time": 121440, "pitch": 39, "duration": 933, "velocity": 90}, {"time": 121440, "pitch": 55, "duration": 883, "velocity": 110}, {"time": 121440, "pitch": 58, "duration": 893, "velocity": 110}, {"time": 121440, "pitch": 62, "duration": 872, "velocity": 110}, {"time": 122403, "pitch": 46, "duration": 917, "velocity": 90}, {"time": 122403, "pitch": 53, "duration": 877, "velocity": 110}, {"time": 122403, "pitch": 58, "duration": 887, "velocity": 110}, {"time": 122403, "pitch": 62, "duration": 887, "velocity": 110}, {"time": 123360, "pitch": 41, "duration": 927, "velocity": 90}, {"time": 123360, "pitch": 53, "duration": 877, "velocity": 110}, {"time": 123360, "pitch": 57, "duration": 887, "velocity": 110}, {"time": 123360, "pitch": 60, "duration": 887, "velocity": 110}, {"time": 124317, "pitch": 43, "duration": 954, "velocity": 90}, {"time": 124317, "pitch": 55, "duration": 904, "velocity": 110}, {"time": 124317, "pitch": 58, "duration": 904, "velocity": 110}, {"time": 124317, "pitch": 62, "duration": 904, "velocity": 110}, {"time": 125281, "pitch": 39, "duration": 956, "velocity": 90}, {"time": 125281, "pitch": 55, "duration": 398, "velocity": 110}, {"time": 125281, "pitch": 58, "duration": 408, "velocity": 110}, {"time": 125281, "pitch": 63, "duration": 408, "velocity": 110}, {"time": 125759, "pitch": 55, "duration": 409, "velocity": 110}, {"time": 125759, "pitch": 58, "duration": 419, "velocity": 110}, {"time": 125759, "pitch": 65, "duration": 399, "velocity": 110}, {"time": 125998, "pitch": 51, "duration": 190, "velocity": 90}, {"time": 126237, "pitch": 39, "duration": 41, "velocity": 90}, {"time": 126237, "pitch": 53, "duration": 854, "velocity": 110}, {"time": 126237, "pitch": 58, "duration": 874, "velocity": 110}, {"time": 126237, "pitch": 62, "duration": 874, "velocity": 110}, {"time": 126247, "pitch": 46, "duration": 934, "velocity": 90}, {"time": 127181, "pitch": 41, "duration": 927, "velocity": 90}, {"time": 127201, "pitch": 53, "duration": 877, "velocity": 110}, {"time": 127201, "pitch": 57, "duration": 887, "velocity": 110}, {"time": 127201, "pitch": 60, "duration": 907, "velocity": 110}, {"time": 128148, "pitch": 43, "duration": 10, "velocity": 90}, {"time": 128158, "pitch": 43, "duration": 944, "velocity": 90}, {"time": 128158, "pitch": 55, "duration": 625, "velocity": 110}, {"time": 128158, "pitch": 58, "duration": 764, "velocity": 110}, {"time": 128158, "pitch": 62, "duration": 814, "velocity": 110}, {"time": 128882, "pitch": 55, "duration": 140, "velocity": 110}, {"time": 129032, "pitch": 58, "duration": 518, "velocity": 110}, {"time": 129032, "pitch": 62, "duration": 518, "velocity": 110}, {"time": 129092, "pitch": 39, "duration": 916, "velocity": 90}, {"time": 129361, "pitch": 53, "duration": 179, "velocity": 110}, {"time": 129600, "pitch": 51, "duration": 408, "velocity": 90}, {"time": 129600, "pitch": 53, "duration": 159, "velocity": 110}, {"time": 129600, "pitch": 58, "duration": 179, "velocity": 110}, {"time": 129839, "pitch": 53, "duration": 169, "velocity": 110}, {"time": 129839, "pitch": 58, "duration": 169, "velocity": 110}, {"time": 129839, "pitch": 60, "duration": 179, "velocity": 110}, {"time": 130068, "pitch": 46, "duration": 10, "velocity": 90}, {"time": 130078, "pitch": 46, "duration": 964, "velocity": 90}, {"time": 130078, "pitch": 53, "duration": 903, "velocity": 110}, {"time": 130078, "pitch": 58, "duration": 903, "velocity": 110}, {"time": 130078, "pitch": 62, "duration": 913, "velocity": 110}, {"time": 131042, "pitch": 41, "duration": 648, "velocity": 90}, {"time": 131042, "pitch": 53, "duration": 399, "velocity": 110}, {"time": 131042, "pitch": 57, "duration": 428, "velocity": 110}, {"time": 131042, "pitch": 60, "duration": 428, "velocity": 110}, {"time": 131281, "pitch": 48, "duration": 678, "velocity": 90}, {"time": 131520, "pitch": 57, "duration": 429, "velocity": 110}, {"time": 131520, "pitch": 60, "duration": 429, "velocity": 110}, {"time": 131520, "pitch": 65, "duration": 419, "velocity": 110}, {"time": 131759, "pitch": 41, "duration": 180, "velocity": 90}, {"time": 131999, "pitch": 43, "duration": 893, "velocity": 90}, {"time": 131999, "pitch": 58, "duration": 882, "velocity": 110}, {"time": 131999, "pitch": 60, "duration": 882, "velocity": 110}, {"time": 131999, "pitch": 65, "duration": 882, "velocity": 110}, {"time": 132962, "pitch": 39, "duration": 439, "velocity": 90}, {"time": 132962, "pitch": 55, "duration": 419, "velocity": 110}, {"time": 132962, "pitch": 58, "duration": 429, "velocity": 110}, {"time": 132962, "pitch": 62, "duration": 429, "velocity": 110}, {"time": 133441, "pitch": 41, "duration": 428, "velocity": 90}, {"time": 133441, "pitch": 55, "duration": 428, "velocity": 110}, {"time": 133441, "pitch": 60, "duration": 438, "velocity": 110}, {"time": 133441, "pitch": 62, "duration": 428, "velocity": 110}, {"time": 133919, "pitch": 55, "duration": 170, "velocity": 110}, {"time": 133919, "pitch": 58, "duration": 170, "velocity": 110}, {"time": 133919, "pitch": 62, "duration": 180, "velocity": 110}, {"time": 133929, "pitch": 39, "duration": 179, "velocity": 90}, {"time": 134398, "pitch": 55, "duration": 181, "velocity": 110}, {"time": 134398, "pitch": 58, "duration": 171, "velocity": 110}, {"time": 134398, "pitch": 62, "duration": 192, "velocity": 110}, {"time": 134408, "pitch": 39, "duration": 182, "velocity": 90}, {"time": 134873, "pitch": 39, "duration": 119, "velocity": 90}, {"time": 134883, "pitch": 55, "duration": 139, "velocity": 110}, {"time": 134883, "pitch": 58, "duration": 139, "velocity": 110}, {"time": 134883, "pitch": 62, "duration": 149, "velocity": 110}, {"time": 135122, "pitch": 39, "duration": 120, "velocity": 90}, {"time": 135122, "pitch": 55, "duration": 120, "velocity": 110}, {"time": 135122, "pitch": 58, "duration": 120, "velocity": 110}, {"time": 135122, "pitch": 62, "duration": 130, "velocity": 110}, {"time": 135351, "pitch": 39, "duration": 190, "velocity": 90}, {"time": 135361, "pitch": 55, "duration": 180, "velocity": 110}, {"time": 135361, "pitch": 58, "duration": 170, "velocity": 110}, {"time": 135361, "pitch": 62, "duration": 190, "velocity": 110}, {"time": 135840, "pitch": 53, "duration": 159, "velocity": 110}, {"time": 135840, "pitch": 58, "duration": 159, "velocity": 110}, {"time": 135840, "pitch": 62, "duration": 169, "velocity": 110}, {"time": 135859, "pitch": 38, "duration": 180, "velocity": 90}, {"time": 136318, "pitch": 53, "duration": 172, "velocity": 110}, {"time": 136318, "pitch": 58, "duration": 172, "velocity": 110}, {"time": 136318, "pitch": 62, "duration": 182, "velocity": 110}, {"time": 136338, "pitch": 38, "duration": 172, "velocity": 90}, {"time": 136803, "pitch": 53, "duration": 140, "velocity": 110}, {"time": 136803, "pitch": 58, "duration": 150, "velocity": 110}, {"time": 136803, "pitch": 62, "duration": 150, "velocity": 110}, {"time": 136813, "pitch": 38, "duration": 120, "velocity": 90}, {"time": 137042, "pitch": 53, "duration": 130, "velocity": 110}, {"time": 137042, "pitch": 58, "duration": 140, "velocity": 110}, {"time": 137042, "pitch": 62, "duration": 140, "velocity": 110}, {"time": 137052, "pitch": 38, "duration": 110, "velocity": 90}, {"time": 137282, "pitch": 38, "duration": 179, "velocity": 90}, {"time": 137282, "pitch": 53, "duration": 169, "velocity": 110}, {"time": 137282, "pitch": 58, "duration": 169, "velocity": 110}, {"time": 137282, "pitch": 62, "duration": 179, "velocity": 110}, {"time": 137760, "pitch": 53, "duration": 179, "velocity": 110}, {"time": 137760, "pitch": 58, "duration": 189, "velocity": 110}, {"time": 137760, "pitch": 60, "duration": 189, "velocity": 110}, {"time": 137760, "pitch": 63, "duration": 199, "velocity": 110}, {"time": 137770, "pitch": 41, "duration": 179, "velocity": 90}, {"time": 138238, "pitch": 53, "duration": 190, "velocity": 110}, {"time": 138238, "pitch": 58, "duration": 190, "velocity": 110}, {"time": 138238, "pitch": 60, "duration": 190, "velocity": 110}, {"time": 138238, "pitch": 63, "duration": 200, "velocity": 110}, {"time": 138258, "pitch": 41, "duration": 200, "velocity": 90}, {"time": 138717, "pitch": 42, "duration": 131, "velocity": 90}, {"time": 138717, "pitch": 54, "duration": 131, "velocity": 110}, {"time": 138717, "pitch": 57, "duration": 121, "velocity": 110}, {"time": 138717, "pitch": 60, "duration": 131, "velocity": 110}, {"time": 138717, "pitch": 63, "duration": 151, "velocity": 110}, {"time": 138959, "pitch": 42, "duration": 112, "velocity": 90}, {"time": 138959, "pitch": 54, "duration": 122, "velocity": 110}, {"time": 138959, "pitch": 57, "duration": 122, "velocity": 110}, {"time": 138959, "pitch": 60, "duration": 132, "velocity": 110}, {"time": 138959, "pitch": 63, "duration": 142, "velocity": 110}, {"time": 139192, "pitch": 42, "duration": 209, "velocity": 90}, {"time": 139202, "pitch": 54, "duration": 209, "velocity": 110}, {"time": 139202, "pitch": 57, "duration": 209, "velocity": 110}, {"time": 139202, "pitch": 60, "duration": 219, "velocity": 110}, {"time": 139202, "pitch": 63, "duration": 229, "velocity": 110}, {"time": 139680, "pitch": 43, "duration": 379, "velocity": 90}, {"time": 139680, "pitch": 55, "duration": 369, "velocity": 110}, {"time": 139680, "pitch": 58, "duration": 379, "velocity": 110}, {"time": 139680, "pitch": 62, "duration": 379, "velocity": 110}, {"time": 140159, "pitch": 45, "duration": 418, "velocity": 90}, {"time": 140159, "pitch": 54, "duration": 398, "velocity": 110}, {"time": 140159, "pitch": 57, "duration": 379, "velocity": 110}, {"time": 140159, "pitch": 62, "duration": 408, "velocity": 110}, {"time": 140637, "pitch": 46, "duration": 394, "velocity": 90}, {"time": 140637, "pitch": 55, "duration": 384, "velocity": 110}, {"time": 140637, "pitch": 58, "duration": 384, "velocity": 110}, {"time": 140637, "pitch": 62, "duration": 394, "velocity": 110}, {"time": 141122, "pitch": 46, "duration": 449, "velocity": 90}, {"time": 141122, "pitch": 53, "duration": 409, "velocity": 110}, {"time": 141122, "pitch": 56, "duration": 419, "velocity": 110}, {"time": 141122, "pitch": 59, "duration": 409, "velocity": 110}, {"time": 141122, "pitch": 62, "duration": 419, "velocity": 110}, {"time": 141601, "pitch": 39, "duration": 1741, "velocity": 90}, {"time": 141601, "pitch": 55, "duration": 797, "velocity": 110}, {"time": 141601, "pitch": 58, "duration": 797, "velocity": 110}, {"time": 141601, "pitch": 62, "duration": 807, "velocity": 110}, {"time": 142318, "pitch": 51, "duration": 745, "velocity": 110}, {"time": 142468, "pitch": 58, "duration": 914, "velocity": 110}, {"time": 142468, "pitch": 65, "duration": 904, "velocity": 110}, {"time": 143282, "pitch": 51, "duration": 160, "velocity": 110}, {"time": 143521, "pitch": 38, "duration": 1602, "velocity": 90}, {"time": 143521, "pitch": 53, "duration": 379, "velocity": 110}, {"time": 143521, "pitch": 58, "duration": 907, "velocity": 110}, {"time": 143521, "pitch": 62, "duration": 907, "velocity": 110}, {"time": 143760, "pitch": 50, "duration": 890, "velocity": 110}, {"time": 144000, "pitch": 53, "duration": 438, "velocity": 110}, {"time": 144478, "pitch": 53, "duration": 864, "velocity": 110}, {"time": 144478, "pitch": 58, "duration": 864, "velocity": 110}, {"time": 144478, "pitch": 62, "duration": 864, "velocity": 110}, {"time": 144721, "pitch": 50, "duration": 661, "velocity": 110}, {"time": 145202, "pitch": 38, "duration": 190, "velocity": 90}, {"time": 145442, "pitch": 48, "duration": 209, "velocity": 90}, {"time": 145442, "pitch": 55, "duration": 229, "velocity": 110}, {"time": 145442, "pitch": 58, "duration": 219, "velocity": 110}, {"time": 145442, "pitch": 63, "duration": 229, "velocity": 110}, {"time": 145920, "pitch": 48, "duration": 209, "velocity": 90}, {"time": 145920, "pitch": 55, "duration": 319, "velocity": 110}, {"time": 145920, "pitch": 58, "duration": 319, "velocity": 110}, {"time": 145920, "pitch": 63, "duration": 319, "velocity": 110}, {"time": 146159, "pitch": 43, "duration": 120, "velocity": 90}, {"time": 146309, "pitch": 44, "duration": 760, "velocity": 90}, {"time": 146309, "pitch": 55, "duration": 558, "velocity": 110}, {"time": 146309, "pitch": 58, "duration": 548, "velocity": 110}, {"time": 146309, "pitch": 63, "duration": 548, "velocity": 110}, {"time": 146877, "pitch": 55, "duration": 384, "velocity": 110}, {"time": 146877, "pitch": 58, "duration": 384, "velocity": 110}, {"time": 146877, "pitch": 60, "duration": 394, "velocity": 110}, {"time": 147119, "pitch": 44, "duration": 182, "velocity": 90}, {"time": 147362, "pitch": 44, "duration": 399, "velocity": 90}, {"time": 147362, "pitch": 56, "duration": 389, "velocity": 110}, {"time": 147362, "pitch": 60, "duration": 369, "velocity": 110}, {"time": 147362, "pitch": 63, "duration": 379, "velocity": 110}, {"time": 147362, "pitch": 67, "duration": 369, "velocity": 110}, {"time": 147840, "pitch": 43, "duration": 389, "velocity": 90}, {"time": 147840, "pitch": 55, "duration": 359, "velocity": 110}, {"time": 147840, "pitch": 58, "duration": 379, "velocity": 110}, {"time": 147840, "pitch": 62, "duration": 359, "velocity": 110}, {"time": 147840, "pitch": 65, "duration": 349, "velocity": 110}, {"time": 148319, "pitch": 41, "duration": 418, "velocity": 90}, {"time": 148319, "pitch": 53, "duration": 369, "velocity": 110}, {"time": 148319, "pitch": 56, "duration": 379, "velocity": 110}, {"time": 148319, "pitch": 60, "duration": 369, "velocity": 110}, {"time": 148319, "pitch": 63, "duration": 389, "velocity": 110}, {"time": 148797, "pitch": 39, "duration": 324, "velocity": 90}, {"time": 148797, "pitch": 57, "duration": 334, "velocity": 110}, {"time": 148797, "pitch": 60, "duration": 334, "velocity": 110}, {"time": 148797, "pitch": 65, "duration": 334, "velocity": 110}, {"time": 149283, "pitch": 39, "duration": 408, "velocity": 90}, {"time": 149283, "pitch": 54, "duration": 348, "velocity": 110}, {"time": 149283, "pitch": 58, "duration": 358, "velocity": 110}, {"time": 149283, "pitch": 61, "duration": 358, "velocity": 110}, {"time": 149283, "pitch": 65, "duration": 368, "velocity": 110}, {"time": 149761, "pitch": 41, "duration": 428, "velocity": 90}, {"time": 149761, "pitch": 56, "duration": 409, "velocity": 110}, {"time": 149761, "pitch": 60, "duration": 379, "velocity": 110}, {"time": 149761, "pitch": 63, "duration": 409, "velocity": 110}, {"time": 149761, "pitch": 65, "duration": 399, "velocity": 110}, {"time": 150239, "pitch": 42, "duration": 439, "velocity": 90}, {"time": 150239, "pitch": 54, "duration": 369, "velocity": 110}, {"time": 150239, "pitch": 58, "duration": 379, "velocity": 110}, {"time": 150239, "pitch": 61, "duration": 409, "velocity": 110}, {"time": 150239, "pitch": 65, "duration": 399, "velocity": 110}, {"time": 150718, "pitch": 44, "duration": 384, "velocity": 90}, {"time": 150718, "pitch": 56, "duration": 374, "velocity": 110}, {"time": 150718, "pitch": 60, "duration": 384, "velocity": 110}, {"time": 150718, "pitch": 63, "duration": 384, "velocity": 110}, {"time": 150718, "pitch": 65, "duration": 374, "velocity": 110}, {"time": 151203, "pitch": 46, "duration": 817, "velocity": 90}, {"time": 151203, "pitch": 53, "duration": 817, "velocity": 110}, {"time": 151203, "pitch": 58, "duration": 827, "velocity": 110}, {"time": 151203, "pitch": 62, "duration": 827, "velocity": 110}, {"time": 152160, "pitch": 45, "duration": 812, "velocity": 90}, {"time": 152160, "pitch": 53, "duration": 802, "velocity": 110}, {"time": 152160, "pitch": 57, "duration": 812, "velocity": 110}, {"time": 152160, "pitch": 60, "duration": 832, "velocity": 110}, {"time": 153123, "pitch": 43, "duration": 419, "velocity": 90}, {"time": 153123, "pitch": 55, "duration": 419, "velocity": 110}, {"time": 153123, "pitch": 58, "duration": 429, "velocity": 110}, {"time": 153123, "pitch": 62, "duration": 419, "velocity": 110}, {"time": 153602, "pitch": 43, "duration": 60, "velocity": 90}, {"time": 153602, "pitch": 55, "duration": 40, "velocity": 110}, {"time": 153602, "pitch": 58, "duration": 50, "velocity": 110}, {"time": 153602, "pitch": 62, "duration": 50, "velocity": 110}, {"time": 153841, "pitch": 41, "duration": 857, "velocity": 90}, {"time": 153841, "pitch": 53, "duration": 638, "velocity": 110}, {"time": 153841, "pitch": 56, "duration": 638, "velocity": 110}, {"time": 153841, "pitch": 62, "duration": 648, "velocity": 110}, {"time": 154559, "pitch": 56, "duration": 428, "velocity": 110}, {"time": 154559, "pitch": 62, "duration": 428, "velocity": 110}, {"time": 154559, "pitch": 65, "duration": 428, "velocity": 110}, {"time": 154798, "pitch": 41, "duration": 149, "velocity": 90}, {"time": 155037, "pitch": 39, "duration": 904, "velocity": 90}, {"time": 155037, "pitch": 55, "duration": 864, "velocity": 110}, {"time": 155037, "pitch": 58, "duration": 874, "velocity": 110}, {"time": 155037, "pitch": 63, "duration": 874, "velocity": 110}, {"time": 156001, "pitch": 38, "duration": 657, "velocity": 90}, {"time": 156001, "pitch": 53, "duration": 857, "velocity": 110}, {"time": 156001, "pitch": 58, "duration": 877, "velocity": 110}, {"time": 156001, "pitch": 62, "duration": 887, "velocity": 110}, {"time": 156718, "pitch": 38, "duration": 209, "velocity": 90}, {"time": 156957, "pitch": 36, "duration": 182, "velocity": 90}, {"time": 156957, "pitch": 55, "duration": 182, "velocity": 110}, {"time": 156957, "pitch": 58, "duration": 182, "velocity": 110}, {"time": 156957, "pitch": 63, "duration": 192, "velocity": 110}, {"time": 157200, "pitch": 38, "duration": 131, "velocity": 90}, {"time": 157200, "pitch": 55, "duration": 111, "velocity": 110}, {"time": 157200, "pitch": 58, "duration": 111, "velocity": 110}, {"time": 157200, "pitch": 63, "duration": 111, "velocity": 110}, {"time": 157443, "pitch": 39, "duration": 89, "velocity": 90}, {"time": 157443, "pitch": 55, "duration": 69, "velocity": 110}, {"time": 157443, "pitch": 58, "duration": 89, "velocity": 110}, {"time": 157443, "pitch": 63, "duration": 109, "velocity": 110}, {"time": 157682, "pitch": 41, "duration": 917, "velocity": 90}, {"time": 157682, "pitch": 57, "duration": 638, "velocity": 110}, {"time": 157682, "pitch": 60, "duration": 648, "velocity": 110}, {"time": 157682, "pitch": 65, "duration": 648, "velocity": 110}, {"time": 158160, "pitch": 48, "duration": 269, "velocity": 90}, {"time": 158399, "pitch": 53, "duration": 319, "velocity": 90}, {"time": 158399, "pitch": 57, "duration": 170, "velocity": 110}, {"time": 158399, "pitch": 60, "duration": 170, "velocity": 110}, {"time": 158399, "pitch": 67, "duration": 170, "velocity": 110}, {"time": 158639, "pitch": 48, "duration": 189, "velocity": 90}, {"time": 158639, "pitch": 57, "duration": 159, "velocity": 110}, {"time": 158639, "pitch": 60, "duration": 149, "velocity": 110}, {"time": 158639, "pitch": 65, "duration": 149, "velocity": 110}, {"time": 158878, "pitch": 46, "duration": 884, "velocity": 90}, {"time": 158878, "pitch": 53, "duration": 864, "velocity": 110}, {"time": 158878, "pitch": 58, "duration": 874, "velocity": 110}, {"time": 158878, "pitch": 62, "duration": 874, "velocity": 110}, {"time": 159841, "pitch": 45, "duration": 838, "velocity": 90}, {"time": 159841, "pitch": 53, "duration": 818, "velocity": 110}, {"time": 159841, "pitch": 57, "duration": 818, "velocity": 110}, {"time": 159841, "pitch": 60, "duration": 858, "velocity": 110}, {"time": 160798, "pitch": 43, "duration": 359, "velocity": 90}, {"time": 160798, "pitch": 55, "duration": 369, "velocity": 110}, {"time": 160798, "pitch": 58, "duration": 389, "velocity": 110}, {"time": 160798, "pitch": 62, "duration": 399, "velocity": 110}, {"time": 161277, "pitch": 43, "duration": 60, "velocity": 90}, {"time": 161277, "pitch": 55, "duration": 40, "velocity": 110}, {"time": 161277, "pitch": 58, "duration": 40, "velocity": 110}, {"time": 161277, "pitch": 62, "duration": 60, "velocity": 110}, {"time": 161519, "pitch": 41, "duration": 831, "velocity": 90}, {"time": 161519, "pitch": 56, "duration": 1110, "velocity": 110}, {"time": 161519, "pitch": 62, "duration": 1100, "velocity": 110}, {"time": 161519, "pitch": 65, "duration": 1110, "velocity": 110}, {"time": 162479, "pitch": 41, "duration": 130, "velocity": 90}, {"time": 162719, "pitch": 39, "duration": 670, "velocity": 90}, {"time": 162719, "pitch": 55, "duration": 903, "velocity": 110}, {"time": 162719, "pitch": 58, "duration": 913, "velocity": 110}, {"time": 162719, "pitch": 62, "duration": 913, "velocity": 110}, {"time": 163440, "pitch": 39, "duration": 242, "velocity": 90}, {"time": 163682, "pitch": 38, "duration": 827, "velocity": 90}, {"time": 163682, "pitch": 53, "duration": 808, "velocity": 110}, {"time": 163682, "pitch": 58, "duration": 818, "velocity": 110}, {"time": 163682, "pitch": 62, "duration": 827, "velocity": 110}, {"time": 164639, "pitch": 36, "duration": 169, "velocity": 90}, {"time": 164639, "pitch": 55, "duration": 169, "velocity": 110}, {"time": 164639, "pitch": 58, "duration": 179, "velocity": 110}, {"time": 164639, "pitch": 63, "duration": 179, "velocity": 110}, {"time": 164878, "pitch": 38, "duration": 100, "velocity": 90}, {"time": 164878, "pitch": 55, "duration": 80, "velocity": 110}, {"time": 164878, "pitch": 58, "duration": 80, "velocity": 110}, {"time": 164878, "pitch": 63, "duration": 100, "velocity": 110}, {"time": 165117, "pitch": 39, "duration": 91, "velocity": 90}, {"time": 165117, "pitch": 55, "duration": 91, "velocity": 110}, {"time": 165117, "pitch": 58, "duration": 102, "velocity": 110}, {"time": 165117, "pitch": 63, "duration": 112, "velocity": 110}, {"time": 165360, "pitch": 41, "duration": 1100, "velocity": 90}, {"time": 165360, "pitch": 57, "duration": 671, "velocity": 110}, {"time": 165360, "pitch": 60, "duration": 671, "velocity": 110}, {"time": 165360, "pitch": 65, "duration": 681, "velocity": 110}, {"time": 165842, "pitch": 48, "duration": 608, "velocity": 90}, {"time": 166081, "pitch": 53, "duration": 379, "velocity": 90}, {"time": 166081, "pitch": 57, "duration": 369, "velocity": 110}, {"time": 166081, "pitch": 60, "duration": 359, "velocity": 110}, {"time": 166081, "pitch": 65, "duration": 369, "velocity": 110}, {"time": 166559, "pitch": 46, "duration": 1921, "velocity": 90}, {"time": 166559, "pitch": 58, "duration": 1861, "velocity": 110}, {"time": 166559, "pitch": 62, "duration": 1871, "velocity": 110}, {"time": 166559, "pitch": 65, "duration": 1871, "velocity": 110}, {"time": 168480, "pitch": 43, "duration": 1900, "velocity": 90}, {"time": 168480, "pitch": 46, "duration": 10, "velocity": 90}, {"time": 168480, "pitch": 55, "duration": 1851, "velocity": 110}, {"time": 168480, "pitch": 58, "duration": 1871, "velocity": 110}, {"time": 168480, "pitch": 62, "duration": 1871, "velocity": 110}, {"time": 170400, "pitch": 46, "duration": 917, "velocity": 90}, {"time": 170400, "pitch": 58, "duration": 907, "velocity": 110}, {"time": 170400, "pitch": 62, "duration": 897, "velocity": 110}, {"time": 170400, "pitch": 65, "duration": 887, "velocity": 110}, {"time": 171357, "pitch": 44, "duration": 894, "velocity": 90}, {"time": 171357, "pitch": 56, "duration": 874, "velocity": 110}, {"time": 171357, "pitch": 60, "duration": 864, "velocity": 110}, {"time": 171357, "pitch": 65, "duration": 864, "velocity": 110}, {"time": 172321, "pitch": 43, "duration": 947, "velocity": 90}, {"time": 172321, "pitch": 55, "duration": 907, "velocity": 110}, {"time": 172321, "pitch": 58, "duration": 917, "velocity": 110}, {"time": 172321, "pitch": 63, "duration": 917, "velocity": 110}, {"time": 173278, "pitch": 42, "duration": 893, "velocity": 90}, {"time": 173278, "pitch": 54, "duration": 873, "velocity": 110}, {"time": 173278, "pitch": 58, "duration": 893, "velocity": 110}, {"time": 173278, "pitch": 60, "duration": 903, "velocity": 110}, {"time": 173278, "pitch": 63, "duration": 903, "velocity": 110}, {"time": 174241, "pitch": 46, "duration": 1891, "velocity": 90}, {"time": 174241, "pitch": 58, "duration": 1841, "velocity": 110}, {"time": 174241, "pitch": 62, "duration": 1841, "velocity": 110}, {"time": 174241, "pitch": 65, "duration": 1831, "velocity": 110}, {"time": 176162, "pitch": 43, "duration": 1880, "velocity": 90}, {"time": 176162, "pitch": 55, "duration": 1849, "velocity": 110}, {"time": 176162, "pitch": 58, "duration": 1859, "velocity": 110}, {"time": 176162, "pitch": 62, "duration": 1859, "velocity": 110}, {"time": 178082, "pitch": 46, "duration": 927, "velocity": 90}, {"time": 178082, "pitch": 58, "duration": 907, "velocity": 110}, {"time": 178082, "pitch": 62, "duration": 907, "velocity": 110}, {"time": 178082, "pitch": 65, "duration": 887, "velocity": 110}, {"time": 179039, "pitch": 44, "duration": 751, "velocity": 90}, {"time": 179039, "pitch": 56, "duration": 832, "velocity": 110}, {"time": 179039, "pitch": 60, "duration": 832, "velocity": 110}, {"time": 179039, "pitch": 65, "duration": 822, "velocity": 110}, {"time": 180002, "pitch": 39, "duration": 1921, "velocity": 110}, {"time": 180002, "pitch": 58, "duration": 190, "velocity": 99}, {"time": 180002, "pitch": 62, "duration": 190, "velocity": 110}, {"time": 180002, "pitch": 67, "duration": 210, "velocity": 106}, {"time": 180242, "pitch": 55, "duration": 49, "velocity": 87}, {"time": 180242, "pitch": 63, "duration": 49, "velocity": 106}, {"time": 180391, "pitch": 55, "duration": 748, "velocity": 106}, {"time": 180391, "pitch": 63, "duration": 768, "velocity": 110}, {"time": 181198, "pitch": 58, "duration": 70, "velocity": 93}, {"time": 181198, "pitch": 67, "duration": 90, "velocity": 110}, {"time": 181438, "pitch": 55, "duration": 485, "velocity": 79}, {"time": 181589, "pitch": 62, "duration": 41, "velocity": 93}, {"time": 181589, "pitch": 70, "duration": 41, "velocity": 110}, {"time": 181923, "pitch": 39, "duration": 1146, "velocity": 110}, {"time": 181923, "pitch": 55, "duration": 1126, "velocity": 79}, {"time": 181923, "pitch": 66, "duration": 658, "velocity": 110}, {"time": 181923, "pitch": 70, "duration": 658, "velocity": 110}, {"time": 181923, "pitch": 74, "duration": 668, "velocity": 110}, {"time": 182880, "pitch": 70, "duration": 40, "velocity": 110}, {"time": 182880, "pitch": 77, "duration": 59, "velocity": 110}, {"time": 183358, "pitch": 39, "duration": 182, "velocity": 106}, {"time": 183358, "pitch": 54, "duration": 182, "velocity": 106}, {"time": 183358, "pitch": 66, "duration": 182, "velocity": 110}, {"time": 183358, "pitch": 70, "duration": 182, "velocity": 110}, {"time": 183601, "pitch": 39, "duration": 202, "velocity": 99}, {"time": 183601, "pitch": 54, "duration": 192, "velocity": 110}, {"time": 183601, "pitch": 66, "duration": 202, "velocity": 110}, {"time": 183601, "pitch": 70, "duration": 202, "velocity": 110}, {"time": 183601, "pitch": 72, "duration": 212, "velocity": 110}, {"time": 1437, "pitch": 34, "duration": 212, "velocity": 112}, {"time": 1922, "pitch": 34, "duration": 210, "velocity": 112}, {"time": 2401, "pitch": 29, "duration": 169, "velocity": 112}, {"time": 2640, "pitch": 29, "duration": 169, "velocity": 112}, {"time": 2879, "pitch": 29, "duration": 229, "velocity": 112}, {"time": 3358, "pitch": 31, "duration": 212, "velocity": 112}, {"time": 3843, "pitch": 31, "duration": 209, "velocity": 112}, {"time": 4321, "pitch": 27, "duration": 170, "velocity": 112}, {"time": 4560, "pitch": 27, "duration": 170, "velocity": 112}, {"time": 4800, "pitch": 27, "duration": 229, "velocity": 112}, {"time": 5278, "pitch": 34, "duration": 212, "velocity": 112}, {"time": 5763, "pitch": 34, "duration": 210, "velocity": 112}, {"time": 6242, "pitch": 32, "duration": 169, "velocity": 112}, {"time": 6481, "pitch": 32, "duration": 169, "velocity": 112}, {"time": 6720, "pitch": 32, "duration": 229, "velocity": 112}, {"time": 7198, "pitch": 31, "duration": 210, "velocity": 112}, {"time": 7677, "pitch": 31, "duration": 212, "velocity": 112}, {"time": 8162, "pitch": 30, "duration": 170, "velocity": 112}, {"time": 8401, "pitch": 30, "duration": 170, "velocity": 112}, {"time": 8641, "pitch": 32, "duration": 169, "velocity": 112}, {"time": 8880, "pitch": 29, "duration": 169, "velocity": 112}, {"time": 9119, "pitch": 34, "duration": 209, "velocity": 112}, {"time": 9597, "pitch": 34, "duration": 213, "velocity": 112}, {"time": 10083, "pitch": 29, "duration": 169, "velocity": 112}, {"time": 10322, "pitch": 29, "duration": 169, "velocity": 112}, {"time": 10561, "pitch": 29, "duration": 229, "velocity": 112}, {"time": 11039, "pitch": 31, "duration": 210, "velocity": 112}, {"time": 11518, "pitch": 31, "duration": 212, "velocity": 112}, {"time": 12003, "pitch": 27, "duration": 169, "velocity": 112}, {"time": 12242, "pitch": 27, "duration": 170, "velocity": 112}, {"time": 12481, "pitch": 27, "duration": 230, "velocity": 112}, {"time": 12960, "pitch": 34, "duration": 209, "velocity": 112}, {"time": 13438, "pitch": 34, "duration": 212, "velocity": 112}, {"time": 13923, "pitch": 32, "duration": 170, "velocity": 112}, {"time": 14163, "pitch": 32, "duration": 169, "velocity": 112}, {"time": 14402, "pitch": 32, "duration": 229, "velocity": 112}, {"time": 14880, "pitch": 31, "duration": 209, "velocity": 112}, {"time": 15359, "pitch": 31, "duration": 209, "velocity": 112}, {"time": 15837, "pitch": 30, "duration": 172, "velocity": 112}, {"time": 16080, "pitch": 30, "duration": 171, "velocity": 112}, {"time": 16322, "pitch": 32, "duration": 170, "velocity": 112}, {"time": 16561, "pitch": 29, "duration": 170, "velocity": 112}, {"time": 16801, "pitch": 34, "duration": 209, "velocity": 112}, {"time": 17279, "pitch": 34, "duration": 209, "velocity": 112}, {"time": 17757, "pitch": 29, "duration": 172, "velocity": 112}, {"time": 18000, "pitch": 29, "duration": 172, "velocity": 112}, {"time": 18243, "pitch": 29, "duration": 229, "velocity": 112}, {"time": 18721, "pitch": 31, "duration": 209, "velocity": 112}, {"time": 19199, "pitch": 31, "duration": 210, "velocity": 112}, {"time": 19678, "pitch": 27, "duration": 172, "velocity": 112}, {"time": 19920, "pitch": 27, "duration": 172, "velocity": 112}, {"time": 20163, "pitch": 27, "duration": 229, "velocity": 112}, {"time": 20641, "pitch": 34, "duration": 210, "velocity": 112}, {"time": 21120, "pitch": 34, "duration": 209, "velocity": 112}, {"time": 21598, "pitch": 29, "duration": 170, "velocity": 112}, {"time": 21837, "pitch": 29, "duration": 170, "velocity": 112}, {"time": 22077, "pitch": 29, "duration": 232, "velocity": 112}, {"time": 22562, "pitch": 31, "duration": 209, "velocity": 112}, {"time": 23040, "pitch": 31, "duration": 210, "velocity": 112}, {"time": 23519, "pitch": 27, "duration": 169, "velocity": 112}, {"time": 23758, "pitch": 27, "duration": 169, "velocity": 112}, {"time": 23997, "pitch": 29, "duration": 172, "velocity": 112}, {"time": 24240, "pitch": 32, "duration": 172, "velocity": 112}, {"time": 24482, "pitch": 34, "duration": 210, "velocity": 112}, {"time": 24961, "pitch": 34, "duration": 209, "velocity": 112}, {"time": 25439, "pitch": 29, "duration": 170, "velocity": 112}, {"time": 25678, "pitch": 29, "duration": 170, "velocity": 112}, {"time": 25917, "pitch": 29, "duration": 233, "velocity": 112}, {"time": 26403, "pitch": 31, "duration": 209, "velocity": 112}, {"time": 26881, "pitch": 31, "duration": 209, "velocity": 112}, {"time": 27360, "pitch": 27, "duration": 169, "velocity": 112}, {"time": 27599, "pitch": 27, "duration": 169, "velocity": 112}, {"time": 27838, "pitch": 27, "duration": 232, "velocity": 112}, {"time": 28323, "pitch": 34, "duration": 209, "velocity": 112}, {"time": 28802, "pitch": 34, "duration": 209, "velocity": 112}, {"time": 29280, "pitch": 29, "duration": 169, "velocity": 112}, {"time": 29519, "pitch": 29, "duration": 170, "velocity": 112}, {"time": 29758, "pitch": 29, "duration": 230, "velocity": 112}, {"time": 30237, "pitch": 31, "duration": 212, "velocity": 112}, {"time": 30722, "pitch": 31, "duration": 209, "velocity": 112}, {"time": 31111, "pitch": 34, "duration": 50, "velocity": 112}, {"time": 31200, "pitch": 27, "duration": 170, "velocity": 112}, {"time": 31440, "pitch": 27, "duration": 99, "velocity": 112}, {"time": 31589, "pitch": 34, "duration": 50, "velocity": 112}, {"time": 31828, "pitch": 39, "duration": 50, "velocity": 112}, {"time": 31918, "pitch": 39, "duration": 229, "velocity": 112}, {"time": 32157, "pitch": 39, "duration": 111, "velocity": 112}, {"time": 32309, "pitch": 27, "duration": 111, "velocity": 112}, {"time": 33031, "pitch": 34, "duration": 50, "velocity": 112}, {"time": 33121, "pitch": 39, "duration": 179, "velocity": 112}, {"time": 33270, "pitch": 34, "duration": 50, "velocity": 112}, {"time": 33360, "pitch": 39, "duration": 179, "velocity": 112}, {"time": 33988, "pitch": 38, "duration": 90, "velocity": 112}, {"time": 34078, "pitch": 38, "duration": 111, "velocity": 112}, {"time": 34229, "pitch": 26, "duration": 111, "velocity": 112}, {"time": 34952, "pitch": 26, "duration": 49, "velocity": 112}, {"time": 35041, "pitch": 38, "duration": 180, "velocity": 112}, {"time": 35191, "pitch": 34, "duration": 50, "velocity": 112}, {"time": 35280, "pitch": 38, "duration": 180, "velocity": 112}, {"time": 35998, "pitch": 36, "duration": 182, "velocity": 112}, {"time": 36241, "pitch": 36, "duration": 182, "velocity": 112}, {"time": 36633, "pitch": 34, "duration": 249, "velocity": 112}, {"time": 36872, "pitch": 30, "duration": 299, "velocity": 112}, {"time": 37201, "pitch": 30, "duration": 229, "velocity": 112}, {"time": 37440, "pitch": 33, "duration": 150, "velocity": 112}, {"time": 37590, "pitch": 34, "duration": 69, "velocity": 112}, {"time": 37679, "pitch": 33, "duration": 239, "velocity": 112}, {"time": 37918, "pitch": 31, "duration": 279, "velocity": 112}, {"time": 38397, "pitch": 33, "duration": 283, "velocity": 112}, {"time": 38882, "pitch": 34, "duration": 279, "velocity": 112}, {"time": 39271, "pitch": 35, "duration": 50, "velocity": 112}, {"time": 39510, "pitch": 38, "duration": 279, "velocity": 112}, {"time": 39839, "pitch": 39, "duration": 109, "velocity": 112}, {"time": 39988, "pitch": 27, "duration": 110, "velocity": 112}, {"time": 40712, "pitch": 34, "duration": 50, "velocity": 112}, {"time": 40802, "pitch": 39, "duration": 180, "velocity": 112}, {"time": 40952, "pitch": 34, "duration": 50, "velocity": 112}, {"time": 41042, "pitch": 39, "duration": 179, "velocity": 112}, {"time": 41670, "pitch": 38, "duration": 89, "velocity": 112}, {"time": 41759, "pitch": 38, "duration": 110, "velocity": 112}, {"time": 41909, "pitch": 26, "duration": 109, "velocity": 112}, {"time": 42632, "pitch": 26, "duration": 51, "velocity": 112}, {"time": 42723, "pitch": 38, "duration": 179, "velocity": 112}, {"time": 42872, "pitch": 34, "duration": 50, "velocity": 112}, {"time": 42962, "pitch": 38, "duration": 180, "velocity": 112}, {"time": 43680, "pitch": 36, "duration": 179, "velocity": 112}, {"time": 43919, "pitch": 36, "duration": 179, "velocity": 112}, {"time": 44401, "pitch": 31, "duration": 101, "velocity": 112}, {"time": 44552, "pitch": 32, "duration": 1018, "velocity": 112}, {"time": 45600, "pitch": 32, "duration": 279, "velocity": 112}, {"time": 46079, "pitch": 31, "duration": 279, "velocity": 112}, {"time": 46557, "pitch": 29, "duration": 283, "velocity": 112}, {"time": 47042, "pitch": 27, "duration": 279, "velocity": 112}, {"time": 47521, "pitch": 34, "duration": 209, "velocity": 112}, {"time": 47999, "pitch": 34, "duration": 209, "velocity": 112}, {"time": 48477, "pitch": 33, "duration": 172, "velocity": 112}, {"time": 48720, "pitch": 33, "duration": 172, "velocity": 112}, {"time": 48963, "pitch": 33, "duration": 229, "velocity": 112}, {"time": 49441, "pitch": 31, "duration": 209, "velocity": 112}, {"time": 49919, "pitch": 31, "duration": 210, "velocity": 112}, {"time": 50398, "pitch": 29, "duration": 172, "velocity": 112}, {"time": 50640, "pitch": 29, "duration": 172, "velocity": 112}, {"time": 50883, "pitch": 29, "duration": 229, "velocity": 112}, {"time": 51361, "pitch": 27, "duration": 210, "velocity": 112}, {"time": 51840, "pitch": 27, "duration": 209, "velocity": 112}, {"time": 52318, "pitch": 26, "duration": 170, "velocity": 112}, {"time": 52557, "pitch": 26, "duration": 170, "velocity": 112}, {"time": 52797, "pitch": 29, "duration": 171, "velocity": 112}, {"time": 53039, "pitch": 34, "duration": 172, "velocity": 112}, {"time": 53282, "pitch": 24, "duration": 199, "velocity": 112}, {"time": 53521, "pitch": 26, "duration": 120, "velocity": 112}, {"time": 53760, "pitch": 27, "duration": 120, "velocity": 112}, {"time": 53999, "pitch": 29, "duration": 529, "velocity": 112}, {"time": 54617, "pitch": 36, "duration": 50, "velocity": 112}, {"time": 54717, "pitch": 31, "duration": 233, "velocity": 112}, {"time": 54960, "pitch": 29, "duration": 182, "velocity": 112}, {"time": 55202, "pitch": 34, "duration": 210, "velocity": 112}, {"time": 55681, "pitch": 34, "duration": 209, "velocity": 112}, {"time": 56159, "pitch": 33, "duration": 169, "velocity": 112}, {"time": 56398, "pitch": 33, "duration": 170, "velocity": 112}, {"time": 56637, "pitch": 33, "duration": 233, "velocity": 112}, {"time": 57123, "pitch": 31, "duration": 209, "velocity": 112}, {"time": 57601, "pitch": 31, "duration": 209, "velocity": 112}, {"time": 58079, "pitch": 29, "duration": 170, "velocity": 112}, {"time": 58319, "pitch": 29, "duration": 169, "velocity": 112}, {"time": 58558, "pitch": 29, "duration": 232, "velocity": 112}, {"time": 59043, "pitch": 27, "duration": 209, "velocity": 112}, {"time": 59521, "pitch": 27, "duration": 210, "velocity": 112}, {"time": 60000, "pitch": 26, "duration": 169, "velocity": 112}, {"time": 60239, "pitch": 26, "duration": 170, "velocity": 112}, {"time": 60478, "pitch": 29, "duration": 170, "velocity": 112}, {"time": 60717, "pitch": 34, "duration": 170, "velocity": 112}, {"time": 60957, "pitch": 24, "duration": 202, "velocity": 112}, {"time": 61199, "pitch": 26, "duration": 122, "velocity": 112}, {"time": 61442, "pitch": 27, "duration": 120, "velocity": 112}, {"time": 61681, "pitch": 29, "duration": 1196, "velocity": 112}, {"time": 62877, "pitch": 22, "duration": 1263, "velocity": 112}, {"time": 62877, "pitch": 29, "duration": 30, "velocity": 112}, {"time": 64798, "pitch": 34, "duration": 212, "velocity": 112}, {"time": 65283, "pitch": 34, "duration": 209, "velocity": 112}, {"time": 65761, "pitch": 29, "duration": 170, "velocity": 112}, {"time": 66000, "pitch": 29, "duration": 170, "velocity": 112}, {"time": 66240, "pitch": 29, "duration": 229, "velocity": 112}, {"time": 66718, "pitch": 31, "duration": 212, "velocity": 112}, {"time": 67203, "pitch": 31, "duration": 209, "velocity": 112}, {"time": 67682, "pitch": 27, "duration": 169, "velocity": 112}, {"time": 67921, "pitch": 27, "duration": 169, "velocity": 112}, {"time": 68160, "pitch": 27, "duration": 229, "velocity": 112}, {"time": 68638, "pitch": 34, "duration": 210, "velocity": 112}, {"time": 69117, "pitch": 34, "duration": 212, "velocity": 112}, {"time": 69602, "pitch": 29, "duration": 169, "velocity": 112}, {"time": 69841, "pitch": 29, "duration": 170, "velocity": 112}, {"time": 70080, "pitch": 29, "duration": 230, "velocity": 112}, {"time": 70559, "pitch": 31, "duration": 209, "velocity": 112}, {"time": 71037, "pitch": 31, "duration": 212, "velocity": 112}, {"time": 71522, "pitch": 27, "duration": 170, "velocity": 112}, {"time": 71762, "pitch": 27, "duration": 169, "velocity": 112}, {"time": 72001, "pitch": 29, "duration": 169, "velocity": 112}, {"time": 72240, "pitch": 32, "duration": 169, "velocity": 112}, {"time": 72479, "pitch": 34, "duration": 210, "velocity": 112}, {"time": 72958, "pitch": 34, "duration": 212, "velocity": 112}, {"time": 73443, "pitch": 29, "duration": 169, "velocity": 112}, {"time": 73682, "pitch": 29, "duration": 169, "velocity": 112}, {"time": 73921, "pitch": 29, "duration": 229, "velocity": 112}, {"time": 74400, "pitch": 31, "duration": 209, "velocity": 112}, {"time": 74878, "pitch": 31, "duration": 212, "velocity": 112}, {"time": 75363, "pitch": 27, "duration": 170, "velocity": 112}, {"time": 75602, "pitch": 27, "duration": 170, "velocity": 112}, {"time": 75842, "pitch": 27, "duration": 229, "velocity": 112}, {"time": 76320, "pitch": 34, "duration": 209, "velocity": 112}, {"time": 76798, "pitch": 34, "duration": 210, "velocity": 112}, {"time": 77277, "pitch": 29, "duration": 172, "velocity": 112}, {"time": 77519, "pitch": 29, "duration": 172, "velocity": 112}, {"time": 77762, "pitch": 29, "duration": 229, "velocity": 112}, {"time": 78241, "pitch": 31, "duration": 209, "velocity": 112}, {"time": 78719, "pitch": 31, "duration": 209, "velocity": 112}, {"time": 79108, "pitch": 34, "duration": 49, "velocity": 112}, {"time": 79197, "pitch": 27, "duration": 172, "velocity": 112}, {"time": 79440, "pitch": 27, "duration": 101, "velocity": 112}, {"time": 79592, "pitch": 34, "duration": 50, "velocity": 112}, {"time": 79832, "pitch": 39, "duration": 50, "velocity": 112}, {"time": 79922, "pitch": 39, "duration": 229, "velocity": 112}, {"time": 80161, "pitch": 39, "duration": 110, "velocity": 112}, {"time": 80310, "pitch": 27, "duration": 110, "velocity": 112}, {"time": 81028, "pitch": 34, "duration": 50, "velocity": 112}, {"time": 81118, "pitch": 39, "duration": 182, "velocity": 112}, {"time": 81269, "pitch": 34, "duration": 51, "velocity": 112}, {"time": 81360, "pitch": 39, "duration": 182, "velocity": 112}, {"time": 81992, "pitch": 38, "duration": 89, "velocity": 112}, {"time": 82081, "pitch": 38, "duration": 110, "velocity": 112}, {"time": 82231, "pitch": 26, "duration": 109, "velocity": 112}, {"time": 82948, "pitch": 26, "duration": 50, "velocity": 112}, {"time": 83038, "pitch": 38, "duration": 182, "velocity": 112}, {"time": 83190, "pitch": 34, "duration": 50, "velocity": 112}, {"time": 83281, "pitch": 38, "duration": 182, "velocity": 112}, {"time": 84002, "pitch": 36, "duration": 179, "velocity": 112}, {"time": 84241, "pitch": 36, "duration": 179, "velocity": 112}, {"time": 84630, "pitch": 34, "duration": 249, "velocity": 112}, {"time": 84869, "pitch": 30, "duration": 299, "velocity": 112}, {"time": 85198, "pitch": 30, "duration": 229, "velocity": 112}, {"time": 85437, "pitch": 33, "duration": 152, "velocity": 112}, {"time": 85589, "pitch": 34, "duration": 70, "velocity": 112}, {"time": 85680, "pitch": 33, "duration": 242, "velocity": 112}, {"time": 85922, "pitch": 31, "duration": 279, "velocity": 112}, {"time": 86401, "pitch": 33, "duration": 279, "velocity": 112}, {"time": 86879, "pitch": 34, "duration": 279, "velocity": 112}, {"time": 87268, "pitch": 35, "duration": 50, "velocity": 112}, {"time": 87509, "pitch": 38, "duration": 283, "velocity": 112}, {"time": 87843, "pitch": 39, "duration": 109, "velocity": 112}, {"time": 87992, "pitch": 27, "duration": 110, "velocity": 112}, {"time": 88710, "pitch": 34, "duration": 50, "velocity": 112}, {"time": 88799, "pitch": 39, "duration": 180, "velocity": 112}, {"time": 88949, "pitch": 34, "duration": 50, "velocity": 112}, {"time": 89039, "pitch": 39, "duration": 179, "velocity": 112}, {"time": 89672, "pitch": 38, "duration": 91, "velocity": 112}, {"time": 89763, "pitch": 38, "duration": 110, "velocity": 112}, {"time": 89913, "pitch": 26, "duration": 109, "velocity": 112}, {"time": 90630, "pitch": 26, "duration": 50, "velocity": 112}, {"time": 90720, "pitch": 38, "duration": 179, "velocity": 112}, {"time": 90869, "pitch": 34, "duration": 50, "velocity": 112}, {"time": 90959, "pitch": 38, "duration": 179, "velocity": 112}, {"time": 91677, "pitch": 36, "duration": 182, "velocity": 112}, {"time": 91919, "pitch": 36, "duration": 182, "velocity": 112}, {"time": 92401, "pitch": 31, "duration": 100, "velocity": 112}, {"time": 92551, "pitch": 32, "duration": 1016, "velocity": 112}, {"time": 93597, "pitch": 32, "duration": 283, "velocity": 112}, {"time": 94082, "pitch": 31, "duration": 279, "velocity": 112}, {"time": 94561, "pitch": 29, "duration": 279, "velocity": 112}, {"time": 95039, "pitch": 27, "duration": 279, "velocity": 112}, {"time": 95517, "pitch": 34, "duration": 213, "velocity": 112}, {"time": 96003, "pitch": 34, "duration": 209, "velocity": 112}, {"time": 96481, "pitch": 33, "duration": 170, "velocity": 112}, {"time": 96720, "pitch": 33, "duration": 170, "velocity": 112}, {"time": 96960, "pitch": 33, "duration": 229, "velocity": 112}, {"time": 97438, "pitch": 31, "duration": 212, "velocity": 112}, {"time": 97923, "pitch": 31, "duration": 209, "velocity": 112}, {"time": 98402, "pitch": 29, "duration": 169, "velocity": 112}, {"time": 98641, "pitch": 29, "duration": 169, "velocity": 112}, {"time": 98880, "pitch": 29, "duration": 229, "velocity": 112}, {"time": 99358, "pitch": 27, "duration": 210, "velocity": 112}, {"time": 99837, "pitch": 27, "duration": 212, "velocity": 112}, {"time": 100322, "pitch": 26, "duration": 169, "velocity": 112}, {"time": 100561, "pitch": 26, "duration": 170, "velocity": 112}, {"time": 100800, "pitch": 29, "duration": 170, "velocity": 112}, {"time": 101040, "pitch": 34, "duration": 169, "velocity": 112}, {"time": 101279, "pitch": 24, "duration": 199, "velocity": 112}, {"time": 101518, "pitch": 26, "duration": 120, "velocity": 112}, {"time": 101757, "pitch": 27, "duration": 121, "velocity": 112}, {"time": 102000, "pitch": 29, "duration": 531, "velocity": 112}, {"time": 102621, "pitch": 36, "duration": 50, "velocity": 112}, {"time": 102721, "pitch": 31, "duration": 229, "velocity": 112}, {"time": 102960, "pitch": 29, "duration": 179, "velocity": 112}, {"time": 103199, "pitch": 34, "duration": 209, "velocity": 112}, {"time": 103678, "pitch": 34, "duration": 212, "velocity": 112}, {"time": 104163, "pitch": 33, "duration": 169, "velocity": 112}, {"time": 104402, "pitch": 33, "duration": 169, "velocity": 112}, {"time": 104641, "pitch": 33, "duration": 229, "velocity": 112}, {"time": 105120, "pitch": 31, "duration": 209, "velocity": 112}, {"time": 105598, "pitch": 31, "duration": 212, "velocity": 112}, {"time": 106083, "pitch": 29, "duration": 170, "velocity": 112}, {"time": 106322, "pitch": 29, "duration": 170, "velocity": 112}, {"time": 106562, "pitch": 29, "duration": 229, "velocity": 112}, {"time": 107040, "pitch": 27, "duration": 209, "velocity": 112}, {"time": 107518, "pitch": 27, "duration": 210, "velocity": 112}, {"time": 107997, "pitch": 26, "duration": 172, "velocity": 112}, {"time": 108239, "pitch": 26, "duration": 172, "velocity": 112}, {"time": 108482, "pitch": 29, "duration": 169, "velocity": 112}, {"time": 108721, "pitch": 34, "duration": 170, "velocity": 112}, {"time": 108960, "pitch": 24, "duration": 200, "velocity": 112}, {"time": 109200, "pitch": 26, "duration": 119, "velocity": 112}, {"time": 109439, "pitch": 27, "duration": 119, "velocity": 112}, {"time": 109678, "pitch": 29, "duration": 1014, "velocity": 112}, {"time": 110881, "pitch": 34, "duration": 179, "velocity": 117}, {"time": 111359, "pitch": 34, "duration": 180, "velocity": 117}, {"time": 111838, "pitch": 27, "duration": 161, "velocity": 117}, {"time": 112080, "pitch": 27, "duration": 162, "velocity": 117}, {"time": 112323, "pitch": 27, "duration": 199, "velocity": 117}, {"time": 112801, "pitch": 30, "duration": 180, "velocity": 117}, {"time": 113280, "pitch": 30, "duration": 179, "velocity": 117}, {"time": 113758, "pitch": 29, "duration": 162, "velocity": 127}, {"time": 114001, "pitch": 29, "duration": 161, "velocity": 117}, {"time": 114243, "pitch": 29, "duration": 200, "velocity": 127}, {"time": 114722, "pitch": 34, "duration": 179, "velocity": 117}, {"time": 115200, "pitch": 34, "duration": 180, "velocity": 127}, {"time": 115679, "pitch": 27, "duration": 159, "velocity": 127}, {"time": 115918, "pitch": 27, "duration": 159, "velocity": 127}, {"time": 116157, "pitch": 27, "duration": 202, "velocity": 117}, {"time": 116642, "pitch": 30, "duration": 180, "velocity": 117}, {"time": 117121, "pitch": 30, "duration": 179, "velocity": 117}, {"time": 117599, "pitch": 29, "duration": 159, "velocity": 127}, {"time": 117838, "pitch": 29, "duration": 160, "velocity": 117}, {"time": 118077, "pitch": 30, "duration": 203, "velocity": 127}, {"time": 118320, "pitch": 32, "duration": 162, "velocity": 117}, {"time": 118563, "pitch": 34, "duration": 209, "velocity": 112}, {"time": 119041, "pitch": 34, "duration": 209, "velocity": 112}, {"time": 119519, "pitch": 29, "duration": 170, "velocity": 112}, {"time": 119759, "pitch": 29, "duration": 169, "velocity": 112}, {"time": 119998, "pitch": 29, "duration": 232, "velocity": 112}, {"time": 120483, "pitch": 31, "duration": 209, "velocity": 112}, {"time": 120961, "pitch": 31, "duration": 210, "velocity": 112}, {"time": 121440, "pitch": 27, "duration": 169, "velocity": 112}, {"time": 121679, "pitch": 27, "duration": 169, "velocity": 112}, {"time": 121918, "pitch": 27, "duration": 233, "velocity": 112}, {"time": 122403, "pitch": 34, "duration": 210, "velocity": 112}, {"time": 122882, "pitch": 34, "duration": 209, "velocity": 112}, {"time": 123360, "pitch": 29, "duration": 170, "velocity": 112}, {"time": 123599, "pitch": 29, "duration": 170, "velocity": 112}, {"time": 123839, "pitch": 29, "duration": 229, "velocity": 112}, {"time": 124317, "pitch": 31, "duration": 212, "velocity": 112}, {"time": 124802, "pitch": 31, "duration": 210, "velocity": 112}, {"time": 125281, "pitch": 27, "duration": 169, "velocity": 112}, {"time": 125520, "pitch": 27, "duration": 169, "velocity": 112}, {"time": 125759, "pitch": 29, "duration": 169, "velocity": 112}, {"time": 125998, "pitch": 32, "duration": 170, "velocity": 112}, {"time": 126237, "pitch": 34, "duration": 213, "velocity": 112}, {"time": 126723, "pitch": 34, "duration": 209, "velocity": 112}, {"time": 127201, "pitch": 29, "duration": 169, "velocity": 112}, {"time": 127440, "pitch": 29, "duration": 170, "velocity": 112}, {"time": 127679, "pitch": 29, "duration": 230, "velocity": 112}, {"time": 128158, "pitch": 31, "duration": 212, "velocity": 112}, {"time": 128643, "pitch": 31, "duration": 209, "velocity": 112}, {"time": 129121, "pitch": 27, "duration": 170, "velocity": 112}, {"time": 129361, "pitch": 27, "duration": 169, "velocity": 112}, {"time": 129600, "pitch": 27, "duration": 229, "velocity": 112}, {"time": 130078, "pitch": 34, "duration": 210, "velocity": 112}, {"time": 130557, "pitch": 34, "duration": 212, "velocity": 112}, {"time": 131042, "pitch": 29, "duration": 169, "velocity": 112}, {"time": 131281, "pitch": 29, "duration": 170, "velocity": 112}, {"time": 131520, "pitch": 29, "duration": 230, "velocity": 112}, {"time": 131999, "pitch": 31, "duration": 209, "velocity": 112}, {"time": 132477, "pitch": 31, "duration": 212, "velocity": 112}, {"time": 132871, "pitch": 34, "duration": 51, "velocity": 112}, {"time": 132962, "pitch": 27, "duration": 170, "velocity": 112}, {"time": 133202, "pitch": 27, "duration": 99, "velocity": 112}, {"time": 133351, "pitch": 34, "duration": 50, "velocity": 112}, {"time": 133590, "pitch": 39, "duration": 50, "velocity": 112}, {"time": 133680, "pitch": 39, "duration": 229, "velocity": 112}, {"time": 133919, "pitch": 39, "duration": 180, "velocity": 117}, {"time": 134398, "pitch": 39, "duration": 181, "velocity": 117}, {"time": 134883, "pitch": 27, "duration": 159, "velocity": 117}, {"time": 135122, "pitch": 27, "duration": 159, "velocity": 117}, {"time": 135361, "pitch": 27, "duration": 199, "velocity": 117}, {"time": 135840, "pitch": 38, "duration": 179, "velocity": 117}, {"time": 136318, "pitch": 38, "duration": 182, "velocity": 117}, {"time": 136803, "pitch": 34, "duration": 160, "velocity": 127}, {"time": 137042, "pitch": 34, "duration": 160, "velocity": 117}, {"time": 137282, "pitch": 34, "duration": 199, "velocity": 127}, {"time": 137760, "pitch": 29, "duration": 179, "velocity": 117}, {"time": 138238, "pitch": 29, "duration": 180, "velocity": 127}, {"time": 138717, "pitch": 30, "duration": 161, "velocity": 127}, {"time": 138959, "pitch": 30, "duration": 162, "velocity": 127}, {"time": 139202, "pitch": 30, "duration": 199, "velocity": 117}, {"time": 139680, "pitch": 31, "duration": 279, "velocity": 112}, {"time": 140159, "pitch": 33, "duration": 279, "velocity": 112}, {"time": 140637, "pitch": 34, "duration": 283, "velocity": 112}, {"time": 141031, "pitch": 35, "duration": 51, "velocity": 112}, {"time": 141272, "pitch": 38, "duration": 279, "velocity": 112}, {"time": 141601, "pitch": 39, "duration": 109, "velocity": 112}, {"time": 141750, "pitch": 27, "duration": 110, "velocity": 112}, {"time": 142468, "pitch": 34, "duration": 50, "velocity": 112}, {"time": 142558, "pitch": 39, "duration": 182, "velocity": 112}, {"time": 142709, "pitch": 34, "duration": 51, "velocity": 112}, {"time": 142800, "pitch": 39, "duration": 182, "velocity": 112}, {"time": 143432, "pitch": 38, "duration": 89, "velocity": 112}, {"time": 143521, "pitch": 38, "duration": 110, "velocity": 112}, {"time": 143671, "pitch": 26, "duration": 109, "velocity": 112}, {"time": 144388, "pitch": 26, "duration": 50, "velocity": 112}, {"time": 144478, "pitch": 38, "duration": 182, "velocity": 112}, {"time": 144630, "pitch": 34, "duration": 50, "velocity": 112}, {"time": 144721, "pitch": 38, "duration": 182, "velocity": 112}, {"time": 145442, "pitch": 36, "duration": 179, "velocity": 112}, {"time": 145681, "pitch": 36, "duration": 179, "velocity": 112}, {"time": 146159, "pitch": 31, "duration": 100, "velocity": 112}, {"time": 146309, "pitch": 32, "duration": 1023, "velocity": 112}, {"time": 147362, "pitch": 32, "duration": 279, "velocity": 112}, {"time": 147840, "pitch": 31, "duration": 280, "velocity": 112}, {"time": 148319, "pitch": 29, "duration": 279, "velocity": 112}, {"time": 148797, "pitch": 27, "duration": 283, "velocity": 112}, {"time": 149283, "pitch": 27, "duration": 169, "velocity": 117}, {"time": 149522, "pitch": 27, "duration": 169, "velocity": 117}, {"time": 149761, "pitch": 29, "duration": 169, "velocity": 117}, {"time": 150000, "pitch": 29, "duration": 170, "velocity": 117}, {"time": 150239, "pitch": 30, "duration": 170, "velocity": 117}, {"time": 150478, "pitch": 30, "duration": 170, "velocity": 117}, {"time": 150718, "pitch": 32, "duration": 172, "velocity": 117}, {"time": 150960, "pitch": 32, "duration": 172, "velocity": 117}, {"time": 151203, "pitch": 34, "duration": 209, "velocity": 112}, {"time": 151681, "pitch": 34, "duration": 210, "velocity": 112}, {"time": 152160, "pitch": 33, "duration": 169, "velocity": 112}, {"time": 152399, "pitch": 33, "duration": 169, "velocity": 112}, {"time": 152638, "pitch": 33, "duration": 233, "velocity": 112}, {"time": 153123, "pitch": 31, "duration": 210, "velocity": 112}, {"time": 153602, "pitch": 31, "duration": 209, "velocity": 112}, {"time": 154080, "pitch": 29, "duration": 170, "velocity": 112}, {"time": 154319, "pitch": 29, "duration": 170, "velocity": 112}, {"time": 154559, "pitch": 29, "duration": 229, "velocity": 112}, {"time": 155037, "pitch": 27, "duration": 212, "velocity": 112}, {"time": 155522, "pitch": 27, "duration": 209, "velocity": 112}, {"time": 156001, "pitch": 26, "duration": 169, "velocity": 112}, {"time": 156240, "pitch": 26, "duration": 169, "velocity": 112}, {"time": 156479, "pitch": 29, "duration": 169, "velocity": 112}, {"time": 156718, "pitch": 34, "duration": 170, "velocity": 112}, {"time": 156957, "pitch": 24, "duration": 203, "velocity": 112}, {"time": 157200, "pitch": 26, "duration": 121, "velocity": 112}, {"time": 157443, "pitch": 27, "duration": 119, "velocity": 112}, {"time": 157682, "pitch": 29, "duration": 528, "velocity": 112}, {"time": 158300, "pitch": 36, "duration": 50, "velocity": 112}, {"time": 158399, "pitch": 31, "duration": 230, "velocity": 112}, {"time": 158639, "pitch": 29, "duration": 179, "velocity": 112}, {"time": 158878, "pitch": 34, "duration": 212, "velocity": 112}, {"time": 159363, "pitch": 34, "duration": 209, "velocity": 112}, {"time": 159841, "pitch": 33, "duration": 170, "velocity": 112}, {"time": 160081, "pitch": 33, "duration": 169, "velocity": 112}, {"time": 160320, "pitch": 33, "duration": 229, "velocity": 112}, {"time": 160798, "pitch": 31, "duration": 210, "velocity": 112}, {"time": 161277, "pitch": 31, "duration": 212, "velocity": 112}, {"time": 161762, "pitch": 29, "duration": 169, "velocity": 112}, {"time": 162001, "pitch": 29, "duration": 169, "velocity": 112}, {"time": 162240, "pitch": 29, "duration": 229, "velocity": 112}, {"time": 162719, "pitch": 27, "duration": 209, "velocity": 112}, {"time": 163197, "pitch": 27, "duration": 212, "velocity": 112}, {"time": 163682, "pitch": 26, "duration": 170, "velocity": 112}, {"time": 163921, "pitch": 26, "duration": 170, "velocity": 112}, {"time": 164161, "pitch": 29, "duration": 169, "velocity": 112}, {"time": 164400, "pitch": 34, "duration": 169, "velocity": 112}, {"time": 164639, "pitch": 24, "duration": 199, "velocity": 112}, {"time": 164878, "pitch": 26, "duration": 120, "velocity": 112}, {"time": 165117, "pitch": 27, "duration": 122, "velocity": 112}, {"time": 165360, "pitch": 29, "duration": 1010, "velocity": 112}, {"time": 166559, "pitch": 34, "duration": 210, "velocity": 112}, {"time": 167038, "pitch": 34, "duration": 212, "velocity": 112}, {"time": 167523, "pitch": 29, "duration": 170, "velocity": 112}, {"time": 167762, "pitch": 29, "duration": 170, "velocity": 112}, {"time": 168002, "pitch": 29, "duration": 229, "velocity": 112}, {"time": 168480, "pitch": 31, "duration": 209, "velocity": 112}, {"time": 168958, "pitch": 31, "duration": 210, "velocity": 112}, {"time": 169437, "pitch": 27, "duration": 172, "velocity": 112}, {"time": 169679, "pitch": 27, "duration": 172, "velocity": 112}, {"time": 169922, "pitch": 27, "duration": 229, "velocity": 112}, {"time": 170400, "pitch": 34, "duration": 210, "velocity": 112}, {"time": 170879, "pitch": 34, "duration": 209, "velocity": 112}, {"time": 171357, "pitch": 32, "duration": 172, "velocity": 112}, {"time": 171600, "pitch": 32, "duration": 172, "velocity": 112}, {"time": 171842, "pitch": 32, "duration": 230, "velocity": 112}, {"time": 172321, "pitch": 31, "duration": 209, "velocity": 112}, {"time": 172799, "pitch": 31, "duration": 209, "velocity": 112}, {"time": 173278, "pitch": 30, "duration": 171, "velocity": 112}, {"time": 173520, "pitch": 30, "duration": 172, "velocity": 112}, {"time": 173763, "pitch": 32, "duration": 169, "velocity": 112}, {"time": 174002, "pitch": 29, "duration": 169, "velocity": 112}, {"time": 174241, "pitch": 34, "duration": 209, "velocity": 112}, {"time": 174720, "pitch": 34, "duration": 209, "velocity": 112}, {"time": 175198, "pitch": 29, "duration": 172, "velocity": 112}, {"time": 175441, "pitch": 29, "duration": 171, "velocity": 112}, {"time": 175683, "pitch": 29, "duration": 229, "velocity": 112}, {"time": 176162, "pitch": 31, "duration": 209, "velocity": 112}, {"time": 176640, "pitch": 31, "duration": 209, "velocity": 112}, {"time": 177118, "pitch": 27, "duration": 170, "velocity": 112}, {"time": 177358, "pitch": 27, "duration": 169, "velocity": 112}, {"time": 177597, "pitch": 27, "duration": 232, "velocity": 112}, {"time": 178082, "pitch": 34, "duration": 209, "velocity": 112}, {"time": 178560, "pitch": 34, "duration": 210, "velocity": 112}, {"time": 179039, "pitch": 32, "duration": 169, "velocity": 112}, {"time": 179278, "pitch": 32, "duration": 169, "velocity": 112}, {"time": 179517, "pitch": 32, "duration": 233, "velocity": 112}, {"time": 180002, "pitch": 31, "duration": 240, "velocity": 112}, {"time": 180242, "pitch": 27, "duration": 99, "velocity": 112}, {"time": 180391, "pitch": 27, "duration": 1502, "velocity": 112}, {"time": 181923, "pitch": 27, "duration": 349, "velocity": 112}, {"time": 182312, "pitch": 27, "duration": 39, "velocity": 112}, {"time": 182401, "pitch": 27, "duration": 259, "velocity": 112}, {"time": 182790, "pitch": 27, "duration": 50, "velocity": 112}, {"time": 182880, "pitch": 27, "duration": 259, "velocity": 112}, {"time": 183268, "pitch": 27, "duration": 50, "velocity": 112}, {"time": 183358, "pitch": 27, "duration": 192, "velocity": 112}, {"time": 183601, "pitch": 27, "duration": 182, "velocity": 112}, {"time": 1437, "pitch": 58, "duration": 1921, "velocity": 90}, {"time": 1437, "pitch": 62, "duration": 1921, "velocity": 90}, {"time": 1437, "pitch": 65, "duration": 1921, "velocity": 90}, {"time": 3358, "pitch": 55, "duration": 1890, "velocity": 90}, {"time": 3358, "pitch": 58, "duration": 1860, "velocity": 90}, {"time": 3358, "pitch": 62, "duration": 1870, "velocity": 90}, {"time": 5278, "pitch": 58, "duration": 964, "velocity": 90}, {"time": 5278, "pitch": 62, "duration": 964, "velocity": 90}, {"time": 5278, "pitch": 65, "duration": 1920, "velocity": 90}, {"time": 6242, "pitch": 56, "duration": 956, "velocity": 90}, {"time": 6242, "pitch": 60, "duration": 956, "velocity": 90}, {"time": 7198, "pitch": 55, "duration": 964, "velocity": 90}, {"time": 7198, "pitch": 58, "duration": 1921, "velocity": 90}, {"time": 7198, "pitch": 63, "duration": 964, "velocity": 90}, {"time": 8162, "pitch": 54, "duration": 957, "velocity": 90}, {"time": 8162, "pitch": 60, "duration": 957, "velocity": 90}, {"time": 8162, "pitch": 63, "duration": 479, "velocity": 90}, {"time": 8641, "pitch": 65, "duration": 478, "velocity": 90}, {"time": 9119, "pitch": 58, "duration": 1920, "velocity": 90}, {"time": 9119, "pitch": 62, "duration": 1920, "velocity": 90}, {"time": 9119, "pitch": 65, "duration": 1920, "velocity": 90}, {"time": 11039, "pitch": 55, "duration": 1891, "velocity": 90}, {"time": 11039, "pitch": 58, "duration": 1861, "velocity": 90}, {"time": 11039, "pitch": 62, "duration": 1871, "velocity": 90}, {"time": 12960, "pitch": 58, "duration": 963, "velocity": 90}, {"time": 12960, "pitch": 62, "duration": 963, "velocity": 90}, {"time": 12960, "pitch": 65, "duration": 1920, "velocity": 90}, {"time": 13923, "pitch": 56, "duration": 957, "velocity": 90}, {"time": 13923, "pitch": 60, "duration": 957, "velocity": 90}, {"time": 14880, "pitch": 55, "duration": 957, "velocity": 90}, {"time": 14880, "pitch": 58, "duration": 1921, "velocity": 90}, {"time": 14880, "pitch": 63, "duration": 957, "velocity": 90}, {"time": 15837, "pitch": 54, "duration": 964, "velocity": 90}, {"time": 15837, "pitch": 60, "duration": 964, "velocity": 90}, {"time": 15837, "pitch": 63, "duration": 485, "velocity": 90}, {"time": 16322, "pitch": 65, "duration": 479, "velocity": 90}, {"time": 32157, "pitch": 55, "duration": 1921, "velocity": 90}, {"time": 32157, "pitch": 58, "duration": 1921, "velocity": 90}, {"time": 32157, "pitch": 62, "duration": 1921, "velocity": 90}, {"time": 34078, "pitch": 58, "duration": 1920, "velocity": 90}, {"time": 34078, "pitch": 62, "duration": 1920, "velocity": 90}, {"time": 34078, "pitch": 65, "duration": 1920, "velocity": 90}, {"time": 35998, "pitch": 58, "duration": 964, "velocity": 90}, {"time": 35998, "pitch": 60, "duration": 964, "velocity": 90}, {"time": 35998, "pitch": 63, "duration": 964, "velocity": 90}, {"time": 35998, "pitch": 65, "duration": 964, "velocity": 90}, {"time": 36962, "pitch": 57, "duration": 956, "velocity": 90}, {"time": 36962, "pitch": 60, "duration": 956, "velocity": 90}, {"time": 36962, "pitch": 63, "duration": 956, "velocity": 90}, {"time": 36962, "pitch": 66, "duration": 956, "velocity": 90}, {"time": 37918, "pitch": 58, "duration": 479, "velocity": 90}, {"time": 37918, "pitch": 62, "duration": 479, "velocity": 90}, {"time": 37918, "pitch": 67, "duration": 479, "velocity": 90}, {"time": 38397, "pitch": 62, "duration": 485, "velocity": 90}, {"time": 38397, "pitch": 66, "duration": 485, "velocity": 90}, {"time": 38397, "pitch": 69, "duration": 485, "velocity": 90}, {"time": 38882, "pitch": 62, "duration": 478, "velocity": 90}, {"time": 38882, "pitch": 67, "duration": 478, "velocity": 90}, {"time": 38882, "pitch": 70, "duration": 478, "velocity": 90}, {"time": 39360, "pitch": 62, "duration": 479, "velocity": 90}, {"time": 39360, "pitch": 65, "duration": 479, "velocity": 90}, {"time": 39360, "pitch": 68, "duration": 479, "velocity": 90}, {"time": 39360, "pitch": 71, "duration": 479, "velocity": 90}, {"time": 39839, "pitch": 58, "duration": 1920, "velocity": 90}, {"time": 39839, "pitch": 62, "duration": 1920, "velocity": 90}, {"time": 39839, "pitch": 65, "duration": 1920, "velocity": 90}, {"time": 41759, "pitch": 62, "duration": 1921, "velocity": 90}, {"time": 41759, "pitch": 65, "duration": 1921, "velocity": 90}, {"time": 41759, "pitch": 70, "duration": 1921, "velocity": 90}, {"time": 43680, "pitch": 58, "duration": 963, "velocity": 90}, {"time": 43680, "pitch": 63, "duration": 963, "velocity": 90}, {"time": 43680, "pitch": 67, "duration": 963, "velocity": 90}, {"time": 44643, "pitch": 63, "duration": 957, "velocity": 90}, {"time": 44643, "pitch": 67, "duration": 957, "velocity": 90}, {"time": 44643, "pitch": 70, "duration": 957, "velocity": 90}, {"time": 45600, "pitch": 63, "duration": 479, "velocity": 90}, {"time": 45600, "pitch": 67, "duration": 479, "velocity": 90}, {"time": 45600, "pitch": 72, "duration": 479, "velocity": 90}, {"time": 46079, "pitch": 62, "duration": 478, "velocity": 90}, {"time": 46079, "pitch": 65, "duration": 478, "velocity": 90}, {"time": 46079, "pitch": 70, "duration": 478, "velocity": 90}, {"time": 46557, "pitch": 60, "duration": 485, "velocity": 90}, {"time": 46557, "pitch": 63, "duration": 485, "velocity": 90}, {"time": 46557, "pitch": 68, "duration": 485, "velocity": 90}, {"time": 47042, "pitch": 60, "duration": 479, "velocity": 90}, {"time": 47042, "pitch": 65, "duration": 479, "velocity": 90}, {"time": 47042, "pitch": 69, "duration": 479, "velocity": 90}, {"time": 47521, "pitch": 58, "duration": 956, "velocity": 90}, {"time": 47521, "pitch": 62, "duration": 956, "velocity": 90}, {"time": 47521, "pitch": 65, "duration": 956, "velocity": 90}, {"time": 48477, "pitch": 57, "duration": 964, "velocity": 90}, {"time": 48477, "pitch": 60, "duration": 964, "velocity": 90}, {"time": 48477, "pitch": 65, "duration": 964, "velocity": 90}, {"time": 49441, "pitch": 58, "duration": 957, "velocity": 90}, {"time": 49441, "pitch": 62, "duration": 957, "velocity": 90}, {"time": 49441, "pitch": 67, "duration": 957, "velocity": 90}, {"time": 50398, "pitch": 56, "duration": 963, "velocity": 90}, {"time": 50398, "pitch": 60, "duration": 963, "velocity": 90}, {"time": 50398, "pitch": 65, "duration": 963, "velocity": 90}, {"time": 51361, "pitch": 55, "duration": 957, "velocity": 90}, {"time": 51361, "pitch": 58, "duration": 957, "velocity": 90}, {"time": 51361, "pitch": 63, "duration": 957, "velocity": 90}, {"time": 52318, "pitch": 58, "duration": 964, "velocity": 90}, {"time": 52318, "pitch": 62, "duration": 964, "velocity": 90}, {"time": 52318, "pitch": 65, "duration": 964, "velocity": 90}, {"time": 53282, "pitch": 58, "duration": 957, "velocity": 90}, {"time": 53282, "pitch": 63, "duration": 957, "velocity": 90}, {"time": 53282, "pitch": 67, "duration": 957, "velocity": 90}, {"time": 54239, "pitch": 60, "duration": 963, "velocity": 90}, {"time": 54239, "pitch": 65, "duration": 963, "velocity": 90}, {"time": 54239, "pitch": 69, "duration": 963, "velocity": 90}, {"time": 55202, "pitch": 58, "duration": 957, "velocity": 90}, {"time": 55202, "pitch": 62, "duration": 957, "velocity": 90}, {"time": 55202, "pitch": 65, "duration": 957, "velocity": 90}, {"time": 56159, "pitch": 57, "duration": 964, "velocity": 90}, {"time": 56159, "pitch": 60, "duration": 964, "velocity": 90}, {"time": 56159, "pitch": 65, "duration": 964, "velocity": 90}, {"time": 57123, "pitch": 58, "duration": 956, "velocity": 90}, {"time": 57123, "pitch": 62, "duration": 956, "velocity": 90}, {"time": 57123, "pitch": 67, "duration": 956, "velocity": 90}, {"time": 58079, "pitch": 56, "duration": 964, "velocity": 90}, {"time": 58079, "pitch": 60, "duration": 964, "velocity": 90}, {"time": 58079, "pitch": 65, "duration": 964, "velocity": 90}, {"time": 59043, "pitch": 58, "duration": 957, "velocity": 90}, {"time": 59043, "pitch": 63, "duration": 957, "velocity": 90}, {"time": 59043, "pitch": 67, "duration": 957, "velocity": 90}, {"time": 60000, "pitch": 62, "duration": 957, "velocity": 90}, {"time": 60000, "pitch": 65, "duration": 957, "velocity": 90}, {"time": 60000, "pitch": 70, "duration": 957, "velocity": 90}, {"time": 60957, "pitch": 63, "duration": 963, "velocity": 90}, {"time": 60957, "pitch": 67, "duration": 963, "velocity": 90}, {"time": 60957, "pitch": 70, "duration": 963, "velocity": 90}, {"time": 61920, "pitch": 60, "duration": 957, "velocity": 90}, {"time": 61920, "pitch": 65, "duration": 957, "velocity": 90}, {"time": 61920, "pitch": 69, "duration": 957, "velocity": 90}, {"time": 62877, "pitch": 62, "duration": 1203, "velocity": 80}, {"time": 62877, "pitch": 65, "duration": 1203, "velocity": 80}, {"time": 62877, "pitch": 70, "duration": 1203, "velocity": 80}, {"time": 80161, "pitch": 55, "duration": 1920, "velocity": 90}, {"time": 80161, "pitch": 58, "duration": 1920, "velocity": 90}, {"time": 80161, "pitch": 62, "duration": 1920, "velocity": 90}, {"time": 82081, "pitch": 58, "duration": 1921, "velocity": 90}, {"time": 82081, "pitch": 62, "duration": 1921, "velocity": 90}, {"time": 82081, "pitch": 65, "duration": 1921, "velocity": 90}, {"time": 84002, "pitch": 58, "duration": 957, "velocity": 90}, {"time": 84002, "pitch": 60, "duration": 957, "velocity": 90}, {"time": 84002, "pitch": 63, "duration": 957, "velocity": 90}, {"time": 84002, "pitch": 65, "duration": 957, "velocity": 90}, {"time": 84959, "pitch": 57, "duration": 963, "velocity": 90}, {"time": 84959, "pitch": 60, "duration": 963, "velocity": 90}, {"time": 84959, "pitch": 63, "duration": 963, "velocity": 90}, {"time": 84959, "pitch": 66, "duration": 963, "velocity": 90}, {"time": 85922, "pitch": 58, "duration": 479, "velocity": 90}, {"time": 85922, "pitch": 62, "duration": 479, "velocity": 90}, {"time": 85922, "pitch": 67, "duration": 479, "velocity": 90}, {"time": 86401, "pitch": 62, "duration": 478, "velocity": 90}, {"time": 86401, "pitch": 66, "duration": 478, "velocity": 90}, {"time": 86401, "pitch": 69, "duration": 478, "velocity": 90}, {"time": 86879, "pitch": 62, "duration": 478, "velocity": 90}, {"time": 86879, "pitch": 67, "duration": 478, "velocity": 90}, {"time": 86879, "pitch": 70, "duration": 478, "velocity": 90}, {"time": 87357, "pitch": 62, "duration": 486, "velocity": 90}, {"time": 87357, "pitch": 65, "duration": 486, "velocity": 90}, {"time": 87357, "pitch": 68, "duration": 486, "velocity": 90}, {"time": 87357, "pitch": 71, "duration": 486, "velocity": 90}, {"time": 87843, "pitch": 58, "duration": 1920, "velocity": 90}, {"time": 87843, "pitch": 62, "duration": 1920, "velocity": 90}, {"time": 87843, "pitch": 65, "duration": 1920, "velocity": 90}, {"time": 89763, "pitch": 62, "duration": 1914, "velocity": 90}, {"time": 89763, "pitch": 65, "duration": 1914, "velocity": 90}, {"time": 89763, "pitch": 70, "duration": 1914, "velocity": 90}, {"time": 91677, "pitch": 58, "duration": 963, "velocity": 90}, {"time": 91677, "pitch": 63, "duration": 963, "velocity": 90}, {"time": 91677, "pitch": 67, "duration": 963, "velocity": 90}, {"time": 92640, "pitch": 63, "duration": 957, "velocity": 90}, {"time": 92640, "pitch": 67, "duration": 957, "velocity": 90}, {"time": 92640, "pitch": 70, "duration": 957, "velocity": 90}, {"time": 93597, "pitch": 63, "duration": 485, "velocity": 90}, {"time": 93597, "pitch": 67, "duration": 485, "velocity": 90}, {"time": 93597, "pitch": 72, "duration": 485, "velocity": 90}, {"time": 94082, "pitch": 62, "duration": 479, "velocity": 90}, {"time": 94082, "pitch": 65, "duration": 479, "velocity": 90}, {"time": 94082, "pitch": 70, "duration": 479, "velocity": 90}, {"time": 94561, "pitch": 60, "duration": 478, "velocity": 90}, {"time": 94561, "pitch": 63, "duration": 478, "velocity": 90}, {"time": 94561, "pitch": 68, "duration": 478, "velocity": 90}, {"time": 95039, "pitch": 60, "duration": 478, "velocity": 90}, {"time": 95039, "pitch": 65, "duration": 478, "velocity": 90}, {"time": 95039, "pitch": 69, "duration": 478, "velocity": 90}, {"time": 95517, "pitch": 58, "duration": 964, "velocity": 90}, {"time": 95517, "pitch": 62, "duration": 964, "velocity": 90}, {"time": 95517, "pitch": 65, "duration": 964, "velocity": 90}, {"time": 96481, "pitch": 57, "duration": 957, "velocity": 90}, {"time": 96481, "pitch": 60, "duration": 957, "velocity": 90}, {"time": 96481, "pitch": 65, "duration": 957, "velocity": 90}, {"time": 97438, "pitch": 58, "duration": 964, "velocity": 90}, {"time": 97438, "pitch": 62, "duration": 964, "velocity": 90}, {"time": 97438, "pitch": 67, "duration": 964, "velocity": 90}, {"time": 98402, "pitch": 56, "duration": 956, "velocity": 90}, {"time": 98402, "pitch": 60, "duration": 956, "velocity": 90}, {"time": 98402, "pitch": 65, "duration": 956, "velocity": 90}, {"time": 99358, "pitch": 55, "duration": 964, "velocity": 90}, {"time": 99358, "pitch": 58, "duration": 964, "velocity": 90}, {"time": 99358, "pitch": 63, "duration": 964, "velocity": 90}, {"time": 100322, "pitch": 58, "duration": 957, "velocity": 90}, {"time": 100322, "pitch": 62, "duration": 957, "velocity": 90}, {"time": 100322, "pitch": 65, "duration": 957, "velocity": 90}, {"time": 101279, "pitch": 58, "duration": 963, "velocity": 90}, {"time": 101279, "pitch": 63, "duration": 963, "velocity": 90}, {"time": 101279, "pitch": 67, "duration": 963, "velocity": 90}, {"time": 102242, "pitch": 60, "duration": 957, "velocity": 90}, {"time": 102242, "pitch": 65, "duration": 957, "velocity": 90}, {"time": 102242, "pitch": 69, "duration": 957, "velocity": 90}, {"time": 103199, "pitch": 58, "duration": 964, "velocity": 90}, {"time": 103199, "pitch": 62, "duration": 964, "velocity": 90}, {"time": 103199, "pitch": 65, "duration": 964, "velocity": 90}, {"time": 104163, "pitch": 57, "duration": 957, "velocity": 90}, {"time": 104163, "pitch": 60, "duration": 957, "velocity": 90}, {"time": 104163, "pitch": 65, "duration": 957, "velocity": 90}, {"time": 105120, "pitch": 58, "duration": 963, "velocity": 90}, {"time": 105120, "pitch": 62, "duration": 963, "velocity": 90}, {"time": 105120, "pitch": 67, "duration": 963, "velocity": 90}, {"time": 106083, "pitch": 56, "duration": 957, "velocity": 90}, {"time": 106083, "pitch": 60, "duration": 957, "velocity": 90}, {"time": 106083, "pitch": 65, "duration": 957, "velocity": 90}, {"time": 107040, "pitch": 58, "duration": 957, "velocity": 90}, {"time": 107040, "pitch": 63, "duration": 957, "velocity": 90}, {"time": 107040, "pitch": 67, "duration": 957, "velocity": 90}, {"time": 107997, "pitch": 62, "duration": 963, "velocity": 90}, {"time": 107997, "pitch": 65, "duration": 963, "velocity": 90}, {"time": 107997, "pitch": 70, "duration": 963, "velocity": 90}, {"time": 108960, "pitch": 63, "duration": 957, "velocity": 90}, {"time": 108960, "pitch": 67, "duration": 957, "velocity": 90}, {"time": 108960, "pitch": 70, "duration": 957, "velocity": 90}, {"time": 109917, "pitch": 60, "duration": 964, "velocity": 90}, {"time": 109917, "pitch": 65, "duration": 964, "velocity": 90}, {"time": 109917, "pitch": 69, "duration": 964, "velocity": 90}, {"time": 118563, "pitch": 58, "duration": 956, "velocity": 90}, {"time": 118563, "pitch": 62, "duration": 956, "velocity": 90}, {"time": 118563, "pitch": 65, "duration": 1920, "velocity": 90}, {"time": 119519, "pitch": 57, "duration": 964, "velocity": 90}, {"time": 119519, "pitch": 60, "duration": 964, "velocity": 90}, {"time": 120483, "pitch": 55, "duration": 1920, "velocity": 90}, {"time": 120483, "pitch": 58, "duration": 1920, "velocity": 90}, {"time": 120483, "pitch": 62, "duration": 1920, "velocity": 90}, {"time": 122403, "pitch": 58, "duration": 957, "velocity": 90}, {"time": 122403, "pitch": 62, "duration": 957, "velocity": 90}, {"time": 122403, "pitch": 65, "duration": 1914, "velocity": 90}, {"time": 123360, "pitch": 57, "duration": 957, "velocity": 90}, {"time": 123360, "pitch": 60, "duration": 957, "velocity": 90}, {"time": 124317, "pitch": 55, "duration": 1920, "velocity": 90}, {"time": 124317, "pitch": 58, "duration": 1920, "velocity": 90}, {"time": 124317, "pitch": 62, "duration": 1442, "velocity": 90}, {"time": 125759, "pitch": 63, "duration": 478, "velocity": 90}, {"time": 126237, "pitch": 58, "duration": 964, "velocity": 90}, {"time": 126237, "pitch": 62, "duration": 964, "velocity": 90}, {"time": 126237, "pitch": 65, "duration": 1921, "velocity": 90}, {"time": 127201, "pitch": 57, "duration": 957, "velocity": 90}, {"time": 127201, "pitch": 60, "duration": 957, "velocity": 90}, {"time": 128158, "pitch": 55, "duration": 1920, "velocity": 90}, {"time": 128158, "pitch": 58, "duration": 1920, "velocity": 90}, {"time": 128158, "pitch": 62, "duration": 1920, "velocity": 90}, {"time": 130078, "pitch": 58, "duration": 964, "velocity": 90}, {"time": 130078, "pitch": 62, "duration": 964, "velocity": 90}, {"time": 130078, "pitch": 65, "duration": 1921, "velocity": 90}, {"time": 131042, "pitch": 57, "duration": 957, "velocity": 90}, {"time": 131042, "pitch": 60, "duration": 957, "velocity": 90}, {"time": 131999, "pitch": 55, "duration": 1920, "velocity": 90}, {"time": 131999, "pitch": 58, "duration": 1920, "velocity": 90}, {"time": 131999, "pitch": 62, "duration": 1442, "velocity": 90}, {"time": 133441, "pitch": 63, "duration": 478, "velocity": 90}, {"time": 139680, "pitch": 58, "duration": 479, "velocity": 90}, {"time": 139680, "pitch": 62, "duration": 479, "velocity": 90}, {"time": 139680, "pitch": 67, "duration": 479, "velocity": 90}, {"time": 140159, "pitch": 62, "duration": 478, "velocity": 90}, {"time": 140159, "pitch": 66, "duration": 478, "velocity": 90}, {"time": 140159, "pitch": 69, "duration": 478, "velocity": 90}, {"time": 140637, "pitch": 62, "duration": 485, "velocity": 90}, {"time": 140637, "pitch": 67, "duration": 485, "velocity": 90}, {"time": 140637, "pitch": 70, "duration": 485, "velocity": 90}, {"time": 141122, "pitch": 62, "duration": 479, "velocity": 90}, {"time": 141122, "pitch": 65, "duration": 479, "velocity": 90}, {"time": 141122, "pitch": 68, "duration": 479, "velocity": 90}, {"time": 141122, "pitch": 71, "duration": 479, "velocity": 90}, {"time": 141601, "pitch": 58, "duration": 1920, "velocity": 90}, {"time": 141601, "pitch": 62, "duration": 1920, "velocity": 90}, {"time": 141601, "pitch": 65, "duration": 1920, "velocity": 90}, {"time": 143521, "pitch": 62, "duration": 1921, "velocity": 90}, {"time": 143521, "pitch": 65, "duration": 1921, "velocity": 90}, {"time": 143521, "pitch": 70, "duration": 1921, "velocity": 90}, {"time": 145442, "pitch": 58, "duration": 956, "velocity": 90}, {"time": 145442, "pitch": 63, "duration": 956, "velocity": 90}, {"time": 145442, "pitch": 67, "duration": 956, "velocity": 90}, {"time": 146398, "pitch": 63, "duration": 964, "velocity": 90}, {"time": 146398, "pitch": 67, "duration": 964, "velocity": 90}, {"time": 146398, "pitch": 70, "duration": 964, "velocity": 90}, {"time": 147362, "pitch": 63, "duration": 478, "velocity": 90}, {"time": 147362, "pitch": 67, "duration": 478, "velocity": 90}, {"time": 147362, "pitch": 72, "duration": 478, "velocity": 90}, {"time": 147840, "pitch": 62, "duration": 479, "velocity": 90}, {"time": 147840, "pitch": 65, "duration": 479, "velocity": 90}, {"time": 147840, "pitch": 70, "duration": 479, "velocity": 90}, {"time": 148319, "pitch": 60, "duration": 478, "velocity": 90}, {"time": 148319, "pitch": 63, "duration": 478, "velocity": 90}, {"time": 148319, "pitch": 68, "duration": 478, "velocity": 90}, {"time": 148797, "pitch": 57, "duration": 486, "velocity": 90}, {"time": 148797, "pitch": 60, "duration": 486, "velocity": 90}, {"time": 148797, "pitch": 65, "duration": 486, "velocity": 90}, {"time": 149283, "pitch": 61, "duration": 478, "velocity": 90}, {"time": 149283, "pitch": 65, "duration": 478, "velocity": 90}, {"time": 149283, "pitch": 70, "duration": 478, "velocity": 90}, {"time": 149761, "pitch": 63, "duration": 478, "velocity": 90}, {"time": 149761, "pitch": 68, "duration": 478, "velocity": 90}, {"time": 149761, "pitch": 72, "duration": 478, "velocity": 90}, {"time": 150239, "pitch": 66, "duration": 479, "velocity": 90}, {"time": 150239, "pitch": 70, "duration": 479, "velocity": 90}, {"time": 150239, "pitch": 73, "duration": 479, "velocity": 90}, {"time": 150718, "pitch": 68, "duration": 485, "velocity": 90}, {"time": 150718, "pitch": 72, "duration": 485, "velocity": 90}, {"time": 150718, "pitch": 75, "duration": 485, "velocity": 90}, {"time": 151203, "pitch": 58, "duration": 957, "velocity": 90}, {"time": 151203, "pitch": 62, "duration": 957, "velocity": 90}, {"time": 151203, "pitch": 65, "duration": 957, "velocity": 90}, {"time": 152160, "pitch": 57, "duration": 963, "velocity": 90}, {"time": 152160, "pitch": 60, "duration": 963, "velocity": 90}, {"time": 152160, "pitch": 65, "duration": 963, "velocity": 90}, {"time": 153123, "pitch": 58, "duration": 957, "velocity": 90}, {"time": 153123, "pitch": 62, "duration": 957, "velocity": 90}, {"time": 153123, "pitch": 67, "duration": 957, "velocity": 90}, {"time": 154080, "pitch": 56, "duration": 957, "velocity": 90}, {"time": 154080, "pitch": 60, "duration": 957, "velocity": 90}, {"time": 154080, "pitch": 65, "duration": 957, "velocity": 90}, {"time": 155037, "pitch": 55, "duration": 964, "velocity": 90}, {"time": 155037, "pitch": 58, "duration": 964, "velocity": 90}, {"time": 155037, "pitch": 63, "duration": 964, "velocity": 90}, {"time": 156001, "pitch": 58, "duration": 956, "velocity": 90}, {"time": 156001, "pitch": 62, "duration": 956, "velocity": 90}, {"time": 156001, "pitch": 65, "duration": 956, "velocity": 90}, {"time": 156957, "pitch": 58, "duration": 964, "velocity": 90}, {"time": 156957, "pitch": 63, "duration": 964, "velocity": 90}, {"time": 156957, "pitch": 67, "duration": 964, "velocity": 90}, {"time": 157921, "pitch": 60, "duration": 957, "velocity": 90}, {"time": 157921, "pitch": 65, "duration": 957, "velocity": 90}, {"time": 157921, "pitch": 69, "duration": 957, "velocity": 90}, {"time": 158878, "pitch": 58, "duration": 963, "velocity": 90}, {"time": 158878, "pitch": 62, "duration": 963, "velocity": 90}, {"time": 158878, "pitch": 65, "duration": 963, "velocity": 90}, {"time": 159841, "pitch": 57, "duration": 957, "velocity": 90}, {"time": 159841, "pitch": 60, "duration": 957, "velocity": 90}, {"time": 159841, "pitch": 65, "duration": 957, "velocity": 90}, {"time": 160798, "pitch": 58, "duration": 964, "velocity": 90}, {"time": 160798, "pitch": 62, "duration": 964, "velocity": 90}, {"time": 160798, "pitch": 67, "duration": 964, "velocity": 90}, {"time": 161762, "pitch": 56, "duration": 957, "velocity": 90}, {"time": 161762, "pitch": 60, "duration": 957, "velocity": 90}, {"time": 161762, "pitch": 65, "duration": 957, "velocity": 90}, {"time": 162719, "pitch": 58, "duration": 963, "velocity": 90}, {"time": 162719, "pitch": 63, "duration": 963, "velocity": 90}, {"time": 162719, "pitch": 67, "duration": 963, "velocity": 90}, {"time": 163682, "pitch": 62, "duration": 957, "velocity": 90}, {"time": 163682, "pitch": 65, "duration": 957, "velocity": 90}, {"time": 163682, "pitch": 70, "duration": 957, "velocity": 90}, {"time": 164639, "pitch": 63, "duration": 964, "velocity": 90}, {"time": 164639, "pitch": 67, "duration": 964, "velocity": 90}, {"time": 164639, "pitch": 70, "duration": 964, "velocity": 90}, {"time": 165603, "pitch": 60, "duration": 956, "velocity": 90}, {"time": 165603, "pitch": 65, "duration": 956, "velocity": 90}, {"time": 165603, "pitch": 69, "duration": 956, "velocity": 90}, {"time": 166559, "pitch": 58, "duration": 1921, "velocity": 90}, {"time": 166559, "pitch": 62, "duration": 1921, "velocity": 90}, {"time": 166559, "pitch": 65, "duration": 1921, "velocity": 90}, {"time": 168480, "pitch": 55, "duration": 1890, "velocity": 90}, {"time": 168480, "pitch": 58, "duration": 1861, "velocity": 90}, {"time": 168480, "pitch": 62, "duration": 1871, "velocity": 90}, {"time": 170400, "pitch": 58, "duration": 957, "velocity": 90}, {"time": 170400, "pitch": 62, "duration": 957, "velocity": 90}, {"time": 170400, "pitch": 65, "duration": 1921, "velocity": 90}, {"time": 171357, "pitch": 56, "duration": 964, "velocity": 90}, {"time": 171357, "pitch": 60, "duration": 964, "velocity": 90}, {"time": 172321, "pitch": 55, "duration": 957, "velocity": 90}, {"time": 172321, "pitch": 58, "duration": 1920, "velocity": 90}, {"time": 172321, "pitch": 63, "duration": 957, "velocity": 90}, {"time": 173278, "pitch": 54, "duration": 963, "velocity": 90}, {"time": 173278, "pitch": 60, "duration": 963, "velocity": 90}, {"time": 173278, "pitch": 63, "duration": 485, "velocity": 90}, {"time": 173763, "pitch": 65, "duration": 478, "velocity": 90}, {"time": 174241, "pitch": 58, "duration": 1921, "velocity": 90}, {"time": 174241, "pitch": 62, "duration": 1921, "velocity": 90}, {"time": 174241, "pitch": 65, "duration": 1921, "velocity": 90}, {"time": 176162, "pitch": 55, "duration": 1890, "velocity": 90}, {"time": 176162, "pitch": 58, "duration": 1859, "velocity": 90}, {"time": 176162, "pitch": 62, "duration": 1870, "velocity": 90}, {"time": 178082, "pitch": 58, "duration": 957, "velocity": 90}, {"time": 178082, "pitch": 62, "duration": 957, "velocity": 90}, {"time": 178082, "pitch": 65, "duration": 1920, "velocity": 90}, {"time": 179039, "pitch": 56, "duration": 963, "velocity": 90}, {"time": 179039, "pitch": 60, "duration": 963, "velocity": 90}, {"time": 180002, "pitch": 55, "duration": 1931, "velocity": 90}, {"time": 180002, "pitch": 58, "duration": 3356, "velocity": 90}, {"time": 180002, "pitch": 63, "duration": 3356, "velocity": 90}, {"time": 181923, "pitch": 54, "duration": 1435, "velocity": 90}, {"time": 16801, "pitch": 70, "duration": 408, "velocity": 100}, {"time": 17279, "pitch": 74, "duration": 458, "velocity": 100}, {"time": 17757, "pitch": 72, "duration": 496, "velocity": 100}, {"time": 18721, "pitch": 70, "duration": 498, "velocity": 100}, {"time": 19199, "pitch": 74, "duration": 190, "velocity": 100}, {"time": 19439, "pitch": 74, "duration": 219, "velocity": 100}, {"time": 19678, "pitch": 72, "duration": 445, "velocity": 100}, {"time": 20641, "pitch": 70, "duration": 509, "velocity": 100}, {"time": 21120, "pitch": 74, "duration": 448, "velocity": 100}, {"time": 21598, "pitch": 72, "duration": 469, "velocity": 100}, {"time": 22077, "pitch": 70, "duration": 465, "velocity": 100}, {"time": 22562, "pitch": 77, "duration": 688, "velocity": 100}, {"time": 23279, "pitch": 75, "duration": 140, "velocity": 100}, {"time": 23429, "pitch": 74, "duration": 80, "velocity": 100}, {"time": 23519, "pitch": 72, "duration": 438, "velocity": 100}, {"time": 24482, "pitch": 70, "duration": 459, "velocity": 100}, {"time": 24961, "pitch": 74, "duration": 448, "velocity": 100}, {"time": 25439, "pitch": 72, "duration": 478, "velocity": 100}, {"time": 26403, "pitch": 70, "duration": 468, "velocity": 100}, {"time": 26881, "pitch": 74, "duration": 189, "velocity": 100}, {"time": 27120, "pitch": 74, "duration": 200, "velocity": 100}, {"time": 27360, "pitch": 72, "duration": 508, "velocity": 100}, {"time": 28323, "pitch": 70, "duration": 459, "velocity": 100}, {"time": 28802, "pitch": 74, "duration": 438, "velocity": 100}, {"time": 29280, "pitch": 72, "duration": 448, "velocity": 100}, {"time": 29758, "pitch": 70, "duration": 449, "velocity": 100}, {"time": 30237, "pitch": 77, "duration": 744, "velocity": 100}, {"time": 30961, "pitch": 75, "duration": 90, "velocity": 100}, {"time": 31111, "pitch": 74, "duration": 79, "velocity": 100}, {"time": 31200, "pitch": 70, "duration": 449, "velocity": 100}, {"time": 31679, "pitch": 72, "duration": 279, "velocity": 100}, {"time": 31918, "pitch": 74, "duration": 189, "velocity": 100}, {"time": 32157, "pitch": 74, "duration": 283, "velocity": 100}, {"time": 32882, "pitch": 77, "duration": 89, "velocity": 100}, {"time": 33031, "pitch": 77, "duration": 339, "velocity": 100}, {"time": 33360, "pitch": 75, "duration": 239, "velocity": 100}, {"time": 33599, "pitch": 74, "duration": 229, "velocity": 100}, {"time": 33838, "pitch": 72, "duration": 140, "velocity": 100}, {"time": 33988, "pitch": 70, "duration": 342, "velocity": 100}, {"time": 34320, "pitch": 65, "duration": 172, "velocity": 100}, {"time": 34563, "pitch": 65, "duration": 259, "velocity": 100}, {"time": 34802, "pitch": 74, "duration": 100, "velocity": 100}, {"time": 34952, "pitch": 74, "duration": 478, "velocity": 100}, {"time": 35520, "pitch": 74, "duration": 149, "velocity": 100}, {"time": 35679, "pitch": 75, "duration": 150, "velocity": 100}, {"time": 35839, "pitch": 74, "duration": 149, "velocity": 100}, {"time": 35998, "pitch": 72, "duration": 705, "velocity": 100}, {"time": 36722, "pitch": 70, "duration": 150, "velocity": 100}, {"time": 36882, "pitch": 72, "duration": 498, "velocity": 100}, {"time": 37440, "pitch": 72, "duration": 150, "velocity": 100}, {"time": 37600, "pitch": 74, "duration": 149, "velocity": 100}, {"time": 37759, "pitch": 72, "duration": 149, "velocity": 100}, {"time": 37918, "pitch": 70, "duration": 691, "velocity": 100}, {"time": 38639, "pitch": 72, "duration": 142, "velocity": 100}, {"time": 38791, "pitch": 74, "duration": 839, "velocity": 100}, {"time": 40560, "pitch": 77, "duration": 91, "velocity": 100}, {"time": 40712, "pitch": 77, "duration": 350, "velocity": 100}, {"time": 41042, "pitch": 75, "duration": 229, "velocity": 100}, {"time": 41281, "pitch": 74, "duration": 249, "velocity": 100}, {"time": 41520, "pitch": 72, "duration": 140, "velocity": 100}, {"time": 41670, "pitch": 70, "duration": 309, "velocity": 100}, {"time": 41998, "pitch": 65, "duration": 220, "velocity": 100}, {"time": 42238, "pitch": 65, "duration": 222, "velocity": 100}, {"time": 42480, "pitch": 74, "duration": 112, "velocity": 100}, {"time": 42632, "pitch": 74, "duration": 510, "velocity": 100}, {"time": 43201, "pitch": 74, "duration": 150, "velocity": 100}, {"time": 43361, "pitch": 75, "duration": 149, "velocity": 100}, {"time": 43520, "pitch": 74, "duration": 150, "velocity": 100}, {"time": 43680, "pitch": 72, "duration": 680, "velocity": 100}, {"time": 44401, "pitch": 70, "duration": 151, "velocity": 100}, {"time": 44552, "pitch": 72, "duration": 500, "velocity": 100}, {"time": 45122, "pitch": 74, "duration": 219, "velocity": 100}, {"time": 45361, "pitch": 75, "duration": 219, "velocity": 100}, {"time": 45600, "pitch": 79, "duration": 708, "velocity": 100}, {"time": 46318, "pitch": 77, "duration": 109, "velocity": 100}, {"time": 46467, "pitch": 77, "duration": 585, "velocity": 100}, {"time": 47521, "pitch": 70, "duration": 448, "velocity": 118}, {"time": 47999, "pitch": 65, "duration": 219, "velocity": 120}, {"time": 48238, "pitch": 70, "duration": 209, "velocity": 115}, {"time": 48477, "pitch": 72, "duration": 465, "velocity": 115}, {"time": 48963, "pitch": 79, "duration": 458, "velocity": 125}, {"time": 49441, "pitch": 77, "duration": 219, "velocity": 105}, {"time": 49680, "pitch": 74, "duration": 219, "velocity": 107}, {"time": 49919, "pitch": 72, "duration": 220, "velocity": 109}, {"time": 50159, "pitch": 70, "duration": 824, "velocity": 94}, {"time": 51361, "pitch": 67, "duration": 220, "velocity": 109}, {"time": 51601, "pitch": 69, "duration": 199, "velocity": 102}, {"time": 51840, "pitch": 70, "duration": 239, "velocity": 105}, {"time": 52079, "pitch": 65, "duration": 458, "velocity": 113}, {"time": 52557, "pitch": 72, "duration": 220, "velocity": 111}, {"time": 52797, "pitch": 70, "duration": 232, "velocity": 92}, {"time": 53039, "pitch": 74, "duration": 233, "velocity": 107}, {"time": 53282, "pitch": 75, "duration": 219, "velocity": 100}, {"time": 53521, "pitch": 74, "duration": 219, "velocity": 105}, {"time": 53760, "pitch": 70, "duration": 100, "velocity": 107}, {"time": 53880, "pitch": 72, "duration": 90, "velocity": 94}, {"time": 53999, "pitch": 72, "duration": 880, "velocity": 118}, {"time": 55202, "pitch": 70, "duration": 449, "velocity": 115}, {"time": 55681, "pitch": 65, "duration": 219, "velocity": 115}, {"time": 55920, "pitch": 70, "duration": 229, "velocity": 98}, {"time": 56159, "pitch": 72, "duration": 449, "velocity": 105}, {"time": 56637, "pitch": 79, "duration": 476, "velocity": 105}, {"time": 57123, "pitch": 77, "duration": 219, "velocity": 111}, {"time": 57362, "pitch": 74, "duration": 229, "velocity": 113}, {"time": 57601, "pitch": 72, "duration": 219, "velocity": 98}, {"time": 57840, "pitch": 70, "duration": 920, "velocity": 107}, {"time": 59043, "pitch": 67, "duration": 219, "velocity": 115}, {"time": 59282, "pitch": 69, "duration": 220, "velocity": 107}, {"time": 59521, "pitch": 70, "duration": 220, "velocity": 105}, {"time": 59761, "pitch": 65, "duration": 448, "velocity": 109}, {"time": 60239, "pitch": 72, "duration": 239, "velocity": 107}, {"time": 60478, "pitch": 70, "duration": 230, "velocity": 98}, {"time": 60717, "pitch": 74, "duration": 230, "velocity": 102}, {"time": 60957, "pitch": 75, "duration": 202, "velocity": 94}, {"time": 61199, "pitch": 74, "duration": 233, "velocity": 102}, {"time": 61442, "pitch": 70, "duration": 100, "velocity": 105}, {"time": 61562, "pitch": 72, "duration": 99, "velocity": 96}, {"time": 61681, "pitch": 72, "duration": 459, "velocity": 102}, {"time": 62160, "pitch": 70, "duration": 219, "velocity": 109}, {"time": 62399, "pitch": 69, "duration": 249, "velocity": 111}, {"time": 62638, "pitch": 70, "duration": 1193, "velocity": 98}, {"time": 64798, "pitch": 70, "duration": 414, "velocity": 100}, {"time": 65283, "pitch": 74, "duration": 458, "velocity": 100}, {"time": 65761, "pitch": 72, "duration": 489, "velocity": 100}, {"time": 66718, "pitch": 70, "duration": 505, "velocity": 100}, {"time": 67203, "pitch": 74, "duration": 190, "velocity": 100}, {"time": 67442, "pitch": 74, "duration": 220, "velocity": 100}, {"time": 67682, "pitch": 72, "duration": 438, "velocity": 100}, {"time": 68638, "pitch": 70, "duration": 449, "velocity": 100}, {"time": 69117, "pitch": 74, "duration": 455, "velocity": 100}, {"time": 69602, "pitch": 72, "duration": 468, "velocity": 100}, {"time": 70080, "pitch": 70, "duration": 459, "velocity": 100}, {"time": 70559, "pitch": 77, "duration": 690, "velocity": 100}, {"time": 71280, "pitch": 75, "duration": 141, "velocity": 100}, {"time": 71431, "pitch": 74, "duration": 81, "velocity": 100}, {"time": 71522, "pitch": 72, "duration": 439, "velocity": 100}, {"time": 72479, "pitch": 70, "duration": 459, "velocity": 100}, {"time": 72958, "pitch": 74, "duration": 455, "velocity": 100}, {"time": 73443, "pitch": 72, "duration": 478, "velocity": 100}, {"time": 74400, "pitch": 70, "duration": 468, "velocity": 100}, {"time": 74878, "pitch": 74, "duration": 192, "velocity": 100}, {"time": 75121, "pitch": 74, "duration": 202, "velocity": 100}, {"time": 75363, "pitch": 72, "duration": 509, "velocity": 100}, {"time": 76320, "pitch": 70, "duration": 459, "velocity": 100}, {"time": 76798, "pitch": 74, "duration": 439, "velocity": 100}, {"time": 77277, "pitch": 72, "duration": 455, "velocity": 100}, {"time": 77762, "pitch": 70, "duration": 449, "velocity": 100}, {"time": 78241, "pitch": 77, "duration": 697, "velocity": 100}, {"time": 78958, "pitch": 75, "duration": 90, "velocity": 100}, {"time": 79108, "pitch": 74, "duration": 79, "velocity": 100}, {"time": 79197, "pitch": 70, "duration": 455, "velocity": 100}, {"time": 79683, "pitch": 72, "duration": 219, "velocity": 100}, {"time": 79922, "pitch": 74, "duration": 189, "velocity": 100}, {"time": 80161, "pitch": 74, "duration": 279, "velocity": 100}, {"time": 80879, "pitch": 77, "duration": 89, "velocity": 100}, {"time": 81028, "pitch": 77, "duration": 342, "velocity": 100}, {"time": 81360, "pitch": 75, "duration": 243, "velocity": 100}, {"time": 81603, "pitch": 74, "duration": 229, "velocity": 100}, {"time": 81842, "pitch": 72, "duration": 140, "velocity": 100}, {"time": 81992, "pitch": 70, "duration": 339, "velocity": 100}, {"time": 82321, "pitch": 65, "duration": 169, "velocity": 100}, {"time": 82560, "pitch": 65, "duration": 259, "velocity": 100}, {"time": 82799, "pitch": 74, "duration": 100, "velocity": 100}, {"time": 82948, "pitch": 74, "duration": 484, "velocity": 100}, {"time": 83523, "pitch": 74, "duration": 150, "velocity": 100}, {"time": 83683, "pitch": 75, "duration": 149, "velocity": 100}, {"time": 83842, "pitch": 74, "duration": 150, "velocity": 100}, {"time": 84002, "pitch": 72, "duration": 697, "velocity": 100}, {"time": 84719, "pitch": 70, "duration": 250, "velocity": 100}, {"time": 84959, "pitch": 72, "duration": 418, "velocity": 100}, {"time": 85437, "pitch": 72, "duration": 152, "velocity": 100}, {"time": 85599, "pitch": 74, "duration": 151, "velocity": 100}, {"time": 85760, "pitch": 72, "duration": 152, "velocity": 100}, {"time": 85922, "pitch": 70, "duration": 698, "velocity": 100}, {"time": 86640, "pitch": 72, "duration": 119, "velocity": 100}, {"time": 86789, "pitch": 74, "duration": 841, "velocity": 100}, {"time": 88560, "pitch": 77, "duration": 90, "velocity": 100}, {"time": 88710, "pitch": 77, "duration": 319, "velocity": 100}, {"time": 89039, "pitch": 75, "duration": 229, "velocity": 100}, {"time": 89278, "pitch": 74, "duration": 253, "velocity": 100}, {"time": 89520, "pitch": 72, "duration": 142, "velocity": 100}, {"time": 89672, "pitch": 70, "duration": 310, "velocity": 100}, {"time": 90002, "pitch": 65, "duration": 180, "velocity": 100}, {"time": 90241, "pitch": 65, "duration": 270, "velocity": 100}, {"time": 90481, "pitch": 74, "duration": 109, "velocity": 100}, {"time": 90630, "pitch": 74, "duration": 508, "velocity": 100}, {"time": 91198, "pitch": 74, "duration": 150, "velocity": 100}, {"time": 91358, "pitch": 75, "duration": 149, "velocity": 100}, {"time": 91517, "pitch": 74, "duration": 150, "velocity": 100}, {"time": 91677, "pitch": 72, "duration": 714, "velocity": 100}, {"time": 92401, "pitch": 70, "duration": 100, "velocity": 100}, {"time": 92551, "pitch": 72, "duration": 498, "velocity": 100}, {"time": 93119, "pitch": 74, "duration": 219, "velocity": 100}, {"time": 93358, "pitch": 75, "duration": 219, "velocity": 100}, {"time": 93597, "pitch": 79, "duration": 715, "velocity": 100}, {"time": 94321, "pitch": 77, "duration": 110, "velocity": 100}, {"time": 94471, "pitch": 77, "duration": 578, "velocity": 100}, {"time": 95517, "pitch": 70, "duration": 455, "velocity": 118}, {"time": 96003, "pitch": 65, "duration": 219, "velocity": 120}, {"time": 96242, "pitch": 70, "duration": 209, "velocity": 115}, {"time": 96481, "pitch": 72, "duration": 459, "velocity": 115}, {"time": 96960, "pitch": 79, "duration": 458, "velocity": 115}, {"time": 97438, "pitch": 77, "duration": 222, "velocity": 105}, {"time": 97681, "pitch": 74, "duration": 222, "velocity": 107}, {"time": 97923, "pitch": 72, "duration": 219, "velocity": 109}, {"time": 98162, "pitch": 70, "duration": 818, "velocity": 94}, {"time": 99358, "pitch": 67, "duration": 220, "velocity": 109}, {"time": 99598, "pitch": 69, "duration": 199, "velocity": 102}, {"time": 99837, "pitch": 70, "duration": 242, "velocity": 105}, {"time": 100079, "pitch": 65, "duration": 462, "velocity": 113}, {"time": 100561, "pitch": 72, "duration": 219, "velocity": 111}, {"time": 100800, "pitch": 70, "duration": 230, "velocity": 92}, {"time": 101040, "pitch": 74, "duration": 229, "velocity": 107}, {"time": 101279, "pitch": 75, "duration": 219, "velocity": 100}, {"time": 101518, "pitch": 74, "duration": 219, "velocity": 105}, {"time": 101757, "pitch": 70, "duration": 101, "velocity": 107}, {"time": 101878, "pitch": 72, "duration": 102, "velocity": 94}, {"time": 102000, "pitch": 72, "duration": 880, "velocity": 108}, {"time": 103199, "pitch": 70, "duration": 449, "velocity": 115}, {"time": 103678, "pitch": 65, "duration": 222, "velocity": 115}, {"time": 103920, "pitch": 70, "duration": 233, "velocity": 98}, {"time": 104163, "pitch": 72, "duration": 448, "velocity": 105}, {"time": 104641, "pitch": 79, "duration": 469, "velocity": 105}, {"time": 105120, "pitch": 77, "duration": 219, "velocity": 111}, {"time": 105359, "pitch": 74, "duration": 219, "velocity": 113}, {"time": 105598, "pitch": 72, "duration": 222, "velocity": 98}, {"time": 105841, "pitch": 70, "duration": 920, "velocity": 107}, {"time": 107040, "pitch": 67, "duration": 219, "velocity": 115}, {"time": 107279, "pitch": 69, "duration": 210, "velocity": 107}, {"time": 107518, "pitch": 70, "duration": 220, "velocity": 105}, {"time": 107758, "pitch": 65, "duration": 451, "velocity": 109}, {"time": 108239, "pitch": 72, "duration": 243, "velocity": 107}, {"time": 108482, "pitch": 70, "duration": 229, "velocity": 98}, {"time": 108721, "pitch": 74, "duration": 229, "velocity": 102}, {"time": 108960, "pitch": 75, "duration": 200, "velocity": 94}, {"time": 109200, "pitch": 74, "duration": 229, "velocity": 102}, {"time": 109439, "pitch": 70, "duration": 100, "velocity": 105}, {"time": 109558, "pitch": 72, "duration": 100, "velocity": 96}, {"time": 109678, "pitch": 72, "duration": 462, "velocity": 102}, {"time": 110160, "pitch": 70, "duration": 222, "velocity": 109}, {"time": 110402, "pitch": 69, "duration": 250, "velocity": 111}, {"time": 110642, "pitch": 70, "duration": 1186, "velocity": 98}, {"time": 134640, "pitch": 77, "duration": 91, "velocity": 100}, {"time": 134792, "pitch": 77, "duration": 340, "velocity": 100}, {"time": 135122, "pitch": 75, "duration": 239, "velocity": 100}, {"time": 135361, "pitch": 74, "duration": 229, "velocity": 100}, {"time": 135600, "pitch": 72, "duration": 140, "velocity": 100}, {"time": 135750, "pitch": 70, "duration": 339, "velocity": 100}, {"time": 136079, "pitch": 65, "duration": 169, "velocity": 100}, {"time": 136318, "pitch": 65, "duration": 263, "velocity": 100}, {"time": 136561, "pitch": 74, "duration": 101, "velocity": 100}, {"time": 136712, "pitch": 74, "duration": 480, "velocity": 100}, {"time": 137282, "pitch": 74, "duration": 149, "velocity": 100}, {"time": 137441, "pitch": 75, "duration": 150, "velocity": 100}, {"time": 137601, "pitch": 74, "duration": 149, "velocity": 100}, {"time": 137760, "pitch": 72, "duration": 698, "velocity": 100}, {"time": 138478, "pitch": 70, "duration": 219, "velocity": 100}, {"time": 138717, "pitch": 72, "duration": 424, "velocity": 100}, {"time": 139202, "pitch": 72, "duration": 149, "velocity": 100}, {"time": 139361, "pitch": 74, "duration": 150, "velocity": 100}, {"time": 139521, "pitch": 72, "duration": 149, "velocity": 100}, {"time": 139680, "pitch": 70, "duration": 688, "velocity": 100}, {"time": 140398, "pitch": 72, "duration": 140, "velocity": 100}, {"time": 140547, "pitch": 74, "duration": 845, "velocity": 100}, {"time": 142318, "pitch": 77, "duration": 90, "velocity": 100}, {"time": 142468, "pitch": 77, "duration": 352, "velocity": 100}, {"time": 142800, "pitch": 75, "duration": 233, "velocity": 100}, {"time": 143043, "pitch": 74, "duration": 249, "velocity": 100}, {"time": 143282, "pitch": 72, "duration": 140, "velocity": 100}, {"time": 143432, "pitch": 70, "duration": 309, "velocity": 100}, {"time": 143760, "pitch": 65, "duration": 220, "velocity": 100}, {"time": 144000, "pitch": 65, "duration": 219, "velocity": 100}, {"time": 144239, "pitch": 74, "duration": 109, "velocity": 100}, {"time": 144388, "pitch": 74, "duration": 515, "velocity": 100}, {"time": 144963, "pitch": 74, "duration": 150, "velocity": 100}, {"time": 145123, "pitch": 75, "duration": 149, "velocity": 100}, {"time": 145282, "pitch": 74, "duration": 150, "velocity": 100}, {"time": 145442, "pitch": 72, "duration": 687, "velocity": 100}, {"time": 146159, "pitch": 70, "duration": 140, "velocity": 100}, {"time": 146309, "pitch": 72, "duration": 498, "velocity": 100}, {"time": 146877, "pitch": 74, "duration": 222, "velocity": 100}, {"time": 147119, "pitch": 75, "duration": 223, "velocity": 100}, {"time": 147362, "pitch": 79, "duration": 688, "velocity": 100}, {"time": 148080, "pitch": 77, "duration": 109, "velocity": 100}, {"time": 148229, "pitch": 77, "duration": 578, "velocity": 100}, {"time": 151203, "pitch": 70, "duration": 448, "velocity": 118}, {"time": 151681, "pitch": 65, "duration": 220, "velocity": 120}, {"time": 151921, "pitch": 70, "duration": 209, "velocity": 115}, {"time": 152160, "pitch": 72, "duration": 458, "velocity": 115}, {"time": 152638, "pitch": 79, "duration": 465, "velocity": 115}, {"time": 153123, "pitch": 77, "duration": 220, "velocity": 105}, {"time": 153363, "pitch": 74, "duration": 219, "velocity": 107}, {"time": 153602, "pitch": 72, "duration": 219, "velocity": 109}, {"time": 153841, "pitch": 70, "duration": 817, "velocity": 94}, {"time": 155037, "pitch": 67, "duration": 222, "velocity": 109}, {"time": 155280, "pitch": 69, "duration": 202, "velocity": 102}, {"time": 155522, "pitch": 70, "duration": 239, "velocity": 105}, {"time": 155761, "pitch": 65, "duration": 459, "velocity": 113}, {"time": 156240, "pitch": 72, "duration": 219, "velocity": 111}, {"time": 156479, "pitch": 70, "duration": 229, "velocity": 92}, {"time": 156718, "pitch": 74, "duration": 229, "velocity": 107}, {"time": 156957, "pitch": 75, "duration": 223, "velocity": 100}, {"time": 157200, "pitch": 74, "duration": 222, "velocity": 105}, {"time": 157443, "pitch": 70, "duration": 99, "velocity": 107}, {"time": 157562, "pitch": 72, "duration": 100, "velocity": 94}, {"time": 157682, "pitch": 72, "duration": 877, "velocity": 108}, {"time": 158878, "pitch": 70, "duration": 455, "velocity": 115}, {"time": 159363, "pitch": 65, "duration": 219, "velocity": 115}, {"time": 159602, "pitch": 70, "duration": 229, "velocity": 98}, {"time": 159841, "pitch": 72, "duration": 449, "velocity": 105}, {"time": 160320, "pitch": 79, "duration": 468, "velocity": 105}, {"time": 160798, "pitch": 77, "duration": 219, "velocity": 111}, {"time": 161037, "pitch": 74, "duration": 220, "velocity": 113}, {"time": 161277, "pitch": 72, "duration": 222, "velocity": 98}, {"time": 161519, "pitch": 70, "duration": 921, "velocity": 107}, {"time": 162719, "pitch": 67, "duration": 219, "velocity": 115}, {"time": 162958, "pitch": 69, "duration": 209, "velocity": 107}, {"time": 163197, "pitch": 70, "duration": 222, "velocity": 105}, {"time": 163440, "pitch": 65, "duration": 452, "velocity": 109}, {"time": 163921, "pitch": 72, "duration": 240, "velocity": 107}, {"time": 164161, "pitch": 70, "duration": 229, "velocity": 98}, {"time": 164400, "pitch": 74, "duration": 229, "velocity": 102}, {"time": 164639, "pitch": 75, "duration": 199, "velocity": 94}, {"time": 164878, "pitch": 74, "duration": 229, "velocity": 102}, {"time": 165117, "pitch": 70, "duration": 102, "velocity": 105}, {"time": 165239, "pitch": 72, "duration": 101, "velocity": 96}, {"time": 165360, "pitch": 72, "duration": 462, "velocity": 102}, {"time": 165842, "pitch": 70, "duration": 219, "velocity": 109}, {"time": 166081, "pitch": 69, "duration": 249, "velocity": 111}, {"time": 166320, "pitch": 70, "duration": 1193, "velocity": 98}, {"time": 168958, "pitch": 77, "duration": 220, "velocity": 100}, {"time": 169437, "pitch": 75, "duration": 222, "velocity": 100}, {"time": 169922, "pitch": 74, "duration": 219, "velocity": 100}, {"time": 170400, "pitch": 70, "duration": 1442, "velocity": 110}, {"time": 176640, "pitch": 77, "duration": 219, "velocity": 100}, {"time": 177118, "pitch": 75, "duration": 220, "velocity": 100}, {"time": 177597, "pitch": 74, "duration": 222, "velocity": 100}, {"time": 178082, "pitch": 70, "duration": 1435, "velocity": 110}, {"time": 40560, "pitch": 74, "duration": 91, "velocity": 100}, {"time": 40712, "pitch": 74, "duration": 350, "velocity": 100}, {"time": 41042, "pitch": 72, "duration": 229, "velocity": 100}, {"time": 41281, "pitch": 70, "duration": 249, "velocity": 100}, {"time": 41520, "pitch": 67, "duration": 140, "velocity": 100}, {"time": 41670, "pitch": 65, "duration": 328, "velocity": 100}, {"time": 41998, "pitch": 62, "duration": 180, "velocity": 100}, {"time": 42238, "pitch": 62, "duration": 222, "velocity": 100}, {"time": 42480, "pitch": 70, "duration": 112, "velocity": 100}, {"time": 42632, "pitch": 70, "duration": 510, "velocity": 100}, {"time": 88560, "pitch": 74, "duration": 90, "velocity": 100}, {"time": 88710, "pitch": 74, "duration": 349, "velocity": 100}, {"time": 89039, "pitch": 72, "duration": 229, "velocity": 100}, {"time": 89278, "pitch": 70, "duration": 253, "velocity": 100}, {"time": 89520, "pitch": 67, "duration": 142, "velocity": 100}, {"time": 89672, "pitch": 65, "duration": 330, "velocity": 100}, {"time": 90002, "pitch": 62, "duration": 180, "velocity": 100}, {"time": 90241, "pitch": 62, "duration": 220, "velocity": 100}, {"time": 90481, "pitch": 70, "duration": 109, "velocity": 100}, {"time": 90630, "pitch": 70, "duration": 508, "velocity": 100}, {"time": 142318, "pitch": 74, "duration": 90, "velocity": 100}, {"time": 142468, "pitch": 74, "duration": 302, "velocity": 100}, {"time": 142800, "pitch": 72, "duration": 233, "velocity": 100}, {"time": 143043, "pitch": 70, "duration": 249, "velocity": 100}, {"time": 143282, "pitch": 67, "duration": 140, "velocity": 100}, {"time": 143432, "pitch": 65, "duration": 328, "velocity": 100}, {"time": 143760, "pitch": 62, "duration": 180, "velocity": 100}, {"time": 144000, "pitch": 62, "duration": 219, "velocity": 100}, {"time": 144239, "pitch": 70, "duration": 109, "velocity": 100}, {"time": 144388, "pitch": 70, "duration": 515, "velocity": 100}, {"time": 1680, "pitch": 53, "duration": 71, "velocity": 121}, {"time": 1922, "pitch": 58, "duration": 70, "velocity": 121}, {"time": 2162, "pitch": 65, "duration": 79, "velocity": 121}, {"time": 2640, "pitch": 53, "duration": 70, "velocity": 121}, {"time": 2879, "pitch": 58, "duration": 70, "velocity": 121}, {"time": 3118, "pitch": 65, "duration": 80, "velocity": 121}, {"time": 3600, "pitch": 50, "duration": 71, "velocity": 121}, {"time": 3843, "pitch": 55, "duration": 70, "velocity": 121}, {"time": 4082, "pitch": 62, "duration": 90, "velocity": 121}, {"time": 4560, "pitch": 55, "duration": 60, "velocity": 121}, {"time": 4800, "pitch": 62, "duration": 79, "velocity": 121}, {"time": 5039, "pitch": 67, "duration": 60, "velocity": 121}, {"time": 5521, "pitch": 53, "duration": 70, "velocity": 121}, {"time": 5763, "pitch": 58, "duration": 70, "velocity": 121}, {"time": 6003, "pitch": 65, "duration": 79, "velocity": 121}, {"time": 6481, "pitch": 53, "duration": 70, "velocity": 121}, {"time": 6720, "pitch": 58, "duration": 70, "velocity": 121}, {"time": 6959, "pitch": 65, "duration": 80, "velocity": 121}, {"time": 7438, "pitch": 51, "duration": 69, "velocity": 121}, {"time": 7677, "pitch": 58, "duration": 81, "velocity": 121}, {"time": 7919, "pitch": 63, "duration": 81, "velocity": 121}, {"time": 8401, "pitch": 54, "duration": 50, "velocity": 121}, {"time": 8641, "pitch": 58, "duration": 89, "velocity": 121}, {"time": 8880, "pitch": 63, "duration": 89, "velocity": 121}, {"time": 9358, "pitch": 53, "duration": 70, "velocity": 121}, {"time": 9597, "pitch": 58, "duration": 71, "velocity": 121}, {"time": 9840, "pitch": 65, "duration": 81, "velocity": 121}, {"time": 10322, "pitch": 53, "duration": 70, "velocity": 121}, {"time": 10561, "pitch": 58, "duration": 70, "velocity": 121}, {"time": 10800, "pitch": 65, "duration": 80, "velocity": 121}, {"time": 11279, "pitch": 50, "duration": 69, "velocity": 121}, {"time": 11518, "pitch": 55, "duration": 70, "velocity": 121}, {"time": 11760, "pitch": 62, "duration": 91, "velocity": 121}, {"time": 12242, "pitch": 55, "duration": 60, "velocity": 121}, {"time": 12481, "pitch": 62, "duration": 80, "velocity": 121}, {"time": 12721, "pitch": 67, "duration": 59, "velocity": 121}, {"time": 13199, "pitch": 53, "duration": 70, "velocity": 121}, {"time": 13438, "pitch": 58, "duration": 71, "velocity": 121}, {"time": 13681, "pitch": 65, "duration": 81, "velocity": 121}, {"time": 14163, "pitch": 53, "duration": 69, "velocity": 121}, {"time": 14402, "pitch": 58, "duration": 70, "velocity": 121}, {"time": 14641, "pitch": 65, "duration": 80, "velocity": 121}, {"time": 15119, "pitch": 51, "duration": 70, "velocity": 121}, {"time": 15359, "pitch": 58, "duration": 79, "velocity": 121}, {"time": 15598, "pitch": 63, "duration": 80, "velocity": 121}, {"time": 16080, "pitch": 54, "duration": 50, "velocity": 121}, {"time": 16322, "pitch": 58, "duration": 90, "velocity": 121}, {"time": 16561, "pitch": 63, "duration": 90, "velocity": 121}, {"time": 17040, "pitch": 53, "duration": 70, "velocity": 121}, {"time": 17279, "pitch": 58, "duration": 70, "velocity": 121}, {"time": 17518, "pitch": 65, "duration": 80, "velocity": 121}, {"time": 18000, "pitch": 53, "duration": 71, "velocity": 121}, {"time": 18243, "pitch": 58, "duration": 69, "velocity": 121}, {"time": 18482, "pitch": 65, "duration": 80, "velocity": 121}, {"time": 18960, "pitch": 55, "duration": 70, "velocity": 121}, {"time": 19199, "pitch": 62, "duration": 70, "velocity": 121}, {"time": 19439, "pitch": 67, "duration": 89, "velocity": 121}, {"time": 19920, "pitch": 58, "duration": 61, "velocity": 121}, {"time": 20163, "pitch": 63, "duration": 80, "velocity": 121}, {"time": 20402, "pitch": 67, "duration": 60, "velocity": 121}, {"time": 20881, "pitch": 53, "duration": 69, "velocity": 121}, {"time": 21120, "pitch": 58, "duration": 70, "velocity": 121}, {"time": 21359, "pitch": 65, "duration": 80, "velocity": 121}, {"time": 21837, "pitch": 53, "duration": 70, "velocity": 121}, {"time": 22077, "pitch": 58, "duration": 70, "velocity": 121}, {"time": 22319, "pitch": 65, "duration": 81, "velocity": 121}, {"time": 22801, "pitch": 55, "duration": 70, "velocity": 121}, {"time": 23040, "pitch": 62, "duration": 70, "velocity": 121}, {"time": 23279, "pitch": 67, "duration": 90, "velocity": 121}, {"time": 23758, "pitch": 58, "duration": 60, "velocity": 121}, {"time": 23997, "pitch": 63, "duration": 81, "velocity": 121}, {"time": 24240, "pitch": 67, "duration": 60, "velocity": 121}, {"time": 24722, "pitch": 53, "duration": 69, "velocity": 121}, {"time": 24961, "pitch": 58, "duration": 69, "velocity": 121}, {"time": 25200, "pitch": 65, "duration": 80, "velocity": 121}, {"time": 25678, "pitch": 53, "duration": 70, "velocity": 121}, {"time": 25917, "pitch": 58, "duration": 71, "velocity": 121}, {"time": 26160, "pitch": 65, "duration": 81, "velocity": 121}, {"time": 26642, "pitch": 55, "duration": 70, "velocity": 121}, {"time": 26881, "pitch": 62, "duration": 70, "velocity": 121}, {"time": 27120, "pitch": 67, "duration": 90, "velocity": 121}, {"time": 27599, "pitch": 58, "duration": 60, "velocity": 121}, {"time": 27838, "pitch": 63, "duration": 81, "velocity": 121}, {"time": 28081, "pitch": 67, "duration": 60, "velocity": 121}, {"time": 28562, "pitch": 53, "duration": 70, "velocity": 121}, {"time": 28802, "pitch": 58, "duration": 69, "velocity": 121}, {"time": 29041, "pitch": 65, "duration": 79, "velocity": 121}, {"time": 29519, "pitch": 53, "duration": 70, "velocity": 121}, {"time": 29758, "pitch": 58, "duration": 70, "velocity": 121}, {"time": 29998, "pitch": 65, "duration": 79, "velocity": 121}, {"time": 30479, "pitch": 55, "duration": 71, "velocity": 121}, {"time": 30722, "pitch": 62, "duration": 70, "velocity": 121}, {"time": 30961, "pitch": 67, "duration": 90, "velocity": 121}, {"time": 31440, "pitch": 58, "duration": 59, "velocity": 121}, {"time": 31679, "pitch": 63, "duration": 79, "velocity": 121}, {"time": 31918, "pitch": 67, "duration": 60, "velocity": 121}, {"time": 37918, "pitch": 55, "duration": 60, "velocity": 121}, {"time": 38158, "pitch": 67, "duration": 49, "velocity": 121}, {"time": 38397, "pitch": 57, "duration": 60, "velocity": 121}, {"time": 38639, "pitch": 69, "duration": 61, "velocity": 121}, {"time": 38882, "pitch": 58, "duration": 60, "velocity": 121}, {"time": 39121, "pitch": 70, "duration": 60, "velocity": 121}, {"time": 39360, "pitch": 59, "duration": 60, "velocity": 121}, {"time": 39360, "pitch": 71, "duration": 60, "velocity": 121}, {"time": 39600, "pitch": 62, "duration": 59, "velocity": 121}, {"time": 39600, "pitch": 74, "duration": 59, "velocity": 121}, {"time": 45600, "pitch": 56, "duration": 60, "velocity": 121}, {"time": 45839, "pitch": 68, "duration": 60, "velocity": 121}, {"time": 46079, "pitch": 55, "duration": 59, "velocity": 121}, {"time": 46318, "pitch": 67, "duration": 60, "velocity": 121}, {"time": 46557, "pitch": 53, "duration": 61, "velocity": 121}, {"time": 46800, "pitch": 65, "duration": 50, "velocity": 121}, {"time": 47042, "pitch": 63, "duration": 50, "velocity": 121}, {"time": 47281, "pitch": 75, "duration": 40, "velocity": 121}, {"time": 47521, "pitch": 53, "duration": 59, "velocity": 121}, {"time": 47521, "pitch": 62, "duration": 79, "velocity": 121}, {"time": 47999, "pitch": 53, "duration": 60, "velocity": 121}, {"time": 47999, "pitch": 62, "duration": 80, "velocity": 121}, {"time": 48477, "pitch": 53, "duration": 51, "velocity": 121}, {"time": 48477, "pitch": 62, "duration": 71, "velocity": 121}, {"time": 48720, "pitch": 53, "duration": 61, "velocity": 121}, {"time": 48720, "pitch": 62, "duration": 61, "velocity": 121}, {"time": 48963, "pitch": 53, "duration": 59, "velocity": 121}, {"time": 48963, "pitch": 62, "duration": 59, "velocity": 121}, {"time": 49441, "pitch": 55, "duration": 50, "velocity": 121}, {"time": 49441, "pitch": 62, "duration": 60, "velocity": 121}, {"time": 49919, "pitch": 55, "duration": 60, "velocity": 121}, {"time": 49919, "pitch": 62, "duration": 60, "velocity": 121}, {"time": 50398, "pitch": 56, "duration": 50, "velocity": 121}, {"time": 50398, "pitch": 62, "duration": 60, "velocity": 121}, {"time": 50640, "pitch": 56, "duration": 51, "velocity": 121}, {"time": 50640, "pitch": 62, "duration": 61, "velocity": 121}, {"time": 50883, "pitch": 56, "duration": 60, "velocity": 121}, {"time": 50883, "pitch": 62, "duration": 70, "velocity": 121}, {"time": 51361, "pitch": 55, "duration": 70, "velocity": 121}, {"time": 51361, "pitch": 63, "duration": 80, "velocity": 121}, {"time": 51840, "pitch": 55, "duration": 60, "velocity": 121}, {"time": 51840, "pitch": 63, "duration": 70, "velocity": 121}, {"time": 52318, "pitch": 53, "duration": 50, "velocity": 121}, {"time": 52318, "pitch": 62, "duration": 60, "velocity": 121}, {"time": 52557, "pitch": 53, "duration": 60, "velocity": 121}, {"time": 52557, "pitch": 62, "duration": 60, "velocity": 121}, {"time": 52797, "pitch": 53, "duration": 70, "velocity": 121}, {"time": 52797, "pitch": 62, "duration": 80, "velocity": 121}, {"time": 53282, "pitch": 55, "duration": 60, "velocity": 121}, {"time": 53282, "pitch": 63, "duration": 70, "velocity": 121}, {"time": 53760, "pitch": 55, "duration": 50, "velocity": 121}, {"time": 53760, "pitch": 63, "duration": 70, "velocity": 121}, {"time": 54239, "pitch": 57, "duration": 49, "velocity": 121}, {"time": 54239, "pitch": 60, "duration": 49, "velocity": 121}, {"time": 54239, "pitch": 65, "duration": 59, "velocity": 121}, {"time": 54478, "pitch": 57, "duration": 50, "velocity": 121}, {"time": 54478, "pitch": 60, "duration": 50, "velocity": 121}, {"time": 54478, "pitch": 65, "duration": 60, "velocity": 121}, {"time": 54717, "pitch": 57, "duration": 51, "velocity": 121}, {"time": 54717, "pitch": 60, "duration": 51, "velocity": 121}, {"time": 54717, "pitch": 67, "duration": 61, "velocity": 121}, {"time": 54960, "pitch": 57, "duration": 50, "velocity": 121}, {"time": 54960, "pitch": 60, "duration": 50, "velocity": 121}, {"time": 54960, "pitch": 65, "duration": 70, "velocity": 121}, {"time": 55202, "pitch": 53, "duration": 60, "velocity": 121}, {"time": 55202, "pitch": 62, "duration": 80, "velocity": 121}, {"time": 55681, "pitch": 53, "duration": 59, "velocity": 121}, {"time": 55681, "pitch": 62, "duration": 79, "velocity": 121}, {"time": 56159, "pitch": 53, "duration": 50, "velocity": 121}, {"time": 56159, "pitch": 60, "duration": 70, "velocity": 121}, {"time": 56398, "pitch": 53, "duration": 60, "velocity": 121}, {"time": 56398, "pitch": 60, "duration": 60, "velocity": 121}, {"time": 56637, "pitch": 53, "duration": 61, "velocity": 121}, {"time": 56637, "pitch": 60, "duration": 61, "velocity": 121}, {"time": 57123, "pitch": 55, "duration": 50, "velocity": 121}, {"time": 57123, "pitch": 62, "duration": 59, "velocity": 121}, {"time": 57601, "pitch": 55, "duration": 60, "velocity": 121}, {"time": 57601, "pitch": 62, "duration": 60, "velocity": 121}, {"time": 58079, "pitch": 56, "duration": 50, "velocity": 121}, {"time": 58079, "pitch": 62, "duration": 60, "velocity": 121}, {"time": 58319, "pitch": 56, "duration": 49, "velocity": 121}, {"time": 58319, "pitch": 62, "duration": 59, "velocity": 121}, {"time": 58558, "pitch": 56, "duration": 60, "velocity": 121}, {"time": 58558, "pitch": 62, "duration": 71, "velocity": 121}, {"time": 59043, "pitch": 55, "duration": 70, "velocity": 121}, {"time": 59043, "pitch": 63, "duration": 80, "velocity": 121}, {"time": 59521, "pitch": 55, "duration": 60, "velocity": 121}, {"time": 59521, "pitch": 63, "duration": 70, "velocity": 121}, {"time": 60000, "pitch": 53, "duration": 50, "velocity": 121}, {"time": 60000, "pitch": 62, "duration": 60, "velocity": 121}, {"time": 60239, "pitch": 53, "duration": 60, "velocity": 121}, {"time": 60239, "pitch": 62, "duration": 60, "velocity": 121}, {"time": 60478, "pitch": 53, "duration": 70, "velocity": 121}, {"time": 60478, "pitch": 62, "duration": 80, "velocity": 121}, {"time": 60957, "pitch": 55, "duration": 60, "velocity": 121}, {"time": 60957, "pitch": 63, "duration": 70, "velocity": 121}, {"time": 61442, "pitch": 55, "duration": 50, "velocity": 121}, {"time": 61442, "pitch": 63, "duration": 70, "velocity": 121}, {"time": 61920, "pitch": 57, "duration": 50, "velocity": 121}, {"time": 61920, "pitch": 60, "duration": 50, "velocity": 121}, {"time": 61920, "pitch": 65, "duration": 60, "velocity": 121}, {"time": 62160, "pitch": 57, "duration": 49, "velocity": 121}, {"time": 62160, "pitch": 60, "duration": 49, "velocity": 121}, {"time": 62160, "pitch": 65, "duration": 59, "velocity": 121}, {"time": 62399, "pitch": 57, "duration": 50, "velocity": 121}, {"time": 62399, "pitch": 60, "duration": 50, "velocity": 121}, {"time": 62399, "pitch": 67, "duration": 60, "velocity": 121}, {"time": 62638, "pitch": 57, "duration": 50, "velocity": 121}, {"time": 62638, "pitch": 60, "duration": 50, "velocity": 121}, {"time": 62638, "pitch": 65, "duration": 70, "velocity": 121}, {"time": 65040, "pitch": 53, "duration": 71, "velocity": 121}, {"time": 65283, "pitch": 58, "duration": 70, "velocity": 121}, {"time": 65522, "pitch": 65, "duration": 80, "velocity": 121}, {"time": 66000, "pitch": 53, "duration": 70, "velocity": 121}, {"time": 66240, "pitch": 58, "duration": 69, "velocity": 121}, {"time": 66479, "pitch": 65, "duration": 79, "velocity": 121}, {"time": 66961, "pitch": 55, "duration": 70, "velocity": 121}, {"time": 67203, "pitch": 62, "duration": 70, "velocity": 121}, {"time": 67442, "pitch": 67, "duration": 90, "velocity": 121}, {"time": 67921, "pitch": 58, "duration": 60, "velocity": 121}, {"time": 68160, "pitch": 63, "duration": 80, "velocity": 121}, {"time": 68399, "pitch": 67, "duration": 60, "velocity": 121}, {"time": 68878, "pitch": 53, "duration": 69, "velocity": 121}, {"time": 69117, "pitch": 58, "duration": 70, "velocity": 121}, {"time": 69359, "pitch": 65, "duration": 81, "velocity": 121}, {"time": 69841, "pitch": 53, "duration": 70, "velocity": 121}, {"time": 70080, "pitch": 58, "duration": 70, "velocity": 121}, {"time": 70320, "pitch": 65, "duration": 79, "velocity": 121}, {"time": 70798, "pitch": 55, "duration": 70, "velocity": 121}, {"time": 71037, "pitch": 62, "duration": 71, "velocity": 121}, {"time": 71280, "pitch": 67, "duration": 91, "velocity": 121}, {"time": 71762, "pitch": 58, "duration": 59, "velocity": 121}, {"time": 72001, "pitch": 63, "duration": 80, "velocity": 121}, {"time": 72240, "pitch": 67, "duration": 60, "velocity": 121}, {"time": 72718, "pitch": 53, "duration": 70, "velocity": 121}, {"time": 72958, "pitch": 58, "duration": 70, "velocity": 121}, {"time": 73200, "pitch": 65, "duration": 81, "velocity": 121}, {"time": 73682, "pitch": 53, "duration": 70, "velocity": 121}, {"time": 73921, "pitch": 58, "duration": 70, "velocity": 121}, {"time": 74160, "pitch": 65, "duration": 80, "velocity": 121}, {"time": 74639, "pitch": 55, "duration": 70, "velocity": 121}, {"time": 74878, "pitch": 62, "duration": 71, "velocity": 121}, {"time": 75121, "pitch": 67, "duration": 91, "velocity": 121}, {"time": 75602, "pitch": 58, "duration": 60, "velocity": 121}, {"time": 75842, "pitch": 63, "duration": 79, "velocity": 121}, {"time": 76081, "pitch": 67, "duration": 60, "velocity": 121}, {"time": 76559, "pitch": 53, "duration": 70, "velocity": 121}, {"time": 76798, "pitch": 58, "duration": 70, "velocity": 121}, {"time": 77038, "pitch": 65, "duration": 79, "velocity": 121}, {"time": 77519, "pitch": 53, "duration": 71, "velocity": 121}, {"time": 77762, "pitch": 58, "duration": 70, "velocity": 121}, {"time": 78001, "pitch": 65, "duration": 80, "velocity": 121}, {"time": 78480, "pitch": 55, "duration": 69, "velocity": 121}, {"time": 78719, "pitch": 62, "duration": 70, "velocity": 121}, {"time": 78958, "pitch": 67, "duration": 90, "velocity": 121}, {"time": 79440, "pitch": 58, "duration": 61, "velocity": 121}, {"time": 79683, "pitch": 63, "duration": 79, "velocity": 121}, {"time": 79922, "pitch": 67, "duration": 60, "velocity": 121}, {"time": 85922, "pitch": 55, "duration": 60, "velocity": 121}, {"time": 86161, "pitch": 67, "duration": 50, "velocity": 121}, {"time": 86401, "pitch": 57, "duration": 59, "velocity": 121}, {"time": 86640, "pitch": 69, "duration": 60, "velocity": 121}, {"time": 86879, "pitch": 58, "duration": 60, "velocity": 121}, {"time": 87118, "pitch": 70, "duration": 60, "velocity": 121}, {"time": 87357, "pitch": 59, "duration": 61, "velocity": 121}, {"time": 87357, "pitch": 71, "duration": 61, "velocity": 121}, {"time": 87600, "pitch": 62, "duration": 61, "velocity": 121}, {"time": 87600, "pitch": 74, "duration": 61, "velocity": 121}, {"time": 93597, "pitch": 56, "duration": 61, "velocity": 121}, {"time": 93840, "pitch": 68, "duration": 60, "velocity": 121}, {"time": 94082, "pitch": 55, "duration": 60, "velocity": 121}, {"time": 94321, "pitch": 67, "duration": 60, "velocity": 121}, {"time": 94561, "pitch": 53, "duration": 59, "velocity": 121}, {"time": 94800, "pitch": 65, "duration": 50, "velocity": 121}, {"time": 95039, "pitch": 63, "duration": 50, "velocity": 121}, {"time": 95278, "pitch": 75, "duration": 40, "velocity": 121}, {"time": 95517, "pitch": 53, "duration": 61, "velocity": 121}, {"time": 95517, "pitch": 62, "duration": 81, "velocity": 121}, {"time": 96003, "pitch": 53, "duration": 60, "velocity": 121}, {"time": 96003, "pitch": 62, "duration": 79, "velocity": 121}, {"time": 96481, "pitch": 53, "duration": 50, "velocity": 121}, {"time": 96481, "pitch": 62, "duration": 70, "velocity": 121}, {"time": 96720, "pitch": 53, "duration": 60, "velocity": 121}, {"time": 96720, "pitch": 62, "duration": 60, "velocity": 121}, {"time": 96960, "pitch": 53, "duration": 59, "velocity": 121}, {"time": 96960, "pitch": 62, "duration": 59, "velocity": 121}, {"time": 97438, "pitch": 55, "duration": 50, "velocity": 121}, {"time": 97438, "pitch": 62, "duration": 61, "velocity": 121}, {"time": 97923, "pitch": 55, "duration": 60, "velocity": 121}, {"time": 97923, "pitch": 62, "duration": 60, "velocity": 121}, {"time": 98402, "pitch": 56, "duration": 49, "velocity": 121}, {"time": 98402, "pitch": 62, "duration": 59, "velocity": 121}, {"time": 98641, "pitch": 56, "duration": 50, "velocity": 121}, {"time": 98641, "pitch": 62, "duration": 60, "velocity": 121}, {"time": 98880, "pitch": 56, "duration": 60, "velocity": 121}, {"time": 98880, "pitch": 62, "duration": 70, "velocity": 121}, {"time": 99358, "pitch": 55, "duration": 70, "velocity": 121}, {"time": 99358, "pitch": 63, "duration": 80, "velocity": 121}, {"time": 99837, "pitch": 55, "duration": 60, "velocity": 121}, {"time": 99837, "pitch": 63, "duration": 70, "velocity": 121}, {"time": 100322, "pitch": 53, "duration": 50, "velocity": 121}, {"time": 100322, "pitch": 62, "duration": 60, "velocity": 121}, {"time": 100561, "pitch": 53, "duration": 60, "velocity": 121}, {"time": 100561, "pitch": 62, "duration": 60, "velocity": 121}, {"time": 100800, "pitch": 53, "duration": 70, "velocity": 121}, {"time": 100800, "pitch": 62, "duration": 80, "velocity": 121}, {"time": 101279, "pitch": 55, "duration": 60, "velocity": 121}, {"time": 101279, "pitch": 63, "duration": 70, "velocity": 121}, {"time": 101757, "pitch": 55, "duration": 51, "velocity": 121}, {"time": 101757, "pitch": 63, "duration": 71, "velocity": 121}, {"time": 102242, "pitch": 57, "duration": 50, "velocity": 121}, {"time": 102242, "pitch": 60, "duration": 50, "velocity": 121}, {"time": 102242, "pitch": 65, "duration": 60, "velocity": 121}, {"time": 102482, "pitch": 57, "duration": 49, "velocity": 121}, {"time": 102482, "pitch": 60, "duration": 49, "velocity": 121}, {"time": 102482, "pitch": 65, "duration": 59, "velocity": 121}, {"time": 102721, "pitch": 57, "duration": 50, "velocity": 121}, {"time": 102721, "pitch": 60, "duration": 50, "velocity": 121}, {"time": 102721, "pitch": 67, "duration": 60, "velocity": 121}, {"time": 102960, "pitch": 57, "duration": 50, "velocity": 121}, {"time": 102960, "pitch": 60, "duration": 50, "velocity": 121}, {"time": 102960, "pitch": 65, "duration": 70, "velocity": 121}, {"time": 103199, "pitch": 53, "duration": 60, "velocity": 121}, {"time": 103199, "pitch": 62, "duration": 80, "velocity": 121}, {"time": 103678, "pitch": 53, "duration": 60, "velocity": 121}, {"time": 103678, "pitch": 62, "duration": 80, "velocity": 121}, {"time": 104163, "pitch": 53, "duration": 50, "velocity": 121}, {"time": 104163, "pitch": 60, "duration": 70, "velocity": 121}, {"time": 104402, "pitch": 53, "duration": 60, "velocity": 121}, {"time": 104402, "pitch": 60, "duration": 60, "velocity": 121}, {"time": 104641, "pitch": 53, "duration": 60, "velocity": 121}, {"time": 104641, "pitch": 60, "duration": 60, "velocity": 121}, {"time": 105120, "pitch": 55, "duration": 49, "velocity": 121}, {"time": 105120, "pitch": 62, "duration": 59, "velocity": 121}, {"time": 105598, "pitch": 55, "duration": 61, "velocity": 121}, {"time": 105598, "pitch": 62, "duration": 61, "velocity": 121}, {"time": 106083, "pitch": 56, "duration": 50, "velocity": 121}, {"time": 106083, "pitch": 62, "duration": 60, "velocity": 121}, {"time": 106322, "pitch": 56, "duration": 50, "velocity": 121}, {"time": 106322, "pitch": 62, "duration": 60, "velocity": 121}, {"time": 106562, "pitch": 56, "duration": 59, "velocity": 121}, {"time": 106562, "pitch": 62, "duration": 69, "velocity": 121}, {"time": 107040, "pitch": 55, "duration": 70, "velocity": 121}, {"time": 107040, "pitch": 63, "duration": 80, "velocity": 121}, {"time": 107518, "pitch": 55, "duration": 60, "velocity": 121}, {"time": 107518, "pitch": 63, "duration": 70, "velocity": 121}, {"time": 107997, "pitch": 53, "duration": 50, "velocity": 121}, {"time": 107997, "pitch": 62, "duration": 60, "velocity": 121}, {"time": 108239, "pitch": 53, "duration": 61, "velocity": 121}, {"time": 108239, "pitch": 62, "duration": 61, "velocity": 121}, {"time": 108482, "pitch": 53, "duration": 70, "velocity": 121}, {"time": 108482, "pitch": 62, "duration": 80, "velocity": 121}, {"time": 108960, "pitch": 55, "duration": 60, "velocity": 121}, {"time": 108960, "pitch": 63, "duration": 70, "velocity": 121}, {"time": 109439, "pitch": 55, "duration": 50, "velocity": 121}, {"time": 109439, "pitch": 63, "duration": 70, "velocity": 121}, {"time": 109917, "pitch": 57, "duration": 51, "velocity": 121}, {"time": 109917, "pitch": 60, "duration": 51, "velocity": 121}, {"time": 109917, "pitch": 65, "duration": 61, "velocity": 121}, {"time": 110160, "pitch": 57, "duration": 50, "velocity": 121}, {"time": 110160, "pitch": 60, "duration": 50, "velocity": 121}, {"time": 110160, "pitch": 65, "duration": 61, "velocity": 121}, {"time": 110402, "pitch": 57, "duration": 50, "velocity": 121}, {"time": 110402, "pitch": 60, "duration": 50, "velocity": 121}, {"time": 110402, "pitch": 67, "duration": 60, "velocity": 121}, {"time": 110642, "pitch": 57, "duration": 50, "velocity": 121}, {"time": 110642, "pitch": 60, "duration": 50, "velocity": 121}, {"time": 110642, "pitch": 65, "duration": 69, "velocity": 121}, {"time": 118802, "pitch": 53, "duration": 70, "velocity": 121}, {"time": 119041, "pitch": 58, "duration": 70, "velocity": 121}, {"time": 119280, "pitch": 65, "duration": 80, "velocity": 121}, {"time": 119759, "pitch": 53, "duration": 69, "velocity": 121}, {"time": 119998, "pitch": 58, "duration": 70, "velocity": 121}, {"time": 120240, "pitch": 65, "duration": 81, "velocity": 121}, {"time": 120722, "pitch": 55, "duration": 70, "velocity": 121}, {"time": 120961, "pitch": 62, "duration": 70, "velocity": 121}, {"time": 121201, "pitch": 67, "duration": 89, "velocity": 121}, {"time": 121679, "pitch": 58, "duration": 60, "velocity": 121}, {"time": 121918, "pitch": 63, "duration": 81, "velocity": 121}, {"time": 122161, "pitch": 67, "duration": 60, "velocity": 121}, {"time": 122643, "pitch": 53, "duration": 69, "velocity": 121}, {"time": 122882, "pitch": 58, "duration": 70, "velocity": 121}, {"time": 123121, "pitch": 65, "duration": 80, "velocity": 121}, {"time": 123599, "pitch": 53, "duration": 70, "velocity": 121}, {"time": 123839, "pitch": 58, "duration": 69, "velocity": 121}, {"time": 124078, "pitch": 65, "duration": 80, "velocity": 121}, {"time": 124560, "pitch": 55, "duration": 70, "velocity": 121}, {"time": 124802, "pitch": 62, "duration": 70, "velocity": 121}, {"time": 125041, "pitch": 67, "duration": 90, "velocity": 121}, {"time": 125520, "pitch": 58, "duration": 60, "velocity": 121}, {"time": 125759, "pitch": 63, "duration": 80, "velocity": 121}, {"time": 125998, "pitch": 67, "duration": 60, "velocity": 121}, {"time": 126480, "pitch": 53, "duration": 71, "velocity": 121}, {"time": 126723, "pitch": 58, "duration": 69, "velocity": 121}, {"time": 126962, "pitch": 65, "duration": 80, "velocity": 121}, {"time": 127440, "pitch": 53, "duration": 70, "velocity": 121}, {"time": 127679, "pitch": 58, "duration": 70, "velocity": 121}, {"time": 127919, "pitch": 65, "duration": 79, "velocity": 121}, {"time": 128400, "pitch": 55, "duration": 71, "velocity": 121}, {"time": 128643, "pitch": 62, "duration": 70, "velocity": 121}, {"time": 128882, "pitch": 67, "duration": 90, "velocity": 121}, {"time": 129361, "pitch": 58, "duration": 59, "velocity": 121}, {"time": 129600, "pitch": 63, "duration": 80, "velocity": 121}, {"time": 129839, "pitch": 67, "duration": 60, "velocity": 121}, {"time": 130317, "pitch": 53, "duration": 70, "velocity": 121}, {"time": 130557, "pitch": 58, "duration": 70, "velocity": 121}, {"time": 130799, "pitch": 65, "duration": 81, "velocity": 121}, {"time": 131281, "pitch": 53, "duration": 70, "velocity": 121}, {"time": 131520, "pitch": 58, "duration": 70, "velocity": 121}, {"time": 131759, "pitch": 65, "duration": 80, "velocity": 121}, {"time": 132238, "pitch": 55, "duration": 70, "velocity": 121}, {"time": 132477, "pitch": 62, "duration": 71, "velocity": 121}, {"time": 132720, "pitch": 67, "duration": 91, "velocity": 121}, {"time": 133202, "pitch": 58, "duration": 59, "velocity": 121}, {"time": 133441, "pitch": 63, "duration": 79, "velocity": 121}, {"time": 133680, "pitch": 67, "duration": 60, "velocity": 121}, {"time": 133919, "pitch": 58, "duration": 130, "velocity": 121}, {"time": 133919, "pitch": 67, "duration": 130, "velocity": 121}, {"time": 134398, "pitch": 58, "duration": 121, "velocity": 121}, {"time": 134398, "pitch": 67, "duration": 121, "velocity": 121}, {"time": 134883, "pitch": 58, "duration": 89, "velocity": 121}, {"time": 134883, "pitch": 67, "duration": 99, "velocity": 121}, {"time": 135122, "pitch": 58, "duration": 60, "velocity": 121}, {"time": 135122, "pitch": 67, "duration": 70, "velocity": 121}, {"time": 135361, "pitch": 58, "duration": 60, "velocity": 121}, {"time": 135361, "pitch": 67, "duration": 110, "velocity": 121}, {"time": 135840, "pitch": 58, "duration": 89, "velocity": 121}, {"time": 135840, "pitch": 65, "duration": 99, "velocity": 121}, {"time": 136318, "pitch": 58, "duration": 91, "velocity": 121}, {"time": 136318, "pitch": 65, "duration": 91, "velocity": 121}, {"time": 136803, "pitch": 58, "duration": 70, "velocity": 121}, {"time": 136803, "pitch": 65, "duration": 60, "velocity": 121}, {"time": 137042, "pitch": 58, "duration": 60, "velocity": 121}, {"time": 137042, "pitch": 65, "duration": 60, "velocity": 121}, {"time": 137282, "pitch": 58, "duration": 89, "velocity": 121}, {"time": 137282, "pitch": 65, "duration": 89, "velocity": 121}, {"time": 137760, "pitch": 58, "duration": 90, "velocity": 121}, {"time": 137760, "pitch": 65, "duration": 100, "velocity": 121}, {"time": 138238, "pitch": 58, "duration": 100, "velocity": 121}, {"time": 138238, "pitch": 65, "duration": 100, "velocity": 121}, {"time": 138717, "pitch": 57, "duration": 91, "velocity": 121}, {"time": 138717, "pitch": 66, "duration": 91, "velocity": 121}, {"time": 138959, "pitch": 57, "duration": 61, "velocity": 121}, {"time": 138959, "pitch": 66, "duration": 81, "velocity": 121}, {"time": 139202, "pitch": 57, "duration": 100, "velocity": 121}, {"time": 139202, "pitch": 66, "duration": 90, "velocity": 121}, {"time": 139680, "pitch": 55, "duration": 60, "velocity": 121}, {"time": 139920, "pitch": 67, "duration": 49, "velocity": 121}, {"time": 140159, "pitch": 57, "duration": 60, "velocity": 121}, {"time": 140398, "pitch": 69, "duration": 60, "velocity": 121}, {"time": 140637, "pitch": 58, "duration": 61, "velocity": 121}, {"time": 140880, "pitch": 70, "duration": 60, "velocity": 121}, {"time": 141122, "pitch": 59, "duration": 60, "velocity": 121}, {"time": 141122, "pitch": 71, "duration": 60, "velocity": 121}, {"time": 141362, "pitch": 62, "duration": 59, "velocity": 121}, {"time": 141362, "pitch": 74, "duration": 59, "velocity": 121}, {"time": 147362, "pitch": 56, "duration": 60, "velocity": 121}, {"time": 147601, "pitch": 68, "duration": 60, "velocity": 121}, {"time": 147840, "pitch": 55, "duration": 60, "velocity": 121}, {"time": 148080, "pitch": 67, "duration": 59, "velocity": 121}, {"time": 148319, "pitch": 53, "duration": 60, "velocity": 121}, {"time": 148558, "pitch": 65, "duration": 50, "velocity": 121}, {"time": 148797, "pitch": 63, "duration": 51, "velocity": 121}, {"time": 149040, "pitch": 75, "duration": 40, "velocity": 121}, {"time": 149283, "pitch": 54, "duration": 59, "velocity": 121}, {"time": 149522, "pitch": 66, "duration": 60, "velocity": 121}, {"time": 149761, "pitch": 56, "duration": 60, "velocity": 121}, {"time": 150000, "pitch": 68, "duration": 60, "velocity": 121}, {"time": 150239, "pitch": 58, "duration": 60, "velocity": 121}, {"time": 150478, "pitch": 70, "duration": 50, "velocity": 121}, {"time": 150718, "pitch": 60, "duration": 50, "velocity": 121}, {"time": 150960, "pitch": 72, "duration": 41, "velocity": 121}, {"time": 151203, "pitch": 53, "duration": 60, "velocity": 121}, {"time": 151203, "pitch": 62, "duration": 80, "velocity": 121}, {"time": 151681, "pitch": 53, "duration": 60, "velocity": 121}, {"time": 151681, "pitch": 62, "duration": 80, "velocity": 121}, {"time": 152160, "pitch": 53, "duration": 50, "velocity": 121}, {"time": 152160, "pitch": 62, "duration": 69, "velocity": 121}, {"time": 152399, "pitch": 53, "duration": 60, "velocity": 121}, {"time": 152399, "pitch": 62, "duration": 60, "velocity": 121}, {"time": 152638, "pitch": 53, "duration": 61, "velocity": 121}, {"time": 152638, "pitch": 62, "duration": 61, "velocity": 121}, {"time": 153123, "pitch": 55, "duration": 50, "velocity": 121}, {"time": 153123, "pitch": 62, "duration": 60, "velocity": 121}, {"time": 153602, "pitch": 55, "duration": 60, "velocity": 121}, {"time": 153602, "pitch": 62, "duration": 60, "velocity": 121}, {"time": 154080, "pitch": 56, "duration": 50, "velocity": 121}, {"time": 154080, "pitch": 62, "duration": 60, "velocity": 121}, {"time": 154319, "pitch": 56, "duration": 50, "velocity": 121}, {"time": 154319, "pitch": 62, "duration": 60, "velocity": 121}, {"time": 154559, "pitch": 56, "duration": 59, "velocity": 121}, {"time": 154559, "pitch": 62, "duration": 69, "velocity": 121}, {"time": 155037, "pitch": 55, "duration": 71, "velocity": 121}, {"time": 155037, "pitch": 63, "duration": 81, "velocity": 121}, {"time": 155522, "pitch": 55, "duration": 60, "velocity": 121}, {"time": 155522, "pitch": 63, "duration": 70, "velocity": 121}, {"time": 156001, "pitch": 53, "duration": 49, "velocity": 121}, {"time": 156001, "pitch": 62, "duration": 59, "velocity": 121}, {"time": 156240, "pitch": 53, "duration": 60, "velocity": 121}, {"time": 156240, "pitch": 62, "duration": 60, "velocity": 121}, {"time": 156479, "pitch": 53, "duration": 70, "velocity": 121}, {"time": 156479, "pitch": 62, "duration": 80, "velocity": 121}, {"time": 156957, "pitch": 55, "duration": 61, "velocity": 121}, {"time": 156957, "pitch": 63, "duration": 71, "velocity": 121}, {"time": 157443, "pitch": 55, "duration": 49, "velocity": 121}, {"time": 157443, "pitch": 63, "duration": 69, "velocity": 121}, {"time": 157921, "pitch": 57, "duration": 50, "velocity": 121}, {"time": 157921, "pitch": 60, "duration": 50, "velocity": 121}, {"time": 157921, "pitch": 65, "duration": 60, "velocity": 121}, {"time": 158160, "pitch": 57, "duration": 50, "velocity": 121}, {"time": 158160, "pitch": 60, "duration": 50, "velocity": 121}, {"time": 158160, "pitch": 65, "duration": 60, "velocity": 121}, {"time": 158399, "pitch": 57, "duration": 50, "velocity": 121}, {"time": 158399, "pitch": 60, "duration": 50, "velocity": 121}, {"time": 158399, "pitch": 67, "duration": 60, "velocity": 121}, {"time": 158639, "pitch": 57, "duration": 49, "velocity": 121}, {"time": 158639, "pitch": 60, "duration": 49, "velocity": 121}, {"time": 158639, "pitch": 65, "duration": 69, "velocity": 121}, {"time": 158878, "pitch": 53, "duration": 60, "velocity": 121}, {"time": 158878, "pitch": 62, "duration": 81, "velocity": 121}, {"time": 159363, "pitch": 53, "duration": 60, "velocity": 121}, {"time": 159363, "pitch": 62, "duration": 80, "velocity": 121}, {"time": 159841, "pitch": 53, "duration": 50, "velocity": 121}, {"time": 159841, "pitch": 60, "duration": 70, "velocity": 121}, {"time": 160081, "pitch": 53, "duration": 59, "velocity": 121}, {"time": 160081, "pitch": 60, "duration": 59, "velocity": 121}, {"time": 160320, "pitch": 53, "duration": 60, "velocity": 121}, {"time": 160320, "pitch": 60, "duration": 60, "velocity": 121}, {"time": 160798, "pitch": 55, "duration": 50, "velocity": 121}, {"time": 160798, "pitch": 62, "duration": 60, "velocity": 121}, {"time": 161277, "pitch": 55, "duration": 60, "velocity": 121}, {"time": 161277, "pitch": 62, "duration": 60, "velocity": 121}, {"time": 161762, "pitch": 56, "duration": 50, "velocity": 121}, {"time": 161762, "pitch": 62, "duration": 60, "velocity": 121}, {"time": 162001, "pitch": 56, "duration": 50, "velocity": 121}, {"time": 162001, "pitch": 62, "duration": 60, "velocity": 121}, {"time": 162240, "pitch": 56, "duration": 60, "velocity": 121}, {"time": 162240, "pitch": 62, "duration": 70, "velocity": 121}, {"time": 162719, "pitch": 55, "duration": 69, "velocity": 121}, {"time": 162719, "pitch": 63, "duration": 79, "velocity": 121}, {"time": 163197, "pitch": 55, "duration": 61, "velocity": 121}, {"time": 163197, "pitch": 63, "duration": 71, "velocity": 121}, {"time": 163682, "pitch": 53, "duration": 50, "velocity": 121}, {"time": 163682, "pitch": 62, "duration": 60, "velocity": 121}, {"time": 163921, "pitch": 53, "duration": 60, "velocity": 121}, {"time": 163921, "pitch": 62, "duration": 60, "velocity": 121}, {"time": 164161, "pitch": 53, "duration": 69, "velocity": 121}, {"time": 164161, "pitch": 62, "duration": 79, "velocity": 121}, {"time": 164639, "pitch": 55, "duration": 60, "velocity": 121}, {"time": 164639, "pitch": 63, "duration": 70, "velocity": 121}, {"time": 165117, "pitch": 55, "duration": 51, "velocity": 121}, {"time": 165117, "pitch": 63, "duration": 71, "velocity": 121}, {"time": 165603, "pitch": 57, "duration": 50, "velocity": 121}, {"time": 165603, "pitch": 60, "duration": 50, "velocity": 121}, {"time": 165603, "pitch": 65, "duration": 60, "velocity": 121}, {"time": 165842, "pitch": 57, "duration": 50, "velocity": 121}, {"time": 165842, "pitch": 60, "duration": 50, "velocity": 121}, {"time": 165842, "pitch": 65, "duration": 60, "velocity": 121}, {"time": 166081, "pitch": 57, "duration": 50, "velocity": 121}, {"time": 166081, "pitch": 60, "duration": 50, "velocity": 121}, {"time": 166081, "pitch": 67, "duration": 60, "velocity": 121}, {"time": 166320, "pitch": 57, "duration": 50, "velocity": 121}, {"time": 166320, "pitch": 60, "duration": 50, "velocity": 121}, {"time": 166320, "pitch": 65, "duration": 70, "velocity": 121}, {"time": 166799, "pitch": 53, "duration": 69, "velocity": 121}, {"time": 167038, "pitch": 58, "duration": 71, "velocity": 121}, {"time": 167281, "pitch": 65, "duration": 80, "velocity": 121}, {"time": 167762, "pitch": 53, "duration": 70, "velocity": 121}, {"time": 168002, "pitch": 58, "duration": 69, "velocity": 121}, {"time": 168241, "pitch": 65, "duration": 79, "velocity": 121}, {"time": 168719, "pitch": 50, "duration": 70, "velocity": 121}, {"time": 168958, "pitch": 55, "duration": 70, "velocity": 121}, {"time": 169197, "pitch": 62, "duration": 90, "velocity": 121}, {"time": 169679, "pitch": 55, "duration": 61, "velocity": 121}, {"time": 169922, "pitch": 62, "duration": 80, "velocity": 121}, {"time": 170161, "pitch": 67, "duration": 60, "velocity": 121}, {"time": 170640, "pitch": 53, "duration": 69, "velocity": 121}, {"time": 170879, "pitch": 58, "duration": 69, "velocity": 121}, {"time": 171118, "pitch": 65, "duration": 80, "velocity": 121}, {"time": 171600, "pitch": 53, "duration": 71, "velocity": 121}, {"time": 171842, "pitch": 58, "duration": 70, "velocity": 121}, {"time": 172082, "pitch": 65, "duration": 79, "velocity": 121}, {"time": 172560, "pitch": 51, "duration": 70, "velocity": 121}, {"time": 172799, "pitch": 58, "duration": 80, "velocity": 121}, {"time": 173038, "pitch": 63, "duration": 80, "velocity": 121}, {"time": 173520, "pitch": 54, "duration": 51, "velocity": 121}, {"time": 173763, "pitch": 58, "duration": 89, "velocity": 121}, {"time": 174002, "pitch": 63, "duration": 90, "velocity": 121}, {"time": 174480, "pitch": 53, "duration": 70, "velocity": 121}, {"time": 174720, "pitch": 58, "duration": 69, "velocity": 121}, {"time": 174959, "pitch": 65, "duration": 80, "velocity": 121}, {"time": 175441, "pitch": 53, "duration": 70, "velocity": 121}, {"time": 175683, "pitch": 58, "duration": 70, "velocity": 121}, {"time": 175922, "pitch": 65, "duration": 80, "velocity": 121}, {"time": 176401, "pitch": 50, "duration": 70, "velocity": 121}, {"time": 176640, "pitch": 55, "duration": 70, "velocity": 121}, {"time": 176879, "pitch": 62, "duration": 90, "velocity": 121}, {"time": 177358, "pitch": 55, "duration": 59, "velocity": 121}, {"time": 177597, "pitch": 62, "duration": 81, "velocity": 121}, {"time": 177839, "pitch": 67, "duration": 61, "velocity": 121}, {"time": 178321, "pitch": 53, "duration": 70, "velocity": 121}, {"time": 178560, "pitch": 58, "duration": 70, "velocity": 121}, {"time": 178800, "pitch": 65, "duration": 79, "velocity": 121}, {"time": 179278, "pitch": 53, "duration": 70, "velocity": 121}, {"time": 179517, "pitch": 58, "duration": 71, "velocity": 121}, {"time": 179760, "pitch": 65, "duration": 81, "velocity": 121}, {"time": 180242, "pitch": 51, "duration": 69, "velocity": 121}, {"time": 180481, "pitch": 58, "duration": 80, "velocity": 121}, {"time": 180720, "pitch": 63, "duration": 80, "velocity": 121}, {"time": 181198, "pitch": 55, "duration": 50, "velocity": 121}, {"time": 181438, "pitch": 58, "duration": 91, "velocity": 121}, {"time": 181680, "pitch": 63, "duration": 91, "velocity": 121}, {"time": 182162, "pitch": 51, "duration": 70, "velocity": 121}, {"time": 182401, "pitch": 58, "duration": 80, "velocity": 121}, {"time": 182640, "pitch": 63, "duration": 80, "velocity": 121}, {"time": 183119, "pitch": 54, "duration": 50, "velocity": 121}, {"time": 183358, "pitch": 58, "duration": 91, "velocity": 121}, {"time": 183601, "pitch": 63, "duration": 91, "velocity": 121}, {"time": 32882, "pitch": 82, "duration": 109, "velocity": 127}, {"time": 33031, "pitch": 94, "duration": 50, "velocity": 114}, {"time": 33838, "pitch": 70, "duration": 110, "velocity": 127}, {"time": 33988, "pitch": 82, "duration": 50, "velocity": 114}, {"time": 37918, "pitch": 67, "duration": 180, "velocity": 127}, {"time": 38158, "pitch": 79, "duration": 179, "velocity": 127}, {"time": 38397, "pitch": 79, "duration": 182, "velocity": 127}, {"time": 38639, "pitch": 67, "duration": 182, "velocity": 127}, {"time": 38882, "pitch": 70, "duration": 179, "velocity": 127}, {"time": 39121, "pitch": 82, "duration": 180, "velocity": 127}, {"time": 39360, "pitch": 82, "duration": 180, "velocity": 127}, {"time": 39600, "pitch": 70, "duration": 179, "velocity": 127}, {"time": 40560, "pitch": 82, "duration": 111, "velocity": 127}, {"time": 40712, "pitch": 94, "duration": 50, "velocity": 114}, {"time": 41520, "pitch": 70, "duration": 110, "velocity": 127}, {"time": 41670, "pitch": 82, "duration": 49, "velocity": 114}, {"time": 45600, "pitch": 67, "duration": 180, "velocity": 127}, {"time": 45839, "pitch": 79, "duration": 180, "velocity": 127}, {"time": 46079, "pitch": 79, "duration": 179, "velocity": 127}, {"time": 46318, "pitch": 67, "duration": 179, "velocity": 127}, {"time": 46557, "pitch": 77, "duration": 182, "velocity": 127}, {"time": 46800, "pitch": 89, "duration": 182, "velocity": 127}, {"time": 47042, "pitch": 89, "duration": 180, "velocity": 127}, {"time": 47281, "pitch": 84, "duration": 180, "velocity": 127}, {"time": 80879, "pitch": 82, "duration": 109, "velocity": 127}, {"time": 81028, "pitch": 94, "duration": 50, "velocity": 114}, {"time": 81842, "pitch": 70, "duration": 110, "velocity": 127}, {"time": 81992, "pitch": 82, "duration": 49, "velocity": 114}, {"time": 85922, "pitch": 67, "duration": 180, "velocity": 127}, {"time": 86161, "pitch": 79, "duration": 180, "velocity": 127}, {"time": 86401, "pitch": 79, "duration": 179, "velocity": 127}, {"time": 86640, "pitch": 67, "duration": 179, "velocity": 127}, {"time": 86879, "pitch": 70, "duration": 179, "velocity": 127}, {"time": 87118, "pitch": 82, "duration": 180, "velocity": 127}, {"time": 87357, "pitch": 82, "duration": 182, "velocity": 127}, {"time": 87600, "pitch": 70, "duration": 182, "velocity": 127}, {"time": 88560, "pitch": 82, "duration": 110, "velocity": 127}, {"time": 88710, "pitch": 94, "duration": 50, "velocity": 114}, {"time": 89520, "pitch": 70, "duration": 112, "velocity": 127}, {"time": 89672, "pitch": 82, "duration": 51, "velocity": 114}, {"time": 93597, "pitch": 67, "duration": 182, "velocity": 127}, {"time": 93840, "pitch": 79, "duration": 182, "velocity": 127}, {"time": 94082, "pitch": 79, "duration": 180, "velocity": 127}, {"time": 94321, "pitch": 67, "duration": 180, "velocity": 127}, {"time": 94561, "pitch": 77, "duration": 179, "velocity": 127}, {"time": 94800, "pitch": 89, "duration": 179, "velocity": 127}, {"time": 95039, "pitch": 89, "duration": 179, "velocity": 127}, {"time": 95278, "pitch": 84, "duration": 180, "velocity": 127}, {"time": 110881, "pitch": 70, "duration": 199, "velocity": 127}, {"time": 111120, "pitch": 82, "duration": 199, "velocity": 127}, {"time": 111359, "pitch": 82, "duration": 200, "velocity": 127}, {"time": 111598, "pitch": 70, "duration": 200, "velocity": 127}, {"time": 111838, "pitch": 70, "duration": 202, "velocity": 127}, {"time": 112080, "pitch": 82, "duration": 203, "velocity": 127}, {"time": 112323, "pitch": 82, "duration": 199, "velocity": 127}, {"time": 112562, "pitch": 70, "duration": 199, "velocity": 127}, {"time": 112801, "pitch": 66, "duration": 200, "velocity": 127}, {"time": 113040, "pitch": 78, "duration": 200, "velocity": 127}, {"time": 113280, "pitch": 78, "duration": 199, "velocity": 127}, {"time": 113519, "pitch": 66, "duration": 199, "velocity": 127}, {"time": 113758, "pitch": 65, "duration": 202, "velocity": 127}, {"time": 114001, "pitch": 77, "duration": 202, "velocity": 127}, {"time": 114243, "pitch": 77, "duration": 200, "velocity": 127}, {"time": 114483, "pitch": 65, "duration": 199, "velocity": 127}, {"time": 114722, "pitch": 70, "duration": 199, "velocity": 127}, {"time": 114961, "pitch": 82, "duration": 199, "velocity": 127}, {"time": 115200, "pitch": 82, "duration": 199, "velocity": 127}, {"time": 115439, "pitch": 70, "duration": 200, "velocity": 127}, {"time": 115679, "pitch": 70, "duration": 199, "velocity": 127}, {"time": 115918, "pitch": 82, "duration": 199, "velocity": 127}, {"time": 116157, "pitch": 82, "duration": 202, "velocity": 127}, {"time": 116400, "pitch": 70, "duration": 202, "velocity": 127}, {"time": 116642, "pitch": 66, "duration": 199, "velocity": 127}, {"time": 116881, "pitch": 78, "duration": 200, "velocity": 127}, {"time": 117121, "pitch": 78, "duration": 199, "velocity": 127}, {"time": 117360, "pitch": 66, "duration": 199, "velocity": 127}, {"time": 117599, "pitch": 65, "duration": 199, "velocity": 127}, {"time": 117838, "pitch": 77, "duration": 199, "velocity": 127}, {"time": 118077, "pitch": 77, "duration": 203, "velocity": 127}, {"time": 118320, "pitch": 65, "duration": 202, "velocity": 127}, {"time": 133919, "pitch": 63, "duration": 180, "velocity": 127}, {"time": 134158, "pitch": 70, "duration": 180, "velocity": 127}, {"time": 134398, "pitch": 70, "duration": 181, "velocity": 127}, {"time": 134640, "pitch": 63, "duration": 182, "velocity": 127}, {"time": 134883, "pitch": 63, "duration": 179, "velocity": 127}, {"time": 135122, "pitch": 70, "duration": 179, "velocity": 127}, {"time": 135361, "pitch": 70, "duration": 180, "velocity": 127}, {"time": 135600, "pitch": 63, "duration": 180, "velocity": 127}, {"time": 135840, "pitch": 65, "duration": 179, "velocity": 127}, {"time": 136079, "pitch": 74, "duration": 179, "velocity": 127}, {"time": 136318, "pitch": 74, "duration": 182, "velocity": 127}, {"time": 136561, "pitch": 65, "duration": 182, "velocity": 127}, {"time": 136803, "pitch": 65, "duration": 180, "velocity": 127}, {"time": 137042, "pitch": 74, "duration": 180, "velocity": 127}, {"time": 137282, "pitch": 74, "duration": 179, "velocity": 127}, {"time": 137521, "pitch": 65, "duration": 179, "velocity": 127}, {"time": 137760, "pitch": 65, "duration": 179, "velocity": 127}, {"time": 137999, "pitch": 75, "duration": 180, "velocity": 127}, {"time": 138238, "pitch": 75, "duration": 180, "velocity": 127}, {"time": 138478, "pitch": 65, "duration": 179, "velocity": 127}, {"time": 138717, "pitch": 66, "duration": 182, "velocity": 127}, {"time": 138959, "pitch": 75, "duration": 182, "velocity": 127}, {"time": 139202, "pitch": 75, "duration": 179, "velocity": 127}, {"time": 139441, "pitch": 66, "duration": 180, "velocity": 127}, {"time": 139680, "pitch": 67, "duration": 180, "velocity": 127}, {"time": 139920, "pitch": 79, "duration": 179, "velocity": 127}, {"time": 140159, "pitch": 79, "duration": 179, "velocity": 127}, {"time": 140398, "pitch": 67, "duration": 179, "velocity": 127}, {"time": 140637, "pitch": 70, "duration": 182, "velocity": 127}, {"time": 140880, "pitch": 82, "duration": 182, "velocity": 127}, {"time": 141122, "pitch": 82, "duration": 180, "velocity": 127}, {"time": 141362, "pitch": 70, "duration": 179, "velocity": 127}, {"time": 142318, "pitch": 82, "duration": 110, "velocity": 127}, {"time": 142468, "pitch": 94, "duration": 50, "velocity": 114}, {"time": 143282, "pitch": 70, "duration": 110, "velocity": 127}, {"time": 143432, "pitch": 82, "duration": 49, "velocity": 114}, {"time": 147362, "pitch": 67, "duration": 179, "velocity": 127}, {"time": 147601, "pitch": 79, "duration": 180, "velocity": 127}, {"time": 147840, "pitch": 79, "duration": 180, "velocity": 127}, {"time": 148080, "pitch": 67, "duration": 179, "velocity": 127}, {"time": 148319, "pitch": 77, "duration": 179, "velocity": 127}, {"time": 148558, "pitch": 89, "duration": 179, "velocity": 127}, {"time": 148797, "pitch": 89, "duration": 182, "velocity": 127}, {"time": 149040, "pitch": 84, "duration": 182, "velocity": 127}, {"time": 149283, "pitch": 73, "duration": 179, "velocity": 127}, {"time": 149522, "pitch": 85, "duration": 179, "velocity": 127}, {"time": 149761, "pitch": 85, "duration": 179, "velocity": 127}, {"time": 150000, "pitch": 80, "duration": 180, "velocity": 127}, {"time": 150239, "pitch": 80, "duration": 180, "velocity": 127}, {"time": 150478, "pitch": 92, "duration": 180, "velocity": 127}, {"time": 150718, "pitch": 92, "duration": 182, "velocity": 127}, {"time": 150960, "pitch": 89, "duration": 182, "velocity": 127}, {"time": 151142, "pitch": 88, "duration": 181, "velocity": 127}, {"time": 49919, "pitch": 74, "duration": 80, "velocity": 112}, {"time": 50398, "pitch": 75, "duration": 81, "velocity": 112}, {"time": 50883, "pitch": 77, "duration": 80, "velocity": 112}, {"time": 51361, "pitch": 79, "duration": 80, "velocity": 112}, {"time": 53282, "pitch": 87, "duration": 80, "velocity": 112}, {"time": 53521, "pitch": 86, "duration": 80, "velocity": 112}, {"time": 53760, "pitch": 82, "duration": 80, "velocity": 112}, {"time": 53999, "pitch": 84, "duration": 80, "velocity": 112}, {"time": 57601, "pitch": 77, "duration": 80, "velocity": 112}, {"time": 58079, "pitch": 82, "duration": 80, "velocity": 112}, {"time": 58558, "pitch": 84, "duration": 81, "velocity": 112}, {"time": 59043, "pitch": 77, "duration": 80, "velocity": 112}, {"time": 60957, "pitch": 87, "duration": 81, "velocity": 112}, {"time": 61199, "pitch": 86, "duration": 81, "velocity": 112}, {"time": 61442, "pitch": 82, "duration": 80, "velocity": 112}, {"time": 61681, "pitch": 84, "duration": 80, "velocity": 112}, {"time": 97923, "pitch": 74, "duration": 80, "velocity": 112}, {"time": 98402, "pitch": 75, "duration": 79, "velocity": 112}, {"time": 98880, "pitch": 77, "duration": 80, "velocity": 112}, {"time": 99358, "pitch": 79, "duration": 80, "velocity": 112}, {"time": 101279, "pitch": 87, "duration": 79, "velocity": 112}, {"time": 101518, "pitch": 86, "duration": 80, "velocity": 112}, {"time": 101757, "pitch": 82, "duration": 81, "velocity": 112}, {"time": 102000, "pitch": 84, "duration": 81, "velocity": 112}, {"time": 105598, "pitch": 77, "duration": 81, "velocity": 112}, {"time": 106083, "pitch": 82, "duration": 80, "velocity": 112}, {"time": 106562, "pitch": 84, "duration": 79, "velocity": 112}, {"time": 107040, "pitch": 89, "duration": 80, "velocity": 112}, {"time": 108960, "pitch": 87, "duration": 80, "velocity": 112}, {"time": 109200, "pitch": 86, "duration": 79, "velocity": 112}, {"time": 109439, "pitch": 82, "duration": 80, "velocity": 112}, {"time": 109678, "pitch": 84, "duration": 80, "velocity": 112}, {"time": 133919, "pitch": 82, "duration": 80, "velocity": 112}, {"time": 134398, "pitch": 82, "duration": 80, "velocity": 112}, {"time": 134883, "pitch": 82, "duration": 79, "velocity": 112}, {"time": 135122, "pitch": 82, "duration": 80, "velocity": 112}, {"time": 135361, "pitch": 82, "duration": 80, "velocity": 112}, {"time": 135840, "pitch": 82, "duration": 79, "velocity": 112}, {"time": 136318, "pitch": 82, "duration": 81, "velocity": 112}, {"time": 136803, "pitch": 82, "duration": 80, "velocity": 112}, {"time": 137042, "pitch": 82, "duration": 80, "velocity": 112}, {"time": 137282, "pitch": 82, "duration": 79, "velocity": 112}, {"time": 137760, "pitch": 82, "duration": 80, "velocity": 112}, {"time": 138238, "pitch": 82, "duration": 80, "velocity": 112}, {"time": 138717, "pitch": 81, "duration": 81, "velocity": 112}, {"time": 138959, "pitch": 81, "duration": 81, "velocity": 112}, {"time": 139202, "pitch": 81, "duration": 80, "velocity": 112}, {"time": 139680, "pitch": 79, "duration": 80, "velocity": 112}, {"time": 140159, "pitch": 81, "duration": 80, "velocity": 112}, {"time": 140637, "pitch": 82, "duration": 81, "velocity": 112}, {"time": 141122, "pitch": 86, "duration": 80, "velocity": 112}, {"time": 147362, "pitch": 80, "duration": 399, "velocity": 112}, {"time": 147840, "pitch": 79, "duration": 409, "velocity": 112}, {"time": 148319, "pitch": 77, "duration": 379, "velocity": 112}, {"time": 148797, "pitch": 81, "duration": 395, "velocity": 112}, {"time": 149283, "pitch": 82, "duration": 348, "velocity": 112}, {"time": 149761, "pitch": 84, "duration": 399, "velocity": 112}, {"time": 150239, "pitch": 85, "duration": 399, "velocity": 112}, {"time": 150718, "pitch": 87, "duration": 354, "velocity": 112}, {"time": 151203, "pitch": 89, "duration": 727, "velocity": 112}, {"time": 153602, "pitch": 74, "duration": 79, "velocity": 112}, {"time": 154080, "pitch": 75, "duration": 80, "velocity": 112}, {"time": 154559, "pitch": 77, "duration": 79, "velocity": 112}, {"time": 155037, "pitch": 79, "duration": 81, "velocity": 112}, {"time": 156957, "pitch": 87, "duration": 81, "velocity": 112}, {"time": 157200, "pitch": 86, "duration": 81, "velocity": 112}, {"time": 157443, "pitch": 82, "duration": 79, "velocity": 112}, {"time": 157682, "pitch": 84, "duration": 80, "velocity": 112}, {"time": 161277, "pitch": 77, "duration": 80, "velocity": 112}, {"time": 161762, "pitch": 82, "duration": 80, "velocity": 112}, {"time": 162240, "pitch": 84, "duration": 80, "velocity": 112}, {"time": 162719, "pitch": 89, "duration": 79, "velocity": 112}, {"time": 164639, "pitch": 87, "duration": 80, "velocity": 112}, {"time": 164878, "pitch": 86, "duration": 80, "velocity": 112}, {"time": 165117, "pitch": 82, "duration": 81, "velocity": 112}, {"time": 165360, "pitch": 84, "duration": 81, "velocity": 112}, {"time": 166320, "pitch": 86, "duration": 70, "velocity": 112}, {"time": 166470, "pitch": 84, "duration": 50, "velocity": 112}, {"time": 166559, "pitch": 86, "duration": 70, "velocity": 112}, {"time": 168241, "pitch": 86, "duration": 69, "velocity": 112}, {"time": 168390, "pitch": 84, "duration": 50, "velocity": 112}, {"time": 168480, "pitch": 86, "duration": 70, "velocity": 112}, {"time": 170161, "pitch": 86, "duration": 70, "velocity": 112}, {"time": 170311, "pitch": 84, "duration": 40, "velocity": 112}, {"time": 170400, "pitch": 86, "duration": 70, "velocity": 112}, {"time": 171357, "pitch": 89, "duration": 71, "velocity": 112}, {"time": 171600, "pitch": 87, "duration": 50, "velocity": 112}, {"time": 171842, "pitch": 86, "duration": 50, "velocity": 112}, {"time": 172082, "pitch": 84, "duration": 59, "velocity": 112}, {"time": 172321, "pitch": 86, "duration": 70, "velocity": 112}, {"time": 172709, "pitch": 82, "duration": 50, "velocity": 112}, {"time": 172799, "pitch": 82, "duration": 60, "velocity": 112}, {"time": 173038, "pitch": 84, "duration": 50, "velocity": 112}, {"time": 173278, "pitch": 82, "duration": 50, "velocity": 112}, {"time": 174002, "pitch": 86, "duration": 70, "velocity": 112}, {"time": 174151, "pitch": 84, "duration": 40, "velocity": 112}, {"time": 174241, "pitch": 86, "duration": 70, "velocity": 112}, {"time": 175922, "pitch": 86, "duration": 70, "velocity": 112}, {"time": 176072, "pitch": 84, "duration": 40, "velocity": 112}, {"time": 176162, "pitch": 86, "duration": 69, "velocity": 112}, {"time": 177839, "pitch": 86, "duration": 71, "velocity": 112}, {"time": 177991, "pitch": 84, "duration": 41, "velocity": 112}, {"time": 178082, "pitch": 86, "duration": 70, "velocity": 112}, {"time": 179039, "pitch": 89, "duration": 70, "velocity": 112}, {"time": 179278, "pitch": 87, "duration": 50, "velocity": 112}, {"time": 179517, "pitch": 86, "duration": 61, "velocity": 112}, {"time": 179760, "pitch": 84, "duration": 50, "velocity": 112}, {"time": 180002, "pitch": 86, "duration": 70, "velocity": 112}, {"time": 180242, "pitch": 82, "duration": 49, "velocity": 112}, {"time": 180391, "pitch": 82, "duration": 50, "velocity": 112}, {"time": 183358, "pitch": 82, "duration": 202, "velocity": 112}, {"time": 183601, "pitch": 84, "duration": 212, "velocity": 112}, {"time": 1198, "pitch": 74, "duration": 179, "velocity": 108}, {"time": 1367, "pitch": 72, "duration": 80, "velocity": 104}, {"time": 1437, "pitch": 74, "duration": 384, "velocity": 108}, {"time": 1821, "pitch": 70, "duration": 71, "velocity": 108}, {"time": 1922, "pitch": 65, "duration": 280, "velocity": 95}, {"time": 1922, "pitch": 70, "duration": 280, "velocity": 95}, {"time": 2162, "pitch": 67, "duration": 239, "velocity": 112}, {"time": 2162, "pitch": 72, "duration": 239, "velocity": 112}, {"time": 2401, "pitch": 70, "duration": 548, "velocity": 112}, {"time": 2401, "pitch": 74, "duration": 548, "velocity": 112}, {"time": 3099, "pitch": 72, "duration": 29, "velocity": 98}, {"time": 3118, "pitch": 74, "duration": 180, "velocity": 117}, {"time": 3278, "pitch": 72, "duration": 80, "velocity": 104}, {"time": 3358, "pitch": 72, "duration": 10, "velocity": 104}, {"time": 3358, "pitch": 74, "duration": 404, "velocity": 98}, {"time": 3722, "pitch": 70, "duration": 50, "velocity": 108}, {"time": 3843, "pitch": 65, "duration": 289, "velocity": 101}, {"time": 3843, "pitch": 70, "duration": 289, "velocity": 101}, {"time": 4082, "pitch": 67, "duration": 259, "velocity": 108}, {"time": 4082, "pitch": 72, "duration": 259, "velocity": 108}, {"time": 4321, "pitch": 65, "duration": 509, "velocity": 108}, {"time": 4321, "pitch": 70, "duration": 509, "velocity": 108}, {"time": 5039, "pitch": 74, "duration": 179, "velocity": 112}, {"time": 5198, "pitch": 72, "duration": 100, "velocity": 104}, {"time": 5278, "pitch": 74, "duration": 384, "velocity": 115}, {"time": 5642, "pitch": 70, "duration": 61, "velocity": 108}, {"time": 5763, "pitch": 70, "duration": 399, "velocity": 101}, {"time": 6242, "pitch": 68, "duration": 966, "velocity": 108}, {"time": 6242, "pitch": 77, "duration": 259, "velocity": 112}, {"time": 6481, "pitch": 75, "duration": 249, "velocity": 106}, {"time": 6720, "pitch": 74, "duration": 269, "velocity": 108}, {"time": 6959, "pitch": 72, "duration": 249, "velocity": 112}, {"time": 7198, "pitch": 67, "duration": 944, "velocity": 108}, {"time": 7198, "pitch": 74, "duration": 399, "velocity": 112}, {"time": 7577, "pitch": 70, "duration": 60, "velocity": 117}, {"time": 7677, "pitch": 70, "duration": 263, "velocity": 101}, {"time": 7919, "pitch": 72, "duration": 253, "velocity": 108}, {"time": 8162, "pitch": 66, "duration": 488, "velocity": 108}, {"time": 8162, "pitch": 70, "duration": 548, "velocity": 101}, {"time": 8641, "pitch": 68, "duration": 328, "velocity": 108}, {"time": 8880, "pitch": 74, "duration": 209, "velocity": 112}, {"time": 9039, "pitch": 72, "duration": 80, "velocity": 108}, {"time": 9119, "pitch": 72, "duration": 20, "velocity": 108}, {"time": 9119, "pitch": 74, "duration": 339, "velocity": 108}, {"time": 9468, "pitch": 70, "duration": 60, "velocity": 101}, {"time": 9597, "pitch": 65, "duration": 273, "velocity": 108}, {"time": 9597, "pitch": 70, "duration": 273, "velocity": 108}, {"time": 9840, "pitch": 67, "duration": 253, "velocity": 112}, {"time": 9840, "pitch": 72, "duration": 253, "velocity": 112}, {"time": 10083, "pitch": 70, "duration": 657, "velocity": 112}, {"time": 10083, "pitch": 74, "duration": 657, "velocity": 112}, {"time": 10790, "pitch": 72, "duration": 30, "velocity": 92}, {"time": 10800, "pitch": 74, "duration": 190, "velocity": 112}, {"time": 10960, "pitch": 72, "duration": 79, "velocity": 104}, {"time": 11039, "pitch": 72, "duration": 10, "velocity": 104}, {"time": 11039, "pitch": 74, "duration": 399, "velocity": 98}, {"time": 11408, "pitch": 70, "duration": 60, "velocity": 108}, {"time": 11518, "pitch": 65, "duration": 263, "velocity": 101}, {"time": 11518, "pitch": 70, "duration": 263, "velocity": 101}, {"time": 11760, "pitch": 67, "duration": 253, "velocity": 108}, {"time": 11760, "pitch": 72, "duration": 253, "velocity": 108}, {"time": 12003, "pitch": 65, "duration": 638, "velocity": 117}, {"time": 12003, "pitch": 70, "duration": 638, "velocity": 117}, {"time": 12721, "pitch": 74, "duration": 189, "velocity": 112}, {"time": 12870, "pitch": 72, "duration": 90, "velocity": 108}, {"time": 12960, "pitch": 72, "duration": 30, "velocity": 108}, {"time": 12960, "pitch": 74, "duration": 378, "velocity": 108}, {"time": 13329, "pitch": 70, "duration": 59, "velocity": 117}, {"time": 13438, "pitch": 70, "duration": 394, "velocity": 101}, {"time": 13923, "pitch": 68, "duration": 917, "velocity": 110}, {"time": 13923, "pitch": 77, "duration": 240, "velocity": 117}, {"time": 14163, "pitch": 75, "duration": 259, "velocity": 101}, {"time": 14402, "pitch": 74, "duration": 259, "velocity": 108}, {"time": 14641, "pitch": 72, "duration": 219, "velocity": 108}, {"time": 14880, "pitch": 67, "duration": 977, "velocity": 104}, {"time": 14880, "pitch": 74, "duration": 279, "velocity": 104}, {"time": 15109, "pitch": 70, "duration": 100, "velocity": 101}, {"time": 15239, "pitch": 70, "duration": 1023, "velocity": 108}, {"time": 15837, "pitch": 66, "duration": 455, "velocity": 108}, {"time": 16302, "pitch": 68, "duration": 459, "velocity": 108}, {"time": 16312, "pitch": 63, "duration": 459, "velocity": 108}, {"time": 16312, "pitch": 72, "duration": 449, "velocity": 127}, {"time": 67921, "pitch": 74, "duration": 129, "velocity": 92}, {"time": 68070, "pitch": 75, "duration": 100, "velocity": 95}, {"time": 68309, "pitch": 74, "duration": 80, "velocity": 104}, {"time": 68549, "pitch": 70, "duration": 79, "velocity": 81}, {"time": 68638, "pitch": 65, "duration": 1203, "velocity": 67}, {"time": 71762, "pitch": 72, "duration": 149, "velocity": 87}, {"time": 71762, "pitch": 75, "duration": 209, "velocity": 90}, {"time": 72001, "pitch": 70, "duration": 109, "velocity": 84}, {"time": 72001, "pitch": 74, "duration": 129, "velocity": 90}, {"time": 72150, "pitch": 72, "duration": 70, "velocity": 93}, {"time": 72150, "pitch": 75, "duration": 90, "velocity": 96}, {"time": 72390, "pitch": 74, "duration": 1332, "velocity": 74}, {"time": 72390, "pitch": 77, "duration": 1322, "velocity": 85}, {"time": 79118, "pitch": 77, "duration": 99, "velocity": 48}, {"time": 79197, "pitch": 79, "duration": 101, "velocity": 56}, {"time": 79298, "pitch": 77, "duration": 61, "velocity": 62}, {"time": 79349, "pitch": 79, "duration": 61, "velocity": 68}, {"time": 79420, "pitch": 77, "duration": 60, "velocity": 70}, {"time": 79480, "pitch": 79, "duration": 71, "velocity": 76}, {"time": 79541, "pitch": 77, "duration": 61, "velocity": 80}, {"time": 79602, "pitch": 79, "duration": 70, "velocity": 82}, {"time": 79662, "pitch": 77, "duration": 60, "velocity": 88}, {"time": 79722, "pitch": 79, "duration": 60, "velocity": 90}, {"time": 79792, "pitch": 77, "duration": 60, "velocity": 88}, {"time": 79852, "pitch": 79, "duration": 60, "velocity": 86}, {"time": 79912, "pitch": 77, "duration": 60, "velocity": 80}, {"time": 79972, "pitch": 79, "duration": 59, "velocity": 74}, {"time": 80021, "pitch": 77, "duration": 60, "velocity": 74}, {"time": 80091, "pitch": 79, "duration": 60, "velocity": 72}, {"time": 80151, "pitch": 77, "duration": 10, "velocity": 60}, {"time": 80161, "pitch": 77, "duration": 1452, "velocity": 60}, {"time": 97923, "pitch": 58, "duration": 439, "velocity": 95}, {"time": 97923, "pitch": 62, "duration": 459, "velocity": 104}, {"time": 98402, "pitch": 60, "duration": 448, "velocity": 98}, {"time": 98402, "pitch": 63, "duration": 448, "velocity": 101}, {"time": 98880, "pitch": 62, "duration": 448, "velocity": 98}, {"time": 98880, "pitch": 65, "duration": 438, "velocity": 98}, {"time": 99358, "pitch": 63, "duration": 934, "velocity": 95}, {"time": 99358, "pitch": 67, "duration": 1004, "velocity": 98}, {"time": 100322, "pitch": 62, "duration": 887, "velocity": 98}, {"time": 100322, "pitch": 65, "duration": 907, "velocity": 94}, {"time": 101757, "pitch": 62, "duration": 425, "velocity": 96}, {"time": 101757, "pitch": 70, "duration": 435, "velocity": 114}, {"time": 102242, "pitch": 65, "duration": 80, "velocity": 104}, {"time": 102242, "pitch": 69, "duration": 90, "velocity": 108}, {"time": 102482, "pitch": 63, "duration": 89, "velocity": 108}, {"time": 102482, "pitch": 67, "duration": 109, "velocity": 104}, {"time": 102721, "pitch": 60, "duration": 478, "velocity": 98}, {"time": 102721, "pitch": 65, "duration": 239, "velocity": 108}, {"time": 102960, "pitch": 63, "duration": 229, "velocity": 74}, {"time": 103199, "pitch": 62, "duration": 1891, "velocity": 104}, {"time": 103199, "pitch": 65, "duration": 1901, "velocity": 98}, {"time": 105598, "pitch": 62, "duration": 445, "velocity": 95}, {"time": 105598, "pitch": 65, "duration": 445, "velocity": 108}, {"time": 106083, "pitch": 65, "duration": 967, "velocity": 108}, {"time": 106083, "pitch": 70, "duration": 489, "velocity": 108}, {"time": 106562, "pitch": 72, "duration": 468, "velocity": 104}, {"time": 107040, "pitch": 67, "duration": 937, "velocity": 104}, {"time": 107040, "pitch": 70, "duration": 1771, "velocity": 79}, {"time": 107997, "pitch": 65, "duration": 814, "velocity": 102}, {"time": 108960, "pitch": 60, "duration": 190, "velocity": 98}, {"time": 108960, "pitch": 63, "duration": 180, "velocity": 108}, {"time": 109200, "pitch": 62, "duration": 89, "velocity": 98}, {"time": 109200, "pitch": 65, "duration": 89, "velocity": 98}, {"time": 109439, "pitch": 63, "duration": 90, "velocity": 108}, {"time": 109439, "pitch": 67, "duration": 90, "velocity": 104}, {"time": 109678, "pitch": 65, "duration": 462, "velocity": 108}, {"time": 109678, "pitch": 69, "duration": 492, "velocity": 112}, {"time": 110160, "pitch": 67, "duration": 222, "velocity": 108}, {"time": 110160, "pitch": 70, "duration": 252, "velocity": 101}, {"time": 110402, "pitch": 69, "duration": 299, "velocity": 117}, {"time": 110402, "pitch": 72, "duration": 299, "velocity": 108}, {"time": 110881, "pitch": 61, "duration": 199, "velocity": 95}, {"time": 110881, "pitch": 65, "duration": 189, "velocity": 117}, {"time": 110881, "pitch": 70, "duration": 199, "velocity": 108}, {"time": 111359, "pitch": 61, "duration": 229, "velocity": 101}, {"time": 111359, "pitch": 65, "duration": 220, "velocity": 112}, {"time": 111359, "pitch": 70, "duration": 239, "velocity": 117}, {"time": 111838, "pitch": 61, "duration": 151, "velocity": 95}, {"time": 111838, "pitch": 66, "duration": 161, "velocity": 101}, {"time": 111838, "pitch": 70, "duration": 161, "velocity": 101}, {"time": 112080, "pitch": 61, "duration": 142, "velocity": 101}, {"time": 112080, "pitch": 66, "duration": 152, "velocity": 101}, {"time": 112080, "pitch": 70, "duration": 162, "velocity": 108}, {"time": 112323, "pitch": 61, "duration": 179, "velocity": 101}, {"time": 112323, "pitch": 66, "duration": 179, "velocity": 117}, {"time": 112323, "pitch": 70, "duration": 189, "velocity": 117}, {"time": 112801, "pitch": 61, "duration": 220, "velocity": 101}, {"time": 112801, "pitch": 66, "duration": 220, "velocity": 108}, {"time": 112801, "pitch": 70, "duration": 220, "velocity": 117}, {"time": 113280, "pitch": 61, "duration": 279, "velocity": 95}, {"time": 113280, "pitch": 66, "duration": 269, "velocity": 101}, {"time": 113280, "pitch": 70, "duration": 289, "velocity": 101}, {"time": 113758, "pitch": 60, "duration": 172, "velocity": 98}, {"time": 113758, "pitch": 65, "duration": 172, "velocity": 108}, {"time": 113758, "pitch": 68, "duration": 182, "velocity": 108}, {"time": 114001, "pitch": 60, "duration": 161, "velocity": 98}, {"time": 114001, "pitch": 65, "duration": 161, "velocity": 108}, {"time": 114001, "pitch": 68, "duration": 172, "velocity": 117}, {"time": 114243, "pitch": 60, "duration": 170, "velocity": 95}, {"time": 114243, "pitch": 65, "duration": 190, "velocity": 108}, {"time": 114243, "pitch": 68, "duration": 190, "velocity": 101}, {"time": 114483, "pitch": 65, "duration": 169, "velocity": 104}, {"time": 114483, "pitch": 68, "duration": 189, "velocity": 95}, {"time": 114483, "pitch": 72, "duration": 159, "velocity": 104}, {"time": 114722, "pitch": 61, "duration": 199, "velocity": 95}, {"time": 114722, "pitch": 65, "duration": 189, "velocity": 117}, {"time": 114722, "pitch": 70, "duration": 199, "velocity": 108}, {"time": 115200, "pitch": 61, "duration": 229, "velocity": 101}, {"time": 115200, "pitch": 65, "duration": 219, "velocity": 112}, {"time": 115200, "pitch": 70, "duration": 239, "velocity": 117}, {"time": 115679, "pitch": 61, "duration": 149, "velocity": 95}, {"time": 115679, "pitch": 66, "duration": 159, "velocity": 101}, {"time": 115679, "pitch": 70, "duration": 159, "velocity": 101}, {"time": 115918, "pitch": 61, "duration": 139, "velocity": 101}, {"time": 115918, "pitch": 66, "duration": 149, "velocity": 101}, {"time": 115918, "pitch": 70, "duration": 159, "velocity": 108}, {"time": 116157, "pitch": 61, "duration": 182, "velocity": 101}, {"time": 116157, "pitch": 66, "duration": 182, "velocity": 117}, {"time": 116157, "pitch": 70, "duration": 192, "velocity": 117}, {"time": 116642, "pitch": 61, "duration": 219, "velocity": 101}, {"time": 116642, "pitch": 66, "duration": 219, "velocity": 108}, {"time": 116642, "pitch": 70, "duration": 219, "velocity": 117}, {"time": 117121, "pitch": 61, "duration": 279, "velocity": 95}, {"time": 117121, "pitch": 66, "duration": 269, "velocity": 101}, {"time": 117121, "pitch": 70, "duration": 289, "velocity": 101}, {"time": 117599, "pitch": 60, "duration": 169, "velocity": 98}, {"time": 117599, "pitch": 65, "duration": 169, "velocity": 108}, {"time": 117599, "pitch": 68, "duration": 179, "velocity": 108}, {"time": 117838, "pitch": 60, "duration": 160, "velocity": 98}, {"time": 117838, "pitch": 65, "duration": 160, "velocity": 108}, {"time": 117838, "pitch": 68, "duration": 170, "velocity": 117}, {"time": 118077, "pitch": 61, "duration": 172, "velocity": 95}, {"time": 118077, "pitch": 66, "duration": 192, "velocity": 108}, {"time": 118077, "pitch": 70, "duration": 192, "velocity": 101}, {"time": 118320, "pitch": 63, "duration": 172, "velocity": 104}, {"time": 118320, "pitch": 68, "duration": 162, "velocity": 95}, {"time": 118320, "pitch": 72, "duration": 162, "velocity": 104}, {"time": 119280, "pitch": 77, "duration": 160, "velocity": 108}, {"time": 119430, "pitch": 75, "duration": 119, "velocity": 95}, {"time": 119519, "pitch": 77, "duration": 369, "velocity": 112}, {"time": 119908, "pitch": 74, "duration": 60, "velocity": 101}, {"time": 119998, "pitch": 74, "duration": 172, "velocity": 117}, {"time": 120149, "pitch": 75, "duration": 132, "velocity": 106}, {"time": 120240, "pitch": 74, "duration": 112, "velocity": 108}, {"time": 120392, "pitch": 74, "duration": 91, "velocity": 117}, {"time": 120483, "pitch": 74, "duration": 140, "velocity": 117}, {"time": 120583, "pitch": 73, "duration": 69, "velocity": 95}, {"time": 120652, "pitch": 72, "duration": 80, "velocity": 104}, {"time": 120712, "pitch": 70, "duration": 239, "velocity": 95}, {"time": 121111, "pitch": 65, "duration": 119, "velocity": 98}, {"time": 121201, "pitch": 67, "duration": 139, "velocity": 108}, {"time": 121350, "pitch": 70, "duration": 60, "velocity": 81}, {"time": 121440, "pitch": 70, "duration": 99, "velocity": 108}, {"time": 121569, "pitch": 70, "duration": 150, "velocity": 110}, {"time": 121679, "pitch": 72, "duration": 140, "velocity": 104}, {"time": 121809, "pitch": 70, "duration": 139, "velocity": 95}, {"time": 121918, "pitch": 74, "duration": 182, "velocity": 108}, {"time": 122070, "pitch": 67, "duration": 121, "velocity": 73}, {"time": 122070, "pitch": 72, "duration": 121, "velocity": 83}, {"time": 122161, "pitch": 65, "duration": 111, "velocity": 91}, {"time": 122161, "pitch": 70, "duration": 111, "velocity": 101}, {"time": 122312, "pitch": 65, "duration": 301, "velocity": 107}, {"time": 122312, "pitch": 70, "duration": 301, "velocity": 117}, {"time": 122643, "pitch": 70, "duration": 69, "velocity": 117}, {"time": 122643, "pitch": 74, "duration": 69, "velocity": 117}, {"time": 123121, "pitch": 66, "duration": 70, "velocity": 85}, {"time": 123121, "pitch": 67, "duration": 140, "velocity": 98}, {"time": 123261, "pitch": 65, "duration": 607, "velocity": 104}, {"time": 124317, "pitch": 70, "duration": 111, "velocity": 122}, {"time": 124448, "pitch": 69, "duration": 51, "velocity": 104}, {"time": 124560, "pitch": 69, "duration": 131, "velocity": 118}, {"time": 124691, "pitch": 67, "duration": 61, "velocity": 98}, {"time": 124802, "pitch": 67, "duration": 130, "velocity": 116}, {"time": 124932, "pitch": 65, "duration": 109, "velocity": 108}, {"time": 125041, "pitch": 62, "duration": 140, "velocity": 100}, {"time": 125171, "pitch": 63, "duration": 110, "velocity": 101}, {"time": 125261, "pitch": 65, "duration": 129, "velocity": 112}, {"time": 125380, "pitch": 67, "duration": 70, "velocity": 104}, {"time": 125440, "pitch": 65, "duration": 70, "velocity": 92}, {"time": 125520, "pitch": 63, "duration": 149, "velocity": 95}, {"time": 125649, "pitch": 62, "duration": 110, "velocity": 108}, {"time": 125759, "pitch": 60, "duration": 179, "velocity": 112}, {"time": 125889, "pitch": 58, "duration": 129, "velocity": 81}, {"time": 125998, "pitch": 60, "duration": 130, "velocity": 98}, {"time": 126128, "pitch": 67, "duration": 109, "velocity": 100}, {"time": 126237, "pitch": 65, "duration": 884, "velocity": 98}, {"time": 126237, "pitch": 67, "duration": 31, "velocity": 100}, {"time": 127809, "pitch": 65, "duration": 40, "velocity": 92}, {"time": 127919, "pitch": 74, "duration": 129, "velocity": 112}, {"time": 127919, "pitch": 77, "duration": 159, "velocity": 112}, {"time": 128048, "pitch": 72, "duration": 90, "velocity": 112}, {"time": 128048, "pitch": 75, "duration": 80, "velocity": 95}, {"time": 128289, "pitch": 65, "duration": 51, "velocity": 73}, {"time": 128400, "pitch": 72, "duration": 172, "velocity": 108}, {"time": 128400, "pitch": 75, "duration": 162, "velocity": 127}, {"time": 128532, "pitch": 70, "duration": 71, "velocity": 108}, {"time": 128532, "pitch": 74, "duration": 61, "velocity": 108}, {"time": 128773, "pitch": 65, "duration": 69, "velocity": 89}, {"time": 128882, "pitch": 70, "duration": 160, "velocity": 117}, {"time": 128882, "pitch": 74, "duration": 150, "velocity": 127}, {"time": 129012, "pitch": 69, "duration": 60, "velocity": 98}, {"time": 129012, "pitch": 72, "duration": 50, "velocity": 75}, {"time": 129251, "pitch": 65, "duration": 60, "velocity": 83}, {"time": 129361, "pitch": 69, "duration": 139, "velocity": 108}, {"time": 129361, "pitch": 72, "duration": 169, "velocity": 108}, {"time": 129490, "pitch": 67, "duration": 70, "velocity": 98}, {"time": 129490, "pitch": 70, "duration": 80, "velocity": 74}, {"time": 129600, "pitch": 70, "duration": 199, "velocity": 89}, {"time": 129839, "pitch": 67, "duration": 239, "velocity": 102}, {"time": 129839, "pitch": 72, "duration": 239, "velocity": 112}, {"time": 130078, "pitch": 70, "duration": 913, "velocity": 102}, {"time": 130078, "pitch": 74, "duration": 913, "velocity": 112}, {"time": 131650, "pitch": 65, "duration": 80, "velocity": 98}, {"time": 131759, "pitch": 70, "duration": 160, "velocity": 117}, {"time": 131759, "pitch": 74, "duration": 150, "velocity": 112}, {"time": 131889, "pitch": 67, "duration": 80, "velocity": 112}, {"time": 131889, "pitch": 72, "duration": 70, "velocity": 104}, {"time": 132128, "pitch": 65, "duration": 100, "velocity": 98}, {"time": 132238, "pitch": 67, "duration": 159, "velocity": 104}, {"time": 132238, "pitch": 72, "duration": 139, "velocity": 112}, {"time": 132367, "pitch": 65, "duration": 70, "velocity": 112}, {"time": 132367, "pitch": 70, "duration": 90, "velocity": 81}, {"time": 132720, "pitch": 62, "duration": 161, "velocity": 117}, {"time": 132851, "pitch": 63, "duration": 81, "velocity": 98}, {"time": 132902, "pitch": 64, "duration": 130, "velocity": 92}, {"time": 132962, "pitch": 65, "duration": 100, "velocity": 104}, {"time": 133092, "pitch": 65, "duration": 119, "velocity": 108}, {"time": 133202, "pitch": 67, "duration": 159, "velocity": 117}, {"time": 133331, "pitch": 65, "duration": 100, "velocity": 98}, {"time": 133441, "pitch": 70, "duration": 259, "velocity": 117}, {"time": 133680, "pitch": 72, "duration": 239, "velocity": 104}, {"time": 133919, "pitch": 70, "duration": 741, "velocity": 106}, {"time": 149283, "pitch": 66, "duration": 498, "velocity": 101}, {"time": 149283, "pitch": 70, "duration": 498, "velocity": 101}, {"time": 149761, "pitch": 68, "duration": 488, "velocity": 104}, {"time": 149761, "pitch": 72, "duration": 498, "velocity": 112}, {"time": 150239, "pitch": 70, "duration": 509, "velocity": 108}, {"time": 150239, "pitch": 73, "duration": 509, "velocity": 108}, {"time": 150718, "pitch": 72, "duration": 455, "velocity": 101}, {"time": 150718, "pitch": 75, "duration": 485, "velocity": 108}, {"time": 151203, "pitch": 70, "duration": 1718, "velocity": 89}, {"time": 151203, "pitch": 77, "duration": 1728, "velocity": 104}, {"time": 153602, "pitch": 58, "duration": 438, "velocity": 95}, {"time": 153602, "pitch": 62, "duration": 458, "velocity": 104}, {"time": 154080, "pitch": 60, "duration": 449, "velocity": 98}, {"time": 154080, "pitch": 63, "duration": 449, "velocity": 101}, {"time": 154559, "pitch": 62, "duration": 448, "velocity": 98}, {"time": 154559, "pitch": 65, "duration": 438, "velocity": 98}, {"time": 155037, "pitch": 63, "duration": 934, "velocity": 95}, {"time": 155037, "pitch": 67, "duration": 1003, "velocity": 98}, {"time": 156001, "pitch": 62, "duration": 887, "velocity": 98}, {"time": 156001, "pitch": 65, "duration": 907, "velocity": 94}, {"time": 157443, "pitch": 62, "duration": 418, "velocity": 96}, {"time": 157443, "pitch": 70, "duration": 428, "velocity": 114}, {"time": 157921, "pitch": 65, "duration": 80, "velocity": 104}, {"time": 157921, "pitch": 69, "duration": 90, "velocity": 108}, {"time": 158160, "pitch": 63, "duration": 90, "velocity": 108}, {"time": 158160, "pitch": 67, "duration": 110, "velocity": 104}, {"time": 158399, "pitch": 60, "duration": 479, "velocity": 98}, {"time": 158399, "pitch": 65, "duration": 240, "velocity": 108}, {"time": 158639, "pitch": 63, "duration": 229, "velocity": 74}, {"time": 158878, "pitch": 62, "duration": 1890, "velocity": 104}, {"time": 158878, "pitch": 65, "duration": 1900, "velocity": 98}, {"time": 161277, "pitch": 62, "duration": 444, "velocity": 95}, {"time": 161277, "pitch": 65, "duration": 444, "velocity": 108}, {"time": 161762, "pitch": 65, "duration": 957, "velocity": 108}, {"time": 161762, "pitch": 70, "duration": 488, "velocity": 108}, {"time": 162240, "pitch": 72, "duration": 469, "velocity": 104}, {"time": 162719, "pitch": 67, "duration": 943, "velocity": 104}, {"time": 162719, "pitch": 70, "duration": 1771, "velocity": 79}, {"time": 163682, "pitch": 65, "duration": 808, "velocity": 102}, {"time": 164639, "pitch": 60, "duration": 189, "velocity": 98}, {"time": 164639, "pitch": 63, "duration": 179, "velocity": 108}, {"time": 164878, "pitch": 62, "duration": 90, "velocity": 98}, {"time": 164878, "pitch": 65, "duration": 90, "velocity": 98}, {"time": 165117, "pitch": 63, "duration": 91, "velocity": 108}, {"time": 165117, "pitch": 67, "duration": 91, "velocity": 104}, {"time": 165360, "pitch": 65, "duration": 462, "velocity": 108}, {"time": 165360, "pitch": 69, "duration": 492, "velocity": 112}, {"time": 165842, "pitch": 67, "duration": 219, "velocity": 108}, {"time": 165842, "pitch": 70, "duration": 249, "velocity": 101}, {"time": 166081, "pitch": 69, "duration": 199, "velocity": 117}, {"time": 166081, "pitch": 72, "duration": 150, "velocity": 108}, {"time": 166320, "pitch": 74, "duration": 180, "velocity": 116}, {"time": 166490, "pitch": 72, "duration": 69, "velocity": 104}, {"time": 166559, "pitch": 74, "duration": 379, "velocity": 108}, {"time": 166938, "pitch": 70, "duration": 70, "velocity": 108}, {"time": 167038, "pitch": 65, "duration": 283, "velocity": 95}, {"time": 167038, "pitch": 70, "duration": 283, "velocity": 95}, {"time": 167281, "pitch": 67, "duration": 242, "velocity": 112}, {"time": 167281, "pitch": 72, "duration": 242, "velocity": 112}, {"time": 167523, "pitch": 70, "duration": 548, "velocity": 112}, {"time": 167523, "pitch": 74, "duration": 548, "velocity": 112}, {"time": 168221, "pitch": 72, "duration": 30, "velocity": 98}, {"time": 168241, "pitch": 74, "duration": 179, "velocity": 117}, {"time": 168400, "pitch": 72, "duration": 80, "velocity": 104}, {"time": 168480, "pitch": 74, "duration": 399, "velocity": 98}, {"time": 168839, "pitch": 70, "duration": 50, "velocity": 108}, {"time": 168958, "pitch": 65, "duration": 289, "velocity": 101}, {"time": 168958, "pitch": 70, "duration": 289, "velocity": 101}, {"time": 169197, "pitch": 67, "duration": 260, "velocity": 108}, {"time": 169197, "pitch": 72, "duration": 260, "velocity": 108}, {"time": 169437, "pitch": 65, "duration": 515, "velocity": 108}, {"time": 169437, "pitch": 70, "duration": 515, "velocity": 108}, {"time": 170161, "pitch": 74, "duration": 180, "velocity": 112}, {"time": 170321, "pitch": 72, "duration": 99, "velocity": 104}, {"time": 170400, "pitch": 74, "duration": 379, "velocity": 115}, {"time": 170759, "pitch": 70, "duration": 60, "velocity": 108}, {"time": 170879, "pitch": 70, "duration": 398, "velocity": 101}, {"time": 171357, "pitch": 68, "duration": 964, "velocity": 108}, {"time": 171357, "pitch": 77, "duration": 263, "velocity": 112}, {"time": 171600, "pitch": 75, "duration": 252, "velocity": 106}, {"time": 171842, "pitch": 74, "duration": 269, "velocity": 108}, {"time": 172082, "pitch": 72, "duration": 239, "velocity": 112}, {"time": 172321, "pitch": 67, "duration": 937, "velocity": 108}, {"time": 172321, "pitch": 74, "duration": 398, "velocity": 112}, {"time": 172699, "pitch": 70, "duration": 60, "velocity": 117}, {"time": 172799, "pitch": 70, "duration": 259, "velocity": 101}, {"time": 173038, "pitch": 72, "duration": 250, "velocity": 108}, {"time": 173278, "pitch": 66, "duration": 495, "velocity": 108}, {"time": 173278, "pitch": 70, "duration": 555, "velocity": 101}, {"time": 173763, "pitch": 68, "duration": 329, "velocity": 108}, {"time": 174002, "pitch": 74, "duration": 209, "velocity": 112}, {"time": 174161, "pitch": 72, "duration": 80, "velocity": 108}, {"time": 174241, "pitch": 72, "duration": 20, "velocity": 108}, {"time": 174241, "pitch": 74, "duration": 339, "velocity": 108}, {"time": 174590, "pitch": 70, "duration": 60, "velocity": 101}, {"time": 174720, "pitch": 65, "duration": 269, "velocity": 108}, {"time": 174720, "pitch": 70, "duration": 269, "velocity": 108}, {"time": 174959, "pitch": 67, "duration": 249, "velocity": 112}, {"time": 174959, "pitch": 72, "duration": 249, "velocity": 112}, {"time": 175198, "pitch": 70, "duration": 665, "velocity": 112}, {"time": 175198, "pitch": 74, "duration": 665, "velocity": 112}, {"time": 175912, "pitch": 72, "duration": 30, "velocity": 92}, {"time": 175922, "pitch": 74, "duration": 190, "velocity": 112}, {"time": 176082, "pitch": 72, "duration": 80, "velocity": 104}, {"time": 176162, "pitch": 72, "duration": 10, "velocity": 104}, {"time": 176162, "pitch": 74, "duration": 398, "velocity": 98}, {"time": 176530, "pitch": 70, "duration": 60, "velocity": 108}, {"time": 176640, "pitch": 65, "duration": 259, "velocity": 101}, {"time": 176640, "pitch": 70, "duration": 259, "velocity": 101}, {"time": 176879, "pitch": 67, "duration": 249, "velocity": 108}, {"time": 176879, "pitch": 72, "duration": 249, "velocity": 108}, {"time": 177118, "pitch": 65, "duration": 641, "velocity": 117}, {"time": 177118, "pitch": 70, "duration": 641, "velocity": 117}, {"time": 177839, "pitch": 74, "duration": 193, "velocity": 112}, {"time": 177991, "pitch": 72, "duration": 91, "velocity": 108}, {"time": 178082, "pitch": 72, "duration": 30, "velocity": 108}, {"time": 178082, "pitch": 74, "duration": 379, "velocity": 108}, {"time": 178451, "pitch": 70, "duration": 60, "velocity": 117}, {"time": 178560, "pitch": 70, "duration": 389, "velocity": 101}, {"time": 179039, "pitch": 68, "duration": 923, "velocity": 110}, {"time": 179039, "pitch": 77, "duration": 239, "velocity": 117}, {"time": 179278, "pitch": 75, "duration": 259, "velocity": 101}, {"time": 179517, "pitch": 74, "duration": 263, "velocity": 108}, {"time": 179760, "pitch": 72, "duration": 222, "velocity": 108}, {"time": 180002, "pitch": 67, "duration": 329, "velocity": 98}, {"time": 180002, "pitch": 74, "duration": 250, "velocity": 117}, {"time": 180242, "pitch": 70, "duration": 99, "velocity": 95}, {"time": 180391, "pitch": 67, "duration": 1400, "velocity": 104}, {"time": 180391, "pitch": 70, "duration": 1400, "velocity": 117}, {"time": 181923, "pitch": 63, "duration": 229, "velocity": 101}, {"time": 181923, "pitch": 66, "duration": 229, "velocity": 112}, {"time": 181923, "pitch": 70, "duration": 249, "velocity": 108}, {"time": 182312, "pitch": 63, "duration": 39, "velocity": 95}, {"time": 182312, "pitch": 66, "duration": 20, "velocity": 108}, {"time": 182312, "pitch": 70, "duration": 39, "velocity": 108}, {"time": 182401, "pitch": 63, "duration": 299, "velocity": 101}, {"time": 182401, "pitch": 66, "duration": 289, "velocity": 117}, {"time": 182401, "pitch": 70, "duration": 309, "velocity": 117}, {"time": 182790, "pitch": 63, "duration": 40, "velocity": 81}, {"time": 182790, "pitch": 66, "duration": 30, "velocity": 98}, {"time": 182790, "pitch": 70, "duration": 50, "velocity": 95}, {"time": 182880, "pitch": 63, "duration": 279, "velocity": 101}, {"time": 182880, "pitch": 66, "duration": 289, "velocity": 112}, {"time": 182880, "pitch": 70, "duration": 299, "velocity": 101}, {"time": 183268, "pitch": 63, "duration": 40, "velocity": 101}, {"time": 183268, "pitch": 66, "duration": 30, "velocity": 112}, {"time": 183268, "pitch": 70, "duration": 40, "velocity": 117}, {"time": 183358, "pitch": 63, "duration": 202, "velocity": 101}, {"time": 183358, "pitch": 66, "duration": 202, "velocity": 108}, {"time": 183358, "pitch": 70, "duration": 212, "velocity": 101}, {"time": 183601, "pitch": 63, "duration": 232, "velocity": 101}, {"time": 183601, "pitch": 66, "duration": 232, "velocity": 108}, {"time": 183601, "pitch": 72, "duration": 232, "velocity": 108}, {"time": 480, "pitch": 50, "duration": 10, "velocity": 100}, {"time": 630, "pitch": 48, "duration": 10, "velocity": 115}, {"time": 869, "pitch": 47, "duration": 10, "velocity": 100}, {"time": 1108, "pitch": 45, "duration": 10, "velocity": 115}, {"time": 1198, "pitch": 43, "duration": 10, "velocity": 94}, {"time": 1437, "pitch": 42, "duration": 10, "velocity": 90}, {"time": 1437, "pitch": 49, "duration": 10, "velocity": 104}, {"time": 1437, "pitch": 70, "duration": 10, "velocity": 64}, {"time": 1437, "pitch": 82, "duration": 10, "velocity": 62}, {"time": 1579, "pitch": 70, "duration": 10, "velocity": 40}, {"time": 1680, "pitch": 42, "duration": 10, "velocity": 85}, {"time": 1680, "pitch": 70, "duration": 10, "velocity": 65}, {"time": 1680, "pitch": 82, "duration": 10, "velocity": 67}, {"time": 1821, "pitch": 70, "duration": 10, "velocity": 40}, {"time": 1912, "pitch": 82, "duration": 10, "velocity": 70}, {"time": 1922, "pitch": 38, "duration": 10, "velocity": 112}, {"time": 1922, "pitch": 39, "duration": 10, "velocity": 113}, {"time": 1922, "pitch": 42, "duration": 10, "velocity": 90}, {"time": 1922, "pitch": 70, "duration": 10, "velocity": 65}, {"time": 2062, "pitch": 70, "duration": 10, "velocity": 40}, {"time": 2152, "pitch": 62, "duration": 10, "velocity": 91}, {"time": 2152, "pitch": 82, "duration": 10, "velocity": 69}, {"time": 2162, "pitch": 42, "duration": 10, "velocity": 85}, {"time": 2162, "pitch": 70, "duration": 10, "velocity": 65}, {"time": 2301, "pitch": 62, "duration": 10, "velocity": 113}, {"time": 2301, "pitch": 70, "duration": 10, "velocity": 40}, {"time": 2401, "pitch": 42, "duration": 10, "velocity": 90}, {"time": 2401, "pitch": 70, "duration": 10, "velocity": 65}, {"time": 2401, "pitch": 82, "duration": 10, "velocity": 71}, {"time": 2540, "pitch": 70, "duration": 10, "velocity": 40}, {"time": 2630, "pitch": 82, "duration": 10, "velocity": 60}, {"time": 2640, "pitch": 42, "duration": 10, "velocity": 85}, {"time": 2640, "pitch": 70, "duration": 10, "velocity": 65}, {"time": 2780, "pitch": 70, "duration": 10, "velocity": 40}, {"time": 2869, "pitch": 82, "duration": 10, "velocity": 65}, {"time": 2879, "pitch": 38, "duration": 10, "velocity": 112}, {"time": 2879, "pitch": 39, "duration": 10, "velocity": 113}, {"time": 2879, "pitch": 42, "duration": 10, "velocity": 90}, {"time": 2879, "pitch": 70, "duration": 10, "velocity": 65}, {"time": 3019, "pitch": 70, "duration": 10, "velocity": 40}, {"time": 3108, "pitch": 63, "duration": 10, "velocity": 87}, {"time": 3118, "pitch": 42, "duration": 10, "velocity": 85}, {"time": 3118, "pitch": 70, "duration": 10, "velocity": 65}, {"time": 3118, "pitch": 82, "duration": 10, "velocity": 67}, {"time": 3258, "pitch": 63, "duration": 10, "velocity": 107}, {"time": 3258, "pitch": 70, "duration": 10, "velocity": 40}, {"time": 3358, "pitch": 42, "duration": 10, "velocity": 90}, {"time": 3358, "pitch": 70, "duration": 10, "velocity": 65}, {"time": 3358, "pitch": 82, "duration": 10, "velocity": 62}, {"time": 3499, "pitch": 70, "duration": 10, "velocity": 40}, {"time": 3600, "pitch": 42, "duration": 10, "velocity": 85}, {"time": 3600, "pitch": 70, "duration": 10, "velocity": 65}, {"time": 3600, "pitch": 82, "duration": 10, "velocity": 67}, {"time": 3742, "pitch": 70, "duration": 10, "velocity": 40}, {"time": 3833, "pitch": 82, "duration": 10, "velocity": 70}, {"time": 3843, "pitch": 38, "duration": 10, "velocity": 112}, {"time": 3843, "pitch": 39, "duration": 10, "velocity": 113}, {"time": 3843, "pitch": 42, "duration": 10, "velocity": 90}, {"time": 3843, "pitch": 70, "duration": 10, "velocity": 65}, {"time": 3982, "pitch": 70, "duration": 10, "velocity": 40}, {"time": 4072, "pitch": 62, "duration": 10, "velocity": 88}, {"time": 4072, "pitch": 82, "duration": 10, "velocity": 69}, {"time": 4082, "pitch": 42, "duration": 10, "velocity": 85}, {"time": 4082, "pitch": 70, "duration": 10, "velocity": 65}, {"time": 4222, "pitch": 62, "duration": 10, "velocity": 119}, {"time": 4222, "pitch": 70, "duration": 10, "velocity": 40}, {"time": 4321, "pitch": 42, "duration": 10, "velocity": 90}, {"time": 4321, "pitch": 70, "duration": 10, "velocity": 65}, {"time": 4321, "pitch": 82, "duration": 10, "velocity": 71}, {"time": 4461, "pitch": 70, "duration": 10, "velocity": 40}, {"time": 4551, "pitch": 82, "duration": 9, "velocity": 60}, {"time": 4560, "pitch": 42, "duration": 10, "velocity": 85}, {"time": 4560, "pitch": 70, "duration": 10, "velocity": 65}, {"time": 4700, "pitch": 70, "duration": 10, "velocity": 40}, {"time": 4790, "pitch": 82, "duration": 10, "velocity": 65}, {"time": 4800, "pitch": 38, "duration": 10, "velocity": 112}, {"time": 4800, "pitch": 39, "duration": 10, "velocity": 113}, {"time": 4800, "pitch": 42, "duration": 10, "velocity": 90}, {"time": 4800, "pitch": 70, "duration": 10, "velocity": 65}, {"time": 4939, "pitch": 70, "duration": 10, "velocity": 40}, {"time": 4949, "pitch": 64, "duration": 10, "velocity": 114}, {"time": 5039, "pitch": 42, "duration": 10, "velocity": 85}, {"time": 5039, "pitch": 70, "duration": 10, "velocity": 65}, {"time": 5039, "pitch": 82, "duration": 10, "velocity": 67}, {"time": 5178, "pitch": 70, "duration": 10, "velocity": 40}, {"time": 5278, "pitch": 42, "duration": 10, "velocity": 90}, {"time": 5278, "pitch": 70, "duration": 10, "velocity": 65}, {"time": 5278, "pitch": 82, "duration": 10, "velocity": 62}, {"time": 5420, "pitch": 70, "duration": 10, "velocity": 40}, {"time": 5521, "pitch": 42, "duration": 10, "velocity": 85}, {"time": 5521, "pitch": 70, "duration": 10, "velocity": 65}, {"time": 5521, "pitch": 82, "duration": 10, "velocity": 67}, {"time": 5662, "pitch": 70, "duration": 10, "velocity": 40}, {"time": 5753, "pitch": 82, "duration": 10, "velocity": 70}, {"time": 5763, "pitch": 38, "duration": 10, "velocity": 112}, {"time": 5763, "pitch": 39, "duration": 10, "velocity": 113}, {"time": 5763, "pitch": 42, "duration": 10, "velocity": 90}, {"time": 5763, "pitch": 70, "duration": 10, "velocity": 65}, {"time": 5903, "pitch": 70, "duration": 10, "velocity": 40}, {"time": 5993, "pitch": 62, "duration": 10, "velocity": 91}, {"time": 5993, "pitch": 82, "duration": 10, "velocity": 69}, {"time": 6003, "pitch": 42, "duration": 9, "velocity": 85}, {"time": 6003, "pitch": 70, "duration": 9, "velocity": 65}, {"time": 6142, "pitch": 62, "duration": 10, "velocity": 119}, {"time": 6142, "pitch": 70, "duration": 10, "velocity": 40}, {"time": 6242, "pitch": 42, "duration": 10, "velocity": 90}, {"time": 6242, "pitch": 70, "duration": 10, "velocity": 65}, {"time": 6242, "pitch": 82, "duration": 10, "velocity": 71}, {"time": 6381, "pitch": 70, "duration": 10, "velocity": 40}, {"time": 6471, "pitch": 82, "duration": 10, "velocity": 60}, {"time": 6481, "pitch": 42, "duration": 10, "velocity": 85}, {"time": 6481, "pitch": 70, "duration": 10, "velocity": 65}, {"time": 6620, "pitch": 70, "duration": 10, "velocity": 40}, {"time": 6710, "pitch": 82, "duration": 10, "velocity": 65}, {"time": 6720, "pitch": 38, "duration": 10, "velocity": 112}, {"time": 6720, "pitch": 39, "duration": 10, "velocity": 113}, {"time": 6720, "pitch": 42, "duration": 10, "velocity": 90}, {"time": 6720, "pitch": 70, "duration": 10, "velocity": 65}, {"time": 6860, "pitch": 70, "duration": 10, "velocity": 40}, {"time": 6949, "pitch": 63, "duration": 10, "velocity": 82}, {"time": 6959, "pitch": 42, "duration": 10, "velocity": 85}, {"time": 6959, "pitch": 70, "duration": 10, "velocity": 65}, {"time": 6959, "pitch": 82, "duration": 10, "velocity": 67}, {"time": 7099, "pitch": 63, "duration": 10, "velocity": 107}, {"time": 7099, "pitch": 70, "duration": 10, "velocity": 40}, {"time": 7189, "pitch": 82, "duration": 9, "velocity": 63}, {"time": 7198, "pitch": 42, "duration": 10, "velocity": 90}, {"time": 7198, "pitch": 70, "duration": 10, "velocity": 65}, {"time": 7198, "pitch": 82, "duration": 10, "velocity": 63}, {"time": 7338, "pitch": 70, "duration": 10, "velocity": 40}, {"time": 7428, "pitch": 82, "duration": 10, "velocity": 69}, {"time": 7438, "pitch": 42, "duration": 10, "velocity": 85}, {"time": 7438, "pitch": 70, "duration": 10, "velocity": 65}, {"time": 7577, "pitch": 70, "duration": 10, "velocity": 40}, {"time": 7677, "pitch": 38, "duration": 10, "velocity": 112}, {"time": 7677, "pitch": 39, "duration": 10, "velocity": 113}, {"time": 7677, "pitch": 42, "duration": 10, "velocity": 90}, {"time": 7677, "pitch": 70, "duration": 10, "velocity": 65}, {"time": 7677, "pitch": 82, "duration": 10, "velocity": 58}, {"time": 7818, "pitch": 70, "duration": 10, "velocity": 40}, {"time": 7909, "pitch": 62, "duration": 10, "velocity": 86}, {"time": 7909, "pitch": 82, "duration": 10, "velocity": 74}, {"time": 7919, "pitch": 42, "duration": 11, "velocity": 85}, {"time": 7919, "pitch": 70, "duration": 11, "velocity": 65}, {"time": 8061, "pitch": 38, "duration": 10, "velocity": 92}, {"time": 8061, "pitch": 62, "duration": 10, "velocity": 119}, {"time": 8061, "pitch": 70, "duration": 10, "velocity": 40}, {"time": 8152, "pitch": 82, "duration": 10, "velocity": 75}, {"time": 8162, "pitch": 42, "duration": 10, "velocity": 90}, {"time": 8162, "pitch": 70, "duration": 10, "velocity": 65}, {"time": 8302, "pitch": 70, "duration": 10, "velocity": 40}, {"time": 8391, "pitch": 63, "duration": 10, "velocity": 91}, {"time": 8391, "pitch": 82, "duration": 10, "velocity": 60}, {"time": 8401, "pitch": 42, "duration": 10, "velocity": 85}, {"time": 8401, "pitch": 70, "duration": 10, "velocity": 65}, {"time": 8541, "pitch": 70, "duration": 10, "velocity": 40}, {"time": 8641, "pitch": 38, "duration": 9, "velocity": 112}, {"time": 8641, "pitch": 39, "duration": 9, "velocity": 113}, {"time": 8641, "pitch": 42, "duration": 9, "velocity": 90}, {"time": 8641, "pitch": 70, "duration": 9, "velocity": 65}, {"time": 8641, "pitch": 82, "duration": 9, "velocity": 70}, {"time": 8780, "pitch": 70, "duration": 10, "velocity": 40}, {"time": 8790, "pitch": 64, "duration": 10, "velocity": 122}, {"time": 8880, "pitch": 42, "duration": 10, "velocity": 85}, {"time": 8880, "pitch": 55, "duration": 10, "velocity": 124}, {"time": 8880, "pitch": 70, "duration": 10, "velocity": 65}, {"time": 8880, "pitch": 82, "duration": 10, "velocity": 75}, {"time": 9019, "pitch": 70, "duration": 10, "velocity": 40}, {"time": 9119, "pitch": 42, "duration": 10, "velocity": 90}, {"time": 9119, "pitch": 49, "duration": 10, "velocity": 104}, {"time": 9119, "pitch": 70, "duration": 10, "velocity": 65}, {"time": 9119, "pitch": 82, "duration": 10, "velocity": 62}, {"time": 9258, "pitch": 70, "duration": 10, "velocity": 40}, {"time": 9358, "pitch": 42, "duration": 10, "velocity": 85}, {"time": 9358, "pitch": 70, "duration": 10, "velocity": 65}, {"time": 9358, "pitch": 82, "duration": 10, "velocity": 70}, {"time": 9498, "pitch": 70, "duration": 10, "velocity": 40}, {"time": 9597, "pitch": 38, "duration": 10, "velocity": 112}, {"time": 9597, "pitch": 39, "duration": 10, "velocity": 113}, {"time": 9597, "pitch": 42, "duration": 10, "velocity": 90}, {"time": 9597, "pitch": 70, "duration": 10, "velocity": 65}, {"time": 9597, "pitch": 82, "duration": 10, "velocity": 71}, {"time": 9739, "pitch": 70, "duration": 10, "velocity": 40}, {"time": 9830, "pitch": 62, "duration": 10, "velocity": 91}, {"time": 9830, "pitch": 82, "duration": 10, "velocity": 68}, {"time": 9840, "pitch": 42, "duration": 10, "velocity": 85}, {"time": 9840, "pitch": 70, "duration": 10, "velocity": 65}, {"time": 9981, "pitch": 62, "duration": 11, "velocity": 113}, {"time": 9981, "pitch": 70, "duration": 11, "velocity": 40}, {"time": 10072, "pitch": 82, "duration": 11, "velocity": 66}, {"time": 10083, "pitch": 42, "duration": 10, "velocity": 90}, {"time": 10083, "pitch": 70, "duration": 10, "velocity": 65}, {"time": 10222, "pitch": 70, "duration": 10, "velocity": 40}, {"time": 10312, "pitch": 82, "duration": 10, "velocity": 67}, {"time": 10322, "pitch": 42, "duration": 10, "velocity": 85}, {"time": 10322, "pitch": 70, "duration": 10, "velocity": 65}, {"time": 10461, "pitch": 70, "duration": 10, "velocity": 40}, {"time": 10561, "pitch": 38, "duration": 10, "velocity": 112}, {"time": 10561, "pitch": 39, "duration": 10, "velocity": 113}, {"time": 10561, "pitch": 42, "duration": 10, "velocity": 90}, {"time": 10561, "pitch": 70, "duration": 10, "velocity": 65}, {"time": 10561, "pitch": 82, "duration": 10, "velocity": 69}, {"time": 10700, "pitch": 70, "duration": 10, "velocity": 40}, {"time": 10790, "pitch": 63, "duration": 10, "velocity": 87}, {"time": 10800, "pitch": 42, "duration": 10, "velocity": 85}, {"time": 10800, "pitch": 70, "duration": 10, "velocity": 65}, {"time": 10800, "pitch": 82, "duration": 10, "velocity": 66}, {"time": 10940, "pitch": 63, "duration": 10, "velocity": 107}, {"time": 10940, "pitch": 70, "duration": 10, "velocity": 40}, {"time": 11039, "pitch": 42, "duration": 10, "velocity": 90}, {"time": 11039, "pitch": 70, "duration": 10, "velocity": 65}, {"time": 11039, "pitch": 82, "duration": 10, "velocity": 73}, {"time": 11179, "pitch": 70, "duration": 10, "velocity": 40}, {"time": 11269, "pitch": 82, "duration": 10, "velocity": 59}, {"time": 11279, "pitch": 42, "duration": 9, "velocity": 85}, {"time": 11279, "pitch": 70, "duration": 9, "velocity": 65}, {"time": 11418, "pitch": 70, "duration": 10, "velocity": 40}, {"time": 11518, "pitch": 38, "duration": 10, "velocity": 112}, {"time": 11518, "pitch": 39, "duration": 10, "velocity": 113}, {"time": 11518, "pitch": 42, "duration": 10, "velocity": 90}, {"time": 11518, "pitch": 70, "duration": 10, "velocity": 65}, {"time": 11518, "pitch": 82, "duration": 10, "velocity": 63}, {"time": 11659, "pitch": 70, "duration": 10, "velocity": 40}, {"time": 11750, "pitch": 62, "duration": 10, "velocity": 88}, {"time": 11760, "pitch": 42, "duration": 10, "velocity": 85}, {"time": 11760, "pitch": 70, "duration": 10, "velocity": 65}, {"time": 11760, "pitch": 82, "duration": 10, "velocity": 60}, {"time": 11902, "pitch": 62, "duration": 10, "velocity": 119}, {"time": 11902, "pitch": 70, "duration": 10, "velocity": 40}, {"time": 11993, "pitch": 82, "duration": 10, "velocity": 74}, {"time": 12003, "pitch": 42, "duration": 10, "velocity": 90}, {"time": 12003, "pitch": 70, "duration": 10, "velocity": 65}, {"time": 12143, "pitch": 70, "duration": 9, "velocity": 40}, {"time": 12232, "pitch": 82, "duration": 10, "velocity": 63}, {"time": 12242, "pitch": 42, "duration": 10, "velocity": 85}, {"time": 12242, "pitch": 70, "duration": 10, "velocity": 65}, {"time": 12382, "pitch": 70, "duration": 10, "velocity": 40}, {"time": 12481, "pitch": 38, "duration": 10, "velocity": 112}, {"time": 12481, "pitch": 39, "duration": 10, "velocity": 113}, {"time": 12481, "pitch": 42, "duration": 10, "velocity": 90}, {"time": 12481, "pitch": 70, "duration": 10, "velocity": 65}, {"time": 12481, "pitch": 82, "duration": 10, "velocity": 68}, {"time": 12621, "pitch": 70, "duration": 10, "velocity": 40}, {"time": 12631, "pitch": 64, "duration": 10, "velocity": 114}, {"time": 12711, "pitch": 82, "duration": 10, "velocity": 60}, {"time": 12721, "pitch": 42, "duration": 10, "velocity": 85}, {"time": 12721, "pitch": 70, "duration": 10, "velocity": 65}, {"time": 12860, "pitch": 70, "duration": 10, "velocity": 40}, {"time": 12960, "pitch": 42, "duration": 10, "velocity": 90}, {"time": 12960, "pitch": 70, "duration": 10, "velocity": 65}, {"time": 12960, "pitch": 82, "duration": 10, "velocity": 62}, {"time": 13099, "pitch": 70, "duration": 10, "velocity": 40}, {"time": 13199, "pitch": 42, "duration": 10, "velocity": 85}, {"time": 13199, "pitch": 70, "duration": 10, "velocity": 65}, {"time": 13199, "pitch": 82, "duration": 10, "velocity": 67}, {"time": 13338, "pitch": 70, "duration": 10, "velocity": 40}, {"time": 13428, "pitch": 82, "duration": 10, "velocity": 70}, {"time": 13438, "pitch": 38, "duration": 10, "velocity": 112}, {"time": 13438, "pitch": 39, "duration": 10, "velocity": 113}, {"time": 13438, "pitch": 42, "duration": 10, "velocity": 90}, {"time": 13438, "pitch": 70, "duration": 10, "velocity": 65}, {"time": 13580, "pitch": 70, "duration": 10, "velocity": 40}, {"time": 13671, "pitch": 62, "duration": 10, "velocity": 91}, {"time": 13671, "pitch": 82, "duration": 10, "velocity": 69}, {"time": 13681, "pitch": 42, "duration": 10, "velocity": 85}, {"time": 13681, "pitch": 70, "duration": 10, "velocity": 65}, {"time": 13822, "pitch": 62, "duration": 10, "velocity": 119}, {"time": 13822, "pitch": 70, "duration": 10, "velocity": 40}, {"time": 13923, "pitch": 42, "duration": 10, "velocity": 90}, {"time": 13923, "pitch": 70, "duration": 10, "velocity": 65}, {"time": 13923, "pitch": 82, "duration": 10, "velocity": 71}, {"time": 14063, "pitch": 70, "duration": 10, "velocity": 40}, {"time": 14153, "pitch": 82, "duration": 10, "velocity": 60}, {"time": 14163, "pitch": 42, "duration": 10, "velocity": 85}, {"time": 14163, "pitch": 70, "duration": 10, "velocity": 65}, {"time": 14302, "pitch": 70, "duration": 10, "velocity": 40}, {"time": 14392, "pitch": 82, "duration": 10, "velocity": 65}, {"time": 14402, "pitch": 38, "duration": 10, "velocity": 112}, {"time": 14402, "pitch": 39, "duration": 10, "velocity": 113}, {"time": 14402, "pitch": 42, "duration": 10, "velocity": 90}, {"time": 14402, "pitch": 70, "duration": 10, "velocity": 65}, {"time": 14541, "pitch": 70, "duration": 10, "velocity": 40}, {"time": 14631, "pitch": 63, "duration": 10, "velocity": 82}, {"time": 14641, "pitch": 42, "duration": 10, "velocity": 85}, {"time": 14641, "pitch": 70, "duration": 10, "velocity": 65}, {"time": 14641, "pitch": 82, "duration": 10, "velocity": 67}, {"time": 14781, "pitch": 63, "duration": 9, "velocity": 107}, {"time": 14781, "pitch": 70, "duration": 9, "velocity": 40}, {"time": 14870, "pitch": 82, "duration": 10, "velocity": 63}, {"time": 14880, "pitch": 42, "duration": 10, "velocity": 90}, {"time": 14880, "pitch": 70, "duration": 10, "velocity": 65}, {"time": 14880, "pitch": 82, "duration": 10, "velocity": 63}, {"time": 15020, "pitch": 70, "duration": 10, "velocity": 40}, {"time": 15109, "pitch": 82, "duration": 10, "velocity": 69}, {"time": 15119, "pitch": 42, "duration": 10, "velocity": 85}, {"time": 15119, "pitch": 70, "duration": 10, "velocity": 65}, {"time": 15259, "pitch": 70, "duration": 10, "velocity": 40}, {"time": 15359, "pitch": 38, "duration": 10, "velocity": 112}, {"time": 15359, "pitch": 39, "duration": 10, "velocity": 113}, {"time": 15359, "pitch": 42, "duration": 10, "velocity": 90}, {"time": 15359, "pitch": 70, "duration": 10, "velocity": 65}, {"time": 15359, "pitch": 82, "duration": 10, "velocity": 58}, {"time": 15498, "pitch": 70, "duration": 10, "velocity": 40}, {"time": 15588, "pitch": 62, "duration": 10, "velocity": 86}, {"time": 15588, "pitch": 82, "duration": 10, "velocity": 74}, {"time": 15598, "pitch": 42, "duration": 10, "velocity": 85}, {"time": 15598, "pitch": 70, "duration": 10, "velocity": 65}, {"time": 15737, "pitch": 38, "duration": 10, "velocity": 92}, {"time": 15737, "pitch": 62, "duration": 10, "velocity": 119}, {"time": 15737, "pitch": 70, "duration": 10, "velocity": 40}, {"time": 15827, "pitch": 82, "duration": 10, "velocity": 75}, {"time": 15837, "pitch": 42, "duration": 10, "velocity": 90}, {"time": 15837, "pitch": 70, "duration": 10, "velocity": 65}, {"time": 15978, "pitch": 70, "duration": 11, "velocity": 40}, {"time": 16069, "pitch": 63, "duration": 11, "velocity": 91}, {"time": 16069, "pitch": 82, "duration": 11, "velocity": 60}, {"time": 16080, "pitch": 42, "duration": 10, "velocity": 85}, {"time": 16080, "pitch": 70, "duration": 10, "velocity": 65}, {"time": 16221, "pitch": 70, "duration": 10, "velocity": 40}, {"time": 16322, "pitch": 38, "duration": 10, "velocity": 112}, {"time": 16322, "pitch": 39, "duration": 10, "velocity": 113}, {"time": 16322, "pitch": 42, "duration": 10, "velocity": 90}, {"time": 16322, "pitch": 70, "duration": 10, "velocity": 65}, {"time": 16322, "pitch": 82, "duration": 10, "velocity": 70}, {"time": 16462, "pitch": 70, "duration": 10, "velocity": 40}, {"time": 16472, "pitch": 64, "duration": 10, "velocity": 122}, {"time": 16561, "pitch": 40, "duration": 10, "velocity": 122}, {"time": 16561, "pitch": 42, "duration": 10, "velocity": 85}, {"time": 16561, "pitch": 55, "duration": 10, "velocity": 124}, {"time": 16561, "pitch": 70, "duration": 10, "velocity": 65}, {"time": 16561, "pitch": 82, "duration": 10, "velocity": 75}, {"time": 16701, "pitch": 70, "duration": 10, "velocity": 40}, {"time": 16801, "pitch": 49, "duration": 10, "velocity": 104}, {"time": 16801, "pitch": 82, "duration": 10, "velocity": 62}, {"time": 17040, "pitch": 82, "duration": 10, "velocity": 67}, {"time": 17269, "pitch": 82, "duration": 10, "velocity": 70}, {"time": 17508, "pitch": 62, "duration": 10, "velocity": 91}, {"time": 17508, "pitch": 82, "duration": 10, "velocity": 69}, {"time": 17658, "pitch": 62, "duration": 10, "velocity": 113}, {"time": 17757, "pitch": 82, "duration": 10, "velocity": 71}, {"time": 17990, "pitch": 82, "duration": 10, "velocity": 60}, {"time": 18233, "pitch": 82, "duration": 10, "velocity": 65}, {"time": 18472, "pitch": 63, "duration": 10, "velocity": 87}, {"time": 18482, "pitch": 82, "duration": 10, "velocity": 67}, {"time": 18621, "pitch": 63, "duration": 10, "velocity": 107}, {"time": 18721, "pitch": 82, "duration": 10, "velocity": 62}, {"time": 18960, "pitch": 82, "duration": 10, "velocity": 67}, {"time": 19189, "pitch": 82, "duration": 10, "velocity": 70}, {"time": 19429, "pitch": 62, "duration": 10, "velocity": 88}, {"time": 19429, "pitch": 82, "duration": 10, "velocity": 69}, {"time": 19578, "pitch": 62, "duration": 10, "velocity": 119}, {"time": 19678, "pitch": 82, "duration": 10, "velocity": 71}, {"time": 19910, "pitch": 82, "duration": 10, "velocity": 60}, {"time": 20153, "pitch": 82, "duration": 10, "velocity": 65}, {"time": 20313, "pitch": 64, "duration": 10, "velocity": 114}, {"time": 20402, "pitch": 82, "duration": 10, "velocity": 67}, {"time": 20641, "pitch": 42, "duration": 10, "velocity": 90}, {"time": 20641, "pitch": 82, "duration": 10, "velocity": 62}, {"time": 20881, "pitch": 42, "duration": 10, "velocity": 85}, {"time": 20881, "pitch": 82, "duration": 10, "velocity": 67}, {"time": 21110, "pitch": 82, "duration": 10, "velocity": 70}, {"time": 21120, "pitch": 38, "duration": 10, "velocity": 112}, {"time": 21120, "pitch": 42, "duration": 10, "velocity": 90}, {"time": 21349, "pitch": 62, "duration": 10, "velocity": 91}, {"time": 21349, "pitch": 82, "duration": 10, "velocity": 69}, {"time": 21359, "pitch": 42, "duration": 10, "velocity": 85}, {"time": 21499, "pitch": 62, "duration": 10, "velocity": 119}, {"time": 21598, "pitch": 42, "duration": 10, "velocity": 90}, {"time": 21598, "pitch": 82, "duration": 10, "velocity": 71}, {"time": 21827, "pitch": 82, "duration": 10, "velocity": 60}, {"time": 21837, "pitch": 42, "duration": 10, "velocity": 85}, {"time": 22067, "pitch": 82, "duration": 10, "velocity": 65}, {"time": 22077, "pitch": 38, "duration": 10, "velocity": 112}, {"time": 22077, "pitch": 42, "duration": 10, "velocity": 90}, {"time": 22309, "pitch": 63, "duration": 10, "velocity": 82}, {"time": 22319, "pitch": 42, "duration": 10, "velocity": 85}, {"time": 22319, "pitch": 82, "duration": 10, "velocity": 67}, {"time": 22461, "pitch": 63, "duration": 10, "velocity": 107}, {"time": 22552, "pitch": 82, "duration": 10, "velocity": 63}, {"time": 22562, "pitch": 42, "duration": 10, "velocity": 90}, {"time": 22562, "pitch": 82, "duration": 10, "velocity": 63}, {"time": 22791, "pitch": 82, "duration": 10, "velocity": 69}, {"time": 22801, "pitch": 42, "duration": 10, "velocity": 85}, {"time": 23040, "pitch": 38, "duration": 10, "velocity": 112}, {"time": 23040, "pitch": 42, "duration": 10, "velocity": 90}, {"time": 23040, "pitch": 82, "duration": 10, "velocity": 58}, {"time": 23270, "pitch": 62, "duration": 9, "velocity": 86}, {"time": 23270, "pitch": 82, "duration": 9, "velocity": 74}, {"time": 23279, "pitch": 42, "duration": 10, "velocity": 85}, {"time": 23419, "pitch": 38, "duration": 10, "velocity": 92}, {"time": 23419, "pitch": 62, "duration": 10, "velocity": 119}, {"time": 23509, "pitch": 82, "duration": 10, "velocity": 75}, {"time": 23519, "pitch": 42, "duration": 10, "velocity": 90}, {"time": 23748, "pitch": 63, "duration": 10, "velocity": 91}, {"time": 23748, "pitch": 82, "duration": 10, "velocity": 60}, {"time": 23758, "pitch": 42, "duration": 10, "velocity": 85}, {"time": 23997, "pitch": 38, "duration": 10, "velocity": 112}, {"time": 23997, "pitch": 42, "duration": 10, "velocity": 90}, {"time": 23997, "pitch": 82, "duration": 10, "velocity": 70}, {"time": 24149, "pitch": 64, "duration": 10, "velocity": 122}, {"time": 24240, "pitch": 42, "duration": 10, "velocity": 85}, {"time": 24240, "pitch": 55, "duration": 10, "velocity": 124}, {"time": 24240, "pitch": 82, "duration": 10, "velocity": 75}, {"time": 24482, "pitch": 49, "duration": 10, "velocity": 104}, {"time": 24482, "pitch": 82, "duration": 10, "velocity": 62}, {"time": 24722, "pitch": 82, "duration": 9, "velocity": 70}, {"time": 24961, "pitch": 82, "duration": 10, "velocity": 71}, {"time": 25190, "pitch": 62, "duration": 10, "velocity": 91}, {"time": 25190, "pitch": 82, "duration": 10, "velocity": 68}, {"time": 25339, "pitch": 62, "duration": 10, "velocity": 113}, {"time": 25429, "pitch": 82, "duration": 10, "velocity": 66}, {"time": 25668, "pitch": 82, "duration": 10, "velocity": 67}, {"time": 25917, "pitch": 82, "duration": 11, "velocity": 69}, {"time": 26150, "pitch": 63, "duration": 10, "velocity": 87}, {"time": 26160, "pitch": 82, "duration": 10, "velocity": 66}, {"time": 26302, "pitch": 63, "duration": 10, "velocity": 107}, {"time": 26403, "pitch": 82, "duration": 10, "velocity": 73}, {"time": 26632, "pitch": 82, "duration": 10, "velocity": 59}, {"time": 26881, "pitch": 82, "duration": 10, "velocity": 63}, {"time": 27110, "pitch": 62, "duration": 10, "velocity": 88}, {"time": 27120, "pitch": 82, "duration": 10, "velocity": 60}, {"time": 27260, "pitch": 62, "duration": 10, "velocity": 119}, {"time": 27350, "pitch": 82, "duration": 10, "velocity": 74}, {"time": 27589, "pitch": 82, "duration": 10, "velocity": 63}, {"time": 27838, "pitch": 82, "duration": 10, "velocity": 68}, {"time": 27990, "pitch": 64, "duration": 10, "velocity": 114}, {"time": 28070, "pitch": 82, "duration": 11, "velocity": 60}, {"time": 28323, "pitch": 42, "duration": 10, "velocity": 90}, {"time": 28323, "pitch": 82, "duration": 10, "velocity": 62}, {"time": 28562, "pitch": 42, "duration": 10, "velocity": 85}, {"time": 28562, "pitch": 82, "duration": 10, "velocity": 67}, {"time": 28792, "pitch": 82, "duration": 10, "velocity": 70}, {"time": 28802, "pitch": 38, "duration": 10, "velocity": 112}, {"time": 28802, "pitch": 42, "duration": 10, "velocity": 90}, {"time": 29031, "pitch": 62, "duration": 10, "velocity": 91}, {"time": 29031, "pitch": 82, "duration": 10, "velocity": 69}, {"time": 29041, "pitch": 42, "duration": 10, "velocity": 85}, {"time": 29180, "pitch": 62, "duration": 10, "velocity": 119}, {"time": 29280, "pitch": 42, "duration": 10, "velocity": 90}, {"time": 29280, "pitch": 82, "duration": 10, "velocity": 71}, {"time": 29509, "pitch": 82, "duration": 10, "velocity": 60}, {"time": 29519, "pitch": 42, "duration": 10, "velocity": 85}, {"time": 29748, "pitch": 82, "duration": 10, "velocity": 65}, {"time": 29758, "pitch": 38, "duration": 10, "velocity": 112}, {"time": 29758, "pitch": 42, "duration": 10, "velocity": 90}, {"time": 29988, "pitch": 63, "duration": 10, "velocity": 82}, {"time": 29998, "pitch": 42, "duration": 9, "velocity": 85}, {"time": 29998, "pitch": 82, "duration": 9, "velocity": 67}, {"time": 30137, "pitch": 63, "duration": 10, "velocity": 107}, {"time": 30227, "pitch": 82, "duration": 10, "velocity": 63}, {"time": 30237, "pitch": 42, "duration": 10, "velocity": 90}, {"time": 30237, "pitch": 82, "duration": 10, "velocity": 63}, {"time": 30469, "pitch": 82, "duration": 10, "velocity": 69}, {"time": 30479, "pitch": 42, "duration": 10, "velocity": 85}, {"time": 30722, "pitch": 38, "duration": 10, "velocity": 112}, {"time": 30722, "pitch": 42, "duration": 10, "velocity": 90}, {"time": 30722, "pitch": 82, "duration": 10, "velocity": 58}, {"time": 30951, "pitch": 62, "duration": 10, "velocity": 86}, {"time": 30951, "pitch": 82, "duration": 10, "velocity": 74}, {"time": 30961, "pitch": 42, "duration": 10, "velocity": 85}, {"time": 31101, "pitch": 62, "duration": 10, "velocity": 119}, {"time": 31190, "pitch": 82, "duration": 10, "velocity": 75}, {"time": 31200, "pitch": 38, "duration": 10, "velocity": 112}, {"time": 31200, "pitch": 42, "duration": 10, "velocity": 90}, {"time": 31430, "pitch": 63, "duration": 10, "velocity": 91}, {"time": 31430, "pitch": 82, "duration": 10, "velocity": 60}, {"time": 31440, "pitch": 42, "duration": 10, "velocity": 85}, {"time": 31679, "pitch": 38, "duration": 10, "velocity": 112}, {"time": 31679, "pitch": 42, "duration": 10, "velocity": 90}, {"time": 31679, "pitch": 82, "duration": 10, "velocity": 70}, {"time": 31828, "pitch": 64, "duration": 10, "velocity": 122}, {"time": 31918, "pitch": 40, "duration": 10, "velocity": 122}, {"time": 31918, "pitch": 42, "duration": 10, "velocity": 85}, {"time": 31918, "pitch": 55, "duration": 10, "velocity": 124}, {"time": 31918, "pitch": 82, "duration": 10, "velocity": 75}, {"time": 32157, "pitch": 42, "duration": 10, "velocity": 90}, {"time": 32157, "pitch": 49, "duration": 10, "velocity": 104}, {"time": 32157, "pitch": 70, "duration": 10, "velocity": 65}, {"time": 32157, "pitch": 82, "duration": 10, "velocity": 62}, {"time": 32299, "pitch": 70, "duration": 10, "velocity": 40}, {"time": 32400, "pitch": 42, "duration": 10, "velocity": 85}, {"time": 32400, "pitch": 70, "duration": 10, "velocity": 65}, {"time": 32400, "pitch": 82, "duration": 10, "velocity": 67}, {"time": 32541, "pitch": 70, "duration": 10, "velocity": 40}, {"time": 32632, "pitch": 82, "duration": 10, "velocity": 70}, {"time": 32642, "pitch": 38, "duration": 10, "velocity": 112}, {"time": 32642, "pitch": 39, "duration": 10, "velocity": 113}, {"time": 32642, "pitch": 42, "duration": 10, "velocity": 90}, {"time": 32642, "pitch": 70, "duration": 10, "velocity": 65}, {"time": 32782, "pitch": 70, "duration": 10, "velocity": 40}, {"time": 32872, "pitch": 62, "duration": 10, "velocity": 91}, {"time": 32872, "pitch": 82, "duration": 10, "velocity": 69}, {"time": 32882, "pitch": 42, "duration": 10, "velocity": 85}, {"time": 32882, "pitch": 70, "duration": 10, "velocity": 65}, {"time": 33021, "pitch": 62, "duration": 10, "velocity": 113}, {"time": 33021, "pitch": 70, "duration": 10, "velocity": 40}, {"time": 33121, "pitch": 42, "duration": 10, "velocity": 90}, {"time": 33121, "pitch": 70, "duration": 10, "velocity": 65}, {"time": 33121, "pitch": 82, "duration": 10, "velocity": 71}, {"time": 33260, "pitch": 70, "duration": 10, "velocity": 40}, {"time": 33350, "pitch": 82, "duration": 10, "velocity": 60}, {"time": 33360, "pitch": 42, "duration": 10, "velocity": 85}, {"time": 33360, "pitch": 70, "duration": 10, "velocity": 65}, {"time": 33500, "pitch": 70, "duration": 9, "velocity": 40}, {"time": 33589, "pitch": 82, "duration": 10, "velocity": 65}, {"time": 33599, "pitch": 38, "duration": 10, "velocity": 112}, {"time": 33599, "pitch": 39, "duration": 10, "velocity": 113}, {"time": 33599, "pitch": 42, "duration": 10, "velocity": 90}, {"time": 33599, "pitch": 70, "duration": 10, "velocity": 65}, {"time": 33739, "pitch": 70, "duration": 10, "velocity": 40}, {"time": 33828, "pitch": 63, "duration": 10, "velocity": 87}, {"time": 33838, "pitch": 42, "duration": 10, "velocity": 85}, {"time": 33838, "pitch": 70, "duration": 10, "velocity": 65}, {"time": 33838, "pitch": 82, "duration": 10, "velocity": 67}, {"time": 33978, "pitch": 63, "duration": 10, "velocity": 107}, {"time": 33978, "pitch": 70, "duration": 10, "velocity": 40}, {"time": 34078, "pitch": 42, "duration": 10, "velocity": 90}, {"time": 34078, "pitch": 70, "duration": 10, "velocity": 65}, {"time": 34078, "pitch": 82, "duration": 10, "velocity": 62}, {"time": 34219, "pitch": 70, "duration": 10, "velocity": 40}, {"time": 34320, "pitch": 42, "duration": 10, "velocity": 85}, {"time": 34320, "pitch": 70, "duration": 10, "velocity": 65}, {"time": 34320, "pitch": 82, "duration": 10, "velocity": 67}, {"time": 34462, "pitch": 70, "duration": 10, "velocity": 40}, {"time": 34553, "pitch": 82, "duration": 10, "velocity": 70}, {"time": 34563, "pitch": 38, "duration": 10, "velocity": 112}, {"time": 34563, "pitch": 39, "duration": 10, "velocity": 113}, {"time": 34563, "pitch": 42, "duration": 10, "velocity": 90}, {"time": 34563, "pitch": 70, "duration": 10, "velocity": 65}, {"time": 34702, "pitch": 70, "duration": 10, "velocity": 40}, {"time": 34792, "pitch": 62, "duration": 10, "velocity": 88}, {"time": 34792, "pitch": 82, "duration": 10, "velocity": 69}, {"time": 34802, "pitch": 42, "duration": 10, "velocity": 85}, {"time": 34802, "pitch": 70, "duration": 10, "velocity": 65}, {"time": 34942, "pitch": 62, "duration": 10, "velocity": 119}, {"time": 34942, "pitch": 70, "duration": 10, "velocity": 40}, {"time": 35041, "pitch": 42, "duration": 10, "velocity": 90}, {"time": 35041, "pitch": 70, "duration": 10, "velocity": 65}, {"time": 35041, "pitch": 82, "duration": 10, "velocity": 71}, {"time": 35181, "pitch": 70, "duration": 10, "velocity": 40}, {"time": 35270, "pitch": 82, "duration": 10, "velocity": 60}, {"time": 35280, "pitch": 42, "duration": 10, "velocity": 85}, {"time": 35280, "pitch": 70, "duration": 10, "velocity": 65}, {"time": 35420, "pitch": 70, "duration": 10, "velocity": 40}, {"time": 35510, "pitch": 82, "duration": 10, "velocity": 65}, {"time": 35520, "pitch": 38, "duration": 10, "velocity": 112}, {"time": 35520, "pitch": 39, "duration": 10, "velocity": 113}, {"time": 35520, "pitch": 42, "duration": 10, "velocity": 90}, {"time": 35520, "pitch": 70, "duration": 10, "velocity": 65}, {"time": 35659, "pitch": 70, "duration": 10, "velocity": 40}, {"time": 35669, "pitch": 64, "duration": 10, "velocity": 114}, {"time": 35759, "pitch": 42, "duration": 10, "velocity": 85}, {"time": 35759, "pitch": 70, "duration": 10, "velocity": 65}, {"time": 35759, "pitch": 82, "duration": 10, "velocity": 67}, {"time": 35898, "pitch": 70, "duration": 10, "velocity": 40}, {"time": 35998, "pitch": 42, "duration": 10, "velocity": 90}, {"time": 35998, "pitch": 70, "duration": 10, "velocity": 65}, {"time": 35998, "pitch": 82, "duration": 10, "velocity": 62}, {"time": 36140, "pitch": 70, "duration": 10, "velocity": 40}, {"time": 36241, "pitch": 42, "duration": 10, "velocity": 85}, {"time": 36241, "pitch": 70, "duration": 10, "velocity": 65}, {"time": 36241, "pitch": 82, "duration": 10, "velocity": 67}, {"time": 36382, "pitch": 70, "duration": 10, "velocity": 40}, {"time": 36473, "pitch": 82, "duration": 10, "velocity": 70}, {"time": 36483, "pitch": 38, "duration": 10, "velocity": 112}, {"time": 36483, "pitch": 39, "duration": 10, "velocity": 113}, {"time": 36483, "pitch": 42, "duration": 10, "velocity": 90}, {"time": 36483, "pitch": 70, "duration": 10, "velocity": 65}, {"time": 36623, "pitch": 70, "duration": 10, "velocity": 40}, {"time": 36712, "pitch": 62, "duration": 10, "velocity": 91}, {"time": 36712, "pitch": 82, "duration": 10, "velocity": 69}, {"time": 36722, "pitch": 42, "duration": 10, "velocity": 85}, {"time": 36722, "pitch": 70, "duration": 10, "velocity": 65}, {"time": 36862, "pitch": 62, "duration": 10, "velocity": 119}, {"time": 36862, "pitch": 70, "duration": 10, "velocity": 40}, {"time": 36962, "pitch": 42, "duration": 10, "velocity": 90}, {"time": 36962, "pitch": 70, "duration": 10, "velocity": 65}, {"time": 36962, "pitch": 82, "duration": 10, "velocity": 71}, {"time": 37101, "pitch": 70, "duration": 10, "velocity": 40}, {"time": 37191, "pitch": 82, "duration": 10, "velocity": 60}, {"time": 37201, "pitch": 42, "duration": 10, "velocity": 85}, {"time": 37201, "pitch": 70, "duration": 10, "velocity": 65}, {"time": 37340, "pitch": 70, "duration": 10, "velocity": 40}, {"time": 37430, "pitch": 82, "duration": 10, "velocity": 65}, {"time": 37440, "pitch": 38, "duration": 10, "velocity": 112}, {"time": 37440, "pitch": 39, "duration": 10, "velocity": 113}, {"time": 37440, "pitch": 42, "duration": 10, "velocity": 90}, {"time": 37440, "pitch": 70, "duration": 10, "velocity": 65}, {"time": 37580, "pitch": 70, "duration": 10, "velocity": 40}, {"time": 37669, "pitch": 63, "duration": 10, "velocity": 82}, {"time": 37679, "pitch": 42, "duration": 10, "velocity": 85}, {"time": 37679, "pitch": 70, "duration": 10, "velocity": 65}, {"time": 37679, "pitch": 82, "duration": 10, "velocity": 67}, {"time": 37819, "pitch": 63, "duration": 10, "velocity": 107}, {"time": 37819, "pitch": 70, "duration": 10, "velocity": 40}, {"time": 37908, "pitch": 82, "duration": 10, "velocity": 63}, {"time": 37918, "pitch": 42, "duration": 10, "velocity": 90}, {"time": 37918, "pitch": 51, "duration": 10, "velocity": 92}, {"time": 37918, "pitch": 70, "duration": 10, "velocity": 65}, {"time": 37918, "pitch": 82, "duration": 10, "velocity": 63}, {"time": 38058, "pitch": 70, "duration": 10, "velocity": 40}, {"time": 38148, "pitch": 51, "duration": 10, "velocity": 107}, {"time": 38148, "pitch": 63, "duration": 10, "velocity": 91}, {"time": 38148, "pitch": 82, "duration": 10, "velocity": 69}, {"time": 38158, "pitch": 38, "duration": 10, "velocity": 112}, {"time": 38158, "pitch": 39, "duration": 10, "velocity": 113}, {"time": 38158, "pitch": 42, "duration": 10, "velocity": 85}, {"time": 38158, "pitch": 70, "duration": 10, "velocity": 65}, {"time": 38297, "pitch": 70, "duration": 10, "velocity": 40}, {"time": 38397, "pitch": 42, "duration": 10, "velocity": 90}, {"time": 38397, "pitch": 51, "duration": 10, "velocity": 92}, {"time": 38397, "pitch": 70, "duration": 10, "velocity": 65}, {"time": 38397, "pitch": 82, "duration": 10, "velocity": 58}, {"time": 38538, "pitch": 70, "duration": 10, "velocity": 40}, {"time": 38629, "pitch": 51, "duration": 10, "velocity": 107}, {"time": 38629, "pitch": 63, "duration": 10, "velocity": 86}, {"time": 38629, "pitch": 82, "duration": 10, "velocity": 74}, {"time": 38639, "pitch": 38, "duration": 11, "velocity": 112}, {"time": 38639, "pitch": 39, "duration": 11, "velocity": 113}, {"time": 38639, "pitch": 42, "duration": 11, "velocity": 85}, {"time": 38639, "pitch": 70, "duration": 11, "velocity": 65}, {"time": 38781, "pitch": 38, "duration": 10, "velocity": 92}, {"time": 38781, "pitch": 62, "duration": 10, "velocity": 119}, {"time": 38781, "pitch": 70, "duration": 10, "velocity": 40}, {"time": 38872, "pitch": 51, "duration": 10, "velocity": 92}, {"time": 38872, "pitch": 82, "duration": 10, "velocity": 75}, {"time": 38882, "pitch": 42, "duration": 10, "velocity": 90}, {"time": 38882, "pitch": 70, "duration": 10, "velocity": 65}, {"time": 39022, "pitch": 70, "duration": 10, "velocity": 40}, {"time": 39111, "pitch": 51, "duration": 10, "velocity": 107}, {"time": 39111, "pitch": 63, "duration": 10, "velocity": 91}, {"time": 39111, "pitch": 82, "duration": 10, "velocity": 60}, {"time": 39121, "pitch": 38, "duration": 10, "velocity": 112}, {"time": 39121, "pitch": 39, "duration": 10, "velocity": 113}, {"time": 39121, "pitch": 42, "duration": 10, "velocity": 85}, {"time": 39121, "pitch": 70, "duration": 10, "velocity": 65}, {"time": 39261, "pitch": 64, "duration": 10, "velocity": 119}, {"time": 39261, "pitch": 70, "duration": 10, "velocity": 40}, {"time": 39360, "pitch": 42, "duration": 10, "velocity": 90}, {"time": 39360, "pitch": 51, "duration": 10, "velocity": 92}, {"time": 39360, "pitch": 70, "duration": 10, "velocity": 65}, {"time": 39360, "pitch": 82, "duration": 10, "velocity": 70}, {"time": 39500, "pitch": 70, "duration": 10, "velocity": 40}, {"time": 39510, "pitch": 64, "duration": 10, "velocity": 122}, {"time": 39600, "pitch": 39, "duration": 10, "velocity": 113}, {"time": 39600, "pitch": 40, "duration": 10, "velocity": 122}, {"time": 39600, "pitch": 42, "duration": 10, "velocity": 85}, {"time": 39600, "pitch": 55, "duration": 10, "velocity": 124}, {"time": 39600, "pitch": 70, "duration": 10, "velocity": 65}, {"time": 39600, "pitch": 82, "duration": 10, "velocity": 75}, {"time": 39739, "pitch": 70, "duration": 10, "velocity": 40}, {"time": 39839, "pitch": 42, "duration": 10, "velocity": 90}, {"time": 39839, "pitch": 49, "duration": 10, "velocity": 104}, {"time": 39839, "pitch": 70, "duration": 10, "velocity": 65}, {"time": 39839, "pitch": 82, "duration": 10, "velocity": 62}, {"time": 39978, "pitch": 70, "duration": 10, "velocity": 40}, {"time": 40078, "pitch": 42, "duration": 10, "velocity": 85}, {"time": 40078, "pitch": 70, "duration": 10, "velocity": 65}, {"time": 40078, "pitch": 82, "duration": 10, "velocity": 70}, {"time": 40218, "pitch": 70, "duration": 10, "velocity": 40}, {"time": 40317, "pitch": 38, "duration": 10, "velocity": 112}, {"time": 40317, "pitch": 39, "duration": 10, "velocity": 113}, {"time": 40317, "pitch": 42, "duration": 10, "velocity": 90}, {"time": 40317, "pitch": 70, "duration": 10, "velocity": 65}, {"time": 40317, "pitch": 82, "duration": 10, "velocity": 71}, {"time": 40459, "pitch": 70, "duration": 10, "velocity": 40}, {"time": 40550, "pitch": 62, "duration": 10, "velocity": 91}, {"time": 40550, "pitch": 82, "duration": 10, "velocity": 68}, {"time": 40560, "pitch": 42, "duration": 10, "velocity": 85}, {"time": 40560, "pitch": 70, "duration": 10, "velocity": 65}, {"time": 40701, "pitch": 62, "duration": 11, "velocity": 113}, {"time": 40701, "pitch": 70, "duration": 11, "velocity": 40}, {"time": 40792, "pitch": 82, "duration": 10, "velocity": 66}, {"time": 40802, "pitch": 42, "duration": 10, "velocity": 90}, {"time": 40802, "pitch": 70, "duration": 10, "velocity": 65}, {"time": 40942, "pitch": 70, "duration": 10, "velocity": 40}, {"time": 41032, "pitch": 82, "duration": 10, "velocity": 67}, {"time": 41042, "pitch": 42, "duration": 10, "velocity": 85}, {"time": 41042, "pitch": 70, "duration": 10, "velocity": 65}, {"time": 41181, "pitch": 70, "duration": 10, "velocity": 40}, {"time": 41281, "pitch": 38, "duration": 10, "velocity": 112}, {"time": 41281, "pitch": 39, "duration": 10, "velocity": 113}, {"time": 41281, "pitch": 42, "duration": 10, "velocity": 90}, {"time": 41281, "pitch": 70, "duration": 10, "velocity": 65}, {"time": 41281, "pitch": 82, "duration": 10, "velocity": 69}, {"time": 41420, "pitch": 70, "duration": 10, "velocity": 40}, {"time": 41510, "pitch": 63, "duration": 10, "velocity": 87}, {"time": 41520, "pitch": 42, "duration": 10, "velocity": 85}, {"time": 41520, "pitch": 70, "duration": 10, "velocity": 65}, {"time": 41520, "pitch": 82, "duration": 10, "velocity": 66}, {"time": 41660, "pitch": 63, "duration": 10, "velocity": 107}, {"time": 41660, "pitch": 70, "duration": 10, "velocity": 40}, {"time": 41759, "pitch": 42, "duration": 10, "velocity": 90}, {"time": 41759, "pitch": 70, "duration": 10, "velocity": 65}, {"time": 41759, "pitch": 82, "duration": 10, "velocity": 73}, {"time": 41899, "pitch": 70, "duration": 10, "velocity": 40}, {"time": 41989, "pitch": 82, "duration": 9, "velocity": 59}, {"time": 41998, "pitch": 42, "duration": 10, "velocity": 85}, {"time": 41998, "pitch": 70, "duration": 10, "velocity": 65}, {"time": 42138, "pitch": 70, "duration": 10, "velocity": 40}, {"time": 42238, "pitch": 38, "duration": 10, "velocity": 112}, {"time": 42238, "pitch": 39, "duration": 10, "velocity": 113}, {"time": 42238, "pitch": 42, "duration": 10, "velocity": 90}, {"time": 42238, "pitch": 70, "duration": 10, "velocity": 65}, {"time": 42238, "pitch": 82, "duration": 10, "velocity": 63}, {"time": 42379, "pitch": 70, "duration": 10, "velocity": 40}, {"time": 42470, "pitch": 62, "duration": 10, "velocity": 88}, {"time": 42480, "pitch": 42, "duration": 10, "velocity": 85}, {"time": 42480, "pitch": 70, "duration": 10, "velocity": 65}, {"time": 42480, "pitch": 82, "duration": 10, "velocity": 60}, {"time": 42622, "pitch": 62, "duration": 10, "velocity": 119}, {"time": 42622, "pitch": 70, "duration": 10, "velocity": 40}, {"time": 42713, "pitch": 82, "duration": 10, "velocity": 74}, {"time": 42723, "pitch": 42, "duration": 10, "velocity": 90}, {"time": 42723, "pitch": 70, "duration": 10, "velocity": 65}, {"time": 42862, "pitch": 70, "duration": 10, "velocity": 40}, {"time": 42952, "pitch": 82, "duration": 10, "velocity": 63}, {"time": 42962, "pitch": 42, "duration": 10, "velocity": 85}, {"time": 42962, "pitch": 70, "duration": 10, "velocity": 65}, {"time": 43102, "pitch": 70, "duration": 10, "velocity": 40}, {"time": 43201, "pitch": 38, "duration": 10, "velocity": 112}, {"time": 43201, "pitch": 39, "duration": 10, "velocity": 113}, {"time": 43201, "pitch": 42, "duration": 10, "velocity": 90}, {"time": 43201, "pitch": 70, "duration": 10, "velocity": 65}, {"time": 43201, "pitch": 82, "duration": 10, "velocity": 68}, {"time": 43341, "pitch": 70, "duration": 10, "velocity": 40}, {"time": 43351, "pitch": 64, "duration": 10, "velocity": 114}, {"time": 43431, "pitch": 82, "duration": 10, "velocity": 60}, {"time": 43441, "pitch": 42, "duration": 9, "velocity": 85}, {"time": 43441, "pitch": 70, "duration": 9, "velocity": 65}, {"time": 43580, "pitch": 70, "duration": 10, "velocity": 40}, {"time": 43680, "pitch": 42, "duration": 10, "velocity": 90}, {"time": 43680, "pitch": 70, "duration": 10, "velocity": 65}, {"time": 43680, "pitch": 82, "duration": 10, "velocity": 62}, {"time": 43819, "pitch": 70, "duration": 10, "velocity": 40}, {"time": 43919, "pitch": 42, "duration": 10, "velocity": 85}, {"time": 43919, "pitch": 70, "duration": 10, "velocity": 65}, {"time": 43919, "pitch": 82, "duration": 10, "velocity": 67}, {"time": 44058, "pitch": 70, "duration": 10, "velocity": 40}, {"time": 44148, "pitch": 82, "duration": 10, "velocity": 70}, {"time": 44158, "pitch": 38, "duration": 10, "velocity": 112}, {"time": 44158, "pitch": 39, "duration": 10, "velocity": 113}, {"time": 44158, "pitch": 42, "duration": 10, "velocity": 90}, {"time": 44158, "pitch": 70, "duration": 10, "velocity": 65}, {"time": 44300, "pitch": 70, "duration": 10, "velocity": 40}, {"time": 44391, "pitch": 62, "duration": 10, "velocity": 91}, {"time": 44391, "pitch": 82, "duration": 10, "velocity": 69}, {"time": 44401, "pitch": 42, "duration": 10, "velocity": 85}, {"time": 44401, "pitch": 70, "duration": 10, "velocity": 65}, {"time": 44542, "pitch": 49, "duration": 10, "velocity": 104}, {"time": 44542, "pitch": 62, "duration": 10, "velocity": 119}, {"time": 44542, "pitch": 70, "duration": 10, "velocity": 40}, {"time": 44643, "pitch": 42, "duration": 10, "velocity": 90}, {"time": 44643, "pitch": 70, "duration": 10, "velocity": 65}, {"time": 44643, "pitch": 82, "duration": 10, "velocity": 71}, {"time": 44783, "pitch": 38, "duration": 10, "velocity": 92}, {"time": 44783, "pitch": 70, "duration": 10, "velocity": 40}, {"time": 44873, "pitch": 82, "duration": 10, "velocity": 60}, {"time": 44883, "pitch": 42, "duration": 10, "velocity": 85}, {"time": 44883, "pitch": 70, "duration": 10, "velocity": 65}, {"time": 45022, "pitch": 70, "duration": 10, "velocity": 40}, {"time": 45112, "pitch": 82, "duration": 10, "velocity": 65}, {"time": 45122, "pitch": 38, "duration": 10, "velocity": 112}, {"time": 45122, "pitch": 39, "duration": 10, "velocity": 113}, {"time": 45122, "pitch": 42, "duration": 10, "velocity": 90}, {"time": 45122, "pitch": 70, "duration": 10, "velocity": 65}, {"time": 45261, "pitch": 70, "duration": 10, "velocity": 40}, {"time": 45351, "pitch": 63, "duration": 10, "velocity": 82}, {"time": 45361, "pitch": 42, "duration": 10, "velocity": 85}, {"time": 45361, "pitch": 70, "duration": 10, "velocity": 65}, {"time": 45361, "pitch": 82, "duration": 10, "velocity": 67}, {"time": 45490, "pitch": 38, "duration": 10, "velocity": 50}, {"time": 45500, "pitch": 38, "duration": 10, "velocity": 55}, {"time": 45500, "pitch": 63, "duration": 10, "velocity": 107}, {"time": 45500, "pitch": 70, "duration": 10, "velocity": 40}, {"time": 45520, "pitch": 38, "duration": 10, "velocity": 59}, {"time": 45530, "pitch": 38, "duration": 10, "velocity": 64}, {"time": 45540, "pitch": 38, "duration": 10, "velocity": 68}, {"time": 45560, "pitch": 38, "duration": 10, "velocity": 73}, {"time": 45570, "pitch": 38, "duration": 10, "velocity": 78}, {"time": 45580, "pitch": 38, "duration": 10, "velocity": 82}, {"time": 45590, "pitch": 82, "duration": 10, "velocity": 63}, {"time": 45600, "pitch": 38, "duration": 10, "velocity": 92}, {"time": 45600, "pitch": 42, "duration": 10, "velocity": 90}, {"time": 45600, "pitch": 49, "duration": 10, "velocity": 104}, {"time": 45600, "pitch": 51, "duration": 10, "velocity": 92}, {"time": 45600, "pitch": 70, "duration": 10, "velocity": 65}, {"time": 45600, "pitch": 82, "duration": 10, "velocity": 63}, {"time": 45740, "pitch": 70, "duration": 10, "velocity": 40}, {"time": 45829, "pitch": 51, "duration": 10, "velocity": 107}, {"time": 45829, "pitch": 63, "duration": 10, "velocity": 91}, {"time": 45829, "pitch": 82, "duration": 10, "velocity": 69}, {"time": 45839, "pitch": 38, "duration": 10, "velocity": 112}, {"time": 45839, "pitch": 39, "duration": 10, "velocity": 113}, {"time": 45839, "pitch": 42, "duration": 10, "velocity": 85}, {"time": 45839, "pitch": 50, "duration": 10, "velocity": 115}, {"time": 45839, "pitch": 70, "duration": 10, "velocity": 65}, {"time": 45979, "pitch": 70, "duration": 10, "velocity": 40}, {"time": 46079, "pitch": 42, "duration": 9, "velocity": 90}, {"time": 46079, "pitch": 51, "duration": 9, "velocity": 92}, {"time": 46079, "pitch": 70, "duration": 9, "velocity": 65}, {"time": 46079, "pitch": 82, "duration": 9, "velocity": 58}, {"time": 46218, "pitch": 70, "duration": 10, "velocity": 40}, {"time": 46308, "pitch": 51, "duration": 10, "velocity": 107}, {"time": 46308, "pitch": 63, "duration": 10, "velocity": 86}, {"time": 46308, "pitch": 82, "duration": 10, "velocity": 74}, {"time": 46318, "pitch": 38, "duration": 10, "velocity": 112}, {"time": 46318, "pitch": 39, "duration": 10, "velocity": 113}, {"time": 46318, "pitch": 42, "duration": 10, "velocity": 85}, {"time": 46318, "pitch": 48, "duration": 10, "velocity": 104}, {"time": 46318, "pitch": 70, "duration": 10, "velocity": 65}, {"time": 46457, "pitch": 62, "duration": 10, "velocity": 119}, {"time": 46457, "pitch": 70, "duration": 10, "velocity": 40}, {"time": 46467, "pitch": 48, "duration": 10, "velocity": 110}, {"time": 46547, "pitch": 51, "duration": 10, "velocity": 92}, {"time": 46547, "pitch": 82, "duration": 10, "velocity": 75}, {"time": 46557, "pitch": 38, "duration": 10, "velocity": 92}, {"time": 46557, "pitch": 42, "duration": 10, "velocity": 90}, {"time": 46557, "pitch": 70, "duration": 10, "velocity": 65}, {"time": 46698, "pitch": 70, "duration": 11, "velocity": 40}, {"time": 46789, "pitch": 51, "duration": 11, "velocity": 107}, {"time": 46789, "pitch": 63, "duration": 11, "velocity": 91}, {"time": 46789, "pitch": 82, "duration": 11, "velocity": 60}, {"time": 46800, "pitch": 38, "duration": 10, "velocity": 112}, {"time": 46800, "pitch": 39, "duration": 10, "velocity": 113}, {"time": 46800, "pitch": 42, "duration": 10, "velocity": 85}, {"time": 46800, "pitch": 47, "duration": 10, "velocity": 101}, {"time": 46800, "pitch": 70, "duration": 10, "velocity": 65}, {"time": 46941, "pitch": 64, "duration": 10, "velocity": 119}, {"time": 46941, "pitch": 70, "duration": 10, "velocity": 40}, {"time": 46951, "pitch": 45, "duration": 10, "velocity": 110}, {"time": 47042, "pitch": 42, "duration": 10, "velocity": 90}, {"time": 47042, "pitch": 51, "duration": 10, "velocity": 92}, {"time": 47042, "pitch": 70, "duration": 10, "velocity": 65}, {"time": 47042, "pitch": 82, "duration": 10, "velocity": 70}, {"time": 47182, "pitch": 70, "duration": 10, "velocity": 40}, {"time": 47192, "pitch": 45, "duration": 10, "velocity": 117}, {"time": 47192, "pitch": 64, "duration": 10, "velocity": 122}, {"time": 47281, "pitch": 39, "duration": 10, "velocity": 113}, {"time": 47281, "pitch": 40, "duration": 10, "velocity": 122}, {"time": 47281, "pitch": 42, "duration": 10, "velocity": 85}, {"time": 47281, "pitch": 43, "duration": 10, "velocity": 110}, {"time": 47281, "pitch": 55, "duration": 10, "velocity": 124}, {"time": 47281, "pitch": 70, "duration": 10, "velocity": 65}, {"time": 47281, "pitch": 82, "duration": 10, "velocity": 75}, {"time": 47421, "pitch": 70, "duration": 10, "velocity": 40}, {"time": 47521, "pitch": 42, "duration": 10, "velocity": 90}, {"time": 47521, "pitch": 49, "duration": 10, "velocity": 104}, {"time": 47521, "pitch": 70, "duration": 10, "velocity": 65}, {"time": 47521, "pitch": 82, "duration": 10, "velocity": 62}, {"time": 47660, "pitch": 70, "duration": 10, "velocity": 40}, {"time": 47750, "pitch": 63, "duration": 10, "velocity": 96}, {"time": 47760, "pitch": 42, "duration": 10, "velocity": 85}, {"time": 47760, "pitch": 70, "duration": 10, "velocity": 65}, {"time": 47760, "pitch": 82, "duration": 10, "velocity": 70}, {"time": 47899, "pitch": 70, "duration": 10, "velocity": 40}, {"time": 47989, "pitch": 62, "duration": 10, "velocity": 107}, {"time": 47999, "pitch": 38, "duration": 10, "velocity": 112}, {"time": 47999, "pitch": 39, "duration": 10, "velocity": 113}, {"time": 47999, "pitch": 42, "duration": 10, "velocity": 90}, {"time": 47999, "pitch": 70, "duration": 10, "velocity": 65}, {"time": 47999, "pitch": 82, "duration": 10, "velocity": 71}, {"time": 48138, "pitch": 70, "duration": 10, "velocity": 40}, {"time": 48228, "pitch": 64, "duration": 10, "velocity": 107}, {"time": 48228, "pitch": 82, "duration": 10, "velocity": 68}, {"time": 48238, "pitch": 42, "duration": 10, "velocity": 85}, {"time": 48238, "pitch": 70, "duration": 10, "velocity": 65}, {"time": 48378, "pitch": 64, "duration": 10, "velocity": 107}, {"time": 48378, "pitch": 70, "duration": 10, "velocity": 40}, {"time": 48467, "pitch": 82, "duration": 10, "velocity": 66}, {"time": 48477, "pitch": 42, "duration": 10, "velocity": 90}, {"time": 48477, "pitch": 70, "duration": 10, "velocity": 65}, {"time": 48619, "pitch": 70, "duration": 10, "velocity": 40}, {"time": 48710, "pitch": 63, "duration": 10, "velocity": 100}, {"time": 48710, "pitch": 82, "duration": 10, "velocity": 67}, {"time": 48720, "pitch": 42, "duration": 10, "velocity": 85}, {"time": 48720, "pitch": 70, "duration": 10, "velocity": 65}, {"time": 48862, "pitch": 70, "duration": 10, "velocity": 40}, {"time": 48953, "pitch": 62, "duration": 10, "velocity": 113}, {"time": 48963, "pitch": 38, "duration": 10, "velocity": 112}, {"time": 48963, "pitch": 39, "duration": 10, "velocity": 113}, {"time": 48963, "pitch": 42, "duration": 10, "velocity": 90}, {"time": 48963, "pitch": 70, "duration": 10, "velocity": 65}, {"time": 48963, "pitch": 82, "duration": 10, "velocity": 69}, {"time": 49102, "pitch": 70, "duration": 10, "velocity": 40}, {"time": 49202, "pitch": 42, "duration": 10, "velocity": 85}, {"time": 49202, "pitch": 70, "duration": 10, "velocity": 65}, {"time": 49202, "pitch": 82, "duration": 10, "velocity": 66}, {"time": 49341, "pitch": 70, "duration": 10, "velocity": 40}, {"time": 49441, "pitch": 42, "duration": 10, "velocity": 90}, {"time": 49441, "pitch": 70, "duration": 10, "velocity": 65}, {"time": 49441, "pitch": 82, "duration": 10, "velocity": 73}, {"time": 49581, "pitch": 70, "duration": 9, "velocity": 40}, {"time": 49670, "pitch": 63, "duration": 10, "velocity": 104}, {"time": 49670, "pitch": 82, "duration": 10, "velocity": 59}, {"time": 49680, "pitch": 42, "duration": 10, "velocity": 85}, {"time": 49680, "pitch": 70, "duration": 10, "velocity": 65}, {"time": 49820, "pitch": 70, "duration": 10, "velocity": 40}, {"time": 49909, "pitch": 62, "duration": 10, "velocity": 113}, {"time": 49919, "pitch": 38, "duration": 10, "velocity": 112}, {"time": 49919, "pitch": 39, "duration": 10, "velocity": 113}, {"time": 49919, "pitch": 42, "duration": 10, "velocity": 90}, {"time": 49919, "pitch": 70, "duration": 10, "velocity": 65}, {"time": 49919, "pitch": 82, "duration": 10, "velocity": 63}, {"time": 50059, "pitch": 70, "duration": 10, "velocity": 40}, {"time": 50149, "pitch": 64, "duration": 10, "velocity": 107}, {"time": 50159, "pitch": 42, "duration": 10, "velocity": 85}, {"time": 50159, "pitch": 70, "duration": 10, "velocity": 65}, {"time": 50159, "pitch": 82, "duration": 10, "velocity": 60}, {"time": 50298, "pitch": 64, "duration": 10, "velocity": 104}, {"time": 50298, "pitch": 70, "duration": 10, "velocity": 40}, {"time": 50388, "pitch": 82, "duration": 10, "velocity": 74}, {"time": 50398, "pitch": 42, "duration": 10, "velocity": 90}, {"time": 50398, "pitch": 70, "duration": 10, "velocity": 65}, {"time": 50539, "pitch": 63, "duration": 10, "velocity": 110}, {"time": 50539, "pitch": 70, "duration": 10, "velocity": 40}, {"time": 50630, "pitch": 82, "duration": 10, "velocity": 63}, {"time": 50640, "pitch": 42, "duration": 11, "velocity": 85}, {"time": 50640, "pitch": 70, "duration": 11, "velocity": 65}, {"time": 50782, "pitch": 70, "duration": 10, "velocity": 40}, {"time": 50873, "pitch": 63, "duration": 10, "velocity": 96}, {"time": 50883, "pitch": 38, "duration": 10, "velocity": 112}, {"time": 50883, "pitch": 39, "duration": 10, "velocity": 113}, {"time": 50883, "pitch": 42, "duration": 10, "velocity": 90}, {"time": 50883, "pitch": 70, "duration": 10, "velocity": 65}, {"time": 50883, "pitch": 82, "duration": 10, "velocity": 68}, {"time": 51023, "pitch": 63, "duration": 10, "velocity": 94}, {"time": 51023, "pitch": 70, "duration": 10, "velocity": 40}, {"time": 51112, "pitch": 62, "duration": 10, "velocity": 119}, {"time": 51112, "pitch": 82, "duration": 10, "velocity": 60}, {"time": 51122, "pitch": 42, "duration": 10, "velocity": 85}, {"time": 51122, "pitch": 70, "duration": 10, "velocity": 65}, {"time": 51262, "pitch": 70, "duration": 10, "velocity": 40}, {"time": 51361, "pitch": 42, "duration": 10, "velocity": 90}, {"time": 51361, "pitch": 70, "duration": 10, "velocity": 65}, {"time": 51361, "pitch": 82, "duration": 10, "velocity": 62}, {"time": 51501, "pitch": 70, "duration": 10, "velocity": 40}, {"time": 51591, "pitch": 63, "duration": 10, "velocity": 100}, {"time": 51601, "pitch": 42, "duration": 10, "velocity": 85}, {"time": 51601, "pitch": 70, "duration": 10, "velocity": 65}, {"time": 51601, "pitch": 82, "duration": 10, "velocity": 67}, {"time": 51740, "pitch": 70, "duration": 10, "velocity": 40}, {"time": 51830, "pitch": 62, "duration": 10, "velocity": 113}, {"time": 51830, "pitch": 82, "duration": 10, "velocity": 70}, {"time": 51840, "pitch": 38, "duration": 10, "velocity": 112}, {"time": 51840, "pitch": 39, "duration": 10, "velocity": 113}, {"time": 51840, "pitch": 42, "duration": 10, "velocity": 90}, {"time": 51840, "pitch": 70, "duration": 10, "velocity": 65}, {"time": 51979, "pitch": 70, "duration": 10, "velocity": 40}, {"time": 52069, "pitch": 64, "duration": 10, "velocity": 104}, {"time": 52069, "pitch": 82, "duration": 10, "velocity": 69}, {"time": 52079, "pitch": 42, "duration": 10, "velocity": 85}, {"time": 52079, "pitch": 70, "duration": 10, "velocity": 65}, {"time": 52219, "pitch": 64, "duration": 9, "velocity": 107}, {"time": 52219, "pitch": 70, "duration": 9, "velocity": 40}, {"time": 52318, "pitch": 42, "duration": 10, "velocity": 90}, {"time": 52318, "pitch": 70, "duration": 10, "velocity": 65}, {"time": 52318, "pitch": 82, "duration": 10, "velocity": 71}, {"time": 52458, "pitch": 70, "duration": 10, "velocity": 40}, {"time": 52547, "pitch": 63, "duration": 10, "velocity": 116}, {"time": 52547, "pitch": 82, "duration": 10, "velocity": 60}, {"time": 52557, "pitch": 42, "duration": 10, "velocity": 85}, {"time": 52557, "pitch": 70, "duration": 10, "velocity": 65}, {"time": 52697, "pitch": 70, "duration": 10, "velocity": 40}, {"time": 52787, "pitch": 62, "duration": 10, "velocity": 113}, {"time": 52787, "pitch": 82, "duration": 10, "velocity": 65}, {"time": 52797, "pitch": 38, "duration": 10, "velocity": 112}, {"time": 52797, "pitch": 39, "duration": 10, "velocity": 113}, {"time": 52797, "pitch": 42, "duration": 10, "velocity": 90}, {"time": 52797, "pitch": 70, "duration": 10, "velocity": 65}, {"time": 52938, "pitch": 70, "duration": 10, "velocity": 40}, {"time": 53039, "pitch": 42, "duration": 10, "velocity": 85}, {"time": 53039, "pitch": 70, "duration": 10, "velocity": 65}, {"time": 53039, "pitch": 82, "duration": 10, "velocity": 67}, {"time": 53181, "pitch": 70, "duration": 10, "velocity": 40}, {"time": 53272, "pitch": 82, "duration": 10, "velocity": 63}, {"time": 53282, "pitch": 42, "duration": 10, "velocity": 90}, {"time": 53282, "pitch": 51, "duration": 10, "velocity": 92}, {"time": 53282, "pitch": 70, "duration": 10, "velocity": 65}, {"time": 53282, "pitch": 82, "duration": 10, "velocity": 63}, {"time": 53421, "pitch": 70, "duration": 10, "velocity": 40}, {"time": 53511, "pitch": 63, "duration": 10, "velocity": 116}, {"time": 53511, "pitch": 82, "duration": 10, "velocity": 69}, {"time": 53521, "pitch": 42, "duration": 10, "velocity": 85}, {"time": 53521, "pitch": 51, "duration": 10, "velocity": 92}, {"time": 53521, "pitch": 70, "duration": 10, "velocity": 65}, {"time": 53661, "pitch": 70, "duration": 10, "velocity": 40}, {"time": 53750, "pitch": 64, "duration": 10, "velocity": 81}, {"time": 53760, "pitch": 38, "duration": 10, "velocity": 112}, {"time": 53760, "pitch": 39, "duration": 10, "velocity": 113}, {"time": 53760, "pitch": 42, "duration": 10, "velocity": 90}, {"time": 53760, "pitch": 51, "duration": 10, "velocity": 92}, {"time": 53760, "pitch": 70, "duration": 10, "velocity": 65}, {"time": 53760, "pitch": 82, "duration": 10, "velocity": 58}, {"time": 53900, "pitch": 70, "duration": 10, "velocity": 40}, {"time": 53989, "pitch": 63, "duration": 10, "velocity": 123}, {"time": 53989, "pitch": 64, "duration": 10, "velocity": 127}, {"time": 53989, "pitch": 82, "duration": 10, "velocity": 74}, {"time": 53999, "pitch": 42, "duration": 10, "velocity": 85}, {"time": 53999, "pitch": 51, "duration": 10, "velocity": 92}, {"time": 53999, "pitch": 70, "duration": 10, "velocity": 65}, {"time": 54139, "pitch": 38, "duration": 10, "velocity": 92}, {"time": 54139, "pitch": 63, "duration": 10, "velocity": 107}, {"time": 54139, "pitch": 70, "duration": 10, "velocity": 40}, {"time": 54229, "pitch": 82, "duration": 10, "velocity": 75}, {"time": 54239, "pitch": 38, "duration": 10, "velocity": 112}, {"time": 54239, "pitch": 42, "duration": 10, "velocity": 90}, {"time": 54239, "pitch": 70, "duration": 10, "velocity": 65}, {"time": 54378, "pitch": 63, "duration": 10, "velocity": 96}, {"time": 54378, "pitch": 70, "duration": 10, "velocity": 40}, {"time": 54468, "pitch": 82, "duration": 10, "velocity": 60}, {"time": 54478, "pitch": 38, "duration": 10, "velocity": 112}, {"time": 54478, "pitch": 42, "duration": 10, "velocity": 85}, {"time": 54478, "pitch": 51, "duration": 10, "velocity": 92}, {"time": 54478, "pitch": 70, "duration": 10, "velocity": 65}, {"time": 54617, "pitch": 70, "duration": 10, "velocity": 40}, {"time": 54707, "pitch": 63, "duration": 10, "velocity": 100}, {"time": 54707, "pitch": 64, "duration": 10, "velocity": 119}, {"time": 54717, "pitch": 39, "duration": 10, "velocity": 113}, {"time": 54717, "pitch": 40, "duration": 10, "velocity": 122}, {"time": 54717, "pitch": 42, "duration": 10, "velocity": 90}, {"time": 54717, "pitch": 51, "duration": 10, "velocity": 92}, {"time": 54717, "pitch": 70, "duration": 10, "velocity": 65}, {"time": 54717, "pitch": 82, "duration": 10, "velocity": 70}, {"time": 54859, "pitch": 70, "duration": 10, "velocity": 40}, {"time": 54950, "pitch": 63, "duration": 10, "velocity": 110}, {"time": 54950, "pitch": 64, "duration": 10, "velocity": 119}, {"time": 54960, "pitch": 42, "duration": 10, "velocity": 85}, {"time": 54960, "pitch": 70, "duration": 10, "velocity": 65}, {"time": 55101, "pitch": 70, "duration": 10, "velocity": 40}, {"time": 55202, "pitch": 42, "duration": 10, "velocity": 90}, {"time": 55202, "pitch": 49, "duration": 10, "velocity": 104}, {"time": 55202, "pitch": 70, "duration": 10, "velocity": 65}, {"time": 55202, "pitch": 82, "duration": 10, "velocity": 62}, {"time": 55342, "pitch": 70, "duration": 10, "velocity": 40}, {"time": 55431, "pitch": 63, "duration": 10, "velocity": 96}, {"time": 55441, "pitch": 42, "duration": 10, "velocity": 85}, {"time": 55441, "pitch": 70, "duration": 10, "velocity": 65}, {"time": 55441, "pitch": 82, "duration": 10, "velocity": 70}, {"time": 55581, "pitch": 70, "duration": 10, "velocity": 40}, {"time": 55671, "pitch": 62, "duration": 10, "velocity": 107}, {"time": 55681, "pitch": 38, "duration": 10, "velocity": 112}, {"time": 55681, "pitch": 39, "duration": 10, "velocity": 113}, {"time": 55681, "pitch": 42, "duration": 10, "velocity": 90}, {"time": 55681, "pitch": 70, "duration": 10, "velocity": 65}, {"time": 55681, "pitch": 82, "duration": 10, "velocity": 71}, {"time": 55820, "pitch": 70, "duration": 10, "velocity": 40}, {"time": 55910, "pitch": 64, "duration": 10, "velocity": 107}, {"time": 55910, "pitch": 82, "duration": 10, "velocity": 68}, {"time": 55920, "pitch": 42, "duration": 10, "velocity": 85}, {"time": 55920, "pitch": 70, "duration": 10, "velocity": 65}, {"time": 56059, "pitch": 64, "duration": 10, "velocity": 107}, {"time": 56059, "pitch": 70, "duration": 10, "velocity": 40}, {"time": 56149, "pitch": 82, "duration": 10, "velocity": 66}, {"time": 56159, "pitch": 42, "duration": 10, "velocity": 90}, {"time": 56159, "pitch": 70, "duration": 10, "velocity": 65}, {"time": 56299, "pitch": 70, "duration": 10, "velocity": 40}, {"time": 56388, "pitch": 63, "duration": 10, "velocity": 100}, {"time": 56388, "pitch": 82, "duration": 10, "velocity": 67}, {"time": 56398, "pitch": 42, "duration": 10, "velocity": 85}, {"time": 56398, "pitch": 70, "duration": 10, "velocity": 65}, {"time": 56538, "pitch": 70, "duration": 10, "velocity": 40}, {"time": 56627, "pitch": 62, "duration": 10, "velocity": 113}, {"time": 56637, "pitch": 38, "duration": 11, "velocity": 112}, {"time": 56637, "pitch": 39, "duration": 11, "velocity": 113}, {"time": 56637, "pitch": 42, "duration": 11, "velocity": 90}, {"time": 56637, "pitch": 70, "duration": 11, "velocity": 65}, {"time": 56637, "pitch": 82, "duration": 11, "velocity": 69}, {"time": 56779, "pitch": 70, "duration": 10, "velocity": 40}, {"time": 56880, "pitch": 42, "duration": 10, "velocity": 85}, {"time": 56880, "pitch": 70, "duration": 10, "velocity": 65}, {"time": 56880, "pitch": 82, "duration": 10, "velocity": 66}, {"time": 57022, "pitch": 70, "duration": 10, "velocity": 40}, {"time": 57123, "pitch": 42, "duration": 10, "velocity": 90}, {"time": 57123, "pitch": 70, "duration": 10, "velocity": 65}, {"time": 57123, "pitch": 82, "duration": 10, "velocity": 73}, {"time": 57262, "pitch": 70, "duration": 10, "velocity": 40}, {"time": 57352, "pitch": 63, "duration": 10, "velocity": 104}, {"time": 57352, "pitch": 82, "duration": 10, "velocity": 59}, {"time": 57362, "pitch": 42, "duration": 10, "velocity": 85}, {"time": 57362, "pitch": 70, "duration": 10, "velocity": 65}, {"time": 57501, "pitch": 70, "duration": 10, "velocity": 40}, {"time": 57591, "pitch": 62, "duration": 10, "velocity": 113}, {"time": 57601, "pitch": 38, "duration": 10, "velocity": 112}, {"time": 57601, "pitch": 39, "duration": 10, "velocity": 113}, {"time": 57601, "pitch": 42, "duration": 10, "velocity": 90}, {"time": 57601, "pitch": 70, "duration": 10, "velocity": 65}, {"time": 57601, "pitch": 82, "duration": 10, "velocity": 63}, {"time": 57741, "pitch": 70, "duration": 10, "velocity": 40}, {"time": 57830, "pitch": 64, "duration": 10, "velocity": 107}, {"time": 57840, "pitch": 42, "duration": 10, "velocity": 85}, {"time": 57840, "pitch": 70, "duration": 10, "velocity": 65}, {"time": 57840, "pitch": 82, "duration": 10, "velocity": 60}, {"time": 57980, "pitch": 64, "duration": 10, "velocity": 104}, {"time": 57980, "pitch": 70, "duration": 10, "velocity": 40}, {"time": 58069, "pitch": 82, "duration": 10, "velocity": 74}, {"time": 58079, "pitch": 42, "duration": 10, "velocity": 90}, {"time": 58079, "pitch": 70, "duration": 10, "velocity": 65}, {"time": 58219, "pitch": 63, "duration": 10, "velocity": 110}, {"time": 58219, "pitch": 70, "duration": 10, "velocity": 40}, {"time": 58309, "pitch": 82, "duration": 10, "velocity": 63}, {"time": 58319, "pitch": 42, "duration": 10, "velocity": 85}, {"time": 58319, "pitch": 70, "duration": 10, "velocity": 65}, {"time": 58458, "pitch": 70, "duration": 10, "velocity": 40}, {"time": 58548, "pitch": 63, "duration": 10, "velocity": 96}, {"time": 58558, "pitch": 38, "duration": 10, "velocity": 112}, {"time": 58558, "pitch": 39, "duration": 10, "velocity": 113}, {"time": 58558, "pitch": 42, "duration": 10, "velocity": 90}, {"time": 58558, "pitch": 70, "duration": 10, "velocity": 65}, {"time": 58558, "pitch": 82, "duration": 10, "velocity": 68}, {"time": 58699, "pitch": 63, "duration": 10, "velocity": 94}, {"time": 58699, "pitch": 70, "duration": 10, "velocity": 40}, {"time": 58790, "pitch": 62, "duration": 10, "velocity": 119}, {"time": 58790, "pitch": 82, "duration": 10, "velocity": 60}, {"time": 58800, "pitch": 42, "duration": 11, "velocity": 85}, {"time": 58800, "pitch": 70, "duration": 11, "velocity": 65}, {"time": 58942, "pitch": 70, "duration": 10, "velocity": 40}, {"time": 59043, "pitch": 42, "duration": 10, "velocity": 90}, {"time": 59043, "pitch": 70, "duration": 10, "velocity": 65}, {"time": 59043, "pitch": 82, "duration": 10, "velocity": 62}, {"time": 59183, "pitch": 70, "duration": 10, "velocity": 40}, {"time": 59272, "pitch": 63, "duration": 10, "velocity": 100}, {"time": 59282, "pitch": 42, "duration": 10, "velocity": 85}, {"time": 59282, "pitch": 70, "duration": 10, "velocity": 65}, {"time": 59282, "pitch": 82, "duration": 10, "velocity": 67}, {"time": 59422, "pitch": 70, "duration": 10, "velocity": 40}, {"time": 59512, "pitch": 62, "duration": 9, "velocity": 113}, {"time": 59512, "pitch": 82, "duration": 9, "velocity": 70}, {"time": 59521, "pitch": 38, "duration": 10, "velocity": 112}, {"time": 59521, "pitch": 39, "duration": 10, "velocity": 113}, {"time": 59521, "pitch": 42, "duration": 10, "velocity": 90}, {"time": 59521, "pitch": 70, "duration": 10, "velocity": 65}, {"time": 59661, "pitch": 70, "duration": 10, "velocity": 40}, {"time": 59751, "pitch": 64, "duration": 10, "velocity": 104}, {"time": 59751, "pitch": 82, "duration": 10, "velocity": 69}, {"time": 59761, "pitch": 42, "duration": 10, "velocity": 85}, {"time": 59761, "pitch": 70, "duration": 10, "velocity": 65}, {"time": 59900, "pitch": 64, "duration": 10, "velocity": 107}, {"time": 59900, "pitch": 70, "duration": 10, "velocity": 40}, {"time": 60000, "pitch": 42, "duration": 10, "velocity": 90}, {"time": 60000, "pitch": 70, "duration": 10, "velocity": 65}, {"time": 60000, "pitch": 82, "duration": 10, "velocity": 71}, {"time": 60139, "pitch": 70, "duration": 10, "velocity": 40}, {"time": 60229, "pitch": 63, "duration": 10, "velocity": 116}, {"time": 60229, "pitch": 82, "duration": 10, "velocity": 60}, {"time": 60239, "pitch": 42, "duration": 10, "velocity": 85}, {"time": 60239, "pitch": 70, "duration": 10, "velocity": 65}, {"time": 60379, "pitch": 70, "duration": 10, "velocity": 40}, {"time": 60468, "pitch": 62, "duration": 10, "velocity": 113}, {"time": 60468, "pitch": 82, "duration": 10, "velocity": 65}, {"time": 60478, "pitch": 38, "duration": 10, "velocity": 112}, {"time": 60478, "pitch": 39, "duration": 10, "velocity": 113}, {"time": 60478, "pitch": 42, "duration": 10, "velocity": 90}, {"time": 60478, "pitch": 70, "duration": 10, "velocity": 65}, {"time": 60618, "pitch": 70, "duration": 10, "velocity": 40}, {"time": 60717, "pitch": 42, "duration": 10, "velocity": 85}, {"time": 60717, "pitch": 70, "duration": 10, "velocity": 65}, {"time": 60717, "pitch": 82, "duration": 10, "velocity": 67}, {"time": 60847, "pitch": 38, "duration": 10, "velocity": 50}, {"time": 60857, "pitch": 38, "duration": 10, "velocity": 55}, {"time": 60857, "pitch": 70, "duration": 10, "velocity": 40}, {"time": 60877, "pitch": 38, "duration": 10, "velocity": 59}, {"time": 60887, "pitch": 38, "duration": 10, "velocity": 64}, {"time": 60897, "pitch": 38, "duration": 10, "velocity": 68}, {"time": 60917, "pitch": 38, "duration": 10, "velocity": 73}, {"time": 60927, "pitch": 38, "duration": 10, "velocity": 78}, {"time": 60937, "pitch": 38, "duration": 10, "velocity": 82}, {"time": 60947, "pitch": 82, "duration": 10, "velocity": 63}, {"time": 60957, "pitch": 38, "duration": 10, "velocity": 92}, {"time": 60957, "pitch": 42, "duration": 10, "velocity": 90}, {"time": 60957, "pitch": 51, "duration": 10, "velocity": 92}, {"time": 60957, "pitch": 70, "duration": 10, "velocity": 65}, {"time": 60957, "pitch": 82, "duration": 10, "velocity": 63}, {"time": 61098, "pitch": 70, "duration": 10, "velocity": 40}, {"time": 61189, "pitch": 63, "duration": 10, "velocity": 116}, {"time": 61189, "pitch": 82, "duration": 10, "velocity": 69}, {"time": 61199, "pitch": 42, "duration": 10, "velocity": 85}, {"time": 61199, "pitch": 51, "duration": 10, "velocity": 92}, {"time": 61199, "pitch": 70, "duration": 10, "velocity": 65}, {"time": 61341, "pitch": 70, "duration": 10, "velocity": 40}, {"time": 61432, "pitch": 64, "duration": 10, "velocity": 81}, {"time": 61442, "pitch": 38, "duration": 10, "velocity": 112}, {"time": 61442, "pitch": 39, "duration": 10, "velocity": 113}, {"time": 61442, "pitch": 42, "duration": 10, "velocity": 90}, {"time": 61442, "pitch": 51, "duration": 10, "velocity": 92}, {"time": 61442, "pitch": 70, "duration": 10, "velocity": 65}, {"time": 61442, "pitch": 82, "duration": 10, "velocity": 58}, {"time": 61581, "pitch": 70, "duration": 10, "velocity": 40}, {"time": 61671, "pitch": 63, "duration": 10, "velocity": 123}, {"time": 61671, "pitch": 64, "duration": 10, "velocity": 127}, {"time": 61671, "pitch": 82, "duration": 10, "velocity": 74}, {"time": 61681, "pitch": 42, "duration": 10, "velocity": 85}, {"time": 61681, "pitch": 51, "duration": 10, "velocity": 92}, {"time": 61681, "pitch": 70, "duration": 10, "velocity": 65}, {"time": 61821, "pitch": 38, "duration": 10, "velocity": 92}, {"time": 61821, "pitch": 70, "duration": 10, "velocity": 40}, {"time": 61910, "pitch": 82, "duration": 10, "velocity": 75}, {"time": 61920, "pitch": 38, "duration": 10, "velocity": 112}, {"time": 61920, "pitch": 42, "duration": 10, "velocity": 90}, {"time": 61920, "pitch": 70, "duration": 10, "velocity": 65}, {"time": 62060, "pitch": 63, "duration": 10, "velocity": 96}, {"time": 62060, "pitch": 70, "duration": 10, "velocity": 40}, {"time": 62150, "pitch": 82, "duration": 10, "velocity": 60}, {"time": 62160, "pitch": 38, "duration": 9, "velocity": 112}, {"time": 62160, "pitch": 42, "duration": 9, "velocity": 85}, {"time": 62160, "pitch": 51, "duration": 9, "velocity": 92}, {"time": 62160, "pitch": 70, "duration": 9, "velocity": 65}, {"time": 62299, "pitch": 63, "duration": 10, "velocity": 94}, {"time": 62299, "pitch": 70, "duration": 10, "velocity": 40}, {"time": 62389, "pitch": 63, "duration": 10, "velocity": 100}, {"time": 62389, "pitch": 64, "duration": 10, "velocity": 119}, {"time": 62399, "pitch": 39, "duration": 10, "velocity": 113}, {"time": 62399, "pitch": 40, "duration": 10, "velocity": 122}, {"time": 62399, "pitch": 42, "duration": 10, "velocity": 90}, {"time": 62399, "pitch": 51, "duration": 10, "velocity": 92}, {"time": 62399, "pitch": 70, "duration": 10, "velocity": 65}, {"time": 62399, "pitch": 82, "duration": 10, "velocity": 70}, {"time": 62538, "pitch": 70, "duration": 10, "velocity": 40}, {"time": 62628, "pitch": 63, "duration": 10, "velocity": 110}, {"time": 62628, "pitch": 64, "duration": 10, "velocity": 119}, {"time": 62638, "pitch": 42, "duration": 10, "velocity": 85}, {"time": 62638, "pitch": 70, "duration": 10, "velocity": 65}, {"time": 62777, "pitch": 70, "duration": 10, "velocity": 40}, {"time": 63841, "pitch": 50, "duration": 10, "velocity": 100}, {"time": 63990, "pitch": 48, "duration": 10, "velocity": 115}, {"time": 64229, "pitch": 47, "duration": 10, "velocity": 100}, {"time": 64469, "pitch": 45, "duration": 10, "velocity": 115}, {"time": 64558, "pitch": 43, "duration": 10, "velocity": 94}, {"time": 64798, "pitch": 49, "duration": 10, "velocity": 104}, {"time": 64798, "pitch": 82, "duration": 10, "velocity": 62}, {"time": 65040, "pitch": 82, "duration": 10, "velocity": 67}, {"time": 65273, "pitch": 82, "duration": 10, "velocity": 70}, {"time": 65512, "pitch": 62, "duration": 10, "velocity": 91}, {"time": 65512, "pitch": 82, "duration": 10, "velocity": 69}, {"time": 65662, "pitch": 62, "duration": 9, "velocity": 113}, {"time": 65761, "pitch": 82, "duration": 10, "velocity": 71}, {"time": 65990, "pitch": 82, "duration": 10, "velocity": 60}, {"time": 66230, "pitch": 82, "duration": 10, "velocity": 65}, {"time": 66469, "pitch": 63, "duration": 10, "velocity": 87}, {"time": 66479, "pitch": 82, "duration": 10, "velocity": 67}, {"time": 66618, "pitch": 63, "duration": 10, "velocity": 107}, {"time": 66718, "pitch": 82, "duration": 10, "velocity": 62}, {"time": 66961, "pitch": 82, "duration": 10, "velocity": 67}, {"time": 67193, "pitch": 82, "duration": 10, "velocity": 70}, {"time": 67432, "pitch": 62, "duration": 10, "velocity": 88}, {"time": 67432, "pitch": 82, "duration": 10, "velocity": 69}, {"time": 67582, "pitch": 62, "duration": 10, "velocity": 119}, {"time": 67682, "pitch": 82, "duration": 10, "velocity": 71}, {"time": 67911, "pitch": 82, "duration": 10, "velocity": 60}, {"time": 68150, "pitch": 82, "duration": 10, "velocity": 65}, {"time": 68309, "pitch": 64, "duration": 10, "velocity": 114}, {"time": 68399, "pitch": 82, "duration": 10, "velocity": 67}, {"time": 68638, "pitch": 42, "duration": 10, "velocity": 90}, {"time": 68638, "pitch": 82, "duration": 10, "velocity": 62}, {"time": 68878, "pitch": 42, "duration": 10, "velocity": 85}, {"time": 68878, "pitch": 82, "duration": 10, "velocity": 67}, {"time": 69107, "pitch": 82, "duration": 10, "velocity": 70}, {"time": 69117, "pitch": 38, "duration": 10, "velocity": 112}, {"time": 69117, "pitch": 42, "duration": 10, "velocity": 90}, {"time": 69349, "pitch": 62, "duration": 10, "velocity": 91}, {"time": 69349, "pitch": 82, "duration": 10, "velocity": 69}, {"time": 69359, "pitch": 42, "duration": 10, "velocity": 85}, {"time": 69501, "pitch": 62, "duration": 10, "velocity": 119}, {"time": 69602, "pitch": 42, "duration": 10, "velocity": 90}, {"time": 69602, "pitch": 82, "duration": 10, "velocity": 71}, {"time": 69831, "pitch": 82, "duration": 10, "velocity": 60}, {"time": 69841, "pitch": 42, "duration": 10, "velocity": 85}, {"time": 70070, "pitch": 82, "duration": 10, "velocity": 65}, {"time": 70080, "pitch": 38, "duration": 10, "velocity": 112}, {"time": 70080, "pitch": 42, "duration": 10, "velocity": 90}, {"time": 70310, "pitch": 63, "duration": 10, "velocity": 82}, {"time": 70320, "pitch": 42, "duration": 10, "velocity": 85}, {"time": 70320, "pitch": 82, "duration": 10, "velocity": 67}, {"time": 70459, "pitch": 63, "duration": 10, "velocity": 107}, {"time": 70549, "pitch": 82, "duration": 10, "velocity": 63}, {"time": 70559, "pitch": 42, "duration": 10, "velocity": 90}, {"time": 70559, "pitch": 82, "duration": 10, "velocity": 63}, {"time": 70788, "pitch": 82, "duration": 10, "velocity": 69}, {"time": 70798, "pitch": 42, "duration": 10, "velocity": 85}, {"time": 71037, "pitch": 38, "duration": 10, "velocity": 112}, {"time": 71037, "pitch": 42, "duration": 10, "velocity": 90}, {"time": 71037, "pitch": 82, "duration": 10, "velocity": 58}, {"time": 71270, "pitch": 62, "duration": 10, "velocity": 86}, {"time": 71270, "pitch": 82, "duration": 10, "velocity": 74}, {"time": 71280, "pitch": 42, "duration": 10, "velocity": 85}, {"time": 71421, "pitch": 38, "duration": 10, "velocity": 92}, {"time": 71421, "pitch": 62, "duration": 10, "velocity": 119}, {"time": 71512, "pitch": 82, "duration": 10, "velocity": 75}, {"time": 71522, "pitch": 42, "duration": 10, "velocity": 90}, {"time": 71752, "pitch": 63, "duration": 10, "velocity": 91}, {"time": 71752, "pitch": 82, "duration": 10, "velocity": 60}, {"time": 71762, "pitch": 42, "duration": 10, "velocity": 85}, {"time": 72001, "pitch": 38, "duration": 10, "velocity": 112}, {"time": 72001, "pitch": 42, "duration": 10, "velocity": 90}, {"time": 72001, "pitch": 82, "duration": 10, "velocity": 70}, {"time": 72150, "pitch": 64, "duration": 10, "velocity": 122}, {"time": 72240, "pitch": 42, "duration": 10, "velocity": 85}, {"time": 72240, "pitch": 55, "duration": 10, "velocity": 124}, {"time": 72240, "pitch": 82, "duration": 10, "velocity": 75}, {"time": 72479, "pitch": 49, "duration": 10, "velocity": 104}, {"time": 72479, "pitch": 82, "duration": 10, "velocity": 62}, {"time": 72718, "pitch": 82, "duration": 10, "velocity": 70}, {"time": 72958, "pitch": 82, "duration": 10, "velocity": 71}, {"time": 73190, "pitch": 62, "duration": 10, "velocity": 91}, {"time": 73190, "pitch": 82, "duration": 10, "velocity": 68}, {"time": 73342, "pitch": 62, "duration": 10, "velocity": 113}, {"time": 73433, "pitch": 82, "duration": 10, "velocity": 66}, {"time": 73672, "pitch": 82, "duration": 10, "velocity": 67}, {"time": 73921, "pitch": 82, "duration": 10, "velocity": 69}, {"time": 74150, "pitch": 63, "duration": 10, "velocity": 87}, {"time": 74160, "pitch": 82, "duration": 10, "velocity": 66}, {"time": 74300, "pitch": 63, "duration": 10, "velocity": 107}, {"time": 74400, "pitch": 82, "duration": 10, "velocity": 73}, {"time": 74629, "pitch": 82, "duration": 10, "velocity": 59}, {"time": 74878, "pitch": 82, "duration": 10, "velocity": 63}, {"time": 75111, "pitch": 62, "duration": 10, "velocity": 88}, {"time": 75121, "pitch": 82, "duration": 10, "velocity": 60}, {"time": 75262, "pitch": 62, "duration": 10, "velocity": 119}, {"time": 75353, "pitch": 82, "duration": 10, "velocity": 74}, {"time": 75593, "pitch": 82, "duration": 9, "velocity": 63}, {"time": 75842, "pitch": 82, "duration": 10, "velocity": 68}, {"time": 75991, "pitch": 64, "duration": 10, "velocity": 114}, {"time": 76071, "pitch": 82, "duration": 10, "velocity": 60}, {"time": 76320, "pitch": 42, "duration": 10, "velocity": 90}, {"time": 76320, "pitch": 82, "duration": 10, "velocity": 62}, {"time": 76559, "pitch": 42, "duration": 10, "velocity": 85}, {"time": 76559, "pitch": 82, "duration": 10, "velocity": 67}, {"time": 76789, "pitch": 82, "duration": 9, "velocity": 70}, {"time": 76798, "pitch": 38, "duration": 10, "velocity": 112}, {"time": 76798, "pitch": 42, "duration": 10, "velocity": 90}, {"time": 77028, "pitch": 62, "duration": 10, "velocity": 91}, {"time": 77028, "pitch": 82, "duration": 10, "velocity": 69}, {"time": 77038, "pitch": 42, "duration": 10, "velocity": 85}, {"time": 77177, "pitch": 62, "duration": 10, "velocity": 119}, {"time": 77277, "pitch": 42, "duration": 10, "velocity": 90}, {"time": 77277, "pitch": 82, "duration": 10, "velocity": 71}, {"time": 77509, "pitch": 82, "duration": 10, "velocity": 60}, {"time": 77519, "pitch": 42, "duration": 11, "velocity": 85}, {"time": 77752, "pitch": 82, "duration": 10, "velocity": 65}, {"time": 77762, "pitch": 38, "duration": 10, "velocity": 112}, {"time": 77762, "pitch": 42, "duration": 10, "velocity": 90}, {"time": 77991, "pitch": 63, "duration": 10, "velocity": 82}, {"time": 78001, "pitch": 42, "duration": 10, "velocity": 85}, {"time": 78001, "pitch": 82, "duration": 10, "velocity": 67}, {"time": 78141, "pitch": 63, "duration": 10, "velocity": 107}, {"time": 78231, "pitch": 82, "duration": 10, "velocity": 63}, {"time": 78241, "pitch": 42, "duration": 9, "velocity": 90}, {"time": 78241, "pitch": 82, "duration": 9, "velocity": 63}, {"time": 78470, "pitch": 82, "duration": 10, "velocity": 69}, {"time": 78480, "pitch": 42, "duration": 10, "velocity": 85}, {"time": 78719, "pitch": 38, "duration": 10, "velocity": 112}, {"time": 78719, "pitch": 42, "duration": 10, "velocity": 90}, {"time": 78719, "pitch": 82, "duration": 10, "velocity": 58}, {"time": 78948, "pitch": 62, "duration": 10, "velocity": 86}, {"time": 78948, "pitch": 82, "duration": 10, "velocity": 74}, {"time": 78958, "pitch": 42, "duration": 10, "velocity": 85}, {"time": 79098, "pitch": 62, "duration": 10, "velocity": 119}, {"time": 79187, "pitch": 82, "duration": 10, "velocity": 75}, {"time": 79197, "pitch": 38, "duration": 10, "velocity": 112}, {"time": 79197, "pitch": 42, "duration": 10, "velocity": 90}, {"time": 79430, "pitch": 63, "duration": 10, "velocity": 91}, {"time": 79430, "pitch": 82, "duration": 10, "velocity": 60}, {"time": 79440, "pitch": 42, "duration": 10, "velocity": 85}, {"time": 79683, "pitch": 38, "duration": 9, "velocity": 112}, {"time": 79683, "pitch": 42, "duration": 9, "velocity": 90}, {"time": 79683, "pitch": 82, "duration": 9, "velocity": 70}, {"time": 79832, "pitch": 64, "duration": 10, "velocity": 122}, {"time": 79922, "pitch": 40, "duration": 10, "velocity": 122}, {"time": 79922, "pitch": 42, "duration": 10, "velocity": 85}, {"time": 79922, "pitch": 55, "duration": 10, "velocity": 124}, {"time": 79922, "pitch": 82, "duration": 10, "velocity": 75}, {"time": 80161, "pitch": 42, "duration": 10, "velocity": 90}, {"time": 80161, "pitch": 49, "duration": 10, "velocity": 104}, {"time": 80161, "pitch": 70, "duration": 10, "velocity": 65}, {"time": 80161, "pitch": 82, "duration": 10, "velocity": 62}, {"time": 80300, "pitch": 70, "duration": 10, "velocity": 40}, {"time": 80400, "pitch": 42, "duration": 10, "velocity": 85}, {"time": 80400, "pitch": 70, "duration": 10, "velocity": 65}, {"time": 80400, "pitch": 82, "duration": 10, "velocity": 67}, {"time": 80540, "pitch": 70, "duration": 10, "velocity": 40}, {"time": 80629, "pitch": 82, "duration": 10, "velocity": 70}, {"time": 80639, "pitch": 38, "duration": 10, "velocity": 112}, {"time": 80639, "pitch": 39, "duration": 10, "velocity": 113}, {"time": 80639, "pitch": 42, "duration": 10, "velocity": 90}, {"time": 80639, "pitch": 70, "duration": 10, "velocity": 65}, {"time": 80779, "pitch": 70, "duration": 10, "velocity": 40}, {"time": 80869, "pitch": 62, "duration": 10, "velocity": 91}, {"time": 80869, "pitch": 82, "duration": 10, "velocity": 69}, {"time": 80879, "pitch": 42, "duration": 9, "velocity": 85}, {"time": 80879, "pitch": 70, "duration": 9, "velocity": 65}, {"time": 81018, "pitch": 62, "duration": 10, "velocity": 113}, {"time": 81018, "pitch": 70, "duration": 10, "velocity": 40}, {"time": 81118, "pitch": 42, "duration": 10, "velocity": 90}, {"time": 81118, "pitch": 70, "duration": 10, "velocity": 65}, {"time": 81118, "pitch": 82, "duration": 10, "velocity": 71}, {"time": 81259, "pitch": 70, "duration": 10, "velocity": 40}, {"time": 81350, "pitch": 82, "duration": 10, "velocity": 60}, {"time": 81360, "pitch": 42, "duration": 10, "velocity": 85}, {"time": 81360, "pitch": 70, "duration": 10, "velocity": 65}, {"time": 81502, "pitch": 70, "duration": 10, "velocity": 40}, {"time": 81593, "pitch": 82, "duration": 10, "velocity": 65}, {"time": 81603, "pitch": 38, "duration": 10, "velocity": 112}, {"time": 81603, "pitch": 39, "duration": 10, "velocity": 113}, {"time": 81603, "pitch": 42, "duration": 10, "velocity": 90}, {"time": 81603, "pitch": 70, "duration": 10, "velocity": 65}, {"time": 81742, "pitch": 70, "duration": 10, "velocity": 40}, {"time": 81832, "pitch": 63, "duration": 10, "velocity": 87}, {"time": 81842, "pitch": 42, "duration": 10, "velocity": 85}, {"time": 81842, "pitch": 70, "duration": 10, "velocity": 65}, {"time": 81842, "pitch": 82, "duration": 10, "velocity": 67}, {"time": 81982, "pitch": 63, "duration": 10, "velocity": 107}, {"time": 81982, "pitch": 70, "duration": 10, "velocity": 40}, {"time": 82081, "pitch": 42, "duration": 10, "velocity": 90}, {"time": 82081, "pitch": 70, "duration": 10, "velocity": 65}, {"time": 82081, "pitch": 82, "duration": 10, "velocity": 62}, {"time": 82221, "pitch": 70, "duration": 10, "velocity": 40}, {"time": 82321, "pitch": 42, "duration": 10, "velocity": 85}, {"time": 82321, "pitch": 70, "duration": 10, "velocity": 65}, {"time": 82321, "pitch": 82, "duration": 10, "velocity": 67}, {"time": 82460, "pitch": 70, "duration": 10, "velocity": 40}, {"time": 82550, "pitch": 82, "duration": 10, "velocity": 70}, {"time": 82560, "pitch": 38, "duration": 10, "velocity": 112}, {"time": 82560, "pitch": 39, "duration": 10, "velocity": 113}, {"time": 82560, "pitch": 42, "duration": 10, "velocity": 90}, {"time": 82560, "pitch": 70, "duration": 10, "velocity": 65}, {"time": 82699, "pitch": 70, "duration": 10, "velocity": 40}, {"time": 82789, "pitch": 62, "duration": 10, "velocity": 88}, {"time": 82789, "pitch": 82, "duration": 10, "velocity": 69}, {"time": 82799, "pitch": 42, "duration": 10, "velocity": 85}, {"time": 82799, "pitch": 70, "duration": 10, "velocity": 65}, {"time": 82938, "pitch": 62, "duration": 10, "velocity": 119}, {"time": 82938, "pitch": 70, "duration": 10, "velocity": 40}, {"time": 83038, "pitch": 42, "duration": 10, "velocity": 90}, {"time": 83038, "pitch": 70, "duration": 10, "velocity": 65}, {"time": 83038, "pitch": 82, "duration": 10, "velocity": 71}, {"time": 83180, "pitch": 70, "duration": 10, "velocity": 40}, {"time": 83271, "pitch": 82, "duration": 10, "velocity": 60}, {"time": 83281, "pitch": 42, "duration": 10, "velocity": 85}, {"time": 83281, "pitch": 70, "duration": 10, "velocity": 65}, {"time": 83422, "pitch": 70, "duration": 10, "velocity": 40}, {"time": 83513, "pitch": 82, "duration": 10, "velocity": 65}, {"time": 83523, "pitch": 38, "duration": 10, "velocity": 112}, {"time": 83523, "pitch": 39, "duration": 10, "velocity": 113}, {"time": 83523, "pitch": 42, "duration": 10, "velocity": 90}, {"time": 83523, "pitch": 70, "duration": 10, "velocity": 65}, {"time": 83663, "pitch": 70, "duration": 10, "velocity": 40}, {"time": 83673, "pitch": 64, "duration": 10, "velocity": 114}, {"time": 83763, "pitch": 42, "duration": 10, "velocity": 85}, {"time": 83763, "pitch": 70, "duration": 10, "velocity": 65}, {"time": 83763, "pitch": 82, "duration": 10, "velocity": 67}, {"time": 83902, "pitch": 70, "duration": 10, "velocity": 40}, {"time": 84002, "pitch": 42, "duration": 10, "velocity": 90}, {"time": 84002, "pitch": 70, "duration": 10, "velocity": 65}, {"time": 84002, "pitch": 82, "duration": 10, "velocity": 62}, {"time": 84141, "pitch": 70, "duration": 10, "velocity": 40}, {"time": 84241, "pitch": 42, "duration": 10, "velocity": 85}, {"time": 84241, "pitch": 70, "duration": 10, "velocity": 65}, {"time": 84241, "pitch": 82, "duration": 10, "velocity": 67}, {"time": 84381, "pitch": 70, "duration": 9, "velocity": 40}, {"time": 84470, "pitch": 82, "duration": 10, "velocity": 70}, {"time": 84480, "pitch": 38, "duration": 10, "velocity": 112}, {"time": 84480, "pitch": 39, "duration": 10, "velocity": 113}, {"time": 84480, "pitch": 42, "duration": 10, "velocity": 90}, {"time": 84480, "pitch": 70, "duration": 10, "velocity": 65}, {"time": 84620, "pitch": 70, "duration": 10, "velocity": 40}, {"time": 84709, "pitch": 62, "duration": 10, "velocity": 91}, {"time": 84709, "pitch": 82, "duration": 10, "velocity": 69}, {"time": 84719, "pitch": 42, "duration": 10, "velocity": 85}, {"time": 84719, "pitch": 70, "duration": 10, "velocity": 65}, {"time": 84859, "pitch": 62, "duration": 10, "velocity": 119}, {"time": 84859, "pitch": 70, "duration": 10, "velocity": 40}, {"time": 84959, "pitch": 42, "duration": 10, "velocity": 90}, {"time": 84959, "pitch": 70, "duration": 10, "velocity": 65}, {"time": 84959, "pitch": 82, "duration": 10, "velocity": 71}, {"time": 85098, "pitch": 70, "duration": 10, "velocity": 40}, {"time": 85188, "pitch": 82, "duration": 10, "velocity": 60}, {"time": 85198, "pitch": 42, "duration": 10, "velocity": 85}, {"time": 85198, "pitch": 70, "duration": 10, "velocity": 65}, {"time": 85337, "pitch": 70, "duration": 10, "velocity": 40}, {"time": 85427, "pitch": 82, "duration": 10, "velocity": 65}, {"time": 85437, "pitch": 38, "duration": 10, "velocity": 112}, {"time": 85437, "pitch": 39, "duration": 10, "velocity": 113}, {"time": 85437, "pitch": 42, "duration": 10, "velocity": 90}, {"time": 85437, "pitch": 70, "duration": 10, "velocity": 65}, {"time": 85578, "pitch": 70, "duration": 11, "velocity": 40}, {"time": 85669, "pitch": 63, "duration": 11, "velocity": 82}, {"time": 85680, "pitch": 42, "duration": 10, "velocity": 85}, {"time": 85680, "pitch": 70, "duration": 10, "velocity": 65}, {"time": 85680, "pitch": 82, "duration": 10, "velocity": 67}, {"time": 85821, "pitch": 63, "duration": 10, "velocity": 107}, {"time": 85821, "pitch": 70, "duration": 10, "velocity": 40}, {"time": 85912, "pitch": 82, "duration": 10, "velocity": 63}, {"time": 85922, "pitch": 42, "duration": 10, "velocity": 90}, {"time": 85922, "pitch": 51, "duration": 10, "velocity": 92}, {"time": 85922, "pitch": 70, "duration": 10, "velocity": 65}, {"time": 85922, "pitch": 82, "duration": 10, "velocity": 63}, {"time": 86062, "pitch": 70, "duration": 10, "velocity": 40}, {"time": 86151, "pitch": 51, "duration": 10, "velocity": 107}, {"time": 86151, "pitch": 63, "duration": 10, "velocity": 91}, {"time": 86151, "pitch": 82, "duration": 10, "velocity": 69}, {"time": 86161, "pitch": 38, "duration": 10, "velocity": 112}, {"time": 86161, "pitch": 39, "duration": 10, "velocity": 113}, {"time": 86161, "pitch": 42, "duration": 10, "velocity": 85}, {"time": 86161, "pitch": 70, "duration": 10, "velocity": 65}, {"time": 86301, "pitch": 70, "duration": 10, "velocity": 40}, {"time": 86401, "pitch": 42, "duration": 10, "velocity": 90}, {"time": 86401, "pitch": 51, "duration": 10, "velocity": 92}, {"time": 86401, "pitch": 70, "duration": 10, "velocity": 65}, {"time": 86401, "pitch": 82, "duration": 10, "velocity": 58}, {"time": 86540, "pitch": 70, "duration": 10, "velocity": 40}, {"time": 86630, "pitch": 51, "duration": 10, "velocity": 107}, {"time": 86630, "pitch": 63, "duration": 10, "velocity": 86}, {"time": 86630, "pitch": 82, "duration": 10, "velocity": 74}, {"time": 86640, "pitch": 38, "duration": 10, "velocity": 112}, {"time": 86640, "pitch": 39, "duration": 10, "velocity": 113}, {"time": 86640, "pitch": 42, "duration": 10, "velocity": 85}, {"time": 86640, "pitch": 70, "duration": 10, "velocity": 65}, {"time": 86779, "pitch": 38, "duration": 10, "velocity": 92}, {"time": 86779, "pitch": 62, "duration": 10, "velocity": 119}, {"time": 86779, "pitch": 70, "duration": 10, "velocity": 40}, {"time": 86869, "pitch": 51, "duration": 10, "velocity": 92}, {"time": 86869, "pitch": 82, "duration": 10, "velocity": 75}, {"time": 86879, "pitch": 42, "duration": 10, "velocity": 90}, {"time": 86879, "pitch": 70, "duration": 10, "velocity": 65}, {"time": 87019, "pitch": 70, "duration": 9, "velocity": 40}, {"time": 87108, "pitch": 51, "duration": 10, "velocity": 107}, {"time": 87108, "pitch": 63, "duration": 10, "velocity": 91}, {"time": 87108, "pitch": 82, "duration": 10, "velocity": 60}, {"time": 87118, "pitch": 38, "duration": 10, "velocity": 112}, {"time": 87118, "pitch": 39, "duration": 10, "velocity": 113}, {"time": 87118, "pitch": 42, "duration": 10, "velocity": 85}, {"time": 87118, "pitch": 70, "duration": 10, "velocity": 65}, {"time": 87258, "pitch": 64, "duration": 10, "velocity": 119}, {"time": 87258, "pitch": 70, "duration": 10, "velocity": 40}, {"time": 87357, "pitch": 42, "duration": 10, "velocity": 90}, {"time": 87357, "pitch": 51, "duration": 10, "velocity": 92}, {"time": 87357, "pitch": 70, "duration": 10, "velocity": 65}, {"time": 87357, "pitch": 82, "duration": 10, "velocity": 70}, {"time": 87499, "pitch": 70, "duration": 10, "velocity": 40}, {"time": 87509, "pitch": 64, "duration": 10, "velocity": 122}, {"time": 87600, "pitch": 39, "duration": 10, "velocity": 113}, {"time": 87600, "pitch": 40, "duration": 10, "velocity": 122}, {"time": 87600, "pitch": 42, "duration": 10, "velocity": 85}, {"time": 87600, "pitch": 55, "duration": 10, "velocity": 124}, {"time": 87600, "pitch": 70, "duration": 10, "velocity": 65}, {"time": 87600, "pitch": 82, "duration": 10, "velocity": 75}, {"time": 87742, "pitch": 70, "duration": 10, "velocity": 40}, {"time": 87843, "pitch": 42, "duration": 10, "velocity": 90}, {"time": 87843, "pitch": 49, "duration": 10, "velocity": 104}, {"time": 87843, "pitch": 70, "duration": 10, "velocity": 65}, {"time": 87843, "pitch": 82, "duration": 10, "velocity": 62}, {"time": 87982, "pitch": 70, "duration": 10, "velocity": 40}, {"time": 88082, "pitch": 42, "duration": 10, "velocity": 85}, {"time": 88082, "pitch": 70, "duration": 10, "velocity": 65}, {"time": 88082, "pitch": 82, "duration": 10, "velocity": 70}, {"time": 88221, "pitch": 70, "duration": 10, "velocity": 40}, {"time": 88321, "pitch": 38, "duration": 10, "velocity": 112}, {"time": 88321, "pitch": 39, "duration": 10, "velocity": 113}, {"time": 88321, "pitch": 42, "duration": 10, "velocity": 90}, {"time": 88321, "pitch": 70, "duration": 10, "velocity": 65}, {"time": 88321, "pitch": 82, "duration": 10, "velocity": 71}, {"time": 88461, "pitch": 70, "duration": 10, "velocity": 40}, {"time": 88550, "pitch": 62, "duration": 10, "velocity": 91}, {"time": 88550, "pitch": 82, "duration": 10, "velocity": 68}, {"time": 88560, "pitch": 42, "duration": 10, "velocity": 85}, {"time": 88560, "pitch": 70, "duration": 10, "velocity": 65}, {"time": 88700, "pitch": 62, "duration": 10, "velocity": 113}, {"time": 88700, "pitch": 70, "duration": 10, "velocity": 40}, {"time": 88789, "pitch": 82, "duration": 10, "velocity": 66}, {"time": 88799, "pitch": 42, "duration": 10, "velocity": 90}, {"time": 88799, "pitch": 70, "duration": 10, "velocity": 65}, {"time": 88939, "pitch": 70, "duration": 10, "velocity": 40}, {"time": 89029, "pitch": 82, "duration": 10, "velocity": 67}, {"time": 89039, "pitch": 42, "duration": 10, "velocity": 85}, {"time": 89039, "pitch": 70, "duration": 10, "velocity": 65}, {"time": 89178, "pitch": 70, "duration": 10, "velocity": 40}, {"time": 89278, "pitch": 38, "duration": 10, "velocity": 112}, {"time": 89278, "pitch": 39, "duration": 10, "velocity": 113}, {"time": 89278, "pitch": 42, "duration": 10, "velocity": 90}, {"time": 89278, "pitch": 70, "duration": 10, "velocity": 65}, {"time": 89278, "pitch": 82, "duration": 10, "velocity": 69}, {"time": 89419, "pitch": 70, "duration": 10, "velocity": 40}, {"time": 89510, "pitch": 63, "duration": 10, "velocity": 87}, {"time": 89520, "pitch": 42, "duration": 11, "velocity": 85}, {"time": 89520, "pitch": 70, "duration": 11, "velocity": 65}, {"time": 89520, "pitch": 82, "duration": 11, "velocity": 66}, {"time": 89662, "pitch": 63, "duration": 10, "velocity": 107}, {"time": 89662, "pitch": 70, "duration": 10, "velocity": 40}, {"time": 89763, "pitch": 42, "duration": 10, "velocity": 90}, {"time": 89763, "pitch": 70, "duration": 10, "velocity": 65}, {"time": 89763, "pitch": 82, "duration": 10, "velocity": 73}, {"time": 89903, "pitch": 70, "duration": 10, "velocity": 40}, {"time": 89992, "pitch": 82, "duration": 10, "velocity": 59}, {"time": 90002, "pitch": 42, "duration": 10, "velocity": 85}, {"time": 90002, "pitch": 70, "duration": 10, "velocity": 65}, {"time": 90142, "pitch": 70, "duration": 10, "velocity": 40}, {"time": 90241, "pitch": 38, "duration": 10, "velocity": 112}, {"time": 90241, "pitch": 39, "duration": 10, "velocity": 113}, {"time": 90241, "pitch": 42, "duration": 10, "velocity": 90}, {"time": 90241, "pitch": 70, "duration": 10, "velocity": 65}, {"time": 90241, "pitch": 82, "duration": 10, "velocity": 63}, {"time": 90381, "pitch": 70, "duration": 10, "velocity": 40}, {"time": 90471, "pitch": 62, "duration": 10, "velocity": 88}, {"time": 90481, "pitch": 42, "duration": 10, "velocity": 85}, {"time": 90481, "pitch": 70, "duration": 10, "velocity": 65}, {"time": 90481, "pitch": 82, "duration": 10, "velocity": 60}, {"time": 90620, "pitch": 62, "duration": 10, "velocity": 119}, {"time": 90620, "pitch": 70, "duration": 10, "velocity": 40}, {"time": 90710, "pitch": 82, "duration": 10, "velocity": 74}, {"time": 90720, "pitch": 42, "duration": 10, "velocity": 90}, {"time": 90720, "pitch": 70, "duration": 10, "velocity": 65}, {"time": 90859, "pitch": 70, "duration": 10, "velocity": 40}, {"time": 90949, "pitch": 82, "duration": 10, "velocity": 63}, {"time": 90959, "pitch": 42, "duration": 10, "velocity": 85}, {"time": 90959, "pitch": 70, "duration": 10, "velocity": 65}, {"time": 91099, "pitch": 70, "duration": 10, "velocity": 40}, {"time": 91198, "pitch": 38, "duration": 10, "velocity": 112}, {"time": 91198, "pitch": 39, "duration": 10, "velocity": 113}, {"time": 91198, "pitch": 42, "duration": 10, "velocity": 90}, {"time": 91198, "pitch": 70, "duration": 10, "velocity": 65}, {"time": 91198, "pitch": 82, "duration": 10, "velocity": 68}, {"time": 91338, "pitch": 70, "duration": 10, "velocity": 40}, {"time": 91348, "pitch": 64, "duration": 10, "velocity": 114}, {"time": 91427, "pitch": 82, "duration": 10, "velocity": 60}, {"time": 91437, "pitch": 42, "duration": 10, "velocity": 85}, {"time": 91437, "pitch": 70, "duration": 10, "velocity": 65}, {"time": 91577, "pitch": 70, "duration": 10, "velocity": 40}, {"time": 91677, "pitch": 42, "duration": 10, "velocity": 90}, {"time": 91677, "pitch": 70, "duration": 10, "velocity": 65}, {"time": 91677, "pitch": 82, "duration": 10, "velocity": 62}, {"time": 91818, "pitch": 70, "duration": 10, "velocity": 40}, {"time": 91919, "pitch": 42, "duration": 10, "velocity": 85}, {"time": 91919, "pitch": 70, "duration": 10, "velocity": 65}, {"time": 91919, "pitch": 82, "duration": 10, "velocity": 67}, {"time": 92061, "pitch": 70, "duration": 10, "velocity": 40}, {"time": 92152, "pitch": 82, "duration": 10, "velocity": 70}, {"time": 92162, "pitch": 38, "duration": 10, "velocity": 112}, {"time": 92162, "pitch": 39, "duration": 10, "velocity": 113}, {"time": 92162, "pitch": 42, "duration": 10, "velocity": 90}, {"time": 92162, "pitch": 70, "duration": 10, "velocity": 65}, {"time": 92301, "pitch": 70, "duration": 10, "velocity": 40}, {"time": 92391, "pitch": 62, "duration": 10, "velocity": 91}, {"time": 92391, "pitch": 82, "duration": 10, "velocity": 69}, {"time": 92401, "pitch": 42, "duration": 10, "velocity": 85}, {"time": 92401, "pitch": 70, "duration": 10, "velocity": 65}, {"time": 92541, "pitch": 49, "duration": 10, "velocity": 104}, {"time": 92541, "pitch": 62, "duration": 10, "velocity": 119}, {"time": 92541, "pitch": 70, "duration": 10, "velocity": 40}, {"time": 92640, "pitch": 42, "duration": 10, "velocity": 90}, {"time": 92640, "pitch": 70, "duration": 10, "velocity": 65}, {"time": 92640, "pitch": 82, "duration": 10, "velocity": 71}, {"time": 92780, "pitch": 38, "duration": 10, "velocity": 92}, {"time": 92780, "pitch": 70, "duration": 10, "velocity": 40}, {"time": 92869, "pitch": 82, "duration": 10, "velocity": 60}, {"time": 92879, "pitch": 42, "duration": 10, "velocity": 85}, {"time": 92879, "pitch": 70, "duration": 10, "velocity": 65}, {"time": 93019, "pitch": 70, "duration": 10, "velocity": 40}, {"time": 93109, "pitch": 82, "duration": 10, "velocity": 65}, {"time": 93119, "pitch": 38, "duration": 10, "velocity": 112}, {"time": 93119, "pitch": 39, "duration": 10, "velocity": 113}, {"time": 93119, "pitch": 42, "duration": 10, "velocity": 90}, {"time": 93119, "pitch": 70, "duration": 10, "velocity": 65}, {"time": 93258, "pitch": 70, "duration": 10, "velocity": 40}, {"time": 93348, "pitch": 63, "duration": 10, "velocity": 82}, {"time": 93358, "pitch": 42, "duration": 10, "velocity": 85}, {"time": 93358, "pitch": 70, "duration": 10, "velocity": 65}, {"time": 93358, "pitch": 82, "duration": 10, "velocity": 67}, {"time": 93487, "pitch": 38, "duration": 10, "velocity": 50}, {"time": 93497, "pitch": 38, "duration": 10, "velocity": 55}, {"time": 93497, "pitch": 63, "duration": 10, "velocity": 107}, {"time": 93497, "pitch": 70, "duration": 10, "velocity": 40}, {"time": 93517, "pitch": 38, "duration": 10, "velocity": 59}, {"time": 93527, "pitch": 38, "duration": 10, "velocity": 64}, {"time": 93537, "pitch": 38, "duration": 10, "velocity": 68}, {"time": 93557, "pitch": 38, "duration": 10, "velocity": 73}, {"time": 93567, "pitch": 38, "duration": 10, "velocity": 78}, {"time": 93577, "pitch": 38, "duration": 10, "velocity": 82}, {"time": 93587, "pitch": 82, "duration": 10, "velocity": 63}, {"time": 93597, "pitch": 38, "duration": 10, "velocity": 92}, {"time": 93597, "pitch": 42, "duration": 10, "velocity": 90}, {"time": 93597, "pitch": 49, "duration": 10, "velocity": 104}, {"time": 93597, "pitch": 51, "duration": 10, "velocity": 92}, {"time": 93597, "pitch": 70, "duration": 10, "velocity": 65}, {"time": 93597, "pitch": 82, "duration": 10, "velocity": 63}, {"time": 93739, "pitch": 70, "duration": 10, "velocity": 40}, {"time": 93830, "pitch": 51, "duration": 10, "velocity": 107}, {"time": 93830, "pitch": 63, "duration": 10, "velocity": 91}, {"time": 93830, "pitch": 82, "duration": 10, "velocity": 69}, {"time": 93840, "pitch": 38, "duration": 10, "velocity": 112}, {"time": 93840, "pitch": 39, "duration": 10, "velocity": 113}, {"time": 93840, "pitch": 42, "duration": 10, "velocity": 85}, {"time": 93840, "pitch": 50, "duration": 10, "velocity": 115}, {"time": 93840, "pitch": 70, "duration": 10, "velocity": 65}, {"time": 93981, "pitch": 70, "duration": 10, "velocity": 40}, {"time": 94082, "pitch": 42, "duration": 10, "velocity": 90}, {"time": 94082, "pitch": 51, "duration": 10, "velocity": 92}, {"time": 94082, "pitch": 70, "duration": 10, "velocity": 65}, {"time": 94082, "pitch": 82, "duration": 10, "velocity": 58}, {"time": 94222, "pitch": 70, "duration": 10, "velocity": 40}, {"time": 94312, "pitch": 51, "duration": 9, "velocity": 107}, {"time": 94312, "pitch": 63, "duration": 9, "velocity": 86}, {"time": 94312, "pitch": 82, "duration": 9, "velocity": 74}, {"time": 94321, "pitch": 38, "duration": 10, "velocity": 112}, {"time": 94321, "pitch": 39, "duration": 10, "velocity": 113}, {"time": 94321, "pitch": 42, "duration": 10, "velocity": 85}, {"time": 94321, "pitch": 48, "duration": 10, "velocity": 104}, {"time": 94321, "pitch": 70, "duration": 10, "velocity": 65}, {"time": 94461, "pitch": 62, "duration": 10, "velocity": 119}, {"time": 94461, "pitch": 70, "duration": 10, "velocity": 40}, {"time": 94471, "pitch": 48, "duration": 10, "velocity": 110}, {"time": 94551, "pitch": 51, "duration": 10, "velocity": 92}, {"time": 94551, "pitch": 82, "duration": 10, "velocity": 75}, {"time": 94561, "pitch": 38, "duration": 10, "velocity": 92}, {"time": 94561, "pitch": 42, "duration": 10, "velocity": 90}, {"time": 94561, "pitch": 70, "duration": 10, "velocity": 65}, {"time": 94700, "pitch": 70, "duration": 10, "velocity": 40}, {"time": 94790, "pitch": 51, "duration": 10, "velocity": 107}, {"time": 94790, "pitch": 63, "duration": 10, "velocity": 91}, {"time": 94790, "pitch": 82, "duration": 10, "velocity": 60}, {"time": 94800, "pitch": 38, "duration": 10, "velocity": 112}, {"time": 94800, "pitch": 39, "duration": 10, "velocity": 113}, {"time": 94800, "pitch": 42, "duration": 10, "velocity": 85}, {"time": 94800, "pitch": 47, "duration": 10, "velocity": 101}, {"time": 94800, "pitch": 70, "duration": 10, "velocity": 65}, {"time": 94939, "pitch": 64, "duration": 10, "velocity": 119}, {"time": 94939, "pitch": 70, "duration": 10, "velocity": 40}, {"time": 94949, "pitch": 45, "duration": 10, "velocity": 110}, {"time": 95039, "pitch": 42, "duration": 10, "velocity": 90}, {"time": 95039, "pitch": 51, "duration": 10, "velocity": 92}, {"time": 95039, "pitch": 70, "duration": 10, "velocity": 65}, {"time": 95039, "pitch": 82, "duration": 10, "velocity": 70}, {"time": 95179, "pitch": 70, "duration": 10, "velocity": 40}, {"time": 95189, "pitch": 45, "duration": 10, "velocity": 117}, {"time": 95189, "pitch": 64, "duration": 10, "velocity": 122}, {"time": 95278, "pitch": 39, "duration": 10, "velocity": 113}, {"time": 95278, "pitch": 40, "duration": 10, "velocity": 122}, {"time": 95278, "pitch": 42, "duration": 10, "velocity": 85}, {"time": 95278, "pitch": 43, "duration": 10, "velocity": 110}, {"time": 95278, "pitch": 55, "duration": 10, "velocity": 124}, {"time": 95278, "pitch": 70, "duration": 10, "velocity": 65}, {"time": 95278, "pitch": 82, "duration": 10, "velocity": 75}, {"time": 95418, "pitch": 70, "duration": 10, "velocity": 40}, {"time": 95517, "pitch": 42, "duration": 11, "velocity": 90}, {"time": 95517, "pitch": 49, "duration": 11, "velocity": 104}, {"time": 95517, "pitch": 70, "duration": 11, "velocity": 65}, {"time": 95517, "pitch": 82, "duration": 11, "velocity": 62}, {"time": 95659, "pitch": 70, "duration": 10, "velocity": 40}, {"time": 95750, "pitch": 63, "duration": 10, "velocity": 96}, {"time": 95760, "pitch": 42, "duration": 10, "velocity": 85}, {"time": 95760, "pitch": 70, "duration": 10, "velocity": 65}, {"time": 95760, "pitch": 82, "duration": 10, "velocity": 70}, {"time": 95902, "pitch": 70, "duration": 10, "velocity": 40}, {"time": 95993, "pitch": 62, "duration": 10, "velocity": 107}, {"time": 96003, "pitch": 38, "duration": 10, "velocity": 112}, {"time": 96003, "pitch": 39, "duration": 10, "velocity": 113}, {"time": 96003, "pitch": 42, "duration": 10, "velocity": 90}, {"time": 96003, "pitch": 70, "duration": 10, "velocity": 65}, {"time": 96003, "pitch": 82, "duration": 10, "velocity": 71}, {"time": 96142, "pitch": 70, "duration": 10, "velocity": 40}, {"time": 96232, "pitch": 64, "duration": 10, "velocity": 107}, {"time": 96232, "pitch": 82, "duration": 10, "velocity": 68}, {"time": 96242, "pitch": 42, "duration": 10, "velocity": 85}, {"time": 96242, "pitch": 70, "duration": 10, "velocity": 65}, {"time": 96381, "pitch": 64, "duration": 10, "velocity": 107}, {"time": 96381, "pitch": 70, "duration": 10, "velocity": 40}, {"time": 96471, "pitch": 82, "duration": 10, "velocity": 66}, {"time": 96481, "pitch": 42, "duration": 10, "velocity": 90}, {"time": 96481, "pitch": 70, "duration": 10, "velocity": 65}, {"time": 96621, "pitch": 70, "duration": 10, "velocity": 40}, {"time": 96710, "pitch": 63, "duration": 10, "velocity": 100}, {"time": 96710, "pitch": 82, "duration": 10, "velocity": 67}, {"time": 96720, "pitch": 42, "duration": 10, "velocity": 85}, {"time": 96720, "pitch": 70, "duration": 10, "velocity": 65}, {"time": 96860, "pitch": 70, "duration": 10, "velocity": 40}, {"time": 96950, "pitch": 62, "duration": 10, "velocity": 113}, {"time": 96960, "pitch": 38, "duration": 9, "velocity": 112}, {"time": 96960, "pitch": 39, "duration": 9, "velocity": 113}, {"time": 96960, "pitch": 42, "duration": 9, "velocity": 90}, {"time": 96960, "pitch": 70, "duration": 9, "velocity": 65}, {"time": 96960, "pitch": 82, "duration": 9, "velocity": 69}, {"time": 97099, "pitch": 70, "duration": 10, "velocity": 40}, {"time": 97199, "pitch": 42, "duration": 10, "velocity": 85}, {"time": 97199, "pitch": 70, "duration": 10, "velocity": 65}, {"time": 97199, "pitch": 82, "duration": 10, "velocity": 66}, {"time": 97338, "pitch": 70, "duration": 10, "velocity": 40}, {"time": 97438, "pitch": 42, "duration": 10, "velocity": 90}, {"time": 97438, "pitch": 70, "duration": 10, "velocity": 65}, {"time": 97438, "pitch": 82, "duration": 10, "velocity": 73}, {"time": 97579, "pitch": 70, "duration": 11, "velocity": 40}, {"time": 97670, "pitch": 63, "duration": 11, "velocity": 104}, {"time": 97670, "pitch": 82, "duration": 11, "velocity": 59}, {"time": 97681, "pitch": 42, "duration": 10, "velocity": 85}, {"time": 97681, "pitch": 70, "duration": 10, "velocity": 65}, {"time": 97822, "pitch": 70, "duration": 10, "velocity": 40}, {"time": 97913, "pitch": 62, "duration": 10, "velocity": 113}, {"time": 97923, "pitch": 38, "duration": 10, "velocity": 112}, {"time": 97923, "pitch": 39, "duration": 10, "velocity": 113}, {"time": 97923, "pitch": 42, "duration": 10, "velocity": 90}, {"time": 97923, "pitch": 70, "duration": 10, "velocity": 65}, {"time": 97923, "pitch": 82, "duration": 10, "velocity": 63}, {"time": 98063, "pitch": 70, "duration": 10, "velocity": 40}, {"time": 98152, "pitch": 64, "duration": 10, "velocity": 107}, {"time": 98162, "pitch": 42, "duration": 10, "velocity": 85}, {"time": 98162, "pitch": 70, "duration": 10, "velocity": 65}, {"time": 98162, "pitch": 82, "duration": 10, "velocity": 60}, {"time": 98302, "pitch": 64, "duration": 10, "velocity": 104}, {"time": 98302, "pitch": 70, "duration": 10, "velocity": 40}, {"time": 98392, "pitch": 82, "duration": 10, "velocity": 74}, {"time": 98402, "pitch": 42, "duration": 10, "velocity": 90}, {"time": 98402, "pitch": 70, "duration": 10, "velocity": 65}, {"time": 98541, "pitch": 63, "duration": 10, "velocity": 110}, {"time": 98541, "pitch": 70, "duration": 10, "velocity": 40}, {"time": 98631, "pitch": 82, "duration": 10, "velocity": 63}, {"time": 98641, "pitch": 42, "duration": 10, "velocity": 85}, {"time": 98641, "pitch": 70, "duration": 10, "velocity": 65}, {"time": 98780, "pitch": 70, "duration": 10, "velocity": 40}, {"time": 98870, "pitch": 63, "duration": 10, "velocity": 96}, {"time": 98880, "pitch": 38, "duration": 10, "velocity": 112}, {"time": 98880, "pitch": 39, "duration": 10, "velocity": 113}, {"time": 98880, "pitch": 42, "duration": 10, "velocity": 90}, {"time": 98880, "pitch": 70, "duration": 10, "velocity": 65}, {"time": 98880, "pitch": 82, "duration": 10, "velocity": 68}, {"time": 99019, "pitch": 63, "duration": 10, "velocity": 94}, {"time": 99019, "pitch": 70, "duration": 10, "velocity": 40}, {"time": 99109, "pitch": 62, "duration": 10, "velocity": 119}, {"time": 99109, "pitch": 82, "duration": 10, "velocity": 60}, {"time": 99119, "pitch": 42, "duration": 10, "velocity": 85}, {"time": 99119, "pitch": 70, "duration": 10, "velocity": 65}, {"time": 99259, "pitch": 70, "duration": 10, "velocity": 40}, {"time": 99358, "pitch": 42, "duration": 10, "velocity": 90}, {"time": 99358, "pitch": 70, "duration": 10, "velocity": 65}, {"time": 99358, "pitch": 82, "duration": 10, "velocity": 62}, {"time": 99498, "pitch": 70, "duration": 10, "velocity": 40}, {"time": 99588, "pitch": 63, "duration": 10, "velocity": 100}, {"time": 99598, "pitch": 42, "duration": 9, "velocity": 85}, {"time": 99598, "pitch": 70, "duration": 9, "velocity": 65}, {"time": 99598, "pitch": 82, "duration": 9, "velocity": 67}, {"time": 99737, "pitch": 70, "duration": 10, "velocity": 40}, {"time": 99827, "pitch": 62, "duration": 10, "velocity": 113}, {"time": 99827, "pitch": 82, "duration": 10, "velocity": 70}, {"time": 99837, "pitch": 38, "duration": 10, "velocity": 112}, {"time": 99837, "pitch": 39, "duration": 10, "velocity": 113}, {"time": 99837, "pitch": 42, "duration": 10, "velocity": 90}, {"time": 99837, "pitch": 70, "duration": 10, "velocity": 65}, {"time": 99978, "pitch": 70, "duration": 10, "velocity": 40}, {"time": 100069, "pitch": 64, "duration": 10, "velocity": 104}, {"time": 100069, "pitch": 82, "duration": 10, "velocity": 69}, {"time": 100079, "pitch": 42, "duration": 10, "velocity": 85}, {"time": 100079, "pitch": 70, "duration": 10, "velocity": 65}, {"time": 100221, "pitch": 64, "duration": 10, "velocity": 107}, {"time": 100221, "pitch": 70, "duration": 10, "velocity": 40}, {"time": 100322, "pitch": 42, "duration": 10, "velocity": 90}, {"time": 100322, "pitch": 70, "duration": 10, "velocity": 65}, {"time": 100322, "pitch": 82, "duration": 10, "velocity": 71}, {"time": 100461, "pitch": 70, "duration": 10, "velocity": 40}, {"time": 100551, "pitch": 63, "duration": 10, "velocity": 116}, {"time": 100551, "pitch": 82, "duration": 10, "velocity": 60}, {"time": 100561, "pitch": 42, "duration": 10, "velocity": 85}, {"time": 100561, "pitch": 70, "duration": 10, "velocity": 65}, {"time": 100701, "pitch": 70, "duration": 10, "velocity": 40}, {"time": 100790, "pitch": 62, "duration": 10, "velocity": 113}, {"time": 100790, "pitch": 82, "duration": 10, "velocity": 65}, {"time": 100800, "pitch": 38, "duration": 10, "velocity": 112}, {"time": 100800, "pitch": 39, "duration": 10, "velocity": 113}, {"time": 100800, "pitch": 42, "duration": 10, "velocity": 90}, {"time": 100800, "pitch": 70, "duration": 10, "velocity": 65}, {"time": 100940, "pitch": 70, "duration": 10, "velocity": 40}, {"time": 101040, "pitch": 42, "duration": 10, "velocity": 85}, {"time": 101040, "pitch": 70, "duration": 10, "velocity": 65}, {"time": 101040, "pitch": 82, "duration": 10, "velocity": 67}, {"time": 101179, "pitch": 70, "duration": 10, "velocity": 40}, {"time": 101269, "pitch": 82, "duration": 10, "velocity": 63}, {"time": 101279, "pitch": 42, "duration": 10, "velocity": 90}, {"time": 101279, "pitch": 51, "duration": 10, "velocity": 92}, {"time": 101279, "pitch": 70, "duration": 10, "velocity": 65}, {"time": 101279, "pitch": 82, "duration": 10, "velocity": 63}, {"time": 101418, "pitch": 70, "duration": 10, "velocity": 40}, {"time": 101508, "pitch": 63, "duration": 10, "velocity": 116}, {"time": 101508, "pitch": 82, "duration": 10, "velocity": 69}, {"time": 101518, "pitch": 42, "duration": 10, "velocity": 85}, {"time": 101518, "pitch": 51, "duration": 10, "velocity": 92}, {"time": 101518, "pitch": 70, "duration": 10, "velocity": 65}, {"time": 101657, "pitch": 70, "duration": 10, "velocity": 40}, {"time": 101747, "pitch": 64, "duration": 10, "velocity": 81}, {"time": 101757, "pitch": 38, "duration": 10, "velocity": 112}, {"time": 101757, "pitch": 39, "duration": 10, "velocity": 113}, {"time": 101757, "pitch": 42, "duration": 10, "velocity": 90}, {"time": 101757, "pitch": 51, "duration": 10, "velocity": 92}, {"time": 101757, "pitch": 70, "duration": 10, "velocity": 65}, {"time": 101757, "pitch": 82, "duration": 10, "velocity": 58}, {"time": 101899, "pitch": 70, "duration": 10, "velocity": 40}, {"time": 101990, "pitch": 63, "duration": 10, "velocity": 123}, {"time": 101990, "pitch": 64, "duration": 10, "velocity": 127}, {"time": 101990, "pitch": 82, "duration": 10, "velocity": 74}, {"time": 102000, "pitch": 42, "duration": 10, "velocity": 85}, {"time": 102000, "pitch": 51, "duration": 10, "velocity": 92}, {"time": 102000, "pitch": 70, "duration": 10, "velocity": 65}, {"time": 102141, "pitch": 38, "duration": 10, "velocity": 92}, {"time": 102141, "pitch": 63, "duration": 10, "velocity": 107}, {"time": 102141, "pitch": 70, "duration": 10, "velocity": 40}, {"time": 102232, "pitch": 82, "duration": 10, "velocity": 75}, {"time": 102242, "pitch": 38, "duration": 10, "velocity": 112}, {"time": 102242, "pitch": 42, "duration": 10, "velocity": 90}, {"time": 102242, "pitch": 70, "duration": 10, "velocity": 65}, {"time": 102382, "pitch": 63, "duration": 10, "velocity": 96}, {"time": 102382, "pitch": 70, "duration": 10, "velocity": 40}, {"time": 102472, "pitch": 82, "duration": 10, "velocity": 60}, {"time": 102482, "pitch": 38, "duration": 10, "velocity": 112}, {"time": 102482, "pitch": 42, "duration": 10, "velocity": 85}, {"time": 102482, "pitch": 51, "duration": 10, "velocity": 92}, {"time": 102482, "pitch": 70, "duration": 10, "velocity": 65}, {"time": 102621, "pitch": 70, "duration": 10, "velocity": 40}, {"time": 102711, "pitch": 63, "duration": 10, "velocity": 100}, {"time": 102711, "pitch": 64, "duration": 10, "velocity": 119}, {"time": 102721, "pitch": 39, "duration": 10, "velocity": 113}, {"time": 102721, "pitch": 40, "duration": 10, "velocity": 122}, {"time": 102721, "pitch": 42, "duration": 10, "velocity": 90}, {"time": 102721, "pitch": 51, "duration": 10, "velocity": 92}, {"time": 102721, "pitch": 70, "duration": 10, "velocity": 65}, {"time": 102721, "pitch": 82, "duration": 10, "velocity": 70}, {"time": 102860, "pitch": 70, "duration": 10, "velocity": 40}, {"time": 102950, "pitch": 63, "duration": 10, "velocity": 110}, {"time": 102950, "pitch": 64, "duration": 10, "velocity": 119}, {"time": 102960, "pitch": 42, "duration": 10, "velocity": 85}, {"time": 102960, "pitch": 70, "duration": 10, "velocity": 65}, {"time": 103100, "pitch": 70, "duration": 9, "velocity": 40}, {"time": 103199, "pitch": 42, "duration": 10, "velocity": 90}, {"time": 103199, "pitch": 49, "duration": 10, "velocity": 104}, {"time": 103199, "pitch": 70, "duration": 10, "velocity": 65}, {"time": 103199, "pitch": 82, "duration": 10, "velocity": 62}, {"time": 103339, "pitch": 70, "duration": 10, "velocity": 40}, {"time": 103428, "pitch": 63, "duration": 10, "velocity": 96}, {"time": 103438, "pitch": 42, "duration": 10, "velocity": 85}, {"time": 103438, "pitch": 70, "duration": 10, "velocity": 65}, {"time": 103438, "pitch": 82, "duration": 10, "velocity": 70}, {"time": 103578, "pitch": 70, "duration": 10, "velocity": 40}, {"time": 103668, "pitch": 62, "duration": 10, "velocity": 107}, {"time": 103678, "pitch": 38, "duration": 10, "velocity": 112}, {"time": 103678, "pitch": 39, "duration": 10, "velocity": 113}, {"time": 103678, "pitch": 42, "duration": 10, "velocity": 90}, {"time": 103678, "pitch": 70, "duration": 10, "velocity": 65}, {"time": 103678, "pitch": 82, "duration": 10, "velocity": 71}, {"time": 103819, "pitch": 70, "duration": 10, "velocity": 40}, {"time": 103910, "pitch": 64, "duration": 10, "velocity": 107}, {"time": 103910, "pitch": 82, "duration": 10, "velocity": 68}, {"time": 103920, "pitch": 42, "duration": 10, "velocity": 85}, {"time": 103920, "pitch": 70, "duration": 10, "velocity": 65}, {"time": 104062, "pitch": 64, "duration": 10, "velocity": 107}, {"time": 104062, "pitch": 70, "duration": 10, "velocity": 40}, {"time": 104153, "pitch": 82, "duration": 10, "velocity": 66}, {"time": 104163, "pitch": 42, "duration": 10, "velocity": 90}, {"time": 104163, "pitch": 70, "duration": 10, "velocity": 65}, {"time": 104302, "pitch": 70, "duration": 10, "velocity": 40}, {"time": 104392, "pitch": 63, "duration": 10, "velocity": 100}, {"time": 104392, "pitch": 82, "duration": 10, "velocity": 67}, {"time": 104402, "pitch": 42, "duration": 10, "velocity": 85}, {"time": 104402, "pitch": 70, "duration": 10, "velocity": 65}, {"time": 104542, "pitch": 70, "duration": 10, "velocity": 40}, {"time": 104631, "pitch": 62, "duration": 10, "velocity": 113}, {"time": 104641, "pitch": 38, "duration": 10, "velocity": 112}, {"time": 104641, "pitch": 39, "duration": 10, "velocity": 113}, {"time": 104641, "pitch": 42, "duration": 10, "velocity": 90}, {"time": 104641, "pitch": 70, "duration": 10, "velocity": 65}, {"time": 104641, "pitch": 82, "duration": 10, "velocity": 69}, {"time": 104781, "pitch": 70, "duration": 10, "velocity": 40}, {"time": 104880, "pitch": 42, "duration": 10, "velocity": 85}, {"time": 104880, "pitch": 70, "duration": 10, "velocity": 65}, {"time": 104880, "pitch": 82, "duration": 10, "velocity": 66}, {"time": 105020, "pitch": 70, "duration": 10, "velocity": 40}, {"time": 105120, "pitch": 42, "duration": 10, "velocity": 90}, {"time": 105120, "pitch": 70, "duration": 10, "velocity": 65}, {"time": 105120, "pitch": 82, "duration": 10, "velocity": 73}, {"time": 105259, "pitch": 70, "duration": 10, "velocity": 40}, {"time": 105349, "pitch": 63, "duration": 10, "velocity": 104}, {"time": 105349, "pitch": 82, "duration": 10, "velocity": 59}, {"time": 105359, "pitch": 42, "duration": 10, "velocity": 85}, {"time": 105359, "pitch": 70, "duration": 10, "velocity": 65}, {"time": 105498, "pitch": 70, "duration": 10, "velocity": 40}, {"time": 105588, "pitch": 62, "duration": 10, "velocity": 113}, {"time": 105598, "pitch": 38, "duration": 10, "velocity": 112}, {"time": 105598, "pitch": 39, "duration": 10, "velocity": 113}, {"time": 105598, "pitch": 42, "duration": 10, "velocity": 90}, {"time": 105598, "pitch": 70, "duration": 10, "velocity": 65}, {"time": 105598, "pitch": 82, "duration": 10, "velocity": 63}, {"time": 105740, "pitch": 70, "duration": 10, "velocity": 40}, {"time": 105831, "pitch": 64, "duration": 10, "velocity": 107}, {"time": 105841, "pitch": 42, "duration": 10, "velocity": 85}, {"time": 105841, "pitch": 70, "duration": 10, "velocity": 65}, {"time": 105841, "pitch": 82, "duration": 10, "velocity": 60}, {"time": 105982, "pitch": 64, "duration": 10, "velocity": 104}, {"time": 105982, "pitch": 70, "duration": 10, "velocity": 40}, {"time": 106073, "pitch": 82, "duration": 10, "velocity": 74}, {"time": 106083, "pitch": 42, "duration": 10, "velocity": 90}, {"time": 106083, "pitch": 70, "duration": 10, "velocity": 65}, {"time": 106223, "pitch": 63, "duration": 10, "velocity": 110}, {"time": 106223, "pitch": 70, "duration": 10, "velocity": 40}, {"time": 106312, "pitch": 82, "duration": 10, "velocity": 63}, {"time": 106322, "pitch": 42, "duration": 10, "velocity": 85}, {"time": 106322, "pitch": 70, "duration": 10, "velocity": 65}, {"time": 106462, "pitch": 70, "duration": 10, "velocity": 40}, {"time": 106552, "pitch": 63, "duration": 10, "velocity": 96}, {"time": 106562, "pitch": 38, "duration": 10, "velocity": 112}, {"time": 106562, "pitch": 39, "duration": 10, "velocity": 113}, {"time": 106562, "pitch": 42, "duration": 10, "velocity": 90}, {"time": 106562, "pitch": 70, "duration": 10, "velocity": 65}, {"time": 106562, "pitch": 82, "duration": 10, "velocity": 68}, {"time": 106701, "pitch": 63, "duration": 10, "velocity": 94}, {"time": 106701, "pitch": 70, "duration": 10, "velocity": 40}, {"time": 106791, "pitch": 62, "duration": 10, "velocity": 119}, {"time": 106791, "pitch": 82, "duration": 10, "velocity": 60}, {"time": 106801, "pitch": 42, "duration": 10, "velocity": 85}, {"time": 106801, "pitch": 70, "duration": 10, "velocity": 65}, {"time": 106940, "pitch": 70, "duration": 10, "velocity": 40}, {"time": 107040, "pitch": 42, "duration": 10, "velocity": 90}, {"time": 107040, "pitch": 70, "duration": 10, "velocity": 65}, {"time": 107040, "pitch": 82, "duration": 10, "velocity": 62}, {"time": 107180, "pitch": 70, "duration": 10, "velocity": 40}, {"time": 107269, "pitch": 63, "duration": 10, "velocity": 100}, {"time": 107279, "pitch": 42, "duration": 10, "velocity": 85}, {"time": 107279, "pitch": 70, "duration": 10, "velocity": 65}, {"time": 107279, "pitch": 82, "duration": 10, "velocity": 67}, {"time": 107419, "pitch": 70, "duration": 10, "velocity": 40}, {"time": 107508, "pitch": 62, "duration": 10, "velocity": 113}, {"time": 107508, "pitch": 82, "duration": 10, "velocity": 70}, {"time": 107518, "pitch": 38, "duration": 10, "velocity": 112}, {"time": 107518, "pitch": 39, "duration": 10, "velocity": 113}, {"time": 107518, "pitch": 42, "duration": 10, "velocity": 90}, {"time": 107518, "pitch": 70, "duration": 10, "velocity": 65}, {"time": 107658, "pitch": 70, "duration": 10, "velocity": 40}, {"time": 107748, "pitch": 64, "duration": 10, "velocity": 104}, {"time": 107748, "pitch": 82, "duration": 10, "velocity": 69}, {"time": 107758, "pitch": 42, "duration": 10, "velocity": 85}, {"time": 107758, "pitch": 70, "duration": 10, "velocity": 65}, {"time": 107897, "pitch": 64, "duration": 10, "velocity": 107}, {"time": 107897, "pitch": 70, "duration": 10, "velocity": 40}, {"time": 107997, "pitch": 42, "duration": 10, "velocity": 90}, {"time": 107997, "pitch": 70, "duration": 10, "velocity": 65}, {"time": 107997, "pitch": 82, "duration": 10, "velocity": 71}, {"time": 108138, "pitch": 70, "duration": 10, "velocity": 40}, {"time": 108229, "pitch": 63, "duration": 10, "velocity": 116}, {"time": 108229, "pitch": 82, "duration": 10, "velocity": 60}, {"time": 108239, "pitch": 42, "duration": 11, "velocity": 85}, {"time": 108239, "pitch": 70, "duration": 11, "velocity": 65}, {"time": 108381, "pitch": 70, "duration": 10, "velocity": 40}, {"time": 108472, "pitch": 62, "duration": 10, "velocity": 113}, {"time": 108472, "pitch": 82, "duration": 10, "velocity": 65}, {"time": 108482, "pitch": 38, "duration": 10, "velocity": 112}, {"time": 108482, "pitch": 39, "duration": 10, "velocity": 113}, {"time": 108482, "pitch": 42, "duration": 10, "velocity": 90}, {"time": 108482, "pitch": 70, "duration": 10, "velocity": 65}, {"time": 108622, "pitch": 70, "duration": 10, "velocity": 40}, {"time": 108721, "pitch": 42, "duration": 10, "velocity": 85}, {"time": 108721, "pitch": 70, "duration": 10, "velocity": 65}, {"time": 108721, "pitch": 82, "duration": 10, "velocity": 67}, {"time": 108851, "pitch": 38, "duration": 10, "velocity": 50}, {"time": 108861, "pitch": 38, "duration": 10, "velocity": 55}, {"time": 108861, "pitch": 70, "duration": 10, "velocity": 40}, {"time": 108881, "pitch": 38, "duration": 10, "velocity": 59}, {"time": 108891, "pitch": 38, "duration": 10, "velocity": 64}, {"time": 108901, "pitch": 38, "duration": 10, "velocity": 68}, {"time": 108921, "pitch": 38, "duration": 10, "velocity": 73}, {"time": 108931, "pitch": 38, "duration": 10, "velocity": 78}, {"time": 108941, "pitch": 38, "duration": 9, "velocity": 82}, {"time": 108950, "pitch": 82, "duration": 10, "velocity": 63}, {"time": 108960, "pitch": 38, "duration": 10, "velocity": 92}, {"time": 108960, "pitch": 42, "duration": 10, "velocity": 90}, {"time": 108960, "pitch": 51, "duration": 10, "velocity": 92}, {"time": 108960, "pitch": 70, "duration": 10, "velocity": 65}, {"time": 108960, "pitch": 82, "duration": 10, "velocity": 63}, {"time": 109100, "pitch": 70, "duration": 10, "velocity": 40}, {"time": 109190, "pitch": 82, "duration": 10, "velocity": 69}, {"time": 109200, "pitch": 42, "duration": 10, "velocity": 85}, {"time": 109200, "pitch": 51, "duration": 10, "velocity": 92}, {"time": 109200, "pitch": 63, "duration": 10, "velocity": 116}, {"time": 109200, "pitch": 70, "duration": 10, "velocity": 65}, {"time": 109339, "pitch": 70, "duration": 10, "velocity": 40}, {"time": 109439, "pitch": 38, "duration": 10, "velocity": 112}, {"time": 109439, "pitch": 39, "duration": 10, "velocity": 113}, {"time": 109439, "pitch": 42, "duration": 10, "velocity": 90}, {"time": 109439, "pitch": 51, "duration": 10, "velocity": 92}, {"time": 109439, "pitch": 64, "duration": 10, "velocity": 81}, {"time": 109439, "pitch": 70, "duration": 10, "velocity": 65}, {"time": 109439, "pitch": 82, "duration": 10, "velocity": 58}, {"time": 109578, "pitch": 70, "duration": 10, "velocity": 40}, {"time": 109668, "pitch": 82, "duration": 10, "velocity": 74}, {"time": 109678, "pitch": 42, "duration": 10, "velocity": 85}, {"time": 109678, "pitch": 51, "duration": 10, "velocity": 92}, {"time": 109678, "pitch": 63, "duration": 10, "velocity": 123}, {"time": 109678, "pitch": 64, "duration": 10, "velocity": 127}, {"time": 109678, "pitch": 70, "duration": 10, "velocity": 65}, {"time": 109818, "pitch": 38, "duration": 10, "velocity": 92}, {"time": 109818, "pitch": 70, "duration": 10, "velocity": 40}, {"time": 109907, "pitch": 82, "duration": 10, "velocity": 75}, {"time": 109917, "pitch": 38, "duration": 10, "velocity": 112}, {"time": 109917, "pitch": 42, "duration": 10, "velocity": 90}, {"time": 109917, "pitch": 70, "duration": 10, "velocity": 65}, {"time": 110059, "pitch": 70, "duration": 10, "velocity": 40}, {"time": 110069, "pitch": 63, "duration": 10, "velocity": 96}, {"time": 110150, "pitch": 82, "duration": 10, "velocity": 60}, {"time": 110160, "pitch": 38, "duration": 10, "velocity": 112}, {"time": 110160, "pitch": 42, "duration": 10, "velocity": 85}, {"time": 110160, "pitch": 51, "duration": 10, "velocity": 92}, {"time": 110160, "pitch": 70, "duration": 10, "velocity": 65}, {"time": 110301, "pitch": 70, "duration": 11, "velocity": 40}, {"time": 110312, "pitch": 63, "duration": 10, "velocity": 94}, {"time": 110402, "pitch": 39, "duration": 10, "velocity": 113}, {"time": 110402, "pitch": 40, "duration": 10, "velocity": 122}, {"time": 110402, "pitch": 42, "duration": 10, "velocity": 90}, {"time": 110402, "pitch": 51, "duration": 10, "velocity": 92}, {"time": 110402, "pitch": 63, "duration": 10, "velocity": 100}, {"time": 110402, "pitch": 64, "duration": 10, "velocity": 119}, {"time": 110402, "pitch": 70, "duration": 10, "velocity": 65}, {"time": 110402, "pitch": 82, "duration": 10, "velocity": 70}, {"time": 110542, "pitch": 70, "duration": 10, "velocity": 40}, {"time": 110642, "pitch": 42, "duration": 10, "velocity": 85}, {"time": 110642, "pitch": 55, "duration": 10, "velocity": 124}, {"time": 110642, "pitch": 63, "duration": 10, "velocity": 110}, {"time": 110642, "pitch": 64, "duration": 10, "velocity": 119}, {"time": 110642, "pitch": 70, "duration": 10, "velocity": 65}, {"time": 110781, "pitch": 70, "duration": 10, "velocity": 40}, {"time": 110881, "pitch": 38, "duration": 10, "velocity": 112}, {"time": 110881, "pitch": 49, "duration": 10, "velocity": 104}, {"time": 110881, "pitch": 51, "duration": 10, "velocity": 92}, {"time": 110881, "pitch": 63, "duration": 10, "velocity": 94}, {"time": 110881, "pitch": 64, "duration": 10, "velocity": 113}, {"time": 110881, "pitch": 70, "duration": 10, "velocity": 65}, {"time": 110881, "pitch": 82, "duration": 10, "velocity": 62}, {"time": 111020, "pitch": 70, "duration": 10, "velocity": 40}, {"time": 111120, "pitch": 70, "duration": 10, "velocity": 65}, {"time": 111120, "pitch": 82, "duration": 10, "velocity": 67}, {"time": 111260, "pitch": 70, "duration": 10, "velocity": 40}, {"time": 111349, "pitch": 82, "duration": 10, "velocity": 70}, {"time": 111359, "pitch": 38, "duration": 10, "velocity": 112}, {"time": 111359, "pitch": 39, "duration": 10, "velocity": 113}, {"time": 111359, "pitch": 51, "duration": 10, "velocity": 92}, {"time": 111359, "pitch": 55, "duration": 10, "velocity": 124}, {"time": 111359, "pitch": 63, "duration": 10, "velocity": 106}, {"time": 111359, "pitch": 64, "duration": 10, "velocity": 113}, {"time": 111359, "pitch": 70, "duration": 10, "velocity": 65}, {"time": 111499, "pitch": 70, "duration": 10, "velocity": 40}, {"time": 111588, "pitch": 82, "duration": 10, "velocity": 69}, {"time": 111598, "pitch": 70, "duration": 10, "velocity": 65}, {"time": 111738, "pitch": 70, "duration": 10, "velocity": 40}, {"time": 111838, "pitch": 38, "duration": 10, "velocity": 112}, {"time": 111838, "pitch": 51, "duration": 10, "velocity": 92}, {"time": 111838, "pitch": 55, "duration": 10, "velocity": 124}, {"time": 111838, "pitch": 63, "duration": 10, "velocity": 100}, {"time": 111838, "pitch": 64, "duration": 10, "velocity": 109}, {"time": 111838, "pitch": 70, "duration": 10, "velocity": 65}, {"time": 111838, "pitch": 82, "duration": 10, "velocity": 71}, {"time": 111979, "pitch": 70, "duration": 10, "velocity": 40}, {"time": 112070, "pitch": 82, "duration": 10, "velocity": 60}, {"time": 112080, "pitch": 38, "duration": 10, "velocity": 112}, {"time": 112080, "pitch": 51, "duration": 10, "velocity": 92}, {"time": 112080, "pitch": 55, "duration": 10, "velocity": 124}, {"time": 112080, "pitch": 63, "duration": 10, "velocity": 100}, {"time": 112080, "pitch": 64, "duration": 10, "velocity": 113}, {"time": 112080, "pitch": 70, "duration": 10, "velocity": 65}, {"time": 112222, "pitch": 70, "duration": 10, "velocity": 40}, {"time": 112313, "pitch": 82, "duration": 10, "velocity": 65}, {"time": 112323, "pitch": 38, "duration": 10, "velocity": 112}, {"time": 112323, "pitch": 39, "duration": 10, "velocity": 113}, {"time": 112323, "pitch": 51, "duration": 10, "velocity": 92}, {"time": 112323, "pitch": 55, "duration": 10, "velocity": 124}, {"time": 112323, "pitch": 63, "duration": 10, "velocity": 106}, {"time": 112323, "pitch": 64, "duration": 10, "velocity": 113}, {"time": 112323, "pitch": 70, "duration": 10, "velocity": 65}, {"time": 112462, "pitch": 70, "duration": 10, "velocity": 40}, {"time": 112562, "pitch": 63, "duration": 10, "velocity": 100}, {"time": 112562, "pitch": 70, "duration": 10, "velocity": 65}, {"time": 112562, "pitch": 82, "duration": 10, "velocity": 67}, {"time": 112702, "pitch": 70, "duration": 10, "velocity": 40}, {"time": 112712, "pitch": 62, "duration": 10, "velocity": 103}, {"time": 112801, "pitch": 38, "duration": 10, "velocity": 112}, {"time": 112801, "pitch": 51, "duration": 10, "velocity": 92}, {"time": 112801, "pitch": 55, "duration": 10, "velocity": 124}, {"time": 112801, "pitch": 70, "duration": 10, "velocity": 65}, {"time": 112801, "pitch": 82, "duration": 10, "velocity": 62}, {"time": 112941, "pitch": 70, "duration": 10, "velocity": 40}, {"time": 113040, "pitch": 70, "duration": 10, "velocity": 65}, {"time": 113040, "pitch": 82, "duration": 10, "velocity": 67}, {"time": 113180, "pitch": 70, "duration": 10, "velocity": 40}, {"time": 113270, "pitch": 82, "duration": 10, "velocity": 70}, {"time": 113280, "pitch": 38, "duration": 10, "velocity": 112}, {"time": 113280, "pitch": 39, "duration": 10, "velocity": 113}, {"time": 113280, "pitch": 51, "duration": 10, "velocity": 92}, {"time": 113280, "pitch": 55, "duration": 10, "velocity": 124}, {"time": 113280, "pitch": 63, "duration": 10, "velocity": 113}, {"time": 113280, "pitch": 64, "duration": 10, "velocity": 109}, {"time": 113280, "pitch": 70, "duration": 10, "velocity": 65}, {"time": 113419, "pitch": 70, "duration": 10, "velocity": 40}, {"time": 113509, "pitch": 82, "duration": 10, "velocity": 69}, {"time": 113519, "pitch": 70, "duration": 10, "velocity": 65}, {"time": 113658, "pitch": 70, "duration": 10, "velocity": 40}, {"time": 113668, "pitch": 63, "duration": 10, "velocity": 94}, {"time": 113758, "pitch": 38, "duration": 10, "velocity": 112}, {"time": 113758, "pitch": 51, "duration": 10, "velocity": 92}, {"time": 113758, "pitch": 55, "duration": 10, "velocity": 124}, {"time": 113758, "pitch": 63, "duration": 10, "velocity": 90}, {"time": 113758, "pitch": 64, "duration": 10, "velocity": 103}, {"time": 113758, "pitch": 70, "duration": 10, "velocity": 65}, {"time": 113758, "pitch": 82, "duration": 10, "velocity": 71}, {"time": 113900, "pitch": 70, "duration": 10, "velocity": 40}, {"time": 113991, "pitch": 82, "duration": 10, "velocity": 60}, {"time": 114001, "pitch": 38, "duration": 10, "velocity": 112}, {"time": 114001, "pitch": 51, "duration": 10, "velocity": 92}, {"time": 114001, "pitch": 55, "duration": 10, "velocity": 124}, {"time": 114001, "pitch": 63, "duration": 10, "velocity": 94}, {"time": 114001, "pitch": 64, "duration": 10, "velocity": 109}, {"time": 114001, "pitch": 70, "duration": 10, "velocity": 65}, {"time": 114142, "pitch": 70, "duration": 10, "velocity": 40}, {"time": 114233, "pitch": 82, "duration": 10, "velocity": 65}, {"time": 114243, "pitch": 38, "duration": 10, "velocity": 112}, {"time": 114243, "pitch": 39, "duration": 10, "velocity": 113}, {"time": 114243, "pitch": 51, "duration": 10, "velocity": 92}, {"time": 114243, "pitch": 55, "duration": 10, "velocity": 124}, {"time": 114243, "pitch": 63, "duration": 10, "velocity": 113}, {"time": 114243, "pitch": 64, "duration": 10, "velocity": 117}, {"time": 114243, "pitch": 70, "duration": 10, "velocity": 65}, {"time": 114383, "pitch": 70, "duration": 10, "velocity": 40}, {"time": 114483, "pitch": 38, "duration": 9, "velocity": 112}, {"time": 114483, "pitch": 63, "duration": 9, "velocity": 90}, {"time": 114483, "pitch": 64, "duration": 9, "velocity": 103}, {"time": 114483, "pitch": 70, "duration": 9, "velocity": 65}, {"time": 114483, "pitch": 82, "duration": 9, "velocity": 67}, {"time": 114622, "pitch": 70, "duration": 10, "velocity": 40}, {"time": 114722, "pitch": 38, "duration": 10, "velocity": 112}, {"time": 114722, "pitch": 49, "duration": 10, "velocity": 104}, {"time": 114722, "pitch": 51, "duration": 10, "velocity": 92}, {"time": 114722, "pitch": 63, "duration": 10, "velocity": 106}, {"time": 114722, "pitch": 64, "duration": 10, "velocity": 113}, {"time": 114722, "pitch": 70, "duration": 10, "velocity": 65}, {"time": 114722, "pitch": 82, "duration": 10, "velocity": 62}, {"time": 114861, "pitch": 70, "duration": 10, "velocity": 40}, {"time": 114961, "pitch": 70, "duration": 10, "velocity": 65}, {"time": 114961, "pitch": 82, "duration": 10, "velocity": 67}, {"time": 115100, "pitch": 70, "duration": 10, "velocity": 40}, {"time": 115190, "pitch": 82, "duration": 10, "velocity": 70}, {"time": 115200, "pitch": 38, "duration": 10, "velocity": 112}, {"time": 115200, "pitch": 39, "duration": 10, "velocity": 113}, {"time": 115200, "pitch": 51, "duration": 10, "velocity": 92}, {"time": 115200, "pitch": 55, "duration": 10, "velocity": 124}, {"time": 115200, "pitch": 63, "duration": 10, "velocity": 106}, {"time": 115200, "pitch": 64, "duration": 10, "velocity": 113}, {"time": 115200, "pitch": 70, "duration": 10, "velocity": 65}, {"time": 115340, "pitch": 70, "duration": 10, "velocity": 40}, {"time": 115429, "pitch": 82, "duration": 10, "velocity": 69}, {"time": 115439, "pitch": 70, "duration": 10, "velocity": 65}, {"time": 115579, "pitch": 70, "duration": 10, "velocity": 40}, {"time": 115679, "pitch": 38, "duration": 9, "velocity": 112}, {"time": 115679, "pitch": 51, "duration": 9, "velocity": 92}, {"time": 115679, "pitch": 55, "duration": 9, "velocity": 124}, {"time": 115679, "pitch": 63, "duration": 9, "velocity": 94}, {"time": 115679, "pitch": 64, "duration": 9, "velocity": 103}, {"time": 115679, "pitch": 70, "duration": 9, "velocity": 65}, {"time": 115679, "pitch": 82, "duration": 9, "velocity": 71}, {"time": 115818, "pitch": 70, "duration": 10, "velocity": 40}, {"time": 115908, "pitch": 82, "duration": 10, "velocity": 60}, {"time": 115918, "pitch": 38, "duration": 10, "velocity": 112}, {"time": 115918, "pitch": 51, "duration": 10, "velocity": 92}, {"time": 115918, "pitch": 55, "duration": 10, "velocity": 124}, {"time": 115918, "pitch": 63, "duration": 10, "velocity": 106}, {"time": 115918, "pitch": 64, "duration": 10, "velocity": 113}, {"time": 115918, "pitch": 70, "duration": 10, "velocity": 65}, {"time": 116057, "pitch": 70, "duration": 10, "velocity": 40}, {"time": 116147, "pitch": 82, "duration": 10, "velocity": 65}, {"time": 116157, "pitch": 38, "duration": 10, "velocity": 112}, {"time": 116157, "pitch": 39, "duration": 10, "velocity": 113}, {"time": 116157, "pitch": 51, "duration": 10, "velocity": 92}, {"time": 116157, "pitch": 55, "duration": 10, "velocity": 124}, {"time": 116157, "pitch": 63, "duration": 10, "velocity": 100}, {"time": 116157, "pitch": 64, "duration": 10, "velocity": 113}, {"time": 116157, "pitch": 70, "duration": 10, "velocity": 65}, {"time": 116298, "pitch": 70, "duration": 11, "velocity": 40}, {"time": 116400, "pitch": 63, "duration": 10, "velocity": 113}, {"time": 116400, "pitch": 64, "duration": 10, "velocity": 117}, {"time": 116400, "pitch": 70, "duration": 10, "velocity": 65}, {"time": 116400, "pitch": 82, "duration": 10, "velocity": 67}, {"time": 116541, "pitch": 70, "duration": 10, "velocity": 40}, {"time": 116642, "pitch": 38, "duration": 10, "velocity": 112}, {"time": 116642, "pitch": 51, "duration": 10, "velocity": 92}, {"time": 116642, "pitch": 55, "duration": 10, "velocity": 124}, {"time": 116642, "pitch": 63, "duration": 10, "velocity": 106}, {"time": 116642, "pitch": 64, "duration": 10, "velocity": 113}, {"time": 116642, "pitch": 70, "duration": 10, "velocity": 65}, {"time": 116642, "pitch": 82, "duration": 10, "velocity": 62}, {"time": 116782, "pitch": 70, "duration": 10, "velocity": 40}, {"time": 116881, "pitch": 50, "duration": 10, "velocity": 115}, {"time": 116881, "pitch": 70, "duration": 10, "velocity": 65}, {"time": 116881, "pitch": 82, "duration": 10, "velocity": 67}, {"time": 117021, "pitch": 70, "duration": 10, "velocity": 40}, {"time": 117111, "pitch": 82, "duration": 10, "velocity": 70}, {"time": 117121, "pitch": 38, "duration": 10, "velocity": 112}, {"time": 117121, "pitch": 39, "duration": 10, "velocity": 113}, {"time": 117121, "pitch": 51, "duration": 10, "velocity": 92}, {"time": 117121, "pitch": 55, "duration": 10, "velocity": 124}, {"time": 117121, "pitch": 63, "duration": 10, "velocity": 113}, {"time": 117121, "pitch": 64, "duration": 10, "velocity": 109}, {"time": 117121, "pitch": 70, "duration": 10, "velocity": 65}, {"time": 117260, "pitch": 70, "duration": 10, "velocity": 40}, {"time": 117350, "pitch": 82, "duration": 10, "velocity": 69}, {"time": 117360, "pitch": 48, "duration": 10, "velocity": 104}, {"time": 117360, "pitch": 70, "duration": 10, "velocity": 65}, {"time": 117499, "pitch": 38, "duration": 10, "velocity": 92}, {"time": 117499, "pitch": 70, "duration": 10, "velocity": 40}, {"time": 117509, "pitch": 48, "duration": 10, "velocity": 110}, {"time": 117509, "pitch": 63, "duration": 10, "velocity": 94}, {"time": 117599, "pitch": 38, "duration": 10, "velocity": 112}, {"time": 117599, "pitch": 51, "duration": 10, "velocity": 92}, {"time": 117599, "pitch": 55, "duration": 10, "velocity": 124}, {"time": 117599, "pitch": 63, "duration": 10, "velocity": 90}, {"time": 117599, "pitch": 64, "duration": 10, "velocity": 103}, {"time": 117599, "pitch": 70, "duration": 10, "velocity": 65}, {"time": 117599, "pitch": 82, "duration": 10, "velocity": 71}, {"time": 117738, "pitch": 70, "duration": 10, "velocity": 40}, {"time": 117748, "pitch": 63, "duration": 10, "velocity": 100}, {"time": 117748, "pitch": 64, "duration": 10, "velocity": 109}, {"time": 117828, "pitch": 82, "duration": 10, "velocity": 60}, {"time": 117838, "pitch": 38, "duration": 10, "velocity": 112}, {"time": 117838, "pitch": 47, "duration": 10, "velocity": 101}, {"time": 117838, "pitch": 51, "duration": 10, "velocity": 92}, {"time": 117838, "pitch": 55, "duration": 10, "velocity": 124}, {"time": 117838, "pitch": 70, "duration": 10, "velocity": 65}, {"time": 117978, "pitch": 70, "duration": 10, "velocity": 40}, {"time": 117988, "pitch": 45, "duration": 10, "velocity": 110}, {"time": 118067, "pitch": 82, "duration": 10, "velocity": 65}, {"time": 118077, "pitch": 39, "duration": 10, "velocity": 113}, {"time": 118077, "pitch": 40, "duration": 10, "velocity": 122}, {"time": 118077, "pitch": 51, "duration": 10, "velocity": 92}, {"time": 118077, "pitch": 55, "duration": 10, "velocity": 124}, {"time": 118077, "pitch": 63, "duration": 10, "velocity": 106}, {"time": 118077, "pitch": 64, "duration": 10, "velocity": 109}, {"time": 118077, "pitch": 70, "duration": 10, "velocity": 65}, {"time": 118219, "pitch": 70, "duration": 10, "velocity": 40}, {"time": 118229, "pitch": 45, "duration": 10, "velocity": 117}, {"time": 118320, "pitch": 43, "duration": 10, "velocity": 110}, {"time": 118320, "pitch": 51, "duration": 10, "velocity": 92}, {"time": 118320, "pitch": 55, "duration": 10, "velocity": 124}, {"time": 118320, "pitch": 63, "duration": 10, "velocity": 113}, {"time": 118320, "pitch": 64, "duration": 10, "velocity": 117}, {"time": 118320, "pitch": 70, "duration": 10, "velocity": 65}, {"time": 118320, "pitch": 82, "duration": 10, "velocity": 67}, {"time": 118461, "pitch": 70, "duration": 11, "velocity": 40}, {"time": 118563, "pitch": 42, "duration": 10, "velocity": 90}, {"time": 118563, "pitch": 49, "duration": 10, "velocity": 104}, {"time": 118563, "pitch": 70, "duration": 10, "velocity": 65}, {"time": 118563, "pitch": 82, "duration": 10, "velocity": 62}, {"time": 118702, "pitch": 70, "duration": 10, "velocity": 40}, {"time": 118802, "pitch": 42, "duration": 10, "velocity": 85}, {"time": 118802, "pitch": 70, "duration": 10, "velocity": 65}, {"time": 118802, "pitch": 82, "duration": 10, "velocity": 67}, {"time": 118941, "pitch": 70, "duration": 10, "velocity": 40}, {"time": 119031, "pitch": 82, "duration": 10, "velocity": 70}, {"time": 119041, "pitch": 38, "duration": 10, "velocity": 112}, {"time": 119041, "pitch": 39, "duration": 10, "velocity": 113}, {"time": 119041, "pitch": 42, "duration": 10, "velocity": 90}, {"time": 119041, "pitch": 70, "duration": 10, "velocity": 65}, {"time": 119180, "pitch": 70, "duration": 10, "velocity": 40}, {"time": 119270, "pitch": 62, "duration": 10, "velocity": 91}, {"time": 119270, "pitch": 82, "duration": 10, "velocity": 69}, {"time": 119280, "pitch": 42, "duration": 10, "velocity": 85}, {"time": 119280, "pitch": 70, "duration": 10, "velocity": 65}, {"time": 119420, "pitch": 62, "duration": 10, "velocity": 113}, {"time": 119420, "pitch": 70, "duration": 10, "velocity": 40}, {"time": 119519, "pitch": 42, "duration": 10, "velocity": 90}, {"time": 119519, "pitch": 70, "duration": 10, "velocity": 65}, {"time": 119519, "pitch": 82, "duration": 10, "velocity": 71}, {"time": 119659, "pitch": 70, "duration": 10, "velocity": 40}, {"time": 119749, "pitch": 82, "duration": 10, "velocity": 60}, {"time": 119759, "pitch": 42, "duration": 10, "velocity": 85}, {"time": 119759, "pitch": 70, "duration": 10, "velocity": 65}, {"time": 119898, "pitch": 70, "duration": 10, "velocity": 40}, {"time": 119988, "pitch": 82, "duration": 10, "velocity": 65}, {"time": 119998, "pitch": 38, "duration": 10, "velocity": 112}, {"time": 119998, "pitch": 39, "duration": 10, "velocity": 113}, {"time": 119998, "pitch": 42, "duration": 10, "velocity": 90}, {"time": 119998, "pitch": 70, "duration": 10, "velocity": 65}, {"time": 120139, "pitch": 70, "duration": 10, "velocity": 40}, {"time": 120230, "pitch": 63, "duration": 10, "velocity": 87}, {"time": 120240, "pitch": 42, "duration": 10, "velocity": 85}, {"time": 120240, "pitch": 70, "duration": 10, "velocity": 65}, {"time": 120240, "pitch": 82, "duration": 10, "velocity": 67}, {"time": 120382, "pitch": 63, "duration": 10, "velocity": 107}, {"time": 120382, "pitch": 70, "duration": 10, "velocity": 40}, {"time": 120483, "pitch": 42, "duration": 10, "velocity": 90}, {"time": 120483, "pitch": 70, "duration": 10, "velocity": 65}, {"time": 120483, "pitch": 82, "duration": 10, "velocity": 62}, {"time": 120623, "pitch": 70, "duration": 9, "velocity": 40}, {"time": 120722, "pitch": 42, "duration": 10, "velocity": 85}, {"time": 120722, "pitch": 70, "duration": 10, "velocity": 65}, {"time": 120722, "pitch": 82, "duration": 10, "velocity": 67}, {"time": 120862, "pitch": 70, "duration": 10, "velocity": 40}, {"time": 120951, "pitch": 82, "duration": 10, "velocity": 70}, {"time": 120961, "pitch": 38, "duration": 10, "velocity": 112}, {"time": 120961, "pitch": 39, "duration": 10, "velocity": 113}, {"time": 120961, "pitch": 42, "duration": 10, "velocity": 90}, {"time": 120961, "pitch": 70, "duration": 10, "velocity": 65}, {"time": 121101, "pitch": 70, "duration": 10, "velocity": 40}, {"time": 121191, "pitch": 62, "duration": 10, "velocity": 88}, {"time": 121191, "pitch": 82, "duration": 10, "velocity": 69}, {"time": 121201, "pitch": 42, "duration": 10, "velocity": 85}, {"time": 121201, "pitch": 70, "duration": 10, "velocity": 65}, {"time": 121340, "pitch": 38, "duration": 10, "velocity": 92}, {"time": 121340, "pitch": 62, "duration": 10, "velocity": 119}, {"time": 121340, "pitch": 70, "duration": 10, "velocity": 40}, {"time": 121440, "pitch": 42, "duration": 10, "velocity": 90}, {"time": 121440, "pitch": 70, "duration": 10, "velocity": 65}, {"time": 121440, "pitch": 82, "duration": 10, "velocity": 71}, {"time": 121579, "pitch": 70, "duration": 10, "velocity": 40}, {"time": 121669, "pitch": 82, "duration": 10, "velocity": 60}, {"time": 121679, "pitch": 42, "duration": 10, "velocity": 85}, {"time": 121679, "pitch": 70, "duration": 10, "velocity": 65}, {"time": 121819, "pitch": 70, "duration": 9, "velocity": 40}, {"time": 121908, "pitch": 82, "duration": 10, "velocity": 65}, {"time": 121918, "pitch": 38, "duration": 10, "velocity": 112}, {"time": 121918, "pitch": 39, "duration": 10, "velocity": 113}, {"time": 121918, "pitch": 42, "duration": 10, "velocity": 90}, {"time": 121918, "pitch": 70, "duration": 10, "velocity": 65}, {"time": 122060, "pitch": 70, "duration": 10, "velocity": 40}, {"time": 122070, "pitch": 64, "duration": 10, "velocity": 114}, {"time": 122161, "pitch": 42, "duration": 10, "velocity": 85}, {"time": 122161, "pitch": 70, "duration": 10, "velocity": 65}, {"time": 122161, "pitch": 82, "duration": 10, "velocity": 67}, {"time": 122302, "pitch": 70, "duration": 10, "velocity": 40}, {"time": 122403, "pitch": 42, "duration": 10, "velocity": 90}, {"time": 122403, "pitch": 70, "duration": 10, "velocity": 65}, {"time": 122403, "pitch": 82, "duration": 10, "velocity": 62}, {"time": 122543, "pitch": 70, "duration": 10, "velocity": 40}, {"time": 122643, "pitch": 42, "duration": 10, "velocity": 85}, {"time": 122643, "pitch": 70, "duration": 10, "velocity": 65}, {"time": 122643, "pitch": 82, "duration": 10, "velocity": 67}, {"time": 122782, "pitch": 70, "duration": 10, "velocity": 40}, {"time": 122872, "pitch": 82, "duration": 10, "velocity": 70}, {"time": 122882, "pitch": 38, "duration": 10, "velocity": 112}, {"time": 122882, "pitch": 39, "duration": 10, "velocity": 113}, {"time": 122882, "pitch": 42, "duration": 10, "velocity": 90}, {"time": 122882, "pitch": 70, "duration": 10, "velocity": 65}, {"time": 123021, "pitch": 70, "duration": 10, "velocity": 40}, {"time": 123111, "pitch": 62, "duration": 10, "velocity": 91}, {"time": 123111, "pitch": 82, "duration": 10, "velocity": 69}, {"time": 123121, "pitch": 42, "duration": 10, "velocity": 85}, {"time": 123121, "pitch": 70, "duration": 10, "velocity": 65}, {"time": 123261, "pitch": 62, "duration": 10, "velocity": 119}, {"time": 123261, "pitch": 70, "duration": 10, "velocity": 40}, {"time": 123360, "pitch": 42, "duration": 10, "velocity": 90}, {"time": 123360, "pitch": 70, "duration": 10, "velocity": 65}, {"time": 123360, "pitch": 82, "duration": 10, "velocity": 71}, {"time": 123500, "pitch": 70, "duration": 10, "velocity": 40}, {"time": 123589, "pitch": 82, "duration": 10, "velocity": 60}, {"time": 123599, "pitch": 42, "duration": 10, "velocity": 85}, {"time": 123599, "pitch": 70, "duration": 10, "velocity": 65}, {"time": 123739, "pitch": 70, "duration": 10, "velocity": 40}, {"time": 123829, "pitch": 82, "duration": 10, "velocity": 65}, {"time": 123839, "pitch": 38, "duration": 10, "velocity": 112}, {"time": 123839, "pitch": 39, "duration": 10, "velocity": 113}, {"time": 123839, "pitch": 42, "duration": 10, "velocity": 90}, {"time": 123839, "pitch": 70, "duration": 10, "velocity": 65}, {"time": 123978, "pitch": 70, "duration": 10, "velocity": 40}, {"time": 124068, "pitch": 63, "duration": 10, "velocity": 82}, {"time": 124078, "pitch": 42, "duration": 10, "velocity": 85}, {"time": 124078, "pitch": 70, "duration": 10, "velocity": 65}, {"time": 124078, "pitch": 82, "duration": 10, "velocity": 67}, {"time": 124217, "pitch": 63, "duration": 10, "velocity": 107}, {"time": 124217, "pitch": 70, "duration": 10, "velocity": 40}, {"time": 124307, "pitch": 82, "duration": 10, "velocity": 63}, {"time": 124317, "pitch": 42, "duration": 10, "velocity": 90}, {"time": 124317, "pitch": 70, "duration": 10, "velocity": 65}, {"time": 124317, "pitch": 82, "duration": 10, "velocity": 63}, {"time": 124458, "pitch": 70, "duration": 11, "velocity": 40}, {"time": 124549, "pitch": 82, "duration": 11, "velocity": 69}, {"time": 124560, "pitch": 42, "duration": 10, "velocity": 85}, {"time": 124560, "pitch": 70, "duration": 10, "velocity": 65}, {"time": 124701, "pitch": 70, "duration": 10, "velocity": 40}, {"time": 124802, "pitch": 38, "duration": 10, "velocity": 112}, {"time": 124802, "pitch": 39, "duration": 10, "velocity": 113}, {"time": 124802, "pitch": 42, "duration": 10, "velocity": 90}, {"time": 124802, "pitch": 70, "duration": 10, "velocity": 65}, {"time": 124802, "pitch": 82, "duration": 10, "velocity": 58}, {"time": 124942, "pitch": 70, "duration": 10, "velocity": 40}, {"time": 125031, "pitch": 62, "duration": 10, "velocity": 86}, {"time": 125031, "pitch": 82, "duration": 10, "velocity": 74}, {"time": 125041, "pitch": 42, "duration": 10, "velocity": 85}, {"time": 125041, "pitch": 70, "duration": 10, "velocity": 65}, {"time": 125181, "pitch": 38, "duration": 10, "velocity": 92}, {"time": 125181, "pitch": 62, "duration": 10, "velocity": 119}, {"time": 125181, "pitch": 70, "duration": 10, "velocity": 40}, {"time": 125271, "pitch": 82, "duration": 10, "velocity": 75}, {"time": 125281, "pitch": 42, "duration": 10, "velocity": 90}, {"time": 125281, "pitch": 70, "duration": 10, "velocity": 65}, {"time": 125420, "pitch": 70, "duration": 10, "velocity": 40}, {"time": 125510, "pitch": 63, "duration": 10, "velocity": 91}, {"time": 125510, "pitch": 82, "duration": 10, "velocity": 60}, {"time": 125520, "pitch": 42, "duration": 10, "velocity": 85}, {"time": 125520, "pitch": 70, "duration": 10, "velocity": 65}, {"time": 125659, "pitch": 70, "duration": 10, "velocity": 40}, {"time": 125759, "pitch": 38, "duration": 10, "velocity": 112}, {"time": 125759, "pitch": 39, "duration": 10, "velocity": 113}, {"time": 125759, "pitch": 42, "duration": 10, "velocity": 90}, {"time": 125759, "pitch": 70, "duration": 10, "velocity": 65}, {"time": 125759, "pitch": 82, "duration": 10, "velocity": 70}, {"time": 125899, "pitch": 70, "duration": 10, "velocity": 40}, {"time": 125909, "pitch": 64, "duration": 9, "velocity": 122}, {"time": 125998, "pitch": 42, "duration": 10, "velocity": 85}, {"time": 125998, "pitch": 70, "duration": 10, "velocity": 65}, {"time": 125998, "pitch": 82, "duration": 10, "velocity": 75}, {"time": 126138, "pitch": 70, "duration": 10, "velocity": 40}, {"time": 126237, "pitch": 42, "duration": 10, "velocity": 90}, {"time": 126237, "pitch": 49, "duration": 10, "velocity": 104}, {"time": 126237, "pitch": 70, "duration": 10, "velocity": 65}, {"time": 126237, "pitch": 82, "duration": 10, "velocity": 62}, {"time": 126379, "pitch": 70, "duration": 10, "velocity": 40}, {"time": 126480, "pitch": 42, "duration": 10, "velocity": 85}, {"time": 126480, "pitch": 70, "duration": 10, "velocity": 65}, {"time": 126480, "pitch": 82, "duration": 10, "velocity": 70}, {"time": 126622, "pitch": 70, "duration": 10, "velocity": 40}, {"time": 126723, "pitch": 38, "duration": 10, "velocity": 112}, {"time": 126723, "pitch": 39, "duration": 10, "velocity": 113}, {"time": 126723, "pitch": 42, "duration": 10, "velocity": 90}, {"time": 126723, "pitch": 70, "duration": 10, "velocity": 65}, {"time": 126723, "pitch": 82, "duration": 10, "velocity": 71}, {"time": 126862, "pitch": 70, "duration": 10, "velocity": 40}, {"time": 126952, "pitch": 62, "duration": 10, "velocity": 91}, {"time": 126952, "pitch": 82, "duration": 10, "velocity": 68}, {"time": 126962, "pitch": 42, "duration": 10, "velocity": 85}, {"time": 126962, "pitch": 70, "duration": 10, "velocity": 65}, {"time": 127101, "pitch": 62, "duration": 10, "velocity": 113}, {"time": 127101, "pitch": 70, "duration": 10, "velocity": 40}, {"time": 127191, "pitch": 82, "duration": 10, "velocity": 66}, {"time": 127201, "pitch": 42, "duration": 10, "velocity": 90}, {"time": 127201, "pitch": 70, "duration": 10, "velocity": 65}, {"time": 127341, "pitch": 70, "duration": 10, "velocity": 40}, {"time": 127430, "pitch": 82, "duration": 10, "velocity": 67}, {"time": 127440, "pitch": 42, "duration": 10, "velocity": 85}, {"time": 127440, "pitch": 70, "duration": 10, "velocity": 65}, {"time": 127580, "pitch": 70, "duration": 10, "velocity": 40}, {"time": 127679, "pitch": 38, "duration": 10, "velocity": 112}, {"time": 127679, "pitch": 39, "duration": 10, "velocity": 113}, {"time": 127679, "pitch": 42, "duration": 10, "velocity": 90}, {"time": 127679, "pitch": 70, "duration": 10, "velocity": 65}, {"time": 127679, "pitch": 82, "duration": 10, "velocity": 69}, {"time": 127819, "pitch": 70, "duration": 10, "velocity": 40}, {"time": 127909, "pitch": 63, "duration": 10, "velocity": 87}, {"time": 127919, "pitch": 42, "duration": 10, "velocity": 85}, {"time": 127919, "pitch": 70, "duration": 10, "velocity": 65}, {"time": 127919, "pitch": 82, "duration": 10, "velocity": 66}, {"time": 128058, "pitch": 63, "duration": 10, "velocity": 107}, {"time": 128058, "pitch": 70, "duration": 10, "velocity": 40}, {"time": 128158, "pitch": 42, "duration": 10, "velocity": 90}, {"time": 128158, "pitch": 70, "duration": 10, "velocity": 65}, {"time": 128158, "pitch": 82, "duration": 10, "velocity": 73}, {"time": 128299, "pitch": 70, "duration": 10, "velocity": 40}, {"time": 128390, "pitch": 82, "duration": 10, "velocity": 59}, {"time": 128400, "pitch": 42, "duration": 11, "velocity": 85}, {"time": 128400, "pitch": 70, "duration": 11, "velocity": 65}, {"time": 128542, "pitch": 70, "duration": 10, "velocity": 40}, {"time": 128643, "pitch": 38, "duration": 10, "velocity": 112}, {"time": 128643, "pitch": 39, "duration": 10, "velocity": 113}, {"time": 128643, "pitch": 42, "duration": 10, "velocity": 90}, {"time": 128643, "pitch": 70, "duration": 10, "velocity": 65}, {"time": 128643, "pitch": 82, "duration": 10, "velocity": 63}, {"time": 128783, "pitch": 70, "duration": 10, "velocity": 40}, {"time": 128872, "pitch": 62, "duration": 10, "velocity": 88}, {"time": 128882, "pitch": 42, "duration": 10, "velocity": 85}, {"time": 128882, "pitch": 70, "duration": 10, "velocity": 65}, {"time": 128882, "pitch": 82, "duration": 10, "velocity": 60}, {"time": 129022, "pitch": 38, "duration": 10, "velocity": 92}, {"time": 129022, "pitch": 62, "duration": 10, "velocity": 119}, {"time": 129022, "pitch": 70, "duration": 10, "velocity": 40}, {"time": 129112, "pitch": 82, "duration": 9, "velocity": 74}, {"time": 129121, "pitch": 42, "duration": 10, "velocity": 90}, {"time": 129121, "pitch": 70, "duration": 10, "velocity": 65}, {"time": 129261, "pitch": 70, "duration": 10, "velocity": 40}, {"time": 129351, "pitch": 82, "duration": 10, "velocity": 63}, {"time": 129361, "pitch": 42, "duration": 10, "velocity": 85}, {"time": 129361, "pitch": 70, "duration": 10, "velocity": 65}, {"time": 129500, "pitch": 70, "duration": 10, "velocity": 40}, {"time": 129600, "pitch": 38, "duration": 10, "velocity": 112}, {"time": 129600, "pitch": 39, "duration": 10, "velocity": 113}, {"time": 129600, "pitch": 42, "duration": 10, "velocity": 90}, {"time": 129600, "pitch": 70, "duration": 10, "velocity": 65}, {"time": 129600, "pitch": 82, "duration": 10, "velocity": 68}, {"time": 129739, "pitch": 70, "duration": 10, "velocity": 40}, {"time": 129749, "pitch": 64, "duration": 10, "velocity": 114}, {"time": 129829, "pitch": 82, "duration": 10, "velocity": 60}, {"time": 129839, "pitch": 42, "duration": 10, "velocity": 85}, {"time": 129839, "pitch": 70, "duration": 10, "velocity": 65}, {"time": 129979, "pitch": 70, "duration": 10, "velocity": 40}, {"time": 130078, "pitch": 42, "duration": 10, "velocity": 90}, {"time": 130078, "pitch": 70, "duration": 10, "velocity": 65}, {"time": 130078, "pitch": 82, "duration": 10, "velocity": 62}, {"time": 130218, "pitch": 70, "duration": 10, "velocity": 40}, {"time": 130317, "pitch": 42, "duration": 10, "velocity": 85}, {"time": 130317, "pitch": 70, "duration": 10, "velocity": 65}, {"time": 130317, "pitch": 82, "duration": 10, "velocity": 67}, {"time": 130457, "pitch": 70, "duration": 10, "velocity": 40}, {"time": 130547, "pitch": 82, "duration": 10, "velocity": 70}, {"time": 130557, "pitch": 38, "duration": 10, "velocity": 112}, {"time": 130557, "pitch": 39, "duration": 10, "velocity": 113}, {"time": 130557, "pitch": 42, "duration": 10, "velocity": 90}, {"time": 130557, "pitch": 70, "duration": 10, "velocity": 65}, {"time": 130698, "pitch": 70, "duration": 10, "velocity": 40}, {"time": 130789, "pitch": 62, "duration": 10, "velocity": 91}, {"time": 130789, "pitch": 82, "duration": 10, "velocity": 69}, {"time": 130799, "pitch": 42, "duration": 10, "velocity": 85}, {"time": 130799, "pitch": 70, "duration": 10, "velocity": 65}, {"time": 130941, "pitch": 62, "duration": 10, "velocity": 119}, {"time": 130941, "pitch": 70, "duration": 10, "velocity": 40}, {"time": 131042, "pitch": 42, "duration": 10, "velocity": 90}, {"time": 131042, "pitch": 70, "duration": 10, "velocity": 65}, {"time": 131042, "pitch": 82, "duration": 10, "velocity": 71}, {"time": 131181, "pitch": 70, "duration": 10, "velocity": 40}, {"time": 131271, "pitch": 82, "duration": 10, "velocity": 60}, {"time": 131281, "pitch": 42, "duration": 10, "velocity": 85}, {"time": 131281, "pitch": 70, "duration": 10, "velocity": 65}, {"time": 131421, "pitch": 70, "duration": 10, "velocity": 40}, {"time": 131510, "pitch": 82, "duration": 10, "velocity": 65}, {"time": 131520, "pitch": 38, "duration": 10, "velocity": 112}, {"time": 131520, "pitch": 39, "duration": 10, "velocity": 113}, {"time": 131520, "pitch": 42, "duration": 10, "velocity": 90}, {"time": 131520, "pitch": 70, "duration": 10, "velocity": 65}, {"time": 131660, "pitch": 70, "duration": 10, "velocity": 40}, {"time": 131750, "pitch": 63, "duration": 9, "velocity": 82}, {"time": 131759, "pitch": 42, "duration": 10, "velocity": 85}, {"time": 131759, "pitch": 70, "duration": 10, "velocity": 65}, {"time": 131759, "pitch": 82, "duration": 10, "velocity": 67}, {"time": 131899, "pitch": 63, "duration": 10, "velocity": 107}, {"time": 131899, "pitch": 70, "duration": 10, "velocity": 40}, {"time": 131989, "pitch": 82, "duration": 10, "velocity": 63}, {"time": 131999, "pitch": 42, "duration": 10, "velocity": 90}, {"time": 131999, "pitch": 70, "duration": 10, "velocity": 65}, {"time": 131999, "pitch": 82, "duration": 10, "velocity": 63}, {"time": 132138, "pitch": 70, "duration": 10, "velocity": 40}, {"time": 132228, "pitch": 82, "duration": 10, "velocity": 69}, {"time": 132238, "pitch": 42, "duration": 10, "velocity": 85}, {"time": 132238, "pitch": 70, "duration": 10, "velocity": 65}, {"time": 132377, "pitch": 70, "duration": 10, "velocity": 40}, {"time": 132477, "pitch": 38, "duration": 10, "velocity": 112}, {"time": 132477, "pitch": 39, "duration": 10, "velocity": 113}, {"time": 132477, "pitch": 42, "duration": 10, "velocity": 90}, {"time": 132477, "pitch": 70, "duration": 10, "velocity": 65}, {"time": 132477, "pitch": 82, "duration": 10, "velocity": 58}, {"time": 132619, "pitch": 70, "duration": 10, "velocity": 40}, {"time": 132710, "pitch": 62, "duration": 10, "velocity": 86}, {"time": 132710, "pitch": 82, "duration": 10, "velocity": 74}, {"time": 132720, "pitch": 42, "duration": 10, "velocity": 85}, {"time": 132720, "pitch": 70, "duration": 10, "velocity": 65}, {"time": 132861, "pitch": 62, "duration": 10, "velocity": 119}, {"time": 132861, "pitch": 70, "duration": 10, "velocity": 40}, {"time": 132952, "pitch": 82, "duration": 10, "velocity": 75}, {"time": 132962, "pitch": 38, "duration": 10, "velocity": 112}, {"time": 132962, "pitch": 42, "duration": 10, "velocity": 90}, {"time": 132962, "pitch": 70, "duration": 10, "velocity": 65}, {"time": 133102, "pitch": 70, "duration": 10, "velocity": 40}, {"time": 133192, "pitch": 63, "duration": 10, "velocity": 91}, {"time": 133192, "pitch": 82, "duration": 10, "velocity": 60}, {"time": 133202, "pitch": 42, "duration": 9, "velocity": 85}, {"time": 133202, "pitch": 70, "duration": 9, "velocity": 65}, {"time": 133341, "pitch": 70, "duration": 10, "velocity": 40}, {"time": 133441, "pitch": 38, "duration": 10, "velocity": 112}, {"time": 133441, "pitch": 39, "duration": 10, "velocity": 113}, {"time": 133441, "pitch": 42, "duration": 10, "velocity": 90}, {"time": 133441, "pitch": 70, "duration": 10, "velocity": 65}, {"time": 133441, "pitch": 82, "duration": 10, "velocity": 70}, {"time": 133580, "pitch": 70, "duration": 10, "velocity": 40}, {"time": 133590, "pitch": 64, "duration": 10, "velocity": 122}, {"time": 133680, "pitch": 40, "duration": 10, "velocity": 122}, {"time": 133680, "pitch": 42, "duration": 10, "velocity": 85}, {"time": 133680, "pitch": 55, "duration": 10, "velocity": 124}, {"time": 133680, "pitch": 70, "duration": 10, "velocity": 65}, {"time": 133680, "pitch": 82, "duration": 10, "velocity": 75}, {"time": 133819, "pitch": 70, "duration": 10, "velocity": 40}, {"time": 133919, "pitch": 38, "duration": 10, "velocity": 112}, {"time": 133919, "pitch": 42, "duration": 10, "velocity": 90}, {"time": 133919, "pitch": 49, "duration": 10, "velocity": 104}, {"time": 133919, "pitch": 51, "duration": 10, "velocity": 92}, {"time": 133919, "pitch": 63, "duration": 10, "velocity": 94}, {"time": 133919, "pitch": 64, "duration": 10, "velocity": 113}, {"time": 133919, "pitch": 70, "duration": 10, "velocity": 65}, {"time": 133919, "pitch": 82, "duration": 10, "velocity": 62}, {"time": 134059, "pitch": 70, "duration": 10, "velocity": 40}, {"time": 134158, "pitch": 42, "duration": 10, "velocity": 85}, {"time": 134158, "pitch": 70, "duration": 10, "velocity": 65}, {"time": 134158, "pitch": 82, "duration": 10, "velocity": 67}, {"time": 134298, "pitch": 70, "duration": 10, "velocity": 40}, {"time": 134388, "pitch": 82, "duration": 10, "velocity": 70}, {"time": 134398, "pitch": 38, "duration": 10, "velocity": 112}, {"time": 134398, "pitch": 39, "duration": 10, "velocity": 113}, {"time": 134398, "pitch": 42, "duration": 10, "velocity": 90}, {"time": 134398, "pitch": 51, "duration": 10, "velocity": 92}, {"time": 134398, "pitch": 63, "duration": 10, "velocity": 106}, {"time": 134398, "pitch": 64, "duration": 10, "velocity": 113}, {"time": 134398, "pitch": 70, "duration": 10, "velocity": 65}, {"time": 134539, "pitch": 70, "duration": 10, "velocity": 40}, {"time": 134630, "pitch": 82, "duration": 10, "velocity": 69}, {"time": 134640, "pitch": 42, "duration": 10, "velocity": 85}, {"time": 134640, "pitch": 70, "duration": 10, "velocity": 65}, {"time": 134782, "pitch": 70, "duration": 10, "velocity": 40}, {"time": 134883, "pitch": 38, "duration": 10, "velocity": 112}, {"time": 134883, "pitch": 42, "duration": 10, "velocity": 90}, {"time": 134883, "pitch": 51, "duration": 10, "velocity": 92}, {"time": 134883, "pitch": 63, "duration": 10, "velocity": 100}, {"time": 134883, "pitch": 64, "duration": 10, "velocity": 109}, {"time": 134883, "pitch": 70, "duration": 10, "velocity": 65}, {"time": 134883, "pitch": 82, "duration": 10, "velocity": 71}, {"time": 135022, "pitch": 70, "duration": 10, "velocity": 40}, {"time": 135112, "pitch": 82, "duration": 10, "velocity": 60}, {"time": 135122, "pitch": 38, "duration": 10, "velocity": 112}, {"time": 135122, "pitch": 42, "duration": 10, "velocity": 85}, {"time": 135122, "pitch": 51, "duration": 10, "velocity": 92}, {"time": 135122, "pitch": 63, "duration": 10, "velocity": 100}, {"time": 135122, "pitch": 64, "duration": 10, "velocity": 113}, {"time": 135122, "pitch": 70, "duration": 10, "velocity": 65}, {"time": 135261, "pitch": 70, "duration": 10, "velocity": 40}, {"time": 135351, "pitch": 82, "duration": 10, "velocity": 65}, {"time": 135361, "pitch": 38, "duration": 10, "velocity": 112}, {"time": 135361, "pitch": 39, "duration": 10, "velocity": 113}, {"time": 135361, "pitch": 42, "duration": 10, "velocity": 90}, {"time": 135361, "pitch": 51, "duration": 10, "velocity": 92}, {"time": 135361, "pitch": 63, "duration": 10, "velocity": 106}, {"time": 135361, "pitch": 64, "duration": 10, "velocity": 113}, {"time": 135361, "pitch": 70, "duration": 10, "velocity": 65}, {"time": 135501, "pitch": 70, "duration": 10, "velocity": 40}, {"time": 135600, "pitch": 42, "duration": 10, "velocity": 85}, {"time": 135600, "pitch": 63, "duration": 10, "velocity": 100}, {"time": 135600, "pitch": 70, "duration": 10, "velocity": 65}, {"time": 135600, "pitch": 82, "duration": 10, "velocity": 67}, {"time": 135740, "pitch": 70, "duration": 10, "velocity": 40}, {"time": 135750, "pitch": 62, "duration": 10, "velocity": 103}, {"time": 135840, "pitch": 38, "duration": 10, "velocity": 112}, {"time": 135840, "pitch": 42, "duration": 10, "velocity": 90}, {"time": 135840, "pitch": 51, "duration": 10, "velocity": 92}, {"time": 135840, "pitch": 70, "duration": 10, "velocity": 65}, {"time": 135840, "pitch": 82, "duration": 10, "velocity": 62}, {"time": 135979, "pitch": 70, "duration": 10, "velocity": 40}, {"time": 136079, "pitch": 42, "duration": 10, "velocity": 85}, {"time": 136079, "pitch": 70, "duration": 10, "velocity": 65}, {"time": 136079, "pitch": 82, "duration": 10, "velocity": 67}, {"time": 136218, "pitch": 70, "duration": 10, "velocity": 40}, {"time": 136308, "pitch": 82, "duration": 10, "velocity": 70}, {"time": 136318, "pitch": 38, "duration": 10, "velocity": 112}, {"time": 136318, "pitch": 39, "duration": 10, "velocity": 113}, {"time": 136318, "pitch": 42, "duration": 10, "velocity": 90}, {"time": 136318, "pitch": 51, "duration": 10, "velocity": 92}, {"time": 136318, "pitch": 63, "duration": 10, "velocity": 113}, {"time": 136318, "pitch": 64, "duration": 10, "velocity": 109}, {"time": 136318, "pitch": 70, "duration": 10, "velocity": 65}, {"time": 136459, "pitch": 70, "duration": 11, "velocity": 40}, {"time": 136550, "pitch": 82, "duration": 11, "velocity": 69}, {"time": 136561, "pitch": 42, "duration": 10, "velocity": 85}, {"time": 136561, "pitch": 70, "duration": 10, "velocity": 65}, {"time": 136702, "pitch": 70, "duration": 10, "velocity": 40}, {"time": 136712, "pitch": 63, "duration": 10, "velocity": 94}, {"time": 136803, "pitch": 38, "duration": 10, "velocity": 112}, {"time": 136803, "pitch": 42, "duration": 10, "velocity": 90}, {"time": 136803, "pitch": 51, "duration": 10, "velocity": 92}, {"time": 136803, "pitch": 63, "duration": 10, "velocity": 90}, {"time": 136803, "pitch": 64, "duration": 10, "velocity": 103}, {"time": 136803, "pitch": 70, "duration": 10, "velocity": 65}, {"time": 136803, "pitch": 82, "duration": 10, "velocity": 71}, {"time": 136943, "pitch": 70, "duration": 10, "velocity": 40}, {"time": 137032, "pitch": 82, "duration": 10, "velocity": 60}, {"time": 137042, "pitch": 38, "duration": 10, "velocity": 112}, {"time": 137042, "pitch": 42, "duration": 10, "velocity": 85}, {"time": 137042, "pitch": 51, "duration": 10, "velocity": 92}, {"time": 137042, "pitch": 63, "duration": 10, "velocity": 94}, {"time": 137042, "pitch": 64, "duration": 10, "velocity": 109}, {"time": 137042, "pitch": 70, "duration": 10, "velocity": 65}, {"time": 137182, "pitch": 70, "duration": 10, "velocity": 40}, {"time": 137272, "pitch": 82, "duration": 10, "velocity": 65}, {"time": 137282, "pitch": 38, "duration": 10, "velocity": 112}, {"time": 137282, "pitch": 39, "duration": 10, "velocity": 113}, {"time": 137282, "pitch": 42, "duration": 10, "velocity": 90}, {"time": 137282, "pitch": 51, "duration": 10, "velocity": 92}, {"time": 137282, "pitch": 63, "duration": 10, "velocity": 113}, {"time": 137282, "pitch": 64, "duration": 10, "velocity": 117}, {"time": 137282, "pitch": 70, "duration": 10, "velocity": 65}, {"time": 137421, "pitch": 70, "duration": 10, "velocity": 40}, {"time": 137521, "pitch": 38, "duration": 10, "velocity": 112}, {"time": 137521, "pitch": 42, "duration": 10, "velocity": 85}, {"time": 137521, "pitch": 63, "duration": 10, "velocity": 90}, {"time": 137521, "pitch": 64, "duration": 10, "velocity": 103}, {"time": 137521, "pitch": 70, "duration": 10, "velocity": 65}, {"time": 137521, "pitch": 82, "duration": 10, "velocity": 67}, {"time": 137660, "pitch": 70, "duration": 10, "velocity": 40}, {"time": 137760, "pitch": 38, "duration": 10, "velocity": 112}, {"time": 137760, "pitch": 42, "duration": 10, "velocity": 90}, {"time": 137760, "pitch": 51, "duration": 10, "velocity": 92}, {"time": 137760, "pitch": 63, "duration": 10, "velocity": 106}, {"time": 137760, "pitch": 64, "duration": 10, "velocity": 113}, {"time": 137760, "pitch": 70, "duration": 10, "velocity": 65}, {"time": 137760, "pitch": 82, "duration": 10, "velocity": 62}, {"time": 137899, "pitch": 70, "duration": 10, "velocity": 40}, {"time": 137999, "pitch": 42, "duration": 10, "velocity": 85}, {"time": 137999, "pitch": 70, "duration": 10, "velocity": 65}, {"time": 137999, "pitch": 82, "duration": 10, "velocity": 67}, {"time": 138139, "pitch": 70, "duration": 10, "velocity": 40}, {"time": 138228, "pitch": 82, "duration": 10, "velocity": 70}, {"time": 138238, "pitch": 38, "duration": 10, "velocity": 112}, {"time": 138238, "pitch": 39, "duration": 10, "velocity": 113}, {"time": 138238, "pitch": 42, "duration": 10, "velocity": 90}, {"time": 138238, "pitch": 51, "duration": 10, "velocity": 92}, {"time": 138238, "pitch": 63, "duration": 10, "velocity": 106}, {"time": 138238, "pitch": 64, "duration": 10, "velocity": 113}, {"time": 138238, "pitch": 70, "duration": 10, "velocity": 65}, {"time": 138378, "pitch": 70, "duration": 10, "velocity": 40}, {"time": 138468, "pitch": 82, "duration": 10, "velocity": 69}, {"time": 138478, "pitch": 42, "duration": 10, "velocity": 85}, {"time": 138478, "pitch": 70, "duration": 10, "velocity": 65}, {"time": 138617, "pitch": 70, "duration": 10, "velocity": 40}, {"time": 138717, "pitch": 38, "duration": 10, "velocity": 112}, {"time": 138717, "pitch": 42, "duration": 10, "velocity": 90}, {"time": 138717, "pitch": 51, "duration": 10, "velocity": 92}, {"time": 138717, "pitch": 63, "duration": 10, "velocity": 94}, {"time": 138717, "pitch": 64, "duration": 10, "velocity": 103}, {"time": 138717, "pitch": 70, "duration": 10, "velocity": 65}, {"time": 138717, "pitch": 82, "duration": 10, "velocity": 71}, {"time": 138858, "pitch": 70, "duration": 10, "velocity": 40}, {"time": 138949, "pitch": 82, "duration": 10, "velocity": 60}, {"time": 138959, "pitch": 38, "duration": 10, "velocity": 112}, {"time": 138959, "pitch": 42, "duration": 10, "velocity": 85}, {"time": 138959, "pitch": 51, "duration": 10, "velocity": 92}, {"time": 138959, "pitch": 63, "duration": 10, "velocity": 106}, {"time": 138959, "pitch": 64, "duration": 10, "velocity": 113}, {"time": 138959, "pitch": 70, "duration": 10, "velocity": 65}, {"time": 139101, "pitch": 70, "duration": 10, "velocity": 40}, {"time": 139192, "pitch": 82, "duration": 10, "velocity": 65}, {"time": 139202, "pitch": 38, "duration": 10, "velocity": 112}, {"time": 139202, "pitch": 39, "duration": 10, "velocity": 113}, {"time": 139202, "pitch": 42, "duration": 10, "velocity": 90}, {"time": 139202, "pitch": 51, "duration": 10, "velocity": 92}, {"time": 139202, "pitch": 63, "duration": 10, "velocity": 100}, {"time": 139202, "pitch": 64, "duration": 10, "velocity": 113}, {"time": 139202, "pitch": 70, "duration": 10, "velocity": 65}, {"time": 139342, "pitch": 70, "duration": 9, "velocity": 40}, {"time": 139441, "pitch": 42, "duration": 10, "velocity": 85}, {"time": 139441, "pitch": 63, "duration": 10, "velocity": 113}, {"time": 139441, "pitch": 64, "duration": 10, "velocity": 117}, {"time": 139441, "pitch": 70, "duration": 10, "velocity": 65}, {"time": 139441, "pitch": 82, "duration": 10, "velocity": 67}, {"time": 139581, "pitch": 70, "duration": 10, "velocity": 40}, {"time": 139670, "pitch": 82, "duration": 10, "velocity": 63}, {"time": 139680, "pitch": 42, "duration": 10, "velocity": 90}, {"time": 139680, "pitch": 51, "duration": 10, "velocity": 92}, {"time": 139680, "pitch": 63, "duration": 10, "velocity": 106}, {"time": 139680, "pitch": 64, "duration": 10, "velocity": 113}, {"time": 139680, "pitch": 70, "duration": 10, "velocity": 65}, {"time": 139680, "pitch": 82, "duration": 10, "velocity": 63}, {"time": 139820, "pitch": 70, "duration": 10, "velocity": 40}, {"time": 139910, "pitch": 51, "duration": 10, "velocity": 107}, {"time": 139910, "pitch": 82, "duration": 10, "velocity": 69}, {"time": 139920, "pitch": 38, "duration": 10, "velocity": 112}, {"time": 139920, "pitch": 39, "duration": 10, "velocity": 113}, {"time": 139920, "pitch": 42, "duration": 10, "velocity": 85}, {"time": 139920, "pitch": 70, "duration": 10, "velocity": 65}, {"time": 140059, "pitch": 70, "duration": 10, "velocity": 40}, {"time": 140159, "pitch": 42, "duration": 10, "velocity": 90}, {"time": 140159, "pitch": 51, "duration": 10, "velocity": 92}, {"time": 140159, "pitch": 63, "duration": 10, "velocity": 113}, {"time": 140159, "pitch": 64, "duration": 10, "velocity": 109}, {"time": 140159, "pitch": 70, "duration": 10, "velocity": 65}, {"time": 140159, "pitch": 82, "duration": 10, "velocity": 58}, {"time": 140298, "pitch": 70, "duration": 10, "velocity": 40}, {"time": 140388, "pitch": 51, "duration": 10, "velocity": 107}, {"time": 140388, "pitch": 82, "duration": 10, "velocity": 74}, {"time": 140398, "pitch": 38, "duration": 10, "velocity": 112}, {"time": 140398, "pitch": 39, "duration": 10, "velocity": 113}, {"time": 140398, "pitch": 42, "duration": 10, "velocity": 85}, {"time": 140398, "pitch": 70, "duration": 10, "velocity": 65}, {"time": 140538, "pitch": 38, "duration": 9, "velocity": 92}, {"time": 140538, "pitch": 70, "duration": 9, "velocity": 40}, {"time": 140547, "pitch": 63, "duration": 10, "velocity": 94}, {"time": 140627, "pitch": 51, "duration": 10, "velocity": 92}, {"time": 140627, "pitch": 82, "duration": 10, "velocity": 75}, {"time": 140637, "pitch": 42, "duration": 10, "velocity": 90}, {"time": 140637, "pitch": 63, "duration": 10, "velocity": 90}, {"time": 140637, "pitch": 64, "duration": 10, "velocity": 103}, {"time": 140637, "pitch": 70, "duration": 10, "velocity": 65}, {"time": 140779, "pitch": 70, "duration": 10, "velocity": 40}, {"time": 140789, "pitch": 63, "duration": 10, "velocity": 100}, {"time": 140789, "pitch": 64, "duration": 10, "velocity": 109}, {"time": 140870, "pitch": 51, "duration": 10, "velocity": 107}, {"time": 140870, "pitch": 82, "duration": 10, "velocity": 60}, {"time": 140880, "pitch": 38, "duration": 10, "velocity": 112}, {"time": 140880, "pitch": 39, "duration": 10, "velocity": 113}, {"time": 140880, "pitch": 42, "duration": 10, "velocity": 85}, {"time": 140880, "pitch": 70, "duration": 10, "velocity": 65}, {"time": 141021, "pitch": 70, "duration": 10, "velocity": 40}, {"time": 141122, "pitch": 42, "duration": 10, "velocity": 90}, {"time": 141122, "pitch": 51, "duration": 10, "velocity": 92}, {"time": 141122, "pitch": 63, "duration": 10, "velocity": 106}, {"time": 141122, "pitch": 64, "duration": 10, "velocity": 109}, {"time": 141122, "pitch": 70, "duration": 10, "velocity": 65}, {"time": 141122, "pitch": 82, "duration": 10, "velocity": 70}, {"time": 141262, "pitch": 70, "duration": 10, "velocity": 40}, {"time": 141362, "pitch": 39, "duration": 10, "velocity": 113}, {"time": 141362, "pitch": 40, "duration": 10, "velocity": 122}, {"time": 141362, "pitch": 42, "duration": 10, "velocity": 85}, {"time": 141362, "pitch": 55, "duration": 10, "velocity": 124}, {"time": 141362, "pitch": 63, "duration": 10, "velocity": 113}, {"time": 141362, "pitch": 64, "duration": 10, "velocity": 117}, {"time": 141362, "pitch": 70, "duration": 10, "velocity": 65}, {"time": 141362, "pitch": 82, "duration": 10, "velocity": 75}, {"time": 141501, "pitch": 70, "duration": 10, "velocity": 40}, {"time": 141601, "pitch": 42, "duration": 10, "velocity": 90}, {"time": 141601, "pitch": 49, "duration": 10, "velocity": 104}, {"time": 141601, "pitch": 70, "duration": 10, "velocity": 65}, {"time": 141601, "pitch": 82, "duration": 10, "velocity": 62}, {"time": 141740, "pitch": 70, "duration": 10, "velocity": 40}, {"time": 141840, "pitch": 42, "duration": 10, "velocity": 85}, {"time": 141840, "pitch": 70, "duration": 10, "velocity": 65}, {"time": 141840, "pitch": 82, "duration": 10, "velocity": 70}, {"time": 141980, "pitch": 70, "duration": 10, "velocity": 40}, {"time": 142079, "pitch": 38, "duration": 10, "velocity": 112}, {"time": 142079, "pitch": 39, "duration": 10, "velocity": 113}, {"time": 142079, "pitch": 42, "duration": 10, "velocity": 90}, {"time": 142079, "pitch": 70, "duration": 10, "velocity": 65}, {"time": 142079, "pitch": 82, "duration": 10, "velocity": 71}, {"time": 142219, "pitch": 70, "duration": 10, "velocity": 40}, {"time": 142308, "pitch": 62, "duration": 10, "velocity": 91}, {"time": 142308, "pitch": 82, "duration": 10, "velocity": 68}, {"time": 142318, "pitch": 42, "duration": 10, "velocity": 85}, {"time": 142318, "pitch": 70, "duration": 10, "velocity": 65}, {"time": 142458, "pitch": 62, "duration": 10, "velocity": 113}, {"time": 142458, "pitch": 70, "duration": 10, "velocity": 40}, {"time": 142548, "pitch": 82, "duration": 10, "velocity": 66}, {"time": 142558, "pitch": 42, "duration": 10, "velocity": 90}, {"time": 142558, "pitch": 70, "duration": 10, "velocity": 65}, {"time": 142699, "pitch": 70, "duration": 10, "velocity": 40}, {"time": 142790, "pitch": 82, "duration": 10, "velocity": 67}, {"time": 142800, "pitch": 42, "duration": 10, "velocity": 85}, {"time": 142800, "pitch": 70, "duration": 10, "velocity": 65}, {"time": 142942, "pitch": 70, "duration": 10, "velocity": 40}, {"time": 143043, "pitch": 38, "duration": 10, "velocity": 112}, {"time": 143043, "pitch": 39, "duration": 10, "velocity": 113}, {"time": 143043, "pitch": 42, "duration": 10, "velocity": 90}, {"time": 143043, "pitch": 70, "duration": 10, "velocity": 65}, {"time": 143043, "pitch": 82, "duration": 10, "velocity": 69}, {"time": 143182, "pitch": 70, "duration": 10, "velocity": 40}, {"time": 143272, "pitch": 63, "duration": 10, "velocity": 87}, {"time": 143282, "pitch": 42, "duration": 10, "velocity": 85}, {"time": 143282, "pitch": 70, "duration": 10, "velocity": 65}, {"time": 143282, "pitch": 82, "duration": 10, "velocity": 66}, {"time": 143422, "pitch": 63, "duration": 10, "velocity": 107}, {"time": 143422, "pitch": 70, "duration": 10, "velocity": 40}, {"time": 143521, "pitch": 42, "duration": 10, "velocity": 90}, {"time": 143521, "pitch": 70, "duration": 10, "velocity": 65}, {"time": 143521, "pitch": 82, "duration": 10, "velocity": 73}, {"time": 143661, "pitch": 70, "duration": 10, "velocity": 40}, {"time": 143750, "pitch": 82, "duration": 10, "velocity": 59}, {"time": 143760, "pitch": 42, "duration": 10, "velocity": 85}, {"time": 143760, "pitch": 70, "duration": 10, "velocity": 65}, {"time": 143900, "pitch": 70, "duration": 10, "velocity": 40}, {"time": 144000, "pitch": 38, "duration": 10, "velocity": 112}, {"time": 144000, "pitch": 39, "duration": 10, "velocity": 113}, {"time": 144000, "pitch": 42, "duration": 10, "velocity": 90}, {"time": 144000, "pitch": 70, "duration": 10, "velocity": 65}, {"time": 144000, "pitch": 82, "duration": 10, "velocity": 63}, {"time": 144139, "pitch": 70, "duration": 10, "velocity": 40}, {"time": 144229, "pitch": 62, "duration": 10, "velocity": 88}, {"time": 144239, "pitch": 42, "duration": 10, "velocity": 85}, {"time": 144239, "pitch": 70, "duration": 10, "velocity": 65}, {"time": 144239, "pitch": 82, "duration": 10, "velocity": 60}, {"time": 144378, "pitch": 62, "duration": 10, "velocity": 119}, {"time": 144378, "pitch": 70, "duration": 10, "velocity": 40}, {"time": 144468, "pitch": 82, "duration": 10, "velocity": 74}, {"time": 144478, "pitch": 42, "duration": 10, "velocity": 90}, {"time": 144478, "pitch": 70, "duration": 10, "velocity": 65}, {"time": 144620, "pitch": 70, "duration": 10, "velocity": 40}, {"time": 144711, "pitch": 82, "duration": 10, "velocity": 63}, {"time": 144721, "pitch": 42, "duration": 10, "velocity": 85}, {"time": 144721, "pitch": 70, "duration": 10, "velocity": 65}, {"time": 144862, "pitch": 70, "duration": 10, "velocity": 40}, {"time": 144963, "pitch": 38, "duration": 10, "velocity": 112}, {"time": 144963, "pitch": 39, "duration": 10, "velocity": 113}, {"time": 144963, "pitch": 42, "duration": 10, "velocity": 90}, {"time": 144963, "pitch": 70, "duration": 10, "velocity": 65}, {"time": 144963, "pitch": 82, "duration": 10, "velocity": 68}, {"time": 145103, "pitch": 70, "duration": 10, "velocity": 40}, {"time": 145113, "pitch": 64, "duration": 10, "velocity": 114}, {"time": 145193, "pitch": 82, "duration": 9, "velocity": 60}, {"time": 145202, "pitch": 42, "duration": 10, "velocity": 85}, {"time": 145202, "pitch": 70, "duration": 10, "velocity": 65}, {"time": 145342, "pitch": 70, "duration": 10, "velocity": 40}, {"time": 145442, "pitch": 42, "duration": 10, "velocity": 90}, {"time": 145442, "pitch": 70, "duration": 10, "velocity": 65}, {"time": 145442, "pitch": 82, "duration": 10, "velocity": 62}, {"time": 145581, "pitch": 70, "duration": 10, "velocity": 40}, {"time": 145681, "pitch": 42, "duration": 10, "velocity": 85}, {"time": 145681, "pitch": 70, "duration": 10, "velocity": 65}, {"time": 145681, "pitch": 82, "duration": 10, "velocity": 67}, {"time": 145820, "pitch": 70, "duration": 10, "velocity": 40}, {"time": 145910, "pitch": 82, "duration": 10, "velocity": 70}, {"time": 145920, "pitch": 38, "duration": 10, "velocity": 112}, {"time": 145920, "pitch": 39, "duration": 10, "velocity": 113}, {"time": 145920, "pitch": 42, "duration": 10, "velocity": 90}, {"time": 145920, "pitch": 70, "duration": 10, "velocity": 65}, {"time": 146060, "pitch": 70, "duration": 10, "velocity": 40}, {"time": 146149, "pitch": 62, "duration": 10, "velocity": 91}, {"time": 146149, "pitch": 82, "duration": 10, "velocity": 69}, {"time": 146159, "pitch": 42, "duration": 10, "velocity": 85}, {"time": 146159, "pitch": 70, "duration": 10, "velocity": 65}, {"time": 146299, "pitch": 49, "duration": 10, "velocity": 104}, {"time": 146299, "pitch": 62, "duration": 10, "velocity": 119}, {"time": 146299, "pitch": 70, "duration": 10, "velocity": 40}, {"time": 146398, "pitch": 42, "duration": 10, "velocity": 90}, {"time": 146398, "pitch": 70, "duration": 10, "velocity": 65}, {"time": 146398, "pitch": 82, "duration": 10, "velocity": 71}, {"time": 146538, "pitch": 38, "duration": 10, "velocity": 92}, {"time": 146538, "pitch": 70, "duration": 10, "velocity": 40}, {"time": 146628, "pitch": 82, "duration": 10, "velocity": 60}, {"time": 146638, "pitch": 42, "duration": 10, "velocity": 85}, {"time": 146638, "pitch": 70, "duration": 10, "velocity": 65}, {"time": 146777, "pitch": 70, "duration": 10, "velocity": 40}, {"time": 146867, "pitch": 82, "duration": 10, "velocity": 65}, {"time": 146877, "pitch": 38, "duration": 10, "velocity": 112}, {"time": 146877, "pitch": 39, "duration": 10, "velocity": 113}, {"time": 146877, "pitch": 42, "duration": 10, "velocity": 90}, {"time": 146877, "pitch": 70, "duration": 10, "velocity": 65}, {"time": 147018, "pitch": 70, "duration": 10, "velocity": 40}, {"time": 147109, "pitch": 63, "duration": 10, "velocity": 82}, {"time": 147119, "pitch": 42, "duration": 11, "velocity": 85}, {"time": 147119, "pitch": 70, "duration": 11, "velocity": 65}, {"time": 147119, "pitch": 82, "duration": 11, "velocity": 67}, {"time": 147251, "pitch": 38, "duration": 10, "velocity": 50}, {"time": 147261, "pitch": 38, "duration": 10, "velocity": 55}, {"time": 147261, "pitch": 63, "duration": 10, "velocity": 107}, {"time": 147261, "pitch": 70, "duration": 10, "velocity": 40}, {"time": 147281, "pitch": 38, "duration": 10, "velocity": 59}, {"time": 147291, "pitch": 38, "duration": 10, "velocity": 64}, {"time": 147301, "pitch": 38, "duration": 11, "velocity": 68}, {"time": 147322, "pitch": 38, "duration": 10, "velocity": 73}, {"time": 147332, "pitch": 38, "duration": 10, "velocity": 78}, {"time": 147342, "pitch": 38, "duration": 10, "velocity": 82}, {"time": 147352, "pitch": 82, "duration": 10, "velocity": 63}, {"time": 147362, "pitch": 38, "duration": 10, "velocity": 92}, {"time": 147362, "pitch": 42, "duration": 10, "velocity": 90}, {"time": 147362, "pitch": 49, "duration": 10, "velocity": 104}, {"time": 147362, "pitch": 51, "duration": 10, "velocity": 92}, {"time": 147362, "pitch": 70, "duration": 10, "velocity": 65}, {"time": 147362, "pitch": 82, "duration": 10, "velocity": 63}, {"time": 147502, "pitch": 70, "duration": 10, "velocity": 40}, {"time": 147591, "pitch": 51, "duration": 10, "velocity": 107}, {"time": 147591, "pitch": 63, "duration": 10, "velocity": 91}, {"time": 147591, "pitch": 82, "duration": 10, "velocity": 69}, {"time": 147601, "pitch": 38, "duration": 10, "velocity": 112}, {"time": 147601, "pitch": 39, "duration": 10, "velocity": 113}, {"time": 147601, "pitch": 42, "duration": 10, "velocity": 85}, {"time": 147601, "pitch": 70, "duration": 10, "velocity": 65}, {"time": 147741, "pitch": 70, "duration": 10, "velocity": 40}, {"time": 147840, "pitch": 42, "duration": 10, "velocity": 90}, {"time": 147840, "pitch": 51, "duration": 10, "velocity": 92}, {"time": 147840, "pitch": 70, "duration": 10, "velocity": 65}, {"time": 147840, "pitch": 82, "duration": 10, "velocity": 58}, {"time": 147980, "pitch": 70, "duration": 10, "velocity": 40}, {"time": 148070, "pitch": 51, "duration": 10, "velocity": 107}, {"time": 148070, "pitch": 63, "duration": 10, "velocity": 86}, {"time": 148070, "pitch": 82, "duration": 10, "velocity": 74}, {"time": 148080, "pitch": 38, "duration": 10, "velocity": 112}, {"time": 148080, "pitch": 39, "duration": 10, "velocity": 113}, {"time": 148080, "pitch": 42, "duration": 10, "velocity": 85}, {"time": 148080, "pitch": 70, "duration": 10, "velocity": 65}, {"time": 148219, "pitch": 62, "duration": 10, "velocity": 119}, {"time": 148219, "pitch": 70, "duration": 10, "velocity": 40}, {"time": 148309, "pitch": 51, "duration": 10, "velocity": 92}, {"time": 148309, "pitch": 82, "duration": 10, "velocity": 75}, {"time": 148319, "pitch": 38, "duration": 10, "velocity": 92}, {"time": 148319, "pitch": 42, "duration": 10, "velocity": 90}, {"time": 148319, "pitch": 70, "duration": 10, "velocity": 65}, {"time": 148458, "pitch": 70, "duration": 10, "velocity": 40}, {"time": 148548, "pitch": 51, "duration": 10, "velocity": 107}, {"time": 148548, "pitch": 63, "duration": 10, "velocity": 91}, {"time": 148548, "pitch": 82, "duration": 10, "velocity": 60}, {"time": 148558, "pitch": 38, "duration": 10, "velocity": 112}, {"time": 148558, "pitch": 39, "duration": 10, "velocity": 113}, {"time": 148558, "pitch": 42, "duration": 10, "velocity": 85}, {"time": 148558, "pitch": 70, "duration": 10, "velocity": 65}, {"time": 148698, "pitch": 38, "duration": 10, "velocity": 92}, {"time": 148698, "pitch": 64, "duration": 10, "velocity": 119}, {"time": 148698, "pitch": 70, "duration": 10, "velocity": 40}, {"time": 148797, "pitch": 42, "duration": 10, "velocity": 90}, {"time": 148797, "pitch": 51, "duration": 10, "velocity": 92}, {"time": 148797, "pitch": 70, "duration": 10, "velocity": 65}, {"time": 148797, "pitch": 82, "duration": 10, "velocity": 70}, {"time": 148939, "pitch": 70, "duration": 10, "velocity": 40}, {"time": 148949, "pitch": 64, "duration": 10, "velocity": 122}, {"time": 149040, "pitch": 38, "duration": 10, "velocity": 112}, {"time": 149040, "pitch": 39, "duration": 10, "velocity": 113}, {"time": 149040, "pitch": 42, "duration": 10, "velocity": 85}, {"time": 149040, "pitch": 55, "duration": 10, "velocity": 124}, {"time": 149040, "pitch": 70, "duration": 10, "velocity": 65}, {"time": 149040, "pitch": 82, "duration": 10, "velocity": 75}, {"time": 149181, "pitch": 70, "duration": 11, "velocity": 40}, {"time": 149283, "pitch": 38, "duration": 9, "velocity": 102}, {"time": 149283, "pitch": 51, "duration": 9, "velocity": 92}, {"time": 149283, "pitch": 55, "duration": 9, "velocity": 98}, {"time": 149512, "pitch": 51, "duration": 10, "velocity": 107}, {"time": 149522, "pitch": 38, "duration": 10, "velocity": 112}, {"time": 149522, "pitch": 39, "duration": 10, "velocity": 113}, {"time": 149522, "pitch": 50, "duration": 10, "velocity": 115}, {"time": 149522, "pitch": 55, "duration": 10, "velocity": 108}, {"time": 149761, "pitch": 38, "duration": 10, "velocity": 102}, {"time": 149761, "pitch": 51, "duration": 10, "velocity": 92}, {"time": 149761, "pitch": 55, "duration": 10, "velocity": 112}, {"time": 149990, "pitch": 51, "duration": 10, "velocity": 107}, {"time": 150000, "pitch": 38, "duration": 10, "velocity": 112}, {"time": 150000, "pitch": 39, "duration": 10, "velocity": 113}, {"time": 150000, "pitch": 48, "duration": 10, "velocity": 104}, {"time": 150000, "pitch": 55, "duration": 10, "velocity": 108}, {"time": 150140, "pitch": 38, "duration": 10, "velocity": 112}, {"time": 150150, "pitch": 48, "duration": 10, "velocity": 110}, {"time": 150229, "pitch": 51, "duration": 10, "velocity": 92}, {"time": 150239, "pitch": 38, "duration": 10, "velocity": 102}, {"time": 150239, "pitch": 55, "duration": 10, "velocity": 112}, {"time": 150469, "pitch": 51, "duration": 9, "velocity": 107}, {"time": 150478, "pitch": 38, "duration": 10, "velocity": 112}, {"time": 150478, "pitch": 39, "duration": 10, "velocity": 113}, {"time": 150478, "pitch": 47, "duration": 10, "velocity": 101}, {"time": 150478, "pitch": 55, "duration": 10, "velocity": 120}, {"time": 150618, "pitch": 38, "duration": 10, "velocity": 102}, {"time": 150628, "pitch": 45, "duration": 10, "velocity": 110}, {"time": 150718, "pitch": 38, "duration": 10, "velocity": 102}, {"time": 150718, "pitch": 51, "duration": 10, "velocity": 92}, {"time": 150718, "pitch": 55, "duration": 10, "velocity": 127}, {"time": 150869, "pitch": 45, "duration": 10, "velocity": 117}, {"time": 150960, "pitch": 39, "duration": 10, "velocity": 113}, {"time": 150960, "pitch": 40, "duration": 10, "velocity": 122}, {"time": 150960, "pitch": 43, "duration": 10, "velocity": 110}, {"time": 150960, "pitch": 55, "duration": 10, "velocity": 127}, {"time": 151203, "pitch": 42, "duration": 10, "velocity": 90}, {"time": 151203, "pitch": 49, "duration": 10, "velocity": 104}, {"time": 151203, "pitch": 70, "duration": 10, "velocity": 65}, {"time": 151203, "pitch": 82, "duration": 10, "velocity": 62}, {"time": 151342, "pitch": 70, "duration": 10, "velocity": 40}, {"time": 151432, "pitch": 63, "duration": 10, "velocity": 96}, {"time": 151442, "pitch": 42, "duration": 10, "velocity": 85}, {"time": 151442, "pitch": 70, "duration": 10, "velocity": 65}, {"time": 151442, "pitch": 82, "duration": 10, "velocity": 70}, {"time": 151582, "pitch": 70, "duration": 10, "velocity": 40}, {"time": 151671, "pitch": 62, "duration": 10, "velocity": 107}, {"time": 151681, "pitch": 38, "duration": 10, "velocity": 112}, {"time": 151681, "pitch": 39, "duration": 10, "velocity": 113}, {"time": 151681, "pitch": 42, "duration": 10, "velocity": 90}, {"time": 151681, "pitch": 70, "duration": 10, "velocity": 65}, {"time": 151681, "pitch": 82, "duration": 10, "velocity": 71}, {"time": 151821, "pitch": 70, "duration": 10, "velocity": 40}, {"time": 151911, "pitch": 64, "duration": 10, "velocity": 107}, {"time": 151911, "pitch": 82, "duration": 10, "velocity": 68}, {"time": 151921, "pitch": 42, "duration": 9, "velocity": 85}, {"time": 151921, "pitch": 70, "duration": 9, "velocity": 65}, {"time": 152060, "pitch": 64, "duration": 10, "velocity": 107}, {"time": 152060, "pitch": 70, "duration": 10, "velocity": 40}, {"time": 152150, "pitch": 82, "duration": 10, "velocity": 66}, {"time": 152160, "pitch": 42, "duration": 10, "velocity": 90}, {"time": 152160, "pitch": 70, "duration": 10, "velocity": 65}, {"time": 152299, "pitch": 70, "duration": 10, "velocity": 40}, {"time": 152389, "pitch": 63, "duration": 10, "velocity": 100}, {"time": 152389, "pitch": 82, "duration": 10, "velocity": 67}, {"time": 152399, "pitch": 42, "duration": 10, "velocity": 85}, {"time": 152399, "pitch": 70, "duration": 10, "velocity": 65}, {"time": 152538, "pitch": 70, "duration": 10, "velocity": 40}, {"time": 152628, "pitch": 62, "duration": 10, "velocity": 113}, {"time": 152638, "pitch": 38, "duration": 10, "velocity": 112}, {"time": 152638, "pitch": 39, "duration": 10, "velocity": 113}, {"time": 152638, "pitch": 42, "duration": 10, "velocity": 90}, {"time": 152638, "pitch": 70, "duration": 10, "velocity": 65}, {"time": 152638, "pitch": 82, "duration": 10, "velocity": 69}, {"time": 152780, "pitch": 70, "duration": 10, "velocity": 40}, {"time": 152881, "pitch": 42, "duration": 10, "velocity": 85}, {"time": 152881, "pitch": 70, "duration": 10, "velocity": 65}, {"time": 152881, "pitch": 82, "duration": 10, "velocity": 66}, {"time": 153022, "pitch": 70, "duration": 10, "velocity": 40}, {"time": 153123, "pitch": 42, "duration": 10, "velocity": 90}, {"time": 153123, "pitch": 70, "duration": 10, "velocity": 65}, {"time": 153123, "pitch": 82, "duration": 10, "velocity": 73}, {"time": 153263, "pitch": 70, "duration": 10, "velocity": 40}, {"time": 153353, "pitch": 63, "duration": 10, "velocity": 104}, {"time": 153353, "pitch": 82, "duration": 10, "velocity": 59}, {"time": 153363, "pitch": 42, "duration": 10, "velocity": 85}, {"time": 153363, "pitch": 70, "duration": 10, "velocity": 65}, {"time": 153502, "pitch": 70, "duration": 10, "velocity": 40}, {"time": 153592, "pitch": 62, "duration": 10, "velocity": 113}, {"time": 153602, "pitch": 38, "duration": 10, "velocity": 112}, {"time": 153602, "pitch": 39, "duration": 10, "velocity": 113}, {"time": 153602, "pitch": 42, "duration": 10, "velocity": 90}, {"time": 153602, "pitch": 70, "duration": 10, "velocity": 65}, {"time": 153602, "pitch": 82, "duration": 10, "velocity": 63}, {"time": 153741, "pitch": 70, "duration": 10, "velocity": 40}, {"time": 153831, "pitch": 64, "duration": 10, "velocity": 107}, {"time": 153841, "pitch": 42, "duration": 10, "velocity": 85}, {"time": 153841, "pitch": 70, "duration": 10, "velocity": 65}, {"time": 153841, "pitch": 82, "duration": 10, "velocity": 60}, {"time": 153980, "pitch": 64, "duration": 10, "velocity": 104}, {"time": 153980, "pitch": 70, "duration": 10, "velocity": 40}, {"time": 154070, "pitch": 82, "duration": 10, "velocity": 74}, {"time": 154080, "pitch": 42, "duration": 10, "velocity": 90}, {"time": 154080, "pitch": 70, "duration": 10, "velocity": 65}, {"time": 154220, "pitch": 63, "duration": 10, "velocity": 110}, {"time": 154220, "pitch": 70, "duration": 10, "velocity": 40}, {"time": 154309, "pitch": 82, "duration": 10, "velocity": 63}, {"time": 154319, "pitch": 42, "duration": 10, "velocity": 85}, {"time": 154319, "pitch": 70, "duration": 10, "velocity": 65}, {"time": 154459, "pitch": 70, "duration": 10, "velocity": 40}, {"time": 154549, "pitch": 63, "duration": 10, "velocity": 96}, {"time": 154559, "pitch": 38, "duration": 10, "velocity": 112}, {"time": 154559, "pitch": 39, "duration": 10, "velocity": 113}, {"time": 154559, "pitch": 42, "duration": 10, "velocity": 90}, {"time": 154559, "pitch": 70, "duration": 10, "velocity": 65}, {"time": 154559, "pitch": 82, "duration": 10, "velocity": 68}, {"time": 154698, "pitch": 63, "duration": 10, "velocity": 94}, {"time": 154698, "pitch": 70, "duration": 10, "velocity": 40}, {"time": 154788, "pitch": 62, "duration": 10, "velocity": 119}, {"time": 154788, "pitch": 82, "duration": 10, "velocity": 60}, {"time": 154798, "pitch": 42, "duration": 10, "velocity": 85}, {"time": 154798, "pitch": 70, "duration": 10, "velocity": 65}, {"time": 154937, "pitch": 70, "duration": 10, "velocity": 40}, {"time": 155037, "pitch": 42, "duration": 10, "velocity": 90}, {"time": 155037, "pitch": 70, "duration": 10, "velocity": 65}, {"time": 155037, "pitch": 82, "duration": 10, "velocity": 62}, {"time": 155178, "pitch": 70, "duration": 11, "velocity": 40}, {"time": 155269, "pitch": 63, "duration": 11, "velocity": 100}, {"time": 155280, "pitch": 42, "duration": 10, "velocity": 85}, {"time": 155280, "pitch": 70, "duration": 10, "velocity": 65}, {"time": 155280, "pitch": 82, "duration": 10, "velocity": 67}, {"time": 155421, "pitch": 70, "duration": 10, "velocity": 40}, {"time": 155512, "pitch": 62, "duration": 10, "velocity": 113}, {"time": 155512, "pitch": 82, "duration": 10, "velocity": 70}, {"time": 155522, "pitch": 38, "duration": 10, "velocity": 112}, {"time": 155522, "pitch": 39, "duration": 10, "velocity": 113}, {"time": 155522, "pitch": 42, "duration": 10, "velocity": 90}, {"time": 155522, "pitch": 70, "duration": 10, "velocity": 65}, {"time": 155662, "pitch": 70, "duration": 10, "velocity": 40}, {"time": 155751, "pitch": 64, "duration": 10, "velocity": 104}, {"time": 155751, "pitch": 82, "duration": 10, "velocity": 69}, {"time": 155761, "pitch": 42, "duration": 10, "velocity": 85}, {"time": 155761, "pitch": 70, "duration": 10, "velocity": 65}, {"time": 155901, "pitch": 64, "duration": 10, "velocity": 107}, {"time": 155901, "pitch": 70, "duration": 10, "velocity": 40}, {"time": 156001, "pitch": 42, "duration": 10, "velocity": 90}, {"time": 156001, "pitch": 70, "duration": 10, "velocity": 65}, {"time": 156001, "pitch": 82, "duration": 10, "velocity": 71}, {"time": 156140, "pitch": 70, "duration": 10, "velocity": 40}, {"time": 156230, "pitch": 63, "duration": 10, "velocity": 116}, {"time": 156230, "pitch": 82, "duration": 10, "velocity": 60}, {"time": 156240, "pitch": 42, "duration": 10, "velocity": 85}, {"time": 156240, "pitch": 70, "duration": 10, "velocity": 65}, {"time": 156379, "pitch": 70, "duration": 10, "velocity": 40}, {"time": 156469, "pitch": 62, "duration": 10, "velocity": 113}, {"time": 156469, "pitch": 82, "duration": 10, "velocity": 65}, {"time": 156479, "pitch": 38, "duration": 10, "velocity": 112}, {"time": 156479, "pitch": 39, "duration": 10, "velocity": 113}, {"time": 156479, "pitch": 42, "duration": 10, "velocity": 90}, {"time": 156479, "pitch": 70, "duration": 10, "velocity": 65}, {"time": 156618, "pitch": 70, "duration": 10, "velocity": 40}, {"time": 156718, "pitch": 42, "duration": 10, "velocity": 85}, {"time": 156718, "pitch": 70, "duration": 10, "velocity": 65}, {"time": 156718, "pitch": 82, "duration": 10, "velocity": 67}, {"time": 156858, "pitch": 70, "duration": 10, "velocity": 40}, {"time": 156947, "pitch": 82, "duration": 10, "velocity": 63}, {"time": 156957, "pitch": 42, "duration": 10, "velocity": 90}, {"time": 156957, "pitch": 51, "duration": 10, "velocity": 92}, {"time": 156957, "pitch": 70, "duration": 10, "velocity": 65}, {"time": 156957, "pitch": 82, "duration": 10, "velocity": 63}, {"time": 157099, "pitch": 70, "duration": 10, "velocity": 40}, {"time": 157190, "pitch": 63, "duration": 10, "velocity": 116}, {"time": 157190, "pitch": 82, "duration": 10, "velocity": 69}, {"time": 157200, "pitch": 42, "duration": 10, "velocity": 85}, {"time": 157200, "pitch": 51, "duration": 10, "velocity": 92}, {"time": 157200, "pitch": 70, "duration": 10, "velocity": 65}, {"time": 157342, "pitch": 70, "duration": 10, "velocity": 40}, {"time": 157433, "pitch": 64, "duration": 10, "velocity": 81}, {"time": 157443, "pitch": 38, "duration": 10, "velocity": 112}, {"time": 157443, "pitch": 39, "duration": 10, "velocity": 113}, {"time": 157443, "pitch": 42, "duration": 10, "velocity": 90}, {"time": 157443, "pitch": 51, "duration": 10, "velocity": 92}, {"time": 157443, "pitch": 70, "duration": 10, "velocity": 65}, {"time": 157443, "pitch": 82, "duration": 10, "velocity": 58}, {"time": 157582, "pitch": 70, "duration": 10, "velocity": 40}, {"time": 157672, "pitch": 63, "duration": 10, "velocity": 123}, {"time": 157672, "pitch": 64, "duration": 10, "velocity": 127}, {"time": 157672, "pitch": 82, "duration": 10, "velocity": 74}, {"time": 157682, "pitch": 42, "duration": 10, "velocity": 85}, {"time": 157682, "pitch": 51, "duration": 10, "velocity": 92}, {"time": 157682, "pitch": 70, "duration": 10, "velocity": 65}, {"time": 157821, "pitch": 38, "duration": 10, "velocity": 92}, {"time": 157821, "pitch": 63, "duration": 10, "velocity": 107}, {"time": 157821, "pitch": 70, "duration": 10, "velocity": 40}, {"time": 157911, "pitch": 82, "duration": 10, "velocity": 75}, {"time": 157921, "pitch": 38, "duration": 10, "velocity": 112}, {"time": 157921, "pitch": 42, "duration": 10, "velocity": 90}, {"time": 157921, "pitch": 70, "duration": 10, "velocity": 65}, {"time": 158061, "pitch": 63, "duration": 9, "velocity": 96}, {"time": 158061, "pitch": 70, "duration": 9, "velocity": 40}, {"time": 158150, "pitch": 82, "duration": 10, "velocity": 60}, {"time": 158160, "pitch": 38, "duration": 10, "velocity": 112}, {"time": 158160, "pitch": 42, "duration": 10, "velocity": 85}, {"time": 158160, "pitch": 51, "duration": 10, "velocity": 92}, {"time": 158160, "pitch": 70, "duration": 10, "velocity": 65}, {"time": 158300, "pitch": 70, "duration": 10, "velocity": 40}, {"time": 158389, "pitch": 63, "duration": 10, "velocity": 100}, {"time": 158389, "pitch": 64, "duration": 10, "velocity": 119}, {"time": 158399, "pitch": 39, "duration": 10, "velocity": 113}, {"time": 158399, "pitch": 40, "duration": 10, "velocity": 122}, {"time": 158399, "pitch": 42, "duration": 10, "velocity": 90}, {"time": 158399, "pitch": 51, "duration": 10, "velocity": 92}, {"time": 158399, "pitch": 70, "duration": 10, "velocity": 65}, {"time": 158399, "pitch": 82, "duration": 10, "velocity": 70}, {"time": 158539, "pitch": 70, "duration": 10, "velocity": 40}, {"time": 158629, "pitch": 63, "duration": 10, "velocity": 110}, {"time": 158629, "pitch": 64, "duration": 10, "velocity": 119}, {"time": 158639, "pitch": 42, "duration": 10, "velocity": 85}, {"time": 158639, "pitch": 70, "duration": 10, "velocity": 65}, {"time": 158778, "pitch": 70, "duration": 10, "velocity": 40}, {"time": 158878, "pitch": 42, "duration": 10, "velocity": 90}, {"time": 158878, "pitch": 49, "duration": 10, "velocity": 104}, {"time": 158878, "pitch": 70, "duration": 10, "velocity": 65}, {"time": 158878, "pitch": 82, "duration": 10, "velocity": 62}, {"time": 159019, "pitch": 70, "duration": 10, "velocity": 40}, {"time": 159110, "pitch": 63, "duration": 10, "velocity": 96}, {"time": 159120, "pitch": 42, "duration": 11, "velocity": 85}, {"time": 159120, "pitch": 70, "duration": 11, "velocity": 65}, {"time": 159120, "pitch": 82, "duration": 11, "velocity": 70}, {"time": 159262, "pitch": 70, "duration": 10, "velocity": 40}, {"time": 159353, "pitch": 62, "duration": 10, "velocity": 107}, {"time": 159363, "pitch": 38, "duration": 10, "velocity": 112}, {"time": 159363, "pitch": 39, "duration": 10, "velocity": 113}, {"time": 159363, "pitch": 42, "duration": 10, "velocity": 90}, {"time": 159363, "pitch": 70, "duration": 10, "velocity": 65}, {"time": 159363, "pitch": 82, "duration": 10, "velocity": 71}, {"time": 159503, "pitch": 70, "duration": 10, "velocity": 40}, {"time": 159592, "pitch": 64, "duration": 10, "velocity": 107}, {"time": 159592, "pitch": 82, "duration": 10, "velocity": 68}, {"time": 159602, "pitch": 42, "duration": 10, "velocity": 85}, {"time": 159602, "pitch": 70, "duration": 10, "velocity": 65}, {"time": 159742, "pitch": 64, "duration": 10, "velocity": 107}, {"time": 159742, "pitch": 70, "duration": 10, "velocity": 40}, {"time": 159831, "pitch": 82, "duration": 10, "velocity": 66}, {"time": 159841, "pitch": 42, "duration": 10, "velocity": 90}, {"time": 159841, "pitch": 70, "duration": 10, "velocity": 65}, {"time": 159981, "pitch": 70, "duration": 10, "velocity": 40}, {"time": 160071, "pitch": 63, "duration": 10, "velocity": 100}, {"time": 160071, "pitch": 82, "duration": 10, "velocity": 67}, {"time": 160081, "pitch": 42, "duration": 10, "velocity": 85}, {"time": 160081, "pitch": 70, "duration": 10, "velocity": 65}, {"time": 160220, "pitch": 70, "duration": 10, "velocity": 40}, {"time": 160310, "pitch": 62, "duration": 10, "velocity": 113}, {"time": 160320, "pitch": 38, "duration": 10, "velocity": 112}, {"time": 160320, "pitch": 39, "duration": 10, "velocity": 113}, {"time": 160320, "pitch": 42, "duration": 10, "velocity": 90}, {"time": 160320, "pitch": 70, "duration": 10, "velocity": 65}, {"time": 160320, "pitch": 82, "duration": 10, "velocity": 69}, {"time": 160459, "pitch": 70, "duration": 10, "velocity": 40}, {"time": 160559, "pitch": 42, "duration": 10, "velocity": 85}, {"time": 160559, "pitch": 70, "duration": 10, "velocity": 65}, {"time": 160559, "pitch": 82, "duration": 10, "velocity": 66}, {"time": 160699, "pitch": 70, "duration": 10, "velocity": 40}, {"time": 160798, "pitch": 42, "duration": 10, "velocity": 90}, {"time": 160798, "pitch": 70, "duration": 10, "velocity": 65}, {"time": 160798, "pitch": 82, "duration": 10, "velocity": 73}, {"time": 160938, "pitch": 70, "duration": 10, "velocity": 40}, {"time": 161027, "pitch": 63, "duration": 10, "velocity": 104}, {"time": 161027, "pitch": 82, "duration": 10, "velocity": 59}, {"time": 161037, "pitch": 42, "duration": 10, "velocity": 85}, {"time": 161037, "pitch": 70, "duration": 10, "velocity": 65}, {"time": 161177, "pitch": 70, "duration": 10, "velocity": 40}, {"time": 161267, "pitch": 62, "duration": 10, "velocity": 113}, {"time": 161277, "pitch": 38, "duration": 10, "velocity": 112}, {"time": 161277, "pitch": 39, "duration": 10, "velocity": 113}, {"time": 161277, "pitch": 42, "duration": 10, "velocity": 90}, {"time": 161277, "pitch": 70, "duration": 10, "velocity": 65}, {"time": 161277, "pitch": 82, "duration": 10, "velocity": 63}, {"time": 161418, "pitch": 70, "duration": 10, "velocity": 40}, {"time": 161509, "pitch": 64, "duration": 10, "velocity": 107}, {"time": 161519, "pitch": 42, "duration": 10, "velocity": 85}, {"time": 161519, "pitch": 70, "duration": 10, "velocity": 65}, {"time": 161519, "pitch": 82, "duration": 10, "velocity": 60}, {"time": 161661, "pitch": 64, "duration": 10, "velocity": 104}, {"time": 161661, "pitch": 70, "duration": 10, "velocity": 40}, {"time": 161752, "pitch": 82, "duration": 10, "velocity": 74}, {"time": 161762, "pitch": 42, "duration": 10, "velocity": 90}, {"time": 161762, "pitch": 70, "duration": 10, "velocity": 65}, {"time": 161901, "pitch": 63, "duration": 10, "velocity": 110}, {"time": 161901, "pitch": 70, "duration": 10, "velocity": 40}, {"time": 161991, "pitch": 82, "duration": 10, "velocity": 63}, {"time": 162001, "pitch": 42, "duration": 10, "velocity": 85}, {"time": 162001, "pitch": 70, "duration": 10, "velocity": 65}, {"time": 162141, "pitch": 70, "duration": 10, "velocity": 40}, {"time": 162230, "pitch": 63, "duration": 10, "velocity": 96}, {"time": 162240, "pitch": 38, "duration": 10, "velocity": 112}, {"time": 162240, "pitch": 39, "duration": 10, "velocity": 113}, {"time": 162240, "pitch": 42, "duration": 10, "velocity": 90}, {"time": 162240, "pitch": 70, "duration": 10, "velocity": 65}, {"time": 162240, "pitch": 82, "duration": 10, "velocity": 68}, {"time": 162380, "pitch": 63, "duration": 10, "velocity": 94}, {"time": 162380, "pitch": 70, "duration": 10, "velocity": 40}, {"time": 162469, "pitch": 62, "duration": 10, "velocity": 119}, {"time": 162469, "pitch": 82, "duration": 10, "velocity": 60}, {"time": 162479, "pitch": 42, "duration": 10, "velocity": 85}, {"time": 162479, "pitch": 70, "duration": 10, "velocity": 65}, {"time": 162619, "pitch": 70, "duration": 10, "velocity": 40}, {"time": 162719, "pitch": 42, "duration": 10, "velocity": 90}, {"time": 162719, "pitch": 70, "duration": 10, "velocity": 65}, {"time": 162719, "pitch": 82, "duration": 10, "velocity": 62}, {"time": 162858, "pitch": 70, "duration": 10, "velocity": 40}, {"time": 162948, "pitch": 63, "duration": 10, "velocity": 100}, {"time": 162958, "pitch": 42, "duration": 10, "velocity": 85}, {"time": 162958, "pitch": 70, "duration": 10, "velocity": 65}, {"time": 162958, "pitch": 82, "duration": 10, "velocity": 67}, {"time": 163097, "pitch": 70, "duration": 10, "velocity": 40}, {"time": 163187, "pitch": 62, "duration": 10, "velocity": 113}, {"time": 163187, "pitch": 82, "duration": 10, "velocity": 70}, {"time": 163197, "pitch": 38, "duration": 10, "velocity": 112}, {"time": 163197, "pitch": 39, "duration": 10, "velocity": 113}, {"time": 163197, "pitch": 42, "duration": 10, "velocity": 90}, {"time": 163197, "pitch": 70, "duration": 10, "velocity": 65}, {"time": 163339, "pitch": 70, "duration": 10, "velocity": 40}, {"time": 163430, "pitch": 64, "duration": 10, "velocity": 104}, {"time": 163430, "pitch": 82, "duration": 10, "velocity": 69}, {"time": 163440, "pitch": 42, "duration": 10, "velocity": 85}, {"time": 163440, "pitch": 70, "duration": 10, "velocity": 65}, {"time": 163581, "pitch": 64, "duration": 10, "velocity": 107}, {"time": 163581, "pitch": 70, "duration": 10, "velocity": 40}, {"time": 163682, "pitch": 42, "duration": 10, "velocity": 90}, {"time": 163682, "pitch": 70, "duration": 10, "velocity": 65}, {"time": 163682, "pitch": 82, "duration": 10, "velocity": 71}, {"time": 163822, "pitch": 70, "duration": 10, "velocity": 40}, {"time": 163912, "pitch": 63, "duration": 9, "velocity": 116}, {"time": 163912, "pitch": 82, "duration": 9, "velocity": 60}, {"time": 163921, "pitch": 42, "duration": 10, "velocity": 85}, {"time": 163921, "pitch": 70, "duration": 10, "velocity": 65}, {"time": 164061, "pitch": 70, "duration": 10, "velocity": 40}, {"time": 164151, "pitch": 62, "duration": 10, "velocity": 113}, {"time": 164151, "pitch": 82, "duration": 10, "velocity": 65}, {"time": 164161, "pitch": 38, "duration": 10, "velocity": 112}, {"time": 164161, "pitch": 39, "duration": 10, "velocity": 113}, {"time": 164161, "pitch": 42, "duration": 10, "velocity": 90}, {"time": 164161, "pitch": 70, "duration": 10, "velocity": 65}, {"time": 164300, "pitch": 70, "duration": 10, "velocity": 40}, {"time": 164400, "pitch": 42, "duration": 10, "velocity": 85}, {"time": 164400, "pitch": 70, "duration": 10, "velocity": 65}, {"time": 164400, "pitch": 82, "duration": 10, "velocity": 67}, {"time": 164529, "pitch": 38, "duration": 10, "velocity": 50}, {"time": 164539, "pitch": 38, "duration": 10, "velocity": 55}, {"time": 164539, "pitch": 70, "duration": 10, "velocity": 40}, {"time": 164559, "pitch": 38, "duration": 10, "velocity": 59}, {"time": 164569, "pitch": 38, "duration": 10, "velocity": 64}, {"time": 164579, "pitch": 38, "duration": 10, "velocity": 68}, {"time": 164599, "pitch": 38, "duration": 10, "velocity": 73}, {"time": 164609, "pitch": 38, "duration": 10, "velocity": 78}, {"time": 164619, "pitch": 38, "duration": 10, "velocity": 82}, {"time": 164629, "pitch": 82, "duration": 10, "velocity": 63}, {"time": 164639, "pitch": 38, "duration": 10, "velocity": 92}, {"time": 164639, "pitch": 42, "duration": 10, "velocity": 90}, {"time": 164639, "pitch": 51, "duration": 10, "velocity": 92}, {"time": 164639, "pitch": 70, "duration": 10, "velocity": 65}, {"time": 164639, "pitch": 82, "duration": 10, "velocity": 63}, {"time": 164779, "pitch": 70, "duration": 10, "velocity": 40}, {"time": 164868, "pitch": 82, "duration": 10, "velocity": 69}, {"time": 164878, "pitch": 42, "duration": 10, "velocity": 85}, {"time": 164878, "pitch": 51, "duration": 10, "velocity": 92}, {"time": 164878, "pitch": 63, "duration": 10, "velocity": 116}, {"time": 164878, "pitch": 70, "duration": 10, "velocity": 65}, {"time": 165018, "pitch": 70, "duration": 10, "velocity": 40}, {"time": 165117, "pitch": 38, "duration": 11, "velocity": 112}, {"time": 165117, "pitch": 39, "duration": 11, "velocity": 113}, {"time": 165117, "pitch": 42, "duration": 11, "velocity": 90}, {"time": 165117, "pitch": 51, "duration": 11, "velocity": 92}, {"time": 165117, "pitch": 64, "duration": 11, "velocity": 81}, {"time": 165117, "pitch": 70, "duration": 11, "velocity": 65}, {"time": 165117, "pitch": 82, "duration": 11, "velocity": 58}, {"time": 165259, "pitch": 70, "duration": 10, "velocity": 40}, {"time": 165350, "pitch": 82, "duration": 10, "velocity": 74}, {"time": 165360, "pitch": 42, "duration": 10, "velocity": 85}, {"time": 165360, "pitch": 51, "duration": 10, "velocity": 92}, {"time": 165360, "pitch": 63, "duration": 10, "velocity": 123}, {"time": 165360, "pitch": 64, "duration": 10, "velocity": 127}, {"time": 165360, "pitch": 70, "duration": 10, "velocity": 65}, {"time": 165502, "pitch": 38, "duration": 10, "velocity": 92}, {"time": 165502, "pitch": 70, "duration": 10, "velocity": 40}, {"time": 165593, "pitch": 82, "duration": 10, "velocity": 75}, {"time": 165603, "pitch": 38, "duration": 10, "velocity": 112}, {"time": 165603, "pitch": 42, "duration": 10, "velocity": 90}, {"time": 165603, "pitch": 70, "duration": 10, "velocity": 65}, {"time": 165742, "pitch": 70, "duration": 10, "velocity": 40}, {"time": 165752, "pitch": 63, "duration": 10, "velocity": 96}, {"time": 165832, "pitch": 82, "duration": 10, "velocity": 60}, {"time": 165842, "pitch": 38, "duration": 10, "velocity": 112}, {"time": 165842, "pitch": 42, "duration": 10, "velocity": 85}, {"time": 165842, "pitch": 51, "duration": 10, "velocity": 92}, {"time": 165842, "pitch": 70, "duration": 10, "velocity": 65}, {"time": 165981, "pitch": 70, "duration": 10, "velocity": 40}, {"time": 165991, "pitch": 63, "duration": 10, "velocity": 94}, {"time": 166081, "pitch": 39, "duration": 10, "velocity": 113}, {"time": 166081, "pitch": 40, "duration": 10, "velocity": 122}, {"time": 166081, "pitch": 42, "duration": 10, "velocity": 90}, {"time": 166081, "pitch": 51, "duration": 10, "velocity": 92}, {"time": 166081, "pitch": 63, "duration": 10, "velocity": 100}, {"time": 166081, "pitch": 64, "duration": 10, "velocity": 119}, {"time": 166081, "pitch": 70, "duration": 10, "velocity": 65}, {"time": 166081, "pitch": 82, "duration": 10, "velocity": 70}, {"time": 166221, "pitch": 70, "duration": 10, "velocity": 40}, {"time": 166320, "pitch": 42, "duration": 10, "velocity": 85}, {"time": 166320, "pitch": 55, "duration": 10, "velocity": 124}, {"time": 166320, "pitch": 63, "duration": 10, "velocity": 110}, {"time": 166320, "pitch": 64, "duration": 10, "velocity": 119}, {"time": 166320, "pitch": 70, "duration": 10, "velocity": 65}, {"time": 166460, "pitch": 70, "duration": 10, "velocity": 40}, {"time": 166559, "pitch": 42, "duration": 10, "velocity": 90}, {"time": 166559, "pitch": 49, "duration": 10, "velocity": 104}, {"time": 166559, "pitch": 70, "duration": 10, "velocity": 65}, {"time": 166559, "pitch": 82, "duration": 10, "velocity": 62}, {"time": 166699, "pitch": 70, "duration": 10, "velocity": 40}, {"time": 166799, "pitch": 42, "duration": 10, "velocity": 85}, {"time": 166799, "pitch": 70, "duration": 10, "velocity": 65}, {"time": 166799, "pitch": 82, "duration": 10, "velocity": 67}, {"time": 166938, "pitch": 70, "duration": 10, "velocity": 40}, {"time": 167028, "pitch": 82, "duration": 10, "velocity": 70}, {"time": 167038, "pitch": 38, "duration": 10, "velocity": 112}, {"time": 167038, "pitch": 39, "duration": 10, "velocity": 113}, {"time": 167038, "pitch": 42, "duration": 10, "velocity": 90}, {"time": 167038, "pitch": 70, "duration": 10, "velocity": 65}, {"time": 167179, "pitch": 70, "duration": 11, "velocity": 40}, {"time": 167270, "pitch": 62, "duration": 11, "velocity": 91}, {"time": 167270, "pitch": 82, "duration": 11, "velocity": 69}, {"time": 167281, "pitch": 42, "duration": 10, "velocity": 85}, {"time": 167281, "pitch": 70, "duration": 10, "velocity": 65}, {"time": 167422, "pitch": 62, "duration": 10, "velocity": 113}, {"time": 167422, "pitch": 70, "duration": 10, "velocity": 40}, {"time": 167523, "pitch": 42, "duration": 10, "velocity": 90}, {"time": 167523, "pitch": 70, "duration": 10, "velocity": 65}, {"time": 167523, "pitch": 82, "duration": 10, "velocity": 71}, {"time": 167663, "pitch": 70, "duration": 10, "velocity": 40}, {"time": 167752, "pitch": 82, "duration": 10, "velocity": 60}, {"time": 167762, "pitch": 42, "duration": 10, "velocity": 85}, {"time": 167762, "pitch": 70, "duration": 10, "velocity": 65}, {"time": 167902, "pitch": 70, "duration": 10, "velocity": 40}, {"time": 167992, "pitch": 82, "duration": 10, "velocity": 65}, {"time": 168002, "pitch": 38, "duration": 9, "velocity": 112}, {"time": 168002, "pitch": 39, "duration": 9, "velocity": 113}, {"time": 168002, "pitch": 42, "duration": 9, "velocity": 90}, {"time": 168002, "pitch": 70, "duration": 9, "velocity": 65}, {"time": 168141, "pitch": 70, "duration": 10, "velocity": 40}, {"time": 168231, "pitch": 63, "duration": 10, "velocity": 87}, {"time": 168241, "pitch": 42, "duration": 10, "velocity": 85}, {"time": 168241, "pitch": 70, "duration": 10, "velocity": 65}, {"time": 168241, "pitch": 82, "duration": 10, "velocity": 67}, {"time": 168380, "pitch": 63, "duration": 10, "velocity": 107}, {"time": 168380, "pitch": 70, "duration": 10, "velocity": 40}, {"time": 168480, "pitch": 42, "duration": 10, "velocity": 90}, {"time": 168480, "pitch": 70, "duration": 10, "velocity": 65}, {"time": 168480, "pitch": 82, "duration": 10, "velocity": 62}, {"time": 168619, "pitch": 70, "duration": 10, "velocity": 40}, {"time": 168719, "pitch": 42, "duration": 10, "velocity": 85}, {"time": 168719, "pitch": 70, "duration": 10, "velocity": 65}, {"time": 168719, "pitch": 82, "duration": 10, "velocity": 67}, {"time": 168859, "pitch": 70, "duration": 10, "velocity": 40}, {"time": 168948, "pitch": 82, "duration": 10, "velocity": 70}, {"time": 168958, "pitch": 38, "duration": 10, "velocity": 112}, {"time": 168958, "pitch": 39, "duration": 10, "velocity": 113}, {"time": 168958, "pitch": 42, "duration": 10, "velocity": 90}, {"time": 168958, "pitch": 70, "duration": 10, "velocity": 65}, {"time": 169098, "pitch": 70, "duration": 10, "velocity": 40}, {"time": 169188, "pitch": 62, "duration": 9, "velocity": 88}, {"time": 169188, "pitch": 82, "duration": 9, "velocity": 69}, {"time": 169197, "pitch": 42, "duration": 10, "velocity": 85}, {"time": 169197, "pitch": 70, "duration": 10, "velocity": 65}, {"time": 169337, "pitch": 62, "duration": 10, "velocity": 119}, {"time": 169337, "pitch": 70, "duration": 10, "velocity": 40}, {"time": 169437, "pitch": 42, "duration": 10, "velocity": 90}, {"time": 169437, "pitch": 70, "duration": 10, "velocity": 65}, {"time": 169437, "pitch": 82, "duration": 10, "velocity": 71}, {"time": 169578, "pitch": 70, "duration": 10, "velocity": 40}, {"time": 169669, "pitch": 82, "duration": 10, "velocity": 60}, {"time": 169679, "pitch": 42, "duration": 10, "velocity": 85}, {"time": 169679, "pitch": 70, "duration": 10, "velocity": 65}, {"time": 169821, "pitch": 70, "duration": 10, "velocity": 40}, {"time": 169912, "pitch": 82, "duration": 10, "velocity": 65}, {"time": 169922, "pitch": 38, "duration": 10, "velocity": 112}, {"time": 169922, "pitch": 39, "duration": 10, "velocity": 113}, {"time": 169922, "pitch": 42, "duration": 10, "velocity": 90}, {"time": 169922, "pitch": 70, "duration": 10, "velocity": 65}, {"time": 170061, "pitch": 70, "duration": 10, "velocity": 40}, {"time": 170071, "pitch": 64, "duration": 10, "velocity": 114}, {"time": 170161, "pitch": 42, "duration": 10, "velocity": 85}, {"time": 170161, "pitch": 70, "duration": 10, "velocity": 65}, {"time": 170161, "pitch": 82, "duration": 10, "velocity": 67}, {"time": 170301, "pitch": 70, "duration": 10, "velocity": 40}, {"time": 170400, "pitch": 42, "duration": 10, "velocity": 90}, {"time": 170400, "pitch": 70, "duration": 10, "velocity": 65}, {"time": 170400, "pitch": 82, "duration": 10, "velocity": 62}, {"time": 170540, "pitch": 70, "duration": 10, "velocity": 40}, {"time": 170640, "pitch": 42, "duration": 9, "velocity": 85}, {"time": 170640, "pitch": 70, "duration": 9, "velocity": 65}, {"time": 170640, "pitch": 82, "duration": 9, "velocity": 67}, {"time": 170779, "pitch": 70, "duration": 10, "velocity": 40}, {"time": 170869, "pitch": 82, "duration": 10, "velocity": 70}, {"time": 170879, "pitch": 38, "duration": 10, "velocity": 112}, {"time": 170879, "pitch": 39, "duration": 10, "velocity": 113}, {"time": 170879, "pitch": 42, "duration": 10, "velocity": 90}, {"time": 170879, "pitch": 70, "duration": 10, "velocity": 65}, {"time": 171018, "pitch": 70, "duration": 10, "velocity": 40}, {"time": 171108, "pitch": 62, "duration": 10, "velocity": 91}, {"time": 171108, "pitch": 82, "duration": 10, "velocity": 69}, {"time": 171118, "pitch": 42, "duration": 10, "velocity": 85}, {"time": 171118, "pitch": 70, "duration": 10, "velocity": 65}, {"time": 171257, "pitch": 62, "duration": 10, "velocity": 119}, {"time": 171257, "pitch": 70, "duration": 10, "velocity": 40}, {"time": 171357, "pitch": 42, "duration": 10, "velocity": 90}, {"time": 171357, "pitch": 70, "duration": 10, "velocity": 65}, {"time": 171357, "pitch": 82, "duration": 10, "velocity": 71}, {"time": 171499, "pitch": 70, "duration": 10, "velocity": 40}, {"time": 171590, "pitch": 82, "duration": 10, "velocity": 60}, {"time": 171600, "pitch": 42, "duration": 10, "velocity": 85}, {"time": 171600, "pitch": 70, "duration": 10, "velocity": 65}, {"time": 171741, "pitch": 70, "duration": 10, "velocity": 40}, {"time": 171832, "pitch": 82, "duration": 10, "velocity": 65}, {"time": 171842, "pitch": 38, "duration": 10, "velocity": 112}, {"time": 171842, "pitch": 39, "duration": 10, "velocity": 113}, {"time": 171842, "pitch": 42, "duration": 10, "velocity": 90}, {"time": 171842, "pitch": 70, "duration": 10, "velocity": 65}, {"time": 171982, "pitch": 70, "duration": 10, "velocity": 40}, {"time": 172072, "pitch": 63, "duration": 10, "velocity": 82}, {"time": 172082, "pitch": 42, "duration": 10, "velocity": 85}, {"time": 172082, "pitch": 70, "duration": 10, "velocity": 65}, {"time": 172082, "pitch": 82, "duration": 10, "velocity": 67}, {"time": 172221, "pitch": 63, "duration": 10, "velocity": 107}, {"time": 172221, "pitch": 70, "duration": 10, "velocity": 40}, {"time": 172311, "pitch": 82, "duration": 10, "velocity": 63}, {"time": 172321, "pitch": 42, "duration": 10, "velocity": 90}, {"time": 172321, "pitch": 70, "duration": 10, "velocity": 65}, {"time": 172321, "pitch": 82, "duration": 10, "velocity": 63}, {"time": 172460, "pitch": 70, "duration": 10, "velocity": 40}, {"time": 172550, "pitch": 82, "duration": 10, "velocity": 69}, {"time": 172560, "pitch": 42, "duration": 10, "velocity": 85}, {"time": 172560, "pitch": 70, "duration": 10, "velocity": 65}, {"time": 172699, "pitch": 70, "duration": 10, "velocity": 40}, {"time": 172799, "pitch": 38, "duration": 10, "velocity": 112}, {"time": 172799, "pitch": 39, "duration": 10, "velocity": 113}, {"time": 172799, "pitch": 42, "duration": 10, "velocity": 90}, {"time": 172799, "pitch": 70, "duration": 10, "velocity": 65}, {"time": 172799, "pitch": 82, "duration": 10, "velocity": 58}, {"time": 172939, "pitch": 70, "duration": 10, "velocity": 40}, {"time": 173028, "pitch": 62, "duration": 10, "velocity": 86}, {"time": 173028, "pitch": 82, "duration": 10, "velocity": 74}, {"time": 173038, "pitch": 42, "duration": 10, "velocity": 85}, {"time": 173038, "pitch": 70, "duration": 10, "velocity": 65}, {"time": 173178, "pitch": 38, "duration": 10, "velocity": 92}, {"time": 173178, "pitch": 62, "duration": 10, "velocity": 119}, {"time": 173178, "pitch": 70, "duration": 10, "velocity": 40}, {"time": 173268, "pitch": 82, "duration": 10, "velocity": 75}, {"time": 173278, "pitch": 42, "duration": 10, "velocity": 90}, {"time": 173278, "pitch": 70, "duration": 10, "velocity": 65}, {"time": 173419, "pitch": 70, "duration": 10, "velocity": 40}, {"time": 173510, "pitch": 63, "duration": 10, "velocity": 91}, {"time": 173510, "pitch": 82, "duration": 10, "velocity": 60}, {"time": 173520, "pitch": 42, "duration": 10, "velocity": 85}, {"time": 173520, "pitch": 70, "duration": 10, "velocity": 65}, {"time": 173662, "pitch": 70, "duration": 10, "velocity": 40}, {"time": 173763, "pitch": 38, "duration": 10, "velocity": 112}, {"time": 173763, "pitch": 39, "duration": 10, "velocity": 113}, {"time": 173763, "pitch": 42, "duration": 10, "velocity": 90}, {"time": 173763, "pitch": 70, "duration": 10, "velocity": 65}, {"time": 173763, "pitch": 82, "duration": 10, "velocity": 70}, {"time": 173902, "pitch": 70, "duration": 10, "velocity": 40}, {"time": 173912, "pitch": 64, "duration": 10, "velocity": 122}, {"time": 174002, "pitch": 42, "duration": 10, "velocity": 85}, {"time": 174002, "pitch": 55, "duration": 10, "velocity": 124}, {"time": 174002, "pitch": 70, "duration": 10, "velocity": 65}, {"time": 174002, "pitch": 82, "duration": 10, "velocity": 75}, {"time": 174142, "pitch": 70, "duration": 9, "velocity": 40}, {"time": 174241, "pitch": 42, "duration": 10, "velocity": 90}, {"time": 174241, "pitch": 49, "duration": 10, "velocity": 104}, {"time": 174241, "pitch": 70, "duration": 10, "velocity": 65}, {"time": 174241, "pitch": 82, "duration": 10, "velocity": 62}, {"time": 174381, "pitch": 70, "duration": 10, "velocity": 40}, {"time": 174480, "pitch": 42, "duration": 10, "velocity": 85}, {"time": 174480, "pitch": 70, "duration": 10, "velocity": 65}, {"time": 174480, "pitch": 82, "duration": 10, "velocity": 70}, {"time": 174620, "pitch": 70, "duration": 10, "velocity": 40}, {"time": 174720, "pitch": 38, "duration": 10, "velocity": 112}, {"time": 174720, "pitch": 39, "duration": 10, "velocity": 113}, {"time": 174720, "pitch": 42, "duration": 10, "velocity": 90}, {"time": 174720, "pitch": 70, "duration": 10, "velocity": 65}, {"time": 174720, "pitch": 82, "duration": 10, "velocity": 71}, {"time": 174859, "pitch": 70, "duration": 10, "velocity": 40}, {"time": 174949, "pitch": 62, "duration": 10, "velocity": 91}, {"time": 174949, "pitch": 82, "duration": 10, "velocity": 68}, {"time": 174959, "pitch": 42, "duration": 10, "velocity": 85}, {"time": 174959, "pitch": 70, "duration": 10, "velocity": 65}, {"time": 175098, "pitch": 62, "duration": 10, "velocity": 113}, {"time": 175098, "pitch": 70, "duration": 10, "velocity": 40}, {"time": 175188, "pitch": 82, "duration": 10, "velocity": 66}, {"time": 175198, "pitch": 42, "duration": 10, "velocity": 90}, {"time": 175198, "pitch": 70, "duration": 10, "velocity": 65}, {"time": 175339, "pitch": 70, "duration": 11, "velocity": 40}, {"time": 175430, "pitch": 82, "duration": 11, "velocity": 67}, {"time": 175441, "pitch": 42, "duration": 10, "velocity": 85}, {"time": 175441, "pitch": 70, "duration": 10, "velocity": 65}, {"time": 175582, "pitch": 70, "duration": 10, "velocity": 40}, {"time": 175683, "pitch": 38, "duration": 10, "velocity": 112}, {"time": 175683, "pitch": 39, "duration": 10, "velocity": 113}, {"time": 175683, "pitch": 42, "duration": 10, "velocity": 90}, {"time": 175683, "pitch": 70, "duration": 10, "velocity": 65}, {"time": 175683, "pitch": 82, "duration": 10, "velocity": 69}, {"time": 175823, "pitch": 70, "duration": 10, "velocity": 40}, {"time": 175912, "pitch": 63, "duration": 10, "velocity": 87}, {"time": 175922, "pitch": 42, "duration": 10, "velocity": 85}, {"time": 175922, "pitch": 70, "duration": 10, "velocity": 65}, {"time": 175922, "pitch": 82, "duration": 10, "velocity": 66}, {"time": 176062, "pitch": 63, "duration": 10, "velocity": 107}, {"time": 176062, "pitch": 70, "duration": 10, "velocity": 40}, {"time": 176162, "pitch": 42, "duration": 10, "velocity": 90}, {"time": 176162, "pitch": 70, "duration": 10, "velocity": 65}, {"time": 176162, "pitch": 82, "duration": 10, "velocity": 73}, {"time": 176301, "pitch": 70, "duration": 10, "velocity": 40}, {"time": 176391, "pitch": 82, "duration": 10, "velocity": 59}, {"time": 176401, "pitch": 42, "duration": 10, "velocity": 85}, {"time": 176401, "pitch": 70, "duration": 10, "velocity": 65}, {"time": 176540, "pitch": 70, "duration": 10, "velocity": 40}, {"time": 176640, "pitch": 38, "duration": 10, "velocity": 112}, {"time": 176640, "pitch": 39, "duration": 10, "velocity": 113}, {"time": 176640, "pitch": 42, "duration": 10, "velocity": 90}, {"time": 176640, "pitch": 70, "duration": 10, "velocity": 65}, {"time": 176640, "pitch": 82, "duration": 10, "velocity": 63}, {"time": 176780, "pitch": 70, "duration": 10, "velocity": 40}, {"time": 176869, "pitch": 62, "duration": 10, "velocity": 88}, {"time": 176879, "pitch": 42, "duration": 10, "velocity": 85}, {"time": 176879, "pitch": 70, "duration": 10, "velocity": 65}, {"time": 176879, "pitch": 82, "duration": 10, "velocity": 60}, {"time": 177019, "pitch": 62, "duration": 10, "velocity": 119}, {"time": 177019, "pitch": 70, "duration": 10, "velocity": 40}, {"time": 177108, "pitch": 82, "duration": 10, "velocity": 74}, {"time": 177118, "pitch": 42, "duration": 10, "velocity": 90}, {"time": 177118, "pitch": 70, "duration": 10, "velocity": 65}, {"time": 177258, "pitch": 70, "duration": 10, "velocity": 40}, {"time": 177348, "pitch": 82, "duration": 10, "velocity": 63}, {"time": 177358, "pitch": 42, "duration": 10, "velocity": 85}, {"time": 177358, "pitch": 70, "duration": 10, "velocity": 65}, {"time": 177497, "pitch": 70, "duration": 10, "velocity": 40}, {"time": 177597, "pitch": 38, "duration": 10, "velocity": 112}, {"time": 177597, "pitch": 39, "duration": 10, "velocity": 113}, {"time": 177597, "pitch": 42, "duration": 10, "velocity": 90}, {"time": 177597, "pitch": 70, "duration": 10, "velocity": 65}, {"time": 177597, "pitch": 82, "duration": 10, "velocity": 68}, {"time": 177738, "pitch": 70, "duration": 10, "velocity": 40}, {"time": 177748, "pitch": 64, "duration": 11, "velocity": 114}, {"time": 177829, "pitch": 82, "duration": 10, "velocity": 60}, {"time": 177839, "pitch": 42, "duration": 11, "velocity": 85}, {"time": 177839, "pitch": 70, "duration": 11, "velocity": 65}, {"time": 177981, "pitch": 70, "duration": 10, "velocity": 40}, {"time": 178082, "pitch": 42, "duration": 10, "velocity": 90}, {"time": 178082, "pitch": 70, "duration": 10, "velocity": 65}, {"time": 178082, "pitch": 82, "duration": 10, "velocity": 62}, {"time": 178222, "pitch": 70, "duration": 10, "velocity": 40}, {"time": 178321, "pitch": 42, "duration": 10, "velocity": 85}, {"time": 178321, "pitch": 70, "duration": 10, "velocity": 65}, {"time": 178321, "pitch": 82, "duration": 10, "velocity": 67}, {"time": 178461, "pitch": 70, "duration": 10, "velocity": 40}, {"time": 178550, "pitch": 82, "duration": 10, "velocity": 70}, {"time": 178560, "pitch": 38, "duration": 10, "velocity": 112}, {"time": 178560, "pitch": 39, "duration": 10, "velocity": 113}, {"time": 178560, "pitch": 42, "duration": 10, "velocity": 90}, {"time": 178560, "pitch": 70, "duration": 10, "velocity": 65}, {"time": 178700, "pitch": 70, "duration": 10, "velocity": 40}, {"time": 178790, "pitch": 62, "duration": 10, "velocity": 91}, {"time": 178790, "pitch": 82, "duration": 10, "velocity": 69}, {"time": 178800, "pitch": 42, "duration": 10, "velocity": 85}, {"time": 178800, "pitch": 70, "duration": 10, "velocity": 65}, {"time": 178939, "pitch": 62, "duration": 10, "velocity": 119}, {"time": 178939, "pitch": 70, "duration": 10, "velocity": 40}, {"time": 179039, "pitch": 42, "duration": 10, "velocity": 90}, {"time": 179039, "pitch": 70, "duration": 10, "velocity": 65}, {"time": 179039, "pitch": 82, "duration": 10, "velocity": 71}, {"time": 179178, "pitch": 70, "duration": 10, "velocity": 40}, {"time": 179268, "pitch": 82, "duration": 10, "velocity": 60}, {"time": 179278, "pitch": 42, "duration": 10, "velocity": 85}, {"time": 179278, "pitch": 70, "duration": 10, "velocity": 65}, {"time": 179418, "pitch": 70, "duration": 10, "velocity": 40}, {"time": 179507, "pitch": 82, "duration": 10, "velocity": 65}, {"time": 179517, "pitch": 38, "duration": 10, "velocity": 112}, {"time": 179517, "pitch": 39, "duration": 10, "velocity": 113}, {"time": 179517, "pitch": 42, "duration": 10, "velocity": 90}, {"time": 179517, "pitch": 70, "duration": 10, "velocity": 65}, {"time": 179659, "pitch": 70, "duration": 10, "velocity": 40}, {"time": 179750, "pitch": 63, "duration": 10, "velocity": 82}, {"time": 179760, "pitch": 42, "duration": 10, "velocity": 85}, {"time": 179760, "pitch": 70, "duration": 10, "velocity": 65}, {"time": 179760, "pitch": 82, "duration": 10, "velocity": 67}, {"time": 179901, "pitch": 63, "duration": 10, "velocity": 107}, {"time": 179901, "pitch": 70, "duration": 10, "velocity": 40}, {"time": 179992, "pitch": 82, "duration": 10, "velocity": 63}, {"time": 180002, "pitch": 49, "duration": 10, "velocity": 104}, {"time": 180002, "pitch": 70, "duration": 10, "velocity": 65}, {"time": 180002, "pitch": 82, "duration": 10, "velocity": 63}, {"time": 180142, "pitch": 70, "duration": 10, "velocity": 40}, {"time": 180232, "pitch": 82, "duration": 10, "velocity": 69}, {"time": 180242, "pitch": 70, "duration": 10, "velocity": 65}, {"time": 180381, "pitch": 70, "duration": 10, "velocity": 40}, {"time": 180481, "pitch": 70, "duration": 10, "velocity": 65}, {"time": 180481, "pitch": 82, "duration": 10, "velocity": 58}, {"time": 180620, "pitch": 70, "duration": 10, "velocity": 40}, {"time": 180710, "pitch": 62, "duration": 10, "velocity": 86}, {"time": 180710, "pitch": 82, "duration": 10, "velocity": 74}, {"time": 180720, "pitch": 70, "duration": 10, "velocity": 65}, {"time": 180860, "pitch": 62, "duration": 10, "velocity": 119}, {"time": 180860, "pitch": 70, "duration": 10, "velocity": 40}, {"time": 180949, "pitch": 82, "duration": 10, "velocity": 75}, {"time": 180959, "pitch": 70, "duration": 10, "velocity": 65}, {"time": 181099, "pitch": 70, "duration": 10, "velocity": 40}, {"time": 181188, "pitch": 63, "duration": 10, "velocity": 91}, {"time": 181188, "pitch": 82, "duration": 10, "velocity": 60}, {"time": 181198, "pitch": 70, "duration": 10, "velocity": 65}, {"time": 181338, "pitch": 70, "duration": 10, "velocity": 40}, {"time": 181438, "pitch": 70, "duration": 10, "velocity": 65}, {"time": 181438, "pitch": 82, "duration": 10, "velocity": 70}, {"time": 181579, "pitch": 70, "duration": 10, "velocity": 40}, {"time": 181589, "pitch": 64, "duration": 10, "velocity": 122}, {"time": 181680, "pitch": 55, "duration": 10, "velocity": 124}, {"time": 181680, "pitch": 70, "duration": 10, "velocity": 65}, {"time": 181680, "pitch": 82, "duration": 10, "velocity": 75}, {"time": 181822, "pitch": 70, "duration": 10, "velocity": 40}, {"time": 181913, "pitch": 82, "duration": 10, "velocity": 63}, {"time": 181923, "pitch": 38, "duration": 10, "velocity": 112}, {"time": 181923, "pitch": 49, "duration": 10, "velocity": 104}, {"time": 181923, "pitch": 51, "duration": 10, "velocity": 92}, {"time": 181923, "pitch": 63, "duration": 10, "velocity": 90}, {"time": 181923, "pitch": 70, "duration": 10, "velocity": 65}, {"time": 181923, "pitch": 82, "duration": 10, "velocity": 63}, {"time": 182062, "pitch": 70, "duration": 10, "velocity": 40}, {"time": 182152, "pitch": 51, "duration": 10, "velocity": 107}, {"time": 182152, "pitch": 82, "duration": 10, "velocity": 69}, {"time": 182162, "pitch": 50, "duration": 10, "velocity": 100}, {"time": 182162, "pitch": 70, "duration": 10, "velocity": 65}, {"time": 182302, "pitch": 70, "duration": 10, "velocity": 40}, {"time": 182312, "pitch": 63, "duration": 10, "velocity": 90}, {"time": 182401, "pitch": 38, "duration": 10, "velocity": 112}, {"time": 182401, "pitch": 39, "duration": 10, "velocity": 113}, {"time": 182401, "pitch": 51, "duration": 10, "velocity": 92}, {"time": 182401, "pitch": 63, "duration": 10, "velocity": 90}, {"time": 182401, "pitch": 70, "duration": 10, "velocity": 65}, {"time": 182401, "pitch": 82, "duration": 10, "velocity": 58}, {"time": 182541, "pitch": 70, "duration": 10, "velocity": 40}, {"time": 182551, "pitch": 48, "duration": 10, "velocity": 115}, {"time": 182631, "pitch": 51, "duration": 9, "velocity": 107}, {"time": 182631, "pitch": 82, "duration": 9, "velocity": 74}, {"time": 182640, "pitch": 70, "duration": 10, "velocity": 65}, {"time": 182780, "pitch": 38, "duration": 10, "velocity": 92}, {"time": 182780, "pitch": 70, "duration": 10, "velocity": 40}, {"time": 182790, "pitch": 62, "duration": 10, "velocity": 103}, {"time": 182870, "pitch": 51, "duration": 10, "velocity": 92}, {"time": 182870, "pitch": 82, "duration": 10, "velocity": 75}, {"time": 182880, "pitch": 38, "duration": 10, "velocity": 112}, {"time": 182880, "pitch": 47, "duration": 10, "velocity": 100}, {"time": 182880, "pitch": 63, "duration": 10, "velocity": 84}, {"time": 182880, "pitch": 70, "duration": 10, "velocity": 65}, {"time": 183019, "pitch": 70, "duration": 10, "velocity": 40}, {"time": 183109, "pitch": 51, "duration": 10, "velocity": 107}, {"time": 183109, "pitch": 82, "duration": 10, "velocity": 60}, {"time": 183119, "pitch": 70, "duration": 10, "velocity": 65}, {"time": 183258, "pitch": 38, "duration": 10, "velocity": 92}, {"time": 183258, "pitch": 70, "duration": 10, "velocity": 40}, {"time": 183268, "pitch": 45, "duration": 10, "velocity": 115}, {"time": 183268, "pitch": 63, "duration": 10, "velocity": 86}, {"time": 183358, "pitch": 38, "duration": 10, "velocity": 112}, {"time": 183358, "pitch": 39, "duration": 10, "velocity": 113}, {"time": 183358, "pitch": 55, "duration": 10, "velocity": 124}, {"time": 183358, "pitch": 63, "duration": 10, "velocity": 90}, {"time": 183358, "pitch": 70, "duration": 10, "velocity": 65}, {"time": 183358, "pitch": 82, "duration": 10, "velocity": 70}, {"time": 183500, "pitch": 70, "duration": 10, "velocity": 40}, {"time": 183601, "pitch": 40, "duration": 10, "velocity": 122}, {"time": 183601, "pitch": 43, "duration": 10, "velocity": 94}, {"time": 183601, "pitch": 49, "duration": 10, "velocity": 104}, {"time": 183601, "pitch": 63, "duration": 10, "velocity": 113}, {"time": 183601, "pitch": 64, "duration": 10, "velocity": 113}, {"time": 183601, "pitch": 82, "duration": 10, "velocity": 75}, {"time": 1437, "pitch": 35, "duration": 10, "velocity": 112}, {"time": 2301, "pitch": 35, "duration": 10, "velocity": 112}, {"time": 2401, "pitch": 35, "duration": 10, "velocity": 112}, {"time": 2640, "pitch": 35, "duration": 10, "velocity": 112}, {"time": 3358, "pitch": 35, "duration": 10, "velocity": 112}, {"time": 4222, "pitch": 35, "duration": 10, "velocity": 112}, {"time": 4321, "pitch": 35, "duration": 10, "velocity": 112}, {"time": 4560, "pitch": 35, "duration": 10, "velocity": 112}, {"time": 5278, "pitch": 35, "duration": 10, "velocity": 112}, {"time": 6142, "pitch": 35, "duration": 10, "velocity": 112}, {"time": 6242, "pitch": 35, "duration": 10, "velocity": 112}, {"time": 6481, "pitch": 35, "duration": 10, "velocity": 112}, {"time": 7198, "pitch": 35, "duration": 10, "velocity": 112}, {"time": 8061, "pitch": 35, "duration": 10, "velocity": 112}, {"time": 8162, "pitch": 35, "duration": 10, "velocity": 112}, {"time": 8401, "pitch": 35, "duration": 10, "velocity": 112}, {"time": 9019, "pitch": 35, "duration": 10, "velocity": 112}, {"time": 9119, "pitch": 35, "duration": 10, "velocity": 112}, {"time": 9981, "pitch": 35, "duration": 11, "velocity": 112}, {"time": 10083, "pitch": 35, "duration": 10, "velocity": 112}, {"time": 10322, "pitch": 35, "duration": 10, "velocity": 112}, {"time": 11039, "pitch": 35, "duration": 10, "velocity": 112}, {"time": 11902, "pitch": 35, "duration": 10, "velocity": 112}, {"time": 12003, "pitch": 35, "duration": 10, "velocity": 112}, {"time": 12242, "pitch": 35, "duration": 10, "velocity": 112}, {"time": 12960, "pitch": 35, "duration": 10, "velocity": 112}, {"time": 13822, "pitch": 35, "duration": 10, "velocity": 112}, {"time": 13923, "pitch": 35, "duration": 10, "velocity": 112}, {"time": 14163, "pitch": 35, "duration": 10, "velocity": 112}, {"time": 14880, "pitch": 35, "duration": 10, "velocity": 112}, {"time": 15737, "pitch": 35, "duration": 10, "velocity": 112}, {"time": 15837, "pitch": 35, "duration": 10, "velocity": 112}, {"time": 16080, "pitch": 35, "duration": 10, "velocity": 112}, {"time": 16701, "pitch": 35, "duration": 10, "velocity": 112}, {"time": 16801, "pitch": 35, "duration": 10, "velocity": 112}, {"time": 17658, "pitch": 35, "duration": 10, "velocity": 112}, {"time": 17757, "pitch": 35, "duration": 10, "velocity": 112}, {"time": 18000, "pitch": 35, "duration": 10, "velocity": 112}, {"time": 18721, "pitch": 35, "duration": 10, "velocity": 112}, {"time": 19578, "pitch": 35, "duration": 10, "velocity": 112}, {"time": 19678, "pitch": 35, "duration": 10, "velocity": 112}, {"time": 19920, "pitch": 35, "duration": 11, "velocity": 112}, {"time": 20641, "pitch": 35, "duration": 10, "velocity": 112}, {"time": 21499, "pitch": 35, "duration": 10, "velocity": 112}, {"time": 21598, "pitch": 35, "duration": 10, "velocity": 112}, {"time": 21837, "pitch": 35, "duration": 10, "velocity": 112}, {"time": 22562, "pitch": 35, "duration": 10, "velocity": 112}, {"time": 23419, "pitch": 35, "duration": 10, "velocity": 112}, {"time": 23519, "pitch": 35, "duration": 10, "velocity": 112}, {"time": 23758, "pitch": 35, "duration": 10, "velocity": 112}, {"time": 24381, "pitch": 35, "duration": 10, "velocity": 112}, {"time": 24482, "pitch": 35, "duration": 10, "velocity": 112}, {"time": 25339, "pitch": 35, "duration": 10, "velocity": 112}, {"time": 25439, "pitch": 35, "duration": 10, "velocity": 112}, {"time": 25678, "pitch": 35, "duration": 10, "velocity": 112}, {"time": 26403, "pitch": 35, "duration": 10, "velocity": 112}, {"time": 27260, "pitch": 35, "duration": 10, "velocity": 112}, {"time": 27360, "pitch": 35, "duration": 9, "velocity": 112}, {"time": 27599, "pitch": 35, "duration": 10, "velocity": 112}, {"time": 28323, "pitch": 35, "duration": 10, "velocity": 112}, {"time": 29180, "pitch": 35, "duration": 10, "velocity": 112}, {"time": 29280, "pitch": 35, "duration": 10, "velocity": 112}, {"time": 29519, "pitch": 35, "duration": 10, "velocity": 112}, {"time": 30237, "pitch": 35, "duration": 10, "velocity": 112}, {"time": 31101, "pitch": 35, "duration": 10, "velocity": 112}, {"time": 31200, "pitch": 35, "duration": 10, "velocity": 112}, {"time": 31440, "pitch": 35, "duration": 10, "velocity": 112}, {"time": 31818, "pitch": 35, "duration": 10, "velocity": 112}, {"time": 32157, "pitch": 35, "duration": 10, "velocity": 112}, {"time": 33021, "pitch": 35, "duration": 10, "velocity": 112}, {"time": 33121, "pitch": 35, "duration": 10, "velocity": 112}, {"time": 33360, "pitch": 35, "duration": 10, "velocity": 112}, {"time": 34078, "pitch": 35, "duration": 10, "velocity": 112}, {"time": 34942, "pitch": 35, "duration": 10, "velocity": 112}, {"time": 35041, "pitch": 35, "duration": 10, "velocity": 112}, {"time": 35280, "pitch": 35, "duration": 10, "velocity": 112}, {"time": 35998, "pitch": 35, "duration": 10, "velocity": 112}, {"time": 36862, "pitch": 35, "duration": 10, "velocity": 112}, {"time": 36962, "pitch": 35, "duration": 10, "velocity": 112}, {"time": 37201, "pitch": 35, "duration": 10, "velocity": 112}, {"time": 37918, "pitch": 35, "duration": 10, "velocity": 112}, {"time": 38158, "pitch": 35, "duration": 10, "velocity": 112}, {"time": 38397, "pitch": 35, "duration": 10, "velocity": 112}, {"time": 38639, "pitch": 35, "duration": 11, "velocity": 112}, {"time": 38882, "pitch": 35, "duration": 10, "velocity": 112}, {"time": 39121, "pitch": 35, "duration": 10, "velocity": 112}, {"time": 39360, "pitch": 35, "duration": 10, "velocity": 112}, {"time": 39839, "pitch": 35, "duration": 10, "velocity": 112}, {"time": 40701, "pitch": 35, "duration": 11, "velocity": 112}, {"time": 40802, "pitch": 35, "duration": 10, "velocity": 112}, {"time": 41042, "pitch": 35, "duration": 10, "velocity": 112}, {"time": 41759, "pitch": 35, "duration": 10, "velocity": 112}, {"time": 42622, "pitch": 35, "duration": 10, "velocity": 112}, {"time": 42723, "pitch": 35, "duration": 10, "velocity": 112}, {"time": 42962, "pitch": 35, "duration": 10, "velocity": 112}, {"time": 43680, "pitch": 35, "duration": 10, "velocity": 112}, {"time": 44401, "pitch": 35, "duration": 10, "velocity": 112}, {"time": 44542, "pitch": 35, "duration": 10, "velocity": 112}, {"time": 45361, "pitch": 35, "duration": 10, "velocity": 112}, {"time": 45600, "pitch": 35, "duration": 10, "velocity": 112}, {"time": 45839, "pitch": 35, "duration": 10, "velocity": 112}, {"time": 46079, "pitch": 35, "duration": 9, "velocity": 112}, {"time": 46318, "pitch": 35, "duration": 10, "velocity": 112}, {"time": 46557, "pitch": 35, "duration": 10, "velocity": 112}, {"time": 46800, "pitch": 35, "duration": 10, "velocity": 112}, {"time": 47042, "pitch": 35, "duration": 10, "velocity": 112}, {"time": 47521, "pitch": 35, "duration": 10, "velocity": 112}, {"time": 48378, "pitch": 35, "duration": 10, "velocity": 112}, {"time": 48477, "pitch": 35, "duration": 10, "velocity": 112}, {"time": 48720, "pitch": 35, "duration": 10, "velocity": 112}, {"time": 49441, "pitch": 35, "duration": 10, "velocity": 112}, {"time": 50298, "pitch": 35, "duration": 10, "velocity": 112}, {"time": 50398, "pitch": 35, "duration": 10, "velocity": 112}, {"time": 50640, "pitch": 35, "duration": 11, "velocity": 112}, {"time": 51361, "pitch": 35, "duration": 10, "velocity": 112}, {"time": 52219, "pitch": 35, "duration": 9, "velocity": 112}, {"time": 52318, "pitch": 35, "duration": 10, "velocity": 112}, {"time": 52557, "pitch": 35, "duration": 10, "velocity": 112}, {"time": 53282, "pitch": 35, "duration": 10, "velocity": 112}, {"time": 53760, "pitch": 35, "duration": 10, "velocity": 112}, {"time": 54139, "pitch": 35, "duration": 10, "velocity": 112}, {"time": 54239, "pitch": 35, "duration": 10, "velocity": 112}, {"time": 54478, "pitch": 35, "duration": 10, "velocity": 112}, {"time": 54717, "pitch": 35, "duration": 10, "velocity": 112}, {"time": 55202, "pitch": 35, "duration": 10, "velocity": 112}, {"time": 56059, "pitch": 35, "duration": 10, "velocity": 112}, {"time": 56159, "pitch": 35, "duration": 10, "velocity": 112}, {"time": 56398, "pitch": 35, "duration": 10, "velocity": 112}, {"time": 57123, "pitch": 35, "duration": 10, "velocity": 112}, {"time": 57980, "pitch": 35, "duration": 10, "velocity": 112}, {"time": 58079, "pitch": 35, "duration": 10, "velocity": 112}, {"time": 58319, "pitch": 35, "duration": 10, "velocity": 112}, {"time": 59043, "pitch": 35, "duration": 10, "velocity": 112}, {"time": 59900, "pitch": 35, "duration": 10, "velocity": 112}, {"time": 60000, "pitch": 35, "duration": 10, "velocity": 112}, {"time": 60239, "pitch": 35, "duration": 10, "velocity": 112}, {"time": 60957, "pitch": 35, "duration": 10, "velocity": 112}, {"time": 61442, "pitch": 35, "duration": 10, "velocity": 112}, {"time": 61821, "pitch": 35, "duration": 10, "velocity": 112}, {"time": 61920, "pitch": 35, "duration": 10, "velocity": 112}, {"time": 62160, "pitch": 35, "duration": 9, "velocity": 112}, {"time": 62399, "pitch": 35, "duration": 10, "velocity": 112}, {"time": 62877, "pitch": 35, "duration": 10, "velocity": 112}, {"time": 64798, "pitch": 35, "duration": 10, "velocity": 112}, {"time": 65662, "pitch": 35, "duration": 9, "velocity": 112}, {"time": 65761, "pitch": 35, "duration": 10, "velocity": 112}, {"time": 66000, "pitch": 35, "duration": 10, "velocity": 112}, {"time": 66718, "pitch": 35, "duration": 10, "velocity": 112}, {"time": 67582, "pitch": 35, "duration": 10, "velocity": 112}, {"time": 67682, "pitch": 35, "duration": 10, "velocity": 112}, {"time": 67921, "pitch": 35, "duration": 10, "velocity": 112}, {"time": 68638, "pitch": 35, "duration": 10, "velocity": 112}, {"time": 69501, "pitch": 35, "duration": 10, "velocity": 112}, {"time": 69602, "pitch": 35, "duration": 10, "velocity": 112}, {"time": 69841, "pitch": 35, "duration": 10, "velocity": 112}, {"time": 70559, "pitch": 35, "duration": 10, "velocity": 112}, {"time": 71421, "pitch": 35, "duration": 10, "velocity": 112}, {"time": 71522, "pitch": 35, "duration": 10, "velocity": 112}, {"time": 71762, "pitch": 35, "duration": 10, "velocity": 112}, {"time": 72380, "pitch": 35, "duration": 10, "velocity": 112}, {"time": 72479, "pitch": 35, "duration": 10, "velocity": 112}, {"time": 73342, "pitch": 35, "duration": 10, "velocity": 112}, {"time": 73443, "pitch": 35, "duration": 10, "velocity": 112}, {"time": 73682, "pitch": 35, "duration": 10, "velocity": 112}, {"time": 74400, "pitch": 35, "duration": 10, "velocity": 112}, {"time": 75262, "pitch": 35, "duration": 10, "velocity": 112}, {"time": 75363, "pitch": 35, "duration": 10, "velocity": 112}, {"time": 75602, "pitch": 35, "duration": 10, "velocity": 112}, {"time": 76320, "pitch": 35, "duration": 10, "velocity": 112}, {"time": 77177, "pitch": 35, "duration": 10, "velocity": 112}, {"time": 77277, "pitch": 35, "duration": 10, "velocity": 112}, {"time": 77519, "pitch": 35, "duration": 11, "velocity": 112}, {"time": 78241, "pitch": 35, "duration": 9, "velocity": 112}, {"time": 79098, "pitch": 35, "duration": 10, "velocity": 112}, {"time": 79197, "pitch": 35, "duration": 10, "velocity": 112}, {"time": 79440, "pitch": 35, "duration": 10, "velocity": 112}, {"time": 79822, "pitch": 35, "duration": 10, "velocity": 112}, {"time": 80161, "pitch": 35, "duration": 10, "velocity": 112}, {"time": 81018, "pitch": 35, "duration": 10, "velocity": 112}, {"time": 81118, "pitch": 35, "duration": 10, "velocity": 112}, {"time": 81360, "pitch": 35, "duration": 10, "velocity": 112}, {"time": 82081, "pitch": 35, "duration": 10, "velocity": 112}, {"time": 82938, "pitch": 35, "duration": 10, "velocity": 112}, {"time": 83038, "pitch": 35, "duration": 10, "velocity": 112}, {"time": 83281, "pitch": 35, "duration": 10, "velocity": 112}, {"time": 84002, "pitch": 35, "duration": 10, "velocity": 112}, {"time": 84859, "pitch": 35, "duration": 10, "velocity": 112}, {"time": 84959, "pitch": 35, "duration": 10, "velocity": 112}, {"time": 85198, "pitch": 35, "duration": 10, "velocity": 112}, {"time": 85922, "pitch": 35, "duration": 10, "velocity": 112}, {"time": 86161, "pitch": 35, "duration": 10, "velocity": 112}, {"time": 86401, "pitch": 35, "duration": 10, "velocity": 112}, {"time": 86640, "pitch": 35, "duration": 10, "velocity": 112}, {"time": 86879, "pitch": 35, "duration": 10, "velocity": 112}, {"time": 87118, "pitch": 35, "duration": 10, "velocity": 112}, {"time": 87357, "pitch": 35, "duration": 10, "velocity": 112}, {"time": 87843, "pitch": 35, "duration": 10, "velocity": 112}, {"time": 88700, "pitch": 35, "duration": 10, "velocity": 112}, {"time": 88799, "pitch": 35, "duration": 10, "velocity": 112}, {"time": 89039, "pitch": 35, "duration": 10, "velocity": 112}, {"time": 89763, "pitch": 35, "duration": 10, "velocity": 112}, {"time": 90620, "pitch": 35, "duration": 10, "velocity": 112}, {"time": 90720, "pitch": 35, "duration": 10, "velocity": 112}, {"time": 90959, "pitch": 35, "duration": 10, "velocity": 112}, {"time": 91677, "pitch": 35, "duration": 10, "velocity": 112}, {"time": 92401, "pitch": 35, "duration": 10, "velocity": 112}, {"time": 92541, "pitch": 35, "duration": 10, "velocity": 112}, {"time": 93358, "pitch": 35, "duration": 10, "velocity": 112}, {"time": 93597, "pitch": 35, "duration": 10, "velocity": 112}, {"time": 93840, "pitch": 35, "duration": 10, "velocity": 112}, {"time": 94082, "pitch": 35, "duration": 10, "velocity": 112}, {"time": 94321, "pitch": 35, "duration": 10, "velocity": 112}, {"time": 94561, "pitch": 35, "duration": 10, "velocity": 112}, {"time": 94800, "pitch": 35, "duration": 10, "velocity": 112}, {"time": 95039, "pitch": 35, "duration": 10, "velocity": 112}, {"time": 95517, "pitch": 35, "duration": 11, "velocity": 112}, {"time": 96381, "pitch": 35, "duration": 10, "velocity": 112}, {"time": 96481, "pitch": 35, "duration": 10, "velocity": 112}, {"time": 96720, "pitch": 35, "duration": 10, "velocity": 112}, {"time": 97438, "pitch": 35, "duration": 10, "velocity": 112}, {"time": 98302, "pitch": 35, "duration": 10, "velocity": 112}, {"time": 98402, "pitch": 35, "duration": 10, "velocity": 112}, {"time": 98641, "pitch": 35, "duration": 10, "velocity": 112}, {"time": 99358, "pitch": 35, "duration": 10, "velocity": 112}, {"time": 100221, "pitch": 35, "duration": 10, "velocity": 112}, {"time": 100322, "pitch": 35, "duration": 10, "velocity": 112}, {"time": 100561, "pitch": 35, "duration": 10, "velocity": 112}, {"time": 101279, "pitch": 35, "duration": 10, "velocity": 112}, {"time": 101757, "pitch": 35, "duration": 10, "velocity": 112}, {"time": 102141, "pitch": 35, "duration": 10, "velocity": 112}, {"time": 102242, "pitch": 35, "duration": 10, "velocity": 112}, {"time": 102482, "pitch": 35, "duration": 10, "velocity": 112}, {"time": 102721, "pitch": 35, "duration": 10, "velocity": 112}, {"time": 103199, "pitch": 35, "duration": 10, "velocity": 112}, {"time": 104062, "pitch": 35, "duration": 10, "velocity": 112}, {"time": 104163, "pitch": 35, "duration": 10, "velocity": 112}, {"time": 104402, "pitch": 35, "duration": 10, "velocity": 112}, {"time": 105120, "pitch": 35, "duration": 10, "velocity": 112}, {"time": 105982, "pitch": 35, "duration": 10, "velocity": 112}, {"time": 106083, "pitch": 35, "duration": 10, "velocity": 112}, {"time": 106322, "pitch": 35, "duration": 10, "velocity": 112}, {"time": 107040, "pitch": 35, "duration": 10, "velocity": 112}, {"time": 107897, "pitch": 35, "duration": 10, "velocity": 112}, {"time": 107997, "pitch": 35, "duration": 10, "velocity": 112}, {"time": 108239, "pitch": 35, "duration": 11, "velocity": 112}, {"time": 108960, "pitch": 35, "duration": 10, "velocity": 112}, {"time": 109439, "pitch": 35, "duration": 10, "velocity": 112}, {"time": 109818, "pitch": 35, "duration": 10, "velocity": 112}, {"time": 109917, "pitch": 35, "duration": 10, "velocity": 112}, {"time": 110160, "pitch": 35, "duration": 10, "velocity": 112}, {"time": 110402, "pitch": 35, "duration": 10, "velocity": 112}, {"time": 110881, "pitch": 35, "duration": 10, "velocity": 112}, {"time": 111359, "pitch": 35, "duration": 10, "velocity": 112}, {"time": 111838, "pitch": 35, "duration": 10, "velocity": 112}, {"time": 112080, "pitch": 35, "duration": 10, "velocity": 112}, {"time": 112323, "pitch": 35, "duration": 10, "velocity": 112}, {"time": 112801, "pitch": 35, "duration": 10, "velocity": 112}, {"time": 113280, "pitch": 35, "duration": 10, "velocity": 112}, {"time": 113658, "pitch": 35, "duration": 10, "velocity": 112}, {"time": 113758, "pitch": 35, "duration": 10, "velocity": 112}, {"time": 114001, "pitch": 35, "duration": 10, "velocity": 112}, {"time": 114243, "pitch": 35, "duration": 10, "velocity": 112}, {"time": 114722, "pitch": 35, "duration": 10, "velocity": 112}, {"time": 115200, "pitch": 35, "duration": 10, "velocity": 112}, {"time": 115679, "pitch": 35, "duration": 9, "velocity": 112}, {"time": 115918, "pitch": 35, "duration": 10, "velocity": 112}, {"time": 116157, "pitch": 35, "duration": 10, "velocity": 112}, {"time": 116642, "pitch": 35, "duration": 10, "velocity": 112}, {"time": 117121, "pitch": 35, "duration": 10, "velocity": 112}, {"time": 117499, "pitch": 35, "duration": 10, "velocity": 112}, {"time": 117599, "pitch": 35, "duration": 10, "velocity": 112}, {"time": 117838, "pitch": 35, "duration": 10, "velocity": 112}, {"time": 118077, "pitch": 35, "duration": 10, "velocity": 112}, {"time": 118320, "pitch": 35, "duration": 10, "velocity": 112}, {"time": 118563, "pitch": 35, "duration": 10, "velocity": 112}, {"time": 119420, "pitch": 35, "duration": 10, "velocity": 112}, {"time": 119519, "pitch": 35, "duration": 10, "velocity": 112}, {"time": 119759, "pitch": 35, "duration": 10, "velocity": 112}, {"time": 120483, "pitch": 35, "duration": 10, "velocity": 112}, {"time": 121340, "pitch": 35, "duration": 10, "velocity": 112}, {"time": 121440, "pitch": 35, "duration": 10, "velocity": 112}, {"time": 121679, "pitch": 35, "duration": 10, "velocity": 112}, {"time": 122403, "pitch": 35, "duration": 10, "velocity": 112}, {"time": 123261, "pitch": 35, "duration": 10, "velocity": 112}, {"time": 123360, "pitch": 35, "duration": 10, "velocity": 112}, {"time": 123599, "pitch": 35, "duration": 10, "velocity": 112}, {"time": 124317, "pitch": 35, "duration": 10, "velocity": 112}, {"time": 125181, "pitch": 35, "duration": 10, "velocity": 112}, {"time": 125281, "pitch": 35, "duration": 10, "velocity": 112}, {"time": 125520, "pitch": 35, "duration": 10, "velocity": 112}, {"time": 126138, "pitch": 35, "duration": 10, "velocity": 112}, {"time": 126237, "pitch": 35, "duration": 10, "velocity": 112}, {"time": 127101, "pitch": 35, "duration": 10, "velocity": 112}, {"time": 127201, "pitch": 35, "duration": 10, "velocity": 112}, {"time": 127440, "pitch": 35, "duration": 10, "velocity": 112}, {"time": 128158, "pitch": 35, "duration": 10, "velocity": 112}, {"time": 129022, "pitch": 35, "duration": 10, "velocity": 112}, {"time": 129121, "pitch": 35, "duration": 10, "velocity": 112}, {"time": 129361, "pitch": 35, "duration": 10, "velocity": 112}, {"time": 130078, "pitch": 35, "duration": 10, "velocity": 112}, {"time": 130941, "pitch": 35, "duration": 10, "velocity": 112}, {"time": 131042, "pitch": 35, "duration": 10, "velocity": 112}, {"time": 131281, "pitch": 35, "duration": 10, "velocity": 112}, {"time": 131999, "pitch": 35, "duration": 10, "velocity": 112}, {"time": 132861, "pitch": 35, "duration": 10, "velocity": 112}, {"time": 132962, "pitch": 35, "duration": 10, "velocity": 112}, {"time": 133202, "pitch": 35, "duration": 9, "velocity": 112}, {"time": 133580, "pitch": 35, "duration": 10, "velocity": 112}, {"time": 133919, "pitch": 35, "duration": 10, "velocity": 112}, {"time": 134398, "pitch": 35, "duration": 10, "velocity": 112}, {"time": 134883, "pitch": 35, "duration": 10, "velocity": 112}, {"time": 135122, "pitch": 35, "duration": 10, "velocity": 112}, {"time": 135361, "pitch": 35, "duration": 10, "velocity": 112}, {"time": 135840, "pitch": 35, "duration": 10, "velocity": 112}, {"time": 136318, "pitch": 35, "duration": 10, "velocity": 112}, {"time": 136702, "pitch": 35, "duration": 10, "velocity": 112}, {"time": 136803, "pitch": 35, "duration": 10, "velocity": 112}, {"time": 137042, "pitch": 35, "duration": 10, "velocity": 112}, {"time": 137282, "pitch": 35, "duration": 10, "velocity": 112}, {"time": 137760, "pitch": 35, "duration": 10, "velocity": 112}, {"time": 138238, "pitch": 35, "duration": 10, "velocity": 112}, {"time": 138717, "pitch": 35, "duration": 10, "velocity": 112}, {"time": 138959, "pitch": 35, "duration": 10, "velocity": 112}, {"time": 139202, "pitch": 35, "duration": 10, "velocity": 112}, {"time": 139680, "pitch": 35, "duration": 10, "velocity": 112}, {"time": 139920, "pitch": 35, "duration": 10, "velocity": 112}, {"time": 140159, "pitch": 35, "duration": 10, "velocity": 112}, {"time": 140398, "pitch": 35, "duration": 10, "velocity": 112}, {"time": 140637, "pitch": 35, "duration": 10, "velocity": 112}, {"time": 140880, "pitch": 35, "duration": 10, "velocity": 112}, {"time": 141122, "pitch": 35, "duration": 10, "velocity": 112}, {"time": 141601, "pitch": 35, "duration": 10, "velocity": 112}, {"time": 142458, "pitch": 35, "duration": 10, "velocity": 112}, {"time": 142558, "pitch": 35, "duration": 10, "velocity": 112}, {"time": 142800, "pitch": 35, "duration": 10, "velocity": 112}, {"time": 143521, "pitch": 35, "duration": 10, "velocity": 112}, {"time": 144378, "pitch": 35, "duration": 10, "velocity": 112}, {"time": 144478, "pitch": 35, "duration": 10, "velocity": 112}, {"time": 144721, "pitch": 35, "duration": 10, "velocity": 112}, {"time": 145442, "pitch": 35, "duration": 10, "velocity": 112}, {"time": 146159, "pitch": 35, "duration": 10, "velocity": 112}, {"time": 146299, "pitch": 35, "duration": 10, "velocity": 112}, {"time": 147119, "pitch": 35, "duration": 11, "velocity": 112}, {"time": 147362, "pitch": 35, "duration": 10, "velocity": 112}, {"time": 147601, "pitch": 35, "duration": 10, "velocity": 112}, {"time": 147840, "pitch": 35, "duration": 10, "velocity": 112}, {"time": 148080, "pitch": 35, "duration": 10, "velocity": 112}, {"time": 148319, "pitch": 35, "duration": 10, "velocity": 112}, {"time": 148558, "pitch": 35, "duration": 10, "velocity": 112}, {"time": 148797, "pitch": 35, "duration": 10, "velocity": 112}, {"time": 149040, "pitch": 35, "duration": 10, "velocity": 112}, {"time": 149283, "pitch": 35, "duration": 9, "velocity": 112}, {"time": 149522, "pitch": 35, "duration": 10, "velocity": 112}, {"time": 149761, "pitch": 35, "duration": 10, "velocity": 112}, {"time": 150000, "pitch": 35, "duration": 10, "velocity": 112}, {"time": 150239, "pitch": 35, "duration": 10, "velocity": 112}, {"time": 150478, "pitch": 35, "duration": 10, "velocity": 112}, {"time": 150718, "pitch": 35, "duration": 10, "velocity": 112}, {"time": 151203, "pitch": 35, "duration": 10, "velocity": 112}, {"time": 152060, "pitch": 35, "duration": 10, "velocity": 112}, {"time": 152160, "pitch": 35, "duration": 10, "velocity": 112}, {"time": 152399, "pitch": 35, "duration": 10, "velocity": 112}, {"time": 153123, "pitch": 35, "duration": 10, "velocity": 112}, {"time": 153980, "pitch": 35, "duration": 10, "velocity": 112}, {"time": 154080, "pitch": 35, "duration": 10, "velocity": 112}, {"time": 154319, "pitch": 35, "duration": 10, "velocity": 112}, {"time": 155037, "pitch": 35, "duration": 10, "velocity": 112}, {"time": 155901, "pitch": 35, "duration": 10, "velocity": 112}, {"time": 156001, "pitch": 35, "duration": 10, "velocity": 112}, {"time": 156240, "pitch": 35, "duration": 10, "velocity": 112}, {"time": 156957, "pitch": 35, "duration": 10, "velocity": 112}, {"time": 157443, "pitch": 35, "duration": 10, "velocity": 112}, {"time": 157821, "pitch": 35, "duration": 10, "velocity": 112}, {"time": 157921, "pitch": 35, "duration": 10, "velocity": 112}, {"time": 158160, "pitch": 35, "duration": 10, "velocity": 112}, {"time": 158399, "pitch": 35, "duration": 10, "velocity": 112}, {"time": 158878, "pitch": 35, "duration": 10, "velocity": 112}, {"time": 159742, "pitch": 35, "duration": 10, "velocity": 112}, {"time": 159841, "pitch": 35, "duration": 10, "velocity": 112}, {"time": 160081, "pitch": 35, "duration": 10, "velocity": 112}, {"time": 160798, "pitch": 35, "duration": 10, "velocity": 112}, {"time": 161661, "pitch": 35, "duration": 10, "velocity": 112}, {"time": 161762, "pitch": 35, "duration": 10, "velocity": 112}, {"time": 162001, "pitch": 35, "duration": 10, "velocity": 112}, {"time": 162719, "pitch": 35, "duration": 10, "velocity": 112}, {"time": 163581, "pitch": 35, "duration": 10, "velocity": 112}, {"time": 163682, "pitch": 35, "duration": 10, "velocity": 112}, {"time": 163921, "pitch": 35, "duration": 10, "velocity": 112}, {"time": 164639, "pitch": 35, "duration": 10, "velocity": 112}, {"time": 165117, "pitch": 35, "duration": 11, "velocity": 112}, {"time": 165502, "pitch": 35, "duration": 10, "velocity": 112}, {"time": 165603, "pitch": 35, "duration": 10, "velocity": 112}, {"time": 165842, "pitch": 35, "duration": 10, "velocity": 112}, {"time": 166081, "pitch": 35, "duration": 10, "velocity": 112}, {"time": 166559, "pitch": 35, "duration": 10, "velocity": 112}, {"time": 167422, "pitch": 35, "duration": 10, "velocity": 112}, {"time": 167523, "pitch": 35, "duration": 10, "velocity": 112}, {"time": 167762, "pitch": 35, "duration": 10, "velocity": 112}, {"time": 168480, "pitch": 35, "duration": 10, "velocity": 112}, {"time": 169337, "pitch": 35, "duration": 10, "velocity": 112}, {"time": 169437, "pitch": 35, "duration": 10, "velocity": 112}, {"time": 169679, "pitch": 35, "duration": 10, "velocity": 112}, {"time": 170400, "pitch": 35, "duration": 10, "velocity": 112}, {"time": 171257, "pitch": 35, "duration": 10, "velocity": 112}, {"time": 171357, "pitch": 35, "duration": 10, "velocity": 112}, {"time": 171600, "pitch": 35, "duration": 10, "velocity": 112}, {"time": 172321, "pitch": 35, "duration": 10, "velocity": 112}, {"time": 173178, "pitch": 35, "duration": 10, "velocity": 112}, {"time": 173278, "pitch": 35, "duration": 10, "velocity": 112}, {"time": 173520, "pitch": 35, "duration": 10, "velocity": 112}, {"time": 174142, "pitch": 35, "duration": 9, "velocity": 112}, {"time": 174241, "pitch": 35, "duration": 10, "velocity": 112}, {"time": 175098, "pitch": 35, "duration": 10, "velocity": 112}, {"time": 175198, "pitch": 35, "duration": 10, "velocity": 112}, {"time": 175441, "pitch": 35, "duration": 10, "velocity": 112}, {"time": 176162, "pitch": 35, "duration": 10, "velocity": 112}, {"time": 177019, "pitch": 35, "duration": 10, "velocity": 112}, {"time": 177118, "pitch": 35, "duration": 10, "velocity": 112}, {"time": 177358, "pitch": 35, "duration": 10, "velocity": 112}, {"time": 178082, "pitch": 35, "duration": 10, "velocity": 112}, {"time": 178939, "pitch": 35, "duration": 10, "velocity": 112}, {"time": 179039, "pitch": 35, "duration": 10, "velocity": 112}, {"time": 179278, "pitch": 35, "duration": 10, "velocity": 112}, {"time": 180002, "pitch": 35, "duration": 10, "velocity": 112}, {"time": 180860, "pitch": 35, "duration": 10, "velocity": 112}, {"time": 180959, "pitch": 35, "duration": 10, "velocity": 112}, {"time": 181198, "pitch": 35, "duration": 10, "velocity": 112}, {"time": 181923, "pitch": 35, "duration": 10, "velocity": 112}, {"time": 182302, "pitch": 35, "duration": 10, "velocity": 112}, {"time": 182401, "pitch": 35, "duration": 10, "velocity": 112}, {"time": 182780, "pitch": 35, "duration": 10, "velocity": 112}, {"time": 182880, "pitch": 35, "duration": 10, "velocity": 112}, {"time": 183258, "pitch": 35, "duration": 10, "velocity": 112}, {"time": 183358, "pitch": 35, "duration": 10, "velocity": 112}, {"time": 183601, "pitch": 35, "duration": 10, "velocity": 112}, {"time": 1437, "pitch": 58, "duration": 10, "velocity": 100}, {"time": 1437, "pitch": 62, "duration": 10, "velocity": 90}, {"time": 1437, "pitch": 65, "duration": 10, "velocity": 90}, {"time": 1437, "pitch": 70, "duration": 10, "velocity": 100}, {"time": 1579, "pitch": 58, "duration": 10, "velocity": 90}, {"time": 1579, "pitch": 62, "duration": 10, "velocity": 80}, {"time": 1579, "pitch": 65, "duration": 10, "velocity": 80}, {"time": 1579, "pitch": 70, "duration": 10, "velocity": 90}, {"time": 1680, "pitch": 58, "duration": 121, "velocity": 80}, {"time": 1680, "pitch": 62, "duration": 131, "velocity": 70}, {"time": 1690, "pitch": 65, "duration": 131, "velocity": 70}, {"time": 1690, "pitch": 70, "duration": 131, "velocity": 80}, {"time": 1821, "pitch": 65, "duration": 101, "velocity": 90}, {"time": 1821, "pitch": 70, "duration": 101, "velocity": 100}, {"time": 1831, "pitch": 58, "duration": 91, "velocity": 100}, {"time": 1831, "pitch": 62, "duration": 91, "velocity": 90}, {"time": 1922, "pitch": 58, "duration": 130, "velocity": 110}, {"time": 1922, "pitch": 62, "duration": 130, "velocity": 100}, {"time": 1932, "pitch": 65, "duration": 130, "velocity": 100}, {"time": 1932, "pitch": 70, "duration": 130, "velocity": 110}, {"time": 2062, "pitch": 65, "duration": 100, "velocity": 80}, {"time": 2062, "pitch": 70, "duration": 100, "velocity": 90}, {"time": 2072, "pitch": 58, "duration": 90, "velocity": 90}, {"time": 2072, "pitch": 62, "duration": 90, "velocity": 80}, {"time": 2162, "pitch": 58, "duration": 10, "velocity": 105}, {"time": 2162, "pitch": 62, "duration": 10, "velocity": 95}, {"time": 2162, "pitch": 65, "duration": 10, "velocity": 95}, {"time": 2162, "pitch": 70, "duration": 10, "velocity": 105}, {"time": 2301, "pitch": 58, "duration": 10, "velocity": 90}, {"time": 2301, "pitch": 62, "duration": 10, "velocity": 80}, {"time": 2301, "pitch": 65, "duration": 10, "velocity": 80}, {"time": 2301, "pitch": 70, "duration": 10, "velocity": 90}, {"time": 2401, "pitch": 58, "duration": 10, "velocity": 90}, {"time": 2401, "pitch": 62, "duration": 10, "velocity": 80}, {"time": 2401, "pitch": 65, "duration": 10, "velocity": 80}, {"time": 2401, "pitch": 70, "duration": 10, "velocity": 90}, {"time": 2540, "pitch": 58, "duration": 10, "velocity": 80}, {"time": 2540, "pitch": 62, "duration": 10, "velocity": 70}, {"time": 2540, "pitch": 65, "duration": 10, "velocity": 70}, {"time": 2540, "pitch": 70, "duration": 10, "velocity": 80}, {"time": 2640, "pitch": 58, "duration": 120, "velocity": 80}, {"time": 2640, "pitch": 62, "duration": 130, "velocity": 70}, {"time": 2650, "pitch": 65, "duration": 130, "velocity": 70}, {"time": 2650, "pitch": 70, "duration": 130, "velocity": 80}, {"time": 2780, "pitch": 65, "duration": 99, "velocity": 90}, {"time": 2780, "pitch": 70, "duration": 99, "velocity": 100}, {"time": 2790, "pitch": 58, "duration": 89, "velocity": 100}, {"time": 2790, "pitch": 62, "duration": 89, "velocity": 90}, {"time": 2879, "pitch": 58, "duration": 130, "velocity": 110}, {"time": 2879, "pitch": 62, "duration": 130, "velocity": 100}, {"time": 2889, "pitch": 65, "duration": 130, "velocity": 100}, {"time": 2889, "pitch": 70, "duration": 130, "velocity": 110}, {"time": 3019, "pitch": 65, "duration": 99, "velocity": 80}, {"time": 3019, "pitch": 70, "duration": 99, "velocity": 90}, {"time": 3029, "pitch": 58, "duration": 89, "velocity": 90}, {"time": 3029, "pitch": 62, "duration": 89, "velocity": 80}, {"time": 3118, "pitch": 58, "duration": 10, "velocity": 105}, {"time": 3118, "pitch": 62, "duration": 10, "velocity": 95}, {"time": 3118, "pitch": 65, "duration": 10, "velocity": 95}, {"time": 3118, "pitch": 70, "duration": 10, "velocity": 105}, {"time": 3258, "pitch": 58, "duration": 10, "velocity": 90}, {"time": 3258, "pitch": 62, "duration": 10, "velocity": 80}, {"time": 3258, "pitch": 65, "duration": 10, "velocity": 80}, {"time": 3258, "pitch": 70, "duration": 10, "velocity": 90}, {"time": 3358, "pitch": 55, "duration": 10, "velocity": 100}, {"time": 3358, "pitch": 62, "duration": 10, "velocity": 90}, {"time": 3358, "pitch": 65, "duration": 10, "velocity": 90}, {"time": 3358, "pitch": 70, "duration": 10, "velocity": 100}, {"time": 3499, "pitch": 55, "duration": 10, "velocity": 90}, {"time": 3499, "pitch": 62, "duration": 10, "velocity": 80}, {"time": 3499, "pitch": 65, "duration": 10, "velocity": 80}, {"time": 3499, "pitch": 70, "duration": 10, "velocity": 90}, {"time": 3600, "pitch": 55, "duration": 122, "velocity": 80}, {"time": 3600, "pitch": 62, "duration": 132, "velocity": 70}, {"time": 3610, "pitch": 65, "duration": 132, "velocity": 70}, {"time": 3610, "pitch": 70, "duration": 132, "velocity": 80}, {"time": 3742, "pitch": 65, "duration": 101, "velocity": 90}, {"time": 3742, "pitch": 70, "duration": 101, "velocity": 100}, {"time": 3752, "pitch": 55, "duration": 91, "velocity": 100}, {"time": 3752, "pitch": 62, "duration": 91, "velocity": 90}, {"time": 3843, "pitch": 55, "duration": 129, "velocity": 110}, {"time": 3843, "pitch": 62, "duration": 129, "velocity": 100}, {"time": 3853, "pitch": 65, "duration": 129, "velocity": 100}, {"time": 3853, "pitch": 70, "duration": 129, "velocity": 110}, {"time": 3982, "pitch": 65, "duration": 100, "velocity": 80}, {"time": 3982, "pitch": 70, "duration": 100, "velocity": 90}, {"time": 3992, "pitch": 55, "duration": 90, "velocity": 90}, {"time": 3992, "pitch": 62, "duration": 90, "velocity": 80}, {"time": 4082, "pitch": 55, "duration": 10, "velocity": 105}, {"time": 4082, "pitch": 62, "duration": 10, "velocity": 95}, {"time": 4082, "pitch": 65, "duration": 10, "velocity": 95}, {"time": 4082, "pitch": 70, "duration": 10, "velocity": 105}, {"time": 4222, "pitch": 55, "duration": 10, "velocity": 90}, {"time": 4222, "pitch": 62, "duration": 10, "velocity": 80}, {"time": 4222, "pitch": 65, "duration": 10, "velocity": 80}, {"time": 4222, "pitch": 70, "duration": 10, "velocity": 90}, {"time": 4321, "pitch": 55, "duration": 10, "velocity": 90}, {"time": 4321, "pitch": 62, "duration": 10, "velocity": 80}, {"time": 4321, "pitch": 65, "duration": 10, "velocity": 80}, {"time": 4321, "pitch": 70, "duration": 10, "velocity": 90}, {"time": 4461, "pitch": 55, "duration": 10, "velocity": 80}, {"time": 4461, "pitch": 62, "duration": 10, "velocity": 70}, {"time": 4461, "pitch": 65, "duration": 10, "velocity": 70}, {"time": 4461, "pitch": 70, "duration": 10, "velocity": 80}, {"time": 4560, "pitch": 55, "duration": 120, "velocity": 80}, {"time": 4560, "pitch": 62, "duration": 130, "velocity": 70}, {"time": 4570, "pitch": 65, "duration": 130, "velocity": 70}, {"time": 4570, "pitch": 70, "duration": 130, "velocity": 80}, {"time": 4700, "pitch": 65, "duration": 100, "velocity": 90}, {"time": 4700, "pitch": 70, "duration": 100, "velocity": 100}, {"time": 4710, "pitch": 55, "duration": 90, "velocity": 100}, {"time": 4710, "pitch": 62, "duration": 90, "velocity": 90}, {"time": 4800, "pitch": 55, "duration": 129, "velocity": 110}, {"time": 4800, "pitch": 62, "duration": 129, "velocity": 100}, {"time": 4810, "pitch": 65, "duration": 129, "velocity": 100}, {"time": 4810, "pitch": 70, "duration": 129, "velocity": 110}, {"time": 4939, "pitch": 65, "duration": 100, "velocity": 80}, {"time": 4939, "pitch": 70, "duration": 100, "velocity": 90}, {"time": 4949, "pitch": 55, "duration": 90, "velocity": 90}, {"time": 4949, "pitch": 62, "duration": 90, "velocity": 80}, {"time": 5039, "pitch": 55, "duration": 10, "velocity": 105}, {"time": 5039, "pitch": 62, "duration": 10, "velocity": 95}, {"time": 5039, "pitch": 65, "duration": 10, "velocity": 95}, {"time": 5039, "pitch": 70, "duration": 10, "velocity": 105}, {"time": 5178, "pitch": 55, "duration": 10, "velocity": 90}, {"time": 5178, "pitch": 62, "duration": 10, "velocity": 80}, {"time": 5178, "pitch": 65, "duration": 10, "velocity": 80}, {"time": 5178, "pitch": 70, "duration": 10, "velocity": 90}, {"time": 5278, "pitch": 58, "duration": 10, "velocity": 100}, {"time": 5278, "pitch": 62, "duration": 10, "velocity": 90}, {"time": 5278, "pitch": 65, "duration": 10, "velocity": 90}, {"time": 5278, "pitch": 70, "duration": 10, "velocity": 100}, {"time": 5420, "pitch": 58, "duration": 10, "velocity": 90}, {"time": 5420, "pitch": 62, "duration": 10, "velocity": 80}, {"time": 5420, "pitch": 65, "duration": 10, "velocity": 80}, {"time": 5420, "pitch": 70, "duration": 10, "velocity": 90}, {"time": 5521, "pitch": 58, "duration": 121, "velocity": 80}, {"time": 5521, "pitch": 62, "duration": 131, "velocity": 70}, {"time": 5531, "pitch": 65, "duration": 131, "velocity": 70}, {"time": 5531, "pitch": 70, "duration": 131, "velocity": 80}, {"time": 5662, "pitch": 65, "duration": 101, "velocity": 90}, {"time": 5662, "pitch": 70, "duration": 101, "velocity": 100}, {"time": 5672, "pitch": 58, "duration": 91, "velocity": 100}, {"time": 5672, "pitch": 62, "duration": 91, "velocity": 90}, {"time": 5763, "pitch": 58, "duration": 130, "velocity": 110}, {"time": 5763, "pitch": 62, "duration": 130, "velocity": 100}, {"time": 5773, "pitch": 65, "duration": 130, "velocity": 100}, {"time": 5773, "pitch": 70, "duration": 130, "velocity": 110}, {"time": 5903, "pitch": 65, "duration": 100, "velocity": 80}, {"time": 5903, "pitch": 70, "duration": 100, "velocity": 90}, {"time": 5913, "pitch": 58, "duration": 90, "velocity": 90}, {"time": 5913, "pitch": 62, "duration": 90, "velocity": 80}, {"time": 6003, "pitch": 58, "duration": 9, "velocity": 105}, {"time": 6003, "pitch": 62, "duration": 9, "velocity": 95}, {"time": 6003, "pitch": 65, "duration": 9, "velocity": 95}, {"time": 6003, "pitch": 70, "duration": 9, "velocity": 105}, {"time": 6142, "pitch": 58, "duration": 10, "velocity": 90}, {"time": 6142, "pitch": 62, "duration": 10, "velocity": 80}, {"time": 6142, "pitch": 65, "duration": 10, "velocity": 80}, {"time": 6142, "pitch": 70, "duration": 10, "velocity": 90}, {"time": 6242, "pitch": 56, "duration": 10, "velocity": 90}, {"time": 6242, "pitch": 60, "duration": 10, "velocity": 80}, {"time": 6242, "pitch": 63, "duration": 10, "velocity": 80}, {"time": 6242, "pitch": 68, "duration": 10, "velocity": 90}, {"time": 6381, "pitch": 56, "duration": 10, "velocity": 80}, {"time": 6381, "pitch": 60, "duration": 10, "velocity": 70}, {"time": 6381, "pitch": 63, "duration": 10, "velocity": 70}, {"time": 6381, "pitch": 68, "duration": 10, "velocity": 80}, {"time": 6481, "pitch": 56, "duration": 119, "velocity": 80}, {"time": 6481, "pitch": 60, "duration": 129, "velocity": 70}, {"time": 6491, "pitch": 63, "duration": 129, "velocity": 70}, {"time": 6491, "pitch": 68, "duration": 129, "velocity": 80}, {"time": 6620, "pitch": 63, "duration": 100, "velocity": 90}, {"time": 6620, "pitch": 68, "duration": 100, "velocity": 100}, {"time": 6630, "pitch": 56, "duration": 90, "velocity": 100}, {"time": 6630, "pitch": 60, "duration": 90, "velocity": 90}, {"time": 6720, "pitch": 56, "duration": 130, "velocity": 110}, {"time": 6720, "pitch": 60, "duration": 130, "velocity": 100}, {"time": 6730, "pitch": 63, "duration": 130, "velocity": 100}, {"time": 6730, "pitch": 68, "duration": 130, "velocity": 110}, {"time": 6860, "pitch": 63, "duration": 99, "velocity": 80}, {"time": 6860, "pitch": 68, "duration": 99, "velocity": 90}, {"time": 6870, "pitch": 56, "duration": 89, "velocity": 90}, {"time": 6870, "pitch": 60, "duration": 89, "velocity": 80}, {"time": 6959, "pitch": 56, "duration": 10, "velocity": 105}, {"time": 6959, "pitch": 60, "duration": 10, "velocity": 95}, {"time": 6959, "pitch": 63, "duration": 10, "velocity": 95}, {"time": 6959, "pitch": 68, "duration": 10, "velocity": 105}, {"time": 7099, "pitch": 56, "duration": 10, "velocity": 90}, {"time": 7099, "pitch": 60, "duration": 10, "velocity": 80}, {"time": 7099, "pitch": 63, "duration": 10, "velocity": 80}, {"time": 7099, "pitch": 68, "duration": 10, "velocity": 90}, {"time": 7198, "pitch": 55, "duration": 10, "velocity": 100}, {"time": 7198, "pitch": 58, "duration": 10, "velocity": 90}, {"time": 7198, "pitch": 62, "duration": 10, "velocity": 90}, {"time": 7198, "pitch": 67, "duration": 10, "velocity": 100}, {"time": 7338, "pitch": 55, "duration": 10, "velocity": 90}, {"time": 7338, "pitch": 58, "duration": 10, "velocity": 80}, {"time": 7338, "pitch": 62, "duration": 10, "velocity": 80}, {"time": 7338, "pitch": 67, "duration": 10, "velocity": 90}, {"time": 7438, "pitch": 55, "duration": 119, "velocity": 80}, {"time": 7438, "pitch": 58, "duration": 129, "velocity": 70}, {"time": 7448, "pitch": 62, "duration": 129, "velocity": 70}, {"time": 7448, "pitch": 67, "duration": 129, "velocity": 80}, {"time": 7577, "pitch": 62, "duration": 100, "velocity": 90}, {"time": 7577, "pitch": 67, "duration": 100, "velocity": 100}, {"time": 7587, "pitch": 55, "duration": 90, "velocity": 100}, {"time": 7587, "pitch": 58, "duration": 90, "velocity": 90}, {"time": 7677, "pitch": 55, "duration": 131, "velocity": 110}, {"time": 7677, "pitch": 58, "duration": 131, "velocity": 100}, {"time": 7687, "pitch": 62, "duration": 131, "velocity": 100}, {"time": 7687, "pitch": 67, "duration": 131, "velocity": 110}, {"time": 7818, "pitch": 62, "duration": 101, "velocity": 80}, {"time": 7818, "pitch": 67, "duration": 101, "velocity": 90}, {"time": 7828, "pitch": 55, "duration": 91, "velocity": 90}, {"time": 7828, "pitch": 58, "duration": 91, "velocity": 80}, {"time": 7919, "pitch": 55, "duration": 11, "velocity": 105}, {"time": 7919, "pitch": 58, "duration": 11, "velocity": 95}, {"time": 7919, "pitch": 62, "duration": 11, "velocity": 95}, {"time": 7919, "pitch": 67, "duration": 11, "velocity": 105}, {"time": 8061, "pitch": 55, "duration": 10, "velocity": 90}, {"time": 8061, "pitch": 58, "duration": 10, "velocity": 80}, {"time": 8061, "pitch": 62, "duration": 10, "velocity": 80}, {"time": 8061, "pitch": 67, "duration": 10, "velocity": 90}, {"time": 8162, "pitch": 54, "duration": 10, "velocity": 100}, {"time": 8162, "pitch": 58, "duration": 10, "velocity": 90}, {"time": 8162, "pitch": 61, "duration": 10, "velocity": 90}, {"time": 8162, "pitch": 66, "duration": 10, "velocity": 100}, {"time": 8302, "pitch": 54, "duration": 10, "velocity": 90}, {"time": 8302, "pitch": 58, "duration": 10, "velocity": 80}, {"time": 8302, "pitch": 61, "duration": 10, "velocity": 80}, {"time": 8302, "pitch": 66, "duration": 10, "velocity": 90}, {"time": 8401, "pitch": 54, "duration": 120, "velocity": 80}, {"time": 8401, "pitch": 58, "duration": 130, "velocity": 70}, {"time": 8411, "pitch": 61, "duration": 130, "velocity": 70}, {"time": 8411, "pitch": 66, "duration": 130, "velocity": 80}, {"time": 8541, "pitch": 61, "duration": 100, "velocity": 90}, {"time": 8541, "pitch": 66, "duration": 100, "velocity": 100}, {"time": 8551, "pitch": 54, "duration": 90, "velocity": 100}, {"time": 8551, "pitch": 58, "duration": 90, "velocity": 90}, {"time": 8641, "pitch": 54, "duration": 9, "velocity": 95}, {"time": 8641, "pitch": 58, "duration": 9, "velocity": 85}, {"time": 8641, "pitch": 61, "duration": 9, "velocity": 85}, {"time": 8641, "pitch": 66, "duration": 9, "velocity": 95}, {"time": 8780, "pitch": 61, "duration": 100, "velocity": 90}, {"time": 8780, "pitch": 66, "duration": 100, "velocity": 100}, {"time": 8790, "pitch": 54, "duration": 90, "velocity": 100}, {"time": 8790, "pitch": 58, "duration": 90, "velocity": 90}, {"time": 8880, "pitch": 54, "duration": 79, "velocity": 85}, {"time": 8880, "pitch": 58, "duration": 79, "velocity": 75}, {"time": 8880, "pitch": 61, "duration": 79, "velocity": 75}, {"time": 8880, "pitch": 66, "duration": 79, "velocity": 85}, {"time": 9019, "pitch": 54, "duration": 10, "velocity": 90}, {"time": 9019, "pitch": 58, "duration": 10, "velocity": 80}, {"time": 9019, "pitch": 61, "duration": 10, "velocity": 80}, {"time": 9019, "pitch": 66, "duration": 10, "velocity": 90}, {"time": 9119, "pitch": 58, "duration": 10, "velocity": 100}, {"time": 9119, "pitch": 62, "duration": 10, "velocity": 90}, {"time": 9119, "pitch": 65, "duration": 10, "velocity": 90}, {"time": 9119, "pitch": 70, "duration": 10, "velocity": 100}, {"time": 9258, "pitch": 58, "duration": 10, "velocity": 90}, {"time": 9258, "pitch": 62, "duration": 10, "velocity": 80}, {"time": 9258, "pitch": 65, "duration": 10, "velocity": 80}, {"time": 9258, "pitch": 70, "duration": 10, "velocity": 90}, {"time": 9358, "pitch": 58, "duration": 120, "velocity": 80}, {"time": 9358, "pitch": 62, "duration": 130, "velocity": 70}, {"time": 9368, "pitch": 65, "duration": 130, "velocity": 70}, {"time": 9368, "pitch": 70, "duration": 130, "velocity": 80}, {"time": 9498, "pitch": 65, "duration": 99, "velocity": 90}, {"time": 9498, "pitch": 70, "duration": 99, "velocity": 100}, {"time": 9508, "pitch": 58, "duration": 89, "velocity": 100}, {"time": 9508, "pitch": 62, "duration": 89, "velocity": 90}, {"time": 9597, "pitch": 58, "duration": 132, "velocity": 110}, {"time": 9597, "pitch": 62, "duration": 132, "velocity": 100}, {"time": 9607, "pitch": 65, "duration": 132, "velocity": 100}, {"time": 9607, "pitch": 70, "duration": 132, "velocity": 110}, {"time": 9739, "pitch": 65, "duration": 101, "velocity": 80}, {"time": 9739, "pitch": 70, "duration": 101, "velocity": 90}, {"time": 9749, "pitch": 58, "duration": 91, "velocity": 90}, {"time": 9749, "pitch": 62, "duration": 91, "velocity": 80}, {"time": 9840, "pitch": 58, "duration": 10, "velocity": 105}, {"time": 9840, "pitch": 62, "duration": 10, "velocity": 95}, {"time": 9840, "pitch": 65, "duration": 10, "velocity": 95}, {"time": 9840, "pitch": 70, "duration": 10, "velocity": 105}, {"time": 9981, "pitch": 58, "duration": 11, "velocity": 90}, {"time": 9981, "pitch": 62, "duration": 11, "velocity": 80}, {"time": 9981, "pitch": 65, "duration": 11, "velocity": 80}, {"time": 9981, "pitch": 70, "duration": 11, "velocity": 90}, {"time": 10083, "pitch": 58, "duration": 10, "velocity": 90}, {"time": 10083, "pitch": 62, "duration": 10, "velocity": 80}, {"time": 10083, "pitch": 65, "duration": 10, "velocity": 80}, {"time": 10083, "pitch": 70, "duration": 10, "velocity": 90}, {"time": 10222, "pitch": 58, "duration": 10, "velocity": 80}, {"time": 10222, "pitch": 62, "duration": 10, "velocity": 70}, {"time": 10222, "pitch": 65, "duration": 10, "velocity": 70}, {"time": 10222, "pitch": 70, "duration": 10, "velocity": 80}, {"time": 10322, "pitch": 58, "duration": 119, "velocity": 80}, {"time": 10322, "pitch": 62, "duration": 129, "velocity": 70}, {"time": 10332, "pitch": 65, "duration": 129, "velocity": 70}, {"time": 10332, "pitch": 70, "duration": 129, "velocity": 80}, {"time": 10461, "pitch": 65, "duration": 100, "velocity": 90}, {"time": 10461, "pitch": 70, "duration": 100, "velocity": 100}, {"time": 10471, "pitch": 58, "duration": 90, "velocity": 100}, {"time": 10471, "pitch": 62, "duration": 90, "velocity": 90}, {"time": 10561, "pitch": 58, "duration": 130, "velocity": 110}, {"time": 10561, "pitch": 62, "duration": 130, "velocity": 100}, {"time": 10571, "pitch": 65, "duration": 129, "velocity": 100}, {"time": 10571, "pitch": 70, "duration": 129, "velocity": 110}, {"time": 10700, "pitch": 65, "duration": 100, "velocity": 80}, {"time": 10700, "pitch": 70, "duration": 100, "velocity": 90}, {"time": 10710, "pitch": 58, "duration": 90, "velocity": 90}, {"time": 10710, "pitch": 62, "duration": 90, "velocity": 80}, {"time": 10800, "pitch": 58, "duration": 10, "velocity": 105}, {"time": 10800, "pitch": 62, "duration": 10, "velocity": 95}, {"time": 10800, "pitch": 65, "duration": 10, "velocity": 95}, {"time": 10800, "pitch": 70, "duration": 10, "velocity": 105}, {"time": 10940, "pitch": 58, "duration": 10, "velocity": 90}, {"time": 10940, "pitch": 62, "duration": 10, "velocity": 80}, {"time": 10940, "pitch": 65, "duration": 10, "velocity": 80}, {"time": 10940, "pitch": 70, "duration": 10, "velocity": 90}, {"time": 11039, "pitch": 55, "duration": 10, "velocity": 100}, {"time": 11039, "pitch": 62, "duration": 10, "velocity": 90}, {"time": 11039, "pitch": 65, "duration": 10, "velocity": 90}, {"time": 11039, "pitch": 70, "duration": 10, "velocity": 100}, {"time": 11179, "pitch": 55, "duration": 10, "velocity": 90}, {"time": 11179, "pitch": 62, "duration": 10, "velocity": 80}, {"time": 11179, "pitch": 65, "duration": 10, "velocity": 80}, {"time": 11179, "pitch": 70, "duration": 10, "velocity": 90}, {"time": 11279, "pitch": 55, "duration": 119, "velocity": 80}, {"time": 11279, "pitch": 62, "duration": 129, "velocity": 70}, {"time": 11288, "pitch": 65, "duration": 130, "velocity": 70}, {"time": 11288, "pitch": 70, "duration": 130, "velocity": 80}, {"time": 11418, "pitch": 65, "duration": 100, "velocity": 90}, {"time": 11418, "pitch": 70, "duration": 100, "velocity": 100}, {"time": 11428, "pitch": 55, "duration": 90, "velocity": 100}, {"time": 11428, "pitch": 62, "duration": 90, "velocity": 90}, {"time": 11518, "pitch": 55, "duration": 131, "velocity": 110}, {"time": 11518, "pitch": 62, "duration": 131, "velocity": 100}, {"time": 11528, "pitch": 65, "duration": 131, "velocity": 100}, {"time": 11528, "pitch": 70, "duration": 131, "velocity": 110}, {"time": 11659, "pitch": 65, "duration": 101, "velocity": 80}, {"time": 11659, "pitch": 70, "duration": 101, "velocity": 90}, {"time": 11669, "pitch": 55, "duration": 91, "velocity": 90}, {"time": 11669, "pitch": 62, "duration": 91, "velocity": 80}, {"time": 11760, "pitch": 55, "duration": 10, "velocity": 105}, {"time": 11760, "pitch": 62, "duration": 10, "velocity": 95}, {"time": 11760, "pitch": 65, "duration": 10, "velocity": 95}, {"time": 11760, "pitch": 70, "duration": 10, "velocity": 105}, {"time": 11902, "pitch": 55, "duration": 10, "velocity": 90}, {"time": 11902, "pitch": 62, "duration": 10, "velocity": 80}, {"time": 11902, "pitch": 65, "duration": 10, "velocity": 80}, {"time": 11902, "pitch": 70, "duration": 10, "velocity": 90}, {"time": 12003, "pitch": 55, "duration": 10, "velocity": 90}, {"time": 12003, "pitch": 62, "duration": 10, "velocity": 80}, {"time": 12003, "pitch": 65, "duration": 10, "velocity": 80}, {"time": 12003, "pitch": 70, "duration": 10, "velocity": 90}, {"time": 12143, "pitch": 55, "duration": 9, "velocity": 80}, {"time": 12143, "pitch": 62, "duration": 9, "velocity": 70}, {"time": 12143, "pitch": 65, "duration": 9, "velocity": 70}, {"time": 12143, "pitch": 70, "duration": 9, "velocity": 80}, {"time": 12242, "pitch": 55, "duration": 120, "velocity": 80}, {"time": 12242, "pitch": 62, "duration": 130, "velocity": 70}, {"time": 12252, "pitch": 65, "duration": 130, "velocity": 70}, {"time": 12252, "pitch": 70, "duration": 130, "velocity": 80}, {"time": 12382, "pitch": 65, "duration": 99, "velocity": 90}, {"time": 12382, "pitch": 70, "duration": 99, "velocity": 100}, {"time": 12392, "pitch": 55, "duration": 89, "velocity": 100}, {"time": 12392, "pitch": 62, "duration": 89, "velocity": 90}, {"time": 12481, "pitch": 55, "duration": 130, "velocity": 110}, {"time": 12481, "pitch": 62, "duration": 130, "velocity": 100}, {"time": 12491, "pitch": 65, "duration": 130, "velocity": 100}, {"time": 12491, "pitch": 70, "duration": 130, "velocity": 110}, {"time": 12621, "pitch": 65, "duration": 100, "velocity": 80}, {"time": 12621, "pitch": 70, "duration": 100, "velocity": 90}, {"time": 12631, "pitch": 55, "duration": 90, "velocity": 90}, {"time": 12631, "pitch": 62, "duration": 90, "velocity": 80}, {"time": 12721, "pitch": 55, "duration": 10, "velocity": 105}, {"time": 12721, "pitch": 62, "duration": 10, "velocity": 95}, {"time": 12721, "pitch": 65, "duration": 10, "velocity": 95}, {"time": 12721, "pitch": 70, "duration": 10, "velocity": 105}, {"time": 12860, "pitch": 55, "duration": 10, "velocity": 90}, {"time": 12860, "pitch": 62, "duration": 10, "velocity": 80}, {"time": 12860, "pitch": 65, "duration": 10, "velocity": 80}, {"time": 12860, "pitch": 70, "duration": 10, "velocity": 90}, {"time": 12960, "pitch": 58, "duration": 10, "velocity": 100}, {"time": 12960, "pitch": 62, "duration": 10, "velocity": 90}, {"time": 12960, "pitch": 65, "duration": 10, "velocity": 90}, {"time": 12960, "pitch": 70, "duration": 10, "velocity": 100}, {"time": 13099, "pitch": 58, "duration": 10, "velocity": 90}, {"time": 13099, "pitch": 62, "duration": 10, "velocity": 80}, {"time": 13099, "pitch": 65, "duration": 10, "velocity": 80}, {"time": 13099, "pitch": 70, "duration": 10, "velocity": 90}, {"time": 13199, "pitch": 58, "duration": 120, "velocity": 80}, {"time": 13199, "pitch": 62, "duration": 130, "velocity": 70}, {"time": 13209, "pitch": 65, "duration": 129, "velocity": 70}, {"time": 13209, "pitch": 70, "duration": 129, "velocity": 80}, {"time": 13338, "pitch": 65, "duration": 100, "velocity": 90}, {"time": 13338, "pitch": 70, "duration": 100, "velocity": 100}, {"time": 13348, "pitch": 58, "duration": 90, "velocity": 100}, {"time": 13348, "pitch": 62, "duration": 90, "velocity": 90}, {"time": 13438, "pitch": 58, "duration": 132, "velocity": 110}, {"time": 13438, "pitch": 62, "duration": 132, "velocity": 100}, {"time": 13448, "pitch": 65, "duration": 132, "velocity": 100}, {"time": 13448, "pitch": 70, "duration": 132, "velocity": 110}, {"time": 13580, "pitch": 65, "duration": 101, "velocity": 80}, {"time": 13580, "pitch": 70, "duration": 101, "velocity": 90}, {"time": 13590, "pitch": 58, "duration": 91, "velocity": 90}, {"time": 13590, "pitch": 62, "duration": 91, "velocity": 80}, {"time": 13681, "pitch": 58, "duration": 10, "velocity": 105}, {"time": 13681, "pitch": 62, "duration": 10, "velocity": 95}, {"time": 13681, "pitch": 65, "duration": 10, "velocity": 95}, {"time": 13681, "pitch": 70, "duration": 10, "velocity": 105}, {"time": 13822, "pitch": 58, "duration": 10, "velocity": 90}, {"time": 13822, "pitch": 62, "duration": 10, "velocity": 80}, {"time": 13822, "pitch": 65, "duration": 10, "velocity": 80}, {"time": 13822, "pitch": 70, "duration": 10, "velocity": 90}, {"time": 13923, "pitch": 56, "duration": 10, "velocity": 90}, {"time": 13923, "pitch": 60, "duration": 10, "velocity": 80}, {"time": 13923, "pitch": 63, "duration": 10, "velocity": 80}, {"time": 13923, "pitch": 68, "duration": 10, "velocity": 90}, {"time": 14063, "pitch": 56, "duration": 10, "velocity": 80}, {"time": 14063, "pitch": 60, "duration": 10, "velocity": 70}, {"time": 14063, "pitch": 63, "duration": 10, "velocity": 70}, {"time": 14063, "pitch": 68, "duration": 10, "velocity": 80}, {"time": 14163, "pitch": 56, "duration": 119, "velocity": 80}, {"time": 14163, "pitch": 60, "duration": 129, "velocity": 70}, {"time": 14173, "pitch": 63, "duration": 129, "velocity": 70}, {"time": 14173, "pitch": 68, "duration": 129, "velocity": 80}, {"time": 14302, "pitch": 63, "duration": 100, "velocity": 90}, {"time": 14302, "pitch": 68, "duration": 100, "velocity": 100}, {"time": 14312, "pitch": 56, "duration": 90, "velocity": 100}, {"time": 14312, "pitch": 60, "duration": 90, "velocity": 90}, {"time": 14402, "pitch": 56, "duration": 129, "velocity": 110}, {"time": 14402, "pitch": 60, "duration": 129, "velocity": 100}, {"time": 14412, "pitch": 63, "duration": 129, "velocity": 100}, {"time": 14412, "pitch": 68, "duration": 129, "velocity": 110}, {"time": 14541, "pitch": 63, "duration": 100, "velocity": 80}, {"time": 14541, "pitch": 68, "duration": 100, "velocity": 90}, {"time": 14551, "pitch": 56, "duration": 90, "velocity": 90}, {"time": 14551, "pitch": 60, "duration": 90, "velocity": 80}, {"time": 14641, "pitch": 56, "duration": 10, "velocity": 105}, {"time": 14641, "pitch": 60, "duration": 10, "velocity": 95}, {"time": 14641, "pitch": 63, "duration": 10, "velocity": 95}, {"time": 14641, "pitch": 68, "duration": 10, "velocity": 105}, {"time": 14781, "pitch": 56, "duration": 9, "velocity": 90}, {"time": 14781, "pitch": 60, "duration": 9, "velocity": 80}, {"time": 14781, "pitch": 63, "duration": 9, "velocity": 80}, {"time": 14781, "pitch": 68, "duration": 9, "velocity": 90}, {"time": 14880, "pitch": 55, "duration": 10, "velocity": 100}, {"time": 14880, "pitch": 58, "duration": 10, "velocity": 90}, {"time": 14880, "pitch": 62, "duration": 10, "velocity": 90}, {"time": 14880, "pitch": 67, "duration": 10, "velocity": 100}, {"time": 15020, "pitch": 55, "duration": 10, "velocity": 90}, {"time": 15020, "pitch": 58, "duration": 10, "velocity": 80}, {"time": 15020, "pitch": 62, "duration": 10, "velocity": 80}, {"time": 15020, "pitch": 67, "duration": 10, "velocity": 90}, {"time": 15119, "pitch": 55, "duration": 120, "velocity": 80}, {"time": 15119, "pitch": 58, "duration": 130, "velocity": 70}, {"time": 15129, "pitch": 62, "duration": 130, "velocity": 70}, {"time": 15129, "pitch": 67, "duration": 130, "velocity": 80}, {"time": 15259, "pitch": 62, "duration": 100, "velocity": 90}, {"time": 15259, "pitch": 67, "duration": 100, "velocity": 100}, {"time": 15269, "pitch": 55, "duration": 90, "velocity": 100}, {"time": 15269, "pitch": 58, "duration": 90, "velocity": 90}, {"time": 15359, "pitch": 55, "duration": 129, "velocity": 110}, {"time": 15359, "pitch": 58, "duration": 129, "velocity": 100}, {"time": 15369, "pitch": 62, "duration": 129, "velocity": 100}, {"time": 15369, "pitch": 67, "duration": 129, "velocity": 110}, {"time": 15498, "pitch": 62, "duration": 100, "velocity": 80}, {"time": 15498, "pitch": 67, "duration": 100, "velocity": 90}, {"time": 15508, "pitch": 55, "duration": 90, "velocity": 90}, {"time": 15508, "pitch": 58, "duration": 90, "velocity": 80}, {"time": 15598, "pitch": 55, "duration": 10, "velocity": 105}, {"time": 15598, "pitch": 58, "duration": 10, "velocity": 95}, {"time": 15598, "pitch": 62, "duration": 10, "velocity": 95}, {"time": 15598, "pitch": 67, "duration": 10, "velocity": 105}, {"time": 15737, "pitch": 55, "duration": 10, "velocity": 90}, {"time": 15737, "pitch": 58, "duration": 10, "velocity": 80}, {"time": 15737, "pitch": 62, "duration": 10, "velocity": 80}, {"time": 15737, "pitch": 67, "duration": 10, "velocity": 90}, {"time": 15837, "pitch": 54, "duration": 10, "velocity": 100}, {"time": 15837, "pitch": 58, "duration": 10, "velocity": 90}, {"time": 15837, "pitch": 61, "duration": 10, "velocity": 90}, {"time": 15837, "pitch": 66, "duration": 10, "velocity": 100}, {"time": 15978, "pitch": 54, "duration": 11, "velocity": 90}, {"time": 15978, "pitch": 58, "duration": 11, "velocity": 80}, {"time": 15978, "pitch": 61, "duration": 11, "velocity": 80}, {"time": 15978, "pitch": 66, "duration": 11, "velocity": 90}, {"time": 16080, "pitch": 54, "duration": 121, "velocity": 80}, {"time": 16080, "pitch": 58, "duration": 131, "velocity": 70}, {"time": 16090, "pitch": 61, "duration": 131, "velocity": 70}, {"time": 16090, "pitch": 66, "duration": 131, "velocity": 80}, {"time": 16221, "pitch": 61, "duration": 101, "velocity": 90}, {"time": 16221, "pitch": 66, "duration": 101, "velocity": 100}, {"time": 16231, "pitch": 54, "duration": 91, "velocity": 100}, {"time": 16231, "pitch": 58, "duration": 91, "velocity": 90}, {"time": 16322, "pitch": 56, "duration": 130, "velocity": 110}, {"time": 16322, "pitch": 60, "duration": 130, "velocity": 100}, {"time": 16332, "pitch": 63, "duration": 130, "velocity": 100}, {"time": 16332, "pitch": 68, "duration": 130, "velocity": 110}, {"time": 16462, "pitch": 63, "duration": 99, "velocity": 80}, {"time": 16462, "pitch": 68, "duration": 99, "velocity": 90}, {"time": 16472, "pitch": 56, "duration": 89, "velocity": 90}, {"time": 16472, "pitch": 60, "duration": 89, "velocity": 80}, {"time": 16561, "pitch": 56, "duration": 10, "velocity": 105}, {"time": 16561, "pitch": 60, "duration": 10, "velocity": 95}, {"time": 16561, "pitch": 63, "duration": 10, "velocity": 95}, {"time": 16561, "pitch": 68, "duration": 10, "velocity": 105}, {"time": 16701, "pitch": 56, "duration": 10, "velocity": 90}, {"time": 16701, "pitch": 60, "duration": 10, "velocity": 80}, {"time": 16701, "pitch": 63, "duration": 10, "velocity": 80}, {"time": 16701, "pitch": 68, "duration": 10, "velocity": 90}, {"time": 19578, "pitch": 54, "duration": 100, "velocity": 90}, {"time": 19678, "pitch": 58, "duration": 222, "velocity": 100}, {"time": 19920, "pitch": 58, "duration": 223, "velocity": 90}, {"time": 20163, "pitch": 62, "duration": 239, "velocity": 100}, {"time": 20402, "pitch": 60, "duration": 140, "velocity": 100}, {"time": 20542, "pitch": 55, "duration": 100, "velocity": 90}, {"time": 23040, "pitch": 58, "duration": 130, "velocity": 90}, {"time": 23279, "pitch": 60, "duration": 130, "velocity": 100}, {"time": 23519, "pitch": 60, "duration": 239, "velocity": 100}, {"time": 23758, "pitch": 65, "duration": 139, "velocity": 100}, {"time": 23997, "pitch": 60, "duration": 101, "velocity": 110}, {"time": 24139, "pitch": 58, "duration": 323, "velocity": 90}, {"time": 30722, "pitch": 62, "duration": 130, "velocity": 100}, {"time": 30862, "pitch": 65, "duration": 109, "velocity": 110}, {"time": 31440, "pitch": 55, "duration": 139, "velocity": 100}, {"time": 31440, "pitch": 67, "duration": 99, "velocity": 110}, {"time": 32157, "pitch": 55, "duration": 10, "velocity": 100}, {"time": 32157, "pitch": 58, "duration": 10, "velocity": 90}, {"time": 32157, "pitch": 63, "duration": 10, "velocity": 90}, {"time": 32157, "pitch": 67, "duration": 10, "velocity": 100}, {"time": 32299, "pitch": 55, "duration": 10, "velocity": 90}, {"time": 32299, "pitch": 58, "duration": 10, "velocity": 80}, {"time": 32299, "pitch": 63, "duration": 10, "velocity": 80}, {"time": 32299, "pitch": 67, "duration": 10, "velocity": 90}, {"time": 32400, "pitch": 55, "duration": 121, "velocity": 80}, {"time": 32400, "pitch": 58, "duration": 131, "velocity": 70}, {"time": 32410, "pitch": 63, "duration": 131, "velocity": 70}, {"time": 32410, "pitch": 67, "duration": 131, "velocity": 80}, {"time": 32541, "pitch": 63, "duration": 101, "velocity": 90}, {"time": 32541, "pitch": 67, "duration": 101, "velocity": 100}, {"time": 32551, "pitch": 55, "duration": 91, "velocity": 100}, {"time": 32551, "pitch": 58, "duration": 91, "velocity": 90}, {"time": 32642, "pitch": 55, "duration": 130, "velocity": 110}, {"time": 32642, "pitch": 58, "duration": 130, "velocity": 100}, {"time": 32652, "pitch": 63, "duration": 130, "velocity": 100}, {"time": 32652, "pitch": 67, "duration": 130, "velocity": 110}, {"time": 32782, "pitch": 63, "duration": 100, "velocity": 80}, {"time": 32782, "pitch": 67, "duration": 100, "velocity": 90}, {"time": 32792, "pitch": 55, "duration": 90, "velocity": 90}, {"time": 32792, "pitch": 58, "duration": 90, "velocity": 80}, {"time": 32882, "pitch": 55, "duration": 10, "velocity": 105}, {"time": 32882, "pitch": 58, "duration": 10, "velocity": 95}, {"time": 32882, "pitch": 63, "duration": 10, "velocity": 95}, {"time": 32882, "pitch": 67, "duration": 10, "velocity": 105}, {"time": 33021, "pitch": 55, "duration": 10, "velocity": 90}, {"time": 33021, "pitch": 58, "duration": 10, "velocity": 80}, {"time": 33021, "pitch": 63, "duration": 10, "velocity": 80}, {"time": 33021, "pitch": 67, "duration": 10, "velocity": 90}, {"time": 33121, "pitch": 55, "duration": 10, "velocity": 90}, {"time": 33121, "pitch": 58, "duration": 10, "velocity": 80}, {"time": 33121, "pitch": 63, "duration": 10, "velocity": 80}, {"time": 33121, "pitch": 67, "duration": 10, "velocity": 90}, {"time": 33260, "pitch": 55, "duration": 10, "velocity": 80}, {"time": 33260, "pitch": 58, "duration": 10, "velocity": 70}, {"time": 33260, "pitch": 63, "duration": 10, "velocity": 70}, {"time": 33260, "pitch": 67, "duration": 10, "velocity": 80}, {"time": 33360, "pitch": 55, "duration": 120, "velocity": 80}, {"time": 33360, "pitch": 58, "duration": 130, "velocity": 70}, {"time": 33370, "pitch": 63, "duration": 130, "velocity": 70}, {"time": 33370, "pitch": 67, "duration": 130, "velocity": 80}, {"time": 33500, "pitch": 63, "duration": 99, "velocity": 90}, {"time": 33500, "pitch": 67, "duration": 99, "velocity": 100}, {"time": 33509, "pitch": 55, "duration": 90, "velocity": 100}, {"time": 33509, "pitch": 58, "duration": 90, "velocity": 90}, {"time": 33599, "pitch": 55, "duration": 130, "velocity": 110}, {"time": 33599, "pitch": 58, "duration": 130, "velocity": 100}, {"time": 33609, "pitch": 63, "duration": 130, "velocity": 100}, {"time": 33609, "pitch": 67, "duration": 130, "velocity": 110}, {"time": 33739, "pitch": 63, "duration": 99, "velocity": 80}, {"time": 33739, "pitch": 67, "duration": 99, "velocity": 90}, {"time": 33749, "pitch": 55, "duration": 89, "velocity": 90}, {"time": 33749, "pitch": 58, "duration": 89, "velocity": 80}, {"time": 33838, "pitch": 55, "duration": 10, "velocity": 105}, {"time": 33838, "pitch": 58, "duration": 10, "velocity": 95}, {"time": 33838, "pitch": 63, "duration": 10, "velocity": 95}, {"time": 33838, "pitch": 67, "duration": 10, "velocity": 105}, {"time": 33978, "pitch": 55, "duration": 10, "velocity": 90}, {"time": 33978, "pitch": 58, "duration": 10, "velocity": 80}, {"time": 33978, "pitch": 63, "duration": 10, "velocity": 80}, {"time": 33978, "pitch": 67, "duration": 10, "velocity": 90}, {"time": 34078, "pitch": 58, "duration": 10, "velocity": 100}, {"time": 34078, "pitch": 62, "duration": 10, "velocity": 90}, {"time": 34078, "pitch": 65, "duration": 10, "velocity": 90}, {"time": 34078, "pitch": 70, "duration": 10, "velocity": 100}, {"time": 34219, "pitch": 58, "duration": 10, "velocity": 90}, {"time": 34219, "pitch": 62, "duration": 10, "velocity": 80}, {"time": 34219, "pitch": 65, "duration": 10, "velocity": 80}, {"time": 34219, "pitch": 70, "duration": 10, "velocity": 90}, {"time": 34320, "pitch": 58, "duration": 122, "velocity": 80}, {"time": 34320, "pitch": 62, "duration": 132, "velocity": 70}, {"time": 34330, "pitch": 65, "duration": 132, "velocity": 70}, {"time": 34330, "pitch": 70, "duration": 132, "velocity": 80}, {"time": 34462, "pitch": 65, "duration": 101, "velocity": 90}, {"time": 34462, "pitch": 70, "duration": 101, "velocity": 100}, {"time": 34472, "pitch": 58, "duration": 91, "velocity": 100}, {"time": 34472, "pitch": 62, "duration": 91, "velocity": 90}, {"time": 34563, "pitch": 58, "duration": 129, "velocity": 110}, {"time": 34563, "pitch": 62, "duration": 129, "velocity": 100}, {"time": 34573, "pitch": 65, "duration": 129, "velocity": 100}, {"time": 34573, "pitch": 70, "duration": 129, "velocity": 110}, {"time": 34702, "pitch": 65, "duration": 100, "velocity": 80}, {"time": 34702, "pitch": 70, "duration": 100, "velocity": 90}, {"time": 34712, "pitch": 58, "duration": 90, "velocity": 90}, {"time": 34712, "pitch": 62, "duration": 90, "velocity": 80}, {"time": 34802, "pitch": 58, "duration": 10, "velocity": 105}, {"time": 34802, "pitch": 62, "duration": 10, "velocity": 95}, {"time": 34802, "pitch": 65, "duration": 10, "velocity": 95}, {"time": 34802, "pitch": 70, "duration": 10, "velocity": 105}, {"time": 34942, "pitch": 58, "duration": 10, "velocity": 90}, {"time": 34942, "pitch": 62, "duration": 10, "velocity": 80}, {"time": 34942, "pitch": 65, "duration": 10, "velocity": 80}, {"time": 34942, "pitch": 70, "duration": 10, "velocity": 90}, {"time": 35041, "pitch": 58, "duration": 10, "velocity": 90}, {"time": 35041, "pitch": 62, "duration": 10, "velocity": 80}, {"time": 35041, "pitch": 65, "duration": 10, "velocity": 80}, {"time": 35041, "pitch": 70, "duration": 10, "velocity": 90}, {"time": 35181, "pitch": 58, "duration": 10, "velocity": 80}, {"time": 35181, "pitch": 62, "duration": 10, "velocity": 70}, {"time": 35181, "pitch": 65, "duration": 10, "velocity": 70}, {"time": 35181, "pitch": 70, "duration": 10, "velocity": 80}, {"time": 35280, "pitch": 58, "duration": 120, "velocity": 80}, {"time": 35280, "pitch": 62, "duration": 130, "velocity": 70}, {"time": 35290, "pitch": 65, "duration": 130, "velocity": 70}, {"time": 35290, "pitch": 70, "duration": 130, "velocity": 80}, {"time": 35420, "pitch": 65, "duration": 100, "velocity": 90}, {"time": 35420, "pitch": 70, "duration": 100, "velocity": 100}, {"time": 35430, "pitch": 58, "duration": 90, "velocity": 100}, {"time": 35430, "pitch": 62, "duration": 90, "velocity": 90}, {"time": 35520, "pitch": 58, "duration": 129, "velocity": 110}, {"time": 35520, "pitch": 62, "duration": 129, "velocity": 100}, {"time": 35530, "pitch": 65, "duration": 129, "velocity": 100}, {"time": 35530, "pitch": 70, "duration": 129, "velocity": 110}, {"time": 35659, "pitch": 65, "duration": 100, "velocity": 80}, {"time": 35659, "pitch": 70, "duration": 100, "velocity": 90}, {"time": 35669, "pitch": 58, "duration": 90, "velocity": 90}, {"time": 35669, "pitch": 62, "duration": 90, "velocity": 80}, {"time": 35759, "pitch": 58, "duration": 10, "velocity": 105}, {"time": 35759, "pitch": 62, "duration": 10, "velocity": 95}, {"time": 35759, "pitch": 65, "duration": 10, "velocity": 95}, {"time": 35759, "pitch": 70, "duration": 10, "velocity": 105}, {"time": 35898, "pitch": 58, "duration": 10, "velocity": 90}, {"time": 35898, "pitch": 62, "duration": 10, "velocity": 80}, {"time": 35898, "pitch": 65, "duration": 10, "velocity": 80}, {"time": 35898, "pitch": 70, "duration": 10, "velocity": 90}, {"time": 35998, "pitch": 53, "duration": 10, "velocity": 100}, {"time": 35998, "pitch": 58, "duration": 10, "velocity": 90}, {"time": 35998, "pitch": 60, "duration": 10, "velocity": 90}, {"time": 35998, "pitch": 65, "duration": 10, "velocity": 100}, {"time": 36140, "pitch": 53, "duration": 10, "velocity": 90}, {"time": 36140, "pitch": 58, "duration": 10, "velocity": 80}, {"time": 36140, "pitch": 60, "duration": 10, "velocity": 80}, {"time": 36140, "pitch": 65, "duration": 10, "velocity": 90}, {"time": 36241, "pitch": 53, "duration": 121, "velocity": 80}, {"time": 36241, "pitch": 58, "duration": 131, "velocity": 70}, {"time": 36251, "pitch": 60, "duration": 131, "velocity": 70}, {"time": 36251, "pitch": 65, "duration": 131, "velocity": 80}, {"time": 36382, "pitch": 60, "duration": 101, "velocity": 90}, {"time": 36382, "pitch": 65, "duration": 101, "velocity": 100}, {"time": 36392, "pitch": 53, "duration": 91, "velocity": 100}, {"time": 36392, "pitch": 58, "duration": 91, "velocity": 90}, {"time": 36483, "pitch": 53, "duration": 130, "velocity": 110}, {"time": 36483, "pitch": 58, "duration": 130, "velocity": 100}, {"time": 36493, "pitch": 60, "duration": 130, "velocity": 100}, {"time": 36493, "pitch": 65, "duration": 130, "velocity": 110}, {"time": 36623, "pitch": 60, "duration": 99, "velocity": 80}, {"time": 36623, "pitch": 65, "duration": 99, "velocity": 90}, {"time": 36633, "pitch": 53, "duration": 89, "velocity": 90}, {"time": 36633, "pitch": 58, "duration": 89, "velocity": 80}, {"time": 36722, "pitch": 53, "duration": 10, "velocity": 105}, {"time": 36722, "pitch": 58, "duration": 10, "velocity": 95}, {"time": 36722, "pitch": 60, "duration": 10, "velocity": 95}, {"time": 36722, "pitch": 65, "duration": 10, "velocity": 105}, {"time": 36862, "pitch": 53, "duration": 10, "velocity": 90}, {"time": 36862, "pitch": 58, "duration": 10, "velocity": 80}, {"time": 36862, "pitch": 60, "duration": 10, "velocity": 80}, {"time": 36862, "pitch": 65, "duration": 10, "velocity": 90}, {"time": 36962, "pitch": 51, "duration": 10, "velocity": 90}, {"time": 36962, "pitch": 57, "duration": 10, "velocity": 80}, {"time": 36962, "pitch": 60, "duration": 10, "velocity": 80}, {"time": 36962, "pitch": 66, "duration": 10, "velocity": 90}, {"time": 37101, "pitch": 51, "duration": 10, "velocity": 80}, {"time": 37101, "pitch": 57, "duration": 10, "velocity": 70}, {"time": 37101, "pitch": 60, "duration": 10, "velocity": 70}, {"time": 37101, "pitch": 66, "duration": 10, "velocity": 80}, {"time": 37201, "pitch": 51, "duration": 119, "velocity": 80}, {"time": 37201, "pitch": 57, "duration": 129, "velocity": 70}, {"time": 37211, "pitch": 60, "duration": 129, "velocity": 70}, {"time": 37211, "pitch": 66, "duration": 129, "velocity": 80}, {"time": 37340, "pitch": 60, "duration": 100, "velocity": 90}, {"time": 37340, "pitch": 66, "duration": 100, "velocity": 100}, {"time": 37350, "pitch": 51, "duration": 90, "velocity": 100}, {"time": 37350, "pitch": 57, "duration": 90, "velocity": 90}, {"time": 37440, "pitch": 51, "duration": 130, "velocity": 110}, {"time": 37440, "pitch": 57, "duration": 130, "velocity": 100}, {"time": 37450, "pitch": 60, "duration": 130, "velocity": 100}, {"time": 37450, "pitch": 66, "duration": 130, "velocity": 110}, {"time": 37580, "pitch": 60, "duration": 99, "velocity": 80}, {"time": 37580, "pitch": 66, "duration": 99, "velocity": 90}, {"time": 37590, "pitch": 51, "duration": 89, "velocity": 90}, {"time": 37590, "pitch": 57, "duration": 89, "velocity": 80}, {"time": 37679, "pitch": 51, "duration": 10, "velocity": 105}, {"time": 37679, "pitch": 57, "duration": 10, "velocity": 95}, {"time": 37679, "pitch": 60, "duration": 10, "velocity": 95}, {"time": 37679, "pitch": 66, "duration": 10, "velocity": 105}, {"time": 37819, "pitch": 51, "duration": 10, "velocity": 90}, {"time": 37819, "pitch": 57, "duration": 10, "velocity": 80}, {"time": 37819, "pitch": 60, "duration": 10, "velocity": 80}, {"time": 37819, "pitch": 66, "duration": 10, "velocity": 90}, {"time": 37918, "pitch": 55, "duration": 10, "velocity": 100}, {"time": 37918, "pitch": 58, "duration": 10, "velocity": 90}, {"time": 37918, "pitch": 62, "duration": 10, "velocity": 90}, {"time": 37918, "pitch": 67, "duration": 10, "velocity": 100}, {"time": 38058, "pitch": 55, "duration": 10, "velocity": 90}, {"time": 38058, "pitch": 58, "duration": 10, "velocity": 80}, {"time": 38058, "pitch": 62, "duration": 10, "velocity": 80}, {"time": 38058, "pitch": 67, "duration": 10, "velocity": 90}, {"time": 38158, "pitch": 55, "duration": 119, "velocity": 110}, {"time": 38158, "pitch": 58, "duration": 129, "velocity": 100}, {"time": 38168, "pitch": 62, "duration": 129, "velocity": 100}, {"time": 38168, "pitch": 67, "duration": 129, "velocity": 110}, {"time": 38297, "pitch": 62, "duration": 100, "velocity": 90}, {"time": 38297, "pitch": 67, "duration": 100, "velocity": 100}, {"time": 38307, "pitch": 55, "duration": 90, "velocity": 100}, {"time": 38307, "pitch": 58, "duration": 90, "velocity": 90}, {"time": 38397, "pitch": 55, "duration": 10, "velocity": 100}, {"time": 38397, "pitch": 58, "duration": 10, "velocity": 90}, {"time": 38397, "pitch": 62, "duration": 10, "velocity": 90}, {"time": 38397, "pitch": 67, "duration": 10, "velocity": 100}, {"time": 38538, "pitch": 55, "duration": 10, "velocity": 90}, {"time": 38538, "pitch": 58, "duration": 10, "velocity": 80}, {"time": 38538, "pitch": 62, "duration": 10, "velocity": 80}, {"time": 38538, "pitch": 67, "duration": 10, "velocity": 90}, {"time": 38639, "pitch": 55, "duration": 122, "velocity": 110}, {"time": 38639, "pitch": 58, "duration": 132, "velocity": 100}, {"time": 38650, "pitch": 62, "duration": 131, "velocity": 100}, {"time": 38650, "pitch": 67, "duration": 131, "velocity": 110}, {"time": 38781, "pitch": 62, "duration": 101, "velocity": 90}, {"time": 38781, "pitch": 67, "duration": 101, "velocity": 100}, {"time": 38791, "pitch": 55, "duration": 91, "velocity": 100}, {"time": 38791, "pitch": 58, "duration": 91, "velocity": 90}, {"time": 38882, "pitch": 55, "duration": 10, "velocity": 100}, {"time": 38882, "pitch": 58, "duration": 10, "velocity": 90}, {"time": 38882, "pitch": 62, "duration": 10, "velocity": 90}, {"time": 38882, "pitch": 67, "duration": 10, "velocity": 100}, {"time": 39022, "pitch": 55, "duration": 10, "velocity": 90}, {"time": 39022, "pitch": 58, "duration": 10, "velocity": 80}, {"time": 39022, "pitch": 62, "duration": 10, "velocity": 80}, {"time": 39022, "pitch": 67, "duration": 10, "velocity": 90}, {"time": 39121, "pitch": 55, "duration": 120, "velocity": 110}, {"time": 39121, "pitch": 58, "duration": 130, "velocity": 100}, {"time": 39131, "pitch": 62, "duration": 130, "velocity": 100}, {"time": 39131, "pitch": 67, "duration": 130, "velocity": 110}, {"time": 39261, "pitch": 62, "duration": 99, "velocity": 90}, {"time": 39261, "pitch": 67, "duration": 99, "velocity": 100}, {"time": 39271, "pitch": 55, "duration": 89, "velocity": 100}, {"time": 39271, "pitch": 58, "duration": 89, "velocity": 90}, {"time": 39360, "pitch": 55, "duration": 10, "velocity": 100}, {"time": 39360, "pitch": 58, "duration": 10, "velocity": 90}, {"time": 39360, "pitch": 62, "duration": 10, "velocity": 90}, {"time": 39360, "pitch": 67, "duration": 10, "velocity": 100}, {"time": 39500, "pitch": 55, "duration": 10, "velocity": 90}, {"time": 39500, "pitch": 58, "duration": 10, "velocity": 80}, {"time": 39500, "pitch": 62, "duration": 10, "velocity": 80}, {"time": 39500, "pitch": 67, "duration": 10, "velocity": 90}, {"time": 39600, "pitch": 55, "duration": 119, "velocity": 110}, {"time": 39600, "pitch": 58, "duration": 129, "velocity": 100}, {"time": 39610, "pitch": 62, "duration": 129, "velocity": 100}, {"time": 39610, "pitch": 67, "duration": 129, "velocity": 110}, {"time": 39739, "pitch": 62, "duration": 100, "velocity": 90}, {"time": 39739, "pitch": 67, "duration": 100, "velocity": 100}, {"time": 39749, "pitch": 55, "duration": 90, "velocity": 100}, {"time": 39749, "pitch": 58, "duration": 90, "velocity": 90}, {"time": 39839, "pitch": 58, "duration": 10, "velocity": 100}, {"time": 39839, "pitch": 63, "duration": 10, "velocity": 90}, {"time": 39839, "pitch": 67, "duration": 10, "velocity": 90}, {"time": 39839, "pitch": 70, "duration": 10, "velocity": 100}, {"time": 39978, "pitch": 58, "duration": 10, "velocity": 90}, {"time": 39978, "pitch": 63, "duration": 10, "velocity": 80}, {"time": 39978, "pitch": 67, "duration": 10, "velocity": 80}, {"time": 39978, "pitch": 70, "duration": 10, "velocity": 90}, {"time": 40078, "pitch": 58, "duration": 120, "velocity": 80}, {"time": 40078, "pitch": 63, "duration": 130, "velocity": 70}, {"time": 40088, "pitch": 67, "duration": 130, "velocity": 70}, {"time": 40088, "pitch": 70, "duration": 130, "velocity": 80}, {"time": 40218, "pitch": 67, "duration": 99, "velocity": 90}, {"time": 40218, "pitch": 70, "duration": 99, "velocity": 100}, {"time": 40228, "pitch": 58, "duration": 89, "velocity": 100}, {"time": 40228, "pitch": 63, "duration": 89, "velocity": 90}, {"time": 40317, "pitch": 58, "duration": 132, "velocity": 110}, {"time": 40317, "pitch": 63, "duration": 132, "velocity": 100}, {"time": 40327, "pitch": 67, "duration": 132, "velocity": 100}, {"time": 40327, "pitch": 70, "duration": 132, "velocity": 110}, {"time": 40459, "pitch": 67, "duration": 101, "velocity": 80}, {"time": 40459, "pitch": 70, "duration": 101, "velocity": 90}, {"time": 40469, "pitch": 58, "duration": 91, "velocity": 90}, {"time": 40469, "pitch": 63, "duration": 91, "velocity": 80}, {"time": 40560, "pitch": 58, "duration": 10, "velocity": 105}, {"time": 40560, "pitch": 63, "duration": 10, "velocity": 95}, {"time": 40560, "pitch": 67, "duration": 10, "velocity": 95}, {"time": 40560, "pitch": 70, "duration": 10, "velocity": 105}, {"time": 40701, "pitch": 58, "duration": 11, "velocity": 90}, {"time": 40701, "pitch": 63, "duration": 11, "velocity": 80}, {"time": 40701, "pitch": 67, "duration": 11, "velocity": 80}, {"time": 40701, "pitch": 70, "duration": 11, "velocity": 90}, {"time": 40802, "pitch": 58, "duration": 10, "velocity": 90}, {"time": 40802, "pitch": 63, "duration": 10, "velocity": 80}, {"time": 40802, "pitch": 67, "duration": 10, "velocity": 80}, {"time": 40802, "pitch": 70, "duration": 10, "velocity": 90}, {"time": 40942, "pitch": 58, "duration": 10, "velocity": 80}, {"time": 40942, "pitch": 63, "duration": 10, "velocity": 70}, {"time": 40942, "pitch": 67, "duration": 10, "velocity": 70}, {"time": 40942, "pitch": 70, "duration": 10, "velocity": 80}, {"time": 41042, "pitch": 58, "duration": 119, "velocity": 80}, {"time": 41042, "pitch": 63, "duration": 129, "velocity": 70}, {"time": 41052, "pitch": 67, "duration": 129, "velocity": 70}, {"time": 41052, "pitch": 70, "duration": 129, "velocity": 80}, {"time": 41181, "pitch": 67, "duration": 100, "velocity": 90}, {"time": 41181, "pitch": 70, "duration": 100, "velocity": 100}, {"time": 41191, "pitch": 58, "duration": 90, "velocity": 100}, {"time": 41191, "pitch": 63, "duration": 90, "velocity": 90}, {"time": 41281, "pitch": 58, "duration": 129, "velocity": 110}, {"time": 41281, "pitch": 63, "duration": 129, "velocity": 100}, {"time": 41291, "pitch": 67, "duration": 129, "velocity": 100}, {"time": 41291, "pitch": 70, "duration": 129, "velocity": 110}, {"time": 41420, "pitch": 67, "duration": 100, "velocity": 80}, {"time": 41420, "pitch": 70, "duration": 100, "velocity": 90}, {"time": 41430, "pitch": 58, "duration": 90, "velocity": 90}, {"time": 41430, "pitch": 63, "duration": 90, "velocity": 80}, {"time": 41520, "pitch": 58, "duration": 10, "velocity": 105}, {"time": 41520, "pitch": 63, "duration": 10, "velocity": 95}, {"time": 41520, "pitch": 67, "duration": 10, "velocity": 95}, {"time": 41520, "pitch": 70, "duration": 10, "velocity": 105}, {"time": 41660, "pitch": 58, "duration": 10, "velocity": 90}, {"time": 41660, "pitch": 63, "duration": 10, "velocity": 80}, {"time": 41660, "pitch": 67, "duration": 10, "velocity": 80}, {"time": 41660, "pitch": 70, "duration": 10, "velocity": 90}, {"time": 41759, "pitch": 58, "duration": 10, "velocity": 100}, {"time": 41759, "pitch": 62, "duration": 10, "velocity": 90}, {"time": 41759, "pitch": 65, "duration": 10, "velocity": 90}, {"time": 41759, "pitch": 70, "duration": 10, "velocity": 100}, {"time": 41899, "pitch": 58, "duration": 10, "velocity": 90}, {"time": 41899, "pitch": 62, "duration": 10, "velocity": 80}, {"time": 41899, "pitch": 65, "duration": 10, "velocity": 80}, {"time": 41899, "pitch": 70, "duration": 10, "velocity": 90}, {"time": 41998, "pitch": 58, "duration": 120, "velocity": 80}, {"time": 41998, "pitch": 62, "duration": 130, "velocity": 70}, {"time": 42008, "pitch": 65, "duration": 130, "velocity": 70}, {"time": 42008, "pitch": 70, "duration": 130, "velocity": 80}, {"time": 42138, "pitch": 65, "duration": 100, "velocity": 90}, {"time": 42138, "pitch": 70, "duration": 100, "velocity": 100}, {"time": 42148, "pitch": 58, "duration": 90, "velocity": 100}, {"time": 42148, "pitch": 62, "duration": 90, "velocity": 90}, {"time": 42238, "pitch": 58, "duration": 131, "velocity": 110}, {"time": 42238, "pitch": 62, "duration": 131, "velocity": 100}, {"time": 42248, "pitch": 65, "duration": 131, "velocity": 100}, {"time": 42248, "pitch": 70, "duration": 131, "velocity": 110}, {"time": 42379, "pitch": 65, "duration": 101, "velocity": 80}, {"time": 42379, "pitch": 70, "duration": 101, "velocity": 90}, {"time": 42389, "pitch": 58, "duration": 91, "velocity": 90}, {"time": 42389, "pitch": 62, "duration": 91, "velocity": 80}, {"time": 42480, "pitch": 58, "duration": 10, "velocity": 105}, {"time": 42480, "pitch": 62, "duration": 10, "velocity": 95}, {"time": 42480, "pitch": 65, "duration": 10, "velocity": 95}, {"time": 42480, "pitch": 70, "duration": 10, "velocity": 105}, {"time": 42622, "pitch": 58, "duration": 10, "velocity": 90}, {"time": 42622, "pitch": 62, "duration": 10, "velocity": 80}, {"time": 42622, "pitch": 65, "duration": 10, "velocity": 80}, {"time": 42622, "pitch": 70, "duration": 10, "velocity": 90}, {"time": 42723, "pitch": 58, "duration": 10, "velocity": 90}, {"time": 42723, "pitch": 62, "duration": 10, "velocity": 80}, {"time": 42723, "pitch": 65, "duration": 10, "velocity": 80}, {"time": 42723, "pitch": 70, "duration": 10, "velocity": 90}, {"time": 42862, "pitch": 58, "duration": 10, "velocity": 80}, {"time": 42862, "pitch": 62, "duration": 10, "velocity": 70}, {"time": 42862, "pitch": 65, "duration": 10, "velocity": 70}, {"time": 42862, "pitch": 70, "duration": 10, "velocity": 80}, {"time": 42962, "pitch": 58, "duration": 120, "velocity": 80}, {"time": 42962, "pitch": 62, "duration": 130, "velocity": 70}, {"time": 42972, "pitch": 65, "duration": 130, "velocity": 70}, {"time": 42972, "pitch": 70, "duration": 130, "velocity": 80}, {"time": 43102, "pitch": 65, "duration": 99, "velocity": 90}, {"time": 43102, "pitch": 70, "duration": 99, "velocity": 100}, {"time": 43112, "pitch": 58, "duration": 89, "velocity": 100}, {"time": 43112, "pitch": 62, "duration": 89, "velocity": 90}, {"time": 43201, "pitch": 58, "duration": 130, "velocity": 110}, {"time": 43201, "pitch": 62, "duration": 130, "velocity": 100}, {"time": 43211, "pitch": 65, "duration": 130, "velocity": 100}, {"time": 43211, "pitch": 70, "duration": 130, "velocity": 110}, {"time": 43341, "pitch": 65, "duration": 100, "velocity": 80}, {"time": 43341, "pitch": 70, "duration": 100, "velocity": 90}, {"time": 43351, "pitch": 58, "duration": 90, "velocity": 90}, {"time": 43351, "pitch": 62, "duration": 90, "velocity": 80}, {"time": 43441, "pitch": 58, "duration": 9, "velocity": 105}, {"time": 43441, "pitch": 62, "duration": 9, "velocity": 95}, {"time": 43441, "pitch": 65, "duration": 9, "velocity": 95}, {"time": 43441, "pitch": 70, "duration": 9, "velocity": 105}, {"time": 43580, "pitch": 58, "duration": 10, "velocity": 90}, {"time": 43580, "pitch": 62, "duration": 10, "velocity": 80}, {"time": 43580, "pitch": 65, "duration": 10, "velocity": 80}, {"time": 43580, "pitch": 70, "duration": 10, "velocity": 90}, {"time": 43680, "pitch": 55, "duration": 10, "velocity": 100}, {"time": 43680, "pitch": 58, "duration": 10, "velocity": 90}, {"time": 43680, "pitch": 63, "duration": 10, "velocity": 90}, {"time": 43680, "pitch": 67, "duration": 10, "velocity": 100}, {"time": 43819, "pitch": 55, "duration": 10, "velocity": 90}, {"time": 43819, "pitch": 58, "duration": 10, "velocity": 80}, {"time": 43819, "pitch": 63, "duration": 10, "velocity": 80}, {"time": 43819, "pitch": 67, "duration": 10, "velocity": 90}, {"time": 43919, "pitch": 55, "duration": 119, "velocity": 80}, {"time": 43919, "pitch": 58, "duration": 129, "velocity": 70}, {"time": 43929, "pitch": 63, "duration": 129, "velocity": 70}, {"time": 43929, "pitch": 67, "duration": 129, "velocity": 80}, {"time": 44058, "pitch": 63, "duration": 100, "velocity": 90}, {"time": 44058, "pitch": 67, "duration": 100, "velocity": 100}, {"time": 44068, "pitch": 55, "duration": 90, "velocity": 100}, {"time": 44068, "pitch": 58, "duration": 90, "velocity": 90}, {"time": 44158, "pitch": 55, "duration": 132, "velocity": 110}, {"time": 44158, "pitch": 58, "duration": 132, "velocity": 100}, {"time": 44168, "pitch": 63, "duration": 132, "velocity": 100}, {"time": 44168, "pitch": 67, "duration": 132, "velocity": 110}, {"time": 44300, "pitch": 63, "duration": 101, "velocity": 80}, {"time": 44300, "pitch": 67, "duration": 101, "velocity": 90}, {"time": 44310, "pitch": 55, "duration": 91, "velocity": 90}, {"time": 44310, "pitch": 58, "duration": 91, "velocity": 80}, {"time": 44401, "pitch": 55, "duration": 10, "velocity": 105}, {"time": 44401, "pitch": 58, "duration": 10, "velocity": 95}, {"time": 44401, "pitch": 63, "duration": 10, "velocity": 95}, {"time": 44401, "pitch": 67, "duration": 10, "velocity": 105}, {"time": 44542, "pitch": 55, "duration": 10, "velocity": 90}, {"time": 44542, "pitch": 58, "duration": 10, "velocity": 80}, {"time": 44542, "pitch": 63, "duration": 10, "velocity": 80}, {"time": 44542, "pitch": 67, "duration": 10, "velocity": 90}, {"time": 44643, "pitch": 55, "duration": 10, "velocity": 90}, {"time": 44643, "pitch": 58, "duration": 10, "velocity": 80}, {"time": 44643, "pitch": 63, "duration": 10, "velocity": 80}, {"time": 44643, "pitch": 67, "duration": 10, "velocity": 90}, {"time": 44783, "pitch": 55, "duration": 10, "velocity": 80}, {"time": 44783, "pitch": 58, "duration": 10, "velocity": 70}, {"time": 44783, "pitch": 63, "duration": 10, "velocity": 70}, {"time": 44783, "pitch": 67, "duration": 10, "velocity": 80}, {"time": 44883, "pitch": 55, "duration": 119, "velocity": 80}, {"time": 44883, "pitch": 58, "duration": 129, "velocity": 70}, {"time": 44893, "pitch": 63, "duration": 129, "velocity": 70}, {"time": 44893, "pitch": 67, "duration": 129, "velocity": 80}, {"time": 45022, "pitch": 63, "duration": 100, "velocity": 90}, {"time": 45022, "pitch": 67, "duration": 100, "velocity": 100}, {"time": 45032, "pitch": 55, "duration": 90, "velocity": 100}, {"time": 45032, "pitch": 58, "duration": 90, "velocity": 90}, {"time": 45122, "pitch": 55, "duration": 129, "velocity": 110}, {"time": 45122, "pitch": 58, "duration": 129, "velocity": 100}, {"time": 45132, "pitch": 63, "duration": 129, "velocity": 100}, {"time": 45132, "pitch": 67, "duration": 129, "velocity": 110}, {"time": 45261, "pitch": 63, "duration": 100, "velocity": 80}, {"time": 45261, "pitch": 67, "duration": 100, "velocity": 90}, {"time": 45271, "pitch": 55, "duration": 90, "velocity": 90}, {"time": 45271, "pitch": 58, "duration": 90, "velocity": 80}, {"time": 45361, "pitch": 55, "duration": 10, "velocity": 105}, {"time": 45361, "pitch": 58, "duration": 10, "velocity": 95}, {"time": 45361, "pitch": 63, "duration": 10, "velocity": 95}, {"time": 45361, "pitch": 67, "duration": 10, "velocity": 105}, {"time": 45500, "pitch": 55, "duration": 10, "velocity": 90}, {"time": 45500, "pitch": 58, "duration": 10, "velocity": 80}, {"time": 45500, "pitch": 63, "duration": 10, "velocity": 80}, {"time": 45500, "pitch": 67, "duration": 10, "velocity": 90}, {"time": 45600, "pitch": 56, "duration": 389, "velocity": 105}, {"time": 45600, "pitch": 60, "duration": 369, "velocity": 105}, {"time": 45600, "pitch": 63, "duration": 379, "velocity": 105}, {"time": 45600, "pitch": 67, "duration": 369, "velocity": 105}, {"time": 46079, "pitch": 55, "duration": 358, "velocity": 105}, {"time": 46079, "pitch": 58, "duration": 378, "velocity": 105}, {"time": 46079, "pitch": 62, "duration": 358, "velocity": 105}, {"time": 46079, "pitch": 65, "duration": 348, "velocity": 105}, {"time": 46557, "pitch": 53, "duration": 374, "velocity": 105}, {"time": 46557, "pitch": 56, "duration": 384, "velocity": 105}, {"time": 46557, "pitch": 60, "duration": 374, "velocity": 105}, {"time": 46557, "pitch": 63, "duration": 394, "velocity": 105}, {"time": 47281, "pitch": 57, "duration": 220, "velocity": 105}, {"time": 47281, "pitch": 60, "duration": 220, "velocity": 105}, {"time": 47281, "pitch": 65, "duration": 220, "velocity": 105}, {"time": 47521, "pitch": 58, "duration": 10, "velocity": 100}, {"time": 47521, "pitch": 62, "duration": 10, "velocity": 90}, {"time": 47521, "pitch": 65, "duration": 10, "velocity": 90}, {"time": 47521, "pitch": 70, "duration": 10, "velocity": 100}, {"time": 47660, "pitch": 58, "duration": 10, "velocity": 90}, {"time": 47660, "pitch": 62, "duration": 10, "velocity": 80}, {"time": 47660, "pitch": 65, "duration": 10, "velocity": 80}, {"time": 47660, "pitch": 70, "duration": 10, "velocity": 90}, {"time": 47760, "pitch": 58, "duration": 119, "velocity": 80}, {"time": 47760, "pitch": 62, "duration": 129, "velocity": 70}, {"time": 47770, "pitch": 65, "duration": 129, "velocity": 70}, {"time": 47770, "pitch": 70, "duration": 129, "velocity": 80}, {"time": 47899, "pitch": 65, "duration": 100, "velocity": 90}, {"time": 47899, "pitch": 70, "duration": 100, "velocity": 100}, {"time": 47909, "pitch": 58, "duration": 90, "velocity": 100}, {"time": 47909, "pitch": 62, "duration": 90, "velocity": 90}, {"time": 47999, "pitch": 58, "duration": 130, "velocity": 110}, {"time": 47999, "pitch": 62, "duration": 130, "velocity": 100}, {"time": 48009, "pitch": 65, "duration": 129, "velocity": 100}, {"time": 48009, "pitch": 70, "duration": 129, "velocity": 110}, {"time": 48138, "pitch": 65, "duration": 100, "velocity": 80}, {"time": 48138, "pitch": 70, "duration": 100, "velocity": 90}, {"time": 48148, "pitch": 58, "duration": 90, "velocity": 90}, {"time": 48148, "pitch": 62, "duration": 90, "velocity": 80}, {"time": 48238, "pitch": 58, "duration": 10, "velocity": 105}, {"time": 48238, "pitch": 62, "duration": 10, "velocity": 95}, {"time": 48238, "pitch": 65, "duration": 10, "velocity": 95}, {"time": 48238, "pitch": 70, "duration": 10, "velocity": 105}, {"time": 48378, "pitch": 58, "duration": 10, "velocity": 90}, {"time": 48378, "pitch": 62, "duration": 10, "velocity": 80}, {"time": 48378, "pitch": 65, "duration": 10, "velocity": 80}, {"time": 48378, "pitch": 70, "duration": 10, "velocity": 90}, {"time": 48477, "pitch": 57, "duration": 10, "velocity": 90}, {"time": 48477, "pitch": 60, "duration": 10, "velocity": 80}, {"time": 48477, "pitch": 65, "duration": 10, "velocity": 80}, {"time": 48477, "pitch": 69, "duration": 10, "velocity": 90}, {"time": 48619, "pitch": 57, "duration": 10, "velocity": 80}, {"time": 48619, "pitch": 60, "duration": 10, "velocity": 70}, {"time": 48619, "pitch": 65, "duration": 10, "velocity": 70}, {"time": 48619, "pitch": 69, "duration": 10, "velocity": 80}, {"time": 48720, "pitch": 57, "duration": 121, "velocity": 80}, {"time": 48720, "pitch": 60, "duration": 131, "velocity": 70}, {"time": 48730, "pitch": 65, "duration": 132, "velocity": 70}, {"time": 48730, "pitch": 69, "duration": 132, "velocity": 80}, {"time": 48862, "pitch": 65, "duration": 101, "velocity": 90}, {"time": 48862, "pitch": 69, "duration": 101, "velocity": 100}, {"time": 48872, "pitch": 57, "duration": 91, "velocity": 100}, {"time": 48872, "pitch": 60, "duration": 91, "velocity": 90}, {"time": 48963, "pitch": 57, "duration": 129, "velocity": 110}, {"time": 48963, "pitch": 60, "duration": 129, "velocity": 100}, {"time": 48973, "pitch": 65, "duration": 129, "velocity": 100}, {"time": 48973, "pitch": 69, "duration": 129, "velocity": 110}, {"time": 49102, "pitch": 65, "duration": 100, "velocity": 80}, {"time": 49102, "pitch": 69, "duration": 100, "velocity": 90}, {"time": 49112, "pitch": 57, "duration": 90, "velocity": 90}, {"time": 49112, "pitch": 60, "duration": 90, "velocity": 80}, {"time": 49202, "pitch": 57, "duration": 10, "velocity": 105}, {"time": 49202, "pitch": 60, "duration": 10, "velocity": 95}, {"time": 49202, "pitch": 65, "duration": 10, "velocity": 95}, {"time": 49202, "pitch": 69, "duration": 10, "velocity": 105}, {"time": 49341, "pitch": 57, "duration": 10, "velocity": 90}, {"time": 49341, "pitch": 60, "duration": 10, "velocity": 80}, {"time": 49341, "pitch": 65, "duration": 10, "velocity": 80}, {"time": 49341, "pitch": 69, "duration": 10, "velocity": 90}, {"time": 49441, "pitch": 55, "duration": 10, "velocity": 100}, {"time": 49441, "pitch": 58, "duration": 10, "velocity": 90}, {"time": 49441, "pitch": 62, "duration": 10, "velocity": 90}, {"time": 49441, "pitch": 67, "duration": 10, "velocity": 100}, {"time": 49581, "pitch": 55, "duration": 9, "velocity": 90}, {"time": 49581, "pitch": 58, "duration": 9, "velocity": 80}, {"time": 49581, "pitch": 62, "duration": 9, "velocity": 80}, {"time": 49581, "pitch": 67, "duration": 9, "velocity": 90}, {"time": 49680, "pitch": 55, "duration": 120, "velocity": 80}, {"time": 49680, "pitch": 58, "duration": 130, "velocity": 70}, {"time": 49690, "pitch": 62, "duration": 130, "velocity": 70}, {"time": 49690, "pitch": 67, "duration": 130, "velocity": 80}, {"time": 49820, "pitch": 62, "duration": 99, "velocity": 90}, {"time": 49820, "pitch": 67, "duration": 99, "velocity": 100}, {"time": 49830, "pitch": 55, "duration": 89, "velocity": 100}, {"time": 49830, "pitch": 58, "duration": 89, "velocity": 90}, {"time": 49919, "pitch": 55, "duration": 130, "velocity": 110}, {"time": 49919, "pitch": 58, "duration": 130, "velocity": 100}, {"time": 49929, "pitch": 62, "duration": 130, "velocity": 100}, {"time": 49929, "pitch": 67, "duration": 130, "velocity": 110}, {"time": 50059, "pitch": 62, "duration": 100, "velocity": 80}, {"time": 50059, "pitch": 67, "duration": 100, "velocity": 90}, {"time": 50069, "pitch": 55, "duration": 90, "velocity": 90}, {"time": 50069, "pitch": 58, "duration": 90, "velocity": 80}, {"time": 50159, "pitch": 55, "duration": 10, "velocity": 105}, {"time": 50159, "pitch": 58, "duration": 10, "velocity": 95}, {"time": 50159, "pitch": 62, "duration": 10, "velocity": 95}, {"time": 50159, "pitch": 67, "duration": 10, "velocity": 105}, {"time": 50298, "pitch": 55, "duration": 10, "velocity": 90}, {"time": 50298, "pitch": 58, "duration": 10, "velocity": 80}, {"time": 50298, "pitch": 62, "duration": 10, "velocity": 80}, {"time": 50298, "pitch": 67, "duration": 10, "velocity": 90}, {"time": 50398, "pitch": 53, "duration": 10, "velocity": 90}, {"time": 50398, "pitch": 58, "duration": 10, "velocity": 80}, {"time": 50398, "pitch": 62, "duration": 10, "velocity": 80}, {"time": 50398, "pitch": 68, "duration": 10, "velocity": 90}, {"time": 50539, "pitch": 53, "duration": 10, "velocity": 80}, {"time": 50539, "pitch": 58, "duration": 10, "velocity": 70}, {"time": 50539, "pitch": 62, "duration": 10, "velocity": 70}, {"time": 50539, "pitch": 68, "duration": 10, "velocity": 80}, {"time": 50640, "pitch": 53, "duration": 122, "velocity": 80}, {"time": 50640, "pitch": 58, "duration": 132, "velocity": 70}, {"time": 50651, "pitch": 62, "duration": 131, "velocity": 70}, {"time": 50651, "pitch": 68, "duration": 131, "velocity": 80}, {"time": 50782, "pitch": 62, "duration": 101, "velocity": 90}, {"time": 50782, "pitch": 68, "duration": 101, "velocity": 100}, {"time": 50792, "pitch": 53, "duration": 91, "velocity": 100}, {"time": 50792, "pitch": 58, "duration": 91, "velocity": 90}, {"time": 50883, "pitch": 53, "duration": 130, "velocity": 110}, {"time": 50883, "pitch": 58, "duration": 130, "velocity": 100}, {"time": 50893, "pitch": 62, "duration": 130, "velocity": 100}, {"time": 50893, "pitch": 68, "duration": 130, "velocity": 110}, {"time": 51023, "pitch": 62, "duration": 99, "velocity": 80}, {"time": 51023, "pitch": 68, "duration": 99, "velocity": 90}, {"time": 51033, "pitch": 53, "duration": 89, "velocity": 90}, {"time": 51033, "pitch": 58, "duration": 89, "velocity": 80}, {"time": 51122, "pitch": 53, "duration": 10, "velocity": 105}, {"time": 51122, "pitch": 58, "duration": 10, "velocity": 95}, {"time": 51122, "pitch": 62, "duration": 10, "velocity": 95}, {"time": 51122, "pitch": 68, "duration": 10, "velocity": 105}, {"time": 51262, "pitch": 53, "duration": 10, "velocity": 90}, {"time": 51262, "pitch": 58, "duration": 10, "velocity": 80}, {"time": 51262, "pitch": 62, "duration": 10, "velocity": 80}, {"time": 51262, "pitch": 68, "duration": 10, "velocity": 90}, {"time": 51361, "pitch": 58, "duration": 10, "velocity": 100}, {"time": 51361, "pitch": 63, "duration": 10, "velocity": 90}, {"time": 51361, "pitch": 67, "duration": 10, "velocity": 90}, {"time": 51361, "pitch": 70, "duration": 10, "velocity": 100}, {"time": 51501, "pitch": 58, "duration": 10, "velocity": 90}, {"time": 51501, "pitch": 63, "duration": 10, "velocity": 80}, {"time": 51501, "pitch": 67, "duration": 10, "velocity": 80}, {"time": 51501, "pitch": 70, "duration": 10, "velocity": 90}, {"time": 51601, "pitch": 58, "duration": 119, "velocity": 80}, {"time": 51601, "pitch": 63, "duration": 129, "velocity": 70}, {"time": 51611, "pitch": 67, "duration": 129, "velocity": 70}, {"time": 51611, "pitch": 70, "duration": 129, "velocity": 80}, {"time": 51740, "pitch": 67, "duration": 100, "velocity": 90}, {"time": 51740, "pitch": 70, "duration": 100, "velocity": 100}, {"time": 51750, "pitch": 58, "duration": 90, "velocity": 100}, {"time": 51750, "pitch": 63, "duration": 90, "velocity": 90}, {"time": 51840, "pitch": 58, "duration": 129, "velocity": 110}, {"time": 51840, "pitch": 63, "duration": 129, "velocity": 100}, {"time": 51850, "pitch": 67, "duration": 129, "velocity": 100}, {"time": 51850, "pitch": 70, "duration": 129, "velocity": 110}, {"time": 51979, "pitch": 67, "duration": 100, "velocity": 80}, {"time": 51979, "pitch": 70, "duration": 100, "velocity": 90}, {"time": 51989, "pitch": 58, "duration": 90, "velocity": 90}, {"time": 51989, "pitch": 63, "duration": 90, "velocity": 80}, {"time": 52079, "pitch": 58, "duration": 10, "velocity": 105}, {"time": 52079, "pitch": 63, "duration": 10, "velocity": 95}, {"time": 52079, "pitch": 67, "duration": 10, "velocity": 95}, {"time": 52079, "pitch": 70, "duration": 10, "velocity": 105}, {"time": 52219, "pitch": 58, "duration": 9, "velocity": 90}, {"time": 52219, "pitch": 63, "duration": 9, "velocity": 80}, {"time": 52219, "pitch": 67, "duration": 9, "velocity": 80}, {"time": 52219, "pitch": 70, "duration": 9, "velocity": 90}, {"time": 52318, "pitch": 58, "duration": 10, "velocity": 100}, {"time": 52318, "pitch": 62, "duration": 10, "velocity": 90}, {"time": 52318, "pitch": 65, "duration": 10, "velocity": 90}, {"time": 52318, "pitch": 70, "duration": 10, "velocity": 100}, {"time": 52458, "pitch": 58, "duration": 10, "velocity": 90}, {"time": 52458, "pitch": 62, "duration": 10, "velocity": 80}, {"time": 52458, "pitch": 65, "duration": 10, "velocity": 80}, {"time": 52458, "pitch": 70, "duration": 10, "velocity": 90}, {"time": 52557, "pitch": 58, "duration": 120, "velocity": 80}, {"time": 52557, "pitch": 62, "duration": 130, "velocity": 70}, {"time": 52567, "pitch": 65, "duration": 130, "velocity": 70}, {"time": 52567, "pitch": 70, "duration": 130, "velocity": 80}, {"time": 52697, "pitch": 65, "duration": 100, "velocity": 90}, {"time": 52697, "pitch": 70, "duration": 100, "velocity": 100}, {"time": 52707, "pitch": 58, "duration": 90, "velocity": 100}, {"time": 52707, "pitch": 62, "duration": 90, "velocity": 90}, {"time": 52797, "pitch": 58, "duration": 131, "velocity": 110}, {"time": 52797, "pitch": 62, "duration": 131, "velocity": 100}, {"time": 52807, "pitch": 65, "duration": 131, "velocity": 100}, {"time": 52807, "pitch": 70, "duration": 131, "velocity": 110}, {"time": 52938, "pitch": 65, "duration": 101, "velocity": 80}, {"time": 52938, "pitch": 70, "duration": 101, "velocity": 90}, {"time": 52948, "pitch": 58, "duration": 91, "velocity": 90}, {"time": 52948, "pitch": 62, "duration": 91, "velocity": 80}, {"time": 53039, "pitch": 58, "duration": 10, "velocity": 105}, {"time": 53039, "pitch": 62, "duration": 10, "velocity": 95}, {"time": 53039, "pitch": 65, "duration": 10, "velocity": 95}, {"time": 53039, "pitch": 70, "duration": 10, "velocity": 105}, {"time": 53181, "pitch": 58, "duration": 10, "velocity": 90}, {"time": 53181, "pitch": 62, "duration": 10, "velocity": 80}, {"time": 53181, "pitch": 65, "duration": 10, "velocity": 80}, {"time": 53181, "pitch": 70, "duration": 10, "velocity": 90}, {"time": 53282, "pitch": 55, "duration": 10, "velocity": 100}, {"time": 53282, "pitch": 58, "duration": 10, "velocity": 90}, {"time": 53282, "pitch": 63, "duration": 10, "velocity": 90}, {"time": 53282, "pitch": 67, "duration": 10, "velocity": 100}, {"time": 53421, "pitch": 55, "duration": 10, "velocity": 90}, {"time": 53421, "pitch": 58, "duration": 10, "velocity": 80}, {"time": 53421, "pitch": 63, "duration": 10, "velocity": 80}, {"time": 53421, "pitch": 67, "duration": 10, "velocity": 90}, {"time": 53521, "pitch": 55, "duration": 120, "velocity": 80}, {"time": 53521, "pitch": 58, "duration": 130, "velocity": 70}, {"time": 53531, "pitch": 63, "duration": 130, "velocity": 70}, {"time": 53531, "pitch": 67, "duration": 130, "velocity": 80}, {"time": 53661, "pitch": 63, "duration": 99, "velocity": 90}, {"time": 53661, "pitch": 67, "duration": 99, "velocity": 100}, {"time": 53671, "pitch": 55, "duration": 89, "velocity": 100}, {"time": 53671, "pitch": 58, "duration": 89, "velocity": 90}, {"time": 53760, "pitch": 55, "duration": 130, "velocity": 110}, {"time": 53760, "pitch": 58, "duration": 130, "velocity": 100}, {"time": 53770, "pitch": 63, "duration": 130, "velocity": 100}, {"time": 53770, "pitch": 67, "duration": 130, "velocity": 110}, {"time": 53900, "pitch": 63, "duration": 99, "velocity": 80}, {"time": 53900, "pitch": 67, "duration": 99, "velocity": 90}, {"time": 53910, "pitch": 55, "duration": 89, "velocity": 90}, {"time": 53910, "pitch": 58, "duration": 89, "velocity": 80}, {"time": 53999, "pitch": 55, "duration": 10, "velocity": 105}, {"time": 53999, "pitch": 58, "duration": 10, "velocity": 95}, {"time": 53999, "pitch": 63, "duration": 10, "velocity": 95}, {"time": 53999, "pitch": 67, "duration": 10, "velocity": 105}, {"time": 54139, "pitch": 55, "duration": 10, "velocity": 90}, {"time": 54139, "pitch": 58, "duration": 10, "velocity": 80}, {"time": 54139, "pitch": 63, "duration": 10, "velocity": 80}, {"time": 54139, "pitch": 67, "duration": 10, "velocity": 90}, {"time": 54239, "pitch": 65, "duration": 139, "velocity": 100}, {"time": 54239, "pitch": 77, "duration": 139, "velocity": 110}, {"time": 54378, "pitch": 65, "duration": 100, "velocity": 92}, {"time": 54378, "pitch": 77, "duration": 100, "velocity": 100}, {"time": 54478, "pitch": 65, "duration": 10, "velocity": 100}, {"time": 54478, "pitch": 77, "duration": 10, "velocity": 110}, {"time": 54617, "pitch": 65, "duration": 100, "velocity": 92}, {"time": 54617, "pitch": 77, "duration": 100, "velocity": 100}, {"time": 54717, "pitch": 65, "duration": 10, "velocity": 100}, {"time": 54717, "pitch": 77, "duration": 10, "velocity": 110}, {"time": 54859, "pitch": 65, "duration": 101, "velocity": 92}, {"time": 54859, "pitch": 77, "duration": 101, "velocity": 100}, {"time": 54960, "pitch": 65, "duration": 242, "velocity": 100}, {"time": 54960, "pitch": 77, "duration": 242, "velocity": 110}, {"time": 55202, "pitch": 58, "duration": 10, "velocity": 100}, {"time": 55202, "pitch": 62, "duration": 10, "velocity": 90}, {"time": 55202, "pitch": 65, "duration": 10, "velocity": 90}, {"time": 55202, "pitch": 70, "duration": 10, "velocity": 100}, {"time": 55342, "pitch": 58, "duration": 10, "velocity": 90}, {"time": 55342, "pitch": 62, "duration": 10, "velocity": 80}, {"time": 55342, "pitch": 65, "duration": 10, "velocity": 80}, {"time": 55342, "pitch": 70, "duration": 10, "velocity": 90}, {"time": 55441, "pitch": 58, "duration": 120, "velocity": 80}, {"time": 55441, "pitch": 62, "duration": 130, "velocity": 70}, {"time": 55451, "pitch": 65, "duration": 130, "velocity": 70}, {"time": 55451, "pitch": 70, "duration": 130, "velocity": 80}, {"time": 55581, "pitch": 65, "duration": 100, "velocity": 90}, {"time": 55581, "pitch": 70, "duration": 100, "velocity": 100}, {"time": 55591, "pitch": 58, "duration": 90, "velocity": 100}, {"time": 55591, "pitch": 62, "duration": 90, "velocity": 90}, {"time": 55681, "pitch": 58, "duration": 129, "velocity": 110}, {"time": 55681, "pitch": 62, "duration": 129, "velocity": 100}, {"time": 55691, "pitch": 65, "duration": 129, "velocity": 100}, {"time": 55691, "pitch": 70, "duration": 129, "velocity": 110}, {"time": 55820, "pitch": 65, "duration": 100, "velocity": 80}, {"time": 55820, "pitch": 70, "duration": 100, "velocity": 90}, {"time": 55830, "pitch": 58, "duration": 90, "velocity": 90}, {"time": 55830, "pitch": 62, "duration": 90, "velocity": 80}, {"time": 55920, "pitch": 58, "duration": 10, "velocity": 105}, {"time": 55920, "pitch": 62, "duration": 10, "velocity": 95}, {"time": 55920, "pitch": 65, "duration": 10, "velocity": 95}, {"time": 55920, "pitch": 70, "duration": 10, "velocity": 105}, {"time": 56059, "pitch": 58, "duration": 10, "velocity": 90}, {"time": 56059, "pitch": 62, "duration": 10, "velocity": 80}, {"time": 56059, "pitch": 65, "duration": 10, "velocity": 80}, {"time": 56059, "pitch": 70, "duration": 10, "velocity": 90}, {"time": 56159, "pitch": 57, "duration": 10, "velocity": 90}, {"time": 56159, "pitch": 60, "duration": 10, "velocity": 80}, {"time": 56159, "pitch": 65, "duration": 10, "velocity": 80}, {"time": 56159, "pitch": 69, "duration": 10, "velocity": 90}, {"time": 56299, "pitch": 57, "duration": 10, "velocity": 80}, {"time": 56299, "pitch": 60, "duration": 10, "velocity": 70}, {"time": 56299, "pitch": 65, "duration": 10, "velocity": 70}, {"time": 56299, "pitch": 69, "duration": 10, "velocity": 80}, {"time": 56398, "pitch": 57, "duration": 120, "velocity": 80}, {"time": 56398, "pitch": 60, "duration": 130, "velocity": 70}, {"time": 56408, "pitch": 65, "duration": 130, "velocity": 70}, {"time": 56408, "pitch": 69, "duration": 130, "velocity": 80}, {"time": 56538, "pitch": 65, "duration": 99, "velocity": 90}, {"time": 56538, "pitch": 69, "duration": 99, "velocity": 100}, {"time": 56548, "pitch": 57, "duration": 89, "velocity": 100}, {"time": 56548, "pitch": 60, "duration": 89, "velocity": 90}, {"time": 56637, "pitch": 57, "duration": 132, "velocity": 110}, {"time": 56637, "pitch": 60, "duration": 132, "velocity": 100}, {"time": 56648, "pitch": 65, "duration": 131, "velocity": 100}, {"time": 56648, "pitch": 69, "duration": 131, "velocity": 110}, {"time": 56779, "pitch": 65, "duration": 101, "velocity": 80}, {"time": 56779, "pitch": 69, "duration": 101, "velocity": 90}, {"time": 56789, "pitch": 57, "duration": 91, "velocity": 90}, {"time": 56789, "pitch": 60, "duration": 91, "velocity": 80}, {"time": 56880, "pitch": 57, "duration": 10, "velocity": 105}, {"time": 56880, "pitch": 60, "duration": 10, "velocity": 95}, {"time": 56880, "pitch": 65, "duration": 10, "velocity": 95}, {"time": 56880, "pitch": 69, "duration": 10, "velocity": 105}, {"time": 57022, "pitch": 57, "duration": 10, "velocity": 90}, {"time": 57022, "pitch": 60, "duration": 10, "velocity": 80}, {"time": 57022, "pitch": 65, "duration": 10, "velocity": 80}, {"time": 57022, "pitch": 69, "duration": 10, "velocity": 90}, {"time": 57123, "pitch": 55, "duration": 10, "velocity": 100}, {"time": 57123, "pitch": 58, "duration": 10, "velocity": 90}, {"time": 57123, "pitch": 62, "duration": 10, "velocity": 90}, {"time": 57123, "pitch": 67, "duration": 10, "velocity": 100}, {"time": 57262, "pitch": 55, "duration": 10, "velocity": 90}, {"time": 57262, "pitch": 58, "duration": 10, "velocity": 80}, {"time": 57262, "pitch": 62, "duration": 10, "velocity": 80}, {"time": 57262, "pitch": 67, "duration": 10, "velocity": 90}, {"time": 57362, "pitch": 55, "duration": 119, "velocity": 80}, {"time": 57362, "pitch": 58, "duration": 129, "velocity": 70}, {"time": 57372, "pitch": 62, "duration": 129, "velocity": 70}, {"time": 57372, "pitch": 67, "duration": 129, "velocity": 80}, {"time": 57501, "pitch": 62, "duration": 100, "velocity": 90}, {"time": 57501, "pitch": 67, "duration": 100, "velocity": 100}, {"time": 57511, "pitch": 55, "duration": 90, "velocity": 100}, {"time": 57511, "pitch": 58, "duration": 90, "velocity": 90}, {"time": 57601, "pitch": 55, "duration": 130, "velocity": 110}, {"time": 57601, "pitch": 58, "duration": 130, "velocity": 100}, {"time": 57611, "pitch": 62, "duration": 130, "velocity": 100}, {"time": 57611, "pitch": 67, "duration": 130, "velocity": 110}, {"time": 57741, "pitch": 62, "duration": 99, "velocity": 80}, {"time": 57741, "pitch": 67, "duration": 99, "velocity": 90}, {"time": 57751, "pitch": 55, "duration": 89, "velocity": 90}, {"time": 57751, "pitch": 58, "duration": 89, "velocity": 80}, {"time": 57840, "pitch": 55, "duration": 10, "velocity": 105}, {"time": 57840, "pitch": 58, "duration": 10, "velocity": 95}, {"time": 57840, "pitch": 62, "duration": 10, "velocity": 95}, {"time": 57840, "pitch": 67, "duration": 10, "velocity": 105}, {"time": 57980, "pitch": 55, "duration": 10, "velocity": 90}, {"time": 57980, "pitch": 58, "duration": 10, "velocity": 80}, {"time": 57980, "pitch": 62, "duration": 10, "velocity": 80}, {"time": 57980, "pitch": 67, "duration": 10, "velocity": 90}, {"time": 58079, "pitch": 53, "duration": 10, "velocity": 90}, {"time": 58079, "pitch": 58, "duration": 10, "velocity": 80}, {"time": 58079, "pitch": 62, "duration": 10, "velocity": 80}, {"time": 58079, "pitch": 68, "duration": 10, "velocity": 90}, {"time": 58219, "pitch": 53, "duration": 10, "velocity": 80}, {"time": 58219, "pitch": 58, "duration": 10, "velocity": 70}, {"time": 58219, "pitch": 62, "duration": 10, "velocity": 70}, {"time": 58219, "pitch": 68, "duration": 10, "velocity": 80}, {"time": 58319, "pitch": 53, "duration": 119, "velocity": 80}, {"time": 58319, "pitch": 58, "duration": 129, "velocity": 70}, {"time": 58329, "pitch": 62, "duration": 129, "velocity": 70}, {"time": 58329, "pitch": 68, "duration": 129, "velocity": 80}, {"time": 58458, "pitch": 62, "duration": 100, "velocity": 90}, {"time": 58458, "pitch": 68, "duration": 100, "velocity": 100}, {"time": 58468, "pitch": 53, "duration": 90, "velocity": 100}, {"time": 58468, "pitch": 58, "duration": 90, "velocity": 90}, {"time": 58558, "pitch": 53, "duration": 131, "velocity": 110}, {"time": 58558, "pitch": 58, "duration": 131, "velocity": 100}, {"time": 58568, "pitch": 62, "duration": 131, "velocity": 100}, {"time": 58568, "pitch": 68, "duration": 131, "velocity": 110}, {"time": 58699, "pitch": 62, "duration": 101, "velocity": 80}, {"time": 58699, "pitch": 68, "duration": 101, "velocity": 90}, {"time": 58709, "pitch": 53, "duration": 91, "velocity": 90}, {"time": 58709, "pitch": 58, "duration": 91, "velocity": 80}, {"time": 58800, "pitch": 53, "duration": 11, "velocity": 105}, {"time": 58800, "pitch": 58, "duration": 11, "velocity": 95}, {"time": 58800, "pitch": 62, "duration": 11, "velocity": 95}, {"time": 58800, "pitch": 68, "duration": 11, "velocity": 105}, {"time": 58942, "pitch": 53, "duration": 10, "velocity": 90}, {"time": 58942, "pitch": 58, "duration": 10, "velocity": 80}, {"time": 58942, "pitch": 62, "duration": 10, "velocity": 80}, {"time": 58942, "pitch": 68, "duration": 10, "velocity": 90}, {"time": 59043, "pitch": 58, "duration": 10, "velocity": 100}, {"time": 59043, "pitch": 63, "duration": 10, "velocity": 90}, {"time": 59043, "pitch": 67, "duration": 10, "velocity": 90}, {"time": 59043, "pitch": 70, "duration": 10, "velocity": 100}, {"time": 59183, "pitch": 58, "duration": 10, "velocity": 90}, {"time": 59183, "pitch": 63, "duration": 10, "velocity": 80}, {"time": 59183, "pitch": 67, "duration": 10, "velocity": 80}, {"time": 59183, "pitch": 70, "duration": 10, "velocity": 90}, {"time": 59282, "pitch": 58, "duration": 120, "velocity": 80}, {"time": 59282, "pitch": 63, "duration": 130, "velocity": 70}, {"time": 59292, "pitch": 67, "duration": 130, "velocity": 70}, {"time": 59292, "pitch": 70, "duration": 130, "velocity": 80}, {"time": 59422, "pitch": 67, "duration": 99, "velocity": 90}, {"time": 59422, "pitch": 70, "duration": 99, "velocity": 100}, {"time": 59432, "pitch": 58, "duration": 89, "velocity": 100}, {"time": 59432, "pitch": 63, "duration": 89, "velocity": 90}, {"time": 59521, "pitch": 58, "duration": 130, "velocity": 110}, {"time": 59521, "pitch": 63, "duration": 130, "velocity": 100}, {"time": 59531, "pitch": 67, "duration": 130, "velocity": 100}, {"time": 59531, "pitch": 70, "duration": 130, "velocity": 110}, {"time": 59661, "pitch": 67, "duration": 100, "velocity": 80}, {"time": 59661, "pitch": 70, "duration": 100, "velocity": 90}, {"time": 59671, "pitch": 58, "duration": 90, "velocity": 90}, {"time": 59671, "pitch": 63, "duration": 90, "velocity": 80}, {"time": 59761, "pitch": 58, "duration": 10, "velocity": 105}, {"time": 59761, "pitch": 63, "duration": 10, "velocity": 95}, {"time": 59761, "pitch": 67, "duration": 10, "velocity": 95}, {"time": 59761, "pitch": 70, "duration": 10, "velocity": 105}, {"time": 59900, "pitch": 58, "duration": 10, "velocity": 90}, {"time": 59900, "pitch": 63, "duration": 10, "velocity": 80}, {"time": 59900, "pitch": 67, "duration": 10, "velocity": 80}, {"time": 59900, "pitch": 70, "duration": 10, "velocity": 90}, {"time": 60000, "pitch": 58, "duration": 10, "velocity": 100}, {"time": 60000, "pitch": 62, "duration": 10, "velocity": 90}, {"time": 60000, "pitch": 65, "duration": 10, "velocity": 90}, {"time": 60000, "pitch": 70, "duration": 10, "velocity": 100}, {"time": 60139, "pitch": 58, "duration": 10, "velocity": 90}, {"time": 60139, "pitch": 62, "duration": 10, "velocity": 80}, {"time": 60139, "pitch": 65, "duration": 10, "velocity": 80}, {"time": 60139, "pitch": 70, "duration": 10, "velocity": 90}, {"time": 60239, "pitch": 58, "duration": 120, "velocity": 80}, {"time": 60239, "pitch": 62, "duration": 130, "velocity": 70}, {"time": 60249, "pitch": 65, "duration": 130, "velocity": 70}, {"time": 60249, "pitch": 70, "duration": 130, "velocity": 80}, {"time": 60379, "pitch": 65, "duration": 99, "velocity": 90}, {"time": 60379, "pitch": 70, "duration": 99, "velocity": 100}, {"time": 60389, "pitch": 58, "duration": 89, "velocity": 100}, {"time": 60389, "pitch": 62, "duration": 89, "velocity": 90}, {"time": 60478, "pitch": 58, "duration": 130, "velocity": 110}, {"time": 60478, "pitch": 62, "duration": 130, "velocity": 100}, {"time": 60488, "pitch": 65, "duration": 130, "velocity": 100}, {"time": 60488, "pitch": 70, "duration": 130, "velocity": 110}, {"time": 60618, "pitch": 65, "duration": 99, "velocity": 80}, {"time": 60618, "pitch": 70, "duration": 99, "velocity": 90}, {"time": 60628, "pitch": 58, "duration": 89, "velocity": 90}, {"time": 60628, "pitch": 62, "duration": 89, "velocity": 80}, {"time": 60717, "pitch": 58, "duration": 10, "velocity": 105}, {"time": 60717, "pitch": 62, "duration": 10, "velocity": 95}, {"time": 60717, "pitch": 65, "duration": 10, "velocity": 95}, {"time": 60717, "pitch": 70, "duration": 10, "velocity": 105}, {"time": 60857, "pitch": 58, "duration": 10, "velocity": 90}, {"time": 60857, "pitch": 62, "duration": 10, "velocity": 80}, {"time": 60857, "pitch": 65, "duration": 10, "velocity": 80}, {"time": 60857, "pitch": 70, "duration": 10, "velocity": 90}, {"time": 60957, "pitch": 55, "duration": 10, "velocity": 100}, {"time": 60957, "pitch": 58, "duration": 10, "velocity": 90}, {"time": 60957, "pitch": 63, "duration": 10, "velocity": 90}, {"time": 60957, "pitch": 67, "duration": 10, "velocity": 100}, {"time": 61098, "pitch": 55, "duration": 10, "velocity": 90}, {"time": 61098, "pitch": 58, "duration": 10, "velocity": 80}, {"time": 61098, "pitch": 63, "duration": 10, "velocity": 80}, {"time": 61098, "pitch": 67, "duration": 10, "velocity": 90}, {"time": 61199, "pitch": 55, "duration": 122, "velocity": 80}, {"time": 61199, "pitch": 58, "duration": 132, "velocity": 70}, {"time": 61209, "pitch": 63, "duration": 132, "velocity": 70}, {"time": 61209, "pitch": 67, "duration": 132, "velocity": 80}, {"time": 61341, "pitch": 63, "duration": 101, "velocity": 90}, {"time": 61341, "pitch": 67, "duration": 101, "velocity": 100}, {"time": 61351, "pitch": 55, "duration": 91, "velocity": 100}, {"time": 61351, "pitch": 58, "duration": 91, "velocity": 90}, {"time": 61442, "pitch": 55, "duration": 129, "velocity": 110}, {"time": 61442, "pitch": 58, "duration": 129, "velocity": 100}, {"time": 61452, "pitch": 63, "duration": 129, "velocity": 100}, {"time": 61452, "pitch": 67, "duration": 129, "velocity": 110}, {"time": 61581, "pitch": 63, "duration": 100, "velocity": 80}, {"time": 61581, "pitch": 67, "duration": 100, "velocity": 90}, {"time": 61591, "pitch": 55, "duration": 90, "velocity": 90}, {"time": 61591, "pitch": 58, "duration": 90, "velocity": 80}, {"time": 61681, "pitch": 55, "duration": 10, "velocity": 105}, {"time": 61681, "pitch": 58, "duration": 10, "velocity": 95}, {"time": 61681, "pitch": 63, "duration": 10, "velocity": 95}, {"time": 61681, "pitch": 67, "duration": 10, "velocity": 105}, {"time": 61821, "pitch": 55, "duration": 10, "velocity": 90}, {"time": 61821, "pitch": 58, "duration": 10, "velocity": 80}, {"time": 61821, "pitch": 63, "duration": 10, "velocity": 80}, {"time": 61821, "pitch": 67, "duration": 10, "velocity": 90}, {"time": 61920, "pitch": 57, "duration": 10, "velocity": 100}, {"time": 61920, "pitch": 60, "duration": 10, "velocity": 90}, {"time": 61920, "pitch": 65, "duration": 10, "velocity": 90}, {"time": 61920, "pitch": 69, "duration": 10, "velocity": 100}, {"time": 62060, "pitch": 57, "duration": 10, "velocity": 90}, {"time": 62060, "pitch": 60, "duration": 10, "velocity": 80}, {"time": 62060, "pitch": 65, "duration": 10, "velocity": 80}, {"time": 62060, "pitch": 69, "duration": 10, "velocity": 90}, {"time": 62160, "pitch": 57, "duration": 119, "velocity": 80}, {"time": 62160, "pitch": 60, "duration": 129, "velocity": 70}, {"time": 62169, "pitch": 65, "duration": 130, "velocity": 70}, {"time": 62169, "pitch": 69, "duration": 130, "velocity": 80}, {"time": 62299, "pitch": 65, "duration": 100, "velocity": 90}, {"time": 62299, "pitch": 69, "duration": 100, "velocity": 100}, {"time": 62309, "pitch": 57, "duration": 90, "velocity": 100}, {"time": 62309, "pitch": 60, "duration": 90, "velocity": 90}, {"time": 62399, "pitch": 57, "duration": 129, "velocity": 110}, {"time": 62399, "pitch": 60, "duration": 129, "velocity": 100}, {"time": 62409, "pitch": 65, "duration": 129, "velocity": 100}, {"time": 62409, "pitch": 69, "duration": 129, "velocity": 110}, {"time": 62538, "pitch": 65, "duration": 100, "velocity": 80}, {"time": 62538, "pitch": 69, "duration": 100, "velocity": 90}, {"time": 62548, "pitch": 57, "duration": 90, "velocity": 90}, {"time": 62548, "pitch": 60, "duration": 90, "velocity": 80}, {"time": 62638, "pitch": 57, "duration": 10, "velocity": 105}, {"time": 62638, "pitch": 60, "duration": 10, "velocity": 95}, {"time": 62638, "pitch": 65, "duration": 10, "velocity": 95}, {"time": 62638, "pitch": 69, "duration": 10, "velocity": 105}, {"time": 62777, "pitch": 57, "duration": 10, "velocity": 90}, {"time": 62777, "pitch": 60, "duration": 10, "velocity": 80}, {"time": 62777, "pitch": 65, "duration": 10, "velocity": 80}, {"time": 62777, "pitch": 69, "duration": 10, "velocity": 90}, {"time": 62877, "pitch": 58, "duration": 1901, "velocity": 110}, {"time": 62877, "pitch": 62, "duration": 1901, "velocity": 100}, {"time": 62887, "pitch": 65, "duration": 1901, "velocity": 100}, {"time": 62887, "pitch": 70, "duration": 1901, "velocity": 110}, {"time": 67582, "pitch": 54, "duration": 100, "velocity": 90}, {"time": 67682, "pitch": 58, "duration": 219, "velocity": 100}, {"time": 67921, "pitch": 58, "duration": 219, "velocity": 90}, {"time": 68160, "pitch": 62, "duration": 239, "velocity": 100}, {"time": 68399, "pitch": 60, "duration": 140, "velocity": 100}, {"time": 68539, "pitch": 55, "duration": 100, "velocity": 90}, {"time": 71037, "pitch": 58, "duration": 132, "velocity": 90}, {"time": 71280, "pitch": 60, "duration": 131, "velocity": 100}, {"time": 71522, "pitch": 60, "duration": 240, "velocity": 100}, {"time": 71762, "pitch": 65, "duration": 139, "velocity": 100}, {"time": 72001, "pitch": 60, "duration": 99, "velocity": 110}, {"time": 72140, "pitch": 58, "duration": 319, "velocity": 90}, {"time": 78719, "pitch": 62, "duration": 129, "velocity": 100}, {"time": 78858, "pitch": 65, "duration": 110, "velocity": 110}, {"time": 79440, "pitch": 55, "duration": 141, "velocity": 100}, {"time": 79440, "pitch": 67, "duration": 101, "velocity": 110}, {"time": 80161, "pitch": 55, "duration": 10, "velocity": 100}, {"time": 80161, "pitch": 58, "duration": 10, "velocity": 90}, {"time": 80161, "pitch": 63, "duration": 10, "velocity": 90}, {"time": 80161, "pitch": 67, "duration": 10, "velocity": 100}, {"time": 80300, "pitch": 55, "duration": 10, "velocity": 90}, {"time": 80300, "pitch": 58, "duration": 10, "velocity": 80}, {"time": 80300, "pitch": 63, "duration": 10, "velocity": 80}, {"time": 80300, "pitch": 67, "duration": 10, "velocity": 90}, {"time": 80400, "pitch": 55, "duration": 120, "velocity": 80}, {"time": 80400, "pitch": 58, "duration": 130, "velocity": 70}, {"time": 80410, "pitch": 63, "duration": 130, "velocity": 70}, {"time": 80410, "pitch": 67, "duration": 130, "velocity": 80}, {"time": 80540, "pitch": 63, "duration": 99, "velocity": 90}, {"time": 80540, "pitch": 67, "duration": 99, "velocity": 100}, {"time": 80550, "pitch": 55, "duration": 89, "velocity": 100}, {"time": 80550, "pitch": 58, "duration": 89, "velocity": 90}, {"time": 80639, "pitch": 55, "duration": 130, "velocity": 110}, {"time": 80639, "pitch": 58, "duration": 130, "velocity": 100}, {"time": 80649, "pitch": 63, "duration": 130, "velocity": 100}, {"time": 80649, "pitch": 67, "duration": 130, "velocity": 110}, {"time": 80779, "pitch": 63, "duration": 100, "velocity": 80}, {"time": 80779, "pitch": 67, "duration": 100, "velocity": 90}, {"time": 80789, "pitch": 55, "duration": 90, "velocity": 90}, {"time": 80789, "pitch": 58, "duration": 90, "velocity": 80}, {"time": 80879, "pitch": 55, "duration": 9, "velocity": 105}, {"time": 80879, "pitch": 58, "duration": 9, "velocity": 95}, {"time": 80879, "pitch": 63, "duration": 9, "velocity": 95}, {"time": 80879, "pitch": 67, "duration": 9, "velocity": 105}, {"time": 81018, "pitch": 55, "duration": 10, "velocity": 90}, {"time": 81018, "pitch": 58, "duration": 10, "velocity": 80}, {"time": 81018, "pitch": 63, "duration": 10, "velocity": 80}, {"time": 81018, "pitch": 67, "duration": 10, "velocity": 90}, {"time": 81118, "pitch": 55, "duration": 10, "velocity": 90}, {"time": 81118, "pitch": 58, "duration": 10, "velocity": 80}, {"time": 81118, "pitch": 63, "duration": 10, "velocity": 80}, {"time": 81118, "pitch": 67, "duration": 10, "velocity": 90}, {"time": 81259, "pitch": 55, "duration": 10, "velocity": 80}, {"time": 81259, "pitch": 58, "duration": 10, "velocity": 70}, {"time": 81259, "pitch": 63, "duration": 10, "velocity": 70}, {"time": 81259, "pitch": 67, "duration": 10, "velocity": 80}, {"time": 81360, "pitch": 55, "duration": 122, "velocity": 80}, {"time": 81360, "pitch": 58, "duration": 132, "velocity": 70}, {"time": 81370, "pitch": 63, "duration": 132, "velocity": 70}, {"time": 81370, "pitch": 67, "duration": 132, "velocity": 80}, {"time": 81502, "pitch": 63, "duration": 101, "velocity": 90}, {"time": 81502, "pitch": 67, "duration": 101, "velocity": 100}, {"time": 81512, "pitch": 55, "duration": 91, "velocity": 100}, {"time": 81512, "pitch": 58, "duration": 91, "velocity": 90}, {"time": 81603, "pitch": 55, "duration": 130, "velocity": 110}, {"time": 81603, "pitch": 58, "duration": 130, "velocity": 100}, {"time": 81613, "pitch": 63, "duration": 129, "velocity": 100}, {"time": 81613, "pitch": 67, "duration": 129, "velocity": 110}, {"time": 81742, "pitch": 63, "duration": 100, "velocity": 80}, {"time": 81742, "pitch": 67, "duration": 100, "velocity": 90}, {"time": 81752, "pitch": 55, "duration": 90, "velocity": 90}, {"time": 81752, "pitch": 58, "duration": 90, "velocity": 80}, {"time": 81842, "pitch": 55, "duration": 10, "velocity": 105}, {"time": 81842, "pitch": 58, "duration": 10, "velocity": 95}, {"time": 81842, "pitch": 63, "duration": 10, "velocity": 95}, {"time": 81842, "pitch": 67, "duration": 10, "velocity": 105}, {"time": 81982, "pitch": 55, "duration": 10, "velocity": 90}, {"time": 81982, "pitch": 58, "duration": 10, "velocity": 80}, {"time": 81982, "pitch": 63, "duration": 10, "velocity": 80}, {"time": 81982, "pitch": 67, "duration": 10, "velocity": 90}, {"time": 82081, "pitch": 58, "duration": 10, "velocity": 100}, {"time": 82081, "pitch": 62, "duration": 10, "velocity": 90}, {"time": 82081, "pitch": 65, "duration": 10, "velocity": 90}, {"time": 82081, "pitch": 70, "duration": 10, "velocity": 100}, {"time": 82221, "pitch": 58, "duration": 10, "velocity": 90}, {"time": 82221, "pitch": 62, "duration": 10, "velocity": 80}, {"time": 82221, "pitch": 65, "duration": 10, "velocity": 80}, {"time": 82221, "pitch": 70, "duration": 10, "velocity": 90}, {"time": 82321, "pitch": 58, "duration": 119, "velocity": 80}, {"time": 82321, "pitch": 62, "duration": 129, "velocity": 70}, {"time": 82331, "pitch": 65, "duration": 129, "velocity": 70}, {"time": 82331, "pitch": 70, "duration": 129, "velocity": 80}, {"time": 82460, "pitch": 65, "duration": 100, "velocity": 90}, {"time": 82460, "pitch": 70, "duration": 100, "velocity": 100}, {"time": 82470, "pitch": 58, "duration": 90, "velocity": 100}, {"time": 82470, "pitch": 62, "duration": 90, "velocity": 90}, {"time": 82560, "pitch": 58, "duration": 129, "velocity": 110}, {"time": 82560, "pitch": 62, "duration": 129, "velocity": 100}, {"time": 82570, "pitch": 65, "duration": 129, "velocity": 100}, {"time": 82570, "pitch": 70, "duration": 129, "velocity": 110}, {"time": 82699, "pitch": 65, "duration": 100, "velocity": 80}, {"time": 82699, "pitch": 70, "duration": 100, "velocity": 90}, {"time": 82709, "pitch": 58, "duration": 90, "velocity": 90}, {"time": 82709, "pitch": 62, "duration": 90, "velocity": 80}, {"time": 82799, "pitch": 58, "duration": 10, "velocity": 105}, {"time": 82799, "pitch": 62, "duration": 10, "velocity": 95}, {"time": 82799, "pitch": 65, "duration": 10, "velocity": 95}, {"time": 82799, "pitch": 70, "duration": 10, "velocity": 105}, {"time": 82938, "pitch": 58, "duration": 10, "velocity": 90}, {"time": 82938, "pitch": 62, "duration": 10, "velocity": 80}, {"time": 82938, "pitch": 65, "duration": 10, "velocity": 80}, {"time": 82938, "pitch": 70, "duration": 10, "velocity": 90}, {"time": 83038, "pitch": 58, "duration": 10, "velocity": 90}, {"time": 83038, "pitch": 62, "duration": 10, "velocity": 80}, {"time": 83038, "pitch": 65, "duration": 10, "velocity": 80}, {"time": 83038, "pitch": 70, "duration": 10, "velocity": 90}, {"time": 83180, "pitch": 58, "duration": 10, "velocity": 80}, {"time": 83180, "pitch": 62, "duration": 10, "velocity": 70}, {"time": 83180, "pitch": 65, "duration": 10, "velocity": 70}, {"time": 83180, "pitch": 70, "duration": 10, "velocity": 80}, {"time": 83281, "pitch": 58, "duration": 121, "velocity": 80}, {"time": 83281, "pitch": 62, "duration": 131, "velocity": 70}, {"time": 83291, "pitch": 65, "duration": 131, "velocity": 70}, {"time": 83291, "pitch": 70, "duration": 131, "velocity": 80}, {"time": 83422, "pitch": 65, "duration": 101, "velocity": 90}, {"time": 83422, "pitch": 70, "duration": 101, "velocity": 100}, {"time": 83432, "pitch": 58, "duration": 91, "velocity": 100}, {"time": 83432, "pitch": 62, "duration": 91, "velocity": 90}, {"time": 83523, "pitch": 58, "duration": 130, "velocity": 110}, {"time": 83523, "pitch": 62, "duration": 130, "velocity": 100}, {"time": 83533, "pitch": 65, "duration": 130, "velocity": 100}, {"time": 83533, "pitch": 70, "duration": 130, "velocity": 110}, {"time": 83663, "pitch": 65, "duration": 100, "velocity": 80}, {"time": 83663, "pitch": 70, "duration": 100, "velocity": 90}, {"time": 83673, "pitch": 58, "duration": 90, "velocity": 90}, {"time": 83673, "pitch": 62, "duration": 90, "velocity": 80}, {"time": 83763, "pitch": 58, "duration": 10, "velocity": 105}, {"time": 83763, "pitch": 62, "duration": 10, "velocity": 95}, {"time": 83763, "pitch": 65, "duration": 10, "velocity": 95}, {"time": 83763, "pitch": 70, "duration": 10, "velocity": 105}, {"time": 83902, "pitch": 58, "duration": 10, "velocity": 90}, {"time": 83902, "pitch": 62, "duration": 10, "velocity": 80}, {"time": 83902, "pitch": 65, "duration": 10, "velocity": 80}, {"time": 83902, "pitch": 70, "duration": 10, "velocity": 90}, {"time": 84002, "pitch": 53, "duration": 10, "velocity": 100}, {"time": 84002, "pitch": 58, "duration": 10, "velocity": 90}, {"time": 84002, "pitch": 60, "duration": 10, "velocity": 90}, {"time": 84002, "pitch": 65, "duration": 10, "velocity": 100}, {"time": 84141, "pitch": 53, "duration": 10, "velocity": 90}, {"time": 84141, "pitch": 58, "duration": 10, "velocity": 80}, {"time": 84141, "pitch": 60, "duration": 10, "velocity": 80}, {"time": 84141, "pitch": 65, "duration": 10, "velocity": 90}, {"time": 84241, "pitch": 53, "duration": 120, "velocity": 80}, {"time": 84241, "pitch": 58, "duration": 130, "velocity": 70}, {"time": 84251, "pitch": 60, "duration": 130, "velocity": 70}, {"time": 84251, "pitch": 65, "duration": 130, "velocity": 80}, {"time": 84381, "pitch": 60, "duration": 99, "velocity": 90}, {"time": 84381, "pitch": 65, "duration": 99, "velocity": 100}, {"time": 84390, "pitch": 53, "duration": 90, "velocity": 100}, {"time": 84390, "pitch": 58, "duration": 90, "velocity": 90}, {"time": 84480, "pitch": 53, "duration": 130, "velocity": 110}, {"time": 84480, "pitch": 58, "duration": 130, "velocity": 100}, {"time": 84490, "pitch": 60, "duration": 130, "velocity": 100}, {"time": 84490, "pitch": 65, "duration": 130, "velocity": 110}, {"time": 84620, "pitch": 60, "duration": 99, "velocity": 80}, {"time": 84620, "pitch": 65, "duration": 99, "velocity": 90}, {"time": 84630, "pitch": 53, "duration": 89, "velocity": 90}, {"time": 84630, "pitch": 58, "duration": 89, "velocity": 80}, {"time": 84719, "pitch": 53, "duration": 10, "velocity": 105}, {"time": 84719, "pitch": 58, "duration": 10, "velocity": 95}, {"time": 84719, "pitch": 60, "duration": 10, "velocity": 95}, {"time": 84719, "pitch": 65, "duration": 10, "velocity": 105}, {"time": 84859, "pitch": 53, "duration": 10, "velocity": 90}, {"time": 84859, "pitch": 58, "duration": 10, "velocity": 80}, {"time": 84859, "pitch": 60, "duration": 10, "velocity": 80}, {"time": 84859, "pitch": 65, "duration": 10, "velocity": 90}, {"time": 84959, "pitch": 51, "duration": 10, "velocity": 90}, {"time": 84959, "pitch": 57, "duration": 10, "velocity": 80}, {"time": 84959, "pitch": 60, "duration": 10, "velocity": 80}, {"time": 84959, "pitch": 66, "duration": 10, "velocity": 90}, {"time": 85098, "pitch": 51, "duration": 10, "velocity": 80}, {"time": 85098, "pitch": 57, "duration": 10, "velocity": 70}, {"time": 85098, "pitch": 60, "duration": 10, "velocity": 70}, {"time": 85098, "pitch": 66, "duration": 10, "velocity": 80}, {"time": 85198, "pitch": 51, "duration": 119, "velocity": 80}, {"time": 85198, "pitch": 57, "duration": 129, "velocity": 70}, {"time": 85208, "pitch": 60, "duration": 129, "velocity": 70}, {"time": 85208, "pitch": 66, "duration": 129, "velocity": 80}, {"time": 85337, "pitch": 60, "duration": 100, "velocity": 90}, {"time": 85337, "pitch": 66, "duration": 100, "velocity": 100}, {"time": 85347, "pitch": 51, "duration": 90, "velocity": 100}, {"time": 85347, "pitch": 57, "duration": 90, "velocity": 90}, {"time": 85437, "pitch": 51, "duration": 131, "velocity": 110}, {"time": 85437, "pitch": 57, "duration": 131, "velocity": 100}, {"time": 85447, "pitch": 60, "duration": 131, "velocity": 100}, {"time": 85447, "pitch": 66, "duration": 131, "velocity": 110}, {"time": 85578, "pitch": 60, "duration": 102, "velocity": 80}, {"time": 85578, "pitch": 66, "duration": 102, "velocity": 90}, {"time": 85589, "pitch": 51, "duration": 91, "velocity": 90}, {"time": 85589, "pitch": 57, "duration": 91, "velocity": 80}, {"time": 85680, "pitch": 51, "duration": 10, "velocity": 105}, {"time": 85680, "pitch": 57, "duration": 10, "velocity": 95}, {"time": 85680, "pitch": 60, "duration": 10, "velocity": 95}, {"time": 85680, "pitch": 66, "duration": 10, "velocity": 105}, {"time": 85821, "pitch": 51, "duration": 10, "velocity": 90}, {"time": 85821, "pitch": 57, "duration": 10, "velocity": 80}, {"time": 85821, "pitch": 60, "duration": 10, "velocity": 80}, {"time": 85821, "pitch": 66, "duration": 10, "velocity": 90}, {"time": 85922, "pitch": 55, "duration": 10, "velocity": 100}, {"time": 85922, "pitch": 58, "duration": 10, "velocity": 90}, {"time": 85922, "pitch": 62, "duration": 10, "velocity": 90}, {"time": 85922, "pitch": 67, "duration": 10, "velocity": 100}, {"time": 86062, "pitch": 55, "duration": 10, "velocity": 90}, {"time": 86062, "pitch": 58, "duration": 10, "velocity": 80}, {"time": 86062, "pitch": 62, "duration": 10, "velocity": 80}, {"time": 86062, "pitch": 67, "duration": 10, "velocity": 90}, {"time": 86161, "pitch": 55, "duration": 120, "velocity": 110}, {"time": 86161, "pitch": 58, "duration": 130, "velocity": 100}, {"time": 86171, "pitch": 62, "duration": 130, "velocity": 100}, {"time": 86171, "pitch": 67, "duration": 130, "velocity": 110}, {"time": 86301, "pitch": 62, "duration": 100, "velocity": 90}, {"time": 86301, "pitch": 67, "duration": 100, "velocity": 100}, {"time": 86311, "pitch": 55, "duration": 90, "velocity": 100}, {"time": 86311, "pitch": 58, "duration": 90, "velocity": 90}, {"time": 86401, "pitch": 55, "duration": 10, "velocity": 100}, {"time": 86401, "pitch": 58, "duration": 10, "velocity": 90}, {"time": 86401, "pitch": 62, "duration": 10, "velocity": 90}, {"time": 86401, "pitch": 67, "duration": 10, "velocity": 100}, {"time": 86540, "pitch": 55, "duration": 10, "velocity": 90}, {"time": 86540, "pitch": 58, "duration": 10, "velocity": 80}, {"time": 86540, "pitch": 62, "duration": 10, "velocity": 80}, {"time": 86540, "pitch": 67, "duration": 10, "velocity": 90}, {"time": 86640, "pitch": 55, "duration": 119, "velocity": 110}, {"time": 86640, "pitch": 58, "duration": 129, "velocity": 100}, {"time": 86650, "pitch": 62, "duration": 129, "velocity": 100}, {"time": 86650, "pitch": 67, "duration": 129, "velocity": 110}, {"time": 86779, "pitch": 62, "duration": 100, "velocity": 90}, {"time": 86779, "pitch": 67, "duration": 100, "velocity": 100}, {"time": 86789, "pitch": 55, "duration": 90, "velocity": 100}, {"time": 86789, "pitch": 58, "duration": 90, "velocity": 90}, {"time": 86879, "pitch": 55, "duration": 10, "velocity": 100}, {"time": 86879, "pitch": 58, "duration": 10, "velocity": 90}, {"time": 86879, "pitch": 62, "duration": 10, "velocity": 90}, {"time": 86879, "pitch": 67, "duration": 10, "velocity": 100}, {"time": 87019, "pitch": 55, "duration": 9, "velocity": 90}, {"time": 87019, "pitch": 58, "duration": 9, "velocity": 80}, {"time": 87019, "pitch": 62, "duration": 9, "velocity": 80}, {"time": 87019, "pitch": 67, "duration": 9, "velocity": 90}, {"time": 87118, "pitch": 55, "duration": 120, "velocity": 110}, {"time": 87118, "pitch": 58, "duration": 130, "velocity": 100}, {"time": 87128, "pitch": 62, "duration": 130, "velocity": 100}, {"time": 87128, "pitch": 67, "duration": 130, "velocity": 110}, {"time": 87258, "pitch": 62, "duration": 99, "velocity": 90}, {"time": 87258, "pitch": 67, "duration": 99, "velocity": 100}, {"time": 87268, "pitch": 55, "duration": 89, "velocity": 100}, {"time": 87268, "pitch": 58, "duration": 89, "velocity": 90}, {"time": 87357, "pitch": 55, "duration": 10, "velocity": 100}, {"time": 87357, "pitch": 58, "duration": 10, "velocity": 90}, {"time": 87357, "pitch": 62, "duration": 10, "velocity": 90}, {"time": 87357, "pitch": 67, "duration": 10, "velocity": 100}, {"time": 87499, "pitch": 55, "duration": 10, "velocity": 90}, {"time": 87499, "pitch": 58, "duration": 10, "velocity": 80}, {"time": 87499, "pitch": 62, "duration": 10, "velocity": 80}, {"time": 87499, "pitch": 67, "duration": 10, "velocity": 90}, {"time": 87600, "pitch": 55, "duration": 121, "velocity": 110}, {"time": 87600, "pitch": 58, "duration": 131, "velocity": 100}, {"time": 87610, "pitch": 62, "duration": 132, "velocity": 100}, {"time": 87610, "pitch": 67, "duration": 132, "velocity": 110}, {"time": 87742, "pitch": 62, "duration": 101, "velocity": 90}, {"time": 87742, "pitch": 67, "duration": 101, "velocity": 100}, {"time": 87752, "pitch": 55, "duration": 91, "velocity": 100}, {"time": 87752, "pitch": 58, "duration": 91, "velocity": 90}, {"time": 87843, "pitch": 58, "duration": 10, "velocity": 100}, {"time": 87843, "pitch": 63, "duration": 10, "velocity": 90}, {"time": 87843, "pitch": 67, "duration": 10, "velocity": 90}, {"time": 87843, "pitch": 70, "duration": 10, "velocity": 100}, {"time": 87982, "pitch": 58, "duration": 10, "velocity": 90}, {"time": 87982, "pitch": 63, "duration": 10, "velocity": 80}, {"time": 87982, "pitch": 67, "duration": 10, "velocity": 80}, {"time": 87982, "pitch": 70, "duration": 10, "velocity": 90}, {"time": 88082, "pitch": 58, "duration": 119, "velocity": 80}, {"time": 88082, "pitch": 63, "duration": 129, "velocity": 70}, {"time": 88092, "pitch": 67, "duration": 129, "velocity": 70}, {"time": 88092, "pitch": 70, "duration": 129, "velocity": 80}, {"time": 88221, "pitch": 67, "duration": 100, "velocity": 90}, {"time": 88221, "pitch": 70, "duration": 100, "velocity": 100}, {"time": 88231, "pitch": 58, "duration": 90, "velocity": 100}, {"time": 88231, "pitch": 63, "duration": 90, "velocity": 90}, {"time": 88321, "pitch": 58, "duration": 130, "velocity": 110}, {"time": 88321, "pitch": 63, "duration": 130, "velocity": 100}, {"time": 88331, "pitch": 67, "duration": 130, "velocity": 100}, {"time": 88331, "pitch": 70, "duration": 130, "velocity": 110}, {"time": 88461, "pitch": 67, "duration": 99, "velocity": 80}, {"time": 88461, "pitch": 70, "duration": 99, "velocity": 90}, {"time": 88471, "pitch": 58, "duration": 89, "velocity": 90}, {"time": 88471, "pitch": 63, "duration": 89, "velocity": 80}, {"time": 88560, "pitch": 58, "duration": 10, "velocity": 105}, {"time": 88560, "pitch": 63, "duration": 10, "velocity": 95}, {"time": 88560, "pitch": 67, "duration": 10, "velocity": 95}, {"time": 88560, "pitch": 70, "duration": 10, "velocity": 105}, {"time": 88700, "pitch": 58, "duration": 10, "velocity": 90}, {"time": 88700, "pitch": 63, "duration": 10, "velocity": 80}, {"time": 88700, "pitch": 67, "duration": 10, "velocity": 80}, {"time": 88700, "pitch": 70, "duration": 10, "velocity": 90}, {"time": 88799, "pitch": 58, "duration": 10, "velocity": 90}, {"time": 88799, "pitch": 63, "duration": 10, "velocity": 80}, {"time": 88799, "pitch": 67, "duration": 10, "velocity": 80}, {"time": 88799, "pitch": 70, "duration": 10, "velocity": 90}, {"time": 88939, "pitch": 58, "duration": 10, "velocity": 80}, {"time": 88939, "pitch": 63, "duration": 10, "velocity": 70}, {"time": 88939, "pitch": 67, "duration": 10, "velocity": 70}, {"time": 88939, "pitch": 70, "duration": 10, "velocity": 80}, {"time": 89039, "pitch": 58, "duration": 119, "velocity": 80}, {"time": 89039, "pitch": 63, "duration": 129, "velocity": 70}, {"time": 89049, "pitch": 67, "duration": 129, "velocity": 70}, {"time": 89049, "pitch": 70, "duration": 129, "velocity": 80}, {"time": 89178, "pitch": 67, "duration": 100, "velocity": 90}, {"time": 89178, "pitch": 70, "duration": 100, "velocity": 100}, {"time": 89188, "pitch": 58, "duration": 90, "velocity": 100}, {"time": 89188, "pitch": 63, "duration": 90, "velocity": 90}, {"time": 89278, "pitch": 58, "duration": 131, "velocity": 110}, {"time": 89278, "pitch": 63, "duration": 131, "velocity": 100}, {"time": 89288, "pitch": 67, "duration": 131, "velocity": 100}, {"time": 89288, "pitch": 70, "duration": 131, "velocity": 110}, {"time": 89419, "pitch": 67, "duration": 101, "velocity": 80}, {"time": 89419, "pitch": 70, "duration": 101, "velocity": 90}, {"time": 89429, "pitch": 58, "duration": 91, "velocity": 90}, {"time": 89429, "pitch": 63, "duration": 91, "velocity": 80}, {"time": 89520, "pitch": 58, "duration": 11, "velocity": 105}, {"time": 89520, "pitch": 63, "duration": 11, "velocity": 95}, {"time": 89520, "pitch": 67, "duration": 11, "velocity": 95}, {"time": 89520, "pitch": 70, "duration": 11, "velocity": 105}, {"time": 89662, "pitch": 58, "duration": 10, "velocity": 90}, {"time": 89662, "pitch": 63, "duration": 10, "velocity": 80}, {"time": 89662, "pitch": 67, "duration": 10, "velocity": 80}, {"time": 89662, "pitch": 70, "duration": 10, "velocity": 90}, {"time": 89763, "pitch": 58, "duration": 10, "velocity": 100}, {"time": 89763, "pitch": 62, "duration": 10, "velocity": 90}, {"time": 89763, "pitch": 65, "duration": 10, "velocity": 90}, {"time": 89763, "pitch": 70, "duration": 10, "velocity": 100}, {"time": 89903, "pitch": 58, "duration": 10, "velocity": 90}, {"time": 89903, "pitch": 62, "duration": 10, "velocity": 80}, {"time": 89903, "pitch": 65, "duration": 10, "velocity": 80}, {"time": 89903, "pitch": 70, "duration": 10, "velocity": 90}, {"time": 90002, "pitch": 58, "duration": 120, "velocity": 80}, {"time": 90002, "pitch": 62, "duration": 130, "velocity": 70}, {"time": 90012, "pitch": 65, "duration": 130, "velocity": 70}, {"time": 90012, "pitch": 70, "duration": 130, "velocity": 80}, {"time": 90142, "pitch": 65, "duration": 99, "velocity": 90}, {"time": 90142, "pitch": 70, "duration": 99, "velocity": 100}, {"time": 90152, "pitch": 58, "duration": 89, "velocity": 100}, {"time": 90152, "pitch": 62, "duration": 89, "velocity": 90}, {"time": 90241, "pitch": 58, "duration": 130, "velocity": 110}, {"time": 90241, "pitch": 62, "duration": 130, "velocity": 100}, {"time": 90251, "pitch": 65, "duration": 130, "velocity": 100}, {"time": 90251, "pitch": 70, "duration": 130, "velocity": 110}, {"time": 90381, "pitch": 65, "duration": 100, "velocity": 80}, {"time": 90381, "pitch": 70, "duration": 100, "velocity": 90}, {"time": 90391, "pitch": 58, "duration": 90, "velocity": 90}, {"time": 90391, "pitch": 62, "duration": 90, "velocity": 80}, {"time": 90481, "pitch": 58, "duration": 10, "velocity": 105}, {"time": 90481, "pitch": 62, "duration": 10, "velocity": 95}, {"time": 90481, "pitch": 65, "duration": 10, "velocity": 95}, {"time": 90481, "pitch": 70, "duration": 10, "velocity": 105}, {"time": 90620, "pitch": 58, "duration": 10, "velocity": 90}, {"time": 90620, "pitch": 62, "duration": 10, "velocity": 80}, {"time": 90620, "pitch": 65, "duration": 10, "velocity": 80}, {"time": 90620, "pitch": 70, "duration": 10, "velocity": 90}, {"time": 90720, "pitch": 58, "duration": 10, "velocity": 90}, {"time": 90720, "pitch": 62, "duration": 10, "velocity": 80}, {"time": 90720, "pitch": 65, "duration": 10, "velocity": 80}, {"time": 90720, "pitch": 70, "duration": 10, "velocity": 90}, {"time": 90859, "pitch": 58, "duration": 10, "velocity": 80}, {"time": 90859, "pitch": 62, "duration": 10, "velocity": 70}, {"time": 90859, "pitch": 65, "duration": 10, "velocity": 70}, {"time": 90859, "pitch": 70, "duration": 10, "velocity": 80}, {"time": 90959, "pitch": 58, "duration": 120, "velocity": 80}, {"time": 90959, "pitch": 62, "duration": 130, "velocity": 70}, {"time": 90969, "pitch": 65, "duration": 130, "velocity": 70}, {"time": 90969, "pitch": 70, "duration": 130, "velocity": 80}, {"time": 91099, "pitch": 65, "duration": 99, "velocity": 90}, {"time": 91099, "pitch": 70, "duration": 99, "velocity": 100}, {"time": 91109, "pitch": 58, "duration": 89, "velocity": 100}, {"time": 91109, "pitch": 62, "duration": 89, "velocity": 90}, {"time": 91198, "pitch": 58, "duration": 130, "velocity": 110}, {"time": 91198, "pitch": 62, "duration": 130, "velocity": 100}, {"time": 91208, "pitch": 65, "duration": 130, "velocity": 100}, {"time": 91208, "pitch": 70, "duration": 130, "velocity": 110}, {"time": 91338, "pitch": 65, "duration": 99, "velocity": 80}, {"time": 91338, "pitch": 70, "duration": 99, "velocity": 90}, {"time": 91348, "pitch": 58, "duration": 89, "velocity": 90}, {"time": 91348, "pitch": 62, "duration": 89, "velocity": 80}, {"time": 91437, "pitch": 58, "duration": 10, "velocity": 105}, {"time": 91437, "pitch": 62, "duration": 10, "velocity": 95}, {"time": 91437, "pitch": 65, "duration": 10, "velocity": 95}, {"time": 91437, "pitch": 70, "duration": 10, "velocity": 105}, {"time": 91577, "pitch": 58, "duration": 10, "velocity": 90}, {"time": 91577, "pitch": 62, "duration": 10, "velocity": 80}, {"time": 91577, "pitch": 65, "duration": 10, "velocity": 80}, {"time": 91577, "pitch": 70, "duration": 10, "velocity": 90}, {"time": 91677, "pitch": 55, "duration": 10, "velocity": 100}, {"time": 91677, "pitch": 58, "duration": 10, "velocity": 90}, {"time": 91677, "pitch": 63, "duration": 10, "velocity": 90}, {"time": 91677, "pitch": 67, "duration": 10, "velocity": 100}, {"time": 91818, "pitch": 55, "duration": 10, "velocity": 90}, {"time": 91818, "pitch": 58, "duration": 10, "velocity": 80}, {"time": 91818, "pitch": 63, "duration": 10, "velocity": 80}, {"time": 91818, "pitch": 67, "duration": 10, "velocity": 90}, {"time": 91919, "pitch": 55, "duration": 122, "velocity": 80}, {"time": 91919, "pitch": 58, "duration": 132, "velocity": 70}, {"time": 91929, "pitch": 63, "duration": 132, "velocity": 70}, {"time": 91929, "pitch": 67, "duration": 132, "velocity": 80}, {"time": 92061, "pitch": 63, "duration": 101, "velocity": 90}, {"time": 92061, "pitch": 67, "duration": 101, "velocity": 100}, {"time": 92071, "pitch": 55, "duration": 91, "velocity": 100}, {"time": 92071, "pitch": 58, "duration": 91, "velocity": 90}, {"time": 92162, "pitch": 55, "duration": 129, "velocity": 110}, {"time": 92162, "pitch": 58, "duration": 129, "velocity": 100}, {"time": 92172, "pitch": 63, "duration": 129, "velocity": 100}, {"time": 92172, "pitch": 67, "duration": 129, "velocity": 110}, {"time": 92301, "pitch": 63, "duration": 100, "velocity": 80}, {"time": 92301, "pitch": 67, "duration": 100, "velocity": 90}, {"time": 92311, "pitch": 55, "duration": 90, "velocity": 90}, {"time": 92311, "pitch": 58, "duration": 90, "velocity": 80}, {"time": 92401, "pitch": 55, "duration": 10, "velocity": 105}, {"time": 92401, "pitch": 58, "duration": 10, "velocity": 95}, {"time": 92401, "pitch": 63, "duration": 10, "velocity": 95}, {"time": 92401, "pitch": 67, "duration": 10, "velocity": 105}, {"time": 92541, "pitch": 55, "duration": 10, "velocity": 90}, {"time": 92541, "pitch": 58, "duration": 10, "velocity": 80}, {"time": 92541, "pitch": 63, "duration": 10, "velocity": 80}, {"time": 92541, "pitch": 67, "duration": 10, "velocity": 90}, {"time": 92640, "pitch": 55, "duration": 10, "velocity": 90}, {"time": 92640, "pitch": 58, "duration": 10, "velocity": 80}, {"time": 92640, "pitch": 63, "duration": 10, "velocity": 80}, {"time": 92640, "pitch": 67, "duration": 10, "velocity": 90}, {"time": 92780, "pitch": 55, "duration": 10, "velocity": 80}, {"time": 92780, "pitch": 58, "duration": 10, "velocity": 70}, {"time": 92780, "pitch": 63, "duration": 10, "velocity": 70}, {"time": 92780, "pitch": 67, "duration": 10, "velocity": 80}, {"time": 92879, "pitch": 55, "duration": 120, "velocity": 80}, {"time": 92879, "pitch": 58, "duration": 130, "velocity": 70}, {"time": 92889, "pitch": 63, "duration": 130, "velocity": 70}, {"time": 92889, "pitch": 67, "duration": 130, "velocity": 80}, {"time": 93019, "pitch": 63, "duration": 100, "velocity": 90}, {"time": 93019, "pitch": 67, "duration": 100, "velocity": 100}, {"time": 93029, "pitch": 55, "duration": 90, "velocity": 100}, {"time": 93029, "pitch": 58, "duration": 90, "velocity": 90}, {"time": 93119, "pitch": 55, "duration": 129, "velocity": 110}, {"time": 93119, "pitch": 58, "duration": 129, "velocity": 100}, {"time": 93129, "pitch": 63, "duration": 129, "velocity": 100}, {"time": 93129, "pitch": 67, "duration": 129, "velocity": 110}, {"time": 93258, "pitch": 63, "duration": 100, "velocity": 80}, {"time": 93258, "pitch": 67, "duration": 100, "velocity": 90}, {"time": 93268, "pitch": 55, "duration": 90, "velocity": 90}, {"time": 93268, "pitch": 58, "duration": 90, "velocity": 80}, {"time": 93358, "pitch": 55, "duration": 10, "velocity": 105}, {"time": 93358, "pitch": 58, "duration": 10, "velocity": 95}, {"time": 93358, "pitch": 63, "duration": 10, "velocity": 95}, {"time": 93358, "pitch": 67, "duration": 10, "velocity": 105}, {"time": 93497, "pitch": 55, "duration": 10, "velocity": 90}, {"time": 93497, "pitch": 58, "duration": 10, "velocity": 80}, {"time": 93497, "pitch": 63, "duration": 10, "velocity": 80}, {"time": 93497, "pitch": 67, "duration": 10, "velocity": 90}, {"time": 93597, "pitch": 56, "duration": 394, "velocity": 105}, {"time": 93597, "pitch": 60, "duration": 374, "velocity": 105}, {"time": 93597, "pitch": 63, "duration": 384, "velocity": 105}, {"time": 93597, "pitch": 67, "duration": 374, "velocity": 105}, {"time": 94082, "pitch": 55, "duration": 359, "velocity": 105}, {"time": 94082, "pitch": 58, "duration": 379, "velocity": 105}, {"time": 94082, "pitch": 62, "duration": 359, "velocity": 105}, {"time": 94082, "pitch": 65, "duration": 349, "velocity": 105}, {"time": 94561, "pitch": 53, "duration": 368, "velocity": 105}, {"time": 94561, "pitch": 56, "duration": 378, "velocity": 105}, {"time": 94561, "pitch": 60, "duration": 368, "velocity": 105}, {"time": 94561, "pitch": 63, "duration": 388, "velocity": 105}, {"time": 95278, "pitch": 57, "duration": 220, "velocity": 105}, {"time": 95278, "pitch": 60, "duration": 220, "velocity": 105}, {"time": 95278, "pitch": 65, "duration": 220, "velocity": 105}, {"time": 95517, "pitch": 58, "duration": 11, "velocity": 100}, {"time": 95517, "pitch": 62, "duration": 11, "velocity": 90}, {"time": 95517, "pitch": 65, "duration": 11, "velocity": 90}, {"time": 95517, "pitch": 70, "duration": 11, "velocity": 100}, {"time": 95659, "pitch": 58, "duration": 10, "velocity": 90}, {"time": 95659, "pitch": 62, "duration": 10, "velocity": 80}, {"time": 95659, "pitch": 65, "duration": 10, "velocity": 80}, {"time": 95659, "pitch": 70, "duration": 10, "velocity": 90}, {"time": 95760, "pitch": 58, "duration": 121, "velocity": 80}, {"time": 95760, "pitch": 62, "duration": 132, "velocity": 70}, {"time": 95770, "pitch": 65, "duration": 132, "velocity": 70}, {"time": 95770, "pitch": 70, "duration": 132, "velocity": 80}, {"time": 95902, "pitch": 65, "duration": 101, "velocity": 90}, {"time": 95902, "pitch": 70, "duration": 101, "velocity": 100}, {"time": 95912, "pitch": 58, "duration": 91, "velocity": 100}, {"time": 95912, "pitch": 62, "duration": 91, "velocity": 90}, {"time": 96003, "pitch": 58, "duration": 129, "velocity": 110}, {"time": 96003, "pitch": 62, "duration": 129, "velocity": 100}, {"time": 96013, "pitch": 65, "duration": 129, "velocity": 100}, {"time": 96013, "pitch": 70, "duration": 129, "velocity": 110}, {"time": 96142, "pitch": 65, "duration": 100, "velocity": 80}, {"time": 96142, "pitch": 70, "duration": 100, "velocity": 90}, {"time": 96152, "pitch": 58, "duration": 90, "velocity": 90}, {"time": 96152, "pitch": 62, "duration": 90, "velocity": 80}, {"time": 96242, "pitch": 58, "duration": 10, "velocity": 105}, {"time": 96242, "pitch": 62, "duration": 10, "velocity": 95}, {"time": 96242, "pitch": 65, "duration": 10, "velocity": 95}, {"time": 96242, "pitch": 70, "duration": 10, "velocity": 105}, {"time": 96381, "pitch": 58, "duration": 10, "velocity": 90}, {"time": 96381, "pitch": 62, "duration": 10, "velocity": 80}, {"time": 96381, "pitch": 65, "duration": 10, "velocity": 80}, {"time": 96381, "pitch": 70, "duration": 10, "velocity": 90}, {"time": 96481, "pitch": 57, "duration": 10, "velocity": 90}, {"time": 96481, "pitch": 60, "duration": 10, "velocity": 80}, {"time": 96481, "pitch": 65, "duration": 10, "velocity": 80}, {"time": 96481, "pitch": 69, "duration": 10, "velocity": 90}, {"time": 96621, "pitch": 57, "duration": 10, "velocity": 80}, {"time": 96621, "pitch": 60, "duration": 10, "velocity": 70}, {"time": 96621, "pitch": 65, "duration": 10, "velocity": 70}, {"time": 96621, "pitch": 69, "duration": 10, "velocity": 80}, {"time": 96720, "pitch": 57, "duration": 120, "velocity": 80}, {"time": 96720, "pitch": 60, "duration": 130, "velocity": 70}, {"time": 96730, "pitch": 65, "duration": 130, "velocity": 70}, {"time": 96730, "pitch": 69, "duration": 130, "velocity": 80}, {"time": 96860, "pitch": 65, "duration": 100, "velocity": 90}, {"time": 96860, "pitch": 69, "duration": 100, "velocity": 100}, {"time": 96870, "pitch": 57, "duration": 90, "velocity": 100}, {"time": 96870, "pitch": 60, "duration": 90, "velocity": 90}, {"time": 96960, "pitch": 57, "duration": 129, "velocity": 110}, {"time": 96960, "pitch": 60, "duration": 129, "velocity": 100}, {"time": 96969, "pitch": 65, "duration": 130, "velocity": 100}, {"time": 96969, "pitch": 69, "duration": 130, "velocity": 110}, {"time": 97099, "pitch": 65, "duration": 100, "velocity": 80}, {"time": 97099, "pitch": 69, "duration": 100, "velocity": 90}, {"time": 97109, "pitch": 57, "duration": 90, "velocity": 90}, {"time": 97109, "pitch": 60, "duration": 90, "velocity": 80}, {"time": 97199, "pitch": 57, "duration": 10, "velocity": 105}, {"time": 97199, "pitch": 60, "duration": 10, "velocity": 95}, {"time": 97199, "pitch": 65, "duration": 10, "velocity": 95}, {"time": 97199, "pitch": 69, "duration": 10, "velocity": 105}, {"time": 97338, "pitch": 57, "duration": 10, "velocity": 90}, {"time": 97338, "pitch": 60, "duration": 10, "velocity": 80}, {"time": 97338, "pitch": 65, "duration": 10, "velocity": 80}, {"time": 97338, "pitch": 69, "duration": 10, "velocity": 90}, {"time": 97438, "pitch": 55, "duration": 10, "velocity": 100}, {"time": 97438, "pitch": 58, "duration": 10, "velocity": 90}, {"time": 97438, "pitch": 62, "duration": 10, "velocity": 90}, {"time": 97438, "pitch": 67, "duration": 10, "velocity": 100}, {"time": 97579, "pitch": 55, "duration": 11, "velocity": 90}, {"time": 97579, "pitch": 58, "duration": 11, "velocity": 80}, {"time": 97579, "pitch": 62, "duration": 11, "velocity": 80}, {"time": 97579, "pitch": 67, "duration": 11, "velocity": 90}, {"time": 97681, "pitch": 55, "duration": 121, "velocity": 80}, {"time": 97681, "pitch": 58, "duration": 131, "velocity": 70}, {"time": 97691, "pitch": 62, "duration": 131, "velocity": 70}, {"time": 97691, "pitch": 67, "duration": 131, "velocity": 80}, {"time": 97822, "pitch": 62, "duration": 101, "velocity": 90}, {"time": 97822, "pitch": 67, "duration": 101, "velocity": 100}, {"time": 97832, "pitch": 55, "duration": 91, "velocity": 100}, {"time": 97832, "pitch": 58, "duration": 91, "velocity": 90}, {"time": 97923, "pitch": 55, "duration": 130, "velocity": 110}, {"time": 97923, "pitch": 58, "duration": 130, "velocity": 100}, {"time": 97933, "pitch": 62, "duration": 130, "velocity": 100}, {"time": 97933, "pitch": 67, "duration": 130, "velocity": 110}, {"time": 98063, "pitch": 62, "duration": 99, "velocity": 80}, {"time": 98063, "pitch": 67, "duration": 99, "velocity": 90}, {"time": 98073, "pitch": 55, "duration": 89, "velocity": 90}, {"time": 98073, "pitch": 58, "duration": 89, "velocity": 80}, {"time": 98162, "pitch": 55, "duration": 10, "velocity": 105}, {"time": 98162, "pitch": 58, "duration": 10, "velocity": 95}, {"time": 98162, "pitch": 62, "duration": 10, "velocity": 95}, {"time": 98162, "pitch": 67, "duration": 10, "velocity": 105}, {"time": 98302, "pitch": 55, "duration": 10, "velocity": 90}, {"time": 98302, "pitch": 58, "duration": 10, "velocity": 80}, {"time": 98302, "pitch": 62, "duration": 10, "velocity": 80}, {"time": 98302, "pitch": 67, "duration": 10, "velocity": 90}, {"time": 98402, "pitch": 53, "duration": 10, "velocity": 90}, {"time": 98402, "pitch": 58, "duration": 10, "velocity": 80}, {"time": 98402, "pitch": 62, "duration": 10, "velocity": 80}, {"time": 98402, "pitch": 68, "duration": 10, "velocity": 90}, {"time": 98541, "pitch": 53, "duration": 10, "velocity": 80}, {"time": 98541, "pitch": 58, "duration": 10, "velocity": 70}, {"time": 98541, "pitch": 62, "duration": 10, "velocity": 70}, {"time": 98541, "pitch": 68, "duration": 10, "velocity": 80}, {"time": 98641, "pitch": 53, "duration": 119, "velocity": 80}, {"time": 98641, "pitch": 58, "duration": 129, "velocity": 70}, {"time": 98651, "pitch": 62, "duration": 129, "velocity": 70}, {"time": 98651, "pitch": 68, "duration": 129, "velocity": 80}, {"time": 98780, "pitch": 62, "duration": 100, "velocity": 90}, {"time": 98780, "pitch": 68, "duration": 100, "velocity": 100}, {"time": 98790, "pitch": 53, "duration": 90, "velocity": 100}, {"time": 98790, "pitch": 58, "duration": 90, "velocity": 90}, {"time": 98880, "pitch": 53, "duration": 129, "velocity": 110}, {"time": 98880, "pitch": 58, "duration": 129, "velocity": 100}, {"time": 98890, "pitch": 62, "duration": 129, "velocity": 100}, {"time": 98890, "pitch": 68, "duration": 129, "velocity": 110}, {"time": 99019, "pitch": 62, "duration": 100, "velocity": 80}, {"time": 99019, "pitch": 68, "duration": 100, "velocity": 90}, {"time": 99029, "pitch": 53, "duration": 90, "velocity": 90}, {"time": 99029, "pitch": 58, "duration": 90, "velocity": 80}, {"time": 99119, "pitch": 53, "duration": 10, "velocity": 105}, {"time": 99119, "pitch": 58, "duration": 10, "velocity": 95}, {"time": 99119, "pitch": 62, "duration": 10, "velocity": 95}, {"time": 99119, "pitch": 68, "duration": 10, "velocity": 105}, {"time": 99259, "pitch": 53, "duration": 10, "velocity": 90}, {"time": 99259, "pitch": 58, "duration": 10, "velocity": 80}, {"time": 99259, "pitch": 62, "duration": 10, "velocity": 80}, {"time": 99259, "pitch": 68, "duration": 10, "velocity": 90}, {"time": 99358, "pitch": 58, "duration": 10, "velocity": 100}, {"time": 99358, "pitch": 63, "duration": 10, "velocity": 90}, {"time": 99358, "pitch": 67, "duration": 10, "velocity": 90}, {"time": 99358, "pitch": 70, "duration": 10, "velocity": 100}, {"time": 99498, "pitch": 58, "duration": 10, "velocity": 90}, {"time": 99498, "pitch": 63, "duration": 10, "velocity": 80}, {"time": 99498, "pitch": 67, "duration": 10, "velocity": 80}, {"time": 99498, "pitch": 70, "duration": 10, "velocity": 90}, {"time": 99598, "pitch": 58, "duration": 119, "velocity": 80}, {"time": 99598, "pitch": 63, "duration": 129, "velocity": 70}, {"time": 99607, "pitch": 67, "duration": 130, "velocity": 70}, {"time": 99607, "pitch": 70, "duration": 130, "velocity": 80}, {"time": 99737, "pitch": 67, "duration": 100, "velocity": 90}, {"time": 99737, "pitch": 70, "duration": 100, "velocity": 100}, {"time": 99747, "pitch": 58, "duration": 90, "velocity": 100}, {"time": 99747, "pitch": 63, "duration": 90, "velocity": 90}, {"time": 99837, "pitch": 58, "duration": 131, "velocity": 110}, {"time": 99837, "pitch": 63, "duration": 131, "velocity": 100}, {"time": 99847, "pitch": 67, "duration": 131, "velocity": 100}, {"time": 99847, "pitch": 70, "duration": 131, "velocity": 110}, {"time": 99978, "pitch": 67, "duration": 101, "velocity": 80}, {"time": 99978, "pitch": 70, "duration": 101, "velocity": 90}, {"time": 99988, "pitch": 58, "duration": 91, "velocity": 90}, {"time": 99988, "pitch": 63, "duration": 91, "velocity": 80}, {"time": 100079, "pitch": 58, "duration": 10, "velocity": 105}, {"time": 100079, "pitch": 63, "duration": 10, "velocity": 95}, {"time": 100079, "pitch": 67, "duration": 10, "velocity": 95}, {"time": 100079, "pitch": 70, "duration": 10, "velocity": 105}, {"time": 100221, "pitch": 58, "duration": 10, "velocity": 90}, {"time": 100221, "pitch": 63, "duration": 10, "velocity": 80}, {"time": 100221, "pitch": 67, "duration": 10, "velocity": 80}, {"time": 100221, "pitch": 70, "duration": 10, "velocity": 90}, {"time": 100322, "pitch": 58, "duration": 10, "velocity": 100}, {"time": 100322, "pitch": 62, "duration": 10, "velocity": 90}, {"time": 100322, "pitch": 65, "duration": 10, "velocity": 90}, {"time": 100322, "pitch": 70, "duration": 10, "velocity": 100}, {"time": 100461, "pitch": 58, "duration": 10, "velocity": 90}, {"time": 100461, "pitch": 62, "duration": 10, "velocity": 80}, {"time": 100461, "pitch": 65, "duration": 10, "velocity": 80}, {"time": 100461, "pitch": 70, "duration": 10, "velocity": 90}, {"time": 100561, "pitch": 58, "duration": 120, "velocity": 80}, {"time": 100561, "pitch": 62, "duration": 130, "velocity": 70}, {"time": 100571, "pitch": 65, "duration": 130, "velocity": 70}, {"time": 100571, "pitch": 70, "duration": 130, "velocity": 80}, {"time": 100701, "pitch": 65, "duration": 99, "velocity": 90}, {"time": 100701, "pitch": 70, "duration": 99, "velocity": 100}, {"time": 100711, "pitch": 58, "duration": 89, "velocity": 100}, {"time": 100711, "pitch": 62, "duration": 89, "velocity": 90}, {"time": 100800, "pitch": 58, "duration": 130, "velocity": 110}, {"time": 100800, "pitch": 62, "duration": 130, "velocity": 100}, {"time": 100810, "pitch": 65, "duration": 130, "velocity": 100}, {"time": 100810, "pitch": 70, "duration": 130, "velocity": 110}, {"time": 100940, "pitch": 65, "duration": 100, "velocity": 80}, {"time": 100940, "pitch": 70, "duration": 100, "velocity": 90}, {"time": 100950, "pitch": 58, "duration": 90, "velocity": 90}, {"time": 100950, "pitch": 62, "duration": 90, "velocity": 80}, {"time": 101040, "pitch": 58, "duration": 10, "velocity": 105}, {"time": 101040, "pitch": 62, "duration": 10, "velocity": 95}, {"time": 101040, "pitch": 65, "duration": 10, "velocity": 95}, {"time": 101040, "pitch": 70, "duration": 10, "velocity": 105}, {"time": 101179, "pitch": 58, "duration": 10, "velocity": 90}, {"time": 101179, "pitch": 62, "duration": 10, "velocity": 80}, {"time": 101179, "pitch": 65, "duration": 10, "velocity": 80}, {"time": 101179, "pitch": 70, "duration": 10, "velocity": 90}, {"time": 101279, "pitch": 55, "duration": 10, "velocity": 100}, {"time": 101279, "pitch": 58, "duration": 10, "velocity": 90}, {"time": 101279, "pitch": 63, "duration": 10, "velocity": 90}, {"time": 101279, "pitch": 67, "duration": 10, "velocity": 100}, {"time": 101418, "pitch": 55, "duration": 10, "velocity": 90}, {"time": 101418, "pitch": 58, "duration": 10, "velocity": 80}, {"time": 101418, "pitch": 63, "duration": 10, "velocity": 80}, {"time": 101418, "pitch": 67, "duration": 10, "velocity": 90}, {"time": 101518, "pitch": 55, "duration": 120, "velocity": 80}, {"time": 101518, "pitch": 58, "duration": 130, "velocity": 70}, {"time": 101528, "pitch": 63, "duration": 129, "velocity": 70}, {"time": 101528, "pitch": 67, "duration": 129, "velocity": 80}, {"time": 101657, "pitch": 63, "duration": 100, "velocity": 90}, {"time": 101657, "pitch": 67, "duration": 100, "velocity": 100}, {"time": 101667, "pitch": 55, "duration": 90, "velocity": 100}, {"time": 101667, "pitch": 58, "duration": 90, "velocity": 90}, {"time": 101757, "pitch": 55, "duration": 132, "velocity": 110}, {"time": 101757, "pitch": 58, "duration": 132, "velocity": 100}, {"time": 101767, "pitch": 63, "duration": 132, "velocity": 100}, {"time": 101767, "pitch": 67, "duration": 132, "velocity": 110}, {"time": 101899, "pitch": 63, "duration": 101, "velocity": 80}, {"time": 101899, "pitch": 67, "duration": 101, "velocity": 90}, {"time": 101909, "pitch": 55, "duration": 91, "velocity": 90}, {"time": 101909, "pitch": 58, "duration": 91, "velocity": 80}, {"time": 102000, "pitch": 55, "duration": 10, "velocity": 105}, {"time": 102000, "pitch": 58, "duration": 10, "velocity": 95}, {"time": 102000, "pitch": 63, "duration": 10, "velocity": 95}, {"time": 102000, "pitch": 67, "duration": 10, "velocity": 105}, {"time": 102141, "pitch": 55, "duration": 10, "velocity": 90}, {"time": 102141, "pitch": 58, "duration": 10, "velocity": 80}, {"time": 102141, "pitch": 63, "duration": 10, "velocity": 80}, {"time": 102141, "pitch": 67, "duration": 10, "velocity": 90}, {"time": 102242, "pitch": 65, "duration": 140, "velocity": 100}, {"time": 102242, "pitch": 77, "duration": 140, "velocity": 110}, {"time": 102382, "pitch": 65, "duration": 100, "velocity": 92}, {"time": 102382, "pitch": 77, "duration": 100, "velocity": 100}, {"time": 102482, "pitch": 65, "duration": 10, "velocity": 100}, {"time": 102482, "pitch": 77, "duration": 10, "velocity": 110}, {"time": 102621, "pitch": 65, "duration": 100, "velocity": 92}, {"time": 102621, "pitch": 77, "duration": 100, "velocity": 100}, {"time": 102721, "pitch": 65, "duration": 10, "velocity": 100}, {"time": 102721, "pitch": 77, "duration": 10, "velocity": 110}, {"time": 102860, "pitch": 65, "duration": 100, "velocity": 92}, {"time": 102860, "pitch": 77, "duration": 100, "velocity": 100}, {"time": 102960, "pitch": 65, "duration": 239, "velocity": 100}, {"time": 102960, "pitch": 77, "duration": 239, "velocity": 110}, {"time": 103199, "pitch": 58, "duration": 10, "velocity": 100}, {"time": 103199, "pitch": 62, "duration": 10, "velocity": 90}, {"time": 103199, "pitch": 65, "duration": 10, "velocity": 90}, {"time": 103199, "pitch": 70, "duration": 10, "velocity": 100}, {"time": 103339, "pitch": 58, "duration": 10, "velocity": 90}, {"time": 103339, "pitch": 62, "duration": 10, "velocity": 80}, {"time": 103339, "pitch": 65, "duration": 10, "velocity": 80}, {"time": 103339, "pitch": 70, "duration": 10, "velocity": 90}, {"time": 103438, "pitch": 58, "duration": 120, "velocity": 80}, {"time": 103438, "pitch": 62, "duration": 130, "velocity": 70}, {"time": 103448, "pitch": 65, "duration": 130, "velocity": 70}, {"time": 103448, "pitch": 70, "duration": 130, "velocity": 80}, {"time": 103578, "pitch": 65, "duration": 100, "velocity": 90}, {"time": 103578, "pitch": 70, "duration": 100, "velocity": 100}, {"time": 103588, "pitch": 58, "duration": 90, "velocity": 100}, {"time": 103588, "pitch": 62, "duration": 90, "velocity": 90}, {"time": 103678, "pitch": 58, "duration": 131, "velocity": 110}, {"time": 103678, "pitch": 62, "duration": 131, "velocity": 100}, {"time": 103688, "pitch": 65, "duration": 131, "velocity": 100}, {"time": 103688, "pitch": 70, "duration": 131, "velocity": 110}, {"time": 103819, "pitch": 65, "duration": 101, "velocity": 80}, {"time": 103819, "pitch": 70, "duration": 101, "velocity": 90}, {"time": 103829, "pitch": 58, "duration": 91, "velocity": 90}, {"time": 103829, "pitch": 62, "duration": 91, "velocity": 80}, {"time": 103920, "pitch": 58, "duration": 10, "velocity": 105}, {"time": 103920, "pitch": 62, "duration": 10, "velocity": 95}, {"time": 103920, "pitch": 65, "duration": 10, "velocity": 95}, {"time": 103920, "pitch": 70, "duration": 10, "velocity": 105}, {"time": 104062, "pitch": 58, "duration": 10, "velocity": 90}, {"time": 104062, "pitch": 62, "duration": 10, "velocity": 80}, {"time": 104062, "pitch": 65, "duration": 10, "velocity": 80}, {"time": 104062, "pitch": 70, "duration": 10, "velocity": 90}, {"time": 104163, "pitch": 57, "duration": 10, "velocity": 90}, {"time": 104163, "pitch": 60, "duration": 10, "velocity": 80}, {"time": 104163, "pitch": 65, "duration": 10, "velocity": 80}, {"time": 104163, "pitch": 69, "duration": 10, "velocity": 90}, {"time": 104302, "pitch": 57, "duration": 10, "velocity": 80}, {"time": 104302, "pitch": 60, "duration": 10, "velocity": 70}, {"time": 104302, "pitch": 65, "duration": 10, "velocity": 70}, {"time": 104302, "pitch": 69, "duration": 10, "velocity": 80}, {"time": 104402, "pitch": 57, "duration": 120, "velocity": 80}, {"time": 104402, "pitch": 60, "duration": 130, "velocity": 70}, {"time": 104412, "pitch": 65, "duration": 130, "velocity": 70}, {"time": 104412, "pitch": 69, "duration": 130, "velocity": 80}, {"time": 104542, "pitch": 65, "duration": 99, "velocity": 90}, {"time": 104542, "pitch": 69, "duration": 99, "velocity": 100}, {"time": 104552, "pitch": 57, "duration": 89, "velocity": 100}, {"time": 104552, "pitch": 60, "duration": 89, "velocity": 90}, {"time": 104641, "pitch": 57, "duration": 130, "velocity": 110}, {"time": 104641, "pitch": 60, "duration": 130, "velocity": 100}, {"time": 104651, "pitch": 65, "duration": 130, "velocity": 100}, {"time": 104651, "pitch": 69, "duration": 130, "velocity": 110}, {"time": 104781, "pitch": 65, "duration": 99, "velocity": 80}, {"time": 104781, "pitch": 69, "duration": 99, "velocity": 90}, {"time": 104791, "pitch": 57, "duration": 89, "velocity": 90}, {"time": 104791, "pitch": 60, "duration": 89, "velocity": 80}, {"time": 104880, "pitch": 57, "duration": 10, "velocity": 105}, {"time": 104880, "pitch": 60, "duration": 10, "velocity": 95}, {"time": 104880, "pitch": 65, "duration": 10, "velocity": 95}, {"time": 104880, "pitch": 69, "duration": 10, "velocity": 105}, {"time": 105020, "pitch": 57, "duration": 10, "velocity": 90}, {"time": 105020, "pitch": 60, "duration": 10, "velocity": 80}, {"time": 105020, "pitch": 65, "duration": 10, "velocity": 80}, {"time": 105020, "pitch": 69, "duration": 10, "velocity": 90}, {"time": 105120, "pitch": 55, "duration": 10, "velocity": 100}, {"time": 105120, "pitch": 58, "duration": 10, "velocity": 90}, {"time": 105120, "pitch": 62, "duration": 10, "velocity": 90}, {"time": 105120, "pitch": 67, "duration": 10, "velocity": 100}, {"time": 105259, "pitch": 55, "duration": 10, "velocity": 90}, {"time": 105259, "pitch": 58, "duration": 10, "velocity": 80}, {"time": 105259, "pitch": 62, "duration": 10, "velocity": 80}, {"time": 105259, "pitch": 67, "duration": 10, "velocity": 90}, {"time": 105359, "pitch": 55, "duration": 119, "velocity": 80}, {"time": 105359, "pitch": 58, "duration": 129, "velocity": 70}, {"time": 105369, "pitch": 62, "duration": 129, "velocity": 70}, {"time": 105369, "pitch": 67, "duration": 129, "velocity": 80}, {"time": 105498, "pitch": 62, "duration": 100, "velocity": 90}, {"time": 105498, "pitch": 67, "duration": 100, "velocity": 100}, {"time": 105508, "pitch": 55, "duration": 90, "velocity": 100}, {"time": 105508, "pitch": 58, "duration": 90, "velocity": 90}, {"time": 105598, "pitch": 55, "duration": 131, "velocity": 110}, {"time": 105598, "pitch": 58, "duration": 131, "velocity": 100}, {"time": 105608, "pitch": 62, "duration": 132, "velocity": 100}, {"time": 105608, "pitch": 67, "duration": 132, "velocity": 110}, {"time": 105740, "pitch": 62, "duration": 101, "velocity": 80}, {"time": 105740, "pitch": 67, "duration": 101, "velocity": 90}, {"time": 105750, "pitch": 55, "duration": 91, "velocity": 90}, {"time": 105750, "pitch": 58, "duration": 91, "velocity": 80}, {"time": 105841, "pitch": 55, "duration": 10, "velocity": 105}, {"time": 105841, "pitch": 58, "duration": 10, "velocity": 95}, {"time": 105841, "pitch": 62, "duration": 10, "velocity": 95}, {"time": 105841, "pitch": 67, "duration": 10, "velocity": 105}, {"time": 105982, "pitch": 55, "duration": 10, "velocity": 90}, {"time": 105982, "pitch": 58, "duration": 10, "velocity": 80}, {"time": 105982, "pitch": 62, "duration": 10, "velocity": 80}, {"time": 105982, "pitch": 67, "duration": 10, "velocity": 90}, {"time": 106083, "pitch": 53, "duration": 10, "velocity": 90}, {"time": 106083, "pitch": 58, "duration": 10, "velocity": 80}, {"time": 106083, "pitch": 62, "duration": 10, "velocity": 80}, {"time": 106083, "pitch": 68, "duration": 10, "velocity": 90}, {"time": 106223, "pitch": 53, "duration": 10, "velocity": 80}, {"time": 106223, "pitch": 58, "duration": 10, "velocity": 70}, {"time": 106223, "pitch": 62, "duration": 10, "velocity": 70}, {"time": 106223, "pitch": 68, "duration": 10, "velocity": 80}, {"time": 106322, "pitch": 53, "duration": 120, "velocity": 80}, {"time": 106322, "pitch": 58, "duration": 130, "velocity": 70}, {"time": 106332, "pitch": 62, "duration": 130, "velocity": 70}, {"time": 106332, "pitch": 68, "duration": 130, "velocity": 80}, {"time": 106462, "pitch": 62, "duration": 100, "velocity": 90}, {"time": 106462, "pitch": 68, "duration": 100, "velocity": 100}, {"time": 106472, "pitch": 53, "duration": 90, "velocity": 100}, {"time": 106472, "pitch": 58, "duration": 90, "velocity": 90}, {"time": 106562, "pitch": 53, "duration": 129, "velocity": 110}, {"time": 106562, "pitch": 58, "duration": 129, "velocity": 100}, {"time": 106572, "pitch": 62, "duration": 129, "velocity": 100}, {"time": 106572, "pitch": 68, "duration": 129, "velocity": 110}, {"time": 106701, "pitch": 62, "duration": 100, "velocity": 80}, {"time": 106701, "pitch": 68, "duration": 100, "velocity": 90}, {"time": 106711, "pitch": 53, "duration": 90, "velocity": 90}, {"time": 106711, "pitch": 58, "duration": 90, "velocity": 80}, {"time": 106801, "pitch": 53, "duration": 10, "velocity": 105}, {"time": 106801, "pitch": 58, "duration": 10, "velocity": 95}, {"time": 106801, "pitch": 62, "duration": 10, "velocity": 95}, {"time": 106801, "pitch": 68, "duration": 10, "velocity": 105}, {"time": 106940, "pitch": 53, "duration": 10, "velocity": 90}, {"time": 106940, "pitch": 58, "duration": 10, "velocity": 80}, {"time": 106940, "pitch": 62, "duration": 10, "velocity": 80}, {"time": 106940, "pitch": 68, "duration": 10, "velocity": 90}, {"time": 107040, "pitch": 58, "duration": 10, "velocity": 100}, {"time": 107040, "pitch": 63, "duration": 10, "velocity": 90}, {"time": 107040, "pitch": 67, "duration": 10, "velocity": 90}, {"time": 107040, "pitch": 70, "duration": 10, "velocity": 100}, {"time": 107180, "pitch": 58, "duration": 10, "velocity": 90}, {"time": 107180, "pitch": 63, "duration": 10, "velocity": 80}, {"time": 107180, "pitch": 67, "duration": 10, "velocity": 80}, {"time": 107180, "pitch": 70, "duration": 10, "velocity": 90}, {"time": 107279, "pitch": 58, "duration": 120, "velocity": 80}, {"time": 107279, "pitch": 63, "duration": 130, "velocity": 70}, {"time": 107289, "pitch": 67, "duration": 130, "velocity": 70}, {"time": 107289, "pitch": 70, "duration": 130, "velocity": 80}, {"time": 107419, "pitch": 67, "duration": 99, "velocity": 90}, {"time": 107419, "pitch": 70, "duration": 99, "velocity": 100}, {"time": 107429, "pitch": 58, "duration": 89, "velocity": 100}, {"time": 107429, "pitch": 63, "duration": 89, "velocity": 90}, {"time": 107518, "pitch": 58, "duration": 130, "velocity": 110}, {"time": 107518, "pitch": 63, "duration": 130, "velocity": 100}, {"time": 107528, "pitch": 67, "duration": 130, "velocity": 100}, {"time": 107528, "pitch": 70, "duration": 130, "velocity": 110}, {"time": 107658, "pitch": 67, "duration": 100, "velocity": 80}, {"time": 107658, "pitch": 70, "duration": 100, "velocity": 90}, {"time": 107668, "pitch": 58, "duration": 90, "velocity": 90}, {"time": 107668, "pitch": 63, "duration": 90, "velocity": 80}, {"time": 107758, "pitch": 58, "duration": 10, "velocity": 105}, {"time": 107758, "pitch": 63, "duration": 10, "velocity": 95}, {"time": 107758, "pitch": 67, "duration": 10, "velocity": 95}, {"time": 107758, "pitch": 70, "duration": 10, "velocity": 105}, {"time": 107897, "pitch": 58, "duration": 10, "velocity": 90}, {"time": 107897, "pitch": 63, "duration": 10, "velocity": 80}, {"time": 107897, "pitch": 67, "duration": 10, "velocity": 80}, {"time": 107897, "pitch": 70, "duration": 10, "velocity": 90}, {"time": 107997, "pitch": 58, "duration": 10, "velocity": 100}, {"time": 107997, "pitch": 62, "duration": 10, "velocity": 90}, {"time": 107997, "pitch": 65, "duration": 10, "velocity": 90}, {"time": 107997, "pitch": 70, "duration": 10, "velocity": 100}, {"time": 108138, "pitch": 58, "duration": 10, "velocity": 90}, {"time": 108138, "pitch": 62, "duration": 10, "velocity": 80}, {"time": 108138, "pitch": 65, "duration": 10, "velocity": 80}, {"time": 108138, "pitch": 70, "duration": 10, "velocity": 90}, {"time": 108239, "pitch": 58, "duration": 122, "velocity": 80}, {"time": 108239, "pitch": 62, "duration": 132, "velocity": 70}, {"time": 108250, "pitch": 65, "duration": 131, "velocity": 70}, {"time": 108250, "pitch": 70, "duration": 131, "velocity": 80}, {"time": 108381, "pitch": 65, "duration": 101, "velocity": 90}, {"time": 108381, "pitch": 70, "duration": 101, "velocity": 100}, {"time": 108391, "pitch": 58, "duration": 91, "velocity": 100}, {"time": 108391, "pitch": 62, "duration": 91, "velocity": 90}, {"time": 108482, "pitch": 58, "duration": 130, "velocity": 110}, {"time": 108482, "pitch": 62, "duration": 130, "velocity": 100}, {"time": 108492, "pitch": 65, "duration": 130, "velocity": 100}, {"time": 108492, "pitch": 70, "duration": 130, "velocity": 110}, {"time": 108622, "pitch": 65, "duration": 99, "velocity": 80}, {"time": 108622, "pitch": 70, "duration": 99, "velocity": 90}, {"time": 108632, "pitch": 58, "duration": 89, "velocity": 90}, {"time": 108632, "pitch": 62, "duration": 89, "velocity": 80}, {"time": 108721, "pitch": 58, "duration": 10, "velocity": 105}, {"time": 108721, "pitch": 62, "duration": 10, "velocity": 95}, {"time": 108721, "pitch": 65, "duration": 10, "velocity": 95}, {"time": 108721, "pitch": 70, "duration": 10, "velocity": 105}, {"time": 108861, "pitch": 58, "duration": 10, "velocity": 90}, {"time": 108861, "pitch": 62, "duration": 10, "velocity": 80}, {"time": 108861, "pitch": 65, "duration": 10, "velocity": 80}, {"time": 108861, "pitch": 70, "duration": 10, "velocity": 90}, {"time": 108960, "pitch": 55, "duration": 10, "velocity": 100}, {"time": 108960, "pitch": 58, "duration": 10, "velocity": 90}, {"time": 108960, "pitch": 63, "duration": 10, "velocity": 90}, {"time": 108960, "pitch": 67, "duration": 10, "velocity": 100}, {"time": 109100, "pitch": 55, "duration": 10, "velocity": 90}, {"time": 109100, "pitch": 58, "duration": 10, "velocity": 80}, {"time": 109100, "pitch": 63, "duration": 10, "velocity": 80}, {"time": 109100, "pitch": 67, "duration": 10, "velocity": 90}, {"time": 109200, "pitch": 55, "duration": 119, "velocity": 80}, {"time": 109200, "pitch": 58, "duration": 129, "velocity": 70}, {"time": 109210, "pitch": 63, "duration": 129, "velocity": 70}, {"time": 109210, "pitch": 67, "duration": 129, "velocity": 80}, {"time": 109339, "pitch": 63, "duration": 100, "velocity": 90}, {"time": 109339, "pitch": 67, "duration": 100, "velocity": 100}, {"time": 109349, "pitch": 55, "duration": 90, "velocity": 100}, {"time": 109349, "pitch": 58, "duration": 90, "velocity": 90}, {"time": 109439, "pitch": 55, "duration": 129, "velocity": 110}, {"time": 109439, "pitch": 58, "duration": 129, "velocity": 100}, {"time": 109449, "pitch": 63, "duration": 129, "velocity": 100}, {"time": 109449, "pitch": 67, "duration": 129, "velocity": 110}, {"time": 109578, "pitch": 63, "duration": 100, "velocity": 80}, {"time": 109578, "pitch": 67, "duration": 100, "velocity": 90}, {"time": 109588, "pitch": 55, "duration": 90, "velocity": 90}, {"time": 109588, "pitch": 58, "duration": 90, "velocity": 80}, {"time": 109678, "pitch": 55, "duration": 10, "velocity": 105}, {"time": 109678, "pitch": 58, "duration": 10, "velocity": 95}, {"time": 109678, "pitch": 63, "duration": 10, "velocity": 95}, {"time": 109678, "pitch": 67, "duration": 10, "velocity": 105}, {"time": 109818, "pitch": 55, "duration": 10, "velocity": 90}, {"time": 109818, "pitch": 58, "duration": 10, "velocity": 80}, {"time": 109818, "pitch": 63, "duration": 10, "velocity": 80}, {"time": 109818, "pitch": 67, "duration": 10, "velocity": 90}, {"time": 109917, "pitch": 57, "duration": 10, "velocity": 100}, {"time": 109917, "pitch": 60, "duration": 10, "velocity": 90}, {"time": 109917, "pitch": 65, "duration": 10, "velocity": 90}, {"time": 109917, "pitch": 69, "duration": 10, "velocity": 100}, {"time": 110059, "pitch": 57, "duration": 10, "velocity": 90}, {"time": 110059, "pitch": 60, "duration": 10, "velocity": 80}, {"time": 110059, "pitch": 65, "duration": 10, "velocity": 80}, {"time": 110059, "pitch": 69, "duration": 10, "velocity": 90}, {"time": 110160, "pitch": 57, "duration": 121, "velocity": 80}, {"time": 110160, "pitch": 60, "duration": 131, "velocity": 70}, {"time": 110170, "pitch": 65, "duration": 131, "velocity": 70}, {"time": 110170, "pitch": 69, "duration": 131, "velocity": 80}, {"time": 110301, "pitch": 65, "duration": 101, "velocity": 90}, {"time": 110301, "pitch": 69, "duration": 101, "velocity": 100}, {"time": 110312, "pitch": 57, "duration": 90, "velocity": 100}, {"time": 110312, "pitch": 60, "duration": 90, "velocity": 90}, {"time": 110402, "pitch": 57, "duration": 130, "velocity": 110}, {"time": 110402, "pitch": 60, "duration": 130, "velocity": 100}, {"time": 110412, "pitch": 65, "duration": 130, "velocity": 100}, {"time": 110412, "pitch": 69, "duration": 130, "velocity": 110}, {"time": 110542, "pitch": 65, "duration": 100, "velocity": 80}, {"time": 110542, "pitch": 69, "duration": 100, "velocity": 90}, {"time": 110552, "pitch": 54, "duration": 90, "velocity": 90}, {"time": 110552, "pitch": 60, "duration": 90, "velocity": 80}, {"time": 110642, "pitch": 54, "duration": 10, "velocity": 105}, {"time": 110642, "pitch": 57, "duration": 10, "velocity": 95}, {"time": 110642, "pitch": 62, "duration": 10, "velocity": 95}, {"time": 110642, "pitch": 66, "duration": 10, "velocity": 105}, {"time": 110781, "pitch": 54, "duration": 10, "velocity": 90}, {"time": 110781, "pitch": 57, "duration": 10, "velocity": 80}, {"time": 110781, "pitch": 62, "duration": 10, "velocity": 80}, {"time": 110781, "pitch": 66, "duration": 10, "velocity": 90}, {"time": 110881, "pitch": 58, "duration": 139, "velocity": 100}, {"time": 110881, "pitch": 70, "duration": 139, "velocity": 110}, {"time": 111020, "pitch": 58, "duration": 100, "velocity": 92}, {"time": 111020, "pitch": 70, "duration": 100, "velocity": 100}, {"time": 111120, "pitch": 58, "duration": 10, "velocity": 100}, {"time": 111120, "pitch": 70, "duration": 10, "velocity": 110}, {"time": 111260, "pitch": 58, "duration": 10, "velocity": 92}, {"time": 111260, "pitch": 70, "duration": 10, "velocity": 100}, {"time": 111359, "pitch": 58, "duration": 140, "velocity": 100}, {"time": 111359, "pitch": 70, "duration": 140, "velocity": 110}, {"time": 111499, "pitch": 58, "duration": 99, "velocity": 92}, {"time": 111499, "pitch": 70, "duration": 99, "velocity": 100}, {"time": 111598, "pitch": 58, "duration": 10, "velocity": 100}, {"time": 111598, "pitch": 70, "duration": 10, "velocity": 110}, {"time": 111738, "pitch": 58, "duration": 10, "velocity": 92}, {"time": 111738, "pitch": 70, "duration": 10, "velocity": 100}, {"time": 111838, "pitch": 58, "duration": 141, "velocity": 100}, {"time": 111838, "pitch": 70, "duration": 141, "velocity": 110}, {"time": 111979, "pitch": 58, "duration": 101, "velocity": 92}, {"time": 111979, "pitch": 70, "duration": 101, "velocity": 100}, {"time": 112080, "pitch": 58, "duration": 10, "velocity": 100}, {"time": 112080, "pitch": 70, "duration": 10, "velocity": 110}, {"time": 112222, "pitch": 58, "duration": 10, "velocity": 92}, {"time": 112222, "pitch": 70, "duration": 10, "velocity": 100}, {"time": 112323, "pitch": 58, "duration": 139, "velocity": 100}, {"time": 112323, "pitch": 70, "duration": 139, "velocity": 110}, {"time": 112462, "pitch": 58, "duration": 100, "velocity": 92}, {"time": 112462, "pitch": 70, "duration": 100, "velocity": 100}, {"time": 112562, "pitch": 58, "duration": 10, "velocity": 100}, {"time": 112562, "pitch": 70, "duration": 10, "velocity": 110}, {"time": 112702, "pitch": 58, "duration": 10, "velocity": 92}, {"time": 112702, "pitch": 70, "duration": 10, "velocity": 100}, {"time": 112801, "pitch": 58, "duration": 140, "velocity": 100}, {"time": 112801, "pitch": 70, "duration": 140, "velocity": 110}, {"time": 112941, "pitch": 58, "duration": 99, "velocity": 92}, {"time": 112941, "pitch": 70, "duration": 99, "velocity": 100}, {"time": 113040, "pitch": 58, "duration": 10, "velocity": 100}, {"time": 113040, "pitch": 70, "duration": 10, "velocity": 110}, {"time": 113180, "pitch": 58, "duration": 10, "velocity": 92}, {"time": 113180, "pitch": 70, "duration": 10, "velocity": 100}, {"time": 113280, "pitch": 58, "duration": 139, "velocity": 100}, {"time": 113280, "pitch": 70, "duration": 139, "velocity": 110}, {"time": 113419, "pitch": 58, "duration": 100, "velocity": 92}, {"time": 113419, "pitch": 70, "duration": 100, "velocity": 100}, {"time": 113519, "pitch": 58, "duration": 10, "velocity": 100}, {"time": 113519, "pitch": 70, "duration": 10, "velocity": 110}, {"time": 113658, "pitch": 58, "duration": 10, "velocity": 92}, {"time": 113658, "pitch": 70, "duration": 10, "velocity": 100}, {"time": 113758, "pitch": 58, "duration": 142, "velocity": 100}, {"time": 113758, "pitch": 70, "duration": 142, "velocity": 110}, {"time": 113900, "pitch": 58, "duration": 101, "velocity": 92}, {"time": 113900, "pitch": 70, "duration": 101, "velocity": 100}, {"time": 114001, "pitch": 58, "duration": 10, "velocity": 100}, {"time": 114001, "pitch": 70, "duration": 10, "velocity": 110}, {"time": 114142, "pitch": 58, "duration": 10, "velocity": 92}, {"time": 114142, "pitch": 70, "duration": 10, "velocity": 100}, {"time": 114243, "pitch": 58, "duration": 140, "velocity": 100}, {"time": 114243, "pitch": 70, "duration": 140, "velocity": 110}, {"time": 114383, "pitch": 58, "duration": 100, "velocity": 92}, {"time": 114383, "pitch": 70, "duration": 100, "velocity": 100}, {"time": 114483, "pitch": 58, "duration": 9, "velocity": 100}, {"time": 114483, "pitch": 70, "duration": 9, "velocity": 110}, {"time": 114622, "pitch": 58, "duration": 10, "velocity": 92}, {"time": 114622, "pitch": 70, "duration": 10, "velocity": 100}, {"time": 114722, "pitch": 58, "duration": 139, "velocity": 100}, {"time": 114722, "pitch": 70, "duration": 139, "velocity": 110}, {"time": 114861, "pitch": 58, "duration": 100, "velocity": 92}, {"time": 114861, "pitch": 70, "duration": 100, "velocity": 100}, {"time": 114961, "pitch": 58, "duration": 10, "velocity": 100}, {"time": 114961, "pitch": 70, "duration": 10, "velocity": 110}, {"time": 115100, "pitch": 58, "duration": 10, "velocity": 92}, {"time": 115100, "pitch": 70, "duration": 10, "velocity": 100}, {"time": 115200, "pitch": 58, "duration": 140, "velocity": 100}, {"time": 115200, "pitch": 70, "duration": 140, "velocity": 110}, {"time": 115340, "pitch": 58, "duration": 99, "velocity": 92}, {"time": 115340, "pitch": 70, "duration": 99, "velocity": 100}, {"time": 115439, "pitch": 58, "duration": 10, "velocity": 100}, {"time": 115439, "pitch": 70, "duration": 10, "velocity": 110}, {"time": 115579, "pitch": 58, "duration": 10, "velocity": 92}, {"time": 115579, "pitch": 70, "duration": 10, "velocity": 100}, {"time": 115679, "pitch": 58, "duration": 139, "velocity": 100}, {"time": 115679, "pitch": 70, "duration": 139, "velocity": 110}, {"time": 115818, "pitch": 58, "duration": 100, "velocity": 92}, {"time": 115818, "pitch": 70, "duration": 100, "velocity": 100}, {"time": 115918, "pitch": 58, "duration": 10, "velocity": 100}, {"time": 115918, "pitch": 70, "duration": 10, "velocity": 110}, {"time": 116057, "pitch": 58, "duration": 10, "velocity": 92}, {"time": 116057, "pitch": 70, "duration": 10, "velocity": 100}, {"time": 116157, "pitch": 58, "duration": 141, "velocity": 100}, {"time": 116157, "pitch": 70, "duration": 141, "velocity": 110}, {"time": 116298, "pitch": 58, "duration": 102, "velocity": 92}, {"time": 116298, "pitch": 70, "duration": 102, "velocity": 100}, {"time": 116400, "pitch": 58, "duration": 10, "velocity": 100}, {"time": 116400, "pitch": 70, "duration": 10, "velocity": 110}, {"time": 116541, "pitch": 58, "duration": 10, "velocity": 92}, {"time": 116541, "pitch": 70, "duration": 10, "velocity": 100}, {"time": 116642, "pitch": 58, "duration": 140, "velocity": 100}, {"time": 116642, "pitch": 70, "duration": 140, "velocity": 110}, {"time": 116782, "pitch": 58, "duration": 99, "velocity": 92}, {"time": 116782, "pitch": 70, "duration": 99, "velocity": 100}, {"time": 116881, "pitch": 58, "duration": 10, "velocity": 100}, {"time": 116881, "pitch": 70, "duration": 10, "velocity": 110}, {"time": 117021, "pitch": 58, "duration": 10, "velocity": 92}, {"time": 117021, "pitch": 70, "duration": 10, "velocity": 100}, {"time": 117121, "pitch": 58, "duration": 139, "velocity": 100}, {"time": 117121, "pitch": 70, "duration": 139, "velocity": 110}, {"time": 117260, "pitch": 58, "duration": 100, "velocity": 92}, {"time": 117260, "pitch": 70, "duration": 100, "velocity": 100}, {"time": 117360, "pitch": 58, "duration": 10, "velocity": 100}, {"time": 117360, "pitch": 70, "duration": 10, "velocity": 110}, {"time": 117499, "pitch": 58, "duration": 10, "velocity": 92}, {"time": 117499, "pitch": 70, "duration": 10, "velocity": 100}, {"time": 117599, "pitch": 58, "duration": 139, "velocity": 100}, {"time": 117599, "pitch": 70, "duration": 139, "velocity": 110}, {"time": 117738, "pitch": 58, "duration": 100, "velocity": 92}, {"time": 117738, "pitch": 70, "duration": 100, "velocity": 100}, {"time": 117838, "pitch": 58, "duration": 10, "velocity": 100}, {"time": 117838, "pitch": 70, "duration": 10, "velocity": 110}, {"time": 117978, "pitch": 58, "duration": 10, "velocity": 92}, {"time": 117978, "pitch": 70, "duration": 10, "velocity": 100}, {"time": 118077, "pitch": 58, "duration": 142, "velocity": 100}, {"time": 118077, "pitch": 70, "duration": 142, "velocity": 110}, {"time": 118219, "pitch": 58, "duration": 101, "velocity": 92}, {"time": 118219, "pitch": 70, "duration": 101, "velocity": 100}, {"time": 118320, "pitch": 58, "duration": 10, "velocity": 100}, {"time": 118320, "pitch": 70, "duration": 10, "velocity": 110}, {"time": 118461, "pitch": 58, "duration": 11, "velocity": 92}, {"time": 118461, "pitch": 70, "duration": 11, "velocity": 100}, {"time": 121201, "pitch": 58, "duration": 99, "velocity": 90}, {"time": 121440, "pitch": 62, "duration": 239, "velocity": 100}, {"time": 121679, "pitch": 60, "duration": 140, "velocity": 100}, {"time": 121819, "pitch": 55, "duration": 99, "velocity": 90}, {"time": 121918, "pitch": 58, "duration": 223, "velocity": 100}, {"time": 122161, "pitch": 55, "duration": 141, "velocity": 90}, {"time": 122302, "pitch": 53, "duration": 81, "velocity": 90}, {"time": 125041, "pitch": 58, "duration": 100, "velocity": 90}, {"time": 125281, "pitch": 60, "duration": 239, "velocity": 100}, {"time": 125420, "pitch": 63, "duration": 199, "velocity": 100}, {"time": 125759, "pitch": 60, "duration": 140, "velocity": 100}, {"time": 125899, "pitch": 58, "duration": 318, "velocity": 90}, {"time": 128882, "pitch": 58, "duration": 100, "velocity": 90}, {"time": 129121, "pitch": 62, "duration": 240, "velocity": 100}, {"time": 129361, "pitch": 60, "duration": 139, "velocity": 100}, {"time": 129500, "pitch": 55, "duration": 100, "velocity": 90}, {"time": 129600, "pitch": 58, "duration": 219, "velocity": 100}, {"time": 129839, "pitch": 55, "duration": 140, "velocity": 90}, {"time": 129979, "pitch": 53, "duration": 79, "velocity": 90}, {"time": 132720, "pitch": 58, "duration": 101, "velocity": 90}, {"time": 132962, "pitch": 60, "duration": 240, "velocity": 100}, {"time": 133102, "pitch": 63, "duration": 199, "velocity": 100}, {"time": 133441, "pitch": 60, "duration": 139, "velocity": 100}, {"time": 133580, "pitch": 58, "duration": 319, "velocity": 90}, {"time": 133919, "pitch": 55, "duration": 130, "velocity": 110}, {"time": 133919, "pitch": 58, "duration": 130, "velocity": 100}, {"time": 133929, "pitch": 63, "duration": 130, "velocity": 100}, {"time": 133929, "pitch": 67, "duration": 130, "velocity": 110}, {"time": 134398, "pitch": 55, "duration": 131, "velocity": 110}, {"time": 134398, "pitch": 58, "duration": 131, "velocity": 100}, {"time": 134408, "pitch": 63, "duration": 131, "velocity": 100}, {"time": 134408, "pitch": 67, "duration": 131, "velocity": 110}, {"time": 134883, "pitch": 55, "duration": 129, "velocity": 110}, {"time": 134883, "pitch": 58, "duration": 129, "velocity": 100}, {"time": 134893, "pitch": 63, "duration": 129, "velocity": 100}, {"time": 134893, "pitch": 67, "duration": 129, "velocity": 110}, {"time": 135122, "pitch": 55, "duration": 130, "velocity": 110}, {"time": 135122, "pitch": 58, "duration": 130, "velocity": 100}, {"time": 135132, "pitch": 63, "duration": 129, "velocity": 100}, {"time": 135132, "pitch": 67, "duration": 129, "velocity": 110}, {"time": 135361, "pitch": 55, "duration": 349, "velocity": 110}, {"time": 135361, "pitch": 58, "duration": 349, "velocity": 100}, {"time": 135371, "pitch": 63, "duration": 349, "velocity": 100}, {"time": 135371, "pitch": 67, "duration": 349, "velocity": 110}, {"time": 135840, "pitch": 58, "duration": 129, "velocity": 110}, {"time": 135840, "pitch": 62, "duration": 129, "velocity": 100}, {"time": 135850, "pitch": 65, "duration": 129, "velocity": 100}, {"time": 135850, "pitch": 70, "duration": 129, "velocity": 110}, {"time": 136318, "pitch": 58, "duration": 131, "velocity": 110}, {"time": 136318, "pitch": 62, "duration": 131, "velocity": 100}, {"time": 136328, "pitch": 65, "duration": 131, "velocity": 100}, {"time": 136328, "pitch": 70, "duration": 131, "velocity": 110}, {"time": 136803, "pitch": 58, "duration": 130, "velocity": 110}, {"time": 136803, "pitch": 62, "duration": 130, "velocity": 100}, {"time": 136813, "pitch": 65, "duration": 130, "velocity": 100}, {"time": 136813, "pitch": 70, "duration": 130, "velocity": 110}, {"time": 137042, "pitch": 58, "duration": 130, "velocity": 110}, {"time": 137042, "pitch": 62, "duration": 130, "velocity": 100}, {"time": 137052, "pitch": 65, "duration": 130, "velocity": 100}, {"time": 137052, "pitch": 70, "duration": 130, "velocity": 110}, {"time": 137282, "pitch": 58, "duration": 348, "velocity": 110}, {"time": 137282, "pitch": 62, "duration": 348, "velocity": 100}, {"time": 137292, "pitch": 65, "duration": 348, "velocity": 100}, {"time": 137292, "pitch": 70, "duration": 348, "velocity": 110}, {"time": 137760, "pitch": 53, "duration": 130, "velocity": 110}, {"time": 137760, "pitch": 58, "duration": 130, "velocity": 100}, {"time": 137770, "pitch": 60, "duration": 129, "velocity": 100}, {"time": 137770, "pitch": 65, "duration": 129, "velocity": 110}, {"time": 138238, "pitch": 53, "duration": 130, "velocity": 110}, {"time": 138238, "pitch": 58, "duration": 130, "velocity": 100}, {"time": 138248, "pitch": 60, "duration": 130, "velocity": 100}, {"time": 138248, "pitch": 65, "duration": 130, "velocity": 110}, {"time": 138717, "pitch": 51, "duration": 131, "velocity": 110}, {"time": 138717, "pitch": 57, "duration": 131, "velocity": 100}, {"time": 138727, "pitch": 60, "duration": 131, "velocity": 100}, {"time": 138727, "pitch": 66, "duration": 131, "velocity": 110}, {"time": 138959, "pitch": 51, "duration": 132, "velocity": 110}, {"time": 138959, "pitch": 57, "duration": 132, "velocity": 100}, {"time": 138969, "pitch": 60, "duration": 132, "velocity": 100}, {"time": 138969, "pitch": 66, "duration": 132, "velocity": 110}, {"time": 139202, "pitch": 51, "duration": 349, "velocity": 110}, {"time": 139202, "pitch": 57, "duration": 349, "velocity": 100}, {"time": 139212, "pitch": 60, "duration": 349, "velocity": 100}, {"time": 139212, "pitch": 66, "duration": 349, "velocity": 110}, {"time": 139680, "pitch": 55, "duration": 10, "velocity": 100}, {"time": 139680, "pitch": 58, "duration": 10, "velocity": 90}, {"time": 139680, "pitch": 62, "duration": 10, "velocity": 90}, {"time": 139680, "pitch": 67, "duration": 10, "velocity": 100}, {"time": 139820, "pitch": 55, "duration": 10, "velocity": 90}, {"time": 139820, "pitch": 58, "duration": 10, "velocity": 80}, {"time": 139820, "pitch": 62, "duration": 10, "velocity": 80}, {"time": 139820, "pitch": 67, "duration": 10, "velocity": 90}, {"time": 139920, "pitch": 55, "duration": 119, "velocity": 110}, {"time": 139920, "pitch": 58, "duration": 129, "velocity": 100}, {"time": 139930, "pitch": 62, "duration": 129, "velocity": 100}, {"time": 139930, "pitch": 67, "duration": 129, "velocity": 110}, {"time": 140059, "pitch": 62, "duration": 100, "velocity": 90}, {"time": 140059, "pitch": 67, "duration": 100, "velocity": 100}, {"time": 140069, "pitch": 55, "duration": 90, "velocity": 100}, {"time": 140069, "pitch": 58, "duration": 90, "velocity": 90}, {"time": 140159, "pitch": 55, "duration": 10, "velocity": 100}, {"time": 140159, "pitch": 58, "duration": 10, "velocity": 90}, {"time": 140159, "pitch": 62, "duration": 10, "velocity": 90}, {"time": 140159, "pitch": 67, "duration": 10, "velocity": 100}, {"time": 140298, "pitch": 55, "duration": 10, "velocity": 90}, {"time": 140298, "pitch": 58, "duration": 10, "velocity": 80}, {"time": 140298, "pitch": 62, "duration": 10, "velocity": 80}, {"time": 140298, "pitch": 67, "duration": 10, "velocity": 90}, {"time": 140398, "pitch": 55, "duration": 120, "velocity": 110}, {"time": 140398, "pitch": 58, "duration": 130, "velocity": 100}, {"time": 140408, "pitch": 62, "duration": 130, "velocity": 100}, {"time": 140408, "pitch": 67, "duration": 130, "velocity": 110}, {"time": 140538, "pitch": 62, "duration": 99, "velocity": 90}, {"time": 140538, "pitch": 67, "duration": 99, "velocity": 100}, {"time": 140547, "pitch": 55, "duration": 90, "velocity": 100}, {"time": 140547, "pitch": 58, "duration": 90, "velocity": 90}, {"time": 140637, "pitch": 55, "duration": 10, "velocity": 100}, {"time": 140637, "pitch": 58, "duration": 10, "velocity": 90}, {"time": 140637, "pitch": 62, "duration": 10, "velocity": 90}, {"time": 140637, "pitch": 67, "duration": 10, "velocity": 100}, {"time": 140779, "pitch": 55, "duration": 10, "velocity": 90}, {"time": 140779, "pitch": 58, "duration": 10, "velocity": 80}, {"time": 140779, "pitch": 62, "duration": 10, "velocity": 80}, {"time": 140779, "pitch": 67, "duration": 10, "velocity": 90}, {"time": 140880, "pitch": 55, "duration": 121, "velocity": 110}, {"time": 140880, "pitch": 58, "duration": 131, "velocity": 100}, {"time": 140890, "pitch": 62, "duration": 131, "velocity": 100}, {"time": 140890, "pitch": 67, "duration": 131, "velocity": 110}, {"time": 141021, "pitch": 62, "duration": 101, "velocity": 90}, {"time": 141021, "pitch": 67, "duration": 101, "velocity": 100}, {"time": 141031, "pitch": 55, "duration": 91, "velocity": 100}, {"time": 141031, "pitch": 58, "duration": 91, "velocity": 90}, {"time": 141122, "pitch": 55, "duration": 10, "velocity": 100}, {"time": 141122, "pitch": 58, "duration": 10, "velocity": 90}, {"time": 141122, "pitch": 62, "duration": 10, "velocity": 90}, {"time": 141122, "pitch": 67, "duration": 10, "velocity": 100}, {"time": 141262, "pitch": 55, "duration": 10, "velocity": 90}, {"time": 141262, "pitch": 58, "duration": 10, "velocity": 80}, {"time": 141262, "pitch": 62, "duration": 10, "velocity": 80}, {"time": 141262, "pitch": 67, "duration": 10, "velocity": 90}, {"time": 141362, "pitch": 55, "duration": 119, "velocity": 110}, {"time": 141362, "pitch": 58, "duration": 129, "velocity": 100}, {"time": 141372, "pitch": 62, "duration": 129, "velocity": 100}, {"time": 141372, "pitch": 67, "duration": 129, "velocity": 110}, {"time": 141501, "pitch": 62, "duration": 100, "velocity": 90}, {"time": 141501, "pitch": 67, "duration": 100, "velocity": 100}, {"time": 141511, "pitch": 55, "duration": 90, "velocity": 100}, {"time": 141511, "pitch": 58, "duration": 90, "velocity": 90}, {"time": 141601, "pitch": 58, "duration": 10, "velocity": 100}, {"time": 141601, "pitch": 63, "duration": 10, "velocity": 90}, {"time": 141601, "pitch": 67, "duration": 10, "velocity": 90}, {"time": 141601, "pitch": 70, "duration": 10, "velocity": 100}, {"time": 141740, "pitch": 58, "duration": 10, "velocity": 90}, {"time": 141740, "pitch": 63, "duration": 10, "velocity": 80}, {"time": 141740, "pitch": 67, "duration": 10, "velocity": 80}, {"time": 141740, "pitch": 70, "duration": 10, "velocity": 90}, {"time": 141840, "pitch": 58, "duration": 120, "velocity": 80}, {"time": 141840, "pitch": 63, "duration": 130, "velocity": 70}, {"time": 141850, "pitch": 67, "duration": 130, "velocity": 70}, {"time": 141850, "pitch": 70, "duration": 130, "velocity": 80}, {"time": 141980, "pitch": 67, "duration": 99, "velocity": 90}, {"time": 141980, "pitch": 70, "duration": 99, "velocity": 100}, {"time": 141990, "pitch": 58, "duration": 89, "velocity": 100}, {"time": 141990, "pitch": 63, "duration": 89, "velocity": 90}, {"time": 142079, "pitch": 58, "duration": 130, "velocity": 110}, {"time": 142079, "pitch": 63, "duration": 130, "velocity": 100}, {"time": 142089, "pitch": 67, "duration": 130, "velocity": 100}, {"time": 142089, "pitch": 70, "duration": 130, "velocity": 110}, {"time": 142219, "pitch": 67, "duration": 99, "velocity": 80}, {"time": 142219, "pitch": 70, "duration": 99, "velocity": 90}, {"time": 142229, "pitch": 58, "duration": 89, "velocity": 90}, {"time": 142229, "pitch": 63, "duration": 89, "velocity": 80}, {"time": 142318, "pitch": 58, "duration": 10, "velocity": 105}, {"time": 142318, "pitch": 63, "duration": 10, "velocity": 95}, {"time": 142318, "pitch": 67, "duration": 10, "velocity": 95}, {"time": 142318, "pitch": 70, "duration": 10, "velocity": 105}, {"time": 142458, "pitch": 58, "duration": 10, "velocity": 90}, {"time": 142458, "pitch": 63, "duration": 10, "velocity": 80}, {"time": 142458, "pitch": 67, "duration": 10, "velocity": 80}, {"time": 142458, "pitch": 70, "duration": 10, "velocity": 90}, {"time": 142558, "pitch": 58, "duration": 10, "velocity": 90}, {"time": 142558, "pitch": 63, "duration": 10, "velocity": 80}, {"time": 142558, "pitch": 67, "duration": 10, "velocity": 80}, {"time": 142558, "pitch": 70, "duration": 10, "velocity": 90}, {"time": 142699, "pitch": 58, "duration": 10, "velocity": 80}, {"time": 142699, "pitch": 63, "duration": 10, "velocity": 70}, {"time": 142699, "pitch": 67, "duration": 10, "velocity": 70}, {"time": 142699, "pitch": 70, "duration": 10, "velocity": 80}, {"time": 142800, "pitch": 58, "duration": 122, "velocity": 80}, {"time": 142800, "pitch": 63, "duration": 132, "velocity": 70}, {"time": 142810, "pitch": 67, "duration": 132, "velocity": 70}, {"time": 142810, "pitch": 70, "duration": 132, "velocity": 80}, {"time": 142942, "pitch": 67, "duration": 101, "velocity": 90}, {"time": 142942, "pitch": 70, "duration": 101, "velocity": 100}, {"time": 142952, "pitch": 58, "duration": 91, "velocity": 100}, {"time": 142952, "pitch": 63, "duration": 91, "velocity": 90}, {"time": 143043, "pitch": 58, "duration": 129, "velocity": 110}, {"time": 143043, "pitch": 63, "duration": 129, "velocity": 100}, {"time": 143053, "pitch": 67, "duration": 129, "velocity": 100}, {"time": 143053, "pitch": 70, "duration": 129, "velocity": 110}, {"time": 143182, "pitch": 67, "duration": 100, "velocity": 80}, {"time": 143182, "pitch": 70, "duration": 100, "velocity": 90}, {"time": 143192, "pitch": 58, "duration": 90, "velocity": 90}, {"time": 143192, "pitch": 63, "duration": 90, "velocity": 80}, {"time": 143282, "pitch": 58, "duration": 10, "velocity": 105}, {"time": 143282, "pitch": 63, "duration": 10, "velocity": 95}, {"time": 143282, "pitch": 67, "duration": 10, "velocity": 95}, {"time": 143282, "pitch": 70, "duration": 10, "velocity": 105}, {"time": 143422, "pitch": 58, "duration": 10, "velocity": 90}, {"time": 143422, "pitch": 63, "duration": 10, "velocity": 80}, {"time": 143422, "pitch": 67, "duration": 10, "velocity": 80}, {"time": 143422, "pitch": 70, "duration": 10, "velocity": 90}, {"time": 143521, "pitch": 58, "duration": 10, "velocity": 100}, {"time": 143521, "pitch": 62, "duration": 10, "velocity": 90}, {"time": 143521, "pitch": 65, "duration": 10, "velocity": 90}, {"time": 143521, "pitch": 70, "duration": 10, "velocity": 100}, {"time": 143661, "pitch": 58, "duration": 10, "velocity": 90}, {"time": 143661, "pitch": 62, "duration": 10, "velocity": 80}, {"time": 143661, "pitch": 65, "duration": 10, "velocity": 80}, {"time": 143661, "pitch": 70, "duration": 10, "velocity": 90}, {"time": 143760, "pitch": 58, "duration": 120, "velocity": 80}, {"time": 143760, "pitch": 62, "duration": 130, "velocity": 70}, {"time": 143770, "pitch": 65, "duration": 130, "velocity": 70}, {"time": 143770, "pitch": 70, "duration": 130, "velocity": 80}, {"time": 143900, "pitch": 65, "duration": 100, "velocity": 90}, {"time": 143900, "pitch": 70, "duration": 100, "velocity": 100}, {"time": 143910, "pitch": 58, "duration": 90, "velocity": 100}, {"time": 143910, "pitch": 62, "duration": 90, "velocity": 90}, {"time": 144000, "pitch": 58, "duration": 129, "velocity": 110}, {"time": 144000, "pitch": 62, "duration": 129, "velocity": 100}, {"time": 144010, "pitch": 65, "duration": 129, "velocity": 100}, {"time": 144010, "pitch": 70, "duration": 129, "velocity": 110}, {"time": 144139, "pitch": 65, "duration": 100, "velocity": 80}, {"time": 144139, "pitch": 70, "duration": 100, "velocity": 90}, {"time": 144149, "pitch": 58, "duration": 90, "velocity": 90}, {"time": 144149, "pitch": 62, "duration": 90, "velocity": 80}, {"time": 144239, "pitch": 58, "duration": 10, "velocity": 105}, {"time": 144239, "pitch": 62, "duration": 10, "velocity": 95}, {"time": 144239, "pitch": 65, "duration": 10, "velocity": 95}, {"time": 144239, "pitch": 70, "duration": 10, "velocity": 105}, {"time": 144378, "pitch": 58, "duration": 10, "velocity": 90}, {"time": 144378, "pitch": 62, "duration": 10, "velocity": 80}, {"time": 144378, "pitch": 65, "duration": 10, "velocity": 80}, {"time": 144378, "pitch": 70, "duration": 10, "velocity": 90}, {"time": 144478, "pitch": 58, "duration": 10, "velocity": 90}, {"time": 144478, "pitch": 62, "duration": 10, "velocity": 80}, {"time": 144478, "pitch": 65, "duration": 10, "velocity": 80}, {"time": 144478, "pitch": 70, "duration": 10, "velocity": 90}, {"time": 144620, "pitch": 58, "duration": 10, "velocity": 80}, {"time": 144620, "pitch": 62, "duration": 10, "velocity": 70}, {"time": 144620, "pitch": 65, "duration": 10, "velocity": 70}, {"time": 144620, "pitch": 70, "duration": 10, "velocity": 80}, {"time": 144721, "pitch": 58, "duration": 121, "velocity": 80}, {"time": 144721, "pitch": 62, "duration": 131, "velocity": 70}, {"time": 144731, "pitch": 65, "duration": 131, "velocity": 70}, {"time": 144731, "pitch": 70, "duration": 131, "velocity": 80}, {"time": 144862, "pitch": 65, "duration": 101, "velocity": 90}, {"time": 144862, "pitch": 70, "duration": 101, "velocity": 100}, {"time": 144872, "pitch": 58, "duration": 91, "velocity": 100}, {"time": 144872, "pitch": 62, "duration": 91, "velocity": 90}, {"time": 144963, "pitch": 58, "duration": 130, "velocity": 110}, {"time": 144963, "pitch": 62, "duration": 130, "velocity": 100}, {"time": 144973, "pitch": 65, "duration": 130, "velocity": 100}, {"time": 144973, "pitch": 70, "duration": 130, "velocity": 110}, {"time": 145103, "pitch": 65, "duration": 99, "velocity": 80}, {"time": 145103, "pitch": 70, "duration": 99, "velocity": 90}, {"time": 145113, "pitch": 58, "duration": 89, "velocity": 90}, {"time": 145113, "pitch": 62, "duration": 89, "velocity": 80}, {"time": 145202, "pitch": 58, "duration": 10, "velocity": 105}, {"time": 145202, "pitch": 62, "duration": 10, "velocity": 95}, {"time": 145202, "pitch": 65, "duration": 10, "velocity": 95}, {"time": 145202, "pitch": 70, "duration": 10, "velocity": 105}, {"time": 145342, "pitch": 58, "duration": 10, "velocity": 90}, {"time": 145342, "pitch": 62, "duration": 10, "velocity": 80}, {"time": 145342, "pitch": 65, "duration": 10, "velocity": 80}, {"time": 145342, "pitch": 70, "duration": 10, "velocity": 90}, {"time": 145442, "pitch": 55, "duration": 10, "velocity": 100}, {"time": 145442, "pitch": 58, "duration": 10, "velocity": 90}, {"time": 145442, "pitch": 63, "duration": 10, "velocity": 90}, {"time": 145442, "pitch": 67, "duration": 10, "velocity": 100}, {"time": 145581, "pitch": 55, "duration": 10, "velocity": 90}, {"time": 145581, "pitch": 58, "duration": 10, "velocity": 80}, {"time": 145581, "pitch": 63, "duration": 10, "velocity": 80}, {"time": 145581, "pitch": 67, "duration": 10, "velocity": 90}, {"time": 145681, "pitch": 55, "duration": 119, "velocity": 80}, {"time": 145681, "pitch": 58, "duration": 129, "velocity": 70}, {"time": 145691, "pitch": 63, "duration": 129, "velocity": 70}, {"time": 145691, "pitch": 67, "duration": 129, "velocity": 80}, {"time": 145820, "pitch": 63, "duration": 100, "velocity": 90}, {"time": 145820, "pitch": 67, "duration": 100, "velocity": 100}, {"time": 145830, "pitch": 55, "duration": 90, "velocity": 100}, {"time": 145830, "pitch": 58, "duration": 90, "velocity": 90}, {"time": 145920, "pitch": 55, "duration": 130, "velocity": 110}, {"time": 145920, "pitch": 58, "duration": 130, "velocity": 100}, {"time": 145930, "pitch": 63, "duration": 130, "velocity": 100}, {"time": 145930, "pitch": 67, "duration": 130, "velocity": 110}, {"time": 146060, "pitch": 63, "duration": 99, "velocity": 80}, {"time": 146060, "pitch": 67, "duration": 99, "velocity": 90}, {"time": 146070, "pitch": 55, "duration": 89, "velocity": 90}, {"time": 146070, "pitch": 58, "duration": 89, "velocity": 80}, {"time": 146159, "pitch": 55, "duration": 10, "velocity": 105}, {"time": 146159, "pitch": 58, "duration": 10, "velocity": 95}, {"time": 146159, "pitch": 63, "duration": 10, "velocity": 95}, {"time": 146159, "pitch": 67, "duration": 10, "velocity": 105}, {"time": 146299, "pitch": 55, "duration": 10, "velocity": 90}, {"time": 146299, "pitch": 58, "duration": 10, "velocity": 80}, {"time": 146299, "pitch": 63, "duration": 10, "velocity": 80}, {"time": 146299, "pitch": 67, "duration": 10, "velocity": 90}, {"time": 146398, "pitch": 55, "duration": 10, "velocity": 90}, {"time": 146398, "pitch": 58, "duration": 10, "velocity": 80}, {"time": 146398, "pitch": 63, "duration": 10, "velocity": 80}, {"time": 146398, "pitch": 67, "duration": 10, "velocity": 90}, {"time": 146538, "pitch": 55, "duration": 10, "velocity": 80}, {"time": 146538, "pitch": 58, "duration": 10, "velocity": 70}, {"time": 146538, "pitch": 63, "duration": 10, "velocity": 70}, {"time": 146538, "pitch": 67, "duration": 10, "velocity": 80}, {"time": 146638, "pitch": 55, "duration": 119, "velocity": 80}, {"time": 146638, "pitch": 58, "duration": 129, "velocity": 70}, {"time": 146648, "pitch": 63, "duration": 129, "velocity": 70}, {"time": 146648, "pitch": 67, "duration": 129, "velocity": 80}, {"time": 146777, "pitch": 63, "duration": 100, "velocity": 90}, {"time": 146777, "pitch": 67, "duration": 100, "velocity": 100}, {"time": 146787, "pitch": 55, "duration": 90, "velocity": 100}, {"time": 146787, "pitch": 58, "duration": 90, "velocity": 90}, {"time": 146877, "pitch": 55, "duration": 131, "velocity": 110}, {"time": 146877, "pitch": 58, "duration": 131, "velocity": 100}, {"time": 146887, "pitch": 63, "duration": 131, "velocity": 100}, {"time": 146887, "pitch": 67, "duration": 131, "velocity": 110}, {"time": 147018, "pitch": 63, "duration": 101, "velocity": 80}, {"time": 147018, "pitch": 67, "duration": 101, "velocity": 90}, {"time": 147028, "pitch": 55, "duration": 91, "velocity": 90}, {"time": 147028, "pitch": 58, "duration": 91, "velocity": 80}, {"time": 147119, "pitch": 55, "duration": 11, "velocity": 105}, {"time": 147119, "pitch": 58, "duration": 11, "velocity": 95}, {"time": 147119, "pitch": 63, "duration": 11, "velocity": 95}, {"time": 147119, "pitch": 67, "duration": 11, "velocity": 105}, {"time": 147261, "pitch": 55, "duration": 10, "velocity": 90}, {"time": 147261, "pitch": 58, "duration": 10, "velocity": 80}, {"time": 147261, "pitch": 63, "duration": 10, "velocity": 80}, {"time": 147261, "pitch": 67, "duration": 10, "velocity": 90}, {"time": 147362, "pitch": 56, "duration": 389, "velocity": 105}, {"time": 147362, "pitch": 60, "duration": 369, "velocity": 105}, {"time": 147362, "pitch": 63, "duration": 379, "velocity": 105}, {"time": 147362, "pitch": 67, "duration": 369, "velocity": 105}, {"time": 147840, "pitch": 55, "duration": 359, "velocity": 105}, {"time": 147840, "pitch": 58, "duration": 379, "velocity": 105}, {"time": 147840, "pitch": 62, "duration": 359, "velocity": 105}, {"time": 147840, "pitch": 65, "duration": 349, "velocity": 105}, {"time": 148319, "pitch": 53, "duration": 369, "velocity": 105}, {"time": 148319, "pitch": 56, "duration": 379, "velocity": 105}, {"time": 148319, "pitch": 60, "duration": 369, "velocity": 105}, {"time": 148319, "pitch": 63, "duration": 389, "velocity": 105}, {"time": 149040, "pitch": 57, "duration": 222, "velocity": 105}, {"time": 149040, "pitch": 60, "duration": 222, "velocity": 105}, {"time": 149040, "pitch": 65, "duration": 222, "velocity": 105}, {"time": 149283, "pitch": 54, "duration": 348, "velocity": 105}, {"time": 149283, "pitch": 58, "duration": 358, "velocity": 105}, {"time": 149283, "pitch": 61, "duration": 358, "velocity": 105}, {"time": 149283, "pitch": 65, "duration": 368, "velocity": 105}, {"time": 149761, "pitch": 56, "duration": 409, "velocity": 105}, {"time": 149761, "pitch": 60, "duration": 379, "velocity": 105}, {"time": 149761, "pitch": 63, "duration": 409, "velocity": 105}, {"time": 149761, "pitch": 65, "duration": 399, "velocity": 105}, {"time": 150239, "pitch": 54, "duration": 369, "velocity": 105}, {"time": 150239, "pitch": 58, "duration": 379, "velocity": 105}, {"time": 150239, "pitch": 61, "duration": 409, "velocity": 105}, {"time": 150239, "pitch": 65, "duration": 399, "velocity": 105}, {"time": 150718, "pitch": 56, "duration": 374, "velocity": 105}, {"time": 150718, "pitch": 60, "duration": 384, "velocity": 105}, {"time": 150718, "pitch": 63, "duration": 384, "velocity": 105}, {"time": 150718, "pitch": 65, "duration": 374, "velocity": 105}, {"time": 151203, "pitch": 58, "duration": 10, "velocity": 100}, {"time": 151203, "pitch": 62, "duration": 10, "velocity": 90}, {"time": 151203, "pitch": 65, "duration": 10, "velocity": 90}, {"time": 151203, "pitch": 70, "duration": 10, "velocity": 100}, {"time": 151342, "pitch": 58, "duration": 10, "velocity": 90}, {"time": 151342, "pitch": 62, "duration": 10, "velocity": 80}, {"time": 151342, "pitch": 65, "duration": 10, "velocity": 80}, {"time": 151342, "pitch": 70, "duration": 10, "velocity": 90}, {"time": 151442, "pitch": 58, "duration": 120, "velocity": 80}, {"time": 151442, "pitch": 62, "duration": 130, "velocity": 70}, {"time": 151452, "pitch": 65, "duration": 130, "velocity": 70}, {"time": 151452, "pitch": 70, "duration": 130, "velocity": 80}, {"time": 151582, "pitch": 65, "duration": 99, "velocity": 90}, {"time": 151582, "pitch": 70, "duration": 99, "velocity": 100}, {"time": 151592, "pitch": 58, "duration": 89, "velocity": 100}, {"time": 151592, "pitch": 62, "duration": 89, "velocity": 90}, {"time": 151681, "pitch": 58, "duration": 130, "velocity": 110}, {"time": 151681, "pitch": 62, "duration": 130, "velocity": 100}, {"time": 151691, "pitch": 65, "duration": 130, "velocity": 100}, {"time": 151691, "pitch": 70, "duration": 130, "velocity": 110}, {"time": 151821, "pitch": 65, "duration": 100, "velocity": 80}, {"time": 151821, "pitch": 70, "duration": 100, "velocity": 90}, {"time": 151831, "pitch": 58, "duration": 90, "velocity": 90}, {"time": 151831, "pitch": 62, "duration": 90, "velocity": 80}, {"time": 151921, "pitch": 58, "duration": 9, "velocity": 105}, {"time": 151921, "pitch": 62, "duration": 9, "velocity": 95}, {"time": 151921, "pitch": 65, "duration": 9, "velocity": 95}, {"time": 151921, "pitch": 70, "duration": 9, "velocity": 105}, {"time": 152060, "pitch": 58, "duration": 10, "velocity": 90}, {"time": 152060, "pitch": 62, "duration": 10, "velocity": 80}, {"time": 152060, "pitch": 65, "duration": 10, "velocity": 80}, {"time": 152060, "pitch": 70, "duration": 10, "velocity": 90}, {"time": 152160, "pitch": 57, "duration": 10, "velocity": 90}, {"time": 152160, "pitch": 60, "duration": 10, "velocity": 80}, {"time": 152160, "pitch": 65, "duration": 10, "velocity": 80}, {"time": 152160, "pitch": 69, "duration": 10, "velocity": 90}, {"time": 152299, "pitch": 57, "duration": 10, "velocity": 80}, {"time": 152299, "pitch": 60, "duration": 10, "velocity": 70}, {"time": 152299, "pitch": 65, "duration": 10, "velocity": 70}, {"time": 152299, "pitch": 69, "duration": 10, "velocity": 80}, {"time": 152399, "pitch": 57, "duration": 120, "velocity": 80}, {"time": 152399, "pitch": 60, "duration": 129, "velocity": 70}, {"time": 152409, "pitch": 65, "duration": 129, "velocity": 70}, {"time": 152409, "pitch": 69, "duration": 129, "velocity": 80}, {"time": 152538, "pitch": 65, "duration": 100, "velocity": 90}, {"time": 152538, "pitch": 69, "duration": 100, "velocity": 100}, {"time": 152548, "pitch": 57, "duration": 90, "velocity": 100}, {"time": 152548, "pitch": 60, "duration": 90, "velocity": 90}, {"time": 152638, "pitch": 57, "duration": 132, "velocity": 110}, {"time": 152638, "pitch": 60, "duration": 132, "velocity": 100}, {"time": 152648, "pitch": 65, "duration": 132, "velocity": 100}, {"time": 152648, "pitch": 69, "duration": 132, "velocity": 110}, {"time": 152780, "pitch": 65, "duration": 101, "velocity": 80}, {"time": 152780, "pitch": 69, "duration": 101, "velocity": 90}, {"time": 152790, "pitch": 57, "duration": 91, "velocity": 90}, {"time": 152790, "pitch": 60, "duration": 91, "velocity": 80}, {"time": 152881, "pitch": 57, "duration": 10, "velocity": 105}, {"time": 152881, "pitch": 60, "duration": 10, "velocity": 95}, {"time": 152881, "pitch": 65, "duration": 10, "velocity": 95}, {"time": 152881, "pitch": 69, "duration": 10, "velocity": 105}, {"time": 153022, "pitch": 57, "duration": 10, "velocity": 90}, {"time": 153022, "pitch": 60, "duration": 10, "velocity": 80}, {"time": 153022, "pitch": 65, "duration": 10, "velocity": 80}, {"time": 153022, "pitch": 69, "duration": 10, "velocity": 90}, {"time": 153123, "pitch": 55, "duration": 10, "velocity": 100}, {"time": 153123, "pitch": 58, "duration": 10, "velocity": 90}, {"time": 153123, "pitch": 62, "duration": 10, "velocity": 90}, {"time": 153123, "pitch": 67, "duration": 10, "velocity": 100}, {"time": 153263, "pitch": 55, "duration": 10, "velocity": 90}, {"time": 153263, "pitch": 58, "duration": 10, "velocity": 80}, {"time": 153263, "pitch": 62, "duration": 10, "velocity": 80}, {"time": 153263, "pitch": 67, "duration": 10, "velocity": 90}, {"time": 153363, "pitch": 55, "duration": 119, "velocity": 80}, {"time": 153363, "pitch": 58, "duration": 129, "velocity": 70}, {"time": 153373, "pitch": 62, "duration": 129, "velocity": 70}, {"time": 153373, "pitch": 67, "duration": 129, "velocity": 80}, {"time": 153502, "pitch": 62, "duration": 100, "velocity": 90}, {"time": 153502, "pitch": 67, "duration": 100, "velocity": 100}, {"time": 153512, "pitch": 55, "duration": 90, "velocity": 100}, {"time": 153512, "pitch": 58, "duration": 90, "velocity": 90}, {"time": 153602, "pitch": 55, "duration": 129, "velocity": 110}, {"time": 153602, "pitch": 58, "duration": 129, "velocity": 100}, {"time": 153612, "pitch": 62, "duration": 129, "velocity": 100}, {"time": 153612, "pitch": 67, "duration": 129, "velocity": 110}, {"time": 153741, "pitch": 62, "duration": 100, "velocity": 80}, {"time": 153741, "pitch": 67, "duration": 100, "velocity": 90}, {"time": 153751, "pitch": 55, "duration": 90, "velocity": 90}, {"time": 153751, "pitch": 58, "duration": 90, "velocity": 80}, {"time": 153841, "pitch": 55, "duration": 10, "velocity": 105}, {"time": 153841, "pitch": 58, "duration": 10, "velocity": 95}, {"time": 153841, "pitch": 62, "duration": 10, "velocity": 95}, {"time": 153841, "pitch": 67, "duration": 10, "velocity": 105}, {"time": 153980, "pitch": 55, "duration": 10, "velocity": 90}, {"time": 153980, "pitch": 58, "duration": 10, "velocity": 80}, {"time": 153980, "pitch": 62, "duration": 10, "velocity": 80}, {"time": 153980, "pitch": 67, "duration": 10, "velocity": 90}, {"time": 154080, "pitch": 53, "duration": 10, "velocity": 90}, {"time": 154080, "pitch": 58, "duration": 10, "velocity": 80}, {"time": 154080, "pitch": 62, "duration": 10, "velocity": 80}, {"time": 154080, "pitch": 68, "duration": 10, "velocity": 90}, {"time": 154220, "pitch": 53, "duration": 10, "velocity": 80}, {"time": 154220, "pitch": 58, "duration": 10, "velocity": 70}, {"time": 154220, "pitch": 62, "duration": 10, "velocity": 70}, {"time": 154220, "pitch": 68, "duration": 10, "velocity": 80}, {"time": 154319, "pitch": 53, "duration": 120, "velocity": 80}, {"time": 154319, "pitch": 58, "duration": 130, "velocity": 70}, {"time": 154329, "pitch": 62, "duration": 130, "velocity": 70}, {"time": 154329, "pitch": 68, "duration": 130, "velocity": 80}, {"time": 154459, "pitch": 62, "duration": 100, "velocity": 90}, {"time": 154459, "pitch": 68, "duration": 100, "velocity": 100}, {"time": 154469, "pitch": 53, "duration": 90, "velocity": 100}, {"time": 154469, "pitch": 58, "duration": 90, "velocity": 90}, {"time": 154559, "pitch": 53, "duration": 129, "velocity": 110}, {"time": 154559, "pitch": 58, "duration": 129, "velocity": 100}, {"time": 154569, "pitch": 62, "duration": 129, "velocity": 100}, {"time": 154569, "pitch": 68, "duration": 129, "velocity": 110}, {"time": 154698, "pitch": 62, "duration": 100, "velocity": 80}, {"time": 154698, "pitch": 68, "duration": 100, "velocity": 90}, {"time": 154708, "pitch": 53, "duration": 90, "velocity": 90}, {"time": 154708, "pitch": 58, "duration": 90, "velocity": 80}, {"time": 154798, "pitch": 53, "duration": 10, "velocity": 105}, {"time": 154798, "pitch": 58, "duration": 10, "velocity": 95}, {"time": 154798, "pitch": 62, "duration": 10, "velocity": 95}, {"time": 154798, "pitch": 68, "duration": 10, "velocity": 105}, {"time": 154937, "pitch": 53, "duration": 10, "velocity": 90}, {"time": 154937, "pitch": 58, "duration": 10, "velocity": 80}, {"time": 154937, "pitch": 62, "duration": 10, "velocity": 80}, {"time": 154937, "pitch": 68, "duration": 10, "velocity": 90}, {"time": 155037, "pitch": 58, "duration": 10, "velocity": 100}, {"time": 155037, "pitch": 63, "duration": 10, "velocity": 90}, {"time": 155037, "pitch": 67, "duration": 10, "velocity": 90}, {"time": 155037, "pitch": 70, "duration": 10, "velocity": 100}, {"time": 155178, "pitch": 58, "duration": 11, "velocity": 90}, {"time": 155178, "pitch": 63, "duration": 11, "velocity": 80}, {"time": 155178, "pitch": 67, "duration": 11, "velocity": 80}, {"time": 155178, "pitch": 70, "duration": 11, "velocity": 90}, {"time": 155280, "pitch": 58, "duration": 121, "velocity": 80}, {"time": 155280, "pitch": 63, "duration": 131, "velocity": 70}, {"time": 155290, "pitch": 67, "duration": 131, "velocity": 70}, {"time": 155290, "pitch": 70, "duration": 131, "velocity": 80}, {"time": 155421, "pitch": 67, "duration": 101, "velocity": 90}, {"time": 155421, "pitch": 70, "duration": 101, "velocity": 100}, {"time": 155431, "pitch": 58, "duration": 91, "velocity": 100}, {"time": 155431, "pitch": 63, "duration": 91, "velocity": 90}, {"time": 155522, "pitch": 58, "duration": 130, "velocity": 110}, {"time": 155522, "pitch": 63, "duration": 130, "velocity": 100}, {"time": 155532, "pitch": 67, "duration": 130, "velocity": 100}, {"time": 155532, "pitch": 70, "duration": 130, "velocity": 110}, {"time": 155662, "pitch": 67, "duration": 99, "velocity": 80}, {"time": 155662, "pitch": 70, "duration": 99, "velocity": 90}, {"time": 155672, "pitch": 58, "duration": 89, "velocity": 90}, {"time": 155672, "pitch": 63, "duration": 89, "velocity": 80}, {"time": 155761, "pitch": 58, "duration": 10, "velocity": 105}, {"time": 155761, "pitch": 63, "duration": 10, "velocity": 95}, {"time": 155761, "pitch": 67, "duration": 10, "velocity": 95}, {"time": 155761, "pitch": 70, "duration": 10, "velocity": 105}, {"time": 155901, "pitch": 58, "duration": 10, "velocity": 90}, {"time": 155901, "pitch": 63, "duration": 10, "velocity": 80}, {"time": 155901, "pitch": 67, "duration": 10, "velocity": 80}, {"time": 155901, "pitch": 70, "duration": 10, "velocity": 90}, {"time": 156001, "pitch": 58, "duration": 10, "velocity": 100}, {"time": 156001, "pitch": 62, "duration": 10, "velocity": 90}, {"time": 156001, "pitch": 65, "duration": 10, "velocity": 90}, {"time": 156001, "pitch": 70, "duration": 10, "velocity": 100}, {"time": 156140, "pitch": 58, "duration": 10, "velocity": 90}, {"time": 156140, "pitch": 62, "duration": 10, "velocity": 80}, {"time": 156140, "pitch": 65, "duration": 10, "velocity": 80}, {"time": 156140, "pitch": 70, "duration": 10, "velocity": 90}, {"time": 156240, "pitch": 58, "duration": 119, "velocity": 80}, {"time": 156240, "pitch": 62, "duration": 129, "velocity": 70}, {"time": 156250, "pitch": 65, "duration": 129, "velocity": 70}, {"time": 156250, "pitch": 70, "duration": 129, "velocity": 80}, {"time": 156379, "pitch": 65, "duration": 100, "velocity": 90}, {"time": 156379, "pitch": 70, "duration": 100, "velocity": 100}, {"time": 156389, "pitch": 58, "duration": 90, "velocity": 100}, {"time": 156389, "pitch": 62, "duration": 90, "velocity": 90}, {"time": 156479, "pitch": 58, "duration": 130, "velocity": 110}, {"time": 156479, "pitch": 62, "duration": 130, "velocity": 100}, {"time": 156489, "pitch": 65, "duration": 129, "velocity": 100}, {"time": 156489, "pitch": 70, "duration": 129, "velocity": 110}, {"time": 156618, "pitch": 65, "duration": 100, "velocity": 80}, {"time": 156618, "pitch": 70, "duration": 100, "velocity": 90}, {"time": 156628, "pitch": 58, "duration": 90, "velocity": 90}, {"time": 156628, "pitch": 62, "duration": 90, "velocity": 80}, {"time": 156718, "pitch": 58, "duration": 10, "velocity": 105}, {"time": 156718, "pitch": 62, "duration": 10, "velocity": 95}, {"time": 156718, "pitch": 65, "duration": 10, "velocity": 95}, {"time": 156718, "pitch": 70, "duration": 10, "velocity": 105}, {"time": 156858, "pitch": 58, "duration": 10, "velocity": 90}, {"time": 156858, "pitch": 62, "duration": 10, "velocity": 80}, {"time": 156858, "pitch": 65, "duration": 10, "velocity": 80}, {"time": 156858, "pitch": 70, "duration": 10, "velocity": 90}, {"time": 156957, "pitch": 55, "duration": 10, "velocity": 100}, {"time": 156957, "pitch": 58, "duration": 10, "velocity": 90}, {"time": 156957, "pitch": 63, "duration": 10, "velocity": 90}, {"time": 156957, "pitch": 67, "duration": 10, "velocity": 100}, {"time": 157099, "pitch": 55, "duration": 10, "velocity": 90}, {"time": 157099, "pitch": 58, "duration": 10, "velocity": 80}, {"time": 157099, "pitch": 63, "duration": 10, "velocity": 80}, {"time": 157099, "pitch": 67, "duration": 10, "velocity": 90}, {"time": 157200, "pitch": 55, "duration": 121, "velocity": 80}, {"time": 157200, "pitch": 58, "duration": 131, "velocity": 70}, {"time": 157210, "pitch": 63, "duration": 132, "velocity": 70}, {"time": 157210, "pitch": 67, "duration": 132, "velocity": 80}, {"time": 157342, "pitch": 63, "duration": 101, "velocity": 90}, {"time": 157342, "pitch": 67, "duration": 101, "velocity": 100}, {"time": 157352, "pitch": 55, "duration": 91, "velocity": 100}, {"time": 157352, "pitch": 58, "duration": 91, "velocity": 90}, {"time": 157443, "pitch": 55, "duration": 129, "velocity": 110}, {"time": 157443, "pitch": 58, "duration": 129, "velocity": 100}, {"time": 157453, "pitch": 63, "duration": 129, "velocity": 100}, {"time": 157453, "pitch": 67, "duration": 129, "velocity": 110}, {"time": 157582, "pitch": 63, "duration": 100, "velocity": 80}, {"time": 157582, "pitch": 67, "duration": 100, "velocity": 90}, {"time": 157592, "pitch": 55, "duration": 90, "velocity": 90}, {"time": 157592, "pitch": 58, "duration": 90, "velocity": 80}, {"time": 157682, "pitch": 55, "duration": 10, "velocity": 105}, {"time": 157682, "pitch": 58, "duration": 10, "velocity": 95}, {"time": 157682, "pitch": 63, "duration": 10, "velocity": 95}, {"time": 157682, "pitch": 67, "duration": 10, "velocity": 105}, {"time": 157821, "pitch": 55, "duration": 10, "velocity": 90}, {"time": 157821, "pitch": 58, "duration": 10, "velocity": 80}, {"time": 157821, "pitch": 63, "duration": 10, "velocity": 80}, {"time": 157821, "pitch": 67, "duration": 10, "velocity": 90}, {"time": 157921, "pitch": 65, "duration": 140, "velocity": 100}, {"time": 157921, "pitch": 77, "duration": 140, "velocity": 110}, {"time": 158061, "pitch": 65, "duration": 99, "velocity": 92}, {"time": 158061, "pitch": 77, "duration": 99, "velocity": 100}, {"time": 158160, "pitch": 65, "duration": 10, "velocity": 100}, {"time": 158160, "pitch": 77, "duration": 10, "velocity": 110}, {"time": 158300, "pitch": 65, "duration": 99, "velocity": 92}, {"time": 158300, "pitch": 77, "duration": 99, "velocity": 100}, {"time": 158399, "pitch": 65, "duration": 10, "velocity": 100}, {"time": 158399, "pitch": 77, "duration": 10, "velocity": 110}, {"time": 158539, "pitch": 65, "duration": 100, "velocity": 92}, {"time": 158539, "pitch": 77, "duration": 100, "velocity": 100}, {"time": 158639, "pitch": 65, "duration": 239, "velocity": 100}, {"time": 158639, "pitch": 77, "duration": 239, "velocity": 110}, {"time": 158878, "pitch": 58, "duration": 10, "velocity": 100}, {"time": 158878, "pitch": 62, "duration": 10, "velocity": 90}, {"time": 158878, "pitch": 65, "duration": 10, "velocity": 90}, {"time": 158878, "pitch": 70, "duration": 10, "velocity": 100}, {"time": 159019, "pitch": 58, "duration": 10, "velocity": 90}, {"time": 159019, "pitch": 62, "duration": 10, "velocity": 80}, {"time": 159019, "pitch": 65, "duration": 10, "velocity": 80}, {"time": 159019, "pitch": 70, "duration": 10, "velocity": 90}, {"time": 159120, "pitch": 58, "duration": 122, "velocity": 80}, {"time": 159120, "pitch": 62, "duration": 132, "velocity": 70}, {"time": 159131, "pitch": 65, "duration": 131, "velocity": 70}, {"time": 159131, "pitch": 70, "duration": 131, "velocity": 80}, {"time": 159262, "pitch": 65, "duration": 101, "velocity": 90}, {"time": 159262, "pitch": 70, "duration": 101, "velocity": 100}, {"time": 159272, "pitch": 58, "duration": 91, "velocity": 100}, {"time": 159272, "pitch": 62, "duration": 91, "velocity": 90}, {"time": 159363, "pitch": 58, "duration": 130, "velocity": 110}, {"time": 159363, "pitch": 62, "duration": 130, "velocity": 100}, {"time": 159373, "pitch": 65, "duration": 130, "velocity": 100}, {"time": 159373, "pitch": 70, "duration": 130, "velocity": 110}, {"time": 159503, "pitch": 65, "duration": 99, "velocity": 80}, {"time": 159503, "pitch": 70, "duration": 99, "velocity": 90}, {"time": 159513, "pitch": 58, "duration": 89, "velocity": 90}, {"time": 159513, "pitch": 62, "duration": 89, "velocity": 80}, {"time": 159602, "pitch": 58, "duration": 10, "velocity": 105}, {"time": 159602, "pitch": 62, "duration": 10, "velocity": 95}, {"time": 159602, "pitch": 65, "duration": 10, "velocity": 95}, {"time": 159602, "pitch": 70, "duration": 10, "velocity": 105}, {"time": 159742, "pitch": 58, "duration": 10, "velocity": 90}, {"time": 159742, "pitch": 62, "duration": 10, "velocity": 80}, {"time": 159742, "pitch": 65, "duration": 10, "velocity": 80}, {"time": 159742, "pitch": 70, "duration": 10, "velocity": 90}, {"time": 159841, "pitch": 57, "duration": 10, "velocity": 90}, {"time": 159841, "pitch": 60, "duration": 10, "velocity": 80}, {"time": 159841, "pitch": 65, "duration": 10, "velocity": 80}, {"time": 159841, "pitch": 69, "duration": 10, "velocity": 90}, {"time": 159981, "pitch": 57, "duration": 10, "velocity": 80}, {"time": 159981, "pitch": 60, "duration": 10, "velocity": 70}, {"time": 159981, "pitch": 65, "duration": 10, "velocity": 70}, {"time": 159981, "pitch": 69, "duration": 10, "velocity": 80}, {"time": 160081, "pitch": 57, "duration": 119, "velocity": 80}, {"time": 160081, "pitch": 60, "duration": 129, "velocity": 70}, {"time": 160091, "pitch": 65, "duration": 129, "velocity": 70}, {"time": 160091, "pitch": 69, "duration": 129, "velocity": 80}, {"time": 160220, "pitch": 65, "duration": 100, "velocity": 90}, {"time": 160220, "pitch": 69, "duration": 100, "velocity": 100}, {"time": 160230, "pitch": 57, "duration": 90, "velocity": 100}, {"time": 160230, "pitch": 60, "duration": 90, "velocity": 90}, {"time": 160320, "pitch": 57, "duration": 129, "velocity": 110}, {"time": 160320, "pitch": 60, "duration": 129, "velocity": 100}, {"time": 160330, "pitch": 65, "duration": 129, "velocity": 100}, {"time": 160330, "pitch": 69, "duration": 129, "velocity": 110}, {"time": 160459, "pitch": 65, "duration": 100, "velocity": 80}, {"time": 160459, "pitch": 69, "duration": 100, "velocity": 90}, {"time": 160469, "pitch": 57, "duration": 90, "velocity": 90}, {"time": 160469, "pitch": 60, "duration": 90, "velocity": 80}, {"time": 160559, "pitch": 57, "duration": 10, "velocity": 105}, {"time": 160559, "pitch": 60, "duration": 10, "velocity": 95}, {"time": 160559, "pitch": 65, "duration": 10, "velocity": 95}, {"time": 160559, "pitch": 69, "duration": 10, "velocity": 105}, {"time": 160699, "pitch": 57, "duration": 10, "velocity": 90}, {"time": 160699, "pitch": 60, "duration": 10, "velocity": 80}, {"time": 160699, "pitch": 65, "duration": 10, "velocity": 80}, {"time": 160699, "pitch": 69, "duration": 10, "velocity": 90}, {"time": 160798, "pitch": 55, "duration": 10, "velocity": 100}, {"time": 160798, "pitch": 58, "duration": 10, "velocity": 90}, {"time": 160798, "pitch": 62, "duration": 10, "velocity": 90}, {"time": 160798, "pitch": 67, "duration": 10, "velocity": 100}, {"time": 160938, "pitch": 55, "duration": 10, "velocity": 90}, {"time": 160938, "pitch": 58, "duration": 10, "velocity": 80}, {"time": 160938, "pitch": 62, "duration": 10, "velocity": 80}, {"time": 160938, "pitch": 67, "duration": 10, "velocity": 90}, {"time": 161037, "pitch": 55, "duration": 120, "velocity": 80}, {"time": 161037, "pitch": 58, "duration": 130, "velocity": 70}, {"time": 161047, "pitch": 62, "duration": 130, "velocity": 70}, {"time": 161047, "pitch": 67, "duration": 130, "velocity": 80}, {"time": 161177, "pitch": 62, "duration": 100, "velocity": 90}, {"time": 161177, "pitch": 67, "duration": 100, "velocity": 100}, {"time": 161187, "pitch": 55, "duration": 90, "velocity": 100}, {"time": 161187, "pitch": 58, "duration": 90, "velocity": 90}, {"time": 161277, "pitch": 55, "duration": 131, "velocity": 110}, {"time": 161277, "pitch": 58, "duration": 131, "velocity": 100}, {"time": 161287, "pitch": 62, "duration": 131, "velocity": 100}, {"time": 161287, "pitch": 67, "duration": 131, "velocity": 110}, {"time": 161418, "pitch": 62, "duration": 101, "velocity": 80}, {"time": 161418, "pitch": 67, "duration": 101, "velocity": 90}, {"time": 161428, "pitch": 55, "duration": 91, "velocity": 90}, {"time": 161428, "pitch": 58, "duration": 91, "velocity": 80}, {"time": 161519, "pitch": 55, "duration": 10, "velocity": 105}, {"time": 161519, "pitch": 58, "duration": 10, "velocity": 95}, {"time": 161519, "pitch": 62, "duration": 10, "velocity": 95}, {"time": 161519, "pitch": 67, "duration": 10, "velocity": 105}, {"time": 161661, "pitch": 55, "duration": 10, "velocity": 90}, {"time": 161661, "pitch": 58, "duration": 10, "velocity": 80}, {"time": 161661, "pitch": 62, "duration": 10, "velocity": 80}, {"time": 161661, "pitch": 67, "duration": 10, "velocity": 90}, {"time": 161762, "pitch": 53, "duration": 10, "velocity": 90}, {"time": 161762, "pitch": 58, "duration": 10, "velocity": 80}, {"time": 161762, "pitch": 62, "duration": 10, "velocity": 80}, {"time": 161762, "pitch": 68, "duration": 10, "velocity": 90}, {"time": 161901, "pitch": 53, "duration": 10, "velocity": 80}, {"time": 161901, "pitch": 58, "duration": 10, "velocity": 70}, {"time": 161901, "pitch": 62, "duration": 10, "velocity": 70}, {"time": 161901, "pitch": 68, "duration": 10, "velocity": 80}, {"time": 162001, "pitch": 53, "duration": 120, "velocity": 80}, {"time": 162001, "pitch": 58, "duration": 130, "velocity": 70}, {"time": 162011, "pitch": 62, "duration": 130, "velocity": 70}, {"time": 162011, "pitch": 68, "duration": 130, "velocity": 80}, {"time": 162141, "pitch": 62, "duration": 99, "velocity": 90}, {"time": 162141, "pitch": 68, "duration": 99, "velocity": 100}, {"time": 162151, "pitch": 53, "duration": 89, "velocity": 100}, {"time": 162151, "pitch": 58, "duration": 89, "velocity": 90}, {"time": 162240, "pitch": 53, "duration": 130, "velocity": 110}, {"time": 162240, "pitch": 58, "duration": 130, "velocity": 100}, {"time": 162250, "pitch": 62, "duration": 130, "velocity": 100}, {"time": 162250, "pitch": 68, "duration": 130, "velocity": 110}, {"time": 162380, "pitch": 62, "duration": 99, "velocity": 80}, {"time": 162380, "pitch": 68, "duration": 99, "velocity": 90}, {"time": 162390, "pitch": 53, "duration": 89, "velocity": 90}, {"time": 162390, "pitch": 58, "duration": 89, "velocity": 80}, {"time": 162479, "pitch": 53, "duration": 10, "velocity": 105}, {"time": 162479, "pitch": 58, "duration": 10, "velocity": 95}, {"time": 162479, "pitch": 62, "duration": 10, "velocity": 95}, {"time": 162479, "pitch": 68, "duration": 10, "velocity": 105}, {"time": 162619, "pitch": 53, "duration": 10, "velocity": 90}, {"time": 162619, "pitch": 58, "duration": 10, "velocity": 80}, {"time": 162619, "pitch": 62, "duration": 10, "velocity": 80}, {"time": 162619, "pitch": 68, "duration": 10, "velocity": 90}, {"time": 162719, "pitch": 58, "duration": 10, "velocity": 100}, {"time": 162719, "pitch": 63, "duration": 10, "velocity": 90}, {"time": 162719, "pitch": 67, "duration": 10, "velocity": 90}, {"time": 162719, "pitch": 70, "duration": 10, "velocity": 100}, {"time": 162858, "pitch": 58, "duration": 10, "velocity": 90}, {"time": 162858, "pitch": 63, "duration": 10, "velocity": 80}, {"time": 162858, "pitch": 67, "duration": 10, "velocity": 80}, {"time": 162858, "pitch": 70, "duration": 10, "velocity": 90}, {"time": 162958, "pitch": 58, "duration": 119, "velocity": 80}, {"time": 162958, "pitch": 63, "duration": 129, "velocity": 70}, {"time": 162968, "pitch": 67, "duration": 129, "velocity": 70}, {"time": 162968, "pitch": 70, "duration": 129, "velocity": 80}, {"time": 163097, "pitch": 67, "duration": 100, "velocity": 90}, {"time": 163097, "pitch": 70, "duration": 100, "velocity": 100}, {"time": 163107, "pitch": 58, "duration": 90, "velocity": 100}, {"time": 163107, "pitch": 63, "duration": 90, "velocity": 90}, {"time": 163197, "pitch": 58, "duration": 131, "velocity": 110}, {"time": 163197, "pitch": 63, "duration": 131, "velocity": 100}, {"time": 163207, "pitch": 67, "duration": 132, "velocity": 100}, {"time": 163207, "pitch": 70, "duration": 132, "velocity": 110}, {"time": 163339, "pitch": 67, "duration": 101, "velocity": 80}, {"time": 163339, "pitch": 70, "duration": 101, "velocity": 90}, {"time": 163349, "pitch": 58, "duration": 91, "velocity": 90}, {"time": 163349, "pitch": 63, "duration": 91, "velocity": 80}, {"time": 163440, "pitch": 58, "duration": 10, "velocity": 105}, {"time": 163440, "pitch": 63, "duration": 10, "velocity": 95}, {"time": 163440, "pitch": 67, "duration": 10, "velocity": 95}, {"time": 163440, "pitch": 70, "duration": 10, "velocity": 105}, {"time": 163581, "pitch": 58, "duration": 10, "velocity": 90}, {"time": 163581, "pitch": 63, "duration": 10, "velocity": 80}, {"time": 163581, "pitch": 67, "duration": 10, "velocity": 80}, {"time": 163581, "pitch": 70, "duration": 10, "velocity": 90}, {"time": 163682, "pitch": 58, "duration": 10, "velocity": 100}, {"time": 163682, "pitch": 62, "duration": 10, "velocity": 90}, {"time": 163682, "pitch": 65, "duration": 10, "velocity": 90}, {"time": 163682, "pitch": 70, "duration": 10, "velocity": 100}, {"time": 163822, "pitch": 58, "duration": 10, "velocity": 90}, {"time": 163822, "pitch": 62, "duration": 10, "velocity": 80}, {"time": 163822, "pitch": 65, "duration": 10, "velocity": 80}, {"time": 163822, "pitch": 70, "duration": 10, "velocity": 90}, {"time": 163921, "pitch": 58, "duration": 120, "velocity": 80}, {"time": 163921, "pitch": 62, "duration": 130, "velocity": 70}, {"time": 163931, "pitch": 65, "duration": 130, "velocity": 70}, {"time": 163931, "pitch": 70, "duration": 130, "velocity": 80}, {"time": 164061, "pitch": 65, "duration": 100, "velocity": 90}, {"time": 164061, "pitch": 70, "duration": 100, "velocity": 100}, {"time": 164071, "pitch": 58, "duration": 90, "velocity": 100}, {"time": 164071, "pitch": 62, "duration": 90, "velocity": 90}, {"time": 164161, "pitch": 58, "duration": 129, "velocity": 110}, {"time": 164161, "pitch": 62, "duration": 129, "velocity": 100}, {"time": 164171, "pitch": 65, "duration": 129, "velocity": 100}, {"time": 164171, "pitch": 70, "duration": 129, "velocity": 110}, {"time": 164300, "pitch": 65, "duration": 100, "velocity": 80}, {"time": 164300, "pitch": 70, "duration": 100, "velocity": 90}, {"time": 164310, "pitch": 58, "duration": 90, "velocity": 90}, {"time": 164310, "pitch": 62, "duration": 90, "velocity": 80}, {"time": 164400, "pitch": 58, "duration": 10, "velocity": 105}, {"time": 164400, "pitch": 62, "duration": 10, "velocity": 95}, {"time": 164400, "pitch": 65, "duration": 10, "velocity": 95}, {"time": 164400, "pitch": 70, "duration": 10, "velocity": 105}, {"time": 164539, "pitch": 58, "duration": 10, "velocity": 90}, {"time": 164539, "pitch": 62, "duration": 10, "velocity": 80}, {"time": 164539, "pitch": 65, "duration": 10, "velocity": 80}, {"time": 164539, "pitch": 70, "duration": 10, "velocity": 90}, {"time": 164639, "pitch": 55, "duration": 10, "velocity": 100}, {"time": 164639, "pitch": 58, "duration": 10, "velocity": 90}, {"time": 164639, "pitch": 63, "duration": 10, "velocity": 90}, {"time": 164639, "pitch": 67, "duration": 10, "velocity": 100}, {"time": 164779, "pitch": 55, "duration": 10, "velocity": 90}, {"time": 164779, "pitch": 58, "duration": 10, "velocity": 80}, {"time": 164779, "pitch": 63, "duration": 10, "velocity": 80}, {"time": 164779, "pitch": 67, "duration": 10, "velocity": 90}, {"time": 164878, "pitch": 55, "duration": 120, "velocity": 80}, {"time": 164878, "pitch": 58, "duration": 130, "velocity": 70}, {"time": 164888, "pitch": 63, "duration": 130, "velocity": 70}, {"time": 164888, "pitch": 67, "duration": 130, "velocity": 80}, {"time": 165018, "pitch": 63, "duration": 99, "velocity": 90}, {"time": 165018, "pitch": 67, "duration": 99, "velocity": 100}, {"time": 165028, "pitch": 55, "duration": 89, "velocity": 100}, {"time": 165028, "pitch": 58, "duration": 89, "velocity": 90}, {"time": 165117, "pitch": 55, "duration": 132, "velocity": 110}, {"time": 165117, "pitch": 58, "duration": 132, "velocity": 100}, {"time": 165128, "pitch": 63, "duration": 131, "velocity": 100}, {"time": 165128, "pitch": 67, "duration": 131, "velocity": 110}, {"time": 165259, "pitch": 63, "duration": 101, "velocity": 80}, {"time": 165259, "pitch": 67, "duration": 101, "velocity": 90}, {"time": 165269, "pitch": 55, "duration": 91, "velocity": 90}, {"time": 165269, "pitch": 58, "duration": 91, "velocity": 80}, {"time": 165360, "pitch": 55, "duration": 10, "velocity": 105}, {"time": 165360, "pitch": 58, "duration": 10, "velocity": 95}, {"time": 165360, "pitch": 63, "duration": 10, "velocity": 95}, {"time": 165360, "pitch": 67, "duration": 10, "velocity": 105}, {"time": 165502, "pitch": 55, "duration": 10, "velocity": 90}, {"time": 165502, "pitch": 58, "duration": 10, "velocity": 80}, {"time": 165502, "pitch": 63, "duration": 10, "velocity": 80}, {"time": 165502, "pitch": 67, "duration": 10, "velocity": 90}, {"time": 165603, "pitch": 57, "duration": 10, "velocity": 100}, {"time": 165603, "pitch": 60, "duration": 10, "velocity": 90}, {"time": 165603, "pitch": 65, "duration": 10, "velocity": 90}, {"time": 165603, "pitch": 69, "duration": 10, "velocity": 100}, {"time": 165742, "pitch": 57, "duration": 10, "velocity": 90}, {"time": 165742, "pitch": 60, "duration": 10, "velocity": 80}, {"time": 165742, "pitch": 65, "duration": 10, "velocity": 80}, {"time": 165742, "pitch": 69, "duration": 10, "velocity": 90}, {"time": 165842, "pitch": 57, "duration": 119, "velocity": 80}, {"time": 165842, "pitch": 60, "duration": 129, "velocity": 70}, {"time": 165852, "pitch": 65, "duration": 129, "velocity": 70}, {"time": 165852, "pitch": 69, "duration": 129, "velocity": 80}, {"time": 165981, "pitch": 65, "duration": 100, "velocity": 90}, {"time": 165981, "pitch": 69, "duration": 100, "velocity": 100}, {"time": 165991, "pitch": 57, "duration": 90, "velocity": 100}, {"time": 165991, "pitch": 60, "duration": 90, "velocity": 90}, {"time": 166081, "pitch": 57, "duration": 130, "velocity": 110}, {"time": 166081, "pitch": 60, "duration": 130, "velocity": 100}, {"time": 166091, "pitch": 65, "duration": 130, "velocity": 100}, {"time": 166091, "pitch": 69, "duration": 130, "velocity": 110}, {"time": 166221, "pitch": 65, "duration": 99, "velocity": 80}, {"time": 166221, "pitch": 69, "duration": 99, "velocity": 90}, {"time": 166231, "pitch": 57, "duration": 89, "velocity": 90}, {"time": 166231, "pitch": 60, "duration": 89, "velocity": 80}, {"time": 166320, "pitch": 57, "duration": 10, "velocity": 105}, {"time": 166320, "pitch": 60, "duration": 10, "velocity": 95}, {"time": 166320, "pitch": 65, "duration": 10, "velocity": 95}, {"time": 166320, "pitch": 69, "duration": 10, "velocity": 105}, {"time": 166460, "pitch": 57, "duration": 10, "velocity": 90}, {"time": 166460, "pitch": 60, "duration": 10, "velocity": 80}, {"time": 166460, "pitch": 65, "duration": 10, "velocity": 80}, {"time": 166460, "pitch": 69, "duration": 10, "velocity": 90}, {"time": 166559, "pitch": 58, "duration": 10, "velocity": 100}, {"time": 166559, "pitch": 62, "duration": 10, "velocity": 90}, {"time": 166559, "pitch": 65, "duration": 10, "velocity": 90}, {"time": 166559, "pitch": 70, "duration": 10, "velocity": 100}, {"time": 166699, "pitch": 58, "duration": 10, "velocity": 90}, {"time": 166699, "pitch": 62, "duration": 10, "velocity": 80}, {"time": 166699, "pitch": 65, "duration": 10, "velocity": 80}, {"time": 166699, "pitch": 70, "duration": 10, "velocity": 90}, {"time": 166799, "pitch": 58, "duration": 119, "velocity": 80}, {"time": 166799, "pitch": 62, "duration": 129, "velocity": 70}, {"time": 166809, "pitch": 65, "duration": 129, "velocity": 70}, {"time": 166809, "pitch": 70, "duration": 129, "velocity": 80}, {"time": 166938, "pitch": 65, "duration": 100, "velocity": 90}, {"time": 166938, "pitch": 70, "duration": 100, "velocity": 100}, {"time": 166948, "pitch": 58, "duration": 90, "velocity": 100}, {"time": 166948, "pitch": 62, "duration": 90, "velocity": 90}, {"time": 167038, "pitch": 58, "duration": 131, "velocity": 110}, {"time": 167038, "pitch": 62, "duration": 131, "velocity": 100}, {"time": 167048, "pitch": 65, "duration": 131, "velocity": 100}, {"time": 167048, "pitch": 70, "duration": 131, "velocity": 110}, {"time": 167179, "pitch": 65, "duration": 102, "velocity": 80}, {"time": 167179, "pitch": 70, "duration": 102, "velocity": 90}, {"time": 167190, "pitch": 58, "duration": 91, "velocity": 90}, {"time": 167190, "pitch": 62, "duration": 91, "velocity": 80}, {"time": 167281, "pitch": 58, "duration": 10, "velocity": 105}, {"time": 167281, "pitch": 62, "duration": 10, "velocity": 95}, {"time": 167281, "pitch": 65, "duration": 10, "velocity": 95}, {"time": 167281, "pitch": 70, "duration": 10, "velocity": 105}, {"time": 167422, "pitch": 58, "duration": 10, "velocity": 90}, {"time": 167422, "pitch": 62, "duration": 10, "velocity": 80}, {"time": 167422, "pitch": 65, "duration": 10, "velocity": 80}, {"time": 167422, "pitch": 70, "duration": 10, "velocity": 90}, {"time": 167523, "pitch": 58, "duration": 10, "velocity": 90}, {"time": 167523, "pitch": 62, "duration": 10, "velocity": 80}, {"time": 167523, "pitch": 65, "duration": 10, "velocity": 80}, {"time": 167523, "pitch": 70, "duration": 10, "velocity": 90}, {"time": 167663, "pitch": 58, "duration": 10, "velocity": 80}, {"time": 167663, "pitch": 62, "duration": 10, "velocity": 70}, {"time": 167663, "pitch": 65, "duration": 10, "velocity": 70}, {"time": 167663, "pitch": 70, "duration": 10, "velocity": 80}, {"time": 167762, "pitch": 58, "duration": 120, "velocity": 80}, {"time": 167762, "pitch": 62, "duration": 130, "velocity": 70}, {"time": 167772, "pitch": 65, "duration": 130, "velocity": 70}, {"time": 167772, "pitch": 70, "duration": 130, "velocity": 80}, {"time": 167902, "pitch": 65, "duration": 100, "velocity": 90}, {"time": 167902, "pitch": 70, "duration": 100, "velocity": 100}, {"time": 167912, "pitch": 58, "duration": 90, "velocity": 100}, {"time": 167912, "pitch": 62, "duration": 90, "velocity": 90}, {"time": 168002, "pitch": 58, "duration": 129, "velocity": 110}, {"time": 168002, "pitch": 62, "duration": 129, "velocity": 100}, {"time": 168011, "pitch": 65, "duration": 130, "velocity": 100}, {"time": 168011, "pitch": 70, "duration": 130, "velocity": 110}, {"time": 168141, "pitch": 65, "duration": 100, "velocity": 80}, {"time": 168141, "pitch": 70, "duration": 100, "velocity": 90}, {"time": 168151, "pitch": 58, "duration": 90, "velocity": 90}, {"time": 168151, "pitch": 62, "duration": 90, "velocity": 80}, {"time": 168241, "pitch": 58, "duration": 10, "velocity": 105}, {"time": 168241, "pitch": 62, "duration": 10, "velocity": 95}, {"time": 168241, "pitch": 65, "duration": 10, "velocity": 95}, {"time": 168241, "pitch": 70, "duration": 10, "velocity": 105}, {"time": 168380, "pitch": 58, "duration": 10, "velocity": 90}, {"time": 168380, "pitch": 62, "duration": 10, "velocity": 80}, {"time": 168380, "pitch": 65, "duration": 10, "velocity": 80}, {"time": 168380, "pitch": 70, "duration": 10, "velocity": 90}, {"time": 168480, "pitch": 55, "duration": 10, "velocity": 100}, {"time": 168480, "pitch": 62, "duration": 10, "velocity": 90}, {"time": 168480, "pitch": 65, "duration": 10, "velocity": 90}, {"time": 168480, "pitch": 70, "duration": 10, "velocity": 100}, {"time": 168619, "pitch": 55, "duration": 10, "velocity": 90}, {"time": 168619, "pitch": 62, "duration": 10, "velocity": 80}, {"time": 168619, "pitch": 65, "duration": 10, "velocity": 80}, {"time": 168619, "pitch": 70, "duration": 10, "velocity": 90}, {"time": 168719, "pitch": 55, "duration": 120, "velocity": 80}, {"time": 168719, "pitch": 62, "duration": 130, "velocity": 70}, {"time": 168729, "pitch": 65, "duration": 130, "velocity": 70}, {"time": 168729, "pitch": 70, "duration": 130, "velocity": 80}, {"time": 168859, "pitch": 65, "duration": 99, "velocity": 90}, {"time": 168859, "pitch": 70, "duration": 99, "velocity": 100}, {"time": 168869, "pitch": 55, "duration": 89, "velocity": 100}, {"time": 168869, "pitch": 62, "duration": 89, "velocity": 90}, {"time": 168958, "pitch": 55, "duration": 130, "velocity": 110}, {"time": 168958, "pitch": 62, "duration": 130, "velocity": 100}, {"time": 168968, "pitch": 65, "duration": 130, "velocity": 100}, {"time": 168968, "pitch": 70, "duration": 130, "velocity": 110}, {"time": 169098, "pitch": 65, "duration": 99, "velocity": 80}, {"time": 169098, "pitch": 70, "duration": 99, "velocity": 90}, {"time": 169108, "pitch": 55, "duration": 89, "velocity": 90}, {"time": 169108, "pitch": 62, "duration": 89, "velocity": 80}, {"time": 169197, "pitch": 55, "duration": 10, "velocity": 105}, {"time": 169197, "pitch": 62, "duration": 10, "velocity": 95}, {"time": 169197, "pitch": 65, "duration": 10, "velocity": 95}, {"time": 169197, "pitch": 70, "duration": 10, "velocity": 105}, {"time": 169337, "pitch": 55, "duration": 10, "velocity": 90}, {"time": 169337, "pitch": 62, "duration": 10, "velocity": 80}, {"time": 169337, "pitch": 65, "duration": 10, "velocity": 80}, {"time": 169337, "pitch": 70, "duration": 10, "velocity": 90}, {"time": 169437, "pitch": 55, "duration": 10, "velocity": 90}, {"time": 169437, "pitch": 62, "duration": 10, "velocity": 80}, {"time": 169437, "pitch": 65, "duration": 10, "velocity": 80}, {"time": 169437, "pitch": 70, "duration": 10, "velocity": 90}, {"time": 169578, "pitch": 55, "duration": 10, "velocity": 80}, {"time": 169578, "pitch": 62, "duration": 10, "velocity": 70}, {"time": 169578, "pitch": 65, "duration": 10, "velocity": 70}, {"time": 169578, "pitch": 70, "duration": 10, "velocity": 80}, {"time": 169679, "pitch": 55, "duration": 122, "velocity": 80}, {"time": 169679, "pitch": 62, "duration": 132, "velocity": 70}, {"time": 169689, "pitch": 65, "duration": 132, "velocity": 70}, {"time": 169689, "pitch": 70, "duration": 132, "velocity": 80}, {"time": 169821, "pitch": 65, "duration": 101, "velocity": 90}, {"time": 169821, "pitch": 70, "duration": 101, "velocity": 100}, {"time": 169831, "pitch": 55, "duration": 91, "velocity": 100}, {"time": 169831, "pitch": 62, "duration": 91, "velocity": 90}, {"time": 169922, "pitch": 55, "duration": 130, "velocity": 110}, {"time": 169922, "pitch": 62, "duration": 130, "velocity": 100}, {"time": 169932, "pitch": 65, "duration": 129, "velocity": 100}, {"time": 169932, "pitch": 70, "duration": 129, "velocity": 110}, {"time": 170061, "pitch": 65, "duration": 100, "velocity": 80}, {"time": 170061, "pitch": 70, "duration": 100, "velocity": 90}, {"time": 170071, "pitch": 55, "duration": 90, "velocity": 90}, {"time": 170071, "pitch": 62, "duration": 90, "velocity": 80}, {"time": 170161, "pitch": 55, "duration": 10, "velocity": 105}, {"time": 170161, "pitch": 62, "duration": 10, "velocity": 95}, {"time": 170161, "pitch": 65, "duration": 10, "velocity": 95}, {"time": 170161, "pitch": 70, "duration": 10, "velocity": 105}, {"time": 170301, "pitch": 55, "duration": 10, "velocity": 90}, {"time": 170301, "pitch": 62, "duration": 10, "velocity": 80}, {"time": 170301, "pitch": 65, "duration": 10, "velocity": 80}, {"time": 170301, "pitch": 70, "duration": 10, "velocity": 90}, {"time": 170400, "pitch": 58, "duration": 10, "velocity": 100}, {"time": 170400, "pitch": 62, "duration": 10, "velocity": 90}, {"time": 170400, "pitch": 65, "duration": 10, "velocity": 90}, {"time": 170400, "pitch": 70, "duration": 10, "velocity": 100}, {"time": 170540, "pitch": 58, "duration": 10, "velocity": 90}, {"time": 170540, "pitch": 62, "duration": 10, "velocity": 80}, {"time": 170540, "pitch": 65, "duration": 10, "velocity": 80}, {"time": 170540, "pitch": 70, "duration": 10, "velocity": 90}, {"time": 170640, "pitch": 58, "duration": 119, "velocity": 80}, {"time": 170640, "pitch": 62, "duration": 129, "velocity": 70}, {"time": 170649, "pitch": 65, "duration": 130, "velocity": 70}, {"time": 170649, "pitch": 70, "duration": 130, "velocity": 80}, {"time": 170779, "pitch": 65, "duration": 100, "velocity": 90}, {"time": 170779, "pitch": 70, "duration": 100, "velocity": 100}, {"time": 170789, "pitch": 58, "duration": 90, "velocity": 100}, {"time": 170789, "pitch": 62, "duration": 90, "velocity": 90}, {"time": 170879, "pitch": 58, "duration": 129, "velocity": 110}, {"time": 170879, "pitch": 62, "duration": 129, "velocity": 100}, {"time": 170889, "pitch": 65, "duration": 129, "velocity": 100}, {"time": 170889, "pitch": 70, "duration": 129, "velocity": 110}, {"time": 171018, "pitch": 65, "duration": 100, "velocity": 80}, {"time": 171018, "pitch": 70, "duration": 100, "velocity": 90}, {"time": 171028, "pitch": 58, "duration": 90, "velocity": 90}, {"time": 171028, "pitch": 62, "duration": 90, "velocity": 80}, {"time": 171118, "pitch": 58, "duration": 10, "velocity": 105}, {"time": 171118, "pitch": 62, "duration": 10, "velocity": 95}, {"time": 171118, "pitch": 65, "duration": 10, "velocity": 95}, {"time": 171118, "pitch": 70, "duration": 10, "velocity": 105}, {"time": 171257, "pitch": 58, "duration": 10, "velocity": 90}, {"time": 171257, "pitch": 62, "duration": 10, "velocity": 80}, {"time": 171257, "pitch": 65, "duration": 10, "velocity": 80}, {"time": 171257, "pitch": 70, "duration": 10, "velocity": 90}, {"time": 171357, "pitch": 56, "duration": 10, "velocity": 90}, {"time": 171357, "pitch": 60, "duration": 10, "velocity": 80}, {"time": 171357, "pitch": 63, "duration": 10, "velocity": 80}, {"time": 171357, "pitch": 68, "duration": 10, "velocity": 90}, {"time": 171499, "pitch": 56, "duration": 10, "velocity": 80}, {"time": 171499, "pitch": 60, "duration": 10, "velocity": 70}, {"time": 171499, "pitch": 63, "duration": 10, "velocity": 70}, {"time": 171499, "pitch": 68, "duration": 10, "velocity": 80}, {"time": 171600, "pitch": 56, "duration": 121, "velocity": 80}, {"time": 171600, "pitch": 60, "duration": 131, "velocity": 70}, {"time": 171610, "pitch": 63, "duration": 131, "velocity": 70}, {"time": 171610, "pitch": 68, "duration": 131, "velocity": 80}, {"time": 171741, "pitch": 63, "duration": 101, "velocity": 90}, {"time": 171741, "pitch": 68, "duration": 101, "velocity": 100}, {"time": 171751, "pitch": 56, "duration": 91, "velocity": 100}, {"time": 171751, "pitch": 60, "duration": 91, "velocity": 90}, {"time": 171842, "pitch": 56, "duration": 130, "velocity": 110}, {"time": 171842, "pitch": 60, "duration": 130, "velocity": 100}, {"time": 171852, "pitch": 63, "duration": 130, "velocity": 100}, {"time": 171852, "pitch": 68, "duration": 130, "velocity": 110}, {"time": 171982, "pitch": 63, "duration": 100, "velocity": 80}, {"time": 171982, "pitch": 68, "duration": 100, "velocity": 90}, {"time": 171992, "pitch": 56, "duration": 90, "velocity": 90}, {"time": 171992, "pitch": 60, "duration": 90, "velocity": 80}, {"time": 172082, "pitch": 56, "duration": 10, "velocity": 105}, {"time": 172082, "pitch": 60, "duration": 10, "velocity": 95}, {"time": 172082, "pitch": 63, "duration": 10, "velocity": 95}, {"time": 172082, "pitch": 68, "duration": 10, "velocity": 105}, {"time": 172221, "pitch": 56, "duration": 10, "velocity": 90}, {"time": 172221, "pitch": 60, "duration": 10, "velocity": 80}, {"time": 172221, "pitch": 63, "duration": 10, "velocity": 80}, {"time": 172221, "pitch": 68, "duration": 10, "velocity": 90}, {"time": 172321, "pitch": 55, "duration": 10, "velocity": 100}, {"time": 172321, "pitch": 58, "duration": 10, "velocity": 90}, {"time": 172321, "pitch": 62, "duration": 10, "velocity": 90}, {"time": 172321, "pitch": 67, "duration": 10, "velocity": 100}, {"time": 172460, "pitch": 55, "duration": 10, "velocity": 90}, {"time": 172460, "pitch": 58, "duration": 10, "velocity": 80}, {"time": 172460, "pitch": 62, "duration": 10, "velocity": 80}, {"time": 172460, "pitch": 67, "duration": 10, "velocity": 90}, {"time": 172560, "pitch": 55, "duration": 120, "velocity": 80}, {"time": 172560, "pitch": 58, "duration": 130, "velocity": 70}, {"time": 172570, "pitch": 62, "duration": 129, "velocity": 70}, {"time": 172570, "pitch": 67, "duration": 129, "velocity": 80}, {"time": 172699, "pitch": 62, "duration": 100, "velocity": 90}, {"time": 172699, "pitch": 67, "duration": 100, "velocity": 100}, {"time": 172709, "pitch": 55, "duration": 90, "velocity": 100}, {"time": 172709, "pitch": 58, "duration": 90, "velocity": 90}, {"time": 172799, "pitch": 55, "duration": 130, "velocity": 110}, {"time": 172799, "pitch": 58, "duration": 130, "velocity": 100}, {"time": 172809, "pitch": 62, "duration": 130, "velocity": 100}, {"time": 172809, "pitch": 67, "duration": 130, "velocity": 110}, {"time": 172939, "pitch": 62, "duration": 99, "velocity": 80}, {"time": 172939, "pitch": 67, "duration": 99, "velocity": 90}, {"time": 172949, "pitch": 55, "duration": 89, "velocity": 90}, {"time": 172949, "pitch": 58, "duration": 89, "velocity": 80}, {"time": 173038, "pitch": 55, "duration": 10, "velocity": 105}, {"time": 173038, "pitch": 58, "duration": 10, "velocity": 95}, {"time": 173038, "pitch": 62, "duration": 10, "velocity": 95}, {"time": 173038, "pitch": 67, "duration": 10, "velocity": 105}, {"time": 173178, "pitch": 55, "duration": 10, "velocity": 90}, {"time": 173178, "pitch": 58, "duration": 10, "velocity": 80}, {"time": 173178, "pitch": 62, "duration": 10, "velocity": 80}, {"time": 173178, "pitch": 67, "duration": 10, "velocity": 90}, {"time": 173278, "pitch": 54, "duration": 10, "velocity": 100}, {"time": 173278, "pitch": 58, "duration": 10, "velocity": 90}, {"time": 173278, "pitch": 61, "duration": 10, "velocity": 90}, {"time": 173278, "pitch": 66, "duration": 10, "velocity": 100}, {"time": 173419, "pitch": 54, "duration": 10, "velocity": 90}, {"time": 173419, "pitch": 58, "duration": 10, "velocity": 80}, {"time": 173419, "pitch": 61, "duration": 10, "velocity": 80}, {"time": 173419, "pitch": 66, "duration": 10, "velocity": 90}, {"time": 173520, "pitch": 54, "duration": 122, "velocity": 80}, {"time": 173520, "pitch": 58, "duration": 132, "velocity": 70}, {"time": 173530, "pitch": 61, "duration": 132, "velocity": 70}, {"time": 173530, "pitch": 66, "duration": 132, "velocity": 80}, {"time": 173662, "pitch": 61, "duration": 101, "velocity": 90}, {"time": 173662, "pitch": 66, "duration": 101, "velocity": 100}, {"time": 173672, "pitch": 54, "duration": 91, "velocity": 100}, {"time": 173672, "pitch": 58, "duration": 91, "velocity": 90}, {"time": 173763, "pitch": 54, "duration": 10, "velocity": 95}, {"time": 173763, "pitch": 58, "duration": 10, "velocity": 85}, {"time": 173763, "pitch": 61, "duration": 10, "velocity": 85}, {"time": 173763, "pitch": 66, "duration": 10, "velocity": 95}, {"time": 173902, "pitch": 61, "duration": 100, "velocity": 90}, {"time": 173902, "pitch": 66, "duration": 100, "velocity": 100}, {"time": 173912, "pitch": 54, "duration": 90, "velocity": 100}, {"time": 173912, "pitch": 58, "duration": 90, "velocity": 90}, {"time": 174002, "pitch": 54, "duration": 80, "velocity": 85}, {"time": 174002, "pitch": 58, "duration": 80, "velocity": 75}, {"time": 174002, "pitch": 61, "duration": 80, "velocity": 75}, {"time": 174002, "pitch": 66, "duration": 80, "velocity": 85}, {"time": 174142, "pitch": 54, "duration": 9, "velocity": 90}, {"time": 174142, "pitch": 58, "duration": 9, "velocity": 80}, {"time": 174142, "pitch": 61, "duration": 9, "velocity": 80}, {"time": 174142, "pitch": 66, "duration": 9, "velocity": 90}, {"time": 174241, "pitch": 58, "duration": 10, "velocity": 100}, {"time": 174241, "pitch": 62, "duration": 10, "velocity": 90}, {"time": 174241, "pitch": 65, "duration": 10, "velocity": 90}, {"time": 174241, "pitch": 70, "duration": 10, "velocity": 100}, {"time": 174381, "pitch": 58, "duration": 10, "velocity": 90}, {"time": 174381, "pitch": 62, "duration": 10, "velocity": 80}, {"time": 174381, "pitch": 65, "duration": 10, "velocity": 80}, {"time": 174381, "pitch": 70, "duration": 10, "velocity": 90}, {"time": 174480, "pitch": 58, "duration": 120, "velocity": 80}, {"time": 174480, "pitch": 62, "duration": 130, "velocity": 70}, {"time": 174490, "pitch": 65, "duration": 130, "velocity": 70}, {"time": 174490, "pitch": 70, "duration": 130, "velocity": 80}, {"time": 174620, "pitch": 65, "duration": 100, "velocity": 90}, {"time": 174620, "pitch": 70, "duration": 100, "velocity": 100}, {"time": 174630, "pitch": 58, "duration": 90, "velocity": 100}, {"time": 174630, "pitch": 62, "duration": 90, "velocity": 90}, {"time": 174720, "pitch": 58, "duration": 129, "velocity": 110}, {"time": 174720, "pitch": 62, "duration": 129, "velocity": 100}, {"time": 174730, "pitch": 65, "duration": 129, "velocity": 100}, {"time": 174730, "pitch": 70, "duration": 129, "velocity": 110}, {"time": 174859, "pitch": 65, "duration": 100, "velocity": 80}, {"time": 174859, "pitch": 70, "duration": 100, "velocity": 90}, {"time": 174869, "pitch": 58, "duration": 90, "velocity": 90}, {"time": 174869, "pitch": 62, "duration": 90, "velocity": 80}, {"time": 174959, "pitch": 58, "duration": 10, "velocity": 105}, {"time": 174959, "pitch": 62, "duration": 10, "velocity": 95}, {"time": 174959, "pitch": 65, "duration": 10, "velocity": 95}, {"time": 174959, "pitch": 70, "duration": 10, "velocity": 105}, {"time": 175098, "pitch": 58, "duration": 10, "velocity": 90}, {"time": 175098, "pitch": 62, "duration": 10, "velocity": 80}, {"time": 175098, "pitch": 65, "duration": 10, "velocity": 80}, {"time": 175098, "pitch": 70, "duration": 10, "velocity": 90}, {"time": 175198, "pitch": 58, "duration": 10, "velocity": 90}, {"time": 175198, "pitch": 62, "duration": 10, "velocity": 80}, {"time": 175198, "pitch": 65, "duration": 10, "velocity": 80}, {"time": 175198, "pitch": 70, "duration": 10, "velocity": 90}, {"time": 175339, "pitch": 58, "duration": 11, "velocity": 80}, {"time": 175339, "pitch": 62, "duration": 11, "velocity": 70}, {"time": 175339, "pitch": 65, "duration": 11, "velocity": 70}, {"time": 175339, "pitch": 70, "duration": 11, "velocity": 80}, {"time": 175441, "pitch": 58, "duration": 121, "velocity": 80}, {"time": 175441, "pitch": 62, "duration": 131, "velocity": 70}, {"time": 175451, "pitch": 65, "duration": 131, "velocity": 70}, {"time": 175451, "pitch": 70, "duration": 131, "velocity": 80}, {"time": 175582, "pitch": 65, "duration": 101, "velocity": 90}, {"time": 175582, "pitch": 70, "duration": 101, "velocity": 100}, {"time": 175592, "pitch": 58, "duration": 91, "velocity": 100}, {"time": 175592, "pitch": 62, "duration": 91, "velocity": 90}, {"time": 175683, "pitch": 58, "duration": 130, "velocity": 110}, {"time": 175683, "pitch": 62, "duration": 130, "velocity": 100}, {"time": 175693, "pitch": 65, "duration": 130, "velocity": 100}, {"time": 175693, "pitch": 70, "duration": 130, "velocity": 110}, {"time": 175823, "pitch": 65, "duration": 99, "velocity": 80}, {"time": 175823, "pitch": 70, "duration": 99, "velocity": 90}, {"time": 175833, "pitch": 58, "duration": 89, "velocity": 90}, {"time": 175833, "pitch": 62, "duration": 89, "velocity": 80}, {"time": 175922, "pitch": 58, "duration": 10, "velocity": 105}, {"time": 175922, "pitch": 62, "duration": 10, "velocity": 95}, {"time": 175922, "pitch": 65, "duration": 10, "velocity": 95}, {"time": 175922, "pitch": 70, "duration": 10, "velocity": 105}, {"time": 176062, "pitch": 58, "duration": 10, "velocity": 90}, {"time": 176062, "pitch": 62, "duration": 10, "velocity": 80}, {"time": 176062, "pitch": 65, "duration": 10, "velocity": 80}, {"time": 176062, "pitch": 70, "duration": 10, "velocity": 90}, {"time": 176162, "pitch": 55, "duration": 10, "velocity": 100}, {"time": 176162, "pitch": 62, "duration": 10, "velocity": 90}, {"time": 176162, "pitch": 65, "duration": 10, "velocity": 90}, {"time": 176162, "pitch": 70, "duration": 10, "velocity": 100}, {"time": 176301, "pitch": 55, "duration": 10, "velocity": 90}, {"time": 176301, "pitch": 62, "duration": 10, "velocity": 80}, {"time": 176301, "pitch": 65, "duration": 10, "velocity": 80}, {"time": 176301, "pitch": 70, "duration": 10, "velocity": 90}, {"time": 176401, "pitch": 55, "duration": 119, "velocity": 80}, {"time": 176401, "pitch": 62, "duration": 129, "velocity": 70}, {"time": 176411, "pitch": 65, "duration": 129, "velocity": 70}, {"time": 176411, "pitch": 70, "duration": 129, "velocity": 80}, {"time": 176540, "pitch": 65, "duration": 100, "velocity": 90}, {"time": 176540, "pitch": 70, "duration": 100, "velocity": 100}, {"time": 176550, "pitch": 55, "duration": 90, "velocity": 100}, {"time": 176550, "pitch": 62, "duration": 90, "velocity": 90}, {"time": 176640, "pitch": 55, "duration": 130, "velocity": 110}, {"time": 176640, "pitch": 62, "duration": 130, "velocity": 100}, {"time": 176650, "pitch": 65, "duration": 130, "velocity": 100}, {"time": 176650, "pitch": 70, "duration": 130, "velocity": 110}, {"time": 176780, "pitch": 65, "duration": 99, "velocity": 80}, {"time": 176780, "pitch": 70, "duration": 99, "velocity": 90}, {"time": 176790, "pitch": 55, "duration": 89, "velocity": 90}, {"time": 176790, "pitch": 62, "duration": 89, "velocity": 80}, {"time": 176879, "pitch": 55, "duration": 10, "velocity": 105}, {"time": 176879, "pitch": 62, "duration": 10, "velocity": 95}, {"time": 176879, "pitch": 65, "duration": 10, "velocity": 95}, {"time": 176879, "pitch": 70, "duration": 10, "velocity": 105}, {"time": 177019, "pitch": 55, "duration": 10, "velocity": 90}, {"time": 177019, "pitch": 62, "duration": 10, "velocity": 80}, {"time": 177019, "pitch": 65, "duration": 10, "velocity": 80}, {"time": 177019, "pitch": 70, "duration": 10, "velocity": 90}, {"time": 177118, "pitch": 55, "duration": 10, "velocity": 90}, {"time": 177118, "pitch": 62, "duration": 10, "velocity": 80}, {"time": 177118, "pitch": 65, "duration": 10, "velocity": 80}, {"time": 177118, "pitch": 70, "duration": 10, "velocity": 90}, {"time": 177258, "pitch": 55, "duration": 10, "velocity": 80}, {"time": 177258, "pitch": 62, "duration": 10, "velocity": 70}, {"time": 177258, "pitch": 65, "duration": 10, "velocity": 70}, {"time": 177258, "pitch": 70, "duration": 10, "velocity": 80}, {"time": 177358, "pitch": 55, "duration": 119, "velocity": 80}, {"time": 177358, "pitch": 62, "duration": 129, "velocity": 70}, {"time": 177368, "pitch": 65, "duration": 129, "velocity": 70}, {"time": 177368, "pitch": 70, "duration": 129, "velocity": 80}, {"time": 177497, "pitch": 65, "duration": 100, "velocity": 90}, {"time": 177497, "pitch": 70, "duration": 100, "velocity": 100}, {"time": 177507, "pitch": 55, "duration": 90, "velocity": 100}, {"time": 177507, "pitch": 62, "duration": 90, "velocity": 90}, {"time": 177597, "pitch": 55, "duration": 131, "velocity": 110}, {"time": 177597, "pitch": 62, "duration": 131, "velocity": 100}, {"time": 177607, "pitch": 65, "duration": 131, "velocity": 100}, {"time": 177607, "pitch": 70, "duration": 131, "velocity": 110}, {"time": 177738, "pitch": 65, "duration": 101, "velocity": 80}, {"time": 177738, "pitch": 70, "duration": 101, "velocity": 90}, {"time": 177748, "pitch": 55, "duration": 91, "velocity": 90}, {"time": 177748, "pitch": 62, "duration": 91, "velocity": 80}, {"time": 177839, "pitch": 55, "duration": 11, "velocity": 105}, {"time": 177839, "pitch": 62, "duration": 11, "velocity": 95}, {"time": 177839, "pitch": 65, "duration": 11, "velocity": 95}, {"time": 177839, "pitch": 70, "duration": 11, "velocity": 105}, {"time": 177981, "pitch": 55, "duration": 10, "velocity": 90}, {"time": 177981, "pitch": 62, "duration": 10, "velocity": 80}, {"time": 177981, "pitch": 65, "duration": 10, "velocity": 80}, {"time": 177981, "pitch": 70, "duration": 10, "velocity": 90}, {"time": 178082, "pitch": 58, "duration": 10, "velocity": 100}, {"time": 178082, "pitch": 62, "duration": 10, "velocity": 90}, {"time": 178082, "pitch": 65, "duration": 10, "velocity": 90}, {"time": 178082, "pitch": 70, "duration": 10, "velocity": 100}, {"time": 178222, "pitch": 58, "duration": 10, "velocity": 90}, {"time": 178222, "pitch": 62, "duration": 10, "velocity": 80}, {"time": 178222, "pitch": 65, "duration": 10, "velocity": 80}, {"time": 178222, "pitch": 70, "duration": 10, "velocity": 90}, {"time": 178321, "pitch": 58, "duration": 120, "velocity": 80}, {"time": 178321, "pitch": 62, "duration": 130, "velocity": 70}, {"time": 178331, "pitch": 65, "duration": 130, "velocity": 70}, {"time": 178331, "pitch": 70, "duration": 130, "velocity": 80}, {"time": 178461, "pitch": 65, "duration": 99, "velocity": 90}, {"time": 178461, "pitch": 70, "duration": 99, "velocity": 100}, {"time": 178471, "pitch": 58, "duration": 89, "velocity": 100}, {"time": 178471, "pitch": 62, "duration": 89, "velocity": 90}, {"time": 178560, "pitch": 58, "duration": 130, "velocity": 110}, {"time": 178560, "pitch": 62, "duration": 130, "velocity": 100}, {"time": 178570, "pitch": 65, "duration": 130, "velocity": 100}, {"time": 178570, "pitch": 70, "duration": 130, "velocity": 110}, {"time": 178700, "pitch": 65, "duration": 100, "velocity": 80}, {"time": 178700, "pitch": 70, "duration": 100, "velocity": 90}, {"time": 178710, "pitch": 58, "duration": 90, "velocity": 90}, {"time": 178710, "pitch": 62, "duration": 90, "velocity": 80}, {"time": 178800, "pitch": 58, "duration": 10, "velocity": 105}, {"time": 178800, "pitch": 62, "duration": 10, "velocity": 95}, {"time": 178800, "pitch": 65, "duration": 10, "velocity": 95}, {"time": 178800, "pitch": 70, "duration": 10, "velocity": 105}, {"time": 178939, "pitch": 58, "duration": 10, "velocity": 90}, {"time": 178939, "pitch": 62, "duration": 10, "velocity": 80}, {"time": 178939, "pitch": 65, "duration": 10, "velocity": 80}, {"time": 178939, "pitch": 70, "duration": 10, "velocity": 90}, {"time": 179039, "pitch": 56, "duration": 10, "velocity": 90}, {"time": 179039, "pitch": 60, "duration": 10, "velocity": 80}, {"time": 179039, "pitch": 63, "duration": 10, "velocity": 80}, {"time": 179039, "pitch": 68, "duration": 10, "velocity": 90}, {"time": 179178, "pitch": 56, "duration": 10, "velocity": 80}, {"time": 179178, "pitch": 60, "duration": 10, "velocity": 70}, {"time": 179178, "pitch": 63, "duration": 10, "velocity": 70}, {"time": 179178, "pitch": 68, "duration": 10, "velocity": 80}, {"time": 179278, "pitch": 56, "duration": 120, "velocity": 80}, {"time": 179278, "pitch": 60, "duration": 130, "velocity": 70}, {"time": 179288, "pitch": 63, "duration": 130, "velocity": 70}, {"time": 179288, "pitch": 68, "duration": 130, "velocity": 80}, {"time": 179418, "pitch": 63, "duration": 99, "velocity": 90}, {"time": 179418, "pitch": 68, "duration": 99, "velocity": 100}, {"time": 179428, "pitch": 56, "duration": 89, "velocity": 100}, {"time": 179428, "pitch": 60, "duration": 89, "velocity": 90}, {"time": 179517, "pitch": 56, "duration": 132, "velocity": 110}, {"time": 179517, "pitch": 60, "duration": 132, "velocity": 100}, {"time": 179527, "pitch": 63, "duration": 132, "velocity": 100}, {"time": 179527, "pitch": 68, "duration": 132, "velocity": 110}, {"time": 179659, "pitch": 63, "duration": 101, "velocity": 80}, {"time": 179659, "pitch": 68, "duration": 101, "velocity": 90}, {"time": 179669, "pitch": 56, "duration": 91, "velocity": 90}, {"time": 179669, "pitch": 60, "duration": 91, "velocity": 80}, {"time": 179760, "pitch": 56, "duration": 10, "velocity": 105}, {"time": 179760, "pitch": 60, "duration": 10, "velocity": 95}, {"time": 179760, "pitch": 63, "duration": 10, "velocity": 95}, {"time": 179760, "pitch": 68, "duration": 10, "velocity": 105}, {"time": 179901, "pitch": 56, "duration": 10, "velocity": 90}, {"time": 179901, "pitch": 60, "duration": 10, "velocity": 80}, {"time": 179901, "pitch": 63, "duration": 10, "velocity": 80}, {"time": 179901, "pitch": 68, "duration": 10, "velocity": 90}, {"time": 180002, "pitch": 55, "duration": 10, "velocity": 100}, {"time": 180002, "pitch": 58, "duration": 10, "velocity": 90}, {"time": 180002, "pitch": 62, "duration": 10, "velocity": 90}, {"time": 180002, "pitch": 67, "duration": 10, "velocity": 100}, {"time": 180142, "pitch": 55, "duration": 10, "velocity": 90}, {"time": 180142, "pitch": 58, "duration": 10, "velocity": 80}, {"time": 180142, "pitch": 62, "duration": 10, "velocity": 80}, {"time": 180142, "pitch": 67, "duration": 10, "velocity": 90}, {"time": 180242, "pitch": 55, "duration": 119, "velocity": 80}, {"time": 180242, "pitch": 58, "duration": 129, "velocity": 70}, {"time": 180252, "pitch": 62, "duration": 129, "velocity": 70}, {"time": 180252, "pitch": 67, "duration": 129, "velocity": 80}, {"time": 180381, "pitch": 62, "duration": 100, "velocity": 90}, {"time": 180381, "pitch": 67, "duration": 100, "velocity": 100}, {"time": 180391, "pitch": 55, "duration": 90, "velocity": 100}, {"time": 180391, "pitch": 58, "duration": 90, "velocity": 90}, {"time": 180481, "pitch": 55, "duration": 1422, "velocity": 110}, {"time": 180481, "pitch": 58, "duration": 1422, "velocity": 100}, {"time": 180491, "pitch": 62, "duration": 1422, "velocity": 100}, {"time": 180491, "pitch": 67, "duration": 1422, "velocity": 110}, {"time": 181923, "pitch": 54, "duration": 239, "velocity": 110}, {"time": 181923, "pitch": 58, "duration": 239, "velocity": 100}, {"time": 181933, "pitch": 61, "duration": 239, "velocity": 100}, {"time": 181933, "pitch": 66, "duration": 239, "velocity": 110}, {"time": 182401, "pitch": 54, "duration": 239, "velocity": 110}, {"time": 182401, "pitch": 58, "duration": 239, "velocity": 100}, {"time": 182411, "pitch": 61, "duration": 239, "velocity": 100}, {"time": 182411, "pitch": 66, "duration": 239, "velocity": 110}, {"time": 182880, "pitch": 54, "duration": 239, "velocity": 110}, {"time": 182880, "pitch": 58, "duration": 239, "velocity": 100}, {"time": 182890, "pitch": 61, "duration": 239, "velocity": 100}, {"time": 182890, "pitch": 66, "duration": 239, "velocity": 110}, {"time": 183358, "pitch": 54, "duration": 243, "velocity": 110}, {"time": 183358, "pitch": 58, "duration": 243, "velocity": 100}, {"time": 183368, "pitch": 61, "duration": 233, "velocity": 100}, {"time": 183368, "pitch": 66, "duration": 233, "velocity": 110}, {"time": 183601, "pitch": 56, "duration": 222, "velocity": 110}, {"time": 183601, "pitch": 60, "duration": 222, "velocity": 100}, {"time": 183611, "pitch": 63, "duration": 222, "velocity": 100}, {"time": 183611, "pitch": 68, "duration": 222, "velocity": 110}, {"time": 17757, "pitch": 58, "duration": 122, "velocity": 110}, {"time": 17899, "pitch": 58, "duration": 20, "velocity": 80}, {"time": 18000, "pitch": 58, "duration": 20, "velocity": 80}, {"time": 18142, "pitch": 58, "duration": 101, "velocity": 100}, {"time": 18243, "pitch": 58, "duration": 20, "velocity": 80}, {"time": 18382, "pitch": 58, "duration": 100, "velocity": 110}, {"time": 18482, "pitch": 55, "duration": 139, "velocity": 100}, {"time": 18621, "pitch": 53, "duration": 101, "velocity": 100}, {"time": 21837, "pitch": 55, "duration": 100, "velocity": 100}, {"time": 22077, "pitch": 58, "duration": 141, "velocity": 110}, {"time": 22218, "pitch": 58, "duration": 101, "velocity": 110}, {"time": 22319, "pitch": 55, "duration": 142, "velocity": 90}, {"time": 22461, "pitch": 53, "duration": 102, "velocity": 100}, {"time": 24961, "pitch": 58, "duration": 119, "velocity": 110}, {"time": 25439, "pitch": 58, "duration": 120, "velocity": 110}, {"time": 25579, "pitch": 58, "duration": 20, "velocity": 80}, {"time": 25678, "pitch": 58, "duration": 20, "velocity": 80}, {"time": 25818, "pitch": 58, "duration": 99, "velocity": 100}, {"time": 25917, "pitch": 58, "duration": 21, "velocity": 80}, {"time": 26059, "pitch": 58, "duration": 101, "velocity": 110}, {"time": 26160, "pitch": 55, "duration": 142, "velocity": 100}, {"time": 26302, "pitch": 53, "duration": 101, "velocity": 100}, {"time": 26881, "pitch": 55, "duration": 120, "velocity": 110}, {"time": 27360, "pitch": 58, "duration": 119, "velocity": 110}, {"time": 27499, "pitch": 58, "duration": 20, "velocity": 80}, {"time": 27599, "pitch": 58, "duration": 20, "velocity": 80}, {"time": 27738, "pitch": 58, "duration": 100, "velocity": 100}, {"time": 27838, "pitch": 58, "duration": 20, "velocity": 80}, {"time": 27979, "pitch": 58, "duration": 102, "velocity": 110}, {"time": 28081, "pitch": 60, "duration": 141, "velocity": 100}, {"time": 28222, "pitch": 58, "duration": 101, "velocity": 100}, {"time": 29519, "pitch": 55, "duration": 100, "velocity": 100}, {"time": 29758, "pitch": 58, "duration": 140, "velocity": 110}, {"time": 29898, "pitch": 58, "duration": 100, "velocity": 110}, {"time": 29998, "pitch": 60, "duration": 139, "velocity": 90}, {"time": 30137, "pitch": 58, "duration": 101, "velocity": 100}, {"time": 65761, "pitch": 58, "duration": 120, "velocity": 110}, {"time": 65901, "pitch": 58, "duration": 20, "velocity": 80}, {"time": 66000, "pitch": 58, "duration": 20, "velocity": 80}, {"time": 66140, "pitch": 58, "duration": 100, "velocity": 100}, {"time": 66240, "pitch": 58, "duration": 19, "velocity": 80}, {"time": 66379, "pitch": 58, "duration": 100, "velocity": 110}, {"time": 66479, "pitch": 55, "duration": 139, "velocity": 100}, {"time": 66618, "pitch": 53, "duration": 101, "velocity": 100}, {"time": 69841, "pitch": 55, "duration": 100, "velocity": 100}, {"time": 70080, "pitch": 58, "duration": 140, "velocity": 110}, {"time": 70220, "pitch": 58, "duration": 100, "velocity": 110}, {"time": 70320, "pitch": 55, "duration": 139, "velocity": 90}, {"time": 70459, "pitch": 53, "duration": 101, "velocity": 100}, {"time": 72958, "pitch": 58, "duration": 121, "velocity": 110}, {"time": 73443, "pitch": 58, "duration": 119, "velocity": 110}, {"time": 73582, "pitch": 58, "duration": 20, "velocity": 80}, {"time": 73682, "pitch": 58, "duration": 20, "velocity": 80}, {"time": 73822, "pitch": 58, "duration": 99, "velocity": 100}, {"time": 73921, "pitch": 58, "duration": 20, "velocity": 80}, {"time": 74061, "pitch": 58, "duration": 99, "velocity": 110}, {"time": 74160, "pitch": 55, "duration": 140, "velocity": 100}, {"time": 74300, "pitch": 53, "duration": 100, "velocity": 100}, {"time": 74878, "pitch": 55, "duration": 121, "velocity": 110}, {"time": 75363, "pitch": 58, "duration": 120, "velocity": 110}, {"time": 75503, "pitch": 58, "duration": 20, "velocity": 80}, {"time": 75602, "pitch": 58, "duration": 20, "velocity": 80}, {"time": 75742, "pitch": 58, "duration": 100, "velocity": 100}, {"time": 75842, "pitch": 58, "duration": 20, "velocity": 80}, {"time": 75981, "pitch": 58, "duration": 100, "velocity": 110}, {"time": 76081, "pitch": 60, "duration": 139, "velocity": 100}, {"time": 76220, "pitch": 58, "duration": 100, "velocity": 100}, {"time": 77519, "pitch": 55, "duration": 102, "velocity": 100}, {"time": 77762, "pitch": 58, "duration": 140, "velocity": 110}, {"time": 77902, "pitch": 58, "duration": 99, "velocity": 110}, {"time": 78001, "pitch": 60, "duration": 140, "velocity": 90}, {"time": 78141, "pitch": 58, "duration": 100, "velocity": 100}, {"time": 119519, "pitch": 53, "duration": 120, "velocity": 110}, {"time": 119659, "pitch": 55, "duration": 100, "velocity": 80}, {"time": 119759, "pitch": 58, "duration": 10, "velocity": 80}, {"time": 119898, "pitch": 58, "duration": 100, "velocity": 100}, {"time": 119998, "pitch": 58, "duration": 20, "velocity": 80}, {"time": 120139, "pitch": 58, "duration": 101, "velocity": 110}, {"time": 120240, "pitch": 60, "duration": 142, "velocity": 100}, {"time": 120382, "pitch": 58, "duration": 102, "velocity": 100}, {"time": 123360, "pitch": 53, "duration": 120, "velocity": 110}, {"time": 123500, "pitch": 55, "duration": 99, "velocity": 80}, {"time": 123599, "pitch": 58, "duration": 10, "velocity": 80}, {"time": 123739, "pitch": 58, "duration": 100, "velocity": 100}, {"time": 123839, "pitch": 58, "duration": 20, "velocity": 80}, {"time": 123978, "pitch": 58, "duration": 100, "velocity": 110}, {"time": 124078, "pitch": 60, "duration": 139, "velocity": 100}, {"time": 124217, "pitch": 58, "duration": 101, "velocity": 100}, {"time": 127201, "pitch": 53, "duration": 120, "velocity": 110}, {"time": 127341, "pitch": 55, "duration": 99, "velocity": 80}, {"time": 127440, "pitch": 58, "duration": 10, "velocity": 80}, {"time": 127580, "pitch": 58, "duration": 99, "velocity": 100}, {"time": 127679, "pitch": 58, "duration": 20, "velocity": 80}, {"time": 127819, "pitch": 58, "duration": 100, "velocity": 110}, {"time": 127919, "pitch": 60, "duration": 139, "velocity": 100}, {"time": 128058, "pitch": 58, "duration": 101, "velocity": 100}, {"time": 131042, "pitch": 53, "duration": 120, "velocity": 110}, {"time": 131181, "pitch": 55, "duration": 100, "velocity": 80}, {"time": 131281, "pitch": 58, "duration": 10, "velocity": 80}, {"time": 131421, "pitch": 58, "duration": 99, "velocity": 100}, {"time": 131520, "pitch": 58, "duration": 20, "velocity": 80}, {"time": 131660, "pitch": 58, "duration": 99, "velocity": 110}, {"time": 131759, "pitch": 60, "duration": 140, "velocity": 100}, {"time": 131899, "pitch": 58, "duration": 101, "velocity": 100}]}]}