{"metadata": {"schema_version": "0.1", "title": "RWC-MDB-P-2001 No. 4: Spice of Life / Hisayoshi Kazato", "copyright": "RWC Music Database. Copyright (C) 2001 Real World Computing Partnership (contact: Masataka GOTO <m.goto@aist.go.jp>)", "source_filename": "RM-P004.SMF_SYNC.MID", "source_format": "midi"}, "resolution": 480, "tempos": [{"time": 0, "qpm": 59.40594059405941}, {"time": 480, "qpm": 85.71428571428571}, {"time": 960, "qpm": 86.95652173913044}, {"time": 1440, "qpm": 85.71428571428571}, {"time": 2880, "qpm": 86.95652173913044}, {"time": 3360, "qpm": 85.71428571428571}, {"time": 5280, "qpm": 86.95652173913044}, {"time": 5760, "qpm": 85.71428571428571}, {"time": 7200, "qpm": 86.95652173913044}, {"time": 7680, "qpm": 85.71428571428571}, {"time": 9120, "qpm": 86.95652173913044}, {"time": 9600, "qpm": 85.71428571428571}, {"time": 11520, "qpm": 86.95652173913044}, {"time": 12000, "qpm": 85.71428571428571}, {"time": 13440, "qpm": 86.95652173913044}, {"time": 13920, "qpm": 85.71428571428571}, {"time": 15360, "qpm": 86.95652173913044}, {"time": 15840, "qpm": 85.71428571428571}, {"time": 17280, "qpm": 86.95652173913044}, {"time": 17760, "qpm": 85.71428571428571}, {"time": 19200, "qpm": 86.95652173913044}, {"time": 19680, "qpm": 85.71428571428571}, {"time": 21600, "qpm": 86.95652173913044}, {"time": 22080, "qpm": 85.71428571428571}, {"time": 23520, "qpm": 86.95652173913044}, {"time": 24000, "qpm": 85.71428571428571}, {"time": 25920, "qpm": 86.95652173913044}, {"time": 26400, "qpm": 85.71428571428571}, {"time": 27840, "qpm": 86.95652173913044}, {"time": 28320, "qpm": 85.71428571428571}, {"time": 29760, "qpm": 86.95652173913044}, {"time": 30240, "qpm": 85.71428571428571}, {"time": 32160, "qpm": 86.95652173913044}, {"time": 32640, "qpm": 85.71428571428571}, {"time": 34080, "qpm": 86.95652173913044}, {"time": 34560, "qpm": 85.71428571428571}, {"time": 36000, "qpm": 86.95652173913044}, {"time": 36480, "qpm": 85.71428571428571}, {"time": 37920, "qpm": 86.95652173913044}, {"time": 38400, "qpm": 85.71428571428571}, {"time": 40320, "qpm": 86.95652173913044}, {"time": 40800, "qpm": 85.71428571428571}, {"time": 42240, "qpm": 86.95652173913044}, {"time": 42720, "qpm": 85.71428571428571}, {"time": 44160, "qpm": 86.95652173913044}, {"time": 44640, "qpm": 85.71428571428571}, {"time": 46080, "qpm": 86.95652173913044}, {"time": 46560, "qpm": 85.71428571428571}, {"time": 48480, "qpm": 86.95652173913044}, {"time": 48960, "qpm": 85.71428571428571}, {"time": 50400, "qpm": 86.95652173913044}, {"time": 50880, "qpm": 85.71428571428571}, {"time": 52800, "qpm": 86.95652173913044}, {"time": 53280, "qpm": 85.71428571428571}, {"time": 54720, "qpm": 86.95652173913044}, {"time": 55200, "qpm": 85.71428571428571}, {"time": 56640, "qpm": 86.95652173913044}, {"time": 57120, "qpm": 85.71428571428571}, {"time": 58560, "qpm": 86.95652173913044}, {"time": 59040, "qpm": 85.71428571428571}, {"time": 60960, "qpm": 86.95652173913044}, {"time": 61440, "qpm": 85.71428571428571}, {"time": 62880, "qpm": 86.95652173913044}, {"time": 63360, "qpm": 85.71428571428571}, {"time": 64800, "qpm": 86.95652173913044}, {"time": 65280, "qpm": 85.71428571428571}, {"time": 67200, "qpm": 86.95652173913044}, {"time": 67680, "qpm": 85.71428571428571}, {"time": 69120, "qpm": 86.95652173913044}, {"time": 69600, "qpm": 85.71428571428571}, {"time": 71040, "qpm": 86.95652173913044}, {"time": 71520, "qpm": 85.71428571428571}, {"time": 72960, "qpm": 86.95652173913044}, {"time": 73440, "qpm": 85.71428571428571}, {"time": 75360, "qpm": 86.95652173913044}, {"time": 75840, "qpm": 85.71428571428571}, {"time": 77280, "qpm": 86.95652173913044}, {"time": 77760, "qpm": 85.71428571428571}, {"time": 79200, "qpm": 86.95652173913044}, {"time": 79680, "qpm": 85.71428571428571}, {"time": 81600, "qpm": 86.95652173913044}, {"time": 82080, "qpm": 85.71428571428571}, {"time": 83520, "qpm": 86.95652173913044}, {"time": 84000, "qpm": 85.71428571428571}, {"time": 85440, "qpm": 86.95652173913044}, {"time": 85920, "qpm": 85.71428571428571}, {"time": 87840, "qpm": 86.95652173913044}, {"time": 88320, "qpm": 85.71428571428571}, {"time": 89760, "qpm": 86.95652173913044}, {"time": 90240, "qpm": 85.71428571428571}, {"time": 91680, "qpm": 86.95652173913044}, {"time": 92160, "qpm": 85.71428571428571}, {"time": 94080, "qpm": 86.95652173913044}, {"time": 94560, "qpm": 85.71428571428571}, {"time": 96000, "qpm": 86.95652173913044}, {"time": 96480, "qpm": 85.71428571428571}, {"time": 97920, "qpm": 86.95652173913044}, {"time": 98400, "qpm": 85.71428571428571}, {"time": 99840, "qpm": 86.95652173913044}, {"time": 100320, "qpm": 85.71428571428571}, {"time": 101760, "qpm": 86.95652173913044}, {"time": 102240, "qpm": 85.71428571428571}, {"time": 104160, "qpm": 86.95652173913044}, {"time": 104640, "qpm": 85.71428571428571}, {"time": 106080, "qpm": 86.95652173913044}, {"time": 106560, "qpm": 85.71428571428571}, {"time": 108480, "qpm": 86.95652173913044}, {"time": 108960, "qpm": 85.71428571428571}, {"time": 110400, "qpm": 86.95652173913044}, {"time": 110880, "qpm": 85.71428571428571}, {"time": 112320, "qpm": 86.95652173913044}, {"time": 112800, "qpm": 85.71428571428571}, {"time": 114720, "qpm": 86.95652173913044}, {"time": 115200, "qpm": 85.71428571428571}, {"time": 116640, "qpm": 86.95652173913044}, {"time": 117120, "qpm": 85.71428571428571}, {"time": 118560, "qpm": 86.95652173913044}, {"time": 119040, "qpm": 85.71428571428571}, {"time": 120480, "qpm": 86.95652173913044}, {"time": 120960, "qpm": 85.71428571428571}, {"time": 122880, "qpm": 86.95652173913044}, {"time": 123360, "qpm": 85.71428571428571}, {"time": 124800, "qpm": 86.95652173913044}, {"time": 125280, "qpm": 85.71428571428571}, {"time": 126720, "qpm": 86.95652173913044}, {"time": 127200, "qpm": 85.71428571428571}, {"time": 128640, "qpm": 86.95652173913044}, {"time": 129120, "qpm": 85.71428571428571}, {"time": 131040, "qpm": 86.95652173913044}, {"time": 131520, "qpm": 85.71428571428571}, {"time": 132960, "qpm": 86.95652173913044}, {"time": 133440, "qpm": 85.71428571428571}, {"time": 135360, "qpm": 86.95652173913044}, {"time": 135840, "qpm": 85.71428571428571}, {"time": 137280, "qpm": 86.95652173913044}, {"time": 137760, "qpm": 85.71428571428571}, {"time": 139200, "qpm": 86.95652173913044}, {"time": 139680, "qpm": 85.71428571428571}, {"time": 141120, "qpm": 86.95652173913044}, {"time": 141600, "qpm": 85.71428571428571}, {"time": 143520, "qpm": 86.95652173913044}, {"time": 144000, "qpm": 85.71428571428571}, {"time": 145440, "qpm": 86.95652173913044}, {"time": 145920, "qpm": 85.71428571428571}, {"time": 147360, "qpm": 86.95652173913044}, {"time": 147840, "qpm": 85.71428571428571}, {"time": 149760, "qpm": 86.95652173913044}, {"time": 150240, "qpm": 85.71428571428571}, {"time": 151680, "qpm": 86.95652173913044}, {"time": 152160, "qpm": 85.71428571428571}, {"time": 153600, "qpm": 86.95652173913044}, {"time": 154080, "qpm": 85.71428571428571}, {"time": 155520, "qpm": 86.95652173913044}, {"time": 156000, "qpm": 85.71428571428571}, {"time": 157920, "qpm": 86.95652173913044}, {"time": 158400, "qpm": 85.71428571428571}, {"time": 159840, "qpm": 86.95652173913044}, {"time": 160320, "qpm": 85.71428571428571}, {"time": 161760, "qpm": 86.95652173913044}, {"time": 162240, "qpm": 85.71428571428571}, {"time": 164160, "qpm": 86.95652173913044}], "key_signatures": [{"time": 0, "root": 7, "mode": "minor"}], "time_signatures": [{"time": 0, "numerator": 1, "denominator": 4}, {"time": 480, "numerator": 4, "denominator": 4}], "tracks": [{"program": 0, "is_drum": false, "name": "Piano", "notes": [{"time": 480, "pitch": 43, "duration": 1911, "velocity": 85}, {"time": 480, "pitch": 53, "duration": 628, "velocity": 80}, {"time": 480, "pitch": 58, "duration": 1432, "velocity": 90}, {"time": 480, "pitch": 62, "duration": 1432, "velocity": 100}, {"time": 1118, "pitch": 53, "duration": 1034, "velocity": 80}, {"time": 1357, "pitch": 69, "duration": 1034, "velocity": 95}, {"time": 1680, "pitch": 65, "duration": 711, "velocity": 80}, {"time": 1922, "pitch": 60, "duration": 469, "velocity": 70}, {"time": 2162, "pitch": 53, "duration": 229, "velocity": 60}, {"time": 2401, "pitch": 40, "duration": 1910, "velocity": 85}, {"time": 2401, "pitch": 55, "duration": 1910, "velocity": 80}, {"time": 2401, "pitch": 58, "duration": 1910, "velocity": 90}, {"time": 2401, "pitch": 62, "duration": 1910, "velocity": 100}, {"time": 3318, "pitch": 67, "duration": 993, "velocity": 75}, {"time": 3338, "pitch": 70, "duration": 973, "velocity": 85}, {"time": 3358, "pitch": 74, "duration": 953, "velocity": 95}, {"time": 3843, "pitch": 65, "duration": 468, "velocity": 70}, {"time": 4321, "pitch": 39, "duration": 1911, "velocity": 85}, {"time": 4321, "pitch": 58, "duration": 1911, "velocity": 80}, {"time": 4321, "pitch": 62, "duration": 1911, "velocity": 90}, {"time": 4321, "pitch": 67, "duration": 1911, "velocity": 100}, {"time": 5039, "pitch": 55, "duration": 1193, "velocity": 75}, {"time": 5278, "pitch": 65, "duration": 954, "velocity": 80}, {"time": 5682, "pitch": 70, "duration": 550, "velocity": 80}, {"time": 6003, "pitch": 77, "duration": 229, "velocity": 85}, {"time": 6242, "pitch": 38, "duration": 1910, "velocity": 85}, {"time": 6242, "pitch": 53, "duration": 1910, "velocity": 80}, {"time": 6242, "pitch": 57, "duration": 1910, "velocity": 90}, {"time": 6242, "pitch": 60, "duration": 1910, "velocity": 100}, {"time": 6880, "pitch": 72, "duration": 1272, "velocity": 85}, {"time": 7198, "pitch": 76, "duration": 954, "velocity": 85}, {"time": 7677, "pitch": 79, "duration": 475, "velocity": 85}, {"time": 8162, "pitch": 43, "duration": 1910, "velocity": 85}, {"time": 8162, "pitch": 53, "duration": 628, "velocity": 80}, {"time": 8162, "pitch": 58, "duration": 1425, "velocity": 90}, {"time": 8162, "pitch": 62, "duration": 1425, "velocity": 100}, {"time": 8800, "pitch": 53, "duration": 1030, "velocity": 80}, {"time": 9039, "pitch": 69, "duration": 1033, "velocity": 95}, {"time": 9358, "pitch": 65, "duration": 714, "velocity": 80}, {"time": 9597, "pitch": 60, "duration": 475, "velocity": 70}, {"time": 9840, "pitch": 53, "duration": 232, "velocity": 60}, {"time": 10083, "pitch": 40, "duration": 1910, "velocity": 85}, {"time": 10083, "pitch": 55, "duration": 1910, "velocity": 80}, {"time": 10083, "pitch": 58, "duration": 1910, "velocity": 90}, {"time": 10083, "pitch": 62, "duration": 1910, "velocity": 100}, {"time": 10999, "pitch": 67, "duration": 994, "velocity": 75}, {"time": 11019, "pitch": 70, "duration": 974, "velocity": 85}, {"time": 11039, "pitch": 74, "duration": 954, "velocity": 95}, {"time": 11518, "pitch": 65, "duration": 475, "velocity": 70}, {"time": 12003, "pitch": 39, "duration": 1910, "velocity": 85}, {"time": 12003, "pitch": 58, "duration": 1910, "velocity": 80}, {"time": 12003, "pitch": 62, "duration": 1910, "velocity": 90}, {"time": 12003, "pitch": 67, "duration": 1910, "velocity": 100}, {"time": 12721, "pitch": 55, "duration": 1192, "velocity": 75}, {"time": 12960, "pitch": 65, "duration": 953, "velocity": 80}, {"time": 13358, "pitch": 70, "duration": 555, "velocity": 80}, {"time": 13681, "pitch": 77, "duration": 232, "velocity": 85}, {"time": 13923, "pitch": 38, "duration": 1904, "velocity": 85}, {"time": 13923, "pitch": 53, "duration": 1904, "velocity": 80}, {"time": 13923, "pitch": 57, "duration": 1904, "velocity": 90}, {"time": 13923, "pitch": 60, "duration": 1904, "velocity": 100}, {"time": 14561, "pitch": 72, "duration": 1266, "velocity": 85}, {"time": 14880, "pitch": 76, "duration": 947, "velocity": 85}, {"time": 15359, "pitch": 79, "duration": 468, "velocity": 85}, {"time": 15837, "pitch": 43, "duration": 1910, "velocity": 85}, {"time": 15837, "pitch": 53, "duration": 635, "velocity": 80}, {"time": 15837, "pitch": 58, "duration": 1432, "velocity": 90}, {"time": 15837, "pitch": 62, "duration": 1432, "velocity": 100}, {"time": 16482, "pitch": 53, "duration": 1026, "velocity": 80}, {"time": 16721, "pitch": 69, "duration": 1026, "velocity": 95}, {"time": 17040, "pitch": 65, "duration": 707, "velocity": 80}, {"time": 17279, "pitch": 60, "duration": 468, "velocity": 70}, {"time": 17518, "pitch": 53, "duration": 229, "velocity": 60}, {"time": 17757, "pitch": 40, "duration": 1911, "velocity": 85}, {"time": 17757, "pitch": 55, "duration": 1911, "velocity": 80}, {"time": 17757, "pitch": 58, "duration": 1911, "velocity": 90}, {"time": 17757, "pitch": 62, "duration": 1911, "velocity": 100}, {"time": 18681, "pitch": 67, "duration": 987, "velocity": 75}, {"time": 18701, "pitch": 70, "duration": 967, "velocity": 85}, {"time": 18721, "pitch": 74, "duration": 947, "velocity": 95}, {"time": 19199, "pitch": 65, "duration": 469, "velocity": 70}, {"time": 19678, "pitch": 39, "duration": 1910, "velocity": 85}, {"time": 19678, "pitch": 58, "duration": 1910, "velocity": 80}, {"time": 19678, "pitch": 62, "duration": 1910, "velocity": 90}, {"time": 19678, "pitch": 67, "duration": 1910, "velocity": 100}, {"time": 20402, "pitch": 55, "duration": 1186, "velocity": 75}, {"time": 20641, "pitch": 65, "duration": 947, "velocity": 80}, {"time": 21040, "pitch": 70, "duration": 548, "velocity": 80}, {"time": 21359, "pitch": 77, "duration": 229, "velocity": 85}, {"time": 21598, "pitch": 38, "duration": 1911, "velocity": 85}, {"time": 21598, "pitch": 53, "duration": 1911, "velocity": 80}, {"time": 21598, "pitch": 57, "duration": 1911, "velocity": 90}, {"time": 21598, "pitch": 60, "duration": 1911, "velocity": 100}, {"time": 22238, "pitch": 72, "duration": 1271, "velocity": 85}, {"time": 22562, "pitch": 76, "duration": 947, "velocity": 85}, {"time": 23040, "pitch": 79, "duration": 469, "velocity": 85}, {"time": 23519, "pitch": 43, "duration": 1910, "velocity": 85}, {"time": 23519, "pitch": 53, "duration": 630, "velocity": 80}, {"time": 23519, "pitch": 58, "duration": 1432, "velocity": 90}, {"time": 23519, "pitch": 62, "duration": 1432, "velocity": 100}, {"time": 24159, "pitch": 53, "duration": 1031, "velocity": 80}, {"time": 24401, "pitch": 69, "duration": 1028, "velocity": 95}, {"time": 24722, "pitch": 65, "duration": 707, "velocity": 80}, {"time": 24961, "pitch": 60, "duration": 468, "velocity": 70}, {"time": 25200, "pitch": 53, "duration": 229, "velocity": 60}, {"time": 25439, "pitch": 40, "duration": 1911, "velocity": 85}, {"time": 25439, "pitch": 55, "duration": 1911, "velocity": 80}, {"time": 25439, "pitch": 58, "duration": 1911, "velocity": 90}, {"time": 25439, "pitch": 62, "duration": 1911, "velocity": 100}, {"time": 26362, "pitch": 67, "duration": 988, "velocity": 75}, {"time": 26383, "pitch": 70, "duration": 967, "velocity": 85}, {"time": 26403, "pitch": 74, "duration": 947, "velocity": 95}, {"time": 26881, "pitch": 65, "duration": 469, "velocity": 70}, {"time": 27360, "pitch": 39, "duration": 1910, "velocity": 85}, {"time": 27360, "pitch": 58, "duration": 1910, "velocity": 80}, {"time": 27360, "pitch": 62, "duration": 1910, "velocity": 90}, {"time": 27360, "pitch": 67, "duration": 1910, "velocity": 100}, {"time": 28081, "pitch": 55, "duration": 1189, "velocity": 75}, {"time": 28323, "pitch": 65, "duration": 947, "velocity": 80}, {"time": 28722, "pitch": 70, "duration": 548, "velocity": 80}, {"time": 29041, "pitch": 77, "duration": 229, "velocity": 85}, {"time": 29280, "pitch": 38, "duration": 1910, "velocity": 85}, {"time": 29280, "pitch": 53, "duration": 1910, "velocity": 80}, {"time": 29280, "pitch": 57, "duration": 1910, "velocity": 90}, {"time": 29280, "pitch": 60, "duration": 1910, "velocity": 100}, {"time": 29918, "pitch": 72, "duration": 1272, "velocity": 85}, {"time": 30237, "pitch": 76, "duration": 953, "velocity": 85}, {"time": 30722, "pitch": 79, "duration": 468, "velocity": 85}, {"time": 31200, "pitch": 43, "duration": 3353, "velocity": 85}, {"time": 31200, "pitch": 53, "duration": 3353, "velocity": 80}, {"time": 31200, "pitch": 58, "duration": 3353, "velocity": 90}, {"time": 31200, "pitch": 62, "duration": 3353, "velocity": 100}, {"time": 34563, "pitch": 38, "duration": 468, "velocity": 95}, {"time": 34563, "pitch": 55, "duration": 468, "velocity": 90}, {"time": 34563, "pitch": 60, "duration": 468, "velocity": 100}, {"time": 34563, "pitch": 64, "duration": 468, "velocity": 110}, {"time": 35041, "pitch": 43, "duration": 3346, "velocity": 85}, {"time": 35041, "pitch": 53, "duration": 3346, "velocity": 80}, {"time": 35041, "pitch": 58, "duration": 3346, "velocity": 90}, {"time": 35041, "pitch": 62, "duration": 3346, "velocity": 100}, {"time": 38882, "pitch": 43, "duration": 3346, "velocity": 85}, {"time": 38882, "pitch": 53, "duration": 3346, "velocity": 80}, {"time": 38882, "pitch": 58, "duration": 3346, "velocity": 90}, {"time": 38882, "pitch": 62, "duration": 3346, "velocity": 100}, {"time": 42238, "pitch": 38, "duration": 475, "velocity": 95}, {"time": 42238, "pitch": 55, "duration": 475, "velocity": 90}, {"time": 42238, "pitch": 60, "duration": 475, "velocity": 100}, {"time": 42238, "pitch": 64, "duration": 475, "velocity": 110}, {"time": 42723, "pitch": 43, "duration": 3346, "velocity": 85}, {"time": 42723, "pitch": 53, "duration": 3346, "velocity": 80}, {"time": 42723, "pitch": 58, "duration": 3346, "velocity": 90}, {"time": 42723, "pitch": 62, "duration": 3346, "velocity": 100}, {"time": 46079, "pitch": 38, "duration": 468, "velocity": 95}, {"time": 46079, "pitch": 53, "duration": 468, "velocity": 90}, {"time": 46079, "pitch": 57, "duration": 468, "velocity": 100}, {"time": 46079, "pitch": 60, "duration": 468, "velocity": 110}, {"time": 46557, "pitch": 43, "duration": 3352, "velocity": 85}, {"time": 46557, "pitch": 53, "duration": 3352, "velocity": 80}, {"time": 46557, "pitch": 58, "duration": 3352, "velocity": 90}, {"time": 46557, "pitch": 62, "duration": 3352, "velocity": 100}, {"time": 49919, "pitch": 38, "duration": 469, "velocity": 95}, {"time": 49919, "pitch": 55, "duration": 469, "velocity": 90}, {"time": 49919, "pitch": 60, "duration": 469, "velocity": 100}, {"time": 49919, "pitch": 64, "duration": 469, "velocity": 110}, {"time": 50398, "pitch": 43, "duration": 1910, "velocity": 85}, {"time": 50398, "pitch": 53, "duration": 1910, "velocity": 80}, {"time": 50398, "pitch": 58, "duration": 1910, "velocity": 90}, {"time": 50398, "pitch": 62, "duration": 1910, "velocity": 100}, {"time": 52318, "pitch": 41, "duration": 954, "velocity": 85}, {"time": 52318, "pitch": 56, "duration": 954, "velocity": 80}, {"time": 52318, "pitch": 60, "duration": 954, "velocity": 90}, {"time": 52318, "pitch": 63, "duration": 954, "velocity": 100}, {"time": 53282, "pitch": 34, "duration": 947, "velocity": 85}, {"time": 53282, "pitch": 56, "duration": 947, "velocity": 80}, {"time": 53282, "pitch": 62, "duration": 947, "velocity": 90}, {"time": 53282, "pitch": 65, "duration": 947, "velocity": 100}, {"time": 54239, "pitch": 48, "duration": 1591, "velocity": 85}, {"time": 54239, "pitch": 58, "duration": 711, "velocity": 70}, {"time": 54239, "pitch": 62, "duration": 1910, "velocity": 80}, {"time": 54239, "pitch": 63, "duration": 1192, "velocity": 90}, {"time": 54239, "pitch": 67, "duration": 1910, "velocity": 100}, {"time": 54960, "pitch": 58, "duration": 1189, "velocity": 70}, {"time": 55441, "pitch": 63, "duration": 708, "velocity": 85}, {"time": 55681, "pitch": 65, "duration": 468, "velocity": 90}, {"time": 55840, "pitch": 48, "duration": 309, "velocity": 85}, {"time": 55920, "pitch": 70, "duration": 229, "velocity": 95}, {"time": 56159, "pitch": 41, "duration": 1432, "velocity": 85}, {"time": 56159, "pitch": 51, "duration": 1910, "velocity": 80}, {"time": 56159, "pitch": 57, "duration": 1910, "velocity": 90}, {"time": 56159, "pitch": 62, "duration": 711, "velocity": 100}, {"time": 56880, "pitch": 61, "duration": 871, "velocity": 95}, {"time": 57362, "pitch": 69, "duration": 707, "velocity": 90}, {"time": 57601, "pitch": 41, "duration": 468, "velocity": 85}, {"time": 57761, "pitch": 60, "duration": 308, "velocity": 85}, {"time": 58079, "pitch": 46, "duration": 1911, "velocity": 85}, {"time": 58079, "pitch": 57, "duration": 469, "velocity": 70}, {"time": 58079, "pitch": 60, "duration": 711, "velocity": 80}, {"time": 58079, "pitch": 62, "duration": 1911, "velocity": 90}, {"time": 58079, "pitch": 65, "duration": 1911, "velocity": 100}, {"time": 58558, "pitch": 57, "duration": 1432, "velocity": 85}, {"time": 58800, "pitch": 60, "duration": 1190, "velocity": 75}, {"time": 59203, "pitch": 72, "duration": 787, "velocity": 60}, {"time": 59442, "pitch": 76, "duration": 548, "velocity": 65}, {"time": 59681, "pitch": 79, "duration": 309, "velocity": 70}, {"time": 60000, "pitch": 43, "duration": 1910, "velocity": 85}, {"time": 60000, "pitch": 65, "duration": 1910, "velocity": 80}, {"time": 60000, "pitch": 71, "duration": 1910, "velocity": 90}, {"time": 60000, "pitch": 76, "duration": 947, "velocity": 100}, {"time": 60957, "pitch": 75, "duration": 953, "velocity": 95}, {"time": 61920, "pitch": 48, "duration": 1592, "velocity": 85}, {"time": 61920, "pitch": 63, "duration": 708, "velocity": 70}, {"time": 61920, "pitch": 67, "duration": 1911, "velocity": 80}, {"time": 61920, "pitch": 70, "duration": 1190, "velocity": 90}, {"time": 61920, "pitch": 74, "duration": 1911, "velocity": 100}, {"time": 62638, "pitch": 63, "duration": 1193, "velocity": 70}, {"time": 63120, "pitch": 70, "duration": 711, "velocity": 85}, {"time": 63362, "pitch": 79, "duration": 469, "velocity": 90}, {"time": 63522, "pitch": 48, "duration": 309, "velocity": 85}, {"time": 63602, "pitch": 55, "duration": 229, "velocity": 95}, {"time": 63841, "pitch": 53, "duration": 1432, "velocity": 85}, {"time": 63841, "pitch": 63, "duration": 1910, "velocity": 80}, {"time": 63841, "pitch": 69, "duration": 1910, "velocity": 90}, {"time": 63841, "pitch": 74, "duration": 707, "velocity": 100}, {"time": 64558, "pitch": 73, "duration": 1193, "velocity": 95}, {"time": 65283, "pitch": 53, "duration": 468, "velocity": 85}, {"time": 65442, "pitch": 65, "duration": 309, "velocity": 85}, {"time": 65761, "pitch": 46, "duration": 1911, "velocity": 85}, {"time": 65761, "pitch": 62, "duration": 469, "velocity": 70}, {"time": 65761, "pitch": 65, "duration": 708, "velocity": 80}, {"time": 65761, "pitch": 69, "duration": 1911, "velocity": 90}, {"time": 65761, "pitch": 72, "duration": 1911, "velocity": 100}, {"time": 66240, "pitch": 62, "duration": 1432, "velocity": 85}, {"time": 66479, "pitch": 65, "duration": 1193, "velocity": 75}, {"time": 66880, "pitch": 74, "duration": 792, "velocity": 60}, {"time": 67122, "pitch": 77, "duration": 550, "velocity": 65}, {"time": 67363, "pitch": 81, "duration": 309, "velocity": 70}, {"time": 67682, "pitch": 50, "duration": 1910, "velocity": 85}, {"time": 67682, "pitch": 60, "duration": 1910, "velocity": 80}, {"time": 67682, "pitch": 66, "duration": 1910, "velocity": 90}, {"time": 67682, "pitch": 70, "duration": 946, "velocity": 100}, {"time": 68638, "pitch": 69, "duration": 954, "velocity": 95}, {"time": 69602, "pitch": 43, "duration": 1910, "velocity": 85}, {"time": 69602, "pitch": 53, "duration": 628, "velocity": 80}, {"time": 69602, "pitch": 58, "duration": 1425, "velocity": 90}, {"time": 69602, "pitch": 62, "duration": 1425, "velocity": 100}, {"time": 70240, "pitch": 53, "duration": 1030, "velocity": 80}, {"time": 70479, "pitch": 69, "duration": 1033, "velocity": 95}, {"time": 70798, "pitch": 65, "duration": 714, "velocity": 80}, {"time": 71037, "pitch": 60, "duration": 475, "velocity": 70}, {"time": 71280, "pitch": 53, "duration": 232, "velocity": 60}, {"time": 71522, "pitch": 40, "duration": 1911, "velocity": 85}, {"time": 71522, "pitch": 55, "duration": 1911, "velocity": 80}, {"time": 71522, "pitch": 58, "duration": 1911, "velocity": 90}, {"time": 71522, "pitch": 62, "duration": 1911, "velocity": 100}, {"time": 72439, "pitch": 67, "duration": 994, "velocity": 75}, {"time": 72459, "pitch": 70, "duration": 974, "velocity": 85}, {"time": 72479, "pitch": 74, "duration": 954, "velocity": 95}, {"time": 72958, "pitch": 65, "duration": 475, "velocity": 70}, {"time": 73443, "pitch": 39, "duration": 1910, "velocity": 85}, {"time": 73443, "pitch": 58, "duration": 1910, "velocity": 80}, {"time": 73443, "pitch": 62, "duration": 1910, "velocity": 90}, {"time": 73443, "pitch": 67, "duration": 1910, "velocity": 100}, {"time": 74160, "pitch": 55, "duration": 1193, "velocity": 75}, {"time": 74400, "pitch": 65, "duration": 953, "velocity": 80}, {"time": 74798, "pitch": 70, "duration": 555, "velocity": 80}, {"time": 75121, "pitch": 77, "duration": 232, "velocity": 85}, {"time": 75363, "pitch": 38, "duration": 1904, "velocity": 85}, {"time": 75363, "pitch": 53, "duration": 1904, "velocity": 80}, {"time": 75363, "pitch": 57, "duration": 1904, "velocity": 90}, {"time": 75363, "pitch": 60, "duration": 1904, "velocity": 100}, {"time": 76001, "pitch": 72, "duration": 1266, "velocity": 85}, {"time": 76320, "pitch": 76, "duration": 947, "velocity": 85}, {"time": 76798, "pitch": 79, "duration": 469, "velocity": 85}, {"time": 77277, "pitch": 43, "duration": 1910, "velocity": 85}, {"time": 77277, "pitch": 53, "duration": 635, "velocity": 80}, {"time": 77277, "pitch": 58, "duration": 1432, "velocity": 90}, {"time": 77277, "pitch": 62, "duration": 1432, "velocity": 100}, {"time": 77922, "pitch": 53, "duration": 1026, "velocity": 80}, {"time": 78161, "pitch": 69, "duration": 1026, "velocity": 95}, {"time": 78480, "pitch": 65, "duration": 707, "velocity": 80}, {"time": 78719, "pitch": 60, "duration": 468, "velocity": 70}, {"time": 78958, "pitch": 53, "duration": 229, "velocity": 60}, {"time": 79197, "pitch": 40, "duration": 1911, "velocity": 85}, {"time": 79197, "pitch": 55, "duration": 1911, "velocity": 80}, {"time": 79197, "pitch": 58, "duration": 1911, "velocity": 90}, {"time": 79197, "pitch": 62, "duration": 1911, "velocity": 100}, {"time": 80121, "pitch": 67, "duration": 987, "velocity": 75}, {"time": 80141, "pitch": 70, "duration": 967, "velocity": 85}, {"time": 80161, "pitch": 74, "duration": 947, "velocity": 95}, {"time": 80639, "pitch": 65, "duration": 469, "velocity": 70}, {"time": 81118, "pitch": 39, "duration": 1910, "velocity": 85}, {"time": 81118, "pitch": 58, "duration": 1910, "velocity": 80}, {"time": 81118, "pitch": 62, "duration": 1910, "velocity": 90}, {"time": 81118, "pitch": 67, "duration": 1910, "velocity": 100}, {"time": 81842, "pitch": 55, "duration": 1186, "velocity": 75}, {"time": 82081, "pitch": 65, "duration": 947, "velocity": 80}, {"time": 82480, "pitch": 70, "duration": 548, "velocity": 80}, {"time": 82799, "pitch": 77, "duration": 229, "velocity": 85}, {"time": 83038, "pitch": 38, "duration": 1911, "velocity": 85}, {"time": 83038, "pitch": 53, "duration": 1911, "velocity": 80}, {"time": 83038, "pitch": 57, "duration": 1911, "velocity": 90}, {"time": 83038, "pitch": 60, "duration": 1911, "velocity": 100}, {"time": 83683, "pitch": 72, "duration": 1266, "velocity": 85}, {"time": 84002, "pitch": 76, "duration": 947, "velocity": 85}, {"time": 84480, "pitch": 79, "duration": 469, "velocity": 85}, {"time": 84959, "pitch": 43, "duration": 3352, "velocity": 85}, {"time": 84959, "pitch": 53, "duration": 3352, "velocity": 80}, {"time": 84959, "pitch": 58, "duration": 3352, "velocity": 90}, {"time": 84959, "pitch": 62, "duration": 3352, "velocity": 100}, {"time": 88321, "pitch": 38, "duration": 468, "velocity": 95}, {"time": 88321, "pitch": 55, "duration": 468, "velocity": 90}, {"time": 88321, "pitch": 60, "duration": 468, "velocity": 100}, {"time": 88321, "pitch": 64, "duration": 468, "velocity": 110}, {"time": 88799, "pitch": 43, "duration": 3353, "velocity": 85}, {"time": 88799, "pitch": 53, "duration": 3353, "velocity": 80}, {"time": 88799, "pitch": 58, "duration": 3353, "velocity": 90}, {"time": 88799, "pitch": 62, "duration": 3353, "velocity": 100}, {"time": 92640, "pitch": 43, "duration": 3353, "velocity": 85}, {"time": 92640, "pitch": 53, "duration": 3353, "velocity": 80}, {"time": 92640, "pitch": 58, "duration": 3353, "velocity": 90}, {"time": 92640, "pitch": 62, "duration": 3353, "velocity": 100}, {"time": 96003, "pitch": 38, "duration": 468, "velocity": 95}, {"time": 96003, "pitch": 55, "duration": 468, "velocity": 90}, {"time": 96003, "pitch": 60, "duration": 468, "velocity": 100}, {"time": 96003, "pitch": 64, "duration": 468, "velocity": 110}, {"time": 96481, "pitch": 43, "duration": 3346, "velocity": 85}, {"time": 96481, "pitch": 53, "duration": 3346, "velocity": 80}, {"time": 96481, "pitch": 58, "duration": 3346, "velocity": 90}, {"time": 96481, "pitch": 62, "duration": 3346, "velocity": 100}, {"time": 99837, "pitch": 38, "duration": 475, "velocity": 95}, {"time": 99837, "pitch": 53, "duration": 475, "velocity": 90}, {"time": 99837, "pitch": 57, "duration": 475, "velocity": 100}, {"time": 99837, "pitch": 60, "duration": 475, "velocity": 110}, {"time": 100322, "pitch": 43, "duration": 3346, "velocity": 85}, {"time": 100322, "pitch": 53, "duration": 3346, "velocity": 80}, {"time": 100322, "pitch": 58, "duration": 3346, "velocity": 90}, {"time": 100322, "pitch": 62, "duration": 3346, "velocity": 100}, {"time": 103678, "pitch": 38, "duration": 475, "velocity": 95}, {"time": 103678, "pitch": 55, "duration": 475, "velocity": 90}, {"time": 103678, "pitch": 60, "duration": 475, "velocity": 100}, {"time": 103678, "pitch": 64, "duration": 475, "velocity": 110}, {"time": 104163, "pitch": 43, "duration": 1910, "velocity": 85}, {"time": 104163, "pitch": 53, "duration": 1910, "velocity": 80}, {"time": 104163, "pitch": 58, "duration": 1910, "velocity": 90}, {"time": 104163, "pitch": 62, "duration": 1910, "velocity": 100}, {"time": 106083, "pitch": 41, "duration": 947, "velocity": 85}, {"time": 106083, "pitch": 56, "duration": 947, "velocity": 80}, {"time": 106083, "pitch": 60, "duration": 947, "velocity": 90}, {"time": 106083, "pitch": 63, "duration": 947, "velocity": 100}, {"time": 107040, "pitch": 34, "duration": 947, "velocity": 85}, {"time": 107040, "pitch": 56, "duration": 947, "velocity": 80}, {"time": 107040, "pitch": 62, "duration": 947, "velocity": 90}, {"time": 107040, "pitch": 65, "duration": 947, "velocity": 100}, {"time": 107997, "pitch": 48, "duration": 1591, "velocity": 85}, {"time": 107997, "pitch": 58, "duration": 714, "velocity": 70}, {"time": 107997, "pitch": 62, "duration": 1910, "velocity": 80}, {"time": 107997, "pitch": 63, "duration": 1193, "velocity": 90}, {"time": 107997, "pitch": 67, "duration": 1910, "velocity": 100}, {"time": 108721, "pitch": 58, "duration": 1186, "velocity": 70}, {"time": 109200, "pitch": 63, "duration": 707, "velocity": 85}, {"time": 109439, "pitch": 65, "duration": 468, "velocity": 90}, {"time": 109598, "pitch": 48, "duration": 309, "velocity": 85}, {"time": 109678, "pitch": 70, "duration": 229, "velocity": 95}, {"time": 109917, "pitch": 41, "duration": 1432, "velocity": 85}, {"time": 109917, "pitch": 51, "duration": 1911, "velocity": 80}, {"time": 109917, "pitch": 57, "duration": 1911, "velocity": 90}, {"time": 109917, "pitch": 62, "duration": 715, "velocity": 100}, {"time": 110642, "pitch": 61, "duration": 867, "velocity": 95}, {"time": 111120, "pitch": 69, "duration": 708, "velocity": 90}, {"time": 111359, "pitch": 41, "duration": 469, "velocity": 85}, {"time": 111519, "pitch": 60, "duration": 309, "velocity": 85}, {"time": 111838, "pitch": 46, "duration": 1910, "velocity": 85}, {"time": 111838, "pitch": 57, "duration": 475, "velocity": 70}, {"time": 111838, "pitch": 60, "duration": 714, "velocity": 80}, {"time": 111838, "pitch": 62, "duration": 1910, "velocity": 90}, {"time": 111838, "pitch": 65, "duration": 1910, "velocity": 100}, {"time": 112323, "pitch": 57, "duration": 1425, "velocity": 85}, {"time": 112562, "pitch": 60, "duration": 1186, "velocity": 75}, {"time": 112961, "pitch": 72, "duration": 787, "velocity": 60}, {"time": 113200, "pitch": 76, "duration": 548, "velocity": 65}, {"time": 113439, "pitch": 79, "duration": 309, "velocity": 70}, {"time": 113758, "pitch": 43, "duration": 1911, "velocity": 85}, {"time": 113758, "pitch": 65, "duration": 1911, "velocity": 80}, {"time": 113758, "pitch": 71, "duration": 1911, "velocity": 90}, {"time": 113758, "pitch": 76, "duration": 954, "velocity": 100}, {"time": 114722, "pitch": 75, "duration": 947, "velocity": 95}, {"time": 115679, "pitch": 48, "duration": 1591, "velocity": 85}, {"time": 115679, "pitch": 63, "duration": 710, "velocity": 70}, {"time": 115679, "pitch": 67, "duration": 1910, "velocity": 80}, {"time": 115679, "pitch": 70, "duration": 1192, "velocity": 90}, {"time": 115679, "pitch": 74, "duration": 1910, "velocity": 100}, {"time": 116400, "pitch": 63, "duration": 1189, "velocity": 70}, {"time": 116881, "pitch": 70, "duration": 708, "velocity": 85}, {"time": 117121, "pitch": 79, "duration": 468, "velocity": 90}, {"time": 117280, "pitch": 48, "duration": 309, "velocity": 85}, {"time": 117360, "pitch": 55, "duration": 229, "velocity": 95}, {"time": 117599, "pitch": 53, "duration": 1432, "velocity": 85}, {"time": 117599, "pitch": 63, "duration": 1910, "velocity": 80}, {"time": 117599, "pitch": 69, "duration": 1910, "velocity": 90}, {"time": 117599, "pitch": 74, "duration": 711, "velocity": 100}, {"time": 118320, "pitch": 73, "duration": 1189, "velocity": 95}, {"time": 119041, "pitch": 53, "duration": 468, "velocity": 85}, {"time": 119200, "pitch": 65, "duration": 309, "velocity": 85}, {"time": 119519, "pitch": 46, "duration": 1911, "velocity": 85}, {"time": 119519, "pitch": 62, "duration": 469, "velocity": 70}, {"time": 119519, "pitch": 65, "duration": 711, "velocity": 80}, {"time": 119519, "pitch": 69, "duration": 1911, "velocity": 90}, {"time": 119519, "pitch": 72, "duration": 1911, "velocity": 100}, {"time": 119998, "pitch": 62, "duration": 1432, "velocity": 85}, {"time": 120240, "pitch": 65, "duration": 1190, "velocity": 75}, {"time": 120642, "pitch": 74, "duration": 788, "velocity": 60}, {"time": 120882, "pitch": 77, "duration": 548, "velocity": 65}, {"time": 121121, "pitch": 81, "duration": 309, "velocity": 70}, {"time": 121440, "pitch": 50, "duration": 1910, "velocity": 85}, {"time": 121440, "pitch": 60, "duration": 1910, "velocity": 80}, {"time": 121440, "pitch": 66, "duration": 1910, "velocity": 90}, {"time": 121440, "pitch": 70, "duration": 953, "velocity": 100}, {"time": 122403, "pitch": 69, "duration": 947, "velocity": 95}, {"time": 123360, "pitch": 43, "duration": 1911, "velocity": 85}, {"time": 123360, "pitch": 53, "duration": 628, "velocity": 80}, {"time": 123360, "pitch": 58, "duration": 1432, "velocity": 90}, {"time": 123360, "pitch": 62, "duration": 1432, "velocity": 100}, {"time": 123998, "pitch": 53, "duration": 1033, "velocity": 80}, {"time": 124237, "pitch": 69, "duration": 1034, "velocity": 95}, {"time": 124560, "pitch": 65, "duration": 711, "velocity": 80}, {"time": 124802, "pitch": 60, "duration": 469, "velocity": 70}, {"time": 125041, "pitch": 53, "duration": 230, "velocity": 60}, {"time": 125281, "pitch": 40, "duration": 1910, "velocity": 85}, {"time": 125281, "pitch": 55, "duration": 1910, "velocity": 80}, {"time": 125281, "pitch": 58, "duration": 1910, "velocity": 90}, {"time": 125281, "pitch": 62, "duration": 1910, "velocity": 100}, {"time": 126198, "pitch": 67, "duration": 993, "velocity": 75}, {"time": 126217, "pitch": 70, "duration": 974, "velocity": 85}, {"time": 126237, "pitch": 74, "duration": 954, "velocity": 95}, {"time": 126723, "pitch": 65, "duration": 468, "velocity": 70}, {"time": 127201, "pitch": 39, "duration": 1911, "velocity": 85}, {"time": 127201, "pitch": 58, "duration": 1911, "velocity": 80}, {"time": 127201, "pitch": 62, "duration": 1911, "velocity": 90}, {"time": 127201, "pitch": 67, "duration": 1911, "velocity": 100}, {"time": 128078, "pitch": 55, "duration": 1034, "velocity": 75}, {"time": 128320, "pitch": 70, "duration": 792, "velocity": 80}, {"time": 128643, "pitch": 77, "duration": 469, "velocity": 85}, {"time": 129121, "pitch": 38, "duration": 1911, "velocity": 85}, {"time": 129121, "pitch": 53, "duration": 1911, "velocity": 80}, {"time": 129121, "pitch": 57, "duration": 1911, "velocity": 90}, {"time": 129121, "pitch": 60, "duration": 1911, "velocity": 100}, {"time": 129719, "pitch": 72, "duration": 1313, "velocity": 85}, {"time": 130078, "pitch": 76, "duration": 954, "velocity": 85}, {"time": 130557, "pitch": 79, "duration": 475, "velocity": 85}, {"time": 131042, "pitch": 43, "duration": 1910, "velocity": 85}, {"time": 131042, "pitch": 53, "duration": 628, "velocity": 80}, {"time": 131042, "pitch": 58, "duration": 1425, "velocity": 90}, {"time": 131042, "pitch": 62, "duration": 1425, "velocity": 100}, {"time": 131680, "pitch": 53, "duration": 1030, "velocity": 80}, {"time": 131919, "pitch": 69, "duration": 1033, "velocity": 95}, {"time": 132238, "pitch": 65, "duration": 714, "velocity": 80}, {"time": 132477, "pitch": 60, "duration": 475, "velocity": 70}, {"time": 132720, "pitch": 53, "duration": 232, "velocity": 60}, {"time": 132962, "pitch": 40, "duration": 1911, "velocity": 85}, {"time": 132962, "pitch": 55, "duration": 1911, "velocity": 80}, {"time": 132962, "pitch": 58, "duration": 1911, "velocity": 90}, {"time": 132962, "pitch": 62, "duration": 1911, "velocity": 100}, {"time": 133879, "pitch": 67, "duration": 994, "velocity": 75}, {"time": 133899, "pitch": 70, "duration": 974, "velocity": 85}, {"time": 133919, "pitch": 74, "duration": 954, "velocity": 95}, {"time": 134398, "pitch": 65, "duration": 475, "velocity": 70}, {"time": 134883, "pitch": 39, "duration": 1910, "velocity": 85}, {"time": 134883, "pitch": 58, "duration": 1910, "velocity": 80}, {"time": 134883, "pitch": 62, "duration": 1910, "velocity": 90}, {"time": 134883, "pitch": 67, "duration": 1910, "velocity": 100}, {"time": 135760, "pitch": 55, "duration": 1033, "velocity": 75}, {"time": 135999, "pitch": 70, "duration": 794, "velocity": 80}, {"time": 136318, "pitch": 77, "duration": 475, "velocity": 85}, {"time": 136803, "pitch": 38, "duration": 1904, "velocity": 85}, {"time": 136803, "pitch": 53, "duration": 1904, "velocity": 80}, {"time": 136803, "pitch": 57, "duration": 1904, "velocity": 90}, {"time": 136803, "pitch": 60, "duration": 1904, "velocity": 100}, {"time": 137401, "pitch": 72, "duration": 1306, "velocity": 85}, {"time": 137760, "pitch": 76, "duration": 947, "velocity": 85}, {"time": 138238, "pitch": 79, "duration": 469, "velocity": 85}, {"time": 138717, "pitch": 43, "duration": 3352, "velocity": 85}, {"time": 138717, "pitch": 53, "duration": 3352, "velocity": 80}, {"time": 138717, "pitch": 58, "duration": 3352, "velocity": 90}, {"time": 138717, "pitch": 62, "duration": 3352, "velocity": 100}, {"time": 142079, "pitch": 38, "duration": 469, "velocity": 95}, {"time": 142079, "pitch": 55, "duration": 469, "velocity": 90}, {"time": 142079, "pitch": 60, "duration": 469, "velocity": 100}, {"time": 142079, "pitch": 64, "duration": 469, "velocity": 110}, {"time": 142558, "pitch": 43, "duration": 3352, "velocity": 85}, {"time": 142558, "pitch": 53, "duration": 3352, "velocity": 80}, {"time": 142558, "pitch": 58, "duration": 3352, "velocity": 90}, {"time": 142558, "pitch": 62, "duration": 3352, "velocity": 100}, {"time": 146398, "pitch": 43, "duration": 1911, "velocity": 85}, {"time": 146398, "pitch": 53, "duration": 630, "velocity": 80}, {"time": 146398, "pitch": 58, "duration": 1433, "velocity": 90}, {"time": 146398, "pitch": 62, "duration": 1433, "velocity": 100}, {"time": 147039, "pitch": 53, "duration": 1031, "velocity": 80}, {"time": 147281, "pitch": 69, "duration": 1028, "velocity": 95}, {"time": 147601, "pitch": 65, "duration": 708, "velocity": 80}, {"time": 147840, "pitch": 60, "duration": 469, "velocity": 70}, {"time": 148080, "pitch": 53, "duration": 229, "velocity": 60}, {"time": 148319, "pitch": 40, "duration": 1910, "velocity": 85}, {"time": 148319, "pitch": 55, "duration": 1910, "velocity": 80}, {"time": 148319, "pitch": 58, "duration": 1910, "velocity": 90}, {"time": 148319, "pitch": 62, "duration": 1910, "velocity": 100}, {"time": 149242, "pitch": 67, "duration": 987, "velocity": 75}, {"time": 149262, "pitch": 70, "duration": 967, "velocity": 85}, {"time": 149283, "pitch": 74, "duration": 946, "velocity": 95}, {"time": 149761, "pitch": 65, "duration": 468, "velocity": 70}, {"time": 150239, "pitch": 39, "duration": 1911, "velocity": 85}, {"time": 150239, "pitch": 58, "duration": 1911, "velocity": 80}, {"time": 150239, "pitch": 62, "duration": 1911, "velocity": 90}, {"time": 150239, "pitch": 67, "duration": 1911, "velocity": 100}, {"time": 150960, "pitch": 55, "duration": 1190, "velocity": 75}, {"time": 151203, "pitch": 65, "duration": 947, "velocity": 80}, {"time": 151602, "pitch": 70, "duration": 548, "velocity": 80}, {"time": 151921, "pitch": 77, "duration": 229, "velocity": 85}, {"time": 152160, "pitch": 38, "duration": 1910, "velocity": 85}, {"time": 152160, "pitch": 53, "duration": 1910, "velocity": 80}, {"time": 152160, "pitch": 57, "duration": 1910, "velocity": 90}, {"time": 152160, "pitch": 60, "duration": 1910, "velocity": 100}, {"time": 152800, "pitch": 72, "duration": 1270, "velocity": 85}, {"time": 153123, "pitch": 76, "duration": 947, "velocity": 85}, {"time": 153602, "pitch": 79, "duration": 468, "velocity": 85}, {"time": 154080, "pitch": 43, "duration": 1911, "velocity": 85}, {"time": 154080, "pitch": 53, "duration": 628, "velocity": 80}, {"time": 154080, "pitch": 58, "duration": 1432, "velocity": 90}, {"time": 154080, "pitch": 62, "duration": 1432, "velocity": 100}, {"time": 154718, "pitch": 53, "duration": 1033, "velocity": 80}, {"time": 154957, "pitch": 69, "duration": 1034, "velocity": 95}, {"time": 155280, "pitch": 65, "duration": 711, "velocity": 80}, {"time": 155522, "pitch": 60, "duration": 469, "velocity": 70}, {"time": 155761, "pitch": 53, "duration": 230, "velocity": 60}, {"time": 156001, "pitch": 40, "duration": 1910, "velocity": 85}, {"time": 156001, "pitch": 55, "duration": 1910, "velocity": 80}, {"time": 156001, "pitch": 58, "duration": 1910, "velocity": 90}, {"time": 156001, "pitch": 62, "duration": 1910, "velocity": 100}, {"time": 156917, "pitch": 67, "duration": 994, "velocity": 75}, {"time": 156937, "pitch": 70, "duration": 974, "velocity": 85}, {"time": 156957, "pitch": 74, "duration": 954, "velocity": 95}, {"time": 157443, "pitch": 65, "duration": 468, "velocity": 70}, {"time": 157921, "pitch": 39, "duration": 1910, "velocity": 85}, {"time": 157921, "pitch": 58, "duration": 1910, "velocity": 80}, {"time": 157921, "pitch": 62, "duration": 1910, "velocity": 90}, {"time": 157921, "pitch": 67, "duration": 1910, "velocity": 100}, {"time": 158639, "pitch": 55, "duration": 1192, "velocity": 75}, {"time": 158878, "pitch": 65, "duration": 953, "velocity": 80}, {"time": 159282, "pitch": 70, "duration": 549, "velocity": 80}, {"time": 159602, "pitch": 77, "duration": 229, "velocity": 85}, {"time": 159841, "pitch": 38, "duration": 1911, "velocity": 85}, {"time": 159841, "pitch": 53, "duration": 1911, "velocity": 80}, {"time": 159841, "pitch": 57, "duration": 1911, "velocity": 90}, {"time": 159841, "pitch": 60, "duration": 1911, "velocity": 100}, {"time": 160479, "pitch": 72, "duration": 1273, "velocity": 85}, {"time": 160798, "pitch": 76, "duration": 954, "velocity": 85}, {"time": 161277, "pitch": 79, "duration": 475, "velocity": 85}, {"time": 161762, "pitch": 43, "duration": 4808, "velocity": 85}, {"time": 161762, "pitch": 53, "duration": 4808, "velocity": 80}, {"time": 161762, "pitch": 58, "duration": 4808, "velocity": 90}, {"time": 161762, "pitch": 62, "duration": 4808, "velocity": 100}, {"time": 15837, "pitch": 31, "duration": 475, "velocity": 110}, {"time": 17757, "pitch": 28, "duration": 476, "velocity": 110}, {"time": 19678, "pitch": 27, "duration": 475, "velocity": 110}, {"time": 21598, "pitch": 26, "duration": 469, "velocity": 110}, {"time": 22771, "pitch": 36, "duration": 140, "velocity": 90}, {"time": 22801, "pitch": 38, "duration": 469, "velocity": 110}, {"time": 23279, "pitch": 29, "duration": 230, "velocity": 110}, {"time": 23519, "pitch": 31, "duration": 468, "velocity": 110}, {"time": 24401, "pitch": 29, "duration": 71, "velocity": 110}, {"time": 24482, "pitch": 31, "duration": 150, "velocity": 110}, {"time": 24642, "pitch": 29, "duration": 70, "velocity": 110}, {"time": 24722, "pitch": 31, "duration": 229, "velocity": 110}, {"time": 25120, "pitch": 34, "duration": 309, "velocity": 110}, {"time": 25439, "pitch": 28, "duration": 469, "velocity": 110}, {"time": 26322, "pitch": 27, "duration": 71, "velocity": 100}, {"time": 26403, "pitch": 28, "duration": 149, "velocity": 110}, {"time": 26562, "pitch": 27, "duration": 70, "velocity": 105}, {"time": 26642, "pitch": 28, "duration": 229, "velocity": 110}, {"time": 27041, "pitch": 34, "duration": 309, "velocity": 110}, {"time": 27360, "pitch": 27, "duration": 468, "velocity": 110}, {"time": 28242, "pitch": 34, "duration": 71, "velocity": 100}, {"time": 28323, "pitch": 27, "duration": 150, "velocity": 110}, {"time": 28483, "pitch": 26, "duration": 69, "velocity": 105}, {"time": 28562, "pitch": 27, "duration": 230, "velocity": 110}, {"time": 28961, "pitch": 34, "duration": 309, "velocity": 110}, {"time": 29280, "pitch": 26, "duration": 468, "velocity": 110}, {"time": 30157, "pitch": 26, "duration": 70, "velocity": 100}, {"time": 30237, "pitch": 29, "duration": 151, "velocity": 110}, {"time": 30398, "pitch": 28, "duration": 71, "velocity": 105}, {"time": 30479, "pitch": 29, "duration": 233, "velocity": 110}, {"time": 30881, "pitch": 33, "duration": 309, "velocity": 110}, {"time": 31200, "pitch": 31, "duration": 389, "velocity": 110}, {"time": 31599, "pitch": 43, "duration": 10, "velocity": 80}, {"time": 32077, "pitch": 29, "duration": 70, "velocity": 100}, {"time": 32157, "pitch": 31, "duration": 152, "velocity": 110}, {"time": 32319, "pitch": 34, "duration": 71, "velocity": 105}, {"time": 32400, "pitch": 36, "duration": 151, "velocity": 110}, {"time": 32562, "pitch": 38, "duration": 70, "velocity": 105}, {"time": 33041, "pitch": 41, "duration": 70, "velocity": 105}, {"time": 33121, "pitch": 43, "duration": 149, "velocity": 110}, {"time": 33280, "pitch": 38, "duration": 10, "velocity": 80}, {"time": 33360, "pitch": 43, "duration": 229, "velocity": 110}, {"time": 33599, "pitch": 41, "duration": 150, "velocity": 105}, {"time": 33759, "pitch": 38, "duration": 10, "velocity": 80}, {"time": 33838, "pitch": 41, "duration": 230, "velocity": 110}, {"time": 34078, "pitch": 39, "duration": 151, "velocity": 105}, {"time": 34239, "pitch": 34, "duration": 10, "velocity": 79}, {"time": 34320, "pitch": 39, "duration": 233, "velocity": 110}, {"time": 34563, "pitch": 38, "duration": 229, "velocity": 110}, {"time": 34802, "pitch": 34, "duration": 229, "velocity": 105}, {"time": 35041, "pitch": 31, "duration": 389, "velocity": 110}, {"time": 35440, "pitch": 43, "duration": 10, "velocity": 80}, {"time": 35918, "pitch": 29, "duration": 70, "velocity": 100}, {"time": 35998, "pitch": 31, "duration": 152, "velocity": 110}, {"time": 36160, "pitch": 34, "duration": 71, "velocity": 105}, {"time": 36241, "pitch": 36, "duration": 151, "velocity": 110}, {"time": 36402, "pitch": 38, "duration": 71, "velocity": 105}, {"time": 36882, "pitch": 31, "duration": 70, "velocity": 100}, {"time": 36962, "pitch": 34, "duration": 149, "velocity": 110}, {"time": 37121, "pitch": 31, "duration": 10, "velocity": 80}, {"time": 37201, "pitch": 34, "duration": 229, "velocity": 110}, {"time": 37440, "pitch": 36, "duration": 150, "velocity": 105}, {"time": 37600, "pitch": 31, "duration": 9, "velocity": 80}, {"time": 37679, "pitch": 36, "duration": 229, "velocity": 105}, {"time": 37918, "pitch": 38, "duration": 389, "velocity": 110}, {"time": 38882, "pitch": 31, "duration": 389, "velocity": 110}, {"time": 39281, "pitch": 43, "duration": 10, "velocity": 80}, {"time": 39759, "pitch": 26, "duration": 70, "velocity": 100}, {"time": 39839, "pitch": 31, "duration": 149, "velocity": 110}, {"time": 39998, "pitch": 34, "duration": 70, "velocity": 105}, {"time": 40078, "pitch": 36, "duration": 150, "velocity": 110}, {"time": 40238, "pitch": 38, "duration": 69, "velocity": 105}, {"time": 40722, "pitch": 31, "duration": 70, "velocity": 100}, {"time": 40802, "pitch": 38, "duration": 150, "velocity": 110}, {"time": 40962, "pitch": 31, "duration": 10, "velocity": 80}, {"time": 41042, "pitch": 38, "duration": 229, "velocity": 110}, {"time": 41281, "pitch": 36, "duration": 149, "velocity": 105}, {"time": 41440, "pitch": 31, "duration": 10, "velocity": 80}, {"time": 41520, "pitch": 36, "duration": 229, "velocity": 110}, {"time": 41759, "pitch": 34, "duration": 150, "velocity": 105}, {"time": 41919, "pitch": 31, "duration": 10, "velocity": 80}, {"time": 41998, "pitch": 34, "duration": 230, "velocity": 105}, {"time": 42238, "pitch": 33, "duration": 232, "velocity": 110}, {"time": 42480, "pitch": 29, "duration": 233, "velocity": 105}, {"time": 42723, "pitch": 31, "duration": 389, "velocity": 110}, {"time": 43122, "pitch": 43, "duration": 10, "velocity": 80}, {"time": 43600, "pitch": 26, "duration": 70, "velocity": 100}, {"time": 43680, "pitch": 31, "duration": 149, "velocity": 110}, {"time": 43839, "pitch": 26, "duration": 70, "velocity": 105}, {"time": 43919, "pitch": 29, "duration": 149, "velocity": 110}, {"time": 44078, "pitch": 31, "duration": 70, "velocity": 105}, {"time": 44563, "pitch": 31, "duration": 70, "velocity": 100}, {"time": 44643, "pitch": 34, "duration": 150, "velocity": 110}, {"time": 44803, "pitch": 31, "duration": 10, "velocity": 80}, {"time": 44883, "pitch": 34, "duration": 229, "velocity": 110}, {"time": 45122, "pitch": 36, "duration": 149, "velocity": 105}, {"time": 45281, "pitch": 31, "duration": 10, "velocity": 80}, {"time": 45361, "pitch": 36, "duration": 229, "velocity": 110}, {"time": 45600, "pitch": 38, "duration": 150, "velocity": 105}, {"time": 45760, "pitch": 34, "duration": 10, "velocity": 80}, {"time": 45839, "pitch": 38, "duration": 230, "velocity": 110}, {"time": 46079, "pitch": 29, "duration": 149, "velocity": 105}, {"time": 46238, "pitch": 26, "duration": 10, "velocity": 80}, {"time": 46318, "pitch": 29, "duration": 229, "velocity": 110}, {"time": 46557, "pitch": 31, "duration": 394, "velocity": 110}, {"time": 46961, "pitch": 43, "duration": 10, "velocity": 80}, {"time": 47441, "pitch": 26, "duration": 70, "velocity": 100}, {"time": 47521, "pitch": 31, "duration": 149, "velocity": 110}, {"time": 47680, "pitch": 34, "duration": 70, "velocity": 105}, {"time": 47760, "pitch": 36, "duration": 149, "velocity": 110}, {"time": 47919, "pitch": 38, "duration": 70, "velocity": 105}, {"time": 48398, "pitch": 31, "duration": 69, "velocity": 100}, {"time": 48477, "pitch": 38, "duration": 152, "velocity": 110}, {"time": 48639, "pitch": 31, "duration": 10, "velocity": 80}, {"time": 48720, "pitch": 38, "duration": 233, "velocity": 110}, {"time": 48963, "pitch": 36, "duration": 149, "velocity": 105}, {"time": 49122, "pitch": 31, "duration": 10, "velocity": 80}, {"time": 49202, "pitch": 36, "duration": 229, "velocity": 110}, {"time": 49441, "pitch": 34, "duration": 149, "velocity": 105}, {"time": 49600, "pitch": 31, "duration": 10, "velocity": 80}, {"time": 49680, "pitch": 34, "duration": 229, "velocity": 105}, {"time": 49919, "pitch": 33, "duration": 230, "velocity": 110}, {"time": 50159, "pitch": 29, "duration": 229, "velocity": 105}, {"time": 50398, "pitch": 31, "duration": 394, "velocity": 110}, {"time": 50802, "pitch": 43, "duration": 10, "velocity": 80}, {"time": 51282, "pitch": 26, "duration": 69, "velocity": 100}, {"time": 51361, "pitch": 31, "duration": 150, "velocity": 110}, {"time": 51521, "pitch": 26, "duration": 70, "velocity": 105}, {"time": 51601, "pitch": 29, "duration": 149, "velocity": 110}, {"time": 51760, "pitch": 31, "duration": 70, "velocity": 105}, {"time": 52238, "pitch": 31, "duration": 70, "velocity": 100}, {"time": 52318, "pitch": 29, "duration": 150, "velocity": 110}, {"time": 52478, "pitch": 24, "duration": 10, "velocity": 80}, {"time": 52557, "pitch": 29, "duration": 230, "velocity": 110}, {"time": 52797, "pitch": 32, "duration": 151, "velocity": 105}, {"time": 52958, "pitch": 29, "duration": 10, "velocity": 80}, {"time": 53039, "pitch": 33, "duration": 233, "velocity": 110}, {"time": 53282, "pitch": 34, "duration": 149, "velocity": 105}, {"time": 53441, "pitch": 41, "duration": 10, "velocity": 80}, {"time": 53521, "pitch": 29, "duration": 229, "velocity": 110}, {"time": 53760, "pitch": 34, "duration": 150, "velocity": 105}, {"time": 53920, "pitch": 29, "duration": 10, "velocity": 80}, {"time": 53999, "pitch": 35, "duration": 230, "velocity": 110}, {"time": 54239, "pitch": 36, "duration": 468, "velocity": 110}, {"time": 55121, "pitch": 31, "duration": 71, "velocity": 100}, {"time": 55202, "pitch": 36, "duration": 150, "velocity": 110}, {"time": 55362, "pitch": 31, "duration": 10, "velocity": 80}, {"time": 55441, "pitch": 36, "duration": 389, "velocity": 110}, {"time": 55840, "pitch": 33, "duration": 10, "velocity": 80}, {"time": 55920, "pitch": 31, "duration": 149, "velocity": 110}, {"time": 56079, "pitch": 30, "duration": 70, "velocity": 100}, {"time": 56159, "pitch": 29, "duration": 468, "velocity": 110}, {"time": 57042, "pitch": 36, "duration": 71, "velocity": 105}, {"time": 57123, "pitch": 41, "duration": 149, "velocity": 110}, {"time": 57282, "pitch": 36, "duration": 70, "velocity": 100}, {"time": 57362, "pitch": 41, "duration": 389, "velocity": 110}, {"time": 57761, "pitch": 36, "duration": 69, "velocity": 100}, {"time": 57840, "pitch": 29, "duration": 229, "velocity": 105}, {"time": 58079, "pitch": 34, "duration": 469, "velocity": 110}, {"time": 58962, "pitch": 29, "duration": 71, "velocity": 100}, {"time": 59043, "pitch": 34, "duration": 150, "velocity": 110}, {"time": 59203, "pitch": 29, "duration": 10, "velocity": 80}, {"time": 59282, "pitch": 34, "duration": 389, "velocity": 110}, {"time": 59681, "pitch": 29, "duration": 10, "velocity": 80}, {"time": 59761, "pitch": 33, "duration": 149, "velocity": 110}, {"time": 59920, "pitch": 32, "duration": 70, "velocity": 100}, {"time": 60000, "pitch": 31, "duration": 468, "velocity": 110}, {"time": 60877, "pitch": 38, "duration": 70, "velocity": 100}, {"time": 60957, "pitch": 43, "duration": 151, "velocity": 110}, {"time": 61118, "pitch": 38, "duration": 71, "velocity": 105}, {"time": 61199, "pitch": 43, "duration": 392, "velocity": 110}, {"time": 61601, "pitch": 38, "duration": 70, "velocity": 105}, {"time": 61681, "pitch": 35, "duration": 229, "velocity": 110}, {"time": 61920, "pitch": 36, "duration": 469, "velocity": 110}, {"time": 62797, "pitch": 31, "duration": 70, "velocity": 100}, {"time": 62877, "pitch": 36, "duration": 152, "velocity": 110}, {"time": 63039, "pitch": 31, "duration": 10, "velocity": 80}, {"time": 63120, "pitch": 36, "duration": 392, "velocity": 110}, {"time": 63522, "pitch": 33, "duration": 10, "velocity": 80}, {"time": 63602, "pitch": 31, "duration": 149, "velocity": 110}, {"time": 63761, "pitch": 30, "duration": 70, "velocity": 100}, {"time": 63841, "pitch": 29, "duration": 468, "velocity": 110}, {"time": 64718, "pitch": 36, "duration": 70, "velocity": 100}, {"time": 64798, "pitch": 41, "duration": 151, "velocity": 110}, {"time": 64959, "pitch": 36, "duration": 71, "velocity": 105}, {"time": 65040, "pitch": 41, "duration": 392, "velocity": 110}, {"time": 65442, "pitch": 36, "duration": 70, "velocity": 100}, {"time": 65522, "pitch": 29, "duration": 229, "velocity": 105}, {"time": 65761, "pitch": 34, "duration": 469, "velocity": 110}, {"time": 66638, "pitch": 28, "duration": 70, "velocity": 100}, {"time": 66718, "pitch": 34, "duration": 152, "velocity": 110}, {"time": 66880, "pitch": 29, "duration": 10, "velocity": 80}, {"time": 66961, "pitch": 34, "duration": 232, "velocity": 110}, {"time": 67203, "pitch": 36, "duration": 150, "velocity": 105}, {"time": 67363, "pitch": 31, "duration": 10, "velocity": 80}, {"time": 67442, "pitch": 37, "duration": 230, "velocity": 110}, {"time": 67682, "pitch": 38, "duration": 468, "velocity": 110}, {"time": 68319, "pitch": 38, "duration": 70, "velocity": 100}, {"time": 68399, "pitch": 36, "duration": 150, "velocity": 110}, {"time": 68559, "pitch": 37, "duration": 69, "velocity": 105}, {"time": 68638, "pitch": 38, "duration": 150, "velocity": 110}, {"time": 68798, "pitch": 38, "duration": 70, "velocity": 100}, {"time": 68878, "pitch": 36, "duration": 229, "velocity": 105}, {"time": 69117, "pitch": 34, "duration": 232, "velocity": 110}, {"time": 69359, "pitch": 33, "duration": 233, "velocity": 105}, {"time": 69602, "pitch": 31, "duration": 468, "velocity": 110}, {"time": 70479, "pitch": 29, "duration": 70, "velocity": 100}, {"time": 70559, "pitch": 31, "duration": 149, "velocity": 110}, {"time": 70718, "pitch": 29, "duration": 70, "velocity": 105}, {"time": 70798, "pitch": 31, "duration": 229, "velocity": 110}, {"time": 71199, "pitch": 34, "duration": 313, "velocity": 105}, {"time": 71522, "pitch": 28, "duration": 469, "velocity": 110}, {"time": 72399, "pitch": 27, "duration": 70, "velocity": 100}, {"time": 72479, "pitch": 28, "duration": 150, "velocity": 110}, {"time": 72639, "pitch": 27, "duration": 69, "velocity": 105}, {"time": 72718, "pitch": 28, "duration": 230, "velocity": 110}, {"time": 73119, "pitch": 34, "duration": 314, "velocity": 105}, {"time": 73443, "pitch": 27, "duration": 468, "velocity": 110}, {"time": 74320, "pitch": 34, "duration": 70, "velocity": 100}, {"time": 74400, "pitch": 27, "duration": 149, "velocity": 110}, {"time": 74559, "pitch": 26, "duration": 70, "velocity": 105}, {"time": 74639, "pitch": 27, "duration": 229, "velocity": 110}, {"time": 75040, "pitch": 34, "duration": 313, "velocity": 105}, {"time": 75363, "pitch": 26, "duration": 469, "velocity": 110}, {"time": 76240, "pitch": 26, "duration": 70, "velocity": 100}, {"time": 76320, "pitch": 29, "duration": 150, "velocity": 110}, {"time": 76480, "pitch": 28, "duration": 69, "velocity": 105}, {"time": 76559, "pitch": 29, "duration": 230, "velocity": 110}, {"time": 76958, "pitch": 33, "duration": 309, "velocity": 105}, {"time": 77277, "pitch": 31, "duration": 475, "velocity": 110}, {"time": 78161, "pitch": 29, "duration": 70, "velocity": 100}, {"time": 78241, "pitch": 31, "duration": 149, "velocity": 110}, {"time": 78400, "pitch": 29, "duration": 70, "velocity": 105}, {"time": 78480, "pitch": 31, "duration": 229, "velocity": 110}, {"time": 78878, "pitch": 34, "duration": 309, "velocity": 105}, {"time": 79197, "pitch": 28, "duration": 475, "velocity": 110}, {"time": 80081, "pitch": 27, "duration": 70, "velocity": 100}, {"time": 80161, "pitch": 28, "duration": 149, "velocity": 110}, {"time": 80320, "pitch": 27, "duration": 70, "velocity": 105}, {"time": 80400, "pitch": 28, "duration": 229, "velocity": 110}, {"time": 80799, "pitch": 34, "duration": 309, "velocity": 105}, {"time": 81118, "pitch": 27, "duration": 475, "velocity": 110}, {"time": 82002, "pitch": 34, "duration": 69, "velocity": 100}, {"time": 82081, "pitch": 27, "duration": 150, "velocity": 110}, {"time": 82241, "pitch": 26, "duration": 70, "velocity": 105}, {"time": 82321, "pitch": 27, "duration": 229, "velocity": 110}, {"time": 82719, "pitch": 34, "duration": 309, "velocity": 105}, {"time": 83038, "pitch": 26, "duration": 475, "velocity": 110}, {"time": 83922, "pitch": 26, "duration": 70, "velocity": 100}, {"time": 84002, "pitch": 29, "duration": 149, "velocity": 110}, {"time": 84161, "pitch": 28, "duration": 70, "velocity": 105}, {"time": 84241, "pitch": 29, "duration": 229, "velocity": 110}, {"time": 84640, "pitch": 33, "duration": 309, "velocity": 105}, {"time": 84959, "pitch": 31, "duration": 388, "velocity": 110}, {"time": 85357, "pitch": 43, "duration": 10, "velocity": 80}, {"time": 85841, "pitch": 29, "duration": 71, "velocity": 100}, {"time": 85922, "pitch": 31, "duration": 150, "velocity": 110}, {"time": 86082, "pitch": 34, "duration": 69, "velocity": 105}, {"time": 86161, "pitch": 36, "duration": 150, "velocity": 110}, {"time": 86321, "pitch": 38, "duration": 70, "velocity": 100}, {"time": 86799, "pitch": 41, "duration": 70, "velocity": 105}, {"time": 86879, "pitch": 43, "duration": 149, "velocity": 110}, {"time": 87038, "pitch": 38, "duration": 10, "velocity": 80}, {"time": 87118, "pitch": 43, "duration": 229, "velocity": 110}, {"time": 87357, "pitch": 41, "duration": 152, "velocity": 105}, {"time": 87519, "pitch": 38, "duration": 10, "velocity": 80}, {"time": 87600, "pitch": 41, "duration": 233, "velocity": 110}, {"time": 87843, "pitch": 39, "duration": 149, "velocity": 105}, {"time": 88002, "pitch": 34, "duration": 10, "velocity": 80}, {"time": 88082, "pitch": 39, "duration": 229, "velocity": 105}, {"time": 88321, "pitch": 38, "duration": 229, "velocity": 110}, {"time": 88560, "pitch": 34, "duration": 229, "velocity": 105}, {"time": 88799, "pitch": 31, "duration": 389, "velocity": 110}, {"time": 89198, "pitch": 43, "duration": 10, "velocity": 80}, {"time": 89682, "pitch": 29, "duration": 71, "velocity": 100}, {"time": 89763, "pitch": 31, "duration": 150, "velocity": 110}, {"time": 89923, "pitch": 34, "duration": 69, "velocity": 105}, {"time": 90002, "pitch": 36, "duration": 150, "velocity": 110}, {"time": 90162, "pitch": 38, "duration": 69, "velocity": 100}, {"time": 90640, "pitch": 31, "duration": 70, "velocity": 105}, {"time": 90720, "pitch": 34, "duration": 149, "velocity": 110}, {"time": 90879, "pitch": 31, "duration": 10, "velocity": 80}, {"time": 90959, "pitch": 34, "duration": 229, "velocity": 110}, {"time": 91198, "pitch": 36, "duration": 150, "velocity": 105}, {"time": 91358, "pitch": 31, "duration": 10, "velocity": 80}, {"time": 91437, "pitch": 36, "duration": 230, "velocity": 105}, {"time": 91677, "pitch": 38, "duration": 394, "velocity": 110}, {"time": 92640, "pitch": 31, "duration": 389, "velocity": 110}, {"time": 93039, "pitch": 43, "duration": 10, "velocity": 80}, {"time": 93517, "pitch": 26, "duration": 70, "velocity": 100}, {"time": 93597, "pitch": 31, "duration": 152, "velocity": 110}, {"time": 93759, "pitch": 34, "duration": 71, "velocity": 105}, {"time": 93840, "pitch": 36, "duration": 151, "velocity": 110}, {"time": 94001, "pitch": 38, "duration": 71, "velocity": 100}, {"time": 94481, "pitch": 31, "duration": 70, "velocity": 105}, {"time": 94561, "pitch": 38, "duration": 149, "velocity": 110}, {"time": 94720, "pitch": 31, "duration": 10, "velocity": 80}, {"time": 94800, "pitch": 38, "duration": 229, "velocity": 110}, {"time": 95039, "pitch": 36, "duration": 150, "velocity": 105}, {"time": 95199, "pitch": 31, "duration": 10, "velocity": 80}, {"time": 95278, "pitch": 36, "duration": 230, "velocity": 110}, {"time": 95517, "pitch": 34, "duration": 152, "velocity": 105}, {"time": 95679, "pitch": 31, "duration": 10, "velocity": 80}, {"time": 95760, "pitch": 34, "duration": 233, "velocity": 105}, {"time": 96003, "pitch": 33, "duration": 229, "velocity": 110}, {"time": 96242, "pitch": 29, "duration": 229, "velocity": 105}, {"time": 96481, "pitch": 31, "duration": 389, "velocity": 110}, {"time": 96880, "pitch": 43, "duration": 10, "velocity": 80}, {"time": 97358, "pitch": 26, "duration": 70, "velocity": 100}, {"time": 97438, "pitch": 31, "duration": 152, "velocity": 110}, {"time": 97600, "pitch": 26, "duration": 70, "velocity": 105}, {"time": 97681, "pitch": 29, "duration": 151, "velocity": 110}, {"time": 97842, "pitch": 31, "duration": 71, "velocity": 100}, {"time": 98322, "pitch": 31, "duration": 70, "velocity": 105}, {"time": 98402, "pitch": 34, "duration": 149, "velocity": 110}, {"time": 98561, "pitch": 31, "duration": 10, "velocity": 80}, {"time": 98641, "pitch": 34, "duration": 229, "velocity": 110}, {"time": 98880, "pitch": 36, "duration": 149, "velocity": 105}, {"time": 99039, "pitch": 31, "duration": 10, "velocity": 80}, {"time": 99119, "pitch": 36, "duration": 229, "velocity": 110}, {"time": 99358, "pitch": 38, "duration": 150, "velocity": 105}, {"time": 99518, "pitch": 34, "duration": 10, "velocity": 80}, {"time": 99598, "pitch": 38, "duration": 229, "velocity": 110}, {"time": 99837, "pitch": 29, "duration": 151, "velocity": 105}, {"time": 99998, "pitch": 26, "duration": 11, "velocity": 80}, {"time": 100079, "pitch": 29, "duration": 233, "velocity": 110}, {"time": 100322, "pitch": 31, "duration": 389, "velocity": 110}, {"time": 100721, "pitch": 43, "duration": 10, "velocity": 80}, {"time": 101199, "pitch": 26, "duration": 70, "velocity": 100}, {"time": 101279, "pitch": 31, "duration": 149, "velocity": 110}, {"time": 101438, "pitch": 34, "duration": 70, "velocity": 105}, {"time": 101518, "pitch": 36, "duration": 149, "velocity": 110}, {"time": 101677, "pitch": 38, "duration": 70, "velocity": 100}, {"time": 102162, "pitch": 31, "duration": 70, "velocity": 105}, {"time": 102242, "pitch": 38, "duration": 150, "velocity": 110}, {"time": 102402, "pitch": 31, "duration": 10, "velocity": 80}, {"time": 102482, "pitch": 38, "duration": 229, "velocity": 110}, {"time": 102721, "pitch": 36, "duration": 149, "velocity": 105}, {"time": 102880, "pitch": 31, "duration": 10, "velocity": 80}, {"time": 102960, "pitch": 36, "duration": 229, "velocity": 110}, {"time": 103199, "pitch": 34, "duration": 150, "velocity": 105}, {"time": 103359, "pitch": 31, "duration": 10, "velocity": 80}, {"time": 103438, "pitch": 34, "duration": 230, "velocity": 105}, {"time": 103678, "pitch": 33, "duration": 232, "velocity": 110}, {"time": 103920, "pitch": 29, "duration": 233, "velocity": 105}, {"time": 104163, "pitch": 31, "duration": 389, "velocity": 110}, {"time": 104561, "pitch": 43, "duration": 10, "velocity": 80}, {"time": 105040, "pitch": 26, "duration": 70, "velocity": 100}, {"time": 105120, "pitch": 31, "duration": 149, "velocity": 110}, {"time": 105279, "pitch": 26, "duration": 70, "velocity": 105}, {"time": 105359, "pitch": 29, "duration": 149, "velocity": 110}, {"time": 105518, "pitch": 31, "duration": 70, "velocity": 100}, {"time": 106002, "pitch": 31, "duration": 71, "velocity": 105}, {"time": 106083, "pitch": 29, "duration": 150, "velocity": 110}, {"time": 106243, "pitch": 24, "duration": 10, "velocity": 80}, {"time": 106322, "pitch": 29, "duration": 230, "velocity": 110}, {"time": 106562, "pitch": 32, "duration": 149, "velocity": 105}, {"time": 106721, "pitch": 29, "duration": 10, "velocity": 80}, {"time": 106801, "pitch": 33, "duration": 229, "velocity": 110}, {"time": 107040, "pitch": 34, "duration": 150, "velocity": 105}, {"time": 107199, "pitch": 41, "duration": 10, "velocity": 80}, {"time": 107279, "pitch": 29, "duration": 229, "velocity": 110}, {"time": 107518, "pitch": 34, "duration": 150, "velocity": 105}, {"time": 107678, "pitch": 29, "duration": 10, "velocity": 80}, {"time": 107758, "pitch": 35, "duration": 229, "velocity": 110}, {"time": 107997, "pitch": 36, "duration": 475, "velocity": 110}, {"time": 108881, "pitch": 31, "duration": 69, "velocity": 100}, {"time": 108960, "pitch": 36, "duration": 150, "velocity": 110}, {"time": 109120, "pitch": 31, "duration": 10, "velocity": 80}, {"time": 109200, "pitch": 36, "duration": 388, "velocity": 110}, {"time": 109598, "pitch": 33, "duration": 10, "velocity": 80}, {"time": 109678, "pitch": 31, "duration": 150, "velocity": 110}, {"time": 109837, "pitch": 30, "duration": 70, "velocity": 100}, {"time": 109917, "pitch": 29, "duration": 475, "velocity": 110}, {"time": 110801, "pitch": 36, "duration": 70, "velocity": 100}, {"time": 110881, "pitch": 41, "duration": 149, "velocity": 110}, {"time": 111040, "pitch": 36, "duration": 70, "velocity": 105}, {"time": 111120, "pitch": 41, "duration": 389, "velocity": 110}, {"time": 111519, "pitch": 36, "duration": 69, "velocity": 105}, {"time": 111598, "pitch": 29, "duration": 230, "velocity": 100}, {"time": 111838, "pitch": 34, "duration": 475, "velocity": 110}, {"time": 112722, "pitch": 29, "duration": 69, "velocity": 100}, {"time": 112801, "pitch": 34, "duration": 150, "velocity": 110}, {"time": 112961, "pitch": 29, "duration": 10, "velocity": 80}, {"time": 113040, "pitch": 34, "duration": 389, "velocity": 110}, {"time": 113439, "pitch": 29, "duration": 10, "velocity": 80}, {"time": 113519, "pitch": 33, "duration": 149, "velocity": 110}, {"time": 113678, "pitch": 32, "duration": 70, "velocity": 100}, {"time": 113758, "pitch": 31, "duration": 475, "velocity": 110}, {"time": 114642, "pitch": 38, "duration": 70, "velocity": 100}, {"time": 114722, "pitch": 43, "duration": 149, "velocity": 110}, {"time": 114881, "pitch": 38, "duration": 70, "velocity": 105}, {"time": 114961, "pitch": 43, "duration": 389, "velocity": 110}, {"time": 115360, "pitch": 38, "duration": 69, "velocity": 100}, {"time": 115439, "pitch": 35, "duration": 230, "velocity": 105}, {"time": 115679, "pitch": 36, "duration": 468, "velocity": 110}, {"time": 116561, "pitch": 31, "duration": 71, "velocity": 100}, {"time": 116642, "pitch": 36, "duration": 150, "velocity": 110}, {"time": 116802, "pitch": 31, "duration": 10, "velocity": 80}, {"time": 116881, "pitch": 36, "duration": 389, "velocity": 110}, {"time": 117280, "pitch": 33, "duration": 10, "velocity": 80}, {"time": 117360, "pitch": 31, "duration": 149, "velocity": 110}, {"time": 117519, "pitch": 30, "duration": 70, "velocity": 100}, {"time": 117599, "pitch": 29, "duration": 468, "velocity": 110}, {"time": 118482, "pitch": 36, "duration": 70, "velocity": 100}, {"time": 118563, "pitch": 41, "duration": 149, "velocity": 110}, {"time": 118722, "pitch": 36, "duration": 70, "velocity": 105}, {"time": 118802, "pitch": 41, "duration": 388, "velocity": 110}, {"time": 119200, "pitch": 36, "duration": 70, "velocity": 105}, {"time": 119280, "pitch": 29, "duration": 229, "velocity": 100}, {"time": 119519, "pitch": 34, "duration": 469, "velocity": 110}, {"time": 120402, "pitch": 28, "duration": 71, "velocity": 100}, {"time": 120483, "pitch": 34, "duration": 149, "velocity": 110}, {"time": 120642, "pitch": 29, "duration": 10, "velocity": 80}, {"time": 120722, "pitch": 34, "duration": 229, "velocity": 110}, {"time": 120961, "pitch": 36, "duration": 150, "velocity": 105}, {"time": 121121, "pitch": 31, "duration": 10, "velocity": 80}, {"time": 121201, "pitch": 37, "duration": 229, "velocity": 110}, {"time": 121440, "pitch": 38, "duration": 468, "velocity": 110}, {"time": 122080, "pitch": 38, "duration": 71, "velocity": 100}, {"time": 122161, "pitch": 36, "duration": 151, "velocity": 110}, {"time": 122323, "pitch": 37, "duration": 70, "velocity": 105}, {"time": 122403, "pitch": 38, "duration": 150, "velocity": 110}, {"time": 122563, "pitch": 38, "duration": 70, "velocity": 100}, {"time": 122643, "pitch": 36, "duration": 229, "velocity": 105}, {"time": 122882, "pitch": 34, "duration": 229, "velocity": 110}, {"time": 123121, "pitch": 33, "duration": 229, "velocity": 105}, {"time": 123360, "pitch": 31, "duration": 469, "velocity": 110}, {"time": 124237, "pitch": 29, "duration": 70, "velocity": 100}, {"time": 124317, "pitch": 31, "duration": 152, "velocity": 110}, {"time": 124479, "pitch": 29, "duration": 70, "velocity": 105}, {"time": 124560, "pitch": 31, "duration": 232, "velocity": 110}, {"time": 124962, "pitch": 34, "duration": 309, "velocity": 105}, {"time": 125281, "pitch": 28, "duration": 468, "velocity": 110}, {"time": 126158, "pitch": 27, "duration": 69, "velocity": 100}, {"time": 126237, "pitch": 28, "duration": 152, "velocity": 110}, {"time": 126399, "pitch": 27, "duration": 71, "velocity": 105}, {"time": 126480, "pitch": 28, "duration": 233, "velocity": 110}, {"time": 126882, "pitch": 34, "duration": 309, "velocity": 100}, {"time": 127201, "pitch": 27, "duration": 468, "velocity": 110}, {"time": 128078, "pitch": 34, "duration": 70, "velocity": 100}, {"time": 128158, "pitch": 27, "duration": 151, "velocity": 110}, {"time": 128320, "pitch": 26, "duration": 70, "velocity": 105}, {"time": 128400, "pitch": 27, "duration": 233, "velocity": 110}, {"time": 128803, "pitch": 34, "duration": 309, "velocity": 105}, {"time": 129121, "pitch": 26, "duration": 469, "velocity": 110}, {"time": 129999, "pitch": 26, "duration": 69, "velocity": 100}, {"time": 130078, "pitch": 29, "duration": 150, "velocity": 110}, {"time": 130238, "pitch": 28, "duration": 69, "velocity": 105}, {"time": 130317, "pitch": 29, "duration": 230, "velocity": 110}, {"time": 130718, "pitch": 33, "duration": 314, "velocity": 105}, {"time": 131042, "pitch": 31, "duration": 468, "velocity": 110}, {"time": 131919, "pitch": 29, "duration": 70, "velocity": 100}, {"time": 131999, "pitch": 31, "duration": 149, "velocity": 110}, {"time": 132158, "pitch": 29, "duration": 70, "velocity": 105}, {"time": 132238, "pitch": 31, "duration": 229, "velocity": 110}, {"time": 132639, "pitch": 34, "duration": 313, "velocity": 105}, {"time": 132962, "pitch": 28, "duration": 469, "velocity": 110}, {"time": 133839, "pitch": 27, "duration": 70, "velocity": 100}, {"time": 133919, "pitch": 28, "duration": 150, "velocity": 110}, {"time": 134079, "pitch": 27, "duration": 69, "velocity": 105}, {"time": 134158, "pitch": 28, "duration": 230, "velocity": 110}, {"time": 134559, "pitch": 34, "duration": 314, "velocity": 105}, {"time": 134883, "pitch": 27, "duration": 468, "velocity": 110}, {"time": 135760, "pitch": 34, "duration": 70, "velocity": 100}, {"time": 135840, "pitch": 27, "duration": 149, "velocity": 110}, {"time": 135999, "pitch": 26, "duration": 70, "velocity": 105}, {"time": 136079, "pitch": 27, "duration": 229, "velocity": 110}, {"time": 136480, "pitch": 34, "duration": 313, "velocity": 105}, {"time": 136803, "pitch": 26, "duration": 469, "velocity": 110}, {"time": 137680, "pitch": 26, "duration": 70, "velocity": 100}, {"time": 137760, "pitch": 29, "duration": 149, "velocity": 110}, {"time": 137919, "pitch": 28, "duration": 70, "velocity": 105}, {"time": 137999, "pitch": 29, "duration": 229, "velocity": 110}, {"time": 138398, "pitch": 33, "duration": 309, "velocity": 105}, {"time": 138717, "pitch": 31, "duration": 394, "velocity": 110}, {"time": 139121, "pitch": 43, "duration": 10, "velocity": 80}, {"time": 139601, "pitch": 29, "duration": 69, "velocity": 100}, {"time": 139680, "pitch": 31, "duration": 150, "velocity": 110}, {"time": 139840, "pitch": 34, "duration": 70, "velocity": 105}, {"time": 139920, "pitch": 36, "duration": 149, "velocity": 110}, {"time": 140079, "pitch": 38, "duration": 70, "velocity": 105}, {"time": 140557, "pitch": 41, "duration": 70, "velocity": 100}, {"time": 140637, "pitch": 43, "duration": 152, "velocity": 110}, {"time": 140799, "pitch": 38, "duration": 10, "velocity": 80}, {"time": 140880, "pitch": 43, "duration": 232, "velocity": 110}, {"time": 141122, "pitch": 41, "duration": 150, "velocity": 105}, {"time": 141282, "pitch": 38, "duration": 10, "velocity": 80}, {"time": 141362, "pitch": 41, "duration": 229, "velocity": 110}, {"time": 141601, "pitch": 39, "duration": 149, "velocity": 105}, {"time": 141760, "pitch": 34, "duration": 10, "velocity": 80}, {"time": 141840, "pitch": 39, "duration": 229, "velocity": 105}, {"time": 142079, "pitch": 38, "duration": 229, "velocity": 110}, {"time": 142318, "pitch": 34, "duration": 230, "velocity": 105}, {"time": 142558, "pitch": 31, "duration": 394, "velocity": 110}, {"time": 142962, "pitch": 43, "duration": 10, "velocity": 80}, {"time": 143442, "pitch": 29, "duration": 69, "velocity": 100}, {"time": 143521, "pitch": 31, "duration": 150, "velocity": 110}, {"time": 143681, "pitch": 34, "duration": 69, "velocity": 105}, {"time": 143760, "pitch": 36, "duration": 150, "velocity": 110}, {"time": 143920, "pitch": 38, "duration": 70, "velocity": 105}, {"time": 144398, "pitch": 31, "duration": 70, "velocity": 100}, {"time": 144478, "pitch": 34, "duration": 152, "velocity": 110}, {"time": 144640, "pitch": 31, "duration": 10, "velocity": 80}, {"time": 144721, "pitch": 34, "duration": 232, "velocity": 110}, {"time": 144963, "pitch": 36, "duration": 150, "velocity": 105}, {"time": 145123, "pitch": 31, "duration": 10, "velocity": 80}, {"time": 145202, "pitch": 36, "duration": 230, "velocity": 105}, {"time": 145442, "pitch": 38, "duration": 388, "velocity": 110}, {"time": 146398, "pitch": 31, "duration": 469, "velocity": 110}, {"time": 147281, "pitch": 29, "duration": 71, "velocity": 100}, {"time": 147362, "pitch": 31, "duration": 150, "velocity": 110}, {"time": 147522, "pitch": 29, "duration": 69, "velocity": 105}, {"time": 147601, "pitch": 31, "duration": 230, "velocity": 110}, {"time": 148000, "pitch": 34, "duration": 309, "velocity": 105}, {"time": 148319, "pitch": 28, "duration": 468, "velocity": 110}, {"time": 149202, "pitch": 27, "duration": 70, "velocity": 100}, {"time": 149283, "pitch": 28, "duration": 149, "velocity": 110}, {"time": 149442, "pitch": 27, "duration": 70, "velocity": 105}, {"time": 149522, "pitch": 28, "duration": 229, "velocity": 110}, {"time": 149920, "pitch": 34, "duration": 309, "velocity": 105}, {"time": 150239, "pitch": 27, "duration": 469, "velocity": 110}, {"time": 151122, "pitch": 34, "duration": 71, "velocity": 100}, {"time": 151203, "pitch": 27, "duration": 149, "velocity": 110}, {"time": 151362, "pitch": 26, "duration": 70, "velocity": 105}, {"time": 151442, "pitch": 27, "duration": 229, "velocity": 110}, {"time": 151841, "pitch": 34, "duration": 309, "velocity": 105}, {"time": 152160, "pitch": 26, "duration": 468, "velocity": 110}, {"time": 153043, "pitch": 26, "duration": 70, "velocity": 100}, {"time": 153123, "pitch": 29, "duration": 150, "velocity": 110}, {"time": 153283, "pitch": 28, "duration": 70, "velocity": 105}, {"time": 153363, "pitch": 29, "duration": 229, "velocity": 110}, {"time": 153761, "pitch": 33, "duration": 309, "velocity": 105}, {"time": 154080, "pitch": 31, "duration": 469, "velocity": 110}, {"time": 154957, "pitch": 29, "duration": 70, "velocity": 100}, {"time": 155037, "pitch": 31, "duration": 152, "velocity": 110}, {"time": 155199, "pitch": 29, "duration": 70, "velocity": 105}, {"time": 155280, "pitch": 31, "duration": 232, "velocity": 110}, {"time": 155682, "pitch": 34, "duration": 309, "velocity": 105}, {"time": 156001, "pitch": 28, "duration": 468, "velocity": 110}, {"time": 156878, "pitch": 27, "duration": 69, "velocity": 100}, {"time": 156957, "pitch": 28, "duration": 152, "velocity": 110}, {"time": 157119, "pitch": 27, "duration": 71, "velocity": 105}, {"time": 157200, "pitch": 28, "duration": 233, "velocity": 110}, {"time": 157602, "pitch": 34, "duration": 309, "velocity": 100}, {"time": 157921, "pitch": 27, "duration": 468, "velocity": 110}, {"time": 158798, "pitch": 34, "duration": 70, "velocity": 100}, {"time": 158878, "pitch": 27, "duration": 151, "velocity": 110}, {"time": 159040, "pitch": 26, "duration": 70, "velocity": 105}, {"time": 159120, "pitch": 27, "duration": 233, "velocity": 110}, {"time": 159522, "pitch": 34, "duration": 309, "velocity": 105}, {"time": 159841, "pitch": 26, "duration": 469, "velocity": 110}, {"time": 160718, "pitch": 26, "duration": 70, "velocity": 100}, {"time": 160798, "pitch": 29, "duration": 150, "velocity": 110}, {"time": 160958, "pitch": 28, "duration": 69, "velocity": 105}, {"time": 161037, "pitch": 29, "duration": 230, "velocity": 110}, {"time": 161438, "pitch": 33, "duration": 314, "velocity": 105}, {"time": 16080, "pitch": 67, "duration": 151, "velocity": 100}, {"time": 16241, "pitch": 74, "duration": 71, "velocity": 90}, {"time": 16322, "pitch": 79, "duration": 229, "velocity": 100}, {"time": 16561, "pitch": 86, "duration": 150, "velocity": 95}, {"time": 16721, "pitch": 79, "duration": 309, "velocity": 100}, {"time": 17040, "pitch": 74, "duration": 149, "velocity": 90}, {"time": 17199, "pitch": 79, "duration": 309, "velocity": 95}, {"time": 17518, "pitch": 86, "duration": 472, "velocity": 100}, {"time": 18000, "pitch": 79, "duration": 152, "velocity": 95}, {"time": 18162, "pitch": 86, "duration": 71, "velocity": 90}, {"time": 18243, "pitch": 91, "duration": 229, "velocity": 100}, {"time": 18482, "pitch": 86, "duration": 149, "velocity": 95}, {"time": 18641, "pitch": 74, "duration": 230, "velocity": 90}, {"time": 18880, "pitch": 86, "duration": 70, "velocity": 95}, {"time": 18960, "pitch": 79, "duration": 469, "velocity": 100}, {"time": 19439, "pitch": 86, "duration": 149, "velocity": 95}, {"time": 19598, "pitch": 79, "duration": 70, "velocity": 90}, {"time": 19678, "pitch": 67, "duration": 232, "velocity": 100}, {"time": 19920, "pitch": 74, "duration": 152, "velocity": 95}, {"time": 20082, "pitch": 79, "duration": 709, "velocity": 100}, {"time": 20801, "pitch": 86, "duration": 229, "velocity": 100}, {"time": 21040, "pitch": 74, "duration": 229, "velocity": 95}, {"time": 21279, "pitch": 67, "duration": 70, "velocity": 90}, {"time": 21359, "pitch": 74, "duration": 150, "velocity": 100}, {"time": 21519, "pitch": 79, "duration": 69, "velocity": 95}, {"time": 21598, "pitch": 86, "duration": 229, "velocity": 100}, {"time": 21837, "pitch": 79, "duration": 150, "velocity": 95}, {"time": 21997, "pitch": 74, "duration": 231, "velocity": 100}, {"time": 22238, "pitch": 79, "duration": 71, "velocity": 90}, {"time": 22319, "pitch": 86, "duration": 152, "velocity": 95}, {"time": 22481, "pitch": 91, "duration": 709, "velocity": 100}, {"time": 23200, "pitch": 86, "duration": 70, "velocity": 95}, {"time": 23279, "pitch": 79, "duration": 230, "velocity": 90}, {"time": 23758, "pitch": 67, "duration": 149, "velocity": 100}, {"time": 23917, "pitch": 74, "duration": 70, "velocity": 90}, {"time": 23997, "pitch": 79, "duration": 233, "velocity": 95}, {"time": 24240, "pitch": 86, "duration": 151, "velocity": 100}, {"time": 24401, "pitch": 79, "duration": 311, "velocity": 95}, {"time": 24722, "pitch": 74, "duration": 149, "velocity": 90}, {"time": 24881, "pitch": 79, "duration": 309, "velocity": 100}, {"time": 25200, "pitch": 86, "duration": 468, "velocity": 100}, {"time": 25678, "pitch": 79, "duration": 150, "velocity": 95}, {"time": 25838, "pitch": 86, "duration": 70, "velocity": 90}, {"time": 25917, "pitch": 91, "duration": 233, "velocity": 95}, {"time": 26160, "pitch": 86, "duration": 152, "velocity": 100}, {"time": 26322, "pitch": 74, "duration": 230, "velocity": 95}, {"time": 26562, "pitch": 86, "duration": 70, "velocity": 90}, {"time": 26642, "pitch": 79, "duration": 468, "velocity": 100}, {"time": 27120, "pitch": 86, "duration": 150, "velocity": 95}, {"time": 27280, "pitch": 79, "duration": 70, "velocity": 90}, {"time": 27360, "pitch": 67, "duration": 229, "velocity": 100}, {"time": 27599, "pitch": 74, "duration": 149, "velocity": 90}, {"time": 27758, "pitch": 79, "duration": 715, "velocity": 95}, {"time": 28483, "pitch": 86, "duration": 229, "velocity": 100}, {"time": 28722, "pitch": 74, "duration": 229, "velocity": 95}, {"time": 28961, "pitch": 67, "duration": 70, "velocity": 90}, {"time": 29041, "pitch": 74, "duration": 149, "velocity": 100}, {"time": 29200, "pitch": 79, "duration": 70, "velocity": 95}, {"time": 29280, "pitch": 86, "duration": 229, "velocity": 100}, {"time": 29519, "pitch": 79, "duration": 150, "velocity": 95}, {"time": 29679, "pitch": 74, "duration": 229, "velocity": 100}, {"time": 29918, "pitch": 79, "duration": 70, "velocity": 90}, {"time": 29998, "pitch": 86, "duration": 149, "velocity": 95}, {"time": 30157, "pitch": 91, "duration": 714, "velocity": 100}, {"time": 30881, "pitch": 86, "duration": 70, "velocity": 95}, {"time": 30961, "pitch": 79, "duration": 229, "velocity": 90}, {"time": 123599, "pitch": 67, "duration": 150, "velocity": 100}, {"time": 123759, "pitch": 74, "duration": 70, "velocity": 95}, {"time": 123839, "pitch": 79, "duration": 229, "velocity": 100}, {"time": 124078, "pitch": 86, "duration": 149, "velocity": 95}, {"time": 124237, "pitch": 79, "duration": 312, "velocity": 100}, {"time": 124560, "pitch": 74, "duration": 151, "velocity": 95}, {"time": 124721, "pitch": 79, "duration": 310, "velocity": 100}, {"time": 125041, "pitch": 86, "duration": 469, "velocity": 100}, {"time": 125520, "pitch": 79, "duration": 149, "velocity": 100}, {"time": 125679, "pitch": 86, "duration": 70, "velocity": 90}, {"time": 125759, "pitch": 91, "duration": 229, "velocity": 100}, {"time": 125998, "pitch": 86, "duration": 150, "velocity": 95}, {"time": 126158, "pitch": 74, "duration": 231, "velocity": 100}, {"time": 126399, "pitch": 86, "duration": 71, "velocity": 95}, {"time": 126480, "pitch": 79, "duration": 472, "velocity": 100}, {"time": 126962, "pitch": 86, "duration": 149, "velocity": 95}, {"time": 127121, "pitch": 79, "duration": 70, "velocity": 90}, {"time": 127201, "pitch": 67, "duration": 229, "velocity": 100}, {"time": 127440, "pitch": 74, "duration": 150, "velocity": 95}, {"time": 127600, "pitch": 79, "duration": 709, "velocity": 100}, {"time": 128320, "pitch": 86, "duration": 232, "velocity": 100}, {"time": 128562, "pitch": 74, "duration": 231, "velocity": 95}, {"time": 128803, "pitch": 67, "duration": 69, "velocity": 90}, {"time": 128882, "pitch": 74, "duration": 150, "velocity": 100}, {"time": 129042, "pitch": 79, "duration": 70, "velocity": 95}, {"time": 129121, "pitch": 86, "duration": 230, "velocity": 100}, {"time": 129361, "pitch": 79, "duration": 149, "velocity": 95}, {"time": 129520, "pitch": 74, "duration": 229, "velocity": 100}, {"time": 129759, "pitch": 79, "duration": 70, "velocity": 90}, {"time": 129839, "pitch": 86, "duration": 150, "velocity": 96}, {"time": 129999, "pitch": 91, "duration": 709, "velocity": 100}, {"time": 130718, "pitch": 86, "duration": 71, "velocity": 90}, {"time": 130799, "pitch": 79, "duration": 233, "velocity": 95}, {"time": 131281, "pitch": 67, "duration": 150, "velocity": 100}, {"time": 131441, "pitch": 74, "duration": 69, "velocity": 90}, {"time": 131520, "pitch": 79, "duration": 230, "velocity": 100}, {"time": 131759, "pitch": 86, "duration": 150, "velocity": 95}, {"time": 131919, "pitch": 79, "duration": 309, "velocity": 100}, {"time": 132238, "pitch": 74, "duration": 149, "velocity": 95}, {"time": 132397, "pitch": 79, "duration": 313, "velocity": 100}, {"time": 132720, "pitch": 86, "duration": 472, "velocity": 100}, {"time": 133202, "pitch": 79, "duration": 149, "velocity": 95}, {"time": 133361, "pitch": 86, "duration": 70, "velocity": 90}, {"time": 133441, "pitch": 91, "duration": 229, "velocity": 100}, {"time": 133680, "pitch": 86, "duration": 149, "velocity": 95}, {"time": 133839, "pitch": 74, "duration": 230, "velocity": 100}, {"time": 134079, "pitch": 86, "duration": 69, "velocity": 90}, {"time": 134158, "pitch": 79, "duration": 472, "velocity": 100}, {"time": 134640, "pitch": 86, "duration": 152, "velocity": 95}, {"time": 134802, "pitch": 79, "duration": 71, "velocity": 90}, {"time": 134883, "pitch": 67, "duration": 229, "velocity": 100}, {"time": 135122, "pitch": 74, "duration": 149, "velocity": 95}, {"time": 135281, "pitch": 79, "duration": 708, "velocity": 100}, {"time": 135999, "pitch": 86, "duration": 229, "velocity": 100}, {"time": 136238, "pitch": 74, "duration": 232, "velocity": 95}, {"time": 136480, "pitch": 67, "duration": 70, "velocity": 90}, {"time": 136561, "pitch": 74, "duration": 151, "velocity": 100}, {"time": 136722, "pitch": 79, "duration": 71, "velocity": 95}, {"time": 136803, "pitch": 86, "duration": 229, "velocity": 100}, {"time": 137042, "pitch": 79, "duration": 150, "velocity": 95}, {"time": 137202, "pitch": 74, "duration": 229, "velocity": 100}, {"time": 137441, "pitch": 79, "duration": 70, "velocity": 90}, {"time": 137521, "pitch": 86, "duration": 149, "velocity": 95}, {"time": 137680, "pitch": 91, "duration": 708, "velocity": 100}, {"time": 138398, "pitch": 86, "duration": 70, "velocity": 95}, {"time": 138478, "pitch": 79, "duration": 229, "velocity": 90}, {"time": 146638, "pitch": 67, "duration": 149, "velocity": 100}, {"time": 146797, "pitch": 74, "duration": 70, "velocity": 95}, {"time": 146877, "pitch": 79, "duration": 232, "velocity": 100}, {"time": 147119, "pitch": 86, "duration": 152, "velocity": 95}, {"time": 147281, "pitch": 79, "duration": 310, "velocity": 100}, {"time": 147601, "pitch": 74, "duration": 150, "velocity": 95}, {"time": 147761, "pitch": 79, "duration": 309, "velocity": 100}, {"time": 148080, "pitch": 86, "duration": 468, "velocity": 100}, {"time": 148558, "pitch": 79, "duration": 150, "velocity": 95}, {"time": 148718, "pitch": 86, "duration": 69, "velocity": 90}, {"time": 148797, "pitch": 91, "duration": 233, "velocity": 100}, {"time": 149040, "pitch": 86, "duration": 152, "velocity": 95}, {"time": 149202, "pitch": 74, "duration": 230, "velocity": 100}, {"time": 149442, "pitch": 86, "duration": 70, "velocity": 95}, {"time": 149522, "pitch": 79, "duration": 468, "velocity": 100}, {"time": 150000, "pitch": 86, "duration": 150, "velocity": 95}, {"time": 150160, "pitch": 79, "duration": 69, "velocity": 90}, {"time": 150239, "pitch": 67, "duration": 230, "velocity": 100}, {"time": 150478, "pitch": 74, "duration": 150, "velocity": 95}, {"time": 150638, "pitch": 79, "duration": 714, "velocity": 100}, {"time": 151362, "pitch": 86, "duration": 230, "velocity": 100}, {"time": 151602, "pitch": 74, "duration": 229, "velocity": 95}, {"time": 151841, "pitch": 67, "duration": 70, "velocity": 90}, {"time": 151921, "pitch": 74, "duration": 149, "velocity": 100}, {"time": 152080, "pitch": 79, "duration": 70, "velocity": 95}, {"time": 152160, "pitch": 86, "duration": 229, "velocity": 100}, {"time": 152399, "pitch": 79, "duration": 149, "velocity": 95}, {"time": 152558, "pitch": 74, "duration": 232, "velocity": 100}, {"time": 152800, "pitch": 79, "duration": 71, "velocity": 90}, {"time": 152881, "pitch": 86, "duration": 151, "velocity": 95}, {"time": 153043, "pitch": 91, "duration": 708, "velocity": 100}, {"time": 153761, "pitch": 86, "duration": 70, "velocity": 95}, {"time": 153841, "pitch": 79, "duration": 229, "velocity": 90}, {"time": 154319, "pitch": 67, "duration": 150, "velocity": 100}, {"time": 154479, "pitch": 74, "duration": 70, "velocity": 90}, {"time": 154559, "pitch": 79, "duration": 229, "velocity": 100}, {"time": 154798, "pitch": 86, "duration": 149, "velocity": 95}, {"time": 154957, "pitch": 79, "duration": 312, "velocity": 100}, {"time": 155280, "pitch": 74, "duration": 151, "velocity": 95}, {"time": 155441, "pitch": 79, "duration": 310, "velocity": 100}, {"time": 155761, "pitch": 86, "duration": 469, "velocity": 100}, {"time": 156240, "pitch": 79, "duration": 149, "velocity": 95}, {"time": 156399, "pitch": 86, "duration": 70, "velocity": 90}, {"time": 156479, "pitch": 91, "duration": 229, "velocity": 100}, {"time": 156718, "pitch": 86, "duration": 150, "velocity": 95}, {"time": 156878, "pitch": 74, "duration": 231, "velocity": 100}, {"time": 157119, "pitch": 86, "duration": 71, "velocity": 90}, {"time": 157200, "pitch": 79, "duration": 472, "velocity": 100}, {"time": 157682, "pitch": 86, "duration": 149, "velocity": 95}, {"time": 157841, "pitch": 79, "duration": 70, "velocity": 90}, {"time": 157921, "pitch": 67, "duration": 229, "velocity": 100}, {"time": 158160, "pitch": 74, "duration": 150, "velocity": 95}, {"time": 158320, "pitch": 79, "duration": 709, "velocity": 100}, {"time": 159040, "pitch": 86, "duration": 232, "velocity": 100}, {"time": 159282, "pitch": 74, "duration": 231, "velocity": 95}, {"time": 159522, "pitch": 67, "duration": 70, "velocity": 90}, {"time": 159602, "pitch": 74, "duration": 150, "velocity": 100}, {"time": 159762, "pitch": 79, "duration": 69, "velocity": 90}, {"time": 159841, "pitch": 86, "duration": 230, "velocity": 100}, {"time": 160081, "pitch": 79, "duration": 149, "velocity": 95}, {"time": 160240, "pitch": 74, "duration": 229, "velocity": 100}, {"time": 160479, "pitch": 79, "duration": 70, "velocity": 90}, {"time": 160559, "pitch": 86, "duration": 150, "velocity": 95}, {"time": 160718, "pitch": 91, "duration": 710, "velocity": 100}, {"time": 161438, "pitch": 86, "duration": 71, "velocity": 90}, {"time": 161519, "pitch": 79, "duration": 233, "velocity": 95}, {"time": 15999, "pitch": 76, "duration": 70, "velocity": 90}, {"time": 16080, "pitch": 77, "duration": 151, "velocity": 95}, {"time": 16241, "pitch": 76, "duration": 81, "velocity": 90}, {"time": 16322, "pitch": 77, "duration": 140, "velocity": 100}, {"time": 16721, "pitch": 76, "duration": 80, "velocity": 90}, {"time": 16801, "pitch": 77, "duration": 149, "velocity": 95}, {"time": 16960, "pitch": 76, "duration": 80, "velocity": 90}, {"time": 17040, "pitch": 77, "duration": 139, "velocity": 95}, {"time": 17438, "pitch": 77, "duration": 70, "velocity": 90}, {"time": 17518, "pitch": 77, "duration": 150, "velocity": 95}, {"time": 17678, "pitch": 77, "duration": 79, "velocity": 90}, {"time": 17757, "pitch": 79, "duration": 142, "velocity": 100}, {"time": 18000, "pitch": 74, "duration": 121, "velocity": 90}, {"time": 18243, "pitch": 72, "duration": 119, "velocity": 95}, {"time": 18482, "pitch": 74, "duration": 139, "velocity": 90}, {"time": 18641, "pitch": 72, "duration": 220, "velocity": 100}, {"time": 18880, "pitch": 70, "duration": 459, "velocity": 95}, {"time": 23678, "pitch": 76, "duration": 60, "velocity": 90}, {"time": 23758, "pitch": 77, "duration": 149, "velocity": 95}, {"time": 23917, "pitch": 76, "duration": 70, "velocity": 90}, {"time": 23997, "pitch": 77, "duration": 142, "velocity": 100}, {"time": 24401, "pitch": 76, "duration": 81, "velocity": 90}, {"time": 24482, "pitch": 77, "duration": 140, "velocity": 100}, {"time": 24642, "pitch": 76, "duration": 89, "velocity": 90}, {"time": 24722, "pitch": 77, "duration": 139, "velocity": 95}, {"time": 24881, "pitch": 77, "duration": 70, "velocity": 90}, {"time": 24961, "pitch": 77, "duration": 139, "velocity": 95}, {"time": 25120, "pitch": 77, "duration": 70, "velocity": 90}, {"time": 25200, "pitch": 77, "duration": 139, "velocity": 95}, {"time": 25359, "pitch": 77, "duration": 70, "velocity": 90}, {"time": 25439, "pitch": 79, "duration": 140, "velocity": 100}, {"time": 25678, "pitch": 74, "duration": 120, "velocity": 90}, {"time": 25917, "pitch": 72, "duration": 142, "velocity": 95}, {"time": 26160, "pitch": 74, "duration": 142, "velocity": 90}, {"time": 26322, "pitch": 72, "duration": 220, "velocity": 100}, {"time": 26562, "pitch": 70, "duration": 459, "velocity": 95}, {"time": 29998, "pitch": 74, "duration": 139, "velocity": 95}, {"time": 30237, "pitch": 82, "duration": 303, "velocity": 100}, {"time": 30641, "pitch": 81, "duration": 201, "velocity": 95}, {"time": 30961, "pitch": 81, "duration": 2140, "velocity": 100}, {"time": 39360, "pitch": 72, "duration": 120, "velocity": 100}, {"time": 39600, "pitch": 70, "duration": 119, "velocity": 95}, {"time": 39839, "pitch": 69, "duration": 159, "velocity": 100}, {"time": 39998, "pitch": 67, "duration": 100, "velocity": 90}, {"time": 40238, "pitch": 69, "duration": 140, "velocity": 95}, {"time": 40722, "pitch": 62, "duration": 70, "velocity": 90}, {"time": 40802, "pitch": 72, "duration": 120, "velocity": 100}, {"time": 41042, "pitch": 70, "duration": 119, "velocity": 95}, {"time": 41281, "pitch": 69, "duration": 149, "velocity": 90}, {"time": 41440, "pitch": 67, "duration": 140, "velocity": 95}, {"time": 41680, "pitch": 65, "duration": 139, "velocity": 100}, {"time": 43122, "pitch": 62, "duration": 59, "velocity": 90}, {"time": 43201, "pitch": 72, "duration": 100, "velocity": 100}, {"time": 43441, "pitch": 70, "duration": 139, "velocity": 95}, {"time": 43680, "pitch": 69, "duration": 139, "velocity": 100}, {"time": 43839, "pitch": 67, "duration": 120, "velocity": 90}, {"time": 44078, "pitch": 69, "duration": 141, "velocity": 95}, {"time": 44563, "pitch": 62, "duration": 80, "velocity": 90}, {"time": 44643, "pitch": 72, "duration": 120, "velocity": 100}, {"time": 44883, "pitch": 70, "duration": 119, "velocity": 90}, {"time": 45122, "pitch": 72, "duration": 159, "velocity": 95}, {"time": 45281, "pitch": 74, "duration": 100, "velocity": 90}, {"time": 45520, "pitch": 74, "duration": 140, "velocity": 100}, {"time": 47042, "pitch": 72, "duration": 120, "velocity": 100}, {"time": 47281, "pitch": 70, "duration": 120, "velocity": 95}, {"time": 47521, "pitch": 69, "duration": 149, "velocity": 100}, {"time": 47680, "pitch": 67, "duration": 100, "velocity": 90}, {"time": 47919, "pitch": 69, "duration": 140, "velocity": 95}, {"time": 48398, "pitch": 62, "duration": 79, "velocity": 90}, {"time": 48477, "pitch": 72, "duration": 122, "velocity": 100}, {"time": 48720, "pitch": 70, "duration": 121, "velocity": 90}, {"time": 48963, "pitch": 69, "duration": 149, "velocity": 95}, {"time": 49122, "pitch": 67, "duration": 100, "velocity": 90}, {"time": 49361, "pitch": 65, "duration": 140, "velocity": 100}, {"time": 50883, "pitch": 72, "duration": 120, "velocity": 100}, {"time": 51122, "pitch": 70, "duration": 120, "velocity": 90}, {"time": 51361, "pitch": 69, "duration": 150, "velocity": 95}, {"time": 51521, "pitch": 67, "duration": 100, "velocity": 90}, {"time": 51760, "pitch": 69, "duration": 140, "velocity": 100}, {"time": 52238, "pitch": 62, "duration": 70, "velocity": 90}, {"time": 52318, "pitch": 72, "duration": 219, "velocity": 100}, {"time": 52557, "pitch": 70, "duration": 100, "velocity": 90}, {"time": 52797, "pitch": 72, "duration": 141, "velocity": 95}, {"time": 52958, "pitch": 74, "duration": 223, "velocity": 90}, {"time": 53201, "pitch": 74, "duration": 220, "velocity": 100}, {"time": 53521, "pitch": 70, "duration": 120, "velocity": 90}, {"time": 53760, "pitch": 75, "duration": 229, "velocity": 95}, {"time": 53999, "pitch": 74, "duration": 100, "velocity": 90}, {"time": 54717, "pitch": 74, "duration": 121, "velocity": 100}, {"time": 54960, "pitch": 74, "duration": 121, "velocity": 95}, {"time": 55202, "pitch": 70, "duration": 150, "velocity": 100}, {"time": 55362, "pitch": 67, "duration": 99, "velocity": 90}, {"time": 55601, "pitch": 70, "duration": 139, "velocity": 95}, {"time": 55920, "pitch": 72, "duration": 219, "velocity": 90}, {"time": 56159, "pitch": 67, "duration": 339, "velocity": 100}, {"time": 56508, "pitch": 65, "duration": 704, "velocity": 95}, {"time": 58558, "pitch": 74, "duration": 121, "velocity": 100}, {"time": 58800, "pitch": 74, "duration": 122, "velocity": 95}, {"time": 59043, "pitch": 70, "duration": 150, "velocity": 100}, {"time": 59203, "pitch": 67, "duration": 99, "velocity": 95}, {"time": 59761, "pitch": 67, "duration": 219, "velocity": 90}, {"time": 60000, "pitch": 74, "duration": 239, "velocity": 100}, {"time": 60239, "pitch": 75, "duration": 229, "velocity": 95}, {"time": 60478, "pitch": 74, "duration": 100, "velocity": 90}, {"time": 60717, "pitch": 77, "duration": 705, "velocity": 100}, {"time": 61442, "pitch": 75, "duration": 458, "velocity": 95}, {"time": 62399, "pitch": 74, "duration": 119, "velocity": 100}, {"time": 62638, "pitch": 74, "duration": 120, "velocity": 95}, {"time": 62877, "pitch": 70, "duration": 152, "velocity": 100}, {"time": 63039, "pitch": 67, "duration": 141, "velocity": 90}, {"time": 63281, "pitch": 70, "duration": 311, "velocity": 95}, {"time": 63602, "pitch": 72, "duration": 99, "velocity": 90}, {"time": 63841, "pitch": 67, "duration": 219, "velocity": 100}, {"time": 64080, "pitch": 67, "duration": 139, "velocity": 90}, {"time": 64239, "pitch": 65, "duration": 519, "velocity": 95}, {"time": 65442, "pitch": 65, "duration": 70, "velocity": 90}, {"time": 65522, "pitch": 67, "duration": 149, "velocity": 95}, {"time": 65681, "pitch": 70, "duration": 70, "velocity": 90}, {"time": 65761, "pitch": 72, "duration": 140, "velocity": 100}, {"time": 65921, "pitch": 70, "duration": 69, "velocity": 95}, {"time": 66000, "pitch": 72, "duration": 160, "velocity": 90}, {"time": 66160, "pitch": 70, "duration": 199, "velocity": 95}, {"time": 66961, "pitch": 67, "duration": 232, "velocity": 95}, {"time": 67203, "pitch": 70, "duration": 229, "velocity": 100}, {"time": 67442, "pitch": 72, "duration": 230, "velocity": 90}, {"time": 67682, "pitch": 74, "duration": 229, "velocity": 100}, {"time": 67921, "pitch": 75, "duration": 229, "velocity": 95}, {"time": 68160, "pitch": 74, "duration": 229, "velocity": 90}, {"time": 68399, "pitch": 77, "duration": 950, "velocity": 100}, {"time": 69761, "pitch": 76, "duration": 70, "velocity": 90}, {"time": 69841, "pitch": 77, "duration": 150, "velocity": 95}, {"time": 70001, "pitch": 76, "duration": 79, "velocity": 90}, {"time": 70080, "pitch": 77, "duration": 140, "velocity": 100}, {"time": 70479, "pitch": 76, "duration": 80, "velocity": 90}, {"time": 70559, "pitch": 77, "duration": 149, "velocity": 100}, {"time": 70718, "pitch": 76, "duration": 80, "velocity": 90}, {"time": 70798, "pitch": 77, "duration": 140, "velocity": 95}, {"time": 71199, "pitch": 76, "duration": 81, "velocity": 90}, {"time": 71280, "pitch": 77, "duration": 151, "velocity": 95}, {"time": 71442, "pitch": 76, "duration": 70, "velocity": 90}, {"time": 71522, "pitch": 79, "duration": 140, "velocity": 100}, {"time": 71762, "pitch": 74, "duration": 119, "velocity": 90}, {"time": 72001, "pitch": 72, "duration": 149, "velocity": 95}, {"time": 72240, "pitch": 74, "duration": 150, "velocity": 90}, {"time": 72399, "pitch": 72, "duration": 220, "velocity": 100}, {"time": 72639, "pitch": 70, "duration": 430, "velocity": 95}, {"time": 73200, "pitch": 67, "duration": 122, "velocity": 90}, {"time": 73443, "pitch": 79, "duration": 319, "velocity": 100}, {"time": 73921, "pitch": 81, "duration": 319, "velocity": 95}, {"time": 74400, "pitch": 79, "duration": 239, "velocity": 100}, {"time": 74639, "pitch": 77, "duration": 219, "velocity": 95}, {"time": 75121, "pitch": 74, "duration": 222, "velocity": 90}, {"time": 75363, "pitch": 74, "duration": 220, "velocity": 100}, {"time": 75602, "pitch": 72, "duration": 230, "velocity": 90}, {"time": 75842, "pitch": 79, "duration": 229, "velocity": 95}, {"time": 76081, "pitch": 77, "duration": 967, "velocity": 100}, {"time": 77439, "pitch": 76, "duration": 70, "velocity": 90}, {"time": 77519, "pitch": 77, "duration": 152, "velocity": 95}, {"time": 77681, "pitch": 76, "duration": 71, "velocity": 90}, {"time": 77762, "pitch": 77, "duration": 140, "velocity": 100}, {"time": 78161, "pitch": 76, "duration": 80, "velocity": 95}, {"time": 78241, "pitch": 77, "duration": 139, "velocity": 100}, {"time": 78400, "pitch": 76, "duration": 90, "velocity": 90}, {"time": 78480, "pitch": 77, "duration": 139, "velocity": 95}, {"time": 78639, "pitch": 77, "duration": 70, "velocity": 90}, {"time": 78719, "pitch": 77, "duration": 139, "velocity": 95}, {"time": 78878, "pitch": 77, "duration": 70, "velocity": 90}, {"time": 78958, "pitch": 77, "duration": 140, "velocity": 95}, {"time": 79118, "pitch": 77, "duration": 69, "velocity": 90}, {"time": 79197, "pitch": 79, "duration": 142, "velocity": 100}, {"time": 79440, "pitch": 74, "duration": 121, "velocity": 90}, {"time": 79683, "pitch": 72, "duration": 119, "velocity": 95}, {"time": 79922, "pitch": 74, "duration": 139, "velocity": 90}, {"time": 80081, "pitch": 72, "duration": 219, "velocity": 100}, {"time": 80320, "pitch": 70, "duration": 339, "velocity": 95}, {"time": 80879, "pitch": 67, "duration": 119, "velocity": 95}, {"time": 81118, "pitch": 79, "duration": 283, "velocity": 100}, {"time": 81603, "pitch": 81, "duration": 279, "velocity": 95}, {"time": 82081, "pitch": 79, "duration": 220, "velocity": 100}, {"time": 82321, "pitch": 77, "duration": 239, "velocity": 90}, {"time": 82560, "pitch": 74, "duration": 219, "velocity": 95}, {"time": 82799, "pitch": 79, "duration": 462, "velocity": 100}, {"time": 83281, "pitch": 77, "duration": 262, "velocity": 95}, {"time": 83763, "pitch": 74, "duration": 99, "velocity": 90}, {"time": 84002, "pitch": 82, "duration": 388, "velocity": 100}, {"time": 84400, "pitch": 81, "duration": 309, "velocity": 95}, {"time": 84719, "pitch": 81, "duration": 2140, "velocity": 100}, {"time": 93119, "pitch": 72, "duration": 119, "velocity": 100}, {"time": 93358, "pitch": 70, "duration": 119, "velocity": 95}, {"time": 93597, "pitch": 69, "duration": 162, "velocity": 100}, {"time": 93759, "pitch": 67, "duration": 101, "velocity": 90}, {"time": 94001, "pitch": 69, "duration": 141, "velocity": 95}, {"time": 94481, "pitch": 62, "duration": 70, "velocity": 90}, {"time": 94561, "pitch": 72, "duration": 119, "velocity": 100}, {"time": 94800, "pitch": 70, "duration": 119, "velocity": 95}, {"time": 95039, "pitch": 69, "duration": 150, "velocity": 100}, {"time": 95199, "pitch": 67, "duration": 99, "velocity": 95}, {"time": 95438, "pitch": 65, "duration": 140, "velocity": 100}, {"time": 96960, "pitch": 72, "duration": 119, "velocity": 100}, {"time": 97199, "pitch": 70, "duration": 119, "velocity": 95}, {"time": 97438, "pitch": 69, "duration": 152, "velocity": 100}, {"time": 97600, "pitch": 67, "duration": 101, "velocity": 95}, {"time": 97842, "pitch": 69, "duration": 141, "velocity": 100}, {"time": 98402, "pitch": 72, "duration": 119, "velocity": 100}, {"time": 98641, "pitch": 70, "duration": 119, "velocity": 95}, {"time": 98880, "pitch": 72, "duration": 159, "velocity": 100}, {"time": 99039, "pitch": 74, "duration": 90, "velocity": 95}, {"time": 99279, "pitch": 74, "duration": 139, "velocity": 100}, {"time": 100800, "pitch": 72, "duration": 120, "velocity": 100}, {"time": 101040, "pitch": 70, "duration": 119, "velocity": 95}, {"time": 101279, "pitch": 69, "duration": 149, "velocity": 100}, {"time": 101438, "pitch": 67, "duration": 100, "velocity": 95}, {"time": 101677, "pitch": 69, "duration": 141, "velocity": 100}, {"time": 102242, "pitch": 72, "duration": 120, "velocity": 100}, {"time": 102482, "pitch": 70, "duration": 119, "velocity": 95}, {"time": 102721, "pitch": 69, "duration": 149, "velocity": 100}, {"time": 102880, "pitch": 67, "duration": 100, "velocity": 95}, {"time": 103119, "pitch": 65, "duration": 140, "velocity": 100}, {"time": 104641, "pitch": 72, "duration": 120, "velocity": 100}, {"time": 104880, "pitch": 70, "duration": 120, "velocity": 95}, {"time": 105120, "pitch": 69, "duration": 149, "velocity": 100}, {"time": 105279, "pitch": 67, "duration": 100, "velocity": 95}, {"time": 105518, "pitch": 69, "duration": 141, "velocity": 100}, {"time": 106083, "pitch": 72, "duration": 120, "velocity": 100}, {"time": 106322, "pitch": 70, "duration": 120, "velocity": 90}, {"time": 106562, "pitch": 72, "duration": 139, "velocity": 100}, {"time": 106801, "pitch": 74, "duration": 139, "velocity": 95}, {"time": 106960, "pitch": 74, "duration": 160, "velocity": 100}, {"time": 107279, "pitch": 70, "duration": 140, "velocity": 95}, {"time": 107518, "pitch": 75, "duration": 230, "velocity": 100}, {"time": 107758, "pitch": 74, "duration": 99, "velocity": 90}, {"time": 108482, "pitch": 74, "duration": 120, "velocity": 100}, {"time": 108721, "pitch": 74, "duration": 120, "velocity": 95}, {"time": 108960, "pitch": 70, "duration": 150, "velocity": 100}, {"time": 109120, "pitch": 67, "duration": 100, "velocity": 90}, {"time": 109359, "pitch": 70, "duration": 140, "velocity": 95}, {"time": 109678, "pitch": 72, "duration": 140, "velocity": 90}, {"time": 109917, "pitch": 67, "duration": 384, "velocity": 100}, {"time": 110322, "pitch": 65, "duration": 389, "velocity": 95}, {"time": 112323, "pitch": 74, "duration": 120, "velocity": 100}, {"time": 112562, "pitch": 74, "duration": 120, "velocity": 95}, {"time": 112801, "pitch": 70, "duration": 150, "velocity": 100}, {"time": 112961, "pitch": 67, "duration": 99, "velocity": 90}, {"time": 113200, "pitch": 70, "duration": 139, "velocity": 95}, {"time": 113519, "pitch": 69, "duration": 139, "velocity": 90}, {"time": 113758, "pitch": 74, "duration": 243, "velocity": 100}, {"time": 114001, "pitch": 75, "duration": 232, "velocity": 95}, {"time": 114243, "pitch": 74, "duration": 100, "velocity": 90}, {"time": 114483, "pitch": 77, "duration": 697, "velocity": 100}, {"time": 115200, "pitch": 75, "duration": 459, "velocity": 95}, {"time": 116157, "pitch": 74, "duration": 121, "velocity": 100}, {"time": 116400, "pitch": 74, "duration": 121, "velocity": 95}, {"time": 116642, "pitch": 70, "duration": 150, "velocity": 100}, {"time": 116802, "pitch": 67, "duration": 99, "velocity": 90}, {"time": 117041, "pitch": 70, "duration": 139, "velocity": 95}, {"time": 117360, "pitch": 72, "duration": 139, "velocity": 90}, {"time": 117599, "pitch": 67, "duration": 219, "velocity": 100}, {"time": 117838, "pitch": 67, "duration": 140, "velocity": 90}, {"time": 117998, "pitch": 65, "duration": 524, "velocity": 95}, {"time": 119200, "pitch": 65, "duration": 70, "velocity": 90}, {"time": 119280, "pitch": 67, "duration": 150, "velocity": 95}, {"time": 119440, "pitch": 70, "duration": 69, "velocity": 90}, {"time": 119519, "pitch": 72, "duration": 150, "velocity": 100}, {"time": 119679, "pitch": 70, "duration": 70, "velocity": 90}, {"time": 119759, "pitch": 72, "duration": 149, "velocity": 95}, {"time": 119918, "pitch": 70, "duration": 100, "velocity": 90}, {"time": 120722, "pitch": 67, "duration": 229, "velocity": 95}, {"time": 120961, "pitch": 70, "duration": 230, "velocity": 100}, {"time": 121201, "pitch": 72, "duration": 229, "velocity": 90}, {"time": 121440, "pitch": 74, "duration": 229, "velocity": 100}, {"time": 121679, "pitch": 75, "duration": 229, "velocity": 95}, {"time": 121918, "pitch": 74, "duration": 233, "velocity": 90}, {"time": 122161, "pitch": 77, "duration": 1179, "velocity": 100}, {"time": 123520, "pitch": 76, "duration": 69, "velocity": 90}, {"time": 123599, "pitch": 77, "duration": 150, "velocity": 95}, {"time": 123759, "pitch": 76, "duration": 80, "velocity": 90}, {"time": 123839, "pitch": 77, "duration": 139, "velocity": 100}, {"time": 124237, "pitch": 76, "duration": 80, "velocity": 90}, {"time": 124317, "pitch": 77, "duration": 152, "velocity": 95}, {"time": 124479, "pitch": 76, "duration": 81, "velocity": 90}, {"time": 124560, "pitch": 77, "duration": 141, "velocity": 95}, {"time": 124962, "pitch": 77, "duration": 69, "velocity": 90}, {"time": 125041, "pitch": 77, "duration": 150, "velocity": 95}, {"time": 125201, "pitch": 77, "duration": 80, "velocity": 90}, {"time": 125281, "pitch": 79, "duration": 139, "velocity": 100}, {"time": 125520, "pitch": 74, "duration": 119, "velocity": 90}, {"time": 125759, "pitch": 72, "duration": 140, "velocity": 95}, {"time": 125998, "pitch": 74, "duration": 150, "velocity": 90}, {"time": 126158, "pitch": 72, "duration": 221, "velocity": 100}, {"time": 126399, "pitch": 70, "duration": 463, "velocity": 95}, {"time": 126962, "pitch": 67, "duration": 100, "velocity": 90}, {"time": 127201, "pitch": 79, "duration": 339, "velocity": 100}, {"time": 127679, "pitch": 81, "duration": 339, "velocity": 95}, {"time": 128158, "pitch": 79, "duration": 242, "velocity": 100}, {"time": 128400, "pitch": 77, "duration": 223, "velocity": 95}, {"time": 128882, "pitch": 74, "duration": 100, "velocity": 90}, {"time": 129121, "pitch": 74, "duration": 220, "velocity": 100}, {"time": 129361, "pitch": 72, "duration": 229, "velocity": 90}, {"time": 129600, "pitch": 79, "duration": 229, "velocity": 95}, {"time": 129839, "pitch": 77, "duration": 1102, "velocity": 100}, {"time": 131201, "pitch": 76, "duration": 60, "velocity": 90}, {"time": 131281, "pitch": 77, "duration": 150, "velocity": 95}, {"time": 131441, "pitch": 76, "duration": 69, "velocity": 90}, {"time": 131520, "pitch": 77, "duration": 140, "velocity": 100}, {"time": 131919, "pitch": 76, "duration": 80, "velocity": 90}, {"time": 131999, "pitch": 77, "duration": 139, "velocity": 100}, {"time": 132158, "pitch": 76, "duration": 80, "velocity": 90}, {"time": 132238, "pitch": 77, "duration": 139, "velocity": 95}, {"time": 132397, "pitch": 77, "duration": 70, "velocity": 90}, {"time": 132477, "pitch": 77, "duration": 142, "velocity": 100}, {"time": 132639, "pitch": 77, "duration": 71, "velocity": 90}, {"time": 132720, "pitch": 77, "duration": 141, "velocity": 95}, {"time": 132881, "pitch": 77, "duration": 71, "velocity": 90}, {"time": 132962, "pitch": 79, "duration": 140, "velocity": 100}, {"time": 133202, "pitch": 74, "duration": 119, "velocity": 90}, {"time": 133441, "pitch": 72, "duration": 139, "velocity": 95}, {"time": 133680, "pitch": 74, "duration": 149, "velocity": 90}, {"time": 133839, "pitch": 72, "duration": 220, "velocity": 100}, {"time": 134079, "pitch": 70, "duration": 339, "velocity": 95}, {"time": 134640, "pitch": 67, "duration": 101, "velocity": 90}, {"time": 134883, "pitch": 79, "duration": 279, "velocity": 100}, {"time": 135361, "pitch": 81, "duration": 279, "velocity": 95}, {"time": 135840, "pitch": 79, "duration": 219, "velocity": 100}, {"time": 136079, "pitch": 77, "duration": 239, "velocity": 90}, {"time": 136318, "pitch": 74, "duration": 101, "velocity": 95}, {"time": 136561, "pitch": 79, "duration": 461, "velocity": 100}, {"time": 137042, "pitch": 77, "duration": 279, "velocity": 95}, {"time": 137521, "pitch": 74, "duration": 119, "velocity": 90}, {"time": 137760, "pitch": 82, "duration": 389, "velocity": 100}, {"time": 138159, "pitch": 81, "duration": 309, "velocity": 95}, {"time": 138478, "pitch": 81, "duration": 2139, "velocity": 100}, {"time": 146558, "pitch": 76, "duration": 70, "velocity": 90}, {"time": 146638, "pitch": 77, "duration": 149, "velocity": 95}, {"time": 146797, "pitch": 76, "duration": 80, "velocity": 90}, {"time": 146877, "pitch": 77, "duration": 141, "velocity": 100}, {"time": 147281, "pitch": 76, "duration": 81, "velocity": 90}, {"time": 147362, "pitch": 77, "duration": 150, "velocity": 95}, {"time": 147522, "pitch": 76, "duration": 79, "velocity": 90}, {"time": 147601, "pitch": 77, "duration": 140, "velocity": 95}, {"time": 148000, "pitch": 77, "duration": 70, "velocity": 90}, {"time": 148080, "pitch": 77, "duration": 149, "velocity": 95}, {"time": 148239, "pitch": 77, "duration": 80, "velocity": 90}, {"time": 148319, "pitch": 79, "duration": 139, "velocity": 100}, {"time": 148558, "pitch": 74, "duration": 120, "velocity": 90}, {"time": 148797, "pitch": 72, "duration": 122, "velocity": 95}, {"time": 149040, "pitch": 74, "duration": 141, "velocity": 90}, {"time": 149202, "pitch": 72, "duration": 220, "velocity": 100}, {"time": 149442, "pitch": 70, "duration": 458, "velocity": 95}, {"time": 154240, "pitch": 76, "duration": 59, "velocity": 90}, {"time": 154319, "pitch": 77, "duration": 150, "velocity": 95}, {"time": 154479, "pitch": 76, "duration": 70, "velocity": 90}, {"time": 154559, "pitch": 77, "duration": 139, "velocity": 100}, {"time": 154957, "pitch": 76, "duration": 80, "velocity": 90}, {"time": 155037, "pitch": 77, "duration": 141, "velocity": 100}, {"time": 155199, "pitch": 76, "duration": 91, "velocity": 90}, {"time": 155280, "pitch": 77, "duration": 141, "velocity": 95}, {"time": 155441, "pitch": 77, "duration": 71, "velocity": 90}, {"time": 155522, "pitch": 77, "duration": 140, "velocity": 95}, {"time": 155682, "pitch": 77, "duration": 69, "velocity": 90}, {"time": 155761, "pitch": 77, "duration": 140, "velocity": 95}, {"time": 155921, "pitch": 77, "duration": 70, "velocity": 90}, {"time": 156001, "pitch": 79, "duration": 139, "velocity": 100}, {"time": 156240, "pitch": 74, "duration": 119, "velocity": 90}, {"time": 156479, "pitch": 72, "duration": 139, "velocity": 95}, {"time": 156718, "pitch": 74, "duration": 140, "velocity": 90}, {"time": 156878, "pitch": 72, "duration": 221, "velocity": 100}, {"time": 157119, "pitch": 70, "duration": 463, "velocity": 95}, {"time": 107997, "pitch": 74, "duration": 953, "velocity": 100}, {"time": 108960, "pitch": 82, "duration": 947, "velocity": 100}, {"time": 109917, "pitch": 81, "duration": 954, "velocity": 100}, {"time": 110881, "pitch": 73, "duration": 947, "velocity": 95}, {"time": 111838, "pitch": 72, "duration": 953, "velocity": 100}, {"time": 112801, "pitch": 81, "duration": 947, "velocity": 100}, {"time": 113758, "pitch": 80, "duration": 954, "velocity": 100}, {"time": 114722, "pitch": 71, "duration": 947, "velocity": 95}, {"time": 115679, "pitch": 70, "duration": 953, "velocity": 100}, {"time": 116642, "pitch": 79, "duration": 947, "velocity": 95}, {"time": 117599, "pitch": 78, "duration": 953, "velocity": 100}, {"time": 118563, "pitch": 69, "duration": 946, "velocity": 90}, {"time": 119519, "pitch": 70, "duration": 1193, "velocity": 85}, {"time": 120722, "pitch": 72, "duration": 469, "velocity": 80}, {"time": 121201, "pitch": 73, "duration": 229, "velocity": 85}, {"time": 121440, "pitch": 74, "duration": 711, "velocity": 90}, {"time": 122161, "pitch": 86, "duration": 711, "velocity": 110}, {"time": 57282, "pitch": 77, "duration": 50, "velocity": 90}, {"time": 57322, "pitch": 84, "duration": 70, "velocity": 100}, {"time": 57342, "pitch": 85, "duration": 110, "velocity": 105}, {"time": 57362, "pitch": 86, "duration": 169, "velocity": 110}, {"time": 57521, "pitch": 89, "duration": 668, "velocity": 110}, {"time": 57581, "pitch": 85, "duration": 120, "velocity": 102}, {"time": 57601, "pitch": 84, "duration": 160, "velocity": 110}, {"time": 57761, "pitch": 82, "duration": 259, "velocity": 110}, {"time": 58000, "pitch": 84, "duration": 219, "velocity": 110}, {"time": 58239, "pitch": 82, "duration": 60, "velocity": 100}, {"time": 61220, "pitch": 84, "duration": 50, "velocity": 100}, {"time": 61220, "pitch": 85, "duration": 80, "velocity": 105}, {"time": 61230, "pitch": 86, "duration": 332, "velocity": 110}, {"time": 61591, "pitch": 89, "duration": 260, "velocity": 110}, {"time": 61900, "pitch": 90, "duration": 20, "velocity": 90}, {"time": 61910, "pitch": 91, "duration": 10, "velocity": 104}, {"time": 61920, "pitch": 91, "duration": 259, "velocity": 110}, {"time": 62169, "pitch": 89, "duration": 30, "velocity": 110}, {"time": 62179, "pitch": 87, "duration": 30, "velocity": 110}, {"time": 62189, "pitch": 86, "duration": 30, "velocity": 108}, {"time": 62199, "pitch": 84, "duration": 30, "velocity": 105}, {"time": 62219, "pitch": 82, "duration": 30, "velocity": 99}, {"time": 62229, "pitch": 81, "duration": 20, "velocity": 101}, {"time": 62239, "pitch": 79, "duration": 20, "velocity": 94}, {"time": 62259, "pitch": 77, "duration": 10, "velocity": 90}, {"time": 64538, "pitch": 85, "duration": 50, "velocity": 95}, {"time": 64558, "pitch": 84, "duration": 361, "velocity": 110}, {"time": 64959, "pitch": 82, "duration": 81, "velocity": 100}, {"time": 65040, "pitch": 84, "duration": 422, "velocity": 110}, {"time": 65040, "pitch": 89, "duration": 422, "velocity": 110}, {"time": 65442, "pitch": 82, "duration": 30, "velocity": 100}, {"time": 66479, "pitch": 82, "duration": 20, "velocity": 90}, {"time": 66479, "pitch": 84, "duration": 30, "velocity": 100}, {"time": 66479, "pitch": 85, "duration": 40, "velocity": 105}, {"time": 66479, "pitch": 86, "duration": 10, "velocity": 110}, {"time": 66479, "pitch": 87, "duration": 40, "velocity": 110}, {"time": 66479, "pitch": 89, "duration": 50, "velocity": 110}, {"time": 66880, "pitch": 84, "duration": 20, "velocity": 80}, {"time": 66880, "pitch": 85, "duration": 40, "velocity": 100}, {"time": 66880, "pitch": 86, "duration": 10, "velocity": 100}, {"time": 66880, "pitch": 87, "duration": 10, "velocity": 104}, {"time": 66880, "pitch": 89, "duration": 30, "velocity": 110}, {"time": 68638, "pitch": 82, "duration": 469, "velocity": 100}, {"time": 68638, "pitch": 89, "duration": 469, "velocity": 110}, {"time": 69117, "pitch": 84, "duration": 475, "velocity": 100}, {"time": 69117, "pitch": 90, "duration": 475, "velocity": 110}, {"time": 69841, "pitch": 74, "duration": 20, "velocity": 90}, {"time": 69841, "pitch": 77, "duration": 30, "velocity": 100}, {"time": 69841, "pitch": 82, "duration": 30, "velocity": 110}, {"time": 70320, "pitch": 74, "duration": 30, "velocity": 90}, {"time": 70320, "pitch": 77, "duration": 30, "velocity": 100}, {"time": 70320, "pitch": 82, "duration": 30, "velocity": 110}, {"time": 70798, "pitch": 74, "duration": 30, "velocity": 90}, {"time": 70798, "pitch": 77, "duration": 30, "velocity": 100}, {"time": 70798, "pitch": 82, "duration": 30, "velocity": 110}, {"time": 71199, "pitch": 55, "duration": 10, "velocity": 70}, {"time": 71199, "pitch": 62, "duration": 10, "velocity": 80}, {"time": 71199, "pitch": 67, "duration": 10, "velocity": 90}, {"time": 71280, "pitch": 74, "duration": 141, "velocity": 90}, {"time": 71280, "pitch": 77, "duration": 131, "velocity": 100}, {"time": 71280, "pitch": 82, "duration": 131, "velocity": 110}, {"time": 71442, "pitch": 74, "duration": 40, "velocity": 70}, {"time": 71442, "pitch": 77, "duration": 40, "velocity": 80}, {"time": 71442, "pitch": 82, "duration": 40, "velocity": 90}, {"time": 71762, "pitch": 74, "duration": 20, "velocity": 90}, {"time": 71762, "pitch": 79, "duration": 30, "velocity": 100}, {"time": 71762, "pitch": 82, "duration": 30, "velocity": 110}, {"time": 72240, "pitch": 74, "duration": 30, "velocity": 90}, {"time": 72240, "pitch": 79, "duration": 30, "velocity": 100}, {"time": 72240, "pitch": 82, "duration": 30, "velocity": 110}, {"time": 72718, "pitch": 74, "duration": 30, "velocity": 90}, {"time": 72718, "pitch": 79, "duration": 30, "velocity": 100}, {"time": 72718, "pitch": 82, "duration": 30, "velocity": 110}, {"time": 73119, "pitch": 55, "duration": 10, "velocity": 70}, {"time": 73119, "pitch": 62, "duration": 10, "velocity": 80}, {"time": 73119, "pitch": 67, "duration": 10, "velocity": 90}, {"time": 73200, "pitch": 74, "duration": 142, "velocity": 90}, {"time": 73200, "pitch": 79, "duration": 132, "velocity": 100}, {"time": 73200, "pitch": 82, "duration": 132, "velocity": 110}, {"time": 73362, "pitch": 74, "duration": 40, "velocity": 70}, {"time": 73362, "pitch": 79, "duration": 40, "velocity": 80}, {"time": 73362, "pitch": 82, "duration": 40, "velocity": 90}, {"time": 73682, "pitch": 74, "duration": 20, "velocity": 90}, {"time": 73682, "pitch": 79, "duration": 30, "velocity": 100}, {"time": 73682, "pitch": 82, "duration": 30, "velocity": 110}, {"time": 74160, "pitch": 74, "duration": 30, "velocity": 90}, {"time": 74160, "pitch": 79, "duration": 30, "velocity": 100}, {"time": 74160, "pitch": 82, "duration": 30, "velocity": 110}, {"time": 74639, "pitch": 74, "duration": 30, "velocity": 90}, {"time": 74639, "pitch": 79, "duration": 30, "velocity": 100}, {"time": 74639, "pitch": 82, "duration": 30, "velocity": 110}, {"time": 75040, "pitch": 55, "duration": 10, "velocity": 70}, {"time": 75040, "pitch": 63, "duration": 10, "velocity": 80}, {"time": 75040, "pitch": 67, "duration": 10, "velocity": 90}, {"time": 75121, "pitch": 74, "duration": 141, "velocity": 90}, {"time": 75121, "pitch": 79, "duration": 131, "velocity": 100}, {"time": 75121, "pitch": 82, "duration": 131, "velocity": 110}, {"time": 75282, "pitch": 74, "duration": 41, "velocity": 70}, {"time": 75282, "pitch": 79, "duration": 41, "velocity": 80}, {"time": 75282, "pitch": 82, "duration": 41, "velocity": 90}, {"time": 75602, "pitch": 72, "duration": 20, "velocity": 90}, {"time": 75602, "pitch": 77, "duration": 30, "velocity": 100}, {"time": 75602, "pitch": 81, "duration": 30, "velocity": 110}, {"time": 76081, "pitch": 72, "duration": 30, "velocity": 90}, {"time": 76081, "pitch": 77, "duration": 30, "velocity": 100}, {"time": 76081, "pitch": 81, "duration": 30, "velocity": 110}, {"time": 76539, "pitch": 84, "duration": 50, "velocity": 90}, {"time": 76549, "pitch": 85, "duration": 60, "velocity": 100}, {"time": 76559, "pitch": 86, "duration": 150, "velocity": 110}, {"time": 76719, "pitch": 89, "duration": 548, "velocity": 100}, {"time": 76789, "pitch": 85, "duration": 99, "velocity": 110}, {"time": 76798, "pitch": 84, "duration": 150, "velocity": 104}, {"time": 76958, "pitch": 82, "duration": 70, "velocity": 110}, {"time": 77038, "pitch": 84, "duration": 149, "velocity": 105}, {"time": 77197, "pitch": 82, "duration": 50, "velocity": 100}, {"time": 77519, "pitch": 74, "duration": 21, "velocity": 90}, {"time": 77519, "pitch": 77, "duration": 31, "velocity": 100}, {"time": 77519, "pitch": 82, "duration": 31, "velocity": 110}, {"time": 78001, "pitch": 74, "duration": 30, "velocity": 90}, {"time": 78001, "pitch": 77, "duration": 30, "velocity": 100}, {"time": 78001, "pitch": 82, "duration": 30, "velocity": 110}, {"time": 78480, "pitch": 74, "duration": 30, "velocity": 90}, {"time": 78480, "pitch": 77, "duration": 30, "velocity": 100}, {"time": 78480, "pitch": 82, "duration": 30, "velocity": 110}, {"time": 78878, "pitch": 55, "duration": 10, "velocity": 70}, {"time": 78878, "pitch": 62, "duration": 10, "velocity": 80}, {"time": 78878, "pitch": 67, "duration": 10, "velocity": 90}, {"time": 78958, "pitch": 74, "duration": 140, "velocity": 90}, {"time": 78958, "pitch": 77, "duration": 130, "velocity": 100}, {"time": 78958, "pitch": 82, "duration": 130, "velocity": 110}, {"time": 79118, "pitch": 74, "duration": 39, "velocity": 70}, {"time": 79118, "pitch": 77, "duration": 39, "velocity": 80}, {"time": 79118, "pitch": 82, "duration": 39, "velocity": 90}, {"time": 79440, "pitch": 74, "duration": 20, "velocity": 90}, {"time": 79440, "pitch": 79, "duration": 30, "velocity": 100}, {"time": 79440, "pitch": 82, "duration": 30, "velocity": 110}, {"time": 79922, "pitch": 74, "duration": 30, "velocity": 90}, {"time": 79922, "pitch": 79, "duration": 30, "velocity": 100}, {"time": 79922, "pitch": 82, "duration": 30, "velocity": 110}, {"time": 80400, "pitch": 74, "duration": 30, "velocity": 90}, {"time": 80400, "pitch": 79, "duration": 30, "velocity": 100}, {"time": 80400, "pitch": 82, "duration": 30, "velocity": 110}, {"time": 80799, "pitch": 55, "duration": 10, "velocity": 70}, {"time": 80799, "pitch": 62, "duration": 10, "velocity": 80}, {"time": 80799, "pitch": 67, "duration": 10, "velocity": 90}, {"time": 80879, "pitch": 74, "duration": 139, "velocity": 90}, {"time": 80879, "pitch": 79, "duration": 129, "velocity": 100}, {"time": 80879, "pitch": 82, "duration": 129, "velocity": 110}, {"time": 81038, "pitch": 74, "duration": 40, "velocity": 70}, {"time": 81038, "pitch": 79, "duration": 40, "velocity": 80}, {"time": 81038, "pitch": 82, "duration": 40, "velocity": 90}, {"time": 81360, "pitch": 74, "duration": 21, "velocity": 90}, {"time": 81360, "pitch": 79, "duration": 31, "velocity": 100}, {"time": 81360, "pitch": 82, "duration": 31, "velocity": 110}, {"time": 81842, "pitch": 74, "duration": 30, "velocity": 90}, {"time": 81842, "pitch": 79, "duration": 30, "velocity": 100}, {"time": 81842, "pitch": 82, "duration": 30, "velocity": 110}, {"time": 82321, "pitch": 74, "duration": 29, "velocity": 90}, {"time": 82321, "pitch": 79, "duration": 29, "velocity": 100}, {"time": 82321, "pitch": 82, "duration": 29, "velocity": 110}, {"time": 82719, "pitch": 55, "duration": 10, "velocity": 70}, {"time": 82719, "pitch": 63, "duration": 10, "velocity": 80}, {"time": 82719, "pitch": 67, "duration": 10, "velocity": 90}, {"time": 82799, "pitch": 74, "duration": 139, "velocity": 90}, {"time": 82799, "pitch": 79, "duration": 130, "velocity": 100}, {"time": 82799, "pitch": 82, "duration": 130, "velocity": 110}, {"time": 82958, "pitch": 74, "duration": 40, "velocity": 70}, {"time": 82958, "pitch": 79, "duration": 40, "velocity": 80}, {"time": 82958, "pitch": 82, "duration": 40, "velocity": 90}, {"time": 83281, "pitch": 72, "duration": 20, "velocity": 90}, {"time": 83281, "pitch": 77, "duration": 30, "velocity": 100}, {"time": 83281, "pitch": 81, "duration": 30, "velocity": 110}, {"time": 83763, "pitch": 72, "duration": 29, "velocity": 90}, {"time": 83763, "pitch": 77, "duration": 29, "velocity": 100}, {"time": 83763, "pitch": 81, "duration": 29, "velocity": 110}, {"time": 84002, "pitch": 79, "duration": 149, "velocity": 110}, {"time": 84161, "pitch": 84, "duration": 70, "velocity": 100}, {"time": 84241, "pitch": 89, "duration": 130, "velocity": 110}, {"time": 84390, "pitch": 85, "duration": 80, "velocity": 100}, {"time": 84400, "pitch": 84, "duration": 230, "velocity": 110}, {"time": 84400, "pitch": 89, "duration": 289, "velocity": 110}, {"time": 84640, "pitch": 82, "duration": 69, "velocity": 100}, {"time": 84719, "pitch": 84, "duration": 150, "velocity": 110}, {"time": 84719, "pitch": 89, "duration": 230, "velocity": 110}, {"time": 84879, "pitch": 82, "duration": 70, "velocity": 100}, {"time": 85198, "pitch": 74, "duration": 20, "velocity": 90}, {"time": 85198, "pitch": 77, "duration": 30, "velocity": 100}, {"time": 85198, "pitch": 82, "duration": 30, "velocity": 110}, {"time": 85680, "pitch": 74, "duration": 30, "velocity": 90}, {"time": 85680, "pitch": 77, "duration": 30, "velocity": 100}, {"time": 85680, "pitch": 82, "duration": 30, "velocity": 110}, {"time": 86161, "pitch": 74, "duration": 30, "velocity": 90}, {"time": 86161, "pitch": 77, "duration": 30, "velocity": 100}, {"time": 86161, "pitch": 82, "duration": 30, "velocity": 110}, {"time": 86560, "pitch": 55, "duration": 10, "velocity": 70}, {"time": 86560, "pitch": 62, "duration": 10, "velocity": 80}, {"time": 86560, "pitch": 67, "duration": 10, "velocity": 90}, {"time": 86640, "pitch": 74, "duration": 139, "velocity": 90}, {"time": 86640, "pitch": 77, "duration": 129, "velocity": 100}, {"time": 86640, "pitch": 82, "duration": 129, "velocity": 110}, {"time": 86799, "pitch": 74, "duration": 40, "velocity": 70}, {"time": 86799, "pitch": 77, "duration": 40, "velocity": 80}, {"time": 86799, "pitch": 82, "duration": 40, "velocity": 90}, {"time": 87118, "pitch": 74, "duration": 20, "velocity": 90}, {"time": 87118, "pitch": 79, "duration": 30, "velocity": 100}, {"time": 87118, "pitch": 82, "duration": 30, "velocity": 110}, {"time": 87600, "pitch": 74, "duration": 30, "velocity": 90}, {"time": 87600, "pitch": 79, "duration": 30, "velocity": 100}, {"time": 87600, "pitch": 82, "duration": 30, "velocity": 110}, {"time": 88082, "pitch": 74, "duration": 30, "velocity": 90}, {"time": 88082, "pitch": 79, "duration": 30, "velocity": 100}, {"time": 88082, "pitch": 82, "duration": 30, "velocity": 110}, {"time": 88480, "pitch": 55, "duration": 10, "velocity": 70}, {"time": 88480, "pitch": 62, "duration": 10, "velocity": 80}, {"time": 88480, "pitch": 67, "duration": 10, "velocity": 90}, {"time": 88560, "pitch": 76, "duration": 140, "velocity": 90}, {"time": 88560, "pitch": 79, "duration": 130, "velocity": 100}, {"time": 88560, "pitch": 84, "duration": 130, "velocity": 110}, {"time": 88720, "pitch": 76, "duration": 40, "velocity": 70}, {"time": 88720, "pitch": 79, "duration": 40, "velocity": 80}, {"time": 88720, "pitch": 84, "duration": 40, "velocity": 90}, {"time": 89039, "pitch": 74, "duration": 20, "velocity": 90}, {"time": 89039, "pitch": 79, "duration": 30, "velocity": 100}, {"time": 89039, "pitch": 82, "duration": 30, "velocity": 110}, {"time": 89520, "pitch": 74, "duration": 31, "velocity": 90}, {"time": 89520, "pitch": 79, "duration": 31, "velocity": 100}, {"time": 89520, "pitch": 82, "duration": 31, "velocity": 110}, {"time": 90002, "pitch": 74, "duration": 30, "velocity": 90}, {"time": 90002, "pitch": 79, "duration": 30, "velocity": 100}, {"time": 90002, "pitch": 82, "duration": 30, "velocity": 110}, {"time": 90401, "pitch": 55, "duration": 10, "velocity": 70}, {"time": 90401, "pitch": 63, "duration": 10, "velocity": 80}, {"time": 90401, "pitch": 67, "duration": 10, "velocity": 90}, {"time": 90481, "pitch": 74, "duration": 139, "velocity": 90}, {"time": 90481, "pitch": 79, "duration": 129, "velocity": 100}, {"time": 90481, "pitch": 82, "duration": 129, "velocity": 110}, {"time": 90640, "pitch": 74, "duration": 40, "velocity": 70}, {"time": 90640, "pitch": 79, "duration": 40, "velocity": 80}, {"time": 90640, "pitch": 82, "duration": 40, "velocity": 90}, {"time": 90959, "pitch": 72, "duration": 20, "velocity": 90}, {"time": 90959, "pitch": 77, "duration": 30, "velocity": 100}, {"time": 90959, "pitch": 81, "duration": 30, "velocity": 110}, {"time": 91437, "pitch": 72, "duration": 30, "velocity": 90}, {"time": 91437, "pitch": 77, "duration": 30, "velocity": 100}, {"time": 91437, "pitch": 81, "duration": 30, "velocity": 110}, {"time": 91677, "pitch": 72, "duration": 151, "velocity": 91}, {"time": 91677, "pitch": 77, "duration": 151, "velocity": 101}, {"time": 91677, "pitch": 81, "duration": 151, "velocity": 111}, {"time": 91838, "pitch": 74, "duration": 101, "velocity": 91}, {"time": 91838, "pitch": 79, "duration": 101, "velocity": 101}, {"time": 91838, "pitch": 82, "duration": 101, "velocity": 111}, {"time": 92081, "pitch": 77, "duration": 290, "velocity": 91}, {"time": 92081, "pitch": 81, "duration": 290, "velocity": 101}, {"time": 92081, "pitch": 84, "duration": 290, "velocity": 111}, {"time": 92371, "pitch": 82, "duration": 20, "velocity": 58}, {"time": 92381, "pitch": 79, "duration": 40, "velocity": 64}, {"time": 92401, "pitch": 75, "duration": 40, "velocity": 50}, {"time": 92421, "pitch": 74, "duration": 30, "velocity": 95}, {"time": 92431, "pitch": 72, "duration": 30, "velocity": 107}, {"time": 92441, "pitch": 70, "duration": 30, "velocity": 110}, {"time": 92461, "pitch": 69, "duration": 30, "velocity": 110}, {"time": 92471, "pitch": 67, "duration": 30, "velocity": 107}, {"time": 92481, "pitch": 65, "duration": 30, "velocity": 107}, {"time": 92491, "pitch": 63, "duration": 30, "velocity": 102}, {"time": 92501, "pitch": 62, "duration": 30, "velocity": 105}, {"time": 92521, "pitch": 60, "duration": 30, "velocity": 105}, {"time": 92541, "pitch": 58, "duration": 20, "velocity": 57}, {"time": 123599, "pitch": 74, "duration": 20, "velocity": 90}, {"time": 123599, "pitch": 77, "duration": 30, "velocity": 100}, {"time": 123599, "pitch": 82, "duration": 30, "velocity": 110}, {"time": 124078, "pitch": 74, "duration": 30, "velocity": 90}, {"time": 124078, "pitch": 77, "duration": 30, "velocity": 100}, {"time": 124078, "pitch": 82, "duration": 30, "velocity": 110}, {"time": 124560, "pitch": 74, "duration": 30, "velocity": 90}, {"time": 124560, "pitch": 77, "duration": 30, "velocity": 100}, {"time": 124560, "pitch": 82, "duration": 30, "velocity": 110}, {"time": 124962, "pitch": 55, "duration": 10, "velocity": 70}, {"time": 124962, "pitch": 62, "duration": 10, "velocity": 80}, {"time": 124962, "pitch": 67, "duration": 10, "velocity": 90}, {"time": 125041, "pitch": 74, "duration": 140, "velocity": 90}, {"time": 125041, "pitch": 77, "duration": 130, "velocity": 100}, {"time": 125041, "pitch": 82, "duration": 130, "velocity": 110}, {"time": 125201, "pitch": 74, "duration": 40, "velocity": 70}, {"time": 125201, "pitch": 77, "duration": 40, "velocity": 80}, {"time": 125201, "pitch": 82, "duration": 40, "velocity": 90}, {"time": 125520, "pitch": 74, "duration": 20, "velocity": 90}, {"time": 125520, "pitch": 79, "duration": 30, "velocity": 100}, {"time": 125520, "pitch": 82, "duration": 30, "velocity": 110}, {"time": 125998, "pitch": 74, "duration": 30, "velocity": 90}, {"time": 125998, "pitch": 79, "duration": 30, "velocity": 100}, {"time": 125998, "pitch": 82, "duration": 30, "velocity": 110}, {"time": 126480, "pitch": 74, "duration": 30, "velocity": 90}, {"time": 126480, "pitch": 79, "duration": 30, "velocity": 100}, {"time": 126480, "pitch": 82, "duration": 30, "velocity": 110}, {"time": 126882, "pitch": 55, "duration": 10, "velocity": 70}, {"time": 126882, "pitch": 62, "duration": 10, "velocity": 80}, {"time": 126882, "pitch": 67, "duration": 10, "velocity": 90}, {"time": 126962, "pitch": 74, "duration": 139, "velocity": 90}, {"time": 126962, "pitch": 79, "duration": 129, "velocity": 100}, {"time": 126962, "pitch": 82, "duration": 129, "velocity": 110}, {"time": 127121, "pitch": 74, "duration": 40, "velocity": 70}, {"time": 127121, "pitch": 79, "duration": 40, "velocity": 80}, {"time": 127121, "pitch": 82, "duration": 40, "velocity": 90}, {"time": 127440, "pitch": 74, "duration": 20, "velocity": 90}, {"time": 127440, "pitch": 79, "duration": 30, "velocity": 100}, {"time": 127440, "pitch": 82, "duration": 30, "velocity": 110}, {"time": 127919, "pitch": 74, "duration": 30, "velocity": 90}, {"time": 127919, "pitch": 79, "duration": 30, "velocity": 100}, {"time": 127919, "pitch": 82, "duration": 30, "velocity": 110}, {"time": 128400, "pitch": 74, "duration": 31, "velocity": 90}, {"time": 128400, "pitch": 79, "duration": 31, "velocity": 100}, {"time": 128400, "pitch": 82, "duration": 31, "velocity": 110}, {"time": 128803, "pitch": 55, "duration": 10, "velocity": 70}, {"time": 128803, "pitch": 63, "duration": 10, "velocity": 80}, {"time": 128803, "pitch": 67, "duration": 10, "velocity": 90}, {"time": 128882, "pitch": 74, "duration": 140, "velocity": 90}, {"time": 128882, "pitch": 79, "duration": 130, "velocity": 100}, {"time": 128882, "pitch": 82, "duration": 130, "velocity": 110}, {"time": 129042, "pitch": 74, "duration": 40, "velocity": 70}, {"time": 129042, "pitch": 79, "duration": 40, "velocity": 80}, {"time": 129042, "pitch": 82, "duration": 40, "velocity": 90}, {"time": 129361, "pitch": 72, "duration": 20, "velocity": 90}, {"time": 129361, "pitch": 77, "duration": 30, "velocity": 100}, {"time": 129361, "pitch": 81, "duration": 30, "velocity": 110}, {"time": 129839, "pitch": 72, "duration": 30, "velocity": 90}, {"time": 129839, "pitch": 77, "duration": 30, "velocity": 100}, {"time": 129839, "pitch": 81, "duration": 30, "velocity": 110}, {"time": 130298, "pitch": 84, "duration": 49, "velocity": 90}, {"time": 130307, "pitch": 85, "duration": 60, "velocity": 100}, {"time": 130317, "pitch": 86, "duration": 150, "velocity": 110}, {"time": 130477, "pitch": 89, "duration": 555, "velocity": 100}, {"time": 130547, "pitch": 85, "duration": 101, "velocity": 110}, {"time": 130557, "pitch": 84, "duration": 151, "velocity": 105}, {"time": 130718, "pitch": 82, "duration": 71, "velocity": 110}, {"time": 130799, "pitch": 84, "duration": 152, "velocity": 105}, {"time": 130961, "pitch": 82, "duration": 51, "velocity": 100}, {"time": 131281, "pitch": 74, "duration": 20, "velocity": 90}, {"time": 131281, "pitch": 77, "duration": 30, "velocity": 100}, {"time": 131281, "pitch": 82, "duration": 30, "velocity": 110}, {"time": 131759, "pitch": 74, "duration": 30, "velocity": 90}, {"time": 131759, "pitch": 77, "duration": 30, "velocity": 100}, {"time": 131759, "pitch": 82, "duration": 30, "velocity": 110}, {"time": 132238, "pitch": 74, "duration": 30, "velocity": 90}, {"time": 132238, "pitch": 77, "duration": 30, "velocity": 100}, {"time": 132238, "pitch": 82, "duration": 30, "velocity": 110}, {"time": 132639, "pitch": 55, "duration": 10, "velocity": 70}, {"time": 132639, "pitch": 62, "duration": 10, "velocity": 80}, {"time": 132639, "pitch": 67, "duration": 10, "velocity": 90}, {"time": 132720, "pitch": 74, "duration": 141, "velocity": 90}, {"time": 132720, "pitch": 77, "duration": 131, "velocity": 100}, {"time": 132720, "pitch": 82, "duration": 131, "velocity": 110}, {"time": 132881, "pitch": 74, "duration": 41, "velocity": 70}, {"time": 132881, "pitch": 77, "duration": 41, "velocity": 80}, {"time": 132881, "pitch": 82, "duration": 41, "velocity": 90}, {"time": 133202, "pitch": 74, "duration": 19, "velocity": 90}, {"time": 133202, "pitch": 79, "duration": 29, "velocity": 100}, {"time": 133202, "pitch": 82, "duration": 29, "velocity": 110}, {"time": 133680, "pitch": 74, "duration": 30, "velocity": 90}, {"time": 133680, "pitch": 79, "duration": 30, "velocity": 100}, {"time": 133680, "pitch": 82, "duration": 30, "velocity": 110}, {"time": 134158, "pitch": 74, "duration": 30, "velocity": 90}, {"time": 134158, "pitch": 79, "duration": 30, "velocity": 100}, {"time": 134158, "pitch": 82, "duration": 30, "velocity": 110}, {"time": 134559, "pitch": 55, "duration": 10, "velocity": 70}, {"time": 134559, "pitch": 62, "duration": 10, "velocity": 80}, {"time": 134559, "pitch": 67, "duration": 10, "velocity": 90}, {"time": 134640, "pitch": 74, "duration": 142, "velocity": 90}, {"time": 134640, "pitch": 79, "duration": 132, "velocity": 100}, {"time": 134640, "pitch": 82, "duration": 132, "velocity": 110}, {"time": 134802, "pitch": 74, "duration": 40, "velocity": 70}, {"time": 134802, "pitch": 79, "duration": 40, "velocity": 80}, {"time": 134802, "pitch": 82, "duration": 40, "velocity": 90}, {"time": 135122, "pitch": 74, "duration": 20, "velocity": 90}, {"time": 135122, "pitch": 79, "duration": 30, "velocity": 100}, {"time": 135122, "pitch": 82, "duration": 30, "velocity": 110}, {"time": 135600, "pitch": 74, "duration": 30, "velocity": 90}, {"time": 135600, "pitch": 79, "duration": 30, "velocity": 100}, {"time": 135600, "pitch": 82, "duration": 30, "velocity": 110}, {"time": 136079, "pitch": 74, "duration": 30, "velocity": 90}, {"time": 136079, "pitch": 79, "duration": 30, "velocity": 100}, {"time": 136079, "pitch": 82, "duration": 30, "velocity": 110}, {"time": 136480, "pitch": 55, "duration": 10, "velocity": 70}, {"time": 136480, "pitch": 63, "duration": 10, "velocity": 80}, {"time": 136480, "pitch": 67, "duration": 10, "velocity": 90}, {"time": 136561, "pitch": 74, "duration": 141, "velocity": 90}, {"time": 136561, "pitch": 79, "duration": 131, "velocity": 100}, {"time": 136561, "pitch": 82, "duration": 131, "velocity": 110}, {"time": 136722, "pitch": 74, "duration": 41, "velocity": 70}, {"time": 136722, "pitch": 79, "duration": 41, "velocity": 80}, {"time": 136722, "pitch": 82, "duration": 41, "velocity": 90}, {"time": 137042, "pitch": 72, "duration": 20, "velocity": 90}, {"time": 137042, "pitch": 77, "duration": 30, "velocity": 100}, {"time": 137042, "pitch": 81, "duration": 30, "velocity": 110}, {"time": 137521, "pitch": 72, "duration": 30, "velocity": 90}, {"time": 137521, "pitch": 77, "duration": 30, "velocity": 100}, {"time": 137521, "pitch": 81, "duration": 30, "velocity": 110}, {"time": 137760, "pitch": 79, "duration": 149, "velocity": 110}, {"time": 137919, "pitch": 84, "duration": 70, "velocity": 100}, {"time": 137999, "pitch": 89, "duration": 130, "velocity": 106}, {"time": 138149, "pitch": 85, "duration": 79, "velocity": 90}, {"time": 138159, "pitch": 84, "duration": 229, "velocity": 110}, {"time": 138159, "pitch": 89, "duration": 289, "velocity": 110}, {"time": 138398, "pitch": 82, "duration": 70, "velocity": 100}, {"time": 138478, "pitch": 84, "duration": 149, "velocity": 110}, {"time": 138478, "pitch": 89, "duration": 229, "velocity": 100}, {"time": 138637, "pitch": 82, "duration": 70, "velocity": 105}, {"time": 146638, "pitch": 74, "duration": 20, "velocity": 90}, {"time": 146638, "pitch": 77, "duration": 30, "velocity": 100}, {"time": 146638, "pitch": 82, "duration": 30, "velocity": 110}, {"time": 147119, "pitch": 74, "duration": 31, "velocity": 90}, {"time": 147119, "pitch": 77, "duration": 31, "velocity": 100}, {"time": 147119, "pitch": 82, "duration": 31, "velocity": 110}, {"time": 147601, "pitch": 74, "duration": 30, "velocity": 90}, {"time": 147601, "pitch": 77, "duration": 30, "velocity": 100}, {"time": 147601, "pitch": 82, "duration": 30, "velocity": 110}, {"time": 148000, "pitch": 55, "duration": 10, "velocity": 70}, {"time": 148000, "pitch": 62, "duration": 10, "velocity": 80}, {"time": 148000, "pitch": 67, "duration": 10, "velocity": 90}, {"time": 148080, "pitch": 74, "duration": 139, "velocity": 90}, {"time": 148080, "pitch": 77, "duration": 129, "velocity": 100}, {"time": 148080, "pitch": 82, "duration": 129, "velocity": 110}, {"time": 148239, "pitch": 74, "duration": 40, "velocity": 70}, {"time": 148239, "pitch": 77, "duration": 40, "velocity": 80}, {"time": 148239, "pitch": 82, "duration": 40, "velocity": 90}, {"time": 148558, "pitch": 74, "duration": 20, "velocity": 90}, {"time": 148558, "pitch": 79, "duration": 30, "velocity": 100}, {"time": 148558, "pitch": 82, "duration": 30, "velocity": 110}, {"time": 149040, "pitch": 74, "duration": 30, "velocity": 90}, {"time": 149040, "pitch": 79, "duration": 30, "velocity": 100}, {"time": 149040, "pitch": 82, "duration": 30, "velocity": 110}, {"time": 149522, "pitch": 74, "duration": 30, "velocity": 90}, {"time": 149522, "pitch": 79, "duration": 30, "velocity": 100}, {"time": 149522, "pitch": 82, "duration": 30, "velocity": 110}, {"time": 149920, "pitch": 55, "duration": 10, "velocity": 70}, {"time": 149920, "pitch": 62, "duration": 10, "velocity": 80}, {"time": 149920, "pitch": 67, "duration": 10, "velocity": 90}, {"time": 150000, "pitch": 74, "duration": 140, "velocity": 90}, {"time": 150000, "pitch": 79, "duration": 130, "velocity": 100}, {"time": 150000, "pitch": 82, "duration": 130, "velocity": 110}, {"time": 150160, "pitch": 74, "duration": 39, "velocity": 70}, {"time": 150160, "pitch": 79, "duration": 39, "velocity": 80}, {"time": 150160, "pitch": 82, "duration": 39, "velocity": 90}, {"time": 150478, "pitch": 74, "duration": 20, "velocity": 90}, {"time": 150478, "pitch": 79, "duration": 30, "velocity": 100}, {"time": 150478, "pitch": 82, "duration": 30, "velocity": 110}, {"time": 150960, "pitch": 74, "duration": 31, "velocity": 90}, {"time": 150960, "pitch": 79, "duration": 31, "velocity": 100}, {"time": 150960, "pitch": 82, "duration": 31, "velocity": 110}, {"time": 151442, "pitch": 74, "duration": 30, "velocity": 90}, {"time": 151442, "pitch": 79, "duration": 30, "velocity": 100}, {"time": 151442, "pitch": 82, "duration": 30, "velocity": 110}, {"time": 151841, "pitch": 55, "duration": 10, "velocity": 70}, {"time": 151841, "pitch": 63, "duration": 10, "velocity": 80}, {"time": 151841, "pitch": 67, "duration": 10, "velocity": 90}, {"time": 151921, "pitch": 74, "duration": 139, "velocity": 90}, {"time": 151921, "pitch": 79, "duration": 129, "velocity": 100}, {"time": 151921, "pitch": 82, "duration": 129, "velocity": 110}, {"time": 152080, "pitch": 74, "duration": 40, "velocity": 70}, {"time": 152080, "pitch": 79, "duration": 40, "velocity": 80}, {"time": 152080, "pitch": 82, "duration": 40, "velocity": 90}, {"time": 152399, "pitch": 72, "duration": 20, "velocity": 90}, {"time": 152399, "pitch": 77, "duration": 30, "velocity": 100}, {"time": 152399, "pitch": 81, "duration": 30, "velocity": 110}, {"time": 152881, "pitch": 72, "duration": 30, "velocity": 90}, {"time": 152881, "pitch": 77, "duration": 30, "velocity": 100}, {"time": 152881, "pitch": 81, "duration": 30, "velocity": 110}, {"time": 153343, "pitch": 84, "duration": 49, "velocity": 100}, {"time": 153353, "pitch": 85, "duration": 59, "velocity": 105}, {"time": 153363, "pitch": 86, "duration": 149, "velocity": 110}, {"time": 153522, "pitch": 89, "duration": 548, "velocity": 100}, {"time": 153592, "pitch": 85, "duration": 99, "velocity": 110}, {"time": 153602, "pitch": 84, "duration": 149, "velocity": 105}, {"time": 153761, "pitch": 82, "duration": 70, "velocity": 110}, {"time": 153841, "pitch": 84, "duration": 149, "velocity": 105}, {"time": 154000, "pitch": 82, "duration": 50, "velocity": 100}, {"time": 154319, "pitch": 74, "duration": 20, "velocity": 90}, {"time": 154319, "pitch": 77, "duration": 30, "velocity": 100}, {"time": 154319, "pitch": 82, "duration": 30, "velocity": 110}, {"time": 154798, "pitch": 74, "duration": 30, "velocity": 90}, {"time": 154798, "pitch": 77, "duration": 30, "velocity": 100}, {"time": 154798, "pitch": 82, "duration": 30, "velocity": 110}, {"time": 155280, "pitch": 74, "duration": 30, "velocity": 90}, {"time": 155280, "pitch": 77, "duration": 30, "velocity": 100}, {"time": 155280, "pitch": 82, "duration": 30, "velocity": 110}, {"time": 155682, "pitch": 55, "duration": 10, "velocity": 70}, {"time": 155682, "pitch": 62, "duration": 10, "velocity": 80}, {"time": 155682, "pitch": 67, "duration": 10, "velocity": 90}, {"time": 155761, "pitch": 74, "duration": 140, "velocity": 90}, {"time": 155761, "pitch": 77, "duration": 130, "velocity": 100}, {"time": 155761, "pitch": 82, "duration": 130, "velocity": 110}, {"time": 155921, "pitch": 74, "duration": 40, "velocity": 70}, {"time": 155921, "pitch": 77, "duration": 40, "velocity": 80}, {"time": 155921, "pitch": 82, "duration": 40, "velocity": 90}, {"time": 156240, "pitch": 74, "duration": 20, "velocity": 90}, {"time": 156240, "pitch": 79, "duration": 30, "velocity": 100}, {"time": 156240, "pitch": 82, "duration": 30, "velocity": 110}, {"time": 156718, "pitch": 74, "duration": 30, "velocity": 90}, {"time": 156718, "pitch": 79, "duration": 30, "velocity": 100}, {"time": 156718, "pitch": 82, "duration": 30, "velocity": 110}, {"time": 157200, "pitch": 74, "duration": 30, "velocity": 90}, {"time": 157200, "pitch": 79, "duration": 30, "velocity": 100}, {"time": 157200, "pitch": 82, "duration": 30, "velocity": 110}, {"time": 157602, "pitch": 55, "duration": 10, "velocity": 70}, {"time": 157602, "pitch": 62, "duration": 10, "velocity": 80}, {"time": 157602, "pitch": 67, "duration": 10, "velocity": 90}, {"time": 157682, "pitch": 74, "duration": 139, "velocity": 90}, {"time": 157682, "pitch": 79, "duration": 129, "velocity": 100}, {"time": 157682, "pitch": 82, "duration": 129, "velocity": 110}, {"time": 157841, "pitch": 74, "duration": 40, "velocity": 70}, {"time": 157841, "pitch": 79, "duration": 40, "velocity": 80}, {"time": 157841, "pitch": 82, "duration": 40, "velocity": 90}, {"time": 158160, "pitch": 74, "duration": 20, "velocity": 90}, {"time": 158160, "pitch": 79, "duration": 30, "velocity": 100}, {"time": 158160, "pitch": 82, "duration": 30, "velocity": 110}, {"time": 158639, "pitch": 74, "duration": 29, "velocity": 90}, {"time": 158639, "pitch": 79, "duration": 29, "velocity": 100}, {"time": 158639, "pitch": 82, "duration": 29, "velocity": 110}, {"time": 159120, "pitch": 74, "duration": 31, "velocity": 90}, {"time": 159120, "pitch": 79, "duration": 31, "velocity": 100}, {"time": 159120, "pitch": 82, "duration": 31, "velocity": 110}, {"time": 159522, "pitch": 55, "duration": 10, "velocity": 70}, {"time": 159522, "pitch": 63, "duration": 10, "velocity": 80}, {"time": 159522, "pitch": 67, "duration": 10, "velocity": 90}, {"time": 159602, "pitch": 74, "duration": 140, "velocity": 90}, {"time": 159602, "pitch": 79, "duration": 130, "velocity": 100}, {"time": 159602, "pitch": 82, "duration": 130, "velocity": 110}, {"time": 159762, "pitch": 74, "duration": 40, "velocity": 70}, {"time": 159762, "pitch": 79, "duration": 40, "velocity": 80}, {"time": 159762, "pitch": 82, "duration": 40, "velocity": 90}, {"time": 160081, "pitch": 72, "duration": 20, "velocity": 90}, {"time": 160081, "pitch": 77, "duration": 30, "velocity": 100}, {"time": 160081, "pitch": 81, "duration": 30, "velocity": 110}, {"time": 160559, "pitch": 72, "duration": 30, "velocity": 90}, {"time": 160559, "pitch": 77, "duration": 30, "velocity": 100}, {"time": 160559, "pitch": 81, "duration": 30, "velocity": 110}, {"time": 160798, "pitch": 79, "duration": 150, "velocity": 110}, {"time": 160958, "pitch": 84, "duration": 69, "velocity": 100}, {"time": 161037, "pitch": 89, "duration": 130, "velocity": 110}, {"time": 161187, "pitch": 85, "duration": 80, "velocity": 100}, {"time": 161197, "pitch": 84, "duration": 231, "velocity": 110}, {"time": 161197, "pitch": 89, "duration": 292, "velocity": 110}, {"time": 161438, "pitch": 82, "duration": 71, "velocity": 100}, {"time": 161519, "pitch": 73, "duration": 152, "velocity": 105}, {"time": 161519, "pitch": 77, "duration": 233, "velocity": 110}, {"time": 161681, "pitch": 70, "duration": 71, "velocity": 100}, {"time": 123360, "pitch": 43, "duration": 1921, "velocity": 70}, {"time": 123360, "pitch": 53, "duration": 1921, "velocity": 75}, {"time": 123360, "pitch": 62, "duration": 1921, "velocity": 80}, {"time": 123360, "pitch": 70, "duration": 1921, "velocity": 85}, {"time": 125281, "pitch": 40, "duration": 1920, "velocity": 70}, {"time": 125281, "pitch": 50, "duration": 1920, "velocity": 75}, {"time": 125281, "pitch": 58, "duration": 1920, "velocity": 80}, {"time": 125281, "pitch": 67, "duration": 1920, "velocity": 85}, {"time": 127201, "pitch": 39, "duration": 1920, "velocity": 75}, {"time": 127201, "pitch": 55, "duration": 1920, "velocity": 80}, {"time": 127201, "pitch": 62, "duration": 1920, "velocity": 85}, {"time": 127201, "pitch": 70, "duration": 1920, "velocity": 90}, {"time": 129121, "pitch": 50, "duration": 957, "velocity": 90}, {"time": 129121, "pitch": 60, "duration": 957, "velocity": 95}, {"time": 129121, "pitch": 69, "duration": 957, "velocity": 100}, {"time": 129121, "pitch": 77, "duration": 957, "velocity": 105}, {"time": 130078, "pitch": 50, "duration": 964, "velocity": 75}, {"time": 130078, "pitch": 57, "duration": 964, "velocity": 80}, {"time": 130078, "pitch": 65, "duration": 964, "velocity": 85}, {"time": 130078, "pitch": 72, "duration": 964, "velocity": 90}, {"time": 131042, "pitch": 43, "duration": 1920, "velocity": 70}, {"time": 131042, "pitch": 53, "duration": 1920, "velocity": 75}, {"time": 131042, "pitch": 62, "duration": 1920, "velocity": 80}, {"time": 131042, "pitch": 70, "duration": 1920, "velocity": 85}, {"time": 132962, "pitch": 40, "duration": 1921, "velocity": 70}, {"time": 132962, "pitch": 50, "duration": 1921, "velocity": 75}, {"time": 132962, "pitch": 58, "duration": 1921, "velocity": 80}, {"time": 132962, "pitch": 67, "duration": 1921, "velocity": 85}, {"time": 134883, "pitch": 39, "duration": 1920, "velocity": 75}, {"time": 134883, "pitch": 55, "duration": 1920, "velocity": 80}, {"time": 134883, "pitch": 62, "duration": 1920, "velocity": 85}, {"time": 134883, "pitch": 70, "duration": 1920, "velocity": 90}, {"time": 136803, "pitch": 50, "duration": 957, "velocity": 90}, {"time": 136803, "pitch": 60, "duration": 957, "velocity": 95}, {"time": 136803, "pitch": 69, "duration": 957, "velocity": 100}, {"time": 136803, "pitch": 77, "duration": 957, "velocity": 105}, {"time": 137760, "pitch": 50, "duration": 957, "velocity": 80}, {"time": 137760, "pitch": 65, "duration": 957, "velocity": 85}, {"time": 137760, "pitch": 72, "duration": 957, "velocity": 90}, {"time": 137760, "pitch": 81, "duration": 957, "velocity": 95}, {"time": 146398, "pitch": 43, "duration": 1921, "velocity": 70}, {"time": 146398, "pitch": 53, "duration": 1921, "velocity": 75}, {"time": 146398, "pitch": 62, "duration": 1921, "velocity": 80}, {"time": 146398, "pitch": 70, "duration": 1921, "velocity": 85}, {"time": 148319, "pitch": 40, "duration": 1920, "velocity": 75}, {"time": 148319, "pitch": 50, "duration": 1920, "velocity": 80}, {"time": 148319, "pitch": 58, "duration": 1920, "velocity": 85}, {"time": 148319, "pitch": 67, "duration": 1920, "velocity": 90}, {"time": 150239, "pitch": 39, "duration": 1921, "velocity": 85}, {"time": 150239, "pitch": 55, "duration": 1921, "velocity": 90}, {"time": 150239, "pitch": 62, "duration": 1921, "velocity": 95}, {"time": 150239, "pitch": 70, "duration": 1921, "velocity": 100}, {"time": 152160, "pitch": 50, "duration": 963, "velocity": 90}, {"time": 152160, "pitch": 60, "duration": 963, "velocity": 95}, {"time": 152160, "pitch": 69, "duration": 963, "velocity": 100}, {"time": 152160, "pitch": 77, "duration": 963, "velocity": 105}, {"time": 153123, "pitch": 50, "duration": 957, "velocity": 75}, {"time": 153123, "pitch": 57, "duration": 957, "velocity": 80}, {"time": 153123, "pitch": 65, "duration": 957, "velocity": 85}, {"time": 153123, "pitch": 72, "duration": 957, "velocity": 90}, {"time": 154080, "pitch": 43, "duration": 1921, "velocity": 70}, {"time": 154080, "pitch": 53, "duration": 1921, "velocity": 75}, {"time": 154080, "pitch": 62, "duration": 1921, "velocity": 80}, {"time": 154080, "pitch": 70, "duration": 1921, "velocity": 85}, {"time": 156001, "pitch": 40, "duration": 1920, "velocity": 75}, {"time": 156001, "pitch": 50, "duration": 1920, "velocity": 80}, {"time": 156001, "pitch": 58, "duration": 1920, "velocity": 85}, {"time": 156001, "pitch": 67, "duration": 1920, "velocity": 90}, {"time": 157921, "pitch": 39, "duration": 1920, "velocity": 85}, {"time": 157921, "pitch": 55, "duration": 1920, "velocity": 90}, {"time": 157921, "pitch": 62, "duration": 1920, "velocity": 95}, {"time": 157921, "pitch": 70, "duration": 1920, "velocity": 100}, {"time": 159841, "pitch": 50, "duration": 957, "velocity": 90}, {"time": 159841, "pitch": 60, "duration": 957, "velocity": 95}, {"time": 159841, "pitch": 69, "duration": 957, "velocity": 100}, {"time": 159841, "pitch": 77, "duration": 957, "velocity": 105}, {"time": 160798, "pitch": 50, "duration": 964, "velocity": 75}, {"time": 160798, "pitch": 65, "duration": 964, "velocity": 80}, {"time": 160798, "pitch": 72, "duration": 964, "velocity": 85}, {"time": 160798, "pitch": 81, "duration": 964, "velocity": 90}, {"time": 31440, "pitch": 74, "duration": 179, "velocity": 91}, {"time": 31609, "pitch": 77, "duration": 70, "velocity": 64}, {"time": 31679, "pitch": 81, "duration": 60, "velocity": 82}, {"time": 31938, "pitch": 81, "duration": 50, "velocity": 80}, {"time": 32167, "pitch": 81, "duration": 61, "velocity": 80}, {"time": 32410, "pitch": 81, "duration": 50, "velocity": 85}, {"time": 32662, "pitch": 81, "duration": 240, "velocity": 76}, {"time": 32892, "pitch": 79, "duration": 139, "velocity": 78}, {"time": 33051, "pitch": 74, "duration": 60, "velocity": 80}, {"time": 33360, "pitch": 74, "duration": 189, "velocity": 82}, {"time": 33529, "pitch": 77, "duration": 70, "velocity": 70}, {"time": 33589, "pitch": 81, "duration": 70, "velocity": 78}, {"time": 33838, "pitch": 81, "duration": 40, "velocity": 85}, {"time": 34078, "pitch": 81, "duration": 50, "velocity": 87}, {"time": 34320, "pitch": 81, "duration": 51, "velocity": 87}, {"time": 34563, "pitch": 81, "duration": 249, "velocity": 82}, {"time": 34812, "pitch": 82, "duration": 179, "velocity": 60}, {"time": 34971, "pitch": 84, "duration": 60, "velocity": 93}, {"time": 35280, "pitch": 74, "duration": 190, "velocity": 76}, {"time": 35450, "pitch": 77, "duration": 70, "velocity": 60}, {"time": 35530, "pitch": 81, "duration": 59, "velocity": 76}, {"time": 35769, "pitch": 81, "duration": 50, "velocity": 87}, {"time": 35998, "pitch": 81, "duration": 61, "velocity": 85}, {"time": 36251, "pitch": 81, "duration": 40, "velocity": 56}, {"time": 36493, "pitch": 81, "duration": 219, "velocity": 95}, {"time": 36712, "pitch": 79, "duration": 150, "velocity": 66}, {"time": 36882, "pitch": 74, "duration": 70, "velocity": 80}, {"time": 37191, "pitch": 74, "duration": 159, "velocity": 76}, {"time": 37360, "pitch": 77, "duration": 70, "velocity": 68}, {"time": 37420, "pitch": 81, "duration": 60, "velocity": 72}, {"time": 37659, "pitch": 81, "duration": 50, "velocity": 85}, {"time": 37908, "pitch": 81, "duration": 150, "velocity": 82}, {"time": 38068, "pitch": 82, "duration": 60, "velocity": 80}, {"time": 38307, "pitch": 84, "duration": 70, "velocity": 91}, {"time": 85198, "pitch": 74, "duration": 179, "velocity": 91}, {"time": 85367, "pitch": 77, "duration": 70, "velocity": 64}, {"time": 85437, "pitch": 81, "duration": 61, "velocity": 82}, {"time": 85700, "pitch": 81, "duration": 50, "velocity": 80}, {"time": 85932, "pitch": 81, "duration": 60, "velocity": 80}, {"time": 86171, "pitch": 81, "duration": 50, "velocity": 85}, {"time": 86421, "pitch": 81, "duration": 239, "velocity": 76}, {"time": 86650, "pitch": 79, "duration": 139, "velocity": 78}, {"time": 86809, "pitch": 74, "duration": 60, "velocity": 80}, {"time": 87118, "pitch": 74, "duration": 190, "velocity": 82}, {"time": 87288, "pitch": 77, "duration": 69, "velocity": 70}, {"time": 87347, "pitch": 81, "duration": 71, "velocity": 78}, {"time": 87600, "pitch": 81, "duration": 40, "velocity": 85}, {"time": 87843, "pitch": 81, "duration": 49, "velocity": 87}, {"time": 88082, "pitch": 81, "duration": 50, "velocity": 87}, {"time": 88321, "pitch": 81, "duration": 249, "velocity": 82}, {"time": 88570, "pitch": 82, "duration": 180, "velocity": 60}, {"time": 88730, "pitch": 84, "duration": 59, "velocity": 93}, {"time": 89039, "pitch": 74, "duration": 189, "velocity": 76}, {"time": 89208, "pitch": 77, "duration": 70, "velocity": 60}, {"time": 89288, "pitch": 81, "duration": 61, "velocity": 76}, {"time": 89531, "pitch": 81, "duration": 50, "velocity": 87}, {"time": 89763, "pitch": 81, "duration": 60, "velocity": 85}, {"time": 90012, "pitch": 81, "duration": 40, "velocity": 56}, {"time": 90251, "pitch": 81, "duration": 220, "velocity": 95}, {"time": 90471, "pitch": 79, "duration": 149, "velocity": 66}, {"time": 90640, "pitch": 74, "duration": 70, "velocity": 80}, {"time": 90949, "pitch": 74, "duration": 160, "velocity": 76}, {"time": 91118, "pitch": 77, "duration": 70, "velocity": 68}, {"time": 91178, "pitch": 81, "duration": 60, "velocity": 72}, {"time": 91417, "pitch": 81, "duration": 50, "velocity": 85}, {"time": 91667, "pitch": 81, "duration": 151, "velocity": 82}, {"time": 91828, "pitch": 82, "duration": 61, "velocity": 80}, {"time": 92071, "pitch": 84, "duration": 71, "velocity": 91}, {"time": 138959, "pitch": 74, "duration": 182, "velocity": 91}, {"time": 139131, "pitch": 77, "duration": 71, "velocity": 64}, {"time": 139202, "pitch": 81, "duration": 60, "velocity": 82}, {"time": 139461, "pitch": 81, "duration": 50, "velocity": 80}, {"time": 139690, "pitch": 81, "duration": 60, "velocity": 80}, {"time": 139930, "pitch": 81, "duration": 49, "velocity": 85}, {"time": 140179, "pitch": 81, "duration": 239, "velocity": 76}, {"time": 140408, "pitch": 79, "duration": 139, "velocity": 78}, {"time": 140567, "pitch": 74, "duration": 60, "velocity": 80}, {"time": 140880, "pitch": 74, "duration": 192, "velocity": 82}, {"time": 141052, "pitch": 77, "duration": 70, "velocity": 70}, {"time": 141112, "pitch": 81, "duration": 70, "velocity": 78}, {"time": 141362, "pitch": 81, "duration": 39, "velocity": 85}, {"time": 141601, "pitch": 81, "duration": 50, "velocity": 87}, {"time": 141840, "pitch": 81, "duration": 50, "velocity": 87}, {"time": 142079, "pitch": 81, "duration": 249, "velocity": 82}, {"time": 142328, "pitch": 82, "duration": 180, "velocity": 60}, {"time": 142488, "pitch": 84, "duration": 60, "velocity": 93}, {"time": 142800, "pitch": 74, "duration": 192, "velocity": 76}, {"time": 142972, "pitch": 77, "duration": 71, "velocity": 60}, {"time": 143053, "pitch": 81, "duration": 60, "velocity": 76}, {"time": 143292, "pitch": 81, "duration": 50, "velocity": 87}, {"time": 143521, "pitch": 81, "duration": 60, "velocity": 85}, {"time": 143770, "pitch": 81, "duration": 40, "velocity": 56}, {"time": 144010, "pitch": 81, "duration": 219, "velocity": 95}, {"time": 144229, "pitch": 79, "duration": 149, "velocity": 66}, {"time": 144398, "pitch": 74, "duration": 70, "velocity": 80}, {"time": 144711, "pitch": 74, "duration": 161, "velocity": 76}, {"time": 144882, "pitch": 77, "duration": 71, "velocity": 68}, {"time": 144943, "pitch": 81, "duration": 60, "velocity": 72}, {"time": 145183, "pitch": 81, "duration": 49, "velocity": 85}, {"time": 145432, "pitch": 81, "duration": 149, "velocity": 82}, {"time": 145591, "pitch": 82, "duration": 60, "velocity": 80}, {"time": 145830, "pitch": 84, "duration": 70, "velocity": 91}, {"time": 31450, "pitch": 62, "duration": 169, "velocity": 56}, {"time": 31619, "pitch": 65, "duration": 60, "velocity": 60}, {"time": 31669, "pitch": 69, "duration": 50, "velocity": 68}, {"time": 31918, "pitch": 69, "duration": 40, "velocity": 82}, {"time": 32167, "pitch": 69, "duration": 41, "velocity": 85}, {"time": 32410, "pitch": 69, "duration": 30, "velocity": 85}, {"time": 32652, "pitch": 69, "duration": 230, "velocity": 85}, {"time": 32892, "pitch": 67, "duration": 139, "velocity": 53}, {"time": 33041, "pitch": 62, "duration": 50, "velocity": 68}, {"time": 33370, "pitch": 62, "duration": 149, "velocity": 82}, {"time": 33509, "pitch": 65, "duration": 70, "velocity": 72}, {"time": 33579, "pitch": 69, "duration": 60, "velocity": 72}, {"time": 33828, "pitch": 69, "duration": 40, "velocity": 85}, {"time": 34078, "pitch": 69, "duration": 40, "velocity": 91}, {"time": 34330, "pitch": 69, "duration": 41, "velocity": 82}, {"time": 34563, "pitch": 69, "duration": 249, "velocity": 85}, {"time": 34822, "pitch": 70, "duration": 139, "velocity": 64}, {"time": 34971, "pitch": 72, "duration": 50, "velocity": 80}, {"time": 35270, "pitch": 62, "duration": 150, "velocity": 47}, {"time": 35430, "pitch": 65, "duration": 70, "velocity": 72}, {"time": 35500, "pitch": 69, "duration": 59, "velocity": 74}, {"time": 35749, "pitch": 69, "duration": 40, "velocity": 89}, {"time": 35998, "pitch": 69, "duration": 30, "velocity": 89}, {"time": 36241, "pitch": 69, "duration": 20, "velocity": 87}, {"time": 36473, "pitch": 69, "duration": 249, "velocity": 98}, {"time": 36722, "pitch": 67, "duration": 140, "velocity": 68}, {"time": 36882, "pitch": 62, "duration": 50, "velocity": 72}, {"time": 37191, "pitch": 62, "duration": 149, "velocity": 87}, {"time": 37340, "pitch": 65, "duration": 70, "velocity": 68}, {"time": 37420, "pitch": 69, "duration": 60, "velocity": 64}, {"time": 37669, "pitch": 69, "duration": 40, "velocity": 89}, {"time": 37918, "pitch": 69, "duration": 130, "velocity": 91}, {"time": 38068, "pitch": 70, "duration": 50, "velocity": 85}, {"time": 38307, "pitch": 72, "duration": 40, "velocity": 91}, {"time": 85208, "pitch": 62, "duration": 169, "velocity": 56}, {"time": 85377, "pitch": 65, "duration": 60, "velocity": 60}, {"time": 85427, "pitch": 69, "duration": 50, "velocity": 68}, {"time": 85680, "pitch": 69, "duration": 40, "velocity": 82}, {"time": 85932, "pitch": 69, "duration": 40, "velocity": 85}, {"time": 86171, "pitch": 69, "duration": 30, "velocity": 85}, {"time": 86411, "pitch": 69, "duration": 229, "velocity": 85}, {"time": 86650, "pitch": 67, "duration": 139, "velocity": 53}, {"time": 86799, "pitch": 62, "duration": 50, "velocity": 68}, {"time": 87128, "pitch": 62, "duration": 150, "velocity": 82}, {"time": 87268, "pitch": 65, "duration": 69, "velocity": 72}, {"time": 87337, "pitch": 69, "duration": 61, "velocity": 72}, {"time": 87590, "pitch": 69, "duration": 40, "velocity": 85}, {"time": 87843, "pitch": 69, "duration": 39, "velocity": 91}, {"time": 88092, "pitch": 69, "duration": 40, "velocity": 82}, {"time": 88321, "pitch": 69, "duration": 249, "velocity": 85}, {"time": 88580, "pitch": 70, "duration": 140, "velocity": 64}, {"time": 88730, "pitch": 72, "duration": 49, "velocity": 80}, {"time": 89029, "pitch": 62, "duration": 149, "velocity": 47}, {"time": 89188, "pitch": 65, "duration": 70, "velocity": 72}, {"time": 89258, "pitch": 69, "duration": 60, "velocity": 74}, {"time": 89510, "pitch": 69, "duration": 41, "velocity": 89}, {"time": 89763, "pitch": 69, "duration": 30, "velocity": 89}, {"time": 90002, "pitch": 69, "duration": 20, "velocity": 87}, {"time": 90231, "pitch": 69, "duration": 250, "velocity": 98}, {"time": 90481, "pitch": 67, "duration": 139, "velocity": 68}, {"time": 90640, "pitch": 62, "duration": 50, "velocity": 72}, {"time": 90949, "pitch": 62, "duration": 150, "velocity": 87}, {"time": 91099, "pitch": 65, "duration": 69, "velocity": 68}, {"time": 91178, "pitch": 69, "duration": 60, "velocity": 64}, {"time": 91427, "pitch": 69, "duration": 40, "velocity": 89}, {"time": 91677, "pitch": 69, "duration": 131, "velocity": 91}, {"time": 91828, "pitch": 70, "duration": 51, "velocity": 85}, {"time": 92071, "pitch": 72, "duration": 40, "velocity": 91}, {"time": 138969, "pitch": 62, "duration": 172, "velocity": 56}, {"time": 139141, "pitch": 65, "duration": 61, "velocity": 60}, {"time": 139192, "pitch": 69, "duration": 50, "velocity": 68}, {"time": 139441, "pitch": 69, "duration": 40, "velocity": 82}, {"time": 139690, "pitch": 69, "duration": 40, "velocity": 85}, {"time": 139930, "pitch": 69, "duration": 29, "velocity": 85}, {"time": 140169, "pitch": 69, "duration": 229, "velocity": 85}, {"time": 140408, "pitch": 67, "duration": 139, "velocity": 53}, {"time": 140557, "pitch": 62, "duration": 50, "velocity": 68}, {"time": 140890, "pitch": 62, "duration": 152, "velocity": 82}, {"time": 141031, "pitch": 65, "duration": 71, "velocity": 72}, {"time": 141102, "pitch": 69, "duration": 60, "velocity": 72}, {"time": 141352, "pitch": 69, "duration": 40, "velocity": 85}, {"time": 141601, "pitch": 69, "duration": 40, "velocity": 91}, {"time": 141850, "pitch": 69, "duration": 40, "velocity": 82}, {"time": 142079, "pitch": 69, "duration": 249, "velocity": 85}, {"time": 142338, "pitch": 70, "duration": 140, "velocity": 64}, {"time": 142488, "pitch": 72, "duration": 50, "velocity": 80}, {"time": 142790, "pitch": 62, "duration": 152, "velocity": 47}, {"time": 142952, "pitch": 65, "duration": 71, "velocity": 72}, {"time": 143023, "pitch": 69, "duration": 60, "velocity": 74}, {"time": 143272, "pitch": 69, "duration": 40, "velocity": 89}, {"time": 143521, "pitch": 69, "duration": 30, "velocity": 89}, {"time": 143760, "pitch": 69, "duration": 20, "velocity": 87}, {"time": 143990, "pitch": 69, "duration": 249, "velocity": 98}, {"time": 144239, "pitch": 67, "duration": 139, "velocity": 68}, {"time": 144398, "pitch": 62, "duration": 50, "velocity": 72}, {"time": 144711, "pitch": 62, "duration": 151, "velocity": 87}, {"time": 144862, "pitch": 65, "duration": 71, "velocity": 68}, {"time": 144943, "pitch": 69, "duration": 60, "velocity": 64}, {"time": 145193, "pitch": 69, "duration": 39, "velocity": 89}, {"time": 145442, "pitch": 69, "duration": 129, "velocity": 91}, {"time": 145591, "pitch": 70, "duration": 50, "velocity": 85}, {"time": 145830, "pitch": 72, "duration": 40, "velocity": 91}, {"time": 7119, "pitch": 35, "duration": 10, "velocity": 115}, {"time": 7198, "pitch": 42, "duration": 10, "velocity": 60}, {"time": 7358, "pitch": 35, "duration": 10, "velocity": 75}, {"time": 7438, "pitch": 35, "duration": 10, "velocity": 115}, {"time": 7438, "pitch": 46, "duration": 20, "velocity": 110}, {"time": 7677, "pitch": 42, "duration": 10, "velocity": 60}, {"time": 7828, "pitch": 41, "duration": 21, "velocity": 55}, {"time": 7828, "pitch": 56, "duration": 11, "velocity": 65}, {"time": 7919, "pitch": 35, "duration": 21, "velocity": 75}, {"time": 7919, "pitch": 42, "duration": 31, "velocity": 100}, {"time": 7919, "pitch": 56, "duration": 11, "velocity": 105}, {"time": 8162, "pitch": 35, "duration": 10, "velocity": 115}, {"time": 8162, "pitch": 42, "duration": 30, "velocity": 60}, {"time": 8162, "pitch": 82, "duration": 20, "velocity": 80}, {"time": 8322, "pitch": 82, "duration": 10, "velocity": 45}, {"time": 8401, "pitch": 42, "duration": 20, "velocity": 80}, {"time": 8401, "pitch": 82, "duration": 10, "velocity": 65}, {"time": 8551, "pitch": 85, "duration": 10, "velocity": 110}, {"time": 8561, "pitch": 82, "duration": 10, "velocity": 45}, {"time": 8641, "pitch": 42, "duration": 19, "velocity": 60}, {"time": 8641, "pitch": 82, "duration": 9, "velocity": 80}, {"time": 8800, "pitch": 82, "duration": 10, "velocity": 45}, {"time": 8880, "pitch": 42, "duration": 30, "velocity": 100}, {"time": 8880, "pitch": 70, "duration": 10, "velocity": 105}, {"time": 8880, "pitch": 82, "duration": 20, "velocity": 65}, {"time": 9039, "pitch": 35, "duration": 10, "velocity": 95}, {"time": 9039, "pitch": 82, "duration": 20, "velocity": 45}, {"time": 9119, "pitch": 35, "duration": 10, "velocity": 115}, {"time": 9119, "pitch": 42, "duration": 30, "velocity": 60}, {"time": 9119, "pitch": 82, "duration": 20, "velocity": 80}, {"time": 9278, "pitch": 82, "duration": 10, "velocity": 45}, {"time": 9358, "pitch": 35, "duration": 10, "velocity": 95}, {"time": 9358, "pitch": 42, "duration": 30, "velocity": 80}, {"time": 9358, "pitch": 82, "duration": 20, "velocity": 65}, {"time": 9518, "pitch": 82, "duration": 10, "velocity": 45}, {"time": 9597, "pitch": 42, "duration": 20, "velocity": 60}, {"time": 9597, "pitch": 82, "duration": 10, "velocity": 80}, {"time": 9759, "pitch": 82, "duration": 10, "velocity": 45}, {"time": 9840, "pitch": 42, "duration": 20, "velocity": 100}, {"time": 9840, "pitch": 82, "duration": 10, "velocity": 65}, {"time": 10002, "pitch": 75, "duration": 10, "velocity": 105}, {"time": 10002, "pitch": 82, "duration": 20, "velocity": 45}, {"time": 10083, "pitch": 35, "duration": 10, "velocity": 115}, {"time": 10083, "pitch": 42, "duration": 29, "velocity": 60}, {"time": 10083, "pitch": 82, "duration": 19, "velocity": 80}, {"time": 10242, "pitch": 82, "duration": 10, "velocity": 45}, {"time": 10322, "pitch": 42, "duration": 20, "velocity": 80}, {"time": 10322, "pitch": 82, "duration": 10, "velocity": 65}, {"time": 10481, "pitch": 82, "duration": 10, "velocity": 45}, {"time": 10561, "pitch": 42, "duration": 20, "velocity": 60}, {"time": 10561, "pitch": 82, "duration": 10, "velocity": 80}, {"time": 10710, "pitch": 37, "duration": 10, "velocity": 95}, {"time": 10720, "pitch": 82, "duration": 10, "velocity": 45}, {"time": 10800, "pitch": 42, "duration": 30, "velocity": 100}, {"time": 10800, "pitch": 70, "duration": 10, "velocity": 105}, {"time": 10800, "pitch": 82, "duration": 20, "velocity": 65}, {"time": 10960, "pitch": 35, "duration": 10, "velocity": 115}, {"time": 10960, "pitch": 82, "duration": 20, "velocity": 45}, {"time": 11039, "pitch": 42, "duration": 20, "velocity": 60}, {"time": 11039, "pitch": 82, "duration": 10, "velocity": 80}, {"time": 11199, "pitch": 35, "duration": 10, "velocity": 75}, {"time": 11199, "pitch": 82, "duration": 20, "velocity": 45}, {"time": 11279, "pitch": 35, "duration": 9, "velocity": 115}, {"time": 11279, "pitch": 46, "duration": 29, "velocity": 110}, {"time": 11279, "pitch": 82, "duration": 19, "velocity": 65}, {"time": 11438, "pitch": 82, "duration": 10, "velocity": 45}, {"time": 11518, "pitch": 42, "duration": 20, "velocity": 60}, {"time": 11518, "pitch": 82, "duration": 10, "velocity": 80}, {"time": 11669, "pitch": 56, "duration": 10, "velocity": 65}, {"time": 11679, "pitch": 82, "duration": 11, "velocity": 45}, {"time": 11760, "pitch": 42, "duration": 31, "velocity": 100}, {"time": 11760, "pitch": 56, "duration": 10, "velocity": 105}, {"time": 11760, "pitch": 82, "duration": 21, "velocity": 65}, {"time": 11922, "pitch": 35, "duration": 10, "velocity": 75}, {"time": 11922, "pitch": 82, "duration": 20, "velocity": 45}, {"time": 12003, "pitch": 35, "duration": 10, "velocity": 115}, {"time": 12003, "pitch": 42, "duration": 30, "velocity": 60}, {"time": 12003, "pitch": 82, "duration": 20, "velocity": 80}, {"time": 12162, "pitch": 82, "duration": 10, "velocity": 45}, {"time": 12242, "pitch": 42, "duration": 20, "velocity": 80}, {"time": 12242, "pitch": 82, "duration": 10, "velocity": 65}, {"time": 12392, "pitch": 85, "duration": 10, "velocity": 110}, {"time": 12402, "pitch": 82, "duration": 10, "velocity": 45}, {"time": 12481, "pitch": 42, "duration": 20, "velocity": 60}, {"time": 12481, "pitch": 82, "duration": 10, "velocity": 80}, {"time": 12641, "pitch": 82, "duration": 10, "velocity": 45}, {"time": 12721, "pitch": 42, "duration": 29, "velocity": 100}, {"time": 12721, "pitch": 70, "duration": 10, "velocity": 105}, {"time": 12721, "pitch": 82, "duration": 19, "velocity": 65}, {"time": 12880, "pitch": 35, "duration": 10, "velocity": 115}, {"time": 12880, "pitch": 82, "duration": 20, "velocity": 45}, {"time": 12960, "pitch": 42, "duration": 20, "velocity": 60}, {"time": 12960, "pitch": 82, "duration": 10, "velocity": 80}, {"time": 13119, "pitch": 82, "duration": 10, "velocity": 45}, {"time": 13199, "pitch": 35, "duration": 10, "velocity": 95}, {"time": 13199, "pitch": 42, "duration": 30, "velocity": 80}, {"time": 13199, "pitch": 82, "duration": 20, "velocity": 65}, {"time": 13358, "pitch": 82, "duration": 10, "velocity": 45}, {"time": 13438, "pitch": 42, "duration": 20, "velocity": 60}, {"time": 13438, "pitch": 82, "duration": 10, "velocity": 80}, {"time": 13600, "pitch": 35, "duration": 10, "velocity": 75}, {"time": 13600, "pitch": 82, "duration": 20, "velocity": 45}, {"time": 13681, "pitch": 42, "duration": 20, "velocity": 100}, {"time": 13681, "pitch": 82, "duration": 10, "velocity": 65}, {"time": 13843, "pitch": 75, "duration": 10, "velocity": 105}, {"time": 13843, "pitch": 82, "duration": 20, "velocity": 45}, {"time": 13923, "pitch": 35, "duration": 10, "velocity": 115}, {"time": 13923, "pitch": 42, "duration": 30, "velocity": 60}, {"time": 13923, "pitch": 82, "duration": 20, "velocity": 80}, {"time": 14083, "pitch": 82, "duration": 10, "velocity": 45}, {"time": 14163, "pitch": 42, "duration": 20, "velocity": 80}, {"time": 14163, "pitch": 82, "duration": 10, "velocity": 65}, {"time": 14322, "pitch": 82, "duration": 10, "velocity": 45}, {"time": 14402, "pitch": 42, "duration": 20, "velocity": 60}, {"time": 14402, "pitch": 82, "duration": 10, "velocity": 80}, {"time": 14551, "pitch": 37, "duration": 10, "velocity": 95}, {"time": 14561, "pitch": 82, "duration": 10, "velocity": 45}, {"time": 14641, "pitch": 42, "duration": 30, "velocity": 100}, {"time": 14641, "pitch": 70, "duration": 10, "velocity": 105}, {"time": 14641, "pitch": 82, "duration": 20, "velocity": 65}, {"time": 14800, "pitch": 35, "duration": 10, "velocity": 115}, {"time": 14800, "pitch": 82, "duration": 20, "velocity": 45}, {"time": 14880, "pitch": 42, "duration": 20, "velocity": 60}, {"time": 14880, "pitch": 82, "duration": 10, "velocity": 80}, {"time": 15040, "pitch": 35, "duration": 10, "velocity": 75}, {"time": 15040, "pitch": 82, "duration": 20, "velocity": 45}, {"time": 15119, "pitch": 35, "duration": 10, "velocity": 115}, {"time": 15119, "pitch": 46, "duration": 30, "velocity": 110}, {"time": 15119, "pitch": 82, "duration": 20, "velocity": 65}, {"time": 15279, "pitch": 82, "duration": 10, "velocity": 45}, {"time": 15359, "pitch": 42, "duration": 20, "velocity": 60}, {"time": 15359, "pitch": 82, "duration": 10, "velocity": 80}, {"time": 15508, "pitch": 41, "duration": 10, "velocity": 55}, {"time": 15508, "pitch": 56, "duration": 10, "velocity": 65}, {"time": 15518, "pitch": 42, "duration": 20, "velocity": 80}, {"time": 15518, "pitch": 82, "duration": 10, "velocity": 45}, {"time": 15598, "pitch": 35, "duration": 20, "velocity": 75}, {"time": 15598, "pitch": 42, "duration": 40, "velocity": 100}, {"time": 15598, "pitch": 56, "duration": 10, "velocity": 105}, {"time": 15598, "pitch": 82, "duration": 30, "velocity": 65}, {"time": 15757, "pitch": 82, "duration": 10, "velocity": 45}, {"time": 15837, "pitch": 35, "duration": 10, "velocity": 115}, {"time": 15837, "pitch": 42, "duration": 30, "velocity": 60}, {"time": 15837, "pitch": 82, "duration": 20, "velocity": 80}, {"time": 15999, "pitch": 82, "duration": 10, "velocity": 45}, {"time": 16080, "pitch": 42, "duration": 20, "velocity": 80}, {"time": 16080, "pitch": 82, "duration": 10, "velocity": 65}, {"time": 16231, "pitch": 85, "duration": 10, "velocity": 110}, {"time": 16241, "pitch": 82, "duration": 10, "velocity": 45}, {"time": 16322, "pitch": 42, "duration": 20, "velocity": 60}, {"time": 16322, "pitch": 82, "duration": 10, "velocity": 80}, {"time": 16482, "pitch": 82, "duration": 10, "velocity": 45}, {"time": 16561, "pitch": 42, "duration": 30, "velocity": 100}, {"time": 16561, "pitch": 70, "duration": 10, "velocity": 105}, {"time": 16561, "pitch": 82, "duration": 20, "velocity": 65}, {"time": 16721, "pitch": 35, "duration": 10, "velocity": 95}, {"time": 16721, "pitch": 82, "duration": 20, "velocity": 45}, {"time": 16801, "pitch": 35, "duration": 10, "velocity": 115}, {"time": 16801, "pitch": 42, "duration": 30, "velocity": 60}, {"time": 16801, "pitch": 82, "duration": 20, "velocity": 80}, {"time": 16960, "pitch": 82, "duration": 10, "velocity": 45}, {"time": 17040, "pitch": 35, "duration": 10, "velocity": 95}, {"time": 17040, "pitch": 42, "duration": 30, "velocity": 80}, {"time": 17040, "pitch": 82, "duration": 20, "velocity": 65}, {"time": 17199, "pitch": 82, "duration": 10, "velocity": 45}, {"time": 17279, "pitch": 42, "duration": 20, "velocity": 60}, {"time": 17279, "pitch": 82, "duration": 10, "velocity": 80}, {"time": 17438, "pitch": 82, "duration": 10, "velocity": 45}, {"time": 17518, "pitch": 42, "duration": 20, "velocity": 100}, {"time": 17518, "pitch": 82, "duration": 10, "velocity": 65}, {"time": 17678, "pitch": 75, "duration": 10, "velocity": 105}, {"time": 17678, "pitch": 82, "duration": 20, "velocity": 45}, {"time": 17757, "pitch": 35, "duration": 10, "velocity": 115}, {"time": 17757, "pitch": 42, "duration": 31, "velocity": 60}, {"time": 17757, "pitch": 82, "duration": 21, "velocity": 80}, {"time": 17919, "pitch": 82, "duration": 10, "velocity": 45}, {"time": 18000, "pitch": 42, "duration": 20, "velocity": 80}, {"time": 18000, "pitch": 82, "duration": 10, "velocity": 65}, {"time": 18162, "pitch": 82, "duration": 10, "velocity": 45}, {"time": 18243, "pitch": 42, "duration": 20, "velocity": 60}, {"time": 18243, "pitch": 82, "duration": 10, "velocity": 80}, {"time": 18392, "pitch": 37, "duration": 10, "velocity": 95}, {"time": 18402, "pitch": 82, "duration": 10, "velocity": 45}, {"time": 18482, "pitch": 42, "duration": 30, "velocity": 100}, {"time": 18482, "pitch": 70, "duration": 10, "velocity": 105}, {"time": 18482, "pitch": 82, "duration": 20, "velocity": 65}, {"time": 18641, "pitch": 35, "duration": 10, "velocity": 115}, {"time": 18641, "pitch": 82, "duration": 20, "velocity": 45}, {"time": 18721, "pitch": 42, "duration": 20, "velocity": 60}, {"time": 18721, "pitch": 82, "duration": 10, "velocity": 80}, {"time": 18880, "pitch": 35, "duration": 10, "velocity": 75}, {"time": 18880, "pitch": 82, "duration": 20, "velocity": 45}, {"time": 18960, "pitch": 35, "duration": 10, "velocity": 115}, {"time": 18960, "pitch": 46, "duration": 30, "velocity": 110}, {"time": 18960, "pitch": 82, "duration": 20, "velocity": 65}, {"time": 19120, "pitch": 82, "duration": 10, "velocity": 45}, {"time": 19199, "pitch": 42, "duration": 20, "velocity": 60}, {"time": 19199, "pitch": 82, "duration": 10, "velocity": 80}, {"time": 19349, "pitch": 56, "duration": 10, "velocity": 65}, {"time": 19359, "pitch": 82, "duration": 10, "velocity": 45}, {"time": 19439, "pitch": 42, "duration": 30, "velocity": 100}, {"time": 19439, "pitch": 56, "duration": 10, "velocity": 105}, {"time": 19439, "pitch": 82, "duration": 20, "velocity": 65}, {"time": 19598, "pitch": 35, "duration": 10, "velocity": 75}, {"time": 19598, "pitch": 82, "duration": 20, "velocity": 45}, {"time": 19678, "pitch": 35, "duration": 10, "velocity": 115}, {"time": 19678, "pitch": 42, "duration": 30, "velocity": 60}, {"time": 19678, "pitch": 82, "duration": 20, "velocity": 80}, {"time": 19840, "pitch": 82, "duration": 10, "velocity": 45}, {"time": 19920, "pitch": 42, "duration": 21, "velocity": 80}, {"time": 19920, "pitch": 82, "duration": 11, "velocity": 65}, {"time": 20072, "pitch": 85, "duration": 10, "velocity": 110}, {"time": 20082, "pitch": 82, "duration": 10, "velocity": 45}, {"time": 20163, "pitch": 42, "duration": 20, "velocity": 60}, {"time": 20163, "pitch": 82, "duration": 10, "velocity": 80}, {"time": 20323, "pitch": 82, "duration": 9, "velocity": 45}, {"time": 20402, "pitch": 42, "duration": 30, "velocity": 100}, {"time": 20402, "pitch": 70, "duration": 10, "velocity": 105}, {"time": 20402, "pitch": 82, "duration": 20, "velocity": 65}, {"time": 20562, "pitch": 35, "duration": 10, "velocity": 115}, {"time": 20562, "pitch": 82, "duration": 20, "velocity": 45}, {"time": 20641, "pitch": 42, "duration": 20, "velocity": 60}, {"time": 20641, "pitch": 82, "duration": 10, "velocity": 80}, {"time": 20801, "pitch": 82, "duration": 10, "velocity": 45}, {"time": 20881, "pitch": 35, "duration": 10, "velocity": 95}, {"time": 20881, "pitch": 42, "duration": 30, "velocity": 80}, {"time": 20881, "pitch": 82, "duration": 20, "velocity": 65}, {"time": 21040, "pitch": 82, "duration": 10, "velocity": 45}, {"time": 21120, "pitch": 42, "duration": 20, "velocity": 60}, {"time": 21120, "pitch": 82, "duration": 10, "velocity": 80}, {"time": 21279, "pitch": 35, "duration": 10, "velocity": 75}, {"time": 21279, "pitch": 82, "duration": 20, "velocity": 45}, {"time": 21359, "pitch": 42, "duration": 20, "velocity": 100}, {"time": 21359, "pitch": 82, "duration": 10, "velocity": 65}, {"time": 21519, "pitch": 75, "duration": 9, "velocity": 105}, {"time": 21519, "pitch": 82, "duration": 19, "velocity": 45}, {"time": 21598, "pitch": 35, "duration": 10, "velocity": 115}, {"time": 21598, "pitch": 42, "duration": 30, "velocity": 60}, {"time": 21598, "pitch": 82, "duration": 20, "velocity": 80}, {"time": 21758, "pitch": 82, "duration": 10, "velocity": 45}, {"time": 21837, "pitch": 42, "duration": 20, "velocity": 80}, {"time": 21837, "pitch": 82, "duration": 10, "velocity": 65}, {"time": 21997, "pitch": 82, "duration": 10, "velocity": 45}, {"time": 22077, "pitch": 42, "duration": 20, "velocity": 60}, {"time": 22077, "pitch": 82, "duration": 10, "velocity": 80}, {"time": 22228, "pitch": 37, "duration": 10, "velocity": 95}, {"time": 22238, "pitch": 82, "duration": 10, "velocity": 45}, {"time": 22319, "pitch": 42, "duration": 31, "velocity": 100}, {"time": 22319, "pitch": 70, "duration": 10, "velocity": 105}, {"time": 22319, "pitch": 82, "duration": 20, "velocity": 65}, {"time": 22481, "pitch": 35, "duration": 10, "velocity": 115}, {"time": 22481, "pitch": 82, "duration": 20, "velocity": 45}, {"time": 22562, "pitch": 42, "duration": 20, "velocity": 60}, {"time": 22562, "pitch": 82, "duration": 10, "velocity": 80}, {"time": 22721, "pitch": 35, "duration": 10, "velocity": 75}, {"time": 22721, "pitch": 82, "duration": 20, "velocity": 45}, {"time": 22801, "pitch": 35, "duration": 10, "velocity": 115}, {"time": 22801, "pitch": 46, "duration": 30, "velocity": 110}, {"time": 22801, "pitch": 82, "duration": 20, "velocity": 65}, {"time": 22961, "pitch": 82, "duration": 10, "velocity": 45}, {"time": 23040, "pitch": 42, "duration": 20, "velocity": 60}, {"time": 23040, "pitch": 82, "duration": 10, "velocity": 80}, {"time": 23190, "pitch": 41, "duration": 10, "velocity": 55}, {"time": 23190, "pitch": 56, "duration": 10, "velocity": 65}, {"time": 23200, "pitch": 82, "duration": 10, "velocity": 45}, {"time": 23279, "pitch": 35, "duration": 20, "velocity": 75}, {"time": 23279, "pitch": 42, "duration": 40, "velocity": 100}, {"time": 23279, "pitch": 56, "duration": 10, "velocity": 105}, {"time": 23279, "pitch": 82, "duration": 30, "velocity": 65}, {"time": 23439, "pitch": 82, "duration": 10, "velocity": 45}, {"time": 23519, "pitch": 35, "duration": 10, "velocity": 115}, {"time": 23519, "pitch": 42, "duration": 30, "velocity": 60}, {"time": 23519, "pitch": 82, "duration": 20, "velocity": 80}, {"time": 23678, "pitch": 82, "duration": 10, "velocity": 45}, {"time": 23758, "pitch": 42, "duration": 20, "velocity": 80}, {"time": 23758, "pitch": 82, "duration": 10, "velocity": 65}, {"time": 23907, "pitch": 85, "duration": 10, "velocity": 110}, {"time": 23917, "pitch": 82, "duration": 10, "velocity": 45}, {"time": 23997, "pitch": 42, "duration": 20, "velocity": 60}, {"time": 23997, "pitch": 82, "duration": 10, "velocity": 80}, {"time": 24159, "pitch": 82, "duration": 10, "velocity": 45}, {"time": 24240, "pitch": 42, "duration": 30, "velocity": 100}, {"time": 24240, "pitch": 70, "duration": 10, "velocity": 105}, {"time": 24240, "pitch": 82, "duration": 20, "velocity": 65}, {"time": 24401, "pitch": 35, "duration": 11, "velocity": 95}, {"time": 24401, "pitch": 82, "duration": 21, "velocity": 45}, {"time": 24482, "pitch": 35, "duration": 10, "velocity": 115}, {"time": 24482, "pitch": 42, "duration": 30, "velocity": 60}, {"time": 24482, "pitch": 82, "duration": 20, "velocity": 80}, {"time": 24642, "pitch": 82, "duration": 10, "velocity": 45}, {"time": 24722, "pitch": 35, "duration": 9, "velocity": 95}, {"time": 24722, "pitch": 42, "duration": 29, "velocity": 80}, {"time": 24722, "pitch": 82, "duration": 19, "velocity": 65}, {"time": 24881, "pitch": 82, "duration": 10, "velocity": 45}, {"time": 24961, "pitch": 42, "duration": 20, "velocity": 60}, {"time": 24961, "pitch": 82, "duration": 10, "velocity": 80}, {"time": 25120, "pitch": 82, "duration": 10, "velocity": 45}, {"time": 25200, "pitch": 42, "duration": 20, "velocity": 100}, {"time": 25200, "pitch": 82, "duration": 10, "velocity": 65}, {"time": 25359, "pitch": 75, "duration": 10, "velocity": 105}, {"time": 25359, "pitch": 82, "duration": 20, "velocity": 45}, {"time": 25439, "pitch": 35, "duration": 10, "velocity": 115}, {"time": 25439, "pitch": 42, "duration": 30, "velocity": 60}, {"time": 25439, "pitch": 82, "duration": 20, "velocity": 80}, {"time": 25599, "pitch": 82, "duration": 10, "velocity": 45}, {"time": 25678, "pitch": 42, "duration": 20, "velocity": 80}, {"time": 25678, "pitch": 82, "duration": 10, "velocity": 65}, {"time": 25838, "pitch": 82, "duration": 10, "velocity": 45}, {"time": 25917, "pitch": 42, "duration": 21, "velocity": 60}, {"time": 25917, "pitch": 82, "duration": 11, "velocity": 80}, {"time": 26069, "pitch": 37, "duration": 10, "velocity": 95}, {"time": 26079, "pitch": 82, "duration": 10, "velocity": 45}, {"time": 26160, "pitch": 42, "duration": 30, "velocity": 100}, {"time": 26160, "pitch": 70, "duration": 10, "velocity": 105}, {"time": 26160, "pitch": 82, "duration": 20, "velocity": 65}, {"time": 26322, "pitch": 35, "duration": 10, "velocity": 115}, {"time": 26322, "pitch": 82, "duration": 20, "velocity": 45}, {"time": 26403, "pitch": 42, "duration": 20, "velocity": 60}, {"time": 26403, "pitch": 82, "duration": 10, "velocity": 80}, {"time": 26562, "pitch": 35, "duration": 10, "velocity": 75}, {"time": 26562, "pitch": 82, "duration": 20, "velocity": 45}, {"time": 26642, "pitch": 35, "duration": 10, "velocity": 115}, {"time": 26642, "pitch": 46, "duration": 30, "velocity": 110}, {"time": 26642, "pitch": 82, "duration": 20, "velocity": 65}, {"time": 26801, "pitch": 82, "duration": 10, "velocity": 45}, {"time": 26881, "pitch": 42, "duration": 20, "velocity": 60}, {"time": 26881, "pitch": 82, "duration": 10, "velocity": 80}, {"time": 27031, "pitch": 56, "duration": 10, "velocity": 65}, {"time": 27041, "pitch": 82, "duration": 10, "velocity": 45}, {"time": 27120, "pitch": 42, "duration": 30, "velocity": 100}, {"time": 27120, "pitch": 56, "duration": 10, "velocity": 105}, {"time": 27120, "pitch": 82, "duration": 20, "velocity": 65}, {"time": 27280, "pitch": 35, "duration": 10, "velocity": 75}, {"time": 27280, "pitch": 82, "duration": 20, "velocity": 45}, {"time": 27360, "pitch": 35, "duration": 9, "velocity": 115}, {"time": 27360, "pitch": 42, "duration": 29, "velocity": 60}, {"time": 27360, "pitch": 82, "duration": 19, "velocity": 80}, {"time": 27519, "pitch": 82, "duration": 10, "velocity": 45}, {"time": 27599, "pitch": 42, "duration": 20, "velocity": 80}, {"time": 27599, "pitch": 82, "duration": 10, "velocity": 65}, {"time": 27748, "pitch": 85, "duration": 10, "velocity": 110}, {"time": 27758, "pitch": 82, "duration": 10, "velocity": 45}, {"time": 27838, "pitch": 42, "duration": 20, "velocity": 60}, {"time": 27838, "pitch": 82, "duration": 10, "velocity": 80}, {"time": 28000, "pitch": 82, "duration": 10, "velocity": 45}, {"time": 28081, "pitch": 42, "duration": 30, "velocity": 100}, {"time": 28081, "pitch": 70, "duration": 10, "velocity": 105}, {"time": 28081, "pitch": 82, "duration": 20, "velocity": 65}, {"time": 28242, "pitch": 35, "duration": 10, "velocity": 115}, {"time": 28242, "pitch": 82, "duration": 21, "velocity": 45}, {"time": 28323, "pitch": 42, "duration": 20, "velocity": 60}, {"time": 28323, "pitch": 82, "duration": 10, "velocity": 80}, {"time": 28483, "pitch": 82, "duration": 10, "velocity": 45}, {"time": 28562, "pitch": 35, "duration": 10, "velocity": 95}, {"time": 28562, "pitch": 42, "duration": 30, "velocity": 80}, {"time": 28562, "pitch": 82, "duration": 20, "velocity": 65}, {"time": 28722, "pitch": 82, "duration": 10, "velocity": 45}, {"time": 28802, "pitch": 42, "duration": 19, "velocity": 60}, {"time": 28802, "pitch": 82, "duration": 10, "velocity": 80}, {"time": 28961, "pitch": 35, "duration": 10, "velocity": 75}, {"time": 28961, "pitch": 82, "duration": 20, "velocity": 45}, {"time": 29041, "pitch": 42, "duration": 20, "velocity": 100}, {"time": 29041, "pitch": 82, "duration": 10, "velocity": 65}, {"time": 29200, "pitch": 75, "duration": 10, "velocity": 105}, {"time": 29200, "pitch": 82, "duration": 20, "velocity": 45}, {"time": 29280, "pitch": 35, "duration": 10, "velocity": 115}, {"time": 29280, "pitch": 42, "duration": 30, "velocity": 60}, {"time": 29280, "pitch": 82, "duration": 20, "velocity": 80}, {"time": 29439, "pitch": 82, "duration": 10, "velocity": 45}, {"time": 29519, "pitch": 42, "duration": 20, "velocity": 80}, {"time": 29519, "pitch": 82, "duration": 10, "velocity": 65}, {"time": 29679, "pitch": 82, "duration": 10, "velocity": 45}, {"time": 29758, "pitch": 42, "duration": 20, "velocity": 60}, {"time": 29758, "pitch": 82, "duration": 10, "velocity": 80}, {"time": 29908, "pitch": 37, "duration": 10, "velocity": 95}, {"time": 29918, "pitch": 82, "duration": 10, "velocity": 45}, {"time": 29998, "pitch": 42, "duration": 29, "velocity": 100}, {"time": 29998, "pitch": 70, "duration": 9, "velocity": 105}, {"time": 29998, "pitch": 82, "duration": 19, "velocity": 65}, {"time": 30157, "pitch": 35, "duration": 10, "velocity": 115}, {"time": 30157, "pitch": 82, "duration": 20, "velocity": 45}, {"time": 30237, "pitch": 42, "duration": 20, "velocity": 60}, {"time": 30237, "pitch": 82, "duration": 10, "velocity": 80}, {"time": 30398, "pitch": 35, "duration": 11, "velocity": 75}, {"time": 30398, "pitch": 82, "duration": 21, "velocity": 45}, {"time": 30479, "pitch": 35, "duration": 10, "velocity": 115}, {"time": 30479, "pitch": 46, "duration": 31, "velocity": 110}, {"time": 30479, "pitch": 82, "duration": 21, "velocity": 65}, {"time": 30641, "pitch": 82, "duration": 10, "velocity": 45}, {"time": 30722, "pitch": 42, "duration": 20, "velocity": 60}, {"time": 30722, "pitch": 82, "duration": 10, "velocity": 80}, {"time": 30871, "pitch": 41, "duration": 10, "velocity": 55}, {"time": 30871, "pitch": 56, "duration": 10, "velocity": 65}, {"time": 30881, "pitch": 42, "duration": 20, "velocity": 80}, {"time": 30881, "pitch": 82, "duration": 10, "velocity": 45}, {"time": 30961, "pitch": 35, "duration": 20, "velocity": 75}, {"time": 30961, "pitch": 42, "duration": 40, "velocity": 100}, {"time": 30961, "pitch": 56, "duration": 10, "velocity": 105}, {"time": 30961, "pitch": 82, "duration": 30, "velocity": 65}, {"time": 31121, "pitch": 82, "duration": 10, "velocity": 45}, {"time": 31200, "pitch": 35, "duration": 10, "velocity": 115}, {"time": 31200, "pitch": 42, "duration": 30, "velocity": 60}, {"time": 31200, "pitch": 82, "duration": 20, "velocity": 80}, {"time": 31360, "pitch": 82, "duration": 10, "velocity": 45}, {"time": 31440, "pitch": 42, "duration": 19, "velocity": 80}, {"time": 31440, "pitch": 82, "duration": 10, "velocity": 65}, {"time": 31589, "pitch": 85, "duration": 10, "velocity": 110}, {"time": 31599, "pitch": 82, "duration": 10, "velocity": 45}, {"time": 31679, "pitch": 42, "duration": 20, "velocity": 60}, {"time": 31679, "pitch": 82, "duration": 10, "velocity": 80}, {"time": 31838, "pitch": 82, "duration": 10, "velocity": 45}, {"time": 31918, "pitch": 42, "duration": 30, "velocity": 100}, {"time": 31918, "pitch": 70, "duration": 10, "velocity": 105}, {"time": 31918, "pitch": 82, "duration": 20, "velocity": 65}, {"time": 32077, "pitch": 35, "duration": 10, "velocity": 95}, {"time": 32077, "pitch": 82, "duration": 20, "velocity": 45}, {"time": 32157, "pitch": 35, "duration": 10, "velocity": 115}, {"time": 32157, "pitch": 42, "duration": 30, "velocity": 60}, {"time": 32157, "pitch": 82, "duration": 20, "velocity": 80}, {"time": 32319, "pitch": 82, "duration": 10, "velocity": 45}, {"time": 32400, "pitch": 35, "duration": 10, "velocity": 95}, {"time": 32400, "pitch": 42, "duration": 30, "velocity": 80}, {"time": 32400, "pitch": 82, "duration": 20, "velocity": 65}, {"time": 32562, "pitch": 82, "duration": 10, "velocity": 45}, {"time": 32642, "pitch": 42, "duration": 20, "velocity": 60}, {"time": 32642, "pitch": 82, "duration": 10, "velocity": 80}, {"time": 32802, "pitch": 82, "duration": 10, "velocity": 45}, {"time": 32882, "pitch": 42, "duration": 20, "velocity": 100}, {"time": 32882, "pitch": 82, "duration": 10, "velocity": 65}, {"time": 33041, "pitch": 75, "duration": 10, "velocity": 105}, {"time": 33041, "pitch": 82, "duration": 20, "velocity": 45}, {"time": 33121, "pitch": 35, "duration": 10, "velocity": 115}, {"time": 33121, "pitch": 42, "duration": 30, "velocity": 60}, {"time": 33121, "pitch": 82, "duration": 20, "velocity": 80}, {"time": 33280, "pitch": 82, "duration": 10, "velocity": 45}, {"time": 33360, "pitch": 42, "duration": 20, "velocity": 80}, {"time": 33360, "pitch": 82, "duration": 10, "velocity": 65}, {"time": 33519, "pitch": 82, "duration": 10, "velocity": 45}, {"time": 33599, "pitch": 42, "duration": 20, "velocity": 60}, {"time": 33599, "pitch": 82, "duration": 10, "velocity": 80}, {"time": 33749, "pitch": 37, "duration": 10, "velocity": 95}, {"time": 33759, "pitch": 82, "duration": 10, "velocity": 45}, {"time": 33838, "pitch": 42, "duration": 30, "velocity": 100}, {"time": 33838, "pitch": 70, "duration": 10, "velocity": 105}, {"time": 33838, "pitch": 82, "duration": 20, "velocity": 65}, {"time": 33998, "pitch": 35, "duration": 10, "velocity": 115}, {"time": 33998, "pitch": 82, "duration": 20, "velocity": 45}, {"time": 34078, "pitch": 42, "duration": 20, "velocity": 60}, {"time": 34078, "pitch": 82, "duration": 10, "velocity": 80}, {"time": 34239, "pitch": 35, "duration": 10, "velocity": 75}, {"time": 34239, "pitch": 82, "duration": 21, "velocity": 45}, {"time": 34320, "pitch": 35, "duration": 10, "velocity": 115}, {"time": 34320, "pitch": 46, "duration": 31, "velocity": 110}, {"time": 34320, "pitch": 82, "duration": 20, "velocity": 65}, {"time": 34482, "pitch": 82, "duration": 10, "velocity": 45}, {"time": 34563, "pitch": 42, "duration": 20, "velocity": 60}, {"time": 34563, "pitch": 82, "duration": 10, "velocity": 80}, {"time": 34712, "pitch": 56, "duration": 10, "velocity": 65}, {"time": 34722, "pitch": 82, "duration": 10, "velocity": 45}, {"time": 34802, "pitch": 42, "duration": 30, "velocity": 100}, {"time": 34802, "pitch": 56, "duration": 10, "velocity": 105}, {"time": 34802, "pitch": 82, "duration": 20, "velocity": 65}, {"time": 34961, "pitch": 35, "duration": 10, "velocity": 75}, {"time": 34961, "pitch": 82, "duration": 20, "velocity": 45}, {"time": 35041, "pitch": 35, "duration": 10, "velocity": 115}, {"time": 35041, "pitch": 42, "duration": 30, "velocity": 60}, {"time": 35041, "pitch": 82, "duration": 20, "velocity": 80}, {"time": 35201, "pitch": 82, "duration": 10, "velocity": 45}, {"time": 35280, "pitch": 42, "duration": 20, "velocity": 80}, {"time": 35280, "pitch": 82, "duration": 10, "velocity": 65}, {"time": 35430, "pitch": 85, "duration": 10, "velocity": 110}, {"time": 35440, "pitch": 82, "duration": 10, "velocity": 45}, {"time": 35520, "pitch": 42, "duration": 20, "velocity": 60}, {"time": 35520, "pitch": 82, "duration": 10, "velocity": 80}, {"time": 35679, "pitch": 82, "duration": 10, "velocity": 45}, {"time": 35759, "pitch": 42, "duration": 30, "velocity": 100}, {"time": 35759, "pitch": 70, "duration": 10, "velocity": 105}, {"time": 35759, "pitch": 82, "duration": 20, "velocity": 65}, {"time": 35918, "pitch": 35, "duration": 10, "velocity": 115}, {"time": 35918, "pitch": 82, "duration": 20, "velocity": 45}, {"time": 35998, "pitch": 42, "duration": 20, "velocity": 60}, {"time": 35998, "pitch": 82, "duration": 10, "velocity": 80}, {"time": 36160, "pitch": 82, "duration": 10, "velocity": 45}, {"time": 36241, "pitch": 35, "duration": 10, "velocity": 95}, {"time": 36241, "pitch": 42, "duration": 30, "velocity": 80}, {"time": 36241, "pitch": 82, "duration": 20, "velocity": 65}, {"time": 36402, "pitch": 82, "duration": 11, "velocity": 45}, {"time": 36483, "pitch": 42, "duration": 20, "velocity": 60}, {"time": 36483, "pitch": 82, "duration": 10, "velocity": 80}, {"time": 36643, "pitch": 35, "duration": 10, "velocity": 75}, {"time": 36643, "pitch": 82, "duration": 20, "velocity": 45}, {"time": 36722, "pitch": 42, "duration": 20, "velocity": 100}, {"time": 36722, "pitch": 82, "duration": 10, "velocity": 65}, {"time": 36882, "pitch": 75, "duration": 10, "velocity": 105}, {"time": 36882, "pitch": 82, "duration": 20, "velocity": 45}, {"time": 36962, "pitch": 35, "duration": 10, "velocity": 115}, {"time": 36962, "pitch": 42, "duration": 30, "velocity": 60}, {"time": 36962, "pitch": 82, "duration": 20, "velocity": 80}, {"time": 37121, "pitch": 82, "duration": 10, "velocity": 45}, {"time": 37201, "pitch": 42, "duration": 20, "velocity": 80}, {"time": 37201, "pitch": 82, "duration": 10, "velocity": 65}, {"time": 37360, "pitch": 82, "duration": 10, "velocity": 45}, {"time": 37440, "pitch": 42, "duration": 20, "velocity": 60}, {"time": 37440, "pitch": 82, "duration": 10, "velocity": 80}, {"time": 37590, "pitch": 37, "duration": 10, "velocity": 95}, {"time": 37600, "pitch": 82, "duration": 9, "velocity": 45}, {"time": 37679, "pitch": 42, "duration": 30, "velocity": 100}, {"time": 37679, "pitch": 70, "duration": 10, "velocity": 105}, {"time": 37679, "pitch": 82, "duration": 20, "velocity": 65}, {"time": 37839, "pitch": 35, "duration": 10, "velocity": 75}, {"time": 37839, "pitch": 82, "duration": 20, "velocity": 45}, {"time": 37918, "pitch": 35, "duration": 10, "velocity": 115}, {"time": 37918, "pitch": 42, "duration": 30, "velocity": 60}, {"time": 37918, "pitch": 82, "duration": 20, "velocity": 80}, {"time": 38078, "pitch": 82, "duration": 10, "velocity": 45}, {"time": 38158, "pitch": 82, "duration": 10, "velocity": 65}, {"time": 38317, "pitch": 82, "duration": 10, "velocity": 45}, {"time": 38397, "pitch": 42, "duration": 20, "velocity": 80}, {"time": 38397, "pitch": 82, "duration": 10, "velocity": 80}, {"time": 38478, "pitch": 42, "duration": 10, "velocity": 30}, {"time": 38559, "pitch": 42, "duration": 10, "velocity": 60}, {"time": 38639, "pitch": 46, "duration": 11, "velocity": 100}, {"time": 38882, "pitch": 35, "duration": 10, "velocity": 115}, {"time": 38882, "pitch": 42, "duration": 30, "velocity": 60}, {"time": 38882, "pitch": 82, "duration": 20, "velocity": 80}, {"time": 39042, "pitch": 82, "duration": 10, "velocity": 45}, {"time": 39121, "pitch": 42, "duration": 20, "velocity": 80}, {"time": 39121, "pitch": 82, "duration": 10, "velocity": 65}, {"time": 39271, "pitch": 85, "duration": 10, "velocity": 110}, {"time": 39281, "pitch": 82, "duration": 10, "velocity": 45}, {"time": 39360, "pitch": 42, "duration": 20, "velocity": 60}, {"time": 39360, "pitch": 82, "duration": 10, "velocity": 80}, {"time": 39520, "pitch": 82, "duration": 10, "velocity": 45}, {"time": 39600, "pitch": 42, "duration": 30, "velocity": 100}, {"time": 39600, "pitch": 70, "duration": 10, "velocity": 105}, {"time": 39600, "pitch": 82, "duration": 20, "velocity": 65}, {"time": 39759, "pitch": 35, "duration": 10, "velocity": 95}, {"time": 39759, "pitch": 82, "duration": 20, "velocity": 45}, {"time": 39839, "pitch": 35, "duration": 10, "velocity": 115}, {"time": 39839, "pitch": 42, "duration": 30, "velocity": 60}, {"time": 39839, "pitch": 82, "duration": 20, "velocity": 80}, {"time": 39998, "pitch": 82, "duration": 10, "velocity": 45}, {"time": 40078, "pitch": 35, "duration": 10, "velocity": 95}, {"time": 40078, "pitch": 42, "duration": 30, "velocity": 80}, {"time": 40078, "pitch": 82, "duration": 20, "velocity": 65}, {"time": 40238, "pitch": 82, "duration": 9, "velocity": 45}, {"time": 40317, "pitch": 42, "duration": 20, "velocity": 60}, {"time": 40317, "pitch": 82, "duration": 10, "velocity": 80}, {"time": 40479, "pitch": 82, "duration": 10, "velocity": 45}, {"time": 40560, "pitch": 42, "duration": 20, "velocity": 100}, {"time": 40560, "pitch": 82, "duration": 10, "velocity": 65}, {"time": 40722, "pitch": 75, "duration": 10, "velocity": 105}, {"time": 40722, "pitch": 82, "duration": 20, "velocity": 45}, {"time": 40802, "pitch": 35, "duration": 10, "velocity": 115}, {"time": 40802, "pitch": 42, "duration": 30, "velocity": 60}, {"time": 40802, "pitch": 82, "duration": 20, "velocity": 80}, {"time": 40962, "pitch": 82, "duration": 10, "velocity": 45}, {"time": 41042, "pitch": 42, "duration": 20, "velocity": 80}, {"time": 41042, "pitch": 82, "duration": 10, "velocity": 65}, {"time": 41201, "pitch": 82, "duration": 10, "velocity": 45}, {"time": 41281, "pitch": 42, "duration": 20, "velocity": 60}, {"time": 41281, "pitch": 82, "duration": 10, "velocity": 80}, {"time": 41430, "pitch": 37, "duration": 10, "velocity": 95}, {"time": 41440, "pitch": 82, "duration": 10, "velocity": 45}, {"time": 41520, "pitch": 42, "duration": 30, "velocity": 100}, {"time": 41520, "pitch": 70, "duration": 10, "velocity": 105}, {"time": 41520, "pitch": 82, "duration": 20, "velocity": 65}, {"time": 41680, "pitch": 35, "duration": 10, "velocity": 115}, {"time": 41680, "pitch": 82, "duration": 19, "velocity": 45}, {"time": 41759, "pitch": 42, "duration": 20, "velocity": 60}, {"time": 41759, "pitch": 82, "duration": 10, "velocity": 80}, {"time": 41919, "pitch": 35, "duration": 10, "velocity": 75}, {"time": 41919, "pitch": 82, "duration": 20, "velocity": 45}, {"time": 41998, "pitch": 35, "duration": 10, "velocity": 115}, {"time": 41998, "pitch": 46, "duration": 30, "velocity": 110}, {"time": 41998, "pitch": 82, "duration": 20, "velocity": 65}, {"time": 42158, "pitch": 82, "duration": 10, "velocity": 45}, {"time": 42238, "pitch": 42, "duration": 20, "velocity": 60}, {"time": 42238, "pitch": 82, "duration": 10, "velocity": 80}, {"time": 42389, "pitch": 56, "duration": 10, "velocity": 65}, {"time": 42399, "pitch": 82, "duration": 11, "velocity": 45}, {"time": 42480, "pitch": 42, "duration": 31, "velocity": 100}, {"time": 42480, "pitch": 56, "duration": 10, "velocity": 105}, {"time": 42480, "pitch": 82, "duration": 21, "velocity": 65}, {"time": 42642, "pitch": 35, "duration": 10, "velocity": 75}, {"time": 42642, "pitch": 82, "duration": 20, "velocity": 45}, {"time": 42723, "pitch": 35, "duration": 10, "velocity": 115}, {"time": 42723, "pitch": 42, "duration": 30, "velocity": 60}, {"time": 42723, "pitch": 82, "duration": 20, "velocity": 80}, {"time": 42882, "pitch": 82, "duration": 10, "velocity": 45}, {"time": 42962, "pitch": 42, "duration": 20, "velocity": 80}, {"time": 42962, "pitch": 82, "duration": 10, "velocity": 65}, {"time": 43112, "pitch": 85, "duration": 10, "velocity": 110}, {"time": 43122, "pitch": 82, "duration": 10, "velocity": 45}, {"time": 43201, "pitch": 42, "duration": 20, "velocity": 60}, {"time": 43201, "pitch": 82, "duration": 10, "velocity": 80}, {"time": 43361, "pitch": 82, "duration": 10, "velocity": 45}, {"time": 43441, "pitch": 42, "duration": 29, "velocity": 100}, {"time": 43441, "pitch": 70, "duration": 9, "velocity": 105}, {"time": 43441, "pitch": 82, "duration": 19, "velocity": 65}, {"time": 43600, "pitch": 35, "duration": 10, "velocity": 115}, {"time": 43600, "pitch": 82, "duration": 20, "velocity": 45}, {"time": 43680, "pitch": 42, "duration": 20, "velocity": 60}, {"time": 43680, "pitch": 82, "duration": 10, "velocity": 80}, {"time": 43839, "pitch": 82, "duration": 10, "velocity": 45}, {"time": 43919, "pitch": 35, "duration": 10, "velocity": 95}, {"time": 43919, "pitch": 42, "duration": 30, "velocity": 80}, {"time": 43919, "pitch": 82, "duration": 20, "velocity": 65}, {"time": 44078, "pitch": 82, "duration": 10, "velocity": 45}, {"time": 44158, "pitch": 42, "duration": 20, "velocity": 60}, {"time": 44158, "pitch": 82, "duration": 10, "velocity": 80}, {"time": 44320, "pitch": 35, "duration": 10, "velocity": 75}, {"time": 44320, "pitch": 82, "duration": 20, "velocity": 45}, {"time": 44401, "pitch": 42, "duration": 20, "velocity": 100}, {"time": 44401, "pitch": 82, "duration": 10, "velocity": 65}, {"time": 44563, "pitch": 75, "duration": 10, "velocity": 105}, {"time": 44563, "pitch": 82, "duration": 20, "velocity": 45}, {"time": 44643, "pitch": 35, "duration": 10, "velocity": 115}, {"time": 44643, "pitch": 42, "duration": 30, "velocity": 60}, {"time": 44643, "pitch": 82, "duration": 20, "velocity": 80}, {"time": 44803, "pitch": 82, "duration": 10, "velocity": 45}, {"time": 44883, "pitch": 42, "duration": 19, "velocity": 80}, {"time": 44883, "pitch": 82, "duration": 10, "velocity": 65}, {"time": 45042, "pitch": 82, "duration": 10, "velocity": 45}, {"time": 45122, "pitch": 42, "duration": 20, "velocity": 60}, {"time": 45122, "pitch": 82, "duration": 10, "velocity": 80}, {"time": 45271, "pitch": 37, "duration": 10, "velocity": 95}, {"time": 45281, "pitch": 82, "duration": 10, "velocity": 45}, {"time": 45361, "pitch": 42, "duration": 30, "velocity": 100}, {"time": 45361, "pitch": 70, "duration": 10, "velocity": 105}, {"time": 45361, "pitch": 82, "duration": 20, "velocity": 65}, {"time": 45520, "pitch": 35, "duration": 10, "velocity": 115}, {"time": 45520, "pitch": 82, "duration": 20, "velocity": 45}, {"time": 45600, "pitch": 42, "duration": 20, "velocity": 60}, {"time": 45600, "pitch": 82, "duration": 10, "velocity": 80}, {"time": 45760, "pitch": 35, "duration": 10, "velocity": 75}, {"time": 45760, "pitch": 82, "duration": 20, "velocity": 45}, {"time": 45839, "pitch": 35, "duration": 10, "velocity": 115}, {"time": 45839, "pitch": 46, "duration": 30, "velocity": 110}, {"time": 45839, "pitch": 82, "duration": 20, "velocity": 65}, {"time": 45999, "pitch": 82, "duration": 10, "velocity": 45}, {"time": 46079, "pitch": 42, "duration": 19, "velocity": 60}, {"time": 46079, "pitch": 82, "duration": 9, "velocity": 80}, {"time": 46228, "pitch": 41, "duration": 10, "velocity": 55}, {"time": 46228, "pitch": 56, "duration": 10, "velocity": 65}, {"time": 46238, "pitch": 82, "duration": 10, "velocity": 45}, {"time": 46318, "pitch": 35, "duration": 20, "velocity": 75}, {"time": 46318, "pitch": 42, "duration": 40, "velocity": 100}, {"time": 46318, "pitch": 56, "duration": 10, "velocity": 105}, {"time": 46318, "pitch": 82, "duration": 30, "velocity": 65}, {"time": 46477, "pitch": 82, "duration": 10, "velocity": 45}, {"time": 46557, "pitch": 35, "duration": 10, "velocity": 115}, {"time": 46557, "pitch": 42, "duration": 30, "velocity": 60}, {"time": 46557, "pitch": 82, "duration": 20, "velocity": 80}, {"time": 46719, "pitch": 82, "duration": 10, "velocity": 45}, {"time": 46800, "pitch": 42, "duration": 20, "velocity": 80}, {"time": 46800, "pitch": 82, "duration": 10, "velocity": 65}, {"time": 46951, "pitch": 85, "duration": 10, "velocity": 110}, {"time": 46961, "pitch": 82, "duration": 10, "velocity": 45}, {"time": 47042, "pitch": 42, "duration": 20, "velocity": 60}, {"time": 47042, "pitch": 82, "duration": 10, "velocity": 80}, {"time": 47202, "pitch": 82, "duration": 10, "velocity": 45}, {"time": 47281, "pitch": 42, "duration": 30, "velocity": 100}, {"time": 47281, "pitch": 70, "duration": 10, "velocity": 105}, {"time": 47281, "pitch": 82, "duration": 20, "velocity": 65}, {"time": 47441, "pitch": 35, "duration": 10, "velocity": 95}, {"time": 47441, "pitch": 82, "duration": 20, "velocity": 45}, {"time": 47521, "pitch": 35, "duration": 10, "velocity": 115}, {"time": 47521, "pitch": 42, "duration": 29, "velocity": 60}, {"time": 47521, "pitch": 82, "duration": 19, "velocity": 80}, {"time": 47680, "pitch": 82, "duration": 10, "velocity": 45}, {"time": 47760, "pitch": 35, "duration": 10, "velocity": 95}, {"time": 47760, "pitch": 42, "duration": 30, "velocity": 80}, {"time": 47760, "pitch": 82, "duration": 20, "velocity": 65}, {"time": 47919, "pitch": 82, "duration": 10, "velocity": 45}, {"time": 47999, "pitch": 42, "duration": 20, "velocity": 60}, {"time": 47999, "pitch": 82, "duration": 10, "velocity": 80}, {"time": 48158, "pitch": 82, "duration": 10, "velocity": 45}, {"time": 48238, "pitch": 42, "duration": 20, "velocity": 100}, {"time": 48238, "pitch": 82, "duration": 10, "velocity": 65}, {"time": 48398, "pitch": 75, "duration": 10, "velocity": 105}, {"time": 48398, "pitch": 82, "duration": 20, "velocity": 45}, {"time": 48477, "pitch": 35, "duration": 10, "velocity": 115}, {"time": 48477, "pitch": 42, "duration": 31, "velocity": 60}, {"time": 48477, "pitch": 82, "duration": 21, "velocity": 80}, {"time": 48639, "pitch": 82, "duration": 10, "velocity": 45}, {"time": 48720, "pitch": 42, "duration": 20, "velocity": 80}, {"time": 48720, "pitch": 82, "duration": 10, "velocity": 65}, {"time": 48882, "pitch": 82, "duration": 10, "velocity": 45}, {"time": 48963, "pitch": 42, "duration": 20, "velocity": 60}, {"time": 48963, "pitch": 82, "duration": 10, "velocity": 80}, {"time": 49112, "pitch": 37, "duration": 10, "velocity": 95}, {"time": 49122, "pitch": 82, "duration": 10, "velocity": 45}, {"time": 49202, "pitch": 42, "duration": 30, "velocity": 100}, {"time": 49202, "pitch": 70, "duration": 10, "velocity": 105}, {"time": 49202, "pitch": 82, "duration": 20, "velocity": 65}, {"time": 49361, "pitch": 35, "duration": 10, "velocity": 115}, {"time": 49361, "pitch": 82, "duration": 20, "velocity": 45}, {"time": 49441, "pitch": 42, "duration": 20, "velocity": 60}, {"time": 49441, "pitch": 82, "duration": 10, "velocity": 80}, {"time": 49600, "pitch": 35, "duration": 10, "velocity": 75}, {"time": 49600, "pitch": 82, "duration": 20, "velocity": 45}, {"time": 49680, "pitch": 35, "duration": 10, "velocity": 115}, {"time": 49680, "pitch": 46, "duration": 30, "velocity": 110}, {"time": 49680, "pitch": 82, "duration": 20, "velocity": 65}, {"time": 49840, "pitch": 82, "duration": 10, "velocity": 45}, {"time": 49919, "pitch": 42, "duration": 20, "velocity": 60}, {"time": 49919, "pitch": 82, "duration": 10, "velocity": 80}, {"time": 50069, "pitch": 56, "duration": 10, "velocity": 65}, {"time": 50079, "pitch": 82, "duration": 10, "velocity": 45}, {"time": 50159, "pitch": 42, "duration": 29, "velocity": 100}, {"time": 50159, "pitch": 56, "duration": 10, "velocity": 105}, {"time": 50159, "pitch": 82, "duration": 20, "velocity": 65}, {"time": 50318, "pitch": 35, "duration": 10, "velocity": 75}, {"time": 50318, "pitch": 82, "duration": 20, "velocity": 45}, {"time": 50398, "pitch": 35, "duration": 10, "velocity": 115}, {"time": 50398, "pitch": 42, "duration": 30, "velocity": 60}, {"time": 50398, "pitch": 82, "duration": 20, "velocity": 80}, {"time": 50560, "pitch": 82, "duration": 10, "velocity": 45}, {"time": 50640, "pitch": 42, "duration": 21, "velocity": 80}, {"time": 50640, "pitch": 82, "duration": 11, "velocity": 65}, {"time": 50792, "pitch": 85, "duration": 10, "velocity": 110}, {"time": 50802, "pitch": 82, "duration": 10, "velocity": 45}, {"time": 50883, "pitch": 42, "duration": 20, "velocity": 60}, {"time": 50883, "pitch": 82, "duration": 10, "velocity": 80}, {"time": 51042, "pitch": 82, "duration": 10, "velocity": 45}, {"time": 51122, "pitch": 42, "duration": 30, "velocity": 100}, {"time": 51122, "pitch": 70, "duration": 10, "velocity": 105}, {"time": 51122, "pitch": 82, "duration": 20, "velocity": 65}, {"time": 51282, "pitch": 35, "duration": 10, "velocity": 115}, {"time": 51282, "pitch": 82, "duration": 20, "velocity": 45}, {"time": 51361, "pitch": 42, "duration": 20, "velocity": 60}, {"time": 51361, "pitch": 82, "duration": 10, "velocity": 80}, {"time": 51521, "pitch": 82, "duration": 10, "velocity": 45}, {"time": 51601, "pitch": 35, "duration": 10, "velocity": 95}, {"time": 51601, "pitch": 42, "duration": 30, "velocity": 80}, {"time": 51601, "pitch": 82, "duration": 20, "velocity": 65}, {"time": 51760, "pitch": 82, "duration": 10, "velocity": 45}, {"time": 51840, "pitch": 42, "duration": 20, "velocity": 60}, {"time": 51840, "pitch": 82, "duration": 10, "velocity": 80}, {"time": 51999, "pitch": 35, "duration": 10, "velocity": 75}, {"time": 51999, "pitch": 82, "duration": 20, "velocity": 45}, {"time": 52079, "pitch": 42, "duration": 20, "velocity": 100}, {"time": 52079, "pitch": 82, "duration": 10, "velocity": 65}, {"time": 52238, "pitch": 75, "duration": 10, "velocity": 105}, {"time": 52238, "pitch": 82, "duration": 20, "velocity": 45}, {"time": 52318, "pitch": 35, "duration": 10, "velocity": 115}, {"time": 52318, "pitch": 42, "duration": 30, "velocity": 60}, {"time": 52318, "pitch": 82, "duration": 20, "velocity": 80}, {"time": 52478, "pitch": 82, "duration": 10, "velocity": 45}, {"time": 52557, "pitch": 42, "duration": 20, "velocity": 80}, {"time": 52557, "pitch": 82, "duration": 10, "velocity": 65}, {"time": 52717, "pitch": 82, "duration": 10, "velocity": 45}, {"time": 52797, "pitch": 42, "duration": 20, "velocity": 60}, {"time": 52797, "pitch": 82, "duration": 10, "velocity": 80}, {"time": 52948, "pitch": 37, "duration": 10, "velocity": 95}, {"time": 52958, "pitch": 82, "duration": 10, "velocity": 45}, {"time": 53039, "pitch": 42, "duration": 31, "velocity": 100}, {"time": 53039, "pitch": 70, "duration": 10, "velocity": 105}, {"time": 53039, "pitch": 82, "duration": 20, "velocity": 65}, {"time": 53201, "pitch": 35, "duration": 10, "velocity": 115}, {"time": 53201, "pitch": 82, "duration": 20, "velocity": 45}, {"time": 53282, "pitch": 42, "duration": 20, "velocity": 60}, {"time": 53282, "pitch": 82, "duration": 10, "velocity": 80}, {"time": 53441, "pitch": 35, "duration": 10, "velocity": 75}, {"time": 53441, "pitch": 82, "duration": 20, "velocity": 45}, {"time": 53521, "pitch": 35, "duration": 10, "velocity": 115}, {"time": 53521, "pitch": 46, "duration": 30, "velocity": 110}, {"time": 53521, "pitch": 82, "duration": 20, "velocity": 65}, {"time": 53680, "pitch": 82, "duration": 10, "velocity": 45}, {"time": 53760, "pitch": 42, "duration": 20, "velocity": 60}, {"time": 53760, "pitch": 82, "duration": 10, "velocity": 80}, {"time": 53910, "pitch": 41, "duration": 10, "velocity": 55}, {"time": 53910, "pitch": 56, "duration": 10, "velocity": 65}, {"time": 53920, "pitch": 42, "duration": 20, "velocity": 80}, {"time": 53920, "pitch": 82, "duration": 10, "velocity": 45}, {"time": 53999, "pitch": 35, "duration": 20, "velocity": 75}, {"time": 53999, "pitch": 42, "duration": 40, "velocity": 100}, {"time": 53999, "pitch": 56, "duration": 10, "velocity": 105}, {"time": 53999, "pitch": 82, "duration": 30, "velocity": 65}, {"time": 54159, "pitch": 82, "duration": 10, "velocity": 45}, {"time": 54239, "pitch": 35, "duration": 10, "velocity": 115}, {"time": 54239, "pitch": 42, "duration": 30, "velocity": 60}, {"time": 54239, "pitch": 82, "duration": 20, "velocity": 80}, {"time": 54398, "pitch": 82, "duration": 10, "velocity": 45}, {"time": 54478, "pitch": 42, "duration": 20, "velocity": 80}, {"time": 54478, "pitch": 82, "duration": 10, "velocity": 65}, {"time": 54627, "pitch": 85, "duration": 10, "velocity": 110}, {"time": 54637, "pitch": 82, "duration": 10, "velocity": 45}, {"time": 54717, "pitch": 42, "duration": 20, "velocity": 60}, {"time": 54717, "pitch": 82, "duration": 10, "velocity": 80}, {"time": 54879, "pitch": 82, "duration": 10, "velocity": 45}, {"time": 54960, "pitch": 42, "duration": 30, "velocity": 100}, {"time": 54960, "pitch": 70, "duration": 10, "velocity": 105}, {"time": 54960, "pitch": 82, "duration": 20, "velocity": 65}, {"time": 55121, "pitch": 35, "duration": 11, "velocity": 95}, {"time": 55121, "pitch": 82, "duration": 21, "velocity": 45}, {"time": 55202, "pitch": 35, "duration": 10, "velocity": 115}, {"time": 55202, "pitch": 42, "duration": 30, "velocity": 60}, {"time": 55202, "pitch": 82, "duration": 20, "velocity": 80}, {"time": 55362, "pitch": 82, "duration": 10, "velocity": 45}, {"time": 55441, "pitch": 35, "duration": 10, "velocity": 95}, {"time": 55441, "pitch": 42, "duration": 30, "velocity": 80}, {"time": 55441, "pitch": 82, "duration": 20, "velocity": 65}, {"time": 55601, "pitch": 82, "duration": 10, "velocity": 45}, {"time": 55681, "pitch": 42, "duration": 20, "velocity": 60}, {"time": 55681, "pitch": 82, "duration": 10, "velocity": 80}, {"time": 55840, "pitch": 82, "duration": 10, "velocity": 45}, {"time": 55920, "pitch": 42, "duration": 20, "velocity": 100}, {"time": 55920, "pitch": 82, "duration": 10, "velocity": 65}, {"time": 56079, "pitch": 75, "duration": 10, "velocity": 105}, {"time": 56079, "pitch": 82, "duration": 20, "velocity": 45}, {"time": 56159, "pitch": 35, "duration": 10, "velocity": 115}, {"time": 56159, "pitch": 42, "duration": 30, "velocity": 60}, {"time": 56159, "pitch": 82, "duration": 20, "velocity": 80}, {"time": 56319, "pitch": 82, "duration": 9, "velocity": 45}, {"time": 56398, "pitch": 42, "duration": 20, "velocity": 80}, {"time": 56398, "pitch": 82, "duration": 10, "velocity": 65}, {"time": 56558, "pitch": 82, "duration": 10, "velocity": 45}, {"time": 56637, "pitch": 42, "duration": 21, "velocity": 60}, {"time": 56637, "pitch": 82, "duration": 11, "velocity": 80}, {"time": 56789, "pitch": 37, "duration": 10, "velocity": 95}, {"time": 56799, "pitch": 82, "duration": 10, "velocity": 45}, {"time": 56880, "pitch": 42, "duration": 30, "velocity": 100}, {"time": 56880, "pitch": 70, "duration": 10, "velocity": 105}, {"time": 56880, "pitch": 82, "duration": 20, "velocity": 65}, {"time": 57042, "pitch": 35, "duration": 10, "velocity": 115}, {"time": 57042, "pitch": 82, "duration": 20, "velocity": 45}, {"time": 57123, "pitch": 42, "duration": 20, "velocity": 60}, {"time": 57123, "pitch": 82, "duration": 10, "velocity": 80}, {"time": 57282, "pitch": 35, "duration": 10, "velocity": 75}, {"time": 57282, "pitch": 82, "duration": 20, "velocity": 45}, {"time": 57362, "pitch": 35, "duration": 10, "velocity": 115}, {"time": 57362, "pitch": 46, "duration": 30, "velocity": 110}, {"time": 57362, "pitch": 82, "duration": 20, "velocity": 65}, {"time": 57521, "pitch": 82, "duration": 10, "velocity": 45}, {"time": 57601, "pitch": 42, "duration": 20, "velocity": 60}, {"time": 57601, "pitch": 82, "duration": 10, "velocity": 80}, {"time": 57751, "pitch": 56, "duration": 10, "velocity": 65}, {"time": 57761, "pitch": 82, "duration": 10, "velocity": 45}, {"time": 57840, "pitch": 42, "duration": 30, "velocity": 100}, {"time": 57840, "pitch": 56, "duration": 10, "velocity": 105}, {"time": 57840, "pitch": 82, "duration": 20, "velocity": 65}, {"time": 58000, "pitch": 35, "duration": 10, "velocity": 75}, {"time": 58000, "pitch": 82, "duration": 20, "velocity": 45}, {"time": 58079, "pitch": 35, "duration": 10, "velocity": 115}, {"time": 58079, "pitch": 42, "duration": 30, "velocity": 60}, {"time": 58079, "pitch": 82, "duration": 20, "velocity": 80}, {"time": 58239, "pitch": 82, "duration": 10, "velocity": 45}, {"time": 58319, "pitch": 42, "duration": 20, "velocity": 80}, {"time": 58319, "pitch": 82, "duration": 10, "velocity": 65}, {"time": 58468, "pitch": 85, "duration": 10, "velocity": 110}, {"time": 58478, "pitch": 82, "duration": 10, "velocity": 45}, {"time": 58558, "pitch": 42, "duration": 20, "velocity": 60}, {"time": 58558, "pitch": 82, "duration": 10, "velocity": 80}, {"time": 58720, "pitch": 82, "duration": 10, "velocity": 45}, {"time": 58800, "pitch": 42, "duration": 31, "velocity": 100}, {"time": 58800, "pitch": 70, "duration": 11, "velocity": 105}, {"time": 58800, "pitch": 82, "duration": 21, "velocity": 65}, {"time": 58962, "pitch": 35, "duration": 10, "velocity": 115}, {"time": 58962, "pitch": 82, "duration": 20, "velocity": 45}, {"time": 59043, "pitch": 42, "duration": 20, "velocity": 60}, {"time": 59043, "pitch": 82, "duration": 10, "velocity": 80}, {"time": 59203, "pitch": 82, "duration": 10, "velocity": 45}, {"time": 59282, "pitch": 35, "duration": 10, "velocity": 95}, {"time": 59282, "pitch": 42, "duration": 30, "velocity": 80}, {"time": 59282, "pitch": 82, "duration": 20, "velocity": 65}, {"time": 59442, "pitch": 82, "duration": 10, "velocity": 45}, {"time": 59521, "pitch": 42, "duration": 20, "velocity": 60}, {"time": 59521, "pitch": 82, "duration": 10, "velocity": 80}, {"time": 59681, "pitch": 35, "duration": 10, "velocity": 75}, {"time": 59681, "pitch": 82, "duration": 20, "velocity": 45}, {"time": 59761, "pitch": 42, "duration": 20, "velocity": 100}, {"time": 59761, "pitch": 82, "duration": 10, "velocity": 65}, {"time": 59920, "pitch": 75, "duration": 10, "velocity": 105}, {"time": 59920, "pitch": 82, "duration": 20, "velocity": 45}, {"time": 60000, "pitch": 35, "duration": 10, "velocity": 115}, {"time": 60000, "pitch": 42, "duration": 30, "velocity": 60}, {"time": 60000, "pitch": 82, "duration": 20, "velocity": 80}, {"time": 60159, "pitch": 82, "duration": 10, "velocity": 45}, {"time": 60239, "pitch": 42, "duration": 20, "velocity": 80}, {"time": 60239, "pitch": 82, "duration": 10, "velocity": 65}, {"time": 60399, "pitch": 82, "duration": 10, "velocity": 45}, {"time": 60478, "pitch": 42, "duration": 20, "velocity": 60}, {"time": 60478, "pitch": 82, "duration": 10, "velocity": 80}, {"time": 60628, "pitch": 37, "duration": 10, "velocity": 95}, {"time": 60638, "pitch": 82, "duration": 10, "velocity": 45}, {"time": 60717, "pitch": 42, "duration": 30, "velocity": 100}, {"time": 60717, "pitch": 70, "duration": 10, "velocity": 105}, {"time": 60717, "pitch": 82, "duration": 20, "velocity": 65}, {"time": 60877, "pitch": 35, "duration": 10, "velocity": 115}, {"time": 60877, "pitch": 82, "duration": 20, "velocity": 45}, {"time": 60957, "pitch": 42, "duration": 20, "velocity": 60}, {"time": 60957, "pitch": 82, "duration": 10, "velocity": 80}, {"time": 61118, "pitch": 35, "duration": 11, "velocity": 75}, {"time": 61118, "pitch": 82, "duration": 21, "velocity": 45}, {"time": 61199, "pitch": 35, "duration": 10, "velocity": 115}, {"time": 61199, "pitch": 46, "duration": 31, "velocity": 110}, {"time": 61199, "pitch": 82, "duration": 21, "velocity": 65}, {"time": 61361, "pitch": 82, "duration": 10, "velocity": 45}, {"time": 61442, "pitch": 42, "duration": 20, "velocity": 60}, {"time": 61442, "pitch": 82, "duration": 10, "velocity": 80}, {"time": 61591, "pitch": 41, "duration": 10, "velocity": 55}, {"time": 61591, "pitch": 56, "duration": 10, "velocity": 65}, {"time": 61601, "pitch": 82, "duration": 10, "velocity": 45}, {"time": 61681, "pitch": 35, "duration": 20, "velocity": 75}, {"time": 61681, "pitch": 42, "duration": 40, "velocity": 100}, {"time": 61681, "pitch": 56, "duration": 10, "velocity": 105}, {"time": 61681, "pitch": 82, "duration": 30, "velocity": 65}, {"time": 61841, "pitch": 82, "duration": 10, "velocity": 45}, {"time": 61920, "pitch": 35, "duration": 10, "velocity": 115}, {"time": 61920, "pitch": 42, "duration": 30, "velocity": 60}, {"time": 61920, "pitch": 82, "duration": 20, "velocity": 80}, {"time": 62080, "pitch": 82, "duration": 10, "velocity": 45}, {"time": 62160, "pitch": 42, "duration": 19, "velocity": 80}, {"time": 62160, "pitch": 82, "duration": 9, "velocity": 65}, {"time": 62309, "pitch": 85, "duration": 10, "velocity": 110}, {"time": 62319, "pitch": 82, "duration": 10, "velocity": 45}, {"time": 62399, "pitch": 42, "duration": 20, "velocity": 60}, {"time": 62399, "pitch": 82, "duration": 10, "velocity": 80}, {"time": 62558, "pitch": 82, "duration": 10, "velocity": 45}, {"time": 62638, "pitch": 42, "duration": 30, "velocity": 100}, {"time": 62638, "pitch": 70, "duration": 10, "velocity": 105}, {"time": 62638, "pitch": 82, "duration": 20, "velocity": 65}, {"time": 62797, "pitch": 35, "duration": 10, "velocity": 95}, {"time": 62797, "pitch": 82, "duration": 20, "velocity": 45}, {"time": 62877, "pitch": 35, "duration": 10, "velocity": 115}, {"time": 62877, "pitch": 42, "duration": 30, "velocity": 60}, {"time": 62877, "pitch": 82, "duration": 20, "velocity": 80}, {"time": 63039, "pitch": 82, "duration": 10, "velocity": 45}, {"time": 63120, "pitch": 35, "duration": 10, "velocity": 95}, {"time": 63120, "pitch": 42, "duration": 30, "velocity": 80}, {"time": 63120, "pitch": 82, "duration": 20, "velocity": 65}, {"time": 63281, "pitch": 82, "duration": 11, "velocity": 45}, {"time": 63362, "pitch": 42, "duration": 20, "velocity": 60}, {"time": 63362, "pitch": 82, "duration": 10, "velocity": 80}, {"time": 63522, "pitch": 82, "duration": 10, "velocity": 45}, {"time": 63602, "pitch": 42, "duration": 19, "velocity": 100}, {"time": 63602, "pitch": 82, "duration": 10, "velocity": 65}, {"time": 63761, "pitch": 75, "duration": 10, "velocity": 105}, {"time": 63761, "pitch": 82, "duration": 20, "velocity": 45}, {"time": 63841, "pitch": 35, "duration": 10, "velocity": 115}, {"time": 63841, "pitch": 42, "duration": 30, "velocity": 60}, {"time": 63841, "pitch": 82, "duration": 20, "velocity": 80}, {"time": 64000, "pitch": 82, "duration": 10, "velocity": 45}, {"time": 64080, "pitch": 42, "duration": 20, "velocity": 80}, {"time": 64080, "pitch": 82, "duration": 10, "velocity": 65}, {"time": 64239, "pitch": 82, "duration": 10, "velocity": 45}, {"time": 64319, "pitch": 42, "duration": 20, "velocity": 60}, {"time": 64319, "pitch": 82, "duration": 10, "velocity": 80}, {"time": 64469, "pitch": 37, "duration": 10, "velocity": 95}, {"time": 64479, "pitch": 82, "duration": 10, "velocity": 45}, {"time": 64558, "pitch": 42, "duration": 30, "velocity": 100}, {"time": 64558, "pitch": 70, "duration": 10, "velocity": 105}, {"time": 64558, "pitch": 82, "duration": 20, "velocity": 65}, {"time": 64718, "pitch": 35, "duration": 10, "velocity": 115}, {"time": 64718, "pitch": 82, "duration": 20, "velocity": 45}, {"time": 64798, "pitch": 42, "duration": 20, "velocity": 60}, {"time": 64798, "pitch": 82, "duration": 10, "velocity": 80}, {"time": 64959, "pitch": 35, "duration": 10, "velocity": 75}, {"time": 64959, "pitch": 82, "duration": 20, "velocity": 45}, {"time": 65040, "pitch": 35, "duration": 10, "velocity": 115}, {"time": 65040, "pitch": 46, "duration": 30, "velocity": 110}, {"time": 65040, "pitch": 82, "duration": 20, "velocity": 65}, {"time": 65202, "pitch": 82, "duration": 10, "velocity": 45}, {"time": 65283, "pitch": 42, "duration": 20, "velocity": 60}, {"time": 65283, "pitch": 82, "duration": 10, "velocity": 80}, {"time": 65432, "pitch": 56, "duration": 10, "velocity": 65}, {"time": 65442, "pitch": 82, "duration": 10, "velocity": 45}, {"time": 65522, "pitch": 42, "duration": 30, "velocity": 100}, {"time": 65522, "pitch": 56, "duration": 10, "velocity": 105}, {"time": 65522, "pitch": 82, "duration": 20, "velocity": 65}, {"time": 65681, "pitch": 35, "duration": 10, "velocity": 75}, {"time": 65681, "pitch": 82, "duration": 20, "velocity": 45}, {"time": 65761, "pitch": 35, "duration": 10, "velocity": 115}, {"time": 65761, "pitch": 42, "duration": 30, "velocity": 60}, {"time": 65761, "pitch": 82, "duration": 20, "velocity": 80}, {"time": 65921, "pitch": 82, "duration": 10, "velocity": 45}, {"time": 66000, "pitch": 42, "duration": 20, "velocity": 80}, {"time": 66000, "pitch": 82, "duration": 10, "velocity": 65}, {"time": 66150, "pitch": 85, "duration": 10, "velocity": 110}, {"time": 66160, "pitch": 82, "duration": 10, "velocity": 45}, {"time": 66240, "pitch": 42, "duration": 19, "velocity": 60}, {"time": 66240, "pitch": 82, "duration": 10, "velocity": 80}, {"time": 66399, "pitch": 82, "duration": 10, "velocity": 45}, {"time": 66479, "pitch": 42, "duration": 30, "velocity": 100}, {"time": 66479, "pitch": 70, "duration": 10, "velocity": 105}, {"time": 66479, "pitch": 82, "duration": 20, "velocity": 65}, {"time": 66638, "pitch": 35, "duration": 10, "velocity": 115}, {"time": 66638, "pitch": 82, "duration": 20, "velocity": 45}, {"time": 66718, "pitch": 42, "duration": 20, "velocity": 60}, {"time": 66718, "pitch": 82, "duration": 10, "velocity": 80}, {"time": 66880, "pitch": 82, "duration": 10, "velocity": 45}, {"time": 66961, "pitch": 35, "duration": 10, "velocity": 95}, {"time": 66961, "pitch": 42, "duration": 30, "velocity": 80}, {"time": 66961, "pitch": 82, "duration": 20, "velocity": 65}, {"time": 67122, "pitch": 82, "duration": 10, "velocity": 45}, {"time": 67203, "pitch": 42, "duration": 20, "velocity": 60}, {"time": 67203, "pitch": 82, "duration": 10, "velocity": 80}, {"time": 67363, "pitch": 35, "duration": 10, "velocity": 75}, {"time": 67363, "pitch": 82, "duration": 20, "velocity": 45}, {"time": 67442, "pitch": 42, "duration": 20, "velocity": 100}, {"time": 67442, "pitch": 82, "duration": 10, "velocity": 65}, {"time": 67602, "pitch": 75, "duration": 10, "velocity": 105}, {"time": 67602, "pitch": 82, "duration": 20, "velocity": 45}, {"time": 67682, "pitch": 35, "duration": 10, "velocity": 115}, {"time": 67682, "pitch": 42, "duration": 29, "velocity": 60}, {"time": 67682, "pitch": 82, "duration": 20, "velocity": 80}, {"time": 67841, "pitch": 82, "duration": 10, "velocity": 45}, {"time": 67921, "pitch": 42, "duration": 20, "velocity": 80}, {"time": 67921, "pitch": 82, "duration": 10, "velocity": 65}, {"time": 68080, "pitch": 82, "duration": 10, "velocity": 45}, {"time": 68160, "pitch": 42, "duration": 20, "velocity": 60}, {"time": 68160, "pitch": 82, "duration": 10, "velocity": 80}, {"time": 68309, "pitch": 37, "duration": 10, "velocity": 95}, {"time": 68319, "pitch": 82, "duration": 10, "velocity": 45}, {"time": 68399, "pitch": 42, "duration": 30, "velocity": 100}, {"time": 68399, "pitch": 70, "duration": 10, "velocity": 105}, {"time": 68399, "pitch": 82, "duration": 20, "velocity": 65}, {"time": 68559, "pitch": 35, "duration": 10, "velocity": 115}, {"time": 68559, "pitch": 82, "duration": 20, "velocity": 45}, {"time": 68638, "pitch": 42, "duration": 20, "velocity": 60}, {"time": 68638, "pitch": 82, "duration": 10, "velocity": 80}, {"time": 68798, "pitch": 35, "duration": 10, "velocity": 75}, {"time": 68798, "pitch": 82, "duration": 20, "velocity": 45}, {"time": 68878, "pitch": 35, "duration": 10, "velocity": 115}, {"time": 68878, "pitch": 46, "duration": 29, "velocity": 110}, {"time": 68878, "pitch": 82, "duration": 20, "velocity": 65}, {"time": 69037, "pitch": 82, "duration": 10, "velocity": 45}, {"time": 69117, "pitch": 42, "duration": 20, "velocity": 60}, {"time": 69117, "pitch": 82, "duration": 10, "velocity": 80}, {"time": 69268, "pitch": 41, "duration": 10, "velocity": 55}, {"time": 69268, "pitch": 56, "duration": 10, "velocity": 65}, {"time": 69278, "pitch": 42, "duration": 21, "velocity": 80}, {"time": 69278, "pitch": 82, "duration": 11, "velocity": 45}, {"time": 69359, "pitch": 35, "duration": 21, "velocity": 75}, {"time": 69359, "pitch": 42, "duration": 41, "velocity": 100}, {"time": 69359, "pitch": 56, "duration": 10, "velocity": 105}, {"time": 69359, "pitch": 82, "duration": 31, "velocity": 65}, {"time": 69521, "pitch": 82, "duration": 10, "velocity": 45}, {"time": 69602, "pitch": 35, "duration": 10, "velocity": 115}, {"time": 69602, "pitch": 42, "duration": 40, "velocity": 60}, {"time": 69602, "pitch": 54, "duration": 20, "velocity": 95}, {"time": 69602, "pitch": 82, "duration": 30, "velocity": 80}, {"time": 69761, "pitch": 54, "duration": 10, "velocity": 60}, {"time": 69761, "pitch": 82, "duration": 20, "velocity": 45}, {"time": 69841, "pitch": 42, "duration": 30, "velocity": 80}, {"time": 69841, "pitch": 54, "duration": 10, "velocity": 80}, {"time": 69841, "pitch": 82, "duration": 20, "velocity": 65}, {"time": 69991, "pitch": 85, "duration": 10, "velocity": 110}, {"time": 70001, "pitch": 54, "duration": 10, "velocity": 50}, {"time": 70001, "pitch": 82, "duration": 20, "velocity": 45}, {"time": 70080, "pitch": 42, "duration": 30, "velocity": 60}, {"time": 70080, "pitch": 54, "duration": 10, "velocity": 125}, {"time": 70080, "pitch": 82, "duration": 20, "velocity": 80}, {"time": 70240, "pitch": 54, "duration": 10, "velocity": 60}, {"time": 70240, "pitch": 82, "duration": 20, "velocity": 45}, {"time": 70320, "pitch": 42, "duration": 39, "velocity": 100}, {"time": 70320, "pitch": 54, "duration": 20, "velocity": 90}, {"time": 70320, "pitch": 70, "duration": 10, "velocity": 105}, {"time": 70320, "pitch": 82, "duration": 30, "velocity": 65}, {"time": 70479, "pitch": 35, "duration": 10, "velocity": 95}, {"time": 70479, "pitch": 54, "duration": 20, "velocity": 50}, {"time": 70479, "pitch": 82, "duration": 30, "velocity": 45}, {"time": 70559, "pitch": 35, "duration": 10, "velocity": 115}, {"time": 70559, "pitch": 42, "duration": 40, "velocity": 60}, {"time": 70559, "pitch": 54, "duration": 20, "velocity": 95}, {"time": 70559, "pitch": 82, "duration": 30, "velocity": 80}, {"time": 70718, "pitch": 54, "duration": 10, "velocity": 60}, {"time": 70718, "pitch": 82, "duration": 20, "velocity": 45}, {"time": 70798, "pitch": 35, "duration": 10, "velocity": 95}, {"time": 70798, "pitch": 42, "duration": 40, "velocity": 80}, {"time": 70798, "pitch": 54, "duration": 20, "velocity": 80}, {"time": 70798, "pitch": 82, "duration": 30, "velocity": 65}, {"time": 70957, "pitch": 54, "duration": 10, "velocity": 50}, {"time": 70957, "pitch": 82, "duration": 20, "velocity": 45}, {"time": 71037, "pitch": 42, "duration": 30, "velocity": 60}, {"time": 71037, "pitch": 54, "duration": 10, "velocity": 125}, {"time": 71037, "pitch": 82, "duration": 20, "velocity": 80}, {"time": 71199, "pitch": 54, "duration": 10, "velocity": 60}, {"time": 71199, "pitch": 82, "duration": 20, "velocity": 45}, {"time": 71280, "pitch": 42, "duration": 30, "velocity": 100}, {"time": 71280, "pitch": 54, "duration": 10, "velocity": 90}, {"time": 71280, "pitch": 82, "duration": 20, "velocity": 65}, {"time": 71442, "pitch": 54, "duration": 20, "velocity": 50}, {"time": 71442, "pitch": 75, "duration": 10, "velocity": 105}, {"time": 71442, "pitch": 82, "duration": 30, "velocity": 45}, {"time": 71522, "pitch": 35, "duration": 10, "velocity": 115}, {"time": 71522, "pitch": 42, "duration": 40, "velocity": 60}, {"time": 71522, "pitch": 54, "duration": 20, "velocity": 95}, {"time": 71522, "pitch": 82, "duration": 30, "velocity": 80}, {"time": 71682, "pitch": 54, "duration": 10, "velocity": 60}, {"time": 71682, "pitch": 82, "duration": 20, "velocity": 45}, {"time": 71762, "pitch": 42, "duration": 30, "velocity": 80}, {"time": 71762, "pitch": 54, "duration": 10, "velocity": 80}, {"time": 71762, "pitch": 82, "duration": 20, "velocity": 65}, {"time": 71921, "pitch": 54, "duration": 10, "velocity": 50}, {"time": 71921, "pitch": 82, "duration": 20, "velocity": 45}, {"time": 72001, "pitch": 42, "duration": 30, "velocity": 60}, {"time": 72001, "pitch": 54, "duration": 10, "velocity": 125}, {"time": 72001, "pitch": 82, "duration": 20, "velocity": 80}, {"time": 72150, "pitch": 37, "duration": 10, "velocity": 95}, {"time": 72160, "pitch": 54, "duration": 10, "velocity": 60}, {"time": 72160, "pitch": 82, "duration": 20, "velocity": 45}, {"time": 72240, "pitch": 42, "duration": 40, "velocity": 100}, {"time": 72240, "pitch": 54, "duration": 20, "velocity": 90}, {"time": 72240, "pitch": 70, "duration": 10, "velocity": 105}, {"time": 72240, "pitch": 82, "duration": 30, "velocity": 65}, {"time": 72399, "pitch": 35, "duration": 10, "velocity": 115}, {"time": 72399, "pitch": 54, "duration": 20, "velocity": 50}, {"time": 72399, "pitch": 82, "duration": 30, "velocity": 45}, {"time": 72479, "pitch": 42, "duration": 30, "velocity": 60}, {"time": 72479, "pitch": 54, "duration": 10, "velocity": 95}, {"time": 72479, "pitch": 82, "duration": 20, "velocity": 80}, {"time": 72639, "pitch": 35, "duration": 10, "velocity": 75}, {"time": 72639, "pitch": 54, "duration": 20, "velocity": 60}, {"time": 72639, "pitch": 82, "duration": 30, "velocity": 45}, {"time": 72718, "pitch": 35, "duration": 10, "velocity": 115}, {"time": 72718, "pitch": 46, "duration": 40, "velocity": 110}, {"time": 72718, "pitch": 54, "duration": 20, "velocity": 80}, {"time": 72718, "pitch": 82, "duration": 30, "velocity": 65}, {"time": 72878, "pitch": 54, "duration": 10, "velocity": 50}, {"time": 72878, "pitch": 82, "duration": 20, "velocity": 45}, {"time": 72958, "pitch": 42, "duration": 30, "velocity": 60}, {"time": 72958, "pitch": 54, "duration": 10, "velocity": 125}, {"time": 72958, "pitch": 82, "duration": 20, "velocity": 80}, {"time": 73109, "pitch": 56, "duration": 10, "velocity": 65}, {"time": 73119, "pitch": 54, "duration": 10, "velocity": 60}, {"time": 73119, "pitch": 82, "duration": 21, "velocity": 45}, {"time": 73200, "pitch": 42, "duration": 41, "velocity": 100}, {"time": 73200, "pitch": 54, "duration": 20, "velocity": 90}, {"time": 73200, "pitch": 56, "duration": 10, "velocity": 105}, {"time": 73200, "pitch": 82, "duration": 31, "velocity": 65}, {"time": 73362, "pitch": 35, "duration": 10, "velocity": 75}, {"time": 73362, "pitch": 54, "duration": 20, "velocity": 50}, {"time": 73362, "pitch": 82, "duration": 30, "velocity": 45}, {"time": 73443, "pitch": 35, "duration": 10, "velocity": 115}, {"time": 73443, "pitch": 42, "duration": 40, "velocity": 60}, {"time": 73443, "pitch": 54, "duration": 20, "velocity": 95}, {"time": 73443, "pitch": 82, "duration": 30, "velocity": 80}, {"time": 73602, "pitch": 54, "duration": 10, "velocity": 60}, {"time": 73602, "pitch": 82, "duration": 20, "velocity": 45}, {"time": 73682, "pitch": 42, "duration": 30, "velocity": 80}, {"time": 73682, "pitch": 54, "duration": 10, "velocity": 80}, {"time": 73682, "pitch": 82, "duration": 20, "velocity": 65}, {"time": 73832, "pitch": 85, "duration": 10, "velocity": 110}, {"time": 73842, "pitch": 54, "duration": 9, "velocity": 50}, {"time": 73842, "pitch": 82, "duration": 19, "velocity": 45}, {"time": 73921, "pitch": 42, "duration": 30, "velocity": 60}, {"time": 73921, "pitch": 54, "duration": 10, "velocity": 125}, {"time": 73921, "pitch": 82, "duration": 20, "velocity": 80}, {"time": 74081, "pitch": 54, "duration": 10, "velocity": 60}, {"time": 74081, "pitch": 82, "duration": 20, "velocity": 45}, {"time": 74160, "pitch": 42, "duration": 40, "velocity": 100}, {"time": 74160, "pitch": 54, "duration": 20, "velocity": 90}, {"time": 74160, "pitch": 70, "duration": 10, "velocity": 105}, {"time": 74160, "pitch": 82, "duration": 30, "velocity": 65}, {"time": 74320, "pitch": 35, "duration": 10, "velocity": 115}, {"time": 74320, "pitch": 54, "duration": 20, "velocity": 50}, {"time": 74320, "pitch": 82, "duration": 30, "velocity": 45}, {"time": 74400, "pitch": 42, "duration": 30, "velocity": 60}, {"time": 74400, "pitch": 54, "duration": 10, "velocity": 95}, {"time": 74400, "pitch": 82, "duration": 20, "velocity": 80}, {"time": 74559, "pitch": 54, "duration": 10, "velocity": 60}, {"time": 74559, "pitch": 82, "duration": 20, "velocity": 45}, {"time": 74639, "pitch": 35, "duration": 10, "velocity": 95}, {"time": 74639, "pitch": 42, "duration": 40, "velocity": 80}, {"time": 74639, "pitch": 54, "duration": 20, "velocity": 80}, {"time": 74639, "pitch": 82, "duration": 30, "velocity": 65}, {"time": 74798, "pitch": 54, "duration": 10, "velocity": 50}, {"time": 74798, "pitch": 82, "duration": 20, "velocity": 45}, {"time": 74878, "pitch": 42, "duration": 30, "velocity": 60}, {"time": 74878, "pitch": 54, "duration": 10, "velocity": 125}, {"time": 74878, "pitch": 82, "duration": 20, "velocity": 80}, {"time": 75040, "pitch": 35, "duration": 10, "velocity": 75}, {"time": 75040, "pitch": 54, "duration": 20, "velocity": 60}, {"time": 75040, "pitch": 82, "duration": 30, "velocity": 45}, {"time": 75121, "pitch": 42, "duration": 30, "velocity": 100}, {"time": 75121, "pitch": 54, "duration": 10, "velocity": 90}, {"time": 75121, "pitch": 82, "duration": 20, "velocity": 65}, {"time": 75282, "pitch": 54, "duration": 21, "velocity": 50}, {"time": 75282, "pitch": 75, "duration": 11, "velocity": 105}, {"time": 75282, "pitch": 82, "duration": 31, "velocity": 45}, {"time": 75363, "pitch": 35, "duration": 10, "velocity": 115}, {"time": 75363, "pitch": 42, "duration": 40, "velocity": 60}, {"time": 75363, "pitch": 54, "duration": 20, "velocity": 95}, {"time": 75363, "pitch": 82, "duration": 30, "velocity": 80}, {"time": 75523, "pitch": 54, "duration": 10, "velocity": 60}, {"time": 75523, "pitch": 82, "duration": 20, "velocity": 45}, {"time": 75602, "pitch": 42, "duration": 30, "velocity": 80}, {"time": 75602, "pitch": 54, "duration": 10, "velocity": 80}, {"time": 75602, "pitch": 82, "duration": 20, "velocity": 65}, {"time": 75762, "pitch": 54, "duration": 10, "velocity": 50}, {"time": 75762, "pitch": 82, "duration": 20, "velocity": 45}, {"time": 75842, "pitch": 42, "duration": 30, "velocity": 60}, {"time": 75842, "pitch": 54, "duration": 10, "velocity": 125}, {"time": 75842, "pitch": 82, "duration": 20, "velocity": 80}, {"time": 75991, "pitch": 37, "duration": 10, "velocity": 95}, {"time": 76001, "pitch": 54, "duration": 10, "velocity": 60}, {"time": 76001, "pitch": 82, "duration": 20, "velocity": 45}, {"time": 76081, "pitch": 42, "duration": 40, "velocity": 100}, {"time": 76081, "pitch": 54, "duration": 20, "velocity": 90}, {"time": 76081, "pitch": 70, "duration": 10, "velocity": 105}, {"time": 76081, "pitch": 82, "duration": 30, "velocity": 65}, {"time": 76240, "pitch": 35, "duration": 10, "velocity": 115}, {"time": 76240, "pitch": 54, "duration": 20, "velocity": 50}, {"time": 76240, "pitch": 82, "duration": 30, "velocity": 45}, {"time": 76320, "pitch": 42, "duration": 30, "velocity": 60}, {"time": 76320, "pitch": 54, "duration": 10, "velocity": 95}, {"time": 76320, "pitch": 82, "duration": 20, "velocity": 80}, {"time": 76480, "pitch": 35, "duration": 10, "velocity": 75}, {"time": 76480, "pitch": 54, "duration": 19, "velocity": 60}, {"time": 76480, "pitch": 82, "duration": 29, "velocity": 45}, {"time": 76559, "pitch": 35, "duration": 10, "velocity": 115}, {"time": 76559, "pitch": 46, "duration": 40, "velocity": 110}, {"time": 76559, "pitch": 54, "duration": 20, "velocity": 80}, {"time": 76559, "pitch": 82, "duration": 30, "velocity": 65}, {"time": 76719, "pitch": 54, "duration": 10, "velocity": 50}, {"time": 76719, "pitch": 82, "duration": 20, "velocity": 45}, {"time": 76798, "pitch": 42, "duration": 30, "velocity": 60}, {"time": 76798, "pitch": 54, "duration": 10, "velocity": 125}, {"time": 76798, "pitch": 82, "duration": 20, "velocity": 80}, {"time": 76948, "pitch": 41, "duration": 10, "velocity": 55}, {"time": 76948, "pitch": 56, "duration": 10, "velocity": 65}, {"time": 76958, "pitch": 54, "duration": 10, "velocity": 60}, {"time": 76958, "pitch": 82, "duration": 20, "velocity": 45}, {"time": 77038, "pitch": 35, "duration": 20, "velocity": 75}, {"time": 77038, "pitch": 42, "duration": 49, "velocity": 100}, {"time": 77038, "pitch": 54, "duration": 30, "velocity": 90}, {"time": 77038, "pitch": 56, "duration": 10, "velocity": 105}, {"time": 77038, "pitch": 82, "duration": 40, "velocity": 65}, {"time": 77197, "pitch": 54, "duration": 10, "velocity": 50}, {"time": 77197, "pitch": 82, "duration": 20, "velocity": 45}, {"time": 77277, "pitch": 35, "duration": 10, "velocity": 115}, {"time": 77277, "pitch": 42, "duration": 40, "velocity": 60}, {"time": 77277, "pitch": 54, "duration": 20, "velocity": 95}, {"time": 77277, "pitch": 82, "duration": 30, "velocity": 80}, {"time": 77439, "pitch": 54, "duration": 10, "velocity": 60}, {"time": 77439, "pitch": 82, "duration": 20, "velocity": 45}, {"time": 77519, "pitch": 42, "duration": 31, "velocity": 80}, {"time": 77519, "pitch": 54, "duration": 11, "velocity": 80}, {"time": 77519, "pitch": 82, "duration": 21, "velocity": 65}, {"time": 77671, "pitch": 85, "duration": 10, "velocity": 110}, {"time": 77681, "pitch": 54, "duration": 10, "velocity": 50}, {"time": 77681, "pitch": 82, "duration": 20, "velocity": 45}, {"time": 77762, "pitch": 42, "duration": 30, "velocity": 60}, {"time": 77762, "pitch": 54, "duration": 10, "velocity": 125}, {"time": 77762, "pitch": 82, "duration": 20, "velocity": 80}, {"time": 77922, "pitch": 54, "duration": 10, "velocity": 60}, {"time": 77922, "pitch": 82, "duration": 20, "velocity": 45}, {"time": 78001, "pitch": 42, "duration": 40, "velocity": 100}, {"time": 78001, "pitch": 54, "duration": 20, "velocity": 90}, {"time": 78001, "pitch": 70, "duration": 10, "velocity": 105}, {"time": 78001, "pitch": 82, "duration": 30, "velocity": 65}, {"time": 78161, "pitch": 35, "duration": 10, "velocity": 95}, {"time": 78161, "pitch": 54, "duration": 20, "velocity": 50}, {"time": 78161, "pitch": 82, "duration": 30, "velocity": 45}, {"time": 78241, "pitch": 35, "duration": 9, "velocity": 115}, {"time": 78241, "pitch": 42, "duration": 39, "velocity": 60}, {"time": 78241, "pitch": 54, "duration": 19, "velocity": 95}, {"time": 78241, "pitch": 82, "duration": 29, "velocity": 80}, {"time": 78400, "pitch": 54, "duration": 10, "velocity": 60}, {"time": 78400, "pitch": 82, "duration": 20, "velocity": 45}, {"time": 78480, "pitch": 35, "duration": 10, "velocity": 95}, {"time": 78480, "pitch": 42, "duration": 40, "velocity": 80}, {"time": 78480, "pitch": 54, "duration": 20, "velocity": 80}, {"time": 78480, "pitch": 82, "duration": 30, "velocity": 65}, {"time": 78639, "pitch": 54, "duration": 10, "velocity": 50}, {"time": 78639, "pitch": 82, "duration": 20, "velocity": 45}, {"time": 78719, "pitch": 42, "duration": 30, "velocity": 60}, {"time": 78719, "pitch": 54, "duration": 10, "velocity": 125}, {"time": 78719, "pitch": 82, "duration": 20, "velocity": 80}, {"time": 78878, "pitch": 54, "duration": 10, "velocity": 60}, {"time": 78878, "pitch": 82, "duration": 20, "velocity": 45}, {"time": 78958, "pitch": 42, "duration": 30, "velocity": 100}, {"time": 78958, "pitch": 54, "duration": 10, "velocity": 90}, {"time": 78958, "pitch": 82, "duration": 20, "velocity": 65}, {"time": 79118, "pitch": 54, "duration": 19, "velocity": 50}, {"time": 79118, "pitch": 75, "duration": 10, "velocity": 105}, {"time": 79118, "pitch": 82, "duration": 29, "velocity": 45}, {"time": 79197, "pitch": 35, "duration": 10, "velocity": 115}, {"time": 79197, "pitch": 42, "duration": 41, "velocity": 60}, {"time": 79197, "pitch": 54, "duration": 20, "velocity": 95}, {"time": 79197, "pitch": 82, "duration": 31, "velocity": 80}, {"time": 79359, "pitch": 54, "duration": 10, "velocity": 60}, {"time": 79359, "pitch": 82, "duration": 20, "velocity": 45}, {"time": 79440, "pitch": 42, "duration": 30, "velocity": 80}, {"time": 79440, "pitch": 54, "duration": 10, "velocity": 80}, {"time": 79440, "pitch": 82, "duration": 20, "velocity": 65}, {"time": 79602, "pitch": 54, "duration": 10, "velocity": 50}, {"time": 79602, "pitch": 82, "duration": 20, "velocity": 45}, {"time": 79683, "pitch": 42, "duration": 29, "velocity": 60}, {"time": 79683, "pitch": 54, "duration": 9, "velocity": 125}, {"time": 79683, "pitch": 82, "duration": 19, "velocity": 80}, {"time": 79832, "pitch": 37, "duration": 10, "velocity": 95}, {"time": 79842, "pitch": 54, "duration": 10, "velocity": 60}, {"time": 79842, "pitch": 82, "duration": 20, "velocity": 45}, {"time": 79922, "pitch": 42, "duration": 40, "velocity": 100}, {"time": 79922, "pitch": 54, "duration": 20, "velocity": 90}, {"time": 79922, "pitch": 70, "duration": 10, "velocity": 105}, {"time": 79922, "pitch": 82, "duration": 30, "velocity": 65}, {"time": 80081, "pitch": 35, "duration": 10, "velocity": 115}, {"time": 80081, "pitch": 54, "duration": 20, "velocity": 50}, {"time": 80081, "pitch": 82, "duration": 30, "velocity": 45}, {"time": 80161, "pitch": 42, "duration": 30, "velocity": 60}, {"time": 80161, "pitch": 54, "duration": 10, "velocity": 95}, {"time": 80161, "pitch": 82, "duration": 20, "velocity": 80}, {"time": 80320, "pitch": 35, "duration": 10, "velocity": 75}, {"time": 80320, "pitch": 54, "duration": 20, "velocity": 60}, {"time": 80320, "pitch": 82, "duration": 30, "velocity": 45}, {"time": 80400, "pitch": 35, "duration": 10, "velocity": 115}, {"time": 80400, "pitch": 46, "duration": 40, "velocity": 110}, {"time": 80400, "pitch": 54, "duration": 20, "velocity": 80}, {"time": 80400, "pitch": 82, "duration": 30, "velocity": 65}, {"time": 80560, "pitch": 54, "duration": 10, "velocity": 50}, {"time": 80560, "pitch": 82, "duration": 20, "velocity": 45}, {"time": 80639, "pitch": 42, "duration": 30, "velocity": 60}, {"time": 80639, "pitch": 54, "duration": 10, "velocity": 125}, {"time": 80639, "pitch": 82, "duration": 20, "velocity": 80}, {"time": 80789, "pitch": 56, "duration": 10, "velocity": 65}, {"time": 80799, "pitch": 54, "duration": 10, "velocity": 60}, {"time": 80799, "pitch": 82, "duration": 20, "velocity": 45}, {"time": 80879, "pitch": 42, "duration": 39, "velocity": 100}, {"time": 80879, "pitch": 54, "duration": 19, "velocity": 90}, {"time": 80879, "pitch": 56, "duration": 9, "velocity": 105}, {"time": 80879, "pitch": 82, "duration": 29, "velocity": 65}, {"time": 81038, "pitch": 35, "duration": 10, "velocity": 75}, {"time": 81038, "pitch": 54, "duration": 20, "velocity": 50}, {"time": 81038, "pitch": 82, "duration": 30, "velocity": 45}, {"time": 81118, "pitch": 35, "duration": 10, "velocity": 115}, {"time": 81118, "pitch": 42, "duration": 40, "velocity": 60}, {"time": 81118, "pitch": 54, "duration": 20, "velocity": 95}, {"time": 81118, "pitch": 82, "duration": 30, "velocity": 80}, {"time": 81279, "pitch": 54, "duration": 11, "velocity": 60}, {"time": 81279, "pitch": 82, "duration": 21, "velocity": 45}, {"time": 81360, "pitch": 42, "duration": 31, "velocity": 80}, {"time": 81360, "pitch": 54, "duration": 10, "velocity": 80}, {"time": 81360, "pitch": 82, "duration": 21, "velocity": 65}, {"time": 81512, "pitch": 85, "duration": 10, "velocity": 110}, {"time": 81522, "pitch": 54, "duration": 10, "velocity": 50}, {"time": 81522, "pitch": 82, "duration": 20, "velocity": 45}, {"time": 81603, "pitch": 42, "duration": 30, "velocity": 60}, {"time": 81603, "pitch": 54, "duration": 10, "velocity": 125}, {"time": 81603, "pitch": 82, "duration": 20, "velocity": 80}, {"time": 81762, "pitch": 54, "duration": 10, "velocity": 60}, {"time": 81762, "pitch": 82, "duration": 20, "velocity": 45}, {"time": 81842, "pitch": 42, "duration": 40, "velocity": 100}, {"time": 81842, "pitch": 54, "duration": 20, "velocity": 90}, {"time": 81842, "pitch": 70, "duration": 10, "velocity": 105}, {"time": 81842, "pitch": 82, "duration": 30, "velocity": 65}, {"time": 82002, "pitch": 35, "duration": 10, "velocity": 115}, {"time": 82002, "pitch": 54, "duration": 20, "velocity": 50}, {"time": 82002, "pitch": 82, "duration": 30, "velocity": 45}, {"time": 82081, "pitch": 42, "duration": 30, "velocity": 60}, {"time": 82081, "pitch": 54, "duration": 10, "velocity": 95}, {"time": 82081, "pitch": 82, "duration": 20, "velocity": 80}, {"time": 82241, "pitch": 54, "duration": 10, "velocity": 60}, {"time": 82241, "pitch": 82, "duration": 20, "velocity": 45}, {"time": 82321, "pitch": 35, "duration": 10, "velocity": 95}, {"time": 82321, "pitch": 42, "duration": 39, "velocity": 80}, {"time": 82321, "pitch": 54, "duration": 19, "velocity": 80}, {"time": 82321, "pitch": 82, "duration": 29, "velocity": 65}, {"time": 82480, "pitch": 54, "duration": 10, "velocity": 50}, {"time": 82480, "pitch": 82, "duration": 20, "velocity": 45}, {"time": 82560, "pitch": 42, "duration": 30, "velocity": 60}, {"time": 82560, "pitch": 54, "duration": 10, "velocity": 125}, {"time": 82560, "pitch": 82, "duration": 20, "velocity": 80}, {"time": 82719, "pitch": 35, "duration": 10, "velocity": 75}, {"time": 82719, "pitch": 54, "duration": 20, "velocity": 60}, {"time": 82719, "pitch": 82, "duration": 30, "velocity": 45}, {"time": 82799, "pitch": 42, "duration": 30, "velocity": 100}, {"time": 82799, "pitch": 54, "duration": 10, "velocity": 90}, {"time": 82799, "pitch": 82, "duration": 20, "velocity": 65}, {"time": 82958, "pitch": 54, "duration": 20, "velocity": 50}, {"time": 82958, "pitch": 75, "duration": 10, "velocity": 105}, {"time": 82958, "pitch": 82, "duration": 30, "velocity": 45}, {"time": 83038, "pitch": 35, "duration": 10, "velocity": 115}, {"time": 83038, "pitch": 42, "duration": 41, "velocity": 60}, {"time": 83038, "pitch": 54, "duration": 20, "velocity": 95}, {"time": 83038, "pitch": 82, "duration": 30, "velocity": 80}, {"time": 83200, "pitch": 54, "duration": 10, "velocity": 60}, {"time": 83200, "pitch": 82, "duration": 20, "velocity": 45}, {"time": 83281, "pitch": 42, "duration": 30, "velocity": 80}, {"time": 83281, "pitch": 54, "duration": 10, "velocity": 80}, {"time": 83281, "pitch": 82, "duration": 20, "velocity": 65}, {"time": 83443, "pitch": 54, "duration": 10, "velocity": 50}, {"time": 83443, "pitch": 82, "duration": 20, "velocity": 45}, {"time": 83523, "pitch": 42, "duration": 30, "velocity": 60}, {"time": 83523, "pitch": 54, "duration": 10, "velocity": 125}, {"time": 83523, "pitch": 82, "duration": 20, "velocity": 80}, {"time": 83673, "pitch": 37, "duration": 10, "velocity": 95}, {"time": 83683, "pitch": 54, "duration": 10, "velocity": 60}, {"time": 83683, "pitch": 82, "duration": 20, "velocity": 45}, {"time": 83763, "pitch": 42, "duration": 39, "velocity": 100}, {"time": 83763, "pitch": 54, "duration": 20, "velocity": 90}, {"time": 83763, "pitch": 70, "duration": 10, "velocity": 105}, {"time": 83763, "pitch": 82, "duration": 29, "velocity": 65}, {"time": 83922, "pitch": 35, "duration": 10, "velocity": 115}, {"time": 83922, "pitch": 54, "duration": 20, "velocity": 50}, {"time": 83922, "pitch": 82, "duration": 30, "velocity": 45}, {"time": 84002, "pitch": 42, "duration": 30, "velocity": 60}, {"time": 84002, "pitch": 54, "duration": 10, "velocity": 95}, {"time": 84002, "pitch": 82, "duration": 20, "velocity": 80}, {"time": 84161, "pitch": 35, "duration": 10, "velocity": 75}, {"time": 84161, "pitch": 54, "duration": 20, "velocity": 60}, {"time": 84161, "pitch": 82, "duration": 30, "velocity": 45}, {"time": 84241, "pitch": 35, "duration": 10, "velocity": 115}, {"time": 84241, "pitch": 46, "duration": 40, "velocity": 110}, {"time": 84241, "pitch": 54, "duration": 20, "velocity": 80}, {"time": 84241, "pitch": 82, "duration": 30, "velocity": 65}, {"time": 84400, "pitch": 54, "duration": 10, "velocity": 50}, {"time": 84400, "pitch": 82, "duration": 20, "velocity": 45}, {"time": 84480, "pitch": 42, "duration": 30, "velocity": 60}, {"time": 84480, "pitch": 54, "duration": 10, "velocity": 125}, {"time": 84480, "pitch": 82, "duration": 20, "velocity": 80}, {"time": 84630, "pitch": 41, "duration": 10, "velocity": 55}, {"time": 84630, "pitch": 56, "duration": 10, "velocity": 65}, {"time": 84640, "pitch": 42, "duration": 30, "velocity": 80}, {"time": 84640, "pitch": 54, "duration": 10, "velocity": 60}, {"time": 84640, "pitch": 82, "duration": 20, "velocity": 45}, {"time": 84719, "pitch": 35, "duration": 20, "velocity": 75}, {"time": 84719, "pitch": 42, "duration": 50, "velocity": 100}, {"time": 84719, "pitch": 54, "duration": 30, "velocity": 90}, {"time": 84719, "pitch": 56, "duration": 10, "velocity": 105}, {"time": 84719, "pitch": 82, "duration": 40, "velocity": 65}, {"time": 84879, "pitch": 54, "duration": 10, "velocity": 50}, {"time": 84879, "pitch": 82, "duration": 20, "velocity": 45}, {"time": 84959, "pitch": 35, "duration": 10, "velocity": 115}, {"time": 84959, "pitch": 42, "duration": 49, "velocity": 60}, {"time": 84959, "pitch": 54, "duration": 29, "velocity": 95}, {"time": 84959, "pitch": 61, "duration": 19, "velocity": 65}, {"time": 84959, "pitch": 82, "duration": 39, "velocity": 80}, {"time": 85118, "pitch": 54, "duration": 20, "velocity": 60}, {"time": 85118, "pitch": 61, "duration": 10, "velocity": 50}, {"time": 85118, "pitch": 82, "duration": 30, "velocity": 45}, {"time": 85198, "pitch": 42, "duration": 40, "velocity": 80}, {"time": 85198, "pitch": 54, "duration": 20, "velocity": 80}, {"time": 85198, "pitch": 60, "duration": 10, "velocity": 80}, {"time": 85198, "pitch": 82, "duration": 30, "velocity": 65}, {"time": 85347, "pitch": 85, "duration": 10, "velocity": 110}, {"time": 85357, "pitch": 54, "duration": 10, "velocity": 50}, {"time": 85357, "pitch": 82, "duration": 20, "velocity": 45}, {"time": 85437, "pitch": 42, "duration": 30, "velocity": 60}, {"time": 85437, "pitch": 54, "duration": 10, "velocity": 125}, {"time": 85437, "pitch": 82, "duration": 20, "velocity": 80}, {"time": 85599, "pitch": 54, "duration": 10, "velocity": 60}, {"time": 85599, "pitch": 82, "duration": 20, "velocity": 45}, {"time": 85680, "pitch": 42, "duration": 50, "velocity": 100}, {"time": 85680, "pitch": 54, "duration": 30, "velocity": 90}, {"time": 85680, "pitch": 61, "duration": 20, "velocity": 70}, {"time": 85680, "pitch": 70, "duration": 10, "velocity": 105}, {"time": 85680, "pitch": 82, "duration": 40, "velocity": 65}, {"time": 85841, "pitch": 35, "duration": 10, "velocity": 95}, {"time": 85841, "pitch": 54, "duration": 31, "velocity": 50}, {"time": 85841, "pitch": 61, "duration": 21, "velocity": 65}, {"time": 85841, "pitch": 82, "duration": 41, "velocity": 45}, {"time": 85922, "pitch": 35, "duration": 10, "velocity": 115}, {"time": 85922, "pitch": 42, "duration": 50, "velocity": 60}, {"time": 85922, "pitch": 54, "duration": 30, "velocity": 95}, {"time": 85922, "pitch": 61, "duration": 20, "velocity": 65}, {"time": 85922, "pitch": 82, "duration": 40, "velocity": 80}, {"time": 86082, "pitch": 54, "duration": 20, "velocity": 60}, {"time": 86082, "pitch": 61, "duration": 10, "velocity": 50}, {"time": 86082, "pitch": 82, "duration": 30, "velocity": 45}, {"time": 86161, "pitch": 35, "duration": 10, "velocity": 95}, {"time": 86161, "pitch": 42, "duration": 50, "velocity": 80}, {"time": 86161, "pitch": 54, "duration": 30, "velocity": 80}, {"time": 86161, "pitch": 60, "duration": 20, "velocity": 80}, {"time": 86161, "pitch": 82, "duration": 40, "velocity": 65}, {"time": 86321, "pitch": 54, "duration": 10, "velocity": 50}, {"time": 86321, "pitch": 82, "duration": 20, "velocity": 45}, {"time": 86401, "pitch": 42, "duration": 29, "velocity": 60}, {"time": 86401, "pitch": 54, "duration": 10, "velocity": 125}, {"time": 86401, "pitch": 82, "duration": 20, "velocity": 80}, {"time": 86560, "pitch": 54, "duration": 20, "velocity": 60}, {"time": 86560, "pitch": 60, "duration": 10, "velocity": 50}, {"time": 86560, "pitch": 82, "duration": 30, "velocity": 45}, {"time": 86640, "pitch": 42, "duration": 40, "velocity": 100}, {"time": 86640, "pitch": 54, "duration": 20, "velocity": 90}, {"time": 86640, "pitch": 61, "duration": 10, "velocity": 70}, {"time": 86640, "pitch": 82, "duration": 30, "velocity": 65}, {"time": 86799, "pitch": 54, "duration": 30, "velocity": 50}, {"time": 86799, "pitch": 61, "duration": 20, "velocity": 65}, {"time": 86799, "pitch": 75, "duration": 10, "velocity": 105}, {"time": 86799, "pitch": 82, "duration": 40, "velocity": 45}, {"time": 86879, "pitch": 35, "duration": 10, "velocity": 115}, {"time": 86879, "pitch": 42, "duration": 50, "velocity": 60}, {"time": 86879, "pitch": 54, "duration": 30, "velocity": 95}, {"time": 86879, "pitch": 61, "duration": 20, "velocity": 65}, {"time": 86879, "pitch": 82, "duration": 40, "velocity": 80}, {"time": 87038, "pitch": 54, "duration": 20, "velocity": 60}, {"time": 87038, "pitch": 61, "duration": 10, "velocity": 50}, {"time": 87038, "pitch": 82, "duration": 30, "velocity": 45}, {"time": 87118, "pitch": 42, "duration": 40, "velocity": 80}, {"time": 87118, "pitch": 54, "duration": 20, "velocity": 80}, {"time": 87118, "pitch": 60, "duration": 10, "velocity": 80}, {"time": 87118, "pitch": 82, "duration": 30, "velocity": 65}, {"time": 87278, "pitch": 54, "duration": 10, "velocity": 50}, {"time": 87278, "pitch": 82, "duration": 20, "velocity": 45}, {"time": 87357, "pitch": 42, "duration": 31, "velocity": 60}, {"time": 87357, "pitch": 54, "duration": 10, "velocity": 125}, {"time": 87357, "pitch": 82, "duration": 21, "velocity": 80}, {"time": 87509, "pitch": 37, "duration": 10, "velocity": 95}, {"time": 87519, "pitch": 54, "duration": 10, "velocity": 60}, {"time": 87519, "pitch": 82, "duration": 20, "velocity": 45}, {"time": 87600, "pitch": 42, "duration": 51, "velocity": 100}, {"time": 87600, "pitch": 54, "duration": 30, "velocity": 90}, {"time": 87600, "pitch": 61, "duration": 20, "velocity": 70}, {"time": 87600, "pitch": 70, "duration": 10, "velocity": 105}, {"time": 87600, "pitch": 82, "duration": 40, "velocity": 65}, {"time": 87762, "pitch": 35, "duration": 10, "velocity": 115}, {"time": 87762, "pitch": 54, "duration": 30, "velocity": 50}, {"time": 87762, "pitch": 61, "duration": 20, "velocity": 65}, {"time": 87762, "pitch": 82, "duration": 40, "velocity": 45}, {"time": 87843, "pitch": 42, "duration": 39, "velocity": 60}, {"time": 87843, "pitch": 54, "duration": 20, "velocity": 95}, {"time": 87843, "pitch": 61, "duration": 10, "velocity": 65}, {"time": 87843, "pitch": 82, "duration": 30, "velocity": 80}, {"time": 88002, "pitch": 35, "duration": 10, "velocity": 75}, {"time": 88002, "pitch": 54, "duration": 30, "velocity": 60}, {"time": 88002, "pitch": 61, "duration": 20, "velocity": 50}, {"time": 88002, "pitch": 82, "duration": 40, "velocity": 45}, {"time": 88082, "pitch": 35, "duration": 10, "velocity": 115}, {"time": 88082, "pitch": 46, "duration": 50, "velocity": 110}, {"time": 88082, "pitch": 54, "duration": 30, "velocity": 80}, {"time": 88082, "pitch": 60, "duration": 20, "velocity": 80}, {"time": 88082, "pitch": 82, "duration": 40, "velocity": 65}, {"time": 88241, "pitch": 54, "duration": 10, "velocity": 50}, {"time": 88241, "pitch": 82, "duration": 20, "velocity": 45}, {"time": 88321, "pitch": 42, "duration": 30, "velocity": 60}, {"time": 88321, "pitch": 54, "duration": 10, "velocity": 125}, {"time": 88321, "pitch": 82, "duration": 20, "velocity": 80}, {"time": 88471, "pitch": 56, "duration": 9, "velocity": 65}, {"time": 88480, "pitch": 54, "duration": 20, "velocity": 60}, {"time": 88480, "pitch": 60, "duration": 10, "velocity": 50}, {"time": 88480, "pitch": 82, "duration": 30, "velocity": 45}, {"time": 88560, "pitch": 42, "duration": 50, "velocity": 100}, {"time": 88560, "pitch": 54, "duration": 30, "velocity": 90}, {"time": 88560, "pitch": 56, "duration": 10, "velocity": 105}, {"time": 88560, "pitch": 61, "duration": 20, "velocity": 70}, {"time": 88560, "pitch": 82, "duration": 40, "velocity": 65}, {"time": 88720, "pitch": 35, "duration": 10, "velocity": 75}, {"time": 88720, "pitch": 54, "duration": 30, "velocity": 50}, {"time": 88720, "pitch": 61, "duration": 20, "velocity": 65}, {"time": 88720, "pitch": 82, "duration": 40, "velocity": 45}, {"time": 88799, "pitch": 35, "duration": 10, "velocity": 115}, {"time": 88799, "pitch": 42, "duration": 50, "velocity": 60}, {"time": 88799, "pitch": 54, "duration": 30, "velocity": 95}, {"time": 88799, "pitch": 61, "duration": 20, "velocity": 65}, {"time": 88799, "pitch": 82, "duration": 40, "velocity": 80}, {"time": 88959, "pitch": 54, "duration": 20, "velocity": 60}, {"time": 88959, "pitch": 61, "duration": 10, "velocity": 50}, {"time": 88959, "pitch": 82, "duration": 30, "velocity": 45}, {"time": 89039, "pitch": 42, "duration": 39, "velocity": 80}, {"time": 89039, "pitch": 54, "duration": 20, "velocity": 80}, {"time": 89039, "pitch": 60, "duration": 10, "velocity": 80}, {"time": 89039, "pitch": 82, "duration": 30, "velocity": 65}, {"time": 89188, "pitch": 85, "duration": 10, "velocity": 110}, {"time": 89198, "pitch": 54, "duration": 10, "velocity": 50}, {"time": 89198, "pitch": 82, "duration": 20, "velocity": 45}, {"time": 89278, "pitch": 42, "duration": 30, "velocity": 60}, {"time": 89278, "pitch": 54, "duration": 10, "velocity": 125}, {"time": 89278, "pitch": 82, "duration": 20, "velocity": 80}, {"time": 89440, "pitch": 54, "duration": 10, "velocity": 60}, {"time": 89440, "pitch": 82, "duration": 20, "velocity": 45}, {"time": 89520, "pitch": 42, "duration": 51, "velocity": 100}, {"time": 89520, "pitch": 54, "duration": 31, "velocity": 90}, {"time": 89520, "pitch": 61, "duration": 21, "velocity": 70}, {"time": 89520, "pitch": 70, "duration": 11, "velocity": 105}, {"time": 89520, "pitch": 82, "duration": 41, "velocity": 65}, {"time": 89682, "pitch": 35, "duration": 10, "velocity": 115}, {"time": 89682, "pitch": 54, "duration": 31, "velocity": 50}, {"time": 89682, "pitch": 61, "duration": 20, "velocity": 65}, {"time": 89682, "pitch": 82, "duration": 41, "velocity": 45}, {"time": 89763, "pitch": 42, "duration": 40, "velocity": 60}, {"time": 89763, "pitch": 54, "duration": 20, "velocity": 95}, {"time": 89763, "pitch": 61, "duration": 10, "velocity": 65}, {"time": 89763, "pitch": 82, "duration": 30, "velocity": 80}, {"time": 89923, "pitch": 54, "duration": 19, "velocity": 60}, {"time": 89923, "pitch": 61, "duration": 9, "velocity": 50}, {"time": 89923, "pitch": 82, "duration": 29, "velocity": 45}, {"time": 90002, "pitch": 35, "duration": 10, "velocity": 95}, {"time": 90002, "pitch": 42, "duration": 50, "velocity": 80}, {"time": 90002, "pitch": 54, "duration": 30, "velocity": 80}, {"time": 90002, "pitch": 60, "duration": 20, "velocity": 80}, {"time": 90002, "pitch": 82, "duration": 40, "velocity": 65}, {"time": 90162, "pitch": 54, "duration": 10, "velocity": 50}, {"time": 90162, "pitch": 82, "duration": 20, "velocity": 45}, {"time": 90241, "pitch": 42, "duration": 30, "velocity": 60}, {"time": 90241, "pitch": 54, "duration": 10, "velocity": 125}, {"time": 90241, "pitch": 82, "duration": 20, "velocity": 80}, {"time": 90401, "pitch": 35, "duration": 10, "velocity": 75}, {"time": 90401, "pitch": 54, "duration": 30, "velocity": 60}, {"time": 90401, "pitch": 60, "duration": 20, "velocity": 50}, {"time": 90401, "pitch": 82, "duration": 40, "velocity": 45}, {"time": 90481, "pitch": 42, "duration": 40, "velocity": 100}, {"time": 90481, "pitch": 54, "duration": 20, "velocity": 90}, {"time": 90481, "pitch": 61, "duration": 10, "velocity": 70}, {"time": 90481, "pitch": 82, "duration": 30, "velocity": 65}, {"time": 90640, "pitch": 35, "duration": 20, "velocity": 75}, {"time": 90640, "pitch": 54, "duration": 40, "velocity": 50}, {"time": 90640, "pitch": 61, "duration": 30, "velocity": 65}, {"time": 90640, "pitch": 75, "duration": 10, "velocity": 105}, {"time": 90640, "pitch": 82, "duration": 50, "velocity": 45}, {"time": 90720, "pitch": 35, "duration": 10, "velocity": 115}, {"time": 90720, "pitch": 42, "duration": 50, "velocity": 60}, {"time": 90720, "pitch": 54, "duration": 30, "velocity": 95}, {"time": 90720, "pitch": 61, "duration": 20, "velocity": 65}, {"time": 90720, "pitch": 82, "duration": 40, "velocity": 80}, {"time": 90879, "pitch": 54, "duration": 20, "velocity": 60}, {"time": 90879, "pitch": 61, "duration": 10, "velocity": 50}, {"time": 90879, "pitch": 82, "duration": 30, "velocity": 45}, {"time": 90959, "pitch": 42, "duration": 40, "velocity": 80}, {"time": 90959, "pitch": 54, "duration": 20, "velocity": 80}, {"time": 90959, "pitch": 60, "duration": 10, "velocity": 80}, {"time": 90959, "pitch": 82, "duration": 30, "velocity": 65}, {"time": 91118, "pitch": 35, "duration": 10, "velocity": 75}, {"time": 91118, "pitch": 54, "duration": 20, "velocity": 50}, {"time": 91118, "pitch": 82, "duration": 30, "velocity": 45}, {"time": 91198, "pitch": 35, "duration": 10, "velocity": 115}, {"time": 91198, "pitch": 42, "duration": 40, "velocity": 60}, {"time": 91198, "pitch": 54, "duration": 20, "velocity": 125}, {"time": 91198, "pitch": 82, "duration": 30, "velocity": 80}, {"time": 91348, "pitch": 37, "duration": 10, "velocity": 95}, {"time": 91358, "pitch": 54, "duration": 10, "velocity": 60}, {"time": 91358, "pitch": 82, "duration": 20, "velocity": 45}, {"time": 91437, "pitch": 42, "duration": 50, "velocity": 100}, {"time": 91437, "pitch": 54, "duration": 30, "velocity": 90}, {"time": 91437, "pitch": 61, "duration": 20, "velocity": 70}, {"time": 91437, "pitch": 70, "duration": 10, "velocity": 105}, {"time": 91437, "pitch": 82, "duration": 40, "velocity": 65}, {"time": 91597, "pitch": 35, "duration": 10, "velocity": 115}, {"time": 91597, "pitch": 54, "duration": 30, "velocity": 50}, {"time": 91597, "pitch": 61, "duration": 20, "velocity": 65}, {"time": 91597, "pitch": 82, "duration": 40, "velocity": 45}, {"time": 91677, "pitch": 42, "duration": 40, "velocity": 60}, {"time": 91677, "pitch": 54, "duration": 20, "velocity": 95}, {"time": 91677, "pitch": 61, "duration": 10, "velocity": 65}, {"time": 91677, "pitch": 82, "duration": 30, "velocity": 80}, {"time": 91838, "pitch": 54, "duration": 21, "velocity": 60}, {"time": 91838, "pitch": 61, "duration": 10, "velocity": 50}, {"time": 91838, "pitch": 82, "duration": 31, "velocity": 45}, {"time": 91919, "pitch": 46, "duration": 41, "velocity": 110}, {"time": 91919, "pitch": 54, "duration": 20, "velocity": 80}, {"time": 91919, "pitch": 60, "duration": 10, "velocity": 80}, {"time": 91919, "pitch": 82, "duration": 31, "velocity": 65}, {"time": 92081, "pitch": 54, "duration": 10, "velocity": 50}, {"time": 92081, "pitch": 82, "duration": 20, "velocity": 45}, {"time": 92162, "pitch": 42, "duration": 30, "velocity": 100}, {"time": 92162, "pitch": 54, "duration": 10, "velocity": 95}, {"time": 92162, "pitch": 82, "duration": 20, "velocity": 80}, {"time": 92321, "pitch": 35, "duration": 10, "velocity": 75}, {"time": 92401, "pitch": 35, "duration": 10, "velocity": 115}, {"time": 92640, "pitch": 35, "duration": 10, "velocity": 115}, {"time": 92640, "pitch": 42, "duration": 40, "velocity": 60}, {"time": 92640, "pitch": 61, "duration": 20, "velocity": 65}, {"time": 92640, "pitch": 82, "duration": 30, "velocity": 80}, {"time": 92800, "pitch": 61, "duration": 10, "velocity": 50}, {"time": 92800, "pitch": 82, "duration": 20, "velocity": 45}, {"time": 92879, "pitch": 42, "duration": 30, "velocity": 80}, {"time": 92879, "pitch": 60, "duration": 10, "velocity": 80}, {"time": 92879, "pitch": 82, "duration": 20, "velocity": 65}, {"time": 93029, "pitch": 85, "duration": 10, "velocity": 110}, {"time": 93039, "pitch": 82, "duration": 10, "velocity": 45}, {"time": 93119, "pitch": 42, "duration": 20, "velocity": 60}, {"time": 93119, "pitch": 82, "duration": 10, "velocity": 80}, {"time": 93278, "pitch": 82, "duration": 10, "velocity": 45}, {"time": 93358, "pitch": 42, "duration": 40, "velocity": 100}, {"time": 93358, "pitch": 61, "duration": 20, "velocity": 70}, {"time": 93358, "pitch": 70, "duration": 10, "velocity": 105}, {"time": 93358, "pitch": 82, "duration": 30, "velocity": 65}, {"time": 93517, "pitch": 35, "duration": 10, "velocity": 95}, {"time": 93517, "pitch": 61, "duration": 20, "velocity": 65}, {"time": 93517, "pitch": 82, "duration": 30, "velocity": 45}, {"time": 93597, "pitch": 35, "duration": 10, "velocity": 115}, {"time": 93597, "pitch": 42, "duration": 40, "velocity": 60}, {"time": 93597, "pitch": 61, "duration": 20, "velocity": 65}, {"time": 93597, "pitch": 82, "duration": 30, "velocity": 80}, {"time": 93759, "pitch": 61, "duration": 10, "velocity": 50}, {"time": 93759, "pitch": 82, "duration": 20, "velocity": 45}, {"time": 93840, "pitch": 35, "duration": 10, "velocity": 95}, {"time": 93840, "pitch": 42, "duration": 40, "velocity": 80}, {"time": 93840, "pitch": 60, "duration": 20, "velocity": 80}, {"time": 93840, "pitch": 82, "duration": 30, "velocity": 65}, {"time": 94001, "pitch": 82, "duration": 11, "velocity": 45}, {"time": 94082, "pitch": 42, "duration": 20, "velocity": 60}, {"time": 94082, "pitch": 82, "duration": 10, "velocity": 80}, {"time": 94242, "pitch": 60, "duration": 10, "velocity": 50}, {"time": 94242, "pitch": 82, "duration": 20, "velocity": 45}, {"time": 94321, "pitch": 42, "duration": 30, "velocity": 100}, {"time": 94321, "pitch": 61, "duration": 10, "velocity": 70}, {"time": 94321, "pitch": 82, "duration": 20, "velocity": 65}, {"time": 94481, "pitch": 61, "duration": 20, "velocity": 65}, {"time": 94481, "pitch": 75, "duration": 10, "velocity": 105}, {"time": 94481, "pitch": 82, "duration": 30, "velocity": 45}, {"time": 94561, "pitch": 35, "duration": 10, "velocity": 115}, {"time": 94561, "pitch": 42, "duration": 40, "velocity": 60}, {"time": 94561, "pitch": 61, "duration": 20, "velocity": 65}, {"time": 94561, "pitch": 82, "duration": 30, "velocity": 80}, {"time": 94720, "pitch": 61, "duration": 10, "velocity": 50}, {"time": 94720, "pitch": 82, "duration": 20, "velocity": 45}, {"time": 94800, "pitch": 42, "duration": 30, "velocity": 80}, {"time": 94800, "pitch": 60, "duration": 10, "velocity": 80}, {"time": 94800, "pitch": 82, "duration": 20, "velocity": 65}, {"time": 94959, "pitch": 82, "duration": 10, "velocity": 45}, {"time": 95039, "pitch": 42, "duration": 20, "velocity": 60}, {"time": 95039, "pitch": 82, "duration": 10, "velocity": 80}, {"time": 95189, "pitch": 37, "duration": 10, "velocity": 95}, {"time": 95199, "pitch": 82, "duration": 10, "velocity": 45}, {"time": 95278, "pitch": 42, "duration": 40, "velocity": 100}, {"time": 95278, "pitch": 61, "duration": 20, "velocity": 70}, {"time": 95278, "pitch": 70, "duration": 10, "velocity": 105}, {"time": 95278, "pitch": 82, "duration": 30, "velocity": 65}, {"time": 95438, "pitch": 35, "duration": 10, "velocity": 115}, {"time": 95438, "pitch": 61, "duration": 20, "velocity": 65}, {"time": 95438, "pitch": 82, "duration": 30, "velocity": 45}, {"time": 95517, "pitch": 42, "duration": 31, "velocity": 60}, {"time": 95517, "pitch": 61, "duration": 11, "velocity": 65}, {"time": 95517, "pitch": 82, "duration": 21, "velocity": 80}, {"time": 95679, "pitch": 35, "duration": 10, "velocity": 75}, {"time": 95679, "pitch": 61, "duration": 20, "velocity": 50}, {"time": 95679, "pitch": 82, "duration": 31, "velocity": 45}, {"time": 95760, "pitch": 35, "duration": 10, "velocity": 115}, {"time": 95760, "pitch": 46, "duration": 41, "velocity": 110}, {"time": 95760, "pitch": 60, "duration": 20, "velocity": 80}, {"time": 95760, "pitch": 82, "duration": 30, "velocity": 65}, {"time": 95922, "pitch": 82, "duration": 10, "velocity": 45}, {"time": 96003, "pitch": 42, "duration": 20, "velocity": 60}, {"time": 96003, "pitch": 82, "duration": 10, "velocity": 80}, {"time": 96152, "pitch": 56, "duration": 10, "velocity": 65}, {"time": 96162, "pitch": 60, "duration": 10, "velocity": 50}, {"time": 96162, "pitch": 82, "duration": 20, "velocity": 45}, {"time": 96242, "pitch": 42, "duration": 40, "velocity": 100}, {"time": 96242, "pitch": 56, "duration": 10, "velocity": 105}, {"time": 96242, "pitch": 61, "duration": 20, "velocity": 70}, {"time": 96242, "pitch": 82, "duration": 30, "velocity": 65}, {"time": 96401, "pitch": 35, "duration": 10, "velocity": 75}, {"time": 96401, "pitch": 61, "duration": 20, "velocity": 65}, {"time": 96401, "pitch": 82, "duration": 30, "velocity": 45}, {"time": 96481, "pitch": 35, "duration": 10, "velocity": 115}, {"time": 96481, "pitch": 42, "duration": 40, "velocity": 60}, {"time": 96481, "pitch": 61, "duration": 20, "velocity": 65}, {"time": 96481, "pitch": 82, "duration": 30, "velocity": 80}, {"time": 96641, "pitch": 61, "duration": 10, "velocity": 50}, {"time": 96641, "pitch": 82, "duration": 20, "velocity": 45}, {"time": 96720, "pitch": 42, "duration": 30, "velocity": 80}, {"time": 96720, "pitch": 60, "duration": 10, "velocity": 80}, {"time": 96720, "pitch": 82, "duration": 20, "velocity": 65}, {"time": 96870, "pitch": 85, "duration": 10, "velocity": 110}, {"time": 96880, "pitch": 82, "duration": 10, "velocity": 45}, {"time": 96960, "pitch": 42, "duration": 19, "velocity": 60}, {"time": 96960, "pitch": 82, "duration": 9, "velocity": 80}, {"time": 97119, "pitch": 82, "duration": 10, "velocity": 45}, {"time": 97199, "pitch": 42, "duration": 40, "velocity": 100}, {"time": 97199, "pitch": 61, "duration": 20, "velocity": 70}, {"time": 97199, "pitch": 70, "duration": 10, "velocity": 105}, {"time": 97199, "pitch": 82, "duration": 30, "velocity": 65}, {"time": 97358, "pitch": 35, "duration": 10, "velocity": 115}, {"time": 97358, "pitch": 61, "duration": 20, "velocity": 65}, {"time": 97358, "pitch": 82, "duration": 30, "velocity": 45}, {"time": 97438, "pitch": 42, "duration": 30, "velocity": 60}, {"time": 97438, "pitch": 61, "duration": 10, "velocity": 65}, {"time": 97438, "pitch": 82, "duration": 20, "velocity": 80}, {"time": 97600, "pitch": 61, "duration": 10, "velocity": 50}, {"time": 97600, "pitch": 82, "duration": 20, "velocity": 45}, {"time": 97681, "pitch": 35, "duration": 10, "velocity": 95}, {"time": 97681, "pitch": 42, "duration": 40, "velocity": 80}, {"time": 97681, "pitch": 60, "duration": 20, "velocity": 80}, {"time": 97681, "pitch": 82, "duration": 30, "velocity": 65}, {"time": 97842, "pitch": 82, "duration": 10, "velocity": 45}, {"time": 97923, "pitch": 42, "duration": 20, "velocity": 60}, {"time": 97923, "pitch": 82, "duration": 10, "velocity": 80}, {"time": 98083, "pitch": 35, "duration": 10, "velocity": 75}, {"time": 98083, "pitch": 60, "duration": 20, "velocity": 50}, {"time": 98083, "pitch": 82, "duration": 30, "velocity": 45}, {"time": 98162, "pitch": 42, "duration": 30, "velocity": 100}, {"time": 98162, "pitch": 61, "duration": 10, "velocity": 70}, {"time": 98162, "pitch": 82, "duration": 20, "velocity": 65}, {"time": 98322, "pitch": 61, "duration": 20, "velocity": 65}, {"time": 98322, "pitch": 75, "duration": 10, "velocity": 105}, {"time": 98322, "pitch": 82, "duration": 30, "velocity": 45}, {"time": 98402, "pitch": 35, "duration": 10, "velocity": 115}, {"time": 98402, "pitch": 42, "duration": 39, "velocity": 60}, {"time": 98402, "pitch": 61, "duration": 19, "velocity": 65}, {"time": 98402, "pitch": 82, "duration": 29, "velocity": 80}, {"time": 98561, "pitch": 61, "duration": 10, "velocity": 50}, {"time": 98561, "pitch": 82, "duration": 20, "velocity": 45}, {"time": 98641, "pitch": 42, "duration": 30, "velocity": 80}, {"time": 98641, "pitch": 60, "duration": 10, "velocity": 80}, {"time": 98641, "pitch": 82, "duration": 20, "velocity": 65}, {"time": 98800, "pitch": 82, "duration": 10, "velocity": 45}, {"time": 98880, "pitch": 42, "duration": 20, "velocity": 60}, {"time": 98880, "pitch": 82, "duration": 10, "velocity": 80}, {"time": 99029, "pitch": 37, "duration": 10, "velocity": 95}, {"time": 99039, "pitch": 82, "duration": 10, "velocity": 45}, {"time": 99119, "pitch": 42, "duration": 40, "velocity": 100}, {"time": 99119, "pitch": 61, "duration": 20, "velocity": 70}, {"time": 99119, "pitch": 70, "duration": 10, "velocity": 105}, {"time": 99119, "pitch": 82, "duration": 30, "velocity": 65}, {"time": 99279, "pitch": 35, "duration": 10, "velocity": 115}, {"time": 99279, "pitch": 61, "duration": 20, "velocity": 65}, {"time": 99279, "pitch": 82, "duration": 29, "velocity": 45}, {"time": 99358, "pitch": 42, "duration": 30, "velocity": 60}, {"time": 99358, "pitch": 61, "duration": 10, "velocity": 65}, {"time": 99358, "pitch": 82, "duration": 20, "velocity": 80}, {"time": 99518, "pitch": 35, "duration": 10, "velocity": 75}, {"time": 99518, "pitch": 61, "duration": 20, "velocity": 50}, {"time": 99518, "pitch": 82, "duration": 30, "velocity": 45}, {"time": 99598, "pitch": 35, "duration": 9, "velocity": 115}, {"time": 99598, "pitch": 46, "duration": 39, "velocity": 110}, {"time": 99598, "pitch": 60, "duration": 19, "velocity": 80}, {"time": 99598, "pitch": 82, "duration": 29, "velocity": 65}, {"time": 99757, "pitch": 82, "duration": 10, "velocity": 45}, {"time": 99837, "pitch": 42, "duration": 20, "velocity": 60}, {"time": 99837, "pitch": 82, "duration": 10, "velocity": 80}, {"time": 99988, "pitch": 41, "duration": 10, "velocity": 55}, {"time": 99988, "pitch": 56, "duration": 10, "velocity": 65}, {"time": 99998, "pitch": 60, "duration": 11, "velocity": 50}, {"time": 99998, "pitch": 82, "duration": 21, "velocity": 45}, {"time": 100079, "pitch": 35, "duration": 21, "velocity": 75}, {"time": 100079, "pitch": 42, "duration": 51, "velocity": 100}, {"time": 100079, "pitch": 56, "duration": 10, "velocity": 105}, {"time": 100079, "pitch": 61, "duration": 31, "velocity": 70}, {"time": 100079, "pitch": 82, "duration": 41, "velocity": 65}, {"time": 100241, "pitch": 61, "duration": 10, "velocity": 65}, {"time": 100241, "pitch": 82, "duration": 20, "velocity": 45}, {"time": 100322, "pitch": 35, "duration": 10, "velocity": 115}, {"time": 100322, "pitch": 42, "duration": 40, "velocity": 60}, {"time": 100322, "pitch": 61, "duration": 20, "velocity": 65}, {"time": 100322, "pitch": 82, "duration": 30, "velocity": 80}, {"time": 100481, "pitch": 61, "duration": 10, "velocity": 50}, {"time": 100481, "pitch": 82, "duration": 20, "velocity": 45}, {"time": 100561, "pitch": 42, "duration": 30, "velocity": 80}, {"time": 100561, "pitch": 60, "duration": 10, "velocity": 80}, {"time": 100561, "pitch": 82, "duration": 20, "velocity": 65}, {"time": 100711, "pitch": 85, "duration": 10, "velocity": 110}, {"time": 100721, "pitch": 82, "duration": 10, "velocity": 45}, {"time": 100800, "pitch": 42, "duration": 20, "velocity": 60}, {"time": 100800, "pitch": 82, "duration": 10, "velocity": 80}, {"time": 100960, "pitch": 82, "duration": 10, "velocity": 45}, {"time": 101040, "pitch": 42, "duration": 39, "velocity": 100}, {"time": 101040, "pitch": 61, "duration": 19, "velocity": 70}, {"time": 101040, "pitch": 70, "duration": 10, "velocity": 105}, {"time": 101040, "pitch": 82, "duration": 29, "velocity": 65}, {"time": 101199, "pitch": 35, "duration": 10, "velocity": 95}, {"time": 101199, "pitch": 61, "duration": 20, "velocity": 65}, {"time": 101199, "pitch": 82, "duration": 30, "velocity": 45}, {"time": 101279, "pitch": 35, "duration": 10, "velocity": 115}, {"time": 101279, "pitch": 42, "duration": 40, "velocity": 60}, {"time": 101279, "pitch": 61, "duration": 20, "velocity": 65}, {"time": 101279, "pitch": 82, "duration": 30, "velocity": 80}, {"time": 101438, "pitch": 61, "duration": 10, "velocity": 50}, {"time": 101438, "pitch": 82, "duration": 20, "velocity": 45}, {"time": 101518, "pitch": 35, "duration": 10, "velocity": 95}, {"time": 101518, "pitch": 42, "duration": 40, "velocity": 80}, {"time": 101518, "pitch": 60, "duration": 20, "velocity": 80}, {"time": 101518, "pitch": 82, "duration": 30, "velocity": 65}, {"time": 101677, "pitch": 82, "duration": 10, "velocity": 45}, {"time": 101757, "pitch": 42, "duration": 20, "velocity": 60}, {"time": 101757, "pitch": 82, "duration": 10, "velocity": 80}, {"time": 101919, "pitch": 60, "duration": 10, "velocity": 50}, {"time": 101919, "pitch": 82, "duration": 20, "velocity": 45}, {"time": 102000, "pitch": 42, "duration": 30, "velocity": 100}, {"time": 102000, "pitch": 61, "duration": 10, "velocity": 70}, {"time": 102000, "pitch": 82, "duration": 20, "velocity": 65}, {"time": 102162, "pitch": 61, "duration": 20, "velocity": 65}, {"time": 102162, "pitch": 75, "duration": 10, "velocity": 105}, {"time": 102162, "pitch": 82, "duration": 30, "velocity": 45}, {"time": 102242, "pitch": 35, "duration": 10, "velocity": 115}, {"time": 102242, "pitch": 42, "duration": 40, "velocity": 60}, {"time": 102242, "pitch": 61, "duration": 20, "velocity": 65}, {"time": 102242, "pitch": 82, "duration": 30, "velocity": 80}, {"time": 102402, "pitch": 61, "duration": 10, "velocity": 50}, {"time": 102402, "pitch": 82, "duration": 20, "velocity": 45}, {"time": 102482, "pitch": 42, "duration": 29, "velocity": 80}, {"time": 102482, "pitch": 60, "duration": 10, "velocity": 80}, {"time": 102482, "pitch": 82, "duration": 20, "velocity": 65}, {"time": 102641, "pitch": 82, "duration": 10, "velocity": 45}, {"time": 102721, "pitch": 42, "duration": 20, "velocity": 60}, {"time": 102721, "pitch": 82, "duration": 10, "velocity": 80}, {"time": 102870, "pitch": 37, "duration": 10, "velocity": 95}, {"time": 102880, "pitch": 82, "duration": 10, "velocity": 45}, {"time": 102960, "pitch": 42, "duration": 40, "velocity": 100}, {"time": 102960, "pitch": 61, "duration": 20, "velocity": 70}, {"time": 102960, "pitch": 70, "duration": 10, "velocity": 105}, {"time": 102960, "pitch": 82, "duration": 30, "velocity": 65}, {"time": 103119, "pitch": 35, "duration": 10, "velocity": 115}, {"time": 103119, "pitch": 61, "duration": 20, "velocity": 65}, {"time": 103119, "pitch": 82, "duration": 30, "velocity": 45}, {"time": 103199, "pitch": 42, "duration": 30, "velocity": 60}, {"time": 103199, "pitch": 61, "duration": 10, "velocity": 65}, {"time": 103199, "pitch": 82, "duration": 20, "velocity": 80}, {"time": 103359, "pitch": 35, "duration": 10, "velocity": 75}, {"time": 103359, "pitch": 61, "duration": 20, "velocity": 50}, {"time": 103359, "pitch": 82, "duration": 30, "velocity": 45}, {"time": 103438, "pitch": 35, "duration": 10, "velocity": 115}, {"time": 103438, "pitch": 46, "duration": 40, "velocity": 110}, {"time": 103438, "pitch": 60, "duration": 20, "velocity": 80}, {"time": 103438, "pitch": 82, "duration": 30, "velocity": 65}, {"time": 103598, "pitch": 82, "duration": 10, "velocity": 45}, {"time": 103678, "pitch": 42, "duration": 20, "velocity": 60}, {"time": 103678, "pitch": 82, "duration": 10, "velocity": 80}, {"time": 103829, "pitch": 56, "duration": 10, "velocity": 65}, {"time": 103839, "pitch": 60, "duration": 10, "velocity": 50}, {"time": 103839, "pitch": 82, "duration": 21, "velocity": 45}, {"time": 103920, "pitch": 42, "duration": 41, "velocity": 100}, {"time": 103920, "pitch": 56, "duration": 10, "velocity": 105}, {"time": 103920, "pitch": 61, "duration": 20, "velocity": 70}, {"time": 103920, "pitch": 82, "duration": 31, "velocity": 65}, {"time": 104082, "pitch": 35, "duration": 10, "velocity": 75}, {"time": 104082, "pitch": 61, "duration": 20, "velocity": 65}, {"time": 104082, "pitch": 82, "duration": 30, "velocity": 45}, {"time": 104163, "pitch": 35, "duration": 10, "velocity": 115}, {"time": 104163, "pitch": 42, "duration": 40, "velocity": 60}, {"time": 104163, "pitch": 61, "duration": 20, "velocity": 65}, {"time": 104163, "pitch": 82, "duration": 30, "velocity": 80}, {"time": 104322, "pitch": 61, "duration": 10, "velocity": 50}, {"time": 104322, "pitch": 82, "duration": 20, "velocity": 45}, {"time": 104402, "pitch": 42, "duration": 30, "velocity": 80}, {"time": 104402, "pitch": 60, "duration": 10, "velocity": 80}, {"time": 104402, "pitch": 82, "duration": 20, "velocity": 65}, {"time": 104552, "pitch": 85, "duration": 9, "velocity": 110}, {"time": 104561, "pitch": 82, "duration": 10, "velocity": 45}, {"time": 104641, "pitch": 42, "duration": 20, "velocity": 60}, {"time": 104641, "pitch": 82, "duration": 10, "velocity": 80}, {"time": 104801, "pitch": 82, "duration": 10, "velocity": 45}, {"time": 104880, "pitch": 42, "duration": 40, "velocity": 100}, {"time": 104880, "pitch": 61, "duration": 20, "velocity": 70}, {"time": 104880, "pitch": 70, "duration": 10, "velocity": 105}, {"time": 104880, "pitch": 82, "duration": 30, "velocity": 65}, {"time": 105040, "pitch": 35, "duration": 10, "velocity": 115}, {"time": 105040, "pitch": 61, "duration": 20, "velocity": 65}, {"time": 105040, "pitch": 82, "duration": 30, "velocity": 45}, {"time": 105120, "pitch": 42, "duration": 29, "velocity": 60}, {"time": 105120, "pitch": 61, "duration": 10, "velocity": 65}, {"time": 105120, "pitch": 82, "duration": 20, "velocity": 80}, {"time": 105279, "pitch": 61, "duration": 10, "velocity": 50}, {"time": 105279, "pitch": 82, "duration": 20, "velocity": 45}, {"time": 105359, "pitch": 35, "duration": 10, "velocity": 95}, {"time": 105359, "pitch": 42, "duration": 40, "velocity": 80}, {"time": 105359, "pitch": 60, "duration": 20, "velocity": 80}, {"time": 105359, "pitch": 82, "duration": 30, "velocity": 65}, {"time": 105518, "pitch": 82, "duration": 10, "velocity": 45}, {"time": 105598, "pitch": 42, "duration": 20, "velocity": 60}, {"time": 105598, "pitch": 82, "duration": 10, "velocity": 80}, {"time": 105760, "pitch": 35, "duration": 10, "velocity": 75}, {"time": 105760, "pitch": 60, "duration": 20, "velocity": 50}, {"time": 105760, "pitch": 82, "duration": 30, "velocity": 45}, {"time": 105841, "pitch": 42, "duration": 30, "velocity": 100}, {"time": 105841, "pitch": 61, "duration": 10, "velocity": 70}, {"time": 105841, "pitch": 82, "duration": 20, "velocity": 65}, {"time": 106002, "pitch": 61, "duration": 21, "velocity": 65}, {"time": 106002, "pitch": 75, "duration": 11, "velocity": 105}, {"time": 106002, "pitch": 82, "duration": 31, "velocity": 45}, {"time": 106083, "pitch": 35, "duration": 10, "velocity": 115}, {"time": 106083, "pitch": 42, "duration": 40, "velocity": 60}, {"time": 106083, "pitch": 61, "duration": 20, "velocity": 65}, {"time": 106083, "pitch": 82, "duration": 30, "velocity": 80}, {"time": 106243, "pitch": 61, "duration": 10, "velocity": 50}, {"time": 106243, "pitch": 82, "duration": 20, "velocity": 45}, {"time": 106322, "pitch": 42, "duration": 30, "velocity": 80}, {"time": 106322, "pitch": 60, "duration": 10, "velocity": 80}, {"time": 106322, "pitch": 82, "duration": 20, "velocity": 65}, {"time": 106482, "pitch": 82, "duration": 10, "velocity": 45}, {"time": 106562, "pitch": 42, "duration": 20, "velocity": 60}, {"time": 106562, "pitch": 82, "duration": 10, "velocity": 80}, {"time": 106711, "pitch": 37, "duration": 10, "velocity": 95}, {"time": 106721, "pitch": 82, "duration": 10, "velocity": 45}, {"time": 106801, "pitch": 42, "duration": 40, "velocity": 100}, {"time": 106801, "pitch": 61, "duration": 20, "velocity": 70}, {"time": 106801, "pitch": 70, "duration": 10, "velocity": 105}, {"time": 106801, "pitch": 82, "duration": 30, "velocity": 65}, {"time": 106960, "pitch": 35, "duration": 10, "velocity": 115}, {"time": 106960, "pitch": 61, "duration": 20, "velocity": 65}, {"time": 106960, "pitch": 82, "duration": 30, "velocity": 45}, {"time": 107040, "pitch": 42, "duration": 30, "velocity": 60}, {"time": 107040, "pitch": 61, "duration": 10, "velocity": 65}, {"time": 107040, "pitch": 82, "duration": 20, "velocity": 80}, {"time": 107199, "pitch": 35, "duration": 10, "velocity": 75}, {"time": 107199, "pitch": 61, "duration": 20, "velocity": 50}, {"time": 107199, "pitch": 82, "duration": 30, "velocity": 45}, {"time": 107279, "pitch": 35, "duration": 10, "velocity": 115}, {"time": 107279, "pitch": 46, "duration": 40, "velocity": 110}, {"time": 107279, "pitch": 60, "duration": 20, "velocity": 80}, {"time": 107279, "pitch": 82, "duration": 30, "velocity": 65}, {"time": 107439, "pitch": 82, "duration": 10, "velocity": 45}, {"time": 107518, "pitch": 42, "duration": 20, "velocity": 60}, {"time": 107518, "pitch": 82, "duration": 10, "velocity": 80}, {"time": 107668, "pitch": 41, "duration": 10, "velocity": 55}, {"time": 107668, "pitch": 56, "duration": 10, "velocity": 65}, {"time": 107678, "pitch": 42, "duration": 30, "velocity": 80}, {"time": 107678, "pitch": 60, "duration": 10, "velocity": 50}, {"time": 107678, "pitch": 82, "duration": 20, "velocity": 45}, {"time": 107758, "pitch": 35, "duration": 20, "velocity": 75}, {"time": 107758, "pitch": 42, "duration": 49, "velocity": 100}, {"time": 107758, "pitch": 56, "duration": 10, "velocity": 105}, {"time": 107758, "pitch": 61, "duration": 30, "velocity": 70}, {"time": 107758, "pitch": 82, "duration": 39, "velocity": 65}, {"time": 107917, "pitch": 61, "duration": 10, "velocity": 65}, {"time": 107917, "pitch": 82, "duration": 20, "velocity": 45}, {"time": 107997, "pitch": 35, "duration": 10, "velocity": 115}, {"time": 107997, "pitch": 42, "duration": 40, "velocity": 60}, {"time": 107997, "pitch": 61, "duration": 20, "velocity": 65}, {"time": 107997, "pitch": 82, "duration": 30, "velocity": 80}, {"time": 108159, "pitch": 61, "duration": 10, "velocity": 50}, {"time": 108159, "pitch": 82, "duration": 20, "velocity": 45}, {"time": 108239, "pitch": 42, "duration": 31, "velocity": 80}, {"time": 108239, "pitch": 60, "duration": 11, "velocity": 80}, {"time": 108239, "pitch": 82, "duration": 21, "velocity": 65}, {"time": 108391, "pitch": 85, "duration": 10, "velocity": 110}, {"time": 108401, "pitch": 82, "duration": 10, "velocity": 45}, {"time": 108482, "pitch": 42, "duration": 20, "velocity": 60}, {"time": 108482, "pitch": 82, "duration": 10, "velocity": 80}, {"time": 108642, "pitch": 82, "duration": 9, "velocity": 45}, {"time": 108721, "pitch": 42, "duration": 40, "velocity": 100}, {"time": 108721, "pitch": 61, "duration": 20, "velocity": 70}, {"time": 108721, "pitch": 70, "duration": 10, "velocity": 105}, {"time": 108721, "pitch": 82, "duration": 30, "velocity": 65}, {"time": 108881, "pitch": 35, "duration": 10, "velocity": 95}, {"time": 108881, "pitch": 61, "duration": 20, "velocity": 65}, {"time": 108881, "pitch": 82, "duration": 30, "velocity": 45}, {"time": 108960, "pitch": 35, "duration": 10, "velocity": 115}, {"time": 108960, "pitch": 42, "duration": 40, "velocity": 60}, {"time": 108960, "pitch": 61, "duration": 20, "velocity": 65}, {"time": 108960, "pitch": 82, "duration": 30, "velocity": 80}, {"time": 109120, "pitch": 61, "duration": 10, "velocity": 50}, {"time": 109120, "pitch": 82, "duration": 20, "velocity": 45}, {"time": 109200, "pitch": 35, "duration": 10, "velocity": 95}, {"time": 109200, "pitch": 42, "duration": 40, "velocity": 80}, {"time": 109200, "pitch": 60, "duration": 20, "velocity": 80}, {"time": 109200, "pitch": 82, "duration": 30, "velocity": 65}, {"time": 109359, "pitch": 82, "duration": 10, "velocity": 45}, {"time": 109439, "pitch": 42, "duration": 20, "velocity": 60}, {"time": 109439, "pitch": 82, "duration": 10, "velocity": 80}, {"time": 109598, "pitch": 60, "duration": 10, "velocity": 50}, {"time": 109598, "pitch": 82, "duration": 20, "velocity": 45}, {"time": 109678, "pitch": 42, "duration": 30, "velocity": 100}, {"time": 109678, "pitch": 61, "duration": 10, "velocity": 70}, {"time": 109678, "pitch": 82, "duration": 20, "velocity": 65}, {"time": 109837, "pitch": 61, "duration": 20, "velocity": 65}, {"time": 109837, "pitch": 75, "duration": 10, "velocity": 105}, {"time": 109837, "pitch": 82, "duration": 30, "velocity": 45}, {"time": 109917, "pitch": 35, "duration": 10, "velocity": 115}, {"time": 109917, "pitch": 42, "duration": 41, "velocity": 60}, {"time": 109917, "pitch": 61, "duration": 20, "velocity": 65}, {"time": 109917, "pitch": 82, "duration": 31, "velocity": 80}, {"time": 110079, "pitch": 61, "duration": 10, "velocity": 50}, {"time": 110079, "pitch": 82, "duration": 20, "velocity": 45}, {"time": 110160, "pitch": 42, "duration": 30, "velocity": 80}, {"time": 110160, "pitch": 60, "duration": 10, "velocity": 80}, {"time": 110160, "pitch": 82, "duration": 20, "velocity": 65}, {"time": 110322, "pitch": 82, "duration": 10, "velocity": 45}, {"time": 110402, "pitch": 42, "duration": 20, "velocity": 60}, {"time": 110402, "pitch": 82, "duration": 10, "velocity": 80}, {"time": 110552, "pitch": 37, "duration": 10, "velocity": 95}, {"time": 110562, "pitch": 82, "duration": 10, "velocity": 45}, {"time": 110642, "pitch": 42, "duration": 40, "velocity": 100}, {"time": 110642, "pitch": 61, "duration": 20, "velocity": 70}, {"time": 110642, "pitch": 70, "duration": 10, "velocity": 105}, {"time": 110642, "pitch": 82, "duration": 30, "velocity": 65}, {"time": 110801, "pitch": 35, "duration": 10, "velocity": 115}, {"time": 110801, "pitch": 61, "duration": 20, "velocity": 65}, {"time": 110801, "pitch": 82, "duration": 30, "velocity": 45}, {"time": 110881, "pitch": 42, "duration": 30, "velocity": 60}, {"time": 110881, "pitch": 61, "duration": 10, "velocity": 65}, {"time": 110881, "pitch": 82, "duration": 20, "velocity": 80}, {"time": 111040, "pitch": 35, "duration": 10, "velocity": 75}, {"time": 111040, "pitch": 61, "duration": 20, "velocity": 50}, {"time": 111040, "pitch": 82, "duration": 30, "velocity": 45}, {"time": 111120, "pitch": 35, "duration": 10, "velocity": 115}, {"time": 111120, "pitch": 46, "duration": 40, "velocity": 110}, {"time": 111120, "pitch": 60, "duration": 20, "velocity": 80}, {"time": 111120, "pitch": 82, "duration": 30, "velocity": 65}, {"time": 111280, "pitch": 82, "duration": 9, "velocity": 45}, {"time": 111359, "pitch": 42, "duration": 20, "velocity": 60}, {"time": 111359, "pitch": 82, "duration": 10, "velocity": 80}, {"time": 111509, "pitch": 56, "duration": 10, "velocity": 65}, {"time": 111519, "pitch": 60, "duration": 10, "velocity": 50}, {"time": 111519, "pitch": 82, "duration": 20, "velocity": 45}, {"time": 111598, "pitch": 42, "duration": 40, "velocity": 100}, {"time": 111598, "pitch": 56, "duration": 10, "velocity": 105}, {"time": 111598, "pitch": 61, "duration": 20, "velocity": 70}, {"time": 111598, "pitch": 82, "duration": 30, "velocity": 65}, {"time": 111758, "pitch": 35, "duration": 10, "velocity": 75}, {"time": 111758, "pitch": 61, "duration": 20, "velocity": 65}, {"time": 111758, "pitch": 82, "duration": 30, "velocity": 45}, {"time": 111838, "pitch": 35, "duration": 10, "velocity": 115}, {"time": 111838, "pitch": 42, "duration": 40, "velocity": 60}, {"time": 111838, "pitch": 61, "duration": 20, "velocity": 65}, {"time": 111838, "pitch": 82, "duration": 30, "velocity": 80}, {"time": 111999, "pitch": 61, "duration": 11, "velocity": 50}, {"time": 111999, "pitch": 82, "duration": 21, "velocity": 45}, {"time": 112080, "pitch": 42, "duration": 31, "velocity": 80}, {"time": 112080, "pitch": 60, "duration": 10, "velocity": 80}, {"time": 112080, "pitch": 82, "duration": 21, "velocity": 65}, {"time": 112232, "pitch": 85, "duration": 10, "velocity": 110}, {"time": 112242, "pitch": 82, "duration": 10, "velocity": 45}, {"time": 112323, "pitch": 42, "duration": 20, "velocity": 60}, {"time": 112323, "pitch": 82, "duration": 10, "velocity": 80}, {"time": 112482, "pitch": 82, "duration": 10, "velocity": 45}, {"time": 112562, "pitch": 42, "duration": 40, "velocity": 100}, {"time": 112562, "pitch": 61, "duration": 20, "velocity": 70}, {"time": 112562, "pitch": 70, "duration": 10, "velocity": 105}, {"time": 112562, "pitch": 82, "duration": 30, "velocity": 65}, {"time": 112722, "pitch": 35, "duration": 10, "velocity": 115}, {"time": 112722, "pitch": 61, "duration": 19, "velocity": 65}, {"time": 112722, "pitch": 82, "duration": 29, "velocity": 45}, {"time": 112801, "pitch": 42, "duration": 30, "velocity": 60}, {"time": 112801, "pitch": 61, "duration": 10, "velocity": 65}, {"time": 112801, "pitch": 82, "duration": 20, "velocity": 80}, {"time": 112961, "pitch": 61, "duration": 10, "velocity": 50}, {"time": 112961, "pitch": 82, "duration": 20, "velocity": 45}, {"time": 113040, "pitch": 35, "duration": 10, "velocity": 95}, {"time": 113040, "pitch": 42, "duration": 40, "velocity": 80}, {"time": 113040, "pitch": 60, "duration": 20, "velocity": 80}, {"time": 113040, "pitch": 82, "duration": 30, "velocity": 65}, {"time": 113200, "pitch": 82, "duration": 10, "velocity": 45}, {"time": 113280, "pitch": 42, "duration": 20, "velocity": 60}, {"time": 113280, "pitch": 82, "duration": 10, "velocity": 80}, {"time": 113439, "pitch": 35, "duration": 10, "velocity": 75}, {"time": 113439, "pitch": 60, "duration": 20, "velocity": 50}, {"time": 113439, "pitch": 82, "duration": 30, "velocity": 45}, {"time": 113519, "pitch": 42, "duration": 30, "velocity": 100}, {"time": 113519, "pitch": 61, "duration": 10, "velocity": 70}, {"time": 113519, "pitch": 82, "duration": 20, "velocity": 65}, {"time": 113678, "pitch": 61, "duration": 20, "velocity": 65}, {"time": 113678, "pitch": 75, "duration": 10, "velocity": 105}, {"time": 113678, "pitch": 82, "duration": 30, "velocity": 45}, {"time": 113758, "pitch": 35, "duration": 10, "velocity": 115}, {"time": 113758, "pitch": 42, "duration": 40, "velocity": 60}, {"time": 113758, "pitch": 61, "duration": 20, "velocity": 65}, {"time": 113758, "pitch": 82, "duration": 30, "velocity": 80}, {"time": 113920, "pitch": 61, "duration": 10, "velocity": 50}, {"time": 113920, "pitch": 82, "duration": 20, "velocity": 45}, {"time": 114001, "pitch": 42, "duration": 30, "velocity": 80}, {"time": 114001, "pitch": 60, "duration": 10, "velocity": 80}, {"time": 114001, "pitch": 82, "duration": 20, "velocity": 65}, {"time": 114162, "pitch": 82, "duration": 11, "velocity": 45}, {"time": 114243, "pitch": 42, "duration": 20, "velocity": 60}, {"time": 114243, "pitch": 82, "duration": 10, "velocity": 80}, {"time": 114393, "pitch": 37, "duration": 10, "velocity": 95}, {"time": 114403, "pitch": 82, "duration": 10, "velocity": 45}, {"time": 114483, "pitch": 42, "duration": 39, "velocity": 100}, {"time": 114483, "pitch": 61, "duration": 19, "velocity": 70}, {"time": 114483, "pitch": 70, "duration": 9, "velocity": 105}, {"time": 114483, "pitch": 82, "duration": 29, "velocity": 65}, {"time": 114642, "pitch": 35, "duration": 10, "velocity": 115}, {"time": 114642, "pitch": 61, "duration": 20, "velocity": 65}, {"time": 114642, "pitch": 82, "duration": 30, "velocity": 45}, {"time": 114722, "pitch": 42, "duration": 30, "velocity": 60}, {"time": 114722, "pitch": 61, "duration": 10, "velocity": 65}, {"time": 114722, "pitch": 82, "duration": 20, "velocity": 80}, {"time": 114881, "pitch": 35, "duration": 10, "velocity": 75}, {"time": 114881, "pitch": 61, "duration": 20, "velocity": 50}, {"time": 114881, "pitch": 82, "duration": 30, "velocity": 45}, {"time": 114961, "pitch": 35, "duration": 10, "velocity": 115}, {"time": 114961, "pitch": 46, "duration": 40, "velocity": 110}, {"time": 114961, "pitch": 60, "duration": 20, "velocity": 80}, {"time": 114961, "pitch": 82, "duration": 30, "velocity": 65}, {"time": 115120, "pitch": 82, "duration": 10, "velocity": 45}, {"time": 115200, "pitch": 42, "duration": 20, "velocity": 60}, {"time": 115200, "pitch": 82, "duration": 10, "velocity": 80}, {"time": 115350, "pitch": 41, "duration": 10, "velocity": 55}, {"time": 115350, "pitch": 56, "duration": 10, "velocity": 65}, {"time": 115360, "pitch": 60, "duration": 10, "velocity": 50}, {"time": 115360, "pitch": 82, "duration": 20, "velocity": 45}, {"time": 115439, "pitch": 35, "duration": 20, "velocity": 75}, {"time": 115439, "pitch": 42, "duration": 50, "velocity": 100}, {"time": 115439, "pitch": 56, "duration": 10, "velocity": 105}, {"time": 115439, "pitch": 61, "duration": 30, "velocity": 70}, {"time": 115439, "pitch": 82, "duration": 40, "velocity": 65}, {"time": 115599, "pitch": 61, "duration": 10, "velocity": 65}, {"time": 115599, "pitch": 82, "duration": 20, "velocity": 45}, {"time": 115679, "pitch": 35, "duration": 9, "velocity": 115}, {"time": 115679, "pitch": 42, "duration": 39, "velocity": 60}, {"time": 115679, "pitch": 61, "duration": 19, "velocity": 65}, {"time": 115679, "pitch": 82, "duration": 29, "velocity": 80}, {"time": 115838, "pitch": 61, "duration": 10, "velocity": 50}, {"time": 115838, "pitch": 82, "duration": 20, "velocity": 45}, {"time": 115918, "pitch": 42, "duration": 30, "velocity": 80}, {"time": 115918, "pitch": 60, "duration": 10, "velocity": 80}, {"time": 115918, "pitch": 82, "duration": 20, "velocity": 65}, {"time": 116067, "pitch": 85, "duration": 10, "velocity": 110}, {"time": 116077, "pitch": 82, "duration": 10, "velocity": 45}, {"time": 116157, "pitch": 42, "duration": 20, "velocity": 60}, {"time": 116157, "pitch": 82, "duration": 10, "velocity": 80}, {"time": 116319, "pitch": 82, "duration": 10, "velocity": 45}, {"time": 116400, "pitch": 42, "duration": 40, "velocity": 100}, {"time": 116400, "pitch": 61, "duration": 20, "velocity": 70}, {"time": 116400, "pitch": 70, "duration": 10, "velocity": 105}, {"time": 116400, "pitch": 82, "duration": 30, "velocity": 65}, {"time": 116561, "pitch": 35, "duration": 10, "velocity": 95}, {"time": 116561, "pitch": 61, "duration": 21, "velocity": 65}, {"time": 116561, "pitch": 82, "duration": 31, "velocity": 45}, {"time": 116642, "pitch": 35, "duration": 10, "velocity": 115}, {"time": 116642, "pitch": 42, "duration": 40, "velocity": 60}, {"time": 116642, "pitch": 61, "duration": 20, "velocity": 65}, {"time": 116642, "pitch": 82, "duration": 30, "velocity": 80}, {"time": 116802, "pitch": 61, "duration": 10, "velocity": 50}, {"time": 116802, "pitch": 82, "duration": 20, "velocity": 45}, {"time": 116881, "pitch": 35, "duration": 10, "velocity": 95}, {"time": 116881, "pitch": 42, "duration": 40, "velocity": 80}, {"time": 116881, "pitch": 60, "duration": 20, "velocity": 80}, {"time": 116881, "pitch": 82, "duration": 30, "velocity": 65}, {"time": 117041, "pitch": 82, "duration": 10, "velocity": 45}, {"time": 117121, "pitch": 42, "duration": 19, "velocity": 60}, {"time": 117121, "pitch": 82, "duration": 10, "velocity": 80}, {"time": 117280, "pitch": 60, "duration": 10, "velocity": 50}, {"time": 117280, "pitch": 82, "duration": 20, "velocity": 45}, {"time": 117360, "pitch": 42, "duration": 30, "velocity": 100}, {"time": 117360, "pitch": 61, "duration": 10, "velocity": 70}, {"time": 117360, "pitch": 82, "duration": 20, "velocity": 65}, {"time": 117519, "pitch": 61, "duration": 20, "velocity": 65}, {"time": 117519, "pitch": 75, "duration": 10, "velocity": 105}, {"time": 117519, "pitch": 82, "duration": 30, "velocity": 45}, {"time": 117599, "pitch": 35, "duration": 10, "velocity": 115}, {"time": 117599, "pitch": 42, "duration": 40, "velocity": 60}, {"time": 117599, "pitch": 61, "duration": 20, "velocity": 65}, {"time": 117599, "pitch": 82, "duration": 30, "velocity": 80}, {"time": 117758, "pitch": 61, "duration": 10, "velocity": 50}, {"time": 117758, "pitch": 82, "duration": 20, "velocity": 45}, {"time": 117838, "pitch": 42, "duration": 30, "velocity": 80}, {"time": 117838, "pitch": 60, "duration": 10, "velocity": 80}, {"time": 117838, "pitch": 82, "duration": 20, "velocity": 65}, {"time": 117998, "pitch": 82, "duration": 10, "velocity": 45}, {"time": 118077, "pitch": 42, "duration": 21, "velocity": 60}, {"time": 118077, "pitch": 82, "duration": 10, "velocity": 80}, {"time": 118229, "pitch": 37, "duration": 10, "velocity": 95}, {"time": 118239, "pitch": 82, "duration": 10, "velocity": 45}, {"time": 118320, "pitch": 42, "duration": 40, "velocity": 100}, {"time": 118320, "pitch": 61, "duration": 20, "velocity": 70}, {"time": 118320, "pitch": 70, "duration": 10, "velocity": 105}, {"time": 118320, "pitch": 82, "duration": 30, "velocity": 65}, {"time": 118482, "pitch": 35, "duration": 10, "velocity": 115}, {"time": 118482, "pitch": 61, "duration": 20, "velocity": 65}, {"time": 118482, "pitch": 82, "duration": 30, "velocity": 45}, {"time": 118563, "pitch": 42, "duration": 29, "velocity": 60}, {"time": 118563, "pitch": 61, "duration": 10, "velocity": 65}, {"time": 118563, "pitch": 82, "duration": 20, "velocity": 80}, {"time": 118722, "pitch": 35, "duration": 10, "velocity": 75}, {"time": 118722, "pitch": 61, "duration": 20, "velocity": 50}, {"time": 118722, "pitch": 82, "duration": 30, "velocity": 45}, {"time": 118802, "pitch": 35, "duration": 10, "velocity": 115}, {"time": 118802, "pitch": 46, "duration": 40, "velocity": 110}, {"time": 118802, "pitch": 60, "duration": 20, "velocity": 80}, {"time": 118802, "pitch": 82, "duration": 30, "velocity": 65}, {"time": 118961, "pitch": 82, "duration": 10, "velocity": 45}, {"time": 119041, "pitch": 42, "duration": 20, "velocity": 60}, {"time": 119041, "pitch": 82, "duration": 10, "velocity": 80}, {"time": 119190, "pitch": 56, "duration": 10, "velocity": 65}, {"time": 119200, "pitch": 60, "duration": 10, "velocity": 50}, {"time": 119200, "pitch": 82, "duration": 20, "velocity": 45}, {"time": 119280, "pitch": 42, "duration": 40, "velocity": 100}, {"time": 119280, "pitch": 56, "duration": 10, "velocity": 105}, {"time": 119280, "pitch": 61, "duration": 20, "velocity": 70}, {"time": 119280, "pitch": 82, "duration": 30, "velocity": 65}, {"time": 119440, "pitch": 35, "duration": 10, "velocity": 75}, {"time": 119440, "pitch": 61, "duration": 20, "velocity": 65}, {"time": 119440, "pitch": 82, "duration": 30, "velocity": 45}, {"time": 119519, "pitch": 35, "duration": 10, "velocity": 115}, {"time": 119519, "pitch": 42, "duration": 40, "velocity": 60}, {"time": 119519, "pitch": 61, "duration": 20, "velocity": 65}, {"time": 119519, "pitch": 82, "duration": 30, "velocity": 80}, {"time": 119679, "pitch": 61, "duration": 10, "velocity": 50}, {"time": 119679, "pitch": 82, "duration": 20, "velocity": 45}, {"time": 119759, "pitch": 42, "duration": 29, "velocity": 80}, {"time": 119759, "pitch": 60, "duration": 10, "velocity": 80}, {"time": 119759, "pitch": 82, "duration": 19, "velocity": 65}, {"time": 119908, "pitch": 85, "duration": 10, "velocity": 110}, {"time": 119918, "pitch": 82, "duration": 10, "velocity": 45}, {"time": 119998, "pitch": 42, "duration": 20, "velocity": 60}, {"time": 119998, "pitch": 82, "duration": 10, "velocity": 80}, {"time": 120159, "pitch": 82, "duration": 11, "velocity": 45}, {"time": 120240, "pitch": 42, "duration": 41, "velocity": 100}, {"time": 120240, "pitch": 61, "duration": 21, "velocity": 70}, {"time": 120240, "pitch": 70, "duration": 10, "velocity": 105}, {"time": 120240, "pitch": 82, "duration": 31, "velocity": 65}, {"time": 120402, "pitch": 35, "duration": 10, "velocity": 115}, {"time": 120402, "pitch": 61, "duration": 20, "velocity": 65}, {"time": 120402, "pitch": 82, "duration": 30, "velocity": 45}, {"time": 120483, "pitch": 42, "duration": 30, "velocity": 60}, {"time": 120483, "pitch": 61, "duration": 10, "velocity": 65}, {"time": 120483, "pitch": 82, "duration": 20, "velocity": 80}, {"time": 120642, "pitch": 61, "duration": 10, "velocity": 50}, {"time": 120642, "pitch": 82, "duration": 20, "velocity": 45}, {"time": 120722, "pitch": 35, "duration": 10, "velocity": 95}, {"time": 120722, "pitch": 42, "duration": 40, "velocity": 80}, {"time": 120722, "pitch": 60, "duration": 20, "velocity": 80}, {"time": 120722, "pitch": 82, "duration": 30, "velocity": 65}, {"time": 120882, "pitch": 82, "duration": 10, "velocity": 45}, {"time": 120961, "pitch": 42, "duration": 20, "velocity": 60}, {"time": 120961, "pitch": 82, "duration": 10, "velocity": 80}, {"time": 121121, "pitch": 35, "duration": 10, "velocity": 75}, {"time": 121121, "pitch": 60, "duration": 20, "velocity": 50}, {"time": 121121, "pitch": 82, "duration": 30, "velocity": 45}, {"time": 121201, "pitch": 42, "duration": 29, "velocity": 100}, {"time": 121201, "pitch": 61, "duration": 10, "velocity": 70}, {"time": 121201, "pitch": 82, "duration": 20, "velocity": 65}, {"time": 121360, "pitch": 61, "duration": 20, "velocity": 65}, {"time": 121360, "pitch": 75, "duration": 10, "velocity": 105}, {"time": 121360, "pitch": 82, "duration": 30, "velocity": 45}, {"time": 121440, "pitch": 35, "duration": 10, "velocity": 115}, {"time": 121440, "pitch": 42, "duration": 40, "velocity": 60}, {"time": 121440, "pitch": 61, "duration": 20, "velocity": 65}, {"time": 121440, "pitch": 82, "duration": 30, "velocity": 80}, {"time": 121599, "pitch": 61, "duration": 10, "velocity": 50}, {"time": 121599, "pitch": 82, "duration": 20, "velocity": 45}, {"time": 121679, "pitch": 42, "duration": 30, "velocity": 80}, {"time": 121679, "pitch": 60, "duration": 10, "velocity": 80}, {"time": 121679, "pitch": 82, "duration": 20, "velocity": 65}, {"time": 121838, "pitch": 82, "duration": 10, "velocity": 45}, {"time": 121918, "pitch": 42, "duration": 20, "velocity": 60}, {"time": 121918, "pitch": 82, "duration": 10, "velocity": 80}, {"time": 122070, "pitch": 37, "duration": 10, "velocity": 95}, {"time": 122080, "pitch": 82, "duration": 10, "velocity": 45}, {"time": 122161, "pitch": 42, "duration": 40, "velocity": 100}, {"time": 122161, "pitch": 61, "duration": 20, "velocity": 70}, {"time": 122161, "pitch": 70, "duration": 10, "velocity": 105}, {"time": 122161, "pitch": 82, "duration": 30, "velocity": 65}, {"time": 122323, "pitch": 35, "duration": 10, "velocity": 115}, {"time": 122323, "pitch": 61, "duration": 20, "velocity": 65}, {"time": 122323, "pitch": 82, "duration": 30, "velocity": 45}, {"time": 122403, "pitch": 42, "duration": 30, "velocity": 60}, {"time": 122403, "pitch": 61, "duration": 10, "velocity": 65}, {"time": 122403, "pitch": 82, "duration": 20, "velocity": 80}, {"time": 122563, "pitch": 35, "duration": 10, "velocity": 75}, {"time": 122563, "pitch": 61, "duration": 20, "velocity": 50}, {"time": 122563, "pitch": 82, "duration": 30, "velocity": 45}, {"time": 122643, "pitch": 35, "duration": 10, "velocity": 115}, {"time": 122643, "pitch": 46, "duration": 39, "velocity": 110}, {"time": 122643, "pitch": 60, "duration": 20, "velocity": 80}, {"time": 122643, "pitch": 82, "duration": 30, "velocity": 65}, {"time": 122802, "pitch": 82, "duration": 10, "velocity": 45}, {"time": 122882, "pitch": 42, "duration": 20, "velocity": 60}, {"time": 122882, "pitch": 82, "duration": 10, "velocity": 80}, {"time": 123031, "pitch": 41, "duration": 10, "velocity": 55}, {"time": 123031, "pitch": 56, "duration": 10, "velocity": 65}, {"time": 123041, "pitch": 42, "duration": 30, "velocity": 80}, {"time": 123041, "pitch": 60, "duration": 10, "velocity": 50}, {"time": 123041, "pitch": 82, "duration": 20, "velocity": 45}, {"time": 123121, "pitch": 35, "duration": 20, "velocity": 75}, {"time": 123121, "pitch": 42, "duration": 50, "velocity": 100}, {"time": 123121, "pitch": 56, "duration": 10, "velocity": 105}, {"time": 123121, "pitch": 61, "duration": 30, "velocity": 70}, {"time": 123121, "pitch": 82, "duration": 40, "velocity": 65}, {"time": 123280, "pitch": 61, "duration": 10, "velocity": 65}, {"time": 123280, "pitch": 82, "duration": 20, "velocity": 45}, {"time": 123360, "pitch": 35, "duration": 10, "velocity": 115}, {"time": 123360, "pitch": 42, "duration": 50, "velocity": 60}, {"time": 123360, "pitch": 54, "duration": 30, "velocity": 95}, {"time": 123360, "pitch": 61, "duration": 20, "velocity": 65}, {"time": 123360, "pitch": 82, "duration": 40, "velocity": 80}, {"time": 123520, "pitch": 54, "duration": 20, "velocity": 60}, {"time": 123520, "pitch": 61, "duration": 10, "velocity": 50}, {"time": 123520, "pitch": 82, "duration": 30, "velocity": 45}, {"time": 123599, "pitch": 42, "duration": 40, "velocity": 80}, {"time": 123599, "pitch": 54, "duration": 20, "velocity": 80}, {"time": 123599, "pitch": 60, "duration": 10, "velocity": 80}, {"time": 123599, "pitch": 82, "duration": 30, "velocity": 65}, {"time": 123749, "pitch": 85, "duration": 10, "velocity": 110}, {"time": 123759, "pitch": 54, "duration": 10, "velocity": 50}, {"time": 123759, "pitch": 82, "duration": 20, "velocity": 45}, {"time": 123839, "pitch": 42, "duration": 29, "velocity": 60}, {"time": 123839, "pitch": 54, "duration": 10, "velocity": 125}, {"time": 123839, "pitch": 82, "duration": 20, "velocity": 80}, {"time": 123998, "pitch": 54, "duration": 10, "velocity": 60}, {"time": 123998, "pitch": 82, "duration": 20, "velocity": 45}, {"time": 124078, "pitch": 42, "duration": 50, "velocity": 100}, {"time": 124078, "pitch": 54, "duration": 30, "velocity": 90}, {"time": 124078, "pitch": 61, "duration": 20, "velocity": 70}, {"time": 124078, "pitch": 70, "duration": 10, "velocity": 105}, {"time": 124078, "pitch": 82, "duration": 40, "velocity": 65}, {"time": 124237, "pitch": 35, "duration": 10, "velocity": 95}, {"time": 124237, "pitch": 54, "duration": 30, "velocity": 50}, {"time": 124237, "pitch": 61, "duration": 20, "velocity": 65}, {"time": 124237, "pitch": 82, "duration": 40, "velocity": 45}, {"time": 124317, "pitch": 35, "duration": 10, "velocity": 115}, {"time": 124317, "pitch": 42, "duration": 51, "velocity": 60}, {"time": 124317, "pitch": 54, "duration": 30, "velocity": 95}, {"time": 124317, "pitch": 61, "duration": 20, "velocity": 65}, {"time": 124317, "pitch": 82, "duration": 40, "velocity": 80}, {"time": 124479, "pitch": 54, "duration": 20, "velocity": 60}, {"time": 124479, "pitch": 61, "duration": 10, "velocity": 50}, {"time": 124479, "pitch": 82, "duration": 30, "velocity": 45}, {"time": 124560, "pitch": 35, "duration": 10, "velocity": 95}, {"time": 124560, "pitch": 42, "duration": 50, "velocity": 80}, {"time": 124560, "pitch": 54, "duration": 30, "velocity": 80}, {"time": 124560, "pitch": 60, "duration": 20, "velocity": 80}, {"time": 124560, "pitch": 82, "duration": 40, "velocity": 65}, {"time": 124721, "pitch": 54, "duration": 10, "velocity": 50}, {"time": 124721, "pitch": 82, "duration": 21, "velocity": 45}, {"time": 124802, "pitch": 42, "duration": 30, "velocity": 60}, {"time": 124802, "pitch": 54, "duration": 10, "velocity": 125}, {"time": 124802, "pitch": 82, "duration": 20, "velocity": 80}, {"time": 124962, "pitch": 54, "duration": 20, "velocity": 60}, {"time": 124962, "pitch": 60, "duration": 10, "velocity": 50}, {"time": 124962, "pitch": 82, "duration": 30, "velocity": 45}, {"time": 125041, "pitch": 42, "duration": 40, "velocity": 100}, {"time": 125041, "pitch": 54, "duration": 20, "velocity": 90}, {"time": 125041, "pitch": 61, "duration": 10, "velocity": 70}, {"time": 125041, "pitch": 82, "duration": 30, "velocity": 65}, {"time": 125201, "pitch": 54, "duration": 30, "velocity": 50}, {"time": 125201, "pitch": 61, "duration": 20, "velocity": 65}, {"time": 125201, "pitch": 75, "duration": 10, "velocity": 105}, {"time": 125201, "pitch": 82, "duration": 40, "velocity": 45}, {"time": 125281, "pitch": 35, "duration": 10, "velocity": 115}, {"time": 125281, "pitch": 42, "duration": 49, "velocity": 60}, {"time": 125281, "pitch": 54, "duration": 30, "velocity": 95}, {"time": 125281, "pitch": 61, "duration": 20, "velocity": 65}, {"time": 125281, "pitch": 82, "duration": 39, "velocity": 80}, {"time": 125440, "pitch": 54, "duration": 20, "velocity": 60}, {"time": 125440, "pitch": 61, "duration": 10, "velocity": 50}, {"time": 125440, "pitch": 82, "duration": 30, "velocity": 45}, {"time": 125520, "pitch": 42, "duration": 40, "velocity": 80}, {"time": 125520, "pitch": 54, "duration": 20, "velocity": 80}, {"time": 125520, "pitch": 60, "duration": 10, "velocity": 80}, {"time": 125520, "pitch": 82, "duration": 30, "velocity": 65}, {"time": 125679, "pitch": 54, "duration": 10, "velocity": 50}, {"time": 125679, "pitch": 82, "duration": 20, "velocity": 45}, {"time": 125759, "pitch": 42, "duration": 30, "velocity": 60}, {"time": 125759, "pitch": 54, "duration": 10, "velocity": 125}, {"time": 125759, "pitch": 82, "duration": 20, "velocity": 80}, {"time": 125909, "pitch": 37, "duration": 9, "velocity": 95}, {"time": 125918, "pitch": 54, "duration": 10, "velocity": 60}, {"time": 125918, "pitch": 82, "duration": 20, "velocity": 45}, {"time": 125998, "pitch": 42, "duration": 50, "velocity": 100}, {"time": 125998, "pitch": 54, "duration": 30, "velocity": 90}, {"time": 125998, "pitch": 61, "duration": 20, "velocity": 70}, {"time": 125998, "pitch": 70, "duration": 10, "velocity": 105}, {"time": 125998, "pitch": 82, "duration": 40, "velocity": 65}, {"time": 126158, "pitch": 35, "duration": 10, "velocity": 115}, {"time": 126158, "pitch": 54, "duration": 30, "velocity": 50}, {"time": 126158, "pitch": 61, "duration": 20, "velocity": 65}, {"time": 126158, "pitch": 82, "duration": 40, "velocity": 45}, {"time": 126237, "pitch": 42, "duration": 41, "velocity": 60}, {"time": 126237, "pitch": 54, "duration": 21, "velocity": 95}, {"time": 126237, "pitch": 61, "duration": 10, "velocity": 65}, {"time": 126237, "pitch": 82, "duration": 31, "velocity": 80}, {"time": 126399, "pitch": 35, "duration": 10, "velocity": 75}, {"time": 126399, "pitch": 54, "duration": 30, "velocity": 60}, {"time": 126399, "pitch": 61, "duration": 20, "velocity": 50}, {"time": 126399, "pitch": 82, "duration": 41, "velocity": 45}, {"time": 126480, "pitch": 35, "duration": 10, "velocity": 115}, {"time": 126480, "pitch": 46, "duration": 51, "velocity": 110}, {"time": 126480, "pitch": 54, "duration": 30, "velocity": 80}, {"time": 126480, "pitch": 60, "duration": 20, "velocity": 80}, {"time": 126480, "pitch": 82, "duration": 40, "velocity": 65}, {"time": 126642, "pitch": 54, "duration": 10, "velocity": 50}, {"time": 126642, "pitch": 82, "duration": 20, "velocity": 45}, {"time": 126723, "pitch": 42, "duration": 30, "velocity": 60}, {"time": 126723, "pitch": 54, "duration": 10, "velocity": 125}, {"time": 126723, "pitch": 82, "duration": 20, "velocity": 80}, {"time": 126872, "pitch": 56, "duration": 10, "velocity": 65}, {"time": 126882, "pitch": 54, "duration": 20, "velocity": 60}, {"time": 126882, "pitch": 60, "duration": 10, "velocity": 50}, {"time": 126882, "pitch": 82, "duration": 30, "velocity": 45}, {"time": 126962, "pitch": 42, "duration": 50, "velocity": 100}, {"time": 126962, "pitch": 54, "duration": 30, "velocity": 90}, {"time": 126962, "pitch": 56, "duration": 10, "velocity": 105}, {"time": 126962, "pitch": 61, "duration": 20, "velocity": 70}, {"time": 126962, "pitch": 82, "duration": 40, "velocity": 65}, {"time": 127121, "pitch": 35, "duration": 10, "velocity": 75}, {"time": 127121, "pitch": 54, "duration": 30, "velocity": 50}, {"time": 127121, "pitch": 61, "duration": 20, "velocity": 65}, {"time": 127121, "pitch": 82, "duration": 40, "velocity": 45}, {"time": 127201, "pitch": 35, "duration": 10, "velocity": 115}, {"time": 127201, "pitch": 42, "duration": 50, "velocity": 60}, {"time": 127201, "pitch": 54, "duration": 30, "velocity": 95}, {"time": 127201, "pitch": 61, "duration": 20, "velocity": 65}, {"time": 127201, "pitch": 82, "duration": 40, "velocity": 80}, {"time": 127361, "pitch": 54, "duration": 19, "velocity": 60}, {"time": 127361, "pitch": 61, "duration": 9, "velocity": 50}, {"time": 127361, "pitch": 82, "duration": 29, "velocity": 45}, {"time": 127440, "pitch": 42, "duration": 40, "velocity": 80}, {"time": 127440, "pitch": 54, "duration": 20, "velocity": 80}, {"time": 127440, "pitch": 60, "duration": 10, "velocity": 80}, {"time": 127440, "pitch": 82, "duration": 30, "velocity": 65}, {"time": 127590, "pitch": 85, "duration": 10, "velocity": 110}, {"time": 127600, "pitch": 54, "duration": 10, "velocity": 50}, {"time": 127600, "pitch": 82, "duration": 20, "velocity": 45}, {"time": 127679, "pitch": 42, "duration": 30, "velocity": 60}, {"time": 127679, "pitch": 54, "duration": 10, "velocity": 125}, {"time": 127679, "pitch": 82, "duration": 20, "velocity": 80}, {"time": 127839, "pitch": 54, "duration": 10, "velocity": 60}, {"time": 127839, "pitch": 82, "duration": 20, "velocity": 45}, {"time": 127919, "pitch": 42, "duration": 49, "velocity": 100}, {"time": 127919, "pitch": 54, "duration": 30, "velocity": 90}, {"time": 127919, "pitch": 61, "duration": 20, "velocity": 70}, {"time": 127919, "pitch": 70, "duration": 10, "velocity": 105}, {"time": 127919, "pitch": 82, "duration": 40, "velocity": 65}, {"time": 128078, "pitch": 35, "duration": 10, "velocity": 115}, {"time": 128078, "pitch": 54, "duration": 30, "velocity": 50}, {"time": 128078, "pitch": 61, "duration": 20, "velocity": 65}, {"time": 128078, "pitch": 82, "duration": 40, "velocity": 45}, {"time": 128158, "pitch": 42, "duration": 40, "velocity": 60}, {"time": 128158, "pitch": 54, "duration": 20, "velocity": 95}, {"time": 128158, "pitch": 61, "duration": 10, "velocity": 65}, {"time": 128158, "pitch": 82, "duration": 30, "velocity": 80}, {"time": 128320, "pitch": 54, "duration": 20, "velocity": 60}, {"time": 128320, "pitch": 61, "duration": 10, "velocity": 50}, {"time": 128320, "pitch": 82, "duration": 30, "velocity": 45}, {"time": 128400, "pitch": 35, "duration": 11, "velocity": 95}, {"time": 128400, "pitch": 42, "duration": 51, "velocity": 80}, {"time": 128400, "pitch": 54, "duration": 31, "velocity": 80}, {"time": 128400, "pitch": 60, "duration": 21, "velocity": 80}, {"time": 128400, "pitch": 82, "duration": 41, "velocity": 65}, {"time": 128562, "pitch": 54, "duration": 10, "velocity": 50}, {"time": 128562, "pitch": 82, "duration": 20, "velocity": 45}, {"time": 128643, "pitch": 42, "duration": 30, "velocity": 60}, {"time": 128643, "pitch": 54, "duration": 10, "velocity": 125}, {"time": 128643, "pitch": 82, "duration": 20, "velocity": 80}, {"time": 128803, "pitch": 35, "duration": 10, "velocity": 75}, {"time": 128803, "pitch": 54, "duration": 29, "velocity": 60}, {"time": 128803, "pitch": 60, "duration": 19, "velocity": 50}, {"time": 128803, "pitch": 82, "duration": 39, "velocity": 45}, {"time": 128882, "pitch": 42, "duration": 40, "velocity": 100}, {"time": 128882, "pitch": 54, "duration": 20, "velocity": 90}, {"time": 128882, "pitch": 61, "duration": 10, "velocity": 70}, {"time": 128882, "pitch": 82, "duration": 30, "velocity": 65}, {"time": 129042, "pitch": 54, "duration": 30, "velocity": 50}, {"time": 129042, "pitch": 61, "duration": 20, "velocity": 65}, {"time": 129042, "pitch": 75, "duration": 10, "velocity": 105}, {"time": 129042, "pitch": 82, "duration": 40, "velocity": 45}, {"time": 129121, "pitch": 35, "duration": 10, "velocity": 115}, {"time": 129121, "pitch": 42, "duration": 50, "velocity": 60}, {"time": 129121, "pitch": 54, "duration": 30, "velocity": 95}, {"time": 129121, "pitch": 61, "duration": 20, "velocity": 65}, {"time": 129121, "pitch": 82, "duration": 40, "velocity": 80}, {"time": 129281, "pitch": 54, "duration": 20, "velocity": 60}, {"time": 129281, "pitch": 61, "duration": 10, "velocity": 50}, {"time": 129281, "pitch": 82, "duration": 30, "velocity": 45}, {"time": 129361, "pitch": 42, "duration": 40, "velocity": 80}, {"time": 129361, "pitch": 54, "duration": 20, "velocity": 80}, {"time": 129361, "pitch": 60, "duration": 10, "velocity": 80}, {"time": 129361, "pitch": 82, "duration": 30, "velocity": 65}, {"time": 129520, "pitch": 54, "duration": 10, "velocity": 50}, {"time": 129520, "pitch": 82, "duration": 20, "velocity": 45}, {"time": 129600, "pitch": 42, "duration": 30, "velocity": 60}, {"time": 129600, "pitch": 54, "duration": 10, "velocity": 125}, {"time": 129600, "pitch": 82, "duration": 20, "velocity": 80}, {"time": 129749, "pitch": 37, "duration": 10, "velocity": 95}, {"time": 129759, "pitch": 54, "duration": 10, "velocity": 60}, {"time": 129759, "pitch": 82, "duration": 20, "velocity": 45}, {"time": 129839, "pitch": 42, "duration": 50, "velocity": 100}, {"time": 129839, "pitch": 54, "duration": 30, "velocity": 90}, {"time": 129839, "pitch": 61, "duration": 20, "velocity": 70}, {"time": 129839, "pitch": 70, "duration": 10, "velocity": 105}, {"time": 129839, "pitch": 82, "duration": 40, "velocity": 65}, {"time": 129999, "pitch": 35, "duration": 9, "velocity": 115}, {"time": 129999, "pitch": 54, "duration": 29, "velocity": 50}, {"time": 129999, "pitch": 61, "duration": 19, "velocity": 65}, {"time": 129999, "pitch": 82, "duration": 39, "velocity": 45}, {"time": 130078, "pitch": 42, "duration": 40, "velocity": 60}, {"time": 130078, "pitch": 54, "duration": 20, "velocity": 95}, {"time": 130078, "pitch": 61, "duration": 10, "velocity": 65}, {"time": 130078, "pitch": 82, "duration": 30, "velocity": 80}, {"time": 130238, "pitch": 35, "duration": 10, "velocity": 75}, {"time": 130238, "pitch": 54, "duration": 30, "velocity": 60}, {"time": 130238, "pitch": 61, "duration": 20, "velocity": 50}, {"time": 130238, "pitch": 82, "duration": 40, "velocity": 45}, {"time": 130317, "pitch": 35, "duration": 10, "velocity": 115}, {"time": 130317, "pitch": 46, "duration": 50, "velocity": 110}, {"time": 130317, "pitch": 54, "duration": 30, "velocity": 80}, {"time": 130317, "pitch": 60, "duration": 20, "velocity": 80}, {"time": 130317, "pitch": 82, "duration": 40, "velocity": 65}, {"time": 130477, "pitch": 54, "duration": 10, "velocity": 50}, {"time": 130477, "pitch": 82, "duration": 20, "velocity": 45}, {"time": 130557, "pitch": 42, "duration": 30, "velocity": 60}, {"time": 130557, "pitch": 54, "duration": 10, "velocity": 125}, {"time": 130557, "pitch": 82, "duration": 20, "velocity": 80}, {"time": 130708, "pitch": 41, "duration": 10, "velocity": 55}, {"time": 130708, "pitch": 56, "duration": 10, "velocity": 65}, {"time": 130718, "pitch": 54, "duration": 21, "velocity": 60}, {"time": 130718, "pitch": 60, "duration": 10, "velocity": 50}, {"time": 130718, "pitch": 82, "duration": 31, "velocity": 45}, {"time": 130799, "pitch": 35, "duration": 20, "velocity": 75}, {"time": 130799, "pitch": 42, "duration": 61, "velocity": 100}, {"time": 130799, "pitch": 54, "duration": 41, "velocity": 90}, {"time": 130799, "pitch": 56, "duration": 10, "velocity": 105}, {"time": 130799, "pitch": 61, "duration": 31, "velocity": 70}, {"time": 130799, "pitch": 82, "duration": 51, "velocity": 65}, {"time": 130961, "pitch": 54, "duration": 20, "velocity": 50}, {"time": 130961, "pitch": 61, "duration": 10, "velocity": 65}, {"time": 130961, "pitch": 82, "duration": 30, "velocity": 45}, {"time": 131042, "pitch": 35, "duration": 10, "velocity": 115}, {"time": 131042, "pitch": 42, "duration": 50, "velocity": 60}, {"time": 131042, "pitch": 54, "duration": 30, "velocity": 95}, {"time": 131042, "pitch": 61, "duration": 20, "velocity": 65}, {"time": 131042, "pitch": 82, "duration": 40, "velocity": 80}, {"time": 131201, "pitch": 54, "duration": 20, "velocity": 60}, {"time": 131201, "pitch": 61, "duration": 10, "velocity": 50}, {"time": 131201, "pitch": 82, "duration": 30, "velocity": 45}, {"time": 131281, "pitch": 42, "duration": 40, "velocity": 80}, {"time": 131281, "pitch": 54, "duration": 20, "velocity": 80}, {"time": 131281, "pitch": 60, "duration": 10, "velocity": 80}, {"time": 131281, "pitch": 82, "duration": 30, "velocity": 65}, {"time": 131431, "pitch": 85, "duration": 10, "velocity": 110}, {"time": 131441, "pitch": 54, "duration": 10, "velocity": 50}, {"time": 131441, "pitch": 82, "duration": 19, "velocity": 45}, {"time": 131520, "pitch": 42, "duration": 30, "velocity": 60}, {"time": 131520, "pitch": 54, "duration": 10, "velocity": 125}, {"time": 131520, "pitch": 82, "duration": 20, "velocity": 80}, {"time": 131680, "pitch": 54, "duration": 10, "velocity": 60}, {"time": 131680, "pitch": 82, "duration": 20, "velocity": 45}, {"time": 131759, "pitch": 42, "duration": 50, "velocity": 100}, {"time": 131759, "pitch": 54, "duration": 30, "velocity": 90}, {"time": 131759, "pitch": 61, "duration": 20, "velocity": 70}, {"time": 131759, "pitch": 70, "duration": 10, "velocity": 105}, {"time": 131759, "pitch": 82, "duration": 40, "velocity": 65}, {"time": 131919, "pitch": 35, "duration": 10, "velocity": 95}, {"time": 131919, "pitch": 54, "duration": 30, "velocity": 50}, {"time": 131919, "pitch": 61, "duration": 20, "velocity": 65}, {"time": 131919, "pitch": 82, "duration": 40, "velocity": 45}, {"time": 131999, "pitch": 35, "duration": 10, "velocity": 115}, {"time": 131999, "pitch": 42, "duration": 50, "velocity": 60}, {"time": 131999, "pitch": 54, "duration": 30, "velocity": 95}, {"time": 131999, "pitch": 61, "duration": 20, "velocity": 65}, {"time": 131999, "pitch": 82, "duration": 40, "velocity": 80}, {"time": 132158, "pitch": 54, "duration": 20, "velocity": 60}, {"time": 132158, "pitch": 61, "duration": 10, "velocity": 50}, {"time": 132158, "pitch": 82, "duration": 30, "velocity": 45}, {"time": 132238, "pitch": 35, "duration": 10, "velocity": 95}, {"time": 132238, "pitch": 42, "duration": 50, "velocity": 80}, {"time": 132238, "pitch": 54, "duration": 30, "velocity": 80}, {"time": 132238, "pitch": 60, "duration": 20, "velocity": 80}, {"time": 132238, "pitch": 82, "duration": 40, "velocity": 65}, {"time": 132397, "pitch": 54, "duration": 10, "velocity": 50}, {"time": 132397, "pitch": 82, "duration": 20, "velocity": 45}, {"time": 132477, "pitch": 42, "duration": 30, "velocity": 60}, {"time": 132477, "pitch": 54, "duration": 10, "velocity": 125}, {"time": 132477, "pitch": 82, "duration": 20, "velocity": 80}, {"time": 132639, "pitch": 54, "duration": 20, "velocity": 60}, {"time": 132639, "pitch": 60, "duration": 10, "velocity": 50}, {"time": 132639, "pitch": 82, "duration": 30, "velocity": 45}, {"time": 132720, "pitch": 42, "duration": 40, "velocity": 100}, {"time": 132720, "pitch": 54, "duration": 20, "velocity": 90}, {"time": 132720, "pitch": 61, "duration": 10, "velocity": 70}, {"time": 132720, "pitch": 82, "duration": 30, "velocity": 65}, {"time": 132881, "pitch": 54, "duration": 31, "velocity": 50}, {"time": 132881, "pitch": 61, "duration": 21, "velocity": 65}, {"time": 132881, "pitch": 75, "duration": 11, "velocity": 105}, {"time": 132881, "pitch": 82, "duration": 41, "velocity": 45}, {"time": 132962, "pitch": 35, "duration": 10, "velocity": 115}, {"time": 132962, "pitch": 42, "duration": 50, "velocity": 60}, {"time": 132962, "pitch": 54, "duration": 30, "velocity": 95}, {"time": 132962, "pitch": 61, "duration": 20, "velocity": 65}, {"time": 132962, "pitch": 82, "duration": 40, "velocity": 80}, {"time": 133122, "pitch": 54, "duration": 20, "velocity": 60}, {"time": 133122, "pitch": 61, "duration": 10, "velocity": 50}, {"time": 133122, "pitch": 82, "duration": 30, "velocity": 45}, {"time": 133202, "pitch": 42, "duration": 39, "velocity": 80}, {"time": 133202, "pitch": 54, "duration": 19, "velocity": 80}, {"time": 133202, "pitch": 60, "duration": 9, "velocity": 80}, {"time": 133202, "pitch": 82, "duration": 29, "velocity": 65}, {"time": 133361, "pitch": 54, "duration": 10, "velocity": 50}, {"time": 133361, "pitch": 82, "duration": 20, "velocity": 45}, {"time": 133441, "pitch": 42, "duration": 30, "velocity": 60}, {"time": 133441, "pitch": 54, "duration": 10, "velocity": 125}, {"time": 133441, "pitch": 82, "duration": 20, "velocity": 80}, {"time": 133590, "pitch": 37, "duration": 10, "velocity": 95}, {"time": 133600, "pitch": 54, "duration": 10, "velocity": 60}, {"time": 133600, "pitch": 82, "duration": 20, "velocity": 45}, {"time": 133680, "pitch": 42, "duration": 50, "velocity": 100}, {"time": 133680, "pitch": 54, "duration": 30, "velocity": 90}, {"time": 133680, "pitch": 61, "duration": 20, "velocity": 70}, {"time": 133680, "pitch": 70, "duration": 10, "velocity": 105}, {"time": 133680, "pitch": 82, "duration": 40, "velocity": 65}, {"time": 133839, "pitch": 35, "duration": 10, "velocity": 115}, {"time": 133839, "pitch": 54, "duration": 30, "velocity": 50}, {"time": 133839, "pitch": 61, "duration": 20, "velocity": 65}, {"time": 133839, "pitch": 82, "duration": 40, "velocity": 45}, {"time": 133919, "pitch": 42, "duration": 40, "velocity": 60}, {"time": 133919, "pitch": 54, "duration": 20, "velocity": 95}, {"time": 133919, "pitch": 61, "duration": 10, "velocity": 65}, {"time": 133919, "pitch": 82, "duration": 30, "velocity": 80}, {"time": 134079, "pitch": 35, "duration": 10, "velocity": 75}, {"time": 134079, "pitch": 54, "duration": 29, "velocity": 60}, {"time": 134079, "pitch": 61, "duration": 20, "velocity": 50}, {"time": 134079, "pitch": 82, "duration": 39, "velocity": 45}, {"time": 134158, "pitch": 35, "duration": 10, "velocity": 115}, {"time": 134158, "pitch": 46, "duration": 50, "velocity": 110}, {"time": 134158, "pitch": 54, "duration": 30, "velocity": 80}, {"time": 134158, "pitch": 60, "duration": 20, "velocity": 80}, {"time": 134158, "pitch": 82, "duration": 40, "velocity": 65}, {"time": 134318, "pitch": 54, "duration": 10, "velocity": 50}, {"time": 134318, "pitch": 82, "duration": 20, "velocity": 45}, {"time": 134398, "pitch": 42, "duration": 30, "velocity": 60}, {"time": 134398, "pitch": 54, "duration": 10, "velocity": 125}, {"time": 134398, "pitch": 82, "duration": 20, "velocity": 80}, {"time": 134549, "pitch": 56, "duration": 10, "velocity": 65}, {"time": 134559, "pitch": 54, "duration": 20, "velocity": 60}, {"time": 134559, "pitch": 60, "duration": 10, "velocity": 50}, {"time": 134559, "pitch": 82, "duration": 31, "velocity": 45}, {"time": 134640, "pitch": 42, "duration": 51, "velocity": 100}, {"time": 134640, "pitch": 54, "duration": 30, "velocity": 90}, {"time": 134640, "pitch": 56, "duration": 10, "velocity": 105}, {"time": 134640, "pitch": 61, "duration": 20, "velocity": 70}, {"time": 134640, "pitch": 82, "duration": 41, "velocity": 65}, {"time": 134802, "pitch": 35, "duration": 10, "velocity": 75}, {"time": 134802, "pitch": 54, "duration": 30, "velocity": 50}, {"time": 134802, "pitch": 61, "duration": 20, "velocity": 65}, {"time": 134802, "pitch": 82, "duration": 40, "velocity": 45}, {"time": 134883, "pitch": 35, "duration": 10, "velocity": 115}, {"time": 134883, "pitch": 42, "duration": 50, "velocity": 60}, {"time": 134883, "pitch": 54, "duration": 30, "velocity": 95}, {"time": 134883, "pitch": 61, "duration": 20, "velocity": 65}, {"time": 134883, "pitch": 82, "duration": 40, "velocity": 80}, {"time": 135042, "pitch": 54, "duration": 20, "velocity": 60}, {"time": 135042, "pitch": 61, "duration": 10, "velocity": 50}, {"time": 135042, "pitch": 82, "duration": 30, "velocity": 45}, {"time": 135122, "pitch": 42, "duration": 40, "velocity": 80}, {"time": 135122, "pitch": 54, "duration": 20, "velocity": 80}, {"time": 135122, "pitch": 60, "duration": 10, "velocity": 80}, {"time": 135122, "pitch": 82, "duration": 30, "velocity": 65}, {"time": 135271, "pitch": 85, "duration": 10, "velocity": 110}, {"time": 135281, "pitch": 54, "duration": 10, "velocity": 50}, {"time": 135281, "pitch": 82, "duration": 20, "velocity": 45}, {"time": 135361, "pitch": 42, "duration": 30, "velocity": 60}, {"time": 135361, "pitch": 54, "duration": 10, "velocity": 125}, {"time": 135361, "pitch": 82, "duration": 20, "velocity": 80}, {"time": 135521, "pitch": 54, "duration": 10, "velocity": 60}, {"time": 135521, "pitch": 82, "duration": 20, "velocity": 45}, {"time": 135600, "pitch": 42, "duration": 50, "velocity": 100}, {"time": 135600, "pitch": 54, "duration": 30, "velocity": 90}, {"time": 135600, "pitch": 61, "duration": 20, "velocity": 70}, {"time": 135600, "pitch": 70, "duration": 10, "velocity": 105}, {"time": 135600, "pitch": 82, "duration": 40, "velocity": 65}, {"time": 135760, "pitch": 35, "duration": 10, "velocity": 115}, {"time": 135760, "pitch": 54, "duration": 30, "velocity": 50}, {"time": 135760, "pitch": 61, "duration": 20, "velocity": 65}, {"time": 135760, "pitch": 82, "duration": 40, "velocity": 45}, {"time": 135840, "pitch": 42, "duration": 39, "velocity": 60}, {"time": 135840, "pitch": 54, "duration": 19, "velocity": 95}, {"time": 135840, "pitch": 61, "duration": 10, "velocity": 65}, {"time": 135840, "pitch": 82, "duration": 29, "velocity": 80}, {"time": 135999, "pitch": 54, "duration": 20, "velocity": 60}, {"time": 135999, "pitch": 61, "duration": 10, "velocity": 50}, {"time": 135999, "pitch": 82, "duration": 30, "velocity": 45}, {"time": 136079, "pitch": 35, "duration": 10, "velocity": 95}, {"time": 136079, "pitch": 42, "duration": 50, "velocity": 80}, {"time": 136079, "pitch": 54, "duration": 30, "velocity": 80}, {"time": 136079, "pitch": 60, "duration": 20, "velocity": 80}, {"time": 136079, "pitch": 82, "duration": 40, "velocity": 65}, {"time": 136238, "pitch": 54, "duration": 10, "velocity": 50}, {"time": 136238, "pitch": 82, "duration": 20, "velocity": 45}, {"time": 136318, "pitch": 42, "duration": 30, "velocity": 60}, {"time": 136318, "pitch": 54, "duration": 10, "velocity": 125}, {"time": 136318, "pitch": 82, "duration": 20, "velocity": 80}, {"time": 136480, "pitch": 35, "duration": 10, "velocity": 75}, {"time": 136480, "pitch": 54, "duration": 30, "velocity": 60}, {"time": 136480, "pitch": 60, "duration": 20, "velocity": 50}, {"time": 136480, "pitch": 82, "duration": 40, "velocity": 45}, {"time": 136561, "pitch": 42, "duration": 40, "velocity": 100}, {"time": 136561, "pitch": 54, "duration": 20, "velocity": 90}, {"time": 136561, "pitch": 61, "duration": 10, "velocity": 70}, {"time": 136561, "pitch": 82, "duration": 30, "velocity": 65}, {"time": 136722, "pitch": 54, "duration": 31, "velocity": 50}, {"time": 136722, "pitch": 61, "duration": 21, "velocity": 65}, {"time": 136722, "pitch": 75, "duration": 10, "velocity": 105}, {"time": 136722, "pitch": 82, "duration": 41, "velocity": 45}, {"time": 136803, "pitch": 35, "duration": 10, "velocity": 115}, {"time": 136803, "pitch": 42, "duration": 50, "velocity": 60}, {"time": 136803, "pitch": 54, "duration": 30, "velocity": 95}, {"time": 136803, "pitch": 61, "duration": 20, "velocity": 65}, {"time": 136803, "pitch": 82, "duration": 40, "velocity": 80}, {"time": 136963, "pitch": 54, "duration": 20, "velocity": 60}, {"time": 136963, "pitch": 61, "duration": 10, "velocity": 50}, {"time": 136963, "pitch": 82, "duration": 30, "velocity": 45}, {"time": 137042, "pitch": 42, "duration": 40, "velocity": 80}, {"time": 137042, "pitch": 54, "duration": 20, "velocity": 80}, {"time": 137042, "pitch": 60, "duration": 10, "velocity": 80}, {"time": 137042, "pitch": 82, "duration": 30, "velocity": 65}, {"time": 137202, "pitch": 54, "duration": 10, "velocity": 50}, {"time": 137202, "pitch": 82, "duration": 20, "velocity": 45}, {"time": 137282, "pitch": 42, "duration": 29, "velocity": 60}, {"time": 137282, "pitch": 54, "duration": 10, "velocity": 125}, {"time": 137282, "pitch": 82, "duration": 20, "velocity": 80}, {"time": 137431, "pitch": 37, "duration": 10, "velocity": 95}, {"time": 137441, "pitch": 54, "duration": 10, "velocity": 60}, {"time": 137441, "pitch": 82, "duration": 20, "velocity": 45}, {"time": 137521, "pitch": 42, "duration": 50, "velocity": 100}, {"time": 137521, "pitch": 54, "duration": 30, "velocity": 90}, {"time": 137521, "pitch": 61, "duration": 20, "velocity": 70}, {"time": 137521, "pitch": 70, "duration": 10, "velocity": 105}, {"time": 137521, "pitch": 82, "duration": 40, "velocity": 65}, {"time": 137680, "pitch": 35, "duration": 10, "velocity": 115}, {"time": 137680, "pitch": 54, "duration": 30, "velocity": 50}, {"time": 137680, "pitch": 61, "duration": 20, "velocity": 65}, {"time": 137680, "pitch": 82, "duration": 40, "velocity": 45}, {"time": 137760, "pitch": 42, "duration": 40, "velocity": 60}, {"time": 137760, "pitch": 54, "duration": 20, "velocity": 95}, {"time": 137760, "pitch": 61, "duration": 10, "velocity": 65}, {"time": 137760, "pitch": 82, "duration": 30, "velocity": 80}, {"time": 137919, "pitch": 35, "duration": 10, "velocity": 75}, {"time": 137919, "pitch": 54, "duration": 30, "velocity": 60}, {"time": 137919, "pitch": 61, "duration": 20, "velocity": 50}, {"time": 137919, "pitch": 82, "duration": 40, "velocity": 45}, {"time": 137999, "pitch": 35, "duration": 10, "velocity": 115}, {"time": 137999, "pitch": 46, "duration": 50, "velocity": 110}, {"time": 137999, "pitch": 54, "duration": 30, "velocity": 80}, {"time": 137999, "pitch": 60, "duration": 20, "velocity": 80}, {"time": 137999, "pitch": 82, "duration": 40, "velocity": 65}, {"time": 138159, "pitch": 54, "duration": 10, "velocity": 50}, {"time": 138159, "pitch": 82, "duration": 20, "velocity": 45}, {"time": 138238, "pitch": 42, "duration": 30, "velocity": 60}, {"time": 138238, "pitch": 54, "duration": 10, "velocity": 125}, {"time": 138238, "pitch": 82, "duration": 20, "velocity": 80}, {"time": 138388, "pitch": 41, "duration": 10, "velocity": 55}, {"time": 138388, "pitch": 56, "duration": 10, "velocity": 65}, {"time": 138398, "pitch": 42, "duration": 40, "velocity": 80}, {"time": 138398, "pitch": 54, "duration": 20, "velocity": 60}, {"time": 138398, "pitch": 60, "duration": 10, "velocity": 50}, {"time": 138398, "pitch": 82, "duration": 30, "velocity": 45}, {"time": 138478, "pitch": 35, "duration": 19, "velocity": 75}, {"time": 138478, "pitch": 42, "duration": 59, "velocity": 100}, {"time": 138478, "pitch": 54, "duration": 39, "velocity": 90}, {"time": 138478, "pitch": 56, "duration": 10, "velocity": 105}, {"time": 138478, "pitch": 61, "duration": 29, "velocity": 70}, {"time": 138478, "pitch": 82, "duration": 49, "velocity": 65}, {"time": 138637, "pitch": 54, "duration": 20, "velocity": 50}, {"time": 138637, "pitch": 61, "duration": 10, "velocity": 65}, {"time": 138637, "pitch": 82, "duration": 30, "velocity": 45}, {"time": 138717, "pitch": 54, "duration": 20, "velocity": 95}, {"time": 138717, "pitch": 61, "duration": 10, "velocity": 65}, {"time": 138717, "pitch": 82, "duration": 30, "velocity": 80}, {"time": 138878, "pitch": 54, "duration": 21, "velocity": 60}, {"time": 138878, "pitch": 61, "duration": 11, "velocity": 50}, {"time": 138878, "pitch": 82, "duration": 31, "velocity": 45}, {"time": 138959, "pitch": 54, "duration": 21, "velocity": 80}, {"time": 138959, "pitch": 60, "duration": 10, "velocity": 80}, {"time": 138959, "pitch": 82, "duration": 31, "velocity": 65}, {"time": 139121, "pitch": 54, "duration": 20, "velocity": 50}, {"time": 139121, "pitch": 82, "duration": 30, "velocity": 45}, {"time": 139121, "pitch": 85, "duration": 10, "velocity": 110}, {"time": 139202, "pitch": 54, "duration": 10, "velocity": 125}, {"time": 139202, "pitch": 82, "duration": 20, "velocity": 80}, {"time": 139361, "pitch": 54, "duration": 10, "velocity": 60}, {"time": 139361, "pitch": 82, "duration": 20, "velocity": 45}, {"time": 139441, "pitch": 54, "duration": 30, "velocity": 90}, {"time": 139441, "pitch": 61, "duration": 20, "velocity": 70}, {"time": 139441, "pitch": 70, "duration": 10, "velocity": 105}, {"time": 139441, "pitch": 82, "duration": 40, "velocity": 65}, {"time": 139601, "pitch": 54, "duration": 20, "velocity": 50}, {"time": 139601, "pitch": 61, "duration": 10, "velocity": 65}, {"time": 139601, "pitch": 82, "duration": 30, "velocity": 45}, {"time": 139680, "pitch": 54, "duration": 20, "velocity": 95}, {"time": 139680, "pitch": 61, "duration": 10, "velocity": 65}, {"time": 139680, "pitch": 82, "duration": 30, "velocity": 80}, {"time": 139840, "pitch": 54, "duration": 20, "velocity": 60}, {"time": 139840, "pitch": 61, "duration": 10, "velocity": 50}, {"time": 139840, "pitch": 82, "duration": 30, "velocity": 45}, {"time": 139920, "pitch": 54, "duration": 20, "velocity": 80}, {"time": 139920, "pitch": 60, "duration": 10, "velocity": 80}, {"time": 139920, "pitch": 82, "duration": 29, "velocity": 65}, {"time": 140079, "pitch": 54, "duration": 10, "velocity": 50}, {"time": 140079, "pitch": 82, "duration": 20, "velocity": 45}, {"time": 140159, "pitch": 54, "duration": 10, "velocity": 125}, {"time": 140159, "pitch": 82, "duration": 20, "velocity": 80}, {"time": 140318, "pitch": 54, "duration": 20, "velocity": 60}, {"time": 140318, "pitch": 60, "duration": 10, "velocity": 50}, {"time": 140318, "pitch": 82, "duration": 30, "velocity": 45}, {"time": 140398, "pitch": 54, "duration": 20, "velocity": 90}, {"time": 140398, "pitch": 61, "duration": 10, "velocity": 70}, {"time": 140398, "pitch": 82, "duration": 30, "velocity": 65}, {"time": 140557, "pitch": 54, "duration": 30, "velocity": 50}, {"time": 140557, "pitch": 61, "duration": 20, "velocity": 65}, {"time": 140557, "pitch": 75, "duration": 10, "velocity": 105}, {"time": 140557, "pitch": 82, "duration": 40, "velocity": 45}, {"time": 140637, "pitch": 54, "duration": 20, "velocity": 95}, {"time": 140637, "pitch": 61, "duration": 10, "velocity": 65}, {"time": 140637, "pitch": 82, "duration": 30, "velocity": 80}, {"time": 140799, "pitch": 54, "duration": 20, "velocity": 60}, {"time": 140799, "pitch": 61, "duration": 10, "velocity": 50}, {"time": 140799, "pitch": 82, "duration": 30, "velocity": 45}, {"time": 140880, "pitch": 54, "duration": 20, "velocity": 80}, {"time": 140880, "pitch": 60, "duration": 10, "velocity": 80}, {"time": 140880, "pitch": 82, "duration": 30, "velocity": 65}, {"time": 141042, "pitch": 54, "duration": 10, "velocity": 50}, {"time": 141042, "pitch": 82, "duration": 20, "velocity": 45}, {"time": 141122, "pitch": 54, "duration": 10, "velocity": 125}, {"time": 141122, "pitch": 82, "duration": 20, "velocity": 80}, {"time": 141282, "pitch": 37, "duration": 10, "velocity": 95}, {"time": 141282, "pitch": 54, "duration": 20, "velocity": 60}, {"time": 141282, "pitch": 82, "duration": 30, "velocity": 45}, {"time": 141362, "pitch": 54, "duration": 30, "velocity": 90}, {"time": 141362, "pitch": 61, "duration": 20, "velocity": 70}, {"time": 141362, "pitch": 70, "duration": 10, "velocity": 105}, {"time": 141362, "pitch": 82, "duration": 39, "velocity": 65}, {"time": 141521, "pitch": 54, "duration": 20, "velocity": 50}, {"time": 141521, "pitch": 61, "duration": 10, "velocity": 65}, {"time": 141521, "pitch": 82, "duration": 30, "velocity": 45}, {"time": 141601, "pitch": 29, "duration": 80, "velocity": 105}, {"time": 141601, "pitch": 54, "duration": 30, "velocity": 95}, {"time": 141601, "pitch": 61, "duration": 20, "velocity": 65}, {"time": 141601, "pitch": 82, "duration": 40, "velocity": 80}, {"time": 141760, "pitch": 54, "duration": 20, "velocity": 60}, {"time": 141760, "pitch": 61, "duration": 10, "velocity": 50}, {"time": 141760, "pitch": 82, "duration": 30, "velocity": 45}, {"time": 141840, "pitch": 29, "duration": 80, "velocity": 90}, {"time": 141840, "pitch": 54, "duration": 30, "velocity": 80}, {"time": 141840, "pitch": 60, "duration": 20, "velocity": 80}, {"time": 141840, "pitch": 82, "duration": 40, "velocity": 65}, {"time": 141999, "pitch": 29, "duration": 80, "velocity": 105}, {"time": 141999, "pitch": 54, "duration": 20, "velocity": 50}, {"time": 141999, "pitch": 82, "duration": 30, "velocity": 45}, {"time": 142079, "pitch": 54, "duration": 10, "velocity": 125}, {"time": 142079, "pitch": 82, "duration": 20, "velocity": 80}, {"time": 142239, "pitch": 29, "duration": 79, "velocity": 85}, {"time": 142239, "pitch": 54, "duration": 40, "velocity": 60}, {"time": 142239, "pitch": 56, "duration": 20, "velocity": 65}, {"time": 142239, "pitch": 60, "duration": 30, "velocity": 50}, {"time": 142239, "pitch": 82, "duration": 50, "velocity": 45}, {"time": 142318, "pitch": 29, "duration": 80, "velocity": 100}, {"time": 142318, "pitch": 54, "duration": 40, "velocity": 90}, {"time": 142318, "pitch": 56, "duration": 20, "velocity": 105}, {"time": 142318, "pitch": 61, "duration": 30, "velocity": 70}, {"time": 142318, "pitch": 82, "duration": 50, "velocity": 65}, {"time": 142478, "pitch": 29, "duration": 80, "velocity": 105}, {"time": 142478, "pitch": 54, "duration": 30, "velocity": 50}, {"time": 142478, "pitch": 61, "duration": 20, "velocity": 65}, {"time": 142478, "pitch": 82, "duration": 40, "velocity": 45}, {"time": 142558, "pitch": 54, "duration": 20, "velocity": 95}, {"time": 142558, "pitch": 61, "duration": 10, "velocity": 65}, {"time": 142558, "pitch": 82, "duration": 30, "velocity": 80}, {"time": 142719, "pitch": 54, "duration": 21, "velocity": 60}, {"time": 142719, "pitch": 61, "duration": 10, "velocity": 50}, {"time": 142719, "pitch": 82, "duration": 31, "velocity": 45}, {"time": 142800, "pitch": 54, "duration": 20, "velocity": 80}, {"time": 142800, "pitch": 60, "duration": 10, "velocity": 80}, {"time": 142800, "pitch": 82, "duration": 31, "velocity": 65}, {"time": 142962, "pitch": 54, "duration": 20, "velocity": 50}, {"time": 142962, "pitch": 82, "duration": 30, "velocity": 45}, {"time": 142962, "pitch": 85, "duration": 10, "velocity": 110}, {"time": 143043, "pitch": 54, "duration": 10, "velocity": 125}, {"time": 143043, "pitch": 82, "duration": 20, "velocity": 80}, {"time": 143202, "pitch": 54, "duration": 10, "velocity": 60}, {"time": 143202, "pitch": 82, "duration": 20, "velocity": 45}, {"time": 143282, "pitch": 54, "duration": 30, "velocity": 90}, {"time": 143282, "pitch": 61, "duration": 20, "velocity": 70}, {"time": 143282, "pitch": 70, "duration": 10, "velocity": 105}, {"time": 143282, "pitch": 82, "duration": 40, "velocity": 65}, {"time": 143442, "pitch": 54, "duration": 19, "velocity": 50}, {"time": 143442, "pitch": 61, "duration": 9, "velocity": 65}, {"time": 143442, "pitch": 82, "duration": 29, "velocity": 45}, {"time": 143521, "pitch": 54, "duration": 20, "velocity": 95}, {"time": 143521, "pitch": 61, "duration": 10, "velocity": 65}, {"time": 143521, "pitch": 82, "duration": 30, "velocity": 80}, {"time": 143681, "pitch": 54, "duration": 20, "velocity": 60}, {"time": 143681, "pitch": 61, "duration": 10, "velocity": 50}, {"time": 143681, "pitch": 82, "duration": 30, "velocity": 45}, {"time": 143760, "pitch": 54, "duration": 20, "velocity": 80}, {"time": 143760, "pitch": 60, "duration": 10, "velocity": 80}, {"time": 143760, "pitch": 82, "duration": 30, "velocity": 65}, {"time": 143920, "pitch": 54, "duration": 10, "velocity": 50}, {"time": 143920, "pitch": 82, "duration": 20, "velocity": 45}, {"time": 144000, "pitch": 54, "duration": 10, "velocity": 125}, {"time": 144000, "pitch": 82, "duration": 20, "velocity": 80}, {"time": 144159, "pitch": 54, "duration": 20, "velocity": 60}, {"time": 144159, "pitch": 60, "duration": 10, "velocity": 50}, {"time": 144159, "pitch": 82, "duration": 30, "velocity": 45}, {"time": 144239, "pitch": 54, "duration": 20, "velocity": 90}, {"time": 144239, "pitch": 61, "duration": 10, "velocity": 70}, {"time": 144239, "pitch": 82, "duration": 30, "velocity": 65}, {"time": 144398, "pitch": 54, "duration": 30, "velocity": 50}, {"time": 144398, "pitch": 61, "duration": 20, "velocity": 65}, {"time": 144398, "pitch": 75, "duration": 10, "velocity": 105}, {"time": 144398, "pitch": 82, "duration": 40, "velocity": 45}, {"time": 144478, "pitch": 29, "duration": 81, "velocity": 100}, {"time": 144478, "pitch": 54, "duration": 30, "velocity": 95}, {"time": 144478, "pitch": 61, "duration": 20, "velocity": 65}, {"time": 144478, "pitch": 82, "duration": 40, "velocity": 80}, {"time": 144640, "pitch": 30, "duration": 81, "velocity": 105}, {"time": 144640, "pitch": 54, "duration": 30, "velocity": 60}, {"time": 144640, "pitch": 61, "duration": 20, "velocity": 50}, {"time": 144640, "pitch": 82, "duration": 40, "velocity": 45}, {"time": 144721, "pitch": 30, "duration": 81, "velocity": 90}, {"time": 144721, "pitch": 54, "duration": 30, "velocity": 80}, {"time": 144721, "pitch": 60, "duration": 20, "velocity": 80}, {"time": 144721, "pitch": 82, "duration": 40, "velocity": 65}, {"time": 144882, "pitch": 29, "duration": 81, "velocity": 95}, {"time": 144882, "pitch": 54, "duration": 21, "velocity": 50}, {"time": 144882, "pitch": 82, "duration": 31, "velocity": 45}, {"time": 144963, "pitch": 29, "duration": 80, "velocity": 105}, {"time": 144963, "pitch": 54, "duration": 20, "velocity": 125}, {"time": 144963, "pitch": 82, "duration": 30, "velocity": 80}, {"time": 145123, "pitch": 30, "duration": 79, "velocity": 85}, {"time": 145123, "pitch": 37, "duration": 20, "velocity": 95}, {"time": 145123, "pitch": 54, "duration": 30, "velocity": 60}, {"time": 145123, "pitch": 82, "duration": 40, "velocity": 45}, {"time": 145202, "pitch": 42, "duration": 50, "velocity": 100}, {"time": 145202, "pitch": 54, "duration": 30, "velocity": 90}, {"time": 145202, "pitch": 61, "duration": 20, "velocity": 70}, {"time": 145202, "pitch": 70, "duration": 10, "velocity": 105}, {"time": 145202, "pitch": 82, "duration": 40, "velocity": 65}, {"time": 145362, "pitch": 29, "duration": 80, "velocity": 90}, {"time": 145362, "pitch": 35, "duration": 20, "velocity": 75}, {"time": 145362, "pitch": 54, "duration": 40, "velocity": 50}, {"time": 145362, "pitch": 61, "duration": 30, "velocity": 65}, {"time": 145362, "pitch": 82, "duration": 50, "velocity": 45}, {"time": 145442, "pitch": 29, "duration": 79, "velocity": 100}, {"time": 145442, "pitch": 35, "duration": 20, "velocity": 115}, {"time": 145442, "pitch": 42, "duration": 59, "velocity": 60}, {"time": 145442, "pitch": 54, "duration": 40, "velocity": 95}, {"time": 145442, "pitch": 61, "duration": 30, "velocity": 65}, {"time": 145442, "pitch": 82, "duration": 49, "velocity": 80}, {"time": 145601, "pitch": 30, "duration": 80, "velocity": 105}, {"time": 145601, "pitch": 54, "duration": 30, "velocity": 60}, {"time": 145601, "pitch": 61, "duration": 20, "velocity": 50}, {"time": 145601, "pitch": 82, "duration": 40, "velocity": 45}, {"time": 145681, "pitch": 30, "duration": 80, "velocity": 90}, {"time": 145681, "pitch": 42, "duration": 50, "velocity": 100}, {"time": 145681, "pitch": 54, "duration": 30, "velocity": 80}, {"time": 145681, "pitch": 60, "duration": 20, "velocity": 80}, {"time": 145681, "pitch": 82, "duration": 40, "velocity": 65}, {"time": 145840, "pitch": 29, "duration": 80, "velocity": 95}, {"time": 145840, "pitch": 35, "duration": 20, "velocity": 75}, {"time": 145840, "pitch": 54, "duration": 30, "velocity": 50}, {"time": 145840, "pitch": 82, "duration": 40, "velocity": 45}, {"time": 145920, "pitch": 29, "duration": 80, "velocity": 105}, {"time": 145920, "pitch": 54, "duration": 20, "velocity": 95}, {"time": 145920, "pitch": 82, "duration": 30, "velocity": 80}, {"time": 146080, "pitch": 29, "duration": 79, "velocity": 85}, {"time": 146080, "pitch": 35, "duration": 19, "velocity": 75}, {"time": 146159, "pitch": 30, "duration": 80, "velocity": 95}, {"time": 146159, "pitch": 35, "duration": 20, "velocity": 115}, {"time": 146159, "pitch": 46, "duration": 30, "velocity": 110}, {"time": 146398, "pitch": 35, "duration": 10, "velocity": 115}, {"time": 146398, "pitch": 42, "duration": 40, "velocity": 60}, {"time": 146398, "pitch": 61, "duration": 20, "velocity": 65}, {"time": 146398, "pitch": 82, "duration": 30, "velocity": 80}, {"time": 146558, "pitch": 61, "duration": 10, "velocity": 50}, {"time": 146558, "pitch": 82, "duration": 20, "velocity": 45}, {"time": 146638, "pitch": 42, "duration": 30, "velocity": 80}, {"time": 146638, "pitch": 60, "duration": 10, "velocity": 80}, {"time": 146638, "pitch": 82, "duration": 20, "velocity": 65}, {"time": 146787, "pitch": 85, "duration": 10, "velocity": 110}, {"time": 146797, "pitch": 82, "duration": 10, "velocity": 45}, {"time": 146877, "pitch": 42, "duration": 20, "velocity": 60}, {"time": 146877, "pitch": 82, "duration": 10, "velocity": 80}, {"time": 147039, "pitch": 82, "duration": 10, "velocity": 45}, {"time": 147119, "pitch": 42, "duration": 41, "velocity": 100}, {"time": 147119, "pitch": 61, "duration": 21, "velocity": 70}, {"time": 147119, "pitch": 70, "duration": 11, "velocity": 105}, {"time": 147119, "pitch": 82, "duration": 31, "velocity": 65}, {"time": 147281, "pitch": 35, "duration": 10, "velocity": 95}, {"time": 147281, "pitch": 61, "duration": 20, "velocity": 65}, {"time": 147281, "pitch": 82, "duration": 31, "velocity": 45}, {"time": 147362, "pitch": 35, "duration": 10, "velocity": 115}, {"time": 147362, "pitch": 42, "duration": 40, "velocity": 60}, {"time": 147362, "pitch": 61, "duration": 20, "velocity": 65}, {"time": 147362, "pitch": 82, "duration": 30, "velocity": 80}, {"time": 147522, "pitch": 61, "duration": 10, "velocity": 50}, {"time": 147522, "pitch": 82, "duration": 19, "velocity": 45}, {"time": 147601, "pitch": 35, "duration": 10, "velocity": 95}, {"time": 147601, "pitch": 42, "duration": 40, "velocity": 80}, {"time": 147601, "pitch": 60, "duration": 20, "velocity": 80}, {"time": 147601, "pitch": 82, "duration": 30, "velocity": 65}, {"time": 147761, "pitch": 82, "duration": 10, "velocity": 45}, {"time": 147840, "pitch": 42, "duration": 20, "velocity": 60}, {"time": 147840, "pitch": 82, "duration": 10, "velocity": 80}, {"time": 148000, "pitch": 60, "duration": 10, "velocity": 50}, {"time": 148000, "pitch": 82, "duration": 20, "velocity": 45}, {"time": 148080, "pitch": 42, "duration": 30, "velocity": 100}, {"time": 148080, "pitch": 61, "duration": 10, "velocity": 70}, {"time": 148080, "pitch": 82, "duration": 20, "velocity": 65}, {"time": 148239, "pitch": 61, "duration": 20, "velocity": 65}, {"time": 148239, "pitch": 75, "duration": 10, "velocity": 105}, {"time": 148239, "pitch": 82, "duration": 30, "velocity": 45}, {"time": 148319, "pitch": 35, "duration": 10, "velocity": 115}, {"time": 148319, "pitch": 42, "duration": 40, "velocity": 60}, {"time": 148319, "pitch": 61, "duration": 20, "velocity": 65}, {"time": 148319, "pitch": 82, "duration": 30, "velocity": 80}, {"time": 148478, "pitch": 61, "duration": 10, "velocity": 50}, {"time": 148478, "pitch": 82, "duration": 20, "velocity": 45}, {"time": 148558, "pitch": 42, "duration": 30, "velocity": 80}, {"time": 148558, "pitch": 60, "duration": 10, "velocity": 80}, {"time": 148558, "pitch": 82, "duration": 20, "velocity": 65}, {"time": 148718, "pitch": 82, "duration": 10, "velocity": 45}, {"time": 148797, "pitch": 42, "duration": 20, "velocity": 60}, {"time": 148797, "pitch": 82, "duration": 10, "velocity": 80}, {"time": 148949, "pitch": 37, "duration": 10, "velocity": 95}, {"time": 148959, "pitch": 82, "duration": 10, "velocity": 45}, {"time": 149040, "pitch": 42, "duration": 40, "velocity": 100}, {"time": 149040, "pitch": 61, "duration": 20, "velocity": 70}, {"time": 149040, "pitch": 70, "duration": 10, "velocity": 105}, {"time": 149040, "pitch": 82, "duration": 30, "velocity": 65}, {"time": 149202, "pitch": 35, "duration": 10, "velocity": 115}, {"time": 149202, "pitch": 61, "duration": 20, "velocity": 65}, {"time": 149202, "pitch": 82, "duration": 30, "velocity": 45}, {"time": 149283, "pitch": 42, "duration": 29, "velocity": 60}, {"time": 149283, "pitch": 61, "duration": 9, "velocity": 65}, {"time": 149283, "pitch": 82, "duration": 19, "velocity": 80}, {"time": 149442, "pitch": 35, "duration": 10, "velocity": 75}, {"time": 149442, "pitch": 61, "duration": 20, "velocity": 50}, {"time": 149442, "pitch": 82, "duration": 30, "velocity": 45}, {"time": 149522, "pitch": 35, "duration": 10, "velocity": 115}, {"time": 149522, "pitch": 46, "duration": 40, "velocity": 110}, {"time": 149522, "pitch": 60, "duration": 20, "velocity": 80}, {"time": 149522, "pitch": 82, "duration": 30, "velocity": 65}, {"time": 149681, "pitch": 82, "duration": 10, "velocity": 45}, {"time": 149761, "pitch": 42, "duration": 20, "velocity": 60}, {"time": 149761, "pitch": 82, "duration": 10, "velocity": 80}, {"time": 149910, "pitch": 56, "duration": 10, "velocity": 65}, {"time": 149920, "pitch": 60, "duration": 10, "velocity": 50}, {"time": 149920, "pitch": 82, "duration": 20, "velocity": 45}, {"time": 150000, "pitch": 42, "duration": 40, "velocity": 100}, {"time": 150000, "pitch": 56, "duration": 10, "velocity": 105}, {"time": 150000, "pitch": 61, "duration": 20, "velocity": 70}, {"time": 150000, "pitch": 82, "duration": 30, "velocity": 65}, {"time": 150160, "pitch": 35, "duration": 10, "velocity": 75}, {"time": 150160, "pitch": 61, "duration": 20, "velocity": 65}, {"time": 150160, "pitch": 82, "duration": 29, "velocity": 45}, {"time": 150239, "pitch": 35, "duration": 10, "velocity": 115}, {"time": 150239, "pitch": 42, "duration": 40, "velocity": 60}, {"time": 150239, "pitch": 61, "duration": 20, "velocity": 65}, {"time": 150239, "pitch": 82, "duration": 30, "velocity": 80}, {"time": 150399, "pitch": 61, "duration": 10, "velocity": 50}, {"time": 150399, "pitch": 82, "duration": 20, "velocity": 45}, {"time": 150478, "pitch": 42, "duration": 30, "velocity": 80}, {"time": 150478, "pitch": 60, "duration": 10, "velocity": 80}, {"time": 150478, "pitch": 82, "duration": 20, "velocity": 65}, {"time": 150628, "pitch": 85, "duration": 10, "velocity": 110}, {"time": 150638, "pitch": 82, "duration": 10, "velocity": 45}, {"time": 150718, "pitch": 42, "duration": 20, "velocity": 60}, {"time": 150718, "pitch": 82, "duration": 10, "velocity": 80}, {"time": 150879, "pitch": 82, "duration": 11, "velocity": 45}, {"time": 150960, "pitch": 42, "duration": 41, "velocity": 100}, {"time": 150960, "pitch": 61, "duration": 21, "velocity": 70}, {"time": 150960, "pitch": 70, "duration": 10, "velocity": 105}, {"time": 150960, "pitch": 82, "duration": 31, "velocity": 65}, {"time": 151122, "pitch": 35, "duration": 10, "velocity": 115}, {"time": 151122, "pitch": 61, "duration": 20, "velocity": 65}, {"time": 151122, "pitch": 82, "duration": 30, "velocity": 45}, {"time": 151203, "pitch": 42, "duration": 30, "velocity": 60}, {"time": 151203, "pitch": 61, "duration": 10, "velocity": 65}, {"time": 151203, "pitch": 82, "duration": 20, "velocity": 80}, {"time": 151362, "pitch": 61, "duration": 10, "velocity": 50}, {"time": 151362, "pitch": 82, "duration": 20, "velocity": 45}, {"time": 151442, "pitch": 35, "duration": 10, "velocity": 95}, {"time": 151442, "pitch": 42, "duration": 40, "velocity": 80}, {"time": 151442, "pitch": 60, "duration": 20, "velocity": 80}, {"time": 151442, "pitch": 82, "duration": 30, "velocity": 65}, {"time": 151602, "pitch": 82, "duration": 10, "velocity": 45}, {"time": 151681, "pitch": 42, "duration": 20, "velocity": 60}, {"time": 151681, "pitch": 82, "duration": 10, "velocity": 80}, {"time": 151841, "pitch": 35, "duration": 10, "velocity": 75}, {"time": 151841, "pitch": 60, "duration": 20, "velocity": 50}, {"time": 151841, "pitch": 82, "duration": 30, "velocity": 45}, {"time": 151921, "pitch": 42, "duration": 29, "velocity": 100}, {"time": 151921, "pitch": 61, "duration": 9, "velocity": 70}, {"time": 151921, "pitch": 82, "duration": 19, "velocity": 65}, {"time": 152080, "pitch": 61, "duration": 20, "velocity": 65}, {"time": 152080, "pitch": 75, "duration": 10, "velocity": 105}, {"time": 152080, "pitch": 82, "duration": 30, "velocity": 45}, {"time": 152160, "pitch": 35, "duration": 10, "velocity": 115}, {"time": 152160, "pitch": 42, "duration": 40, "velocity": 60}, {"time": 152160, "pitch": 61, "duration": 20, "velocity": 65}, {"time": 152160, "pitch": 82, "duration": 30, "velocity": 80}, {"time": 152319, "pitch": 61, "duration": 10, "velocity": 50}, {"time": 152319, "pitch": 82, "duration": 20, "velocity": 45}, {"time": 152399, "pitch": 42, "duration": 30, "velocity": 80}, {"time": 152399, "pitch": 60, "duration": 10, "velocity": 80}, {"time": 152399, "pitch": 82, "duration": 20, "velocity": 65}, {"time": 152558, "pitch": 82, "duration": 10, "velocity": 45}, {"time": 152638, "pitch": 42, "duration": 20, "velocity": 60}, {"time": 152638, "pitch": 82, "duration": 10, "velocity": 80}, {"time": 152790, "pitch": 37, "duration": 10, "velocity": 95}, {"time": 152800, "pitch": 82, "duration": 10, "velocity": 45}, {"time": 152881, "pitch": 42, "duration": 40, "velocity": 100}, {"time": 152881, "pitch": 61, "duration": 20, "velocity": 70}, {"time": 152881, "pitch": 70, "duration": 10, "velocity": 105}, {"time": 152881, "pitch": 82, "duration": 30, "velocity": 65}, {"time": 153043, "pitch": 35, "duration": 10, "velocity": 115}, {"time": 153043, "pitch": 61, "duration": 20, "velocity": 65}, {"time": 153043, "pitch": 82, "duration": 30, "velocity": 45}, {"time": 153123, "pitch": 42, "duration": 30, "velocity": 60}, {"time": 153123, "pitch": 61, "duration": 10, "velocity": 65}, {"time": 153123, "pitch": 82, "duration": 20, "velocity": 80}, {"time": 153283, "pitch": 35, "duration": 10, "velocity": 75}, {"time": 153283, "pitch": 61, "duration": 20, "velocity": 50}, {"time": 153283, "pitch": 82, "duration": 30, "velocity": 45}, {"time": 153363, "pitch": 35, "duration": 10, "velocity": 115}, {"time": 153363, "pitch": 46, "duration": 39, "velocity": 110}, {"time": 153363, "pitch": 60, "duration": 19, "velocity": 80}, {"time": 153363, "pitch": 82, "duration": 29, "velocity": 65}, {"time": 153522, "pitch": 82, "duration": 10, "velocity": 45}, {"time": 153602, "pitch": 42, "duration": 20, "velocity": 60}, {"time": 153602, "pitch": 82, "duration": 10, "velocity": 80}, {"time": 153751, "pitch": 41, "duration": 10, "velocity": 55}, {"time": 153751, "pitch": 56, "duration": 10, "velocity": 65}, {"time": 153761, "pitch": 60, "duration": 10, "velocity": 50}, {"time": 153761, "pitch": 82, "duration": 20, "velocity": 45}, {"time": 153841, "pitch": 35, "duration": 20, "velocity": 75}, {"time": 153841, "pitch": 42, "duration": 50, "velocity": 100}, {"time": 153841, "pitch": 56, "duration": 10, "velocity": 105}, {"time": 153841, "pitch": 61, "duration": 30, "velocity": 70}, {"time": 153841, "pitch": 82, "duration": 40, "velocity": 65}, {"time": 154000, "pitch": 61, "duration": 10, "velocity": 65}, {"time": 154000, "pitch": 82, "duration": 20, "velocity": 45}, {"time": 154080, "pitch": 35, "duration": 10, "velocity": 115}, {"time": 154080, "pitch": 42, "duration": 40, "velocity": 60}, {"time": 154080, "pitch": 61, "duration": 20, "velocity": 65}, {"time": 154080, "pitch": 82, "duration": 30, "velocity": 80}, {"time": 154240, "pitch": 61, "duration": 10, "velocity": 50}, {"time": 154240, "pitch": 82, "duration": 20, "velocity": 45}, {"time": 154319, "pitch": 42, "duration": 30, "velocity": 80}, {"time": 154319, "pitch": 60, "duration": 10, "velocity": 80}, {"time": 154319, "pitch": 82, "duration": 20, "velocity": 65}, {"time": 154469, "pitch": 85, "duration": 10, "velocity": 110}, {"time": 154479, "pitch": 82, "duration": 10, "velocity": 45}, {"time": 154559, "pitch": 42, "duration": 19, "velocity": 60}, {"time": 154559, "pitch": 82, "duration": 10, "velocity": 80}, {"time": 154718, "pitch": 82, "duration": 10, "velocity": 45}, {"time": 154798, "pitch": 42, "duration": 40, "velocity": 100}, {"time": 154798, "pitch": 61, "duration": 20, "velocity": 70}, {"time": 154798, "pitch": 70, "duration": 10, "velocity": 105}, {"time": 154798, "pitch": 82, "duration": 30, "velocity": 65}, {"time": 154957, "pitch": 35, "duration": 10, "velocity": 95}, {"time": 154957, "pitch": 61, "duration": 20, "velocity": 65}, {"time": 154957, "pitch": 82, "duration": 30, "velocity": 45}, {"time": 155037, "pitch": 35, "duration": 10, "velocity": 115}, {"time": 155037, "pitch": 42, "duration": 40, "velocity": 60}, {"time": 155037, "pitch": 61, "duration": 20, "velocity": 65}, {"time": 155037, "pitch": 82, "duration": 30, "velocity": 80}, {"time": 155199, "pitch": 61, "duration": 10, "velocity": 50}, {"time": 155199, "pitch": 82, "duration": 20, "velocity": 45}, {"time": 155280, "pitch": 35, "duration": 10, "velocity": 95}, {"time": 155280, "pitch": 42, "duration": 40, "velocity": 80}, {"time": 155280, "pitch": 60, "duration": 20, "velocity": 80}, {"time": 155280, "pitch": 82, "duration": 30, "velocity": 65}, {"time": 155441, "pitch": 82, "duration": 10, "velocity": 45}, {"time": 155522, "pitch": 42, "duration": 20, "velocity": 60}, {"time": 155522, "pitch": 82, "duration": 10, "velocity": 80}, {"time": 155682, "pitch": 60, "duration": 10, "velocity": 50}, {"time": 155682, "pitch": 82, "duration": 20, "velocity": 45}, {"time": 155761, "pitch": 42, "duration": 30, "velocity": 100}, {"time": 155761, "pitch": 61, "duration": 10, "velocity": 70}, {"time": 155761, "pitch": 82, "duration": 20, "velocity": 65}, {"time": 155921, "pitch": 61, "duration": 20, "velocity": 65}, {"time": 155921, "pitch": 75, "duration": 10, "velocity": 105}, {"time": 155921, "pitch": 82, "duration": 30, "velocity": 45}, {"time": 156001, "pitch": 35, "duration": 10, "velocity": 115}, {"time": 156001, "pitch": 42, "duration": 39, "velocity": 60}, {"time": 156001, "pitch": 61, "duration": 20, "velocity": 65}, {"time": 156001, "pitch": 82, "duration": 29, "velocity": 80}, {"time": 156160, "pitch": 61, "duration": 10, "velocity": 50}, {"time": 156160, "pitch": 82, "duration": 20, "velocity": 45}, {"time": 156240, "pitch": 42, "duration": 30, "velocity": 80}, {"time": 156240, "pitch": 60, "duration": 10, "velocity": 80}, {"time": 156240, "pitch": 82, "duration": 20, "velocity": 65}, {"time": 156399, "pitch": 82, "duration": 10, "velocity": 45}, {"time": 156479, "pitch": 42, "duration": 20, "velocity": 60}, {"time": 156479, "pitch": 82, "duration": 10, "velocity": 80}, {"time": 156628, "pitch": 37, "duration": 10, "velocity": 95}, {"time": 156638, "pitch": 82, "duration": 10, "velocity": 45}, {"time": 156718, "pitch": 42, "duration": 40, "velocity": 100}, {"time": 156718, "pitch": 61, "duration": 20, "velocity": 70}, {"time": 156718, "pitch": 70, "duration": 10, "velocity": 105}, {"time": 156718, "pitch": 82, "duration": 30, "velocity": 65}, {"time": 156878, "pitch": 35, "duration": 10, "velocity": 115}, {"time": 156878, "pitch": 61, "duration": 20, "velocity": 65}, {"time": 156878, "pitch": 82, "duration": 30, "velocity": 45}, {"time": 156957, "pitch": 42, "duration": 31, "velocity": 60}, {"time": 156957, "pitch": 61, "duration": 10, "velocity": 65}, {"time": 156957, "pitch": 82, "duration": 21, "velocity": 80}, {"time": 157119, "pitch": 35, "duration": 10, "velocity": 75}, {"time": 157119, "pitch": 61, "duration": 20, "velocity": 50}, {"time": 157119, "pitch": 82, "duration": 30, "velocity": 45}, {"time": 157200, "pitch": 35, "duration": 10, "velocity": 115}, {"time": 157200, "pitch": 46, "duration": 40, "velocity": 110}, {"time": 157200, "pitch": 60, "duration": 20, "velocity": 80}, {"time": 157200, "pitch": 82, "duration": 30, "velocity": 65}, {"time": 157362, "pitch": 82, "duration": 10, "velocity": 45}, {"time": 157443, "pitch": 42, "duration": 20, "velocity": 60}, {"time": 157443, "pitch": 82, "duration": 10, "velocity": 80}, {"time": 157592, "pitch": 56, "duration": 10, "velocity": 65}, {"time": 157602, "pitch": 60, "duration": 10, "velocity": 50}, {"time": 157602, "pitch": 82, "duration": 20, "velocity": 45}, {"time": 157682, "pitch": 42, "duration": 40, "velocity": 100}, {"time": 157682, "pitch": 56, "duration": 10, "velocity": 105}, {"time": 157682, "pitch": 61, "duration": 20, "velocity": 70}, {"time": 157682, "pitch": 82, "duration": 30, "velocity": 65}, {"time": 157841, "pitch": 35, "duration": 10, "velocity": 75}, {"time": 157841, "pitch": 61, "duration": 20, "velocity": 65}, {"time": 157841, "pitch": 82, "duration": 30, "velocity": 45}, {"time": 157921, "pitch": 35, "duration": 10, "velocity": 115}, {"time": 157921, "pitch": 42, "duration": 40, "velocity": 60}, {"time": 157921, "pitch": 61, "duration": 20, "velocity": 65}, {"time": 157921, "pitch": 82, "duration": 30, "velocity": 80}, {"time": 158080, "pitch": 61, "duration": 10, "velocity": 50}, {"time": 158080, "pitch": 82, "duration": 20, "velocity": 45}, {"time": 158160, "pitch": 42, "duration": 30, "velocity": 80}, {"time": 158160, "pitch": 60, "duration": 10, "velocity": 80}, {"time": 158160, "pitch": 82, "duration": 20, "velocity": 65}, {"time": 158310, "pitch": 85, "duration": 10, "velocity": 110}, {"time": 158320, "pitch": 82, "duration": 10, "velocity": 45}, {"time": 158399, "pitch": 42, "duration": 20, "velocity": 60}, {"time": 158399, "pitch": 82, "duration": 10, "velocity": 80}, {"time": 158559, "pitch": 82, "duration": 10, "velocity": 45}, {"time": 158639, "pitch": 42, "duration": 39, "velocity": 100}, {"time": 158639, "pitch": 61, "duration": 20, "velocity": 70}, {"time": 158639, "pitch": 70, "duration": 10, "velocity": 105}, {"time": 158639, "pitch": 82, "duration": 29, "velocity": 65}, {"time": 158798, "pitch": 35, "duration": 10, "velocity": 115}, {"time": 158798, "pitch": 61, "duration": 20, "velocity": 65}, {"time": 158798, "pitch": 82, "duration": 30, "velocity": 45}, {"time": 158878, "pitch": 42, "duration": 30, "velocity": 60}, {"time": 158878, "pitch": 61, "duration": 10, "velocity": 65}, {"time": 158878, "pitch": 82, "duration": 20, "velocity": 80}, {"time": 159040, "pitch": 61, "duration": 10, "velocity": 50}, {"time": 159040, "pitch": 82, "duration": 20, "velocity": 45}, {"time": 159120, "pitch": 35, "duration": 11, "velocity": 95}, {"time": 159120, "pitch": 42, "duration": 41, "velocity": 80}, {"time": 159120, "pitch": 60, "duration": 21, "velocity": 80}, {"time": 159120, "pitch": 82, "duration": 31, "velocity": 65}, {"time": 159282, "pitch": 82, "duration": 10, "velocity": 45}, {"time": 159363, "pitch": 42, "duration": 20, "velocity": 60}, {"time": 159363, "pitch": 82, "duration": 10, "velocity": 80}, {"time": 159522, "pitch": 35, "duration": 10, "velocity": 75}, {"time": 159522, "pitch": 60, "duration": 20, "velocity": 50}, {"time": 159522, "pitch": 82, "duration": 30, "velocity": 45}, {"time": 159602, "pitch": 42, "duration": 30, "velocity": 100}, {"time": 159602, "pitch": 61, "duration": 10, "velocity": 70}, {"time": 159602, "pitch": 82, "duration": 20, "velocity": 65}, {"time": 159762, "pitch": 61, "duration": 20, "velocity": 65}, {"time": 159762, "pitch": 75, "duration": 10, "velocity": 105}, {"time": 159762, "pitch": 82, "duration": 30, "velocity": 45}, {"time": 159841, "pitch": 35, "duration": 10, "velocity": 115}, {"time": 159841, "pitch": 42, "duration": 40, "velocity": 60}, {"time": 159841, "pitch": 61, "duration": 20, "velocity": 65}, {"time": 159841, "pitch": 82, "duration": 30, "velocity": 80}, {"time": 160001, "pitch": 61, "duration": 10, "velocity": 50}, {"time": 160001, "pitch": 82, "duration": 20, "velocity": 45}, {"time": 160081, "pitch": 42, "duration": 30, "velocity": 80}, {"time": 160081, "pitch": 60, "duration": 10, "velocity": 80}, {"time": 160081, "pitch": 82, "duration": 20, "velocity": 65}, {"time": 160240, "pitch": 82, "duration": 10, "velocity": 45}, {"time": 160320, "pitch": 42, "duration": 20, "velocity": 60}, {"time": 160320, "pitch": 82, "duration": 10, "velocity": 80}, {"time": 160469, "pitch": 37, "duration": 10, "velocity": 95}, {"time": 160479, "pitch": 82, "duration": 10, "velocity": 45}, {"time": 160559, "pitch": 42, "duration": 40, "velocity": 100}, {"time": 160559, "pitch": 61, "duration": 20, "velocity": 70}, {"time": 160559, "pitch": 70, "duration": 10, "velocity": 105}, {"time": 160559, "pitch": 82, "duration": 30, "velocity": 65}, {"time": 160718, "pitch": 35, "duration": 10, "velocity": 115}, {"time": 160718, "pitch": 61, "duration": 20, "velocity": 65}, {"time": 160718, "pitch": 82, "duration": 30, "velocity": 45}, {"time": 160798, "pitch": 42, "duration": 30, "velocity": 60}, {"time": 160798, "pitch": 61, "duration": 10, "velocity": 65}, {"time": 160798, "pitch": 82, "duration": 20, "velocity": 80}, {"time": 160958, "pitch": 35, "duration": 10, "velocity": 75}, {"time": 160958, "pitch": 61, "duration": 20, "velocity": 50}, {"time": 160958, "pitch": 82, "duration": 30, "velocity": 45}, {"time": 161037, "pitch": 35, "duration": 10, "velocity": 115}, {"time": 161037, "pitch": 46, "duration": 40, "velocity": 110}, {"time": 161037, "pitch": 60, "duration": 20, "velocity": 80}, {"time": 161037, "pitch": 82, "duration": 30, "velocity": 65}, {"time": 161197, "pitch": 82, "duration": 10, "velocity": 45}, {"time": 161277, "pitch": 42, "duration": 20, "velocity": 60}, {"time": 161277, "pitch": 82, "duration": 10, "velocity": 80}, {"time": 161438, "pitch": 35, "duration": 10, "velocity": 115}, {"time": 161438, "pitch": 60, "duration": 21, "velocity": 50}, {"time": 161438, "pitch": 82, "duration": 31, "velocity": 45}, {"time": 161519, "pitch": 42, "duration": 31, "velocity": 100}, {"time": 161519, "pitch": 61, "duration": 10, "velocity": 70}, {"time": 161519, "pitch": 82, "duration": 20, "velocity": 65}, {"time": 161681, "pitch": 61, "duration": 10, "velocity": 65}, {"time": 161681, "pitch": 82, "duration": 20, "velocity": 45}, {"time": 161762, "pitch": 41, "duration": 10, "velocity": 85}, {"time": 7677, "pitch": 81, "duration": 10, "velocity": 125}, {"time": 7677, "pitch": 83, "duration": 20, "velocity": 125}, {"time": 8641, "pitch": 81, "duration": 9, "velocity": 125}, {"time": 8641, "pitch": 83, "duration": 19, "velocity": 125}, {"time": 9597, "pitch": 81, "duration": 10, "velocity": 125}, {"time": 9597, "pitch": 83, "duration": 20, "velocity": 125}, {"time": 10561, "pitch": 81, "duration": 10, "velocity": 125}, {"time": 10561, "pitch": 83, "duration": 20, "velocity": 125}, {"time": 11518, "pitch": 81, "duration": 10, "velocity": 125}, {"time": 11518, "pitch": 83, "duration": 20, "velocity": 125}, {"time": 12481, "pitch": 81, "duration": 10, "velocity": 125}, {"time": 12481, "pitch": 83, "duration": 20, "velocity": 125}, {"time": 13438, "pitch": 81, "duration": 10, "velocity": 125}, {"time": 13438, "pitch": 83, "duration": 20, "velocity": 125}, {"time": 14402, "pitch": 81, "duration": 10, "velocity": 125}, {"time": 14402, "pitch": 83, "duration": 20, "velocity": 125}, {"time": 14960, "pitch": 81, "duration": 10, "velocity": 75}, {"time": 15040, "pitch": 81, "duration": 10, "velocity": 95}, {"time": 15119, "pitch": 81, "duration": 10, "velocity": 85}, {"time": 15199, "pitch": 81, "duration": 10, "velocity": 75}, {"time": 15279, "pitch": 81, "duration": 10, "velocity": 95}, {"time": 15359, "pitch": 81, "duration": 10, "velocity": 125}, {"time": 15359, "pitch": 83, "duration": 20, "velocity": 125}, {"time": 16322, "pitch": 81, "duration": 10, "velocity": 125}, {"time": 16322, "pitch": 83, "duration": 20, "velocity": 125}, {"time": 17279, "pitch": 81, "duration": 10, "velocity": 125}, {"time": 17279, "pitch": 83, "duration": 20, "velocity": 125}, {"time": 18243, "pitch": 81, "duration": 10, "velocity": 125}, {"time": 18243, "pitch": 83, "duration": 20, "velocity": 125}, {"time": 19199, "pitch": 81, "duration": 10, "velocity": 125}, {"time": 19199, "pitch": 83, "duration": 20, "velocity": 125}, {"time": 20163, "pitch": 81, "duration": 10, "velocity": 125}, {"time": 20163, "pitch": 83, "duration": 20, "velocity": 125}, {"time": 21120, "pitch": 81, "duration": 10, "velocity": 125}, {"time": 21120, "pitch": 83, "duration": 20, "velocity": 125}, {"time": 22077, "pitch": 81, "duration": 10, "velocity": 125}, {"time": 22077, "pitch": 83, "duration": 20, "velocity": 125}, {"time": 23040, "pitch": 81, "duration": 10, "velocity": 125}, {"time": 23040, "pitch": 83, "duration": 20, "velocity": 125}, {"time": 23997, "pitch": 81, "duration": 10, "velocity": 125}, {"time": 23997, "pitch": 83, "duration": 20, "velocity": 125}, {"time": 24961, "pitch": 81, "duration": 10, "velocity": 125}, {"time": 24961, "pitch": 83, "duration": 20, "velocity": 125}, {"time": 25917, "pitch": 81, "duration": 11, "velocity": 125}, {"time": 25917, "pitch": 83, "duration": 21, "velocity": 125}, {"time": 26881, "pitch": 81, "duration": 10, "velocity": 125}, {"time": 26881, "pitch": 83, "duration": 20, "velocity": 125}, {"time": 27838, "pitch": 81, "duration": 10, "velocity": 125}, {"time": 27838, "pitch": 83, "duration": 20, "velocity": 125}, {"time": 28802, "pitch": 81, "duration": 10, "velocity": 125}, {"time": 28802, "pitch": 83, "duration": 19, "velocity": 125}, {"time": 29758, "pitch": 81, "duration": 10, "velocity": 125}, {"time": 29758, "pitch": 83, "duration": 20, "velocity": 125}, {"time": 30318, "pitch": 81, "duration": 10, "velocity": 75}, {"time": 30398, "pitch": 81, "duration": 11, "velocity": 95}, {"time": 30479, "pitch": 81, "duration": 10, "velocity": 85}, {"time": 30560, "pitch": 81, "duration": 10, "velocity": 75}, {"time": 30641, "pitch": 81, "duration": 10, "velocity": 95}, {"time": 30722, "pitch": 81, "duration": 10, "velocity": 125}, {"time": 30722, "pitch": 83, "duration": 20, "velocity": 125}, {"time": 31679, "pitch": 81, "duration": 10, "velocity": 125}, {"time": 31679, "pitch": 83, "duration": 20, "velocity": 125}, {"time": 32642, "pitch": 81, "duration": 10, "velocity": 125}, {"time": 32642, "pitch": 83, "duration": 20, "velocity": 125}, {"time": 33599, "pitch": 81, "duration": 10, "velocity": 125}, {"time": 33599, "pitch": 83, "duration": 20, "velocity": 125}, {"time": 34563, "pitch": 81, "duration": 10, "velocity": 125}, {"time": 34563, "pitch": 83, "duration": 20, "velocity": 125}, {"time": 35520, "pitch": 81, "duration": 10, "velocity": 125}, {"time": 35520, "pitch": 83, "duration": 20, "velocity": 125}, {"time": 36483, "pitch": 81, "duration": 10, "velocity": 125}, {"time": 36483, "pitch": 83, "duration": 20, "velocity": 125}, {"time": 37440, "pitch": 81, "duration": 10, "velocity": 125}, {"time": 37440, "pitch": 83, "duration": 20, "velocity": 125}, {"time": 39360, "pitch": 81, "duration": 10, "velocity": 125}, {"time": 39360, "pitch": 83, "duration": 20, "velocity": 125}, {"time": 40317, "pitch": 81, "duration": 10, "velocity": 125}, {"time": 40317, "pitch": 83, "duration": 20, "velocity": 125}, {"time": 41281, "pitch": 81, "duration": 10, "velocity": 125}, {"time": 41281, "pitch": 83, "duration": 20, "velocity": 125}, {"time": 42238, "pitch": 81, "duration": 10, "velocity": 125}, {"time": 42238, "pitch": 83, "duration": 20, "velocity": 125}, {"time": 43201, "pitch": 81, "duration": 10, "velocity": 125}, {"time": 43201, "pitch": 83, "duration": 20, "velocity": 125}, {"time": 44158, "pitch": 81, "duration": 10, "velocity": 125}, {"time": 44158, "pitch": 83, "duration": 20, "velocity": 125}, {"time": 45122, "pitch": 81, "duration": 10, "velocity": 125}, {"time": 45122, "pitch": 83, "duration": 20, "velocity": 125}, {"time": 46079, "pitch": 81, "duration": 9, "velocity": 125}, {"time": 46079, "pitch": 83, "duration": 19, "velocity": 125}, {"time": 47042, "pitch": 81, "duration": 10, "velocity": 125}, {"time": 47042, "pitch": 83, "duration": 20, "velocity": 125}, {"time": 47999, "pitch": 81, "duration": 10, "velocity": 125}, {"time": 47999, "pitch": 83, "duration": 20, "velocity": 125}, {"time": 48963, "pitch": 81, "duration": 10, "velocity": 125}, {"time": 48963, "pitch": 83, "duration": 20, "velocity": 125}, {"time": 49919, "pitch": 81, "duration": 10, "velocity": 125}, {"time": 49919, "pitch": 83, "duration": 20, "velocity": 125}, {"time": 50883, "pitch": 81, "duration": 10, "velocity": 125}, {"time": 50883, "pitch": 83, "duration": 20, "velocity": 125}, {"time": 51840, "pitch": 81, "duration": 10, "velocity": 125}, {"time": 51840, "pitch": 83, "duration": 20, "velocity": 125}, {"time": 52797, "pitch": 81, "duration": 10, "velocity": 125}, {"time": 52797, "pitch": 83, "duration": 20, "velocity": 125}, {"time": 53362, "pitch": 81, "duration": 10, "velocity": 75}, {"time": 53441, "pitch": 81, "duration": 10, "velocity": 95}, {"time": 53521, "pitch": 81, "duration": 10, "velocity": 85}, {"time": 53601, "pitch": 81, "duration": 10, "velocity": 75}, {"time": 53680, "pitch": 81, "duration": 10, "velocity": 95}, {"time": 53760, "pitch": 81, "duration": 10, "velocity": 125}, {"time": 53760, "pitch": 83, "duration": 20, "velocity": 125}, {"time": 54717, "pitch": 81, "duration": 10, "velocity": 125}, {"time": 54717, "pitch": 83, "duration": 20, "velocity": 125}, {"time": 55681, "pitch": 81, "duration": 10, "velocity": 125}, {"time": 55681, "pitch": 83, "duration": 20, "velocity": 125}, {"time": 56637, "pitch": 81, "duration": 11, "velocity": 125}, {"time": 56637, "pitch": 83, "duration": 21, "velocity": 125}, {"time": 57601, "pitch": 81, "duration": 10, "velocity": 125}, {"time": 57601, "pitch": 83, "duration": 20, "velocity": 125}, {"time": 58558, "pitch": 81, "duration": 10, "velocity": 125}, {"time": 58558, "pitch": 83, "duration": 20, "velocity": 125}, {"time": 59521, "pitch": 81, "duration": 10, "velocity": 125}, {"time": 59521, "pitch": 83, "duration": 20, "velocity": 125}, {"time": 60478, "pitch": 81, "duration": 10, "velocity": 125}, {"time": 60478, "pitch": 83, "duration": 20, "velocity": 125}, {"time": 61442, "pitch": 81, "duration": 10, "velocity": 125}, {"time": 61442, "pitch": 83, "duration": 20, "velocity": 125}, {"time": 62399, "pitch": 81, "duration": 10, "velocity": 125}, {"time": 62399, "pitch": 83, "duration": 20, "velocity": 125}, {"time": 63362, "pitch": 81, "duration": 10, "velocity": 125}, {"time": 63362, "pitch": 83, "duration": 20, "velocity": 125}, {"time": 64319, "pitch": 81, "duration": 10, "velocity": 125}, {"time": 64319, "pitch": 83, "duration": 20, "velocity": 125}, {"time": 65283, "pitch": 81, "duration": 10, "velocity": 125}, {"time": 65283, "pitch": 83, "duration": 20, "velocity": 125}, {"time": 66240, "pitch": 81, "duration": 10, "velocity": 125}, {"time": 66240, "pitch": 83, "duration": 19, "velocity": 125}, {"time": 67203, "pitch": 81, "duration": 10, "velocity": 125}, {"time": 67203, "pitch": 83, "duration": 20, "velocity": 125}, {"time": 68160, "pitch": 81, "duration": 10, "velocity": 125}, {"time": 68160, "pitch": 83, "duration": 20, "velocity": 125}, {"time": 68718, "pitch": 81, "duration": 10, "velocity": 75}, {"time": 68798, "pitch": 81, "duration": 10, "velocity": 95}, {"time": 68878, "pitch": 81, "duration": 10, "velocity": 85}, {"time": 68957, "pitch": 81, "duration": 10, "velocity": 75}, {"time": 69037, "pitch": 81, "duration": 10, "velocity": 95}, {"time": 69117, "pitch": 81, "duration": 10, "velocity": 125}, {"time": 69117, "pitch": 83, "duration": 20, "velocity": 125}, {"time": 70080, "pitch": 81, "duration": 10, "velocity": 125}, {"time": 70080, "pitch": 83, "duration": 20, "velocity": 125}, {"time": 71037, "pitch": 81, "duration": 10, "velocity": 125}, {"time": 71037, "pitch": 83, "duration": 20, "velocity": 125}, {"time": 72001, "pitch": 81, "duration": 10, "velocity": 125}, {"time": 72001, "pitch": 83, "duration": 20, "velocity": 125}, {"time": 72958, "pitch": 81, "duration": 10, "velocity": 125}, {"time": 72958, "pitch": 83, "duration": 20, "velocity": 125}, {"time": 73921, "pitch": 81, "duration": 10, "velocity": 125}, {"time": 73921, "pitch": 83, "duration": 20, "velocity": 125}, {"time": 74878, "pitch": 81, "duration": 10, "velocity": 125}, {"time": 74878, "pitch": 83, "duration": 20, "velocity": 125}, {"time": 75842, "pitch": 81, "duration": 10, "velocity": 125}, {"time": 75842, "pitch": 83, "duration": 20, "velocity": 125}, {"time": 76798, "pitch": 81, "duration": 10, "velocity": 125}, {"time": 76798, "pitch": 83, "duration": 20, "velocity": 125}, {"time": 77762, "pitch": 81, "duration": 10, "velocity": 125}, {"time": 77762, "pitch": 83, "duration": 20, "velocity": 125}, {"time": 78719, "pitch": 81, "duration": 10, "velocity": 125}, {"time": 78719, "pitch": 83, "duration": 20, "velocity": 125}, {"time": 79683, "pitch": 81, "duration": 9, "velocity": 125}, {"time": 79683, "pitch": 83, "duration": 19, "velocity": 125}, {"time": 80639, "pitch": 81, "duration": 10, "velocity": 125}, {"time": 80639, "pitch": 83, "duration": 20, "velocity": 125}, {"time": 81603, "pitch": 81, "duration": 10, "velocity": 125}, {"time": 81603, "pitch": 83, "duration": 20, "velocity": 125}, {"time": 82560, "pitch": 81, "duration": 10, "velocity": 125}, {"time": 82560, "pitch": 83, "duration": 20, "velocity": 125}, {"time": 83523, "pitch": 81, "duration": 10, "velocity": 125}, {"time": 83523, "pitch": 83, "duration": 20, "velocity": 125}, {"time": 84082, "pitch": 81, "duration": 9, "velocity": 75}, {"time": 84161, "pitch": 81, "duration": 10, "velocity": 95}, {"time": 84241, "pitch": 81, "duration": 10, "velocity": 85}, {"time": 84321, "pitch": 81, "duration": 10, "velocity": 75}, {"time": 84400, "pitch": 81, "duration": 10, "velocity": 95}, {"time": 84480, "pitch": 81, "duration": 10, "velocity": 125}, {"time": 84480, "pitch": 83, "duration": 20, "velocity": 125}, {"time": 85437, "pitch": 81, "duration": 10, "velocity": 125}, {"time": 85437, "pitch": 83, "duration": 20, "velocity": 125}, {"time": 86401, "pitch": 81, "duration": 10, "velocity": 125}, {"time": 86401, "pitch": 83, "duration": 20, "velocity": 125}, {"time": 87357, "pitch": 81, "duration": 10, "velocity": 125}, {"time": 87357, "pitch": 83, "duration": 21, "velocity": 125}, {"time": 88321, "pitch": 81, "duration": 10, "velocity": 125}, {"time": 88321, "pitch": 83, "duration": 20, "velocity": 125}, {"time": 89278, "pitch": 81, "duration": 10, "velocity": 125}, {"time": 89278, "pitch": 83, "duration": 20, "velocity": 125}, {"time": 90241, "pitch": 81, "duration": 10, "velocity": 125}, {"time": 90241, "pitch": 83, "duration": 20, "velocity": 125}, {"time": 90959, "pitch": 81, "duration": 10, "velocity": 125}, {"time": 90959, "pitch": 83, "duration": 20, "velocity": 125}, {"time": 91358, "pitch": 81, "duration": 10, "velocity": 125}, {"time": 91358, "pitch": 83, "duration": 20, "velocity": 125}, {"time": 91677, "pitch": 81, "duration": 10, "velocity": 125}, {"time": 91677, "pitch": 83, "duration": 20, "velocity": 125}, {"time": 92162, "pitch": 81, "duration": 10, "velocity": 125}, {"time": 92162, "pitch": 83, "duration": 20, "velocity": 125}, {"time": 92242, "pitch": 81, "duration": 10, "velocity": 45}, {"time": 93119, "pitch": 81, "duration": 10, "velocity": 125}, {"time": 93119, "pitch": 83, "duration": 20, "velocity": 125}, {"time": 94082, "pitch": 81, "duration": 10, "velocity": 125}, {"time": 94082, "pitch": 83, "duration": 20, "velocity": 125}, {"time": 95039, "pitch": 81, "duration": 10, "velocity": 125}, {"time": 95039, "pitch": 83, "duration": 20, "velocity": 125}, {"time": 96003, "pitch": 81, "duration": 10, "velocity": 125}, {"time": 96003, "pitch": 83, "duration": 20, "velocity": 125}, {"time": 96960, "pitch": 81, "duration": 9, "velocity": 125}, {"time": 96960, "pitch": 83, "duration": 19, "velocity": 125}, {"time": 97923, "pitch": 81, "duration": 10, "velocity": 125}, {"time": 97923, "pitch": 83, "duration": 20, "velocity": 125}, {"time": 98880, "pitch": 81, "duration": 10, "velocity": 125}, {"time": 98880, "pitch": 83, "duration": 20, "velocity": 125}, {"time": 99837, "pitch": 81, "duration": 10, "velocity": 125}, {"time": 99837, "pitch": 83, "duration": 20, "velocity": 125}, {"time": 100800, "pitch": 81, "duration": 10, "velocity": 125}, {"time": 100800, "pitch": 83, "duration": 20, "velocity": 125}, {"time": 101757, "pitch": 81, "duration": 10, "velocity": 125}, {"time": 101757, "pitch": 83, "duration": 20, "velocity": 125}, {"time": 102721, "pitch": 81, "duration": 10, "velocity": 125}, {"time": 102721, "pitch": 83, "duration": 20, "velocity": 125}, {"time": 103678, "pitch": 81, "duration": 10, "velocity": 125}, {"time": 103678, "pitch": 83, "duration": 20, "velocity": 125}, {"time": 104641, "pitch": 81, "duration": 10, "velocity": 125}, {"time": 104641, "pitch": 83, "duration": 20, "velocity": 125}, {"time": 105598, "pitch": 81, "duration": 10, "velocity": 125}, {"time": 105598, "pitch": 83, "duration": 20, "velocity": 125}, {"time": 106562, "pitch": 81, "duration": 10, "velocity": 125}, {"time": 106562, "pitch": 83, "duration": 20, "velocity": 125}, {"time": 107120, "pitch": 81, "duration": 10, "velocity": 75}, {"time": 107199, "pitch": 81, "duration": 10, "velocity": 95}, {"time": 107279, "pitch": 81, "duration": 10, "velocity": 85}, {"time": 107359, "pitch": 81, "duration": 10, "velocity": 75}, {"time": 107439, "pitch": 81, "duration": 10, "velocity": 95}, {"time": 107518, "pitch": 81, "duration": 10, "velocity": 125}, {"time": 107518, "pitch": 83, "duration": 20, "velocity": 125}, {"time": 108482, "pitch": 81, "duration": 10, "velocity": 125}, {"time": 108482, "pitch": 83, "duration": 20, "velocity": 125}, {"time": 109439, "pitch": 81, "duration": 10, "velocity": 125}, {"time": 109439, "pitch": 83, "duration": 20, "velocity": 125}, {"time": 110402, "pitch": 81, "duration": 10, "velocity": 125}, {"time": 110402, "pitch": 83, "duration": 20, "velocity": 125}, {"time": 111359, "pitch": 81, "duration": 10, "velocity": 125}, {"time": 111359, "pitch": 83, "duration": 20, "velocity": 125}, {"time": 112323, "pitch": 81, "duration": 10, "velocity": 125}, {"time": 112323, "pitch": 83, "duration": 20, "velocity": 125}, {"time": 113280, "pitch": 81, "duration": 10, "velocity": 125}, {"time": 113280, "pitch": 83, "duration": 20, "velocity": 125}, {"time": 114243, "pitch": 81, "duration": 10, "velocity": 125}, {"time": 114243, "pitch": 83, "duration": 20, "velocity": 125}, {"time": 115200, "pitch": 81, "duration": 10, "velocity": 125}, {"time": 115200, "pitch": 83, "duration": 20, "velocity": 125}, {"time": 116157, "pitch": 81, "duration": 10, "velocity": 125}, {"time": 116157, "pitch": 83, "duration": 20, "velocity": 125}, {"time": 117121, "pitch": 81, "duration": 10, "velocity": 125}, {"time": 117121, "pitch": 83, "duration": 19, "velocity": 125}, {"time": 118077, "pitch": 81, "duration": 10, "velocity": 125}, {"time": 118077, "pitch": 83, "duration": 21, "velocity": 125}, {"time": 119041, "pitch": 81, "duration": 10, "velocity": 125}, {"time": 119041, "pitch": 83, "duration": 20, "velocity": 125}, {"time": 119998, "pitch": 81, "duration": 10, "velocity": 125}, {"time": 119998, "pitch": 83, "duration": 20, "velocity": 125}, {"time": 120961, "pitch": 81, "duration": 10, "velocity": 125}, {"time": 120961, "pitch": 83, "duration": 20, "velocity": 125}, {"time": 121918, "pitch": 81, "duration": 10, "velocity": 125}, {"time": 121918, "pitch": 83, "duration": 20, "velocity": 125}, {"time": 122483, "pitch": 81, "duration": 10, "velocity": 75}, {"time": 122563, "pitch": 81, "duration": 10, "velocity": 95}, {"time": 122643, "pitch": 81, "duration": 10, "velocity": 85}, {"time": 122722, "pitch": 81, "duration": 10, "velocity": 75}, {"time": 122802, "pitch": 81, "duration": 10, "velocity": 95}, {"time": 122882, "pitch": 81, "duration": 10, "velocity": 125}, {"time": 122882, "pitch": 83, "duration": 20, "velocity": 125}, {"time": 123839, "pitch": 81, "duration": 10, "velocity": 125}, {"time": 123839, "pitch": 83, "duration": 20, "velocity": 125}, {"time": 124802, "pitch": 81, "duration": 10, "velocity": 125}, {"time": 124802, "pitch": 83, "duration": 20, "velocity": 125}, {"time": 125759, "pitch": 81, "duration": 10, "velocity": 125}, {"time": 125759, "pitch": 83, "duration": 20, "velocity": 125}, {"time": 126723, "pitch": 81, "duration": 10, "velocity": 125}, {"time": 126723, "pitch": 83, "duration": 20, "velocity": 125}, {"time": 127679, "pitch": 81, "duration": 10, "velocity": 125}, {"time": 127679, "pitch": 83, "duration": 20, "velocity": 125}, {"time": 128643, "pitch": 81, "duration": 10, "velocity": 125}, {"time": 128643, "pitch": 83, "duration": 20, "velocity": 125}, {"time": 129600, "pitch": 81, "duration": 10, "velocity": 125}, {"time": 129600, "pitch": 83, "duration": 20, "velocity": 125}, {"time": 130557, "pitch": 81, "duration": 10, "velocity": 125}, {"time": 130557, "pitch": 83, "duration": 20, "velocity": 125}, {"time": 131520, "pitch": 81, "duration": 10, "velocity": 125}, {"time": 131520, "pitch": 83, "duration": 20, "velocity": 125}, {"time": 132477, "pitch": 81, "duration": 10, "velocity": 125}, {"time": 132477, "pitch": 83, "duration": 20, "velocity": 125}, {"time": 133441, "pitch": 81, "duration": 10, "velocity": 125}, {"time": 133441, "pitch": 83, "duration": 20, "velocity": 125}, {"time": 134398, "pitch": 81, "duration": 10, "velocity": 125}, {"time": 134398, "pitch": 83, "duration": 20, "velocity": 125}, {"time": 135361, "pitch": 81, "duration": 10, "velocity": 125}, {"time": 135361, "pitch": 83, "duration": 20, "velocity": 125}, {"time": 136318, "pitch": 81, "duration": 10, "velocity": 125}, {"time": 136318, "pitch": 83, "duration": 20, "velocity": 125}, {"time": 137282, "pitch": 81, "duration": 10, "velocity": 125}, {"time": 137282, "pitch": 83, "duration": 20, "velocity": 125}, {"time": 137840, "pitch": 81, "duration": 10, "velocity": 75}, {"time": 137919, "pitch": 81, "duration": 10, "velocity": 95}, {"time": 137999, "pitch": 81, "duration": 10, "velocity": 85}, {"time": 138079, "pitch": 81, "duration": 10, "velocity": 75}, {"time": 138159, "pitch": 81, "duration": 10, "velocity": 95}, {"time": 138238, "pitch": 81, "duration": 10, "velocity": 125}, {"time": 138238, "pitch": 83, "duration": 20, "velocity": 125}, {"time": 145601, "pitch": 81, "duration": 10, "velocity": 125}, {"time": 145601, "pitch": 83, "duration": 20, "velocity": 125}, {"time": 145920, "pitch": 81, "duration": 10, "velocity": 125}, {"time": 145920, "pitch": 83, "duration": 20, "velocity": 125}, {"time": 146877, "pitch": 81, "duration": 10, "velocity": 125}, {"time": 146877, "pitch": 83, "duration": 20, "velocity": 125}, {"time": 147840, "pitch": 81, "duration": 10, "velocity": 125}, {"time": 147840, "pitch": 83, "duration": 20, "velocity": 125}, {"time": 148797, "pitch": 81, "duration": 10, "velocity": 125}, {"time": 148797, "pitch": 83, "duration": 20, "velocity": 125}, {"time": 149761, "pitch": 81, "duration": 10, "velocity": 125}, {"time": 149761, "pitch": 83, "duration": 20, "velocity": 125}, {"time": 150718, "pitch": 81, "duration": 10, "velocity": 125}, {"time": 150718, "pitch": 83, "duration": 20, "velocity": 125}, {"time": 151681, "pitch": 81, "duration": 10, "velocity": 125}, {"time": 151681, "pitch": 83, "duration": 20, "velocity": 125}, {"time": 152638, "pitch": 81, "duration": 10, "velocity": 125}, {"time": 152638, "pitch": 83, "duration": 20, "velocity": 125}, {"time": 153602, "pitch": 81, "duration": 10, "velocity": 125}, {"time": 153602, "pitch": 83, "duration": 20, "velocity": 125}, {"time": 154559, "pitch": 81, "duration": 10, "velocity": 125}, {"time": 154559, "pitch": 83, "duration": 19, "velocity": 125}, {"time": 155522, "pitch": 81, "duration": 10, "velocity": 125}, {"time": 155522, "pitch": 83, "duration": 20, "velocity": 125}, {"time": 156479, "pitch": 81, "duration": 10, "velocity": 125}, {"time": 156479, "pitch": 83, "duration": 20, "velocity": 125}, {"time": 157443, "pitch": 81, "duration": 10, "velocity": 125}, {"time": 157443, "pitch": 83, "duration": 20, "velocity": 125}, {"time": 158399, "pitch": 81, "duration": 10, "velocity": 125}, {"time": 158399, "pitch": 83, "duration": 20, "velocity": 125}, {"time": 159363, "pitch": 81, "duration": 10, "velocity": 125}, {"time": 159363, "pitch": 83, "duration": 20, "velocity": 125}, {"time": 160320, "pitch": 81, "duration": 10, "velocity": 125}, {"time": 160320, "pitch": 83, "duration": 20, "velocity": 125}, {"time": 160798, "pitch": 81, "duration": 10, "velocity": 125}, {"time": 160798, "pitch": 83, "duration": 20, "velocity": 125}, {"time": 161277, "pitch": 81, "duration": 10, "velocity": 125}, {"time": 161277, "pitch": 83, "duration": 20, "velocity": 125}, {"time": 161600, "pitch": 81, "duration": 10, "velocity": 125}, {"time": 161681, "pitch": 81, "duration": 10, "velocity": 125}, {"time": 480, "pitch": 43, "duration": 1911, "velocity": 85}, {"time": 480, "pitch": 53, "duration": 628, "velocity": 80}, {"time": 480, "pitch": 58, "duration": 1432, "velocity": 90}, {"time": 480, "pitch": 62, "duration": 1432, "velocity": 100}, {"time": 1118, "pitch": 53, "duration": 1034, "velocity": 80}, {"time": 1357, "pitch": 69, "duration": 1034, "velocity": 95}, {"time": 1680, "pitch": 65, "duration": 711, "velocity": 80}, {"time": 1922, "pitch": 60, "duration": 469, "velocity": 70}, {"time": 2162, "pitch": 53, "duration": 229, "velocity": 60}, {"time": 2401, "pitch": 40, "duration": 1910, "velocity": 85}, {"time": 2401, "pitch": 55, "duration": 1910, "velocity": 80}, {"time": 2401, "pitch": 58, "duration": 1910, "velocity": 90}, {"time": 2401, "pitch": 62, "duration": 1910, "velocity": 100}, {"time": 3318, "pitch": 67, "duration": 993, "velocity": 75}, {"time": 3338, "pitch": 70, "duration": 973, "velocity": 85}, {"time": 3358, "pitch": 74, "duration": 953, "velocity": 95}, {"time": 3843, "pitch": 65, "duration": 468, "velocity": 70}, {"time": 4321, "pitch": 39, "duration": 1911, "velocity": 85}, {"time": 4321, "pitch": 58, "duration": 1911, "velocity": 80}, {"time": 4321, "pitch": 62, "duration": 1911, "velocity": 90}, {"time": 4321, "pitch": 67, "duration": 1911, "velocity": 100}, {"time": 5039, "pitch": 55, "duration": 1193, "velocity": 75}, {"time": 5278, "pitch": 65, "duration": 954, "velocity": 80}, {"time": 5682, "pitch": 70, "duration": 550, "velocity": 80}, {"time": 6003, "pitch": 77, "duration": 229, "velocity": 85}, {"time": 6242, "pitch": 38, "duration": 1910, "velocity": 85}, {"time": 6242, "pitch": 53, "duration": 1910, "velocity": 80}, {"time": 6242, "pitch": 57, "duration": 1910, "velocity": 90}, {"time": 6242, "pitch": 60, "duration": 1910, "velocity": 100}, {"time": 6880, "pitch": 72, "duration": 1272, "velocity": 85}, {"time": 7198, "pitch": 76, "duration": 954, "velocity": 85}, {"time": 7677, "pitch": 79, "duration": 475, "velocity": 85}, {"time": 8162, "pitch": 43, "duration": 1910, "velocity": 85}, {"time": 8162, "pitch": 53, "duration": 628, "velocity": 80}, {"time": 8162, "pitch": 58, "duration": 1425, "velocity": 90}, {"time": 8162, "pitch": 62, "duration": 1425, "velocity": 100}, {"time": 8800, "pitch": 53, "duration": 1030, "velocity": 80}, {"time": 9039, "pitch": 69, "duration": 1033, "velocity": 95}, {"time": 9358, "pitch": 65, "duration": 714, "velocity": 80}, {"time": 9597, "pitch": 60, "duration": 475, "velocity": 70}, {"time": 9840, "pitch": 53, "duration": 232, "velocity": 60}, {"time": 10083, "pitch": 40, "duration": 1910, "velocity": 85}, {"time": 10083, "pitch": 55, "duration": 1910, "velocity": 80}, {"time": 10083, "pitch": 58, "duration": 1910, "velocity": 90}, {"time": 10083, "pitch": 62, "duration": 1910, "velocity": 100}, {"time": 10999, "pitch": 67, "duration": 994, "velocity": 75}, {"time": 11019, "pitch": 70, "duration": 974, "velocity": 85}, {"time": 11039, "pitch": 74, "duration": 954, "velocity": 95}, {"time": 11518, "pitch": 65, "duration": 475, "velocity": 70}, {"time": 12003, "pitch": 39, "duration": 1910, "velocity": 85}, {"time": 12003, "pitch": 58, "duration": 1910, "velocity": 80}, {"time": 12003, "pitch": 62, "duration": 1910, "velocity": 90}, {"time": 12003, "pitch": 67, "duration": 1910, "velocity": 100}, {"time": 12721, "pitch": 55, "duration": 1192, "velocity": 75}, {"time": 12960, "pitch": 65, "duration": 953, "velocity": 80}, {"time": 13358, "pitch": 70, "duration": 555, "velocity": 80}, {"time": 13681, "pitch": 77, "duration": 232, "velocity": 85}, {"time": 13923, "pitch": 38, "duration": 1904, "velocity": 85}, {"time": 13923, "pitch": 53, "duration": 1904, "velocity": 80}, {"time": 13923, "pitch": 57, "duration": 1904, "velocity": 90}, {"time": 13923, "pitch": 60, "duration": 1904, "velocity": 100}, {"time": 14561, "pitch": 72, "duration": 1266, "velocity": 85}, {"time": 14880, "pitch": 76, "duration": 947, "velocity": 85}, {"time": 15359, "pitch": 79, "duration": 468, "velocity": 85}, {"time": 15837, "pitch": 43, "duration": 1910, "velocity": 85}, {"time": 15837, "pitch": 53, "duration": 635, "velocity": 80}, {"time": 15837, "pitch": 58, "duration": 1432, "velocity": 90}, {"time": 15837, "pitch": 62, "duration": 1432, "velocity": 100}, {"time": 16482, "pitch": 53, "duration": 1026, "velocity": 80}, {"time": 16721, "pitch": 69, "duration": 1026, "velocity": 95}, {"time": 17040, "pitch": 65, "duration": 707, "velocity": 80}, {"time": 17279, "pitch": 60, "duration": 468, "velocity": 70}, {"time": 17518, "pitch": 53, "duration": 229, "velocity": 60}, {"time": 17757, "pitch": 40, "duration": 1911, "velocity": 85}, {"time": 17757, "pitch": 55, "duration": 1911, "velocity": 80}, {"time": 17757, "pitch": 58, "duration": 1911, "velocity": 90}, {"time": 17757, "pitch": 62, "duration": 1911, "velocity": 100}, {"time": 18681, "pitch": 67, "duration": 987, "velocity": 75}, {"time": 18701, "pitch": 70, "duration": 967, "velocity": 85}, {"time": 18721, "pitch": 74, "duration": 947, "velocity": 95}, {"time": 19199, "pitch": 65, "duration": 469, "velocity": 70}, {"time": 19678, "pitch": 39, "duration": 1910, "velocity": 85}, {"time": 19678, "pitch": 58, "duration": 1910, "velocity": 80}, {"time": 19678, "pitch": 62, "duration": 1910, "velocity": 90}, {"time": 19678, "pitch": 67, "duration": 1910, "velocity": 100}, {"time": 20402, "pitch": 55, "duration": 1186, "velocity": 75}, {"time": 20641, "pitch": 65, "duration": 947, "velocity": 80}, {"time": 21040, "pitch": 70, "duration": 548, "velocity": 80}, {"time": 21359, "pitch": 77, "duration": 229, "velocity": 85}, {"time": 21598, "pitch": 38, "duration": 1911, "velocity": 85}, {"time": 21598, "pitch": 53, "duration": 1911, "velocity": 80}, {"time": 21598, "pitch": 57, "duration": 1911, "velocity": 90}, {"time": 21598, "pitch": 60, "duration": 1911, "velocity": 100}, {"time": 22238, "pitch": 72, "duration": 1271, "velocity": 85}, {"time": 22562, "pitch": 76, "duration": 947, "velocity": 85}, {"time": 23040, "pitch": 79, "duration": 469, "velocity": 85}, {"time": 23519, "pitch": 43, "duration": 1910, "velocity": 85}, {"time": 23519, "pitch": 53, "duration": 630, "velocity": 80}, {"time": 23519, "pitch": 58, "duration": 1432, "velocity": 90}, {"time": 23519, "pitch": 62, "duration": 1432, "velocity": 100}, {"time": 24159, "pitch": 53, "duration": 1031, "velocity": 80}, {"time": 24401, "pitch": 69, "duration": 1028, "velocity": 95}, {"time": 24722, "pitch": 65, "duration": 707, "velocity": 80}, {"time": 24961, "pitch": 60, "duration": 468, "velocity": 70}, {"time": 25200, "pitch": 53, "duration": 229, "velocity": 60}, {"time": 25439, "pitch": 40, "duration": 1911, "velocity": 85}, {"time": 25439, "pitch": 55, "duration": 1911, "velocity": 80}, {"time": 25439, "pitch": 58, "duration": 1911, "velocity": 90}, {"time": 25439, "pitch": 62, "duration": 1911, "velocity": 100}, {"time": 26362, "pitch": 67, "duration": 988, "velocity": 75}, {"time": 26383, "pitch": 70, "duration": 967, "velocity": 85}, {"time": 26403, "pitch": 74, "duration": 947, "velocity": 95}, {"time": 26881, "pitch": 65, "duration": 469, "velocity": 70}, {"time": 27360, "pitch": 39, "duration": 1910, "velocity": 85}, {"time": 27360, "pitch": 58, "duration": 1910, "velocity": 80}, {"time": 27360, "pitch": 62, "duration": 1910, "velocity": 90}, {"time": 27360, "pitch": 67, "duration": 1910, "velocity": 100}, {"time": 28081, "pitch": 55, "duration": 1189, "velocity": 75}, {"time": 28323, "pitch": 65, "duration": 947, "velocity": 80}, {"time": 28722, "pitch": 70, "duration": 548, "velocity": 80}, {"time": 29041, "pitch": 77, "duration": 229, "velocity": 85}, {"time": 29280, "pitch": 38, "duration": 1910, "velocity": 85}, {"time": 29280, "pitch": 53, "duration": 1910, "velocity": 80}, {"time": 29280, "pitch": 57, "duration": 1910, "velocity": 90}, {"time": 29280, "pitch": 60, "duration": 1910, "velocity": 100}, {"time": 29918, "pitch": 72, "duration": 1272, "velocity": 85}, {"time": 30237, "pitch": 76, "duration": 953, "velocity": 85}, {"time": 30722, "pitch": 79, "duration": 468, "velocity": 85}, {"time": 31200, "pitch": 43, "duration": 3353, "velocity": 85}, {"time": 31200, "pitch": 53, "duration": 3353, "velocity": 80}, {"time": 31200, "pitch": 58, "duration": 3353, "velocity": 90}, {"time": 31200, "pitch": 62, "duration": 3353, "velocity": 100}, {"time": 34563, "pitch": 38, "duration": 468, "velocity": 95}, {"time": 34563, "pitch": 55, "duration": 468, "velocity": 90}, {"time": 34563, "pitch": 60, "duration": 468, "velocity": 100}, {"time": 34563, "pitch": 64, "duration": 468, "velocity": 110}, {"time": 35041, "pitch": 43, "duration": 3346, "velocity": 85}, {"time": 35041, "pitch": 53, "duration": 3346, "velocity": 80}, {"time": 35041, "pitch": 58, "duration": 3346, "velocity": 90}, {"time": 35041, "pitch": 62, "duration": 3346, "velocity": 100}, {"time": 38882, "pitch": 43, "duration": 3346, "velocity": 85}, {"time": 38882, "pitch": 53, "duration": 3346, "velocity": 80}, {"time": 38882, "pitch": 58, "duration": 3346, "velocity": 90}, {"time": 38882, "pitch": 62, "duration": 3346, "velocity": 100}, {"time": 42238, "pitch": 38, "duration": 475, "velocity": 95}, {"time": 42238, "pitch": 55, "duration": 475, "velocity": 90}, {"time": 42238, "pitch": 60, "duration": 475, "velocity": 100}, {"time": 42238, "pitch": 64, "duration": 475, "velocity": 110}, {"time": 42723, "pitch": 43, "duration": 3346, "velocity": 85}, {"time": 42723, "pitch": 53, "duration": 3346, "velocity": 80}, {"time": 42723, "pitch": 58, "duration": 3346, "velocity": 90}, {"time": 42723, "pitch": 62, "duration": 3346, "velocity": 100}, {"time": 46079, "pitch": 38, "duration": 468, "velocity": 95}, {"time": 46079, "pitch": 53, "duration": 468, "velocity": 90}, {"time": 46079, "pitch": 57, "duration": 468, "velocity": 100}, {"time": 46079, "pitch": 60, "duration": 468, "velocity": 110}, {"time": 46557, "pitch": 43, "duration": 3352, "velocity": 85}, {"time": 46557, "pitch": 53, "duration": 3352, "velocity": 80}, {"time": 46557, "pitch": 58, "duration": 3352, "velocity": 90}, {"time": 46557, "pitch": 62, "duration": 3352, "velocity": 100}, {"time": 49919, "pitch": 38, "duration": 469, "velocity": 95}, {"time": 49919, "pitch": 55, "duration": 469, "velocity": 90}, {"time": 49919, "pitch": 60, "duration": 469, "velocity": 100}, {"time": 49919, "pitch": 64, "duration": 469, "velocity": 110}, {"time": 50398, "pitch": 43, "duration": 1910, "velocity": 85}, {"time": 50398, "pitch": 53, "duration": 1910, "velocity": 80}, {"time": 50398, "pitch": 58, "duration": 1910, "velocity": 90}, {"time": 50398, "pitch": 62, "duration": 1910, "velocity": 100}, {"time": 52318, "pitch": 41, "duration": 954, "velocity": 85}, {"time": 52318, "pitch": 56, "duration": 954, "velocity": 80}, {"time": 52318, "pitch": 60, "duration": 954, "velocity": 90}, {"time": 52318, "pitch": 63, "duration": 954, "velocity": 100}, {"time": 53282, "pitch": 34, "duration": 947, "velocity": 85}, {"time": 53282, "pitch": 56, "duration": 947, "velocity": 80}, {"time": 53282, "pitch": 62, "duration": 947, "velocity": 90}, {"time": 53282, "pitch": 65, "duration": 947, "velocity": 100}, {"time": 54239, "pitch": 48, "duration": 1591, "velocity": 85}, {"time": 54239, "pitch": 58, "duration": 711, "velocity": 70}, {"time": 54239, "pitch": 62, "duration": 1910, "velocity": 80}, {"time": 54239, "pitch": 63, "duration": 1192, "velocity": 90}, {"time": 54239, "pitch": 67, "duration": 1910, "velocity": 100}, {"time": 54960, "pitch": 58, "duration": 1189, "velocity": 70}, {"time": 55441, "pitch": 63, "duration": 708, "velocity": 85}, {"time": 55681, "pitch": 65, "duration": 468, "velocity": 90}, {"time": 55840, "pitch": 48, "duration": 309, "velocity": 85}, {"time": 55920, "pitch": 70, "duration": 229, "velocity": 95}, {"time": 56159, "pitch": 41, "duration": 1432, "velocity": 85}, {"time": 56159, "pitch": 51, "duration": 1910, "velocity": 80}, {"time": 56159, "pitch": 57, "duration": 1910, "velocity": 90}, {"time": 56159, "pitch": 62, "duration": 711, "velocity": 100}, {"time": 56880, "pitch": 61, "duration": 871, "velocity": 95}, {"time": 57362, "pitch": 69, "duration": 707, "velocity": 90}, {"time": 57601, "pitch": 41, "duration": 468, "velocity": 85}, {"time": 57761, "pitch": 60, "duration": 308, "velocity": 85}, {"time": 58079, "pitch": 46, "duration": 1911, "velocity": 85}, {"time": 58079, "pitch": 57, "duration": 469, "velocity": 70}, {"time": 58079, "pitch": 60, "duration": 711, "velocity": 80}, {"time": 58079, "pitch": 62, "duration": 1911, "velocity": 90}, {"time": 58079, "pitch": 65, "duration": 1911, "velocity": 100}, {"time": 58558, "pitch": 57, "duration": 1432, "velocity": 85}, {"time": 58800, "pitch": 60, "duration": 1190, "velocity": 75}, {"time": 59203, "pitch": 72, "duration": 787, "velocity": 60}, {"time": 59442, "pitch": 76, "duration": 548, "velocity": 65}, {"time": 59681, "pitch": 79, "duration": 309, "velocity": 70}, {"time": 60000, "pitch": 43, "duration": 1910, "velocity": 85}, {"time": 60000, "pitch": 65, "duration": 1910, "velocity": 80}, {"time": 60000, "pitch": 71, "duration": 1910, "velocity": 90}, {"time": 60000, "pitch": 76, "duration": 947, "velocity": 100}, {"time": 60957, "pitch": 75, "duration": 953, "velocity": 95}, {"time": 61920, "pitch": 48, "duration": 1592, "velocity": 85}, {"time": 61920, "pitch": 63, "duration": 708, "velocity": 70}, {"time": 61920, "pitch": 67, "duration": 1911, "velocity": 80}, {"time": 61920, "pitch": 70, "duration": 1190, "velocity": 90}, {"time": 61920, "pitch": 74, "duration": 1911, "velocity": 100}, {"time": 62638, "pitch": 63, "duration": 1193, "velocity": 70}, {"time": 63120, "pitch": 70, "duration": 711, "velocity": 85}, {"time": 63362, "pitch": 79, "duration": 469, "velocity": 90}, {"time": 63522, "pitch": 48, "duration": 309, "velocity": 85}, {"time": 63602, "pitch": 55, "duration": 229, "velocity": 95}, {"time": 63841, "pitch": 53, "duration": 1432, "velocity": 85}, {"time": 63841, "pitch": 63, "duration": 1910, "velocity": 80}, {"time": 63841, "pitch": 69, "duration": 1910, "velocity": 90}, {"time": 63841, "pitch": 74, "duration": 707, "velocity": 100}, {"time": 64558, "pitch": 73, "duration": 1193, "velocity": 95}, {"time": 65283, "pitch": 53, "duration": 468, "velocity": 85}, {"time": 65442, "pitch": 65, "duration": 309, "velocity": 85}, {"time": 65761, "pitch": 46, "duration": 1911, "velocity": 85}, {"time": 65761, "pitch": 62, "duration": 469, "velocity": 70}, {"time": 65761, "pitch": 65, "duration": 708, "velocity": 80}, {"time": 65761, "pitch": 69, "duration": 1911, "velocity": 90}, {"time": 65761, "pitch": 72, "duration": 1911, "velocity": 100}, {"time": 66240, "pitch": 62, "duration": 1432, "velocity": 85}, {"time": 66479, "pitch": 65, "duration": 1193, "velocity": 75}, {"time": 66880, "pitch": 74, "duration": 792, "velocity": 60}, {"time": 67122, "pitch": 77, "duration": 550, "velocity": 65}, {"time": 67363, "pitch": 81, "duration": 309, "velocity": 70}, {"time": 67682, "pitch": 50, "duration": 1910, "velocity": 85}, {"time": 67682, "pitch": 60, "duration": 1910, "velocity": 80}, {"time": 67682, "pitch": 66, "duration": 1910, "velocity": 90}, {"time": 67682, "pitch": 70, "duration": 946, "velocity": 100}, {"time": 68638, "pitch": 69, "duration": 954, "velocity": 95}, {"time": 69602, "pitch": 43, "duration": 1910, "velocity": 85}, {"time": 69602, "pitch": 53, "duration": 628, "velocity": 80}, {"time": 69602, "pitch": 58, "duration": 1425, "velocity": 90}, {"time": 69602, "pitch": 62, "duration": 1425, "velocity": 100}, {"time": 70240, "pitch": 53, "duration": 1030, "velocity": 80}, {"time": 70479, "pitch": 69, "duration": 1033, "velocity": 95}, {"time": 70798, "pitch": 65, "duration": 714, "velocity": 80}, {"time": 71037, "pitch": 60, "duration": 475, "velocity": 70}, {"time": 71280, "pitch": 53, "duration": 232, "velocity": 60}, {"time": 71522, "pitch": 40, "duration": 1911, "velocity": 85}, {"time": 71522, "pitch": 55, "duration": 1911, "velocity": 80}, {"time": 71522, "pitch": 58, "duration": 1911, "velocity": 90}, {"time": 71522, "pitch": 62, "duration": 1911, "velocity": 100}, {"time": 72439, "pitch": 67, "duration": 994, "velocity": 75}, {"time": 72459, "pitch": 70, "duration": 974, "velocity": 85}, {"time": 72479, "pitch": 74, "duration": 954, "velocity": 95}, {"time": 72958, "pitch": 65, "duration": 475, "velocity": 70}, {"time": 73443, "pitch": 39, "duration": 1910, "velocity": 85}, {"time": 73443, "pitch": 58, "duration": 1910, "velocity": 80}, {"time": 73443, "pitch": 62, "duration": 1910, "velocity": 90}, {"time": 73443, "pitch": 67, "duration": 1910, "velocity": 100}, {"time": 74160, "pitch": 55, "duration": 1193, "velocity": 75}, {"time": 74400, "pitch": 65, "duration": 953, "velocity": 80}, {"time": 74798, "pitch": 70, "duration": 555, "velocity": 80}, {"time": 75121, "pitch": 77, "duration": 232, "velocity": 85}, {"time": 75363, "pitch": 38, "duration": 1904, "velocity": 85}, {"time": 75363, "pitch": 53, "duration": 1904, "velocity": 80}, {"time": 75363, "pitch": 57, "duration": 1904, "velocity": 90}, {"time": 75363, "pitch": 60, "duration": 1904, "velocity": 100}, {"time": 76001, "pitch": 72, "duration": 1266, "velocity": 85}, {"time": 76320, "pitch": 76, "duration": 947, "velocity": 85}, {"time": 76798, "pitch": 79, "duration": 469, "velocity": 85}, {"time": 77277, "pitch": 43, "duration": 1910, "velocity": 85}, {"time": 77277, "pitch": 53, "duration": 635, "velocity": 80}, {"time": 77277, "pitch": 58, "duration": 1432, "velocity": 90}, {"time": 77277, "pitch": 62, "duration": 1432, "velocity": 100}, {"time": 77922, "pitch": 53, "duration": 1026, "velocity": 80}, {"time": 78161, "pitch": 69, "duration": 1026, "velocity": 95}, {"time": 78480, "pitch": 65, "duration": 707, "velocity": 80}, {"time": 78719, "pitch": 60, "duration": 468, "velocity": 70}, {"time": 78958, "pitch": 53, "duration": 229, "velocity": 60}, {"time": 79197, "pitch": 40, "duration": 1911, "velocity": 85}, {"time": 79197, "pitch": 55, "duration": 1911, "velocity": 80}, {"time": 79197, "pitch": 58, "duration": 1911, "velocity": 90}, {"time": 79197, "pitch": 62, "duration": 1911, "velocity": 100}, {"time": 80121, "pitch": 67, "duration": 987, "velocity": 75}, {"time": 80141, "pitch": 70, "duration": 967, "velocity": 85}, {"time": 80161, "pitch": 74, "duration": 947, "velocity": 95}, {"time": 80639, "pitch": 65, "duration": 469, "velocity": 70}, {"time": 81118, "pitch": 39, "duration": 1910, "velocity": 85}, {"time": 81118, "pitch": 58, "duration": 1910, "velocity": 80}, {"time": 81118, "pitch": 62, "duration": 1910, "velocity": 90}, {"time": 81118, "pitch": 67, "duration": 1910, "velocity": 100}, {"time": 81842, "pitch": 55, "duration": 1186, "velocity": 75}, {"time": 82081, "pitch": 65, "duration": 947, "velocity": 80}, {"time": 82480, "pitch": 70, "duration": 548, "velocity": 80}, {"time": 82799, "pitch": 77, "duration": 229, "velocity": 85}, {"time": 83038, "pitch": 38, "duration": 1911, "velocity": 85}, {"time": 83038, "pitch": 53, "duration": 1911, "velocity": 80}, {"time": 83038, "pitch": 57, "duration": 1911, "velocity": 90}, {"time": 83038, "pitch": 60, "duration": 1911, "velocity": 100}, {"time": 83683, "pitch": 72, "duration": 1266, "velocity": 85}, {"time": 84002, "pitch": 76, "duration": 947, "velocity": 85}, {"time": 84480, "pitch": 79, "duration": 469, "velocity": 85}, {"time": 84959, "pitch": 43, "duration": 3352, "velocity": 85}, {"time": 84959, "pitch": 53, "duration": 3352, "velocity": 80}, {"time": 84959, "pitch": 58, "duration": 3352, "velocity": 90}, {"time": 84959, "pitch": 62, "duration": 3352, "velocity": 100}, {"time": 88321, "pitch": 38, "duration": 468, "velocity": 95}, {"time": 88321, "pitch": 55, "duration": 468, "velocity": 90}, {"time": 88321, "pitch": 60, "duration": 468, "velocity": 100}, {"time": 88321, "pitch": 64, "duration": 468, "velocity": 110}, {"time": 88799, "pitch": 43, "duration": 3353, "velocity": 85}, {"time": 88799, "pitch": 53, "duration": 3353, "velocity": 80}, {"time": 88799, "pitch": 58, "duration": 3353, "velocity": 90}, {"time": 88799, "pitch": 62, "duration": 3353, "velocity": 100}, {"time": 92640, "pitch": 43, "duration": 3353, "velocity": 85}, {"time": 92640, "pitch": 53, "duration": 3353, "velocity": 80}, {"time": 92640, "pitch": 58, "duration": 3353, "velocity": 90}, {"time": 92640, "pitch": 62, "duration": 3353, "velocity": 100}, {"time": 96003, "pitch": 38, "duration": 468, "velocity": 95}, {"time": 96003, "pitch": 55, "duration": 468, "velocity": 90}, {"time": 96003, "pitch": 60, "duration": 468, "velocity": 100}, {"time": 96003, "pitch": 64, "duration": 468, "velocity": 110}, {"time": 96481, "pitch": 43, "duration": 3346, "velocity": 85}, {"time": 96481, "pitch": 53, "duration": 3346, "velocity": 80}, {"time": 96481, "pitch": 58, "duration": 3346, "velocity": 90}, {"time": 96481, "pitch": 62, "duration": 3346, "velocity": 100}, {"time": 99837, "pitch": 38, "duration": 475, "velocity": 95}, {"time": 99837, "pitch": 53, "duration": 475, "velocity": 90}, {"time": 99837, "pitch": 57, "duration": 475, "velocity": 100}, {"time": 99837, "pitch": 60, "duration": 475, "velocity": 110}, {"time": 100322, "pitch": 43, "duration": 3346, "velocity": 85}, {"time": 100322, "pitch": 53, "duration": 3346, "velocity": 80}, {"time": 100322, "pitch": 58, "duration": 3346, "velocity": 90}, {"time": 100322, "pitch": 62, "duration": 3346, "velocity": 100}, {"time": 103678, "pitch": 38, "duration": 475, "velocity": 95}, {"time": 103678, "pitch": 55, "duration": 475, "velocity": 90}, {"time": 103678, "pitch": 60, "duration": 475, "velocity": 100}, {"time": 103678, "pitch": 64, "duration": 475, "velocity": 110}, {"time": 104163, "pitch": 43, "duration": 1910, "velocity": 85}, {"time": 104163, "pitch": 53, "duration": 1910, "velocity": 80}, {"time": 104163, "pitch": 58, "duration": 1910, "velocity": 90}, {"time": 104163, "pitch": 62, "duration": 1910, "velocity": 100}, {"time": 106083, "pitch": 41, "duration": 947, "velocity": 85}, {"time": 106083, "pitch": 56, "duration": 947, "velocity": 80}, {"time": 106083, "pitch": 60, "duration": 947, "velocity": 90}, {"time": 106083, "pitch": 63, "duration": 947, "velocity": 100}, {"time": 107040, "pitch": 34, "duration": 947, "velocity": 85}, {"time": 107040, "pitch": 56, "duration": 947, "velocity": 80}, {"time": 107040, "pitch": 62, "duration": 947, "velocity": 90}, {"time": 107040, "pitch": 65, "duration": 947, "velocity": 100}, {"time": 107997, "pitch": 48, "duration": 1591, "velocity": 85}, {"time": 107997, "pitch": 58, "duration": 714, "velocity": 70}, {"time": 107997, "pitch": 62, "duration": 1910, "velocity": 80}, {"time": 107997, "pitch": 63, "duration": 1193, "velocity": 90}, {"time": 107997, "pitch": 67, "duration": 1910, "velocity": 100}, {"time": 108721, "pitch": 58, "duration": 1186, "velocity": 70}, {"time": 109200, "pitch": 63, "duration": 707, "velocity": 85}, {"time": 109439, "pitch": 65, "duration": 468, "velocity": 90}, {"time": 109598, "pitch": 48, "duration": 309, "velocity": 85}, {"time": 109678, "pitch": 70, "duration": 229, "velocity": 95}, {"time": 109917, "pitch": 41, "duration": 1432, "velocity": 85}, {"time": 109917, "pitch": 51, "duration": 1911, "velocity": 80}, {"time": 109917, "pitch": 57, "duration": 1911, "velocity": 90}, {"time": 109917, "pitch": 62, "duration": 715, "velocity": 100}, {"time": 110642, "pitch": 61, "duration": 867, "velocity": 95}, {"time": 111120, "pitch": 69, "duration": 708, "velocity": 90}, {"time": 111359, "pitch": 41, "duration": 469, "velocity": 85}, {"time": 111519, "pitch": 60, "duration": 309, "velocity": 85}, {"time": 111838, "pitch": 46, "duration": 1910, "velocity": 85}, {"time": 111838, "pitch": 57, "duration": 475, "velocity": 70}, {"time": 111838, "pitch": 60, "duration": 714, "velocity": 80}, {"time": 111838, "pitch": 62, "duration": 1910, "velocity": 90}, {"time": 111838, "pitch": 65, "duration": 1910, "velocity": 100}, {"time": 112323, "pitch": 57, "duration": 1425, "velocity": 85}, {"time": 112562, "pitch": 60, "duration": 1186, "velocity": 75}, {"time": 112961, "pitch": 72, "duration": 787, "velocity": 60}, {"time": 113200, "pitch": 76, "duration": 548, "velocity": 65}, {"time": 113439, "pitch": 79, "duration": 309, "velocity": 70}, {"time": 113758, "pitch": 43, "duration": 1911, "velocity": 85}, {"time": 113758, "pitch": 65, "duration": 1911, "velocity": 80}, {"time": 113758, "pitch": 71, "duration": 1911, "velocity": 90}, {"time": 113758, "pitch": 76, "duration": 954, "velocity": 100}, {"time": 114722, "pitch": 75, "duration": 947, "velocity": 95}, {"time": 115679, "pitch": 48, "duration": 1591, "velocity": 85}, {"time": 115679, "pitch": 63, "duration": 710, "velocity": 70}, {"time": 115679, "pitch": 67, "duration": 1910, "velocity": 80}, {"time": 115679, "pitch": 70, "duration": 1192, "velocity": 90}, {"time": 115679, "pitch": 74, "duration": 1910, "velocity": 100}, {"time": 116400, "pitch": 63, "duration": 1189, "velocity": 70}, {"time": 116881, "pitch": 70, "duration": 708, "velocity": 85}, {"time": 117121, "pitch": 79, "duration": 468, "velocity": 90}, {"time": 117280, "pitch": 48, "duration": 309, "velocity": 85}, {"time": 117360, "pitch": 55, "duration": 229, "velocity": 95}, {"time": 117599, "pitch": 53, "duration": 1432, "velocity": 85}, {"time": 117599, "pitch": 63, "duration": 1910, "velocity": 80}, {"time": 117599, "pitch": 69, "duration": 1910, "velocity": 90}, {"time": 117599, "pitch": 74, "duration": 711, "velocity": 100}, {"time": 118320, "pitch": 73, "duration": 1189, "velocity": 95}, {"time": 119041, "pitch": 53, "duration": 468, "velocity": 85}, {"time": 119200, "pitch": 65, "duration": 309, "velocity": 85}, {"time": 119519, "pitch": 46, "duration": 1911, "velocity": 85}, {"time": 119519, "pitch": 62, "duration": 469, "velocity": 70}, {"time": 119519, "pitch": 65, "duration": 711, "velocity": 80}, {"time": 119519, "pitch": 69, "duration": 1911, "velocity": 90}, {"time": 119519, "pitch": 72, "duration": 1911, "velocity": 100}, {"time": 119998, "pitch": 62, "duration": 1432, "velocity": 85}, {"time": 120240, "pitch": 65, "duration": 1190, "velocity": 75}, {"time": 120642, "pitch": 74, "duration": 788, "velocity": 60}, {"time": 120882, "pitch": 77, "duration": 548, "velocity": 65}, {"time": 121121, "pitch": 81, "duration": 309, "velocity": 70}, {"time": 121440, "pitch": 50, "duration": 1910, "velocity": 85}, {"time": 121440, "pitch": 60, "duration": 1910, "velocity": 80}, {"time": 121440, "pitch": 66, "duration": 1910, "velocity": 90}, {"time": 121440, "pitch": 70, "duration": 953, "velocity": 100}, {"time": 122403, "pitch": 69, "duration": 947, "velocity": 95}, {"time": 123360, "pitch": 43, "duration": 1911, "velocity": 85}, {"time": 123360, "pitch": 53, "duration": 628, "velocity": 80}, {"time": 123360, "pitch": 58, "duration": 1432, "velocity": 90}, {"time": 123360, "pitch": 62, "duration": 1432, "velocity": 100}, {"time": 123998, "pitch": 53, "duration": 1033, "velocity": 80}, {"time": 124237, "pitch": 69, "duration": 1034, "velocity": 95}, {"time": 124560, "pitch": 65, "duration": 711, "velocity": 80}, {"time": 124802, "pitch": 60, "duration": 469, "velocity": 70}, {"time": 125041, "pitch": 53, "duration": 230, "velocity": 60}, {"time": 125281, "pitch": 40, "duration": 1910, "velocity": 85}, {"time": 125281, "pitch": 55, "duration": 1910, "velocity": 80}, {"time": 125281, "pitch": 58, "duration": 1910, "velocity": 90}, {"time": 125281, "pitch": 62, "duration": 1910, "velocity": 100}, {"time": 126198, "pitch": 67, "duration": 993, "velocity": 75}, {"time": 126217, "pitch": 70, "duration": 974, "velocity": 85}, {"time": 126237, "pitch": 74, "duration": 954, "velocity": 95}, {"time": 126723, "pitch": 65, "duration": 468, "velocity": 70}, {"time": 127201, "pitch": 39, "duration": 1911, "velocity": 85}, {"time": 127201, "pitch": 58, "duration": 1911, "velocity": 80}, {"time": 127201, "pitch": 62, "duration": 1911, "velocity": 90}, {"time": 127201, "pitch": 67, "duration": 1911, "velocity": 100}, {"time": 128078, "pitch": 55, "duration": 1034, "velocity": 75}, {"time": 128320, "pitch": 70, "duration": 792, "velocity": 80}, {"time": 128643, "pitch": 77, "duration": 469, "velocity": 85}, {"time": 129121, "pitch": 38, "duration": 1911, "velocity": 85}, {"time": 129121, "pitch": 53, "duration": 1911, "velocity": 80}, {"time": 129121, "pitch": 57, "duration": 1911, "velocity": 90}, {"time": 129121, "pitch": 60, "duration": 1911, "velocity": 100}, {"time": 129719, "pitch": 72, "duration": 1313, "velocity": 85}, {"time": 130078, "pitch": 76, "duration": 954, "velocity": 85}, {"time": 130557, "pitch": 79, "duration": 475, "velocity": 85}, {"time": 131042, "pitch": 43, "duration": 1910, "velocity": 85}, {"time": 131042, "pitch": 53, "duration": 628, "velocity": 80}, {"time": 131042, "pitch": 58, "duration": 1425, "velocity": 90}, {"time": 131042, "pitch": 62, "duration": 1425, "velocity": 100}, {"time": 131680, "pitch": 53, "duration": 1030, "velocity": 80}, {"time": 131919, "pitch": 69, "duration": 1033, "velocity": 95}, {"time": 132238, "pitch": 65, "duration": 714, "velocity": 80}, {"time": 132477, "pitch": 60, "duration": 475, "velocity": 70}, {"time": 132720, "pitch": 53, "duration": 232, "velocity": 60}, {"time": 132962, "pitch": 40, "duration": 1911, "velocity": 85}, {"time": 132962, "pitch": 55, "duration": 1911, "velocity": 80}, {"time": 132962, "pitch": 58, "duration": 1911, "velocity": 90}, {"time": 132962, "pitch": 62, "duration": 1911, "velocity": 100}, {"time": 133879, "pitch": 67, "duration": 994, "velocity": 75}, {"time": 133899, "pitch": 70, "duration": 974, "velocity": 85}, {"time": 133919, "pitch": 74, "duration": 954, "velocity": 95}, {"time": 134398, "pitch": 65, "duration": 475, "velocity": 70}, {"time": 134883, "pitch": 39, "duration": 1910, "velocity": 85}, {"time": 134883, "pitch": 58, "duration": 1910, "velocity": 80}, {"time": 134883, "pitch": 62, "duration": 1910, "velocity": 90}, {"time": 134883, "pitch": 67, "duration": 1910, "velocity": 100}, {"time": 135760, "pitch": 55, "duration": 1033, "velocity": 75}, {"time": 135999, "pitch": 70, "duration": 794, "velocity": 80}, {"time": 136318, "pitch": 77, "duration": 475, "velocity": 85}, {"time": 136803, "pitch": 38, "duration": 1904, "velocity": 85}, {"time": 136803, "pitch": 53, "duration": 1904, "velocity": 80}, {"time": 136803, "pitch": 57, "duration": 1904, "velocity": 90}, {"time": 136803, "pitch": 60, "duration": 1904, "velocity": 100}, {"time": 137401, "pitch": 72, "duration": 1306, "velocity": 85}, {"time": 137760, "pitch": 76, "duration": 947, "velocity": 85}, {"time": 138238, "pitch": 79, "duration": 469, "velocity": 85}, {"time": 138717, "pitch": 43, "duration": 3352, "velocity": 85}, {"time": 138717, "pitch": 53, "duration": 3352, "velocity": 80}, {"time": 138717, "pitch": 58, "duration": 3352, "velocity": 90}, {"time": 138717, "pitch": 62, "duration": 3352, "velocity": 100}, {"time": 142079, "pitch": 38, "duration": 469, "velocity": 95}, {"time": 142079, "pitch": 55, "duration": 469, "velocity": 90}, {"time": 142079, "pitch": 60, "duration": 469, "velocity": 100}, {"time": 142079, "pitch": 64, "duration": 469, "velocity": 110}, {"time": 142558, "pitch": 43, "duration": 3352, "velocity": 85}, {"time": 142558, "pitch": 53, "duration": 3352, "velocity": 80}, {"time": 142558, "pitch": 58, "duration": 3352, "velocity": 90}, {"time": 142558, "pitch": 62, "duration": 3352, "velocity": 100}, {"time": 146398, "pitch": 43, "duration": 1911, "velocity": 85}, {"time": 146398, "pitch": 53, "duration": 630, "velocity": 80}, {"time": 146398, "pitch": 58, "duration": 1433, "velocity": 90}, {"time": 146398, "pitch": 62, "duration": 1433, "velocity": 100}, {"time": 147039, "pitch": 53, "duration": 1031, "velocity": 80}, {"time": 147281, "pitch": 69, "duration": 1028, "velocity": 95}, {"time": 147601, "pitch": 65, "duration": 708, "velocity": 80}, {"time": 147840, "pitch": 60, "duration": 469, "velocity": 70}, {"time": 148080, "pitch": 53, "duration": 229, "velocity": 60}, {"time": 148319, "pitch": 40, "duration": 1910, "velocity": 85}, {"time": 148319, "pitch": 55, "duration": 1910, "velocity": 80}, {"time": 148319, "pitch": 58, "duration": 1910, "velocity": 90}, {"time": 148319, "pitch": 62, "duration": 1910, "velocity": 100}, {"time": 149242, "pitch": 67, "duration": 987, "velocity": 75}, {"time": 149262, "pitch": 70, "duration": 967, "velocity": 85}, {"time": 149283, "pitch": 74, "duration": 946, "velocity": 95}, {"time": 149761, "pitch": 65, "duration": 468, "velocity": 70}, {"time": 150239, "pitch": 39, "duration": 1911, "velocity": 85}, {"time": 150239, "pitch": 58, "duration": 1911, "velocity": 80}, {"time": 150239, "pitch": 62, "duration": 1911, "velocity": 90}, {"time": 150239, "pitch": 67, "duration": 1911, "velocity": 100}, {"time": 150960, "pitch": 55, "duration": 1190, "velocity": 75}, {"time": 151203, "pitch": 65, "duration": 947, "velocity": 80}, {"time": 151602, "pitch": 70, "duration": 548, "velocity": 80}, {"time": 151921, "pitch": 77, "duration": 229, "velocity": 85}, {"time": 152160, "pitch": 38, "duration": 1910, "velocity": 85}, {"time": 152160, "pitch": 53, "duration": 1910, "velocity": 80}, {"time": 152160, "pitch": 57, "duration": 1910, "velocity": 90}, {"time": 152160, "pitch": 60, "duration": 1910, "velocity": 100}, {"time": 152800, "pitch": 72, "duration": 1270, "velocity": 85}, {"time": 153123, "pitch": 76, "duration": 947, "velocity": 85}, {"time": 153602, "pitch": 79, "duration": 468, "velocity": 85}, {"time": 154080, "pitch": 43, "duration": 1911, "velocity": 85}, {"time": 154080, "pitch": 53, "duration": 628, "velocity": 80}, {"time": 154080, "pitch": 58, "duration": 1432, "velocity": 90}, {"time": 154080, "pitch": 62, "duration": 1432, "velocity": 100}, {"time": 154718, "pitch": 53, "duration": 1033, "velocity": 80}, {"time": 154957, "pitch": 69, "duration": 1034, "velocity": 95}, {"time": 155280, "pitch": 65, "duration": 711, "velocity": 80}, {"time": 155522, "pitch": 60, "duration": 469, "velocity": 70}, {"time": 155761, "pitch": 53, "duration": 230, "velocity": 60}, {"time": 156001, "pitch": 40, "duration": 1910, "velocity": 85}, {"time": 156001, "pitch": 55, "duration": 1910, "velocity": 80}, {"time": 156001, "pitch": 58, "duration": 1910, "velocity": 90}, {"time": 156001, "pitch": 62, "duration": 1910, "velocity": 100}, {"time": 156917, "pitch": 67, "duration": 994, "velocity": 75}, {"time": 156937, "pitch": 70, "duration": 974, "velocity": 85}, {"time": 156957, "pitch": 74, "duration": 954, "velocity": 95}, {"time": 157443, "pitch": 65, "duration": 468, "velocity": 70}, {"time": 157921, "pitch": 39, "duration": 1910, "velocity": 85}, {"time": 157921, "pitch": 58, "duration": 1910, "velocity": 80}, {"time": 157921, "pitch": 62, "duration": 1910, "velocity": 90}, {"time": 157921, "pitch": 67, "duration": 1910, "velocity": 100}, {"time": 158639, "pitch": 55, "duration": 1192, "velocity": 75}, {"time": 158878, "pitch": 65, "duration": 953, "velocity": 80}, {"time": 159282, "pitch": 70, "duration": 549, "velocity": 80}, {"time": 159602, "pitch": 77, "duration": 229, "velocity": 85}, {"time": 159841, "pitch": 38, "duration": 1911, "velocity": 85}, {"time": 159841, "pitch": 53, "duration": 1911, "velocity": 80}, {"time": 159841, "pitch": 57, "duration": 1911, "velocity": 90}, {"time": 159841, "pitch": 60, "duration": 1911, "velocity": 100}, {"time": 160479, "pitch": 72, "duration": 1273, "velocity": 85}, {"time": 160798, "pitch": 76, "duration": 954, "velocity": 85}, {"time": 161277, "pitch": 79, "duration": 475, "velocity": 85}, {"time": 161762, "pitch": 43, "duration": 4808, "velocity": 85}, {"time": 161762, "pitch": 53, "duration": 4808, "velocity": 80}, {"time": 161762, "pitch": 58, "duration": 4808, "velocity": 90}, {"time": 161762, "pitch": 62, "duration": 4808, "velocity": 100}, {"time": 5158, "pitch": 55, "duration": 120, "velocity": 55}, {"time": 5278, "pitch": 55, "duration": 605, "velocity": 65}, {"time": 5883, "pitch": 58, "duration": 120, "velocity": 80}, {"time": 6003, "pitch": 55, "duration": 119, "velocity": 70}, {"time": 6122, "pitch": 53, "duration": 120, "velocity": 65}, {"time": 6242, "pitch": 53, "duration": 119, "velocity": 70}, {"time": 6361, "pitch": 55, "duration": 837, "velocity": 65}, {"time": 7198, "pitch": 67, "duration": 419, "velocity": 90}, {"time": 7208, "pitch": 72, "duration": 419, "velocity": 100}, {"time": 7677, "pitch": 65, "duration": 485, "velocity": 85}, {"time": 7687, "pitch": 70, "duration": 475, "velocity": 95}, {"time": 8162, "pitch": 60, "duration": 160, "velocity": 30}, {"time": 8172, "pitch": 65, "duration": 150, "velocity": 95}, {"time": 8322, "pitch": 67, "duration": 89, "velocity": 80}, {"time": 8332, "pitch": 62, "duration": 69, "velocity": 50}, {"time": 8401, "pitch": 62, "duration": 170, "velocity": 70}, {"time": 8411, "pitch": 67, "duration": 150, "velocity": 85}, {"time": 8561, "pitch": 67, "duration": 60, "velocity": 95}, {"time": 8571, "pitch": 62, "duration": 50, "velocity": 75}, {"time": 8641, "pitch": 55, "duration": 9, "velocity": 75}, {"time": 8800, "pitch": 55, "duration": 10, "velocity": 70}, {"time": 8880, "pitch": 62, "duration": 159, "velocity": 70}, {"time": 8890, "pitch": 67, "duration": 149, "velocity": 95}, {"time": 9039, "pitch": 65, "duration": 70, "velocity": 90}, {"time": 9049, "pitch": 60, "duration": 60, "velocity": 65}, {"time": 9119, "pitch": 60, "duration": 10, "velocity": 65}, {"time": 9358, "pitch": 60, "duration": 160, "velocity": 85}, {"time": 9368, "pitch": 65, "duration": 160, "velocity": 95}, {"time": 9597, "pitch": 60, "duration": 162, "velocity": 85}, {"time": 9607, "pitch": 65, "duration": 162, "velocity": 95}, {"time": 9840, "pitch": 60, "duration": 162, "velocity": 85}, {"time": 9850, "pitch": 65, "duration": 162, "velocity": 95}, {"time": 10083, "pitch": 62, "duration": 10, "velocity": 70}, {"time": 10242, "pitch": 62, "duration": 10, "velocity": 75}, {"time": 10322, "pitch": 62, "duration": 199, "velocity": 85}, {"time": 10332, "pitch": 67, "duration": 189, "velocity": 95}, {"time": 10561, "pitch": 60, "duration": 10, "velocity": 70}, {"time": 10720, "pitch": 65, "duration": 80, "velocity": 85}, {"time": 10730, "pitch": 70, "duration": 80, "velocity": 95}, {"time": 10960, "pitch": 62, "duration": 10, "velocity": 70}, {"time": 11039, "pitch": 67, "duration": 200, "velocity": 85}, {"time": 11049, "pitch": 72, "duration": 190, "velocity": 95}, {"time": 11279, "pitch": 65, "duration": 9, "velocity": 70}, {"time": 11438, "pitch": 65, "duration": 80, "velocity": 85}, {"time": 11448, "pitch": 70, "duration": 80, "velocity": 95}, {"time": 11518, "pitch": 65, "duration": 10, "velocity": 75}, {"time": 11679, "pitch": 65, "duration": 11, "velocity": 70}, {"time": 11760, "pitch": 65, "duration": 10, "velocity": 75}, {"time": 11922, "pitch": 65, "duration": 81, "velocity": 95}, {"time": 12003, "pitch": 60, "duration": 159, "velocity": 30}, {"time": 12013, "pitch": 65, "duration": 149, "velocity": 95}, {"time": 12162, "pitch": 67, "duration": 90, "velocity": 80}, {"time": 12172, "pitch": 62, "duration": 70, "velocity": 50}, {"time": 12242, "pitch": 62, "duration": 170, "velocity": 70}, {"time": 12252, "pitch": 67, "duration": 150, "velocity": 85}, {"time": 12402, "pitch": 67, "duration": 59, "velocity": 95}, {"time": 12412, "pitch": 62, "duration": 49, "velocity": 75}, {"time": 12481, "pitch": 55, "duration": 10, "velocity": 75}, {"time": 12641, "pitch": 55, "duration": 10, "velocity": 70}, {"time": 12721, "pitch": 62, "duration": 159, "velocity": 70}, {"time": 12731, "pitch": 67, "duration": 149, "velocity": 95}, {"time": 12880, "pitch": 65, "duration": 70, "velocity": 90}, {"time": 12890, "pitch": 60, "duration": 60, "velocity": 65}, {"time": 12960, "pitch": 60, "duration": 10, "velocity": 65}, {"time": 13199, "pitch": 60, "duration": 159, "velocity": 85}, {"time": 13209, "pitch": 65, "duration": 159, "velocity": 95}, {"time": 13438, "pitch": 60, "duration": 162, "velocity": 85}, {"time": 13448, "pitch": 65, "duration": 162, "velocity": 95}, {"time": 13681, "pitch": 60, "duration": 162, "velocity": 85}, {"time": 13691, "pitch": 65, "duration": 162, "velocity": 95}, {"time": 13923, "pitch": 62, "duration": 10, "velocity": 70}, {"time": 14083, "pitch": 62, "duration": 10, "velocity": 75}, {"time": 14163, "pitch": 62, "duration": 199, "velocity": 85}, {"time": 14173, "pitch": 67, "duration": 189, "velocity": 95}, {"time": 14402, "pitch": 60, "duration": 10, "velocity": 70}, {"time": 14561, "pitch": 65, "duration": 80, "velocity": 85}, {"time": 14571, "pitch": 70, "duration": 80, "velocity": 95}, {"time": 14800, "pitch": 62, "duration": 10, "velocity": 70}, {"time": 14880, "pitch": 67, "duration": 200, "velocity": 85}, {"time": 14890, "pitch": 72, "duration": 190, "velocity": 95}, {"time": 15119, "pitch": 65, "duration": 10, "velocity": 70}, {"time": 15279, "pitch": 65, "duration": 80, "velocity": 85}, {"time": 15289, "pitch": 70, "duration": 80, "velocity": 95}, {"time": 15359, "pitch": 65, "duration": 10, "velocity": 75}, {"time": 15518, "pitch": 65, "duration": 10, "velocity": 70}, {"time": 15598, "pitch": 65, "duration": 10, "velocity": 75}, {"time": 15757, "pitch": 65, "duration": 80, "velocity": 95}, {"time": 15837, "pitch": 60, "duration": 162, "velocity": 30}, {"time": 15847, "pitch": 65, "duration": 152, "velocity": 95}, {"time": 15999, "pitch": 67, "duration": 91, "velocity": 80}, {"time": 16009, "pitch": 62, "duration": 71, "velocity": 50}, {"time": 16080, "pitch": 62, "duration": 171, "velocity": 70}, {"time": 16090, "pitch": 67, "duration": 151, "velocity": 85}, {"time": 16241, "pitch": 67, "duration": 61, "velocity": 95}, {"time": 16251, "pitch": 62, "duration": 51, "velocity": 75}, {"time": 16322, "pitch": 55, "duration": 10, "velocity": 75}, {"time": 16482, "pitch": 55, "duration": 10, "velocity": 70}, {"time": 16561, "pitch": 62, "duration": 160, "velocity": 70}, {"time": 16571, "pitch": 67, "duration": 150, "velocity": 95}, {"time": 16721, "pitch": 65, "duration": 70, "velocity": 90}, {"time": 16731, "pitch": 60, "duration": 60, "velocity": 65}, {"time": 16801, "pitch": 60, "duration": 10, "velocity": 65}, {"time": 17040, "pitch": 60, "duration": 159, "velocity": 85}, {"time": 17050, "pitch": 65, "duration": 159, "velocity": 95}, {"time": 17279, "pitch": 60, "duration": 159, "velocity": 85}, {"time": 17289, "pitch": 65, "duration": 159, "velocity": 95}, {"time": 17518, "pitch": 60, "duration": 160, "velocity": 85}, {"time": 17528, "pitch": 65, "duration": 160, "velocity": 95}, {"time": 17757, "pitch": 62, "duration": 10, "velocity": 70}, {"time": 17919, "pitch": 62, "duration": 10, "velocity": 75}, {"time": 18000, "pitch": 62, "duration": 202, "velocity": 85}, {"time": 18010, "pitch": 67, "duration": 192, "velocity": 95}, {"time": 18243, "pitch": 60, "duration": 10, "velocity": 70}, {"time": 18402, "pitch": 65, "duration": 80, "velocity": 85}, {"time": 18412, "pitch": 70, "duration": 80, "velocity": 95}, {"time": 18641, "pitch": 62, "duration": 10, "velocity": 70}, {"time": 18721, "pitch": 67, "duration": 199, "velocity": 85}, {"time": 18731, "pitch": 72, "duration": 189, "velocity": 95}, {"time": 18960, "pitch": 65, "duration": 10, "velocity": 70}, {"time": 19120, "pitch": 65, "duration": 79, "velocity": 85}, {"time": 19130, "pitch": 70, "duration": 79, "velocity": 95}, {"time": 19199, "pitch": 65, "duration": 10, "velocity": 75}, {"time": 19359, "pitch": 65, "duration": 10, "velocity": 70}, {"time": 19439, "pitch": 65, "duration": 10, "velocity": 75}, {"time": 19598, "pitch": 65, "duration": 80, "velocity": 95}, {"time": 19678, "pitch": 60, "duration": 162, "velocity": 30}, {"time": 19688, "pitch": 65, "duration": 152, "velocity": 95}, {"time": 19840, "pitch": 67, "duration": 91, "velocity": 80}, {"time": 19850, "pitch": 62, "duration": 70, "velocity": 50}, {"time": 19920, "pitch": 62, "duration": 172, "velocity": 70}, {"time": 19931, "pitch": 67, "duration": 151, "velocity": 85}, {"time": 20082, "pitch": 67, "duration": 61, "velocity": 95}, {"time": 20092, "pitch": 62, "duration": 51, "velocity": 75}, {"time": 20163, "pitch": 55, "duration": 10, "velocity": 75}, {"time": 20323, "pitch": 55, "duration": 9, "velocity": 70}, {"time": 20402, "pitch": 62, "duration": 160, "velocity": 70}, {"time": 20412, "pitch": 67, "duration": 150, "velocity": 95}, {"time": 20562, "pitch": 65, "duration": 69, "velocity": 90}, {"time": 20572, "pitch": 60, "duration": 59, "velocity": 65}, {"time": 20641, "pitch": 60, "duration": 10, "velocity": 65}, {"time": 20881, "pitch": 60, "duration": 159, "velocity": 85}, {"time": 20891, "pitch": 65, "duration": 159, "velocity": 95}, {"time": 21120, "pitch": 60, "duration": 159, "velocity": 85}, {"time": 21130, "pitch": 65, "duration": 159, "velocity": 95}, {"time": 21359, "pitch": 60, "duration": 160, "velocity": 85}, {"time": 21369, "pitch": 65, "duration": 159, "velocity": 95}, {"time": 21598, "pitch": 62, "duration": 10, "velocity": 70}, {"time": 21758, "pitch": 62, "duration": 10, "velocity": 75}, {"time": 21837, "pitch": 62, "duration": 200, "velocity": 85}, {"time": 21847, "pitch": 67, "duration": 190, "velocity": 95}, {"time": 22077, "pitch": 60, "duration": 10, "velocity": 70}, {"time": 22238, "pitch": 65, "duration": 81, "velocity": 85}, {"time": 22248, "pitch": 70, "duration": 81, "velocity": 95}, {"time": 22481, "pitch": 62, "duration": 10, "velocity": 70}, {"time": 22562, "pitch": 67, "duration": 199, "velocity": 85}, {"time": 22572, "pitch": 72, "duration": 189, "velocity": 95}, {"time": 22801, "pitch": 65, "duration": 10, "velocity": 70}, {"time": 22961, "pitch": 65, "duration": 79, "velocity": 85}, {"time": 22971, "pitch": 70, "duration": 79, "velocity": 95}, {"time": 23040, "pitch": 65, "duration": 10, "velocity": 75}, {"time": 23200, "pitch": 65, "duration": 10, "velocity": 70}, {"time": 23279, "pitch": 65, "duration": 10, "velocity": 75}, {"time": 23439, "pitch": 65, "duration": 80, "velocity": 95}, {"time": 23519, "pitch": 60, "duration": 159, "velocity": 30}, {"time": 23529, "pitch": 65, "duration": 149, "velocity": 95}, {"time": 23678, "pitch": 67, "duration": 90, "velocity": 80}, {"time": 23688, "pitch": 62, "duration": 70, "velocity": 50}, {"time": 23758, "pitch": 62, "duration": 169, "velocity": 70}, {"time": 23768, "pitch": 67, "duration": 149, "velocity": 85}, {"time": 23917, "pitch": 67, "duration": 60, "velocity": 95}, {"time": 23927, "pitch": 62, "duration": 50, "velocity": 75}, {"time": 23997, "pitch": 55, "duration": 10, "velocity": 75}, {"time": 24159, "pitch": 55, "duration": 10, "velocity": 70}, {"time": 24240, "pitch": 62, "duration": 161, "velocity": 70}, {"time": 24250, "pitch": 67, "duration": 151, "velocity": 95}, {"time": 24401, "pitch": 65, "duration": 71, "velocity": 90}, {"time": 24412, "pitch": 60, "duration": 60, "velocity": 65}, {"time": 24482, "pitch": 60, "duration": 10, "velocity": 65}, {"time": 24722, "pitch": 60, "duration": 159, "velocity": 85}, {"time": 24731, "pitch": 65, "duration": 160, "velocity": 95}, {"time": 24961, "pitch": 60, "duration": 159, "velocity": 85}, {"time": 24971, "pitch": 65, "duration": 159, "velocity": 95}, {"time": 25200, "pitch": 60, "duration": 159, "velocity": 85}, {"time": 25210, "pitch": 65, "duration": 159, "velocity": 95}, {"time": 25439, "pitch": 62, "duration": 10, "velocity": 70}, {"time": 25599, "pitch": 62, "duration": 10, "velocity": 75}, {"time": 25678, "pitch": 62, "duration": 200, "velocity": 85}, {"time": 25688, "pitch": 67, "duration": 190, "velocity": 95}, {"time": 25917, "pitch": 60, "duration": 11, "velocity": 70}, {"time": 26079, "pitch": 65, "duration": 81, "velocity": 85}, {"time": 26089, "pitch": 70, "duration": 81, "velocity": 95}, {"time": 26322, "pitch": 62, "duration": 10, "velocity": 70}, {"time": 26403, "pitch": 67, "duration": 199, "velocity": 85}, {"time": 26413, "pitch": 72, "duration": 189, "velocity": 95}, {"time": 26642, "pitch": 65, "duration": 10, "velocity": 70}, {"time": 26801, "pitch": 65, "duration": 80, "velocity": 85}, {"time": 26811, "pitch": 70, "duration": 80, "velocity": 95}, {"time": 26881, "pitch": 65, "duration": 10, "velocity": 75}, {"time": 27041, "pitch": 65, "duration": 10, "velocity": 70}, {"time": 27120, "pitch": 65, "duration": 10, "velocity": 75}, {"time": 27280, "pitch": 65, "duration": 80, "velocity": 95}, {"time": 27360, "pitch": 60, "duration": 159, "velocity": 30}, {"time": 27369, "pitch": 65, "duration": 150, "velocity": 95}, {"time": 27519, "pitch": 67, "duration": 90, "velocity": 80}, {"time": 27529, "pitch": 62, "duration": 70, "velocity": 50}, {"time": 27599, "pitch": 62, "duration": 169, "velocity": 70}, {"time": 27609, "pitch": 67, "duration": 149, "velocity": 85}, {"time": 27758, "pitch": 67, "duration": 60, "velocity": 95}, {"time": 27768, "pitch": 62, "duration": 50, "velocity": 75}, {"time": 27838, "pitch": 55, "duration": 10, "velocity": 75}, {"time": 28000, "pitch": 55, "duration": 10, "velocity": 70}, {"time": 28081, "pitch": 62, "duration": 161, "velocity": 70}, {"time": 28091, "pitch": 67, "duration": 151, "velocity": 95}, {"time": 28242, "pitch": 65, "duration": 71, "velocity": 90}, {"time": 28252, "pitch": 60, "duration": 61, "velocity": 65}, {"time": 28323, "pitch": 60, "duration": 10, "velocity": 65}, {"time": 28562, "pitch": 60, "duration": 160, "velocity": 85}, {"time": 28572, "pitch": 65, "duration": 160, "velocity": 95}, {"time": 28802, "pitch": 60, "duration": 159, "velocity": 85}, {"time": 28812, "pitch": 65, "duration": 159, "velocity": 95}, {"time": 29041, "pitch": 60, "duration": 159, "velocity": 85}, {"time": 29051, "pitch": 65, "duration": 159, "velocity": 95}, {"time": 29280, "pitch": 62, "duration": 10, "velocity": 70}, {"time": 29439, "pitch": 62, "duration": 10, "velocity": 75}, {"time": 29519, "pitch": 62, "duration": 199, "velocity": 85}, {"time": 29529, "pitch": 67, "duration": 189, "velocity": 95}, {"time": 29758, "pitch": 60, "duration": 10, "velocity": 70}, {"time": 29918, "pitch": 65, "duration": 80, "velocity": 85}, {"time": 29928, "pitch": 70, "duration": 79, "velocity": 95}, {"time": 30157, "pitch": 62, "duration": 10, "velocity": 70}, {"time": 30237, "pitch": 67, "duration": 202, "velocity": 85}, {"time": 30247, "pitch": 72, "duration": 192, "velocity": 95}, {"time": 30479, "pitch": 65, "duration": 10, "velocity": 70}, {"time": 30641, "pitch": 65, "duration": 81, "velocity": 85}, {"time": 30651, "pitch": 70, "duration": 81, "velocity": 95}, {"time": 30722, "pitch": 65, "duration": 10, "velocity": 75}, {"time": 30881, "pitch": 65, "duration": 10, "velocity": 70}, {"time": 30961, "pitch": 65, "duration": 10, "velocity": 75}, {"time": 31121, "pitch": 65, "duration": 79, "velocity": 95}, {"time": 31200, "pitch": 60, "duration": 160, "velocity": 30}, {"time": 31210, "pitch": 65, "duration": 150, "velocity": 95}, {"time": 31360, "pitch": 67, "duration": 90, "velocity": 80}, {"time": 31370, "pitch": 62, "duration": 70, "velocity": 50}, {"time": 31440, "pitch": 62, "duration": 169, "velocity": 70}, {"time": 31450, "pitch": 67, "duration": 149, "velocity": 85}, {"time": 31599, "pitch": 67, "duration": 60, "velocity": 95}, {"time": 31609, "pitch": 62, "duration": 50, "velocity": 75}, {"time": 31679, "pitch": 55, "duration": 10, "velocity": 75}, {"time": 31838, "pitch": 55, "duration": 10, "velocity": 70}, {"time": 31918, "pitch": 62, "duration": 159, "velocity": 70}, {"time": 31928, "pitch": 67, "duration": 149, "velocity": 95}, {"time": 32077, "pitch": 65, "duration": 70, "velocity": 90}, {"time": 32087, "pitch": 60, "duration": 60, "velocity": 65}, {"time": 32157, "pitch": 60, "duration": 10, "velocity": 65}, {"time": 32400, "pitch": 60, "duration": 162, "velocity": 85}, {"time": 32410, "pitch": 65, "duration": 162, "velocity": 95}, {"time": 32642, "pitch": 60, "duration": 160, "velocity": 85}, {"time": 32652, "pitch": 65, "duration": 160, "velocity": 95}, {"time": 32882, "pitch": 60, "duration": 159, "velocity": 85}, {"time": 32892, "pitch": 65, "duration": 159, "velocity": 95}, {"time": 33121, "pitch": 62, "duration": 10, "velocity": 70}, {"time": 33280, "pitch": 62, "duration": 10, "velocity": 75}, {"time": 33360, "pitch": 62, "duration": 199, "velocity": 85}, {"time": 33370, "pitch": 67, "duration": 189, "velocity": 95}, {"time": 33599, "pitch": 60, "duration": 10, "velocity": 70}, {"time": 33759, "pitch": 65, "duration": 79, "velocity": 85}, {"time": 33769, "pitch": 70, "duration": 79, "velocity": 95}, {"time": 33998, "pitch": 62, "duration": 10, "velocity": 70}, {"time": 34078, "pitch": 67, "duration": 202, "velocity": 85}, {"time": 34088, "pitch": 72, "duration": 192, "velocity": 95}, {"time": 34320, "pitch": 65, "duration": 10, "velocity": 70}, {"time": 34482, "pitch": 65, "duration": 81, "velocity": 85}, {"time": 34492, "pitch": 70, "duration": 81, "velocity": 95}, {"time": 34563, "pitch": 65, "duration": 10, "velocity": 75}, {"time": 34722, "pitch": 65, "duration": 10, "velocity": 70}, {"time": 34802, "pitch": 65, "duration": 10, "velocity": 75}, {"time": 34961, "pitch": 65, "duration": 80, "velocity": 95}, {"time": 35041, "pitch": 60, "duration": 160, "velocity": 30}, {"time": 35051, "pitch": 65, "duration": 150, "velocity": 95}, {"time": 35201, "pitch": 67, "duration": 89, "velocity": 80}, {"time": 35211, "pitch": 62, "duration": 69, "velocity": 50}, {"time": 35280, "pitch": 62, "duration": 170, "velocity": 70}, {"time": 35290, "pitch": 67, "duration": 150, "velocity": 85}, {"time": 35440, "pitch": 67, "duration": 60, "velocity": 95}, {"time": 35450, "pitch": 62, "duration": 50, "velocity": 75}, {"time": 35520, "pitch": 55, "duration": 10, "velocity": 75}, {"time": 35679, "pitch": 55, "duration": 10, "velocity": 70}, {"time": 35759, "pitch": 62, "duration": 159, "velocity": 70}, {"time": 35769, "pitch": 67, "duration": 149, "velocity": 95}, {"time": 35918, "pitch": 65, "duration": 70, "velocity": 90}, {"time": 35928, "pitch": 60, "duration": 60, "velocity": 65}, {"time": 35998, "pitch": 60, "duration": 10, "velocity": 65}, {"time": 36241, "pitch": 60, "duration": 161, "velocity": 85}, {"time": 36251, "pitch": 65, "duration": 162, "velocity": 95}, {"time": 36483, "pitch": 60, "duration": 160, "velocity": 85}, {"time": 36493, "pitch": 65, "duration": 160, "velocity": 95}, {"time": 36722, "pitch": 60, "duration": 160, "velocity": 85}, {"time": 36732, "pitch": 65, "duration": 160, "velocity": 95}, {"time": 36962, "pitch": 62, "duration": 10, "velocity": 70}, {"time": 37121, "pitch": 62, "duration": 10, "velocity": 75}, {"time": 37201, "pitch": 62, "duration": 199, "velocity": 85}, {"time": 37211, "pitch": 67, "duration": 189, "velocity": 95}, {"time": 37440, "pitch": 60, "duration": 10, "velocity": 70}, {"time": 37600, "pitch": 65, "duration": 79, "velocity": 85}, {"time": 37609, "pitch": 70, "duration": 80, "velocity": 95}, {"time": 37839, "pitch": 62, "duration": 10, "velocity": 70}, {"time": 37918, "pitch": 67, "duration": 200, "velocity": 85}, {"time": 37928, "pitch": 72, "duration": 190, "velocity": 95}, {"time": 38158, "pitch": 65, "duration": 10, "velocity": 70}, {"time": 38317, "pitch": 65, "duration": 80, "velocity": 85}, {"time": 38327, "pitch": 70, "duration": 80, "velocity": 95}, {"time": 38397, "pitch": 65, "duration": 10, "velocity": 75}, {"time": 38559, "pitch": 65, "duration": 10, "velocity": 70}, {"time": 38639, "pitch": 65, "duration": 11, "velocity": 75}, {"time": 38801, "pitch": 65, "duration": 81, "velocity": 95}, {"time": 38882, "pitch": 55, "duration": 10, "velocity": 50}, {"time": 39121, "pitch": 55, "duration": 10, "velocity": 70}, {"time": 39281, "pitch": 55, "duration": 20, "velocity": 85}, {"time": 39600, "pitch": 55, "duration": 10, "velocity": 70}, {"time": 39759, "pitch": 55, "duration": 20, "velocity": 85}, {"time": 40078, "pitch": 55, "duration": 10, "velocity": 70}, {"time": 40238, "pitch": 55, "duration": 19, "velocity": 85}, {"time": 40560, "pitch": 55, "duration": 10, "velocity": 70}, {"time": 40722, "pitch": 55, "duration": 20, "velocity": 85}, {"time": 40802, "pitch": 55, "duration": 10, "velocity": 50}, {"time": 41042, "pitch": 55, "duration": 10, "velocity": 70}, {"time": 41201, "pitch": 55, "duration": 20, "velocity": 85}, {"time": 41520, "pitch": 58, "duration": 10, "velocity": 70}, {"time": 41680, "pitch": 58, "duration": 19, "velocity": 85}, {"time": 41759, "pitch": 58, "duration": 20, "velocity": 85}, {"time": 41919, "pitch": 58, "duration": 10, "velocity": 85}, {"time": 41998, "pitch": 58, "duration": 20, "velocity": 85}, {"time": 42158, "pitch": 58, "duration": 10, "velocity": 85}, {"time": 42399, "pitch": 67, "duration": 243, "velocity": 95}, {"time": 42410, "pitch": 72, "duration": 232, "velocity": 100}, {"time": 42642, "pitch": 72, "duration": 81, "velocity": 95}, {"time": 42652, "pitch": 67, "duration": 71, "velocity": 90}, {"time": 42723, "pitch": 67, "duration": 239, "velocity": 100}, {"time": 42733, "pitch": 72, "duration": 229, "velocity": 105}, {"time": 42962, "pitch": 65, "duration": 160, "velocity": 95}, {"time": 42972, "pitch": 70, "duration": 150, "velocity": 90}, {"time": 43122, "pitch": 70, "duration": 79, "velocity": 100}, {"time": 43132, "pitch": 65, "duration": 69, "velocity": 95}, {"time": 45839, "pitch": 60, "duration": 120, "velocity": 110}, {"time": 46079, "pitch": 58, "duration": 239, "velocity": 100}, {"time": 46318, "pitch": 55, "duration": 69, "velocity": 90}, {"time": 46557, "pitch": 55, "duration": 10, "velocity": 50}, {"time": 46719, "pitch": 55, "duration": 10, "velocity": 70}, {"time": 46800, "pitch": 55, "duration": 20, "velocity": 85}, {"time": 47042, "pitch": 53, "duration": 10, "velocity": 70}, {"time": 47202, "pitch": 53, "duration": 20, "velocity": 85}, {"time": 47281, "pitch": 53, "duration": 160, "velocity": 70}, {"time": 47441, "pitch": 53, "duration": 80, "velocity": 90}, {"time": 47760, "pitch": 53, "duration": 10, "velocity": 70}, {"time": 47919, "pitch": 53, "duration": 20, "velocity": 85}, {"time": 48238, "pitch": 53, "duration": 10, "velocity": 70}, {"time": 48398, "pitch": 53, "duration": 20, "velocity": 85}, {"time": 48477, "pitch": 55, "duration": 10, "velocity": 50}, {"time": 48720, "pitch": 55, "duration": 10, "velocity": 70}, {"time": 48882, "pitch": 55, "duration": 20, "velocity": 85}, {"time": 49202, "pitch": 58, "duration": 10, "velocity": 70}, {"time": 49361, "pitch": 58, "duration": 20, "velocity": 85}, {"time": 49441, "pitch": 58, "duration": 20, "velocity": 85}, {"time": 49600, "pitch": 58, "duration": 10, "velocity": 85}, {"time": 49680, "pitch": 58, "duration": 20, "velocity": 85}, {"time": 49840, "pitch": 58, "duration": 10, "velocity": 85}, {"time": 50079, "pitch": 67, "duration": 239, "velocity": 95}, {"time": 50089, "pitch": 72, "duration": 229, "velocity": 100}, {"time": 50318, "pitch": 72, "duration": 80, "velocity": 95}, {"time": 50328, "pitch": 67, "duration": 70, "velocity": 90}, {"time": 50398, "pitch": 67, "duration": 242, "velocity": 100}, {"time": 50408, "pitch": 72, "duration": 232, "velocity": 105}, {"time": 50640, "pitch": 65, "duration": 162, "velocity": 95}, {"time": 50651, "pitch": 70, "duration": 151, "velocity": 90}, {"time": 50802, "pitch": 70, "duration": 81, "velocity": 100}, {"time": 50812, "pitch": 65, "duration": 71, "velocity": 95}, {"time": 52318, "pitch": 58, "duration": 10, "velocity": 70}, {"time": 52478, "pitch": 58, "duration": 20, "velocity": 85}, {"time": 52557, "pitch": 58, "duration": 20, "velocity": 85}, {"time": 52797, "pitch": 58, "duration": 10, "velocity": 85}, {"time": 52877, "pitch": 58, "duration": 21, "velocity": 85}, {"time": 53039, "pitch": 58, "duration": 10, "velocity": 85}, {"time": 53282, "pitch": 58, "duration": 20, "velocity": 85}, {"time": 53441, "pitch": 67, "duration": 239, "velocity": 95}, {"time": 53451, "pitch": 72, "duration": 229, "velocity": 100}, {"time": 53680, "pitch": 72, "duration": 80, "velocity": 95}, {"time": 53690, "pitch": 67, "duration": 70, "velocity": 90}, {"time": 53760, "pitch": 67, "duration": 239, "velocity": 100}, {"time": 53770, "pitch": 72, "duration": 229, "velocity": 105}, {"time": 53999, "pitch": 65, "duration": 160, "velocity": 95}, {"time": 54009, "pitch": 70, "duration": 150, "velocity": 90}, {"time": 54159, "pitch": 70, "duration": 80, "velocity": 100}, {"time": 54169, "pitch": 65, "duration": 70, "velocity": 95}, {"time": 54239, "pitch": 62, "duration": 10, "velocity": 70}, {"time": 54398, "pitch": 62, "duration": 10, "velocity": 75}, {"time": 54478, "pitch": 62, "duration": 199, "velocity": 85}, {"time": 54488, "pitch": 67, "duration": 189, "velocity": 95}, {"time": 54717, "pitch": 60, "duration": 10, "velocity": 70}, {"time": 54879, "pitch": 65, "duration": 81, "velocity": 85}, {"time": 54889, "pitch": 70, "duration": 81, "velocity": 95}, {"time": 55121, "pitch": 62, "duration": 11, "velocity": 70}, {"time": 55202, "pitch": 67, "duration": 200, "velocity": 85}, {"time": 55212, "pitch": 72, "duration": 190, "velocity": 95}, {"time": 55441, "pitch": 65, "duration": 10, "velocity": 70}, {"time": 55601, "pitch": 65, "duration": 80, "velocity": 85}, {"time": 55611, "pitch": 70, "duration": 80, "velocity": 95}, {"time": 55681, "pitch": 65, "duration": 10, "velocity": 75}, {"time": 55840, "pitch": 65, "duration": 10, "velocity": 70}, {"time": 55920, "pitch": 65, "duration": 10, "velocity": 75}, {"time": 56079, "pitch": 65, "duration": 80, "velocity": 95}, {"time": 56159, "pitch": 60, "duration": 160, "velocity": 30}, {"time": 56169, "pitch": 65, "duration": 150, "velocity": 95}, {"time": 56319, "pitch": 67, "duration": 89, "velocity": 80}, {"time": 56328, "pitch": 62, "duration": 70, "velocity": 50}, {"time": 56398, "pitch": 62, "duration": 170, "velocity": 70}, {"time": 56408, "pitch": 67, "duration": 150, "velocity": 85}, {"time": 56558, "pitch": 67, "duration": 59, "velocity": 95}, {"time": 56568, "pitch": 62, "duration": 49, "velocity": 75}, {"time": 56637, "pitch": 55, "duration": 11, "velocity": 75}, {"time": 56799, "pitch": 55, "duration": 10, "velocity": 70}, {"time": 56880, "pitch": 62, "duration": 162, "velocity": 70}, {"time": 56890, "pitch": 67, "duration": 152, "velocity": 95}, {"time": 57042, "pitch": 65, "duration": 71, "velocity": 90}, {"time": 57052, "pitch": 60, "duration": 61, "velocity": 65}, {"time": 57123, "pitch": 60, "duration": 10, "velocity": 65}, {"time": 57362, "pitch": 60, "duration": 159, "velocity": 85}, {"time": 57372, "pitch": 65, "duration": 159, "velocity": 95}, {"time": 57601, "pitch": 60, "duration": 160, "velocity": 85}, {"time": 57611, "pitch": 65, "duration": 160, "velocity": 95}, {"time": 57840, "pitch": 60, "duration": 160, "velocity": 85}, {"time": 57850, "pitch": 65, "duration": 160, "velocity": 95}, {"time": 58079, "pitch": 62, "duration": 10, "velocity": 70}, {"time": 58239, "pitch": 62, "duration": 10, "velocity": 75}, {"time": 58319, "pitch": 62, "duration": 199, "velocity": 85}, {"time": 58329, "pitch": 67, "duration": 189, "velocity": 95}, {"time": 58558, "pitch": 60, "duration": 10, "velocity": 70}, {"time": 58720, "pitch": 65, "duration": 80, "velocity": 85}, {"time": 58730, "pitch": 70, "duration": 81, "velocity": 95}, {"time": 58962, "pitch": 62, "duration": 10, "velocity": 70}, {"time": 59043, "pitch": 67, "duration": 199, "velocity": 85}, {"time": 59053, "pitch": 72, "duration": 189, "velocity": 95}, {"time": 59282, "pitch": 65, "duration": 10, "velocity": 70}, {"time": 59442, "pitch": 65, "duration": 79, "velocity": 85}, {"time": 59452, "pitch": 70, "duration": 79, "velocity": 95}, {"time": 59521, "pitch": 65, "duration": 10, "velocity": 75}, {"time": 59681, "pitch": 65, "duration": 10, "velocity": 70}, {"time": 59761, "pitch": 65, "duration": 10, "velocity": 75}, {"time": 59920, "pitch": 65, "duration": 80, "velocity": 95}, {"time": 60000, "pitch": 60, "duration": 159, "velocity": 30}, {"time": 60010, "pitch": 65, "duration": 149, "velocity": 95}, {"time": 60159, "pitch": 67, "duration": 90, "velocity": 80}, {"time": 60169, "pitch": 62, "duration": 70, "velocity": 50}, {"time": 60239, "pitch": 62, "duration": 170, "velocity": 70}, {"time": 60249, "pitch": 67, "duration": 150, "velocity": 85}, {"time": 60399, "pitch": 67, "duration": 59, "velocity": 95}, {"time": 60409, "pitch": 62, "duration": 49, "velocity": 75}, {"time": 60478, "pitch": 55, "duration": 10, "velocity": 75}, {"time": 60638, "pitch": 55, "duration": 10, "velocity": 70}, {"time": 60717, "pitch": 62, "duration": 160, "velocity": 70}, {"time": 60727, "pitch": 67, "duration": 150, "velocity": 95}, {"time": 60877, "pitch": 65, "duration": 70, "velocity": 90}, {"time": 60887, "pitch": 60, "duration": 60, "velocity": 65}, {"time": 60957, "pitch": 60, "duration": 10, "velocity": 65}, {"time": 61199, "pitch": 60, "duration": 162, "velocity": 85}, {"time": 61209, "pitch": 65, "duration": 162, "velocity": 95}, {"time": 61442, "pitch": 60, "duration": 159, "velocity": 85}, {"time": 61452, "pitch": 65, "duration": 159, "velocity": 95}, {"time": 61681, "pitch": 60, "duration": 160, "velocity": 85}, {"time": 61691, "pitch": 65, "duration": 160, "velocity": 95}, {"time": 61920, "pitch": 62, "duration": 10, "velocity": 70}, {"time": 62080, "pitch": 62, "duration": 10, "velocity": 75}, {"time": 62160, "pitch": 62, "duration": 199, "velocity": 85}, {"time": 62169, "pitch": 67, "duration": 190, "velocity": 95}, {"time": 62399, "pitch": 60, "duration": 10, "velocity": 70}, {"time": 62558, "pitch": 65, "duration": 80, "velocity": 85}, {"time": 62568, "pitch": 70, "duration": 80, "velocity": 95}, {"time": 62797, "pitch": 62, "duration": 10, "velocity": 70}, {"time": 62877, "pitch": 67, "duration": 202, "velocity": 85}, {"time": 62887, "pitch": 72, "duration": 192, "velocity": 95}, {"time": 63120, "pitch": 65, "duration": 10, "velocity": 70}, {"time": 63281, "pitch": 65, "duration": 81, "velocity": 85}, {"time": 63292, "pitch": 70, "duration": 80, "velocity": 95}, {"time": 63362, "pitch": 65, "duration": 10, "velocity": 75}, {"time": 63522, "pitch": 65, "duration": 10, "velocity": 70}, {"time": 63602, "pitch": 65, "duration": 10, "velocity": 75}, {"time": 63761, "pitch": 65, "duration": 80, "velocity": 95}, {"time": 63841, "pitch": 60, "duration": 159, "velocity": 30}, {"time": 63851, "pitch": 65, "duration": 149, "velocity": 95}, {"time": 64000, "pitch": 67, "duration": 90, "velocity": 80}, {"time": 64010, "pitch": 62, "duration": 70, "velocity": 50}, {"time": 64080, "pitch": 62, "duration": 169, "velocity": 70}, {"time": 64090, "pitch": 67, "duration": 149, "velocity": 85}, {"time": 64239, "pitch": 67, "duration": 60, "velocity": 95}, {"time": 64249, "pitch": 62, "duration": 50, "velocity": 75}, {"time": 64319, "pitch": 55, "duration": 10, "velocity": 75}, {"time": 64479, "pitch": 55, "duration": 10, "velocity": 70}, {"time": 64558, "pitch": 62, "duration": 160, "velocity": 70}, {"time": 64568, "pitch": 67, "duration": 150, "velocity": 95}, {"time": 64718, "pitch": 65, "duration": 70, "velocity": 90}, {"time": 64728, "pitch": 60, "duration": 60, "velocity": 65}, {"time": 64798, "pitch": 60, "duration": 10, "velocity": 65}, {"time": 65040, "pitch": 60, "duration": 162, "velocity": 85}, {"time": 65050, "pitch": 65, "duration": 162, "velocity": 95}, {"time": 65283, "pitch": 60, "duration": 159, "velocity": 85}, {"time": 65293, "pitch": 65, "duration": 159, "velocity": 95}, {"time": 65522, "pitch": 60, "duration": 159, "velocity": 85}, {"time": 65532, "pitch": 65, "duration": 159, "velocity": 95}, {"time": 65761, "pitch": 62, "duration": 10, "velocity": 70}, {"time": 65921, "pitch": 62, "duration": 10, "velocity": 75}, {"time": 66000, "pitch": 62, "duration": 200, "velocity": 85}, {"time": 66010, "pitch": 67, "duration": 190, "velocity": 95}, {"time": 66240, "pitch": 60, "duration": 10, "velocity": 70}, {"time": 66399, "pitch": 65, "duration": 80, "velocity": 85}, {"time": 66409, "pitch": 70, "duration": 80, "velocity": 95}, {"time": 66638, "pitch": 62, "duration": 10, "velocity": 70}, {"time": 66718, "pitch": 67, "duration": 202, "velocity": 85}, {"time": 66728, "pitch": 72, "duration": 192, "velocity": 95}, {"time": 66961, "pitch": 65, "duration": 10, "velocity": 70}, {"time": 67122, "pitch": 65, "duration": 81, "velocity": 85}, {"time": 67132, "pitch": 70, "duration": 81, "velocity": 95}, {"time": 67203, "pitch": 65, "duration": 10, "velocity": 75}, {"time": 67363, "pitch": 65, "duration": 10, "velocity": 70}, {"time": 67442, "pitch": 65, "duration": 10, "velocity": 75}, {"time": 67602, "pitch": 65, "duration": 80, "velocity": 95}, {"time": 67682, "pitch": 60, "duration": 159, "velocity": 30}, {"time": 67692, "pitch": 65, "duration": 149, "velocity": 95}, {"time": 67841, "pitch": 67, "duration": 90, "velocity": 80}, {"time": 67851, "pitch": 62, "duration": 70, "velocity": 50}, {"time": 67921, "pitch": 62, "duration": 169, "velocity": 70}, {"time": 67931, "pitch": 67, "duration": 149, "velocity": 85}, {"time": 68080, "pitch": 67, "duration": 60, "velocity": 95}, {"time": 68090, "pitch": 62, "duration": 50, "velocity": 75}, {"time": 68160, "pitch": 55, "duration": 10, "velocity": 75}, {"time": 68319, "pitch": 55, "duration": 10, "velocity": 70}, {"time": 68399, "pitch": 62, "duration": 160, "velocity": 70}, {"time": 68409, "pitch": 67, "duration": 150, "velocity": 95}, {"time": 68559, "pitch": 65, "duration": 69, "velocity": 90}, {"time": 68569, "pitch": 60, "duration": 59, "velocity": 65}, {"time": 68638, "pitch": 60, "duration": 10, "velocity": 65}, {"time": 68878, "pitch": 60, "duration": 159, "velocity": 85}, {"time": 68888, "pitch": 65, "duration": 159, "velocity": 95}, {"time": 69117, "pitch": 60, "duration": 161, "velocity": 85}, {"time": 69127, "pitch": 65, "duration": 162, "velocity": 95}, {"time": 69359, "pitch": 60, "duration": 162, "velocity": 85}, {"time": 69369, "pitch": 65, "duration": 162, "velocity": 95}, {"time": 69602, "pitch": 60, "duration": 159, "velocity": 30}, {"time": 69612, "pitch": 65, "duration": 149, "velocity": 95}, {"time": 69761, "pitch": 67, "duration": 90, "velocity": 80}, {"time": 69771, "pitch": 62, "duration": 70, "velocity": 50}, {"time": 69841, "pitch": 62, "duration": 170, "velocity": 70}, {"time": 69851, "pitch": 67, "duration": 150, "velocity": 85}, {"time": 70001, "pitch": 67, "duration": 59, "velocity": 95}, {"time": 70011, "pitch": 62, "duration": 49, "velocity": 75}, {"time": 70080, "pitch": 55, "duration": 10, "velocity": 75}, {"time": 70240, "pitch": 55, "duration": 10, "velocity": 70}, {"time": 70320, "pitch": 62, "duration": 159, "velocity": 70}, {"time": 70330, "pitch": 67, "duration": 149, "velocity": 95}, {"time": 70479, "pitch": 65, "duration": 70, "velocity": 90}, {"time": 70489, "pitch": 60, "duration": 60, "velocity": 65}, {"time": 70559, "pitch": 60, "duration": 10, "velocity": 65}, {"time": 70798, "pitch": 60, "duration": 159, "velocity": 85}, {"time": 70808, "pitch": 65, "duration": 159, "velocity": 95}, {"time": 71037, "pitch": 60, "duration": 162, "velocity": 85}, {"time": 71047, "pitch": 65, "duration": 162, "velocity": 95}, {"time": 71280, "pitch": 60, "duration": 162, "velocity": 85}, {"time": 71290, "pitch": 65, "duration": 162, "velocity": 95}, {"time": 73443, "pitch": 60, "duration": 159, "velocity": 30}, {"time": 73453, "pitch": 65, "duration": 149, "velocity": 95}, {"time": 73602, "pitch": 67, "duration": 90, "velocity": 80}, {"time": 73612, "pitch": 62, "duration": 70, "velocity": 50}, {"time": 73682, "pitch": 62, "duration": 169, "velocity": 70}, {"time": 73692, "pitch": 67, "duration": 150, "velocity": 85}, {"time": 73842, "pitch": 67, "duration": 59, "velocity": 95}, {"time": 73851, "pitch": 62, "duration": 50, "velocity": 75}, {"time": 73921, "pitch": 55, "duration": 10, "velocity": 75}, {"time": 74081, "pitch": 55, "duration": 10, "velocity": 70}, {"time": 74160, "pitch": 62, "duration": 160, "velocity": 70}, {"time": 74170, "pitch": 67, "duration": 150, "velocity": 95}, {"time": 74320, "pitch": 65, "duration": 70, "velocity": 90}, {"time": 74330, "pitch": 60, "duration": 60, "velocity": 65}, {"time": 74400, "pitch": 60, "duration": 10, "velocity": 65}, {"time": 74639, "pitch": 60, "duration": 159, "velocity": 85}, {"time": 74649, "pitch": 65, "duration": 159, "velocity": 95}, {"time": 74878, "pitch": 60, "duration": 162, "velocity": 85}, {"time": 74888, "pitch": 65, "duration": 162, "velocity": 95}, {"time": 75121, "pitch": 60, "duration": 161, "velocity": 85}, {"time": 75131, "pitch": 65, "duration": 162, "velocity": 95}, {"time": 77277, "pitch": 60, "duration": 162, "velocity": 30}, {"time": 77287, "pitch": 65, "duration": 152, "velocity": 95}, {"time": 77439, "pitch": 67, "duration": 91, "velocity": 80}, {"time": 77449, "pitch": 62, "duration": 70, "velocity": 50}, {"time": 77519, "pitch": 62, "duration": 172, "velocity": 70}, {"time": 77530, "pitch": 67, "duration": 151, "velocity": 85}, {"time": 77681, "pitch": 67, "duration": 61, "velocity": 95}, {"time": 77691, "pitch": 62, "duration": 51, "velocity": 75}, {"time": 77762, "pitch": 55, "duration": 10, "velocity": 75}, {"time": 77922, "pitch": 55, "duration": 10, "velocity": 70}, {"time": 78001, "pitch": 62, "duration": 160, "velocity": 70}, {"time": 78011, "pitch": 67, "duration": 150, "velocity": 95}, {"time": 78161, "pitch": 65, "duration": 70, "velocity": 90}, {"time": 78171, "pitch": 60, "duration": 60, "velocity": 65}, {"time": 78241, "pitch": 60, "duration": 9, "velocity": 65}, {"time": 78480, "pitch": 60, "duration": 159, "velocity": 85}, {"time": 78490, "pitch": 65, "duration": 159, "velocity": 95}, {"time": 78719, "pitch": 60, "duration": 159, "velocity": 85}, {"time": 78729, "pitch": 65, "duration": 159, "velocity": 95}, {"time": 78958, "pitch": 60, "duration": 160, "velocity": 85}, {"time": 78968, "pitch": 65, "duration": 160, "velocity": 95}, {"time": 81118, "pitch": 60, "duration": 161, "velocity": 30}, {"time": 81128, "pitch": 65, "duration": 151, "velocity": 95}, {"time": 81279, "pitch": 67, "duration": 91, "velocity": 80}, {"time": 81290, "pitch": 62, "duration": 70, "velocity": 50}, {"time": 81360, "pitch": 62, "duration": 172, "velocity": 70}, {"time": 81370, "pitch": 67, "duration": 152, "velocity": 85}, {"time": 81522, "pitch": 67, "duration": 61, "velocity": 95}, {"time": 81532, "pitch": 62, "duration": 51, "velocity": 75}, {"time": 81603, "pitch": 55, "duration": 10, "velocity": 75}, {"time": 81762, "pitch": 55, "duration": 10, "velocity": 70}, {"time": 81842, "pitch": 62, "duration": 160, "velocity": 70}, {"time": 81852, "pitch": 67, "duration": 150, "velocity": 95}, {"time": 82002, "pitch": 65, "duration": 69, "velocity": 90}, {"time": 82012, "pitch": 60, "duration": 59, "velocity": 65}, {"time": 82081, "pitch": 60, "duration": 10, "velocity": 65}, {"time": 82321, "pitch": 60, "duration": 159, "velocity": 85}, {"time": 82331, "pitch": 65, "duration": 159, "velocity": 95}, {"time": 82560, "pitch": 60, "duration": 159, "velocity": 85}, {"time": 82570, "pitch": 65, "duration": 159, "velocity": 95}, {"time": 82799, "pitch": 60, "duration": 159, "velocity": 85}, {"time": 82809, "pitch": 65, "duration": 159, "velocity": 95}, {"time": 84400, "pitch": 60, "duration": 240, "velocity": 110}, {"time": 84640, "pitch": 58, "duration": 79, "velocity": 70}, {"time": 84719, "pitch": 55, "duration": 160, "velocity": 80}, {"time": 84879, "pitch": 53, "duration": 80, "velocity": 70}, {"time": 84959, "pitch": 60, "duration": 159, "velocity": 30}, {"time": 84969, "pitch": 65, "duration": 149, "velocity": 95}, {"time": 85118, "pitch": 67, "duration": 90, "velocity": 80}, {"time": 85128, "pitch": 62, "duration": 70, "velocity": 50}, {"time": 85198, "pitch": 62, "duration": 169, "velocity": 70}, {"time": 85208, "pitch": 67, "duration": 149, "velocity": 85}, {"time": 85357, "pitch": 67, "duration": 60, "velocity": 95}, {"time": 85367, "pitch": 62, "duration": 50, "velocity": 75}, {"time": 85437, "pitch": 55, "duration": 10, "velocity": 75}, {"time": 85599, "pitch": 55, "duration": 10, "velocity": 70}, {"time": 85680, "pitch": 62, "duration": 161, "velocity": 70}, {"time": 85690, "pitch": 67, "duration": 151, "velocity": 95}, {"time": 85841, "pitch": 65, "duration": 71, "velocity": 90}, {"time": 85851, "pitch": 60, "duration": 61, "velocity": 65}, {"time": 85922, "pitch": 60, "duration": 10, "velocity": 65}, {"time": 86161, "pitch": 60, "duration": 160, "velocity": 85}, {"time": 86171, "pitch": 65, "duration": 160, "velocity": 95}, {"time": 86401, "pitch": 60, "duration": 159, "velocity": 85}, {"time": 86411, "pitch": 65, "duration": 159, "velocity": 95}, {"time": 86640, "pitch": 60, "duration": 159, "velocity": 85}, {"time": 86650, "pitch": 65, "duration": 159, "velocity": 95}, {"time": 86879, "pitch": 62, "duration": 10, "velocity": 70}, {"time": 87038, "pitch": 62, "duration": 10, "velocity": 75}, {"time": 87118, "pitch": 62, "duration": 200, "velocity": 85}, {"time": 87128, "pitch": 67, "duration": 190, "velocity": 95}, {"time": 87357, "pitch": 60, "duration": 10, "velocity": 70}, {"time": 87519, "pitch": 65, "duration": 81, "velocity": 85}, {"time": 87529, "pitch": 70, "duration": 81, "velocity": 95}, {"time": 87762, "pitch": 62, "duration": 10, "velocity": 70}, {"time": 87843, "pitch": 67, "duration": 199, "velocity": 85}, {"time": 87853, "pitch": 72, "duration": 189, "velocity": 95}, {"time": 88082, "pitch": 65, "duration": 10, "velocity": 70}, {"time": 88241, "pitch": 65, "duration": 80, "velocity": 85}, {"time": 88251, "pitch": 70, "duration": 80, "velocity": 95}, {"time": 88321, "pitch": 65, "duration": 10, "velocity": 75}, {"time": 88480, "pitch": 65, "duration": 10, "velocity": 70}, {"time": 88560, "pitch": 65, "duration": 10, "velocity": 75}, {"time": 88720, "pitch": 65, "duration": 79, "velocity": 95}, {"time": 88799, "pitch": 60, "duration": 160, "velocity": 30}, {"time": 88809, "pitch": 65, "duration": 150, "velocity": 95}, {"time": 88959, "pitch": 67, "duration": 90, "velocity": 80}, {"time": 88969, "pitch": 62, "duration": 70, "velocity": 50}, {"time": 89039, "pitch": 62, "duration": 169, "velocity": 70}, {"time": 89049, "pitch": 67, "duration": 149, "velocity": 85}, {"time": 89198, "pitch": 67, "duration": 60, "velocity": 95}, {"time": 89208, "pitch": 62, "duration": 50, "velocity": 75}, {"time": 89278, "pitch": 55, "duration": 10, "velocity": 75}, {"time": 89440, "pitch": 55, "duration": 10, "velocity": 70}, {"time": 89520, "pitch": 62, "duration": 162, "velocity": 70}, {"time": 89531, "pitch": 67, "duration": 151, "velocity": 95}, {"time": 89682, "pitch": 65, "duration": 71, "velocity": 90}, {"time": 89692, "pitch": 60, "duration": 61, "velocity": 65}, {"time": 89763, "pitch": 60, "duration": 10, "velocity": 65}, {"time": 90002, "pitch": 60, "duration": 160, "velocity": 85}, {"time": 90012, "pitch": 65, "duration": 160, "velocity": 95}, {"time": 90241, "pitch": 60, "duration": 160, "velocity": 85}, {"time": 90251, "pitch": 65, "duration": 160, "velocity": 95}, {"time": 90481, "pitch": 60, "duration": 159, "velocity": 85}, {"time": 90491, "pitch": 65, "duration": 159, "velocity": 95}, {"time": 90720, "pitch": 62, "duration": 10, "velocity": 70}, {"time": 90879, "pitch": 62, "duration": 10, "velocity": 75}, {"time": 90959, "pitch": 62, "duration": 199, "velocity": 85}, {"time": 90969, "pitch": 67, "duration": 189, "velocity": 95}, {"time": 91198, "pitch": 60, "duration": 10, "velocity": 70}, {"time": 91358, "pitch": 65, "duration": 79, "velocity": 85}, {"time": 91368, "pitch": 70, "duration": 79, "velocity": 95}, {"time": 91597, "pitch": 62, "duration": 10, "velocity": 70}, {"time": 91677, "pitch": 67, "duration": 202, "velocity": 85}, {"time": 91687, "pitch": 72, "duration": 192, "velocity": 95}, {"time": 91919, "pitch": 65, "duration": 10, "velocity": 70}, {"time": 92081, "pitch": 65, "duration": 81, "velocity": 85}, {"time": 92091, "pitch": 70, "duration": 81, "velocity": 95}, {"time": 92162, "pitch": 65, "duration": 10, "velocity": 75}, {"time": 92321, "pitch": 65, "duration": 10, "velocity": 70}, {"time": 92401, "pitch": 65, "duration": 10, "velocity": 75}, {"time": 92561, "pitch": 65, "duration": 79, "velocity": 95}, {"time": 92640, "pitch": 53, "duration": 20, "velocity": 95}, {"time": 92800, "pitch": 53, "duration": 20, "velocity": 90}, {"time": 92879, "pitch": 53, "duration": 160, "velocity": 95}, {"time": 92889, "pitch": 65, "duration": 160, "velocity": 100}, {"time": 93119, "pitch": 55, "duration": 159, "velocity": 95}, {"time": 93129, "pitch": 67, "duration": 159, "velocity": 100}, {"time": 93358, "pitch": 53, "duration": 20, "velocity": 95}, {"time": 93517, "pitch": 53, "duration": 20, "velocity": 90}, {"time": 93597, "pitch": 53, "duration": 162, "velocity": 95}, {"time": 93607, "pitch": 65, "duration": 162, "velocity": 100}, {"time": 93840, "pitch": 55, "duration": 161, "velocity": 95}, {"time": 93850, "pitch": 67, "duration": 162, "velocity": 100}, {"time": 94082, "pitch": 55, "duration": 10, "velocity": 85}, {"time": 94242, "pitch": 55, "duration": 10, "velocity": 80}, {"time": 94321, "pitch": 55, "duration": 10, "velocity": 85}, {"time": 94481, "pitch": 55, "duration": 10, "velocity": 80}, {"time": 94800, "pitch": 60, "duration": 119, "velocity": 100}, {"time": 95039, "pitch": 60, "duration": 160, "velocity": 110}, {"time": 95199, "pitch": 58, "duration": 79, "velocity": 90}, {"time": 95278, "pitch": 55, "duration": 120, "velocity": 80}, {"time": 96003, "pitch": 53, "duration": 10, "velocity": 70}, {"time": 96162, "pitch": 53, "duration": 10, "velocity": 80}, {"time": 96242, "pitch": 53, "duration": 30, "velocity": 85}, {"time": 96401, "pitch": 53, "duration": 80, "velocity": 95}, {"time": 96481, "pitch": 53, "duration": 20, "velocity": 95}, {"time": 96641, "pitch": 53, "duration": 20, "velocity": 90}, {"time": 96720, "pitch": 53, "duration": 160, "velocity": 95}, {"time": 96730, "pitch": 65, "duration": 160, "velocity": 100}, {"time": 96960, "pitch": 55, "duration": 159, "velocity": 95}, {"time": 96969, "pitch": 67, "duration": 160, "velocity": 100}, {"time": 97199, "pitch": 53, "duration": 20, "velocity": 95}, {"time": 97358, "pitch": 53, "duration": 20, "velocity": 90}, {"time": 97438, "pitch": 53, "duration": 162, "velocity": 95}, {"time": 97448, "pitch": 65, "duration": 162, "velocity": 100}, {"time": 97681, "pitch": 55, "duration": 161, "velocity": 95}, {"time": 97691, "pitch": 67, "duration": 161, "velocity": 100}, {"time": 97923, "pitch": 55, "duration": 10, "velocity": 85}, {"time": 98083, "pitch": 55, "duration": 10, "velocity": 80}, {"time": 98162, "pitch": 55, "duration": 10, "velocity": 85}, {"time": 98322, "pitch": 55, "duration": 10, "velocity": 80}, {"time": 98641, "pitch": 60, "duration": 119, "velocity": 100}, {"time": 98880, "pitch": 60, "duration": 159, "velocity": 110}, {"time": 99039, "pitch": 58, "duration": 80, "velocity": 90}, {"time": 99119, "pitch": 55, "duration": 120, "velocity": 80}, {"time": 99757, "pitch": 57, "duration": 241, "velocity": 110}, {"time": 99998, "pitch": 55, "duration": 81, "velocity": 80}, {"time": 100079, "pitch": 53, "duration": 122, "velocity": 90}, {"time": 100322, "pitch": 53, "duration": 20, "velocity": 95}, {"time": 100481, "pitch": 53, "duration": 20, "velocity": 90}, {"time": 100561, "pitch": 53, "duration": 160, "velocity": 95}, {"time": 100571, "pitch": 65, "duration": 160, "velocity": 100}, {"time": 100800, "pitch": 55, "duration": 160, "velocity": 95}, {"time": 100810, "pitch": 67, "duration": 160, "velocity": 100}, {"time": 101040, "pitch": 53, "duration": 19, "velocity": 95}, {"time": 101199, "pitch": 53, "duration": 20, "velocity": 90}, {"time": 101279, "pitch": 53, "duration": 159, "velocity": 95}, {"time": 101289, "pitch": 65, "duration": 159, "velocity": 100}, {"time": 101518, "pitch": 55, "duration": 159, "velocity": 95}, {"time": 101528, "pitch": 67, "duration": 159, "velocity": 100}, {"time": 101757, "pitch": 55, "duration": 10, "velocity": 85}, {"time": 101919, "pitch": 55, "duration": 10, "velocity": 80}, {"time": 102000, "pitch": 55, "duration": 10, "velocity": 85}, {"time": 102162, "pitch": 55, "duration": 10, "velocity": 80}, {"time": 102482, "pitch": 60, "duration": 119, "velocity": 100}, {"time": 102721, "pitch": 60, "duration": 159, "velocity": 110}, {"time": 102880, "pitch": 58, "duration": 80, "velocity": 90}, {"time": 102960, "pitch": 55, "duration": 120, "velocity": 80}, {"time": 103678, "pitch": 53, "duration": 10, "velocity": 70}, {"time": 103839, "pitch": 53, "duration": 10, "velocity": 80}, {"time": 103920, "pitch": 53, "duration": 31, "velocity": 85}, {"time": 104082, "pitch": 53, "duration": 81, "velocity": 95}, {"time": 104163, "pitch": 53, "duration": 20, "velocity": 95}, {"time": 104322, "pitch": 53, "duration": 20, "velocity": 90}, {"time": 104402, "pitch": 53, "duration": 159, "velocity": 95}, {"time": 104412, "pitch": 65, "duration": 159, "velocity": 100}, {"time": 104641, "pitch": 55, "duration": 160, "velocity": 95}, {"time": 104651, "pitch": 67, "duration": 160, "velocity": 100}, {"time": 104880, "pitch": 53, "duration": 20, "velocity": 95}, {"time": 105040, "pitch": 53, "duration": 20, "velocity": 90}, {"time": 105120, "pitch": 53, "duration": 159, "velocity": 95}, {"time": 105130, "pitch": 65, "duration": 159, "velocity": 100}, {"time": 105359, "pitch": 55, "duration": 159, "velocity": 95}, {"time": 105369, "pitch": 67, "duration": 159, "velocity": 100}, {"time": 105598, "pitch": 55, "duration": 10, "velocity": 85}, {"time": 105760, "pitch": 55, "duration": 10, "velocity": 80}, {"time": 105841, "pitch": 55, "duration": 10, "velocity": 85}, {"time": 106002, "pitch": 55, "duration": 11, "velocity": 80}, {"time": 106083, "pitch": 53, "duration": 20, "velocity": 95}, {"time": 106243, "pitch": 53, "duration": 20, "velocity": 90}, {"time": 106322, "pitch": 53, "duration": 160, "velocity": 95}, {"time": 106332, "pitch": 65, "duration": 160, "velocity": 100}, {"time": 106562, "pitch": 55, "duration": 159, "velocity": 95}, {"time": 106572, "pitch": 67, "duration": 159, "velocity": 100}, {"time": 106801, "pitch": 53, "duration": 20, "velocity": 95}, {"time": 106960, "pitch": 53, "duration": 20, "velocity": 90}, {"time": 107439, "pitch": 60, "duration": 239, "velocity": 110}, {"time": 107678, "pitch": 58, "duration": 80, "velocity": 80}, {"time": 107758, "pitch": 55, "duration": 119, "velocity": 90}, {"time": 107997, "pitch": 62, "duration": 10, "velocity": 70}, {"time": 108159, "pitch": 62, "duration": 10, "velocity": 75}, {"time": 108239, "pitch": 62, "duration": 203, "velocity": 85}, {"time": 108250, "pitch": 67, "duration": 192, "velocity": 95}, {"time": 108482, "pitch": 60, "duration": 10, "velocity": 70}, {"time": 108642, "pitch": 65, "duration": 79, "velocity": 85}, {"time": 108651, "pitch": 70, "duration": 80, "velocity": 95}, {"time": 108881, "pitch": 62, "duration": 10, "velocity": 70}, {"time": 108960, "pitch": 67, "duration": 200, "velocity": 85}, {"time": 108970, "pitch": 72, "duration": 190, "velocity": 95}, {"time": 109200, "pitch": 65, "duration": 10, "velocity": 70}, {"time": 109359, "pitch": 65, "duration": 80, "velocity": 85}, {"time": 109369, "pitch": 70, "duration": 80, "velocity": 95}, {"time": 109439, "pitch": 65, "duration": 10, "velocity": 75}, {"time": 109598, "pitch": 65, "duration": 10, "velocity": 70}, {"time": 109678, "pitch": 65, "duration": 10, "velocity": 75}, {"time": 109837, "pitch": 65, "duration": 80, "velocity": 95}, {"time": 109917, "pitch": 60, "duration": 162, "velocity": 30}, {"time": 109927, "pitch": 65, "duration": 152, "velocity": 95}, {"time": 110079, "pitch": 67, "duration": 91, "velocity": 80}, {"time": 110089, "pitch": 62, "duration": 71, "velocity": 50}, {"time": 110160, "pitch": 62, "duration": 172, "velocity": 70}, {"time": 110170, "pitch": 67, "duration": 152, "velocity": 85}, {"time": 110322, "pitch": 67, "duration": 60, "velocity": 95}, {"time": 110332, "pitch": 62, "duration": 50, "velocity": 75}, {"time": 110402, "pitch": 55, "duration": 10, "velocity": 75}, {"time": 110562, "pitch": 55, "duration": 10, "velocity": 70}, {"time": 110642, "pitch": 62, "duration": 159, "velocity": 70}, {"time": 110652, "pitch": 67, "duration": 149, "velocity": 95}, {"time": 110801, "pitch": 65, "duration": 70, "velocity": 90}, {"time": 110811, "pitch": 60, "duration": 60, "velocity": 65}, {"time": 110881, "pitch": 60, "duration": 10, "velocity": 65}, {"time": 111120, "pitch": 60, "duration": 160, "velocity": 85}, {"time": 111130, "pitch": 65, "duration": 159, "velocity": 95}, {"time": 111359, "pitch": 60, "duration": 160, "velocity": 85}, {"time": 111369, "pitch": 65, "duration": 160, "velocity": 95}, {"time": 111598, "pitch": 60, "duration": 160, "velocity": 85}, {"time": 111608, "pitch": 65, "duration": 160, "velocity": 95}, {"time": 111838, "pitch": 62, "duration": 10, "velocity": 70}, {"time": 111999, "pitch": 62, "duration": 11, "velocity": 75}, {"time": 112080, "pitch": 62, "duration": 203, "velocity": 85}, {"time": 112090, "pitch": 67, "duration": 193, "velocity": 95}, {"time": 112323, "pitch": 60, "duration": 10, "velocity": 70}, {"time": 112482, "pitch": 65, "duration": 80, "velocity": 85}, {"time": 112492, "pitch": 70, "duration": 80, "velocity": 95}, {"time": 112722, "pitch": 62, "duration": 10, "velocity": 70}, {"time": 112801, "pitch": 67, "duration": 200, "velocity": 85}, {"time": 112811, "pitch": 72, "duration": 190, "velocity": 95}, {"time": 113040, "pitch": 65, "duration": 10, "velocity": 70}, {"time": 113200, "pitch": 65, "duration": 80, "velocity": 85}, {"time": 113210, "pitch": 70, "duration": 80, "velocity": 95}, {"time": 113280, "pitch": 65, "duration": 10, "velocity": 75}, {"time": 113439, "pitch": 65, "duration": 10, "velocity": 70}, {"time": 113519, "pitch": 65, "duration": 10, "velocity": 75}, {"time": 113678, "pitch": 65, "duration": 80, "velocity": 95}, {"time": 113758, "pitch": 60, "duration": 162, "velocity": 30}, {"time": 113768, "pitch": 65, "duration": 152, "velocity": 95}, {"time": 113920, "pitch": 67, "duration": 91, "velocity": 80}, {"time": 113930, "pitch": 62, "duration": 71, "velocity": 50}, {"time": 114001, "pitch": 62, "duration": 172, "velocity": 70}, {"time": 114011, "pitch": 67, "duration": 151, "velocity": 85}, {"time": 114162, "pitch": 67, "duration": 61, "velocity": 95}, {"time": 114173, "pitch": 62, "duration": 50, "velocity": 75}, {"time": 114243, "pitch": 55, "duration": 10, "velocity": 75}, {"time": 114403, "pitch": 55, "duration": 10, "velocity": 70}, {"time": 114483, "pitch": 62, "duration": 159, "velocity": 70}, {"time": 114492, "pitch": 67, "duration": 150, "velocity": 95}, {"time": 114642, "pitch": 65, "duration": 70, "velocity": 90}, {"time": 114652, "pitch": 60, "duration": 60, "velocity": 65}, {"time": 114722, "pitch": 60, "duration": 10, "velocity": 65}, {"time": 114961, "pitch": 60, "duration": 159, "velocity": 85}, {"time": 114971, "pitch": 65, "duration": 159, "velocity": 95}, {"time": 115200, "pitch": 60, "duration": 160, "velocity": 85}, {"time": 115210, "pitch": 65, "duration": 160, "velocity": 95}, {"time": 115439, "pitch": 60, "duration": 160, "velocity": 85}, {"time": 115449, "pitch": 65, "duration": 160, "velocity": 95}, {"time": 115679, "pitch": 62, "duration": 9, "velocity": 70}, {"time": 115838, "pitch": 62, "duration": 10, "velocity": 75}, {"time": 115918, "pitch": 62, "duration": 199, "velocity": 85}, {"time": 115928, "pitch": 67, "duration": 189, "velocity": 95}, {"time": 116157, "pitch": 60, "duration": 10, "velocity": 70}, {"time": 116319, "pitch": 65, "duration": 81, "velocity": 85}, {"time": 116329, "pitch": 70, "duration": 81, "velocity": 95}, {"time": 116561, "pitch": 62, "duration": 10, "velocity": 70}, {"time": 116642, "pitch": 67, "duration": 199, "velocity": 85}, {"time": 116652, "pitch": 72, "duration": 189, "velocity": 95}, {"time": 116881, "pitch": 65, "duration": 10, "velocity": 70}, {"time": 117041, "pitch": 65, "duration": 80, "velocity": 85}, {"time": 117051, "pitch": 70, "duration": 80, "velocity": 95}, {"time": 117121, "pitch": 65, "duration": 10, "velocity": 75}, {"time": 117280, "pitch": 65, "duration": 10, "velocity": 70}, {"time": 117360, "pitch": 65, "duration": 10, "velocity": 75}, {"time": 117519, "pitch": 65, "duration": 80, "velocity": 95}, {"time": 117599, "pitch": 60, "duration": 159, "velocity": 30}, {"time": 117609, "pitch": 65, "duration": 149, "velocity": 95}, {"time": 117758, "pitch": 67, "duration": 90, "velocity": 80}, {"time": 117768, "pitch": 62, "duration": 70, "velocity": 50}, {"time": 117838, "pitch": 62, "duration": 170, "velocity": 70}, {"time": 117848, "pitch": 67, "duration": 150, "velocity": 85}, {"time": 117998, "pitch": 67, "duration": 59, "velocity": 95}, {"time": 118008, "pitch": 62, "duration": 49, "velocity": 75}, {"time": 118077, "pitch": 55, "duration": 10, "velocity": 75}, {"time": 118239, "pitch": 55, "duration": 10, "velocity": 70}, {"time": 118320, "pitch": 62, "duration": 162, "velocity": 70}, {"time": 118330, "pitch": 67, "duration": 152, "velocity": 95}, {"time": 118482, "pitch": 65, "duration": 70, "velocity": 90}, {"time": 118492, "pitch": 60, "duration": 60, "velocity": 65}, {"time": 118563, "pitch": 60, "duration": 10, "velocity": 65}, {"time": 118802, "pitch": 60, "duration": 159, "velocity": 85}, {"time": 118812, "pitch": 65, "duration": 159, "velocity": 95}, {"time": 119041, "pitch": 60, "duration": 159, "velocity": 85}, {"time": 119051, "pitch": 65, "duration": 159, "velocity": 95}, {"time": 119280, "pitch": 60, "duration": 160, "velocity": 85}, {"time": 119290, "pitch": 65, "duration": 160, "velocity": 95}, {"time": 119519, "pitch": 62, "duration": 10, "velocity": 70}, {"time": 119679, "pitch": 62, "duration": 10, "velocity": 75}, {"time": 119759, "pitch": 62, "duration": 199, "velocity": 85}, {"time": 119769, "pitch": 67, "duration": 189, "velocity": 95}, {"time": 119998, "pitch": 60, "duration": 10, "velocity": 70}, {"time": 120159, "pitch": 65, "duration": 81, "velocity": 85}, {"time": 120170, "pitch": 70, "duration": 80, "velocity": 95}, {"time": 120402, "pitch": 62, "duration": 10, "velocity": 70}, {"time": 120483, "pitch": 67, "duration": 199, "velocity": 85}, {"time": 120493, "pitch": 72, "duration": 189, "velocity": 95}, {"time": 120722, "pitch": 65, "duration": 10, "velocity": 70}, {"time": 120882, "pitch": 65, "duration": 79, "velocity": 85}, {"time": 120892, "pitch": 70, "duration": 79, "velocity": 95}, {"time": 120961, "pitch": 65, "duration": 10, "velocity": 75}, {"time": 121121, "pitch": 65, "duration": 10, "velocity": 70}, {"time": 121201, "pitch": 65, "duration": 10, "velocity": 75}, {"time": 121360, "pitch": 65, "duration": 80, "velocity": 95}, {"time": 121440, "pitch": 60, "duration": 159, "velocity": 30}, {"time": 121450, "pitch": 65, "duration": 149, "velocity": 95}, {"time": 121599, "pitch": 67, "duration": 90, "velocity": 80}, {"time": 121609, "pitch": 62, "duration": 70, "velocity": 50}, {"time": 121679, "pitch": 62, "duration": 169, "velocity": 70}, {"time": 121689, "pitch": 67, "duration": 149, "velocity": 85}, {"time": 121838, "pitch": 67, "duration": 60, "velocity": 95}, {"time": 121848, "pitch": 62, "duration": 50, "velocity": 75}, {"time": 121918, "pitch": 55, "duration": 10, "velocity": 75}, {"time": 122080, "pitch": 55, "duration": 10, "velocity": 70}, {"time": 122161, "pitch": 62, "duration": 162, "velocity": 70}, {"time": 122171, "pitch": 67, "duration": 152, "velocity": 95}, {"time": 122323, "pitch": 65, "duration": 70, "velocity": 90}, {"time": 122333, "pitch": 60, "duration": 60, "velocity": 65}, {"time": 122403, "pitch": 60, "duration": 10, "velocity": 65}, {"time": 122643, "pitch": 60, "duration": 159, "velocity": 85}, {"time": 122653, "pitch": 65, "duration": 159, "velocity": 95}, {"time": 122882, "pitch": 60, "duration": 159, "velocity": 85}, {"time": 122892, "pitch": 65, "duration": 159, "velocity": 95}, {"time": 123121, "pitch": 60, "duration": 159, "velocity": 85}, {"time": 123131, "pitch": 65, "duration": 159, "velocity": 95}, {"time": 123360, "pitch": 60, "duration": 160, "velocity": 30}, {"time": 123370, "pitch": 65, "duration": 150, "velocity": 95}, {"time": 123520, "pitch": 67, "duration": 89, "velocity": 80}, {"time": 123530, "pitch": 62, "duration": 69, "velocity": 50}, {"time": 123599, "pitch": 62, "duration": 170, "velocity": 70}, {"time": 123609, "pitch": 67, "duration": 150, "velocity": 85}, {"time": 123759, "pitch": 67, "duration": 60, "velocity": 95}, {"time": 123769, "pitch": 62, "duration": 50, "velocity": 75}, {"time": 123839, "pitch": 55, "duration": 10, "velocity": 75}, {"time": 123998, "pitch": 55, "duration": 10, "velocity": 70}, {"time": 124078, "pitch": 62, "duration": 159, "velocity": 70}, {"time": 124088, "pitch": 67, "duration": 149, "velocity": 95}, {"time": 124237, "pitch": 65, "duration": 70, "velocity": 90}, {"time": 124247, "pitch": 60, "duration": 60, "velocity": 65}, {"time": 124317, "pitch": 60, "duration": 10, "velocity": 65}, {"time": 124560, "pitch": 60, "duration": 161, "velocity": 85}, {"time": 124570, "pitch": 65, "duration": 161, "velocity": 95}, {"time": 124802, "pitch": 60, "duration": 160, "velocity": 85}, {"time": 124812, "pitch": 65, "duration": 160, "velocity": 95}, {"time": 125041, "pitch": 60, "duration": 160, "velocity": 85}, {"time": 125051, "pitch": 65, "duration": 160, "velocity": 95}, {"time": 127201, "pitch": 60, "duration": 160, "velocity": 30}, {"time": 127211, "pitch": 65, "duration": 150, "velocity": 95}, {"time": 127361, "pitch": 67, "duration": 89, "velocity": 80}, {"time": 127370, "pitch": 62, "duration": 70, "velocity": 50}, {"time": 127440, "pitch": 62, "duration": 170, "velocity": 70}, {"time": 127450, "pitch": 67, "duration": 150, "velocity": 85}, {"time": 127600, "pitch": 67, "duration": 60, "velocity": 95}, {"time": 127610, "pitch": 62, "duration": 50, "velocity": 75}, {"time": 127679, "pitch": 55, "duration": 10, "velocity": 75}, {"time": 127839, "pitch": 55, "duration": 10, "velocity": 70}, {"time": 127919, "pitch": 62, "duration": 159, "velocity": 70}, {"time": 127929, "pitch": 67, "duration": 149, "velocity": 95}, {"time": 128078, "pitch": 65, "duration": 70, "velocity": 90}, {"time": 128088, "pitch": 60, "duration": 60, "velocity": 65}, {"time": 128158, "pitch": 60, "duration": 10, "velocity": 65}, {"time": 128400, "pitch": 60, "duration": 162, "velocity": 85}, {"time": 128411, "pitch": 65, "duration": 161, "velocity": 95}, {"time": 128643, "pitch": 60, "duration": 160, "velocity": 85}, {"time": 128653, "pitch": 65, "duration": 160, "velocity": 95}, {"time": 128882, "pitch": 60, "duration": 160, "velocity": 85}, {"time": 128892, "pitch": 65, "duration": 160, "velocity": 95}, {"time": 131042, "pitch": 60, "duration": 159, "velocity": 30}, {"time": 131052, "pitch": 65, "duration": 149, "velocity": 95}, {"time": 131201, "pitch": 67, "duration": 90, "velocity": 80}, {"time": 131211, "pitch": 62, "duration": 70, "velocity": 50}, {"time": 131281, "pitch": 62, "duration": 170, "velocity": 70}, {"time": 131291, "pitch": 67, "duration": 150, "velocity": 85}, {"time": 131441, "pitch": 67, "duration": 59, "velocity": 95}, {"time": 131451, "pitch": 62, "duration": 49, "velocity": 75}, {"time": 131520, "pitch": 55, "duration": 10, "velocity": 75}, {"time": 131680, "pitch": 55, "duration": 10, "velocity": 70}, {"time": 131759, "pitch": 62, "duration": 160, "velocity": 70}, {"time": 131769, "pitch": 67, "duration": 150, "velocity": 95}, {"time": 131919, "pitch": 65, "duration": 70, "velocity": 90}, {"time": 131929, "pitch": 60, "duration": 60, "velocity": 65}, {"time": 131999, "pitch": 60, "duration": 10, "velocity": 65}, {"time": 132238, "pitch": 60, "duration": 159, "velocity": 85}, {"time": 132248, "pitch": 65, "duration": 159, "velocity": 95}, {"time": 132477, "pitch": 60, "duration": 162, "velocity": 85}, {"time": 132487, "pitch": 65, "duration": 162, "velocity": 95}, {"time": 132720, "pitch": 60, "duration": 161, "velocity": 85}, {"time": 132730, "pitch": 65, "duration": 162, "velocity": 95}, {"time": 134883, "pitch": 60, "duration": 159, "velocity": 30}, {"time": 134893, "pitch": 65, "duration": 149, "velocity": 95}, {"time": 135042, "pitch": 67, "duration": 90, "velocity": 80}, {"time": 135052, "pitch": 62, "duration": 70, "velocity": 50}, {"time": 135122, "pitch": 62, "duration": 169, "velocity": 70}, {"time": 135132, "pitch": 67, "duration": 149, "velocity": 85}, {"time": 135281, "pitch": 67, "duration": 60, "velocity": 95}, {"time": 135291, "pitch": 62, "duration": 50, "velocity": 75}, {"time": 135361, "pitch": 55, "duration": 10, "velocity": 75}, {"time": 135521, "pitch": 55, "duration": 10, "velocity": 70}, {"time": 135600, "pitch": 62, "duration": 160, "velocity": 70}, {"time": 135610, "pitch": 67, "duration": 150, "velocity": 95}, {"time": 135760, "pitch": 65, "duration": 70, "velocity": 90}, {"time": 135770, "pitch": 60, "duration": 60, "velocity": 65}, {"time": 135840, "pitch": 60, "duration": 10, "velocity": 65}, {"time": 136079, "pitch": 60, "duration": 159, "velocity": 85}, {"time": 136089, "pitch": 65, "duration": 159, "velocity": 95}, {"time": 136318, "pitch": 60, "duration": 162, "velocity": 85}, {"time": 136328, "pitch": 65, "duration": 162, "velocity": 95}, {"time": 136561, "pitch": 60, "duration": 161, "velocity": 85}, {"time": 136571, "pitch": 65, "duration": 161, "velocity": 95}, {"time": 138717, "pitch": 60, "duration": 161, "velocity": 30}, {"time": 138727, "pitch": 65, "duration": 151, "velocity": 95}, {"time": 138878, "pitch": 67, "duration": 91, "velocity": 80}, {"time": 138889, "pitch": 62, "duration": 70, "velocity": 50}, {"time": 138959, "pitch": 62, "duration": 172, "velocity": 70}, {"time": 138969, "pitch": 67, "duration": 152, "velocity": 85}, {"time": 139121, "pitch": 67, "duration": 61, "velocity": 95}, {"time": 139131, "pitch": 62, "duration": 51, "velocity": 75}, {"time": 139202, "pitch": 55, "duration": 10, "velocity": 75}, {"time": 139361, "pitch": 55, "duration": 10, "velocity": 70}, {"time": 139441, "pitch": 62, "duration": 160, "velocity": 70}, {"time": 139451, "pitch": 67, "duration": 150, "velocity": 95}, {"time": 139601, "pitch": 65, "duration": 69, "velocity": 90}, {"time": 139611, "pitch": 60, "duration": 59, "velocity": 65}, {"time": 139680, "pitch": 60, "duration": 10, "velocity": 65}, {"time": 139920, "pitch": 60, "duration": 159, "velocity": 85}, {"time": 139930, "pitch": 65, "duration": 159, "velocity": 95}, {"time": 140159, "pitch": 60, "duration": 159, "velocity": 85}, {"time": 140169, "pitch": 65, "duration": 159, "velocity": 95}, {"time": 140398, "pitch": 60, "duration": 159, "velocity": 85}, {"time": 140408, "pitch": 65, "duration": 159, "velocity": 95}, {"time": 140637, "pitch": 62, "duration": 10, "velocity": 70}, {"time": 140799, "pitch": 62, "duration": 10, "velocity": 75}, {"time": 140880, "pitch": 62, "duration": 202, "velocity": 85}, {"time": 140890, "pitch": 67, "duration": 192, "velocity": 95}, {"time": 141122, "pitch": 60, "duration": 10, "velocity": 70}, {"time": 141282, "pitch": 65, "duration": 80, "velocity": 85}, {"time": 141292, "pitch": 70, "duration": 80, "velocity": 95}, {"time": 141521, "pitch": 62, "duration": 10, "velocity": 70}, {"time": 141601, "pitch": 67, "duration": 199, "velocity": 85}, {"time": 141611, "pitch": 72, "duration": 189, "velocity": 95}, {"time": 141840, "pitch": 65, "duration": 10, "velocity": 70}, {"time": 141999, "pitch": 65, "duration": 80, "velocity": 85}, {"time": 142009, "pitch": 70, "duration": 80, "velocity": 95}, {"time": 142079, "pitch": 65, "duration": 10, "velocity": 75}, {"time": 142239, "pitch": 65, "duration": 10, "velocity": 70}, {"time": 142318, "pitch": 65, "duration": 10, "velocity": 75}, {"time": 142478, "pitch": 65, "duration": 80, "velocity": 95}, {"time": 142558, "pitch": 60, "duration": 161, "velocity": 30}, {"time": 142568, "pitch": 65, "duration": 151, "velocity": 95}, {"time": 142719, "pitch": 67, "duration": 91, "velocity": 80}, {"time": 142729, "pitch": 62, "duration": 71, "velocity": 50}, {"time": 142800, "pitch": 62, "duration": 172, "velocity": 70}, {"time": 142810, "pitch": 67, "duration": 152, "velocity": 85}, {"time": 142962, "pitch": 67, "duration": 61, "velocity": 95}, {"time": 142972, "pitch": 62, "duration": 51, "velocity": 75}, {"time": 143043, "pitch": 55, "duration": 10, "velocity": 75}, {"time": 143202, "pitch": 55, "duration": 10, "velocity": 70}, {"time": 143282, "pitch": 62, "duration": 160, "velocity": 70}, {"time": 143292, "pitch": 67, "duration": 150, "velocity": 95}, {"time": 143442, "pitch": 65, "duration": 69, "velocity": 90}, {"time": 143451, "pitch": 60, "duration": 60, "velocity": 65}, {"time": 143521, "pitch": 60, "duration": 10, "velocity": 65}, {"time": 143760, "pitch": 60, "duration": 160, "velocity": 85}, {"time": 143770, "pitch": 65, "duration": 160, "velocity": 95}, {"time": 144000, "pitch": 60, "duration": 159, "velocity": 85}, {"time": 144010, "pitch": 65, "duration": 159, "velocity": 95}, {"time": 144239, "pitch": 60, "duration": 159, "velocity": 85}, {"time": 144249, "pitch": 65, "duration": 159, "velocity": 95}, {"time": 144478, "pitch": 62, "duration": 10, "velocity": 70}, {"time": 144640, "pitch": 62, "duration": 10, "velocity": 75}, {"time": 144721, "pitch": 62, "duration": 202, "velocity": 85}, {"time": 144731, "pitch": 67, "duration": 192, "velocity": 95}, {"time": 144963, "pitch": 60, "duration": 10, "velocity": 70}, {"time": 145123, "pitch": 65, "duration": 79, "velocity": 85}, {"time": 145133, "pitch": 70, "duration": 79, "velocity": 95}, {"time": 145362, "pitch": 62, "duration": 10, "velocity": 70}, {"time": 145442, "pitch": 67, "duration": 199, "velocity": 85}, {"time": 145452, "pitch": 72, "duration": 189, "velocity": 95}, {"time": 145681, "pitch": 65, "duration": 10, "velocity": 70}, {"time": 145840, "pitch": 65, "duration": 80, "velocity": 85}, {"time": 145850, "pitch": 70, "duration": 80, "velocity": 95}, {"time": 145920, "pitch": 65, "duration": 10, "velocity": 75}, {"time": 146080, "pitch": 65, "duration": 9, "velocity": 70}, {"time": 146159, "pitch": 65, "duration": 10, "velocity": 75}, {"time": 146319, "pitch": 65, "duration": 79, "velocity": 95}, {"time": 146398, "pitch": 60, "duration": 160, "velocity": 30}, {"time": 146408, "pitch": 65, "duration": 150, "velocity": 95}, {"time": 146558, "pitch": 67, "duration": 90, "velocity": 80}, {"time": 146568, "pitch": 62, "duration": 70, "velocity": 50}, {"time": 146638, "pitch": 62, "duration": 169, "velocity": 70}, {"time": 146648, "pitch": 67, "duration": 149, "velocity": 85}, {"time": 146797, "pitch": 67, "duration": 60, "velocity": 95}, {"time": 146807, "pitch": 62, "duration": 50, "velocity": 75}, {"time": 146877, "pitch": 55, "duration": 10, "velocity": 75}, {"time": 147039, "pitch": 55, "duration": 10, "velocity": 70}, {"time": 147119, "pitch": 62, "duration": 162, "velocity": 70}, {"time": 147130, "pitch": 67, "duration": 151, "velocity": 95}, {"time": 147281, "pitch": 65, "duration": 71, "velocity": 90}, {"time": 147291, "pitch": 60, "duration": 61, "velocity": 65}, {"time": 147362, "pitch": 60, "duration": 10, "velocity": 65}, {"time": 147601, "pitch": 60, "duration": 160, "velocity": 85}, {"time": 147611, "pitch": 65, "duration": 160, "velocity": 95}, {"time": 147840, "pitch": 60, "duration": 160, "velocity": 85}, {"time": 147850, "pitch": 65, "duration": 160, "velocity": 95}, {"time": 148080, "pitch": 60, "duration": 159, "velocity": 85}, {"time": 148090, "pitch": 65, "duration": 159, "velocity": 95}, {"time": 148319, "pitch": 62, "duration": 10, "velocity": 70}, {"time": 148478, "pitch": 62, "duration": 10, "velocity": 75}, {"time": 148558, "pitch": 62, "duration": 199, "velocity": 85}, {"time": 148568, "pitch": 67, "duration": 189, "velocity": 95}, {"time": 148797, "pitch": 60, "duration": 10, "velocity": 70}, {"time": 148959, "pitch": 65, "duration": 81, "velocity": 85}, {"time": 148969, "pitch": 70, "duration": 81, "velocity": 95}, {"time": 149202, "pitch": 62, "duration": 10, "velocity": 70}, {"time": 149283, "pitch": 67, "duration": 199, "velocity": 85}, {"time": 149292, "pitch": 72, "duration": 190, "velocity": 95}, {"time": 149522, "pitch": 65, "duration": 10, "velocity": 70}, {"time": 149681, "pitch": 65, "duration": 80, "velocity": 85}, {"time": 149691, "pitch": 70, "duration": 80, "velocity": 95}, {"time": 149761, "pitch": 65, "duration": 10, "velocity": 75}, {"time": 149920, "pitch": 65, "duration": 10, "velocity": 70}, {"time": 150000, "pitch": 65, "duration": 10, "velocity": 75}, {"time": 150160, "pitch": 65, "duration": 79, "velocity": 95}, {"time": 150239, "pitch": 60, "duration": 160, "velocity": 30}, {"time": 150249, "pitch": 65, "duration": 150, "velocity": 95}, {"time": 150399, "pitch": 67, "duration": 89, "velocity": 80}, {"time": 150409, "pitch": 62, "duration": 69, "velocity": 50}, {"time": 150478, "pitch": 62, "duration": 170, "velocity": 70}, {"time": 150488, "pitch": 67, "duration": 150, "velocity": 85}, {"time": 150638, "pitch": 67, "duration": 60, "velocity": 95}, {"time": 150648, "pitch": 62, "duration": 50, "velocity": 75}, {"time": 150718, "pitch": 55, "duration": 10, "velocity": 75}, {"time": 150879, "pitch": 55, "duration": 11, "velocity": 70}, {"time": 150960, "pitch": 62, "duration": 162, "velocity": 70}, {"time": 150970, "pitch": 67, "duration": 152, "velocity": 95}, {"time": 151122, "pitch": 65, "duration": 71, "velocity": 90}, {"time": 151132, "pitch": 60, "duration": 61, "velocity": 65}, {"time": 151203, "pitch": 60, "duration": 10, "velocity": 65}, {"time": 151442, "pitch": 60, "duration": 160, "velocity": 85}, {"time": 151452, "pitch": 65, "duration": 160, "velocity": 95}, {"time": 151681, "pitch": 60, "duration": 160, "velocity": 85}, {"time": 151691, "pitch": 65, "duration": 160, "velocity": 95}, {"time": 151921, "pitch": 60, "duration": 159, "velocity": 85}, {"time": 151930, "pitch": 65, "duration": 160, "velocity": 95}, {"time": 152160, "pitch": 62, "duration": 10, "velocity": 70}, {"time": 152319, "pitch": 62, "duration": 10, "velocity": 75}, {"time": 152399, "pitch": 62, "duration": 199, "velocity": 85}, {"time": 152409, "pitch": 67, "duration": 189, "velocity": 95}, {"time": 152638, "pitch": 60, "duration": 10, "velocity": 70}, {"time": 152800, "pitch": 65, "duration": 81, "velocity": 85}, {"time": 152810, "pitch": 70, "duration": 81, "velocity": 95}, {"time": 153043, "pitch": 62, "duration": 10, "velocity": 70}, {"time": 153123, "pitch": 67, "duration": 200, "velocity": 85}, {"time": 153133, "pitch": 72, "duration": 190, "velocity": 95}, {"time": 153363, "pitch": 65, "duration": 10, "velocity": 70}, {"time": 153522, "pitch": 65, "duration": 80, "velocity": 85}, {"time": 153532, "pitch": 70, "duration": 80, "velocity": 95}, {"time": 153602, "pitch": 65, "duration": 10, "velocity": 75}, {"time": 153761, "pitch": 65, "duration": 10, "velocity": 70}, {"time": 153841, "pitch": 65, "duration": 10, "velocity": 75}, {"time": 154000, "pitch": 65, "duration": 80, "velocity": 95}, {"time": 154080, "pitch": 60, "duration": 160, "velocity": 30}, {"time": 154090, "pitch": 65, "duration": 150, "velocity": 95}, {"time": 154240, "pitch": 67, "duration": 89, "velocity": 80}, {"time": 154250, "pitch": 62, "duration": 69, "velocity": 50}, {"time": 154319, "pitch": 62, "duration": 170, "velocity": 70}, {"time": 154329, "pitch": 67, "duration": 150, "velocity": 85}, {"time": 154479, "pitch": 67, "duration": 60, "velocity": 95}, {"time": 154489, "pitch": 62, "duration": 50, "velocity": 75}, {"time": 154559, "pitch": 55, "duration": 10, "velocity": 75}, {"time": 154718, "pitch": 55, "duration": 10, "velocity": 70}, {"time": 154798, "pitch": 62, "duration": 159, "velocity": 70}, {"time": 154808, "pitch": 67, "duration": 149, "velocity": 95}, {"time": 154957, "pitch": 65, "duration": 70, "velocity": 90}, {"time": 154967, "pitch": 60, "duration": 60, "velocity": 65}, {"time": 155037, "pitch": 60, "duration": 10, "velocity": 65}, {"time": 155280, "pitch": 60, "duration": 161, "velocity": 85}, {"time": 155290, "pitch": 65, "duration": 161, "velocity": 95}, {"time": 155522, "pitch": 60, "duration": 160, "velocity": 85}, {"time": 155532, "pitch": 65, "duration": 160, "velocity": 95}, {"time": 155761, "pitch": 60, "duration": 160, "velocity": 85}, {"time": 155771, "pitch": 65, "duration": 160, "velocity": 95}, {"time": 156001, "pitch": 62, "duration": 10, "velocity": 70}, {"time": 156160, "pitch": 62, "duration": 10, "velocity": 75}, {"time": 156240, "pitch": 62, "duration": 199, "velocity": 85}, {"time": 156250, "pitch": 67, "duration": 189, "velocity": 95}, {"time": 156479, "pitch": 60, "duration": 10, "velocity": 70}, {"time": 156638, "pitch": 65, "duration": 80, "velocity": 85}, {"time": 156648, "pitch": 70, "duration": 80, "velocity": 95}, {"time": 156878, "pitch": 62, "duration": 10, "velocity": 70}, {"time": 156957, "pitch": 67, "duration": 203, "velocity": 85}, {"time": 156967, "pitch": 72, "duration": 193, "velocity": 95}, {"time": 157200, "pitch": 65, "duration": 10, "velocity": 70}, {"time": 157362, "pitch": 65, "duration": 81, "velocity": 85}, {"time": 157372, "pitch": 70, "duration": 81, "velocity": 95}, {"time": 157443, "pitch": 65, "duration": 10, "velocity": 75}, {"time": 157602, "pitch": 65, "duration": 10, "velocity": 70}, {"time": 157682, "pitch": 65, "duration": 10, "velocity": 75}, {"time": 157841, "pitch": 65, "duration": 80, "velocity": 95}, {"time": 157921, "pitch": 60, "duration": 159, "velocity": 30}, {"time": 157931, "pitch": 65, "duration": 149, "velocity": 95}, {"time": 158080, "pitch": 67, "duration": 90, "velocity": 80}, {"time": 158090, "pitch": 62, "duration": 70, "velocity": 50}, {"time": 158160, "pitch": 62, "duration": 170, "velocity": 70}, {"time": 158170, "pitch": 67, "duration": 150, "velocity": 85}, {"time": 158320, "pitch": 67, "duration": 59, "velocity": 95}, {"time": 158330, "pitch": 62, "duration": 49, "velocity": 75}, {"time": 158399, "pitch": 55, "duration": 10, "velocity": 75}, {"time": 158559, "pitch": 55, "duration": 10, "velocity": 70}, {"time": 158639, "pitch": 62, "duration": 159, "velocity": 70}, {"time": 158649, "pitch": 67, "duration": 149, "velocity": 95}, {"time": 158798, "pitch": 65, "duration": 70, "velocity": 90}, {"time": 158808, "pitch": 60, "duration": 60, "velocity": 65}, {"time": 158878, "pitch": 60, "duration": 10, "velocity": 65}, {"time": 159120, "pitch": 60, "duration": 162, "velocity": 85}, {"time": 159131, "pitch": 65, "duration": 161, "velocity": 95}, {"time": 159363, "pitch": 60, "duration": 159, "velocity": 85}, {"time": 159373, "pitch": 65, "duration": 159, "velocity": 95}, {"time": 159602, "pitch": 60, "duration": 160, "velocity": 85}, {"time": 159612, "pitch": 65, "duration": 160, "velocity": 95}, {"time": 159841, "pitch": 62, "duration": 10, "velocity": 70}, {"time": 160001, "pitch": 62, "duration": 10, "velocity": 75}, {"time": 160081, "pitch": 62, "duration": 199, "velocity": 85}, {"time": 160091, "pitch": 67, "duration": 189, "velocity": 95}, {"time": 160320, "pitch": 60, "duration": 10, "velocity": 70}, {"time": 160479, "pitch": 65, "duration": 80, "velocity": 85}, {"time": 160489, "pitch": 70, "duration": 80, "velocity": 95}, {"time": 160718, "pitch": 62, "duration": 10, "velocity": 70}, {"time": 160798, "pitch": 67, "duration": 200, "velocity": 85}, {"time": 160808, "pitch": 72, "duration": 190, "velocity": 95}, {"time": 161037, "pitch": 65, "duration": 10, "velocity": 70}, {"time": 161197, "pitch": 65, "duration": 80, "velocity": 85}, {"time": 161207, "pitch": 70, "duration": 80, "velocity": 95}, {"time": 161277, "pitch": 65, "duration": 10, "velocity": 75}, {"time": 161438, "pitch": 65, "duration": 10, "velocity": 70}, {"time": 161519, "pitch": 65, "duration": 10, "velocity": 75}, {"time": 161681, "pitch": 65, "duration": 81, "velocity": 95}, {"time": 54239, "pitch": 63, "duration": 159, "velocity": 90}, {"time": 54239, "pitch": 67, "duration": 239, "velocity": 95}, {"time": 54249, "pitch": 74, "duration": 378, "velocity": 100}, {"time": 54398, "pitch": 63, "duration": 70, "velocity": 90}, {"time": 54468, "pitch": 63, "duration": 169, "velocity": 90}, {"time": 54478, "pitch": 67, "duration": 149, "velocity": 95}, {"time": 54627, "pitch": 67, "duration": 60, "velocity": 95}, {"time": 54627, "pitch": 74, "duration": 60, "velocity": 90}, {"time": 54637, "pitch": 63, "duration": 50, "velocity": 100}, {"time": 55202, "pitch": 63, "duration": 120, "velocity": 100}, {"time": 55202, "pitch": 67, "duration": 120, "velocity": 95}, {"time": 55212, "pitch": 72, "duration": 120, "velocity": 90}, {"time": 55441, "pitch": 63, "duration": 120, "velocity": 85}, {"time": 55441, "pitch": 67, "duration": 120, "velocity": 90}, {"time": 55451, "pitch": 70, "duration": 120, "velocity": 95}, {"time": 55681, "pitch": 63, "duration": 159, "velocity": 90}, {"time": 55681, "pitch": 67, "duration": 159, "velocity": 95}, {"time": 55691, "pitch": 72, "duration": 149, "velocity": 100}, {"time": 55840, "pitch": 67, "duration": 120, "velocity": 85}, {"time": 55840, "pitch": 70, "duration": 120, "velocity": 75}, {"time": 55850, "pitch": 63, "duration": 120, "velocity": 95}, {"time": 56159, "pitch": 65, "duration": 160, "velocity": 90}, {"time": 56159, "pitch": 69, "duration": 239, "velocity": 95}, {"time": 56169, "pitch": 74, "duration": 379, "velocity": 100}, {"time": 56319, "pitch": 65, "duration": 69, "velocity": 90}, {"time": 56388, "pitch": 65, "duration": 170, "velocity": 90}, {"time": 56398, "pitch": 69, "duration": 150, "velocity": 95}, {"time": 56548, "pitch": 69, "duration": 60, "velocity": 95}, {"time": 56548, "pitch": 74, "duration": 60, "velocity": 90}, {"time": 56558, "pitch": 65, "duration": 50, "velocity": 100}, {"time": 56627, "pitch": 65, "duration": 10, "velocity": 70}, {"time": 56789, "pitch": 65, "duration": 10, "velocity": 80}, {"time": 56870, "pitch": 65, "duration": 121, "velocity": 75}, {"time": 56870, "pitch": 69, "duration": 121, "velocity": 85}, {"time": 56880, "pitch": 73, "duration": 121, "velocity": 95}, {"time": 57113, "pitch": 65, "duration": 159, "velocity": 90}, {"time": 57113, "pitch": 69, "duration": 239, "velocity": 95}, {"time": 57123, "pitch": 72, "duration": 378, "velocity": 100}, {"time": 57272, "pitch": 65, "duration": 70, "velocity": 90}, {"time": 57342, "pitch": 65, "duration": 169, "velocity": 90}, {"time": 57352, "pitch": 69, "duration": 149, "velocity": 95}, {"time": 57501, "pitch": 69, "duration": 60, "velocity": 95}, {"time": 57501, "pitch": 72, "duration": 60, "velocity": 90}, {"time": 57511, "pitch": 65, "duration": 50, "velocity": 100}, {"time": 58000, "pitch": 69, "duration": 79, "velocity": 85}, {"time": 58000, "pitch": 72, "duration": 79, "velocity": 95}, {"time": 58010, "pitch": 65, "duration": 69, "velocity": 75}, {"time": 58079, "pitch": 65, "duration": 240, "velocity": 95}, {"time": 58079, "pitch": 69, "duration": 240, "velocity": 100}, {"time": 58089, "pitch": 74, "duration": 379, "velocity": 105}, {"time": 58319, "pitch": 65, "duration": 169, "velocity": 90}, {"time": 58329, "pitch": 69, "duration": 149, "velocity": 95}, {"time": 58478, "pitch": 69, "duration": 60, "velocity": 95}, {"time": 58478, "pitch": 74, "duration": 60, "velocity": 90}, {"time": 58488, "pitch": 65, "duration": 50, "velocity": 100}, {"time": 59043, "pitch": 65, "duration": 120, "velocity": 90}, {"time": 59053, "pitch": 72, "duration": 120, "velocity": 100}, {"time": 59442, "pitch": 65, "duration": 119, "velocity": 90}, {"time": 59452, "pitch": 70, "duration": 119, "velocity": 100}, {"time": 60000, "pitch": 55, "duration": 598, "velocity": 90}, {"time": 60000, "pitch": 59, "duration": 598, "velocity": 95}, {"time": 60010, "pitch": 64, "duration": 598, "velocity": 100}, {"time": 60717, "pitch": 55, "duration": 924, "velocity": 90}, {"time": 60717, "pitch": 59, "duration": 924, "velocity": 95}, {"time": 60727, "pitch": 63, "duration": 914, "velocity": 100}, {"time": 61841, "pitch": 59, "duration": 79, "velocity": 100}, {"time": 61841, "pitch": 62, "duration": 79, "velocity": 95}, {"time": 61851, "pitch": 55, "duration": 69, "velocity": 100}, {"time": 61920, "pitch": 63, "duration": 10, "velocity": 70}, {"time": 62080, "pitch": 63, "duration": 10, "velocity": 90}, {"time": 62160, "pitch": 63, "duration": 149, "velocity": 90}, {"time": 62160, "pitch": 67, "duration": 149, "velocity": 95}, {"time": 62169, "pitch": 74, "duration": 150, "velocity": 100}, {"time": 62319, "pitch": 63, "duration": 10, "velocity": 70}, {"time": 62399, "pitch": 63, "duration": 10, "velocity": 90}, {"time": 62558, "pitch": 63, "duration": 80, "velocity": 95}, {"time": 62558, "pitch": 74, "duration": 80, "velocity": 90}, {"time": 62568, "pitch": 67, "duration": 80, "velocity": 100}, {"time": 62638, "pitch": 63, "duration": 10, "velocity": 70}, {"time": 62797, "pitch": 63, "duration": 10, "velocity": 90}, {"time": 62877, "pitch": 63, "duration": 162, "velocity": 90}, {"time": 62877, "pitch": 67, "duration": 243, "velocity": 95}, {"time": 62887, "pitch": 74, "duration": 384, "velocity": 100}, {"time": 63039, "pitch": 63, "duration": 71, "velocity": 90}, {"time": 63110, "pitch": 63, "duration": 171, "velocity": 90}, {"time": 63120, "pitch": 67, "duration": 151, "velocity": 95}, {"time": 63271, "pitch": 67, "duration": 61, "velocity": 95}, {"time": 63271, "pitch": 74, "duration": 61, "velocity": 90}, {"time": 63281, "pitch": 63, "duration": 51, "velocity": 100}, {"time": 63841, "pitch": 65, "duration": 159, "velocity": 90}, {"time": 63841, "pitch": 69, "duration": 239, "velocity": 95}, {"time": 63851, "pitch": 74, "duration": 378, "velocity": 100}, {"time": 64000, "pitch": 65, "duration": 70, "velocity": 90}, {"time": 64070, "pitch": 65, "duration": 169, "velocity": 90}, {"time": 64080, "pitch": 69, "duration": 149, "velocity": 95}, {"time": 64229, "pitch": 69, "duration": 60, "velocity": 95}, {"time": 64229, "pitch": 74, "duration": 60, "velocity": 90}, {"time": 64239, "pitch": 65, "duration": 50, "velocity": 100}, {"time": 64309, "pitch": 65, "duration": 10, "velocity": 70}, {"time": 64469, "pitch": 65, "duration": 10, "velocity": 80}, {"time": 64548, "pitch": 65, "duration": 120, "velocity": 75}, {"time": 64548, "pitch": 69, "duration": 230, "velocity": 85}, {"time": 64558, "pitch": 73, "duration": 230, "velocity": 95}, {"time": 64708, "pitch": 65, "duration": 80, "velocity": 80}, {"time": 64788, "pitch": 65, "duration": 161, "velocity": 90}, {"time": 64788, "pitch": 69, "duration": 242, "velocity": 95}, {"time": 64798, "pitch": 73, "duration": 384, "velocity": 100}, {"time": 64949, "pitch": 65, "duration": 71, "velocity": 90}, {"time": 65020, "pitch": 65, "duration": 172, "velocity": 90}, {"time": 65030, "pitch": 69, "duration": 152, "velocity": 95}, {"time": 65182, "pitch": 69, "duration": 81, "velocity": 95}, {"time": 65182, "pitch": 73, "duration": 91, "velocity": 90}, {"time": 65192, "pitch": 65, "duration": 240, "velocity": 100}, {"time": 65263, "pitch": 69, "duration": 159, "velocity": 95}, {"time": 65273, "pitch": 73, "duration": 149, "velocity": 100}, {"time": 65422, "pitch": 69, "duration": 60, "velocity": 95}, {"time": 65422, "pitch": 73, "duration": 60, "velocity": 100}, {"time": 65432, "pitch": 65, "duration": 50, "velocity": 90}, {"time": 65761, "pitch": 65, "duration": 239, "velocity": 95}, {"time": 65761, "pitch": 69, "duration": 239, "velocity": 100}, {"time": 65771, "pitch": 74, "duration": 379, "velocity": 105}, {"time": 66000, "pitch": 65, "duration": 170, "velocity": 90}, {"time": 66010, "pitch": 69, "duration": 150, "velocity": 95}, {"time": 66160, "pitch": 69, "duration": 60, "velocity": 95}, {"time": 66160, "pitch": 74, "duration": 60, "velocity": 90}, {"time": 66170, "pitch": 65, "duration": 50, "velocity": 100}, {"time": 66469, "pitch": 65, "duration": 119, "velocity": 75}, {"time": 66469, "pitch": 69, "duration": 119, "velocity": 80}, {"time": 66479, "pitch": 72, "duration": 119, "velocity": 85}, {"time": 66950, "pitch": 62, "duration": 122, "velocity": 80}, {"time": 66950, "pitch": 65, "duration": 122, "velocity": 85}, {"time": 66961, "pitch": 70, "duration": 121, "velocity": 90}, {"time": 67193, "pitch": 62, "duration": 50, "velocity": 100}, {"time": 67353, "pitch": 58, "duration": 50, "velocity": 90}, {"time": 67682, "pitch": 53, "duration": 398, "velocity": 80}, {"time": 67692, "pitch": 65, "duration": 388, "velocity": 90}, {"time": 68080, "pitch": 53, "duration": 120, "velocity": 90}, {"time": 68090, "pitch": 65, "duration": 120, "velocity": 100}, {"time": 68399, "pitch": 53, "duration": 120, "velocity": 80}, {"time": 68409, "pitch": 65, "duration": 120, "velocity": 90}, {"time": 68638, "pitch": 54, "duration": 964, "velocity": 90}, {"time": 68648, "pitch": 66, "duration": 954, "velocity": 100}, {"time": 71762, "pitch": 67, "duration": 119, "velocity": 80}, {"time": 71772, "pitch": 72, "duration": 119, "velocity": 90}, {"time": 72240, "pitch": 65, "duration": 120, "velocity": 80}, {"time": 72250, "pitch": 70, "duration": 120, "velocity": 90}, {"time": 72718, "pitch": 62, "duration": 120, "velocity": 70}, {"time": 72728, "pitch": 67, "duration": 120, "velocity": 80}, {"time": 75602, "pitch": 67, "duration": 120, "velocity": 80}, {"time": 75612, "pitch": 72, "duration": 120, "velocity": 90}, {"time": 76081, "pitch": 65, "duration": 119, "velocity": 80}, {"time": 76091, "pitch": 70, "duration": 119, "velocity": 90}, {"time": 76559, "pitch": 62, "duration": 120, "velocity": 70}, {"time": 76569, "pitch": 67, "duration": 120, "velocity": 80}, {"time": 79440, "pitch": 67, "duration": 121, "velocity": 80}, {"time": 79450, "pitch": 72, "duration": 121, "velocity": 90}, {"time": 79922, "pitch": 65, "duration": 119, "velocity": 80}, {"time": 79932, "pitch": 70, "duration": 119, "velocity": 90}, {"time": 80400, "pitch": 62, "duration": 120, "velocity": 70}, {"time": 80410, "pitch": 67, "duration": 120, "velocity": 80}, {"time": 107997, "pitch": 63, "duration": 162, "velocity": 90}, {"time": 107997, "pitch": 67, "duration": 242, "velocity": 95}, {"time": 108007, "pitch": 74, "duration": 384, "velocity": 100}, {"time": 108159, "pitch": 63, "duration": 70, "velocity": 90}, {"time": 108229, "pitch": 63, "duration": 172, "velocity": 90}, {"time": 108239, "pitch": 67, "duration": 152, "velocity": 95}, {"time": 108391, "pitch": 67, "duration": 61, "velocity": 95}, {"time": 108391, "pitch": 74, "duration": 61, "velocity": 90}, {"time": 108401, "pitch": 63, "duration": 51, "velocity": 100}, {"time": 108960, "pitch": 63, "duration": 120, "velocity": 100}, {"time": 108960, "pitch": 67, "duration": 120, "velocity": 95}, {"time": 108970, "pitch": 72, "duration": 120, "velocity": 90}, {"time": 109200, "pitch": 63, "duration": 119, "velocity": 85}, {"time": 109200, "pitch": 67, "duration": 119, "velocity": 90}, {"time": 109210, "pitch": 70, "duration": 119, "velocity": 95}, {"time": 109439, "pitch": 63, "duration": 159, "velocity": 90}, {"time": 109439, "pitch": 67, "duration": 159, "velocity": 95}, {"time": 109449, "pitch": 72, "duration": 149, "velocity": 100}, {"time": 109598, "pitch": 67, "duration": 120, "velocity": 85}, {"time": 109598, "pitch": 70, "duration": 120, "velocity": 75}, {"time": 109608, "pitch": 63, "duration": 120, "velocity": 95}, {"time": 109917, "pitch": 65, "duration": 162, "velocity": 90}, {"time": 109917, "pitch": 69, "duration": 243, "velocity": 95}, {"time": 109927, "pitch": 74, "duration": 385, "velocity": 100}, {"time": 110079, "pitch": 65, "duration": 71, "velocity": 90}, {"time": 110150, "pitch": 65, "duration": 172, "velocity": 90}, {"time": 110160, "pitch": 69, "duration": 152, "velocity": 95}, {"time": 110312, "pitch": 69, "duration": 60, "velocity": 95}, {"time": 110312, "pitch": 74, "duration": 60, "velocity": 90}, {"time": 110322, "pitch": 65, "duration": 50, "velocity": 100}, {"time": 110392, "pitch": 65, "duration": 10, "velocity": 70}, {"time": 110552, "pitch": 65, "duration": 10, "velocity": 80}, {"time": 110632, "pitch": 65, "duration": 119, "velocity": 75}, {"time": 110632, "pitch": 69, "duration": 119, "velocity": 85}, {"time": 110642, "pitch": 73, "duration": 119, "velocity": 95}, {"time": 110871, "pitch": 65, "duration": 159, "velocity": 90}, {"time": 110871, "pitch": 69, "duration": 239, "velocity": 95}, {"time": 110881, "pitch": 72, "duration": 379, "velocity": 100}, {"time": 111030, "pitch": 65, "duration": 70, "velocity": 90}, {"time": 111100, "pitch": 65, "duration": 170, "velocity": 90}, {"time": 111110, "pitch": 69, "duration": 150, "velocity": 95}, {"time": 111260, "pitch": 69, "duration": 59, "velocity": 95}, {"time": 111260, "pitch": 72, "duration": 59, "velocity": 90}, {"time": 111270, "pitch": 65, "duration": 49, "velocity": 100}, {"time": 111758, "pitch": 69, "duration": 80, "velocity": 85}, {"time": 111758, "pitch": 72, "duration": 80, "velocity": 95}, {"time": 111768, "pitch": 65, "duration": 70, "velocity": 75}, {"time": 111838, "pitch": 65, "duration": 242, "velocity": 95}, {"time": 111838, "pitch": 69, "duration": 242, "velocity": 100}, {"time": 111848, "pitch": 74, "duration": 384, "velocity": 105}, {"time": 112080, "pitch": 65, "duration": 172, "velocity": 90}, {"time": 112090, "pitch": 69, "duration": 152, "velocity": 95}, {"time": 112242, "pitch": 69, "duration": 61, "velocity": 95}, {"time": 112242, "pitch": 74, "duration": 61, "velocity": 90}, {"time": 112252, "pitch": 65, "duration": 51, "velocity": 100}, {"time": 112801, "pitch": 65, "duration": 120, "velocity": 90}, {"time": 112811, "pitch": 72, "duration": 120, "velocity": 100}, {"time": 113200, "pitch": 65, "duration": 120, "velocity": 90}, {"time": 113210, "pitch": 70, "duration": 120, "velocity": 100}, {"time": 113758, "pitch": 55, "duration": 605, "velocity": 90}, {"time": 113758, "pitch": 59, "duration": 605, "velocity": 95}, {"time": 113768, "pitch": 64, "duration": 605, "velocity": 100}, {"time": 114483, "pitch": 55, "duration": 916, "velocity": 90}, {"time": 114483, "pitch": 59, "duration": 916, "velocity": 95}, {"time": 114492, "pitch": 63, "duration": 907, "velocity": 100}, {"time": 115599, "pitch": 59, "duration": 80, "velocity": 100}, {"time": 115599, "pitch": 62, "duration": 80, "velocity": 95}, {"time": 115609, "pitch": 55, "duration": 70, "velocity": 100}, {"time": 115679, "pitch": 63, "duration": 9, "velocity": 70}, {"time": 115838, "pitch": 63, "duration": 10, "velocity": 90}, {"time": 115918, "pitch": 63, "duration": 149, "velocity": 90}, {"time": 115918, "pitch": 67, "duration": 149, "velocity": 95}, {"time": 115928, "pitch": 74, "duration": 149, "velocity": 100}, {"time": 116077, "pitch": 63, "duration": 10, "velocity": 70}, {"time": 116157, "pitch": 63, "duration": 10, "velocity": 90}, {"time": 116319, "pitch": 63, "duration": 81, "velocity": 95}, {"time": 116319, "pitch": 74, "duration": 81, "velocity": 90}, {"time": 116329, "pitch": 67, "duration": 81, "velocity": 100}, {"time": 116400, "pitch": 63, "duration": 10, "velocity": 70}, {"time": 116561, "pitch": 63, "duration": 10, "velocity": 90}, {"time": 116642, "pitch": 63, "duration": 160, "velocity": 90}, {"time": 116642, "pitch": 67, "duration": 239, "velocity": 95}, {"time": 116652, "pitch": 74, "duration": 379, "velocity": 100}, {"time": 116802, "pitch": 63, "duration": 69, "velocity": 90}, {"time": 116871, "pitch": 63, "duration": 170, "velocity": 90}, {"time": 116881, "pitch": 67, "duration": 150, "velocity": 95}, {"time": 117031, "pitch": 67, "duration": 60, "velocity": 95}, {"time": 117031, "pitch": 74, "duration": 60, "velocity": 90}, {"time": 117041, "pitch": 63, "duration": 50, "velocity": 100}, {"time": 117599, "pitch": 65, "duration": 159, "velocity": 90}, {"time": 117599, "pitch": 69, "duration": 239, "velocity": 95}, {"time": 117609, "pitch": 74, "duration": 379, "velocity": 100}, {"time": 117758, "pitch": 65, "duration": 70, "velocity": 90}, {"time": 117828, "pitch": 65, "duration": 170, "velocity": 90}, {"time": 117838, "pitch": 69, "duration": 150, "velocity": 95}, {"time": 117988, "pitch": 69, "duration": 59, "velocity": 95}, {"time": 117988, "pitch": 74, "duration": 59, "velocity": 90}, {"time": 117998, "pitch": 65, "duration": 49, "velocity": 100}, {"time": 118067, "pitch": 65, "duration": 10, "velocity": 70}, {"time": 118229, "pitch": 65, "duration": 10, "velocity": 80}, {"time": 118310, "pitch": 65, "duration": 121, "velocity": 75}, {"time": 118310, "pitch": 69, "duration": 232, "velocity": 85}, {"time": 118320, "pitch": 73, "duration": 232, "velocity": 95}, {"time": 118472, "pitch": 65, "duration": 80, "velocity": 80}, {"time": 118552, "pitch": 65, "duration": 160, "velocity": 90}, {"time": 118552, "pitch": 69, "duration": 240, "velocity": 95}, {"time": 118563, "pitch": 73, "duration": 378, "velocity": 100}, {"time": 118712, "pitch": 65, "duration": 70, "velocity": 90}, {"time": 118782, "pitch": 65, "duration": 169, "velocity": 90}, {"time": 118792, "pitch": 69, "duration": 149, "velocity": 95}, {"time": 118941, "pitch": 69, "duration": 80, "velocity": 95}, {"time": 118941, "pitch": 73, "duration": 90, "velocity": 90}, {"time": 118951, "pitch": 65, "duration": 239, "velocity": 100}, {"time": 119021, "pitch": 69, "duration": 159, "velocity": 95}, {"time": 119031, "pitch": 73, "duration": 149, "velocity": 100}, {"time": 119180, "pitch": 69, "duration": 60, "velocity": 95}, {"time": 119180, "pitch": 73, "duration": 60, "velocity": 100}, {"time": 119190, "pitch": 65, "duration": 50, "velocity": 90}, {"time": 119519, "pitch": 65, "duration": 240, "velocity": 95}, {"time": 119519, "pitch": 69, "duration": 240, "velocity": 100}, {"time": 119529, "pitch": 74, "duration": 379, "velocity": 105}, {"time": 119759, "pitch": 65, "duration": 169, "velocity": 90}, {"time": 119769, "pitch": 69, "duration": 149, "velocity": 95}, {"time": 119918, "pitch": 69, "duration": 60, "velocity": 95}, {"time": 119918, "pitch": 74, "duration": 60, "velocity": 90}, {"time": 119928, "pitch": 65, "duration": 50, "velocity": 100}, {"time": 120230, "pitch": 65, "duration": 122, "velocity": 75}, {"time": 120230, "pitch": 69, "duration": 122, "velocity": 80}, {"time": 120240, "pitch": 72, "duration": 122, "velocity": 85}, {"time": 120712, "pitch": 62, "duration": 120, "velocity": 80}, {"time": 120712, "pitch": 65, "duration": 120, "velocity": 85}, {"time": 120722, "pitch": 70, "duration": 120, "velocity": 90}, {"time": 120951, "pitch": 62, "duration": 50, "velocity": 100}, {"time": 121111, "pitch": 58, "duration": 50, "velocity": 90}, {"time": 121440, "pitch": 53, "duration": 398, "velocity": 80}, {"time": 121450, "pitch": 65, "duration": 388, "velocity": 90}, {"time": 121838, "pitch": 53, "duration": 121, "velocity": 90}, {"time": 121848, "pitch": 65, "duration": 121, "velocity": 100}, {"time": 122161, "pitch": 53, "duration": 121, "velocity": 80}, {"time": 122171, "pitch": 65, "duration": 121, "velocity": 90}, {"time": 122403, "pitch": 54, "duration": 957, "velocity": 90}, {"time": 122413, "pitch": 66, "duration": 947, "velocity": 100}, {"time": 125520, "pitch": 67, "duration": 119, "velocity": 80}, {"time": 125530, "pitch": 72, "duration": 119, "velocity": 90}, {"time": 125998, "pitch": 65, "duration": 120, "velocity": 80}, {"time": 126008, "pitch": 70, "duration": 120, "velocity": 90}, {"time": 126480, "pitch": 62, "duration": 121, "velocity": 70}, {"time": 126490, "pitch": 67, "duration": 121, "velocity": 80}, {"time": 129361, "pitch": 67, "duration": 119, "velocity": 80}, {"time": 129371, "pitch": 72, "duration": 119, "velocity": 90}, {"time": 129839, "pitch": 65, "duration": 120, "velocity": 80}, {"time": 129849, "pitch": 70, "duration": 120, "velocity": 90}, {"time": 130317, "pitch": 62, "duration": 120, "velocity": 70}, {"time": 130327, "pitch": 67, "duration": 120, "velocity": 80}, {"time": 133202, "pitch": 67, "duration": 119, "velocity": 80}, {"time": 133211, "pitch": 72, "duration": 120, "velocity": 90}, {"time": 133680, "pitch": 65, "duration": 120, "velocity": 80}, {"time": 133690, "pitch": 70, "duration": 119, "velocity": 90}, {"time": 134158, "pitch": 62, "duration": 120, "velocity": 70}, {"time": 134168, "pitch": 67, "duration": 120, "velocity": 80}, {"time": 148558, "pitch": 67, "duration": 120, "velocity": 80}, {"time": 148568, "pitch": 72, "duration": 120, "velocity": 90}, {"time": 149040, "pitch": 65, "duration": 121, "velocity": 80}, {"time": 149050, "pitch": 70, "duration": 121, "velocity": 90}, {"time": 149522, "pitch": 62, "duration": 119, "velocity": 70}, {"time": 149532, "pitch": 67, "duration": 119, "velocity": 80}, {"time": 152399, "pitch": 67, "duration": 120, "velocity": 80}, {"time": 152409, "pitch": 72, "duration": 119, "velocity": 90}, {"time": 152881, "pitch": 65, "duration": 121, "velocity": 80}, {"time": 152891, "pitch": 70, "duration": 121, "velocity": 90}, {"time": 153363, "pitch": 62, "duration": 119, "velocity": 70}, {"time": 153373, "pitch": 67, "duration": 119, "velocity": 80}, {"time": 156240, "pitch": 67, "duration": 119, "velocity": 80}, {"time": 156250, "pitch": 72, "duration": 119, "velocity": 90}, {"time": 156718, "pitch": 65, "duration": 120, "velocity": 80}, {"time": 156728, "pitch": 70, "duration": 120, "velocity": 90}, {"time": 157200, "pitch": 62, "duration": 121, "velocity": 70}, {"time": 157210, "pitch": 67, "duration": 121, "velocity": 80}, {"time": 54478, "pitch": 55, "duration": 90, "velocity": 95}, {"time": 54637, "pitch": 55, "duration": 90, "velocity": 100}, {"time": 54960, "pitch": 55, "duration": 91, "velocity": 95}, {"time": 55121, "pitch": 55, "duration": 91, "velocity": 100}, {"time": 55441, "pitch": 55, "duration": 80, "velocity": 95}, {"time": 55601, "pitch": 55, "duration": 90, "velocity": 100}, {"time": 55840, "pitch": 55, "duration": 80, "velocity": 90}, {"time": 55920, "pitch": 55, "duration": 90, "velocity": 95}, {"time": 56079, "pitch": 55, "duration": 80, "velocity": 100}, {"time": 56398, "pitch": 53, "duration": 90, "velocity": 95}, {"time": 56558, "pitch": 53, "duration": 90, "velocity": 100}, {"time": 56880, "pitch": 53, "duration": 91, "velocity": 95}, {"time": 57042, "pitch": 53, "duration": 91, "velocity": 100}, {"time": 57362, "pitch": 53, "duration": 80, "velocity": 95}, {"time": 57521, "pitch": 53, "duration": 90, "velocity": 100}, {"time": 57761, "pitch": 53, "duration": 79, "velocity": 90}, {"time": 57840, "pitch": 53, "duration": 90, "velocity": 95}, {"time": 58000, "pitch": 53, "duration": 79, "velocity": 100}, {"time": 58319, "pitch": 53, "duration": 89, "velocity": 95}, {"time": 58478, "pitch": 53, "duration": 90, "velocity": 100}, {"time": 58800, "pitch": 53, "duration": 91, "velocity": 95}, {"time": 58962, "pitch": 53, "duration": 91, "velocity": 100}, {"time": 59282, "pitch": 53, "duration": 80, "velocity": 95}, {"time": 59442, "pitch": 53, "duration": 89, "velocity": 100}, {"time": 59681, "pitch": 53, "duration": 80, "velocity": 90}, {"time": 59761, "pitch": 53, "duration": 89, "velocity": 95}, {"time": 59920, "pitch": 53, "duration": 80, "velocity": 100}, {"time": 60239, "pitch": 55, "duration": 90, "velocity": 95}, {"time": 60399, "pitch": 55, "duration": 89, "velocity": 100}, {"time": 60717, "pitch": 55, "duration": 90, "velocity": 95}, {"time": 60877, "pitch": 55, "duration": 90, "velocity": 100}, {"time": 61199, "pitch": 55, "duration": 81, "velocity": 95}, {"time": 61361, "pitch": 55, "duration": 91, "velocity": 100}, {"time": 61601, "pitch": 55, "duration": 80, "velocity": 90}, {"time": 61681, "pitch": 55, "duration": 90, "velocity": 95}, {"time": 61841, "pitch": 55, "duration": 79, "velocity": 100}, {"time": 62160, "pitch": 55, "duration": 89, "velocity": 95}, {"time": 62319, "pitch": 55, "duration": 90, "velocity": 100}, {"time": 62638, "pitch": 55, "duration": 90, "velocity": 95}, {"time": 62797, "pitch": 55, "duration": 90, "velocity": 100}, {"time": 63120, "pitch": 55, "duration": 81, "velocity": 95}, {"time": 63281, "pitch": 55, "duration": 91, "velocity": 100}, {"time": 63522, "pitch": 55, "duration": 80, "velocity": 90}, {"time": 63602, "pitch": 55, "duration": 89, "velocity": 95}, {"time": 63761, "pitch": 55, "duration": 80, "velocity": 100}, {"time": 64080, "pitch": 53, "duration": 90, "velocity": 95}, {"time": 64239, "pitch": 53, "duration": 90, "velocity": 100}, {"time": 64558, "pitch": 53, "duration": 90, "velocity": 95}, {"time": 64718, "pitch": 53, "duration": 90, "velocity": 100}, {"time": 65040, "pitch": 53, "duration": 81, "velocity": 95}, {"time": 65202, "pitch": 53, "duration": 91, "velocity": 100}, {"time": 65442, "pitch": 53, "duration": 80, "velocity": 90}, {"time": 65522, "pitch": 53, "duration": 90, "velocity": 95}, {"time": 65681, "pitch": 53, "duration": 80, "velocity": 100}, {"time": 66000, "pitch": 53, "duration": 90, "velocity": 95}, {"time": 66160, "pitch": 53, "duration": 90, "velocity": 100}, {"time": 66479, "pitch": 53, "duration": 89, "velocity": 95}, {"time": 66638, "pitch": 53, "duration": 90, "velocity": 100}, {"time": 66961, "pitch": 53, "duration": 80, "velocity": 95}, {"time": 67122, "pitch": 53, "duration": 91, "velocity": 100}, {"time": 67363, "pitch": 53, "duration": 79, "velocity": 90}, {"time": 67442, "pitch": 53, "duration": 90, "velocity": 95}, {"time": 67602, "pitch": 53, "duration": 80, "velocity": 100}, {"time": 67921, "pitch": 55, "duration": 89, "velocity": 95}, {"time": 68080, "pitch": 55, "duration": 90, "velocity": 100}, {"time": 68399, "pitch": 55, "duration": 90, "velocity": 95}, {"time": 68559, "pitch": 55, "duration": 89, "velocity": 100}, {"time": 68878, "pitch": 55, "duration": 79, "velocity": 95}, {"time": 69027, "pitch": 57, "duration": 575, "velocity": 70}, {"time": 69027, "pitch": 60, "duration": 575, "velocity": 90}, {"time": 69037, "pitch": 66, "duration": 565, "velocity": 115}, {"time": 85198, "pitch": 53, "duration": 89, "velocity": 95}, {"time": 85357, "pitch": 53, "duration": 90, "velocity": 100}, {"time": 85680, "pitch": 53, "duration": 91, "velocity": 95}, {"time": 85841, "pitch": 53, "duration": 91, "velocity": 100}, {"time": 86161, "pitch": 53, "duration": 80, "velocity": 95}, {"time": 86321, "pitch": 53, "duration": 90, "velocity": 100}, {"time": 86560, "pitch": 53, "duration": 80, "velocity": 90}, {"time": 86640, "pitch": 53, "duration": 89, "velocity": 95}, {"time": 86799, "pitch": 53, "duration": 80, "velocity": 100}, {"time": 87118, "pitch": 53, "duration": 90, "velocity": 95}, {"time": 87278, "pitch": 53, "duration": 89, "velocity": 100}, {"time": 87600, "pitch": 53, "duration": 91, "velocity": 95}, {"time": 87762, "pitch": 53, "duration": 91, "velocity": 100}, {"time": 88082, "pitch": 53, "duration": 80, "velocity": 95}, {"time": 88241, "pitch": 53, "duration": 90, "velocity": 100}, {"time": 88480, "pitch": 53, "duration": 80, "velocity": 90}, {"time": 88560, "pitch": 53, "duration": 90, "velocity": 95}, {"time": 88720, "pitch": 53, "duration": 79, "velocity": 100}, {"time": 89039, "pitch": 53, "duration": 89, "velocity": 95}, {"time": 89198, "pitch": 53, "duration": 90, "velocity": 100}, {"time": 89520, "pitch": 53, "duration": 91, "velocity": 95}, {"time": 89682, "pitch": 53, "duration": 91, "velocity": 100}, {"time": 90002, "pitch": 53, "duration": 80, "velocity": 95}, {"time": 90162, "pitch": 53, "duration": 89, "velocity": 100}, {"time": 90401, "pitch": 53, "duration": 80, "velocity": 90}, {"time": 90481, "pitch": 53, "duration": 89, "velocity": 95}, {"time": 90640, "pitch": 53, "duration": 80, "velocity": 100}, {"time": 90959, "pitch": 53, "duration": 90, "velocity": 95}, {"time": 91118, "pitch": 53, "duration": 90, "velocity": 100}, {"time": 91437, "pitch": 53, "duration": 90, "velocity": 95}, {"time": 91597, "pitch": 53, "duration": 90, "velocity": 100}, {"time": 91919, "pitch": 53, "duration": 81, "velocity": 95}, {"time": 92081, "pitch": 53, "duration": 91, "velocity": 100}, {"time": 92321, "pitch": 53, "duration": 80, "velocity": 90}, {"time": 92401, "pitch": 53, "duration": 90, "velocity": 95}, {"time": 92561, "pitch": 53, "duration": 79, "velocity": 100}, {"time": 108239, "pitch": 55, "duration": 91, "velocity": 95}, {"time": 108401, "pitch": 55, "duration": 91, "velocity": 100}, {"time": 108721, "pitch": 55, "duration": 90, "velocity": 95}, {"time": 108881, "pitch": 55, "duration": 89, "velocity": 100}, {"time": 109200, "pitch": 55, "duration": 79, "velocity": 95}, {"time": 109359, "pitch": 55, "duration": 90, "velocity": 100}, {"time": 109598, "pitch": 55, "duration": 80, "velocity": 90}, {"time": 109678, "pitch": 55, "duration": 90, "velocity": 95}, {"time": 109837, "pitch": 55, "duration": 80, "velocity": 100}, {"time": 110160, "pitch": 53, "duration": 91, "velocity": 95}, {"time": 110322, "pitch": 53, "duration": 90, "velocity": 100}, {"time": 110642, "pitch": 53, "duration": 89, "velocity": 95}, {"time": 110801, "pitch": 53, "duration": 90, "velocity": 100}, {"time": 111120, "pitch": 53, "duration": 80, "velocity": 95}, {"time": 111280, "pitch": 53, "duration": 89, "velocity": 100}, {"time": 111519, "pitch": 53, "duration": 79, "velocity": 90}, {"time": 111598, "pitch": 53, "duration": 90, "velocity": 95}, {"time": 111758, "pitch": 53, "duration": 80, "velocity": 100}, {"time": 112080, "pitch": 53, "duration": 91, "velocity": 95}, {"time": 112242, "pitch": 53, "duration": 91, "velocity": 100}, {"time": 112562, "pitch": 53, "duration": 90, "velocity": 95}, {"time": 112722, "pitch": 53, "duration": 89, "velocity": 100}, {"time": 113040, "pitch": 53, "duration": 80, "velocity": 95}, {"time": 113200, "pitch": 53, "duration": 90, "velocity": 100}, {"time": 113439, "pitch": 53, "duration": 80, "velocity": 90}, {"time": 113519, "pitch": 53, "duration": 90, "velocity": 95}, {"time": 113678, "pitch": 53, "duration": 80, "velocity": 100}, {"time": 114001, "pitch": 55, "duration": 91, "velocity": 95}, {"time": 114162, "pitch": 55, "duration": 91, "velocity": 100}, {"time": 114483, "pitch": 55, "duration": 89, "velocity": 95}, {"time": 114642, "pitch": 55, "duration": 90, "velocity": 100}, {"time": 114961, "pitch": 55, "duration": 80, "velocity": 95}, {"time": 115120, "pitch": 55, "duration": 90, "velocity": 100}, {"time": 115360, "pitch": 55, "duration": 79, "velocity": 90}, {"time": 115439, "pitch": 55, "duration": 90, "velocity": 95}, {"time": 115599, "pitch": 55, "duration": 80, "velocity": 100}, {"time": 115918, "pitch": 55, "duration": 89, "velocity": 95}, {"time": 116077, "pitch": 55, "duration": 90, "velocity": 100}, {"time": 116400, "pitch": 55, "duration": 91, "velocity": 95}, {"time": 116561, "pitch": 55, "duration": 91, "velocity": 100}, {"time": 116881, "pitch": 55, "duration": 80, "velocity": 95}, {"time": 117041, "pitch": 55, "duration": 90, "velocity": 100}, {"time": 117280, "pitch": 55, "duration": 80, "velocity": 90}, {"time": 117360, "pitch": 55, "duration": 89, "velocity": 95}, {"time": 117519, "pitch": 55, "duration": 80, "velocity": 100}, {"time": 117838, "pitch": 53, "duration": 90, "velocity": 95}, {"time": 117998, "pitch": 53, "duration": 89, "velocity": 100}, {"time": 118320, "pitch": 53, "duration": 91, "velocity": 95}, {"time": 118482, "pitch": 53, "duration": 91, "velocity": 100}, {"time": 118802, "pitch": 53, "duration": 79, "velocity": 95}, {"time": 118961, "pitch": 53, "duration": 90, "velocity": 100}, {"time": 119200, "pitch": 53, "duration": 80, "velocity": 90}, {"time": 119280, "pitch": 53, "duration": 90, "velocity": 95}, {"time": 119440, "pitch": 53, "duration": 79, "velocity": 100}, {"time": 119759, "pitch": 53, "duration": 89, "velocity": 95}, {"time": 119918, "pitch": 53, "duration": 90, "velocity": 100}, {"time": 120240, "pitch": 53, "duration": 91, "velocity": 95}, {"time": 120402, "pitch": 53, "duration": 91, "velocity": 100}, {"time": 120722, "pitch": 53, "duration": 80, "velocity": 95}, {"time": 120882, "pitch": 53, "duration": 89, "velocity": 100}, {"time": 121121, "pitch": 53, "duration": 80, "velocity": 90}, {"time": 121201, "pitch": 53, "duration": 89, "velocity": 95}, {"time": 121360, "pitch": 53, "duration": 80, "velocity": 100}, {"time": 121679, "pitch": 55, "duration": 90, "velocity": 95}, {"time": 121838, "pitch": 55, "duration": 90, "velocity": 100}, {"time": 122161, "pitch": 55, "duration": 91, "velocity": 95}, {"time": 122323, "pitch": 55, "duration": 90, "velocity": 100}, {"time": 122643, "pitch": 55, "duration": 79, "velocity": 95}, {"time": 122792, "pitch": 57, "duration": 568, "velocity": 70}, {"time": 122792, "pitch": 60, "duration": 568, "velocity": 90}, {"time": 122802, "pitch": 66, "duration": 558, "velocity": 115}, {"time": 138959, "pitch": 53, "duration": 91, "velocity": 95}, {"time": 139121, "pitch": 53, "duration": 91, "velocity": 100}, {"time": 139441, "pitch": 53, "duration": 90, "velocity": 95}, {"time": 139601, "pitch": 53, "duration": 89, "velocity": 100}, {"time": 139920, "pitch": 53, "duration": 79, "velocity": 95}, {"time": 140079, "pitch": 53, "duration": 90, "velocity": 100}, {"time": 140318, "pitch": 53, "duration": 80, "velocity": 90}, {"time": 140398, "pitch": 53, "duration": 90, "velocity": 95}, {"time": 140557, "pitch": 53, "duration": 80, "velocity": 100}, {"time": 140880, "pitch": 53, "duration": 91, "velocity": 95}, {"time": 141042, "pitch": 53, "duration": 90, "velocity": 100}, {"time": 141362, "pitch": 53, "duration": 89, "velocity": 95}, {"time": 141521, "pitch": 53, "duration": 90, "velocity": 100}, {"time": 141840, "pitch": 53, "duration": 80, "velocity": 95}, {"time": 141999, "pitch": 53, "duration": 90, "velocity": 100}, {"time": 142239, "pitch": 53, "duration": 79, "velocity": 90}, {"time": 142318, "pitch": 53, "duration": 90, "velocity": 95}, {"time": 142478, "pitch": 53, "duration": 80, "velocity": 100}, {"time": 142800, "pitch": 53, "duration": 91, "velocity": 95}, {"time": 142962, "pitch": 53, "duration": 91, "velocity": 100}, {"time": 143282, "pitch": 53, "duration": 90, "velocity": 95}, {"time": 143442, "pitch": 53, "duration": 89, "velocity": 100}, {"time": 143760, "pitch": 53, "duration": 80, "velocity": 95}, {"time": 143920, "pitch": 53, "duration": 90, "velocity": 100}, {"time": 144159, "pitch": 53, "duration": 80, "velocity": 90}, {"time": 144239, "pitch": 53, "duration": 90, "velocity": 95}, {"time": 144398, "pitch": 53, "duration": 80, "velocity": 100}, {"time": 144721, "pitch": 53, "duration": 91, "velocity": 95}, {"time": 144882, "pitch": 53, "duration": 91, "velocity": 100}, {"time": 145202, "pitch": 53, "duration": 90, "velocity": 95}, {"time": 145362, "pitch": 53, "duration": 90, "velocity": 100}, {"time": 145681, "pitch": 53, "duration": 80, "velocity": 95}, {"time": 145840, "pitch": 53, "duration": 90, "velocity": 100}, {"time": 146080, "pitch": 53, "duration": 79, "velocity": 90}, {"time": 146159, "pitch": 53, "duration": 90, "velocity": 95}, {"time": 146319, "pitch": 53, "duration": 79, "velocity": 100}, {"time": 15999, "pitch": 64, "duration": 70, "velocity": 90}, {"time": 16080, "pitch": 65, "duration": 151, "velocity": 95}, {"time": 16241, "pitch": 64, "duration": 71, "velocity": 90}, {"time": 16322, "pitch": 65, "duration": 150, "velocity": 100}, {"time": 16721, "pitch": 64, "duration": 70, "velocity": 90}, {"time": 16801, "pitch": 65, "duration": 149, "velocity": 95}, {"time": 16960, "pitch": 64, "duration": 70, "velocity": 90}, {"time": 17040, "pitch": 65, "duration": 149, "velocity": 95}, {"time": 17438, "pitch": 65, "duration": 70, "velocity": 90}, {"time": 17518, "pitch": 65, "duration": 150, "velocity": 95}, {"time": 17678, "pitch": 65, "duration": 69, "velocity": 90}, {"time": 17757, "pitch": 67, "duration": 223, "velocity": 100}, {"time": 18000, "pitch": 62, "duration": 222, "velocity": 90}, {"time": 18243, "pitch": 60, "duration": 219, "velocity": 95}, {"time": 18482, "pitch": 62, "duration": 139, "velocity": 90}, {"time": 18641, "pitch": 60, "duration": 220, "velocity": 100}, {"time": 18880, "pitch": 58, "duration": 429, "velocity": 95}, {"time": 23678, "pitch": 64, "duration": 70, "velocity": 90}, {"time": 23758, "pitch": 65, "duration": 149, "velocity": 95}, {"time": 23917, "pitch": 64, "duration": 70, "velocity": 90}, {"time": 23997, "pitch": 65, "duration": 152, "velocity": 100}, {"time": 24401, "pitch": 64, "duration": 71, "velocity": 90}, {"time": 24482, "pitch": 65, "duration": 150, "velocity": 100}, {"time": 24642, "pitch": 64, "duration": 70, "velocity": 90}, {"time": 24722, "pitch": 65, "duration": 149, "velocity": 95}, {"time": 24881, "pitch": 65, "duration": 70, "velocity": 90}, {"time": 24961, "pitch": 65, "duration": 149, "velocity": 95}, {"time": 25120, "pitch": 65, "duration": 70, "velocity": 90}, {"time": 25200, "pitch": 65, "duration": 149, "velocity": 95}, {"time": 25359, "pitch": 65, "duration": 70, "velocity": 90}, {"time": 25439, "pitch": 67, "duration": 219, "velocity": 100}, {"time": 25678, "pitch": 62, "duration": 220, "velocity": 90}, {"time": 25917, "pitch": 60, "duration": 223, "velocity": 95}, {"time": 26160, "pitch": 62, "duration": 152, "velocity": 90}, {"time": 26322, "pitch": 60, "duration": 151, "velocity": 100}, {"time": 26562, "pitch": 58, "duration": 309, "velocity": 95}, {"time": 29998, "pitch": 62, "duration": 69, "velocity": 95}, {"time": 30237, "pitch": 70, "duration": 303, "velocity": 100}, {"time": 30641, "pitch": 69, "duration": 201, "velocity": 95}, {"time": 30961, "pitch": 69, "duration": 2140, "velocity": 100}, {"time": 69761, "pitch": 64, "duration": 70, "velocity": 90}, {"time": 69841, "pitch": 65, "duration": 150, "velocity": 95}, {"time": 70001, "pitch": 64, "duration": 79, "velocity": 90}, {"time": 70080, "pitch": 65, "duration": 120, "velocity": 100}, {"time": 70479, "pitch": 64, "duration": 80, "velocity": 90}, {"time": 70559, "pitch": 65, "duration": 129, "velocity": 100}, {"time": 70718, "pitch": 64, "duration": 90, "velocity": 90}, {"time": 70798, "pitch": 65, "duration": 120, "velocity": 95}, {"time": 71199, "pitch": 64, "duration": 91, "velocity": 90}, {"time": 71280, "pitch": 65, "duration": 131, "velocity": 95}, {"time": 71442, "pitch": 64, "duration": 70, "velocity": 90}, {"time": 71522, "pitch": 67, "duration": 140, "velocity": 100}, {"time": 71762, "pitch": 62, "duration": 79, "velocity": 90}, {"time": 72001, "pitch": 60, "duration": 149, "velocity": 95}, {"time": 72240, "pitch": 62, "duration": 60, "velocity": 90}, {"time": 72399, "pitch": 60, "duration": 210, "velocity": 100}, {"time": 72639, "pitch": 58, "duration": 430, "velocity": 95}, {"time": 77439, "pitch": 64, "duration": 60, "velocity": 90}, {"time": 77519, "pitch": 65, "duration": 132, "velocity": 95}, {"time": 77681, "pitch": 64, "duration": 71, "velocity": 90}, {"time": 77762, "pitch": 65, "duration": 90, "velocity": 100}, {"time": 78161, "pitch": 64, "duration": 80, "velocity": 95}, {"time": 78241, "pitch": 65, "duration": 139, "velocity": 100}, {"time": 78400, "pitch": 64, "duration": 90, "velocity": 90}, {"time": 78480, "pitch": 65, "duration": 139, "velocity": 95}, {"time": 78639, "pitch": 65, "duration": 70, "velocity": 90}, {"time": 78719, "pitch": 65, "duration": 139, "velocity": 95}, {"time": 78878, "pitch": 65, "duration": 70, "velocity": 90}, {"time": 78958, "pitch": 65, "duration": 140, "velocity": 95}, {"time": 79118, "pitch": 65, "duration": 69, "velocity": 90}, {"time": 79197, "pitch": 67, "duration": 132, "velocity": 100}, {"time": 79440, "pitch": 62, "duration": 71, "velocity": 90}, {"time": 79683, "pitch": 60, "duration": 129, "velocity": 95}, {"time": 79922, "pitch": 62, "duration": 139, "velocity": 90}, {"time": 80081, "pitch": 60, "duration": 190, "velocity": 100}, {"time": 80320, "pitch": 58, "duration": 309, "velocity": 95}, {"time": 123520, "pitch": 64, "duration": 69, "velocity": 90}, {"time": 123599, "pitch": 65, "duration": 150, "velocity": 95}, {"time": 123759, "pitch": 64, "duration": 80, "velocity": 90}, {"time": 123839, "pitch": 65, "duration": 119, "velocity": 100}, {"time": 124237, "pitch": 64, "duration": 80, "velocity": 90}, {"time": 124317, "pitch": 65, "duration": 131, "velocity": 100}, {"time": 124479, "pitch": 64, "duration": 91, "velocity": 90}, {"time": 124560, "pitch": 65, "duration": 121, "velocity": 95}, {"time": 124962, "pitch": 64, "duration": 89, "velocity": 90}, {"time": 125041, "pitch": 65, "duration": 130, "velocity": 95}, {"time": 125201, "pitch": 64, "duration": 70, "velocity": 90}, {"time": 125281, "pitch": 67, "duration": 139, "velocity": 100}, {"time": 125520, "pitch": 62, "duration": 80, "velocity": 90}, {"time": 125759, "pitch": 60, "duration": 150, "velocity": 95}, {"time": 125998, "pitch": 62, "duration": 60, "velocity": 90}, {"time": 126158, "pitch": 60, "duration": 211, "velocity": 100}, {"time": 126399, "pitch": 58, "duration": 433, "velocity": 95}, {"time": 131201, "pitch": 64, "duration": 60, "velocity": 90}, {"time": 131281, "pitch": 65, "duration": 130, "velocity": 95}, {"time": 131441, "pitch": 64, "duration": 69, "velocity": 90}, {"time": 131520, "pitch": 65, "duration": 90, "velocity": 100}, {"time": 131919, "pitch": 64, "duration": 80, "velocity": 95}, {"time": 131999, "pitch": 65, "duration": 139, "velocity": 100}, {"time": 132158, "pitch": 64, "duration": 90, "velocity": 90}, {"time": 132238, "pitch": 65, "duration": 139, "velocity": 95}, {"time": 132397, "pitch": 65, "duration": 70, "velocity": 90}, {"time": 132477, "pitch": 65, "duration": 142, "velocity": 95}, {"time": 132639, "pitch": 65, "duration": 71, "velocity": 90}, {"time": 132720, "pitch": 65, "duration": 141, "velocity": 95}, {"time": 132881, "pitch": 65, "duration": 71, "velocity": 90}, {"time": 132962, "pitch": 67, "duration": 130, "velocity": 100}, {"time": 133202, "pitch": 62, "duration": 69, "velocity": 90}, {"time": 133441, "pitch": 60, "duration": 129, "velocity": 95}, {"time": 133680, "pitch": 62, "duration": 139, "velocity": 90}, {"time": 133839, "pitch": 60, "duration": 190, "velocity": 100}, {"time": 134079, "pitch": 58, "duration": 309, "velocity": 95}, {"time": 146558, "pitch": 64, "duration": 70, "velocity": 90}, {"time": 146638, "pitch": 65, "duration": 149, "velocity": 95}, {"time": 146797, "pitch": 64, "duration": 80, "velocity": 90}, {"time": 146877, "pitch": 65, "duration": 121, "velocity": 100}, {"time": 147281, "pitch": 64, "duration": 81, "velocity": 90}, {"time": 147362, "pitch": 65, "duration": 130, "velocity": 100}, {"time": 147522, "pitch": 64, "duration": 89, "velocity": 90}, {"time": 147601, "pitch": 65, "duration": 120, "velocity": 95}, {"time": 148000, "pitch": 64, "duration": 90, "velocity": 90}, {"time": 148080, "pitch": 65, "duration": 129, "velocity": 95}, {"time": 148239, "pitch": 64, "duration": 70, "velocity": 90}, {"time": 148319, "pitch": 67, "duration": 139, "velocity": 100}, {"time": 148558, "pitch": 62, "duration": 80, "velocity": 90}, {"time": 148797, "pitch": 60, "duration": 152, "velocity": 95}, {"time": 149040, "pitch": 62, "duration": 61, "velocity": 90}, {"time": 149202, "pitch": 60, "duration": 210, "velocity": 100}, {"time": 149442, "pitch": 58, "duration": 429, "velocity": 95}, {"time": 154240, "pitch": 64, "duration": 59, "velocity": 90}, {"time": 154319, "pitch": 65, "duration": 130, "velocity": 95}, {"time": 154479, "pitch": 64, "duration": 70, "velocity": 90}, {"time": 154559, "pitch": 65, "duration": 89, "velocity": 100}, {"time": 154957, "pitch": 64, "duration": 80, "velocity": 95}, {"time": 155037, "pitch": 65, "duration": 141, "velocity": 100}, {"time": 155199, "pitch": 64, "duration": 91, "velocity": 90}, {"time": 155280, "pitch": 65, "duration": 141, "velocity": 95}, {"time": 155441, "pitch": 65, "duration": 71, "velocity": 90}, {"time": 155522, "pitch": 65, "duration": 140, "velocity": 95}, {"time": 155682, "pitch": 65, "duration": 69, "velocity": 90}, {"time": 155761, "pitch": 65, "duration": 140, "velocity": 95}, {"time": 155921, "pitch": 65, "duration": 70, "velocity": 90}, {"time": 156001, "pitch": 67, "duration": 129, "velocity": 100}, {"time": 156240, "pitch": 62, "duration": 70, "velocity": 90}, {"time": 156479, "pitch": 60, "duration": 130, "velocity": 95}, {"time": 156718, "pitch": 62, "duration": 140, "velocity": 90}, {"time": 156878, "pitch": 60, "duration": 191, "velocity": 100}, {"time": 157119, "pitch": 58, "duration": 314, "velocity": 95}]}]}