{"metadata": {"schema_version": "0.1", "title": "RWC-MDB-P-2001 No. 73: Miss Maria / Kazuo Nishi", "copyright": "RWC Music Database. Copyright (C) 2001 Real World Computing Partnership (contact: Masataka GOTO <m.goto@aist.go.jp>)", "source_filename": "RM-P073.SMF_SYNC.MID", "source_format": "midi"}, "resolution": 480, "tempos": [{"time": 0, "qpm": 55.04587155963303}, {"time": 480, "qpm": 142.85714285714286}, {"time": 960, "qpm": 157.89473684210526}, {"time": 1440, "qpm": 153.84615384615384}, {"time": 1920, "qpm": 142.85714285714286}, {"time": 2400, "qpm": 139.53488372093022}, {"time": 2880, "qpm": 146.34146341463415}, {"time": 3360, "qpm": 153.84615384615384}, {"time": 3840, "qpm": 150.0}, {"time": 4320, "qpm": 153.84615384615384}, {"time": 4800, "qpm": 142.85714285714286}, {"time": 5280, "qpm": 162.16216216216216}, {"time": 5760, "qpm": 146.34146341463415}, {"time": 6240, "qpm": 136.36363636363637}, {"time": 6720, "qpm": 146.34146341463415}, {"time": 7680, "qpm": 150.0}, {"time": 8160, "qpm": 136.36363636363637}, {"time": 8640, "qpm": 146.34146341463415}, {"time": 9120, "qpm": 153.84615384615384}, {"time": 9600, "qpm": 142.85714285714286}, {"time": 10080, "qpm": 153.84615384615384}, {"time": 10560, "qpm": 146.34146341463415}, {"time": 11040, "qpm": 176.47058823529412}, {"time": 11520, "qpm": 133.33333333333334}, {"time": 12000, "qpm": 139.53488372093022}, {"time": 12480, "qpm": 157.89473684210526}, {"time": 12960, "qpm": 153.84615384615384}, {"time": 13440, "qpm": 136.36363636363637}, {"time": 14400, "qpm": 139.53488372093022}, {"time": 14880, "qpm": 150.0}, {"time": 15840, "qpm": 136.36363636363637}, {"time": 16320, "qpm": 139.53488372093022}, {"time": 17280, "qpm": 150.0}, {"time": 18240, "qpm": 142.85714285714286}, {"time": 18720, "qpm": 146.34146341463415}, {"time": 19680, "qpm": 136.36363636363637}, {"time": 20160, "qpm": 157.89473684210526}, {"time": 20640, "qpm": 146.34146341463415}, {"time": 21120, "qpm": 171.42857142857142}, {"time": 21600, "qpm": 142.85714285714286}, {"time": 22080, "qpm": 139.53488372093022}, {"time": 22560, "qpm": 150.0}, {"time": 23040, "qpm": 146.34146341463415}, {"time": 23520, "qpm": 139.53488372093022}, {"time": 24000, "qpm": 153.84615384615384}, {"time": 24480, "qpm": 150.0}, {"time": 25440, "qpm": 142.85714285714286}, {"time": 25920, "qpm": 146.34146341463415}, {"time": 26400, "qpm": 153.84615384615384}, {"time": 26880, "qpm": 139.53488372093022}, {"time": 27360, "qpm": 150.0}, {"time": 27840, "qpm": 153.84615384615384}, {"time": 28320, "qpm": 142.85714285714286}, {"time": 28800, "qpm": 146.34146341463415}, {"time": 29280, "qpm": 139.53488372093022}, {"time": 29760, "qpm": 146.34146341463415}, {"time": 30720, "qpm": 142.85714285714286}, {"time": 31200, "qpm": 150.0}, {"time": 31680, "qpm": 146.34146341463415}, {"time": 32160, "qpm": 139.53488372093022}, {"time": 32640, "qpm": 153.84615384615384}, {"time": 33600, "qpm": 162.16216216216216}, {"time": 34080, "qpm": 157.89473684210526}, {"time": 34560, "qpm": 139.53488372093022}, {"time": 35040, "qpm": 142.85714285714286}, {"time": 35520, "qpm": 162.16216216216216}, {"time": 36000, "qpm": 150.0}, {"time": 36480, "qpm": 162.16216216216216}, {"time": 36960, "qpm": 142.85714285714286}, {"time": 37440, "qpm": 153.84615384615384}, {"time": 37920, "qpm": 150.0}, {"time": 39360, "qpm": 153.84615384615384}, {"time": 39840, "qpm": 150.0}, {"time": 40800, "qpm": 153.84615384615384}, {"time": 41280, "qpm": 150.0}, {"time": 42240, "qpm": 153.84615384615384}, {"time": 42720, "qpm": 157.89473684210526}, {"time": 43200, "qpm": 153.84615384615384}, {"time": 44160, "qpm": 142.85714285714286}, {"time": 44640, "qpm": 146.34146341463415}, {"time": 45120, "qpm": 157.89473684210526}, {"time": 45600, "qpm": 146.34146341463415}, {"time": 46080, "qpm": 117.6470588235294}, {"time": 46560, "qpm": 146.34146341463415}, {"time": 48000, "qpm": 136.36363636363637}, {"time": 48480, "qpm": 142.85714285714286}, {"time": 48960, "qpm": 146.34146341463415}, {"time": 50400, "qpm": 150.0}, {"time": 50880, "qpm": 146.34146341463415}, {"time": 51360, "qpm": 150.0}, {"time": 51840, "qpm": 153.84615384615384}, {"time": 52320, "qpm": 142.85714285714286}, {"time": 53280, "qpm": 153.84615384615384}, {"time": 53760, "qpm": 150.0}, {"time": 54240, "qpm": 146.34146341463415}, {"time": 54720, "qpm": 153.84615384615384}, {"time": 55200, "qpm": 146.34146341463415}, {"time": 55680, "qpm": 153.84615384615384}, {"time": 56160, "qpm": 146.34146341463415}, {"time": 56640, "qpm": 153.84615384615384}, {"time": 57120, "qpm": 146.34146341463415}, {"time": 57600, "qpm": 150.0}, {"time": 58080, "qpm": 153.84615384615384}, {"time": 58560, "qpm": 146.34146341463415}, {"time": 59040, "qpm": 150.0}, {"time": 59520, "qpm": 146.34146341463415}, {"time": 60000, "qpm": 157.89473684210526}, {"time": 61440, "qpm": 146.34146341463415}, {"time": 61920, "qpm": 171.42857142857142}, {"time": 62400, "qpm": 157.89473684210526}, {"time": 63840, "qpm": 150.0}, {"time": 64320, "qpm": 146.34146341463415}, {"time": 65280, "qpm": 150.0}, {"time": 66240, "qpm": 146.34146341463415}, {"time": 73920, "qpm": 150.0}, {"time": 75360, "qpm": 153.84615384615384}, {"time": 75840, "qpm": 150.0}, {"time": 77280, "qpm": 146.34146341463415}, {"time": 77760, "qpm": 150.0}, {"time": 78240, "qpm": 146.34146341463415}, {"time": 79200, "qpm": 150.0}, {"time": 79680, "qpm": 146.34146341463415}, {"time": 80160, "qpm": 150.0}, {"time": 81120, "qpm": 142.85714285714286}, {"time": 82560, "qpm": 146.34146341463415}, {"time": 84480, "qpm": 142.85714285714286}, {"time": 85440, "qpm": 146.34146341463415}, {"time": 89760, "qpm": 150.0}, {"time": 91200, "qpm": 146.34146341463415}, {"time": 91680, "qpm": 150.0}, {"time": 92160, "qpm": 146.34146341463415}, {"time": 92640, "qpm": 150.0}, {"time": 93120, "qpm": 146.34146341463415}, {"time": 93600, "qpm": 150.0}, {"time": 96480, "qpm": 139.53488372093022}, {"time": 96960, "qpm": 146.34146341463415}, {"time": 97440, "qpm": 142.85714285714286}, {"time": 97920, "qpm": 157.89473684210526}, {"time": 98880, "qpm": 150.0}, {"time": 100320, "qpm": 142.85714285714286}, {"time": 100800, "qpm": 153.84615384615384}, {"time": 101280, "qpm": 142.85714285714286}, {"time": 101760, "qpm": 150.0}, {"time": 102240, "qpm": 162.16216216216216}, {"time": 103200, "qpm": 153.84615384615384}, {"time": 103680, "qpm": 136.36363636363637}, {"time": 104160, "qpm": 142.85714285714286}, {"time": 104640, "qpm": 146.34146341463415}, {"time": 105120, "qpm": 153.84615384615384}, {"time": 105600, "qpm": 157.89473684210526}, {"time": 106080, "qpm": 150.0}, {"time": 106560, "qpm": 153.84615384615384}, {"time": 107040, "qpm": 146.34146341463415}, {"time": 107520, "qpm": 157.89473684210526}, {"time": 108000, "qpm": 153.84615384615384}, {"time": 108480, "qpm": 157.89473684210526}, {"time": 108960, "qpm": 150.0}, {"time": 109440, "qpm": 136.36363636363637}, {"time": 109920, "qpm": 146.34146341463415}, {"time": 110880, "qpm": 142.85714285714286}, {"time": 111360, "qpm": 139.53488372093022}, {"time": 111840, "qpm": 136.36363636363637}, {"time": 112320, "qpm": 146.34146341463415}, {"time": 112800, "qpm": 136.36363636363637}, {"time": 113280, "qpm": 142.85714285714286}, {"time": 113760, "qpm": 146.34146341463415}, {"time": 114240, "qpm": 142.85714285714286}, {"time": 114720, "qpm": 162.16216216216216}, {"time": 115200, "qpm": 146.34146341463415}, {"time": 115680, "qpm": 150.0}, {"time": 116640, "qpm": 157.89473684210526}, {"time": 117120, "qpm": 142.85714285714286}, {"time": 117600, "qpm": 153.84615384615384}, {"time": 118080, "qpm": 142.85714285714286}, {"time": 118560, "qpm": 153.84615384615384}, {"time": 119040, "qpm": 150.0}, {"time": 119520, "qpm": 153.84615384615384}, {"time": 120000, "qpm": 157.89473684210526}, {"time": 120480, "qpm": 142.85714285714286}, {"time": 120960, "qpm": 150.0}, {"time": 121440, "qpm": 153.84615384615384}, {"time": 121920, "qpm": 150.0}, {"time": 122400, "qpm": 162.16216216216216}, {"time": 122880, "qpm": 157.89473684210526}, {"time": 123360, "qpm": 162.16216216216216}, {"time": 123840, "qpm": 146.34146341463415}, {"time": 124320, "qpm": 157.89473684210526}, {"time": 124800, "qpm": 136.36363636363637}, {"time": 125280, "qpm": 157.89473684210526}, {"time": 125760, "qpm": 162.16216216216216}, {"time": 126240, "qpm": 157.89473684210526}, {"time": 126720, "qpm": 150.0}, {"time": 127200, "qpm": 162.16216216216216}, {"time": 127680, "qpm": 157.89473684210526}, {"time": 128160, "qpm": 150.0}, {"time": 128640, "qpm": 162.16216216216216}, {"time": 129120, "qpm": 139.53488372093022}, {"time": 129600, "qpm": 146.34146341463415}, {"time": 130080, "qpm": 150.0}, {"time": 130560, "qpm": 153.84615384615384}, {"time": 131040, "qpm": 142.85714285714286}, {"time": 132000, "qpm": 150.0}, {"time": 132480, "qpm": 153.84615384615384}, {"time": 133440, "qpm": 157.89473684210526}, {"time": 133920, "qpm": 150.0}, {"time": 134400, "qpm": 157.89473684210526}, {"time": 134880, "qpm": 142.85714285714286}, {"time": 135360, "qpm": 157.89473684210526}, {"time": 135840, "qpm": 150.0}, {"time": 136320, "qpm": 153.84615384615384}, {"time": 136800, "qpm": 150.0}, {"time": 137280, "qpm": 157.89473684210526}, {"time": 137760, "qpm": 146.34146341463415}, {"time": 138240, "qpm": 153.84615384615384}, {"time": 138720, "qpm": 150.0}, {"time": 139680, "qpm": 153.84615384615384}, {"time": 140640, "qpm": 150.0}, {"time": 141120, "qpm": 153.84615384615384}, {"time": 141600, "qpm": 146.34146341463415}, {"time": 142080, "qpm": 150.0}, {"time": 143040, "qpm": 181.8181818181818}, {"time": 143520, "qpm": 157.89473684210526}, {"time": 144000, "qpm": 153.84615384615384}, {"time": 144480, "qpm": 162.16216216216216}, {"time": 144960, "qpm": 153.84615384615384}, {"time": 145440, "qpm": 162.16216216216216}, {"time": 146400, "qpm": 142.85714285714286}, {"time": 146880, "qpm": 150.0}, {"time": 147840, "qpm": 136.36363636363637}, {"time": 148320, "qpm": 150.0}, {"time": 149760, "qpm": 146.34146341463415}, {"time": 150240, "qpm": 150.0}, {"time": 150720, "qpm": 146.34146341463415}, {"time": 151200, "qpm": 153.84615384615384}, {"time": 151680, "qpm": 142.85714285714286}, {"time": 152160, "qpm": 146.34146341463415}, {"time": 153120, "qpm": 150.0}, {"time": 153600, "qpm": 146.34146341463415}, {"time": 155520, "qpm": 150.0}], "key_signatures": [{"time": 0, "root": 3, "mode": "major"}], "time_signatures": [{"time": 0, "numerator": 1, "denominator": 4}, {"time": 480, "numerator": 4, "denominator": 4}], "tracks": [{"program": 0, "is_drum": false, "name": "Piano", "notes": [{"time": 479, "pitch": 48, "duration": 1199, "velocity": 100}, {"time": 479, "pitch": 63, "duration": 241, "velocity": 95}, {"time": 479, "pitch": 67, "duration": 241, "velocity": 100}, {"time": 720, "pitch": 55, "duration": 244, "velocity": 90}, {"time": 964, "pitch": 60, "duration": 238, "velocity": 95}, {"time": 1202, "pitch": 63, "duration": 714, "velocity": 100}, {"time": 1202, "pitch": 67, "duration": 714, "velocity": 100}, {"time": 1678, "pitch": 48, "duration": 706, "velocity": 90}, {"time": 1916, "pitch": 63, "duration": 468, "velocity": 95}, {"time": 1916, "pitch": 67, "duration": 468, "velocity": 100}, {"time": 2404, "pitch": 46, "duration": 1196, "velocity": 100}, {"time": 2404, "pitch": 63, "duration": 238, "velocity": 95}, {"time": 2404, "pitch": 67, "duration": 238, "velocity": 100}, {"time": 2642, "pitch": 55, "duration": 238, "velocity": 90}, {"time": 2880, "pitch": 58, "duration": 238, "velocity": 95}, {"time": 3118, "pitch": 63, "duration": 726, "velocity": 100}, {"time": 3118, "pitch": 67, "duration": 726, "velocity": 100}, {"time": 3600, "pitch": 46, "duration": 700, "velocity": 90}, {"time": 3844, "pitch": 63, "duration": 456, "velocity": 95}, {"time": 3844, "pitch": 67, "duration": 456, "velocity": 100}, {"time": 4320, "pitch": 44, "duration": 1202, "velocity": 100}, {"time": 4320, "pitch": 63, "duration": 238, "velocity": 95}, {"time": 4320, "pitch": 67, "duration": 238, "velocity": 100}, {"time": 4558, "pitch": 56, "duration": 238, "velocity": 90}, {"time": 4796, "pitch": 60, "duration": 244, "velocity": 95}, {"time": 5040, "pitch": 63, "duration": 720, "velocity": 100}, {"time": 5040, "pitch": 67, "duration": 720, "velocity": 100}, {"time": 5522, "pitch": 44, "duration": 694, "velocity": 90}, {"time": 5760, "pitch": 63, "duration": 456, "velocity": 95}, {"time": 5760, "pitch": 67, "duration": 456, "velocity": 100}, {"time": 6236, "pitch": 43, "duration": 1202, "velocity": 100}, {"time": 6236, "pitch": 60, "duration": 488, "velocity": 90}, {"time": 6236, "pitch": 62, "duration": 488, "velocity": 95}, {"time": 6236, "pitch": 67, "duration": 488, "velocity": 100}, {"time": 6724, "pitch": 55, "duration": 238, "velocity": 90}, {"time": 6962, "pitch": 59, "duration": 714, "velocity": 90}, {"time": 6962, "pitch": 62, "duration": 714, "velocity": 95}, {"time": 6962, "pitch": 67, "duration": 714, "velocity": 100}, {"time": 7438, "pitch": 43, "duration": 706, "velocity": 90}, {"time": 7676, "pitch": 59, "duration": 468, "velocity": 90}, {"time": 7676, "pitch": 62, "duration": 468, "velocity": 95}, {"time": 7676, "pitch": 67, "duration": 468, "velocity": 100}, {"time": 8164, "pitch": 48, "duration": 1196, "velocity": 100}, {"time": 8164, "pitch": 63, "duration": 238, "velocity": 95}, {"time": 8164, "pitch": 67, "duration": 238, "velocity": 100}, {"time": 8402, "pitch": 55, "duration": 238, "velocity": 90}, {"time": 8640, "pitch": 60, "duration": 238, "velocity": 95}, {"time": 8878, "pitch": 63, "duration": 726, "velocity": 100}, {"time": 8878, "pitch": 67, "duration": 726, "velocity": 100}, {"time": 9360, "pitch": 48, "duration": 700, "velocity": 90}, {"time": 9604, "pitch": 63, "duration": 456, "velocity": 95}, {"time": 9604, "pitch": 67, "duration": 456, "velocity": 100}, {"time": 10080, "pitch": 46, "duration": 1202, "velocity": 100}, {"time": 10080, "pitch": 63, "duration": 238, "velocity": 95}, {"time": 10080, "pitch": 67, "duration": 238, "velocity": 100}, {"time": 10318, "pitch": 55, "duration": 238, "velocity": 90}, {"time": 10556, "pitch": 58, "duration": 244, "velocity": 95}, {"time": 10800, "pitch": 63, "duration": 720, "velocity": 100}, {"time": 10800, "pitch": 67, "duration": 720, "velocity": 100}, {"time": 11282, "pitch": 46, "duration": 694, "velocity": 90}, {"time": 11520, "pitch": 63, "duration": 456, "velocity": 95}, {"time": 11520, "pitch": 67, "duration": 456, "velocity": 100}, {"time": 11996, "pitch": 44, "duration": 1202, "velocity": 100}, {"time": 11996, "pitch": 63, "duration": 244, "velocity": 95}, {"time": 11996, "pitch": 67, "duration": 244, "velocity": 100}, {"time": 12240, "pitch": 56, "duration": 244, "velocity": 90}, {"time": 12484, "pitch": 60, "duration": 238, "velocity": 95}, {"time": 12722, "pitch": 63, "duration": 714, "velocity": 100}, {"time": 12722, "pitch": 67, "duration": 714, "velocity": 100}, {"time": 13198, "pitch": 44, "duration": 706, "velocity": 90}, {"time": 13436, "pitch": 63, "duration": 468, "velocity": 95}, {"time": 13436, "pitch": 67, "duration": 468, "velocity": 100}, {"time": 13924, "pitch": 43, "duration": 198, "velocity": 100}, {"time": 13924, "pitch": 60, "duration": 198, "velocity": 90}, {"time": 13924, "pitch": 62, "duration": 198, "velocity": 95}, {"time": 13924, "pitch": 67, "duration": 198, "velocity": 100}, {"time": 14162, "pitch": 43, "duration": 198, "velocity": 100}, {"time": 14162, "pitch": 60, "duration": 198, "velocity": 90}, {"time": 14162, "pitch": 62, "duration": 198, "velocity": 95}, {"time": 14162, "pitch": 67, "duration": 198, "velocity": 100}, {"time": 14638, "pitch": 37, "duration": 1182, "velocity": 100}, {"time": 14638, "pitch": 56, "duration": 1182, "velocity": 90}, {"time": 14638, "pitch": 59, "duration": 1182, "velocity": 90}, {"time": 14638, "pitch": 61, "duration": 1182, "velocity": 95}, {"time": 14638, "pitch": 67, "duration": 1182, "velocity": 100}, {"time": 15840, "pitch": 48, "duration": 1202, "velocity": 100}, {"time": 15840, "pitch": 63, "duration": 238, "velocity": 95}, {"time": 15840, "pitch": 67, "duration": 238, "velocity": 100}, {"time": 16078, "pitch": 55, "duration": 238, "velocity": 90}, {"time": 16316, "pitch": 60, "duration": 244, "velocity": 95}, {"time": 16560, "pitch": 63, "duration": 720, "velocity": 100}, {"time": 16560, "pitch": 67, "duration": 720, "velocity": 100}, {"time": 17042, "pitch": 48, "duration": 694, "velocity": 90}, {"time": 17280, "pitch": 63, "duration": 456, "velocity": 95}, {"time": 17280, "pitch": 67, "duration": 456, "velocity": 100}, {"time": 17756, "pitch": 46, "duration": 1202, "velocity": 100}, {"time": 17756, "pitch": 63, "duration": 244, "velocity": 95}, {"time": 17756, "pitch": 67, "duration": 244, "velocity": 100}, {"time": 18000, "pitch": 55, "duration": 244, "velocity": 90}, {"time": 18244, "pitch": 58, "duration": 238, "velocity": 95}, {"time": 18482, "pitch": 63, "duration": 714, "velocity": 100}, {"time": 18482, "pitch": 67, "duration": 714, "velocity": 100}, {"time": 18958, "pitch": 46, "duration": 706, "velocity": 90}, {"time": 19196, "pitch": 63, "duration": 468, "velocity": 95}, {"time": 19196, "pitch": 67, "duration": 468, "velocity": 100}, {"time": 19684, "pitch": 44, "duration": 1196, "velocity": 100}, {"time": 19684, "pitch": 63, "duration": 238, "velocity": 95}, {"time": 19684, "pitch": 67, "duration": 238, "velocity": 100}, {"time": 19922, "pitch": 56, "duration": 238, "velocity": 90}, {"time": 20160, "pitch": 60, "duration": 238, "velocity": 95}, {"time": 20398, "pitch": 63, "duration": 726, "velocity": 100}, {"time": 20398, "pitch": 67, "duration": 726, "velocity": 100}, {"time": 20880, "pitch": 44, "duration": 700, "velocity": 90}, {"time": 21124, "pitch": 63, "duration": 456, "velocity": 95}, {"time": 21124, "pitch": 67, "duration": 456, "velocity": 100}, {"time": 21600, "pitch": 43, "duration": 1202, "velocity": 100}, {"time": 21600, "pitch": 62, "duration": 238, "velocity": 95}, {"time": 21600, "pitch": 67, "duration": 238, "velocity": 100}, {"time": 21838, "pitch": 55, "duration": 238, "velocity": 90}, {"time": 22076, "pitch": 59, "duration": 244, "velocity": 95}, {"time": 22320, "pitch": 62, "duration": 720, "velocity": 100}, {"time": 22320, "pitch": 67, "duration": 720, "velocity": 100}, {"time": 22802, "pitch": 43, "duration": 694, "velocity": 90}, {"time": 23040, "pitch": 62, "duration": 456, "velocity": 95}, {"time": 23040, "pitch": 67, "duration": 456, "velocity": 100}, {"time": 23516, "pitch": 48, "duration": 1202, "velocity": 100}, {"time": 23516, "pitch": 63, "duration": 244, "velocity": 95}, {"time": 23516, "pitch": 67, "duration": 244, "velocity": 100}, {"time": 23760, "pitch": 55, "duration": 244, "velocity": 90}, {"time": 24004, "pitch": 60, "duration": 238, "velocity": 95}, {"time": 24242, "pitch": 63, "duration": 714, "velocity": 100}, {"time": 24242, "pitch": 67, "duration": 714, "velocity": 100}, {"time": 24718, "pitch": 48, "duration": 706, "velocity": 90}, {"time": 24956, "pitch": 63, "duration": 468, "velocity": 95}, {"time": 24956, "pitch": 67, "duration": 468, "velocity": 100}, {"time": 25444, "pitch": 46, "duration": 1196, "velocity": 100}, {"time": 25444, "pitch": 63, "duration": 238, "velocity": 95}, {"time": 25444, "pitch": 67, "duration": 238, "velocity": 100}, {"time": 25682, "pitch": 55, "duration": 238, "velocity": 90}, {"time": 25920, "pitch": 58, "duration": 238, "velocity": 95}, {"time": 26158, "pitch": 63, "duration": 726, "velocity": 100}, {"time": 26158, "pitch": 67, "duration": 726, "velocity": 100}, {"time": 26640, "pitch": 46, "duration": 700, "velocity": 90}, {"time": 26884, "pitch": 63, "duration": 456, "velocity": 95}, {"time": 26884, "pitch": 67, "duration": 456, "velocity": 100}, {"time": 27360, "pitch": 44, "duration": 720, "velocity": 100}, {"time": 27360, "pitch": 63, "duration": 238, "velocity": 95}, {"time": 27360, "pitch": 67, "duration": 238, "velocity": 100}, {"time": 27598, "pitch": 56, "duration": 238, "velocity": 90}, {"time": 27836, "pitch": 60, "duration": 244, "velocity": 95}, {"time": 28080, "pitch": 63, "duration": 462, "velocity": 100}, {"time": 28080, "pitch": 67, "duration": 462, "velocity": 100}, {"time": 28562, "pitch": 43, "duration": 456, "velocity": 100}, {"time": 28562, "pitch": 58, "duration": 456, "velocity": 95}, {"time": 28562, "pitch": 62, "duration": 456, "velocity": 90}, {"time": 28562, "pitch": 65, "duration": 456, "velocity": 100}, {"time": 29038, "pitch": 48, "duration": 1658, "velocity": 100}, {"time": 29038, "pitch": 60, "duration": 462, "velocity": 95}, {"time": 29038, "pitch": 63, "duration": 462, "velocity": 90}, {"time": 29038, "pitch": 67, "duration": 462, "velocity": 100}, {"time": 29520, "pitch": 60, "duration": 224, "velocity": 100}, {"time": 29764, "pitch": 63, "duration": 218, "velocity": 95}, {"time": 30002, "pitch": 67, "duration": 218, "velocity": 90}, {"time": 30240, "pitch": 60, "duration": 456, "velocity": 95}, {"time": 30240, "pitch": 63, "duration": 456, "velocity": 90}, {"time": 30240, "pitch": 67, "duration": 456, "velocity": 100}, {"time": 30716, "pitch": 47, "duration": 468, "velocity": 100}, {"time": 30716, "pitch": 59, "duration": 468, "velocity": 95}, {"time": 30716, "pitch": 62, "duration": 468, "velocity": 90}, {"time": 30716, "pitch": 66, "duration": 468, "velocity": 100}, {"time": 31204, "pitch": 46, "duration": 932, "velocity": 100}, {"time": 31204, "pitch": 56, "duration": 99, "velocity": 95}, {"time": 31204, "pitch": 61, "duration": 99, "velocity": 90}, {"time": 31204, "pitch": 65, "duration": 99, "velocity": 100}, {"time": 31442, "pitch": 56, "duration": 99, "velocity": 95}, {"time": 31442, "pitch": 61, "duration": 99, "velocity": 90}, {"time": 31442, "pitch": 65, "duration": 99, "velocity": 100}, {"time": 31918, "pitch": 56, "duration": 99, "velocity": 90}, {"time": 31918, "pitch": 61, "duration": 99, "velocity": 85}, {"time": 31918, "pitch": 65, "duration": 99, "velocity": 95}, {"time": 32156, "pitch": 51, "duration": 944, "velocity": 100}, {"time": 32156, "pitch": 55, "duration": 102, "velocity": 95}, {"time": 32156, "pitch": 61, "duration": 102, "velocity": 90}, {"time": 32156, "pitch": 65, "duration": 102, "velocity": 100}, {"time": 32400, "pitch": 55, "duration": 102, "velocity": 95}, {"time": 32400, "pitch": 61, "duration": 102, "velocity": 90}, {"time": 32400, "pitch": 65, "duration": 102, "velocity": 100}, {"time": 32882, "pitch": 55, "duration": 99, "velocity": 90}, {"time": 32882, "pitch": 61, "duration": 99, "velocity": 85}, {"time": 32882, "pitch": 65, "duration": 99, "velocity": 95}, {"time": 33120, "pitch": 44, "duration": 1896, "velocity": 100}, {"time": 33120, "pitch": 55, "duration": 99, "velocity": 95}, {"time": 33120, "pitch": 60, "duration": 99, "velocity": 90}, {"time": 33120, "pitch": 63, "duration": 99, "velocity": 100}, {"time": 33358, "pitch": 55, "duration": 99, "velocity": 95}, {"time": 33358, "pitch": 60, "duration": 99, "velocity": 90}, {"time": 33358, "pitch": 63, "duration": 99, "velocity": 100}, {"time": 33840, "pitch": 55, "duration": 102, "velocity": 90}, {"time": 33840, "pitch": 60, "duration": 102, "velocity": 85}, {"time": 33840, "pitch": 63, "duration": 102, "velocity": 95}, {"time": 34084, "pitch": 55, "duration": 99, "velocity": 95}, {"time": 34084, "pitch": 60, "duration": 99, "velocity": 90}, {"time": 34084, "pitch": 63, "duration": 99, "velocity": 100}, {"time": 34322, "pitch": 55, "duration": 99, "velocity": 95}, {"time": 34322, "pitch": 60, "duration": 99, "velocity": 90}, {"time": 34322, "pitch": 63, "duration": 99, "velocity": 100}, {"time": 34798, "pitch": 55, "duration": 99, "velocity": 90}, {"time": 34798, "pitch": 60, "duration": 99, "velocity": 85}, {"time": 34798, "pitch": 63, "duration": 99, "velocity": 95}, {"time": 35036, "pitch": 46, "duration": 944, "velocity": 100}, {"time": 35036, "pitch": 56, "duration": 102, "velocity": 95}, {"time": 35036, "pitch": 61, "duration": 102, "velocity": 90}, {"time": 35036, "pitch": 65, "duration": 102, "velocity": 100}, {"time": 35280, "pitch": 56, "duration": 102, "velocity": 95}, {"time": 35280, "pitch": 61, "duration": 102, "velocity": 90}, {"time": 35280, "pitch": 65, "duration": 102, "velocity": 100}, {"time": 35762, "pitch": 56, "duration": 99, "velocity": 90}, {"time": 35762, "pitch": 61, "duration": 99, "velocity": 85}, {"time": 35762, "pitch": 65, "duration": 99, "velocity": 95}, {"time": 36000, "pitch": 51, "duration": 944, "velocity": 100}, {"time": 36000, "pitch": 55, "duration": 99, "velocity": 95}, {"time": 36000, "pitch": 61, "duration": 99, "velocity": 90}, {"time": 36000, "pitch": 65, "duration": 99, "velocity": 100}, {"time": 36238, "pitch": 55, "duration": 99, "velocity": 95}, {"time": 36238, "pitch": 61, "duration": 99, "velocity": 90}, {"time": 36238, "pitch": 65, "duration": 99, "velocity": 100}, {"time": 36720, "pitch": 55, "duration": 102, "velocity": 90}, {"time": 36720, "pitch": 61, "duration": 102, "velocity": 85}, {"time": 36720, "pitch": 65, "duration": 102, "velocity": 95}, {"time": 36964, "pitch": 44, "duration": 1896, "velocity": 100}, {"time": 36964, "pitch": 55, "duration": 99, "velocity": 95}, {"time": 36964, "pitch": 60, "duration": 99, "velocity": 90}, {"time": 36964, "pitch": 63, "duration": 99, "velocity": 100}, {"time": 37202, "pitch": 55, "duration": 99, "velocity": 95}, {"time": 37202, "pitch": 60, "duration": 99, "velocity": 90}, {"time": 37202, "pitch": 63, "duration": 99, "velocity": 100}, {"time": 37678, "pitch": 55, "duration": 99, "velocity": 90}, {"time": 37678, "pitch": 60, "duration": 99, "velocity": 85}, {"time": 37678, "pitch": 63, "duration": 99, "velocity": 95}, {"time": 37916, "pitch": 55, "duration": 102, "velocity": 95}, {"time": 37916, "pitch": 60, "duration": 102, "velocity": 90}, {"time": 37916, "pitch": 63, "duration": 102, "velocity": 100}, {"time": 38160, "pitch": 55, "duration": 102, "velocity": 95}, {"time": 38160, "pitch": 60, "duration": 102, "velocity": 90}, {"time": 38160, "pitch": 63, "duration": 102, "velocity": 100}, {"time": 38642, "pitch": 55, "duration": 99, "velocity": 90}, {"time": 38642, "pitch": 60, "duration": 99, "velocity": 85}, {"time": 38642, "pitch": 63, "duration": 99, "velocity": 95}, {"time": 38880, "pitch": 41, "duration": 944, "velocity": 100}, {"time": 38880, "pitch": 67, "duration": 238, "velocity": 100}, {"time": 39118, "pitch": 56, "duration": 238, "velocity": 95}, {"time": 39356, "pitch": 60, "duration": 244, "velocity": 90}, {"time": 39600, "pitch": 67, "duration": 244, "velocity": 100}, {"time": 39844, "pitch": 46, "duration": 932, "velocity": 100}, {"time": 39844, "pitch": 65, "duration": 238, "velocity": 100}, {"time": 40082, "pitch": 56, "duration": 238, "velocity": 95}, {"time": 40320, "pitch": 58, "duration": 238, "velocity": 90}, {"time": 40558, "pitch": 62, "duration": 238, "velocity": 100}, {"time": 40796, "pitch": 39, "duration": 944, "velocity": 100}, {"time": 40796, "pitch": 65, "duration": 244, "velocity": 100}, {"time": 41040, "pitch": 55, "duration": 244, "velocity": 95}, {"time": 41284, "pitch": 58, "duration": 238, "velocity": 90}, {"time": 41522, "pitch": 65, "duration": 238, "velocity": 100}, {"time": 41760, "pitch": 44, "duration": 944, "velocity": 100}, {"time": 41760, "pitch": 63, "duration": 238, "velocity": 100}, {"time": 41998, "pitch": 55, "duration": 238, "velocity": 95}, {"time": 42236, "pitch": 60, "duration": 244, "velocity": 90}, {"time": 42480, "pitch": 63, "duration": 244, "velocity": 100}, {"time": 42724, "pitch": 50, "duration": 1896, "velocity": 100}, {"time": 42724, "pitch": 65, "duration": 238, "velocity": 100}, {"time": 42962, "pitch": 56, "duration": 238, "velocity": 95}, {"time": 43200, "pitch": 62, "duration": 238, "velocity": 90}, {"time": 43438, "pitch": 63, "duration": 238, "velocity": 100}, {"time": 43676, "pitch": 65, "duration": 244, "velocity": 100}, {"time": 43920, "pitch": 56, "duration": 244, "velocity": 95}, {"time": 44164, "pitch": 62, "duration": 238, "velocity": 90}, {"time": 44402, "pitch": 65, "duration": 238, "velocity": 100}, {"time": 44640, "pitch": 43, "duration": 700, "velocity": 100}, {"time": 44640, "pitch": 60, "duration": 700, "velocity": 90}, {"time": 44640, "pitch": 62, "duration": 700, "velocity": 95}, {"time": 44640, "pitch": 67, "duration": 700, "velocity": 100}, {"time": 45360, "pitch": 43, "duration": 163, "velocity": 100}, {"time": 45360, "pitch": 60, "duration": 163, "velocity": 90}, {"time": 45360, "pitch": 62, "duration": 163, "velocity": 95}, {"time": 45360, "pitch": 67, "duration": 163, "velocity": 100}, {"time": 45604, "pitch": 43, "duration": 694, "velocity": 100}, {"time": 45604, "pitch": 60, "duration": 694, "velocity": 90}, {"time": 45604, "pitch": 62, "duration": 694, "velocity": 95}, {"time": 45604, "pitch": 67, "duration": 694, "velocity": 100}, {"time": 46318, "pitch": 37, "duration": 159, "velocity": 100}, {"time": 46318, "pitch": 56, "duration": 159, "velocity": 90}, {"time": 46318, "pitch": 59, "duration": 159, "velocity": 90}, {"time": 46318, "pitch": 61, "duration": 159, "velocity": 95}, {"time": 46318, "pitch": 67, "duration": 159, "velocity": 100}, {"time": 46800, "pitch": 37, "duration": 163, "velocity": 100}, {"time": 46800, "pitch": 56, "duration": 163, "velocity": 90}, {"time": 46800, "pitch": 59, "duration": 163, "velocity": 90}, {"time": 46800, "pitch": 61, "duration": 163, "velocity": 95}, {"time": 46800, "pitch": 67, "duration": 163, "velocity": 100}, {"time": 47282, "pitch": 37, "duration": 159, "velocity": 100}, {"time": 47282, "pitch": 56, "duration": 159, "velocity": 90}, {"time": 47282, "pitch": 59, "duration": 159, "velocity": 90}, {"time": 47282, "pitch": 61, "duration": 159, "velocity": 95}, {"time": 47282, "pitch": 67, "duration": 159, "velocity": 100}, {"time": 47520, "pitch": 37, "duration": 943, "velocity": 100}, {"time": 47520, "pitch": 56, "duration": 943, "velocity": 90}, {"time": 47520, "pitch": 59, "duration": 943, "velocity": 90}, {"time": 47520, "pitch": 61, "duration": 943, "velocity": 95}, {"time": 47520, "pitch": 67, "duration": 943, "velocity": 100}, {"time": 48484, "pitch": 60, "duration": 238, "velocity": 90}, {"time": 48484, "pitch": 72, "duration": 238, "velocity": 100}, {"time": 48722, "pitch": 51, "duration": 238, "velocity": 85}, {"time": 48722, "pitch": 63, "duration": 238, "velocity": 95}, {"time": 48960, "pitch": 55, "duration": 238, "velocity": 90}, {"time": 48960, "pitch": 67, "duration": 238, "velocity": 100}, {"time": 49198, "pitch": 60, "duration": 238, "velocity": 85}, {"time": 49198, "pitch": 72, "duration": 238, "velocity": 95}, {"time": 49436, "pitch": 59, "duration": 244, "velocity": 90}, {"time": 49436, "pitch": 71, "duration": 244, "velocity": 100}, {"time": 49680, "pitch": 51, "duration": 244, "velocity": 85}, {"time": 49680, "pitch": 63, "duration": 244, "velocity": 95}, {"time": 49924, "pitch": 55, "duration": 238, "velocity": 90}, {"time": 49924, "pitch": 67, "duration": 238, "velocity": 100}, {"time": 50162, "pitch": 58, "duration": 238, "velocity": 85}, {"time": 50162, "pitch": 70, "duration": 238, "velocity": 95}, {"time": 50400, "pitch": 57, "duration": 238, "velocity": 90}, {"time": 50400, "pitch": 69, "duration": 238, "velocity": 100}, {"time": 50638, "pitch": 48, "duration": 238, "velocity": 85}, {"time": 50638, "pitch": 60, "duration": 238, "velocity": 95}, {"time": 50876, "pitch": 51, "duration": 244, "velocity": 90}, {"time": 50876, "pitch": 63, "duration": 244, "velocity": 100}, {"time": 51120, "pitch": 56, "duration": 244, "velocity": 85}, {"time": 51120, "pitch": 68, "duration": 244, "velocity": 95}, {"time": 51364, "pitch": 55, "duration": 238, "velocity": 90}, {"time": 51364, "pitch": 67, "duration": 238, "velocity": 100}, {"time": 51602, "pitch": 48, "duration": 238, "velocity": 85}, {"time": 51602, "pitch": 60, "duration": 238, "velocity": 95}, {"time": 51840, "pitch": 51, "duration": 238, "velocity": 90}, {"time": 51840, "pitch": 63, "duration": 238, "velocity": 100}, {"time": 52078, "pitch": 55, "duration": 238, "velocity": 85}, {"time": 52078, "pitch": 67, "duration": 238, "velocity": 95}, {"time": 52316, "pitch": 56, "duration": 244, "velocity": 90}, {"time": 52316, "pitch": 68, "duration": 244, "velocity": 100}, {"time": 52560, "pitch": 49, "duration": 244, "velocity": 85}, {"time": 52560, "pitch": 61, "duration": 244, "velocity": 95}, {"time": 52804, "pitch": 53, "duration": 238, "velocity": 90}, {"time": 52804, "pitch": 65, "duration": 238, "velocity": 100}, {"time": 53042, "pitch": 56, "duration": 238, "velocity": 85}, {"time": 53042, "pitch": 68, "duration": 238, "velocity": 95}, {"time": 53280, "pitch": 55, "duration": 238, "velocity": 90}, {"time": 53280, "pitch": 67, "duration": 238, "velocity": 100}, {"time": 53518, "pitch": 48, "duration": 238, "velocity": 85}, {"time": 53518, "pitch": 60, "duration": 238, "velocity": 95}, {"time": 53756, "pitch": 51, "duration": 244, "velocity": 90}, {"time": 53756, "pitch": 63, "duration": 244, "velocity": 100}, {"time": 54000, "pitch": 55, "duration": 244, "velocity": 85}, {"time": 54000, "pitch": 67, "duration": 244, "velocity": 95}, {"time": 54244, "pitch": 54, "duration": 238, "velocity": 90}, {"time": 54244, "pitch": 66, "duration": 238, "velocity": 100}, {"time": 54482, "pitch": 45, "duration": 238, "velocity": 85}, {"time": 54482, "pitch": 57, "duration": 238, "velocity": 95}, {"time": 54720, "pitch": 50, "duration": 238, "velocity": 90}, {"time": 54720, "pitch": 62, "duration": 238, "velocity": 100}, {"time": 54958, "pitch": 54, "duration": 238, "velocity": 85}, {"time": 54958, "pitch": 66, "duration": 238, "velocity": 95}, {"time": 55196, "pitch": 43, "duration": 944, "velocity": 90}, {"time": 55196, "pitch": 67, "duration": 944, "velocity": 100}, {"time": 56160, "pitch": 60, "duration": 238, "velocity": 90}, {"time": 56160, "pitch": 72, "duration": 238, "velocity": 100}, {"time": 56398, "pitch": 51, "duration": 238, "velocity": 85}, {"time": 56398, "pitch": 63, "duration": 238, "velocity": 95}, {"time": 56636, "pitch": 55, "duration": 244, "velocity": 90}, {"time": 56636, "pitch": 67, "duration": 244, "velocity": 100}, {"time": 56880, "pitch": 60, "duration": 244, "velocity": 85}, {"time": 56880, "pitch": 72, "duration": 244, "velocity": 95}, {"time": 57124, "pitch": 59, "duration": 238, "velocity": 90}, {"time": 57124, "pitch": 71, "duration": 238, "velocity": 100}, {"time": 57362, "pitch": 51, "duration": 238, "velocity": 85}, {"time": 57362, "pitch": 63, "duration": 238, "velocity": 95}, {"time": 57600, "pitch": 55, "duration": 238, "velocity": 90}, {"time": 57600, "pitch": 67, "duration": 238, "velocity": 100}, {"time": 57838, "pitch": 58, "duration": 238, "velocity": 85}, {"time": 57838, "pitch": 70, "duration": 238, "velocity": 95}, {"time": 58076, "pitch": 57, "duration": 244, "velocity": 90}, {"time": 58076, "pitch": 69, "duration": 244, "velocity": 100}, {"time": 58320, "pitch": 48, "duration": 244, "velocity": 85}, {"time": 58320, "pitch": 60, "duration": 244, "velocity": 95}, {"time": 58564, "pitch": 51, "duration": 238, "velocity": 90}, {"time": 58564, "pitch": 63, "duration": 238, "velocity": 100}, {"time": 58802, "pitch": 56, "duration": 238, "velocity": 85}, {"time": 58802, "pitch": 68, "duration": 238, "velocity": 95}, {"time": 59040, "pitch": 55, "duration": 238, "velocity": 90}, {"time": 59040, "pitch": 67, "duration": 238, "velocity": 100}, {"time": 59278, "pitch": 48, "duration": 238, "velocity": 85}, {"time": 59278, "pitch": 60, "duration": 238, "velocity": 95}, {"time": 59516, "pitch": 51, "duration": 244, "velocity": 90}, {"time": 59516, "pitch": 63, "duration": 244, "velocity": 100}, {"time": 59760, "pitch": 55, "duration": 244, "velocity": 85}, {"time": 59760, "pitch": 67, "duration": 244, "velocity": 95}, {"time": 60004, "pitch": 56, "duration": 238, "velocity": 90}, {"time": 60004, "pitch": 68, "duration": 238, "velocity": 100}, {"time": 60242, "pitch": 48, "duration": 238, "velocity": 85}, {"time": 60242, "pitch": 60, "duration": 238, "velocity": 95}, {"time": 60480, "pitch": 49, "duration": 238, "velocity": 90}, {"time": 60480, "pitch": 61, "duration": 238, "velocity": 100}, {"time": 60718, "pitch": 51, "duration": 238, "velocity": 85}, {"time": 60718, "pitch": 63, "duration": 238, "velocity": 95}, {"time": 60956, "pitch": 53, "duration": 244, "velocity": 90}, {"time": 60956, "pitch": 65, "duration": 244, "velocity": 100}, {"time": 61200, "pitch": 55, "duration": 244, "velocity": 85}, {"time": 61200, "pitch": 67, "duration": 244, "velocity": 95}, {"time": 61444, "pitch": 56, "duration": 238, "velocity": 90}, {"time": 61444, "pitch": 68, "duration": 238, "velocity": 100}, {"time": 61682, "pitch": 58, "duration": 238, "velocity": 85}, {"time": 61682, "pitch": 70, "duration": 238, "velocity": 95}, {"time": 61920, "pitch": 60, "duration": 238, "velocity": 90}, {"time": 61920, "pitch": 72, "duration": 238, "velocity": 100}, {"time": 62158, "pitch": 55, "duration": 238, "velocity": 85}, {"time": 62158, "pitch": 67, "duration": 238, "velocity": 95}, {"time": 62396, "pitch": 56, "duration": 244, "velocity": 90}, {"time": 62396, "pitch": 68, "duration": 244, "velocity": 100}, {"time": 62640, "pitch": 58, "duration": 244, "velocity": 85}, {"time": 62640, "pitch": 70, "duration": 244, "velocity": 95}, {"time": 62884, "pitch": 60, "duration": 238, "velocity": 90}, {"time": 62884, "pitch": 72, "duration": 238, "velocity": 100}, {"time": 63122, "pitch": 61, "duration": 238, "velocity": 85}, {"time": 63122, "pitch": 73, "duration": 238, "velocity": 95}, {"time": 63360, "pitch": 63, "duration": 238, "velocity": 90}, {"time": 63360, "pitch": 75, "duration": 238, "velocity": 100}, {"time": 63598, "pitch": 65, "duration": 238, "velocity": 85}, {"time": 63598, "pitch": 77, "duration": 238, "velocity": 95}, {"time": 63836, "pitch": 67, "duration": 244, "velocity": 100}, {"time": 63836, "pitch": 79, "duration": 244, "velocity": 110}, {"time": 64324, "pitch": 55, "duration": 476, "velocity": 100}, {"time": 64324, "pitch": 67, "duration": 476, "velocity": 110}, {"time": 64800, "pitch": 54, "duration": 476, "velocity": 100}, {"time": 64800, "pitch": 66, "duration": 476, "velocity": 110}, {"time": 65276, "pitch": 53, "duration": 488, "velocity": 100}, {"time": 65276, "pitch": 65, "duration": 488, "velocity": 110}, {"time": 65764, "pitch": 48, "duration": 1196, "velocity": 100}, {"time": 65764, "pitch": 63, "duration": 238, "velocity": 95}, {"time": 65764, "pitch": 67, "duration": 238, "velocity": 100}, {"time": 66002, "pitch": 55, "duration": 238, "velocity": 90}, {"time": 66240, "pitch": 60, "duration": 238, "velocity": 95}, {"time": 66478, "pitch": 63, "duration": 726, "velocity": 100}, {"time": 66478, "pitch": 67, "duration": 726, "velocity": 100}, {"time": 66960, "pitch": 48, "duration": 700, "velocity": 90}, {"time": 67204, "pitch": 63, "duration": 456, "velocity": 95}, {"time": 67204, "pitch": 67, "duration": 456, "velocity": 100}, {"time": 67680, "pitch": 46, "duration": 1202, "velocity": 100}, {"time": 67680, "pitch": 63, "duration": 238, "velocity": 95}, {"time": 67680, "pitch": 67, "duration": 238, "velocity": 100}, {"time": 67918, "pitch": 55, "duration": 238, "velocity": 90}, {"time": 68156, "pitch": 58, "duration": 244, "velocity": 95}, {"time": 68400, "pitch": 63, "duration": 720, "velocity": 100}, {"time": 68400, "pitch": 67, "duration": 720, "velocity": 100}, {"time": 68882, "pitch": 46, "duration": 694, "velocity": 90}, {"time": 69120, "pitch": 63, "duration": 456, "velocity": 95}, {"time": 69120, "pitch": 67, "duration": 456, "velocity": 100}, {"time": 69596, "pitch": 44, "duration": 1202, "velocity": 100}, {"time": 69596, "pitch": 63, "duration": 244, "velocity": 95}, {"time": 69596, "pitch": 67, "duration": 244, "velocity": 100}, {"time": 69840, "pitch": 56, "duration": 244, "velocity": 90}, {"time": 70084, "pitch": 60, "duration": 238, "velocity": 95}, {"time": 70322, "pitch": 63, "duration": 714, "velocity": 100}, {"time": 70322, "pitch": 67, "duration": 714, "velocity": 100}, {"time": 70798, "pitch": 44, "duration": 705, "velocity": 90}, {"time": 71036, "pitch": 63, "duration": 467, "velocity": 95}, {"time": 71036, "pitch": 67, "duration": 467, "velocity": 100}, {"time": 71524, "pitch": 43, "duration": 1196, "velocity": 100}, {"time": 71524, "pitch": 60, "duration": 476, "velocity": 90}, {"time": 71524, "pitch": 62, "duration": 476, "velocity": 95}, {"time": 71524, "pitch": 67, "duration": 476, "velocity": 100}, {"time": 72000, "pitch": 55, "duration": 238, "velocity": 90}, {"time": 72238, "pitch": 59, "duration": 726, "velocity": 90}, {"time": 72238, "pitch": 62, "duration": 726, "velocity": 95}, {"time": 72238, "pitch": 67, "duration": 726, "velocity": 100}, {"time": 72720, "pitch": 43, "duration": 700, "velocity": 90}, {"time": 72964, "pitch": 59, "duration": 456, "velocity": 90}, {"time": 72964, "pitch": 62, "duration": 456, "velocity": 95}, {"time": 72964, "pitch": 67, "duration": 456, "velocity": 100}, {"time": 73440, "pitch": 48, "duration": 1202, "velocity": 100}, {"time": 73440, "pitch": 63, "duration": 238, "velocity": 95}, {"time": 73440, "pitch": 67, "duration": 238, "velocity": 100}, {"time": 73678, "pitch": 55, "duration": 238, "velocity": 90}, {"time": 73916, "pitch": 60, "duration": 244, "velocity": 95}, {"time": 74160, "pitch": 63, "duration": 720, "velocity": 100}, {"time": 74160, "pitch": 67, "duration": 720, "velocity": 100}, {"time": 74642, "pitch": 48, "duration": 694, "velocity": 90}, {"time": 74880, "pitch": 63, "duration": 456, "velocity": 95}, {"time": 74880, "pitch": 67, "duration": 456, "velocity": 100}, {"time": 75356, "pitch": 46, "duration": 1202, "velocity": 100}, {"time": 75356, "pitch": 63, "duration": 244, "velocity": 95}, {"time": 75356, "pitch": 67, "duration": 244, "velocity": 100}, {"time": 75600, "pitch": 55, "duration": 244, "velocity": 90}, {"time": 75844, "pitch": 58, "duration": 238, "velocity": 95}, {"time": 76082, "pitch": 63, "duration": 714, "velocity": 100}, {"time": 76082, "pitch": 67, "duration": 714, "velocity": 100}, {"time": 76558, "pitch": 46, "duration": 705, "velocity": 90}, {"time": 76796, "pitch": 63, "duration": 467, "velocity": 95}, {"time": 76796, "pitch": 67, "duration": 467, "velocity": 100}, {"time": 77284, "pitch": 44, "duration": 1196, "velocity": 100}, {"time": 77284, "pitch": 63, "duration": 238, "velocity": 95}, {"time": 77284, "pitch": 67, "duration": 238, "velocity": 100}, {"time": 77522, "pitch": 56, "duration": 238, "velocity": 90}, {"time": 77760, "pitch": 60, "duration": 238, "velocity": 95}, {"time": 77998, "pitch": 63, "duration": 726, "velocity": 100}, {"time": 77998, "pitch": 67, "duration": 726, "velocity": 100}, {"time": 78480, "pitch": 44, "duration": 700, "velocity": 90}, {"time": 78724, "pitch": 63, "duration": 456, "velocity": 95}, {"time": 78724, "pitch": 67, "duration": 456, "velocity": 100}, {"time": 79200, "pitch": 43, "duration": 198, "velocity": 100}, {"time": 79200, "pitch": 60, "duration": 198, "velocity": 90}, {"time": 79200, "pitch": 62, "duration": 198, "velocity": 95}, {"time": 79200, "pitch": 67, "duration": 198, "velocity": 100}, {"time": 79438, "pitch": 43, "duration": 198, "velocity": 100}, {"time": 79438, "pitch": 60, "duration": 198, "velocity": 90}, {"time": 79438, "pitch": 62, "duration": 198, "velocity": 95}, {"time": 79438, "pitch": 67, "duration": 198, "velocity": 100}, {"time": 79920, "pitch": 37, "duration": 1176, "velocity": 100}, {"time": 79920, "pitch": 56, "duration": 1176, "velocity": 90}, {"time": 79920, "pitch": 59, "duration": 1176, "velocity": 90}, {"time": 79920, "pitch": 61, "duration": 1176, "velocity": 95}, {"time": 79920, "pitch": 67, "duration": 1176, "velocity": 100}, {"time": 81116, "pitch": 48, "duration": 1202, "velocity": 100}, {"time": 81116, "pitch": 63, "duration": 244, "velocity": 95}, {"time": 81116, "pitch": 67, "duration": 244, "velocity": 100}, {"time": 81360, "pitch": 55, "duration": 244, "velocity": 90}, {"time": 81604, "pitch": 60, "duration": 238, "velocity": 95}, {"time": 81842, "pitch": 63, "duration": 714, "velocity": 100}, {"time": 81842, "pitch": 67, "duration": 714, "velocity": 100}, {"time": 82318, "pitch": 48, "duration": 705, "velocity": 90}, {"time": 82556, "pitch": 63, "duration": 467, "velocity": 95}, {"time": 82556, "pitch": 67, "duration": 467, "velocity": 100}, {"time": 83044, "pitch": 46, "duration": 1196, "velocity": 100}, {"time": 83044, "pitch": 63, "duration": 238, "velocity": 95}, {"time": 83044, "pitch": 67, "duration": 238, "velocity": 100}, {"time": 83282, "pitch": 55, "duration": 238, "velocity": 90}, {"time": 83520, "pitch": 58, "duration": 238, "velocity": 95}, {"time": 83758, "pitch": 63, "duration": 726, "velocity": 100}, {"time": 83758, "pitch": 67, "duration": 726, "velocity": 100}, {"time": 84240, "pitch": 46, "duration": 700, "velocity": 90}, {"time": 84484, "pitch": 63, "duration": 456, "velocity": 95}, {"time": 84484, "pitch": 67, "duration": 456, "velocity": 100}, {"time": 84960, "pitch": 44, "duration": 1202, "velocity": 100}, {"time": 84960, "pitch": 63, "duration": 238, "velocity": 95}, {"time": 84960, "pitch": 67, "duration": 238, "velocity": 100}, {"time": 85198, "pitch": 56, "duration": 238, "velocity": 90}, {"time": 85436, "pitch": 60, "duration": 244, "velocity": 95}, {"time": 85680, "pitch": 63, "duration": 720, "velocity": 100}, {"time": 85680, "pitch": 67, "duration": 720, "velocity": 100}, {"time": 86162, "pitch": 44, "duration": 694, "velocity": 90}, {"time": 86400, "pitch": 63, "duration": 456, "velocity": 95}, {"time": 86400, "pitch": 67, "duration": 456, "velocity": 100}, {"time": 86876, "pitch": 43, "duration": 1202, "velocity": 100}, {"time": 86876, "pitch": 62, "duration": 244, "velocity": 95}, {"time": 86876, "pitch": 67, "duration": 244, "velocity": 100}, {"time": 87120, "pitch": 55, "duration": 244, "velocity": 90}, {"time": 87364, "pitch": 59, "duration": 238, "velocity": 95}, {"time": 87602, "pitch": 62, "duration": 714, "velocity": 100}, {"time": 87602, "pitch": 67, "duration": 714, "velocity": 100}, {"time": 88078, "pitch": 43, "duration": 705, "velocity": 90}, {"time": 88316, "pitch": 62, "duration": 467, "velocity": 95}, {"time": 88316, "pitch": 67, "duration": 467, "velocity": 100}, {"time": 88804, "pitch": 48, "duration": 1196, "velocity": 100}, {"time": 88804, "pitch": 63, "duration": 238, "velocity": 95}, {"time": 88804, "pitch": 67, "duration": 238, "velocity": 100}, {"time": 89042, "pitch": 55, "duration": 238, "velocity": 90}, {"time": 89280, "pitch": 60, "duration": 238, "velocity": 95}, {"time": 89518, "pitch": 63, "duration": 726, "velocity": 100}, {"time": 89518, "pitch": 67, "duration": 726, "velocity": 100}, {"time": 90000, "pitch": 48, "duration": 700, "velocity": 90}, {"time": 90244, "pitch": 63, "duration": 456, "velocity": 95}, {"time": 90244, "pitch": 67, "duration": 456, "velocity": 100}, {"time": 90720, "pitch": 46, "duration": 1202, "velocity": 100}, {"time": 90720, "pitch": 63, "duration": 238, "velocity": 95}, {"time": 90720, "pitch": 67, "duration": 238, "velocity": 100}, {"time": 90958, "pitch": 55, "duration": 238, "velocity": 90}, {"time": 91196, "pitch": 58, "duration": 244, "velocity": 95}, {"time": 91440, "pitch": 63, "duration": 720, "velocity": 100}, {"time": 91440, "pitch": 67, "duration": 720, "velocity": 100}, {"time": 91922, "pitch": 46, "duration": 694, "velocity": 90}, {"time": 92160, "pitch": 63, "duration": 456, "velocity": 95}, {"time": 92160, "pitch": 67, "duration": 456, "velocity": 100}, {"time": 92636, "pitch": 44, "duration": 1202, "velocity": 100}, {"time": 92636, "pitch": 63, "duration": 244, "velocity": 95}, {"time": 92636, "pitch": 67, "duration": 244, "velocity": 100}, {"time": 92880, "pitch": 56, "duration": 244, "velocity": 90}, {"time": 93124, "pitch": 60, "duration": 238, "velocity": 95}, {"time": 93362, "pitch": 63, "duration": 456, "velocity": 100}, {"time": 93362, "pitch": 67, "duration": 456, "velocity": 100}, {"time": 93838, "pitch": 43, "duration": 462, "velocity": 100}, {"time": 93838, "pitch": 58, "duration": 462, "velocity": 95}, {"time": 93838, "pitch": 62, "duration": 462, "velocity": 90}, {"time": 93838, "pitch": 65, "duration": 462, "velocity": 100}, {"time": 94320, "pitch": 48, "duration": 1663, "velocity": 100}, {"time": 94320, "pitch": 60, "duration": 462, "velocity": 95}, {"time": 94320, "pitch": 63, "duration": 462, "velocity": 90}, {"time": 94320, "pitch": 67, "duration": 462, "velocity": 100}, {"time": 94802, "pitch": 60, "duration": 218, "velocity": 100}, {"time": 95040, "pitch": 63, "duration": 218, "velocity": 95}, {"time": 95278, "pitch": 67, "duration": 218, "velocity": 90}, {"time": 95516, "pitch": 60, "duration": 467, "velocity": 95}, {"time": 95516, "pitch": 63, "duration": 467, "velocity": 90}, {"time": 95516, "pitch": 67, "duration": 467, "velocity": 100}, {"time": 96004, "pitch": 47, "duration": 456, "velocity": 100}, {"time": 96004, "pitch": 59, "duration": 456, "velocity": 95}, {"time": 96004, "pitch": 62, "duration": 456, "velocity": 90}, {"time": 96004, "pitch": 66, "duration": 456, "velocity": 100}, {"time": 96480, "pitch": 46, "duration": 943, "velocity": 100}, {"time": 96480, "pitch": 56, "duration": 99, "velocity": 95}, {"time": 96480, "pitch": 61, "duration": 99, "velocity": 90}, {"time": 96480, "pitch": 65, "duration": 99, "velocity": 100}, {"time": 96718, "pitch": 56, "duration": 99, "velocity": 95}, {"time": 96718, "pitch": 61, "duration": 99, "velocity": 90}, {"time": 96718, "pitch": 65, "duration": 99, "velocity": 100}, {"time": 97200, "pitch": 56, "duration": 101, "velocity": 90}, {"time": 97200, "pitch": 61, "duration": 101, "velocity": 85}, {"time": 97200, "pitch": 65, "duration": 101, "velocity": 95}, {"time": 97444, "pitch": 51, "duration": 932, "velocity": 100}, {"time": 97444, "pitch": 55, "duration": 99, "velocity": 95}, {"time": 97444, "pitch": 61, "duration": 99, "velocity": 90}, {"time": 97444, "pitch": 65, "duration": 99, "velocity": 100}, {"time": 97682, "pitch": 55, "duration": 99, "velocity": 95}, {"time": 97682, "pitch": 61, "duration": 99, "velocity": 90}, {"time": 97682, "pitch": 65, "duration": 99, "velocity": 100}, {"time": 98158, "pitch": 55, "duration": 99, "velocity": 90}, {"time": 98158, "pitch": 61, "duration": 99, "velocity": 85}, {"time": 98158, "pitch": 65, "duration": 99, "velocity": 95}, {"time": 98396, "pitch": 44, "duration": 1907, "velocity": 100}, {"time": 98396, "pitch": 55, "duration": 102, "velocity": 95}, {"time": 98396, "pitch": 60, "duration": 102, "velocity": 90}, {"time": 98396, "pitch": 63, "duration": 102, "velocity": 100}, {"time": 98640, "pitch": 55, "duration": 101, "velocity": 95}, {"time": 98640, "pitch": 60, "duration": 101, "velocity": 90}, {"time": 98640, "pitch": 63, "duration": 101, "velocity": 100}, {"time": 99122, "pitch": 55, "duration": 99, "velocity": 90}, {"time": 99122, "pitch": 60, "duration": 99, "velocity": 85}, {"time": 99122, "pitch": 63, "duration": 99, "velocity": 95}, {"time": 99360, "pitch": 55, "duration": 99, "velocity": 95}, {"time": 99360, "pitch": 60, "duration": 99, "velocity": 90}, {"time": 99360, "pitch": 63, "duration": 99, "velocity": 100}, {"time": 99598, "pitch": 55, "duration": 99, "velocity": 95}, {"time": 99598, "pitch": 60, "duration": 99, "velocity": 90}, {"time": 99598, "pitch": 63, "duration": 99, "velocity": 100}, {"time": 100080, "pitch": 55, "duration": 101, "velocity": 90}, {"time": 100080, "pitch": 60, "duration": 101, "velocity": 85}, {"time": 100080, "pitch": 63, "duration": 101, "velocity": 95}, {"time": 100324, "pitch": 46, "duration": 932, "velocity": 100}, {"time": 100324, "pitch": 56, "duration": 99, "velocity": 95}, {"time": 100324, "pitch": 61, "duration": 99, "velocity": 90}, {"time": 100324, "pitch": 65, "duration": 99, "velocity": 100}, {"time": 100562, "pitch": 56, "duration": 99, "velocity": 95}, {"time": 100562, "pitch": 61, "duration": 99, "velocity": 90}, {"time": 100562, "pitch": 65, "duration": 99, "velocity": 100}, {"time": 101038, "pitch": 56, "duration": 99, "velocity": 90}, {"time": 101038, "pitch": 61, "duration": 99, "velocity": 85}, {"time": 101038, "pitch": 65, "duration": 99, "velocity": 95}, {"time": 101276, "pitch": 51, "duration": 944, "velocity": 100}, {"time": 101276, "pitch": 55, "duration": 102, "velocity": 95}, {"time": 101276, "pitch": 61, "duration": 102, "velocity": 90}, {"time": 101276, "pitch": 65, "duration": 102, "velocity": 100}, {"time": 101520, "pitch": 55, "duration": 101, "velocity": 95}, {"time": 101520, "pitch": 61, "duration": 101, "velocity": 90}, {"time": 101520, "pitch": 65, "duration": 101, "velocity": 100}, {"time": 102002, "pitch": 55, "duration": 99, "velocity": 90}, {"time": 102002, "pitch": 61, "duration": 99, "velocity": 85}, {"time": 102002, "pitch": 65, "duration": 99, "velocity": 95}, {"time": 102240, "pitch": 44, "duration": 1896, "velocity": 100}, {"time": 102240, "pitch": 55, "duration": 99, "velocity": 95}, {"time": 102240, "pitch": 60, "duration": 99, "velocity": 90}, {"time": 102240, "pitch": 63, "duration": 99, "velocity": 100}, {"time": 102478, "pitch": 55, "duration": 99, "velocity": 95}, {"time": 102478, "pitch": 60, "duration": 99, "velocity": 90}, {"time": 102478, "pitch": 63, "duration": 99, "velocity": 100}, {"time": 102960, "pitch": 55, "duration": 101, "velocity": 90}, {"time": 102960, "pitch": 60, "duration": 101, "velocity": 85}, {"time": 102960, "pitch": 63, "duration": 101, "velocity": 95}, {"time": 103204, "pitch": 55, "duration": 99, "velocity": 95}, {"time": 103204, "pitch": 60, "duration": 99, "velocity": 90}, {"time": 103204, "pitch": 63, "duration": 99, "velocity": 100}, {"time": 103442, "pitch": 55, "duration": 99, "velocity": 95}, {"time": 103442, "pitch": 60, "duration": 99, "velocity": 90}, {"time": 103442, "pitch": 63, "duration": 99, "velocity": 100}, {"time": 103918, "pitch": 55, "duration": 99, "velocity": 90}, {"time": 103918, "pitch": 60, "duration": 99, "velocity": 85}, {"time": 103918, "pitch": 63, "duration": 99, "velocity": 95}, {"time": 104156, "pitch": 41, "duration": 944, "velocity": 100}, {"time": 104156, "pitch": 67, "duration": 244, "velocity": 100}, {"time": 104400, "pitch": 56, "duration": 244, "velocity": 95}, {"time": 104644, "pitch": 60, "duration": 238, "velocity": 90}, {"time": 104882, "pitch": 67, "duration": 238, "velocity": 100}, {"time": 105120, "pitch": 46, "duration": 943, "velocity": 100}, {"time": 105120, "pitch": 65, "duration": 238, "velocity": 100}, {"time": 105358, "pitch": 56, "duration": 238, "velocity": 95}, {"time": 105596, "pitch": 58, "duration": 244, "velocity": 90}, {"time": 105840, "pitch": 62, "duration": 244, "velocity": 100}, {"time": 106084, "pitch": 39, "duration": 932, "velocity": 100}, {"time": 106084, "pitch": 65, "duration": 238, "velocity": 100}, {"time": 106322, "pitch": 55, "duration": 238, "velocity": 95}, {"time": 106560, "pitch": 58, "duration": 238, "velocity": 90}, {"time": 106798, "pitch": 65, "duration": 238, "velocity": 100}, {"time": 107036, "pitch": 44, "duration": 944, "velocity": 100}, {"time": 107036, "pitch": 63, "duration": 244, "velocity": 100}, {"time": 107280, "pitch": 55, "duration": 244, "velocity": 95}, {"time": 107524, "pitch": 60, "duration": 238, "velocity": 90}, {"time": 107762, "pitch": 63, "duration": 238, "velocity": 100}, {"time": 108000, "pitch": 50, "duration": 1896, "velocity": 100}, {"time": 108000, "pitch": 65, "duration": 238, "velocity": 100}, {"time": 108238, "pitch": 56, "duration": 238, "velocity": 95}, {"time": 108476, "pitch": 62, "duration": 244, "velocity": 90}, {"time": 108720, "pitch": 63, "duration": 244, "velocity": 100}, {"time": 108964, "pitch": 65, "duration": 238, "velocity": 100}, {"time": 109202, "pitch": 56, "duration": 238, "velocity": 95}, {"time": 109440, "pitch": 62, "duration": 238, "velocity": 90}, {"time": 109678, "pitch": 65, "duration": 238, "velocity": 100}, {"time": 109916, "pitch": 43, "duration": 706, "velocity": 100}, {"time": 109916, "pitch": 60, "duration": 706, "velocity": 90}, {"time": 109916, "pitch": 62, "duration": 706, "velocity": 95}, {"time": 109916, "pitch": 67, "duration": 706, "velocity": 100}, {"time": 110642, "pitch": 43, "duration": 158, "velocity": 100}, {"time": 110642, "pitch": 60, "duration": 158, "velocity": 90}, {"time": 110642, "pitch": 62, "duration": 158, "velocity": 95}, {"time": 110642, "pitch": 67, "duration": 158, "velocity": 100}, {"time": 110880, "pitch": 43, "duration": 699, "velocity": 100}, {"time": 110880, "pitch": 60, "duration": 699, "velocity": 90}, {"time": 110880, "pitch": 62, "duration": 699, "velocity": 95}, {"time": 110880, "pitch": 67, "duration": 699, "velocity": 100}, {"time": 111600, "pitch": 37, "duration": 162, "velocity": 100}, {"time": 111600, "pitch": 56, "duration": 162, "velocity": 90}, {"time": 111600, "pitch": 59, "duration": 162, "velocity": 90}, {"time": 111600, "pitch": 61, "duration": 162, "velocity": 95}, {"time": 111600, "pitch": 67, "duration": 162, "velocity": 100}, {"time": 112082, "pitch": 37, "duration": 158, "velocity": 100}, {"time": 112082, "pitch": 56, "duration": 158, "velocity": 90}, {"time": 112082, "pitch": 59, "duration": 158, "velocity": 90}, {"time": 112082, "pitch": 61, "duration": 158, "velocity": 95}, {"time": 112082, "pitch": 67, "duration": 158, "velocity": 100}, {"time": 112558, "pitch": 37, "duration": 159, "velocity": 100}, {"time": 112558, "pitch": 56, "duration": 159, "velocity": 90}, {"time": 112558, "pitch": 59, "duration": 159, "velocity": 90}, {"time": 112558, "pitch": 61, "duration": 159, "velocity": 95}, {"time": 112558, "pitch": 67, "duration": 159, "velocity": 100}, {"time": 112796, "pitch": 37, "duration": 944, "velocity": 100}, {"time": 112796, "pitch": 56, "duration": 944, "velocity": 90}, {"time": 112796, "pitch": 59, "duration": 944, "velocity": 90}, {"time": 112796, "pitch": 61, "duration": 944, "velocity": 95}, {"time": 112796, "pitch": 67, "duration": 944, "velocity": 100}, {"time": 113760, "pitch": 60, "duration": 238, "velocity": 90}, {"time": 113760, "pitch": 72, "duration": 238, "velocity": 100}, {"time": 113998, "pitch": 51, "duration": 238, "velocity": 85}, {"time": 113998, "pitch": 63, "duration": 238, "velocity": 95}, {"time": 114236, "pitch": 55, "duration": 244, "velocity": 90}, {"time": 114236, "pitch": 67, "duration": 244, "velocity": 100}, {"time": 114480, "pitch": 60, "duration": 244, "velocity": 85}, {"time": 114480, "pitch": 72, "duration": 244, "velocity": 95}, {"time": 114724, "pitch": 59, "duration": 238, "velocity": 90}, {"time": 114724, "pitch": 71, "duration": 238, "velocity": 100}, {"time": 114962, "pitch": 51, "duration": 238, "velocity": 85}, {"time": 114962, "pitch": 63, "duration": 238, "velocity": 95}, {"time": 115200, "pitch": 55, "duration": 238, "velocity": 90}, {"time": 115200, "pitch": 67, "duration": 238, "velocity": 100}, {"time": 115438, "pitch": 58, "duration": 238, "velocity": 85}, {"time": 115438, "pitch": 70, "duration": 238, "velocity": 95}, {"time": 115676, "pitch": 57, "duration": 244, "velocity": 90}, {"time": 115676, "pitch": 69, "duration": 244, "velocity": 100}, {"time": 115920, "pitch": 48, "duration": 244, "velocity": 85}, {"time": 115920, "pitch": 60, "duration": 244, "velocity": 95}, {"time": 116164, "pitch": 51, "duration": 238, "velocity": 90}, {"time": 116164, "pitch": 63, "duration": 238, "velocity": 100}, {"time": 116402, "pitch": 56, "duration": 238, "velocity": 85}, {"time": 116402, "pitch": 68, "duration": 238, "velocity": 95}, {"time": 116640, "pitch": 55, "duration": 238, "velocity": 90}, {"time": 116640, "pitch": 67, "duration": 238, "velocity": 100}, {"time": 116878, "pitch": 48, "duration": 238, "velocity": 85}, {"time": 116878, "pitch": 60, "duration": 238, "velocity": 95}, {"time": 117116, "pitch": 51, "duration": 244, "velocity": 90}, {"time": 117116, "pitch": 63, "duration": 244, "velocity": 100}, {"time": 117360, "pitch": 55, "duration": 244, "velocity": 85}, {"time": 117360, "pitch": 67, "duration": 244, "velocity": 95}, {"time": 117604, "pitch": 56, "duration": 238, "velocity": 90}, {"time": 117604, "pitch": 68, "duration": 238, "velocity": 100}, {"time": 117842, "pitch": 49, "duration": 238, "velocity": 85}, {"time": 117842, "pitch": 61, "duration": 238, "velocity": 95}, {"time": 118080, "pitch": 53, "duration": 238, "velocity": 90}, {"time": 118080, "pitch": 65, "duration": 238, "velocity": 100}, {"time": 118318, "pitch": 56, "duration": 238, "velocity": 85}, {"time": 118318, "pitch": 68, "duration": 238, "velocity": 95}, {"time": 118556, "pitch": 55, "duration": 244, "velocity": 90}, {"time": 118556, "pitch": 67, "duration": 244, "velocity": 100}, {"time": 118800, "pitch": 48, "duration": 244, "velocity": 85}, {"time": 118800, "pitch": 60, "duration": 244, "velocity": 95}, {"time": 119044, "pitch": 51, "duration": 238, "velocity": 90}, {"time": 119044, "pitch": 63, "duration": 238, "velocity": 100}, {"time": 119282, "pitch": 55, "duration": 238, "velocity": 85}, {"time": 119282, "pitch": 67, "duration": 238, "velocity": 95}, {"time": 119520, "pitch": 54, "duration": 238, "velocity": 90}, {"time": 119520, "pitch": 66, "duration": 238, "velocity": 100}, {"time": 119758, "pitch": 45, "duration": 238, "velocity": 85}, {"time": 119758, "pitch": 57, "duration": 238, "velocity": 95}, {"time": 119996, "pitch": 50, "duration": 244, "velocity": 90}, {"time": 119996, "pitch": 62, "duration": 244, "velocity": 100}, {"time": 120240, "pitch": 54, "duration": 244, "velocity": 85}, {"time": 120240, "pitch": 66, "duration": 244, "velocity": 95}, {"time": 120484, "pitch": 43, "duration": 932, "velocity": 90}, {"time": 120484, "pitch": 67, "duration": 932, "velocity": 100}, {"time": 121436, "pitch": 60, "duration": 244, "velocity": 90}, {"time": 121436, "pitch": 72, "duration": 244, "velocity": 100}, {"time": 121680, "pitch": 51, "duration": 244, "velocity": 85}, {"time": 121680, "pitch": 63, "duration": 244, "velocity": 95}, {"time": 121924, "pitch": 55, "duration": 238, "velocity": 90}, {"time": 121924, "pitch": 67, "duration": 238, "velocity": 100}, {"time": 122162, "pitch": 60, "duration": 238, "velocity": 85}, {"time": 122162, "pitch": 72, "duration": 238, "velocity": 95}, {"time": 122400, "pitch": 59, "duration": 238, "velocity": 90}, {"time": 122400, "pitch": 71, "duration": 238, "velocity": 100}, {"time": 122638, "pitch": 51, "duration": 238, "velocity": 85}, {"time": 122638, "pitch": 63, "duration": 238, "velocity": 95}, {"time": 122876, "pitch": 55, "duration": 244, "velocity": 90}, {"time": 122876, "pitch": 67, "duration": 244, "velocity": 100}, {"time": 123120, "pitch": 58, "duration": 244, "velocity": 85}, {"time": 123120, "pitch": 70, "duration": 244, "velocity": 95}, {"time": 123364, "pitch": 57, "duration": 238, "velocity": 90}, {"time": 123364, "pitch": 69, "duration": 238, "velocity": 100}, {"time": 123602, "pitch": 48, "duration": 238, "velocity": 85}, {"time": 123602, "pitch": 60, "duration": 238, "velocity": 95}, {"time": 123840, "pitch": 51, "duration": 238, "velocity": 90}, {"time": 123840, "pitch": 63, "duration": 238, "velocity": 100}, {"time": 124078, "pitch": 56, "duration": 238, "velocity": 85}, {"time": 124078, "pitch": 68, "duration": 238, "velocity": 95}, {"time": 124316, "pitch": 55, "duration": 244, "velocity": 90}, {"time": 124316, "pitch": 67, "duration": 244, "velocity": 100}, {"time": 124560, "pitch": 48, "duration": 244, "velocity": 85}, {"time": 124560, "pitch": 60, "duration": 244, "velocity": 95}, {"time": 124804, "pitch": 51, "duration": 238, "velocity": 90}, {"time": 124804, "pitch": 63, "duration": 238, "velocity": 100}, {"time": 125042, "pitch": 55, "duration": 238, "velocity": 85}, {"time": 125042, "pitch": 67, "duration": 238, "velocity": 95}, {"time": 125280, "pitch": 56, "duration": 238, "velocity": 90}, {"time": 125280, "pitch": 68, "duration": 238, "velocity": 100}, {"time": 125518, "pitch": 48, "duration": 238, "velocity": 85}, {"time": 125518, "pitch": 60, "duration": 238, "velocity": 95}, {"time": 125756, "pitch": 49, "duration": 244, "velocity": 90}, {"time": 125756, "pitch": 61, "duration": 244, "velocity": 100}, {"time": 126000, "pitch": 51, "duration": 244, "velocity": 85}, {"time": 126000, "pitch": 63, "duration": 244, "velocity": 95}, {"time": 126244, "pitch": 53, "duration": 238, "velocity": 90}, {"time": 126244, "pitch": 65, "duration": 238, "velocity": 100}, {"time": 126482, "pitch": 55, "duration": 238, "velocity": 85}, {"time": 126482, "pitch": 67, "duration": 238, "velocity": 95}, {"time": 126720, "pitch": 56, "duration": 238, "velocity": 90}, {"time": 126720, "pitch": 68, "duration": 238, "velocity": 100}, {"time": 126958, "pitch": 58, "duration": 238, "velocity": 85}, {"time": 126958, "pitch": 70, "duration": 238, "velocity": 95}, {"time": 127196, "pitch": 60, "duration": 244, "velocity": 90}, {"time": 127196, "pitch": 72, "duration": 244, "velocity": 100}, {"time": 127440, "pitch": 55, "duration": 244, "velocity": 85}, {"time": 127440, "pitch": 67, "duration": 244, "velocity": 95}, {"time": 127684, "pitch": 56, "duration": 238, "velocity": 90}, {"time": 127684, "pitch": 68, "duration": 238, "velocity": 100}, {"time": 127922, "pitch": 58, "duration": 238, "velocity": 85}, {"time": 127922, "pitch": 70, "duration": 238, "velocity": 95}, {"time": 128160, "pitch": 60, "duration": 238, "velocity": 90}, {"time": 128160, "pitch": 72, "duration": 238, "velocity": 100}, {"time": 128398, "pitch": 61, "duration": 238, "velocity": 85}, {"time": 128398, "pitch": 73, "duration": 238, "velocity": 95}, {"time": 128636, "pitch": 63, "duration": 244, "velocity": 90}, {"time": 128636, "pitch": 75, "duration": 244, "velocity": 100}, {"time": 128880, "pitch": 65, "duration": 244, "velocity": 85}, {"time": 128880, "pitch": 77, "duration": 244, "velocity": 95}, {"time": 129124, "pitch": 67, "duration": 238, "velocity": 100}, {"time": 129124, "pitch": 79, "duration": 238, "velocity": 110}, {"time": 129600, "pitch": 55, "duration": 476, "velocity": 100}, {"time": 129600, "pitch": 67, "duration": 476, "velocity": 110}, {"time": 130076, "pitch": 54, "duration": 488, "velocity": 100}, {"time": 130076, "pitch": 66, "duration": 488, "velocity": 110}, {"time": 130564, "pitch": 53, "duration": 476, "velocity": 100}, {"time": 130564, "pitch": 65, "duration": 476, "velocity": 110}, {"time": 131040, "pitch": 60, "duration": 238, "velocity": 90}, {"time": 131040, "pitch": 72, "duration": 238, "velocity": 100}, {"time": 131278, "pitch": 51, "duration": 238, "velocity": 85}, {"time": 131278, "pitch": 63, "duration": 238, "velocity": 95}, {"time": 131516, "pitch": 55, "duration": 244, "velocity": 90}, {"time": 131516, "pitch": 67, "duration": 244, "velocity": 100}, {"time": 131760, "pitch": 60, "duration": 244, "velocity": 85}, {"time": 131760, "pitch": 72, "duration": 244, "velocity": 95}, {"time": 132004, "pitch": 59, "duration": 238, "velocity": 90}, {"time": 132004, "pitch": 71, "duration": 238, "velocity": 100}, {"time": 132242, "pitch": 51, "duration": 238, "velocity": 85}, {"time": 132242, "pitch": 63, "duration": 238, "velocity": 95}, {"time": 132480, "pitch": 55, "duration": 238, "velocity": 90}, {"time": 132480, "pitch": 67, "duration": 238, "velocity": 100}, {"time": 132718, "pitch": 58, "duration": 238, "velocity": 85}, {"time": 132718, "pitch": 70, "duration": 238, "velocity": 95}, {"time": 132956, "pitch": 57, "duration": 244, "velocity": 90}, {"time": 132956, "pitch": 69, "duration": 244, "velocity": 100}, {"time": 133200, "pitch": 48, "duration": 244, "velocity": 85}, {"time": 133200, "pitch": 60, "duration": 244, "velocity": 95}, {"time": 133444, "pitch": 51, "duration": 238, "velocity": 90}, {"time": 133444, "pitch": 63, "duration": 238, "velocity": 100}, {"time": 133682, "pitch": 56, "duration": 238, "velocity": 85}, {"time": 133682, "pitch": 68, "duration": 238, "velocity": 95}, {"time": 133920, "pitch": 55, "duration": 238, "velocity": 90}, {"time": 133920, "pitch": 67, "duration": 238, "velocity": 100}, {"time": 134158, "pitch": 48, "duration": 238, "velocity": 85}, {"time": 134158, "pitch": 60, "duration": 238, "velocity": 95}, {"time": 134396, "pitch": 51, "duration": 244, "velocity": 90}, {"time": 134396, "pitch": 63, "duration": 244, "velocity": 100}, {"time": 134640, "pitch": 55, "duration": 244, "velocity": 85}, {"time": 134640, "pitch": 67, "duration": 244, "velocity": 95}, {"time": 134884, "pitch": 56, "duration": 238, "velocity": 90}, {"time": 134884, "pitch": 68, "duration": 238, "velocity": 100}, {"time": 135122, "pitch": 49, "duration": 238, "velocity": 85}, {"time": 135122, "pitch": 61, "duration": 238, "velocity": 95}, {"time": 135360, "pitch": 53, "duration": 238, "velocity": 90}, {"time": 135360, "pitch": 65, "duration": 238, "velocity": 100}, {"time": 135598, "pitch": 56, "duration": 238, "velocity": 85}, {"time": 135598, "pitch": 68, "duration": 238, "velocity": 95}, {"time": 135836, "pitch": 55, "duration": 244, "velocity": 90}, {"time": 135836, "pitch": 67, "duration": 244, "velocity": 100}, {"time": 136080, "pitch": 48, "duration": 244, "velocity": 85}, {"time": 136080, "pitch": 60, "duration": 244, "velocity": 95}, {"time": 136324, "pitch": 51, "duration": 238, "velocity": 90}, {"time": 136324, "pitch": 63, "duration": 238, "velocity": 100}, {"time": 136562, "pitch": 55, "duration": 238, "velocity": 85}, {"time": 136562, "pitch": 67, "duration": 238, "velocity": 95}, {"time": 136800, "pitch": 54, "duration": 238, "velocity": 90}, {"time": 136800, "pitch": 66, "duration": 238, "velocity": 100}, {"time": 137038, "pitch": 45, "duration": 238, "velocity": 85}, {"time": 137038, "pitch": 57, "duration": 238, "velocity": 95}, {"time": 137276, "pitch": 50, "duration": 244, "velocity": 90}, {"time": 137276, "pitch": 62, "duration": 244, "velocity": 100}, {"time": 137520, "pitch": 54, "duration": 244, "velocity": 85}, {"time": 137520, "pitch": 66, "duration": 244, "velocity": 95}, {"time": 137764, "pitch": 43, "duration": 932, "velocity": 90}, {"time": 137764, "pitch": 67, "duration": 932, "velocity": 100}, {"time": 138716, "pitch": 60, "duration": 244, "velocity": 90}, {"time": 138716, "pitch": 72, "duration": 244, "velocity": 100}, {"time": 138960, "pitch": 51, "duration": 244, "velocity": 85}, {"time": 138960, "pitch": 63, "duration": 244, "velocity": 95}, {"time": 139204, "pitch": 55, "duration": 238, "velocity": 90}, {"time": 139204, "pitch": 67, "duration": 238, "velocity": 100}, {"time": 139442, "pitch": 60, "duration": 238, "velocity": 85}, {"time": 139442, "pitch": 72, "duration": 238, "velocity": 95}, {"time": 139680, "pitch": 59, "duration": 238, "velocity": 90}, {"time": 139680, "pitch": 71, "duration": 238, "velocity": 100}, {"time": 139918, "pitch": 51, "duration": 238, "velocity": 85}, {"time": 139918, "pitch": 63, "duration": 238, "velocity": 95}, {"time": 140156, "pitch": 55, "duration": 244, "velocity": 90}, {"time": 140156, "pitch": 67, "duration": 244, "velocity": 100}, {"time": 140400, "pitch": 58, "duration": 244, "velocity": 85}, {"time": 140400, "pitch": 70, "duration": 244, "velocity": 95}, {"time": 140644, "pitch": 57, "duration": 238, "velocity": 90}, {"time": 140644, "pitch": 69, "duration": 238, "velocity": 100}, {"time": 140882, "pitch": 48, "duration": 238, "velocity": 85}, {"time": 140882, "pitch": 60, "duration": 238, "velocity": 95}, {"time": 141120, "pitch": 51, "duration": 238, "velocity": 90}, {"time": 141120, "pitch": 63, "duration": 238, "velocity": 100}, {"time": 141358, "pitch": 56, "duration": 238, "velocity": 85}, {"time": 141358, "pitch": 68, "duration": 238, "velocity": 95}, {"time": 141596, "pitch": 55, "duration": 244, "velocity": 90}, {"time": 141596, "pitch": 67, "duration": 244, "velocity": 100}, {"time": 141840, "pitch": 48, "duration": 244, "velocity": 85}, {"time": 141840, "pitch": 60, "duration": 244, "velocity": 95}, {"time": 142084, "pitch": 51, "duration": 238, "velocity": 90}, {"time": 142084, "pitch": 63, "duration": 238, "velocity": 100}, {"time": 142322, "pitch": 55, "duration": 238, "velocity": 85}, {"time": 142322, "pitch": 67, "duration": 238, "velocity": 95}, {"time": 142560, "pitch": 56, "duration": 238, "velocity": 90}, {"time": 142560, "pitch": 68, "duration": 238, "velocity": 100}, {"time": 142798, "pitch": 48, "duration": 238, "velocity": 85}, {"time": 142798, "pitch": 60, "duration": 238, "velocity": 95}, {"time": 143036, "pitch": 49, "duration": 244, "velocity": 90}, {"time": 143036, "pitch": 61, "duration": 244, "velocity": 100}, {"time": 143280, "pitch": 51, "duration": 244, "velocity": 85}, {"time": 143280, "pitch": 63, "duration": 244, "velocity": 95}, {"time": 143524, "pitch": 53, "duration": 238, "velocity": 90}, {"time": 143524, "pitch": 65, "duration": 238, "velocity": 100}, {"time": 143762, "pitch": 55, "duration": 238, "velocity": 85}, {"time": 143762, "pitch": 67, "duration": 238, "velocity": 95}, {"time": 144000, "pitch": 56, "duration": 238, "velocity": 90}, {"time": 144000, "pitch": 68, "duration": 238, "velocity": 100}, {"time": 144238, "pitch": 58, "duration": 238, "velocity": 85}, {"time": 144238, "pitch": 70, "duration": 238, "velocity": 95}, {"time": 144476, "pitch": 60, "duration": 244, "velocity": 90}, {"time": 144476, "pitch": 72, "duration": 244, "velocity": 100}, {"time": 144720, "pitch": 55, "duration": 244, "velocity": 85}, {"time": 144720, "pitch": 67, "duration": 244, "velocity": 95}, {"time": 144964, "pitch": 56, "duration": 238, "velocity": 90}, {"time": 144964, "pitch": 68, "duration": 238, "velocity": 100}, {"time": 145202, "pitch": 58, "duration": 238, "velocity": 85}, {"time": 145202, "pitch": 70, "duration": 238, "velocity": 95}, {"time": 145440, "pitch": 60, "duration": 238, "velocity": 90}, {"time": 145440, "pitch": 72, "duration": 238, "velocity": 100}, {"time": 145678, "pitch": 61, "duration": 238, "velocity": 85}, {"time": 145678, "pitch": 73, "duration": 238, "velocity": 95}, {"time": 145916, "pitch": 63, "duration": 244, "velocity": 90}, {"time": 145916, "pitch": 75, "duration": 244, "velocity": 100}, {"time": 146160, "pitch": 65, "duration": 244, "velocity": 85}, {"time": 146160, "pitch": 77, "duration": 244, "velocity": 95}, {"time": 146404, "pitch": 67, "duration": 238, "velocity": 100}, {"time": 146404, "pitch": 79, "duration": 238, "velocity": 110}, {"time": 146880, "pitch": 55, "duration": 476, "velocity": 100}, {"time": 146880, "pitch": 67, "duration": 476, "velocity": 110}, {"time": 147356, "pitch": 54, "duration": 488, "velocity": 100}, {"time": 147356, "pitch": 66, "duration": 488, "velocity": 110}, {"time": 147844, "pitch": 53, "duration": 476, "velocity": 100}, {"time": 147844, "pitch": 65, "duration": 476, "velocity": 110}, {"time": 148320, "pitch": 48, "duration": 1202, "velocity": 100}, {"time": 148320, "pitch": 63, "duration": 238, "velocity": 95}, {"time": 148320, "pitch": 67, "duration": 238, "velocity": 100}, {"time": 148558, "pitch": 55, "duration": 238, "velocity": 90}, {"time": 148796, "pitch": 60, "duration": 244, "velocity": 95}, {"time": 149040, "pitch": 63, "duration": 720, "velocity": 100}, {"time": 149040, "pitch": 67, "duration": 720, "velocity": 100}, {"time": 149522, "pitch": 48, "duration": 694, "velocity": 90}, {"time": 149760, "pitch": 63, "duration": 456, "velocity": 95}, {"time": 149760, "pitch": 67, "duration": 456, "velocity": 100}, {"time": 150236, "pitch": 46, "duration": 1202, "velocity": 100}, {"time": 150236, "pitch": 63, "duration": 244, "velocity": 95}, {"time": 150236, "pitch": 67, "duration": 244, "velocity": 100}, {"time": 150480, "pitch": 55, "duration": 244, "velocity": 90}, {"time": 150724, "pitch": 58, "duration": 238, "velocity": 95}, {"time": 150962, "pitch": 63, "duration": 714, "velocity": 100}, {"time": 150962, "pitch": 67, "duration": 714, "velocity": 100}, {"time": 151438, "pitch": 46, "duration": 705, "velocity": 90}, {"time": 151676, "pitch": 63, "duration": 467, "velocity": 95}, {"time": 151676, "pitch": 67, "duration": 467, "velocity": 100}, {"time": 152164, "pitch": 44, "duration": 1196, "velocity": 100}, {"time": 152164, "pitch": 63, "duration": 238, "velocity": 95}, {"time": 152164, "pitch": 67, "duration": 238, "velocity": 100}, {"time": 152402, "pitch": 56, "duration": 238, "velocity": 90}, {"time": 152640, "pitch": 60, "duration": 238, "velocity": 95}, {"time": 152878, "pitch": 63, "duration": 726, "velocity": 100}, {"time": 152878, "pitch": 67, "duration": 726, "velocity": 100}, {"time": 153360, "pitch": 44, "duration": 700, "velocity": 90}, {"time": 153604, "pitch": 63, "duration": 456, "velocity": 95}, {"time": 153604, "pitch": 67, "duration": 456, "velocity": 100}, {"time": 154080, "pitch": 37, "duration": 119, "velocity": 110}, {"time": 154080, "pitch": 56, "duration": 119, "velocity": 100}, {"time": 154080, "pitch": 59, "duration": 119, "velocity": 100}, {"time": 154080, "pitch": 61, "duration": 119, "velocity": 105}, {"time": 154080, "pitch": 67, "duration": 119, "velocity": 110}, {"time": 154318, "pitch": 37, "duration": 119, "velocity": 110}, {"time": 154318, "pitch": 56, "duration": 119, "velocity": 100}, {"time": 154318, "pitch": 59, "duration": 119, "velocity": 100}, {"time": 154318, "pitch": 61, "duration": 119, "velocity": 105}, {"time": 154318, "pitch": 67, "duration": 119, "velocity": 110}, {"time": 154800, "pitch": 37, "duration": 122, "velocity": 110}, {"time": 154800, "pitch": 56, "duration": 122, "velocity": 100}, {"time": 154800, "pitch": 59, "duration": 122, "velocity": 100}, {"time": 154800, "pitch": 61, "duration": 122, "velocity": 105}, {"time": 154800, "pitch": 67, "duration": 122, "velocity": 110}, {"time": 155288, "pitch": 37, "duration": 122, "velocity": 110}, {"time": 155288, "pitch": 56, "duration": 122, "velocity": 100}, {"time": 155288, "pitch": 59, "duration": 122, "velocity": 100}, {"time": 155288, "pitch": 61, "duration": 122, "velocity": 105}, {"time": 155288, "pitch": 67, "duration": 122, "velocity": 110}, {"time": 155532, "pitch": 37, "duration": 125, "velocity": 110}, {"time": 155532, "pitch": 56, "duration": 125, "velocity": 100}, {"time": 155532, "pitch": 59, "duration": 125, "velocity": 100}, {"time": 155532, "pitch": 61, "duration": 125, "velocity": 105}, {"time": 155532, "pitch": 67, "duration": 125, "velocity": 110}, {"time": 156032, "pitch": 36, "duration": 125, "velocity": 110}, {"time": 156032, "pitch": 48, "duration": 125, "velocity": 100}, {"time": 156032, "pitch": 63, "duration": 125, "velocity": 100}, {"time": 156032, "pitch": 67, "duration": 125, "velocity": 105}, {"time": 156032, "pitch": 72, "duration": 125, "velocity": 110}, {"time": 479, "pitch": 48, "duration": 1199, "velocity": 100}, {"time": 1678, "pitch": 48, "duration": 726, "velocity": 100}, {"time": 2404, "pitch": 46, "duration": 1440, "velocity": 100}, {"time": 3844, "pitch": 46, "duration": 476, "velocity": 90}, {"time": 4320, "pitch": 44, "duration": 1202, "velocity": 100}, {"time": 5522, "pitch": 44, "duration": 714, "velocity": 100}, {"time": 6236, "pitch": 43, "duration": 1202, "velocity": 100}, {"time": 7438, "pitch": 47, "duration": 726, "velocity": 100}, {"time": 8164, "pitch": 48, "duration": 1196, "velocity": 100}, {"time": 9360, "pitch": 48, "duration": 720, "velocity": 100}, {"time": 10080, "pitch": 55, "duration": 1440, "velocity": 100}, {"time": 11520, "pitch": 60, "duration": 476, "velocity": 90}, {"time": 11996, "pitch": 58, "duration": 488, "velocity": 90}, {"time": 12484, "pitch": 56, "duration": 952, "velocity": 95}, {"time": 13436, "pitch": 53, "duration": 488, "velocity": 100}, {"time": 13924, "pitch": 55, "duration": 119, "velocity": 110}, {"time": 14162, "pitch": 55, "duration": 119, "velocity": 105}, {"time": 14638, "pitch": 49, "duration": 1202, "velocity": 100}, {"time": 15840, "pitch": 48, "duration": 119, "velocity": 100}, {"time": 16078, "pitch": 48, "duration": 119, "velocity": 95}, {"time": 16560, "pitch": 48, "duration": 1196, "velocity": 90}, {"time": 17756, "pitch": 46, "duration": 122, "velocity": 100}, {"time": 18000, "pitch": 46, "duration": 122, "velocity": 95}, {"time": 18482, "pitch": 46, "duration": 1202, "velocity": 90}, {"time": 19684, "pitch": 44, "duration": 119, "velocity": 100}, {"time": 19922, "pitch": 44, "duration": 119, "velocity": 95}, {"time": 20398, "pitch": 44, "duration": 1202, "velocity": 90}, {"time": 21600, "pitch": 43, "duration": 119, "velocity": 100}, {"time": 21838, "pitch": 43, "duration": 119, "velocity": 95}, {"time": 22320, "pitch": 43, "duration": 720, "velocity": 90}, {"time": 23040, "pitch": 45, "duration": 238, "velocity": 90}, {"time": 23278, "pitch": 47, "duration": 238, "velocity": 85}, {"time": 23516, "pitch": 48, "duration": 122, "velocity": 100}, {"time": 23760, "pitch": 48, "duration": 122, "velocity": 95}, {"time": 24242, "pitch": 48, "duration": 1202, "velocity": 90}, {"time": 25444, "pitch": 46, "duration": 119, "velocity": 100}, {"time": 25682, "pitch": 46, "duration": 119, "velocity": 95}, {"time": 26158, "pitch": 46, "duration": 1202, "velocity": 90}, {"time": 27360, "pitch": 44, "duration": 119, "velocity": 100}, {"time": 27598, "pitch": 44, "duration": 119, "velocity": 95}, {"time": 28080, "pitch": 43, "duration": 720, "velocity": 90}, {"time": 28800, "pitch": 46, "duration": 238, "velocity": 90}, {"time": 29038, "pitch": 47, "duration": 238, "velocity": 85}, {"time": 29276, "pitch": 48, "duration": 122, "velocity": 100}, {"time": 29520, "pitch": 48, "duration": 122, "velocity": 95}, {"time": 30002, "pitch": 48, "duration": 714, "velocity": 90}, {"time": 31204, "pitch": 56, "duration": 952, "velocity": 90}, {"time": 32156, "pitch": 55, "duration": 964, "velocity": 85}, {"time": 33120, "pitch": 58, "duration": 964, "velocity": 90}, {"time": 34084, "pitch": 56, "duration": 952, "velocity": 85}, {"time": 35036, "pitch": 60, "duration": 964, "velocity": 90}, {"time": 36000, "pitch": 58, "duration": 964, "velocity": 85}, {"time": 36964, "pitch": 58, "duration": 952, "velocity": 90}, {"time": 37916, "pitch": 56, "duration": 964, "velocity": 85}, {"time": 38880, "pitch": 63, "duration": 964, "velocity": 90}, {"time": 39844, "pitch": 62, "duration": 952, "velocity": 85}, {"time": 40796, "pitch": 62, "duration": 964, "velocity": 90}, {"time": 41760, "pitch": 60, "duration": 964, "velocity": 85}, {"time": 42724, "pitch": 60, "duration": 1196, "velocity": 90}, {"time": 43920, "pitch": 60, "duration": 720, "velocity": 90}, {"time": 44640, "pitch": 62, "duration": 720, "velocity": 90}, {"time": 45360, "pitch": 62, "duration": 163, "velocity": 85}, {"time": 45604, "pitch": 62, "duration": 476, "velocity": 90}, {"time": 47520, "pitch": 37, "duration": 964, "velocity": 110}, {"time": 48484, "pitch": 36, "duration": 1196, "velocity": 100}, {"time": 49680, "pitch": 43, "duration": 720, "velocity": 100}, {"time": 50400, "pitch": 48, "duration": 1202, "velocity": 95}, {"time": 51602, "pitch": 55, "duration": 714, "velocity": 95}, {"time": 52316, "pitch": 60, "duration": 964, "velocity": 90}, {"time": 53280, "pitch": 58, "duration": 964, "velocity": 85}, {"time": 54244, "pitch": 57, "duration": 476, "velocity": 90}, {"time": 54720, "pitch": 59, "duration": 238, "velocity": 95}, {"time": 54958, "pitch": 60, "duration": 238, "velocity": 90}, {"time": 55196, "pitch": 62, "duration": 488, "velocity": 100}, {"time": 55684, "pitch": 63, "duration": 238, "velocity": 105}, {"time": 55922, "pitch": 65, "duration": 238, "velocity": 100}, {"time": 56160, "pitch": 67, "duration": 1202, "velocity": 100}, {"time": 57362, "pitch": 65, "duration": 238, "velocity": 95}, {"time": 57600, "pitch": 63, "duration": 238, "velocity": 90}, {"time": 57838, "pitch": 62, "duration": 238, "velocity": 90}, {"time": 58076, "pitch": 60, "duration": 1202, "velocity": 100}, {"time": 59278, "pitch": 58, "duration": 238, "velocity": 95}, {"time": 59516, "pitch": 56, "duration": 244, "velocity": 90}, {"time": 59760, "pitch": 55, "duration": 244, "velocity": 90}, {"time": 60004, "pitch": 53, "duration": 952, "velocity": 90}, {"time": 62158, "pitch": 51, "duration": 238, "velocity": 85}, {"time": 62396, "pitch": 53, "duration": 244, "velocity": 90}, {"time": 62640, "pitch": 55, "duration": 244, "velocity": 85}, {"time": 62884, "pitch": 56, "duration": 238, "velocity": 90}, {"time": 63122, "pitch": 58, "duration": 238, "velocity": 85}, {"time": 63360, "pitch": 60, "duration": 238, "velocity": 90}, {"time": 63598, "pitch": 61, "duration": 238, "velocity": 85}, {"time": 63836, "pitch": 60, "duration": 203, "velocity": 90}, {"time": 64324, "pitch": 55, "duration": 456, "velocity": 95}, {"time": 64800, "pitch": 57, "duration": 456, "velocity": 95}, {"time": 65276, "pitch": 59, "duration": 467, "velocity": 95}, {"time": 65764, "pitch": 60, "duration": 238, "velocity": 90}, {"time": 66240, "pitch": 48, "duration": 720, "velocity": 100}, {"time": 66960, "pitch": 48, "duration": 720, "velocity": 100}, {"time": 67680, "pitch": 46, "duration": 1440, "velocity": 100}, {"time": 69120, "pitch": 46, "duration": 476, "velocity": 90}, {"time": 69596, "pitch": 44, "duration": 1202, "velocity": 100}, {"time": 70798, "pitch": 44, "duration": 726, "velocity": 100}, {"time": 71524, "pitch": 43, "duration": 1196, "velocity": 100}, {"time": 72720, "pitch": 47, "duration": 720, "velocity": 100}, {"time": 73440, "pitch": 48, "duration": 1202, "velocity": 100}, {"time": 74642, "pitch": 48, "duration": 714, "velocity": 100}, {"time": 75356, "pitch": 55, "duration": 1440, "velocity": 100}, {"time": 76796, "pitch": 60, "duration": 488, "velocity": 90}, {"time": 77284, "pitch": 58, "duration": 476, "velocity": 90}, {"time": 77760, "pitch": 56, "duration": 964, "velocity": 95}, {"time": 78724, "pitch": 53, "duration": 476, "velocity": 100}, {"time": 79200, "pitch": 55, "duration": 119, "velocity": 110}, {"time": 79438, "pitch": 55, "duration": 119, "velocity": 105}, {"time": 79920, "pitch": 49, "duration": 1196, "velocity": 100}, {"time": 81116, "pitch": 48, "duration": 122, "velocity": 100}, {"time": 81360, "pitch": 48, "duration": 122, "velocity": 95}, {"time": 81842, "pitch": 48, "duration": 1202, "velocity": 90}, {"time": 83044, "pitch": 46, "duration": 119, "velocity": 100}, {"time": 83282, "pitch": 46, "duration": 119, "velocity": 95}, {"time": 83758, "pitch": 46, "duration": 1202, "velocity": 90}, {"time": 84960, "pitch": 44, "duration": 119, "velocity": 100}, {"time": 85198, "pitch": 44, "duration": 119, "velocity": 95}, {"time": 85680, "pitch": 44, "duration": 1196, "velocity": 90}, {"time": 86876, "pitch": 43, "duration": 122, "velocity": 100}, {"time": 87120, "pitch": 43, "duration": 122, "velocity": 95}, {"time": 87602, "pitch": 43, "duration": 714, "velocity": 90}, {"time": 88316, "pitch": 45, "duration": 244, "velocity": 90}, {"time": 88560, "pitch": 47, "duration": 244, "velocity": 85}, {"time": 88804, "pitch": 48, "duration": 119, "velocity": 100}, {"time": 89042, "pitch": 48, "duration": 119, "velocity": 95}, {"time": 89518, "pitch": 48, "duration": 1202, "velocity": 90}, {"time": 90720, "pitch": 46, "duration": 119, "velocity": 100}, {"time": 90958, "pitch": 46, "duration": 119, "velocity": 95}, {"time": 91440, "pitch": 46, "duration": 1196, "velocity": 90}, {"time": 92636, "pitch": 44, "duration": 122, "velocity": 100}, {"time": 92880, "pitch": 44, "duration": 122, "velocity": 95}, {"time": 93362, "pitch": 43, "duration": 714, "velocity": 90}, {"time": 94076, "pitch": 46, "duration": 244, "velocity": 90}, {"time": 94320, "pitch": 47, "duration": 244, "velocity": 85}, {"time": 94564, "pitch": 48, "duration": 119, "velocity": 100}, {"time": 94802, "pitch": 48, "duration": 119, "velocity": 95}, {"time": 95278, "pitch": 48, "duration": 726, "velocity": 90}, {"time": 96480, "pitch": 56, "duration": 964, "velocity": 90}, {"time": 97444, "pitch": 55, "duration": 952, "velocity": 85}, {"time": 98396, "pitch": 58, "duration": 964, "velocity": 90}, {"time": 99360, "pitch": 56, "duration": 964, "velocity": 85}, {"time": 100324, "pitch": 60, "duration": 952, "velocity": 90}, {"time": 101276, "pitch": 58, "duration": 964, "velocity": 85}, {"time": 102240, "pitch": 58, "duration": 964, "velocity": 90}, {"time": 103204, "pitch": 56, "duration": 952, "velocity": 85}, {"time": 104156, "pitch": 63, "duration": 964, "velocity": 90}, {"time": 105120, "pitch": 62, "duration": 964, "velocity": 85}, {"time": 106084, "pitch": 62, "duration": 952, "velocity": 90}, {"time": 107036, "pitch": 60, "duration": 964, "velocity": 85}, {"time": 108000, "pitch": 60, "duration": 1202, "velocity": 90}, {"time": 109202, "pitch": 60, "duration": 714, "velocity": 90}, {"time": 109916, "pitch": 62, "duration": 726, "velocity": 90}, {"time": 110642, "pitch": 62, "duration": 158, "velocity": 85}, {"time": 110880, "pitch": 62, "duration": 476, "velocity": 90}, {"time": 112796, "pitch": 37, "duration": 964, "velocity": 110}, {"time": 113760, "pitch": 36, "duration": 1202, "velocity": 100}, {"time": 114962, "pitch": 43, "duration": 714, "velocity": 100}, {"time": 115676, "pitch": 48, "duration": 1202, "velocity": 95}, {"time": 116878, "pitch": 55, "duration": 726, "velocity": 95}, {"time": 117604, "pitch": 60, "duration": 952, "velocity": 90}, {"time": 118556, "pitch": 58, "duration": 964, "velocity": 85}, {"time": 119520, "pitch": 57, "duration": 476, "velocity": 90}, {"time": 119996, "pitch": 59, "duration": 244, "velocity": 95}, {"time": 120240, "pitch": 60, "duration": 244, "velocity": 90}, {"time": 120484, "pitch": 62, "duration": 476, "velocity": 100}, {"time": 120960, "pitch": 63, "duration": 238, "velocity": 105}, {"time": 121198, "pitch": 65, "duration": 238, "velocity": 100}, {"time": 121436, "pitch": 67, "duration": 1202, "velocity": 100}, {"time": 122638, "pitch": 65, "duration": 238, "velocity": 95}, {"time": 122876, "pitch": 63, "duration": 244, "velocity": 90}, {"time": 123120, "pitch": 62, "duration": 244, "velocity": 90}, {"time": 123364, "pitch": 60, "duration": 1196, "velocity": 100}, {"time": 124560, "pitch": 58, "duration": 244, "velocity": 95}, {"time": 124804, "pitch": 56, "duration": 238, "velocity": 90}, {"time": 125042, "pitch": 55, "duration": 238, "velocity": 90}, {"time": 125280, "pitch": 53, "duration": 964, "velocity": 90}, {"time": 127440, "pitch": 51, "duration": 244, "velocity": 85}, {"time": 127684, "pitch": 53, "duration": 238, "velocity": 90}, {"time": 127922, "pitch": 55, "duration": 238, "velocity": 85}, {"time": 128160, "pitch": 56, "duration": 238, "velocity": 90}, {"time": 128398, "pitch": 58, "duration": 238, "velocity": 85}, {"time": 128636, "pitch": 60, "duration": 244, "velocity": 90}, {"time": 128880, "pitch": 61, "duration": 244, "velocity": 85}, {"time": 129124, "pitch": 60, "duration": 198, "velocity": 90}, {"time": 129600, "pitch": 55, "duration": 456, "velocity": 95}, {"time": 130076, "pitch": 57, "duration": 467, "velocity": 95}, {"time": 130564, "pitch": 59, "duration": 456, "velocity": 95}, {"time": 131040, "pitch": 60, "duration": 159, "velocity": 90}, {"time": 131516, "pitch": 36, "duration": 726, "velocity": 100}, {"time": 132242, "pitch": 43, "duration": 714, "velocity": 100}, {"time": 132956, "pitch": 48, "duration": 1202, "velocity": 95}, {"time": 134158, "pitch": 55, "duration": 726, "velocity": 95}, {"time": 134884, "pitch": 60, "duration": 952, "velocity": 90}, {"time": 135836, "pitch": 58, "duration": 964, "velocity": 85}, {"time": 136800, "pitch": 57, "duration": 476, "velocity": 90}, {"time": 137276, "pitch": 59, "duration": 244, "velocity": 95}, {"time": 137520, "pitch": 60, "duration": 244, "velocity": 90}, {"time": 137764, "pitch": 62, "duration": 476, "velocity": 100}, {"time": 138240, "pitch": 63, "duration": 238, "velocity": 105}, {"time": 138478, "pitch": 65, "duration": 238, "velocity": 100}, {"time": 138716, "pitch": 67, "duration": 1202, "velocity": 100}, {"time": 139918, "pitch": 65, "duration": 238, "velocity": 95}, {"time": 140156, "pitch": 63, "duration": 244, "velocity": 90}, {"time": 140400, "pitch": 62, "duration": 244, "velocity": 90}, {"time": 140644, "pitch": 60, "duration": 1196, "velocity": 100}, {"time": 141840, "pitch": 58, "duration": 244, "velocity": 95}, {"time": 142084, "pitch": 56, "duration": 238, "velocity": 90}, {"time": 142322, "pitch": 55, "duration": 238, "velocity": 90}, {"time": 142560, "pitch": 53, "duration": 964, "velocity": 90}, {"time": 144720, "pitch": 51, "duration": 244, "velocity": 85}, {"time": 144964, "pitch": 53, "duration": 238, "velocity": 90}, {"time": 145202, "pitch": 55, "duration": 238, "velocity": 85}, {"time": 145440, "pitch": 56, "duration": 238, "velocity": 90}, {"time": 145678, "pitch": 58, "duration": 238, "velocity": 85}, {"time": 145916, "pitch": 60, "duration": 244, "velocity": 90}, {"time": 146160, "pitch": 61, "duration": 244, "velocity": 85}, {"time": 146404, "pitch": 60, "duration": 198, "velocity": 90}, {"time": 146880, "pitch": 55, "duration": 456, "velocity": 95}, {"time": 147356, "pitch": 57, "duration": 467, "velocity": 95}, {"time": 147844, "pitch": 59, "duration": 456, "velocity": 95}, {"time": 148320, "pitch": 60, "duration": 218, "velocity": 95}, {"time": 148796, "pitch": 48, "duration": 964, "velocity": 100}, {"time": 149760, "pitch": 60, "duration": 218, "velocity": 80}, {"time": 150236, "pitch": 58, "duration": 223, "velocity": 95}, {"time": 150724, "pitch": 46, "duration": 952, "velocity": 100}, {"time": 151676, "pitch": 58, "duration": 223, "velocity": 80}, {"time": 152164, "pitch": 56, "duration": 218, "velocity": 95}, {"time": 152640, "pitch": 44, "duration": 964, "velocity": 100}, {"time": 153604, "pitch": 56, "duration": 218, "velocity": 80}, {"time": 154080, "pitch": 49, "duration": 158, "velocity": 110}, {"time": 154318, "pitch": 49, "duration": 159, "velocity": 110}, {"time": 154800, "pitch": 49, "duration": 162, "velocity": 110}, {"time": 155288, "pitch": 49, "duration": 162, "velocity": 110}, {"time": 155532, "pitch": 49, "duration": 166, "velocity": 110}, {"time": 156032, "pitch": 48, "duration": 250, "velocity": 115}, {"time": 130802, "pitch": 67, "duration": 238, "velocity": 100}, {"time": 131040, "pitch": 72, "duration": 476, "velocity": 100}, {"time": 131516, "pitch": 72, "duration": 244, "velocity": 100}, {"time": 131760, "pitch": 72, "duration": 244, "velocity": 100}, {"time": 132004, "pitch": 71, "duration": 476, "velocity": 100}, {"time": 132480, "pitch": 67, "duration": 238, "velocity": 100}, {"time": 132718, "pitch": 70, "duration": 238, "velocity": 100}, {"time": 132956, "pitch": 69, "duration": 488, "velocity": 100}, {"time": 133444, "pitch": 65, "duration": 238, "velocity": 100}, {"time": 133682, "pitch": 68, "duration": 238, "velocity": 100}, {"time": 133920, "pitch": 67, "duration": 476, "velocity": 100}, {"time": 134640, "pitch": 67, "duration": 244, "velocity": 100}, {"time": 134884, "pitch": 68, "duration": 238, "velocity": 100}, {"time": 135122, "pitch": 67, "duration": 238, "velocity": 100}, {"time": 135360, "pitch": 68, "duration": 238, "velocity": 100}, {"time": 135598, "pitch": 70, "duration": 238, "velocity": 100}, {"time": 135836, "pitch": 72, "duration": 244, "velocity": 100}, {"time": 136080, "pitch": 67, "duration": 244, "velocity": 100}, {"time": 136562, "pitch": 67, "duration": 238, "velocity": 100}, {"time": 136800, "pitch": 66, "duration": 238, "velocity": 100}, {"time": 137038, "pitch": 66, "duration": 238, "velocity": 100}, {"time": 137276, "pitch": 67, "duration": 244, "velocity": 100}, {"time": 137520, "pitch": 69, "duration": 244, "velocity": 100}, {"time": 137764, "pitch": 71, "duration": 476, "velocity": 100}, {"time": 138478, "pitch": 67, "duration": 238, "velocity": 100}, {"time": 138716, "pitch": 72, "duration": 488, "velocity": 100}, {"time": 139204, "pitch": 72, "duration": 238, "velocity": 100}, {"time": 139442, "pitch": 72, "duration": 238, "velocity": 100}, {"time": 139680, "pitch": 71, "duration": 476, "velocity": 100}, {"time": 140156, "pitch": 67, "duration": 427, "velocity": 100}, {"time": 140400, "pitch": 70, "duration": 422, "velocity": 100}, {"time": 140644, "pitch": 69, "duration": 476, "velocity": 100}, {"time": 141120, "pitch": 65, "duration": 238, "velocity": 100}, {"time": 141358, "pitch": 68, "duration": 238, "velocity": 100}, {"time": 141596, "pitch": 67, "duration": 488, "velocity": 100}, {"time": 142084, "pitch": 65, "duration": 238, "velocity": 100}, {"time": 142322, "pitch": 63, "duration": 238, "velocity": 100}, {"time": 142560, "pitch": 61, "duration": 720, "velocity": 100}, {"time": 143280, "pitch": 60, "duration": 244, "velocity": 100}, {"time": 143524, "pitch": 61, "duration": 476, "velocity": 100}, {"time": 144000, "pitch": 65, "duration": 238, "velocity": 100}, {"time": 144238, "pitch": 68, "duration": 2166, "velocity": 100}, {"time": 146880, "pitch": 67, "duration": 476, "velocity": 100}, {"time": 147356, "pitch": 69, "duration": 488, "velocity": 100}, {"time": 147844, "pitch": 71, "duration": 476, "velocity": 100}, {"time": 148320, "pitch": 74, "duration": 720, "velocity": 100}, {"time": 149040, "pitch": 72, "duration": 1196, "velocity": 100}, {"time": 15840, "pitch": 67, "duration": 218, "velocity": 100}, {"time": 16078, "pitch": 67, "duration": 218, "velocity": 100}, {"time": 16316, "pitch": 67, "duration": 224, "velocity": 100}, {"time": 16560, "pitch": 67, "duration": 224, "velocity": 100}, {"time": 16804, "pitch": 67, "duration": 218, "velocity": 100}, {"time": 17042, "pitch": 67, "duration": 218, "velocity": 100}, {"time": 17280, "pitch": 70, "duration": 218, "velocity": 100}, {"time": 17518, "pitch": 72, "duration": 218, "velocity": 100}, {"time": 17756, "pitch": 67, "duration": 964, "velocity": 100}, {"time": 18958, "pitch": 60, "duration": 238, "velocity": 100}, {"time": 19196, "pitch": 67, "duration": 244, "velocity": 100}, {"time": 19440, "pitch": 65, "duration": 244, "velocity": 100}, {"time": 19684, "pitch": 63, "duration": 238, "velocity": 100}, {"time": 19922, "pitch": 63, "duration": 476, "velocity": 100}, {"time": 20398, "pitch": 60, "duration": 238, "velocity": 100}, {"time": 20636, "pitch": 65, "duration": 488, "velocity": 100}, {"time": 21124, "pitch": 62, "duration": 238, "velocity": 100}, {"time": 21362, "pitch": 67, "duration": 1202, "velocity": 100}, {"time": 23516, "pitch": 67, "duration": 244, "velocity": 100}, {"time": 23760, "pitch": 67, "duration": 244, "velocity": 100}, {"time": 24004, "pitch": 67, "duration": 238, "velocity": 100}, {"time": 24242, "pitch": 67, "duration": 238, "velocity": 100}, {"time": 24480, "pitch": 67, "duration": 238, "velocity": 100}, {"time": 24718, "pitch": 67, "duration": 238, "velocity": 100}, {"time": 24956, "pitch": 70, "duration": 244, "velocity": 100}, {"time": 25200, "pitch": 72, "duration": 244, "velocity": 100}, {"time": 25444, "pitch": 67, "duration": 952, "velocity": 100}, {"time": 26640, "pitch": 60, "duration": 244, "velocity": 100}, {"time": 26884, "pitch": 67, "duration": 238, "velocity": 100}, {"time": 27122, "pitch": 65, "duration": 238, "velocity": 100}, {"time": 27360, "pitch": 63, "duration": 238, "velocity": 100}, {"time": 27598, "pitch": 63, "duration": 238, "velocity": 100}, {"time": 27836, "pitch": 65, "duration": 244, "velocity": 100}, {"time": 28080, "pitch": 67, "duration": 482, "velocity": 100}, {"time": 28562, "pitch": 58, "duration": 476, "velocity": 100}, {"time": 29038, "pitch": 60, "duration": 1202, "velocity": 100}, {"time": 30960, "pitch": 60, "duration": 244, "velocity": 100}, {"time": 31204, "pitch": 61, "duration": 476, "velocity": 100}, {"time": 31680, "pitch": 63, "duration": 238, "velocity": 100}, {"time": 31918, "pitch": 65, "duration": 238, "velocity": 100}, {"time": 32156, "pitch": 67, "duration": 244, "velocity": 100}, {"time": 32400, "pitch": 67, "duration": 244, "velocity": 100}, {"time": 32644, "pitch": 68, "duration": 238, "velocity": 100}, {"time": 32882, "pitch": 70, "duration": 238, "velocity": 100}, {"time": 33120, "pitch": 72, "duration": 964, "velocity": 100}, {"time": 34798, "pitch": 60, "duration": 238, "velocity": 100}, {"time": 35036, "pitch": 61, "duration": 488, "velocity": 100}, {"time": 35524, "pitch": 63, "duration": 238, "velocity": 100}, {"time": 35762, "pitch": 65, "duration": 238, "velocity": 100}, {"time": 36000, "pitch": 67, "duration": 238, "velocity": 100}, {"time": 36238, "pitch": 67, "duration": 238, "velocity": 100}, {"time": 36476, "pitch": 68, "duration": 244, "velocity": 100}, {"time": 36720, "pitch": 70, "duration": 244, "velocity": 100}, {"time": 36964, "pitch": 72, "duration": 952, "velocity": 100}, {"time": 38404, "pitch": 75, "duration": 238, "velocity": 100}, {"time": 38642, "pitch": 74, "duration": 238, "velocity": 100}, {"time": 38880, "pitch": 72, "duration": 238, "velocity": 100}, {"time": 39118, "pitch": 70, "duration": 238, "velocity": 100}, {"time": 39356, "pitch": 68, "duration": 244, "velocity": 100}, {"time": 39600, "pitch": 65, "duration": 244, "velocity": 100}, {"time": 39844, "pitch": 70, "duration": 476, "velocity": 100}, {"time": 40320, "pitch": 65, "duration": 238, "velocity": 100}, {"time": 40558, "pitch": 67, "duration": 1202, "velocity": 100}, {"time": 41998, "pitch": 67, "duration": 238, "velocity": 100}, {"time": 42236, "pitch": 65, "duration": 244, "velocity": 100}, {"time": 42480, "pitch": 63, "duration": 244, "velocity": 100}, {"time": 42724, "pitch": 65, "duration": 714, "velocity": 100}, {"time": 43438, "pitch": 65, "duration": 238, "velocity": 100}, {"time": 43676, "pitch": 65, "duration": 488, "velocity": 100}, {"time": 44164, "pitch": 67, "duration": 238, "velocity": 100}, {"time": 44402, "pitch": 68, "duration": 238, "velocity": 100}, {"time": 44640, "pitch": 67, "duration": 1896, "velocity": 100}, {"time": 48240, "pitch": 67, "duration": 244, "velocity": 100}, {"time": 48484, "pitch": 72, "duration": 238, "velocity": 100}, {"time": 48722, "pitch": 72, "duration": 476, "velocity": 100}, {"time": 49198, "pitch": 72, "duration": 238, "velocity": 100}, {"time": 49436, "pitch": 71, "duration": 488, "velocity": 100}, {"time": 49924, "pitch": 67, "duration": 238, "velocity": 100}, {"time": 50162, "pitch": 70, "duration": 238, "velocity": 100}, {"time": 50400, "pitch": 69, "duration": 476, "velocity": 100}, {"time": 50876, "pitch": 65, "duration": 244, "velocity": 100}, {"time": 51120, "pitch": 68, "duration": 244, "velocity": 100}, {"time": 51364, "pitch": 67, "duration": 476, "velocity": 100}, {"time": 52078, "pitch": 67, "duration": 238, "velocity": 100}, {"time": 52316, "pitch": 68, "duration": 244, "velocity": 100}, {"time": 52560, "pitch": 67, "duration": 244, "velocity": 100}, {"time": 52804, "pitch": 68, "duration": 238, "velocity": 100}, {"time": 53042, "pitch": 70, "duration": 238, "velocity": 100}, {"time": 53280, "pitch": 72, "duration": 238, "velocity": 100}, {"time": 53518, "pitch": 67, "duration": 238, "velocity": 100}, {"time": 54000, "pitch": 67, "duration": 244, "velocity": 100}, {"time": 54244, "pitch": 66, "duration": 238, "velocity": 100}, {"time": 54482, "pitch": 66, "duration": 238, "velocity": 100}, {"time": 54720, "pitch": 67, "duration": 238, "velocity": 100}, {"time": 54958, "pitch": 69, "duration": 238, "velocity": 100}, {"time": 55196, "pitch": 71, "duration": 488, "velocity": 100}, {"time": 55922, "pitch": 67, "duration": 238, "velocity": 100}, {"time": 56160, "pitch": 72, "duration": 238, "velocity": 100}, {"time": 56398, "pitch": 72, "duration": 482, "velocity": 100}, {"time": 56880, "pitch": 72, "duration": 244, "velocity": 100}, {"time": 57124, "pitch": 71, "duration": 476, "velocity": 100}, {"time": 57600, "pitch": 67, "duration": 417, "velocity": 100}, {"time": 57838, "pitch": 70, "duration": 421, "velocity": 100}, {"time": 58076, "pitch": 69, "duration": 488, "velocity": 100}, {"time": 58564, "pitch": 65, "duration": 238, "velocity": 100}, {"time": 58802, "pitch": 68, "duration": 238, "velocity": 100}, {"time": 59040, "pitch": 67, "duration": 476, "velocity": 100}, {"time": 59516, "pitch": 65, "duration": 244, "velocity": 100}, {"time": 59760, "pitch": 63, "duration": 244, "velocity": 100}, {"time": 60004, "pitch": 61, "duration": 714, "velocity": 100}, {"time": 60718, "pitch": 60, "duration": 238, "velocity": 100}, {"time": 60956, "pitch": 61, "duration": 488, "velocity": 100}, {"time": 61444, "pitch": 65, "duration": 238, "velocity": 100}, {"time": 61682, "pitch": 68, "duration": 2154, "velocity": 100}, {"time": 64324, "pitch": 67, "duration": 476, "velocity": 100}, {"time": 64800, "pitch": 69, "duration": 476, "velocity": 100}, {"time": 65276, "pitch": 71, "duration": 488, "velocity": 100}, {"time": 65764, "pitch": 74, "duration": 714, "velocity": 100}, {"time": 66478, "pitch": 72, "duration": 1202, "velocity": 100}, {"time": 81116, "pitch": 67, "duration": 224, "velocity": 100}, {"time": 81360, "pitch": 67, "duration": 223, "velocity": 100}, {"time": 81604, "pitch": 67, "duration": 218, "velocity": 100}, {"time": 81842, "pitch": 67, "duration": 218, "velocity": 100}, {"time": 82080, "pitch": 67, "duration": 218, "velocity": 100}, {"time": 82318, "pitch": 67, "duration": 218, "velocity": 100}, {"time": 82556, "pitch": 70, "duration": 224, "velocity": 100}, {"time": 82800, "pitch": 72, "duration": 223, "velocity": 100}, {"time": 83044, "pitch": 67, "duration": 952, "velocity": 100}, {"time": 84240, "pitch": 60, "duration": 244, "velocity": 100}, {"time": 84484, "pitch": 67, "duration": 238, "velocity": 100}, {"time": 84722, "pitch": 65, "duration": 238, "velocity": 100}, {"time": 84960, "pitch": 63, "duration": 238, "velocity": 100}, {"time": 85198, "pitch": 63, "duration": 482, "velocity": 100}, {"time": 85680, "pitch": 60, "duration": 244, "velocity": 100}, {"time": 85924, "pitch": 65, "duration": 476, "velocity": 100}, {"time": 86400, "pitch": 62, "duration": 238, "velocity": 100}, {"time": 86638, "pitch": 67, "duration": 1202, "velocity": 100}, {"time": 88804, "pitch": 67, "duration": 238, "velocity": 100}, {"time": 89042, "pitch": 67, "duration": 238, "velocity": 100}, {"time": 89280, "pitch": 67, "duration": 238, "velocity": 100}, {"time": 89518, "pitch": 67, "duration": 238, "velocity": 100}, {"time": 89756, "pitch": 67, "duration": 244, "velocity": 100}, {"time": 90000, "pitch": 67, "duration": 244, "velocity": 100}, {"time": 90244, "pitch": 70, "duration": 238, "velocity": 100}, {"time": 90482, "pitch": 72, "duration": 238, "velocity": 100}, {"time": 90720, "pitch": 67, "duration": 218, "velocity": 100}, {"time": 90958, "pitch": 67, "duration": 726, "velocity": 100}, {"time": 91922, "pitch": 60, "duration": 238, "velocity": 100}, {"time": 92160, "pitch": 67, "duration": 238, "velocity": 100}, {"time": 92398, "pitch": 65, "duration": 238, "velocity": 100}, {"time": 92636, "pitch": 63, "duration": 244, "velocity": 100}, {"time": 92880, "pitch": 63, "duration": 244, "velocity": 100}, {"time": 93124, "pitch": 65, "duration": 238, "velocity": 100}, {"time": 93362, "pitch": 67, "duration": 476, "velocity": 100}, {"time": 93838, "pitch": 58, "duration": 482, "velocity": 100}, {"time": 94320, "pitch": 60, "duration": 1196, "velocity": 100}, {"time": 96242, "pitch": 60, "duration": 238, "velocity": 100}, {"time": 96480, "pitch": 61, "duration": 476, "velocity": 100}, {"time": 96956, "pitch": 63, "duration": 244, "velocity": 100}, {"time": 97200, "pitch": 65, "duration": 244, "velocity": 100}, {"time": 97444, "pitch": 67, "duration": 238, "velocity": 100}, {"time": 97682, "pitch": 67, "duration": 238, "velocity": 100}, {"time": 97920, "pitch": 68, "duration": 238, "velocity": 100}, {"time": 98158, "pitch": 70, "duration": 238, "velocity": 100}, {"time": 98396, "pitch": 72, "duration": 964, "velocity": 100}, {"time": 100080, "pitch": 60, "duration": 244, "velocity": 100}, {"time": 100324, "pitch": 61, "duration": 476, "velocity": 100}, {"time": 100800, "pitch": 63, "duration": 238, "velocity": 100}, {"time": 101038, "pitch": 65, "duration": 238, "velocity": 100}, {"time": 101276, "pitch": 67, "duration": 244, "velocity": 100}, {"time": 101520, "pitch": 67, "duration": 244, "velocity": 100}, {"time": 101764, "pitch": 68, "duration": 238, "velocity": 100}, {"time": 102002, "pitch": 70, "duration": 238, "velocity": 100}, {"time": 102240, "pitch": 72, "duration": 964, "velocity": 100}, {"time": 103680, "pitch": 75, "duration": 238, "velocity": 100}, {"time": 103918, "pitch": 74, "duration": 238, "velocity": 100}, {"time": 104156, "pitch": 72, "duration": 244, "velocity": 100}, {"time": 104400, "pitch": 70, "duration": 244, "velocity": 100}, {"time": 104644, "pitch": 68, "duration": 238, "velocity": 100}, {"time": 104882, "pitch": 65, "duration": 238, "velocity": 100}, {"time": 105120, "pitch": 70, "duration": 476, "velocity": 100}, {"time": 105596, "pitch": 65, "duration": 244, "velocity": 100}, {"time": 105840, "pitch": 67, "duration": 1196, "velocity": 100}, {"time": 107280, "pitch": 67, "duration": 244, "velocity": 100}, {"time": 107524, "pitch": 65, "duration": 238, "velocity": 100}, {"time": 107762, "pitch": 63, "duration": 238, "velocity": 100}, {"time": 108000, "pitch": 65, "duration": 720, "velocity": 100}, {"time": 108720, "pitch": 65, "duration": 244, "velocity": 100}, {"time": 108964, "pitch": 65, "duration": 476, "velocity": 100}, {"time": 109440, "pitch": 67, "duration": 238, "velocity": 100}, {"time": 109678, "pitch": 68, "duration": 238, "velocity": 100}, {"time": 109916, "pitch": 67, "duration": 1907, "velocity": 100}, {"time": 113522, "pitch": 67, "duration": 238, "velocity": 100}, {"time": 113760, "pitch": 72, "duration": 476, "velocity": 100}, {"time": 114236, "pitch": 72, "duration": 244, "velocity": 100}, {"time": 114480, "pitch": 72, "duration": 244, "velocity": 100}, {"time": 114724, "pitch": 71, "duration": 476, "velocity": 100}, {"time": 115200, "pitch": 67, "duration": 238, "velocity": 100}, {"time": 115438, "pitch": 70, "duration": 238, "velocity": 100}, {"time": 115676, "pitch": 69, "duration": 488, "velocity": 100}, {"time": 116164, "pitch": 65, "duration": 238, "velocity": 100}, {"time": 116402, "pitch": 68, "duration": 238, "velocity": 100}, {"time": 116640, "pitch": 67, "duration": 476, "velocity": 100}, {"time": 117360, "pitch": 67, "duration": 244, "velocity": 100}, {"time": 117604, "pitch": 68, "duration": 238, "velocity": 100}, {"time": 117842, "pitch": 67, "duration": 238, "velocity": 100}, {"time": 118080, "pitch": 68, "duration": 238, "velocity": 100}, {"time": 118318, "pitch": 70, "duration": 238, "velocity": 100}, {"time": 118556, "pitch": 72, "duration": 244, "velocity": 100}, {"time": 118800, "pitch": 67, "duration": 244, "velocity": 100}, {"time": 119282, "pitch": 67, "duration": 238, "velocity": 100}, {"time": 119520, "pitch": 66, "duration": 238, "velocity": 100}, {"time": 119758, "pitch": 66, "duration": 238, "velocity": 100}, {"time": 119996, "pitch": 67, "duration": 244, "velocity": 100}, {"time": 120240, "pitch": 69, "duration": 244, "velocity": 100}, {"time": 120484, "pitch": 71, "duration": 476, "velocity": 100}, {"time": 121198, "pitch": 67, "duration": 238, "velocity": 100}, {"time": 121436, "pitch": 72, "duration": 488, "velocity": 100}, {"time": 121924, "pitch": 72, "duration": 238, "velocity": 100}, {"time": 122162, "pitch": 72, "duration": 238, "velocity": 100}, {"time": 122400, "pitch": 71, "duration": 476, "velocity": 100}, {"time": 122876, "pitch": 67, "duration": 427, "velocity": 100}, {"time": 123120, "pitch": 70, "duration": 422, "velocity": 100}, {"time": 123364, "pitch": 69, "duration": 476, "velocity": 100}, {"time": 123840, "pitch": 65, "duration": 238, "velocity": 100}, {"time": 124078, "pitch": 68, "duration": 238, "velocity": 100}, {"time": 124316, "pitch": 67, "duration": 488, "velocity": 100}, {"time": 124804, "pitch": 65, "duration": 238, "velocity": 100}, {"time": 125042, "pitch": 63, "duration": 238, "velocity": 100}, {"time": 125280, "pitch": 61, "duration": 720, "velocity": 100}, {"time": 126000, "pitch": 60, "duration": 244, "velocity": 100}, {"time": 126244, "pitch": 61, "duration": 476, "velocity": 100}, {"time": 126720, "pitch": 65, "duration": 238, "velocity": 100}, {"time": 126958, "pitch": 68, "duration": 2166, "velocity": 100}, {"time": 129600, "pitch": 67, "duration": 476, "velocity": 100}, {"time": 130076, "pitch": 69, "duration": 488, "velocity": 100}, {"time": 130564, "pitch": 71, "duration": 476, "velocity": 100}, {"time": 131040, "pitch": 74, "duration": 720, "velocity": 100}, {"time": 131760, "pitch": 72, "duration": 1196, "velocity": 100}]}]}