{"metadata": {"schema_version": "0.1", "title": "RWC-MDB-P-2001 No. 12: KAGE-ROU / Kazuo Nishi", "copyright": "RWC Music Database. Copyright (C) 2001 Real World Computing Partnership (contact: Masataka GOTO <m.goto@aist.go.jp>)", "source_filename": "RM-P012.SMF_SYNC.MID", "source_format": "midi"}, "resolution": 480, "tempos": [{"time": 0, "qpm": 39.473684210526315}, {"time": 480, "qpm": 120.0}, {"time": 36960, "qpm": 117.6470588235294}, {"time": 37440, "qpm": 122.44897959183673}, {"time": 37920, "qpm": 120.0}, {"time": 184320, "qpm": 113.20754716981132}, {"time": 184800, "qpm": 86.95652173913044}, {"time": 185280, "qpm": 70.58823529411765}, {"time": 185760, "qpm": 60.0}], "key_signatures": [{"time": 0, "root": 0, "mode": "major"}], "tracks": [{"program": 0, "is_drum": false, "name": "Piano", "notes": [{"time": 322, "pitch": 48, "duration": 1578, "velocity": 90}, {"time": 322, "pitch": 64, "duration": 1578, "velocity": 80}, {"time": 322, "pitch": 67, "duration": 1578, "velocity": 85}, {"time": 322, "pitch": 72, "duration": 1578, "velocity": 90}, {"time": 1920, "pitch": 47, "duration": 1900, "velocity": 90}, {"time": 1920, "pitch": 62, "duration": 1900, "velocity": 80}, {"time": 1920, "pitch": 67, "duration": 960, "velocity": 85}, {"time": 1920, "pitch": 74, "duration": 1440, "velocity": 90}, {"time": 2880, "pitch": 67, "duration": 960, "velocity": 100}, {"time": 3360, "pitch": 74, "duration": 480, "velocity": 95}, {"time": 3840, "pitch": 45, "duration": 1900, "velocity": 90}, {"time": 3840, "pitch": 67, "duration": 1900, "velocity": 80}, {"time": 3840, "pitch": 72, "duration": 1900, "velocity": 85}, {"time": 3840, "pitch": 76, "duration": 1900, "velocity": 90}, {"time": 5760, "pitch": 52, "duration": 1900, "velocity": 90}, {"time": 5760, "pitch": 67, "duration": 1900, "velocity": 80}, {"time": 5760, "pitch": 71, "duration": 1900, "velocity": 85}, {"time": 5760, "pitch": 74, "duration": 960, "velocity": 90}, {"time": 6720, "pitch": 79, "duration": 960, "velocity": 90}, {"time": 7200, "pitch": 74, "duration": 480, "velocity": 80}, {"time": 7680, "pitch": 50, "duration": 1900, "velocity": 90}, {"time": 7680, "pitch": 65, "duration": 1900, "velocity": 80}, {"time": 7680, "pitch": 69, "duration": 1900, "velocity": 85}, {"time": 7680, "pitch": 72, "duration": 1900, "velocity": 90}, {"time": 9600, "pitch": 45, "duration": 1900, "velocity": 90}, {"time": 9600, "pitch": 64, "duration": 1900, "velocity": 80}, {"time": 9600, "pitch": 67, "duration": 960, "velocity": 85}, {"time": 9600, "pitch": 72, "duration": 1440, "velocity": 90}, {"time": 10560, "pitch": 67, "duration": 480, "velocity": 100}, {"time": 11040, "pitch": 72, "duration": 480, "velocity": 95}, {"time": 11520, "pitch": 50, "duration": 1900, "velocity": 90}, {"time": 11520, "pitch": 60, "duration": 1900, "velocity": 80}, {"time": 11520, "pitch": 65, "duration": 940, "velocity": 85}, {"time": 11520, "pitch": 68, "duration": 940, "velocity": 90}, {"time": 12480, "pitch": 65, "duration": 940, "velocity": 85}, {"time": 12480, "pitch": 68, "duration": 940, "velocity": 90}, {"time": 12480, "pitch": 72, "duration": 940, "velocity": 95}, {"time": 13440, "pitch": 43, "duration": 1900, "velocity": 100}, {"time": 13440, "pitch": 69, "duration": 940, "velocity": 90}, {"time": 13440, "pitch": 72, "duration": 940, "velocity": 95}, {"time": 13440, "pitch": 77, "duration": 940, "velocity": 100}, {"time": 14400, "pitch": 65, "duration": 940, "velocity": 80}, {"time": 14400, "pitch": 69, "duration": 940, "velocity": 85}, {"time": 14400, "pitch": 74, "duration": 940, "velocity": 90}, {"time": 15360, "pitch": 48, "duration": 1900, "velocity": 90}, {"time": 15360, "pitch": 64, "duration": 1900, "velocity": 80}, {"time": 15360, "pitch": 67, "duration": 1900, "velocity": 85}, {"time": 15360, "pitch": 72, "duration": 1900, "velocity": 90}, {"time": 17280, "pitch": 47, "duration": 1900, "velocity": 90}, {"time": 17280, "pitch": 62, "duration": 1900, "velocity": 80}, {"time": 17280, "pitch": 67, "duration": 1900, "velocity": 85}, {"time": 17280, "pitch": 74, "duration": 1440, "velocity": 90}, {"time": 18240, "pitch": 79, "duration": 960, "velocity": 100}, {"time": 18720, "pitch": 74, "duration": 480, "velocity": 95}, {"time": 19200, "pitch": 45, "duration": 1900, "velocity": 90}, {"time": 19200, "pitch": 67, "duration": 1900, "velocity": 80}, {"time": 19200, "pitch": 72, "duration": 1900, "velocity": 85}, {"time": 19200, "pitch": 76, "duration": 1900, "velocity": 90}, {"time": 21120, "pitch": 52, "duration": 1900, "velocity": 90}, {"time": 21120, "pitch": 67, "duration": 1900, "velocity": 80}, {"time": 21120, "pitch": 71, "duration": 1440, "velocity": 85}, {"time": 21120, "pitch": 74, "duration": 960, "velocity": 90}, {"time": 21600, "pitch": 79, "duration": 1440, "velocity": 100}, {"time": 22080, "pitch": 74, "duration": 960, "velocity": 90}, {"time": 22560, "pitch": 71, "duration": 480, "velocity": 80}, {"time": 23040, "pitch": 50, "duration": 1900, "velocity": 90}, {"time": 23040, "pitch": 65, "duration": 1900, "velocity": 80}, {"time": 23040, "pitch": 69, "duration": 1900, "velocity": 85}, {"time": 23040, "pitch": 72, "duration": 1900, "velocity": 90}, {"time": 24960, "pitch": 45, "duration": 1900, "velocity": 90}, {"time": 24960, "pitch": 64, "duration": 1900, "velocity": 80}, {"time": 24960, "pitch": 67, "duration": 960, "velocity": 85}, {"time": 24960, "pitch": 72, "duration": 1440, "velocity": 90}, {"time": 25920, "pitch": 67, "duration": 480, "velocity": 100}, {"time": 26400, "pitch": 72, "duration": 480, "velocity": 95}, {"time": 26880, "pitch": 50, "duration": 1900, "velocity": 90}, {"time": 26880, "pitch": 65, "duration": 1900, "velocity": 80}, {"time": 26880, "pitch": 68, "duration": 1900, "velocity": 85}, {"time": 26880, "pitch": 74, "duration": 1900, "velocity": 90}, {"time": 28800, "pitch": 43, "duration": 1900, "velocity": 90}, {"time": 28800, "pitch": 69, "duration": 960, "velocity": 90}, {"time": 28800, "pitch": 72, "duration": 1900, "velocity": 95}, {"time": 28800, "pitch": 77, "duration": 1900, "velocity": 100}, {"time": 29760, "pitch": 65, "duration": 940, "velocity": 80}, {"time": 29760, "pitch": 69, "duration": 940, "velocity": 85}, {"time": 29760, "pitch": 74, "duration": 940, "velocity": 90}, {"time": 30720, "pitch": 44, "duration": 1900, "velocity": 90}, {"time": 30720, "pitch": 65, "duration": 940, "velocity": 85}, {"time": 30720, "pitch": 68, "duration": 940, "velocity": 90}, {"time": 30720, "pitch": 71, "duration": 940, "velocity": 95}, {"time": 31680, "pitch": 68, "duration": 940, "velocity": 90}, {"time": 31680, "pitch": 71, "duration": 940, "velocity": 95}, {"time": 31680, "pitch": 74, "duration": 940, "velocity": 100}, {"time": 32640, "pitch": 69, "duration": 200, "velocity": 90}, {"time": 32640, "pitch": 72, "duration": 200, "velocity": 90}, {"time": 32640, "pitch": 76, "duration": 200, "velocity": 90}, {"time": 33120, "pitch": 69, "duration": 200, "velocity": 90}, {"time": 33120, "pitch": 72, "duration": 200, "velocity": 90}, {"time": 33120, "pitch": 76, "duration": 200, "velocity": 90}, {"time": 33600, "pitch": 69, "duration": 200, "velocity": 90}, {"time": 33600, "pitch": 72, "duration": 200, "velocity": 90}, {"time": 33600, "pitch": 76, "duration": 200, "velocity": 90}, {"time": 34080, "pitch": 69, "duration": 200, "velocity": 90}, {"time": 34080, "pitch": 72, "duration": 200, "velocity": 90}, {"time": 34080, "pitch": 76, "duration": 200, "velocity": 90}, {"time": 34560, "pitch": 68, "duration": 200, "velocity": 90}, {"time": 34560, "pitch": 71, "duration": 200, "velocity": 90}, {"time": 34560, "pitch": 76, "duration": 200, "velocity": 90}, {"time": 35040, "pitch": 68, "duration": 200, "velocity": 90}, {"time": 35040, "pitch": 71, "duration": 200, "velocity": 90}, {"time": 35040, "pitch": 76, "duration": 200, "velocity": 90}, {"time": 35520, "pitch": 68, "duration": 200, "velocity": 90}, {"time": 35520, "pitch": 71, "duration": 200, "velocity": 90}, {"time": 35520, "pitch": 76, "duration": 200, "velocity": 90}, {"time": 36000, "pitch": 68, "duration": 200, "velocity": 90}, {"time": 36000, "pitch": 71, "duration": 200, "velocity": 90}, {"time": 36000, "pitch": 76, "duration": 200, "velocity": 90}, {"time": 36480, "pitch": 67, "duration": 200, "velocity": 90}, {"time": 36480, "pitch": 70, "duration": 200, "velocity": 90}, {"time": 36480, "pitch": 74, "duration": 200, "velocity": 90}, {"time": 36960, "pitch": 67, "duration": 200, "velocity": 90}, {"time": 36960, "pitch": 70, "duration": 200, "velocity": 90}, {"time": 36960, "pitch": 74, "duration": 200, "velocity": 90}, {"time": 37440, "pitch": 67, "duration": 200, "velocity": 90}, {"time": 37440, "pitch": 70, "duration": 200, "velocity": 90}, {"time": 37440, "pitch": 74, "duration": 200, "velocity": 90}, {"time": 37920, "pitch": 67, "duration": 200, "velocity": 90}, {"time": 37920, "pitch": 70, "duration": 200, "velocity": 90}, {"time": 37920, "pitch": 74, "duration": 200, "velocity": 90}, {"time": 38400, "pitch": 66, "duration": 200, "velocity": 90}, {"time": 38400, "pitch": 69, "duration": 200, "velocity": 90}, {"time": 38400, "pitch": 74, "duration": 200, "velocity": 90}, {"time": 38880, "pitch": 66, "duration": 200, "velocity": 90}, {"time": 38880, "pitch": 69, "duration": 200, "velocity": 90}, {"time": 38880, "pitch": 74, "duration": 200, "velocity": 90}, {"time": 39360, "pitch": 66, "duration": 200, "velocity": 90}, {"time": 39360, "pitch": 69, "duration": 200, "velocity": 90}, {"time": 39360, "pitch": 74, "duration": 200, "velocity": 90}, {"time": 39840, "pitch": 66, "duration": 200, "velocity": 90}, {"time": 39840, "pitch": 69, "duration": 200, "velocity": 90}, {"time": 39840, "pitch": 74, "duration": 200, "velocity": 90}, {"time": 40320, "pitch": 65, "duration": 200, "velocity": 90}, {"time": 40320, "pitch": 69, "duration": 200, "velocity": 90}, {"time": 40320, "pitch": 72, "duration": 200, "velocity": 90}, {"time": 40800, "pitch": 65, "duration": 200, "velocity": 90}, {"time": 40800, "pitch": 69, "duration": 200, "velocity": 90}, {"time": 40800, "pitch": 72, "duration": 200, "velocity": 90}, {"time": 41280, "pitch": 65, "duration": 200, "velocity": 90}, {"time": 41280, "pitch": 69, "duration": 200, "velocity": 90}, {"time": 41280, "pitch": 72, "duration": 200, "velocity": 90}, {"time": 41760, "pitch": 65, "duration": 200, "velocity": 90}, {"time": 41760, "pitch": 69, "duration": 200, "velocity": 90}, {"time": 41760, "pitch": 72, "duration": 200, "velocity": 90}, {"time": 42240, "pitch": 64, "duration": 200, "velocity": 90}, {"time": 42240, "pitch": 67, "duration": 200, "velocity": 90}, {"time": 42240, "pitch": 72, "duration": 200, "velocity": 90}, {"time": 42720, "pitch": 64, "duration": 200, "velocity": 90}, {"time": 42720, "pitch": 67, "duration": 200, "velocity": 90}, {"time": 42720, "pitch": 72, "duration": 200, "velocity": 90}, {"time": 43200, "pitch": 64, "duration": 200, "velocity": 90}, {"time": 43200, "pitch": 67, "duration": 200, "velocity": 90}, {"time": 43200, "pitch": 72, "duration": 200, "velocity": 90}, {"time": 43680, "pitch": 64, "duration": 200, "velocity": 90}, {"time": 43680, "pitch": 67, "duration": 200, "velocity": 90}, {"time": 43680, "pitch": 72, "duration": 200, "velocity": 90}, {"time": 44160, "pitch": 65, "duration": 200, "velocity": 90}, {"time": 44160, "pitch": 69, "duration": 200, "velocity": 90}, {"time": 44160, "pitch": 74, "duration": 200, "velocity": 90}, {"time": 44640, "pitch": 65, "duration": 200, "velocity": 90}, {"time": 44640, "pitch": 69, "duration": 200, "velocity": 90}, {"time": 44640, "pitch": 74, "duration": 200, "velocity": 90}, {"time": 45120, "pitch": 65, "duration": 200, "velocity": 90}, {"time": 45120, "pitch": 69, "duration": 200, "velocity": 90}, {"time": 45120, "pitch": 74, "duration": 200, "velocity": 90}, {"time": 45600, "pitch": 65, "duration": 200, "velocity": 90}, {"time": 45600, "pitch": 69, "duration": 200, "velocity": 90}, {"time": 45600, "pitch": 74, "duration": 200, "velocity": 90}, {"time": 46080, "pitch": 65, "duration": 200, "velocity": 90}, {"time": 46080, "pitch": 69, "duration": 200, "velocity": 90}, {"time": 46080, "pitch": 74, "duration": 200, "velocity": 90}, {"time": 46560, "pitch": 65, "duration": 200, "velocity": 90}, {"time": 46560, "pitch": 69, "duration": 200, "velocity": 90}, {"time": 46560, "pitch": 74, "duration": 200, "velocity": 90}, {"time": 47040, "pitch": 43, "duration": 460, "velocity": 100}, {"time": 47180, "pitch": 65, "duration": 320, "velocity": 90}, {"time": 47180, "pitch": 71, "duration": 320, "velocity": 95}, {"time": 47180, "pitch": 74, "duration": 320, "velocity": 100}, {"time": 47520, "pitch": 44, "duration": 460, "velocity": 100}, {"time": 47660, "pitch": 68, "duration": 320, "velocity": 90}, {"time": 47660, "pitch": 71, "duration": 320, "velocity": 95}, {"time": 47660, "pitch": 76, "duration": 320, "velocity": 100}, {"time": 48000, "pitch": 69, "duration": 200, "velocity": 90}, {"time": 48000, "pitch": 72, "duration": 200, "velocity": 90}, {"time": 48000, "pitch": 76, "duration": 200, "velocity": 90}, {"time": 48480, "pitch": 69, "duration": 200, "velocity": 90}, {"time": 48480, "pitch": 72, "duration": 200, "velocity": 90}, {"time": 48480, "pitch": 76, "duration": 200, "velocity": 90}, {"time": 48960, "pitch": 69, "duration": 200, "velocity": 90}, {"time": 48960, "pitch": 72, "duration": 200, "velocity": 90}, {"time": 48960, "pitch": 76, "duration": 200, "velocity": 90}, {"time": 49440, "pitch": 69, "duration": 200, "velocity": 90}, {"time": 49440, "pitch": 72, "duration": 200, "velocity": 90}, {"time": 49440, "pitch": 76, "duration": 200, "velocity": 90}, {"time": 49920, "pitch": 68, "duration": 200, "velocity": 90}, {"time": 49920, "pitch": 71, "duration": 200, "velocity": 90}, {"time": 49920, "pitch": 76, "duration": 200, "velocity": 90}, {"time": 50400, "pitch": 68, "duration": 200, "velocity": 90}, {"time": 50400, "pitch": 71, "duration": 200, "velocity": 90}, {"time": 50400, "pitch": 76, "duration": 200, "velocity": 90}, {"time": 50880, "pitch": 68, "duration": 200, "velocity": 90}, {"time": 50880, "pitch": 71, "duration": 200, "velocity": 90}, {"time": 50880, "pitch": 76, "duration": 200, "velocity": 90}, {"time": 51360, "pitch": 68, "duration": 200, "velocity": 90}, {"time": 51360, "pitch": 71, "duration": 200, "velocity": 90}, {"time": 51360, "pitch": 76, "duration": 200, "velocity": 90}, {"time": 51840, "pitch": 67, "duration": 200, "velocity": 90}, {"time": 51840, "pitch": 70, "duration": 200, "velocity": 90}, {"time": 51840, "pitch": 74, "duration": 200, "velocity": 90}, {"time": 52320, "pitch": 67, "duration": 200, "velocity": 90}, {"time": 52320, "pitch": 70, "duration": 200, "velocity": 90}, {"time": 52320, "pitch": 74, "duration": 200, "velocity": 90}, {"time": 52800, "pitch": 67, "duration": 200, "velocity": 90}, {"time": 52800, "pitch": 70, "duration": 200, "velocity": 90}, {"time": 52800, "pitch": 74, "duration": 200, "velocity": 90}, {"time": 53280, "pitch": 67, "duration": 200, "velocity": 90}, {"time": 53280, "pitch": 70, "duration": 200, "velocity": 90}, {"time": 53280, "pitch": 74, "duration": 200, "velocity": 90}, {"time": 53760, "pitch": 66, "duration": 200, "velocity": 90}, {"time": 53760, "pitch": 69, "duration": 200, "velocity": 90}, {"time": 53760, "pitch": 74, "duration": 200, "velocity": 90}, {"time": 54240, "pitch": 66, "duration": 200, "velocity": 90}, {"time": 54240, "pitch": 69, "duration": 200, "velocity": 90}, {"time": 54240, "pitch": 74, "duration": 200, "velocity": 90}, {"time": 54720, "pitch": 66, "duration": 200, "velocity": 90}, {"time": 54720, "pitch": 69, "duration": 200, "velocity": 90}, {"time": 54720, "pitch": 74, "duration": 200, "velocity": 90}, {"time": 55200, "pitch": 66, "duration": 200, "velocity": 90}, {"time": 55200, "pitch": 69, "duration": 200, "velocity": 90}, {"time": 55200, "pitch": 74, "duration": 200, "velocity": 90}, {"time": 55680, "pitch": 65, "duration": 200, "velocity": 90}, {"time": 55680, "pitch": 69, "duration": 200, "velocity": 90}, {"time": 55680, "pitch": 72, "duration": 200, "velocity": 90}, {"time": 56160, "pitch": 65, "duration": 200, "velocity": 90}, {"time": 56160, "pitch": 69, "duration": 200, "velocity": 90}, {"time": 56160, "pitch": 72, "duration": 200, "velocity": 90}, {"time": 56640, "pitch": 65, "duration": 200, "velocity": 90}, {"time": 56640, "pitch": 69, "duration": 200, "velocity": 90}, {"time": 56640, "pitch": 72, "duration": 200, "velocity": 90}, {"time": 57120, "pitch": 65, "duration": 200, "velocity": 90}, {"time": 57120, "pitch": 69, "duration": 200, "velocity": 90}, {"time": 57120, "pitch": 72, "duration": 200, "velocity": 90}, {"time": 57600, "pitch": 64, "duration": 200, "velocity": 90}, {"time": 57600, "pitch": 67, "duration": 200, "velocity": 90}, {"time": 57600, "pitch": 72, "duration": 200, "velocity": 90}, {"time": 58080, "pitch": 64, "duration": 200, "velocity": 90}, {"time": 58080, "pitch": 67, "duration": 200, "velocity": 90}, {"time": 58080, "pitch": 72, "duration": 200, "velocity": 90}, {"time": 58560, "pitch": 64, "duration": 200, "velocity": 90}, {"time": 58560, "pitch": 67, "duration": 200, "velocity": 90}, {"time": 58560, "pitch": 72, "duration": 200, "velocity": 90}, {"time": 59040, "pitch": 64, "duration": 200, "velocity": 90}, {"time": 59040, "pitch": 67, "duration": 200, "velocity": 90}, {"time": 59040, "pitch": 72, "duration": 200, "velocity": 90}, {"time": 59520, "pitch": 65, "duration": 200, "velocity": 90}, {"time": 59520, "pitch": 69, "duration": 200, "velocity": 90}, {"time": 59520, "pitch": 74, "duration": 200, "velocity": 90}, {"time": 60000, "pitch": 65, "duration": 200, "velocity": 90}, {"time": 60000, "pitch": 69, "duration": 200, "velocity": 90}, {"time": 60000, "pitch": 74, "duration": 200, "velocity": 90}, {"time": 60480, "pitch": 65, "duration": 200, "velocity": 90}, {"time": 60480, "pitch": 69, "duration": 200, "velocity": 90}, {"time": 60480, "pitch": 74, "duration": 200, "velocity": 90}, {"time": 60960, "pitch": 65, "duration": 200, "velocity": 90}, {"time": 60960, "pitch": 69, "duration": 200, "velocity": 90}, {"time": 60960, "pitch": 74, "duration": 200, "velocity": 90}, {"time": 61440, "pitch": 67, "duration": 200, "velocity": 90}, {"time": 61440, "pitch": 71, "duration": 200, "velocity": 90}, {"time": 61440, "pitch": 74, "duration": 200, "velocity": 90}, {"time": 61920, "pitch": 67, "duration": 200, "velocity": 90}, {"time": 61920, "pitch": 71, "duration": 200, "velocity": 90}, {"time": 61920, "pitch": 74, "duration": 200, "velocity": 90}, {"time": 62400, "pitch": 43, "duration": 100, "velocity": 100}, {"time": 62400, "pitch": 65, "duration": 100, "velocity": 90}, {"time": 62400, "pitch": 69, "duration": 100, "velocity": 95}, {"time": 62400, "pitch": 74, "duration": 100, "velocity": 100}, {"time": 62640, "pitch": 43, "duration": 700, "velocity": 100}, {"time": 62640, "pitch": 65, "duration": 700, "velocity": 90}, {"time": 62640, "pitch": 69, "duration": 700, "velocity": 95}, {"time": 62640, "pitch": 74, "duration": 700, "velocity": 100}, {"time": 63360, "pitch": 48, "duration": 1900, "velocity": 90}, {"time": 63360, "pitch": 64, "duration": 1900, "velocity": 80}, {"time": 63360, "pitch": 67, "duration": 1900, "velocity": 85}, {"time": 63360, "pitch": 72, "duration": 1900, "velocity": 90}, {"time": 64560, "pitch": 76, "duration": 720, "velocity": 90}, {"time": 65280, "pitch": 47, "duration": 1900, "velocity": 90}, {"time": 65280, "pitch": 62, "duration": 1900, "velocity": 80}, {"time": 65280, "pitch": 67, "duration": 1900, "velocity": 85}, {"time": 65280, "pitch": 74, "duration": 1900, "velocity": 90}, {"time": 66480, "pitch": 71, "duration": 700, "velocity": 90}, {"time": 67200, "pitch": 46, "duration": 1900, "velocity": 90}, {"time": 67200, "pitch": 62, "duration": 1900, "velocity": 80}, {"time": 67200, "pitch": 67, "duration": 1900, "velocity": 85}, {"time": 67200, "pitch": 70, "duration": 1900, "velocity": 90}, {"time": 68400, "pitch": 74, "duration": 720, "velocity": 90}, {"time": 69120, "pitch": 45, "duration": 1900, "velocity": 90}, {"time": 69120, "pitch": 64, "duration": 1900, "velocity": 80}, {"time": 69120, "pitch": 67, "duration": 1200, "velocity": 85}, {"time": 69120, "pitch": 73, "duration": 1900, "velocity": 90}, {"time": 70320, "pitch": 67, "duration": 700, "velocity": 90}, {"time": 71040, "pitch": 44, "duration": 1900, "velocity": 90}, {"time": 71040, "pitch": 65, "duration": 1900, "velocity": 80}, {"time": 71040, "pitch": 68, "duration": 1900, "velocity": 85}, {"time": 71040, "pitch": 72, "duration": 1900, "velocity": 90}, {"time": 72000, "pitch": 74, "duration": 940, "velocity": 90}, {"time": 72960, "pitch": 43, "duration": 1900, "velocity": 90}, {"time": 72960, "pitch": 67, "duration": 1900, "velocity": 80}, {"time": 72960, "pitch": 72, "duration": 940, "velocity": 85}, {"time": 72960, "pitch": 76, "duration": 1900, "velocity": 90}, {"time": 73920, "pitch": 72, "duration": 940, "velocity": 90}, {"time": 74880, "pitch": 41, "duration": 1900, "velocity": 90}, {"time": 74880, "pitch": 65, "duration": 1900, "velocity": 80}, {"time": 74880, "pitch": 69, "duration": 1900, "velocity": 85}, {"time": 74880, "pitch": 74, "duration": 1900, "velocity": 90}, {"time": 75840, "pitch": 72, "duration": 720, "velocity": 90}, {"time": 76800, "pitch": 43, "duration": 1900, "velocity": 90}, {"time": 76800, "pitch": 65, "duration": 1900, "velocity": 80}, {"time": 76800, "pitch": 69, "duration": 1900, "velocity": 85}, {"time": 76800, "pitch": 76, "duration": 940, "velocity": 90}, {"time": 77760, "pitch": 74, "duration": 940, "velocity": 90}, {"time": 78720, "pitch": 48, "duration": 1900, "velocity": 90}, {"time": 78720, "pitch": 64, "duration": 1900, "velocity": 80}, {"time": 78720, "pitch": 67, "duration": 1900, "velocity": 85}, {"time": 78720, "pitch": 72, "duration": 1900, "velocity": 90}, {"time": 79920, "pitch": 76, "duration": 720, "velocity": 90}, {"time": 80640, "pitch": 47, "duration": 1900, "velocity": 90}, {"time": 80640, "pitch": 62, "duration": 1900, "velocity": 80}, {"time": 80640, "pitch": 67, "duration": 1900, "velocity": 85}, {"time": 80640, "pitch": 74, "duration": 1900, "velocity": 90}, {"time": 81840, "pitch": 71, "duration": 700, "velocity": 90}, {"time": 82560, "pitch": 46, "duration": 1900, "velocity": 90}, {"time": 82560, "pitch": 62, "duration": 1900, "velocity": 80}, {"time": 82560, "pitch": 67, "duration": 1900, "velocity": 85}, {"time": 82560, "pitch": 70, "duration": 1900, "velocity": 90}, {"time": 83760, "pitch": 74, "duration": 720, "velocity": 90}, {"time": 84480, "pitch": 45, "duration": 1900, "velocity": 90}, {"time": 84480, "pitch": 64, "duration": 1900, "velocity": 80}, {"time": 84480, "pitch": 67, "duration": 1200, "velocity": 85}, {"time": 84480, "pitch": 73, "duration": 1900, "velocity": 90}, {"time": 85680, "pitch": 67, "duration": 700, "velocity": 90}, {"time": 86400, "pitch": 44, "duration": 1900, "velocity": 90}, {"time": 86400, "pitch": 65, "duration": 1900, "velocity": 80}, {"time": 86400, "pitch": 68, "duration": 1900, "velocity": 85}, {"time": 86400, "pitch": 72, "duration": 1900, "velocity": 90}, {"time": 87360, "pitch": 74, "duration": 940, "velocity": 90}, {"time": 88320, "pitch": 43, "duration": 1900, "velocity": 90}, {"time": 88320, "pitch": 67, "duration": 1900, "velocity": 80}, {"time": 88320, "pitch": 72, "duration": 940, "velocity": 85}, {"time": 88320, "pitch": 76, "duration": 1900, "velocity": 90}, {"time": 89280, "pitch": 72, "duration": 940, "velocity": 90}, {"time": 90240, "pitch": 41, "duration": 1900, "velocity": 90}, {"time": 90240, "pitch": 65, "duration": 1900, "velocity": 80}, {"time": 90240, "pitch": 69, "duration": 1900, "velocity": 85}, {"time": 90240, "pitch": 74, "duration": 1900, "velocity": 90}, {"time": 91200, "pitch": 72, "duration": 720, "velocity": 90}, {"time": 92160, "pitch": 43, "duration": 940, "velocity": 90}, {"time": 92160, "pitch": 65, "duration": 940, "velocity": 80}, {"time": 92160, "pitch": 68, "duration": 940, "velocity": 85}, {"time": 92160, "pitch": 72, "duration": 940, "velocity": 90}, {"time": 93120, "pitch": 43, "duration": 940, "velocity": 90}, {"time": 93120, "pitch": 65, "duration": 940, "velocity": 80}, {"time": 93120, "pitch": 68, "duration": 940, "velocity": 85}, {"time": 93120, "pitch": 72, "duration": 940, "velocity": 90}, {"time": 94080, "pitch": 48, "duration": 1900, "velocity": 90}, {"time": 94080, "pitch": 64, "duration": 1900, "velocity": 80}, {"time": 94080, "pitch": 67, "duration": 1900, "velocity": 85}, {"time": 94080, "pitch": 72, "duration": 1900, "velocity": 90}, {"time": 96000, "pitch": 47, "duration": 1900, "velocity": 90}, {"time": 96000, "pitch": 62, "duration": 1900, "velocity": 80}, {"time": 96000, "pitch": 67, "duration": 1900, "velocity": 85}, {"time": 96000, "pitch": 74, "duration": 1440, "velocity": 90}, {"time": 96960, "pitch": 79, "duration": 960, "velocity": 100}, {"time": 97440, "pitch": 74, "duration": 480, "velocity": 95}, {"time": 97920, "pitch": 45, "duration": 1900, "velocity": 90}, {"time": 97920, "pitch": 67, "duration": 1900, "velocity": 80}, {"time": 97920, "pitch": 72, "duration": 1900, "velocity": 85}, {"time": 97920, "pitch": 76, "duration": 1900, "velocity": 90}, {"time": 99840, "pitch": 52, "duration": 1900, "velocity": 90}, {"time": 99840, "pitch": 67, "duration": 1900, "velocity": 80}, {"time": 99840, "pitch": 71, "duration": 1440, "velocity": 85}, {"time": 99840, "pitch": 74, "duration": 960, "velocity": 90}, {"time": 100320, "pitch": 79, "duration": 1440, "velocity": 100}, {"time": 100800, "pitch": 74, "duration": 960, "velocity": 90}, {"time": 101280, "pitch": 71, "duration": 480, "velocity": 80}, {"time": 101760, "pitch": 50, "duration": 1900, "velocity": 90}, {"time": 101760, "pitch": 65, "duration": 1900, "velocity": 80}, {"time": 101760, "pitch": 69, "duration": 1900, "velocity": 85}, {"time": 101760, "pitch": 72, "duration": 1900, "velocity": 90}, {"time": 103680, "pitch": 45, "duration": 1900, "velocity": 90}, {"time": 103680, "pitch": 64, "duration": 1900, "velocity": 80}, {"time": 103680, "pitch": 67, "duration": 960, "velocity": 85}, {"time": 103680, "pitch": 72, "duration": 1440, "velocity": 90}, {"time": 104640, "pitch": 67, "duration": 480, "velocity": 100}, {"time": 105120, "pitch": 72, "duration": 480, "velocity": 95}, {"time": 105600, "pitch": 50, "duration": 1900, "velocity": 90}, {"time": 105600, "pitch": 65, "duration": 1900, "velocity": 80}, {"time": 105600, "pitch": 69, "duration": 1900, "velocity": 85}, {"time": 105600, "pitch": 74, "duration": 1900, "velocity": 90}, {"time": 107520, "pitch": 43, "duration": 1900, "velocity": 90}, {"time": 107520, "pitch": 69, "duration": 960, "velocity": 90}, {"time": 107520, "pitch": 72, "duration": 1900, "velocity": 95}, {"time": 107520, "pitch": 77, "duration": 1900, "velocity": 100}, {"time": 108480, "pitch": 65, "duration": 940, "velocity": 80}, {"time": 108480, "pitch": 69, "duration": 940, "velocity": 85}, {"time": 108480, "pitch": 74, "duration": 940, "velocity": 90}, {"time": 109440, "pitch": 44, "duration": 1900, "velocity": 90}, {"time": 109440, "pitch": 65, "duration": 940, "velocity": 85}, {"time": 109440, "pitch": 68, "duration": 940, "velocity": 90}, {"time": 109440, "pitch": 71, "duration": 940, "velocity": 95}, {"time": 110400, "pitch": 68, "duration": 940, "velocity": 90}, {"time": 110400, "pitch": 71, "duration": 940, "velocity": 95}, {"time": 110400, "pitch": 74, "duration": 940, "velocity": 100}, {"time": 111360, "pitch": 69, "duration": 200, "velocity": 90}, {"time": 111360, "pitch": 72, "duration": 200, "velocity": 90}, {"time": 111360, "pitch": 76, "duration": 200, "velocity": 90}, {"time": 111840, "pitch": 69, "duration": 200, "velocity": 90}, {"time": 111840, "pitch": 72, "duration": 200, "velocity": 90}, {"time": 111840, "pitch": 76, "duration": 200, "velocity": 90}, {"time": 112320, "pitch": 69, "duration": 200, "velocity": 90}, {"time": 112320, "pitch": 72, "duration": 200, "velocity": 90}, {"time": 112320, "pitch": 76, "duration": 200, "velocity": 90}, {"time": 112800, "pitch": 69, "duration": 200, "velocity": 90}, {"time": 112800, "pitch": 72, "duration": 200, "velocity": 90}, {"time": 112800, "pitch": 76, "duration": 200, "velocity": 90}, {"time": 113280, "pitch": 68, "duration": 200, "velocity": 90}, {"time": 113280, "pitch": 71, "duration": 200, "velocity": 90}, {"time": 113280, "pitch": 76, "duration": 200, "velocity": 90}, {"time": 113760, "pitch": 68, "duration": 200, "velocity": 90}, {"time": 113760, "pitch": 71, "duration": 200, "velocity": 90}, {"time": 113760, "pitch": 76, "duration": 200, "velocity": 90}, {"time": 114240, "pitch": 68, "duration": 200, "velocity": 90}, {"time": 114240, "pitch": 71, "duration": 200, "velocity": 90}, {"time": 114240, "pitch": 76, "duration": 200, "velocity": 90}, {"time": 114720, "pitch": 68, "duration": 200, "velocity": 90}, {"time": 114720, "pitch": 71, "duration": 200, "velocity": 90}, {"time": 114720, "pitch": 76, "duration": 200, "velocity": 90}, {"time": 115200, "pitch": 67, "duration": 200, "velocity": 90}, {"time": 115200, "pitch": 70, "duration": 200, "velocity": 90}, {"time": 115200, "pitch": 74, "duration": 200, "velocity": 90}, {"time": 115680, "pitch": 67, "duration": 200, "velocity": 90}, {"time": 115680, "pitch": 70, "duration": 200, "velocity": 90}, {"time": 115680, "pitch": 74, "duration": 200, "velocity": 90}, {"time": 116160, "pitch": 67, "duration": 200, "velocity": 90}, {"time": 116160, "pitch": 70, "duration": 200, "velocity": 90}, {"time": 116160, "pitch": 74, "duration": 200, "velocity": 90}, {"time": 116640, "pitch": 67, "duration": 200, "velocity": 90}, {"time": 116640, "pitch": 70, "duration": 200, "velocity": 90}, {"time": 116640, "pitch": 74, "duration": 200, "velocity": 90}, {"time": 117120, "pitch": 66, "duration": 200, "velocity": 90}, {"time": 117120, "pitch": 69, "duration": 200, "velocity": 90}, {"time": 117120, "pitch": 74, "duration": 200, "velocity": 90}, {"time": 117600, "pitch": 66, "duration": 200, "velocity": 90}, {"time": 117600, "pitch": 69, "duration": 200, "velocity": 90}, {"time": 117600, "pitch": 74, "duration": 200, "velocity": 90}, {"time": 118080, "pitch": 66, "duration": 200, "velocity": 90}, {"time": 118080, "pitch": 69, "duration": 200, "velocity": 90}, {"time": 118080, "pitch": 74, "duration": 200, "velocity": 90}, {"time": 118560, "pitch": 66, "duration": 200, "velocity": 90}, {"time": 118560, "pitch": 69, "duration": 200, "velocity": 90}, {"time": 118560, "pitch": 74, "duration": 200, "velocity": 90}, {"time": 119040, "pitch": 65, "duration": 200, "velocity": 90}, {"time": 119040, "pitch": 69, "duration": 200, "velocity": 90}, {"time": 119040, "pitch": 72, "duration": 200, "velocity": 90}, {"time": 119520, "pitch": 65, "duration": 200, "velocity": 90}, {"time": 119520, "pitch": 69, "duration": 200, "velocity": 90}, {"time": 119520, "pitch": 72, "duration": 200, "velocity": 90}, {"time": 120000, "pitch": 65, "duration": 200, "velocity": 90}, {"time": 120000, "pitch": 69, "duration": 200, "velocity": 90}, {"time": 120000, "pitch": 72, "duration": 200, "velocity": 90}, {"time": 120480, "pitch": 65, "duration": 200, "velocity": 90}, {"time": 120480, "pitch": 69, "duration": 200, "velocity": 90}, {"time": 120480, "pitch": 72, "duration": 200, "velocity": 90}, {"time": 120960, "pitch": 64, "duration": 200, "velocity": 90}, {"time": 120960, "pitch": 67, "duration": 200, "velocity": 90}, {"time": 120960, "pitch": 72, "duration": 200, "velocity": 90}, {"time": 121440, "pitch": 64, "duration": 200, "velocity": 90}, {"time": 121440, "pitch": 67, "duration": 200, "velocity": 90}, {"time": 121440, "pitch": 72, "duration": 200, "velocity": 90}, {"time": 121920, "pitch": 64, "duration": 200, "velocity": 90}, {"time": 121920, "pitch": 67, "duration": 200, "velocity": 90}, {"time": 121920, "pitch": 72, "duration": 200, "velocity": 90}, {"time": 122400, "pitch": 64, "duration": 200, "velocity": 90}, {"time": 122400, "pitch": 67, "duration": 200, "velocity": 90}, {"time": 122400, "pitch": 72, "duration": 200, "velocity": 90}, {"time": 122880, "pitch": 65, "duration": 200, "velocity": 90}, {"time": 122880, "pitch": 69, "duration": 200, "velocity": 90}, {"time": 122880, "pitch": 74, "duration": 200, "velocity": 90}, {"time": 123360, "pitch": 65, "duration": 200, "velocity": 90}, {"time": 123360, "pitch": 69, "duration": 200, "velocity": 90}, {"time": 123360, "pitch": 74, "duration": 200, "velocity": 90}, {"time": 123840, "pitch": 65, "duration": 200, "velocity": 90}, {"time": 123840, "pitch": 69, "duration": 200, "velocity": 90}, {"time": 123840, "pitch": 74, "duration": 200, "velocity": 90}, {"time": 124320, "pitch": 65, "duration": 200, "velocity": 90}, {"time": 124320, "pitch": 69, "duration": 200, "velocity": 90}, {"time": 124320, "pitch": 74, "duration": 200, "velocity": 90}, {"time": 124800, "pitch": 65, "duration": 200, "velocity": 90}, {"time": 124800, "pitch": 69, "duration": 200, "velocity": 90}, {"time": 124800, "pitch": 74, "duration": 200, "velocity": 90}, {"time": 125280, "pitch": 65, "duration": 200, "velocity": 90}, {"time": 125280, "pitch": 69, "duration": 200, "velocity": 90}, {"time": 125280, "pitch": 74, "duration": 200, "velocity": 90}, {"time": 125760, "pitch": 43, "duration": 460, "velocity": 100}, {"time": 125900, "pitch": 65, "duration": 320, "velocity": 90}, {"time": 125900, "pitch": 71, "duration": 320, "velocity": 95}, {"time": 125900, "pitch": 74, "duration": 320, "velocity": 100}, {"time": 126240, "pitch": 44, "duration": 460, "velocity": 100}, {"time": 126380, "pitch": 68, "duration": 320, "velocity": 90}, {"time": 126380, "pitch": 71, "duration": 320, "velocity": 95}, {"time": 126380, "pitch": 76, "duration": 320, "velocity": 100}, {"time": 126720, "pitch": 69, "duration": 200, "velocity": 90}, {"time": 126720, "pitch": 72, "duration": 200, "velocity": 90}, {"time": 126720, "pitch": 76, "duration": 200, "velocity": 90}, {"time": 127200, "pitch": 69, "duration": 200, "velocity": 90}, {"time": 127200, "pitch": 72, "duration": 200, "velocity": 90}, {"time": 127200, "pitch": 76, "duration": 200, "velocity": 90}, {"time": 127680, "pitch": 69, "duration": 200, "velocity": 90}, {"time": 127680, "pitch": 72, "duration": 200, "velocity": 90}, {"time": 127680, "pitch": 76, "duration": 200, "velocity": 90}, {"time": 128160, "pitch": 69, "duration": 200, "velocity": 90}, {"time": 128160, "pitch": 72, "duration": 200, "velocity": 90}, {"time": 128160, "pitch": 76, "duration": 200, "velocity": 90}, {"time": 128640, "pitch": 68, "duration": 200, "velocity": 90}, {"time": 128640, "pitch": 71, "duration": 200, "velocity": 90}, {"time": 128640, "pitch": 76, "duration": 200, "velocity": 90}, {"time": 129120, "pitch": 68, "duration": 200, "velocity": 90}, {"time": 129120, "pitch": 71, "duration": 200, "velocity": 90}, {"time": 129120, "pitch": 76, "duration": 200, "velocity": 90}, {"time": 129600, "pitch": 68, "duration": 200, "velocity": 90}, {"time": 129600, "pitch": 71, "duration": 200, "velocity": 90}, {"time": 129600, "pitch": 76, "duration": 200, "velocity": 90}, {"time": 130080, "pitch": 68, "duration": 200, "velocity": 90}, {"time": 130080, "pitch": 71, "duration": 200, "velocity": 90}, {"time": 130080, "pitch": 76, "duration": 200, "velocity": 90}, {"time": 130560, "pitch": 67, "duration": 200, "velocity": 90}, {"time": 130560, "pitch": 70, "duration": 200, "velocity": 90}, {"time": 130560, "pitch": 74, "duration": 200, "velocity": 90}, {"time": 131040, "pitch": 67, "duration": 200, "velocity": 90}, {"time": 131040, "pitch": 70, "duration": 200, "velocity": 90}, {"time": 131040, "pitch": 74, "duration": 200, "velocity": 90}, {"time": 131520, "pitch": 67, "duration": 200, "velocity": 90}, {"time": 131520, "pitch": 70, "duration": 200, "velocity": 90}, {"time": 131520, "pitch": 74, "duration": 200, "velocity": 90}, {"time": 132000, "pitch": 67, "duration": 200, "velocity": 90}, {"time": 132000, "pitch": 70, "duration": 200, "velocity": 90}, {"time": 132000, "pitch": 74, "duration": 200, "velocity": 90}, {"time": 132480, "pitch": 66, "duration": 200, "velocity": 90}, {"time": 132480, "pitch": 69, "duration": 200, "velocity": 90}, {"time": 132480, "pitch": 74, "duration": 200, "velocity": 90}, {"time": 132960, "pitch": 66, "duration": 200, "velocity": 90}, {"time": 132960, "pitch": 69, "duration": 200, "velocity": 90}, {"time": 132960, "pitch": 74, "duration": 200, "velocity": 90}, {"time": 133440, "pitch": 66, "duration": 200, "velocity": 90}, {"time": 133440, "pitch": 69, "duration": 200, "velocity": 90}, {"time": 133440, "pitch": 74, "duration": 200, "velocity": 90}, {"time": 133920, "pitch": 66, "duration": 200, "velocity": 90}, {"time": 133920, "pitch": 69, "duration": 200, "velocity": 90}, {"time": 133920, "pitch": 74, "duration": 200, "velocity": 90}, {"time": 134400, "pitch": 65, "duration": 200, "velocity": 90}, {"time": 134400, "pitch": 69, "duration": 200, "velocity": 90}, {"time": 134400, "pitch": 72, "duration": 200, "velocity": 90}, {"time": 134880, "pitch": 65, "duration": 200, "velocity": 90}, {"time": 134880, "pitch": 69, "duration": 200, "velocity": 90}, {"time": 134880, "pitch": 72, "duration": 200, "velocity": 90}, {"time": 135360, "pitch": 65, "duration": 200, "velocity": 90}, {"time": 135360, "pitch": 69, "duration": 200, "velocity": 90}, {"time": 135360, "pitch": 72, "duration": 200, "velocity": 90}, {"time": 135840, "pitch": 65, "duration": 200, "velocity": 90}, {"time": 135840, "pitch": 69, "duration": 200, "velocity": 90}, {"time": 135840, "pitch": 72, "duration": 200, "velocity": 90}, {"time": 136320, "pitch": 64, "duration": 200, "velocity": 90}, {"time": 136320, "pitch": 67, "duration": 200, "velocity": 90}, {"time": 136320, "pitch": 72, "duration": 200, "velocity": 90}, {"time": 136800, "pitch": 64, "duration": 200, "velocity": 90}, {"time": 136800, "pitch": 67, "duration": 200, "velocity": 90}, {"time": 136800, "pitch": 72, "duration": 200, "velocity": 90}, {"time": 137280, "pitch": 64, "duration": 200, "velocity": 90}, {"time": 137280, "pitch": 67, "duration": 200, "velocity": 90}, {"time": 137280, "pitch": 72, "duration": 200, "velocity": 90}, {"time": 137760, "pitch": 64, "duration": 200, "velocity": 90}, {"time": 137760, "pitch": 67, "duration": 200, "velocity": 90}, {"time": 137760, "pitch": 72, "duration": 200, "velocity": 90}, {"time": 138240, "pitch": 65, "duration": 200, "velocity": 90}, {"time": 138240, "pitch": 69, "duration": 200, "velocity": 90}, {"time": 138240, "pitch": 74, "duration": 200, "velocity": 90}, {"time": 138720, "pitch": 65, "duration": 200, "velocity": 90}, {"time": 138720, "pitch": 69, "duration": 200, "velocity": 90}, {"time": 138720, "pitch": 74, "duration": 200, "velocity": 90}, {"time": 139200, "pitch": 65, "duration": 200, "velocity": 90}, {"time": 139200, "pitch": 69, "duration": 200, "velocity": 90}, {"time": 139200, "pitch": 74, "duration": 200, "velocity": 90}, {"time": 139680, "pitch": 65, "duration": 200, "velocity": 90}, {"time": 139680, "pitch": 69, "duration": 200, "velocity": 90}, {"time": 139680, "pitch": 74, "duration": 200, "velocity": 90}, {"time": 140160, "pitch": 67, "duration": 200, "velocity": 90}, {"time": 140160, "pitch": 71, "duration": 200, "velocity": 90}, {"time": 140160, "pitch": 74, "duration": 200, "velocity": 90}, {"time": 140640, "pitch": 67, "duration": 200, "velocity": 90}, {"time": 140640, "pitch": 71, "duration": 200, "velocity": 90}, {"time": 140640, "pitch": 74, "duration": 200, "velocity": 90}, {"time": 141120, "pitch": 43, "duration": 100, "velocity": 100}, {"time": 141120, "pitch": 65, "duration": 100, "velocity": 90}, {"time": 141120, "pitch": 69, "duration": 100, "velocity": 95}, {"time": 141120, "pitch": 74, "duration": 100, "velocity": 100}, {"time": 141360, "pitch": 43, "duration": 700, "velocity": 100}, {"time": 141360, "pitch": 65, "duration": 700, "velocity": 90}, {"time": 141360, "pitch": 69, "duration": 700, "velocity": 95}, {"time": 141360, "pitch": 74, "duration": 700, "velocity": 100}, {"time": 142080, "pitch": 48, "duration": 1900, "velocity": 90}, {"time": 142080, "pitch": 64, "duration": 1900, "velocity": 80}, {"time": 142080, "pitch": 67, "duration": 1900, "velocity": 85}, {"time": 142080, "pitch": 72, "duration": 1900, "velocity": 90}, {"time": 143280, "pitch": 76, "duration": 720, "velocity": 90}, {"time": 144000, "pitch": 47, "duration": 1900, "velocity": 90}, {"time": 144000, "pitch": 62, "duration": 1900, "velocity": 80}, {"time": 144000, "pitch": 67, "duration": 1900, "velocity": 85}, {"time": 144000, "pitch": 74, "duration": 1900, "velocity": 90}, {"time": 145200, "pitch": 71, "duration": 700, "velocity": 90}, {"time": 145920, "pitch": 46, "duration": 1900, "velocity": 90}, {"time": 145920, "pitch": 62, "duration": 1900, "velocity": 80}, {"time": 145920, "pitch": 67, "duration": 1900, "velocity": 85}, {"time": 145920, "pitch": 70, "duration": 1900, "velocity": 90}, {"time": 147120, "pitch": 74, "duration": 720, "velocity": 90}, {"time": 147840, "pitch": 45, "duration": 1900, "velocity": 90}, {"time": 147840, "pitch": 64, "duration": 1900, "velocity": 80}, {"time": 147840, "pitch": 67, "duration": 1200, "velocity": 85}, {"time": 147840, "pitch": 73, "duration": 1900, "velocity": 90}, {"time": 149040, "pitch": 67, "duration": 700, "velocity": 90}, {"time": 149760, "pitch": 44, "duration": 1900, "velocity": 90}, {"time": 149760, "pitch": 65, "duration": 1900, "velocity": 80}, {"time": 149760, "pitch": 68, "duration": 1900, "velocity": 85}, {"time": 149760, "pitch": 72, "duration": 1900, "velocity": 90}, {"time": 150720, "pitch": 74, "duration": 940, "velocity": 90}, {"time": 151680, "pitch": 43, "duration": 1900, "velocity": 90}, {"time": 151680, "pitch": 67, "duration": 1900, "velocity": 80}, {"time": 151680, "pitch": 72, "duration": 940, "velocity": 85}, {"time": 151680, "pitch": 76, "duration": 1900, "velocity": 90}, {"time": 152640, "pitch": 72, "duration": 940, "velocity": 90}, {"time": 153600, "pitch": 41, "duration": 1900, "velocity": 90}, {"time": 153600, "pitch": 65, "duration": 1900, "velocity": 80}, {"time": 153600, "pitch": 69, "duration": 1900, "velocity": 85}, {"time": 153600, "pitch": 74, "duration": 1900, "velocity": 90}, {"time": 154560, "pitch": 72, "duration": 720, "velocity": 90}, {"time": 155520, "pitch": 43, "duration": 1900, "velocity": 90}, {"time": 155520, "pitch": 65, "duration": 1900, "velocity": 80}, {"time": 155520, "pitch": 69, "duration": 1900, "velocity": 85}, {"time": 155520, "pitch": 76, "duration": 940, "velocity": 90}, {"time": 156480, "pitch": 74, "duration": 940, "velocity": 90}, {"time": 157440, "pitch": 48, "duration": 1900, "velocity": 90}, {"time": 157440, "pitch": 64, "duration": 1900, "velocity": 80}, {"time": 157440, "pitch": 67, "duration": 1900, "velocity": 85}, {"time": 157440, "pitch": 72, "duration": 1900, "velocity": 90}, {"time": 158640, "pitch": 76, "duration": 720, "velocity": 90}, {"time": 159360, "pitch": 47, "duration": 1900, "velocity": 90}, {"time": 159360, "pitch": 62, "duration": 1900, "velocity": 80}, {"time": 159360, "pitch": 67, "duration": 1900, "velocity": 85}, {"time": 159360, "pitch": 74, "duration": 1900, "velocity": 90}, {"time": 160560, "pitch": 71, "duration": 700, "velocity": 90}, {"time": 161280, "pitch": 46, "duration": 1900, "velocity": 90}, {"time": 161280, "pitch": 62, "duration": 1900, "velocity": 80}, {"time": 161280, "pitch": 67, "duration": 1900, "velocity": 85}, {"time": 161280, "pitch": 70, "duration": 1900, "velocity": 90}, {"time": 162480, "pitch": 74, "duration": 720, "velocity": 90}, {"time": 163200, "pitch": 45, "duration": 1900, "velocity": 90}, {"time": 163200, "pitch": 64, "duration": 1900, "velocity": 80}, {"time": 163200, "pitch": 67, "duration": 1200, "velocity": 85}, {"time": 163200, "pitch": 73, "duration": 1900, "velocity": 90}, {"time": 164400, "pitch": 67, "duration": 700, "velocity": 90}, {"time": 165120, "pitch": 44, "duration": 1900, "velocity": 90}, {"time": 165120, "pitch": 65, "duration": 1900, "velocity": 80}, {"time": 165120, "pitch": 68, "duration": 1900, "velocity": 85}, {"time": 165120, "pitch": 72, "duration": 1900, "velocity": 90}, {"time": 166080, "pitch": 74, "duration": 940, "velocity": 90}, {"time": 167040, "pitch": 43, "duration": 1900, "velocity": 90}, {"time": 167040, "pitch": 67, "duration": 1900, "velocity": 80}, {"time": 167040, "pitch": 72, "duration": 940, "velocity": 85}, {"time": 167040, "pitch": 76, "duration": 1900, "velocity": 90}, {"time": 168000, "pitch": 72, "duration": 940, "velocity": 90}, {"time": 168960, "pitch": 41, "duration": 1900, "velocity": 90}, {"time": 168960, "pitch": 65, "duration": 1900, "velocity": 80}, {"time": 168960, "pitch": 69, "duration": 1900, "velocity": 85}, {"time": 168960, "pitch": 74, "duration": 1900, "velocity": 90}, {"time": 169920, "pitch": 72, "duration": 720, "velocity": 90}, {"time": 170880, "pitch": 43, "duration": 940, "velocity": 90}, {"time": 170880, "pitch": 65, "duration": 940, "velocity": 80}, {"time": 170880, "pitch": 68, "duration": 940, "velocity": 85}, {"time": 170880, "pitch": 72, "duration": 940, "velocity": 90}, {"time": 171840, "pitch": 43, "duration": 940, "velocity": 90}, {"time": 171840, "pitch": 65, "duration": 940, "velocity": 80}, {"time": 171840, "pitch": 68, "duration": 940, "velocity": 85}, {"time": 171840, "pitch": 72, "duration": 940, "velocity": 90}, {"time": 172800, "pitch": 53, "duration": 1900, "velocity": 90}, {"time": 172800, "pitch": 65, "duration": 1900, "velocity": 80}, {"time": 172800, "pitch": 69, "duration": 1900, "velocity": 85}, {"time": 172800, "pitch": 74, "duration": 1900, "velocity": 90}, {"time": 174720, "pitch": 53, "duration": 1900, "velocity": 90}, {"time": 174720, "pitch": 65, "duration": 1900, "velocity": 80}, {"time": 174720, "pitch": 68, "duration": 1900, "velocity": 85}, {"time": 174720, "pitch": 72, "duration": 1900, "velocity": 90}, {"time": 176640, "pitch": 48, "duration": 1420, "velocity": 90}, {"time": 176640, "pitch": 64, "duration": 1420, "velocity": 80}, {"time": 176640, "pitch": 67, "duration": 1420, "velocity": 85}, {"time": 176640, "pitch": 72, "duration": 1420, "velocity": 90}, {"time": 178080, "pitch": 48, "duration": 200, "velocity": 90}, {"time": 178080, "pitch": 65, "duration": 200, "velocity": 80}, {"time": 178080, "pitch": 69, "duration": 200, "velocity": 85}, {"time": 178080, "pitch": 72, "duration": 200, "velocity": 90}, {"time": 178560, "pitch": 48, "duration": 1900, "velocity": 90}, {"time": 178560, "pitch": 64, "duration": 1900, "velocity": 80}, {"time": 178560, "pitch": 67, "duration": 1900, "velocity": 85}, {"time": 178560, "pitch": 72, "duration": 1900, "velocity": 90}, {"time": 180480, "pitch": 50, "duration": 940, "velocity": 90}, {"time": 180480, "pitch": 65, "duration": 940, "velocity": 80}, {"time": 180480, "pitch": 69, "duration": 940, "velocity": 85}, {"time": 180480, "pitch": 74, "duration": 940, "velocity": 90}, {"time": 181440, "pitch": 52, "duration": 940, "velocity": 90}, {"time": 181440, "pitch": 67, "duration": 940, "velocity": 80}, {"time": 181440, "pitch": 71, "duration": 940, "velocity": 85}, {"time": 181440, "pitch": 76, "duration": 940, "velocity": 90}, {"time": 182400, "pitch": 53, "duration": 1900, "velocity": 90}, {"time": 182400, "pitch": 65, "duration": 1900, "velocity": 80}, {"time": 182400, "pitch": 69, "duration": 1900, "velocity": 85}, {"time": 182400, "pitch": 72, "duration": 1900, "velocity": 90}, {"time": 184320, "pitch": 48, "duration": 1887, "velocity": 90}, {"time": 184320, "pitch": 65, "duration": 1887, "velocity": 80}, {"time": 184320, "pitch": 68, "duration": 1887, "velocity": 85}, {"time": 184320, "pitch": 74, "duration": 1887, "velocity": 90}, {"time": 186244, "pitch": 48, "duration": 2872, "velocity": 90}, {"time": 186244, "pitch": 64, "duration": 2872, "velocity": 80}, {"time": 186244, "pitch": 67, "duration": 2872, "velocity": 85}, {"time": 186244, "pitch": 72, "duration": 2872, "velocity": 90}, {"time": 322, "pitch": 36, "duration": 26, "velocity": 115}, {"time": 401, "pitch": 36, "duration": 66, "velocity": 105}, {"time": 480, "pitch": 31, "duration": 140, "velocity": 110}, {"time": 620, "pitch": 36, "duration": 200, "velocity": 110}, {"time": 860, "pitch": 31, "duration": 80, "velocity": 105}, {"time": 960, "pitch": 36, "duration": 80, "velocity": 110}, {"time": 1200, "pitch": 36, "duration": 200, "velocity": 105}, {"time": 1440, "pitch": 31, "duration": 140, "velocity": 110}, {"time": 1580, "pitch": 36, "duration": 200, "velocity": 110}, {"time": 1820, "pitch": 31, "duration": 80, "velocity": 105}, {"time": 1920, "pitch": 35, "duration": 80, "velocity": 115}, {"time": 2160, "pitch": 35, "duration": 200, "velocity": 105}, {"time": 2400, "pitch": 31, "duration": 140, "velocity": 110}, {"time": 2540, "pitch": 35, "duration": 200, "velocity": 110}, {"time": 2780, "pitch": 31, "duration": 80, "velocity": 105}, {"time": 2880, "pitch": 35, "duration": 80, "velocity": 110}, {"time": 3120, "pitch": 35, "duration": 200, "velocity": 105}, {"time": 3360, "pitch": 31, "duration": 140, "velocity": 110}, {"time": 3500, "pitch": 35, "duration": 200, "velocity": 110}, {"time": 3740, "pitch": 31, "duration": 80, "velocity": 105}, {"time": 3840, "pitch": 33, "duration": 80, "velocity": 115}, {"time": 4080, "pitch": 33, "duration": 200, "velocity": 105}, {"time": 4320, "pitch": 40, "duration": 140, "velocity": 110}, {"time": 4460, "pitch": 33, "duration": 200, "velocity": 110}, {"time": 4700, "pitch": 40, "duration": 80, "velocity": 105}, {"time": 4800, "pitch": 33, "duration": 80, "velocity": 110}, {"time": 5040, "pitch": 33, "duration": 200, "velocity": 105}, {"time": 5280, "pitch": 35, "duration": 140, "velocity": 110}, {"time": 5420, "pitch": 36, "duration": 200, "velocity": 110}, {"time": 5660, "pitch": 38, "duration": 80, "velocity": 105}, {"time": 5760, "pitch": 40, "duration": 80, "velocity": 115}, {"time": 6000, "pitch": 40, "duration": 200, "velocity": 105}, {"time": 6240, "pitch": 35, "duration": 140, "velocity": 110}, {"time": 6380, "pitch": 40, "duration": 220, "velocity": 110}, {"time": 6620, "pitch": 35, "duration": 80, "velocity": 105}, {"time": 6720, "pitch": 40, "duration": 80, "velocity": 110}, {"time": 6960, "pitch": 40, "duration": 200, "velocity": 105}, {"time": 7200, "pitch": 35, "duration": 140, "velocity": 110}, {"time": 7340, "pitch": 40, "duration": 200, "velocity": 110}, {"time": 7580, "pitch": 35, "duration": 80, "velocity": 105}, {"time": 7680, "pitch": 38, "duration": 80, "velocity": 115}, {"time": 7920, "pitch": 38, "duration": 200, "velocity": 105}, {"time": 8160, "pitch": 33, "duration": 140, "velocity": 110}, {"time": 8300, "pitch": 38, "duration": 200, "velocity": 110}, {"time": 8540, "pitch": 33, "duration": 80, "velocity": 105}, {"time": 8640, "pitch": 38, "duration": 80, "velocity": 110}, {"time": 8880, "pitch": 38, "duration": 200, "velocity": 105}, {"time": 9120, "pitch": 40, "duration": 140, "velocity": 110}, {"time": 9260, "pitch": 41, "duration": 200, "velocity": 110}, {"time": 9500, "pitch": 43, "duration": 80, "velocity": 105}, {"time": 9600, "pitch": 45, "duration": 80, "velocity": 115}, {"time": 9840, "pitch": 45, "duration": 200, "velocity": 105}, {"time": 10080, "pitch": 40, "duration": 140, "velocity": 110}, {"time": 10220, "pitch": 45, "duration": 200, "velocity": 110}, {"time": 10460, "pitch": 40, "duration": 80, "velocity": 105}, {"time": 10560, "pitch": 45, "duration": 80, "velocity": 115}, {"time": 10800, "pitch": 45, "duration": 200, "velocity": 105}, {"time": 11040, "pitch": 40, "duration": 140, "velocity": 110}, {"time": 11180, "pitch": 45, "duration": 200, "velocity": 110}, {"time": 11420, "pitch": 40, "duration": 80, "velocity": 105}, {"time": 11520, "pitch": 38, "duration": 80, "velocity": 115}, {"time": 11760, "pitch": 38, "duration": 200, "velocity": 105}, {"time": 12000, "pitch": 44, "duration": 140, "velocity": 110}, {"time": 12140, "pitch": 38, "duration": 200, "velocity": 110}, {"time": 12380, "pitch": 44, "duration": 80, "velocity": 105}, {"time": 12480, "pitch": 38, "duration": 80, "velocity": 115}, {"time": 12720, "pitch": 38, "duration": 200, "velocity": 105}, {"time": 12960, "pitch": 44, "duration": 140, "velocity": 110}, {"time": 13100, "pitch": 38, "duration": 200, "velocity": 110}, {"time": 13340, "pitch": 44, "duration": 80, "velocity": 105}, {"time": 13440, "pitch": 31, "duration": 80, "velocity": 115}, {"time": 13680, "pitch": 43, "duration": 200, "velocity": 105}, {"time": 13920, "pitch": 38, "duration": 140, "velocity": 110}, {"time": 14060, "pitch": 43, "duration": 200, "velocity": 110}, {"time": 14300, "pitch": 38, "duration": 80, "velocity": 105}, {"time": 14400, "pitch": 31, "duration": 120, "velocity": 115}, {"time": 14540, "pitch": 31, "duration": 220, "velocity": 110}, {"time": 14780, "pitch": 33, "duration": 100, "velocity": 110}, {"time": 14880, "pitch": 35, "duration": 120, "velocity": 115}, {"time": 15020, "pitch": 36, "duration": 200, "velocity": 110}, {"time": 15260, "pitch": 38, "duration": 100, "velocity": 110}, {"time": 15360, "pitch": 36, "duration": 80, "velocity": 115}, {"time": 15600, "pitch": 36, "duration": 200, "velocity": 105}, {"time": 15840, "pitch": 31, "duration": 140, "velocity": 110}, {"time": 15980, "pitch": 36, "duration": 200, "velocity": 110}, {"time": 16220, "pitch": 31, "duration": 80, "velocity": 105}, {"time": 16320, "pitch": 36, "duration": 80, "velocity": 110}, {"time": 16560, "pitch": 36, "duration": 200, "velocity": 105}, {"time": 16800, "pitch": 31, "duration": 140, "velocity": 110}, {"time": 16940, "pitch": 36, "duration": 200, "velocity": 110}, {"time": 17180, "pitch": 31, "duration": 80, "velocity": 105}, {"time": 17280, "pitch": 35, "duration": 80, "velocity": 115}, {"time": 17520, "pitch": 35, "duration": 200, "velocity": 105}, {"time": 17760, "pitch": 31, "duration": 140, "velocity": 110}, {"time": 17900, "pitch": 35, "duration": 200, "velocity": 110}, {"time": 18140, "pitch": 31, "duration": 80, "velocity": 105}, {"time": 18240, "pitch": 35, "duration": 80, "velocity": 110}, {"time": 18480, "pitch": 35, "duration": 200, "velocity": 105}, {"time": 18720, "pitch": 31, "duration": 140, "velocity": 110}, {"time": 18860, "pitch": 35, "duration": 200, "velocity": 110}, {"time": 19100, "pitch": 31, "duration": 80, "velocity": 105}, {"time": 19200, "pitch": 33, "duration": 80, "velocity": 115}, {"time": 19440, "pitch": 33, "duration": 200, "velocity": 105}, {"time": 19680, "pitch": 40, "duration": 140, "velocity": 110}, {"time": 19820, "pitch": 33, "duration": 200, "velocity": 110}, {"time": 20060, "pitch": 40, "duration": 80, "velocity": 105}, {"time": 20160, "pitch": 33, "duration": 80, "velocity": 110}, {"time": 20400, "pitch": 33, "duration": 200, "velocity": 105}, {"time": 20640, "pitch": 35, "duration": 140, "velocity": 110}, {"time": 20780, "pitch": 36, "duration": 200, "velocity": 110}, {"time": 21020, "pitch": 38, "duration": 80, "velocity": 105}, {"time": 21120, "pitch": 40, "duration": 80, "velocity": 115}, {"time": 21360, "pitch": 40, "duration": 200, "velocity": 105}, {"time": 21600, "pitch": 35, "duration": 140, "velocity": 110}, {"time": 21740, "pitch": 40, "duration": 200, "velocity": 110}, {"time": 21980, "pitch": 35, "duration": 80, "velocity": 105}, {"time": 22080, "pitch": 40, "duration": 80, "velocity": 110}, {"time": 22320, "pitch": 40, "duration": 200, "velocity": 105}, {"time": 22560, "pitch": 35, "duration": 140, "velocity": 110}, {"time": 22700, "pitch": 40, "duration": 200, "velocity": 110}, {"time": 22940, "pitch": 35, "duration": 80, "velocity": 105}, {"time": 23040, "pitch": 38, "duration": 80, "velocity": 115}, {"time": 23280, "pitch": 38, "duration": 200, "velocity": 105}, {"time": 23520, "pitch": 33, "duration": 140, "velocity": 110}, {"time": 23660, "pitch": 38, "duration": 200, "velocity": 110}, {"time": 23900, "pitch": 33, "duration": 80, "velocity": 105}, {"time": 24000, "pitch": 38, "duration": 80, "velocity": 110}, {"time": 24240, "pitch": 38, "duration": 200, "velocity": 105}, {"time": 24480, "pitch": 40, "duration": 140, "velocity": 110}, {"time": 24620, "pitch": 41, "duration": 200, "velocity": 110}, {"time": 24860, "pitch": 43, "duration": 80, "velocity": 105}, {"time": 24960, "pitch": 45, "duration": 80, "velocity": 115}, {"time": 25200, "pitch": 45, "duration": 200, "velocity": 105}, {"time": 25440, "pitch": 40, "duration": 140, "velocity": 110}, {"time": 25580, "pitch": 45, "duration": 200, "velocity": 110}, {"time": 25820, "pitch": 40, "duration": 80, "velocity": 105}, {"time": 25920, "pitch": 45, "duration": 80, "velocity": 115}, {"time": 26160, "pitch": 45, "duration": 200, "velocity": 105}, {"time": 26400, "pitch": 40, "duration": 140, "velocity": 110}, {"time": 26540, "pitch": 45, "duration": 200, "velocity": 110}, {"time": 26780, "pitch": 40, "duration": 80, "velocity": 105}, {"time": 26880, "pitch": 38, "duration": 80, "velocity": 115}, {"time": 27120, "pitch": 38, "duration": 200, "velocity": 105}, {"time": 27360, "pitch": 44, "duration": 140, "velocity": 110}, {"time": 27500, "pitch": 38, "duration": 200, "velocity": 110}, {"time": 27740, "pitch": 44, "duration": 80, "velocity": 105}, {"time": 27840, "pitch": 38, "duration": 80, "velocity": 115}, {"time": 28080, "pitch": 38, "duration": 200, "velocity": 105}, {"time": 28320, "pitch": 44, "duration": 140, "velocity": 110}, {"time": 28460, "pitch": 38, "duration": 200, "velocity": 110}, {"time": 28700, "pitch": 44, "duration": 80, "velocity": 105}, {"time": 28800, "pitch": 31, "duration": 80, "velocity": 115}, {"time": 29040, "pitch": 43, "duration": 200, "velocity": 105}, {"time": 29280, "pitch": 38, "duration": 140, "velocity": 110}, {"time": 29420, "pitch": 43, "duration": 200, "velocity": 110}, {"time": 29660, "pitch": 38, "duration": 80, "velocity": 105}, {"time": 29760, "pitch": 31, "duration": 120, "velocity": 115}, {"time": 29900, "pitch": 31, "duration": 220, "velocity": 110}, {"time": 30140, "pitch": 33, "duration": 100, "velocity": 110}, {"time": 30240, "pitch": 35, "duration": 120, "velocity": 115}, {"time": 30380, "pitch": 36, "duration": 200, "velocity": 110}, {"time": 30620, "pitch": 38, "duration": 100, "velocity": 110}, {"time": 30720, "pitch": 44, "duration": 80, "velocity": 115}, {"time": 30960, "pitch": 44, "duration": 200, "velocity": 105}, {"time": 31200, "pitch": 38, "duration": 140, "velocity": 110}, {"time": 31340, "pitch": 44, "duration": 200, "velocity": 110}, {"time": 31580, "pitch": 38, "duration": 80, "velocity": 105}, {"time": 31680, "pitch": 44, "duration": 120, "velocity": 115}, {"time": 31920, "pitch": 32, "duration": 220, "velocity": 110}, {"time": 32160, "pitch": 32, "duration": 220, "velocity": 115}, {"time": 32400, "pitch": 32, "duration": 220, "velocity": 110}, {"time": 32640, "pitch": 33, "duration": 100, "velocity": 115}, {"time": 32880, "pitch": 33, "duration": 100, "velocity": 110}, {"time": 33120, "pitch": 33, "duration": 360, "velocity": 115}, {"time": 33500, "pitch": 33, "duration": 100, "velocity": 110}, {"time": 33740, "pitch": 33, "duration": 100, "velocity": 110}, {"time": 33840, "pitch": 33, "duration": 220, "velocity": 115}, {"time": 34080, "pitch": 33, "duration": 100, "velocity": 110}, {"time": 34220, "pitch": 33, "duration": 220, "velocity": 115}, {"time": 34460, "pitch": 33, "duration": 80, "velocity": 110}, {"time": 34560, "pitch": 32, "duration": 100, "velocity": 115}, {"time": 34800, "pitch": 32, "duration": 100, "velocity": 110}, {"time": 35040, "pitch": 32, "duration": 360, "velocity": 115}, {"time": 35420, "pitch": 32, "duration": 100, "velocity": 110}, {"time": 35660, "pitch": 32, "duration": 100, "velocity": 110}, {"time": 35760, "pitch": 32, "duration": 220, "velocity": 115}, {"time": 36000, "pitch": 32, "duration": 100, "velocity": 110}, {"time": 36140, "pitch": 32, "duration": 220, "velocity": 115}, {"time": 36380, "pitch": 32, "duration": 80, "velocity": 110}, {"time": 36480, "pitch": 31, "duration": 100, "velocity": 115}, {"time": 36720, "pitch": 31, "duration": 100, "velocity": 110}, {"time": 36960, "pitch": 31, "duration": 360, "velocity": 115}, {"time": 37340, "pitch": 31, "duration": 100, "velocity": 110}, {"time": 37580, "pitch": 31, "duration": 100, "velocity": 110}, {"time": 37680, "pitch": 31, "duration": 220, "velocity": 115}, {"time": 37920, "pitch": 31, "duration": 100, "velocity": 110}, {"time": 38060, "pitch": 31, "duration": 220, "velocity": 115}, {"time": 38300, "pitch": 31, "duration": 80, "velocity": 110}, {"time": 38400, "pitch": 30, "duration": 100, "velocity": 115}, {"time": 38640, "pitch": 30, "duration": 100, "velocity": 110}, {"time": 38880, "pitch": 30, "duration": 360, "velocity": 115}, {"time": 39260, "pitch": 30, "duration": 100, "velocity": 110}, {"time": 39500, "pitch": 30, "duration": 100, "velocity": 110}, {"time": 39600, "pitch": 30, "duration": 220, "velocity": 115}, {"time": 39840, "pitch": 30, "duration": 100, "velocity": 110}, {"time": 39980, "pitch": 30, "duration": 220, "velocity": 115}, {"time": 40220, "pitch": 30, "duration": 80, "velocity": 110}, {"time": 40320, "pitch": 29, "duration": 100, "velocity": 115}, {"time": 40560, "pitch": 29, "duration": 100, "velocity": 110}, {"time": 40800, "pitch": 29, "duration": 360, "velocity": 115}, {"time": 41180, "pitch": 29, "duration": 100, "velocity": 110}, {"time": 41420, "pitch": 29, "duration": 100, "velocity": 110}, {"time": 41520, "pitch": 29, "duration": 220, "velocity": 115}, {"time": 41760, "pitch": 29, "duration": 100, "velocity": 110}, {"time": 41900, "pitch": 29, "duration": 220, "velocity": 115}, {"time": 42140, "pitch": 29, "duration": 80, "velocity": 110}, {"time": 42240, "pitch": 28, "duration": 100, "velocity": 115}, {"time": 42480, "pitch": 28, "duration": 100, "velocity": 110}, {"time": 42720, "pitch": 28, "duration": 360, "velocity": 115}, {"time": 43100, "pitch": 28, "duration": 100, "velocity": 110}, {"time": 43340, "pitch": 28, "duration": 100, "velocity": 110}, {"time": 43440, "pitch": 28, "duration": 220, "velocity": 115}, {"time": 43680, "pitch": 28, "duration": 100, "velocity": 110}, {"time": 43820, "pitch": 28, "duration": 220, "velocity": 115}, {"time": 44060, "pitch": 28, "duration": 80, "velocity": 110}, {"time": 44160, "pitch": 38, "duration": 100, "velocity": 115}, {"time": 44400, "pitch": 38, "duration": 100, "velocity": 110}, {"time": 44640, "pitch": 28, "duration": 360, "velocity": 115}, {"time": 45020, "pitch": 28, "duration": 140, "velocity": 110}, {"time": 45260, "pitch": 29, "duration": 100, "velocity": 110}, {"time": 45360, "pitch": 29, "duration": 220, "velocity": 115}, {"time": 45600, "pitch": 30, "duration": 100, "velocity": 110}, {"time": 45740, "pitch": 30, "duration": 220, "velocity": 115}, {"time": 45980, "pitch": 30, "duration": 80, "velocity": 110}, {"time": 46080, "pitch": 31, "duration": 100, "velocity": 115}, {"time": 46320, "pitch": 31, "duration": 100, "velocity": 110}, {"time": 46560, "pitch": 31, "duration": 320, "velocity": 115}, {"time": 46940, "pitch": 31, "duration": 100, "velocity": 110}, {"time": 47040, "pitch": 31, "duration": 100, "velocity": 110}, {"time": 47180, "pitch": 31, "duration": 320, "velocity": 115}, {"time": 47520, "pitch": 32, "duration": 100, "velocity": 110}, {"time": 47660, "pitch": 32, "duration": 320, "velocity": 115}, {"time": 48000, "pitch": 33, "duration": 100, "velocity": 115}, {"time": 48240, "pitch": 33, "duration": 100, "velocity": 110}, {"time": 48480, "pitch": 33, "duration": 360, "velocity": 115}, {"time": 48860, "pitch": 33, "duration": 100, "velocity": 110}, {"time": 49100, "pitch": 33, "duration": 100, "velocity": 110}, {"time": 49200, "pitch": 33, "duration": 220, "velocity": 115}, {"time": 49440, "pitch": 33, "duration": 100, "velocity": 110}, {"time": 49580, "pitch": 33, "duration": 220, "velocity": 115}, {"time": 49820, "pitch": 33, "duration": 80, "velocity": 110}, {"time": 49920, "pitch": 32, "duration": 100, "velocity": 115}, {"time": 50160, "pitch": 32, "duration": 100, "velocity": 110}, {"time": 50400, "pitch": 32, "duration": 360, "velocity": 115}, {"time": 50780, "pitch": 32, "duration": 100, "velocity": 110}, {"time": 51020, "pitch": 32, "duration": 100, "velocity": 110}, {"time": 51120, "pitch": 32, "duration": 220, "velocity": 115}, {"time": 51360, "pitch": 32, "duration": 100, "velocity": 110}, {"time": 51500, "pitch": 32, "duration": 220, "velocity": 115}, {"time": 51740, "pitch": 32, "duration": 80, "velocity": 110}, {"time": 51840, "pitch": 31, "duration": 100, "velocity": 115}, {"time": 52080, "pitch": 31, "duration": 100, "velocity": 110}, {"time": 52320, "pitch": 31, "duration": 360, "velocity": 115}, {"time": 52700, "pitch": 31, "duration": 100, "velocity": 110}, {"time": 52940, "pitch": 31, "duration": 100, "velocity": 110}, {"time": 53040, "pitch": 31, "duration": 220, "velocity": 115}, {"time": 53280, "pitch": 31, "duration": 100, "velocity": 110}, {"time": 53420, "pitch": 31, "duration": 220, "velocity": 115}, {"time": 53660, "pitch": 31, "duration": 80, "velocity": 110}, {"time": 53760, "pitch": 30, "duration": 100, "velocity": 115}, {"time": 54000, "pitch": 30, "duration": 100, "velocity": 110}, {"time": 54240, "pitch": 30, "duration": 360, "velocity": 115}, {"time": 54620, "pitch": 30, "duration": 100, "velocity": 110}, {"time": 54860, "pitch": 30, "duration": 100, "velocity": 110}, {"time": 54960, "pitch": 30, "duration": 220, "velocity": 115}, {"time": 55200, "pitch": 30, "duration": 100, "velocity": 110}, {"time": 55340, "pitch": 30, "duration": 220, "velocity": 115}, {"time": 55580, "pitch": 30, "duration": 80, "velocity": 110}, {"time": 55680, "pitch": 29, "duration": 100, "velocity": 115}, {"time": 55920, "pitch": 29, "duration": 100, "velocity": 110}, {"time": 56160, "pitch": 29, "duration": 360, "velocity": 115}, {"time": 56540, "pitch": 29, "duration": 100, "velocity": 110}, {"time": 56780, "pitch": 29, "duration": 100, "velocity": 110}, {"time": 56880, "pitch": 29, "duration": 220, "velocity": 115}, {"time": 57120, "pitch": 29, "duration": 100, "velocity": 110}, {"time": 57260, "pitch": 29, "duration": 220, "velocity": 115}, {"time": 57500, "pitch": 29, "duration": 80, "velocity": 110}, {"time": 57600, "pitch": 28, "duration": 100, "velocity": 115}, {"time": 57840, "pitch": 28, "duration": 100, "velocity": 110}, {"time": 58080, "pitch": 28, "duration": 360, "velocity": 115}, {"time": 58460, "pitch": 40, "duration": 100, "velocity": 110}, {"time": 58700, "pitch": 40, "duration": 100, "velocity": 110}, {"time": 58800, "pitch": 40, "duration": 220, "velocity": 115}, {"time": 59040, "pitch": 40, "duration": 100, "velocity": 110}, {"time": 59180, "pitch": 40, "duration": 220, "velocity": 115}, {"time": 59420, "pitch": 40, "duration": 80, "velocity": 110}, {"time": 59520, "pitch": 38, "duration": 100, "velocity": 115}, {"time": 59760, "pitch": 38, "duration": 100, "velocity": 110}, {"time": 60000, "pitch": 38, "duration": 360, "velocity": 115}, {"time": 60380, "pitch": 40, "duration": 140, "velocity": 110}, {"time": 60620, "pitch": 40, "duration": 100, "velocity": 110}, {"time": 60720, "pitch": 40, "duration": 220, "velocity": 115}, {"time": 60960, "pitch": 41, "duration": 100, "velocity": 110}, {"time": 61100, "pitch": 41, "duration": 220, "velocity": 115}, {"time": 61340, "pitch": 42, "duration": 80, "velocity": 110}, {"time": 61440, "pitch": 43, "duration": 100, "velocity": 115}, {"time": 61680, "pitch": 31, "duration": 100, "velocity": 110}, {"time": 61920, "pitch": 31, "duration": 320, "velocity": 115}, {"time": 62300, "pitch": 31, "duration": 100, "velocity": 115}, {"time": 62400, "pitch": 31, "duration": 120, "velocity": 110}, {"time": 62640, "pitch": 31, "duration": 800, "velocity": 115}, {"time": 63360, "pitch": 36, "duration": 80, "velocity": 115}, {"time": 63600, "pitch": 36, "duration": 200, "velocity": 105}, {"time": 63840, "pitch": 31, "duration": 140, "velocity": 110}, {"time": 63980, "pitch": 36, "duration": 200, "velocity": 110}, {"time": 64220, "pitch": 31, "duration": 80, "velocity": 105}, {"time": 64320, "pitch": 36, "duration": 80, "velocity": 110}, {"time": 64560, "pitch": 36, "duration": 200, "velocity": 105}, {"time": 64800, "pitch": 31, "duration": 140, "velocity": 110}, {"time": 64940, "pitch": 36, "duration": 200, "velocity": 110}, {"time": 65180, "pitch": 31, "duration": 80, "velocity": 105}, {"time": 65280, "pitch": 35, "duration": 80, "velocity": 115}, {"time": 65520, "pitch": 35, "duration": 200, "velocity": 105}, {"time": 65760, "pitch": 31, "duration": 140, "velocity": 110}, {"time": 65900, "pitch": 35, "duration": 200, "velocity": 110}, {"time": 66140, "pitch": 31, "duration": 80, "velocity": 105}, {"time": 66240, "pitch": 35, "duration": 80, "velocity": 110}, {"time": 66480, "pitch": 35, "duration": 200, "velocity": 105}, {"time": 66720, "pitch": 31, "duration": 140, "velocity": 110}, {"time": 66860, "pitch": 35, "duration": 200, "velocity": 110}, {"time": 67100, "pitch": 31, "duration": 80, "velocity": 105}, {"time": 67200, "pitch": 34, "duration": 80, "velocity": 115}, {"time": 67440, "pitch": 34, "duration": 200, "velocity": 105}, {"time": 67680, "pitch": 31, "duration": 140, "velocity": 110}, {"time": 67820, "pitch": 34, "duration": 200, "velocity": 110}, {"time": 68060, "pitch": 31, "duration": 80, "velocity": 105}, {"time": 68160, "pitch": 34, "duration": 80, "velocity": 110}, {"time": 68400, "pitch": 34, "duration": 200, "velocity": 105}, {"time": 68640, "pitch": 31, "duration": 140, "velocity": 110}, {"time": 68780, "pitch": 34, "duration": 200, "velocity": 110}, {"time": 69020, "pitch": 31, "duration": 80, "velocity": 105}, {"time": 69120, "pitch": 33, "duration": 80, "velocity": 115}, {"time": 69360, "pitch": 33, "duration": 200, "velocity": 105}, {"time": 69600, "pitch": 28, "duration": 140, "velocity": 110}, {"time": 69740, "pitch": 33, "duration": 200, "velocity": 110}, {"time": 69980, "pitch": 28, "duration": 80, "velocity": 105}, {"time": 70080, "pitch": 33, "duration": 80, "velocity": 110}, {"time": 70320, "pitch": 33, "duration": 200, "velocity": 105}, {"time": 70560, "pitch": 28, "duration": 140, "velocity": 110}, {"time": 70700, "pitch": 33, "duration": 200, "velocity": 110}, {"time": 70940, "pitch": 28, "duration": 80, "velocity": 105}, {"time": 71040, "pitch": 32, "duration": 80, "velocity": 115}, {"time": 71280, "pitch": 32, "duration": 200, "velocity": 105}, {"time": 71520, "pitch": 29, "duration": 140, "velocity": 110}, {"time": 71660, "pitch": 32, "duration": 200, "velocity": 110}, {"time": 71900, "pitch": 29, "duration": 80, "velocity": 105}, {"time": 72000, "pitch": 32, "duration": 80, "velocity": 110}, {"time": 72240, "pitch": 32, "duration": 200, "velocity": 105}, {"time": 72480, "pitch": 29, "duration": 140, "velocity": 110}, {"time": 72620, "pitch": 32, "duration": 200, "velocity": 110}, {"time": 72860, "pitch": 29, "duration": 80, "velocity": 105}, {"time": 72960, "pitch": 31, "duration": 80, "velocity": 115}, {"time": 73200, "pitch": 31, "duration": 200, "velocity": 105}, {"time": 73440, "pitch": 36, "duration": 140, "velocity": 110}, {"time": 73580, "pitch": 31, "duration": 200, "velocity": 110}, {"time": 73820, "pitch": 36, "duration": 80, "velocity": 105}, {"time": 73920, "pitch": 31, "duration": 80, "velocity": 110}, {"time": 74160, "pitch": 31, "duration": 200, "velocity": 105}, {"time": 74400, "pitch": 36, "duration": 140, "velocity": 110}, {"time": 74540, "pitch": 31, "duration": 200, "velocity": 110}, {"time": 74780, "pitch": 36, "duration": 80, "velocity": 105}, {"time": 74880, "pitch": 38, "duration": 80, "velocity": 115}, {"time": 75120, "pitch": 38, "duration": 200, "velocity": 105}, {"time": 75360, "pitch": 33, "duration": 140, "velocity": 110}, {"time": 75500, "pitch": 38, "duration": 200, "velocity": 110}, {"time": 75740, "pitch": 33, "duration": 80, "velocity": 105}, {"time": 75840, "pitch": 38, "duration": 80, "velocity": 110}, {"time": 76080, "pitch": 38, "duration": 200, "velocity": 105}, {"time": 76320, "pitch": 33, "duration": 140, "velocity": 110}, {"time": 76460, "pitch": 38, "duration": 200, "velocity": 110}, {"time": 76700, "pitch": 33, "duration": 80, "velocity": 105}, {"time": 76800, "pitch": 31, "duration": 80, "velocity": 115}, {"time": 77040, "pitch": 31, "duration": 200, "velocity": 105}, {"time": 77280, "pitch": 38, "duration": 140, "velocity": 110}, {"time": 77420, "pitch": 31, "duration": 200, "velocity": 110}, {"time": 77660, "pitch": 38, "duration": 80, "velocity": 105}, {"time": 77760, "pitch": 43, "duration": 140, "velocity": 110}, {"time": 77900, "pitch": 43, "duration": 200, "velocity": 110}, {"time": 78140, "pitch": 43, "duration": 80, "velocity": 105}, {"time": 78240, "pitch": 43, "duration": 200, "velocity": 110}, {"time": 78480, "pitch": 43, "duration": 140, "velocity": 110}, {"time": 78620, "pitch": 43, "duration": 80, "velocity": 105}, {"time": 78720, "pitch": 36, "duration": 80, "velocity": 115}, {"time": 78960, "pitch": 36, "duration": 200, "velocity": 105}, {"time": 79200, "pitch": 31, "duration": 140, "velocity": 110}, {"time": 79340, "pitch": 36, "duration": 200, "velocity": 110}, {"time": 79580, "pitch": 31, "duration": 80, "velocity": 105}, {"time": 79680, "pitch": 36, "duration": 80, "velocity": 110}, {"time": 79920, "pitch": 36, "duration": 200, "velocity": 105}, {"time": 80160, "pitch": 31, "duration": 140, "velocity": 110}, {"time": 80300, "pitch": 36, "duration": 200, "velocity": 110}, {"time": 80540, "pitch": 31, "duration": 80, "velocity": 105}, {"time": 80640, "pitch": 35, "duration": 80, "velocity": 115}, {"time": 80880, "pitch": 35, "duration": 200, "velocity": 105}, {"time": 81120, "pitch": 31, "duration": 140, "velocity": 110}, {"time": 81260, "pitch": 35, "duration": 200, "velocity": 110}, {"time": 81500, "pitch": 31, "duration": 80, "velocity": 105}, {"time": 81600, "pitch": 35, "duration": 80, "velocity": 110}, {"time": 81840, "pitch": 35, "duration": 200, "velocity": 105}, {"time": 82080, "pitch": 31, "duration": 140, "velocity": 110}, {"time": 82220, "pitch": 35, "duration": 200, "velocity": 110}, {"time": 82460, "pitch": 31, "duration": 80, "velocity": 105}, {"time": 82560, "pitch": 34, "duration": 80, "velocity": 115}, {"time": 82800, "pitch": 34, "duration": 200, "velocity": 105}, {"time": 83040, "pitch": 31, "duration": 140, "velocity": 110}, {"time": 83180, "pitch": 34, "duration": 200, "velocity": 110}, {"time": 83420, "pitch": 31, "duration": 80, "velocity": 105}, {"time": 83520, "pitch": 34, "duration": 80, "velocity": 110}, {"time": 83760, "pitch": 34, "duration": 200, "velocity": 105}, {"time": 84000, "pitch": 31, "duration": 140, "velocity": 110}, {"time": 84140, "pitch": 34, "duration": 200, "velocity": 110}, {"time": 84380, "pitch": 31, "duration": 80, "velocity": 105}, {"time": 84480, "pitch": 33, "duration": 80, "velocity": 115}, {"time": 84720, "pitch": 33, "duration": 200, "velocity": 105}, {"time": 84960, "pitch": 28, "duration": 140, "velocity": 110}, {"time": 85100, "pitch": 33, "duration": 200, "velocity": 110}, {"time": 85340, "pitch": 28, "duration": 80, "velocity": 105}, {"time": 85440, "pitch": 33, "duration": 80, "velocity": 110}, {"time": 85680, "pitch": 33, "duration": 200, "velocity": 105}, {"time": 85920, "pitch": 28, "duration": 140, "velocity": 110}, {"time": 86060, "pitch": 33, "duration": 200, "velocity": 110}, {"time": 86300, "pitch": 28, "duration": 80, "velocity": 105}, {"time": 86400, "pitch": 32, "duration": 80, "velocity": 115}, {"time": 86640, "pitch": 32, "duration": 200, "velocity": 105}, {"time": 86880, "pitch": 29, "duration": 140, "velocity": 110}, {"time": 87020, "pitch": 32, "duration": 200, "velocity": 110}, {"time": 87260, "pitch": 29, "duration": 80, "velocity": 105}, {"time": 87360, "pitch": 32, "duration": 80, "velocity": 110}, {"time": 87600, "pitch": 32, "duration": 200, "velocity": 105}, {"time": 87840, "pitch": 29, "duration": 140, "velocity": 110}, {"time": 87980, "pitch": 32, "duration": 200, "velocity": 110}, {"time": 88220, "pitch": 29, "duration": 80, "velocity": 105}, {"time": 88320, "pitch": 31, "duration": 80, "velocity": 115}, {"time": 88560, "pitch": 31, "duration": 200, "velocity": 105}, {"time": 88800, "pitch": 36, "duration": 140, "velocity": 110}, {"time": 88940, "pitch": 31, "duration": 200, "velocity": 110}, {"time": 89180, "pitch": 36, "duration": 80, "velocity": 105}, {"time": 89280, "pitch": 31, "duration": 80, "velocity": 110}, {"time": 89520, "pitch": 31, "duration": 200, "velocity": 105}, {"time": 89760, "pitch": 36, "duration": 140, "velocity": 110}, {"time": 89900, "pitch": 31, "duration": 200, "velocity": 110}, {"time": 90140, "pitch": 36, "duration": 80, "velocity": 105}, {"time": 90240, "pitch": 38, "duration": 80, "velocity": 115}, {"time": 90480, "pitch": 38, "duration": 200, "velocity": 105}, {"time": 90720, "pitch": 33, "duration": 140, "velocity": 110}, {"time": 90860, "pitch": 38, "duration": 200, "velocity": 110}, {"time": 91100, "pitch": 33, "duration": 80, "velocity": 105}, {"time": 91200, "pitch": 38, "duration": 80, "velocity": 110}, {"time": 91440, "pitch": 38, "duration": 200, "velocity": 105}, {"time": 91680, "pitch": 33, "duration": 140, "velocity": 110}, {"time": 91820, "pitch": 38, "duration": 200, "velocity": 110}, {"time": 92060, "pitch": 33, "duration": 80, "velocity": 105}, {"time": 92160, "pitch": 31, "duration": 80, "velocity": 115}, {"time": 92400, "pitch": 31, "duration": 200, "velocity": 105}, {"time": 92640, "pitch": 38, "duration": 140, "velocity": 110}, {"time": 92780, "pitch": 31, "duration": 200, "velocity": 110}, {"time": 93020, "pitch": 38, "duration": 80, "velocity": 105}, {"time": 93120, "pitch": 31, "duration": 940, "velocity": 110}, {"time": 94080, "pitch": 36, "duration": 80, "velocity": 115}, {"time": 94320, "pitch": 36, "duration": 200, "velocity": 105}, {"time": 94560, "pitch": 31, "duration": 140, "velocity": 110}, {"time": 94700, "pitch": 36, "duration": 200, "velocity": 110}, {"time": 94940, "pitch": 31, "duration": 80, "velocity": 105}, {"time": 95040, "pitch": 36, "duration": 80, "velocity": 110}, {"time": 95280, "pitch": 36, "duration": 200, "velocity": 105}, {"time": 95520, "pitch": 31, "duration": 140, "velocity": 110}, {"time": 95660, "pitch": 36, "duration": 200, "velocity": 110}, {"time": 95900, "pitch": 31, "duration": 80, "velocity": 105}, {"time": 96000, "pitch": 35, "duration": 80, "velocity": 115}, {"time": 96240, "pitch": 35, "duration": 200, "velocity": 105}, {"time": 96480, "pitch": 31, "duration": 140, "velocity": 110}, {"time": 96620, "pitch": 35, "duration": 200, "velocity": 110}, {"time": 96860, "pitch": 31, "duration": 80, "velocity": 105}, {"time": 96960, "pitch": 35, "duration": 80, "velocity": 110}, {"time": 97200, "pitch": 35, "duration": 200, "velocity": 105}, {"time": 97440, "pitch": 31, "duration": 140, "velocity": 110}, {"time": 97580, "pitch": 35, "duration": 200, "velocity": 110}, {"time": 97820, "pitch": 31, "duration": 80, "velocity": 105}, {"time": 97920, "pitch": 33, "duration": 80, "velocity": 115}, {"time": 98160, "pitch": 33, "duration": 200, "velocity": 105}, {"time": 98400, "pitch": 40, "duration": 140, "velocity": 110}, {"time": 98540, "pitch": 33, "duration": 200, "velocity": 110}, {"time": 98780, "pitch": 40, "duration": 80, "velocity": 105}, {"time": 98880, "pitch": 33, "duration": 80, "velocity": 110}, {"time": 99120, "pitch": 33, "duration": 200, "velocity": 105}, {"time": 99360, "pitch": 35, "duration": 140, "velocity": 110}, {"time": 99500, "pitch": 36, "duration": 200, "velocity": 110}, {"time": 99740, "pitch": 38, "duration": 80, "velocity": 105}, {"time": 99840, "pitch": 40, "duration": 80, "velocity": 115}, {"time": 100080, "pitch": 40, "duration": 200, "velocity": 105}, {"time": 100320, "pitch": 35, "duration": 140, "velocity": 110}, {"time": 100460, "pitch": 40, "duration": 200, "velocity": 110}, {"time": 100700, "pitch": 35, "duration": 80, "velocity": 105}, {"time": 100800, "pitch": 40, "duration": 80, "velocity": 110}, {"time": 101040, "pitch": 40, "duration": 200, "velocity": 105}, {"time": 101280, "pitch": 35, "duration": 140, "velocity": 110}, {"time": 101420, "pitch": 40, "duration": 200, "velocity": 110}, {"time": 101660, "pitch": 35, "duration": 80, "velocity": 105}, {"time": 101760, "pitch": 38, "duration": 80, "velocity": 115}, {"time": 102000, "pitch": 38, "duration": 200, "velocity": 105}, {"time": 102240, "pitch": 33, "duration": 140, "velocity": 110}, {"time": 102380, "pitch": 38, "duration": 200, "velocity": 110}, {"time": 102620, "pitch": 33, "duration": 80, "velocity": 105}, {"time": 102720, "pitch": 38, "duration": 80, "velocity": 110}, {"time": 102960, "pitch": 38, "duration": 200, "velocity": 105}, {"time": 103200, "pitch": 40, "duration": 140, "velocity": 110}, {"time": 103340, "pitch": 41, "duration": 200, "velocity": 110}, {"time": 103580, "pitch": 43, "duration": 80, "velocity": 105}, {"time": 103680, "pitch": 45, "duration": 80, "velocity": 115}, {"time": 103920, "pitch": 45, "duration": 200, "velocity": 105}, {"time": 104160, "pitch": 40, "duration": 140, "velocity": 110}, {"time": 104300, "pitch": 45, "duration": 200, "velocity": 110}, {"time": 104540, "pitch": 40, "duration": 80, "velocity": 105}, {"time": 104640, "pitch": 45, "duration": 80, "velocity": 115}, {"time": 104880, "pitch": 45, "duration": 200, "velocity": 105}, {"time": 105120, "pitch": 40, "duration": 140, "velocity": 110}, {"time": 105260, "pitch": 45, "duration": 200, "velocity": 110}, {"time": 105500, "pitch": 40, "duration": 80, "velocity": 105}, {"time": 105600, "pitch": 38, "duration": 80, "velocity": 115}, {"time": 105840, "pitch": 38, "duration": 200, "velocity": 105}, {"time": 106080, "pitch": 44, "duration": 140, "velocity": 110}, {"time": 106220, "pitch": 38, "duration": 200, "velocity": 110}, {"time": 106460, "pitch": 44, "duration": 80, "velocity": 105}, {"time": 106560, "pitch": 38, "duration": 80, "velocity": 115}, {"time": 106800, "pitch": 38, "duration": 200, "velocity": 105}, {"time": 107040, "pitch": 44, "duration": 140, "velocity": 110}, {"time": 107180, "pitch": 38, "duration": 200, "velocity": 110}, {"time": 107420, "pitch": 44, "duration": 80, "velocity": 105}, {"time": 107520, "pitch": 31, "duration": 80, "velocity": 115}, {"time": 107760, "pitch": 43, "duration": 200, "velocity": 105}, {"time": 108000, "pitch": 38, "duration": 140, "velocity": 110}, {"time": 108140, "pitch": 43, "duration": 200, "velocity": 110}, {"time": 108380, "pitch": 38, "duration": 80, "velocity": 105}, {"time": 108480, "pitch": 31, "duration": 120, "velocity": 115}, {"time": 108620, "pitch": 31, "duration": 220, "velocity": 110}, {"time": 108860, "pitch": 33, "duration": 100, "velocity": 110}, {"time": 108960, "pitch": 35, "duration": 120, "velocity": 115}, {"time": 109100, "pitch": 36, "duration": 200, "velocity": 110}, {"time": 109340, "pitch": 38, "duration": 100, "velocity": 110}, {"time": 109440, "pitch": 44, "duration": 80, "velocity": 115}, {"time": 109680, "pitch": 44, "duration": 200, "velocity": 105}, {"time": 109920, "pitch": 38, "duration": 140, "velocity": 110}, {"time": 110060, "pitch": 44, "duration": 200, "velocity": 110}, {"time": 110300, "pitch": 38, "duration": 80, "velocity": 105}, {"time": 110400, "pitch": 44, "duration": 120, "velocity": 115}, {"time": 110640, "pitch": 32, "duration": 220, "velocity": 110}, {"time": 110880, "pitch": 32, "duration": 220, "velocity": 115}, {"time": 111120, "pitch": 32, "duration": 220, "velocity": 110}, {"time": 111360, "pitch": 33, "duration": 100, "velocity": 115}, {"time": 111600, "pitch": 33, "duration": 100, "velocity": 110}, {"time": 111840, "pitch": 33, "duration": 360, "velocity": 115}, {"time": 112220, "pitch": 33, "duration": 100, "velocity": 110}, {"time": 112460, "pitch": 33, "duration": 100, "velocity": 110}, {"time": 112560, "pitch": 33, "duration": 220, "velocity": 115}, {"time": 112800, "pitch": 33, "duration": 100, "velocity": 110}, {"time": 112940, "pitch": 33, "duration": 220, "velocity": 115}, {"time": 113180, "pitch": 33, "duration": 80, "velocity": 110}, {"time": 113280, "pitch": 32, "duration": 100, "velocity": 115}, {"time": 113520, "pitch": 32, "duration": 100, "velocity": 110}, {"time": 113760, "pitch": 32, "duration": 360, "velocity": 115}, {"time": 114140, "pitch": 32, "duration": 100, "velocity": 110}, {"time": 114380, "pitch": 32, "duration": 100, "velocity": 110}, {"time": 114480, "pitch": 32, "duration": 220, "velocity": 115}, {"time": 114720, "pitch": 32, "duration": 100, "velocity": 110}, {"time": 114860, "pitch": 32, "duration": 220, "velocity": 115}, {"time": 115100, "pitch": 32, "duration": 80, "velocity": 110}, {"time": 115200, "pitch": 31, "duration": 100, "velocity": 115}, {"time": 115440, "pitch": 31, "duration": 100, "velocity": 110}, {"time": 115680, "pitch": 31, "duration": 360, "velocity": 115}, {"time": 116060, "pitch": 31, "duration": 100, "velocity": 110}, {"time": 116300, "pitch": 31, "duration": 100, "velocity": 110}, {"time": 116400, "pitch": 31, "duration": 220, "velocity": 115}, {"time": 116640, "pitch": 31, "duration": 100, "velocity": 110}, {"time": 116780, "pitch": 31, "duration": 220, "velocity": 115}, {"time": 117020, "pitch": 31, "duration": 80, "velocity": 110}, {"time": 117120, "pitch": 30, "duration": 100, "velocity": 115}, {"time": 117360, "pitch": 30, "duration": 100, "velocity": 110}, {"time": 117600, "pitch": 30, "duration": 360, "velocity": 115}, {"time": 117980, "pitch": 30, "duration": 100, "velocity": 110}, {"time": 118220, "pitch": 30, "duration": 100, "velocity": 110}, {"time": 118320, "pitch": 30, "duration": 220, "velocity": 115}, {"time": 118560, "pitch": 30, "duration": 100, "velocity": 110}, {"time": 118700, "pitch": 30, "duration": 220, "velocity": 115}, {"time": 118940, "pitch": 30, "duration": 80, "velocity": 110}, {"time": 119040, "pitch": 29, "duration": 100, "velocity": 115}, {"time": 119280, "pitch": 29, "duration": 100, "velocity": 110}, {"time": 119520, "pitch": 29, "duration": 360, "velocity": 115}, {"time": 119900, "pitch": 29, "duration": 100, "velocity": 110}, {"time": 120140, "pitch": 29, "duration": 100, "velocity": 110}, {"time": 120240, "pitch": 29, "duration": 220, "velocity": 115}, {"time": 120480, "pitch": 29, "duration": 100, "velocity": 110}, {"time": 120620, "pitch": 29, "duration": 220, "velocity": 115}, {"time": 120860, "pitch": 29, "duration": 80, "velocity": 110}, {"time": 120960, "pitch": 28, "duration": 100, "velocity": 115}, {"time": 121200, "pitch": 28, "duration": 100, "velocity": 110}, {"time": 121440, "pitch": 28, "duration": 360, "velocity": 115}, {"time": 121820, "pitch": 28, "duration": 100, "velocity": 110}, {"time": 122060, "pitch": 28, "duration": 100, "velocity": 110}, {"time": 122160, "pitch": 28, "duration": 220, "velocity": 115}, {"time": 122400, "pitch": 28, "duration": 100, "velocity": 110}, {"time": 122540, "pitch": 28, "duration": 220, "velocity": 115}, {"time": 122780, "pitch": 28, "duration": 80, "velocity": 110}, {"time": 122880, "pitch": 38, "duration": 100, "velocity": 115}, {"time": 123120, "pitch": 38, "duration": 100, "velocity": 110}, {"time": 123360, "pitch": 28, "duration": 360, "velocity": 115}, {"time": 123740, "pitch": 28, "duration": 140, "velocity": 110}, {"time": 123980, "pitch": 29, "duration": 100, "velocity": 110}, {"time": 124080, "pitch": 29, "duration": 220, "velocity": 115}, {"time": 124320, "pitch": 30, "duration": 100, "velocity": 110}, {"time": 124460, "pitch": 30, "duration": 220, "velocity": 115}, {"time": 124700, "pitch": 30, "duration": 80, "velocity": 110}, {"time": 124800, "pitch": 31, "duration": 100, "velocity": 115}, {"time": 125040, "pitch": 31, "duration": 100, "velocity": 110}, {"time": 125280, "pitch": 31, "duration": 320, "velocity": 115}, {"time": 125660, "pitch": 31, "duration": 100, "velocity": 110}, {"time": 125760, "pitch": 31, "duration": 100, "velocity": 110}, {"time": 125900, "pitch": 31, "duration": 320, "velocity": 115}, {"time": 126240, "pitch": 32, "duration": 100, "velocity": 110}, {"time": 126380, "pitch": 32, "duration": 320, "velocity": 115}, {"time": 126720, "pitch": 33, "duration": 100, "velocity": 115}, {"time": 126960, "pitch": 33, "duration": 100, "velocity": 110}, {"time": 127200, "pitch": 33, "duration": 360, "velocity": 115}, {"time": 127580, "pitch": 33, "duration": 100, "velocity": 110}, {"time": 127820, "pitch": 33, "duration": 100, "velocity": 110}, {"time": 127920, "pitch": 33, "duration": 220, "velocity": 115}, {"time": 128160, "pitch": 33, "duration": 100, "velocity": 110}, {"time": 128300, "pitch": 33, "duration": 220, "velocity": 115}, {"time": 128540, "pitch": 33, "duration": 80, "velocity": 110}, {"time": 128640, "pitch": 32, "duration": 100, "velocity": 115}, {"time": 128880, "pitch": 32, "duration": 100, "velocity": 110}, {"time": 129120, "pitch": 32, "duration": 360, "velocity": 115}, {"time": 129500, "pitch": 32, "duration": 100, "velocity": 110}, {"time": 129740, "pitch": 32, "duration": 100, "velocity": 110}, {"time": 129840, "pitch": 32, "duration": 220, "velocity": 115}, {"time": 130080, "pitch": 32, "duration": 100, "velocity": 110}, {"time": 130220, "pitch": 32, "duration": 220, "velocity": 115}, {"time": 130460, "pitch": 32, "duration": 80, "velocity": 110}, {"time": 130560, "pitch": 31, "duration": 100, "velocity": 115}, {"time": 130800, "pitch": 31, "duration": 100, "velocity": 110}, {"time": 131040, "pitch": 31, "duration": 360, "velocity": 115}, {"time": 131420, "pitch": 31, "duration": 100, "velocity": 110}, {"time": 131660, "pitch": 31, "duration": 100, "velocity": 110}, {"time": 131760, "pitch": 31, "duration": 220, "velocity": 115}, {"time": 132000, "pitch": 31, "duration": 100, "velocity": 110}, {"time": 132140, "pitch": 31, "duration": 220, "velocity": 115}, {"time": 132380, "pitch": 31, "duration": 80, "velocity": 110}, {"time": 132480, "pitch": 30, "duration": 100, "velocity": 115}, {"time": 132720, "pitch": 30, "duration": 100, "velocity": 110}, {"time": 132960, "pitch": 30, "duration": 360, "velocity": 115}, {"time": 133340, "pitch": 30, "duration": 100, "velocity": 110}, {"time": 133580, "pitch": 30, "duration": 100, "velocity": 110}, {"time": 133680, "pitch": 30, "duration": 220, "velocity": 115}, {"time": 133920, "pitch": 30, "duration": 100, "velocity": 110}, {"time": 134060, "pitch": 30, "duration": 220, "velocity": 115}, {"time": 134300, "pitch": 30, "duration": 80, "velocity": 110}, {"time": 134400, "pitch": 29, "duration": 100, "velocity": 115}, {"time": 134640, "pitch": 29, "duration": 100, "velocity": 110}, {"time": 134880, "pitch": 29, "duration": 360, "velocity": 115}, {"time": 135260, "pitch": 29, "duration": 100, "velocity": 110}, {"time": 135500, "pitch": 29, "duration": 100, "velocity": 110}, {"time": 135600, "pitch": 29, "duration": 220, "velocity": 115}, {"time": 135840, "pitch": 29, "duration": 100, "velocity": 110}, {"time": 135980, "pitch": 29, "duration": 220, "velocity": 115}, {"time": 136220, "pitch": 29, "duration": 80, "velocity": 110}, {"time": 136320, "pitch": 28, "duration": 100, "velocity": 115}, {"time": 136560, "pitch": 28, "duration": 100, "velocity": 110}, {"time": 136800, "pitch": 28, "duration": 360, "velocity": 115}, {"time": 137180, "pitch": 40, "duration": 100, "velocity": 110}, {"time": 137420, "pitch": 40, "duration": 100, "velocity": 110}, {"time": 137520, "pitch": 40, "duration": 220, "velocity": 115}, {"time": 137760, "pitch": 40, "duration": 100, "velocity": 110}, {"time": 137900, "pitch": 40, "duration": 220, "velocity": 115}, {"time": 138140, "pitch": 40, "duration": 80, "velocity": 110}, {"time": 138240, "pitch": 38, "duration": 100, "velocity": 115}, {"time": 138480, "pitch": 38, "duration": 100, "velocity": 110}, {"time": 138720, "pitch": 38, "duration": 360, "velocity": 115}, {"time": 139100, "pitch": 40, "duration": 140, "velocity": 110}, {"time": 139340, "pitch": 40, "duration": 100, "velocity": 110}, {"time": 139440, "pitch": 40, "duration": 220, "velocity": 115}, {"time": 139680, "pitch": 41, "duration": 100, "velocity": 110}, {"time": 139820, "pitch": 41, "duration": 220, "velocity": 115}, {"time": 140060, "pitch": 42, "duration": 80, "velocity": 110}, {"time": 140160, "pitch": 43, "duration": 100, "velocity": 115}, {"time": 140400, "pitch": 31, "duration": 100, "velocity": 110}, {"time": 140640, "pitch": 31, "duration": 320, "velocity": 115}, {"time": 141020, "pitch": 31, "duration": 100, "velocity": 115}, {"time": 141120, "pitch": 31, "duration": 120, "velocity": 110}, {"time": 141360, "pitch": 31, "duration": 800, "velocity": 115}, {"time": 142080, "pitch": 36, "duration": 80, "velocity": 115}, {"time": 142320, "pitch": 36, "duration": 200, "velocity": 105}, {"time": 142560, "pitch": 31, "duration": 140, "velocity": 110}, {"time": 142700, "pitch": 36, "duration": 200, "velocity": 110}, {"time": 142940, "pitch": 31, "duration": 80, "velocity": 105}, {"time": 143040, "pitch": 36, "duration": 80, "velocity": 110}, {"time": 143280, "pitch": 36, "duration": 200, "velocity": 105}, {"time": 143520, "pitch": 31, "duration": 140, "velocity": 110}, {"time": 143660, "pitch": 36, "duration": 200, "velocity": 110}, {"time": 143900, "pitch": 31, "duration": 80, "velocity": 105}, {"time": 144000, "pitch": 35, "duration": 80, "velocity": 115}, {"time": 144240, "pitch": 35, "duration": 200, "velocity": 105}, {"time": 144480, "pitch": 31, "duration": 140, "velocity": 110}, {"time": 144620, "pitch": 35, "duration": 200, "velocity": 110}, {"time": 144860, "pitch": 31, "duration": 80, "velocity": 105}, {"time": 144960, "pitch": 35, "duration": 80, "velocity": 110}, {"time": 145200, "pitch": 35, "duration": 200, "velocity": 105}, {"time": 145440, "pitch": 31, "duration": 140, "velocity": 110}, {"time": 145580, "pitch": 35, "duration": 200, "velocity": 110}, {"time": 145820, "pitch": 31, "duration": 80, "velocity": 105}, {"time": 145920, "pitch": 34, "duration": 80, "velocity": 115}, {"time": 146160, "pitch": 34, "duration": 200, "velocity": 105}, {"time": 146400, "pitch": 31, "duration": 140, "velocity": 110}, {"time": 146540, "pitch": 34, "duration": 200, "velocity": 110}, {"time": 146780, "pitch": 31, "duration": 80, "velocity": 105}, {"time": 146880, "pitch": 34, "duration": 80, "velocity": 110}, {"time": 147120, "pitch": 34, "duration": 200, "velocity": 105}, {"time": 147360, "pitch": 31, "duration": 140, "velocity": 110}, {"time": 147500, "pitch": 34, "duration": 200, "velocity": 110}, {"time": 147740, "pitch": 31, "duration": 80, "velocity": 105}, {"time": 147840, "pitch": 33, "duration": 80, "velocity": 115}, {"time": 148080, "pitch": 33, "duration": 200, "velocity": 105}, {"time": 148320, "pitch": 28, "duration": 140, "velocity": 110}, {"time": 148460, "pitch": 33, "duration": 200, "velocity": 110}, {"time": 148700, "pitch": 28, "duration": 80, "velocity": 105}, {"time": 148800, "pitch": 33, "duration": 80, "velocity": 110}, {"time": 149040, "pitch": 33, "duration": 200, "velocity": 105}, {"time": 149280, "pitch": 28, "duration": 140, "velocity": 110}, {"time": 149420, "pitch": 33, "duration": 200, "velocity": 110}, {"time": 149660, "pitch": 28, "duration": 80, "velocity": 105}, {"time": 149760, "pitch": 32, "duration": 80, "velocity": 115}, {"time": 150000, "pitch": 32, "duration": 200, "velocity": 105}, {"time": 150240, "pitch": 29, "duration": 140, "velocity": 110}, {"time": 150380, "pitch": 32, "duration": 200, "velocity": 110}, {"time": 150620, "pitch": 29, "duration": 80, "velocity": 105}, {"time": 150720, "pitch": 32, "duration": 80, "velocity": 110}, {"time": 150960, "pitch": 32, "duration": 200, "velocity": 105}, {"time": 151200, "pitch": 29, "duration": 140, "velocity": 110}, {"time": 151340, "pitch": 32, "duration": 200, "velocity": 110}, {"time": 151580, "pitch": 29, "duration": 80, "velocity": 105}, {"time": 151680, "pitch": 31, "duration": 80, "velocity": 115}, {"time": 151920, "pitch": 31, "duration": 200, "velocity": 105}, {"time": 152160, "pitch": 36, "duration": 140, "velocity": 110}, {"time": 152300, "pitch": 31, "duration": 200, "velocity": 110}, {"time": 152540, "pitch": 36, "duration": 80, "velocity": 105}, {"time": 152640, "pitch": 31, "duration": 80, "velocity": 110}, {"time": 152880, "pitch": 31, "duration": 200, "velocity": 105}, {"time": 153120, "pitch": 36, "duration": 140, "velocity": 110}, {"time": 153260, "pitch": 31, "duration": 200, "velocity": 110}, {"time": 153500, "pitch": 36, "duration": 80, "velocity": 105}, {"time": 153600, "pitch": 38, "duration": 80, "velocity": 115}, {"time": 153840, "pitch": 38, "duration": 200, "velocity": 105}, {"time": 154080, "pitch": 33, "duration": 140, "velocity": 110}, {"time": 154220, "pitch": 38, "duration": 200, "velocity": 110}, {"time": 154460, "pitch": 33, "duration": 80, "velocity": 105}, {"time": 154560, "pitch": 38, "duration": 80, "velocity": 110}, {"time": 154800, "pitch": 38, "duration": 200, "velocity": 105}, {"time": 155040, "pitch": 33, "duration": 140, "velocity": 110}, {"time": 155180, "pitch": 38, "duration": 200, "velocity": 110}, {"time": 155420, "pitch": 33, "duration": 80, "velocity": 105}, {"time": 155520, "pitch": 31, "duration": 80, "velocity": 115}, {"time": 155760, "pitch": 31, "duration": 200, "velocity": 105}, {"time": 156000, "pitch": 38, "duration": 140, "velocity": 110}, {"time": 156140, "pitch": 31, "duration": 200, "velocity": 110}, {"time": 156380, "pitch": 38, "duration": 80, "velocity": 105}, {"time": 156480, "pitch": 43, "duration": 140, "velocity": 110}, {"time": 156620, "pitch": 43, "duration": 200, "velocity": 110}, {"time": 156860, "pitch": 43, "duration": 80, "velocity": 105}, {"time": 156960, "pitch": 43, "duration": 200, "velocity": 110}, {"time": 157200, "pitch": 43, "duration": 140, "velocity": 110}, {"time": 157340, "pitch": 43, "duration": 80, "velocity": 105}, {"time": 157440, "pitch": 36, "duration": 80, "velocity": 115}, {"time": 157680, "pitch": 36, "duration": 200, "velocity": 105}, {"time": 157920, "pitch": 31, "duration": 140, "velocity": 110}, {"time": 158060, "pitch": 36, "duration": 200, "velocity": 110}, {"time": 158300, "pitch": 31, "duration": 80, "velocity": 105}, {"time": 158400, "pitch": 36, "duration": 80, "velocity": 110}, {"time": 158640, "pitch": 36, "duration": 200, "velocity": 105}, {"time": 158880, "pitch": 31, "duration": 140, "velocity": 110}, {"time": 159020, "pitch": 36, "duration": 200, "velocity": 110}, {"time": 159260, "pitch": 31, "duration": 80, "velocity": 105}, {"time": 159360, "pitch": 35, "duration": 80, "velocity": 115}, {"time": 159600, "pitch": 35, "duration": 200, "velocity": 105}, {"time": 159840, "pitch": 31, "duration": 140, "velocity": 110}, {"time": 159980, "pitch": 35, "duration": 200, "velocity": 110}, {"time": 160220, "pitch": 31, "duration": 80, "velocity": 105}, {"time": 160320, "pitch": 35, "duration": 80, "velocity": 110}, {"time": 160560, "pitch": 35, "duration": 200, "velocity": 105}, {"time": 160800, "pitch": 31, "duration": 140, "velocity": 110}, {"time": 160940, "pitch": 35, "duration": 200, "velocity": 110}, {"time": 161180, "pitch": 31, "duration": 80, "velocity": 105}, {"time": 161280, "pitch": 34, "duration": 80, "velocity": 115}, {"time": 161520, "pitch": 34, "duration": 200, "velocity": 105}, {"time": 161760, "pitch": 31, "duration": 140, "velocity": 110}, {"time": 161900, "pitch": 34, "duration": 200, "velocity": 110}, {"time": 162140, "pitch": 31, "duration": 80, "velocity": 105}, {"time": 162240, "pitch": 34, "duration": 80, "velocity": 110}, {"time": 162480, "pitch": 34, "duration": 200, "velocity": 105}, {"time": 162720, "pitch": 31, "duration": 140, "velocity": 110}, {"time": 162860, "pitch": 34, "duration": 200, "velocity": 110}, {"time": 163100, "pitch": 31, "duration": 80, "velocity": 105}, {"time": 163200, "pitch": 33, "duration": 80, "velocity": 115}, {"time": 163440, "pitch": 33, "duration": 200, "velocity": 105}, {"time": 163680, "pitch": 28, "duration": 140, "velocity": 110}, {"time": 163820, "pitch": 33, "duration": 200, "velocity": 110}, {"time": 164060, "pitch": 28, "duration": 80, "velocity": 105}, {"time": 164160, "pitch": 33, "duration": 80, "velocity": 110}, {"time": 164400, "pitch": 33, "duration": 200, "velocity": 105}, {"time": 164640, "pitch": 28, "duration": 140, "velocity": 110}, {"time": 164780, "pitch": 33, "duration": 200, "velocity": 110}, {"time": 165020, "pitch": 28, "duration": 80, "velocity": 105}, {"time": 165120, "pitch": 32, "duration": 80, "velocity": 115}, {"time": 165360, "pitch": 32, "duration": 200, "velocity": 105}, {"time": 165600, "pitch": 29, "duration": 140, "velocity": 110}, {"time": 165740, "pitch": 32, "duration": 200, "velocity": 110}, {"time": 165980, "pitch": 29, "duration": 80, "velocity": 105}, {"time": 166080, "pitch": 32, "duration": 80, "velocity": 110}, {"time": 166320, "pitch": 32, "duration": 200, "velocity": 105}, {"time": 166560, "pitch": 29, "duration": 140, "velocity": 110}, {"time": 166700, "pitch": 32, "duration": 200, "velocity": 110}, {"time": 166940, "pitch": 29, "duration": 80, "velocity": 105}, {"time": 167040, "pitch": 31, "duration": 80, "velocity": 115}, {"time": 167280, "pitch": 31, "duration": 200, "velocity": 105}, {"time": 167520, "pitch": 36, "duration": 140, "velocity": 110}, {"time": 167660, "pitch": 31, "duration": 200, "velocity": 110}, {"time": 167900, "pitch": 36, "duration": 80, "velocity": 105}, {"time": 168000, "pitch": 31, "duration": 80, "velocity": 110}, {"time": 168240, "pitch": 31, "duration": 200, "velocity": 105}, {"time": 168480, "pitch": 36, "duration": 140, "velocity": 110}, {"time": 168620, "pitch": 31, "duration": 200, "velocity": 110}, {"time": 168860, "pitch": 36, "duration": 80, "velocity": 105}, {"time": 168960, "pitch": 38, "duration": 80, "velocity": 115}, {"time": 169200, "pitch": 38, "duration": 200, "velocity": 105}, {"time": 169440, "pitch": 33, "duration": 140, "velocity": 110}, {"time": 169580, "pitch": 38, "duration": 200, "velocity": 110}, {"time": 169820, "pitch": 33, "duration": 80, "velocity": 105}, {"time": 169920, "pitch": 38, "duration": 80, "velocity": 110}, {"time": 170160, "pitch": 38, "duration": 200, "velocity": 105}, {"time": 170400, "pitch": 33, "duration": 140, "velocity": 110}, {"time": 170540, "pitch": 38, "duration": 200, "velocity": 110}, {"time": 170780, "pitch": 33, "duration": 80, "velocity": 105}, {"time": 170880, "pitch": 31, "duration": 80, "velocity": 115}, {"time": 171120, "pitch": 31, "duration": 200, "velocity": 105}, {"time": 171360, "pitch": 38, "duration": 140, "velocity": 110}, {"time": 171500, "pitch": 31, "duration": 200, "velocity": 110}, {"time": 171740, "pitch": 38, "duration": 80, "velocity": 105}, {"time": 171840, "pitch": 31, "duration": 940, "velocity": 110}, {"time": 172800, "pitch": 29, "duration": 720, "velocity": 115}, {"time": 173520, "pitch": 29, "duration": 220, "velocity": 110}, {"time": 173760, "pitch": 29, "duration": 460, "velocity": 115}, {"time": 174240, "pitch": 41, "duration": 480, "velocity": 110}, {"time": 174720, "pitch": 29, "duration": 720, "velocity": 115}, {"time": 175440, "pitch": 29, "duration": 220, "velocity": 110}, {"time": 175680, "pitch": 29, "duration": 460, "velocity": 115}, {"time": 176160, "pitch": 41, "duration": 480, "velocity": 110}, {"time": 176640, "pitch": 36, "duration": 720, "velocity": 115}, {"time": 177360, "pitch": 36, "duration": 220, "velocity": 110}, {"time": 177600, "pitch": 36, "duration": 460, "velocity": 115}, {"time": 178080, "pitch": 36, "duration": 200, "velocity": 115}, {"time": 178560, "pitch": 36, "duration": 720, "velocity": 115}, {"time": 179280, "pitch": 48, "duration": 480, "velocity": 110}, {"time": 179760, "pitch": 36, "duration": 240, "velocity": 110}, {"time": 180000, "pitch": 38, "duration": 240, "velocity": 115}, {"time": 180240, "pitch": 40, "duration": 240, "velocity": 110}, {"time": 180480, "pitch": 38, "duration": 720, "velocity": 115}, {"time": 181200, "pitch": 38, "duration": 220, "velocity": 110}, {"time": 181440, "pitch": 40, "duration": 720, "velocity": 115}, {"time": 182160, "pitch": 40, "duration": 220, "velocity": 110}, {"time": 182400, "pitch": 41, "duration": 720, "velocity": 115}, {"time": 183120, "pitch": 41, "duration": 220, "velocity": 110}, {"time": 183360, "pitch": 41, "duration": 460, "velocity": 115}, {"time": 183840, "pitch": 29, "duration": 460, "velocity": 110}, {"time": 184320, "pitch": 36, "duration": 1050, "velocity": 115}, {"time": 185370, "pitch": 48, "duration": 837, "velocity": 115}, {"time": 186244, "pitch": 36, "duration": 2872, "velocity": 115}, {"time": 13680, "pitch": 55, "duration": 240, "velocity": 120}, {"time": 13920, "pitch": 57, "duration": 240, "velocity": 120}, {"time": 14160, "pitch": 59, "duration": 240, "velocity": 120}, {"time": 14400, "pitch": 60, "duration": 240, "velocity": 120}, {"time": 14640, "pitch": 62, "duration": 240, "velocity": 120}, {"time": 14880, "pitch": 64, "duration": 240, "velocity": 120}, {"time": 15120, "pitch": 65, "duration": 240, "velocity": 120}, {"time": 15360, "pitch": 67, "duration": 1680, "velocity": 120}, {"time": 17760, "pitch": 59, "duration": 480, "velocity": 120}, {"time": 18240, "pitch": 62, "duration": 480, "velocity": 120}, {"time": 18720, "pitch": 69, "duration": 240, "velocity": 120}, {"time": 18960, "pitch": 67, "duration": 1200, "velocity": 120}, {"time": 21600, "pitch": 59, "duration": 480, "velocity": 120}, {"time": 22080, "pitch": 62, "duration": 480, "velocity": 120}, {"time": 22560, "pitch": 67, "duration": 240, "velocity": 120}, {"time": 22800, "pitch": 69, "duration": 1200, "velocity": 120}, {"time": 29040, "pitch": 57, "duration": 240, "velocity": 120}, {"time": 29280, "pitch": 59, "duration": 240, "velocity": 120}, {"time": 29520, "pitch": 60, "duration": 240, "velocity": 120}, {"time": 29760, "pitch": 62, "duration": 240, "velocity": 120}, {"time": 30000, "pitch": 64, "duration": 240, "velocity": 120}, {"time": 30240, "pitch": 65, "duration": 240, "velocity": 120}, {"time": 30480, "pitch": 67, "duration": 240, "velocity": 120}, {"time": 30720, "pitch": 68, "duration": 1680, "velocity": 120}, {"time": 96480, "pitch": 59, "duration": 480, "velocity": 120}, {"time": 96960, "pitch": 62, "duration": 480, "velocity": 120}, {"time": 97440, "pitch": 69, "duration": 240, "velocity": 120}, {"time": 97680, "pitch": 67, "duration": 1200, "velocity": 120}, {"time": 100320, "pitch": 59, "duration": 480, "velocity": 120}, {"time": 100800, "pitch": 62, "duration": 480, "velocity": 120}, {"time": 101280, "pitch": 67, "duration": 240, "velocity": 120}, {"time": 101520, "pitch": 69, "duration": 1200, "velocity": 120}, {"time": 107760, "pitch": 57, "duration": 240, "velocity": 120}, {"time": 108000, "pitch": 59, "duration": 240, "velocity": 120}, {"time": 108240, "pitch": 60, "duration": 240, "velocity": 120}, {"time": 108480, "pitch": 62, "duration": 240, "velocity": 120}, {"time": 108720, "pitch": 64, "duration": 240, "velocity": 120}, {"time": 108960, "pitch": 65, "duration": 240, "velocity": 120}, {"time": 109200, "pitch": 67, "duration": 240, "velocity": 120}, {"time": 109440, "pitch": 68, "duration": 1680, "velocity": 120}, {"time": 32640, "pitch": 76, "duration": 480, "velocity": 90}, {"time": 33600, "pitch": 69, "duration": 240, "velocity": 90}, {"time": 33840, "pitch": 68, "duration": 240, "velocity": 90}, {"time": 34080, "pitch": 69, "duration": 240, "velocity": 90}, {"time": 34320, "pitch": 77, "duration": 480, "velocity": 90}, {"time": 34800, "pitch": 76, "duration": 720, "velocity": 90}, {"time": 36240, "pitch": 73, "duration": 240, "velocity": 90}, {"time": 36480, "pitch": 74, "duration": 480, "velocity": 90}, {"time": 36960, "pitch": 74, "duration": 480, "velocity": 90}, {"time": 37440, "pitch": 67, "duration": 240, "velocity": 90}, {"time": 37680, "pitch": 66, "duration": 240, "velocity": 90}, {"time": 37920, "pitch": 67, "duration": 240, "velocity": 90}, {"time": 38160, "pitch": 75, "duration": 480, "velocity": 90}, {"time": 38640, "pitch": 74, "duration": 720, "velocity": 90}, {"time": 39840, "pitch": 72, "duration": 240, "velocity": 90}, {"time": 40080, "pitch": 69, "duration": 720, "velocity": 90}, {"time": 41040, "pitch": 69, "duration": 240, "velocity": 90}, {"time": 41280, "pitch": 69, "duration": 240, "velocity": 90}, {"time": 41520, "pitch": 68, "duration": 240, "velocity": 90}, {"time": 41760, "pitch": 69, "duration": 240, "velocity": 90}, {"time": 42000, "pitch": 76, "duration": 720, "velocity": 90}, {"time": 43440, "pitch": 74, "duration": 240, "velocity": 90}, {"time": 43680, "pitch": 74, "duration": 240, "velocity": 90}, {"time": 43920, "pitch": 76, "duration": 240, "velocity": 90}, {"time": 44160, "pitch": 77, "duration": 240, "velocity": 90}, {"time": 44400, "pitch": 76, "duration": 240, "velocity": 90}, {"time": 44640, "pitch": 74, "duration": 240, "velocity": 90}, {"time": 44880, "pitch": 72, "duration": 120, "velocity": 90}, {"time": 45000, "pitch": 74, "duration": 240, "velocity": 90}, {"time": 47760, "pitch": 74, "duration": 240, "velocity": 90}, {"time": 48000, "pitch": 76, "duration": 480, "velocity": 90}, {"time": 48960, "pitch": 69, "duration": 240, "velocity": 90}, {"time": 49200, "pitch": 68, "duration": 240, "velocity": 90}, {"time": 49440, "pitch": 69, "duration": 240, "velocity": 90}, {"time": 49680, "pitch": 77, "duration": 480, "velocity": 90}, {"time": 50160, "pitch": 76, "duration": 720, "velocity": 90}, {"time": 51600, "pitch": 73, "duration": 240, "velocity": 90}, {"time": 51840, "pitch": 74, "duration": 480, "velocity": 90}, {"time": 52320, "pitch": 74, "duration": 480, "velocity": 90}, {"time": 52800, "pitch": 67, "duration": 240, "velocity": 90}, {"time": 53040, "pitch": 66, "duration": 240, "velocity": 90}, {"time": 53280, "pitch": 67, "duration": 240, "velocity": 90}, {"time": 53520, "pitch": 75, "duration": 480, "velocity": 90}, {"time": 54000, "pitch": 74, "duration": 720, "velocity": 90}, {"time": 55200, "pitch": 72, "duration": 240, "velocity": 90}, {"time": 55440, "pitch": 69, "duration": 720, "velocity": 90}, {"time": 56400, "pitch": 69, "duration": 240, "velocity": 90}, {"time": 56640, "pitch": 69, "duration": 240, "velocity": 90}, {"time": 56880, "pitch": 68, "duration": 240, "velocity": 90}, {"time": 57120, "pitch": 69, "duration": 240, "velocity": 90}, {"time": 57360, "pitch": 76, "duration": 720, "velocity": 90}, {"time": 58800, "pitch": 74, "duration": 240, "velocity": 90}, {"time": 59040, "pitch": 74, "duration": 240, "velocity": 90}, {"time": 59280, "pitch": 76, "duration": 240, "velocity": 90}, {"time": 59520, "pitch": 77, "duration": 240, "velocity": 90}, {"time": 59760, "pitch": 76, "duration": 240, "velocity": 90}, {"time": 60000, "pitch": 74, "duration": 240, "velocity": 90}, {"time": 60240, "pitch": 72, "duration": 240, "velocity": 90}, {"time": 60480, "pitch": 72, "duration": 240, "velocity": 90}, {"time": 60720, "pitch": 74, "duration": 240, "velocity": 90}, {"time": 60960, "pitch": 76, "duration": 240, "velocity": 90}, {"time": 61200, "pitch": 74, "duration": 1680, "velocity": 90}, {"time": 63120, "pitch": 67, "duration": 240, "velocity": 90}, {"time": 63360, "pitch": 79, "duration": 480, "velocity": 90}, {"time": 63840, "pitch": 79, "duration": 240, "velocity": 90}, {"time": 64080, "pitch": 77, "duration": 480, "velocity": 90}, {"time": 64560, "pitch": 76, "duration": 480, "velocity": 90}, {"time": 65040, "pitch": 74, "duration": 480, "velocity": 90}, {"time": 65520, "pitch": 72, "duration": 480, "velocity": 90}, {"time": 66000, "pitch": 74, "duration": 480, "velocity": 90}, {"time": 66480, "pitch": 76, "duration": 480, "velocity": 90}, {"time": 66960, "pitch": 67, "duration": 240, "velocity": 90}, {"time": 67200, "pitch": 79, "duration": 480, "velocity": 90}, {"time": 67680, "pitch": 79, "duration": 240, "velocity": 90}, {"time": 67920, "pitch": 77, "duration": 480, "velocity": 90}, {"time": 68400, "pitch": 76, "duration": 480, "velocity": 90}, {"time": 68880, "pitch": 74, "duration": 480, "velocity": 90}, {"time": 69360, "pitch": 73, "duration": 480, "velocity": 90}, {"time": 69840, "pitch": 74, "duration": 480, "velocity": 90}, {"time": 70320, "pitch": 76, "duration": 480, "velocity": 90}, {"time": 70800, "pitch": 74, "duration": 240, "velocity": 90}, {"time": 71040, "pitch": 72, "duration": 480, "velocity": 90}, {"time": 71760, "pitch": 77, "duration": 240, "velocity": 90}, {"time": 72000, "pitch": 77, "duration": 240, "velocity": 90}, {"time": 72240, "pitch": 76, "duration": 240, "velocity": 90}, {"time": 72480, "pitch": 77, "duration": 240, "velocity": 90}, {"time": 72720, "pitch": 79, "duration": 720, "velocity": 90}, {"time": 73440, "pitch": 77, "duration": 480, "velocity": 90}, {"time": 73920, "pitch": 76, "duration": 360, "velocity": 90}, {"time": 74280, "pitch": 74, "duration": 360, "velocity": 90}, {"time": 74640, "pitch": 72, "duration": 240, "velocity": 90}, {"time": 74880, "pitch": 71, "duration": 120, "velocity": 90}, {"time": 75000, "pitch": 72, "duration": 120, "velocity": 90}, {"time": 75120, "pitch": 74, "duration": 1440, "velocity": 90}, {"time": 78720, "pitch": 79, "duration": 480, "velocity": 90}, {"time": 79200, "pitch": 79, "duration": 240, "velocity": 90}, {"time": 79440, "pitch": 77, "duration": 480, "velocity": 90}, {"time": 79920, "pitch": 76, "duration": 480, "velocity": 90}, {"time": 80400, "pitch": 74, "duration": 480, "velocity": 90}, {"time": 80880, "pitch": 72, "duration": 480, "velocity": 90}, {"time": 81360, "pitch": 74, "duration": 480, "velocity": 90}, {"time": 81840, "pitch": 76, "duration": 480, "velocity": 90}, {"time": 82560, "pitch": 79, "duration": 480, "velocity": 90}, {"time": 83040, "pitch": 79, "duration": 240, "velocity": 90}, {"time": 83280, "pitch": 77, "duration": 480, "velocity": 90}, {"time": 83760, "pitch": 76, "duration": 480, "velocity": 90}, {"time": 84240, "pitch": 74, "duration": 480, "velocity": 90}, {"time": 84720, "pitch": 73, "duration": 480, "velocity": 90}, {"time": 85200, "pitch": 74, "duration": 480, "velocity": 90}, {"time": 85680, "pitch": 76, "duration": 480, "velocity": 90}, {"time": 86160, "pitch": 74, "duration": 240, "velocity": 90}, {"time": 86400, "pitch": 72, "duration": 480, "velocity": 90}, {"time": 87120, "pitch": 72, "duration": 240, "velocity": 90}, {"time": 87360, "pitch": 72, "duration": 240, "velocity": 90}, {"time": 87600, "pitch": 72, "duration": 240, "velocity": 90}, {"time": 87840, "pitch": 74, "duration": 240, "velocity": 90}, {"time": 88080, "pitch": 76, "duration": 240, "velocity": 90}, {"time": 88320, "pitch": 74, "duration": 240, "velocity": 90}, {"time": 88560, "pitch": 72, "duration": 720, "velocity": 90}, {"time": 89520, "pitch": 74, "duration": 480, "velocity": 90}, {"time": 90000, "pitch": 76, "duration": 240, "velocity": 90}, {"time": 90240, "pitch": 77, "duration": 240, "velocity": 90}, {"time": 90480, "pitch": 76, "duration": 120, "velocity": 90}, {"time": 90600, "pitch": 74, "duration": 240, "velocity": 90}, {"time": 90840, "pitch": 72, "duration": 120, "velocity": 90}, {"time": 90960, "pitch": 74, "duration": 720, "velocity": 90}, {"time": 93360, "pitch": 76, "duration": 220, "velocity": 90}, {"time": 93600, "pitch": 76, "duration": 220, "velocity": 90}, {"time": 93840, "pitch": 76, "duration": 1680, "velocity": 90}, {"time": 111360, "pitch": 76, "duration": 480, "velocity": 90}, {"time": 112320, "pitch": 69, "duration": 240, "velocity": 90}, {"time": 112560, "pitch": 68, "duration": 240, "velocity": 90}, {"time": 112800, "pitch": 69, "duration": 240, "velocity": 90}, {"time": 113040, "pitch": 77, "duration": 480, "velocity": 90}, {"time": 113520, "pitch": 76, "duration": 720, "velocity": 90}, {"time": 114960, "pitch": 73, "duration": 240, "velocity": 90}, {"time": 115200, "pitch": 74, "duration": 480, "velocity": 90}, {"time": 115680, "pitch": 74, "duration": 480, "velocity": 90}, {"time": 116160, "pitch": 67, "duration": 240, "velocity": 90}, {"time": 116400, "pitch": 66, "duration": 240, "velocity": 90}, {"time": 116640, "pitch": 67, "duration": 240, "velocity": 90}, {"time": 116880, "pitch": 75, "duration": 480, "velocity": 90}, {"time": 117360, "pitch": 74, "duration": 720, "velocity": 90}, {"time": 118560, "pitch": 72, "duration": 240, "velocity": 90}, {"time": 118800, "pitch": 69, "duration": 720, "velocity": 90}, {"time": 119760, "pitch": 69, "duration": 240, "velocity": 90}, {"time": 120000, "pitch": 69, "duration": 240, "velocity": 90}, {"time": 120240, "pitch": 68, "duration": 240, "velocity": 90}, {"time": 120480, "pitch": 69, "duration": 240, "velocity": 90}, {"time": 120720, "pitch": 76, "duration": 720, "velocity": 90}, {"time": 122160, "pitch": 74, "duration": 240, "velocity": 90}, {"time": 122400, "pitch": 74, "duration": 240, "velocity": 90}, {"time": 122640, "pitch": 76, "duration": 240, "velocity": 90}, {"time": 122880, "pitch": 77, "duration": 240, "velocity": 90}, {"time": 123120, "pitch": 76, "duration": 240, "velocity": 90}, {"time": 123360, "pitch": 74, "duration": 240, "velocity": 90}, {"time": 123600, "pitch": 72, "duration": 120, "velocity": 90}, {"time": 123720, "pitch": 74, "duration": 240, "velocity": 90}, {"time": 126480, "pitch": 74, "duration": 240, "velocity": 90}, {"time": 126720, "pitch": 76, "duration": 480, "velocity": 90}, {"time": 127680, "pitch": 69, "duration": 240, "velocity": 90}, {"time": 127920, "pitch": 68, "duration": 240, "velocity": 90}, {"time": 128160, "pitch": 69, "duration": 240, "velocity": 90}, {"time": 128400, "pitch": 77, "duration": 480, "velocity": 90}, {"time": 128880, "pitch": 76, "duration": 720, "velocity": 90}, {"time": 130320, "pitch": 73, "duration": 240, "velocity": 90}, {"time": 130560, "pitch": 74, "duration": 480, "velocity": 90}, {"time": 131040, "pitch": 74, "duration": 480, "velocity": 90}, {"time": 131520, "pitch": 67, "duration": 240, "velocity": 90}, {"time": 131760, "pitch": 66, "duration": 240, "velocity": 90}, {"time": 132000, "pitch": 67, "duration": 240, "velocity": 90}, {"time": 132240, "pitch": 75, "duration": 480, "velocity": 90}, {"time": 132720, "pitch": 74, "duration": 720, "velocity": 90}, {"time": 133920, "pitch": 72, "duration": 240, "velocity": 90}, {"time": 134160, "pitch": 69, "duration": 720, "velocity": 90}, {"time": 135120, "pitch": 69, "duration": 240, "velocity": 90}, {"time": 135360, "pitch": 69, "duration": 240, "velocity": 90}, {"time": 135600, "pitch": 68, "duration": 240, "velocity": 90}, {"time": 135840, "pitch": 69, "duration": 240, "velocity": 90}, {"time": 136080, "pitch": 76, "duration": 720, "velocity": 90}, {"time": 137520, "pitch": 74, "duration": 240, "velocity": 90}, {"time": 137760, "pitch": 74, "duration": 240, "velocity": 90}, {"time": 138000, "pitch": 76, "duration": 240, "velocity": 90}, {"time": 138240, "pitch": 77, "duration": 240, "velocity": 90}, {"time": 138480, "pitch": 76, "duration": 240, "velocity": 90}, {"time": 138720, "pitch": 74, "duration": 240, "velocity": 90}, {"time": 138960, "pitch": 72, "duration": 240, "velocity": 90}, {"time": 139200, "pitch": 72, "duration": 240, "velocity": 90}, {"time": 139440, "pitch": 74, "duration": 720, "velocity": 90}, {"time": 141840, "pitch": 67, "duration": 240, "velocity": 90}, {"time": 142080, "pitch": 79, "duration": 480, "velocity": 90}, {"time": 142560, "pitch": 79, "duration": 240, "velocity": 90}, {"time": 142800, "pitch": 77, "duration": 480, "velocity": 90}, {"time": 143280, "pitch": 76, "duration": 480, "velocity": 90}, {"time": 143760, "pitch": 74, "duration": 480, "velocity": 90}, {"time": 144240, "pitch": 72, "duration": 480, "velocity": 90}, {"time": 144720, "pitch": 74, "duration": 480, "velocity": 90}, {"time": 145200, "pitch": 76, "duration": 480, "velocity": 90}, {"time": 145680, "pitch": 67, "duration": 240, "velocity": 90}, {"time": 145920, "pitch": 79, "duration": 480, "velocity": 90}, {"time": 146400, "pitch": 79, "duration": 240, "velocity": 90}, {"time": 146640, "pitch": 77, "duration": 480, "velocity": 90}, {"time": 147120, "pitch": 76, "duration": 480, "velocity": 90}, {"time": 147600, "pitch": 74, "duration": 480, "velocity": 90}, {"time": 148080, "pitch": 73, "duration": 480, "velocity": 90}, {"time": 148560, "pitch": 74, "duration": 480, "velocity": 90}, {"time": 149040, "pitch": 76, "duration": 480, "velocity": 90}, {"time": 149520, "pitch": 74, "duration": 240, "velocity": 90}, {"time": 149760, "pitch": 72, "duration": 480, "velocity": 90}, {"time": 150480, "pitch": 77, "duration": 240, "velocity": 90}, {"time": 150720, "pitch": 77, "duration": 240, "velocity": 90}, {"time": 150960, "pitch": 76, "duration": 240, "velocity": 90}, {"time": 151200, "pitch": 77, "duration": 240, "velocity": 90}, {"time": 151440, "pitch": 79, "duration": 720, "velocity": 90}, {"time": 152160, "pitch": 77, "duration": 480, "velocity": 90}, {"time": 152640, "pitch": 76, "duration": 360, "velocity": 90}, {"time": 153000, "pitch": 74, "duration": 360, "velocity": 90}, {"time": 153360, "pitch": 72, "duration": 240, "velocity": 90}, {"time": 153600, "pitch": 71, "duration": 120, "velocity": 90}, {"time": 153720, "pitch": 72, "duration": 120, "velocity": 90}, {"time": 153840, "pitch": 74, "duration": 720, "velocity": 90}, {"time": 157200, "pitch": 67, "duration": 240, "velocity": 90}, {"time": 157440, "pitch": 79, "duration": 480, "velocity": 90}, {"time": 157920, "pitch": 79, "duration": 240, "velocity": 90}, {"time": 158160, "pitch": 77, "duration": 480, "velocity": 90}, {"time": 158640, "pitch": 76, "duration": 480, "velocity": 90}, {"time": 159120, "pitch": 74, "duration": 480, "velocity": 90}, {"time": 159600, "pitch": 72, "duration": 480, "velocity": 90}, {"time": 160080, "pitch": 74, "duration": 480, "velocity": 90}, {"time": 160560, "pitch": 76, "duration": 480, "velocity": 90}, {"time": 161040, "pitch": 67, "duration": 240, "velocity": 90}, {"time": 161280, "pitch": 79, "duration": 480, "velocity": 90}, {"time": 161760, "pitch": 79, "duration": 240, "velocity": 90}, {"time": 162000, "pitch": 77, "duration": 480, "velocity": 90}, {"time": 162480, "pitch": 76, "duration": 480, "velocity": 90}, {"time": 162960, "pitch": 74, "duration": 480, "velocity": 90}, {"time": 163440, "pitch": 73, "duration": 480, "velocity": 90}, {"time": 163920, "pitch": 74, "duration": 480, "velocity": 90}, {"time": 164400, "pitch": 76, "duration": 480, "velocity": 90}, {"time": 164880, "pitch": 74, "duration": 240, "velocity": 90}, {"time": 165120, "pitch": 72, "duration": 480, "velocity": 90}, {"time": 165840, "pitch": 72, "duration": 240, "velocity": 90}, {"time": 166080, "pitch": 72, "duration": 240, "velocity": 90}, {"time": 166320, "pitch": 72, "duration": 240, "velocity": 90}, {"time": 166560, "pitch": 74, "duration": 240, "velocity": 90}, {"time": 166800, "pitch": 76, "duration": 240, "velocity": 90}, {"time": 167040, "pitch": 74, "duration": 240, "velocity": 90}, {"time": 167280, "pitch": 72, "duration": 720, "velocity": 90}, {"time": 168240, "pitch": 74, "duration": 480, "velocity": 90}, {"time": 168720, "pitch": 76, "duration": 240, "velocity": 90}, {"time": 168960, "pitch": 77, "duration": 240, "velocity": 90}, {"time": 169200, "pitch": 76, "duration": 240, "velocity": 90}, {"time": 169440, "pitch": 74, "duration": 240, "velocity": 90}, {"time": 169680, "pitch": 72, "duration": 120, "velocity": 90}, {"time": 169800, "pitch": 74, "duration": 720, "velocity": 90}, {"time": 172560, "pitch": 72, "duration": 220, "velocity": 90}, {"time": 172800, "pitch": 74, "duration": 220, "velocity": 90}, {"time": 173520, "pitch": 74, "duration": 220, "velocity": 90}, {"time": 173760, "pitch": 74, "duration": 220, "velocity": 90}, {"time": 174240, "pitch": 76, "duration": 220, "velocity": 90}, {"time": 174480, "pitch": 74, "duration": 240, "velocity": 90}, {"time": 174720, "pitch": 72, "duration": 240, "velocity": 90}, {"time": 175440, "pitch": 72, "duration": 240, "velocity": 90}, {"time": 175680, "pitch": 72, "duration": 240, "velocity": 90}, {"time": 175920, "pitch": 72, "duration": 240, "velocity": 90}, {"time": 176160, "pitch": 72, "duration": 240, "velocity": 90}, {"time": 176400, "pitch": 74, "duration": 240, "velocity": 90}, {"time": 176640, "pitch": 76, "duration": 240, "velocity": 90}, {"time": 176880, "pitch": 72, "duration": 240, "velocity": 90}, {"time": 177120, "pitch": 74, "duration": 240, "velocity": 90}, {"time": 177360, "pitch": 72, "duration": 720, "velocity": 90}, {"time": 180240, "pitch": 72, "duration": 220, "velocity": 90}, {"time": 180480, "pitch": 74, "duration": 220, "velocity": 90}, {"time": 180720, "pitch": 74, "duration": 460, "velocity": 90}, {"time": 181200, "pitch": 72, "duration": 220, "velocity": 90}, {"time": 181440, "pitch": 74, "duration": 250, "velocity": 90}, {"time": 181680, "pitch": 76, "duration": 480, "velocity": 90}, {"time": 182160, "pitch": 74, "duration": 240, "velocity": 90}, {"time": 182400, "pitch": 72, "duration": 480, "velocity": 90}, {"time": 183120, "pitch": 77, "duration": 240, "velocity": 90}, {"time": 183360, "pitch": 77, "duration": 480, "velocity": 90}, {"time": 184080, "pitch": 76, "duration": 240, "velocity": 90}, {"time": 184320, "pitch": 77, "duration": 243, "velocity": 90}, {"time": 184563, "pitch": 76, "duration": 252, "velocity": 90}, {"time": 184815, "pitch": 72, "duration": 472, "velocity": 90}, {"time": 185287, "pitch": 74, "duration": 184, "velocity": 90}, {"time": 185471, "pitch": 72, "duration": 124, "velocity": 90}, {"time": 185595, "pitch": 72, "duration": 211, "velocity": 90}, {"time": 185806, "pitch": 72, "duration": 1400, "velocity": 90}, {"time": 480, "pitch": 60, "duration": 480, "velocity": 120}, {"time": 960, "pitch": 62, "duration": 240, "velocity": 120}, {"time": 1200, "pitch": 64, "duration": 240, "velocity": 115}, {"time": 1680, "pitch": 67, "duration": 1680, "velocity": 120}, {"time": 3360, "pitch": 64, "duration": 240, "velocity": 115}, {"time": 3600, "pitch": 62, "duration": 240, "velocity": 110}, {"time": 4320, "pitch": 60, "duration": 480, "velocity": 120}, {"time": 4800, "pitch": 62, "duration": 240, "velocity": 120}, {"time": 5040, "pitch": 64, "duration": 240, "velocity": 115}, {"time": 5520, "pitch": 69, "duration": 1680, "velocity": 120}, {"time": 7440, "pitch": 64, "duration": 240, "velocity": 110}, {"time": 7680, "pitch": 65, "duration": 240, "velocity": 120}, {"time": 7920, "pitch": 64, "duration": 240, "velocity": 115}, {"time": 8160, "pitch": 62, "duration": 240, "velocity": 120}, {"time": 8400, "pitch": 60, "duration": 720, "velocity": 115}, {"time": 9360, "pitch": 62, "duration": 240, "velocity": 115}, {"time": 9600, "pitch": 64, "duration": 480, "velocity": 120}, {"time": 10080, "pitch": 60, "duration": 240, "velocity": 115}, {"time": 10320, "pitch": 55, "duration": 720, "velocity": 110}, {"time": 11280, "pitch": 64, "duration": 240, "velocity": 115}, {"time": 11520, "pitch": 65, "duration": 240, "velocity": 120}, {"time": 11760, "pitch": 64, "duration": 240, "velocity": 115}, {"time": 12000, "pitch": 62, "duration": 240, "velocity": 120}, {"time": 12240, "pitch": 60, "duration": 480, "velocity": 115}, {"time": 12720, "pitch": 56, "duration": 720, "velocity": 110}, {"time": 13440, "pitch": 55, "duration": 1440, "velocity": 110}, {"time": 15840, "pitch": 60, "duration": 480, "velocity": 120}, {"time": 16320, "pitch": 62, "duration": 240, "velocity": 120}, {"time": 16560, "pitch": 64, "duration": 240, "velocity": 115}, {"time": 17040, "pitch": 67, "duration": 1680, "velocity": 120}, {"time": 18720, "pitch": 64, "duration": 240, "velocity": 115}, {"time": 18960, "pitch": 62, "duration": 240, "velocity": 110}, {"time": 19680, "pitch": 60, "duration": 480, "velocity": 120}, {"time": 20160, "pitch": 62, "duration": 240, "velocity": 120}, {"time": 20400, "pitch": 64, "duration": 240, "velocity": 115}, {"time": 20880, "pitch": 69, "duration": 1680, "velocity": 120}, {"time": 22800, "pitch": 64, "duration": 240, "velocity": 110}, {"time": 23040, "pitch": 65, "duration": 240, "velocity": 120}, {"time": 23280, "pitch": 64, "duration": 240, "velocity": 115}, {"time": 23520, "pitch": 62, "duration": 240, "velocity": 120}, {"time": 23760, "pitch": 60, "duration": 480, "velocity": 115}, {"time": 24240, "pitch": 62, "duration": 240, "velocity": 115}, {"time": 24480, "pitch": 64, "duration": 240, "velocity": 120}, {"time": 24720, "pitch": 65, "duration": 240, "velocity": 115}, {"time": 24960, "pitch": 67, "duration": 480, "velocity": 120}, {"time": 25440, "pitch": 72, "duration": 480, "velocity": 115}, {"time": 25920, "pitch": 71, "duration": 480, "velocity": 120}, {"time": 26400, "pitch": 72, "duration": 480, "velocity": 115}, {"time": 26880, "pitch": 68, "duration": 480, "velocity": 120}, {"time": 27360, "pitch": 72, "duration": 480, "velocity": 115}, {"time": 27840, "pitch": 71, "duration": 480, "velocity": 120}, {"time": 28320, "pitch": 72, "duration": 480, "velocity": 115}, {"time": 28800, "pitch": 74, "duration": 3820, "velocity": 110}, {"time": 94560, "pitch": 60, "duration": 480, "velocity": 120}, {"time": 95040, "pitch": 62, "duration": 240, "velocity": 120}, {"time": 95280, "pitch": 64, "duration": 240, "velocity": 115}, {"time": 95760, "pitch": 67, "duration": 1680, "velocity": 120}, {"time": 97440, "pitch": 64, "duration": 240, "velocity": 115}, {"time": 97680, "pitch": 62, "duration": 240, "velocity": 110}, {"time": 98400, "pitch": 60, "duration": 480, "velocity": 120}, {"time": 98880, "pitch": 62, "duration": 240, "velocity": 120}, {"time": 99120, "pitch": 64, "duration": 240, "velocity": 115}, {"time": 99600, "pitch": 69, "duration": 1680, "velocity": 120}, {"time": 101520, "pitch": 64, "duration": 240, "velocity": 110}, {"time": 101760, "pitch": 65, "duration": 240, "velocity": 120}, {"time": 102000, "pitch": 64, "duration": 240, "velocity": 115}, {"time": 102240, "pitch": 62, "duration": 240, "velocity": 120}, {"time": 102480, "pitch": 60, "duration": 480, "velocity": 115}, {"time": 102960, "pitch": 62, "duration": 240, "velocity": 115}, {"time": 103200, "pitch": 64, "duration": 240, "velocity": 120}, {"time": 103440, "pitch": 65, "duration": 240, "velocity": 115}, {"time": 103680, "pitch": 67, "duration": 480, "velocity": 120}, {"time": 104160, "pitch": 72, "duration": 480, "velocity": 115}, {"time": 104640, "pitch": 71, "duration": 480, "velocity": 120}, {"time": 105120, "pitch": 72, "duration": 480, "velocity": 115}, {"time": 105600, "pitch": 68, "duration": 480, "velocity": 120}, {"time": 106080, "pitch": 72, "duration": 480, "velocity": 115}, {"time": 106560, "pitch": 71, "duration": 480, "velocity": 120}, {"time": 107040, "pitch": 72, "duration": 480, "velocity": 115}, {"time": 107520, "pitch": 74, "duration": 3820, "velocity": 110}, {"time": 480, "pitch": 55, "duration": 480, "velocity": 120}, {"time": 960, "pitch": 57, "duration": 240, "velocity": 120}, {"time": 1200, "pitch": 60, "duration": 240, "velocity": 115}, {"time": 1680, "pitch": 62, "duration": 1680, "velocity": 120}, {"time": 3360, "pitch": 60, "duration": 240, "velocity": 115}, {"time": 3600, "pitch": 59, "duration": 240, "velocity": 110}, {"time": 4320, "pitch": 55, "duration": 480, "velocity": 120}, {"time": 4800, "pitch": 57, "duration": 240, "velocity": 120}, {"time": 5040, "pitch": 60, "duration": 240, "velocity": 115}, {"time": 5520, "pitch": 64, "duration": 1680, "velocity": 120}, {"time": 7440, "pitch": 60, "duration": 240, "velocity": 110}, {"time": 7680, "pitch": 62, "duration": 240, "velocity": 120}, {"time": 7920, "pitch": 60, "duration": 240, "velocity": 115}, {"time": 8160, "pitch": 59, "duration": 240, "velocity": 120}, {"time": 8400, "pitch": 57, "duration": 720, "velocity": 115}, {"time": 9360, "pitch": 59, "duration": 240, "velocity": 115}, {"time": 9600, "pitch": 60, "duration": 480, "velocity": 120}, {"time": 10080, "pitch": 55, "duration": 240, "velocity": 115}, {"time": 10320, "pitch": 52, "duration": 720, "velocity": 110}, {"time": 11280, "pitch": 60, "duration": 240, "velocity": 115}, {"time": 11520, "pitch": 62, "duration": 240, "velocity": 120}, {"time": 11760, "pitch": 60, "duration": 240, "velocity": 115}, {"time": 12000, "pitch": 59, "duration": 240, "velocity": 120}, {"time": 12240, "pitch": 56, "duration": 480, "velocity": 115}, {"time": 12720, "pitch": 53, "duration": 720, "velocity": 110}, {"time": 13440, "pitch": 50, "duration": 1440, "velocity": 110}, {"time": 15840, "pitch": 55, "duration": 480, "velocity": 120}, {"time": 16320, "pitch": 57, "duration": 240, "velocity": 120}, {"time": 16560, "pitch": 60, "duration": 240, "velocity": 115}, {"time": 17040, "pitch": 62, "duration": 1680, "velocity": 120}, {"time": 18720, "pitch": 60, "duration": 240, "velocity": 115}, {"time": 18960, "pitch": 59, "duration": 240, "velocity": 110}, {"time": 19680, "pitch": 55, "duration": 480, "velocity": 120}, {"time": 20160, "pitch": 57, "duration": 240, "velocity": 120}, {"time": 20400, "pitch": 60, "duration": 240, "velocity": 115}, {"time": 20880, "pitch": 64, "duration": 1680, "velocity": 120}, {"time": 22800, "pitch": 60, "duration": 240, "velocity": 110}, {"time": 23040, "pitch": 62, "duration": 240, "velocity": 120}, {"time": 23280, "pitch": 60, "duration": 240, "velocity": 115}, {"time": 23520, "pitch": 59, "duration": 240, "velocity": 120}, {"time": 23760, "pitch": 57, "duration": 480, "velocity": 115}, {"time": 24240, "pitch": 59, "duration": 240, "velocity": 115}, {"time": 24480, "pitch": 60, "duration": 240, "velocity": 120}, {"time": 24720, "pitch": 62, "duration": 240, "velocity": 115}, {"time": 24960, "pitch": 64, "duration": 480, "velocity": 120}, {"time": 25440, "pitch": 69, "duration": 480, "velocity": 115}, {"time": 25920, "pitch": 67, "duration": 480, "velocity": 120}, {"time": 26400, "pitch": 69, "duration": 480, "velocity": 115}, {"time": 26880, "pitch": 65, "duration": 480, "velocity": 120}, {"time": 27360, "pitch": 68, "duration": 480, "velocity": 115}, {"time": 27840, "pitch": 67, "duration": 480, "velocity": 120}, {"time": 28320, "pitch": 68, "duration": 480, "velocity": 115}, {"time": 28800, "pitch": 65, "duration": 3820, "velocity": 110}, {"time": 94560, "pitch": 55, "duration": 480, "velocity": 120}, {"time": 95040, "pitch": 57, "duration": 240, "velocity": 120}, {"time": 95280, "pitch": 60, "duration": 240, "velocity": 115}, {"time": 95760, "pitch": 62, "duration": 1680, "velocity": 120}, {"time": 97440, "pitch": 60, "duration": 240, "velocity": 115}, {"time": 97680, "pitch": 59, "duration": 240, "velocity": 110}, {"time": 98400, "pitch": 55, "duration": 480, "velocity": 120}, {"time": 98880, "pitch": 57, "duration": 240, "velocity": 120}, {"time": 99120, "pitch": 60, "duration": 240, "velocity": 115}, {"time": 99600, "pitch": 64, "duration": 1680, "velocity": 120}, {"time": 101520, "pitch": 60, "duration": 240, "velocity": 110}, {"time": 101760, "pitch": 62, "duration": 240, "velocity": 120}, {"time": 102000, "pitch": 60, "duration": 240, "velocity": 115}, {"time": 102240, "pitch": 59, "duration": 240, "velocity": 120}, {"time": 102480, "pitch": 57, "duration": 480, "velocity": 115}, {"time": 102960, "pitch": 59, "duration": 240, "velocity": 115}, {"time": 103200, "pitch": 60, "duration": 240, "velocity": 120}, {"time": 103440, "pitch": 62, "duration": 240, "velocity": 115}, {"time": 103680, "pitch": 64, "duration": 480, "velocity": 120}, {"time": 104160, "pitch": 69, "duration": 480, "velocity": 115}, {"time": 104640, "pitch": 67, "duration": 480, "velocity": 120}, {"time": 105120, "pitch": 69, "duration": 480, "velocity": 115}, {"time": 105600, "pitch": 65, "duration": 480, "velocity": 120}, {"time": 106080, "pitch": 68, "duration": 480, "velocity": 115}, {"time": 106560, "pitch": 67, "duration": 480, "velocity": 120}, {"time": 107040, "pitch": 68, "duration": 480, "velocity": 115}, {"time": 107520, "pitch": 65, "duration": 3820, "velocity": 110}, {"time": 322, "pitch": 52, "duration": 82, "velocity": 95}, {"time": 322, "pitch": 55, "duration": 82, "velocity": 100}, {"time": 325, "pitch": 60, "duration": 76, "velocity": 105}, {"time": 325, "pitch": 64, "duration": 76, "velocity": 110}, {"time": 401, "pitch": 60, "duration": 89, "velocity": 95}, {"time": 401, "pitch": 64, "duration": 89, "velocity": 100}, {"time": 404, "pitch": 52, "duration": 76, "velocity": 85}, {"time": 404, "pitch": 55, "duration": 76, "velocity": 90}, {"time": 480, "pitch": 52, "duration": 240, "velocity": 105}, {"time": 480, "pitch": 55, "duration": 240, "velocity": 110}, {"time": 490, "pitch": 60, "duration": 240, "velocity": 115}, {"time": 490, "pitch": 64, "duration": 240, "velocity": 120}, {"time": 720, "pitch": 52, "duration": 150, "velocity": 85}, {"time": 720, "pitch": 55, "duration": 150, "velocity": 90}, {"time": 730, "pitch": 60, "duration": 130, "velocity": 95}, {"time": 730, "pitch": 64, "duration": 130, "velocity": 100}, {"time": 860, "pitch": 60, "duration": 110, "velocity": 90}, {"time": 860, "pitch": 64, "duration": 110, "velocity": 95}, {"time": 870, "pitch": 52, "duration": 90, "velocity": 80}, {"time": 870, "pitch": 55, "duration": 90, "velocity": 85}, {"time": 960, "pitch": 52, "duration": 150, "velocity": 65}, {"time": 960, "pitch": 55, "duration": 150, "velocity": 70}, {"time": 970, "pitch": 60, "duration": 130, "velocity": 75}, {"time": 970, "pitch": 64, "duration": 130, "velocity": 80}, {"time": 1100, "pitch": 60, "duration": 110, "velocity": 105}, {"time": 1100, "pitch": 64, "duration": 110, "velocity": 110}, {"time": 1110, "pitch": 52, "duration": 90, "velocity": 95}, {"time": 1110, "pitch": 55, "duration": 90, "velocity": 100}, {"time": 1200, "pitch": 52, "duration": 150, "velocity": 65}, {"time": 1200, "pitch": 55, "duration": 150, "velocity": 70}, {"time": 1210, "pitch": 60, "duration": 130, "velocity": 75}, {"time": 1210, "pitch": 64, "duration": 130, "velocity": 80}, {"time": 1340, "pitch": 60, "duration": 110, "velocity": 105}, {"time": 1340, "pitch": 64, "duration": 110, "velocity": 110}, {"time": 1350, "pitch": 52, "duration": 90, "velocity": 95}, {"time": 1350, "pitch": 55, "duration": 90, "velocity": 100}, {"time": 1440, "pitch": 52, "duration": 240, "velocity": 105}, {"time": 1440, "pitch": 55, "duration": 240, "velocity": 110}, {"time": 1450, "pitch": 60, "duration": 240, "velocity": 115}, {"time": 1450, "pitch": 64, "duration": 240, "velocity": 120}, {"time": 1680, "pitch": 52, "duration": 150, "velocity": 85}, {"time": 1680, "pitch": 55, "duration": 150, "velocity": 90}, {"time": 1690, "pitch": 60, "duration": 130, "velocity": 95}, {"time": 1690, "pitch": 64, "duration": 130, "velocity": 100}, {"time": 1820, "pitch": 60, "duration": 80, "velocity": 90}, {"time": 1820, "pitch": 64, "duration": 80, "velocity": 95}, {"time": 1830, "pitch": 52, "duration": 70, "velocity": 80}, {"time": 1830, "pitch": 55, "duration": 70, "velocity": 85}, {"time": 1920, "pitch": 50, "duration": 250, "velocity": 95}, {"time": 1920, "pitch": 55, "duration": 250, "velocity": 100}, {"time": 1930, "pitch": 59, "duration": 230, "velocity": 105}, {"time": 1930, "pitch": 67, "duration": 230, "velocity": 110}, {"time": 2160, "pitch": 59, "duration": 250, "velocity": 95}, {"time": 2160, "pitch": 67, "duration": 250, "velocity": 100}, {"time": 2170, "pitch": 50, "duration": 230, "velocity": 85}, {"time": 2170, "pitch": 55, "duration": 230, "velocity": 90}, {"time": 2400, "pitch": 50, "duration": 240, "velocity": 105}, {"time": 2400, "pitch": 55, "duration": 240, "velocity": 110}, {"time": 2410, "pitch": 59, "duration": 240, "velocity": 115}, {"time": 2410, "pitch": 67, "duration": 240, "velocity": 120}, {"time": 2640, "pitch": 50, "duration": 150, "velocity": 85}, {"time": 2640, "pitch": 55, "duration": 150, "velocity": 90}, {"time": 2650, "pitch": 59, "duration": 130, "velocity": 95}, {"time": 2650, "pitch": 67, "duration": 130, "velocity": 100}, {"time": 2780, "pitch": 59, "duration": 110, "velocity": 90}, {"time": 2780, "pitch": 67, "duration": 110, "velocity": 95}, {"time": 2790, "pitch": 50, "duration": 90, "velocity": 80}, {"time": 2790, "pitch": 55, "duration": 90, "velocity": 85}, {"time": 2880, "pitch": 50, "duration": 150, "velocity": 65}, {"time": 2880, "pitch": 55, "duration": 150, "velocity": 70}, {"time": 2890, "pitch": 59, "duration": 130, "velocity": 75}, {"time": 2890, "pitch": 67, "duration": 130, "velocity": 80}, {"time": 3020, "pitch": 59, "duration": 110, "velocity": 105}, {"time": 3020, "pitch": 67, "duration": 110, "velocity": 110}, {"time": 3030, "pitch": 50, "duration": 90, "velocity": 95}, {"time": 3030, "pitch": 55, "duration": 90, "velocity": 100}, {"time": 3120, "pitch": 50, "duration": 150, "velocity": 65}, {"time": 3120, "pitch": 55, "duration": 150, "velocity": 70}, {"time": 3130, "pitch": 59, "duration": 130, "velocity": 75}, {"time": 3130, "pitch": 67, "duration": 130, "velocity": 80}, {"time": 3260, "pitch": 59, "duration": 110, "velocity": 105}, {"time": 3260, "pitch": 67, "duration": 110, "velocity": 110}, {"time": 3270, "pitch": 50, "duration": 90, "velocity": 95}, {"time": 3270, "pitch": 55, "duration": 90, "velocity": 100}, {"time": 3360, "pitch": 50, "duration": 240, "velocity": 105}, {"time": 3360, "pitch": 55, "duration": 240, "velocity": 110}, {"time": 3370, "pitch": 59, "duration": 240, "velocity": 115}, {"time": 3370, "pitch": 67, "duration": 240, "velocity": 120}, {"time": 3600, "pitch": 50, "duration": 150, "velocity": 85}, {"time": 3600, "pitch": 55, "duration": 150, "velocity": 90}, {"time": 3610, "pitch": 59, "duration": 130, "velocity": 95}, {"time": 3610, "pitch": 67, "duration": 130, "velocity": 100}, {"time": 3740, "pitch": 59, "duration": 80, "velocity": 90}, {"time": 3740, "pitch": 67, "duration": 80, "velocity": 95}, {"time": 3750, "pitch": 50, "duration": 70, "velocity": 80}, {"time": 3750, "pitch": 55, "duration": 70, "velocity": 85}, {"time": 3840, "pitch": 52, "duration": 250, "velocity": 95}, {"time": 3840, "pitch": 57, "duration": 250, "velocity": 100}, {"time": 3850, "pitch": 60, "duration": 230, "velocity": 105}, {"time": 3850, "pitch": 67, "duration": 230, "velocity": 110}, {"time": 4080, "pitch": 60, "duration": 250, "velocity": 95}, {"time": 4080, "pitch": 67, "duration": 250, "velocity": 100}, {"time": 4090, "pitch": 52, "duration": 230, "velocity": 85}, {"time": 4090, "pitch": 57, "duration": 230, "velocity": 90}, {"time": 4320, "pitch": 52, "duration": 240, "velocity": 105}, {"time": 4320, "pitch": 57, "duration": 240, "velocity": 110}, {"time": 4330, "pitch": 60, "duration": 240, "velocity": 115}, {"time": 4330, "pitch": 67, "duration": 240, "velocity": 120}, {"time": 4560, "pitch": 52, "duration": 150, "velocity": 85}, {"time": 4560, "pitch": 57, "duration": 150, "velocity": 90}, {"time": 4570, "pitch": 60, "duration": 130, "velocity": 95}, {"time": 4570, "pitch": 67, "duration": 130, "velocity": 100}, {"time": 4700, "pitch": 60, "duration": 110, "velocity": 90}, {"time": 4700, "pitch": 67, "duration": 110, "velocity": 95}, {"time": 4710, "pitch": 52, "duration": 90, "velocity": 80}, {"time": 4710, "pitch": 57, "duration": 90, "velocity": 85}, {"time": 4800, "pitch": 52, "duration": 150, "velocity": 65}, {"time": 4800, "pitch": 57, "duration": 150, "velocity": 70}, {"time": 4810, "pitch": 60, "duration": 130, "velocity": 75}, {"time": 4810, "pitch": 67, "duration": 130, "velocity": 80}, {"time": 4940, "pitch": 60, "duration": 110, "velocity": 105}, {"time": 4940, "pitch": 67, "duration": 110, "velocity": 110}, {"time": 4950, "pitch": 52, "duration": 90, "velocity": 95}, {"time": 4950, "pitch": 57, "duration": 90, "velocity": 100}, {"time": 5040, "pitch": 52, "duration": 150, "velocity": 65}, {"time": 5040, "pitch": 57, "duration": 150, "velocity": 70}, {"time": 5050, "pitch": 60, "duration": 130, "velocity": 75}, {"time": 5050, "pitch": 67, "duration": 130, "velocity": 80}, {"time": 5180, "pitch": 60, "duration": 110, "velocity": 105}, {"time": 5180, "pitch": 67, "duration": 110, "velocity": 110}, {"time": 5190, "pitch": 52, "duration": 90, "velocity": 95}, {"time": 5190, "pitch": 57, "duration": 90, "velocity": 100}, {"time": 5280, "pitch": 52, "duration": 240, "velocity": 105}, {"time": 5280, "pitch": 57, "duration": 240, "velocity": 110}, {"time": 5290, "pitch": 60, "duration": 240, "velocity": 115}, {"time": 5290, "pitch": 67, "duration": 240, "velocity": 120}, {"time": 5520, "pitch": 52, "duration": 150, "velocity": 85}, {"time": 5520, "pitch": 57, "duration": 150, "velocity": 90}, {"time": 5530, "pitch": 60, "duration": 130, "velocity": 95}, {"time": 5530, "pitch": 67, "duration": 130, "velocity": 100}, {"time": 5660, "pitch": 60, "duration": 80, "velocity": 90}, {"time": 5660, "pitch": 67, "duration": 80, "velocity": 95}, {"time": 5670, "pitch": 52, "duration": 70, "velocity": 80}, {"time": 5670, "pitch": 57, "duration": 70, "velocity": 85}, {"time": 5760, "pitch": 52, "duration": 250, "velocity": 95}, {"time": 5760, "pitch": 59, "duration": 250, "velocity": 100}, {"time": 5770, "pitch": 62, "duration": 230, "velocity": 105}, {"time": 5770, "pitch": 67, "duration": 230, "velocity": 110}, {"time": 6000, "pitch": 62, "duration": 250, "velocity": 95}, {"time": 6000, "pitch": 67, "duration": 250, "velocity": 100}, {"time": 6010, "pitch": 52, "duration": 230, "velocity": 85}, {"time": 6010, "pitch": 59, "duration": 230, "velocity": 90}, {"time": 6240, "pitch": 52, "duration": 240, "velocity": 105}, {"time": 6240, "pitch": 59, "duration": 240, "velocity": 110}, {"time": 6250, "pitch": 62, "duration": 240, "velocity": 115}, {"time": 6250, "pitch": 67, "duration": 240, "velocity": 120}, {"time": 6480, "pitch": 52, "duration": 150, "velocity": 85}, {"time": 6480, "pitch": 59, "duration": 150, "velocity": 90}, {"time": 6490, "pitch": 62, "duration": 130, "velocity": 95}, {"time": 6490, "pitch": 67, "duration": 130, "velocity": 100}, {"time": 6620, "pitch": 62, "duration": 110, "velocity": 90}, {"time": 6620, "pitch": 67, "duration": 110, "velocity": 95}, {"time": 6630, "pitch": 52, "duration": 90, "velocity": 80}, {"time": 6630, "pitch": 59, "duration": 90, "velocity": 85}, {"time": 6720, "pitch": 52, "duration": 150, "velocity": 65}, {"time": 6720, "pitch": 59, "duration": 150, "velocity": 70}, {"time": 6730, "pitch": 62, "duration": 130, "velocity": 75}, {"time": 6730, "pitch": 67, "duration": 130, "velocity": 80}, {"time": 6860, "pitch": 62, "duration": 110, "velocity": 105}, {"time": 6860, "pitch": 67, "duration": 110, "velocity": 110}, {"time": 6870, "pitch": 52, "duration": 90, "velocity": 95}, {"time": 6870, "pitch": 59, "duration": 90, "velocity": 100}, {"time": 6960, "pitch": 52, "duration": 150, "velocity": 65}, {"time": 6960, "pitch": 59, "duration": 150, "velocity": 70}, {"time": 6970, "pitch": 62, "duration": 130, "velocity": 75}, {"time": 6970, "pitch": 67, "duration": 130, "velocity": 80}, {"time": 7100, "pitch": 62, "duration": 110, "velocity": 105}, {"time": 7100, "pitch": 67, "duration": 110, "velocity": 110}, {"time": 7110, "pitch": 52, "duration": 90, "velocity": 95}, {"time": 7110, "pitch": 59, "duration": 90, "velocity": 100}, {"time": 7200, "pitch": 52, "duration": 240, "velocity": 105}, {"time": 7200, "pitch": 59, "duration": 240, "velocity": 110}, {"time": 7210, "pitch": 62, "duration": 240, "velocity": 115}, {"time": 7210, "pitch": 67, "duration": 240, "velocity": 120}, {"time": 7440, "pitch": 52, "duration": 150, "velocity": 85}, {"time": 7440, "pitch": 59, "duration": 150, "velocity": 90}, {"time": 7450, "pitch": 62, "duration": 130, "velocity": 95}, {"time": 7450, "pitch": 67, "duration": 130, "velocity": 100}, {"time": 7580, "pitch": 62, "duration": 80, "velocity": 90}, {"time": 7580, "pitch": 67, "duration": 80, "velocity": 95}, {"time": 7590, "pitch": 52, "duration": 70, "velocity": 80}, {"time": 7590, "pitch": 59, "duration": 70, "velocity": 85}, {"time": 7680, "pitch": 50, "duration": 250, "velocity": 95}, {"time": 7680, "pitch": 57, "duration": 250, "velocity": 100}, {"time": 7690, "pitch": 60, "duration": 230, "velocity": 105}, {"time": 7690, "pitch": 65, "duration": 230, "velocity": 110}, {"time": 7920, "pitch": 60, "duration": 250, "velocity": 95}, {"time": 7920, "pitch": 65, "duration": 250, "velocity": 100}, {"time": 7930, "pitch": 50, "duration": 230, "velocity": 85}, {"time": 7930, "pitch": 57, "duration": 230, "velocity": 90}, {"time": 8160, "pitch": 50, "duration": 240, "velocity": 105}, {"time": 8160, "pitch": 57, "duration": 240, "velocity": 110}, {"time": 8170, "pitch": 60, "duration": 240, "velocity": 115}, {"time": 8170, "pitch": 65, "duration": 240, "velocity": 120}, {"time": 8400, "pitch": 50, "duration": 150, "velocity": 85}, {"time": 8400, "pitch": 57, "duration": 150, "velocity": 90}, {"time": 8410, "pitch": 60, "duration": 130, "velocity": 95}, {"time": 8410, "pitch": 65, "duration": 130, "velocity": 100}, {"time": 8540, "pitch": 60, "duration": 110, "velocity": 90}, {"time": 8540, "pitch": 65, "duration": 110, "velocity": 95}, {"time": 8550, "pitch": 50, "duration": 90, "velocity": 80}, {"time": 8550, "pitch": 57, "duration": 90, "velocity": 85}, {"time": 8640, "pitch": 50, "duration": 150, "velocity": 65}, {"time": 8640, "pitch": 57, "duration": 150, "velocity": 70}, {"time": 8650, "pitch": 60, "duration": 130, "velocity": 75}, {"time": 8650, "pitch": 65, "duration": 130, "velocity": 80}, {"time": 8780, "pitch": 60, "duration": 110, "velocity": 105}, {"time": 8780, "pitch": 65, "duration": 110, "velocity": 110}, {"time": 8790, "pitch": 50, "duration": 90, "velocity": 95}, {"time": 8790, "pitch": 57, "duration": 90, "velocity": 100}, {"time": 8880, "pitch": 50, "duration": 150, "velocity": 65}, {"time": 8880, "pitch": 57, "duration": 150, "velocity": 70}, {"time": 8890, "pitch": 60, "duration": 130, "velocity": 75}, {"time": 8890, "pitch": 65, "duration": 130, "velocity": 80}, {"time": 9020, "pitch": 60, "duration": 110, "velocity": 105}, {"time": 9020, "pitch": 65, "duration": 110, "velocity": 110}, {"time": 9030, "pitch": 50, "duration": 90, "velocity": 95}, {"time": 9030, "pitch": 57, "duration": 90, "velocity": 100}, {"time": 9120, "pitch": 50, "duration": 240, "velocity": 105}, {"time": 9120, "pitch": 57, "duration": 240, "velocity": 110}, {"time": 9130, "pitch": 60, "duration": 240, "velocity": 115}, {"time": 9130, "pitch": 65, "duration": 240, "velocity": 120}, {"time": 9360, "pitch": 50, "duration": 150, "velocity": 85}, {"time": 9360, "pitch": 57, "duration": 150, "velocity": 90}, {"time": 9370, "pitch": 60, "duration": 130, "velocity": 95}, {"time": 9370, "pitch": 65, "duration": 130, "velocity": 100}, {"time": 9500, "pitch": 60, "duration": 80, "velocity": 90}, {"time": 9500, "pitch": 65, "duration": 80, "velocity": 95}, {"time": 9510, "pitch": 50, "duration": 70, "velocity": 80}, {"time": 9510, "pitch": 57, "duration": 70, "velocity": 85}, {"time": 9600, "pitch": 52, "duration": 250, "velocity": 95}, {"time": 9600, "pitch": 57, "duration": 250, "velocity": 100}, {"time": 9610, "pitch": 60, "duration": 230, "velocity": 105}, {"time": 9610, "pitch": 67, "duration": 230, "velocity": 110}, {"time": 9840, "pitch": 60, "duration": 250, "velocity": 95}, {"time": 9840, "pitch": 67, "duration": 250, "velocity": 100}, {"time": 9850, "pitch": 52, "duration": 230, "velocity": 85}, {"time": 9850, "pitch": 57, "duration": 230, "velocity": 90}, {"time": 10080, "pitch": 52, "duration": 240, "velocity": 105}, {"time": 10080, "pitch": 57, "duration": 240, "velocity": 110}, {"time": 10090, "pitch": 60, "duration": 240, "velocity": 115}, {"time": 10090, "pitch": 67, "duration": 240, "velocity": 120}, {"time": 10320, "pitch": 52, "duration": 150, "velocity": 85}, {"time": 10320, "pitch": 57, "duration": 150, "velocity": 90}, {"time": 10330, "pitch": 60, "duration": 130, "velocity": 95}, {"time": 10330, "pitch": 67, "duration": 130, "velocity": 100}, {"time": 10460, "pitch": 60, "duration": 110, "velocity": 90}, {"time": 10460, "pitch": 67, "duration": 110, "velocity": 95}, {"time": 10470, "pitch": 52, "duration": 90, "velocity": 80}, {"time": 10470, "pitch": 57, "duration": 90, "velocity": 85}, {"time": 10560, "pitch": 52, "duration": 150, "velocity": 65}, {"time": 10560, "pitch": 57, "duration": 150, "velocity": 70}, {"time": 10570, "pitch": 60, "duration": 130, "velocity": 75}, {"time": 10570, "pitch": 67, "duration": 130, "velocity": 80}, {"time": 10700, "pitch": 60, "duration": 110, "velocity": 105}, {"time": 10700, "pitch": 67, "duration": 110, "velocity": 110}, {"time": 10710, "pitch": 52, "duration": 90, "velocity": 95}, {"time": 10710, "pitch": 57, "duration": 90, "velocity": 100}, {"time": 10800, "pitch": 52, "duration": 150, "velocity": 65}, {"time": 10800, "pitch": 57, "duration": 150, "velocity": 70}, {"time": 10810, "pitch": 60, "duration": 130, "velocity": 75}, {"time": 10810, "pitch": 67, "duration": 130, "velocity": 80}, {"time": 10940, "pitch": 60, "duration": 110, "velocity": 105}, {"time": 10940, "pitch": 67, "duration": 110, "velocity": 110}, {"time": 10950, "pitch": 52, "duration": 90, "velocity": 95}, {"time": 10950, "pitch": 57, "duration": 90, "velocity": 100}, {"time": 11040, "pitch": 52, "duration": 240, "velocity": 105}, {"time": 11040, "pitch": 57, "duration": 240, "velocity": 110}, {"time": 11050, "pitch": 60, "duration": 240, "velocity": 115}, {"time": 11050, "pitch": 67, "duration": 240, "velocity": 120}, {"time": 11280, "pitch": 52, "duration": 150, "velocity": 85}, {"time": 11280, "pitch": 57, "duration": 150, "velocity": 90}, {"time": 11290, "pitch": 60, "duration": 130, "velocity": 95}, {"time": 11290, "pitch": 67, "duration": 130, "velocity": 100}, {"time": 11420, "pitch": 60, "duration": 80, "velocity": 90}, {"time": 11420, "pitch": 67, "duration": 80, "velocity": 95}, {"time": 11430, "pitch": 52, "duration": 70, "velocity": 80}, {"time": 11430, "pitch": 57, "duration": 70, "velocity": 85}, {"time": 11520, "pitch": 50, "duration": 250, "velocity": 95}, {"time": 11520, "pitch": 56, "duration": 250, "velocity": 100}, {"time": 11530, "pitch": 60, "duration": 230, "velocity": 105}, {"time": 11530, "pitch": 65, "duration": 230, "velocity": 110}, {"time": 11760, "pitch": 60, "duration": 250, "velocity": 95}, {"time": 11760, "pitch": 65, "duration": 250, "velocity": 100}, {"time": 11770, "pitch": 50, "duration": 230, "velocity": 85}, {"time": 11770, "pitch": 56, "duration": 230, "velocity": 90}, {"time": 12000, "pitch": 50, "duration": 240, "velocity": 105}, {"time": 12000, "pitch": 56, "duration": 240, "velocity": 110}, {"time": 12010, "pitch": 60, "duration": 240, "velocity": 115}, {"time": 12010, "pitch": 65, "duration": 240, "velocity": 120}, {"time": 12240, "pitch": 50, "duration": 150, "velocity": 85}, {"time": 12240, "pitch": 56, "duration": 150, "velocity": 90}, {"time": 12250, "pitch": 60, "duration": 130, "velocity": 95}, {"time": 12250, "pitch": 65, "duration": 130, "velocity": 100}, {"time": 12380, "pitch": 60, "duration": 110, "velocity": 90}, {"time": 12380, "pitch": 65, "duration": 110, "velocity": 95}, {"time": 12390, "pitch": 50, "duration": 90, "velocity": 80}, {"time": 12390, "pitch": 56, "duration": 90, "velocity": 85}, {"time": 12480, "pitch": 50, "duration": 150, "velocity": 65}, {"time": 12480, "pitch": 56, "duration": 150, "velocity": 70}, {"time": 12490, "pitch": 60, "duration": 130, "velocity": 75}, {"time": 12490, "pitch": 65, "duration": 130, "velocity": 80}, {"time": 12620, "pitch": 60, "duration": 110, "velocity": 105}, {"time": 12620, "pitch": 65, "duration": 110, "velocity": 110}, {"time": 12630, "pitch": 50, "duration": 90, "velocity": 95}, {"time": 12630, "pitch": 56, "duration": 90, "velocity": 100}, {"time": 12720, "pitch": 50, "duration": 150, "velocity": 65}, {"time": 12720, "pitch": 56, "duration": 150, "velocity": 70}, {"time": 12730, "pitch": 60, "duration": 130, "velocity": 75}, {"time": 12730, "pitch": 65, "duration": 130, "velocity": 80}, {"time": 12860, "pitch": 60, "duration": 110, "velocity": 105}, {"time": 12860, "pitch": 65, "duration": 110, "velocity": 110}, {"time": 12870, "pitch": 50, "duration": 90, "velocity": 95}, {"time": 12870, "pitch": 56, "duration": 90, "velocity": 100}, {"time": 12960, "pitch": 50, "duration": 240, "velocity": 105}, {"time": 12960, "pitch": 56, "duration": 240, "velocity": 110}, {"time": 12970, "pitch": 60, "duration": 240, "velocity": 115}, {"time": 12970, "pitch": 65, "duration": 240, "velocity": 120}, {"time": 13200, "pitch": 50, "duration": 150, "velocity": 85}, {"time": 13200, "pitch": 56, "duration": 150, "velocity": 90}, {"time": 13210, "pitch": 60, "duration": 130, "velocity": 95}, {"time": 13210, "pitch": 65, "duration": 130, "velocity": 100}, {"time": 13340, "pitch": 60, "duration": 80, "velocity": 90}, {"time": 13340, "pitch": 65, "duration": 80, "velocity": 95}, {"time": 13350, "pitch": 50, "duration": 70, "velocity": 80}, {"time": 13350, "pitch": 56, "duration": 70, "velocity": 85}, {"time": 13440, "pitch": 50, "duration": 250, "velocity": 95}, {"time": 13440, "pitch": 55, "duration": 250, "velocity": 100}, {"time": 13450, "pitch": 60, "duration": 230, "velocity": 105}, {"time": 13450, "pitch": 65, "duration": 230, "velocity": 110}, {"time": 13680, "pitch": 60, "duration": 250, "velocity": 95}, {"time": 13680, "pitch": 65, "duration": 250, "velocity": 100}, {"time": 13690, "pitch": 50, "duration": 230, "velocity": 85}, {"time": 13690, "pitch": 55, "duration": 230, "velocity": 90}, {"time": 13920, "pitch": 50, "duration": 240, "velocity": 105}, {"time": 13920, "pitch": 55, "duration": 240, "velocity": 110}, {"time": 13930, "pitch": 60, "duration": 240, "velocity": 115}, {"time": 13930, "pitch": 65, "duration": 240, "velocity": 120}, {"time": 14160, "pitch": 50, "duration": 150, "velocity": 85}, {"time": 14160, "pitch": 55, "duration": 150, "velocity": 90}, {"time": 14170, "pitch": 60, "duration": 130, "velocity": 95}, {"time": 14170, "pitch": 65, "duration": 130, "velocity": 100}, {"time": 14300, "pitch": 60, "duration": 110, "velocity": 90}, {"time": 14300, "pitch": 65, "duration": 110, "velocity": 95}, {"time": 14310, "pitch": 50, "duration": 90, "velocity": 80}, {"time": 14310, "pitch": 55, "duration": 90, "velocity": 85}, {"time": 14400, "pitch": 50, "duration": 150, "velocity": 65}, {"time": 14400, "pitch": 55, "duration": 150, "velocity": 70}, {"time": 14410, "pitch": 60, "duration": 130, "velocity": 75}, {"time": 14410, "pitch": 65, "duration": 130, "velocity": 80}, {"time": 14540, "pitch": 60, "duration": 110, "velocity": 105}, {"time": 14540, "pitch": 65, "duration": 110, "velocity": 110}, {"time": 14550, "pitch": 50, "duration": 90, "velocity": 95}, {"time": 14550, "pitch": 55, "duration": 90, "velocity": 100}, {"time": 14640, "pitch": 50, "duration": 150, "velocity": 65}, {"time": 14640, "pitch": 55, "duration": 150, "velocity": 70}, {"time": 14650, "pitch": 60, "duration": 130, "velocity": 75}, {"time": 14650, "pitch": 65, "duration": 130, "velocity": 80}, {"time": 14780, "pitch": 60, "duration": 110, "velocity": 105}, {"time": 14780, "pitch": 65, "duration": 110, "velocity": 110}, {"time": 14790, "pitch": 50, "duration": 90, "velocity": 95}, {"time": 14790, "pitch": 55, "duration": 90, "velocity": 100}, {"time": 14880, "pitch": 50, "duration": 240, "velocity": 105}, {"time": 14880, "pitch": 55, "duration": 240, "velocity": 110}, {"time": 14890, "pitch": 60, "duration": 240, "velocity": 115}, {"time": 14890, "pitch": 65, "duration": 240, "velocity": 120}, {"time": 15120, "pitch": 50, "duration": 150, "velocity": 85}, {"time": 15120, "pitch": 55, "duration": 150, "velocity": 90}, {"time": 15130, "pitch": 60, "duration": 130, "velocity": 95}, {"time": 15130, "pitch": 65, "duration": 130, "velocity": 100}, {"time": 15260, "pitch": 60, "duration": 80, "velocity": 90}, {"time": 15260, "pitch": 65, "duration": 80, "velocity": 95}, {"time": 15270, "pitch": 50, "duration": 70, "velocity": 80}, {"time": 15270, "pitch": 55, "duration": 70, "velocity": 85}, {"time": 15360, "pitch": 52, "duration": 250, "velocity": 95}, {"time": 15360, "pitch": 55, "duration": 250, "velocity": 100}, {"time": 15370, "pitch": 60, "duration": 230, "velocity": 105}, {"time": 15370, "pitch": 64, "duration": 230, "velocity": 110}, {"time": 15600, "pitch": 60, "duration": 250, "velocity": 95}, {"time": 15600, "pitch": 64, "duration": 250, "velocity": 100}, {"time": 15610, "pitch": 52, "duration": 230, "velocity": 85}, {"time": 15610, "pitch": 55, "duration": 230, "velocity": 90}, {"time": 15840, "pitch": 52, "duration": 240, "velocity": 105}, {"time": 15840, "pitch": 55, "duration": 240, "velocity": 110}, {"time": 15850, "pitch": 60, "duration": 240, "velocity": 115}, {"time": 15850, "pitch": 64, "duration": 240, "velocity": 120}, {"time": 16080, "pitch": 52, "duration": 150, "velocity": 85}, {"time": 16080, "pitch": 55, "duration": 150, "velocity": 90}, {"time": 16090, "pitch": 60, "duration": 130, "velocity": 95}, {"time": 16090, "pitch": 64, "duration": 130, "velocity": 100}, {"time": 16220, "pitch": 60, "duration": 110, "velocity": 90}, {"time": 16220, "pitch": 64, "duration": 110, "velocity": 95}, {"time": 16230, "pitch": 52, "duration": 90, "velocity": 80}, {"time": 16230, "pitch": 55, "duration": 90, "velocity": 85}, {"time": 16320, "pitch": 52, "duration": 150, "velocity": 65}, {"time": 16320, "pitch": 55, "duration": 150, "velocity": 70}, {"time": 16330, "pitch": 60, "duration": 130, "velocity": 75}, {"time": 16330, "pitch": 64, "duration": 130, "velocity": 80}, {"time": 16460, "pitch": 60, "duration": 110, "velocity": 105}, {"time": 16460, "pitch": 64, "duration": 110, "velocity": 110}, {"time": 16470, "pitch": 52, "duration": 90, "velocity": 95}, {"time": 16470, "pitch": 55, "duration": 90, "velocity": 100}, {"time": 16560, "pitch": 52, "duration": 150, "velocity": 65}, {"time": 16560, "pitch": 55, "duration": 150, "velocity": 70}, {"time": 16570, "pitch": 60, "duration": 130, "velocity": 75}, {"time": 16570, "pitch": 64, "duration": 130, "velocity": 80}, {"time": 16700, "pitch": 60, "duration": 110, "velocity": 105}, {"time": 16700, "pitch": 64, "duration": 110, "velocity": 110}, {"time": 16710, "pitch": 52, "duration": 90, "velocity": 95}, {"time": 16710, "pitch": 55, "duration": 90, "velocity": 100}, {"time": 16800, "pitch": 52, "duration": 240, "velocity": 105}, {"time": 16800, "pitch": 55, "duration": 240, "velocity": 110}, {"time": 16810, "pitch": 60, "duration": 240, "velocity": 115}, {"time": 16810, "pitch": 64, "duration": 240, "velocity": 120}, {"time": 17040, "pitch": 52, "duration": 150, "velocity": 85}, {"time": 17040, "pitch": 55, "duration": 150, "velocity": 90}, {"time": 17050, "pitch": 60, "duration": 130, "velocity": 95}, {"time": 17050, "pitch": 64, "duration": 130, "velocity": 100}, {"time": 17180, "pitch": 60, "duration": 80, "velocity": 90}, {"time": 17180, "pitch": 64, "duration": 80, "velocity": 95}, {"time": 17190, "pitch": 52, "duration": 70, "velocity": 80}, {"time": 17190, "pitch": 55, "duration": 70, "velocity": 85}, {"time": 17280, "pitch": 50, "duration": 250, "velocity": 95}, {"time": 17280, "pitch": 55, "duration": 250, "velocity": 100}, {"time": 17290, "pitch": 59, "duration": 230, "velocity": 105}, {"time": 17290, "pitch": 67, "duration": 230, "velocity": 110}, {"time": 17520, "pitch": 59, "duration": 250, "velocity": 95}, {"time": 17520, "pitch": 67, "duration": 250, "velocity": 100}, {"time": 17530, "pitch": 50, "duration": 230, "velocity": 85}, {"time": 17530, "pitch": 55, "duration": 230, "velocity": 90}, {"time": 17760, "pitch": 50, "duration": 240, "velocity": 105}, {"time": 17760, "pitch": 55, "duration": 240, "velocity": 110}, {"time": 17770, "pitch": 59, "duration": 240, "velocity": 115}, {"time": 17770, "pitch": 67, "duration": 240, "velocity": 120}, {"time": 18000, "pitch": 50, "duration": 150, "velocity": 85}, {"time": 18000, "pitch": 55, "duration": 150, "velocity": 90}, {"time": 18010, "pitch": 59, "duration": 130, "velocity": 95}, {"time": 18010, "pitch": 67, "duration": 130, "velocity": 100}, {"time": 18140, "pitch": 59, "duration": 110, "velocity": 90}, {"time": 18140, "pitch": 67, "duration": 110, "velocity": 95}, {"time": 18150, "pitch": 50, "duration": 90, "velocity": 80}, {"time": 18150, "pitch": 55, "duration": 90, "velocity": 85}, {"time": 18240, "pitch": 50, "duration": 150, "velocity": 65}, {"time": 18240, "pitch": 55, "duration": 150, "velocity": 70}, {"time": 18250, "pitch": 59, "duration": 130, "velocity": 75}, {"time": 18250, "pitch": 67, "duration": 130, "velocity": 80}, {"time": 18380, "pitch": 59, "duration": 110, "velocity": 105}, {"time": 18380, "pitch": 67, "duration": 110, "velocity": 110}, {"time": 18390, "pitch": 50, "duration": 90, "velocity": 95}, {"time": 18390, "pitch": 55, "duration": 90, "velocity": 100}, {"time": 18480, "pitch": 50, "duration": 150, "velocity": 65}, {"time": 18480, "pitch": 55, "duration": 150, "velocity": 70}, {"time": 18490, "pitch": 59, "duration": 130, "velocity": 75}, {"time": 18490, "pitch": 67, "duration": 130, "velocity": 80}, {"time": 18620, "pitch": 59, "duration": 110, "velocity": 105}, {"time": 18620, "pitch": 67, "duration": 110, "velocity": 110}, {"time": 18630, "pitch": 50, "duration": 90, "velocity": 95}, {"time": 18630, "pitch": 55, "duration": 90, "velocity": 100}, {"time": 18720, "pitch": 50, "duration": 240, "velocity": 105}, {"time": 18720, "pitch": 55, "duration": 240, "velocity": 110}, {"time": 18730, "pitch": 59, "duration": 240, "velocity": 115}, {"time": 18730, "pitch": 67, "duration": 240, "velocity": 120}, {"time": 18960, "pitch": 50, "duration": 150, "velocity": 85}, {"time": 18960, "pitch": 55, "duration": 150, "velocity": 90}, {"time": 18970, "pitch": 59, "duration": 130, "velocity": 95}, {"time": 18970, "pitch": 67, "duration": 130, "velocity": 100}, {"time": 19100, "pitch": 59, "duration": 80, "velocity": 90}, {"time": 19100, "pitch": 67, "duration": 80, "velocity": 95}, {"time": 19110, "pitch": 50, "duration": 70, "velocity": 80}, {"time": 19110, "pitch": 55, "duration": 70, "velocity": 85}, {"time": 19200, "pitch": 52, "duration": 250, "velocity": 95}, {"time": 19200, "pitch": 57, "duration": 250, "velocity": 100}, {"time": 19210, "pitch": 60, "duration": 230, "velocity": 105}, {"time": 19210, "pitch": 67, "duration": 230, "velocity": 110}, {"time": 19440, "pitch": 60, "duration": 250, "velocity": 95}, {"time": 19440, "pitch": 67, "duration": 250, "velocity": 100}, {"time": 19450, "pitch": 52, "duration": 230, "velocity": 85}, {"time": 19450, "pitch": 57, "duration": 230, "velocity": 90}, {"time": 19680, "pitch": 52, "duration": 240, "velocity": 105}, {"time": 19680, "pitch": 57, "duration": 240, "velocity": 110}, {"time": 19690, "pitch": 60, "duration": 240, "velocity": 115}, {"time": 19690, "pitch": 67, "duration": 240, "velocity": 120}, {"time": 19920, "pitch": 52, "duration": 150, "velocity": 85}, {"time": 19920, "pitch": 57, "duration": 150, "velocity": 90}, {"time": 19930, "pitch": 60, "duration": 130, "velocity": 95}, {"time": 19930, "pitch": 67, "duration": 130, "velocity": 100}, {"time": 20060, "pitch": 60, "duration": 110, "velocity": 90}, {"time": 20060, "pitch": 67, "duration": 110, "velocity": 95}, {"time": 20070, "pitch": 52, "duration": 90, "velocity": 80}, {"time": 20070, "pitch": 57, "duration": 90, "velocity": 85}, {"time": 20160, "pitch": 52, "duration": 150, "velocity": 65}, {"time": 20160, "pitch": 57, "duration": 150, "velocity": 70}, {"time": 20170, "pitch": 60, "duration": 130, "velocity": 75}, {"time": 20170, "pitch": 67, "duration": 130, "velocity": 80}, {"time": 20300, "pitch": 60, "duration": 110, "velocity": 105}, {"time": 20300, "pitch": 67, "duration": 110, "velocity": 110}, {"time": 20310, "pitch": 52, "duration": 90, "velocity": 95}, {"time": 20310, "pitch": 57, "duration": 90, "velocity": 100}, {"time": 20400, "pitch": 52, "duration": 150, "velocity": 65}, {"time": 20400, "pitch": 57, "duration": 150, "velocity": 70}, {"time": 20410, "pitch": 60, "duration": 130, "velocity": 75}, {"time": 20410, "pitch": 67, "duration": 130, "velocity": 80}, {"time": 20540, "pitch": 60, "duration": 110, "velocity": 105}, {"time": 20540, "pitch": 67, "duration": 110, "velocity": 110}, {"time": 20550, "pitch": 52, "duration": 90, "velocity": 95}, {"time": 20550, "pitch": 57, "duration": 90, "velocity": 100}, {"time": 20640, "pitch": 52, "duration": 240, "velocity": 105}, {"time": 20640, "pitch": 57, "duration": 240, "velocity": 110}, {"time": 20650, "pitch": 60, "duration": 240, "velocity": 115}, {"time": 20650, "pitch": 67, "duration": 240, "velocity": 120}, {"time": 20880, "pitch": 52, "duration": 150, "velocity": 85}, {"time": 20880, "pitch": 57, "duration": 150, "velocity": 90}, {"time": 20890, "pitch": 60, "duration": 130, "velocity": 95}, {"time": 20890, "pitch": 67, "duration": 130, "velocity": 100}, {"time": 21020, "pitch": 60, "duration": 80, "velocity": 90}, {"time": 21020, "pitch": 67, "duration": 80, "velocity": 95}, {"time": 21030, "pitch": 52, "duration": 70, "velocity": 80}, {"time": 21030, "pitch": 57, "duration": 70, "velocity": 85}, {"time": 21120, "pitch": 52, "duration": 250, "velocity": 95}, {"time": 21120, "pitch": 59, "duration": 250, "velocity": 100}, {"time": 21130, "pitch": 62, "duration": 230, "velocity": 105}, {"time": 21130, "pitch": 67, "duration": 230, "velocity": 110}, {"time": 21360, "pitch": 62, "duration": 250, "velocity": 95}, {"time": 21360, "pitch": 67, "duration": 250, "velocity": 100}, {"time": 21370, "pitch": 52, "duration": 230, "velocity": 85}, {"time": 21370, "pitch": 59, "duration": 230, "velocity": 90}, {"time": 21600, "pitch": 52, "duration": 240, "velocity": 105}, {"time": 21600, "pitch": 59, "duration": 240, "velocity": 110}, {"time": 21610, "pitch": 62, "duration": 240, "velocity": 115}, {"time": 21610, "pitch": 67, "duration": 240, "velocity": 120}, {"time": 21840, "pitch": 52, "duration": 150, "velocity": 85}, {"time": 21840, "pitch": 59, "duration": 150, "velocity": 90}, {"time": 21850, "pitch": 62, "duration": 130, "velocity": 95}, {"time": 21850, "pitch": 67, "duration": 130, "velocity": 100}, {"time": 21980, "pitch": 62, "duration": 110, "velocity": 90}, {"time": 21980, "pitch": 67, "duration": 110, "velocity": 95}, {"time": 21990, "pitch": 52, "duration": 90, "velocity": 80}, {"time": 21990, "pitch": 59, "duration": 90, "velocity": 85}, {"time": 22080, "pitch": 52, "duration": 150, "velocity": 65}, {"time": 22080, "pitch": 59, "duration": 150, "velocity": 70}, {"time": 22090, "pitch": 62, "duration": 130, "velocity": 75}, {"time": 22090, "pitch": 67, "duration": 130, "velocity": 80}, {"time": 22220, "pitch": 62, "duration": 110, "velocity": 105}, {"time": 22220, "pitch": 67, "duration": 110, "velocity": 110}, {"time": 22230, "pitch": 52, "duration": 90, "velocity": 95}, {"time": 22230, "pitch": 59, "duration": 90, "velocity": 100}, {"time": 22320, "pitch": 52, "duration": 150, "velocity": 65}, {"time": 22320, "pitch": 59, "duration": 150, "velocity": 70}, {"time": 22330, "pitch": 62, "duration": 130, "velocity": 75}, {"time": 22330, "pitch": 67, "duration": 130, "velocity": 80}, {"time": 22460, "pitch": 62, "duration": 110, "velocity": 105}, {"time": 22460, "pitch": 67, "duration": 110, "velocity": 110}, {"time": 22470, "pitch": 52, "duration": 90, "velocity": 95}, {"time": 22470, "pitch": 59, "duration": 90, "velocity": 100}, {"time": 22560, "pitch": 52, "duration": 240, "velocity": 105}, {"time": 22560, "pitch": 59, "duration": 240, "velocity": 110}, {"time": 22570, "pitch": 62, "duration": 240, "velocity": 115}, {"time": 22570, "pitch": 67, "duration": 240, "velocity": 120}, {"time": 22800, "pitch": 52, "duration": 150, "velocity": 85}, {"time": 22800, "pitch": 59, "duration": 150, "velocity": 90}, {"time": 22810, "pitch": 62, "duration": 130, "velocity": 95}, {"time": 22810, "pitch": 67, "duration": 130, "velocity": 100}, {"time": 22940, "pitch": 62, "duration": 80, "velocity": 90}, {"time": 22940, "pitch": 67, "duration": 80, "velocity": 95}, {"time": 22950, "pitch": 52, "duration": 70, "velocity": 80}, {"time": 22950, "pitch": 59, "duration": 70, "velocity": 85}, {"time": 23040, "pitch": 50, "duration": 250, "velocity": 95}, {"time": 23040, "pitch": 57, "duration": 250, "velocity": 100}, {"time": 23050, "pitch": 60, "duration": 230, "velocity": 105}, {"time": 23050, "pitch": 65, "duration": 230, "velocity": 110}, {"time": 23280, "pitch": 60, "duration": 250, "velocity": 95}, {"time": 23280, "pitch": 65, "duration": 250, "velocity": 100}, {"time": 23290, "pitch": 50, "duration": 230, "velocity": 85}, {"time": 23290, "pitch": 57, "duration": 230, "velocity": 90}, {"time": 23520, "pitch": 50, "duration": 240, "velocity": 105}, {"time": 23520, "pitch": 57, "duration": 240, "velocity": 110}, {"time": 23530, "pitch": 60, "duration": 240, "velocity": 115}, {"time": 23530, "pitch": 65, "duration": 240, "velocity": 120}, {"time": 23760, "pitch": 50, "duration": 150, "velocity": 85}, {"time": 23760, "pitch": 57, "duration": 150, "velocity": 90}, {"time": 23770, "pitch": 60, "duration": 130, "velocity": 95}, {"time": 23770, "pitch": 65, "duration": 130, "velocity": 100}, {"time": 23900, "pitch": 60, "duration": 110, "velocity": 90}, {"time": 23900, "pitch": 65, "duration": 110, "velocity": 95}, {"time": 23910, "pitch": 50, "duration": 90, "velocity": 80}, {"time": 23910, "pitch": 57, "duration": 90, "velocity": 85}, {"time": 24000, "pitch": 50, "duration": 150, "velocity": 65}, {"time": 24000, "pitch": 57, "duration": 150, "velocity": 70}, {"time": 24010, "pitch": 60, "duration": 130, "velocity": 75}, {"time": 24010, "pitch": 65, "duration": 130, "velocity": 80}, {"time": 24140, "pitch": 60, "duration": 110, "velocity": 105}, {"time": 24140, "pitch": 65, "duration": 110, "velocity": 110}, {"time": 24150, "pitch": 50, "duration": 90, "velocity": 95}, {"time": 24150, "pitch": 57, "duration": 90, "velocity": 100}, {"time": 24240, "pitch": 50, "duration": 150, "velocity": 65}, {"time": 24240, "pitch": 57, "duration": 150, "velocity": 70}, {"time": 24250, "pitch": 60, "duration": 130, "velocity": 75}, {"time": 24250, "pitch": 65, "duration": 130, "velocity": 80}, {"time": 24380, "pitch": 60, "duration": 110, "velocity": 105}, {"time": 24380, "pitch": 65, "duration": 110, "velocity": 110}, {"time": 24390, "pitch": 50, "duration": 90, "velocity": 95}, {"time": 24390, "pitch": 57, "duration": 90, "velocity": 100}, {"time": 24480, "pitch": 50, "duration": 240, "velocity": 105}, {"time": 24480, "pitch": 57, "duration": 240, "velocity": 110}, {"time": 24490, "pitch": 60, "duration": 240, "velocity": 115}, {"time": 24490, "pitch": 65, "duration": 240, "velocity": 120}, {"time": 24720, "pitch": 50, "duration": 150, "velocity": 85}, {"time": 24720, "pitch": 57, "duration": 150, "velocity": 90}, {"time": 24730, "pitch": 60, "duration": 130, "velocity": 95}, {"time": 24730, "pitch": 65, "duration": 130, "velocity": 100}, {"time": 24860, "pitch": 60, "duration": 80, "velocity": 90}, {"time": 24860, "pitch": 65, "duration": 80, "velocity": 95}, {"time": 24870, "pitch": 50, "duration": 70, "velocity": 80}, {"time": 24870, "pitch": 57, "duration": 70, "velocity": 85}, {"time": 24960, "pitch": 52, "duration": 250, "velocity": 95}, {"time": 24960, "pitch": 57, "duration": 250, "velocity": 100}, {"time": 24970, "pitch": 60, "duration": 230, "velocity": 105}, {"time": 24970, "pitch": 67, "duration": 230, "velocity": 110}, {"time": 25200, "pitch": 60, "duration": 250, "velocity": 95}, {"time": 25200, "pitch": 67, "duration": 250, "velocity": 100}, {"time": 25210, "pitch": 52, "duration": 230, "velocity": 85}, {"time": 25210, "pitch": 57, "duration": 230, "velocity": 90}, {"time": 25440, "pitch": 52, "duration": 240, "velocity": 105}, {"time": 25440, "pitch": 57, "duration": 240, "velocity": 110}, {"time": 25450, "pitch": 60, "duration": 240, "velocity": 115}, {"time": 25450, "pitch": 67, "duration": 240, "velocity": 120}, {"time": 25680, "pitch": 52, "duration": 150, "velocity": 85}, {"time": 25680, "pitch": 57, "duration": 150, "velocity": 90}, {"time": 25690, "pitch": 60, "duration": 130, "velocity": 95}, {"time": 25690, "pitch": 67, "duration": 130, "velocity": 100}, {"time": 25820, "pitch": 60, "duration": 110, "velocity": 90}, {"time": 25820, "pitch": 67, "duration": 110, "velocity": 95}, {"time": 25830, "pitch": 52, "duration": 90, "velocity": 80}, {"time": 25830, "pitch": 57, "duration": 90, "velocity": 85}, {"time": 25920, "pitch": 52, "duration": 150, "velocity": 65}, {"time": 25920, "pitch": 57, "duration": 150, "velocity": 70}, {"time": 25930, "pitch": 60, "duration": 130, "velocity": 75}, {"time": 25930, "pitch": 67, "duration": 130, "velocity": 80}, {"time": 26060, "pitch": 60, "duration": 110, "velocity": 105}, {"time": 26060, "pitch": 67, "duration": 110, "velocity": 110}, {"time": 26070, "pitch": 52, "duration": 90, "velocity": 95}, {"time": 26070, "pitch": 57, "duration": 90, "velocity": 100}, {"time": 26160, "pitch": 52, "duration": 150, "velocity": 65}, {"time": 26160, "pitch": 57, "duration": 150, "velocity": 70}, {"time": 26170, "pitch": 60, "duration": 130, "velocity": 75}, {"time": 26170, "pitch": 67, "duration": 130, "velocity": 80}, {"time": 26300, "pitch": 60, "duration": 110, "velocity": 105}, {"time": 26300, "pitch": 67, "duration": 110, "velocity": 110}, {"time": 26310, "pitch": 52, "duration": 90, "velocity": 95}, {"time": 26310, "pitch": 57, "duration": 90, "velocity": 100}, {"time": 26400, "pitch": 52, "duration": 240, "velocity": 105}, {"time": 26400, "pitch": 57, "duration": 240, "velocity": 110}, {"time": 26410, "pitch": 60, "duration": 240, "velocity": 115}, {"time": 26410, "pitch": 67, "duration": 240, "velocity": 120}, {"time": 26640, "pitch": 52, "duration": 150, "velocity": 85}, {"time": 26640, "pitch": 57, "duration": 150, "velocity": 90}, {"time": 26650, "pitch": 60, "duration": 130, "velocity": 95}, {"time": 26650, "pitch": 67, "duration": 130, "velocity": 100}, {"time": 26780, "pitch": 60, "duration": 80, "velocity": 90}, {"time": 26780, "pitch": 67, "duration": 80, "velocity": 95}, {"time": 26790, "pitch": 52, "duration": 70, "velocity": 80}, {"time": 26790, "pitch": 57, "duration": 70, "velocity": 85}, {"time": 26880, "pitch": 50, "duration": 250, "velocity": 95}, {"time": 26880, "pitch": 56, "duration": 250, "velocity": 100}, {"time": 26890, "pitch": 60, "duration": 230, "velocity": 105}, {"time": 26890, "pitch": 65, "duration": 230, "velocity": 110}, {"time": 27120, "pitch": 60, "duration": 250, "velocity": 95}, {"time": 27120, "pitch": 65, "duration": 250, "velocity": 100}, {"time": 27130, "pitch": 50, "duration": 230, "velocity": 85}, {"time": 27130, "pitch": 56, "duration": 230, "velocity": 90}, {"time": 27360, "pitch": 50, "duration": 240, "velocity": 105}, {"time": 27360, "pitch": 56, "duration": 240, "velocity": 110}, {"time": 27370, "pitch": 60, "duration": 240, "velocity": 115}, {"time": 27370, "pitch": 65, "duration": 240, "velocity": 120}, {"time": 27600, "pitch": 50, "duration": 150, "velocity": 85}, {"time": 27600, "pitch": 56, "duration": 150, "velocity": 90}, {"time": 27610, "pitch": 60, "duration": 130, "velocity": 95}, {"time": 27610, "pitch": 65, "duration": 130, "velocity": 100}, {"time": 27740, "pitch": 60, "duration": 110, "velocity": 90}, {"time": 27740, "pitch": 65, "duration": 110, "velocity": 95}, {"time": 27750, "pitch": 50, "duration": 90, "velocity": 80}, {"time": 27750, "pitch": 56, "duration": 90, "velocity": 85}, {"time": 27840, "pitch": 50, "duration": 150, "velocity": 65}, {"time": 27840, "pitch": 56, "duration": 150, "velocity": 70}, {"time": 27850, "pitch": 60, "duration": 130, "velocity": 75}, {"time": 27850, "pitch": 65, "duration": 130, "velocity": 80}, {"time": 27980, "pitch": 60, "duration": 110, "velocity": 105}, {"time": 27980, "pitch": 65, "duration": 110, "velocity": 110}, {"time": 27990, "pitch": 50, "duration": 90, "velocity": 95}, {"time": 27990, "pitch": 56, "duration": 90, "velocity": 100}, {"time": 28080, "pitch": 50, "duration": 150, "velocity": 65}, {"time": 28080, "pitch": 56, "duration": 150, "velocity": 70}, {"time": 28090, "pitch": 60, "duration": 130, "velocity": 75}, {"time": 28090, "pitch": 65, "duration": 130, "velocity": 80}, {"time": 28220, "pitch": 60, "duration": 110, "velocity": 105}, {"time": 28220, "pitch": 65, "duration": 110, "velocity": 110}, {"time": 28230, "pitch": 50, "duration": 90, "velocity": 95}, {"time": 28230, "pitch": 56, "duration": 90, "velocity": 100}, {"time": 28320, "pitch": 50, "duration": 240, "velocity": 105}, {"time": 28320, "pitch": 56, "duration": 240, "velocity": 110}, {"time": 28330, "pitch": 60, "duration": 240, "velocity": 115}, {"time": 28330, "pitch": 65, "duration": 240, "velocity": 120}, {"time": 28560, "pitch": 50, "duration": 150, "velocity": 85}, {"time": 28560, "pitch": 56, "duration": 150, "velocity": 90}, {"time": 28570, "pitch": 60, "duration": 130, "velocity": 95}, {"time": 28570, "pitch": 65, "duration": 130, "velocity": 100}, {"time": 28700, "pitch": 60, "duration": 80, "velocity": 90}, {"time": 28700, "pitch": 65, "duration": 80, "velocity": 95}, {"time": 28710, "pitch": 50, "duration": 70, "velocity": 80}, {"time": 28710, "pitch": 56, "duration": 70, "velocity": 85}, {"time": 28800, "pitch": 50, "duration": 250, "velocity": 95}, {"time": 28800, "pitch": 55, "duration": 250, "velocity": 100}, {"time": 28810, "pitch": 60, "duration": 230, "velocity": 105}, {"time": 28810, "pitch": 65, "duration": 230, "velocity": 110}, {"time": 29040, "pitch": 60, "duration": 250, "velocity": 95}, {"time": 29040, "pitch": 65, "duration": 250, "velocity": 100}, {"time": 29050, "pitch": 50, "duration": 230, "velocity": 85}, {"time": 29050, "pitch": 55, "duration": 230, "velocity": 90}, {"time": 29280, "pitch": 50, "duration": 240, "velocity": 105}, {"time": 29280, "pitch": 55, "duration": 240, "velocity": 110}, {"time": 29290, "pitch": 60, "duration": 240, "velocity": 115}, {"time": 29290, "pitch": 65, "duration": 240, "velocity": 120}, {"time": 29520, "pitch": 50, "duration": 150, "velocity": 85}, {"time": 29520, "pitch": 55, "duration": 150, "velocity": 90}, {"time": 29530, "pitch": 60, "duration": 130, "velocity": 95}, {"time": 29530, "pitch": 65, "duration": 130, "velocity": 100}, {"time": 29660, "pitch": 60, "duration": 110, "velocity": 90}, {"time": 29660, "pitch": 65, "duration": 110, "velocity": 95}, {"time": 29670, "pitch": 50, "duration": 90, "velocity": 80}, {"time": 29670, "pitch": 55, "duration": 90, "velocity": 85}, {"time": 29760, "pitch": 50, "duration": 150, "velocity": 65}, {"time": 29760, "pitch": 55, "duration": 150, "velocity": 70}, {"time": 29770, "pitch": 60, "duration": 130, "velocity": 75}, {"time": 29770, "pitch": 65, "duration": 130, "velocity": 80}, {"time": 29900, "pitch": 60, "duration": 110, "velocity": 105}, {"time": 29900, "pitch": 65, "duration": 110, "velocity": 110}, {"time": 29910, "pitch": 50, "duration": 90, "velocity": 95}, {"time": 29910, "pitch": 55, "duration": 90, "velocity": 100}, {"time": 30000, "pitch": 50, "duration": 150, "velocity": 65}, {"time": 30000, "pitch": 55, "duration": 150, "velocity": 70}, {"time": 30010, "pitch": 60, "duration": 130, "velocity": 75}, {"time": 30010, "pitch": 65, "duration": 130, "velocity": 80}, {"time": 30140, "pitch": 60, "duration": 110, "velocity": 105}, {"time": 30140, "pitch": 65, "duration": 110, "velocity": 110}, {"time": 30150, "pitch": 50, "duration": 90, "velocity": 95}, {"time": 30150, "pitch": 55, "duration": 90, "velocity": 100}, {"time": 30240, "pitch": 50, "duration": 240, "velocity": 105}, {"time": 30240, "pitch": 55, "duration": 240, "velocity": 110}, {"time": 30250, "pitch": 60, "duration": 240, "velocity": 115}, {"time": 30250, "pitch": 65, "duration": 240, "velocity": 120}, {"time": 30480, "pitch": 50, "duration": 150, "velocity": 85}, {"time": 30480, "pitch": 55, "duration": 150, "velocity": 90}, {"time": 30490, "pitch": 60, "duration": 130, "velocity": 95}, {"time": 30490, "pitch": 65, "duration": 130, "velocity": 100}, {"time": 30620, "pitch": 60, "duration": 80, "velocity": 90}, {"time": 30620, "pitch": 65, "duration": 80, "velocity": 95}, {"time": 30630, "pitch": 50, "duration": 70, "velocity": 80}, {"time": 30630, "pitch": 55, "duration": 70, "velocity": 85}, {"time": 30720, "pitch": 50, "duration": 250, "velocity": 95}, {"time": 30720, "pitch": 56, "duration": 250, "velocity": 100}, {"time": 30730, "pitch": 59, "duration": 230, "velocity": 105}, {"time": 30730, "pitch": 64, "duration": 230, "velocity": 110}, {"time": 30960, "pitch": 59, "duration": 250, "velocity": 95}, {"time": 30960, "pitch": 64, "duration": 250, "velocity": 100}, {"time": 30970, "pitch": 50, "duration": 230, "velocity": 85}, {"time": 30970, "pitch": 56, "duration": 230, "velocity": 90}, {"time": 31200, "pitch": 50, "duration": 240, "velocity": 105}, {"time": 31200, "pitch": 56, "duration": 240, "velocity": 110}, {"time": 31210, "pitch": 59, "duration": 240, "velocity": 115}, {"time": 31210, "pitch": 64, "duration": 240, "velocity": 120}, {"time": 31440, "pitch": 50, "duration": 150, "velocity": 85}, {"time": 31440, "pitch": 56, "duration": 150, "velocity": 90}, {"time": 31450, "pitch": 59, "duration": 130, "velocity": 95}, {"time": 31450, "pitch": 64, "duration": 130, "velocity": 100}, {"time": 31580, "pitch": 59, "duration": 110, "velocity": 90}, {"time": 31580, "pitch": 64, "duration": 110, "velocity": 95}, {"time": 31590, "pitch": 50, "duration": 90, "velocity": 80}, {"time": 31590, "pitch": 56, "duration": 90, "velocity": 85}, {"time": 31680, "pitch": 50, "duration": 150, "velocity": 90}, {"time": 31680, "pitch": 56, "duration": 150, "velocity": 95}, {"time": 31690, "pitch": 59, "duration": 130, "velocity": 100}, {"time": 31690, "pitch": 64, "duration": 130, "velocity": 105}, {"time": 31820, "pitch": 59, "duration": 110, "velocity": 95}, {"time": 31820, "pitch": 64, "duration": 110, "velocity": 100}, {"time": 31830, "pitch": 50, "duration": 90, "velocity": 85}, {"time": 31830, "pitch": 56, "duration": 90, "velocity": 90}, {"time": 31920, "pitch": 50, "duration": 150, "velocity": 95}, {"time": 31920, "pitch": 56, "duration": 150, "velocity": 100}, {"time": 31930, "pitch": 59, "duration": 130, "velocity": 105}, {"time": 31930, "pitch": 64, "duration": 130, "velocity": 110}, {"time": 32060, "pitch": 59, "duration": 110, "velocity": 95}, {"time": 32060, "pitch": 64, "duration": 110, "velocity": 100}, {"time": 32070, "pitch": 50, "duration": 90, "velocity": 85}, {"time": 32070, "pitch": 56, "duration": 90, "velocity": 90}, {"time": 32160, "pitch": 50, "duration": 150, "velocity": 100}, {"time": 32160, "pitch": 56, "duration": 150, "velocity": 105}, {"time": 32170, "pitch": 59, "duration": 130, "velocity": 110}, {"time": 32170, "pitch": 64, "duration": 130, "velocity": 115}, {"time": 32300, "pitch": 59, "duration": 110, "velocity": 105}, {"time": 32300, "pitch": 64, "duration": 110, "velocity": 110}, {"time": 32310, "pitch": 50, "duration": 90, "velocity": 95}, {"time": 32310, "pitch": 56, "duration": 90, "velocity": 100}, {"time": 32400, "pitch": 50, "duration": 220, "velocity": 105}, {"time": 32400, "pitch": 56, "duration": 220, "velocity": 110}, {"time": 32410, "pitch": 59, "duration": 210, "velocity": 115}, {"time": 32410, "pitch": 64, "duration": 210, "velocity": 120}, {"time": 47040, "pitch": 50, "duration": 150, "velocity": 70}, {"time": 47040, "pitch": 55, "duration": 150, "velocity": 75}, {"time": 47050, "pitch": 60, "duration": 130, "velocity": 80}, {"time": 47050, "pitch": 65, "duration": 130, "velocity": 85}, {"time": 47180, "pitch": 60, "duration": 330, "velocity": 120}, {"time": 47180, "pitch": 65, "duration": 330, "velocity": 125}, {"time": 47190, "pitch": 50, "duration": 320, "velocity": 110}, {"time": 47190, "pitch": 55, "duration": 320, "velocity": 115}, {"time": 47520, "pitch": 50, "duration": 150, "velocity": 70}, {"time": 47520, "pitch": 56, "duration": 150, "velocity": 75}, {"time": 47530, "pitch": 59, "duration": 130, "velocity": 80}, {"time": 47530, "pitch": 64, "duration": 130, "velocity": 85}, {"time": 47660, "pitch": 59, "duration": 330, "velocity": 120}, {"time": 47660, "pitch": 64, "duration": 330, "velocity": 125}, {"time": 47670, "pitch": 50, "duration": 320, "velocity": 110}, {"time": 47670, "pitch": 56, "duration": 320, "velocity": 115}, {"time": 48000, "pitch": 57, "duration": 1920, "velocity": 110}, {"time": 48240, "pitch": 60, "duration": 960, "velocity": 100}, {"time": 48480, "pitch": 64, "duration": 960, "velocity": 105}, {"time": 48720, "pitch": 71, "duration": 960, "velocity": 110}, {"time": 49200, "pitch": 60, "duration": 720, "velocity": 100}, {"time": 49440, "pitch": 64, "duration": 480, "velocity": 105}, {"time": 49680, "pitch": 71, "duration": 240, "velocity": 110}, {"time": 49920, "pitch": 56, "duration": 1920, "velocity": 110}, {"time": 50160, "pitch": 62, "duration": 960, "velocity": 100}, {"time": 50400, "pitch": 64, "duration": 960, "velocity": 105}, {"time": 50640, "pitch": 71, "duration": 960, "velocity": 110}, {"time": 51120, "pitch": 62, "duration": 720, "velocity": 100}, {"time": 51360, "pitch": 64, "duration": 480, "velocity": 105}, {"time": 51600, "pitch": 71, "duration": 240, "velocity": 110}, {"time": 51840, "pitch": 55, "duration": 1920, "velocity": 110}, {"time": 52080, "pitch": 58, "duration": 960, "velocity": 100}, {"time": 52320, "pitch": 62, "duration": 960, "velocity": 105}, {"time": 52560, "pitch": 69, "duration": 960, "velocity": 110}, {"time": 53040, "pitch": 58, "duration": 720, "velocity": 100}, {"time": 53280, "pitch": 62, "duration": 480, "velocity": 105}, {"time": 53520, "pitch": 69, "duration": 240, "velocity": 110}, {"time": 53760, "pitch": 54, "duration": 1920, "velocity": 110}, {"time": 54000, "pitch": 60, "duration": 960, "velocity": 100}, {"time": 54240, "pitch": 62, "duration": 960, "velocity": 105}, {"time": 54480, "pitch": 69, "duration": 960, "velocity": 110}, {"time": 54960, "pitch": 60, "duration": 720, "velocity": 100}, {"time": 55200, "pitch": 62, "duration": 480, "velocity": 105}, {"time": 55440, "pitch": 69, "duration": 240, "velocity": 110}, {"time": 55680, "pitch": 57, "duration": 1920, "velocity": 110}, {"time": 55920, "pitch": 60, "duration": 960, "velocity": 100}, {"time": 56160, "pitch": 65, "duration": 960, "velocity": 105}, {"time": 56400, "pitch": 69, "duration": 960, "velocity": 110}, {"time": 56880, "pitch": 60, "duration": 720, "velocity": 100}, {"time": 57120, "pitch": 65, "duration": 480, "velocity": 105}, {"time": 57360, "pitch": 69, "duration": 240, "velocity": 110}, {"time": 57600, "pitch": 55, "duration": 1920, "velocity": 110}, {"time": 57840, "pitch": 60, "duration": 960, "velocity": 100}, {"time": 58080, "pitch": 64, "duration": 960, "velocity": 105}, {"time": 58320, "pitch": 67, "duration": 960, "velocity": 110}, {"time": 58800, "pitch": 60, "duration": 720, "velocity": 100}, {"time": 59040, "pitch": 64, "duration": 480, "velocity": 105}, {"time": 59280, "pitch": 67, "duration": 240, "velocity": 110}, {"time": 59520, "pitch": 57, "duration": 1920, "velocity": 110}, {"time": 59760, "pitch": 60, "duration": 960, "velocity": 100}, {"time": 60000, "pitch": 65, "duration": 960, "velocity": 105}, {"time": 60240, "pitch": 69, "duration": 960, "velocity": 110}, {"time": 60720, "pitch": 60, "duration": 720, "velocity": 100}, {"time": 60960, "pitch": 65, "duration": 480, "velocity": 105}, {"time": 61200, "pitch": 69, "duration": 240, "velocity": 110}, {"time": 61440, "pitch": 55, "duration": 940, "velocity": 110}, {"time": 61680, "pitch": 59, "duration": 700, "velocity": 100}, {"time": 61920, "pitch": 62, "duration": 460, "velocity": 105}, {"time": 62160, "pitch": 67, "duration": 220, "velocity": 110}, {"time": 62400, "pitch": 50, "duration": 110, "velocity": 105}, {"time": 62400, "pitch": 55, "duration": 110, "velocity": 110}, {"time": 62410, "pitch": 60, "duration": 100, "velocity": 115}, {"time": 62410, "pitch": 65, "duration": 100, "velocity": 120}, {"time": 62640, "pitch": 60, "duration": 700, "velocity": 120}, {"time": 62640, "pitch": 65, "duration": 700, "velocity": 125}, {"time": 62650, "pitch": 50, "duration": 690, "velocity": 110}, {"time": 62650, "pitch": 55, "duration": 690, "velocity": 115}, {"time": 63360, "pitch": 52, "duration": 250, "velocity": 95}, {"time": 63360, "pitch": 55, "duration": 250, "velocity": 100}, {"time": 63370, "pitch": 60, "duration": 230, "velocity": 105}, {"time": 63370, "pitch": 64, "duration": 230, "velocity": 110}, {"time": 63600, "pitch": 60, "duration": 250, "velocity": 95}, {"time": 63600, "pitch": 64, "duration": 250, "velocity": 100}, {"time": 63610, "pitch": 52, "duration": 230, "velocity": 85}, {"time": 63610, "pitch": 55, "duration": 230, "velocity": 90}, {"time": 63840, "pitch": 52, "duration": 240, "velocity": 105}, {"time": 63840, "pitch": 55, "duration": 240, "velocity": 110}, {"time": 63850, "pitch": 60, "duration": 240, "velocity": 115}, {"time": 63850, "pitch": 64, "duration": 240, "velocity": 120}, {"time": 64080, "pitch": 52, "duration": 150, "velocity": 85}, {"time": 64080, "pitch": 55, "duration": 150, "velocity": 90}, {"time": 64090, "pitch": 60, "duration": 130, "velocity": 95}, {"time": 64090, "pitch": 64, "duration": 130, "velocity": 100}, {"time": 64220, "pitch": 60, "duration": 110, "velocity": 90}, {"time": 64220, "pitch": 64, "duration": 110, "velocity": 95}, {"time": 64230, "pitch": 52, "duration": 90, "velocity": 80}, {"time": 64230, "pitch": 55, "duration": 90, "velocity": 85}, {"time": 64320, "pitch": 52, "duration": 150, "velocity": 65}, {"time": 64320, "pitch": 55, "duration": 150, "velocity": 70}, {"time": 64330, "pitch": 60, "duration": 130, "velocity": 75}, {"time": 64330, "pitch": 64, "duration": 130, "velocity": 80}, {"time": 64460, "pitch": 60, "duration": 110, "velocity": 105}, {"time": 64460, "pitch": 64, "duration": 110, "velocity": 110}, {"time": 64470, "pitch": 52, "duration": 90, "velocity": 95}, {"time": 64470, "pitch": 55, "duration": 90, "velocity": 100}, {"time": 64560, "pitch": 52, "duration": 150, "velocity": 65}, {"time": 64560, "pitch": 55, "duration": 150, "velocity": 70}, {"time": 64570, "pitch": 60, "duration": 130, "velocity": 75}, {"time": 64570, "pitch": 64, "duration": 130, "velocity": 80}, {"time": 64700, "pitch": 60, "duration": 110, "velocity": 105}, {"time": 64700, "pitch": 64, "duration": 110, "velocity": 110}, {"time": 64710, "pitch": 52, "duration": 90, "velocity": 95}, {"time": 64710, "pitch": 55, "duration": 90, "velocity": 100}, {"time": 64800, "pitch": 52, "duration": 240, "velocity": 105}, {"time": 64800, "pitch": 55, "duration": 240, "velocity": 110}, {"time": 64810, "pitch": 60, "duration": 240, "velocity": 115}, {"time": 64810, "pitch": 64, "duration": 240, "velocity": 120}, {"time": 65040, "pitch": 52, "duration": 150, "velocity": 85}, {"time": 65040, "pitch": 55, "duration": 150, "velocity": 90}, {"time": 65050, "pitch": 60, "duration": 130, "velocity": 95}, {"time": 65050, "pitch": 64, "duration": 130, "velocity": 100}, {"time": 65180, "pitch": 60, "duration": 80, "velocity": 90}, {"time": 65180, "pitch": 64, "duration": 80, "velocity": 95}, {"time": 65190, "pitch": 52, "duration": 70, "velocity": 80}, {"time": 65190, "pitch": 55, "duration": 70, "velocity": 85}, {"time": 65280, "pitch": 50, "duration": 250, "velocity": 95}, {"time": 65280, "pitch": 55, "duration": 250, "velocity": 100}, {"time": 65290, "pitch": 59, "duration": 230, "velocity": 105}, {"time": 65290, "pitch": 67, "duration": 230, "velocity": 110}, {"time": 65520, "pitch": 59, "duration": 250, "velocity": 95}, {"time": 65520, "pitch": 67, "duration": 250, "velocity": 100}, {"time": 65530, "pitch": 50, "duration": 230, "velocity": 85}, {"time": 65530, "pitch": 55, "duration": 230, "velocity": 90}, {"time": 65760, "pitch": 50, "duration": 240, "velocity": 105}, {"time": 65760, "pitch": 55, "duration": 240, "velocity": 110}, {"time": 65770, "pitch": 59, "duration": 240, "velocity": 115}, {"time": 65770, "pitch": 67, "duration": 240, "velocity": 120}, {"time": 66000, "pitch": 50, "duration": 150, "velocity": 85}, {"time": 66000, "pitch": 55, "duration": 150, "velocity": 90}, {"time": 66010, "pitch": 59, "duration": 130, "velocity": 95}, {"time": 66010, "pitch": 67, "duration": 130, "velocity": 100}, {"time": 66140, "pitch": 59, "duration": 110, "velocity": 90}, {"time": 66140, "pitch": 67, "duration": 110, "velocity": 95}, {"time": 66150, "pitch": 50, "duration": 90, "velocity": 80}, {"time": 66150, "pitch": 55, "duration": 90, "velocity": 85}, {"time": 66240, "pitch": 50, "duration": 150, "velocity": 65}, {"time": 66240, "pitch": 55, "duration": 150, "velocity": 70}, {"time": 66250, "pitch": 59, "duration": 130, "velocity": 75}, {"time": 66250, "pitch": 67, "duration": 130, "velocity": 80}, {"time": 66380, "pitch": 59, "duration": 110, "velocity": 105}, {"time": 66380, "pitch": 67, "duration": 110, "velocity": 110}, {"time": 66390, "pitch": 50, "duration": 90, "velocity": 95}, {"time": 66390, "pitch": 55, "duration": 90, "velocity": 100}, {"time": 66480, "pitch": 50, "duration": 150, "velocity": 65}, {"time": 66480, "pitch": 55, "duration": 150, "velocity": 70}, {"time": 66490, "pitch": 59, "duration": 130, "velocity": 75}, {"time": 66490, "pitch": 67, "duration": 130, "velocity": 80}, {"time": 66620, "pitch": 59, "duration": 110, "velocity": 105}, {"time": 66620, "pitch": 67, "duration": 110, "velocity": 110}, {"time": 66630, "pitch": 50, "duration": 90, "velocity": 95}, {"time": 66630, "pitch": 55, "duration": 90, "velocity": 100}, {"time": 66720, "pitch": 50, "duration": 240, "velocity": 105}, {"time": 66720, "pitch": 55, "duration": 240, "velocity": 110}, {"time": 66730, "pitch": 59, "duration": 240, "velocity": 115}, {"time": 66730, "pitch": 67, "duration": 240, "velocity": 120}, {"time": 66960, "pitch": 50, "duration": 150, "velocity": 85}, {"time": 66960, "pitch": 55, "duration": 150, "velocity": 90}, {"time": 66970, "pitch": 59, "duration": 130, "velocity": 95}, {"time": 66970, "pitch": 67, "duration": 130, "velocity": 100}, {"time": 67100, "pitch": 59, "duration": 80, "velocity": 90}, {"time": 67100, "pitch": 67, "duration": 80, "velocity": 95}, {"time": 67110, "pitch": 50, "duration": 70, "velocity": 80}, {"time": 67110, "pitch": 55, "duration": 70, "velocity": 85}, {"time": 67200, "pitch": 50, "duration": 250, "velocity": 95}, {"time": 67200, "pitch": 55, "duration": 250, "velocity": 100}, {"time": 67210, "pitch": 62, "duration": 230, "velocity": 105}, {"time": 67210, "pitch": 67, "duration": 230, "velocity": 110}, {"time": 67440, "pitch": 62, "duration": 250, "velocity": 95}, {"time": 67440, "pitch": 67, "duration": 250, "velocity": 100}, {"time": 67450, "pitch": 50, "duration": 230, "velocity": 85}, {"time": 67450, "pitch": 55, "duration": 230, "velocity": 90}, {"time": 67680, "pitch": 50, "duration": 240, "velocity": 105}, {"time": 67680, "pitch": 55, "duration": 240, "velocity": 110}, {"time": 67690, "pitch": 62, "duration": 240, "velocity": 115}, {"time": 67690, "pitch": 67, "duration": 240, "velocity": 120}, {"time": 67920, "pitch": 50, "duration": 150, "velocity": 85}, {"time": 67920, "pitch": 55, "duration": 150, "velocity": 90}, {"time": 67930, "pitch": 62, "duration": 130, "velocity": 95}, {"time": 67930, "pitch": 67, "duration": 130, "velocity": 100}, {"time": 68060, "pitch": 62, "duration": 110, "velocity": 90}, {"time": 68060, "pitch": 67, "duration": 110, "velocity": 95}, {"time": 68070, "pitch": 50, "duration": 90, "velocity": 80}, {"time": 68070, "pitch": 55, "duration": 90, "velocity": 85}, {"time": 68160, "pitch": 50, "duration": 150, "velocity": 65}, {"time": 68160, "pitch": 55, "duration": 150, "velocity": 70}, {"time": 68170, "pitch": 62, "duration": 130, "velocity": 75}, {"time": 68170, "pitch": 67, "duration": 130, "velocity": 80}, {"time": 68300, "pitch": 62, "duration": 110, "velocity": 105}, {"time": 68300, "pitch": 67, "duration": 110, "velocity": 110}, {"time": 68310, "pitch": 50, "duration": 90, "velocity": 95}, {"time": 68310, "pitch": 55, "duration": 90, "velocity": 100}, {"time": 68400, "pitch": 50, "duration": 150, "velocity": 65}, {"time": 68400, "pitch": 55, "duration": 150, "velocity": 70}, {"time": 68410, "pitch": 62, "duration": 130, "velocity": 75}, {"time": 68410, "pitch": 67, "duration": 130, "velocity": 80}, {"time": 68540, "pitch": 62, "duration": 110, "velocity": 105}, {"time": 68540, "pitch": 67, "duration": 110, "velocity": 110}, {"time": 68550, "pitch": 50, "duration": 90, "velocity": 95}, {"time": 68550, "pitch": 55, "duration": 90, "velocity": 100}, {"time": 68640, "pitch": 50, "duration": 240, "velocity": 105}, {"time": 68640, "pitch": 55, "duration": 240, "velocity": 110}, {"time": 68650, "pitch": 62, "duration": 240, "velocity": 115}, {"time": 68650, "pitch": 67, "duration": 240, "velocity": 120}, {"time": 68880, "pitch": 50, "duration": 150, "velocity": 85}, {"time": 68880, "pitch": 55, "duration": 150, "velocity": 90}, {"time": 68890, "pitch": 62, "duration": 130, "velocity": 95}, {"time": 68890, "pitch": 67, "duration": 130, "velocity": 100}, {"time": 69020, "pitch": 62, "duration": 80, "velocity": 90}, {"time": 69020, "pitch": 67, "duration": 80, "velocity": 95}, {"time": 69030, "pitch": 50, "duration": 70, "velocity": 80}, {"time": 69030, "pitch": 55, "duration": 70, "velocity": 85}, {"time": 69120, "pitch": 52, "duration": 250, "velocity": 95}, {"time": 69120, "pitch": 57, "duration": 250, "velocity": 100}, {"time": 69130, "pitch": 61, "duration": 230, "velocity": 105}, {"time": 69130, "pitch": 67, "duration": 230, "velocity": 110}, {"time": 69360, "pitch": 61, "duration": 250, "velocity": 95}, {"time": 69360, "pitch": 67, "duration": 250, "velocity": 100}, {"time": 69370, "pitch": 52, "duration": 230, "velocity": 85}, {"time": 69370, "pitch": 57, "duration": 230, "velocity": 90}, {"time": 69600, "pitch": 52, "duration": 240, "velocity": 105}, {"time": 69600, "pitch": 57, "duration": 240, "velocity": 110}, {"time": 69610, "pitch": 61, "duration": 240, "velocity": 115}, {"time": 69610, "pitch": 67, "duration": 240, "velocity": 120}, {"time": 69840, "pitch": 52, "duration": 150, "velocity": 85}, {"time": 69840, "pitch": 57, "duration": 150, "velocity": 90}, {"time": 69850, "pitch": 61, "duration": 130, "velocity": 95}, {"time": 69850, "pitch": 67, "duration": 130, "velocity": 100}, {"time": 69980, "pitch": 61, "duration": 110, "velocity": 90}, {"time": 69980, "pitch": 67, "duration": 110, "velocity": 95}, {"time": 69990, "pitch": 52, "duration": 90, "velocity": 80}, {"time": 69990, "pitch": 57, "duration": 90, "velocity": 85}, {"time": 70080, "pitch": 52, "duration": 150, "velocity": 65}, {"time": 70080, "pitch": 57, "duration": 150, "velocity": 70}, {"time": 70090, "pitch": 61, "duration": 130, "velocity": 75}, {"time": 70090, "pitch": 67, "duration": 130, "velocity": 80}, {"time": 70220, "pitch": 61, "duration": 110, "velocity": 105}, {"time": 70220, "pitch": 67, "duration": 110, "velocity": 110}, {"time": 70230, "pitch": 52, "duration": 90, "velocity": 95}, {"time": 70230, "pitch": 57, "duration": 90, "velocity": 100}, {"time": 70320, "pitch": 52, "duration": 150, "velocity": 65}, {"time": 70320, "pitch": 57, "duration": 150, "velocity": 70}, {"time": 70330, "pitch": 61, "duration": 130, "velocity": 75}, {"time": 70330, "pitch": 67, "duration": 130, "velocity": 80}, {"time": 70460, "pitch": 61, "duration": 110, "velocity": 105}, {"time": 70460, "pitch": 67, "duration": 110, "velocity": 110}, {"time": 70470, "pitch": 52, "duration": 90, "velocity": 95}, {"time": 70470, "pitch": 57, "duration": 90, "velocity": 100}, {"time": 70560, "pitch": 52, "duration": 240, "velocity": 105}, {"time": 70560, "pitch": 57, "duration": 240, "velocity": 110}, {"time": 70570, "pitch": 61, "duration": 240, "velocity": 115}, {"time": 70570, "pitch": 67, "duration": 240, "velocity": 120}, {"time": 70800, "pitch": 52, "duration": 150, "velocity": 85}, {"time": 70800, "pitch": 57, "duration": 150, "velocity": 90}, {"time": 70810, "pitch": 61, "duration": 130, "velocity": 95}, {"time": 70810, "pitch": 67, "duration": 130, "velocity": 100}, {"time": 70940, "pitch": 61, "duration": 80, "velocity": 90}, {"time": 70940, "pitch": 67, "duration": 80, "velocity": 95}, {"time": 70950, "pitch": 52, "duration": 70, "velocity": 80}, {"time": 70950, "pitch": 57, "duration": 70, "velocity": 85}, {"time": 71040, "pitch": 53, "duration": 250, "velocity": 95}, {"time": 71040, "pitch": 56, "duration": 250, "velocity": 100}, {"time": 71050, "pitch": 60, "duration": 230, "velocity": 105}, {"time": 71050, "pitch": 65, "duration": 230, "velocity": 110}, {"time": 71280, "pitch": 60, "duration": 250, "velocity": 95}, {"time": 71280, "pitch": 65, "duration": 250, "velocity": 100}, {"time": 71290, "pitch": 53, "duration": 230, "velocity": 85}, {"time": 71290, "pitch": 56, "duration": 230, "velocity": 90}, {"time": 71520, "pitch": 53, "duration": 240, "velocity": 105}, {"time": 71520, "pitch": 56, "duration": 240, "velocity": 110}, {"time": 71530, "pitch": 60, "duration": 240, "velocity": 115}, {"time": 71530, "pitch": 65, "duration": 240, "velocity": 120}, {"time": 71760, "pitch": 53, "duration": 150, "velocity": 85}, {"time": 71760, "pitch": 56, "duration": 150, "velocity": 90}, {"time": 71770, "pitch": 60, "duration": 130, "velocity": 95}, {"time": 71770, "pitch": 65, "duration": 130, "velocity": 100}, {"time": 71900, "pitch": 60, "duration": 110, "velocity": 90}, {"time": 71900, "pitch": 65, "duration": 110, "velocity": 95}, {"time": 71910, "pitch": 53, "duration": 90, "velocity": 80}, {"time": 71910, "pitch": 56, "duration": 90, "velocity": 85}, {"time": 72000, "pitch": 53, "duration": 150, "velocity": 65}, {"time": 72000, "pitch": 56, "duration": 150, "velocity": 70}, {"time": 72010, "pitch": 60, "duration": 130, "velocity": 75}, {"time": 72010, "pitch": 65, "duration": 130, "velocity": 80}, {"time": 72140, "pitch": 60, "duration": 110, "velocity": 105}, {"time": 72140, "pitch": 65, "duration": 110, "velocity": 110}, {"time": 72150, "pitch": 53, "duration": 90, "velocity": 95}, {"time": 72150, "pitch": 56, "duration": 90, "velocity": 100}, {"time": 72240, "pitch": 53, "duration": 150, "velocity": 65}, {"time": 72240, "pitch": 56, "duration": 150, "velocity": 70}, {"time": 72250, "pitch": 60, "duration": 130, "velocity": 75}, {"time": 72250, "pitch": 65, "duration": 130, "velocity": 80}, {"time": 72380, "pitch": 60, "duration": 110, "velocity": 105}, {"time": 72380, "pitch": 65, "duration": 110, "velocity": 110}, {"time": 72390, "pitch": 53, "duration": 90, "velocity": 95}, {"time": 72390, "pitch": 56, "duration": 90, "velocity": 100}, {"time": 72480, "pitch": 53, "duration": 240, "velocity": 105}, {"time": 72480, "pitch": 56, "duration": 240, "velocity": 110}, {"time": 72490, "pitch": 60, "duration": 240, "velocity": 115}, {"time": 72490, "pitch": 65, "duration": 240, "velocity": 120}, {"time": 72720, "pitch": 53, "duration": 150, "velocity": 85}, {"time": 72720, "pitch": 56, "duration": 150, "velocity": 90}, {"time": 72730, "pitch": 60, "duration": 130, "velocity": 95}, {"time": 72730, "pitch": 65, "duration": 130, "velocity": 100}, {"time": 72860, "pitch": 60, "duration": 80, "velocity": 90}, {"time": 72860, "pitch": 65, "duration": 80, "velocity": 95}, {"time": 72870, "pitch": 53, "duration": 70, "velocity": 80}, {"time": 72870, "pitch": 56, "duration": 70, "velocity": 85}, {"time": 72960, "pitch": 52, "duration": 250, "velocity": 95}, {"time": 72960, "pitch": 55, "duration": 250, "velocity": 100}, {"time": 72970, "pitch": 60, "duration": 230, "velocity": 105}, {"time": 72970, "pitch": 64, "duration": 230, "velocity": 110}, {"time": 73200, "pitch": 60, "duration": 250, "velocity": 95}, {"time": 73200, "pitch": 64, "duration": 250, "velocity": 100}, {"time": 73210, "pitch": 52, "duration": 230, "velocity": 85}, {"time": 73210, "pitch": 55, "duration": 230, "velocity": 90}, {"time": 73440, "pitch": 52, "duration": 240, "velocity": 105}, {"time": 73440, "pitch": 55, "duration": 240, "velocity": 110}, {"time": 73450, "pitch": 60, "duration": 240, "velocity": 115}, {"time": 73450, "pitch": 64, "duration": 240, "velocity": 120}, {"time": 73680, "pitch": 52, "duration": 150, "velocity": 85}, {"time": 73680, "pitch": 55, "duration": 150, "velocity": 90}, {"time": 73690, "pitch": 60, "duration": 130, "velocity": 95}, {"time": 73690, "pitch": 64, "duration": 130, "velocity": 100}, {"time": 73820, "pitch": 60, "duration": 110, "velocity": 90}, {"time": 73820, "pitch": 64, "duration": 110, "velocity": 95}, {"time": 73830, "pitch": 52, "duration": 90, "velocity": 80}, {"time": 73830, "pitch": 55, "duration": 90, "velocity": 85}, {"time": 73920, "pitch": 52, "duration": 150, "velocity": 65}, {"time": 73920, "pitch": 55, "duration": 150, "velocity": 70}, {"time": 73930, "pitch": 60, "duration": 130, "velocity": 75}, {"time": 73930, "pitch": 64, "duration": 130, "velocity": 80}, {"time": 74060, "pitch": 60, "duration": 110, "velocity": 105}, {"time": 74060, "pitch": 64, "duration": 110, "velocity": 110}, {"time": 74070, "pitch": 52, "duration": 90, "velocity": 95}, {"time": 74070, "pitch": 55, "duration": 90, "velocity": 100}, {"time": 74160, "pitch": 52, "duration": 150, "velocity": 65}, {"time": 74160, "pitch": 55, "duration": 150, "velocity": 70}, {"time": 74170, "pitch": 60, "duration": 130, "velocity": 75}, {"time": 74170, "pitch": 64, "duration": 130, "velocity": 80}, {"time": 74300, "pitch": 60, "duration": 110, "velocity": 105}, {"time": 74300, "pitch": 64, "duration": 110, "velocity": 110}, {"time": 74310, "pitch": 52, "duration": 90, "velocity": 95}, {"time": 74310, "pitch": 55, "duration": 90, "velocity": 100}, {"time": 74400, "pitch": 52, "duration": 240, "velocity": 105}, {"time": 74400, "pitch": 55, "duration": 240, "velocity": 110}, {"time": 74410, "pitch": 60, "duration": 240, "velocity": 115}, {"time": 74410, "pitch": 64, "duration": 240, "velocity": 120}, {"time": 74640, "pitch": 52, "duration": 150, "velocity": 85}, {"time": 74640, "pitch": 55, "duration": 150, "velocity": 90}, {"time": 74650, "pitch": 60, "duration": 130, "velocity": 95}, {"time": 74650, "pitch": 64, "duration": 130, "velocity": 100}, {"time": 74780, "pitch": 60, "duration": 80, "velocity": 90}, {"time": 74780, "pitch": 64, "duration": 80, "velocity": 95}, {"time": 74790, "pitch": 52, "duration": 70, "velocity": 80}, {"time": 74790, "pitch": 55, "duration": 70, "velocity": 85}, {"time": 74880, "pitch": 50, "duration": 250, "velocity": 95}, {"time": 74880, "pitch": 57, "duration": 250, "velocity": 100}, {"time": 74890, "pitch": 60, "duration": 230, "velocity": 105}, {"time": 74890, "pitch": 65, "duration": 230, "velocity": 110}, {"time": 75120, "pitch": 60, "duration": 250, "velocity": 95}, {"time": 75120, "pitch": 65, "duration": 250, "velocity": 100}, {"time": 75130, "pitch": 50, "duration": 230, "velocity": 85}, {"time": 75130, "pitch": 57, "duration": 230, "velocity": 90}, {"time": 75360, "pitch": 50, "duration": 240, "velocity": 105}, {"time": 75360, "pitch": 57, "duration": 240, "velocity": 110}, {"time": 75370, "pitch": 60, "duration": 240, "velocity": 115}, {"time": 75370, "pitch": 65, "duration": 240, "velocity": 120}, {"time": 75600, "pitch": 50, "duration": 150, "velocity": 85}, {"time": 75600, "pitch": 57, "duration": 150, "velocity": 90}, {"time": 75610, "pitch": 60, "duration": 130, "velocity": 95}, {"time": 75610, "pitch": 65, "duration": 130, "velocity": 100}, {"time": 75740, "pitch": 60, "duration": 110, "velocity": 90}, {"time": 75740, "pitch": 65, "duration": 110, "velocity": 95}, {"time": 75750, "pitch": 50, "duration": 90, "velocity": 80}, {"time": 75750, "pitch": 57, "duration": 90, "velocity": 85}, {"time": 75840, "pitch": 50, "duration": 150, "velocity": 65}, {"time": 75840, "pitch": 57, "duration": 150, "velocity": 70}, {"time": 75850, "pitch": 60, "duration": 130, "velocity": 75}, {"time": 75850, "pitch": 65, "duration": 130, "velocity": 80}, {"time": 75980, "pitch": 60, "duration": 110, "velocity": 105}, {"time": 75980, "pitch": 65, "duration": 110, "velocity": 110}, {"time": 75990, "pitch": 50, "duration": 90, "velocity": 95}, {"time": 75990, "pitch": 57, "duration": 90, "velocity": 100}, {"time": 76080, "pitch": 50, "duration": 150, "velocity": 65}, {"time": 76080, "pitch": 57, "duration": 150, "velocity": 70}, {"time": 76090, "pitch": 60, "duration": 130, "velocity": 75}, {"time": 76090, "pitch": 65, "duration": 130, "velocity": 80}, {"time": 76220, "pitch": 60, "duration": 110, "velocity": 105}, {"time": 76220, "pitch": 65, "duration": 110, "velocity": 110}, {"time": 76230, "pitch": 50, "duration": 90, "velocity": 95}, {"time": 76230, "pitch": 57, "duration": 90, "velocity": 100}, {"time": 76320, "pitch": 50, "duration": 240, "velocity": 105}, {"time": 76320, "pitch": 57, "duration": 240, "velocity": 110}, {"time": 76330, "pitch": 60, "duration": 240, "velocity": 115}, {"time": 76330, "pitch": 65, "duration": 240, "velocity": 120}, {"time": 76560, "pitch": 50, "duration": 150, "velocity": 85}, {"time": 76560, "pitch": 57, "duration": 150, "velocity": 90}, {"time": 76570, "pitch": 60, "duration": 130, "velocity": 95}, {"time": 76570, "pitch": 65, "duration": 130, "velocity": 100}, {"time": 76700, "pitch": 60, "duration": 80, "velocity": 90}, {"time": 76700, "pitch": 65, "duration": 80, "velocity": 95}, {"time": 76710, "pitch": 50, "duration": 70, "velocity": 80}, {"time": 76710, "pitch": 57, "duration": 70, "velocity": 85}, {"time": 76800, "pitch": 50, "duration": 250, "velocity": 95}, {"time": 76800, "pitch": 55, "duration": 250, "velocity": 100}, {"time": 76810, "pitch": 60, "duration": 230, "velocity": 105}, {"time": 76810, "pitch": 65, "duration": 230, "velocity": 110}, {"time": 77040, "pitch": 60, "duration": 250, "velocity": 95}, {"time": 77040, "pitch": 65, "duration": 250, "velocity": 100}, {"time": 77050, "pitch": 50, "duration": 230, "velocity": 85}, {"time": 77050, "pitch": 55, "duration": 230, "velocity": 90}, {"time": 77280, "pitch": 50, "duration": 240, "velocity": 105}, {"time": 77280, "pitch": 55, "duration": 240, "velocity": 110}, {"time": 77290, "pitch": 60, "duration": 240, "velocity": 115}, {"time": 77290, "pitch": 65, "duration": 240, "velocity": 120}, {"time": 77520, "pitch": 50, "duration": 150, "velocity": 85}, {"time": 77520, "pitch": 55, "duration": 150, "velocity": 90}, {"time": 77530, "pitch": 60, "duration": 130, "velocity": 95}, {"time": 77530, "pitch": 65, "duration": 130, "velocity": 100}, {"time": 77660, "pitch": 60, "duration": 110, "velocity": 90}, {"time": 77660, "pitch": 65, "duration": 110, "velocity": 95}, {"time": 77670, "pitch": 50, "duration": 90, "velocity": 80}, {"time": 77670, "pitch": 55, "duration": 90, "velocity": 85}, {"time": 77760, "pitch": 50, "duration": 150, "velocity": 65}, {"time": 77760, "pitch": 55, "duration": 150, "velocity": 70}, {"time": 77770, "pitch": 60, "duration": 130, "velocity": 75}, {"time": 77770, "pitch": 65, "duration": 130, "velocity": 80}, {"time": 77900, "pitch": 60, "duration": 110, "velocity": 105}, {"time": 77900, "pitch": 65, "duration": 110, "velocity": 110}, {"time": 77910, "pitch": 50, "duration": 90, "velocity": 95}, {"time": 77910, "pitch": 55, "duration": 90, "velocity": 100}, {"time": 78000, "pitch": 50, "duration": 150, "velocity": 65}, {"time": 78000, "pitch": 55, "duration": 150, "velocity": 70}, {"time": 78010, "pitch": 60, "duration": 130, "velocity": 75}, {"time": 78010, "pitch": 65, "duration": 130, "velocity": 80}, {"time": 78140, "pitch": 60, "duration": 110, "velocity": 105}, {"time": 78140, "pitch": 65, "duration": 110, "velocity": 110}, {"time": 78150, "pitch": 50, "duration": 90, "velocity": 95}, {"time": 78150, "pitch": 55, "duration": 90, "velocity": 100}, {"time": 78240, "pitch": 50, "duration": 240, "velocity": 105}, {"time": 78240, "pitch": 55, "duration": 240, "velocity": 110}, {"time": 78250, "pitch": 60, "duration": 240, "velocity": 115}, {"time": 78250, "pitch": 65, "duration": 240, "velocity": 120}, {"time": 78480, "pitch": 50, "duration": 150, "velocity": 85}, {"time": 78480, "pitch": 55, "duration": 150, "velocity": 90}, {"time": 78490, "pitch": 60, "duration": 130, "velocity": 95}, {"time": 78490, "pitch": 65, "duration": 130, "velocity": 100}, {"time": 78620, "pitch": 60, "duration": 80, "velocity": 90}, {"time": 78620, "pitch": 65, "duration": 80, "velocity": 95}, {"time": 78630, "pitch": 50, "duration": 70, "velocity": 80}, {"time": 78630, "pitch": 55, "duration": 70, "velocity": 85}, {"time": 78720, "pitch": 52, "duration": 250, "velocity": 95}, {"time": 78720, "pitch": 55, "duration": 250, "velocity": 100}, {"time": 78730, "pitch": 60, "duration": 230, "velocity": 105}, {"time": 78730, "pitch": 64, "duration": 230, "velocity": 110}, {"time": 78960, "pitch": 60, "duration": 250, "velocity": 95}, {"time": 78960, "pitch": 64, "duration": 250, "velocity": 100}, {"time": 78970, "pitch": 52, "duration": 230, "velocity": 85}, {"time": 78970, "pitch": 55, "duration": 230, "velocity": 90}, {"time": 79200, "pitch": 52, "duration": 240, "velocity": 105}, {"time": 79200, "pitch": 55, "duration": 240, "velocity": 110}, {"time": 79210, "pitch": 60, "duration": 240, "velocity": 115}, {"time": 79210, "pitch": 64, "duration": 240, "velocity": 120}, {"time": 79440, "pitch": 52, "duration": 150, "velocity": 85}, {"time": 79440, "pitch": 55, "duration": 150, "velocity": 90}, {"time": 79450, "pitch": 60, "duration": 130, "velocity": 95}, {"time": 79450, "pitch": 64, "duration": 130, "velocity": 100}, {"time": 79580, "pitch": 60, "duration": 110, "velocity": 90}, {"time": 79580, "pitch": 64, "duration": 110, "velocity": 95}, {"time": 79590, "pitch": 52, "duration": 90, "velocity": 80}, {"time": 79590, "pitch": 55, "duration": 90, "velocity": 85}, {"time": 79680, "pitch": 52, "duration": 150, "velocity": 65}, {"time": 79680, "pitch": 55, "duration": 150, "velocity": 70}, {"time": 79690, "pitch": 60, "duration": 130, "velocity": 75}, {"time": 79690, "pitch": 64, "duration": 130, "velocity": 80}, {"time": 79820, "pitch": 60, "duration": 110, "velocity": 105}, {"time": 79820, "pitch": 64, "duration": 110, "velocity": 110}, {"time": 79830, "pitch": 52, "duration": 90, "velocity": 95}, {"time": 79830, "pitch": 55, "duration": 90, "velocity": 100}, {"time": 79920, "pitch": 52, "duration": 150, "velocity": 65}, {"time": 79920, "pitch": 55, "duration": 150, "velocity": 70}, {"time": 79930, "pitch": 60, "duration": 130, "velocity": 75}, {"time": 79930, "pitch": 64, "duration": 130, "velocity": 80}, {"time": 80060, "pitch": 60, "duration": 110, "velocity": 105}, {"time": 80060, "pitch": 64, "duration": 110, "velocity": 110}, {"time": 80070, "pitch": 52, "duration": 90, "velocity": 95}, {"time": 80070, "pitch": 55, "duration": 90, "velocity": 100}, {"time": 80160, "pitch": 52, "duration": 240, "velocity": 105}, {"time": 80160, "pitch": 55, "duration": 240, "velocity": 110}, {"time": 80170, "pitch": 60, "duration": 240, "velocity": 115}, {"time": 80170, "pitch": 64, "duration": 240, "velocity": 120}, {"time": 80400, "pitch": 52, "duration": 150, "velocity": 85}, {"time": 80400, "pitch": 55, "duration": 150, "velocity": 90}, {"time": 80410, "pitch": 60, "duration": 130, "velocity": 95}, {"time": 80410, "pitch": 64, "duration": 130, "velocity": 100}, {"time": 80540, "pitch": 60, "duration": 80, "velocity": 90}, {"time": 80540, "pitch": 64, "duration": 80, "velocity": 95}, {"time": 80550, "pitch": 52, "duration": 70, "velocity": 80}, {"time": 80550, "pitch": 55, "duration": 70, "velocity": 85}, {"time": 80640, "pitch": 50, "duration": 250, "velocity": 95}, {"time": 80640, "pitch": 55, "duration": 250, "velocity": 100}, {"time": 80650, "pitch": 59, "duration": 230, "velocity": 105}, {"time": 80650, "pitch": 67, "duration": 230, "velocity": 110}, {"time": 80880, "pitch": 59, "duration": 250, "velocity": 95}, {"time": 80880, "pitch": 67, "duration": 250, "velocity": 100}, {"time": 80890, "pitch": 50, "duration": 230, "velocity": 85}, {"time": 80890, "pitch": 55, "duration": 230, "velocity": 90}, {"time": 81120, "pitch": 50, "duration": 240, "velocity": 105}, {"time": 81120, "pitch": 55, "duration": 240, "velocity": 110}, {"time": 81130, "pitch": 59, "duration": 240, "velocity": 115}, {"time": 81130, "pitch": 67, "duration": 240, "velocity": 120}, {"time": 81360, "pitch": 50, "duration": 150, "velocity": 85}, {"time": 81360, "pitch": 55, "duration": 150, "velocity": 90}, {"time": 81370, "pitch": 59, "duration": 130, "velocity": 95}, {"time": 81370, "pitch": 67, "duration": 130, "velocity": 100}, {"time": 81500, "pitch": 59, "duration": 110, "velocity": 90}, {"time": 81500, "pitch": 67, "duration": 110, "velocity": 95}, {"time": 81510, "pitch": 50, "duration": 90, "velocity": 80}, {"time": 81510, "pitch": 55, "duration": 90, "velocity": 85}, {"time": 81600, "pitch": 50, "duration": 150, "velocity": 65}, {"time": 81600, "pitch": 55, "duration": 150, "velocity": 70}, {"time": 81610, "pitch": 59, "duration": 130, "velocity": 75}, {"time": 81610, "pitch": 67, "duration": 130, "velocity": 80}, {"time": 81740, "pitch": 59, "duration": 110, "velocity": 105}, {"time": 81740, "pitch": 67, "duration": 110, "velocity": 110}, {"time": 81750, "pitch": 50, "duration": 90, "velocity": 95}, {"time": 81750, "pitch": 55, "duration": 90, "velocity": 100}, {"time": 81840, "pitch": 50, "duration": 150, "velocity": 65}, {"time": 81840, "pitch": 55, "duration": 150, "velocity": 70}, {"time": 81850, "pitch": 59, "duration": 130, "velocity": 75}, {"time": 81850, "pitch": 67, "duration": 130, "velocity": 80}, {"time": 81980, "pitch": 59, "duration": 110, "velocity": 105}, {"time": 81980, "pitch": 67, "duration": 110, "velocity": 110}, {"time": 81990, "pitch": 50, "duration": 90, "velocity": 95}, {"time": 81990, "pitch": 55, "duration": 90, "velocity": 100}, {"time": 82080, "pitch": 50, "duration": 240, "velocity": 105}, {"time": 82080, "pitch": 55, "duration": 240, "velocity": 110}, {"time": 82090, "pitch": 59, "duration": 240, "velocity": 115}, {"time": 82090, "pitch": 67, "duration": 240, "velocity": 120}, {"time": 82320, "pitch": 50, "duration": 150, "velocity": 85}, {"time": 82320, "pitch": 55, "duration": 150, "velocity": 90}, {"time": 82330, "pitch": 59, "duration": 130, "velocity": 95}, {"time": 82330, "pitch": 67, "duration": 130, "velocity": 100}, {"time": 82460, "pitch": 59, "duration": 80, "velocity": 90}, {"time": 82460, "pitch": 67, "duration": 80, "velocity": 95}, {"time": 82470, "pitch": 50, "duration": 70, "velocity": 80}, {"time": 82470, "pitch": 55, "duration": 70, "velocity": 85}, {"time": 82560, "pitch": 50, "duration": 250, "velocity": 95}, {"time": 82560, "pitch": 55, "duration": 250, "velocity": 100}, {"time": 82570, "pitch": 62, "duration": 230, "velocity": 105}, {"time": 82570, "pitch": 67, "duration": 230, "velocity": 110}, {"time": 82800, "pitch": 62, "duration": 250, "velocity": 95}, {"time": 82800, "pitch": 67, "duration": 250, "velocity": 100}, {"time": 82810, "pitch": 50, "duration": 230, "velocity": 85}, {"time": 82810, "pitch": 55, "duration": 230, "velocity": 90}, {"time": 83040, "pitch": 50, "duration": 240, "velocity": 105}, {"time": 83040, "pitch": 55, "duration": 240, "velocity": 110}, {"time": 83050, "pitch": 62, "duration": 240, "velocity": 115}, {"time": 83050, "pitch": 67, "duration": 240, "velocity": 120}, {"time": 83280, "pitch": 50, "duration": 150, "velocity": 85}, {"time": 83280, "pitch": 55, "duration": 150, "velocity": 90}, {"time": 83290, "pitch": 62, "duration": 130, "velocity": 95}, {"time": 83290, "pitch": 67, "duration": 130, "velocity": 100}, {"time": 83420, "pitch": 62, "duration": 110, "velocity": 90}, {"time": 83420, "pitch": 67, "duration": 110, "velocity": 95}, {"time": 83430, "pitch": 50, "duration": 90, "velocity": 80}, {"time": 83430, "pitch": 55, "duration": 90, "velocity": 85}, {"time": 83520, "pitch": 50, "duration": 150, "velocity": 65}, {"time": 83520, "pitch": 55, "duration": 150, "velocity": 70}, {"time": 83530, "pitch": 62, "duration": 130, "velocity": 75}, {"time": 83530, "pitch": 67, "duration": 130, "velocity": 80}, {"time": 83660, "pitch": 62, "duration": 110, "velocity": 105}, {"time": 83660, "pitch": 67, "duration": 110, "velocity": 110}, {"time": 83670, "pitch": 50, "duration": 90, "velocity": 95}, {"time": 83670, "pitch": 55, "duration": 90, "velocity": 100}, {"time": 83760, "pitch": 50, "duration": 150, "velocity": 65}, {"time": 83760, "pitch": 55, "duration": 150, "velocity": 70}, {"time": 83770, "pitch": 62, "duration": 130, "velocity": 75}, {"time": 83770, "pitch": 67, "duration": 130, "velocity": 80}, {"time": 83900, "pitch": 62, "duration": 110, "velocity": 105}, {"time": 83900, "pitch": 67, "duration": 110, "velocity": 110}, {"time": 83910, "pitch": 50, "duration": 90, "velocity": 95}, {"time": 83910, "pitch": 55, "duration": 90, "velocity": 100}, {"time": 84000, "pitch": 50, "duration": 240, "velocity": 105}, {"time": 84000, "pitch": 55, "duration": 240, "velocity": 110}, {"time": 84010, "pitch": 62, "duration": 240, "velocity": 115}, {"time": 84010, "pitch": 67, "duration": 240, "velocity": 120}, {"time": 84240, "pitch": 50, "duration": 150, "velocity": 85}, {"time": 84240, "pitch": 55, "duration": 150, "velocity": 90}, {"time": 84250, "pitch": 62, "duration": 130, "velocity": 95}, {"time": 84250, "pitch": 67, "duration": 130, "velocity": 100}, {"time": 84380, "pitch": 62, "duration": 80, "velocity": 90}, {"time": 84380, "pitch": 67, "duration": 80, "velocity": 95}, {"time": 84390, "pitch": 50, "duration": 70, "velocity": 80}, {"time": 84390, "pitch": 55, "duration": 70, "velocity": 85}, {"time": 84480, "pitch": 52, "duration": 250, "velocity": 95}, {"time": 84480, "pitch": 57, "duration": 250, "velocity": 100}, {"time": 84490, "pitch": 61, "duration": 230, "velocity": 105}, {"time": 84490, "pitch": 67, "duration": 230, "velocity": 110}, {"time": 84720, "pitch": 61, "duration": 250, "velocity": 95}, {"time": 84720, "pitch": 67, "duration": 250, "velocity": 100}, {"time": 84730, "pitch": 52, "duration": 230, "velocity": 85}, {"time": 84730, "pitch": 57, "duration": 230, "velocity": 90}, {"time": 84960, "pitch": 52, "duration": 240, "velocity": 105}, {"time": 84960, "pitch": 57, "duration": 240, "velocity": 110}, {"time": 84970, "pitch": 61, "duration": 240, "velocity": 115}, {"time": 84970, "pitch": 67, "duration": 240, "velocity": 120}, {"time": 85200, "pitch": 52, "duration": 150, "velocity": 85}, {"time": 85200, "pitch": 57, "duration": 150, "velocity": 90}, {"time": 85210, "pitch": 61, "duration": 130, "velocity": 95}, {"time": 85210, "pitch": 67, "duration": 130, "velocity": 100}, {"time": 85340, "pitch": 61, "duration": 110, "velocity": 90}, {"time": 85340, "pitch": 67, "duration": 110, "velocity": 95}, {"time": 85350, "pitch": 52, "duration": 90, "velocity": 80}, {"time": 85350, "pitch": 57, "duration": 90, "velocity": 85}, {"time": 85440, "pitch": 52, "duration": 150, "velocity": 65}, {"time": 85440, "pitch": 57, "duration": 150, "velocity": 70}, {"time": 85450, "pitch": 61, "duration": 130, "velocity": 75}, {"time": 85450, "pitch": 67, "duration": 130, "velocity": 80}, {"time": 85580, "pitch": 61, "duration": 110, "velocity": 105}, {"time": 85580, "pitch": 67, "duration": 110, "velocity": 110}, {"time": 85590, "pitch": 52, "duration": 90, "velocity": 95}, {"time": 85590, "pitch": 57, "duration": 90, "velocity": 100}, {"time": 85680, "pitch": 52, "duration": 150, "velocity": 65}, {"time": 85680, "pitch": 57, "duration": 150, "velocity": 70}, {"time": 85690, "pitch": 61, "duration": 130, "velocity": 75}, {"time": 85690, "pitch": 67, "duration": 130, "velocity": 80}, {"time": 85820, "pitch": 61, "duration": 110, "velocity": 105}, {"time": 85820, "pitch": 67, "duration": 110, "velocity": 110}, {"time": 85830, "pitch": 52, "duration": 90, "velocity": 95}, {"time": 85830, "pitch": 57, "duration": 90, "velocity": 100}, {"time": 85920, "pitch": 52, "duration": 240, "velocity": 105}, {"time": 85920, "pitch": 57, "duration": 240, "velocity": 110}, {"time": 85930, "pitch": 61, "duration": 240, "velocity": 115}, {"time": 85930, "pitch": 67, "duration": 240, "velocity": 120}, {"time": 86160, "pitch": 52, "duration": 150, "velocity": 85}, {"time": 86160, "pitch": 57, "duration": 150, "velocity": 90}, {"time": 86170, "pitch": 61, "duration": 130, "velocity": 95}, {"time": 86170, "pitch": 67, "duration": 130, "velocity": 100}, {"time": 86300, "pitch": 61, "duration": 80, "velocity": 90}, {"time": 86300, "pitch": 67, "duration": 80, "velocity": 95}, {"time": 86310, "pitch": 52, "duration": 70, "velocity": 80}, {"time": 86310, "pitch": 57, "duration": 70, "velocity": 85}, {"time": 86400, "pitch": 53, "duration": 250, "velocity": 95}, {"time": 86400, "pitch": 56, "duration": 250, "velocity": 100}, {"time": 86410, "pitch": 60, "duration": 230, "velocity": 105}, {"time": 86410, "pitch": 65, "duration": 230, "velocity": 110}, {"time": 86640, "pitch": 60, "duration": 250, "velocity": 95}, {"time": 86640, "pitch": 65, "duration": 250, "velocity": 100}, {"time": 86650, "pitch": 53, "duration": 230, "velocity": 85}, {"time": 86650, "pitch": 56, "duration": 230, "velocity": 90}, {"time": 86880, "pitch": 53, "duration": 240, "velocity": 105}, {"time": 86880, "pitch": 56, "duration": 240, "velocity": 110}, {"time": 86890, "pitch": 60, "duration": 240, "velocity": 115}, {"time": 86890, "pitch": 65, "duration": 240, "velocity": 120}, {"time": 87120, "pitch": 53, "duration": 150, "velocity": 85}, {"time": 87120, "pitch": 56, "duration": 150, "velocity": 90}, {"time": 87130, "pitch": 60, "duration": 130, "velocity": 95}, {"time": 87130, "pitch": 65, "duration": 130, "velocity": 100}, {"time": 87260, "pitch": 60, "duration": 110, "velocity": 90}, {"time": 87260, "pitch": 65, "duration": 110, "velocity": 95}, {"time": 87270, "pitch": 53, "duration": 90, "velocity": 80}, {"time": 87270, "pitch": 56, "duration": 90, "velocity": 85}, {"time": 87360, "pitch": 53, "duration": 150, "velocity": 65}, {"time": 87360, "pitch": 56, "duration": 150, "velocity": 70}, {"time": 87370, "pitch": 60, "duration": 130, "velocity": 75}, {"time": 87370, "pitch": 65, "duration": 130, "velocity": 80}, {"time": 87500, "pitch": 60, "duration": 110, "velocity": 105}, {"time": 87500, "pitch": 65, "duration": 110, "velocity": 110}, {"time": 87510, "pitch": 53, "duration": 90, "velocity": 95}, {"time": 87510, "pitch": 56, "duration": 90, "velocity": 100}, {"time": 87600, "pitch": 53, "duration": 150, "velocity": 65}, {"time": 87600, "pitch": 56, "duration": 150, "velocity": 70}, {"time": 87610, "pitch": 60, "duration": 130, "velocity": 75}, {"time": 87610, "pitch": 65, "duration": 130, "velocity": 80}, {"time": 87740, "pitch": 60, "duration": 110, "velocity": 105}, {"time": 87740, "pitch": 65, "duration": 110, "velocity": 110}, {"time": 87750, "pitch": 53, "duration": 90, "velocity": 95}, {"time": 87750, "pitch": 56, "duration": 90, "velocity": 100}, {"time": 87840, "pitch": 53, "duration": 240, "velocity": 105}, {"time": 87840, "pitch": 56, "duration": 240, "velocity": 110}, {"time": 87850, "pitch": 60, "duration": 240, "velocity": 115}, {"time": 87850, "pitch": 65, "duration": 240, "velocity": 120}, {"time": 88080, "pitch": 53, "duration": 150, "velocity": 85}, {"time": 88080, "pitch": 56, "duration": 150, "velocity": 90}, {"time": 88090, "pitch": 60, "duration": 130, "velocity": 95}, {"time": 88090, "pitch": 65, "duration": 130, "velocity": 100}, {"time": 88220, "pitch": 60, "duration": 80, "velocity": 90}, {"time": 88220, "pitch": 65, "duration": 80, "velocity": 95}, {"time": 88230, "pitch": 53, "duration": 70, "velocity": 80}, {"time": 88230, "pitch": 56, "duration": 70, "velocity": 85}, {"time": 88320, "pitch": 52, "duration": 250, "velocity": 95}, {"time": 88320, "pitch": 55, "duration": 250, "velocity": 100}, {"time": 88330, "pitch": 60, "duration": 230, "velocity": 105}, {"time": 88330, "pitch": 64, "duration": 230, "velocity": 110}, {"time": 88560, "pitch": 60, "duration": 250, "velocity": 95}, {"time": 88560, "pitch": 64, "duration": 250, "velocity": 100}, {"time": 88570, "pitch": 52, "duration": 230, "velocity": 85}, {"time": 88570, "pitch": 55, "duration": 230, "velocity": 90}, {"time": 88800, "pitch": 52, "duration": 240, "velocity": 105}, {"time": 88800, "pitch": 55, "duration": 240, "velocity": 110}, {"time": 88810, "pitch": 60, "duration": 240, "velocity": 115}, {"time": 88810, "pitch": 64, "duration": 240, "velocity": 120}, {"time": 89040, "pitch": 52, "duration": 150, "velocity": 85}, {"time": 89040, "pitch": 55, "duration": 150, "velocity": 90}, {"time": 89050, "pitch": 60, "duration": 130, "velocity": 95}, {"time": 89050, "pitch": 64, "duration": 130, "velocity": 100}, {"time": 89180, "pitch": 60, "duration": 110, "velocity": 90}, {"time": 89180, "pitch": 64, "duration": 110, "velocity": 95}, {"time": 89190, "pitch": 52, "duration": 90, "velocity": 80}, {"time": 89190, "pitch": 55, "duration": 90, "velocity": 85}, {"time": 89280, "pitch": 52, "duration": 150, "velocity": 65}, {"time": 89280, "pitch": 55, "duration": 150, "velocity": 70}, {"time": 89290, "pitch": 60, "duration": 130, "velocity": 75}, {"time": 89290, "pitch": 64, "duration": 130, "velocity": 80}, {"time": 89420, "pitch": 60, "duration": 110, "velocity": 105}, {"time": 89420, "pitch": 64, "duration": 110, "velocity": 110}, {"time": 89430, "pitch": 52, "duration": 90, "velocity": 95}, {"time": 89430, "pitch": 55, "duration": 90, "velocity": 100}, {"time": 89520, "pitch": 52, "duration": 150, "velocity": 65}, {"time": 89520, "pitch": 55, "duration": 150, "velocity": 70}, {"time": 89530, "pitch": 60, "duration": 130, "velocity": 75}, {"time": 89530, "pitch": 64, "duration": 130, "velocity": 80}, {"time": 89660, "pitch": 60, "duration": 110, "velocity": 105}, {"time": 89660, "pitch": 64, "duration": 110, "velocity": 110}, {"time": 89670, "pitch": 52, "duration": 90, "velocity": 95}, {"time": 89670, "pitch": 55, "duration": 90, "velocity": 100}, {"time": 89760, "pitch": 52, "duration": 240, "velocity": 105}, {"time": 89760, "pitch": 55, "duration": 240, "velocity": 110}, {"time": 89770, "pitch": 60, "duration": 240, "velocity": 115}, {"time": 89770, "pitch": 64, "duration": 240, "velocity": 120}, {"time": 90000, "pitch": 52, "duration": 150, "velocity": 85}, {"time": 90000, "pitch": 55, "duration": 150, "velocity": 90}, {"time": 90010, "pitch": 60, "duration": 130, "velocity": 95}, {"time": 90010, "pitch": 64, "duration": 130, "velocity": 100}, {"time": 90140, "pitch": 60, "duration": 80, "velocity": 90}, {"time": 90140, "pitch": 64, "duration": 80, "velocity": 95}, {"time": 90150, "pitch": 52, "duration": 70, "velocity": 80}, {"time": 90150, "pitch": 55, "duration": 70, "velocity": 85}, {"time": 90240, "pitch": 50, "duration": 250, "velocity": 95}, {"time": 90240, "pitch": 57, "duration": 250, "velocity": 100}, {"time": 90250, "pitch": 60, "duration": 230, "velocity": 105}, {"time": 90250, "pitch": 65, "duration": 230, "velocity": 110}, {"time": 90480, "pitch": 60, "duration": 250, "velocity": 95}, {"time": 90480, "pitch": 65, "duration": 250, "velocity": 100}, {"time": 90490, "pitch": 50, "duration": 230, "velocity": 85}, {"time": 90490, "pitch": 57, "duration": 230, "velocity": 90}, {"time": 90720, "pitch": 50, "duration": 240, "velocity": 105}, {"time": 90720, "pitch": 57, "duration": 240, "velocity": 110}, {"time": 90730, "pitch": 60, "duration": 240, "velocity": 115}, {"time": 90730, "pitch": 65, "duration": 240, "velocity": 120}, {"time": 90960, "pitch": 50, "duration": 150, "velocity": 85}, {"time": 90960, "pitch": 57, "duration": 150, "velocity": 90}, {"time": 90970, "pitch": 60, "duration": 130, "velocity": 95}, {"time": 90970, "pitch": 65, "duration": 130, "velocity": 100}, {"time": 91100, "pitch": 60, "duration": 110, "velocity": 90}, {"time": 91100, "pitch": 65, "duration": 110, "velocity": 95}, {"time": 91110, "pitch": 50, "duration": 90, "velocity": 80}, {"time": 91110, "pitch": 57, "duration": 90, "velocity": 85}, {"time": 91200, "pitch": 50, "duration": 150, "velocity": 65}, {"time": 91200, "pitch": 57, "duration": 150, "velocity": 70}, {"time": 91210, "pitch": 60, "duration": 130, "velocity": 75}, {"time": 91210, "pitch": 65, "duration": 130, "velocity": 80}, {"time": 91340, "pitch": 60, "duration": 110, "velocity": 105}, {"time": 91340, "pitch": 65, "duration": 110, "velocity": 110}, {"time": 91350, "pitch": 50, "duration": 90, "velocity": 95}, {"time": 91350, "pitch": 57, "duration": 90, "velocity": 100}, {"time": 91440, "pitch": 50, "duration": 150, "velocity": 65}, {"time": 91440, "pitch": 57, "duration": 150, "velocity": 70}, {"time": 91450, "pitch": 60, "duration": 130, "velocity": 75}, {"time": 91450, "pitch": 65, "duration": 130, "velocity": 80}, {"time": 91580, "pitch": 60, "duration": 110, "velocity": 105}, {"time": 91580, "pitch": 65, "duration": 110, "velocity": 110}, {"time": 91590, "pitch": 50, "duration": 90, "velocity": 95}, {"time": 91590, "pitch": 57, "duration": 90, "velocity": 100}, {"time": 91680, "pitch": 50, "duration": 240, "velocity": 105}, {"time": 91680, "pitch": 57, "duration": 240, "velocity": 110}, {"time": 91690, "pitch": 60, "duration": 240, "velocity": 115}, {"time": 91690, "pitch": 65, "duration": 240, "velocity": 120}, {"time": 91920, "pitch": 50, "duration": 150, "velocity": 85}, {"time": 91920, "pitch": 57, "duration": 150, "velocity": 90}, {"time": 91930, "pitch": 60, "duration": 130, "velocity": 95}, {"time": 91930, "pitch": 65, "duration": 130, "velocity": 100}, {"time": 92060, "pitch": 60, "duration": 80, "velocity": 90}, {"time": 92060, "pitch": 65, "duration": 80, "velocity": 95}, {"time": 92070, "pitch": 50, "duration": 70, "velocity": 80}, {"time": 92070, "pitch": 57, "duration": 70, "velocity": 85}, {"time": 92160, "pitch": 50, "duration": 250, "velocity": 95}, {"time": 92160, "pitch": 56, "duration": 250, "velocity": 100}, {"time": 92170, "pitch": 60, "duration": 230, "velocity": 105}, {"time": 92170, "pitch": 65, "duration": 230, "velocity": 110}, {"time": 92400, "pitch": 60, "duration": 250, "velocity": 95}, {"time": 92400, "pitch": 65, "duration": 250, "velocity": 100}, {"time": 92410, "pitch": 50, "duration": 230, "velocity": 85}, {"time": 92410, "pitch": 56, "duration": 230, "velocity": 90}, {"time": 92640, "pitch": 50, "duration": 240, "velocity": 105}, {"time": 92640, "pitch": 56, "duration": 240, "velocity": 110}, {"time": 92650, "pitch": 60, "duration": 240, "velocity": 115}, {"time": 92650, "pitch": 65, "duration": 240, "velocity": 120}, {"time": 92880, "pitch": 50, "duration": 150, "velocity": 105}, {"time": 92880, "pitch": 56, "duration": 150, "velocity": 110}, {"time": 92890, "pitch": 60, "duration": 130, "velocity": 115}, {"time": 92890, "pitch": 65, "duration": 130, "velocity": 120}, {"time": 93020, "pitch": 60, "duration": 110, "velocity": 110}, {"time": 93020, "pitch": 65, "duration": 110, "velocity": 115}, {"time": 93030, "pitch": 50, "duration": 90, "velocity": 100}, {"time": 93030, "pitch": 56, "duration": 90, "velocity": 105}, {"time": 93120, "pitch": 50, "duration": 940, "velocity": 105}, {"time": 93120, "pitch": 56, "duration": 940, "velocity": 110}, {"time": 93130, "pitch": 60, "duration": 930, "velocity": 115}, {"time": 93130, "pitch": 65, "duration": 930, "velocity": 120}, {"time": 94080, "pitch": 52, "duration": 250, "velocity": 95}, {"time": 94080, "pitch": 55, "duration": 250, "velocity": 100}, {"time": 94090, "pitch": 60, "duration": 230, "velocity": 105}, {"time": 94090, "pitch": 64, "duration": 230, "velocity": 110}, {"time": 94320, "pitch": 60, "duration": 250, "velocity": 95}, {"time": 94320, "pitch": 64, "duration": 250, "velocity": 100}, {"time": 94330, "pitch": 52, "duration": 230, "velocity": 85}, {"time": 94330, "pitch": 55, "duration": 230, "velocity": 90}, {"time": 94560, "pitch": 52, "duration": 240, "velocity": 105}, {"time": 94560, "pitch": 55, "duration": 240, "velocity": 110}, {"time": 94570, "pitch": 60, "duration": 240, "velocity": 115}, {"time": 94570, "pitch": 64, "duration": 240, "velocity": 120}, {"time": 94800, "pitch": 52, "duration": 150, "velocity": 85}, {"time": 94800, "pitch": 55, "duration": 150, "velocity": 90}, {"time": 94810, "pitch": 60, "duration": 130, "velocity": 95}, {"time": 94810, "pitch": 64, "duration": 130, "velocity": 100}, {"time": 94940, "pitch": 60, "duration": 110, "velocity": 90}, {"time": 94940, "pitch": 64, "duration": 110, "velocity": 95}, {"time": 94950, "pitch": 52, "duration": 90, "velocity": 80}, {"time": 94950, "pitch": 55, "duration": 90, "velocity": 85}, {"time": 95040, "pitch": 52, "duration": 150, "velocity": 65}, {"time": 95040, "pitch": 55, "duration": 150, "velocity": 70}, {"time": 95050, "pitch": 60, "duration": 130, "velocity": 75}, {"time": 95050, "pitch": 64, "duration": 130, "velocity": 80}, {"time": 95180, "pitch": 60, "duration": 110, "velocity": 105}, {"time": 95180, "pitch": 64, "duration": 110, "velocity": 110}, {"time": 95190, "pitch": 52, "duration": 90, "velocity": 95}, {"time": 95190, "pitch": 55, "duration": 90, "velocity": 100}, {"time": 95280, "pitch": 52, "duration": 150, "velocity": 65}, {"time": 95280, "pitch": 55, "duration": 150, "velocity": 70}, {"time": 95290, "pitch": 60, "duration": 130, "velocity": 75}, {"time": 95290, "pitch": 64, "duration": 130, "velocity": 80}, {"time": 95420, "pitch": 60, "duration": 110, "velocity": 105}, {"time": 95420, "pitch": 64, "duration": 110, "velocity": 110}, {"time": 95430, "pitch": 52, "duration": 90, "velocity": 95}, {"time": 95430, "pitch": 55, "duration": 90, "velocity": 100}, {"time": 95520, "pitch": 52, "duration": 240, "velocity": 105}, {"time": 95520, "pitch": 55, "duration": 240, "velocity": 110}, {"time": 95530, "pitch": 60, "duration": 240, "velocity": 115}, {"time": 95530, "pitch": 64, "duration": 240, "velocity": 120}, {"time": 95760, "pitch": 52, "duration": 150, "velocity": 85}, {"time": 95760, "pitch": 55, "duration": 150, "velocity": 90}, {"time": 95770, "pitch": 60, "duration": 130, "velocity": 95}, {"time": 95770, "pitch": 64, "duration": 130, "velocity": 100}, {"time": 95900, "pitch": 60, "duration": 80, "velocity": 90}, {"time": 95900, "pitch": 64, "duration": 80, "velocity": 95}, {"time": 95910, "pitch": 52, "duration": 70, "velocity": 80}, {"time": 95910, "pitch": 55, "duration": 70, "velocity": 85}, {"time": 96000, "pitch": 50, "duration": 250, "velocity": 95}, {"time": 96000, "pitch": 55, "duration": 250, "velocity": 100}, {"time": 96010, "pitch": 59, "duration": 230, "velocity": 105}, {"time": 96010, "pitch": 67, "duration": 230, "velocity": 110}, {"time": 96240, "pitch": 59, "duration": 250, "velocity": 95}, {"time": 96240, "pitch": 67, "duration": 250, "velocity": 100}, {"time": 96250, "pitch": 50, "duration": 230, "velocity": 85}, {"time": 96250, "pitch": 55, "duration": 230, "velocity": 90}, {"time": 96480, "pitch": 50, "duration": 240, "velocity": 105}, {"time": 96480, "pitch": 55, "duration": 240, "velocity": 110}, {"time": 96490, "pitch": 59, "duration": 240, "velocity": 115}, {"time": 96490, "pitch": 67, "duration": 240, "velocity": 120}, {"time": 96720, "pitch": 50, "duration": 150, "velocity": 85}, {"time": 96720, "pitch": 55, "duration": 150, "velocity": 90}, {"time": 96730, "pitch": 59, "duration": 130, "velocity": 95}, {"time": 96730, "pitch": 67, "duration": 130, "velocity": 100}, {"time": 96860, "pitch": 59, "duration": 110, "velocity": 90}, {"time": 96860, "pitch": 67, "duration": 110, "velocity": 95}, {"time": 96870, "pitch": 50, "duration": 90, "velocity": 80}, {"time": 96870, "pitch": 55, "duration": 90, "velocity": 85}, {"time": 96960, "pitch": 50, "duration": 150, "velocity": 65}, {"time": 96960, "pitch": 55, "duration": 150, "velocity": 70}, {"time": 96970, "pitch": 59, "duration": 130, "velocity": 75}, {"time": 96970, "pitch": 67, "duration": 130, "velocity": 80}, {"time": 97100, "pitch": 59, "duration": 110, "velocity": 105}, {"time": 97100, "pitch": 67, "duration": 110, "velocity": 110}, {"time": 97110, "pitch": 50, "duration": 90, "velocity": 95}, {"time": 97110, "pitch": 55, "duration": 90, "velocity": 100}, {"time": 97200, "pitch": 50, "duration": 150, "velocity": 65}, {"time": 97200, "pitch": 55, "duration": 150, "velocity": 70}, {"time": 97210, "pitch": 59, "duration": 130, "velocity": 75}, {"time": 97210, "pitch": 67, "duration": 130, "velocity": 80}, {"time": 97340, "pitch": 59, "duration": 110, "velocity": 105}, {"time": 97340, "pitch": 67, "duration": 110, "velocity": 110}, {"time": 97350, "pitch": 50, "duration": 90, "velocity": 95}, {"time": 97350, "pitch": 55, "duration": 90, "velocity": 100}, {"time": 97440, "pitch": 50, "duration": 240, "velocity": 105}, {"time": 97440, "pitch": 55, "duration": 240, "velocity": 110}, {"time": 97450, "pitch": 59, "duration": 240, "velocity": 115}, {"time": 97450, "pitch": 67, "duration": 240, "velocity": 120}, {"time": 97680, "pitch": 50, "duration": 150, "velocity": 85}, {"time": 97680, "pitch": 55, "duration": 150, "velocity": 90}, {"time": 97690, "pitch": 59, "duration": 130, "velocity": 95}, {"time": 97690, "pitch": 67, "duration": 130, "velocity": 100}, {"time": 97820, "pitch": 59, "duration": 80, "velocity": 90}, {"time": 97820, "pitch": 67, "duration": 80, "velocity": 95}, {"time": 97830, "pitch": 50, "duration": 70, "velocity": 80}, {"time": 97830, "pitch": 55, "duration": 70, "velocity": 85}, {"time": 97920, "pitch": 52, "duration": 250, "velocity": 95}, {"time": 97920, "pitch": 57, "duration": 250, "velocity": 100}, {"time": 97930, "pitch": 60, "duration": 230, "velocity": 105}, {"time": 97930, "pitch": 67, "duration": 230, "velocity": 110}, {"time": 98160, "pitch": 60, "duration": 250, "velocity": 95}, {"time": 98160, "pitch": 67, "duration": 250, "velocity": 100}, {"time": 98170, "pitch": 52, "duration": 230, "velocity": 85}, {"time": 98170, "pitch": 57, "duration": 230, "velocity": 90}, {"time": 98400, "pitch": 52, "duration": 240, "velocity": 105}, {"time": 98400, "pitch": 57, "duration": 240, "velocity": 110}, {"time": 98410, "pitch": 60, "duration": 240, "velocity": 115}, {"time": 98410, "pitch": 67, "duration": 240, "velocity": 120}, {"time": 98640, "pitch": 52, "duration": 150, "velocity": 85}, {"time": 98640, "pitch": 57, "duration": 150, "velocity": 90}, {"time": 98650, "pitch": 60, "duration": 130, "velocity": 95}, {"time": 98650, "pitch": 67, "duration": 130, "velocity": 100}, {"time": 98780, "pitch": 60, "duration": 110, "velocity": 90}, {"time": 98780, "pitch": 67, "duration": 110, "velocity": 95}, {"time": 98790, "pitch": 52, "duration": 90, "velocity": 80}, {"time": 98790, "pitch": 57, "duration": 90, "velocity": 85}, {"time": 98880, "pitch": 52, "duration": 150, "velocity": 65}, {"time": 98880, "pitch": 57, "duration": 150, "velocity": 70}, {"time": 98890, "pitch": 60, "duration": 130, "velocity": 75}, {"time": 98890, "pitch": 67, "duration": 130, "velocity": 80}, {"time": 99020, "pitch": 60, "duration": 110, "velocity": 105}, {"time": 99020, "pitch": 67, "duration": 110, "velocity": 110}, {"time": 99030, "pitch": 52, "duration": 90, "velocity": 95}, {"time": 99030, "pitch": 57, "duration": 90, "velocity": 100}, {"time": 99120, "pitch": 52, "duration": 150, "velocity": 65}, {"time": 99120, "pitch": 57, "duration": 150, "velocity": 70}, {"time": 99130, "pitch": 60, "duration": 130, "velocity": 75}, {"time": 99130, "pitch": 67, "duration": 130, "velocity": 80}, {"time": 99260, "pitch": 60, "duration": 110, "velocity": 105}, {"time": 99260, "pitch": 67, "duration": 110, "velocity": 110}, {"time": 99270, "pitch": 52, "duration": 90, "velocity": 95}, {"time": 99270, "pitch": 57, "duration": 90, "velocity": 100}, {"time": 99360, "pitch": 52, "duration": 240, "velocity": 105}, {"time": 99360, "pitch": 57, "duration": 240, "velocity": 110}, {"time": 99370, "pitch": 60, "duration": 240, "velocity": 115}, {"time": 99370, "pitch": 67, "duration": 240, "velocity": 120}, {"time": 99600, "pitch": 52, "duration": 150, "velocity": 85}, {"time": 99600, "pitch": 57, "duration": 150, "velocity": 90}, {"time": 99610, "pitch": 60, "duration": 130, "velocity": 95}, {"time": 99610, "pitch": 67, "duration": 130, "velocity": 100}, {"time": 99740, "pitch": 60, "duration": 80, "velocity": 90}, {"time": 99740, "pitch": 67, "duration": 80, "velocity": 95}, {"time": 99750, "pitch": 52, "duration": 70, "velocity": 80}, {"time": 99750, "pitch": 57, "duration": 70, "velocity": 85}, {"time": 99840, "pitch": 52, "duration": 250, "velocity": 95}, {"time": 99840, "pitch": 59, "duration": 250, "velocity": 100}, {"time": 99850, "pitch": 62, "duration": 230, "velocity": 105}, {"time": 99850, "pitch": 67, "duration": 230, "velocity": 110}, {"time": 100080, "pitch": 62, "duration": 250, "velocity": 95}, {"time": 100080, "pitch": 67, "duration": 250, "velocity": 100}, {"time": 100090, "pitch": 52, "duration": 230, "velocity": 85}, {"time": 100090, "pitch": 59, "duration": 230, "velocity": 90}, {"time": 100320, "pitch": 52, "duration": 240, "velocity": 105}, {"time": 100320, "pitch": 59, "duration": 240, "velocity": 110}, {"time": 100330, "pitch": 62, "duration": 240, "velocity": 115}, {"time": 100330, "pitch": 67, "duration": 240, "velocity": 120}, {"time": 100560, "pitch": 52, "duration": 150, "velocity": 85}, {"time": 100560, "pitch": 59, "duration": 150, "velocity": 90}, {"time": 100570, "pitch": 62, "duration": 130, "velocity": 95}, {"time": 100570, "pitch": 67, "duration": 130, "velocity": 100}, {"time": 100700, "pitch": 62, "duration": 110, "velocity": 90}, {"time": 100700, "pitch": 67, "duration": 110, "velocity": 95}, {"time": 100710, "pitch": 52, "duration": 90, "velocity": 80}, {"time": 100710, "pitch": 59, "duration": 90, "velocity": 85}, {"time": 100800, "pitch": 52, "duration": 150, "velocity": 65}, {"time": 100800, "pitch": 59, "duration": 150, "velocity": 70}, {"time": 100810, "pitch": 62, "duration": 130, "velocity": 75}, {"time": 100810, "pitch": 67, "duration": 130, "velocity": 80}, {"time": 100940, "pitch": 62, "duration": 110, "velocity": 105}, {"time": 100940, "pitch": 67, "duration": 110, "velocity": 110}, {"time": 100950, "pitch": 52, "duration": 90, "velocity": 95}, {"time": 100950, "pitch": 59, "duration": 90, "velocity": 100}, {"time": 101040, "pitch": 52, "duration": 150, "velocity": 65}, {"time": 101040, "pitch": 59, "duration": 150, "velocity": 70}, {"time": 101050, "pitch": 62, "duration": 130, "velocity": 75}, {"time": 101050, "pitch": 67, "duration": 130, "velocity": 80}, {"time": 101180, "pitch": 62, "duration": 110, "velocity": 105}, {"time": 101180, "pitch": 67, "duration": 110, "velocity": 110}, {"time": 101190, "pitch": 52, "duration": 90, "velocity": 95}, {"time": 101190, "pitch": 59, "duration": 90, "velocity": 100}, {"time": 101280, "pitch": 52, "duration": 240, "velocity": 105}, {"time": 101280, "pitch": 59, "duration": 240, "velocity": 110}, {"time": 101290, "pitch": 62, "duration": 240, "velocity": 115}, {"time": 101290, "pitch": 67, "duration": 240, "velocity": 120}, {"time": 101520, "pitch": 52, "duration": 150, "velocity": 85}, {"time": 101520, "pitch": 59, "duration": 150, "velocity": 90}, {"time": 101530, "pitch": 62, "duration": 130, "velocity": 95}, {"time": 101530, "pitch": 67, "duration": 130, "velocity": 100}, {"time": 101660, "pitch": 62, "duration": 80, "velocity": 90}, {"time": 101660, "pitch": 67, "duration": 80, "velocity": 95}, {"time": 101670, "pitch": 52, "duration": 70, "velocity": 80}, {"time": 101670, "pitch": 59, "duration": 70, "velocity": 85}, {"time": 101760, "pitch": 50, "duration": 250, "velocity": 95}, {"time": 101760, "pitch": 57, "duration": 250, "velocity": 100}, {"time": 101770, "pitch": 60, "duration": 230, "velocity": 105}, {"time": 101770, "pitch": 65, "duration": 230, "velocity": 110}, {"time": 102000, "pitch": 60, "duration": 250, "velocity": 95}, {"time": 102000, "pitch": 65, "duration": 250, "velocity": 100}, {"time": 102010, "pitch": 50, "duration": 230, "velocity": 85}, {"time": 102010, "pitch": 57, "duration": 230, "velocity": 90}, {"time": 102240, "pitch": 50, "duration": 240, "velocity": 105}, {"time": 102240, "pitch": 57, "duration": 240, "velocity": 110}, {"time": 102250, "pitch": 60, "duration": 240, "velocity": 115}, {"time": 102250, "pitch": 65, "duration": 240, "velocity": 120}, {"time": 102480, "pitch": 50, "duration": 150, "velocity": 85}, {"time": 102480, "pitch": 57, "duration": 150, "velocity": 90}, {"time": 102490, "pitch": 60, "duration": 130, "velocity": 95}, {"time": 102490, "pitch": 65, "duration": 130, "velocity": 100}, {"time": 102620, "pitch": 60, "duration": 110, "velocity": 90}, {"time": 102620, "pitch": 65, "duration": 110, "velocity": 95}, {"time": 102630, "pitch": 50, "duration": 90, "velocity": 80}, {"time": 102630, "pitch": 57, "duration": 90, "velocity": 85}, {"time": 102720, "pitch": 50, "duration": 150, "velocity": 65}, {"time": 102720, "pitch": 57, "duration": 150, "velocity": 70}, {"time": 102730, "pitch": 60, "duration": 130, "velocity": 75}, {"time": 102730, "pitch": 65, "duration": 130, "velocity": 80}, {"time": 102860, "pitch": 60, "duration": 110, "velocity": 105}, {"time": 102860, "pitch": 65, "duration": 110, "velocity": 110}, {"time": 102870, "pitch": 50, "duration": 90, "velocity": 95}, {"time": 102870, "pitch": 57, "duration": 90, "velocity": 100}, {"time": 102960, "pitch": 50, "duration": 150, "velocity": 65}, {"time": 102960, "pitch": 57, "duration": 150, "velocity": 70}, {"time": 102970, "pitch": 60, "duration": 130, "velocity": 75}, {"time": 102970, "pitch": 65, "duration": 130, "velocity": 80}, {"time": 103100, "pitch": 60, "duration": 110, "velocity": 105}, {"time": 103100, "pitch": 65, "duration": 110, "velocity": 110}, {"time": 103110, "pitch": 50, "duration": 90, "velocity": 95}, {"time": 103110, "pitch": 57, "duration": 90, "velocity": 100}, {"time": 103200, "pitch": 50, "duration": 240, "velocity": 105}, {"time": 103200, "pitch": 57, "duration": 240, "velocity": 110}, {"time": 103210, "pitch": 60, "duration": 240, "velocity": 115}, {"time": 103210, "pitch": 65, "duration": 240, "velocity": 120}, {"time": 103440, "pitch": 50, "duration": 150, "velocity": 85}, {"time": 103440, "pitch": 57, "duration": 150, "velocity": 90}, {"time": 103450, "pitch": 60, "duration": 130, "velocity": 95}, {"time": 103450, "pitch": 65, "duration": 130, "velocity": 100}, {"time": 103580, "pitch": 60, "duration": 80, "velocity": 90}, {"time": 103580, "pitch": 65, "duration": 80, "velocity": 95}, {"time": 103590, "pitch": 50, "duration": 70, "velocity": 80}, {"time": 103590, "pitch": 57, "duration": 70, "velocity": 85}, {"time": 103680, "pitch": 52, "duration": 250, "velocity": 95}, {"time": 103680, "pitch": 57, "duration": 250, "velocity": 100}, {"time": 103690, "pitch": 60, "duration": 230, "velocity": 105}, {"time": 103690, "pitch": 67, "duration": 230, "velocity": 110}, {"time": 103920, "pitch": 60, "duration": 250, "velocity": 95}, {"time": 103920, "pitch": 67, "duration": 250, "velocity": 100}, {"time": 103930, "pitch": 52, "duration": 230, "velocity": 85}, {"time": 103930, "pitch": 57, "duration": 230, "velocity": 90}, {"time": 104160, "pitch": 52, "duration": 240, "velocity": 105}, {"time": 104160, "pitch": 57, "duration": 240, "velocity": 110}, {"time": 104170, "pitch": 60, "duration": 240, "velocity": 115}, {"time": 104170, "pitch": 67, "duration": 240, "velocity": 120}, {"time": 104400, "pitch": 52, "duration": 150, "velocity": 85}, {"time": 104400, "pitch": 57, "duration": 150, "velocity": 90}, {"time": 104410, "pitch": 60, "duration": 130, "velocity": 95}, {"time": 104410, "pitch": 67, "duration": 130, "velocity": 100}, {"time": 104540, "pitch": 60, "duration": 110, "velocity": 90}, {"time": 104540, "pitch": 67, "duration": 110, "velocity": 95}, {"time": 104550, "pitch": 52, "duration": 90, "velocity": 80}, {"time": 104550, "pitch": 57, "duration": 90, "velocity": 85}, {"time": 104640, "pitch": 52, "duration": 150, "velocity": 65}, {"time": 104640, "pitch": 57, "duration": 150, "velocity": 70}, {"time": 104650, "pitch": 60, "duration": 130, "velocity": 75}, {"time": 104650, "pitch": 67, "duration": 130, "velocity": 80}, {"time": 104780, "pitch": 60, "duration": 110, "velocity": 105}, {"time": 104780, "pitch": 67, "duration": 110, "velocity": 110}, {"time": 104790, "pitch": 52, "duration": 90, "velocity": 95}, {"time": 104790, "pitch": 57, "duration": 90, "velocity": 100}, {"time": 104880, "pitch": 52, "duration": 150, "velocity": 65}, {"time": 104880, "pitch": 57, "duration": 150, "velocity": 70}, {"time": 104890, "pitch": 60, "duration": 130, "velocity": 75}, {"time": 104890, "pitch": 67, "duration": 130, "velocity": 80}, {"time": 105020, "pitch": 60, "duration": 110, "velocity": 105}, {"time": 105020, "pitch": 67, "duration": 110, "velocity": 110}, {"time": 105030, "pitch": 52, "duration": 90, "velocity": 95}, {"time": 105030, "pitch": 57, "duration": 90, "velocity": 100}, {"time": 105120, "pitch": 52, "duration": 240, "velocity": 105}, {"time": 105120, "pitch": 57, "duration": 240, "velocity": 110}, {"time": 105130, "pitch": 60, "duration": 240, "velocity": 115}, {"time": 105130, "pitch": 67, "duration": 240, "velocity": 120}, {"time": 105360, "pitch": 52, "duration": 150, "velocity": 85}, {"time": 105360, "pitch": 57, "duration": 150, "velocity": 90}, {"time": 105370, "pitch": 60, "duration": 130, "velocity": 95}, {"time": 105370, "pitch": 67, "duration": 130, "velocity": 100}, {"time": 105500, "pitch": 60, "duration": 80, "velocity": 90}, {"time": 105500, "pitch": 67, "duration": 80, "velocity": 95}, {"time": 105510, "pitch": 52, "duration": 70, "velocity": 80}, {"time": 105510, "pitch": 57, "duration": 70, "velocity": 85}, {"time": 105600, "pitch": 50, "duration": 250, "velocity": 95}, {"time": 105600, "pitch": 56, "duration": 250, "velocity": 100}, {"time": 105610, "pitch": 60, "duration": 230, "velocity": 105}, {"time": 105610, "pitch": 65, "duration": 230, "velocity": 110}, {"time": 105840, "pitch": 60, "duration": 250, "velocity": 95}, {"time": 105840, "pitch": 65, "duration": 250, "velocity": 100}, {"time": 105850, "pitch": 50, "duration": 230, "velocity": 85}, {"time": 105850, "pitch": 56, "duration": 230, "velocity": 90}, {"time": 106080, "pitch": 50, "duration": 240, "velocity": 105}, {"time": 106080, "pitch": 56, "duration": 240, "velocity": 110}, {"time": 106090, "pitch": 60, "duration": 240, "velocity": 115}, {"time": 106090, "pitch": 65, "duration": 240, "velocity": 120}, {"time": 106320, "pitch": 50, "duration": 150, "velocity": 85}, {"time": 106320, "pitch": 56, "duration": 150, "velocity": 90}, {"time": 106330, "pitch": 60, "duration": 130, "velocity": 95}, {"time": 106330, "pitch": 65, "duration": 130, "velocity": 100}, {"time": 106460, "pitch": 60, "duration": 110, "velocity": 90}, {"time": 106460, "pitch": 65, "duration": 110, "velocity": 95}, {"time": 106470, "pitch": 50, "duration": 90, "velocity": 80}, {"time": 106470, "pitch": 56, "duration": 90, "velocity": 85}, {"time": 106560, "pitch": 50, "duration": 150, "velocity": 65}, {"time": 106560, "pitch": 56, "duration": 150, "velocity": 70}, {"time": 106570, "pitch": 60, "duration": 130, "velocity": 75}, {"time": 106570, "pitch": 65, "duration": 130, "velocity": 80}, {"time": 106700, "pitch": 60, "duration": 110, "velocity": 105}, {"time": 106700, "pitch": 65, "duration": 110, "velocity": 110}, {"time": 106710, "pitch": 50, "duration": 90, "velocity": 95}, {"time": 106710, "pitch": 56, "duration": 90, "velocity": 100}, {"time": 106800, "pitch": 50, "duration": 150, "velocity": 65}, {"time": 106800, "pitch": 56, "duration": 150, "velocity": 70}, {"time": 106810, "pitch": 60, "duration": 130, "velocity": 75}, {"time": 106810, "pitch": 65, "duration": 130, "velocity": 80}, {"time": 106940, "pitch": 60, "duration": 110, "velocity": 105}, {"time": 106940, "pitch": 65, "duration": 110, "velocity": 110}, {"time": 106950, "pitch": 50, "duration": 90, "velocity": 95}, {"time": 106950, "pitch": 56, "duration": 90, "velocity": 100}, {"time": 107040, "pitch": 50, "duration": 240, "velocity": 105}, {"time": 107040, "pitch": 56, "duration": 240, "velocity": 110}, {"time": 107050, "pitch": 60, "duration": 240, "velocity": 115}, {"time": 107050, "pitch": 65, "duration": 240, "velocity": 120}, {"time": 107280, "pitch": 50, "duration": 150, "velocity": 85}, {"time": 107280, "pitch": 56, "duration": 150, "velocity": 90}, {"time": 107290, "pitch": 60, "duration": 130, "velocity": 95}, {"time": 107290, "pitch": 65, "duration": 130, "velocity": 100}, {"time": 107420, "pitch": 60, "duration": 80, "velocity": 90}, {"time": 107420, "pitch": 65, "duration": 80, "velocity": 95}, {"time": 107430, "pitch": 50, "duration": 70, "velocity": 80}, {"time": 107430, "pitch": 56, "duration": 70, "velocity": 85}, {"time": 107520, "pitch": 50, "duration": 250, "velocity": 95}, {"time": 107520, "pitch": 55, "duration": 250, "velocity": 100}, {"time": 107530, "pitch": 60, "duration": 230, "velocity": 105}, {"time": 107530, "pitch": 65, "duration": 230, "velocity": 110}, {"time": 107760, "pitch": 60, "duration": 250, "velocity": 95}, {"time": 107760, "pitch": 65, "duration": 250, "velocity": 100}, {"time": 107770, "pitch": 50, "duration": 230, "velocity": 85}, {"time": 107770, "pitch": 55, "duration": 230, "velocity": 90}, {"time": 108000, "pitch": 50, "duration": 240, "velocity": 105}, {"time": 108000, "pitch": 55, "duration": 240, "velocity": 110}, {"time": 108010, "pitch": 60, "duration": 240, "velocity": 115}, {"time": 108010, "pitch": 65, "duration": 240, "velocity": 120}, {"time": 108240, "pitch": 50, "duration": 150, "velocity": 85}, {"time": 108240, "pitch": 55, "duration": 150, "velocity": 90}, {"time": 108250, "pitch": 60, "duration": 130, "velocity": 95}, {"time": 108250, "pitch": 65, "duration": 130, "velocity": 100}, {"time": 108380, "pitch": 60, "duration": 110, "velocity": 90}, {"time": 108380, "pitch": 65, "duration": 110, "velocity": 95}, {"time": 108390, "pitch": 50, "duration": 90, "velocity": 80}, {"time": 108390, "pitch": 55, "duration": 90, "velocity": 85}, {"time": 108480, "pitch": 50, "duration": 150, "velocity": 65}, {"time": 108480, "pitch": 55, "duration": 150, "velocity": 70}, {"time": 108490, "pitch": 60, "duration": 130, "velocity": 75}, {"time": 108490, "pitch": 65, "duration": 130, "velocity": 80}, {"time": 108620, "pitch": 60, "duration": 110, "velocity": 105}, {"time": 108620, "pitch": 65, "duration": 110, "velocity": 110}, {"time": 108630, "pitch": 50, "duration": 90, "velocity": 95}, {"time": 108630, "pitch": 55, "duration": 90, "velocity": 100}, {"time": 108720, "pitch": 50, "duration": 150, "velocity": 65}, {"time": 108720, "pitch": 55, "duration": 150, "velocity": 70}, {"time": 108730, "pitch": 60, "duration": 130, "velocity": 75}, {"time": 108730, "pitch": 65, "duration": 130, "velocity": 80}, {"time": 108860, "pitch": 60, "duration": 110, "velocity": 105}, {"time": 108860, "pitch": 65, "duration": 110, "velocity": 110}, {"time": 108870, "pitch": 50, "duration": 90, "velocity": 95}, {"time": 108870, "pitch": 55, "duration": 90, "velocity": 100}, {"time": 108960, "pitch": 50, "duration": 240, "velocity": 105}, {"time": 108960, "pitch": 55, "duration": 240, "velocity": 110}, {"time": 108970, "pitch": 60, "duration": 240, "velocity": 115}, {"time": 108970, "pitch": 65, "duration": 240, "velocity": 120}, {"time": 109200, "pitch": 50, "duration": 150, "velocity": 85}, {"time": 109200, "pitch": 55, "duration": 150, "velocity": 90}, {"time": 109210, "pitch": 60, "duration": 130, "velocity": 95}, {"time": 109210, "pitch": 65, "duration": 130, "velocity": 100}, {"time": 109340, "pitch": 60, "duration": 80, "velocity": 90}, {"time": 109340, "pitch": 65, "duration": 80, "velocity": 95}, {"time": 109350, "pitch": 50, "duration": 70, "velocity": 80}, {"time": 109350, "pitch": 55, "duration": 70, "velocity": 85}, {"time": 109440, "pitch": 50, "duration": 250, "velocity": 95}, {"time": 109440, "pitch": 56, "duration": 250, "velocity": 100}, {"time": 109450, "pitch": 59, "duration": 230, "velocity": 105}, {"time": 109450, "pitch": 64, "duration": 230, "velocity": 110}, {"time": 109680, "pitch": 59, "duration": 250, "velocity": 95}, {"time": 109680, "pitch": 64, "duration": 250, "velocity": 100}, {"time": 109690, "pitch": 50, "duration": 230, "velocity": 85}, {"time": 109690, "pitch": 56, "duration": 230, "velocity": 90}, {"time": 109920, "pitch": 50, "duration": 240, "velocity": 105}, {"time": 109920, "pitch": 56, "duration": 240, "velocity": 110}, {"time": 109930, "pitch": 59, "duration": 240, "velocity": 115}, {"time": 109930, "pitch": 64, "duration": 240, "velocity": 120}, {"time": 110160, "pitch": 50, "duration": 150, "velocity": 85}, {"time": 110160, "pitch": 56, "duration": 150, "velocity": 90}, {"time": 110170, "pitch": 59, "duration": 130, "velocity": 95}, {"time": 110170, "pitch": 64, "duration": 130, "velocity": 100}, {"time": 110300, "pitch": 59, "duration": 110, "velocity": 90}, {"time": 110300, "pitch": 64, "duration": 110, "velocity": 95}, {"time": 110310, "pitch": 50, "duration": 90, "velocity": 80}, {"time": 110310, "pitch": 56, "duration": 90, "velocity": 85}, {"time": 110400, "pitch": 50, "duration": 150, "velocity": 90}, {"time": 110400, "pitch": 56, "duration": 150, "velocity": 95}, {"time": 110410, "pitch": 59, "duration": 130, "velocity": 100}, {"time": 110410, "pitch": 64, "duration": 130, "velocity": 105}, {"time": 110540, "pitch": 59, "duration": 110, "velocity": 95}, {"time": 110540, "pitch": 64, "duration": 110, "velocity": 100}, {"time": 110550, "pitch": 50, "duration": 90, "velocity": 85}, {"time": 110550, "pitch": 56, "duration": 90, "velocity": 90}, {"time": 110640, "pitch": 50, "duration": 150, "velocity": 95}, {"time": 110640, "pitch": 56, "duration": 150, "velocity": 100}, {"time": 110650, "pitch": 59, "duration": 130, "velocity": 105}, {"time": 110650, "pitch": 64, "duration": 130, "velocity": 110}, {"time": 110780, "pitch": 59, "duration": 110, "velocity": 95}, {"time": 110780, "pitch": 64, "duration": 110, "velocity": 100}, {"time": 110790, "pitch": 50, "duration": 90, "velocity": 85}, {"time": 110790, "pitch": 56, "duration": 90, "velocity": 90}, {"time": 110880, "pitch": 50, "duration": 150, "velocity": 100}, {"time": 110880, "pitch": 56, "duration": 150, "velocity": 105}, {"time": 110890, "pitch": 59, "duration": 130, "velocity": 110}, {"time": 110890, "pitch": 64, "duration": 130, "velocity": 115}, {"time": 111020, "pitch": 59, "duration": 110, "velocity": 105}, {"time": 111020, "pitch": 64, "duration": 110, "velocity": 110}, {"time": 111030, "pitch": 50, "duration": 90, "velocity": 95}, {"time": 111030, "pitch": 56, "duration": 90, "velocity": 100}, {"time": 111120, "pitch": 50, "duration": 220, "velocity": 105}, {"time": 111120, "pitch": 56, "duration": 220, "velocity": 110}, {"time": 111130, "pitch": 59, "duration": 210, "velocity": 115}, {"time": 111130, "pitch": 64, "duration": 210, "velocity": 120}, {"time": 125760, "pitch": 50, "duration": 150, "velocity": 70}, {"time": 125760, "pitch": 55, "duration": 150, "velocity": 75}, {"time": 125770, "pitch": 60, "duration": 130, "velocity": 80}, {"time": 125770, "pitch": 65, "duration": 130, "velocity": 85}, {"time": 125900, "pitch": 60, "duration": 330, "velocity": 120}, {"time": 125900, "pitch": 65, "duration": 330, "velocity": 125}, {"time": 125910, "pitch": 50, "duration": 320, "velocity": 110}, {"time": 125910, "pitch": 55, "duration": 320, "velocity": 115}, {"time": 126240, "pitch": 50, "duration": 150, "velocity": 70}, {"time": 126240, "pitch": 56, "duration": 150, "velocity": 75}, {"time": 126250, "pitch": 59, "duration": 130, "velocity": 80}, {"time": 126250, "pitch": 64, "duration": 130, "velocity": 85}, {"time": 126380, "pitch": 59, "duration": 330, "velocity": 120}, {"time": 126380, "pitch": 64, "duration": 330, "velocity": 125}, {"time": 126390, "pitch": 50, "duration": 320, "velocity": 110}, {"time": 126390, "pitch": 56, "duration": 320, "velocity": 115}, {"time": 126720, "pitch": 57, "duration": 1920, "velocity": 110}, {"time": 126960, "pitch": 60, "duration": 960, "velocity": 100}, {"time": 127200, "pitch": 64, "duration": 960, "velocity": 105}, {"time": 127440, "pitch": 71, "duration": 960, "velocity": 110}, {"time": 127920, "pitch": 60, "duration": 720, "velocity": 100}, {"time": 128160, "pitch": 64, "duration": 480, "velocity": 105}, {"time": 128400, "pitch": 71, "duration": 240, "velocity": 110}, {"time": 128640, "pitch": 56, "duration": 1920, "velocity": 110}, {"time": 128880, "pitch": 62, "duration": 960, "velocity": 100}, {"time": 129120, "pitch": 64, "duration": 960, "velocity": 105}, {"time": 129360, "pitch": 71, "duration": 960, "velocity": 110}, {"time": 129840, "pitch": 62, "duration": 720, "velocity": 100}, {"time": 130080, "pitch": 64, "duration": 480, "velocity": 105}, {"time": 130320, "pitch": 71, "duration": 240, "velocity": 110}, {"time": 130560, "pitch": 55, "duration": 1920, "velocity": 110}, {"time": 130800, "pitch": 58, "duration": 960, "velocity": 100}, {"time": 131040, "pitch": 62, "duration": 960, "velocity": 105}, {"time": 131280, "pitch": 69, "duration": 960, "velocity": 110}, {"time": 131760, "pitch": 58, "duration": 720, "velocity": 100}, {"time": 132000, "pitch": 62, "duration": 480, "velocity": 105}, {"time": 132240, "pitch": 69, "duration": 240, "velocity": 110}, {"time": 132480, "pitch": 54, "duration": 1920, "velocity": 110}, {"time": 132720, "pitch": 60, "duration": 960, "velocity": 100}, {"time": 132960, "pitch": 62, "duration": 960, "velocity": 105}, {"time": 133200, "pitch": 69, "duration": 960, "velocity": 110}, {"time": 133680, "pitch": 60, "duration": 720, "velocity": 100}, {"time": 133920, "pitch": 62, "duration": 480, "velocity": 105}, {"time": 134160, "pitch": 69, "duration": 240, "velocity": 110}, {"time": 134400, "pitch": 57, "duration": 1920, "velocity": 110}, {"time": 134640, "pitch": 60, "duration": 960, "velocity": 100}, {"time": 134880, "pitch": 65, "duration": 960, "velocity": 105}, {"time": 135120, "pitch": 69, "duration": 960, "velocity": 110}, {"time": 135600, "pitch": 60, "duration": 720, "velocity": 100}, {"time": 135840, "pitch": 65, "duration": 480, "velocity": 105}, {"time": 136080, "pitch": 69, "duration": 240, "velocity": 110}, {"time": 136320, "pitch": 55, "duration": 1920, "velocity": 110}, {"time": 136560, "pitch": 60, "duration": 960, "velocity": 100}, {"time": 136800, "pitch": 64, "duration": 960, "velocity": 105}, {"time": 137040, "pitch": 67, "duration": 960, "velocity": 110}, {"time": 137520, "pitch": 60, "duration": 720, "velocity": 100}, {"time": 137760, "pitch": 64, "duration": 480, "velocity": 105}, {"time": 138000, "pitch": 67, "duration": 240, "velocity": 110}, {"time": 138240, "pitch": 57, "duration": 1920, "velocity": 110}, {"time": 138480, "pitch": 60, "duration": 960, "velocity": 100}, {"time": 138720, "pitch": 65, "duration": 960, "velocity": 105}, {"time": 138960, "pitch": 69, "duration": 960, "velocity": 110}, {"time": 139440, "pitch": 60, "duration": 720, "velocity": 100}, {"time": 139680, "pitch": 65, "duration": 480, "velocity": 105}, {"time": 139920, "pitch": 69, "duration": 240, "velocity": 110}, {"time": 140160, "pitch": 55, "duration": 940, "velocity": 110}, {"time": 140400, "pitch": 59, "duration": 700, "velocity": 100}, {"time": 140640, "pitch": 62, "duration": 460, "velocity": 105}, {"time": 140880, "pitch": 67, "duration": 220, "velocity": 110}, {"time": 141120, "pitch": 50, "duration": 110, "velocity": 105}, {"time": 141120, "pitch": 55, "duration": 110, "velocity": 110}, {"time": 141130, "pitch": 60, "duration": 100, "velocity": 115}, {"time": 141130, "pitch": 65, "duration": 100, "velocity": 120}, {"time": 141360, "pitch": 60, "duration": 700, "velocity": 120}, {"time": 141360, "pitch": 65, "duration": 700, "velocity": 125}, {"time": 141370, "pitch": 50, "duration": 690, "velocity": 110}, {"time": 141370, "pitch": 55, "duration": 690, "velocity": 115}, {"time": 142080, "pitch": 52, "duration": 250, "velocity": 95}, {"time": 142080, "pitch": 55, "duration": 250, "velocity": 100}, {"time": 142090, "pitch": 60, "duration": 230, "velocity": 105}, {"time": 142090, "pitch": 64, "duration": 230, "velocity": 110}, {"time": 142320, "pitch": 60, "duration": 250, "velocity": 95}, {"time": 142320, "pitch": 64, "duration": 250, "velocity": 100}, {"time": 142330, "pitch": 52, "duration": 230, "velocity": 85}, {"time": 142330, "pitch": 55, "duration": 230, "velocity": 90}, {"time": 142560, "pitch": 52, "duration": 240, "velocity": 105}, {"time": 142560, "pitch": 55, "duration": 240, "velocity": 110}, {"time": 142570, "pitch": 60, "duration": 240, "velocity": 115}, {"time": 142570, "pitch": 64, "duration": 240, "velocity": 120}, {"time": 142800, "pitch": 52, "duration": 150, "velocity": 85}, {"time": 142800, "pitch": 55, "duration": 150, "velocity": 90}, {"time": 142810, "pitch": 60, "duration": 130, "velocity": 95}, {"time": 142810, "pitch": 64, "duration": 130, "velocity": 100}, {"time": 142940, "pitch": 60, "duration": 110, "velocity": 90}, {"time": 142940, "pitch": 64, "duration": 110, "velocity": 95}, {"time": 142950, "pitch": 52, "duration": 90, "velocity": 80}, {"time": 142950, "pitch": 55, "duration": 90, "velocity": 85}, {"time": 143040, "pitch": 52, "duration": 150, "velocity": 65}, {"time": 143040, "pitch": 55, "duration": 150, "velocity": 70}, {"time": 143050, "pitch": 60, "duration": 130, "velocity": 75}, {"time": 143050, "pitch": 64, "duration": 130, "velocity": 80}, {"time": 143180, "pitch": 60, "duration": 110, "velocity": 105}, {"time": 143180, "pitch": 64, "duration": 110, "velocity": 110}, {"time": 143190, "pitch": 52, "duration": 90, "velocity": 95}, {"time": 143190, "pitch": 55, "duration": 90, "velocity": 100}, {"time": 143280, "pitch": 52, "duration": 150, "velocity": 65}, {"time": 143280, "pitch": 55, "duration": 150, "velocity": 70}, {"time": 143290, "pitch": 60, "duration": 130, "velocity": 75}, {"time": 143290, "pitch": 64, "duration": 130, "velocity": 80}, {"time": 143420, "pitch": 60, "duration": 110, "velocity": 105}, {"time": 143420, "pitch": 64, "duration": 110, "velocity": 110}, {"time": 143430, "pitch": 52, "duration": 90, "velocity": 95}, {"time": 143430, "pitch": 55, "duration": 90, "velocity": 100}, {"time": 143520, "pitch": 52, "duration": 240, "velocity": 105}, {"time": 143520, "pitch": 55, "duration": 240, "velocity": 110}, {"time": 143530, "pitch": 60, "duration": 240, "velocity": 115}, {"time": 143530, "pitch": 64, "duration": 240, "velocity": 120}, {"time": 143760, "pitch": 52, "duration": 150, "velocity": 85}, {"time": 143760, "pitch": 55, "duration": 150, "velocity": 90}, {"time": 143770, "pitch": 60, "duration": 130, "velocity": 95}, {"time": 143770, "pitch": 64, "duration": 130, "velocity": 100}, {"time": 143900, "pitch": 60, "duration": 80, "velocity": 90}, {"time": 143900, "pitch": 64, "duration": 80, "velocity": 95}, {"time": 143910, "pitch": 52, "duration": 70, "velocity": 80}, {"time": 143910, "pitch": 55, "duration": 70, "velocity": 85}, {"time": 144000, "pitch": 50, "duration": 250, "velocity": 95}, {"time": 144000, "pitch": 55, "duration": 250, "velocity": 100}, {"time": 144010, "pitch": 59, "duration": 230, "velocity": 105}, {"time": 144010, "pitch": 67, "duration": 230, "velocity": 110}, {"time": 144240, "pitch": 59, "duration": 250, "velocity": 95}, {"time": 144240, "pitch": 67, "duration": 250, "velocity": 100}, {"time": 144250, "pitch": 50, "duration": 230, "velocity": 85}, {"time": 144250, "pitch": 55, "duration": 230, "velocity": 90}, {"time": 144480, "pitch": 50, "duration": 240, "velocity": 105}, {"time": 144480, "pitch": 55, "duration": 240, "velocity": 110}, {"time": 144490, "pitch": 59, "duration": 240, "velocity": 115}, {"time": 144490, "pitch": 67, "duration": 240, "velocity": 120}, {"time": 144720, "pitch": 50, "duration": 150, "velocity": 85}, {"time": 144720, "pitch": 55, "duration": 150, "velocity": 90}, {"time": 144730, "pitch": 59, "duration": 130, "velocity": 95}, {"time": 144730, "pitch": 67, "duration": 130, "velocity": 100}, {"time": 144860, "pitch": 59, "duration": 110, "velocity": 90}, {"time": 144860, "pitch": 67, "duration": 110, "velocity": 95}, {"time": 144870, "pitch": 50, "duration": 90, "velocity": 80}, {"time": 144870, "pitch": 55, "duration": 90, "velocity": 85}, {"time": 144960, "pitch": 50, "duration": 150, "velocity": 65}, {"time": 144960, "pitch": 55, "duration": 150, "velocity": 70}, {"time": 144970, "pitch": 59, "duration": 130, "velocity": 75}, {"time": 144970, "pitch": 67, "duration": 130, "velocity": 80}, {"time": 145100, "pitch": 59, "duration": 110, "velocity": 105}, {"time": 145100, "pitch": 67, "duration": 110, "velocity": 110}, {"time": 145110, "pitch": 50, "duration": 90, "velocity": 95}, {"time": 145110, "pitch": 55, "duration": 90, "velocity": 100}, {"time": 145200, "pitch": 50, "duration": 150, "velocity": 65}, {"time": 145200, "pitch": 55, "duration": 150, "velocity": 70}, {"time": 145210, "pitch": 59, "duration": 130, "velocity": 75}, {"time": 145210, "pitch": 67, "duration": 130, "velocity": 80}, {"time": 145340, "pitch": 59, "duration": 110, "velocity": 105}, {"time": 145340, "pitch": 67, "duration": 110, "velocity": 110}, {"time": 145350, "pitch": 50, "duration": 90, "velocity": 95}, {"time": 145350, "pitch": 55, "duration": 90, "velocity": 100}, {"time": 145440, "pitch": 50, "duration": 240, "velocity": 105}, {"time": 145440, "pitch": 55, "duration": 240, "velocity": 110}, {"time": 145450, "pitch": 59, "duration": 240, "velocity": 115}, {"time": 145450, "pitch": 67, "duration": 240, "velocity": 120}, {"time": 145680, "pitch": 50, "duration": 150, "velocity": 85}, {"time": 145680, "pitch": 55, "duration": 150, "velocity": 90}, {"time": 145690, "pitch": 59, "duration": 130, "velocity": 95}, {"time": 145690, "pitch": 67, "duration": 130, "velocity": 100}, {"time": 145820, "pitch": 59, "duration": 80, "velocity": 90}, {"time": 145820, "pitch": 67, "duration": 80, "velocity": 95}, {"time": 145830, "pitch": 50, "duration": 70, "velocity": 80}, {"time": 145830, "pitch": 55, "duration": 70, "velocity": 85}, {"time": 145920, "pitch": 50, "duration": 250, "velocity": 95}, {"time": 145920, "pitch": 55, "duration": 250, "velocity": 100}, {"time": 145930, "pitch": 62, "duration": 230, "velocity": 105}, {"time": 145930, "pitch": 67, "duration": 230, "velocity": 110}, {"time": 146160, "pitch": 62, "duration": 250, "velocity": 95}, {"time": 146160, "pitch": 67, "duration": 250, "velocity": 100}, {"time": 146170, "pitch": 50, "duration": 230, "velocity": 85}, {"time": 146170, "pitch": 55, "duration": 230, "velocity": 90}, {"time": 146400, "pitch": 50, "duration": 240, "velocity": 105}, {"time": 146400, "pitch": 55, "duration": 240, "velocity": 110}, {"time": 146410, "pitch": 62, "duration": 240, "velocity": 115}, {"time": 146410, "pitch": 67, "duration": 240, "velocity": 120}, {"time": 146640, "pitch": 50, "duration": 150, "velocity": 85}, {"time": 146640, "pitch": 55, "duration": 150, "velocity": 90}, {"time": 146650, "pitch": 62, "duration": 130, "velocity": 95}, {"time": 146650, "pitch": 67, "duration": 130, "velocity": 100}, {"time": 146780, "pitch": 62, "duration": 110, "velocity": 90}, {"time": 146780, "pitch": 67, "duration": 110, "velocity": 95}, {"time": 146790, "pitch": 50, "duration": 90, "velocity": 80}, {"time": 146790, "pitch": 55, "duration": 90, "velocity": 85}, {"time": 146880, "pitch": 50, "duration": 150, "velocity": 65}, {"time": 146880, "pitch": 55, "duration": 150, "velocity": 70}, {"time": 146890, "pitch": 62, "duration": 130, "velocity": 75}, {"time": 146890, "pitch": 67, "duration": 130, "velocity": 80}, {"time": 147020, "pitch": 62, "duration": 110, "velocity": 105}, {"time": 147020, "pitch": 67, "duration": 110, "velocity": 110}, {"time": 147030, "pitch": 50, "duration": 90, "velocity": 95}, {"time": 147030, "pitch": 55, "duration": 90, "velocity": 100}, {"time": 147120, "pitch": 50, "duration": 150, "velocity": 65}, {"time": 147120, "pitch": 55, "duration": 150, "velocity": 70}, {"time": 147130, "pitch": 62, "duration": 130, "velocity": 75}, {"time": 147130, "pitch": 67, "duration": 130, "velocity": 80}, {"time": 147260, "pitch": 62, "duration": 110, "velocity": 105}, {"time": 147260, "pitch": 67, "duration": 110, "velocity": 110}, {"time": 147270, "pitch": 50, "duration": 90, "velocity": 95}, {"time": 147270, "pitch": 55, "duration": 90, "velocity": 100}, {"time": 147360, "pitch": 50, "duration": 240, "velocity": 105}, {"time": 147360, "pitch": 55, "duration": 240, "velocity": 110}, {"time": 147370, "pitch": 62, "duration": 240, "velocity": 115}, {"time": 147370, "pitch": 67, "duration": 240, "velocity": 120}, {"time": 147600, "pitch": 50, "duration": 150, "velocity": 85}, {"time": 147600, "pitch": 55, "duration": 150, "velocity": 90}, {"time": 147610, "pitch": 62, "duration": 130, "velocity": 95}, {"time": 147610, "pitch": 67, "duration": 130, "velocity": 100}, {"time": 147740, "pitch": 62, "duration": 80, "velocity": 90}, {"time": 147740, "pitch": 67, "duration": 80, "velocity": 95}, {"time": 147750, "pitch": 50, "duration": 70, "velocity": 80}, {"time": 147750, "pitch": 55, "duration": 70, "velocity": 85}, {"time": 147840, "pitch": 52, "duration": 250, "velocity": 95}, {"time": 147840, "pitch": 57, "duration": 250, "velocity": 100}, {"time": 147850, "pitch": 61, "duration": 230, "velocity": 105}, {"time": 147850, "pitch": 67, "duration": 230, "velocity": 110}, {"time": 148080, "pitch": 61, "duration": 250, "velocity": 95}, {"time": 148080, "pitch": 67, "duration": 250, "velocity": 100}, {"time": 148090, "pitch": 52, "duration": 230, "velocity": 85}, {"time": 148090, "pitch": 57, "duration": 230, "velocity": 90}, {"time": 148320, "pitch": 52, "duration": 240, "velocity": 105}, {"time": 148320, "pitch": 57, "duration": 240, "velocity": 110}, {"time": 148330, "pitch": 61, "duration": 240, "velocity": 115}, {"time": 148330, "pitch": 67, "duration": 240, "velocity": 120}, {"time": 148560, "pitch": 52, "duration": 150, "velocity": 85}, {"time": 148560, "pitch": 57, "duration": 150, "velocity": 90}, {"time": 148570, "pitch": 61, "duration": 130, "velocity": 95}, {"time": 148570, "pitch": 67, "duration": 130, "velocity": 100}, {"time": 148700, "pitch": 61, "duration": 110, "velocity": 90}, {"time": 148700, "pitch": 67, "duration": 110, "velocity": 95}, {"time": 148710, "pitch": 52, "duration": 90, "velocity": 80}, {"time": 148710, "pitch": 57, "duration": 90, "velocity": 85}, {"time": 148800, "pitch": 52, "duration": 150, "velocity": 65}, {"time": 148800, "pitch": 57, "duration": 150, "velocity": 70}, {"time": 148810, "pitch": 61, "duration": 130, "velocity": 75}, {"time": 148810, "pitch": 67, "duration": 130, "velocity": 80}, {"time": 148940, "pitch": 61, "duration": 110, "velocity": 105}, {"time": 148940, "pitch": 67, "duration": 110, "velocity": 110}, {"time": 148950, "pitch": 52, "duration": 90, "velocity": 95}, {"time": 148950, "pitch": 57, "duration": 90, "velocity": 100}, {"time": 149040, "pitch": 52, "duration": 150, "velocity": 65}, {"time": 149040, "pitch": 57, "duration": 150, "velocity": 70}, {"time": 149050, "pitch": 61, "duration": 130, "velocity": 75}, {"time": 149050, "pitch": 67, "duration": 130, "velocity": 80}, {"time": 149180, "pitch": 61, "duration": 110, "velocity": 105}, {"time": 149180, "pitch": 67, "duration": 110, "velocity": 110}, {"time": 149190, "pitch": 52, "duration": 90, "velocity": 95}, {"time": 149190, "pitch": 57, "duration": 90, "velocity": 100}, {"time": 149280, "pitch": 52, "duration": 240, "velocity": 105}, {"time": 149280, "pitch": 57, "duration": 240, "velocity": 110}, {"time": 149290, "pitch": 61, "duration": 240, "velocity": 115}, {"time": 149290, "pitch": 67, "duration": 240, "velocity": 120}, {"time": 149520, "pitch": 52, "duration": 150, "velocity": 85}, {"time": 149520, "pitch": 57, "duration": 150, "velocity": 90}, {"time": 149530, "pitch": 61, "duration": 130, "velocity": 95}, {"time": 149530, "pitch": 67, "duration": 130, "velocity": 100}, {"time": 149660, "pitch": 61, "duration": 80, "velocity": 90}, {"time": 149660, "pitch": 67, "duration": 80, "velocity": 95}, {"time": 149670, "pitch": 52, "duration": 70, "velocity": 80}, {"time": 149670, "pitch": 57, "duration": 70, "velocity": 85}, {"time": 149760, "pitch": 53, "duration": 250, "velocity": 95}, {"time": 149760, "pitch": 56, "duration": 250, "velocity": 100}, {"time": 149770, "pitch": 60, "duration": 230, "velocity": 105}, {"time": 149770, "pitch": 65, "duration": 230, "velocity": 110}, {"time": 150000, "pitch": 60, "duration": 250, "velocity": 95}, {"time": 150000, "pitch": 65, "duration": 250, "velocity": 100}, {"time": 150010, "pitch": 53, "duration": 230, "velocity": 85}, {"time": 150010, "pitch": 56, "duration": 230, "velocity": 90}, {"time": 150240, "pitch": 53, "duration": 240, "velocity": 105}, {"time": 150240, "pitch": 56, "duration": 240, "velocity": 110}, {"time": 150250, "pitch": 60, "duration": 240, "velocity": 115}, {"time": 150250, "pitch": 65, "duration": 240, "velocity": 120}, {"time": 150480, "pitch": 53, "duration": 150, "velocity": 85}, {"time": 150480, "pitch": 56, "duration": 150, "velocity": 90}, {"time": 150490, "pitch": 60, "duration": 130, "velocity": 95}, {"time": 150490, "pitch": 65, "duration": 130, "velocity": 100}, {"time": 150620, "pitch": 60, "duration": 110, "velocity": 90}, {"time": 150620, "pitch": 65, "duration": 110, "velocity": 95}, {"time": 150630, "pitch": 53, "duration": 90, "velocity": 80}, {"time": 150630, "pitch": 56, "duration": 90, "velocity": 85}, {"time": 150720, "pitch": 53, "duration": 150, "velocity": 65}, {"time": 150720, "pitch": 56, "duration": 150, "velocity": 70}, {"time": 150730, "pitch": 60, "duration": 130, "velocity": 75}, {"time": 150730, "pitch": 65, "duration": 130, "velocity": 80}, {"time": 150860, "pitch": 60, "duration": 110, "velocity": 105}, {"time": 150860, "pitch": 65, "duration": 110, "velocity": 110}, {"time": 150870, "pitch": 53, "duration": 90, "velocity": 95}, {"time": 150870, "pitch": 56, "duration": 90, "velocity": 100}, {"time": 150960, "pitch": 53, "duration": 150, "velocity": 65}, {"time": 150960, "pitch": 56, "duration": 150, "velocity": 70}, {"time": 150970, "pitch": 60, "duration": 130, "velocity": 75}, {"time": 150970, "pitch": 65, "duration": 130, "velocity": 80}, {"time": 151100, "pitch": 60, "duration": 110, "velocity": 105}, {"time": 151100, "pitch": 65, "duration": 110, "velocity": 110}, {"time": 151110, "pitch": 53, "duration": 90, "velocity": 95}, {"time": 151110, "pitch": 56, "duration": 90, "velocity": 100}, {"time": 151200, "pitch": 53, "duration": 240, "velocity": 105}, {"time": 151200, "pitch": 56, "duration": 240, "velocity": 110}, {"time": 151210, "pitch": 60, "duration": 240, "velocity": 115}, {"time": 151210, "pitch": 65, "duration": 240, "velocity": 120}, {"time": 151440, "pitch": 53, "duration": 150, "velocity": 85}, {"time": 151440, "pitch": 56, "duration": 150, "velocity": 90}, {"time": 151450, "pitch": 60, "duration": 130, "velocity": 95}, {"time": 151450, "pitch": 65, "duration": 130, "velocity": 100}, {"time": 151580, "pitch": 60, "duration": 80, "velocity": 90}, {"time": 151580, "pitch": 65, "duration": 80, "velocity": 95}, {"time": 151590, "pitch": 53, "duration": 70, "velocity": 80}, {"time": 151590, "pitch": 56, "duration": 70, "velocity": 85}, {"time": 151680, "pitch": 52, "duration": 250, "velocity": 95}, {"time": 151680, "pitch": 55, "duration": 250, "velocity": 100}, {"time": 151690, "pitch": 60, "duration": 230, "velocity": 105}, {"time": 151690, "pitch": 64, "duration": 230, "velocity": 110}, {"time": 151920, "pitch": 60, "duration": 250, "velocity": 95}, {"time": 151920, "pitch": 64, "duration": 250, "velocity": 100}, {"time": 151930, "pitch": 52, "duration": 230, "velocity": 85}, {"time": 151930, "pitch": 55, "duration": 230, "velocity": 90}, {"time": 152160, "pitch": 52, "duration": 240, "velocity": 105}, {"time": 152160, "pitch": 55, "duration": 240, "velocity": 110}, {"time": 152170, "pitch": 60, "duration": 240, "velocity": 115}, {"time": 152170, "pitch": 64, "duration": 240, "velocity": 120}, {"time": 152400, "pitch": 52, "duration": 150, "velocity": 85}, {"time": 152400, "pitch": 55, "duration": 150, "velocity": 90}, {"time": 152410, "pitch": 60, "duration": 130, "velocity": 95}, {"time": 152410, "pitch": 64, "duration": 130, "velocity": 100}, {"time": 152540, "pitch": 60, "duration": 110, "velocity": 90}, {"time": 152540, "pitch": 64, "duration": 110, "velocity": 95}, {"time": 152550, "pitch": 52, "duration": 90, "velocity": 80}, {"time": 152550, "pitch": 55, "duration": 90, "velocity": 85}, {"time": 152640, "pitch": 52, "duration": 150, "velocity": 65}, {"time": 152640, "pitch": 55, "duration": 150, "velocity": 70}, {"time": 152650, "pitch": 60, "duration": 130, "velocity": 75}, {"time": 152650, "pitch": 64, "duration": 130, "velocity": 80}, {"time": 152780, "pitch": 60, "duration": 110, "velocity": 105}, {"time": 152780, "pitch": 64, "duration": 110, "velocity": 110}, {"time": 152790, "pitch": 52, "duration": 90, "velocity": 95}, {"time": 152790, "pitch": 55, "duration": 90, "velocity": 100}, {"time": 152880, "pitch": 52, "duration": 150, "velocity": 65}, {"time": 152880, "pitch": 55, "duration": 150, "velocity": 70}, {"time": 152890, "pitch": 60, "duration": 130, "velocity": 75}, {"time": 152890, "pitch": 64, "duration": 130, "velocity": 80}, {"time": 153020, "pitch": 60, "duration": 110, "velocity": 105}, {"time": 153020, "pitch": 64, "duration": 110, "velocity": 110}, {"time": 153030, "pitch": 52, "duration": 90, "velocity": 95}, {"time": 153030, "pitch": 55, "duration": 90, "velocity": 100}, {"time": 153120, "pitch": 52, "duration": 240, "velocity": 105}, {"time": 153120, "pitch": 55, "duration": 240, "velocity": 110}, {"time": 153130, "pitch": 60, "duration": 240, "velocity": 115}, {"time": 153130, "pitch": 64, "duration": 240, "velocity": 120}, {"time": 153360, "pitch": 52, "duration": 150, "velocity": 85}, {"time": 153360, "pitch": 55, "duration": 150, "velocity": 90}, {"time": 153370, "pitch": 60, "duration": 130, "velocity": 95}, {"time": 153370, "pitch": 64, "duration": 130, "velocity": 100}, {"time": 153500, "pitch": 60, "duration": 80, "velocity": 90}, {"time": 153500, "pitch": 64, "duration": 80, "velocity": 95}, {"time": 153510, "pitch": 52, "duration": 70, "velocity": 80}, {"time": 153510, "pitch": 55, "duration": 70, "velocity": 85}, {"time": 153600, "pitch": 50, "duration": 250, "velocity": 95}, {"time": 153600, "pitch": 57, "duration": 250, "velocity": 100}, {"time": 153610, "pitch": 60, "duration": 230, "velocity": 105}, {"time": 153610, "pitch": 65, "duration": 230, "velocity": 110}, {"time": 153840, "pitch": 60, "duration": 250, "velocity": 95}, {"time": 153840, "pitch": 65, "duration": 250, "velocity": 100}, {"time": 153850, "pitch": 50, "duration": 230, "velocity": 85}, {"time": 153850, "pitch": 57, "duration": 230, "velocity": 90}, {"time": 154080, "pitch": 50, "duration": 240, "velocity": 105}, {"time": 154080, "pitch": 57, "duration": 240, "velocity": 110}, {"time": 154090, "pitch": 60, "duration": 240, "velocity": 115}, {"time": 154090, "pitch": 65, "duration": 240, "velocity": 120}, {"time": 154320, "pitch": 50, "duration": 150, "velocity": 85}, {"time": 154320, "pitch": 57, "duration": 150, "velocity": 90}, {"time": 154330, "pitch": 60, "duration": 130, "velocity": 95}, {"time": 154330, "pitch": 65, "duration": 130, "velocity": 100}, {"time": 154460, "pitch": 60, "duration": 110, "velocity": 90}, {"time": 154460, "pitch": 65, "duration": 110, "velocity": 95}, {"time": 154470, "pitch": 50, "duration": 90, "velocity": 80}, {"time": 154470, "pitch": 57, "duration": 90, "velocity": 85}, {"time": 154560, "pitch": 50, "duration": 150, "velocity": 65}, {"time": 154560, "pitch": 57, "duration": 150, "velocity": 70}, {"time": 154570, "pitch": 60, "duration": 130, "velocity": 75}, {"time": 154570, "pitch": 65, "duration": 130, "velocity": 80}, {"time": 154700, "pitch": 60, "duration": 110, "velocity": 105}, {"time": 154700, "pitch": 65, "duration": 110, "velocity": 110}, {"time": 154710, "pitch": 50, "duration": 90, "velocity": 95}, {"time": 154710, "pitch": 57, "duration": 90, "velocity": 100}, {"time": 154800, "pitch": 50, "duration": 150, "velocity": 65}, {"time": 154800, "pitch": 57, "duration": 150, "velocity": 70}, {"time": 154810, "pitch": 60, "duration": 130, "velocity": 75}, {"time": 154810, "pitch": 65, "duration": 130, "velocity": 80}, {"time": 154940, "pitch": 60, "duration": 110, "velocity": 105}, {"time": 154940, "pitch": 65, "duration": 110, "velocity": 110}, {"time": 154950, "pitch": 50, "duration": 90, "velocity": 95}, {"time": 154950, "pitch": 57, "duration": 90, "velocity": 100}, {"time": 155040, "pitch": 50, "duration": 240, "velocity": 105}, {"time": 155040, "pitch": 57, "duration": 240, "velocity": 110}, {"time": 155050, "pitch": 60, "duration": 240, "velocity": 115}, {"time": 155050, "pitch": 65, "duration": 240, "velocity": 120}, {"time": 155280, "pitch": 50, "duration": 150, "velocity": 85}, {"time": 155280, "pitch": 57, "duration": 150, "velocity": 90}, {"time": 155290, "pitch": 60, "duration": 130, "velocity": 95}, {"time": 155290, "pitch": 65, "duration": 130, "velocity": 100}, {"time": 155420, "pitch": 60, "duration": 80, "velocity": 90}, {"time": 155420, "pitch": 65, "duration": 80, "velocity": 95}, {"time": 155430, "pitch": 50, "duration": 70, "velocity": 80}, {"time": 155430, "pitch": 57, "duration": 70, "velocity": 85}, {"time": 155520, "pitch": 50, "duration": 250, "velocity": 95}, {"time": 155520, "pitch": 55, "duration": 250, "velocity": 100}, {"time": 155530, "pitch": 60, "duration": 230, "velocity": 105}, {"time": 155530, "pitch": 65, "duration": 230, "velocity": 110}, {"time": 155760, "pitch": 60, "duration": 250, "velocity": 95}, {"time": 155760, "pitch": 65, "duration": 250, "velocity": 100}, {"time": 155770, "pitch": 50, "duration": 230, "velocity": 85}, {"time": 155770, "pitch": 55, "duration": 230, "velocity": 90}, {"time": 156000, "pitch": 50, "duration": 240, "velocity": 105}, {"time": 156000, "pitch": 55, "duration": 240, "velocity": 110}, {"time": 156010, "pitch": 60, "duration": 240, "velocity": 115}, {"time": 156010, "pitch": 65, "duration": 240, "velocity": 120}, {"time": 156240, "pitch": 50, "duration": 150, "velocity": 85}, {"time": 156240, "pitch": 55, "duration": 150, "velocity": 90}, {"time": 156250, "pitch": 60, "duration": 130, "velocity": 95}, {"time": 156250, "pitch": 65, "duration": 130, "velocity": 100}, {"time": 156380, "pitch": 60, "duration": 110, "velocity": 90}, {"time": 156380, "pitch": 65, "duration": 110, "velocity": 95}, {"time": 156390, "pitch": 50, "duration": 90, "velocity": 80}, {"time": 156390, "pitch": 55, "duration": 90, "velocity": 85}, {"time": 156480, "pitch": 50, "duration": 150, "velocity": 65}, {"time": 156480, "pitch": 55, "duration": 150, "velocity": 70}, {"time": 156490, "pitch": 60, "duration": 130, "velocity": 75}, {"time": 156490, "pitch": 65, "duration": 130, "velocity": 80}, {"time": 156620, "pitch": 60, "duration": 110, "velocity": 105}, {"time": 156620, "pitch": 65, "duration": 110, "velocity": 110}, {"time": 156630, "pitch": 50, "duration": 90, "velocity": 95}, {"time": 156630, "pitch": 55, "duration": 90, "velocity": 100}, {"time": 156720, "pitch": 50, "duration": 150, "velocity": 65}, {"time": 156720, "pitch": 55, "duration": 150, "velocity": 70}, {"time": 156730, "pitch": 60, "duration": 130, "velocity": 75}, {"time": 156730, "pitch": 65, "duration": 130, "velocity": 80}, {"time": 156860, "pitch": 60, "duration": 110, "velocity": 105}, {"time": 156860, "pitch": 65, "duration": 110, "velocity": 110}, {"time": 156870, "pitch": 50, "duration": 90, "velocity": 95}, {"time": 156870, "pitch": 55, "duration": 90, "velocity": 100}, {"time": 156960, "pitch": 50, "duration": 240, "velocity": 105}, {"time": 156960, "pitch": 55, "duration": 240, "velocity": 110}, {"time": 156970, "pitch": 60, "duration": 240, "velocity": 115}, {"time": 156970, "pitch": 65, "duration": 240, "velocity": 120}, {"time": 157200, "pitch": 50, "duration": 150, "velocity": 85}, {"time": 157200, "pitch": 55, "duration": 150, "velocity": 90}, {"time": 157210, "pitch": 60, "duration": 130, "velocity": 95}, {"time": 157210, "pitch": 65, "duration": 130, "velocity": 100}, {"time": 157340, "pitch": 60, "duration": 80, "velocity": 90}, {"time": 157340, "pitch": 65, "duration": 80, "velocity": 95}, {"time": 157350, "pitch": 50, "duration": 70, "velocity": 80}, {"time": 157350, "pitch": 55, "duration": 70, "velocity": 85}, {"time": 157440, "pitch": 52, "duration": 250, "velocity": 95}, {"time": 157440, "pitch": 55, "duration": 250, "velocity": 100}, {"time": 157450, "pitch": 60, "duration": 230, "velocity": 105}, {"time": 157450, "pitch": 64, "duration": 230, "velocity": 110}, {"time": 157680, "pitch": 60, "duration": 250, "velocity": 95}, {"time": 157680, "pitch": 64, "duration": 250, "velocity": 100}, {"time": 157690, "pitch": 52, "duration": 230, "velocity": 85}, {"time": 157690, "pitch": 55, "duration": 230, "velocity": 90}, {"time": 157920, "pitch": 52, "duration": 240, "velocity": 105}, {"time": 157920, "pitch": 55, "duration": 240, "velocity": 110}, {"time": 157930, "pitch": 60, "duration": 240, "velocity": 115}, {"time": 157930, "pitch": 64, "duration": 240, "velocity": 120}, {"time": 158160, "pitch": 52, "duration": 150, "velocity": 85}, {"time": 158160, "pitch": 55, "duration": 150, "velocity": 90}, {"time": 158170, "pitch": 60, "duration": 130, "velocity": 95}, {"time": 158170, "pitch": 64, "duration": 130, "velocity": 100}, {"time": 158300, "pitch": 60, "duration": 110, "velocity": 90}, {"time": 158300, "pitch": 64, "duration": 110, "velocity": 95}, {"time": 158310, "pitch": 52, "duration": 90, "velocity": 80}, {"time": 158310, "pitch": 55, "duration": 90, "velocity": 85}, {"time": 158400, "pitch": 52, "duration": 150, "velocity": 65}, {"time": 158400, "pitch": 55, "duration": 150, "velocity": 70}, {"time": 158410, "pitch": 60, "duration": 130, "velocity": 75}, {"time": 158410, "pitch": 64, "duration": 130, "velocity": 80}, {"time": 158540, "pitch": 60, "duration": 110, "velocity": 105}, {"time": 158540, "pitch": 64, "duration": 110, "velocity": 110}, {"time": 158550, "pitch": 52, "duration": 90, "velocity": 95}, {"time": 158550, "pitch": 55, "duration": 90, "velocity": 100}, {"time": 158640, "pitch": 52, "duration": 150, "velocity": 65}, {"time": 158640, "pitch": 55, "duration": 150, "velocity": 70}, {"time": 158650, "pitch": 60, "duration": 130, "velocity": 75}, {"time": 158650, "pitch": 64, "duration": 130, "velocity": 80}, {"time": 158780, "pitch": 60, "duration": 110, "velocity": 105}, {"time": 158780, "pitch": 64, "duration": 110, "velocity": 110}, {"time": 158790, "pitch": 52, "duration": 90, "velocity": 95}, {"time": 158790, "pitch": 55, "duration": 90, "velocity": 100}, {"time": 158880, "pitch": 52, "duration": 240, "velocity": 105}, {"time": 158880, "pitch": 55, "duration": 240, "velocity": 110}, {"time": 158890, "pitch": 60, "duration": 240, "velocity": 115}, {"time": 158890, "pitch": 64, "duration": 240, "velocity": 120}, {"time": 159120, "pitch": 52, "duration": 150, "velocity": 85}, {"time": 159120, "pitch": 55, "duration": 150, "velocity": 90}, {"time": 159130, "pitch": 60, "duration": 130, "velocity": 95}, {"time": 159130, "pitch": 64, "duration": 130, "velocity": 100}, {"time": 159260, "pitch": 60, "duration": 80, "velocity": 90}, {"time": 159260, "pitch": 64, "duration": 80, "velocity": 95}, {"time": 159270, "pitch": 52, "duration": 70, "velocity": 80}, {"time": 159270, "pitch": 55, "duration": 70, "velocity": 85}, {"time": 159360, "pitch": 50, "duration": 250, "velocity": 95}, {"time": 159360, "pitch": 55, "duration": 250, "velocity": 100}, {"time": 159370, "pitch": 59, "duration": 230, "velocity": 105}, {"time": 159370, "pitch": 67, "duration": 230, "velocity": 110}, {"time": 159600, "pitch": 59, "duration": 250, "velocity": 95}, {"time": 159600, "pitch": 67, "duration": 250, "velocity": 100}, {"time": 159610, "pitch": 50, "duration": 230, "velocity": 85}, {"time": 159610, "pitch": 55, "duration": 230, "velocity": 90}, {"time": 159840, "pitch": 50, "duration": 240, "velocity": 105}, {"time": 159840, "pitch": 55, "duration": 240, "velocity": 110}, {"time": 159850, "pitch": 59, "duration": 240, "velocity": 115}, {"time": 159850, "pitch": 67, "duration": 240, "velocity": 120}, {"time": 160080, "pitch": 50, "duration": 150, "velocity": 85}, {"time": 160080, "pitch": 55, "duration": 150, "velocity": 90}, {"time": 160090, "pitch": 59, "duration": 130, "velocity": 95}, {"time": 160090, "pitch": 67, "duration": 130, "velocity": 100}, {"time": 160220, "pitch": 59, "duration": 110, "velocity": 90}, {"time": 160220, "pitch": 67, "duration": 110, "velocity": 95}, {"time": 160230, "pitch": 50, "duration": 90, "velocity": 80}, {"time": 160230, "pitch": 55, "duration": 90, "velocity": 85}, {"time": 160320, "pitch": 50, "duration": 150, "velocity": 65}, {"time": 160320, "pitch": 55, "duration": 150, "velocity": 70}, {"time": 160330, "pitch": 59, "duration": 130, "velocity": 75}, {"time": 160330, "pitch": 67, "duration": 130, "velocity": 80}, {"time": 160460, "pitch": 59, "duration": 110, "velocity": 105}, {"time": 160460, "pitch": 67, "duration": 110, "velocity": 110}, {"time": 160470, "pitch": 50, "duration": 90, "velocity": 95}, {"time": 160470, "pitch": 55, "duration": 90, "velocity": 100}, {"time": 160560, "pitch": 50, "duration": 150, "velocity": 65}, {"time": 160560, "pitch": 55, "duration": 150, "velocity": 70}, {"time": 160570, "pitch": 59, "duration": 130, "velocity": 75}, {"time": 160570, "pitch": 67, "duration": 130, "velocity": 80}, {"time": 160700, "pitch": 59, "duration": 110, "velocity": 105}, {"time": 160700, "pitch": 67, "duration": 110, "velocity": 110}, {"time": 160710, "pitch": 50, "duration": 90, "velocity": 95}, {"time": 160710, "pitch": 55, "duration": 90, "velocity": 100}, {"time": 160800, "pitch": 50, "duration": 240, "velocity": 105}, {"time": 160800, "pitch": 55, "duration": 240, "velocity": 110}, {"time": 160810, "pitch": 59, "duration": 240, "velocity": 115}, {"time": 160810, "pitch": 67, "duration": 240, "velocity": 120}, {"time": 161040, "pitch": 50, "duration": 150, "velocity": 85}, {"time": 161040, "pitch": 55, "duration": 150, "velocity": 90}, {"time": 161050, "pitch": 59, "duration": 130, "velocity": 95}, {"time": 161050, "pitch": 67, "duration": 130, "velocity": 100}, {"time": 161180, "pitch": 59, "duration": 80, "velocity": 90}, {"time": 161180, "pitch": 67, "duration": 80, "velocity": 95}, {"time": 161190, "pitch": 50, "duration": 70, "velocity": 80}, {"time": 161190, "pitch": 55, "duration": 70, "velocity": 85}, {"time": 161280, "pitch": 50, "duration": 250, "velocity": 95}, {"time": 161280, "pitch": 55, "duration": 250, "velocity": 100}, {"time": 161290, "pitch": 62, "duration": 230, "velocity": 105}, {"time": 161290, "pitch": 67, "duration": 230, "velocity": 110}, {"time": 161520, "pitch": 62, "duration": 250, "velocity": 95}, {"time": 161520, "pitch": 67, "duration": 250, "velocity": 100}, {"time": 161530, "pitch": 50, "duration": 230, "velocity": 85}, {"time": 161530, "pitch": 55, "duration": 230, "velocity": 90}, {"time": 161760, "pitch": 50, "duration": 240, "velocity": 105}, {"time": 161760, "pitch": 55, "duration": 240, "velocity": 110}, {"time": 161770, "pitch": 62, "duration": 240, "velocity": 115}, {"time": 161770, "pitch": 67, "duration": 240, "velocity": 120}, {"time": 162000, "pitch": 50, "duration": 150, "velocity": 85}, {"time": 162000, "pitch": 55, "duration": 150, "velocity": 90}, {"time": 162010, "pitch": 62, "duration": 130, "velocity": 95}, {"time": 162010, "pitch": 67, "duration": 130, "velocity": 100}, {"time": 162140, "pitch": 62, "duration": 110, "velocity": 90}, {"time": 162140, "pitch": 67, "duration": 110, "velocity": 95}, {"time": 162150, "pitch": 50, "duration": 90, "velocity": 80}, {"time": 162150, "pitch": 55, "duration": 90, "velocity": 85}, {"time": 162240, "pitch": 50, "duration": 150, "velocity": 65}, {"time": 162240, "pitch": 55, "duration": 150, "velocity": 70}, {"time": 162250, "pitch": 62, "duration": 130, "velocity": 75}, {"time": 162250, "pitch": 67, "duration": 130, "velocity": 80}, {"time": 162380, "pitch": 62, "duration": 110, "velocity": 105}, {"time": 162380, "pitch": 67, "duration": 110, "velocity": 110}, {"time": 162390, "pitch": 50, "duration": 90, "velocity": 95}, {"time": 162390, "pitch": 55, "duration": 90, "velocity": 100}, {"time": 162480, "pitch": 50, "duration": 150, "velocity": 65}, {"time": 162480, "pitch": 55, "duration": 150, "velocity": 70}, {"time": 162490, "pitch": 62, "duration": 130, "velocity": 75}, {"time": 162490, "pitch": 67, "duration": 130, "velocity": 80}, {"time": 162620, "pitch": 62, "duration": 110, "velocity": 105}, {"time": 162620, "pitch": 67, "duration": 110, "velocity": 110}, {"time": 162630, "pitch": 50, "duration": 90, "velocity": 95}, {"time": 162630, "pitch": 55, "duration": 90, "velocity": 100}, {"time": 162720, "pitch": 50, "duration": 240, "velocity": 105}, {"time": 162720, "pitch": 55, "duration": 240, "velocity": 110}, {"time": 162730, "pitch": 62, "duration": 240, "velocity": 115}, {"time": 162730, "pitch": 67, "duration": 240, "velocity": 120}, {"time": 162960, "pitch": 50, "duration": 150, "velocity": 85}, {"time": 162960, "pitch": 55, "duration": 150, "velocity": 90}, {"time": 162970, "pitch": 62, "duration": 130, "velocity": 95}, {"time": 162970, "pitch": 67, "duration": 130, "velocity": 100}, {"time": 163100, "pitch": 62, "duration": 80, "velocity": 90}, {"time": 163100, "pitch": 67, "duration": 80, "velocity": 95}, {"time": 163110, "pitch": 50, "duration": 70, "velocity": 80}, {"time": 163110, "pitch": 55, "duration": 70, "velocity": 85}, {"time": 163200, "pitch": 52, "duration": 250, "velocity": 95}, {"time": 163200, "pitch": 57, "duration": 250, "velocity": 100}, {"time": 163210, "pitch": 61, "duration": 230, "velocity": 105}, {"time": 163210, "pitch": 67, "duration": 230, "velocity": 110}, {"time": 163440, "pitch": 61, "duration": 250, "velocity": 95}, {"time": 163440, "pitch": 67, "duration": 250, "velocity": 100}, {"time": 163450, "pitch": 52, "duration": 230, "velocity": 85}, {"time": 163450, "pitch": 57, "duration": 230, "velocity": 90}, {"time": 163680, "pitch": 52, "duration": 240, "velocity": 105}, {"time": 163680, "pitch": 57, "duration": 240, "velocity": 110}, {"time": 163690, "pitch": 61, "duration": 240, "velocity": 115}, {"time": 163690, "pitch": 67, "duration": 240, "velocity": 120}, {"time": 163920, "pitch": 52, "duration": 150, "velocity": 85}, {"time": 163920, "pitch": 57, "duration": 150, "velocity": 90}, {"time": 163930, "pitch": 61, "duration": 130, "velocity": 95}, {"time": 163930, "pitch": 67, "duration": 130, "velocity": 100}, {"time": 164060, "pitch": 61, "duration": 110, "velocity": 90}, {"time": 164060, "pitch": 67, "duration": 110, "velocity": 95}, {"time": 164070, "pitch": 52, "duration": 90, "velocity": 80}, {"time": 164070, "pitch": 57, "duration": 90, "velocity": 85}, {"time": 164160, "pitch": 52, "duration": 150, "velocity": 65}, {"time": 164160, "pitch": 57, "duration": 150, "velocity": 70}, {"time": 164170, "pitch": 61, "duration": 130, "velocity": 75}, {"time": 164170, "pitch": 67, "duration": 130, "velocity": 80}, {"time": 164300, "pitch": 61, "duration": 110, "velocity": 105}, {"time": 164300, "pitch": 67, "duration": 110, "velocity": 110}, {"time": 164310, "pitch": 52, "duration": 90, "velocity": 95}, {"time": 164310, "pitch": 57, "duration": 90, "velocity": 100}, {"time": 164400, "pitch": 52, "duration": 150, "velocity": 65}, {"time": 164400, "pitch": 57, "duration": 150, "velocity": 70}, {"time": 164410, "pitch": 61, "duration": 130, "velocity": 75}, {"time": 164410, "pitch": 67, "duration": 130, "velocity": 80}, {"time": 164540, "pitch": 61, "duration": 110, "velocity": 105}, {"time": 164540, "pitch": 67, "duration": 110, "velocity": 110}, {"time": 164550, "pitch": 52, "duration": 90, "velocity": 95}, {"time": 164550, "pitch": 57, "duration": 90, "velocity": 100}, {"time": 164640, "pitch": 52, "duration": 240, "velocity": 105}, {"time": 164640, "pitch": 57, "duration": 240, "velocity": 110}, {"time": 164650, "pitch": 61, "duration": 240, "velocity": 115}, {"time": 164650, "pitch": 67, "duration": 240, "velocity": 120}, {"time": 164880, "pitch": 52, "duration": 150, "velocity": 85}, {"time": 164880, "pitch": 57, "duration": 150, "velocity": 90}, {"time": 164890, "pitch": 61, "duration": 130, "velocity": 95}, {"time": 164890, "pitch": 67, "duration": 130, "velocity": 100}, {"time": 165020, "pitch": 61, "duration": 80, "velocity": 90}, {"time": 165020, "pitch": 67, "duration": 80, "velocity": 95}, {"time": 165030, "pitch": 52, "duration": 70, "velocity": 80}, {"time": 165030, "pitch": 57, "duration": 70, "velocity": 85}, {"time": 165120, "pitch": 53, "duration": 250, "velocity": 95}, {"time": 165120, "pitch": 56, "duration": 250, "velocity": 100}, {"time": 165130, "pitch": 60, "duration": 230, "velocity": 105}, {"time": 165130, "pitch": 65, "duration": 230, "velocity": 110}, {"time": 165360, "pitch": 60, "duration": 250, "velocity": 95}, {"time": 165360, "pitch": 65, "duration": 250, "velocity": 100}, {"time": 165370, "pitch": 53, "duration": 230, "velocity": 85}, {"time": 165370, "pitch": 56, "duration": 230, "velocity": 90}, {"time": 165600, "pitch": 53, "duration": 240, "velocity": 105}, {"time": 165600, "pitch": 56, "duration": 240, "velocity": 110}, {"time": 165610, "pitch": 60, "duration": 240, "velocity": 115}, {"time": 165610, "pitch": 65, "duration": 240, "velocity": 120}, {"time": 165840, "pitch": 53, "duration": 150, "velocity": 85}, {"time": 165840, "pitch": 56, "duration": 150, "velocity": 90}, {"time": 165850, "pitch": 60, "duration": 130, "velocity": 95}, {"time": 165850, "pitch": 65, "duration": 130, "velocity": 100}, {"time": 165980, "pitch": 60, "duration": 110, "velocity": 90}, {"time": 165980, "pitch": 65, "duration": 110, "velocity": 95}, {"time": 165990, "pitch": 53, "duration": 90, "velocity": 80}, {"time": 165990, "pitch": 56, "duration": 90, "velocity": 85}, {"time": 166080, "pitch": 53, "duration": 150, "velocity": 65}, {"time": 166080, "pitch": 56, "duration": 150, "velocity": 70}, {"time": 166090, "pitch": 60, "duration": 130, "velocity": 75}, {"time": 166090, "pitch": 65, "duration": 130, "velocity": 80}, {"time": 166220, "pitch": 60, "duration": 110, "velocity": 105}, {"time": 166220, "pitch": 65, "duration": 110, "velocity": 110}, {"time": 166230, "pitch": 53, "duration": 90, "velocity": 95}, {"time": 166230, "pitch": 56, "duration": 90, "velocity": 100}, {"time": 166320, "pitch": 53, "duration": 150, "velocity": 65}, {"time": 166320, "pitch": 56, "duration": 150, "velocity": 70}, {"time": 166330, "pitch": 60, "duration": 130, "velocity": 75}, {"time": 166330, "pitch": 65, "duration": 130, "velocity": 80}, {"time": 166460, "pitch": 60, "duration": 110, "velocity": 105}, {"time": 166460, "pitch": 65, "duration": 110, "velocity": 110}, {"time": 166470, "pitch": 53, "duration": 90, "velocity": 95}, {"time": 166470, "pitch": 56, "duration": 90, "velocity": 100}, {"time": 166560, "pitch": 53, "duration": 240, "velocity": 105}, {"time": 166560, "pitch": 56, "duration": 240, "velocity": 110}, {"time": 166570, "pitch": 60, "duration": 240, "velocity": 115}, {"time": 166570, "pitch": 65, "duration": 240, "velocity": 120}, {"time": 166800, "pitch": 53, "duration": 150, "velocity": 85}, {"time": 166800, "pitch": 56, "duration": 150, "velocity": 90}, {"time": 166810, "pitch": 60, "duration": 130, "velocity": 95}, {"time": 166810, "pitch": 65, "duration": 130, "velocity": 100}, {"time": 166940, "pitch": 60, "duration": 80, "velocity": 90}, {"time": 166940, "pitch": 65, "duration": 80, "velocity": 95}, {"time": 166950, "pitch": 53, "duration": 70, "velocity": 80}, {"time": 166950, "pitch": 56, "duration": 70, "velocity": 85}, {"time": 167040, "pitch": 52, "duration": 250, "velocity": 95}, {"time": 167040, "pitch": 55, "duration": 250, "velocity": 100}, {"time": 167050, "pitch": 60, "duration": 230, "velocity": 105}, {"time": 167050, "pitch": 64, "duration": 230, "velocity": 110}, {"time": 167280, "pitch": 60, "duration": 250, "velocity": 95}, {"time": 167280, "pitch": 64, "duration": 250, "velocity": 100}, {"time": 167290, "pitch": 52, "duration": 230, "velocity": 85}, {"time": 167290, "pitch": 55, "duration": 230, "velocity": 90}, {"time": 167520, "pitch": 52, "duration": 240, "velocity": 105}, {"time": 167520, "pitch": 55, "duration": 240, "velocity": 110}, {"time": 167530, "pitch": 60, "duration": 240, "velocity": 115}, {"time": 167530, "pitch": 64, "duration": 240, "velocity": 120}, {"time": 167760, "pitch": 52, "duration": 150, "velocity": 85}, {"time": 167760, "pitch": 55, "duration": 150, "velocity": 90}, {"time": 167770, "pitch": 60, "duration": 130, "velocity": 95}, {"time": 167770, "pitch": 64, "duration": 130, "velocity": 100}, {"time": 167900, "pitch": 60, "duration": 110, "velocity": 90}, {"time": 167900, "pitch": 64, "duration": 110, "velocity": 95}, {"time": 167910, "pitch": 52, "duration": 90, "velocity": 80}, {"time": 167910, "pitch": 55, "duration": 90, "velocity": 85}, {"time": 168000, "pitch": 52, "duration": 150, "velocity": 65}, {"time": 168000, "pitch": 55, "duration": 150, "velocity": 70}, {"time": 168010, "pitch": 60, "duration": 130, "velocity": 75}, {"time": 168010, "pitch": 64, "duration": 130, "velocity": 80}, {"time": 168140, "pitch": 60, "duration": 110, "velocity": 105}, {"time": 168140, "pitch": 64, "duration": 110, "velocity": 110}, {"time": 168150, "pitch": 52, "duration": 90, "velocity": 95}, {"time": 168150, "pitch": 55, "duration": 90, "velocity": 100}, {"time": 168240, "pitch": 52, "duration": 150, "velocity": 65}, {"time": 168240, "pitch": 55, "duration": 150, "velocity": 70}, {"time": 168250, "pitch": 60, "duration": 130, "velocity": 75}, {"time": 168250, "pitch": 64, "duration": 130, "velocity": 80}, {"time": 168380, "pitch": 60, "duration": 110, "velocity": 105}, {"time": 168380, "pitch": 64, "duration": 110, "velocity": 110}, {"time": 168390, "pitch": 52, "duration": 90, "velocity": 95}, {"time": 168390, "pitch": 55, "duration": 90, "velocity": 100}, {"time": 168480, "pitch": 52, "duration": 240, "velocity": 105}, {"time": 168480, "pitch": 55, "duration": 240, "velocity": 110}, {"time": 168490, "pitch": 60, "duration": 240, "velocity": 115}, {"time": 168490, "pitch": 64, "duration": 240, "velocity": 120}, {"time": 168720, "pitch": 52, "duration": 150, "velocity": 85}, {"time": 168720, "pitch": 55, "duration": 150, "velocity": 90}, {"time": 168730, "pitch": 60, "duration": 130, "velocity": 95}, {"time": 168730, "pitch": 64, "duration": 130, "velocity": 100}, {"time": 168860, "pitch": 60, "duration": 80, "velocity": 90}, {"time": 168860, "pitch": 64, "duration": 80, "velocity": 95}, {"time": 168870, "pitch": 52, "duration": 70, "velocity": 80}, {"time": 168870, "pitch": 55, "duration": 70, "velocity": 85}, {"time": 168960, "pitch": 50, "duration": 250, "velocity": 95}, {"time": 168960, "pitch": 57, "duration": 250, "velocity": 100}, {"time": 168970, "pitch": 60, "duration": 230, "velocity": 105}, {"time": 168970, "pitch": 65, "duration": 230, "velocity": 110}, {"time": 169200, "pitch": 60, "duration": 250, "velocity": 95}, {"time": 169200, "pitch": 65, "duration": 250, "velocity": 100}, {"time": 169210, "pitch": 50, "duration": 230, "velocity": 85}, {"time": 169210, "pitch": 57, "duration": 230, "velocity": 90}, {"time": 169440, "pitch": 50, "duration": 240, "velocity": 105}, {"time": 169440, "pitch": 57, "duration": 240, "velocity": 110}, {"time": 169450, "pitch": 60, "duration": 240, "velocity": 115}, {"time": 169450, "pitch": 65, "duration": 240, "velocity": 120}, {"time": 169680, "pitch": 50, "duration": 150, "velocity": 85}, {"time": 169680, "pitch": 57, "duration": 150, "velocity": 90}, {"time": 169690, "pitch": 60, "duration": 130, "velocity": 95}, {"time": 169690, "pitch": 65, "duration": 130, "velocity": 100}, {"time": 169820, "pitch": 60, "duration": 110, "velocity": 90}, {"time": 169820, "pitch": 65, "duration": 110, "velocity": 95}, {"time": 169830, "pitch": 50, "duration": 90, "velocity": 80}, {"time": 169830, "pitch": 57, "duration": 90, "velocity": 85}, {"time": 169920, "pitch": 50, "duration": 150, "velocity": 65}, {"time": 169920, "pitch": 57, "duration": 150, "velocity": 70}, {"time": 169930, "pitch": 60, "duration": 130, "velocity": 75}, {"time": 169930, "pitch": 65, "duration": 130, "velocity": 80}, {"time": 170060, "pitch": 60, "duration": 110, "velocity": 105}, {"time": 170060, "pitch": 65, "duration": 110, "velocity": 110}, {"time": 170070, "pitch": 50, "duration": 90, "velocity": 95}, {"time": 170070, "pitch": 57, "duration": 90, "velocity": 100}, {"time": 170160, "pitch": 50, "duration": 150, "velocity": 65}, {"time": 170160, "pitch": 57, "duration": 150, "velocity": 70}, {"time": 170170, "pitch": 60, "duration": 130, "velocity": 75}, {"time": 170170, "pitch": 65, "duration": 130, "velocity": 80}, {"time": 170300, "pitch": 60, "duration": 110, "velocity": 105}, {"time": 170300, "pitch": 65, "duration": 110, "velocity": 110}, {"time": 170310, "pitch": 50, "duration": 90, "velocity": 95}, {"time": 170310, "pitch": 57, "duration": 90, "velocity": 100}, {"time": 170400, "pitch": 50, "duration": 240, "velocity": 105}, {"time": 170400, "pitch": 57, "duration": 240, "velocity": 110}, {"time": 170410, "pitch": 60, "duration": 240, "velocity": 115}, {"time": 170410, "pitch": 65, "duration": 240, "velocity": 120}, {"time": 170640, "pitch": 50, "duration": 150, "velocity": 85}, {"time": 170640, "pitch": 57, "duration": 150, "velocity": 90}, {"time": 170650, "pitch": 60, "duration": 130, "velocity": 95}, {"time": 170650, "pitch": 65, "duration": 130, "velocity": 100}, {"time": 170780, "pitch": 60, "duration": 80, "velocity": 90}, {"time": 170780, "pitch": 65, "duration": 80, "velocity": 95}, {"time": 170790, "pitch": 50, "duration": 70, "velocity": 80}, {"time": 170790, "pitch": 57, "duration": 70, "velocity": 85}, {"time": 170880, "pitch": 50, "duration": 250, "velocity": 95}, {"time": 170880, "pitch": 56, "duration": 250, "velocity": 100}, {"time": 170890, "pitch": 60, "duration": 230, "velocity": 105}, {"time": 170890, "pitch": 65, "duration": 230, "velocity": 110}, {"time": 171120, "pitch": 60, "duration": 250, "velocity": 95}, {"time": 171120, "pitch": 65, "duration": 250, "velocity": 100}, {"time": 171130, "pitch": 50, "duration": 230, "velocity": 85}, {"time": 171130, "pitch": 56, "duration": 230, "velocity": 90}, {"time": 171360, "pitch": 50, "duration": 240, "velocity": 105}, {"time": 171360, "pitch": 56, "duration": 240, "velocity": 110}, {"time": 171370, "pitch": 60, "duration": 240, "velocity": 115}, {"time": 171370, "pitch": 65, "duration": 240, "velocity": 120}, {"time": 171600, "pitch": 50, "duration": 150, "velocity": 105}, {"time": 171600, "pitch": 56, "duration": 150, "velocity": 110}, {"time": 171610, "pitch": 60, "duration": 130, "velocity": 115}, {"time": 171610, "pitch": 65, "duration": 130, "velocity": 120}, {"time": 171740, "pitch": 60, "duration": 110, "velocity": 110}, {"time": 171740, "pitch": 65, "duration": 110, "velocity": 115}, {"time": 171750, "pitch": 50, "duration": 90, "velocity": 100}, {"time": 171750, "pitch": 56, "duration": 90, "velocity": 105}, {"time": 171840, "pitch": 50, "duration": 940, "velocity": 105}, {"time": 171840, "pitch": 56, "duration": 940, "velocity": 110}, {"time": 171850, "pitch": 60, "duration": 930, "velocity": 115}, {"time": 171850, "pitch": 65, "duration": 930, "velocity": 120}, {"time": 172800, "pitch": 50, "duration": 480, "velocity": 95}, {"time": 172800, "pitch": 57, "duration": 480, "velocity": 100}, {"time": 172810, "pitch": 60, "duration": 480, "velocity": 105}, {"time": 172810, "pitch": 65, "duration": 480, "velocity": 110}, {"time": 173280, "pitch": 50, "duration": 250, "velocity": 95}, {"time": 173280, "pitch": 57, "duration": 250, "velocity": 100}, {"time": 173290, "pitch": 60, "duration": 230, "velocity": 105}, {"time": 173290, "pitch": 65, "duration": 230, "velocity": 110}, {"time": 173520, "pitch": 60, "duration": 250, "velocity": 95}, {"time": 173520, "pitch": 65, "duration": 250, "velocity": 100}, {"time": 173530, "pitch": 50, "duration": 230, "velocity": 85}, {"time": 173530, "pitch": 57, "duration": 230, "velocity": 90}, {"time": 173760, "pitch": 50, "duration": 250, "velocity": 95}, {"time": 173760, "pitch": 57, "duration": 250, "velocity": 100}, {"time": 173770, "pitch": 60, "duration": 230, "velocity": 105}, {"time": 173770, "pitch": 65, "duration": 230, "velocity": 110}, {"time": 174000, "pitch": 60, "duration": 250, "velocity": 95}, {"time": 174000, "pitch": 65, "duration": 250, "velocity": 100}, {"time": 174010, "pitch": 50, "duration": 230, "velocity": 85}, {"time": 174010, "pitch": 57, "duration": 230, "velocity": 90}, {"time": 174240, "pitch": 50, "duration": 250, "velocity": 105}, {"time": 174240, "pitch": 57, "duration": 250, "velocity": 110}, {"time": 174250, "pitch": 60, "duration": 230, "velocity": 115}, {"time": 174250, "pitch": 65, "duration": 230, "velocity": 120}, {"time": 174480, "pitch": 60, "duration": 150, "velocity": 95}, {"time": 174480, "pitch": 65, "duration": 150, "velocity": 100}, {"time": 174490, "pitch": 50, "duration": 130, "velocity": 85}, {"time": 174490, "pitch": 57, "duration": 130, "velocity": 90}, {"time": 174720, "pitch": 53, "duration": 480, "velocity": 95}, {"time": 174720, "pitch": 56, "duration": 480, "velocity": 100}, {"time": 174730, "pitch": 60, "duration": 480, "velocity": 105}, {"time": 174730, "pitch": 65, "duration": 480, "velocity": 110}, {"time": 175200, "pitch": 53, "duration": 250, "velocity": 95}, {"time": 175200, "pitch": 56, "duration": 250, "velocity": 100}, {"time": 175210, "pitch": 60, "duration": 230, "velocity": 105}, {"time": 175210, "pitch": 65, "duration": 230, "velocity": 110}, {"time": 175440, "pitch": 60, "duration": 250, "velocity": 95}, {"time": 175440, "pitch": 65, "duration": 250, "velocity": 100}, {"time": 175450, "pitch": 53, "duration": 230, "velocity": 85}, {"time": 175450, "pitch": 56, "duration": 230, "velocity": 90}, {"time": 175680, "pitch": 53, "duration": 250, "velocity": 95}, {"time": 175680, "pitch": 56, "duration": 250, "velocity": 100}, {"time": 175690, "pitch": 60, "duration": 230, "velocity": 105}, {"time": 175690, "pitch": 65, "duration": 230, "velocity": 110}, {"time": 175920, "pitch": 60, "duration": 250, "velocity": 95}, {"time": 175920, "pitch": 65, "duration": 250, "velocity": 100}, {"time": 175930, "pitch": 53, "duration": 230, "velocity": 85}, {"time": 175930, "pitch": 56, "duration": 230, "velocity": 90}, {"time": 176160, "pitch": 53, "duration": 250, "velocity": 105}, {"time": 176160, "pitch": 56, "duration": 250, "velocity": 110}, {"time": 176170, "pitch": 60, "duration": 230, "velocity": 115}, {"time": 176170, "pitch": 65, "duration": 230, "velocity": 120}, {"time": 176400, "pitch": 60, "duration": 150, "velocity": 95}, {"time": 176400, "pitch": 65, "duration": 150, "velocity": 100}, {"time": 176410, "pitch": 53, "duration": 130, "velocity": 85}, {"time": 176410, "pitch": 56, "duration": 130, "velocity": 90}, {"time": 176640, "pitch": 52, "duration": 480, "velocity": 95}, {"time": 176640, "pitch": 55, "duration": 480, "velocity": 100}, {"time": 176650, "pitch": 60, "duration": 480, "velocity": 105}, {"time": 176650, "pitch": 64, "duration": 480, "velocity": 110}, {"time": 177120, "pitch": 52, "duration": 250, "velocity": 95}, {"time": 177120, "pitch": 55, "duration": 250, "velocity": 100}, {"time": 177130, "pitch": 60, "duration": 230, "velocity": 105}, {"time": 177130, "pitch": 64, "duration": 230, "velocity": 110}, {"time": 177360, "pitch": 60, "duration": 250, "velocity": 95}, {"time": 177360, "pitch": 64, "duration": 250, "velocity": 100}, {"time": 177370, "pitch": 52, "duration": 230, "velocity": 85}, {"time": 177370, "pitch": 55, "duration": 230, "velocity": 90}, {"time": 177600, "pitch": 52, "duration": 250, "velocity": 95}, {"time": 177600, "pitch": 55, "duration": 250, "velocity": 100}, {"time": 177610, "pitch": 60, "duration": 230, "velocity": 105}, {"time": 177610, "pitch": 64, "duration": 230, "velocity": 110}, {"time": 177840, "pitch": 60, "duration": 220, "velocity": 95}, {"time": 177840, "pitch": 64, "duration": 220, "velocity": 100}, {"time": 177850, "pitch": 52, "duration": 210, "velocity": 85}, {"time": 177850, "pitch": 55, "duration": 210, "velocity": 90}, {"time": 178080, "pitch": 53, "duration": 460, "velocity": 105}, {"time": 178080, "pitch": 57, "duration": 460, "velocity": 110}, {"time": 178090, "pitch": 60, "duration": 450, "velocity": 115}, {"time": 178090, "pitch": 65, "duration": 450, "velocity": 120}, {"time": 178560, "pitch": 52, "duration": 480, "velocity": 95}, {"time": 178560, "pitch": 55, "duration": 480, "velocity": 100}, {"time": 178570, "pitch": 60, "duration": 480, "velocity": 105}, {"time": 178570, "pitch": 64, "duration": 480, "velocity": 110}, {"time": 179040, "pitch": 52, "duration": 250, "velocity": 95}, {"time": 179040, "pitch": 55, "duration": 250, "velocity": 100}, {"time": 179050, "pitch": 60, "duration": 230, "velocity": 105}, {"time": 179050, "pitch": 64, "duration": 230, "velocity": 110}, {"time": 179280, "pitch": 60, "duration": 250, "velocity": 95}, {"time": 179280, "pitch": 64, "duration": 250, "velocity": 100}, {"time": 179290, "pitch": 52, "duration": 230, "velocity": 85}, {"time": 179290, "pitch": 55, "duration": 230, "velocity": 90}, {"time": 179520, "pitch": 52, "duration": 250, "velocity": 95}, {"time": 179520, "pitch": 55, "duration": 250, "velocity": 100}, {"time": 179530, "pitch": 60, "duration": 230, "velocity": 105}, {"time": 179530, "pitch": 64, "duration": 230, "velocity": 110}, {"time": 179760, "pitch": 60, "duration": 250, "velocity": 95}, {"time": 179760, "pitch": 64, "duration": 250, "velocity": 100}, {"time": 179770, "pitch": 52, "duration": 230, "velocity": 85}, {"time": 179770, "pitch": 55, "duration": 230, "velocity": 90}, {"time": 180000, "pitch": 52, "duration": 250, "velocity": 105}, {"time": 180000, "pitch": 55, "duration": 250, "velocity": 110}, {"time": 180010, "pitch": 60, "duration": 230, "velocity": 115}, {"time": 180010, "pitch": 64, "duration": 230, "velocity": 120}, {"time": 180240, "pitch": 60, "duration": 150, "velocity": 95}, {"time": 180240, "pitch": 64, "duration": 150, "velocity": 100}, {"time": 180250, "pitch": 52, "duration": 130, "velocity": 85}, {"time": 180250, "pitch": 55, "duration": 130, "velocity": 90}, {"time": 180480, "pitch": 50, "duration": 250, "velocity": 95}, {"time": 180480, "pitch": 57, "duration": 250, "velocity": 100}, {"time": 180490, "pitch": 60, "duration": 230, "velocity": 105}, {"time": 180490, "pitch": 65, "duration": 230, "velocity": 110}, {"time": 180720, "pitch": 60, "duration": 250, "velocity": 95}, {"time": 180720, "pitch": 65, "duration": 250, "velocity": 100}, {"time": 180730, "pitch": 50, "duration": 230, "velocity": 85}, {"time": 180730, "pitch": 57, "duration": 230, "velocity": 90}, {"time": 180960, "pitch": 50, "duration": 250, "velocity": 105}, {"time": 180960, "pitch": 57, "duration": 250, "velocity": 110}, {"time": 180970, "pitch": 60, "duration": 230, "velocity": 115}, {"time": 180970, "pitch": 65, "duration": 230, "velocity": 120}, {"time": 181200, "pitch": 60, "duration": 150, "velocity": 95}, {"time": 181200, "pitch": 65, "duration": 150, "velocity": 100}, {"time": 181210, "pitch": 50, "duration": 130, "velocity": 85}, {"time": 181210, "pitch": 57, "duration": 130, "velocity": 90}, {"time": 181440, "pitch": 50, "duration": 250, "velocity": 95}, {"time": 181440, "pitch": 55, "duration": 250, "velocity": 100}, {"time": 181450, "pitch": 59, "duration": 230, "velocity": 105}, {"time": 181450, "pitch": 64, "duration": 230, "velocity": 110}, {"time": 181680, "pitch": 59, "duration": 250, "velocity": 95}, {"time": 181680, "pitch": 64, "duration": 250, "velocity": 100}, {"time": 181690, "pitch": 50, "duration": 230, "velocity": 85}, {"time": 181690, "pitch": 55, "duration": 230, "velocity": 90}, {"time": 181920, "pitch": 50, "duration": 250, "velocity": 105}, {"time": 181920, "pitch": 55, "duration": 250, "velocity": 110}, {"time": 181930, "pitch": 59, "duration": 230, "velocity": 115}, {"time": 181930, "pitch": 64, "duration": 230, "velocity": 120}, {"time": 182160, "pitch": 59, "duration": 150, "velocity": 95}, {"time": 182160, "pitch": 64, "duration": 150, "velocity": 100}, {"time": 182170, "pitch": 50, "duration": 130, "velocity": 85}, {"time": 182170, "pitch": 55, "duration": 130, "velocity": 90}, {"time": 182400, "pitch": 53, "duration": 250, "velocity": 95}, {"time": 182400, "pitch": 57, "duration": 250, "velocity": 100}, {"time": 182410, "pitch": 60, "duration": 230, "velocity": 105}, {"time": 182410, "pitch": 65, "duration": 230, "velocity": 110}, {"time": 182640, "pitch": 60, "duration": 250, "velocity": 95}, {"time": 182640, "pitch": 65, "duration": 250, "velocity": 100}, {"time": 182650, "pitch": 53, "duration": 230, "velocity": 85}, {"time": 182650, "pitch": 57, "duration": 230, "velocity": 90}, {"time": 182880, "pitch": 53, "duration": 250, "velocity": 105}, {"time": 182880, "pitch": 57, "duration": 250, "velocity": 110}, {"time": 182890, "pitch": 60, "duration": 230, "velocity": 115}, {"time": 182890, "pitch": 65, "duration": 230, "velocity": 120}, {"time": 183120, "pitch": 60, "duration": 250, "velocity": 95}, {"time": 183120, "pitch": 65, "duration": 250, "velocity": 100}, {"time": 183130, "pitch": 53, "duration": 230, "velocity": 85}, {"time": 183130, "pitch": 57, "duration": 230, "velocity": 90}, {"time": 183360, "pitch": 53, "duration": 250, "velocity": 95}, {"time": 183360, "pitch": 57, "duration": 250, "velocity": 100}, {"time": 183370, "pitch": 60, "duration": 230, "velocity": 105}, {"time": 183370, "pitch": 65, "duration": 230, "velocity": 110}, {"time": 183600, "pitch": 60, "duration": 250, "velocity": 95}, {"time": 183600, "pitch": 65, "duration": 250, "velocity": 100}, {"time": 183610, "pitch": 53, "duration": 230, "velocity": 85}, {"time": 183610, "pitch": 57, "duration": 230, "velocity": 90}, {"time": 183840, "pitch": 53, "duration": 250, "velocity": 105}, {"time": 183840, "pitch": 57, "duration": 250, "velocity": 110}, {"time": 183850, "pitch": 60, "duration": 230, "velocity": 115}, {"time": 183850, "pitch": 65, "duration": 230, "velocity": 120}, {"time": 184080, "pitch": 60, "duration": 150, "velocity": 95}, {"time": 184080, "pitch": 65, "duration": 150, "velocity": 100}, {"time": 184090, "pitch": 53, "duration": 130, "velocity": 85}, {"time": 184090, "pitch": 57, "duration": 130, "velocity": 90}, {"time": 184320, "pitch": 53, "duration": 495, "velocity": 95}, {"time": 184320, "pitch": 56, "duration": 495, "velocity": 100}, {"time": 184330, "pitch": 62, "duration": 509, "velocity": 105}, {"time": 184330, "pitch": 65, "duration": 509, "velocity": 110}, {"time": 184815, "pitch": 53, "duration": 476, "velocity": 95}, {"time": 184815, "pitch": 56, "duration": 476, "velocity": 100}, {"time": 184839, "pitch": 62, "duration": 448, "velocity": 105}, {"time": 184839, "pitch": 65, "duration": 448, "velocity": 110}, {"time": 185287, "pitch": 62, "duration": 87, "velocity": 95}, {"time": 185287, "pitch": 65, "duration": 87, "velocity": 100}, {"time": 185291, "pitch": 53, "duration": 79, "velocity": 85}, {"time": 185291, "pitch": 56, "duration": 79, "velocity": 90}, {"time": 185370, "pitch": 53, "duration": 107, "velocity": 95}, {"time": 185370, "pitch": 56, "duration": 107, "velocity": 100}, {"time": 185374, "pitch": 62, "duration": 97, "velocity": 105}, {"time": 185374, "pitch": 65, "duration": 97, "velocity": 110}, {"time": 185471, "pitch": 62, "duration": 131, "velocity": 95}, {"time": 185471, "pitch": 65, "duration": 131, "velocity": 100}, {"time": 185477, "pitch": 53, "duration": 118, "velocity": 85}, {"time": 185477, "pitch": 56, "duration": 118, "velocity": 90}, {"time": 185595, "pitch": 53, "duration": 612, "velocity": 105}, {"time": 185602, "pitch": 56, "duration": 605, "velocity": 110}, {"time": 185610, "pitch": 62, "duration": 597, "velocity": 115}, {"time": 185618, "pitch": 65, "duration": 589, "velocity": 120}, {"time": 186244, "pitch": 52, "duration": 2872, "velocity": 95}, {"time": 186256, "pitch": 55, "duration": 2860, "velocity": 100}, {"time": 186266, "pitch": 60, "duration": 2850, "velocity": 105}, {"time": 186276, "pitch": 64, "duration": 2840, "velocity": 110}, {"time": 322, "pitch": 55, "duration": 49, "velocity": 95}, {"time": 322, "pitch": 60, "duration": 49, "velocity": 100}, {"time": 325, "pitch": 64, "duration": 43, "velocity": 105}, {"time": 325, "pitch": 67, "duration": 43, "velocity": 110}, {"time": 368, "pitch": 64, "duration": 3, "velocity": 60}, {"time": 368, "pitch": 67, "duration": 3, "velocity": 65}, {"time": 371, "pitch": 55, "duration": 4, "velocity": 50}, {"time": 371, "pitch": 60, "duration": 4, "velocity": 55}, {"time": 401, "pitch": 55, "duration": 79, "velocity": 95}, {"time": 401, "pitch": 60, "duration": 79, "velocity": 100}, {"time": 404, "pitch": 64, "duration": 86, "velocity": 105}, {"time": 404, "pitch": 67, "duration": 86, "velocity": 110}, {"time": 480, "pitch": 55, "duration": 10, "velocity": 85}, {"time": 480, "pitch": 60, "duration": 10, "velocity": 90}, {"time": 490, "pitch": 64, "duration": 10, "velocity": 95}, {"time": 490, "pitch": 67, "duration": 10, "velocity": 100}, {"time": 620, "pitch": 64, "duration": 240, "velocity": 105}, {"time": 620, "pitch": 67, "duration": 240, "velocity": 110}, {"time": 630, "pitch": 55, "duration": 240, "velocity": 95}, {"time": 630, "pitch": 60, "duration": 240, "velocity": 100}, {"time": 860, "pitch": 64, "duration": 110, "velocity": 100}, {"time": 860, "pitch": 67, "duration": 110, "velocity": 105}, {"time": 870, "pitch": 55, "duration": 90, "velocity": 90}, {"time": 870, "pitch": 60, "duration": 90, "velocity": 95}, {"time": 960, "pitch": 55, "duration": 150, "velocity": 95}, {"time": 960, "pitch": 60, "duration": 150, "velocity": 100}, {"time": 970, "pitch": 64, "duration": 130, "velocity": 105}, {"time": 970, "pitch": 67, "duration": 130, "velocity": 110}, {"time": 1100, "pitch": 64, "duration": 10, "velocity": 60}, {"time": 1100, "pitch": 67, "duration": 10, "velocity": 65}, {"time": 1110, "pitch": 55, "duration": 10, "velocity": 50}, {"time": 1110, "pitch": 60, "duration": 10, "velocity": 55}, {"time": 1200, "pitch": 55, "duration": 240, "velocity": 95}, {"time": 1200, "pitch": 60, "duration": 240, "velocity": 100}, {"time": 1210, "pitch": 64, "duration": 240, "velocity": 105}, {"time": 1210, "pitch": 67, "duration": 240, "velocity": 110}, {"time": 1440, "pitch": 55, "duration": 10, "velocity": 85}, {"time": 1440, "pitch": 60, "duration": 10, "velocity": 90}, {"time": 1450, "pitch": 64, "duration": 10, "velocity": 95}, {"time": 1450, "pitch": 67, "duration": 10, "velocity": 100}, {"time": 1580, "pitch": 64, "duration": 240, "velocity": 105}, {"time": 1580, "pitch": 67, "duration": 240, "velocity": 110}, {"time": 1590, "pitch": 55, "duration": 240, "velocity": 95}, {"time": 1590, "pitch": 60, "duration": 240, "velocity": 100}, {"time": 1820, "pitch": 64, "duration": 110, "velocity": 100}, {"time": 1820, "pitch": 67, "duration": 110, "velocity": 105}, {"time": 1830, "pitch": 55, "duration": 90, "velocity": 90}, {"time": 1830, "pitch": 60, "duration": 90, "velocity": 95}, {"time": 1920, "pitch": 55, "duration": 150, "velocity": 95}, {"time": 1920, "pitch": 59, "duration": 150, "velocity": 100}, {"time": 1930, "pitch": 62, "duration": 130, "velocity": 105}, {"time": 1930, "pitch": 67, "duration": 130, "velocity": 110}, {"time": 2060, "pitch": 62, "duration": 10, "velocity": 60}, {"time": 2060, "pitch": 67, "duration": 10, "velocity": 65}, {"time": 2070, "pitch": 55, "duration": 10, "velocity": 50}, {"time": 2070, "pitch": 59, "duration": 10, "velocity": 55}, {"time": 2160, "pitch": 55, "duration": 240, "velocity": 95}, {"time": 2160, "pitch": 59, "duration": 240, "velocity": 100}, {"time": 2170, "pitch": 62, "duration": 240, "velocity": 105}, {"time": 2170, "pitch": 67, "duration": 240, "velocity": 110}, {"time": 2400, "pitch": 55, "duration": 10, "velocity": 85}, {"time": 2400, "pitch": 59, "duration": 10, "velocity": 90}, {"time": 2410, "pitch": 62, "duration": 10, "velocity": 95}, {"time": 2410, "pitch": 67, "duration": 10, "velocity": 100}, {"time": 2540, "pitch": 62, "duration": 240, "velocity": 105}, {"time": 2540, "pitch": 67, "duration": 240, "velocity": 110}, {"time": 2550, "pitch": 55, "duration": 240, "velocity": 95}, {"time": 2550, "pitch": 59, "duration": 240, "velocity": 100}, {"time": 2780, "pitch": 62, "duration": 110, "velocity": 100}, {"time": 2780, "pitch": 67, "duration": 110, "velocity": 105}, {"time": 2790, "pitch": 55, "duration": 90, "velocity": 90}, {"time": 2790, "pitch": 59, "duration": 90, "velocity": 95}, {"time": 2880, "pitch": 55, "duration": 150, "velocity": 95}, {"time": 2880, "pitch": 59, "duration": 150, "velocity": 100}, {"time": 2890, "pitch": 62, "duration": 130, "velocity": 105}, {"time": 2890, "pitch": 67, "duration": 130, "velocity": 110}, {"time": 3020, "pitch": 62, "duration": 10, "velocity": 60}, {"time": 3020, "pitch": 67, "duration": 10, "velocity": 65}, {"time": 3030, "pitch": 55, "duration": 10, "velocity": 50}, {"time": 3030, "pitch": 59, "duration": 10, "velocity": 55}, {"time": 3120, "pitch": 55, "duration": 240, "velocity": 95}, {"time": 3120, "pitch": 59, "duration": 240, "velocity": 100}, {"time": 3130, "pitch": 62, "duration": 240, "velocity": 105}, {"time": 3130, "pitch": 67, "duration": 240, "velocity": 110}, {"time": 3360, "pitch": 55, "duration": 10, "velocity": 85}, {"time": 3360, "pitch": 59, "duration": 10, "velocity": 90}, {"time": 3370, "pitch": 62, "duration": 10, "velocity": 95}, {"time": 3370, "pitch": 67, "duration": 10, "velocity": 100}, {"time": 3500, "pitch": 62, "duration": 240, "velocity": 105}, {"time": 3500, "pitch": 67, "duration": 240, "velocity": 110}, {"time": 3510, "pitch": 55, "duration": 240, "velocity": 95}, {"time": 3510, "pitch": 59, "duration": 240, "velocity": 100}, {"time": 3740, "pitch": 62, "duration": 80, "velocity": 100}, {"time": 3740, "pitch": 67, "duration": 80, "velocity": 105}, {"time": 3750, "pitch": 55, "duration": 70, "velocity": 90}, {"time": 3750, "pitch": 59, "duration": 70, "velocity": 95}, {"time": 3840, "pitch": 57, "duration": 150, "velocity": 95}, {"time": 3840, "pitch": 60, "duration": 150, "velocity": 100}, {"time": 3850, "pitch": 64, "duration": 130, "velocity": 105}, {"time": 3850, "pitch": 67, "duration": 130, "velocity": 110}, {"time": 3980, "pitch": 64, "duration": 10, "velocity": 60}, {"time": 3980, "pitch": 67, "duration": 10, "velocity": 65}, {"time": 3990, "pitch": 57, "duration": 10, "velocity": 50}, {"time": 3990, "pitch": 60, "duration": 10, "velocity": 55}, {"time": 4080, "pitch": 57, "duration": 240, "velocity": 95}, {"time": 4080, "pitch": 60, "duration": 240, "velocity": 100}, {"time": 4090, "pitch": 64, "duration": 240, "velocity": 105}, {"time": 4090, "pitch": 67, "duration": 240, "velocity": 110}, {"time": 4320, "pitch": 57, "duration": 10, "velocity": 85}, {"time": 4320, "pitch": 60, "duration": 10, "velocity": 90}, {"time": 4330, "pitch": 64, "duration": 10, "velocity": 95}, {"time": 4330, "pitch": 67, "duration": 10, "velocity": 100}, {"time": 4460, "pitch": 64, "duration": 240, "velocity": 105}, {"time": 4460, "pitch": 67, "duration": 240, "velocity": 110}, {"time": 4470, "pitch": 57, "duration": 240, "velocity": 95}, {"time": 4470, "pitch": 60, "duration": 240, "velocity": 100}, {"time": 4700, "pitch": 64, "duration": 110, "velocity": 100}, {"time": 4700, "pitch": 67, "duration": 110, "velocity": 105}, {"time": 4710, "pitch": 57, "duration": 90, "velocity": 90}, {"time": 4710, "pitch": 60, "duration": 90, "velocity": 95}, {"time": 4800, "pitch": 57, "duration": 150, "velocity": 95}, {"time": 4800, "pitch": 60, "duration": 150, "velocity": 100}, {"time": 4810, "pitch": 64, "duration": 130, "velocity": 105}, {"time": 4810, "pitch": 67, "duration": 130, "velocity": 110}, {"time": 4940, "pitch": 64, "duration": 10, "velocity": 60}, {"time": 4940, "pitch": 67, "duration": 10, "velocity": 65}, {"time": 4950, "pitch": 57, "duration": 10, "velocity": 50}, {"time": 4950, "pitch": 60, "duration": 10, "velocity": 55}, {"time": 5040, "pitch": 57, "duration": 240, "velocity": 95}, {"time": 5040, "pitch": 60, "duration": 240, "velocity": 100}, {"time": 5050, "pitch": 64, "duration": 240, "velocity": 105}, {"time": 5050, "pitch": 67, "duration": 240, "velocity": 110}, {"time": 5280, "pitch": 57, "duration": 10, "velocity": 85}, {"time": 5280, "pitch": 60, "duration": 10, "velocity": 90}, {"time": 5290, "pitch": 64, "duration": 10, "velocity": 95}, {"time": 5290, "pitch": 67, "duration": 10, "velocity": 100}, {"time": 5420, "pitch": 64, "duration": 240, "velocity": 105}, {"time": 5420, "pitch": 67, "duration": 240, "velocity": 110}, {"time": 5430, "pitch": 57, "duration": 240, "velocity": 95}, {"time": 5430, "pitch": 60, "duration": 240, "velocity": 100}, {"time": 5660, "pitch": 64, "duration": 80, "velocity": 100}, {"time": 5660, "pitch": 67, "duration": 80, "velocity": 105}, {"time": 5670, "pitch": 57, "duration": 70, "velocity": 90}, {"time": 5670, "pitch": 60, "duration": 70, "velocity": 95}, {"time": 5760, "pitch": 55, "duration": 150, "velocity": 95}, {"time": 5760, "pitch": 62, "duration": 150, "velocity": 100}, {"time": 5770, "pitch": 64, "duration": 130, "velocity": 105}, {"time": 5770, "pitch": 71, "duration": 130, "velocity": 110}, {"time": 5900, "pitch": 64, "duration": 10, "velocity": 60}, {"time": 5900, "pitch": 71, "duration": 10, "velocity": 65}, {"time": 5910, "pitch": 55, "duration": 10, "velocity": 50}, {"time": 5910, "pitch": 62, "duration": 10, "velocity": 55}, {"time": 6000, "pitch": 55, "duration": 240, "velocity": 95}, {"time": 6000, "pitch": 62, "duration": 240, "velocity": 100}, {"time": 6010, "pitch": 64, "duration": 240, "velocity": 105}, {"time": 6010, "pitch": 71, "duration": 240, "velocity": 110}, {"time": 6240, "pitch": 55, "duration": 10, "velocity": 85}, {"time": 6240, "pitch": 62, "duration": 10, "velocity": 90}, {"time": 6250, "pitch": 64, "duration": 10, "velocity": 95}, {"time": 6250, "pitch": 71, "duration": 10, "velocity": 100}, {"time": 6380, "pitch": 64, "duration": 240, "velocity": 105}, {"time": 6380, "pitch": 71, "duration": 240, "velocity": 110}, {"time": 6390, "pitch": 55, "duration": 240, "velocity": 95}, {"time": 6390, "pitch": 62, "duration": 240, "velocity": 100}, {"time": 6620, "pitch": 64, "duration": 110, "velocity": 100}, {"time": 6620, "pitch": 71, "duration": 110, "velocity": 105}, {"time": 6630, "pitch": 55, "duration": 90, "velocity": 90}, {"time": 6630, "pitch": 62, "duration": 90, "velocity": 95}, {"time": 6720, "pitch": 55, "duration": 150, "velocity": 95}, {"time": 6720, "pitch": 62, "duration": 150, "velocity": 100}, {"time": 6730, "pitch": 64, "duration": 130, "velocity": 105}, {"time": 6730, "pitch": 71, "duration": 130, "velocity": 110}, {"time": 6860, "pitch": 64, "duration": 10, "velocity": 60}, {"time": 6860, "pitch": 71, "duration": 10, "velocity": 65}, {"time": 6870, "pitch": 55, "duration": 10, "velocity": 50}, {"time": 6870, "pitch": 62, "duration": 10, "velocity": 55}, {"time": 6960, "pitch": 55, "duration": 240, "velocity": 95}, {"time": 6960, "pitch": 62, "duration": 240, "velocity": 100}, {"time": 6970, "pitch": 64, "duration": 240, "velocity": 105}, {"time": 6970, "pitch": 71, "duration": 240, "velocity": 110}, {"time": 7200, "pitch": 55, "duration": 10, "velocity": 85}, {"time": 7200, "pitch": 62, "duration": 10, "velocity": 90}, {"time": 7210, "pitch": 64, "duration": 10, "velocity": 95}, {"time": 7210, "pitch": 71, "duration": 10, "velocity": 100}, {"time": 7340, "pitch": 64, "duration": 240, "velocity": 105}, {"time": 7340, "pitch": 71, "duration": 240, "velocity": 110}, {"time": 7350, "pitch": 55, "duration": 240, "velocity": 95}, {"time": 7350, "pitch": 62, "duration": 240, "velocity": 100}, {"time": 7580, "pitch": 64, "duration": 80, "velocity": 100}, {"time": 7580, "pitch": 71, "duration": 80, "velocity": 105}, {"time": 7590, "pitch": 55, "duration": 70, "velocity": 90}, {"time": 7590, "pitch": 62, "duration": 70, "velocity": 95}, {"time": 7680, "pitch": 53, "duration": 150, "velocity": 95}, {"time": 7680, "pitch": 60, "duration": 150, "velocity": 100}, {"time": 7690, "pitch": 62, "duration": 130, "velocity": 105}, {"time": 7690, "pitch": 69, "duration": 130, "velocity": 110}, {"time": 7820, "pitch": 62, "duration": 10, "velocity": 60}, {"time": 7820, "pitch": 69, "duration": 10, "velocity": 65}, {"time": 7830, "pitch": 53, "duration": 10, "velocity": 50}, {"time": 7830, "pitch": 60, "duration": 10, "velocity": 55}, {"time": 7920, "pitch": 53, "duration": 240, "velocity": 95}, {"time": 7920, "pitch": 60, "duration": 240, "velocity": 100}, {"time": 7930, "pitch": 62, "duration": 240, "velocity": 105}, {"time": 7930, "pitch": 69, "duration": 240, "velocity": 110}, {"time": 8160, "pitch": 53, "duration": 10, "velocity": 85}, {"time": 8160, "pitch": 60, "duration": 10, "velocity": 90}, {"time": 8170, "pitch": 62, "duration": 10, "velocity": 95}, {"time": 8170, "pitch": 69, "duration": 10, "velocity": 100}, {"time": 8300, "pitch": 62, "duration": 240, "velocity": 105}, {"time": 8300, "pitch": 69, "duration": 240, "velocity": 110}, {"time": 8310, "pitch": 53, "duration": 240, "velocity": 95}, {"time": 8310, "pitch": 60, "duration": 240, "velocity": 100}, {"time": 8540, "pitch": 62, "duration": 110, "velocity": 100}, {"time": 8540, "pitch": 69, "duration": 110, "velocity": 105}, {"time": 8550, "pitch": 53, "duration": 90, "velocity": 90}, {"time": 8550, "pitch": 60, "duration": 90, "velocity": 95}, {"time": 8640, "pitch": 53, "duration": 150, "velocity": 95}, {"time": 8640, "pitch": 60, "duration": 150, "velocity": 100}, {"time": 8650, "pitch": 62, "duration": 130, "velocity": 105}, {"time": 8650, "pitch": 69, "duration": 130, "velocity": 110}, {"time": 8780, "pitch": 62, "duration": 10, "velocity": 60}, {"time": 8780, "pitch": 69, "duration": 10, "velocity": 65}, {"time": 8790, "pitch": 53, "duration": 10, "velocity": 50}, {"time": 8790, "pitch": 60, "duration": 10, "velocity": 55}, {"time": 8880, "pitch": 53, "duration": 240, "velocity": 95}, {"time": 8880, "pitch": 60, "duration": 240, "velocity": 100}, {"time": 8890, "pitch": 62, "duration": 240, "velocity": 105}, {"time": 8890, "pitch": 69, "duration": 240, "velocity": 110}, {"time": 9120, "pitch": 53, "duration": 10, "velocity": 85}, {"time": 9120, "pitch": 60, "duration": 10, "velocity": 90}, {"time": 9130, "pitch": 62, "duration": 10, "velocity": 95}, {"time": 9130, "pitch": 69, "duration": 10, "velocity": 100}, {"time": 9260, "pitch": 62, "duration": 240, "velocity": 105}, {"time": 9260, "pitch": 69, "duration": 240, "velocity": 110}, {"time": 9270, "pitch": 53, "duration": 240, "velocity": 95}, {"time": 9270, "pitch": 60, "duration": 240, "velocity": 100}, {"time": 9500, "pitch": 62, "duration": 80, "velocity": 100}, {"time": 9500, "pitch": 69, "duration": 80, "velocity": 105}, {"time": 9510, "pitch": 53, "duration": 70, "velocity": 90}, {"time": 9510, "pitch": 60, "duration": 70, "velocity": 95}, {"time": 9600, "pitch": 57, "duration": 150, "velocity": 95}, {"time": 9600, "pitch": 60, "duration": 150, "velocity": 100}, {"time": 9610, "pitch": 64, "duration": 130, "velocity": 105}, {"time": 9610, "pitch": 67, "duration": 130, "velocity": 110}, {"time": 9740, "pitch": 64, "duration": 10, "velocity": 60}, {"time": 9740, "pitch": 67, "duration": 10, "velocity": 65}, {"time": 9750, "pitch": 57, "duration": 10, "velocity": 50}, {"time": 9750, "pitch": 60, "duration": 10, "velocity": 55}, {"time": 9840, "pitch": 57, "duration": 240, "velocity": 95}, {"time": 9840, "pitch": 60, "duration": 240, "velocity": 100}, {"time": 9850, "pitch": 64, "duration": 240, "velocity": 105}, {"time": 9850, "pitch": 67, "duration": 240, "velocity": 110}, {"time": 10080, "pitch": 57, "duration": 10, "velocity": 85}, {"time": 10080, "pitch": 60, "duration": 10, "velocity": 90}, {"time": 10090, "pitch": 64, "duration": 10, "velocity": 95}, {"time": 10090, "pitch": 67, "duration": 10, "velocity": 100}, {"time": 10220, "pitch": 64, "duration": 240, "velocity": 105}, {"time": 10220, "pitch": 67, "duration": 240, "velocity": 110}, {"time": 10230, "pitch": 57, "duration": 240, "velocity": 95}, {"time": 10230, "pitch": 60, "duration": 240, "velocity": 100}, {"time": 10460, "pitch": 64, "duration": 110, "velocity": 100}, {"time": 10460, "pitch": 67, "duration": 110, "velocity": 105}, {"time": 10470, "pitch": 57, "duration": 90, "velocity": 90}, {"time": 10470, "pitch": 60, "duration": 90, "velocity": 95}, {"time": 10560, "pitch": 57, "duration": 150, "velocity": 95}, {"time": 10560, "pitch": 60, "duration": 150, "velocity": 100}, {"time": 10570, "pitch": 64, "duration": 130, "velocity": 105}, {"time": 10570, "pitch": 67, "duration": 130, "velocity": 110}, {"time": 10700, "pitch": 64, "duration": 10, "velocity": 60}, {"time": 10700, "pitch": 67, "duration": 10, "velocity": 65}, {"time": 10710, "pitch": 57, "duration": 10, "velocity": 50}, {"time": 10710, "pitch": 60, "duration": 10, "velocity": 55}, {"time": 10800, "pitch": 57, "duration": 240, "velocity": 95}, {"time": 10800, "pitch": 60, "duration": 240, "velocity": 100}, {"time": 10810, "pitch": 64, "duration": 240, "velocity": 105}, {"time": 10810, "pitch": 67, "duration": 240, "velocity": 110}, {"time": 11040, "pitch": 57, "duration": 10, "velocity": 85}, {"time": 11040, "pitch": 60, "duration": 10, "velocity": 90}, {"time": 11050, "pitch": 64, "duration": 10, "velocity": 95}, {"time": 11050, "pitch": 67, "duration": 10, "velocity": 100}, {"time": 11180, "pitch": 64, "duration": 240, "velocity": 105}, {"time": 11180, "pitch": 67, "duration": 240, "velocity": 110}, {"time": 11190, "pitch": 57, "duration": 240, "velocity": 95}, {"time": 11190, "pitch": 60, "duration": 240, "velocity": 100}, {"time": 11420, "pitch": 64, "duration": 80, "velocity": 100}, {"time": 11420, "pitch": 67, "duration": 80, "velocity": 105}, {"time": 11430, "pitch": 57, "duration": 70, "velocity": 90}, {"time": 11430, "pitch": 60, "duration": 70, "velocity": 95}, {"time": 11520, "pitch": 53, "duration": 150, "velocity": 95}, {"time": 11520, "pitch": 60, "duration": 150, "velocity": 100}, {"time": 11530, "pitch": 62, "duration": 130, "velocity": 105}, {"time": 11530, "pitch": 68, "duration": 130, "velocity": 110}, {"time": 11660, "pitch": 62, "duration": 10, "velocity": 60}, {"time": 11660, "pitch": 68, "duration": 10, "velocity": 65}, {"time": 11670, "pitch": 53, "duration": 10, "velocity": 50}, {"time": 11670, "pitch": 60, "duration": 10, "velocity": 55}, {"time": 11760, "pitch": 53, "duration": 240, "velocity": 95}, {"time": 11760, "pitch": 60, "duration": 240, "velocity": 100}, {"time": 11770, "pitch": 62, "duration": 240, "velocity": 105}, {"time": 11770, "pitch": 68, "duration": 240, "velocity": 110}, {"time": 12000, "pitch": 53, "duration": 10, "velocity": 85}, {"time": 12000, "pitch": 60, "duration": 10, "velocity": 90}, {"time": 12010, "pitch": 62, "duration": 10, "velocity": 95}, {"time": 12010, "pitch": 68, "duration": 10, "velocity": 100}, {"time": 12140, "pitch": 62, "duration": 240, "velocity": 105}, {"time": 12140, "pitch": 68, "duration": 240, "velocity": 110}, {"time": 12150, "pitch": 53, "duration": 240, "velocity": 95}, {"time": 12150, "pitch": 60, "duration": 240, "velocity": 100}, {"time": 12380, "pitch": 62, "duration": 110, "velocity": 100}, {"time": 12380, "pitch": 68, "duration": 110, "velocity": 105}, {"time": 12390, "pitch": 53, "duration": 90, "velocity": 90}, {"time": 12390, "pitch": 60, "duration": 90, "velocity": 95}, {"time": 12480, "pitch": 53, "duration": 150, "velocity": 95}, {"time": 12480, "pitch": 60, "duration": 150, "velocity": 100}, {"time": 12490, "pitch": 62, "duration": 130, "velocity": 105}, {"time": 12490, "pitch": 68, "duration": 130, "velocity": 110}, {"time": 12620, "pitch": 62, "duration": 10, "velocity": 60}, {"time": 12620, "pitch": 68, "duration": 10, "velocity": 65}, {"time": 12630, "pitch": 53, "duration": 10, "velocity": 50}, {"time": 12630, "pitch": 60, "duration": 10, "velocity": 55}, {"time": 12720, "pitch": 53, "duration": 240, "velocity": 95}, {"time": 12720, "pitch": 60, "duration": 240, "velocity": 100}, {"time": 12730, "pitch": 62, "duration": 240, "velocity": 105}, {"time": 12730, "pitch": 68, "duration": 240, "velocity": 110}, {"time": 12960, "pitch": 53, "duration": 10, "velocity": 85}, {"time": 12960, "pitch": 60, "duration": 10, "velocity": 90}, {"time": 12970, "pitch": 62, "duration": 10, "velocity": 95}, {"time": 12970, "pitch": 68, "duration": 10, "velocity": 100}, {"time": 13100, "pitch": 62, "duration": 240, "velocity": 105}, {"time": 13100, "pitch": 68, "duration": 240, "velocity": 110}, {"time": 13110, "pitch": 53, "duration": 240, "velocity": 95}, {"time": 13110, "pitch": 60, "duration": 240, "velocity": 100}, {"time": 13340, "pitch": 62, "duration": 80, "velocity": 100}, {"time": 13340, "pitch": 68, "duration": 80, "velocity": 105}, {"time": 13350, "pitch": 53, "duration": 70, "velocity": 90}, {"time": 13350, "pitch": 60, "duration": 70, "velocity": 95}, {"time": 13440, "pitch": 53, "duration": 150, "velocity": 95}, {"time": 13440, "pitch": 60, "duration": 150, "velocity": 100}, {"time": 13450, "pitch": 62, "duration": 130, "velocity": 105}, {"time": 13450, "pitch": 67, "duration": 130, "velocity": 110}, {"time": 13580, "pitch": 62, "duration": 10, "velocity": 60}, {"time": 13580, "pitch": 67, "duration": 10, "velocity": 65}, {"time": 13590, "pitch": 53, "duration": 10, "velocity": 50}, {"time": 13590, "pitch": 60, "duration": 10, "velocity": 55}, {"time": 13680, "pitch": 53, "duration": 240, "velocity": 95}, {"time": 13680, "pitch": 60, "duration": 240, "velocity": 100}, {"time": 13690, "pitch": 62, "duration": 240, "velocity": 105}, {"time": 13690, "pitch": 67, "duration": 240, "velocity": 110}, {"time": 13920, "pitch": 53, "duration": 10, "velocity": 85}, {"time": 13920, "pitch": 60, "duration": 10, "velocity": 90}, {"time": 13930, "pitch": 62, "duration": 10, "velocity": 95}, {"time": 13930, "pitch": 67, "duration": 10, "velocity": 100}, {"time": 14060, "pitch": 62, "duration": 240, "velocity": 105}, {"time": 14060, "pitch": 67, "duration": 240, "velocity": 110}, {"time": 14070, "pitch": 53, "duration": 240, "velocity": 95}, {"time": 14070, "pitch": 60, "duration": 240, "velocity": 100}, {"time": 14300, "pitch": 62, "duration": 110, "velocity": 100}, {"time": 14300, "pitch": 67, "duration": 110, "velocity": 105}, {"time": 14310, "pitch": 53, "duration": 90, "velocity": 90}, {"time": 14310, "pitch": 60, "duration": 90, "velocity": 95}, {"time": 14400, "pitch": 53, "duration": 150, "velocity": 95}, {"time": 14400, "pitch": 60, "duration": 150, "velocity": 100}, {"time": 14410, "pitch": 62, "duration": 130, "velocity": 105}, {"time": 14410, "pitch": 67, "duration": 130, "velocity": 110}, {"time": 14540, "pitch": 62, "duration": 10, "velocity": 60}, {"time": 14540, "pitch": 67, "duration": 10, "velocity": 65}, {"time": 14550, "pitch": 53, "duration": 10, "velocity": 50}, {"time": 14550, "pitch": 60, "duration": 10, "velocity": 55}, {"time": 14640, "pitch": 53, "duration": 240, "velocity": 95}, {"time": 14640, "pitch": 60, "duration": 240, "velocity": 100}, {"time": 14650, "pitch": 62, "duration": 240, "velocity": 105}, {"time": 14650, "pitch": 67, "duration": 240, "velocity": 110}, {"time": 14880, "pitch": 53, "duration": 10, "velocity": 85}, {"time": 14880, "pitch": 60, "duration": 10, "velocity": 90}, {"time": 14890, "pitch": 62, "duration": 10, "velocity": 95}, {"time": 14890, "pitch": 67, "duration": 10, "velocity": 100}, {"time": 15020, "pitch": 62, "duration": 240, "velocity": 105}, {"time": 15020, "pitch": 67, "duration": 240, "velocity": 110}, {"time": 15030, "pitch": 53, "duration": 240, "velocity": 95}, {"time": 15030, "pitch": 60, "duration": 240, "velocity": 100}, {"time": 15260, "pitch": 62, "duration": 80, "velocity": 100}, {"time": 15260, "pitch": 67, "duration": 80, "velocity": 105}, {"time": 15270, "pitch": 53, "duration": 70, "velocity": 90}, {"time": 15270, "pitch": 60, "duration": 70, "velocity": 95}, {"time": 15360, "pitch": 55, "duration": 150, "velocity": 95}, {"time": 15360, "pitch": 60, "duration": 150, "velocity": 100}, {"time": 15370, "pitch": 64, "duration": 130, "velocity": 105}, {"time": 15370, "pitch": 67, "duration": 130, "velocity": 110}, {"time": 15500, "pitch": 64, "duration": 10, "velocity": 60}, {"time": 15500, "pitch": 67, "duration": 10, "velocity": 65}, {"time": 15510, "pitch": 55, "duration": 10, "velocity": 50}, {"time": 15510, "pitch": 60, "duration": 10, "velocity": 55}, {"time": 15600, "pitch": 55, "duration": 240, "velocity": 95}, {"time": 15600, "pitch": 60, "duration": 240, "velocity": 100}, {"time": 15610, "pitch": 64, "duration": 240, "velocity": 105}, {"time": 15610, "pitch": 67, "duration": 240, "velocity": 110}, {"time": 15840, "pitch": 55, "duration": 10, "velocity": 85}, {"time": 15840, "pitch": 60, "duration": 10, "velocity": 90}, {"time": 15850, "pitch": 64, "duration": 10, "velocity": 95}, {"time": 15850, "pitch": 67, "duration": 10, "velocity": 100}, {"time": 15980, "pitch": 64, "duration": 240, "velocity": 105}, {"time": 15980, "pitch": 67, "duration": 240, "velocity": 110}, {"time": 15990, "pitch": 55, "duration": 240, "velocity": 95}, {"time": 15990, "pitch": 60, "duration": 240, "velocity": 100}, {"time": 16220, "pitch": 64, "duration": 110, "velocity": 100}, {"time": 16220, "pitch": 67, "duration": 110, "velocity": 105}, {"time": 16230, "pitch": 55, "duration": 90, "velocity": 90}, {"time": 16230, "pitch": 60, "duration": 90, "velocity": 95}, {"time": 16320, "pitch": 55, "duration": 150, "velocity": 95}, {"time": 16320, "pitch": 60, "duration": 150, "velocity": 100}, {"time": 16330, "pitch": 64, "duration": 130, "velocity": 105}, {"time": 16330, "pitch": 67, "duration": 130, "velocity": 110}, {"time": 16460, "pitch": 64, "duration": 10, "velocity": 60}, {"time": 16460, "pitch": 67, "duration": 10, "velocity": 65}, {"time": 16470, "pitch": 55, "duration": 10, "velocity": 50}, {"time": 16470, "pitch": 60, "duration": 10, "velocity": 55}, {"time": 16560, "pitch": 55, "duration": 240, "velocity": 95}, {"time": 16560, "pitch": 60, "duration": 240, "velocity": 100}, {"time": 16570, "pitch": 64, "duration": 240, "velocity": 105}, {"time": 16570, "pitch": 67, "duration": 240, "velocity": 110}, {"time": 16800, "pitch": 55, "duration": 10, "velocity": 85}, {"time": 16800, "pitch": 60, "duration": 10, "velocity": 90}, {"time": 16810, "pitch": 64, "duration": 10, "velocity": 95}, {"time": 16810, "pitch": 67, "duration": 10, "velocity": 100}, {"time": 16940, "pitch": 64, "duration": 240, "velocity": 105}, {"time": 16940, "pitch": 67, "duration": 240, "velocity": 110}, {"time": 16950, "pitch": 55, "duration": 240, "velocity": 95}, {"time": 16950, "pitch": 60, "duration": 240, "velocity": 100}, {"time": 17180, "pitch": 64, "duration": 110, "velocity": 100}, {"time": 17180, "pitch": 67, "duration": 110, "velocity": 105}, {"time": 17190, "pitch": 55, "duration": 90, "velocity": 90}, {"time": 17190, "pitch": 60, "duration": 90, "velocity": 95}, {"time": 17280, "pitch": 55, "duration": 150, "velocity": 95}, {"time": 17280, "pitch": 59, "duration": 150, "velocity": 100}, {"time": 17290, "pitch": 62, "duration": 130, "velocity": 105}, {"time": 17290, "pitch": 67, "duration": 130, "velocity": 110}, {"time": 17420, "pitch": 62, "duration": 10, "velocity": 60}, {"time": 17420, "pitch": 67, "duration": 10, "velocity": 65}, {"time": 17430, "pitch": 55, "duration": 10, "velocity": 50}, {"time": 17430, "pitch": 59, "duration": 10, "velocity": 55}, {"time": 17520, "pitch": 55, "duration": 240, "velocity": 95}, {"time": 17520, "pitch": 59, "duration": 240, "velocity": 100}, {"time": 17530, "pitch": 62, "duration": 240, "velocity": 105}, {"time": 17530, "pitch": 67, "duration": 240, "velocity": 110}, {"time": 17760, "pitch": 55, "duration": 10, "velocity": 85}, {"time": 17760, "pitch": 59, "duration": 10, "velocity": 90}, {"time": 17770, "pitch": 62, "duration": 10, "velocity": 95}, {"time": 17770, "pitch": 67, "duration": 10, "velocity": 100}, {"time": 17900, "pitch": 62, "duration": 240, "velocity": 105}, {"time": 17900, "pitch": 67, "duration": 240, "velocity": 110}, {"time": 17910, "pitch": 55, "duration": 240, "velocity": 95}, {"time": 17910, "pitch": 59, "duration": 240, "velocity": 100}, {"time": 18140, "pitch": 62, "duration": 110, "velocity": 100}, {"time": 18140, "pitch": 67, "duration": 110, "velocity": 105}, {"time": 18150, "pitch": 55, "duration": 90, "velocity": 90}, {"time": 18150, "pitch": 59, "duration": 90, "velocity": 95}, {"time": 18240, "pitch": 55, "duration": 150, "velocity": 95}, {"time": 18240, "pitch": 59, "duration": 150, "velocity": 100}, {"time": 18250, "pitch": 62, "duration": 130, "velocity": 105}, {"time": 18250, "pitch": 67, "duration": 130, "velocity": 110}, {"time": 18380, "pitch": 62, "duration": 10, "velocity": 60}, {"time": 18380, "pitch": 67, "duration": 10, "velocity": 65}, {"time": 18390, "pitch": 55, "duration": 10, "velocity": 50}, {"time": 18390, "pitch": 59, "duration": 10, "velocity": 55}, {"time": 18480, "pitch": 55, "duration": 240, "velocity": 95}, {"time": 18480, "pitch": 59, "duration": 240, "velocity": 100}, {"time": 18490, "pitch": 62, "duration": 240, "velocity": 105}, {"time": 18490, "pitch": 67, "duration": 240, "velocity": 110}, {"time": 18720, "pitch": 55, "duration": 10, "velocity": 85}, {"time": 18720, "pitch": 59, "duration": 10, "velocity": 90}, {"time": 18730, "pitch": 62, "duration": 10, "velocity": 95}, {"time": 18730, "pitch": 67, "duration": 10, "velocity": 100}, {"time": 18860, "pitch": 62, "duration": 240, "velocity": 105}, {"time": 18860, "pitch": 67, "duration": 240, "velocity": 110}, {"time": 18870, "pitch": 55, "duration": 240, "velocity": 95}, {"time": 18870, "pitch": 59, "duration": 240, "velocity": 100}, {"time": 19100, "pitch": 62, "duration": 80, "velocity": 100}, {"time": 19100, "pitch": 67, "duration": 80, "velocity": 105}, {"time": 19110, "pitch": 55, "duration": 70, "velocity": 90}, {"time": 19110, "pitch": 59, "duration": 70, "velocity": 95}, {"time": 19200, "pitch": 57, "duration": 150, "velocity": 95}, {"time": 19200, "pitch": 60, "duration": 150, "velocity": 100}, {"time": 19210, "pitch": 64, "duration": 130, "velocity": 105}, {"time": 19210, "pitch": 67, "duration": 130, "velocity": 110}, {"time": 19340, "pitch": 64, "duration": 10, "velocity": 60}, {"time": 19340, "pitch": 67, "duration": 10, "velocity": 65}, {"time": 19350, "pitch": 57, "duration": 10, "velocity": 50}, {"time": 19350, "pitch": 60, "duration": 10, "velocity": 55}, {"time": 19440, "pitch": 57, "duration": 240, "velocity": 95}, {"time": 19440, "pitch": 60, "duration": 240, "velocity": 100}, {"time": 19450, "pitch": 64, "duration": 240, "velocity": 105}, {"time": 19450, "pitch": 67, "duration": 240, "velocity": 110}, {"time": 19680, "pitch": 57, "duration": 10, "velocity": 85}, {"time": 19680, "pitch": 60, "duration": 10, "velocity": 90}, {"time": 19690, "pitch": 64, "duration": 10, "velocity": 95}, {"time": 19690, "pitch": 67, "duration": 10, "velocity": 100}, {"time": 19820, "pitch": 64, "duration": 240, "velocity": 105}, {"time": 19820, "pitch": 67, "duration": 240, "velocity": 110}, {"time": 19830, "pitch": 57, "duration": 240, "velocity": 95}, {"time": 19830, "pitch": 60, "duration": 240, "velocity": 100}, {"time": 20060, "pitch": 64, "duration": 110, "velocity": 100}, {"time": 20060, "pitch": 67, "duration": 110, "velocity": 105}, {"time": 20070, "pitch": 57, "duration": 90, "velocity": 90}, {"time": 20070, "pitch": 60, "duration": 90, "velocity": 95}, {"time": 20160, "pitch": 57, "duration": 150, "velocity": 95}, {"time": 20160, "pitch": 60, "duration": 150, "velocity": 100}, {"time": 20170, "pitch": 64, "duration": 130, "velocity": 105}, {"time": 20170, "pitch": 67, "duration": 130, "velocity": 110}, {"time": 20300, "pitch": 64, "duration": 10, "velocity": 60}, {"time": 20300, "pitch": 67, "duration": 10, "velocity": 65}, {"time": 20310, "pitch": 57, "duration": 10, "velocity": 50}, {"time": 20310, "pitch": 60, "duration": 10, "velocity": 55}, {"time": 20400, "pitch": 57, "duration": 240, "velocity": 95}, {"time": 20400, "pitch": 60, "duration": 240, "velocity": 100}, {"time": 20410, "pitch": 64, "duration": 240, "velocity": 105}, {"time": 20410, "pitch": 67, "duration": 240, "velocity": 110}, {"time": 20640, "pitch": 57, "duration": 10, "velocity": 85}, {"time": 20640, "pitch": 60, "duration": 10, "velocity": 90}, {"time": 20650, "pitch": 64, "duration": 10, "velocity": 95}, {"time": 20650, "pitch": 67, "duration": 10, "velocity": 100}, {"time": 20780, "pitch": 64, "duration": 240, "velocity": 105}, {"time": 20780, "pitch": 67, "duration": 240, "velocity": 110}, {"time": 20790, "pitch": 57, "duration": 240, "velocity": 95}, {"time": 20790, "pitch": 60, "duration": 240, "velocity": 100}, {"time": 21020, "pitch": 64, "duration": 80, "velocity": 100}, {"time": 21020, "pitch": 67, "duration": 80, "velocity": 105}, {"time": 21030, "pitch": 57, "duration": 70, "velocity": 90}, {"time": 21030, "pitch": 60, "duration": 70, "velocity": 95}, {"time": 21120, "pitch": 55, "duration": 150, "velocity": 95}, {"time": 21120, "pitch": 62, "duration": 150, "velocity": 100}, {"time": 21130, "pitch": 64, "duration": 130, "velocity": 105}, {"time": 21130, "pitch": 71, "duration": 130, "velocity": 110}, {"time": 21260, "pitch": 64, "duration": 10, "velocity": 60}, {"time": 21260, "pitch": 71, "duration": 10, "velocity": 65}, {"time": 21270, "pitch": 55, "duration": 10, "velocity": 50}, {"time": 21270, "pitch": 62, "duration": 10, "velocity": 55}, {"time": 21360, "pitch": 55, "duration": 240, "velocity": 95}, {"time": 21360, "pitch": 62, "duration": 240, "velocity": 100}, {"time": 21370, "pitch": 64, "duration": 240, "velocity": 105}, {"time": 21370, "pitch": 71, "duration": 240, "velocity": 110}, {"time": 21600, "pitch": 55, "duration": 10, "velocity": 85}, {"time": 21600, "pitch": 62, "duration": 10, "velocity": 90}, {"time": 21610, "pitch": 64, "duration": 10, "velocity": 95}, {"time": 21610, "pitch": 71, "duration": 10, "velocity": 100}, {"time": 21740, "pitch": 64, "duration": 240, "velocity": 105}, {"time": 21740, "pitch": 71, "duration": 240, "velocity": 110}, {"time": 21750, "pitch": 55, "duration": 240, "velocity": 95}, {"time": 21750, "pitch": 62, "duration": 240, "velocity": 100}, {"time": 21980, "pitch": 64, "duration": 110, "velocity": 100}, {"time": 21980, "pitch": 71, "duration": 110, "velocity": 105}, {"time": 21990, "pitch": 55, "duration": 90, "velocity": 90}, {"time": 21990, "pitch": 62, "duration": 90, "velocity": 95}, {"time": 22080, "pitch": 55, "duration": 150, "velocity": 95}, {"time": 22080, "pitch": 62, "duration": 150, "velocity": 100}, {"time": 22090, "pitch": 64, "duration": 130, "velocity": 105}, {"time": 22090, "pitch": 71, "duration": 130, "velocity": 110}, {"time": 22220, "pitch": 64, "duration": 10, "velocity": 60}, {"time": 22220, "pitch": 71, "duration": 10, "velocity": 65}, {"time": 22230, "pitch": 55, "duration": 10, "velocity": 50}, {"time": 22230, "pitch": 62, "duration": 10, "velocity": 55}, {"time": 22320, "pitch": 55, "duration": 240, "velocity": 95}, {"time": 22320, "pitch": 62, "duration": 240, "velocity": 100}, {"time": 22330, "pitch": 64, "duration": 240, "velocity": 105}, {"time": 22330, "pitch": 71, "duration": 240, "velocity": 110}, {"time": 22560, "pitch": 55, "duration": 10, "velocity": 85}, {"time": 22560, "pitch": 62, "duration": 10, "velocity": 90}, {"time": 22570, "pitch": 64, "duration": 10, "velocity": 95}, {"time": 22570, "pitch": 71, "duration": 10, "velocity": 100}, {"time": 22700, "pitch": 64, "duration": 240, "velocity": 105}, {"time": 22700, "pitch": 71, "duration": 240, "velocity": 110}, {"time": 22710, "pitch": 55, "duration": 240, "velocity": 95}, {"time": 22710, "pitch": 62, "duration": 240, "velocity": 100}, {"time": 22940, "pitch": 64, "duration": 80, "velocity": 100}, {"time": 22940, "pitch": 71, "duration": 80, "velocity": 105}, {"time": 22950, "pitch": 55, "duration": 70, "velocity": 90}, {"time": 22950, "pitch": 62, "duration": 70, "velocity": 95}, {"time": 23040, "pitch": 53, "duration": 150, "velocity": 95}, {"time": 23040, "pitch": 60, "duration": 150, "velocity": 100}, {"time": 23050, "pitch": 62, "duration": 130, "velocity": 105}, {"time": 23050, "pitch": 69, "duration": 130, "velocity": 110}, {"time": 23180, "pitch": 62, "duration": 10, "velocity": 60}, {"time": 23180, "pitch": 69, "duration": 10, "velocity": 65}, {"time": 23190, "pitch": 53, "duration": 10, "velocity": 50}, {"time": 23190, "pitch": 60, "duration": 10, "velocity": 55}, {"time": 23280, "pitch": 53, "duration": 240, "velocity": 95}, {"time": 23280, "pitch": 60, "duration": 240, "velocity": 100}, {"time": 23290, "pitch": 62, "duration": 240, "velocity": 105}, {"time": 23290, "pitch": 69, "duration": 240, "velocity": 110}, {"time": 23520, "pitch": 53, "duration": 10, "velocity": 85}, {"time": 23520, "pitch": 60, "duration": 10, "velocity": 90}, {"time": 23530, "pitch": 62, "duration": 10, "velocity": 95}, {"time": 23530, "pitch": 69, "duration": 10, "velocity": 100}, {"time": 23660, "pitch": 62, "duration": 240, "velocity": 105}, {"time": 23660, "pitch": 69, "duration": 240, "velocity": 110}, {"time": 23670, "pitch": 53, "duration": 240, "velocity": 95}, {"time": 23670, "pitch": 60, "duration": 240, "velocity": 100}, {"time": 23900, "pitch": 62, "duration": 110, "velocity": 100}, {"time": 23900, "pitch": 69, "duration": 110, "velocity": 105}, {"time": 23910, "pitch": 53, "duration": 90, "velocity": 90}, {"time": 23910, "pitch": 60, "duration": 90, "velocity": 95}, {"time": 24000, "pitch": 53, "duration": 150, "velocity": 95}, {"time": 24000, "pitch": 60, "duration": 150, "velocity": 100}, {"time": 24010, "pitch": 62, "duration": 130, "velocity": 105}, {"time": 24010, "pitch": 69, "duration": 130, "velocity": 110}, {"time": 24140, "pitch": 62, "duration": 10, "velocity": 60}, {"time": 24140, "pitch": 69, "duration": 10, "velocity": 65}, {"time": 24150, "pitch": 53, "duration": 10, "velocity": 50}, {"time": 24150, "pitch": 60, "duration": 10, "velocity": 55}, {"time": 24240, "pitch": 53, "duration": 240, "velocity": 95}, {"time": 24240, "pitch": 60, "duration": 240, "velocity": 100}, {"time": 24250, "pitch": 62, "duration": 240, "velocity": 105}, {"time": 24250, "pitch": 69, "duration": 240, "velocity": 110}, {"time": 24480, "pitch": 53, "duration": 10, "velocity": 85}, {"time": 24480, "pitch": 60, "duration": 10, "velocity": 90}, {"time": 24490, "pitch": 62, "duration": 10, "velocity": 95}, {"time": 24490, "pitch": 69, "duration": 10, "velocity": 100}, {"time": 24620, "pitch": 62, "duration": 240, "velocity": 105}, {"time": 24620, "pitch": 69, "duration": 240, "velocity": 110}, {"time": 24630, "pitch": 53, "duration": 240, "velocity": 95}, {"time": 24630, "pitch": 60, "duration": 240, "velocity": 100}, {"time": 24860, "pitch": 62, "duration": 80, "velocity": 100}, {"time": 24860, "pitch": 69, "duration": 80, "velocity": 105}, {"time": 24870, "pitch": 53, "duration": 70, "velocity": 90}, {"time": 24870, "pitch": 60, "duration": 70, "velocity": 95}, {"time": 24960, "pitch": 57, "duration": 150, "velocity": 95}, {"time": 24960, "pitch": 60, "duration": 150, "velocity": 100}, {"time": 24970, "pitch": 64, "duration": 130, "velocity": 105}, {"time": 24970, "pitch": 67, "duration": 130, "velocity": 110}, {"time": 25100, "pitch": 64, "duration": 10, "velocity": 60}, {"time": 25100, "pitch": 67, "duration": 10, "velocity": 65}, {"time": 25110, "pitch": 57, "duration": 10, "velocity": 50}, {"time": 25110, "pitch": 60, "duration": 10, "velocity": 55}, {"time": 25200, "pitch": 57, "duration": 240, "velocity": 95}, {"time": 25200, "pitch": 60, "duration": 240, "velocity": 100}, {"time": 25210, "pitch": 64, "duration": 240, "velocity": 105}, {"time": 25210, "pitch": 67, "duration": 240, "velocity": 110}, {"time": 25440, "pitch": 57, "duration": 10, "velocity": 85}, {"time": 25440, "pitch": 60, "duration": 10, "velocity": 90}, {"time": 25450, "pitch": 64, "duration": 10, "velocity": 95}, {"time": 25450, "pitch": 67, "duration": 10, "velocity": 100}, {"time": 25580, "pitch": 64, "duration": 240, "velocity": 105}, {"time": 25580, "pitch": 67, "duration": 240, "velocity": 110}, {"time": 25590, "pitch": 57, "duration": 240, "velocity": 95}, {"time": 25590, "pitch": 60, "duration": 240, "velocity": 100}, {"time": 25820, "pitch": 64, "duration": 110, "velocity": 100}, {"time": 25820, "pitch": 67, "duration": 110, "velocity": 105}, {"time": 25830, "pitch": 57, "duration": 90, "velocity": 90}, {"time": 25830, "pitch": 60, "duration": 90, "velocity": 95}, {"time": 25920, "pitch": 57, "duration": 150, "velocity": 95}, {"time": 25920, "pitch": 60, "duration": 150, "velocity": 100}, {"time": 25930, "pitch": 64, "duration": 130, "velocity": 105}, {"time": 25930, "pitch": 67, "duration": 130, "velocity": 110}, {"time": 26060, "pitch": 64, "duration": 10, "velocity": 60}, {"time": 26060, "pitch": 67, "duration": 10, "velocity": 65}, {"time": 26070, "pitch": 57, "duration": 10, "velocity": 50}, {"time": 26070, "pitch": 60, "duration": 10, "velocity": 55}, {"time": 26160, "pitch": 57, "duration": 240, "velocity": 95}, {"time": 26160, "pitch": 60, "duration": 240, "velocity": 100}, {"time": 26170, "pitch": 64, "duration": 240, "velocity": 105}, {"time": 26170, "pitch": 67, "duration": 240, "velocity": 110}, {"time": 26400, "pitch": 57, "duration": 10, "velocity": 85}, {"time": 26400, "pitch": 60, "duration": 10, "velocity": 90}, {"time": 26410, "pitch": 64, "duration": 10, "velocity": 95}, {"time": 26410, "pitch": 67, "duration": 10, "velocity": 100}, {"time": 26540, "pitch": 64, "duration": 240, "velocity": 105}, {"time": 26540, "pitch": 67, "duration": 240, "velocity": 110}, {"time": 26550, "pitch": 57, "duration": 240, "velocity": 95}, {"time": 26550, "pitch": 60, "duration": 240, "velocity": 100}, {"time": 26780, "pitch": 64, "duration": 80, "velocity": 100}, {"time": 26780, "pitch": 67, "duration": 80, "velocity": 105}, {"time": 26790, "pitch": 57, "duration": 70, "velocity": 90}, {"time": 26790, "pitch": 60, "duration": 70, "velocity": 95}, {"time": 26880, "pitch": 53, "duration": 150, "velocity": 95}, {"time": 26880, "pitch": 60, "duration": 150, "velocity": 100}, {"time": 26890, "pitch": 62, "duration": 130, "velocity": 105}, {"time": 26890, "pitch": 68, "duration": 130, "velocity": 110}, {"time": 27020, "pitch": 62, "duration": 10, "velocity": 60}, {"time": 27020, "pitch": 68, "duration": 10, "velocity": 65}, {"time": 27030, "pitch": 53, "duration": 10, "velocity": 50}, {"time": 27030, "pitch": 60, "duration": 10, "velocity": 55}, {"time": 27120, "pitch": 53, "duration": 240, "velocity": 95}, {"time": 27120, "pitch": 60, "duration": 240, "velocity": 100}, {"time": 27130, "pitch": 62, "duration": 240, "velocity": 105}, {"time": 27130, "pitch": 68, "duration": 240, "velocity": 110}, {"time": 27360, "pitch": 53, "duration": 10, "velocity": 85}, {"time": 27360, "pitch": 60, "duration": 10, "velocity": 90}, {"time": 27370, "pitch": 62, "duration": 10, "velocity": 95}, {"time": 27370, "pitch": 68, "duration": 10, "velocity": 100}, {"time": 27500, "pitch": 62, "duration": 240, "velocity": 105}, {"time": 27500, "pitch": 68, "duration": 240, "velocity": 110}, {"time": 27510, "pitch": 53, "duration": 240, "velocity": 95}, {"time": 27510, "pitch": 60, "duration": 240, "velocity": 100}, {"time": 27740, "pitch": 62, "duration": 110, "velocity": 100}, {"time": 27740, "pitch": 68, "duration": 110, "velocity": 105}, {"time": 27750, "pitch": 53, "duration": 90, "velocity": 90}, {"time": 27750, "pitch": 60, "duration": 90, "velocity": 95}, {"time": 27840, "pitch": 53, "duration": 150, "velocity": 95}, {"time": 27840, "pitch": 60, "duration": 150, "velocity": 100}, {"time": 27850, "pitch": 62, "duration": 130, "velocity": 105}, {"time": 27850, "pitch": 68, "duration": 130, "velocity": 110}, {"time": 27980, "pitch": 62, "duration": 10, "velocity": 60}, {"time": 27980, "pitch": 68, "duration": 10, "velocity": 65}, {"time": 27990, "pitch": 53, "duration": 10, "velocity": 50}, {"time": 27990, "pitch": 60, "duration": 10, "velocity": 55}, {"time": 28080, "pitch": 53, "duration": 240, "velocity": 95}, {"time": 28080, "pitch": 60, "duration": 240, "velocity": 100}, {"time": 28090, "pitch": 62, "duration": 240, "velocity": 105}, {"time": 28090, "pitch": 68, "duration": 240, "velocity": 110}, {"time": 28320, "pitch": 53, "duration": 10, "velocity": 85}, {"time": 28320, "pitch": 60, "duration": 10, "velocity": 90}, {"time": 28330, "pitch": 62, "duration": 10, "velocity": 95}, {"time": 28330, "pitch": 68, "duration": 10, "velocity": 100}, {"time": 28460, "pitch": 62, "duration": 240, "velocity": 105}, {"time": 28460, "pitch": 68, "duration": 240, "velocity": 110}, {"time": 28470, "pitch": 53, "duration": 240, "velocity": 95}, {"time": 28470, "pitch": 60, "duration": 240, "velocity": 100}, {"time": 28700, "pitch": 62, "duration": 80, "velocity": 100}, {"time": 28700, "pitch": 68, "duration": 80, "velocity": 105}, {"time": 28710, "pitch": 53, "duration": 70, "velocity": 90}, {"time": 28710, "pitch": 60, "duration": 70, "velocity": 95}, {"time": 28800, "pitch": 53, "duration": 150, "velocity": 95}, {"time": 28800, "pitch": 60, "duration": 150, "velocity": 100}, {"time": 28810, "pitch": 62, "duration": 130, "velocity": 105}, {"time": 28810, "pitch": 67, "duration": 130, "velocity": 110}, {"time": 28940, "pitch": 62, "duration": 10, "velocity": 60}, {"time": 28940, "pitch": 67, "duration": 10, "velocity": 65}, {"time": 28950, "pitch": 53, "duration": 10, "velocity": 50}, {"time": 28950, "pitch": 60, "duration": 10, "velocity": 55}, {"time": 29040, "pitch": 53, "duration": 240, "velocity": 95}, {"time": 29040, "pitch": 60, "duration": 240, "velocity": 100}, {"time": 29050, "pitch": 62, "duration": 240, "velocity": 105}, {"time": 29050, "pitch": 67, "duration": 240, "velocity": 110}, {"time": 29280, "pitch": 53, "duration": 10, "velocity": 85}, {"time": 29280, "pitch": 60, "duration": 10, "velocity": 90}, {"time": 29290, "pitch": 62, "duration": 10, "velocity": 95}, {"time": 29290, "pitch": 67, "duration": 10, "velocity": 100}, {"time": 29420, "pitch": 62, "duration": 240, "velocity": 105}, {"time": 29420, "pitch": 67, "duration": 240, "velocity": 110}, {"time": 29430, "pitch": 53, "duration": 240, "velocity": 95}, {"time": 29430, "pitch": 60, "duration": 240, "velocity": 100}, {"time": 29660, "pitch": 62, "duration": 110, "velocity": 100}, {"time": 29660, "pitch": 67, "duration": 110, "velocity": 105}, {"time": 29670, "pitch": 53, "duration": 90, "velocity": 90}, {"time": 29670, "pitch": 60, "duration": 90, "velocity": 95}, {"time": 29760, "pitch": 53, "duration": 150, "velocity": 95}, {"time": 29760, "pitch": 60, "duration": 150, "velocity": 100}, {"time": 29770, "pitch": 62, "duration": 130, "velocity": 105}, {"time": 29770, "pitch": 67, "duration": 130, "velocity": 110}, {"time": 29900, "pitch": 62, "duration": 10, "velocity": 60}, {"time": 29900, "pitch": 67, "duration": 10, "velocity": 65}, {"time": 29910, "pitch": 53, "duration": 10, "velocity": 50}, {"time": 29910, "pitch": 60, "duration": 10, "velocity": 55}, {"time": 30000, "pitch": 53, "duration": 240, "velocity": 95}, {"time": 30000, "pitch": 60, "duration": 240, "velocity": 100}, {"time": 30010, "pitch": 62, "duration": 240, "velocity": 105}, {"time": 30010, "pitch": 67, "duration": 240, "velocity": 110}, {"time": 30240, "pitch": 53, "duration": 10, "velocity": 85}, {"time": 30240, "pitch": 60, "duration": 10, "velocity": 90}, {"time": 30250, "pitch": 62, "duration": 10, "velocity": 95}, {"time": 30250, "pitch": 67, "duration": 10, "velocity": 100}, {"time": 30380, "pitch": 62, "duration": 240, "velocity": 105}, {"time": 30380, "pitch": 67, "duration": 240, "velocity": 110}, {"time": 30390, "pitch": 53, "duration": 240, "velocity": 95}, {"time": 30390, "pitch": 60, "duration": 240, "velocity": 100}, {"time": 30620, "pitch": 62, "duration": 80, "velocity": 100}, {"time": 30620, "pitch": 67, "duration": 80, "velocity": 105}, {"time": 30630, "pitch": 53, "duration": 70, "velocity": 90}, {"time": 30630, "pitch": 60, "duration": 70, "velocity": 95}, {"time": 30720, "pitch": 53, "duration": 150, "velocity": 95}, {"time": 30720, "pitch": 59, "duration": 150, "velocity": 100}, {"time": 30730, "pitch": 62, "duration": 130, "velocity": 105}, {"time": 30730, "pitch": 68, "duration": 130, "velocity": 110}, {"time": 30860, "pitch": 62, "duration": 10, "velocity": 60}, {"time": 30860, "pitch": 68, "duration": 10, "velocity": 65}, {"time": 30870, "pitch": 53, "duration": 10, "velocity": 50}, {"time": 30870, "pitch": 59, "duration": 10, "velocity": 55}, {"time": 30960, "pitch": 53, "duration": 240, "velocity": 95}, {"time": 30960, "pitch": 59, "duration": 240, "velocity": 100}, {"time": 30970, "pitch": 62, "duration": 240, "velocity": 105}, {"time": 30970, "pitch": 68, "duration": 240, "velocity": 110}, {"time": 31200, "pitch": 53, "duration": 10, "velocity": 85}, {"time": 31200, "pitch": 59, "duration": 10, "velocity": 90}, {"time": 31210, "pitch": 62, "duration": 10, "velocity": 95}, {"time": 31210, "pitch": 68, "duration": 10, "velocity": 100}, {"time": 31340, "pitch": 62, "duration": 240, "velocity": 105}, {"time": 31340, "pitch": 68, "duration": 240, "velocity": 110}, {"time": 31350, "pitch": 53, "duration": 240, "velocity": 95}, {"time": 31350, "pitch": 59, "duration": 240, "velocity": 100}, {"time": 31580, "pitch": 62, "duration": 110, "velocity": 100}, {"time": 31580, "pitch": 68, "duration": 110, "velocity": 105}, {"time": 31590, "pitch": 53, "duration": 90, "velocity": 90}, {"time": 31590, "pitch": 59, "duration": 90, "velocity": 95}, {"time": 31680, "pitch": 53, "duration": 150, "velocity": 85}, {"time": 31680, "pitch": 59, "duration": 150, "velocity": 90}, {"time": 31690, "pitch": 62, "duration": 130, "velocity": 95}, {"time": 31690, "pitch": 68, "duration": 130, "velocity": 100}, {"time": 31820, "pitch": 62, "duration": 110, "velocity": 100}, {"time": 31820, "pitch": 68, "duration": 110, "velocity": 105}, {"time": 31830, "pitch": 53, "duration": 90, "velocity": 90}, {"time": 31830, "pitch": 59, "duration": 90, "velocity": 95}, {"time": 31920, "pitch": 53, "duration": 240, "velocity": 95}, {"time": 31920, "pitch": 59, "duration": 240, "velocity": 100}, {"time": 31930, "pitch": 62, "duration": 240, "velocity": 105}, {"time": 31930, "pitch": 68, "duration": 240, "velocity": 110}, {"time": 32160, "pitch": 53, "duration": 150, "velocity": 95}, {"time": 32160, "pitch": 59, "duration": 150, "velocity": 100}, {"time": 32170, "pitch": 62, "duration": 130, "velocity": 105}, {"time": 32170, "pitch": 68, "duration": 130, "velocity": 110}, {"time": 32300, "pitch": 62, "duration": 110, "velocity": 100}, {"time": 32300, "pitch": 68, "duration": 110, "velocity": 105}, {"time": 32310, "pitch": 53, "duration": 90, "velocity": 90}, {"time": 32310, "pitch": 59, "duration": 90, "velocity": 95}, {"time": 32400, "pitch": 53, "duration": 240, "velocity": 95}, {"time": 32400, "pitch": 59, "duration": 240, "velocity": 100}, {"time": 32410, "pitch": 62, "duration": 240, "velocity": 105}, {"time": 32410, "pitch": 68, "duration": 240, "velocity": 110}, {"time": 47040, "pitch": 53, "duration": 150, "velocity": 60}, {"time": 47040, "pitch": 60, "duration": 150, "velocity": 65}, {"time": 47050, "pitch": 62, "duration": 130, "velocity": 70}, {"time": 47050, "pitch": 67, "duration": 130, "velocity": 75}, {"time": 47180, "pitch": 62, "duration": 330, "velocity": 120}, {"time": 47180, "pitch": 67, "duration": 330, "velocity": 125}, {"time": 47190, "pitch": 53, "duration": 320, "velocity": 110}, {"time": 47190, "pitch": 60, "duration": 320, "velocity": 115}, {"time": 47520, "pitch": 53, "duration": 150, "velocity": 60}, {"time": 47520, "pitch": 59, "duration": 150, "velocity": 65}, {"time": 47530, "pitch": 62, "duration": 130, "velocity": 70}, {"time": 47530, "pitch": 68, "duration": 130, "velocity": 75}, {"time": 47660, "pitch": 62, "duration": 330, "velocity": 120}, {"time": 47660, "pitch": 68, "duration": 330, "velocity": 125}, {"time": 47670, "pitch": 53, "duration": 320, "velocity": 110}, {"time": 47670, "pitch": 59, "duration": 320, "velocity": 115}, {"time": 48000, "pitch": 57, "duration": 1920, "velocity": 110}, {"time": 48240, "pitch": 60, "duration": 960, "velocity": 100}, {"time": 48480, "pitch": 64, "duration": 960, "velocity": 105}, {"time": 48720, "pitch": 71, "duration": 960, "velocity": 110}, {"time": 49200, "pitch": 60, "duration": 720, "velocity": 100}, {"time": 49440, "pitch": 64, "duration": 480, "velocity": 105}, {"time": 49680, "pitch": 71, "duration": 240, "velocity": 110}, {"time": 49920, "pitch": 56, "duration": 1920, "velocity": 110}, {"time": 50160, "pitch": 62, "duration": 960, "velocity": 100}, {"time": 50400, "pitch": 64, "duration": 960, "velocity": 105}, {"time": 50640, "pitch": 71, "duration": 960, "velocity": 110}, {"time": 51120, "pitch": 62, "duration": 720, "velocity": 100}, {"time": 51360, "pitch": 64, "duration": 480, "velocity": 105}, {"time": 51600, "pitch": 71, "duration": 240, "velocity": 110}, {"time": 51840, "pitch": 55, "duration": 1920, "velocity": 110}, {"time": 52080, "pitch": 58, "duration": 960, "velocity": 100}, {"time": 52320, "pitch": 62, "duration": 960, "velocity": 105}, {"time": 52560, "pitch": 69, "duration": 960, "velocity": 110}, {"time": 53040, "pitch": 58, "duration": 720, "velocity": 100}, {"time": 53280, "pitch": 62, "duration": 480, "velocity": 105}, {"time": 53520, "pitch": 69, "duration": 240, "velocity": 110}, {"time": 53760, "pitch": 54, "duration": 1920, "velocity": 110}, {"time": 54000, "pitch": 60, "duration": 960, "velocity": 100}, {"time": 54240, "pitch": 62, "duration": 960, "velocity": 105}, {"time": 54480, "pitch": 69, "duration": 960, "velocity": 110}, {"time": 54960, "pitch": 60, "duration": 720, "velocity": 100}, {"time": 55200, "pitch": 62, "duration": 480, "velocity": 105}, {"time": 55440, "pitch": 69, "duration": 240, "velocity": 110}, {"time": 55680, "pitch": 57, "duration": 1920, "velocity": 110}, {"time": 55920, "pitch": 60, "duration": 960, "velocity": 100}, {"time": 56160, "pitch": 65, "duration": 960, "velocity": 105}, {"time": 56400, "pitch": 69, "duration": 960, "velocity": 110}, {"time": 56880, "pitch": 60, "duration": 720, "velocity": 100}, {"time": 57120, "pitch": 65, "duration": 480, "velocity": 105}, {"time": 57360, "pitch": 69, "duration": 240, "velocity": 110}, {"time": 57600, "pitch": 55, "duration": 1920, "velocity": 110}, {"time": 57840, "pitch": 60, "duration": 960, "velocity": 100}, {"time": 58080, "pitch": 64, "duration": 960, "velocity": 105}, {"time": 58320, "pitch": 67, "duration": 960, "velocity": 110}, {"time": 58800, "pitch": 60, "duration": 720, "velocity": 100}, {"time": 59040, "pitch": 64, "duration": 480, "velocity": 105}, {"time": 59280, "pitch": 67, "duration": 240, "velocity": 110}, {"time": 59520, "pitch": 57, "duration": 1920, "velocity": 110}, {"time": 59760, "pitch": 60, "duration": 960, "velocity": 100}, {"time": 60000, "pitch": 65, "duration": 960, "velocity": 105}, {"time": 60240, "pitch": 69, "duration": 960, "velocity": 110}, {"time": 60720, "pitch": 60, "duration": 720, "velocity": 100}, {"time": 60960, "pitch": 65, "duration": 480, "velocity": 105}, {"time": 61200, "pitch": 69, "duration": 240, "velocity": 110}, {"time": 61440, "pitch": 55, "duration": 940, "velocity": 110}, {"time": 61680, "pitch": 59, "duration": 700, "velocity": 100}, {"time": 61920, "pitch": 62, "duration": 460, "velocity": 105}, {"time": 62160, "pitch": 67, "duration": 220, "velocity": 110}, {"time": 62400, "pitch": 53, "duration": 100, "velocity": 105}, {"time": 62400, "pitch": 60, "duration": 100, "velocity": 110}, {"time": 62410, "pitch": 62, "duration": 90, "velocity": 115}, {"time": 62410, "pitch": 67, "duration": 90, "velocity": 120}, {"time": 62640, "pitch": 62, "duration": 700, "velocity": 115}, {"time": 62640, "pitch": 67, "duration": 700, "velocity": 120}, {"time": 62650, "pitch": 53, "duration": 690, "velocity": 105}, {"time": 62650, "pitch": 60, "duration": 690, "velocity": 110}, {"time": 63360, "pitch": 55, "duration": 150, "velocity": 95}, {"time": 63360, "pitch": 60, "duration": 150, "velocity": 100}, {"time": 63370, "pitch": 64, "duration": 130, "velocity": 105}, {"time": 63370, "pitch": 67, "duration": 130, "velocity": 110}, {"time": 63500, "pitch": 64, "duration": 10, "velocity": 60}, {"time": 63500, "pitch": 67, "duration": 10, "velocity": 65}, {"time": 63510, "pitch": 55, "duration": 10, "velocity": 50}, {"time": 63510, "pitch": 60, "duration": 10, "velocity": 55}, {"time": 63600, "pitch": 55, "duration": 240, "velocity": 95}, {"time": 63600, "pitch": 60, "duration": 240, "velocity": 100}, {"time": 63610, "pitch": 64, "duration": 240, "velocity": 105}, {"time": 63610, "pitch": 67, "duration": 240, "velocity": 110}, {"time": 63840, "pitch": 55, "duration": 10, "velocity": 85}, {"time": 63840, "pitch": 60, "duration": 10, "velocity": 90}, {"time": 63850, "pitch": 64, "duration": 10, "velocity": 95}, {"time": 63850, "pitch": 67, "duration": 10, "velocity": 100}, {"time": 63980, "pitch": 64, "duration": 240, "velocity": 105}, {"time": 63980, "pitch": 67, "duration": 240, "velocity": 110}, {"time": 63990, "pitch": 55, "duration": 240, "velocity": 95}, {"time": 63990, "pitch": 60, "duration": 240, "velocity": 100}, {"time": 64220, "pitch": 64, "duration": 110, "velocity": 100}, {"time": 64220, "pitch": 67, "duration": 110, "velocity": 105}, {"time": 64230, "pitch": 55, "duration": 90, "velocity": 90}, {"time": 64230, "pitch": 60, "duration": 90, "velocity": 95}, {"time": 64320, "pitch": 55, "duration": 150, "velocity": 95}, {"time": 64320, "pitch": 60, "duration": 150, "velocity": 100}, {"time": 64330, "pitch": 64, "duration": 130, "velocity": 105}, {"time": 64330, "pitch": 67, "duration": 130, "velocity": 110}, {"time": 64460, "pitch": 64, "duration": 10, "velocity": 60}, {"time": 64460, "pitch": 67, "duration": 10, "velocity": 65}, {"time": 64470, "pitch": 55, "duration": 10, "velocity": 50}, {"time": 64470, "pitch": 60, "duration": 10, "velocity": 55}, {"time": 64560, "pitch": 55, "duration": 240, "velocity": 95}, {"time": 64560, "pitch": 60, "duration": 240, "velocity": 100}, {"time": 64570, "pitch": 64, "duration": 240, "velocity": 105}, {"time": 64570, "pitch": 67, "duration": 240, "velocity": 110}, {"time": 64800, "pitch": 55, "duration": 10, "velocity": 85}, {"time": 64800, "pitch": 60, "duration": 10, "velocity": 90}, {"time": 64810, "pitch": 64, "duration": 10, "velocity": 95}, {"time": 64810, "pitch": 67, "duration": 10, "velocity": 100}, {"time": 64940, "pitch": 64, "duration": 240, "velocity": 105}, {"time": 64940, "pitch": 67, "duration": 240, "velocity": 110}, {"time": 64950, "pitch": 55, "duration": 240, "velocity": 95}, {"time": 64950, "pitch": 60, "duration": 240, "velocity": 100}, {"time": 65180, "pitch": 64, "duration": 110, "velocity": 100}, {"time": 65180, "pitch": 67, "duration": 110, "velocity": 105}, {"time": 65190, "pitch": 55, "duration": 90, "velocity": 90}, {"time": 65190, "pitch": 60, "duration": 90, "velocity": 95}, {"time": 65280, "pitch": 55, "duration": 150, "velocity": 95}, {"time": 65280, "pitch": 59, "duration": 150, "velocity": 100}, {"time": 65290, "pitch": 62, "duration": 130, "velocity": 105}, {"time": 65290, "pitch": 67, "duration": 130, "velocity": 110}, {"time": 65420, "pitch": 62, "duration": 10, "velocity": 60}, {"time": 65420, "pitch": 67, "duration": 10, "velocity": 65}, {"time": 65430, "pitch": 55, "duration": 10, "velocity": 50}, {"time": 65430, "pitch": 59, "duration": 10, "velocity": 55}, {"time": 65520, "pitch": 55, "duration": 240, "velocity": 95}, {"time": 65520, "pitch": 59, "duration": 240, "velocity": 100}, {"time": 65530, "pitch": 62, "duration": 240, "velocity": 105}, {"time": 65530, "pitch": 67, "duration": 240, "velocity": 110}, {"time": 65760, "pitch": 55, "duration": 10, "velocity": 85}, {"time": 65760, "pitch": 59, "duration": 10, "velocity": 90}, {"time": 65770, "pitch": 62, "duration": 10, "velocity": 95}, {"time": 65770, "pitch": 67, "duration": 10, "velocity": 100}, {"time": 65900, "pitch": 62, "duration": 240, "velocity": 105}, {"time": 65900, "pitch": 67, "duration": 240, "velocity": 110}, {"time": 65910, "pitch": 55, "duration": 240, "velocity": 95}, {"time": 65910, "pitch": 59, "duration": 240, "velocity": 100}, {"time": 66140, "pitch": 62, "duration": 110, "velocity": 100}, {"time": 66140, "pitch": 67, "duration": 110, "velocity": 105}, {"time": 66150, "pitch": 55, "duration": 90, "velocity": 90}, {"time": 66150, "pitch": 59, "duration": 90, "velocity": 95}, {"time": 66240, "pitch": 55, "duration": 150, "velocity": 95}, {"time": 66240, "pitch": 59, "duration": 150, "velocity": 100}, {"time": 66250, "pitch": 62, "duration": 130, "velocity": 105}, {"time": 66250, "pitch": 67, "duration": 130, "velocity": 110}, {"time": 66380, "pitch": 62, "duration": 10, "velocity": 60}, {"time": 66380, "pitch": 67, "duration": 10, "velocity": 65}, {"time": 66390, "pitch": 55, "duration": 10, "velocity": 50}, {"time": 66390, "pitch": 59, "duration": 10, "velocity": 55}, {"time": 66480, "pitch": 55, "duration": 240, "velocity": 95}, {"time": 66480, "pitch": 59, "duration": 240, "velocity": 100}, {"time": 66490, "pitch": 62, "duration": 240, "velocity": 105}, {"time": 66490, "pitch": 67, "duration": 240, "velocity": 110}, {"time": 66720, "pitch": 55, "duration": 10, "velocity": 85}, {"time": 66720, "pitch": 59, "duration": 10, "velocity": 90}, {"time": 66730, "pitch": 62, "duration": 10, "velocity": 95}, {"time": 66730, "pitch": 67, "duration": 10, "velocity": 100}, {"time": 66860, "pitch": 62, "duration": 240, "velocity": 105}, {"time": 66860, "pitch": 67, "duration": 240, "velocity": 110}, {"time": 66870, "pitch": 55, "duration": 240, "velocity": 95}, {"time": 66870, "pitch": 59, "duration": 240, "velocity": 100}, {"time": 67100, "pitch": 62, "duration": 80, "velocity": 100}, {"time": 67100, "pitch": 67, "duration": 80, "velocity": 105}, {"time": 67110, "pitch": 55, "duration": 70, "velocity": 90}, {"time": 67110, "pitch": 59, "duration": 70, "velocity": 95}, {"time": 67200, "pitch": 55, "duration": 250, "velocity": 95}, {"time": 67200, "pitch": 58, "duration": 250, "velocity": 100}, {"time": 67210, "pitch": 62, "duration": 230, "velocity": 105}, {"time": 67210, "pitch": 67, "duration": 230, "velocity": 110}, {"time": 67440, "pitch": 62, "duration": 250, "velocity": 95}, {"time": 67440, "pitch": 67, "duration": 250, "velocity": 100}, {"time": 67450, "pitch": 55, "duration": 230, "velocity": 85}, {"time": 67450, "pitch": 58, "duration": 230, "velocity": 90}, {"time": 67680, "pitch": 55, "duration": 240, "velocity": 105}, {"time": 67680, "pitch": 58, "duration": 240, "velocity": 110}, {"time": 67690, "pitch": 62, "duration": 240, "velocity": 115}, {"time": 67690, "pitch": 67, "duration": 240, "velocity": 120}, {"time": 67920, "pitch": 55, "duration": 150, "velocity": 85}, {"time": 67920, "pitch": 58, "duration": 150, "velocity": 90}, {"time": 67930, "pitch": 62, "duration": 130, "velocity": 95}, {"time": 67930, "pitch": 67, "duration": 130, "velocity": 100}, {"time": 68060, "pitch": 62, "duration": 110, "velocity": 90}, {"time": 68060, "pitch": 67, "duration": 110, "velocity": 95}, {"time": 68070, "pitch": 55, "duration": 90, "velocity": 80}, {"time": 68070, "pitch": 58, "duration": 90, "velocity": 85}, {"time": 68160, "pitch": 55, "duration": 150, "velocity": 65}, {"time": 68160, "pitch": 58, "duration": 150, "velocity": 70}, {"time": 68170, "pitch": 62, "duration": 130, "velocity": 75}, {"time": 68170, "pitch": 67, "duration": 130, "velocity": 80}, {"time": 68300, "pitch": 62, "duration": 110, "velocity": 105}, {"time": 68300, "pitch": 67, "duration": 110, "velocity": 110}, {"time": 68310, "pitch": 55, "duration": 90, "velocity": 95}, {"time": 68310, "pitch": 58, "duration": 90, "velocity": 100}, {"time": 68400, "pitch": 55, "duration": 150, "velocity": 65}, {"time": 68400, "pitch": 58, "duration": 150, "velocity": 70}, {"time": 68410, "pitch": 62, "duration": 130, "velocity": 75}, {"time": 68410, "pitch": 67, "duration": 130, "velocity": 80}, {"time": 68540, "pitch": 62, "duration": 110, "velocity": 105}, {"time": 68540, "pitch": 67, "duration": 110, "velocity": 110}, {"time": 68550, "pitch": 55, "duration": 90, "velocity": 95}, {"time": 68550, "pitch": 58, "duration": 90, "velocity": 100}, {"time": 68640, "pitch": 55, "duration": 240, "velocity": 105}, {"time": 68640, "pitch": 58, "duration": 240, "velocity": 110}, {"time": 68650, "pitch": 62, "duration": 240, "velocity": 115}, {"time": 68650, "pitch": 67, "duration": 240, "velocity": 120}, {"time": 68880, "pitch": 55, "duration": 150, "velocity": 85}, {"time": 68880, "pitch": 58, "duration": 150, "velocity": 90}, {"time": 68890, "pitch": 62, "duration": 130, "velocity": 95}, {"time": 68890, "pitch": 67, "duration": 130, "velocity": 100}, {"time": 69020, "pitch": 62, "duration": 80, "velocity": 90}, {"time": 69020, "pitch": 67, "duration": 80, "velocity": 95}, {"time": 69030, "pitch": 55, "duration": 70, "velocity": 80}, {"time": 69030, "pitch": 58, "duration": 70, "velocity": 85}, {"time": 69120, "pitch": 57, "duration": 150, "velocity": 95}, {"time": 69120, "pitch": 61, "duration": 150, "velocity": 100}, {"time": 69130, "pitch": 64, "duration": 130, "velocity": 105}, {"time": 69130, "pitch": 67, "duration": 130, "velocity": 110}, {"time": 69260, "pitch": 64, "duration": 10, "velocity": 60}, {"time": 69260, "pitch": 67, "duration": 10, "velocity": 65}, {"time": 69270, "pitch": 57, "duration": 10, "velocity": 50}, {"time": 69270, "pitch": 61, "duration": 10, "velocity": 55}, {"time": 69360, "pitch": 57, "duration": 240, "velocity": 95}, {"time": 69360, "pitch": 61, "duration": 240, "velocity": 100}, {"time": 69370, "pitch": 64, "duration": 240, "velocity": 105}, {"time": 69370, "pitch": 67, "duration": 240, "velocity": 110}, {"time": 69600, "pitch": 57, "duration": 10, "velocity": 85}, {"time": 69600, "pitch": 61, "duration": 10, "velocity": 90}, {"time": 69610, "pitch": 64, "duration": 10, "velocity": 95}, {"time": 69610, "pitch": 67, "duration": 10, "velocity": 100}, {"time": 69740, "pitch": 64, "duration": 240, "velocity": 105}, {"time": 69740, "pitch": 67, "duration": 240, "velocity": 110}, {"time": 69750, "pitch": 57, "duration": 240, "velocity": 95}, {"time": 69750, "pitch": 61, "duration": 240, "velocity": 100}, {"time": 69980, "pitch": 64, "duration": 110, "velocity": 100}, {"time": 69980, "pitch": 67, "duration": 110, "velocity": 105}, {"time": 69990, "pitch": 57, "duration": 90, "velocity": 90}, {"time": 69990, "pitch": 61, "duration": 90, "velocity": 95}, {"time": 70080, "pitch": 57, "duration": 150, "velocity": 95}, {"time": 70080, "pitch": 61, "duration": 150, "velocity": 100}, {"time": 70090, "pitch": 64, "duration": 130, "velocity": 105}, {"time": 70090, "pitch": 67, "duration": 130, "velocity": 110}, {"time": 70220, "pitch": 64, "duration": 10, "velocity": 60}, {"time": 70220, "pitch": 67, "duration": 10, "velocity": 65}, {"time": 70230, "pitch": 57, "duration": 10, "velocity": 50}, {"time": 70230, "pitch": 61, "duration": 10, "velocity": 55}, {"time": 70320, "pitch": 57, "duration": 240, "velocity": 95}, {"time": 70320, "pitch": 61, "duration": 240, "velocity": 100}, {"time": 70330, "pitch": 64, "duration": 240, "velocity": 105}, {"time": 70330, "pitch": 67, "duration": 240, "velocity": 110}, {"time": 70560, "pitch": 57, "duration": 10, "velocity": 85}, {"time": 70560, "pitch": 61, "duration": 10, "velocity": 90}, {"time": 70570, "pitch": 64, "duration": 10, "velocity": 95}, {"time": 70570, "pitch": 67, "duration": 10, "velocity": 100}, {"time": 70700, "pitch": 64, "duration": 240, "velocity": 105}, {"time": 70700, "pitch": 67, "duration": 240, "velocity": 110}, {"time": 70710, "pitch": 57, "duration": 240, "velocity": 95}, {"time": 70710, "pitch": 61, "duration": 240, "velocity": 100}, {"time": 70940, "pitch": 64, "duration": 80, "velocity": 100}, {"time": 70940, "pitch": 67, "duration": 80, "velocity": 105}, {"time": 70950, "pitch": 57, "duration": 70, "velocity": 90}, {"time": 70950, "pitch": 61, "duration": 70, "velocity": 95}, {"time": 71040, "pitch": 56, "duration": 150, "velocity": 95}, {"time": 71040, "pitch": 60, "duration": 150, "velocity": 100}, {"time": 71050, "pitch": 65, "duration": 130, "velocity": 105}, {"time": 71050, "pitch": 68, "duration": 130, "velocity": 110}, {"time": 71180, "pitch": 65, "duration": 10, "velocity": 60}, {"time": 71180, "pitch": 68, "duration": 10, "velocity": 65}, {"time": 71190, "pitch": 56, "duration": 10, "velocity": 50}, {"time": 71190, "pitch": 60, "duration": 10, "velocity": 55}, {"time": 71280, "pitch": 56, "duration": 240, "velocity": 95}, {"time": 71280, "pitch": 60, "duration": 240, "velocity": 100}, {"time": 71290, "pitch": 65, "duration": 240, "velocity": 105}, {"time": 71290, "pitch": 68, "duration": 240, "velocity": 110}, {"time": 71520, "pitch": 56, "duration": 10, "velocity": 85}, {"time": 71520, "pitch": 60, "duration": 10, "velocity": 90}, {"time": 71530, "pitch": 65, "duration": 10, "velocity": 95}, {"time": 71530, "pitch": 68, "duration": 10, "velocity": 100}, {"time": 71660, "pitch": 65, "duration": 240, "velocity": 105}, {"time": 71660, "pitch": 68, "duration": 240, "velocity": 110}, {"time": 71670, "pitch": 56, "duration": 240, "velocity": 95}, {"time": 71670, "pitch": 60, "duration": 240, "velocity": 100}, {"time": 71900, "pitch": 65, "duration": 110, "velocity": 100}, {"time": 71900, "pitch": 68, "duration": 110, "velocity": 105}, {"time": 71910, "pitch": 56, "duration": 90, "velocity": 90}, {"time": 71910, "pitch": 60, "duration": 90, "velocity": 95}, {"time": 72000, "pitch": 56, "duration": 150, "velocity": 95}, {"time": 72000, "pitch": 60, "duration": 150, "velocity": 100}, {"time": 72010, "pitch": 65, "duration": 130, "velocity": 105}, {"time": 72010, "pitch": 68, "duration": 130, "velocity": 110}, {"time": 72140, "pitch": 65, "duration": 10, "velocity": 60}, {"time": 72140, "pitch": 68, "duration": 10, "velocity": 65}, {"time": 72150, "pitch": 56, "duration": 10, "velocity": 50}, {"time": 72150, "pitch": 60, "duration": 10, "velocity": 55}, {"time": 72240, "pitch": 56, "duration": 240, "velocity": 95}, {"time": 72240, "pitch": 60, "duration": 240, "velocity": 100}, {"time": 72250, "pitch": 65, "duration": 240, "velocity": 105}, {"time": 72250, "pitch": 68, "duration": 240, "velocity": 110}, {"time": 72480, "pitch": 56, "duration": 10, "velocity": 85}, {"time": 72480, "pitch": 60, "duration": 10, "velocity": 90}, {"time": 72490, "pitch": 65, "duration": 10, "velocity": 95}, {"time": 72490, "pitch": 68, "duration": 10, "velocity": 100}, {"time": 72620, "pitch": 65, "duration": 240, "velocity": 105}, {"time": 72620, "pitch": 68, "duration": 240, "velocity": 110}, {"time": 72630, "pitch": 56, "duration": 240, "velocity": 95}, {"time": 72630, "pitch": 60, "duration": 240, "velocity": 100}, {"time": 72860, "pitch": 65, "duration": 110, "velocity": 100}, {"time": 72860, "pitch": 68, "duration": 110, "velocity": 105}, {"time": 72870, "pitch": 56, "duration": 90, "velocity": 90}, {"time": 72870, "pitch": 60, "duration": 90, "velocity": 95}, {"time": 72960, "pitch": 55, "duration": 150, "velocity": 95}, {"time": 72960, "pitch": 60, "duration": 150, "velocity": 100}, {"time": 72970, "pitch": 64, "duration": 130, "velocity": 105}, {"time": 72970, "pitch": 67, "duration": 130, "velocity": 110}, {"time": 73100, "pitch": 64, "duration": 10, "velocity": 60}, {"time": 73100, "pitch": 67, "duration": 10, "velocity": 65}, {"time": 73110, "pitch": 55, "duration": 10, "velocity": 50}, {"time": 73110, "pitch": 60, "duration": 10, "velocity": 55}, {"time": 73200, "pitch": 55, "duration": 240, "velocity": 95}, {"time": 73200, "pitch": 60, "duration": 240, "velocity": 100}, {"time": 73210, "pitch": 64, "duration": 240, "velocity": 105}, {"time": 73210, "pitch": 67, "duration": 240, "velocity": 110}, {"time": 73440, "pitch": 55, "duration": 10, "velocity": 85}, {"time": 73440, "pitch": 60, "duration": 10, "velocity": 90}, {"time": 73450, "pitch": 64, "duration": 10, "velocity": 95}, {"time": 73450, "pitch": 67, "duration": 10, "velocity": 100}, {"time": 73580, "pitch": 64, "duration": 240, "velocity": 105}, {"time": 73580, "pitch": 67, "duration": 240, "velocity": 110}, {"time": 73590, "pitch": 55, "duration": 240, "velocity": 95}, {"time": 73590, "pitch": 60, "duration": 240, "velocity": 100}, {"time": 73820, "pitch": 64, "duration": 110, "velocity": 100}, {"time": 73820, "pitch": 67, "duration": 110, "velocity": 105}, {"time": 73830, "pitch": 55, "duration": 90, "velocity": 90}, {"time": 73830, "pitch": 60, "duration": 90, "velocity": 95}, {"time": 73920, "pitch": 55, "duration": 150, "velocity": 95}, {"time": 73920, "pitch": 60, "duration": 150, "velocity": 100}, {"time": 73930, "pitch": 64, "duration": 130, "velocity": 105}, {"time": 73930, "pitch": 67, "duration": 130, "velocity": 110}, {"time": 74060, "pitch": 64, "duration": 10, "velocity": 60}, {"time": 74060, "pitch": 67, "duration": 10, "velocity": 65}, {"time": 74070, "pitch": 55, "duration": 10, "velocity": 50}, {"time": 74070, "pitch": 60, "duration": 10, "velocity": 55}, {"time": 74160, "pitch": 55, "duration": 240, "velocity": 95}, {"time": 74160, "pitch": 60, "duration": 240, "velocity": 100}, {"time": 74170, "pitch": 64, "duration": 240, "velocity": 105}, {"time": 74170, "pitch": 67, "duration": 240, "velocity": 110}, {"time": 74400, "pitch": 55, "duration": 10, "velocity": 85}, {"time": 74400, "pitch": 60, "duration": 10, "velocity": 90}, {"time": 74410, "pitch": 64, "duration": 10, "velocity": 95}, {"time": 74410, "pitch": 67, "duration": 10, "velocity": 100}, {"time": 74540, "pitch": 64, "duration": 240, "velocity": 105}, {"time": 74540, "pitch": 67, "duration": 240, "velocity": 110}, {"time": 74550, "pitch": 55, "duration": 240, "velocity": 95}, {"time": 74550, "pitch": 60, "duration": 240, "velocity": 100}, {"time": 74780, "pitch": 64, "duration": 110, "velocity": 100}, {"time": 74780, "pitch": 67, "duration": 110, "velocity": 105}, {"time": 74790, "pitch": 55, "duration": 90, "velocity": 90}, {"time": 74790, "pitch": 60, "duration": 90, "velocity": 95}, {"time": 74880, "pitch": 53, "duration": 150, "velocity": 95}, {"time": 74880, "pitch": 60, "duration": 150, "velocity": 100}, {"time": 74890, "pitch": 62, "duration": 130, "velocity": 105}, {"time": 74890, "pitch": 69, "duration": 130, "velocity": 110}, {"time": 75020, "pitch": 62, "duration": 10, "velocity": 60}, {"time": 75020, "pitch": 69, "duration": 10, "velocity": 65}, {"time": 75030, "pitch": 53, "duration": 10, "velocity": 50}, {"time": 75030, "pitch": 60, "duration": 10, "velocity": 55}, {"time": 75120, "pitch": 53, "duration": 240, "velocity": 95}, {"time": 75120, "pitch": 60, "duration": 240, "velocity": 100}, {"time": 75130, "pitch": 62, "duration": 240, "velocity": 105}, {"time": 75130, "pitch": 69, "duration": 240, "velocity": 110}, {"time": 75360, "pitch": 53, "duration": 10, "velocity": 85}, {"time": 75360, "pitch": 60, "duration": 10, "velocity": 90}, {"time": 75370, "pitch": 62, "duration": 10, "velocity": 95}, {"time": 75370, "pitch": 69, "duration": 10, "velocity": 100}, {"time": 75500, "pitch": 62, "duration": 240, "velocity": 105}, {"time": 75500, "pitch": 69, "duration": 240, "velocity": 110}, {"time": 75510, "pitch": 53, "duration": 240, "velocity": 95}, {"time": 75510, "pitch": 60, "duration": 240, "velocity": 100}, {"time": 75740, "pitch": 62, "duration": 110, "velocity": 100}, {"time": 75740, "pitch": 69, "duration": 110, "velocity": 105}, {"time": 75750, "pitch": 53, "duration": 90, "velocity": 90}, {"time": 75750, "pitch": 60, "duration": 90, "velocity": 95}, {"time": 75840, "pitch": 53, "duration": 150, "velocity": 95}, {"time": 75840, "pitch": 60, "duration": 150, "velocity": 100}, {"time": 75850, "pitch": 62, "duration": 130, "velocity": 105}, {"time": 75850, "pitch": 69, "duration": 130, "velocity": 110}, {"time": 75980, "pitch": 62, "duration": 10, "velocity": 60}, {"time": 75980, "pitch": 69, "duration": 10, "velocity": 65}, {"time": 75990, "pitch": 53, "duration": 10, "velocity": 50}, {"time": 75990, "pitch": 60, "duration": 10, "velocity": 55}, {"time": 76080, "pitch": 53, "duration": 240, "velocity": 95}, {"time": 76080, "pitch": 60, "duration": 240, "velocity": 100}, {"time": 76090, "pitch": 62, "duration": 240, "velocity": 105}, {"time": 76090, "pitch": 69, "duration": 240, "velocity": 110}, {"time": 76320, "pitch": 53, "duration": 10, "velocity": 85}, {"time": 76320, "pitch": 60, "duration": 10, "velocity": 90}, {"time": 76330, "pitch": 62, "duration": 10, "velocity": 95}, {"time": 76330, "pitch": 69, "duration": 10, "velocity": 100}, {"time": 76460, "pitch": 62, "duration": 240, "velocity": 105}, {"time": 76460, "pitch": 69, "duration": 240, "velocity": 110}, {"time": 76470, "pitch": 53, "duration": 240, "velocity": 95}, {"time": 76470, "pitch": 60, "duration": 240, "velocity": 100}, {"time": 76700, "pitch": 62, "duration": 80, "velocity": 100}, {"time": 76700, "pitch": 69, "duration": 80, "velocity": 105}, {"time": 76710, "pitch": 53, "duration": 70, "velocity": 90}, {"time": 76710, "pitch": 60, "duration": 70, "velocity": 95}, {"time": 76800, "pitch": 53, "duration": 150, "velocity": 95}, {"time": 76800, "pitch": 60, "duration": 150, "velocity": 100}, {"time": 76810, "pitch": 62, "duration": 130, "velocity": 105}, {"time": 76810, "pitch": 67, "duration": 130, "velocity": 110}, {"time": 76940, "pitch": 62, "duration": 10, "velocity": 60}, {"time": 76940, "pitch": 67, "duration": 10, "velocity": 65}, {"time": 76950, "pitch": 53, "duration": 10, "velocity": 50}, {"time": 76950, "pitch": 60, "duration": 10, "velocity": 55}, {"time": 77040, "pitch": 53, "duration": 240, "velocity": 95}, {"time": 77040, "pitch": 60, "duration": 240, "velocity": 100}, {"time": 77050, "pitch": 62, "duration": 240, "velocity": 105}, {"time": 77050, "pitch": 67, "duration": 240, "velocity": 110}, {"time": 77280, "pitch": 53, "duration": 10, "velocity": 85}, {"time": 77280, "pitch": 60, "duration": 10, "velocity": 90}, {"time": 77290, "pitch": 62, "duration": 10, "velocity": 95}, {"time": 77290, "pitch": 67, "duration": 10, "velocity": 100}, {"time": 77420, "pitch": 62, "duration": 240, "velocity": 105}, {"time": 77420, "pitch": 67, "duration": 240, "velocity": 110}, {"time": 77430, "pitch": 53, "duration": 240, "velocity": 95}, {"time": 77430, "pitch": 60, "duration": 240, "velocity": 100}, {"time": 77660, "pitch": 62, "duration": 110, "velocity": 100}, {"time": 77660, "pitch": 67, "duration": 110, "velocity": 105}, {"time": 77670, "pitch": 53, "duration": 90, "velocity": 90}, {"time": 77670, "pitch": 60, "duration": 90, "velocity": 95}, {"time": 77760, "pitch": 53, "duration": 150, "velocity": 95}, {"time": 77760, "pitch": 60, "duration": 150, "velocity": 100}, {"time": 77770, "pitch": 62, "duration": 130, "velocity": 105}, {"time": 77770, "pitch": 67, "duration": 130, "velocity": 110}, {"time": 77900, "pitch": 62, "duration": 10, "velocity": 60}, {"time": 77900, "pitch": 67, "duration": 10, "velocity": 65}, {"time": 77910, "pitch": 53, "duration": 10, "velocity": 50}, {"time": 77910, "pitch": 60, "duration": 10, "velocity": 55}, {"time": 78000, "pitch": 53, "duration": 240, "velocity": 95}, {"time": 78000, "pitch": 60, "duration": 240, "velocity": 100}, {"time": 78010, "pitch": 62, "duration": 240, "velocity": 105}, {"time": 78010, "pitch": 67, "duration": 240, "velocity": 110}, {"time": 78240, "pitch": 53, "duration": 10, "velocity": 85}, {"time": 78240, "pitch": 60, "duration": 10, "velocity": 90}, {"time": 78250, "pitch": 62, "duration": 10, "velocity": 95}, {"time": 78250, "pitch": 67, "duration": 10, "velocity": 100}, {"time": 78380, "pitch": 62, "duration": 240, "velocity": 105}, {"time": 78380, "pitch": 67, "duration": 240, "velocity": 110}, {"time": 78390, "pitch": 53, "duration": 240, "velocity": 95}, {"time": 78390, "pitch": 60, "duration": 240, "velocity": 100}, {"time": 78620, "pitch": 62, "duration": 80, "velocity": 100}, {"time": 78620, "pitch": 67, "duration": 80, "velocity": 105}, {"time": 78630, "pitch": 53, "duration": 70, "velocity": 90}, {"time": 78630, "pitch": 60, "duration": 70, "velocity": 95}, {"time": 78720, "pitch": 55, "duration": 150, "velocity": 95}, {"time": 78720, "pitch": 60, "duration": 150, "velocity": 100}, {"time": 78730, "pitch": 64, "duration": 130, "velocity": 105}, {"time": 78730, "pitch": 67, "duration": 130, "velocity": 110}, {"time": 78860, "pitch": 64, "duration": 10, "velocity": 60}, {"time": 78860, "pitch": 67, "duration": 10, "velocity": 65}, {"time": 78870, "pitch": 55, "duration": 10, "velocity": 50}, {"time": 78870, "pitch": 60, "duration": 10, "velocity": 55}, {"time": 78960, "pitch": 55, "duration": 240, "velocity": 95}, {"time": 78960, "pitch": 60, "duration": 240, "velocity": 100}, {"time": 78970, "pitch": 64, "duration": 240, "velocity": 105}, {"time": 78970, "pitch": 67, "duration": 240, "velocity": 110}, {"time": 79200, "pitch": 55, "duration": 10, "velocity": 85}, {"time": 79200, "pitch": 60, "duration": 10, "velocity": 90}, {"time": 79210, "pitch": 64, "duration": 10, "velocity": 95}, {"time": 79210, "pitch": 67, "duration": 10, "velocity": 100}, {"time": 79340, "pitch": 64, "duration": 240, "velocity": 105}, {"time": 79340, "pitch": 67, "duration": 240, "velocity": 110}, {"time": 79350, "pitch": 55, "duration": 240, "velocity": 95}, {"time": 79350, "pitch": 60, "duration": 240, "velocity": 100}, {"time": 79580, "pitch": 64, "duration": 110, "velocity": 100}, {"time": 79580, "pitch": 67, "duration": 110, "velocity": 105}, {"time": 79590, "pitch": 55, "duration": 90, "velocity": 90}, {"time": 79590, "pitch": 60, "duration": 90, "velocity": 95}, {"time": 79680, "pitch": 55, "duration": 150, "velocity": 95}, {"time": 79680, "pitch": 60, "duration": 150, "velocity": 100}, {"time": 79690, "pitch": 64, "duration": 130, "velocity": 105}, {"time": 79690, "pitch": 67, "duration": 130, "velocity": 110}, {"time": 79820, "pitch": 64, "duration": 10, "velocity": 60}, {"time": 79820, "pitch": 67, "duration": 10, "velocity": 65}, {"time": 79830, "pitch": 55, "duration": 10, "velocity": 50}, {"time": 79830, "pitch": 60, "duration": 10, "velocity": 55}, {"time": 79920, "pitch": 55, "duration": 240, "velocity": 95}, {"time": 79920, "pitch": 60, "duration": 240, "velocity": 100}, {"time": 79930, "pitch": 64, "duration": 240, "velocity": 105}, {"time": 79930, "pitch": 67, "duration": 240, "velocity": 110}, {"time": 80160, "pitch": 55, "duration": 10, "velocity": 85}, {"time": 80160, "pitch": 60, "duration": 10, "velocity": 90}, {"time": 80170, "pitch": 64, "duration": 10, "velocity": 95}, {"time": 80170, "pitch": 67, "duration": 10, "velocity": 100}, {"time": 80300, "pitch": 64, "duration": 240, "velocity": 105}, {"time": 80300, "pitch": 67, "duration": 240, "velocity": 110}, {"time": 80310, "pitch": 55, "duration": 240, "velocity": 95}, {"time": 80310, "pitch": 60, "duration": 240, "velocity": 100}, {"time": 80540, "pitch": 64, "duration": 110, "velocity": 100}, {"time": 80540, "pitch": 67, "duration": 110, "velocity": 105}, {"time": 80550, "pitch": 55, "duration": 90, "velocity": 90}, {"time": 80550, "pitch": 60, "duration": 90, "velocity": 95}, {"time": 80640, "pitch": 55, "duration": 150, "velocity": 95}, {"time": 80640, "pitch": 59, "duration": 150, "velocity": 100}, {"time": 80650, "pitch": 62, "duration": 130, "velocity": 105}, {"time": 80650, "pitch": 67, "duration": 130, "velocity": 110}, {"time": 80780, "pitch": 62, "duration": 10, "velocity": 60}, {"time": 80780, "pitch": 67, "duration": 10, "velocity": 65}, {"time": 80790, "pitch": 55, "duration": 10, "velocity": 50}, {"time": 80790, "pitch": 59, "duration": 10, "velocity": 55}, {"time": 80880, "pitch": 55, "duration": 240, "velocity": 95}, {"time": 80880, "pitch": 59, "duration": 240, "velocity": 100}, {"time": 80890, "pitch": 62, "duration": 240, "velocity": 105}, {"time": 80890, "pitch": 67, "duration": 240, "velocity": 110}, {"time": 81120, "pitch": 55, "duration": 10, "velocity": 85}, {"time": 81120, "pitch": 59, "duration": 10, "velocity": 90}, {"time": 81130, "pitch": 62, "duration": 10, "velocity": 95}, {"time": 81130, "pitch": 67, "duration": 10, "velocity": 100}, {"time": 81260, "pitch": 62, "duration": 240, "velocity": 105}, {"time": 81260, "pitch": 67, "duration": 240, "velocity": 110}, {"time": 81270, "pitch": 55, "duration": 240, "velocity": 95}, {"time": 81270, "pitch": 59, "duration": 240, "velocity": 100}, {"time": 81500, "pitch": 62, "duration": 110, "velocity": 100}, {"time": 81500, "pitch": 67, "duration": 110, "velocity": 105}, {"time": 81510, "pitch": 55, "duration": 90, "velocity": 90}, {"time": 81510, "pitch": 59, "duration": 90, "velocity": 95}, {"time": 81600, "pitch": 55, "duration": 150, "velocity": 95}, {"time": 81600, "pitch": 59, "duration": 150, "velocity": 100}, {"time": 81610, "pitch": 62, "duration": 130, "velocity": 105}, {"time": 81610, "pitch": 67, "duration": 130, "velocity": 110}, {"time": 81740, "pitch": 62, "duration": 10, "velocity": 60}, {"time": 81740, "pitch": 67, "duration": 10, "velocity": 65}, {"time": 81750, "pitch": 55, "duration": 10, "velocity": 50}, {"time": 81750, "pitch": 59, "duration": 10, "velocity": 55}, {"time": 81840, "pitch": 55, "duration": 240, "velocity": 95}, {"time": 81840, "pitch": 59, "duration": 240, "velocity": 100}, {"time": 81850, "pitch": 62, "duration": 240, "velocity": 105}, {"time": 81850, "pitch": 67, "duration": 240, "velocity": 110}, {"time": 82080, "pitch": 55, "duration": 10, "velocity": 85}, {"time": 82080, "pitch": 59, "duration": 10, "velocity": 90}, {"time": 82090, "pitch": 62, "duration": 10, "velocity": 95}, {"time": 82090, "pitch": 67, "duration": 10, "velocity": 100}, {"time": 82220, "pitch": 62, "duration": 240, "velocity": 105}, {"time": 82220, "pitch": 67, "duration": 240, "velocity": 110}, {"time": 82230, "pitch": 55, "duration": 240, "velocity": 95}, {"time": 82230, "pitch": 59, "duration": 240, "velocity": 100}, {"time": 82460, "pitch": 62, "duration": 80, "velocity": 100}, {"time": 82460, "pitch": 67, "duration": 80, "velocity": 105}, {"time": 82470, "pitch": 55, "duration": 70, "velocity": 90}, {"time": 82470, "pitch": 59, "duration": 70, "velocity": 95}, {"time": 82560, "pitch": 55, "duration": 250, "velocity": 95}, {"time": 82560, "pitch": 58, "duration": 250, "velocity": 100}, {"time": 82570, "pitch": 62, "duration": 230, "velocity": 105}, {"time": 82570, "pitch": 67, "duration": 230, "velocity": 110}, {"time": 82800, "pitch": 62, "duration": 250, "velocity": 95}, {"time": 82800, "pitch": 67, "duration": 250, "velocity": 100}, {"time": 82810, "pitch": 55, "duration": 230, "velocity": 85}, {"time": 82810, "pitch": 58, "duration": 230, "velocity": 90}, {"time": 83040, "pitch": 55, "duration": 240, "velocity": 105}, {"time": 83040, "pitch": 58, "duration": 240, "velocity": 110}, {"time": 83050, "pitch": 62, "duration": 240, "velocity": 115}, {"time": 83050, "pitch": 67, "duration": 240, "velocity": 120}, {"time": 83280, "pitch": 55, "duration": 150, "velocity": 85}, {"time": 83280, "pitch": 58, "duration": 150, "velocity": 90}, {"time": 83290, "pitch": 62, "duration": 130, "velocity": 95}, {"time": 83290, "pitch": 67, "duration": 130, "velocity": 100}, {"time": 83420, "pitch": 62, "duration": 110, "velocity": 90}, {"time": 83420, "pitch": 67, "duration": 110, "velocity": 95}, {"time": 83430, "pitch": 55, "duration": 90, "velocity": 80}, {"time": 83430, "pitch": 58, "duration": 90, "velocity": 85}, {"time": 83520, "pitch": 55, "duration": 150, "velocity": 65}, {"time": 83520, "pitch": 58, "duration": 150, "velocity": 70}, {"time": 83530, "pitch": 62, "duration": 130, "velocity": 75}, {"time": 83530, "pitch": 67, "duration": 130, "velocity": 80}, {"time": 83660, "pitch": 62, "duration": 110, "velocity": 105}, {"time": 83660, "pitch": 67, "duration": 110, "velocity": 110}, {"time": 83670, "pitch": 55, "duration": 90, "velocity": 95}, {"time": 83670, "pitch": 58, "duration": 90, "velocity": 100}, {"time": 83760, "pitch": 55, "duration": 150, "velocity": 65}, {"time": 83760, "pitch": 58, "duration": 150, "velocity": 70}, {"time": 83770, "pitch": 62, "duration": 130, "velocity": 75}, {"time": 83770, "pitch": 67, "duration": 130, "velocity": 80}, {"time": 83900, "pitch": 62, "duration": 110, "velocity": 105}, {"time": 83900, "pitch": 67, "duration": 110, "velocity": 110}, {"time": 83910, "pitch": 55, "duration": 90, "velocity": 95}, {"time": 83910, "pitch": 58, "duration": 90, "velocity": 100}, {"time": 84000, "pitch": 55, "duration": 240, "velocity": 105}, {"time": 84000, "pitch": 58, "duration": 240, "velocity": 110}, {"time": 84010, "pitch": 62, "duration": 240, "velocity": 115}, {"time": 84010, "pitch": 67, "duration": 240, "velocity": 120}, {"time": 84240, "pitch": 55, "duration": 150, "velocity": 85}, {"time": 84240, "pitch": 58, "duration": 150, "velocity": 90}, {"time": 84250, "pitch": 62, "duration": 130, "velocity": 95}, {"time": 84250, "pitch": 67, "duration": 130, "velocity": 100}, {"time": 84380, "pitch": 62, "duration": 80, "velocity": 90}, {"time": 84380, "pitch": 67, "duration": 80, "velocity": 95}, {"time": 84390, "pitch": 55, "duration": 70, "velocity": 80}, {"time": 84390, "pitch": 58, "duration": 70, "velocity": 85}, {"time": 84480, "pitch": 57, "duration": 150, "velocity": 95}, {"time": 84480, "pitch": 61, "duration": 150, "velocity": 100}, {"time": 84490, "pitch": 64, "duration": 130, "velocity": 105}, {"time": 84490, "pitch": 67, "duration": 130, "velocity": 110}, {"time": 84620, "pitch": 64, "duration": 10, "velocity": 60}, {"time": 84620, "pitch": 67, "duration": 10, "velocity": 65}, {"time": 84630, "pitch": 57, "duration": 10, "velocity": 50}, {"time": 84630, "pitch": 61, "duration": 10, "velocity": 55}, {"time": 84720, "pitch": 57, "duration": 240, "velocity": 95}, {"time": 84720, "pitch": 61, "duration": 240, "velocity": 100}, {"time": 84730, "pitch": 64, "duration": 240, "velocity": 105}, {"time": 84730, "pitch": 67, "duration": 240, "velocity": 110}, {"time": 84960, "pitch": 57, "duration": 10, "velocity": 85}, {"time": 84960, "pitch": 61, "duration": 10, "velocity": 90}, {"time": 84970, "pitch": 64, "duration": 10, "velocity": 95}, {"time": 84970, "pitch": 67, "duration": 10, "velocity": 100}, {"time": 85100, "pitch": 64, "duration": 240, "velocity": 105}, {"time": 85100, "pitch": 67, "duration": 240, "velocity": 110}, {"time": 85110, "pitch": 57, "duration": 240, "velocity": 95}, {"time": 85110, "pitch": 61, "duration": 240, "velocity": 100}, {"time": 85340, "pitch": 64, "duration": 110, "velocity": 100}, {"time": 85340, "pitch": 67, "duration": 110, "velocity": 105}, {"time": 85350, "pitch": 57, "duration": 90, "velocity": 90}, {"time": 85350, "pitch": 61, "duration": 90, "velocity": 95}, {"time": 85440, "pitch": 57, "duration": 150, "velocity": 95}, {"time": 85440, "pitch": 61, "duration": 150, "velocity": 100}, {"time": 85450, "pitch": 64, "duration": 130, "velocity": 105}, {"time": 85450, "pitch": 67, "duration": 130, "velocity": 110}, {"time": 85580, "pitch": 64, "duration": 10, "velocity": 60}, {"time": 85580, "pitch": 67, "duration": 10, "velocity": 65}, {"time": 85590, "pitch": 57, "duration": 10, "velocity": 50}, {"time": 85590, "pitch": 61, "duration": 10, "velocity": 55}, {"time": 85680, "pitch": 57, "duration": 240, "velocity": 95}, {"time": 85680, "pitch": 61, "duration": 240, "velocity": 100}, {"time": 85690, "pitch": 64, "duration": 240, "velocity": 105}, {"time": 85690, "pitch": 67, "duration": 240, "velocity": 110}, {"time": 85920, "pitch": 57, "duration": 10, "velocity": 85}, {"time": 85920, "pitch": 61, "duration": 10, "velocity": 90}, {"time": 85930, "pitch": 64, "duration": 10, "velocity": 95}, {"time": 85930, "pitch": 67, "duration": 10, "velocity": 100}, {"time": 86060, "pitch": 64, "duration": 240, "velocity": 105}, {"time": 86060, "pitch": 67, "duration": 240, "velocity": 110}, {"time": 86070, "pitch": 57, "duration": 240, "velocity": 95}, {"time": 86070, "pitch": 61, "duration": 240, "velocity": 100}, {"time": 86300, "pitch": 64, "duration": 80, "velocity": 100}, {"time": 86300, "pitch": 67, "duration": 80, "velocity": 105}, {"time": 86310, "pitch": 57, "duration": 70, "velocity": 90}, {"time": 86310, "pitch": 61, "duration": 70, "velocity": 95}, {"time": 86400, "pitch": 56, "duration": 150, "velocity": 95}, {"time": 86400, "pitch": 60, "duration": 150, "velocity": 100}, {"time": 86410, "pitch": 65, "duration": 130, "velocity": 105}, {"time": 86410, "pitch": 68, "duration": 130, "velocity": 110}, {"time": 86540, "pitch": 65, "duration": 10, "velocity": 60}, {"time": 86540, "pitch": 68, "duration": 10, "velocity": 65}, {"time": 86550, "pitch": 56, "duration": 10, "velocity": 50}, {"time": 86550, "pitch": 60, "duration": 10, "velocity": 55}, {"time": 86640, "pitch": 56, "duration": 240, "velocity": 95}, {"time": 86640, "pitch": 60, "duration": 240, "velocity": 100}, {"time": 86650, "pitch": 65, "duration": 240, "velocity": 105}, {"time": 86650, "pitch": 68, "duration": 240, "velocity": 110}, {"time": 86880, "pitch": 56, "duration": 10, "velocity": 85}, {"time": 86880, "pitch": 60, "duration": 10, "velocity": 90}, {"time": 86890, "pitch": 65, "duration": 10, "velocity": 95}, {"time": 86890, "pitch": 68, "duration": 10, "velocity": 100}, {"time": 87020, "pitch": 65, "duration": 240, "velocity": 105}, {"time": 87020, "pitch": 68, "duration": 240, "velocity": 110}, {"time": 87030, "pitch": 56, "duration": 240, "velocity": 95}, {"time": 87030, "pitch": 60, "duration": 240, "velocity": 100}, {"time": 87260, "pitch": 65, "duration": 110, "velocity": 100}, {"time": 87260, "pitch": 68, "duration": 110, "velocity": 105}, {"time": 87270, "pitch": 56, "duration": 90, "velocity": 90}, {"time": 87270, "pitch": 60, "duration": 90, "velocity": 95}, {"time": 87360, "pitch": 56, "duration": 150, "velocity": 95}, {"time": 87360, "pitch": 60, "duration": 150, "velocity": 100}, {"time": 87370, "pitch": 65, "duration": 130, "velocity": 105}, {"time": 87370, "pitch": 68, "duration": 130, "velocity": 110}, {"time": 87500, "pitch": 65, "duration": 10, "velocity": 60}, {"time": 87500, "pitch": 68, "duration": 10, "velocity": 65}, {"time": 87510, "pitch": 56, "duration": 10, "velocity": 50}, {"time": 87510, "pitch": 60, "duration": 10, "velocity": 55}, {"time": 87600, "pitch": 56, "duration": 240, "velocity": 95}, {"time": 87600, "pitch": 60, "duration": 240, "velocity": 100}, {"time": 87610, "pitch": 65, "duration": 240, "velocity": 105}, {"time": 87610, "pitch": 68, "duration": 240, "velocity": 110}, {"time": 87840, "pitch": 56, "duration": 10, "velocity": 85}, {"time": 87840, "pitch": 60, "duration": 10, "velocity": 90}, {"time": 87850, "pitch": 65, "duration": 10, "velocity": 95}, {"time": 87850, "pitch": 68, "duration": 10, "velocity": 100}, {"time": 87980, "pitch": 65, "duration": 240, "velocity": 105}, {"time": 87980, "pitch": 68, "duration": 240, "velocity": 110}, {"time": 87990, "pitch": 56, "duration": 240, "velocity": 95}, {"time": 87990, "pitch": 60, "duration": 240, "velocity": 100}, {"time": 88220, "pitch": 65, "duration": 110, "velocity": 100}, {"time": 88220, "pitch": 68, "duration": 110, "velocity": 105}, {"time": 88230, "pitch": 56, "duration": 90, "velocity": 90}, {"time": 88230, "pitch": 60, "duration": 90, "velocity": 95}, {"time": 88320, "pitch": 55, "duration": 150, "velocity": 95}, {"time": 88320, "pitch": 60, "duration": 150, "velocity": 100}, {"time": 88330, "pitch": 64, "duration": 130, "velocity": 105}, {"time": 88330, "pitch": 67, "duration": 130, "velocity": 110}, {"time": 88460, "pitch": 64, "duration": 10, "velocity": 60}, {"time": 88460, "pitch": 67, "duration": 10, "velocity": 65}, {"time": 88470, "pitch": 55, "duration": 10, "velocity": 50}, {"time": 88470, "pitch": 60, "duration": 10, "velocity": 55}, {"time": 88560, "pitch": 55, "duration": 240, "velocity": 95}, {"time": 88560, "pitch": 60, "duration": 240, "velocity": 100}, {"time": 88570, "pitch": 64, "duration": 240, "velocity": 105}, {"time": 88570, "pitch": 67, "duration": 240, "velocity": 110}, {"time": 88800, "pitch": 55, "duration": 10, "velocity": 85}, {"time": 88800, "pitch": 60, "duration": 10, "velocity": 90}, {"time": 88810, "pitch": 64, "duration": 10, "velocity": 95}, {"time": 88810, "pitch": 67, "duration": 10, "velocity": 100}, {"time": 88940, "pitch": 64, "duration": 240, "velocity": 105}, {"time": 88940, "pitch": 67, "duration": 240, "velocity": 110}, {"time": 88950, "pitch": 55, "duration": 240, "velocity": 95}, {"time": 88950, "pitch": 60, "duration": 240, "velocity": 100}, {"time": 89180, "pitch": 64, "duration": 110, "velocity": 100}, {"time": 89180, "pitch": 67, "duration": 110, "velocity": 105}, {"time": 89190, "pitch": 55, "duration": 90, "velocity": 90}, {"time": 89190, "pitch": 60, "duration": 90, "velocity": 95}, {"time": 89280, "pitch": 55, "duration": 150, "velocity": 95}, {"time": 89280, "pitch": 60, "duration": 150, "velocity": 100}, {"time": 89290, "pitch": 64, "duration": 130, "velocity": 105}, {"time": 89290, "pitch": 67, "duration": 130, "velocity": 110}, {"time": 89420, "pitch": 64, "duration": 10, "velocity": 60}, {"time": 89420, "pitch": 67, "duration": 10, "velocity": 65}, {"time": 89430, "pitch": 55, "duration": 10, "velocity": 50}, {"time": 89430, "pitch": 60, "duration": 10, "velocity": 55}, {"time": 89520, "pitch": 55, "duration": 240, "velocity": 95}, {"time": 89520, "pitch": 60, "duration": 240, "velocity": 100}, {"time": 89530, "pitch": 64, "duration": 240, "velocity": 105}, {"time": 89530, "pitch": 67, "duration": 240, "velocity": 110}, {"time": 89760, "pitch": 55, "duration": 10, "velocity": 85}, {"time": 89760, "pitch": 60, "duration": 10, "velocity": 90}, {"time": 89770, "pitch": 64, "duration": 10, "velocity": 95}, {"time": 89770, "pitch": 67, "duration": 10, "velocity": 100}, {"time": 89900, "pitch": 64, "duration": 240, "velocity": 105}, {"time": 89900, "pitch": 67, "duration": 240, "velocity": 110}, {"time": 89910, "pitch": 55, "duration": 240, "velocity": 95}, {"time": 89910, "pitch": 60, "duration": 240, "velocity": 100}, {"time": 90140, "pitch": 64, "duration": 110, "velocity": 100}, {"time": 90140, "pitch": 67, "duration": 110, "velocity": 105}, {"time": 90150, "pitch": 55, "duration": 90, "velocity": 90}, {"time": 90150, "pitch": 60, "duration": 90, "velocity": 95}, {"time": 90240, "pitch": 53, "duration": 150, "velocity": 95}, {"time": 90240, "pitch": 60, "duration": 150, "velocity": 100}, {"time": 90250, "pitch": 62, "duration": 130, "velocity": 105}, {"time": 90250, "pitch": 69, "duration": 130, "velocity": 110}, {"time": 90380, "pitch": 62, "duration": 10, "velocity": 60}, {"time": 90380, "pitch": 69, "duration": 10, "velocity": 65}, {"time": 90390, "pitch": 53, "duration": 10, "velocity": 50}, {"time": 90390, "pitch": 60, "duration": 10, "velocity": 55}, {"time": 90480, "pitch": 53, "duration": 240, "velocity": 95}, {"time": 90480, "pitch": 60, "duration": 240, "velocity": 100}, {"time": 90490, "pitch": 62, "duration": 240, "velocity": 105}, {"time": 90490, "pitch": 69, "duration": 240, "velocity": 110}, {"time": 90720, "pitch": 53, "duration": 10, "velocity": 85}, {"time": 90720, "pitch": 60, "duration": 10, "velocity": 90}, {"time": 90730, "pitch": 62, "duration": 10, "velocity": 95}, {"time": 90730, "pitch": 69, "duration": 10, "velocity": 100}, {"time": 90860, "pitch": 62, "duration": 240, "velocity": 105}, {"time": 90860, "pitch": 69, "duration": 240, "velocity": 110}, {"time": 90870, "pitch": 53, "duration": 240, "velocity": 95}, {"time": 90870, "pitch": 60, "duration": 240, "velocity": 100}, {"time": 91100, "pitch": 62, "duration": 110, "velocity": 100}, {"time": 91100, "pitch": 69, "duration": 110, "velocity": 105}, {"time": 91110, "pitch": 53, "duration": 90, "velocity": 90}, {"time": 91110, "pitch": 60, "duration": 90, "velocity": 95}, {"time": 91200, "pitch": 53, "duration": 150, "velocity": 95}, {"time": 91200, "pitch": 60, "duration": 150, "velocity": 100}, {"time": 91210, "pitch": 62, "duration": 130, "velocity": 105}, {"time": 91210, "pitch": 69, "duration": 130, "velocity": 110}, {"time": 91340, "pitch": 62, "duration": 10, "velocity": 60}, {"time": 91340, "pitch": 69, "duration": 10, "velocity": 65}, {"time": 91350, "pitch": 53, "duration": 10, "velocity": 50}, {"time": 91350, "pitch": 60, "duration": 10, "velocity": 55}, {"time": 91440, "pitch": 53, "duration": 240, "velocity": 95}, {"time": 91440, "pitch": 60, "duration": 240, "velocity": 100}, {"time": 91450, "pitch": 62, "duration": 240, "velocity": 105}, {"time": 91450, "pitch": 69, "duration": 240, "velocity": 110}, {"time": 91680, "pitch": 53, "duration": 10, "velocity": 85}, {"time": 91680, "pitch": 60, "duration": 10, "velocity": 90}, {"time": 91690, "pitch": 62, "duration": 10, "velocity": 95}, {"time": 91690, "pitch": 69, "duration": 10, "velocity": 100}, {"time": 91820, "pitch": 62, "duration": 240, "velocity": 105}, {"time": 91820, "pitch": 69, "duration": 240, "velocity": 110}, {"time": 91830, "pitch": 53, "duration": 240, "velocity": 95}, {"time": 91830, "pitch": 60, "duration": 240, "velocity": 100}, {"time": 92060, "pitch": 62, "duration": 80, "velocity": 100}, {"time": 92060, "pitch": 69, "duration": 80, "velocity": 105}, {"time": 92070, "pitch": 53, "duration": 70, "velocity": 90}, {"time": 92070, "pitch": 60, "duration": 70, "velocity": 95}, {"time": 92160, "pitch": 55, "duration": 150, "velocity": 95}, {"time": 92160, "pitch": 60, "duration": 150, "velocity": 100}, {"time": 92170, "pitch": 62, "duration": 130, "velocity": 105}, {"time": 92170, "pitch": 68, "duration": 130, "velocity": 110}, {"time": 92300, "pitch": 62, "duration": 10, "velocity": 60}, {"time": 92300, "pitch": 68, "duration": 10, "velocity": 65}, {"time": 92310, "pitch": 55, "duration": 10, "velocity": 50}, {"time": 92310, "pitch": 60, "duration": 10, "velocity": 55}, {"time": 92400, "pitch": 55, "duration": 240, "velocity": 95}, {"time": 92400, "pitch": 60, "duration": 240, "velocity": 100}, {"time": 92410, "pitch": 62, "duration": 240, "velocity": 105}, {"time": 92410, "pitch": 68, "duration": 240, "velocity": 110}, {"time": 92640, "pitch": 55, "duration": 10, "velocity": 85}, {"time": 92640, "pitch": 60, "duration": 10, "velocity": 90}, {"time": 92650, "pitch": 62, "duration": 10, "velocity": 95}, {"time": 92650, "pitch": 68, "duration": 10, "velocity": 100}, {"time": 92780, "pitch": 62, "duration": 240, "velocity": 105}, {"time": 92780, "pitch": 68, "duration": 240, "velocity": 110}, {"time": 92790, "pitch": 55, "duration": 240, "velocity": 95}, {"time": 92790, "pitch": 60, "duration": 240, "velocity": 100}, {"time": 93020, "pitch": 62, "duration": 110, "velocity": 100}, {"time": 93020, "pitch": 68, "duration": 110, "velocity": 105}, {"time": 93030, "pitch": 55, "duration": 90, "velocity": 90}, {"time": 93030, "pitch": 60, "duration": 90, "velocity": 95}, {"time": 93120, "pitch": 55, "duration": 940, "velocity": 95}, {"time": 93120, "pitch": 60, "duration": 940, "velocity": 100}, {"time": 93130, "pitch": 62, "duration": 930, "velocity": 105}, {"time": 93130, "pitch": 68, "duration": 930, "velocity": 110}, {"time": 94080, "pitch": 55, "duration": 150, "velocity": 95}, {"time": 94080, "pitch": 60, "duration": 150, "velocity": 100}, {"time": 94090, "pitch": 64, "duration": 130, "velocity": 105}, {"time": 94090, "pitch": 67, "duration": 130, "velocity": 110}, {"time": 94220, "pitch": 64, "duration": 10, "velocity": 60}, {"time": 94220, "pitch": 67, "duration": 10, "velocity": 65}, {"time": 94230, "pitch": 55, "duration": 10, "velocity": 50}, {"time": 94230, "pitch": 60, "duration": 10, "velocity": 55}, {"time": 94320, "pitch": 55, "duration": 240, "velocity": 95}, {"time": 94320, "pitch": 60, "duration": 240, "velocity": 100}, {"time": 94330, "pitch": 64, "duration": 240, "velocity": 105}, {"time": 94330, "pitch": 67, "duration": 240, "velocity": 110}, {"time": 94560, "pitch": 55, "duration": 10, "velocity": 85}, {"time": 94560, "pitch": 60, "duration": 10, "velocity": 90}, {"time": 94570, "pitch": 64, "duration": 10, "velocity": 95}, {"time": 94570, "pitch": 67, "duration": 10, "velocity": 100}, {"time": 94700, "pitch": 64, "duration": 240, "velocity": 105}, {"time": 94700, "pitch": 67, "duration": 240, "velocity": 110}, {"time": 94710, "pitch": 55, "duration": 240, "velocity": 95}, {"time": 94710, "pitch": 60, "duration": 240, "velocity": 100}, {"time": 94940, "pitch": 64, "duration": 110, "velocity": 100}, {"time": 94940, "pitch": 67, "duration": 110, "velocity": 105}, {"time": 94950, "pitch": 55, "duration": 90, "velocity": 90}, {"time": 94950, "pitch": 60, "duration": 90, "velocity": 95}, {"time": 95040, "pitch": 55, "duration": 150, "velocity": 95}, {"time": 95040, "pitch": 60, "duration": 150, "velocity": 100}, {"time": 95050, "pitch": 64, "duration": 130, "velocity": 105}, {"time": 95050, "pitch": 67, "duration": 130, "velocity": 110}, {"time": 95180, "pitch": 64, "duration": 10, "velocity": 60}, {"time": 95180, "pitch": 67, "duration": 10, "velocity": 65}, {"time": 95190, "pitch": 55, "duration": 10, "velocity": 50}, {"time": 95190, "pitch": 60, "duration": 10, "velocity": 55}, {"time": 95280, "pitch": 55, "duration": 240, "velocity": 95}, {"time": 95280, "pitch": 60, "duration": 240, "velocity": 100}, {"time": 95290, "pitch": 64, "duration": 240, "velocity": 105}, {"time": 95290, "pitch": 67, "duration": 240, "velocity": 110}, {"time": 95520, "pitch": 55, "duration": 10, "velocity": 85}, {"time": 95520, "pitch": 60, "duration": 10, "velocity": 90}, {"time": 95530, "pitch": 64, "duration": 10, "velocity": 95}, {"time": 95530, "pitch": 67, "duration": 10, "velocity": 100}, {"time": 95660, "pitch": 64, "duration": 240, "velocity": 105}, {"time": 95660, "pitch": 67, "duration": 240, "velocity": 110}, {"time": 95670, "pitch": 55, "duration": 240, "velocity": 95}, {"time": 95670, "pitch": 60, "duration": 240, "velocity": 100}, {"time": 95900, "pitch": 64, "duration": 110, "velocity": 100}, {"time": 95900, "pitch": 67, "duration": 110, "velocity": 105}, {"time": 95910, "pitch": 55, "duration": 90, "velocity": 90}, {"time": 95910, "pitch": 60, "duration": 90, "velocity": 95}, {"time": 96000, "pitch": 55, "duration": 150, "velocity": 95}, {"time": 96000, "pitch": 59, "duration": 150, "velocity": 100}, {"time": 96010, "pitch": 62, "duration": 130, "velocity": 105}, {"time": 96010, "pitch": 67, "duration": 130, "velocity": 110}, {"time": 96140, "pitch": 62, "duration": 10, "velocity": 60}, {"time": 96140, "pitch": 67, "duration": 10, "velocity": 65}, {"time": 96150, "pitch": 55, "duration": 10, "velocity": 50}, {"time": 96150, "pitch": 59, "duration": 10, "velocity": 55}, {"time": 96240, "pitch": 55, "duration": 240, "velocity": 95}, {"time": 96240, "pitch": 59, "duration": 240, "velocity": 100}, {"time": 96250, "pitch": 62, "duration": 240, "velocity": 105}, {"time": 96250, "pitch": 67, "duration": 240, "velocity": 110}, {"time": 96480, "pitch": 55, "duration": 10, "velocity": 85}, {"time": 96480, "pitch": 59, "duration": 10, "velocity": 90}, {"time": 96490, "pitch": 62, "duration": 10, "velocity": 95}, {"time": 96490, "pitch": 67, "duration": 10, "velocity": 100}, {"time": 96620, "pitch": 62, "duration": 240, "velocity": 105}, {"time": 96620, "pitch": 67, "duration": 240, "velocity": 110}, {"time": 96630, "pitch": 55, "duration": 240, "velocity": 95}, {"time": 96630, "pitch": 59, "duration": 240, "velocity": 100}, {"time": 96860, "pitch": 62, "duration": 110, "velocity": 100}, {"time": 96860, "pitch": 67, "duration": 110, "velocity": 105}, {"time": 96870, "pitch": 55, "duration": 90, "velocity": 90}, {"time": 96870, "pitch": 59, "duration": 90, "velocity": 95}, {"time": 96960, "pitch": 55, "duration": 150, "velocity": 95}, {"time": 96960, "pitch": 59, "duration": 150, "velocity": 100}, {"time": 96970, "pitch": 62, "duration": 130, "velocity": 105}, {"time": 96970, "pitch": 67, "duration": 130, "velocity": 110}, {"time": 97100, "pitch": 62, "duration": 10, "velocity": 60}, {"time": 97100, "pitch": 67, "duration": 10, "velocity": 65}, {"time": 97110, "pitch": 55, "duration": 10, "velocity": 50}, {"time": 97110, "pitch": 59, "duration": 10, "velocity": 55}, {"time": 97200, "pitch": 55, "duration": 240, "velocity": 95}, {"time": 97200, "pitch": 59, "duration": 240, "velocity": 100}, {"time": 97210, "pitch": 62, "duration": 240, "velocity": 105}, {"time": 97210, "pitch": 67, "duration": 240, "velocity": 110}, {"time": 97440, "pitch": 55, "duration": 10, "velocity": 85}, {"time": 97440, "pitch": 59, "duration": 10, "velocity": 90}, {"time": 97450, "pitch": 62, "duration": 10, "velocity": 95}, {"time": 97450, "pitch": 67, "duration": 10, "velocity": 100}, {"time": 97580, "pitch": 62, "duration": 240, "velocity": 105}, {"time": 97580, "pitch": 67, "duration": 240, "velocity": 110}, {"time": 97590, "pitch": 55, "duration": 240, "velocity": 95}, {"time": 97590, "pitch": 59, "duration": 240, "velocity": 100}, {"time": 97820, "pitch": 62, "duration": 80, "velocity": 100}, {"time": 97820, "pitch": 67, "duration": 80, "velocity": 105}, {"time": 97830, "pitch": 55, "duration": 70, "velocity": 90}, {"time": 97830, "pitch": 59, "duration": 70, "velocity": 95}, {"time": 97920, "pitch": 57, "duration": 150, "velocity": 95}, {"time": 97920, "pitch": 60, "duration": 150, "velocity": 100}, {"time": 97930, "pitch": 64, "duration": 130, "velocity": 105}, {"time": 97930, "pitch": 67, "duration": 130, "velocity": 110}, {"time": 98060, "pitch": 64, "duration": 10, "velocity": 60}, {"time": 98060, "pitch": 67, "duration": 10, "velocity": 65}, {"time": 98070, "pitch": 57, "duration": 10, "velocity": 50}, {"time": 98070, "pitch": 60, "duration": 10, "velocity": 55}, {"time": 98160, "pitch": 57, "duration": 240, "velocity": 95}, {"time": 98160, "pitch": 60, "duration": 240, "velocity": 100}, {"time": 98170, "pitch": 64, "duration": 240, "velocity": 105}, {"time": 98170, "pitch": 67, "duration": 240, "velocity": 110}, {"time": 98400, "pitch": 57, "duration": 10, "velocity": 85}, {"time": 98400, "pitch": 60, "duration": 10, "velocity": 90}, {"time": 98410, "pitch": 64, "duration": 10, "velocity": 95}, {"time": 98410, "pitch": 67, "duration": 10, "velocity": 100}, {"time": 98540, "pitch": 64, "duration": 240, "velocity": 105}, {"time": 98540, "pitch": 67, "duration": 240, "velocity": 110}, {"time": 98550, "pitch": 57, "duration": 240, "velocity": 95}, {"time": 98550, "pitch": 60, "duration": 240, "velocity": 100}, {"time": 98780, "pitch": 64, "duration": 110, "velocity": 100}, {"time": 98780, "pitch": 67, "duration": 110, "velocity": 105}, {"time": 98790, "pitch": 57, "duration": 90, "velocity": 90}, {"time": 98790, "pitch": 60, "duration": 90, "velocity": 95}, {"time": 98880, "pitch": 57, "duration": 150, "velocity": 95}, {"time": 98880, "pitch": 60, "duration": 150, "velocity": 100}, {"time": 98890, "pitch": 64, "duration": 130, "velocity": 105}, {"time": 98890, "pitch": 67, "duration": 130, "velocity": 110}, {"time": 99020, "pitch": 64, "duration": 10, "velocity": 60}, {"time": 99020, "pitch": 67, "duration": 10, "velocity": 65}, {"time": 99030, "pitch": 57, "duration": 10, "velocity": 50}, {"time": 99030, "pitch": 60, "duration": 10, "velocity": 55}, {"time": 99120, "pitch": 57, "duration": 240, "velocity": 95}, {"time": 99120, "pitch": 60, "duration": 240, "velocity": 100}, {"time": 99130, "pitch": 64, "duration": 240, "velocity": 105}, {"time": 99130, "pitch": 67, "duration": 240, "velocity": 110}, {"time": 99360, "pitch": 57, "duration": 10, "velocity": 85}, {"time": 99360, "pitch": 60, "duration": 10, "velocity": 90}, {"time": 99370, "pitch": 64, "duration": 10, "velocity": 95}, {"time": 99370, "pitch": 67, "duration": 10, "velocity": 100}, {"time": 99500, "pitch": 64, "duration": 240, "velocity": 105}, {"time": 99500, "pitch": 67, "duration": 240, "velocity": 110}, {"time": 99510, "pitch": 57, "duration": 240, "velocity": 95}, {"time": 99510, "pitch": 60, "duration": 240, "velocity": 100}, {"time": 99740, "pitch": 64, "duration": 80, "velocity": 100}, {"time": 99740, "pitch": 67, "duration": 80, "velocity": 105}, {"time": 99750, "pitch": 57, "duration": 70, "velocity": 90}, {"time": 99750, "pitch": 60, "duration": 70, "velocity": 95}, {"time": 99840, "pitch": 55, "duration": 150, "velocity": 95}, {"time": 99840, "pitch": 62, "duration": 150, "velocity": 100}, {"time": 99850, "pitch": 64, "duration": 130, "velocity": 105}, {"time": 99850, "pitch": 71, "duration": 130, "velocity": 110}, {"time": 99980, "pitch": 64, "duration": 10, "velocity": 60}, {"time": 99980, "pitch": 71, "duration": 10, "velocity": 65}, {"time": 99990, "pitch": 55, "duration": 10, "velocity": 50}, {"time": 99990, "pitch": 62, "duration": 10, "velocity": 55}, {"time": 100080, "pitch": 55, "duration": 240, "velocity": 95}, {"time": 100080, "pitch": 62, "duration": 240, "velocity": 100}, {"time": 100090, "pitch": 64, "duration": 240, "velocity": 105}, {"time": 100090, "pitch": 71, "duration": 240, "velocity": 110}, {"time": 100320, "pitch": 55, "duration": 10, "velocity": 85}, {"time": 100320, "pitch": 62, "duration": 10, "velocity": 90}, {"time": 100330, "pitch": 64, "duration": 10, "velocity": 95}, {"time": 100330, "pitch": 71, "duration": 10, "velocity": 100}, {"time": 100460, "pitch": 64, "duration": 240, "velocity": 105}, {"time": 100460, "pitch": 71, "duration": 240, "velocity": 110}, {"time": 100470, "pitch": 55, "duration": 240, "velocity": 95}, {"time": 100470, "pitch": 62, "duration": 240, "velocity": 100}, {"time": 100700, "pitch": 64, "duration": 110, "velocity": 100}, {"time": 100700, "pitch": 71, "duration": 110, "velocity": 105}, {"time": 100710, "pitch": 55, "duration": 90, "velocity": 90}, {"time": 100710, "pitch": 62, "duration": 90, "velocity": 95}, {"time": 100800, "pitch": 55, "duration": 150, "velocity": 95}, {"time": 100800, "pitch": 62, "duration": 150, "velocity": 100}, {"time": 100810, "pitch": 64, "duration": 130, "velocity": 105}, {"time": 100810, "pitch": 71, "duration": 130, "velocity": 110}, {"time": 100940, "pitch": 64, "duration": 10, "velocity": 60}, {"time": 100940, "pitch": 71, "duration": 10, "velocity": 65}, {"time": 100950, "pitch": 55, "duration": 10, "velocity": 50}, {"time": 100950, "pitch": 62, "duration": 10, "velocity": 55}, {"time": 101040, "pitch": 55, "duration": 240, "velocity": 95}, {"time": 101040, "pitch": 62, "duration": 240, "velocity": 100}, {"time": 101050, "pitch": 64, "duration": 240, "velocity": 105}, {"time": 101050, "pitch": 71, "duration": 240, "velocity": 110}, {"time": 101280, "pitch": 55, "duration": 10, "velocity": 85}, {"time": 101280, "pitch": 62, "duration": 10, "velocity": 90}, {"time": 101290, "pitch": 64, "duration": 10, "velocity": 95}, {"time": 101290, "pitch": 71, "duration": 10, "velocity": 100}, {"time": 101420, "pitch": 64, "duration": 240, "velocity": 105}, {"time": 101420, "pitch": 71, "duration": 240, "velocity": 110}, {"time": 101430, "pitch": 55, "duration": 240, "velocity": 95}, {"time": 101430, "pitch": 62, "duration": 240, "velocity": 100}, {"time": 101660, "pitch": 64, "duration": 80, "velocity": 100}, {"time": 101660, "pitch": 71, "duration": 80, "velocity": 105}, {"time": 101670, "pitch": 55, "duration": 70, "velocity": 90}, {"time": 101670, "pitch": 62, "duration": 70, "velocity": 95}, {"time": 101760, "pitch": 53, "duration": 150, "velocity": 95}, {"time": 101760, "pitch": 60, "duration": 150, "velocity": 100}, {"time": 101770, "pitch": 62, "duration": 130, "velocity": 105}, {"time": 101770, "pitch": 69, "duration": 130, "velocity": 110}, {"time": 101900, "pitch": 62, "duration": 10, "velocity": 60}, {"time": 101900, "pitch": 69, "duration": 10, "velocity": 65}, {"time": 101910, "pitch": 53, "duration": 10, "velocity": 50}, {"time": 101910, "pitch": 60, "duration": 10, "velocity": 55}, {"time": 102000, "pitch": 53, "duration": 240, "velocity": 95}, {"time": 102000, "pitch": 60, "duration": 240, "velocity": 100}, {"time": 102010, "pitch": 62, "duration": 240, "velocity": 105}, {"time": 102010, "pitch": 69, "duration": 240, "velocity": 110}, {"time": 102240, "pitch": 53, "duration": 10, "velocity": 85}, {"time": 102240, "pitch": 60, "duration": 10, "velocity": 90}, {"time": 102250, "pitch": 62, "duration": 10, "velocity": 95}, {"time": 102250, "pitch": 69, "duration": 10, "velocity": 100}, {"time": 102380, "pitch": 62, "duration": 240, "velocity": 105}, {"time": 102380, "pitch": 69, "duration": 240, "velocity": 110}, {"time": 102390, "pitch": 53, "duration": 240, "velocity": 95}, {"time": 102390, "pitch": 60, "duration": 240, "velocity": 100}, {"time": 102620, "pitch": 62, "duration": 110, "velocity": 100}, {"time": 102620, "pitch": 69, "duration": 110, "velocity": 105}, {"time": 102630, "pitch": 53, "duration": 90, "velocity": 90}, {"time": 102630, "pitch": 60, "duration": 90, "velocity": 95}, {"time": 102720, "pitch": 53, "duration": 150, "velocity": 95}, {"time": 102720, "pitch": 60, "duration": 150, "velocity": 100}, {"time": 102730, "pitch": 62, "duration": 130, "velocity": 105}, {"time": 102730, "pitch": 69, "duration": 130, "velocity": 110}, {"time": 102860, "pitch": 62, "duration": 10, "velocity": 60}, {"time": 102860, "pitch": 69, "duration": 10, "velocity": 65}, {"time": 102870, "pitch": 53, "duration": 10, "velocity": 50}, {"time": 102870, "pitch": 60, "duration": 10, "velocity": 55}, {"time": 102960, "pitch": 53, "duration": 240, "velocity": 95}, {"time": 102960, "pitch": 60, "duration": 240, "velocity": 100}, {"time": 102970, "pitch": 62, "duration": 240, "velocity": 105}, {"time": 102970, "pitch": 69, "duration": 240, "velocity": 110}, {"time": 103200, "pitch": 53, "duration": 10, "velocity": 85}, {"time": 103200, "pitch": 60, "duration": 10, "velocity": 90}, {"time": 103210, "pitch": 62, "duration": 10, "velocity": 95}, {"time": 103210, "pitch": 69, "duration": 10, "velocity": 100}, {"time": 103340, "pitch": 62, "duration": 240, "velocity": 105}, {"time": 103340, "pitch": 69, "duration": 240, "velocity": 110}, {"time": 103350, "pitch": 53, "duration": 240, "velocity": 95}, {"time": 103350, "pitch": 60, "duration": 240, "velocity": 100}, {"time": 103580, "pitch": 62, "duration": 80, "velocity": 100}, {"time": 103580, "pitch": 69, "duration": 80, "velocity": 105}, {"time": 103590, "pitch": 53, "duration": 70, "velocity": 90}, {"time": 103590, "pitch": 60, "duration": 70, "velocity": 95}, {"time": 103680, "pitch": 57, "duration": 150, "velocity": 95}, {"time": 103680, "pitch": 60, "duration": 150, "velocity": 100}, {"time": 103690, "pitch": 64, "duration": 130, "velocity": 105}, {"time": 103690, "pitch": 67, "duration": 130, "velocity": 110}, {"time": 103820, "pitch": 64, "duration": 10, "velocity": 60}, {"time": 103820, "pitch": 67, "duration": 10, "velocity": 65}, {"time": 103830, "pitch": 57, "duration": 10, "velocity": 50}, {"time": 103830, "pitch": 60, "duration": 10, "velocity": 55}, {"time": 103920, "pitch": 57, "duration": 240, "velocity": 95}, {"time": 103920, "pitch": 60, "duration": 240, "velocity": 100}, {"time": 103930, "pitch": 64, "duration": 240, "velocity": 105}, {"time": 103930, "pitch": 67, "duration": 240, "velocity": 110}, {"time": 104160, "pitch": 57, "duration": 10, "velocity": 85}, {"time": 104160, "pitch": 60, "duration": 10, "velocity": 90}, {"time": 104170, "pitch": 64, "duration": 10, "velocity": 95}, {"time": 104170, "pitch": 67, "duration": 10, "velocity": 100}, {"time": 104300, "pitch": 64, "duration": 240, "velocity": 105}, {"time": 104300, "pitch": 67, "duration": 240, "velocity": 110}, {"time": 104310, "pitch": 57, "duration": 240, "velocity": 95}, {"time": 104310, "pitch": 60, "duration": 240, "velocity": 100}, {"time": 104540, "pitch": 64, "duration": 110, "velocity": 100}, {"time": 104540, "pitch": 67, "duration": 110, "velocity": 105}, {"time": 104550, "pitch": 57, "duration": 90, "velocity": 90}, {"time": 104550, "pitch": 60, "duration": 90, "velocity": 95}, {"time": 104640, "pitch": 57, "duration": 150, "velocity": 95}, {"time": 104640, "pitch": 60, "duration": 150, "velocity": 100}, {"time": 104650, "pitch": 64, "duration": 130, "velocity": 105}, {"time": 104650, "pitch": 67, "duration": 130, "velocity": 110}, {"time": 104780, "pitch": 64, "duration": 10, "velocity": 60}, {"time": 104780, "pitch": 67, "duration": 10, "velocity": 65}, {"time": 104790, "pitch": 57, "duration": 10, "velocity": 50}, {"time": 104790, "pitch": 60, "duration": 10, "velocity": 55}, {"time": 104880, "pitch": 57, "duration": 240, "velocity": 95}, {"time": 104880, "pitch": 60, "duration": 240, "velocity": 100}, {"time": 104890, "pitch": 64, "duration": 240, "velocity": 105}, {"time": 104890, "pitch": 67, "duration": 240, "velocity": 110}, {"time": 105120, "pitch": 57, "duration": 10, "velocity": 85}, {"time": 105120, "pitch": 60, "duration": 10, "velocity": 90}, {"time": 105130, "pitch": 64, "duration": 10, "velocity": 95}, {"time": 105130, "pitch": 67, "duration": 10, "velocity": 100}, {"time": 105260, "pitch": 64, "duration": 240, "velocity": 105}, {"time": 105260, "pitch": 67, "duration": 240, "velocity": 110}, {"time": 105270, "pitch": 57, "duration": 240, "velocity": 95}, {"time": 105270, "pitch": 60, "duration": 240, "velocity": 100}, {"time": 105500, "pitch": 64, "duration": 80, "velocity": 100}, {"time": 105500, "pitch": 67, "duration": 80, "velocity": 105}, {"time": 105510, "pitch": 57, "duration": 70, "velocity": 90}, {"time": 105510, "pitch": 60, "duration": 70, "velocity": 95}, {"time": 105600, "pitch": 53, "duration": 150, "velocity": 95}, {"time": 105600, "pitch": 60, "duration": 150, "velocity": 100}, {"time": 105610, "pitch": 62, "duration": 130, "velocity": 105}, {"time": 105610, "pitch": 68, "duration": 130, "velocity": 110}, {"time": 105740, "pitch": 62, "duration": 10, "velocity": 60}, {"time": 105740, "pitch": 68, "duration": 10, "velocity": 65}, {"time": 105750, "pitch": 53, "duration": 10, "velocity": 50}, {"time": 105750, "pitch": 60, "duration": 10, "velocity": 55}, {"time": 105840, "pitch": 53, "duration": 240, "velocity": 95}, {"time": 105840, "pitch": 60, "duration": 240, "velocity": 100}, {"time": 105850, "pitch": 62, "duration": 240, "velocity": 105}, {"time": 105850, "pitch": 68, "duration": 240, "velocity": 110}, {"time": 106080, "pitch": 53, "duration": 10, "velocity": 85}, {"time": 106080, "pitch": 60, "duration": 10, "velocity": 90}, {"time": 106090, "pitch": 62, "duration": 10, "velocity": 95}, {"time": 106090, "pitch": 68, "duration": 10, "velocity": 100}, {"time": 106220, "pitch": 62, "duration": 240, "velocity": 105}, {"time": 106220, "pitch": 68, "duration": 240, "velocity": 110}, {"time": 106230, "pitch": 53, "duration": 240, "velocity": 95}, {"time": 106230, "pitch": 60, "duration": 240, "velocity": 100}, {"time": 106460, "pitch": 62, "duration": 110, "velocity": 100}, {"time": 106460, "pitch": 68, "duration": 110, "velocity": 105}, {"time": 106470, "pitch": 53, "duration": 90, "velocity": 90}, {"time": 106470, "pitch": 60, "duration": 90, "velocity": 95}, {"time": 106560, "pitch": 53, "duration": 150, "velocity": 95}, {"time": 106560, "pitch": 60, "duration": 150, "velocity": 100}, {"time": 106570, "pitch": 62, "duration": 130, "velocity": 105}, {"time": 106570, "pitch": 68, "duration": 130, "velocity": 110}, {"time": 106700, "pitch": 62, "duration": 10, "velocity": 60}, {"time": 106700, "pitch": 68, "duration": 10, "velocity": 65}, {"time": 106710, "pitch": 53, "duration": 10, "velocity": 50}, {"time": 106710, "pitch": 60, "duration": 10, "velocity": 55}, {"time": 106800, "pitch": 53, "duration": 240, "velocity": 95}, {"time": 106800, "pitch": 60, "duration": 240, "velocity": 100}, {"time": 106810, "pitch": 62, "duration": 240, "velocity": 105}, {"time": 106810, "pitch": 68, "duration": 240, "velocity": 110}, {"time": 107040, "pitch": 53, "duration": 10, "velocity": 85}, {"time": 107040, "pitch": 60, "duration": 10, "velocity": 90}, {"time": 107050, "pitch": 62, "duration": 10, "velocity": 95}, {"time": 107050, "pitch": 68, "duration": 10, "velocity": 100}, {"time": 107180, "pitch": 62, "duration": 240, "velocity": 105}, {"time": 107180, "pitch": 68, "duration": 240, "velocity": 110}, {"time": 107190, "pitch": 53, "duration": 240, "velocity": 95}, {"time": 107190, "pitch": 60, "duration": 240, "velocity": 100}, {"time": 107420, "pitch": 62, "duration": 80, "velocity": 100}, {"time": 107420, "pitch": 68, "duration": 80, "velocity": 105}, {"time": 107430, "pitch": 53, "duration": 70, "velocity": 90}, {"time": 107430, "pitch": 60, "duration": 70, "velocity": 95}, {"time": 107520, "pitch": 53, "duration": 150, "velocity": 95}, {"time": 107520, "pitch": 60, "duration": 150, "velocity": 100}, {"time": 107530, "pitch": 62, "duration": 130, "velocity": 105}, {"time": 107530, "pitch": 67, "duration": 130, "velocity": 110}, {"time": 107660, "pitch": 62, "duration": 10, "velocity": 60}, {"time": 107660, "pitch": 67, "duration": 10, "velocity": 65}, {"time": 107670, "pitch": 53, "duration": 10, "velocity": 50}, {"time": 107670, "pitch": 60, "duration": 10, "velocity": 55}, {"time": 107760, "pitch": 53, "duration": 240, "velocity": 95}, {"time": 107760, "pitch": 60, "duration": 240, "velocity": 100}, {"time": 107770, "pitch": 62, "duration": 240, "velocity": 105}, {"time": 107770, "pitch": 67, "duration": 240, "velocity": 110}, {"time": 108000, "pitch": 53, "duration": 10, "velocity": 85}, {"time": 108000, "pitch": 60, "duration": 10, "velocity": 90}, {"time": 108010, "pitch": 62, "duration": 10, "velocity": 95}, {"time": 108010, "pitch": 67, "duration": 10, "velocity": 100}, {"time": 108140, "pitch": 62, "duration": 240, "velocity": 105}, {"time": 108140, "pitch": 67, "duration": 240, "velocity": 110}, {"time": 108150, "pitch": 53, "duration": 240, "velocity": 95}, {"time": 108150, "pitch": 60, "duration": 240, "velocity": 100}, {"time": 108380, "pitch": 62, "duration": 110, "velocity": 100}, {"time": 108380, "pitch": 67, "duration": 110, "velocity": 105}, {"time": 108390, "pitch": 53, "duration": 90, "velocity": 90}, {"time": 108390, "pitch": 60, "duration": 90, "velocity": 95}, {"time": 108480, "pitch": 53, "duration": 150, "velocity": 95}, {"time": 108480, "pitch": 60, "duration": 150, "velocity": 100}, {"time": 108490, "pitch": 62, "duration": 130, "velocity": 105}, {"time": 108490, "pitch": 67, "duration": 130, "velocity": 110}, {"time": 108620, "pitch": 62, "duration": 10, "velocity": 60}, {"time": 108620, "pitch": 67, "duration": 10, "velocity": 65}, {"time": 108630, "pitch": 53, "duration": 10, "velocity": 50}, {"time": 108630, "pitch": 60, "duration": 10, "velocity": 55}, {"time": 108720, "pitch": 53, "duration": 240, "velocity": 95}, {"time": 108720, "pitch": 60, "duration": 240, "velocity": 100}, {"time": 108730, "pitch": 62, "duration": 240, "velocity": 105}, {"time": 108730, "pitch": 67, "duration": 240, "velocity": 110}, {"time": 108960, "pitch": 53, "duration": 10, "velocity": 85}, {"time": 108960, "pitch": 60, "duration": 10, "velocity": 90}, {"time": 108970, "pitch": 62, "duration": 10, "velocity": 95}, {"time": 108970, "pitch": 67, "duration": 10, "velocity": 100}, {"time": 109100, "pitch": 62, "duration": 240, "velocity": 105}, {"time": 109100, "pitch": 67, "duration": 240, "velocity": 110}, {"time": 109110, "pitch": 53, "duration": 240, "velocity": 95}, {"time": 109110, "pitch": 60, "duration": 240, "velocity": 100}, {"time": 109340, "pitch": 62, "duration": 80, "velocity": 100}, {"time": 109340, "pitch": 67, "duration": 80, "velocity": 105}, {"time": 109350, "pitch": 53, "duration": 70, "velocity": 90}, {"time": 109350, "pitch": 60, "duration": 70, "velocity": 95}, {"time": 109440, "pitch": 53, "duration": 150, "velocity": 95}, {"time": 109440, "pitch": 59, "duration": 150, "velocity": 100}, {"time": 109450, "pitch": 62, "duration": 130, "velocity": 105}, {"time": 109450, "pitch": 68, "duration": 130, "velocity": 110}, {"time": 109580, "pitch": 62, "duration": 10, "velocity": 60}, {"time": 109580, "pitch": 68, "duration": 10, "velocity": 65}, {"time": 109590, "pitch": 53, "duration": 10, "velocity": 50}, {"time": 109590, "pitch": 59, "duration": 10, "velocity": 55}, {"time": 109680, "pitch": 53, "duration": 240, "velocity": 95}, {"time": 109680, "pitch": 59, "duration": 240, "velocity": 100}, {"time": 109690, "pitch": 62, "duration": 240, "velocity": 105}, {"time": 109690, "pitch": 68, "duration": 240, "velocity": 110}, {"time": 109920, "pitch": 53, "duration": 10, "velocity": 85}, {"time": 109920, "pitch": 59, "duration": 10, "velocity": 90}, {"time": 109930, "pitch": 62, "duration": 10, "velocity": 95}, {"time": 109930, "pitch": 68, "duration": 10, "velocity": 100}, {"time": 110060, "pitch": 62, "duration": 240, "velocity": 105}, {"time": 110060, "pitch": 68, "duration": 240, "velocity": 110}, {"time": 110070, "pitch": 53, "duration": 240, "velocity": 95}, {"time": 110070, "pitch": 59, "duration": 240, "velocity": 100}, {"time": 110300, "pitch": 62, "duration": 110, "velocity": 100}, {"time": 110300, "pitch": 68, "duration": 110, "velocity": 105}, {"time": 110310, "pitch": 53, "duration": 90, "velocity": 90}, {"time": 110310, "pitch": 59, "duration": 90, "velocity": 95}, {"time": 110400, "pitch": 53, "duration": 150, "velocity": 85}, {"time": 110400, "pitch": 59, "duration": 150, "velocity": 90}, {"time": 110410, "pitch": 62, "duration": 130, "velocity": 95}, {"time": 110410, "pitch": 68, "duration": 130, "velocity": 100}, {"time": 110540, "pitch": 62, "duration": 110, "velocity": 100}, {"time": 110540, "pitch": 68, "duration": 110, "velocity": 105}, {"time": 110550, "pitch": 53, "duration": 90, "velocity": 90}, {"time": 110550, "pitch": 59, "duration": 90, "velocity": 95}, {"time": 110640, "pitch": 53, "duration": 240, "velocity": 95}, {"time": 110640, "pitch": 59, "duration": 240, "velocity": 100}, {"time": 110650, "pitch": 62, "duration": 240, "velocity": 105}, {"time": 110650, "pitch": 68, "duration": 240, "velocity": 110}, {"time": 110880, "pitch": 53, "duration": 150, "velocity": 95}, {"time": 110880, "pitch": 59, "duration": 150, "velocity": 100}, {"time": 110890, "pitch": 62, "duration": 130, "velocity": 105}, {"time": 110890, "pitch": 68, "duration": 130, "velocity": 110}, {"time": 111020, "pitch": 62, "duration": 110, "velocity": 100}, {"time": 111020, "pitch": 68, "duration": 110, "velocity": 105}, {"time": 111030, "pitch": 53, "duration": 90, "velocity": 90}, {"time": 111030, "pitch": 59, "duration": 90, "velocity": 95}, {"time": 111120, "pitch": 53, "duration": 240, "velocity": 95}, {"time": 111120, "pitch": 59, "duration": 240, "velocity": 100}, {"time": 111130, "pitch": 62, "duration": 240, "velocity": 105}, {"time": 111130, "pitch": 68, "duration": 240, "velocity": 110}, {"time": 125760, "pitch": 53, "duration": 150, "velocity": 60}, {"time": 125760, "pitch": 60, "duration": 150, "velocity": 65}, {"time": 125770, "pitch": 62, "duration": 130, "velocity": 70}, {"time": 125770, "pitch": 67, "duration": 130, "velocity": 75}, {"time": 125900, "pitch": 62, "duration": 330, "velocity": 120}, {"time": 125900, "pitch": 67, "duration": 330, "velocity": 125}, {"time": 125910, "pitch": 53, "duration": 320, "velocity": 110}, {"time": 125910, "pitch": 60, "duration": 320, "velocity": 115}, {"time": 126240, "pitch": 53, "duration": 150, "velocity": 60}, {"time": 126240, "pitch": 59, "duration": 150, "velocity": 65}, {"time": 126250, "pitch": 62, "duration": 130, "velocity": 70}, {"time": 126250, "pitch": 68, "duration": 130, "velocity": 75}, {"time": 126380, "pitch": 62, "duration": 330, "velocity": 120}, {"time": 126380, "pitch": 68, "duration": 330, "velocity": 125}, {"time": 126390, "pitch": 53, "duration": 320, "velocity": 110}, {"time": 126390, "pitch": 59, "duration": 320, "velocity": 115}, {"time": 126720, "pitch": 57, "duration": 1920, "velocity": 110}, {"time": 126960, "pitch": 60, "duration": 960, "velocity": 100}, {"time": 127200, "pitch": 64, "duration": 960, "velocity": 105}, {"time": 127440, "pitch": 71, "duration": 960, "velocity": 110}, {"time": 127920, "pitch": 60, "duration": 720, "velocity": 100}, {"time": 128160, "pitch": 64, "duration": 480, "velocity": 105}, {"time": 128400, "pitch": 71, "duration": 240, "velocity": 110}, {"time": 128640, "pitch": 56, "duration": 1920, "velocity": 110}, {"time": 128880, "pitch": 62, "duration": 960, "velocity": 100}, {"time": 129120, "pitch": 64, "duration": 960, "velocity": 105}, {"time": 129360, "pitch": 71, "duration": 960, "velocity": 110}, {"time": 129840, "pitch": 62, "duration": 720, "velocity": 100}, {"time": 130080, "pitch": 64, "duration": 480, "velocity": 105}, {"time": 130320, "pitch": 71, "duration": 240, "velocity": 110}, {"time": 130560, "pitch": 55, "duration": 1920, "velocity": 110}, {"time": 130800, "pitch": 58, "duration": 960, "velocity": 100}, {"time": 131040, "pitch": 62, "duration": 960, "velocity": 105}, {"time": 131280, "pitch": 69, "duration": 960, "velocity": 110}, {"time": 131760, "pitch": 58, "duration": 720, "velocity": 100}, {"time": 132000, "pitch": 62, "duration": 480, "velocity": 105}, {"time": 132240, "pitch": 69, "duration": 240, "velocity": 110}, {"time": 132480, "pitch": 54, "duration": 1920, "velocity": 110}, {"time": 132720, "pitch": 60, "duration": 960, "velocity": 100}, {"time": 132960, "pitch": 62, "duration": 960, "velocity": 105}, {"time": 133200, "pitch": 69, "duration": 960, "velocity": 110}, {"time": 133680, "pitch": 60, "duration": 720, "velocity": 100}, {"time": 133920, "pitch": 62, "duration": 480, "velocity": 105}, {"time": 134160, "pitch": 69, "duration": 240, "velocity": 110}, {"time": 134400, "pitch": 57, "duration": 1920, "velocity": 110}, {"time": 134640, "pitch": 60, "duration": 960, "velocity": 100}, {"time": 134880, "pitch": 65, "duration": 960, "velocity": 105}, {"time": 135120, "pitch": 69, "duration": 960, "velocity": 110}, {"time": 135600, "pitch": 60, "duration": 720, "velocity": 100}, {"time": 135840, "pitch": 65, "duration": 480, "velocity": 105}, {"time": 136080, "pitch": 69, "duration": 240, "velocity": 110}, {"time": 136320, "pitch": 55, "duration": 1920, "velocity": 110}, {"time": 136560, "pitch": 60, "duration": 960, "velocity": 100}, {"time": 136800, "pitch": 64, "duration": 960, "velocity": 105}, {"time": 137040, "pitch": 67, "duration": 960, "velocity": 110}, {"time": 137520, "pitch": 60, "duration": 720, "velocity": 100}, {"time": 137760, "pitch": 64, "duration": 480, "velocity": 105}, {"time": 138000, "pitch": 67, "duration": 240, "velocity": 110}, {"time": 138240, "pitch": 57, "duration": 1920, "velocity": 110}, {"time": 138480, "pitch": 60, "duration": 960, "velocity": 100}, {"time": 138720, "pitch": 65, "duration": 960, "velocity": 105}, {"time": 138960, "pitch": 69, "duration": 960, "velocity": 110}, {"time": 139440, "pitch": 60, "duration": 720, "velocity": 100}, {"time": 139680, "pitch": 65, "duration": 480, "velocity": 105}, {"time": 139920, "pitch": 69, "duration": 240, "velocity": 110}, {"time": 140160, "pitch": 55, "duration": 940, "velocity": 110}, {"time": 140400, "pitch": 59, "duration": 700, "velocity": 100}, {"time": 140640, "pitch": 62, "duration": 460, "velocity": 105}, {"time": 140880, "pitch": 67, "duration": 220, "velocity": 110}, {"time": 141120, "pitch": 53, "duration": 100, "velocity": 105}, {"time": 141120, "pitch": 60, "duration": 100, "velocity": 110}, {"time": 141130, "pitch": 62, "duration": 90, "velocity": 115}, {"time": 141130, "pitch": 67, "duration": 90, "velocity": 120}, {"time": 141360, "pitch": 62, "duration": 700, "velocity": 115}, {"time": 141360, "pitch": 67, "duration": 700, "velocity": 120}, {"time": 141370, "pitch": 53, "duration": 690, "velocity": 105}, {"time": 141370, "pitch": 60, "duration": 690, "velocity": 110}, {"time": 142080, "pitch": 55, "duration": 150, "velocity": 95}, {"time": 142080, "pitch": 60, "duration": 150, "velocity": 100}, {"time": 142090, "pitch": 64, "duration": 130, "velocity": 105}, {"time": 142090, "pitch": 67, "duration": 130, "velocity": 110}, {"time": 142220, "pitch": 64, "duration": 10, "velocity": 60}, {"time": 142220, "pitch": 67, "duration": 10, "velocity": 65}, {"time": 142230, "pitch": 55, "duration": 10, "velocity": 50}, {"time": 142230, "pitch": 60, "duration": 10, "velocity": 55}, {"time": 142320, "pitch": 55, "duration": 240, "velocity": 95}, {"time": 142320, "pitch": 60, "duration": 240, "velocity": 100}, {"time": 142330, "pitch": 64, "duration": 240, "velocity": 105}, {"time": 142330, "pitch": 67, "duration": 240, "velocity": 110}, {"time": 142560, "pitch": 55, "duration": 10, "velocity": 85}, {"time": 142560, "pitch": 60, "duration": 10, "velocity": 90}, {"time": 142570, "pitch": 64, "duration": 10, "velocity": 95}, {"time": 142570, "pitch": 67, "duration": 10, "velocity": 100}, {"time": 142700, "pitch": 64, "duration": 240, "velocity": 105}, {"time": 142700, "pitch": 67, "duration": 240, "velocity": 110}, {"time": 142710, "pitch": 55, "duration": 240, "velocity": 95}, {"time": 142710, "pitch": 60, "duration": 240, "velocity": 100}, {"time": 142940, "pitch": 64, "duration": 110, "velocity": 100}, {"time": 142940, "pitch": 67, "duration": 110, "velocity": 105}, {"time": 142950, "pitch": 55, "duration": 90, "velocity": 90}, {"time": 142950, "pitch": 60, "duration": 90, "velocity": 95}, {"time": 143040, "pitch": 55, "duration": 150, "velocity": 95}, {"time": 143040, "pitch": 60, "duration": 150, "velocity": 100}, {"time": 143050, "pitch": 64, "duration": 130, "velocity": 105}, {"time": 143050, "pitch": 67, "duration": 130, "velocity": 110}, {"time": 143180, "pitch": 64, "duration": 10, "velocity": 60}, {"time": 143180, "pitch": 67, "duration": 10, "velocity": 65}, {"time": 143190, "pitch": 55, "duration": 10, "velocity": 50}, {"time": 143190, "pitch": 60, "duration": 10, "velocity": 55}, {"time": 143280, "pitch": 55, "duration": 240, "velocity": 95}, {"time": 143280, "pitch": 60, "duration": 240, "velocity": 100}, {"time": 143290, "pitch": 64, "duration": 240, "velocity": 105}, {"time": 143290, "pitch": 67, "duration": 240, "velocity": 110}, {"time": 143520, "pitch": 55, "duration": 10, "velocity": 85}, {"time": 143520, "pitch": 60, "duration": 10, "velocity": 90}, {"time": 143530, "pitch": 64, "duration": 10, "velocity": 95}, {"time": 143530, "pitch": 67, "duration": 10, "velocity": 100}, {"time": 143660, "pitch": 64, "duration": 240, "velocity": 105}, {"time": 143660, "pitch": 67, "duration": 240, "velocity": 110}, {"time": 143670, "pitch": 55, "duration": 240, "velocity": 95}, {"time": 143670, "pitch": 60, "duration": 240, "velocity": 100}, {"time": 143900, "pitch": 64, "duration": 110, "velocity": 100}, {"time": 143900, "pitch": 67, "duration": 110, "velocity": 105}, {"time": 143910, "pitch": 55, "duration": 90, "velocity": 90}, {"time": 143910, "pitch": 60, "duration": 90, "velocity": 95}, {"time": 144000, "pitch": 55, "duration": 150, "velocity": 95}, {"time": 144000, "pitch": 59, "duration": 150, "velocity": 100}, {"time": 144010, "pitch": 62, "duration": 130, "velocity": 105}, {"time": 144010, "pitch": 67, "duration": 130, "velocity": 110}, {"time": 144140, "pitch": 62, "duration": 10, "velocity": 60}, {"time": 144140, "pitch": 67, "duration": 10, "velocity": 65}, {"time": 144150, "pitch": 55, "duration": 10, "velocity": 50}, {"time": 144150, "pitch": 59, "duration": 10, "velocity": 55}, {"time": 144240, "pitch": 55, "duration": 240, "velocity": 95}, {"time": 144240, "pitch": 59, "duration": 240, "velocity": 100}, {"time": 144250, "pitch": 62, "duration": 240, "velocity": 105}, {"time": 144250, "pitch": 67, "duration": 240, "velocity": 110}, {"time": 144480, "pitch": 55, "duration": 10, "velocity": 85}, {"time": 144480, "pitch": 59, "duration": 10, "velocity": 90}, {"time": 144490, "pitch": 62, "duration": 10, "velocity": 95}, {"time": 144490, "pitch": 67, "duration": 10, "velocity": 100}, {"time": 144620, "pitch": 62, "duration": 240, "velocity": 105}, {"time": 144620, "pitch": 67, "duration": 240, "velocity": 110}, {"time": 144630, "pitch": 55, "duration": 240, "velocity": 95}, {"time": 144630, "pitch": 59, "duration": 240, "velocity": 100}, {"time": 144860, "pitch": 62, "duration": 110, "velocity": 100}, {"time": 144860, "pitch": 67, "duration": 110, "velocity": 105}, {"time": 144870, "pitch": 55, "duration": 90, "velocity": 90}, {"time": 144870, "pitch": 59, "duration": 90, "velocity": 95}, {"time": 144960, "pitch": 55, "duration": 150, "velocity": 95}, {"time": 144960, "pitch": 59, "duration": 150, "velocity": 100}, {"time": 144970, "pitch": 62, "duration": 130, "velocity": 105}, {"time": 144970, "pitch": 67, "duration": 130, "velocity": 110}, {"time": 145100, "pitch": 62, "duration": 10, "velocity": 60}, {"time": 145100, "pitch": 67, "duration": 10, "velocity": 65}, {"time": 145110, "pitch": 55, "duration": 10, "velocity": 50}, {"time": 145110, "pitch": 59, "duration": 10, "velocity": 55}, {"time": 145200, "pitch": 55, "duration": 240, "velocity": 95}, {"time": 145200, "pitch": 59, "duration": 240, "velocity": 100}, {"time": 145210, "pitch": 62, "duration": 240, "velocity": 105}, {"time": 145210, "pitch": 67, "duration": 240, "velocity": 110}, {"time": 145440, "pitch": 55, "duration": 10, "velocity": 85}, {"time": 145440, "pitch": 59, "duration": 10, "velocity": 90}, {"time": 145450, "pitch": 62, "duration": 10, "velocity": 95}, {"time": 145450, "pitch": 67, "duration": 10, "velocity": 100}, {"time": 145580, "pitch": 62, "duration": 240, "velocity": 105}, {"time": 145580, "pitch": 67, "duration": 240, "velocity": 110}, {"time": 145590, "pitch": 55, "duration": 240, "velocity": 95}, {"time": 145590, "pitch": 59, "duration": 240, "velocity": 100}, {"time": 145820, "pitch": 62, "duration": 80, "velocity": 100}, {"time": 145820, "pitch": 67, "duration": 80, "velocity": 105}, {"time": 145830, "pitch": 55, "duration": 70, "velocity": 90}, {"time": 145830, "pitch": 59, "duration": 70, "velocity": 95}, {"time": 145920, "pitch": 55, "duration": 250, "velocity": 95}, {"time": 145920, "pitch": 58, "duration": 250, "velocity": 100}, {"time": 145930, "pitch": 62, "duration": 230, "velocity": 105}, {"time": 145930, "pitch": 67, "duration": 230, "velocity": 110}, {"time": 146160, "pitch": 62, "duration": 250, "velocity": 95}, {"time": 146160, "pitch": 67, "duration": 250, "velocity": 100}, {"time": 146170, "pitch": 55, "duration": 230, "velocity": 85}, {"time": 146170, "pitch": 58, "duration": 230, "velocity": 90}, {"time": 146400, "pitch": 55, "duration": 240, "velocity": 105}, {"time": 146400, "pitch": 58, "duration": 240, "velocity": 110}, {"time": 146410, "pitch": 62, "duration": 240, "velocity": 115}, {"time": 146410, "pitch": 67, "duration": 240, "velocity": 120}, {"time": 146640, "pitch": 55, "duration": 150, "velocity": 85}, {"time": 146640, "pitch": 58, "duration": 150, "velocity": 90}, {"time": 146650, "pitch": 62, "duration": 130, "velocity": 95}, {"time": 146650, "pitch": 67, "duration": 130, "velocity": 100}, {"time": 146780, "pitch": 62, "duration": 110, "velocity": 90}, {"time": 146780, "pitch": 67, "duration": 110, "velocity": 95}, {"time": 146790, "pitch": 55, "duration": 90, "velocity": 80}, {"time": 146790, "pitch": 58, "duration": 90, "velocity": 85}, {"time": 146880, "pitch": 55, "duration": 150, "velocity": 65}, {"time": 146880, "pitch": 58, "duration": 150, "velocity": 70}, {"time": 146890, "pitch": 62, "duration": 130, "velocity": 75}, {"time": 146890, "pitch": 67, "duration": 130, "velocity": 80}, {"time": 147020, "pitch": 62, "duration": 110, "velocity": 105}, {"time": 147020, "pitch": 67, "duration": 110, "velocity": 110}, {"time": 147030, "pitch": 55, "duration": 90, "velocity": 95}, {"time": 147030, "pitch": 58, "duration": 90, "velocity": 100}, {"time": 147120, "pitch": 55, "duration": 150, "velocity": 65}, {"time": 147120, "pitch": 58, "duration": 150, "velocity": 70}, {"time": 147130, "pitch": 62, "duration": 130, "velocity": 75}, {"time": 147130, "pitch": 67, "duration": 130, "velocity": 80}, {"time": 147260, "pitch": 62, "duration": 110, "velocity": 105}, {"time": 147260, "pitch": 67, "duration": 110, "velocity": 110}, {"time": 147270, "pitch": 55, "duration": 90, "velocity": 95}, {"time": 147270, "pitch": 58, "duration": 90, "velocity": 100}, {"time": 147360, "pitch": 55, "duration": 240, "velocity": 105}, {"time": 147360, "pitch": 58, "duration": 240, "velocity": 110}, {"time": 147370, "pitch": 62, "duration": 240, "velocity": 115}, {"time": 147370, "pitch": 67, "duration": 240, "velocity": 120}, {"time": 147600, "pitch": 55, "duration": 150, "velocity": 85}, {"time": 147600, "pitch": 58, "duration": 150, "velocity": 90}, {"time": 147610, "pitch": 62, "duration": 130, "velocity": 95}, {"time": 147610, "pitch": 67, "duration": 130, "velocity": 100}, {"time": 147740, "pitch": 62, "duration": 80, "velocity": 90}, {"time": 147740, "pitch": 67, "duration": 80, "velocity": 95}, {"time": 147750, "pitch": 55, "duration": 70, "velocity": 80}, {"time": 147750, "pitch": 58, "duration": 70, "velocity": 85}, {"time": 147840, "pitch": 57, "duration": 150, "velocity": 95}, {"time": 147840, "pitch": 61, "duration": 150, "velocity": 100}, {"time": 147850, "pitch": 64, "duration": 130, "velocity": 105}, {"time": 147850, "pitch": 67, "duration": 130, "velocity": 110}, {"time": 147980, "pitch": 64, "duration": 10, "velocity": 60}, {"time": 147980, "pitch": 67, "duration": 10, "velocity": 65}, {"time": 147990, "pitch": 57, "duration": 10, "velocity": 50}, {"time": 147990, "pitch": 61, "duration": 10, "velocity": 55}, {"time": 148080, "pitch": 57, "duration": 240, "velocity": 95}, {"time": 148080, "pitch": 61, "duration": 240, "velocity": 100}, {"time": 148090, "pitch": 64, "duration": 240, "velocity": 105}, {"time": 148090, "pitch": 67, "duration": 240, "velocity": 110}, {"time": 148320, "pitch": 57, "duration": 10, "velocity": 85}, {"time": 148320, "pitch": 61, "duration": 10, "velocity": 90}, {"time": 148330, "pitch": 64, "duration": 10, "velocity": 95}, {"time": 148330, "pitch": 67, "duration": 10, "velocity": 100}, {"time": 148460, "pitch": 64, "duration": 240, "velocity": 105}, {"time": 148460, "pitch": 67, "duration": 240, "velocity": 110}, {"time": 148470, "pitch": 57, "duration": 240, "velocity": 95}, {"time": 148470, "pitch": 61, "duration": 240, "velocity": 100}, {"time": 148700, "pitch": 64, "duration": 110, "velocity": 100}, {"time": 148700, "pitch": 67, "duration": 110, "velocity": 105}, {"time": 148710, "pitch": 57, "duration": 90, "velocity": 90}, {"time": 148710, "pitch": 61, "duration": 90, "velocity": 95}, {"time": 148800, "pitch": 57, "duration": 150, "velocity": 95}, {"time": 148800, "pitch": 61, "duration": 150, "velocity": 100}, {"time": 148810, "pitch": 64, "duration": 130, "velocity": 105}, {"time": 148810, "pitch": 67, "duration": 130, "velocity": 110}, {"time": 148940, "pitch": 64, "duration": 10, "velocity": 60}, {"time": 148940, "pitch": 67, "duration": 10, "velocity": 65}, {"time": 148950, "pitch": 57, "duration": 10, "velocity": 50}, {"time": 148950, "pitch": 61, "duration": 10, "velocity": 55}, {"time": 149040, "pitch": 57, "duration": 240, "velocity": 95}, {"time": 149040, "pitch": 61, "duration": 240, "velocity": 100}, {"time": 149050, "pitch": 64, "duration": 240, "velocity": 105}, {"time": 149050, "pitch": 67, "duration": 240, "velocity": 110}, {"time": 149280, "pitch": 57, "duration": 10, "velocity": 85}, {"time": 149280, "pitch": 61, "duration": 10, "velocity": 90}, {"time": 149290, "pitch": 64, "duration": 10, "velocity": 95}, {"time": 149290, "pitch": 67, "duration": 10, "velocity": 100}, {"time": 149420, "pitch": 64, "duration": 240, "velocity": 105}, {"time": 149420, "pitch": 67, "duration": 240, "velocity": 110}, {"time": 149430, "pitch": 57, "duration": 240, "velocity": 95}, {"time": 149430, "pitch": 61, "duration": 240, "velocity": 100}, {"time": 149660, "pitch": 64, "duration": 80, "velocity": 100}, {"time": 149660, "pitch": 67, "duration": 80, "velocity": 105}, {"time": 149670, "pitch": 57, "duration": 70, "velocity": 90}, {"time": 149670, "pitch": 61, "duration": 70, "velocity": 95}, {"time": 149760, "pitch": 56, "duration": 150, "velocity": 95}, {"time": 149760, "pitch": 60, "duration": 150, "velocity": 100}, {"time": 149770, "pitch": 65, "duration": 130, "velocity": 105}, {"time": 149770, "pitch": 68, "duration": 130, "velocity": 110}, {"time": 149900, "pitch": 65, "duration": 10, "velocity": 60}, {"time": 149900, "pitch": 68, "duration": 10, "velocity": 65}, {"time": 149910, "pitch": 56, "duration": 10, "velocity": 50}, {"time": 149910, "pitch": 60, "duration": 10, "velocity": 55}, {"time": 150000, "pitch": 56, "duration": 240, "velocity": 95}, {"time": 150000, "pitch": 60, "duration": 240, "velocity": 100}, {"time": 150010, "pitch": 65, "duration": 240, "velocity": 105}, {"time": 150010, "pitch": 68, "duration": 240, "velocity": 110}, {"time": 150240, "pitch": 56, "duration": 10, "velocity": 85}, {"time": 150240, "pitch": 60, "duration": 10, "velocity": 90}, {"time": 150250, "pitch": 65, "duration": 10, "velocity": 95}, {"time": 150250, "pitch": 68, "duration": 10, "velocity": 100}, {"time": 150380, "pitch": 65, "duration": 240, "velocity": 105}, {"time": 150380, "pitch": 68, "duration": 240, "velocity": 110}, {"time": 150390, "pitch": 56, "duration": 240, "velocity": 95}, {"time": 150390, "pitch": 60, "duration": 240, "velocity": 100}, {"time": 150620, "pitch": 65, "duration": 110, "velocity": 100}, {"time": 150620, "pitch": 68, "duration": 110, "velocity": 105}, {"time": 150630, "pitch": 56, "duration": 90, "velocity": 90}, {"time": 150630, "pitch": 60, "duration": 90, "velocity": 95}, {"time": 150720, "pitch": 56, "duration": 150, "velocity": 95}, {"time": 150720, "pitch": 60, "duration": 150, "velocity": 100}, {"time": 150730, "pitch": 65, "duration": 130, "velocity": 105}, {"time": 150730, "pitch": 68, "duration": 130, "velocity": 110}, {"time": 150860, "pitch": 65, "duration": 10, "velocity": 60}, {"time": 150860, "pitch": 68, "duration": 10, "velocity": 65}, {"time": 150870, "pitch": 56, "duration": 10, "velocity": 50}, {"time": 150870, "pitch": 60, "duration": 10, "velocity": 55}, {"time": 150960, "pitch": 56, "duration": 240, "velocity": 95}, {"time": 150960, "pitch": 60, "duration": 240, "velocity": 100}, {"time": 150970, "pitch": 65, "duration": 240, "velocity": 105}, {"time": 150970, "pitch": 68, "duration": 240, "velocity": 110}, {"time": 151200, "pitch": 56, "duration": 10, "velocity": 85}, {"time": 151200, "pitch": 60, "duration": 10, "velocity": 90}, {"time": 151210, "pitch": 65, "duration": 10, "velocity": 95}, {"time": 151210, "pitch": 68, "duration": 10, "velocity": 100}, {"time": 151340, "pitch": 65, "duration": 240, "velocity": 105}, {"time": 151340, "pitch": 68, "duration": 240, "velocity": 110}, {"time": 151350, "pitch": 56, "duration": 240, "velocity": 95}, {"time": 151350, "pitch": 60, "duration": 240, "velocity": 100}, {"time": 151580, "pitch": 65, "duration": 110, "velocity": 100}, {"time": 151580, "pitch": 68, "duration": 110, "velocity": 105}, {"time": 151590, "pitch": 56, "duration": 90, "velocity": 90}, {"time": 151590, "pitch": 60, "duration": 90, "velocity": 95}, {"time": 151680, "pitch": 55, "duration": 150, "velocity": 95}, {"time": 151680, "pitch": 60, "duration": 150, "velocity": 100}, {"time": 151690, "pitch": 64, "duration": 130, "velocity": 105}, {"time": 151690, "pitch": 67, "duration": 130, "velocity": 110}, {"time": 151820, "pitch": 64, "duration": 10, "velocity": 60}, {"time": 151820, "pitch": 67, "duration": 10, "velocity": 65}, {"time": 151830, "pitch": 55, "duration": 10, "velocity": 50}, {"time": 151830, "pitch": 60, "duration": 10, "velocity": 55}, {"time": 151920, "pitch": 55, "duration": 240, "velocity": 95}, {"time": 151920, "pitch": 60, "duration": 240, "velocity": 100}, {"time": 151930, "pitch": 64, "duration": 240, "velocity": 105}, {"time": 151930, "pitch": 67, "duration": 240, "velocity": 110}, {"time": 152160, "pitch": 55, "duration": 10, "velocity": 85}, {"time": 152160, "pitch": 60, "duration": 10, "velocity": 90}, {"time": 152170, "pitch": 64, "duration": 10, "velocity": 95}, {"time": 152170, "pitch": 67, "duration": 10, "velocity": 100}, {"time": 152300, "pitch": 64, "duration": 240, "velocity": 105}, {"time": 152300, "pitch": 67, "duration": 240, "velocity": 110}, {"time": 152310, "pitch": 55, "duration": 240, "velocity": 95}, {"time": 152310, "pitch": 60, "duration": 240, "velocity": 100}, {"time": 152540, "pitch": 64, "duration": 110, "velocity": 100}, {"time": 152540, "pitch": 67, "duration": 110, "velocity": 105}, {"time": 152550, "pitch": 55, "duration": 90, "velocity": 90}, {"time": 152550, "pitch": 60, "duration": 90, "velocity": 95}, {"time": 152640, "pitch": 55, "duration": 150, "velocity": 95}, {"time": 152640, "pitch": 60, "duration": 150, "velocity": 100}, {"time": 152650, "pitch": 64, "duration": 130, "velocity": 105}, {"time": 152650, "pitch": 67, "duration": 130, "velocity": 110}, {"time": 152780, "pitch": 64, "duration": 10, "velocity": 60}, {"time": 152780, "pitch": 67, "duration": 10, "velocity": 65}, {"time": 152790, "pitch": 55, "duration": 10, "velocity": 50}, {"time": 152790, "pitch": 60, "duration": 10, "velocity": 55}, {"time": 152880, "pitch": 55, "duration": 240, "velocity": 95}, {"time": 152880, "pitch": 60, "duration": 240, "velocity": 100}, {"time": 152890, "pitch": 64, "duration": 240, "velocity": 105}, {"time": 152890, "pitch": 67, "duration": 240, "velocity": 110}, {"time": 153120, "pitch": 55, "duration": 10, "velocity": 85}, {"time": 153120, "pitch": 60, "duration": 10, "velocity": 90}, {"time": 153130, "pitch": 64, "duration": 10, "velocity": 95}, {"time": 153130, "pitch": 67, "duration": 10, "velocity": 100}, {"time": 153260, "pitch": 64, "duration": 240, "velocity": 105}, {"time": 153260, "pitch": 67, "duration": 240, "velocity": 110}, {"time": 153270, "pitch": 55, "duration": 240, "velocity": 95}, {"time": 153270, "pitch": 60, "duration": 240, "velocity": 100}, {"time": 153500, "pitch": 64, "duration": 110, "velocity": 100}, {"time": 153500, "pitch": 67, "duration": 110, "velocity": 105}, {"time": 153510, "pitch": 55, "duration": 90, "velocity": 90}, {"time": 153510, "pitch": 60, "duration": 90, "velocity": 95}, {"time": 153600, "pitch": 53, "duration": 150, "velocity": 95}, {"time": 153600, "pitch": 60, "duration": 150, "velocity": 100}, {"time": 153610, "pitch": 62, "duration": 130, "velocity": 105}, {"time": 153610, "pitch": 69, "duration": 130, "velocity": 110}, {"time": 153740, "pitch": 62, "duration": 10, "velocity": 60}, {"time": 153740, "pitch": 69, "duration": 10, "velocity": 65}, {"time": 153750, "pitch": 53, "duration": 10, "velocity": 50}, {"time": 153750, "pitch": 60, "duration": 10, "velocity": 55}, {"time": 153840, "pitch": 53, "duration": 240, "velocity": 95}, {"time": 153840, "pitch": 60, "duration": 240, "velocity": 100}, {"time": 153850, "pitch": 62, "duration": 240, "velocity": 105}, {"time": 153850, "pitch": 69, "duration": 240, "velocity": 110}, {"time": 154080, "pitch": 53, "duration": 10, "velocity": 85}, {"time": 154080, "pitch": 60, "duration": 10, "velocity": 90}, {"time": 154090, "pitch": 62, "duration": 10, "velocity": 95}, {"time": 154090, "pitch": 69, "duration": 10, "velocity": 100}, {"time": 154220, "pitch": 62, "duration": 240, "velocity": 105}, {"time": 154220, "pitch": 69, "duration": 240, "velocity": 110}, {"time": 154230, "pitch": 53, "duration": 240, "velocity": 95}, {"time": 154230, "pitch": 60, "duration": 240, "velocity": 100}, {"time": 154460, "pitch": 62, "duration": 110, "velocity": 100}, {"time": 154460, "pitch": 69, "duration": 110, "velocity": 105}, {"time": 154470, "pitch": 53, "duration": 90, "velocity": 90}, {"time": 154470, "pitch": 60, "duration": 90, "velocity": 95}, {"time": 154560, "pitch": 53, "duration": 150, "velocity": 95}, {"time": 154560, "pitch": 60, "duration": 150, "velocity": 100}, {"time": 154570, "pitch": 62, "duration": 130, "velocity": 105}, {"time": 154570, "pitch": 69, "duration": 130, "velocity": 110}, {"time": 154700, "pitch": 62, "duration": 10, "velocity": 60}, {"time": 154700, "pitch": 69, "duration": 10, "velocity": 65}, {"time": 154710, "pitch": 53, "duration": 10, "velocity": 50}, {"time": 154710, "pitch": 60, "duration": 10, "velocity": 55}, {"time": 154800, "pitch": 53, "duration": 240, "velocity": 95}, {"time": 154800, "pitch": 60, "duration": 240, "velocity": 100}, {"time": 154810, "pitch": 62, "duration": 240, "velocity": 105}, {"time": 154810, "pitch": 69, "duration": 240, "velocity": 110}, {"time": 155040, "pitch": 53, "duration": 10, "velocity": 85}, {"time": 155040, "pitch": 60, "duration": 10, "velocity": 90}, {"time": 155050, "pitch": 62, "duration": 10, "velocity": 95}, {"time": 155050, "pitch": 69, "duration": 10, "velocity": 100}, {"time": 155180, "pitch": 62, "duration": 240, "velocity": 105}, {"time": 155180, "pitch": 69, "duration": 240, "velocity": 110}, {"time": 155190, "pitch": 53, "duration": 240, "velocity": 95}, {"time": 155190, "pitch": 60, "duration": 240, "velocity": 100}, {"time": 155420, "pitch": 62, "duration": 80, "velocity": 100}, {"time": 155420, "pitch": 69, "duration": 80, "velocity": 105}, {"time": 155430, "pitch": 53, "duration": 70, "velocity": 90}, {"time": 155430, "pitch": 60, "duration": 70, "velocity": 95}, {"time": 155520, "pitch": 53, "duration": 150, "velocity": 95}, {"time": 155520, "pitch": 60, "duration": 150, "velocity": 100}, {"time": 155530, "pitch": 62, "duration": 130, "velocity": 105}, {"time": 155530, "pitch": 67, "duration": 130, "velocity": 110}, {"time": 155660, "pitch": 62, "duration": 10, "velocity": 60}, {"time": 155660, "pitch": 67, "duration": 10, "velocity": 65}, {"time": 155670, "pitch": 53, "duration": 10, "velocity": 50}, {"time": 155670, "pitch": 60, "duration": 10, "velocity": 55}, {"time": 155760, "pitch": 53, "duration": 240, "velocity": 95}, {"time": 155760, "pitch": 60, "duration": 240, "velocity": 100}, {"time": 155770, "pitch": 62, "duration": 240, "velocity": 105}, {"time": 155770, "pitch": 67, "duration": 240, "velocity": 110}, {"time": 156000, "pitch": 53, "duration": 10, "velocity": 85}, {"time": 156000, "pitch": 60, "duration": 10, "velocity": 90}, {"time": 156010, "pitch": 62, "duration": 10, "velocity": 95}, {"time": 156010, "pitch": 67, "duration": 10, "velocity": 100}, {"time": 156140, "pitch": 62, "duration": 240, "velocity": 105}, {"time": 156140, "pitch": 67, "duration": 240, "velocity": 110}, {"time": 156150, "pitch": 53, "duration": 240, "velocity": 95}, {"time": 156150, "pitch": 60, "duration": 240, "velocity": 100}, {"time": 156380, "pitch": 62, "duration": 110, "velocity": 100}, {"time": 156380, "pitch": 67, "duration": 110, "velocity": 105}, {"time": 156390, "pitch": 53, "duration": 90, "velocity": 90}, {"time": 156390, "pitch": 60, "duration": 90, "velocity": 95}, {"time": 156480, "pitch": 53, "duration": 150, "velocity": 95}, {"time": 156480, "pitch": 60, "duration": 150, "velocity": 100}, {"time": 156490, "pitch": 62, "duration": 130, "velocity": 105}, {"time": 156490, "pitch": 67, "duration": 130, "velocity": 110}, {"time": 156620, "pitch": 62, "duration": 10, "velocity": 60}, {"time": 156620, "pitch": 67, "duration": 10, "velocity": 65}, {"time": 156630, "pitch": 53, "duration": 10, "velocity": 50}, {"time": 156630, "pitch": 60, "duration": 10, "velocity": 55}, {"time": 156720, "pitch": 53, "duration": 240, "velocity": 95}, {"time": 156720, "pitch": 60, "duration": 240, "velocity": 100}, {"time": 156730, "pitch": 62, "duration": 240, "velocity": 105}, {"time": 156730, "pitch": 67, "duration": 240, "velocity": 110}, {"time": 156960, "pitch": 53, "duration": 10, "velocity": 85}, {"time": 156960, "pitch": 60, "duration": 10, "velocity": 90}, {"time": 156970, "pitch": 62, "duration": 10, "velocity": 95}, {"time": 156970, "pitch": 67, "duration": 10, "velocity": 100}, {"time": 157100, "pitch": 62, "duration": 240, "velocity": 105}, {"time": 157100, "pitch": 67, "duration": 240, "velocity": 110}, {"time": 157110, "pitch": 53, "duration": 240, "velocity": 95}, {"time": 157110, "pitch": 60, "duration": 240, "velocity": 100}, {"time": 157340, "pitch": 62, "duration": 80, "velocity": 100}, {"time": 157340, "pitch": 67, "duration": 80, "velocity": 105}, {"time": 157350, "pitch": 53, "duration": 70, "velocity": 90}, {"time": 157350, "pitch": 60, "duration": 70, "velocity": 95}, {"time": 157440, "pitch": 55, "duration": 150, "velocity": 95}, {"time": 157440, "pitch": 60, "duration": 150, "velocity": 100}, {"time": 157450, "pitch": 64, "duration": 130, "velocity": 105}, {"time": 157450, "pitch": 67, "duration": 130, "velocity": 110}, {"time": 157580, "pitch": 64, "duration": 10, "velocity": 60}, {"time": 157580, "pitch": 67, "duration": 10, "velocity": 65}, {"time": 157590, "pitch": 55, "duration": 10, "velocity": 50}, {"time": 157590, "pitch": 60, "duration": 10, "velocity": 55}, {"time": 157680, "pitch": 55, "duration": 240, "velocity": 95}, {"time": 157680, "pitch": 60, "duration": 240, "velocity": 100}, {"time": 157690, "pitch": 64, "duration": 240, "velocity": 105}, {"time": 157690, "pitch": 67, "duration": 240, "velocity": 110}, {"time": 157920, "pitch": 55, "duration": 10, "velocity": 85}, {"time": 157920, "pitch": 60, "duration": 10, "velocity": 90}, {"time": 157930, "pitch": 64, "duration": 10, "velocity": 95}, {"time": 157930, "pitch": 67, "duration": 10, "velocity": 100}, {"time": 158060, "pitch": 64, "duration": 240, "velocity": 105}, {"time": 158060, "pitch": 67, "duration": 240, "velocity": 110}, {"time": 158070, "pitch": 55, "duration": 240, "velocity": 95}, {"time": 158070, "pitch": 60, "duration": 240, "velocity": 100}, {"time": 158300, "pitch": 64, "duration": 110, "velocity": 100}, {"time": 158300, "pitch": 67, "duration": 110, "velocity": 105}, {"time": 158310, "pitch": 55, "duration": 90, "velocity": 90}, {"time": 158310, "pitch": 60, "duration": 90, "velocity": 95}, {"time": 158400, "pitch": 55, "duration": 150, "velocity": 95}, {"time": 158400, "pitch": 60, "duration": 150, "velocity": 100}, {"time": 158410, "pitch": 64, "duration": 130, "velocity": 105}, {"time": 158410, "pitch": 67, "duration": 130, "velocity": 110}, {"time": 158540, "pitch": 64, "duration": 10, "velocity": 60}, {"time": 158540, "pitch": 67, "duration": 10, "velocity": 65}, {"time": 158550, "pitch": 55, "duration": 10, "velocity": 50}, {"time": 158550, "pitch": 60, "duration": 10, "velocity": 55}, {"time": 158640, "pitch": 55, "duration": 240, "velocity": 95}, {"time": 158640, "pitch": 60, "duration": 240, "velocity": 100}, {"time": 158650, "pitch": 64, "duration": 240, "velocity": 105}, {"time": 158650, "pitch": 67, "duration": 240, "velocity": 110}, {"time": 158880, "pitch": 55, "duration": 10, "velocity": 85}, {"time": 158880, "pitch": 60, "duration": 10, "velocity": 90}, {"time": 158890, "pitch": 64, "duration": 10, "velocity": 95}, {"time": 158890, "pitch": 67, "duration": 10, "velocity": 100}, {"time": 159020, "pitch": 64, "duration": 240, "velocity": 105}, {"time": 159020, "pitch": 67, "duration": 240, "velocity": 110}, {"time": 159030, "pitch": 55, "duration": 240, "velocity": 95}, {"time": 159030, "pitch": 60, "duration": 240, "velocity": 100}, {"time": 159260, "pitch": 64, "duration": 110, "velocity": 100}, {"time": 159260, "pitch": 67, "duration": 110, "velocity": 105}, {"time": 159270, "pitch": 55, "duration": 90, "velocity": 90}, {"time": 159270, "pitch": 60, "duration": 90, "velocity": 95}, {"time": 159360, "pitch": 55, "duration": 150, "velocity": 95}, {"time": 159360, "pitch": 59, "duration": 150, "velocity": 100}, {"time": 159370, "pitch": 62, "duration": 130, "velocity": 105}, {"time": 159370, "pitch": 67, "duration": 130, "velocity": 110}, {"time": 159500, "pitch": 62, "duration": 10, "velocity": 60}, {"time": 159500, "pitch": 67, "duration": 10, "velocity": 65}, {"time": 159510, "pitch": 55, "duration": 10, "velocity": 50}, {"time": 159510, "pitch": 59, "duration": 10, "velocity": 55}, {"time": 159600, "pitch": 55, "duration": 240, "velocity": 95}, {"time": 159600, "pitch": 59, "duration": 240, "velocity": 100}, {"time": 159610, "pitch": 62, "duration": 240, "velocity": 105}, {"time": 159610, "pitch": 67, "duration": 240, "velocity": 110}, {"time": 159840, "pitch": 55, "duration": 10, "velocity": 85}, {"time": 159840, "pitch": 59, "duration": 10, "velocity": 90}, {"time": 159850, "pitch": 62, "duration": 10, "velocity": 95}, {"time": 159850, "pitch": 67, "duration": 10, "velocity": 100}, {"time": 159980, "pitch": 62, "duration": 240, "velocity": 105}, {"time": 159980, "pitch": 67, "duration": 240, "velocity": 110}, {"time": 159990, "pitch": 55, "duration": 240, "velocity": 95}, {"time": 159990, "pitch": 59, "duration": 240, "velocity": 100}, {"time": 160220, "pitch": 62, "duration": 110, "velocity": 100}, {"time": 160220, "pitch": 67, "duration": 110, "velocity": 105}, {"time": 160230, "pitch": 55, "duration": 90, "velocity": 90}, {"time": 160230, "pitch": 59, "duration": 90, "velocity": 95}, {"time": 160320, "pitch": 55, "duration": 150, "velocity": 95}, {"time": 160320, "pitch": 59, "duration": 150, "velocity": 100}, {"time": 160330, "pitch": 62, "duration": 130, "velocity": 105}, {"time": 160330, "pitch": 67, "duration": 130, "velocity": 110}, {"time": 160460, "pitch": 62, "duration": 10, "velocity": 60}, {"time": 160460, "pitch": 67, "duration": 10, "velocity": 65}, {"time": 160470, "pitch": 55, "duration": 10, "velocity": 50}, {"time": 160470, "pitch": 59, "duration": 10, "velocity": 55}, {"time": 160560, "pitch": 55, "duration": 240, "velocity": 95}, {"time": 160560, "pitch": 59, "duration": 240, "velocity": 100}, {"time": 160570, "pitch": 62, "duration": 240, "velocity": 105}, {"time": 160570, "pitch": 67, "duration": 240, "velocity": 110}, {"time": 160800, "pitch": 55, "duration": 10, "velocity": 85}, {"time": 160800, "pitch": 59, "duration": 10, "velocity": 90}, {"time": 160810, "pitch": 62, "duration": 10, "velocity": 95}, {"time": 160810, "pitch": 67, "duration": 10, "velocity": 100}, {"time": 160940, "pitch": 62, "duration": 240, "velocity": 105}, {"time": 160940, "pitch": 67, "duration": 240, "velocity": 110}, {"time": 160950, "pitch": 55, "duration": 240, "velocity": 95}, {"time": 160950, "pitch": 59, "duration": 240, "velocity": 100}, {"time": 161180, "pitch": 62, "duration": 80, "velocity": 100}, {"time": 161180, "pitch": 67, "duration": 80, "velocity": 105}, {"time": 161190, "pitch": 55, "duration": 70, "velocity": 90}, {"time": 161190, "pitch": 59, "duration": 70, "velocity": 95}, {"time": 161280, "pitch": 55, "duration": 250, "velocity": 95}, {"time": 161280, "pitch": 58, "duration": 250, "velocity": 100}, {"time": 161290, "pitch": 62, "duration": 230, "velocity": 105}, {"time": 161290, "pitch": 67, "duration": 230, "velocity": 110}, {"time": 161520, "pitch": 62, "duration": 250, "velocity": 95}, {"time": 161520, "pitch": 67, "duration": 250, "velocity": 100}, {"time": 161530, "pitch": 55, "duration": 230, "velocity": 85}, {"time": 161530, "pitch": 58, "duration": 230, "velocity": 90}, {"time": 161760, "pitch": 55, "duration": 240, "velocity": 105}, {"time": 161760, "pitch": 58, "duration": 240, "velocity": 110}, {"time": 161770, "pitch": 62, "duration": 240, "velocity": 115}, {"time": 161770, "pitch": 67, "duration": 240, "velocity": 120}, {"time": 162000, "pitch": 55, "duration": 150, "velocity": 85}, {"time": 162000, "pitch": 58, "duration": 150, "velocity": 90}, {"time": 162010, "pitch": 62, "duration": 130, "velocity": 95}, {"time": 162010, "pitch": 67, "duration": 130, "velocity": 100}, {"time": 162140, "pitch": 62, "duration": 110, "velocity": 90}, {"time": 162140, "pitch": 67, "duration": 110, "velocity": 95}, {"time": 162150, "pitch": 55, "duration": 90, "velocity": 80}, {"time": 162150, "pitch": 58, "duration": 90, "velocity": 85}, {"time": 162240, "pitch": 55, "duration": 150, "velocity": 65}, {"time": 162240, "pitch": 58, "duration": 150, "velocity": 70}, {"time": 162250, "pitch": 62, "duration": 130, "velocity": 75}, {"time": 162250, "pitch": 67, "duration": 130, "velocity": 80}, {"time": 162380, "pitch": 62, "duration": 110, "velocity": 105}, {"time": 162380, "pitch": 67, "duration": 110, "velocity": 110}, {"time": 162390, "pitch": 55, "duration": 90, "velocity": 95}, {"time": 162390, "pitch": 58, "duration": 90, "velocity": 100}, {"time": 162480, "pitch": 55, "duration": 150, "velocity": 65}, {"time": 162480, "pitch": 58, "duration": 150, "velocity": 70}, {"time": 162490, "pitch": 62, "duration": 130, "velocity": 75}, {"time": 162490, "pitch": 67, "duration": 130, "velocity": 80}, {"time": 162620, "pitch": 62, "duration": 110, "velocity": 105}, {"time": 162620, "pitch": 67, "duration": 110, "velocity": 110}, {"time": 162630, "pitch": 55, "duration": 90, "velocity": 95}, {"time": 162630, "pitch": 58, "duration": 90, "velocity": 100}, {"time": 162720, "pitch": 55, "duration": 240, "velocity": 105}, {"time": 162720, "pitch": 58, "duration": 240, "velocity": 110}, {"time": 162730, "pitch": 62, "duration": 240, "velocity": 115}, {"time": 162730, "pitch": 67, "duration": 240, "velocity": 120}, {"time": 162960, "pitch": 55, "duration": 150, "velocity": 85}, {"time": 162960, "pitch": 58, "duration": 150, "velocity": 90}, {"time": 162970, "pitch": 62, "duration": 130, "velocity": 95}, {"time": 162970, "pitch": 67, "duration": 130, "velocity": 100}, {"time": 163100, "pitch": 62, "duration": 80, "velocity": 90}, {"time": 163100, "pitch": 67, "duration": 80, "velocity": 95}, {"time": 163110, "pitch": 55, "duration": 70, "velocity": 80}, {"time": 163110, "pitch": 58, "duration": 70, "velocity": 85}, {"time": 163200, "pitch": 57, "duration": 150, "velocity": 95}, {"time": 163200, "pitch": 61, "duration": 150, "velocity": 100}, {"time": 163210, "pitch": 64, "duration": 130, "velocity": 105}, {"time": 163210, "pitch": 67, "duration": 130, "velocity": 110}, {"time": 163340, "pitch": 64, "duration": 10, "velocity": 60}, {"time": 163340, "pitch": 67, "duration": 10, "velocity": 65}, {"time": 163350, "pitch": 57, "duration": 10, "velocity": 50}, {"time": 163350, "pitch": 61, "duration": 10, "velocity": 55}, {"time": 163440, "pitch": 57, "duration": 240, "velocity": 95}, {"time": 163440, "pitch": 61, "duration": 240, "velocity": 100}, {"time": 163450, "pitch": 64, "duration": 240, "velocity": 105}, {"time": 163450, "pitch": 67, "duration": 240, "velocity": 110}, {"time": 163680, "pitch": 57, "duration": 10, "velocity": 85}, {"time": 163680, "pitch": 61, "duration": 10, "velocity": 90}, {"time": 163690, "pitch": 64, "duration": 10, "velocity": 95}, {"time": 163690, "pitch": 67, "duration": 10, "velocity": 100}, {"time": 163820, "pitch": 64, "duration": 240, "velocity": 105}, {"time": 163820, "pitch": 67, "duration": 240, "velocity": 110}, {"time": 163830, "pitch": 57, "duration": 240, "velocity": 95}, {"time": 163830, "pitch": 61, "duration": 240, "velocity": 100}, {"time": 164060, "pitch": 64, "duration": 110, "velocity": 100}, {"time": 164060, "pitch": 67, "duration": 110, "velocity": 105}, {"time": 164070, "pitch": 57, "duration": 90, "velocity": 90}, {"time": 164070, "pitch": 61, "duration": 90, "velocity": 95}, {"time": 164160, "pitch": 57, "duration": 150, "velocity": 95}, {"time": 164160, "pitch": 61, "duration": 150, "velocity": 100}, {"time": 164170, "pitch": 64, "duration": 130, "velocity": 105}, {"time": 164170, "pitch": 67, "duration": 130, "velocity": 110}, {"time": 164300, "pitch": 64, "duration": 10, "velocity": 60}, {"time": 164300, "pitch": 67, "duration": 10, "velocity": 65}, {"time": 164310, "pitch": 57, "duration": 10, "velocity": 50}, {"time": 164310, "pitch": 61, "duration": 10, "velocity": 55}, {"time": 164400, "pitch": 57, "duration": 240, "velocity": 95}, {"time": 164400, "pitch": 61, "duration": 240, "velocity": 100}, {"time": 164410, "pitch": 64, "duration": 240, "velocity": 105}, {"time": 164410, "pitch": 67, "duration": 240, "velocity": 110}, {"time": 164640, "pitch": 57, "duration": 10, "velocity": 85}, {"time": 164640, "pitch": 61, "duration": 10, "velocity": 90}, {"time": 164650, "pitch": 64, "duration": 10, "velocity": 95}, {"time": 164650, "pitch": 67, "duration": 10, "velocity": 100}, {"time": 164780, "pitch": 64, "duration": 240, "velocity": 105}, {"time": 164780, "pitch": 67, "duration": 240, "velocity": 110}, {"time": 164790, "pitch": 57, "duration": 240, "velocity": 95}, {"time": 164790, "pitch": 61, "duration": 240, "velocity": 100}, {"time": 165020, "pitch": 64, "duration": 80, "velocity": 100}, {"time": 165020, "pitch": 67, "duration": 80, "velocity": 105}, {"time": 165030, "pitch": 57, "duration": 70, "velocity": 90}, {"time": 165030, "pitch": 61, "duration": 70, "velocity": 95}, {"time": 165120, "pitch": 56, "duration": 150, "velocity": 95}, {"time": 165120, "pitch": 60, "duration": 150, "velocity": 100}, {"time": 165130, "pitch": 65, "duration": 130, "velocity": 105}, {"time": 165130, "pitch": 68, "duration": 130, "velocity": 110}, {"time": 165260, "pitch": 65, "duration": 10, "velocity": 60}, {"time": 165260, "pitch": 68, "duration": 10, "velocity": 65}, {"time": 165270, "pitch": 56, "duration": 10, "velocity": 50}, {"time": 165270, "pitch": 60, "duration": 10, "velocity": 55}, {"time": 165360, "pitch": 56, "duration": 240, "velocity": 95}, {"time": 165360, "pitch": 60, "duration": 240, "velocity": 100}, {"time": 165370, "pitch": 65, "duration": 240, "velocity": 105}, {"time": 165370, "pitch": 68, "duration": 240, "velocity": 110}, {"time": 165600, "pitch": 56, "duration": 10, "velocity": 85}, {"time": 165600, "pitch": 60, "duration": 10, "velocity": 90}, {"time": 165610, "pitch": 65, "duration": 10, "velocity": 95}, {"time": 165610, "pitch": 68, "duration": 10, "velocity": 100}, {"time": 165740, "pitch": 65, "duration": 240, "velocity": 105}, {"time": 165740, "pitch": 68, "duration": 240, "velocity": 110}, {"time": 165750, "pitch": 56, "duration": 240, "velocity": 95}, {"time": 165750, "pitch": 60, "duration": 240, "velocity": 100}, {"time": 165980, "pitch": 65, "duration": 110, "velocity": 100}, {"time": 165980, "pitch": 68, "duration": 110, "velocity": 105}, {"time": 165990, "pitch": 56, "duration": 90, "velocity": 90}, {"time": 165990, "pitch": 60, "duration": 90, "velocity": 95}, {"time": 166080, "pitch": 56, "duration": 150, "velocity": 95}, {"time": 166080, "pitch": 60, "duration": 150, "velocity": 100}, {"time": 166090, "pitch": 65, "duration": 130, "velocity": 105}, {"time": 166090, "pitch": 68, "duration": 130, "velocity": 110}, {"time": 166220, "pitch": 65, "duration": 10, "velocity": 60}, {"time": 166220, "pitch": 68, "duration": 10, "velocity": 65}, {"time": 166230, "pitch": 56, "duration": 10, "velocity": 50}, {"time": 166230, "pitch": 60, "duration": 10, "velocity": 55}, {"time": 166320, "pitch": 56, "duration": 240, "velocity": 95}, {"time": 166320, "pitch": 60, "duration": 240, "velocity": 100}, {"time": 166330, "pitch": 65, "duration": 240, "velocity": 105}, {"time": 166330, "pitch": 68, "duration": 240, "velocity": 110}, {"time": 166560, "pitch": 56, "duration": 10, "velocity": 85}, {"time": 166560, "pitch": 60, "duration": 10, "velocity": 90}, {"time": 166570, "pitch": 65, "duration": 10, "velocity": 95}, {"time": 166570, "pitch": 68, "duration": 10, "velocity": 100}, {"time": 166700, "pitch": 65, "duration": 240, "velocity": 105}, {"time": 166700, "pitch": 68, "duration": 240, "velocity": 110}, {"time": 166710, "pitch": 56, "duration": 240, "velocity": 95}, {"time": 166710, "pitch": 60, "duration": 240, "velocity": 100}, {"time": 166940, "pitch": 65, "duration": 110, "velocity": 100}, {"time": 166940, "pitch": 68, "duration": 110, "velocity": 105}, {"time": 166950, "pitch": 56, "duration": 90, "velocity": 90}, {"time": 166950, "pitch": 60, "duration": 90, "velocity": 95}, {"time": 167040, "pitch": 55, "duration": 150, "velocity": 95}, {"time": 167040, "pitch": 60, "duration": 150, "velocity": 100}, {"time": 167050, "pitch": 64, "duration": 130, "velocity": 105}, {"time": 167050, "pitch": 67, "duration": 130, "velocity": 110}, {"time": 167180, "pitch": 64, "duration": 10, "velocity": 60}, {"time": 167180, "pitch": 67, "duration": 10, "velocity": 65}, {"time": 167190, "pitch": 55, "duration": 10, "velocity": 50}, {"time": 167190, "pitch": 60, "duration": 10, "velocity": 55}, {"time": 167280, "pitch": 55, "duration": 240, "velocity": 95}, {"time": 167280, "pitch": 60, "duration": 240, "velocity": 100}, {"time": 167290, "pitch": 64, "duration": 240, "velocity": 105}, {"time": 167290, "pitch": 67, "duration": 240, "velocity": 110}, {"time": 167520, "pitch": 55, "duration": 10, "velocity": 85}, {"time": 167520, "pitch": 60, "duration": 10, "velocity": 90}, {"time": 167530, "pitch": 64, "duration": 10, "velocity": 95}, {"time": 167530, "pitch": 67, "duration": 10, "velocity": 100}, {"time": 167660, "pitch": 64, "duration": 240, "velocity": 105}, {"time": 167660, "pitch": 67, "duration": 240, "velocity": 110}, {"time": 167670, "pitch": 55, "duration": 240, "velocity": 95}, {"time": 167670, "pitch": 60, "duration": 240, "velocity": 100}, {"time": 167900, "pitch": 64, "duration": 110, "velocity": 100}, {"time": 167900, "pitch": 67, "duration": 110, "velocity": 105}, {"time": 167910, "pitch": 55, "duration": 90, "velocity": 90}, {"time": 167910, "pitch": 60, "duration": 90, "velocity": 95}, {"time": 168000, "pitch": 55, "duration": 150, "velocity": 95}, {"time": 168000, "pitch": 60, "duration": 150, "velocity": 100}, {"time": 168010, "pitch": 64, "duration": 130, "velocity": 105}, {"time": 168010, "pitch": 67, "duration": 130, "velocity": 110}, {"time": 168140, "pitch": 64, "duration": 10, "velocity": 60}, {"time": 168140, "pitch": 67, "duration": 10, "velocity": 65}, {"time": 168150, "pitch": 55, "duration": 10, "velocity": 50}, {"time": 168150, "pitch": 60, "duration": 10, "velocity": 55}, {"time": 168240, "pitch": 55, "duration": 240, "velocity": 95}, {"time": 168240, "pitch": 60, "duration": 240, "velocity": 100}, {"time": 168250, "pitch": 64, "duration": 240, "velocity": 105}, {"time": 168250, "pitch": 67, "duration": 240, "velocity": 110}, {"time": 168480, "pitch": 55, "duration": 10, "velocity": 85}, {"time": 168480, "pitch": 60, "duration": 10, "velocity": 90}, {"time": 168490, "pitch": 64, "duration": 10, "velocity": 95}, {"time": 168490, "pitch": 67, "duration": 10, "velocity": 100}, {"time": 168620, "pitch": 64, "duration": 240, "velocity": 105}, {"time": 168620, "pitch": 67, "duration": 240, "velocity": 110}, {"time": 168630, "pitch": 55, "duration": 240, "velocity": 95}, {"time": 168630, "pitch": 60, "duration": 240, "velocity": 100}, {"time": 168860, "pitch": 64, "duration": 110, "velocity": 100}, {"time": 168860, "pitch": 67, "duration": 110, "velocity": 105}, {"time": 168870, "pitch": 55, "duration": 90, "velocity": 90}, {"time": 168870, "pitch": 60, "duration": 90, "velocity": 95}, {"time": 168960, "pitch": 53, "duration": 150, "velocity": 95}, {"time": 168960, "pitch": 60, "duration": 150, "velocity": 100}, {"time": 168970, "pitch": 62, "duration": 130, "velocity": 105}, {"time": 168970, "pitch": 69, "duration": 130, "velocity": 110}, {"time": 169100, "pitch": 62, "duration": 10, "velocity": 60}, {"time": 169100, "pitch": 69, "duration": 10, "velocity": 65}, {"time": 169110, "pitch": 53, "duration": 10, "velocity": 50}, {"time": 169110, "pitch": 60, "duration": 10, "velocity": 55}, {"time": 169200, "pitch": 53, "duration": 240, "velocity": 95}, {"time": 169200, "pitch": 60, "duration": 240, "velocity": 100}, {"time": 169210, "pitch": 62, "duration": 240, "velocity": 105}, {"time": 169210, "pitch": 69, "duration": 240, "velocity": 110}, {"time": 169440, "pitch": 53, "duration": 10, "velocity": 85}, {"time": 169440, "pitch": 60, "duration": 10, "velocity": 90}, {"time": 169450, "pitch": 62, "duration": 10, "velocity": 95}, {"time": 169450, "pitch": 69, "duration": 10, "velocity": 100}, {"time": 169580, "pitch": 62, "duration": 240, "velocity": 105}, {"time": 169580, "pitch": 69, "duration": 240, "velocity": 110}, {"time": 169590, "pitch": 53, "duration": 240, "velocity": 95}, {"time": 169590, "pitch": 60, "duration": 240, "velocity": 100}, {"time": 169820, "pitch": 62, "duration": 110, "velocity": 100}, {"time": 169820, "pitch": 69, "duration": 110, "velocity": 105}, {"time": 169830, "pitch": 53, "duration": 90, "velocity": 90}, {"time": 169830, "pitch": 60, "duration": 90, "velocity": 95}, {"time": 169920, "pitch": 53, "duration": 150, "velocity": 95}, {"time": 169920, "pitch": 60, "duration": 150, "velocity": 100}, {"time": 169930, "pitch": 62, "duration": 130, "velocity": 105}, {"time": 169930, "pitch": 69, "duration": 130, "velocity": 110}, {"time": 170060, "pitch": 62, "duration": 10, "velocity": 60}, {"time": 170060, "pitch": 69, "duration": 10, "velocity": 65}, {"time": 170070, "pitch": 53, "duration": 10, "velocity": 50}, {"time": 170070, "pitch": 60, "duration": 10, "velocity": 55}, {"time": 170160, "pitch": 53, "duration": 240, "velocity": 95}, {"time": 170160, "pitch": 60, "duration": 240, "velocity": 100}, {"time": 170170, "pitch": 62, "duration": 240, "velocity": 105}, {"time": 170170, "pitch": 69, "duration": 240, "velocity": 110}, {"time": 170400, "pitch": 53, "duration": 10, "velocity": 85}, {"time": 170400, "pitch": 60, "duration": 10, "velocity": 90}, {"time": 170410, "pitch": 62, "duration": 10, "velocity": 95}, {"time": 170410, "pitch": 69, "duration": 10, "velocity": 100}, {"time": 170540, "pitch": 62, "duration": 240, "velocity": 105}, {"time": 170540, "pitch": 69, "duration": 240, "velocity": 110}, {"time": 170550, "pitch": 53, "duration": 240, "velocity": 95}, {"time": 170550, "pitch": 60, "duration": 240, "velocity": 100}, {"time": 170780, "pitch": 62, "duration": 80, "velocity": 100}, {"time": 170780, "pitch": 69, "duration": 80, "velocity": 105}, {"time": 170790, "pitch": 53, "duration": 70, "velocity": 90}, {"time": 170790, "pitch": 60, "duration": 70, "velocity": 95}, {"time": 170880, "pitch": 55, "duration": 150, "velocity": 95}, {"time": 170880, "pitch": 60, "duration": 150, "velocity": 100}, {"time": 170890, "pitch": 62, "duration": 130, "velocity": 105}, {"time": 170890, "pitch": 68, "duration": 130, "velocity": 110}, {"time": 171020, "pitch": 62, "duration": 10, "velocity": 60}, {"time": 171020, "pitch": 68, "duration": 10, "velocity": 65}, {"time": 171030, "pitch": 55, "duration": 10, "velocity": 50}, {"time": 171030, "pitch": 60, "duration": 10, "velocity": 55}, {"time": 171120, "pitch": 55, "duration": 240, "velocity": 95}, {"time": 171120, "pitch": 60, "duration": 240, "velocity": 100}, {"time": 171130, "pitch": 62, "duration": 240, "velocity": 105}, {"time": 171130, "pitch": 68, "duration": 240, "velocity": 110}, {"time": 171360, "pitch": 55, "duration": 10, "velocity": 85}, {"time": 171360, "pitch": 60, "duration": 10, "velocity": 90}, {"time": 171370, "pitch": 62, "duration": 10, "velocity": 95}, {"time": 171370, "pitch": 68, "duration": 10, "velocity": 100}, {"time": 171500, "pitch": 62, "duration": 240, "velocity": 105}, {"time": 171500, "pitch": 68, "duration": 240, "velocity": 110}, {"time": 171510, "pitch": 55, "duration": 240, "velocity": 95}, {"time": 171510, "pitch": 60, "duration": 240, "velocity": 100}, {"time": 171740, "pitch": 62, "duration": 110, "velocity": 100}, {"time": 171740, "pitch": 68, "duration": 110, "velocity": 105}, {"time": 171750, "pitch": 55, "duration": 90, "velocity": 90}, {"time": 171750, "pitch": 60, "duration": 90, "velocity": 95}, {"time": 171840, "pitch": 55, "duration": 940, "velocity": 95}, {"time": 171840, "pitch": 60, "duration": 940, "velocity": 100}, {"time": 171850, "pitch": 62, "duration": 930, "velocity": 105}, {"time": 171850, "pitch": 68, "duration": 930, "velocity": 110}, {"time": 172800, "pitch": 53, "duration": 480, "velocity": 95}, {"time": 172800, "pitch": 60, "duration": 480, "velocity": 100}, {"time": 172810, "pitch": 62, "duration": 480, "velocity": 105}, {"time": 172810, "pitch": 69, "duration": 480, "velocity": 110}, {"time": 173280, "pitch": 53, "duration": 250, "velocity": 95}, {"time": 173280, "pitch": 60, "duration": 250, "velocity": 100}, {"time": 173290, "pitch": 62, "duration": 230, "velocity": 105}, {"time": 173290, "pitch": 69, "duration": 230, "velocity": 110}, {"time": 173520, "pitch": 62, "duration": 250, "velocity": 95}, {"time": 173520, "pitch": 69, "duration": 250, "velocity": 100}, {"time": 173530, "pitch": 53, "duration": 230, "velocity": 85}, {"time": 173530, "pitch": 60, "duration": 230, "velocity": 90}, {"time": 173760, "pitch": 53, "duration": 250, "velocity": 95}, {"time": 173760, "pitch": 60, "duration": 250, "velocity": 100}, {"time": 173770, "pitch": 62, "duration": 230, "velocity": 105}, {"time": 173770, "pitch": 69, "duration": 230, "velocity": 110}, {"time": 174000, "pitch": 62, "duration": 250, "velocity": 95}, {"time": 174000, "pitch": 69, "duration": 250, "velocity": 100}, {"time": 174010, "pitch": 53, "duration": 230, "velocity": 85}, {"time": 174010, "pitch": 60, "duration": 230, "velocity": 90}, {"time": 174240, "pitch": 53, "duration": 250, "velocity": 105}, {"time": 174240, "pitch": 60, "duration": 250, "velocity": 110}, {"time": 174250, "pitch": 62, "duration": 230, "velocity": 115}, {"time": 174250, "pitch": 69, "duration": 230, "velocity": 120}, {"time": 174480, "pitch": 62, "duration": 150, "velocity": 95}, {"time": 174480, "pitch": 69, "duration": 150, "velocity": 100}, {"time": 174490, "pitch": 53, "duration": 130, "velocity": 85}, {"time": 174490, "pitch": 60, "duration": 130, "velocity": 90}, {"time": 174720, "pitch": 53, "duration": 480, "velocity": 95}, {"time": 174720, "pitch": 60, "duration": 480, "velocity": 100}, {"time": 174730, "pitch": 65, "duration": 480, "velocity": 105}, {"time": 174730, "pitch": 68, "duration": 480, "velocity": 110}, {"time": 175200, "pitch": 53, "duration": 250, "velocity": 95}, {"time": 175200, "pitch": 60, "duration": 250, "velocity": 100}, {"time": 175210, "pitch": 65, "duration": 230, "velocity": 105}, {"time": 175210, "pitch": 68, "duration": 230, "velocity": 110}, {"time": 175440, "pitch": 65, "duration": 250, "velocity": 95}, {"time": 175440, "pitch": 68, "duration": 250, "velocity": 100}, {"time": 175450, "pitch": 53, "duration": 230, "velocity": 85}, {"time": 175450, "pitch": 60, "duration": 230, "velocity": 90}, {"time": 175680, "pitch": 53, "duration": 250, "velocity": 95}, {"time": 175680, "pitch": 60, "duration": 250, "velocity": 100}, {"time": 175690, "pitch": 65, "duration": 230, "velocity": 105}, {"time": 175690, "pitch": 68, "duration": 230, "velocity": 110}, {"time": 175920, "pitch": 65, "duration": 250, "velocity": 95}, {"time": 175920, "pitch": 68, "duration": 250, "velocity": 100}, {"time": 175930, "pitch": 53, "duration": 230, "velocity": 85}, {"time": 175930, "pitch": 60, "duration": 230, "velocity": 90}, {"time": 176160, "pitch": 53, "duration": 250, "velocity": 105}, {"time": 176160, "pitch": 60, "duration": 250, "velocity": 110}, {"time": 176170, "pitch": 65, "duration": 230, "velocity": 115}, {"time": 176170, "pitch": 68, "duration": 230, "velocity": 120}, {"time": 176400, "pitch": 65, "duration": 150, "velocity": 95}, {"time": 176400, "pitch": 68, "duration": 150, "velocity": 100}, {"time": 176410, "pitch": 53, "duration": 130, "velocity": 85}, {"time": 176410, "pitch": 60, "duration": 130, "velocity": 90}, {"time": 176640, "pitch": 55, "duration": 480, "velocity": 95}, {"time": 176640, "pitch": 60, "duration": 480, "velocity": 100}, {"time": 176650, "pitch": 64, "duration": 480, "velocity": 105}, {"time": 176650, "pitch": 67, "duration": 480, "velocity": 110}, {"time": 177120, "pitch": 55, "duration": 250, "velocity": 95}, {"time": 177120, "pitch": 60, "duration": 250, "velocity": 100}, {"time": 177130, "pitch": 64, "duration": 230, "velocity": 105}, {"time": 177130, "pitch": 67, "duration": 230, "velocity": 110}, {"time": 177360, "pitch": 64, "duration": 250, "velocity": 95}, {"time": 177360, "pitch": 67, "duration": 250, "velocity": 100}, {"time": 177370, "pitch": 55, "duration": 230, "velocity": 85}, {"time": 177370, "pitch": 60, "duration": 230, "velocity": 90}, {"time": 177600, "pitch": 55, "duration": 250, "velocity": 95}, {"time": 177600, "pitch": 60, "duration": 250, "velocity": 100}, {"time": 177610, "pitch": 64, "duration": 230, "velocity": 105}, {"time": 177610, "pitch": 67, "duration": 230, "velocity": 110}, {"time": 177840, "pitch": 64, "duration": 220, "velocity": 95}, {"time": 177840, "pitch": 67, "duration": 220, "velocity": 100}, {"time": 177850, "pitch": 55, "duration": 210, "velocity": 85}, {"time": 177850, "pitch": 60, "duration": 210, "velocity": 90}, {"time": 178080, "pitch": 57, "duration": 460, "velocity": 105}, {"time": 178080, "pitch": 60, "duration": 460, "velocity": 110}, {"time": 178090, "pitch": 65, "duration": 450, "velocity": 115}, {"time": 178090, "pitch": 69, "duration": 450, "velocity": 120}, {"time": 178560, "pitch": 55, "duration": 480, "velocity": 95}, {"time": 178560, "pitch": 60, "duration": 480, "velocity": 100}, {"time": 178570, "pitch": 64, "duration": 480, "velocity": 105}, {"time": 178570, "pitch": 67, "duration": 480, "velocity": 110}, {"time": 179040, "pitch": 55, "duration": 250, "velocity": 95}, {"time": 179040, "pitch": 60, "duration": 250, "velocity": 100}, {"time": 179050, "pitch": 64, "duration": 230, "velocity": 105}, {"time": 179050, "pitch": 67, "duration": 230, "velocity": 110}, {"time": 179280, "pitch": 64, "duration": 250, "velocity": 95}, {"time": 179280, "pitch": 67, "duration": 250, "velocity": 100}, {"time": 179290, "pitch": 55, "duration": 230, "velocity": 85}, {"time": 179290, "pitch": 60, "duration": 230, "velocity": 90}, {"time": 179520, "pitch": 55, "duration": 250, "velocity": 95}, {"time": 179520, "pitch": 60, "duration": 250, "velocity": 100}, {"time": 179530, "pitch": 64, "duration": 230, "velocity": 105}, {"time": 179530, "pitch": 67, "duration": 230, "velocity": 110}, {"time": 179760, "pitch": 64, "duration": 250, "velocity": 95}, {"time": 179760, "pitch": 67, "duration": 250, "velocity": 100}, {"time": 179770, "pitch": 55, "duration": 230, "velocity": 85}, {"time": 179770, "pitch": 60, "duration": 230, "velocity": 90}, {"time": 180000, "pitch": 55, "duration": 250, "velocity": 105}, {"time": 180000, "pitch": 60, "duration": 250, "velocity": 110}, {"time": 180010, "pitch": 64, "duration": 230, "velocity": 115}, {"time": 180010, "pitch": 67, "duration": 230, "velocity": 120}, {"time": 180240, "pitch": 64, "duration": 150, "velocity": 95}, {"time": 180240, "pitch": 67, "duration": 150, "velocity": 100}, {"time": 180250, "pitch": 55, "duration": 130, "velocity": 85}, {"time": 180250, "pitch": 60, "duration": 130, "velocity": 90}, {"time": 180480, "pitch": 53, "duration": 250, "velocity": 95}, {"time": 180480, "pitch": 60, "duration": 250, "velocity": 100}, {"time": 180490, "pitch": 62, "duration": 230, "velocity": 105}, {"time": 180490, "pitch": 69, "duration": 230, "velocity": 110}, {"time": 180720, "pitch": 62, "duration": 250, "velocity": 95}, {"time": 180720, "pitch": 69, "duration": 250, "velocity": 100}, {"time": 180730, "pitch": 53, "duration": 230, "velocity": 85}, {"time": 180730, "pitch": 60, "duration": 230, "velocity": 90}, {"time": 180960, "pitch": 53, "duration": 250, "velocity": 105}, {"time": 180960, "pitch": 60, "duration": 250, "velocity": 110}, {"time": 180970, "pitch": 62, "duration": 230, "velocity": 115}, {"time": 180970, "pitch": 69, "duration": 230, "velocity": 120}, {"time": 181200, "pitch": 62, "duration": 150, "velocity": 95}, {"time": 181200, "pitch": 69, "duration": 150, "velocity": 100}, {"time": 181210, "pitch": 53, "duration": 130, "velocity": 85}, {"time": 181210, "pitch": 60, "duration": 130, "velocity": 90}, {"time": 181440, "pitch": 55, "duration": 250, "velocity": 95}, {"time": 181440, "pitch": 62, "duration": 250, "velocity": 100}, {"time": 181450, "pitch": 64, "duration": 230, "velocity": 105}, {"time": 181450, "pitch": 71, "duration": 230, "velocity": 110}, {"time": 181680, "pitch": 64, "duration": 250, "velocity": 95}, {"time": 181680, "pitch": 71, "duration": 250, "velocity": 100}, {"time": 181690, "pitch": 55, "duration": 230, "velocity": 85}, {"time": 181690, "pitch": 62, "duration": 230, "velocity": 90}, {"time": 181920, "pitch": 55, "duration": 250, "velocity": 105}, {"time": 181920, "pitch": 62, "duration": 250, "velocity": 110}, {"time": 181930, "pitch": 64, "duration": 230, "velocity": 115}, {"time": 181930, "pitch": 71, "duration": 230, "velocity": 120}, {"time": 182160, "pitch": 64, "duration": 150, "velocity": 95}, {"time": 182160, "pitch": 71, "duration": 150, "velocity": 100}, {"time": 182170, "pitch": 55, "duration": 130, "velocity": 85}, {"time": 182170, "pitch": 62, "duration": 130, "velocity": 90}, {"time": 182400, "pitch": 57, "duration": 250, "velocity": 95}, {"time": 182400, "pitch": 60, "duration": 250, "velocity": 100}, {"time": 182410, "pitch": 65, "duration": 230, "velocity": 105}, {"time": 182410, "pitch": 69, "duration": 230, "velocity": 110}, {"time": 182640, "pitch": 65, "duration": 250, "velocity": 95}, {"time": 182640, "pitch": 69, "duration": 250, "velocity": 100}, {"time": 182650, "pitch": 57, "duration": 230, "velocity": 85}, {"time": 182650, "pitch": 60, "duration": 230, "velocity": 90}, {"time": 182880, "pitch": 57, "duration": 250, "velocity": 105}, {"time": 182880, "pitch": 60, "duration": 250, "velocity": 110}, {"time": 182890, "pitch": 65, "duration": 230, "velocity": 115}, {"time": 182890, "pitch": 69, "duration": 230, "velocity": 120}, {"time": 183120, "pitch": 65, "duration": 250, "velocity": 95}, {"time": 183120, "pitch": 69, "duration": 250, "velocity": 100}, {"time": 183130, "pitch": 57, "duration": 230, "velocity": 85}, {"time": 183130, "pitch": 60, "duration": 230, "velocity": 90}, {"time": 183360, "pitch": 57, "duration": 250, "velocity": 95}, {"time": 183360, "pitch": 60, "duration": 250, "velocity": 100}, {"time": 183370, "pitch": 65, "duration": 230, "velocity": 105}, {"time": 183370, "pitch": 69, "duration": 230, "velocity": 110}, {"time": 183600, "pitch": 65, "duration": 250, "velocity": 95}, {"time": 183600, "pitch": 69, "duration": 250, "velocity": 100}, {"time": 183610, "pitch": 57, "duration": 230, "velocity": 85}, {"time": 183610, "pitch": 60, "duration": 230, "velocity": 90}, {"time": 183840, "pitch": 57, "duration": 250, "velocity": 105}, {"time": 183840, "pitch": 60, "duration": 250, "velocity": 110}, {"time": 183850, "pitch": 65, "duration": 230, "velocity": 115}, {"time": 183850, "pitch": 69, "duration": 230, "velocity": 120}, {"time": 184080, "pitch": 65, "duration": 150, "velocity": 95}, {"time": 184080, "pitch": 69, "duration": 150, "velocity": 100}, {"time": 184090, "pitch": 57, "duration": 130, "velocity": 85}, {"time": 184090, "pitch": 60, "duration": 130, "velocity": 90}, {"time": 184320, "pitch": 56, "duration": 495, "velocity": 95}, {"time": 184320, "pitch": 62, "duration": 495, "velocity": 100}, {"time": 184330, "pitch": 65, "duration": 509, "velocity": 105}, {"time": 184330, "pitch": 68, "duration": 509, "velocity": 110}, {"time": 184815, "pitch": 56, "duration": 476, "velocity": 95}, {"time": 184815, "pitch": 62, "duration": 476, "velocity": 100}, {"time": 184839, "pitch": 65, "duration": 448, "velocity": 105}, {"time": 184839, "pitch": 68, "duration": 448, "velocity": 110}, {"time": 185287, "pitch": 65, "duration": 87, "velocity": 95}, {"time": 185287, "pitch": 68, "duration": 87, "velocity": 100}, {"time": 185291, "pitch": 56, "duration": 79, "velocity": 85}, {"time": 185291, "pitch": 62, "duration": 79, "velocity": 90}, {"time": 185370, "pitch": 56, "duration": 107, "velocity": 95}, {"time": 185370, "pitch": 62, "duration": 107, "velocity": 100}, {"time": 185374, "pitch": 65, "duration": 97, "velocity": 105}, {"time": 185374, "pitch": 68, "duration": 97, "velocity": 110}, {"time": 185471, "pitch": 65, "duration": 131, "velocity": 95}, {"time": 185471, "pitch": 68, "duration": 131, "velocity": 100}, {"time": 185477, "pitch": 56, "duration": 118, "velocity": 85}, {"time": 185477, "pitch": 62, "duration": 118, "velocity": 90}, {"time": 185595, "pitch": 56, "duration": 612, "velocity": 105}, {"time": 185602, "pitch": 62, "duration": 605, "velocity": 110}, {"time": 185610, "pitch": 65, "duration": 597, "velocity": 115}, {"time": 185618, "pitch": 68, "duration": 589, "velocity": 120}, {"time": 186244, "pitch": 55, "duration": 2872, "velocity": 95}, {"time": 186256, "pitch": 60, "duration": 2860, "velocity": 100}, {"time": 186266, "pitch": 64, "duration": 2850, "velocity": 105}, {"time": 186276, "pitch": 67, "duration": 2840, "velocity": 110}, {"time": 33120, "pitch": 59, "duration": 1420, "velocity": 110}, {"time": 33600, "pitch": 60, "duration": 940, "velocity": 105}, {"time": 34080, "pitch": 64, "duration": 2380, "velocity": 110}, {"time": 34560, "pitch": 71, "duration": 1900, "velocity": 110}, {"time": 36960, "pitch": 57, "duration": 1420, "velocity": 110}, {"time": 37440, "pitch": 58, "duration": 940, "velocity": 105}, {"time": 37920, "pitch": 62, "duration": 2380, "velocity": 110}, {"time": 38400, "pitch": 69, "duration": 1900, "velocity": 110}, {"time": 40800, "pitch": 57, "duration": 1420, "velocity": 110}, {"time": 41280, "pitch": 60, "duration": 940, "velocity": 105}, {"time": 41760, "pitch": 64, "duration": 2380, "velocity": 110}, {"time": 42240, "pitch": 67, "duration": 1900, "velocity": 110}, {"time": 44640, "pitch": 57, "duration": 1420, "velocity": 110}, {"time": 45120, "pitch": 62, "duration": 940, "velocity": 105}, {"time": 45600, "pitch": 65, "duration": 2380, "velocity": 110}, {"time": 46080, "pitch": 69, "duration": 1900, "velocity": 110}, {"time": 48480, "pitch": 59, "duration": 1420, "velocity": 110}, {"time": 48960, "pitch": 60, "duration": 940, "velocity": 105}, {"time": 49440, "pitch": 64, "duration": 2380, "velocity": 110}, {"time": 49920, "pitch": 71, "duration": 1900, "velocity": 110}, {"time": 52320, "pitch": 57, "duration": 1420, "velocity": 110}, {"time": 52800, "pitch": 58, "duration": 940, "velocity": 105}, {"time": 53280, "pitch": 62, "duration": 2380, "velocity": 110}, {"time": 53760, "pitch": 69, "duration": 1900, "velocity": 110}, {"time": 56160, "pitch": 57, "duration": 1420, "velocity": 110}, {"time": 56640, "pitch": 60, "duration": 940, "velocity": 105}, {"time": 57120, "pitch": 64, "duration": 2380, "velocity": 110}, {"time": 57600, "pitch": 67, "duration": 1900, "velocity": 110}, {"time": 60000, "pitch": 57, "duration": 1420, "velocity": 110}, {"time": 60480, "pitch": 62, "duration": 940, "velocity": 105}, {"time": 60960, "pitch": 65, "duration": 2380, "velocity": 110}, {"time": 61440, "pitch": 69, "duration": 1900, "velocity": 110}, {"time": 77040, "pitch": 57, "duration": 240, "velocity": 110}, {"time": 77280, "pitch": 59, "duration": 240, "velocity": 115}, {"time": 77520, "pitch": 60, "duration": 240, "velocity": 110}, {"time": 77760, "pitch": 62, "duration": 240, "velocity": 115}, {"time": 78000, "pitch": 64, "duration": 240, "velocity": 110}, {"time": 78240, "pitch": 65, "duration": 240, "velocity": 115}, {"time": 78480, "pitch": 69, "duration": 240, "velocity": 110}, {"time": 78720, "pitch": 67, "duration": 960, "velocity": 110}, {"time": 91200, "pitch": 72, "duration": 240, "velocity": 110}, {"time": 91440, "pitch": 71, "duration": 240, "velocity": 105}, {"time": 91680, "pitch": 69, "duration": 240, "velocity": 110}, {"time": 91920, "pitch": 67, "duration": 240, "velocity": 105}, {"time": 92160, "pitch": 65, "duration": 240, "velocity": 110}, {"time": 92400, "pitch": 64, "duration": 240, "velocity": 105}, {"time": 92640, "pitch": 62, "duration": 240, "velocity": 110}, {"time": 92880, "pitch": 60, "duration": 240, "velocity": 105}, {"time": 93120, "pitch": 56, "duration": 960, "velocity": 100}, {"time": 111840, "pitch": 59, "duration": 1420, "velocity": 110}, {"time": 112320, "pitch": 60, "duration": 940, "velocity": 105}, {"time": 112800, "pitch": 64, "duration": 2380, "velocity": 110}, {"time": 113280, "pitch": 71, "duration": 1900, "velocity": 110}, {"time": 115680, "pitch": 57, "duration": 1420, "velocity": 110}, {"time": 116160, "pitch": 58, "duration": 940, "velocity": 105}, {"time": 116640, "pitch": 62, "duration": 2380, "velocity": 110}, {"time": 117120, "pitch": 69, "duration": 1900, "velocity": 110}, {"time": 119520, "pitch": 57, "duration": 1420, "velocity": 110}, {"time": 120000, "pitch": 60, "duration": 940, "velocity": 105}, {"time": 120480, "pitch": 64, "duration": 2380, "velocity": 110}, {"time": 120960, "pitch": 67, "duration": 1900, "velocity": 110}, {"time": 123360, "pitch": 57, "duration": 1420, "velocity": 110}, {"time": 123840, "pitch": 62, "duration": 940, "velocity": 105}, {"time": 124320, "pitch": 65, "duration": 2380, "velocity": 110}, {"time": 124800, "pitch": 69, "duration": 1900, "velocity": 110}, {"time": 127200, "pitch": 59, "duration": 1420, "velocity": 110}, {"time": 127680, "pitch": 60, "duration": 940, "velocity": 105}, {"time": 128160, "pitch": 64, "duration": 2380, "velocity": 110}, {"time": 128640, "pitch": 71, "duration": 1900, "velocity": 110}, {"time": 131040, "pitch": 57, "duration": 1420, "velocity": 110}, {"time": 131520, "pitch": 58, "duration": 940, "velocity": 105}, {"time": 132000, "pitch": 62, "duration": 2380, "velocity": 110}, {"time": 132480, "pitch": 69, "duration": 1900, "velocity": 110}, {"time": 134880, "pitch": 57, "duration": 1420, "velocity": 110}, {"time": 135360, "pitch": 60, "duration": 940, "velocity": 105}, {"time": 135840, "pitch": 64, "duration": 2380, "velocity": 110}, {"time": 136320, "pitch": 67, "duration": 1900, "velocity": 110}, {"time": 138720, "pitch": 57, "duration": 1420, "velocity": 110}, {"time": 139200, "pitch": 62, "duration": 940, "velocity": 105}, {"time": 139680, "pitch": 65, "duration": 2380, "velocity": 110}, {"time": 140160, "pitch": 69, "duration": 1900, "velocity": 110}, {"time": 155760, "pitch": 57, "duration": 240, "velocity": 110}, {"time": 156000, "pitch": 59, "duration": 240, "velocity": 115}, {"time": 156240, "pitch": 60, "duration": 240, "velocity": 110}, {"time": 156480, "pitch": 62, "duration": 240, "velocity": 115}, {"time": 156720, "pitch": 64, "duration": 240, "velocity": 110}, {"time": 156960, "pitch": 65, "duration": 240, "velocity": 115}, {"time": 157200, "pitch": 69, "duration": 240, "velocity": 110}, {"time": 157440, "pitch": 67, "duration": 720, "velocity": 110}, {"time": 158160, "pitch": 60, "duration": 720, "velocity": 110}, {"time": 158880, "pitch": 64, "duration": 480, "velocity": 110}, {"time": 159360, "pitch": 67, "duration": 720, "velocity": 110}, {"time": 160080, "pitch": 59, "duration": 720, "velocity": 110}, {"time": 160800, "pitch": 62, "duration": 480, "velocity": 110}, {"time": 161280, "pitch": 67, "duration": 720, "velocity": 110}, {"time": 162000, "pitch": 58, "duration": 720, "velocity": 110}, {"time": 162720, "pitch": 62, "duration": 480, "velocity": 110}, {"time": 163200, "pitch": 67, "duration": 720, "velocity": 110}, {"time": 163920, "pitch": 57, "duration": 720, "velocity": 110}, {"time": 164640, "pitch": 61, "duration": 480, "velocity": 110}, {"time": 165120, "pitch": 65, "duration": 720, "velocity": 110}, {"time": 165840, "pitch": 56, "duration": 720, "velocity": 110}, {"time": 166560, "pitch": 60, "duration": 480, "velocity": 110}, {"time": 167040, "pitch": 64, "duration": 720, "velocity": 110}, {"time": 167760, "pitch": 55, "duration": 720, "velocity": 110}, {"time": 168480, "pitch": 60, "duration": 480, "velocity": 110}, {"time": 168960, "pitch": 62, "duration": 720, "velocity": 110}, {"time": 169680, "pitch": 65, "duration": 720, "velocity": 110}, {"time": 170400, "pitch": 69, "duration": 480, "velocity": 110}, {"time": 170880, "pitch": 72, "duration": 240, "velocity": 110}, {"time": 171120, "pitch": 71, "duration": 240, "velocity": 105}, {"time": 171360, "pitch": 69, "duration": 240, "velocity": 110}, {"time": 171600, "pitch": 67, "duration": 240, "velocity": 105}, {"time": 171840, "pitch": 65, "duration": 940, "velocity": 110}, {"time": 173280, "pitch": 53, "duration": 480, "velocity": 110}, {"time": 173760, "pitch": 57, "duration": 480, "velocity": 110}, {"time": 174240, "pitch": 62, "duration": 480, "velocity": 110}, {"time": 174720, "pitch": 65, "duration": 1900, "velocity": 110}, {"time": 177120, "pitch": 52, "duration": 480, "velocity": 110}, {"time": 177600, "pitch": 55, "duration": 480, "velocity": 110}, {"time": 178080, "pitch": 60, "duration": 480, "velocity": 110}, {"time": 178560, "pitch": 64, "duration": 1900, "velocity": 110}, {"time": 180480, "pitch": 50, "duration": 940, "velocity": 110}, {"time": 181440, "pitch": 52, "duration": 940, "velocity": 110}, {"time": 182400, "pitch": 53, "duration": 1900, "velocity": 110}, {"time": 184320, "pitch": 50, "duration": 1887, "velocity": 110}, {"time": 186244, "pitch": 48, "duration": 2872, "velocity": 110}, {"time": 322, "pitch": 36, "duration": 3, "velocity": 106}, {"time": 322, "pitch": 49, "duration": 3, "velocity": 92}, {"time": 401, "pitch": 36, "duration": 3, "velocity": 92}, {"time": 401, "pitch": 42, "duration": 3, "velocity": 78}, {"time": 480, "pitch": 40, "duration": 10, "velocity": 106}, {"time": 480, "pitch": 42, "duration": 10, "velocity": 106}, {"time": 620, "pitch": 36, "duration": 10, "velocity": 92}, {"time": 720, "pitch": 42, "duration": 10, "velocity": 78}, {"time": 860, "pitch": 38, "duration": 10, "velocity": 78}, {"time": 960, "pitch": 42, "duration": 10, "velocity": 106}, {"time": 1100, "pitch": 38, "duration": 10, "velocity": 78}, {"time": 1200, "pitch": 36, "duration": 10, "velocity": 106}, {"time": 1200, "pitch": 42, "duration": 10, "velocity": 78}, {"time": 1440, "pitch": 40, "duration": 10, "velocity": 106}, {"time": 1440, "pitch": 42, "duration": 10, "velocity": 106}, {"time": 1580, "pitch": 36, "duration": 10, "velocity": 92}, {"time": 1680, "pitch": 42, "duration": 10, "velocity": 78}, {"time": 1820, "pitch": 38, "duration": 10, "velocity": 78}, {"time": 1920, "pitch": 36, "duration": 10, "velocity": 106}, {"time": 1920, "pitch": 42, "duration": 10, "velocity": 106}, {"time": 2160, "pitch": 36, "duration": 10, "velocity": 92}, {"time": 2160, "pitch": 42, "duration": 10, "velocity": 78}, {"time": 2400, "pitch": 40, "duration": 10, "velocity": 106}, {"time": 2400, "pitch": 42, "duration": 10, "velocity": 106}, {"time": 2540, "pitch": 36, "duration": 10, "velocity": 92}, {"time": 2640, "pitch": 42, "duration": 10, "velocity": 78}, {"time": 2780, "pitch": 38, "duration": 10, "velocity": 78}, {"time": 2880, "pitch": 42, "duration": 10, "velocity": 106}, {"time": 3020, "pitch": 38, "duration": 10, "velocity": 78}, {"time": 3120, "pitch": 36, "duration": 10, "velocity": 106}, {"time": 3120, "pitch": 42, "duration": 10, "velocity": 78}, {"time": 3360, "pitch": 40, "duration": 10, "velocity": 106}, {"time": 3360, "pitch": 42, "duration": 10, "velocity": 106}, {"time": 3500, "pitch": 36, "duration": 10, "velocity": 92}, {"time": 3600, "pitch": 42, "duration": 10, "velocity": 78}, {"time": 3740, "pitch": 38, "duration": 10, "velocity": 78}, {"time": 3840, "pitch": 36, "duration": 10, "velocity": 106}, {"time": 3840, "pitch": 42, "duration": 10, "velocity": 106}, {"time": 4080, "pitch": 36, "duration": 10, "velocity": 92}, {"time": 4080, "pitch": 42, "duration": 10, "velocity": 78}, {"time": 4320, "pitch": 40, "duration": 10, "velocity": 106}, {"time": 4320, "pitch": 42, "duration": 10, "velocity": 106}, {"time": 4460, "pitch": 36, "duration": 10, "velocity": 92}, {"time": 4560, "pitch": 42, "duration": 10, "velocity": 78}, {"time": 4700, "pitch": 38, "duration": 10, "velocity": 78}, {"time": 4800, "pitch": 42, "duration": 10, "velocity": 106}, {"time": 4940, "pitch": 38, "duration": 10, "velocity": 78}, {"time": 5040, "pitch": 36, "duration": 10, "velocity": 106}, {"time": 5040, "pitch": 42, "duration": 10, "velocity": 78}, {"time": 5280, "pitch": 40, "duration": 10, "velocity": 106}, {"time": 5280, "pitch": 42, "duration": 10, "velocity": 106}, {"time": 5420, "pitch": 36, "duration": 10, "velocity": 92}, {"time": 5520, "pitch": 42, "duration": 10, "velocity": 78}, {"time": 5660, "pitch": 38, "duration": 10, "velocity": 78}, {"time": 5760, "pitch": 36, "duration": 10, "velocity": 106}, {"time": 5760, "pitch": 42, "duration": 10, "velocity": 106}, {"time": 6000, "pitch": 36, "duration": 10, "velocity": 92}, {"time": 6000, "pitch": 42, "duration": 10, "velocity": 78}, {"time": 6240, "pitch": 40, "duration": 10, "velocity": 106}, {"time": 6240, "pitch": 42, "duration": 10, "velocity": 106}, {"time": 6380, "pitch": 36, "duration": 10, "velocity": 92}, {"time": 6480, "pitch": 42, "duration": 10, "velocity": 78}, {"time": 6620, "pitch": 38, "duration": 10, "velocity": 78}, {"time": 6720, "pitch": 42, "duration": 10, "velocity": 106}, {"time": 6860, "pitch": 38, "duration": 10, "velocity": 78}, {"time": 6960, "pitch": 36, "duration": 10, "velocity": 106}, {"time": 6960, "pitch": 42, "duration": 10, "velocity": 78}, {"time": 7200, "pitch": 40, "duration": 10, "velocity": 106}, {"time": 7200, "pitch": 42, "duration": 10, "velocity": 106}, {"time": 7340, "pitch": 36, "duration": 10, "velocity": 92}, {"time": 7440, "pitch": 42, "duration": 10, "velocity": 78}, {"time": 7580, "pitch": 38, "duration": 10, "velocity": 78}, {"time": 7680, "pitch": 36, "duration": 10, "velocity": 106}, {"time": 7680, "pitch": 42, "duration": 10, "velocity": 106}, {"time": 7920, "pitch": 36, "duration": 10, "velocity": 92}, {"time": 7920, "pitch": 42, "duration": 10, "velocity": 78}, {"time": 8160, "pitch": 40, "duration": 10, "velocity": 106}, {"time": 8160, "pitch": 42, "duration": 10, "velocity": 106}, {"time": 8300, "pitch": 36, "duration": 10, "velocity": 92}, {"time": 8400, "pitch": 42, "duration": 10, "velocity": 78}, {"time": 8540, "pitch": 38, "duration": 10, "velocity": 78}, {"time": 8640, "pitch": 42, "duration": 10, "velocity": 106}, {"time": 8780, "pitch": 38, "duration": 10, "velocity": 78}, {"time": 8880, "pitch": 36, "duration": 10, "velocity": 106}, {"time": 8880, "pitch": 42, "duration": 10, "velocity": 78}, {"time": 9120, "pitch": 40, "duration": 10, "velocity": 106}, {"time": 9120, "pitch": 42, "duration": 10, "velocity": 106}, {"time": 9260, "pitch": 36, "duration": 10, "velocity": 92}, {"time": 9360, "pitch": 42, "duration": 10, "velocity": 78}, {"time": 9500, "pitch": 38, "duration": 10, "velocity": 78}, {"time": 9600, "pitch": 36, "duration": 10, "velocity": 106}, {"time": 9600, "pitch": 42, "duration": 10, "velocity": 106}, {"time": 9840, "pitch": 36, "duration": 10, "velocity": 92}, {"time": 9840, "pitch": 42, "duration": 10, "velocity": 78}, {"time": 10080, "pitch": 40, "duration": 10, "velocity": 106}, {"time": 10080, "pitch": 42, "duration": 10, "velocity": 106}, {"time": 10220, "pitch": 36, "duration": 10, "velocity": 92}, {"time": 10320, "pitch": 42, "duration": 10, "velocity": 78}, {"time": 10460, "pitch": 38, "duration": 10, "velocity": 78}, {"time": 10560, "pitch": 42, "duration": 10, "velocity": 106}, {"time": 10700, "pitch": 38, "duration": 10, "velocity": 78}, {"time": 10800, "pitch": 36, "duration": 10, "velocity": 106}, {"time": 10800, "pitch": 42, "duration": 10, "velocity": 78}, {"time": 11040, "pitch": 40, "duration": 10, "velocity": 106}, {"time": 11040, "pitch": 42, "duration": 10, "velocity": 106}, {"time": 11180, "pitch": 36, "duration": 10, "velocity": 92}, {"time": 11280, "pitch": 42, "duration": 10, "velocity": 78}, {"time": 11420, "pitch": 38, "duration": 10, "velocity": 78}, {"time": 11520, "pitch": 36, "duration": 10, "velocity": 106}, {"time": 11520, "pitch": 42, "duration": 10, "velocity": 106}, {"time": 11760, "pitch": 36, "duration": 10, "velocity": 92}, {"time": 11760, "pitch": 42, "duration": 10, "velocity": 78}, {"time": 12000, "pitch": 40, "duration": 10, "velocity": 106}, {"time": 12000, "pitch": 42, "duration": 10, "velocity": 106}, {"time": 12240, "pitch": 36, "duration": 10, "velocity": 106}, {"time": 12240, "pitch": 46, "duration": 10, "velocity": 106}, {"time": 12480, "pitch": 40, "duration": 10, "velocity": 106}, {"time": 12480, "pitch": 42, "duration": 10, "velocity": 106}, {"time": 12720, "pitch": 36, "duration": 10, "velocity": 106}, {"time": 12720, "pitch": 46, "duration": 10, "velocity": 106}, {"time": 12960, "pitch": 40, "duration": 10, "velocity": 106}, {"time": 12960, "pitch": 42, "duration": 10, "velocity": 106}, {"time": 13200, "pitch": 36, "duration": 10, "velocity": 106}, {"time": 13200, "pitch": 46, "duration": 10, "velocity": 106}, {"time": 13440, "pitch": 36, "duration": 10, "velocity": 106}, {"time": 13440, "pitch": 40, "duration": 10, "velocity": 120}, {"time": 13580, "pitch": 38, "duration": 10, "velocity": 50}, {"time": 13680, "pitch": 40, "duration": 10, "velocity": 120}, {"time": 13820, "pitch": 38, "duration": 10, "velocity": 64}, {"time": 13920, "pitch": 36, "duration": 10, "velocity": 106}, {"time": 13920, "pitch": 40, "duration": 10, "velocity": 120}, {"time": 14060, "pitch": 38, "duration": 10, "velocity": 50}, {"time": 14160, "pitch": 40, "duration": 10, "velocity": 106}, {"time": 14300, "pitch": 40, "duration": 10, "velocity": 92}, {"time": 14400, "pitch": 36, "duration": 10, "velocity": 106}, {"time": 14400, "pitch": 38, "duration": 10, "velocity": 50}, {"time": 14540, "pitch": 40, "duration": 10, "velocity": 106}, {"time": 14640, "pitch": 45, "duration": 10, "velocity": 120}, {"time": 14880, "pitch": 36, "duration": 10, "velocity": 106}, {"time": 14880, "pitch": 40, "duration": 10, "velocity": 120}, {"time": 15020, "pitch": 38, "duration": 10, "velocity": 50}, {"time": 15120, "pitch": 40, "duration": 10, "velocity": 120}, {"time": 15260, "pitch": 40, "duration": 10, "velocity": 106}, {"time": 15360, "pitch": 36, "duration": 10, "velocity": 106}, {"time": 15360, "pitch": 49, "duration": 10, "velocity": 92}, {"time": 15600, "pitch": 36, "duration": 10, "velocity": 92}, {"time": 15600, "pitch": 42, "duration": 10, "velocity": 78}, {"time": 15840, "pitch": 40, "duration": 10, "velocity": 106}, {"time": 15840, "pitch": 42, "duration": 10, "velocity": 106}, {"time": 15980, "pitch": 36, "duration": 10, "velocity": 92}, {"time": 16080, "pitch": 42, "duration": 10, "velocity": 78}, {"time": 16220, "pitch": 38, "duration": 10, "velocity": 78}, {"time": 16320, "pitch": 42, "duration": 10, "velocity": 106}, {"time": 16460, "pitch": 38, "duration": 10, "velocity": 78}, {"time": 16560, "pitch": 36, "duration": 10, "velocity": 106}, {"time": 16560, "pitch": 42, "duration": 10, "velocity": 78}, {"time": 16800, "pitch": 40, "duration": 10, "velocity": 106}, {"time": 16800, "pitch": 42, "duration": 10, "velocity": 106}, {"time": 16940, "pitch": 36, "duration": 10, "velocity": 92}, {"time": 17040, "pitch": 42, "duration": 10, "velocity": 78}, {"time": 17180, "pitch": 38, "duration": 10, "velocity": 78}, {"time": 17280, "pitch": 36, "duration": 10, "velocity": 106}, {"time": 17280, "pitch": 42, "duration": 10, "velocity": 106}, {"time": 17520, "pitch": 36, "duration": 10, "velocity": 92}, {"time": 17520, "pitch": 42, "duration": 10, "velocity": 78}, {"time": 17760, "pitch": 40, "duration": 10, "velocity": 106}, {"time": 17760, "pitch": 42, "duration": 10, "velocity": 106}, {"time": 17900, "pitch": 36, "duration": 10, "velocity": 92}, {"time": 18000, "pitch": 42, "duration": 10, "velocity": 78}, {"time": 18140, "pitch": 38, "duration": 10, "velocity": 78}, {"time": 18240, "pitch": 42, "duration": 10, "velocity": 106}, {"time": 18380, "pitch": 38, "duration": 10, "velocity": 78}, {"time": 18480, "pitch": 36, "duration": 10, "velocity": 106}, {"time": 18480, "pitch": 42, "duration": 10, "velocity": 78}, {"time": 18720, "pitch": 40, "duration": 10, "velocity": 106}, {"time": 18720, "pitch": 42, "duration": 10, "velocity": 106}, {"time": 18860, "pitch": 36, "duration": 10, "velocity": 92}, {"time": 18960, "pitch": 42, "duration": 10, "velocity": 78}, {"time": 19100, "pitch": 38, "duration": 10, "velocity": 78}, {"time": 19200, "pitch": 36, "duration": 10, "velocity": 106}, {"time": 19200, "pitch": 42, "duration": 10, "velocity": 106}, {"time": 19440, "pitch": 36, "duration": 10, "velocity": 92}, {"time": 19440, "pitch": 42, "duration": 10, "velocity": 78}, {"time": 19680, "pitch": 40, "duration": 10, "velocity": 106}, {"time": 19680, "pitch": 42, "duration": 10, "velocity": 106}, {"time": 19820, "pitch": 36, "duration": 10, "velocity": 92}, {"time": 19920, "pitch": 42, "duration": 10, "velocity": 78}, {"time": 20060, "pitch": 38, "duration": 10, "velocity": 78}, {"time": 20160, "pitch": 42, "duration": 10, "velocity": 106}, {"time": 20300, "pitch": 38, "duration": 10, "velocity": 78}, {"time": 20400, "pitch": 36, "duration": 10, "velocity": 106}, {"time": 20400, "pitch": 42, "duration": 10, "velocity": 78}, {"time": 20640, "pitch": 40, "duration": 10, "velocity": 106}, {"time": 20640, "pitch": 42, "duration": 10, "velocity": 106}, {"time": 20780, "pitch": 36, "duration": 10, "velocity": 92}, {"time": 20880, "pitch": 42, "duration": 10, "velocity": 78}, {"time": 21020, "pitch": 38, "duration": 10, "velocity": 78}, {"time": 21120, "pitch": 36, "duration": 10, "velocity": 106}, {"time": 21120, "pitch": 42, "duration": 10, "velocity": 106}, {"time": 21360, "pitch": 36, "duration": 10, "velocity": 92}, {"time": 21360, "pitch": 42, "duration": 10, "velocity": 78}, {"time": 21600, "pitch": 40, "duration": 10, "velocity": 106}, {"time": 21600, "pitch": 42, "duration": 10, "velocity": 106}, {"time": 21740, "pitch": 36, "duration": 10, "velocity": 92}, {"time": 21840, "pitch": 42, "duration": 10, "velocity": 78}, {"time": 21980, "pitch": 38, "duration": 10, "velocity": 78}, {"time": 22080, "pitch": 42, "duration": 10, "velocity": 106}, {"time": 22220, "pitch": 38, "duration": 10, "velocity": 78}, {"time": 22320, "pitch": 36, "duration": 10, "velocity": 106}, {"time": 22320, "pitch": 42, "duration": 10, "velocity": 78}, {"time": 22560, "pitch": 40, "duration": 10, "velocity": 106}, {"time": 22560, "pitch": 42, "duration": 10, "velocity": 106}, {"time": 22700, "pitch": 36, "duration": 10, "velocity": 92}, {"time": 22800, "pitch": 42, "duration": 10, "velocity": 78}, {"time": 22940, "pitch": 38, "duration": 10, "velocity": 78}, {"time": 23040, "pitch": 36, "duration": 10, "velocity": 106}, {"time": 23040, "pitch": 42, "duration": 10, "velocity": 106}, {"time": 23280, "pitch": 36, "duration": 10, "velocity": 92}, {"time": 23280, "pitch": 42, "duration": 10, "velocity": 78}, {"time": 23520, "pitch": 40, "duration": 10, "velocity": 106}, {"time": 23520, "pitch": 42, "duration": 10, "velocity": 106}, {"time": 23660, "pitch": 36, "duration": 10, "velocity": 92}, {"time": 23760, "pitch": 42, "duration": 10, "velocity": 78}, {"time": 23900, "pitch": 38, "duration": 10, "velocity": 78}, {"time": 24000, "pitch": 42, "duration": 10, "velocity": 106}, {"time": 24140, "pitch": 38, "duration": 10, "velocity": 78}, {"time": 24240, "pitch": 36, "duration": 10, "velocity": 106}, {"time": 24240, "pitch": 42, "duration": 10, "velocity": 78}, {"time": 24480, "pitch": 40, "duration": 10, "velocity": 106}, {"time": 24480, "pitch": 42, "duration": 10, "velocity": 106}, {"time": 24620, "pitch": 36, "duration": 10, "velocity": 92}, {"time": 24720, "pitch": 42, "duration": 10, "velocity": 78}, {"time": 24860, "pitch": 38, "duration": 10, "velocity": 78}, {"time": 24960, "pitch": 36, "duration": 10, "velocity": 106}, {"time": 24960, "pitch": 42, "duration": 10, "velocity": 106}, {"time": 25200, "pitch": 36, "duration": 10, "velocity": 92}, {"time": 25200, "pitch": 42, "duration": 10, "velocity": 78}, {"time": 25440, "pitch": 40, "duration": 10, "velocity": 106}, {"time": 25440, "pitch": 42, "duration": 10, "velocity": 106}, {"time": 25580, "pitch": 36, "duration": 10, "velocity": 92}, {"time": 25680, "pitch": 42, "duration": 10, "velocity": 78}, {"time": 25820, "pitch": 38, "duration": 10, "velocity": 78}, {"time": 25920, "pitch": 42, "duration": 10, "velocity": 106}, {"time": 26060, "pitch": 38, "duration": 10, "velocity": 78}, {"time": 26160, "pitch": 36, "duration": 10, "velocity": 106}, {"time": 26160, "pitch": 42, "duration": 10, "velocity": 78}, {"time": 26400, "pitch": 40, "duration": 10, "velocity": 106}, {"time": 26400, "pitch": 42, "duration": 10, "velocity": 106}, {"time": 26540, "pitch": 36, "duration": 10, "velocity": 92}, {"time": 26640, "pitch": 42, "duration": 10, "velocity": 78}, {"time": 26780, "pitch": 38, "duration": 10, "velocity": 78}, {"time": 26880, "pitch": 36, "duration": 10, "velocity": 106}, {"time": 26880, "pitch": 42, "duration": 10, "velocity": 106}, {"time": 27120, "pitch": 36, "duration": 10, "velocity": 92}, {"time": 27120, "pitch": 42, "duration": 10, "velocity": 78}, {"time": 27360, "pitch": 40, "duration": 10, "velocity": 106}, {"time": 27360, "pitch": 42, "duration": 10, "velocity": 106}, {"time": 27500, "pitch": 36, "duration": 10, "velocity": 92}, {"time": 27600, "pitch": 42, "duration": 10, "velocity": 78}, {"time": 27740, "pitch": 38, "duration": 10, "velocity": 78}, {"time": 27840, "pitch": 42, "duration": 10, "velocity": 106}, {"time": 27980, "pitch": 38, "duration": 10, "velocity": 78}, {"time": 28080, "pitch": 36, "duration": 10, "velocity": 106}, {"time": 28080, "pitch": 42, "duration": 10, "velocity": 78}, {"time": 28320, "pitch": 40, "duration": 10, "velocity": 106}, {"time": 28320, "pitch": 42, "duration": 10, "velocity": 106}, {"time": 28460, "pitch": 36, "duration": 10, "velocity": 92}, {"time": 28560, "pitch": 42, "duration": 10, "velocity": 78}, {"time": 28700, "pitch": 38, "duration": 10, "velocity": 78}, {"time": 28940, "pitch": 45, "duration": 10, "velocity": 92}, {"time": 29040, "pitch": 45, "duration": 10, "velocity": 106}, {"time": 29280, "pitch": 36, "duration": 10, "velocity": 92}, {"time": 29280, "pitch": 40, "duration": 10, "velocity": 106}, {"time": 29420, "pitch": 40, "duration": 10, "velocity": 78}, {"time": 29520, "pitch": 45, "duration": 10, "velocity": 106}, {"time": 29760, "pitch": 36, "duration": 10, "velocity": 92}, {"time": 29760, "pitch": 40, "duration": 10, "velocity": 50}, {"time": 29900, "pitch": 40, "duration": 10, "velocity": 64}, {"time": 30000, "pitch": 40, "duration": 10, "velocity": 78}, {"time": 30140, "pitch": 40, "duration": 10, "velocity": 106}, {"time": 30240, "pitch": 36, "duration": 10, "velocity": 92}, {"time": 30240, "pitch": 45, "duration": 10, "velocity": 106}, {"time": 30380, "pitch": 45, "duration": 10, "velocity": 92}, {"time": 30480, "pitch": 41, "duration": 10, "velocity": 106}, {"time": 30620, "pitch": 41, "duration": 10, "velocity": 92}, {"time": 30720, "pitch": 36, "duration": 10, "velocity": 106}, {"time": 30720, "pitch": 57, "duration": 10, "velocity": 92}, {"time": 30960, "pitch": 40, "duration": 10, "velocity": 36}, {"time": 30960, "pitch": 41, "duration": 10, "velocity": 36}, {"time": 31200, "pitch": 36, "duration": 10, "velocity": 64}, {"time": 31200, "pitch": 40, "duration": 10, "velocity": 50}, {"time": 31200, "pitch": 41, "duration": 10, "velocity": 50}, {"time": 31440, "pitch": 40, "duration": 10, "velocity": 64}, {"time": 31440, "pitch": 41, "duration": 10, "velocity": 64}, {"time": 31680, "pitch": 36, "duration": 10, "velocity": 78}, {"time": 31680, "pitch": 40, "duration": 10, "velocity": 78}, {"time": 31680, "pitch": 41, "duration": 10, "velocity": 78}, {"time": 31920, "pitch": 40, "duration": 10, "velocity": 92}, {"time": 31920, "pitch": 41, "duration": 10, "velocity": 92}, {"time": 32160, "pitch": 36, "duration": 10, "velocity": 92}, {"time": 32160, "pitch": 40, "duration": 10, "velocity": 106}, {"time": 32160, "pitch": 41, "duration": 10, "velocity": 106}, {"time": 32400, "pitch": 40, "duration": 10, "velocity": 120}, {"time": 32400, "pitch": 41, "duration": 10, "velocity": 120}, {"time": 32640, "pitch": 36, "duration": 10, "velocity": 106}, {"time": 32640, "pitch": 57, "duration": 10, "velocity": 78}, {"time": 32880, "pitch": 36, "duration": 10, "velocity": 106}, {"time": 32880, "pitch": 42, "duration": 10, "velocity": 78}, {"time": 33120, "pitch": 40, "duration": 10, "velocity": 106}, {"time": 33120, "pitch": 42, "duration": 10, "velocity": 106}, {"time": 33360, "pitch": 38, "duration": 10, "velocity": 78}, {"time": 33360, "pitch": 42, "duration": 10, "velocity": 78}, {"time": 33500, "pitch": 36, "duration": 10, "velocity": 92}, {"time": 33600, "pitch": 42, "duration": 10, "velocity": 106}, {"time": 33740, "pitch": 38, "duration": 10, "velocity": 78}, {"time": 33840, "pitch": 36, "duration": 10, "velocity": 106}, {"time": 33840, "pitch": 42, "duration": 10, "velocity": 78}, {"time": 34080, "pitch": 40, "duration": 10, "velocity": 106}, {"time": 34080, "pitch": 42, "duration": 10, "velocity": 106}, {"time": 34220, "pitch": 36, "duration": 10, "velocity": 92}, {"time": 34320, "pitch": 42, "duration": 10, "velocity": 78}, {"time": 34460, "pitch": 38, "duration": 10, "velocity": 78}, {"time": 34560, "pitch": 36, "duration": 10, "velocity": 106}, {"time": 34560, "pitch": 42, "duration": 10, "velocity": 106}, {"time": 34800, "pitch": 36, "duration": 10, "velocity": 106}, {"time": 34800, "pitch": 42, "duration": 10, "velocity": 78}, {"time": 35040, "pitch": 40, "duration": 10, "velocity": 106}, {"time": 35040, "pitch": 42, "duration": 10, "velocity": 106}, {"time": 35280, "pitch": 38, "duration": 10, "velocity": 78}, {"time": 35280, "pitch": 42, "duration": 10, "velocity": 78}, {"time": 35420, "pitch": 36, "duration": 10, "velocity": 92}, {"time": 35520, "pitch": 42, "duration": 10, "velocity": 106}, {"time": 35660, "pitch": 38, "duration": 10, "velocity": 78}, {"time": 35760, "pitch": 36, "duration": 10, "velocity": 106}, {"time": 35760, "pitch": 42, "duration": 10, "velocity": 78}, {"time": 36000, "pitch": 40, "duration": 10, "velocity": 106}, {"time": 36000, "pitch": 42, "duration": 10, "velocity": 106}, {"time": 36140, "pitch": 36, "duration": 10, "velocity": 92}, {"time": 36240, "pitch": 42, "duration": 10, "velocity": 78}, {"time": 36380, "pitch": 38, "duration": 10, "velocity": 78}, {"time": 36480, "pitch": 36, "duration": 10, "velocity": 106}, {"time": 36480, "pitch": 42, "duration": 10, "velocity": 106}, {"time": 36720, "pitch": 36, "duration": 10, "velocity": 106}, {"time": 36720, "pitch": 42, "duration": 10, "velocity": 78}, {"time": 36960, "pitch": 40, "duration": 10, "velocity": 106}, {"time": 36960, "pitch": 42, "duration": 10, "velocity": 106}, {"time": 37200, "pitch": 38, "duration": 10, "velocity": 78}, {"time": 37200, "pitch": 42, "duration": 10, "velocity": 78}, {"time": 37340, "pitch": 36, "duration": 10, "velocity": 92}, {"time": 37440, "pitch": 42, "duration": 10, "velocity": 106}, {"time": 37580, "pitch": 38, "duration": 10, "velocity": 78}, {"time": 37680, "pitch": 36, "duration": 10, "velocity": 106}, {"time": 37680, "pitch": 42, "duration": 10, "velocity": 78}, {"time": 37920, "pitch": 40, "duration": 10, "velocity": 106}, {"time": 37920, "pitch": 42, "duration": 10, "velocity": 106}, {"time": 38060, "pitch": 36, "duration": 10, "velocity": 92}, {"time": 38160, "pitch": 42, "duration": 10, "velocity": 78}, {"time": 38300, "pitch": 38, "duration": 10, "velocity": 78}, {"time": 38400, "pitch": 36, "duration": 10, "velocity": 106}, {"time": 38400, "pitch": 42, "duration": 10, "velocity": 106}, {"time": 38640, "pitch": 36, "duration": 10, "velocity": 106}, {"time": 38640, "pitch": 42, "duration": 10, "velocity": 78}, {"time": 38880, "pitch": 40, "duration": 10, "velocity": 106}, {"time": 38880, "pitch": 42, "duration": 10, "velocity": 106}, {"time": 39120, "pitch": 38, "duration": 10, "velocity": 78}, {"time": 39120, "pitch": 42, "duration": 10, "velocity": 78}, {"time": 39260, "pitch": 36, "duration": 10, "velocity": 92}, {"time": 39360, "pitch": 42, "duration": 10, "velocity": 106}, {"time": 39500, "pitch": 38, "duration": 10, "velocity": 78}, {"time": 39600, "pitch": 36, "duration": 10, "velocity": 106}, {"time": 39600, "pitch": 42, "duration": 10, "velocity": 78}, {"time": 39840, "pitch": 40, "duration": 10, "velocity": 106}, {"time": 39840, "pitch": 42, "duration": 10, "velocity": 106}, {"time": 39980, "pitch": 36, "duration": 10, "velocity": 92}, {"time": 40080, "pitch": 42, "duration": 10, "velocity": 78}, {"time": 40220, "pitch": 38, "duration": 10, "velocity": 78}, {"time": 40320, "pitch": 36, "duration": 10, "velocity": 106}, {"time": 40320, "pitch": 42, "duration": 10, "velocity": 106}, {"time": 40560, "pitch": 36, "duration": 10, "velocity": 106}, {"time": 40560, "pitch": 42, "duration": 10, "velocity": 78}, {"time": 40800, "pitch": 40, "duration": 10, "velocity": 106}, {"time": 40800, "pitch": 42, "duration": 10, "velocity": 106}, {"time": 41040, "pitch": 38, "duration": 10, "velocity": 78}, {"time": 41040, "pitch": 42, "duration": 10, "velocity": 78}, {"time": 41180, "pitch": 36, "duration": 10, "velocity": 92}, {"time": 41280, "pitch": 42, "duration": 10, "velocity": 106}, {"time": 41420, "pitch": 38, "duration": 10, "velocity": 78}, {"time": 41520, "pitch": 36, "duration": 10, "velocity": 106}, {"time": 41520, "pitch": 42, "duration": 10, "velocity": 78}, {"time": 41760, "pitch": 40, "duration": 10, "velocity": 106}, {"time": 41760, "pitch": 42, "duration": 10, "velocity": 106}, {"time": 41900, "pitch": 36, "duration": 10, "velocity": 92}, {"time": 42000, "pitch": 42, "duration": 10, "velocity": 78}, {"time": 42140, "pitch": 38, "duration": 10, "velocity": 78}, {"time": 42240, "pitch": 36, "duration": 10, "velocity": 106}, {"time": 42240, "pitch": 42, "duration": 10, "velocity": 106}, {"time": 42480, "pitch": 36, "duration": 10, "velocity": 106}, {"time": 42480, "pitch": 42, "duration": 10, "velocity": 78}, {"time": 42720, "pitch": 40, "duration": 10, "velocity": 106}, {"time": 42720, "pitch": 42, "duration": 10, "velocity": 106}, {"time": 42960, "pitch": 38, "duration": 10, "velocity": 78}, {"time": 42960, "pitch": 42, "duration": 10, "velocity": 78}, {"time": 43100, "pitch": 36, "duration": 10, "velocity": 92}, {"time": 43200, "pitch": 42, "duration": 10, "velocity": 106}, {"time": 43340, "pitch": 38, "duration": 10, "velocity": 78}, {"time": 43440, "pitch": 36, "duration": 10, "velocity": 106}, {"time": 43440, "pitch": 42, "duration": 10, "velocity": 78}, {"time": 43680, "pitch": 40, "duration": 10, "velocity": 106}, {"time": 43680, "pitch": 42, "duration": 10, "velocity": 106}, {"time": 43820, "pitch": 36, "duration": 10, "velocity": 92}, {"time": 43920, "pitch": 42, "duration": 10, "velocity": 78}, {"time": 44060, "pitch": 38, "duration": 10, "velocity": 78}, {"time": 44160, "pitch": 36, "duration": 10, "velocity": 106}, {"time": 44160, "pitch": 42, "duration": 10, "velocity": 106}, {"time": 44400, "pitch": 36, "duration": 10, "velocity": 106}, {"time": 44400, "pitch": 42, "duration": 10, "velocity": 78}, {"time": 44640, "pitch": 40, "duration": 10, "velocity": 106}, {"time": 44640, "pitch": 42, "duration": 10, "velocity": 106}, {"time": 44880, "pitch": 38, "duration": 10, "velocity": 78}, {"time": 44880, "pitch": 42, "duration": 10, "velocity": 78}, {"time": 45020, "pitch": 36, "duration": 10, "velocity": 92}, {"time": 45120, "pitch": 42, "duration": 10, "velocity": 106}, {"time": 45260, "pitch": 40, "duration": 10, "velocity": 106}, {"time": 45360, "pitch": 36, "duration": 10, "velocity": 106}, {"time": 45500, "pitch": 40, "duration": 10, "velocity": 92}, {"time": 45600, "pitch": 40, "duration": 10, "velocity": 106}, {"time": 45740, "pitch": 40, "duration": 10, "velocity": 92}, {"time": 45840, "pitch": 36, "duration": 10, "velocity": 92}, {"time": 45980, "pitch": 40, "duration": 10, "velocity": 106}, {"time": 46080, "pitch": 36, "duration": 10, "velocity": 106}, {"time": 46080, "pitch": 40, "duration": 10, "velocity": 106}, {"time": 46320, "pitch": 40, "duration": 10, "velocity": 106}, {"time": 46560, "pitch": 36, "duration": 10, "velocity": 106}, {"time": 46560, "pitch": 40, "duration": 10, "velocity": 106}, {"time": 46800, "pitch": 40, "duration": 10, "velocity": 106}, {"time": 46940, "pitch": 40, "duration": 10, "velocity": 92}, {"time": 47040, "pitch": 36, "duration": 10, "velocity": 106}, {"time": 47040, "pitch": 42, "duration": 10, "velocity": 106}, {"time": 47180, "pitch": 40, "duration": 10, "velocity": 106}, {"time": 47180, "pitch": 49, "duration": 10, "velocity": 92}, {"time": 47520, "pitch": 36, "duration": 10, "velocity": 106}, {"time": 47520, "pitch": 42, "duration": 10, "velocity": 106}, {"time": 47660, "pitch": 40, "duration": 10, "velocity": 106}, {"time": 47660, "pitch": 49, "duration": 10, "velocity": 92}, {"time": 48000, "pitch": 36, "duration": 10, "velocity": 106}, {"time": 48000, "pitch": 57, "duration": 10, "velocity": 78}, {"time": 48240, "pitch": 36, "duration": 10, "velocity": 106}, {"time": 48240, "pitch": 42, "duration": 10, "velocity": 78}, {"time": 48480, "pitch": 40, "duration": 10, "velocity": 106}, {"time": 48480, "pitch": 42, "duration": 10, "velocity": 106}, {"time": 48720, "pitch": 38, "duration": 10, "velocity": 78}, {"time": 48720, "pitch": 42, "duration": 10, "velocity": 78}, {"time": 48860, "pitch": 36, "duration": 10, "velocity": 92}, {"time": 48960, "pitch": 42, "duration": 10, "velocity": 106}, {"time": 49100, "pitch": 38, "duration": 10, "velocity": 78}, {"time": 49200, "pitch": 36, "duration": 10, "velocity": 106}, {"time": 49200, "pitch": 42, "duration": 10, "velocity": 78}, {"time": 49440, "pitch": 40, "duration": 10, "velocity": 106}, {"time": 49440, "pitch": 42, "duration": 10, "velocity": 106}, {"time": 49580, "pitch": 36, "duration": 10, "velocity": 92}, {"time": 49680, "pitch": 42, "duration": 10, "velocity": 78}, {"time": 49820, "pitch": 38, "duration": 10, "velocity": 78}, {"time": 49920, "pitch": 36, "duration": 10, "velocity": 106}, {"time": 49920, "pitch": 42, "duration": 10, "velocity": 106}, {"time": 50160, "pitch": 36, "duration": 10, "velocity": 106}, {"time": 50160, "pitch": 42, "duration": 10, "velocity": 78}, {"time": 50400, "pitch": 40, "duration": 10, "velocity": 106}, {"time": 50400, "pitch": 42, "duration": 10, "velocity": 106}, {"time": 50640, "pitch": 38, "duration": 10, "velocity": 78}, {"time": 50640, "pitch": 42, "duration": 10, "velocity": 78}, {"time": 50780, "pitch": 36, "duration": 10, "velocity": 92}, {"time": 50880, "pitch": 42, "duration": 10, "velocity": 106}, {"time": 51020, "pitch": 38, "duration": 10, "velocity": 78}, {"time": 51120, "pitch": 36, "duration": 10, "velocity": 106}, {"time": 51120, "pitch": 42, "duration": 10, "velocity": 78}, {"time": 51360, "pitch": 40, "duration": 10, "velocity": 106}, {"time": 51360, "pitch": 42, "duration": 10, "velocity": 106}, {"time": 51500, "pitch": 36, "duration": 10, "velocity": 92}, {"time": 51600, "pitch": 42, "duration": 10, "velocity": 78}, {"time": 51740, "pitch": 38, "duration": 10, "velocity": 78}, {"time": 51840, "pitch": 36, "duration": 10, "velocity": 106}, {"time": 51840, "pitch": 42, "duration": 10, "velocity": 106}, {"time": 52080, "pitch": 36, "duration": 10, "velocity": 106}, {"time": 52080, "pitch": 42, "duration": 10, "velocity": 78}, {"time": 52320, "pitch": 40, "duration": 10, "velocity": 106}, {"time": 52320, "pitch": 42, "duration": 10, "velocity": 106}, {"time": 52560, "pitch": 38, "duration": 10, "velocity": 78}, {"time": 52560, "pitch": 42, "duration": 10, "velocity": 78}, {"time": 52700, "pitch": 36, "duration": 10, "velocity": 92}, {"time": 52800, "pitch": 42, "duration": 10, "velocity": 106}, {"time": 52940, "pitch": 38, "duration": 10, "velocity": 78}, {"time": 53040, "pitch": 36, "duration": 10, "velocity": 106}, {"time": 53040, "pitch": 42, "duration": 10, "velocity": 78}, {"time": 53280, "pitch": 40, "duration": 10, "velocity": 106}, {"time": 53280, "pitch": 42, "duration": 10, "velocity": 106}, {"time": 53420, "pitch": 36, "duration": 10, "velocity": 92}, {"time": 53520, "pitch": 42, "duration": 10, "velocity": 78}, {"time": 53660, "pitch": 38, "duration": 10, "velocity": 78}, {"time": 53760, "pitch": 36, "duration": 10, "velocity": 106}, {"time": 53760, "pitch": 42, "duration": 10, "velocity": 106}, {"time": 54000, "pitch": 36, "duration": 10, "velocity": 106}, {"time": 54000, "pitch": 42, "duration": 10, "velocity": 78}, {"time": 54240, "pitch": 40, "duration": 10, "velocity": 106}, {"time": 54240, "pitch": 42, "duration": 10, "velocity": 106}, {"time": 54480, "pitch": 38, "duration": 10, "velocity": 78}, {"time": 54480, "pitch": 42, "duration": 10, "velocity": 78}, {"time": 54620, "pitch": 36, "duration": 10, "velocity": 92}, {"time": 54720, "pitch": 42, "duration": 10, "velocity": 106}, {"time": 54860, "pitch": 38, "duration": 10, "velocity": 78}, {"time": 54960, "pitch": 36, "duration": 10, "velocity": 106}, {"time": 54960, "pitch": 42, "duration": 10, "velocity": 78}, {"time": 55200, "pitch": 40, "duration": 10, "velocity": 106}, {"time": 55200, "pitch": 42, "duration": 10, "velocity": 106}, {"time": 55340, "pitch": 36, "duration": 10, "velocity": 92}, {"time": 55440, "pitch": 42, "duration": 10, "velocity": 78}, {"time": 55580, "pitch": 38, "duration": 10, "velocity": 78}, {"time": 55680, "pitch": 36, "duration": 10, "velocity": 106}, {"time": 55680, "pitch": 42, "duration": 10, "velocity": 106}, {"time": 55920, "pitch": 36, "duration": 10, "velocity": 106}, {"time": 55920, "pitch": 42, "duration": 10, "velocity": 78}, {"time": 56160, "pitch": 40, "duration": 10, "velocity": 106}, {"time": 56160, "pitch": 42, "duration": 10, "velocity": 106}, {"time": 56400, "pitch": 38, "duration": 10, "velocity": 78}, {"time": 56400, "pitch": 42, "duration": 10, "velocity": 78}, {"time": 56540, "pitch": 36, "duration": 10, "velocity": 92}, {"time": 56640, "pitch": 42, "duration": 10, "velocity": 106}, {"time": 56780, "pitch": 38, "duration": 10, "velocity": 78}, {"time": 56880, "pitch": 36, "duration": 10, "velocity": 106}, {"time": 56880, "pitch": 42, "duration": 10, "velocity": 78}, {"time": 57120, "pitch": 40, "duration": 10, "velocity": 106}, {"time": 57120, "pitch": 42, "duration": 10, "velocity": 106}, {"time": 57260, "pitch": 36, "duration": 10, "velocity": 92}, {"time": 57360, "pitch": 42, "duration": 10, "velocity": 78}, {"time": 57500, "pitch": 38, "duration": 10, "velocity": 78}, {"time": 57600, "pitch": 36, "duration": 10, "velocity": 106}, {"time": 57600, "pitch": 42, "duration": 10, "velocity": 106}, {"time": 57840, "pitch": 36, "duration": 10, "velocity": 106}, {"time": 57840, "pitch": 42, "duration": 10, "velocity": 78}, {"time": 58080, "pitch": 40, "duration": 10, "velocity": 106}, {"time": 58080, "pitch": 42, "duration": 10, "velocity": 106}, {"time": 58320, "pitch": 38, "duration": 10, "velocity": 78}, {"time": 58320, "pitch": 42, "duration": 10, "velocity": 78}, {"time": 58460, "pitch": 36, "duration": 10, "velocity": 92}, {"time": 58560, "pitch": 42, "duration": 10, "velocity": 106}, {"time": 58700, "pitch": 38, "duration": 10, "velocity": 78}, {"time": 58800, "pitch": 36, "duration": 10, "velocity": 106}, {"time": 58800, "pitch": 42, "duration": 10, "velocity": 78}, {"time": 59040, "pitch": 40, "duration": 10, "velocity": 106}, {"time": 59040, "pitch": 42, "duration": 10, "velocity": 106}, {"time": 59180, "pitch": 36, "duration": 10, "velocity": 92}, {"time": 59280, "pitch": 42, "duration": 10, "velocity": 78}, {"time": 59420, "pitch": 38, "duration": 10, "velocity": 78}, {"time": 59520, "pitch": 36, "duration": 10, "velocity": 106}, {"time": 59520, "pitch": 42, "duration": 10, "velocity": 106}, {"time": 59760, "pitch": 36, "duration": 10, "velocity": 106}, {"time": 59760, "pitch": 42, "duration": 10, "velocity": 78}, {"time": 60000, "pitch": 40, "duration": 10, "velocity": 106}, {"time": 60000, "pitch": 42, "duration": 10, "velocity": 106}, {"time": 60240, "pitch": 38, "duration": 10, "velocity": 78}, {"time": 60240, "pitch": 42, "duration": 10, "velocity": 78}, {"time": 60380, "pitch": 36, "duration": 10, "velocity": 92}, {"time": 60480, "pitch": 42, "duration": 10, "velocity": 106}, {"time": 60620, "pitch": 40, "duration": 10, "velocity": 106}, {"time": 60720, "pitch": 36, "duration": 10, "velocity": 106}, {"time": 60860, "pitch": 40, "duration": 10, "velocity": 92}, {"time": 60960, "pitch": 40, "duration": 10, "velocity": 106}, {"time": 61100, "pitch": 40, "duration": 10, "velocity": 92}, {"time": 61200, "pitch": 36, "duration": 10, "velocity": 92}, {"time": 61340, "pitch": 40, "duration": 10, "velocity": 106}, {"time": 61420, "pitch": 48, "duration": 10, "velocity": 92}, {"time": 61440, "pitch": 36, "duration": 10, "velocity": 106}, {"time": 61440, "pitch": 48, "duration": 10, "velocity": 120}, {"time": 61680, "pitch": 48, "duration": 10, "velocity": 106}, {"time": 61920, "pitch": 36, "duration": 10, "velocity": 106}, {"time": 61920, "pitch": 45, "duration": 10, "velocity": 120}, {"time": 62160, "pitch": 41, "duration": 10, "velocity": 120}, {"time": 62300, "pitch": 41, "duration": 10, "velocity": 106}, {"time": 62400, "pitch": 36, "duration": 10, "velocity": 106}, {"time": 62400, "pitch": 41, "duration": 10, "velocity": 120}, {"time": 62640, "pitch": 40, "duration": 10, "velocity": 106}, {"time": 62640, "pitch": 49, "duration": 10, "velocity": 92}, {"time": 62880, "pitch": 45, "duration": 10, "velocity": 120}, {"time": 63020, "pitch": 45, "duration": 10, "velocity": 106}, {"time": 63120, "pitch": 41, "duration": 10, "velocity": 120}, {"time": 63360, "pitch": 36, "duration": 10, "velocity": 106}, {"time": 63360, "pitch": 49, "duration": 10, "velocity": 92}, {"time": 63600, "pitch": 36, "duration": 10, "velocity": 92}, {"time": 63600, "pitch": 42, "duration": 10, "velocity": 78}, {"time": 63840, "pitch": 40, "duration": 10, "velocity": 106}, {"time": 63840, "pitch": 42, "duration": 10, "velocity": 106}, {"time": 63980, "pitch": 36, "duration": 10, "velocity": 92}, {"time": 64080, "pitch": 42, "duration": 10, "velocity": 78}, {"time": 64220, "pitch": 38, "duration": 10, "velocity": 78}, {"time": 64320, "pitch": 42, "duration": 10, "velocity": 106}, {"time": 64460, "pitch": 38, "duration": 10, "velocity": 78}, {"time": 64560, "pitch": 36, "duration": 10, "velocity": 106}, {"time": 64560, "pitch": 42, "duration": 10, "velocity": 78}, {"time": 64800, "pitch": 40, "duration": 10, "velocity": 106}, {"time": 64800, "pitch": 42, "duration": 10, "velocity": 106}, {"time": 64940, "pitch": 36, "duration": 10, "velocity": 92}, {"time": 65040, "pitch": 42, "duration": 10, "velocity": 78}, {"time": 65180, "pitch": 38, "duration": 10, "velocity": 78}, {"time": 65280, "pitch": 36, "duration": 10, "velocity": 106}, {"time": 65280, "pitch": 42, "duration": 10, "velocity": 106}, {"time": 65520, "pitch": 36, "duration": 10, "velocity": 92}, {"time": 65520, "pitch": 42, "duration": 10, "velocity": 78}, {"time": 65760, "pitch": 40, "duration": 10, "velocity": 106}, {"time": 65760, "pitch": 42, "duration": 10, "velocity": 106}, {"time": 65900, "pitch": 36, "duration": 10, "velocity": 92}, {"time": 66000, "pitch": 42, "duration": 10, "velocity": 78}, {"time": 66140, "pitch": 38, "duration": 10, "velocity": 78}, {"time": 66240, "pitch": 42, "duration": 10, "velocity": 106}, {"time": 66380, "pitch": 38, "duration": 10, "velocity": 78}, {"time": 66480, "pitch": 36, "duration": 10, "velocity": 106}, {"time": 66480, "pitch": 42, "duration": 10, "velocity": 78}, {"time": 66720, "pitch": 40, "duration": 10, "velocity": 106}, {"time": 66720, "pitch": 42, "duration": 10, "velocity": 106}, {"time": 66860, "pitch": 36, "duration": 10, "velocity": 92}, {"time": 66960, "pitch": 42, "duration": 10, "velocity": 78}, {"time": 67100, "pitch": 38, "duration": 10, "velocity": 78}, {"time": 67200, "pitch": 36, "duration": 10, "velocity": 106}, {"time": 67200, "pitch": 42, "duration": 10, "velocity": 106}, {"time": 67440, "pitch": 36, "duration": 10, "velocity": 92}, {"time": 67440, "pitch": 42, "duration": 10, "velocity": 78}, {"time": 67680, "pitch": 40, "duration": 10, "velocity": 106}, {"time": 67680, "pitch": 42, "duration": 10, "velocity": 106}, {"time": 67820, "pitch": 36, "duration": 10, "velocity": 92}, {"time": 67920, "pitch": 42, "duration": 10, "velocity": 78}, {"time": 68060, "pitch": 38, "duration": 10, "velocity": 78}, {"time": 68160, "pitch": 42, "duration": 10, "velocity": 106}, {"time": 68300, "pitch": 38, "duration": 10, "velocity": 78}, {"time": 68400, "pitch": 36, "duration": 10, "velocity": 106}, {"time": 68400, "pitch": 42, "duration": 10, "velocity": 78}, {"time": 68640, "pitch": 40, "duration": 10, "velocity": 106}, {"time": 68640, "pitch": 42, "duration": 10, "velocity": 106}, {"time": 68780, "pitch": 36, "duration": 10, "velocity": 92}, {"time": 68880, "pitch": 42, "duration": 10, "velocity": 78}, {"time": 69020, "pitch": 38, "duration": 10, "velocity": 78}, {"time": 69120, "pitch": 36, "duration": 10, "velocity": 106}, {"time": 69120, "pitch": 42, "duration": 10, "velocity": 106}, {"time": 69360, "pitch": 36, "duration": 10, "velocity": 92}, {"time": 69360, "pitch": 42, "duration": 10, "velocity": 78}, {"time": 69600, "pitch": 40, "duration": 10, "velocity": 106}, {"time": 69600, "pitch": 42, "duration": 10, "velocity": 106}, {"time": 69740, "pitch": 36, "duration": 10, "velocity": 92}, {"time": 69840, "pitch": 42, "duration": 10, "velocity": 78}, {"time": 69980, "pitch": 38, "duration": 10, "velocity": 78}, {"time": 70080, "pitch": 42, "duration": 10, "velocity": 106}, {"time": 70220, "pitch": 38, "duration": 10, "velocity": 78}, {"time": 70320, "pitch": 36, "duration": 10, "velocity": 106}, {"time": 70320, "pitch": 42, "duration": 10, "velocity": 78}, {"time": 70560, "pitch": 40, "duration": 10, "velocity": 106}, {"time": 70560, "pitch": 42, "duration": 10, "velocity": 106}, {"time": 70700, "pitch": 36, "duration": 10, "velocity": 92}, {"time": 70800, "pitch": 42, "duration": 10, "velocity": 78}, {"time": 70940, "pitch": 38, "duration": 10, "velocity": 78}, {"time": 71040, "pitch": 36, "duration": 10, "velocity": 106}, {"time": 71040, "pitch": 42, "duration": 10, "velocity": 106}, {"time": 71280, "pitch": 36, "duration": 10, "velocity": 92}, {"time": 71280, "pitch": 42, "duration": 10, "velocity": 78}, {"time": 71520, "pitch": 40, "duration": 10, "velocity": 106}, {"time": 71520, "pitch": 42, "duration": 10, "velocity": 106}, {"time": 71660, "pitch": 36, "duration": 10, "velocity": 92}, {"time": 71760, "pitch": 42, "duration": 10, "velocity": 78}, {"time": 71900, "pitch": 38, "duration": 10, "velocity": 78}, {"time": 72000, "pitch": 42, "duration": 10, "velocity": 106}, {"time": 72140, "pitch": 38, "duration": 10, "velocity": 78}, {"time": 72240, "pitch": 36, "duration": 10, "velocity": 106}, {"time": 72240, "pitch": 42, "duration": 10, "velocity": 78}, {"time": 72480, "pitch": 40, "duration": 10, "velocity": 106}, {"time": 72480, "pitch": 42, "duration": 10, "velocity": 106}, {"time": 72620, "pitch": 36, "duration": 10, "velocity": 92}, {"time": 72720, "pitch": 42, "duration": 10, "velocity": 78}, {"time": 72860, "pitch": 38, "duration": 10, "velocity": 78}, {"time": 72960, "pitch": 36, "duration": 10, "velocity": 106}, {"time": 72960, "pitch": 42, "duration": 10, "velocity": 106}, {"time": 73200, "pitch": 36, "duration": 10, "velocity": 92}, {"time": 73200, "pitch": 42, "duration": 10, "velocity": 78}, {"time": 73440, "pitch": 40, "duration": 10, "velocity": 106}, {"time": 73440, "pitch": 42, "duration": 10, "velocity": 106}, {"time": 73580, "pitch": 36, "duration": 10, "velocity": 92}, {"time": 73680, "pitch": 42, "duration": 10, "velocity": 78}, {"time": 73820, "pitch": 38, "duration": 10, "velocity": 78}, {"time": 73920, "pitch": 42, "duration": 10, "velocity": 106}, {"time": 74060, "pitch": 38, "duration": 10, "velocity": 78}, {"time": 74160, "pitch": 36, "duration": 10, "velocity": 106}, {"time": 74160, "pitch": 42, "duration": 10, "velocity": 78}, {"time": 74400, "pitch": 40, "duration": 10, "velocity": 106}, {"time": 74400, "pitch": 42, "duration": 10, "velocity": 106}, {"time": 74540, "pitch": 36, "duration": 10, "velocity": 92}, {"time": 74640, "pitch": 42, "duration": 10, "velocity": 78}, {"time": 74780, "pitch": 38, "duration": 10, "velocity": 78}, {"time": 74880, "pitch": 36, "duration": 10, "velocity": 106}, {"time": 74880, "pitch": 42, "duration": 10, "velocity": 106}, {"time": 75120, "pitch": 36, "duration": 10, "velocity": 92}, {"time": 75120, "pitch": 42, "duration": 10, "velocity": 78}, {"time": 75360, "pitch": 40, "duration": 10, "velocity": 106}, {"time": 75360, "pitch": 42, "duration": 10, "velocity": 106}, {"time": 75500, "pitch": 36, "duration": 10, "velocity": 92}, {"time": 75600, "pitch": 42, "duration": 10, "velocity": 78}, {"time": 75740, "pitch": 38, "duration": 10, "velocity": 78}, {"time": 75840, "pitch": 42, "duration": 10, "velocity": 106}, {"time": 75980, "pitch": 38, "duration": 10, "velocity": 78}, {"time": 76080, "pitch": 36, "duration": 10, "velocity": 106}, {"time": 76080, "pitch": 42, "duration": 10, "velocity": 78}, {"time": 76320, "pitch": 40, "duration": 10, "velocity": 106}, {"time": 76320, "pitch": 42, "duration": 10, "velocity": 106}, {"time": 76460, "pitch": 36, "duration": 10, "velocity": 92}, {"time": 76560, "pitch": 42, "duration": 10, "velocity": 78}, {"time": 76700, "pitch": 38, "duration": 10, "velocity": 78}, {"time": 76800, "pitch": 36, "duration": 10, "velocity": 106}, {"time": 76800, "pitch": 42, "duration": 10, "velocity": 106}, {"time": 77040, "pitch": 36, "duration": 10, "velocity": 92}, {"time": 77040, "pitch": 42, "duration": 10, "velocity": 78}, {"time": 77280, "pitch": 40, "duration": 10, "velocity": 106}, {"time": 77280, "pitch": 42, "duration": 10, "velocity": 106}, {"time": 77420, "pitch": 36, "duration": 10, "velocity": 92}, {"time": 77520, "pitch": 42, "duration": 10, "velocity": 78}, {"time": 77660, "pitch": 38, "duration": 10, "velocity": 78}, {"time": 77760, "pitch": 42, "duration": 10, "velocity": 106}, {"time": 77900, "pitch": 38, "duration": 10, "velocity": 78}, {"time": 78000, "pitch": 36, "duration": 10, "velocity": 106}, {"time": 78000, "pitch": 42, "duration": 10, "velocity": 78}, {"time": 78240, "pitch": 40, "duration": 10, "velocity": 106}, {"time": 78240, "pitch": 42, "duration": 10, "velocity": 106}, {"time": 78380, "pitch": 36, "duration": 10, "velocity": 92}, {"time": 78480, "pitch": 42, "duration": 10, "velocity": 78}, {"time": 78620, "pitch": 38, "duration": 10, "velocity": 78}, {"time": 78720, "pitch": 36, "duration": 10, "velocity": 106}, {"time": 78720, "pitch": 49, "duration": 10, "velocity": 92}, {"time": 78960, "pitch": 36, "duration": 10, "velocity": 92}, {"time": 78960, "pitch": 42, "duration": 10, "velocity": 78}, {"time": 79200, "pitch": 40, "duration": 10, "velocity": 106}, {"time": 79200, "pitch": 42, "duration": 10, "velocity": 106}, {"time": 79340, "pitch": 36, "duration": 10, "velocity": 92}, {"time": 79440, "pitch": 42, "duration": 10, "velocity": 78}, {"time": 79580, "pitch": 38, "duration": 10, "velocity": 78}, {"time": 79680, "pitch": 42, "duration": 10, "velocity": 106}, {"time": 79820, "pitch": 38, "duration": 10, "velocity": 78}, {"time": 79920, "pitch": 36, "duration": 10, "velocity": 106}, {"time": 79920, "pitch": 42, "duration": 10, "velocity": 78}, {"time": 80160, "pitch": 40, "duration": 10, "velocity": 106}, {"time": 80160, "pitch": 42, "duration": 10, "velocity": 106}, {"time": 80300, "pitch": 36, "duration": 10, "velocity": 92}, {"time": 80400, "pitch": 42, "duration": 10, "velocity": 78}, {"time": 80540, "pitch": 38, "duration": 10, "velocity": 78}, {"time": 80640, "pitch": 36, "duration": 10, "velocity": 106}, {"time": 80640, "pitch": 42, "duration": 10, "velocity": 106}, {"time": 80880, "pitch": 36, "duration": 10, "velocity": 92}, {"time": 80880, "pitch": 42, "duration": 10, "velocity": 78}, {"time": 81120, "pitch": 40, "duration": 10, "velocity": 106}, {"time": 81120, "pitch": 42, "duration": 10, "velocity": 106}, {"time": 81260, "pitch": 36, "duration": 10, "velocity": 92}, {"time": 81360, "pitch": 42, "duration": 10, "velocity": 78}, {"time": 81500, "pitch": 38, "duration": 10, "velocity": 78}, {"time": 81600, "pitch": 42, "duration": 10, "velocity": 106}, {"time": 81740, "pitch": 38, "duration": 10, "velocity": 78}, {"time": 81840, "pitch": 36, "duration": 10, "velocity": 106}, {"time": 81840, "pitch": 42, "duration": 10, "velocity": 78}, {"time": 82080, "pitch": 40, "duration": 10, "velocity": 106}, {"time": 82080, "pitch": 42, "duration": 10, "velocity": 106}, {"time": 82220, "pitch": 36, "duration": 10, "velocity": 92}, {"time": 82320, "pitch": 42, "duration": 10, "velocity": 78}, {"time": 82460, "pitch": 38, "duration": 10, "velocity": 78}, {"time": 82560, "pitch": 36, "duration": 10, "velocity": 106}, {"time": 82560, "pitch": 42, "duration": 10, "velocity": 106}, {"time": 82800, "pitch": 36, "duration": 10, "velocity": 92}, {"time": 82800, "pitch": 42, "duration": 10, "velocity": 78}, {"time": 83040, "pitch": 40, "duration": 10, "velocity": 106}, {"time": 83040, "pitch": 42, "duration": 10, "velocity": 106}, {"time": 83180, "pitch": 36, "duration": 10, "velocity": 92}, {"time": 83280, "pitch": 42, "duration": 10, "velocity": 78}, {"time": 83420, "pitch": 38, "duration": 10, "velocity": 78}, {"time": 83520, "pitch": 42, "duration": 10, "velocity": 106}, {"time": 83660, "pitch": 38, "duration": 10, "velocity": 78}, {"time": 83760, "pitch": 36, "duration": 10, "velocity": 106}, {"time": 83760, "pitch": 42, "duration": 10, "velocity": 78}, {"time": 84000, "pitch": 40, "duration": 10, "velocity": 106}, {"time": 84000, "pitch": 42, "duration": 10, "velocity": 106}, {"time": 84140, "pitch": 36, "duration": 10, "velocity": 92}, {"time": 84240, "pitch": 42, "duration": 10, "velocity": 78}, {"time": 84380, "pitch": 38, "duration": 10, "velocity": 78}, {"time": 84480, "pitch": 36, "duration": 10, "velocity": 106}, {"time": 84480, "pitch": 42, "duration": 10, "velocity": 106}, {"time": 84720, "pitch": 36, "duration": 10, "velocity": 92}, {"time": 84720, "pitch": 42, "duration": 10, "velocity": 78}, {"time": 84960, "pitch": 40, "duration": 10, "velocity": 106}, {"time": 84960, "pitch": 42, "duration": 10, "velocity": 106}, {"time": 85100, "pitch": 36, "duration": 10, "velocity": 92}, {"time": 85200, "pitch": 42, "duration": 10, "velocity": 78}, {"time": 85340, "pitch": 38, "duration": 10, "velocity": 78}, {"time": 85440, "pitch": 42, "duration": 10, "velocity": 106}, {"time": 85580, "pitch": 38, "duration": 10, "velocity": 78}, {"time": 85680, "pitch": 36, "duration": 10, "velocity": 106}, {"time": 85680, "pitch": 42, "duration": 10, "velocity": 78}, {"time": 85920, "pitch": 40, "duration": 10, "velocity": 106}, {"time": 85920, "pitch": 42, "duration": 10, "velocity": 106}, {"time": 86060, "pitch": 36, "duration": 10, "velocity": 92}, {"time": 86160, "pitch": 42, "duration": 10, "velocity": 78}, {"time": 86300, "pitch": 38, "duration": 10, "velocity": 78}, {"time": 86400, "pitch": 36, "duration": 10, "velocity": 106}, {"time": 86400, "pitch": 42, "duration": 10, "velocity": 106}, {"time": 86640, "pitch": 36, "duration": 10, "velocity": 92}, {"time": 86640, "pitch": 42, "duration": 10, "velocity": 78}, {"time": 86880, "pitch": 40, "duration": 10, "velocity": 106}, {"time": 86880, "pitch": 42, "duration": 10, "velocity": 106}, {"time": 87020, "pitch": 36, "duration": 10, "velocity": 92}, {"time": 87120, "pitch": 42, "duration": 10, "velocity": 78}, {"time": 87260, "pitch": 38, "duration": 10, "velocity": 78}, {"time": 87360, "pitch": 42, "duration": 10, "velocity": 106}, {"time": 87500, "pitch": 38, "duration": 10, "velocity": 78}, {"time": 87600, "pitch": 36, "duration": 10, "velocity": 106}, {"time": 87600, "pitch": 42, "duration": 10, "velocity": 78}, {"time": 87840, "pitch": 40, "duration": 10, "velocity": 106}, {"time": 87840, "pitch": 42, "duration": 10, "velocity": 106}, {"time": 87980, "pitch": 36, "duration": 10, "velocity": 92}, {"time": 88080, "pitch": 42, "duration": 10, "velocity": 78}, {"time": 88220, "pitch": 38, "duration": 10, "velocity": 78}, {"time": 88320, "pitch": 36, "duration": 10, "velocity": 106}, {"time": 88320, "pitch": 42, "duration": 10, "velocity": 106}, {"time": 88560, "pitch": 36, "duration": 10, "velocity": 92}, {"time": 88560, "pitch": 42, "duration": 10, "velocity": 78}, {"time": 88800, "pitch": 40, "duration": 10, "velocity": 106}, {"time": 88800, "pitch": 42, "duration": 10, "velocity": 106}, {"time": 88940, "pitch": 36, "duration": 10, "velocity": 92}, {"time": 89040, "pitch": 42, "duration": 10, "velocity": 78}, {"time": 89180, "pitch": 38, "duration": 10, "velocity": 78}, {"time": 89280, "pitch": 42, "duration": 10, "velocity": 106}, {"time": 89420, "pitch": 38, "duration": 10, "velocity": 78}, {"time": 89520, "pitch": 36, "duration": 10, "velocity": 106}, {"time": 89520, "pitch": 42, "duration": 10, "velocity": 78}, {"time": 89760, "pitch": 40, "duration": 10, "velocity": 106}, {"time": 89760, "pitch": 42, "duration": 10, "velocity": 106}, {"time": 89900, "pitch": 36, "duration": 10, "velocity": 92}, {"time": 90000, "pitch": 42, "duration": 10, "velocity": 78}, {"time": 90140, "pitch": 38, "duration": 10, "velocity": 78}, {"time": 90240, "pitch": 36, "duration": 10, "velocity": 106}, {"time": 90240, "pitch": 42, "duration": 10, "velocity": 106}, {"time": 90480, "pitch": 36, "duration": 10, "velocity": 92}, {"time": 90480, "pitch": 42, "duration": 10, "velocity": 78}, {"time": 90720, "pitch": 40, "duration": 10, "velocity": 106}, {"time": 90720, "pitch": 42, "duration": 10, "velocity": 106}, {"time": 90860, "pitch": 36, "duration": 10, "velocity": 92}, {"time": 90960, "pitch": 42, "duration": 10, "velocity": 78}, {"time": 91100, "pitch": 38, "duration": 10, "velocity": 78}, {"time": 91200, "pitch": 42, "duration": 10, "velocity": 106}, {"time": 91340, "pitch": 38, "duration": 10, "velocity": 78}, {"time": 91440, "pitch": 36, "duration": 10, "velocity": 106}, {"time": 91440, "pitch": 42, "duration": 10, "velocity": 78}, {"time": 91680, "pitch": 40, "duration": 10, "velocity": 106}, {"time": 91680, "pitch": 42, "duration": 10, "velocity": 106}, {"time": 91820, "pitch": 36, "duration": 10, "velocity": 92}, {"time": 91920, "pitch": 42, "duration": 10, "velocity": 78}, {"time": 92060, "pitch": 38, "duration": 10, "velocity": 78}, {"time": 92140, "pitch": 40, "duration": 10, "velocity": 92}, {"time": 92160, "pitch": 36, "duration": 10, "velocity": 106}, {"time": 92160, "pitch": 40, "duration": 10, "velocity": 106}, {"time": 92400, "pitch": 45, "duration": 10, "velocity": 120}, {"time": 92620, "pitch": 40, "duration": 10, "velocity": 92}, {"time": 92640, "pitch": 40, "duration": 10, "velocity": 106}, {"time": 92780, "pitch": 40, "duration": 10, "velocity": 92}, {"time": 93020, "pitch": 41, "duration": 10, "velocity": 106}, {"time": 93120, "pitch": 36, "duration": 10, "velocity": 106}, {"time": 93120, "pitch": 49, "duration": 10, "velocity": 92}, {"time": 94080, "pitch": 36, "duration": 10, "velocity": 106}, {"time": 94080, "pitch": 49, "duration": 10, "velocity": 92}, {"time": 94320, "pitch": 36, "duration": 10, "velocity": 92}, {"time": 94320, "pitch": 42, "duration": 10, "velocity": 78}, {"time": 94560, "pitch": 40, "duration": 10, "velocity": 106}, {"time": 94560, "pitch": 42, "duration": 10, "velocity": 106}, {"time": 94700, "pitch": 36, "duration": 10, "velocity": 92}, {"time": 94800, "pitch": 42, "duration": 10, "velocity": 78}, {"time": 94940, "pitch": 38, "duration": 10, "velocity": 78}, {"time": 95040, "pitch": 42, "duration": 10, "velocity": 106}, {"time": 95180, "pitch": 38, "duration": 10, "velocity": 78}, {"time": 95280, "pitch": 36, "duration": 10, "velocity": 106}, {"time": 95280, "pitch": 42, "duration": 10, "velocity": 78}, {"time": 95520, "pitch": 40, "duration": 10, "velocity": 106}, {"time": 95520, "pitch": 42, "duration": 10, "velocity": 106}, {"time": 95660, "pitch": 36, "duration": 10, "velocity": 92}, {"time": 95760, "pitch": 42, "duration": 10, "velocity": 78}, {"time": 95900, "pitch": 38, "duration": 10, "velocity": 78}, {"time": 96000, "pitch": 36, "duration": 10, "velocity": 106}, {"time": 96000, "pitch": 42, "duration": 10, "velocity": 106}, {"time": 96240, "pitch": 36, "duration": 10, "velocity": 92}, {"time": 96240, "pitch": 42, "duration": 10, "velocity": 78}, {"time": 96480, "pitch": 40, "duration": 10, "velocity": 106}, {"time": 96480, "pitch": 42, "duration": 10, "velocity": 106}, {"time": 96620, "pitch": 36, "duration": 10, "velocity": 92}, {"time": 96720, "pitch": 42, "duration": 10, "velocity": 78}, {"time": 96860, "pitch": 38, "duration": 10, "velocity": 78}, {"time": 96960, "pitch": 42, "duration": 10, "velocity": 106}, {"time": 97100, "pitch": 38, "duration": 10, "velocity": 78}, {"time": 97200, "pitch": 36, "duration": 10, "velocity": 106}, {"time": 97200, "pitch": 42, "duration": 10, "velocity": 78}, {"time": 97440, "pitch": 40, "duration": 10, "velocity": 106}, {"time": 97440, "pitch": 42, "duration": 10, "velocity": 106}, {"time": 97580, "pitch": 36, "duration": 10, "velocity": 92}, {"time": 97680, "pitch": 42, "duration": 10, "velocity": 78}, {"time": 97820, "pitch": 38, "duration": 10, "velocity": 78}, {"time": 97920, "pitch": 36, "duration": 10, "velocity": 106}, {"time": 97920, "pitch": 42, "duration": 10, "velocity": 106}, {"time": 98160, "pitch": 36, "duration": 10, "velocity": 92}, {"time": 98160, "pitch": 42, "duration": 10, "velocity": 78}, {"time": 98400, "pitch": 40, "duration": 10, "velocity": 106}, {"time": 98400, "pitch": 42, "duration": 10, "velocity": 106}, {"time": 98540, "pitch": 36, "duration": 10, "velocity": 92}, {"time": 98640, "pitch": 42, "duration": 10, "velocity": 78}, {"time": 98780, "pitch": 38, "duration": 10, "velocity": 78}, {"time": 98880, "pitch": 42, "duration": 10, "velocity": 106}, {"time": 99020, "pitch": 38, "duration": 10, "velocity": 78}, {"time": 99120, "pitch": 36, "duration": 10, "velocity": 106}, {"time": 99120, "pitch": 42, "duration": 10, "velocity": 78}, {"time": 99360, "pitch": 40, "duration": 10, "velocity": 106}, {"time": 99360, "pitch": 42, "duration": 10, "velocity": 106}, {"time": 99500, "pitch": 36, "duration": 10, "velocity": 92}, {"time": 99600, "pitch": 42, "duration": 10, "velocity": 78}, {"time": 99740, "pitch": 38, "duration": 10, "velocity": 78}, {"time": 99840, "pitch": 36, "duration": 10, "velocity": 106}, {"time": 99840, "pitch": 42, "duration": 10, "velocity": 106}, {"time": 100080, "pitch": 36, "duration": 10, "velocity": 92}, {"time": 100080, "pitch": 42, "duration": 10, "velocity": 78}, {"time": 100320, "pitch": 40, "duration": 10, "velocity": 106}, {"time": 100320, "pitch": 42, "duration": 10, "velocity": 106}, {"time": 100460, "pitch": 36, "duration": 10, "velocity": 92}, {"time": 100560, "pitch": 42, "duration": 10, "velocity": 78}, {"time": 100700, "pitch": 38, "duration": 10, "velocity": 78}, {"time": 100800, "pitch": 42, "duration": 10, "velocity": 106}, {"time": 100940, "pitch": 38, "duration": 10, "velocity": 78}, {"time": 101040, "pitch": 36, "duration": 10, "velocity": 106}, {"time": 101040, "pitch": 42, "duration": 10, "velocity": 78}, {"time": 101280, "pitch": 40, "duration": 10, "velocity": 106}, {"time": 101280, "pitch": 42, "duration": 10, "velocity": 106}, {"time": 101420, "pitch": 36, "duration": 10, "velocity": 92}, {"time": 101520, "pitch": 42, "duration": 10, "velocity": 78}, {"time": 101660, "pitch": 38, "duration": 10, "velocity": 78}, {"time": 101760, "pitch": 36, "duration": 10, "velocity": 106}, {"time": 101760, "pitch": 42, "duration": 10, "velocity": 106}, {"time": 102000, "pitch": 36, "duration": 10, "velocity": 92}, {"time": 102000, "pitch": 42, "duration": 10, "velocity": 78}, {"time": 102240, "pitch": 40, "duration": 10, "velocity": 106}, {"time": 102240, "pitch": 42, "duration": 10, "velocity": 106}, {"time": 102380, "pitch": 36, "duration": 10, "velocity": 92}, {"time": 102480, "pitch": 42, "duration": 10, "velocity": 78}, {"time": 102620, "pitch": 38, "duration": 10, "velocity": 78}, {"time": 102720, "pitch": 42, "duration": 10, "velocity": 106}, {"time": 102860, "pitch": 38, "duration": 10, "velocity": 78}, {"time": 102960, "pitch": 36, "duration": 10, "velocity": 106}, {"time": 102960, "pitch": 42, "duration": 10, "velocity": 78}, {"time": 103200, "pitch": 40, "duration": 10, "velocity": 106}, {"time": 103200, "pitch": 42, "duration": 10, "velocity": 106}, {"time": 103340, "pitch": 36, "duration": 10, "velocity": 92}, {"time": 103440, "pitch": 42, "duration": 10, "velocity": 78}, {"time": 103580, "pitch": 38, "duration": 10, "velocity": 78}, {"time": 103680, "pitch": 36, "duration": 10, "velocity": 106}, {"time": 103680, "pitch": 42, "duration": 10, "velocity": 106}, {"time": 103920, "pitch": 36, "duration": 10, "velocity": 92}, {"time": 103920, "pitch": 42, "duration": 10, "velocity": 78}, {"time": 104160, "pitch": 40, "duration": 10, "velocity": 106}, {"time": 104160, "pitch": 42, "duration": 10, "velocity": 106}, {"time": 104300, "pitch": 36, "duration": 10, "velocity": 92}, {"time": 104400, "pitch": 42, "duration": 10, "velocity": 78}, {"time": 104540, "pitch": 38, "duration": 10, "velocity": 78}, {"time": 104640, "pitch": 42, "duration": 10, "velocity": 106}, {"time": 104780, "pitch": 38, "duration": 10, "velocity": 78}, {"time": 104880, "pitch": 36, "duration": 10, "velocity": 106}, {"time": 104880, "pitch": 42, "duration": 10, "velocity": 78}, {"time": 105120, "pitch": 40, "duration": 10, "velocity": 106}, {"time": 105120, "pitch": 42, "duration": 10, "velocity": 106}, {"time": 105260, "pitch": 36, "duration": 10, "velocity": 92}, {"time": 105360, "pitch": 42, "duration": 10, "velocity": 78}, {"time": 105500, "pitch": 38, "duration": 10, "velocity": 78}, {"time": 105600, "pitch": 36, "duration": 10, "velocity": 106}, {"time": 105600, "pitch": 42, "duration": 10, "velocity": 106}, {"time": 105840, "pitch": 36, "duration": 10, "velocity": 92}, {"time": 105840, "pitch": 42, "duration": 10, "velocity": 78}, {"time": 106080, "pitch": 40, "duration": 10, "velocity": 106}, {"time": 106080, "pitch": 42, "duration": 10, "velocity": 106}, {"time": 106220, "pitch": 36, "duration": 10, "velocity": 92}, {"time": 106320, "pitch": 42, "duration": 10, "velocity": 78}, {"time": 106460, "pitch": 38, "duration": 10, "velocity": 78}, {"time": 106560, "pitch": 42, "duration": 10, "velocity": 106}, {"time": 106700, "pitch": 38, "duration": 10, "velocity": 78}, {"time": 106800, "pitch": 36, "duration": 10, "velocity": 106}, {"time": 106800, "pitch": 42, "duration": 10, "velocity": 78}, {"time": 107040, "pitch": 40, "duration": 10, "velocity": 106}, {"time": 107040, "pitch": 42, "duration": 10, "velocity": 106}, {"time": 107180, "pitch": 36, "duration": 10, "velocity": 92}, {"time": 107280, "pitch": 42, "duration": 10, "velocity": 78}, {"time": 107420, "pitch": 38, "duration": 10, "velocity": 78}, {"time": 107660, "pitch": 45, "duration": 10, "velocity": 92}, {"time": 107760, "pitch": 45, "duration": 10, "velocity": 106}, {"time": 108000, "pitch": 36, "duration": 10, "velocity": 92}, {"time": 108000, "pitch": 40, "duration": 10, "velocity": 106}, {"time": 108140, "pitch": 40, "duration": 10, "velocity": 78}, {"time": 108240, "pitch": 45, "duration": 10, "velocity": 106}, {"time": 108480, "pitch": 36, "duration": 10, "velocity": 92}, {"time": 108480, "pitch": 40, "duration": 10, "velocity": 50}, {"time": 108620, "pitch": 40, "duration": 10, "velocity": 64}, {"time": 108720, "pitch": 40, "duration": 10, "velocity": 78}, {"time": 108860, "pitch": 40, "duration": 10, "velocity": 106}, {"time": 108960, "pitch": 36, "duration": 10, "velocity": 92}, {"time": 108960, "pitch": 45, "duration": 10, "velocity": 106}, {"time": 109100, "pitch": 45, "duration": 10, "velocity": 92}, {"time": 109200, "pitch": 41, "duration": 10, "velocity": 106}, {"time": 109340, "pitch": 41, "duration": 10, "velocity": 92}, {"time": 109440, "pitch": 36, "duration": 10, "velocity": 106}, {"time": 109440, "pitch": 57, "duration": 10, "velocity": 92}, {"time": 109680, "pitch": 40, "duration": 10, "velocity": 36}, {"time": 109680, "pitch": 41, "duration": 10, "velocity": 36}, {"time": 109920, "pitch": 36, "duration": 10, "velocity": 64}, {"time": 109920, "pitch": 40, "duration": 10, "velocity": 50}, {"time": 109920, "pitch": 41, "duration": 10, "velocity": 50}, {"time": 110160, "pitch": 40, "duration": 10, "velocity": 64}, {"time": 110160, "pitch": 41, "duration": 10, "velocity": 64}, {"time": 110400, "pitch": 36, "duration": 10, "velocity": 78}, {"time": 110400, "pitch": 40, "duration": 10, "velocity": 78}, {"time": 110400, "pitch": 41, "duration": 10, "velocity": 78}, {"time": 110640, "pitch": 40, "duration": 10, "velocity": 92}, {"time": 110640, "pitch": 41, "duration": 10, "velocity": 92}, {"time": 110880, "pitch": 36, "duration": 10, "velocity": 92}, {"time": 110880, "pitch": 40, "duration": 10, "velocity": 106}, {"time": 110880, "pitch": 41, "duration": 10, "velocity": 106}, {"time": 111120, "pitch": 40, "duration": 10, "velocity": 120}, {"time": 111120, "pitch": 41, "duration": 10, "velocity": 120}, {"time": 111360, "pitch": 36, "duration": 10, "velocity": 106}, {"time": 111360, "pitch": 57, "duration": 10, "velocity": 78}, {"time": 111600, "pitch": 36, "duration": 10, "velocity": 106}, {"time": 111600, "pitch": 42, "duration": 10, "velocity": 78}, {"time": 111840, "pitch": 40, "duration": 10, "velocity": 106}, {"time": 111840, "pitch": 42, "duration": 10, "velocity": 106}, {"time": 112080, "pitch": 38, "duration": 10, "velocity": 78}, {"time": 112080, "pitch": 42, "duration": 10, "velocity": 78}, {"time": 112220, "pitch": 36, "duration": 10, "velocity": 92}, {"time": 112320, "pitch": 42, "duration": 10, "velocity": 106}, {"time": 112460, "pitch": 38, "duration": 10, "velocity": 78}, {"time": 112560, "pitch": 36, "duration": 10, "velocity": 106}, {"time": 112560, "pitch": 42, "duration": 10, "velocity": 78}, {"time": 112800, "pitch": 40, "duration": 10, "velocity": 106}, {"time": 112800, "pitch": 42, "duration": 10, "velocity": 106}, {"time": 112940, "pitch": 36, "duration": 10, "velocity": 92}, {"time": 113040, "pitch": 42, "duration": 10, "velocity": 78}, {"time": 113180, "pitch": 38, "duration": 10, "velocity": 78}, {"time": 113280, "pitch": 36, "duration": 10, "velocity": 106}, {"time": 113280, "pitch": 42, "duration": 10, "velocity": 106}, {"time": 113520, "pitch": 36, "duration": 10, "velocity": 106}, {"time": 113520, "pitch": 42, "duration": 10, "velocity": 78}, {"time": 113760, "pitch": 40, "duration": 10, "velocity": 106}, {"time": 113760, "pitch": 42, "duration": 10, "velocity": 106}, {"time": 114000, "pitch": 38, "duration": 10, "velocity": 78}, {"time": 114000, "pitch": 42, "duration": 10, "velocity": 78}, {"time": 114140, "pitch": 36, "duration": 10, "velocity": 92}, {"time": 114240, "pitch": 42, "duration": 10, "velocity": 106}, {"time": 114380, "pitch": 38, "duration": 10, "velocity": 78}, {"time": 114480, "pitch": 36, "duration": 10, "velocity": 106}, {"time": 114480, "pitch": 42, "duration": 10, "velocity": 78}, {"time": 114720, "pitch": 40, "duration": 10, "velocity": 106}, {"time": 114720, "pitch": 42, "duration": 10, "velocity": 106}, {"time": 114860, "pitch": 36, "duration": 10, "velocity": 92}, {"time": 114960, "pitch": 42, "duration": 10, "velocity": 78}, {"time": 115100, "pitch": 38, "duration": 10, "velocity": 78}, {"time": 115200, "pitch": 36, "duration": 10, "velocity": 106}, {"time": 115200, "pitch": 42, "duration": 10, "velocity": 106}, {"time": 115440, "pitch": 36, "duration": 10, "velocity": 106}, {"time": 115440, "pitch": 42, "duration": 10, "velocity": 78}, {"time": 115680, "pitch": 40, "duration": 10, "velocity": 106}, {"time": 115680, "pitch": 42, "duration": 10, "velocity": 106}, {"time": 115920, "pitch": 38, "duration": 10, "velocity": 78}, {"time": 115920, "pitch": 42, "duration": 10, "velocity": 78}, {"time": 116060, "pitch": 36, "duration": 10, "velocity": 92}, {"time": 116160, "pitch": 42, "duration": 10, "velocity": 106}, {"time": 116300, "pitch": 38, "duration": 10, "velocity": 78}, {"time": 116400, "pitch": 36, "duration": 10, "velocity": 106}, {"time": 116400, "pitch": 42, "duration": 10, "velocity": 78}, {"time": 116640, "pitch": 40, "duration": 10, "velocity": 106}, {"time": 116640, "pitch": 42, "duration": 10, "velocity": 106}, {"time": 116780, "pitch": 36, "duration": 10, "velocity": 92}, {"time": 116880, "pitch": 42, "duration": 10, "velocity": 78}, {"time": 117020, "pitch": 38, "duration": 10, "velocity": 78}, {"time": 117120, "pitch": 36, "duration": 10, "velocity": 106}, {"time": 117120, "pitch": 42, "duration": 10, "velocity": 106}, {"time": 117360, "pitch": 36, "duration": 10, "velocity": 106}, {"time": 117360, "pitch": 42, "duration": 10, "velocity": 78}, {"time": 117600, "pitch": 40, "duration": 10, "velocity": 106}, {"time": 117600, "pitch": 42, "duration": 10, "velocity": 106}, {"time": 117840, "pitch": 38, "duration": 10, "velocity": 78}, {"time": 117840, "pitch": 42, "duration": 10, "velocity": 78}, {"time": 117980, "pitch": 36, "duration": 10, "velocity": 92}, {"time": 118080, "pitch": 42, "duration": 10, "velocity": 106}, {"time": 118220, "pitch": 38, "duration": 10, "velocity": 78}, {"time": 118320, "pitch": 36, "duration": 10, "velocity": 106}, {"time": 118320, "pitch": 42, "duration": 10, "velocity": 78}, {"time": 118560, "pitch": 40, "duration": 10, "velocity": 106}, {"time": 118560, "pitch": 42, "duration": 10, "velocity": 106}, {"time": 118700, "pitch": 36, "duration": 10, "velocity": 92}, {"time": 118800, "pitch": 42, "duration": 10, "velocity": 78}, {"time": 118940, "pitch": 38, "duration": 10, "velocity": 78}, {"time": 119040, "pitch": 36, "duration": 10, "velocity": 106}, {"time": 119040, "pitch": 42, "duration": 10, "velocity": 106}, {"time": 119280, "pitch": 36, "duration": 10, "velocity": 106}, {"time": 119280, "pitch": 42, "duration": 10, "velocity": 78}, {"time": 119520, "pitch": 40, "duration": 10, "velocity": 106}, {"time": 119520, "pitch": 42, "duration": 10, "velocity": 106}, {"time": 119760, "pitch": 38, "duration": 10, "velocity": 78}, {"time": 119760, "pitch": 42, "duration": 10, "velocity": 78}, {"time": 119900, "pitch": 36, "duration": 10, "velocity": 92}, {"time": 120000, "pitch": 42, "duration": 10, "velocity": 106}, {"time": 120140, "pitch": 38, "duration": 10, "velocity": 78}, {"time": 120240, "pitch": 36, "duration": 10, "velocity": 106}, {"time": 120240, "pitch": 42, "duration": 10, "velocity": 78}, {"time": 120480, "pitch": 40, "duration": 10, "velocity": 106}, {"time": 120480, "pitch": 42, "duration": 10, "velocity": 106}, {"time": 120620, "pitch": 36, "duration": 10, "velocity": 92}, {"time": 120720, "pitch": 42, "duration": 10, "velocity": 78}, {"time": 120860, "pitch": 38, "duration": 10, "velocity": 78}, {"time": 120960, "pitch": 36, "duration": 10, "velocity": 106}, {"time": 120960, "pitch": 42, "duration": 10, "velocity": 106}, {"time": 121200, "pitch": 36, "duration": 10, "velocity": 106}, {"time": 121200, "pitch": 42, "duration": 10, "velocity": 78}, {"time": 121440, "pitch": 40, "duration": 10, "velocity": 106}, {"time": 121440, "pitch": 42, "duration": 10, "velocity": 106}, {"time": 121680, "pitch": 38, "duration": 10, "velocity": 78}, {"time": 121680, "pitch": 42, "duration": 10, "velocity": 78}, {"time": 121820, "pitch": 36, "duration": 10, "velocity": 92}, {"time": 121920, "pitch": 42, "duration": 10, "velocity": 106}, {"time": 122060, "pitch": 38, "duration": 10, "velocity": 78}, {"time": 122160, "pitch": 36, "duration": 10, "velocity": 106}, {"time": 122160, "pitch": 42, "duration": 10, "velocity": 78}, {"time": 122400, "pitch": 40, "duration": 10, "velocity": 106}, {"time": 122400, "pitch": 42, "duration": 10, "velocity": 106}, {"time": 122540, "pitch": 36, "duration": 10, "velocity": 92}, {"time": 122640, "pitch": 42, "duration": 10, "velocity": 78}, {"time": 122780, "pitch": 38, "duration": 10, "velocity": 78}, {"time": 122880, "pitch": 36, "duration": 10, "velocity": 106}, {"time": 122880, "pitch": 42, "duration": 10, "velocity": 106}, {"time": 123120, "pitch": 36, "duration": 10, "velocity": 106}, {"time": 123120, "pitch": 42, "duration": 10, "velocity": 78}, {"time": 123360, "pitch": 40, "duration": 10, "velocity": 106}, {"time": 123360, "pitch": 42, "duration": 10, "velocity": 106}, {"time": 123600, "pitch": 38, "duration": 10, "velocity": 78}, {"time": 123600, "pitch": 42, "duration": 10, "velocity": 78}, {"time": 123740, "pitch": 36, "duration": 10, "velocity": 92}, {"time": 123840, "pitch": 42, "duration": 10, "velocity": 106}, {"time": 123980, "pitch": 40, "duration": 10, "velocity": 106}, {"time": 124080, "pitch": 36, "duration": 10, "velocity": 106}, {"time": 124220, "pitch": 40, "duration": 10, "velocity": 92}, {"time": 124320, "pitch": 40, "duration": 10, "velocity": 106}, {"time": 124460, "pitch": 40, "duration": 10, "velocity": 92}, {"time": 124560, "pitch": 36, "duration": 10, "velocity": 92}, {"time": 124700, "pitch": 40, "duration": 10, "velocity": 106}, {"time": 124800, "pitch": 36, "duration": 10, "velocity": 106}, {"time": 124800, "pitch": 40, "duration": 10, "velocity": 106}, {"time": 125040, "pitch": 40, "duration": 10, "velocity": 106}, {"time": 125280, "pitch": 36, "duration": 10, "velocity": 106}, {"time": 125280, "pitch": 40, "duration": 10, "velocity": 106}, {"time": 125520, "pitch": 40, "duration": 10, "velocity": 106}, {"time": 125660, "pitch": 40, "duration": 10, "velocity": 92}, {"time": 125760, "pitch": 36, "duration": 10, "velocity": 106}, {"time": 125760, "pitch": 42, "duration": 10, "velocity": 106}, {"time": 125900, "pitch": 40, "duration": 10, "velocity": 106}, {"time": 125900, "pitch": 49, "duration": 10, "velocity": 92}, {"time": 126240, "pitch": 36, "duration": 10, "velocity": 106}, {"time": 126240, "pitch": 42, "duration": 10, "velocity": 106}, {"time": 126380, "pitch": 40, "duration": 10, "velocity": 106}, {"time": 126380, "pitch": 49, "duration": 10, "velocity": 92}, {"time": 126720, "pitch": 36, "duration": 10, "velocity": 106}, {"time": 126720, "pitch": 57, "duration": 10, "velocity": 78}, {"time": 126960, "pitch": 36, "duration": 10, "velocity": 106}, {"time": 126960, "pitch": 42, "duration": 10, "velocity": 78}, {"time": 127200, "pitch": 40, "duration": 10, "velocity": 106}, {"time": 127200, "pitch": 42, "duration": 10, "velocity": 106}, {"time": 127440, "pitch": 38, "duration": 10, "velocity": 78}, {"time": 127440, "pitch": 42, "duration": 10, "velocity": 78}, {"time": 127580, "pitch": 36, "duration": 10, "velocity": 92}, {"time": 127680, "pitch": 42, "duration": 10, "velocity": 106}, {"time": 127820, "pitch": 38, "duration": 10, "velocity": 78}, {"time": 127920, "pitch": 36, "duration": 10, "velocity": 106}, {"time": 127920, "pitch": 42, "duration": 10, "velocity": 78}, {"time": 128160, "pitch": 40, "duration": 10, "velocity": 106}, {"time": 128160, "pitch": 42, "duration": 10, "velocity": 106}, {"time": 128300, "pitch": 36, "duration": 10, "velocity": 92}, {"time": 128400, "pitch": 42, "duration": 10, "velocity": 78}, {"time": 128540, "pitch": 38, "duration": 10, "velocity": 78}, {"time": 128640, "pitch": 36, "duration": 10, "velocity": 106}, {"time": 128640, "pitch": 42, "duration": 10, "velocity": 106}, {"time": 128880, "pitch": 36, "duration": 10, "velocity": 106}, {"time": 128880, "pitch": 42, "duration": 10, "velocity": 78}, {"time": 129120, "pitch": 40, "duration": 10, "velocity": 106}, {"time": 129120, "pitch": 42, "duration": 10, "velocity": 106}, {"time": 129360, "pitch": 38, "duration": 10, "velocity": 78}, {"time": 129360, "pitch": 42, "duration": 10, "velocity": 78}, {"time": 129500, "pitch": 36, "duration": 10, "velocity": 92}, {"time": 129600, "pitch": 42, "duration": 10, "velocity": 106}, {"time": 129740, "pitch": 38, "duration": 10, "velocity": 78}, {"time": 129840, "pitch": 36, "duration": 10, "velocity": 106}, {"time": 129840, "pitch": 42, "duration": 10, "velocity": 78}, {"time": 130080, "pitch": 40, "duration": 10, "velocity": 106}, {"time": 130080, "pitch": 42, "duration": 10, "velocity": 106}, {"time": 130220, "pitch": 36, "duration": 10, "velocity": 92}, {"time": 130320, "pitch": 42, "duration": 10, "velocity": 78}, {"time": 130460, "pitch": 38, "duration": 10, "velocity": 78}, {"time": 130560, "pitch": 36, "duration": 10, "velocity": 106}, {"time": 130560, "pitch": 42, "duration": 10, "velocity": 106}, {"time": 130800, "pitch": 36, "duration": 10, "velocity": 106}, {"time": 130800, "pitch": 42, "duration": 10, "velocity": 78}, {"time": 131040, "pitch": 40, "duration": 10, "velocity": 106}, {"time": 131040, "pitch": 42, "duration": 10, "velocity": 106}, {"time": 131280, "pitch": 38, "duration": 10, "velocity": 78}, {"time": 131280, "pitch": 42, "duration": 10, "velocity": 78}, {"time": 131420, "pitch": 36, "duration": 10, "velocity": 92}, {"time": 131520, "pitch": 42, "duration": 10, "velocity": 106}, {"time": 131660, "pitch": 38, "duration": 10, "velocity": 78}, {"time": 131760, "pitch": 36, "duration": 10, "velocity": 106}, {"time": 131760, "pitch": 42, "duration": 10, "velocity": 78}, {"time": 132000, "pitch": 40, "duration": 10, "velocity": 106}, {"time": 132000, "pitch": 42, "duration": 10, "velocity": 106}, {"time": 132140, "pitch": 36, "duration": 10, "velocity": 92}, {"time": 132240, "pitch": 42, "duration": 10, "velocity": 78}, {"time": 132380, "pitch": 38, "duration": 10, "velocity": 78}, {"time": 132480, "pitch": 36, "duration": 10, "velocity": 106}, {"time": 132480, "pitch": 42, "duration": 10, "velocity": 106}, {"time": 132720, "pitch": 36, "duration": 10, "velocity": 106}, {"time": 132720, "pitch": 42, "duration": 10, "velocity": 78}, {"time": 132960, "pitch": 40, "duration": 10, "velocity": 106}, {"time": 132960, "pitch": 42, "duration": 10, "velocity": 106}, {"time": 133200, "pitch": 38, "duration": 10, "velocity": 78}, {"time": 133200, "pitch": 42, "duration": 10, "velocity": 78}, {"time": 133340, "pitch": 36, "duration": 10, "velocity": 92}, {"time": 133440, "pitch": 42, "duration": 10, "velocity": 106}, {"time": 133580, "pitch": 38, "duration": 10, "velocity": 78}, {"time": 133680, "pitch": 36, "duration": 10, "velocity": 106}, {"time": 133680, "pitch": 42, "duration": 10, "velocity": 78}, {"time": 133920, "pitch": 40, "duration": 10, "velocity": 106}, {"time": 133920, "pitch": 42, "duration": 10, "velocity": 106}, {"time": 134060, "pitch": 36, "duration": 10, "velocity": 92}, {"time": 134160, "pitch": 42, "duration": 10, "velocity": 78}, {"time": 134300, "pitch": 38, "duration": 10, "velocity": 78}, {"time": 134400, "pitch": 36, "duration": 10, "velocity": 106}, {"time": 134400, "pitch": 42, "duration": 10, "velocity": 106}, {"time": 134640, "pitch": 36, "duration": 10, "velocity": 106}, {"time": 134640, "pitch": 42, "duration": 10, "velocity": 78}, {"time": 134880, "pitch": 40, "duration": 10, "velocity": 106}, {"time": 134880, "pitch": 42, "duration": 10, "velocity": 106}, {"time": 135120, "pitch": 38, "duration": 10, "velocity": 78}, {"time": 135120, "pitch": 42, "duration": 10, "velocity": 78}, {"time": 135260, "pitch": 36, "duration": 10, "velocity": 92}, {"time": 135360, "pitch": 42, "duration": 10, "velocity": 106}, {"time": 135500, "pitch": 38, "duration": 10, "velocity": 78}, {"time": 135600, "pitch": 36, "duration": 10, "velocity": 106}, {"time": 135600, "pitch": 42, "duration": 10, "velocity": 78}, {"time": 135840, "pitch": 40, "duration": 10, "velocity": 106}, {"time": 135840, "pitch": 42, "duration": 10, "velocity": 106}, {"time": 135980, "pitch": 36, "duration": 10, "velocity": 92}, {"time": 136080, "pitch": 42, "duration": 10, "velocity": 78}, {"time": 136220, "pitch": 38, "duration": 10, "velocity": 78}, {"time": 136320, "pitch": 36, "duration": 10, "velocity": 106}, {"time": 136320, "pitch": 42, "duration": 10, "velocity": 106}, {"time": 136560, "pitch": 36, "duration": 10, "velocity": 106}, {"time": 136560, "pitch": 42, "duration": 10, "velocity": 78}, {"time": 136800, "pitch": 40, "duration": 10, "velocity": 106}, {"time": 136800, "pitch": 42, "duration": 10, "velocity": 106}, {"time": 137040, "pitch": 38, "duration": 10, "velocity": 78}, {"time": 137040, "pitch": 42, "duration": 10, "velocity": 78}, {"time": 137180, "pitch": 36, "duration": 10, "velocity": 92}, {"time": 137280, "pitch": 42, "duration": 10, "velocity": 106}, {"time": 137420, "pitch": 38, "duration": 10, "velocity": 78}, {"time": 137520, "pitch": 36, "duration": 10, "velocity": 106}, {"time": 137520, "pitch": 42, "duration": 10, "velocity": 78}, {"time": 137760, "pitch": 40, "duration": 10, "velocity": 106}, {"time": 137760, "pitch": 42, "duration": 10, "velocity": 106}, {"time": 137900, "pitch": 36, "duration": 10, "velocity": 92}, {"time": 138000, "pitch": 42, "duration": 10, "velocity": 78}, {"time": 138140, "pitch": 38, "duration": 10, "velocity": 78}, {"time": 138240, "pitch": 36, "duration": 10, "velocity": 106}, {"time": 138240, "pitch": 42, "duration": 10, "velocity": 106}, {"time": 138480, "pitch": 36, "duration": 10, "velocity": 106}, {"time": 138480, "pitch": 42, "duration": 10, "velocity": 78}, {"time": 138720, "pitch": 40, "duration": 10, "velocity": 106}, {"time": 138720, "pitch": 42, "duration": 10, "velocity": 106}, {"time": 138960, "pitch": 38, "duration": 10, "velocity": 78}, {"time": 138960, "pitch": 42, "duration": 10, "velocity": 78}, {"time": 139100, "pitch": 36, "duration": 10, "velocity": 92}, {"time": 139200, "pitch": 42, "duration": 10, "velocity": 106}, {"time": 139340, "pitch": 40, "duration": 10, "velocity": 106}, {"time": 139440, "pitch": 36, "duration": 10, "velocity": 106}, {"time": 139580, "pitch": 40, "duration": 10, "velocity": 92}, {"time": 139680, "pitch": 40, "duration": 10, "velocity": 106}, {"time": 139820, "pitch": 40, "duration": 10, "velocity": 92}, {"time": 139920, "pitch": 36, "duration": 10, "velocity": 92}, {"time": 140060, "pitch": 40, "duration": 10, "velocity": 106}, {"time": 140140, "pitch": 48, "duration": 10, "velocity": 92}, {"time": 140160, "pitch": 36, "duration": 10, "velocity": 106}, {"time": 140160, "pitch": 48, "duration": 10, "velocity": 120}, {"time": 140400, "pitch": 48, "duration": 10, "velocity": 106}, {"time": 140640, "pitch": 36, "duration": 10, "velocity": 106}, {"time": 140640, "pitch": 45, "duration": 10, "velocity": 120}, {"time": 140880, "pitch": 41, "duration": 10, "velocity": 120}, {"time": 141020, "pitch": 41, "duration": 10, "velocity": 106}, {"time": 141120, "pitch": 36, "duration": 10, "velocity": 106}, {"time": 141120, "pitch": 41, "duration": 10, "velocity": 120}, {"time": 141360, "pitch": 40, "duration": 10, "velocity": 106}, {"time": 141360, "pitch": 49, "duration": 10, "velocity": 92}, {"time": 141600, "pitch": 45, "duration": 10, "velocity": 120}, {"time": 141740, "pitch": 45, "duration": 10, "velocity": 106}, {"time": 141840, "pitch": 41, "duration": 10, "velocity": 120}, {"time": 142080, "pitch": 36, "duration": 10, "velocity": 106}, {"time": 142080, "pitch": 49, "duration": 10, "velocity": 92}, {"time": 142320, "pitch": 36, "duration": 10, "velocity": 92}, {"time": 142320, "pitch": 42, "duration": 10, "velocity": 78}, {"time": 142560, "pitch": 40, "duration": 10, "velocity": 106}, {"time": 142560, "pitch": 42, "duration": 10, "velocity": 106}, {"time": 142700, "pitch": 36, "duration": 10, "velocity": 92}, {"time": 142800, "pitch": 42, "duration": 10, "velocity": 78}, {"time": 142940, "pitch": 38, "duration": 10, "velocity": 78}, {"time": 143040, "pitch": 42, "duration": 10, "velocity": 106}, {"time": 143180, "pitch": 38, "duration": 10, "velocity": 78}, {"time": 143280, "pitch": 36, "duration": 10, "velocity": 106}, {"time": 143280, "pitch": 42, "duration": 10, "velocity": 78}, {"time": 143520, "pitch": 40, "duration": 10, "velocity": 106}, {"time": 143520, "pitch": 42, "duration": 10, "velocity": 106}, {"time": 143660, "pitch": 36, "duration": 10, "velocity": 92}, {"time": 143760, "pitch": 42, "duration": 10, "velocity": 78}, {"time": 143900, "pitch": 38, "duration": 10, "velocity": 78}, {"time": 144000, "pitch": 36, "duration": 10, "velocity": 106}, {"time": 144000, "pitch": 42, "duration": 10, "velocity": 106}, {"time": 144240, "pitch": 36, "duration": 10, "velocity": 92}, {"time": 144240, "pitch": 42, "duration": 10, "velocity": 78}, {"time": 144480, "pitch": 40, "duration": 10, "velocity": 106}, {"time": 144480, "pitch": 42, "duration": 10, "velocity": 106}, {"time": 144620, "pitch": 36, "duration": 10, "velocity": 92}, {"time": 144720, "pitch": 42, "duration": 10, "velocity": 78}, {"time": 144860, "pitch": 38, "duration": 10, "velocity": 78}, {"time": 144960, "pitch": 42, "duration": 10, "velocity": 106}, {"time": 145100, "pitch": 38, "duration": 10, "velocity": 78}, {"time": 145200, "pitch": 36, "duration": 10, "velocity": 106}, {"time": 145200, "pitch": 42, "duration": 10, "velocity": 78}, {"time": 145440, "pitch": 40, "duration": 10, "velocity": 106}, {"time": 145440, "pitch": 42, "duration": 10, "velocity": 106}, {"time": 145580, "pitch": 36, "duration": 10, "velocity": 92}, {"time": 145680, "pitch": 42, "duration": 10, "velocity": 78}, {"time": 145820, "pitch": 38, "duration": 10, "velocity": 78}, {"time": 145920, "pitch": 36, "duration": 10, "velocity": 106}, {"time": 145920, "pitch": 42, "duration": 10, "velocity": 106}, {"time": 146160, "pitch": 36, "duration": 10, "velocity": 92}, {"time": 146160, "pitch": 42, "duration": 10, "velocity": 78}, {"time": 146400, "pitch": 40, "duration": 10, "velocity": 106}, {"time": 146400, "pitch": 42, "duration": 10, "velocity": 106}, {"time": 146540, "pitch": 36, "duration": 10, "velocity": 92}, {"time": 146640, "pitch": 42, "duration": 10, "velocity": 78}, {"time": 146780, "pitch": 38, "duration": 10, "velocity": 78}, {"time": 146880, "pitch": 42, "duration": 10, "velocity": 106}, {"time": 147020, "pitch": 38, "duration": 10, "velocity": 78}, {"time": 147120, "pitch": 36, "duration": 10, "velocity": 106}, {"time": 147120, "pitch": 42, "duration": 10, "velocity": 78}, {"time": 147360, "pitch": 40, "duration": 10, "velocity": 106}, {"time": 147360, "pitch": 42, "duration": 10, "velocity": 106}, {"time": 147500, "pitch": 36, "duration": 10, "velocity": 92}, {"time": 147600, "pitch": 42, "duration": 10, "velocity": 78}, {"time": 147740, "pitch": 38, "duration": 10, "velocity": 78}, {"time": 147840, "pitch": 36, "duration": 10, "velocity": 106}, {"time": 147840, "pitch": 42, "duration": 10, "velocity": 106}, {"time": 148080, "pitch": 36, "duration": 10, "velocity": 92}, {"time": 148080, "pitch": 42, "duration": 10, "velocity": 78}, {"time": 148320, "pitch": 40, "duration": 10, "velocity": 106}, {"time": 148320, "pitch": 42, "duration": 10, "velocity": 106}, {"time": 148460, "pitch": 36, "duration": 10, "velocity": 92}, {"time": 148560, "pitch": 42, "duration": 10, "velocity": 78}, {"time": 148700, "pitch": 38, "duration": 10, "velocity": 78}, {"time": 148800, "pitch": 42, "duration": 10, "velocity": 106}, {"time": 148940, "pitch": 38, "duration": 10, "velocity": 78}, {"time": 149040, "pitch": 36, "duration": 10, "velocity": 106}, {"time": 149040, "pitch": 42, "duration": 10, "velocity": 78}, {"time": 149280, "pitch": 40, "duration": 10, "velocity": 106}, {"time": 149280, "pitch": 42, "duration": 10, "velocity": 106}, {"time": 149420, "pitch": 36, "duration": 10, "velocity": 92}, {"time": 149520, "pitch": 42, "duration": 10, "velocity": 78}, {"time": 149660, "pitch": 38, "duration": 10, "velocity": 78}, {"time": 149760, "pitch": 36, "duration": 10, "velocity": 106}, {"time": 149760, "pitch": 42, "duration": 10, "velocity": 106}, {"time": 150000, "pitch": 36, "duration": 10, "velocity": 92}, {"time": 150000, "pitch": 42, "duration": 10, "velocity": 78}, {"time": 150240, "pitch": 40, "duration": 10, "velocity": 106}, {"time": 150240, "pitch": 42, "duration": 10, "velocity": 106}, {"time": 150380, "pitch": 36, "duration": 10, "velocity": 92}, {"time": 150480, "pitch": 42, "duration": 10, "velocity": 78}, {"time": 150620, "pitch": 38, "duration": 10, "velocity": 78}, {"time": 150720, "pitch": 42, "duration": 10, "velocity": 106}, {"time": 150860, "pitch": 38, "duration": 10, "velocity": 78}, {"time": 150960, "pitch": 36, "duration": 10, "velocity": 106}, {"time": 150960, "pitch": 42, "duration": 10, "velocity": 78}, {"time": 151200, "pitch": 40, "duration": 10, "velocity": 106}, {"time": 151200, "pitch": 42, "duration": 10, "velocity": 106}, {"time": 151340, "pitch": 36, "duration": 10, "velocity": 92}, {"time": 151440, "pitch": 42, "duration": 10, "velocity": 78}, {"time": 151580, "pitch": 38, "duration": 10, "velocity": 78}, {"time": 151680, "pitch": 36, "duration": 10, "velocity": 106}, {"time": 151680, "pitch": 42, "duration": 10, "velocity": 106}, {"time": 151920, "pitch": 36, "duration": 10, "velocity": 92}, {"time": 151920, "pitch": 42, "duration": 10, "velocity": 78}, {"time": 152160, "pitch": 40, "duration": 10, "velocity": 106}, {"time": 152160, "pitch": 42, "duration": 10, "velocity": 106}, {"time": 152300, "pitch": 36, "duration": 10, "velocity": 92}, {"time": 152400, "pitch": 42, "duration": 10, "velocity": 78}, {"time": 152540, "pitch": 38, "duration": 10, "velocity": 78}, {"time": 152640, "pitch": 42, "duration": 10, "velocity": 106}, {"time": 152780, "pitch": 38, "duration": 10, "velocity": 78}, {"time": 152880, "pitch": 36, "duration": 10, "velocity": 106}, {"time": 152880, "pitch": 42, "duration": 10, "velocity": 78}, {"time": 153120, "pitch": 40, "duration": 10, "velocity": 106}, {"time": 153120, "pitch": 42, "duration": 10, "velocity": 106}, {"time": 153260, "pitch": 36, "duration": 10, "velocity": 92}, {"time": 153360, "pitch": 42, "duration": 10, "velocity": 78}, {"time": 153500, "pitch": 38, "duration": 10, "velocity": 78}, {"time": 153600, "pitch": 36, "duration": 10, "velocity": 106}, {"time": 153600, "pitch": 42, "duration": 10, "velocity": 106}, {"time": 153840, "pitch": 36, "duration": 10, "velocity": 92}, {"time": 153840, "pitch": 42, "duration": 10, "velocity": 78}, {"time": 154080, "pitch": 40, "duration": 10, "velocity": 106}, {"time": 154080, "pitch": 42, "duration": 10, "velocity": 106}, {"time": 154220, "pitch": 36, "duration": 10, "velocity": 92}, {"time": 154320, "pitch": 42, "duration": 10, "velocity": 78}, {"time": 154460, "pitch": 38, "duration": 10, "velocity": 78}, {"time": 154560, "pitch": 42, "duration": 10, "velocity": 106}, {"time": 154700, "pitch": 38, "duration": 10, "velocity": 78}, {"time": 154800, "pitch": 36, "duration": 10, "velocity": 106}, {"time": 154800, "pitch": 42, "duration": 10, "velocity": 78}, {"time": 155040, "pitch": 40, "duration": 10, "velocity": 106}, {"time": 155040, "pitch": 42, "duration": 10, "velocity": 106}, {"time": 155180, "pitch": 36, "duration": 10, "velocity": 92}, {"time": 155280, "pitch": 42, "duration": 10, "velocity": 78}, {"time": 155420, "pitch": 38, "duration": 10, "velocity": 78}, {"time": 155520, "pitch": 36, "duration": 10, "velocity": 106}, {"time": 155520, "pitch": 42, "duration": 10, "velocity": 106}, {"time": 155760, "pitch": 36, "duration": 10, "velocity": 92}, {"time": 155760, "pitch": 42, "duration": 10, "velocity": 78}, {"time": 156000, "pitch": 40, "duration": 10, "velocity": 106}, {"time": 156000, "pitch": 42, "duration": 10, "velocity": 106}, {"time": 156140, "pitch": 36, "duration": 10, "velocity": 92}, {"time": 156240, "pitch": 42, "duration": 10, "velocity": 78}, {"time": 156380, "pitch": 38, "duration": 10, "velocity": 78}, {"time": 156480, "pitch": 42, "duration": 10, "velocity": 106}, {"time": 156620, "pitch": 38, "duration": 10, "velocity": 78}, {"time": 156720, "pitch": 36, "duration": 10, "velocity": 106}, {"time": 156720, "pitch": 42, "duration": 10, "velocity": 78}, {"time": 156960, "pitch": 40, "duration": 10, "velocity": 106}, {"time": 156960, "pitch": 42, "duration": 10, "velocity": 106}, {"time": 157100, "pitch": 36, "duration": 10, "velocity": 92}, {"time": 157200, "pitch": 42, "duration": 10, "velocity": 78}, {"time": 157340, "pitch": 38, "duration": 10, "velocity": 78}, {"time": 157440, "pitch": 36, "duration": 10, "velocity": 106}, {"time": 157440, "pitch": 49, "duration": 10, "velocity": 92}, {"time": 157680, "pitch": 36, "duration": 10, "velocity": 92}, {"time": 157680, "pitch": 42, "duration": 10, "velocity": 78}, {"time": 157920, "pitch": 40, "duration": 10, "velocity": 106}, {"time": 157920, "pitch": 42, "duration": 10, "velocity": 106}, {"time": 158060, "pitch": 36, "duration": 10, "velocity": 92}, {"time": 158160, "pitch": 42, "duration": 10, "velocity": 78}, {"time": 158300, "pitch": 38, "duration": 10, "velocity": 78}, {"time": 158400, "pitch": 42, "duration": 10, "velocity": 106}, {"time": 158540, "pitch": 38, "duration": 10, "velocity": 78}, {"time": 158640, "pitch": 36, "duration": 10, "velocity": 106}, {"time": 158640, "pitch": 42, "duration": 10, "velocity": 78}, {"time": 158880, "pitch": 40, "duration": 10, "velocity": 106}, {"time": 158880, "pitch": 42, "duration": 10, "velocity": 106}, {"time": 159020, "pitch": 36, "duration": 10, "velocity": 92}, {"time": 159120, "pitch": 42, "duration": 10, "velocity": 78}, {"time": 159260, "pitch": 38, "duration": 10, "velocity": 78}, {"time": 159360, "pitch": 36, "duration": 10, "velocity": 106}, {"time": 159360, "pitch": 42, "duration": 10, "velocity": 106}, {"time": 159600, "pitch": 36, "duration": 10, "velocity": 92}, {"time": 159600, "pitch": 42, "duration": 10, "velocity": 78}, {"time": 159840, "pitch": 40, "duration": 10, "velocity": 106}, {"time": 159840, "pitch": 42, "duration": 10, "velocity": 106}, {"time": 159980, "pitch": 36, "duration": 10, "velocity": 92}, {"time": 160080, "pitch": 42, "duration": 10, "velocity": 78}, {"time": 160220, "pitch": 38, "duration": 10, "velocity": 78}, {"time": 160320, "pitch": 42, "duration": 10, "velocity": 106}, {"time": 160460, "pitch": 38, "duration": 10, "velocity": 78}, {"time": 160560, "pitch": 36, "duration": 10, "velocity": 106}, {"time": 160560, "pitch": 42, "duration": 10, "velocity": 78}, {"time": 160800, "pitch": 40, "duration": 10, "velocity": 106}, {"time": 160800, "pitch": 42, "duration": 10, "velocity": 106}, {"time": 160940, "pitch": 36, "duration": 10, "velocity": 92}, {"time": 161040, "pitch": 42, "duration": 10, "velocity": 78}, {"time": 161180, "pitch": 38, "duration": 10, "velocity": 78}, {"time": 161280, "pitch": 36, "duration": 10, "velocity": 106}, {"time": 161280, "pitch": 42, "duration": 10, "velocity": 106}, {"time": 161520, "pitch": 36, "duration": 10, "velocity": 92}, {"time": 161520, "pitch": 42, "duration": 10, "velocity": 78}, {"time": 161760, "pitch": 40, "duration": 10, "velocity": 106}, {"time": 161760, "pitch": 42, "duration": 10, "velocity": 106}, {"time": 161900, "pitch": 36, "duration": 10, "velocity": 92}, {"time": 162000, "pitch": 42, "duration": 10, "velocity": 78}, {"time": 162140, "pitch": 38, "duration": 10, "velocity": 78}, {"time": 162240, "pitch": 42, "duration": 10, "velocity": 106}, {"time": 162380, "pitch": 38, "duration": 10, "velocity": 78}, {"time": 162480, "pitch": 36, "duration": 10, "velocity": 106}, {"time": 162480, "pitch": 42, "duration": 10, "velocity": 78}, {"time": 162720, "pitch": 40, "duration": 10, "velocity": 106}, {"time": 162720, "pitch": 42, "duration": 10, "velocity": 106}, {"time": 162860, "pitch": 36, "duration": 10, "velocity": 92}, {"time": 162960, "pitch": 42, "duration": 10, "velocity": 78}, {"time": 163100, "pitch": 38, "duration": 10, "velocity": 78}, {"time": 163200, "pitch": 36, "duration": 10, "velocity": 106}, {"time": 163200, "pitch": 42, "duration": 10, "velocity": 106}, {"time": 163440, "pitch": 36, "duration": 10, "velocity": 92}, {"time": 163440, "pitch": 42, "duration": 10, "velocity": 78}, {"time": 163680, "pitch": 40, "duration": 10, "velocity": 106}, {"time": 163680, "pitch": 42, "duration": 10, "velocity": 106}, {"time": 163820, "pitch": 36, "duration": 10, "velocity": 92}, {"time": 163920, "pitch": 42, "duration": 10, "velocity": 78}, {"time": 164060, "pitch": 38, "duration": 10, "velocity": 78}, {"time": 164160, "pitch": 42, "duration": 10, "velocity": 106}, {"time": 164300, "pitch": 38, "duration": 10, "velocity": 78}, {"time": 164400, "pitch": 36, "duration": 10, "velocity": 106}, {"time": 164400, "pitch": 42, "duration": 10, "velocity": 78}, {"time": 164640, "pitch": 40, "duration": 10, "velocity": 106}, {"time": 164640, "pitch": 42, "duration": 10, "velocity": 106}, {"time": 164780, "pitch": 36, "duration": 10, "velocity": 92}, {"time": 164880, "pitch": 42, "duration": 10, "velocity": 78}, {"time": 165020, "pitch": 38, "duration": 10, "velocity": 78}, {"time": 165120, "pitch": 36, "duration": 10, "velocity": 106}, {"time": 165120, "pitch": 42, "duration": 10, "velocity": 106}, {"time": 165360, "pitch": 36, "duration": 10, "velocity": 92}, {"time": 165360, "pitch": 42, "duration": 10, "velocity": 78}, {"time": 165600, "pitch": 40, "duration": 10, "velocity": 106}, {"time": 165600, "pitch": 42, "duration": 10, "velocity": 106}, {"time": 165740, "pitch": 36, "duration": 10, "velocity": 92}, {"time": 165840, "pitch": 42, "duration": 10, "velocity": 78}, {"time": 165980, "pitch": 38, "duration": 10, "velocity": 78}, {"time": 166080, "pitch": 42, "duration": 10, "velocity": 106}, {"time": 166220, "pitch": 38, "duration": 10, "velocity": 78}, {"time": 166320, "pitch": 36, "duration": 10, "velocity": 106}, {"time": 166320, "pitch": 42, "duration": 10, "velocity": 78}, {"time": 166560, "pitch": 40, "duration": 10, "velocity": 106}, {"time": 166560, "pitch": 42, "duration": 10, "velocity": 106}, {"time": 166700, "pitch": 36, "duration": 10, "velocity": 92}, {"time": 166800, "pitch": 42, "duration": 10, "velocity": 78}, {"time": 166940, "pitch": 38, "duration": 10, "velocity": 78}, {"time": 167040, "pitch": 36, "duration": 10, "velocity": 106}, {"time": 167040, "pitch": 42, "duration": 10, "velocity": 106}, {"time": 167280, "pitch": 36, "duration": 10, "velocity": 92}, {"time": 167280, "pitch": 42, "duration": 10, "velocity": 78}, {"time": 167520, "pitch": 40, "duration": 10, "velocity": 106}, {"time": 167520, "pitch": 42, "duration": 10, "velocity": 106}, {"time": 167660, "pitch": 36, "duration": 10, "velocity": 92}, {"time": 167760, "pitch": 42, "duration": 10, "velocity": 78}, {"time": 167900, "pitch": 38, "duration": 10, "velocity": 78}, {"time": 168000, "pitch": 42, "duration": 10, "velocity": 106}, {"time": 168140, "pitch": 38, "duration": 10, "velocity": 78}, {"time": 168240, "pitch": 36, "duration": 10, "velocity": 106}, {"time": 168240, "pitch": 42, "duration": 10, "velocity": 78}, {"time": 168480, "pitch": 40, "duration": 10, "velocity": 106}, {"time": 168480, "pitch": 42, "duration": 10, "velocity": 106}, {"time": 168620, "pitch": 36, "duration": 10, "velocity": 92}, {"time": 168720, "pitch": 42, "duration": 10, "velocity": 78}, {"time": 168860, "pitch": 38, "duration": 10, "velocity": 78}, {"time": 168960, "pitch": 36, "duration": 10, "velocity": 106}, {"time": 168960, "pitch": 42, "duration": 10, "velocity": 106}, {"time": 169200, "pitch": 36, "duration": 10, "velocity": 92}, {"time": 169200, "pitch": 42, "duration": 10, "velocity": 78}, {"time": 169440, "pitch": 40, "duration": 10, "velocity": 106}, {"time": 169440, "pitch": 42, "duration": 10, "velocity": 106}, {"time": 169580, "pitch": 36, "duration": 10, "velocity": 92}, {"time": 169680, "pitch": 42, "duration": 10, "velocity": 78}, {"time": 169820, "pitch": 38, "duration": 10, "velocity": 78}, {"time": 169920, "pitch": 42, "duration": 10, "velocity": 106}, {"time": 170060, "pitch": 38, "duration": 10, "velocity": 78}, {"time": 170160, "pitch": 36, "duration": 10, "velocity": 106}, {"time": 170160, "pitch": 42, "duration": 10, "velocity": 78}, {"time": 170400, "pitch": 40, "duration": 10, "velocity": 106}, {"time": 170400, "pitch": 42, "duration": 10, "velocity": 106}, {"time": 170540, "pitch": 36, "duration": 10, "velocity": 92}, {"time": 170640, "pitch": 42, "duration": 10, "velocity": 78}, {"time": 170780, "pitch": 38, "duration": 10, "velocity": 78}, {"time": 170860, "pitch": 40, "duration": 10, "velocity": 92}, {"time": 170880, "pitch": 36, "duration": 10, "velocity": 106}, {"time": 170880, "pitch": 40, "duration": 10, "velocity": 106}, {"time": 171120, "pitch": 45, "duration": 10, "velocity": 120}, {"time": 171340, "pitch": 40, "duration": 10, "velocity": 92}, {"time": 171360, "pitch": 40, "duration": 10, "velocity": 106}, {"time": 171500, "pitch": 40, "duration": 10, "velocity": 92}, {"time": 171740, "pitch": 41, "duration": 10, "velocity": 106}, {"time": 171840, "pitch": 36, "duration": 10, "velocity": 106}, {"time": 171840, "pitch": 57, "duration": 10, "velocity": 92}, {"time": 172800, "pitch": 36, "duration": 10, "velocity": 106}, {"time": 172800, "pitch": 49, "duration": 10, "velocity": 92}, {"time": 173040, "pitch": 51, "duration": 10, "velocity": 78}, {"time": 173280, "pitch": 51, "duration": 10, "velocity": 92}, {"time": 173520, "pitch": 36, "duration": 10, "velocity": 92}, {"time": 173520, "pitch": 51, "duration": 10, "velocity": 78}, {"time": 173760, "pitch": 36, "duration": 10, "velocity": 106}, {"time": 173760, "pitch": 51, "duration": 10, "velocity": 92}, {"time": 174000, "pitch": 51, "duration": 10, "velocity": 78}, {"time": 174240, "pitch": 40, "duration": 10, "velocity": 106}, {"time": 174240, "pitch": 51, "duration": 10, "velocity": 92}, {"time": 174480, "pitch": 51, "duration": 10, "velocity": 78}, {"time": 174720, "pitch": 36, "duration": 10, "velocity": 106}, {"time": 174720, "pitch": 51, "duration": 10, "velocity": 92}, {"time": 174960, "pitch": 51, "duration": 10, "velocity": 78}, {"time": 175200, "pitch": 51, "duration": 10, "velocity": 92}, {"time": 175440, "pitch": 36, "duration": 10, "velocity": 92}, {"time": 175440, "pitch": 51, "duration": 10, "velocity": 78}, {"time": 175680, "pitch": 36, "duration": 10, "velocity": 106}, {"time": 175680, "pitch": 51, "duration": 10, "velocity": 92}, {"time": 175920, "pitch": 51, "duration": 10, "velocity": 78}, {"time": 176160, "pitch": 40, "duration": 10, "velocity": 106}, {"time": 176160, "pitch": 51, "duration": 10, "velocity": 92}, {"time": 176400, "pitch": 51, "duration": 10, "velocity": 78}, {"time": 176640, "pitch": 36, "duration": 10, "velocity": 106}, {"time": 176640, "pitch": 51, "duration": 10, "velocity": 92}, {"time": 176880, "pitch": 51, "duration": 10, "velocity": 78}, {"time": 177120, "pitch": 51, "duration": 10, "velocity": 92}, {"time": 177360, "pitch": 36, "duration": 10, "velocity": 92}, {"time": 177360, "pitch": 51, "duration": 10, "velocity": 78}, {"time": 177600, "pitch": 36, "duration": 10, "velocity": 106}, {"time": 177600, "pitch": 51, "duration": 10, "velocity": 92}, {"time": 177840, "pitch": 51, "duration": 10, "velocity": 78}, {"time": 178080, "pitch": 40, "duration": 10, "velocity": 106}, {"time": 178080, "pitch": 57, "duration": 10, "velocity": 78}, {"time": 178320, "pitch": 51, "duration": 10, "velocity": 78}, {"time": 178560, "pitch": 36, "duration": 10, "velocity": 106}, {"time": 178560, "pitch": 57, "duration": 10, "velocity": 78}, {"time": 178800, "pitch": 51, "duration": 10, "velocity": 78}, {"time": 179040, "pitch": 51, "duration": 10, "velocity": 92}, {"time": 179280, "pitch": 36, "duration": 10, "velocity": 92}, {"time": 179280, "pitch": 51, "duration": 10, "velocity": 78}, {"time": 179520, "pitch": 36, "duration": 10, "velocity": 106}, {"time": 179520, "pitch": 51, "duration": 10, "velocity": 92}, {"time": 179760, "pitch": 48, "duration": 10, "velocity": 120}, {"time": 179900, "pitch": 48, "duration": 10, "velocity": 106}, {"time": 180000, "pitch": 45, "duration": 10, "velocity": 120}, {"time": 180240, "pitch": 41, "duration": 10, "velocity": 120}, {"time": 180480, "pitch": 36, "duration": 10, "velocity": 106}, {"time": 180480, "pitch": 49, "duration": 10, "velocity": 78}, {"time": 180720, "pitch": 51, "duration": 10, "velocity": 78}, {"time": 180960, "pitch": 40, "duration": 10, "velocity": 106}, {"time": 180960, "pitch": 51, "duration": 10, "velocity": 92}, {"time": 181200, "pitch": 36, "duration": 10, "velocity": 92}, {"time": 181200, "pitch": 51, "duration": 10, "velocity": 78}, {"time": 181440, "pitch": 36, "duration": 10, "velocity": 106}, {"time": 181440, "pitch": 51, "duration": 10, "velocity": 92}, {"time": 181680, "pitch": 51, "duration": 10, "velocity": 78}, {"time": 181920, "pitch": 40, "duration": 10, "velocity": 106}, {"time": 181920, "pitch": 51, "duration": 10, "velocity": 92}, {"time": 182160, "pitch": 51, "duration": 10, "velocity": 78}, {"time": 182400, "pitch": 36, "duration": 10, "velocity": 106}, {"time": 182400, "pitch": 51, "duration": 10, "velocity": 92}, {"time": 182640, "pitch": 51, "duration": 10, "velocity": 78}, {"time": 182880, "pitch": 40, "duration": 10, "velocity": 106}, {"time": 182880, "pitch": 51, "duration": 10, "velocity": 92}, {"time": 183120, "pitch": 36, "duration": 10, "velocity": 92}, {"time": 183120, "pitch": 51, "duration": 10, "velocity": 78}, {"time": 183360, "pitch": 36, "duration": 10, "velocity": 106}, {"time": 183360, "pitch": 51, "duration": 10, "velocity": 92}, {"time": 183600, "pitch": 51, "duration": 10, "velocity": 78}, {"time": 183840, "pitch": 40, "duration": 10, "velocity": 106}, {"time": 183840, "pitch": 51, "duration": 10, "velocity": 92}, {"time": 184080, "pitch": 51, "duration": 10, "velocity": 78}, {"time": 184320, "pitch": 36, "duration": 10, "velocity": 106}, {"time": 184320, "pitch": 51, "duration": 10, "velocity": 92}, {"time": 184563, "pitch": 51, "duration": 10, "velocity": 78}, {"time": 184815, "pitch": 40, "duration": 24, "velocity": 106}, {"time": 184815, "pitch": 49, "duration": 24, "velocity": 92}, {"time": 185370, "pitch": 40, "duration": 4, "velocity": 92}, {"time": 185374, "pitch": 40, "duration": 5, "velocity": 106}, {"time": 185471, "pitch": 48, "duration": 6, "velocity": 92}, {"time": 185477, "pitch": 48, "duration": 6, "velocity": 106}, {"time": 185595, "pitch": 45, "duration": 7, "velocity": 106}, {"time": 185687, "pitch": 45, "duration": 8, "velocity": 92}, {"time": 185806, "pitch": 41, "duration": 18, "velocity": 106}, {"time": 186244, "pitch": 36, "duration": 7, "velocity": 106}, {"time": 186244, "pitch": 49, "duration": 7, "velocity": 92}, {"time": 32640, "pitch": 71, "duration": 1900, "velocity": 110}, {"time": 32660, "pitch": 64, "duration": 1880, "velocity": 108}, {"time": 32680, "pitch": 60, "duration": 1860, "velocity": 106}, {"time": 32700, "pitch": 57, "duration": 1840, "velocity": 104}, {"time": 32720, "pitch": 52, "duration": 1820, "velocity": 102}, {"time": 32740, "pitch": 45, "duration": 1800, "velocity": 100}, {"time": 36480, "pitch": 69, "duration": 1900, "velocity": 110}, {"time": 36500, "pitch": 62, "duration": 1880, "velocity": 108}, {"time": 36520, "pitch": 58, "duration": 1860, "velocity": 106}, {"time": 36540, "pitch": 55, "duration": 1840, "velocity": 104}, {"time": 36560, "pitch": 50, "duration": 1820, "velocity": 102}, {"time": 36580, "pitch": 43, "duration": 1800, "velocity": 100}, {"time": 40320, "pitch": 69, "duration": 1900, "velocity": 110}, {"time": 40340, "pitch": 64, "duration": 1880, "velocity": 108}, {"time": 40360, "pitch": 60, "duration": 1860, "velocity": 106}, {"time": 40380, "pitch": 57, "duration": 1840, "velocity": 104}, {"time": 40400, "pitch": 53, "duration": 1820, "velocity": 102}, {"time": 40420, "pitch": 48, "duration": 1800, "velocity": 100}, {"time": 44160, "pitch": 69, "duration": 1900, "velocity": 110}, {"time": 44180, "pitch": 65, "duration": 1880, "velocity": 108}, {"time": 44200, "pitch": 60, "duration": 1860, "velocity": 106}, {"time": 44220, "pitch": 57, "duration": 1840, "velocity": 104}, {"time": 44240, "pitch": 53, "duration": 1820, "velocity": 102}, {"time": 44260, "pitch": 50, "duration": 1800, "velocity": 100}, {"time": 48000, "pitch": 71, "duration": 1900, "velocity": 110}, {"time": 48020, "pitch": 64, "duration": 1880, "velocity": 108}, {"time": 48040, "pitch": 60, "duration": 1860, "velocity": 106}, {"time": 48060, "pitch": 57, "duration": 1840, "velocity": 104}, {"time": 48080, "pitch": 52, "duration": 1820, "velocity": 102}, {"time": 48100, "pitch": 45, "duration": 1800, "velocity": 100}, {"time": 51840, "pitch": 69, "duration": 1900, "velocity": 110}, {"time": 51860, "pitch": 62, "duration": 1880, "velocity": 108}, {"time": 51880, "pitch": 58, "duration": 1860, "velocity": 106}, {"time": 51900, "pitch": 55, "duration": 1840, "velocity": 104}, {"time": 51920, "pitch": 50, "duration": 1820, "velocity": 102}, {"time": 51940, "pitch": 43, "duration": 1800, "velocity": 100}, {"time": 55680, "pitch": 69, "duration": 1900, "velocity": 110}, {"time": 55700, "pitch": 64, "duration": 1880, "velocity": 108}, {"time": 55720, "pitch": 60, "duration": 1860, "velocity": 106}, {"time": 55740, "pitch": 57, "duration": 1840, "velocity": 104}, {"time": 55760, "pitch": 53, "duration": 1820, "velocity": 102}, {"time": 55780, "pitch": 48, "duration": 1800, "velocity": 100}, {"time": 59520, "pitch": 69, "duration": 1900, "velocity": 110}, {"time": 59540, "pitch": 65, "duration": 1880, "velocity": 108}, {"time": 59560, "pitch": 60, "duration": 1860, "velocity": 106}, {"time": 59580, "pitch": 57, "duration": 1840, "velocity": 104}, {"time": 59600, "pitch": 53, "duration": 1820, "velocity": 102}, {"time": 59620, "pitch": 50, "duration": 1800, "velocity": 100}, {"time": 77040, "pitch": 53, "duration": 240, "velocity": 110}, {"time": 77280, "pitch": 55, "duration": 240, "velocity": 115}, {"time": 77520, "pitch": 57, "duration": 240, "velocity": 110}, {"time": 77760, "pitch": 59, "duration": 240, "velocity": 115}, {"time": 78000, "pitch": 60, "duration": 240, "velocity": 110}, {"time": 78240, "pitch": 62, "duration": 240, "velocity": 115}, {"time": 78480, "pitch": 65, "duration": 240, "velocity": 110}, {"time": 78720, "pitch": 64, "duration": 960, "velocity": 110}, {"time": 91200, "pitch": 69, "duration": 240, "velocity": 110}, {"time": 91440, "pitch": 67, "duration": 240, "velocity": 105}, {"time": 91680, "pitch": 65, "duration": 240, "velocity": 110}, {"time": 91920, "pitch": 64, "duration": 240, "velocity": 105}, {"time": 92160, "pitch": 62, "duration": 240, "velocity": 110}, {"time": 92400, "pitch": 60, "duration": 240, "velocity": 105}, {"time": 92640, "pitch": 56, "duration": 240, "velocity": 110}, {"time": 92880, "pitch": 55, "duration": 240, "velocity": 105}, {"time": 93120, "pitch": 53, "duration": 960, "velocity": 100}, {"time": 111360, "pitch": 71, "duration": 1900, "velocity": 110}, {"time": 111380, "pitch": 64, "duration": 1880, "velocity": 108}, {"time": 111400, "pitch": 60, "duration": 1860, "velocity": 106}, {"time": 111420, "pitch": 57, "duration": 1840, "velocity": 104}, {"time": 111440, "pitch": 52, "duration": 1820, "velocity": 102}, {"time": 111460, "pitch": 45, "duration": 1800, "velocity": 100}, {"time": 115200, "pitch": 69, "duration": 1900, "velocity": 110}, {"time": 115220, "pitch": 62, "duration": 1880, "velocity": 108}, {"time": 115240, "pitch": 58, "duration": 1860, "velocity": 106}, {"time": 115260, "pitch": 55, "duration": 1840, "velocity": 104}, {"time": 115280, "pitch": 50, "duration": 1820, "velocity": 102}, {"time": 115300, "pitch": 43, "duration": 1800, "velocity": 100}, {"time": 119040, "pitch": 69, "duration": 1900, "velocity": 110}, {"time": 119060, "pitch": 64, "duration": 1880, "velocity": 108}, {"time": 119080, "pitch": 60, "duration": 1860, "velocity": 106}, {"time": 119100, "pitch": 57, "duration": 1840, "velocity": 104}, {"time": 119120, "pitch": 53, "duration": 1820, "velocity": 102}, {"time": 119140, "pitch": 48, "duration": 1800, "velocity": 100}, {"time": 122880, "pitch": 69, "duration": 1900, "velocity": 110}, {"time": 122900, "pitch": 65, "duration": 1880, "velocity": 108}, {"time": 122920, "pitch": 60, "duration": 1860, "velocity": 106}, {"time": 122940, "pitch": 57, "duration": 1840, "velocity": 104}, {"time": 122960, "pitch": 53, "duration": 1820, "velocity": 102}, {"time": 122980, "pitch": 50, "duration": 1800, "velocity": 100}, {"time": 126720, "pitch": 71, "duration": 1900, "velocity": 110}, {"time": 126740, "pitch": 64, "duration": 1880, "velocity": 108}, {"time": 126760, "pitch": 60, "duration": 1860, "velocity": 106}, {"time": 126780, "pitch": 57, "duration": 1840, "velocity": 104}, {"time": 126800, "pitch": 52, "duration": 1820, "velocity": 102}, {"time": 126820, "pitch": 45, "duration": 1800, "velocity": 100}, {"time": 130560, "pitch": 69, "duration": 1900, "velocity": 110}, {"time": 130580, "pitch": 62, "duration": 1880, "velocity": 108}, {"time": 130600, "pitch": 58, "duration": 1860, "velocity": 106}, {"time": 130620, "pitch": 55, "duration": 1840, "velocity": 104}, {"time": 130640, "pitch": 50, "duration": 1820, "velocity": 102}, {"time": 130660, "pitch": 43, "duration": 1800, "velocity": 100}, {"time": 134400, "pitch": 69, "duration": 1900, "velocity": 110}, {"time": 134420, "pitch": 64, "duration": 1880, "velocity": 108}, {"time": 134440, "pitch": 60, "duration": 1860, "velocity": 106}, {"time": 134460, "pitch": 57, "duration": 1840, "velocity": 104}, {"time": 134480, "pitch": 53, "duration": 1820, "velocity": 102}, {"time": 134500, "pitch": 48, "duration": 1800, "velocity": 100}, {"time": 138240, "pitch": 69, "duration": 1900, "velocity": 110}, {"time": 138260, "pitch": 65, "duration": 1880, "velocity": 108}, {"time": 138280, "pitch": 60, "duration": 1860, "velocity": 106}, {"time": 138300, "pitch": 57, "duration": 1840, "velocity": 104}, {"time": 138320, "pitch": 53, "duration": 1820, "velocity": 102}, {"time": 138340, "pitch": 50, "duration": 1800, "velocity": 100}, {"time": 155760, "pitch": 53, "duration": 240, "velocity": 110}, {"time": 156000, "pitch": 55, "duration": 240, "velocity": 115}, {"time": 156240, "pitch": 57, "duration": 240, "velocity": 110}, {"time": 156480, "pitch": 59, "duration": 240, "velocity": 115}, {"time": 156720, "pitch": 60, "duration": 240, "velocity": 110}, {"time": 156960, "pitch": 62, "duration": 240, "velocity": 115}, {"time": 157200, "pitch": 65, "duration": 240, "velocity": 110}, {"time": 157440, "pitch": 64, "duration": 720, "velocity": 110}, {"time": 158160, "pitch": 55, "duration": 720, "velocity": 110}, {"time": 158880, "pitch": 60, "duration": 480, "velocity": 110}, {"time": 159360, "pitch": 62, "duration": 720, "velocity": 110}, {"time": 160080, "pitch": 55, "duration": 720, "velocity": 110}, {"time": 160800, "pitch": 59, "duration": 480, "velocity": 110}, {"time": 161280, "pitch": 62, "duration": 720, "velocity": 110}, {"time": 162000, "pitch": 55, "duration": 720, "velocity": 110}, {"time": 162720, "pitch": 58, "duration": 480, "velocity": 110}, {"time": 163200, "pitch": 64, "duration": 720, "velocity": 110}, {"time": 163920, "pitch": 52, "duration": 720, "velocity": 110}, {"time": 164640, "pitch": 57, "duration": 480, "velocity": 110}, {"time": 165120, "pitch": 60, "duration": 720, "velocity": 110}, {"time": 165840, "pitch": 53, "duration": 720, "velocity": 110}, {"time": 166560, "pitch": 56, "duration": 480, "velocity": 110}, {"time": 167040, "pitch": 60, "duration": 720, "velocity": 110}, {"time": 167760, "pitch": 52, "duration": 720, "velocity": 110}, {"time": 168480, "pitch": 55, "duration": 480, "velocity": 110}, {"time": 168960, "pitch": 57, "duration": 720, "velocity": 110}, {"time": 169680, "pitch": 62, "duration": 720, "velocity": 110}, {"time": 170400, "pitch": 65, "duration": 480, "velocity": 110}, {"time": 170880, "pitch": 69, "duration": 240, "velocity": 110}, {"time": 171120, "pitch": 67, "duration": 240, "velocity": 105}, {"time": 171360, "pitch": 65, "duration": 240, "velocity": 110}, {"time": 171600, "pitch": 64, "duration": 240, "velocity": 105}, {"time": 171840, "pitch": 62, "duration": 940, "velocity": 110}, {"time": 172800, "pitch": 69, "duration": 1900, "velocity": 110}, {"time": 172820, "pitch": 65, "duration": 1880, "velocity": 108}, {"time": 172840, "pitch": 60, "duration": 1860, "velocity": 106}, {"time": 172860, "pitch": 57, "duration": 1840, "velocity": 104}, {"time": 172880, "pitch": 53, "duration": 1820, "velocity": 102}, {"time": 172900, "pitch": 50, "duration": 1800, "velocity": 100}, {"time": 176640, "pitch": 67, "duration": 1420, "velocity": 110}, {"time": 176660, "pitch": 64, "duration": 1400, "velocity": 108}, {"time": 176680, "pitch": 60, "duration": 1380, "velocity": 106}, {"time": 176700, "pitch": 55, "duration": 1360, "velocity": 104}, {"time": 176720, "pitch": 52, "duration": 1340, "velocity": 102}, {"time": 176740, "pitch": 48, "duration": 1320, "velocity": 100}, {"time": 178080, "pitch": 41, "duration": 220, "velocity": 85}, {"time": 178080, "pitch": 48, "duration": 220, "velocity": 90}, {"time": 178090, "pitch": 53, "duration": 210, "velocity": 95}, {"time": 178090, "pitch": 57, "duration": 210, "velocity": 100}, {"time": 178100, "pitch": 60, "duration": 200, "velocity": 105}, {"time": 178100, "pitch": 65, "duration": 200, "velocity": 110}, {"time": 178560, "pitch": 43, "duration": 1900, "velocity": 85}, {"time": 178560, "pitch": 48, "duration": 1900, "velocity": 90}, {"time": 178570, "pitch": 52, "duration": 1890, "velocity": 95}, {"time": 178570, "pitch": 55, "duration": 1890, "velocity": 100}, {"time": 178580, "pitch": 60, "duration": 1880, "velocity": 105}, {"time": 178580, "pitch": 64, "duration": 1880, "velocity": 110}, {"time": 180480, "pitch": 53, "duration": 940, "velocity": 110}, {"time": 181440, "pitch": 55, "duration": 940, "velocity": 110}, {"time": 182400, "pitch": 57, "duration": 1900, "velocity": 110}, {"time": 184320, "pitch": 53, "duration": 1887, "velocity": 110}, {"time": 186244, "pitch": 52, "duration": 2872, "velocity": 110}, {"time": 63120, "pitch": 64, "duration": 240, "velocity": 90}, {"time": 63360, "pitch": 76, "duration": 480, "velocity": 90}, {"time": 63840, "pitch": 76, "duration": 240, "velocity": 90}, {"time": 64080, "pitch": 74, "duration": 480, "velocity": 90}, {"time": 64560, "pitch": 72, "duration": 480, "velocity": 90}, {"time": 65040, "pitch": 71, "duration": 480, "velocity": 90}, {"time": 65520, "pitch": 69, "duration": 480, "velocity": 90}, {"time": 66000, "pitch": 71, "duration": 480, "velocity": 90}, {"time": 66480, "pitch": 72, "duration": 480, "velocity": 90}, {"time": 66960, "pitch": 64, "duration": 240, "velocity": 90}, {"time": 67200, "pitch": 76, "duration": 480, "velocity": 90}, {"time": 67680, "pitch": 76, "duration": 240, "velocity": 90}, {"time": 67920, "pitch": 74, "duration": 480, "velocity": 90}, {"time": 68400, "pitch": 72, "duration": 480, "velocity": 90}, {"time": 68880, "pitch": 70, "duration": 480, "velocity": 90}, {"time": 69360, "pitch": 69, "duration": 480, "velocity": 90}, {"time": 69840, "pitch": 71, "duration": 480, "velocity": 90}, {"time": 70320, "pitch": 73, "duration": 480, "velocity": 90}, {"time": 70800, "pitch": 71, "duration": 240, "velocity": 90}, {"time": 71040, "pitch": 68, "duration": 480, "velocity": 90}, {"time": 78720, "pitch": 76, "duration": 480, "velocity": 90}, {"time": 79200, "pitch": 76, "duration": 240, "velocity": 90}, {"time": 79440, "pitch": 74, "duration": 480, "velocity": 90}, {"time": 79920, "pitch": 72, "duration": 480, "velocity": 90}, {"time": 80400, "pitch": 71, "duration": 480, "velocity": 90}, {"time": 80880, "pitch": 69, "duration": 480, "velocity": 90}, {"time": 81360, "pitch": 71, "duration": 480, "velocity": 90}, {"time": 81840, "pitch": 72, "duration": 480, "velocity": 90}, {"time": 82560, "pitch": 76, "duration": 480, "velocity": 90}, {"time": 83040, "pitch": 76, "duration": 240, "velocity": 90}, {"time": 83280, "pitch": 74, "duration": 480, "velocity": 90}, {"time": 83760, "pitch": 72, "duration": 480, "velocity": 90}, {"time": 84240, "pitch": 70, "duration": 480, "velocity": 90}, {"time": 84720, "pitch": 69, "duration": 480, "velocity": 90}, {"time": 85200, "pitch": 71, "duration": 480, "velocity": 90}, {"time": 85680, "pitch": 73, "duration": 480, "velocity": 90}, {"time": 86160, "pitch": 71, "duration": 240, "velocity": 90}, {"time": 86400, "pitch": 68, "duration": 480, "velocity": 90}, {"time": 141840, "pitch": 64, "duration": 240, "velocity": 90}, {"time": 142080, "pitch": 76, "duration": 480, "velocity": 90}, {"time": 142560, "pitch": 76, "duration": 240, "velocity": 90}, {"time": 142800, "pitch": 74, "duration": 480, "velocity": 90}, {"time": 143280, "pitch": 72, "duration": 480, "velocity": 90}, {"time": 143760, "pitch": 71, "duration": 480, "velocity": 90}, {"time": 144240, "pitch": 69, "duration": 480, "velocity": 90}, {"time": 144720, "pitch": 71, "duration": 480, "velocity": 90}, {"time": 145200, "pitch": 72, "duration": 480, "velocity": 90}, {"time": 145680, "pitch": 64, "duration": 240, "velocity": 90}, {"time": 145920, "pitch": 76, "duration": 480, "velocity": 90}, {"time": 146400, "pitch": 76, "duration": 240, "velocity": 90}, {"time": 146640, "pitch": 74, "duration": 480, "velocity": 90}, {"time": 147120, "pitch": 72, "duration": 480, "velocity": 90}, {"time": 147600, "pitch": 70, "duration": 480, "velocity": 90}, {"time": 148080, "pitch": 69, "duration": 480, "velocity": 90}, {"time": 148560, "pitch": 71, "duration": 480, "velocity": 90}, {"time": 149040, "pitch": 73, "duration": 480, "velocity": 90}, {"time": 149520, "pitch": 71, "duration": 240, "velocity": 90}, {"time": 149760, "pitch": 68, "duration": 480, "velocity": 90}, {"time": 157200, "pitch": 64, "duration": 240, "velocity": 90}, {"time": 157440, "pitch": 76, "duration": 480, "velocity": 90}, {"time": 157920, "pitch": 76, "duration": 240, "velocity": 90}, {"time": 158160, "pitch": 74, "duration": 480, "velocity": 90}, {"time": 158640, "pitch": 72, "duration": 480, "velocity": 90}, {"time": 159120, "pitch": 71, "duration": 480, "velocity": 90}, {"time": 159600, "pitch": 69, "duration": 480, "velocity": 90}, {"time": 160080, "pitch": 71, "duration": 480, "velocity": 90}, {"time": 160560, "pitch": 72, "duration": 480, "velocity": 90}, {"time": 161040, "pitch": 64, "duration": 240, "velocity": 90}, {"time": 161280, "pitch": 76, "duration": 480, "velocity": 90}, {"time": 161760, "pitch": 76, "duration": 240, "velocity": 90}, {"time": 162000, "pitch": 74, "duration": 480, "velocity": 90}, {"time": 162480, "pitch": 72, "duration": 480, "velocity": 90}, {"time": 162960, "pitch": 70, "duration": 480, "velocity": 90}, {"time": 163440, "pitch": 69, "duration": 480, "velocity": 90}, {"time": 163920, "pitch": 71, "duration": 480, "velocity": 90}, {"time": 164400, "pitch": 73, "duration": 480, "velocity": 90}, {"time": 164880, "pitch": 71, "duration": 240, "velocity": 90}, {"time": 165120, "pitch": 68, "duration": 480, "velocity": 90}, {"time": 168240, "pitch": 69, "duration": 480, "velocity": 90}, {"time": 168720, "pitch": 71, "duration": 240, "velocity": 90}, {"time": 168960, "pitch": 72, "duration": 240, "velocity": 90}, {"time": 169200, "pitch": 71, "duration": 240, "velocity": 90}, {"time": 169440, "pitch": 69, "duration": 240, "velocity": 90}, {"time": 169680, "pitch": 67, "duration": 120, "velocity": 90}, {"time": 169800, "pitch": 69, "duration": 720, "velocity": 90}]}]}