{"metadata": {"schema_version": "0.1", "title": "RWC-MDB-P-2001 No. 72: Heart to Hurt / Kousuke Morimoto", "copyright": "RWC Music Database. Copyright (C) 2001 Real World Computing Partnership (contact: Masataka GOTO <m.goto@aist.go.jp>)", "source_filename": "RM-P072.SMF_SYNC.MID", "source_format": "midi"}, "resolution": 480, "tempos": [{"time": 0, "qpm": 60.0}, {"time": 480, "qpm": 82.1917808219178}, {"time": 2880, "qpm": 83.33333333333333}, {"time": 3840, "qpm": 84.50704225352112}, {"time": 6240, "qpm": 83.33333333333333}, {"time": 7200, "qpm": 84.50704225352112}, {"time": 7680, "qpm": 83.33333333333333}, {"time": 8160, "qpm": 84.50704225352112}, {"time": 8640, "qpm": 83.33333333333333}, {"time": 11520, "qpm": 60.60606060606061}, {"time": 12000, "qpm": 77.92207792207792}, {"time": 12480, "qpm": 78.94736842105263}, {"time": 15840, "qpm": 77.92207792207792}, {"time": 16800, "qpm": 78.94736842105263}, {"time": 17280, "qpm": 77.92207792207792}, {"time": 19680, "qpm": 82.1917808219178}, {"time": 21120, "qpm": 83.33333333333333}, {"time": 23520, "qpm": 85.71428571428571}, {"time": 25920, "qpm": 83.33333333333333}, {"time": 26400, "qpm": 76.92307692307692}, {"time": 26880, "qpm": 81.08108108108108}, {"time": 27360, "qpm": 78.94736842105263}, {"time": 28320, "qpm": 82.1917808219178}, {"time": 32160, "qpm": 81.08108108108108}, {"time": 36000, "qpm": 84.50704225352112}, {"time": 39840, "qpm": 81.08108108108108}, {"time": 41760, "qpm": 83.33333333333333}, {"time": 43200, "qpm": 82.1917808219178}, {"time": 45600, "qpm": 83.33333333333333}, {"time": 48000, "qpm": 82.1917808219178}, {"time": 48480, "qpm": 81.08108108108108}, {"time": 50880, "qpm": 82.1917808219178}, {"time": 51360, "qpm": 80.0}, {"time": 51840, "qpm": 81.08108108108108}, {"time": 52320, "qpm": 82.1917808219178}, {"time": 53280, "qpm": 83.33333333333333}, {"time": 55200, "qpm": 84.50704225352112}, {"time": 56640, "qpm": 85.71428571428571}, {"time": 60960, "qpm": 78.94736842105263}, {"time": 62880, "qpm": 80.0}, {"time": 63840, "qpm": 81.08108108108108}, {"time": 64800, "qpm": 77.92207792207792}, {"time": 67680, "qpm": 76.92307692307692}, {"time": 68640, "qpm": 75.9493670886076}, {"time": 70560, "qpm": 81.08108108108108}, {"time": 72480, "qpm": 85.71428571428571}, {"time": 76320, "qpm": 84.50704225352112}, {"time": 76800, "qpm": 83.33333333333333}, {"time": 77280, "qpm": 84.50704225352112}, {"time": 77760, "qpm": 83.33333333333333}, {"time": 78240, "qpm": 82.1917808219178}, {"time": 81120, "qpm": 80.0}, {"time": 83040, "qpm": 81.08108108108108}, {"time": 85440, "qpm": 82.1917808219178}, {"time": 85920, "qpm": 83.33333333333333}, {"time": 86400, "qpm": 82.1917808219178}, {"time": 87360, "qpm": 81.08108108108108}, {"time": 87840, "qpm": 82.1917808219178}, {"time": 88320, "qpm": 81.08108108108108}, {"time": 88800, "qpm": 83.33333333333333}, {"time": 90720, "qpm": 81.08108108108108}, {"time": 91200, "qpm": 78.94736842105263}, {"time": 92640, "qpm": 83.33333333333333}, {"time": 94080, "qpm": 82.1917808219178}, {"time": 94560, "qpm": 83.33333333333333}, {"time": 98400, "qpm": 82.1917808219178}, {"time": 99840, "qpm": 81.08108108108108}, {"time": 100320, "qpm": 84.50704225352112}, {"time": 104640, "qpm": 82.1917808219178}, {"time": 106080, "qpm": 84.50704225352112}, {"time": 107520, "qpm": 85.71428571428571}, {"time": 109920, "qpm": 86.95652173913044}, {"time": 111840, "qpm": 85.71428571428571}, {"time": 113760, "qpm": 86.95652173913044}, {"time": 115680, "qpm": 85.71428571428571}, {"time": 119520, "qpm": 86.95652173913044}, {"time": 120000, "qpm": 85.71428571428571}, {"time": 120480, "qpm": 86.95652173913044}, {"time": 120960, "qpm": 84.50704225352112}, {"time": 121440, "qpm": 85.71428571428571}, {"time": 121920, "qpm": 86.95652173913044}, {"time": 122400, "qpm": 85.71428571428571}, {"time": 123360, "qpm": 86.95652173913044}, {"time": 123840, "qpm": 85.71428571428571}, {"time": 124320, "qpm": 86.95652173913044}, {"time": 124800, "qpm": 85.71428571428571}, {"time": 125280, "qpm": 82.1917808219178}, {"time": 125760, "qpm": 77.92207792207792}, {"time": 126240, "qpm": 68.96551724137932}, {"time": 126720, "qpm": 42.5531914893617}], "key_signatures": [{"time": 0, "root": 1, "mode": "major"}], "time_signatures": [{"time": 0, "numerator": 1, "denominator": 4}, {"time": 480, "numerator": 4, "denominator": 4}, {"time": 27360, "numerator": 2, "denominator": 4}, {"time": 28320, "numerator": 4, "denominator": 4}, {"time": 78240, "numerator": 2, "denominator": 4}, {"time": 79200, "numerator": 4, "denominator": 4}], "tracks": [{"program": 0, "is_drum": false, "name": "Piano", "notes": [{"time": 480, "pitch": 65, "duration": 960, "velocity": 100}, {"time": 480, "pitch": 76, "duration": 240, "velocity": 90}, {"time": 480, "pitch": 79, "duration": 120, "velocity": 90}, {"time": 480, "pitch": 81, "duration": 240, "velocity": 110}, {"time": 720, "pitch": 72, "duration": 720, "velocity": 100}, {"time": 1080, "pitch": 81, "duration": 120, "velocity": 110}, {"time": 1200, "pitch": 83, "duration": 120, "velocity": 100}, {"time": 1320, "pitch": 84, "duration": 120, "velocity": 100}, {"time": 1440, "pitch": 64, "duration": 960, "velocity": 100}, {"time": 1440, "pitch": 76, "duration": 240, "velocity": 90}, {"time": 1440, "pitch": 79, "duration": 240, "velocity": 110}, {"time": 1680, "pitch": 72, "duration": 720, "velocity": 100}, {"time": 2040, "pitch": 79, "duration": 120, "velocity": 110}, {"time": 2160, "pitch": 83, "duration": 120, "velocity": 100}, {"time": 2280, "pitch": 84, "duration": 120, "velocity": 100}, {"time": 2400, "pitch": 62, "duration": 960, "velocity": 100}, {"time": 2400, "pitch": 77, "duration": 240, "velocity": 110}, {"time": 2640, "pitch": 72, "duration": 720, "velocity": 100}, {"time": 2880, "pitch": 77, "duration": 240, "velocity": 110}, {"time": 3120, "pitch": 86, "duration": 240, "velocity": 100}, {"time": 3360, "pitch": 67, "duration": 480, "velocity": 100}, {"time": 3360, "pitch": 74, "duration": 480, "velocity": 90}, {"time": 3360, "pitch": 84, "duration": 240, "velocity": 110}, {"time": 3600, "pitch": 83, "duration": 240, "velocity": 100}, {"time": 3840, "pitch": 55, "duration": 480, "velocity": 90}, {"time": 3840, "pitch": 81, "duration": 240, "velocity": 110}, {"time": 4080, "pitch": 83, "duration": 240, "velocity": 100}, {"time": 4320, "pitch": 60, "duration": 1900, "velocity": 100}, {"time": 4320, "pitch": 76, "duration": 480, "velocity": 90}, {"time": 4320, "pitch": 84, "duration": 480, "velocity": 110}, {"time": 4800, "pitch": 74, "duration": 120, "velocity": 80}, {"time": 4800, "pitch": 79, "duration": 120, "velocity": 100}, {"time": 4920, "pitch": 76, "duration": 120, "velocity": 90}, {"time": 5040, "pitch": 72, "duration": 240, "velocity": 80}, {"time": 5280, "pitch": 69, "duration": 480, "velocity": 100}, {"time": 5280, "pitch": 72, "duration": 480, "velocity": 90}, {"time": 5760, "pitch": 69, "duration": 120, "velocity": 90}, {"time": 5760, "pitch": 72, "duration": 480, "velocity": 80}, {"time": 5880, "pitch": 67, "duration": 120, "velocity": 85}, {"time": 6000, "pitch": 65, "duration": 240, "velocity": 80}, {"time": 6240, "pitch": 48, "duration": 940, "velocity": 90}, {"time": 6240, "pitch": 64, "duration": 480, "velocity": 70}, {"time": 6240, "pitch": 67, "duration": 480, "velocity": 90}, {"time": 6720, "pitch": 62, "duration": 120, "velocity": 70}, {"time": 6720, "pitch": 67, "duration": 120, "velocity": 80}, {"time": 6840, "pitch": 64, "duration": 120, "velocity": 80}, {"time": 6960, "pitch": 60, "duration": 240, "velocity": 70}, {"time": 7200, "pitch": 48, "duration": 480, "velocity": 80}, {"time": 7200, "pitch": 57, "duration": 480, "velocity": 80}, {"time": 7200, "pitch": 60, "duration": 480, "velocity": 70}, {"time": 7680, "pitch": 48, "duration": 480, "velocity": 80}, {"time": 7680, "pitch": 57, "duration": 120, "velocity": 80}, {"time": 7680, "pitch": 60, "duration": 480, "velocity": 70}, {"time": 7800, "pitch": 55, "duration": 120, "velocity": 75}, {"time": 7920, "pitch": 53, "duration": 240, "velocity": 70}, {"time": 8160, "pitch": 48, "duration": 700, "velocity": 80}, {"time": 8160, "pitch": 55, "duration": 480, "velocity": 70}, {"time": 8160, "pitch": 60, "duration": 480, "velocity": 75}, {"time": 8160, "pitch": 64, "duration": 480, "velocity": 80}, {"time": 8640, "pitch": 55, "duration": 480, "velocity": 70}, {"time": 8640, "pitch": 60, "duration": 480, "velocity": 75}, {"time": 8640, "pitch": 64, "duration": 480, "velocity": 80}, {"time": 8880, "pitch": 48, "duration": 220, "velocity": 75}, {"time": 9120, "pitch": 48, "duration": 940, "velocity": 80}, {"time": 9120, "pitch": 57, "duration": 480, "velocity": 70}, {"time": 9120, "pitch": 60, "duration": 480, "velocity": 75}, {"time": 9120, "pitch": 65, "duration": 480, "velocity": 80}, {"time": 9600, "pitch": 57, "duration": 480, "velocity": 80}, {"time": 9600, "pitch": 60, "duration": 240, "velocity": 90}, {"time": 9840, "pitch": 62, "duration": 220, "velocity": 85}, {"time": 10080, "pitch": 48, "duration": 240, "velocity": 80}, {"time": 10080, "pitch": 55, "duration": 480, "velocity": 70}, {"time": 10080, "pitch": 60, "duration": 480, "velocity": 75}, {"time": 10080, "pitch": 64, "duration": 480, "velocity": 80}, {"time": 10320, "pitch": 48, "duration": 479, "velocity": 80}, {"time": 10560, "pitch": 62, "duration": 119, "velocity": 85}, {"time": 10560, "pitch": 67, "duration": 479, "velocity": 80}, {"time": 10679, "pitch": 64, "duration": 120, "velocity": 80}, {"time": 10799, "pitch": 48, "duration": 940, "velocity": 80}, {"time": 10799, "pitch": 60, "duration": 220, "velocity": 75}, {"time": 11039, "pitch": 64, "duration": 940, "velocity": 80}, {"time": 11039, "pitch": 67, "duration": 940, "velocity": 85}, {"time": 11039, "pitch": 72, "duration": 940, "velocity": 90}, {"time": 11999, "pitch": 48, "duration": 1420, "velocity": 90}, {"time": 11999, "pitch": 55, "duration": 1420, "velocity": 85}, {"time": 11999, "pitch": 59, "duration": 1420, "velocity": 80}, {"time": 11999, "pitch": 60, "duration": 1420, "velocity": 85}, {"time": 11999, "pitch": 64, "duration": 1420, "velocity": 90}, {"time": 13439, "pitch": 48, "duration": 460, "velocity": 90}, {"time": 13439, "pitch": 55, "duration": 460, "velocity": 85}, {"time": 13439, "pitch": 59, "duration": 460, "velocity": 80}, {"time": 13439, "pitch": 60, "duration": 460, "velocity": 85}, {"time": 13439, "pitch": 64, "duration": 460, "velocity": 90}, {"time": 13919, "pitch": 48, "duration": 940, "velocity": 90}, {"time": 13919, "pitch": 55, "duration": 940, "velocity": 85}, {"time": 13919, "pitch": 58, "duration": 940, "velocity": 80}, {"time": 13919, "pitch": 60, "duration": 940, "velocity": 85}, {"time": 13919, "pitch": 63, "duration": 940, "velocity": 90}, {"time": 14879, "pitch": 41, "duration": 940, "velocity": 90}, {"time": 14879, "pitch": 58, "duration": 940, "velocity": 85}, {"time": 14879, "pitch": 60, "duration": 940, "velocity": 80}, {"time": 14879, "pitch": 63, "duration": 940, "velocity": 85}, {"time": 14879, "pitch": 67, "duration": 940, "velocity": 90}, {"time": 15839, "pitch": 46, "duration": 720, "velocity": 90}, {"time": 15839, "pitch": 57, "duration": 940, "velocity": 85}, {"time": 15839, "pitch": 58, "duration": 940, "velocity": 80}, {"time": 15839, "pitch": 62, "duration": 940, "velocity": 85}, {"time": 15839, "pitch": 65, "duration": 940, "velocity": 90}, {"time": 16559, "pitch": 45, "duration": 220, "velocity": 85}, {"time": 16799, "pitch": 43, "duration": 940, "velocity": 90}, {"time": 16799, "pitch": 58, "duration": 940, "velocity": 85}, {"time": 16799, "pitch": 62, "duration": 940, "velocity": 80}, {"time": 16799, "pitch": 65, "duration": 360, "velocity": 85}, {"time": 16799, "pitch": 69, "duration": 240, "velocity": 90}, {"time": 17039, "pitch": 70, "duration": 120, "velocity": 95}, {"time": 17159, "pitch": 65, "duration": 580, "velocity": 90}, {"time": 17759, "pitch": 48, "duration": 940, "velocity": 90}, {"time": 17759, "pitch": 58, "duration": 940, "velocity": 85}, {"time": 17759, "pitch": 60, "duration": 940, "velocity": 80}, {"time": 17759, "pitch": 63, "duration": 940, "velocity": 85}, {"time": 17759, "pitch": 67, "duration": 940, "velocity": 90}, {"time": 18719, "pitch": 41, "duration": 940, "velocity": 90}, {"time": 18719, "pitch": 58, "duration": 940, "velocity": 85}, {"time": 18719, "pitch": 60, "duration": 940, "velocity": 80}, {"time": 18719, "pitch": 63, "duration": 480, "velocity": 85}, {"time": 18719, "pitch": 67, "duration": 480, "velocity": 90}, {"time": 19199, "pitch": 65, "duration": 240, "velocity": 95}, {"time": 19439, "pitch": 63, "duration": 240, "velocity": 90}, {"time": 19679, "pitch": 58, "duration": 700, "velocity": 80}, {"time": 19679, "pitch": 62, "duration": 700, "velocity": 85}, {"time": 19679, "pitch": 67, "duration": 700, "velocity": 90}, {"time": 19919, "pitch": 51, "duration": 700, "velocity": 80}, {"time": 20159, "pitch": 55, "duration": 460, "velocity": 85}, {"time": 20399, "pitch": 58, "duration": 220, "velocity": 70}, {"time": 20399, "pitch": 62, "duration": 220, "velocity": 75}, {"time": 20399, "pitch": 67, "duration": 220, "velocity": 80}, {"time": 20639, "pitch": 57, "duration": 700, "velocity": 80}, {"time": 20639, "pitch": 60, "duration": 700, "velocity": 85}, {"time": 20639, "pitch": 65, "duration": 700, "velocity": 90}, {"time": 20879, "pitch": 50, "duration": 700, "velocity": 80}, {"time": 21119, "pitch": 53, "duration": 460, "velocity": 85}, {"time": 21359, "pitch": 57, "duration": 220, "velocity": 70}, {"time": 21359, "pitch": 60, "duration": 220, "velocity": 75}, {"time": 21359, "pitch": 65, "duration": 220, "velocity": 80}, {"time": 21599, "pitch": 55, "duration": 700, "velocity": 80}, {"time": 21599, "pitch": 58, "duration": 700, "velocity": 85}, {"time": 21599, "pitch": 63, "duration": 700, "velocity": 90}, {"time": 21839, "pitch": 48, "duration": 700, "velocity": 80}, {"time": 22079, "pitch": 51, "duration": 460, "velocity": 85}, {"time": 22319, "pitch": 55, "duration": 220, "velocity": 70}, {"time": 22319, "pitch": 58, "duration": 220, "velocity": 75}, {"time": 22319, "pitch": 63, "duration": 220, "velocity": 80}, {"time": 22559, "pitch": 34, "duration": 940, "velocity": 85}, {"time": 22559, "pitch": 53, "duration": 700, "velocity": 80}, {"time": 22559, "pitch": 57, "duration": 700, "velocity": 85}, {"time": 22559, "pitch": 62, "duration": 700, "velocity": 90}, {"time": 22799, "pitch": 46, "duration": 720, "velocity": 80}, {"time": 23039, "pitch": 50, "duration": 460, "velocity": 85}, {"time": 23279, "pitch": 53, "duration": 220, "velocity": 70}, {"time": 23279, "pitch": 57, "duration": 220, "velocity": 75}, {"time": 23279, "pitch": 62, "duration": 220, "velocity": 80}, {"time": 23519, "pitch": 58, "duration": 700, "velocity": 80}, {"time": 23519, "pitch": 62, "duration": 700, "velocity": 85}, {"time": 23519, "pitch": 67, "duration": 700, "velocity": 90}, {"time": 23759, "pitch": 51, "duration": 700, "velocity": 80}, {"time": 23999, "pitch": 55, "duration": 460, "velocity": 85}, {"time": 24239, "pitch": 58, "duration": 220, "velocity": 70}, {"time": 24239, "pitch": 62, "duration": 220, "velocity": 75}, {"time": 24239, "pitch": 67, "duration": 220, "velocity": 80}, {"time": 24479, "pitch": 57, "duration": 700, "velocity": 80}, {"time": 24479, "pitch": 60, "duration": 700, "velocity": 85}, {"time": 24479, "pitch": 66, "duration": 700, "velocity": 90}, {"time": 24719, "pitch": 50, "duration": 700, "velocity": 80}, {"time": 24959, "pitch": 54, "duration": 460, "velocity": 85}, {"time": 25199, "pitch": 57, "duration": 220, "velocity": 70}, {"time": 25199, "pitch": 60, "duration": 220, "velocity": 75}, {"time": 25199, "pitch": 66, "duration": 220, "velocity": 80}, {"time": 25439, "pitch": 55, "duration": 460, "velocity": 80}, {"time": 25439, "pitch": 58, "duration": 460, "velocity": 80}, {"time": 25439, "pitch": 62, "duration": 460, "velocity": 85}, {"time": 25439, "pitch": 67, "duration": 460, "velocity": 90}, {"time": 25919, "pitch": 53, "duration": 460, "velocity": 80}, {"time": 25919, "pitch": 58, "duration": 460, "velocity": 80}, {"time": 25919, "pitch": 62, "duration": 460, "velocity": 85}, {"time": 25919, "pitch": 65, "duration": 460, "velocity": 90}, {"time": 26399, "pitch": 52, "duration": 1900, "velocity": 80}, {"time": 26399, "pitch": 55, "duration": 1900, "velocity": 80}, {"time": 26399, "pitch": 58, "duration": 1900, "velocity": 85}, {"time": 26399, "pitch": 64, "duration": 1900, "velocity": 90}, {"time": 27179, "pitch": 86, "duration": 1120, "velocity": 90}, {"time": 27239, "pitch": 82, "duration": 1060, "velocity": 85}, {"time": 27299, "pitch": 79, "duration": 1000, "velocity": 80}, {"time": 27359, "pitch": 76, "duration": 940, "velocity": 70}, {"time": 28319, "pitch": 34, "duration": 1900, "velocity": 90}, {"time": 28319, "pitch": 46, "duration": 1900, "velocity": 80}, {"time": 28319, "pitch": 58, "duration": 480, "velocity": 80}, {"time": 28319, "pitch": 62, "duration": 480, "velocity": 85}, {"time": 28319, "pitch": 65, "duration": 480, "velocity": 90}, {"time": 28799, "pitch": 58, "duration": 480, "velocity": 80}, {"time": 28799, "pitch": 62, "duration": 480, "velocity": 85}, {"time": 28799, "pitch": 65, "duration": 480, "velocity": 90}, {"time": 29279, "pitch": 58, "duration": 480, "velocity": 80}, {"time": 29279, "pitch": 62, "duration": 480, "velocity": 85}, {"time": 29279, "pitch": 66, "duration": 480, "velocity": 90}, {"time": 29759, "pitch": 58, "duration": 460, "velocity": 80}, {"time": 29759, "pitch": 62, "duration": 460, "velocity": 85}, {"time": 29759, "pitch": 66, "duration": 460, "velocity": 90}, {"time": 30239, "pitch": 34, "duration": 1900, "velocity": 90}, {"time": 30239, "pitch": 46, "duration": 1900, "velocity": 80}, {"time": 30239, "pitch": 58, "duration": 480, "velocity": 80}, {"time": 30239, "pitch": 62, "duration": 480, "velocity": 85}, {"time": 30239, "pitch": 67, "duration": 480, "velocity": 90}, {"time": 30719, "pitch": 58, "duration": 480, "velocity": 80}, {"time": 30719, "pitch": 62, "duration": 480, "velocity": 85}, {"time": 30719, "pitch": 67, "duration": 480, "velocity": 90}, {"time": 31199, "pitch": 58, "duration": 480, "velocity": 80}, {"time": 31199, "pitch": 62, "duration": 480, "velocity": 85}, {"time": 31199, "pitch": 68, "duration": 480, "velocity": 90}, {"time": 31679, "pitch": 58, "duration": 460, "velocity": 80}, {"time": 31679, "pitch": 62, "duration": 460, "velocity": 85}, {"time": 31679, "pitch": 68, "duration": 460, "velocity": 90}, {"time": 32159, "pitch": 51, "duration": 940, "velocity": 90}, {"time": 32159, "pitch": 58, "duration": 480, "velocity": 80}, {"time": 32159, "pitch": 63, "duration": 480, "velocity": 85}, {"time": 32159, "pitch": 67, "duration": 480, "velocity": 90}, {"time": 32639, "pitch": 58, "duration": 460, "velocity": 80}, {"time": 32639, "pitch": 63, "duration": 460, "velocity": 85}, {"time": 32639, "pitch": 67, "duration": 460, "velocity": 90}, {"time": 33119, "pitch": 50, "duration": 940, "velocity": 90}, {"time": 33119, "pitch": 58, "duration": 480, "velocity": 80}, {"time": 33119, "pitch": 62, "duration": 480, "velocity": 85}, {"time": 33119, "pitch": 65, "duration": 480, "velocity": 90}, {"time": 33599, "pitch": 58, "duration": 460, "velocity": 80}, {"time": 33599, "pitch": 62, "duration": 460, "velocity": 85}, {"time": 33599, "pitch": 65, "duration": 460, "velocity": 90}, {"time": 34079, "pitch": 48, "duration": 939, "velocity": 90}, {"time": 34079, "pitch": 55, "duration": 480, "velocity": 80}, {"time": 34079, "pitch": 58, "duration": 480, "velocity": 85}, {"time": 34079, "pitch": 63, "duration": 480, "velocity": 90}, {"time": 34559, "pitch": 55, "duration": 459, "velocity": 80}, {"time": 34559, "pitch": 58, "duration": 459, "velocity": 85}, {"time": 34559, "pitch": 63, "duration": 459, "velocity": 90}, {"time": 35038, "pitch": 44, "duration": 940, "velocity": 90}, {"time": 35038, "pitch": 55, "duration": 480, "velocity": 80}, {"time": 35038, "pitch": 60, "duration": 480, "velocity": 85}, {"time": 35038, "pitch": 63, "duration": 480, "velocity": 90}, {"time": 35518, "pitch": 55, "duration": 460, "velocity": 80}, {"time": 35518, "pitch": 60, "duration": 460, "velocity": 85}, {"time": 35518, "pitch": 63, "duration": 460, "velocity": 90}, {"time": 35998, "pitch": 43, "duration": 1440, "velocity": 90}, {"time": 35998, "pitch": 55, "duration": 480, "velocity": 80}, {"time": 35998, "pitch": 60, "duration": 480, "velocity": 85}, {"time": 35998, "pitch": 62, "duration": 480, "velocity": 90}, {"time": 36478, "pitch": 55, "duration": 480, "velocity": 90}, {"time": 36718, "pitch": 60, "duration": 220, "velocity": 80}, {"time": 36718, "pitch": 62, "duration": 220, "velocity": 85}, {"time": 36718, "pitch": 67, "duration": 220, "velocity": 90}, {"time": 36958, "pitch": 59, "duration": 940, "velocity": 80}, {"time": 36958, "pitch": 62, "duration": 940, "velocity": 85}, {"time": 36958, "pitch": 67, "duration": 940, "velocity": 90}, {"time": 37438, "pitch": 43, "duration": 240, "velocity": 90}, {"time": 37678, "pitch": 55, "duration": 240, "velocity": 90}, {"time": 37918, "pitch": 43, "duration": 480, "velocity": 90}, {"time": 37918, "pitch": 57, "duration": 720, "velocity": 90}, {"time": 38398, "pitch": 43, "duration": 480, "velocity": 90}, {"time": 38638, "pitch": 57, "duration": 120, "velocity": 90}, {"time": 38758, "pitch": 60, "duration": 120, "velocity": 85}, {"time": 38878, "pitch": 43, "duration": 480, "velocity": 90}, {"time": 38878, "pitch": 62, "duration": 480, "velocity": 85}, {"time": 38878, "pitch": 65, "duration": 480, "velocity": 90}, {"time": 39358, "pitch": 43, "duration": 480, "velocity": 90}, {"time": 39358, "pitch": 59, "duration": 480, "velocity": 85}, {"time": 39358, "pitch": 62, "duration": 480, "velocity": 90}, {"time": 39838, "pitch": 36, "duration": 1440, "velocity": 90}, {"time": 39838, "pitch": 48, "duration": 1440, "velocity": 80}, {"time": 39838, "pitch": 62, "duration": 240, "velocity": 80}, {"time": 39838, "pitch": 64, "duration": 240, "velocity": 85}, {"time": 39838, "pitch": 67, "duration": 240, "velocity": 90}, {"time": 40078, "pitch": 60, "duration": 240, "velocity": 85}, {"time": 40318, "pitch": 62, "duration": 240, "velocity": 80}, {"time": 40318, "pitch": 64, "duration": 240, "velocity": 85}, {"time": 40318, "pitch": 67, "duration": 240, "velocity": 90}, {"time": 40558, "pitch": 60, "duration": 240, "velocity": 85}, {"time": 40798, "pitch": 62, "duration": 240, "velocity": 80}, {"time": 40798, "pitch": 64, "duration": 240, "velocity": 85}, {"time": 40798, "pitch": 67, "duration": 240, "velocity": 90}, {"time": 41038, "pitch": 60, "duration": 240, "velocity": 85}, {"time": 41278, "pitch": 36, "duration": 480, "velocity": 80}, {"time": 41278, "pitch": 48, "duration": 480, "velocity": 70}, {"time": 41278, "pitch": 62, "duration": 240, "velocity": 80}, {"time": 41278, "pitch": 64, "duration": 240, "velocity": 85}, {"time": 41278, "pitch": 67, "duration": 240, "velocity": 90}, {"time": 41518, "pitch": 60, "duration": 240, "velocity": 85}, {"time": 41758, "pitch": 40, "duration": 1440, "velocity": 90}, {"time": 41758, "pitch": 52, "duration": 1440, "velocity": 80}, {"time": 41758, "pitch": 62, "duration": 240, "velocity": 80}, {"time": 41758, "pitch": 64, "duration": 240, "velocity": 85}, {"time": 41758, "pitch": 68, "duration": 240, "velocity": 90}, {"time": 41998, "pitch": 59, "duration": 240, "velocity": 85}, {"time": 42238, "pitch": 62, "duration": 240, "velocity": 80}, {"time": 42238, "pitch": 64, "duration": 240, "velocity": 85}, {"time": 42238, "pitch": 68, "duration": 240, "velocity": 90}, {"time": 42478, "pitch": 59, "duration": 240, "velocity": 85}, {"time": 42718, "pitch": 62, "duration": 240, "velocity": 80}, {"time": 42718, "pitch": 64, "duration": 240, "velocity": 85}, {"time": 42718, "pitch": 68, "duration": 240, "velocity": 90}, {"time": 42958, "pitch": 59, "duration": 240, "velocity": 85}, {"time": 43198, "pitch": 40, "duration": 480, "velocity": 80}, {"time": 43198, "pitch": 52, "duration": 480, "velocity": 70}, {"time": 43198, "pitch": 62, "duration": 240, "velocity": 80}, {"time": 43198, "pitch": 64, "duration": 240, "velocity": 85}, {"time": 43198, "pitch": 68, "duration": 240, "velocity": 90}, {"time": 43438, "pitch": 59, "duration": 240, "velocity": 85}, {"time": 43678, "pitch": 45, "duration": 1440, "velocity": 90}, {"time": 43678, "pitch": 60, "duration": 240, "velocity": 80}, {"time": 43678, "pitch": 64, "duration": 240, "velocity": 85}, {"time": 43678, "pitch": 69, "duration": 240, "velocity": 90}, {"time": 43918, "pitch": 57, "duration": 240, "velocity": 85}, {"time": 44158, "pitch": 60, "duration": 240, "velocity": 80}, {"time": 44158, "pitch": 64, "duration": 240, "velocity": 85}, {"time": 44158, "pitch": 69, "duration": 240, "velocity": 90}, {"time": 44398, "pitch": 57, "duration": 240, "velocity": 85}, {"time": 44638, "pitch": 60, "duration": 240, "velocity": 80}, {"time": 44638, "pitch": 64, "duration": 240, "velocity": 85}, {"time": 44638, "pitch": 69, "duration": 240, "velocity": 90}, {"time": 44878, "pitch": 57, "duration": 240, "velocity": 85}, {"time": 45118, "pitch": 43, "duration": 460, "velocity": 80}, {"time": 45118, "pitch": 60, "duration": 240, "velocity": 80}, {"time": 45118, "pitch": 64, "duration": 240, "velocity": 85}, {"time": 45118, "pitch": 67, "duration": 240, "velocity": 90}, {"time": 45358, "pitch": 57, "duration": 240, "velocity": 85}, {"time": 45598, "pitch": 43, "duration": 1440, "velocity": 90}, {"time": 45598, "pitch": 58, "duration": 240, "velocity": 80}, {"time": 45598, "pitch": 62, "duration": 240, "velocity": 85}, {"time": 45598, "pitch": 65, "duration": 240, "velocity": 90}, {"time": 45838, "pitch": 55, "duration": 240, "velocity": 85}, {"time": 46078, "pitch": 58, "duration": 240, "velocity": 80}, {"time": 46078, "pitch": 62, "duration": 240, "velocity": 85}, {"time": 46078, "pitch": 65, "duration": 240, "velocity": 90}, {"time": 46318, "pitch": 55, "duration": 240, "velocity": 85}, {"time": 46558, "pitch": 48, "duration": 460, "velocity": 80}, {"time": 46558, "pitch": 58, "duration": 240, "velocity": 80}, {"time": 46558, "pitch": 64, "duration": 240, "velocity": 85}, {"time": 46558, "pitch": 67, "duration": 240, "velocity": 90}, {"time": 46798, "pitch": 55, "duration": 240, "velocity": 85}, {"time": 47038, "pitch": 36, "duration": 460, "velocity": 80}, {"time": 47038, "pitch": 58, "duration": 240, "velocity": 80}, {"time": 47038, "pitch": 64, "duration": 240, "velocity": 85}, {"time": 47038, "pitch": 67, "duration": 240, "velocity": 90}, {"time": 47278, "pitch": 55, "duration": 240, "velocity": 85}, {"time": 47518, "pitch": 41, "duration": 940, "velocity": 90}, {"time": 47518, "pitch": 57, "duration": 240, "velocity": 80}, {"time": 47518, "pitch": 60, "duration": 240, "velocity": 85}, {"time": 47518, "pitch": 64, "duration": 240, "velocity": 90}, {"time": 47758, "pitch": 53, "duration": 240, "velocity": 85}, {"time": 47998, "pitch": 57, "duration": 240, "velocity": 80}, {"time": 47998, "pitch": 60, "duration": 240, "velocity": 85}, {"time": 47998, "pitch": 64, "duration": 240, "velocity": 90}, {"time": 48238, "pitch": 53, "duration": 240, "velocity": 85}, {"time": 48478, "pitch": 41, "duration": 940, "velocity": 90}, {"time": 48478, "pitch": 55, "duration": 240, "velocity": 80}, {"time": 48478, "pitch": 59, "duration": 240, "velocity": 85}, {"time": 48478, "pitch": 62, "duration": 240, "velocity": 90}, {"time": 48718, "pitch": 53, "duration": 240, "velocity": 85}, {"time": 48958, "pitch": 55, "duration": 240, "velocity": 80}, {"time": 48958, "pitch": 59, "duration": 240, "velocity": 85}, {"time": 48958, "pitch": 62, "duration": 240, "velocity": 90}, {"time": 49198, "pitch": 53, "duration": 240, "velocity": 85}, {"time": 49438, "pitch": 40, "duration": 940, "velocity": 90}, {"time": 49438, "pitch": 59, "duration": 240, "velocity": 80}, {"time": 49438, "pitch": 62, "duration": 240, "velocity": 85}, {"time": 49438, "pitch": 67, "duration": 240, "velocity": 90}, {"time": 49678, "pitch": 55, "duration": 240, "velocity": 85}, {"time": 49918, "pitch": 59, "duration": 240, "velocity": 80}, {"time": 49918, "pitch": 62, "duration": 240, "velocity": 85}, {"time": 49918, "pitch": 67, "duration": 240, "velocity": 90}, {"time": 50158, "pitch": 55, "duration": 240, "velocity": 85}, {"time": 50398, "pitch": 45, "duration": 940, "velocity": 90}, {"time": 50398, "pitch": 60, "duration": 240, "velocity": 80}, {"time": 50398, "pitch": 64, "duration": 240, "velocity": 85}, {"time": 50398, "pitch": 67, "duration": 240, "velocity": 90}, {"time": 50638, "pitch": 55, "duration": 240, "velocity": 85}, {"time": 50878, "pitch": 60, "duration": 240, "velocity": 80}, {"time": 50878, "pitch": 64, "duration": 240, "velocity": 85}, {"time": 50878, "pitch": 67, "duration": 240, "velocity": 90}, {"time": 51118, "pitch": 55, "duration": 240, "velocity": 85}, {"time": 51358, "pitch": 50, "duration": 940, "velocity": 90}, {"time": 51358, "pitch": 57, "duration": 240, "velocity": 80}, {"time": 51358, "pitch": 60, "duration": 240, "velocity": 85}, {"time": 51358, "pitch": 65, "duration": 240, "velocity": 90}, {"time": 51598, "pitch": 53, "duration": 240, "velocity": 85}, {"time": 51838, "pitch": 57, "duration": 240, "velocity": 80}, {"time": 51838, "pitch": 60, "duration": 240, "velocity": 85}, {"time": 51838, "pitch": 65, "duration": 240, "velocity": 90}, {"time": 52078, "pitch": 53, "duration": 240, "velocity": 85}, {"time": 52318, "pitch": 43, "duration": 940, "velocity": 90}, {"time": 52318, "pitch": 57, "duration": 240, "velocity": 80}, {"time": 52318, "pitch": 60, "duration": 240, "velocity": 85}, {"time": 52318, "pitch": 65, "duration": 240, "velocity": 90}, {"time": 52558, "pitch": 53, "duration": 240, "velocity": 85}, {"time": 52798, "pitch": 57, "duration": 240, "velocity": 80}, {"time": 52798, "pitch": 60, "duration": 240, "velocity": 85}, {"time": 52798, "pitch": 65, "duration": 240, "velocity": 90}, {"time": 53038, "pitch": 53, "duration": 240, "velocity": 85}, {"time": 53278, "pitch": 48, "duration": 1900, "velocity": 90}, {"time": 53278, "pitch": 55, "duration": 480, "velocity": 80}, {"time": 53278, "pitch": 60, "duration": 480, "velocity": 85}, {"time": 53278, "pitch": 64, "duration": 480, "velocity": 90}, {"time": 53758, "pitch": 62, "duration": 120, "velocity": 95}, {"time": 53758, "pitch": 67, "duration": 480, "velocity": 90}, {"time": 53878, "pitch": 64, "duration": 120, "velocity": 80}, {"time": 53998, "pitch": 60, "duration": 220, "velocity": 85}, {"time": 54238, "pitch": 64, "duration": 940, "velocity": 80}, {"time": 54238, "pitch": 67, "duration": 940, "velocity": 85}, {"time": 54238, "pitch": 72, "duration": 940, "velocity": 90}, {"time": 55198, "pitch": 65, "duration": 240, "velocity": 80}, {"time": 55198, "pitch": 72, "duration": 240, "velocity": 75}, {"time": 55198, "pitch": 75, "duration": 240, "velocity": 80}, {"time": 55438, "pitch": 65, "duration": 720, "velocity": 75}, {"time": 55678, "pitch": 75, "duration": 120, "velocity": 90}, {"time": 55798, "pitch": 68, "duration": 120, "velocity": 75}, {"time": 55918, "pitch": 72, "duration": 120, "velocity": 80}, {"time": 56038, "pitch": 75, "duration": 120, "velocity": 75}, {"time": 56158, "pitch": 58, "duration": 480, "velocity": 80}, {"time": 56158, "pitch": 65, "duration": 480, "velocity": 75}, {"time": 56158, "pitch": 74, "duration": 240, "velocity": 80}, {"time": 56398, "pitch": 68, "duration": 240, "velocity": 75}, {"time": 56638, "pitch": 65, "duration": 480, "velocity": 75}, {"time": 56638, "pitch": 74, "duration": 240, "velocity": 80}, {"time": 56878, "pitch": 72, "duration": 240, "velocity": 75}, {"time": 57118, "pitch": 63, "duration": 960, "velocity": 80}, {"time": 57118, "pitch": 70, "duration": 240, "velocity": 75}, {"time": 57118, "pitch": 74, "duration": 240, "velocity": 80}, {"time": 57358, "pitch": 67, "duration": 240, "velocity": 75}, {"time": 57598, "pitch": 74, "duration": 120, "velocity": 90}, {"time": 57718, "pitch": 67, "duration": 120, "velocity": 75}, {"time": 57838, "pitch": 70, "duration": 120, "velocity": 70}, {"time": 57958, "pitch": 74, "duration": 120, "velocity": 75}, {"time": 58078, "pitch": 60, "duration": 960, "velocity": 80}, {"time": 58078, "pitch": 67, "duration": 480, "velocity": 75}, {"time": 58078, "pitch": 72, "duration": 240, "velocity": 80}, {"time": 58318, "pitch": 63, "duration": 240, "velocity": 75}, {"time": 58558, "pitch": 67, "duration": 240, "velocity": 70}, {"time": 58798, "pitch": 72, "duration": 240, "velocity": 65}, {"time": 59038, "pitch": 44, "duration": 959, "velocity": 80}, {"time": 59038, "pitch": 67, "duration": 239, "velocity": 90}, {"time": 59277, "pitch": 55, "duration": 240, "velocity": 75}, {"time": 59517, "pitch": 60, "duration": 240, "velocity": 75}, {"time": 59757, "pitch": 62, "duration": 120, "velocity": 70}, {"time": 59877, "pitch": 63, "duration": 120, "velocity": 65}, {"time": 59997, "pitch": 50, "duration": 960, "velocity": 80}, {"time": 59997, "pitch": 65, "duration": 240, "velocity": 90}, {"time": 60237, "pitch": 56, "duration": 240, "velocity": 75}, {"time": 60477, "pitch": 60, "duration": 240, "velocity": 70}, {"time": 60717, "pitch": 62, "duration": 240, "velocity": 75}, {"time": 60957, "pitch": 43, "duration": 1900, "velocity": 85}, {"time": 60957, "pitch": 60, "duration": 960, "velocity": 85}, {"time": 60957, "pitch": 67, "duration": 480, "velocity": 90}, {"time": 61437, "pitch": 59, "duration": 480, "velocity": 85}, {"time": 61677, "pitch": 55, "duration": 720, "velocity": 80}, {"time": 61917, "pitch": 57, "duration": 480, "velocity": 85}, {"time": 61917, "pitch": 60, "duration": 480, "velocity": 90}, {"time": 62397, "pitch": 55, "duration": 480, "velocity": 85}, {"time": 62397, "pitch": 59, "duration": 480, "velocity": 90}, {"time": 62397, "pitch": 62, "duration": 480, "velocity": 95}, {"time": 62877, "pitch": 48, "duration": 1420, "velocity": 90}, {"time": 62877, "pitch": 55, "duration": 1420, "velocity": 85}, {"time": 62877, "pitch": 59, "duration": 1420, "velocity": 80}, {"time": 62877, "pitch": 60, "duration": 1420, "velocity": 85}, {"time": 62877, "pitch": 64, "duration": 1420, "velocity": 90}, {"time": 64317, "pitch": 48, "duration": 460, "velocity": 90}, {"time": 64317, "pitch": 55, "duration": 460, "velocity": 85}, {"time": 64317, "pitch": 59, "duration": 460, "velocity": 80}, {"time": 64317, "pitch": 60, "duration": 460, "velocity": 85}, {"time": 64317, "pitch": 64, "duration": 460, "velocity": 90}, {"time": 64797, "pitch": 48, "duration": 940, "velocity": 90}, {"time": 64797, "pitch": 55, "duration": 940, "velocity": 85}, {"time": 64797, "pitch": 58, "duration": 940, "velocity": 80}, {"time": 64797, "pitch": 60, "duration": 940, "velocity": 85}, {"time": 64797, "pitch": 63, "duration": 940, "velocity": 90}, {"time": 65757, "pitch": 41, "duration": 940, "velocity": 90}, {"time": 65757, "pitch": 58, "duration": 940, "velocity": 85}, {"time": 65757, "pitch": 60, "duration": 940, "velocity": 80}, {"time": 65757, "pitch": 63, "duration": 940, "velocity": 85}, {"time": 65757, "pitch": 67, "duration": 940, "velocity": 90}, {"time": 66717, "pitch": 46, "duration": 720, "velocity": 90}, {"time": 66717, "pitch": 57, "duration": 940, "velocity": 85}, {"time": 66717, "pitch": 58, "duration": 940, "velocity": 80}, {"time": 66717, "pitch": 62, "duration": 940, "velocity": 85}, {"time": 66717, "pitch": 65, "duration": 940, "velocity": 90}, {"time": 67437, "pitch": 45, "duration": 220, "velocity": 85}, {"time": 67677, "pitch": 43, "duration": 940, "velocity": 90}, {"time": 67677, "pitch": 58, "duration": 940, "velocity": 85}, {"time": 67677, "pitch": 62, "duration": 240, "velocity": 80}, {"time": 67677, "pitch": 65, "duration": 360, "velocity": 85}, {"time": 67677, "pitch": 69, "duration": 240, "velocity": 90}, {"time": 67917, "pitch": 62, "duration": 120, "velocity": 85}, {"time": 67917, "pitch": 70, "duration": 120, "velocity": 95}, {"time": 68037, "pitch": 62, "duration": 580, "velocity": 80}, {"time": 68037, "pitch": 70, "duration": 580, "velocity": 90}, {"time": 68637, "pitch": 48, "duration": 940, "velocity": 90}, {"time": 68637, "pitch": 58, "duration": 940, "velocity": 85}, {"time": 68637, "pitch": 60, "duration": 940, "velocity": 80}, {"time": 68637, "pitch": 63, "duration": 940, "velocity": 85}, {"time": 68637, "pitch": 67, "duration": 940, "velocity": 90}, {"time": 69597, "pitch": 41, "duration": 940, "velocity": 90}, {"time": 69597, "pitch": 58, "duration": 720, "velocity": 85}, {"time": 69597, "pitch": 60, "duration": 720, "velocity": 80}, {"time": 69597, "pitch": 63, "duration": 720, "velocity": 85}, {"time": 69597, "pitch": 67, "duration": 720, "velocity": 90}, {"time": 70317, "pitch": 58, "duration": 240, "velocity": 90}, {"time": 70557, "pitch": 58, "duration": 700, "velocity": 80}, {"time": 70557, "pitch": 62, "duration": 700, "velocity": 85}, {"time": 70557, "pitch": 67, "duration": 700, "velocity": 90}, {"time": 70797, "pitch": 51, "duration": 700, "velocity": 80}, {"time": 71037, "pitch": 55, "duration": 460, "velocity": 85}, {"time": 71277, "pitch": 58, "duration": 220, "velocity": 70}, {"time": 71277, "pitch": 62, "duration": 220, "velocity": 75}, {"time": 71277, "pitch": 67, "duration": 220, "velocity": 80}, {"time": 71517, "pitch": 57, "duration": 700, "velocity": 80}, {"time": 71517, "pitch": 60, "duration": 700, "velocity": 85}, {"time": 71517, "pitch": 65, "duration": 700, "velocity": 90}, {"time": 71757, "pitch": 50, "duration": 700, "velocity": 80}, {"time": 71997, "pitch": 53, "duration": 460, "velocity": 85}, {"time": 72237, "pitch": 57, "duration": 220, "velocity": 70}, {"time": 72237, "pitch": 60, "duration": 220, "velocity": 75}, {"time": 72237, "pitch": 65, "duration": 220, "velocity": 80}, {"time": 72477, "pitch": 55, "duration": 700, "velocity": 80}, {"time": 72477, "pitch": 58, "duration": 700, "velocity": 85}, {"time": 72477, "pitch": 63, "duration": 700, "velocity": 90}, {"time": 72717, "pitch": 48, "duration": 700, "velocity": 80}, {"time": 72957, "pitch": 51, "duration": 460, "velocity": 85}, {"time": 73197, "pitch": 55, "duration": 220, "velocity": 70}, {"time": 73197, "pitch": 58, "duration": 220, "velocity": 75}, {"time": 73197, "pitch": 63, "duration": 220, "velocity": 80}, {"time": 73437, "pitch": 34, "duration": 940, "velocity": 85}, {"time": 73437, "pitch": 53, "duration": 700, "velocity": 80}, {"time": 73437, "pitch": 57, "duration": 700, "velocity": 85}, {"time": 73437, "pitch": 62, "duration": 700, "velocity": 90}, {"time": 73677, "pitch": 46, "duration": 720, "velocity": 80}, {"time": 73917, "pitch": 50, "duration": 460, "velocity": 85}, {"time": 74157, "pitch": 53, "duration": 220, "velocity": 70}, {"time": 74157, "pitch": 57, "duration": 220, "velocity": 75}, {"time": 74157, "pitch": 62, "duration": 220, "velocity": 80}, {"time": 74397, "pitch": 58, "duration": 700, "velocity": 80}, {"time": 74397, "pitch": 62, "duration": 700, "velocity": 85}, {"time": 74397, "pitch": 67, "duration": 700, "velocity": 90}, {"time": 74637, "pitch": 51, "duration": 700, "velocity": 80}, {"time": 74877, "pitch": 55, "duration": 460, "velocity": 85}, {"time": 75117, "pitch": 58, "duration": 220, "velocity": 70}, {"time": 75117, "pitch": 62, "duration": 220, "velocity": 75}, {"time": 75117, "pitch": 67, "duration": 220, "velocity": 80}, {"time": 75357, "pitch": 57, "duration": 703, "velocity": 80}, {"time": 75357, "pitch": 60, "duration": 703, "velocity": 85}, {"time": 75357, "pitch": 66, "duration": 703, "velocity": 90}, {"time": 75597, "pitch": 50, "duration": 706, "velocity": 80}, {"time": 75837, "pitch": 54, "duration": 466, "velocity": 85}, {"time": 76080, "pitch": 57, "duration": 223, "velocity": 70}, {"time": 76080, "pitch": 60, "duration": 223, "velocity": 75}, {"time": 76080, "pitch": 66, "duration": 223, "velocity": 80}, {"time": 76323, "pitch": 55, "duration": 460, "velocity": 80}, {"time": 76323, "pitch": 58, "duration": 460, "velocity": 80}, {"time": 76323, "pitch": 62, "duration": 460, "velocity": 85}, {"time": 76323, "pitch": 67, "duration": 460, "velocity": 90}, {"time": 76803, "pitch": 53, "duration": 460, "velocity": 80}, {"time": 76803, "pitch": 58, "duration": 460, "velocity": 80}, {"time": 76803, "pitch": 62, "duration": 460, "velocity": 85}, {"time": 76803, "pitch": 65, "duration": 460, "velocity": 90}, {"time": 77283, "pitch": 52, "duration": 1900, "velocity": 80}, {"time": 77283, "pitch": 55, "duration": 1900, "velocity": 80}, {"time": 77283, "pitch": 58, "duration": 1900, "velocity": 85}, {"time": 77283, "pitch": 64, "duration": 1900, "velocity": 90}, {"time": 78063, "pitch": 86, "duration": 1120, "velocity": 90}, {"time": 78123, "pitch": 82, "duration": 1060, "velocity": 85}, {"time": 78183, "pitch": 79, "duration": 1000, "velocity": 80}, {"time": 78243, "pitch": 76, "duration": 940, "velocity": 70}, {"time": 79203, "pitch": 34, "duration": 1900, "velocity": 90}, {"time": 79203, "pitch": 46, "duration": 1900, "velocity": 80}, {"time": 79203, "pitch": 58, "duration": 480, "velocity": 80}, {"time": 79203, "pitch": 62, "duration": 480, "velocity": 85}, {"time": 79203, "pitch": 65, "duration": 480, "velocity": 90}, {"time": 79683, "pitch": 58, "duration": 480, "velocity": 80}, {"time": 79683, "pitch": 62, "duration": 480, "velocity": 85}, {"time": 79683, "pitch": 65, "duration": 480, "velocity": 90}, {"time": 80163, "pitch": 58, "duration": 480, "velocity": 80}, {"time": 80163, "pitch": 62, "duration": 480, "velocity": 85}, {"time": 80163, "pitch": 66, "duration": 480, "velocity": 90}, {"time": 80643, "pitch": 58, "duration": 460, "velocity": 80}, {"time": 80643, "pitch": 62, "duration": 460, "velocity": 85}, {"time": 80643, "pitch": 66, "duration": 460, "velocity": 90}, {"time": 81123, "pitch": 34, "duration": 1900, "velocity": 90}, {"time": 81123, "pitch": 46, "duration": 1900, "velocity": 80}, {"time": 81123, "pitch": 58, "duration": 480, "velocity": 80}, {"time": 81123, "pitch": 62, "duration": 480, "velocity": 85}, {"time": 81123, "pitch": 67, "duration": 480, "velocity": 90}, {"time": 81603, "pitch": 58, "duration": 480, "velocity": 80}, {"time": 81603, "pitch": 62, "duration": 480, "velocity": 85}, {"time": 81603, "pitch": 67, "duration": 480, "velocity": 90}, {"time": 82083, "pitch": 58, "duration": 480, "velocity": 80}, {"time": 82083, "pitch": 62, "duration": 480, "velocity": 85}, {"time": 82083, "pitch": 68, "duration": 480, "velocity": 90}, {"time": 82563, "pitch": 58, "duration": 460, "velocity": 80}, {"time": 82563, "pitch": 62, "duration": 460, "velocity": 85}, {"time": 82563, "pitch": 68, "duration": 460, "velocity": 90}, {"time": 83043, "pitch": 51, "duration": 940, "velocity": 90}, {"time": 83043, "pitch": 58, "duration": 480, "velocity": 80}, {"time": 83043, "pitch": 63, "duration": 480, "velocity": 85}, {"time": 83043, "pitch": 67, "duration": 480, "velocity": 90}, {"time": 83523, "pitch": 58, "duration": 460, "velocity": 80}, {"time": 83523, "pitch": 63, "duration": 460, "velocity": 85}, {"time": 83523, "pitch": 67, "duration": 460, "velocity": 90}, {"time": 84003, "pitch": 50, "duration": 940, "velocity": 90}, {"time": 84003, "pitch": 58, "duration": 480, "velocity": 80}, {"time": 84003, "pitch": 62, "duration": 480, "velocity": 85}, {"time": 84003, "pitch": 65, "duration": 480, "velocity": 90}, {"time": 84483, "pitch": 58, "duration": 460, "velocity": 80}, {"time": 84483, "pitch": 62, "duration": 460, "velocity": 85}, {"time": 84483, "pitch": 65, "duration": 460, "velocity": 90}, {"time": 84963, "pitch": 48, "duration": 940, "velocity": 90}, {"time": 84963, "pitch": 55, "duration": 480, "velocity": 80}, {"time": 84963, "pitch": 58, "duration": 480, "velocity": 85}, {"time": 84963, "pitch": 63, "duration": 480, "velocity": 90}, {"time": 85443, "pitch": 55, "duration": 460, "velocity": 80}, {"time": 85443, "pitch": 58, "duration": 460, "velocity": 85}, {"time": 85443, "pitch": 63, "duration": 460, "velocity": 90}, {"time": 85923, "pitch": 44, "duration": 940, "velocity": 90}, {"time": 85923, "pitch": 55, "duration": 480, "velocity": 80}, {"time": 85923, "pitch": 60, "duration": 480, "velocity": 85}, {"time": 85923, "pitch": 63, "duration": 480, "velocity": 90}, {"time": 86403, "pitch": 55, "duration": 460, "velocity": 80}, {"time": 86403, "pitch": 60, "duration": 460, "velocity": 85}, {"time": 86403, "pitch": 63, "duration": 460, "velocity": 90}, {"time": 86883, "pitch": 43, "duration": 940, "velocity": 90}, {"time": 86883, "pitch": 60, "duration": 480, "velocity": 80}, {"time": 86883, "pitch": 62, "duration": 480, "velocity": 85}, {"time": 86883, "pitch": 67, "duration": 480, "velocity": 90}, {"time": 87363, "pitch": 60, "duration": 460, "velocity": 80}, {"time": 87363, "pitch": 62, "duration": 460, "velocity": 85}, {"time": 87363, "pitch": 67, "duration": 460, "velocity": 90}, {"time": 87603, "pitch": 55, "duration": 240, "velocity": 80}, {"time": 87843, "pitch": 43, "duration": 940, "velocity": 90}, {"time": 87843, "pitch": 59, "duration": 480, "velocity": 80}, {"time": 87843, "pitch": 62, "duration": 480, "velocity": 85}, {"time": 87843, "pitch": 67, "duration": 480, "velocity": 90}, {"time": 88323, "pitch": 59, "duration": 460, "velocity": 80}, {"time": 88323, "pitch": 62, "duration": 460, "velocity": 85}, {"time": 88323, "pitch": 67, "duration": 460, "velocity": 90}, {"time": 88563, "pitch": 55, "duration": 240, "velocity": 80}, {"time": 88803, "pitch": 43, "duration": 940, "velocity": 90}, {"time": 88803, "pitch": 57, "duration": 480, "velocity": 80}, {"time": 88803, "pitch": 60, "duration": 480, "velocity": 85}, {"time": 88803, "pitch": 67, "duration": 480, "velocity": 90}, {"time": 89283, "pitch": 67, "duration": 480, "velocity": 90}, {"time": 89523, "pitch": 60, "duration": 120, "velocity": 85}, {"time": 89643, "pitch": 65, "duration": 120, "velocity": 90}, {"time": 89763, "pitch": 43, "duration": 940, "velocity": 90}, {"time": 89763, "pitch": 59, "duration": 480, "velocity": 80}, {"time": 89763, "pitch": 62, "duration": 480, "velocity": 85}, {"time": 89763, "pitch": 67, "duration": 480, "velocity": 90}, {"time": 90243, "pitch": 59, "duration": 460, "velocity": 80}, {"time": 90243, "pitch": 62, "duration": 460, "velocity": 85}, {"time": 90243, "pitch": 67, "duration": 460, "velocity": 90}, {"time": 90483, "pitch": 55, "duration": 240, "velocity": 80}, {"time": 90723, "pitch": 36, "duration": 1440, "velocity": 90}, {"time": 90723, "pitch": 48, "duration": 1440, "velocity": 80}, {"time": 90723, "pitch": 62, "duration": 240, "velocity": 80}, {"time": 90723, "pitch": 64, "duration": 240, "velocity": 85}, {"time": 90723, "pitch": 67, "duration": 240, "velocity": 90}, {"time": 90963, "pitch": 60, "duration": 240, "velocity": 85}, {"time": 91203, "pitch": 62, "duration": 240, "velocity": 80}, {"time": 91203, "pitch": 64, "duration": 240, "velocity": 85}, {"time": 91203, "pitch": 67, "duration": 240, "velocity": 90}, {"time": 91443, "pitch": 60, "duration": 240, "velocity": 85}, {"time": 91683, "pitch": 62, "duration": 240, "velocity": 80}, {"time": 91683, "pitch": 64, "duration": 240, "velocity": 85}, {"time": 91683, "pitch": 67, "duration": 240, "velocity": 90}, {"time": 91923, "pitch": 60, "duration": 240, "velocity": 85}, {"time": 92163, "pitch": 36, "duration": 480, "velocity": 80}, {"time": 92163, "pitch": 48, "duration": 480, "velocity": 70}, {"time": 92163, "pitch": 62, "duration": 240, "velocity": 80}, {"time": 92163, "pitch": 64, "duration": 240, "velocity": 85}, {"time": 92163, "pitch": 67, "duration": 240, "velocity": 90}, {"time": 92403, "pitch": 60, "duration": 240, "velocity": 85}, {"time": 92643, "pitch": 40, "duration": 1439, "velocity": 90}, {"time": 92643, "pitch": 52, "duration": 1439, "velocity": 80}, {"time": 92643, "pitch": 62, "duration": 240, "velocity": 80}, {"time": 92643, "pitch": 64, "duration": 240, "velocity": 85}, {"time": 92643, "pitch": 68, "duration": 240, "velocity": 90}, {"time": 92883, "pitch": 59, "duration": 239, "velocity": 85}, {"time": 93122, "pitch": 62, "duration": 240, "velocity": 80}, {"time": 93122, "pitch": 64, "duration": 240, "velocity": 85}, {"time": 93122, "pitch": 68, "duration": 240, "velocity": 90}, {"time": 93362, "pitch": 59, "duration": 240, "velocity": 85}, {"time": 93602, "pitch": 62, "duration": 240, "velocity": 80}, {"time": 93602, "pitch": 64, "duration": 240, "velocity": 85}, {"time": 93602, "pitch": 68, "duration": 240, "velocity": 90}, {"time": 93842, "pitch": 59, "duration": 240, "velocity": 85}, {"time": 94082, "pitch": 40, "duration": 480, "velocity": 80}, {"time": 94082, "pitch": 52, "duration": 480, "velocity": 70}, {"time": 94082, "pitch": 62, "duration": 240, "velocity": 80}, {"time": 94082, "pitch": 64, "duration": 240, "velocity": 85}, {"time": 94082, "pitch": 68, "duration": 240, "velocity": 90}, {"time": 94322, "pitch": 59, "duration": 240, "velocity": 85}, {"time": 94562, "pitch": 45, "duration": 1440, "velocity": 90}, {"time": 94562, "pitch": 60, "duration": 240, "velocity": 80}, {"time": 94562, "pitch": 64, "duration": 240, "velocity": 85}, {"time": 94562, "pitch": 69, "duration": 240, "velocity": 90}, {"time": 94802, "pitch": 57, "duration": 240, "velocity": 85}, {"time": 95042, "pitch": 60, "duration": 240, "velocity": 80}, {"time": 95042, "pitch": 64, "duration": 240, "velocity": 85}, {"time": 95042, "pitch": 69, "duration": 240, "velocity": 90}, {"time": 95282, "pitch": 57, "duration": 240, "velocity": 85}, {"time": 95522, "pitch": 60, "duration": 240, "velocity": 80}, {"time": 95522, "pitch": 64, "duration": 240, "velocity": 85}, {"time": 95522, "pitch": 69, "duration": 240, "velocity": 90}, {"time": 95762, "pitch": 57, "duration": 240, "velocity": 85}, {"time": 96002, "pitch": 43, "duration": 460, "velocity": 80}, {"time": 96002, "pitch": 60, "duration": 240, "velocity": 80}, {"time": 96002, "pitch": 64, "duration": 240, "velocity": 85}, {"time": 96002, "pitch": 67, "duration": 240, "velocity": 90}, {"time": 96242, "pitch": 57, "duration": 240, "velocity": 85}, {"time": 96482, "pitch": 43, "duration": 1440, "velocity": 90}, {"time": 96482, "pitch": 58, "duration": 240, "velocity": 80}, {"time": 96482, "pitch": 62, "duration": 240, "velocity": 85}, {"time": 96482, "pitch": 65, "duration": 240, "velocity": 90}, {"time": 96722, "pitch": 55, "duration": 240, "velocity": 85}, {"time": 96962, "pitch": 58, "duration": 240, "velocity": 80}, {"time": 96962, "pitch": 62, "duration": 240, "velocity": 85}, {"time": 96962, "pitch": 65, "duration": 240, "velocity": 90}, {"time": 97202, "pitch": 55, "duration": 240, "velocity": 85}, {"time": 97442, "pitch": 48, "duration": 460, "velocity": 80}, {"time": 97442, "pitch": 58, "duration": 240, "velocity": 80}, {"time": 97442, "pitch": 64, "duration": 240, "velocity": 85}, {"time": 97442, "pitch": 67, "duration": 240, "velocity": 90}, {"time": 97682, "pitch": 55, "duration": 240, "velocity": 85}, {"time": 97922, "pitch": 36, "duration": 460, "velocity": 80}, {"time": 97922, "pitch": 58, "duration": 240, "velocity": 80}, {"time": 97922, "pitch": 64, "duration": 240, "velocity": 85}, {"time": 97922, "pitch": 67, "duration": 240, "velocity": 90}, {"time": 98162, "pitch": 55, "duration": 240, "velocity": 85}, {"time": 98402, "pitch": 41, "duration": 940, "velocity": 90}, {"time": 98402, "pitch": 57, "duration": 240, "velocity": 80}, {"time": 98402, "pitch": 60, "duration": 240, "velocity": 85}, {"time": 98402, "pitch": 64, "duration": 240, "velocity": 90}, {"time": 98642, "pitch": 53, "duration": 240, "velocity": 85}, {"time": 98882, "pitch": 57, "duration": 240, "velocity": 80}, {"time": 98882, "pitch": 60, "duration": 240, "velocity": 85}, {"time": 98882, "pitch": 64, "duration": 240, "velocity": 90}, {"time": 99122, "pitch": 53, "duration": 240, "velocity": 85}, {"time": 99362, "pitch": 41, "duration": 940, "velocity": 90}, {"time": 99362, "pitch": 55, "duration": 240, "velocity": 80}, {"time": 99362, "pitch": 59, "duration": 240, "velocity": 85}, {"time": 99362, "pitch": 62, "duration": 240, "velocity": 90}, {"time": 99602, "pitch": 53, "duration": 240, "velocity": 85}, {"time": 99842, "pitch": 55, "duration": 240, "velocity": 80}, {"time": 99842, "pitch": 59, "duration": 240, "velocity": 85}, {"time": 99842, "pitch": 62, "duration": 240, "velocity": 90}, {"time": 100082, "pitch": 53, "duration": 240, "velocity": 85}, {"time": 100322, "pitch": 40, "duration": 940, "velocity": 90}, {"time": 100322, "pitch": 59, "duration": 240, "velocity": 80}, {"time": 100322, "pitch": 62, "duration": 240, "velocity": 85}, {"time": 100322, "pitch": 67, "duration": 240, "velocity": 90}, {"time": 100562, "pitch": 55, "duration": 240, "velocity": 85}, {"time": 100802, "pitch": 59, "duration": 240, "velocity": 80}, {"time": 100802, "pitch": 62, "duration": 240, "velocity": 85}, {"time": 100802, "pitch": 67, "duration": 240, "velocity": 90}, {"time": 101042, "pitch": 55, "duration": 240, "velocity": 85}, {"time": 101282, "pitch": 45, "duration": 940, "velocity": 90}, {"time": 101282, "pitch": 60, "duration": 240, "velocity": 80}, {"time": 101282, "pitch": 64, "duration": 240, "velocity": 85}, {"time": 101282, "pitch": 67, "duration": 240, "velocity": 90}, {"time": 101522, "pitch": 55, "duration": 240, "velocity": 85}, {"time": 101762, "pitch": 60, "duration": 240, "velocity": 80}, {"time": 101762, "pitch": 64, "duration": 240, "velocity": 85}, {"time": 101762, "pitch": 67, "duration": 240, "velocity": 90}, {"time": 102002, "pitch": 55, "duration": 240, "velocity": 85}, {"time": 102242, "pitch": 50, "duration": 940, "velocity": 90}, {"time": 102242, "pitch": 57, "duration": 240, "velocity": 80}, {"time": 102242, "pitch": 60, "duration": 240, "velocity": 85}, {"time": 102242, "pitch": 65, "duration": 240, "velocity": 90}, {"time": 102482, "pitch": 53, "duration": 240, "velocity": 85}, {"time": 102722, "pitch": 57, "duration": 240, "velocity": 80}, {"time": 102722, "pitch": 60, "duration": 240, "velocity": 85}, {"time": 102722, "pitch": 65, "duration": 240, "velocity": 90}, {"time": 102962, "pitch": 53, "duration": 240, "velocity": 85}, {"time": 103202, "pitch": 43, "duration": 940, "velocity": 90}, {"time": 103202, "pitch": 57, "duration": 240, "velocity": 80}, {"time": 103202, "pitch": 60, "duration": 240, "velocity": 85}, {"time": 103202, "pitch": 65, "duration": 240, "velocity": 90}, {"time": 103442, "pitch": 53, "duration": 240, "velocity": 85}, {"time": 103682, "pitch": 57, "duration": 240, "velocity": 80}, {"time": 103682, "pitch": 60, "duration": 240, "velocity": 85}, {"time": 103682, "pitch": 65, "duration": 240, "velocity": 90}, {"time": 103922, "pitch": 53, "duration": 240, "velocity": 85}, {"time": 104162, "pitch": 48, "duration": 960, "velocity": 90}, {"time": 104162, "pitch": 55, "duration": 480, "velocity": 80}, {"time": 104162, "pitch": 60, "duration": 480, "velocity": 85}, {"time": 104162, "pitch": 64, "duration": 480, "velocity": 90}, {"time": 104642, "pitch": 55, "duration": 480, "velocity": 80}, {"time": 105122, "pitch": 44, "duration": 480, "velocity": 95}, {"time": 105122, "pitch": 51, "duration": 480, "velocity": 85}, {"time": 105122, "pitch": 56, "duration": 480, "velocity": 90}, {"time": 105122, "pitch": 60, "duration": 480, "velocity": 95}, {"time": 105602, "pitch": 44, "duration": 480, "velocity": 95}, {"time": 105602, "pitch": 51, "duration": 480, "velocity": 90}, {"time": 105602, "pitch": 56, "duration": 480, "velocity": 95}, {"time": 105602, "pitch": 61, "duration": 240, "velocity": 100}, {"time": 105842, "pitch": 63, "duration": 240, "velocity": 95}, {"time": 106082, "pitch": 37, "duration": 1440, "velocity": 90}, {"time": 106082, "pitch": 49, "duration": 1440, "velocity": 80}, {"time": 106082, "pitch": 63, "duration": 240, "velocity": 80}, {"time": 106082, "pitch": 65, "duration": 240, "velocity": 85}, {"time": 106082, "pitch": 68, "duration": 240, "velocity": 90}, {"time": 106322, "pitch": 61, "duration": 240, "velocity": 85}, {"time": 106562, "pitch": 63, "duration": 240, "velocity": 80}, {"time": 106562, "pitch": 65, "duration": 240, "velocity": 85}, {"time": 106562, "pitch": 68, "duration": 240, "velocity": 90}, {"time": 106802, "pitch": 61, "duration": 240, "velocity": 85}, {"time": 107042, "pitch": 63, "duration": 240, "velocity": 80}, {"time": 107042, "pitch": 65, "duration": 240, "velocity": 85}, {"time": 107042, "pitch": 68, "duration": 240, "velocity": 90}, {"time": 107282, "pitch": 61, "duration": 240, "velocity": 85}, {"time": 107522, "pitch": 37, "duration": 480, "velocity": 80}, {"time": 107522, "pitch": 49, "duration": 480, "velocity": 70}, {"time": 107522, "pitch": 63, "duration": 240, "velocity": 80}, {"time": 107522, "pitch": 65, "duration": 240, "velocity": 85}, {"time": 107522, "pitch": 68, "duration": 240, "velocity": 90}, {"time": 107762, "pitch": 61, "duration": 240, "velocity": 85}, {"time": 108002, "pitch": 41, "duration": 1440, "velocity": 90}, {"time": 108002, "pitch": 53, "duration": 1440, "velocity": 80}, {"time": 108002, "pitch": 63, "duration": 240, "velocity": 80}, {"time": 108002, "pitch": 65, "duration": 240, "velocity": 85}, {"time": 108002, "pitch": 69, "duration": 240, "velocity": 90}, {"time": 108242, "pitch": 60, "duration": 240, "velocity": 85}, {"time": 108482, "pitch": 63, "duration": 240, "velocity": 80}, {"time": 108482, "pitch": 65, "duration": 240, "velocity": 85}, {"time": 108482, "pitch": 69, "duration": 240, "velocity": 90}, {"time": 108722, "pitch": 60, "duration": 240, "velocity": 85}, {"time": 108962, "pitch": 63, "duration": 240, "velocity": 80}, {"time": 108962, "pitch": 65, "duration": 240, "velocity": 85}, {"time": 108962, "pitch": 69, "duration": 240, "velocity": 90}, {"time": 109202, "pitch": 60, "duration": 240, "velocity": 85}, {"time": 109442, "pitch": 41, "duration": 480, "velocity": 80}, {"time": 109442, "pitch": 53, "duration": 480, "velocity": 70}, {"time": 109442, "pitch": 63, "duration": 240, "velocity": 80}, {"time": 109442, "pitch": 65, "duration": 240, "velocity": 85}, {"time": 109442, "pitch": 69, "duration": 240, "velocity": 90}, {"time": 109682, "pitch": 60, "duration": 240, "velocity": 85}, {"time": 109922, "pitch": 46, "duration": 1440, "velocity": 90}, {"time": 109922, "pitch": 61, "duration": 240, "velocity": 80}, {"time": 109922, "pitch": 65, "duration": 240, "velocity": 85}, {"time": 109922, "pitch": 70, "duration": 240, "velocity": 90}, {"time": 110162, "pitch": 58, "duration": 240, "velocity": 85}, {"time": 110402, "pitch": 61, "duration": 240, "velocity": 80}, {"time": 110402, "pitch": 65, "duration": 240, "velocity": 85}, {"time": 110402, "pitch": 70, "duration": 240, "velocity": 90}, {"time": 110642, "pitch": 58, "duration": 240, "velocity": 85}, {"time": 110882, "pitch": 61, "duration": 240, "velocity": 80}, {"time": 110882, "pitch": 65, "duration": 240, "velocity": 85}, {"time": 110882, "pitch": 70, "duration": 240, "velocity": 90}, {"time": 111122, "pitch": 58, "duration": 240, "velocity": 85}, {"time": 111362, "pitch": 44, "duration": 460, "velocity": 80}, {"time": 111362, "pitch": 61, "duration": 240, "velocity": 80}, {"time": 111362, "pitch": 65, "duration": 240, "velocity": 85}, {"time": 111362, "pitch": 68, "duration": 240, "velocity": 90}, {"time": 111602, "pitch": 58, "duration": 240, "velocity": 85}, {"time": 111842, "pitch": 44, "duration": 1440, "velocity": 90}, {"time": 111842, "pitch": 59, "duration": 240, "velocity": 80}, {"time": 111842, "pitch": 63, "duration": 240, "velocity": 85}, {"time": 111842, "pitch": 66, "duration": 240, "velocity": 90}, {"time": 112082, "pitch": 56, "duration": 240, "velocity": 85}, {"time": 112322, "pitch": 59, "duration": 240, "velocity": 80}, {"time": 112322, "pitch": 63, "duration": 240, "velocity": 85}, {"time": 112322, "pitch": 66, "duration": 240, "velocity": 90}, {"time": 112562, "pitch": 56, "duration": 240, "velocity": 85}, {"time": 112802, "pitch": 49, "duration": 460, "velocity": 80}, {"time": 112802, "pitch": 59, "duration": 240, "velocity": 80}, {"time": 112802, "pitch": 65, "duration": 240, "velocity": 85}, {"time": 112802, "pitch": 68, "duration": 240, "velocity": 90}, {"time": 113042, "pitch": 56, "duration": 240, "velocity": 85}, {"time": 113282, "pitch": 37, "duration": 460, "velocity": 80}, {"time": 113282, "pitch": 59, "duration": 240, "velocity": 80}, {"time": 113282, "pitch": 65, "duration": 240, "velocity": 85}, {"time": 113282, "pitch": 68, "duration": 240, "velocity": 90}, {"time": 113522, "pitch": 56, "duration": 240, "velocity": 85}, {"time": 113762, "pitch": 42, "duration": 940, "velocity": 90}, {"time": 113762, "pitch": 58, "duration": 240, "velocity": 80}, {"time": 113762, "pitch": 61, "duration": 240, "velocity": 85}, {"time": 113762, "pitch": 65, "duration": 240, "velocity": 90}, {"time": 114002, "pitch": 54, "duration": 240, "velocity": 85}, {"time": 114242, "pitch": 58, "duration": 240, "velocity": 80}, {"time": 114242, "pitch": 61, "duration": 240, "velocity": 85}, {"time": 114242, "pitch": 65, "duration": 240, "velocity": 90}, {"time": 114482, "pitch": 54, "duration": 240, "velocity": 85}, {"time": 114722, "pitch": 42, "duration": 940, "velocity": 90}, {"time": 114722, "pitch": 56, "duration": 240, "velocity": 80}, {"time": 114722, "pitch": 60, "duration": 240, "velocity": 85}, {"time": 114722, "pitch": 63, "duration": 240, "velocity": 90}, {"time": 114962, "pitch": 54, "duration": 240, "velocity": 85}, {"time": 115202, "pitch": 56, "duration": 240, "velocity": 80}, {"time": 115202, "pitch": 60, "duration": 240, "velocity": 85}, {"time": 115202, "pitch": 63, "duration": 240, "velocity": 90}, {"time": 115442, "pitch": 54, "duration": 240, "velocity": 85}, {"time": 115682, "pitch": 41, "duration": 940, "velocity": 90}, {"time": 115682, "pitch": 60, "duration": 240, "velocity": 80}, {"time": 115682, "pitch": 63, "duration": 240, "velocity": 85}, {"time": 115682, "pitch": 68, "duration": 240, "velocity": 90}, {"time": 115922, "pitch": 56, "duration": 240, "velocity": 85}, {"time": 116162, "pitch": 60, "duration": 240, "velocity": 80}, {"time": 116162, "pitch": 63, "duration": 240, "velocity": 85}, {"time": 116162, "pitch": 68, "duration": 240, "velocity": 90}, {"time": 116402, "pitch": 56, "duration": 240, "velocity": 85}, {"time": 116642, "pitch": 46, "duration": 939, "velocity": 90}, {"time": 116642, "pitch": 61, "duration": 240, "velocity": 80}, {"time": 116642, "pitch": 65, "duration": 240, "velocity": 85}, {"time": 116642, "pitch": 68, "duration": 240, "velocity": 90}, {"time": 116882, "pitch": 56, "duration": 239, "velocity": 85}, {"time": 117121, "pitch": 61, "duration": 240, "velocity": 80}, {"time": 117121, "pitch": 65, "duration": 240, "velocity": 85}, {"time": 117121, "pitch": 68, "duration": 240, "velocity": 90}, {"time": 117361, "pitch": 56, "duration": 240, "velocity": 85}, {"time": 117601, "pitch": 39, "duration": 1900, "velocity": 90}, {"time": 117601, "pitch": 51, "duration": 1900, "velocity": 80}, {"time": 117601, "pitch": 58, "duration": 240, "velocity": 80}, {"time": 117601, "pitch": 61, "duration": 240, "velocity": 85}, {"time": 117601, "pitch": 66, "duration": 240, "velocity": 90}, {"time": 117841, "pitch": 54, "duration": 240, "velocity": 85}, {"time": 118081, "pitch": 54, "duration": 480, "velocity": 85}, {"time": 118081, "pitch": 58, "duration": 480, "velocity": 90}, {"time": 118321, "pitch": 61, "duration": 240, "velocity": 85}, {"time": 118561, "pitch": 58, "duration": 480, "velocity": 85}, {"time": 118561, "pitch": 63, "duration": 480, "velocity": 90}, {"time": 118801, "pitch": 54, "duration": 240, "velocity": 90}, {"time": 119041, "pitch": 63, "duration": 480, "velocity": 95}, {"time": 119041, "pitch": 66, "duration": 480, "velocity": 100}, {"time": 119281, "pitch": 58, "duration": 240, "velocity": 95}, {"time": 119521, "pitch": 44, "duration": 1440, "velocity": 100}, {"time": 119521, "pitch": 61, "duration": 480, "velocity": 85}, {"time": 119521, "pitch": 63, "duration": 480, "velocity": 90}, {"time": 119521, "pitch": 66, "duration": 480, "velocity": 95}, {"time": 119521, "pitch": 70, "duration": 480, "velocity": 100}, {"time": 120001, "pitch": 56, "duration": 480, "velocity": 95}, {"time": 120481, "pitch": 58, "duration": 480, "velocity": 85}, {"time": 120481, "pitch": 61, "duration": 480, "velocity": 90}, {"time": 120481, "pitch": 63, "duration": 480, "velocity": 95}, {"time": 120481, "pitch": 66, "duration": 480, "velocity": 100}, {"time": 120961, "pitch": 44, "duration": 480, "velocity": 100}, {"time": 120961, "pitch": 56, "duration": 480, "velocity": 90}, {"time": 121441, "pitch": 37, "duration": 480, "velocity": 100}, {"time": 121441, "pitch": 56, "duration": 120, "velocity": 90}, {"time": 121441, "pitch": 61, "duration": 120, "velocity": 90}, {"time": 121441, "pitch": 65, "duration": 120, "velocity": 100}, {"time": 121681, "pitch": 56, "duration": 120, "velocity": 95}, {"time": 121921, "pitch": 61, "duration": 120, "velocity": 100}, {"time": 122161, "pitch": 63, "duration": 120, "velocity": 95}, {"time": 122401, "pitch": 61, "duration": 120, "velocity": 90}, {"time": 122401, "pitch": 65, "duration": 120, "velocity": 100}, {"time": 122641, "pitch": 56, "duration": 240, "velocity": 90}, {"time": 122881, "pitch": 37, "duration": 480, "velocity": 100}, {"time": 122881, "pitch": 58, "duration": 120, "velocity": 90}, {"time": 122881, "pitch": 61, "duration": 120, "velocity": 90}, {"time": 122881, "pitch": 66, "duration": 120, "velocity": 100}, {"time": 123121, "pitch": 61, "duration": 120, "velocity": 95}, {"time": 123361, "pitch": 37, "duration": 1900, "velocity": 100}, {"time": 123361, "pitch": 56, "duration": 480, "velocity": 90}, {"time": 123361, "pitch": 61, "duration": 480, "velocity": 90}, {"time": 123361, "pitch": 65, "duration": 480, "velocity": 100}, {"time": 123841, "pitch": 75, "duration": 120, "velocity": 110}, {"time": 123841, "pitch": 80, "duration": 480, "velocity": 100}, {"time": 123961, "pitch": 77, "duration": 120, "velocity": 90}, {"time": 124081, "pitch": 73, "duration": 240, "velocity": 80}, {"time": 124321, "pitch": 70, "duration": 480, "velocity": 100}, {"time": 124321, "pitch": 73, "duration": 480, "velocity": 90}, {"time": 124561, "pitch": 66, "duration": 480, "velocity": 90}, {"time": 124801, "pitch": 70, "duration": 120, "velocity": 90}, {"time": 124801, "pitch": 73, "duration": 480, "velocity": 80}, {"time": 124921, "pitch": 68, "duration": 120, "velocity": 85}, {"time": 125041, "pitch": 66, "duration": 240, "velocity": 80}, {"time": 125281, "pitch": 37, "duration": 941, "velocity": 100}, {"time": 125281, "pitch": 56, "duration": 477, "velocity": 90}, {"time": 125281, "pitch": 61, "duration": 477, "velocity": 90}, {"time": 125281, "pitch": 65, "duration": 477, "velocity": 100}, {"time": 125512, "pitch": 49, "duration": 246, "velocity": 80}, {"time": 125758, "pitch": 56, "duration": 484, "velocity": 100}, {"time": 126242, "pitch": 37, "duration": 918, "velocity": 90}, {"time": 126242, "pitch": 54, "duration": 527, "velocity": 90}, {"time": 126242, "pitch": 58, "duration": 527, "velocity": 100}, {"time": 126512, "pitch": 49, "duration": 257, "velocity": 80}, {"time": 126769, "pitch": 54, "duration": 410, "velocity": 90}, {"time": 126769, "pitch": 61, "duration": 185, "velocity": 100}, {"time": 126954, "pitch": 63, "duration": 225, "velocity": 90}, {"time": 127179, "pitch": 37, "duration": 1797, "velocity": 90}, {"time": 127179, "pitch": 56, "duration": 1797, "velocity": 80}, {"time": 127179, "pitch": 61, "duration": 1797, "velocity": 85}, {"time": 127179, "pitch": 65, "duration": 1797, "velocity": 90}, {"time": 4560, "pitch": 43, "duration": 240, "velocity": 100}, {"time": 4800, "pitch": 48, "duration": 240, "velocity": 105}, {"time": 5040, "pitch": 52, "duration": 240, "velocity": 110}, {"time": 5280, "pitch": 53, "duration": 480, "velocity": 105}, {"time": 5760, "pitch": 53, "duration": 480, "velocity": 100}, {"time": 6240, "pitch": 52, "duration": 220, "velocity": 90}, {"time": 6480, "pitch": 55, "duration": 240, "velocity": 100}, {"time": 6720, "pitch": 60, "duration": 240, "velocity": 105}, {"time": 6960, "pitch": 64, "duration": 240, "velocity": 110}, {"time": 7200, "pitch": 65, "duration": 480, "velocity": 105}, {"time": 7680, "pitch": 65, "duration": 480, "velocity": 100}, {"time": 8160, "pitch": 64, "duration": 1680, "velocity": 100}, {"time": 9840, "pitch": 62, "duration": 240, "velocity": 90}, {"time": 10080, "pitch": 64, "duration": 1439, "velocity": 80}, {"time": 23519, "pitch": 58, "duration": 960, "velocity": 80}, {"time": 24479, "pitch": 57, "duration": 960, "velocity": 70}, {"time": 25439, "pitch": 55, "duration": 480, "velocity": 80}, {"time": 25919, "pitch": 53, "duration": 480, "velocity": 70}, {"time": 26399, "pitch": 52, "duration": 1900, "velocity": 70}, {"time": 28319, "pitch": 53, "duration": 960, "velocity": 80}, {"time": 29279, "pitch": 54, "duration": 960, "velocity": 85}, {"time": 30239, "pitch": 55, "duration": 960, "velocity": 90}, {"time": 31199, "pitch": 56, "duration": 480, "velocity": 90}, {"time": 31679, "pitch": 58, "duration": 240, "velocity": 85}, {"time": 31919, "pitch": 60, "duration": 240, "velocity": 90}, {"time": 32159, "pitch": 62, "duration": 960, "velocity": 90}, {"time": 33119, "pitch": 60, "duration": 960, "velocity": 85}, {"time": 34079, "pitch": 58, "duration": 1439, "velocity": 90}, {"time": 35518, "pitch": 60, "duration": 480, "velocity": 85}, {"time": 35998, "pitch": 60, "duration": 960, "velocity": 90}, {"time": 36958, "pitch": 59, "duration": 960, "velocity": 90}, {"time": 37918, "pitch": 57, "duration": 960, "velocity": 90}, {"time": 38878, "pitch": 55, "duration": 960, "velocity": 90}, {"time": 39838, "pitch": 48, "duration": 240, "velocity": 100}, {"time": 40078, "pitch": 55, "duration": 240, "velocity": 95}, {"time": 40318, "pitch": 62, "duration": 360, "velocity": 100}, {"time": 40678, "pitch": 60, "duration": 120, "velocity": 95}, {"time": 40798, "pitch": 67, "duration": 720, "velocity": 90}, {"time": 41518, "pitch": 48, "duration": 240, "velocity": 90}, {"time": 41758, "pitch": 47, "duration": 240, "velocity": 100}, {"time": 41998, "pitch": 56, "duration": 240, "velocity": 95}, {"time": 42238, "pitch": 65, "duration": 360, "velocity": 100}, {"time": 42598, "pitch": 64, "duration": 120, "velocity": 95}, {"time": 42718, "pitch": 59, "duration": 720, "velocity": 90}, {"time": 43438, "pitch": 47, "duration": 240, "velocity": 90}, {"time": 43678, "pitch": 45, "duration": 240, "velocity": 100}, {"time": 43918, "pitch": 52, "duration": 240, "velocity": 95}, {"time": 44158, "pitch": 54, "duration": 360, "velocity": 100}, {"time": 44518, "pitch": 56, "duration": 120, "velocity": 95}, {"time": 44638, "pitch": 57, "duration": 480, "velocity": 90}, {"time": 45118, "pitch": 59, "duration": 240, "velocity": 90}, {"time": 45358, "pitch": 60, "duration": 240, "velocity": 85}, {"time": 45598, "pitch": 62, "duration": 480, "velocity": 90}, {"time": 46078, "pitch": 64, "duration": 240, "velocity": 90}, {"time": 46318, "pitch": 65, "duration": 240, "velocity": 85}, {"time": 46558, "pitch": 67, "duration": 480, "velocity": 90}, {"time": 47038, "pitch": 60, "duration": 480, "velocity": 85}, {"time": 47518, "pitch": 69, "duration": 720, "velocity": 90}, {"time": 48238, "pitch": 60, "duration": 240, "velocity": 85}, {"time": 48478, "pitch": 59, "duration": 960, "velocity": 90}, {"time": 49438, "pitch": 67, "duration": 720, "velocity": 90}, {"time": 50158, "pitch": 59, "duration": 240, "velocity": 85}, {"time": 50398, "pitch": 57, "duration": 960, "velocity": 90}, {"time": 51358, "pitch": 65, "duration": 720, "velocity": 90}, {"time": 52078, "pitch": 57, "duration": 240, "velocity": 85}, {"time": 52318, "pitch": 57, "duration": 480, "velocity": 90}, {"time": 52798, "pitch": 55, "duration": 240, "velocity": 90}, {"time": 53038, "pitch": 53, "duration": 240, "velocity": 85}, {"time": 53278, "pitch": 55, "duration": 1680, "velocity": 80}, {"time": 55198, "pitch": 60, "duration": 720, "velocity": 100}, {"time": 55918, "pitch": 63, "duration": 240, "velocity": 90}, {"time": 56158, "pitch": 65, "duration": 720, "velocity": 100}, {"time": 56878, "pitch": 68, "duration": 240, "velocity": 90}, {"time": 57118, "pitch": 70, "duration": 480, "velocity": 100}, {"time": 57598, "pitch": 70, "duration": 960, "velocity": 90}, {"time": 58558, "pitch": 63, "duration": 480, "velocity": 80}, {"time": 59038, "pitch": 60, "duration": 719, "velocity": 100}, {"time": 59757, "pitch": 63, "duration": 240, "velocity": 90}, {"time": 59997, "pitch": 65, "duration": 720, "velocity": 100}, {"time": 60717, "pitch": 68, "duration": 240, "velocity": 90}, {"time": 60957, "pitch": 67, "duration": 480, "velocity": 100}, {"time": 61437, "pitch": 67, "duration": 1200, "velocity": 90}, {"time": 74397, "pitch": 58, "duration": 960, "velocity": 80}, {"time": 75357, "pitch": 57, "duration": 966, "velocity": 70}, {"time": 76323, "pitch": 55, "duration": 480, "velocity": 80}, {"time": 76803, "pitch": 53, "duration": 480, "velocity": 70}, {"time": 77283, "pitch": 52, "duration": 1900, "velocity": 70}, {"time": 79203, "pitch": 53, "duration": 960, "velocity": 80}, {"time": 80163, "pitch": 54, "duration": 960, "velocity": 85}, {"time": 81123, "pitch": 55, "duration": 960, "velocity": 90}, {"time": 82083, "pitch": 56, "duration": 480, "velocity": 90}, {"time": 82563, "pitch": 58, "duration": 240, "velocity": 85}, {"time": 82803, "pitch": 60, "duration": 240, "velocity": 90}, {"time": 83043, "pitch": 62, "duration": 960, "velocity": 90}, {"time": 84003, "pitch": 60, "duration": 960, "velocity": 85}, {"time": 84963, "pitch": 58, "duration": 1440, "velocity": 90}, {"time": 86403, "pitch": 60, "duration": 480, "velocity": 85}, {"time": 86883, "pitch": 60, "duration": 960, "velocity": 90}, {"time": 87843, "pitch": 59, "duration": 960, "velocity": 90}, {"time": 88803, "pitch": 57, "duration": 960, "velocity": 90}, {"time": 89763, "pitch": 55, "duration": 960, "velocity": 90}, {"time": 90723, "pitch": 48, "duration": 240, "velocity": 100}, {"time": 90963, "pitch": 55, "duration": 240, "velocity": 95}, {"time": 91203, "pitch": 62, "duration": 360, "velocity": 100}, {"time": 91563, "pitch": 60, "duration": 120, "velocity": 95}, {"time": 91683, "pitch": 67, "duration": 720, "velocity": 90}, {"time": 92403, "pitch": 48, "duration": 240, "velocity": 90}, {"time": 92643, "pitch": 47, "duration": 240, "velocity": 100}, {"time": 92883, "pitch": 56, "duration": 239, "velocity": 95}, {"time": 93122, "pitch": 65, "duration": 360, "velocity": 100}, {"time": 93482, "pitch": 64, "duration": 120, "velocity": 95}, {"time": 93602, "pitch": 59, "duration": 720, "velocity": 90}, {"time": 94322, "pitch": 47, "duration": 240, "velocity": 90}, {"time": 94562, "pitch": 45, "duration": 240, "velocity": 100}, {"time": 94802, "pitch": 52, "duration": 240, "velocity": 95}, {"time": 95042, "pitch": 54, "duration": 360, "velocity": 100}, {"time": 95402, "pitch": 56, "duration": 120, "velocity": 95}, {"time": 95522, "pitch": 57, "duration": 480, "velocity": 90}, {"time": 96002, "pitch": 59, "duration": 240, "velocity": 90}, {"time": 96242, "pitch": 60, "duration": 240, "velocity": 85}, {"time": 96482, "pitch": 62, "duration": 480, "velocity": 90}, {"time": 96962, "pitch": 64, "duration": 240, "velocity": 90}, {"time": 97202, "pitch": 65, "duration": 240, "velocity": 85}, {"time": 97442, "pitch": 67, "duration": 480, "velocity": 90}, {"time": 97922, "pitch": 60, "duration": 480, "velocity": 85}, {"time": 98402, "pitch": 69, "duration": 720, "velocity": 90}, {"time": 99122, "pitch": 60, "duration": 240, "velocity": 85}, {"time": 99362, "pitch": 59, "duration": 960, "velocity": 90}, {"time": 100322, "pitch": 67, "duration": 720, "velocity": 90}, {"time": 101042, "pitch": 59, "duration": 240, "velocity": 85}, {"time": 101282, "pitch": 57, "duration": 960, "velocity": 90}, {"time": 102242, "pitch": 65, "duration": 720, "velocity": 90}, {"time": 102962, "pitch": 57, "duration": 240, "velocity": 85}, {"time": 103202, "pitch": 57, "duration": 480, "velocity": 90}, {"time": 103682, "pitch": 55, "duration": 240, "velocity": 90}, {"time": 103922, "pitch": 53, "duration": 240, "velocity": 85}, {"time": 104162, "pitch": 55, "duration": 970, "velocity": 80}, {"time": 105122, "pitch": 44, "duration": 480, "velocity": 90}, {"time": 105602, "pitch": 46, "duration": 240, "velocity": 90}, {"time": 105842, "pitch": 48, "duration": 240, "velocity": 85}, {"time": 106082, "pitch": 49, "duration": 240, "velocity": 100}, {"time": 106322, "pitch": 56, "duration": 240, "velocity": 95}, {"time": 106562, "pitch": 63, "duration": 360, "velocity": 100}, {"time": 106922, "pitch": 61, "duration": 120, "velocity": 95}, {"time": 107042, "pitch": 68, "duration": 720, "velocity": 90}, {"time": 107762, "pitch": 49, "duration": 240, "velocity": 90}, {"time": 108002, "pitch": 48, "duration": 240, "velocity": 100}, {"time": 108242, "pitch": 57, "duration": 240, "velocity": 95}, {"time": 108482, "pitch": 66, "duration": 360, "velocity": 100}, {"time": 108842, "pitch": 65, "duration": 120, "velocity": 95}, {"time": 108962, "pitch": 60, "duration": 720, "velocity": 90}, {"time": 109682, "pitch": 48, "duration": 240, "velocity": 90}, {"time": 109922, "pitch": 46, "duration": 240, "velocity": 100}, {"time": 110162, "pitch": 53, "duration": 240, "velocity": 95}, {"time": 110402, "pitch": 55, "duration": 360, "velocity": 100}, {"time": 110762, "pitch": 57, "duration": 120, "velocity": 95}, {"time": 110882, "pitch": 58, "duration": 480, "velocity": 90}, {"time": 111362, "pitch": 60, "duration": 240, "velocity": 90}, {"time": 111602, "pitch": 61, "duration": 240, "velocity": 85}, {"time": 111842, "pitch": 63, "duration": 480, "velocity": 90}, {"time": 112322, "pitch": 65, "duration": 240, "velocity": 90}, {"time": 112562, "pitch": 66, "duration": 240, "velocity": 85}, {"time": 112802, "pitch": 68, "duration": 480, "velocity": 90}, {"time": 113282, "pitch": 61, "duration": 480, "velocity": 85}, {"time": 113762, "pitch": 70, "duration": 720, "velocity": 90}, {"time": 114482, "pitch": 61, "duration": 240, "velocity": 85}, {"time": 114722, "pitch": 60, "duration": 960, "velocity": 90}, {"time": 115682, "pitch": 68, "duration": 720, "velocity": 90}, {"time": 116402, "pitch": 60, "duration": 240, "velocity": 85}, {"time": 116642, "pitch": 58, "duration": 959, "velocity": 90}, {"time": 117601, "pitch": 66, "duration": 720, "velocity": 90}, {"time": 118321, "pitch": 58, "duration": 240, "velocity": 85}, {"time": 118561, "pitch": 61, "duration": 480, "velocity": 90}, {"time": 119041, "pitch": 63, "duration": 240, "velocity": 90}, {"time": 119281, "pitch": 65, "duration": 240, "velocity": 85}, {"time": 119521, "pitch": 66, "duration": 1440, "velocity": 90}, {"time": 120961, "pitch": 66, "duration": 480, "velocity": 85}, {"time": 121441, "pitch": 65, "duration": 240, "velocity": 80}, {"time": 121681, "pitch": 44, "duration": 240, "velocity": 95}, {"time": 121921, "pitch": 49, "duration": 240, "velocity": 100}, {"time": 122161, "pitch": 53, "duration": 240, "velocity": 95}, {"time": 122401, "pitch": 54, "duration": 480, "velocity": 100}, {"time": 122881, "pitch": 54, "duration": 480, "velocity": 100}, {"time": 123361, "pitch": 53, "duration": 240, "velocity": 80}, {"time": 123601, "pitch": 56, "duration": 240, "velocity": 95}, {"time": 123841, "pitch": 61, "duration": 240, "velocity": 100}, {"time": 124081, "pitch": 65, "duration": 240, "velocity": 95}, {"time": 124321, "pitch": 66, "duration": 480, "velocity": 100}, {"time": 124801, "pitch": 66, "duration": 480, "velocity": 100}, {"time": 125281, "pitch": 65, "duration": 1673, "velocity": 100}, {"time": 126954, "pitch": 63, "duration": 225, "velocity": 90}, {"time": 127179, "pitch": 65, "duration": 1797, "velocity": 90}, {"time": 11759, "pitch": 55, "duration": 240, "velocity": 100}, {"time": 11999, "pitch": 64, "duration": 240, "velocity": 100}, {"time": 12239, "pitch": 63, "duration": 120, "velocity": 100}, {"time": 12359, "pitch": 64, "duration": 360, "velocity": 100}, {"time": 12719, "pitch": 64, "duration": 120, "velocity": 100}, {"time": 12839, "pitch": 65, "duration": 120, "velocity": 100}, {"time": 12959, "pitch": 67, "duration": 720, "velocity": 100}, {"time": 13679, "pitch": 55, "duration": 240, "velocity": 100}, {"time": 13919, "pitch": 63, "duration": 240, "velocity": 100}, {"time": 14159, "pitch": 62, "duration": 120, "velocity": 100}, {"time": 14279, "pitch": 63, "duration": 360, "velocity": 100}, {"time": 14639, "pitch": 63, "duration": 120, "velocity": 100}, {"time": 14759, "pitch": 65, "duration": 120, "velocity": 100}, {"time": 14879, "pitch": 67, "duration": 720, "velocity": 100}, {"time": 15599, "pitch": 67, "duration": 120, "velocity": 100}, {"time": 15719, "pitch": 67, "duration": 120, "velocity": 100}, {"time": 15839, "pitch": 65, "duration": 240, "velocity": 100}, {"time": 16079, "pitch": 62, "duration": 120, "velocity": 100}, {"time": 16199, "pitch": 65, "duration": 360, "velocity": 100}, {"time": 16559, "pitch": 65, "duration": 240, "velocity": 100}, {"time": 16799, "pitch": 69, "duration": 240, "velocity": 100}, {"time": 17039, "pitch": 70, "duration": 120, "velocity": 100}, {"time": 17159, "pitch": 70, "duration": 360, "velocity": 100}, {"time": 17519, "pitch": 65, "duration": 240, "velocity": 100}, {"time": 17759, "pitch": 63, "duration": 240, "velocity": 100}, {"time": 17999, "pitch": 62, "duration": 120, "velocity": 100}, {"time": 18119, "pitch": 63, "duration": 240, "velocity": 100}, {"time": 18359, "pitch": 55, "duration": 120, "velocity": 100}, {"time": 18479, "pitch": 57, "duration": 120, "velocity": 100}, {"time": 18599, "pitch": 58, "duration": 120, "velocity": 100}, {"time": 18719, "pitch": 60, "duration": 720, "velocity": 100}, {"time": 19439, "pitch": 58, "duration": 120, "velocity": 100}, {"time": 19559, "pitch": 58, "duration": 120, "velocity": 100}, {"time": 19679, "pitch": 67, "duration": 600, "velocity": 100}, {"time": 20279, "pitch": 67, "duration": 120, "velocity": 100}, {"time": 20399, "pitch": 69, "duration": 120, "velocity": 100}, {"time": 20519, "pitch": 70, "duration": 120, "velocity": 100}, {"time": 20639, "pitch": 65, "duration": 720, "velocity": 100}, {"time": 21359, "pitch": 62, "duration": 120, "velocity": 100}, {"time": 21479, "pitch": 65, "duration": 120, "velocity": 100}, {"time": 21599, "pitch": 63, "duration": 600, "velocity": 100}, {"time": 22199, "pitch": 63, "duration": 120, "velocity": 100}, {"time": 22319, "pitch": 62, "duration": 120, "velocity": 100}, {"time": 22439, "pitch": 60, "duration": 120, "velocity": 100}, {"time": 22559, "pitch": 65, "duration": 720, "velocity": 100}, {"time": 23279, "pitch": 58, "duration": 120, "velocity": 100}, {"time": 23399, "pitch": 58, "duration": 120, "velocity": 100}, {"time": 23519, "pitch": 67, "duration": 240, "velocity": 100}, {"time": 23759, "pitch": 66, "duration": 120, "velocity": 100}, {"time": 23879, "pitch": 67, "duration": 360, "velocity": 100}, {"time": 24239, "pitch": 58, "duration": 120, "velocity": 100}, {"time": 24359, "pitch": 58, "duration": 120, "velocity": 100}, {"time": 24479, "pitch": 69, "duration": 240, "velocity": 100}, {"time": 24719, "pitch": 68, "duration": 120, "velocity": 100}, {"time": 24839, "pitch": 69, "duration": 360, "velocity": 100}, {"time": 25199, "pitch": 62, "duration": 120, "velocity": 100}, {"time": 25319, "pitch": 62, "duration": 120, "velocity": 100}, {"time": 25439, "pitch": 70, "duration": 240, "velocity": 100}, {"time": 25679, "pitch": 69, "duration": 120, "velocity": 100}, {"time": 25799, "pitch": 70, "duration": 240, "velocity": 100}, {"time": 26039, "pitch": 70, "duration": 120, "velocity": 100}, {"time": 26159, "pitch": 69, "duration": 120, "velocity": 100}, {"time": 26279, "pitch": 67, "duration": 120, "velocity": 100}, {"time": 26399, "pitch": 72, "duration": 1440, "velocity": 100}, {"time": 28079, "pitch": 70, "duration": 120, "velocity": 100}, {"time": 28199, "pitch": 72, "duration": 120, "velocity": 100}, {"time": 28319, "pitch": 74, "duration": 720, "velocity": 100}, {"time": 29039, "pitch": 72, "duration": 120, "velocity": 100}, {"time": 29159, "pitch": 70, "duration": 120, "velocity": 100}, {"time": 29279, "pitch": 74, "duration": 600, "velocity": 100}, {"time": 29879, "pitch": 74, "duration": 120, "velocity": 100}, {"time": 29999, "pitch": 72, "duration": 120, "velocity": 100}, {"time": 30119, "pitch": 70, "duration": 120, "velocity": 100}, {"time": 30239, "pitch": 74, "duration": 720, "velocity": 100}, {"time": 30959, "pitch": 75, "duration": 120, "velocity": 100}, {"time": 31079, "pitch": 77, "duration": 120, "velocity": 100}, {"time": 31199, "pitch": 74, "duration": 720, "velocity": 100}, {"time": 31919, "pitch": 72, "duration": 120, "velocity": 100}, {"time": 32039, "pitch": 74, "duration": 120, "velocity": 100}, {"time": 32159, "pitch": 70, "duration": 120, "velocity": 100}, {"time": 32279, "pitch": 70, "duration": 480, "velocity": 100}, {"time": 32759, "pitch": 67, "duration": 120, "velocity": 100}, {"time": 32879, "pitch": 67, "duration": 120, "velocity": 100}, {"time": 32999, "pitch": 69, "duration": 120, "velocity": 100}, {"time": 33119, "pitch": 70, "duration": 720, "velocity": 100}, {"time": 33839, "pitch": 62, "duration": 240, "velocity": 100}, {"time": 34079, "pitch": 63, "duration": 240, "velocity": 100}, {"time": 34319, "pitch": 72, "duration": 120, "velocity": 100}, {"time": 34439, "pitch": 72, "duration": 360, "velocity": 100}, {"time": 34799, "pitch": 72, "duration": 239, "velocity": 100}, {"time": 35038, "pitch": 75, "duration": 480, "velocity": 100}, {"time": 35518, "pitch": 75, "duration": 240, "velocity": 100}, {"time": 35758, "pitch": 75, "duration": 240, "velocity": 100}, {"time": 35998, "pitch": 74, "duration": 1920, "velocity": 100}, {"time": 39598, "pitch": 67, "duration": 240, "velocity": 100}, {"time": 39838, "pitch": 76, "duration": 720, "velocity": 100}, {"time": 40558, "pitch": 76, "duration": 240, "velocity": 100}, {"time": 40798, "pitch": 77, "duration": 240, "velocity": 100}, {"time": 41038, "pitch": 76, "duration": 240, "velocity": 100}, {"time": 41278, "pitch": 74, "duration": 240, "velocity": 100}, {"time": 41518, "pitch": 72, "duration": 240, "velocity": 100}, {"time": 41758, "pitch": 76, "duration": 240, "velocity": 100}, {"time": 41998, "pitch": 74, "duration": 120, "velocity": 100}, {"time": 42118, "pitch": 74, "duration": 1080, "velocity": 100}, {"time": 43438, "pitch": 64, "duration": 240, "velocity": 100}, {"time": 43678, "pitch": 72, "duration": 720, "velocity": 100}, {"time": 44398, "pitch": 71, "duration": 120, "velocity": 100}, {"time": 44518, "pitch": 72, "duration": 120, "velocity": 100}, {"time": 44638, "pitch": 76, "duration": 720, "velocity": 100}, {"time": 45358, "pitch": 74, "duration": 120, "velocity": 100}, {"time": 45478, "pitch": 72, "duration": 120, "velocity": 100}, {"time": 45598, "pitch": 70, "duration": 1440, "velocity": 100}, {"time": 47278, "pitch": 70, "duration": 240, "velocity": 100}, {"time": 47518, "pitch": 69, "duration": 720, "velocity": 100}, {"time": 48238, "pitch": 72, "duration": 120, "velocity": 100}, {"time": 48358, "pitch": 76, "duration": 120, "velocity": 100}, {"time": 48478, "pitch": 74, "duration": 720, "velocity": 100}, {"time": 49198, "pitch": 71, "duration": 120, "velocity": 100}, {"time": 49318, "pitch": 69, "duration": 120, "velocity": 100}, {"time": 49438, "pitch": 67, "duration": 720, "velocity": 100}, {"time": 50158, "pitch": 71, "duration": 120, "velocity": 100}, {"time": 50278, "pitch": 71, "duration": 120, "velocity": 100}, {"time": 50398, "pitch": 72, "duration": 720, "velocity": 100}, {"time": 51118, "pitch": 67, "duration": 240, "velocity": 100}, {"time": 51358, "pitch": 65, "duration": 480, "velocity": 100}, {"time": 51838, "pitch": 74, "duration": 720, "velocity": 100}, {"time": 52558, "pitch": 74, "duration": 240, "velocity": 100}, {"time": 52798, "pitch": 72, "duration": 360, "velocity": 100}, {"time": 53158, "pitch": 71, "duration": 120, "velocity": 100}, {"time": 53278, "pitch": 72, "duration": 1440, "velocity": 100}, {"time": 62637, "pitch": 55, "duration": 240, "velocity": 100}, {"time": 62877, "pitch": 64, "duration": 240, "velocity": 100}, {"time": 63117, "pitch": 63, "duration": 120, "velocity": 100}, {"time": 63237, "pitch": 64, "duration": 360, "velocity": 100}, {"time": 63597, "pitch": 64, "duration": 120, "velocity": 100}, {"time": 63717, "pitch": 65, "duration": 120, "velocity": 100}, {"time": 63837, "pitch": 67, "duration": 720, "velocity": 100}, {"time": 64557, "pitch": 55, "duration": 240, "velocity": 100}, {"time": 64797, "pitch": 63, "duration": 240, "velocity": 100}, {"time": 65037, "pitch": 62, "duration": 120, "velocity": 100}, {"time": 65157, "pitch": 63, "duration": 360, "velocity": 100}, {"time": 65517, "pitch": 63, "duration": 120, "velocity": 100}, {"time": 65637, "pitch": 65, "duration": 120, "velocity": 100}, {"time": 65757, "pitch": 67, "duration": 720, "velocity": 100}, {"time": 66477, "pitch": 67, "duration": 120, "velocity": 100}, {"time": 66597, "pitch": 67, "duration": 120, "velocity": 100}, {"time": 66717, "pitch": 65, "duration": 240, "velocity": 100}, {"time": 66957, "pitch": 62, "duration": 120, "velocity": 100}, {"time": 67077, "pitch": 65, "duration": 360, "velocity": 100}, {"time": 67437, "pitch": 65, "duration": 240, "velocity": 100}, {"time": 67677, "pitch": 69, "duration": 240, "velocity": 100}, {"time": 67917, "pitch": 70, "duration": 120, "velocity": 100}, {"time": 68037, "pitch": 70, "duration": 360, "velocity": 100}, {"time": 68397, "pitch": 65, "duration": 240, "velocity": 100}, {"time": 68637, "pitch": 63, "duration": 240, "velocity": 100}, {"time": 68877, "pitch": 62, "duration": 120, "velocity": 100}, {"time": 68997, "pitch": 63, "duration": 240, "velocity": 100}, {"time": 69237, "pitch": 55, "duration": 120, "velocity": 100}, {"time": 69357, "pitch": 57, "duration": 120, "velocity": 100}, {"time": 69477, "pitch": 58, "duration": 120, "velocity": 100}, {"time": 69597, "pitch": 60, "duration": 720, "velocity": 100}, {"time": 70317, "pitch": 58, "duration": 120, "velocity": 100}, {"time": 70437, "pitch": 58, "duration": 120, "velocity": 100}, {"time": 70557, "pitch": 67, "duration": 600, "velocity": 100}, {"time": 71157, "pitch": 67, "duration": 120, "velocity": 100}, {"time": 71277, "pitch": 69, "duration": 120, "velocity": 100}, {"time": 71397, "pitch": 70, "duration": 120, "velocity": 100}, {"time": 71517, "pitch": 65, "duration": 720, "velocity": 100}, {"time": 72237, "pitch": 62, "duration": 120, "velocity": 100}, {"time": 72357, "pitch": 65, "duration": 120, "velocity": 100}, {"time": 72477, "pitch": 63, "duration": 600, "velocity": 100}, {"time": 73077, "pitch": 63, "duration": 120, "velocity": 100}, {"time": 73197, "pitch": 62, "duration": 120, "velocity": 100}, {"time": 73317, "pitch": 60, "duration": 120, "velocity": 100}, {"time": 73437, "pitch": 65, "duration": 720, "velocity": 100}, {"time": 74157, "pitch": 58, "duration": 120, "velocity": 100}, {"time": 74277, "pitch": 58, "duration": 120, "velocity": 100}, {"time": 74397, "pitch": 67, "duration": 240, "velocity": 100}, {"time": 74637, "pitch": 66, "duration": 120, "velocity": 100}, {"time": 74757, "pitch": 67, "duration": 360, "velocity": 100}, {"time": 75117, "pitch": 58, "duration": 120, "velocity": 100}, {"time": 75237, "pitch": 58, "duration": 120, "velocity": 100}, {"time": 75357, "pitch": 69, "duration": 240, "velocity": 100}, {"time": 75597, "pitch": 68, "duration": 120, "velocity": 100}, {"time": 75717, "pitch": 69, "duration": 363, "velocity": 100}, {"time": 76080, "pitch": 62, "duration": 122, "velocity": 100}, {"time": 76202, "pitch": 62, "duration": 121, "velocity": 100}, {"time": 76323, "pitch": 70, "duration": 240, "velocity": 100}, {"time": 76563, "pitch": 69, "duration": 120, "velocity": 100}, {"time": 76683, "pitch": 70, "duration": 240, "velocity": 100}, {"time": 76923, "pitch": 70, "duration": 120, "velocity": 100}, {"time": 77043, "pitch": 69, "duration": 120, "velocity": 100}, {"time": 77163, "pitch": 67, "duration": 120, "velocity": 100}, {"time": 77283, "pitch": 72, "duration": 1440, "velocity": 100}, {"time": 78963, "pitch": 70, "duration": 120, "velocity": 100}, {"time": 79083, "pitch": 72, "duration": 120, "velocity": 100}, {"time": 79203, "pitch": 74, "duration": 120, "velocity": 100}, {"time": 79323, "pitch": 74, "duration": 600, "velocity": 100}, {"time": 79923, "pitch": 72, "duration": 120, "velocity": 100}, {"time": 80043, "pitch": 70, "duration": 120, "velocity": 100}, {"time": 80163, "pitch": 74, "duration": 600, "velocity": 100}, {"time": 80763, "pitch": 74, "duration": 120, "velocity": 100}, {"time": 80883, "pitch": 72, "duration": 120, "velocity": 100}, {"time": 81003, "pitch": 70, "duration": 120, "velocity": 100}, {"time": 81123, "pitch": 74, "duration": 720, "velocity": 100}, {"time": 81843, "pitch": 75, "duration": 120, "velocity": 100}, {"time": 81963, "pitch": 77, "duration": 120, "velocity": 100}, {"time": 82083, "pitch": 74, "duration": 720, "velocity": 100}, {"time": 82803, "pitch": 72, "duration": 120, "velocity": 100}, {"time": 82923, "pitch": 74, "duration": 120, "velocity": 100}, {"time": 83043, "pitch": 70, "duration": 120, "velocity": 100}, {"time": 83163, "pitch": 70, "duration": 480, "velocity": 100}, {"time": 83643, "pitch": 67, "duration": 120, "velocity": 100}, {"time": 83763, "pitch": 67, "duration": 120, "velocity": 100}, {"time": 83883, "pitch": 69, "duration": 120, "velocity": 100}, {"time": 84003, "pitch": 70, "duration": 720, "velocity": 100}, {"time": 84723, "pitch": 62, "duration": 120, "velocity": 100}, {"time": 84843, "pitch": 62, "duration": 120, "velocity": 100}, {"time": 84963, "pitch": 63, "duration": 240, "velocity": 100}, {"time": 85203, "pitch": 72, "duration": 120, "velocity": 100}, {"time": 85323, "pitch": 72, "duration": 360, "velocity": 100}, {"time": 85683, "pitch": 72, "duration": 240, "velocity": 100}, {"time": 85923, "pitch": 75, "duration": 480, "velocity": 100}, {"time": 86403, "pitch": 75, "duration": 240, "velocity": 100}, {"time": 86643, "pitch": 75, "duration": 240, "velocity": 100}, {"time": 86883, "pitch": 74, "duration": 1920, "velocity": 100}, {"time": 90483, "pitch": 67, "duration": 240, "velocity": 100}, {"time": 90723, "pitch": 76, "duration": 720, "velocity": 100}, {"time": 91443, "pitch": 76, "duration": 240, "velocity": 100}, {"time": 91683, "pitch": 77, "duration": 240, "velocity": 100}, {"time": 91923, "pitch": 76, "duration": 240, "velocity": 100}, {"time": 92163, "pitch": 74, "duration": 240, "velocity": 100}, {"time": 92403, "pitch": 72, "duration": 240, "velocity": 100}, {"time": 92643, "pitch": 76, "duration": 240, "velocity": 100}, {"time": 92883, "pitch": 74, "duration": 119, "velocity": 100}, {"time": 93002, "pitch": 74, "duration": 1080, "velocity": 100}, {"time": 94322, "pitch": 64, "duration": 240, "velocity": 100}, {"time": 94562, "pitch": 72, "duration": 720, "velocity": 100}, {"time": 95282, "pitch": 71, "duration": 120, "velocity": 100}, {"time": 95402, "pitch": 72, "duration": 120, "velocity": 100}, {"time": 95522, "pitch": 76, "duration": 720, "velocity": 100}, {"time": 96242, "pitch": 74, "duration": 120, "velocity": 100}, {"time": 96362, "pitch": 72, "duration": 120, "velocity": 100}, {"time": 96482, "pitch": 70, "duration": 1440, "velocity": 100}, {"time": 98162, "pitch": 70, "duration": 240, "velocity": 100}, {"time": 98402, "pitch": 69, "duration": 720, "velocity": 100}, {"time": 99122, "pitch": 72, "duration": 120, "velocity": 100}, {"time": 99242, "pitch": 76, "duration": 120, "velocity": 100}, {"time": 99362, "pitch": 74, "duration": 720, "velocity": 100}, {"time": 100082, "pitch": 71, "duration": 120, "velocity": 100}, {"time": 100202, "pitch": 69, "duration": 120, "velocity": 100}, {"time": 100322, "pitch": 67, "duration": 720, "velocity": 100}, {"time": 101042, "pitch": 71, "duration": 120, "velocity": 100}, {"time": 101162, "pitch": 71, "duration": 120, "velocity": 100}, {"time": 101282, "pitch": 72, "duration": 720, "velocity": 100}, {"time": 102002, "pitch": 67, "duration": 240, "velocity": 100}, {"time": 102242, "pitch": 65, "duration": 480, "velocity": 100}, {"time": 102722, "pitch": 74, "duration": 720, "velocity": 100}, {"time": 103442, "pitch": 74, "duration": 240, "velocity": 100}, {"time": 103682, "pitch": 72, "duration": 360, "velocity": 100}, {"time": 104042, "pitch": 71, "duration": 120, "velocity": 100}, {"time": 104162, "pitch": 72, "duration": 1440, "velocity": 100}, {"time": 105842, "pitch": 68, "duration": 240, "velocity": 100}, {"time": 106082, "pitch": 77, "duration": 720, "velocity": 100}, {"time": 106802, "pitch": 77, "duration": 240, "velocity": 100}, {"time": 107042, "pitch": 78, "duration": 240, "velocity": 100}, {"time": 107282, "pitch": 77, "duration": 240, "velocity": 100}, {"time": 107522, "pitch": 75, "duration": 240, "velocity": 100}, {"time": 107762, "pitch": 73, "duration": 240, "velocity": 100}, {"time": 108002, "pitch": 77, "duration": 240, "velocity": 100}, {"time": 108242, "pitch": 75, "duration": 120, "velocity": 100}, {"time": 108362, "pitch": 75, "duration": 1080, "velocity": 100}, {"time": 109682, "pitch": 65, "duration": 240, "velocity": 100}, {"time": 109922, "pitch": 73, "duration": 720, "velocity": 100}, {"time": 110642, "pitch": 72, "duration": 120, "velocity": 100}, {"time": 110762, "pitch": 73, "duration": 120, "velocity": 100}, {"time": 110882, "pitch": 77, "duration": 720, "velocity": 100}, {"time": 111602, "pitch": 75, "duration": 120, "velocity": 100}, {"time": 111722, "pitch": 73, "duration": 120, "velocity": 100}, {"time": 111842, "pitch": 71, "duration": 1440, "velocity": 100}, {"time": 113522, "pitch": 71, "duration": 240, "velocity": 100}, {"time": 113762, "pitch": 70, "duration": 720, "velocity": 100}, {"time": 114482, "pitch": 73, "duration": 120, "velocity": 100}, {"time": 114602, "pitch": 77, "duration": 120, "velocity": 100}, {"time": 114722, "pitch": 75, "duration": 720, "velocity": 100}, {"time": 115442, "pitch": 72, "duration": 120, "velocity": 100}, {"time": 115562, "pitch": 70, "duration": 120, "velocity": 100}, {"time": 115682, "pitch": 68, "duration": 720, "velocity": 100}, {"time": 116402, "pitch": 72, "duration": 120, "velocity": 100}, {"time": 116522, "pitch": 72, "duration": 120, "velocity": 100}, {"time": 116642, "pitch": 73, "duration": 719, "velocity": 100}, {"time": 117361, "pitch": 68, "duration": 240, "velocity": 100}, {"time": 117601, "pitch": 66, "duration": 480, "velocity": 100}, {"time": 118081, "pitch": 75, "duration": 960, "velocity": 100}, {"time": 120001, "pitch": 75, "duration": 480, "velocity": 100}, {"time": 120481, "pitch": 73, "duration": 720, "velocity": 100}, {"time": 121201, "pitch": 72, "duration": 240, "velocity": 100}, {"time": 121441, "pitch": 73, "duration": 3840, "velocity": 100}]}]}