{"metadata": {"schema_version": "0.1", "title": "RWC-MDB-P-2001 No. 49: Sekai no mikata / Hiroshi Sekiya", "copyright": "RWC Music Database. Copyright (C) 2001 Real World Computing Partnership (contact: Masataka GOTO <m.goto@aist.go.jp>)", "source_filename": "RM-P049.SMF_SYNC.MID", "source_format": "midi"}, "resolution": 480, "tempos": [{"time": 0, "qpm": 40.0}, {"time": 480, "qpm": 100.0}, {"time": 1920, "qpm": 101.69491525423729}, {"time": 2880, "qpm": 100.0}, {"time": 3360, "qpm": 101.69491525423729}, {"time": 3840, "qpm": 100.0}, {"time": 4800, "qpm": 101.69491525423729}, {"time": 5280, "qpm": 100.0}, {"time": 9600, "qpm": 101.69491525423729}, {"time": 10080, "qpm": 100.0}, {"time": 11040, "qpm": 101.69491525423729}, {"time": 12000, "qpm": 100.0}, {"time": 12960, "qpm": 101.69491525423729}, {"time": 13440, "qpm": 100.0}, {"time": 18720, "qpm": 101.69491525423729}, {"time": 19680, "qpm": 100.0}, {"time": 20640, "qpm": 101.69491525423729}, {"time": 21600, "qpm": 100.0}, {"time": 24480, "qpm": 101.69491525423729}, {"time": 24960, "qpm": 100.0}, {"time": 26400, "qpm": 101.69491525423729}, {"time": 26880, "qpm": 100.0}, {"time": 44160, "qpm": 101.69491525423729}, {"time": 44640, "qpm": 100.0}, {"time": 47040, "qpm": 101.69491525423729}, {"time": 47520, "qpm": 100.0}, {"time": 48480, "qpm": 101.69491525423729}, {"time": 48960, "qpm": 100.0}, {"time": 55680, "qpm": 101.69491525423729}, {"time": 56160, "qpm": 100.0}, {"time": 64320, "qpm": 101.69491525423729}, {"time": 64800, "qpm": 100.0}, {"time": 66240, "qpm": 101.69491525423729}, {"time": 66720, "qpm": 100.0}, {"time": 67680, "qpm": 101.69491525423729}, {"time": 68640, "qpm": 100.0}, {"time": 78240, "qpm": 101.69491525423729}, {"time": 78720, "qpm": 100.0}, {"time": 97440, "qpm": 101.69491525423729}, {"time": 98880, "qpm": 100.0}, {"time": 105120, "qpm": 101.69491525423729}, {"time": 105600, "qpm": 100.0}, {"time": 116640, "qpm": 101.69491525423729}, {"time": 117120, "qpm": 100.0}, {"time": 117600, "qpm": 101.69491525423729}, {"time": 118080, "qpm": 100.0}, {"time": 132000, "qpm": 101.69491525423729}, {"time": 132480, "qpm": 100.0}, {"time": 134400, "qpm": 101.69491525423729}, {"time": 134880, "qpm": 100.0}, {"time": 142560, "qpm": 101.69491525423729}, {"time": 143040, "qpm": 100.0}, {"time": 147840, "qpm": 101.69491525423729}, {"time": 148800, "qpm": 100.0}, {"time": 156000, "qpm": 101.69491525423729}, {"time": 156480, "qpm": 100.0}, {"time": 173760, "qpm": 101.69491525423729}, {"time": 174240, "qpm": 100.0}, {"time": 179520, "qpm": 101.69491525423729}, {"time": 181440, "qpm": 100.0}, {"time": 212160, "qpm": 101.69491525423729}, {"time": 212640, "qpm": 100.0}, {"time": 213120, "qpm": 101.69491525423729}, {"time": 213600, "qpm": 100.0}], "key_signatures": [{"time": 0, "root": 0, "mode": "major"}], "time_signatures": [{"time": 0, "numerator": 2, "denominator": 4}, {"time": 960, "numerator": 4, "denominator": 4}], "tracks": [{"program": 0, "is_drum": false, "name": "Piano", "notes": [{"time": 952, "pitch": 46, "duration": 193, "velocity": 107}, {"time": 952, "pitch": 53, "duration": 41, "velocity": 103}, {"time": 952, "pitch": 56, "duration": 51, "velocity": 107}, {"time": 952, "pitch": 61, "duration": 61, "velocity": 103}, {"time": 1074, "pitch": 53, "duration": 173, "velocity": 90}, {"time": 1074, "pitch": 56, "duration": 183, "velocity": 96}, {"time": 1074, "pitch": 61, "duration": 193, "velocity": 90}, {"time": 1318, "pitch": 53, "duration": 51, "velocity": 84}, {"time": 1318, "pitch": 56, "duration": 41, "velocity": 84}, {"time": 1318, "pitch": 61, "duration": 51, "velocity": 80}, {"time": 1440, "pitch": 53, "duration": 160, "velocity": 103}, {"time": 1440, "pitch": 56, "duration": 160, "velocity": 107}, {"time": 1440, "pitch": 61, "duration": 170, "velocity": 107}, {"time": 1680, "pitch": 53, "duration": 40, "velocity": 93}, {"time": 1680, "pitch": 56, "duration": 40, "velocity": 103}, {"time": 1680, "pitch": 61, "duration": 50, "velocity": 84}, {"time": 1800, "pitch": 53, "duration": 150, "velocity": 103}, {"time": 1800, "pitch": 56, "duration": 170, "velocity": 107}, {"time": 1800, "pitch": 61, "duration": 170, "velocity": 107}, {"time": 2040, "pitch": 53, "duration": 40, "velocity": 90}, {"time": 2040, "pitch": 56, "duration": 40, "velocity": 103}, {"time": 2040, "pitch": 61, "duration": 50, "velocity": 103}, {"time": 2160, "pitch": 53, "duration": 600, "velocity": 107}, {"time": 2160, "pitch": 56, "duration": 620, "velocity": 107}, {"time": 2160, "pitch": 61, "duration": 620, "velocity": 107}, {"time": 2280, "pitch": 39, "duration": 70, "velocity": 107}, {"time": 2400, "pitch": 41, "duration": 70, "velocity": 107}, {"time": 2520, "pitch": 44, "duration": 110, "velocity": 107}, {"time": 2640, "pitch": 46, "duration": 110, "velocity": 107}, {"time": 2760, "pitch": 41, "duration": 120, "velocity": 107}, {"time": 2880, "pitch": 39, "duration": 220, "velocity": 107}, {"time": 2880, "pitch": 53, "duration": 50, "velocity": 103}, {"time": 2880, "pitch": 56, "duration": 50, "velocity": 107}, {"time": 2880, "pitch": 61, "duration": 60, "velocity": 96}, {"time": 2880, "pitch": 63, "duration": 60, "velocity": 100}, {"time": 3120, "pitch": 53, "duration": 410, "velocity": 107}, {"time": 3120, "pitch": 56, "duration": 420, "velocity": 107}, {"time": 3120, "pitch": 61, "duration": 430, "velocity": 105}, {"time": 3120, "pitch": 63, "duration": 430, "velocity": 107}, {"time": 3600, "pitch": 53, "duration": 1040, "velocity": 107}, {"time": 3600, "pitch": 56, "duration": 1050, "velocity": 107}, {"time": 3600, "pitch": 61, "duration": 1050, "velocity": 107}, {"time": 3600, "pitch": 63, "duration": 1050, "velocity": 107}, {"time": 4320, "pitch": 39, "duration": 90, "velocity": 107}, {"time": 4440, "pitch": 41, "duration": 70, "velocity": 107}, {"time": 4560, "pitch": 44, "duration": 90, "velocity": 107}, {"time": 4680, "pitch": 41, "duration": 80, "velocity": 107}, {"time": 4800, "pitch": 46, "duration": 520, "velocity": 107}, {"time": 4800, "pitch": 56, "duration": 40, "velocity": 103}, {"time": 4800, "pitch": 61, "duration": 40, "velocity": 107}, {"time": 4800, "pitch": 65, "duration": 40, "velocity": 107}, {"time": 4920, "pitch": 56, "duration": 180, "velocity": 103}, {"time": 4920, "pitch": 61, "duration": 190, "velocity": 107}, {"time": 4920, "pitch": 65, "duration": 190, "velocity": 107}, {"time": 5160, "pitch": 56, "duration": 40, "velocity": 84}, {"time": 5160, "pitch": 61, "duration": 40, "velocity": 96}, {"time": 5160, "pitch": 65, "duration": 30, "velocity": 90}, {"time": 5280, "pitch": 44, "duration": 490, "velocity": 107}, {"time": 5280, "pitch": 56, "duration": 170, "velocity": 96}, {"time": 5280, "pitch": 61, "duration": 190, "velocity": 107}, {"time": 5280, "pitch": 65, "duration": 180, "velocity": 103}, {"time": 5520, "pitch": 56, "duration": 50, "velocity": 90}, {"time": 5520, "pitch": 61, "duration": 40, "velocity": 103}, {"time": 5520, "pitch": 65, "duration": 40, "velocity": 93}, {"time": 5640, "pitch": 56, "duration": 160, "velocity": 103}, {"time": 5640, "pitch": 61, "duration": 160, "velocity": 107}, {"time": 5640, "pitch": 65, "duration": 130, "velocity": 107}, {"time": 5760, "pitch": 43, "duration": 330, "velocity": 107}, {"time": 5880, "pitch": 56, "duration": 50, "velocity": 80}, {"time": 5880, "pitch": 61, "duration": 50, "velocity": 90}, {"time": 5880, "pitch": 65, "duration": 50, "velocity": 90}, {"time": 6000, "pitch": 56, "duration": 610, "velocity": 107}, {"time": 6000, "pitch": 61, "duration": 620, "velocity": 107}, {"time": 6000, "pitch": 65, "duration": 620, "velocity": 107}, {"time": 6120, "pitch": 39, "duration": 70, "velocity": 107}, {"time": 6240, "pitch": 41, "duration": 130, "velocity": 107}, {"time": 6360, "pitch": 44, "duration": 110, "velocity": 107}, {"time": 6480, "pitch": 46, "duration": 130, "velocity": 107}, {"time": 6600, "pitch": 41, "duration": 100, "velocity": 107}, {"time": 6720, "pitch": 39, "duration": 90, "velocity": 107}, {"time": 6720, "pitch": 56, "duration": 50, "velocity": 96}, {"time": 6720, "pitch": 61, "duration": 50, "velocity": 107}, {"time": 6720, "pitch": 65, "duration": 60, "velocity": 102}, {"time": 6720, "pitch": 68, "duration": 60, "velocity": 107}, {"time": 6960, "pitch": 39, "duration": 410, "velocity": 107}, {"time": 6960, "pitch": 56, "duration": 400, "velocity": 107}, {"time": 6960, "pitch": 61, "duration": 410, "velocity": 107}, {"time": 6960, "pitch": 65, "duration": 400, "velocity": 102}, {"time": 6960, "pitch": 68, "duration": 400, "velocity": 107}, {"time": 7440, "pitch": 39, "duration": 1010, "velocity": 107}, {"time": 7440, "pitch": 56, "duration": 940, "velocity": 103}, {"time": 7440, "pitch": 61, "duration": 950, "velocity": 107}, {"time": 7440, "pitch": 65, "duration": 950, "velocity": 102}, {"time": 7440, "pitch": 68, "duration": 950, "velocity": 107}, {"time": 8640, "pitch": 44, "duration": 140, "velocity": 90}, {"time": 8640, "pitch": 56, "duration": 260, "velocity": 84}, {"time": 8640, "pitch": 60, "duration": 380, "velocity": 107}, {"time": 8640, "pitch": 63, "duration": 390, "velocity": 107}, {"time": 8880, "pitch": 44, "duration": 370, "velocity": 96}, {"time": 9120, "pitch": 56, "duration": 300, "velocity": 103}, {"time": 9120, "pitch": 60, "duration": 270, "velocity": 103}, {"time": 9120, "pitch": 63, "duration": 300, "velocity": 107}, {"time": 9120, "pitch": 68, "duration": 300, "velocity": 107}, {"time": 9360, "pitch": 44, "duration": 70, "velocity": 74}, {"time": 9480, "pitch": 43, "duration": 270, "velocity": 107}, {"time": 9480, "pitch": 58, "duration": 490, "velocity": 107}, {"time": 9480, "pitch": 63, "duration": 480, "velocity": 103}, {"time": 9480, "pitch": 67, "duration": 490, "velocity": 107}, {"time": 9840, "pitch": 43, "duration": 400, "velocity": 107}, {"time": 10080, "pitch": 55, "duration": 430, "velocity": 107}, {"time": 10080, "pitch": 63, "duration": 460, "velocity": 107}, {"time": 10320, "pitch": 43, "duration": 240, "velocity": 107}, {"time": 10560, "pitch": 41, "duration": 120, "velocity": 107}, {"time": 10560, "pitch": 43, "duration": 10, "velocity": 107}, {"time": 10560, "pitch": 56, "duration": 390, "velocity": 107}, {"time": 10560, "pitch": 60, "duration": 400, "velocity": 107}, {"time": 10560, "pitch": 65, "duration": 400, "velocity": 107}, {"time": 10800, "pitch": 41, "duration": 300, "velocity": 103}, {"time": 11040, "pitch": 53, "duration": 250, "velocity": 107}, {"time": 11040, "pitch": 56, "duration": 280, "velocity": 107}, {"time": 11040, "pitch": 60, "duration": 290, "velocity": 107}, {"time": 11040, "pitch": 65, "duration": 290, "velocity": 107}, {"time": 11280, "pitch": 41, "duration": 80, "velocity": 107}, {"time": 11400, "pitch": 39, "duration": 230, "velocity": 96}, {"time": 11400, "pitch": 51, "duration": 380, "velocity": 103}, {"time": 11400, "pitch": 55, "duration": 500, "velocity": 107}, {"time": 11400, "pitch": 60, "duration": 510, "velocity": 107}, {"time": 11400, "pitch": 63, "duration": 500, "velocity": 103}, {"time": 11760, "pitch": 39, "duration": 350, "velocity": 107}, {"time": 12000, "pitch": 51, "duration": 360, "velocity": 107}, {"time": 12000, "pitch": 55, "duration": 400, "velocity": 103}, {"time": 12000, "pitch": 60, "duration": 420, "velocity": 103}, {"time": 12240, "pitch": 39, "duration": 160, "velocity": 107}, {"time": 12480, "pitch": 37, "duration": 170, "velocity": 107}, {"time": 12480, "pitch": 49, "duration": 310, "velocity": 96}, {"time": 12480, "pitch": 53, "duration": 430, "velocity": 103}, {"time": 12480, "pitch": 56, "duration": 430, "velocity": 107}, {"time": 12480, "pitch": 61, "duration": 430, "velocity": 107}, {"time": 12720, "pitch": 37, "duration": 350, "velocity": 103}, {"time": 12960, "pitch": 49, "duration": 300, "velocity": 107}, {"time": 12960, "pitch": 53, "duration": 270, "velocity": 103}, {"time": 12960, "pitch": 56, "duration": 290, "velocity": 107}, {"time": 12960, "pitch": 61, "duration": 290, "velocity": 103}, {"time": 13200, "pitch": 37, "duration": 60, "velocity": 80}, {"time": 13320, "pitch": 36, "duration": 260, "velocity": 107}, {"time": 13320, "pitch": 39, "duration": 20, "velocity": 71}, {"time": 13320, "pitch": 48, "duration": 340, "velocity": 107}, {"time": 13320, "pitch": 56, "duration": 490, "velocity": 107}, {"time": 13320, "pitch": 60, "duration": 610, "velocity": 107}, {"time": 13680, "pitch": 36, "duration": 210, "velocity": 107}, {"time": 13680, "pitch": 51, "duration": 370, "velocity": 103}, {"time": 13920, "pitch": 48, "duration": 240, "velocity": 107}, {"time": 13920, "pitch": 56, "duration": 160, "velocity": 84}, {"time": 14160, "pitch": 46, "duration": 470, "velocity": 107}, {"time": 14160, "pitch": 53, "duration": 430, "velocity": 107}, {"time": 14160, "pitch": 56, "duration": 430, "velocity": 107}, {"time": 14160, "pitch": 61, "duration": 430, "velocity": 107}, {"time": 14640, "pitch": 48, "duration": 290, "velocity": 103}, {"time": 14640, "pitch": 53, "duration": 170, "velocity": 107}, {"time": 14640, "pitch": 56, "duration": 180, "velocity": 103}, {"time": 14640, "pitch": 61, "duration": 180, "velocity": 84}, {"time": 14880, "pitch": 49, "duration": 190, "velocity": 107}, {"time": 14880, "pitch": 53, "duration": 140, "velocity": 107}, {"time": 14880, "pitch": 56, "duration": 150, "velocity": 107}, {"time": 14880, "pitch": 61, "duration": 170, "velocity": 107}, {"time": 15120, "pitch": 51, "duration": 530, "velocity": 103}, {"time": 15120, "pitch": 55, "duration": 640, "velocity": 107}, {"time": 15120, "pitch": 58, "duration": 640, "velocity": 107}, {"time": 15120, "pitch": 63, "duration": 650, "velocity": 107}, {"time": 15600, "pitch": 39, "duration": 370, "velocity": 107}, {"time": 15840, "pitch": 51, "duration": 470, "velocity": 107}, {"time": 15840, "pitch": 55, "duration": 50, "velocity": 93}, {"time": 15840, "pitch": 58, "duration": 60, "velocity": 103}, {"time": 15960, "pitch": 55, "duration": 250, "velocity": 107}, {"time": 15960, "pitch": 58, "duration": 270, "velocity": 107}, {"time": 15960, "pitch": 63, "duration": 270, "velocity": 107}, {"time": 16080, "pitch": 39, "duration": 170, "velocity": 107}, {"time": 16320, "pitch": 44, "duration": 160, "velocity": 96}, {"time": 16320, "pitch": 56, "duration": 390, "velocity": 107}, {"time": 16320, "pitch": 60, "duration": 380, "velocity": 107}, {"time": 16320, "pitch": 63, "duration": 410, "velocity": 107}, {"time": 16560, "pitch": 44, "duration": 380, "velocity": 107}, {"time": 16800, "pitch": 56, "duration": 280, "velocity": 107}, {"time": 16800, "pitch": 60, "duration": 270, "velocity": 107}, {"time": 16800, "pitch": 63, "duration": 290, "velocity": 103}, {"time": 17040, "pitch": 44, "duration": 140, "velocity": 103}, {"time": 17160, "pitch": 43, "duration": 170, "velocity": 103}, {"time": 17160, "pitch": 55, "duration": 400, "velocity": 107}, {"time": 17160, "pitch": 58, "duration": 420, "velocity": 107}, {"time": 17160, "pitch": 63, "duration": 500, "velocity": 107}, {"time": 17520, "pitch": 43, "duration": 420, "velocity": 107}, {"time": 17760, "pitch": 55, "duration": 400, "velocity": 103}, {"time": 17760, "pitch": 58, "duration": 390, "velocity": 107}, {"time": 17760, "pitch": 63, "duration": 400, "velocity": 107}, {"time": 17760, "pitch": 67, "duration": 380, "velocity": 107}, {"time": 18000, "pitch": 43, "duration": 180, "velocity": 107}, {"time": 18240, "pitch": 41, "duration": 170, "velocity": 107}, {"time": 18240, "pitch": 53, "duration": 300, "velocity": 99}, {"time": 18240, "pitch": 56, "duration": 390, "velocity": 107}, {"time": 18240, "pitch": 60, "duration": 390, "velocity": 103}, {"time": 18240, "pitch": 65, "duration": 400, "velocity": 107}, {"time": 18480, "pitch": 41, "duration": 340, "velocity": 107}, {"time": 18720, "pitch": 53, "duration": 250, "velocity": 107}, {"time": 18720, "pitch": 56, "duration": 310, "velocity": 107}, {"time": 18720, "pitch": 60, "duration": 300, "velocity": 107}, {"time": 18720, "pitch": 65, "duration": 310, "velocity": 107}, {"time": 18960, "pitch": 41, "duration": 70, "velocity": 103}, {"time": 19080, "pitch": 39, "duration": 200, "velocity": 103}, {"time": 19080, "pitch": 51, "duration": 370, "velocity": 96}, {"time": 19080, "pitch": 55, "duration": 500, "velocity": 107}, {"time": 19080, "pitch": 60, "duration": 510, "velocity": 99}, {"time": 19080, "pitch": 63, "duration": 510, "velocity": 96}, {"time": 19440, "pitch": 39, "duration": 400, "velocity": 107}, {"time": 19680, "pitch": 51, "duration": 370, "velocity": 107}, {"time": 19680, "pitch": 60, "duration": 400, "velocity": 107}, {"time": 19680, "pitch": 63, "duration": 420, "velocity": 107}, {"time": 19680, "pitch": 67, "duration": 410, "velocity": 107}, {"time": 19920, "pitch": 39, "duration": 170, "velocity": 107}, {"time": 20160, "pitch": 37, "duration": 150, "velocity": 96}, {"time": 20160, "pitch": 49, "duration": 290, "velocity": 96}, {"time": 20160, "pitch": 61, "duration": 350, "velocity": 90}, {"time": 20160, "pitch": 65, "duration": 590, "velocity": 103}, {"time": 20400, "pitch": 37, "duration": 410, "velocity": 90}, {"time": 20400, "pitch": 56, "duration": 420, "velocity": 103}, {"time": 20640, "pitch": 49, "duration": 280, "velocity": 107}, {"time": 20640, "pitch": 61, "duration": 310, "velocity": 90}, {"time": 20880, "pitch": 36, "duration": 410, "velocity": 107}, {"time": 21000, "pitch": 48, "duration": 400, "velocity": 107}, {"time": 21000, "pitch": 56, "duration": 270, "velocity": 103}, {"time": 21000, "pitch": 60, "duration": 610, "velocity": 107}, {"time": 21000, "pitch": 63, "duration": 650, "velocity": 107}, {"time": 21360, "pitch": 36, "duration": 230, "velocity": 103}, {"time": 21360, "pitch": 56, "duration": 330, "velocity": 74}, {"time": 21600, "pitch": 48, "duration": 220, "velocity": 107}, {"time": 21600, "pitch": 65, "duration": 180, "velocity": 93}, {"time": 21840, "pitch": 46, "duration": 240, "velocity": 103}, {"time": 21840, "pitch": 56, "duration": 240, "velocity": 103}, {"time": 21840, "pitch": 61, "duration": 240, "velocity": 107}, {"time": 21840, "pitch": 65, "duration": 240, "velocity": 107}, {"time": 22080, "pitch": 46, "duration": 220, "velocity": 103}, {"time": 22080, "pitch": 56, "duration": 150, "velocity": 103}, {"time": 22080, "pitch": 61, "duration": 160, "velocity": 107}, {"time": 22080, "pitch": 65, "duration": 150, "velocity": 107}, {"time": 22320, "pitch": 48, "duration": 280, "velocity": 87}, {"time": 22320, "pitch": 56, "duration": 150, "velocity": 103}, {"time": 22320, "pitch": 61, "duration": 150, "velocity": 96}, {"time": 22320, "pitch": 65, "duration": 140, "velocity": 103}, {"time": 22560, "pitch": 49, "duration": 200, "velocity": 90}, {"time": 22560, "pitch": 56, "duration": 120, "velocity": 103}, {"time": 22560, "pitch": 61, "duration": 140, "velocity": 107}, {"time": 22560, "pitch": 65, "duration": 130, "velocity": 107}, {"time": 22800, "pitch": 51, "duration": 550, "velocity": 103}, {"time": 22800, "pitch": 58, "duration": 630, "velocity": 103}, {"time": 22800, "pitch": 63, "duration": 640, "velocity": 107}, {"time": 22800, "pitch": 67, "duration": 640, "velocity": 107}, {"time": 23280, "pitch": 39, "duration": 390, "velocity": 107}, {"time": 23520, "pitch": 51, "duration": 420, "velocity": 107}, {"time": 23520, "pitch": 58, "duration": 410, "velocity": 103}, {"time": 23520, "pitch": 63, "duration": 410, "velocity": 96}, {"time": 23520, "pitch": 65, "duration": 420, "velocity": 103}, {"time": 23760, "pitch": 39, "duration": 190, "velocity": 107}, {"time": 24000, "pitch": 60, "duration": 40, "velocity": 99}, {"time": 24000, "pitch": 63, "duration": 40, "velocity": 103}, {"time": 24000, "pitch": 68, "duration": 50, "velocity": 107}, {"time": 24120, "pitch": 60, "duration": 40, "velocity": 78}, {"time": 24120, "pitch": 63, "duration": 30, "velocity": 103}, {"time": 24120, "pitch": 68, "duration": 40, "velocity": 107}, {"time": 24240, "pitch": 60, "duration": 40, "velocity": 87}, {"time": 24240, "pitch": 63, "duration": 40, "velocity": 103}, {"time": 24240, "pitch": 68, "duration": 50, "velocity": 107}, {"time": 24360, "pitch": 60, "duration": 40, "velocity": 90}, {"time": 24360, "pitch": 63, "duration": 30, "velocity": 103}, {"time": 24360, "pitch": 68, "duration": 50, "velocity": 107}, {"time": 24480, "pitch": 60, "duration": 130, "velocity": 99}, {"time": 24480, "pitch": 63, "duration": 130, "velocity": 107}, {"time": 24480, "pitch": 68, "duration": 140, "velocity": 107}, {"time": 25920, "pitch": 61, "duration": 50, "velocity": 96}, {"time": 25920, "pitch": 65, "duration": 40, "velocity": 107}, {"time": 25920, "pitch": 68, "duration": 50, "velocity": 103}, {"time": 26040, "pitch": 61, "duration": 40, "velocity": 76}, {"time": 26040, "pitch": 65, "duration": 40, "velocity": 103}, {"time": 26040, "pitch": 68, "duration": 60, "velocity": 96}, {"time": 26160, "pitch": 61, "duration": 50, "velocity": 84}, {"time": 26160, "pitch": 65, "duration": 40, "velocity": 107}, {"time": 26160, "pitch": 68, "duration": 60, "velocity": 103}, {"time": 26280, "pitch": 61, "duration": 50, "velocity": 84}, {"time": 26280, "pitch": 65, "duration": 40, "velocity": 107}, {"time": 26280, "pitch": 68, "duration": 60, "velocity": 96}, {"time": 26400, "pitch": 61, "duration": 130, "velocity": 84}, {"time": 26400, "pitch": 65, "duration": 120, "velocity": 107}, {"time": 26400, "pitch": 68, "duration": 130, "velocity": 103}, {"time": 27840, "pitch": 58, "duration": 30, "velocity": 96}, {"time": 27840, "pitch": 62, "duration": 30, "velocity": 93}, {"time": 27840, "pitch": 65, "duration": 40, "velocity": 99}, {"time": 27840, "pitch": 69, "duration": 40, "velocity": 99}, {"time": 27960, "pitch": 58, "duration": 40, "velocity": 90}, {"time": 27960, "pitch": 62, "duration": 30, "velocity": 99}, {"time": 27960, "pitch": 65, "duration": 30, "velocity": 84}, {"time": 27960, "pitch": 69, "duration": 40, "velocity": 103}, {"time": 28080, "pitch": 58, "duration": 40, "velocity": 96}, {"time": 28080, "pitch": 62, "duration": 30, "velocity": 99}, {"time": 28080, "pitch": 65, "duration": 40, "velocity": 107}, {"time": 28080, "pitch": 69, "duration": 40, "velocity": 107}, {"time": 28200, "pitch": 58, "duration": 40, "velocity": 96}, {"time": 28200, "pitch": 62, "duration": 30, "velocity": 93}, {"time": 28200, "pitch": 65, "duration": 40, "velocity": 103}, {"time": 28200, "pitch": 69, "duration": 40, "velocity": 103}, {"time": 28320, "pitch": 58, "duration": 150, "velocity": 107}, {"time": 28320, "pitch": 62, "duration": 140, "velocity": 102}, {"time": 28320, "pitch": 65, "duration": 160, "velocity": 102}, {"time": 28320, "pitch": 69, "duration": 170, "velocity": 107}, {"time": 29760, "pitch": 58, "duration": 40, "velocity": 103}, {"time": 29760, "pitch": 62, "duration": 40, "velocity": 107}, {"time": 29760, "pitch": 64, "duration": 40, "velocity": 107}, {"time": 29760, "pitch": 67, "duration": 30, "velocity": 99}, {"time": 29880, "pitch": 58, "duration": 40, "velocity": 84}, {"time": 29880, "pitch": 62, "duration": 30, "velocity": 93}, {"time": 29880, "pitch": 64, "duration": 40, "velocity": 103}, {"time": 29880, "pitch": 67, "duration": 30, "velocity": 103}, {"time": 30000, "pitch": 58, "duration": 50, "velocity": 90}, {"time": 30000, "pitch": 62, "duration": 30, "velocity": 93}, {"time": 30000, "pitch": 64, "duration": 40, "velocity": 103}, {"time": 30000, "pitch": 67, "duration": 30, "velocity": 103}, {"time": 30120, "pitch": 58, "duration": 40, "velocity": 90}, {"time": 30120, "pitch": 62, "duration": 30, "velocity": 93}, {"time": 30120, "pitch": 64, "duration": 40, "velocity": 103}, {"time": 30120, "pitch": 67, "duration": 40, "velocity": 99}, {"time": 30240, "pitch": 58, "duration": 170, "velocity": 103}, {"time": 30240, "pitch": 62, "duration": 150, "velocity": 103}, {"time": 30240, "pitch": 64, "duration": 160, "velocity": 107}, {"time": 30240, "pitch": 67, "duration": 170, "velocity": 107}, {"time": 39360, "pitch": 44, "duration": 80, "velocity": 98}, {"time": 39360, "pitch": 56, "duration": 80, "velocity": 98}, {"time": 39720, "pitch": 44, "duration": 300, "velocity": 91}, {"time": 39720, "pitch": 56, "duration": 300, "velocity": 98}, {"time": 40070, "pitch": 41, "duration": 190, "velocity": 94}, {"time": 40070, "pitch": 53, "duration": 180, "velocity": 98}, {"time": 40320, "pitch": 44, "duration": 80, "velocity": 91}, {"time": 40320, "pitch": 56, "duration": 80, "velocity": 85}, {"time": 40680, "pitch": 44, "duration": 270, "velocity": 98}, {"time": 40680, "pitch": 56, "duration": 310, "velocity": 98}, {"time": 41030, "pitch": 41, "duration": 230, "velocity": 79}, {"time": 41030, "pitch": 53, "duration": 190, "velocity": 82}, {"time": 41280, "pitch": 39, "duration": 70, "velocity": 85}, {"time": 41280, "pitch": 51, "duration": 80, "velocity": 79}, {"time": 41640, "pitch": 39, "duration": 360, "velocity": 75}, {"time": 41640, "pitch": 51, "duration": 340, "velocity": 98}, {"time": 41990, "pitch": 36, "duration": 200, "velocity": 85}, {"time": 41990, "pitch": 48, "duration": 210, "velocity": 102}, {"time": 42240, "pitch": 39, "duration": 70, "velocity": 79}, {"time": 42240, "pitch": 51, "duration": 70, "velocity": 91}, {"time": 42600, "pitch": 39, "duration": 290, "velocity": 85}, {"time": 42600, "pitch": 51, "duration": 280, "velocity": 98}, {"time": 42950, "pitch": 37, "duration": 220, "velocity": 79}, {"time": 42950, "pitch": 49, "duration": 210, "velocity": 91}, {"time": 43200, "pitch": 36, "duration": 90, "velocity": 79}, {"time": 43200, "pitch": 48, "duration": 80, "velocity": 94}, {"time": 43560, "pitch": 36, "duration": 320, "velocity": 88}, {"time": 43560, "pitch": 48, "duration": 320, "velocity": 94}, {"time": 43910, "pitch": 39, "duration": 210, "velocity": 98}, {"time": 43910, "pitch": 51, "duration": 190, "velocity": 98}, {"time": 44160, "pitch": 41, "duration": 140, "velocity": 82}, {"time": 44160, "pitch": 53, "duration": 150, "velocity": 88}, {"time": 44400, "pitch": 41, "duration": 170, "velocity": 82}, {"time": 44400, "pitch": 53, "duration": 190, "velocity": 88}, {"time": 44640, "pitch": 44, "duration": 210, "velocity": 91}, {"time": 44640, "pitch": 56, "duration": 180, "velocity": 91}, {"time": 44870, "pitch": 45, "duration": 190, "velocity": 79}, {"time": 44870, "pitch": 57, "duration": 210, "velocity": 88}, {"time": 45120, "pitch": 46, "duration": 90, "velocity": 98}, {"time": 45120, "pitch": 58, "duration": 80, "velocity": 107}, {"time": 45480, "pitch": 46, "duration": 310, "velocity": 91}, {"time": 45480, "pitch": 58, "duration": 300, "velocity": 98}, {"time": 45830, "pitch": 49, "duration": 200, "velocity": 98}, {"time": 45830, "pitch": 61, "duration": 180, "velocity": 85}, {"time": 46080, "pitch": 51, "duration": 150, "velocity": 91}, {"time": 46080, "pitch": 63, "duration": 140, "velocity": 75}, {"time": 46320, "pitch": 51, "duration": 200, "velocity": 91}, {"time": 46320, "pitch": 63, "duration": 180, "velocity": 98}, {"time": 46560, "pitch": 53, "duration": 220, "velocity": 88}, {"time": 46560, "pitch": 65, "duration": 200, "velocity": 88}, {"time": 46790, "pitch": 51, "duration": 190, "velocity": 91}, {"time": 46790, "pitch": 63, "duration": 190, "velocity": 91}, {"time": 47040, "pitch": 46, "duration": 190, "velocity": 103}, {"time": 47040, "pitch": 56, "duration": 210, "velocity": 103}, {"time": 47040, "pitch": 61, "duration": 190, "velocity": 107}, {"time": 47040, "pitch": 65, "duration": 190, "velocity": 107}, {"time": 47400, "pitch": 56, "duration": 40, "velocity": 96}, {"time": 47400, "pitch": 61, "duration": 30, "velocity": 103}, {"time": 47400, "pitch": 65, "duration": 20, "velocity": 103}, {"time": 47520, "pitch": 46, "duration": 220, "velocity": 103}, {"time": 47520, "pitch": 56, "duration": 240, "velocity": 96}, {"time": 47520, "pitch": 61, "duration": 240, "velocity": 107}, {"time": 47520, "pitch": 65, "duration": 220, "velocity": 107}, {"time": 47880, "pitch": 56, "duration": 50, "velocity": 103}, {"time": 47880, "pitch": 61, "duration": 50, "velocity": 103}, {"time": 47880, "pitch": 65, "duration": 50, "velocity": 107}, {"time": 48120, "pitch": 56, "duration": 140, "velocity": 107}, {"time": 48120, "pitch": 61, "duration": 140, "velocity": 107}, {"time": 48120, "pitch": 65, "duration": 130, "velocity": 107}, {"time": 48240, "pitch": 46, "duration": 220, "velocity": 96}, {"time": 48360, "pitch": 56, "duration": 30, "velocity": 96}, {"time": 48360, "pitch": 61, "duration": 30, "velocity": 103}, {"time": 48360, "pitch": 65, "duration": 30, "velocity": 107}, {"time": 48480, "pitch": 56, "duration": 370, "velocity": 107}, {"time": 48480, "pitch": 61, "duration": 370, "velocity": 107}, {"time": 48480, "pitch": 65, "duration": 370, "velocity": 107}, {"time": 48720, "pitch": 46, "duration": 240, "velocity": 103}, {"time": 48960, "pitch": 39, "duration": 260, "velocity": 103}, {"time": 48960, "pitch": 46, "duration": 10, "velocity": 103}, {"time": 48960, "pitch": 56, "duration": 220, "velocity": 103}, {"time": 48960, "pitch": 61, "duration": 230, "velocity": 103}, {"time": 48960, "pitch": 65, "duration": 220, "velocity": 107}, {"time": 49320, "pitch": 56, "duration": 30, "velocity": 96}, {"time": 49320, "pitch": 61, "duration": 30, "velocity": 103}, {"time": 49320, "pitch": 65, "duration": 20, "velocity": 99}, {"time": 49440, "pitch": 39, "duration": 230, "velocity": 107}, {"time": 49440, "pitch": 56, "duration": 280, "velocity": 107}, {"time": 49440, "pitch": 61, "duration": 280, "velocity": 107}, {"time": 49440, "pitch": 65, "duration": 270, "velocity": 107}, {"time": 49800, "pitch": 56, "duration": 60, "velocity": 103}, {"time": 49800, "pitch": 61, "duration": 60, "velocity": 103}, {"time": 49800, "pitch": 65, "duration": 60, "velocity": 107}, {"time": 50040, "pitch": 56, "duration": 140, "velocity": 103}, {"time": 50040, "pitch": 61, "duration": 140, "velocity": 107}, {"time": 50040, "pitch": 65, "duration": 130, "velocity": 107}, {"time": 50160, "pitch": 39, "duration": 310, "velocity": 107}, {"time": 50280, "pitch": 56, "duration": 30, "velocity": 96}, {"time": 50280, "pitch": 61, "duration": 20, "velocity": 103}, {"time": 50280, "pitch": 65, "duration": 20, "velocity": 99}, {"time": 50400, "pitch": 56, "duration": 390, "velocity": 103}, {"time": 50400, "pitch": 61, "duration": 390, "velocity": 107}, {"time": 50400, "pitch": 65, "duration": 390, "velocity": 107}, {"time": 50640, "pitch": 39, "duration": 200, "velocity": 107}, {"time": 50880, "pitch": 46, "duration": 220, "velocity": 96}, {"time": 50880, "pitch": 56, "duration": 230, "velocity": 103}, {"time": 50880, "pitch": 61, "duration": 230, "velocity": 107}, {"time": 50880, "pitch": 65, "duration": 230, "velocity": 107}, {"time": 51240, "pitch": 56, "duration": 40, "velocity": 96}, {"time": 51240, "pitch": 61, "duration": 30, "velocity": 103}, {"time": 51240, "pitch": 65, "duration": 20, "velocity": 99}, {"time": 51360, "pitch": 46, "duration": 240, "velocity": 103}, {"time": 51360, "pitch": 56, "duration": 270, "velocity": 103}, {"time": 51360, "pitch": 61, "duration": 270, "velocity": 107}, {"time": 51360, "pitch": 65, "duration": 270, "velocity": 107}, {"time": 51720, "pitch": 56, "duration": 80, "velocity": 103}, {"time": 51720, "pitch": 61, "duration": 70, "velocity": 103}, {"time": 51720, "pitch": 65, "duration": 80, "velocity": 107}, {"time": 51960, "pitch": 56, "duration": 140, "velocity": 107}, {"time": 51960, "pitch": 61, "duration": 150, "velocity": 107}, {"time": 51960, "pitch": 65, "duration": 140, "velocity": 107}, {"time": 52080, "pitch": 46, "duration": 280, "velocity": 90}, {"time": 52200, "pitch": 56, "duration": 40, "velocity": 90}, {"time": 52200, "pitch": 61, "duration": 30, "velocity": 96}, {"time": 52200, "pitch": 65, "duration": 30, "velocity": 99}, {"time": 52320, "pitch": 56, "duration": 140, "velocity": 96}, {"time": 52320, "pitch": 61, "duration": 140, "velocity": 103}, {"time": 52320, "pitch": 65, "duration": 140, "velocity": 107}, {"time": 52560, "pitch": 46, "duration": 240, "velocity": 103}, {"time": 52560, "pitch": 56, "duration": 140, "velocity": 103}, {"time": 52560, "pitch": 61, "duration": 150, "velocity": 103}, {"time": 52560, "pitch": 65, "duration": 130, "velocity": 107}, {"time": 52800, "pitch": 39, "duration": 300, "velocity": 107}, {"time": 52800, "pitch": 46, "duration": 20, "velocity": 103}, {"time": 52800, "pitch": 56, "duration": 260, "velocity": 107}, {"time": 52800, "pitch": 61, "duration": 260, "velocity": 107}, {"time": 52800, "pitch": 65, "duration": 260, "velocity": 107}, {"time": 53160, "pitch": 56, "duration": 40, "velocity": 90}, {"time": 53160, "pitch": 61, "duration": 20, "velocity": 84}, {"time": 53160, "pitch": 65, "duration": 30, "velocity": 99}, {"time": 53280, "pitch": 39, "duration": 1220, "velocity": 103}, {"time": 53280, "pitch": 56, "duration": 380, "velocity": 107}, {"time": 53280, "pitch": 61, "duration": 380, "velocity": 107}, {"time": 53280, "pitch": 65, "duration": 380, "velocity": 107}, {"time": 53520, "pitch": 51, "duration": 330, "velocity": 107}, {"time": 53760, "pitch": 56, "duration": 120, "velocity": 107}, {"time": 53760, "pitch": 61, "duration": 200, "velocity": 107}, {"time": 53760, "pitch": 65, "duration": 210, "velocity": 107}, {"time": 54000, "pitch": 51, "duration": 280, "velocity": 107}, {"time": 54240, "pitch": 49, "duration": 230, "velocity": 107}, {"time": 54240, "pitch": 61, "duration": 190, "velocity": 107}, {"time": 54240, "pitch": 65, "duration": 190, "velocity": 107}, {"time": 54240, "pitch": 68, "duration": 230, "velocity": 107}, {"time": 54720, "pitch": 36, "duration": 400, "velocity": 99}, {"time": 54720, "pitch": 48, "duration": 360, "velocity": 107}, {"time": 54720, "pitch": 58, "duration": 230, "velocity": 107}, {"time": 54720, "pitch": 63, "duration": 240, "velocity": 107}, {"time": 54720, "pitch": 67, "duration": 240, "velocity": 107}, {"time": 55080, "pitch": 58, "duration": 40, "velocity": 103}, {"time": 55080, "pitch": 63, "duration": 40, "velocity": 103}, {"time": 55080, "pitch": 67, "duration": 30, "velocity": 107}, {"time": 55200, "pitch": 36, "duration": 250, "velocity": 93}, {"time": 55200, "pitch": 48, "duration": 260, "velocity": 99}, {"time": 55200, "pitch": 58, "duration": 220, "velocity": 107}, {"time": 55200, "pitch": 63, "duration": 230, "velocity": 103}, {"time": 55200, "pitch": 67, "duration": 220, "velocity": 107}, {"time": 55560, "pitch": 58, "duration": 100, "velocity": 103}, {"time": 55560, "pitch": 63, "duration": 100, "velocity": 103}, {"time": 55560, "pitch": 67, "duration": 70, "velocity": 103}, {"time": 55800, "pitch": 58, "duration": 120, "velocity": 107}, {"time": 55800, "pitch": 63, "duration": 140, "velocity": 107}, {"time": 55800, "pitch": 67, "duration": 130, "velocity": 107}, {"time": 55920, "pitch": 36, "duration": 370, "velocity": 99}, {"time": 56040, "pitch": 58, "duration": 30, "velocity": 96}, {"time": 56040, "pitch": 63, "duration": 30, "velocity": 103}, {"time": 56040, "pitch": 67, "duration": 30, "velocity": 107}, {"time": 56160, "pitch": 48, "duration": 420, "velocity": 103}, {"time": 56160, "pitch": 58, "duration": 340, "velocity": 107}, {"time": 56160, "pitch": 63, "duration": 350, "velocity": 107}, {"time": 56160, "pitch": 67, "duration": 370, "velocity": 107}, {"time": 56400, "pitch": 36, "duration": 190, "velocity": 107}, {"time": 56640, "pitch": 41, "duration": 110, "velocity": 107}, {"time": 56640, "pitch": 56, "duration": 240, "velocity": 107}, {"time": 56640, "pitch": 60, "duration": 220, "velocity": 107}, {"time": 56640, "pitch": 65, "duration": 250, "velocity": 107}, {"time": 56880, "pitch": 41, "duration": 330, "velocity": 107}, {"time": 57120, "pitch": 53, "duration": 250, "velocity": 103}, {"time": 57120, "pitch": 60, "duration": 190, "velocity": 103}, {"time": 57120, "pitch": 65, "duration": 170, "velocity": 107}, {"time": 57120, "pitch": 68, "duration": 200, "velocity": 107}, {"time": 57360, "pitch": 41, "duration": 60, "velocity": 107}, {"time": 57600, "pitch": 39, "duration": 140, "velocity": 90}, {"time": 57600, "pitch": 51, "duration": 290, "velocity": 103}, {"time": 57600, "pitch": 60, "duration": 340, "velocity": 107}, {"time": 57600, "pitch": 63, "duration": 350, "velocity": 107}, {"time": 57600, "pitch": 67, "duration": 370, "velocity": 107}, {"time": 57840, "pitch": 39, "duration": 370, "velocity": 107}, {"time": 58080, "pitch": 51, "duration": 160, "velocity": 96}, {"time": 58080, "pitch": 63, "duration": 350, "velocity": 107}, {"time": 58080, "pitch": 72, "duration": 340, "velocity": 107}, {"time": 58320, "pitch": 39, "duration": 120, "velocity": 107}, {"time": 58320, "pitch": 51, "duration": 80, "velocity": 64}, {"time": 58560, "pitch": 37, "duration": 180, "velocity": 103}, {"time": 58560, "pitch": 49, "duration": 180, "velocity": 107}, {"time": 58800, "pitch": 61, "duration": 140, "velocity": 107}, {"time": 58800, "pitch": 65, "duration": 130, "velocity": 107}, {"time": 58800, "pitch": 68, "duration": 140, "velocity": 107}, {"time": 59040, "pitch": 61, "duration": 190, "velocity": 107}, {"time": 59040, "pitch": 65, "duration": 170, "velocity": 107}, {"time": 59040, "pitch": 68, "duration": 200, "velocity": 107}, {"time": 59280, "pitch": 36, "duration": 250, "velocity": 103}, {"time": 59280, "pitch": 48, "duration": 270, "velocity": 107}, {"time": 59520, "pitch": 60, "duration": 160, "velocity": 107}, {"time": 59520, "pitch": 63, "duration": 150, "velocity": 107}, {"time": 59520, "pitch": 68, "duration": 170, "velocity": 107}, {"time": 59760, "pitch": 60, "duration": 170, "velocity": 107}, {"time": 59760, "pitch": 63, "duration": 170, "velocity": 107}, {"time": 59760, "pitch": 68, "duration": 170, "velocity": 107}, {"time": 60240, "pitch": 34, "duration": 430, "velocity": 107}, {"time": 60240, "pitch": 46, "duration": 430, "velocity": 107}, {"time": 60240, "pitch": 56, "duration": 370, "velocity": 107}, {"time": 60240, "pitch": 61, "duration": 380, "velocity": 107}, {"time": 60240, "pitch": 65, "duration": 380, "velocity": 107}, {"time": 60720, "pitch": 36, "duration": 280, "velocity": 103}, {"time": 60720, "pitch": 48, "duration": 280, "velocity": 103}, {"time": 60720, "pitch": 56, "duration": 140, "velocity": 107}, {"time": 60720, "pitch": 61, "duration": 140, "velocity": 107}, {"time": 60720, "pitch": 65, "duration": 150, "velocity": 107}, {"time": 60960, "pitch": 37, "duration": 200, "velocity": 107}, {"time": 60960, "pitch": 49, "duration": 200, "velocity": 107}, {"time": 60960, "pitch": 56, "duration": 130, "velocity": 107}, {"time": 60960, "pitch": 61, "duration": 140, "velocity": 107}, {"time": 60960, "pitch": 65, "duration": 150, "velocity": 107}, {"time": 61200, "pitch": 39, "duration": 750, "velocity": 107}, {"time": 61200, "pitch": 51, "duration": 750, "velocity": 107}, {"time": 61200, "pitch": 58, "duration": 330, "velocity": 107}, {"time": 61200, "pitch": 63, "duration": 360, "velocity": 107}, {"time": 61200, "pitch": 67, "duration": 400, "velocity": 107}, {"time": 61760, "pitch": 84, "duration": 60, "velocity": 82}, {"time": 61760, "pitch": 86, "duration": 30, "velocity": 90}, {"time": 61800, "pitch": 83, "duration": 40, "velocity": 82}, {"time": 61830, "pitch": 81, "duration": 30, "velocity": 103}, {"time": 61850, "pitch": 79, "duration": 30, "velocity": 107}, {"time": 61870, "pitch": 77, "duration": 30, "velocity": 107}, {"time": 61890, "pitch": 76, "duration": 30, "velocity": 107}, {"time": 61910, "pitch": 74, "duration": 30, "velocity": 103}, {"time": 61930, "pitch": 72, "duration": 30, "velocity": 107}, {"time": 61950, "pitch": 71, "duration": 30, "velocity": 107}, {"time": 61970, "pitch": 69, "duration": 40, "velocity": 107}, {"time": 61990, "pitch": 67, "duration": 40, "velocity": 103}, {"time": 62010, "pitch": 65, "duration": 40, "velocity": 103}, {"time": 62040, "pitch": 64, "duration": 40, "velocity": 103}, {"time": 62060, "pitch": 62, "duration": 40, "velocity": 93}, {"time": 62090, "pitch": 60, "duration": 40, "velocity": 93}, {"time": 62110, "pitch": 59, "duration": 40, "velocity": 99}, {"time": 62140, "pitch": 57, "duration": 40, "velocity": 93}, {"time": 62160, "pitch": 55, "duration": 40, "velocity": 99}, {"time": 62190, "pitch": 53, "duration": 40, "velocity": 99}, {"time": 62210, "pitch": 52, "duration": 40, "velocity": 90}, {"time": 62240, "pitch": 50, "duration": 40, "velocity": 93}, {"time": 62260, "pitch": 48, "duration": 40, "velocity": 90}, {"time": 70080, "pitch": 44, "duration": 80, "velocity": 98}, {"time": 70080, "pitch": 56, "duration": 80, "velocity": 98}, {"time": 70440, "pitch": 44, "duration": 300, "velocity": 91}, {"time": 70440, "pitch": 56, "duration": 300, "velocity": 98}, {"time": 70790, "pitch": 41, "duration": 190, "velocity": 94}, {"time": 70790, "pitch": 53, "duration": 180, "velocity": 98}, {"time": 71040, "pitch": 44, "duration": 80, "velocity": 91}, {"time": 71040, "pitch": 56, "duration": 80, "velocity": 85}, {"time": 71400, "pitch": 44, "duration": 270, "velocity": 98}, {"time": 71400, "pitch": 56, "duration": 310, "velocity": 98}, {"time": 71750, "pitch": 41, "duration": 230, "velocity": 79}, {"time": 71750, "pitch": 53, "duration": 190, "velocity": 82}, {"time": 72000, "pitch": 39, "duration": 70, "velocity": 85}, {"time": 72000, "pitch": 51, "duration": 80, "velocity": 79}, {"time": 72360, "pitch": 39, "duration": 360, "velocity": 75}, {"time": 72360, "pitch": 51, "duration": 340, "velocity": 98}, {"time": 72710, "pitch": 36, "duration": 200, "velocity": 85}, {"time": 72710, "pitch": 48, "duration": 210, "velocity": 102}, {"time": 72960, "pitch": 39, "duration": 70, "velocity": 79}, {"time": 72960, "pitch": 51, "duration": 70, "velocity": 91}, {"time": 73320, "pitch": 39, "duration": 290, "velocity": 85}, {"time": 73320, "pitch": 51, "duration": 280, "velocity": 98}, {"time": 73670, "pitch": 37, "duration": 220, "velocity": 79}, {"time": 73670, "pitch": 49, "duration": 210, "velocity": 91}, {"time": 73920, "pitch": 36, "duration": 90, "velocity": 79}, {"time": 73920, "pitch": 48, "duration": 80, "velocity": 94}, {"time": 74280, "pitch": 36, "duration": 320, "velocity": 88}, {"time": 74280, "pitch": 48, "duration": 320, "velocity": 94}, {"time": 74630, "pitch": 39, "duration": 210, "velocity": 98}, {"time": 74630, "pitch": 51, "duration": 190, "velocity": 98}, {"time": 74880, "pitch": 41, "duration": 140, "velocity": 82}, {"time": 74880, "pitch": 53, "duration": 150, "velocity": 88}, {"time": 75120, "pitch": 41, "duration": 170, "velocity": 82}, {"time": 75120, "pitch": 53, "duration": 190, "velocity": 88}, {"time": 75360, "pitch": 44, "duration": 210, "velocity": 91}, {"time": 75360, "pitch": 56, "duration": 180, "velocity": 91}, {"time": 75590, "pitch": 45, "duration": 190, "velocity": 79}, {"time": 75590, "pitch": 57, "duration": 210, "velocity": 88}, {"time": 75840, "pitch": 46, "duration": 90, "velocity": 98}, {"time": 75840, "pitch": 58, "duration": 80, "velocity": 107}, {"time": 76200, "pitch": 46, "duration": 310, "velocity": 91}, {"time": 76200, "pitch": 58, "duration": 300, "velocity": 98}, {"time": 76550, "pitch": 49, "duration": 200, "velocity": 98}, {"time": 76550, "pitch": 61, "duration": 180, "velocity": 85}, {"time": 76800, "pitch": 51, "duration": 150, "velocity": 91}, {"time": 76800, "pitch": 63, "duration": 140, "velocity": 75}, {"time": 77040, "pitch": 51, "duration": 200, "velocity": 91}, {"time": 77040, "pitch": 63, "duration": 180, "velocity": 98}, {"time": 77280, "pitch": 53, "duration": 220, "velocity": 88}, {"time": 77280, "pitch": 65, "duration": 200, "velocity": 88}, {"time": 77510, "pitch": 51, "duration": 190, "velocity": 91}, {"time": 77510, "pitch": 63, "duration": 190, "velocity": 91}, {"time": 77760, "pitch": 46, "duration": 190, "velocity": 103}, {"time": 77760, "pitch": 56, "duration": 210, "velocity": 103}, {"time": 77760, "pitch": 61, "duration": 190, "velocity": 107}, {"time": 77760, "pitch": 65, "duration": 190, "velocity": 107}, {"time": 78120, "pitch": 56, "duration": 40, "velocity": 96}, {"time": 78120, "pitch": 61, "duration": 30, "velocity": 103}, {"time": 78120, "pitch": 65, "duration": 20, "velocity": 103}, {"time": 78240, "pitch": 46, "duration": 220, "velocity": 103}, {"time": 78240, "pitch": 56, "duration": 240, "velocity": 96}, {"time": 78240, "pitch": 61, "duration": 240, "velocity": 107}, {"time": 78240, "pitch": 65, "duration": 220, "velocity": 107}, {"time": 78600, "pitch": 56, "duration": 50, "velocity": 103}, {"time": 78600, "pitch": 61, "duration": 50, "velocity": 103}, {"time": 78600, "pitch": 65, "duration": 50, "velocity": 107}, {"time": 78840, "pitch": 56, "duration": 140, "velocity": 107}, {"time": 78840, "pitch": 61, "duration": 140, "velocity": 107}, {"time": 78840, "pitch": 65, "duration": 130, "velocity": 107}, {"time": 78960, "pitch": 46, "duration": 220, "velocity": 96}, {"time": 79080, "pitch": 56, "duration": 30, "velocity": 96}, {"time": 79080, "pitch": 61, "duration": 30, "velocity": 103}, {"time": 79080, "pitch": 65, "duration": 30, "velocity": 107}, {"time": 79200, "pitch": 56, "duration": 370, "velocity": 107}, {"time": 79200, "pitch": 61, "duration": 370, "velocity": 107}, {"time": 79200, "pitch": 65, "duration": 370, "velocity": 107}, {"time": 79440, "pitch": 46, "duration": 240, "velocity": 103}, {"time": 79680, "pitch": 39, "duration": 260, "velocity": 103}, {"time": 79680, "pitch": 46, "duration": 10, "velocity": 103}, {"time": 79680, "pitch": 56, "duration": 220, "velocity": 103}, {"time": 79680, "pitch": 61, "duration": 230, "velocity": 103}, {"time": 79680, "pitch": 65, "duration": 220, "velocity": 107}, {"time": 80040, "pitch": 56, "duration": 30, "velocity": 96}, {"time": 80040, "pitch": 61, "duration": 30, "velocity": 103}, {"time": 80040, "pitch": 65, "duration": 20, "velocity": 99}, {"time": 80160, "pitch": 39, "duration": 230, "velocity": 107}, {"time": 80160, "pitch": 56, "duration": 280, "velocity": 107}, {"time": 80160, "pitch": 61, "duration": 280, "velocity": 107}, {"time": 80160, "pitch": 65, "duration": 270, "velocity": 107}, {"time": 80520, "pitch": 56, "duration": 60, "velocity": 103}, {"time": 80520, "pitch": 61, "duration": 60, "velocity": 103}, {"time": 80520, "pitch": 65, "duration": 60, "velocity": 107}, {"time": 80760, "pitch": 56, "duration": 140, "velocity": 103}, {"time": 80760, "pitch": 61, "duration": 140, "velocity": 107}, {"time": 80760, "pitch": 65, "duration": 130, "velocity": 107}, {"time": 80880, "pitch": 39, "duration": 310, "velocity": 107}, {"time": 81000, "pitch": 56, "duration": 30, "velocity": 96}, {"time": 81000, "pitch": 61, "duration": 20, "velocity": 103}, {"time": 81000, "pitch": 65, "duration": 20, "velocity": 99}, {"time": 81120, "pitch": 56, "duration": 390, "velocity": 103}, {"time": 81120, "pitch": 61, "duration": 390, "velocity": 107}, {"time": 81120, "pitch": 65, "duration": 390, "velocity": 107}, {"time": 81360, "pitch": 39, "duration": 200, "velocity": 107}, {"time": 81600, "pitch": 46, "duration": 220, "velocity": 96}, {"time": 81600, "pitch": 56, "duration": 230, "velocity": 103}, {"time": 81600, "pitch": 61, "duration": 230, "velocity": 107}, {"time": 81600, "pitch": 65, "duration": 230, "velocity": 107}, {"time": 81960, "pitch": 56, "duration": 40, "velocity": 96}, {"time": 81960, "pitch": 61, "duration": 30, "velocity": 103}, {"time": 81960, "pitch": 65, "duration": 20, "velocity": 99}, {"time": 82080, "pitch": 46, "duration": 240, "velocity": 103}, {"time": 82080, "pitch": 56, "duration": 270, "velocity": 103}, {"time": 82080, "pitch": 61, "duration": 270, "velocity": 107}, {"time": 82080, "pitch": 65, "duration": 270, "velocity": 107}, {"time": 82440, "pitch": 56, "duration": 80, "velocity": 103}, {"time": 82440, "pitch": 61, "duration": 70, "velocity": 103}, {"time": 82440, "pitch": 65, "duration": 80, "velocity": 107}, {"time": 82680, "pitch": 56, "duration": 140, "velocity": 107}, {"time": 82680, "pitch": 61, "duration": 150, "velocity": 107}, {"time": 82680, "pitch": 65, "duration": 140, "velocity": 107}, {"time": 82800, "pitch": 46, "duration": 280, "velocity": 90}, {"time": 82920, "pitch": 56, "duration": 40, "velocity": 90}, {"time": 82920, "pitch": 61, "duration": 30, "velocity": 96}, {"time": 82920, "pitch": 65, "duration": 30, "velocity": 99}, {"time": 83040, "pitch": 56, "duration": 140, "velocity": 96}, {"time": 83040, "pitch": 61, "duration": 140, "velocity": 103}, {"time": 83040, "pitch": 65, "duration": 140, "velocity": 107}, {"time": 83280, "pitch": 46, "duration": 240, "velocity": 103}, {"time": 83280, "pitch": 56, "duration": 140, "velocity": 103}, {"time": 83280, "pitch": 61, "duration": 150, "velocity": 103}, {"time": 83280, "pitch": 65, "duration": 130, "velocity": 107}, {"time": 83520, "pitch": 39, "duration": 300, "velocity": 107}, {"time": 83520, "pitch": 46, "duration": 20, "velocity": 103}, {"time": 83520, "pitch": 56, "duration": 260, "velocity": 107}, {"time": 83520, "pitch": 61, "duration": 260, "velocity": 107}, {"time": 83520, "pitch": 65, "duration": 260, "velocity": 107}, {"time": 83880, "pitch": 56, "duration": 40, "velocity": 90}, {"time": 83880, "pitch": 61, "duration": 20, "velocity": 84}, {"time": 83880, "pitch": 65, "duration": 30, "velocity": 99}, {"time": 84000, "pitch": 39, "duration": 1220, "velocity": 103}, {"time": 84000, "pitch": 56, "duration": 380, "velocity": 107}, {"time": 84000, "pitch": 61, "duration": 380, "velocity": 107}, {"time": 84000, "pitch": 65, "duration": 380, "velocity": 107}, {"time": 84240, "pitch": 51, "duration": 330, "velocity": 107}, {"time": 84480, "pitch": 56, "duration": 120, "velocity": 107}, {"time": 84480, "pitch": 61, "duration": 200, "velocity": 107}, {"time": 84480, "pitch": 65, "duration": 210, "velocity": 107}, {"time": 84720, "pitch": 51, "duration": 280, "velocity": 107}, {"time": 84960, "pitch": 49, "duration": 230, "velocity": 107}, {"time": 84960, "pitch": 61, "duration": 190, "velocity": 107}, {"time": 84960, "pitch": 65, "duration": 190, "velocity": 107}, {"time": 84960, "pitch": 68, "duration": 230, "velocity": 107}, {"time": 85440, "pitch": 36, "duration": 400, "velocity": 99}, {"time": 85440, "pitch": 48, "duration": 360, "velocity": 107}, {"time": 85440, "pitch": 58, "duration": 230, "velocity": 107}, {"time": 85440, "pitch": 63, "duration": 240, "velocity": 107}, {"time": 85440, "pitch": 67, "duration": 240, "velocity": 107}, {"time": 85800, "pitch": 58, "duration": 40, "velocity": 103}, {"time": 85800, "pitch": 63, "duration": 40, "velocity": 103}, {"time": 85800, "pitch": 67, "duration": 30, "velocity": 107}, {"time": 85920, "pitch": 36, "duration": 250, "velocity": 93}, {"time": 85920, "pitch": 48, "duration": 260, "velocity": 99}, {"time": 85920, "pitch": 58, "duration": 220, "velocity": 107}, {"time": 85920, "pitch": 63, "duration": 230, "velocity": 103}, {"time": 85920, "pitch": 67, "duration": 220, "velocity": 107}, {"time": 86280, "pitch": 58, "duration": 100, "velocity": 103}, {"time": 86280, "pitch": 63, "duration": 100, "velocity": 103}, {"time": 86280, "pitch": 67, "duration": 70, "velocity": 103}, {"time": 86520, "pitch": 58, "duration": 120, "velocity": 107}, {"time": 86520, "pitch": 63, "duration": 140, "velocity": 107}, {"time": 86520, "pitch": 67, "duration": 130, "velocity": 107}, {"time": 86640, "pitch": 36, "duration": 370, "velocity": 99}, {"time": 86760, "pitch": 58, "duration": 30, "velocity": 96}, {"time": 86760, "pitch": 63, "duration": 30, "velocity": 103}, {"time": 86760, "pitch": 67, "duration": 30, "velocity": 107}, {"time": 86880, "pitch": 48, "duration": 420, "velocity": 103}, {"time": 86880, "pitch": 58, "duration": 340, "velocity": 107}, {"time": 86880, "pitch": 63, "duration": 350, "velocity": 107}, {"time": 86880, "pitch": 67, "duration": 370, "velocity": 107}, {"time": 87120, "pitch": 36, "duration": 190, "velocity": 107}, {"time": 87360, "pitch": 41, "duration": 110, "velocity": 107}, {"time": 87360, "pitch": 56, "duration": 240, "velocity": 107}, {"time": 87360, "pitch": 60, "duration": 220, "velocity": 107}, {"time": 87360, "pitch": 65, "duration": 250, "velocity": 107}, {"time": 87600, "pitch": 41, "duration": 330, "velocity": 107}, {"time": 87840, "pitch": 53, "duration": 250, "velocity": 103}, {"time": 87840, "pitch": 60, "duration": 190, "velocity": 103}, {"time": 87840, "pitch": 65, "duration": 170, "velocity": 107}, {"time": 87840, "pitch": 68, "duration": 200, "velocity": 107}, {"time": 88080, "pitch": 41, "duration": 60, "velocity": 107}, {"time": 88320, "pitch": 39, "duration": 140, "velocity": 90}, {"time": 88320, "pitch": 51, "duration": 290, "velocity": 103}, {"time": 88320, "pitch": 60, "duration": 340, "velocity": 107}, {"time": 88320, "pitch": 63, "duration": 350, "velocity": 107}, {"time": 88320, "pitch": 67, "duration": 370, "velocity": 107}, {"time": 88560, "pitch": 39, "duration": 370, "velocity": 107}, {"time": 88800, "pitch": 51, "duration": 160, "velocity": 96}, {"time": 88800, "pitch": 63, "duration": 350, "velocity": 107}, {"time": 88800, "pitch": 72, "duration": 340, "velocity": 107}, {"time": 89040, "pitch": 39, "duration": 120, "velocity": 107}, {"time": 89040, "pitch": 51, "duration": 80, "velocity": 64}, {"time": 89280, "pitch": 37, "duration": 180, "velocity": 103}, {"time": 89280, "pitch": 49, "duration": 180, "velocity": 107}, {"time": 89520, "pitch": 61, "duration": 140, "velocity": 107}, {"time": 89520, "pitch": 65, "duration": 130, "velocity": 107}, {"time": 89520, "pitch": 68, "duration": 140, "velocity": 107}, {"time": 89760, "pitch": 61, "duration": 190, "velocity": 107}, {"time": 89760, "pitch": 65, "duration": 170, "velocity": 107}, {"time": 89760, "pitch": 68, "duration": 200, "velocity": 107}, {"time": 90000, "pitch": 36, "duration": 250, "velocity": 103}, {"time": 90000, "pitch": 48, "duration": 270, "velocity": 107}, {"time": 90240, "pitch": 60, "duration": 160, "velocity": 107}, {"time": 90240, "pitch": 63, "duration": 150, "velocity": 107}, {"time": 90240, "pitch": 68, "duration": 170, "velocity": 107}, {"time": 90480, "pitch": 60, "duration": 170, "velocity": 107}, {"time": 90480, "pitch": 63, "duration": 170, "velocity": 107}, {"time": 90480, "pitch": 68, "duration": 170, "velocity": 107}, {"time": 90960, "pitch": 34, "duration": 240, "velocity": 107}, {"time": 90960, "pitch": 46, "duration": 240, "velocity": 107}, {"time": 90960, "pitch": 56, "duration": 240, "velocity": 107}, {"time": 90960, "pitch": 61, "duration": 240, "velocity": 107}, {"time": 90960, "pitch": 65, "duration": 240, "velocity": 107}, {"time": 91200, "pitch": 34, "duration": 190, "velocity": 107}, {"time": 91200, "pitch": 46, "duration": 190, "velocity": 107}, {"time": 91200, "pitch": 56, "duration": 130, "velocity": 107}, {"time": 91200, "pitch": 61, "duration": 140, "velocity": 107}, {"time": 91200, "pitch": 65, "duration": 140, "velocity": 107}, {"time": 91440, "pitch": 36, "duration": 280, "velocity": 103}, {"time": 91440, "pitch": 48, "duration": 280, "velocity": 103}, {"time": 91440, "pitch": 56, "duration": 140, "velocity": 107}, {"time": 91440, "pitch": 61, "duration": 140, "velocity": 107}, {"time": 91440, "pitch": 65, "duration": 150, "velocity": 107}, {"time": 91680, "pitch": 37, "duration": 200, "velocity": 107}, {"time": 91680, "pitch": 49, "duration": 200, "velocity": 107}, {"time": 91680, "pitch": 56, "duration": 130, "velocity": 107}, {"time": 91680, "pitch": 61, "duration": 140, "velocity": 107}, {"time": 91680, "pitch": 65, "duration": 150, "velocity": 107}, {"time": 91920, "pitch": 39, "duration": 750, "velocity": 107}, {"time": 91920, "pitch": 51, "duration": 750, "velocity": 107}, {"time": 91920, "pitch": 58, "duration": 330, "velocity": 107}, {"time": 91920, "pitch": 63, "duration": 360, "velocity": 107}, {"time": 91920, "pitch": 67, "duration": 400, "velocity": 107}, {"time": 92480, "pitch": 84, "duration": 60, "velocity": 82}, {"time": 92480, "pitch": 86, "duration": 30, "velocity": 90}, {"time": 92520, "pitch": 83, "duration": 40, "velocity": 82}, {"time": 92550, "pitch": 81, "duration": 30, "velocity": 103}, {"time": 92570, "pitch": 79, "duration": 30, "velocity": 107}, {"time": 92590, "pitch": 77, "duration": 30, "velocity": 107}, {"time": 92610, "pitch": 76, "duration": 30, "velocity": 107}, {"time": 92630, "pitch": 74, "duration": 30, "velocity": 103}, {"time": 92650, "pitch": 72, "duration": 30, "velocity": 107}, {"time": 92670, "pitch": 71, "duration": 30, "velocity": 107}, {"time": 92690, "pitch": 69, "duration": 40, "velocity": 107}, {"time": 92710, "pitch": 67, "duration": 40, "velocity": 103}, {"time": 92730, "pitch": 65, "duration": 40, "velocity": 103}, {"time": 92760, "pitch": 64, "duration": 40, "velocity": 103}, {"time": 92780, "pitch": 62, "duration": 40, "velocity": 93}, {"time": 92810, "pitch": 60, "duration": 40, "velocity": 93}, {"time": 92830, "pitch": 59, "duration": 40, "velocity": 99}, {"time": 92860, "pitch": 57, "duration": 40, "velocity": 93}, {"time": 92880, "pitch": 55, "duration": 40, "velocity": 99}, {"time": 92910, "pitch": 53, "duration": 40, "velocity": 99}, {"time": 92930, "pitch": 52, "duration": 40, "velocity": 90}, {"time": 92960, "pitch": 50, "duration": 40, "velocity": 93}, {"time": 92980, "pitch": 48, "duration": 40, "velocity": 90}, {"time": 93120, "pitch": 44, "duration": 100, "velocity": 96}, {"time": 93120, "pitch": 56, "duration": 380, "velocity": 107}, {"time": 93120, "pitch": 60, "duration": 380, "velocity": 103}, {"time": 93120, "pitch": 63, "duration": 390, "velocity": 107}, {"time": 93360, "pitch": 44, "duration": 360, "velocity": 96}, {"time": 93600, "pitch": 56, "duration": 250, "velocity": 107}, {"time": 93600, "pitch": 60, "duration": 240, "velocity": 107}, {"time": 93600, "pitch": 63, "duration": 250, "velocity": 107}, {"time": 93840, "pitch": 44, "duration": 110, "velocity": 103}, {"time": 93960, "pitch": 43, "duration": 120, "velocity": 99}, {"time": 93960, "pitch": 55, "duration": 460, "velocity": 107}, {"time": 93960, "pitch": 58, "duration": 510, "velocity": 107}, {"time": 93960, "pitch": 63, "duration": 530, "velocity": 103}, {"time": 94320, "pitch": 43, "duration": 370, "velocity": 107}, {"time": 94560, "pitch": 55, "duration": 340, "velocity": 93}, {"time": 94560, "pitch": 58, "duration": 370, "velocity": 107}, {"time": 94560, "pitch": 63, "duration": 380, "velocity": 103}, {"time": 94560, "pitch": 67, "duration": 360, "velocity": 107}, {"time": 94800, "pitch": 43, "duration": 140, "velocity": 107}, {"time": 95040, "pitch": 41, "duration": 170, "velocity": 107}, {"time": 95040, "pitch": 53, "duration": 230, "velocity": 93}, {"time": 95040, "pitch": 56, "duration": 400, "velocity": 107}, {"time": 95040, "pitch": 60, "duration": 410, "velocity": 103}, {"time": 95040, "pitch": 65, "duration": 410, "velocity": 107}, {"time": 95280, "pitch": 41, "duration": 320, "velocity": 107}, {"time": 95520, "pitch": 53, "duration": 220, "velocity": 107}, {"time": 95520, "pitch": 56, "duration": 290, "velocity": 107}, {"time": 95520, "pitch": 60, "duration": 280, "velocity": 107}, {"time": 95520, "pitch": 65, "duration": 280, "velocity": 107}, {"time": 95760, "pitch": 41, "duration": 60, "velocity": 107}, {"time": 95880, "pitch": 39, "duration": 200, "velocity": 107}, {"time": 95880, "pitch": 51, "duration": 380, "velocity": 103}, {"time": 95880, "pitch": 55, "duration": 480, "velocity": 107}, {"time": 95880, "pitch": 60, "duration": 520, "velocity": 103}, {"time": 95880, "pitch": 63, "duration": 520, "velocity": 96}, {"time": 96240, "pitch": 39, "duration": 380, "velocity": 107}, {"time": 96480, "pitch": 51, "duration": 350, "velocity": 107}, {"time": 96480, "pitch": 60, "duration": 380, "velocity": 107}, {"time": 96480, "pitch": 63, "duration": 410, "velocity": 107}, {"time": 96480, "pitch": 67, "duration": 400, "velocity": 107}, {"time": 96720, "pitch": 39, "duration": 150, "velocity": 107}, {"time": 96960, "pitch": 37, "duration": 140, "velocity": 103}, {"time": 96960, "pitch": 49, "duration": 310, "velocity": 74}, {"time": 96960, "pitch": 61, "duration": 430, "velocity": 103}, {"time": 96960, "pitch": 65, "duration": 430, "velocity": 99}, {"time": 97200, "pitch": 37, "duration": 360, "velocity": 103}, {"time": 97200, "pitch": 56, "duration": 170, "velocity": 103}, {"time": 97440, "pitch": 49, "duration": 280, "velocity": 103}, {"time": 97440, "pitch": 56, "duration": 280, "velocity": 103}, {"time": 97440, "pitch": 61, "duration": 280, "velocity": 103}, {"time": 97440, "pitch": 65, "duration": 290, "velocity": 107}, {"time": 97680, "pitch": 37, "duration": 50, "velocity": 103}, {"time": 97800, "pitch": 36, "duration": 260, "velocity": 93}, {"time": 97800, "pitch": 48, "duration": 300, "velocity": 103}, {"time": 97800, "pitch": 56, "duration": 400, "velocity": 103}, {"time": 97800, "pitch": 60, "duration": 410, "velocity": 103}, {"time": 97800, "pitch": 63, "duration": 420, "velocity": 103}, {"time": 98280, "pitch": 36, "duration": 210, "velocity": 107}, {"time": 98280, "pitch": 56, "duration": 250, "velocity": 103}, {"time": 98280, "pitch": 60, "duration": 240, "velocity": 107}, {"time": 98280, "pitch": 63, "duration": 270, "velocity": 90}, {"time": 98400, "pitch": 48, "duration": 220, "velocity": 107}, {"time": 98640, "pitch": 46, "duration": 240, "velocity": 107}, {"time": 98640, "pitch": 56, "duration": 240, "velocity": 107}, {"time": 98640, "pitch": 61, "duration": 240, "velocity": 107}, {"time": 98640, "pitch": 65, "duration": 240, "velocity": 107}, {"time": 98880, "pitch": 46, "duration": 210, "velocity": 107}, {"time": 98880, "pitch": 56, "duration": 160, "velocity": 107}, {"time": 98880, "pitch": 61, "duration": 170, "velocity": 107}, {"time": 98880, "pitch": 65, "duration": 170, "velocity": 107}, {"time": 99120, "pitch": 48, "duration": 290, "velocity": 90}, {"time": 99120, "pitch": 56, "duration": 150, "velocity": 103}, {"time": 99120, "pitch": 61, "duration": 160, "velocity": 96}, {"time": 99120, "pitch": 65, "duration": 160, "velocity": 107}, {"time": 99360, "pitch": 49, "duration": 200, "velocity": 107}, {"time": 99360, "pitch": 56, "duration": 130, "velocity": 103}, {"time": 99360, "pitch": 61, "duration": 160, "velocity": 103}, {"time": 99360, "pitch": 65, "duration": 160, "velocity": 107}, {"time": 99600, "pitch": 51, "duration": 520, "velocity": 107}, {"time": 99600, "pitch": 58, "duration": 440, "velocity": 107}, {"time": 99600, "pitch": 63, "duration": 630, "velocity": 107}, {"time": 99600, "pitch": 67, "duration": 620, "velocity": 107}, {"time": 100080, "pitch": 39, "duration": 340, "velocity": 103}, {"time": 100080, "pitch": 58, "duration": 170, "velocity": 57}, {"time": 100320, "pitch": 51, "duration": 480, "velocity": 107}, {"time": 100320, "pitch": 58, "duration": 390, "velocity": 107}, {"time": 100320, "pitch": 63, "duration": 380, "velocity": 107}, {"time": 100320, "pitch": 65, "duration": 390, "velocity": 107}, {"time": 100560, "pitch": 39, "duration": 240, "velocity": 103}, {"time": 100800, "pitch": 39, "duration": 10, "velocity": 103}, {"time": 100800, "pitch": 44, "duration": 140, "velocity": 90}, {"time": 100800, "pitch": 51, "duration": 10, "velocity": 107}, {"time": 100800, "pitch": 56, "duration": 400, "velocity": 107}, {"time": 100800, "pitch": 60, "duration": 410, "velocity": 103}, {"time": 100800, "pitch": 63, "duration": 420, "velocity": 96}, {"time": 101040, "pitch": 44, "duration": 360, "velocity": 103}, {"time": 101280, "pitch": 60, "duration": 250, "velocity": 107}, {"time": 101280, "pitch": 63, "duration": 270, "velocity": 103}, {"time": 101280, "pitch": 68, "duration": 270, "velocity": 103}, {"time": 101520, "pitch": 44, "duration": 130, "velocity": 96}, {"time": 101640, "pitch": 43, "duration": 150, "velocity": 99}, {"time": 101640, "pitch": 58, "duration": 520, "velocity": 107}, {"time": 101640, "pitch": 63, "duration": 530, "velocity": 103}, {"time": 101640, "pitch": 67, "duration": 520, "velocity": 107}, {"time": 102000, "pitch": 43, "duration": 390, "velocity": 107}, {"time": 102240, "pitch": 55, "duration": 380, "velocity": 107}, {"time": 102240, "pitch": 58, "duration": 390, "velocity": 107}, {"time": 102240, "pitch": 63, "duration": 400, "velocity": 103}, {"time": 102480, "pitch": 43, "duration": 240, "velocity": 103}, {"time": 102720, "pitch": 41, "duration": 110, "velocity": 90}, {"time": 102720, "pitch": 43, "duration": 10, "velocity": 103}, {"time": 102720, "pitch": 53, "duration": 340, "velocity": 107}, {"time": 102720, "pitch": 56, "duration": 360, "velocity": 107}, {"time": 102720, "pitch": 60, "duration": 410, "velocity": 107}, {"time": 102960, "pitch": 41, "duration": 330, "velocity": 103}, {"time": 103200, "pitch": 53, "duration": 250, "velocity": 90}, {"time": 103200, "pitch": 56, "duration": 290, "velocity": 103}, {"time": 103200, "pitch": 60, "duration": 220, "velocity": 99}, {"time": 103200, "pitch": 65, "duration": 280, "velocity": 107}, {"time": 103440, "pitch": 41, "duration": 60, "velocity": 103}, {"time": 103560, "pitch": 39, "duration": 210, "velocity": 103}, {"time": 103560, "pitch": 51, "duration": 370, "velocity": 103}, {"time": 103560, "pitch": 55, "duration": 490, "velocity": 107}, {"time": 103560, "pitch": 60, "duration": 500, "velocity": 107}, {"time": 103560, "pitch": 63, "duration": 520, "velocity": 96}, {"time": 103920, "pitch": 39, "duration": 380, "velocity": 96}, {"time": 104160, "pitch": 51, "duration": 350, "velocity": 103}, {"time": 104160, "pitch": 55, "duration": 360, "velocity": 107}, {"time": 104160, "pitch": 60, "duration": 370, "velocity": 107}, {"time": 104160, "pitch": 63, "duration": 410, "velocity": 84}, {"time": 104400, "pitch": 39, "duration": 160, "velocity": 96}, {"time": 104640, "pitch": 37, "duration": 130, "velocity": 96}, {"time": 104640, "pitch": 49, "duration": 310, "velocity": 80}, {"time": 104640, "pitch": 56, "duration": 130, "velocity": 103}, {"time": 104640, "pitch": 61, "duration": 420, "velocity": 107}, {"time": 104880, "pitch": 37, "duration": 360, "velocity": 96}, {"time": 104880, "pitch": 56, "duration": 170, "velocity": 96}, {"time": 105120, "pitch": 49, "duration": 250, "velocity": 107}, {"time": 105120, "pitch": 56, "duration": 250, "velocity": 107}, {"time": 105120, "pitch": 61, "duration": 270, "velocity": 107}, {"time": 105120, "pitch": 65, "duration": 250, "velocity": 103}, {"time": 105360, "pitch": 37, "duration": 30, "velocity": 107}, {"time": 105480, "pitch": 36, "duration": 270, "velocity": 107}, {"time": 105480, "pitch": 48, "duration": 290, "velocity": 103}, {"time": 105480, "pitch": 56, "duration": 410, "velocity": 107}, {"time": 105480, "pitch": 60, "duration": 410, "velocity": 107}, {"time": 105480, "pitch": 63, "duration": 420, "velocity": 103}, {"time": 105840, "pitch": 36, "duration": 190, "velocity": 103}, {"time": 105960, "pitch": 56, "duration": 240, "velocity": 103}, {"time": 105960, "pitch": 60, "duration": 240, "velocity": 107}, {"time": 105960, "pitch": 63, "duration": 260, "velocity": 103}, {"time": 106080, "pitch": 48, "duration": 230, "velocity": 107}, {"time": 106320, "pitch": 46, "duration": 240, "velocity": 107}, {"time": 106320, "pitch": 56, "duration": 240, "velocity": 103}, {"time": 106320, "pitch": 61, "duration": 240, "velocity": 107}, {"time": 106320, "pitch": 65, "duration": 240, "velocity": 107}, {"time": 106560, "pitch": 46, "duration": 230, "velocity": 107}, {"time": 106560, "pitch": 56, "duration": 170, "velocity": 103}, {"time": 106560, "pitch": 61, "duration": 180, "velocity": 107}, {"time": 106560, "pitch": 65, "duration": 160, "velocity": 107}, {"time": 106800, "pitch": 48, "duration": 280, "velocity": 90}, {"time": 106800, "pitch": 56, "duration": 160, "velocity": 96}, {"time": 106800, "pitch": 61, "duration": 170, "velocity": 103}, {"time": 106800, "pitch": 65, "duration": 160, "velocity": 107}, {"time": 107040, "pitch": 49, "duration": 200, "velocity": 107}, {"time": 107040, "pitch": 56, "duration": 130, "velocity": 103}, {"time": 107040, "pitch": 61, "duration": 160, "velocity": 103}, {"time": 107040, "pitch": 65, "duration": 130, "velocity": 107}, {"time": 107280, "pitch": 51, "duration": 640, "velocity": 107}, {"time": 107280, "pitch": 58, "duration": 650, "velocity": 107}, {"time": 107280, "pitch": 63, "duration": 650, "velocity": 103}, {"time": 107280, "pitch": 67, "duration": 650, "velocity": 107}, {"time": 107760, "pitch": 39, "duration": 590, "velocity": 107}, {"time": 108000, "pitch": 51, "duration": 350, "velocity": 107}, {"time": 108000, "pitch": 58, "duration": 350, "velocity": 107}, {"time": 108000, "pitch": 63, "duration": 340, "velocity": 107}, {"time": 108000, "pitch": 67, "duration": 350, "velocity": 107}, {"time": 108480, "pitch": 45, "duration": 170, "velocity": 107}, {"time": 108480, "pitch": 55, "duration": 190, "velocity": 107}, {"time": 108480, "pitch": 60, "duration": 200, "velocity": 103}, {"time": 108480, "pitch": 64, "duration": 210, "velocity": 107}, {"time": 108720, "pitch": 47, "duration": 160, "velocity": 103}, {"time": 108720, "pitch": 55, "duration": 140, "velocity": 99}, {"time": 108720, "pitch": 60, "duration": 130, "velocity": 103}, {"time": 108720, "pitch": 64, "duration": 140, "velocity": 87}, {"time": 108960, "pitch": 48, "duration": 200, "velocity": 107}, {"time": 108960, "pitch": 55, "duration": 140, "velocity": 99}, {"time": 108960, "pitch": 60, "duration": 160, "velocity": 103}, {"time": 108960, "pitch": 64, "duration": 160, "velocity": 103}, {"time": 109200, "pitch": 50, "duration": 610, "velocity": 107}, {"time": 109200, "pitch": 57, "duration": 620, "velocity": 103}, {"time": 109200, "pitch": 62, "duration": 640, "velocity": 107}, {"time": 109200, "pitch": 66, "duration": 640, "velocity": 107}, {"time": 109680, "pitch": 38, "duration": 380, "velocity": 107}, {"time": 109920, "pitch": 50, "duration": 480, "velocity": 99}, {"time": 109920, "pitch": 57, "duration": 400, "velocity": 107}, {"time": 109920, "pitch": 62, "duration": 360, "velocity": 107}, {"time": 109920, "pitch": 66, "duration": 360, "velocity": 107}, {"time": 110160, "pitch": 38, "duration": 130, "velocity": 107}, {"time": 110400, "pitch": 44, "duration": 170, "velocity": 96}, {"time": 110400, "pitch": 50, "duration": 10, "velocity": 99}, {"time": 110400, "pitch": 56, "duration": 150, "velocity": 96}, {"time": 110400, "pitch": 60, "duration": 140, "velocity": 107}, {"time": 110400, "pitch": 63, "duration": 150, "velocity": 103}, {"time": 110640, "pitch": 46, "duration": 200, "velocity": 90}, {"time": 110640, "pitch": 56, "duration": 140, "velocity": 103}, {"time": 110640, "pitch": 60, "duration": 140, "velocity": 107}, {"time": 110640, "pitch": 63, "duration": 140, "velocity": 103}, {"time": 110880, "pitch": 48, "duration": 220, "velocity": 99}, {"time": 110880, "pitch": 56, "duration": 160, "velocity": 103}, {"time": 110880, "pitch": 60, "duration": 160, "velocity": 107}, {"time": 110880, "pitch": 63, "duration": 170, "velocity": 107}, {"time": 111120, "pitch": 49, "duration": 890, "velocity": 107}, {"time": 111120, "pitch": 56, "duration": 610, "velocity": 103}, {"time": 111120, "pitch": 61, "duration": 620, "velocity": 107}, {"time": 111120, "pitch": 65, "duration": 610, "velocity": 107}, {"time": 111600, "pitch": 44, "duration": 230, "velocity": 95}, {"time": 111840, "pitch": 37, "duration": 420, "velocity": 107}, {"time": 111840, "pitch": 56, "duration": 430, "velocity": 103}, {"time": 111840, "pitch": 61, "duration": 420, "velocity": 107}, {"time": 111840, "pitch": 65, "duration": 420, "velocity": 107}, {"time": 112080, "pitch": 49, "duration": 230, "velocity": 103}, {"time": 112320, "pitch": 48, "duration": 1870, "velocity": 107}, {"time": 112320, "pitch": 55, "duration": 610, "velocity": 103}, {"time": 112320, "pitch": 58, "duration": 630, "velocity": 107}, {"time": 112320, "pitch": 62, "duration": 630, "velocity": 107}, {"time": 112320, "pitch": 65, "duration": 620, "velocity": 103}, {"time": 113040, "pitch": 55, "duration": 40, "velocity": 90}, {"time": 113040, "pitch": 58, "duration": 40, "velocity": 90}, {"time": 113040, "pitch": 62, "duration": 30, "velocity": 84}, {"time": 113040, "pitch": 65, "duration": 30, "velocity": 78}, {"time": 113160, "pitch": 55, "duration": 230, "velocity": 107}, {"time": 113160, "pitch": 58, "duration": 240, "velocity": 107}, {"time": 113160, "pitch": 62, "duration": 260, "velocity": 107}, {"time": 113160, "pitch": 65, "duration": 290, "velocity": 107}, {"time": 113520, "pitch": 43, "duration": 230, "velocity": 107}, {"time": 113760, "pitch": 36, "duration": 390, "velocity": 107}, {"time": 113880, "pitch": 67, "duration": 280, "velocity": 107}, {"time": 114000, "pitch": 70, "duration": 160, "velocity": 107}, {"time": 114240, "pitch": 36, "duration": 1360, "velocity": 103}, {"time": 114240, "pitch": 48, "duration": 340, "velocity": 82}, {"time": 114240, "pitch": 67, "duration": 370, "velocity": 103}, {"time": 114240, "pitch": 70, "duration": 380, "velocity": 107}, {"time": 114240, "pitch": 77, "duration": 420, "velocity": 107}, {"time": 114480, "pitch": 43, "duration": 250, "velocity": 54}, {"time": 114720, "pitch": 48, "duration": 890, "velocity": 107}, {"time": 114960, "pitch": 79, "duration": 170, "velocity": 107}, {"time": 114960, "pitch": 82, "duration": 160, "velocity": 107}, {"time": 114960, "pitch": 86, "duration": 280, "velocity": 107}, {"time": 114960, "pitch": 89, "duration": 280, "velocity": 107}, {"time": 115230, "pitch": 83, "duration": 40, "velocity": 65}, {"time": 115260, "pitch": 81, "duration": 40, "velocity": 90}, {"time": 115290, "pitch": 79, "duration": 40, "velocity": 90}, {"time": 115310, "pitch": 77, "duration": 40, "velocity": 87}, {"time": 115330, "pitch": 76, "duration": 40, "velocity": 88}, {"time": 115360, "pitch": 74, "duration": 40, "velocity": 84}, {"time": 115390, "pitch": 72, "duration": 40, "velocity": 82}, {"time": 115410, "pitch": 71, "duration": 40, "velocity": 78}, {"time": 115440, "pitch": 69, "duration": 30, "velocity": 82}, {"time": 115470, "pitch": 67, "duration": 30, "velocity": 78}, {"time": 115490, "pitch": 65, "duration": 30, "velocity": 82}, {"time": 115520, "pitch": 64, "duration": 30, "velocity": 82}, {"time": 115550, "pitch": 62, "duration": 40, "velocity": 78}, {"time": 115580, "pitch": 60, "duration": 40, "velocity": 76}, {"time": 115600, "pitch": 59, "duration": 40, "velocity": 82}, {"time": 115630, "pitch": 57, "duration": 30, "velocity": 78}, {"time": 115670, "pitch": 55, "duration": 30, "velocity": 76}, {"time": 115690, "pitch": 53, "duration": 30, "velocity": 78}, {"time": 115720, "pitch": 52, "duration": 30, "velocity": 82}, {"time": 115750, "pitch": 50, "duration": 30, "velocity": 84}, {"time": 115780, "pitch": 48, "duration": 30, "velocity": 84}, {"time": 115800, "pitch": 47, "duration": 30, "velocity": 76}, {"time": 116160, "pitch": 57, "duration": 70, "velocity": 98}, {"time": 116160, "pitch": 60, "duration": 70, "velocity": 102}, {"time": 116160, "pitch": 62, "duration": 70, "velocity": 102}, {"time": 116160, "pitch": 65, "duration": 100, "velocity": 102}, {"time": 116520, "pitch": 57, "duration": 270, "velocity": 102}, {"time": 116520, "pitch": 60, "duration": 280, "velocity": 107}, {"time": 116520, "pitch": 62, "duration": 280, "velocity": 107}, {"time": 116520, "pitch": 65, "duration": 280, "velocity": 107}, {"time": 116880, "pitch": 57, "duration": 150, "velocity": 94}, {"time": 116880, "pitch": 60, "duration": 150, "velocity": 98}, {"time": 116880, "pitch": 62, "duration": 150, "velocity": 102}, {"time": 117120, "pitch": 57, "duration": 60, "velocity": 88}, {"time": 117120, "pitch": 60, "duration": 70, "velocity": 98}, {"time": 117120, "pitch": 62, "duration": 70, "velocity": 102}, {"time": 117120, "pitch": 65, "duration": 100, "velocity": 102}, {"time": 117480, "pitch": 57, "duration": 270, "velocity": 98}, {"time": 117480, "pitch": 60, "duration": 290, "velocity": 102}, {"time": 117480, "pitch": 62, "duration": 280, "velocity": 107}, {"time": 117480, "pitch": 65, "duration": 270, "velocity": 102}, {"time": 117840, "pitch": 57, "duration": 130, "velocity": 88}, {"time": 117840, "pitch": 60, "duration": 140, "velocity": 94}, {"time": 117840, "pitch": 62, "duration": 140, "velocity": 98}, {"time": 118080, "pitch": 55, "duration": 100, "velocity": 102}, {"time": 118080, "pitch": 58, "duration": 90, "velocity": 98}, {"time": 118080, "pitch": 62, "duration": 110, "velocity": 102}, {"time": 118080, "pitch": 65, "duration": 120, "velocity": 98}, {"time": 118440, "pitch": 55, "duration": 270, "velocity": 98}, {"time": 118440, "pitch": 58, "duration": 280, "velocity": 98}, {"time": 118440, "pitch": 62, "duration": 270, "velocity": 102}, {"time": 118440, "pitch": 65, "duration": 270, "velocity": 98}, {"time": 118800, "pitch": 55, "duration": 150, "velocity": 94}, {"time": 118800, "pitch": 58, "duration": 150, "velocity": 98}, {"time": 118800, "pitch": 62, "duration": 160, "velocity": 102}, {"time": 119040, "pitch": 55, "duration": 80, "velocity": 98}, {"time": 119040, "pitch": 58, "duration": 70, "velocity": 98}, {"time": 119040, "pitch": 62, "duration": 80, "velocity": 102}, {"time": 119040, "pitch": 65, "duration": 90, "velocity": 102}, {"time": 119400, "pitch": 55, "duration": 250, "velocity": 98}, {"time": 119400, "pitch": 58, "duration": 260, "velocity": 107}, {"time": 119400, "pitch": 62, "duration": 260, "velocity": 107}, {"time": 119400, "pitch": 65, "duration": 250, "velocity": 94}, {"time": 119760, "pitch": 55, "duration": 130, "velocity": 94}, {"time": 119760, "pitch": 58, "duration": 140, "velocity": 98}, {"time": 119760, "pitch": 62, "duration": 130, "velocity": 102}, {"time": 120000, "pitch": 55, "duration": 70, "velocity": 94}, {"time": 120000, "pitch": 57, "duration": 70, "velocity": 102}, {"time": 120000, "pitch": 60, "duration": 70, "velocity": 102}, {"time": 120000, "pitch": 64, "duration": 90, "velocity": 94}, {"time": 120360, "pitch": 55, "duration": 220, "velocity": 98}, {"time": 120360, "pitch": 57, "duration": 230, "velocity": 102}, {"time": 120360, "pitch": 60, "duration": 230, "velocity": 102}, {"time": 120360, "pitch": 64, "duration": 230, "velocity": 98}, {"time": 120720, "pitch": 55, "duration": 120, "velocity": 85}, {"time": 120720, "pitch": 57, "duration": 130, "velocity": 94}, {"time": 120720, "pitch": 60, "duration": 140, "velocity": 98}, {"time": 120960, "pitch": 57, "duration": 140, "velocity": 94}, {"time": 120960, "pitch": 60, "duration": 140, "velocity": 98}, {"time": 120960, "pitch": 62, "duration": 150, "velocity": 102}, {"time": 121200, "pitch": 57, "duration": 130, "velocity": 82}, {"time": 121200, "pitch": 60, "duration": 150, "velocity": 85}, {"time": 121200, "pitch": 62, "duration": 160, "velocity": 94}, {"time": 121440, "pitch": 57, "duration": 130, "velocity": 88}, {"time": 121440, "pitch": 60, "duration": 150, "velocity": 102}, {"time": 121440, "pitch": 64, "duration": 160, "velocity": 102}, {"time": 121680, "pitch": 57, "duration": 130, "velocity": 98}, {"time": 121680, "pitch": 60, "duration": 120, "velocity": 102}, {"time": 121680, "pitch": 62, "duration": 150, "velocity": 102}, {"time": 121680, "pitch": 65, "duration": 150, "velocity": 102}, {"time": 121920, "pitch": 58, "duration": 80, "velocity": 98}, {"time": 121920, "pitch": 62, "duration": 80, "velocity": 102}, {"time": 121920, "pitch": 65, "duration": 80, "velocity": 88}, {"time": 121920, "pitch": 67, "duration": 100, "velocity": 98}, {"time": 122280, "pitch": 58, "duration": 250, "velocity": 98}, {"time": 122280, "pitch": 62, "duration": 260, "velocity": 107}, {"time": 122280, "pitch": 65, "duration": 240, "velocity": 102}, {"time": 122280, "pitch": 67, "duration": 250, "velocity": 107}, {"time": 122640, "pitch": 58, "duration": 150, "velocity": 98}, {"time": 122640, "pitch": 62, "duration": 160, "velocity": 102}, {"time": 122880, "pitch": 60, "duration": 130, "velocity": 98}, {"time": 122880, "pitch": 64, "duration": 150, "velocity": 107}, {"time": 123120, "pitch": 60, "duration": 170, "velocity": 98}, {"time": 123120, "pitch": 64, "duration": 180, "velocity": 107}, {"time": 123360, "pitch": 60, "duration": 180, "velocity": 85}, {"time": 123360, "pitch": 62, "duration": 190, "velocity": 98}, {"time": 123360, "pitch": 65, "duration": 180, "velocity": 94}, {"time": 123600, "pitch": 60, "duration": 150, "velocity": 98}, {"time": 123600, "pitch": 64, "duration": 150, "velocity": 107}, {"time": 123600, "pitch": 67, "duration": 150, "velocity": 102}, {"time": 123840, "pitch": 41, "duration": 80, "velocity": 98}, {"time": 123840, "pitch": 57, "duration": 100, "velocity": 98}, {"time": 123840, "pitch": 60, "duration": 100, "velocity": 107}, {"time": 123840, "pitch": 62, "duration": 100, "velocity": 107}, {"time": 123840, "pitch": 65, "duration": 120, "velocity": 102}, {"time": 124200, "pitch": 41, "duration": 300, "velocity": 91}, {"time": 124200, "pitch": 57, "duration": 270, "velocity": 102}, {"time": 124200, "pitch": 60, "duration": 270, "velocity": 107}, {"time": 124200, "pitch": 62, "duration": 270, "velocity": 107}, {"time": 124200, "pitch": 65, "duration": 270, "velocity": 102}, {"time": 124550, "pitch": 38, "duration": 190, "velocity": 94}, {"time": 124560, "pitch": 57, "duration": 160, "velocity": 88}, {"time": 124560, "pitch": 60, "duration": 170, "velocity": 94}, {"time": 124560, "pitch": 62, "duration": 180, "velocity": 98}, {"time": 124800, "pitch": 41, "duration": 80, "velocity": 91}, {"time": 124800, "pitch": 57, "duration": 80, "velocity": 85}, {"time": 124800, "pitch": 60, "duration": 80, "velocity": 94}, {"time": 124800, "pitch": 62, "duration": 80, "velocity": 102}, {"time": 124800, "pitch": 65, "duration": 90, "velocity": 98}, {"time": 125160, "pitch": 41, "duration": 270, "velocity": 98}, {"time": 125160, "pitch": 57, "duration": 260, "velocity": 98}, {"time": 125160, "pitch": 60, "duration": 270, "velocity": 98}, {"time": 125160, "pitch": 62, "duration": 270, "velocity": 102}, {"time": 125160, "pitch": 65, "duration": 260, "velocity": 98}, {"time": 125510, "pitch": 38, "duration": 230, "velocity": 79}, {"time": 125520, "pitch": 57, "duration": 140, "velocity": 94}, {"time": 125520, "pitch": 60, "duration": 130, "velocity": 98}, {"time": 125520, "pitch": 62, "duration": 160, "velocity": 98}, {"time": 125760, "pitch": 36, "duration": 70, "velocity": 85}, {"time": 125760, "pitch": 55, "duration": 80, "velocity": 94}, {"time": 125760, "pitch": 58, "duration": 80, "velocity": 98}, {"time": 125760, "pitch": 62, "duration": 90, "velocity": 107}, {"time": 125760, "pitch": 65, "duration": 90, "velocity": 98}, {"time": 126120, "pitch": 36, "duration": 360, "velocity": 75}, {"time": 126120, "pitch": 55, "duration": 280, "velocity": 102}, {"time": 126120, "pitch": 58, "duration": 290, "velocity": 107}, {"time": 126120, "pitch": 62, "duration": 290, "velocity": 107}, {"time": 126120, "pitch": 65, "duration": 280, "velocity": 102}, {"time": 126470, "pitch": 33, "duration": 200, "velocity": 85}, {"time": 126480, "pitch": 55, "duration": 140, "velocity": 94}, {"time": 126480, "pitch": 58, "duration": 150, "velocity": 98}, {"time": 126480, "pitch": 62, "duration": 150, "velocity": 102}, {"time": 126720, "pitch": 36, "duration": 70, "velocity": 79}, {"time": 126720, "pitch": 55, "duration": 60, "velocity": 94}, {"time": 126720, "pitch": 58, "duration": 50, "velocity": 98}, {"time": 126720, "pitch": 62, "duration": 70, "velocity": 107}, {"time": 126720, "pitch": 65, "duration": 90, "velocity": 98}, {"time": 127080, "pitch": 36, "duration": 290, "velocity": 85}, {"time": 127080, "pitch": 55, "duration": 270, "velocity": 98}, {"time": 127080, "pitch": 58, "duration": 280, "velocity": 98}, {"time": 127080, "pitch": 62, "duration": 270, "velocity": 102}, {"time": 127080, "pitch": 65, "duration": 270, "velocity": 98}, {"time": 127430, "pitch": 34, "duration": 220, "velocity": 79}, {"time": 127440, "pitch": 55, "duration": 130, "velocity": 85}, {"time": 127440, "pitch": 58, "duration": 150, "velocity": 91}, {"time": 127440, "pitch": 62, "duration": 150, "velocity": 102}, {"time": 127680, "pitch": 33, "duration": 90, "velocity": 79}, {"time": 127680, "pitch": 55, "duration": 90, "velocity": 98}, {"time": 127680, "pitch": 60, "duration": 90, "velocity": 102}, {"time": 127680, "pitch": 64, "duration": 90, "velocity": 107}, {"time": 128040, "pitch": 33, "duration": 320, "velocity": 88}, {"time": 128040, "pitch": 55, "duration": 260, "velocity": 98}, {"time": 128040, "pitch": 60, "duration": 270, "velocity": 102}, {"time": 128040, "pitch": 64, "duration": 260, "velocity": 107}, {"time": 128390, "pitch": 36, "duration": 210, "velocity": 98}, {"time": 128400, "pitch": 55, "duration": 140, "velocity": 94}, {"time": 128400, "pitch": 60, "duration": 150, "velocity": 98}, {"time": 128640, "pitch": 38, "duration": 140, "velocity": 82}, {"time": 128640, "pitch": 57, "duration": 130, "velocity": 85}, {"time": 128640, "pitch": 60, "duration": 140, "velocity": 88}, {"time": 128640, "pitch": 62, "duration": 140, "velocity": 94}, {"time": 128880, "pitch": 38, "duration": 170, "velocity": 82}, {"time": 128880, "pitch": 57, "duration": 140, "velocity": 88}, {"time": 128880, "pitch": 60, "duration": 130, "velocity": 94}, {"time": 128880, "pitch": 62, "duration": 150, "velocity": 102}, {"time": 129120, "pitch": 41, "duration": 210, "velocity": 91}, {"time": 129120, "pitch": 57, "duration": 140, "velocity": 88}, {"time": 129120, "pitch": 60, "duration": 150, "velocity": 102}, {"time": 129120, "pitch": 64, "duration": 160, "velocity": 102}, {"time": 129350, "pitch": 45, "duration": 190, "velocity": 79}, {"time": 129360, "pitch": 57, "duration": 120, "velocity": 98}, {"time": 129360, "pitch": 62, "duration": 140, "velocity": 107}, {"time": 129360, "pitch": 65, "duration": 150, "velocity": 98}, {"time": 129600, "pitch": 39, "duration": 90, "velocity": 98}, {"time": 129600, "pitch": 55, "duration": 80, "velocity": 103}, {"time": 129600, "pitch": 58, "duration": 80, "velocity": 107}, {"time": 129600, "pitch": 63, "duration": 100, "velocity": 107}, {"time": 129960, "pitch": 39, "duration": 310, "velocity": 91}, {"time": 129960, "pitch": 55, "duration": 270, "velocity": 107}, {"time": 129960, "pitch": 58, "duration": 270, "velocity": 107}, {"time": 129960, "pitch": 63, "duration": 280, "velocity": 107}, {"time": 130310, "pitch": 46, "duration": 200, "velocity": 88}, {"time": 130320, "pitch": 55, "duration": 170, "velocity": 103}, {"time": 130320, "pitch": 58, "duration": 170, "velocity": 107}, {"time": 130320, "pitch": 63, "duration": 170, "velocity": 107}, {"time": 130560, "pitch": 39, "duration": 150, "velocity": 91}, {"time": 130560, "pitch": 55, "duration": 140, "velocity": 107}, {"time": 130560, "pitch": 58, "duration": 140, "velocity": 107}, {"time": 130560, "pitch": 63, "duration": 150, "velocity": 107}, {"time": 130800, "pitch": 39, "duration": 200, "velocity": 91}, {"time": 130800, "pitch": 55, "duration": 160, "velocity": 107}, {"time": 130800, "pitch": 58, "duration": 150, "velocity": 107}, {"time": 130800, "pitch": 63, "duration": 160, "velocity": 103}, {"time": 131040, "pitch": 41, "duration": 220, "velocity": 88}, {"time": 131040, "pitch": 55, "duration": 160, "velocity": 107}, {"time": 131040, "pitch": 58, "duration": 160, "velocity": 107}, {"time": 131040, "pitch": 65, "duration": 150, "velocity": 107}, {"time": 131270, "pitch": 43, "duration": 190, "velocity": 91}, {"time": 131280, "pitch": 55, "duration": 200, "velocity": 99}, {"time": 131280, "pitch": 58, "duration": 190, "velocity": 107}, {"time": 131280, "pitch": 63, "duration": 200, "velocity": 107}, {"time": 131280, "pitch": 67, "duration": 200, "velocity": 107}, {"time": 131520, "pitch": 44, "duration": 80, "velocity": 98}, {"time": 131520, "pitch": 60, "duration": 100, "velocity": 98}, {"time": 131520, "pitch": 63, "duration": 100, "velocity": 107}, {"time": 131520, "pitch": 65, "duration": 100, "velocity": 107}, {"time": 131520, "pitch": 68, "duration": 120, "velocity": 102}, {"time": 131880, "pitch": 44, "duration": 300, "velocity": 91}, {"time": 131880, "pitch": 60, "duration": 270, "velocity": 102}, {"time": 131880, "pitch": 63, "duration": 270, "velocity": 107}, {"time": 131880, "pitch": 65, "duration": 270, "velocity": 107}, {"time": 131880, "pitch": 68, "duration": 270, "velocity": 102}, {"time": 132230, "pitch": 41, "duration": 190, "velocity": 94}, {"time": 132240, "pitch": 60, "duration": 160, "velocity": 88}, {"time": 132240, "pitch": 63, "duration": 170, "velocity": 94}, {"time": 132240, "pitch": 65, "duration": 180, "velocity": 98}, {"time": 132480, "pitch": 44, "duration": 80, "velocity": 91}, {"time": 132480, "pitch": 60, "duration": 80, "velocity": 85}, {"time": 132480, "pitch": 63, "duration": 80, "velocity": 94}, {"time": 132480, "pitch": 65, "duration": 80, "velocity": 102}, {"time": 132480, "pitch": 68, "duration": 90, "velocity": 98}, {"time": 132840, "pitch": 44, "duration": 270, "velocity": 98}, {"time": 132840, "pitch": 60, "duration": 260, "velocity": 98}, {"time": 132840, "pitch": 63, "duration": 270, "velocity": 98}, {"time": 132840, "pitch": 65, "duration": 270, "velocity": 102}, {"time": 132840, "pitch": 68, "duration": 260, "velocity": 98}, {"time": 133190, "pitch": 41, "duration": 230, "velocity": 79}, {"time": 133200, "pitch": 60, "duration": 140, "velocity": 94}, {"time": 133200, "pitch": 63, "duration": 130, "velocity": 98}, {"time": 133200, "pitch": 65, "duration": 160, "velocity": 98}, {"time": 133440, "pitch": 39, "duration": 70, "velocity": 85}, {"time": 133440, "pitch": 58, "duration": 80, "velocity": 94}, {"time": 133440, "pitch": 61, "duration": 80, "velocity": 98}, {"time": 133440, "pitch": 65, "duration": 90, "velocity": 107}, {"time": 133440, "pitch": 68, "duration": 90, "velocity": 98}, {"time": 133800, "pitch": 39, "duration": 360, "velocity": 75}, {"time": 133800, "pitch": 58, "duration": 280, "velocity": 102}, {"time": 133800, "pitch": 61, "duration": 290, "velocity": 107}, {"time": 133800, "pitch": 65, "duration": 290, "velocity": 107}, {"time": 133800, "pitch": 68, "duration": 280, "velocity": 102}, {"time": 134150, "pitch": 36, "duration": 200, "velocity": 85}, {"time": 134160, "pitch": 58, "duration": 140, "velocity": 94}, {"time": 134160, "pitch": 61, "duration": 150, "velocity": 98}, {"time": 134160, "pitch": 65, "duration": 150, "velocity": 102}, {"time": 134400, "pitch": 39, "duration": 70, "velocity": 79}, {"time": 134400, "pitch": 58, "duration": 60, "velocity": 94}, {"time": 134400, "pitch": 61, "duration": 50, "velocity": 98}, {"time": 134400, "pitch": 65, "duration": 70, "velocity": 107}, {"time": 134400, "pitch": 68, "duration": 90, "velocity": 98}, {"time": 134760, "pitch": 39, "duration": 290, "velocity": 85}, {"time": 134760, "pitch": 58, "duration": 270, "velocity": 98}, {"time": 134760, "pitch": 61, "duration": 280, "velocity": 98}, {"time": 134760, "pitch": 65, "duration": 270, "velocity": 102}, {"time": 134760, "pitch": 68, "duration": 270, "velocity": 98}, {"time": 135110, "pitch": 37, "duration": 220, "velocity": 79}, {"time": 135120, "pitch": 58, "duration": 130, "velocity": 85}, {"time": 135120, "pitch": 61, "duration": 150, "velocity": 91}, {"time": 135120, "pitch": 65, "duration": 150, "velocity": 102}, {"time": 135360, "pitch": 36, "duration": 90, "velocity": 79}, {"time": 135360, "pitch": 58, "duration": 90, "velocity": 98}, {"time": 135360, "pitch": 63, "duration": 90, "velocity": 102}, {"time": 135360, "pitch": 67, "duration": 90, "velocity": 107}, {"time": 135720, "pitch": 36, "duration": 320, "velocity": 88}, {"time": 135720, "pitch": 58, "duration": 260, "velocity": 98}, {"time": 135720, "pitch": 63, "duration": 270, "velocity": 102}, {"time": 135720, "pitch": 67, "duration": 260, "velocity": 107}, {"time": 136070, "pitch": 39, "duration": 210, "velocity": 98}, {"time": 136080, "pitch": 58, "duration": 140, "velocity": 94}, {"time": 136080, "pitch": 63, "duration": 150, "velocity": 98}, {"time": 136320, "pitch": 41, "duration": 140, "velocity": 82}, {"time": 136320, "pitch": 60, "duration": 130, "velocity": 85}, {"time": 136320, "pitch": 63, "duration": 140, "velocity": 88}, {"time": 136320, "pitch": 65, "duration": 140, "velocity": 94}, {"time": 136560, "pitch": 41, "duration": 170, "velocity": 82}, {"time": 136560, "pitch": 60, "duration": 140, "velocity": 88}, {"time": 136560, "pitch": 63, "duration": 130, "velocity": 94}, {"time": 136560, "pitch": 65, "duration": 150, "velocity": 102}, {"time": 136800, "pitch": 44, "duration": 210, "velocity": 91}, {"time": 136800, "pitch": 60, "duration": 140, "velocity": 88}, {"time": 136800, "pitch": 63, "duration": 150, "velocity": 102}, {"time": 136800, "pitch": 67, "duration": 160, "velocity": 102}, {"time": 137030, "pitch": 45, "duration": 190, "velocity": 79}, {"time": 137040, "pitch": 60, "duration": 120, "velocity": 98}, {"time": 137040, "pitch": 65, "duration": 140, "velocity": 107}, {"time": 137040, "pitch": 68, "duration": 150, "velocity": 98}, {"time": 137280, "pitch": 46, "duration": 90, "velocity": 98}, {"time": 137280, "pitch": 61, "duration": 80, "velocity": 98}, {"time": 137280, "pitch": 65, "duration": 80, "velocity": 102}, {"time": 137280, "pitch": 68, "duration": 80, "velocity": 88}, {"time": 137280, "pitch": 70, "duration": 100, "velocity": 98}, {"time": 137640, "pitch": 46, "duration": 310, "velocity": 91}, {"time": 137640, "pitch": 61, "duration": 250, "velocity": 98}, {"time": 137640, "pitch": 65, "duration": 260, "velocity": 107}, {"time": 137640, "pitch": 68, "duration": 240, "velocity": 102}, {"time": 137640, "pitch": 70, "duration": 250, "velocity": 107}, {"time": 137990, "pitch": 41, "duration": 200, "velocity": 98}, {"time": 138000, "pitch": 61, "duration": 150, "velocity": 98}, {"time": 138000, "pitch": 65, "duration": 160, "velocity": 102}, {"time": 138240, "pitch": 39, "duration": 150, "velocity": 91}, {"time": 138240, "pitch": 63, "duration": 130, "velocity": 98}, {"time": 138240, "pitch": 67, "duration": 150, "velocity": 107}, {"time": 138480, "pitch": 39, "duration": 200, "velocity": 91}, {"time": 138480, "pitch": 63, "duration": 170, "velocity": 98}, {"time": 138480, "pitch": 67, "duration": 180, "velocity": 107}, {"time": 138720, "pitch": 41, "duration": 220, "velocity": 88}, {"time": 138720, "pitch": 63, "duration": 180, "velocity": 85}, {"time": 138720, "pitch": 65, "duration": 190, "velocity": 98}, {"time": 138720, "pitch": 68, "duration": 180, "velocity": 94}, {"time": 138950, "pitch": 39, "duration": 190, "velocity": 91}, {"time": 138960, "pitch": 63, "duration": 150, "velocity": 98}, {"time": 138960, "pitch": 67, "duration": 150, "velocity": 107}, {"time": 138960, "pitch": 70, "duration": 150, "velocity": 102}, {"time": 139200, "pitch": 44, "duration": 80, "velocity": 98}, {"time": 139200, "pitch": 60, "duration": 100, "velocity": 98}, {"time": 139200, "pitch": 63, "duration": 100, "velocity": 107}, {"time": 139200, "pitch": 65, "duration": 100, "velocity": 107}, {"time": 139200, "pitch": 68, "duration": 120, "velocity": 102}, {"time": 139560, "pitch": 44, "duration": 300, "velocity": 91}, {"time": 139560, "pitch": 60, "duration": 270, "velocity": 102}, {"time": 139560, "pitch": 63, "duration": 270, "velocity": 107}, {"time": 139560, "pitch": 65, "duration": 270, "velocity": 107}, {"time": 139560, "pitch": 68, "duration": 270, "velocity": 102}, {"time": 139910, "pitch": 41, "duration": 190, "velocity": 94}, {"time": 139920, "pitch": 60, "duration": 160, "velocity": 88}, {"time": 139920, "pitch": 63, "duration": 170, "velocity": 94}, {"time": 139920, "pitch": 65, "duration": 180, "velocity": 98}, {"time": 140160, "pitch": 44, "duration": 80, "velocity": 91}, {"time": 140160, "pitch": 60, "duration": 80, "velocity": 85}, {"time": 140160, "pitch": 63, "duration": 80, "velocity": 94}, {"time": 140160, "pitch": 65, "duration": 80, "velocity": 102}, {"time": 140160, "pitch": 68, "duration": 90, "velocity": 98}, {"time": 140520, "pitch": 44, "duration": 270, "velocity": 98}, {"time": 140520, "pitch": 60, "duration": 260, "velocity": 98}, {"time": 140520, "pitch": 63, "duration": 270, "velocity": 98}, {"time": 140520, "pitch": 65, "duration": 270, "velocity": 102}, {"time": 140520, "pitch": 68, "duration": 260, "velocity": 98}, {"time": 140870, "pitch": 41, "duration": 230, "velocity": 79}, {"time": 140880, "pitch": 60, "duration": 140, "velocity": 94}, {"time": 140880, "pitch": 63, "duration": 130, "velocity": 98}, {"time": 140880, "pitch": 65, "duration": 160, "velocity": 98}, {"time": 141120, "pitch": 39, "duration": 70, "velocity": 85}, {"time": 141120, "pitch": 58, "duration": 80, "velocity": 94}, {"time": 141120, "pitch": 61, "duration": 80, "velocity": 98}, {"time": 141120, "pitch": 65, "duration": 90, "velocity": 107}, {"time": 141120, "pitch": 68, "duration": 90, "velocity": 98}, {"time": 141480, "pitch": 39, "duration": 360, "velocity": 75}, {"time": 141480, "pitch": 58, "duration": 280, "velocity": 102}, {"time": 141480, "pitch": 61, "duration": 290, "velocity": 107}, {"time": 141480, "pitch": 65, "duration": 290, "velocity": 107}, {"time": 141480, "pitch": 68, "duration": 280, "velocity": 102}, {"time": 141830, "pitch": 36, "duration": 200, "velocity": 85}, {"time": 141840, "pitch": 58, "duration": 140, "velocity": 94}, {"time": 141840, "pitch": 61, "duration": 150, "velocity": 98}, {"time": 141840, "pitch": 65, "duration": 150, "velocity": 102}, {"time": 142080, "pitch": 39, "duration": 70, "velocity": 79}, {"time": 142080, "pitch": 58, "duration": 60, "velocity": 94}, {"time": 142080, "pitch": 61, "duration": 50, "velocity": 98}, {"time": 142080, "pitch": 65, "duration": 70, "velocity": 107}, {"time": 142080, "pitch": 68, "duration": 90, "velocity": 98}, {"time": 142440, "pitch": 39, "duration": 290, "velocity": 85}, {"time": 142440, "pitch": 58, "duration": 270, "velocity": 98}, {"time": 142440, "pitch": 61, "duration": 280, "velocity": 98}, {"time": 142440, "pitch": 65, "duration": 270, "velocity": 102}, {"time": 142440, "pitch": 68, "duration": 270, "velocity": 98}, {"time": 142790, "pitch": 37, "duration": 220, "velocity": 79}, {"time": 142800, "pitch": 58, "duration": 130, "velocity": 85}, {"time": 142800, "pitch": 61, "duration": 150, "velocity": 91}, {"time": 142800, "pitch": 65, "duration": 150, "velocity": 102}, {"time": 143040, "pitch": 36, "duration": 90, "velocity": 79}, {"time": 143040, "pitch": 58, "duration": 90, "velocity": 98}, {"time": 143040, "pitch": 63, "duration": 90, "velocity": 102}, {"time": 143040, "pitch": 67, "duration": 90, "velocity": 107}, {"time": 143400, "pitch": 36, "duration": 320, "velocity": 88}, {"time": 143400, "pitch": 58, "duration": 260, "velocity": 98}, {"time": 143400, "pitch": 63, "duration": 270, "velocity": 102}, {"time": 143400, "pitch": 67, "duration": 260, "velocity": 107}, {"time": 143750, "pitch": 39, "duration": 210, "velocity": 98}, {"time": 143760, "pitch": 58, "duration": 140, "velocity": 94}, {"time": 143760, "pitch": 63, "duration": 150, "velocity": 98}, {"time": 144000, "pitch": 41, "duration": 140, "velocity": 82}, {"time": 144000, "pitch": 60, "duration": 130, "velocity": 85}, {"time": 144000, "pitch": 63, "duration": 140, "velocity": 88}, {"time": 144000, "pitch": 65, "duration": 140, "velocity": 94}, {"time": 144240, "pitch": 41, "duration": 170, "velocity": 82}, {"time": 144240, "pitch": 60, "duration": 140, "velocity": 88}, {"time": 144240, "pitch": 63, "duration": 130, "velocity": 94}, {"time": 144240, "pitch": 65, "duration": 150, "velocity": 102}, {"time": 144480, "pitch": 44, "duration": 210, "velocity": 91}, {"time": 144480, "pitch": 60, "duration": 140, "velocity": 88}, {"time": 144480, "pitch": 63, "duration": 150, "velocity": 102}, {"time": 144480, "pitch": 67, "duration": 160, "velocity": 102}, {"time": 144710, "pitch": 45, "duration": 190, "velocity": 79}, {"time": 144720, "pitch": 60, "duration": 120, "velocity": 98}, {"time": 144720, "pitch": 65, "duration": 140, "velocity": 107}, {"time": 144720, "pitch": 68, "duration": 150, "velocity": 98}, {"time": 144960, "pitch": 46, "duration": 90, "velocity": 98}, {"time": 144960, "pitch": 61, "duration": 80, "velocity": 98}, {"time": 144960, "pitch": 65, "duration": 80, "velocity": 102}, {"time": 144960, "pitch": 68, "duration": 80, "velocity": 88}, {"time": 144960, "pitch": 70, "duration": 100, "velocity": 98}, {"time": 145320, "pitch": 46, "duration": 310, "velocity": 91}, {"time": 145320, "pitch": 61, "duration": 250, "velocity": 98}, {"time": 145320, "pitch": 65, "duration": 260, "velocity": 107}, {"time": 145320, "pitch": 68, "duration": 240, "velocity": 102}, {"time": 145320, "pitch": 70, "duration": 250, "velocity": 107}, {"time": 145670, "pitch": 49, "duration": 200, "velocity": 98}, {"time": 145680, "pitch": 61, "duration": 150, "velocity": 98}, {"time": 145680, "pitch": 65, "duration": 160, "velocity": 102}, {"time": 145920, "pitch": 51, "duration": 150, "velocity": 91}, {"time": 145920, "pitch": 63, "duration": 130, "velocity": 98}, {"time": 145920, "pitch": 67, "duration": 150, "velocity": 107}, {"time": 146160, "pitch": 51, "duration": 200, "velocity": 91}, {"time": 146160, "pitch": 63, "duration": 170, "velocity": 98}, {"time": 146160, "pitch": 67, "duration": 180, "velocity": 107}, {"time": 146400, "pitch": 53, "duration": 220, "velocity": 88}, {"time": 146400, "pitch": 63, "duration": 180, "velocity": 85}, {"time": 146400, "pitch": 65, "duration": 190, "velocity": 98}, {"time": 146400, "pitch": 68, "duration": 180, "velocity": 94}, {"time": 146630, "pitch": 51, "duration": 190, "velocity": 91}, {"time": 146640, "pitch": 63, "duration": 150, "velocity": 98}, {"time": 146640, "pitch": 67, "duration": 150, "velocity": 107}, {"time": 146640, "pitch": 70, "duration": 150, "velocity": 102}, {"time": 146880, "pitch": 46, "duration": 190, "velocity": 103}, {"time": 146880, "pitch": 56, "duration": 210, "velocity": 103}, {"time": 146880, "pitch": 61, "duration": 190, "velocity": 107}, {"time": 146880, "pitch": 65, "duration": 190, "velocity": 107}, {"time": 147240, "pitch": 56, "duration": 40, "velocity": 96}, {"time": 147240, "pitch": 61, "duration": 30, "velocity": 103}, {"time": 147240, "pitch": 65, "duration": 20, "velocity": 103}, {"time": 147360, "pitch": 46, "duration": 220, "velocity": 103}, {"time": 147360, "pitch": 56, "duration": 240, "velocity": 96}, {"time": 147360, "pitch": 61, "duration": 240, "velocity": 107}, {"time": 147360, "pitch": 65, "duration": 220, "velocity": 107}, {"time": 147720, "pitch": 56, "duration": 50, "velocity": 103}, {"time": 147720, "pitch": 61, "duration": 50, "velocity": 103}, {"time": 147720, "pitch": 65, "duration": 50, "velocity": 107}, {"time": 147960, "pitch": 56, "duration": 140, "velocity": 107}, {"time": 147960, "pitch": 61, "duration": 140, "velocity": 107}, {"time": 147960, "pitch": 65, "duration": 130, "velocity": 107}, {"time": 148080, "pitch": 46, "duration": 220, "velocity": 96}, {"time": 148200, "pitch": 56, "duration": 30, "velocity": 96}, {"time": 148200, "pitch": 61, "duration": 30, "velocity": 103}, {"time": 148200, "pitch": 65, "duration": 30, "velocity": 107}, {"time": 148320, "pitch": 56, "duration": 370, "velocity": 107}, {"time": 148320, "pitch": 61, "duration": 370, "velocity": 107}, {"time": 148320, "pitch": 65, "duration": 370, "velocity": 107}, {"time": 148560, "pitch": 46, "duration": 240, "velocity": 103}, {"time": 148800, "pitch": 39, "duration": 260, "velocity": 103}, {"time": 148800, "pitch": 46, "duration": 10, "velocity": 103}, {"time": 148800, "pitch": 56, "duration": 220, "velocity": 103}, {"time": 148800, "pitch": 61, "duration": 230, "velocity": 103}, {"time": 148800, "pitch": 65, "duration": 220, "velocity": 107}, {"time": 149160, "pitch": 56, "duration": 30, "velocity": 96}, {"time": 149160, "pitch": 61, "duration": 30, "velocity": 103}, {"time": 149160, "pitch": 65, "duration": 20, "velocity": 99}, {"time": 149280, "pitch": 39, "duration": 230, "velocity": 107}, {"time": 149280, "pitch": 56, "duration": 280, "velocity": 107}, {"time": 149280, "pitch": 61, "duration": 280, "velocity": 107}, {"time": 149280, "pitch": 65, "duration": 270, "velocity": 107}, {"time": 149640, "pitch": 56, "duration": 60, "velocity": 103}, {"time": 149640, "pitch": 61, "duration": 60, "velocity": 103}, {"time": 149640, "pitch": 65, "duration": 60, "velocity": 107}, {"time": 149880, "pitch": 56, "duration": 140, "velocity": 103}, {"time": 149880, "pitch": 61, "duration": 140, "velocity": 107}, {"time": 149880, "pitch": 65, "duration": 130, "velocity": 107}, {"time": 150000, "pitch": 39, "duration": 310, "velocity": 107}, {"time": 150120, "pitch": 56, "duration": 30, "velocity": 96}, {"time": 150120, "pitch": 61, "duration": 20, "velocity": 103}, {"time": 150120, "pitch": 65, "duration": 20, "velocity": 99}, {"time": 150240, "pitch": 56, "duration": 390, "velocity": 103}, {"time": 150240, "pitch": 61, "duration": 390, "velocity": 107}, {"time": 150240, "pitch": 65, "duration": 390, "velocity": 107}, {"time": 150480, "pitch": 39, "duration": 200, "velocity": 107}, {"time": 150720, "pitch": 46, "duration": 220, "velocity": 96}, {"time": 150720, "pitch": 56, "duration": 230, "velocity": 103}, {"time": 150720, "pitch": 61, "duration": 230, "velocity": 107}, {"time": 150720, "pitch": 65, "duration": 230, "velocity": 107}, {"time": 151080, "pitch": 56, "duration": 40, "velocity": 96}, {"time": 151080, "pitch": 61, "duration": 30, "velocity": 103}, {"time": 151080, "pitch": 65, "duration": 20, "velocity": 99}, {"time": 151200, "pitch": 46, "duration": 240, "velocity": 103}, {"time": 151200, "pitch": 56, "duration": 270, "velocity": 103}, {"time": 151200, "pitch": 61, "duration": 270, "velocity": 107}, {"time": 151200, "pitch": 65, "duration": 270, "velocity": 107}, {"time": 151560, "pitch": 56, "duration": 80, "velocity": 103}, {"time": 151560, "pitch": 61, "duration": 70, "velocity": 103}, {"time": 151560, "pitch": 65, "duration": 80, "velocity": 107}, {"time": 151800, "pitch": 56, "duration": 140, "velocity": 107}, {"time": 151800, "pitch": 61, "duration": 150, "velocity": 107}, {"time": 151800, "pitch": 65, "duration": 140, "velocity": 107}, {"time": 151920, "pitch": 46, "duration": 280, "velocity": 90}, {"time": 152040, "pitch": 56, "duration": 40, "velocity": 90}, {"time": 152040, "pitch": 61, "duration": 30, "velocity": 96}, {"time": 152040, "pitch": 65, "duration": 30, "velocity": 99}, {"time": 152160, "pitch": 56, "duration": 140, "velocity": 96}, {"time": 152160, "pitch": 61, "duration": 140, "velocity": 103}, {"time": 152160, "pitch": 65, "duration": 140, "velocity": 107}, {"time": 152400, "pitch": 46, "duration": 240, "velocity": 103}, {"time": 152400, "pitch": 56, "duration": 140, "velocity": 103}, {"time": 152400, "pitch": 61, "duration": 150, "velocity": 103}, {"time": 152400, "pitch": 65, "duration": 130, "velocity": 107}, {"time": 152640, "pitch": 39, "duration": 300, "velocity": 107}, {"time": 152640, "pitch": 46, "duration": 20, "velocity": 103}, {"time": 152640, "pitch": 56, "duration": 260, "velocity": 107}, {"time": 152640, "pitch": 61, "duration": 260, "velocity": 107}, {"time": 152640, "pitch": 65, "duration": 260, "velocity": 107}, {"time": 153000, "pitch": 56, "duration": 40, "velocity": 90}, {"time": 153000, "pitch": 61, "duration": 20, "velocity": 84}, {"time": 153000, "pitch": 65, "duration": 30, "velocity": 99}, {"time": 153120, "pitch": 39, "duration": 1220, "velocity": 103}, {"time": 153120, "pitch": 56, "duration": 380, "velocity": 107}, {"time": 153120, "pitch": 61, "duration": 380, "velocity": 107}, {"time": 153120, "pitch": 65, "duration": 380, "velocity": 107}, {"time": 153360, "pitch": 51, "duration": 330, "velocity": 107}, {"time": 153600, "pitch": 56, "duration": 120, "velocity": 107}, {"time": 153600, "pitch": 61, "duration": 200, "velocity": 107}, {"time": 153600, "pitch": 65, "duration": 210, "velocity": 107}, {"time": 153840, "pitch": 51, "duration": 280, "velocity": 107}, {"time": 154080, "pitch": 49, "duration": 230, "velocity": 107}, {"time": 154080, "pitch": 61, "duration": 190, "velocity": 107}, {"time": 154080, "pitch": 65, "duration": 190, "velocity": 107}, {"time": 154080, "pitch": 68, "duration": 230, "velocity": 107}, {"time": 154560, "pitch": 36, "duration": 400, "velocity": 99}, {"time": 154560, "pitch": 48, "duration": 360, "velocity": 107}, {"time": 154560, "pitch": 58, "duration": 230, "velocity": 107}, {"time": 154560, "pitch": 63, "duration": 240, "velocity": 107}, {"time": 154560, "pitch": 67, "duration": 240, "velocity": 107}, {"time": 154920, "pitch": 58, "duration": 40, "velocity": 103}, {"time": 154920, "pitch": 63, "duration": 40, "velocity": 103}, {"time": 154920, "pitch": 67, "duration": 30, "velocity": 107}, {"time": 155040, "pitch": 36, "duration": 250, "velocity": 93}, {"time": 155040, "pitch": 48, "duration": 260, "velocity": 99}, {"time": 155040, "pitch": 58, "duration": 220, "velocity": 107}, {"time": 155040, "pitch": 63, "duration": 230, "velocity": 103}, {"time": 155040, "pitch": 67, "duration": 220, "velocity": 107}, {"time": 155400, "pitch": 58, "duration": 100, "velocity": 103}, {"time": 155400, "pitch": 63, "duration": 100, "velocity": 103}, {"time": 155400, "pitch": 67, "duration": 70, "velocity": 103}, {"time": 155640, "pitch": 58, "duration": 120, "velocity": 107}, {"time": 155640, "pitch": 63, "duration": 140, "velocity": 107}, {"time": 155640, "pitch": 67, "duration": 130, "velocity": 107}, {"time": 155760, "pitch": 36, "duration": 370, "velocity": 99}, {"time": 155880, "pitch": 58, "duration": 30, "velocity": 96}, {"time": 155880, "pitch": 63, "duration": 30, "velocity": 103}, {"time": 155880, "pitch": 67, "duration": 30, "velocity": 107}, {"time": 156000, "pitch": 48, "duration": 420, "velocity": 103}, {"time": 156000, "pitch": 58, "duration": 340, "velocity": 107}, {"time": 156000, "pitch": 63, "duration": 350, "velocity": 107}, {"time": 156000, "pitch": 67, "duration": 370, "velocity": 107}, {"time": 156240, "pitch": 36, "duration": 190, "velocity": 107}, {"time": 156480, "pitch": 41, "duration": 110, "velocity": 107}, {"time": 156480, "pitch": 56, "duration": 240, "velocity": 107}, {"time": 156480, "pitch": 60, "duration": 220, "velocity": 107}, {"time": 156480, "pitch": 65, "duration": 250, "velocity": 107}, {"time": 156720, "pitch": 41, "duration": 330, "velocity": 107}, {"time": 156960, "pitch": 53, "duration": 250, "velocity": 103}, {"time": 156960, "pitch": 60, "duration": 190, "velocity": 103}, {"time": 156960, "pitch": 65, "duration": 170, "velocity": 107}, {"time": 156960, "pitch": 68, "duration": 200, "velocity": 107}, {"time": 157200, "pitch": 41, "duration": 60, "velocity": 107}, {"time": 157440, "pitch": 39, "duration": 140, "velocity": 90}, {"time": 157440, "pitch": 51, "duration": 290, "velocity": 103}, {"time": 157440, "pitch": 60, "duration": 340, "velocity": 107}, {"time": 157440, "pitch": 63, "duration": 350, "velocity": 107}, {"time": 157440, "pitch": 67, "duration": 370, "velocity": 107}, {"time": 157680, "pitch": 39, "duration": 370, "velocity": 107}, {"time": 157920, "pitch": 51, "duration": 160, "velocity": 96}, {"time": 157920, "pitch": 63, "duration": 350, "velocity": 107}, {"time": 157920, "pitch": 72, "duration": 340, "velocity": 107}, {"time": 158160, "pitch": 39, "duration": 120, "velocity": 107}, {"time": 158160, "pitch": 51, "duration": 80, "velocity": 64}, {"time": 158400, "pitch": 37, "duration": 180, "velocity": 103}, {"time": 158400, "pitch": 49, "duration": 180, "velocity": 107}, {"time": 158640, "pitch": 61, "duration": 140, "velocity": 107}, {"time": 158640, "pitch": 65, "duration": 130, "velocity": 107}, {"time": 158640, "pitch": 68, "duration": 140, "velocity": 107}, {"time": 158880, "pitch": 61, "duration": 190, "velocity": 107}, {"time": 158880, "pitch": 65, "duration": 170, "velocity": 107}, {"time": 158880, "pitch": 68, "duration": 200, "velocity": 107}, {"time": 159120, "pitch": 36, "duration": 250, "velocity": 103}, {"time": 159120, "pitch": 48, "duration": 270, "velocity": 107}, {"time": 159360, "pitch": 60, "duration": 160, "velocity": 107}, {"time": 159360, "pitch": 63, "duration": 150, "velocity": 107}, {"time": 159360, "pitch": 68, "duration": 170, "velocity": 107}, {"time": 159600, "pitch": 60, "duration": 170, "velocity": 107}, {"time": 159600, "pitch": 63, "duration": 170, "velocity": 107}, {"time": 159600, "pitch": 68, "duration": 170, "velocity": 107}, {"time": 160320, "pitch": 34, "duration": 190, "velocity": 107}, {"time": 160320, "pitch": 46, "duration": 190, "velocity": 107}, {"time": 160320, "pitch": 53, "duration": 40, "velocity": 103}, {"time": 160320, "pitch": 56, "duration": 50, "velocity": 107}, {"time": 160320, "pitch": 61, "duration": 60, "velocity": 103}, {"time": 160440, "pitch": 53, "duration": 170, "velocity": 90}, {"time": 160440, "pitch": 56, "duration": 180, "velocity": 96}, {"time": 160440, "pitch": 61, "duration": 190, "velocity": 90}, {"time": 160680, "pitch": 53, "duration": 50, "velocity": 84}, {"time": 160680, "pitch": 56, "duration": 40, "velocity": 84}, {"time": 160680, "pitch": 61, "duration": 50, "velocity": 80}, {"time": 160800, "pitch": 53, "duration": 160, "velocity": 103}, {"time": 160800, "pitch": 56, "duration": 160, "velocity": 107}, {"time": 160800, "pitch": 61, "duration": 170, "velocity": 107}, {"time": 161040, "pitch": 53, "duration": 40, "velocity": 93}, {"time": 161040, "pitch": 56, "duration": 40, "velocity": 103}, {"time": 161040, "pitch": 61, "duration": 50, "velocity": 84}, {"time": 161160, "pitch": 53, "duration": 150, "velocity": 103}, {"time": 161160, "pitch": 56, "duration": 170, "velocity": 107}, {"time": 161160, "pitch": 61, "duration": 170, "velocity": 107}, {"time": 161400, "pitch": 53, "duration": 40, "velocity": 90}, {"time": 161400, "pitch": 56, "duration": 40, "velocity": 103}, {"time": 161400, "pitch": 61, "duration": 50, "velocity": 103}, {"time": 161520, "pitch": 53, "duration": 600, "velocity": 107}, {"time": 161520, "pitch": 56, "duration": 620, "velocity": 107}, {"time": 161520, "pitch": 61, "duration": 620, "velocity": 107}, {"time": 161640, "pitch": 39, "duration": 70, "velocity": 107}, {"time": 161760, "pitch": 41, "duration": 70, "velocity": 107}, {"time": 161880, "pitch": 44, "duration": 110, "velocity": 107}, {"time": 162000, "pitch": 46, "duration": 110, "velocity": 107}, {"time": 162120, "pitch": 41, "duration": 120, "velocity": 107}, {"time": 162240, "pitch": 39, "duration": 220, "velocity": 107}, {"time": 162240, "pitch": 53, "duration": 50, "velocity": 103}, {"time": 162240, "pitch": 56, "duration": 50, "velocity": 107}, {"time": 162240, "pitch": 61, "duration": 60, "velocity": 96}, {"time": 162240, "pitch": 63, "duration": 60, "velocity": 100}, {"time": 162480, "pitch": 53, "duration": 410, "velocity": 107}, {"time": 162480, "pitch": 56, "duration": 420, "velocity": 107}, {"time": 162480, "pitch": 61, "duration": 430, "velocity": 105}, {"time": 162480, "pitch": 63, "duration": 430, "velocity": 107}, {"time": 162960, "pitch": 53, "duration": 1040, "velocity": 107}, {"time": 162960, "pitch": 56, "duration": 1050, "velocity": 107}, {"time": 162960, "pitch": 61, "duration": 1050, "velocity": 107}, {"time": 162960, "pitch": 63, "duration": 1050, "velocity": 107}, {"time": 163680, "pitch": 39, "duration": 90, "velocity": 107}, {"time": 163800, "pitch": 41, "duration": 70, "velocity": 107}, {"time": 163920, "pitch": 44, "duration": 90, "velocity": 107}, {"time": 164040, "pitch": 41, "duration": 80, "velocity": 107}, {"time": 164160, "pitch": 46, "duration": 520, "velocity": 107}, {"time": 164160, "pitch": 56, "duration": 40, "velocity": 103}, {"time": 164160, "pitch": 61, "duration": 40, "velocity": 107}, {"time": 164160, "pitch": 65, "duration": 40, "velocity": 107}, {"time": 164280, "pitch": 56, "duration": 180, "velocity": 103}, {"time": 164280, "pitch": 61, "duration": 190, "velocity": 107}, {"time": 164280, "pitch": 65, "duration": 190, "velocity": 107}, {"time": 164520, "pitch": 56, "duration": 40, "velocity": 84}, {"time": 164520, "pitch": 61, "duration": 40, "velocity": 96}, {"time": 164520, "pitch": 65, "duration": 30, "velocity": 90}, {"time": 164640, "pitch": 44, "duration": 490, "velocity": 107}, {"time": 164640, "pitch": 56, "duration": 170, "velocity": 96}, {"time": 164640, "pitch": 61, "duration": 190, "velocity": 107}, {"time": 164640, "pitch": 65, "duration": 180, "velocity": 103}, {"time": 164880, "pitch": 56, "duration": 50, "velocity": 90}, {"time": 164880, "pitch": 61, "duration": 40, "velocity": 103}, {"time": 164880, "pitch": 65, "duration": 40, "velocity": 93}, {"time": 165000, "pitch": 56, "duration": 160, "velocity": 103}, {"time": 165000, "pitch": 61, "duration": 160, "velocity": 107}, {"time": 165000, "pitch": 65, "duration": 130, "velocity": 107}, {"time": 165120, "pitch": 43, "duration": 330, "velocity": 107}, {"time": 165240, "pitch": 56, "duration": 50, "velocity": 80}, {"time": 165240, "pitch": 61, "duration": 50, "velocity": 90}, {"time": 165240, "pitch": 65, "duration": 50, "velocity": 90}, {"time": 165360, "pitch": 56, "duration": 610, "velocity": 107}, {"time": 165360, "pitch": 61, "duration": 620, "velocity": 107}, {"time": 165360, "pitch": 65, "duration": 620, "velocity": 107}, {"time": 165480, "pitch": 39, "duration": 70, "velocity": 107}, {"time": 165600, "pitch": 41, "duration": 130, "velocity": 107}, {"time": 165720, "pitch": 44, "duration": 110, "velocity": 107}, {"time": 165840, "pitch": 46, "duration": 130, "velocity": 107}, {"time": 165960, "pitch": 41, "duration": 100, "velocity": 107}, {"time": 166080, "pitch": 39, "duration": 90, "velocity": 107}, {"time": 166080, "pitch": 56, "duration": 50, "velocity": 96}, {"time": 166080, "pitch": 61, "duration": 50, "velocity": 107}, {"time": 166080, "pitch": 65, "duration": 60, "velocity": 102}, {"time": 166080, "pitch": 68, "duration": 60, "velocity": 107}, {"time": 166320, "pitch": 39, "duration": 410, "velocity": 107}, {"time": 166320, "pitch": 56, "duration": 400, "velocity": 107}, {"time": 166320, "pitch": 61, "duration": 410, "velocity": 107}, {"time": 166320, "pitch": 65, "duration": 400, "velocity": 102}, {"time": 166320, "pitch": 68, "duration": 400, "velocity": 107}, {"time": 166800, "pitch": 39, "duration": 1010, "velocity": 107}, {"time": 166800, "pitch": 56, "duration": 940, "velocity": 103}, {"time": 166800, "pitch": 61, "duration": 950, "velocity": 107}, {"time": 166800, "pitch": 65, "duration": 950, "velocity": 102}, {"time": 166800, "pitch": 68, "duration": 950, "velocity": 107}, {"time": 168000, "pitch": 44, "duration": 140, "velocity": 90}, {"time": 168000, "pitch": 56, "duration": 260, "velocity": 84}, {"time": 168000, "pitch": 60, "duration": 380, "velocity": 107}, {"time": 168000, "pitch": 63, "duration": 390, "velocity": 107}, {"time": 168240, "pitch": 44, "duration": 370, "velocity": 96}, {"time": 168480, "pitch": 56, "duration": 300, "velocity": 103}, {"time": 168480, "pitch": 60, "duration": 270, "velocity": 103}, {"time": 168480, "pitch": 63, "duration": 300, "velocity": 107}, {"time": 168480, "pitch": 68, "duration": 300, "velocity": 107}, {"time": 168720, "pitch": 44, "duration": 70, "velocity": 74}, {"time": 168840, "pitch": 43, "duration": 270, "velocity": 107}, {"time": 168840, "pitch": 58, "duration": 490, "velocity": 107}, {"time": 168840, "pitch": 63, "duration": 480, "velocity": 103}, {"time": 168840, "pitch": 67, "duration": 490, "velocity": 107}, {"time": 169200, "pitch": 43, "duration": 400, "velocity": 107}, {"time": 169440, "pitch": 55, "duration": 430, "velocity": 107}, {"time": 169440, "pitch": 63, "duration": 460, "velocity": 107}, {"time": 169680, "pitch": 43, "duration": 240, "velocity": 107}, {"time": 169920, "pitch": 41, "duration": 120, "velocity": 107}, {"time": 169920, "pitch": 43, "duration": 10, "velocity": 107}, {"time": 169920, "pitch": 56, "duration": 390, "velocity": 107}, {"time": 169920, "pitch": 60, "duration": 400, "velocity": 107}, {"time": 170160, "pitch": 41, "duration": 300, "velocity": 103}, {"time": 170400, "pitch": 53, "duration": 250, "velocity": 107}, {"time": 170400, "pitch": 56, "duration": 280, "velocity": 107}, {"time": 170400, "pitch": 60, "duration": 290, "velocity": 107}, {"time": 170400, "pitch": 65, "duration": 290, "velocity": 107}, {"time": 170640, "pitch": 41, "duration": 80, "velocity": 107}, {"time": 170760, "pitch": 39, "duration": 230, "velocity": 96}, {"time": 170760, "pitch": 51, "duration": 380, "velocity": 103}, {"time": 170760, "pitch": 55, "duration": 500, "velocity": 107}, {"time": 170760, "pitch": 60, "duration": 510, "velocity": 107}, {"time": 170760, "pitch": 63, "duration": 500, "velocity": 103}, {"time": 171120, "pitch": 39, "duration": 350, "velocity": 107}, {"time": 171360, "pitch": 51, "duration": 360, "velocity": 107}, {"time": 171360, "pitch": 55, "duration": 400, "velocity": 103}, {"time": 171360, "pitch": 60, "duration": 420, "velocity": 103}, {"time": 171600, "pitch": 39, "duration": 160, "velocity": 107}, {"time": 171840, "pitch": 37, "duration": 170, "velocity": 107}, {"time": 171840, "pitch": 49, "duration": 310, "velocity": 96}, {"time": 171840, "pitch": 53, "duration": 430, "velocity": 103}, {"time": 171840, "pitch": 56, "duration": 430, "velocity": 107}, {"time": 171840, "pitch": 61, "duration": 430, "velocity": 107}, {"time": 172080, "pitch": 37, "duration": 350, "velocity": 103}, {"time": 172320, "pitch": 49, "duration": 300, "velocity": 107}, {"time": 172320, "pitch": 53, "duration": 270, "velocity": 103}, {"time": 172320, "pitch": 56, "duration": 290, "velocity": 107}, {"time": 172320, "pitch": 61, "duration": 290, "velocity": 103}, {"time": 172560, "pitch": 37, "duration": 60, "velocity": 80}, {"time": 172680, "pitch": 36, "duration": 260, "velocity": 107}, {"time": 172680, "pitch": 39, "duration": 20, "velocity": 71}, {"time": 172680, "pitch": 48, "duration": 340, "velocity": 107}, {"time": 172680, "pitch": 56, "duration": 490, "velocity": 107}, {"time": 172680, "pitch": 60, "duration": 610, "velocity": 107}, {"time": 173040, "pitch": 36, "duration": 210, "velocity": 107}, {"time": 173040, "pitch": 51, "duration": 370, "velocity": 103}, {"time": 173280, "pitch": 48, "duration": 240, "velocity": 107}, {"time": 173280, "pitch": 56, "duration": 160, "velocity": 84}, {"time": 173520, "pitch": 46, "duration": 240, "velocity": 107}, {"time": 173520, "pitch": 53, "duration": 240, "velocity": 107}, {"time": 173520, "pitch": 56, "duration": 240, "velocity": 107}, {"time": 173520, "pitch": 61, "duration": 240, "velocity": 107}, {"time": 173760, "pitch": 46, "duration": 230, "velocity": 107}, {"time": 173760, "pitch": 53, "duration": 190, "velocity": 107}, {"time": 173760, "pitch": 56, "duration": 190, "velocity": 107}, {"time": 173760, "pitch": 61, "duration": 190, "velocity": 107}, {"time": 174000, "pitch": 48, "duration": 290, "velocity": 103}, {"time": 174000, "pitch": 53, "duration": 170, "velocity": 107}, {"time": 174000, "pitch": 56, "duration": 180, "velocity": 103}, {"time": 174000, "pitch": 61, "duration": 180, "velocity": 84}, {"time": 174240, "pitch": 49, "duration": 190, "velocity": 107}, {"time": 174240, "pitch": 53, "duration": 140, "velocity": 107}, {"time": 174240, "pitch": 56, "duration": 150, "velocity": 107}, {"time": 174240, "pitch": 61, "duration": 170, "velocity": 107}, {"time": 174480, "pitch": 51, "duration": 530, "velocity": 103}, {"time": 174480, "pitch": 55, "duration": 640, "velocity": 107}, {"time": 174480, "pitch": 58, "duration": 640, "velocity": 107}, {"time": 174480, "pitch": 63, "duration": 650, "velocity": 107}, {"time": 174960, "pitch": 39, "duration": 370, "velocity": 107}, {"time": 175200, "pitch": 51, "duration": 470, "velocity": 107}, {"time": 175200, "pitch": 55, "duration": 50, "velocity": 93}, {"time": 175200, "pitch": 58, "duration": 60, "velocity": 103}, {"time": 175320, "pitch": 55, "duration": 250, "velocity": 107}, {"time": 175320, "pitch": 58, "duration": 270, "velocity": 107}, {"time": 175320, "pitch": 63, "duration": 270, "velocity": 107}, {"time": 175440, "pitch": 39, "duration": 170, "velocity": 107}, {"time": 175680, "pitch": 44, "duration": 160, "velocity": 96}, {"time": 175680, "pitch": 56, "duration": 390, "velocity": 107}, {"time": 175680, "pitch": 60, "duration": 380, "velocity": 107}, {"time": 175680, "pitch": 63, "duration": 410, "velocity": 107}, {"time": 175920, "pitch": 44, "duration": 380, "velocity": 107}, {"time": 176160, "pitch": 60, "duration": 270, "velocity": 107}, {"time": 176160, "pitch": 63, "duration": 290, "velocity": 103}, {"time": 176160, "pitch": 68, "duration": 280, "velocity": 107}, {"time": 176400, "pitch": 44, "duration": 140, "velocity": 103}, {"time": 176520, "pitch": 43, "duration": 170, "velocity": 103}, {"time": 176520, "pitch": 55, "duration": 400, "velocity": 107}, {"time": 176520, "pitch": 58, "duration": 420, "velocity": 107}, {"time": 176520, "pitch": 63, "duration": 500, "velocity": 107}, {"time": 176880, "pitch": 43, "duration": 420, "velocity": 107}, {"time": 177120, "pitch": 55, "duration": 400, "velocity": 103}, {"time": 177120, "pitch": 58, "duration": 390, "velocity": 107}, {"time": 177120, "pitch": 63, "duration": 400, "velocity": 107}, {"time": 177120, "pitch": 67, "duration": 380, "velocity": 107}, {"time": 177360, "pitch": 43, "duration": 180, "velocity": 107}, {"time": 177600, "pitch": 41, "duration": 170, "velocity": 107}, {"time": 177600, "pitch": 53, "duration": 300, "velocity": 99}, {"time": 177600, "pitch": 56, "duration": 390, "velocity": 107}, {"time": 177600, "pitch": 60, "duration": 390, "velocity": 103}, {"time": 177600, "pitch": 65, "duration": 400, "velocity": 107}, {"time": 177840, "pitch": 41, "duration": 340, "velocity": 107}, {"time": 178080, "pitch": 53, "duration": 250, "velocity": 107}, {"time": 178080, "pitch": 56, "duration": 310, "velocity": 107}, {"time": 178080, "pitch": 60, "duration": 300, "velocity": 107}, {"time": 178080, "pitch": 65, "duration": 310, "velocity": 107}, {"time": 178320, "pitch": 41, "duration": 70, "velocity": 103}, {"time": 178440, "pitch": 39, "duration": 200, "velocity": 103}, {"time": 178440, "pitch": 51, "duration": 370, "velocity": 96}, {"time": 178440, "pitch": 55, "duration": 500, "velocity": 107}, {"time": 178440, "pitch": 60, "duration": 510, "velocity": 99}, {"time": 178440, "pitch": 63, "duration": 510, "velocity": 96}, {"time": 178800, "pitch": 39, "duration": 400, "velocity": 107}, {"time": 179040, "pitch": 51, "duration": 370, "velocity": 107}, {"time": 179040, "pitch": 60, "duration": 400, "velocity": 107}, {"time": 179040, "pitch": 63, "duration": 420, "velocity": 107}, {"time": 179040, "pitch": 67, "duration": 410, "velocity": 107}, {"time": 179280, "pitch": 39, "duration": 170, "velocity": 107}, {"time": 179520, "pitch": 37, "duration": 150, "velocity": 96}, {"time": 179520, "pitch": 49, "duration": 290, "velocity": 96}, {"time": 179520, "pitch": 61, "duration": 350, "velocity": 90}, {"time": 179520, "pitch": 65, "duration": 590, "velocity": 103}, {"time": 179760, "pitch": 37, "duration": 410, "velocity": 90}, {"time": 179760, "pitch": 56, "duration": 420, "velocity": 103}, {"time": 180000, "pitch": 49, "duration": 280, "velocity": 107}, {"time": 180000, "pitch": 61, "duration": 310, "velocity": 90}, {"time": 180240, "pitch": 36, "duration": 410, "velocity": 107}, {"time": 180360, "pitch": 48, "duration": 400, "velocity": 107}, {"time": 180360, "pitch": 56, "duration": 270, "velocity": 103}, {"time": 180360, "pitch": 60, "duration": 610, "velocity": 107}, {"time": 180360, "pitch": 63, "duration": 650, "velocity": 107}, {"time": 180720, "pitch": 36, "duration": 230, "velocity": 103}, {"time": 180720, "pitch": 56, "duration": 330, "velocity": 74}, {"time": 180960, "pitch": 48, "duration": 220, "velocity": 107}, {"time": 180960, "pitch": 65, "duration": 180, "velocity": 93}, {"time": 181200, "pitch": 46, "duration": 240, "velocity": 103}, {"time": 181200, "pitch": 56, "duration": 240, "velocity": 103}, {"time": 181200, "pitch": 61, "duration": 240, "velocity": 107}, {"time": 181200, "pitch": 65, "duration": 240, "velocity": 107}, {"time": 181440, "pitch": 46, "duration": 220, "velocity": 103}, {"time": 181440, "pitch": 56, "duration": 150, "velocity": 103}, {"time": 181440, "pitch": 61, "duration": 160, "velocity": 107}, {"time": 181440, "pitch": 65, "duration": 150, "velocity": 107}, {"time": 181680, "pitch": 48, "duration": 280, "velocity": 87}, {"time": 181680, "pitch": 56, "duration": 150, "velocity": 103}, {"time": 181680, "pitch": 61, "duration": 150, "velocity": 96}, {"time": 181680, "pitch": 65, "duration": 140, "velocity": 103}, {"time": 181920, "pitch": 49, "duration": 200, "velocity": 90}, {"time": 181920, "pitch": 56, "duration": 120, "velocity": 103}, {"time": 181920, "pitch": 61, "duration": 140, "velocity": 107}, {"time": 181920, "pitch": 65, "duration": 130, "velocity": 107}, {"time": 182160, "pitch": 51, "duration": 550, "velocity": 103}, {"time": 182160, "pitch": 58, "duration": 630, "velocity": 103}, {"time": 182160, "pitch": 63, "duration": 640, "velocity": 107}, {"time": 182160, "pitch": 67, "duration": 640, "velocity": 107}, {"time": 182640, "pitch": 39, "duration": 390, "velocity": 107}, {"time": 182880, "pitch": 51, "duration": 420, "velocity": 107}, {"time": 182880, "pitch": 58, "duration": 410, "velocity": 103}, {"time": 182880, "pitch": 63, "duration": 410, "velocity": 96}, {"time": 182880, "pitch": 65, "duration": 420, "velocity": 103}, {"time": 183120, "pitch": 39, "duration": 190, "velocity": 107}, {"time": 183360, "pitch": 46, "duration": 140, "velocity": 90}, {"time": 183360, "pitch": 58, "duration": 260, "velocity": 84}, {"time": 183360, "pitch": 62, "duration": 380, "velocity": 107}, {"time": 183360, "pitch": 65, "duration": 390, "velocity": 107}, {"time": 183600, "pitch": 46, "duration": 370, "velocity": 96}, {"time": 183840, "pitch": 58, "duration": 300, "velocity": 103}, {"time": 183840, "pitch": 62, "duration": 270, "velocity": 103}, {"time": 183840, "pitch": 65, "duration": 300, "velocity": 107}, {"time": 183840, "pitch": 70, "duration": 300, "velocity": 107}, {"time": 184080, "pitch": 46, "duration": 70, "velocity": 74}, {"time": 184200, "pitch": 45, "duration": 270, "velocity": 107}, {"time": 184200, "pitch": 60, "duration": 490, "velocity": 107}, {"time": 184200, "pitch": 65, "duration": 480, "velocity": 103}, {"time": 184200, "pitch": 69, "duration": 490, "velocity": 107}, {"time": 184560, "pitch": 45, "duration": 400, "velocity": 107}, {"time": 184800, "pitch": 57, "duration": 430, "velocity": 107}, {"time": 184800, "pitch": 65, "duration": 460, "velocity": 107}, {"time": 185040, "pitch": 45, "duration": 240, "velocity": 107}, {"time": 185280, "pitch": 43, "duration": 120, "velocity": 107}, {"time": 185280, "pitch": 45, "duration": 10, "velocity": 107}, {"time": 185280, "pitch": 58, "duration": 390, "velocity": 107}, {"time": 185280, "pitch": 62, "duration": 400, "velocity": 107}, {"time": 185520, "pitch": 43, "duration": 300, "velocity": 103}, {"time": 185760, "pitch": 55, "duration": 250, "velocity": 107}, {"time": 185760, "pitch": 58, "duration": 280, "velocity": 107}, {"time": 185760, "pitch": 62, "duration": 290, "velocity": 107}, {"time": 185760, "pitch": 67, "duration": 290, "velocity": 107}, {"time": 186000, "pitch": 43, "duration": 80, "velocity": 107}, {"time": 186120, "pitch": 41, "duration": 230, "velocity": 96}, {"time": 186120, "pitch": 53, "duration": 380, "velocity": 103}, {"time": 186120, "pitch": 57, "duration": 500, "velocity": 107}, {"time": 186120, "pitch": 62, "duration": 510, "velocity": 107}, {"time": 186120, "pitch": 65, "duration": 500, "velocity": 103}, {"time": 186480, "pitch": 41, "duration": 350, "velocity": 107}, {"time": 186720, "pitch": 53, "duration": 360, "velocity": 107}, {"time": 186720, "pitch": 57, "duration": 400, "velocity": 103}, {"time": 186720, "pitch": 62, "duration": 420, "velocity": 103}, {"time": 186960, "pitch": 41, "duration": 160, "velocity": 107}, {"time": 187200, "pitch": 39, "duration": 170, "velocity": 107}, {"time": 187200, "pitch": 51, "duration": 310, "velocity": 96}, {"time": 187200, "pitch": 55, "duration": 430, "velocity": 103}, {"time": 187200, "pitch": 58, "duration": 430, "velocity": 107}, {"time": 187200, "pitch": 63, "duration": 430, "velocity": 107}, {"time": 187440, "pitch": 39, "duration": 350, "velocity": 103}, {"time": 187680, "pitch": 51, "duration": 300, "velocity": 107}, {"time": 187680, "pitch": 55, "duration": 270, "velocity": 103}, {"time": 187680, "pitch": 58, "duration": 290, "velocity": 107}, {"time": 187680, "pitch": 63, "duration": 290, "velocity": 103}, {"time": 187920, "pitch": 39, "duration": 60, "velocity": 80}, {"time": 188040, "pitch": 38, "duration": 260, "velocity": 107}, {"time": 188040, "pitch": 41, "duration": 20, "velocity": 71}, {"time": 188040, "pitch": 50, "duration": 340, "velocity": 107}, {"time": 188040, "pitch": 58, "duration": 490, "velocity": 107}, {"time": 188040, "pitch": 62, "duration": 610, "velocity": 107}, {"time": 188400, "pitch": 38, "duration": 210, "velocity": 107}, {"time": 188400, "pitch": 53, "duration": 370, "velocity": 103}, {"time": 188640, "pitch": 50, "duration": 240, "velocity": 107}, {"time": 188640, "pitch": 58, "duration": 160, "velocity": 84}, {"time": 188880, "pitch": 48, "duration": 240, "velocity": 107}, {"time": 188880, "pitch": 55, "duration": 240, "velocity": 107}, {"time": 188880, "pitch": 58, "duration": 240, "velocity": 107}, {"time": 188880, "pitch": 63, "duration": 240, "velocity": 107}, {"time": 189120, "pitch": 48, "duration": 230, "velocity": 107}, {"time": 189120, "pitch": 55, "duration": 190, "velocity": 107}, {"time": 189120, "pitch": 58, "duration": 190, "velocity": 107}, {"time": 189120, "pitch": 63, "duration": 190, "velocity": 107}, {"time": 189360, "pitch": 50, "duration": 290, "velocity": 103}, {"time": 189360, "pitch": 55, "duration": 170, "velocity": 107}, {"time": 189360, "pitch": 58, "duration": 180, "velocity": 103}, {"time": 189360, "pitch": 63, "duration": 180, "velocity": 84}, {"time": 189600, "pitch": 51, "duration": 190, "velocity": 107}, {"time": 189600, "pitch": 55, "duration": 140, "velocity": 107}, {"time": 189600, "pitch": 58, "duration": 150, "velocity": 107}, {"time": 189600, "pitch": 63, "duration": 170, "velocity": 107}, {"time": 189840, "pitch": 53, "duration": 530, "velocity": 103}, {"time": 189840, "pitch": 57, "duration": 640, "velocity": 107}, {"time": 189840, "pitch": 60, "duration": 640, "velocity": 107}, {"time": 189840, "pitch": 65, "duration": 650, "velocity": 107}, {"time": 190320, "pitch": 41, "duration": 370, "velocity": 107}, {"time": 190560, "pitch": 53, "duration": 470, "velocity": 107}, {"time": 190560, "pitch": 57, "duration": 50, "velocity": 93}, {"time": 190560, "pitch": 60, "duration": 60, "velocity": 103}, {"time": 190680, "pitch": 57, "duration": 250, "velocity": 107}, {"time": 190680, "pitch": 60, "duration": 270, "velocity": 107}, {"time": 190680, "pitch": 65, "duration": 270, "velocity": 107}, {"time": 190800, "pitch": 41, "duration": 170, "velocity": 107}, {"time": 191040, "pitch": 46, "duration": 160, "velocity": 96}, {"time": 191040, "pitch": 58, "duration": 390, "velocity": 107}, {"time": 191040, "pitch": 62, "duration": 380, "velocity": 107}, {"time": 191040, "pitch": 65, "duration": 410, "velocity": 107}, {"time": 191280, "pitch": 46, "duration": 380, "velocity": 107}, {"time": 191520, "pitch": 62, "duration": 270, "velocity": 107}, {"time": 191520, "pitch": 65, "duration": 290, "velocity": 103}, {"time": 191520, "pitch": 70, "duration": 280, "velocity": 107}, {"time": 191760, "pitch": 46, "duration": 140, "velocity": 103}, {"time": 191880, "pitch": 45, "duration": 170, "velocity": 103}, {"time": 191880, "pitch": 57, "duration": 400, "velocity": 107}, {"time": 191880, "pitch": 60, "duration": 420, "velocity": 107}, {"time": 191880, "pitch": 65, "duration": 500, "velocity": 107}, {"time": 192240, "pitch": 45, "duration": 420, "velocity": 107}, {"time": 192480, "pitch": 57, "duration": 400, "velocity": 103}, {"time": 192480, "pitch": 60, "duration": 390, "velocity": 107}, {"time": 192480, "pitch": 65, "duration": 400, "velocity": 107}, {"time": 192480, "pitch": 69, "duration": 380, "velocity": 107}, {"time": 192720, "pitch": 45, "duration": 180, "velocity": 107}, {"time": 192960, "pitch": 43, "duration": 170, "velocity": 107}, {"time": 192960, "pitch": 55, "duration": 300, "velocity": 99}, {"time": 192960, "pitch": 58, "duration": 390, "velocity": 107}, {"time": 192960, "pitch": 62, "duration": 390, "velocity": 103}, {"time": 192960, "pitch": 67, "duration": 400, "velocity": 107}, {"time": 193200, "pitch": 43, "duration": 340, "velocity": 107}, {"time": 193440, "pitch": 55, "duration": 250, "velocity": 107}, {"time": 193440, "pitch": 58, "duration": 310, "velocity": 107}, {"time": 193440, "pitch": 62, "duration": 300, "velocity": 107}, {"time": 193440, "pitch": 67, "duration": 310, "velocity": 107}, {"time": 193680, "pitch": 43, "duration": 70, "velocity": 103}, {"time": 193800, "pitch": 41, "duration": 200, "velocity": 103}, {"time": 193800, "pitch": 53, "duration": 370, "velocity": 96}, {"time": 193800, "pitch": 57, "duration": 500, "velocity": 107}, {"time": 193800, "pitch": 62, "duration": 510, "velocity": 99}, {"time": 193800, "pitch": 65, "duration": 510, "velocity": 96}, {"time": 194160, "pitch": 41, "duration": 400, "velocity": 107}, {"time": 194400, "pitch": 53, "duration": 370, "velocity": 107}, {"time": 194400, "pitch": 62, "duration": 400, "velocity": 107}, {"time": 194400, "pitch": 65, "duration": 420, "velocity": 107}, {"time": 194400, "pitch": 69, "duration": 410, "velocity": 107}, {"time": 194640, "pitch": 41, "duration": 170, "velocity": 107}, {"time": 194880, "pitch": 39, "duration": 150, "velocity": 96}, {"time": 194880, "pitch": 51, "duration": 290, "velocity": 96}, {"time": 194880, "pitch": 63, "duration": 350, "velocity": 90}, {"time": 194880, "pitch": 67, "duration": 590, "velocity": 103}, {"time": 195120, "pitch": 39, "duration": 410, "velocity": 90}, {"time": 195120, "pitch": 58, "duration": 420, "velocity": 103}, {"time": 195360, "pitch": 51, "duration": 280, "velocity": 107}, {"time": 195360, "pitch": 63, "duration": 310, "velocity": 90}, {"time": 195600, "pitch": 38, "duration": 410, "velocity": 107}, {"time": 195720, "pitch": 50, "duration": 400, "velocity": 107}, {"time": 195720, "pitch": 58, "duration": 270, "velocity": 103}, {"time": 195720, "pitch": 62, "duration": 610, "velocity": 107}, {"time": 195720, "pitch": 65, "duration": 650, "velocity": 107}, {"time": 196080, "pitch": 38, "duration": 230, "velocity": 103}, {"time": 196080, "pitch": 58, "duration": 330, "velocity": 74}, {"time": 196320, "pitch": 50, "duration": 220, "velocity": 107}, {"time": 196320, "pitch": 67, "duration": 180, "velocity": 93}, {"time": 196560, "pitch": 48, "duration": 240, "velocity": 103}, {"time": 196560, "pitch": 58, "duration": 240, "velocity": 103}, {"time": 196560, "pitch": 63, "duration": 240, "velocity": 107}, {"time": 196560, "pitch": 67, "duration": 240, "velocity": 107}, {"time": 196800, "pitch": 48, "duration": 220, "velocity": 103}, {"time": 196800, "pitch": 58, "duration": 150, "velocity": 103}, {"time": 196800, "pitch": 63, "duration": 160, "velocity": 107}, {"time": 196800, "pitch": 67, "duration": 150, "velocity": 107}, {"time": 197040, "pitch": 50, "duration": 280, "velocity": 87}, {"time": 197040, "pitch": 58, "duration": 150, "velocity": 103}, {"time": 197040, "pitch": 63, "duration": 150, "velocity": 96}, {"time": 197040, "pitch": 67, "duration": 140, "velocity": 103}, {"time": 197280, "pitch": 51, "duration": 200, "velocity": 90}, {"time": 197280, "pitch": 58, "duration": 120, "velocity": 103}, {"time": 197280, "pitch": 63, "duration": 140, "velocity": 107}, {"time": 197280, "pitch": 67, "duration": 130, "velocity": 107}, {"time": 197520, "pitch": 53, "duration": 550, "velocity": 103}, {"time": 197520, "pitch": 60, "duration": 630, "velocity": 103}, {"time": 197520, "pitch": 65, "duration": 640, "velocity": 107}, {"time": 197520, "pitch": 69, "duration": 640, "velocity": 107}, {"time": 198000, "pitch": 41, "duration": 390, "velocity": 107}, {"time": 198240, "pitch": 53, "duration": 420, "velocity": 107}, {"time": 198240, "pitch": 60, "duration": 410, "velocity": 103}, {"time": 198240, "pitch": 65, "duration": 410, "velocity": 96}, {"time": 198240, "pitch": 67, "duration": 420, "velocity": 103}, {"time": 198480, "pitch": 41, "duration": 190, "velocity": 107}, {"time": 198720, "pitch": 62, "duration": 40, "velocity": 99}, {"time": 198720, "pitch": 65, "duration": 40, "velocity": 103}, {"time": 198720, "pitch": 70, "duration": 50, "velocity": 107}, {"time": 198840, "pitch": 62, "duration": 40, "velocity": 78}, {"time": 198840, "pitch": 65, "duration": 30, "velocity": 103}, {"time": 198840, "pitch": 70, "duration": 40, "velocity": 107}, {"time": 198960, "pitch": 62, "duration": 40, "velocity": 87}, {"time": 198960, "pitch": 65, "duration": 40, "velocity": 103}, {"time": 198960, "pitch": 70, "duration": 50, "velocity": 107}, {"time": 199080, "pitch": 62, "duration": 40, "velocity": 90}, {"time": 199080, "pitch": 65, "duration": 30, "velocity": 103}, {"time": 199080, "pitch": 70, "duration": 50, "velocity": 107}, {"time": 199200, "pitch": 62, "duration": 130, "velocity": 99}, {"time": 199200, "pitch": 65, "duration": 130, "velocity": 107}, {"time": 199200, "pitch": 70, "duration": 140, "velocity": 107}, {"time": 200640, "pitch": 63, "duration": 50, "velocity": 96}, {"time": 200640, "pitch": 67, "duration": 40, "velocity": 107}, {"time": 200640, "pitch": 70, "duration": 50, "velocity": 103}, {"time": 200760, "pitch": 63, "duration": 40, "velocity": 76}, {"time": 200760, "pitch": 67, "duration": 40, "velocity": 103}, {"time": 200760, "pitch": 70, "duration": 60, "velocity": 96}, {"time": 200880, "pitch": 63, "duration": 50, "velocity": 84}, {"time": 200880, "pitch": 67, "duration": 40, "velocity": 107}, {"time": 200880, "pitch": 70, "duration": 60, "velocity": 103}, {"time": 201000, "pitch": 63, "duration": 50, "velocity": 84}, {"time": 201000, "pitch": 67, "duration": 40, "velocity": 107}, {"time": 201000, "pitch": 70, "duration": 60, "velocity": 96}, {"time": 201120, "pitch": 63, "duration": 130, "velocity": 84}, {"time": 201120, "pitch": 67, "duration": 120, "velocity": 107}, {"time": 201120, "pitch": 70, "duration": 130, "velocity": 103}, {"time": 202560, "pitch": 60, "duration": 30, "velocity": 96}, {"time": 202560, "pitch": 64, "duration": 30, "velocity": 93}, {"time": 202560, "pitch": 67, "duration": 40, "velocity": 99}, {"time": 202560, "pitch": 71, "duration": 40, "velocity": 99}, {"time": 202680, "pitch": 60, "duration": 40, "velocity": 90}, {"time": 202680, "pitch": 64, "duration": 30, "velocity": 99}, {"time": 202680, "pitch": 67, "duration": 30, "velocity": 84}, {"time": 202680, "pitch": 71, "duration": 40, "velocity": 103}, {"time": 202800, "pitch": 60, "duration": 40, "velocity": 96}, {"time": 202800, "pitch": 64, "duration": 30, "velocity": 99}, {"time": 202800, "pitch": 67, "duration": 40, "velocity": 107}, {"time": 202800, "pitch": 71, "duration": 40, "velocity": 107}, {"time": 202920, "pitch": 60, "duration": 40, "velocity": 96}, {"time": 202920, "pitch": 64, "duration": 30, "velocity": 93}, {"time": 202920, "pitch": 67, "duration": 40, "velocity": 103}, {"time": 202920, "pitch": 71, "duration": 40, "velocity": 103}, {"time": 203040, "pitch": 60, "duration": 150, "velocity": 107}, {"time": 203040, "pitch": 64, "duration": 140, "velocity": 102}, {"time": 203040, "pitch": 67, "duration": 160, "velocity": 102}, {"time": 203040, "pitch": 71, "duration": 170, "velocity": 107}, {"time": 204480, "pitch": 60, "duration": 40, "velocity": 103}, {"time": 204480, "pitch": 64, "duration": 40, "velocity": 107}, {"time": 204480, "pitch": 66, "duration": 40, "velocity": 107}, {"time": 204480, "pitch": 69, "duration": 30, "velocity": 99}, {"time": 204600, "pitch": 60, "duration": 40, "velocity": 84}, {"time": 204600, "pitch": 64, "duration": 30, "velocity": 93}, {"time": 204600, "pitch": 66, "duration": 40, "velocity": 103}, {"time": 204600, "pitch": 69, "duration": 30, "velocity": 103}, {"time": 204720, "pitch": 60, "duration": 50, "velocity": 90}, {"time": 204720, "pitch": 64, "duration": 30, "velocity": 93}, {"time": 204720, "pitch": 66, "duration": 40, "velocity": 103}, {"time": 204720, "pitch": 69, "duration": 30, "velocity": 103}, {"time": 204840, "pitch": 60, "duration": 40, "velocity": 90}, {"time": 204840, "pitch": 64, "duration": 30, "velocity": 93}, {"time": 204840, "pitch": 66, "duration": 40, "velocity": 103}, {"time": 204840, "pitch": 69, "duration": 40, "velocity": 99}, {"time": 204960, "pitch": 60, "duration": 170, "velocity": 103}, {"time": 204960, "pitch": 64, "duration": 150, "velocity": 103}, {"time": 204960, "pitch": 66, "duration": 160, "velocity": 107}, {"time": 204960, "pitch": 69, "duration": 170, "velocity": 107}, {"time": 206400, "pitch": 62, "duration": 40, "velocity": 99}, {"time": 206400, "pitch": 65, "duration": 40, "velocity": 103}, {"time": 206400, "pitch": 70, "duration": 50, "velocity": 107}, {"time": 206520, "pitch": 62, "duration": 40, "velocity": 78}, {"time": 206520, "pitch": 65, "duration": 30, "velocity": 103}, {"time": 206520, "pitch": 70, "duration": 40, "velocity": 107}, {"time": 206640, "pitch": 62, "duration": 40, "velocity": 87}, {"time": 206640, "pitch": 65, "duration": 40, "velocity": 103}, {"time": 206640, "pitch": 70, "duration": 50, "velocity": 107}, {"time": 206760, "pitch": 62, "duration": 40, "velocity": 90}, {"time": 206760, "pitch": 65, "duration": 30, "velocity": 103}, {"time": 206760, "pitch": 70, "duration": 50, "velocity": 107}, {"time": 206880, "pitch": 62, "duration": 130, "velocity": 99}, {"time": 206880, "pitch": 65, "duration": 130, "velocity": 107}, {"time": 206880, "pitch": 70, "duration": 140, "velocity": 107}, {"time": 208320, "pitch": 63, "duration": 50, "velocity": 96}, {"time": 208320, "pitch": 67, "duration": 40, "velocity": 107}, {"time": 208320, "pitch": 70, "duration": 50, "velocity": 103}, {"time": 208440, "pitch": 63, "duration": 40, "velocity": 76}, {"time": 208440, "pitch": 67, "duration": 40, "velocity": 103}, {"time": 208440, "pitch": 70, "duration": 60, "velocity": 96}, {"time": 208560, "pitch": 63, "duration": 50, "velocity": 84}, {"time": 208560, "pitch": 67, "duration": 40, "velocity": 107}, {"time": 208560, "pitch": 70, "duration": 60, "velocity": 103}, {"time": 208680, "pitch": 63, "duration": 50, "velocity": 84}, {"time": 208680, "pitch": 67, "duration": 40, "velocity": 107}, {"time": 208680, "pitch": 70, "duration": 60, "velocity": 96}, {"time": 208800, "pitch": 63, "duration": 130, "velocity": 84}, {"time": 208800, "pitch": 67, "duration": 120, "velocity": 107}, {"time": 208800, "pitch": 70, "duration": 130, "velocity": 103}, {"time": 210240, "pitch": 60, "duration": 30, "velocity": 96}, {"time": 210240, "pitch": 64, "duration": 30, "velocity": 93}, {"time": 210240, "pitch": 67, "duration": 40, "velocity": 99}, {"time": 210240, "pitch": 71, "duration": 40, "velocity": 99}, {"time": 210360, "pitch": 60, "duration": 40, "velocity": 90}, {"time": 210360, "pitch": 64, "duration": 30, "velocity": 99}, {"time": 210360, "pitch": 67, "duration": 30, "velocity": 84}, {"time": 210360, "pitch": 71, "duration": 40, "velocity": 103}, {"time": 210480, "pitch": 60, "duration": 40, "velocity": 96}, {"time": 210480, "pitch": 64, "duration": 30, "velocity": 99}, {"time": 210480, "pitch": 67, "duration": 40, "velocity": 107}, {"time": 210480, "pitch": 71, "duration": 40, "velocity": 107}, {"time": 210600, "pitch": 60, "duration": 40, "velocity": 96}, {"time": 210600, "pitch": 64, "duration": 30, "velocity": 93}, {"time": 210600, "pitch": 67, "duration": 40, "velocity": 103}, {"time": 210600, "pitch": 71, "duration": 40, "velocity": 103}, {"time": 210720, "pitch": 60, "duration": 150, "velocity": 107}, {"time": 210720, "pitch": 64, "duration": 140, "velocity": 102}, {"time": 210720, "pitch": 67, "duration": 160, "velocity": 102}, {"time": 210720, "pitch": 71, "duration": 170, "velocity": 107}, {"time": 212160, "pitch": 60, "duration": 40, "velocity": 103}, {"time": 212160, "pitch": 64, "duration": 40, "velocity": 107}, {"time": 212160, "pitch": 66, "duration": 40, "velocity": 107}, {"time": 212160, "pitch": 69, "duration": 30, "velocity": 99}, {"time": 212280, "pitch": 60, "duration": 40, "velocity": 84}, {"time": 212280, "pitch": 64, "duration": 30, "velocity": 93}, {"time": 212280, "pitch": 66, "duration": 40, "velocity": 103}, {"time": 212280, "pitch": 69, "duration": 30, "velocity": 103}, {"time": 212400, "pitch": 60, "duration": 50, "velocity": 90}, {"time": 212400, "pitch": 64, "duration": 30, "velocity": 93}, {"time": 212400, "pitch": 66, "duration": 40, "velocity": 103}, {"time": 212400, "pitch": 69, "duration": 30, "velocity": 103}, {"time": 212520, "pitch": 60, "duration": 40, "velocity": 90}, {"time": 212520, "pitch": 64, "duration": 30, "velocity": 93}, {"time": 212520, "pitch": 66, "duration": 40, "velocity": 103}, {"time": 212520, "pitch": 69, "duration": 40, "velocity": 99}, {"time": 212640, "pitch": 60, "duration": 170, "velocity": 103}, {"time": 212640, "pitch": 64, "duration": 150, "velocity": 103}, {"time": 212640, "pitch": 66, "duration": 160, "velocity": 107}, {"time": 212640, "pitch": 69, "duration": 170, "velocity": 107}, {"time": 952, "pitch": 34, "duration": 244, "velocity": 102}, {"time": 2300, "pitch": 39, "duration": 80, "velocity": 102}, {"time": 2400, "pitch": 41, "duration": 100, "velocity": 102}, {"time": 2520, "pitch": 44, "duration": 100, "velocity": 102}, {"time": 2640, "pitch": 46, "duration": 100, "velocity": 102}, {"time": 2760, "pitch": 41, "duration": 100, "velocity": 102}, {"time": 2880, "pitch": 39, "duration": 240, "velocity": 102}, {"time": 4320, "pitch": 39, "duration": 120, "velocity": 102}, {"time": 4440, "pitch": 41, "duration": 110, "velocity": 102}, {"time": 4560, "pitch": 44, "duration": 100, "velocity": 102}, {"time": 4680, "pitch": 41, "duration": 100, "velocity": 102}, {"time": 4800, "pitch": 46, "duration": 420, "velocity": 102}, {"time": 5280, "pitch": 44, "duration": 420, "velocity": 102}, {"time": 5760, "pitch": 43, "duration": 290, "velocity": 102}, {"time": 6120, "pitch": 39, "duration": 90, "velocity": 102}, {"time": 6240, "pitch": 41, "duration": 110, "velocity": 102}, {"time": 6360, "pitch": 44, "duration": 120, "velocity": 102}, {"time": 6480, "pitch": 46, "duration": 120, "velocity": 102}, {"time": 6600, "pitch": 41, "duration": 110, "velocity": 102}, {"time": 6720, "pitch": 39, "duration": 80, "velocity": 102}, {"time": 6960, "pitch": 39, "duration": 430, "velocity": 102}, {"time": 7440, "pitch": 39, "duration": 1000, "velocity": 102}, {"time": 8640, "pitch": 32, "duration": 420, "velocity": 102}, {"time": 9120, "pitch": 44, "duration": 350, "velocity": 102}, {"time": 9480, "pitch": 43, "duration": 580, "velocity": 102}, {"time": 10080, "pitch": 39, "duration": 420, "velocity": 102}, {"time": 10560, "pitch": 29, "duration": 440, "velocity": 102}, {"time": 11040, "pitch": 41, "duration": 300, "velocity": 102}, {"time": 11400, "pitch": 39, "duration": 570, "velocity": 102}, {"time": 12000, "pitch": 36, "duration": 230, "velocity": 102}, {"time": 12240, "pitch": 31, "duration": 200, "velocity": 102}, {"time": 12480, "pitch": 37, "duration": 310, "velocity": 102}, {"time": 12960, "pitch": 32, "duration": 320, "velocity": 102}, {"time": 13320, "pitch": 36, "duration": 330, "velocity": 102}, {"time": 13680, "pitch": 36, "duration": 210, "velocity": 102}, {"time": 13920, "pitch": 32, "duration": 180, "velocity": 102}, {"time": 14160, "pitch": 34, "duration": 450, "velocity": 102}, {"time": 14640, "pitch": 36, "duration": 270, "velocity": 102}, {"time": 14880, "pitch": 37, "duration": 210, "velocity": 102}, {"time": 15120, "pitch": 39, "duration": 430, "velocity": 102}, {"time": 15600, "pitch": 39, "duration": 220, "velocity": 102}, {"time": 15840, "pitch": 41, "duration": 120, "velocity": 102}, {"time": 15960, "pitch": 39, "duration": 340, "velocity": 102}, {"time": 16320, "pitch": 32, "duration": 390, "velocity": 102}, {"time": 16800, "pitch": 44, "duration": 350, "velocity": 102}, {"time": 17160, "pitch": 43, "duration": 300, "velocity": 102}, {"time": 17520, "pitch": 43, "duration": 230, "velocity": 102}, {"time": 17760, "pitch": 39, "duration": 240, "velocity": 102}, {"time": 18000, "pitch": 36, "duration": 210, "velocity": 102}, {"time": 18240, "pitch": 29, "duration": 390, "velocity": 102}, {"time": 18720, "pitch": 41, "duration": 320, "velocity": 102}, {"time": 19080, "pitch": 39, "duration": 610, "velocity": 102}, {"time": 19680, "pitch": 36, "duration": 250, "velocity": 102}, {"time": 19920, "pitch": 31, "duration": 200, "velocity": 102}, {"time": 20160, "pitch": 37, "duration": 330, "velocity": 102}, {"time": 20640, "pitch": 32, "duration": 310, "velocity": 102}, {"time": 21000, "pitch": 36, "duration": 250, "velocity": 102}, {"time": 21360, "pitch": 36, "duration": 210, "velocity": 102}, {"time": 21600, "pitch": 32, "duration": 200, "velocity": 102}, {"time": 21840, "pitch": 34, "duration": 460, "velocity": 102}, {"time": 22320, "pitch": 36, "duration": 260, "velocity": 102}, {"time": 22560, "pitch": 37, "duration": 220, "velocity": 102}, {"time": 22800, "pitch": 39, "duration": 450, "velocity": 102}, {"time": 23280, "pitch": 39, "duration": 220, "velocity": 102}, {"time": 23520, "pitch": 41, "duration": 80, "velocity": 102}, {"time": 23640, "pitch": 39, "duration": 270, "velocity": 102}, {"time": 24000, "pitch": 32, "duration": 50, "velocity": 117}, {"time": 24120, "pitch": 32, "duration": 50, "velocity": 104}, {"time": 24240, "pitch": 32, "duration": 60, "velocity": 108}, {"time": 24360, "pitch": 32, "duration": 60, "velocity": 112}, {"time": 24480, "pitch": 32, "duration": 180, "velocity": 117}, {"time": 25920, "pitch": 39, "duration": 60, "velocity": 117}, {"time": 26040, "pitch": 39, "duration": 60, "velocity": 98}, {"time": 26160, "pitch": 39, "duration": 60, "velocity": 104}, {"time": 26280, "pitch": 39, "duration": 60, "velocity": 104}, {"time": 26400, "pitch": 39, "duration": 200, "velocity": 104}, {"time": 27840, "pitch": 31, "duration": 50, "velocity": 117}, {"time": 27960, "pitch": 31, "duration": 50, "velocity": 104}, {"time": 28080, "pitch": 31, "duration": 60, "velocity": 108}, {"time": 28200, "pitch": 31, "duration": 60, "velocity": 112}, {"time": 28320, "pitch": 31, "duration": 180, "velocity": 117}, {"time": 29760, "pitch": 36, "duration": 60, "velocity": 117}, {"time": 29880, "pitch": 36, "duration": 60, "velocity": 98}, {"time": 30000, "pitch": 36, "duration": 60, "velocity": 104}, {"time": 30120, "pitch": 36, "duration": 60, "velocity": 104}, {"time": 30240, "pitch": 36, "duration": 200, "velocity": 104}, {"time": 31680, "pitch": 44, "duration": 140, "velocity": 102}, {"time": 32040, "pitch": 44, "duration": 270, "velocity": 102}, {"time": 32390, "pitch": 41, "duration": 190, "velocity": 102}, {"time": 32640, "pitch": 44, "duration": 140, "velocity": 102}, {"time": 33000, "pitch": 44, "duration": 270, "velocity": 102}, {"time": 33350, "pitch": 41, "duration": 190, "velocity": 102}, {"time": 33600, "pitch": 39, "duration": 150, "velocity": 102}, {"time": 33960, "pitch": 39, "duration": 310, "velocity": 102}, {"time": 34310, "pitch": 36, "duration": 200, "velocity": 102}, {"time": 34560, "pitch": 39, "duration": 160, "velocity": 102}, {"time": 34920, "pitch": 39, "duration": 290, "velocity": 102}, {"time": 35270, "pitch": 37, "duration": 200, "velocity": 102}, {"time": 35520, "pitch": 36, "duration": 160, "velocity": 102}, {"time": 35880, "pitch": 36, "duration": 330, "velocity": 102}, {"time": 36230, "pitch": 39, "duration": 200, "velocity": 102}, {"time": 36480, "pitch": 41, "duration": 160, "velocity": 102}, {"time": 36720, "pitch": 41, "duration": 200, "velocity": 102}, {"time": 36960, "pitch": 44, "duration": 220, "velocity": 102}, {"time": 37190, "pitch": 45, "duration": 190, "velocity": 102}, {"time": 37440, "pitch": 46, "duration": 150, "velocity": 102}, {"time": 37800, "pitch": 46, "duration": 310, "velocity": 102}, {"time": 38150, "pitch": 41, "duration": 190, "velocity": 102}, {"time": 38400, "pitch": 39, "duration": 170, "velocity": 102}, {"time": 38640, "pitch": 39, "duration": 180, "velocity": 102}, {"time": 38880, "pitch": 41, "duration": 200, "velocity": 102}, {"time": 39110, "pitch": 39, "duration": 210, "velocity": 102}, {"time": 39360, "pitch": 44, "duration": 140, "velocity": 102}, {"time": 39720, "pitch": 44, "duration": 340, "velocity": 102}, {"time": 40070, "pitch": 41, "duration": 200, "velocity": 102}, {"time": 40320, "pitch": 44, "duration": 160, "velocity": 102}, {"time": 40680, "pitch": 44, "duration": 320, "velocity": 102}, {"time": 41030, "pitch": 41, "duration": 200, "velocity": 102}, {"time": 41280, "pitch": 39, "duration": 200, "velocity": 102}, {"time": 41640, "pitch": 39, "duration": 320, "velocity": 102}, {"time": 41990, "pitch": 36, "duration": 200, "velocity": 102}, {"time": 42240, "pitch": 39, "duration": 170, "velocity": 102}, {"time": 42600, "pitch": 39, "duration": 310, "velocity": 102}, {"time": 42950, "pitch": 37, "duration": 220, "velocity": 102}, {"time": 43200, "pitch": 36, "duration": 190, "velocity": 102}, {"time": 43560, "pitch": 36, "duration": 350, "velocity": 102}, {"time": 43910, "pitch": 39, "duration": 200, "velocity": 102}, {"time": 44160, "pitch": 41, "duration": 180, "velocity": 102}, {"time": 44400, "pitch": 29, "duration": 210, "velocity": 102}, {"time": 44640, "pitch": 32, "duration": 200, "velocity": 102}, {"time": 44870, "pitch": 33, "duration": 210, "velocity": 102}, {"time": 45120, "pitch": 34, "duration": 180, "velocity": 102}, {"time": 45480, "pitch": 34, "duration": 290, "velocity": 102}, {"time": 45830, "pitch": 37, "duration": 210, "velocity": 102}, {"time": 46080, "pitch": 39, "duration": 170, "velocity": 102}, {"time": 46320, "pitch": 39, "duration": 190, "velocity": 102}, {"time": 46560, "pitch": 41, "duration": 200, "velocity": 102}, {"time": 46790, "pitch": 39, "duration": 250, "velocity": 102}, {"time": 47040, "pitch": 34, "duration": 230, "velocity": 102}, {"time": 47400, "pitch": 34, "duration": 40, "velocity": 102}, {"time": 47520, "pitch": 34, "duration": 250, "velocity": 102}, {"time": 47880, "pitch": 34, "duration": 150, "velocity": 102}, {"time": 48120, "pitch": 34, "duration": 150, "velocity": 102}, {"time": 48360, "pitch": 34, "duration": 50, "velocity": 102}, {"time": 48480, "pitch": 34, "duration": 250, "velocity": 102}, {"time": 48960, "pitch": 39, "duration": 260, "velocity": 102}, {"time": 49320, "pitch": 39, "duration": 50, "velocity": 102}, {"time": 49440, "pitch": 39, "duration": 250, "velocity": 102}, {"time": 49800, "pitch": 39, "duration": 110, "velocity": 102}, {"time": 50040, "pitch": 39, "duration": 160, "velocity": 102}, {"time": 50280, "pitch": 39, "duration": 60, "velocity": 102}, {"time": 50400, "pitch": 39, "duration": 130, "velocity": 102}, {"time": 50520, "pitch": 41, "duration": 70, "velocity": 102}, {"time": 50640, "pitch": 44, "duration": 110, "velocity": 102}, {"time": 50760, "pitch": 41, "duration": 90, "velocity": 102}, {"time": 50880, "pitch": 46, "duration": 240, "velocity": 102}, {"time": 51240, "pitch": 46, "duration": 50, "velocity": 102}, {"time": 51360, "pitch": 46, "duration": 270, "velocity": 102}, {"time": 51720, "pitch": 46, "duration": 130, "velocity": 102}, {"time": 51960, "pitch": 46, "duration": 150, "velocity": 102}, {"time": 52200, "pitch": 46, "duration": 60, "velocity": 102}, {"time": 52320, "pitch": 46, "duration": 240, "velocity": 102}, {"time": 52690, "pitch": 39, "duration": 60, "velocity": 102}, {"time": 52800, "pitch": 39, "duration": 260, "velocity": 102}, {"time": 53160, "pitch": 39, "duration": 50, "velocity": 102}, {"time": 53280, "pitch": 39, "duration": 290, "velocity": 102}, {"time": 53640, "pitch": 39, "duration": 320, "velocity": 102}, {"time": 54000, "pitch": 39, "duration": 90, "velocity": 102}, {"time": 54240, "pitch": 39, "duration": 200, "velocity": 102}, {"time": 54480, "pitch": 37, "duration": 190, "velocity": 102}, {"time": 54720, "pitch": 36, "duration": 230, "velocity": 102}, {"time": 55080, "pitch": 36, "duration": 60, "velocity": 102}, {"time": 55200, "pitch": 36, "duration": 180, "velocity": 102}, {"time": 55440, "pitch": 43, "duration": 90, "velocity": 102}, {"time": 55560, "pitch": 36, "duration": 150, "velocity": 102}, {"time": 55800, "pitch": 36, "duration": 230, "velocity": 102}, {"time": 56040, "pitch": 43, "duration": 70, "velocity": 102}, {"time": 56160, "pitch": 36, "duration": 190, "velocity": 102}, {"time": 56400, "pitch": 43, "duration": 200, "velocity": 102}, {"time": 56640, "pitch": 41, "duration": 420, "velocity": 102}, {"time": 57120, "pitch": 41, "duration": 440, "velocity": 102}, {"time": 57600, "pitch": 39, "duration": 450, "velocity": 102}, {"time": 58080, "pitch": 36, "duration": 470, "velocity": 102}, {"time": 58560, "pitch": 37, "duration": 180, "velocity": 102}, {"time": 58800, "pitch": 49, "duration": 130, "velocity": 102}, {"time": 59040, "pitch": 49, "duration": 190, "velocity": 102}, {"time": 59280, "pitch": 36, "duration": 180, "velocity": 102}, {"time": 59520, "pitch": 48, "duration": 170, "velocity": 102}, {"time": 59760, "pitch": 48, "duration": 210, "velocity": 102}, {"time": 60240, "pitch": 34, "duration": 440, "velocity": 102}, {"time": 60720, "pitch": 36, "duration": 110, "velocity": 102}, {"time": 60960, "pitch": 37, "duration": 110, "velocity": 102}, {"time": 61200, "pitch": 39, "duration": 420, "velocity": 102}, {"time": 61680, "pitch": 39, "duration": 80, "velocity": 102}, {"time": 61920, "pitch": 41, "duration": 80, "velocity": 102}, {"time": 62040, "pitch": 39, "duration": 370, "velocity": 102}, {"time": 62400, "pitch": 44, "duration": 140, "velocity": 102}, {"time": 62760, "pitch": 44, "duration": 270, "velocity": 102}, {"time": 63110, "pitch": 41, "duration": 190, "velocity": 102}, {"time": 63360, "pitch": 44, "duration": 140, "velocity": 102}, {"time": 63720, "pitch": 44, "duration": 270, "velocity": 102}, {"time": 64070, "pitch": 41, "duration": 190, "velocity": 102}, {"time": 64320, "pitch": 39, "duration": 150, "velocity": 102}, {"time": 64680, "pitch": 39, "duration": 310, "velocity": 102}, {"time": 65030, "pitch": 36, "duration": 200, "velocity": 102}, {"time": 65280, "pitch": 39, "duration": 160, "velocity": 102}, {"time": 65640, "pitch": 39, "duration": 290, "velocity": 102}, {"time": 65990, "pitch": 37, "duration": 200, "velocity": 102}, {"time": 66240, "pitch": 36, "duration": 160, "velocity": 102}, {"time": 66600, "pitch": 36, "duration": 330, "velocity": 102}, {"time": 66950, "pitch": 39, "duration": 200, "velocity": 102}, {"time": 67200, "pitch": 41, "duration": 160, "velocity": 102}, {"time": 67440, "pitch": 41, "duration": 200, "velocity": 102}, {"time": 67680, "pitch": 44, "duration": 220, "velocity": 102}, {"time": 67910, "pitch": 45, "duration": 190, "velocity": 102}, {"time": 68160, "pitch": 46, "duration": 150, "velocity": 102}, {"time": 68520, "pitch": 46, "duration": 310, "velocity": 102}, {"time": 68870, "pitch": 41, "duration": 190, "velocity": 102}, {"time": 69120, "pitch": 39, "duration": 170, "velocity": 102}, {"time": 69360, "pitch": 39, "duration": 180, "velocity": 102}, {"time": 69600, "pitch": 41, "duration": 200, "velocity": 102}, {"time": 69830, "pitch": 39, "duration": 210, "velocity": 102}, {"time": 70080, "pitch": 44, "duration": 140, "velocity": 102}, {"time": 70440, "pitch": 44, "duration": 340, "velocity": 102}, {"time": 70790, "pitch": 41, "duration": 200, "velocity": 102}, {"time": 71040, "pitch": 44, "duration": 160, "velocity": 102}, {"time": 71400, "pitch": 44, "duration": 320, "velocity": 102}, {"time": 71750, "pitch": 41, "duration": 200, "velocity": 102}, {"time": 72000, "pitch": 39, "duration": 200, "velocity": 102}, {"time": 72360, "pitch": 39, "duration": 320, "velocity": 102}, {"time": 72710, "pitch": 36, "duration": 200, "velocity": 102}, {"time": 72960, "pitch": 39, "duration": 170, "velocity": 102}, {"time": 73320, "pitch": 39, "duration": 310, "velocity": 102}, {"time": 73670, "pitch": 37, "duration": 220, "velocity": 102}, {"time": 73920, "pitch": 36, "duration": 190, "velocity": 102}, {"time": 74280, "pitch": 36, "duration": 350, "velocity": 102}, {"time": 74630, "pitch": 39, "duration": 200, "velocity": 102}, {"time": 74880, "pitch": 41, "duration": 180, "velocity": 102}, {"time": 75120, "pitch": 29, "duration": 210, "velocity": 102}, {"time": 75360, "pitch": 32, "duration": 200, "velocity": 102}, {"time": 75590, "pitch": 33, "duration": 210, "velocity": 102}, {"time": 75840, "pitch": 34, "duration": 180, "velocity": 102}, {"time": 76200, "pitch": 34, "duration": 290, "velocity": 102}, {"time": 76550, "pitch": 37, "duration": 210, "velocity": 102}, {"time": 76800, "pitch": 39, "duration": 170, "velocity": 102}, {"time": 77040, "pitch": 39, "duration": 190, "velocity": 102}, {"time": 77280, "pitch": 41, "duration": 200, "velocity": 102}, {"time": 77510, "pitch": 39, "duration": 250, "velocity": 102}, {"time": 77760, "pitch": 34, "duration": 230, "velocity": 102}, {"time": 78120, "pitch": 34, "duration": 40, "velocity": 102}, {"time": 78240, "pitch": 34, "duration": 250, "velocity": 102}, {"time": 78600, "pitch": 34, "duration": 150, "velocity": 102}, {"time": 78840, "pitch": 34, "duration": 150, "velocity": 102}, {"time": 79080, "pitch": 34, "duration": 50, "velocity": 102}, {"time": 79200, "pitch": 34, "duration": 250, "velocity": 102}, {"time": 79680, "pitch": 39, "duration": 260, "velocity": 102}, {"time": 80040, "pitch": 39, "duration": 50, "velocity": 102}, {"time": 80160, "pitch": 39, "duration": 250, "velocity": 102}, {"time": 80520, "pitch": 39, "duration": 110, "velocity": 102}, {"time": 80760, "pitch": 39, "duration": 160, "velocity": 102}, {"time": 81000, "pitch": 39, "duration": 60, "velocity": 102}, {"time": 81120, "pitch": 39, "duration": 130, "velocity": 102}, {"time": 81240, "pitch": 41, "duration": 70, "velocity": 102}, {"time": 81360, "pitch": 44, "duration": 110, "velocity": 102}, {"time": 81480, "pitch": 41, "duration": 90, "velocity": 102}, {"time": 81600, "pitch": 46, "duration": 240, "velocity": 102}, {"time": 81960, "pitch": 46, "duration": 50, "velocity": 102}, {"time": 82080, "pitch": 46, "duration": 270, "velocity": 102}, {"time": 82440, "pitch": 46, "duration": 130, "velocity": 102}, {"time": 82680, "pitch": 46, "duration": 150, "velocity": 102}, {"time": 82920, "pitch": 46, "duration": 60, "velocity": 102}, {"time": 83040, "pitch": 46, "duration": 240, "velocity": 102}, {"time": 83410, "pitch": 39, "duration": 60, "velocity": 102}, {"time": 83520, "pitch": 39, "duration": 260, "velocity": 102}, {"time": 83880, "pitch": 39, "duration": 50, "velocity": 102}, {"time": 84000, "pitch": 39, "duration": 290, "velocity": 102}, {"time": 84360, "pitch": 39, "duration": 320, "velocity": 102}, {"time": 84720, "pitch": 39, "duration": 90, "velocity": 102}, {"time": 84960, "pitch": 39, "duration": 200, "velocity": 102}, {"time": 85200, "pitch": 37, "duration": 190, "velocity": 102}, {"time": 85440, "pitch": 36, "duration": 230, "velocity": 102}, {"time": 85800, "pitch": 36, "duration": 60, "velocity": 102}, {"time": 85920, "pitch": 36, "duration": 180, "velocity": 102}, {"time": 86160, "pitch": 43, "duration": 90, "velocity": 102}, {"time": 86280, "pitch": 36, "duration": 150, "velocity": 102}, {"time": 86520, "pitch": 36, "duration": 230, "velocity": 102}, {"time": 86760, "pitch": 43, "duration": 70, "velocity": 102}, {"time": 86880, "pitch": 36, "duration": 190, "velocity": 102}, {"time": 87120, "pitch": 43, "duration": 200, "velocity": 102}, {"time": 87360, "pitch": 41, "duration": 420, "velocity": 102}, {"time": 87840, "pitch": 41, "duration": 440, "velocity": 102}, {"time": 88320, "pitch": 39, "duration": 450, "velocity": 102}, {"time": 88800, "pitch": 36, "duration": 470, "velocity": 102}, {"time": 89280, "pitch": 37, "duration": 180, "velocity": 102}, {"time": 89520, "pitch": 49, "duration": 130, "velocity": 102}, {"time": 89760, "pitch": 49, "duration": 190, "velocity": 102}, {"time": 90000, "pitch": 36, "duration": 180, "velocity": 102}, {"time": 90240, "pitch": 48, "duration": 170, "velocity": 102}, {"time": 90480, "pitch": 48, "duration": 210, "velocity": 102}, {"time": 90960, "pitch": 34, "duration": 440, "velocity": 102}, {"time": 91440, "pitch": 36, "duration": 110, "velocity": 102}, {"time": 91680, "pitch": 37, "duration": 110, "velocity": 102}, {"time": 91920, "pitch": 39, "duration": 470, "velocity": 102}, {"time": 92400, "pitch": 39, "duration": 180, "velocity": 102}, {"time": 92640, "pitch": 39, "duration": 110, "velocity": 102}, {"time": 92760, "pitch": 34, "duration": 370, "velocity": 102}, {"time": 93120, "pitch": 32, "duration": 420, "velocity": 102}, {"time": 93600, "pitch": 44, "duration": 350, "velocity": 102}, {"time": 93960, "pitch": 43, "duration": 580, "velocity": 102}, {"time": 94560, "pitch": 39, "duration": 420, "velocity": 102}, {"time": 95040, "pitch": 29, "duration": 440, "velocity": 102}, {"time": 95520, "pitch": 41, "duration": 300, "velocity": 102}, {"time": 95880, "pitch": 39, "duration": 570, "velocity": 102}, {"time": 96480, "pitch": 36, "duration": 230, "velocity": 102}, {"time": 96720, "pitch": 31, "duration": 200, "velocity": 102}, {"time": 96960, "pitch": 37, "duration": 310, "velocity": 102}, {"time": 97440, "pitch": 32, "duration": 320, "velocity": 102}, {"time": 97800, "pitch": 36, "duration": 330, "velocity": 102}, {"time": 98160, "pitch": 36, "duration": 210, "velocity": 102}, {"time": 98400, "pitch": 32, "duration": 180, "velocity": 102}, {"time": 98640, "pitch": 34, "duration": 450, "velocity": 102}, {"time": 99120, "pitch": 36, "duration": 270, "velocity": 102}, {"time": 99360, "pitch": 37, "duration": 210, "velocity": 102}, {"time": 99600, "pitch": 39, "duration": 430, "velocity": 102}, {"time": 100080, "pitch": 39, "duration": 220, "velocity": 102}, {"time": 100320, "pitch": 41, "duration": 120, "velocity": 102}, {"time": 100440, "pitch": 39, "duration": 340, "velocity": 102}, {"time": 100800, "pitch": 32, "duration": 390, "velocity": 102}, {"time": 101280, "pitch": 44, "duration": 350, "velocity": 102}, {"time": 101640, "pitch": 43, "duration": 300, "velocity": 102}, {"time": 102000, "pitch": 43, "duration": 230, "velocity": 102}, {"time": 102240, "pitch": 39, "duration": 240, "velocity": 102}, {"time": 102480, "pitch": 36, "duration": 210, "velocity": 102}, {"time": 102720, "pitch": 29, "duration": 390, "velocity": 102}, {"time": 103200, "pitch": 41, "duration": 320, "velocity": 102}, {"time": 103560, "pitch": 39, "duration": 610, "velocity": 102}, {"time": 104160, "pitch": 36, "duration": 250, "velocity": 102}, {"time": 104400, "pitch": 31, "duration": 200, "velocity": 102}, {"time": 104640, "pitch": 37, "duration": 330, "velocity": 102}, {"time": 105120, "pitch": 32, "duration": 310, "velocity": 102}, {"time": 105480, "pitch": 36, "duration": 250, "velocity": 102}, {"time": 105840, "pitch": 36, "duration": 210, "velocity": 102}, {"time": 106070, "pitch": 32, "duration": 200, "velocity": 102}, {"time": 106320, "pitch": 34, "duration": 460, "velocity": 102}, {"time": 106800, "pitch": 36, "duration": 260, "velocity": 102}, {"time": 107040, "pitch": 37, "duration": 220, "velocity": 102}, {"time": 107280, "pitch": 39, "duration": 450, "velocity": 102}, {"time": 107760, "pitch": 39, "duration": 220, "velocity": 102}, {"time": 108000, "pitch": 46, "duration": 80, "velocity": 102}, {"time": 108120, "pitch": 39, "duration": 270, "velocity": 102}, {"time": 108480, "pitch": 33, "duration": 190, "velocity": 102}, {"time": 108720, "pitch": 35, "duration": 190, "velocity": 102}, {"time": 108960, "pitch": 36, "duration": 190, "velocity": 102}, {"time": 109200, "pitch": 38, "duration": 420, "velocity": 102}, {"time": 109680, "pitch": 38, "duration": 230, "velocity": 102}, {"time": 109920, "pitch": 45, "duration": 100, "velocity": 102}, {"time": 110040, "pitch": 38, "duration": 350, "velocity": 102}, {"time": 110400, "pitch": 32, "duration": 190, "velocity": 102}, {"time": 110640, "pitch": 34, "duration": 220, "velocity": 102}, {"time": 110880, "pitch": 36, "duration": 190, "velocity": 102}, {"time": 111120, "pitch": 37, "duration": 460, "velocity": 102}, {"time": 111600, "pitch": 32, "duration": 200, "velocity": 102}, {"time": 111840, "pitch": 37, "duration": 410, "velocity": 102}, {"time": 112320, "pitch": 36, "duration": 230, "velocity": 102}, {"time": 112800, "pitch": 43, "duration": 200, "velocity": 102}, {"time": 113040, "pitch": 48, "duration": 60, "velocity": 102}, {"time": 113160, "pitch": 48, "duration": 220, "velocity": 102}, {"time": 113400, "pitch": 43, "duration": 50, "velocity": 102}, {"time": 113520, "pitch": 36, "duration": 170, "velocity": 102}, {"time": 113760, "pitch": 36, "duration": 180, "velocity": 102}, {"time": 114000, "pitch": 43, "duration": 170, "velocity": 102}, {"time": 114360, "pitch": 36, "duration": 140, "velocity": 117}, {"time": 114600, "pitch": 36, "duration": 50, "velocity": 112}, {"time": 114720, "pitch": 36, "duration": 60, "velocity": 117}, {"time": 114840, "pitch": 36, "duration": 130, "velocity": 108}, {"time": 115080, "pitch": 36, "duration": 50, "velocity": 127}, {"time": 115200, "pitch": 36, "duration": 70, "velocity": 127}, {"time": 115320, "pitch": 36, "duration": 120, "velocity": 127}, {"time": 115560, "pitch": 36, "duration": 90, "velocity": 112}, {"time": 115680, "pitch": 43, "duration": 210, "velocity": 127}, {"time": 115920, "pitch": 48, "duration": 200, "velocity": 127}, {"time": 116160, "pitch": 41, "duration": 140, "velocity": 102}, {"time": 116520, "pitch": 41, "duration": 270, "velocity": 102}, {"time": 116870, "pitch": 38, "duration": 190, "velocity": 102}, {"time": 117120, "pitch": 41, "duration": 140, "velocity": 102}, {"time": 117480, "pitch": 41, "duration": 270, "velocity": 102}, {"time": 117830, "pitch": 38, "duration": 190, "velocity": 102}, {"time": 118080, "pitch": 36, "duration": 150, "velocity": 102}, {"time": 118440, "pitch": 36, "duration": 310, "velocity": 102}, {"time": 118790, "pitch": 33, "duration": 200, "velocity": 102}, {"time": 119040, "pitch": 36, "duration": 160, "velocity": 102}, {"time": 119400, "pitch": 36, "duration": 290, "velocity": 102}, {"time": 119750, "pitch": 34, "duration": 200, "velocity": 102}, {"time": 120000, "pitch": 33, "duration": 160, "velocity": 102}, {"time": 120360, "pitch": 33, "duration": 330, "velocity": 102}, {"time": 120710, "pitch": 36, "duration": 200, "velocity": 102}, {"time": 120960, "pitch": 38, "duration": 160, "velocity": 102}, {"time": 121200, "pitch": 38, "duration": 200, "velocity": 102}, {"time": 121440, "pitch": 41, "duration": 220, "velocity": 102}, {"time": 121670, "pitch": 42, "duration": 190, "velocity": 102}, {"time": 121920, "pitch": 43, "duration": 150, "velocity": 102}, {"time": 122280, "pitch": 43, "duration": 310, "velocity": 102}, {"time": 122630, "pitch": 38, "duration": 190, "velocity": 102}, {"time": 122880, "pitch": 36, "duration": 170, "velocity": 102}, {"time": 123120, "pitch": 36, "duration": 180, "velocity": 102}, {"time": 123360, "pitch": 38, "duration": 200, "velocity": 102}, {"time": 123590, "pitch": 36, "duration": 210, "velocity": 102}, {"time": 123840, "pitch": 41, "duration": 140, "velocity": 102}, {"time": 124200, "pitch": 41, "duration": 340, "velocity": 102}, {"time": 124550, "pitch": 38, "duration": 200, "velocity": 102}, {"time": 124800, "pitch": 41, "duration": 160, "velocity": 102}, {"time": 125160, "pitch": 41, "duration": 320, "velocity": 102}, {"time": 125510, "pitch": 38, "duration": 200, "velocity": 102}, {"time": 125760, "pitch": 36, "duration": 200, "velocity": 102}, {"time": 126120, "pitch": 36, "duration": 320, "velocity": 102}, {"time": 126470, "pitch": 33, "duration": 200, "velocity": 102}, {"time": 126720, "pitch": 36, "duration": 170, "velocity": 102}, {"time": 127080, "pitch": 36, "duration": 310, "velocity": 102}, {"time": 127430, "pitch": 34, "duration": 220, "velocity": 102}, {"time": 127680, "pitch": 33, "duration": 190, "velocity": 102}, {"time": 128040, "pitch": 33, "duration": 350, "velocity": 102}, {"time": 128390, "pitch": 36, "duration": 200, "velocity": 102}, {"time": 128640, "pitch": 38, "duration": 180, "velocity": 102}, {"time": 128880, "pitch": 38, "duration": 210, "velocity": 102}, {"time": 129120, "pitch": 41, "duration": 200, "velocity": 102}, {"time": 129350, "pitch": 33, "duration": 210, "velocity": 102}, {"time": 129600, "pitch": 39, "duration": 180, "velocity": 102}, {"time": 129960, "pitch": 39, "duration": 290, "velocity": 102}, {"time": 130310, "pitch": 34, "duration": 210, "velocity": 102}, {"time": 130560, "pitch": 39, "duration": 170, "velocity": 102}, {"time": 130800, "pitch": 39, "duration": 190, "velocity": 102}, {"time": 131040, "pitch": 41, "duration": 200, "velocity": 102}, {"time": 131270, "pitch": 43, "duration": 240, "velocity": 102}, {"time": 131520, "pitch": 44, "duration": 140, "velocity": 102}, {"time": 131880, "pitch": 44, "duration": 270, "velocity": 102}, {"time": 132230, "pitch": 41, "duration": 190, "velocity": 102}, {"time": 132480, "pitch": 44, "duration": 140, "velocity": 102}, {"time": 132840, "pitch": 44, "duration": 270, "velocity": 102}, {"time": 133190, "pitch": 41, "duration": 190, "velocity": 102}, {"time": 133440, "pitch": 39, "duration": 150, "velocity": 102}, {"time": 133800, "pitch": 39, "duration": 310, "velocity": 102}, {"time": 134150, "pitch": 36, "duration": 200, "velocity": 102}, {"time": 134400, "pitch": 39, "duration": 160, "velocity": 102}, {"time": 134760, "pitch": 39, "duration": 290, "velocity": 102}, {"time": 135110, "pitch": 37, "duration": 200, "velocity": 102}, {"time": 135360, "pitch": 36, "duration": 160, "velocity": 102}, {"time": 135720, "pitch": 36, "duration": 330, "velocity": 102}, {"time": 136070, "pitch": 39, "duration": 200, "velocity": 102}, {"time": 136320, "pitch": 41, "duration": 160, "velocity": 102}, {"time": 136560, "pitch": 41, "duration": 200, "velocity": 102}, {"time": 136800, "pitch": 44, "duration": 220, "velocity": 102}, {"time": 137030, "pitch": 45, "duration": 190, "velocity": 102}, {"time": 137280, "pitch": 46, "duration": 150, "velocity": 102}, {"time": 137640, "pitch": 46, "duration": 310, "velocity": 102}, {"time": 137990, "pitch": 41, "duration": 190, "velocity": 102}, {"time": 138240, "pitch": 39, "duration": 170, "velocity": 102}, {"time": 138480, "pitch": 39, "duration": 180, "velocity": 102}, {"time": 138720, "pitch": 41, "duration": 200, "velocity": 102}, {"time": 138950, "pitch": 39, "duration": 210, "velocity": 102}, {"time": 139200, "pitch": 44, "duration": 140, "velocity": 102}, {"time": 139560, "pitch": 44, "duration": 340, "velocity": 102}, {"time": 139910, "pitch": 41, "duration": 200, "velocity": 102}, {"time": 140160, "pitch": 44, "duration": 160, "velocity": 102}, {"time": 140520, "pitch": 44, "duration": 320, "velocity": 102}, {"time": 140870, "pitch": 41, "duration": 200, "velocity": 102}, {"time": 141120, "pitch": 39, "duration": 200, "velocity": 102}, {"time": 141480, "pitch": 39, "duration": 320, "velocity": 102}, {"time": 141830, "pitch": 36, "duration": 200, "velocity": 102}, {"time": 142080, "pitch": 39, "duration": 170, "velocity": 102}, {"time": 142440, "pitch": 39, "duration": 310, "velocity": 102}, {"time": 142790, "pitch": 37, "duration": 220, "velocity": 102}, {"time": 143040, "pitch": 36, "duration": 190, "velocity": 102}, {"time": 143400, "pitch": 36, "duration": 350, "velocity": 102}, {"time": 143750, "pitch": 39, "duration": 200, "velocity": 102}, {"time": 144000, "pitch": 41, "duration": 180, "velocity": 102}, {"time": 144240, "pitch": 29, "duration": 210, "velocity": 102}, {"time": 144480, "pitch": 32, "duration": 200, "velocity": 102}, {"time": 144710, "pitch": 33, "duration": 210, "velocity": 102}, {"time": 144960, "pitch": 34, "duration": 180, "velocity": 102}, {"time": 145320, "pitch": 34, "duration": 290, "velocity": 102}, {"time": 145670, "pitch": 37, "duration": 210, "velocity": 102}, {"time": 145920, "pitch": 39, "duration": 170, "velocity": 102}, {"time": 146160, "pitch": 39, "duration": 190, "velocity": 102}, {"time": 146400, "pitch": 41, "duration": 200, "velocity": 102}, {"time": 146630, "pitch": 39, "duration": 250, "velocity": 102}, {"time": 146880, "pitch": 34, "duration": 230, "velocity": 102}, {"time": 147240, "pitch": 34, "duration": 40, "velocity": 102}, {"time": 147360, "pitch": 34, "duration": 250, "velocity": 102}, {"time": 147720, "pitch": 34, "duration": 150, "velocity": 102}, {"time": 147960, "pitch": 34, "duration": 150, "velocity": 102}, {"time": 148200, "pitch": 34, "duration": 50, "velocity": 102}, {"time": 148320, "pitch": 34, "duration": 250, "velocity": 102}, {"time": 148800, "pitch": 39, "duration": 260, "velocity": 102}, {"time": 149160, "pitch": 39, "duration": 50, "velocity": 102}, {"time": 149280, "pitch": 39, "duration": 250, "velocity": 102}, {"time": 149640, "pitch": 39, "duration": 110, "velocity": 102}, {"time": 149880, "pitch": 39, "duration": 160, "velocity": 102}, {"time": 150120, "pitch": 39, "duration": 60, "velocity": 102}, {"time": 150240, "pitch": 39, "duration": 130, "velocity": 102}, {"time": 150360, "pitch": 41, "duration": 70, "velocity": 102}, {"time": 150480, "pitch": 44, "duration": 110, "velocity": 102}, {"time": 150600, "pitch": 41, "duration": 90, "velocity": 102}, {"time": 150720, "pitch": 46, "duration": 240, "velocity": 102}, {"time": 151080, "pitch": 46, "duration": 50, "velocity": 102}, {"time": 151200, "pitch": 46, "duration": 270, "velocity": 102}, {"time": 151560, "pitch": 46, "duration": 130, "velocity": 102}, {"time": 151800, "pitch": 46, "duration": 150, "velocity": 102}, {"time": 152040, "pitch": 46, "duration": 60, "velocity": 102}, {"time": 152160, "pitch": 46, "duration": 240, "velocity": 102}, {"time": 152530, "pitch": 39, "duration": 60, "velocity": 102}, {"time": 152640, "pitch": 39, "duration": 260, "velocity": 102}, {"time": 153000, "pitch": 39, "duration": 50, "velocity": 102}, {"time": 153120, "pitch": 39, "duration": 290, "velocity": 102}, {"time": 153480, "pitch": 39, "duration": 320, "velocity": 102}, {"time": 153840, "pitch": 39, "duration": 90, "velocity": 102}, {"time": 154080, "pitch": 39, "duration": 200, "velocity": 102}, {"time": 154320, "pitch": 37, "duration": 190, "velocity": 102}, {"time": 154560, "pitch": 36, "duration": 230, "velocity": 102}, {"time": 154920, "pitch": 36, "duration": 60, "velocity": 102}, {"time": 155040, "pitch": 36, "duration": 180, "velocity": 102}, {"time": 155280, "pitch": 31, "duration": 90, "velocity": 102}, {"time": 155400, "pitch": 36, "duration": 150, "velocity": 102}, {"time": 155640, "pitch": 36, "duration": 230, "velocity": 102}, {"time": 155880, "pitch": 31, "duration": 70, "velocity": 102}, {"time": 156000, "pitch": 36, "duration": 190, "velocity": 102}, {"time": 156240, "pitch": 31, "duration": 200, "velocity": 102}, {"time": 156480, "pitch": 41, "duration": 420, "velocity": 102}, {"time": 156960, "pitch": 41, "duration": 440, "velocity": 102}, {"time": 157440, "pitch": 39, "duration": 450, "velocity": 102}, {"time": 157920, "pitch": 36, "duration": 470, "velocity": 102}, {"time": 158400, "pitch": 37, "duration": 180, "velocity": 102}, {"time": 158640, "pitch": 49, "duration": 130, "velocity": 102}, {"time": 158880, "pitch": 49, "duration": 190, "velocity": 102}, {"time": 159120, "pitch": 36, "duration": 180, "velocity": 102}, {"time": 159360, "pitch": 48, "duration": 170, "velocity": 102}, {"time": 159600, "pitch": 48, "duration": 210, "velocity": 102}, {"time": 160320, "pitch": 34, "duration": 240, "velocity": 102}, {"time": 161660, "pitch": 39, "duration": 80, "velocity": 102}, {"time": 161750, "pitch": 41, "duration": 70, "velocity": 102}, {"time": 161860, "pitch": 44, "duration": 110, "velocity": 102}, {"time": 161960, "pitch": 46, "duration": 110, "velocity": 102}, {"time": 162100, "pitch": 41, "duration": 140, "velocity": 102}, {"time": 162240, "pitch": 39, "duration": 240, "velocity": 102}, {"time": 162240, "pitch": 41, "duration": 10, "velocity": 102}, {"time": 163680, "pitch": 39, "duration": 120, "velocity": 102}, {"time": 163800, "pitch": 41, "duration": 110, "velocity": 102}, {"time": 163920, "pitch": 44, "duration": 100, "velocity": 102}, {"time": 164040, "pitch": 41, "duration": 100, "velocity": 102}, {"time": 164160, "pitch": 46, "duration": 420, "velocity": 102}, {"time": 164640, "pitch": 44, "duration": 420, "velocity": 102}, {"time": 165120, "pitch": 43, "duration": 290, "velocity": 102}, {"time": 165480, "pitch": 39, "duration": 90, "velocity": 102}, {"time": 165600, "pitch": 41, "duration": 110, "velocity": 102}, {"time": 165720, "pitch": 44, "duration": 120, "velocity": 102}, {"time": 165840, "pitch": 46, "duration": 120, "velocity": 102}, {"time": 165960, "pitch": 41, "duration": 110, "velocity": 102}, {"time": 166080, "pitch": 39, "duration": 80, "velocity": 102}, {"time": 166320, "pitch": 39, "duration": 430, "velocity": 102}, {"time": 166800, "pitch": 39, "duration": 1000, "velocity": 102}, {"time": 168000, "pitch": 32, "duration": 420, "velocity": 102}, {"time": 168480, "pitch": 44, "duration": 350, "velocity": 102}, {"time": 168840, "pitch": 43, "duration": 580, "velocity": 102}, {"time": 169440, "pitch": 39, "duration": 420, "velocity": 102}, {"time": 169920, "pitch": 29, "duration": 440, "velocity": 102}, {"time": 170400, "pitch": 41, "duration": 300, "velocity": 102}, {"time": 170760, "pitch": 39, "duration": 570, "velocity": 102}, {"time": 171360, "pitch": 36, "duration": 230, "velocity": 102}, {"time": 171600, "pitch": 31, "duration": 200, "velocity": 102}, {"time": 171840, "pitch": 37, "duration": 310, "velocity": 102}, {"time": 172320, "pitch": 32, "duration": 320, "velocity": 102}, {"time": 172680, "pitch": 36, "duration": 330, "velocity": 102}, {"time": 173040, "pitch": 36, "duration": 210, "velocity": 102}, {"time": 173280, "pitch": 32, "duration": 180, "velocity": 102}, {"time": 173520, "pitch": 34, "duration": 450, "velocity": 102}, {"time": 174000, "pitch": 36, "duration": 270, "velocity": 102}, {"time": 174240, "pitch": 37, "duration": 210, "velocity": 102}, {"time": 174480, "pitch": 39, "duration": 430, "velocity": 102}, {"time": 174960, "pitch": 39, "duration": 220, "velocity": 102}, {"time": 175200, "pitch": 41, "duration": 120, "velocity": 102}, {"time": 175320, "pitch": 39, "duration": 340, "velocity": 102}, {"time": 175680, "pitch": 32, "duration": 390, "velocity": 102}, {"time": 176160, "pitch": 44, "duration": 350, "velocity": 102}, {"time": 176520, "pitch": 43, "duration": 300, "velocity": 102}, {"time": 176880, "pitch": 43, "duration": 230, "velocity": 102}, {"time": 177120, "pitch": 39, "duration": 240, "velocity": 102}, {"time": 177360, "pitch": 36, "duration": 210, "velocity": 102}, {"time": 177600, "pitch": 29, "duration": 390, "velocity": 102}, {"time": 178080, "pitch": 41, "duration": 320, "velocity": 102}, {"time": 178440, "pitch": 39, "duration": 610, "velocity": 102}, {"time": 179040, "pitch": 36, "duration": 250, "velocity": 102}, {"time": 179280, "pitch": 31, "duration": 200, "velocity": 102}, {"time": 179520, "pitch": 37, "duration": 330, "velocity": 102}, {"time": 180000, "pitch": 32, "duration": 310, "velocity": 102}, {"time": 180360, "pitch": 36, "duration": 250, "velocity": 102}, {"time": 180720, "pitch": 36, "duration": 210, "velocity": 102}, {"time": 180960, "pitch": 32, "duration": 200, "velocity": 102}, {"time": 181200, "pitch": 34, "duration": 460, "velocity": 102}, {"time": 181680, "pitch": 36, "duration": 260, "velocity": 102}, {"time": 181920, "pitch": 37, "duration": 220, "velocity": 102}, {"time": 182160, "pitch": 39, "duration": 450, "velocity": 102}, {"time": 182640, "pitch": 39, "duration": 220, "velocity": 102}, {"time": 182880, "pitch": 41, "duration": 80, "velocity": 102}, {"time": 183000, "pitch": 39, "duration": 270, "velocity": 102}, {"time": 183360, "pitch": 34, "duration": 420, "velocity": 102}, {"time": 183840, "pitch": 46, "duration": 350, "velocity": 102}, {"time": 184200, "pitch": 45, "duration": 580, "velocity": 102}, {"time": 184800, "pitch": 41, "duration": 420, "velocity": 102}, {"time": 185280, "pitch": 31, "duration": 440, "velocity": 102}, {"time": 185760, "pitch": 43, "duration": 300, "velocity": 102}, {"time": 186120, "pitch": 41, "duration": 570, "velocity": 102}, {"time": 186720, "pitch": 38, "duration": 230, "velocity": 102}, {"time": 186960, "pitch": 33, "duration": 200, "velocity": 102}, {"time": 187200, "pitch": 39, "duration": 310, "velocity": 102}, {"time": 187680, "pitch": 34, "duration": 320, "velocity": 102}, {"time": 188040, "pitch": 38, "duration": 330, "velocity": 102}, {"time": 188400, "pitch": 38, "duration": 210, "velocity": 102}, {"time": 188640, "pitch": 34, "duration": 180, "velocity": 102}, {"time": 188880, "pitch": 36, "duration": 450, "velocity": 102}, {"time": 189360, "pitch": 38, "duration": 270, "velocity": 102}, {"time": 189600, "pitch": 39, "duration": 210, "velocity": 102}, {"time": 189840, "pitch": 41, "duration": 430, "velocity": 102}, {"time": 190320, "pitch": 41, "duration": 220, "velocity": 102}, {"time": 190560, "pitch": 43, "duration": 120, "velocity": 102}, {"time": 190680, "pitch": 41, "duration": 340, "velocity": 102}, {"time": 191040, "pitch": 34, "duration": 390, "velocity": 102}, {"time": 191520, "pitch": 46, "duration": 350, "velocity": 102}, {"time": 191880, "pitch": 45, "duration": 300, "velocity": 102}, {"time": 192240, "pitch": 45, "duration": 230, "velocity": 102}, {"time": 192480, "pitch": 41, "duration": 240, "velocity": 102}, {"time": 192720, "pitch": 38, "duration": 210, "velocity": 102}, {"time": 192960, "pitch": 31, "duration": 390, "velocity": 102}, {"time": 193440, "pitch": 43, "duration": 320, "velocity": 102}, {"time": 193800, "pitch": 41, "duration": 610, "velocity": 102}, {"time": 194400, "pitch": 38, "duration": 250, "velocity": 102}, {"time": 194640, "pitch": 33, "duration": 200, "velocity": 102}, {"time": 194880, "pitch": 39, "duration": 330, "velocity": 102}, {"time": 195360, "pitch": 34, "duration": 310, "velocity": 102}, {"time": 195720, "pitch": 38, "duration": 250, "velocity": 102}, {"time": 196080, "pitch": 38, "duration": 210, "velocity": 102}, {"time": 196320, "pitch": 34, "duration": 200, "velocity": 102}, {"time": 196560, "pitch": 36, "duration": 460, "velocity": 102}, {"time": 197040, "pitch": 38, "duration": 260, "velocity": 102}, {"time": 197280, "pitch": 39, "duration": 220, "velocity": 102}, {"time": 197520, "pitch": 41, "duration": 450, "velocity": 102}, {"time": 198000, "pitch": 41, "duration": 220, "velocity": 102}, {"time": 198240, "pitch": 43, "duration": 80, "velocity": 102}, {"time": 198360, "pitch": 41, "duration": 270, "velocity": 102}, {"time": 198720, "pitch": 34, "duration": 50, "velocity": 117}, {"time": 198840, "pitch": 34, "duration": 50, "velocity": 104}, {"time": 198960, "pitch": 34, "duration": 60, "velocity": 108}, {"time": 199080, "pitch": 34, "duration": 60, "velocity": 112}, {"time": 199200, "pitch": 34, "duration": 180, "velocity": 117}, {"time": 200640, "pitch": 41, "duration": 60, "velocity": 117}, {"time": 200760, "pitch": 41, "duration": 60, "velocity": 98}, {"time": 200880, "pitch": 41, "duration": 60, "velocity": 104}, {"time": 201000, "pitch": 41, "duration": 60, "velocity": 104}, {"time": 201120, "pitch": 41, "duration": 200, "velocity": 104}, {"time": 202560, "pitch": 45, "duration": 50, "velocity": 117}, {"time": 202680, "pitch": 45, "duration": 50, "velocity": 104}, {"time": 202800, "pitch": 45, "duration": 60, "velocity": 108}, {"time": 202920, "pitch": 45, "duration": 60, "velocity": 112}, {"time": 203040, "pitch": 45, "duration": 180, "velocity": 117}, {"time": 204480, "pitch": 38, "duration": 60, "velocity": 117}, {"time": 204600, "pitch": 38, "duration": 60, "velocity": 98}, {"time": 204720, "pitch": 38, "duration": 60, "velocity": 104}, {"time": 204840, "pitch": 38, "duration": 60, "velocity": 104}, {"time": 204960, "pitch": 38, "duration": 200, "velocity": 104}, {"time": 206400, "pitch": 34, "duration": 50, "velocity": 117}, {"time": 206520, "pitch": 34, "duration": 50, "velocity": 104}, {"time": 206640, "pitch": 34, "duration": 60, "velocity": 108}, {"time": 206760, "pitch": 34, "duration": 60, "velocity": 112}, {"time": 206880, "pitch": 34, "duration": 180, "velocity": 117}, {"time": 208320, "pitch": 41, "duration": 60, "velocity": 117}, {"time": 208440, "pitch": 41, "duration": 60, "velocity": 98}, {"time": 208560, "pitch": 41, "duration": 60, "velocity": 104}, {"time": 208680, "pitch": 41, "duration": 60, "velocity": 104}, {"time": 208800, "pitch": 41, "duration": 200, "velocity": 104}, {"time": 210240, "pitch": 45, "duration": 50, "velocity": 117}, {"time": 210360, "pitch": 45, "duration": 50, "velocity": 104}, {"time": 210480, "pitch": 45, "duration": 60, "velocity": 108}, {"time": 210600, "pitch": 45, "duration": 60, "velocity": 112}, {"time": 210720, "pitch": 45, "duration": 180, "velocity": 117}, {"time": 212160, "pitch": 38, "duration": 60, "velocity": 117}, {"time": 212280, "pitch": 38, "duration": 60, "velocity": 98}, {"time": 212400, "pitch": 38, "duration": 60, "velocity": 104}, {"time": 212520, "pitch": 38, "duration": 60, "velocity": 104}, {"time": 212640, "pitch": 38, "duration": 200, "velocity": 104}, {"time": 9120, "pitch": 56, "duration": 60, "velocity": 85}, {"time": 9120, "pitch": 68, "duration": 60, "velocity": 100}, {"time": 9240, "pitch": 51, "duration": 70, "velocity": 85}, {"time": 9240, "pitch": 63, "duration": 70, "velocity": 100}, {"time": 9360, "pitch": 53, "duration": 60, "velocity": 85}, {"time": 9360, "pitch": 65, "duration": 60, "velocity": 100}, {"time": 9480, "pitch": 56, "duration": 100, "velocity": 85}, {"time": 9480, "pitch": 68, "duration": 100, "velocity": 100}, {"time": 11040, "pitch": 60, "duration": 70, "velocity": 85}, {"time": 11040, "pitch": 72, "duration": 70, "velocity": 100}, {"time": 11160, "pitch": 56, "duration": 60, "velocity": 85}, {"time": 11160, "pitch": 68, "duration": 60, "velocity": 100}, {"time": 11280, "pitch": 58, "duration": 80, "velocity": 85}, {"time": 11280, "pitch": 70, "duration": 80, "velocity": 100}, {"time": 11400, "pitch": 56, "duration": 180, "velocity": 85}, {"time": 11400, "pitch": 68, "duration": 180, "velocity": 100}, {"time": 11640, "pitch": 56, "duration": 70, "velocity": 85}, {"time": 11640, "pitch": 68, "duration": 70, "velocity": 100}, {"time": 11760, "pitch": 51, "duration": 90, "velocity": 85}, {"time": 11760, "pitch": 63, "duration": 90, "velocity": 100}, {"time": 12000, "pitch": 53, "duration": 190, "velocity": 85}, {"time": 12000, "pitch": 65, "duration": 190, "velocity": 100}, {"time": 12240, "pitch": 56, "duration": 70, "velocity": 85}, {"time": 12240, "pitch": 68, "duration": 70, "velocity": 100}, {"time": 12960, "pitch": 56, "duration": 70, "velocity": 85}, {"time": 12960, "pitch": 68, "duration": 70, "velocity": 100}, {"time": 13080, "pitch": 51, "duration": 60, "velocity": 85}, {"time": 13080, "pitch": 63, "duration": 60, "velocity": 100}, {"time": 13200, "pitch": 53, "duration": 60, "velocity": 85}, {"time": 13200, "pitch": 65, "duration": 60, "velocity": 100}, {"time": 13320, "pitch": 56, "duration": 160, "velocity": 85}, {"time": 13320, "pitch": 68, "duration": 160, "velocity": 100}, {"time": 13560, "pitch": 56, "duration": 60, "velocity": 85}, {"time": 13560, "pitch": 68, "duration": 60, "velocity": 100}, {"time": 13680, "pitch": 53, "duration": 90, "velocity": 85}, {"time": 13680, "pitch": 65, "duration": 90, "velocity": 100}, {"time": 14880, "pitch": 51, "duration": 80, "velocity": 85}, {"time": 14880, "pitch": 63, "duration": 90, "velocity": 100}, {"time": 15120, "pitch": 53, "duration": 110, "velocity": 85}, {"time": 15120, "pitch": 65, "duration": 120, "velocity": 100}, {"time": 15360, "pitch": 55, "duration": 70, "velocity": 100}, {"time": 15360, "pitch": 67, "duration": 70, "velocity": 100}, {"time": 15600, "pitch": 56, "duration": 70, "velocity": 100}, {"time": 15600, "pitch": 68, "duration": 70, "velocity": 100}, {"time": 15840, "pitch": 58, "duration": 50, "velocity": 100}, {"time": 15840, "pitch": 70, "duration": 50, "velocity": 100}, {"time": 15960, "pitch": 63, "duration": 300, "velocity": 100}, {"time": 15960, "pitch": 75, "duration": 300, "velocity": 100}, {"time": 16800, "pitch": 56, "duration": 60, "velocity": 85}, {"time": 16800, "pitch": 68, "duration": 60, "velocity": 100}, {"time": 16920, "pitch": 51, "duration": 70, "velocity": 85}, {"time": 16920, "pitch": 63, "duration": 70, "velocity": 100}, {"time": 17040, "pitch": 53, "duration": 60, "velocity": 85}, {"time": 17040, "pitch": 65, "duration": 60, "velocity": 100}, {"time": 17160, "pitch": 56, "duration": 120, "velocity": 85}, {"time": 17160, "pitch": 68, "duration": 120, "velocity": 100}, {"time": 18720, "pitch": 60, "duration": 80, "velocity": 85}, {"time": 18720, "pitch": 72, "duration": 80, "velocity": 100}, {"time": 18840, "pitch": 56, "duration": 60, "velocity": 85}, {"time": 18840, "pitch": 68, "duration": 60, "velocity": 100}, {"time": 18960, "pitch": 58, "duration": 80, "velocity": 85}, {"time": 18960, "pitch": 70, "duration": 80, "velocity": 100}, {"time": 19080, "pitch": 56, "duration": 190, "velocity": 85}, {"time": 19080, "pitch": 68, "duration": 190, "velocity": 100}, {"time": 19320, "pitch": 56, "duration": 80, "velocity": 85}, {"time": 19320, "pitch": 68, "duration": 80, "velocity": 100}, {"time": 19440, "pitch": 51, "duration": 90, "velocity": 85}, {"time": 19440, "pitch": 63, "duration": 90, "velocity": 100}, {"time": 19680, "pitch": 53, "duration": 190, "velocity": 85}, {"time": 19680, "pitch": 65, "duration": 190, "velocity": 100}, {"time": 19920, "pitch": 56, "duration": 80, "velocity": 85}, {"time": 19920, "pitch": 68, "duration": 80, "velocity": 100}, {"time": 20640, "pitch": 56, "duration": 70, "velocity": 85}, {"time": 20640, "pitch": 68, "duration": 70, "velocity": 100}, {"time": 20760, "pitch": 51, "duration": 60, "velocity": 85}, {"time": 20760, "pitch": 63, "duration": 60, "velocity": 100}, {"time": 20880, "pitch": 53, "duration": 70, "velocity": 85}, {"time": 20880, "pitch": 65, "duration": 70, "velocity": 100}, {"time": 21000, "pitch": 56, "duration": 170, "velocity": 85}, {"time": 21000, "pitch": 68, "duration": 170, "velocity": 100}, {"time": 21240, "pitch": 56, "duration": 60, "velocity": 85}, {"time": 21240, "pitch": 68, "duration": 60, "velocity": 100}, {"time": 21360, "pitch": 53, "duration": 80, "velocity": 85}, {"time": 21360, "pitch": 65, "duration": 80, "velocity": 100}, {"time": 22560, "pitch": 53, "duration": 80, "velocity": 85}, {"time": 22560, "pitch": 65, "duration": 80, "velocity": 100}, {"time": 22680, "pitch": 55, "duration": 70, "velocity": 85}, {"time": 22680, "pitch": 67, "duration": 70, "velocity": 100}, {"time": 22800, "pitch": 56, "duration": 80, "velocity": 85}, {"time": 22800, "pitch": 68, "duration": 80, "velocity": 100}, {"time": 22920, "pitch": 55, "duration": 210, "velocity": 85}, {"time": 22920, "pitch": 67, "duration": 210, "velocity": 100}, {"time": 23160, "pitch": 55, "duration": 70, "velocity": 85}, {"time": 23160, "pitch": 67, "duration": 70, "velocity": 100}, {"time": 23280, "pitch": 56, "duration": 80, "velocity": 85}, {"time": 23280, "pitch": 68, "duration": 80, "velocity": 100}, {"time": 23400, "pitch": 57, "duration": 90, "velocity": 85}, {"time": 23400, "pitch": 69, "duration": 90, "velocity": 100}, {"time": 23520, "pitch": 58, "duration": 80, "velocity": 85}, {"time": 23520, "pitch": 70, "duration": 80, "velocity": 100}, {"time": 23640, "pitch": 63, "duration": 250, "velocity": 85}, {"time": 23640, "pitch": 75, "duration": 250, "velocity": 100}, {"time": 24000, "pitch": 60, "duration": 60, "velocity": 100}, {"time": 24000, "pitch": 68, "duration": 60, "velocity": 100}, {"time": 24120, "pitch": 60, "duration": 50, "velocity": 100}, {"time": 24120, "pitch": 68, "duration": 50, "velocity": 100}, {"time": 24240, "pitch": 60, "duration": 50, "velocity": 100}, {"time": 24240, "pitch": 68, "duration": 50, "velocity": 100}, {"time": 24360, "pitch": 60, "duration": 50, "velocity": 100}, {"time": 24360, "pitch": 68, "duration": 40, "velocity": 100}, {"time": 24480, "pitch": 60, "duration": 100, "velocity": 100}, {"time": 24480, "pitch": 68, "duration": 100, "velocity": 100}, {"time": 25920, "pitch": 61, "duration": 50, "velocity": 100}, {"time": 25920, "pitch": 68, "duration": 50, "velocity": 100}, {"time": 26040, "pitch": 61, "duration": 50, "velocity": 100}, {"time": 26040, "pitch": 68, "duration": 40, "velocity": 100}, {"time": 26160, "pitch": 61, "duration": 50, "velocity": 100}, {"time": 26160, "pitch": 68, "duration": 40, "velocity": 100}, {"time": 26280, "pitch": 61, "duration": 40, "velocity": 100}, {"time": 26280, "pitch": 68, "duration": 40, "velocity": 100}, {"time": 26400, "pitch": 61, "duration": 70, "velocity": 100}, {"time": 26400, "pitch": 68, "duration": 80, "velocity": 100}, {"time": 27840, "pitch": 62, "duration": 50, "velocity": 100}, {"time": 27840, "pitch": 69, "duration": 50, "velocity": 100}, {"time": 27960, "pitch": 62, "duration": 40, "velocity": 100}, {"time": 27960, "pitch": 69, "duration": 40, "velocity": 100}, {"time": 28080, "pitch": 62, "duration": 50, "velocity": 100}, {"time": 28080, "pitch": 69, "duration": 50, "velocity": 100}, {"time": 28200, "pitch": 62, "duration": 50, "velocity": 100}, {"time": 28200, "pitch": 69, "duration": 50, "velocity": 100}, {"time": 28320, "pitch": 62, "duration": 80, "velocity": 100}, {"time": 28320, "pitch": 69, "duration": 90, "velocity": 100}, {"time": 29760, "pitch": 60, "duration": 50, "velocity": 100}, {"time": 29760, "pitch": 67, "duration": 50, "velocity": 100}, {"time": 29880, "pitch": 60, "duration": 50, "velocity": 100}, {"time": 29880, "pitch": 67, "duration": 40, "velocity": 100}, {"time": 30000, "pitch": 60, "duration": 50, "velocity": 100}, {"time": 30000, "pitch": 67, "duration": 50, "velocity": 100}, {"time": 30120, "pitch": 60, "duration": 50, "velocity": 100}, {"time": 30120, "pitch": 67, "duration": 50, "velocity": 100}, {"time": 30240, "pitch": 60, "duration": 80, "velocity": 100}, {"time": 30240, "pitch": 67, "duration": 90, "velocity": 100}, {"time": 53280, "pitch": 68, "duration": 390, "velocity": 110}, {"time": 53280, "pitch": 80, "duration": 430, "velocity": 110}, {"time": 53760, "pitch": 67, "duration": 490, "velocity": 110}, {"time": 53760, "pitch": 79, "duration": 540, "velocity": 110}, {"time": 54240, "pitch": 65, "duration": 430, "velocity": 110}, {"time": 54240, "pitch": 77, "duration": 430, "velocity": 110}, {"time": 54720, "pitch": 63, "duration": 1270, "velocity": 110}, {"time": 54720, "pitch": 75, "duration": 1270, "velocity": 110}, {"time": 62640, "pitch": 68, "duration": 50, "velocity": 99}, {"time": 62760, "pitch": 68, "duration": 70, "velocity": 93}, {"time": 63000, "pitch": 68, "duration": 60, "velocity": 93}, {"time": 63360, "pitch": 68, "duration": 60, "velocity": 99}, {"time": 63720, "pitch": 68, "duration": 60, "velocity": 106}, {"time": 64560, "pitch": 68, "duration": 40, "velocity": 106}, {"time": 64680, "pitch": 68, "duration": 70, "velocity": 87}, {"time": 64920, "pitch": 68, "duration": 60, "velocity": 106}, {"time": 65280, "pitch": 68, "duration": 60, "velocity": 99}, {"time": 65640, "pitch": 68, "duration": 70, "velocity": 99}, {"time": 66480, "pitch": 67, "duration": 50, "velocity": 102}, {"time": 66600, "pitch": 67, "duration": 70, "velocity": 87}, {"time": 66840, "pitch": 67, "duration": 70, "velocity": 106}, {"time": 67200, "pitch": 72, "duration": 90, "velocity": 102}, {"time": 67560, "pitch": 72, "duration": 80, "velocity": 106}, {"time": 67920, "pitch": 65, "duration": 50, "velocity": 106}, {"time": 68040, "pitch": 65, "duration": 60, "velocity": 96}, {"time": 68400, "pitch": 65, "duration": 50, "velocity": 99}, {"time": 68520, "pitch": 65, "duration": 60, "velocity": 99}, {"time": 68760, "pitch": 65, "duration": 60, "velocity": 115}, {"time": 69120, "pitch": 70, "duration": 50, "velocity": 106}, {"time": 69480, "pitch": 70, "duration": 60, "velocity": 106}, {"time": 70320, "pitch": 68, "duration": 50, "velocity": 99}, {"time": 70440, "pitch": 68, "duration": 60, "velocity": 79}, {"time": 70680, "pitch": 68, "duration": 60, "velocity": 99}, {"time": 71040, "pitch": 68, "duration": 60, "velocity": 93}, {"time": 71400, "pitch": 68, "duration": 70, "velocity": 93}, {"time": 72240, "pitch": 68, "duration": 50, "velocity": 99}, {"time": 72360, "pitch": 68, "duration": 70, "velocity": 83}, {"time": 72600, "pitch": 68, "duration": 60, "velocity": 106}, {"time": 72960, "pitch": 68, "duration": 60, "velocity": 93}, {"time": 73320, "pitch": 68, "duration": 70, "velocity": 99}, {"time": 74160, "pitch": 67, "duration": 50, "velocity": 102}, {"time": 74280, "pitch": 67, "duration": 70, "velocity": 87}, {"time": 74520, "pitch": 67, "duration": 70, "velocity": 106}, {"time": 74880, "pitch": 72, "duration": 90, "velocity": 102}, {"time": 75240, "pitch": 72, "duration": 80, "velocity": 106}, {"time": 75600, "pitch": 65, "duration": 50, "velocity": 106}, {"time": 75720, "pitch": 65, "duration": 60, "velocity": 96}, {"time": 76080, "pitch": 65, "duration": 50, "velocity": 99}, {"time": 76200, "pitch": 65, "duration": 60, "velocity": 99}, {"time": 76440, "pitch": 65, "duration": 60, "velocity": 115}, {"time": 76800, "pitch": 70, "duration": 50, "velocity": 106}, {"time": 77160, "pitch": 70, "duration": 60, "velocity": 106}, {"time": 84000, "pitch": 68, "duration": 390, "velocity": 110}, {"time": 84000, "pitch": 80, "duration": 430, "velocity": 110}, {"time": 84480, "pitch": 67, "duration": 490, "velocity": 110}, {"time": 84480, "pitch": 79, "duration": 540, "velocity": 110}, {"time": 84960, "pitch": 65, "duration": 430, "velocity": 110}, {"time": 84960, "pitch": 77, "duration": 430, "velocity": 110}, {"time": 85440, "pitch": 63, "duration": 1270, "velocity": 110}, {"time": 85440, "pitch": 75, "duration": 1270, "velocity": 110}, {"time": 93600, "pitch": 56, "duration": 60, "velocity": 85}, {"time": 93600, "pitch": 68, "duration": 60, "velocity": 100}, {"time": 93720, "pitch": 51, "duration": 70, "velocity": 85}, {"time": 93720, "pitch": 63, "duration": 70, "velocity": 100}, {"time": 93840, "pitch": 53, "duration": 60, "velocity": 85}, {"time": 93840, "pitch": 65, "duration": 60, "velocity": 100}, {"time": 93960, "pitch": 56, "duration": 100, "velocity": 85}, {"time": 93960, "pitch": 68, "duration": 100, "velocity": 100}, {"time": 95520, "pitch": 60, "duration": 70, "velocity": 85}, {"time": 95520, "pitch": 72, "duration": 70, "velocity": 100}, {"time": 95640, "pitch": 56, "duration": 60, "velocity": 85}, {"time": 95640, "pitch": 68, "duration": 60, "velocity": 100}, {"time": 95760, "pitch": 58, "duration": 80, "velocity": 85}, {"time": 95760, "pitch": 70, "duration": 80, "velocity": 100}, {"time": 95880, "pitch": 56, "duration": 180, "velocity": 85}, {"time": 95880, "pitch": 68, "duration": 180, "velocity": 100}, {"time": 96120, "pitch": 56, "duration": 70, "velocity": 85}, {"time": 96120, "pitch": 68, "duration": 70, "velocity": 100}, {"time": 96240, "pitch": 51, "duration": 90, "velocity": 85}, {"time": 96240, "pitch": 63, "duration": 90, "velocity": 100}, {"time": 96480, "pitch": 53, "duration": 190, "velocity": 85}, {"time": 96480, "pitch": 65, "duration": 190, "velocity": 100}, {"time": 96720, "pitch": 56, "duration": 70, "velocity": 85}, {"time": 96720, "pitch": 68, "duration": 70, "velocity": 100}, {"time": 97440, "pitch": 56, "duration": 70, "velocity": 85}, {"time": 97440, "pitch": 68, "duration": 70, "velocity": 100}, {"time": 97560, "pitch": 51, "duration": 60, "velocity": 85}, {"time": 97560, "pitch": 63, "duration": 60, "velocity": 100}, {"time": 97680, "pitch": 53, "duration": 60, "velocity": 85}, {"time": 97680, "pitch": 65, "duration": 60, "velocity": 100}, {"time": 97800, "pitch": 56, "duration": 160, "velocity": 85}, {"time": 97800, "pitch": 68, "duration": 160, "velocity": 100}, {"time": 98040, "pitch": 56, "duration": 60, "velocity": 85}, {"time": 98040, "pitch": 68, "duration": 60, "velocity": 100}, {"time": 98160, "pitch": 53, "duration": 90, "velocity": 85}, {"time": 98160, "pitch": 65, "duration": 90, "velocity": 100}, {"time": 99360, "pitch": 51, "duration": 80, "velocity": 85}, {"time": 99360, "pitch": 63, "duration": 90, "velocity": 100}, {"time": 99600, "pitch": 53, "duration": 110, "velocity": 85}, {"time": 99600, "pitch": 65, "duration": 120, "velocity": 100}, {"time": 99840, "pitch": 55, "duration": 70, "velocity": 100}, {"time": 99840, "pitch": 67, "duration": 70, "velocity": 100}, {"time": 100080, "pitch": 56, "duration": 70, "velocity": 100}, {"time": 100080, "pitch": 68, "duration": 70, "velocity": 100}, {"time": 100320, "pitch": 58, "duration": 50, "velocity": 100}, {"time": 100320, "pitch": 70, "duration": 50, "velocity": 100}, {"time": 100440, "pitch": 63, "duration": 300, "velocity": 100}, {"time": 100440, "pitch": 75, "duration": 300, "velocity": 100}, {"time": 101280, "pitch": 56, "duration": 60, "velocity": 85}, {"time": 101280, "pitch": 68, "duration": 60, "velocity": 100}, {"time": 101400, "pitch": 51, "duration": 70, "velocity": 85}, {"time": 101400, "pitch": 63, "duration": 70, "velocity": 100}, {"time": 101520, "pitch": 53, "duration": 60, "velocity": 85}, {"time": 101520, "pitch": 65, "duration": 60, "velocity": 100}, {"time": 101640, "pitch": 56, "duration": 120, "velocity": 85}, {"time": 101640, "pitch": 68, "duration": 120, "velocity": 100}, {"time": 103200, "pitch": 60, "duration": 80, "velocity": 85}, {"time": 103200, "pitch": 72, "duration": 80, "velocity": 100}, {"time": 103320, "pitch": 56, "duration": 60, "velocity": 85}, {"time": 103320, "pitch": 68, "duration": 60, "velocity": 100}, {"time": 103440, "pitch": 58, "duration": 80, "velocity": 85}, {"time": 103440, "pitch": 70, "duration": 80, "velocity": 100}, {"time": 103560, "pitch": 56, "duration": 190, "velocity": 85}, {"time": 103560, "pitch": 68, "duration": 190, "velocity": 100}, {"time": 103800, "pitch": 56, "duration": 80, "velocity": 85}, {"time": 103800, "pitch": 68, "duration": 80, "velocity": 100}, {"time": 103920, "pitch": 51, "duration": 90, "velocity": 85}, {"time": 103920, "pitch": 63, "duration": 90, "velocity": 100}, {"time": 104160, "pitch": 53, "duration": 190, "velocity": 85}, {"time": 104160, "pitch": 65, "duration": 190, "velocity": 100}, {"time": 104400, "pitch": 56, "duration": 80, "velocity": 85}, {"time": 104400, "pitch": 68, "duration": 80, "velocity": 100}, {"time": 105120, "pitch": 56, "duration": 70, "velocity": 85}, {"time": 105120, "pitch": 68, "duration": 70, "velocity": 100}, {"time": 105240, "pitch": 51, "duration": 60, "velocity": 85}, {"time": 105240, "pitch": 63, "duration": 60, "velocity": 100}, {"time": 105360, "pitch": 53, "duration": 70, "velocity": 85}, {"time": 105360, "pitch": 65, "duration": 70, "velocity": 100}, {"time": 105480, "pitch": 56, "duration": 170, "velocity": 85}, {"time": 105480, "pitch": 68, "duration": 170, "velocity": 100}, {"time": 105720, "pitch": 56, "duration": 60, "velocity": 85}, {"time": 105720, "pitch": 68, "duration": 60, "velocity": 100}, {"time": 105840, "pitch": 53, "duration": 80, "velocity": 85}, {"time": 105840, "pitch": 65, "duration": 80, "velocity": 100}, {"time": 107040, "pitch": 53, "duration": 80, "velocity": 85}, {"time": 107040, "pitch": 65, "duration": 80, "velocity": 100}, {"time": 107160, "pitch": 55, "duration": 70, "velocity": 85}, {"time": 107160, "pitch": 67, "duration": 70, "velocity": 100}, {"time": 107280, "pitch": 56, "duration": 80, "velocity": 85}, {"time": 107280, "pitch": 68, "duration": 80, "velocity": 100}, {"time": 107400, "pitch": 55, "duration": 210, "velocity": 85}, {"time": 107400, "pitch": 67, "duration": 210, "velocity": 100}, {"time": 107640, "pitch": 55, "duration": 70, "velocity": 85}, {"time": 107640, "pitch": 67, "duration": 70, "velocity": 100}, {"time": 107760, "pitch": 56, "duration": 80, "velocity": 85}, {"time": 107760, "pitch": 68, "duration": 80, "velocity": 100}, {"time": 107880, "pitch": 57, "duration": 90, "velocity": 85}, {"time": 107880, "pitch": 69, "duration": 90, "velocity": 100}, {"time": 108000, "pitch": 58, "duration": 80, "velocity": 85}, {"time": 108000, "pitch": 70, "duration": 80, "velocity": 100}, {"time": 108120, "pitch": 63, "duration": 250, "velocity": 85}, {"time": 108120, "pitch": 75, "duration": 250, "velocity": 100}, {"time": 108960, "pitch": 52, "duration": 80, "velocity": 85}, {"time": 108960, "pitch": 64, "duration": 80, "velocity": 100}, {"time": 109080, "pitch": 54, "duration": 70, "velocity": 85}, {"time": 109080, "pitch": 66, "duration": 70, "velocity": 100}, {"time": 109200, "pitch": 55, "duration": 80, "velocity": 85}, {"time": 109200, "pitch": 67, "duration": 80, "velocity": 100}, {"time": 109320, "pitch": 54, "duration": 210, "velocity": 85}, {"time": 109320, "pitch": 66, "duration": 210, "velocity": 100}, {"time": 109560, "pitch": 54, "duration": 70, "velocity": 85}, {"time": 109560, "pitch": 66, "duration": 70, "velocity": 100}, {"time": 109680, "pitch": 55, "duration": 80, "velocity": 85}, {"time": 109680, "pitch": 67, "duration": 80, "velocity": 100}, {"time": 109800, "pitch": 56, "duration": 90, "velocity": 85}, {"time": 109800, "pitch": 68, "duration": 90, "velocity": 100}, {"time": 109920, "pitch": 57, "duration": 80, "velocity": 85}, {"time": 109920, "pitch": 69, "duration": 80, "velocity": 100}, {"time": 110040, "pitch": 62, "duration": 250, "velocity": 85}, {"time": 110040, "pitch": 74, "duration": 250, "velocity": 100}, {"time": 110880, "pitch": 48, "duration": 80, "velocity": 85}, {"time": 110880, "pitch": 60, "duration": 80, "velocity": 100}, {"time": 111000, "pitch": 49, "duration": 70, "velocity": 85}, {"time": 111000, "pitch": 61, "duration": 70, "velocity": 100}, {"time": 111120, "pitch": 51, "duration": 80, "velocity": 85}, {"time": 111120, "pitch": 63, "duration": 80, "velocity": 100}, {"time": 111240, "pitch": 49, "duration": 210, "velocity": 85}, {"time": 111240, "pitch": 61, "duration": 210, "velocity": 100}, {"time": 111480, "pitch": 49, "duration": 70, "velocity": 85}, {"time": 111480, "pitch": 61, "duration": 70, "velocity": 100}, {"time": 111600, "pitch": 51, "duration": 80, "velocity": 85}, {"time": 111600, "pitch": 63, "duration": 80, "velocity": 100}, {"time": 111720, "pitch": 52, "duration": 90, "velocity": 85}, {"time": 111720, "pitch": 64, "duration": 90, "velocity": 100}, {"time": 111840, "pitch": 53, "duration": 80, "velocity": 85}, {"time": 111840, "pitch": 65, "duration": 80, "velocity": 100}, {"time": 111960, "pitch": 56, "duration": 250, "velocity": 85}, {"time": 111960, "pitch": 68, "duration": 250, "velocity": 100}, {"time": 112310, "pitch": 65, "duration": 10, "velocity": 84}, {"time": 112320, "pitch": 65, "duration": 1630, "velocity": 84}, {"time": 112360, "pitch": 67, "duration": 1610, "velocity": 100}, {"time": 112410, "pitch": 70, "duration": 1570, "velocity": 109}, {"time": 112460, "pitch": 74, "duration": 1570, "velocity": 116}, {"time": 114360, "pitch": 58, "duration": 100, "velocity": 100}, {"time": 114360, "pitch": 62, "duration": 110, "velocity": 100}, {"time": 114360, "pitch": 65, "duration": 110, "velocity": 100}, {"time": 114360, "pitch": 67, "duration": 110, "velocity": 100}, {"time": 114600, "pitch": 58, "duration": 70, "velocity": 100}, {"time": 114600, "pitch": 62, "duration": 60, "velocity": 100}, {"time": 114600, "pitch": 65, "duration": 70, "velocity": 100}, {"time": 114600, "pitch": 67, "duration": 60, "velocity": 100}, {"time": 114720, "pitch": 58, "duration": 60, "velocity": 100}, {"time": 114720, "pitch": 62, "duration": 50, "velocity": 100}, {"time": 114720, "pitch": 65, "duration": 50, "velocity": 100}, {"time": 114720, "pitch": 67, "duration": 40, "velocity": 100}, {"time": 114840, "pitch": 58, "duration": 80, "velocity": 100}, {"time": 114840, "pitch": 62, "duration": 80, "velocity": 100}, {"time": 114840, "pitch": 65, "duration": 90, "velocity": 100}, {"time": 114840, "pitch": 67, "duration": 100, "velocity": 100}, {"time": 115080, "pitch": 58, "duration": 60, "velocity": 100}, {"time": 115080, "pitch": 62, "duration": 50, "velocity": 100}, {"time": 115080, "pitch": 65, "duration": 60, "velocity": 100}, {"time": 115080, "pitch": 67, "duration": 60, "velocity": 100}, {"time": 115200, "pitch": 58, "duration": 70, "velocity": 100}, {"time": 115200, "pitch": 62, "duration": 60, "velocity": 100}, {"time": 115200, "pitch": 65, "duration": 70, "velocity": 100}, {"time": 115200, "pitch": 67, "duration": 60, "velocity": 100}, {"time": 115320, "pitch": 58, "duration": 70, "velocity": 100}, {"time": 115320, "pitch": 62, "duration": 60, "velocity": 100}, {"time": 115320, "pitch": 65, "duration": 80, "velocity": 100}, {"time": 115320, "pitch": 67, "duration": 90, "velocity": 100}, {"time": 115560, "pitch": 58, "duration": 70, "velocity": 100}, {"time": 115560, "pitch": 62, "duration": 70, "velocity": 100}, {"time": 115560, "pitch": 65, "duration": 60, "velocity": 100}, {"time": 115560, "pitch": 67, "duration": 60, "velocity": 100}, {"time": 115680, "pitch": 62, "duration": 110, "velocity": 100}, {"time": 115680, "pitch": 65, "duration": 120, "velocity": 100}, {"time": 115680, "pitch": 67, "duration": 120, "velocity": 100}, {"time": 115680, "pitch": 72, "duration": 130, "velocity": 100}, {"time": 115920, "pitch": 58, "duration": 170, "velocity": 100}, {"time": 115920, "pitch": 62, "duration": 170, "velocity": 100}, {"time": 115920, "pitch": 65, "duration": 180, "velocity": 100}, {"time": 115920, "pitch": 67, "duration": 170, "velocity": 100}, {"time": 131760, "pitch": 68, "duration": 50, "velocity": 99}, {"time": 131880, "pitch": 68, "duration": 60, "velocity": 79}, {"time": 132120, "pitch": 68, "duration": 60, "velocity": 99}, {"time": 132480, "pitch": 68, "duration": 60, "velocity": 93}, {"time": 132840, "pitch": 68, "duration": 70, "velocity": 93}, {"time": 133680, "pitch": 68, "duration": 50, "velocity": 99}, {"time": 133800, "pitch": 68, "duration": 70, "velocity": 83}, {"time": 134040, "pitch": 68, "duration": 60, "velocity": 106}, {"time": 134400, "pitch": 68, "duration": 60, "velocity": 93}, {"time": 134760, "pitch": 68, "duration": 70, "velocity": 99}, {"time": 135600, "pitch": 67, "duration": 50, "velocity": 102}, {"time": 135720, "pitch": 67, "duration": 70, "velocity": 87}, {"time": 135960, "pitch": 67, "duration": 70, "velocity": 106}, {"time": 136320, "pitch": 72, "duration": 90, "velocity": 102}, {"time": 136680, "pitch": 72, "duration": 80, "velocity": 106}, {"time": 137040, "pitch": 65, "duration": 50, "velocity": 106}, {"time": 137160, "pitch": 65, "duration": 60, "velocity": 96}, {"time": 137520, "pitch": 65, "duration": 50, "velocity": 99}, {"time": 137640, "pitch": 65, "duration": 60, "velocity": 99}, {"time": 137880, "pitch": 65, "duration": 60, "velocity": 115}, {"time": 138240, "pitch": 70, "duration": 50, "velocity": 106}, {"time": 138600, "pitch": 70, "duration": 60, "velocity": 106}, {"time": 139440, "pitch": 68, "duration": 50, "velocity": 99}, {"time": 139560, "pitch": 68, "duration": 60, "velocity": 79}, {"time": 139800, "pitch": 68, "duration": 60, "velocity": 99}, {"time": 140160, "pitch": 68, "duration": 60, "velocity": 93}, {"time": 140520, "pitch": 68, "duration": 70, "velocity": 93}, {"time": 141360, "pitch": 68, "duration": 50, "velocity": 99}, {"time": 141480, "pitch": 68, "duration": 70, "velocity": 83}, {"time": 141720, "pitch": 68, "duration": 60, "velocity": 106}, {"time": 142080, "pitch": 68, "duration": 60, "velocity": 93}, {"time": 142440, "pitch": 68, "duration": 70, "velocity": 99}, {"time": 143280, "pitch": 67, "duration": 50, "velocity": 102}, {"time": 143400, "pitch": 67, "duration": 70, "velocity": 87}, {"time": 143640, "pitch": 67, "duration": 70, "velocity": 106}, {"time": 144000, "pitch": 72, "duration": 90, "velocity": 102}, {"time": 144360, "pitch": 72, "duration": 80, "velocity": 106}, {"time": 144720, "pitch": 65, "duration": 50, "velocity": 106}, {"time": 144840, "pitch": 65, "duration": 60, "velocity": 96}, {"time": 145200, "pitch": 65, "duration": 50, "velocity": 99}, {"time": 145320, "pitch": 65, "duration": 60, "velocity": 99}, {"time": 145560, "pitch": 65, "duration": 60, "velocity": 115}, {"time": 145920, "pitch": 70, "duration": 50, "velocity": 106}, {"time": 146280, "pitch": 70, "duration": 60, "velocity": 106}, {"time": 153120, "pitch": 68, "duration": 390, "velocity": 110}, {"time": 153120, "pitch": 80, "duration": 430, "velocity": 110}, {"time": 153600, "pitch": 67, "duration": 490, "velocity": 110}, {"time": 153600, "pitch": 79, "duration": 540, "velocity": 110}, {"time": 154080, "pitch": 65, "duration": 430, "velocity": 110}, {"time": 154080, "pitch": 77, "duration": 430, "velocity": 110}, {"time": 154560, "pitch": 63, "duration": 1270, "velocity": 110}, {"time": 154560, "pitch": 75, "duration": 1270, "velocity": 110}, {"time": 160320, "pitch": 70, "duration": 240, "velocity": 100}, {"time": 161660, "pitch": 63, "duration": 80, "velocity": 100}, {"time": 161750, "pitch": 65, "duration": 70, "velocity": 100}, {"time": 161860, "pitch": 68, "duration": 110, "velocity": 100}, {"time": 161960, "pitch": 70, "duration": 110, "velocity": 100}, {"time": 162100, "pitch": 65, "duration": 140, "velocity": 100}, {"time": 162240, "pitch": 63, "duration": 240, "velocity": 100}, {"time": 162240, "pitch": 65, "duration": 10, "velocity": 100}, {"time": 163680, "pitch": 63, "duration": 120, "velocity": 100}, {"time": 163800, "pitch": 65, "duration": 110, "velocity": 100}, {"time": 163920, "pitch": 68, "duration": 100, "velocity": 100}, {"time": 164040, "pitch": 65, "duration": 100, "velocity": 100}, {"time": 164160, "pitch": 70, "duration": 420, "velocity": 100}, {"time": 164640, "pitch": 68, "duration": 420, "velocity": 100}, {"time": 165120, "pitch": 67, "duration": 290, "velocity": 100}, {"time": 165480, "pitch": 63, "duration": 90, "velocity": 100}, {"time": 165600, "pitch": 65, "duration": 110, "velocity": 100}, {"time": 165720, "pitch": 68, "duration": 120, "velocity": 100}, {"time": 165840, "pitch": 70, "duration": 120, "velocity": 100}, {"time": 165960, "pitch": 65, "duration": 110, "velocity": 100}, {"time": 166080, "pitch": 75, "duration": 80, "velocity": 100}, {"time": 166320, "pitch": 75, "duration": 430, "velocity": 100}, {"time": 166800, "pitch": 75, "duration": 1000, "velocity": 100}, {"time": 168480, "pitch": 56, "duration": 60, "velocity": 85}, {"time": 168480, "pitch": 68, "duration": 60, "velocity": 100}, {"time": 168600, "pitch": 51, "duration": 70, "velocity": 85}, {"time": 168600, "pitch": 63, "duration": 70, "velocity": 100}, {"time": 168720, "pitch": 53, "duration": 60, "velocity": 85}, {"time": 168720, "pitch": 65, "duration": 60, "velocity": 100}, {"time": 168840, "pitch": 56, "duration": 100, "velocity": 85}, {"time": 168840, "pitch": 68, "duration": 100, "velocity": 100}, {"time": 170400, "pitch": 60, "duration": 70, "velocity": 85}, {"time": 170400, "pitch": 72, "duration": 70, "velocity": 100}, {"time": 170520, "pitch": 56, "duration": 60, "velocity": 85}, {"time": 170520, "pitch": 68, "duration": 60, "velocity": 100}, {"time": 170640, "pitch": 58, "duration": 80, "velocity": 85}, {"time": 170640, "pitch": 70, "duration": 80, "velocity": 100}, {"time": 170760, "pitch": 56, "duration": 180, "velocity": 85}, {"time": 170760, "pitch": 68, "duration": 180, "velocity": 100}, {"time": 171000, "pitch": 56, "duration": 70, "velocity": 85}, {"time": 171000, "pitch": 68, "duration": 70, "velocity": 100}, {"time": 171120, "pitch": 51, "duration": 90, "velocity": 85}, {"time": 171120, "pitch": 63, "duration": 90, "velocity": 100}, {"time": 171360, "pitch": 53, "duration": 190, "velocity": 85}, {"time": 171360, "pitch": 65, "duration": 190, "velocity": 100}, {"time": 171600, "pitch": 56, "duration": 70, "velocity": 85}, {"time": 171600, "pitch": 68, "duration": 70, "velocity": 100}, {"time": 172320, "pitch": 56, "duration": 70, "velocity": 85}, {"time": 172320, "pitch": 68, "duration": 70, "velocity": 100}, {"time": 172440, "pitch": 51, "duration": 60, "velocity": 85}, {"time": 172440, "pitch": 63, "duration": 60, "velocity": 100}, {"time": 172560, "pitch": 53, "duration": 60, "velocity": 85}, {"time": 172560, "pitch": 65, "duration": 60, "velocity": 100}, {"time": 172680, "pitch": 56, "duration": 160, "velocity": 85}, {"time": 172680, "pitch": 68, "duration": 160, "velocity": 100}, {"time": 172920, "pitch": 56, "duration": 60, "velocity": 85}, {"time": 172920, "pitch": 68, "duration": 60, "velocity": 100}, {"time": 173040, "pitch": 53, "duration": 90, "velocity": 85}, {"time": 173040, "pitch": 65, "duration": 90, "velocity": 100}, {"time": 174240, "pitch": 51, "duration": 80, "velocity": 85}, {"time": 174240, "pitch": 63, "duration": 90, "velocity": 100}, {"time": 174480, "pitch": 53, "duration": 110, "velocity": 85}, {"time": 174480, "pitch": 65, "duration": 120, "velocity": 100}, {"time": 174720, "pitch": 55, "duration": 70, "velocity": 100}, {"time": 174720, "pitch": 67, "duration": 70, "velocity": 100}, {"time": 174960, "pitch": 56, "duration": 70, "velocity": 100}, {"time": 174960, "pitch": 68, "duration": 70, "velocity": 100}, {"time": 175200, "pitch": 58, "duration": 50, "velocity": 100}, {"time": 175200, "pitch": 70, "duration": 50, "velocity": 100}, {"time": 175320, "pitch": 63, "duration": 300, "velocity": 100}, {"time": 175320, "pitch": 75, "duration": 300, "velocity": 100}, {"time": 176160, "pitch": 56, "duration": 60, "velocity": 85}, {"time": 176160, "pitch": 68, "duration": 60, "velocity": 100}, {"time": 176280, "pitch": 51, "duration": 70, "velocity": 85}, {"time": 176280, "pitch": 63, "duration": 70, "velocity": 100}, {"time": 176400, "pitch": 53, "duration": 60, "velocity": 85}, {"time": 176400, "pitch": 65, "duration": 60, "velocity": 100}, {"time": 176520, "pitch": 56, "duration": 120, "velocity": 85}, {"time": 176520, "pitch": 68, "duration": 120, "velocity": 100}, {"time": 178080, "pitch": 60, "duration": 80, "velocity": 85}, {"time": 178080, "pitch": 72, "duration": 80, "velocity": 100}, {"time": 178200, "pitch": 56, "duration": 60, "velocity": 85}, {"time": 178200, "pitch": 68, "duration": 60, "velocity": 100}, {"time": 178320, "pitch": 58, "duration": 80, "velocity": 85}, {"time": 178320, "pitch": 70, "duration": 80, "velocity": 100}, {"time": 178440, "pitch": 56, "duration": 190, "velocity": 85}, {"time": 178440, "pitch": 68, "duration": 190, "velocity": 100}, {"time": 178680, "pitch": 56, "duration": 80, "velocity": 85}, {"time": 178680, "pitch": 68, "duration": 80, "velocity": 100}, {"time": 178800, "pitch": 51, "duration": 90, "velocity": 85}, {"time": 178800, "pitch": 63, "duration": 90, "velocity": 100}, {"time": 179040, "pitch": 53, "duration": 190, "velocity": 85}, {"time": 179040, "pitch": 65, "duration": 190, "velocity": 100}, {"time": 179280, "pitch": 56, "duration": 80, "velocity": 85}, {"time": 179280, "pitch": 68, "duration": 80, "velocity": 100}, {"time": 180000, "pitch": 56, "duration": 70, "velocity": 85}, {"time": 180000, "pitch": 68, "duration": 70, "velocity": 100}, {"time": 180120, "pitch": 51, "duration": 60, "velocity": 85}, {"time": 180120, "pitch": 63, "duration": 60, "velocity": 100}, {"time": 180240, "pitch": 53, "duration": 70, "velocity": 85}, {"time": 180240, "pitch": 65, "duration": 70, "velocity": 100}, {"time": 180360, "pitch": 56, "duration": 170, "velocity": 85}, {"time": 180360, "pitch": 68, "duration": 170, "velocity": 100}, {"time": 180600, "pitch": 56, "duration": 60, "velocity": 85}, {"time": 180600, "pitch": 68, "duration": 60, "velocity": 100}, {"time": 180720, "pitch": 53, "duration": 80, "velocity": 85}, {"time": 180720, "pitch": 65, "duration": 80, "velocity": 100}, {"time": 181920, "pitch": 53, "duration": 80, "velocity": 85}, {"time": 181920, "pitch": 65, "duration": 80, "velocity": 100}, {"time": 182040, "pitch": 55, "duration": 70, "velocity": 85}, {"time": 182040, "pitch": 67, "duration": 70, "velocity": 100}, {"time": 182160, "pitch": 56, "duration": 80, "velocity": 85}, {"time": 182160, "pitch": 68, "duration": 80, "velocity": 100}, {"time": 182280, "pitch": 55, "duration": 210, "velocity": 85}, {"time": 182280, "pitch": 67, "duration": 210, "velocity": 100}, {"time": 182520, "pitch": 55, "duration": 70, "velocity": 85}, {"time": 182520, "pitch": 67, "duration": 70, "velocity": 100}, {"time": 182640, "pitch": 56, "duration": 80, "velocity": 85}, {"time": 182640, "pitch": 68, "duration": 80, "velocity": 100}, {"time": 182760, "pitch": 57, "duration": 90, "velocity": 85}, {"time": 182760, "pitch": 69, "duration": 90, "velocity": 100}, {"time": 182880, "pitch": 58, "duration": 80, "velocity": 85}, {"time": 182880, "pitch": 70, "duration": 80, "velocity": 100}, {"time": 183000, "pitch": 63, "duration": 250, "velocity": 85}, {"time": 183000, "pitch": 75, "duration": 250, "velocity": 100}, {"time": 183840, "pitch": 58, "duration": 60, "velocity": 85}, {"time": 183840, "pitch": 70, "duration": 60, "velocity": 100}, {"time": 183960, "pitch": 53, "duration": 70, "velocity": 85}, {"time": 183960, "pitch": 65, "duration": 70, "velocity": 100}, {"time": 184080, "pitch": 55, "duration": 60, "velocity": 85}, {"time": 184080, "pitch": 67, "duration": 60, "velocity": 100}, {"time": 184200, "pitch": 58, "duration": 100, "velocity": 85}, {"time": 184200, "pitch": 70, "duration": 100, "velocity": 100}, {"time": 185760, "pitch": 62, "duration": 70, "velocity": 85}, {"time": 185760, "pitch": 74, "duration": 70, "velocity": 100}, {"time": 185880, "pitch": 58, "duration": 60, "velocity": 85}, {"time": 185880, "pitch": 70, "duration": 60, "velocity": 100}, {"time": 186000, "pitch": 60, "duration": 80, "velocity": 85}, {"time": 186000, "pitch": 72, "duration": 80, "velocity": 100}, {"time": 186120, "pitch": 58, "duration": 180, "velocity": 85}, {"time": 186120, "pitch": 70, "duration": 180, "velocity": 100}, {"time": 186360, "pitch": 58, "duration": 70, "velocity": 85}, {"time": 186360, "pitch": 70, "duration": 70, "velocity": 100}, {"time": 186480, "pitch": 53, "duration": 90, "velocity": 85}, {"time": 186480, "pitch": 65, "duration": 90, "velocity": 100}, {"time": 186720, "pitch": 55, "duration": 190, "velocity": 85}, {"time": 186720, "pitch": 67, "duration": 190, "velocity": 100}, {"time": 186960, "pitch": 58, "duration": 70, "velocity": 85}, {"time": 186960, "pitch": 70, "duration": 70, "velocity": 100}, {"time": 187680, "pitch": 58, "duration": 70, "velocity": 85}, {"time": 187680, "pitch": 70, "duration": 70, "velocity": 100}, {"time": 187800, "pitch": 53, "duration": 60, "velocity": 85}, {"time": 187800, "pitch": 65, "duration": 60, "velocity": 100}, {"time": 187920, "pitch": 55, "duration": 60, "velocity": 85}, {"time": 187920, "pitch": 67, "duration": 60, "velocity": 100}, {"time": 188040, "pitch": 58, "duration": 160, "velocity": 85}, {"time": 188040, "pitch": 70, "duration": 160, "velocity": 100}, {"time": 188280, "pitch": 58, "duration": 60, "velocity": 85}, {"time": 188280, "pitch": 70, "duration": 60, "velocity": 100}, {"time": 188400, "pitch": 55, "duration": 90, "velocity": 85}, {"time": 188400, "pitch": 67, "duration": 90, "velocity": 100}, {"time": 189600, "pitch": 53, "duration": 80, "velocity": 85}, {"time": 189600, "pitch": 65, "duration": 90, "velocity": 100}, {"time": 189840, "pitch": 55, "duration": 110, "velocity": 85}, {"time": 189840, "pitch": 67, "duration": 120, "velocity": 100}, {"time": 190080, "pitch": 57, "duration": 70, "velocity": 100}, {"time": 190080, "pitch": 69, "duration": 70, "velocity": 100}, {"time": 190320, "pitch": 58, "duration": 70, "velocity": 100}, {"time": 190320, "pitch": 70, "duration": 70, "velocity": 100}, {"time": 190560, "pitch": 60, "duration": 50, "velocity": 100}, {"time": 190560, "pitch": 72, "duration": 50, "velocity": 100}, {"time": 190680, "pitch": 65, "duration": 300, "velocity": 100}, {"time": 190680, "pitch": 77, "duration": 300, "velocity": 100}, {"time": 191520, "pitch": 58, "duration": 60, "velocity": 85}, {"time": 191520, "pitch": 70, "duration": 60, "velocity": 100}, {"time": 191640, "pitch": 53, "duration": 70, "velocity": 85}, {"time": 191640, "pitch": 65, "duration": 70, "velocity": 100}, {"time": 191760, "pitch": 55, "duration": 60, "velocity": 85}, {"time": 191760, "pitch": 67, "duration": 60, "velocity": 100}, {"time": 191880, "pitch": 58, "duration": 120, "velocity": 85}, {"time": 191880, "pitch": 70, "duration": 120, "velocity": 100}, {"time": 193440, "pitch": 62, "duration": 80, "velocity": 85}, {"time": 193440, "pitch": 74, "duration": 80, "velocity": 100}, {"time": 193560, "pitch": 58, "duration": 60, "velocity": 85}, {"time": 193560, "pitch": 70, "duration": 60, "velocity": 100}, {"time": 193680, "pitch": 60, "duration": 80, "velocity": 85}, {"time": 193680, "pitch": 72, "duration": 80, "velocity": 100}, {"time": 193800, "pitch": 58, "duration": 190, "velocity": 85}, {"time": 193800, "pitch": 70, "duration": 190, "velocity": 100}, {"time": 194040, "pitch": 58, "duration": 80, "velocity": 85}, {"time": 194040, "pitch": 70, "duration": 80, "velocity": 100}, {"time": 194160, "pitch": 53, "duration": 90, "velocity": 85}, {"time": 194160, "pitch": 65, "duration": 90, "velocity": 100}, {"time": 194400, "pitch": 55, "duration": 190, "velocity": 85}, {"time": 194400, "pitch": 67, "duration": 190, "velocity": 100}, {"time": 194640, "pitch": 58, "duration": 80, "velocity": 85}, {"time": 194640, "pitch": 70, "duration": 80, "velocity": 100}, {"time": 195360, "pitch": 58, "duration": 70, "velocity": 85}, {"time": 195360, "pitch": 70, "duration": 70, "velocity": 100}, {"time": 195480, "pitch": 53, "duration": 60, "velocity": 85}, {"time": 195480, "pitch": 65, "duration": 60, "velocity": 100}, {"time": 195600, "pitch": 55, "duration": 70, "velocity": 85}, {"time": 195600, "pitch": 67, "duration": 70, "velocity": 100}, {"time": 195720, "pitch": 58, "duration": 170, "velocity": 85}, {"time": 195720, "pitch": 70, "duration": 170, "velocity": 100}, {"time": 195960, "pitch": 58, "duration": 60, "velocity": 85}, {"time": 195960, "pitch": 70, "duration": 60, "velocity": 100}, {"time": 196080, "pitch": 55, "duration": 80, "velocity": 85}, {"time": 196080, "pitch": 67, "duration": 80, "velocity": 100}, {"time": 197280, "pitch": 55, "duration": 80, "velocity": 85}, {"time": 197280, "pitch": 67, "duration": 80, "velocity": 100}, {"time": 197400, "pitch": 57, "duration": 70, "velocity": 85}, {"time": 197400, "pitch": 69, "duration": 70, "velocity": 100}, {"time": 197520, "pitch": 58, "duration": 80, "velocity": 85}, {"time": 197520, "pitch": 70, "duration": 80, "velocity": 100}, {"time": 197640, "pitch": 57, "duration": 210, "velocity": 85}, {"time": 197640, "pitch": 69, "duration": 210, "velocity": 100}, {"time": 197880, "pitch": 57, "duration": 70, "velocity": 85}, {"time": 197880, "pitch": 69, "duration": 70, "velocity": 100}, {"time": 198000, "pitch": 58, "duration": 80, "velocity": 85}, {"time": 198000, "pitch": 70, "duration": 80, "velocity": 100}, {"time": 198120, "pitch": 59, "duration": 90, "velocity": 85}, {"time": 198120, "pitch": 71, "duration": 90, "velocity": 100}, {"time": 198240, "pitch": 60, "duration": 80, "velocity": 85}, {"time": 198240, "pitch": 72, "duration": 80, "velocity": 100}, {"time": 198360, "pitch": 65, "duration": 250, "velocity": 85}, {"time": 198360, "pitch": 77, "duration": 250, "velocity": 100}, {"time": 198720, "pitch": 62, "duration": 60, "velocity": 100}, {"time": 198720, "pitch": 70, "duration": 60, "velocity": 100}, {"time": 198840, "pitch": 62, "duration": 50, "velocity": 100}, {"time": 198840, "pitch": 70, "duration": 50, "velocity": 100}, {"time": 198960, "pitch": 62, "duration": 50, "velocity": 100}, {"time": 198960, "pitch": 70, "duration": 50, "velocity": 100}, {"time": 199080, "pitch": 62, "duration": 50, "velocity": 100}, {"time": 199080, "pitch": 70, "duration": 40, "velocity": 100}, {"time": 199200, "pitch": 62, "duration": 100, "velocity": 100}, {"time": 199200, "pitch": 70, "duration": 100, "velocity": 100}, {"time": 200640, "pitch": 63, "duration": 50, "velocity": 100}, {"time": 200640, "pitch": 70, "duration": 50, "velocity": 100}, {"time": 200760, "pitch": 63, "duration": 50, "velocity": 100}, {"time": 200760, "pitch": 70, "duration": 40, "velocity": 100}, {"time": 200880, "pitch": 63, "duration": 50, "velocity": 100}, {"time": 200880, "pitch": 70, "duration": 40, "velocity": 100}, {"time": 201000, "pitch": 63, "duration": 40, "velocity": 100}, {"time": 201000, "pitch": 70, "duration": 40, "velocity": 100}, {"time": 201120, "pitch": 63, "duration": 70, "velocity": 100}, {"time": 201120, "pitch": 70, "duration": 80, "velocity": 100}, {"time": 202560, "pitch": 64, "duration": 50, "velocity": 100}, {"time": 202560, "pitch": 71, "duration": 50, "velocity": 100}, {"time": 202680, "pitch": 64, "duration": 40, "velocity": 100}, {"time": 202680, "pitch": 71, "duration": 40, "velocity": 100}, {"time": 202800, "pitch": 64, "duration": 50, "velocity": 100}, {"time": 202800, "pitch": 71, "duration": 50, "velocity": 100}, {"time": 202920, "pitch": 64, "duration": 50, "velocity": 100}, {"time": 202920, "pitch": 71, "duration": 50, "velocity": 100}, {"time": 203040, "pitch": 64, "duration": 80, "velocity": 100}, {"time": 203040, "pitch": 71, "duration": 90, "velocity": 100}, {"time": 204480, "pitch": 62, "duration": 50, "velocity": 100}, {"time": 204480, "pitch": 69, "duration": 50, "velocity": 100}, {"time": 204600, "pitch": 62, "duration": 50, "velocity": 100}, {"time": 204600, "pitch": 69, "duration": 40, "velocity": 100}, {"time": 204720, "pitch": 62, "duration": 50, "velocity": 100}, {"time": 204720, "pitch": 69, "duration": 50, "velocity": 100}, {"time": 204840, "pitch": 62, "duration": 50, "velocity": 100}, {"time": 204840, "pitch": 69, "duration": 50, "velocity": 100}, {"time": 204960, "pitch": 62, "duration": 80, "velocity": 100}, {"time": 204960, "pitch": 69, "duration": 90, "velocity": 100}, {"time": 206400, "pitch": 62, "duration": 60, "velocity": 100}, {"time": 206400, "pitch": 70, "duration": 60, "velocity": 100}, {"time": 206520, "pitch": 62, "duration": 50, "velocity": 100}, {"time": 206520, "pitch": 70, "duration": 50, "velocity": 100}, {"time": 206640, "pitch": 62, "duration": 50, "velocity": 100}, {"time": 206640, "pitch": 70, "duration": 50, "velocity": 100}, {"time": 206760, "pitch": 62, "duration": 50, "velocity": 100}, {"time": 206760, "pitch": 70, "duration": 40, "velocity": 100}, {"time": 206880, "pitch": 62, "duration": 100, "velocity": 100}, {"time": 206880, "pitch": 70, "duration": 100, "velocity": 100}, {"time": 208320, "pitch": 63, "duration": 50, "velocity": 100}, {"time": 208320, "pitch": 70, "duration": 50, "velocity": 100}, {"time": 208440, "pitch": 63, "duration": 50, "velocity": 100}, {"time": 208440, "pitch": 70, "duration": 40, "velocity": 100}, {"time": 208560, "pitch": 63, "duration": 50, "velocity": 100}, {"time": 208560, "pitch": 70, "duration": 40, "velocity": 100}, {"time": 208680, "pitch": 63, "duration": 40, "velocity": 100}, {"time": 208680, "pitch": 70, "duration": 40, "velocity": 100}, {"time": 208800, "pitch": 63, "duration": 70, "velocity": 100}, {"time": 208800, "pitch": 70, "duration": 80, "velocity": 100}, {"time": 210240, "pitch": 64, "duration": 50, "velocity": 100}, {"time": 210240, "pitch": 71, "duration": 50, "velocity": 100}, {"time": 210360, "pitch": 64, "duration": 40, "velocity": 100}, {"time": 210360, "pitch": 71, "duration": 40, "velocity": 100}, {"time": 210480, "pitch": 64, "duration": 50, "velocity": 100}, {"time": 210480, "pitch": 71, "duration": 50, "velocity": 100}, {"time": 210600, "pitch": 64, "duration": 50, "velocity": 100}, {"time": 210600, "pitch": 71, "duration": 50, "velocity": 100}, {"time": 210720, "pitch": 64, "duration": 80, "velocity": 100}, {"time": 210720, "pitch": 71, "duration": 90, "velocity": 100}, {"time": 212160, "pitch": 62, "duration": 50, "velocity": 100}, {"time": 212160, "pitch": 69, "duration": 50, "velocity": 100}, {"time": 212280, "pitch": 62, "duration": 50, "velocity": 100}, {"time": 212280, "pitch": 69, "duration": 40, "velocity": 100}, {"time": 212400, "pitch": 62, "duration": 50, "velocity": 100}, {"time": 212400, "pitch": 69, "duration": 50, "velocity": 100}, {"time": 212520, "pitch": 62, "duration": 50, "velocity": 100}, {"time": 212520, "pitch": 69, "duration": 50, "velocity": 100}, {"time": 212640, "pitch": 62, "duration": 80, "velocity": 100}, {"time": 212640, "pitch": 69, "duration": 90, "velocity": 100}, {"time": 7920, "pitch": 72, "duration": 220, "velocity": 110}, {"time": 8160, "pitch": 75, "duration": 220, "velocity": 110}, {"time": 8400, "pitch": 72, "duration": 220, "velocity": 110}, {"time": 8640, "pitch": 77, "duration": 650, "velocity": 110}, {"time": 9360, "pitch": 75, "duration": 60, "velocity": 110}, {"time": 9480, "pitch": 75, "duration": 770, "velocity": 110}, {"time": 10320, "pitch": 72, "duration": 200, "velocity": 110}, {"time": 10560, "pitch": 77, "duration": 200, "velocity": 110}, {"time": 10800, "pitch": 75, "duration": 60, "velocity": 110}, {"time": 10920, "pitch": 75, "duration": 350, "velocity": 110}, {"time": 11280, "pitch": 72, "duration": 120, "velocity": 110}, {"time": 11400, "pitch": 77, "duration": 350, "velocity": 110}, {"time": 11760, "pitch": 75, "duration": 170, "velocity": 110}, {"time": 12000, "pitch": 75, "duration": 220, "velocity": 110}, {"time": 12240, "pitch": 72, "duration": 220, "velocity": 110}, {"time": 12480, "pitch": 70, "duration": 230, "velocity": 110}, {"time": 12720, "pitch": 68, "duration": 130, "velocity": 110}, {"time": 12840, "pitch": 65, "duration": 420, "velocity": 110}, {"time": 13680, "pitch": 72, "duration": 210, "velocity": 110}, {"time": 13920, "pitch": 75, "duration": 180, "velocity": 110}, {"time": 14160, "pitch": 77, "duration": 460, "velocity": 110}, {"time": 14640, "pitch": 75, "duration": 220, "velocity": 110}, {"time": 14880, "pitch": 72, "duration": 250, "velocity": 110}, {"time": 15120, "pitch": 70, "duration": 430, "velocity": 110}, {"time": 15600, "pitch": 72, "duration": 220, "velocity": 110}, {"time": 15840, "pitch": 75, "duration": 240, "velocity": 110}, {"time": 16080, "pitch": 72, "duration": 230, "velocity": 110}, {"time": 16320, "pitch": 77, "duration": 700, "velocity": 110}, {"time": 17040, "pitch": 75, "duration": 60, "velocity": 110}, {"time": 17160, "pitch": 75, "duration": 800, "velocity": 110}, {"time": 18000, "pitch": 72, "duration": 250, "velocity": 110}, {"time": 18240, "pitch": 77, "duration": 240, "velocity": 110}, {"time": 18480, "pitch": 75, "duration": 60, "velocity": 110}, {"time": 18600, "pitch": 75, "duration": 340, "velocity": 110}, {"time": 18960, "pitch": 72, "duration": 90, "velocity": 110}, {"time": 19080, "pitch": 77, "duration": 370, "velocity": 110}, {"time": 19440, "pitch": 75, "duration": 170, "velocity": 110}, {"time": 19680, "pitch": 75, "duration": 220, "velocity": 110}, {"time": 19920, "pitch": 72, "duration": 240, "velocity": 110}, {"time": 20160, "pitch": 70, "duration": 240, "velocity": 110}, {"time": 20400, "pitch": 68, "duration": 120, "velocity": 110}, {"time": 20520, "pitch": 65, "duration": 560, "velocity": 110}, {"time": 21360, "pitch": 72, "duration": 230, "velocity": 110}, {"time": 21600, "pitch": 75, "duration": 120, "velocity": 110}, {"time": 21840, "pitch": 77, "duration": 450, "velocity": 110}, {"time": 22320, "pitch": 75, "duration": 220, "velocity": 110}, {"time": 22560, "pitch": 77, "duration": 220, "velocity": 110}, {"time": 22800, "pitch": 75, "duration": 1070, "velocity": 110}, {"time": 31200, "pitch": 68, "duration": 170, "velocity": 110}, {"time": 31440, "pitch": 70, "duration": 180, "velocity": 110}, {"time": 31680, "pitch": 72, "duration": 140, "velocity": 110}, {"time": 31920, "pitch": 70, "duration": 120, "velocity": 110}, {"time": 32160, "pitch": 68, "duration": 180, "velocity": 110}, {"time": 32400, "pitch": 65, "duration": 110, "velocity": 110}, {"time": 32520, "pitch": 68, "duration": 490, "velocity": 110}, {"time": 33120, "pitch": 68, "duration": 170, "velocity": 110}, {"time": 33360, "pitch": 70, "duration": 170, "velocity": 110}, {"time": 33600, "pitch": 72, "duration": 130, "velocity": 110}, {"time": 33840, "pitch": 70, "duration": 110, "velocity": 110}, {"time": 34080, "pitch": 68, "duration": 190, "velocity": 110}, {"time": 34320, "pitch": 65, "duration": 80, "velocity": 110}, {"time": 34440, "pitch": 68, "duration": 470, "velocity": 110}, {"time": 35040, "pitch": 68, "duration": 180, "velocity": 110}, {"time": 35280, "pitch": 70, "duration": 180, "velocity": 110}, {"time": 35520, "pitch": 72, "duration": 180, "velocity": 110}, {"time": 35760, "pitch": 75, "duration": 150, "velocity": 110}, {"time": 36000, "pitch": 75, "duration": 190, "velocity": 110}, {"time": 36240, "pitch": 72, "duration": 100, "velocity": 110}, {"time": 36360, "pitch": 77, "duration": 290, "velocity": 110}, {"time": 36720, "pitch": 75, "duration": 190, "velocity": 110}, {"time": 36960, "pitch": 72, "duration": 70, "velocity": 110}, {"time": 37080, "pitch": 70, "duration": 120, "velocity": 110}, {"time": 37200, "pitch": 68, "duration": 100, "velocity": 110}, {"time": 37320, "pitch": 70, "duration": 910, "velocity": 110}, {"time": 38880, "pitch": 68, "duration": 180, "velocity": 110}, {"time": 39120, "pitch": 70, "duration": 170, "velocity": 110}, {"time": 39360, "pitch": 72, "duration": 160, "velocity": 110}, {"time": 39600, "pitch": 70, "duration": 120, "velocity": 110}, {"time": 39840, "pitch": 68, "duration": 210, "velocity": 110}, {"time": 40080, "pitch": 65, "duration": 70, "velocity": 110}, {"time": 40200, "pitch": 68, "duration": 460, "velocity": 110}, {"time": 40800, "pitch": 68, "duration": 190, "velocity": 110}, {"time": 41040, "pitch": 70, "duration": 180, "velocity": 110}, {"time": 41280, "pitch": 72, "duration": 180, "velocity": 110}, {"time": 41520, "pitch": 70, "duration": 170, "velocity": 110}, {"time": 41760, "pitch": 68, "duration": 210, "velocity": 110}, {"time": 42000, "pitch": 65, "duration": 90, "velocity": 110}, {"time": 42120, "pitch": 68, "duration": 490, "velocity": 110}, {"time": 42720, "pitch": 68, "duration": 180, "velocity": 110}, {"time": 42960, "pitch": 70, "duration": 190, "velocity": 110}, {"time": 43200, "pitch": 72, "duration": 170, "velocity": 110}, {"time": 43440, "pitch": 75, "duration": 170, "velocity": 110}, {"time": 43680, "pitch": 75, "duration": 210, "velocity": 110}, {"time": 43920, "pitch": 72, "duration": 80, "velocity": 110}, {"time": 44040, "pitch": 77, "duration": 280, "velocity": 110}, {"time": 44400, "pitch": 75, "duration": 190, "velocity": 110}, {"time": 44640, "pitch": 72, "duration": 100, "velocity": 110}, {"time": 44760, "pitch": 70, "duration": 100, "velocity": 110}, {"time": 44880, "pitch": 68, "duration": 100, "velocity": 110}, {"time": 45000, "pitch": 70, "duration": 950, "velocity": 110}, {"time": 46560, "pitch": 68, "duration": 170, "velocity": 110}, {"time": 46800, "pitch": 70, "duration": 190, "velocity": 110}, {"time": 47040, "pitch": 72, "duration": 180, "velocity": 110}, {"time": 47280, "pitch": 75, "duration": 140, "velocity": 110}, {"time": 47520, "pitch": 75, "duration": 210, "velocity": 110}, {"time": 47760, "pitch": 72, "duration": 100, "velocity": 110}, {"time": 47880, "pitch": 75, "duration": 130, "velocity": 110}, {"time": 48120, "pitch": 75, "duration": 240, "velocity": 110}, {"time": 48360, "pitch": 72, "duration": 100, "velocity": 110}, {"time": 48480, "pitch": 75, "duration": 200, "velocity": 110}, {"time": 48720, "pitch": 77, "duration": 200, "velocity": 110}, {"time": 48960, "pitch": 72, "duration": 210, "velocity": 110}, {"time": 49200, "pitch": 70, "duration": 200, "velocity": 110}, {"time": 49440, "pitch": 68, "duration": 230, "velocity": 110}, {"time": 49680, "pitch": 65, "duration": 100, "velocity": 110}, {"time": 49800, "pitch": 68, "duration": 480, "velocity": 110}, {"time": 50400, "pitch": 68, "duration": 270, "velocity": 110}, {"time": 50640, "pitch": 70, "duration": 210, "velocity": 110}, {"time": 50880, "pitch": 72, "duration": 220, "velocity": 110}, {"time": 51120, "pitch": 75, "duration": 170, "velocity": 110}, {"time": 51360, "pitch": 75, "duration": 230, "velocity": 110}, {"time": 51600, "pitch": 72, "duration": 140, "velocity": 110}, {"time": 51720, "pitch": 75, "duration": 150, "velocity": 110}, {"time": 51960, "pitch": 75, "duration": 240, "velocity": 110}, {"time": 52200, "pitch": 72, "duration": 140, "velocity": 110}, {"time": 52320, "pitch": 75, "duration": 270, "velocity": 110}, {"time": 52560, "pitch": 77, "duration": 200, "velocity": 110}, {"time": 52800, "pitch": 72, "duration": 850, "velocity": 110}, {"time": 53760, "pitch": 70, "duration": 400, "velocity": 110}, {"time": 54240, "pitch": 68, "duration": 380, "velocity": 110}, {"time": 54720, "pitch": 72, "duration": 240, "velocity": 110}, {"time": 54960, "pitch": 75, "duration": 130, "velocity": 110}, {"time": 55200, "pitch": 75, "duration": 210, "velocity": 110}, {"time": 55440, "pitch": 72, "duration": 130, "velocity": 110}, {"time": 55560, "pitch": 75, "duration": 140, "velocity": 110}, {"time": 55800, "pitch": 75, "duration": 250, "velocity": 110}, {"time": 56040, "pitch": 72, "duration": 130, "velocity": 110}, {"time": 56160, "pitch": 75, "duration": 240, "velocity": 110}, {"time": 56400, "pitch": 77, "duration": 200, "velocity": 110}, {"time": 56640, "pitch": 80, "duration": 450, "velocity": 110}, {"time": 57120, "pitch": 77, "duration": 450, "velocity": 110}, {"time": 57600, "pitch": 75, "duration": 230, "velocity": 110}, {"time": 57840, "pitch": 72, "duration": 220, "velocity": 110}, {"time": 58080, "pitch": 70, "duration": 240, "velocity": 110}, {"time": 58320, "pitch": 68, "duration": 220, "velocity": 110}, {"time": 58800, "pitch": 77, "duration": 220, "velocity": 110}, {"time": 59040, "pitch": 75, "duration": 200, "velocity": 110}, {"time": 59520, "pitch": 77, "duration": 210, "velocity": 110}, {"time": 59760, "pitch": 75, "duration": 230, "velocity": 110}, {"time": 60240, "pitch": 77, "duration": 460, "velocity": 110}, {"time": 60720, "pitch": 75, "duration": 220, "velocity": 110}, {"time": 60960, "pitch": 72, "duration": 220, "velocity": 110}, {"time": 61200, "pitch": 70, "duration": 680, "velocity": 110}, {"time": 61920, "pitch": 68, "duration": 220, "velocity": 110}, {"time": 62160, "pitch": 70, "duration": 220, "velocity": 110}, {"time": 62400, "pitch": 72, "duration": 140, "velocity": 110}, {"time": 62640, "pitch": 70, "duration": 120, "velocity": 110}, {"time": 62880, "pitch": 68, "duration": 180, "velocity": 110}, {"time": 63120, "pitch": 65, "duration": 110, "velocity": 110}, {"time": 63240, "pitch": 68, "duration": 490, "velocity": 110}, {"time": 63840, "pitch": 68, "duration": 170, "velocity": 110}, {"time": 64080, "pitch": 70, "duration": 170, "velocity": 110}, {"time": 64320, "pitch": 72, "duration": 130, "velocity": 110}, {"time": 64560, "pitch": 70, "duration": 110, "velocity": 110}, {"time": 64800, "pitch": 68, "duration": 190, "velocity": 110}, {"time": 65040, "pitch": 65, "duration": 80, "velocity": 110}, {"time": 65160, "pitch": 68, "duration": 470, "velocity": 110}, {"time": 65760, "pitch": 68, "duration": 180, "velocity": 110}, {"time": 66000, "pitch": 70, "duration": 180, "velocity": 110}, {"time": 66240, "pitch": 72, "duration": 180, "velocity": 110}, {"time": 66480, "pitch": 75, "duration": 150, "velocity": 110}, {"time": 66720, "pitch": 75, "duration": 190, "velocity": 110}, {"time": 66960, "pitch": 72, "duration": 100, "velocity": 110}, {"time": 67080, "pitch": 77, "duration": 290, "velocity": 110}, {"time": 67440, "pitch": 75, "duration": 190, "velocity": 110}, {"time": 67680, "pitch": 72, "duration": 70, "velocity": 110}, {"time": 67800, "pitch": 70, "duration": 120, "velocity": 110}, {"time": 67920, "pitch": 68, "duration": 100, "velocity": 110}, {"time": 68040, "pitch": 70, "duration": 910, "velocity": 110}, {"time": 69600, "pitch": 68, "duration": 180, "velocity": 110}, {"time": 69840, "pitch": 70, "duration": 170, "velocity": 110}, {"time": 70080, "pitch": 72, "duration": 160, "velocity": 110}, {"time": 70320, "pitch": 70, "duration": 120, "velocity": 110}, {"time": 70560, "pitch": 68, "duration": 210, "velocity": 110}, {"time": 70800, "pitch": 65, "duration": 70, "velocity": 110}, {"time": 70920, "pitch": 68, "duration": 460, "velocity": 110}, {"time": 71520, "pitch": 68, "duration": 190, "velocity": 110}, {"time": 71760, "pitch": 70, "duration": 180, "velocity": 110}, {"time": 72000, "pitch": 72, "duration": 180, "velocity": 110}, {"time": 72240, "pitch": 70, "duration": 170, "velocity": 110}, {"time": 72480, "pitch": 68, "duration": 210, "velocity": 110}, {"time": 72720, "pitch": 65, "duration": 90, "velocity": 110}, {"time": 72840, "pitch": 68, "duration": 490, "velocity": 110}, {"time": 73440, "pitch": 68, "duration": 180, "velocity": 110}, {"time": 73680, "pitch": 70, "duration": 190, "velocity": 110}, {"time": 73920, "pitch": 72, "duration": 170, "velocity": 110}, {"time": 74160, "pitch": 75, "duration": 170, "velocity": 110}, {"time": 74400, "pitch": 75, "duration": 210, "velocity": 110}, {"time": 74640, "pitch": 72, "duration": 80, "velocity": 110}, {"time": 74760, "pitch": 77, "duration": 280, "velocity": 110}, {"time": 75120, "pitch": 75, "duration": 190, "velocity": 110}, {"time": 75360, "pitch": 72, "duration": 100, "velocity": 110}, {"time": 75480, "pitch": 70, "duration": 100, "velocity": 110}, {"time": 75600, "pitch": 68, "duration": 100, "velocity": 110}, {"time": 75720, "pitch": 70, "duration": 950, "velocity": 110}, {"time": 77280, "pitch": 68, "duration": 170, "velocity": 110}, {"time": 77520, "pitch": 70, "duration": 190, "velocity": 110}, {"time": 77760, "pitch": 72, "duration": 180, "velocity": 110}, {"time": 78000, "pitch": 75, "duration": 140, "velocity": 110}, {"time": 78240, "pitch": 75, "duration": 210, "velocity": 110}, {"time": 78480, "pitch": 72, "duration": 100, "velocity": 110}, {"time": 78600, "pitch": 75, "duration": 130, "velocity": 110}, {"time": 78840, "pitch": 75, "duration": 240, "velocity": 110}, {"time": 79080, "pitch": 72, "duration": 100, "velocity": 110}, {"time": 79200, "pitch": 75, "duration": 200, "velocity": 110}, {"time": 79440, "pitch": 77, "duration": 200, "velocity": 110}, {"time": 79680, "pitch": 72, "duration": 210, "velocity": 110}, {"time": 79920, "pitch": 70, "duration": 220, "velocity": 110}, {"time": 80160, "pitch": 68, "duration": 230, "velocity": 110}, {"time": 80400, "pitch": 65, "duration": 100, "velocity": 110}, {"time": 80520, "pitch": 68, "duration": 480, "velocity": 110}, {"time": 81120, "pitch": 68, "duration": 220, "velocity": 110}, {"time": 81360, "pitch": 70, "duration": 210, "velocity": 110}, {"time": 81600, "pitch": 72, "duration": 220, "velocity": 110}, {"time": 81840, "pitch": 75, "duration": 170, "velocity": 110}, {"time": 82080, "pitch": 75, "duration": 230, "velocity": 110}, {"time": 82320, "pitch": 72, "duration": 140, "velocity": 110}, {"time": 82440, "pitch": 75, "duration": 150, "velocity": 110}, {"time": 82680, "pitch": 75, "duration": 240, "velocity": 110}, {"time": 82920, "pitch": 72, "duration": 140, "velocity": 110}, {"time": 83040, "pitch": 75, "duration": 220, "velocity": 110}, {"time": 83280, "pitch": 77, "duration": 200, "velocity": 110}, {"time": 83520, "pitch": 72, "duration": 850, "velocity": 110}, {"time": 84480, "pitch": 70, "duration": 480, "velocity": 110}, {"time": 84960, "pitch": 68, "duration": 380, "velocity": 110}, {"time": 85440, "pitch": 72, "duration": 240, "velocity": 110}, {"time": 85680, "pitch": 75, "duration": 130, "velocity": 110}, {"time": 85920, "pitch": 75, "duration": 210, "velocity": 110}, {"time": 86160, "pitch": 72, "duration": 130, "velocity": 110}, {"time": 86280, "pitch": 75, "duration": 140, "velocity": 110}, {"time": 86520, "pitch": 75, "duration": 220, "velocity": 110}, {"time": 86760, "pitch": 72, "duration": 130, "velocity": 110}, {"time": 86880, "pitch": 75, "duration": 240, "velocity": 110}, {"time": 87120, "pitch": 77, "duration": 200, "velocity": 110}, {"time": 87360, "pitch": 80, "duration": 450, "velocity": 110}, {"time": 87840, "pitch": 77, "duration": 450, "velocity": 110}, {"time": 88320, "pitch": 75, "duration": 230, "velocity": 110}, {"time": 88560, "pitch": 72, "duration": 220, "velocity": 110}, {"time": 88800, "pitch": 70, "duration": 240, "velocity": 110}, {"time": 89040, "pitch": 68, "duration": 240, "velocity": 110}, {"time": 89520, "pitch": 77, "duration": 220, "velocity": 110}, {"time": 89760, "pitch": 75, "duration": 200, "velocity": 110}, {"time": 90240, "pitch": 77, "duration": 210, "velocity": 110}, {"time": 90480, "pitch": 75, "duration": 230, "velocity": 110}, {"time": 90960, "pitch": 77, "duration": 470, "velocity": 110}, {"time": 91440, "pitch": 75, "duration": 240, "velocity": 110}, {"time": 91680, "pitch": 77, "duration": 220, "velocity": 110}, {"time": 91920, "pitch": 75, "duration": 450, "velocity": 110}, {"time": 92400, "pitch": 72, "duration": 220, "velocity": 110}, {"time": 92640, "pitch": 75, "duration": 220, "velocity": 110}, {"time": 92880, "pitch": 72, "duration": 220, "velocity": 110}, {"time": 93120, "pitch": 77, "duration": 650, "velocity": 110}, {"time": 93840, "pitch": 75, "duration": 60, "velocity": 110}, {"time": 93960, "pitch": 75, "duration": 770, "velocity": 110}, {"time": 94800, "pitch": 72, "duration": 200, "velocity": 110}, {"time": 95040, "pitch": 77, "duration": 220, "velocity": 110}, {"time": 95280, "pitch": 75, "duration": 220, "velocity": 110}, {"time": 95520, "pitch": 75, "duration": 220, "velocity": 110}, {"time": 95760, "pitch": 72, "duration": 120, "velocity": 110}, {"time": 95880, "pitch": 77, "duration": 350, "velocity": 110}, {"time": 96240, "pitch": 75, "duration": 170, "velocity": 110}, {"time": 96480, "pitch": 75, "duration": 220, "velocity": 110}, {"time": 96720, "pitch": 72, "duration": 220, "velocity": 110}, {"time": 96960, "pitch": 70, "duration": 230, "velocity": 110}, {"time": 97200, "pitch": 68, "duration": 130, "velocity": 110}, {"time": 97320, "pitch": 65, "duration": 420, "velocity": 110}, {"time": 98160, "pitch": 72, "duration": 210, "velocity": 110}, {"time": 98400, "pitch": 75, "duration": 180, "velocity": 110}, {"time": 98640, "pitch": 77, "duration": 460, "velocity": 110}, {"time": 99120, "pitch": 75, "duration": 220, "velocity": 110}, {"time": 99360, "pitch": 72, "duration": 250, "velocity": 110}, {"time": 99600, "pitch": 70, "duration": 450, "velocity": 110}, {"time": 100080, "pitch": 72, "duration": 220, "velocity": 110}, {"time": 100320, "pitch": 75, "duration": 240, "velocity": 110}, {"time": 100560, "pitch": 72, "duration": 230, "velocity": 110}, {"time": 100800, "pitch": 77, "duration": 700, "velocity": 110}, {"time": 101520, "pitch": 75, "duration": 60, "velocity": 110}, {"time": 101640, "pitch": 75, "duration": 800, "velocity": 110}, {"time": 102480, "pitch": 72, "duration": 220, "velocity": 110}, {"time": 102720, "pitch": 77, "duration": 220, "velocity": 110}, {"time": 102960, "pitch": 75, "duration": 220, "velocity": 110}, {"time": 103200, "pitch": 75, "duration": 220, "velocity": 110}, {"time": 103440, "pitch": 72, "duration": 100, "velocity": 110}, {"time": 103560, "pitch": 77, "duration": 320, "velocity": 110}, {"time": 103920, "pitch": 75, "duration": 170, "velocity": 110}, {"time": 104160, "pitch": 75, "duration": 220, "velocity": 110}, {"time": 104400, "pitch": 72, "duration": 220, "velocity": 110}, {"time": 104640, "pitch": 70, "duration": 240, "velocity": 110}, {"time": 104880, "pitch": 68, "duration": 100, "velocity": 110}, {"time": 105000, "pitch": 65, "duration": 560, "velocity": 110}, {"time": 105840, "pitch": 72, "duration": 220, "velocity": 110}, {"time": 106080, "pitch": 75, "duration": 220, "velocity": 110}, {"time": 106320, "pitch": 77, "duration": 450, "velocity": 110}, {"time": 106800, "pitch": 75, "duration": 220, "velocity": 110}, {"time": 107040, "pitch": 77, "duration": 220, "velocity": 110}, {"time": 107280, "pitch": 75, "duration": 1070, "velocity": 110}, {"time": 138720, "pitch": 68, "duration": 170, "velocity": 110}, {"time": 138960, "pitch": 70, "duration": 190, "velocity": 110}, {"time": 139200, "pitch": 72, "duration": 160, "velocity": 110}, {"time": 139440, "pitch": 70, "duration": 120, "velocity": 110}, {"time": 139680, "pitch": 68, "duration": 210, "velocity": 110}, {"time": 139920, "pitch": 65, "duration": 70, "velocity": 110}, {"time": 140040, "pitch": 68, "duration": 460, "velocity": 110}, {"time": 140640, "pitch": 68, "duration": 190, "velocity": 110}, {"time": 140880, "pitch": 70, "duration": 180, "velocity": 110}, {"time": 141120, "pitch": 72, "duration": 180, "velocity": 110}, {"time": 141360, "pitch": 70, "duration": 170, "velocity": 110}, {"time": 141600, "pitch": 68, "duration": 210, "velocity": 110}, {"time": 141840, "pitch": 65, "duration": 90, "velocity": 110}, {"time": 141960, "pitch": 68, "duration": 490, "velocity": 110}, {"time": 142560, "pitch": 68, "duration": 180, "velocity": 110}, {"time": 142800, "pitch": 70, "duration": 190, "velocity": 110}, {"time": 143040, "pitch": 72, "duration": 170, "velocity": 110}, {"time": 143280, "pitch": 75, "duration": 170, "velocity": 110}, {"time": 143520, "pitch": 75, "duration": 210, "velocity": 110}, {"time": 143760, "pitch": 72, "duration": 80, "velocity": 110}, {"time": 143880, "pitch": 77, "duration": 280, "velocity": 110}, {"time": 144240, "pitch": 75, "duration": 190, "velocity": 110}, {"time": 144480, "pitch": 72, "duration": 100, "velocity": 110}, {"time": 144600, "pitch": 70, "duration": 100, "velocity": 110}, {"time": 144720, "pitch": 68, "duration": 100, "velocity": 110}, {"time": 144840, "pitch": 70, "duration": 950, "velocity": 110}, {"time": 146400, "pitch": 68, "duration": 170, "velocity": 110}, {"time": 146640, "pitch": 70, "duration": 190, "velocity": 110}, {"time": 146880, "pitch": 72, "duration": 180, "velocity": 110}, {"time": 147120, "pitch": 75, "duration": 140, "velocity": 110}, {"time": 147360, "pitch": 75, "duration": 210, "velocity": 110}, {"time": 147600, "pitch": 72, "duration": 100, "velocity": 110}, {"time": 147720, "pitch": 75, "duration": 130, "velocity": 110}, {"time": 147960, "pitch": 75, "duration": 240, "velocity": 110}, {"time": 148200, "pitch": 72, "duration": 100, "velocity": 110}, {"time": 148320, "pitch": 75, "duration": 200, "velocity": 110}, {"time": 148560, "pitch": 77, "duration": 200, "velocity": 110}, {"time": 148800, "pitch": 72, "duration": 220, "velocity": 110}, {"time": 149040, "pitch": 70, "duration": 220, "velocity": 110}, {"time": 149280, "pitch": 68, "duration": 230, "velocity": 110}, {"time": 149520, "pitch": 65, "duration": 100, "velocity": 110}, {"time": 149640, "pitch": 68, "duration": 480, "velocity": 110}, {"time": 150240, "pitch": 68, "duration": 220, "velocity": 110}, {"time": 150480, "pitch": 70, "duration": 210, "velocity": 110}, {"time": 150720, "pitch": 72, "duration": 220, "velocity": 110}, {"time": 150960, "pitch": 75, "duration": 170, "velocity": 110}, {"time": 151200, "pitch": 75, "duration": 230, "velocity": 110}, {"time": 151440, "pitch": 72, "duration": 100, "velocity": 110}, {"time": 151560, "pitch": 75, "duration": 150, "velocity": 110}, {"time": 151800, "pitch": 75, "duration": 240, "velocity": 110}, {"time": 152040, "pitch": 72, "duration": 100, "velocity": 110}, {"time": 152160, "pitch": 75, "duration": 220, "velocity": 110}, {"time": 152400, "pitch": 77, "duration": 200, "velocity": 110}, {"time": 152640, "pitch": 72, "duration": 850, "velocity": 110}, {"time": 153600, "pitch": 70, "duration": 480, "velocity": 110}, {"time": 154080, "pitch": 68, "duration": 380, "velocity": 110}, {"time": 154560, "pitch": 72, "duration": 240, "velocity": 110}, {"time": 154800, "pitch": 75, "duration": 130, "velocity": 110}, {"time": 155040, "pitch": 75, "duration": 210, "velocity": 110}, {"time": 155280, "pitch": 72, "duration": 130, "velocity": 110}, {"time": 155400, "pitch": 75, "duration": 140, "velocity": 110}, {"time": 155640, "pitch": 75, "duration": 220, "velocity": 110}, {"time": 155880, "pitch": 72, "duration": 130, "velocity": 110}, {"time": 156000, "pitch": 75, "duration": 240, "velocity": 110}, {"time": 156240, "pitch": 77, "duration": 200, "velocity": 110}, {"time": 156480, "pitch": 80, "duration": 450, "velocity": 110}, {"time": 156960, "pitch": 77, "duration": 450, "velocity": 110}, {"time": 157440, "pitch": 75, "duration": 230, "velocity": 110}, {"time": 157680, "pitch": 72, "duration": 220, "velocity": 110}, {"time": 157920, "pitch": 70, "duration": 240, "velocity": 110}, {"time": 158160, "pitch": 68, "duration": 240, "velocity": 110}, {"time": 158640, "pitch": 77, "duration": 220, "velocity": 110}, {"time": 158880, "pitch": 75, "duration": 200, "velocity": 110}, {"time": 159360, "pitch": 77, "duration": 210, "velocity": 110}, {"time": 159600, "pitch": 75, "duration": 230, "velocity": 110}, {"time": 160080, "pitch": 77, "duration": 410, "velocity": 110}, {"time": 160560, "pitch": 75, "duration": 150, "velocity": 110}, {"time": 160800, "pitch": 77, "duration": 150, "velocity": 110}, {"time": 161040, "pitch": 75, "duration": 1180, "velocity": 110}, {"time": 162960, "pitch": 75, "duration": 170, "velocity": 110}, {"time": 163200, "pitch": 80, "duration": 190, "velocity": 110}, {"time": 163440, "pitch": 79, "duration": 100, "velocity": 110}, {"time": 163680, "pitch": 77, "duration": 180, "velocity": 110}, {"time": 163920, "pitch": 79, "duration": 80, "velocity": 110}, {"time": 164040, "pitch": 77, "duration": 340, "velocity": 110}, {"time": 164400, "pitch": 75, "duration": 1370, "velocity": 110}, {"time": 165840, "pitch": 72, "duration": 230, "velocity": 110}, {"time": 166080, "pitch": 77, "duration": 210, "velocity": 110}, {"time": 166320, "pitch": 75, "duration": 100, "velocity": 110}, {"time": 166560, "pitch": 77, "duration": 210, "velocity": 110}, {"time": 166800, "pitch": 75, "duration": 400, "velocity": 110}, {"time": 167280, "pitch": 72, "duration": 190, "velocity": 110}, {"time": 167520, "pitch": 75, "duration": 210, "velocity": 110}, {"time": 167760, "pitch": 72, "duration": 230, "velocity": 110}, {"time": 168000, "pitch": 77, "duration": 650, "velocity": 110}, {"time": 168720, "pitch": 75, "duration": 60, "velocity": 110}, {"time": 168840, "pitch": 75, "duration": 770, "velocity": 110}, {"time": 169680, "pitch": 72, "duration": 200, "velocity": 110}, {"time": 169920, "pitch": 77, "duration": 220, "velocity": 110}, {"time": 170160, "pitch": 75, "duration": 220, "velocity": 110}, {"time": 170400, "pitch": 75, "duration": 220, "velocity": 110}, {"time": 170640, "pitch": 72, "duration": 120, "velocity": 110}, {"time": 170760, "pitch": 77, "duration": 350, "velocity": 110}, {"time": 171120, "pitch": 75, "duration": 170, "velocity": 110}, {"time": 171360, "pitch": 75, "duration": 220, "velocity": 110}, {"time": 171600, "pitch": 72, "duration": 220, "velocity": 110}, {"time": 171840, "pitch": 70, "duration": 230, "velocity": 110}, {"time": 172080, "pitch": 68, "duration": 130, "velocity": 110}, {"time": 172200, "pitch": 65, "duration": 420, "velocity": 110}, {"time": 173040, "pitch": 72, "duration": 210, "velocity": 110}, {"time": 173280, "pitch": 75, "duration": 180, "velocity": 110}, {"time": 173520, "pitch": 77, "duration": 460, "velocity": 110}, {"time": 174000, "pitch": 75, "duration": 220, "velocity": 110}, {"time": 174240, "pitch": 72, "duration": 220, "velocity": 110}, {"time": 174480, "pitch": 70, "duration": 450, "velocity": 110}, {"time": 174960, "pitch": 72, "duration": 220, "velocity": 110}, {"time": 175200, "pitch": 75, "duration": 240, "velocity": 110}, {"time": 175440, "pitch": 72, "duration": 220, "velocity": 110}, {"time": 175680, "pitch": 77, "duration": 700, "velocity": 110}, {"time": 176400, "pitch": 75, "duration": 60, "velocity": 110}, {"time": 176520, "pitch": 75, "duration": 800, "velocity": 110}, {"time": 177360, "pitch": 72, "duration": 220, "velocity": 110}, {"time": 177600, "pitch": 77, "duration": 220, "velocity": 110}, {"time": 177840, "pitch": 75, "duration": 220, "velocity": 110}, {"time": 178080, "pitch": 75, "duration": 220, "velocity": 110}, {"time": 178320, "pitch": 72, "duration": 100, "velocity": 110}, {"time": 178440, "pitch": 77, "duration": 330, "velocity": 110}, {"time": 178800, "pitch": 75, "duration": 170, "velocity": 110}, {"time": 179040, "pitch": 75, "duration": 220, "velocity": 110}, {"time": 179280, "pitch": 72, "duration": 230, "velocity": 110}, {"time": 179520, "pitch": 70, "duration": 240, "velocity": 110}, {"time": 179760, "pitch": 68, "duration": 120, "velocity": 110}, {"time": 179880, "pitch": 65, "duration": 560, "velocity": 110}, {"time": 180720, "pitch": 72, "duration": 230, "velocity": 110}, {"time": 180960, "pitch": 75, "duration": 120, "velocity": 110}, {"time": 181200, "pitch": 77, "duration": 450, "velocity": 110}, {"time": 181680, "pitch": 75, "duration": 220, "velocity": 110}, {"time": 181920, "pitch": 77, "duration": 220, "velocity": 110}, {"time": 182160, "pitch": 75, "duration": 450, "velocity": 110}, {"time": 182640, "pitch": 74, "duration": 220, "velocity": 110}, {"time": 182880, "pitch": 77, "duration": 220, "velocity": 110}, {"time": 183120, "pitch": 74, "duration": 220, "velocity": 110}, {"time": 183360, "pitch": 79, "duration": 650, "velocity": 110}, {"time": 184080, "pitch": 77, "duration": 60, "velocity": 110}, {"time": 184200, "pitch": 77, "duration": 770, "velocity": 110}, {"time": 185040, "pitch": 74, "duration": 200, "velocity": 110}, {"time": 185280, "pitch": 79, "duration": 220, "velocity": 110}, {"time": 185520, "pitch": 77, "duration": 220, "velocity": 110}, {"time": 185760, "pitch": 77, "duration": 220, "velocity": 110}, {"time": 186000, "pitch": 74, "duration": 120, "velocity": 110}, {"time": 186120, "pitch": 79, "duration": 350, "velocity": 110}, {"time": 186480, "pitch": 77, "duration": 170, "velocity": 110}, {"time": 186720, "pitch": 77, "duration": 220, "velocity": 110}, {"time": 186960, "pitch": 74, "duration": 220, "velocity": 110}, {"time": 187200, "pitch": 72, "duration": 230, "velocity": 110}, {"time": 187440, "pitch": 70, "duration": 130, "velocity": 110}, {"time": 187560, "pitch": 67, "duration": 420, "velocity": 110}, {"time": 188400, "pitch": 74, "duration": 210, "velocity": 110}, {"time": 188640, "pitch": 77, "duration": 180, "velocity": 110}, {"time": 188880, "pitch": 79, "duration": 460, "velocity": 110}, {"time": 189360, "pitch": 77, "duration": 220, "velocity": 110}, {"time": 189600, "pitch": 74, "duration": 250, "velocity": 110}, {"time": 189840, "pitch": 72, "duration": 450, "velocity": 110}, {"time": 190320, "pitch": 74, "duration": 220, "velocity": 110}, {"time": 190560, "pitch": 77, "duration": 220, "velocity": 110}, {"time": 190800, "pitch": 74, "duration": 230, "velocity": 110}, {"time": 191040, "pitch": 79, "duration": 700, "velocity": 110}, {"time": 191760, "pitch": 77, "duration": 60, "velocity": 110}, {"time": 191880, "pitch": 77, "duration": 800, "velocity": 110}, {"time": 192720, "pitch": 74, "duration": 230, "velocity": 110}, {"time": 192960, "pitch": 79, "duration": 220, "velocity": 110}, {"time": 193200, "pitch": 77, "duration": 220, "velocity": 110}, {"time": 193440, "pitch": 77, "duration": 220, "velocity": 110}, {"time": 193680, "pitch": 74, "duration": 160, "velocity": 110}, {"time": 193800, "pitch": 79, "duration": 340, "velocity": 110}, {"time": 194160, "pitch": 77, "duration": 170, "velocity": 110}, {"time": 194400, "pitch": 77, "duration": 220, "velocity": 110}, {"time": 194640, "pitch": 74, "duration": 220, "velocity": 110}, {"time": 194880, "pitch": 72, "duration": 240, "velocity": 110}, {"time": 195120, "pitch": 70, "duration": 120, "velocity": 110}, {"time": 195240, "pitch": 67, "duration": 560, "velocity": 110}, {"time": 196080, "pitch": 74, "duration": 230, "velocity": 110}, {"time": 196320, "pitch": 77, "duration": 120, "velocity": 110}, {"time": 196560, "pitch": 79, "duration": 450, "velocity": 110}, {"time": 197040, "pitch": 77, "duration": 220, "velocity": 110}, {"time": 197280, "pitch": 79, "duration": 220, "velocity": 110}, {"time": 197520, "pitch": 77, "duration": 1070, "velocity": 110}, {"time": 952, "pitch": 70, "duration": 274, "velocity": 105}, {"time": 952, "pitch": 82, "duration": 254, "velocity": 105}, {"time": 2280, "pitch": 63, "duration": 120, "velocity": 105}, {"time": 2280, "pitch": 75, "duration": 120, "velocity": 105}, {"time": 2400, "pitch": 65, "duration": 120, "velocity": 105}, {"time": 2400, "pitch": 77, "duration": 120, "velocity": 105}, {"time": 2520, "pitch": 68, "duration": 120, "velocity": 105}, {"time": 2520, "pitch": 80, "duration": 120, "velocity": 105}, {"time": 2640, "pitch": 70, "duration": 120, "velocity": 105}, {"time": 2640, "pitch": 82, "duration": 120, "velocity": 105}, {"time": 2760, "pitch": 65, "duration": 120, "velocity": 105}, {"time": 2760, "pitch": 77, "duration": 120, "velocity": 105}, {"time": 2880, "pitch": 63, "duration": 230, "velocity": 105}, {"time": 2880, "pitch": 75, "duration": 230, "velocity": 105}, {"time": 4320, "pitch": 63, "duration": 120, "velocity": 105}, {"time": 4320, "pitch": 75, "duration": 120, "velocity": 105}, {"time": 4440, "pitch": 65, "duration": 120, "velocity": 105}, {"time": 4440, "pitch": 77, "duration": 120, "velocity": 105}, {"time": 4560, "pitch": 68, "duration": 120, "velocity": 105}, {"time": 4560, "pitch": 80, "duration": 120, "velocity": 105}, {"time": 4680, "pitch": 65, "duration": 120, "velocity": 105}, {"time": 4680, "pitch": 77, "duration": 120, "velocity": 105}, {"time": 4800, "pitch": 70, "duration": 1330, "velocity": 105}, {"time": 4800, "pitch": 82, "duration": 1390, "velocity": 105}, {"time": 6240, "pitch": 70, "duration": 130, "velocity": 105}, {"time": 6240, "pitch": 82, "duration": 140, "velocity": 105}, {"time": 6360, "pitch": 72, "duration": 130, "velocity": 105}, {"time": 6360, "pitch": 84, "duration": 120, "velocity": 105}, {"time": 6480, "pitch": 73, "duration": 240, "velocity": 105}, {"time": 6480, "pitch": 85, "duration": 240, "velocity": 105}, {"time": 6720, "pitch": 75, "duration": 80, "velocity": 105}, {"time": 6720, "pitch": 87, "duration": 80, "velocity": 105}, {"time": 6960, "pitch": 75, "duration": 370, "velocity": 105}, {"time": 6960, "pitch": 87, "duration": 400, "velocity": 105}, {"time": 7440, "pitch": 75, "duration": 1010, "velocity": 105}, {"time": 7440, "pitch": 87, "duration": 1020, "velocity": 105}, {"time": 45120, "pitch": 58, "duration": 80, "velocity": 105}, {"time": 45120, "pitch": 70, "duration": 90, "velocity": 105}, {"time": 45480, "pitch": 58, "duration": 310, "velocity": 105}, {"time": 45480, "pitch": 70, "duration": 290, "velocity": 105}, {"time": 45840, "pitch": 61, "duration": 280, "velocity": 105}, {"time": 45840, "pitch": 73, "duration": 260, "velocity": 105}, {"time": 46080, "pitch": 63, "duration": 160, "velocity": 105}, {"time": 46080, "pitch": 75, "duration": 150, "velocity": 105}, {"time": 46320, "pitch": 63, "duration": 230, "velocity": 105}, {"time": 46320, "pitch": 75, "duration": 210, "velocity": 105}, {"time": 46560, "pitch": 65, "duration": 220, "velocity": 105}, {"time": 46560, "pitch": 77, "duration": 210, "velocity": 105}, {"time": 46800, "pitch": 63, "duration": 180, "velocity": 105}, {"time": 46800, "pitch": 75, "duration": 190, "velocity": 105}, {"time": 58800, "pitch": 77, "duration": 190, "velocity": 90}, {"time": 58800, "pitch": 89, "duration": 190, "velocity": 95}, {"time": 59040, "pitch": 75, "duration": 160, "velocity": 95}, {"time": 59040, "pitch": 87, "duration": 180, "velocity": 95}, {"time": 59520, "pitch": 77, "duration": 190, "velocity": 90}, {"time": 59520, "pitch": 89, "duration": 210, "velocity": 105}, {"time": 59760, "pitch": 75, "duration": 150, "velocity": 95}, {"time": 59760, "pitch": 87, "duration": 140, "velocity": 95}, {"time": 60240, "pitch": 77, "duration": 440, "velocity": 90}, {"time": 60240, "pitch": 89, "duration": 440, "velocity": 95}, {"time": 60720, "pitch": 75, "duration": 160, "velocity": 86}, {"time": 60720, "pitch": 87, "duration": 140, "velocity": 95}, {"time": 60960, "pitch": 72, "duration": 120, "velocity": 76}, {"time": 60960, "pitch": 84, "duration": 100, "velocity": 105}, {"time": 61200, "pitch": 70, "duration": 1000, "velocity": 79}, {"time": 61200, "pitch": 82, "duration": 980, "velocity": 95}, {"time": 75840, "pitch": 58, "duration": 80, "velocity": 105}, {"time": 75840, "pitch": 70, "duration": 90, "velocity": 105}, {"time": 76200, "pitch": 58, "duration": 310, "velocity": 105}, {"time": 76200, "pitch": 70, "duration": 290, "velocity": 105}, {"time": 76560, "pitch": 61, "duration": 280, "velocity": 105}, {"time": 76560, "pitch": 73, "duration": 260, "velocity": 105}, {"time": 76800, "pitch": 63, "duration": 160, "velocity": 105}, {"time": 76800, "pitch": 75, "duration": 150, "velocity": 105}, {"time": 77040, "pitch": 63, "duration": 230, "velocity": 105}, {"time": 77040, "pitch": 75, "duration": 210, "velocity": 105}, {"time": 77280, "pitch": 65, "duration": 220, "velocity": 105}, {"time": 77280, "pitch": 77, "duration": 210, "velocity": 105}, {"time": 77520, "pitch": 63, "duration": 180, "velocity": 105}, {"time": 77520, "pitch": 75, "duration": 190, "velocity": 105}, {"time": 77760, "pitch": 70, "duration": 1380, "velocity": 73}, {"time": 77760, "pitch": 82, "duration": 1380, "velocity": 73}, {"time": 79210, "pitch": 70, "duration": 130, "velocity": 73}, {"time": 79210, "pitch": 82, "duration": 130, "velocity": 73}, {"time": 79330, "pitch": 72, "duration": 130, "velocity": 86}, {"time": 79330, "pitch": 84, "duration": 130, "velocity": 86}, {"time": 79450, "pitch": 73, "duration": 230, "velocity": 79}, {"time": 79450, "pitch": 85, "duration": 230, "velocity": 79}, {"time": 79690, "pitch": 75, "duration": 1830, "velocity": 79}, {"time": 79690, "pitch": 87, "duration": 1830, "velocity": 79}, {"time": 81620, "pitch": 70, "duration": 1360, "velocity": 86}, {"time": 81620, "pitch": 82, "duration": 1360, "velocity": 86}, {"time": 83050, "pitch": 70, "duration": 110, "velocity": 73}, {"time": 83050, "pitch": 82, "duration": 110, "velocity": 73}, {"time": 83160, "pitch": 72, "duration": 130, "velocity": 82}, {"time": 83160, "pitch": 84, "duration": 130, "velocity": 82}, {"time": 83280, "pitch": 73, "duration": 240, "velocity": 79}, {"time": 83280, "pitch": 85, "duration": 240, "velocity": 79}, {"time": 83520, "pitch": 75, "duration": 1820, "velocity": 73}, {"time": 83520, "pitch": 87, "duration": 1820, "velocity": 73}, {"time": 89520, "pitch": 77, "duration": 190, "velocity": 90}, {"time": 89520, "pitch": 89, "duration": 190, "velocity": 95}, {"time": 89760, "pitch": 75, "duration": 160, "velocity": 95}, {"time": 89760, "pitch": 87, "duration": 180, "velocity": 95}, {"time": 90240, "pitch": 77, "duration": 190, "velocity": 90}, {"time": 90240, "pitch": 89, "duration": 210, "velocity": 105}, {"time": 90480, "pitch": 75, "duration": 150, "velocity": 95}, {"time": 90480, "pitch": 87, "duration": 140, "velocity": 95}, {"time": 90960, "pitch": 77, "duration": 440, "velocity": 90}, {"time": 90960, "pitch": 89, "duration": 440, "velocity": 95}, {"time": 91440, "pitch": 75, "duration": 160, "velocity": 86}, {"time": 91440, "pitch": 87, "duration": 140, "velocity": 95}, {"time": 91680, "pitch": 77, "duration": 120, "velocity": 76}, {"time": 91680, "pitch": 89, "duration": 100, "velocity": 105}, {"time": 91920, "pitch": 75, "duration": 1000, "velocity": 79}, {"time": 91920, "pitch": 87, "duration": 980, "velocity": 95}, {"time": 106310, "pitch": 58, "duration": 250, "velocity": 84}, {"time": 106330, "pitch": 70, "duration": 410, "velocity": 100}, {"time": 106560, "pitch": 58, "duration": 180, "velocity": 84}, {"time": 106790, "pitch": 60, "duration": 140, "velocity": 81}, {"time": 106790, "pitch": 72, "duration": 130, "velocity": 91}, {"time": 107030, "pitch": 61, "duration": 150, "velocity": 84}, {"time": 107030, "pitch": 73, "duration": 130, "velocity": 100}, {"time": 107260, "pitch": 63, "duration": 1120, "velocity": 91}, {"time": 107270, "pitch": 75, "duration": 1100, "velocity": 110}, {"time": 108480, "pitch": 57, "duration": 150, "velocity": 95}, {"time": 108480, "pitch": 69, "duration": 140, "velocity": 100}, {"time": 108700, "pitch": 59, "duration": 100, "velocity": 87}, {"time": 108700, "pitch": 71, "duration": 100, "velocity": 91}, {"time": 108940, "pitch": 60, "duration": 120, "velocity": 87}, {"time": 108950, "pitch": 72, "duration": 110, "velocity": 110}, {"time": 109200, "pitch": 62, "duration": 1120, "velocity": 91}, {"time": 109210, "pitch": 74, "duration": 1090, "velocity": 110}, {"time": 110400, "pitch": 56, "duration": 210, "velocity": 84}, {"time": 110400, "pitch": 68, "duration": 210, "velocity": 91}, {"time": 110630, "pitch": 58, "duration": 120, "velocity": 78}, {"time": 110630, "pitch": 70, "duration": 120, "velocity": 91}, {"time": 110870, "pitch": 72, "duration": 170, "velocity": 100}, {"time": 110890, "pitch": 60, "duration": 110, "velocity": 78}, {"time": 111100, "pitch": 61, "duration": 440, "velocity": 94}, {"time": 111110, "pitch": 73, "duration": 420, "velocity": 101}, {"time": 111580, "pitch": 75, "duration": 190, "velocity": 101}, {"time": 111590, "pitch": 63, "duration": 210, "velocity": 88}, {"time": 111810, "pitch": 65, "duration": 500, "velocity": 87}, {"time": 111810, "pitch": 77, "duration": 500, "velocity": 95}, {"time": 112290, "pitch": 79, "duration": 30, "velocity": 91}, {"time": 112300, "pitch": 67, "duration": 20, "velocity": 95}, {"time": 112320, "pitch": 67, "duration": 1810, "velocity": 95}, {"time": 112320, "pitch": 79, "duration": 1810, "velocity": 91}, {"time": 114390, "pitch": 79, "duration": 110, "velocity": 91}, {"time": 114400, "pitch": 67, "duration": 100, "velocity": 100}, {"time": 114400, "pitch": 91, "duration": 110, "velocity": 95}, {"time": 114600, "pitch": 91, "duration": 70, "velocity": 90}, {"time": 114610, "pitch": 67, "duration": 70, "velocity": 100}, {"time": 114610, "pitch": 79, "duration": 70, "velocity": 100}, {"time": 114740, "pitch": 79, "duration": 70, "velocity": 91}, {"time": 114750, "pitch": 67, "duration": 80, "velocity": 95}, {"time": 114750, "pitch": 91, "duration": 70, "velocity": 90}, {"time": 114880, "pitch": 79, "duration": 110, "velocity": 91}, {"time": 114880, "pitch": 91, "duration": 110, "velocity": 82}, {"time": 114890, "pitch": 67, "duration": 80, "velocity": 91}, {"time": 115070, "pitch": 67, "duration": 80, "velocity": 95}, {"time": 115070, "pitch": 79, "duration": 70, "velocity": 81}, {"time": 115070, "pitch": 91, "duration": 60, "velocity": 90}, {"time": 115220, "pitch": 67, "duration": 80, "velocity": 100}, {"time": 115220, "pitch": 79, "duration": 70, "velocity": 95}, {"time": 115220, "pitch": 91, "duration": 80, "velocity": 105}, {"time": 115360, "pitch": 79, "duration": 100, "velocity": 87}, {"time": 115360, "pitch": 91, "duration": 100, "velocity": 76}, {"time": 115370, "pitch": 67, "duration": 80, "velocity": 91}, {"time": 115550, "pitch": 79, "duration": 60, "velocity": 95}, {"time": 115550, "pitch": 91, "duration": 60, "velocity": 95}, {"time": 115560, "pitch": 67, "duration": 70, "velocity": 91}, {"time": 115680, "pitch": 72, "duration": 110, "velocity": 91}, {"time": 115680, "pitch": 84, "duration": 140, "velocity": 95}, {"time": 115680, "pitch": 96, "duration": 140, "velocity": 95}, {"time": 115920, "pitch": 67, "duration": 130, "velocity": 95}, {"time": 115920, "pitch": 79, "duration": 150, "velocity": 95}, {"time": 115920, "pitch": 91, "duration": 150, "velocity": 105}, {"time": 122400, "pitch": 77, "duration": 480, "velocity": 86}, {"time": 122880, "pitch": 76, "duration": 490, "velocity": 76}, {"time": 123360, "pitch": 74, "duration": 480, "velocity": 86}, {"time": 123840, "pitch": 72, "duration": 2390, "velocity": 86}, {"time": 126190, "pitch": 65, "duration": 500, "velocity": 90}, {"time": 126670, "pitch": 67, "duration": 530, "velocity": 90}, {"time": 127180, "pitch": 74, "duration": 490, "velocity": 90}, {"time": 127680, "pitch": 72, "duration": 960, "velocity": 90}, {"time": 128630, "pitch": 62, "duration": 490, "velocity": 95}, {"time": 128630, "pitch": 74, "duration": 490, "velocity": 95}, {"time": 129100, "pitch": 57, "duration": 480, "velocity": 90}, {"time": 129100, "pitch": 69, "duration": 480, "velocity": 90}, {"time": 129600, "pitch": 51, "duration": 1920, "velocity": 86}, {"time": 129600, "pitch": 67, "duration": 1910, "velocity": 90}, {"time": 144960, "pitch": 58, "duration": 80, "velocity": 105}, {"time": 144960, "pitch": 70, "duration": 90, "velocity": 105}, {"time": 145320, "pitch": 58, "duration": 310, "velocity": 105}, {"time": 145320, "pitch": 70, "duration": 290, "velocity": 105}, {"time": 145680, "pitch": 61, "duration": 280, "velocity": 105}, {"time": 145680, "pitch": 73, "duration": 260, "velocity": 105}, {"time": 145920, "pitch": 63, "duration": 160, "velocity": 105}, {"time": 145920, "pitch": 75, "duration": 150, "velocity": 105}, {"time": 146160, "pitch": 63, "duration": 230, "velocity": 105}, {"time": 146160, "pitch": 75, "duration": 210, "velocity": 105}, {"time": 146400, "pitch": 65, "duration": 220, "velocity": 105}, {"time": 146400, "pitch": 77, "duration": 210, "velocity": 105}, {"time": 146640, "pitch": 63, "duration": 180, "velocity": 105}, {"time": 146640, "pitch": 75, "duration": 190, "velocity": 105}, {"time": 146880, "pitch": 70, "duration": 1380, "velocity": 73}, {"time": 146880, "pitch": 82, "duration": 1380, "velocity": 73}, {"time": 148330, "pitch": 70, "duration": 130, "velocity": 73}, {"time": 148330, "pitch": 82, "duration": 130, "velocity": 73}, {"time": 148450, "pitch": 72, "duration": 130, "velocity": 86}, {"time": 148450, "pitch": 84, "duration": 130, "velocity": 86}, {"time": 148570, "pitch": 73, "duration": 230, "velocity": 79}, {"time": 148570, "pitch": 85, "duration": 230, "velocity": 79}, {"time": 148810, "pitch": 75, "duration": 1830, "velocity": 79}, {"time": 148810, "pitch": 87, "duration": 1830, "velocity": 79}, {"time": 150740, "pitch": 70, "duration": 1360, "velocity": 86}, {"time": 150740, "pitch": 82, "duration": 1360, "velocity": 86}, {"time": 152170, "pitch": 70, "duration": 110, "velocity": 73}, {"time": 152170, "pitch": 82, "duration": 110, "velocity": 73}, {"time": 152280, "pitch": 72, "duration": 130, "velocity": 82}, {"time": 152280, "pitch": 84, "duration": 130, "velocity": 82}, {"time": 152400, "pitch": 73, "duration": 240, "velocity": 79}, {"time": 152400, "pitch": 85, "duration": 240, "velocity": 79}, {"time": 152640, "pitch": 75, "duration": 1820, "velocity": 73}, {"time": 152640, "pitch": 87, "duration": 1820, "velocity": 73}, {"time": 158640, "pitch": 77, "duration": 190, "velocity": 90}, {"time": 158640, "pitch": 89, "duration": 190, "velocity": 95}, {"time": 158880, "pitch": 75, "duration": 160, "velocity": 95}, {"time": 158880, "pitch": 87, "duration": 180, "velocity": 95}, {"time": 159360, "pitch": 77, "duration": 190, "velocity": 90}, {"time": 159360, "pitch": 89, "duration": 210, "velocity": 105}, {"time": 159600, "pitch": 75, "duration": 150, "velocity": 95}, {"time": 159600, "pitch": 87, "duration": 140, "velocity": 95}, {"time": 160320, "pitch": 70, "duration": 270, "velocity": 105}, {"time": 160320, "pitch": 82, "duration": 250, "velocity": 105}, {"time": 161640, "pitch": 63, "duration": 120, "velocity": 105}, {"time": 161640, "pitch": 75, "duration": 120, "velocity": 105}, {"time": 161760, "pitch": 65, "duration": 120, "velocity": 105}, {"time": 161760, "pitch": 77, "duration": 120, "velocity": 105}, {"time": 161880, "pitch": 68, "duration": 120, "velocity": 105}, {"time": 161880, "pitch": 80, "duration": 120, "velocity": 105}, {"time": 162000, "pitch": 70, "duration": 120, "velocity": 105}, {"time": 162000, "pitch": 82, "duration": 120, "velocity": 105}, {"time": 162120, "pitch": 65, "duration": 120, "velocity": 105}, {"time": 162120, "pitch": 77, "duration": 120, "velocity": 105}, {"time": 162240, "pitch": 63, "duration": 230, "velocity": 105}, {"time": 162240, "pitch": 75, "duration": 230, "velocity": 105}, {"time": 163680, "pitch": 63, "duration": 120, "velocity": 105}, {"time": 163680, "pitch": 75, "duration": 120, "velocity": 105}, {"time": 163800, "pitch": 65, "duration": 120, "velocity": 105}, {"time": 163800, "pitch": 77, "duration": 120, "velocity": 105}, {"time": 163920, "pitch": 68, "duration": 120, "velocity": 105}, {"time": 163920, "pitch": 80, "duration": 120, "velocity": 105}, {"time": 164040, "pitch": 65, "duration": 120, "velocity": 105}, {"time": 164040, "pitch": 77, "duration": 120, "velocity": 105}, {"time": 164160, "pitch": 70, "duration": 1330, "velocity": 105}, {"time": 164160, "pitch": 82, "duration": 1390, "velocity": 105}, {"time": 165600, "pitch": 70, "duration": 130, "velocity": 105}, {"time": 165600, "pitch": 82, "duration": 140, "velocity": 105}, {"time": 165720, "pitch": 72, "duration": 130, "velocity": 105}, {"time": 165720, "pitch": 84, "duration": 120, "velocity": 105}, {"time": 165840, "pitch": 73, "duration": 250, "velocity": 105}, {"time": 165840, "pitch": 85, "duration": 250, "velocity": 105}, {"time": 166080, "pitch": 75, "duration": 60, "velocity": 105}, {"time": 166080, "pitch": 87, "duration": 60, "velocity": 105}, {"time": 166320, "pitch": 75, "duration": 370, "velocity": 105}, {"time": 166320, "pitch": 87, "duration": 400, "velocity": 105}, {"time": 166800, "pitch": 75, "duration": 1010, "velocity": 105}, {"time": 166800, "pitch": 87, "duration": 1020, "velocity": 105}, {"time": 168000, "pitch": 80, "duration": 3340, "velocity": 80}, {"time": 171360, "pitch": 82, "duration": 470, "velocity": 80}, {"time": 171840, "pitch": 80, "duration": 1530, "velocity": 80}, {"time": 173520, "pitch": 58, "duration": 390, "velocity": 90}, {"time": 173520, "pitch": 70, "duration": 400, "velocity": 90}, {"time": 174000, "pitch": 60, "duration": 130, "velocity": 90}, {"time": 174000, "pitch": 72, "duration": 120, "velocity": 90}, {"time": 174240, "pitch": 61, "duration": 110, "velocity": 90}, {"time": 174240, "pitch": 73, "duration": 130, "velocity": 90}, {"time": 174480, "pitch": 63, "duration": 390, "velocity": 90}, {"time": 174480, "pitch": 75, "duration": 380, "velocity": 90}, {"time": 174960, "pitch": 65, "duration": 100, "velocity": 90}, {"time": 174960, "pitch": 77, "duration": 120, "velocity": 90}, {"time": 175200, "pitch": 67, "duration": 440, "velocity": 90}, {"time": 175200, "pitch": 79, "duration": 470, "velocity": 90}, {"time": 175680, "pitch": 80, "duration": 3370, "velocity": 80}, {"time": 179040, "pitch": 82, "duration": 470, "velocity": 80}, {"time": 179520, "pitch": 80, "duration": 990, "velocity": 80}, {"time": 180720, "pitch": 72, "duration": 170, "velocity": 90}, {"time": 180720, "pitch": 84, "duration": 170, "velocity": 90}, {"time": 180960, "pitch": 75, "duration": 90, "velocity": 90}, {"time": 180960, "pitch": 87, "duration": 70, "velocity": 90}, {"time": 181200, "pitch": 77, "duration": 400, "velocity": 90}, {"time": 181200, "pitch": 89, "duration": 380, "velocity": 90}, {"time": 181680, "pitch": 75, "duration": 90, "velocity": 90}, {"time": 181680, "pitch": 87, "duration": 80, "velocity": 90}, {"time": 181920, "pitch": 77, "duration": 100, "velocity": 90}, {"time": 181920, "pitch": 89, "duration": 90, "velocity": 90}, {"time": 182160, "pitch": 75, "duration": 970, "velocity": 90}, {"time": 182160, "pitch": 87, "duration": 960, "velocity": 90}, {"time": 183360, "pitch": 82, "duration": 3340, "velocity": 80}, {"time": 186720, "pitch": 84, "duration": 470, "velocity": 80}, {"time": 187200, "pitch": 82, "duration": 1530, "velocity": 80}, {"time": 188880, "pitch": 60, "duration": 390, "velocity": 90}, {"time": 188880, "pitch": 72, "duration": 400, "velocity": 90}, {"time": 189360, "pitch": 62, "duration": 130, "velocity": 90}, {"time": 189360, "pitch": 74, "duration": 120, "velocity": 90}, {"time": 189600, "pitch": 63, "duration": 110, "velocity": 90}, {"time": 189600, "pitch": 75, "duration": 130, "velocity": 90}, {"time": 189840, "pitch": 65, "duration": 390, "velocity": 90}, {"time": 189840, "pitch": 77, "duration": 380, "velocity": 90}, {"time": 190320, "pitch": 67, "duration": 100, "velocity": 90}, {"time": 190320, "pitch": 79, "duration": 120, "velocity": 90}, {"time": 190560, "pitch": 69, "duration": 440, "velocity": 90}, {"time": 190560, "pitch": 81, "duration": 470, "velocity": 90}, {"time": 191040, "pitch": 82, "duration": 3370, "velocity": 80}, {"time": 194400, "pitch": 84, "duration": 470, "velocity": 80}, {"time": 194880, "pitch": 82, "duration": 990, "velocity": 80}, {"time": 196080, "pitch": 74, "duration": 170, "velocity": 90}, {"time": 196080, "pitch": 86, "duration": 170, "velocity": 90}, {"time": 196320, "pitch": 77, "duration": 90, "velocity": 90}, {"time": 196320, "pitch": 89, "duration": 70, "velocity": 90}, {"time": 196560, "pitch": 79, "duration": 400, "velocity": 90}, {"time": 196560, "pitch": 91, "duration": 380, "velocity": 90}, {"time": 197040, "pitch": 77, "duration": 90, "velocity": 90}, {"time": 197040, "pitch": 89, "duration": 80, "velocity": 90}, {"time": 197280, "pitch": 79, "duration": 100, "velocity": 90}, {"time": 197280, "pitch": 91, "duration": 90, "velocity": 90}, {"time": 197520, "pitch": 77, "duration": 970, "velocity": 90}, {"time": 197520, "pitch": 89, "duration": 960, "velocity": 90}, {"time": 198720, "pitch": 82, "duration": 3820, "velocity": 54}, {"time": 198720, "pitch": 94, "duration": 3830, "velocity": 67}, {"time": 206400, "pitch": 82, "duration": 3820, "velocity": 54}, {"time": 206400, "pitch": 94, "duration": 3830, "velocity": 67}, {"time": 210240, "pitch": 81, "duration": 1440, "velocity": 67}, {"time": 210240, "pitch": 93, "duration": 1420, "velocity": 76}, {"time": 211680, "pitch": 79, "duration": 460, "velocity": 82}, {"time": 211680, "pitch": 91, "duration": 470, "velocity": 76}, {"time": 212160, "pitch": 78, "duration": 970, "velocity": 70}, {"time": 212160, "pitch": 90, "duration": 1000, "velocity": 76}, {"time": 213120, "pitch": 86, "duration": 960, "velocity": 76}, {"time": 213120, "pitch": 98, "duration": 960, "velocity": 76}, {"time": 27840, "pitch": 62, "duration": 1930, "velocity": 75}, {"time": 27840, "pitch": 65, "duration": 1520, "velocity": 75}, {"time": 29280, "pitch": 67, "duration": 460, "velocity": 95}, {"time": 29760, "pitch": 60, "duration": 1830, "velocity": 80}, {"time": 29760, "pitch": 64, "duration": 1830, "velocity": 80}, {"time": 30720, "pitch": 72, "duration": 820, "velocity": 95}, {"time": 55180, "pitch": 63, "duration": 1460, "velocity": 83}, {"time": 55670, "pitch": 67, "duration": 860, "velocity": 105}, {"time": 56140, "pitch": 79, "duration": 460, "velocity": 100}, {"time": 56640, "pitch": 65, "duration": 920, "velocity": 100}, {"time": 56640, "pitch": 68, "duration": 870, "velocity": 96}, {"time": 56640, "pitch": 77, "duration": 920, "velocity": 96}, {"time": 57580, "pitch": 67, "duration": 500, "velocity": 92}, {"time": 57580, "pitch": 70, "duration": 420, "velocity": 105}, {"time": 57580, "pitch": 79, "duration": 500, "velocity": 96}, {"time": 58060, "pitch": 72, "duration": 370, "velocity": 105}, {"time": 58060, "pitch": 80, "duration": 380, "velocity": 89}, {"time": 58070, "pitch": 68, "duration": 380, "velocity": 115}, {"time": 58810, "pitch": 68, "duration": 140, "velocity": 115}, {"time": 58810, "pitch": 72, "duration": 150, "velocity": 115}, {"time": 58810, "pitch": 80, "duration": 160, "velocity": 115}, {"time": 59030, "pitch": 68, "duration": 120, "velocity": 115}, {"time": 59040, "pitch": 72, "duration": 110, "velocity": 105}, {"time": 59040, "pitch": 80, "duration": 120, "velocity": 115}, {"time": 59510, "pitch": 68, "duration": 180, "velocity": 115}, {"time": 59520, "pitch": 72, "duration": 170, "velocity": 115}, {"time": 59520, "pitch": 80, "duration": 190, "velocity": 115}, {"time": 59760, "pitch": 72, "duration": 90, "velocity": 115}, {"time": 59770, "pitch": 68, "duration": 80, "velocity": 115}, {"time": 59770, "pitch": 80, "duration": 120, "velocity": 127}, {"time": 60230, "pitch": 68, "duration": 360, "velocity": 105}, {"time": 60230, "pitch": 77, "duration": 370, "velocity": 115}, {"time": 60250, "pitch": 65, "duration": 360, "velocity": 105}, {"time": 60710, "pitch": 65, "duration": 70, "velocity": 92}, {"time": 60710, "pitch": 68, "duration": 50, "velocity": 105}, {"time": 60710, "pitch": 75, "duration": 60, "velocity": 100}, {"time": 60950, "pitch": 72, "duration": 100, "velocity": 105}, {"time": 60960, "pitch": 68, "duration": 70, "velocity": 105}, {"time": 60970, "pitch": 65, "duration": 70, "velocity": 100}, {"time": 61200, "pitch": 63, "duration": 960, "velocity": 105}, {"time": 61210, "pitch": 67, "duration": 960, "velocity": 105}, {"time": 61210, "pitch": 70, "duration": 950, "velocity": 105}, {"time": 85900, "pitch": 63, "duration": 1460, "velocity": 83}, {"time": 86390, "pitch": 67, "duration": 860, "velocity": 105}, {"time": 86860, "pitch": 79, "duration": 460, "velocity": 100}, {"time": 87360, "pitch": 65, "duration": 920, "velocity": 100}, {"time": 87360, "pitch": 68, "duration": 870, "velocity": 96}, {"time": 87360, "pitch": 77, "duration": 920, "velocity": 96}, {"time": 88300, "pitch": 67, "duration": 500, "velocity": 92}, {"time": 88300, "pitch": 70, "duration": 420, "velocity": 105}, {"time": 88300, "pitch": 79, "duration": 500, "velocity": 96}, {"time": 88780, "pitch": 72, "duration": 370, "velocity": 105}, {"time": 88780, "pitch": 80, "duration": 380, "velocity": 89}, {"time": 88790, "pitch": 68, "duration": 380, "velocity": 115}, {"time": 89530, "pitch": 68, "duration": 140, "velocity": 115}, {"time": 89530, "pitch": 72, "duration": 150, "velocity": 115}, {"time": 89530, "pitch": 80, "duration": 160, "velocity": 115}, {"time": 89750, "pitch": 68, "duration": 120, "velocity": 115}, {"time": 89760, "pitch": 72, "duration": 110, "velocity": 105}, {"time": 89760, "pitch": 80, "duration": 120, "velocity": 115}, {"time": 90230, "pitch": 68, "duration": 180, "velocity": 115}, {"time": 90240, "pitch": 72, "duration": 170, "velocity": 115}, {"time": 90240, "pitch": 80, "duration": 190, "velocity": 115}, {"time": 90480, "pitch": 72, "duration": 90, "velocity": 115}, {"time": 90490, "pitch": 68, "duration": 80, "velocity": 115}, {"time": 90490, "pitch": 80, "duration": 120, "velocity": 127}, {"time": 90950, "pitch": 68, "duration": 250, "velocity": 105}, {"time": 90950, "pitch": 77, "duration": 250, "velocity": 115}, {"time": 90970, "pitch": 65, "duration": 230, "velocity": 105}, {"time": 91200, "pitch": 65, "duration": 130, "velocity": 105}, {"time": 91200, "pitch": 68, "duration": 110, "velocity": 105}, {"time": 91200, "pitch": 77, "duration": 120, "velocity": 115}, {"time": 91430, "pitch": 65, "duration": 70, "velocity": 92}, {"time": 91430, "pitch": 68, "duration": 50, "velocity": 105}, {"time": 91430, "pitch": 75, "duration": 60, "velocity": 100}, {"time": 91670, "pitch": 77, "duration": 100, "velocity": 105}, {"time": 91680, "pitch": 68, "duration": 70, "velocity": 105}, {"time": 91690, "pitch": 65, "duration": 70, "velocity": 100}, {"time": 91920, "pitch": 63, "duration": 960, "velocity": 105}, {"time": 91930, "pitch": 67, "duration": 960, "velocity": 105}, {"time": 91930, "pitch": 70, "duration": 960, "velocity": 105}, {"time": 91930, "pitch": 75, "duration": 950, "velocity": 105}, {"time": 106320, "pitch": 68, "duration": 980, "velocity": 101}, {"time": 107280, "pitch": 67, "duration": 1020, "velocity": 101}, {"time": 107280, "pitch": 70, "duration": 1020, "velocity": 101}, {"time": 108480, "pitch": 60, "duration": 730, "velocity": 101}, {"time": 108480, "pitch": 64, "duration": 730, "velocity": 101}, {"time": 108480, "pitch": 69, "duration": 680, "velocity": 101}, {"time": 109200, "pitch": 66, "duration": 1070, "velocity": 101}, {"time": 109200, "pitch": 69, "duration": 1060, "velocity": 101}, {"time": 109200, "pitch": 74, "duration": 1070, "velocity": 101}, {"time": 110400, "pitch": 56, "duration": 690, "velocity": 96}, {"time": 110400, "pitch": 63, "duration": 740, "velocity": 83}, {"time": 110400, "pitch": 72, "duration": 730, "velocity": 105}, {"time": 111120, "pitch": 56, "duration": 700, "velocity": 105}, {"time": 111120, "pitch": 65, "duration": 700, "velocity": 96}, {"time": 111120, "pitch": 73, "duration": 750, "velocity": 96}, {"time": 111840, "pitch": 53, "duration": 440, "velocity": 96}, {"time": 111840, "pitch": 61, "duration": 420, "velocity": 96}, {"time": 111840, "pitch": 68, "duration": 430, "velocity": 105}, {"time": 112320, "pitch": 55, "duration": 310, "velocity": 90}, {"time": 112320, "pitch": 62, "duration": 300, "velocity": 100}, {"time": 112320, "pitch": 67, "duration": 300, "velocity": 100}, {"time": 112790, "pitch": 55, "duration": 70, "velocity": 105}, {"time": 112800, "pitch": 67, "duration": 70, "velocity": 105}, {"time": 112910, "pitch": 57, "duration": 80, "velocity": 97}, {"time": 112910, "pitch": 69, "duration": 60, "velocity": 110}, {"time": 113020, "pitch": 58, "duration": 70, "velocity": 101}, {"time": 113020, "pitch": 70, "duration": 60, "velocity": 110}, {"time": 113130, "pitch": 60, "duration": 190, "velocity": 110}, {"time": 113140, "pitch": 72, "duration": 200, "velocity": 110}, {"time": 113390, "pitch": 60, "duration": 80, "velocity": 105}, {"time": 113390, "pitch": 72, "duration": 80, "velocity": 120}, {"time": 113510, "pitch": 62, "duration": 100, "velocity": 120}, {"time": 113510, "pitch": 74, "duration": 90, "velocity": 105}, {"time": 113630, "pitch": 65, "duration": 90, "velocity": 110}, {"time": 113630, "pitch": 77, "duration": 110, "velocity": 125}, {"time": 113880, "pitch": 74, "duration": 80, "velocity": 110}, {"time": 113890, "pitch": 62, "duration": 90, "velocity": 105}, {"time": 113990, "pitch": 77, "duration": 70, "velocity": 125}, {"time": 114000, "pitch": 65, "duration": 130, "velocity": 120}, {"time": 114120, "pitch": 67, "duration": 100, "velocity": 110}, {"time": 114120, "pitch": 79, "duration": 100, "velocity": 120}, {"time": 114380, "pitch": 67, "duration": 90, "velocity": 105}, {"time": 114380, "pitch": 79, "duration": 90, "velocity": 120}, {"time": 114590, "pitch": 67, "duration": 60, "velocity": 110}, {"time": 114590, "pitch": 79, "duration": 60, "velocity": 110}, {"time": 114730, "pitch": 67, "duration": 80, "velocity": 120}, {"time": 114730, "pitch": 79, "duration": 70, "velocity": 120}, {"time": 114870, "pitch": 67, "duration": 100, "velocity": 110}, {"time": 114870, "pitch": 79, "duration": 100, "velocity": 120}, {"time": 115070, "pitch": 79, "duration": 70, "velocity": 110}, {"time": 115080, "pitch": 67, "duration": 70, "velocity": 110}, {"time": 115210, "pitch": 67, "duration": 80, "velocity": 110}, {"time": 115210, "pitch": 79, "duration": 70, "velocity": 120}, {"time": 115350, "pitch": 79, "duration": 90, "velocity": 110}, {"time": 115360, "pitch": 67, "duration": 90, "velocity": 110}, {"time": 115550, "pitch": 67, "duration": 90, "velocity": 110}, {"time": 115550, "pitch": 79, "duration": 80, "velocity": 110}, {"time": 115690, "pitch": 72, "duration": 130, "velocity": 120}, {"time": 115690, "pitch": 84, "duration": 120, "velocity": 120}, {"time": 115930, "pitch": 67, "duration": 150, "velocity": 105}, {"time": 115930, "pitch": 79, "duration": 140, "velocity": 125}, {"time": 129600, "pitch": 51, "duration": 1870, "velocity": 100}, {"time": 129600, "pitch": 58, "duration": 1850, "velocity": 100}, {"time": 129600, "pitch": 67, "duration": 1850, "velocity": 100}, {"time": 130560, "pitch": 75, "duration": 930, "velocity": 100}, {"time": 131760, "pitch": 68, "duration": 70, "velocity": 110}, {"time": 131760, "pitch": 80, "duration": 80, "velocity": 110}, {"time": 132000, "pitch": 68, "duration": 80, "velocity": 110}, {"time": 132000, "pitch": 80, "duration": 80, "velocity": 110}, {"time": 132480, "pitch": 68, "duration": 280, "velocity": 110}, {"time": 132480, "pitch": 75, "duration": 290, "velocity": 110}, {"time": 132480, "pitch": 80, "duration": 290, "velocity": 110}, {"time": 132480, "pitch": 83, "duration": 300, "velocity": 110}, {"time": 132840, "pitch": 68, "duration": 60, "velocity": 110}, {"time": 132840, "pitch": 75, "duration": 70, "velocity": 110}, {"time": 132840, "pitch": 80, "duration": 70, "velocity": 110}, {"time": 132840, "pitch": 84, "duration": 80, "velocity": 110}, {"time": 133680, "pitch": 68, "duration": 60, "velocity": 110}, {"time": 133680, "pitch": 80, "duration": 70, "velocity": 110}, {"time": 133920, "pitch": 68, "duration": 70, "velocity": 110}, {"time": 133920, "pitch": 80, "duration": 80, "velocity": 110}, {"time": 134400, "pitch": 68, "duration": 290, "velocity": 110}, {"time": 134400, "pitch": 73, "duration": 290, "velocity": 110}, {"time": 134400, "pitch": 77, "duration": 300, "velocity": 110}, {"time": 134400, "pitch": 83, "duration": 300, "velocity": 110}, {"time": 134760, "pitch": 68, "duration": 70, "velocity": 110}, {"time": 134760, "pitch": 73, "duration": 60, "velocity": 110}, {"time": 134760, "pitch": 77, "duration": 60, "velocity": 110}, {"time": 134760, "pitch": 84, "duration": 60, "velocity": 110}, {"time": 135600, "pitch": 67, "duration": 60, "velocity": 110}, {"time": 135600, "pitch": 79, "duration": 70, "velocity": 110}, {"time": 135840, "pitch": 67, "duration": 50, "velocity": 110}, {"time": 135840, "pitch": 79, "duration": 60, "velocity": 110}, {"time": 136320, "pitch": 68, "duration": 320, "velocity": 110}, {"time": 136320, "pitch": 77, "duration": 310, "velocity": 110}, {"time": 136320, "pitch": 83, "duration": 320, "velocity": 110}, {"time": 136680, "pitch": 68, "duration": 70, "velocity": 110}, {"time": 136680, "pitch": 77, "duration": 70, "velocity": 110}, {"time": 136680, "pitch": 84, "duration": 70, "velocity": 110}, {"time": 137050, "pitch": 72, "duration": 50, "velocity": 90}, {"time": 137050, "pitch": 77, "duration": 50, "velocity": 90}, {"time": 137050, "pitch": 80, "duration": 60, "velocity": 90}, {"time": 137170, "pitch": 72, "duration": 60, "velocity": 110}, {"time": 137170, "pitch": 77, "duration": 60, "velocity": 110}, {"time": 137170, "pitch": 80, "duration": 60, "velocity": 110}, {"time": 138360, "pitch": 65, "duration": 50, "velocity": 110}, {"time": 138360, "pitch": 77, "duration": 50, "velocity": 110}, {"time": 138480, "pitch": 67, "duration": 70, "velocity": 110}, {"time": 138480, "pitch": 79, "duration": 70, "velocity": 110}, {"time": 138720, "pitch": 68, "duration": 90, "velocity": 110}, {"time": 138720, "pitch": 80, "duration": 90, "velocity": 110}, {"time": 138960, "pitch": 70, "duration": 130, "velocity": 110}, {"time": 138960, "pitch": 82, "duration": 130, "velocity": 110}, {"time": 139440, "pitch": 68, "duration": 70, "velocity": 110}, {"time": 139440, "pitch": 80, "duration": 80, "velocity": 110}, {"time": 139680, "pitch": 68, "duration": 80, "velocity": 110}, {"time": 139680, "pitch": 80, "duration": 80, "velocity": 110}, {"time": 140160, "pitch": 68, "duration": 280, "velocity": 110}, {"time": 140160, "pitch": 75, "duration": 290, "velocity": 110}, {"time": 140160, "pitch": 80, "duration": 290, "velocity": 110}, {"time": 140160, "pitch": 83, "duration": 300, "velocity": 110}, {"time": 140520, "pitch": 68, "duration": 60, "velocity": 110}, {"time": 140520, "pitch": 75, "duration": 70, "velocity": 110}, {"time": 140520, "pitch": 80, "duration": 70, "velocity": 110}, {"time": 140520, "pitch": 84, "duration": 80, "velocity": 110}, {"time": 141360, "pitch": 68, "duration": 60, "velocity": 110}, {"time": 141360, "pitch": 80, "duration": 70, "velocity": 110}, {"time": 141600, "pitch": 68, "duration": 70, "velocity": 110}, {"time": 141600, "pitch": 80, "duration": 80, "velocity": 110}, {"time": 142080, "pitch": 68, "duration": 290, "velocity": 110}, {"time": 142080, "pitch": 73, "duration": 290, "velocity": 110}, {"time": 142080, "pitch": 77, "duration": 300, "velocity": 110}, {"time": 142080, "pitch": 83, "duration": 300, "velocity": 110}, {"time": 142440, "pitch": 68, "duration": 70, "velocity": 110}, {"time": 142440, "pitch": 73, "duration": 60, "velocity": 110}, {"time": 142440, "pitch": 77, "duration": 60, "velocity": 110}, {"time": 142440, "pitch": 84, "duration": 60, "velocity": 110}, {"time": 143280, "pitch": 67, "duration": 60, "velocity": 110}, {"time": 143280, "pitch": 79, "duration": 70, "velocity": 110}, {"time": 143520, "pitch": 67, "duration": 50, "velocity": 110}, {"time": 143520, "pitch": 79, "duration": 60, "velocity": 110}, {"time": 144000, "pitch": 68, "duration": 320, "velocity": 110}, {"time": 144000, "pitch": 77, "duration": 310, "velocity": 110}, {"time": 144000, "pitch": 83, "duration": 320, "velocity": 110}, {"time": 144360, "pitch": 68, "duration": 70, "velocity": 110}, {"time": 144360, "pitch": 77, "duration": 70, "velocity": 110}, {"time": 144360, "pitch": 84, "duration": 70, "velocity": 110}, {"time": 144730, "pitch": 72, "duration": 50, "velocity": 90}, {"time": 144730, "pitch": 77, "duration": 50, "velocity": 90}, {"time": 144730, "pitch": 80, "duration": 60, "velocity": 90}, {"time": 144850, "pitch": 72, "duration": 60, "velocity": 110}, {"time": 144850, "pitch": 77, "duration": 60, "velocity": 110}, {"time": 144850, "pitch": 80, "duration": 60, "velocity": 110}, {"time": 155020, "pitch": 63, "duration": 1460, "velocity": 83}, {"time": 155510, "pitch": 67, "duration": 860, "velocity": 105}, {"time": 155980, "pitch": 79, "duration": 460, "velocity": 100}, {"time": 156480, "pitch": 65, "duration": 920, "velocity": 100}, {"time": 156480, "pitch": 68, "duration": 870, "velocity": 96}, {"time": 156480, "pitch": 77, "duration": 920, "velocity": 96}, {"time": 157420, "pitch": 67, "duration": 500, "velocity": 92}, {"time": 157420, "pitch": 70, "duration": 420, "velocity": 105}, {"time": 157420, "pitch": 79, "duration": 500, "velocity": 96}, {"time": 157900, "pitch": 72, "duration": 370, "velocity": 105}, {"time": 157900, "pitch": 80, "duration": 380, "velocity": 89}, {"time": 157910, "pitch": 68, "duration": 380, "velocity": 115}, {"time": 158650, "pitch": 68, "duration": 140, "velocity": 115}, {"time": 158650, "pitch": 72, "duration": 150, "velocity": 115}, {"time": 158650, "pitch": 80, "duration": 160, "velocity": 115}, {"time": 158870, "pitch": 68, "duration": 120, "velocity": 115}, {"time": 158880, "pitch": 72, "duration": 110, "velocity": 105}, {"time": 158880, "pitch": 80, "duration": 120, "velocity": 115}, {"time": 159350, "pitch": 68, "duration": 180, "velocity": 115}, {"time": 159360, "pitch": 72, "duration": 170, "velocity": 115}, {"time": 159360, "pitch": 80, "duration": 190, "velocity": 115}, {"time": 159600, "pitch": 72, "duration": 90, "velocity": 115}, {"time": 159610, "pitch": 68, "duration": 80, "velocity": 115}, {"time": 159610, "pitch": 80, "duration": 120, "velocity": 127}, {"time": 160550, "pitch": 65, "duration": 70, "velocity": 92}, {"time": 160550, "pitch": 68, "duration": 50, "velocity": 105}, {"time": 160550, "pitch": 75, "duration": 60, "velocity": 100}, {"time": 160790, "pitch": 77, "duration": 100, "velocity": 105}, {"time": 160800, "pitch": 68, "duration": 70, "velocity": 105}, {"time": 160810, "pitch": 65, "duration": 70, "velocity": 100}, {"time": 161040, "pitch": 65, "duration": 1140, "velocity": 105}, {"time": 161050, "pitch": 68, "duration": 1140, "velocity": 105}, {"time": 161050, "pitch": 75, "duration": 1130, "velocity": 105}, {"time": 164160, "pitch": 61, "duration": 60, "velocity": 105}, {"time": 164160, "pitch": 68, "duration": 60, "velocity": 105}, {"time": 164280, "pitch": 61, "duration": 170, "velocity": 105}, {"time": 164280, "pitch": 68, "duration": 170, "velocity": 105}, {"time": 164520, "pitch": 61, "duration": 50, "velocity": 99}, {"time": 164520, "pitch": 68, "duration": 50, "velocity": 99}, {"time": 164640, "pitch": 61, "duration": 190, "velocity": 96}, {"time": 164640, "pitch": 67, "duration": 170, "velocity": 100}, {"time": 164880, "pitch": 61, "duration": 50, "velocity": 87}, {"time": 164880, "pitch": 67, "duration": 50, "velocity": 96}, {"time": 165000, "pitch": 61, "duration": 150, "velocity": 96}, {"time": 165000, "pitch": 65, "duration": 140, "velocity": 100}, {"time": 165240, "pitch": 61, "duration": 50, "velocity": 106}, {"time": 165240, "pitch": 65, "duration": 60, "velocity": 96}, {"time": 165360, "pitch": 61, "duration": 620, "velocity": 95}, {"time": 165360, "pitch": 63, "duration": 610, "velocity": 105}, {"time": 166080, "pitch": 61, "duration": 60, "velocity": 90}, {"time": 166080, "pitch": 65, "duration": 70, "velocity": 107}, {"time": 166080, "pitch": 68, "duration": 70, "velocity": 100}, {"time": 166320, "pitch": 61, "duration": 380, "velocity": 100}, {"time": 166320, "pitch": 65, "duration": 390, "velocity": 107}, {"time": 166320, "pitch": 68, "duration": 400, "velocity": 100}, {"time": 166800, "pitch": 61, "duration": 1020, "velocity": 90}, {"time": 166800, "pitch": 65, "duration": 1030, "velocity": 107}, {"time": 166800, "pitch": 68, "duration": 1030, "velocity": 100}, {"time": 180720, "pitch": 60, "duration": 80, "velocity": 100}, {"time": 180960, "pitch": 63, "duration": 80, "velocity": 100}, {"time": 181200, "pitch": 61, "duration": 930, "velocity": 100}, {"time": 181200, "pitch": 65, "duration": 930, "velocity": 100}, {"time": 181200, "pitch": 68, "duration": 930, "velocity": 100}, {"time": 182150, "pitch": 63, "duration": 1090, "velocity": 100}, {"time": 182150, "pitch": 67, "duration": 1090, "velocity": 100}, {"time": 182150, "pitch": 70, "duration": 1100, "velocity": 100}, {"time": 183360, "pitch": 65, "duration": 810, "velocity": 100}, {"time": 183360, "pitch": 70, "duration": 820, "velocity": 100}, {"time": 183360, "pitch": 74, "duration": 820, "velocity": 100}, {"time": 184190, "pitch": 65, "duration": 1010, "velocity": 100}, {"time": 184190, "pitch": 69, "duration": 1010, "velocity": 100}, {"time": 184190, "pitch": 72, "duration": 1010, "velocity": 100}, {"time": 185280, "pitch": 62, "duration": 800, "velocity": 100}, {"time": 185280, "pitch": 67, "duration": 810, "velocity": 100}, {"time": 185280, "pitch": 70, "duration": 810, "velocity": 100}, {"time": 186110, "pitch": 62, "duration": 1000, "velocity": 100}, {"time": 186110, "pitch": 65, "duration": 1000, "velocity": 100}, {"time": 186110, "pitch": 69, "duration": 1000, "velocity": 100}, {"time": 187680, "pitch": 63, "duration": 110, "velocity": 100}, {"time": 187680, "pitch": 67, "duration": 110, "velocity": 100}, {"time": 187680, "pitch": 70, "duration": 120, "velocity": 100}, {"time": 188160, "pitch": 62, "duration": 280, "velocity": 100}, {"time": 188160, "pitch": 65, "duration": 280, "velocity": 100}, {"time": 188160, "pitch": 70, "duration": 280, "velocity": 100}, {"time": 188530, "pitch": 62, "duration": 80, "velocity": 100}, {"time": 188530, "pitch": 65, "duration": 80, "velocity": 100}, {"time": 188530, "pitch": 70, "duration": 80, "velocity": 100}, {"time": 188880, "pitch": 63, "duration": 1000, "velocity": 100}, {"time": 188880, "pitch": 67, "duration": 1010, "velocity": 100}, {"time": 188880, "pitch": 70, "duration": 990, "velocity": 100}, {"time": 189830, "pitch": 65, "duration": 1060, "velocity": 100}, {"time": 189830, "pitch": 69, "duration": 1070, "velocity": 100}, {"time": 189830, "pitch": 72, "duration": 780, "velocity": 100}, {"time": 190560, "pitch": 77, "duration": 360, "velocity": 100}, {"time": 191040, "pitch": 65, "duration": 810, "velocity": 100}, {"time": 191040, "pitch": 70, "duration": 820, "velocity": 100}, {"time": 191040, "pitch": 74, "duration": 820, "velocity": 100}, {"time": 191870, "pitch": 65, "duration": 1010, "velocity": 100}, {"time": 191870, "pitch": 69, "duration": 1010, "velocity": 100}, {"time": 191870, "pitch": 72, "duration": 1010, "velocity": 100}, {"time": 192960, "pitch": 62, "duration": 800, "velocity": 100}, {"time": 192960, "pitch": 67, "duration": 810, "velocity": 100}, {"time": 192960, "pitch": 70, "duration": 810, "velocity": 100}, {"time": 193790, "pitch": 62, "duration": 1000, "velocity": 100}, {"time": 193790, "pitch": 65, "duration": 1000, "velocity": 100}, {"time": 193790, "pitch": 69, "duration": 1000, "velocity": 100}, {"time": 195360, "pitch": 63, "duration": 110, "velocity": 100}, {"time": 195360, "pitch": 67, "duration": 110, "velocity": 100}, {"time": 195360, "pitch": 70, "duration": 120, "velocity": 100}, {"time": 195840, "pitch": 62, "duration": 280, "velocity": 100}, {"time": 195840, "pitch": 65, "duration": 280, "velocity": 100}, {"time": 195840, "pitch": 70, "duration": 280, "velocity": 100}, {"time": 196210, "pitch": 62, "duration": 80, "velocity": 100}, {"time": 196210, "pitch": 65, "duration": 80, "velocity": 100}, {"time": 196210, "pitch": 70, "duration": 80, "velocity": 100}, {"time": 196560, "pitch": 63, "duration": 1000, "velocity": 100}, {"time": 196560, "pitch": 67, "duration": 1010, "velocity": 100}, {"time": 196560, "pitch": 70, "duration": 990, "velocity": 100}, {"time": 197510, "pitch": 65, "duration": 1060, "velocity": 100}, {"time": 197510, "pitch": 69, "duration": 1070, "velocity": 100}, {"time": 197510, "pitch": 72, "duration": 780, "velocity": 100}, {"time": 198240, "pitch": 77, "duration": 360, "velocity": 100}, {"time": 198960, "pitch": 70, "duration": 70, "velocity": 110}, {"time": 198960, "pitch": 82, "duration": 80, "velocity": 110}, {"time": 199200, "pitch": 70, "duration": 80, "velocity": 110}, {"time": 199200, "pitch": 82, "duration": 80, "velocity": 110}, {"time": 199680, "pitch": 58, "duration": 290, "velocity": 110}, {"time": 199680, "pitch": 67, "duration": 280, "velocity": 110}, {"time": 199680, "pitch": 77, "duration": 290, "velocity": 110}, {"time": 199680, "pitch": 85, "duration": 300, "velocity": 110}, {"time": 200040, "pitch": 58, "duration": 70, "velocity": 110}, {"time": 200040, "pitch": 67, "duration": 60, "velocity": 110}, {"time": 200040, "pitch": 77, "duration": 70, "velocity": 110}, {"time": 200040, "pitch": 86, "duration": 80, "velocity": 110}, {"time": 200880, "pitch": 70, "duration": 60, "velocity": 110}, {"time": 200880, "pitch": 82, "duration": 70, "velocity": 110}, {"time": 201120, "pitch": 70, "duration": 70, "velocity": 110}, {"time": 201120, "pitch": 82, "duration": 80, "velocity": 110}, {"time": 201600, "pitch": 63, "duration": 290, "velocity": 110}, {"time": 201600, "pitch": 70, "duration": 290, "velocity": 110}, {"time": 201600, "pitch": 79, "duration": 300, "velocity": 110}, {"time": 201600, "pitch": 85, "duration": 300, "velocity": 110}, {"time": 201960, "pitch": 63, "duration": 60, "velocity": 110}, {"time": 201960, "pitch": 70, "duration": 70, "velocity": 110}, {"time": 201960, "pitch": 79, "duration": 60, "velocity": 110}, {"time": 201960, "pitch": 86, "duration": 60, "velocity": 110}, {"time": 202560, "pitch": 60, "duration": 1930, "velocity": 95}, {"time": 202560, "pitch": 64, "duration": 1930, "velocity": 95}, {"time": 202560, "pitch": 69, "duration": 1520, "velocity": 95}, {"time": 204000, "pitch": 72, "duration": 460, "velocity": 105}, {"time": 204480, "pitch": 62, "duration": 1830, "velocity": 90}, {"time": 204480, "pitch": 66, "duration": 1830, "velocity": 90}, {"time": 204480, "pitch": 74, "duration": 1780, "velocity": 105}, {"time": 206640, "pitch": 70, "duration": 70, "velocity": 110}, {"time": 206640, "pitch": 82, "duration": 80, "velocity": 110}, {"time": 206880, "pitch": 70, "duration": 80, "velocity": 110}, {"time": 206880, "pitch": 82, "duration": 80, "velocity": 110}, {"time": 207360, "pitch": 58, "duration": 290, "velocity": 110}, {"time": 207360, "pitch": 67, "duration": 280, "velocity": 110}, {"time": 207360, "pitch": 77, "duration": 290, "velocity": 110}, {"time": 207360, "pitch": 85, "duration": 300, "velocity": 110}, {"time": 207720, "pitch": 58, "duration": 70, "velocity": 110}, {"time": 207720, "pitch": 67, "duration": 60, "velocity": 110}, {"time": 207720, "pitch": 77, "duration": 70, "velocity": 110}, {"time": 207720, "pitch": 86, "duration": 80, "velocity": 110}, {"time": 208560, "pitch": 70, "duration": 60, "velocity": 110}, {"time": 208560, "pitch": 82, "duration": 70, "velocity": 110}, {"time": 208800, "pitch": 70, "duration": 70, "velocity": 110}, {"time": 208800, "pitch": 82, "duration": 80, "velocity": 110}, {"time": 209280, "pitch": 63, "duration": 290, "velocity": 110}, {"time": 209280, "pitch": 70, "duration": 290, "velocity": 110}, {"time": 209280, "pitch": 79, "duration": 300, "velocity": 110}, {"time": 209280, "pitch": 85, "duration": 300, "velocity": 110}, {"time": 209640, "pitch": 63, "duration": 60, "velocity": 110}, {"time": 209640, "pitch": 70, "duration": 70, "velocity": 110}, {"time": 209640, "pitch": 79, "duration": 60, "velocity": 110}, {"time": 209640, "pitch": 86, "duration": 60, "velocity": 110}, {"time": 210240, "pitch": 60, "duration": 1920, "velocity": 95}, {"time": 210240, "pitch": 64, "duration": 1920, "velocity": 95}, {"time": 210240, "pitch": 69, "duration": 1520, "velocity": 95}, {"time": 211680, "pitch": 72, "duration": 460, "velocity": 105}, {"time": 212160, "pitch": 62, "duration": 1830, "velocity": 90}, {"time": 212160, "pitch": 66, "duration": 1830, "velocity": 90}, {"time": 212160, "pitch": 74, "duration": 1780, "velocity": 105}, {"time": 952, "pitch": 82, "duration": 203, "velocity": 100}, {"time": 2280, "pitch": 75, "duration": 100, "velocity": 100}, {"time": 2400, "pitch": 77, "duration": 100, "velocity": 100}, {"time": 2520, "pitch": 80, "duration": 100, "velocity": 100}, {"time": 2640, "pitch": 82, "duration": 100, "velocity": 100}, {"time": 2760, "pitch": 77, "duration": 100, "velocity": 100}, {"time": 2880, "pitch": 75, "duration": 200, "velocity": 100}, {"time": 4320, "pitch": 75, "duration": 100, "velocity": 100}, {"time": 4440, "pitch": 77, "duration": 100, "velocity": 100}, {"time": 4560, "pitch": 80, "duration": 100, "velocity": 100}, {"time": 4680, "pitch": 77, "duration": 100, "velocity": 100}, {"time": 4800, "pitch": 82, "duration": 1420, "velocity": 95}, {"time": 6240, "pitch": 82, "duration": 100, "velocity": 95}, {"time": 6360, "pitch": 84, "duration": 100, "velocity": 105}, {"time": 6480, "pitch": 85, "duration": 240, "velocity": 95}, {"time": 6720, "pitch": 87, "duration": 90, "velocity": 90}, {"time": 6960, "pitch": 87, "duration": 420, "velocity": 95}, {"time": 7440, "pitch": 87, "duration": 1070, "velocity": 85}, {"time": 9120, "pitch": 92, "duration": 70, "velocity": 105}, {"time": 9240, "pitch": 87, "duration": 70, "velocity": 105}, {"time": 9360, "pitch": 89, "duration": 70, "velocity": 105}, {"time": 9480, "pitch": 92, "duration": 160, "velocity": 105}, {"time": 11040, "pitch": 96, "duration": 80, "velocity": 105}, {"time": 11160, "pitch": 92, "duration": 70, "velocity": 105}, {"time": 11280, "pitch": 94, "duration": 120, "velocity": 105}, {"time": 11400, "pitch": 92, "duration": 190, "velocity": 105}, {"time": 11640, "pitch": 92, "duration": 90, "velocity": 105}, {"time": 11760, "pitch": 87, "duration": 80, "velocity": 105}, {"time": 12000, "pitch": 89, "duration": 200, "velocity": 105}, {"time": 12240, "pitch": 92, "duration": 70, "velocity": 105}, {"time": 12960, "pitch": 92, "duration": 70, "velocity": 105}, {"time": 13080, "pitch": 87, "duration": 70, "velocity": 105}, {"time": 13200, "pitch": 89, "duration": 80, "velocity": 105}, {"time": 13320, "pitch": 92, "duration": 270, "velocity": 105}, {"time": 13680, "pitch": 89, "duration": 70, "velocity": 105}, {"time": 14880, "pitch": 87, "duration": 80, "velocity": 105}, {"time": 15120, "pitch": 89, "duration": 80, "velocity": 105}, {"time": 15360, "pitch": 91, "duration": 100, "velocity": 105}, {"time": 15600, "pitch": 92, "duration": 80, "velocity": 105}, {"time": 15840, "pitch": 94, "duration": 70, "velocity": 105}, {"time": 15960, "pitch": 87, "duration": 280, "velocity": 105}, {"time": 16800, "pitch": 92, "duration": 70, "velocity": 105}, {"time": 16920, "pitch": 87, "duration": 70, "velocity": 105}, {"time": 17040, "pitch": 89, "duration": 70, "velocity": 105}, {"time": 17160, "pitch": 92, "duration": 140, "velocity": 105}, {"time": 18720, "pitch": 96, "duration": 80, "velocity": 105}, {"time": 18840, "pitch": 92, "duration": 70, "velocity": 105}, {"time": 18960, "pitch": 94, "duration": 120, "velocity": 105}, {"time": 19080, "pitch": 92, "duration": 190, "velocity": 105}, {"time": 19320, "pitch": 92, "duration": 90, "velocity": 105}, {"time": 19440, "pitch": 87, "duration": 80, "velocity": 105}, {"time": 19680, "pitch": 89, "duration": 200, "velocity": 105}, {"time": 19920, "pitch": 92, "duration": 70, "velocity": 105}, {"time": 20640, "pitch": 92, "duration": 70, "velocity": 105}, {"time": 20760, "pitch": 87, "duration": 70, "velocity": 105}, {"time": 20880, "pitch": 89, "duration": 80, "velocity": 105}, {"time": 21000, "pitch": 92, "duration": 270, "velocity": 105}, {"time": 21360, "pitch": 89, "duration": 70, "velocity": 105}, {"time": 22560, "pitch": 89, "duration": 80, "velocity": 105}, {"time": 22680, "pitch": 91, "duration": 60, "velocity": 105}, {"time": 22800, "pitch": 92, "duration": 80, "velocity": 105}, {"time": 22920, "pitch": 91, "duration": 220, "velocity": 105}, {"time": 23160, "pitch": 91, "duration": 60, "velocity": 105}, {"time": 23280, "pitch": 92, "duration": 80, "velocity": 105}, {"time": 23400, "pitch": 93, "duration": 80, "velocity": 105}, {"time": 23520, "pitch": 94, "duration": 80, "velocity": 105}, {"time": 23640, "pitch": 99, "duration": 270, "velocity": 105}, {"time": 58800, "pitch": 89, "duration": 190, "velocity": 90}, {"time": 59040, "pitch": 87, "duration": 110, "velocity": 90}, {"time": 59520, "pitch": 89, "duration": 190, "velocity": 90}, {"time": 59760, "pitch": 87, "duration": 90, "velocity": 90}, {"time": 60240, "pitch": 89, "duration": 420, "velocity": 90}, {"time": 60720, "pitch": 87, "duration": 90, "velocity": 90}, {"time": 60960, "pitch": 84, "duration": 80, "velocity": 100}, {"time": 61200, "pitch": 82, "duration": 1010, "velocity": 100}, {"time": 84000, "pitch": 92, "duration": 440, "velocity": 90}, {"time": 84480, "pitch": 91, "duration": 510, "velocity": 90}, {"time": 84960, "pitch": 89, "duration": 480, "velocity": 90}, {"time": 85440, "pitch": 87, "duration": 1860, "velocity": 90}, {"time": 87360, "pitch": 89, "duration": 950, "velocity": 90}, {"time": 88320, "pitch": 91, "duration": 510, "velocity": 90}, {"time": 88800, "pitch": 92, "duration": 400, "velocity": 90}, {"time": 89520, "pitch": 89, "duration": 190, "velocity": 90}, {"time": 89760, "pitch": 87, "duration": 110, "velocity": 90}, {"time": 90240, "pitch": 89, "duration": 190, "velocity": 90}, {"time": 90480, "pitch": 87, "duration": 90, "velocity": 90}, {"time": 90960, "pitch": 89, "duration": 420, "velocity": 90}, {"time": 91440, "pitch": 87, "duration": 90, "velocity": 90}, {"time": 91680, "pitch": 89, "duration": 80, "velocity": 90}, {"time": 91920, "pitch": 87, "duration": 1010, "velocity": 90}, {"time": 93600, "pitch": 92, "duration": 70, "velocity": 105}, {"time": 93720, "pitch": 87, "duration": 70, "velocity": 105}, {"time": 93840, "pitch": 89, "duration": 70, "velocity": 105}, {"time": 93960, "pitch": 92, "duration": 160, "velocity": 105}, {"time": 95520, "pitch": 96, "duration": 80, "velocity": 105}, {"time": 95640, "pitch": 92, "duration": 70, "velocity": 105}, {"time": 95760, "pitch": 94, "duration": 150, "velocity": 105}, {"time": 95880, "pitch": 92, "duration": 190, "velocity": 105}, {"time": 96120, "pitch": 92, "duration": 90, "velocity": 105}, {"time": 96240, "pitch": 87, "duration": 80, "velocity": 105}, {"time": 96480, "pitch": 89, "duration": 200, "velocity": 105}, {"time": 96720, "pitch": 92, "duration": 70, "velocity": 105}, {"time": 97440, "pitch": 92, "duration": 70, "velocity": 105}, {"time": 97560, "pitch": 87, "duration": 70, "velocity": 105}, {"time": 97680, "pitch": 89, "duration": 80, "velocity": 105}, {"time": 97800, "pitch": 92, "duration": 270, "velocity": 105}, {"time": 98160, "pitch": 89, "duration": 70, "velocity": 105}, {"time": 99360, "pitch": 87, "duration": 80, "velocity": 105}, {"time": 99600, "pitch": 89, "duration": 80, "velocity": 105}, {"time": 99840, "pitch": 91, "duration": 100, "velocity": 105}, {"time": 100080, "pitch": 92, "duration": 80, "velocity": 105}, {"time": 100320, "pitch": 94, "duration": 70, "velocity": 105}, {"time": 100440, "pitch": 87, "duration": 280, "velocity": 105}, {"time": 101280, "pitch": 92, "duration": 70, "velocity": 105}, {"time": 101400, "pitch": 87, "duration": 70, "velocity": 105}, {"time": 101520, "pitch": 89, "duration": 70, "velocity": 105}, {"time": 101640, "pitch": 92, "duration": 140, "velocity": 105}, {"time": 103200, "pitch": 96, "duration": 80, "velocity": 105}, {"time": 103320, "pitch": 92, "duration": 70, "velocity": 105}, {"time": 103440, "pitch": 94, "duration": 120, "velocity": 105}, {"time": 103560, "pitch": 92, "duration": 190, "velocity": 105}, {"time": 103800, "pitch": 92, "duration": 90, "velocity": 105}, {"time": 103920, "pitch": 87, "duration": 80, "velocity": 105}, {"time": 104160, "pitch": 89, "duration": 200, "velocity": 105}, {"time": 104400, "pitch": 92, "duration": 70, "velocity": 105}, {"time": 105120, "pitch": 92, "duration": 70, "velocity": 105}, {"time": 105240, "pitch": 87, "duration": 70, "velocity": 105}, {"time": 105360, "pitch": 89, "duration": 80, "velocity": 105}, {"time": 105480, "pitch": 92, "duration": 270, "velocity": 105}, {"time": 105840, "pitch": 89, "duration": 70, "velocity": 105}, {"time": 107040, "pitch": 89, "duration": 80, "velocity": 105}, {"time": 107160, "pitch": 91, "duration": 60, "velocity": 105}, {"time": 107280, "pitch": 92, "duration": 80, "velocity": 105}, {"time": 107400, "pitch": 91, "duration": 220, "velocity": 105}, {"time": 107640, "pitch": 91, "duration": 60, "velocity": 105}, {"time": 107760, "pitch": 92, "duration": 80, "velocity": 105}, {"time": 107880, "pitch": 93, "duration": 80, "velocity": 105}, {"time": 108000, "pitch": 94, "duration": 80, "velocity": 105}, {"time": 108120, "pitch": 87, "duration": 270, "velocity": 105}, {"time": 108960, "pitch": 88, "duration": 70, "velocity": 105}, {"time": 109080, "pitch": 90, "duration": 70, "velocity": 105}, {"time": 109200, "pitch": 91, "duration": 70, "velocity": 105}, {"time": 109320, "pitch": 90, "duration": 200, "velocity": 105}, {"time": 109560, "pitch": 90, "duration": 70, "velocity": 105}, {"time": 109680, "pitch": 91, "duration": 80, "velocity": 105}, {"time": 109800, "pitch": 92, "duration": 80, "velocity": 105}, {"time": 109920, "pitch": 93, "duration": 90, "velocity": 105}, {"time": 110040, "pitch": 86, "duration": 310, "velocity": 105}, {"time": 110880, "pitch": 84, "duration": 80, "velocity": 105}, {"time": 111000, "pitch": 85, "duration": 60, "velocity": 105}, {"time": 111120, "pitch": 87, "duration": 70, "velocity": 105}, {"time": 111240, "pitch": 85, "duration": 180, "velocity": 105}, {"time": 111480, "pitch": 85, "duration": 80, "velocity": 105}, {"time": 111600, "pitch": 87, "duration": 70, "velocity": 105}, {"time": 111720, "pitch": 88, "duration": 70, "velocity": 105}, {"time": 111840, "pitch": 89, "duration": 80, "velocity": 105}, {"time": 111960, "pitch": 92, "duration": 310, "velocity": 105}, {"time": 112320, "pitch": 91, "duration": 1670, "velocity": 90}, {"time": 114360, "pitch": 91, "duration": 90, "velocity": 105}, {"time": 114600, "pitch": 91, "duration": 70, "velocity": 105}, {"time": 114720, "pitch": 91, "duration": 60, "velocity": 105}, {"time": 114840, "pitch": 91, "duration": 90, "velocity": 105}, {"time": 115080, "pitch": 91, "duration": 70, "velocity": 105}, {"time": 115200, "pitch": 91, "duration": 70, "velocity": 105}, {"time": 115320, "pitch": 91, "duration": 100, "velocity": 105}, {"time": 115560, "pitch": 91, "duration": 100, "velocity": 105}, {"time": 115680, "pitch": 77, "duration": 140, "velocity": 115}, {"time": 115920, "pitch": 79, "duration": 130, "velocity": 115}, {"time": 116160, "pitch": 81, "duration": 90, "velocity": 115}, {"time": 116400, "pitch": 79, "duration": 90, "velocity": 115}, {"time": 116640, "pitch": 77, "duration": 100, "velocity": 115}, {"time": 116880, "pitch": 74, "duration": 80, "velocity": 115}, {"time": 117000, "pitch": 77, "duration": 480, "velocity": 115}, {"time": 117600, "pitch": 77, "duration": 90, "velocity": 115}, {"time": 117840, "pitch": 79, "duration": 110, "velocity": 115}, {"time": 118080, "pitch": 81, "duration": 100, "velocity": 115}, {"time": 118320, "pitch": 79, "duration": 100, "velocity": 115}, {"time": 118560, "pitch": 77, "duration": 120, "velocity": 115}, {"time": 118800, "pitch": 74, "duration": 80, "velocity": 115}, {"time": 118920, "pitch": 77, "duration": 500, "velocity": 115}, {"time": 119520, "pitch": 77, "duration": 140, "velocity": 110}, {"time": 119760, "pitch": 79, "duration": 110, "velocity": 115}, {"time": 120000, "pitch": 81, "duration": 160, "velocity": 115}, {"time": 120240, "pitch": 84, "duration": 80, "velocity": 115}, {"time": 120480, "pitch": 84, "duration": 210, "velocity": 115}, {"time": 120720, "pitch": 81, "duration": 60, "velocity": 110}, {"time": 120840, "pitch": 86, "duration": 290, "velocity": 110}, {"time": 121200, "pitch": 84, "duration": 100, "velocity": 115}, {"time": 121440, "pitch": 81, "duration": 110, "velocity": 110}, {"time": 121560, "pitch": 79, "duration": 90, "velocity": 102}, {"time": 121680, "pitch": 77, "duration": 90, "velocity": 110}, {"time": 121800, "pitch": 79, "duration": 120, "velocity": 101}, {"time": 121920, "pitch": 79, "duration": 1020, "velocity": 101}, {"time": 123360, "pitch": 77, "duration": 160, "velocity": 115}, {"time": 123600, "pitch": 79, "duration": 100, "velocity": 115}, {"time": 123840, "pitch": 81, "duration": 90, "velocity": 115}, {"time": 124080, "pitch": 79, "duration": 90, "velocity": 115}, {"time": 124320, "pitch": 77, "duration": 100, "velocity": 115}, {"time": 124560, "pitch": 74, "duration": 80, "velocity": 115}, {"time": 124680, "pitch": 77, "duration": 480, "velocity": 115}, {"time": 125280, "pitch": 77, "duration": 90, "velocity": 115}, {"time": 125520, "pitch": 79, "duration": 110, "velocity": 115}, {"time": 125760, "pitch": 81, "duration": 100, "velocity": 115}, {"time": 126000, "pitch": 79, "duration": 100, "velocity": 115}, {"time": 126240, "pitch": 77, "duration": 120, "velocity": 115}, {"time": 126480, "pitch": 74, "duration": 80, "velocity": 115}, {"time": 126600, "pitch": 77, "duration": 500, "velocity": 115}, {"time": 127200, "pitch": 77, "duration": 160, "velocity": 110}, {"time": 127440, "pitch": 79, "duration": 110, "velocity": 115}, {"time": 127680, "pitch": 81, "duration": 160, "velocity": 115}, {"time": 127920, "pitch": 84, "duration": 80, "velocity": 115}, {"time": 128160, "pitch": 84, "duration": 210, "velocity": 115}, {"time": 128400, "pitch": 81, "duration": 60, "velocity": 110}, {"time": 128520, "pitch": 86, "duration": 290, "velocity": 110}, {"time": 128880, "pitch": 84, "duration": 100, "velocity": 115}, {"time": 129120, "pitch": 81, "duration": 110, "velocity": 110}, {"time": 129240, "pitch": 79, "duration": 90, "velocity": 102}, {"time": 129360, "pitch": 77, "duration": 90, "velocity": 110}, {"time": 129480, "pitch": 79, "duration": 120, "velocity": 101}, {"time": 129600, "pitch": 79, "duration": 1020, "velocity": 101}, {"time": 153120, "pitch": 92, "duration": 440, "velocity": 90}, {"time": 153600, "pitch": 91, "duration": 510, "velocity": 90}, {"time": 154080, "pitch": 89, "duration": 480, "velocity": 90}, {"time": 154560, "pitch": 87, "duration": 1860, "velocity": 90}, {"time": 156480, "pitch": 89, "duration": 950, "velocity": 90}, {"time": 157440, "pitch": 91, "duration": 510, "velocity": 90}, {"time": 157920, "pitch": 92, "duration": 400, "velocity": 90}, {"time": 158640, "pitch": 89, "duration": 190, "velocity": 90}, {"time": 158880, "pitch": 87, "duration": 110, "velocity": 90}, {"time": 159360, "pitch": 89, "duration": 190, "velocity": 90}, {"time": 159600, "pitch": 87, "duration": 90, "velocity": 90}, {"time": 160320, "pitch": 82, "duration": 200, "velocity": 100}, {"time": 161640, "pitch": 75, "duration": 100, "velocity": 100}, {"time": 161760, "pitch": 77, "duration": 100, "velocity": 100}, {"time": 161880, "pitch": 80, "duration": 100, "velocity": 100}, {"time": 162000, "pitch": 82, "duration": 100, "velocity": 100}, {"time": 162120, "pitch": 77, "duration": 100, "velocity": 100}, {"time": 162240, "pitch": 75, "duration": 200, "velocity": 100}, {"time": 163680, "pitch": 75, "duration": 100, "velocity": 100}, {"time": 163800, "pitch": 77, "duration": 100, "velocity": 100}, {"time": 163920, "pitch": 80, "duration": 100, "velocity": 100}, {"time": 164040, "pitch": 77, "duration": 100, "velocity": 100}, {"time": 164160, "pitch": 82, "duration": 1760, "velocity": 95}, {"time": 166080, "pitch": 87, "duration": 90, "velocity": 90}, {"time": 166320, "pitch": 87, "duration": 420, "velocity": 95}, {"time": 166800, "pitch": 87, "duration": 1070, "velocity": 85}, {"time": 168480, "pitch": 92, "duration": 70, "velocity": 105}, {"time": 168600, "pitch": 87, "duration": 70, "velocity": 105}, {"time": 168720, "pitch": 89, "duration": 70, "velocity": 105}, {"time": 168840, "pitch": 92, "duration": 160, "velocity": 105}, {"time": 170400, "pitch": 96, "duration": 80, "velocity": 105}, {"time": 170520, "pitch": 92, "duration": 70, "velocity": 105}, {"time": 170640, "pitch": 94, "duration": 150, "velocity": 105}, {"time": 170760, "pitch": 92, "duration": 190, "velocity": 105}, {"time": 171000, "pitch": 92, "duration": 90, "velocity": 105}, {"time": 171120, "pitch": 87, "duration": 80, "velocity": 105}, {"time": 171360, "pitch": 89, "duration": 200, "velocity": 105}, {"time": 171600, "pitch": 92, "duration": 70, "velocity": 105}, {"time": 172320, "pitch": 92, "duration": 70, "velocity": 105}, {"time": 172440, "pitch": 87, "duration": 70, "velocity": 105}, {"time": 172560, "pitch": 89, "duration": 80, "velocity": 105}, {"time": 172680, "pitch": 92, "duration": 270, "velocity": 105}, {"time": 173040, "pitch": 89, "duration": 70, "velocity": 105}, {"time": 174240, "pitch": 87, "duration": 80, "velocity": 105}, {"time": 174480, "pitch": 89, "duration": 80, "velocity": 105}, {"time": 174720, "pitch": 91, "duration": 100, "velocity": 105}, {"time": 174960, "pitch": 92, "duration": 80, "velocity": 105}, {"time": 175200, "pitch": 94, "duration": 70, "velocity": 105}, {"time": 175320, "pitch": 87, "duration": 280, "velocity": 105}, {"time": 176160, "pitch": 92, "duration": 70, "velocity": 105}, {"time": 176280, "pitch": 87, "duration": 70, "velocity": 105}, {"time": 176400, "pitch": 89, "duration": 70, "velocity": 105}, {"time": 176520, "pitch": 92, "duration": 140, "velocity": 105}, {"time": 178080, "pitch": 96, "duration": 80, "velocity": 105}, {"time": 178200, "pitch": 92, "duration": 70, "velocity": 105}, {"time": 178320, "pitch": 94, "duration": 150, "velocity": 105}, {"time": 178440, "pitch": 92, "duration": 190, "velocity": 105}, {"time": 178680, "pitch": 92, "duration": 90, "velocity": 105}, {"time": 178800, "pitch": 87, "duration": 80, "velocity": 105}, {"time": 179040, "pitch": 89, "duration": 200, "velocity": 105}, {"time": 179280, "pitch": 92, "duration": 70, "velocity": 105}, {"time": 180000, "pitch": 92, "duration": 70, "velocity": 105}, {"time": 180120, "pitch": 87, "duration": 70, "velocity": 105}, {"time": 180240, "pitch": 89, "duration": 80, "velocity": 105}, {"time": 180360, "pitch": 92, "duration": 270, "velocity": 105}, {"time": 180720, "pitch": 89, "duration": 70, "velocity": 105}, {"time": 181920, "pitch": 89, "duration": 80, "velocity": 105}, {"time": 182040, "pitch": 91, "duration": 60, "velocity": 105}, {"time": 182160, "pitch": 92, "duration": 80, "velocity": 105}, {"time": 182280, "pitch": 91, "duration": 220, "velocity": 105}, {"time": 182520, "pitch": 91, "duration": 60, "velocity": 105}, {"time": 182640, "pitch": 92, "duration": 80, "velocity": 105}, {"time": 182760, "pitch": 93, "duration": 80, "velocity": 105}, {"time": 182880, "pitch": 94, "duration": 80, "velocity": 105}, {"time": 183000, "pitch": 99, "duration": 270, "velocity": 105}, {"time": 183840, "pitch": 94, "duration": 70, "velocity": 105}, {"time": 183960, "pitch": 89, "duration": 70, "velocity": 105}, {"time": 184080, "pitch": 91, "duration": 70, "velocity": 105}, {"time": 184200, "pitch": 94, "duration": 160, "velocity": 105}, {"time": 185760, "pitch": 98, "duration": 80, "velocity": 105}, {"time": 185880, "pitch": 94, "duration": 70, "velocity": 105}, {"time": 186000, "pitch": 96, "duration": 150, "velocity": 105}, {"time": 186120, "pitch": 94, "duration": 190, "velocity": 105}, {"time": 186360, "pitch": 94, "duration": 90, "velocity": 105}, {"time": 186480, "pitch": 89, "duration": 80, "velocity": 105}, {"time": 186720, "pitch": 91, "duration": 200, "velocity": 105}, {"time": 186960, "pitch": 94, "duration": 70, "velocity": 105}, {"time": 187680, "pitch": 94, "duration": 70, "velocity": 105}, {"time": 187800, "pitch": 89, "duration": 70, "velocity": 105}, {"time": 187920, "pitch": 91, "duration": 80, "velocity": 105}, {"time": 188040, "pitch": 94, "duration": 270, "velocity": 105}, {"time": 188400, "pitch": 91, "duration": 70, "velocity": 105}, {"time": 189600, "pitch": 89, "duration": 80, "velocity": 105}, {"time": 189840, "pitch": 91, "duration": 80, "velocity": 105}, {"time": 190080, "pitch": 93, "duration": 100, "velocity": 105}, {"time": 190320, "pitch": 94, "duration": 80, "velocity": 105}, {"time": 190560, "pitch": 96, "duration": 70, "velocity": 105}, {"time": 190680, "pitch": 89, "duration": 280, "velocity": 105}, {"time": 191520, "pitch": 94, "duration": 70, "velocity": 105}, {"time": 191640, "pitch": 89, "duration": 70, "velocity": 105}, {"time": 191760, "pitch": 91, "duration": 70, "velocity": 105}, {"time": 191880, "pitch": 94, "duration": 140, "velocity": 105}, {"time": 193440, "pitch": 98, "duration": 80, "velocity": 105}, {"time": 193560, "pitch": 94, "duration": 70, "velocity": 105}, {"time": 193680, "pitch": 96, "duration": 150, "velocity": 105}, {"time": 193800, "pitch": 94, "duration": 190, "velocity": 105}, {"time": 194040, "pitch": 94, "duration": 90, "velocity": 105}, {"time": 194160, "pitch": 89, "duration": 80, "velocity": 105}, {"time": 194400, "pitch": 91, "duration": 200, "velocity": 105}, {"time": 194640, "pitch": 94, "duration": 70, "velocity": 105}, {"time": 195360, "pitch": 94, "duration": 70, "velocity": 105}, {"time": 195480, "pitch": 89, "duration": 70, "velocity": 105}, {"time": 195600, "pitch": 91, "duration": 80, "velocity": 105}, {"time": 195720, "pitch": 94, "duration": 270, "velocity": 105}, {"time": 196080, "pitch": 91, "duration": 70, "velocity": 105}, {"time": 197280, "pitch": 91, "duration": 80, "velocity": 105}, {"time": 197400, "pitch": 93, "duration": 60, "velocity": 105}, {"time": 197520, "pitch": 94, "duration": 80, "velocity": 105}, {"time": 197640, "pitch": 93, "duration": 220, "velocity": 105}, {"time": 197880, "pitch": 93, "duration": 60, "velocity": 105}, {"time": 198000, "pitch": 94, "duration": 80, "velocity": 105}, {"time": 198120, "pitch": 95, "duration": 80, "velocity": 105}, {"time": 198240, "pitch": 96, "duration": 80, "velocity": 105}, {"time": 198360, "pitch": 101, "duration": 270, "velocity": 105}, {"time": 952, "pitch": 63, "duration": 112, "velocity": 60}, {"time": 962, "pitch": 75, "duration": 102, "velocity": 70}, {"time": 1074, "pitch": 75, "duration": 102, "velocity": 80}, {"time": 1084, "pitch": 63, "duration": 102, "velocity": 70}, {"time": 1196, "pitch": 63, "duration": 112, "velocity": 90}, {"time": 1206, "pitch": 75, "duration": 102, "velocity": 100}, {"time": 1318, "pitch": 75, "duration": 102, "velocity": 100}, {"time": 1328, "pitch": 63, "duration": 102, "velocity": 90}, {"time": 1440, "pitch": 63, "duration": 110, "velocity": 110}, {"time": 1450, "pitch": 75, "duration": 100, "velocity": 110}, {"time": 1560, "pitch": 75, "duration": 10, "velocity": 100}, {"time": 1570, "pitch": 63, "duration": 10, "velocity": 90}, {"time": 1680, "pitch": 63, "duration": 10, "velocity": 80}, {"time": 1690, "pitch": 75, "duration": 10, "velocity": 90}, {"time": 1800, "pitch": 75, "duration": 100, "velocity": 90}, {"time": 1810, "pitch": 63, "duration": 100, "velocity": 80}, {"time": 1920, "pitch": 63, "duration": 10, "velocity": 60}, {"time": 1930, "pitch": 75, "duration": 10, "velocity": 70}, {"time": 2040, "pitch": 75, "duration": 100, "velocity": 80}, {"time": 2050, "pitch": 63, "duration": 100, "velocity": 70}, {"time": 2160, "pitch": 63, "duration": 110, "velocity": 90}, {"time": 2170, "pitch": 75, "duration": 100, "velocity": 100}, {"time": 2280, "pitch": 75, "duration": 100, "velocity": 100}, {"time": 2290, "pitch": 63, "duration": 100, "velocity": 90}, {"time": 2400, "pitch": 63, "duration": 80, "velocity": 110}, {"time": 2410, "pitch": 75, "duration": 80, "velocity": 110}, {"time": 2520, "pitch": 63, "duration": 10, "velocity": 80}, {"time": 2520, "pitch": 75, "duration": 10, "velocity": 90}, {"time": 2640, "pitch": 63, "duration": 10, "velocity": 70}, {"time": 2640, "pitch": 75, "duration": 10, "velocity": 80}, {"time": 2760, "pitch": 63, "duration": 10, "velocity": 80}, {"time": 2760, "pitch": 75, "duration": 10, "velocity": 90}, {"time": 2880, "pitch": 63, "duration": 110, "velocity": 60}, {"time": 2890, "pitch": 75, "duration": 100, "velocity": 70}, {"time": 3000, "pitch": 75, "duration": 100, "velocity": 80}, {"time": 3010, "pitch": 63, "duration": 100, "velocity": 70}, {"time": 3120, "pitch": 63, "duration": 110, "velocity": 90}, {"time": 3130, "pitch": 75, "duration": 100, "velocity": 100}, {"time": 3240, "pitch": 75, "duration": 100, "velocity": 100}, {"time": 3250, "pitch": 63, "duration": 100, "velocity": 90}, {"time": 3360, "pitch": 63, "duration": 110, "velocity": 110}, {"time": 3370, "pitch": 75, "duration": 100, "velocity": 110}, {"time": 3480, "pitch": 75, "duration": 10, "velocity": 100}, {"time": 3490, "pitch": 63, "duration": 10, "velocity": 90}, {"time": 3600, "pitch": 63, "duration": 10, "velocity": 80}, {"time": 3610, "pitch": 75, "duration": 10, "velocity": 90}, {"time": 3720, "pitch": 75, "duration": 100, "velocity": 90}, {"time": 3730, "pitch": 63, "duration": 100, "velocity": 80}, {"time": 3840, "pitch": 63, "duration": 10, "velocity": 60}, {"time": 3850, "pitch": 75, "duration": 10, "velocity": 70}, {"time": 3960, "pitch": 75, "duration": 100, "velocity": 80}, {"time": 3970, "pitch": 63, "duration": 100, "velocity": 70}, {"time": 4080, "pitch": 63, "duration": 110, "velocity": 90}, {"time": 4090, "pitch": 75, "duration": 100, "velocity": 100}, {"time": 4200, "pitch": 75, "duration": 100, "velocity": 100}, {"time": 4210, "pitch": 63, "duration": 100, "velocity": 90}, {"time": 4320, "pitch": 63, "duration": 80, "velocity": 110}, {"time": 4330, "pitch": 75, "duration": 80, "velocity": 110}, {"time": 4440, "pitch": 63, "duration": 10, "velocity": 80}, {"time": 4440, "pitch": 75, "duration": 10, "velocity": 90}, {"time": 4560, "pitch": 63, "duration": 10, "velocity": 70}, {"time": 4560, "pitch": 75, "duration": 10, "velocity": 80}, {"time": 4680, "pitch": 63, "duration": 10, "velocity": 80}, {"time": 4680, "pitch": 75, "duration": 10, "velocity": 90}, {"time": 4800, "pitch": 63, "duration": 110, "velocity": 60}, {"time": 4810, "pitch": 75, "duration": 100, "velocity": 70}, {"time": 4920, "pitch": 75, "duration": 100, "velocity": 80}, {"time": 4930, "pitch": 63, "duration": 100, "velocity": 70}, {"time": 5040, "pitch": 63, "duration": 110, "velocity": 90}, {"time": 5050, "pitch": 75, "duration": 100, "velocity": 100}, {"time": 5160, "pitch": 75, "duration": 100, "velocity": 100}, {"time": 5170, "pitch": 63, "duration": 100, "velocity": 90}, {"time": 5280, "pitch": 63, "duration": 110, "velocity": 110}, {"time": 5290, "pitch": 75, "duration": 100, "velocity": 110}, {"time": 5400, "pitch": 75, "duration": 10, "velocity": 100}, {"time": 5410, "pitch": 63, "duration": 10, "velocity": 90}, {"time": 5520, "pitch": 63, "duration": 10, "velocity": 80}, {"time": 5530, "pitch": 75, "duration": 10, "velocity": 90}, {"time": 5640, "pitch": 75, "duration": 100, "velocity": 90}, {"time": 5650, "pitch": 63, "duration": 100, "velocity": 80}, {"time": 5760, "pitch": 63, "duration": 10, "velocity": 60}, {"time": 5770, "pitch": 75, "duration": 10, "velocity": 70}, {"time": 5880, "pitch": 75, "duration": 100, "velocity": 80}, {"time": 5890, "pitch": 63, "duration": 100, "velocity": 70}, {"time": 6000, "pitch": 63, "duration": 110, "velocity": 90}, {"time": 6010, "pitch": 75, "duration": 100, "velocity": 100}, {"time": 6120, "pitch": 75, "duration": 100, "velocity": 100}, {"time": 6130, "pitch": 63, "duration": 100, "velocity": 90}, {"time": 6240, "pitch": 63, "duration": 80, "velocity": 110}, {"time": 6250, "pitch": 75, "duration": 80, "velocity": 110}, {"time": 6360, "pitch": 63, "duration": 10, "velocity": 80}, {"time": 6360, "pitch": 75, "duration": 10, "velocity": 90}, {"time": 6480, "pitch": 63, "duration": 10, "velocity": 70}, {"time": 6480, "pitch": 75, "duration": 10, "velocity": 80}, {"time": 6600, "pitch": 63, "duration": 10, "velocity": 80}, {"time": 6600, "pitch": 75, "duration": 10, "velocity": 90}, {"time": 6720, "pitch": 63, "duration": 110, "velocity": 100}, {"time": 6730, "pitch": 75, "duration": 100, "velocity": 110}, {"time": 6960, "pitch": 63, "duration": 450, "velocity": 100}, {"time": 6970, "pitch": 75, "duration": 450, "velocity": 110}, {"time": 7440, "pitch": 63, "duration": 1100, "velocity": 100}, {"time": 7450, "pitch": 75, "duration": 1150, "velocity": 110}, {"time": 8640, "pitch": 56, "duration": 110, "velocity": 60}, {"time": 8640, "pitch": 60, "duration": 100, "velocity": 50}, {"time": 8650, "pitch": 63, "duration": 100, "velocity": 60}, {"time": 8650, "pitch": 68, "duration": 100, "velocity": 70}, {"time": 8760, "pitch": 63, "duration": 100, "velocity": 80}, {"time": 8760, "pitch": 68, "duration": 110, "velocity": 90}, {"time": 8770, "pitch": 56, "duration": 100, "velocity": 80}, {"time": 8770, "pitch": 60, "duration": 100, "velocity": 70}, {"time": 8880, "pitch": 56, "duration": 110, "velocity": 90}, {"time": 8880, "pitch": 60, "duration": 100, "velocity": 80}, {"time": 8890, "pitch": 63, "duration": 100, "velocity": 90}, {"time": 8890, "pitch": 68, "duration": 100, "velocity": 100}, {"time": 9000, "pitch": 63, "duration": 100, "velocity": 80}, {"time": 9000, "pitch": 68, "duration": 110, "velocity": 90}, {"time": 9010, "pitch": 56, "duration": 100, "velocity": 80}, {"time": 9010, "pitch": 60, "duration": 100, "velocity": 70}, {"time": 9120, "pitch": 56, "duration": 110, "velocity": 90}, {"time": 9120, "pitch": 60, "duration": 100, "velocity": 80}, {"time": 9130, "pitch": 63, "duration": 100, "velocity": 90}, {"time": 9130, "pitch": 68, "duration": 100, "velocity": 100}, {"time": 9240, "pitch": 63, "duration": 10, "velocity": 80}, {"time": 9240, "pitch": 68, "duration": 10, "velocity": 90}, {"time": 9250, "pitch": 56, "duration": 10, "velocity": 80}, {"time": 9250, "pitch": 60, "duration": 10, "velocity": 70}, {"time": 9360, "pitch": 56, "duration": 10, "velocity": 80}, {"time": 9360, "pitch": 60, "duration": 10, "velocity": 70}, {"time": 9370, "pitch": 63, "duration": 10, "velocity": 80}, {"time": 9370, "pitch": 68, "duration": 10, "velocity": 90}, {"time": 9480, "pitch": 63, "duration": 100, "velocity": 90}, {"time": 9480, "pitch": 67, "duration": 100, "velocity": 100}, {"time": 9490, "pitch": 55, "duration": 100, "velocity": 90}, {"time": 9490, "pitch": 58, "duration": 100, "velocity": 80}, {"time": 9600, "pitch": 55, "duration": 10, "velocity": 60}, {"time": 9600, "pitch": 58, "duration": 10, "velocity": 50}, {"time": 9610, "pitch": 63, "duration": 10, "velocity": 60}, {"time": 9610, "pitch": 67, "duration": 10, "velocity": 70}, {"time": 9720, "pitch": 63, "duration": 100, "velocity": 70}, {"time": 9720, "pitch": 67, "duration": 110, "velocity": 80}, {"time": 9730, "pitch": 55, "duration": 100, "velocity": 70}, {"time": 9730, "pitch": 58, "duration": 100, "velocity": 60}, {"time": 9840, "pitch": 55, "duration": 110, "velocity": 80}, {"time": 9840, "pitch": 58, "duration": 100, "velocity": 70}, {"time": 9850, "pitch": 63, "duration": 100, "velocity": 80}, {"time": 9850, "pitch": 67, "duration": 100, "velocity": 90}, {"time": 9960, "pitch": 63, "duration": 100, "velocity": 80}, {"time": 9960, "pitch": 67, "duration": 110, "velocity": 90}, {"time": 9970, "pitch": 55, "duration": 100, "velocity": 80}, {"time": 9970, "pitch": 58, "duration": 100, "velocity": 70}, {"time": 10080, "pitch": 55, "duration": 110, "velocity": 90}, {"time": 10080, "pitch": 58, "duration": 100, "velocity": 80}, {"time": 10090, "pitch": 63, "duration": 100, "velocity": 90}, {"time": 10090, "pitch": 67, "duration": 100, "velocity": 100}, {"time": 10200, "pitch": 55, "duration": 10, "velocity": 80}, {"time": 10200, "pitch": 58, "duration": 10, "velocity": 70}, {"time": 10200, "pitch": 63, "duration": 10, "velocity": 80}, {"time": 10200, "pitch": 67, "duration": 10, "velocity": 90}, {"time": 10320, "pitch": 55, "duration": 10, "velocity": 70}, {"time": 10320, "pitch": 58, "duration": 10, "velocity": 60}, {"time": 10320, "pitch": 63, "duration": 10, "velocity": 70}, {"time": 10320, "pitch": 67, "duration": 10, "velocity": 80}, {"time": 10440, "pitch": 55, "duration": 10, "velocity": 60}, {"time": 10440, "pitch": 58, "duration": 10, "velocity": 50}, {"time": 10440, "pitch": 63, "duration": 10, "velocity": 60}, {"time": 10440, "pitch": 67, "duration": 10, "velocity": 70}, {"time": 10560, "pitch": 53, "duration": 110, "velocity": 60}, {"time": 10560, "pitch": 56, "duration": 100, "velocity": 50}, {"time": 10570, "pitch": 60, "duration": 100, "velocity": 60}, {"time": 10570, "pitch": 65, "duration": 100, "velocity": 70}, {"time": 10680, "pitch": 60, "duration": 100, "velocity": 80}, {"time": 10680, "pitch": 65, "duration": 110, "velocity": 90}, {"time": 10690, "pitch": 53, "duration": 100, "velocity": 80}, {"time": 10690, "pitch": 56, "duration": 100, "velocity": 70}, {"time": 10800, "pitch": 53, "duration": 110, "velocity": 90}, {"time": 10800, "pitch": 56, "duration": 100, "velocity": 80}, {"time": 10810, "pitch": 60, "duration": 100, "velocity": 90}, {"time": 10810, "pitch": 65, "duration": 100, "velocity": 100}, {"time": 10920, "pitch": 60, "duration": 100, "velocity": 80}, {"time": 10920, "pitch": 65, "duration": 110, "velocity": 90}, {"time": 10930, "pitch": 53, "duration": 100, "velocity": 80}, {"time": 10930, "pitch": 56, "duration": 100, "velocity": 70}, {"time": 11040, "pitch": 53, "duration": 110, "velocity": 90}, {"time": 11040, "pitch": 56, "duration": 100, "velocity": 80}, {"time": 11050, "pitch": 60, "duration": 100, "velocity": 90}, {"time": 11050, "pitch": 65, "duration": 100, "velocity": 100}, {"time": 11160, "pitch": 60, "duration": 10, "velocity": 80}, {"time": 11160, "pitch": 65, "duration": 10, "velocity": 90}, {"time": 11170, "pitch": 53, "duration": 10, "velocity": 80}, {"time": 11170, "pitch": 56, "duration": 10, "velocity": 70}, {"time": 11280, "pitch": 53, "duration": 10, "velocity": 80}, {"time": 11280, "pitch": 56, "duration": 10, "velocity": 70}, {"time": 11290, "pitch": 60, "duration": 10, "velocity": 80}, {"time": 11290, "pitch": 65, "duration": 10, "velocity": 90}, {"time": 11400, "pitch": 63, "duration": 100, "velocity": 90}, {"time": 11400, "pitch": 67, "duration": 100, "velocity": 100}, {"time": 11410, "pitch": 55, "duration": 100, "velocity": 90}, {"time": 11410, "pitch": 58, "duration": 100, "velocity": 80}, {"time": 11520, "pitch": 55, "duration": 10, "velocity": 60}, {"time": 11520, "pitch": 58, "duration": 10, "velocity": 50}, {"time": 11530, "pitch": 63, "duration": 10, "velocity": 60}, {"time": 11530, "pitch": 67, "duration": 10, "velocity": 70}, {"time": 11640, "pitch": 63, "duration": 100, "velocity": 70}, {"time": 11640, "pitch": 67, "duration": 110, "velocity": 80}, {"time": 11650, "pitch": 55, "duration": 100, "velocity": 70}, {"time": 11650, "pitch": 58, "duration": 100, "velocity": 60}, {"time": 11760, "pitch": 55, "duration": 110, "velocity": 80}, {"time": 11760, "pitch": 58, "duration": 100, "velocity": 70}, {"time": 11770, "pitch": 63, "duration": 100, "velocity": 80}, {"time": 11770, "pitch": 67, "duration": 100, "velocity": 90}, {"time": 11880, "pitch": 63, "duration": 100, "velocity": 80}, {"time": 11880, "pitch": 67, "duration": 110, "velocity": 90}, {"time": 11890, "pitch": 55, "duration": 100, "velocity": 80}, {"time": 11890, "pitch": 58, "duration": 100, "velocity": 70}, {"time": 12000, "pitch": 55, "duration": 110, "velocity": 90}, {"time": 12000, "pitch": 58, "duration": 100, "velocity": 80}, {"time": 12010, "pitch": 63, "duration": 100, "velocity": 90}, {"time": 12010, "pitch": 67, "duration": 100, "velocity": 100}, {"time": 12120, "pitch": 55, "duration": 10, "velocity": 80}, {"time": 12120, "pitch": 58, "duration": 10, "velocity": 70}, {"time": 12120, "pitch": 63, "duration": 10, "velocity": 80}, {"time": 12120, "pitch": 67, "duration": 10, "velocity": 90}, {"time": 12240, "pitch": 55, "duration": 10, "velocity": 70}, {"time": 12240, "pitch": 58, "duration": 10, "velocity": 60}, {"time": 12240, "pitch": 63, "duration": 10, "velocity": 70}, {"time": 12240, "pitch": 67, "duration": 10, "velocity": 80}, {"time": 12360, "pitch": 55, "duration": 10, "velocity": 60}, {"time": 12360, "pitch": 58, "duration": 10, "velocity": 50}, {"time": 12360, "pitch": 63, "duration": 10, "velocity": 60}, {"time": 12360, "pitch": 67, "duration": 10, "velocity": 70}, {"time": 12480, "pitch": 56, "duration": 110, "velocity": 60}, {"time": 12480, "pitch": 61, "duration": 100, "velocity": 50}, {"time": 12490, "pitch": 65, "duration": 100, "velocity": 60}, {"time": 12490, "pitch": 68, "duration": 100, "velocity": 70}, {"time": 12600, "pitch": 65, "duration": 100, "velocity": 80}, {"time": 12600, "pitch": 68, "duration": 110, "velocity": 90}, {"time": 12610, "pitch": 56, "duration": 100, "velocity": 80}, {"time": 12610, "pitch": 61, "duration": 100, "velocity": 70}, {"time": 12720, "pitch": 56, "duration": 110, "velocity": 90}, {"time": 12720, "pitch": 61, "duration": 100, "velocity": 80}, {"time": 12730, "pitch": 65, "duration": 100, "velocity": 90}, {"time": 12730, "pitch": 68, "duration": 100, "velocity": 100}, {"time": 12840, "pitch": 65, "duration": 100, "velocity": 80}, {"time": 12840, "pitch": 68, "duration": 110, "velocity": 90}, {"time": 12850, "pitch": 56, "duration": 100, "velocity": 80}, {"time": 12850, "pitch": 61, "duration": 100, "velocity": 70}, {"time": 12960, "pitch": 56, "duration": 110, "velocity": 90}, {"time": 12960, "pitch": 61, "duration": 100, "velocity": 80}, {"time": 12970, "pitch": 65, "duration": 100, "velocity": 90}, {"time": 12970, "pitch": 68, "duration": 100, "velocity": 100}, {"time": 13080, "pitch": 65, "duration": 10, "velocity": 80}, {"time": 13080, "pitch": 68, "duration": 10, "velocity": 90}, {"time": 13090, "pitch": 56, "duration": 10, "velocity": 80}, {"time": 13090, "pitch": 61, "duration": 10, "velocity": 70}, {"time": 13200, "pitch": 56, "duration": 10, "velocity": 80}, {"time": 13200, "pitch": 61, "duration": 10, "velocity": 70}, {"time": 13210, "pitch": 65, "duration": 10, "velocity": 80}, {"time": 13210, "pitch": 68, "duration": 10, "velocity": 90}, {"time": 13320, "pitch": 63, "duration": 100, "velocity": 90}, {"time": 13320, "pitch": 68, "duration": 100, "velocity": 100}, {"time": 13330, "pitch": 56, "duration": 100, "velocity": 90}, {"time": 13330, "pitch": 60, "duration": 100, "velocity": 80}, {"time": 13440, "pitch": 56, "duration": 10, "velocity": 60}, {"time": 13440, "pitch": 60, "duration": 10, "velocity": 50}, {"time": 13450, "pitch": 63, "duration": 10, "velocity": 60}, {"time": 13450, "pitch": 68, "duration": 10, "velocity": 70}, {"time": 13560, "pitch": 63, "duration": 100, "velocity": 70}, {"time": 13560, "pitch": 68, "duration": 110, "velocity": 80}, {"time": 13570, "pitch": 56, "duration": 100, "velocity": 70}, {"time": 13570, "pitch": 60, "duration": 100, "velocity": 60}, {"time": 13680, "pitch": 56, "duration": 110, "velocity": 80}, {"time": 13680, "pitch": 60, "duration": 100, "velocity": 70}, {"time": 13690, "pitch": 63, "duration": 100, "velocity": 80}, {"time": 13690, "pitch": 68, "duration": 100, "velocity": 90}, {"time": 13800, "pitch": 63, "duration": 100, "velocity": 80}, {"time": 13800, "pitch": 68, "duration": 110, "velocity": 90}, {"time": 13810, "pitch": 56, "duration": 100, "velocity": 80}, {"time": 13810, "pitch": 60, "duration": 100, "velocity": 70}, {"time": 13920, "pitch": 56, "duration": 110, "velocity": 90}, {"time": 13920, "pitch": 60, "duration": 100, "velocity": 80}, {"time": 13930, "pitch": 63, "duration": 100, "velocity": 90}, {"time": 13930, "pitch": 68, "duration": 100, "velocity": 100}, {"time": 14040, "pitch": 56, "duration": 10, "velocity": 80}, {"time": 14040, "pitch": 60, "duration": 10, "velocity": 70}, {"time": 14040, "pitch": 63, "duration": 10, "velocity": 80}, {"time": 14040, "pitch": 68, "duration": 10, "velocity": 90}, {"time": 14160, "pitch": 53, "duration": 460, "velocity": 100}, {"time": 14160, "pitch": 56, "duration": 460, "velocity": 90}, {"time": 14170, "pitch": 61, "duration": 450, "velocity": 80}, {"time": 14170, "pitch": 65, "duration": 450, "velocity": 90}, {"time": 14640, "pitch": 53, "duration": 110, "velocity": 90}, {"time": 14640, "pitch": 56, "duration": 100, "velocity": 80}, {"time": 14650, "pitch": 61, "duration": 100, "velocity": 90}, {"time": 14650, "pitch": 65, "duration": 100, "velocity": 100}, {"time": 14760, "pitch": 61, "duration": 100, "velocity": 80}, {"time": 14760, "pitch": 65, "duration": 110, "velocity": 90}, {"time": 14770, "pitch": 53, "duration": 100, "velocity": 80}, {"time": 14770, "pitch": 56, "duration": 100, "velocity": 70}, {"time": 14880, "pitch": 53, "duration": 110, "velocity": 90}, {"time": 14880, "pitch": 56, "duration": 100, "velocity": 80}, {"time": 14890, "pitch": 61, "duration": 100, "velocity": 90}, {"time": 14890, "pitch": 65, "duration": 100, "velocity": 100}, {"time": 15000, "pitch": 61, "duration": 10, "velocity": 80}, {"time": 15000, "pitch": 65, "duration": 10, "velocity": 90}, {"time": 15010, "pitch": 53, "duration": 10, "velocity": 80}, {"time": 15010, "pitch": 56, "duration": 10, "velocity": 70}, {"time": 15120, "pitch": 63, "duration": 220, "velocity": 90}, {"time": 15120, "pitch": 67, "duration": 220, "velocity": 100}, {"time": 15130, "pitch": 55, "duration": 220, "velocity": 90}, {"time": 15130, "pitch": 58, "duration": 220, "velocity": 80}, {"time": 15360, "pitch": 55, "duration": 10, "velocity": 60}, {"time": 15360, "pitch": 58, "duration": 10, "velocity": 50}, {"time": 15370, "pitch": 63, "duration": 10, "velocity": 60}, {"time": 15370, "pitch": 67, "duration": 10, "velocity": 70}, {"time": 15480, "pitch": 63, "duration": 100, "velocity": 70}, {"time": 15480, "pitch": 67, "duration": 110, "velocity": 80}, {"time": 15490, "pitch": 55, "duration": 100, "velocity": 70}, {"time": 15490, "pitch": 58, "duration": 100, "velocity": 60}, {"time": 15600, "pitch": 55, "duration": 110, "velocity": 80}, {"time": 15600, "pitch": 58, "duration": 100, "velocity": 70}, {"time": 15610, "pitch": 63, "duration": 100, "velocity": 80}, {"time": 15610, "pitch": 67, "duration": 100, "velocity": 90}, {"time": 15720, "pitch": 63, "duration": 100, "velocity": 80}, {"time": 15720, "pitch": 67, "duration": 110, "velocity": 90}, {"time": 15730, "pitch": 55, "duration": 100, "velocity": 80}, {"time": 15730, "pitch": 58, "duration": 100, "velocity": 70}, {"time": 15840, "pitch": 55, "duration": 110, "velocity": 90}, {"time": 15840, "pitch": 58, "duration": 100, "velocity": 80}, {"time": 15850, "pitch": 63, "duration": 100, "velocity": 90}, {"time": 15850, "pitch": 67, "duration": 100, "velocity": 100}, {"time": 15960, "pitch": 55, "duration": 10, "velocity": 80}, {"time": 15960, "pitch": 58, "duration": 10, "velocity": 70}, {"time": 15960, "pitch": 63, "duration": 10, "velocity": 80}, {"time": 15960, "pitch": 67, "duration": 10, "velocity": 90}, {"time": 16080, "pitch": 55, "duration": 10, "velocity": 70}, {"time": 16080, "pitch": 58, "duration": 10, "velocity": 60}, {"time": 16080, "pitch": 63, "duration": 10, "velocity": 70}, {"time": 16080, "pitch": 67, "duration": 10, "velocity": 80}, {"time": 16200, "pitch": 55, "duration": 10, "velocity": 60}, {"time": 16200, "pitch": 58, "duration": 10, "velocity": 50}, {"time": 16200, "pitch": 63, "duration": 10, "velocity": 60}, {"time": 16200, "pitch": 67, "duration": 10, "velocity": 70}, {"time": 16320, "pitch": 56, "duration": 110, "velocity": 60}, {"time": 16320, "pitch": 60, "duration": 100, "velocity": 50}, {"time": 16330, "pitch": 63, "duration": 100, "velocity": 60}, {"time": 16330, "pitch": 68, "duration": 100, "velocity": 70}, {"time": 16440, "pitch": 63, "duration": 100, "velocity": 80}, {"time": 16440, "pitch": 68, "duration": 110, "velocity": 90}, {"time": 16450, "pitch": 56, "duration": 100, "velocity": 80}, {"time": 16450, "pitch": 60, "duration": 100, "velocity": 70}, {"time": 16560, "pitch": 56, "duration": 110, "velocity": 90}, {"time": 16560, "pitch": 60, "duration": 100, "velocity": 80}, {"time": 16570, "pitch": 63, "duration": 100, "velocity": 90}, {"time": 16570, "pitch": 68, "duration": 100, "velocity": 100}, {"time": 16680, "pitch": 63, "duration": 100, "velocity": 80}, {"time": 16680, "pitch": 68, "duration": 110, "velocity": 90}, {"time": 16690, "pitch": 56, "duration": 100, "velocity": 80}, {"time": 16690, "pitch": 60, "duration": 100, "velocity": 70}, {"time": 16800, "pitch": 56, "duration": 110, "velocity": 90}, {"time": 16800, "pitch": 60, "duration": 100, "velocity": 80}, {"time": 16810, "pitch": 63, "duration": 100, "velocity": 90}, {"time": 16810, "pitch": 68, "duration": 100, "velocity": 100}, {"time": 16920, "pitch": 63, "duration": 10, "velocity": 80}, {"time": 16920, "pitch": 68, "duration": 10, "velocity": 90}, {"time": 16930, "pitch": 56, "duration": 10, "velocity": 80}, {"time": 16930, "pitch": 60, "duration": 10, "velocity": 70}, {"time": 17040, "pitch": 56, "duration": 10, "velocity": 80}, {"time": 17040, "pitch": 60, "duration": 10, "velocity": 70}, {"time": 17050, "pitch": 63, "duration": 10, "velocity": 80}, {"time": 17050, "pitch": 68, "duration": 10, "velocity": 90}, {"time": 17160, "pitch": 63, "duration": 100, "velocity": 90}, {"time": 17160, "pitch": 67, "duration": 100, "velocity": 100}, {"time": 17170, "pitch": 55, "duration": 100, "velocity": 90}, {"time": 17170, "pitch": 58, "duration": 100, "velocity": 80}, {"time": 17280, "pitch": 55, "duration": 10, "velocity": 60}, {"time": 17280, "pitch": 58, "duration": 10, "velocity": 50}, {"time": 17290, "pitch": 63, "duration": 10, "velocity": 60}, {"time": 17290, "pitch": 67, "duration": 10, "velocity": 70}, {"time": 17400, "pitch": 63, "duration": 100, "velocity": 70}, {"time": 17400, "pitch": 67, "duration": 110, "velocity": 80}, {"time": 17410, "pitch": 55, "duration": 100, "velocity": 70}, {"time": 17410, "pitch": 58, "duration": 100, "velocity": 60}, {"time": 17520, "pitch": 55, "duration": 110, "velocity": 80}, {"time": 17520, "pitch": 58, "duration": 100, "velocity": 70}, {"time": 17530, "pitch": 63, "duration": 100, "velocity": 80}, {"time": 17530, "pitch": 67, "duration": 100, "velocity": 90}, {"time": 17640, "pitch": 63, "duration": 100, "velocity": 80}, {"time": 17640, "pitch": 67, "duration": 110, "velocity": 90}, {"time": 17650, "pitch": 55, "duration": 100, "velocity": 80}, {"time": 17650, "pitch": 58, "duration": 100, "velocity": 70}, {"time": 17760, "pitch": 55, "duration": 110, "velocity": 90}, {"time": 17760, "pitch": 58, "duration": 100, "velocity": 80}, {"time": 17770, "pitch": 63, "duration": 100, "velocity": 90}, {"time": 17770, "pitch": 67, "duration": 100, "velocity": 100}, {"time": 17880, "pitch": 55, "duration": 10, "velocity": 80}, {"time": 17880, "pitch": 58, "duration": 10, "velocity": 70}, {"time": 17880, "pitch": 63, "duration": 10, "velocity": 80}, {"time": 17880, "pitch": 67, "duration": 10, "velocity": 90}, {"time": 18000, "pitch": 55, "duration": 10, "velocity": 70}, {"time": 18000, "pitch": 58, "duration": 10, "velocity": 60}, {"time": 18000, "pitch": 63, "duration": 10, "velocity": 70}, {"time": 18000, "pitch": 67, "duration": 10, "velocity": 80}, {"time": 18120, "pitch": 55, "duration": 10, "velocity": 60}, {"time": 18120, "pitch": 58, "duration": 10, "velocity": 50}, {"time": 18120, "pitch": 63, "duration": 10, "velocity": 60}, {"time": 18120, "pitch": 67, "duration": 10, "velocity": 70}, {"time": 18240, "pitch": 53, "duration": 110, "velocity": 60}, {"time": 18240, "pitch": 56, "duration": 100, "velocity": 50}, {"time": 18250, "pitch": 60, "duration": 100, "velocity": 60}, {"time": 18250, "pitch": 65, "duration": 100, "velocity": 70}, {"time": 18360, "pitch": 60, "duration": 100, "velocity": 80}, {"time": 18360, "pitch": 65, "duration": 110, "velocity": 90}, {"time": 18370, "pitch": 53, "duration": 100, "velocity": 80}, {"time": 18370, "pitch": 56, "duration": 100, "velocity": 70}, {"time": 18480, "pitch": 53, "duration": 110, "velocity": 90}, {"time": 18480, "pitch": 56, "duration": 100, "velocity": 80}, {"time": 18490, "pitch": 60, "duration": 100, "velocity": 90}, {"time": 18490, "pitch": 65, "duration": 100, "velocity": 100}, {"time": 18600, "pitch": 60, "duration": 100, "velocity": 80}, {"time": 18600, "pitch": 65, "duration": 110, "velocity": 90}, {"time": 18610, "pitch": 53, "duration": 100, "velocity": 80}, {"time": 18610, "pitch": 56, "duration": 100, "velocity": 70}, {"time": 18720, "pitch": 53, "duration": 110, "velocity": 90}, {"time": 18720, "pitch": 56, "duration": 100, "velocity": 80}, {"time": 18730, "pitch": 60, "duration": 100, "velocity": 90}, {"time": 18730, "pitch": 65, "duration": 100, "velocity": 100}, {"time": 18840, "pitch": 60, "duration": 10, "velocity": 80}, {"time": 18840, "pitch": 65, "duration": 10, "velocity": 90}, {"time": 18850, "pitch": 53, "duration": 10, "velocity": 80}, {"time": 18850, "pitch": 56, "duration": 10, "velocity": 70}, {"time": 18960, "pitch": 53, "duration": 10, "velocity": 80}, {"time": 18960, "pitch": 56, "duration": 10, "velocity": 70}, {"time": 18970, "pitch": 60, "duration": 10, "velocity": 80}, {"time": 18970, "pitch": 65, "duration": 10, "velocity": 90}, {"time": 19080, "pitch": 63, "duration": 100, "velocity": 90}, {"time": 19080, "pitch": 67, "duration": 100, "velocity": 100}, {"time": 19090, "pitch": 55, "duration": 100, "velocity": 90}, {"time": 19090, "pitch": 58, "duration": 100, "velocity": 80}, {"time": 19200, "pitch": 55, "duration": 10, "velocity": 60}, {"time": 19200, "pitch": 58, "duration": 10, "velocity": 50}, {"time": 19210, "pitch": 63, "duration": 10, "velocity": 60}, {"time": 19210, "pitch": 67, "duration": 10, "velocity": 70}, {"time": 19320, "pitch": 63, "duration": 100, "velocity": 70}, {"time": 19320, "pitch": 67, "duration": 110, "velocity": 80}, {"time": 19330, "pitch": 55, "duration": 100, "velocity": 70}, {"time": 19330, "pitch": 58, "duration": 100, "velocity": 60}, {"time": 19440, "pitch": 55, "duration": 110, "velocity": 80}, {"time": 19440, "pitch": 58, "duration": 100, "velocity": 70}, {"time": 19450, "pitch": 63, "duration": 100, "velocity": 80}, {"time": 19450, "pitch": 67, "duration": 100, "velocity": 90}, {"time": 19560, "pitch": 63, "duration": 100, "velocity": 80}, {"time": 19560, "pitch": 67, "duration": 110, "velocity": 90}, {"time": 19570, "pitch": 55, "duration": 100, "velocity": 80}, {"time": 19570, "pitch": 58, "duration": 100, "velocity": 70}, {"time": 19680, "pitch": 55, "duration": 110, "velocity": 90}, {"time": 19680, "pitch": 58, "duration": 100, "velocity": 80}, {"time": 19690, "pitch": 63, "duration": 100, "velocity": 90}, {"time": 19690, "pitch": 67, "duration": 100, "velocity": 100}, {"time": 19800, "pitch": 55, "duration": 10, "velocity": 80}, {"time": 19800, "pitch": 58, "duration": 10, "velocity": 70}, {"time": 19800, "pitch": 63, "duration": 10, "velocity": 80}, {"time": 19800, "pitch": 67, "duration": 10, "velocity": 90}, {"time": 19920, "pitch": 55, "duration": 10, "velocity": 70}, {"time": 19920, "pitch": 58, "duration": 10, "velocity": 60}, {"time": 19920, "pitch": 63, "duration": 10, "velocity": 70}, {"time": 19920, "pitch": 67, "duration": 10, "velocity": 80}, {"time": 20040, "pitch": 55, "duration": 10, "velocity": 60}, {"time": 20040, "pitch": 58, "duration": 10, "velocity": 50}, {"time": 20040, "pitch": 63, "duration": 10, "velocity": 60}, {"time": 20040, "pitch": 67, "duration": 10, "velocity": 70}, {"time": 20160, "pitch": 56, "duration": 110, "velocity": 60}, {"time": 20160, "pitch": 61, "duration": 100, "velocity": 50}, {"time": 20170, "pitch": 65, "duration": 100, "velocity": 60}, {"time": 20170, "pitch": 68, "duration": 100, "velocity": 70}, {"time": 20280, "pitch": 65, "duration": 100, "velocity": 80}, {"time": 20280, "pitch": 68, "duration": 110, "velocity": 90}, {"time": 20290, "pitch": 56, "duration": 100, "velocity": 80}, {"time": 20290, "pitch": 61, "duration": 100, "velocity": 70}, {"time": 20400, "pitch": 56, "duration": 110, "velocity": 90}, {"time": 20400, "pitch": 61, "duration": 100, "velocity": 80}, {"time": 20410, "pitch": 65, "duration": 100, "velocity": 90}, {"time": 20410, "pitch": 68, "duration": 100, "velocity": 100}, {"time": 20520, "pitch": 65, "duration": 100, "velocity": 80}, {"time": 20520, "pitch": 68, "duration": 110, "velocity": 90}, {"time": 20530, "pitch": 56, "duration": 100, "velocity": 80}, {"time": 20530, "pitch": 61, "duration": 100, "velocity": 70}, {"time": 20640, "pitch": 56, "duration": 110, "velocity": 90}, {"time": 20640, "pitch": 61, "duration": 100, "velocity": 80}, {"time": 20650, "pitch": 65, "duration": 100, "velocity": 90}, {"time": 20650, "pitch": 68, "duration": 100, "velocity": 100}, {"time": 20760, "pitch": 65, "duration": 10, "velocity": 80}, {"time": 20760, "pitch": 68, "duration": 10, "velocity": 90}, {"time": 20770, "pitch": 56, "duration": 10, "velocity": 80}, {"time": 20770, "pitch": 61, "duration": 10, "velocity": 70}, {"time": 20880, "pitch": 56, "duration": 10, "velocity": 80}, {"time": 20880, "pitch": 61, "duration": 10, "velocity": 70}, {"time": 20890, "pitch": 65, "duration": 10, "velocity": 80}, {"time": 20890, "pitch": 68, "duration": 10, "velocity": 90}, {"time": 21000, "pitch": 63, "duration": 100, "velocity": 90}, {"time": 21000, "pitch": 68, "duration": 100, "velocity": 100}, {"time": 21010, "pitch": 56, "duration": 100, "velocity": 90}, {"time": 21010, "pitch": 60, "duration": 100, "velocity": 80}, {"time": 21120, "pitch": 56, "duration": 10, "velocity": 60}, {"time": 21120, "pitch": 60, "duration": 10, "velocity": 50}, {"time": 21130, "pitch": 63, "duration": 10, "velocity": 60}, {"time": 21130, "pitch": 68, "duration": 10, "velocity": 70}, {"time": 21240, "pitch": 63, "duration": 100, "velocity": 70}, {"time": 21240, "pitch": 68, "duration": 110, "velocity": 80}, {"time": 21250, "pitch": 56, "duration": 100, "velocity": 70}, {"time": 21250, "pitch": 60, "duration": 100, "velocity": 60}, {"time": 21360, "pitch": 56, "duration": 110, "velocity": 80}, {"time": 21360, "pitch": 60, "duration": 100, "velocity": 70}, {"time": 21370, "pitch": 63, "duration": 100, "velocity": 80}, {"time": 21370, "pitch": 68, "duration": 100, "velocity": 90}, {"time": 21480, "pitch": 63, "duration": 100, "velocity": 80}, {"time": 21480, "pitch": 68, "duration": 110, "velocity": 90}, {"time": 21490, "pitch": 56, "duration": 100, "velocity": 80}, {"time": 21490, "pitch": 60, "duration": 100, "velocity": 70}, {"time": 21600, "pitch": 56, "duration": 110, "velocity": 90}, {"time": 21600, "pitch": 60, "duration": 100, "velocity": 80}, {"time": 21610, "pitch": 63, "duration": 100, "velocity": 90}, {"time": 21610, "pitch": 68, "duration": 100, "velocity": 100}, {"time": 21720, "pitch": 56, "duration": 10, "velocity": 80}, {"time": 21720, "pitch": 60, "duration": 10, "velocity": 70}, {"time": 21720, "pitch": 63, "duration": 10, "velocity": 80}, {"time": 21720, "pitch": 68, "duration": 10, "velocity": 90}, {"time": 21840, "pitch": 53, "duration": 460, "velocity": 100}, {"time": 21840, "pitch": 56, "duration": 460, "velocity": 90}, {"time": 21850, "pitch": 61, "duration": 450, "velocity": 80}, {"time": 21850, "pitch": 65, "duration": 450, "velocity": 90}, {"time": 22320, "pitch": 53, "duration": 110, "velocity": 90}, {"time": 22320, "pitch": 56, "duration": 100, "velocity": 80}, {"time": 22330, "pitch": 61, "duration": 100, "velocity": 90}, {"time": 22330, "pitch": 65, "duration": 100, "velocity": 100}, {"time": 22440, "pitch": 61, "duration": 100, "velocity": 80}, {"time": 22440, "pitch": 65, "duration": 110, "velocity": 90}, {"time": 22450, "pitch": 53, "duration": 100, "velocity": 80}, {"time": 22450, "pitch": 56, "duration": 100, "velocity": 70}, {"time": 22560, "pitch": 53, "duration": 110, "velocity": 90}, {"time": 22560, "pitch": 56, "duration": 100, "velocity": 80}, {"time": 22570, "pitch": 61, "duration": 100, "velocity": 90}, {"time": 22570, "pitch": 65, "duration": 100, "velocity": 100}, {"time": 22680, "pitch": 61, "duration": 10, "velocity": 80}, {"time": 22680, "pitch": 65, "duration": 10, "velocity": 90}, {"time": 22690, "pitch": 53, "duration": 10, "velocity": 80}, {"time": 22690, "pitch": 56, "duration": 10, "velocity": 70}, {"time": 22800, "pitch": 63, "duration": 220, "velocity": 90}, {"time": 22800, "pitch": 67, "duration": 220, "velocity": 100}, {"time": 22810, "pitch": 55, "duration": 220, "velocity": 90}, {"time": 22810, "pitch": 58, "duration": 220, "velocity": 80}, {"time": 23040, "pitch": 55, "duration": 10, "velocity": 60}, {"time": 23040, "pitch": 58, "duration": 10, "velocity": 50}, {"time": 23050, "pitch": 63, "duration": 10, "velocity": 60}, {"time": 23050, "pitch": 67, "duration": 10, "velocity": 70}, {"time": 23160, "pitch": 63, "duration": 100, "velocity": 70}, {"time": 23160, "pitch": 67, "duration": 110, "velocity": 80}, {"time": 23170, "pitch": 55, "duration": 100, "velocity": 70}, {"time": 23170, "pitch": 58, "duration": 100, "velocity": 60}, {"time": 23280, "pitch": 55, "duration": 110, "velocity": 80}, {"time": 23280, "pitch": 58, "duration": 100, "velocity": 70}, {"time": 23290, "pitch": 63, "duration": 100, "velocity": 80}, {"time": 23290, "pitch": 67, "duration": 100, "velocity": 90}, {"time": 23400, "pitch": 63, "duration": 100, "velocity": 80}, {"time": 23400, "pitch": 67, "duration": 110, "velocity": 90}, {"time": 23410, "pitch": 55, "duration": 100, "velocity": 80}, {"time": 23410, "pitch": 58, "duration": 100, "velocity": 70}, {"time": 23520, "pitch": 55, "duration": 110, "velocity": 90}, {"time": 23520, "pitch": 58, "duration": 100, "velocity": 80}, {"time": 23530, "pitch": 63, "duration": 100, "velocity": 90}, {"time": 23530, "pitch": 67, "duration": 100, "velocity": 100}, {"time": 23640, "pitch": 55, "duration": 10, "velocity": 80}, {"time": 23640, "pitch": 58, "duration": 10, "velocity": 70}, {"time": 23640, "pitch": 63, "duration": 10, "velocity": 80}, {"time": 23640, "pitch": 67, "duration": 10, "velocity": 90}, {"time": 23760, "pitch": 55, "duration": 10, "velocity": 70}, {"time": 23760, "pitch": 58, "duration": 10, "velocity": 60}, {"time": 23760, "pitch": 63, "duration": 10, "velocity": 70}, {"time": 23760, "pitch": 67, "duration": 10, "velocity": 80}, {"time": 23880, "pitch": 55, "duration": 10, "velocity": 60}, {"time": 23880, "pitch": 58, "duration": 10, "velocity": 50}, {"time": 23880, "pitch": 63, "duration": 10, "velocity": 60}, {"time": 23880, "pitch": 67, "duration": 10, "velocity": 70}, {"time": 24000, "pitch": 68, "duration": 110, "velocity": 100}, {"time": 24010, "pitch": 80, "duration": 100, "velocity": 110}, {"time": 24120, "pitch": 80, "duration": 100, "velocity": 80}, {"time": 24130, "pitch": 68, "duration": 100, "velocity": 70}, {"time": 24240, "pitch": 68, "duration": 110, "velocity": 90}, {"time": 24250, "pitch": 80, "duration": 100, "velocity": 100}, {"time": 24360, "pitch": 80, "duration": 100, "velocity": 100}, {"time": 24370, "pitch": 68, "duration": 100, "velocity": 90}, {"time": 24480, "pitch": 68, "duration": 110, "velocity": 110}, {"time": 24490, "pitch": 80, "duration": 100, "velocity": 110}, {"time": 24600, "pitch": 80, "duration": 10, "velocity": 100}, {"time": 24610, "pitch": 68, "duration": 10, "velocity": 90}, {"time": 24720, "pitch": 68, "duration": 10, "velocity": 80}, {"time": 24730, "pitch": 80, "duration": 10, "velocity": 90}, {"time": 24840, "pitch": 80, "duration": 100, "velocity": 90}, {"time": 24850, "pitch": 68, "duration": 100, "velocity": 80}, {"time": 24960, "pitch": 68, "duration": 10, "velocity": 60}, {"time": 24970, "pitch": 80, "duration": 10, "velocity": 70}, {"time": 25080, "pitch": 80, "duration": 100, "velocity": 80}, {"time": 25090, "pitch": 68, "duration": 100, "velocity": 70}, {"time": 25200, "pitch": 68, "duration": 110, "velocity": 90}, {"time": 25210, "pitch": 80, "duration": 100, "velocity": 100}, {"time": 25320, "pitch": 80, "duration": 100, "velocity": 100}, {"time": 25330, "pitch": 68, "duration": 100, "velocity": 90}, {"time": 25440, "pitch": 68, "duration": 80, "velocity": 110}, {"time": 25450, "pitch": 80, "duration": 80, "velocity": 110}, {"time": 25560, "pitch": 68, "duration": 10, "velocity": 80}, {"time": 25560, "pitch": 80, "duration": 10, "velocity": 90}, {"time": 25680, "pitch": 68, "duration": 10, "velocity": 70}, {"time": 25680, "pitch": 80, "duration": 10, "velocity": 80}, {"time": 25800, "pitch": 68, "duration": 10, "velocity": 80}, {"time": 25800, "pitch": 80, "duration": 10, "velocity": 90}, {"time": 25920, "pitch": 68, "duration": 110, "velocity": 100}, {"time": 25930, "pitch": 80, "duration": 100, "velocity": 110}, {"time": 26040, "pitch": 80, "duration": 100, "velocity": 80}, {"time": 26050, "pitch": 68, "duration": 100, "velocity": 70}, {"time": 26160, "pitch": 68, "duration": 110, "velocity": 90}, {"time": 26170, "pitch": 80, "duration": 100, "velocity": 100}, {"time": 26280, "pitch": 80, "duration": 100, "velocity": 100}, {"time": 26290, "pitch": 68, "duration": 100, "velocity": 90}, {"time": 26400, "pitch": 68, "duration": 110, "velocity": 110}, {"time": 26410, "pitch": 80, "duration": 100, "velocity": 110}, {"time": 26520, "pitch": 80, "duration": 10, "velocity": 100}, {"time": 26530, "pitch": 68, "duration": 10, "velocity": 90}, {"time": 26640, "pitch": 68, "duration": 10, "velocity": 80}, {"time": 26650, "pitch": 80, "duration": 10, "velocity": 90}, {"time": 26760, "pitch": 80, "duration": 100, "velocity": 90}, {"time": 26770, "pitch": 68, "duration": 100, "velocity": 80}, {"time": 26880, "pitch": 68, "duration": 10, "velocity": 60}, {"time": 26890, "pitch": 80, "duration": 10, "velocity": 70}, {"time": 27000, "pitch": 80, "duration": 100, "velocity": 80}, {"time": 27010, "pitch": 68, "duration": 100, "velocity": 70}, {"time": 27120, "pitch": 68, "duration": 110, "velocity": 90}, {"time": 27130, "pitch": 80, "duration": 100, "velocity": 100}, {"time": 27240, "pitch": 80, "duration": 100, "velocity": 100}, {"time": 27250, "pitch": 68, "duration": 100, "velocity": 90}, {"time": 27360, "pitch": 68, "duration": 80, "velocity": 110}, {"time": 27370, "pitch": 80, "duration": 80, "velocity": 110}, {"time": 27480, "pitch": 68, "duration": 10, "velocity": 80}, {"time": 27480, "pitch": 80, "duration": 10, "velocity": 90}, {"time": 27600, "pitch": 68, "duration": 10, "velocity": 70}, {"time": 27600, "pitch": 80, "duration": 10, "velocity": 80}, {"time": 27720, "pitch": 68, "duration": 10, "velocity": 80}, {"time": 27720, "pitch": 80, "duration": 10, "velocity": 90}, {"time": 27840, "pitch": 67, "duration": 110, "velocity": 100}, {"time": 27850, "pitch": 79, "duration": 100, "velocity": 110}, {"time": 27960, "pitch": 79, "duration": 100, "velocity": 80}, {"time": 27970, "pitch": 67, "duration": 100, "velocity": 70}, {"time": 28080, "pitch": 67, "duration": 110, "velocity": 90}, {"time": 28090, "pitch": 79, "duration": 100, "velocity": 100}, {"time": 28200, "pitch": 79, "duration": 100, "velocity": 100}, {"time": 28210, "pitch": 67, "duration": 100, "velocity": 90}, {"time": 28320, "pitch": 67, "duration": 110, "velocity": 110}, {"time": 28330, "pitch": 79, "duration": 100, "velocity": 110}, {"time": 28440, "pitch": 79, "duration": 10, "velocity": 100}, {"time": 28450, "pitch": 67, "duration": 10, "velocity": 90}, {"time": 28560, "pitch": 67, "duration": 10, "velocity": 80}, {"time": 28570, "pitch": 79, "duration": 10, "velocity": 90}, {"time": 28680, "pitch": 79, "duration": 100, "velocity": 90}, {"time": 28690, "pitch": 67, "duration": 100, "velocity": 80}, {"time": 28800, "pitch": 67, "duration": 10, "velocity": 60}, {"time": 28810, "pitch": 79, "duration": 10, "velocity": 70}, {"time": 28920, "pitch": 79, "duration": 100, "velocity": 80}, {"time": 28930, "pitch": 67, "duration": 100, "velocity": 70}, {"time": 29040, "pitch": 67, "duration": 110, "velocity": 90}, {"time": 29050, "pitch": 79, "duration": 100, "velocity": 100}, {"time": 29160, "pitch": 79, "duration": 100, "velocity": 100}, {"time": 29170, "pitch": 67, "duration": 100, "velocity": 90}, {"time": 29280, "pitch": 67, "duration": 80, "velocity": 110}, {"time": 29290, "pitch": 79, "duration": 80, "velocity": 110}, {"time": 29400, "pitch": 67, "duration": 10, "velocity": 80}, {"time": 29400, "pitch": 79, "duration": 10, "velocity": 90}, {"time": 29520, "pitch": 67, "duration": 10, "velocity": 70}, {"time": 29520, "pitch": 79, "duration": 10, "velocity": 80}, {"time": 29640, "pitch": 67, "duration": 10, "velocity": 80}, {"time": 29640, "pitch": 79, "duration": 10, "velocity": 90}, {"time": 29760, "pitch": 60, "duration": 110, "velocity": 100}, {"time": 29770, "pitch": 72, "duration": 100, "velocity": 110}, {"time": 29880, "pitch": 72, "duration": 100, "velocity": 80}, {"time": 29890, "pitch": 60, "duration": 100, "velocity": 70}, {"time": 30000, "pitch": 60, "duration": 110, "velocity": 90}, {"time": 30010, "pitch": 72, "duration": 100, "velocity": 100}, {"time": 30120, "pitch": 72, "duration": 100, "velocity": 100}, {"time": 30130, "pitch": 60, "duration": 100, "velocity": 90}, {"time": 30240, "pitch": 60, "duration": 110, "velocity": 110}, {"time": 30250, "pitch": 72, "duration": 100, "velocity": 110}, {"time": 30360, "pitch": 72, "duration": 10, "velocity": 100}, {"time": 30370, "pitch": 60, "duration": 10, "velocity": 90}, {"time": 30480, "pitch": 60, "duration": 10, "velocity": 80}, {"time": 30490, "pitch": 72, "duration": 10, "velocity": 90}, {"time": 30600, "pitch": 72, "duration": 240, "velocity": 110}, {"time": 30610, "pitch": 60, "duration": 330, "velocity": 100}, {"time": 30850, "pitch": 72, "duration": 100, "velocity": 110}, {"time": 30960, "pitch": 72, "duration": 240, "velocity": 100}, {"time": 30970, "pitch": 60, "duration": 230, "velocity": 90}, {"time": 31200, "pitch": 60, "duration": 400, "velocity": 100}, {"time": 31210, "pitch": 72, "duration": 400, "velocity": 110}, {"time": 47040, "pitch": 58, "duration": 110, "velocity": 60}, {"time": 47040, "pitch": 61, "duration": 100, "velocity": 50}, {"time": 47050, "pitch": 65, "duration": 100, "velocity": 60}, {"time": 47050, "pitch": 70, "duration": 100, "velocity": 70}, {"time": 47160, "pitch": 65, "duration": 100, "velocity": 80}, {"time": 47160, "pitch": 70, "duration": 110, "velocity": 90}, {"time": 47170, "pitch": 58, "duration": 100, "velocity": 80}, {"time": 47170, "pitch": 61, "duration": 100, "velocity": 70}, {"time": 47280, "pitch": 58, "duration": 110, "velocity": 90}, {"time": 47280, "pitch": 61, "duration": 100, "velocity": 80}, {"time": 47290, "pitch": 65, "duration": 100, "velocity": 90}, {"time": 47290, "pitch": 70, "duration": 100, "velocity": 100}, {"time": 47400, "pitch": 65, "duration": 100, "velocity": 80}, {"time": 47400, "pitch": 70, "duration": 110, "velocity": 90}, {"time": 47410, "pitch": 58, "duration": 100, "velocity": 80}, {"time": 47410, "pitch": 61, "duration": 100, "velocity": 70}, {"time": 47520, "pitch": 58, "duration": 110, "velocity": 90}, {"time": 47520, "pitch": 61, "duration": 100, "velocity": 80}, {"time": 47530, "pitch": 65, "duration": 100, "velocity": 90}, {"time": 47530, "pitch": 70, "duration": 100, "velocity": 100}, {"time": 47640, "pitch": 65, "duration": 10, "velocity": 80}, {"time": 47640, "pitch": 70, "duration": 10, "velocity": 90}, {"time": 47650, "pitch": 58, "duration": 10, "velocity": 80}, {"time": 47650, "pitch": 61, "duration": 10, "velocity": 70}, {"time": 47760, "pitch": 58, "duration": 10, "velocity": 80}, {"time": 47760, "pitch": 61, "duration": 10, "velocity": 70}, {"time": 47770, "pitch": 65, "duration": 10, "velocity": 80}, {"time": 47770, "pitch": 70, "duration": 10, "velocity": 90}, {"time": 47880, "pitch": 65, "duration": 100, "velocity": 90}, {"time": 47880, "pitch": 70, "duration": 100, "velocity": 100}, {"time": 47890, "pitch": 58, "duration": 100, "velocity": 90}, {"time": 47890, "pitch": 61, "duration": 100, "velocity": 80}, {"time": 48000, "pitch": 58, "duration": 10, "velocity": 60}, {"time": 48000, "pitch": 61, "duration": 10, "velocity": 50}, {"time": 48010, "pitch": 65, "duration": 10, "velocity": 60}, {"time": 48010, "pitch": 70, "duration": 10, "velocity": 70}, {"time": 48120, "pitch": 65, "duration": 100, "velocity": 70}, {"time": 48120, "pitch": 70, "duration": 110, "velocity": 80}, {"time": 48130, "pitch": 58, "duration": 100, "velocity": 70}, {"time": 48130, "pitch": 61, "duration": 100, "velocity": 60}, {"time": 48240, "pitch": 58, "duration": 110, "velocity": 80}, {"time": 48240, "pitch": 61, "duration": 100, "velocity": 70}, {"time": 48250, "pitch": 65, "duration": 100, "velocity": 80}, {"time": 48250, "pitch": 70, "duration": 100, "velocity": 90}, {"time": 48360, "pitch": 65, "duration": 100, "velocity": 80}, {"time": 48360, "pitch": 70, "duration": 110, "velocity": 90}, {"time": 48370, "pitch": 58, "duration": 100, "velocity": 80}, {"time": 48370, "pitch": 61, "duration": 100, "velocity": 70}, {"time": 48480, "pitch": 58, "duration": 110, "velocity": 90}, {"time": 48480, "pitch": 61, "duration": 100, "velocity": 80}, {"time": 48490, "pitch": 65, "duration": 100, "velocity": 90}, {"time": 48490, "pitch": 70, "duration": 100, "velocity": 100}, {"time": 48600, "pitch": 58, "duration": 10, "velocity": 80}, {"time": 48600, "pitch": 61, "duration": 10, "velocity": 70}, {"time": 48600, "pitch": 65, "duration": 10, "velocity": 80}, {"time": 48600, "pitch": 70, "duration": 10, "velocity": 90}, {"time": 48720, "pitch": 58, "duration": 10, "velocity": 70}, {"time": 48720, "pitch": 61, "duration": 10, "velocity": 60}, {"time": 48720, "pitch": 65, "duration": 10, "velocity": 70}, {"time": 48720, "pitch": 70, "duration": 10, "velocity": 80}, {"time": 48840, "pitch": 58, "duration": 10, "velocity": 60}, {"time": 48840, "pitch": 61, "duration": 10, "velocity": 50}, {"time": 48840, "pitch": 65, "duration": 10, "velocity": 60}, {"time": 48840, "pitch": 70, "duration": 10, "velocity": 70}, {"time": 48960, "pitch": 63, "duration": 110, "velocity": 100}, {"time": 48970, "pitch": 75, "duration": 100, "velocity": 110}, {"time": 49080, "pitch": 75, "duration": 100, "velocity": 80}, {"time": 49090, "pitch": 63, "duration": 100, "velocity": 70}, {"time": 49200, "pitch": 63, "duration": 110, "velocity": 90}, {"time": 49210, "pitch": 75, "duration": 100, "velocity": 100}, {"time": 49320, "pitch": 75, "duration": 100, "velocity": 100}, {"time": 49330, "pitch": 63, "duration": 100, "velocity": 90}, {"time": 49440, "pitch": 63, "duration": 110, "velocity": 110}, {"time": 49450, "pitch": 75, "duration": 100, "velocity": 110}, {"time": 49560, "pitch": 75, "duration": 10, "velocity": 100}, {"time": 49570, "pitch": 63, "duration": 10, "velocity": 90}, {"time": 49680, "pitch": 63, "duration": 10, "velocity": 80}, {"time": 49690, "pitch": 75, "duration": 10, "velocity": 90}, {"time": 49800, "pitch": 75, "duration": 100, "velocity": 90}, {"time": 49810, "pitch": 63, "duration": 100, "velocity": 80}, {"time": 49920, "pitch": 63, "duration": 10, "velocity": 60}, {"time": 49930, "pitch": 75, "duration": 10, "velocity": 70}, {"time": 50040, "pitch": 75, "duration": 100, "velocity": 80}, {"time": 50050, "pitch": 63, "duration": 100, "velocity": 70}, {"time": 50160, "pitch": 63, "duration": 110, "velocity": 90}, {"time": 50170, "pitch": 75, "duration": 100, "velocity": 100}, {"time": 50280, "pitch": 75, "duration": 100, "velocity": 100}, {"time": 50290, "pitch": 63, "duration": 100, "velocity": 90}, {"time": 50400, "pitch": 63, "duration": 80, "velocity": 110}, {"time": 50410, "pitch": 75, "duration": 80, "velocity": 110}, {"time": 50520, "pitch": 63, "duration": 10, "velocity": 80}, {"time": 50520, "pitch": 75, "duration": 10, "velocity": 90}, {"time": 50640, "pitch": 63, "duration": 10, "velocity": 70}, {"time": 50640, "pitch": 75, "duration": 10, "velocity": 80}, {"time": 50760, "pitch": 63, "duration": 10, "velocity": 80}, {"time": 50760, "pitch": 75, "duration": 10, "velocity": 90}, {"time": 50880, "pitch": 58, "duration": 110, "velocity": 60}, {"time": 50880, "pitch": 61, "duration": 100, "velocity": 50}, {"time": 50890, "pitch": 65, "duration": 100, "velocity": 60}, {"time": 50890, "pitch": 70, "duration": 100, "velocity": 70}, {"time": 51000, "pitch": 65, "duration": 100, "velocity": 80}, {"time": 51000, "pitch": 70, "duration": 110, "velocity": 90}, {"time": 51010, "pitch": 58, "duration": 100, "velocity": 80}, {"time": 51010, "pitch": 61, "duration": 100, "velocity": 70}, {"time": 51120, "pitch": 58, "duration": 110, "velocity": 90}, {"time": 51120, "pitch": 61, "duration": 100, "velocity": 80}, {"time": 51130, "pitch": 65, "duration": 100, "velocity": 90}, {"time": 51130, "pitch": 70, "duration": 100, "velocity": 100}, {"time": 51240, "pitch": 65, "duration": 100, "velocity": 80}, {"time": 51240, "pitch": 70, "duration": 110, "velocity": 90}, {"time": 51250, "pitch": 58, "duration": 100, "velocity": 80}, {"time": 51250, "pitch": 61, "duration": 100, "velocity": 70}, {"time": 51360, "pitch": 58, "duration": 110, "velocity": 90}, {"time": 51360, "pitch": 61, "duration": 100, "velocity": 80}, {"time": 51370, "pitch": 65, "duration": 100, "velocity": 90}, {"time": 51370, "pitch": 70, "duration": 100, "velocity": 100}, {"time": 51480, "pitch": 65, "duration": 10, "velocity": 80}, {"time": 51480, "pitch": 70, "duration": 10, "velocity": 90}, {"time": 51490, "pitch": 58, "duration": 10, "velocity": 80}, {"time": 51490, "pitch": 61, "duration": 10, "velocity": 70}, {"time": 51600, "pitch": 58, "duration": 10, "velocity": 80}, {"time": 51600, "pitch": 61, "duration": 10, "velocity": 70}, {"time": 51610, "pitch": 65, "duration": 10, "velocity": 80}, {"time": 51610, "pitch": 70, "duration": 10, "velocity": 90}, {"time": 51720, "pitch": 65, "duration": 100, "velocity": 90}, {"time": 51720, "pitch": 70, "duration": 100, "velocity": 100}, {"time": 51730, "pitch": 58, "duration": 100, "velocity": 90}, {"time": 51730, "pitch": 61, "duration": 100, "velocity": 80}, {"time": 51840, "pitch": 58, "duration": 10, "velocity": 60}, {"time": 51840, "pitch": 61, "duration": 10, "velocity": 50}, {"time": 51850, "pitch": 65, "duration": 10, "velocity": 60}, {"time": 51850, "pitch": 70, "duration": 10, "velocity": 70}, {"time": 51960, "pitch": 65, "duration": 100, "velocity": 70}, {"time": 51960, "pitch": 70, "duration": 110, "velocity": 80}, {"time": 51970, "pitch": 58, "duration": 100, "velocity": 70}, {"time": 51970, "pitch": 61, "duration": 100, "velocity": 60}, {"time": 52080, "pitch": 58, "duration": 110, "velocity": 80}, {"time": 52080, "pitch": 61, "duration": 100, "velocity": 70}, {"time": 52090, "pitch": 65, "duration": 100, "velocity": 80}, {"time": 52090, "pitch": 70, "duration": 100, "velocity": 90}, {"time": 52200, "pitch": 65, "duration": 100, "velocity": 80}, {"time": 52200, "pitch": 70, "duration": 110, "velocity": 90}, {"time": 52210, "pitch": 58, "duration": 100, "velocity": 80}, {"time": 52210, "pitch": 61, "duration": 100, "velocity": 70}, {"time": 52320, "pitch": 58, "duration": 110, "velocity": 90}, {"time": 52320, "pitch": 61, "duration": 100, "velocity": 80}, {"time": 52330, "pitch": 65, "duration": 100, "velocity": 90}, {"time": 52330, "pitch": 70, "duration": 100, "velocity": 100}, {"time": 52440, "pitch": 58, "duration": 10, "velocity": 80}, {"time": 52440, "pitch": 61, "duration": 10, "velocity": 70}, {"time": 52440, "pitch": 65, "duration": 10, "velocity": 80}, {"time": 52440, "pitch": 70, "duration": 10, "velocity": 90}, {"time": 52560, "pitch": 58, "duration": 10, "velocity": 70}, {"time": 52560, "pitch": 61, "duration": 10, "velocity": 60}, {"time": 52560, "pitch": 65, "duration": 10, "velocity": 70}, {"time": 52560, "pitch": 70, "duration": 10, "velocity": 80}, {"time": 52680, "pitch": 58, "duration": 10, "velocity": 60}, {"time": 52680, "pitch": 61, "duration": 10, "velocity": 50}, {"time": 52680, "pitch": 65, "duration": 10, "velocity": 60}, {"time": 52680, "pitch": 70, "duration": 10, "velocity": 70}, {"time": 52800, "pitch": 63, "duration": 110, "velocity": 100}, {"time": 52810, "pitch": 75, "duration": 100, "velocity": 110}, {"time": 52920, "pitch": 75, "duration": 100, "velocity": 80}, {"time": 52930, "pitch": 63, "duration": 100, "velocity": 70}, {"time": 53040, "pitch": 63, "duration": 110, "velocity": 90}, {"time": 53050, "pitch": 75, "duration": 100, "velocity": 100}, {"time": 53160, "pitch": 75, "duration": 100, "velocity": 100}, {"time": 53170, "pitch": 63, "duration": 100, "velocity": 90}, {"time": 53280, "pitch": 63, "duration": 110, "velocity": 110}, {"time": 53290, "pitch": 75, "duration": 100, "velocity": 110}, {"time": 53400, "pitch": 75, "duration": 10, "velocity": 100}, {"time": 53410, "pitch": 63, "duration": 10, "velocity": 90}, {"time": 53520, "pitch": 63, "duration": 10, "velocity": 80}, {"time": 53530, "pitch": 75, "duration": 10, "velocity": 90}, {"time": 53640, "pitch": 75, "duration": 100, "velocity": 90}, {"time": 53650, "pitch": 63, "duration": 100, "velocity": 80}, {"time": 53760, "pitch": 63, "duration": 10, "velocity": 60}, {"time": 53770, "pitch": 75, "duration": 10, "velocity": 70}, {"time": 53880, "pitch": 75, "duration": 100, "velocity": 80}, {"time": 53890, "pitch": 63, "duration": 100, "velocity": 70}, {"time": 54000, "pitch": 63, "duration": 110, "velocity": 90}, {"time": 54010, "pitch": 75, "duration": 100, "velocity": 100}, {"time": 54120, "pitch": 75, "duration": 100, "velocity": 100}, {"time": 54130, "pitch": 63, "duration": 100, "velocity": 90}, {"time": 54240, "pitch": 63, "duration": 80, "velocity": 110}, {"time": 54250, "pitch": 75, "duration": 80, "velocity": 110}, {"time": 54360, "pitch": 63, "duration": 10, "velocity": 80}, {"time": 54360, "pitch": 75, "duration": 10, "velocity": 90}, {"time": 54480, "pitch": 63, "duration": 10, "velocity": 70}, {"time": 54480, "pitch": 75, "duration": 10, "velocity": 80}, {"time": 54600, "pitch": 63, "duration": 10, "velocity": 80}, {"time": 54600, "pitch": 75, "duration": 10, "velocity": 90}, {"time": 54720, "pitch": 60, "duration": 110, "velocity": 60}, {"time": 54720, "pitch": 63, "duration": 100, "velocity": 50}, {"time": 54730, "pitch": 67, "duration": 100, "velocity": 60}, {"time": 54730, "pitch": 72, "duration": 100, "velocity": 70}, {"time": 54840, "pitch": 67, "duration": 100, "velocity": 80}, {"time": 54840, "pitch": 72, "duration": 110, "velocity": 90}, {"time": 54850, "pitch": 60, "duration": 100, "velocity": 80}, {"time": 54850, "pitch": 63, "duration": 100, "velocity": 70}, {"time": 54960, "pitch": 60, "duration": 110, "velocity": 90}, {"time": 54960, "pitch": 63, "duration": 100, "velocity": 80}, {"time": 54970, "pitch": 67, "duration": 100, "velocity": 90}, {"time": 54970, "pitch": 72, "duration": 100, "velocity": 100}, {"time": 55080, "pitch": 67, "duration": 100, "velocity": 80}, {"time": 55080, "pitch": 72, "duration": 110, "velocity": 90}, {"time": 55090, "pitch": 60, "duration": 100, "velocity": 80}, {"time": 55090, "pitch": 63, "duration": 100, "velocity": 70}, {"time": 55200, "pitch": 60, "duration": 110, "velocity": 90}, {"time": 55200, "pitch": 63, "duration": 100, "velocity": 80}, {"time": 55210, "pitch": 67, "duration": 100, "velocity": 90}, {"time": 55210, "pitch": 72, "duration": 100, "velocity": 100}, {"time": 55320, "pitch": 67, "duration": 10, "velocity": 80}, {"time": 55320, "pitch": 72, "duration": 10, "velocity": 90}, {"time": 55330, "pitch": 60, "duration": 10, "velocity": 80}, {"time": 55330, "pitch": 63, "duration": 10, "velocity": 70}, {"time": 55440, "pitch": 60, "duration": 10, "velocity": 80}, {"time": 55440, "pitch": 63, "duration": 10, "velocity": 70}, {"time": 55450, "pitch": 67, "duration": 10, "velocity": 80}, {"time": 55450, "pitch": 72, "duration": 10, "velocity": 90}, {"time": 55560, "pitch": 67, "duration": 100, "velocity": 90}, {"time": 55560, "pitch": 72, "duration": 100, "velocity": 100}, {"time": 55570, "pitch": 60, "duration": 100, "velocity": 90}, {"time": 55570, "pitch": 63, "duration": 100, "velocity": 80}, {"time": 55680, "pitch": 60, "duration": 10, "velocity": 60}, {"time": 55680, "pitch": 63, "duration": 10, "velocity": 50}, {"time": 55690, "pitch": 67, "duration": 10, "velocity": 60}, {"time": 55690, "pitch": 72, "duration": 10, "velocity": 70}, {"time": 55800, "pitch": 67, "duration": 100, "velocity": 70}, {"time": 55800, "pitch": 72, "duration": 110, "velocity": 80}, {"time": 55810, "pitch": 60, "duration": 100, "velocity": 70}, {"time": 55810, "pitch": 63, "duration": 100, "velocity": 60}, {"time": 55920, "pitch": 60, "duration": 110, "velocity": 80}, {"time": 55920, "pitch": 63, "duration": 100, "velocity": 70}, {"time": 55930, "pitch": 67, "duration": 100, "velocity": 80}, {"time": 55930, "pitch": 72, "duration": 100, "velocity": 90}, {"time": 56040, "pitch": 67, "duration": 100, "velocity": 80}, {"time": 56040, "pitch": 72, "duration": 110, "velocity": 90}, {"time": 56050, "pitch": 60, "duration": 100, "velocity": 80}, {"time": 56050, "pitch": 63, "duration": 100, "velocity": 70}, {"time": 56160, "pitch": 60, "duration": 110, "velocity": 90}, {"time": 56160, "pitch": 63, "duration": 100, "velocity": 80}, {"time": 56170, "pitch": 67, "duration": 100, "velocity": 90}, {"time": 56170, "pitch": 72, "duration": 100, "velocity": 100}, {"time": 56280, "pitch": 60, "duration": 10, "velocity": 80}, {"time": 56280, "pitch": 63, "duration": 10, "velocity": 70}, {"time": 56280, "pitch": 67, "duration": 10, "velocity": 80}, {"time": 56280, "pitch": 72, "duration": 10, "velocity": 90}, {"time": 56400, "pitch": 60, "duration": 10, "velocity": 70}, {"time": 56400, "pitch": 63, "duration": 10, "velocity": 60}, {"time": 56400, "pitch": 67, "duration": 10, "velocity": 70}, {"time": 56400, "pitch": 72, "duration": 10, "velocity": 80}, {"time": 56520, "pitch": 60, "duration": 10, "velocity": 60}, {"time": 56520, "pitch": 63, "duration": 10, "velocity": 50}, {"time": 56520, "pitch": 67, "duration": 10, "velocity": 60}, {"time": 56520, "pitch": 72, "duration": 10, "velocity": 70}, {"time": 56640, "pitch": 60, "duration": 110, "velocity": 60}, {"time": 56640, "pitch": 65, "duration": 100, "velocity": 50}, {"time": 56650, "pitch": 68, "duration": 100, "velocity": 60}, {"time": 56650, "pitch": 72, "duration": 100, "velocity": 70}, {"time": 56760, "pitch": 68, "duration": 100, "velocity": 80}, {"time": 56760, "pitch": 72, "duration": 110, "velocity": 90}, {"time": 56770, "pitch": 60, "duration": 100, "velocity": 80}, {"time": 56770, "pitch": 65, "duration": 100, "velocity": 70}, {"time": 56880, "pitch": 60, "duration": 110, "velocity": 90}, {"time": 56880, "pitch": 65, "duration": 100, "velocity": 80}, {"time": 56890, "pitch": 68, "duration": 100, "velocity": 90}, {"time": 56890, "pitch": 72, "duration": 100, "velocity": 100}, {"time": 57000, "pitch": 68, "duration": 100, "velocity": 80}, {"time": 57000, "pitch": 72, "duration": 110, "velocity": 90}, {"time": 57010, "pitch": 60, "duration": 100, "velocity": 80}, {"time": 57010, "pitch": 65, "duration": 100, "velocity": 70}, {"time": 57120, "pitch": 60, "duration": 110, "velocity": 90}, {"time": 57120, "pitch": 65, "duration": 100, "velocity": 80}, {"time": 57130, "pitch": 68, "duration": 100, "velocity": 90}, {"time": 57130, "pitch": 72, "duration": 100, "velocity": 100}, {"time": 57240, "pitch": 68, "duration": 10, "velocity": 80}, {"time": 57240, "pitch": 72, "duration": 10, "velocity": 90}, {"time": 57250, "pitch": 60, "duration": 10, "velocity": 80}, {"time": 57250, "pitch": 65, "duration": 10, "velocity": 70}, {"time": 57360, "pitch": 60, "duration": 10, "velocity": 80}, {"time": 57360, "pitch": 65, "duration": 10, "velocity": 70}, {"time": 57370, "pitch": 68, "duration": 10, "velocity": 80}, {"time": 57370, "pitch": 72, "duration": 10, "velocity": 90}, {"time": 57480, "pitch": 67, "duration": 100, "velocity": 90}, {"time": 57480, "pitch": 72, "duration": 100, "velocity": 100}, {"time": 57490, "pitch": 58, "duration": 100, "velocity": 90}, {"time": 57490, "pitch": 63, "duration": 100, "velocity": 80}, {"time": 57600, "pitch": 58, "duration": 10, "velocity": 60}, {"time": 57600, "pitch": 63, "duration": 10, "velocity": 50}, {"time": 57610, "pitch": 67, "duration": 10, "velocity": 60}, {"time": 57610, "pitch": 72, "duration": 10, "velocity": 70}, {"time": 57720, "pitch": 67, "duration": 100, "velocity": 70}, {"time": 57720, "pitch": 72, "duration": 110, "velocity": 80}, {"time": 57730, "pitch": 58, "duration": 100, "velocity": 70}, {"time": 57730, "pitch": 63, "duration": 100, "velocity": 60}, {"time": 57840, "pitch": 58, "duration": 110, "velocity": 80}, {"time": 57840, "pitch": 63, "duration": 100, "velocity": 70}, {"time": 57850, "pitch": 67, "duration": 100, "velocity": 80}, {"time": 57850, "pitch": 72, "duration": 100, "velocity": 90}, {"time": 57960, "pitch": 67, "duration": 100, "velocity": 80}, {"time": 57960, "pitch": 72, "duration": 110, "velocity": 90}, {"time": 57970, "pitch": 58, "duration": 100, "velocity": 80}, {"time": 57970, "pitch": 63, "duration": 100, "velocity": 70}, {"time": 58080, "pitch": 58, "duration": 110, "velocity": 90}, {"time": 58080, "pitch": 63, "duration": 100, "velocity": 80}, {"time": 58090, "pitch": 67, "duration": 100, "velocity": 90}, {"time": 58090, "pitch": 72, "duration": 100, "velocity": 100}, {"time": 58200, "pitch": 58, "duration": 10, "velocity": 80}, {"time": 58200, "pitch": 63, "duration": 10, "velocity": 70}, {"time": 58200, "pitch": 67, "duration": 10, "velocity": 80}, {"time": 58200, "pitch": 72, "duration": 10, "velocity": 90}, {"time": 58320, "pitch": 58, "duration": 10, "velocity": 70}, {"time": 58320, "pitch": 63, "duration": 10, "velocity": 60}, {"time": 58320, "pitch": 67, "duration": 10, "velocity": 70}, {"time": 58320, "pitch": 72, "duration": 10, "velocity": 80}, {"time": 58440, "pitch": 58, "duration": 10, "velocity": 60}, {"time": 58440, "pitch": 63, "duration": 10, "velocity": 50}, {"time": 58440, "pitch": 67, "duration": 10, "velocity": 60}, {"time": 58440, "pitch": 72, "duration": 10, "velocity": 70}, {"time": 58800, "pitch": 61, "duration": 140, "velocity": 90}, {"time": 58800, "pitch": 65, "duration": 130, "velocity": 90}, {"time": 58800, "pitch": 68, "duration": 140, "velocity": 100}, {"time": 59040, "pitch": 61, "duration": 190, "velocity": 100}, {"time": 59040, "pitch": 65, "duration": 170, "velocity": 90}, {"time": 59040, "pitch": 68, "duration": 200, "velocity": 90}, {"time": 59520, "pitch": 60, "duration": 160, "velocity": 90}, {"time": 59520, "pitch": 63, "duration": 150, "velocity": 90}, {"time": 59520, "pitch": 68, "duration": 170, "velocity": 100}, {"time": 59760, "pitch": 60, "duration": 170, "velocity": 100}, {"time": 59760, "pitch": 63, "duration": 170, "velocity": 90}, {"time": 59760, "pitch": 68, "duration": 170, "velocity": 90}, {"time": 60240, "pitch": 56, "duration": 460, "velocity": 100}, {"time": 60240, "pitch": 61, "duration": 460, "velocity": 90}, {"time": 60240, "pitch": 65, "duration": 460, "velocity": 100}, {"time": 60720, "pitch": 56, "duration": 220, "velocity": 100}, {"time": 60720, "pitch": 61, "duration": 220, "velocity": 90}, {"time": 60720, "pitch": 65, "duration": 220, "velocity": 100}, {"time": 60960, "pitch": 56, "duration": 220, "velocity": 100}, {"time": 60960, "pitch": 61, "duration": 220, "velocity": 90}, {"time": 60960, "pitch": 65, "duration": 220, "velocity": 100}, {"time": 61200, "pitch": 63, "duration": 220, "velocity": 90}, {"time": 61200, "pitch": 75, "duration": 220, "velocity": 100}, {"time": 61440, "pitch": 63, "duration": 100, "velocity": 60}, {"time": 61450, "pitch": 75, "duration": 100, "velocity": 70}, {"time": 61560, "pitch": 75, "duration": 100, "velocity": 80}, {"time": 61570, "pitch": 63, "duration": 100, "velocity": 70}, {"time": 61680, "pitch": 63, "duration": 110, "velocity": 90}, {"time": 61690, "pitch": 75, "duration": 100, "velocity": 100}, {"time": 61800, "pitch": 75, "duration": 100, "velocity": 100}, {"time": 61810, "pitch": 63, "duration": 100, "velocity": 90}, {"time": 61920, "pitch": 63, "duration": 80, "velocity": 110}, {"time": 61930, "pitch": 75, "duration": 80, "velocity": 110}, {"time": 62040, "pitch": 63, "duration": 10, "velocity": 80}, {"time": 62040, "pitch": 75, "duration": 10, "velocity": 90}, {"time": 62160, "pitch": 63, "duration": 10, "velocity": 70}, {"time": 62160, "pitch": 75, "duration": 10, "velocity": 80}, {"time": 62280, "pitch": 63, "duration": 10, "velocity": 80}, {"time": 62280, "pitch": 75, "duration": 10, "velocity": 90}, {"time": 77760, "pitch": 58, "duration": 110, "velocity": 60}, {"time": 77760, "pitch": 61, "duration": 100, "velocity": 50}, {"time": 77770, "pitch": 65, "duration": 100, "velocity": 60}, {"time": 77770, "pitch": 70, "duration": 100, "velocity": 70}, {"time": 77880, "pitch": 65, "duration": 100, "velocity": 80}, {"time": 77880, "pitch": 70, "duration": 110, "velocity": 90}, {"time": 77890, "pitch": 58, "duration": 100, "velocity": 80}, {"time": 77890, "pitch": 61, "duration": 100, "velocity": 70}, {"time": 78000, "pitch": 58, "duration": 110, "velocity": 90}, {"time": 78000, "pitch": 61, "duration": 100, "velocity": 80}, {"time": 78010, "pitch": 65, "duration": 100, "velocity": 90}, {"time": 78010, "pitch": 70, "duration": 100, "velocity": 100}, {"time": 78120, "pitch": 65, "duration": 100, "velocity": 80}, {"time": 78120, "pitch": 70, "duration": 110, "velocity": 90}, {"time": 78130, "pitch": 58, "duration": 100, "velocity": 80}, {"time": 78130, "pitch": 61, "duration": 100, "velocity": 70}, {"time": 78240, "pitch": 58, "duration": 110, "velocity": 90}, {"time": 78240, "pitch": 61, "duration": 100, "velocity": 80}, {"time": 78250, "pitch": 65, "duration": 100, "velocity": 90}, {"time": 78250, "pitch": 70, "duration": 100, "velocity": 100}, {"time": 78360, "pitch": 65, "duration": 10, "velocity": 80}, {"time": 78360, "pitch": 70, "duration": 10, "velocity": 90}, {"time": 78370, "pitch": 58, "duration": 10, "velocity": 80}, {"time": 78370, "pitch": 61, "duration": 10, "velocity": 70}, {"time": 78480, "pitch": 58, "duration": 10, "velocity": 80}, {"time": 78480, "pitch": 61, "duration": 10, "velocity": 70}, {"time": 78490, "pitch": 65, "duration": 10, "velocity": 80}, {"time": 78490, "pitch": 70, "duration": 10, "velocity": 90}, {"time": 78600, "pitch": 65, "duration": 100, "velocity": 90}, {"time": 78600, "pitch": 70, "duration": 100, "velocity": 100}, {"time": 78610, "pitch": 58, "duration": 100, "velocity": 90}, {"time": 78610, "pitch": 61, "duration": 100, "velocity": 80}, {"time": 78720, "pitch": 58, "duration": 10, "velocity": 60}, {"time": 78720, "pitch": 61, "duration": 10, "velocity": 50}, {"time": 78730, "pitch": 65, "duration": 10, "velocity": 60}, {"time": 78730, "pitch": 70, "duration": 10, "velocity": 70}, {"time": 78840, "pitch": 65, "duration": 100, "velocity": 70}, {"time": 78840, "pitch": 70, "duration": 110, "velocity": 80}, {"time": 78850, "pitch": 58, "duration": 100, "velocity": 70}, {"time": 78850, "pitch": 61, "duration": 100, "velocity": 60}, {"time": 78960, "pitch": 58, "duration": 110, "velocity": 80}, {"time": 78960, "pitch": 61, "duration": 100, "velocity": 70}, {"time": 78970, "pitch": 65, "duration": 100, "velocity": 80}, {"time": 78970, "pitch": 70, "duration": 100, "velocity": 90}, {"time": 79080, "pitch": 65, "duration": 100, "velocity": 80}, {"time": 79080, "pitch": 70, "duration": 110, "velocity": 90}, {"time": 79090, "pitch": 58, "duration": 100, "velocity": 80}, {"time": 79090, "pitch": 61, "duration": 100, "velocity": 70}, {"time": 79200, "pitch": 58, "duration": 110, "velocity": 90}, {"time": 79200, "pitch": 61, "duration": 100, "velocity": 80}, {"time": 79210, "pitch": 65, "duration": 100, "velocity": 90}, {"time": 79210, "pitch": 70, "duration": 100, "velocity": 100}, {"time": 79320, "pitch": 58, "duration": 10, "velocity": 80}, {"time": 79320, "pitch": 61, "duration": 10, "velocity": 70}, {"time": 79320, "pitch": 65, "duration": 10, "velocity": 80}, {"time": 79320, "pitch": 70, "duration": 10, "velocity": 90}, {"time": 79440, "pitch": 58, "duration": 10, "velocity": 70}, {"time": 79440, "pitch": 61, "duration": 10, "velocity": 60}, {"time": 79440, "pitch": 65, "duration": 10, "velocity": 70}, {"time": 79440, "pitch": 70, "duration": 10, "velocity": 80}, {"time": 79560, "pitch": 58, "duration": 10, "velocity": 60}, {"time": 79560, "pitch": 61, "duration": 10, "velocity": 50}, {"time": 79560, "pitch": 65, "duration": 10, "velocity": 60}, {"time": 79560, "pitch": 70, "duration": 10, "velocity": 70}, {"time": 79680, "pitch": 63, "duration": 110, "velocity": 100}, {"time": 79690, "pitch": 75, "duration": 100, "velocity": 110}, {"time": 79800, "pitch": 75, "duration": 100, "velocity": 80}, {"time": 79810, "pitch": 63, "duration": 100, "velocity": 70}, {"time": 79920, "pitch": 63, "duration": 110, "velocity": 90}, {"time": 79930, "pitch": 75, "duration": 100, "velocity": 100}, {"time": 80040, "pitch": 75, "duration": 100, "velocity": 100}, {"time": 80050, "pitch": 63, "duration": 100, "velocity": 90}, {"time": 80160, "pitch": 63, "duration": 110, "velocity": 110}, {"time": 80170, "pitch": 75, "duration": 100, "velocity": 110}, {"time": 80280, "pitch": 75, "duration": 10, "velocity": 100}, {"time": 80290, "pitch": 63, "duration": 10, "velocity": 90}, {"time": 80400, "pitch": 63, "duration": 10, "velocity": 80}, {"time": 80410, "pitch": 75, "duration": 10, "velocity": 90}, {"time": 80520, "pitch": 75, "duration": 100, "velocity": 90}, {"time": 80530, "pitch": 63, "duration": 100, "velocity": 80}, {"time": 80640, "pitch": 63, "duration": 10, "velocity": 60}, {"time": 80650, "pitch": 75, "duration": 10, "velocity": 70}, {"time": 80760, "pitch": 75, "duration": 100, "velocity": 80}, {"time": 80770, "pitch": 63, "duration": 100, "velocity": 70}, {"time": 80880, "pitch": 63, "duration": 110, "velocity": 90}, {"time": 80890, "pitch": 75, "duration": 100, "velocity": 100}, {"time": 81000, "pitch": 75, "duration": 100, "velocity": 100}, {"time": 81010, "pitch": 63, "duration": 100, "velocity": 90}, {"time": 81120, "pitch": 63, "duration": 80, "velocity": 110}, {"time": 81130, "pitch": 75, "duration": 80, "velocity": 110}, {"time": 81240, "pitch": 63, "duration": 10, "velocity": 80}, {"time": 81240, "pitch": 75, "duration": 10, "velocity": 90}, {"time": 81360, "pitch": 63, "duration": 10, "velocity": 70}, {"time": 81360, "pitch": 75, "duration": 10, "velocity": 80}, {"time": 81480, "pitch": 63, "duration": 10, "velocity": 80}, {"time": 81480, "pitch": 75, "duration": 10, "velocity": 90}, {"time": 81600, "pitch": 58, "duration": 110, "velocity": 60}, {"time": 81600, "pitch": 61, "duration": 100, "velocity": 50}, {"time": 81610, "pitch": 65, "duration": 100, "velocity": 60}, {"time": 81610, "pitch": 70, "duration": 100, "velocity": 70}, {"time": 81720, "pitch": 65, "duration": 100, "velocity": 80}, {"time": 81720, "pitch": 70, "duration": 110, "velocity": 90}, {"time": 81730, "pitch": 58, "duration": 100, "velocity": 80}, {"time": 81730, "pitch": 61, "duration": 100, "velocity": 70}, {"time": 81840, "pitch": 58, "duration": 110, "velocity": 90}, {"time": 81840, "pitch": 61, "duration": 100, "velocity": 80}, {"time": 81850, "pitch": 65, "duration": 100, "velocity": 90}, {"time": 81850, "pitch": 70, "duration": 100, "velocity": 100}, {"time": 81960, "pitch": 65, "duration": 100, "velocity": 80}, {"time": 81960, "pitch": 70, "duration": 110, "velocity": 90}, {"time": 81970, "pitch": 58, "duration": 100, "velocity": 80}, {"time": 81970, "pitch": 61, "duration": 100, "velocity": 70}, {"time": 82080, "pitch": 58, "duration": 110, "velocity": 90}, {"time": 82080, "pitch": 61, "duration": 100, "velocity": 80}, {"time": 82090, "pitch": 65, "duration": 100, "velocity": 90}, {"time": 82090, "pitch": 70, "duration": 100, "velocity": 100}, {"time": 82200, "pitch": 65, "duration": 10, "velocity": 80}, {"time": 82200, "pitch": 70, "duration": 10, "velocity": 90}, {"time": 82210, "pitch": 58, "duration": 10, "velocity": 80}, {"time": 82210, "pitch": 61, "duration": 10, "velocity": 70}, {"time": 82320, "pitch": 58, "duration": 10, "velocity": 80}, {"time": 82320, "pitch": 61, "duration": 10, "velocity": 70}, {"time": 82330, "pitch": 65, "duration": 10, "velocity": 80}, {"time": 82330, "pitch": 70, "duration": 10, "velocity": 90}, {"time": 82440, "pitch": 65, "duration": 100, "velocity": 90}, {"time": 82440, "pitch": 70, "duration": 100, "velocity": 100}, {"time": 82450, "pitch": 58, "duration": 100, "velocity": 90}, {"time": 82450, "pitch": 61, "duration": 100, "velocity": 80}, {"time": 82560, "pitch": 58, "duration": 10, "velocity": 60}, {"time": 82560, "pitch": 61, "duration": 10, "velocity": 50}, {"time": 82570, "pitch": 65, "duration": 10, "velocity": 60}, {"time": 82570, "pitch": 70, "duration": 10, "velocity": 70}, {"time": 82680, "pitch": 65, "duration": 100, "velocity": 70}, {"time": 82680, "pitch": 70, "duration": 110, "velocity": 80}, {"time": 82690, "pitch": 58, "duration": 100, "velocity": 70}, {"time": 82690, "pitch": 61, "duration": 100, "velocity": 60}, {"time": 82800, "pitch": 58, "duration": 110, "velocity": 80}, {"time": 82800, "pitch": 61, "duration": 100, "velocity": 70}, {"time": 82810, "pitch": 65, "duration": 100, "velocity": 80}, {"time": 82810, "pitch": 70, "duration": 100, "velocity": 90}, {"time": 82920, "pitch": 65, "duration": 100, "velocity": 80}, {"time": 82920, "pitch": 70, "duration": 110, "velocity": 90}, {"time": 82930, "pitch": 58, "duration": 100, "velocity": 80}, {"time": 82930, "pitch": 61, "duration": 100, "velocity": 70}, {"time": 83040, "pitch": 58, "duration": 110, "velocity": 90}, {"time": 83040, "pitch": 61, "duration": 100, "velocity": 80}, {"time": 83050, "pitch": 65, "duration": 100, "velocity": 90}, {"time": 83050, "pitch": 70, "duration": 100, "velocity": 100}, {"time": 83160, "pitch": 58, "duration": 10, "velocity": 80}, {"time": 83160, "pitch": 61, "duration": 10, "velocity": 70}, {"time": 83160, "pitch": 65, "duration": 10, "velocity": 80}, {"time": 83160, "pitch": 70, "duration": 10, "velocity": 90}, {"time": 83280, "pitch": 58, "duration": 10, "velocity": 70}, {"time": 83280, "pitch": 61, "duration": 10, "velocity": 60}, {"time": 83280, "pitch": 65, "duration": 10, "velocity": 70}, {"time": 83280, "pitch": 70, "duration": 10, "velocity": 80}, {"time": 83400, "pitch": 58, "duration": 10, "velocity": 60}, {"time": 83400, "pitch": 61, "duration": 10, "velocity": 50}, {"time": 83400, "pitch": 65, "duration": 10, "velocity": 60}, {"time": 83400, "pitch": 70, "duration": 10, "velocity": 70}, {"time": 83520, "pitch": 63, "duration": 110, "velocity": 100}, {"time": 83530, "pitch": 75, "duration": 100, "velocity": 110}, {"time": 83640, "pitch": 75, "duration": 100, "velocity": 80}, {"time": 83650, "pitch": 63, "duration": 100, "velocity": 70}, {"time": 83760, "pitch": 63, "duration": 110, "velocity": 90}, {"time": 83770, "pitch": 75, "duration": 100, "velocity": 100}, {"time": 83880, "pitch": 75, "duration": 100, "velocity": 100}, {"time": 83890, "pitch": 63, "duration": 100, "velocity": 90}, {"time": 84000, "pitch": 63, "duration": 110, "velocity": 110}, {"time": 84010, "pitch": 75, "duration": 100, "velocity": 110}, {"time": 84120, "pitch": 75, "duration": 10, "velocity": 100}, {"time": 84130, "pitch": 63, "duration": 10, "velocity": 90}, {"time": 84240, "pitch": 63, "duration": 10, "velocity": 80}, {"time": 84250, "pitch": 75, "duration": 10, "velocity": 90}, {"time": 84360, "pitch": 75, "duration": 100, "velocity": 90}, {"time": 84370, "pitch": 63, "duration": 100, "velocity": 80}, {"time": 84480, "pitch": 63, "duration": 10, "velocity": 60}, {"time": 84490, "pitch": 75, "duration": 10, "velocity": 70}, {"time": 84600, "pitch": 75, "duration": 100, "velocity": 80}, {"time": 84610, "pitch": 63, "duration": 100, "velocity": 70}, {"time": 84720, "pitch": 63, "duration": 110, "velocity": 90}, {"time": 84730, "pitch": 75, "duration": 100, "velocity": 100}, {"time": 84840, "pitch": 75, "duration": 100, "velocity": 100}, {"time": 84850, "pitch": 63, "duration": 100, "velocity": 90}, {"time": 84960, "pitch": 63, "duration": 80, "velocity": 110}, {"time": 84970, "pitch": 75, "duration": 80, "velocity": 110}, {"time": 85080, "pitch": 63, "duration": 10, "velocity": 80}, {"time": 85080, "pitch": 75, "duration": 10, "velocity": 90}, {"time": 85200, "pitch": 63, "duration": 10, "velocity": 70}, {"time": 85200, "pitch": 75, "duration": 10, "velocity": 80}, {"time": 85320, "pitch": 63, "duration": 10, "velocity": 80}, {"time": 85320, "pitch": 75, "duration": 10, "velocity": 90}, {"time": 85440, "pitch": 60, "duration": 110, "velocity": 60}, {"time": 85440, "pitch": 63, "duration": 100, "velocity": 50}, {"time": 85450, "pitch": 67, "duration": 100, "velocity": 60}, {"time": 85450, "pitch": 72, "duration": 100, "velocity": 70}, {"time": 85560, "pitch": 67, "duration": 100, "velocity": 80}, {"time": 85560, "pitch": 72, "duration": 110, "velocity": 90}, {"time": 85570, "pitch": 60, "duration": 100, "velocity": 80}, {"time": 85570, "pitch": 63, "duration": 100, "velocity": 70}, {"time": 85680, "pitch": 60, "duration": 110, "velocity": 90}, {"time": 85680, "pitch": 63, "duration": 100, "velocity": 80}, {"time": 85690, "pitch": 67, "duration": 100, "velocity": 90}, {"time": 85690, "pitch": 72, "duration": 100, "velocity": 100}, {"time": 85800, "pitch": 67, "duration": 100, "velocity": 80}, {"time": 85800, "pitch": 72, "duration": 110, "velocity": 90}, {"time": 85810, "pitch": 60, "duration": 100, "velocity": 80}, {"time": 85810, "pitch": 63, "duration": 100, "velocity": 70}, {"time": 85920, "pitch": 60, "duration": 110, "velocity": 90}, {"time": 85920, "pitch": 63, "duration": 100, "velocity": 80}, {"time": 85930, "pitch": 67, "duration": 100, "velocity": 90}, {"time": 85930, "pitch": 72, "duration": 100, "velocity": 100}, {"time": 86040, "pitch": 67, "duration": 10, "velocity": 80}, {"time": 86040, "pitch": 72, "duration": 10, "velocity": 90}, {"time": 86050, "pitch": 60, "duration": 10, "velocity": 80}, {"time": 86050, "pitch": 63, "duration": 10, "velocity": 70}, {"time": 86160, "pitch": 60, "duration": 10, "velocity": 80}, {"time": 86160, "pitch": 63, "duration": 10, "velocity": 70}, {"time": 86170, "pitch": 67, "duration": 10, "velocity": 80}, {"time": 86170, "pitch": 72, "duration": 10, "velocity": 90}, {"time": 86280, "pitch": 67, "duration": 100, "velocity": 90}, {"time": 86280, "pitch": 72, "duration": 100, "velocity": 100}, {"time": 86290, "pitch": 60, "duration": 100, "velocity": 90}, {"time": 86290, "pitch": 63, "duration": 100, "velocity": 80}, {"time": 86400, "pitch": 60, "duration": 10, "velocity": 60}, {"time": 86400, "pitch": 63, "duration": 10, "velocity": 50}, {"time": 86410, "pitch": 67, "duration": 10, "velocity": 60}, {"time": 86410, "pitch": 72, "duration": 10, "velocity": 70}, {"time": 86520, "pitch": 67, "duration": 100, "velocity": 70}, {"time": 86520, "pitch": 72, "duration": 110, "velocity": 80}, {"time": 86530, "pitch": 60, "duration": 100, "velocity": 70}, {"time": 86530, "pitch": 63, "duration": 100, "velocity": 60}, {"time": 86640, "pitch": 60, "duration": 110, "velocity": 80}, {"time": 86640, "pitch": 63, "duration": 100, "velocity": 70}, {"time": 86650, "pitch": 67, "duration": 100, "velocity": 80}, {"time": 86650, "pitch": 72, "duration": 100, "velocity": 90}, {"time": 86760, "pitch": 67, "duration": 100, "velocity": 80}, {"time": 86760, "pitch": 72, "duration": 110, "velocity": 90}, {"time": 86770, "pitch": 60, "duration": 100, "velocity": 80}, {"time": 86770, "pitch": 63, "duration": 100, "velocity": 70}, {"time": 86880, "pitch": 60, "duration": 110, "velocity": 90}, {"time": 86880, "pitch": 63, "duration": 100, "velocity": 80}, {"time": 86890, "pitch": 67, "duration": 100, "velocity": 90}, {"time": 86890, "pitch": 72, "duration": 100, "velocity": 100}, {"time": 87000, "pitch": 60, "duration": 10, "velocity": 80}, {"time": 87000, "pitch": 63, "duration": 10, "velocity": 70}, {"time": 87000, "pitch": 67, "duration": 10, "velocity": 80}, {"time": 87000, "pitch": 72, "duration": 10, "velocity": 90}, {"time": 87120, "pitch": 60, "duration": 10, "velocity": 70}, {"time": 87120, "pitch": 63, "duration": 10, "velocity": 60}, {"time": 87120, "pitch": 67, "duration": 10, "velocity": 70}, {"time": 87120, "pitch": 72, "duration": 10, "velocity": 80}, {"time": 87240, "pitch": 60, "duration": 10, "velocity": 60}, {"time": 87240, "pitch": 63, "duration": 10, "velocity": 50}, {"time": 87240, "pitch": 67, "duration": 10, "velocity": 60}, {"time": 87240, "pitch": 72, "duration": 10, "velocity": 70}, {"time": 87360, "pitch": 60, "duration": 110, "velocity": 60}, {"time": 87360, "pitch": 65, "duration": 100, "velocity": 50}, {"time": 87370, "pitch": 68, "duration": 100, "velocity": 60}, {"time": 87370, "pitch": 72, "duration": 100, "velocity": 70}, {"time": 87480, "pitch": 68, "duration": 100, "velocity": 80}, {"time": 87480, "pitch": 72, "duration": 110, "velocity": 90}, {"time": 87490, "pitch": 60, "duration": 100, "velocity": 80}, {"time": 87490, "pitch": 65, "duration": 100, "velocity": 70}, {"time": 87600, "pitch": 60, "duration": 110, "velocity": 90}, {"time": 87600, "pitch": 65, "duration": 100, "velocity": 80}, {"time": 87610, "pitch": 68, "duration": 100, "velocity": 90}, {"time": 87610, "pitch": 72, "duration": 100, "velocity": 100}, {"time": 87720, "pitch": 68, "duration": 100, "velocity": 80}, {"time": 87720, "pitch": 72, "duration": 110, "velocity": 90}, {"time": 87730, "pitch": 60, "duration": 100, "velocity": 80}, {"time": 87730, "pitch": 65, "duration": 100, "velocity": 70}, {"time": 87840, "pitch": 60, "duration": 110, "velocity": 90}, {"time": 87840, "pitch": 65, "duration": 100, "velocity": 80}, {"time": 87850, "pitch": 68, "duration": 100, "velocity": 90}, {"time": 87850, "pitch": 72, "duration": 100, "velocity": 100}, {"time": 87960, "pitch": 68, "duration": 10, "velocity": 80}, {"time": 87960, "pitch": 72, "duration": 10, "velocity": 90}, {"time": 87970, "pitch": 60, "duration": 10, "velocity": 80}, {"time": 87970, "pitch": 65, "duration": 10, "velocity": 70}, {"time": 88080, "pitch": 60, "duration": 10, "velocity": 80}, {"time": 88080, "pitch": 65, "duration": 10, "velocity": 70}, {"time": 88090, "pitch": 68, "duration": 10, "velocity": 80}, {"time": 88090, "pitch": 72, "duration": 10, "velocity": 90}, {"time": 88200, "pitch": 67, "duration": 100, "velocity": 90}, {"time": 88200, "pitch": 72, "duration": 100, "velocity": 100}, {"time": 88210, "pitch": 58, "duration": 100, "velocity": 90}, {"time": 88210, "pitch": 63, "duration": 100, "velocity": 80}, {"time": 88320, "pitch": 58, "duration": 10, "velocity": 60}, {"time": 88320, "pitch": 63, "duration": 10, "velocity": 50}, {"time": 88330, "pitch": 67, "duration": 10, "velocity": 60}, {"time": 88330, "pitch": 72, "duration": 10, "velocity": 70}, {"time": 88440, "pitch": 67, "duration": 100, "velocity": 70}, {"time": 88440, "pitch": 72, "duration": 110, "velocity": 80}, {"time": 88450, "pitch": 58, "duration": 100, "velocity": 70}, {"time": 88450, "pitch": 63, "duration": 100, "velocity": 60}, {"time": 88560, "pitch": 58, "duration": 110, "velocity": 80}, {"time": 88560, "pitch": 63, "duration": 100, "velocity": 70}, {"time": 88570, "pitch": 67, "duration": 100, "velocity": 80}, {"time": 88570, "pitch": 72, "duration": 100, "velocity": 90}, {"time": 88680, "pitch": 67, "duration": 100, "velocity": 80}, {"time": 88680, "pitch": 72, "duration": 110, "velocity": 90}, {"time": 88690, "pitch": 58, "duration": 100, "velocity": 80}, {"time": 88690, "pitch": 63, "duration": 100, "velocity": 70}, {"time": 88800, "pitch": 58, "duration": 110, "velocity": 90}, {"time": 88800, "pitch": 63, "duration": 100, "velocity": 80}, {"time": 88810, "pitch": 67, "duration": 100, "velocity": 90}, {"time": 88810, "pitch": 72, "duration": 100, "velocity": 100}, {"time": 88920, "pitch": 58, "duration": 10, "velocity": 80}, {"time": 88920, "pitch": 63, "duration": 10, "velocity": 70}, {"time": 88920, "pitch": 67, "duration": 10, "velocity": 80}, {"time": 88920, "pitch": 72, "duration": 10, "velocity": 90}, {"time": 89040, "pitch": 58, "duration": 10, "velocity": 70}, {"time": 89040, "pitch": 63, "duration": 10, "velocity": 60}, {"time": 89040, "pitch": 67, "duration": 10, "velocity": 70}, {"time": 89040, "pitch": 72, "duration": 10, "velocity": 80}, {"time": 89160, "pitch": 58, "duration": 10, "velocity": 60}, {"time": 89160, "pitch": 63, "duration": 10, "velocity": 50}, {"time": 89160, "pitch": 67, "duration": 10, "velocity": 60}, {"time": 89160, "pitch": 72, "duration": 10, "velocity": 70}, {"time": 89520, "pitch": 61, "duration": 140, "velocity": 90}, {"time": 89520, "pitch": 65, "duration": 130, "velocity": 90}, {"time": 89520, "pitch": 68, "duration": 140, "velocity": 100}, {"time": 89760, "pitch": 61, "duration": 190, "velocity": 100}, {"time": 89760, "pitch": 65, "duration": 170, "velocity": 90}, {"time": 89760, "pitch": 68, "duration": 200, "velocity": 90}, {"time": 90240, "pitch": 60, "duration": 160, "velocity": 90}, {"time": 90240, "pitch": 63, "duration": 150, "velocity": 90}, {"time": 90240, "pitch": 68, "duration": 170, "velocity": 100}, {"time": 90480, "pitch": 60, "duration": 170, "velocity": 100}, {"time": 90480, "pitch": 63, "duration": 170, "velocity": 90}, {"time": 90480, "pitch": 68, "duration": 170, "velocity": 90}, {"time": 90960, "pitch": 56, "duration": 460, "velocity": 100}, {"time": 90960, "pitch": 61, "duration": 460, "velocity": 90}, {"time": 90960, "pitch": 65, "duration": 460, "velocity": 100}, {"time": 91440, "pitch": 56, "duration": 220, "velocity": 100}, {"time": 91440, "pitch": 61, "duration": 220, "velocity": 90}, {"time": 91440, "pitch": 65, "duration": 220, "velocity": 100}, {"time": 91680, "pitch": 56, "duration": 220, "velocity": 100}, {"time": 91680, "pitch": 61, "duration": 220, "velocity": 90}, {"time": 91680, "pitch": 65, "duration": 220, "velocity": 100}, {"time": 91920, "pitch": 63, "duration": 220, "velocity": 90}, {"time": 91920, "pitch": 75, "duration": 220, "velocity": 100}, {"time": 92160, "pitch": 63, "duration": 100, "velocity": 60}, {"time": 92170, "pitch": 75, "duration": 100, "velocity": 70}, {"time": 92280, "pitch": 75, "duration": 100, "velocity": 80}, {"time": 92290, "pitch": 63, "duration": 100, "velocity": 70}, {"time": 92400, "pitch": 63, "duration": 110, "velocity": 90}, {"time": 92410, "pitch": 75, "duration": 100, "velocity": 100}, {"time": 92520, "pitch": 75, "duration": 100, "velocity": 100}, {"time": 92530, "pitch": 63, "duration": 100, "velocity": 90}, {"time": 92640, "pitch": 63, "duration": 80, "velocity": 110}, {"time": 92650, "pitch": 75, "duration": 80, "velocity": 110}, {"time": 92760, "pitch": 63, "duration": 10, "velocity": 80}, {"time": 92760, "pitch": 75, "duration": 10, "velocity": 90}, {"time": 92880, "pitch": 63, "duration": 10, "velocity": 70}, {"time": 92880, "pitch": 75, "duration": 10, "velocity": 80}, {"time": 93000, "pitch": 63, "duration": 10, "velocity": 80}, {"time": 93000, "pitch": 75, "duration": 10, "velocity": 90}, {"time": 93120, "pitch": 56, "duration": 110, "velocity": 60}, {"time": 93120, "pitch": 60, "duration": 100, "velocity": 50}, {"time": 93130, "pitch": 63, "duration": 100, "velocity": 60}, {"time": 93130, "pitch": 68, "duration": 100, "velocity": 70}, {"time": 93240, "pitch": 63, "duration": 100, "velocity": 80}, {"time": 93240, "pitch": 68, "duration": 110, "velocity": 90}, {"time": 93250, "pitch": 56, "duration": 100, "velocity": 80}, {"time": 93250, "pitch": 60, "duration": 100, "velocity": 70}, {"time": 93360, "pitch": 56, "duration": 110, "velocity": 90}, {"time": 93360, "pitch": 60, "duration": 100, "velocity": 80}, {"time": 93370, "pitch": 63, "duration": 100, "velocity": 90}, {"time": 93370, "pitch": 68, "duration": 100, "velocity": 100}, {"time": 93480, "pitch": 63, "duration": 100, "velocity": 80}, {"time": 93480, "pitch": 68, "duration": 110, "velocity": 90}, {"time": 93490, "pitch": 56, "duration": 100, "velocity": 80}, {"time": 93490, "pitch": 60, "duration": 100, "velocity": 70}, {"time": 93600, "pitch": 56, "duration": 110, "velocity": 90}, {"time": 93600, "pitch": 60, "duration": 100, "velocity": 80}, {"time": 93610, "pitch": 63, "duration": 100, "velocity": 90}, {"time": 93610, "pitch": 68, "duration": 100, "velocity": 100}, {"time": 93720, "pitch": 63, "duration": 10, "velocity": 80}, {"time": 93720, "pitch": 68, "duration": 10, "velocity": 90}, {"time": 93730, "pitch": 56, "duration": 10, "velocity": 80}, {"time": 93730, "pitch": 60, "duration": 10, "velocity": 70}, {"time": 93840, "pitch": 56, "duration": 10, "velocity": 80}, {"time": 93840, "pitch": 60, "duration": 10, "velocity": 70}, {"time": 93850, "pitch": 63, "duration": 10, "velocity": 80}, {"time": 93850, "pitch": 68, "duration": 10, "velocity": 90}, {"time": 93960, "pitch": 63, "duration": 100, "velocity": 90}, {"time": 93960, "pitch": 67, "duration": 100, "velocity": 100}, {"time": 93970, "pitch": 55, "duration": 100, "velocity": 90}, {"time": 93970, "pitch": 58, "duration": 100, "velocity": 80}, {"time": 94080, "pitch": 55, "duration": 10, "velocity": 60}, {"time": 94080, "pitch": 58, "duration": 10, "velocity": 50}, {"time": 94090, "pitch": 63, "duration": 10, "velocity": 60}, {"time": 94090, "pitch": 67, "duration": 10, "velocity": 70}, {"time": 94200, "pitch": 63, "duration": 100, "velocity": 70}, {"time": 94200, "pitch": 67, "duration": 110, "velocity": 80}, {"time": 94210, "pitch": 55, "duration": 100, "velocity": 70}, {"time": 94210, "pitch": 58, "duration": 100, "velocity": 60}, {"time": 94320, "pitch": 55, "duration": 110, "velocity": 80}, {"time": 94320, "pitch": 58, "duration": 100, "velocity": 70}, {"time": 94330, "pitch": 63, "duration": 100, "velocity": 80}, {"time": 94330, "pitch": 67, "duration": 100, "velocity": 90}, {"time": 94440, "pitch": 63, "duration": 100, "velocity": 80}, {"time": 94440, "pitch": 67, "duration": 110, "velocity": 90}, {"time": 94450, "pitch": 55, "duration": 100, "velocity": 80}, {"time": 94450, "pitch": 58, "duration": 100, "velocity": 70}, {"time": 94560, "pitch": 55, "duration": 110, "velocity": 90}, {"time": 94560, "pitch": 58, "duration": 100, "velocity": 80}, {"time": 94570, "pitch": 63, "duration": 100, "velocity": 90}, {"time": 94570, "pitch": 67, "duration": 100, "velocity": 100}, {"time": 94680, "pitch": 55, "duration": 10, "velocity": 80}, {"time": 94680, "pitch": 58, "duration": 10, "velocity": 70}, {"time": 94680, "pitch": 63, "duration": 10, "velocity": 80}, {"time": 94680, "pitch": 67, "duration": 10, "velocity": 90}, {"time": 94800, "pitch": 55, "duration": 10, "velocity": 70}, {"time": 94800, "pitch": 58, "duration": 10, "velocity": 60}, {"time": 94800, "pitch": 63, "duration": 10, "velocity": 70}, {"time": 94800, "pitch": 67, "duration": 10, "velocity": 80}, {"time": 94920, "pitch": 55, "duration": 10, "velocity": 60}, {"time": 94920, "pitch": 58, "duration": 10, "velocity": 50}, {"time": 94920, "pitch": 63, "duration": 10, "velocity": 60}, {"time": 94920, "pitch": 67, "duration": 10, "velocity": 70}, {"time": 95040, "pitch": 53, "duration": 110, "velocity": 60}, {"time": 95040, "pitch": 56, "duration": 100, "velocity": 50}, {"time": 95050, "pitch": 60, "duration": 100, "velocity": 60}, {"time": 95050, "pitch": 65, "duration": 100, "velocity": 70}, {"time": 95160, "pitch": 60, "duration": 100, "velocity": 80}, {"time": 95160, "pitch": 65, "duration": 110, "velocity": 90}, {"time": 95170, "pitch": 53, "duration": 100, "velocity": 80}, {"time": 95170, "pitch": 56, "duration": 100, "velocity": 70}, {"time": 95280, "pitch": 53, "duration": 110, "velocity": 90}, {"time": 95280, "pitch": 56, "duration": 100, "velocity": 80}, {"time": 95290, "pitch": 60, "duration": 100, "velocity": 90}, {"time": 95290, "pitch": 65, "duration": 100, "velocity": 100}, {"time": 95400, "pitch": 60, "duration": 100, "velocity": 80}, {"time": 95400, "pitch": 65, "duration": 110, "velocity": 90}, {"time": 95410, "pitch": 53, "duration": 100, "velocity": 80}, {"time": 95410, "pitch": 56, "duration": 100, "velocity": 70}, {"time": 95520, "pitch": 53, "duration": 110, "velocity": 90}, {"time": 95520, "pitch": 56, "duration": 100, "velocity": 80}, {"time": 95530, "pitch": 60, "duration": 100, "velocity": 90}, {"time": 95530, "pitch": 65, "duration": 100, "velocity": 100}, {"time": 95640, "pitch": 60, "duration": 10, "velocity": 80}, {"time": 95640, "pitch": 65, "duration": 10, "velocity": 90}, {"time": 95650, "pitch": 53, "duration": 10, "velocity": 80}, {"time": 95650, "pitch": 56, "duration": 10, "velocity": 70}, {"time": 95760, "pitch": 53, "duration": 10, "velocity": 80}, {"time": 95760, "pitch": 56, "duration": 10, "velocity": 70}, {"time": 95770, "pitch": 60, "duration": 10, "velocity": 80}, {"time": 95770, "pitch": 65, "duration": 10, "velocity": 90}, {"time": 95880, "pitch": 63, "duration": 100, "velocity": 90}, {"time": 95880, "pitch": 67, "duration": 100, "velocity": 100}, {"time": 95890, "pitch": 55, "duration": 100, "velocity": 90}, {"time": 95890, "pitch": 58, "duration": 100, "velocity": 80}, {"time": 96000, "pitch": 55, "duration": 10, "velocity": 60}, {"time": 96000, "pitch": 58, "duration": 10, "velocity": 50}, {"time": 96010, "pitch": 63, "duration": 10, "velocity": 60}, {"time": 96010, "pitch": 67, "duration": 10, "velocity": 70}, {"time": 96120, "pitch": 63, "duration": 100, "velocity": 70}, {"time": 96120, "pitch": 67, "duration": 110, "velocity": 80}, {"time": 96130, "pitch": 55, "duration": 100, "velocity": 70}, {"time": 96130, "pitch": 58, "duration": 100, "velocity": 60}, {"time": 96240, "pitch": 55, "duration": 110, "velocity": 80}, {"time": 96240, "pitch": 58, "duration": 100, "velocity": 70}, {"time": 96250, "pitch": 63, "duration": 100, "velocity": 80}, {"time": 96250, "pitch": 67, "duration": 100, "velocity": 90}, {"time": 96360, "pitch": 63, "duration": 100, "velocity": 80}, {"time": 96360, "pitch": 67, "duration": 110, "velocity": 90}, {"time": 96370, "pitch": 55, "duration": 100, "velocity": 80}, {"time": 96370, "pitch": 58, "duration": 100, "velocity": 70}, {"time": 96480, "pitch": 55, "duration": 110, "velocity": 90}, {"time": 96480, "pitch": 58, "duration": 100, "velocity": 80}, {"time": 96490, "pitch": 63, "duration": 100, "velocity": 90}, {"time": 96490, "pitch": 67, "duration": 100, "velocity": 100}, {"time": 96600, "pitch": 55, "duration": 10, "velocity": 80}, {"time": 96600, "pitch": 58, "duration": 10, "velocity": 70}, {"time": 96600, "pitch": 63, "duration": 10, "velocity": 80}, {"time": 96600, "pitch": 67, "duration": 10, "velocity": 90}, {"time": 96720, "pitch": 55, "duration": 10, "velocity": 70}, {"time": 96720, "pitch": 58, "duration": 10, "velocity": 60}, {"time": 96720, "pitch": 63, "duration": 10, "velocity": 70}, {"time": 96720, "pitch": 67, "duration": 10, "velocity": 80}, {"time": 96840, "pitch": 55, "duration": 10, "velocity": 60}, {"time": 96840, "pitch": 58, "duration": 10, "velocity": 50}, {"time": 96840, "pitch": 63, "duration": 10, "velocity": 60}, {"time": 96840, "pitch": 67, "duration": 10, "velocity": 70}, {"time": 96960, "pitch": 56, "duration": 110, "velocity": 60}, {"time": 96960, "pitch": 61, "duration": 100, "velocity": 50}, {"time": 96970, "pitch": 65, "duration": 100, "velocity": 60}, {"time": 96970, "pitch": 68, "duration": 100, "velocity": 70}, {"time": 97080, "pitch": 65, "duration": 100, "velocity": 80}, {"time": 97080, "pitch": 68, "duration": 110, "velocity": 90}, {"time": 97090, "pitch": 56, "duration": 100, "velocity": 80}, {"time": 97090, "pitch": 61, "duration": 100, "velocity": 70}, {"time": 97200, "pitch": 56, "duration": 110, "velocity": 90}, {"time": 97200, "pitch": 61, "duration": 100, "velocity": 80}, {"time": 97210, "pitch": 65, "duration": 100, "velocity": 90}, {"time": 97210, "pitch": 68, "duration": 100, "velocity": 100}, {"time": 97320, "pitch": 65, "duration": 100, "velocity": 80}, {"time": 97320, "pitch": 68, "duration": 110, "velocity": 90}, {"time": 97330, "pitch": 56, "duration": 100, "velocity": 80}, {"time": 97330, "pitch": 61, "duration": 100, "velocity": 70}, {"time": 97440, "pitch": 56, "duration": 110, "velocity": 90}, {"time": 97440, "pitch": 61, "duration": 100, "velocity": 80}, {"time": 97450, "pitch": 65, "duration": 100, "velocity": 90}, {"time": 97450, "pitch": 68, "duration": 100, "velocity": 100}, {"time": 97560, "pitch": 65, "duration": 10, "velocity": 80}, {"time": 97560, "pitch": 68, "duration": 10, "velocity": 90}, {"time": 97570, "pitch": 56, "duration": 10, "velocity": 80}, {"time": 97570, "pitch": 61, "duration": 10, "velocity": 70}, {"time": 97680, "pitch": 56, "duration": 10, "velocity": 80}, {"time": 97680, "pitch": 61, "duration": 10, "velocity": 70}, {"time": 97690, "pitch": 65, "duration": 10, "velocity": 80}, {"time": 97690, "pitch": 68, "duration": 10, "velocity": 90}, {"time": 97800, "pitch": 63, "duration": 100, "velocity": 90}, {"time": 97800, "pitch": 68, "duration": 100, "velocity": 100}, {"time": 97810, "pitch": 56, "duration": 100, "velocity": 90}, {"time": 97810, "pitch": 60, "duration": 100, "velocity": 80}, {"time": 97920, "pitch": 56, "duration": 10, "velocity": 60}, {"time": 97920, "pitch": 60, "duration": 10, "velocity": 50}, {"time": 97930, "pitch": 63, "duration": 10, "velocity": 60}, {"time": 97930, "pitch": 68, "duration": 10, "velocity": 70}, {"time": 98040, "pitch": 63, "duration": 100, "velocity": 70}, {"time": 98040, "pitch": 68, "duration": 110, "velocity": 80}, {"time": 98050, "pitch": 56, "duration": 100, "velocity": 70}, {"time": 98050, "pitch": 60, "duration": 100, "velocity": 60}, {"time": 98160, "pitch": 56, "duration": 110, "velocity": 80}, {"time": 98160, "pitch": 60, "duration": 100, "velocity": 70}, {"time": 98170, "pitch": 63, "duration": 100, "velocity": 80}, {"time": 98170, "pitch": 68, "duration": 100, "velocity": 90}, {"time": 98280, "pitch": 63, "duration": 100, "velocity": 80}, {"time": 98280, "pitch": 68, "duration": 110, "velocity": 90}, {"time": 98290, "pitch": 56, "duration": 100, "velocity": 80}, {"time": 98290, "pitch": 60, "duration": 100, "velocity": 70}, {"time": 98400, "pitch": 56, "duration": 110, "velocity": 90}, {"time": 98400, "pitch": 60, "duration": 100, "velocity": 80}, {"time": 98410, "pitch": 63, "duration": 100, "velocity": 90}, {"time": 98410, "pitch": 68, "duration": 100, "velocity": 100}, {"time": 98520, "pitch": 56, "duration": 10, "velocity": 80}, {"time": 98520, "pitch": 60, "duration": 10, "velocity": 70}, {"time": 98520, "pitch": 63, "duration": 10, "velocity": 80}, {"time": 98520, "pitch": 68, "duration": 10, "velocity": 90}, {"time": 98640, "pitch": 53, "duration": 460, "velocity": 100}, {"time": 98640, "pitch": 56, "duration": 460, "velocity": 90}, {"time": 98650, "pitch": 61, "duration": 450, "velocity": 80}, {"time": 98650, "pitch": 65, "duration": 450, "velocity": 90}, {"time": 99120, "pitch": 53, "duration": 110, "velocity": 90}, {"time": 99120, "pitch": 56, "duration": 100, "velocity": 80}, {"time": 99130, "pitch": 61, "duration": 100, "velocity": 90}, {"time": 99130, "pitch": 65, "duration": 100, "velocity": 100}, {"time": 99240, "pitch": 61, "duration": 100, "velocity": 80}, {"time": 99240, "pitch": 65, "duration": 110, "velocity": 90}, {"time": 99250, "pitch": 53, "duration": 100, "velocity": 80}, {"time": 99250, "pitch": 56, "duration": 100, "velocity": 70}, {"time": 99360, "pitch": 53, "duration": 110, "velocity": 90}, {"time": 99360, "pitch": 56, "duration": 100, "velocity": 80}, {"time": 99370, "pitch": 61, "duration": 100, "velocity": 90}, {"time": 99370, "pitch": 65, "duration": 100, "velocity": 100}, {"time": 99480, "pitch": 61, "duration": 10, "velocity": 80}, {"time": 99480, "pitch": 65, "duration": 10, "velocity": 90}, {"time": 99490, "pitch": 53, "duration": 10, "velocity": 80}, {"time": 99490, "pitch": 56, "duration": 10, "velocity": 70}, {"time": 99600, "pitch": 63, "duration": 220, "velocity": 90}, {"time": 99600, "pitch": 67, "duration": 220, "velocity": 100}, {"time": 99610, "pitch": 55, "duration": 220, "velocity": 90}, {"time": 99610, "pitch": 58, "duration": 220, "velocity": 80}, {"time": 99840, "pitch": 55, "duration": 10, "velocity": 60}, {"time": 99840, "pitch": 58, "duration": 10, "velocity": 50}, {"time": 99850, "pitch": 63, "duration": 10, "velocity": 60}, {"time": 99850, "pitch": 67, "duration": 10, "velocity": 70}, {"time": 99960, "pitch": 63, "duration": 100, "velocity": 70}, {"time": 99960, "pitch": 67, "duration": 110, "velocity": 80}, {"time": 99970, "pitch": 55, "duration": 100, "velocity": 70}, {"time": 99970, "pitch": 58, "duration": 100, "velocity": 60}, {"time": 100080, "pitch": 55, "duration": 110, "velocity": 80}, {"time": 100080, "pitch": 58, "duration": 100, "velocity": 70}, {"time": 100090, "pitch": 63, "duration": 100, "velocity": 80}, {"time": 100090, "pitch": 67, "duration": 100, "velocity": 90}, {"time": 100200, "pitch": 63, "duration": 100, "velocity": 80}, {"time": 100200, "pitch": 67, "duration": 110, "velocity": 90}, {"time": 100210, "pitch": 55, "duration": 100, "velocity": 80}, {"time": 100210, "pitch": 58, "duration": 100, "velocity": 70}, {"time": 100320, "pitch": 55, "duration": 110, "velocity": 90}, {"time": 100320, "pitch": 58, "duration": 100, "velocity": 80}, {"time": 100330, "pitch": 63, "duration": 100, "velocity": 90}, {"time": 100330, "pitch": 67, "duration": 100, "velocity": 100}, {"time": 100440, "pitch": 55, "duration": 10, "velocity": 80}, {"time": 100440, "pitch": 58, "duration": 10, "velocity": 70}, {"time": 100440, "pitch": 63, "duration": 10, "velocity": 80}, {"time": 100440, "pitch": 67, "duration": 10, "velocity": 90}, {"time": 100560, "pitch": 55, "duration": 10, "velocity": 70}, {"time": 100560, "pitch": 58, "duration": 10, "velocity": 60}, {"time": 100560, "pitch": 63, "duration": 10, "velocity": 70}, {"time": 100560, "pitch": 67, "duration": 10, "velocity": 80}, {"time": 100680, "pitch": 55, "duration": 10, "velocity": 60}, {"time": 100680, "pitch": 58, "duration": 10, "velocity": 50}, {"time": 100680, "pitch": 63, "duration": 10, "velocity": 60}, {"time": 100680, "pitch": 67, "duration": 10, "velocity": 70}, {"time": 100800, "pitch": 56, "duration": 110, "velocity": 60}, {"time": 100800, "pitch": 60, "duration": 100, "velocity": 50}, {"time": 100810, "pitch": 63, "duration": 100, "velocity": 60}, {"time": 100810, "pitch": 68, "duration": 100, "velocity": 70}, {"time": 100920, "pitch": 63, "duration": 100, "velocity": 80}, {"time": 100920, "pitch": 68, "duration": 110, "velocity": 90}, {"time": 100930, "pitch": 56, "duration": 100, "velocity": 80}, {"time": 100930, "pitch": 60, "duration": 100, "velocity": 70}, {"time": 101040, "pitch": 56, "duration": 110, "velocity": 90}, {"time": 101040, "pitch": 60, "duration": 100, "velocity": 80}, {"time": 101050, "pitch": 63, "duration": 100, "velocity": 90}, {"time": 101050, "pitch": 68, "duration": 100, "velocity": 100}, {"time": 101160, "pitch": 63, "duration": 100, "velocity": 80}, {"time": 101160, "pitch": 68, "duration": 110, "velocity": 90}, {"time": 101170, "pitch": 56, "duration": 100, "velocity": 80}, {"time": 101170, "pitch": 60, "duration": 100, "velocity": 70}, {"time": 101280, "pitch": 56, "duration": 110, "velocity": 90}, {"time": 101280, "pitch": 60, "duration": 100, "velocity": 80}, {"time": 101290, "pitch": 63, "duration": 100, "velocity": 90}, {"time": 101290, "pitch": 68, "duration": 100, "velocity": 100}, {"time": 101400, "pitch": 63, "duration": 10, "velocity": 80}, {"time": 101400, "pitch": 68, "duration": 10, "velocity": 90}, {"time": 101410, "pitch": 56, "duration": 10, "velocity": 80}, {"time": 101410, "pitch": 60, "duration": 10, "velocity": 70}, {"time": 101520, "pitch": 56, "duration": 10, "velocity": 80}, {"time": 101520, "pitch": 60, "duration": 10, "velocity": 70}, {"time": 101530, "pitch": 63, "duration": 10, "velocity": 80}, {"time": 101530, "pitch": 68, "duration": 10, "velocity": 90}, {"time": 101640, "pitch": 63, "duration": 100, "velocity": 90}, {"time": 101640, "pitch": 67, "duration": 100, "velocity": 100}, {"time": 101650, "pitch": 55, "duration": 100, "velocity": 90}, {"time": 101650, "pitch": 58, "duration": 100, "velocity": 80}, {"time": 101760, "pitch": 55, "duration": 10, "velocity": 60}, {"time": 101760, "pitch": 58, "duration": 10, "velocity": 50}, {"time": 101770, "pitch": 63, "duration": 10, "velocity": 60}, {"time": 101770, "pitch": 67, "duration": 10, "velocity": 70}, {"time": 101880, "pitch": 63, "duration": 100, "velocity": 70}, {"time": 101880, "pitch": 67, "duration": 110, "velocity": 80}, {"time": 101890, "pitch": 55, "duration": 100, "velocity": 70}, {"time": 101890, "pitch": 58, "duration": 100, "velocity": 60}, {"time": 102000, "pitch": 55, "duration": 110, "velocity": 80}, {"time": 102000, "pitch": 58, "duration": 100, "velocity": 70}, {"time": 102010, "pitch": 63, "duration": 100, "velocity": 80}, {"time": 102010, "pitch": 67, "duration": 100, "velocity": 90}, {"time": 102120, "pitch": 63, "duration": 100, "velocity": 80}, {"time": 102120, "pitch": 67, "duration": 110, "velocity": 90}, {"time": 102130, "pitch": 55, "duration": 100, "velocity": 80}, {"time": 102130, "pitch": 58, "duration": 100, "velocity": 70}, {"time": 102240, "pitch": 55, "duration": 110, "velocity": 90}, {"time": 102240, "pitch": 58, "duration": 100, "velocity": 80}, {"time": 102250, "pitch": 63, "duration": 100, "velocity": 90}, {"time": 102250, "pitch": 67, "duration": 100, "velocity": 100}, {"time": 102360, "pitch": 55, "duration": 10, "velocity": 80}, {"time": 102360, "pitch": 58, "duration": 10, "velocity": 70}, {"time": 102360, "pitch": 63, "duration": 10, "velocity": 80}, {"time": 102360, "pitch": 67, "duration": 10, "velocity": 90}, {"time": 102480, "pitch": 55, "duration": 10, "velocity": 70}, {"time": 102480, "pitch": 58, "duration": 10, "velocity": 60}, {"time": 102480, "pitch": 63, "duration": 10, "velocity": 70}, {"time": 102480, "pitch": 67, "duration": 10, "velocity": 80}, {"time": 102600, "pitch": 55, "duration": 10, "velocity": 60}, {"time": 102600, "pitch": 58, "duration": 10, "velocity": 50}, {"time": 102600, "pitch": 63, "duration": 10, "velocity": 60}, {"time": 102600, "pitch": 67, "duration": 10, "velocity": 70}, {"time": 102720, "pitch": 53, "duration": 110, "velocity": 60}, {"time": 102720, "pitch": 56, "duration": 100, "velocity": 50}, {"time": 102730, "pitch": 60, "duration": 100, "velocity": 60}, {"time": 102730, "pitch": 65, "duration": 100, "velocity": 70}, {"time": 102840, "pitch": 60, "duration": 100, "velocity": 80}, {"time": 102840, "pitch": 65, "duration": 110, "velocity": 90}, {"time": 102850, "pitch": 53, "duration": 100, "velocity": 80}, {"time": 102850, "pitch": 56, "duration": 100, "velocity": 70}, {"time": 102960, "pitch": 53, "duration": 110, "velocity": 90}, {"time": 102960, "pitch": 56, "duration": 100, "velocity": 80}, {"time": 102970, "pitch": 60, "duration": 100, "velocity": 90}, {"time": 102970, "pitch": 65, "duration": 100, "velocity": 100}, {"time": 103080, "pitch": 60, "duration": 100, "velocity": 80}, {"time": 103080, "pitch": 65, "duration": 110, "velocity": 90}, {"time": 103090, "pitch": 53, "duration": 100, "velocity": 80}, {"time": 103090, "pitch": 56, "duration": 100, "velocity": 70}, {"time": 103200, "pitch": 53, "duration": 110, "velocity": 90}, {"time": 103200, "pitch": 56, "duration": 100, "velocity": 80}, {"time": 103210, "pitch": 60, "duration": 100, "velocity": 90}, {"time": 103210, "pitch": 65, "duration": 100, "velocity": 100}, {"time": 103320, "pitch": 60, "duration": 10, "velocity": 80}, {"time": 103320, "pitch": 65, "duration": 10, "velocity": 90}, {"time": 103330, "pitch": 53, "duration": 10, "velocity": 80}, {"time": 103330, "pitch": 56, "duration": 10, "velocity": 70}, {"time": 103440, "pitch": 53, "duration": 10, "velocity": 80}, {"time": 103440, "pitch": 56, "duration": 10, "velocity": 70}, {"time": 103450, "pitch": 60, "duration": 10, "velocity": 80}, {"time": 103450, "pitch": 65, "duration": 10, "velocity": 90}, {"time": 103560, "pitch": 63, "duration": 100, "velocity": 90}, {"time": 103560, "pitch": 67, "duration": 100, "velocity": 100}, {"time": 103570, "pitch": 55, "duration": 100, "velocity": 90}, {"time": 103570, "pitch": 58, "duration": 100, "velocity": 80}, {"time": 103680, "pitch": 55, "duration": 10, "velocity": 60}, {"time": 103680, "pitch": 58, "duration": 10, "velocity": 50}, {"time": 103690, "pitch": 63, "duration": 10, "velocity": 60}, {"time": 103690, "pitch": 67, "duration": 10, "velocity": 70}, {"time": 103800, "pitch": 63, "duration": 100, "velocity": 70}, {"time": 103800, "pitch": 67, "duration": 110, "velocity": 80}, {"time": 103810, "pitch": 55, "duration": 100, "velocity": 70}, {"time": 103810, "pitch": 58, "duration": 100, "velocity": 60}, {"time": 103920, "pitch": 55, "duration": 110, "velocity": 80}, {"time": 103920, "pitch": 58, "duration": 100, "velocity": 70}, {"time": 103930, "pitch": 63, "duration": 100, "velocity": 80}, {"time": 103930, "pitch": 67, "duration": 100, "velocity": 90}, {"time": 104040, "pitch": 63, "duration": 100, "velocity": 80}, {"time": 104040, "pitch": 67, "duration": 110, "velocity": 90}, {"time": 104050, "pitch": 55, "duration": 100, "velocity": 80}, {"time": 104050, "pitch": 58, "duration": 100, "velocity": 70}, {"time": 104160, "pitch": 55, "duration": 110, "velocity": 90}, {"time": 104160, "pitch": 58, "duration": 100, "velocity": 80}, {"time": 104170, "pitch": 63, "duration": 100, "velocity": 90}, {"time": 104170, "pitch": 67, "duration": 100, "velocity": 100}, {"time": 104280, "pitch": 55, "duration": 10, "velocity": 80}, {"time": 104280, "pitch": 58, "duration": 10, "velocity": 70}, {"time": 104280, "pitch": 63, "duration": 10, "velocity": 80}, {"time": 104280, "pitch": 67, "duration": 10, "velocity": 90}, {"time": 104400, "pitch": 55, "duration": 10, "velocity": 70}, {"time": 104400, "pitch": 58, "duration": 10, "velocity": 60}, {"time": 104400, "pitch": 63, "duration": 10, "velocity": 70}, {"time": 104400, "pitch": 67, "duration": 10, "velocity": 80}, {"time": 104520, "pitch": 55, "duration": 10, "velocity": 60}, {"time": 104520, "pitch": 58, "duration": 10, "velocity": 50}, {"time": 104520, "pitch": 63, "duration": 10, "velocity": 60}, {"time": 104520, "pitch": 67, "duration": 10, "velocity": 70}, {"time": 104640, "pitch": 56, "duration": 110, "velocity": 60}, {"time": 104640, "pitch": 61, "duration": 100, "velocity": 50}, {"time": 104650, "pitch": 65, "duration": 100, "velocity": 60}, {"time": 104650, "pitch": 68, "duration": 100, "velocity": 70}, {"time": 104760, "pitch": 65, "duration": 100, "velocity": 80}, {"time": 104760, "pitch": 68, "duration": 110, "velocity": 90}, {"time": 104770, "pitch": 56, "duration": 100, "velocity": 80}, {"time": 104770, "pitch": 61, "duration": 100, "velocity": 70}, {"time": 104880, "pitch": 56, "duration": 110, "velocity": 90}, {"time": 104880, "pitch": 61, "duration": 100, "velocity": 80}, {"time": 104890, "pitch": 65, "duration": 100, "velocity": 90}, {"time": 104890, "pitch": 68, "duration": 100, "velocity": 100}, {"time": 105000, "pitch": 65, "duration": 100, "velocity": 80}, {"time": 105000, "pitch": 68, "duration": 110, "velocity": 90}, {"time": 105010, "pitch": 56, "duration": 100, "velocity": 80}, {"time": 105010, "pitch": 61, "duration": 100, "velocity": 70}, {"time": 105120, "pitch": 56, "duration": 110, "velocity": 90}, {"time": 105120, "pitch": 61, "duration": 100, "velocity": 80}, {"time": 105130, "pitch": 65, "duration": 100, "velocity": 90}, {"time": 105130, "pitch": 68, "duration": 100, "velocity": 100}, {"time": 105240, "pitch": 65, "duration": 10, "velocity": 80}, {"time": 105240, "pitch": 68, "duration": 10, "velocity": 90}, {"time": 105250, "pitch": 56, "duration": 10, "velocity": 80}, {"time": 105250, "pitch": 61, "duration": 10, "velocity": 70}, {"time": 105360, "pitch": 56, "duration": 10, "velocity": 80}, {"time": 105360, "pitch": 61, "duration": 10, "velocity": 70}, {"time": 105370, "pitch": 65, "duration": 10, "velocity": 80}, {"time": 105370, "pitch": 68, "duration": 10, "velocity": 90}, {"time": 105480, "pitch": 63, "duration": 100, "velocity": 90}, {"time": 105480, "pitch": 68, "duration": 100, "velocity": 100}, {"time": 105490, "pitch": 56, "duration": 100, "velocity": 90}, {"time": 105490, "pitch": 60, "duration": 100, "velocity": 80}, {"time": 105600, "pitch": 56, "duration": 10, "velocity": 60}, {"time": 105600, "pitch": 60, "duration": 10, "velocity": 50}, {"time": 105610, "pitch": 63, "duration": 10, "velocity": 60}, {"time": 105610, "pitch": 68, "duration": 10, "velocity": 70}, {"time": 105720, "pitch": 63, "duration": 100, "velocity": 70}, {"time": 105720, "pitch": 68, "duration": 110, "velocity": 80}, {"time": 105730, "pitch": 56, "duration": 100, "velocity": 70}, {"time": 105730, "pitch": 60, "duration": 100, "velocity": 60}, {"time": 105840, "pitch": 56, "duration": 110, "velocity": 80}, {"time": 105840, "pitch": 60, "duration": 100, "velocity": 70}, {"time": 105850, "pitch": 63, "duration": 100, "velocity": 80}, {"time": 105850, "pitch": 68, "duration": 100, "velocity": 90}, {"time": 105960, "pitch": 63, "duration": 100, "velocity": 80}, {"time": 105960, "pitch": 68, "duration": 110, "velocity": 90}, {"time": 105970, "pitch": 56, "duration": 100, "velocity": 80}, {"time": 105970, "pitch": 60, "duration": 100, "velocity": 70}, {"time": 106080, "pitch": 56, "duration": 110, "velocity": 90}, {"time": 106080, "pitch": 60, "duration": 100, "velocity": 80}, {"time": 106090, "pitch": 63, "duration": 100, "velocity": 90}, {"time": 106090, "pitch": 68, "duration": 100, "velocity": 100}, {"time": 106200, "pitch": 56, "duration": 10, "velocity": 80}, {"time": 106200, "pitch": 60, "duration": 10, "velocity": 70}, {"time": 106200, "pitch": 63, "duration": 10, "velocity": 80}, {"time": 106200, "pitch": 68, "duration": 10, "velocity": 90}, {"time": 106320, "pitch": 53, "duration": 460, "velocity": 100}, {"time": 106320, "pitch": 56, "duration": 460, "velocity": 90}, {"time": 106330, "pitch": 61, "duration": 450, "velocity": 80}, {"time": 106330, "pitch": 65, "duration": 450, "velocity": 90}, {"time": 106800, "pitch": 53, "duration": 110, "velocity": 90}, {"time": 106800, "pitch": 56, "duration": 100, "velocity": 80}, {"time": 106810, "pitch": 61, "duration": 100, "velocity": 90}, {"time": 106810, "pitch": 65, "duration": 100, "velocity": 100}, {"time": 106920, "pitch": 61, "duration": 100, "velocity": 80}, {"time": 106920, "pitch": 65, "duration": 110, "velocity": 90}, {"time": 106930, "pitch": 53, "duration": 100, "velocity": 80}, {"time": 106930, "pitch": 56, "duration": 100, "velocity": 70}, {"time": 107040, "pitch": 53, "duration": 110, "velocity": 90}, {"time": 107040, "pitch": 56, "duration": 100, "velocity": 80}, {"time": 107050, "pitch": 61, "duration": 100, "velocity": 90}, {"time": 107050, "pitch": 65, "duration": 100, "velocity": 100}, {"time": 107160, "pitch": 61, "duration": 10, "velocity": 80}, {"time": 107160, "pitch": 65, "duration": 10, "velocity": 90}, {"time": 107170, "pitch": 53, "duration": 10, "velocity": 80}, {"time": 107170, "pitch": 56, "duration": 10, "velocity": 70}, {"time": 107280, "pitch": 63, "duration": 220, "velocity": 90}, {"time": 107280, "pitch": 67, "duration": 220, "velocity": 100}, {"time": 107290, "pitch": 55, "duration": 220, "velocity": 90}, {"time": 107290, "pitch": 58, "duration": 220, "velocity": 80}, {"time": 107520, "pitch": 55, "duration": 10, "velocity": 60}, {"time": 107520, "pitch": 58, "duration": 10, "velocity": 50}, {"time": 107530, "pitch": 63, "duration": 10, "velocity": 60}, {"time": 107530, "pitch": 67, "duration": 10, "velocity": 70}, {"time": 107640, "pitch": 63, "duration": 100, "velocity": 70}, {"time": 107640, "pitch": 67, "duration": 110, "velocity": 80}, {"time": 107650, "pitch": 55, "duration": 100, "velocity": 70}, {"time": 107650, "pitch": 58, "duration": 100, "velocity": 60}, {"time": 107760, "pitch": 55, "duration": 110, "velocity": 80}, {"time": 107760, "pitch": 58, "duration": 100, "velocity": 70}, {"time": 107770, "pitch": 63, "duration": 100, "velocity": 80}, {"time": 107770, "pitch": 67, "duration": 100, "velocity": 90}, {"time": 107880, "pitch": 63, "duration": 100, "velocity": 80}, {"time": 107880, "pitch": 67, "duration": 110, "velocity": 90}, {"time": 107890, "pitch": 55, "duration": 100, "velocity": 80}, {"time": 107890, "pitch": 58, "duration": 100, "velocity": 70}, {"time": 108000, "pitch": 55, "duration": 110, "velocity": 90}, {"time": 108000, "pitch": 58, "duration": 100, "velocity": 80}, {"time": 108010, "pitch": 63, "duration": 100, "velocity": 90}, {"time": 108010, "pitch": 67, "duration": 100, "velocity": 100}, {"time": 108120, "pitch": 55, "duration": 10, "velocity": 80}, {"time": 108120, "pitch": 58, "duration": 10, "velocity": 70}, {"time": 108120, "pitch": 63, "duration": 10, "velocity": 80}, {"time": 108120, "pitch": 67, "duration": 10, "velocity": 90}, {"time": 108240, "pitch": 55, "duration": 10, "velocity": 70}, {"time": 108240, "pitch": 58, "duration": 10, "velocity": 60}, {"time": 108240, "pitch": 63, "duration": 10, "velocity": 70}, {"time": 108240, "pitch": 67, "duration": 10, "velocity": 80}, {"time": 108360, "pitch": 55, "duration": 10, "velocity": 60}, {"time": 108360, "pitch": 58, "duration": 10, "velocity": 50}, {"time": 108360, "pitch": 63, "duration": 10, "velocity": 60}, {"time": 108360, "pitch": 67, "duration": 10, "velocity": 70}, {"time": 108480, "pitch": 45, "duration": 220, "velocity": 100}, {"time": 108720, "pitch": 47, "duration": 150, "velocity": 100}, {"time": 108960, "pitch": 48, "duration": 150, "velocity": 100}, {"time": 109200, "pitch": 50, "duration": 1150, "velocity": 100}, {"time": 110400, "pitch": 44, "duration": 220, "velocity": 100}, {"time": 110640, "pitch": 46, "duration": 150, "velocity": 100}, {"time": 110880, "pitch": 48, "duration": 150, "velocity": 100}, {"time": 111120, "pitch": 49, "duration": 1150, "velocity": 100}, {"time": 112320, "pitch": 60, "duration": 110, "velocity": 100}, {"time": 112330, "pitch": 72, "duration": 100, "velocity": 110}, {"time": 112440, "pitch": 72, "duration": 100, "velocity": 80}, {"time": 112450, "pitch": 60, "duration": 100, "velocity": 70}, {"time": 112560, "pitch": 60, "duration": 110, "velocity": 90}, {"time": 112570, "pitch": 72, "duration": 100, "velocity": 100}, {"time": 112680, "pitch": 72, "duration": 100, "velocity": 100}, {"time": 112690, "pitch": 60, "duration": 100, "velocity": 90}, {"time": 112800, "pitch": 60, "duration": 110, "velocity": 110}, {"time": 112810, "pitch": 72, "duration": 100, "velocity": 110}, {"time": 112920, "pitch": 72, "duration": 10, "velocity": 100}, {"time": 112930, "pitch": 60, "duration": 10, "velocity": 90}, {"time": 113040, "pitch": 60, "duration": 10, "velocity": 80}, {"time": 113050, "pitch": 72, "duration": 10, "velocity": 90}, {"time": 113160, "pitch": 72, "duration": 100, "velocity": 90}, {"time": 113170, "pitch": 60, "duration": 100, "velocity": 80}, {"time": 113280, "pitch": 60, "duration": 10, "velocity": 60}, {"time": 113290, "pitch": 72, "duration": 10, "velocity": 70}, {"time": 113400, "pitch": 72, "duration": 100, "velocity": 80}, {"time": 113410, "pitch": 60, "duration": 100, "velocity": 70}, {"time": 113520, "pitch": 60, "duration": 110, "velocity": 90}, {"time": 113530, "pitch": 72, "duration": 100, "velocity": 100}, {"time": 113640, "pitch": 72, "duration": 100, "velocity": 100}, {"time": 113650, "pitch": 60, "duration": 100, "velocity": 90}, {"time": 113760, "pitch": 60, "duration": 80, "velocity": 110}, {"time": 113770, "pitch": 72, "duration": 80, "velocity": 110}, {"time": 113880, "pitch": 60, "duration": 10, "velocity": 80}, {"time": 113880, "pitch": 72, "duration": 10, "velocity": 90}, {"time": 114000, "pitch": 60, "duration": 10, "velocity": 70}, {"time": 114000, "pitch": 72, "duration": 10, "velocity": 80}, {"time": 114120, "pitch": 60, "duration": 10, "velocity": 80}, {"time": 114120, "pitch": 72, "duration": 10, "velocity": 90}, {"time": 114240, "pitch": 60, "duration": 110, "velocity": 100}, {"time": 114250, "pitch": 72, "duration": 100, "velocity": 110}, {"time": 114360, "pitch": 72, "duration": 100, "velocity": 80}, {"time": 114370, "pitch": 60, "duration": 100, "velocity": 70}, {"time": 114480, "pitch": 60, "duration": 110, "velocity": 90}, {"time": 114490, "pitch": 72, "duration": 100, "velocity": 100}, {"time": 114600, "pitch": 72, "duration": 100, "velocity": 100}, {"time": 114610, "pitch": 60, "duration": 100, "velocity": 90}, {"time": 114720, "pitch": 60, "duration": 110, "velocity": 110}, {"time": 114730, "pitch": 72, "duration": 100, "velocity": 110}, {"time": 114840, "pitch": 72, "duration": 10, "velocity": 100}, {"time": 114850, "pitch": 60, "duration": 10, "velocity": 90}, {"time": 114960, "pitch": 60, "duration": 10, "velocity": 80}, {"time": 114970, "pitch": 72, "duration": 10, "velocity": 90}, {"time": 115080, "pitch": 72, "duration": 100, "velocity": 90}, {"time": 115090, "pitch": 60, "duration": 100, "velocity": 80}, {"time": 115200, "pitch": 60, "duration": 10, "velocity": 60}, {"time": 115210, "pitch": 72, "duration": 10, "velocity": 70}, {"time": 115320, "pitch": 72, "duration": 100, "velocity": 80}, {"time": 115330, "pitch": 60, "duration": 100, "velocity": 70}, {"time": 115440, "pitch": 60, "duration": 110, "velocity": 90}, {"time": 115450, "pitch": 72, "duration": 100, "velocity": 100}, {"time": 115560, "pitch": 72, "duration": 100, "velocity": 100}, {"time": 115570, "pitch": 60, "duration": 100, "velocity": 90}, {"time": 115680, "pitch": 60, "duration": 80, "velocity": 110}, {"time": 115690, "pitch": 72, "duration": 80, "velocity": 110}, {"time": 115800, "pitch": 60, "duration": 10, "velocity": 80}, {"time": 115800, "pitch": 72, "duration": 10, "velocity": 90}, {"time": 115920, "pitch": 60, "duration": 10, "velocity": 70}, {"time": 115920, "pitch": 72, "duration": 10, "velocity": 80}, {"time": 116040, "pitch": 60, "duration": 10, "velocity": 80}, {"time": 116040, "pitch": 72, "duration": 10, "velocity": 90}, {"time": 146880, "pitch": 58, "duration": 110, "velocity": 60}, {"time": 146880, "pitch": 61, "duration": 100, "velocity": 50}, {"time": 146890, "pitch": 65, "duration": 100, "velocity": 60}, {"time": 146890, "pitch": 70, "duration": 100, "velocity": 70}, {"time": 147000, "pitch": 65, "duration": 100, "velocity": 80}, {"time": 147000, "pitch": 70, "duration": 110, "velocity": 90}, {"time": 147010, "pitch": 58, "duration": 100, "velocity": 80}, {"time": 147010, "pitch": 61, "duration": 100, "velocity": 70}, {"time": 147120, "pitch": 58, "duration": 110, "velocity": 90}, {"time": 147120, "pitch": 61, "duration": 100, "velocity": 80}, {"time": 147130, "pitch": 65, "duration": 100, "velocity": 90}, {"time": 147130, "pitch": 70, "duration": 100, "velocity": 100}, {"time": 147240, "pitch": 65, "duration": 100, "velocity": 80}, {"time": 147240, "pitch": 70, "duration": 110, "velocity": 90}, {"time": 147250, "pitch": 58, "duration": 100, "velocity": 80}, {"time": 147250, "pitch": 61, "duration": 100, "velocity": 70}, {"time": 147360, "pitch": 58, "duration": 110, "velocity": 90}, {"time": 147360, "pitch": 61, "duration": 100, "velocity": 80}, {"time": 147370, "pitch": 65, "duration": 100, "velocity": 90}, {"time": 147370, "pitch": 70, "duration": 100, "velocity": 100}, {"time": 147480, "pitch": 65, "duration": 10, "velocity": 80}, {"time": 147480, "pitch": 70, "duration": 10, "velocity": 90}, {"time": 147490, "pitch": 58, "duration": 10, "velocity": 80}, {"time": 147490, "pitch": 61, "duration": 10, "velocity": 70}, {"time": 147600, "pitch": 58, "duration": 10, "velocity": 80}, {"time": 147600, "pitch": 61, "duration": 10, "velocity": 70}, {"time": 147610, "pitch": 65, "duration": 10, "velocity": 80}, {"time": 147610, "pitch": 70, "duration": 10, "velocity": 90}, {"time": 147720, "pitch": 65, "duration": 100, "velocity": 90}, {"time": 147720, "pitch": 70, "duration": 100, "velocity": 100}, {"time": 147730, "pitch": 58, "duration": 100, "velocity": 90}, {"time": 147730, "pitch": 61, "duration": 100, "velocity": 80}, {"time": 147840, "pitch": 58, "duration": 10, "velocity": 60}, {"time": 147840, "pitch": 61, "duration": 10, "velocity": 50}, {"time": 147850, "pitch": 65, "duration": 10, "velocity": 60}, {"time": 147850, "pitch": 70, "duration": 10, "velocity": 70}, {"time": 147960, "pitch": 65, "duration": 100, "velocity": 70}, {"time": 147960, "pitch": 70, "duration": 110, "velocity": 80}, {"time": 147970, "pitch": 58, "duration": 100, "velocity": 70}, {"time": 147970, "pitch": 61, "duration": 100, "velocity": 60}, {"time": 148080, "pitch": 58, "duration": 110, "velocity": 80}, {"time": 148080, "pitch": 61, "duration": 100, "velocity": 70}, {"time": 148090, "pitch": 65, "duration": 100, "velocity": 80}, {"time": 148090, "pitch": 70, "duration": 100, "velocity": 90}, {"time": 148200, "pitch": 65, "duration": 100, "velocity": 80}, {"time": 148200, "pitch": 70, "duration": 110, "velocity": 90}, {"time": 148210, "pitch": 58, "duration": 100, "velocity": 80}, {"time": 148210, "pitch": 61, "duration": 100, "velocity": 70}, {"time": 148320, "pitch": 58, "duration": 110, "velocity": 90}, {"time": 148320, "pitch": 61, "duration": 100, "velocity": 80}, {"time": 148330, "pitch": 65, "duration": 100, "velocity": 90}, {"time": 148330, "pitch": 70, "duration": 100, "velocity": 100}, {"time": 148440, "pitch": 58, "duration": 10, "velocity": 80}, {"time": 148440, "pitch": 61, "duration": 10, "velocity": 70}, {"time": 148440, "pitch": 65, "duration": 10, "velocity": 80}, {"time": 148440, "pitch": 70, "duration": 10, "velocity": 90}, {"time": 148560, "pitch": 58, "duration": 10, "velocity": 70}, {"time": 148560, "pitch": 61, "duration": 10, "velocity": 60}, {"time": 148560, "pitch": 65, "duration": 10, "velocity": 70}, {"time": 148560, "pitch": 70, "duration": 10, "velocity": 80}, {"time": 148680, "pitch": 58, "duration": 10, "velocity": 60}, {"time": 148680, "pitch": 61, "duration": 10, "velocity": 50}, {"time": 148680, "pitch": 65, "duration": 10, "velocity": 60}, {"time": 148680, "pitch": 70, "duration": 10, "velocity": 70}, {"time": 148800, "pitch": 63, "duration": 110, "velocity": 100}, {"time": 148810, "pitch": 75, "duration": 100, "velocity": 110}, {"time": 148920, "pitch": 75, "duration": 100, "velocity": 80}, {"time": 148930, "pitch": 63, "duration": 100, "velocity": 70}, {"time": 149040, "pitch": 63, "duration": 110, "velocity": 90}, {"time": 149050, "pitch": 75, "duration": 100, "velocity": 100}, {"time": 149160, "pitch": 75, "duration": 100, "velocity": 100}, {"time": 149170, "pitch": 63, "duration": 100, "velocity": 90}, {"time": 149280, "pitch": 63, "duration": 110, "velocity": 110}, {"time": 149290, "pitch": 75, "duration": 100, "velocity": 110}, {"time": 149400, "pitch": 75, "duration": 10, "velocity": 100}, {"time": 149410, "pitch": 63, "duration": 10, "velocity": 90}, {"time": 149520, "pitch": 63, "duration": 10, "velocity": 80}, {"time": 149530, "pitch": 75, "duration": 10, "velocity": 90}, {"time": 149640, "pitch": 75, "duration": 100, "velocity": 90}, {"time": 149650, "pitch": 63, "duration": 100, "velocity": 80}, {"time": 149760, "pitch": 63, "duration": 10, "velocity": 60}, {"time": 149770, "pitch": 75, "duration": 10, "velocity": 70}, {"time": 149880, "pitch": 75, "duration": 100, "velocity": 80}, {"time": 149890, "pitch": 63, "duration": 100, "velocity": 70}, {"time": 150000, "pitch": 63, "duration": 110, "velocity": 90}, {"time": 150010, "pitch": 75, "duration": 100, "velocity": 100}, {"time": 150120, "pitch": 75, "duration": 100, "velocity": 100}, {"time": 150130, "pitch": 63, "duration": 100, "velocity": 90}, {"time": 150240, "pitch": 63, "duration": 80, "velocity": 110}, {"time": 150250, "pitch": 75, "duration": 80, "velocity": 110}, {"time": 150360, "pitch": 63, "duration": 10, "velocity": 80}, {"time": 150360, "pitch": 75, "duration": 10, "velocity": 90}, {"time": 150480, "pitch": 63, "duration": 10, "velocity": 70}, {"time": 150480, "pitch": 75, "duration": 10, "velocity": 80}, {"time": 150600, "pitch": 63, "duration": 10, "velocity": 80}, {"time": 150600, "pitch": 75, "duration": 10, "velocity": 90}, {"time": 150720, "pitch": 63, "duration": 110, "velocity": 100}, {"time": 150730, "pitch": 75, "duration": 100, "velocity": 110}, {"time": 150840, "pitch": 75, "duration": 100, "velocity": 80}, {"time": 150850, "pitch": 63, "duration": 100, "velocity": 70}, {"time": 150960, "pitch": 63, "duration": 110, "velocity": 90}, {"time": 150970, "pitch": 75, "duration": 100, "velocity": 100}, {"time": 151080, "pitch": 75, "duration": 100, "velocity": 100}, {"time": 151090, "pitch": 63, "duration": 100, "velocity": 90}, {"time": 151200, "pitch": 63, "duration": 110, "velocity": 110}, {"time": 151210, "pitch": 75, "duration": 100, "velocity": 110}, {"time": 151320, "pitch": 75, "duration": 10, "velocity": 100}, {"time": 151330, "pitch": 63, "duration": 10, "velocity": 90}, {"time": 151440, "pitch": 63, "duration": 10, "velocity": 80}, {"time": 151450, "pitch": 75, "duration": 10, "velocity": 90}, {"time": 151560, "pitch": 75, "duration": 100, "velocity": 90}, {"time": 151570, "pitch": 63, "duration": 100, "velocity": 80}, {"time": 151680, "pitch": 63, "duration": 10, "velocity": 60}, {"time": 151690, "pitch": 75, "duration": 10, "velocity": 70}, {"time": 151800, "pitch": 75, "duration": 100, "velocity": 80}, {"time": 151810, "pitch": 63, "duration": 100, "velocity": 70}, {"time": 151920, "pitch": 63, "duration": 110, "velocity": 90}, {"time": 151930, "pitch": 75, "duration": 100, "velocity": 100}, {"time": 152040, "pitch": 75, "duration": 100, "velocity": 100}, {"time": 152050, "pitch": 63, "duration": 100, "velocity": 90}, {"time": 152160, "pitch": 63, "duration": 80, "velocity": 110}, {"time": 152170, "pitch": 75, "duration": 80, "velocity": 110}, {"time": 152280, "pitch": 63, "duration": 10, "velocity": 80}, {"time": 152280, "pitch": 75, "duration": 10, "velocity": 90}, {"time": 152400, "pitch": 63, "duration": 10, "velocity": 70}, {"time": 152400, "pitch": 75, "duration": 10, "velocity": 80}, {"time": 152520, "pitch": 63, "duration": 10, "velocity": 80}, {"time": 152520, "pitch": 75, "duration": 10, "velocity": 90}, {"time": 152640, "pitch": 63, "duration": 110, "velocity": 100}, {"time": 152650, "pitch": 75, "duration": 100, "velocity": 110}, {"time": 152760, "pitch": 75, "duration": 100, "velocity": 80}, {"time": 152770, "pitch": 63, "duration": 100, "velocity": 70}, {"time": 152880, "pitch": 63, "duration": 110, "velocity": 90}, {"time": 152890, "pitch": 75, "duration": 100, "velocity": 100}, {"time": 153000, "pitch": 75, "duration": 100, "velocity": 100}, {"time": 153010, "pitch": 63, "duration": 100, "velocity": 90}, {"time": 153120, "pitch": 63, "duration": 110, "velocity": 110}, {"time": 153130, "pitch": 75, "duration": 100, "velocity": 110}, {"time": 153240, "pitch": 75, "duration": 10, "velocity": 100}, {"time": 153250, "pitch": 63, "duration": 10, "velocity": 90}, {"time": 153360, "pitch": 63, "duration": 10, "velocity": 80}, {"time": 153370, "pitch": 75, "duration": 10, "velocity": 90}, {"time": 153480, "pitch": 75, "duration": 100, "velocity": 90}, {"time": 153490, "pitch": 63, "duration": 100, "velocity": 80}, {"time": 153600, "pitch": 63, "duration": 10, "velocity": 60}, {"time": 153610, "pitch": 75, "duration": 10, "velocity": 70}, {"time": 153720, "pitch": 75, "duration": 100, "velocity": 80}, {"time": 153730, "pitch": 63, "duration": 100, "velocity": 70}, {"time": 153840, "pitch": 63, "duration": 110, "velocity": 90}, {"time": 153850, "pitch": 75, "duration": 100, "velocity": 100}, {"time": 153960, "pitch": 75, "duration": 100, "velocity": 100}, {"time": 153970, "pitch": 63, "duration": 100, "velocity": 90}, {"time": 154080, "pitch": 63, "duration": 80, "velocity": 110}, {"time": 154090, "pitch": 75, "duration": 80, "velocity": 110}, {"time": 154200, "pitch": 63, "duration": 10, "velocity": 80}, {"time": 154200, "pitch": 75, "duration": 10, "velocity": 90}, {"time": 154320, "pitch": 63, "duration": 10, "velocity": 70}, {"time": 154320, "pitch": 75, "duration": 10, "velocity": 80}, {"time": 154440, "pitch": 63, "duration": 10, "velocity": 80}, {"time": 154440, "pitch": 75, "duration": 10, "velocity": 90}, {"time": 154560, "pitch": 60, "duration": 110, "velocity": 60}, {"time": 154560, "pitch": 63, "duration": 100, "velocity": 50}, {"time": 154570, "pitch": 67, "duration": 100, "velocity": 60}, {"time": 154570, "pitch": 72, "duration": 100, "velocity": 70}, {"time": 154680, "pitch": 67, "duration": 100, "velocity": 80}, {"time": 154680, "pitch": 72, "duration": 110, "velocity": 90}, {"time": 154690, "pitch": 60, "duration": 100, "velocity": 80}, {"time": 154690, "pitch": 63, "duration": 100, "velocity": 70}, {"time": 154800, "pitch": 60, "duration": 110, "velocity": 90}, {"time": 154800, "pitch": 63, "duration": 100, "velocity": 80}, {"time": 154810, "pitch": 67, "duration": 100, "velocity": 90}, {"time": 154810, "pitch": 72, "duration": 100, "velocity": 100}, {"time": 154920, "pitch": 67, "duration": 100, "velocity": 80}, {"time": 154920, "pitch": 72, "duration": 110, "velocity": 90}, {"time": 154930, "pitch": 60, "duration": 100, "velocity": 80}, {"time": 154930, "pitch": 63, "duration": 100, "velocity": 70}, {"time": 155040, "pitch": 60, "duration": 110, "velocity": 90}, {"time": 155040, "pitch": 63, "duration": 100, "velocity": 80}, {"time": 155050, "pitch": 67, "duration": 100, "velocity": 90}, {"time": 155050, "pitch": 72, "duration": 100, "velocity": 100}, {"time": 155160, "pitch": 67, "duration": 10, "velocity": 80}, {"time": 155160, "pitch": 72, "duration": 10, "velocity": 90}, {"time": 155170, "pitch": 60, "duration": 10, "velocity": 80}, {"time": 155170, "pitch": 63, "duration": 10, "velocity": 70}, {"time": 155280, "pitch": 60, "duration": 10, "velocity": 80}, {"time": 155280, "pitch": 63, "duration": 10, "velocity": 70}, {"time": 155290, "pitch": 67, "duration": 10, "velocity": 80}, {"time": 155290, "pitch": 72, "duration": 10, "velocity": 90}, {"time": 155400, "pitch": 67, "duration": 100, "velocity": 90}, {"time": 155400, "pitch": 72, "duration": 100, "velocity": 100}, {"time": 155410, "pitch": 60, "duration": 100, "velocity": 90}, {"time": 155410, "pitch": 63, "duration": 100, "velocity": 80}, {"time": 155520, "pitch": 60, "duration": 10, "velocity": 60}, {"time": 155520, "pitch": 63, "duration": 10, "velocity": 50}, {"time": 155530, "pitch": 67, "duration": 10, "velocity": 60}, {"time": 155530, "pitch": 72, "duration": 10, "velocity": 70}, {"time": 155640, "pitch": 67, "duration": 100, "velocity": 70}, {"time": 155640, "pitch": 72, "duration": 110, "velocity": 80}, {"time": 155650, "pitch": 60, "duration": 100, "velocity": 70}, {"time": 155650, "pitch": 63, "duration": 100, "velocity": 60}, {"time": 155760, "pitch": 60, "duration": 110, "velocity": 80}, {"time": 155760, "pitch": 63, "duration": 100, "velocity": 70}, {"time": 155770, "pitch": 67, "duration": 100, "velocity": 80}, {"time": 155770, "pitch": 72, "duration": 100, "velocity": 90}, {"time": 155880, "pitch": 67, "duration": 100, "velocity": 80}, {"time": 155880, "pitch": 72, "duration": 110, "velocity": 90}, {"time": 155890, "pitch": 60, "duration": 100, "velocity": 80}, {"time": 155890, "pitch": 63, "duration": 100, "velocity": 70}, {"time": 156000, "pitch": 60, "duration": 110, "velocity": 90}, {"time": 156000, "pitch": 63, "duration": 100, "velocity": 80}, {"time": 156010, "pitch": 67, "duration": 100, "velocity": 90}, {"time": 156010, "pitch": 72, "duration": 100, "velocity": 100}, {"time": 156120, "pitch": 60, "duration": 10, "velocity": 80}, {"time": 156120, "pitch": 63, "duration": 10, "velocity": 70}, {"time": 156120, "pitch": 67, "duration": 10, "velocity": 80}, {"time": 156120, "pitch": 72, "duration": 10, "velocity": 90}, {"time": 156240, "pitch": 60, "duration": 10, "velocity": 70}, {"time": 156240, "pitch": 63, "duration": 10, "velocity": 60}, {"time": 156240, "pitch": 67, "duration": 10, "velocity": 70}, {"time": 156240, "pitch": 72, "duration": 10, "velocity": 80}, {"time": 156360, "pitch": 60, "duration": 10, "velocity": 60}, {"time": 156360, "pitch": 63, "duration": 10, "velocity": 50}, {"time": 156360, "pitch": 67, "duration": 10, "velocity": 60}, {"time": 156360, "pitch": 72, "duration": 10, "velocity": 70}, {"time": 156480, "pitch": 60, "duration": 110, "velocity": 60}, {"time": 156480, "pitch": 65, "duration": 100, "velocity": 50}, {"time": 156490, "pitch": 68, "duration": 100, "velocity": 60}, {"time": 156490, "pitch": 72, "duration": 100, "velocity": 70}, {"time": 156600, "pitch": 68, "duration": 100, "velocity": 80}, {"time": 156600, "pitch": 72, "duration": 110, "velocity": 90}, {"time": 156610, "pitch": 60, "duration": 100, "velocity": 80}, {"time": 156610, "pitch": 65, "duration": 100, "velocity": 70}, {"time": 156720, "pitch": 60, "duration": 110, "velocity": 90}, {"time": 156720, "pitch": 65, "duration": 100, "velocity": 80}, {"time": 156730, "pitch": 68, "duration": 100, "velocity": 90}, {"time": 156730, "pitch": 72, "duration": 100, "velocity": 100}, {"time": 156840, "pitch": 68, "duration": 100, "velocity": 80}, {"time": 156840, "pitch": 72, "duration": 110, "velocity": 90}, {"time": 156850, "pitch": 60, "duration": 100, "velocity": 80}, {"time": 156850, "pitch": 65, "duration": 100, "velocity": 70}, {"time": 156960, "pitch": 60, "duration": 110, "velocity": 90}, {"time": 156960, "pitch": 65, "duration": 100, "velocity": 80}, {"time": 156970, "pitch": 68, "duration": 100, "velocity": 90}, {"time": 156970, "pitch": 72, "duration": 100, "velocity": 100}, {"time": 157080, "pitch": 68, "duration": 10, "velocity": 80}, {"time": 157080, "pitch": 72, "duration": 10, "velocity": 90}, {"time": 157090, "pitch": 60, "duration": 10, "velocity": 80}, {"time": 157090, "pitch": 65, "duration": 10, "velocity": 70}, {"time": 157200, "pitch": 60, "duration": 10, "velocity": 80}, {"time": 157200, "pitch": 65, "duration": 10, "velocity": 70}, {"time": 157210, "pitch": 68, "duration": 10, "velocity": 80}, {"time": 157210, "pitch": 72, "duration": 10, "velocity": 90}, {"time": 157320, "pitch": 67, "duration": 100, "velocity": 90}, {"time": 157320, "pitch": 72, "duration": 100, "velocity": 100}, {"time": 157330, "pitch": 58, "duration": 100, "velocity": 90}, {"time": 157330, "pitch": 63, "duration": 100, "velocity": 80}, {"time": 157440, "pitch": 58, "duration": 10, "velocity": 60}, {"time": 157440, "pitch": 63, "duration": 10, "velocity": 50}, {"time": 157450, "pitch": 67, "duration": 10, "velocity": 60}, {"time": 157450, "pitch": 72, "duration": 10, "velocity": 70}, {"time": 157560, "pitch": 67, "duration": 100, "velocity": 70}, {"time": 157560, "pitch": 72, "duration": 110, "velocity": 80}, {"time": 157570, "pitch": 58, "duration": 100, "velocity": 70}, {"time": 157570, "pitch": 63, "duration": 100, "velocity": 60}, {"time": 157680, "pitch": 58, "duration": 110, "velocity": 80}, {"time": 157680, "pitch": 63, "duration": 100, "velocity": 70}, {"time": 157690, "pitch": 67, "duration": 100, "velocity": 80}, {"time": 157690, "pitch": 72, "duration": 100, "velocity": 90}, {"time": 157800, "pitch": 67, "duration": 100, "velocity": 80}, {"time": 157800, "pitch": 72, "duration": 110, "velocity": 90}, {"time": 157810, "pitch": 58, "duration": 100, "velocity": 80}, {"time": 157810, "pitch": 63, "duration": 100, "velocity": 70}, {"time": 157920, "pitch": 58, "duration": 110, "velocity": 90}, {"time": 157920, "pitch": 63, "duration": 100, "velocity": 80}, {"time": 157930, "pitch": 67, "duration": 100, "velocity": 90}, {"time": 157930, "pitch": 72, "duration": 100, "velocity": 100}, {"time": 158040, "pitch": 58, "duration": 10, "velocity": 80}, {"time": 158040, "pitch": 63, "duration": 10, "velocity": 70}, {"time": 158040, "pitch": 67, "duration": 10, "velocity": 80}, {"time": 158040, "pitch": 72, "duration": 10, "velocity": 90}, {"time": 158160, "pitch": 58, "duration": 10, "velocity": 70}, {"time": 158160, "pitch": 63, "duration": 10, "velocity": 60}, {"time": 158160, "pitch": 67, "duration": 10, "velocity": 70}, {"time": 158160, "pitch": 72, "duration": 10, "velocity": 80}, {"time": 158280, "pitch": 58, "duration": 10, "velocity": 60}, {"time": 158280, "pitch": 63, "duration": 10, "velocity": 50}, {"time": 158280, "pitch": 67, "duration": 10, "velocity": 60}, {"time": 158280, "pitch": 72, "duration": 10, "velocity": 70}, {"time": 158640, "pitch": 61, "duration": 140, "velocity": 90}, {"time": 158640, "pitch": 65, "duration": 130, "velocity": 90}, {"time": 158640, "pitch": 68, "duration": 140, "velocity": 100}, {"time": 158880, "pitch": 61, "duration": 190, "velocity": 100}, {"time": 158880, "pitch": 65, "duration": 170, "velocity": 90}, {"time": 158880, "pitch": 68, "duration": 200, "velocity": 90}, {"time": 159360, "pitch": 60, "duration": 160, "velocity": 90}, {"time": 159360, "pitch": 63, "duration": 150, "velocity": 90}, {"time": 159360, "pitch": 68, "duration": 170, "velocity": 100}, {"time": 159600, "pitch": 60, "duration": 170, "velocity": 100}, {"time": 159600, "pitch": 63, "duration": 170, "velocity": 90}, {"time": 159600, "pitch": 68, "duration": 170, "velocity": 90}, {"time": 160320, "pitch": 63, "duration": 110, "velocity": 100}, {"time": 160330, "pitch": 75, "duration": 100, "velocity": 110}, {"time": 160440, "pitch": 75, "duration": 100, "velocity": 80}, {"time": 160450, "pitch": 63, "duration": 100, "velocity": 70}, {"time": 160560, "pitch": 63, "duration": 110, "velocity": 90}, {"time": 160570, "pitch": 75, "duration": 100, "velocity": 100}, {"time": 160680, "pitch": 75, "duration": 100, "velocity": 100}, {"time": 160690, "pitch": 63, "duration": 100, "velocity": 90}, {"time": 160800, "pitch": 63, "duration": 110, "velocity": 110}, {"time": 160810, "pitch": 75, "duration": 100, "velocity": 110}, {"time": 160920, "pitch": 75, "duration": 10, "velocity": 100}, {"time": 160930, "pitch": 63, "duration": 10, "velocity": 90}, {"time": 161040, "pitch": 63, "duration": 10, "velocity": 80}, {"time": 161050, "pitch": 75, "duration": 10, "velocity": 90}, {"time": 161160, "pitch": 75, "duration": 100, "velocity": 90}, {"time": 161170, "pitch": 63, "duration": 100, "velocity": 80}, {"time": 161280, "pitch": 63, "duration": 10, "velocity": 60}, {"time": 161290, "pitch": 75, "duration": 10, "velocity": 70}, {"time": 161400, "pitch": 75, "duration": 100, "velocity": 80}, {"time": 161410, "pitch": 63, "duration": 100, "velocity": 70}, {"time": 161520, "pitch": 63, "duration": 110, "velocity": 90}, {"time": 161530, "pitch": 75, "duration": 100, "velocity": 100}, {"time": 161640, "pitch": 75, "duration": 100, "velocity": 100}, {"time": 161650, "pitch": 63, "duration": 100, "velocity": 90}, {"time": 161760, "pitch": 63, "duration": 80, "velocity": 110}, {"time": 161770, "pitch": 75, "duration": 80, "velocity": 110}, {"time": 161880, "pitch": 63, "duration": 10, "velocity": 80}, {"time": 161880, "pitch": 75, "duration": 10, "velocity": 90}, {"time": 162000, "pitch": 63, "duration": 10, "velocity": 70}, {"time": 162000, "pitch": 75, "duration": 10, "velocity": 80}, {"time": 162120, "pitch": 63, "duration": 10, "velocity": 80}, {"time": 162120, "pitch": 75, "duration": 10, "velocity": 90}, {"time": 162240, "pitch": 63, "duration": 110, "velocity": 100}, {"time": 162250, "pitch": 75, "duration": 100, "velocity": 110}, {"time": 162360, "pitch": 75, "duration": 100, "velocity": 80}, {"time": 162370, "pitch": 63, "duration": 100, "velocity": 70}, {"time": 162480, "pitch": 63, "duration": 110, "velocity": 90}, {"time": 162490, "pitch": 75, "duration": 100, "velocity": 100}, {"time": 162600, "pitch": 75, "duration": 100, "velocity": 100}, {"time": 162610, "pitch": 63, "duration": 100, "velocity": 90}, {"time": 162720, "pitch": 63, "duration": 110, "velocity": 110}, {"time": 162730, "pitch": 75, "duration": 100, "velocity": 110}, {"time": 162840, "pitch": 75, "duration": 10, "velocity": 100}, {"time": 162850, "pitch": 63, "duration": 10, "velocity": 90}, {"time": 162960, "pitch": 63, "duration": 10, "velocity": 80}, {"time": 162970, "pitch": 75, "duration": 10, "velocity": 90}, {"time": 163080, "pitch": 75, "duration": 100, "velocity": 90}, {"time": 163090, "pitch": 63, "duration": 100, "velocity": 80}, {"time": 163200, "pitch": 63, "duration": 10, "velocity": 60}, {"time": 163210, "pitch": 75, "duration": 10, "velocity": 70}, {"time": 163320, "pitch": 75, "duration": 100, "velocity": 80}, {"time": 163330, "pitch": 63, "duration": 100, "velocity": 70}, {"time": 163440, "pitch": 63, "duration": 110, "velocity": 90}, {"time": 163450, "pitch": 75, "duration": 100, "velocity": 100}, {"time": 163560, "pitch": 75, "duration": 100, "velocity": 100}, {"time": 163570, "pitch": 63, "duration": 100, "velocity": 90}, {"time": 163680, "pitch": 63, "duration": 80, "velocity": 110}, {"time": 163690, "pitch": 75, "duration": 80, "velocity": 110}, {"time": 163800, "pitch": 63, "duration": 10, "velocity": 80}, {"time": 163800, "pitch": 75, "duration": 10, "velocity": 90}, {"time": 163920, "pitch": 63, "duration": 10, "velocity": 70}, {"time": 163920, "pitch": 75, "duration": 10, "velocity": 80}, {"time": 164040, "pitch": 63, "duration": 10, "velocity": 80}, {"time": 164040, "pitch": 75, "duration": 10, "velocity": 90}, {"time": 164160, "pitch": 63, "duration": 110, "velocity": 100}, {"time": 164170, "pitch": 75, "duration": 100, "velocity": 110}, {"time": 164280, "pitch": 75, "duration": 100, "velocity": 80}, {"time": 164290, "pitch": 63, "duration": 100, "velocity": 70}, {"time": 164400, "pitch": 63, "duration": 110, "velocity": 90}, {"time": 164410, "pitch": 75, "duration": 100, "velocity": 100}, {"time": 164520, "pitch": 75, "duration": 100, "velocity": 100}, {"time": 164530, "pitch": 63, "duration": 100, "velocity": 90}, {"time": 164640, "pitch": 63, "duration": 110, "velocity": 110}, {"time": 164650, "pitch": 75, "duration": 100, "velocity": 110}, {"time": 164760, "pitch": 75, "duration": 10, "velocity": 100}, {"time": 164770, "pitch": 63, "duration": 10, "velocity": 90}, {"time": 164880, "pitch": 63, "duration": 10, "velocity": 80}, {"time": 164890, "pitch": 75, "duration": 10, "velocity": 90}, {"time": 165000, "pitch": 75, "duration": 100, "velocity": 90}, {"time": 165010, "pitch": 63, "duration": 100, "velocity": 80}, {"time": 165120, "pitch": 63, "duration": 10, "velocity": 60}, {"time": 165130, "pitch": 75, "duration": 10, "velocity": 70}, {"time": 165240, "pitch": 75, "duration": 100, "velocity": 80}, {"time": 165250, "pitch": 63, "duration": 100, "velocity": 70}, {"time": 165360, "pitch": 63, "duration": 110, "velocity": 90}, {"time": 165370, "pitch": 75, "duration": 100, "velocity": 100}, {"time": 165480, "pitch": 75, "duration": 100, "velocity": 100}, {"time": 165490, "pitch": 63, "duration": 100, "velocity": 90}, {"time": 165600, "pitch": 63, "duration": 80, "velocity": 110}, {"time": 165610, "pitch": 75, "duration": 80, "velocity": 110}, {"time": 165720, "pitch": 63, "duration": 10, "velocity": 80}, {"time": 165720, "pitch": 75, "duration": 10, "velocity": 90}, {"time": 165840, "pitch": 63, "duration": 10, "velocity": 70}, {"time": 165840, "pitch": 75, "duration": 10, "velocity": 80}, {"time": 165960, "pitch": 63, "duration": 10, "velocity": 80}, {"time": 165960, "pitch": 75, "duration": 10, "velocity": 90}, {"time": 166080, "pitch": 63, "duration": 100, "velocity": 100}, {"time": 166090, "pitch": 75, "duration": 100, "velocity": 110}, {"time": 166320, "pitch": 63, "duration": 450, "velocity": 100}, {"time": 166330, "pitch": 75, "duration": 450, "velocity": 110}, {"time": 166800, "pitch": 63, "duration": 1150, "velocity": 100}, {"time": 166810, "pitch": 75, "duration": 1150, "velocity": 110}, {"time": 168000, "pitch": 56, "duration": 110, "velocity": 60}, {"time": 168000, "pitch": 60, "duration": 100, "velocity": 50}, {"time": 168010, "pitch": 63, "duration": 100, "velocity": 60}, {"time": 168010, "pitch": 68, "duration": 100, "velocity": 70}, {"time": 168120, "pitch": 63, "duration": 100, "velocity": 80}, {"time": 168120, "pitch": 68, "duration": 110, "velocity": 90}, {"time": 168130, "pitch": 56, "duration": 100, "velocity": 80}, {"time": 168130, "pitch": 60, "duration": 100, "velocity": 70}, {"time": 168240, "pitch": 56, "duration": 110, "velocity": 90}, {"time": 168240, "pitch": 60, "duration": 100, "velocity": 80}, {"time": 168250, "pitch": 63, "duration": 100, "velocity": 90}, {"time": 168250, "pitch": 68, "duration": 100, "velocity": 100}, {"time": 168360, "pitch": 63, "duration": 100, "velocity": 80}, {"time": 168360, "pitch": 68, "duration": 110, "velocity": 90}, {"time": 168370, "pitch": 56, "duration": 100, "velocity": 80}, {"time": 168370, "pitch": 60, "duration": 100, "velocity": 70}, {"time": 168480, "pitch": 56, "duration": 110, "velocity": 90}, {"time": 168480, "pitch": 60, "duration": 100, "velocity": 80}, {"time": 168490, "pitch": 63, "duration": 100, "velocity": 90}, {"time": 168490, "pitch": 68, "duration": 100, "velocity": 100}, {"time": 168600, "pitch": 63, "duration": 10, "velocity": 80}, {"time": 168600, "pitch": 68, "duration": 10, "velocity": 90}, {"time": 168610, "pitch": 56, "duration": 10, "velocity": 80}, {"time": 168610, "pitch": 60, "duration": 10, "velocity": 70}, {"time": 168720, "pitch": 56, "duration": 10, "velocity": 80}, {"time": 168720, "pitch": 60, "duration": 10, "velocity": 70}, {"time": 168730, "pitch": 63, "duration": 10, "velocity": 80}, {"time": 168730, "pitch": 68, "duration": 10, "velocity": 90}, {"time": 168840, "pitch": 63, "duration": 100, "velocity": 90}, {"time": 168840, "pitch": 67, "duration": 100, "velocity": 100}, {"time": 168850, "pitch": 55, "duration": 100, "velocity": 90}, {"time": 168850, "pitch": 58, "duration": 100, "velocity": 80}, {"time": 168960, "pitch": 55, "duration": 10, "velocity": 60}, {"time": 168960, "pitch": 58, "duration": 10, "velocity": 50}, {"time": 168970, "pitch": 63, "duration": 10, "velocity": 60}, {"time": 168970, "pitch": 67, "duration": 10, "velocity": 70}, {"time": 169080, "pitch": 63, "duration": 100, "velocity": 70}, {"time": 169080, "pitch": 67, "duration": 110, "velocity": 80}, {"time": 169090, "pitch": 55, "duration": 100, "velocity": 70}, {"time": 169090, "pitch": 58, "duration": 100, "velocity": 60}, {"time": 169200, "pitch": 55, "duration": 110, "velocity": 80}, {"time": 169200, "pitch": 58, "duration": 100, "velocity": 70}, {"time": 169210, "pitch": 63, "duration": 100, "velocity": 80}, {"time": 169210, "pitch": 67, "duration": 100, "velocity": 90}, {"time": 169320, "pitch": 63, "duration": 100, "velocity": 80}, {"time": 169320, "pitch": 67, "duration": 110, "velocity": 90}, {"time": 169330, "pitch": 55, "duration": 100, "velocity": 80}, {"time": 169330, "pitch": 58, "duration": 100, "velocity": 70}, {"time": 169440, "pitch": 55, "duration": 110, "velocity": 90}, {"time": 169440, "pitch": 58, "duration": 100, "velocity": 80}, {"time": 169450, "pitch": 63, "duration": 100, "velocity": 90}, {"time": 169450, "pitch": 67, "duration": 100, "velocity": 100}, {"time": 169560, "pitch": 55, "duration": 10, "velocity": 80}, {"time": 169560, "pitch": 58, "duration": 10, "velocity": 70}, {"time": 169560, "pitch": 63, "duration": 10, "velocity": 80}, {"time": 169560, "pitch": 67, "duration": 10, "velocity": 90}, {"time": 169680, "pitch": 55, "duration": 10, "velocity": 70}, {"time": 169680, "pitch": 58, "duration": 10, "velocity": 60}, {"time": 169680, "pitch": 63, "duration": 10, "velocity": 70}, {"time": 169680, "pitch": 67, "duration": 10, "velocity": 80}, {"time": 169800, "pitch": 55, "duration": 10, "velocity": 60}, {"time": 169800, "pitch": 58, "duration": 10, "velocity": 50}, {"time": 169800, "pitch": 63, "duration": 10, "velocity": 60}, {"time": 169800, "pitch": 67, "duration": 10, "velocity": 70}, {"time": 169920, "pitch": 53, "duration": 110, "velocity": 60}, {"time": 169920, "pitch": 56, "duration": 100, "velocity": 50}, {"time": 169930, "pitch": 60, "duration": 100, "velocity": 60}, {"time": 169930, "pitch": 65, "duration": 100, "velocity": 70}, {"time": 170040, "pitch": 60, "duration": 100, "velocity": 80}, {"time": 170040, "pitch": 65, "duration": 110, "velocity": 90}, {"time": 170050, "pitch": 53, "duration": 100, "velocity": 80}, {"time": 170050, "pitch": 56, "duration": 100, "velocity": 70}, {"time": 170160, "pitch": 53, "duration": 110, "velocity": 90}, {"time": 170160, "pitch": 56, "duration": 100, "velocity": 80}, {"time": 170170, "pitch": 60, "duration": 100, "velocity": 90}, {"time": 170170, "pitch": 65, "duration": 100, "velocity": 100}, {"time": 170280, "pitch": 60, "duration": 100, "velocity": 80}, {"time": 170280, "pitch": 65, "duration": 110, "velocity": 90}, {"time": 170290, "pitch": 53, "duration": 100, "velocity": 80}, {"time": 170290, "pitch": 56, "duration": 100, "velocity": 70}, {"time": 170400, "pitch": 53, "duration": 110, "velocity": 90}, {"time": 170400, "pitch": 56, "duration": 100, "velocity": 80}, {"time": 170410, "pitch": 60, "duration": 100, "velocity": 90}, {"time": 170410, "pitch": 65, "duration": 100, "velocity": 100}, {"time": 170520, "pitch": 60, "duration": 10, "velocity": 80}, {"time": 170520, "pitch": 65, "duration": 10, "velocity": 90}, {"time": 170530, "pitch": 53, "duration": 10, "velocity": 80}, {"time": 170530, "pitch": 56, "duration": 10, "velocity": 70}, {"time": 170640, "pitch": 53, "duration": 10, "velocity": 80}, {"time": 170640, "pitch": 56, "duration": 10, "velocity": 70}, {"time": 170650, "pitch": 60, "duration": 10, "velocity": 80}, {"time": 170650, "pitch": 65, "duration": 10, "velocity": 90}, {"time": 170760, "pitch": 63, "duration": 100, "velocity": 90}, {"time": 170760, "pitch": 67, "duration": 100, "velocity": 100}, {"time": 170770, "pitch": 55, "duration": 100, "velocity": 90}, {"time": 170770, "pitch": 58, "duration": 100, "velocity": 80}, {"time": 170880, "pitch": 55, "duration": 10, "velocity": 60}, {"time": 170880, "pitch": 58, "duration": 10, "velocity": 50}, {"time": 170890, "pitch": 63, "duration": 10, "velocity": 60}, {"time": 170890, "pitch": 67, "duration": 10, "velocity": 70}, {"time": 171000, "pitch": 63, "duration": 100, "velocity": 70}, {"time": 171000, "pitch": 67, "duration": 110, "velocity": 80}, {"time": 171010, "pitch": 55, "duration": 100, "velocity": 70}, {"time": 171010, "pitch": 58, "duration": 100, "velocity": 60}, {"time": 171120, "pitch": 55, "duration": 110, "velocity": 80}, {"time": 171120, "pitch": 58, "duration": 100, "velocity": 70}, {"time": 171130, "pitch": 63, "duration": 100, "velocity": 80}, {"time": 171130, "pitch": 67, "duration": 100, "velocity": 90}, {"time": 171240, "pitch": 63, "duration": 100, "velocity": 80}, {"time": 171240, "pitch": 67, "duration": 110, "velocity": 90}, {"time": 171250, "pitch": 55, "duration": 100, "velocity": 80}, {"time": 171250, "pitch": 58, "duration": 100, "velocity": 70}, {"time": 171360, "pitch": 55, "duration": 110, "velocity": 90}, {"time": 171360, "pitch": 58, "duration": 100, "velocity": 80}, {"time": 171370, "pitch": 63, "duration": 100, "velocity": 90}, {"time": 171370, "pitch": 67, "duration": 100, "velocity": 100}, {"time": 171480, "pitch": 55, "duration": 10, "velocity": 80}, {"time": 171480, "pitch": 58, "duration": 10, "velocity": 70}, {"time": 171480, "pitch": 63, "duration": 10, "velocity": 80}, {"time": 171480, "pitch": 67, "duration": 10, "velocity": 90}, {"time": 171600, "pitch": 55, "duration": 10, "velocity": 70}, {"time": 171600, "pitch": 58, "duration": 10, "velocity": 60}, {"time": 171600, "pitch": 63, "duration": 10, "velocity": 70}, {"time": 171600, "pitch": 67, "duration": 10, "velocity": 80}, {"time": 171720, "pitch": 55, "duration": 10, "velocity": 60}, {"time": 171720, "pitch": 58, "duration": 10, "velocity": 50}, {"time": 171720, "pitch": 63, "duration": 10, "velocity": 60}, {"time": 171720, "pitch": 67, "duration": 10, "velocity": 70}, {"time": 171840, "pitch": 56, "duration": 110, "velocity": 60}, {"time": 171840, "pitch": 61, "duration": 100, "velocity": 50}, {"time": 171850, "pitch": 65, "duration": 100, "velocity": 60}, {"time": 171850, "pitch": 68, "duration": 100, "velocity": 70}, {"time": 171960, "pitch": 65, "duration": 100, "velocity": 80}, {"time": 171960, "pitch": 68, "duration": 110, "velocity": 90}, {"time": 171970, "pitch": 56, "duration": 100, "velocity": 80}, {"time": 171970, "pitch": 61, "duration": 100, "velocity": 70}, {"time": 172080, "pitch": 56, "duration": 110, "velocity": 90}, {"time": 172080, "pitch": 61, "duration": 100, "velocity": 80}, {"time": 172090, "pitch": 65, "duration": 100, "velocity": 90}, {"time": 172090, "pitch": 68, "duration": 100, "velocity": 100}, {"time": 172200, "pitch": 65, "duration": 100, "velocity": 80}, {"time": 172200, "pitch": 68, "duration": 110, "velocity": 90}, {"time": 172210, "pitch": 56, "duration": 100, "velocity": 80}, {"time": 172210, "pitch": 61, "duration": 100, "velocity": 70}, {"time": 172320, "pitch": 56, "duration": 110, "velocity": 90}, {"time": 172320, "pitch": 61, "duration": 100, "velocity": 80}, {"time": 172330, "pitch": 65, "duration": 100, "velocity": 90}, {"time": 172330, "pitch": 68, "duration": 100, "velocity": 100}, {"time": 172440, "pitch": 65, "duration": 10, "velocity": 80}, {"time": 172440, "pitch": 68, "duration": 10, "velocity": 90}, {"time": 172450, "pitch": 56, "duration": 10, "velocity": 80}, {"time": 172450, "pitch": 61, "duration": 10, "velocity": 70}, {"time": 172560, "pitch": 56, "duration": 10, "velocity": 80}, {"time": 172560, "pitch": 61, "duration": 10, "velocity": 70}, {"time": 172570, "pitch": 65, "duration": 10, "velocity": 80}, {"time": 172570, "pitch": 68, "duration": 10, "velocity": 90}, {"time": 172680, "pitch": 63, "duration": 100, "velocity": 90}, {"time": 172680, "pitch": 68, "duration": 100, "velocity": 100}, {"time": 172690, "pitch": 56, "duration": 100, "velocity": 90}, {"time": 172690, "pitch": 60, "duration": 100, "velocity": 80}, {"time": 172800, "pitch": 56, "duration": 10, "velocity": 60}, {"time": 172800, "pitch": 60, "duration": 10, "velocity": 50}, {"time": 172810, "pitch": 63, "duration": 10, "velocity": 60}, {"time": 172810, "pitch": 68, "duration": 10, "velocity": 70}, {"time": 172920, "pitch": 63, "duration": 100, "velocity": 70}, {"time": 172920, "pitch": 68, "duration": 110, "velocity": 80}, {"time": 172930, "pitch": 56, "duration": 100, "velocity": 70}, {"time": 172930, "pitch": 60, "duration": 100, "velocity": 60}, {"time": 173040, "pitch": 56, "duration": 110, "velocity": 80}, {"time": 173040, "pitch": 60, "duration": 100, "velocity": 70}, {"time": 173050, "pitch": 63, "duration": 100, "velocity": 80}, {"time": 173050, "pitch": 68, "duration": 100, "velocity": 90}, {"time": 173160, "pitch": 63, "duration": 100, "velocity": 80}, {"time": 173160, "pitch": 68, "duration": 110, "velocity": 90}, {"time": 173170, "pitch": 56, "duration": 100, "velocity": 80}, {"time": 173170, "pitch": 60, "duration": 100, "velocity": 70}, {"time": 173280, "pitch": 56, "duration": 110, "velocity": 90}, {"time": 173280, "pitch": 60, "duration": 100, "velocity": 80}, {"time": 173290, "pitch": 63, "duration": 100, "velocity": 90}, {"time": 173290, "pitch": 68, "duration": 100, "velocity": 100}, {"time": 173400, "pitch": 56, "duration": 10, "velocity": 80}, {"time": 173400, "pitch": 60, "duration": 10, "velocity": 70}, {"time": 173400, "pitch": 63, "duration": 10, "velocity": 80}, {"time": 173400, "pitch": 68, "duration": 10, "velocity": 90}, {"time": 173520, "pitch": 53, "duration": 460, "velocity": 100}, {"time": 173520, "pitch": 56, "duration": 460, "velocity": 90}, {"time": 173530, "pitch": 61, "duration": 450, "velocity": 80}, {"time": 173530, "pitch": 65, "duration": 450, "velocity": 90}, {"time": 174000, "pitch": 53, "duration": 110, "velocity": 90}, {"time": 174000, "pitch": 56, "duration": 100, "velocity": 80}, {"time": 174010, "pitch": 61, "duration": 100, "velocity": 90}, {"time": 174010, "pitch": 65, "duration": 100, "velocity": 100}, {"time": 174120, "pitch": 61, "duration": 100, "velocity": 80}, {"time": 174120, "pitch": 65, "duration": 110, "velocity": 90}, {"time": 174130, "pitch": 53, "duration": 100, "velocity": 80}, {"time": 174130, "pitch": 56, "duration": 100, "velocity": 70}, {"time": 174240, "pitch": 53, "duration": 110, "velocity": 90}, {"time": 174240, "pitch": 56, "duration": 100, "velocity": 80}, {"time": 174250, "pitch": 61, "duration": 100, "velocity": 90}, {"time": 174250, "pitch": 65, "duration": 100, "velocity": 100}, {"time": 174360, "pitch": 61, "duration": 10, "velocity": 80}, {"time": 174360, "pitch": 65, "duration": 10, "velocity": 90}, {"time": 174370, "pitch": 53, "duration": 10, "velocity": 80}, {"time": 174370, "pitch": 56, "duration": 10, "velocity": 70}, {"time": 174480, "pitch": 63, "duration": 220, "velocity": 90}, {"time": 174480, "pitch": 67, "duration": 220, "velocity": 100}, {"time": 174490, "pitch": 55, "duration": 220, "velocity": 90}, {"time": 174490, "pitch": 58, "duration": 220, "velocity": 80}, {"time": 174720, "pitch": 55, "duration": 10, "velocity": 60}, {"time": 174720, "pitch": 58, "duration": 10, "velocity": 50}, {"time": 174730, "pitch": 63, "duration": 10, "velocity": 60}, {"time": 174730, "pitch": 67, "duration": 10, "velocity": 70}, {"time": 174840, "pitch": 63, "duration": 100, "velocity": 70}, {"time": 174840, "pitch": 67, "duration": 110, "velocity": 80}, {"time": 174850, "pitch": 55, "duration": 100, "velocity": 70}, {"time": 174850, "pitch": 58, "duration": 100, "velocity": 60}, {"time": 174960, "pitch": 55, "duration": 110, "velocity": 80}, {"time": 174960, "pitch": 58, "duration": 100, "velocity": 70}, {"time": 174970, "pitch": 63, "duration": 100, "velocity": 80}, {"time": 174970, "pitch": 67, "duration": 100, "velocity": 90}, {"time": 175080, "pitch": 63, "duration": 100, "velocity": 80}, {"time": 175080, "pitch": 67, "duration": 110, "velocity": 90}, {"time": 175090, "pitch": 55, "duration": 100, "velocity": 80}, {"time": 175090, "pitch": 58, "duration": 100, "velocity": 70}, {"time": 175200, "pitch": 55, "duration": 110, "velocity": 90}, {"time": 175200, "pitch": 58, "duration": 100, "velocity": 80}, {"time": 175210, "pitch": 63, "duration": 100, "velocity": 90}, {"time": 175210, "pitch": 67, "duration": 100, "velocity": 100}, {"time": 175320, "pitch": 55, "duration": 10, "velocity": 80}, {"time": 175320, "pitch": 58, "duration": 10, "velocity": 70}, {"time": 175320, "pitch": 63, "duration": 10, "velocity": 80}, {"time": 175320, "pitch": 67, "duration": 10, "velocity": 90}, {"time": 175440, "pitch": 55, "duration": 10, "velocity": 70}, {"time": 175440, "pitch": 58, "duration": 10, "velocity": 60}, {"time": 175440, "pitch": 63, "duration": 10, "velocity": 70}, {"time": 175440, "pitch": 67, "duration": 10, "velocity": 80}, {"time": 175560, "pitch": 55, "duration": 10, "velocity": 60}, {"time": 175560, "pitch": 58, "duration": 10, "velocity": 50}, {"time": 175560, "pitch": 63, "duration": 10, "velocity": 60}, {"time": 175560, "pitch": 67, "duration": 10, "velocity": 70}, {"time": 175680, "pitch": 56, "duration": 110, "velocity": 60}, {"time": 175680, "pitch": 60, "duration": 100, "velocity": 50}, {"time": 175690, "pitch": 63, "duration": 100, "velocity": 60}, {"time": 175690, "pitch": 68, "duration": 100, "velocity": 70}, {"time": 175800, "pitch": 63, "duration": 100, "velocity": 80}, {"time": 175800, "pitch": 68, "duration": 110, "velocity": 90}, {"time": 175810, "pitch": 56, "duration": 100, "velocity": 80}, {"time": 175810, "pitch": 60, "duration": 100, "velocity": 70}, {"time": 175920, "pitch": 56, "duration": 110, "velocity": 90}, {"time": 175920, "pitch": 60, "duration": 100, "velocity": 80}, {"time": 175930, "pitch": 63, "duration": 100, "velocity": 90}, {"time": 175930, "pitch": 68, "duration": 100, "velocity": 100}, {"time": 176040, "pitch": 63, "duration": 100, "velocity": 80}, {"time": 176040, "pitch": 68, "duration": 110, "velocity": 90}, {"time": 176050, "pitch": 56, "duration": 100, "velocity": 80}, {"time": 176050, "pitch": 60, "duration": 100, "velocity": 70}, {"time": 176160, "pitch": 56, "duration": 110, "velocity": 90}, {"time": 176160, "pitch": 60, "duration": 100, "velocity": 80}, {"time": 176170, "pitch": 63, "duration": 100, "velocity": 90}, {"time": 176170, "pitch": 68, "duration": 100, "velocity": 100}, {"time": 176280, "pitch": 63, "duration": 10, "velocity": 80}, {"time": 176280, "pitch": 68, "duration": 10, "velocity": 90}, {"time": 176290, "pitch": 56, "duration": 10, "velocity": 80}, {"time": 176290, "pitch": 60, "duration": 10, "velocity": 70}, {"time": 176400, "pitch": 56, "duration": 10, "velocity": 80}, {"time": 176400, "pitch": 60, "duration": 10, "velocity": 70}, {"time": 176410, "pitch": 63, "duration": 10, "velocity": 80}, {"time": 176410, "pitch": 68, "duration": 10, "velocity": 90}, {"time": 176520, "pitch": 63, "duration": 100, "velocity": 90}, {"time": 176520, "pitch": 67, "duration": 100, "velocity": 100}, {"time": 176530, "pitch": 55, "duration": 100, "velocity": 90}, {"time": 176530, "pitch": 58, "duration": 100, "velocity": 80}, {"time": 176640, "pitch": 55, "duration": 10, "velocity": 60}, {"time": 176640, "pitch": 58, "duration": 10, "velocity": 50}, {"time": 176650, "pitch": 63, "duration": 10, "velocity": 60}, {"time": 176650, "pitch": 67, "duration": 10, "velocity": 70}, {"time": 176760, "pitch": 63, "duration": 100, "velocity": 70}, {"time": 176760, "pitch": 67, "duration": 110, "velocity": 80}, {"time": 176770, "pitch": 55, "duration": 100, "velocity": 70}, {"time": 176770, "pitch": 58, "duration": 100, "velocity": 60}, {"time": 176880, "pitch": 55, "duration": 110, "velocity": 80}, {"time": 176880, "pitch": 58, "duration": 100, "velocity": 70}, {"time": 176890, "pitch": 63, "duration": 100, "velocity": 80}, {"time": 176890, "pitch": 67, "duration": 100, "velocity": 90}, {"time": 177000, "pitch": 63, "duration": 100, "velocity": 80}, {"time": 177000, "pitch": 67, "duration": 110, "velocity": 90}, {"time": 177010, "pitch": 55, "duration": 100, "velocity": 80}, {"time": 177010, "pitch": 58, "duration": 100, "velocity": 70}, {"time": 177120, "pitch": 55, "duration": 110, "velocity": 90}, {"time": 177120, "pitch": 58, "duration": 100, "velocity": 80}, {"time": 177130, "pitch": 63, "duration": 100, "velocity": 90}, {"time": 177130, "pitch": 67, "duration": 100, "velocity": 100}, {"time": 177240, "pitch": 55, "duration": 10, "velocity": 80}, {"time": 177240, "pitch": 58, "duration": 10, "velocity": 70}, {"time": 177240, "pitch": 63, "duration": 10, "velocity": 80}, {"time": 177240, "pitch": 67, "duration": 10, "velocity": 90}, {"time": 177360, "pitch": 55, "duration": 10, "velocity": 70}, {"time": 177360, "pitch": 58, "duration": 10, "velocity": 60}, {"time": 177360, "pitch": 63, "duration": 10, "velocity": 70}, {"time": 177360, "pitch": 67, "duration": 10, "velocity": 80}, {"time": 177480, "pitch": 55, "duration": 10, "velocity": 60}, {"time": 177480, "pitch": 58, "duration": 10, "velocity": 50}, {"time": 177480, "pitch": 63, "duration": 10, "velocity": 60}, {"time": 177480, "pitch": 67, "duration": 10, "velocity": 70}, {"time": 177600, "pitch": 53, "duration": 110, "velocity": 60}, {"time": 177600, "pitch": 56, "duration": 100, "velocity": 50}, {"time": 177610, "pitch": 60, "duration": 100, "velocity": 60}, {"time": 177610, "pitch": 65, "duration": 100, "velocity": 70}, {"time": 177720, "pitch": 60, "duration": 100, "velocity": 80}, {"time": 177720, "pitch": 65, "duration": 110, "velocity": 90}, {"time": 177730, "pitch": 53, "duration": 100, "velocity": 80}, {"time": 177730, "pitch": 56, "duration": 100, "velocity": 70}, {"time": 177840, "pitch": 53, "duration": 110, "velocity": 90}, {"time": 177840, "pitch": 56, "duration": 100, "velocity": 80}, {"time": 177850, "pitch": 60, "duration": 100, "velocity": 90}, {"time": 177850, "pitch": 65, "duration": 100, "velocity": 100}, {"time": 177960, "pitch": 60, "duration": 100, "velocity": 80}, {"time": 177960, "pitch": 65, "duration": 110, "velocity": 90}, {"time": 177970, "pitch": 53, "duration": 100, "velocity": 80}, {"time": 177970, "pitch": 56, "duration": 100, "velocity": 70}, {"time": 178080, "pitch": 53, "duration": 110, "velocity": 90}, {"time": 178080, "pitch": 56, "duration": 100, "velocity": 80}, {"time": 178090, "pitch": 60, "duration": 100, "velocity": 90}, {"time": 178090, "pitch": 65, "duration": 100, "velocity": 100}, {"time": 178200, "pitch": 60, "duration": 10, "velocity": 80}, {"time": 178200, "pitch": 65, "duration": 10, "velocity": 90}, {"time": 178210, "pitch": 53, "duration": 10, "velocity": 80}, {"time": 178210, "pitch": 56, "duration": 10, "velocity": 70}, {"time": 178320, "pitch": 53, "duration": 10, "velocity": 80}, {"time": 178320, "pitch": 56, "duration": 10, "velocity": 70}, {"time": 178330, "pitch": 60, "duration": 10, "velocity": 80}, {"time": 178330, "pitch": 65, "duration": 10, "velocity": 90}, {"time": 178440, "pitch": 63, "duration": 100, "velocity": 90}, {"time": 178440, "pitch": 67, "duration": 100, "velocity": 100}, {"time": 178450, "pitch": 55, "duration": 100, "velocity": 90}, {"time": 178450, "pitch": 58, "duration": 100, "velocity": 80}, {"time": 178560, "pitch": 55, "duration": 10, "velocity": 60}, {"time": 178560, "pitch": 58, "duration": 10, "velocity": 50}, {"time": 178570, "pitch": 63, "duration": 10, "velocity": 60}, {"time": 178570, "pitch": 67, "duration": 10, "velocity": 70}, {"time": 178680, "pitch": 63, "duration": 100, "velocity": 70}, {"time": 178680, "pitch": 67, "duration": 110, "velocity": 80}, {"time": 178690, "pitch": 55, "duration": 100, "velocity": 70}, {"time": 178690, "pitch": 58, "duration": 100, "velocity": 60}, {"time": 178800, "pitch": 55, "duration": 110, "velocity": 80}, {"time": 178800, "pitch": 58, "duration": 100, "velocity": 70}, {"time": 178810, "pitch": 63, "duration": 100, "velocity": 80}, {"time": 178810, "pitch": 67, "duration": 100, "velocity": 90}, {"time": 178920, "pitch": 63, "duration": 100, "velocity": 80}, {"time": 178920, "pitch": 67, "duration": 110, "velocity": 90}, {"time": 178930, "pitch": 55, "duration": 100, "velocity": 80}, {"time": 178930, "pitch": 58, "duration": 100, "velocity": 70}, {"time": 179040, "pitch": 55, "duration": 110, "velocity": 90}, {"time": 179040, "pitch": 58, "duration": 100, "velocity": 80}, {"time": 179050, "pitch": 63, "duration": 100, "velocity": 90}, {"time": 179050, "pitch": 67, "duration": 100, "velocity": 100}, {"time": 179160, "pitch": 55, "duration": 10, "velocity": 80}, {"time": 179160, "pitch": 58, "duration": 10, "velocity": 70}, {"time": 179160, "pitch": 63, "duration": 10, "velocity": 80}, {"time": 179160, "pitch": 67, "duration": 10, "velocity": 90}, {"time": 179280, "pitch": 55, "duration": 10, "velocity": 70}, {"time": 179280, "pitch": 58, "duration": 10, "velocity": 60}, {"time": 179280, "pitch": 63, "duration": 10, "velocity": 70}, {"time": 179280, "pitch": 67, "duration": 10, "velocity": 80}, {"time": 179400, "pitch": 55, "duration": 10, "velocity": 60}, {"time": 179400, "pitch": 58, "duration": 10, "velocity": 50}, {"time": 179400, "pitch": 63, "duration": 10, "velocity": 60}, {"time": 179400, "pitch": 67, "duration": 10, "velocity": 70}, {"time": 179520, "pitch": 56, "duration": 110, "velocity": 60}, {"time": 179520, "pitch": 61, "duration": 100, "velocity": 50}, {"time": 179530, "pitch": 65, "duration": 100, "velocity": 60}, {"time": 179530, "pitch": 68, "duration": 100, "velocity": 70}, {"time": 179640, "pitch": 65, "duration": 100, "velocity": 80}, {"time": 179640, "pitch": 68, "duration": 110, "velocity": 90}, {"time": 179650, "pitch": 56, "duration": 100, "velocity": 80}, {"time": 179650, "pitch": 61, "duration": 100, "velocity": 70}, {"time": 179760, "pitch": 56, "duration": 110, "velocity": 90}, {"time": 179760, "pitch": 61, "duration": 100, "velocity": 80}, {"time": 179770, "pitch": 65, "duration": 100, "velocity": 90}, {"time": 179770, "pitch": 68, "duration": 100, "velocity": 100}, {"time": 179880, "pitch": 65, "duration": 100, "velocity": 80}, {"time": 179880, "pitch": 68, "duration": 110, "velocity": 90}, {"time": 179890, "pitch": 56, "duration": 100, "velocity": 80}, {"time": 179890, "pitch": 61, "duration": 100, "velocity": 70}, {"time": 180000, "pitch": 56, "duration": 110, "velocity": 90}, {"time": 180000, "pitch": 61, "duration": 100, "velocity": 80}, {"time": 180010, "pitch": 65, "duration": 100, "velocity": 90}, {"time": 180010, "pitch": 68, "duration": 100, "velocity": 100}, {"time": 180120, "pitch": 65, "duration": 10, "velocity": 80}, {"time": 180120, "pitch": 68, "duration": 10, "velocity": 90}, {"time": 180130, "pitch": 56, "duration": 10, "velocity": 80}, {"time": 180130, "pitch": 61, "duration": 10, "velocity": 70}, {"time": 180240, "pitch": 56, "duration": 10, "velocity": 80}, {"time": 180240, "pitch": 61, "duration": 10, "velocity": 70}, {"time": 180250, "pitch": 65, "duration": 10, "velocity": 80}, {"time": 180250, "pitch": 68, "duration": 10, "velocity": 90}, {"time": 180360, "pitch": 63, "duration": 100, "velocity": 90}, {"time": 180360, "pitch": 68, "duration": 100, "velocity": 100}, {"time": 180370, "pitch": 56, "duration": 100, "velocity": 90}, {"time": 180370, "pitch": 60, "duration": 100, "velocity": 80}, {"time": 180480, "pitch": 56, "duration": 10, "velocity": 60}, {"time": 180480, "pitch": 60, "duration": 10, "velocity": 50}, {"time": 180490, "pitch": 63, "duration": 10, "velocity": 60}, {"time": 180490, "pitch": 68, "duration": 10, "velocity": 70}, {"time": 180600, "pitch": 63, "duration": 100, "velocity": 70}, {"time": 180600, "pitch": 68, "duration": 110, "velocity": 80}, {"time": 180610, "pitch": 56, "duration": 100, "velocity": 70}, {"time": 180610, "pitch": 60, "duration": 100, "velocity": 60}, {"time": 180720, "pitch": 56, "duration": 110, "velocity": 80}, {"time": 180720, "pitch": 60, "duration": 100, "velocity": 70}, {"time": 180730, "pitch": 63, "duration": 100, "velocity": 80}, {"time": 180730, "pitch": 68, "duration": 100, "velocity": 90}, {"time": 180840, "pitch": 63, "duration": 100, "velocity": 80}, {"time": 180840, "pitch": 68, "duration": 110, "velocity": 90}, {"time": 180850, "pitch": 56, "duration": 100, "velocity": 80}, {"time": 180850, "pitch": 60, "duration": 100, "velocity": 70}, {"time": 180960, "pitch": 56, "duration": 110, "velocity": 90}, {"time": 180960, "pitch": 60, "duration": 100, "velocity": 80}, {"time": 180970, "pitch": 63, "duration": 100, "velocity": 90}, {"time": 180970, "pitch": 68, "duration": 100, "velocity": 100}, {"time": 181080, "pitch": 56, "duration": 10, "velocity": 80}, {"time": 181080, "pitch": 60, "duration": 10, "velocity": 70}, {"time": 181080, "pitch": 63, "duration": 10, "velocity": 80}, {"time": 181080, "pitch": 68, "duration": 10, "velocity": 90}, {"time": 181200, "pitch": 53, "duration": 460, "velocity": 100}, {"time": 181200, "pitch": 56, "duration": 460, "velocity": 90}, {"time": 181210, "pitch": 61, "duration": 450, "velocity": 80}, {"time": 181210, "pitch": 65, "duration": 450, "velocity": 90}, {"time": 181680, "pitch": 53, "duration": 110, "velocity": 90}, {"time": 181680, "pitch": 56, "duration": 100, "velocity": 80}, {"time": 181690, "pitch": 61, "duration": 100, "velocity": 90}, {"time": 181690, "pitch": 65, "duration": 100, "velocity": 100}, {"time": 181800, "pitch": 61, "duration": 100, "velocity": 80}, {"time": 181800, "pitch": 65, "duration": 110, "velocity": 90}, {"time": 181810, "pitch": 53, "duration": 100, "velocity": 80}, {"time": 181810, "pitch": 56, "duration": 100, "velocity": 70}, {"time": 181920, "pitch": 53, "duration": 110, "velocity": 90}, {"time": 181920, "pitch": 56, "duration": 100, "velocity": 80}, {"time": 181930, "pitch": 61, "duration": 100, "velocity": 90}, {"time": 181930, "pitch": 65, "duration": 100, "velocity": 100}, {"time": 182040, "pitch": 61, "duration": 10, "velocity": 80}, {"time": 182040, "pitch": 65, "duration": 10, "velocity": 90}, {"time": 182050, "pitch": 53, "duration": 10, "velocity": 80}, {"time": 182050, "pitch": 56, "duration": 10, "velocity": 70}, {"time": 182160, "pitch": 63, "duration": 220, "velocity": 90}, {"time": 182160, "pitch": 67, "duration": 220, "velocity": 100}, {"time": 182170, "pitch": 55, "duration": 220, "velocity": 90}, {"time": 182170, "pitch": 58, "duration": 220, "velocity": 80}, {"time": 182400, "pitch": 55, "duration": 10, "velocity": 60}, {"time": 182400, "pitch": 58, "duration": 10, "velocity": 50}, {"time": 182410, "pitch": 63, "duration": 10, "velocity": 60}, {"time": 182410, "pitch": 67, "duration": 10, "velocity": 70}, {"time": 182520, "pitch": 63, "duration": 100, "velocity": 70}, {"time": 182520, "pitch": 67, "duration": 110, "velocity": 80}, {"time": 182530, "pitch": 55, "duration": 100, "velocity": 70}, {"time": 182530, "pitch": 58, "duration": 100, "velocity": 60}, {"time": 182640, "pitch": 55, "duration": 110, "velocity": 80}, {"time": 182640, "pitch": 58, "duration": 100, "velocity": 70}, {"time": 182650, "pitch": 63, "duration": 100, "velocity": 80}, {"time": 182650, "pitch": 67, "duration": 100, "velocity": 90}, {"time": 182760, "pitch": 63, "duration": 100, "velocity": 80}, {"time": 182760, "pitch": 67, "duration": 110, "velocity": 90}, {"time": 182770, "pitch": 55, "duration": 100, "velocity": 80}, {"time": 182770, "pitch": 58, "duration": 100, "velocity": 70}, {"time": 182880, "pitch": 55, "duration": 110, "velocity": 90}, {"time": 182880, "pitch": 58, "duration": 100, "velocity": 80}, {"time": 182890, "pitch": 63, "duration": 100, "velocity": 90}, {"time": 182890, "pitch": 67, "duration": 100, "velocity": 100}, {"time": 183000, "pitch": 55, "duration": 10, "velocity": 80}, {"time": 183000, "pitch": 58, "duration": 10, "velocity": 70}, {"time": 183000, "pitch": 63, "duration": 10, "velocity": 80}, {"time": 183000, "pitch": 67, "duration": 10, "velocity": 90}, {"time": 183120, "pitch": 55, "duration": 10, "velocity": 70}, {"time": 183120, "pitch": 58, "duration": 10, "velocity": 60}, {"time": 183120, "pitch": 63, "duration": 10, "velocity": 70}, {"time": 183120, "pitch": 67, "duration": 10, "velocity": 80}, {"time": 183240, "pitch": 55, "duration": 10, "velocity": 60}, {"time": 183240, "pitch": 58, "duration": 10, "velocity": 50}, {"time": 183240, "pitch": 63, "duration": 10, "velocity": 60}, {"time": 183240, "pitch": 67, "duration": 10, "velocity": 70}, {"time": 183360, "pitch": 58, "duration": 110, "velocity": 60}, {"time": 183360, "pitch": 62, "duration": 100, "velocity": 50}, {"time": 183370, "pitch": 65, "duration": 100, "velocity": 60}, {"time": 183370, "pitch": 70, "duration": 100, "velocity": 70}, {"time": 183480, "pitch": 65, "duration": 100, "velocity": 80}, {"time": 183480, "pitch": 70, "duration": 110, "velocity": 90}, {"time": 183490, "pitch": 58, "duration": 100, "velocity": 80}, {"time": 183490, "pitch": 62, "duration": 100, "velocity": 70}, {"time": 183600, "pitch": 58, "duration": 110, "velocity": 90}, {"time": 183600, "pitch": 62, "duration": 100, "velocity": 80}, {"time": 183610, "pitch": 65, "duration": 100, "velocity": 90}, {"time": 183610, "pitch": 70, "duration": 100, "velocity": 100}, {"time": 183720, "pitch": 65, "duration": 100, "velocity": 80}, {"time": 183720, "pitch": 70, "duration": 110, "velocity": 90}, {"time": 183730, "pitch": 58, "duration": 100, "velocity": 80}, {"time": 183730, "pitch": 62, "duration": 100, "velocity": 70}, {"time": 183840, "pitch": 58, "duration": 110, "velocity": 90}, {"time": 183840, "pitch": 62, "duration": 100, "velocity": 80}, {"time": 183850, "pitch": 65, "duration": 100, "velocity": 90}, {"time": 183850, "pitch": 70, "duration": 100, "velocity": 100}, {"time": 183960, "pitch": 65, "duration": 10, "velocity": 80}, {"time": 183960, "pitch": 70, "duration": 10, "velocity": 90}, {"time": 183970, "pitch": 58, "duration": 10, "velocity": 80}, {"time": 183970, "pitch": 62, "duration": 10, "velocity": 70}, {"time": 184080, "pitch": 58, "duration": 10, "velocity": 80}, {"time": 184080, "pitch": 62, "duration": 10, "velocity": 70}, {"time": 184090, "pitch": 65, "duration": 10, "velocity": 80}, {"time": 184090, "pitch": 70, "duration": 10, "velocity": 90}, {"time": 184200, "pitch": 65, "duration": 100, "velocity": 90}, {"time": 184200, "pitch": 69, "duration": 100, "velocity": 100}, {"time": 184210, "pitch": 57, "duration": 100, "velocity": 90}, {"time": 184210, "pitch": 60, "duration": 100, "velocity": 80}, {"time": 184320, "pitch": 57, "duration": 10, "velocity": 60}, {"time": 184320, "pitch": 60, "duration": 10, "velocity": 50}, {"time": 184330, "pitch": 65, "duration": 10, "velocity": 60}, {"time": 184330, "pitch": 69, "duration": 10, "velocity": 70}, {"time": 184440, "pitch": 65, "duration": 100, "velocity": 70}, {"time": 184440, "pitch": 69, "duration": 110, "velocity": 80}, {"time": 184450, "pitch": 57, "duration": 100, "velocity": 70}, {"time": 184450, "pitch": 60, "duration": 100, "velocity": 60}, {"time": 184560, "pitch": 57, "duration": 110, "velocity": 80}, {"time": 184560, "pitch": 60, "duration": 100, "velocity": 70}, {"time": 184570, "pitch": 65, "duration": 100, "velocity": 80}, {"time": 184570, "pitch": 69, "duration": 100, "velocity": 90}, {"time": 184680, "pitch": 65, "duration": 100, "velocity": 80}, {"time": 184680, "pitch": 69, "duration": 110, "velocity": 90}, {"time": 184690, "pitch": 57, "duration": 100, "velocity": 80}, {"time": 184690, "pitch": 60, "duration": 100, "velocity": 70}, {"time": 184800, "pitch": 57, "duration": 110, "velocity": 90}, {"time": 184800, "pitch": 60, "duration": 100, "velocity": 80}, {"time": 184810, "pitch": 65, "duration": 100, "velocity": 90}, {"time": 184810, "pitch": 69, "duration": 100, "velocity": 100}, {"time": 184920, "pitch": 57, "duration": 10, "velocity": 80}, {"time": 184920, "pitch": 60, "duration": 10, "velocity": 70}, {"time": 184920, "pitch": 65, "duration": 10, "velocity": 80}, {"time": 184920, "pitch": 69, "duration": 10, "velocity": 90}, {"time": 185040, "pitch": 57, "duration": 10, "velocity": 70}, {"time": 185040, "pitch": 60, "duration": 10, "velocity": 60}, {"time": 185040, "pitch": 65, "duration": 10, "velocity": 70}, {"time": 185040, "pitch": 69, "duration": 10, "velocity": 80}, {"time": 185160, "pitch": 57, "duration": 10, "velocity": 60}, {"time": 185160, "pitch": 60, "duration": 10, "velocity": 50}, {"time": 185160, "pitch": 65, "duration": 10, "velocity": 60}, {"time": 185160, "pitch": 69, "duration": 10, "velocity": 70}, {"time": 185280, "pitch": 55, "duration": 110, "velocity": 60}, {"time": 185280, "pitch": 58, "duration": 100, "velocity": 50}, {"time": 185290, "pitch": 62, "duration": 100, "velocity": 60}, {"time": 185290, "pitch": 67, "duration": 100, "velocity": 70}, {"time": 185400, "pitch": 62, "duration": 100, "velocity": 80}, {"time": 185400, "pitch": 67, "duration": 110, "velocity": 90}, {"time": 185410, "pitch": 55, "duration": 100, "velocity": 80}, {"time": 185410, "pitch": 58, "duration": 100, "velocity": 70}, {"time": 185520, "pitch": 55, "duration": 110, "velocity": 90}, {"time": 185520, "pitch": 58, "duration": 100, "velocity": 80}, {"time": 185530, "pitch": 62, "duration": 100, "velocity": 90}, {"time": 185530, "pitch": 67, "duration": 100, "velocity": 100}, {"time": 185640, "pitch": 62, "duration": 100, "velocity": 80}, {"time": 185640, "pitch": 67, "duration": 110, "velocity": 90}, {"time": 185650, "pitch": 55, "duration": 100, "velocity": 80}, {"time": 185650, "pitch": 58, "duration": 100, "velocity": 70}, {"time": 185760, "pitch": 55, "duration": 110, "velocity": 90}, {"time": 185760, "pitch": 58, "duration": 100, "velocity": 80}, {"time": 185770, "pitch": 62, "duration": 100, "velocity": 90}, {"time": 185770, "pitch": 67, "duration": 100, "velocity": 100}, {"time": 185880, "pitch": 62, "duration": 10, "velocity": 80}, {"time": 185880, "pitch": 67, "duration": 10, "velocity": 90}, {"time": 185890, "pitch": 55, "duration": 10, "velocity": 80}, {"time": 185890, "pitch": 58, "duration": 10, "velocity": 70}, {"time": 186000, "pitch": 55, "duration": 10, "velocity": 80}, {"time": 186000, "pitch": 58, "duration": 10, "velocity": 70}, {"time": 186010, "pitch": 62, "duration": 10, "velocity": 80}, {"time": 186010, "pitch": 67, "duration": 10, "velocity": 90}, {"time": 186120, "pitch": 65, "duration": 100, "velocity": 90}, {"time": 186120, "pitch": 69, "duration": 100, "velocity": 100}, {"time": 186130, "pitch": 57, "duration": 100, "velocity": 90}, {"time": 186130, "pitch": 60, "duration": 100, "velocity": 80}, {"time": 186240, "pitch": 57, "duration": 10, "velocity": 60}, {"time": 186240, "pitch": 60, "duration": 10, "velocity": 50}, {"time": 186250, "pitch": 65, "duration": 10, "velocity": 60}, {"time": 186250, "pitch": 69, "duration": 10, "velocity": 70}, {"time": 186360, "pitch": 65, "duration": 100, "velocity": 70}, {"time": 186360, "pitch": 69, "duration": 110, "velocity": 80}, {"time": 186370, "pitch": 57, "duration": 100, "velocity": 70}, {"time": 186370, "pitch": 60, "duration": 100, "velocity": 60}, {"time": 186480, "pitch": 57, "duration": 110, "velocity": 80}, {"time": 186480, "pitch": 60, "duration": 100, "velocity": 70}, {"time": 186490, "pitch": 65, "duration": 100, "velocity": 80}, {"time": 186490, "pitch": 69, "duration": 100, "velocity": 90}, {"time": 186600, "pitch": 65, "duration": 100, "velocity": 80}, {"time": 186600, "pitch": 69, "duration": 110, "velocity": 90}, {"time": 186610, "pitch": 57, "duration": 100, "velocity": 80}, {"time": 186610, "pitch": 60, "duration": 100, "velocity": 70}, {"time": 186720, "pitch": 57, "duration": 110, "velocity": 90}, {"time": 186720, "pitch": 60, "duration": 100, "velocity": 80}, {"time": 186730, "pitch": 65, "duration": 100, "velocity": 90}, {"time": 186730, "pitch": 69, "duration": 100, "velocity": 100}, {"time": 186840, "pitch": 57, "duration": 10, "velocity": 80}, {"time": 186840, "pitch": 60, "duration": 10, "velocity": 70}, {"time": 186840, "pitch": 65, "duration": 10, "velocity": 80}, {"time": 186840, "pitch": 69, "duration": 10, "velocity": 90}, {"time": 186960, "pitch": 57, "duration": 10, "velocity": 70}, {"time": 186960, "pitch": 60, "duration": 10, "velocity": 60}, {"time": 186960, "pitch": 65, "duration": 10, "velocity": 70}, {"time": 186960, "pitch": 69, "duration": 10, "velocity": 80}, {"time": 187080, "pitch": 57, "duration": 10, "velocity": 60}, {"time": 187080, "pitch": 60, "duration": 10, "velocity": 50}, {"time": 187080, "pitch": 65, "duration": 10, "velocity": 60}, {"time": 187080, "pitch": 69, "duration": 10, "velocity": 70}, {"time": 187200, "pitch": 58, "duration": 110, "velocity": 60}, {"time": 187200, "pitch": 63, "duration": 100, "velocity": 50}, {"time": 187210, "pitch": 67, "duration": 100, "velocity": 60}, {"time": 187210, "pitch": 70, "duration": 100, "velocity": 70}, {"time": 187320, "pitch": 67, "duration": 100, "velocity": 80}, {"time": 187320, "pitch": 70, "duration": 110, "velocity": 90}, {"time": 187330, "pitch": 58, "duration": 100, "velocity": 80}, {"time": 187330, "pitch": 63, "duration": 100, "velocity": 70}, {"time": 187440, "pitch": 58, "duration": 110, "velocity": 90}, {"time": 187440, "pitch": 63, "duration": 100, "velocity": 80}, {"time": 187450, "pitch": 67, "duration": 100, "velocity": 90}, {"time": 187450, "pitch": 70, "duration": 100, "velocity": 100}, {"time": 187560, "pitch": 67, "duration": 100, "velocity": 80}, {"time": 187560, "pitch": 70, "duration": 110, "velocity": 90}, {"time": 187570, "pitch": 58, "duration": 100, "velocity": 80}, {"time": 187570, "pitch": 63, "duration": 100, "velocity": 70}, {"time": 187680, "pitch": 58, "duration": 110, "velocity": 90}, {"time": 187680, "pitch": 63, "duration": 100, "velocity": 80}, {"time": 187690, "pitch": 67, "duration": 100, "velocity": 90}, {"time": 187690, "pitch": 70, "duration": 100, "velocity": 100}, {"time": 187800, "pitch": 67, "duration": 10, "velocity": 80}, {"time": 187800, "pitch": 70, "duration": 10, "velocity": 90}, {"time": 187810, "pitch": 58, "duration": 10, "velocity": 80}, {"time": 187810, "pitch": 63, "duration": 10, "velocity": 70}, {"time": 187920, "pitch": 58, "duration": 10, "velocity": 80}, {"time": 187920, "pitch": 63, "duration": 10, "velocity": 70}, {"time": 187930, "pitch": 67, "duration": 10, "velocity": 80}, {"time": 187930, "pitch": 70, "duration": 10, "velocity": 90}, {"time": 188040, "pitch": 65, "duration": 100, "velocity": 90}, {"time": 188040, "pitch": 70, "duration": 100, "velocity": 100}, {"time": 188050, "pitch": 58, "duration": 100, "velocity": 90}, {"time": 188050, "pitch": 62, "duration": 100, "velocity": 80}, {"time": 188160, "pitch": 58, "duration": 10, "velocity": 60}, {"time": 188160, "pitch": 62, "duration": 10, "velocity": 50}, {"time": 188170, "pitch": 65, "duration": 10, "velocity": 60}, {"time": 188170, "pitch": 70, "duration": 10, "velocity": 70}, {"time": 188280, "pitch": 65, "duration": 100, "velocity": 70}, {"time": 188280, "pitch": 70, "duration": 110, "velocity": 80}, {"time": 188290, "pitch": 58, "duration": 100, "velocity": 70}, {"time": 188290, "pitch": 62, "duration": 100, "velocity": 60}, {"time": 188400, "pitch": 58, "duration": 110, "velocity": 80}, {"time": 188400, "pitch": 62, "duration": 100, "velocity": 70}, {"time": 188410, "pitch": 65, "duration": 100, "velocity": 80}, {"time": 188410, "pitch": 70, "duration": 100, "velocity": 90}, {"time": 188520, "pitch": 65, "duration": 100, "velocity": 80}, {"time": 188520, "pitch": 70, "duration": 110, "velocity": 90}, {"time": 188530, "pitch": 58, "duration": 100, "velocity": 80}, {"time": 188530, "pitch": 62, "duration": 100, "velocity": 70}, {"time": 188640, "pitch": 58, "duration": 110, "velocity": 90}, {"time": 188640, "pitch": 62, "duration": 100, "velocity": 80}, {"time": 188650, "pitch": 65, "duration": 100, "velocity": 90}, {"time": 188650, "pitch": 70, "duration": 100, "velocity": 100}, {"time": 188760, "pitch": 58, "duration": 10, "velocity": 80}, {"time": 188760, "pitch": 62, "duration": 10, "velocity": 70}, {"time": 188760, "pitch": 65, "duration": 10, "velocity": 80}, {"time": 188760, "pitch": 70, "duration": 10, "velocity": 90}, {"time": 188880, "pitch": 55, "duration": 460, "velocity": 100}, {"time": 188880, "pitch": 58, "duration": 460, "velocity": 90}, {"time": 188890, "pitch": 63, "duration": 450, "velocity": 80}, {"time": 188890, "pitch": 67, "duration": 450, "velocity": 90}, {"time": 189360, "pitch": 55, "duration": 110, "velocity": 90}, {"time": 189360, "pitch": 58, "duration": 100, "velocity": 80}, {"time": 189370, "pitch": 63, "duration": 100, "velocity": 90}, {"time": 189370, "pitch": 67, "duration": 100, "velocity": 100}, {"time": 189480, "pitch": 63, "duration": 100, "velocity": 80}, {"time": 189480, "pitch": 67, "duration": 110, "velocity": 90}, {"time": 189490, "pitch": 55, "duration": 100, "velocity": 80}, {"time": 189490, "pitch": 58, "duration": 100, "velocity": 70}, {"time": 189600, "pitch": 55, "duration": 110, "velocity": 90}, {"time": 189600, "pitch": 58, "duration": 100, "velocity": 80}, {"time": 189610, "pitch": 63, "duration": 100, "velocity": 90}, {"time": 189610, "pitch": 67, "duration": 100, "velocity": 100}, {"time": 189720, "pitch": 63, "duration": 10, "velocity": 80}, {"time": 189720, "pitch": 67, "duration": 10, "velocity": 90}, {"time": 189730, "pitch": 55, "duration": 10, "velocity": 80}, {"time": 189730, "pitch": 58, "duration": 10, "velocity": 70}, {"time": 189840, "pitch": 65, "duration": 220, "velocity": 90}, {"time": 189840, "pitch": 69, "duration": 220, "velocity": 100}, {"time": 189850, "pitch": 57, "duration": 220, "velocity": 90}, {"time": 189850, "pitch": 60, "duration": 220, "velocity": 80}, {"time": 190080, "pitch": 57, "duration": 10, "velocity": 60}, {"time": 190080, "pitch": 60, "duration": 10, "velocity": 50}, {"time": 190090, "pitch": 65, "duration": 10, "velocity": 60}, {"time": 190090, "pitch": 69, "duration": 10, "velocity": 70}, {"time": 190200, "pitch": 65, "duration": 100, "velocity": 70}, {"time": 190200, "pitch": 69, "duration": 110, "velocity": 80}, {"time": 190210, "pitch": 57, "duration": 100, "velocity": 70}, {"time": 190210, "pitch": 60, "duration": 100, "velocity": 60}, {"time": 190320, "pitch": 57, "duration": 110, "velocity": 80}, {"time": 190320, "pitch": 60, "duration": 100, "velocity": 70}, {"time": 190330, "pitch": 65, "duration": 100, "velocity": 80}, {"time": 190330, "pitch": 69, "duration": 100, "velocity": 90}, {"time": 190440, "pitch": 65, "duration": 100, "velocity": 80}, {"time": 190440, "pitch": 69, "duration": 110, "velocity": 90}, {"time": 190450, "pitch": 57, "duration": 100, "velocity": 80}, {"time": 190450, "pitch": 60, "duration": 100, "velocity": 70}, {"time": 190560, "pitch": 57, "duration": 110, "velocity": 90}, {"time": 190560, "pitch": 60, "duration": 100, "velocity": 80}, {"time": 190570, "pitch": 65, "duration": 100, "velocity": 90}, {"time": 190570, "pitch": 69, "duration": 100, "velocity": 100}, {"time": 190680, "pitch": 57, "duration": 10, "velocity": 80}, {"time": 190680, "pitch": 60, "duration": 10, "velocity": 70}, {"time": 190680, "pitch": 65, "duration": 10, "velocity": 80}, {"time": 190680, "pitch": 69, "duration": 10, "velocity": 90}, {"time": 190800, "pitch": 57, "duration": 10, "velocity": 70}, {"time": 190800, "pitch": 60, "duration": 10, "velocity": 60}, {"time": 190800, "pitch": 65, "duration": 10, "velocity": 70}, {"time": 190800, "pitch": 69, "duration": 10, "velocity": 80}, {"time": 190920, "pitch": 57, "duration": 10, "velocity": 60}, {"time": 190920, "pitch": 60, "duration": 10, "velocity": 50}, {"time": 190920, "pitch": 65, "duration": 10, "velocity": 60}, {"time": 190920, "pitch": 69, "duration": 10, "velocity": 70}, {"time": 191040, "pitch": 58, "duration": 110, "velocity": 60}, {"time": 191040, "pitch": 62, "duration": 100, "velocity": 50}, {"time": 191050, "pitch": 65, "duration": 100, "velocity": 60}, {"time": 191050, "pitch": 70, "duration": 100, "velocity": 70}, {"time": 191160, "pitch": 65, "duration": 100, "velocity": 80}, {"time": 191160, "pitch": 70, "duration": 110, "velocity": 90}, {"time": 191170, "pitch": 58, "duration": 100, "velocity": 80}, {"time": 191170, "pitch": 62, "duration": 100, "velocity": 70}, {"time": 191280, "pitch": 58, "duration": 110, "velocity": 90}, {"time": 191280, "pitch": 62, "duration": 100, "velocity": 80}, {"time": 191290, "pitch": 65, "duration": 100, "velocity": 90}, {"time": 191290, "pitch": 70, "duration": 100, "velocity": 100}, {"time": 191400, "pitch": 65, "duration": 100, "velocity": 80}, {"time": 191400, "pitch": 70, "duration": 110, "velocity": 90}, {"time": 191410, "pitch": 58, "duration": 100, "velocity": 80}, {"time": 191410, "pitch": 62, "duration": 100, "velocity": 70}, {"time": 191520, "pitch": 58, "duration": 110, "velocity": 90}, {"time": 191520, "pitch": 62, "duration": 100, "velocity": 80}, {"time": 191530, "pitch": 65, "duration": 100, "velocity": 90}, {"time": 191530, "pitch": 70, "duration": 100, "velocity": 100}, {"time": 191640, "pitch": 65, "duration": 10, "velocity": 80}, {"time": 191640, "pitch": 70, "duration": 10, "velocity": 90}, {"time": 191650, "pitch": 58, "duration": 10, "velocity": 80}, {"time": 191650, "pitch": 62, "duration": 10, "velocity": 70}, {"time": 191760, "pitch": 58, "duration": 10, "velocity": 80}, {"time": 191760, "pitch": 62, "duration": 10, "velocity": 70}, {"time": 191770, "pitch": 65, "duration": 10, "velocity": 80}, {"time": 191770, "pitch": 70, "duration": 10, "velocity": 90}, {"time": 191880, "pitch": 65, "duration": 100, "velocity": 90}, {"time": 191880, "pitch": 69, "duration": 100, "velocity": 100}, {"time": 191890, "pitch": 57, "duration": 100, "velocity": 90}, {"time": 191890, "pitch": 60, "duration": 100, "velocity": 80}, {"time": 192000, "pitch": 57, "duration": 10, "velocity": 60}, {"time": 192000, "pitch": 60, "duration": 10, "velocity": 50}, {"time": 192010, "pitch": 65, "duration": 10, "velocity": 60}, {"time": 192010, "pitch": 69, "duration": 10, "velocity": 70}, {"time": 192120, "pitch": 65, "duration": 100, "velocity": 70}, {"time": 192120, "pitch": 69, "duration": 110, "velocity": 80}, {"time": 192130, "pitch": 57, "duration": 100, "velocity": 70}, {"time": 192130, "pitch": 60, "duration": 100, "velocity": 60}, {"time": 192240, "pitch": 57, "duration": 110, "velocity": 80}, {"time": 192240, "pitch": 60, "duration": 100, "velocity": 70}, {"time": 192250, "pitch": 65, "duration": 100, "velocity": 80}, {"time": 192250, "pitch": 69, "duration": 100, "velocity": 90}, {"time": 192360, "pitch": 65, "duration": 100, "velocity": 80}, {"time": 192360, "pitch": 69, "duration": 110, "velocity": 90}, {"time": 192370, "pitch": 57, "duration": 100, "velocity": 80}, {"time": 192370, "pitch": 60, "duration": 100, "velocity": 70}, {"time": 192480, "pitch": 57, "duration": 110, "velocity": 90}, {"time": 192480, "pitch": 60, "duration": 100, "velocity": 80}, {"time": 192490, "pitch": 65, "duration": 100, "velocity": 90}, {"time": 192490, "pitch": 69, "duration": 100, "velocity": 100}, {"time": 192600, "pitch": 57, "duration": 10, "velocity": 80}, {"time": 192600, "pitch": 60, "duration": 10, "velocity": 70}, {"time": 192600, "pitch": 65, "duration": 10, "velocity": 80}, {"time": 192600, "pitch": 69, "duration": 10, "velocity": 90}, {"time": 192720, "pitch": 57, "duration": 10, "velocity": 70}, {"time": 192720, "pitch": 60, "duration": 10, "velocity": 60}, {"time": 192720, "pitch": 65, "duration": 10, "velocity": 70}, {"time": 192720, "pitch": 69, "duration": 10, "velocity": 80}, {"time": 192840, "pitch": 57, "duration": 10, "velocity": 60}, {"time": 192840, "pitch": 60, "duration": 10, "velocity": 50}, {"time": 192840, "pitch": 65, "duration": 10, "velocity": 60}, {"time": 192840, "pitch": 69, "duration": 10, "velocity": 70}, {"time": 192960, "pitch": 55, "duration": 110, "velocity": 60}, {"time": 192960, "pitch": 58, "duration": 100, "velocity": 50}, {"time": 192970, "pitch": 62, "duration": 100, "velocity": 60}, {"time": 192970, "pitch": 67, "duration": 100, "velocity": 70}, {"time": 193080, "pitch": 62, "duration": 100, "velocity": 80}, {"time": 193080, "pitch": 67, "duration": 110, "velocity": 90}, {"time": 193090, "pitch": 55, "duration": 100, "velocity": 80}, {"time": 193090, "pitch": 58, "duration": 100, "velocity": 70}, {"time": 193200, "pitch": 55, "duration": 110, "velocity": 90}, {"time": 193200, "pitch": 58, "duration": 100, "velocity": 80}, {"time": 193210, "pitch": 62, "duration": 100, "velocity": 90}, {"time": 193210, "pitch": 67, "duration": 100, "velocity": 100}, {"time": 193320, "pitch": 62, "duration": 100, "velocity": 80}, {"time": 193320, "pitch": 67, "duration": 110, "velocity": 90}, {"time": 193330, "pitch": 55, "duration": 100, "velocity": 80}, {"time": 193330, "pitch": 58, "duration": 100, "velocity": 70}, {"time": 193440, "pitch": 55, "duration": 110, "velocity": 90}, {"time": 193440, "pitch": 58, "duration": 100, "velocity": 80}, {"time": 193450, "pitch": 62, "duration": 100, "velocity": 90}, {"time": 193450, "pitch": 67, "duration": 100, "velocity": 100}, {"time": 193560, "pitch": 62, "duration": 10, "velocity": 80}, {"time": 193560, "pitch": 67, "duration": 10, "velocity": 90}, {"time": 193570, "pitch": 55, "duration": 10, "velocity": 80}, {"time": 193570, "pitch": 58, "duration": 10, "velocity": 70}, {"time": 193680, "pitch": 55, "duration": 10, "velocity": 80}, {"time": 193680, "pitch": 58, "duration": 10, "velocity": 70}, {"time": 193690, "pitch": 62, "duration": 10, "velocity": 80}, {"time": 193690, "pitch": 67, "duration": 10, "velocity": 90}, {"time": 193800, "pitch": 65, "duration": 100, "velocity": 90}, {"time": 193800, "pitch": 69, "duration": 100, "velocity": 100}, {"time": 193810, "pitch": 57, "duration": 100, "velocity": 90}, {"time": 193810, "pitch": 60, "duration": 100, "velocity": 80}, {"time": 193920, "pitch": 57, "duration": 10, "velocity": 60}, {"time": 193920, "pitch": 60, "duration": 10, "velocity": 50}, {"time": 193930, "pitch": 65, "duration": 10, "velocity": 60}, {"time": 193930, "pitch": 69, "duration": 10, "velocity": 70}, {"time": 194040, "pitch": 65, "duration": 100, "velocity": 70}, {"time": 194040, "pitch": 69, "duration": 110, "velocity": 80}, {"time": 194050, "pitch": 57, "duration": 100, "velocity": 70}, {"time": 194050, "pitch": 60, "duration": 100, "velocity": 60}, {"time": 194160, "pitch": 57, "duration": 110, "velocity": 80}, {"time": 194160, "pitch": 60, "duration": 100, "velocity": 70}, {"time": 194170, "pitch": 65, "duration": 100, "velocity": 80}, {"time": 194170, "pitch": 69, "duration": 100, "velocity": 90}, {"time": 194280, "pitch": 65, "duration": 100, "velocity": 80}, {"time": 194280, "pitch": 69, "duration": 110, "velocity": 90}, {"time": 194290, "pitch": 57, "duration": 100, "velocity": 80}, {"time": 194290, "pitch": 60, "duration": 100, "velocity": 70}, {"time": 194400, "pitch": 57, "duration": 110, "velocity": 90}, {"time": 194400, "pitch": 60, "duration": 100, "velocity": 80}, {"time": 194410, "pitch": 65, "duration": 100, "velocity": 90}, {"time": 194410, "pitch": 69, "duration": 100, "velocity": 100}, {"time": 194520, "pitch": 57, "duration": 10, "velocity": 80}, {"time": 194520, "pitch": 60, "duration": 10, "velocity": 70}, {"time": 194520, "pitch": 65, "duration": 10, "velocity": 80}, {"time": 194520, "pitch": 69, "duration": 10, "velocity": 90}, {"time": 194640, "pitch": 57, "duration": 10, "velocity": 70}, {"time": 194640, "pitch": 60, "duration": 10, "velocity": 60}, {"time": 194640, "pitch": 65, "duration": 10, "velocity": 70}, {"time": 194640, "pitch": 69, "duration": 10, "velocity": 80}, {"time": 194760, "pitch": 57, "duration": 10, "velocity": 60}, {"time": 194760, "pitch": 60, "duration": 10, "velocity": 50}, {"time": 194760, "pitch": 65, "duration": 10, "velocity": 60}, {"time": 194760, "pitch": 69, "duration": 10, "velocity": 70}, {"time": 194880, "pitch": 58, "duration": 110, "velocity": 60}, {"time": 194880, "pitch": 63, "duration": 100, "velocity": 50}, {"time": 194890, "pitch": 67, "duration": 100, "velocity": 60}, {"time": 194890, "pitch": 70, "duration": 100, "velocity": 70}, {"time": 195000, "pitch": 67, "duration": 100, "velocity": 80}, {"time": 195000, "pitch": 70, "duration": 110, "velocity": 90}, {"time": 195010, "pitch": 58, "duration": 100, "velocity": 80}, {"time": 195010, "pitch": 63, "duration": 100, "velocity": 70}, {"time": 195120, "pitch": 58, "duration": 110, "velocity": 90}, {"time": 195120, "pitch": 63, "duration": 100, "velocity": 80}, {"time": 195130, "pitch": 67, "duration": 100, "velocity": 90}, {"time": 195130, "pitch": 70, "duration": 100, "velocity": 100}, {"time": 195240, "pitch": 67, "duration": 100, "velocity": 80}, {"time": 195240, "pitch": 70, "duration": 110, "velocity": 90}, {"time": 195250, "pitch": 58, "duration": 100, "velocity": 80}, {"time": 195250, "pitch": 63, "duration": 100, "velocity": 70}, {"time": 195360, "pitch": 58, "duration": 110, "velocity": 90}, {"time": 195360, "pitch": 63, "duration": 100, "velocity": 80}, {"time": 195370, "pitch": 67, "duration": 100, "velocity": 90}, {"time": 195370, "pitch": 70, "duration": 100, "velocity": 100}, {"time": 195480, "pitch": 67, "duration": 10, "velocity": 80}, {"time": 195480, "pitch": 70, "duration": 10, "velocity": 90}, {"time": 195490, "pitch": 58, "duration": 10, "velocity": 80}, {"time": 195490, "pitch": 63, "duration": 10, "velocity": 70}, {"time": 195600, "pitch": 58, "duration": 10, "velocity": 80}, {"time": 195600, "pitch": 63, "duration": 10, "velocity": 70}, {"time": 195610, "pitch": 67, "duration": 10, "velocity": 80}, {"time": 195610, "pitch": 70, "duration": 10, "velocity": 90}, {"time": 195720, "pitch": 65, "duration": 100, "velocity": 90}, {"time": 195720, "pitch": 70, "duration": 100, "velocity": 100}, {"time": 195730, "pitch": 58, "duration": 100, "velocity": 90}, {"time": 195730, "pitch": 62, "duration": 100, "velocity": 80}, {"time": 195840, "pitch": 58, "duration": 10, "velocity": 60}, {"time": 195840, "pitch": 62, "duration": 10, "velocity": 50}, {"time": 195850, "pitch": 65, "duration": 10, "velocity": 60}, {"time": 195850, "pitch": 70, "duration": 10, "velocity": 70}, {"time": 195960, "pitch": 65, "duration": 100, "velocity": 70}, {"time": 195960, "pitch": 70, "duration": 110, "velocity": 80}, {"time": 195970, "pitch": 58, "duration": 100, "velocity": 70}, {"time": 195970, "pitch": 62, "duration": 100, "velocity": 60}, {"time": 196080, "pitch": 58, "duration": 110, "velocity": 80}, {"time": 196080, "pitch": 62, "duration": 100, "velocity": 70}, {"time": 196090, "pitch": 65, "duration": 100, "velocity": 80}, {"time": 196090, "pitch": 70, "duration": 100, "velocity": 90}, {"time": 196200, "pitch": 65, "duration": 100, "velocity": 80}, {"time": 196200, "pitch": 70, "duration": 110, "velocity": 90}, {"time": 196210, "pitch": 58, "duration": 100, "velocity": 80}, {"time": 196210, "pitch": 62, "duration": 100, "velocity": 70}, {"time": 196320, "pitch": 58, "duration": 110, "velocity": 90}, {"time": 196320, "pitch": 62, "duration": 100, "velocity": 80}, {"time": 196330, "pitch": 65, "duration": 100, "velocity": 90}, {"time": 196330, "pitch": 70, "duration": 100, "velocity": 100}, {"time": 196440, "pitch": 58, "duration": 10, "velocity": 80}, {"time": 196440, "pitch": 62, "duration": 10, "velocity": 70}, {"time": 196440, "pitch": 65, "duration": 10, "velocity": 80}, {"time": 196440, "pitch": 70, "duration": 10, "velocity": 90}, {"time": 196560, "pitch": 55, "duration": 460, "velocity": 100}, {"time": 196560, "pitch": 58, "duration": 460, "velocity": 90}, {"time": 196570, "pitch": 63, "duration": 450, "velocity": 80}, {"time": 196570, "pitch": 67, "duration": 450, "velocity": 90}, {"time": 197040, "pitch": 55, "duration": 110, "velocity": 90}, {"time": 197040, "pitch": 58, "duration": 100, "velocity": 80}, {"time": 197050, "pitch": 63, "duration": 100, "velocity": 90}, {"time": 197050, "pitch": 67, "duration": 100, "velocity": 100}, {"time": 197160, "pitch": 63, "duration": 100, "velocity": 80}, {"time": 197160, "pitch": 67, "duration": 110, "velocity": 90}, {"time": 197170, "pitch": 55, "duration": 100, "velocity": 80}, {"time": 197170, "pitch": 58, "duration": 100, "velocity": 70}, {"time": 197280, "pitch": 55, "duration": 110, "velocity": 90}, {"time": 197280, "pitch": 58, "duration": 100, "velocity": 80}, {"time": 197290, "pitch": 63, "duration": 100, "velocity": 90}, {"time": 197290, "pitch": 67, "duration": 100, "velocity": 100}, {"time": 197400, "pitch": 63, "duration": 10, "velocity": 80}, {"time": 197400, "pitch": 67, "duration": 10, "velocity": 90}, {"time": 197410, "pitch": 55, "duration": 10, "velocity": 80}, {"time": 197410, "pitch": 58, "duration": 10, "velocity": 70}, {"time": 197520, "pitch": 65, "duration": 220, "velocity": 90}, {"time": 197520, "pitch": 69, "duration": 220, "velocity": 100}, {"time": 197530, "pitch": 57, "duration": 220, "velocity": 90}, {"time": 197530, "pitch": 60, "duration": 220, "velocity": 80}, {"time": 197760, "pitch": 57, "duration": 10, "velocity": 60}, {"time": 197760, "pitch": 60, "duration": 10, "velocity": 50}, {"time": 197770, "pitch": 65, "duration": 10, "velocity": 60}, {"time": 197770, "pitch": 69, "duration": 10, "velocity": 70}, {"time": 197880, "pitch": 65, "duration": 100, "velocity": 70}, {"time": 197880, "pitch": 69, "duration": 110, "velocity": 80}, {"time": 197890, "pitch": 57, "duration": 100, "velocity": 70}, {"time": 197890, "pitch": 60, "duration": 100, "velocity": 60}, {"time": 198000, "pitch": 57, "duration": 110, "velocity": 80}, {"time": 198000, "pitch": 60, "duration": 100, "velocity": 70}, {"time": 198010, "pitch": 65, "duration": 100, "velocity": 80}, {"time": 198010, "pitch": 69, "duration": 100, "velocity": 90}, {"time": 198120, "pitch": 65, "duration": 100, "velocity": 80}, {"time": 198120, "pitch": 69, "duration": 110, "velocity": 90}, {"time": 198130, "pitch": 57, "duration": 100, "velocity": 80}, {"time": 198130, "pitch": 60, "duration": 100, "velocity": 70}, {"time": 198240, "pitch": 57, "duration": 110, "velocity": 90}, {"time": 198240, "pitch": 60, "duration": 100, "velocity": 80}, {"time": 198250, "pitch": 65, "duration": 100, "velocity": 90}, {"time": 198250, "pitch": 69, "duration": 100, "velocity": 100}, {"time": 198360, "pitch": 57, "duration": 10, "velocity": 80}, {"time": 198360, "pitch": 60, "duration": 10, "velocity": 70}, {"time": 198360, "pitch": 65, "duration": 10, "velocity": 80}, {"time": 198360, "pitch": 69, "duration": 10, "velocity": 90}, {"time": 198480, "pitch": 57, "duration": 10, "velocity": 70}, {"time": 198480, "pitch": 60, "duration": 10, "velocity": 60}, {"time": 198480, "pitch": 65, "duration": 10, "velocity": 70}, {"time": 198480, "pitch": 69, "duration": 10, "velocity": 80}, {"time": 198600, "pitch": 57, "duration": 10, "velocity": 60}, {"time": 198600, "pitch": 60, "duration": 10, "velocity": 50}, {"time": 198600, "pitch": 65, "duration": 10, "velocity": 60}, {"time": 198600, "pitch": 69, "duration": 10, "velocity": 70}, {"time": 198720, "pitch": 70, "duration": 110, "velocity": 60}, {"time": 198730, "pitch": 82, "duration": 100, "velocity": 70}, {"time": 198840, "pitch": 82, "duration": 100, "velocity": 80}, {"time": 198850, "pitch": 70, "duration": 100, "velocity": 70}, {"time": 198960, "pitch": 70, "duration": 110, "velocity": 90}, {"time": 198970, "pitch": 82, "duration": 100, "velocity": 100}, {"time": 199080, "pitch": 82, "duration": 100, "velocity": 100}, {"time": 199090, "pitch": 70, "duration": 100, "velocity": 90}, {"time": 199200, "pitch": 70, "duration": 110, "velocity": 110}, {"time": 199210, "pitch": 82, "duration": 100, "velocity": 110}, {"time": 199320, "pitch": 82, "duration": 10, "velocity": 100}, {"time": 199330, "pitch": 70, "duration": 10, "velocity": 90}, {"time": 199440, "pitch": 70, "duration": 10, "velocity": 80}, {"time": 199450, "pitch": 82, "duration": 10, "velocity": 90}, {"time": 199560, "pitch": 82, "duration": 100, "velocity": 90}, {"time": 199570, "pitch": 70, "duration": 100, "velocity": 80}, {"time": 199680, "pitch": 70, "duration": 10, "velocity": 60}, {"time": 199690, "pitch": 82, "duration": 10, "velocity": 70}, {"time": 199800, "pitch": 82, "duration": 100, "velocity": 80}, {"time": 199810, "pitch": 70, "duration": 100, "velocity": 70}, {"time": 199920, "pitch": 70, "duration": 110, "velocity": 90}, {"time": 199930, "pitch": 82, "duration": 100, "velocity": 100}, {"time": 200040, "pitch": 82, "duration": 100, "velocity": 100}, {"time": 200050, "pitch": 70, "duration": 100, "velocity": 90}, {"time": 200160, "pitch": 70, "duration": 80, "velocity": 110}, {"time": 200170, "pitch": 82, "duration": 80, "velocity": 110}, {"time": 200280, "pitch": 70, "duration": 10, "velocity": 80}, {"time": 200280, "pitch": 82, "duration": 10, "velocity": 90}, {"time": 200400, "pitch": 70, "duration": 10, "velocity": 70}, {"time": 200400, "pitch": 82, "duration": 10, "velocity": 80}, {"time": 200520, "pitch": 70, "duration": 10, "velocity": 80}, {"time": 200520, "pitch": 82, "duration": 10, "velocity": 90}, {"time": 200640, "pitch": 70, "duration": 110, "velocity": 60}, {"time": 200650, "pitch": 82, "duration": 100, "velocity": 70}, {"time": 200760, "pitch": 82, "duration": 100, "velocity": 80}, {"time": 200770, "pitch": 70, "duration": 100, "velocity": 70}, {"time": 200880, "pitch": 70, "duration": 110, "velocity": 90}, {"time": 200890, "pitch": 82, "duration": 100, "velocity": 100}, {"time": 201000, "pitch": 82, "duration": 100, "velocity": 100}, {"time": 201010, "pitch": 70, "duration": 100, "velocity": 90}, {"time": 201120, "pitch": 70, "duration": 110, "velocity": 110}, {"time": 201130, "pitch": 82, "duration": 100, "velocity": 110}, {"time": 201240, "pitch": 82, "duration": 10, "velocity": 100}, {"time": 201250, "pitch": 70, "duration": 10, "velocity": 90}, {"time": 201360, "pitch": 70, "duration": 10, "velocity": 80}, {"time": 201370, "pitch": 82, "duration": 10, "velocity": 90}, {"time": 201480, "pitch": 82, "duration": 100, "velocity": 90}, {"time": 201490, "pitch": 70, "duration": 100, "velocity": 80}, {"time": 201600, "pitch": 70, "duration": 10, "velocity": 60}, {"time": 201610, "pitch": 82, "duration": 10, "velocity": 70}, {"time": 201720, "pitch": 82, "duration": 100, "velocity": 80}, {"time": 201730, "pitch": 70, "duration": 100, "velocity": 70}, {"time": 201840, "pitch": 70, "duration": 110, "velocity": 90}, {"time": 201850, "pitch": 82, "duration": 100, "velocity": 100}, {"time": 201960, "pitch": 82, "duration": 100, "velocity": 100}, {"time": 201970, "pitch": 70, "duration": 100, "velocity": 90}, {"time": 202080, "pitch": 70, "duration": 80, "velocity": 110}, {"time": 202090, "pitch": 82, "duration": 80, "velocity": 110}, {"time": 202200, "pitch": 70, "duration": 10, "velocity": 80}, {"time": 202200, "pitch": 82, "duration": 10, "velocity": 90}, {"time": 202320, "pitch": 70, "duration": 10, "velocity": 70}, {"time": 202320, "pitch": 82, "duration": 10, "velocity": 80}, {"time": 202440, "pitch": 70, "duration": 10, "velocity": 80}, {"time": 202440, "pitch": 82, "duration": 10, "velocity": 90}, {"time": 202560, "pitch": 69, "duration": 110, "velocity": 60}, {"time": 202570, "pitch": 81, "duration": 100, "velocity": 70}, {"time": 202680, "pitch": 81, "duration": 100, "velocity": 80}, {"time": 202690, "pitch": 69, "duration": 100, "velocity": 70}, {"time": 202800, "pitch": 69, "duration": 110, "velocity": 90}, {"time": 202810, "pitch": 81, "duration": 100, "velocity": 100}, {"time": 202920, "pitch": 81, "duration": 100, "velocity": 100}, {"time": 202930, "pitch": 69, "duration": 100, "velocity": 90}, {"time": 203040, "pitch": 69, "duration": 110, "velocity": 110}, {"time": 203050, "pitch": 81, "duration": 100, "velocity": 110}, {"time": 203160, "pitch": 81, "duration": 10, "velocity": 100}, {"time": 203170, "pitch": 69, "duration": 10, "velocity": 90}, {"time": 203280, "pitch": 69, "duration": 10, "velocity": 80}, {"time": 203290, "pitch": 81, "duration": 10, "velocity": 90}, {"time": 203400, "pitch": 81, "duration": 100, "velocity": 90}, {"time": 203410, "pitch": 69, "duration": 100, "velocity": 80}, {"time": 203520, "pitch": 69, "duration": 10, "velocity": 60}, {"time": 203530, "pitch": 81, "duration": 10, "velocity": 70}, {"time": 203640, "pitch": 81, "duration": 100, "velocity": 80}, {"time": 203650, "pitch": 69, "duration": 100, "velocity": 70}, {"time": 203760, "pitch": 69, "duration": 110, "velocity": 90}, {"time": 203770, "pitch": 81, "duration": 100, "velocity": 100}, {"time": 203880, "pitch": 81, "duration": 100, "velocity": 100}, {"time": 203890, "pitch": 69, "duration": 100, "velocity": 90}, {"time": 204000, "pitch": 69, "duration": 80, "velocity": 110}, {"time": 204010, "pitch": 81, "duration": 80, "velocity": 110}, {"time": 204120, "pitch": 69, "duration": 10, "velocity": 80}, {"time": 204120, "pitch": 81, "duration": 10, "velocity": 90}, {"time": 204240, "pitch": 69, "duration": 10, "velocity": 70}, {"time": 204240, "pitch": 81, "duration": 10, "velocity": 80}, {"time": 204360, "pitch": 69, "duration": 10, "velocity": 80}, {"time": 204360, "pitch": 81, "duration": 10, "velocity": 90}, {"time": 204480, "pitch": 62, "duration": 110, "velocity": 100}, {"time": 204490, "pitch": 74, "duration": 100, "velocity": 110}, {"time": 204600, "pitch": 74, "duration": 100, "velocity": 80}, {"time": 204610, "pitch": 62, "duration": 100, "velocity": 70}, {"time": 204720, "pitch": 62, "duration": 110, "velocity": 90}, {"time": 204730, "pitch": 74, "duration": 100, "velocity": 100}, {"time": 204840, "pitch": 74, "duration": 100, "velocity": 100}, {"time": 204850, "pitch": 62, "duration": 100, "velocity": 90}, {"time": 204960, "pitch": 62, "duration": 110, "velocity": 110}, {"time": 204970, "pitch": 74, "duration": 100, "velocity": 110}, {"time": 205080, "pitch": 74, "duration": 10, "velocity": 100}, {"time": 205090, "pitch": 62, "duration": 10, "velocity": 90}, {"time": 205200, "pitch": 62, "duration": 10, "velocity": 80}, {"time": 205210, "pitch": 74, "duration": 10, "velocity": 90}, {"time": 205320, "pitch": 74, "duration": 240, "velocity": 110}, {"time": 205330, "pitch": 62, "duration": 330, "velocity": 100}, {"time": 205570, "pitch": 74, "duration": 100, "velocity": 110}, {"time": 205680, "pitch": 74, "duration": 240, "velocity": 100}, {"time": 205690, "pitch": 62, "duration": 230, "velocity": 90}, {"time": 205920, "pitch": 62, "duration": 400, "velocity": 100}, {"time": 205930, "pitch": 74, "duration": 400, "velocity": 110}, {"time": 206400, "pitch": 70, "duration": 110, "velocity": 60}, {"time": 206410, "pitch": 82, "duration": 100, "velocity": 70}, {"time": 206520, "pitch": 82, "duration": 100, "velocity": 80}, {"time": 206530, "pitch": 70, "duration": 100, "velocity": 70}, {"time": 206640, "pitch": 70, "duration": 110, "velocity": 90}, {"time": 206650, "pitch": 82, "duration": 100, "velocity": 100}, {"time": 206760, "pitch": 82, "duration": 100, "velocity": 100}, {"time": 206770, "pitch": 70, "duration": 100, "velocity": 90}, {"time": 206880, "pitch": 70, "duration": 110, "velocity": 110}, {"time": 206890, "pitch": 82, "duration": 100, "velocity": 110}, {"time": 207000, "pitch": 82, "duration": 10, "velocity": 100}, {"time": 207010, "pitch": 70, "duration": 10, "velocity": 90}, {"time": 207120, "pitch": 70, "duration": 10, "velocity": 80}, {"time": 207130, "pitch": 82, "duration": 10, "velocity": 90}, {"time": 207240, "pitch": 82, "duration": 100, "velocity": 90}, {"time": 207250, "pitch": 70, "duration": 100, "velocity": 80}, {"time": 207360, "pitch": 70, "duration": 10, "velocity": 60}, {"time": 207370, "pitch": 82, "duration": 10, "velocity": 70}, {"time": 207480, "pitch": 82, "duration": 100, "velocity": 80}, {"time": 207490, "pitch": 70, "duration": 100, "velocity": 70}, {"time": 207600, "pitch": 70, "duration": 110, "velocity": 90}, {"time": 207610, "pitch": 82, "duration": 100, "velocity": 100}, {"time": 207720, "pitch": 82, "duration": 100, "velocity": 100}, {"time": 207730, "pitch": 70, "duration": 100, "velocity": 90}, {"time": 207840, "pitch": 70, "duration": 80, "velocity": 110}, {"time": 207850, "pitch": 82, "duration": 80, "velocity": 110}, {"time": 207960, "pitch": 70, "duration": 10, "velocity": 80}, {"time": 207960, "pitch": 82, "duration": 10, "velocity": 90}, {"time": 208080, "pitch": 70, "duration": 10, "velocity": 70}, {"time": 208080, "pitch": 82, "duration": 10, "velocity": 80}, {"time": 208200, "pitch": 70, "duration": 10, "velocity": 80}, {"time": 208200, "pitch": 82, "duration": 10, "velocity": 90}, {"time": 208320, "pitch": 70, "duration": 110, "velocity": 60}, {"time": 208330, "pitch": 82, "duration": 100, "velocity": 70}, {"time": 208440, "pitch": 82, "duration": 100, "velocity": 80}, {"time": 208450, "pitch": 70, "duration": 100, "velocity": 70}, {"time": 208560, "pitch": 70, "duration": 110, "velocity": 90}, {"time": 208570, "pitch": 82, "duration": 100, "velocity": 100}, {"time": 208680, "pitch": 82, "duration": 100, "velocity": 100}, {"time": 208690, "pitch": 70, "duration": 100, "velocity": 90}, {"time": 208800, "pitch": 70, "duration": 110, "velocity": 110}, {"time": 208810, "pitch": 82, "duration": 100, "velocity": 110}, {"time": 208920, "pitch": 82, "duration": 10, "velocity": 100}, {"time": 208930, "pitch": 70, "duration": 10, "velocity": 90}, {"time": 209040, "pitch": 70, "duration": 10, "velocity": 80}, {"time": 209050, "pitch": 82, "duration": 10, "velocity": 90}, {"time": 209160, "pitch": 82, "duration": 100, "velocity": 90}, {"time": 209170, "pitch": 70, "duration": 100, "velocity": 80}, {"time": 209280, "pitch": 70, "duration": 10, "velocity": 60}, {"time": 209290, "pitch": 82, "duration": 10, "velocity": 70}, {"time": 209400, "pitch": 82, "duration": 100, "velocity": 80}, {"time": 209410, "pitch": 70, "duration": 100, "velocity": 70}, {"time": 209520, "pitch": 70, "duration": 110, "velocity": 90}, {"time": 209530, "pitch": 82, "duration": 100, "velocity": 100}, {"time": 209640, "pitch": 82, "duration": 100, "velocity": 100}, {"time": 209650, "pitch": 70, "duration": 100, "velocity": 90}, {"time": 209760, "pitch": 70, "duration": 80, "velocity": 110}, {"time": 209770, "pitch": 82, "duration": 80, "velocity": 110}, {"time": 209880, "pitch": 70, "duration": 10, "velocity": 80}, {"time": 209880, "pitch": 82, "duration": 10, "velocity": 90}, {"time": 210000, "pitch": 70, "duration": 10, "velocity": 70}, {"time": 210000, "pitch": 82, "duration": 10, "velocity": 80}, {"time": 210120, "pitch": 70, "duration": 10, "velocity": 80}, {"time": 210120, "pitch": 82, "duration": 10, "velocity": 90}, {"time": 210240, "pitch": 69, "duration": 110, "velocity": 60}, {"time": 210250, "pitch": 81, "duration": 100, "velocity": 70}, {"time": 210360, "pitch": 81, "duration": 100, "velocity": 80}, {"time": 210370, "pitch": 69, "duration": 100, "velocity": 70}, {"time": 210480, "pitch": 69, "duration": 110, "velocity": 90}, {"time": 210490, "pitch": 81, "duration": 100, "velocity": 100}, {"time": 210600, "pitch": 81, "duration": 100, "velocity": 100}, {"time": 210610, "pitch": 69, "duration": 100, "velocity": 90}, {"time": 210720, "pitch": 69, "duration": 110, "velocity": 110}, {"time": 210730, "pitch": 81, "duration": 100, "velocity": 110}, {"time": 210840, "pitch": 81, "duration": 10, "velocity": 100}, {"time": 210850, "pitch": 69, "duration": 10, "velocity": 90}, {"time": 210960, "pitch": 69, "duration": 10, "velocity": 80}, {"time": 210970, "pitch": 81, "duration": 10, "velocity": 90}, {"time": 211080, "pitch": 81, "duration": 100, "velocity": 90}, {"time": 211090, "pitch": 69, "duration": 100, "velocity": 80}, {"time": 211200, "pitch": 69, "duration": 10, "velocity": 60}, {"time": 211210, "pitch": 81, "duration": 10, "velocity": 70}, {"time": 211320, "pitch": 81, "duration": 100, "velocity": 80}, {"time": 211330, "pitch": 69, "duration": 100, "velocity": 70}, {"time": 211440, "pitch": 69, "duration": 110, "velocity": 90}, {"time": 211450, "pitch": 81, "duration": 100, "velocity": 100}, {"time": 211560, "pitch": 81, "duration": 100, "velocity": 100}, {"time": 211570, "pitch": 69, "duration": 100, "velocity": 90}, {"time": 211680, "pitch": 69, "duration": 80, "velocity": 110}, {"time": 211690, "pitch": 81, "duration": 80, "velocity": 110}, {"time": 211800, "pitch": 69, "duration": 10, "velocity": 80}, {"time": 211800, "pitch": 81, "duration": 10, "velocity": 90}, {"time": 211920, "pitch": 69, "duration": 10, "velocity": 70}, {"time": 211920, "pitch": 81, "duration": 10, "velocity": 80}, {"time": 212040, "pitch": 69, "duration": 10, "velocity": 80}, {"time": 212040, "pitch": 81, "duration": 10, "velocity": 90}, {"time": 212160, "pitch": 62, "duration": 110, "velocity": 60}, {"time": 212170, "pitch": 74, "duration": 100, "velocity": 70}, {"time": 212280, "pitch": 74, "duration": 100, "velocity": 80}, {"time": 212290, "pitch": 62, "duration": 100, "velocity": 70}, {"time": 212400, "pitch": 62, "duration": 110, "velocity": 90}, {"time": 212410, "pitch": 74, "duration": 100, "velocity": 100}, {"time": 212520, "pitch": 74, "duration": 100, "velocity": 100}, {"time": 212530, "pitch": 62, "duration": 100, "velocity": 90}, {"time": 212640, "pitch": 62, "duration": 110, "velocity": 110}, {"time": 212650, "pitch": 74, "duration": 100, "velocity": 110}, {"time": 212760, "pitch": 74, "duration": 10, "velocity": 100}, {"time": 212770, "pitch": 62, "duration": 10, "velocity": 90}, {"time": 212880, "pitch": 62, "duration": 10, "velocity": 80}, {"time": 212890, "pitch": 74, "duration": 10, "velocity": 90}, {"time": 213000, "pitch": 74, "duration": 100, "velocity": 90}, {"time": 213010, "pitch": 62, "duration": 100, "velocity": 80}, {"time": 213120, "pitch": 62, "duration": 10, "velocity": 60}, {"time": 213130, "pitch": 74, "duration": 10, "velocity": 70}, {"time": 213240, "pitch": 74, "duration": 100, "velocity": 80}, {"time": 213250, "pitch": 62, "duration": 100, "velocity": 70}, {"time": 213360, "pitch": 62, "duration": 110, "velocity": 90}, {"time": 213370, "pitch": 74, "duration": 100, "velocity": 100}, {"time": 213480, "pitch": 74, "duration": 100, "velocity": 100}, {"time": 213490, "pitch": 62, "duration": 100, "velocity": 90}, {"time": 213600, "pitch": 62, "duration": 100, "velocity": 90}, {"time": 213610, "pitch": 74, "duration": 100, "velocity": 90}, {"time": 213720, "pitch": 74, "duration": 100, "velocity": 90}, {"time": 213730, "pitch": 62, "duration": 100, "velocity": 80}, {"time": 213840, "pitch": 62, "duration": 100, "velocity": 90}, {"time": 213850, "pitch": 74, "duration": 100, "velocity": 100}, {"time": 213960, "pitch": 74, "duration": 100, "velocity": 110}, {"time": 213970, "pitch": 62, "duration": 100, "velocity": 100}, {"time": 31680, "pitch": 56, "duration": 100, "velocity": 100}, {"time": 31800, "pitch": 56, "duration": 10, "velocity": 80}, {"time": 31920, "pitch": 56, "duration": 10, "velocity": 70}, {"time": 32040, "pitch": 56, "duration": 100, "velocity": 100}, {"time": 32160, "pitch": 56, "duration": 10, "velocity": 80}, {"time": 32280, "pitch": 56, "duration": 110, "velocity": 100}, {"time": 32400, "pitch": 53, "duration": 180, "velocity": 90}, {"time": 32640, "pitch": 56, "duration": 100, "velocity": 100}, {"time": 32760, "pitch": 56, "duration": 10, "velocity": 80}, {"time": 32880, "pitch": 56, "duration": 10, "velocity": 70}, {"time": 33000, "pitch": 56, "duration": 100, "velocity": 100}, {"time": 33120, "pitch": 56, "duration": 10, "velocity": 80}, {"time": 33240, "pitch": 56, "duration": 110, "velocity": 100}, {"time": 33360, "pitch": 53, "duration": 180, "velocity": 90}, {"time": 33600, "pitch": 51, "duration": 100, "velocity": 100}, {"time": 33720, "pitch": 51, "duration": 10, "velocity": 80}, {"time": 33840, "pitch": 51, "duration": 10, "velocity": 70}, {"time": 33960, "pitch": 51, "duration": 100, "velocity": 100}, {"time": 34080, "pitch": 51, "duration": 10, "velocity": 80}, {"time": 34200, "pitch": 51, "duration": 110, "velocity": 100}, {"time": 34320, "pitch": 48, "duration": 180, "velocity": 90}, {"time": 34560, "pitch": 51, "duration": 100, "velocity": 100}, {"time": 34680, "pitch": 51, "duration": 10, "velocity": 80}, {"time": 34800, "pitch": 51, "duration": 10, "velocity": 70}, {"time": 34920, "pitch": 51, "duration": 100, "velocity": 100}, {"time": 35040, "pitch": 51, "duration": 10, "velocity": 80}, {"time": 35160, "pitch": 51, "duration": 110, "velocity": 100}, {"time": 35280, "pitch": 49, "duration": 180, "velocity": 90}, {"time": 35520, "pitch": 48, "duration": 100, "velocity": 100}, {"time": 35640, "pitch": 48, "duration": 10, "velocity": 80}, {"time": 35760, "pitch": 48, "duration": 10, "velocity": 70}, {"time": 35880, "pitch": 48, "duration": 100, "velocity": 100}, {"time": 36000, "pitch": 48, "duration": 10, "velocity": 80}, {"time": 36120, "pitch": 48, "duration": 110, "velocity": 100}, {"time": 36240, "pitch": 51, "duration": 180, "velocity": 90}, {"time": 36480, "pitch": 53, "duration": 100, "velocity": 100}, {"time": 36720, "pitch": 53, "duration": 100, "velocity": 100}, {"time": 36960, "pitch": 56, "duration": 220, "velocity": 100}, {"time": 37200, "pitch": 57, "duration": 220, "velocity": 100}, {"time": 37440, "pitch": 58, "duration": 100, "velocity": 100}, {"time": 37560, "pitch": 58, "duration": 10, "velocity": 80}, {"time": 37680, "pitch": 58, "duration": 10, "velocity": 70}, {"time": 37800, "pitch": 58, "duration": 100, "velocity": 100}, {"time": 37920, "pitch": 58, "duration": 10, "velocity": 80}, {"time": 38040, "pitch": 58, "duration": 110, "velocity": 100}, {"time": 38160, "pitch": 53, "duration": 180, "velocity": 90}, {"time": 38400, "pitch": 51, "duration": 100, "velocity": 100}, {"time": 38640, "pitch": 51, "duration": 100, "velocity": 100}, {"time": 38880, "pitch": 53, "duration": 100, "velocity": 100}, {"time": 39120, "pitch": 51, "duration": 100, "velocity": 100}, {"time": 39360, "pitch": 56, "duration": 100, "velocity": 100}, {"time": 39480, "pitch": 56, "duration": 10, "velocity": 80}, {"time": 39600, "pitch": 56, "duration": 10, "velocity": 70}, {"time": 39720, "pitch": 56, "duration": 100, "velocity": 100}, {"time": 39840, "pitch": 56, "duration": 10, "velocity": 80}, {"time": 39960, "pitch": 56, "duration": 110, "velocity": 100}, {"time": 40080, "pitch": 53, "duration": 180, "velocity": 90}, {"time": 40320, "pitch": 56, "duration": 100, "velocity": 100}, {"time": 40440, "pitch": 56, "duration": 10, "velocity": 80}, {"time": 40560, "pitch": 56, "duration": 10, "velocity": 70}, {"time": 40680, "pitch": 56, "duration": 100, "velocity": 100}, {"time": 40800, "pitch": 56, "duration": 10, "velocity": 80}, {"time": 40920, "pitch": 56, "duration": 110, "velocity": 100}, {"time": 41040, "pitch": 53, "duration": 180, "velocity": 90}, {"time": 41280, "pitch": 51, "duration": 100, "velocity": 100}, {"time": 41400, "pitch": 51, "duration": 10, "velocity": 80}, {"time": 41520, "pitch": 51, "duration": 10, "velocity": 70}, {"time": 41640, "pitch": 51, "duration": 100, "velocity": 100}, {"time": 41760, "pitch": 51, "duration": 10, "velocity": 80}, {"time": 41880, "pitch": 51, "duration": 110, "velocity": 100}, {"time": 42000, "pitch": 48, "duration": 180, "velocity": 90}, {"time": 42240, "pitch": 51, "duration": 100, "velocity": 100}, {"time": 42360, "pitch": 51, "duration": 10, "velocity": 80}, {"time": 42480, "pitch": 51, "duration": 10, "velocity": 70}, {"time": 42600, "pitch": 51, "duration": 100, "velocity": 100}, {"time": 42720, "pitch": 51, "duration": 10, "velocity": 80}, {"time": 42840, "pitch": 51, "duration": 110, "velocity": 100}, {"time": 42960, "pitch": 49, "duration": 180, "velocity": 90}, {"time": 43200, "pitch": 48, "duration": 100, "velocity": 100}, {"time": 43320, "pitch": 48, "duration": 10, "velocity": 80}, {"time": 43440, "pitch": 48, "duration": 10, "velocity": 70}, {"time": 43560, "pitch": 48, "duration": 100, "velocity": 100}, {"time": 43680, "pitch": 48, "duration": 10, "velocity": 80}, {"time": 43800, "pitch": 48, "duration": 110, "velocity": 100}, {"time": 43920, "pitch": 51, "duration": 180, "velocity": 90}, {"time": 44160, "pitch": 53, "duration": 100, "velocity": 100}, {"time": 44400, "pitch": 53, "duration": 100, "velocity": 100}, {"time": 44640, "pitch": 56, "duration": 220, "velocity": 100}, {"time": 44880, "pitch": 57, "duration": 220, "velocity": 100}, {"time": 45120, "pitch": 58, "duration": 100, "velocity": 100}, {"time": 45240, "pitch": 58, "duration": 10, "velocity": 80}, {"time": 45360, "pitch": 58, "duration": 10, "velocity": 70}, {"time": 45480, "pitch": 58, "duration": 100, "velocity": 100}, {"time": 45600, "pitch": 58, "duration": 10, "velocity": 80}, {"time": 45720, "pitch": 58, "duration": 110, "velocity": 100}, {"time": 45840, "pitch": 61, "duration": 180, "velocity": 90}, {"time": 46080, "pitch": 51, "duration": 100, "velocity": 100}, {"time": 46320, "pitch": 51, "duration": 100, "velocity": 100}, {"time": 46560, "pitch": 53, "duration": 100, "velocity": 100}, {"time": 46800, "pitch": 51, "duration": 100, "velocity": 100}, {"time": 62400, "pitch": 56, "duration": 100, "velocity": 100}, {"time": 62520, "pitch": 56, "duration": 10, "velocity": 80}, {"time": 62640, "pitch": 56, "duration": 10, "velocity": 70}, {"time": 62760, "pitch": 56, "duration": 100, "velocity": 100}, {"time": 62880, "pitch": 56, "duration": 10, "velocity": 80}, {"time": 63000, "pitch": 56, "duration": 110, "velocity": 100}, {"time": 63120, "pitch": 53, "duration": 180, "velocity": 90}, {"time": 63360, "pitch": 56, "duration": 100, "velocity": 100}, {"time": 63480, "pitch": 56, "duration": 10, "velocity": 80}, {"time": 63600, "pitch": 56, "duration": 10, "velocity": 70}, {"time": 63720, "pitch": 56, "duration": 100, "velocity": 100}, {"time": 63840, "pitch": 56, "duration": 10, "velocity": 80}, {"time": 63960, "pitch": 56, "duration": 110, "velocity": 100}, {"time": 64080, "pitch": 53, "duration": 180, "velocity": 90}, {"time": 64320, "pitch": 51, "duration": 100, "velocity": 100}, {"time": 64440, "pitch": 51, "duration": 10, "velocity": 80}, {"time": 64560, "pitch": 51, "duration": 10, "velocity": 70}, {"time": 64680, "pitch": 51, "duration": 100, "velocity": 100}, {"time": 64800, "pitch": 51, "duration": 10, "velocity": 80}, {"time": 64920, "pitch": 51, "duration": 110, "velocity": 100}, {"time": 65040, "pitch": 48, "duration": 180, "velocity": 90}, {"time": 65280, "pitch": 51, "duration": 100, "velocity": 100}, {"time": 65400, "pitch": 51, "duration": 10, "velocity": 80}, {"time": 65520, "pitch": 51, "duration": 10, "velocity": 70}, {"time": 65640, "pitch": 51, "duration": 100, "velocity": 100}, {"time": 65760, "pitch": 51, "duration": 10, "velocity": 80}, {"time": 65880, "pitch": 51, "duration": 110, "velocity": 100}, {"time": 66000, "pitch": 49, "duration": 180, "velocity": 90}, {"time": 66240, "pitch": 48, "duration": 100, "velocity": 100}, {"time": 66360, "pitch": 48, "duration": 10, "velocity": 80}, {"time": 66480, "pitch": 48, "duration": 10, "velocity": 70}, {"time": 66600, "pitch": 48, "duration": 100, "velocity": 100}, {"time": 66720, "pitch": 48, "duration": 10, "velocity": 80}, {"time": 66840, "pitch": 48, "duration": 110, "velocity": 100}, {"time": 66960, "pitch": 51, "duration": 180, "velocity": 90}, {"time": 67200, "pitch": 53, "duration": 100, "velocity": 100}, {"time": 67440, "pitch": 53, "duration": 100, "velocity": 100}, {"time": 67680, "pitch": 56, "duration": 220, "velocity": 100}, {"time": 67920, "pitch": 57, "duration": 220, "velocity": 100}, {"time": 68160, "pitch": 58, "duration": 100, "velocity": 100}, {"time": 68280, "pitch": 58, "duration": 10, "velocity": 80}, {"time": 68400, "pitch": 58, "duration": 10, "velocity": 70}, {"time": 68520, "pitch": 58, "duration": 100, "velocity": 100}, {"time": 68640, "pitch": 58, "duration": 10, "velocity": 80}, {"time": 68760, "pitch": 58, "duration": 110, "velocity": 100}, {"time": 68880, "pitch": 53, "duration": 180, "velocity": 90}, {"time": 69120, "pitch": 51, "duration": 100, "velocity": 100}, {"time": 69360, "pitch": 51, "duration": 100, "velocity": 100}, {"time": 69600, "pitch": 53, "duration": 100, "velocity": 100}, {"time": 69840, "pitch": 51, "duration": 100, "velocity": 100}, {"time": 70080, "pitch": 56, "duration": 100, "velocity": 100}, {"time": 70200, "pitch": 56, "duration": 10, "velocity": 80}, {"time": 70320, "pitch": 56, "duration": 10, "velocity": 70}, {"time": 70440, "pitch": 56, "duration": 100, "velocity": 100}, {"time": 70560, "pitch": 56, "duration": 10, "velocity": 80}, {"time": 70680, "pitch": 56, "duration": 110, "velocity": 100}, {"time": 70800, "pitch": 53, "duration": 180, "velocity": 90}, {"time": 71040, "pitch": 56, "duration": 100, "velocity": 100}, {"time": 71160, "pitch": 56, "duration": 10, "velocity": 80}, {"time": 71280, "pitch": 56, "duration": 10, "velocity": 70}, {"time": 71400, "pitch": 56, "duration": 100, "velocity": 100}, {"time": 71520, "pitch": 56, "duration": 10, "velocity": 80}, {"time": 71640, "pitch": 56, "duration": 110, "velocity": 100}, {"time": 71760, "pitch": 53, "duration": 180, "velocity": 90}, {"time": 72000, "pitch": 51, "duration": 100, "velocity": 100}, {"time": 72120, "pitch": 51, "duration": 10, "velocity": 80}, {"time": 72240, "pitch": 51, "duration": 10, "velocity": 70}, {"time": 72360, "pitch": 51, "duration": 100, "velocity": 100}, {"time": 72480, "pitch": 51, "duration": 10, "velocity": 80}, {"time": 72600, "pitch": 51, "duration": 110, "velocity": 100}, {"time": 72720, "pitch": 48, "duration": 180, "velocity": 90}, {"time": 72960, "pitch": 51, "duration": 100, "velocity": 100}, {"time": 73080, "pitch": 51, "duration": 10, "velocity": 80}, {"time": 73200, "pitch": 51, "duration": 10, "velocity": 70}, {"time": 73320, "pitch": 51, "duration": 100, "velocity": 100}, {"time": 73440, "pitch": 51, "duration": 10, "velocity": 80}, {"time": 73560, "pitch": 51, "duration": 110, "velocity": 100}, {"time": 73680, "pitch": 49, "duration": 180, "velocity": 90}, {"time": 73920, "pitch": 48, "duration": 100, "velocity": 100}, {"time": 74040, "pitch": 48, "duration": 10, "velocity": 80}, {"time": 74160, "pitch": 48, "duration": 10, "velocity": 70}, {"time": 74280, "pitch": 48, "duration": 100, "velocity": 100}, {"time": 74400, "pitch": 48, "duration": 10, "velocity": 80}, {"time": 74520, "pitch": 48, "duration": 110, "velocity": 100}, {"time": 74640, "pitch": 51, "duration": 180, "velocity": 90}, {"time": 74880, "pitch": 53, "duration": 100, "velocity": 100}, {"time": 75120, "pitch": 53, "duration": 100, "velocity": 100}, {"time": 75360, "pitch": 56, "duration": 220, "velocity": 100}, {"time": 75600, "pitch": 57, "duration": 220, "velocity": 100}, {"time": 75840, "pitch": 58, "duration": 100, "velocity": 100}, {"time": 75960, "pitch": 58, "duration": 10, "velocity": 80}, {"time": 76080, "pitch": 58, "duration": 10, "velocity": 70}, {"time": 76200, "pitch": 58, "duration": 100, "velocity": 100}, {"time": 76320, "pitch": 58, "duration": 10, "velocity": 80}, {"time": 76440, "pitch": 58, "duration": 110, "velocity": 100}, {"time": 76560, "pitch": 61, "duration": 180, "velocity": 90}, {"time": 76800, "pitch": 51, "duration": 100, "velocity": 100}, {"time": 77040, "pitch": 51, "duration": 100, "velocity": 100}, {"time": 77280, "pitch": 53, "duration": 100, "velocity": 100}, {"time": 77520, "pitch": 51, "duration": 100, "velocity": 100}, {"time": 116160, "pitch": 53, "duration": 100, "velocity": 100}, {"time": 116280, "pitch": 53, "duration": 10, "velocity": 80}, {"time": 116400, "pitch": 53, "duration": 10, "velocity": 70}, {"time": 116520, "pitch": 53, "duration": 100, "velocity": 100}, {"time": 116640, "pitch": 53, "duration": 10, "velocity": 80}, {"time": 116760, "pitch": 53, "duration": 110, "velocity": 100}, {"time": 116880, "pitch": 50, "duration": 180, "velocity": 90}, {"time": 117120, "pitch": 53, "duration": 100, "velocity": 100}, {"time": 117240, "pitch": 53, "duration": 10, "velocity": 80}, {"time": 117360, "pitch": 53, "duration": 10, "velocity": 70}, {"time": 117480, "pitch": 53, "duration": 100, "velocity": 100}, {"time": 117600, "pitch": 53, "duration": 10, "velocity": 80}, {"time": 117720, "pitch": 53, "duration": 110, "velocity": 100}, {"time": 117840, "pitch": 50, "duration": 180, "velocity": 90}, {"time": 118080, "pitch": 48, "duration": 100, "velocity": 100}, {"time": 118200, "pitch": 48, "duration": 10, "velocity": 80}, {"time": 118320, "pitch": 48, "duration": 10, "velocity": 70}, {"time": 118440, "pitch": 48, "duration": 100, "velocity": 100}, {"time": 118560, "pitch": 48, "duration": 10, "velocity": 80}, {"time": 118680, "pitch": 48, "duration": 110, "velocity": 100}, {"time": 118800, "pitch": 45, "duration": 180, "velocity": 90}, {"time": 119040, "pitch": 48, "duration": 100, "velocity": 100}, {"time": 119160, "pitch": 48, "duration": 10, "velocity": 80}, {"time": 119280, "pitch": 48, "duration": 10, "velocity": 70}, {"time": 119400, "pitch": 48, "duration": 100, "velocity": 100}, {"time": 119520, "pitch": 48, "duration": 10, "velocity": 80}, {"time": 119640, "pitch": 48, "duration": 110, "velocity": 100}, {"time": 119760, "pitch": 46, "duration": 180, "velocity": 90}, {"time": 120000, "pitch": 45, "duration": 100, "velocity": 100}, {"time": 120120, "pitch": 45, "duration": 10, "velocity": 80}, {"time": 120240, "pitch": 45, "duration": 10, "velocity": 70}, {"time": 120360, "pitch": 45, "duration": 100, "velocity": 100}, {"time": 120480, "pitch": 45, "duration": 10, "velocity": 80}, {"time": 120600, "pitch": 45, "duration": 110, "velocity": 100}, {"time": 120720, "pitch": 48, "duration": 180, "velocity": 90}, {"time": 120960, "pitch": 50, "duration": 100, "velocity": 100}, {"time": 121200, "pitch": 50, "duration": 100, "velocity": 100}, {"time": 121440, "pitch": 53, "duration": 220, "velocity": 100}, {"time": 121680, "pitch": 54, "duration": 220, "velocity": 100}, {"time": 121920, "pitch": 55, "duration": 100, "velocity": 100}, {"time": 122040, "pitch": 55, "duration": 10, "velocity": 80}, {"time": 122160, "pitch": 55, "duration": 10, "velocity": 70}, {"time": 122280, "pitch": 55, "duration": 100, "velocity": 100}, {"time": 122400, "pitch": 55, "duration": 10, "velocity": 80}, {"time": 122520, "pitch": 55, "duration": 110, "velocity": 100}, {"time": 122640, "pitch": 50, "duration": 180, "velocity": 90}, {"time": 122880, "pitch": 48, "duration": 100, "velocity": 100}, {"time": 123120, "pitch": 48, "duration": 100, "velocity": 100}, {"time": 123360, "pitch": 50, "duration": 100, "velocity": 100}, {"time": 123600, "pitch": 48, "duration": 100, "velocity": 100}, {"time": 123840, "pitch": 53, "duration": 100, "velocity": 100}, {"time": 123960, "pitch": 53, "duration": 10, "velocity": 80}, {"time": 124080, "pitch": 53, "duration": 10, "velocity": 70}, {"time": 124200, "pitch": 53, "duration": 100, "velocity": 100}, {"time": 124320, "pitch": 53, "duration": 10, "velocity": 80}, {"time": 124440, "pitch": 53, "duration": 110, "velocity": 100}, {"time": 124560, "pitch": 50, "duration": 180, "velocity": 90}, {"time": 124800, "pitch": 53, "duration": 100, "velocity": 100}, {"time": 124920, "pitch": 53, "duration": 10, "velocity": 80}, {"time": 125040, "pitch": 53, "duration": 10, "velocity": 70}, {"time": 125160, "pitch": 53, "duration": 100, "velocity": 100}, {"time": 125280, "pitch": 53, "duration": 10, "velocity": 80}, {"time": 125400, "pitch": 53, "duration": 110, "velocity": 100}, {"time": 125520, "pitch": 50, "duration": 180, "velocity": 90}, {"time": 125760, "pitch": 48, "duration": 100, "velocity": 100}, {"time": 125880, "pitch": 48, "duration": 10, "velocity": 80}, {"time": 126000, "pitch": 48, "duration": 10, "velocity": 70}, {"time": 126120, "pitch": 48, "duration": 100, "velocity": 100}, {"time": 126240, "pitch": 48, "duration": 10, "velocity": 80}, {"time": 126360, "pitch": 48, "duration": 110, "velocity": 100}, {"time": 126480, "pitch": 45, "duration": 180, "velocity": 90}, {"time": 126720, "pitch": 48, "duration": 100, "velocity": 100}, {"time": 126840, "pitch": 48, "duration": 10, "velocity": 80}, {"time": 126960, "pitch": 48, "duration": 10, "velocity": 70}, {"time": 127080, "pitch": 48, "duration": 100, "velocity": 100}, {"time": 127200, "pitch": 48, "duration": 10, "velocity": 80}, {"time": 127320, "pitch": 48, "duration": 110, "velocity": 100}, {"time": 127440, "pitch": 46, "duration": 180, "velocity": 90}, {"time": 127680, "pitch": 45, "duration": 100, "velocity": 100}, {"time": 127800, "pitch": 45, "duration": 10, "velocity": 80}, {"time": 127920, "pitch": 45, "duration": 10, "velocity": 70}, {"time": 128040, "pitch": 45, "duration": 100, "velocity": 100}, {"time": 128160, "pitch": 45, "duration": 10, "velocity": 80}, {"time": 128280, "pitch": 45, "duration": 110, "velocity": 100}, {"time": 128400, "pitch": 48, "duration": 180, "velocity": 90}, {"time": 128640, "pitch": 50, "duration": 100, "velocity": 100}, {"time": 128880, "pitch": 50, "duration": 100, "velocity": 100}, {"time": 129120, "pitch": 53, "duration": 220, "velocity": 100}, {"time": 129360, "pitch": 50, "duration": 220, "velocity": 100}, {"time": 129600, "pitch": 51, "duration": 100, "velocity": 100}, {"time": 129720, "pitch": 51, "duration": 10, "velocity": 80}, {"time": 129840, "pitch": 51, "duration": 10, "velocity": 70}, {"time": 129960, "pitch": 51, "duration": 100, "velocity": 100}, {"time": 130080, "pitch": 51, "duration": 10, "velocity": 80}, {"time": 130200, "pitch": 51, "duration": 110, "velocity": 100}, {"time": 130320, "pitch": 51, "duration": 180, "velocity": 90}, {"time": 130560, "pitch": 51, "duration": 100, "velocity": 100}, {"time": 130800, "pitch": 51, "duration": 100, "velocity": 100}, {"time": 131040, "pitch": 51, "duration": 100, "velocity": 100}, {"time": 131280, "pitch": 51, "duration": 100, "velocity": 100}, {"time": 131520, "pitch": 56, "duration": 100, "velocity": 100}, {"time": 131640, "pitch": 56, "duration": 10, "velocity": 80}, {"time": 131760, "pitch": 56, "duration": 10, "velocity": 70}, {"time": 131880, "pitch": 56, "duration": 100, "velocity": 100}, {"time": 132000, "pitch": 56, "duration": 10, "velocity": 80}, {"time": 132120, "pitch": 56, "duration": 110, "velocity": 100}, {"time": 132240, "pitch": 53, "duration": 180, "velocity": 90}, {"time": 132480, "pitch": 56, "duration": 100, "velocity": 100}, {"time": 132600, "pitch": 56, "duration": 10, "velocity": 80}, {"time": 132720, "pitch": 56, "duration": 10, "velocity": 70}, {"time": 132840, "pitch": 56, "duration": 100, "velocity": 100}, {"time": 132960, "pitch": 56, "duration": 10, "velocity": 80}, {"time": 133080, "pitch": 56, "duration": 110, "velocity": 100}, {"time": 133200, "pitch": 53, "duration": 180, "velocity": 90}, {"time": 133440, "pitch": 51, "duration": 100, "velocity": 100}, {"time": 133560, "pitch": 51, "duration": 10, "velocity": 80}, {"time": 133680, "pitch": 51, "duration": 10, "velocity": 70}, {"time": 133800, "pitch": 51, "duration": 100, "velocity": 100}, {"time": 133920, "pitch": 51, "duration": 10, "velocity": 80}, {"time": 134040, "pitch": 51, "duration": 110, "velocity": 100}, {"time": 134160, "pitch": 48, "duration": 180, "velocity": 90}, {"time": 134400, "pitch": 51, "duration": 100, "velocity": 100}, {"time": 134520, "pitch": 51, "duration": 10, "velocity": 80}, {"time": 134640, "pitch": 51, "duration": 10, "velocity": 70}, {"time": 134760, "pitch": 51, "duration": 100, "velocity": 100}, {"time": 134880, "pitch": 51, "duration": 10, "velocity": 80}, {"time": 135000, "pitch": 51, "duration": 110, "velocity": 100}, {"time": 135120, "pitch": 49, "duration": 180, "velocity": 90}, {"time": 135360, "pitch": 48, "duration": 100, "velocity": 100}, {"time": 135480, "pitch": 48, "duration": 10, "velocity": 80}, {"time": 135600, "pitch": 48, "duration": 10, "velocity": 70}, {"time": 135720, "pitch": 48, "duration": 100, "velocity": 100}, {"time": 135840, "pitch": 48, "duration": 10, "velocity": 80}, {"time": 135960, "pitch": 48, "duration": 110, "velocity": 100}, {"time": 136080, "pitch": 51, "duration": 180, "velocity": 90}, {"time": 136320, "pitch": 53, "duration": 100, "velocity": 100}, {"time": 136560, "pitch": 53, "duration": 100, "velocity": 100}, {"time": 136800, "pitch": 56, "duration": 220, "velocity": 100}, {"time": 137040, "pitch": 57, "duration": 220, "velocity": 100}, {"time": 137280, "pitch": 58, "duration": 100, "velocity": 100}, {"time": 137400, "pitch": 58, "duration": 10, "velocity": 80}, {"time": 137520, "pitch": 58, "duration": 10, "velocity": 70}, {"time": 137640, "pitch": 58, "duration": 100, "velocity": 100}, {"time": 137760, "pitch": 58, "duration": 10, "velocity": 80}, {"time": 137880, "pitch": 58, "duration": 110, "velocity": 100}, {"time": 138000, "pitch": 53, "duration": 180, "velocity": 90}, {"time": 138240, "pitch": 51, "duration": 100, "velocity": 100}, {"time": 138480, "pitch": 51, "duration": 100, "velocity": 100}, {"time": 138720, "pitch": 53, "duration": 100, "velocity": 100}, {"time": 138960, "pitch": 51, "duration": 100, "velocity": 100}, {"time": 139200, "pitch": 56, "duration": 100, "velocity": 100}, {"time": 139320, "pitch": 56, "duration": 10, "velocity": 80}, {"time": 139440, "pitch": 56, "duration": 10, "velocity": 70}, {"time": 139560, "pitch": 56, "duration": 100, "velocity": 100}, {"time": 139680, "pitch": 56, "duration": 10, "velocity": 80}, {"time": 139800, "pitch": 56, "duration": 110, "velocity": 100}, {"time": 139920, "pitch": 53, "duration": 180, "velocity": 90}, {"time": 140160, "pitch": 56, "duration": 100, "velocity": 100}, {"time": 140280, "pitch": 56, "duration": 10, "velocity": 80}, {"time": 140400, "pitch": 56, "duration": 10, "velocity": 70}, {"time": 140520, "pitch": 56, "duration": 100, "velocity": 100}, {"time": 140640, "pitch": 56, "duration": 10, "velocity": 80}, {"time": 140760, "pitch": 56, "duration": 110, "velocity": 100}, {"time": 140880, "pitch": 53, "duration": 180, "velocity": 90}, {"time": 141120, "pitch": 51, "duration": 100, "velocity": 100}, {"time": 141240, "pitch": 51, "duration": 10, "velocity": 80}, {"time": 141360, "pitch": 51, "duration": 10, "velocity": 70}, {"time": 141480, "pitch": 51, "duration": 100, "velocity": 100}, {"time": 141600, "pitch": 51, "duration": 10, "velocity": 80}, {"time": 141720, "pitch": 51, "duration": 110, "velocity": 100}, {"time": 141840, "pitch": 48, "duration": 180, "velocity": 90}, {"time": 142080, "pitch": 51, "duration": 100, "velocity": 100}, {"time": 142200, "pitch": 51, "duration": 10, "velocity": 80}, {"time": 142320, "pitch": 51, "duration": 10, "velocity": 70}, {"time": 142440, "pitch": 51, "duration": 100, "velocity": 100}, {"time": 142560, "pitch": 51, "duration": 10, "velocity": 80}, {"time": 142680, "pitch": 51, "duration": 110, "velocity": 100}, {"time": 142800, "pitch": 49, "duration": 180, "velocity": 90}, {"time": 143040, "pitch": 48, "duration": 100, "velocity": 100}, {"time": 143160, "pitch": 48, "duration": 10, "velocity": 80}, {"time": 143280, "pitch": 48, "duration": 10, "velocity": 70}, {"time": 143400, "pitch": 48, "duration": 100, "velocity": 100}, {"time": 143520, "pitch": 48, "duration": 10, "velocity": 80}, {"time": 143640, "pitch": 48, "duration": 110, "velocity": 100}, {"time": 143760, "pitch": 51, "duration": 180, "velocity": 90}, {"time": 144000, "pitch": 53, "duration": 100, "velocity": 100}, {"time": 144240, "pitch": 53, "duration": 100, "velocity": 100}, {"time": 144480, "pitch": 56, "duration": 220, "velocity": 100}, {"time": 144720, "pitch": 53, "duration": 220, "velocity": 100}, {"time": 144960, "pitch": 58, "duration": 100, "velocity": 100}, {"time": 145080, "pitch": 58, "duration": 10, "velocity": 80}, {"time": 145200, "pitch": 58, "duration": 10, "velocity": 70}, {"time": 145320, "pitch": 58, "duration": 100, "velocity": 100}, {"time": 145440, "pitch": 58, "duration": 10, "velocity": 80}, {"time": 145560, "pitch": 58, "duration": 110, "velocity": 100}, {"time": 145680, "pitch": 61, "duration": 180, "velocity": 90}, {"time": 145920, "pitch": 51, "duration": 100, "velocity": 100}, {"time": 146160, "pitch": 51, "duration": 100, "velocity": 100}, {"time": 146400, "pitch": 53, "duration": 220, "velocity": 100}, {"time": 146640, "pitch": 51, "duration": 100, "velocity": 100}, {"time": 288, "pitch": 38, "duration": 4, "velocity": 64}, {"time": 320, "pitch": 38, "duration": 4, "velocity": 50}, {"time": 352, "pitch": 38, "duration": 4, "velocity": 36}, {"time": 384, "pitch": 38, "duration": 4, "velocity": 78}, {"time": 432, "pitch": 38, "duration": 4, "velocity": 106}, {"time": 952, "pitch": 57, "duration": 10, "velocity": 92}, {"time": 952, "pitch": 68, "duration": 10, "velocity": 92}, {"time": 952, "pitch": 69, "duration": 10, "velocity": 64}, {"time": 952, "pitch": 70, "duration": 10, "velocity": 78}, {"time": 1074, "pitch": 70, "duration": 10, "velocity": 36}, {"time": 1094, "pitch": 69, "duration": 10, "velocity": 36}, {"time": 1196, "pitch": 56, "duration": 10, "velocity": 64}, {"time": 1196, "pitch": 67, "duration": 10, "velocity": 92}, {"time": 1196, "pitch": 69, "duration": 10, "velocity": 50}, {"time": 1196, "pitch": 70, "duration": 10, "velocity": 78}, {"time": 1318, "pitch": 70, "duration": 10, "velocity": 36}, {"time": 1338, "pitch": 56, "duration": 10, "velocity": 36}, {"time": 1338, "pitch": 69, "duration": 10, "velocity": 36}, {"time": 1440, "pitch": 39, "duration": 10, "velocity": 120}, {"time": 1440, "pitch": 56, "duration": 10, "velocity": 50}, {"time": 1440, "pitch": 67, "duration": 10, "velocity": 92}, {"time": 1440, "pitch": 69, "duration": 10, "velocity": 64}, {"time": 1440, "pitch": 70, "duration": 10, "velocity": 78}, {"time": 1560, "pitch": 70, "duration": 10, "velocity": 36}, {"time": 1580, "pitch": 56, "duration": 10, "velocity": 36}, {"time": 1580, "pitch": 68, "duration": 10, "velocity": 64}, {"time": 1580, "pitch": 69, "duration": 10, "velocity": 36}, {"time": 1680, "pitch": 56, "duration": 10, "velocity": 22}, {"time": 1680, "pitch": 69, "duration": 10, "velocity": 50}, {"time": 1680, "pitch": 70, "duration": 10, "velocity": 78}, {"time": 1800, "pitch": 70, "duration": 10, "velocity": 36}, {"time": 1820, "pitch": 56, "duration": 10, "velocity": 22}, {"time": 1820, "pitch": 68, "duration": 10, "velocity": 92}, {"time": 1820, "pitch": 69, "duration": 10, "velocity": 36}, {"time": 1920, "pitch": 56, "duration": 10, "velocity": 64}, {"time": 1920, "pitch": 69, "duration": 10, "velocity": 64}, {"time": 1920, "pitch": 70, "duration": 10, "velocity": 78}, {"time": 2040, "pitch": 70, "duration": 10, "velocity": 36}, {"time": 2060, "pitch": 56, "duration": 10, "velocity": 22}, {"time": 2060, "pitch": 67, "duration": 10, "velocity": 92}, {"time": 2060, "pitch": 69, "duration": 10, "velocity": 36}, {"time": 2160, "pitch": 56, "duration": 10, "velocity": 22}, {"time": 2160, "pitch": 69, "duration": 10, "velocity": 50}, {"time": 2160, "pitch": 70, "duration": 10, "velocity": 78}, {"time": 2280, "pitch": 70, "duration": 10, "velocity": 36}, {"time": 2300, "pitch": 56, "duration": 10, "velocity": 64}, {"time": 2300, "pitch": 67, "duration": 10, "velocity": 64}, {"time": 2300, "pitch": 69, "duration": 10, "velocity": 36}, {"time": 2400, "pitch": 39, "duration": 10, "velocity": 120}, {"time": 2400, "pitch": 56, "duration": 10, "velocity": 22}, {"time": 2400, "pitch": 67, "duration": 10, "velocity": 92}, {"time": 2400, "pitch": 69, "duration": 10, "velocity": 64}, {"time": 2400, "pitch": 70, "duration": 10, "velocity": 78}, {"time": 2520, "pitch": 70, "duration": 10, "velocity": 36}, {"time": 2540, "pitch": 56, "duration": 10, "velocity": 22}, {"time": 2540, "pitch": 69, "duration": 10, "velocity": 36}, {"time": 2640, "pitch": 56, "duration": 10, "velocity": 36}, {"time": 2640, "pitch": 68, "duration": 10, "velocity": 78}, {"time": 2640, "pitch": 69, "duration": 10, "velocity": 50}, {"time": 2640, "pitch": 70, "duration": 10, "velocity": 78}, {"time": 2760, "pitch": 70, "duration": 10, "velocity": 36}, {"time": 2780, "pitch": 56, "duration": 10, "velocity": 22}, {"time": 2780, "pitch": 68, "duration": 10, "velocity": 92}, {"time": 2780, "pitch": 69, "duration": 10, "velocity": 36}, {"time": 2880, "pitch": 57, "duration": 10, "velocity": 92}, {"time": 2880, "pitch": 68, "duration": 10, "velocity": 92}, {"time": 2880, "pitch": 69, "duration": 10, "velocity": 64}, {"time": 2880, "pitch": 70, "duration": 10, "velocity": 78}, {"time": 3000, "pitch": 70, "duration": 10, "velocity": 36}, {"time": 3020, "pitch": 69, "duration": 10, "velocity": 36}, {"time": 3120, "pitch": 56, "duration": 10, "velocity": 64}, {"time": 3120, "pitch": 67, "duration": 10, "velocity": 92}, {"time": 3120, "pitch": 69, "duration": 10, "velocity": 50}, {"time": 3120, "pitch": 70, "duration": 10, "velocity": 78}, {"time": 3240, "pitch": 70, "duration": 10, "velocity": 36}, {"time": 3260, "pitch": 56, "duration": 10, "velocity": 36}, {"time": 3260, "pitch": 69, "duration": 10, "velocity": 36}, {"time": 3360, "pitch": 39, "duration": 10, "velocity": 120}, {"time": 3360, "pitch": 56, "duration": 10, "velocity": 50}, {"time": 3360, "pitch": 67, "duration": 10, "velocity": 92}, {"time": 3360, "pitch": 69, "duration": 10, "velocity": 64}, {"time": 3360, "pitch": 70, "duration": 10, "velocity": 78}, {"time": 3480, "pitch": 70, "duration": 10, "velocity": 36}, {"time": 3500, "pitch": 56, "duration": 10, "velocity": 36}, {"time": 3500, "pitch": 68, "duration": 10, "velocity": 64}, {"time": 3500, "pitch": 69, "duration": 10, "velocity": 36}, {"time": 3600, "pitch": 56, "duration": 10, "velocity": 22}, {"time": 3600, "pitch": 69, "duration": 10, "velocity": 50}, {"time": 3600, "pitch": 70, "duration": 10, "velocity": 78}, {"time": 3720, "pitch": 70, "duration": 10, "velocity": 36}, {"time": 3740, "pitch": 56, "duration": 10, "velocity": 22}, {"time": 3740, "pitch": 68, "duration": 10, "velocity": 92}, {"time": 3740, "pitch": 69, "duration": 10, "velocity": 36}, {"time": 3840, "pitch": 56, "duration": 10, "velocity": 64}, {"time": 3840, "pitch": 69, "duration": 10, "velocity": 64}, {"time": 3840, "pitch": 70, "duration": 10, "velocity": 78}, {"time": 3960, "pitch": 70, "duration": 10, "velocity": 36}, {"time": 3980, "pitch": 56, "duration": 10, "velocity": 22}, {"time": 3980, "pitch": 67, "duration": 10, "velocity": 92}, {"time": 3980, "pitch": 69, "duration": 10, "velocity": 36}, {"time": 4080, "pitch": 56, "duration": 10, "velocity": 22}, {"time": 4080, "pitch": 69, "duration": 10, "velocity": 50}, {"time": 4080, "pitch": 70, "duration": 10, "velocity": 78}, {"time": 4200, "pitch": 70, "duration": 10, "velocity": 36}, {"time": 4220, "pitch": 56, "duration": 10, "velocity": 64}, {"time": 4220, "pitch": 67, "duration": 10, "velocity": 64}, {"time": 4220, "pitch": 69, "duration": 10, "velocity": 36}, {"time": 4320, "pitch": 39, "duration": 10, "velocity": 120}, {"time": 4320, "pitch": 56, "duration": 10, "velocity": 22}, {"time": 4320, "pitch": 67, "duration": 10, "velocity": 92}, {"time": 4320, "pitch": 69, "duration": 10, "velocity": 64}, {"time": 4320, "pitch": 70, "duration": 10, "velocity": 78}, {"time": 4440, "pitch": 70, "duration": 10, "velocity": 36}, {"time": 4460, "pitch": 56, "duration": 10, "velocity": 22}, {"time": 4460, "pitch": 69, "duration": 10, "velocity": 36}, {"time": 4560, "pitch": 56, "duration": 10, "velocity": 36}, {"time": 4560, "pitch": 68, "duration": 10, "velocity": 78}, {"time": 4560, "pitch": 69, "duration": 10, "velocity": 50}, {"time": 4560, "pitch": 70, "duration": 10, "velocity": 78}, {"time": 4680, "pitch": 70, "duration": 10, "velocity": 36}, {"time": 4700, "pitch": 56, "duration": 10, "velocity": 22}, {"time": 4700, "pitch": 68, "duration": 10, "velocity": 92}, {"time": 4700, "pitch": 69, "duration": 10, "velocity": 36}, {"time": 4800, "pitch": 49, "duration": 10, "velocity": 92}, {"time": 4800, "pitch": 68, "duration": 10, "velocity": 92}, {"time": 4800, "pitch": 69, "duration": 10, "velocity": 64}, {"time": 4800, "pitch": 70, "duration": 10, "velocity": 78}, {"time": 4920, "pitch": 70, "duration": 10, "velocity": 36}, {"time": 4940, "pitch": 69, "duration": 10, "velocity": 36}, {"time": 5040, "pitch": 56, "duration": 10, "velocity": 64}, {"time": 5040, "pitch": 67, "duration": 10, "velocity": 92}, {"time": 5040, "pitch": 69, "duration": 10, "velocity": 50}, {"time": 5040, "pitch": 70, "duration": 10, "velocity": 78}, {"time": 5160, "pitch": 70, "duration": 10, "velocity": 36}, {"time": 5180, "pitch": 56, "duration": 10, "velocity": 36}, {"time": 5180, "pitch": 69, "duration": 10, "velocity": 36}, {"time": 5280, "pitch": 39, "duration": 10, "velocity": 120}, {"time": 5280, "pitch": 56, "duration": 10, "velocity": 50}, {"time": 5280, "pitch": 67, "duration": 10, "velocity": 92}, {"time": 5280, "pitch": 69, "duration": 10, "velocity": 64}, {"time": 5280, "pitch": 70, "duration": 10, "velocity": 78}, {"time": 5400, "pitch": 70, "duration": 10, "velocity": 36}, {"time": 5420, "pitch": 56, "duration": 10, "velocity": 36}, {"time": 5420, "pitch": 68, "duration": 10, "velocity": 64}, {"time": 5420, "pitch": 69, "duration": 10, "velocity": 36}, {"time": 5520, "pitch": 56, "duration": 10, "velocity": 22}, {"time": 5520, "pitch": 69, "duration": 10, "velocity": 50}, {"time": 5520, "pitch": 70, "duration": 10, "velocity": 78}, {"time": 5640, "pitch": 70, "duration": 10, "velocity": 36}, {"time": 5660, "pitch": 56, "duration": 10, "velocity": 22}, {"time": 5660, "pitch": 68, "duration": 10, "velocity": 92}, {"time": 5660, "pitch": 69, "duration": 10, "velocity": 36}, {"time": 5760, "pitch": 56, "duration": 10, "velocity": 64}, {"time": 5760, "pitch": 57, "duration": 10, "velocity": 92}, {"time": 5760, "pitch": 69, "duration": 10, "velocity": 64}, {"time": 5760, "pitch": 70, "duration": 10, "velocity": 78}, {"time": 5880, "pitch": 70, "duration": 10, "velocity": 36}, {"time": 5900, "pitch": 56, "duration": 10, "velocity": 22}, {"time": 5900, "pitch": 67, "duration": 10, "velocity": 92}, {"time": 5900, "pitch": 69, "duration": 10, "velocity": 36}, {"time": 6000, "pitch": 56, "duration": 10, "velocity": 22}, {"time": 6000, "pitch": 69, "duration": 10, "velocity": 50}, {"time": 6000, "pitch": 70, "duration": 10, "velocity": 78}, {"time": 6120, "pitch": 70, "duration": 10, "velocity": 36}, {"time": 6140, "pitch": 56, "duration": 10, "velocity": 64}, {"time": 6140, "pitch": 67, "duration": 10, "velocity": 64}, {"time": 6140, "pitch": 69, "duration": 10, "velocity": 36}, {"time": 6240, "pitch": 39, "duration": 10, "velocity": 120}, {"time": 6240, "pitch": 56, "duration": 10, "velocity": 22}, {"time": 6240, "pitch": 67, "duration": 10, "velocity": 92}, {"time": 6240, "pitch": 69, "duration": 10, "velocity": 64}, {"time": 6240, "pitch": 70, "duration": 10, "velocity": 78}, {"time": 6360, "pitch": 70, "duration": 10, "velocity": 36}, {"time": 6380, "pitch": 56, "duration": 10, "velocity": 22}, {"time": 6380, "pitch": 69, "duration": 10, "velocity": 36}, {"time": 6480, "pitch": 56, "duration": 10, "velocity": 36}, {"time": 6480, "pitch": 68, "duration": 10, "velocity": 78}, {"time": 6480, "pitch": 69, "duration": 10, "velocity": 50}, {"time": 6480, "pitch": 70, "duration": 10, "velocity": 78}, {"time": 6600, "pitch": 70, "duration": 10, "velocity": 36}, {"time": 6620, "pitch": 56, "duration": 10, "velocity": 22}, {"time": 6620, "pitch": 68, "duration": 10, "velocity": 92}, {"time": 6620, "pitch": 69, "duration": 10, "velocity": 36}, {"time": 6720, "pitch": 57, "duration": 10, "velocity": 92}, {"time": 6720, "pitch": 68, "duration": 10, "velocity": 92}, {"time": 6720, "pitch": 69, "duration": 10, "velocity": 64}, {"time": 6720, "pitch": 70, "duration": 10, "velocity": 78}, {"time": 6860, "pitch": 38, "duration": 10, "velocity": 36}, {"time": 6860, "pitch": 40, "duration": 10, "velocity": 64}, {"time": 6860, "pitch": 69, "duration": 10, "velocity": 36}, {"time": 6860, "pitch": 70, "duration": 10, "velocity": 36}, {"time": 6860, "pitch": 78, "duration": 10, "velocity": 50}, {"time": 6960, "pitch": 49, "duration": 10, "velocity": 92}, {"time": 6960, "pitch": 56, "duration": 10, "velocity": 64}, {"time": 6960, "pitch": 67, "duration": 10, "velocity": 92}, {"time": 6960, "pitch": 69, "duration": 10, "velocity": 50}, {"time": 6960, "pitch": 70, "duration": 10, "velocity": 78}, {"time": 7100, "pitch": 38, "duration": 10, "velocity": 50}, {"time": 7100, "pitch": 40, "duration": 10, "velocity": 78}, {"time": 7100, "pitch": 56, "duration": 10, "velocity": 36}, {"time": 7100, "pitch": 69, "duration": 10, "velocity": 36}, {"time": 7100, "pitch": 70, "duration": 10, "velocity": 36}, {"time": 7100, "pitch": 78, "duration": 10, "velocity": 50}, {"time": 7200, "pitch": 39, "duration": 10, "velocity": 120}, {"time": 7200, "pitch": 56, "duration": 10, "velocity": 50}, {"time": 7200, "pitch": 67, "duration": 10, "velocity": 92}, {"time": 7200, "pitch": 69, "duration": 10, "velocity": 64}, {"time": 7200, "pitch": 70, "duration": 10, "velocity": 78}, {"time": 7340, "pitch": 38, "duration": 10, "velocity": 64}, {"time": 7340, "pitch": 40, "duration": 10, "velocity": 78}, {"time": 7340, "pitch": 56, "duration": 10, "velocity": 36}, {"time": 7340, "pitch": 68, "duration": 10, "velocity": 64}, {"time": 7340, "pitch": 69, "duration": 10, "velocity": 36}, {"time": 7340, "pitch": 70, "duration": 10, "velocity": 36}, {"time": 7340, "pitch": 78, "duration": 10, "velocity": 50}, {"time": 7440, "pitch": 56, "duration": 10, "velocity": 22}, {"time": 7440, "pitch": 57, "duration": 10, "velocity": 92}, {"time": 7440, "pitch": 69, "duration": 10, "velocity": 50}, {"time": 7440, "pitch": 70, "duration": 10, "velocity": 78}, {"time": 7580, "pitch": 38, "duration": 10, "velocity": 64}, {"time": 7580, "pitch": 40, "duration": 10, "velocity": 64}, {"time": 7580, "pitch": 56, "duration": 10, "velocity": 22}, {"time": 7580, "pitch": 68, "duration": 10, "velocity": 92}, {"time": 7580, "pitch": 69, "duration": 10, "velocity": 36}, {"time": 7580, "pitch": 70, "duration": 10, "velocity": 36}, {"time": 7580, "pitch": 78, "duration": 10, "velocity": 50}, {"time": 7680, "pitch": 38, "duration": 10, "velocity": 78}, {"time": 7680, "pitch": 40, "duration": 10, "velocity": 78}, {"time": 7680, "pitch": 56, "duration": 10, "velocity": 64}, {"time": 7680, "pitch": 69, "duration": 10, "velocity": 64}, {"time": 7680, "pitch": 70, "duration": 10, "velocity": 78}, {"time": 7680, "pitch": 78, "duration": 10, "velocity": 50}, {"time": 7820, "pitch": 38, "duration": 10, "velocity": 78}, {"time": 7820, "pitch": 40, "duration": 10, "velocity": 92}, {"time": 7820, "pitch": 56, "duration": 10, "velocity": 22}, {"time": 7820, "pitch": 67, "duration": 10, "velocity": 92}, {"time": 7820, "pitch": 69, "duration": 10, "velocity": 36}, {"time": 7820, "pitch": 70, "duration": 10, "velocity": 36}, {"time": 7820, "pitch": 78, "duration": 10, "velocity": 50}, {"time": 7920, "pitch": 56, "duration": 10, "velocity": 22}, {"time": 7920, "pitch": 69, "duration": 10, "velocity": 50}, {"time": 7920, "pitch": 70, "duration": 10, "velocity": 78}, {"time": 8050, "pitch": 38, "duration": 10, "velocity": 78}, {"time": 8050, "pitch": 40, "duration": 10, "velocity": 92}, {"time": 8050, "pitch": 70, "duration": 10, "velocity": 36}, {"time": 8060, "pitch": 56, "duration": 10, "velocity": 64}, {"time": 8060, "pitch": 67, "duration": 10, "velocity": 64}, {"time": 8060, "pitch": 69, "duration": 10, "velocity": 36}, {"time": 8060, "pitch": 78, "duration": 10, "velocity": 50}, {"time": 8160, "pitch": 38, "duration": 10, "velocity": 78}, {"time": 8160, "pitch": 39, "duration": 10, "velocity": 120}, {"time": 8160, "pitch": 40, "duration": 10, "velocity": 92}, {"time": 8160, "pitch": 56, "duration": 10, "velocity": 22}, {"time": 8160, "pitch": 67, "duration": 10, "velocity": 92}, {"time": 8160, "pitch": 69, "duration": 10, "velocity": 64}, {"time": 8160, "pitch": 70, "duration": 10, "velocity": 78}, {"time": 8160, "pitch": 78, "duration": 10, "velocity": 50}, {"time": 8300, "pitch": 56, "duration": 10, "velocity": 22}, {"time": 8300, "pitch": 69, "duration": 10, "velocity": 36}, {"time": 8300, "pitch": 70, "duration": 10, "velocity": 36}, {"time": 8400, "pitch": 56, "duration": 10, "velocity": 36}, {"time": 8400, "pitch": 68, "duration": 10, "velocity": 78}, {"time": 8400, "pitch": 69, "duration": 10, "velocity": 22}, {"time": 8400, "pitch": 70, "duration": 10, "velocity": 78}, {"time": 8430, "pitch": 69, "duration": 10, "velocity": 36}, {"time": 8460, "pitch": 69, "duration": 10, "velocity": 36}, {"time": 8490, "pitch": 69, "duration": 10, "velocity": 50}, {"time": 8520, "pitch": 56, "duration": 10, "velocity": 22}, {"time": 8520, "pitch": 68, "duration": 10, "velocity": 92}, {"time": 8520, "pitch": 69, "duration": 10, "velocity": 50}, {"time": 8540, "pitch": 70, "duration": 10, "velocity": 36}, {"time": 8550, "pitch": 69, "duration": 10, "velocity": 64}, {"time": 8580, "pitch": 69, "duration": 10, "velocity": 64}, {"time": 8610, "pitch": 69, "duration": 10, "velocity": 64}, {"time": 8640, "pitch": 42, "duration": 10, "velocity": 64}, {"time": 8640, "pitch": 49, "duration": 10, "velocity": 92}, {"time": 8640, "pitch": 68, "duration": 10, "velocity": 92}, {"time": 8640, "pitch": 69, "duration": 10, "velocity": 64}, {"time": 8640, "pitch": 70, "duration": 10, "velocity": 78}, {"time": 8760, "pitch": 70, "duration": 10, "velocity": 36}, {"time": 8780, "pitch": 69, "duration": 10, "velocity": 36}, {"time": 8880, "pitch": 28, "duration": 10, "velocity": 64}, {"time": 8880, "pitch": 37, "duration": 10, "velocity": 106}, {"time": 8880, "pitch": 42, "duration": 10, "velocity": 92}, {"time": 8880, "pitch": 56, "duration": 10, "velocity": 64}, {"time": 8880, "pitch": 67, "duration": 10, "velocity": 92}, {"time": 8880, "pitch": 69, "duration": 10, "velocity": 50}, {"time": 8880, "pitch": 70, "duration": 10, "velocity": 78}, {"time": 9000, "pitch": 70, "duration": 10, "velocity": 36}, {"time": 9020, "pitch": 56, "duration": 10, "velocity": 36}, {"time": 9020, "pitch": 69, "duration": 10, "velocity": 36}, {"time": 9120, "pitch": 28, "duration": 10, "velocity": 64}, {"time": 9120, "pitch": 37, "duration": 10, "velocity": 106}, {"time": 9120, "pitch": 39, "duration": 10, "velocity": 120}, {"time": 9120, "pitch": 40, "duration": 10, "velocity": 106}, {"time": 9120, "pitch": 42, "duration": 10, "velocity": 92}, {"time": 9120, "pitch": 56, "duration": 10, "velocity": 50}, {"time": 9120, "pitch": 67, "duration": 10, "velocity": 92}, {"time": 9120, "pitch": 69, "duration": 10, "velocity": 64}, {"time": 9120, "pitch": 70, "duration": 10, "velocity": 78}, {"time": 9240, "pitch": 70, "duration": 10, "velocity": 36}, {"time": 9260, "pitch": 56, "duration": 10, "velocity": 36}, {"time": 9260, "pitch": 68, "duration": 10, "velocity": 64}, {"time": 9260, "pitch": 69, "duration": 10, "velocity": 36}, {"time": 9360, "pitch": 42, "duration": 10, "velocity": 64}, {"time": 9360, "pitch": 56, "duration": 10, "velocity": 22}, {"time": 9360, "pitch": 69, "duration": 10, "velocity": 50}, {"time": 9360, "pitch": 70, "duration": 10, "velocity": 78}, {"time": 9480, "pitch": 70, "duration": 10, "velocity": 36}, {"time": 9500, "pitch": 56, "duration": 10, "velocity": 22}, {"time": 9500, "pitch": 68, "duration": 10, "velocity": 92}, {"time": 9500, "pitch": 69, "duration": 10, "velocity": 36}, {"time": 9600, "pitch": 28, "duration": 10, "velocity": 64}, {"time": 9600, "pitch": 37, "duration": 10, "velocity": 106}, {"time": 9600, "pitch": 42, "duration": 10, "velocity": 92}, {"time": 9600, "pitch": 56, "duration": 10, "velocity": 64}, {"time": 9600, "pitch": 69, "duration": 10, "velocity": 64}, {"time": 9600, "pitch": 70, "duration": 10, "velocity": 78}, {"time": 9720, "pitch": 70, "duration": 10, "velocity": 36}, {"time": 9740, "pitch": 56, "duration": 10, "velocity": 22}, {"time": 9740, "pitch": 67, "duration": 10, "velocity": 92}, {"time": 9740, "pitch": 69, "duration": 10, "velocity": 36}, {"time": 9840, "pitch": 42, "duration": 10, "velocity": 64}, {"time": 9840, "pitch": 56, "duration": 10, "velocity": 22}, {"time": 9840, "pitch": 69, "duration": 10, "velocity": 50}, {"time": 9840, "pitch": 70, "duration": 10, "velocity": 78}, {"time": 9960, "pitch": 28, "duration": 10, "velocity": 64}, {"time": 9960, "pitch": 37, "duration": 10, "velocity": 106}, {"time": 9960, "pitch": 70, "duration": 10, "velocity": 36}, {"time": 9980, "pitch": 56, "duration": 10, "velocity": 64}, {"time": 9980, "pitch": 67, "duration": 10, "velocity": 64}, {"time": 9980, "pitch": 69, "duration": 10, "velocity": 36}, {"time": 10080, "pitch": 39, "duration": 10, "velocity": 120}, {"time": 10080, "pitch": 40, "duration": 10, "velocity": 106}, {"time": 10080, "pitch": 42, "duration": 10, "velocity": 92}, {"time": 10080, "pitch": 56, "duration": 10, "velocity": 22}, {"time": 10080, "pitch": 67, "duration": 10, "velocity": 92}, {"time": 10080, "pitch": 69, "duration": 10, "velocity": 64}, {"time": 10080, "pitch": 70, "duration": 10, "velocity": 78}, {"time": 10200, "pitch": 70, "duration": 10, "velocity": 36}, {"time": 10220, "pitch": 56, "duration": 10, "velocity": 22}, {"time": 10220, "pitch": 69, "duration": 10, "velocity": 36}, {"time": 10320, "pitch": 28, "duration": 10, "velocity": 64}, {"time": 10320, "pitch": 37, "duration": 10, "velocity": 106}, {"time": 10320, "pitch": 42, "duration": 10, "velocity": 64}, {"time": 10320, "pitch": 56, "duration": 10, "velocity": 36}, {"time": 10320, "pitch": 68, "duration": 10, "velocity": 78}, {"time": 10320, "pitch": 69, "duration": 10, "velocity": 50}, {"time": 10320, "pitch": 70, "duration": 10, "velocity": 78}, {"time": 10440, "pitch": 70, "duration": 10, "velocity": 36}, {"time": 10460, "pitch": 56, "duration": 10, "velocity": 22}, {"time": 10460, "pitch": 68, "duration": 10, "velocity": 92}, {"time": 10460, "pitch": 69, "duration": 10, "velocity": 36}, {"time": 10560, "pitch": 42, "duration": 10, "velocity": 64}, {"time": 10560, "pitch": 68, "duration": 10, "velocity": 92}, {"time": 10560, "pitch": 69, "duration": 10, "velocity": 64}, {"time": 10560, "pitch": 70, "duration": 10, "velocity": 78}, {"time": 10680, "pitch": 70, "duration": 10, "velocity": 36}, {"time": 10700, "pitch": 69, "duration": 10, "velocity": 36}, {"time": 10800, "pitch": 28, "duration": 10, "velocity": 64}, {"time": 10800, "pitch": 37, "duration": 10, "velocity": 106}, {"time": 10800, "pitch": 42, "duration": 10, "velocity": 92}, {"time": 10800, "pitch": 56, "duration": 10, "velocity": 64}, {"time": 10800, "pitch": 67, "duration": 10, "velocity": 92}, {"time": 10800, "pitch": 69, "duration": 10, "velocity": 50}, {"time": 10800, "pitch": 70, "duration": 10, "velocity": 78}, {"time": 10920, "pitch": 70, "duration": 10, "velocity": 36}, {"time": 10940, "pitch": 56, "duration": 10, "velocity": 36}, {"time": 10940, "pitch": 69, "duration": 10, "velocity": 36}, {"time": 11040, "pitch": 39, "duration": 10, "velocity": 120}, {"time": 11040, "pitch": 40, "duration": 10, "velocity": 106}, {"time": 11040, "pitch": 42, "duration": 10, "velocity": 92}, {"time": 11040, "pitch": 56, "duration": 10, "velocity": 50}, {"time": 11040, "pitch": 67, "duration": 10, "velocity": 92}, {"time": 11040, "pitch": 69, "duration": 10, "velocity": 64}, {"time": 11040, "pitch": 70, "duration": 10, "velocity": 78}, {"time": 11160, "pitch": 28, "duration": 10, "velocity": 64}, {"time": 11160, "pitch": 37, "duration": 10, "velocity": 106}, {"time": 11160, "pitch": 70, "duration": 10, "velocity": 36}, {"time": 11180, "pitch": 56, "duration": 10, "velocity": 36}, {"time": 11180, "pitch": 68, "duration": 10, "velocity": 64}, {"time": 11180, "pitch": 69, "duration": 10, "velocity": 36}, {"time": 11280, "pitch": 42, "duration": 10, "velocity": 64}, {"time": 11280, "pitch": 56, "duration": 10, "velocity": 22}, {"time": 11280, "pitch": 69, "duration": 10, "velocity": 50}, {"time": 11280, "pitch": 70, "duration": 10, "velocity": 78}, {"time": 11400, "pitch": 70, "duration": 10, "velocity": 36}, {"time": 11420, "pitch": 56, "duration": 10, "velocity": 22}, {"time": 11420, "pitch": 68, "duration": 10, "velocity": 92}, {"time": 11420, "pitch": 69, "duration": 10, "velocity": 36}, {"time": 11520, "pitch": 28, "duration": 10, "velocity": 64}, {"time": 11520, "pitch": 37, "duration": 10, "velocity": 106}, {"time": 11520, "pitch": 42, "duration": 10, "velocity": 92}, {"time": 11520, "pitch": 56, "duration": 10, "velocity": 64}, {"time": 11520, "pitch": 69, "duration": 10, "velocity": 64}, {"time": 11520, "pitch": 70, "duration": 10, "velocity": 78}, {"time": 11640, "pitch": 70, "duration": 10, "velocity": 36}, {"time": 11660, "pitch": 56, "duration": 10, "velocity": 22}, {"time": 11660, "pitch": 67, "duration": 10, "velocity": 92}, {"time": 11660, "pitch": 69, "duration": 10, "velocity": 36}, {"time": 11760, "pitch": 42, "duration": 10, "velocity": 64}, {"time": 11760, "pitch": 56, "duration": 10, "velocity": 22}, {"time": 11760, "pitch": 69, "duration": 10, "velocity": 50}, {"time": 11760, "pitch": 70, "duration": 10, "velocity": 78}, {"time": 11880, "pitch": 28, "duration": 10, "velocity": 64}, {"time": 11880, "pitch": 37, "duration": 10, "velocity": 106}, {"time": 11880, "pitch": 70, "duration": 10, "velocity": 36}, {"time": 11900, "pitch": 56, "duration": 10, "velocity": 64}, {"time": 11900, "pitch": 67, "duration": 10, "velocity": 64}, {"time": 11900, "pitch": 69, "duration": 10, "velocity": 36}, {"time": 12000, "pitch": 39, "duration": 10, "velocity": 120}, {"time": 12000, "pitch": 40, "duration": 10, "velocity": 106}, {"time": 12000, "pitch": 42, "duration": 10, "velocity": 92}, {"time": 12000, "pitch": 56, "duration": 10, "velocity": 22}, {"time": 12000, "pitch": 67, "duration": 10, "velocity": 92}, {"time": 12000, "pitch": 69, "duration": 10, "velocity": 64}, {"time": 12000, "pitch": 70, "duration": 10, "velocity": 78}, {"time": 12120, "pitch": 70, "duration": 10, "velocity": 36}, {"time": 12140, "pitch": 56, "duration": 10, "velocity": 22}, {"time": 12140, "pitch": 69, "duration": 10, "velocity": 36}, {"time": 12240, "pitch": 28, "duration": 10, "velocity": 64}, {"time": 12240, "pitch": 37, "duration": 10, "velocity": 106}, {"time": 12240, "pitch": 42, "duration": 10, "velocity": 64}, {"time": 12240, "pitch": 56, "duration": 10, "velocity": 36}, {"time": 12240, "pitch": 68, "duration": 10, "velocity": 78}, {"time": 12240, "pitch": 69, "duration": 10, "velocity": 22}, {"time": 12240, "pitch": 70, "duration": 10, "velocity": 78}, {"time": 12270, "pitch": 69, "duration": 10, "velocity": 36}, {"time": 12300, "pitch": 69, "duration": 10, "velocity": 36}, {"time": 12330, "pitch": 69, "duration": 10, "velocity": 50}, {"time": 12360, "pitch": 56, "duration": 10, "velocity": 22}, {"time": 12360, "pitch": 68, "duration": 10, "velocity": 92}, {"time": 12360, "pitch": 69, "duration": 10, "velocity": 50}, {"time": 12360, "pitch": 70, "duration": 10, "velocity": 36}, {"time": 12390, "pitch": 69, "duration": 10, "velocity": 64}, {"time": 12420, "pitch": 69, "duration": 10, "velocity": 64}, {"time": 12450, "pitch": 69, "duration": 10, "velocity": 64}, {"time": 12480, "pitch": 42, "duration": 10, "velocity": 64}, {"time": 12480, "pitch": 68, "duration": 10, "velocity": 92}, {"time": 12480, "pitch": 69, "duration": 10, "velocity": 64}, {"time": 12480, "pitch": 70, "duration": 10, "velocity": 78}, {"time": 12600, "pitch": 70, "duration": 10, "velocity": 36}, {"time": 12620, "pitch": 69, "duration": 10, "velocity": 36}, {"time": 12720, "pitch": 28, "duration": 10, "velocity": 64}, {"time": 12720, "pitch": 37, "duration": 10, "velocity": 106}, {"time": 12720, "pitch": 42, "duration": 10, "velocity": 92}, {"time": 12720, "pitch": 56, "duration": 10, "velocity": 64}, {"time": 12720, "pitch": 67, "duration": 10, "velocity": 92}, {"time": 12720, "pitch": 69, "duration": 10, "velocity": 50}, {"time": 12720, "pitch": 70, "duration": 10, "velocity": 78}, {"time": 12840, "pitch": 70, "duration": 10, "velocity": 36}, {"time": 12860, "pitch": 56, "duration": 10, "velocity": 36}, {"time": 12860, "pitch": 69, "duration": 10, "velocity": 36}, {"time": 12960, "pitch": 28, "duration": 10, "velocity": 64}, {"time": 12960, "pitch": 37, "duration": 10, "velocity": 106}, {"time": 12960, "pitch": 39, "duration": 10, "velocity": 120}, {"time": 12960, "pitch": 40, "duration": 10, "velocity": 106}, {"time": 12960, "pitch": 42, "duration": 10, "velocity": 92}, {"time": 12960, "pitch": 56, "duration": 10, "velocity": 50}, {"time": 12960, "pitch": 67, "duration": 10, "velocity": 92}, {"time": 12960, "pitch": 69, "duration": 10, "velocity": 64}, {"time": 12960, "pitch": 70, "duration": 10, "velocity": 78}, {"time": 13080, "pitch": 70, "duration": 10, "velocity": 36}, {"time": 13100, "pitch": 56, "duration": 10, "velocity": 36}, {"time": 13100, "pitch": 68, "duration": 10, "velocity": 64}, {"time": 13100, "pitch": 69, "duration": 10, "velocity": 36}, {"time": 13200, "pitch": 42, "duration": 10, "velocity": 64}, {"time": 13200, "pitch": 56, "duration": 10, "velocity": 22}, {"time": 13200, "pitch": 69, "duration": 10, "velocity": 50}, {"time": 13200, "pitch": 70, "duration": 10, "velocity": 78}, {"time": 13320, "pitch": 70, "duration": 10, "velocity": 36}, {"time": 13340, "pitch": 56, "duration": 10, "velocity": 22}, {"time": 13340, "pitch": 68, "duration": 10, "velocity": 92}, {"time": 13340, "pitch": 69, "duration": 10, "velocity": 36}, {"time": 13440, "pitch": 28, "duration": 10, "velocity": 64}, {"time": 13440, "pitch": 37, "duration": 10, "velocity": 106}, {"time": 13440, "pitch": 42, "duration": 10, "velocity": 92}, {"time": 13440, "pitch": 56, "duration": 10, "velocity": 64}, {"time": 13440, "pitch": 69, "duration": 10, "velocity": 64}, {"time": 13440, "pitch": 70, "duration": 10, "velocity": 78}, {"time": 13560, "pitch": 70, "duration": 10, "velocity": 36}, {"time": 13580, "pitch": 56, "duration": 10, "velocity": 22}, {"time": 13580, "pitch": 67, "duration": 10, "velocity": 92}, {"time": 13580, "pitch": 69, "duration": 10, "velocity": 36}, {"time": 13680, "pitch": 42, "duration": 10, "velocity": 64}, {"time": 13680, "pitch": 56, "duration": 10, "velocity": 22}, {"time": 13680, "pitch": 69, "duration": 10, "velocity": 50}, {"time": 13680, "pitch": 70, "duration": 10, "velocity": 78}, {"time": 13800, "pitch": 28, "duration": 10, "velocity": 64}, {"time": 13800, "pitch": 37, "duration": 10, "velocity": 106}, {"time": 13800, "pitch": 70, "duration": 10, "velocity": 36}, {"time": 13820, "pitch": 56, "duration": 10, "velocity": 64}, {"time": 13820, "pitch": 67, "duration": 10, "velocity": 64}, {"time": 13820, "pitch": 69, "duration": 10, "velocity": 36}, {"time": 13920, "pitch": 39, "duration": 10, "velocity": 120}, {"time": 13920, "pitch": 40, "duration": 10, "velocity": 106}, {"time": 13920, "pitch": 42, "duration": 10, "velocity": 92}, {"time": 13920, "pitch": 56, "duration": 10, "velocity": 22}, {"time": 13920, "pitch": 67, "duration": 10, "velocity": 92}, {"time": 13920, "pitch": 69, "duration": 10, "velocity": 64}, {"time": 13920, "pitch": 70, "duration": 10, "velocity": 78}, {"time": 14040, "pitch": 70, "duration": 10, "velocity": 36}, {"time": 14060, "pitch": 56, "duration": 10, "velocity": 22}, {"time": 14060, "pitch": 69, "duration": 10, "velocity": 36}, {"time": 14160, "pitch": 28, "duration": 10, "velocity": 64}, {"time": 14160, "pitch": 37, "duration": 10, "velocity": 106}, {"time": 14160, "pitch": 42, "duration": 10, "velocity": 64}, {"time": 14160, "pitch": 56, "duration": 10, "velocity": 36}, {"time": 14160, "pitch": 68, "duration": 10, "velocity": 78}, {"time": 14160, "pitch": 69, "duration": 10, "velocity": 50}, {"time": 14160, "pitch": 70, "duration": 10, "velocity": 78}, {"time": 14280, "pitch": 70, "duration": 10, "velocity": 36}, {"time": 14300, "pitch": 56, "duration": 10, "velocity": 22}, {"time": 14300, "pitch": 68, "duration": 10, "velocity": 92}, {"time": 14300, "pitch": 69, "duration": 10, "velocity": 36}, {"time": 14400, "pitch": 42, "duration": 10, "velocity": 64}, {"time": 14400, "pitch": 68, "duration": 10, "velocity": 92}, {"time": 14400, "pitch": 69, "duration": 10, "velocity": 64}, {"time": 14400, "pitch": 70, "duration": 10, "velocity": 78}, {"time": 14520, "pitch": 70, "duration": 10, "velocity": 36}, {"time": 14540, "pitch": 69, "duration": 10, "velocity": 36}, {"time": 14640, "pitch": 28, "duration": 10, "velocity": 64}, {"time": 14640, "pitch": 37, "duration": 10, "velocity": 106}, {"time": 14640, "pitch": 39, "duration": 10, "velocity": 120}, {"time": 14640, "pitch": 42, "duration": 10, "velocity": 92}, {"time": 14640, "pitch": 56, "duration": 10, "velocity": 64}, {"time": 14640, "pitch": 67, "duration": 10, "velocity": 92}, {"time": 14640, "pitch": 69, "duration": 10, "velocity": 50}, {"time": 14640, "pitch": 70, "duration": 10, "velocity": 78}, {"time": 14760, "pitch": 70, "duration": 10, "velocity": 36}, {"time": 14780, "pitch": 56, "duration": 10, "velocity": 36}, {"time": 14780, "pitch": 69, "duration": 10, "velocity": 36}, {"time": 14880, "pitch": 39, "duration": 10, "velocity": 120}, {"time": 14880, "pitch": 40, "duration": 10, "velocity": 106}, {"time": 14880, "pitch": 42, "duration": 10, "velocity": 92}, {"time": 14880, "pitch": 56, "duration": 10, "velocity": 50}, {"time": 14880, "pitch": 67, "duration": 10, "velocity": 92}, {"time": 14880, "pitch": 69, "duration": 10, "velocity": 64}, {"time": 14880, "pitch": 70, "duration": 10, "velocity": 78}, {"time": 15000, "pitch": 28, "duration": 10, "velocity": 64}, {"time": 15000, "pitch": 37, "duration": 10, "velocity": 106}, {"time": 15000, "pitch": 70, "duration": 10, "velocity": 36}, {"time": 15020, "pitch": 56, "duration": 10, "velocity": 36}, {"time": 15020, "pitch": 68, "duration": 10, "velocity": 64}, {"time": 15020, "pitch": 69, "duration": 10, "velocity": 36}, {"time": 15120, "pitch": 42, "duration": 10, "velocity": 64}, {"time": 15120, "pitch": 56, "duration": 10, "velocity": 22}, {"time": 15120, "pitch": 69, "duration": 10, "velocity": 50}, {"time": 15120, "pitch": 70, "duration": 10, "velocity": 78}, {"time": 15240, "pitch": 70, "duration": 10, "velocity": 36}, {"time": 15260, "pitch": 56, "duration": 10, "velocity": 22}, {"time": 15260, "pitch": 68, "duration": 10, "velocity": 92}, {"time": 15260, "pitch": 69, "duration": 10, "velocity": 36}, {"time": 15360, "pitch": 28, "duration": 10, "velocity": 64}, {"time": 15360, "pitch": 37, "duration": 10, "velocity": 106}, {"time": 15360, "pitch": 42, "duration": 10, "velocity": 92}, {"time": 15360, "pitch": 56, "duration": 10, "velocity": 64}, {"time": 15360, "pitch": 69, "duration": 10, "velocity": 64}, {"time": 15360, "pitch": 70, "duration": 10, "velocity": 78}, {"time": 15480, "pitch": 70, "duration": 10, "velocity": 36}, {"time": 15500, "pitch": 56, "duration": 10, "velocity": 22}, {"time": 15500, "pitch": 67, "duration": 10, "velocity": 92}, {"time": 15500, "pitch": 69, "duration": 10, "velocity": 36}, {"time": 15600, "pitch": 42, "duration": 10, "velocity": 64}, {"time": 15600, "pitch": 56, "duration": 10, "velocity": 22}, {"time": 15600, "pitch": 69, "duration": 10, "velocity": 50}, {"time": 15600, "pitch": 70, "duration": 10, "velocity": 78}, {"time": 15720, "pitch": 28, "duration": 10, "velocity": 64}, {"time": 15720, "pitch": 37, "duration": 10, "velocity": 106}, {"time": 15720, "pitch": 70, "duration": 10, "velocity": 36}, {"time": 15740, "pitch": 56, "duration": 10, "velocity": 64}, {"time": 15740, "pitch": 67, "duration": 10, "velocity": 64}, {"time": 15740, "pitch": 69, "duration": 10, "velocity": 36}, {"time": 15840, "pitch": 39, "duration": 10, "velocity": 120}, {"time": 15840, "pitch": 40, "duration": 10, "velocity": 106}, {"time": 15840, "pitch": 42, "duration": 10, "velocity": 92}, {"time": 15840, "pitch": 56, "duration": 10, "velocity": 22}, {"time": 15840, "pitch": 67, "duration": 10, "velocity": 92}, {"time": 15840, "pitch": 69, "duration": 10, "velocity": 64}, {"time": 15840, "pitch": 70, "duration": 10, "velocity": 78}, {"time": 15960, "pitch": 70, "duration": 10, "velocity": 36}, {"time": 15980, "pitch": 56, "duration": 10, "velocity": 22}, {"time": 15980, "pitch": 69, "duration": 10, "velocity": 36}, {"time": 16080, "pitch": 28, "duration": 10, "velocity": 64}, {"time": 16080, "pitch": 37, "duration": 10, "velocity": 106}, {"time": 16080, "pitch": 42, "duration": 10, "velocity": 64}, {"time": 16080, "pitch": 56, "duration": 10, "velocity": 36}, {"time": 16080, "pitch": 68, "duration": 10, "velocity": 78}, {"time": 16080, "pitch": 69, "duration": 10, "velocity": 22}, {"time": 16080, "pitch": 70, "duration": 10, "velocity": 78}, {"time": 16110, "pitch": 69, "duration": 10, "velocity": 36}, {"time": 16140, "pitch": 69, "duration": 10, "velocity": 36}, {"time": 16170, "pitch": 69, "duration": 10, "velocity": 50}, {"time": 16200, "pitch": 56, "duration": 10, "velocity": 22}, {"time": 16200, "pitch": 68, "duration": 10, "velocity": 92}, {"time": 16200, "pitch": 69, "duration": 10, "velocity": 50}, {"time": 16200, "pitch": 70, "duration": 10, "velocity": 36}, {"time": 16230, "pitch": 69, "duration": 10, "velocity": 64}, {"time": 16260, "pitch": 69, "duration": 10, "velocity": 64}, {"time": 16290, "pitch": 69, "duration": 10, "velocity": 64}, {"time": 16320, "pitch": 42, "duration": 10, "velocity": 64}, {"time": 16320, "pitch": 49, "duration": 10, "velocity": 92}, {"time": 16320, "pitch": 68, "duration": 10, "velocity": 92}, {"time": 16320, "pitch": 69, "duration": 10, "velocity": 64}, {"time": 16320, "pitch": 70, "duration": 10, "velocity": 78}, {"time": 16440, "pitch": 70, "duration": 10, "velocity": 36}, {"time": 16460, "pitch": 69, "duration": 10, "velocity": 36}, {"time": 16560, "pitch": 28, "duration": 10, "velocity": 64}, {"time": 16560, "pitch": 37, "duration": 10, "velocity": 106}, {"time": 16560, "pitch": 42, "duration": 10, "velocity": 92}, {"time": 16560, "pitch": 56, "duration": 10, "velocity": 64}, {"time": 16560, "pitch": 67, "duration": 10, "velocity": 92}, {"time": 16560, "pitch": 69, "duration": 10, "velocity": 50}, {"time": 16560, "pitch": 70, "duration": 10, "velocity": 78}, {"time": 16680, "pitch": 70, "duration": 10, "velocity": 36}, {"time": 16700, "pitch": 56, "duration": 10, "velocity": 36}, {"time": 16700, "pitch": 69, "duration": 10, "velocity": 36}, {"time": 16800, "pitch": 28, "duration": 10, "velocity": 64}, {"time": 16800, "pitch": 37, "duration": 10, "velocity": 106}, {"time": 16800, "pitch": 39, "duration": 10, "velocity": 120}, {"time": 16800, "pitch": 40, "duration": 10, "velocity": 106}, {"time": 16800, "pitch": 42, "duration": 10, "velocity": 92}, {"time": 16800, "pitch": 56, "duration": 10, "velocity": 50}, {"time": 16800, "pitch": 67, "duration": 10, "velocity": 92}, {"time": 16800, "pitch": 69, "duration": 10, "velocity": 64}, {"time": 16800, "pitch": 70, "duration": 10, "velocity": 78}, {"time": 16920, "pitch": 70, "duration": 10, "velocity": 36}, {"time": 16940, "pitch": 56, "duration": 10, "velocity": 36}, {"time": 16940, "pitch": 68, "duration": 10, "velocity": 64}, {"time": 16940, "pitch": 69, "duration": 10, "velocity": 36}, {"time": 17040, "pitch": 42, "duration": 10, "velocity": 64}, {"time": 17040, "pitch": 56, "duration": 10, "velocity": 22}, {"time": 17040, "pitch": 69, "duration": 10, "velocity": 50}, {"time": 17040, "pitch": 70, "duration": 10, "velocity": 78}, {"time": 17160, "pitch": 70, "duration": 10, "velocity": 36}, {"time": 17180, "pitch": 56, "duration": 10, "velocity": 22}, {"time": 17180, "pitch": 68, "duration": 10, "velocity": 92}, {"time": 17180, "pitch": 69, "duration": 10, "velocity": 36}, {"time": 17280, "pitch": 28, "duration": 10, "velocity": 64}, {"time": 17280, "pitch": 37, "duration": 10, "velocity": 106}, {"time": 17280, "pitch": 42, "duration": 10, "velocity": 92}, {"time": 17280, "pitch": 56, "duration": 10, "velocity": 64}, {"time": 17280, "pitch": 69, "duration": 10, "velocity": 64}, {"time": 17280, "pitch": 70, "duration": 10, "velocity": 78}, {"time": 17400, "pitch": 70, "duration": 10, "velocity": 36}, {"time": 17420, "pitch": 56, "duration": 10, "velocity": 22}, {"time": 17420, "pitch": 67, "duration": 10, "velocity": 92}, {"time": 17420, "pitch": 69, "duration": 10, "velocity": 36}, {"time": 17520, "pitch": 42, "duration": 10, "velocity": 64}, {"time": 17520, "pitch": 56, "duration": 10, "velocity": 22}, {"time": 17520, "pitch": 69, "duration": 10, "velocity": 50}, {"time": 17520, "pitch": 70, "duration": 10, "velocity": 78}, {"time": 17640, "pitch": 28, "duration": 10, "velocity": 64}, {"time": 17640, "pitch": 37, "duration": 10, "velocity": 106}, {"time": 17640, "pitch": 70, "duration": 10, "velocity": 36}, {"time": 17660, "pitch": 56, "duration": 10, "velocity": 64}, {"time": 17660, "pitch": 67, "duration": 10, "velocity": 64}, {"time": 17660, "pitch": 69, "duration": 10, "velocity": 36}, {"time": 17760, "pitch": 39, "duration": 10, "velocity": 120}, {"time": 17760, "pitch": 40, "duration": 10, "velocity": 106}, {"time": 17760, "pitch": 42, "duration": 10, "velocity": 92}, {"time": 17760, "pitch": 56, "duration": 10, "velocity": 22}, {"time": 17760, "pitch": 67, "duration": 10, "velocity": 92}, {"time": 17760, "pitch": 69, "duration": 10, "velocity": 64}, {"time": 17760, "pitch": 70, "duration": 10, "velocity": 78}, {"time": 17880, "pitch": 70, "duration": 10, "velocity": 36}, {"time": 17900, "pitch": 56, "duration": 10, "velocity": 22}, {"time": 17900, "pitch": 69, "duration": 10, "velocity": 36}, {"time": 18000, "pitch": 28, "duration": 10, "velocity": 64}, {"time": 18000, "pitch": 37, "duration": 10, "velocity": 106}, {"time": 18000, "pitch": 42, "duration": 10, "velocity": 64}, {"time": 18000, "pitch": 56, "duration": 10, "velocity": 36}, {"time": 18000, "pitch": 68, "duration": 10, "velocity": 78}, {"time": 18000, "pitch": 69, "duration": 10, "velocity": 50}, {"time": 18000, "pitch": 70, "duration": 10, "velocity": 78}, {"time": 18120, "pitch": 70, "duration": 10, "velocity": 36}, {"time": 18140, "pitch": 56, "duration": 10, "velocity": 22}, {"time": 18140, "pitch": 68, "duration": 10, "velocity": 92}, {"time": 18140, "pitch": 69, "duration": 10, "velocity": 36}, {"time": 18240, "pitch": 42, "duration": 10, "velocity": 64}, {"time": 18240, "pitch": 68, "duration": 10, "velocity": 92}, {"time": 18240, "pitch": 69, "duration": 10, "velocity": 64}, {"time": 18240, "pitch": 70, "duration": 10, "velocity": 78}, {"time": 18360, "pitch": 70, "duration": 10, "velocity": 36}, {"time": 18380, "pitch": 69, "duration": 10, "velocity": 36}, {"time": 18480, "pitch": 28, "duration": 10, "velocity": 64}, {"time": 18480, "pitch": 37, "duration": 10, "velocity": 106}, {"time": 18480, "pitch": 42, "duration": 10, "velocity": 92}, {"time": 18480, "pitch": 56, "duration": 10, "velocity": 64}, {"time": 18480, "pitch": 67, "duration": 10, "velocity": 92}, {"time": 18480, "pitch": 69, "duration": 10, "velocity": 50}, {"time": 18480, "pitch": 70, "duration": 10, "velocity": 78}, {"time": 18600, "pitch": 70, "duration": 10, "velocity": 36}, {"time": 18620, "pitch": 56, "duration": 10, "velocity": 36}, {"time": 18620, "pitch": 69, "duration": 10, "velocity": 36}, {"time": 18720, "pitch": 39, "duration": 10, "velocity": 120}, {"time": 18720, "pitch": 40, "duration": 10, "velocity": 106}, {"time": 18720, "pitch": 42, "duration": 10, "velocity": 92}, {"time": 18720, "pitch": 56, "duration": 10, "velocity": 50}, {"time": 18720, "pitch": 67, "duration": 10, "velocity": 92}, {"time": 18720, "pitch": 69, "duration": 10, "velocity": 64}, {"time": 18720, "pitch": 70, "duration": 10, "velocity": 78}, {"time": 18840, "pitch": 28, "duration": 10, "velocity": 64}, {"time": 18840, "pitch": 37, "duration": 10, "velocity": 106}, {"time": 18840, "pitch": 70, "duration": 10, "velocity": 36}, {"time": 18860, "pitch": 56, "duration": 10, "velocity": 36}, {"time": 18860, "pitch": 68, "duration": 10, "velocity": 64}, {"time": 18860, "pitch": 69, "duration": 10, "velocity": 36}, {"time": 18960, "pitch": 42, "duration": 10, "velocity": 64}, {"time": 18960, "pitch": 56, "duration": 10, "velocity": 22}, {"time": 18960, "pitch": 69, "duration": 10, "velocity": 50}, {"time": 18960, "pitch": 70, "duration": 10, "velocity": 78}, {"time": 19080, "pitch": 70, "duration": 10, "velocity": 36}, {"time": 19100, "pitch": 56, "duration": 10, "velocity": 22}, {"time": 19100, "pitch": 68, "duration": 10, "velocity": 92}, {"time": 19100, "pitch": 69, "duration": 10, "velocity": 36}, {"time": 19200, "pitch": 28, "duration": 10, "velocity": 64}, {"time": 19200, "pitch": 37, "duration": 10, "velocity": 106}, {"time": 19200, "pitch": 42, "duration": 10, "velocity": 92}, {"time": 19200, "pitch": 56, "duration": 10, "velocity": 64}, {"time": 19200, "pitch": 69, "duration": 10, "velocity": 64}, {"time": 19200, "pitch": 70, "duration": 10, "velocity": 78}, {"time": 19320, "pitch": 70, "duration": 10, "velocity": 36}, {"time": 19340, "pitch": 56, "duration": 10, "velocity": 22}, {"time": 19340, "pitch": 67, "duration": 10, "velocity": 92}, {"time": 19340, "pitch": 69, "duration": 10, "velocity": 36}, {"time": 19440, "pitch": 42, "duration": 10, "velocity": 64}, {"time": 19440, "pitch": 56, "duration": 10, "velocity": 22}, {"time": 19440, "pitch": 69, "duration": 10, "velocity": 50}, {"time": 19440, "pitch": 70, "duration": 10, "velocity": 78}, {"time": 19560, "pitch": 28, "duration": 10, "velocity": 64}, {"time": 19560, "pitch": 37, "duration": 10, "velocity": 106}, {"time": 19560, "pitch": 70, "duration": 10, "velocity": 36}, {"time": 19580, "pitch": 56, "duration": 10, "velocity": 64}, {"time": 19580, "pitch": 67, "duration": 10, "velocity": 64}, {"time": 19580, "pitch": 69, "duration": 10, "velocity": 36}, {"time": 19680, "pitch": 39, "duration": 10, "velocity": 120}, {"time": 19680, "pitch": 40, "duration": 10, "velocity": 106}, {"time": 19680, "pitch": 42, "duration": 10, "velocity": 92}, {"time": 19680, "pitch": 56, "duration": 10, "velocity": 22}, {"time": 19680, "pitch": 67, "duration": 10, "velocity": 92}, {"time": 19680, "pitch": 69, "duration": 10, "velocity": 64}, {"time": 19680, "pitch": 70, "duration": 10, "velocity": 78}, {"time": 19800, "pitch": 70, "duration": 10, "velocity": 36}, {"time": 19820, "pitch": 56, "duration": 10, "velocity": 22}, {"time": 19820, "pitch": 69, "duration": 10, "velocity": 36}, {"time": 19920, "pitch": 28, "duration": 10, "velocity": 64}, {"time": 19920, "pitch": 37, "duration": 10, "velocity": 106}, {"time": 19920, "pitch": 42, "duration": 10, "velocity": 64}, {"time": 19920, "pitch": 56, "duration": 10, "velocity": 36}, {"time": 19920, "pitch": 68, "duration": 10, "velocity": 78}, {"time": 19920, "pitch": 69, "duration": 10, "velocity": 22}, {"time": 19920, "pitch": 70, "duration": 10, "velocity": 78}, {"time": 19950, "pitch": 69, "duration": 10, "velocity": 36}, {"time": 19980, "pitch": 69, "duration": 10, "velocity": 36}, {"time": 20010, "pitch": 69, "duration": 10, "velocity": 50}, {"time": 20040, "pitch": 56, "duration": 10, "velocity": 22}, {"time": 20040, "pitch": 68, "duration": 10, "velocity": 92}, {"time": 20040, "pitch": 69, "duration": 10, "velocity": 50}, {"time": 20040, "pitch": 70, "duration": 10, "velocity": 36}, {"time": 20070, "pitch": 69, "duration": 10, "velocity": 64}, {"time": 20100, "pitch": 69, "duration": 10, "velocity": 64}, {"time": 20130, "pitch": 69, "duration": 10, "velocity": 64}, {"time": 20160, "pitch": 42, "duration": 10, "velocity": 64}, {"time": 20160, "pitch": 68, "duration": 10, "velocity": 92}, {"time": 20160, "pitch": 69, "duration": 10, "velocity": 64}, {"time": 20160, "pitch": 70, "duration": 10, "velocity": 78}, {"time": 20280, "pitch": 70, "duration": 10, "velocity": 36}, {"time": 20300, "pitch": 69, "duration": 10, "velocity": 36}, {"time": 20400, "pitch": 28, "duration": 10, "velocity": 64}, {"time": 20400, "pitch": 37, "duration": 10, "velocity": 106}, {"time": 20400, "pitch": 42, "duration": 10, "velocity": 92}, {"time": 20400, "pitch": 56, "duration": 10, "velocity": 64}, {"time": 20400, "pitch": 67, "duration": 10, "velocity": 92}, {"time": 20400, "pitch": 69, "duration": 10, "velocity": 50}, {"time": 20400, "pitch": 70, "duration": 10, "velocity": 78}, {"time": 20520, "pitch": 70, "duration": 10, "velocity": 36}, {"time": 20540, "pitch": 56, "duration": 10, "velocity": 36}, {"time": 20540, "pitch": 69, "duration": 10, "velocity": 36}, {"time": 20640, "pitch": 28, "duration": 10, "velocity": 64}, {"time": 20640, "pitch": 37, "duration": 10, "velocity": 106}, {"time": 20640, "pitch": 39, "duration": 10, "velocity": 120}, {"time": 20640, "pitch": 40, "duration": 10, "velocity": 106}, {"time": 20640, "pitch": 42, "duration": 10, "velocity": 92}, {"time": 20640, "pitch": 56, "duration": 10, "velocity": 50}, {"time": 20640, "pitch": 67, "duration": 10, "velocity": 92}, {"time": 20640, "pitch": 69, "duration": 10, "velocity": 64}, {"time": 20640, "pitch": 70, "duration": 10, "velocity": 78}, {"time": 20760, "pitch": 70, "duration": 10, "velocity": 36}, {"time": 20780, "pitch": 56, "duration": 10, "velocity": 36}, {"time": 20780, "pitch": 68, "duration": 10, "velocity": 64}, {"time": 20780, "pitch": 69, "duration": 10, "velocity": 36}, {"time": 20880, "pitch": 42, "duration": 10, "velocity": 64}, {"time": 20880, "pitch": 56, "duration": 10, "velocity": 22}, {"time": 20880, "pitch": 69, "duration": 10, "velocity": 50}, {"time": 20880, "pitch": 70, "duration": 10, "velocity": 78}, {"time": 21000, "pitch": 70, "duration": 10, "velocity": 36}, {"time": 21020, "pitch": 56, "duration": 10, "velocity": 22}, {"time": 21020, "pitch": 68, "duration": 10, "velocity": 92}, {"time": 21020, "pitch": 69, "duration": 10, "velocity": 36}, {"time": 21120, "pitch": 28, "duration": 10, "velocity": 64}, {"time": 21120, "pitch": 37, "duration": 10, "velocity": 106}, {"time": 21120, "pitch": 42, "duration": 10, "velocity": 92}, {"time": 21120, "pitch": 56, "duration": 10, "velocity": 64}, {"time": 21120, "pitch": 69, "duration": 10, "velocity": 64}, {"time": 21120, "pitch": 70, "duration": 10, "velocity": 78}, {"time": 21240, "pitch": 70, "duration": 10, "velocity": 36}, {"time": 21260, "pitch": 56, "duration": 10, "velocity": 22}, {"time": 21260, "pitch": 67, "duration": 10, "velocity": 92}, {"time": 21260, "pitch": 69, "duration": 10, "velocity": 36}, {"time": 21360, "pitch": 42, "duration": 10, "velocity": 64}, {"time": 21360, "pitch": 56, "duration": 10, "velocity": 22}, {"time": 21360, "pitch": 69, "duration": 10, "velocity": 50}, {"time": 21360, "pitch": 70, "duration": 10, "velocity": 78}, {"time": 21480, "pitch": 28, "duration": 10, "velocity": 64}, {"time": 21480, "pitch": 37, "duration": 10, "velocity": 106}, {"time": 21480, "pitch": 70, "duration": 10, "velocity": 36}, {"time": 21500, "pitch": 56, "duration": 10, "velocity": 64}, {"time": 21500, "pitch": 67, "duration": 10, "velocity": 64}, {"time": 21500, "pitch": 69, "duration": 10, "velocity": 36}, {"time": 21600, "pitch": 39, "duration": 10, "velocity": 120}, {"time": 21600, "pitch": 40, "duration": 10, "velocity": 106}, {"time": 21600, "pitch": 42, "duration": 10, "velocity": 92}, {"time": 21600, "pitch": 56, "duration": 10, "velocity": 22}, {"time": 21600, "pitch": 67, "duration": 10, "velocity": 92}, {"time": 21600, "pitch": 69, "duration": 10, "velocity": 64}, {"time": 21600, "pitch": 70, "duration": 10, "velocity": 78}, {"time": 21720, "pitch": 70, "duration": 10, "velocity": 36}, {"time": 21740, "pitch": 56, "duration": 10, "velocity": 22}, {"time": 21740, "pitch": 69, "duration": 10, "velocity": 36}, {"time": 21840, "pitch": 28, "duration": 10, "velocity": 64}, {"time": 21840, "pitch": 37, "duration": 10, "velocity": 106}, {"time": 21840, "pitch": 42, "duration": 10, "velocity": 64}, {"time": 21840, "pitch": 56, "duration": 10, "velocity": 36}, {"time": 21840, "pitch": 68, "duration": 10, "velocity": 78}, {"time": 21840, "pitch": 69, "duration": 10, "velocity": 50}, {"time": 21840, "pitch": 70, "duration": 10, "velocity": 78}, {"time": 21960, "pitch": 70, "duration": 10, "velocity": 36}, {"time": 21980, "pitch": 56, "duration": 10, "velocity": 22}, {"time": 21980, "pitch": 68, "duration": 10, "velocity": 92}, {"time": 21980, "pitch": 69, "duration": 10, "velocity": 36}, {"time": 22080, "pitch": 42, "duration": 10, "velocity": 64}, {"time": 22080, "pitch": 68, "duration": 10, "velocity": 92}, {"time": 22080, "pitch": 69, "duration": 10, "velocity": 64}, {"time": 22080, "pitch": 70, "duration": 10, "velocity": 78}, {"time": 22200, "pitch": 70, "duration": 10, "velocity": 36}, {"time": 22220, "pitch": 69, "duration": 10, "velocity": 36}, {"time": 22320, "pitch": 28, "duration": 10, "velocity": 64}, {"time": 22320, "pitch": 37, "duration": 10, "velocity": 106}, {"time": 22320, "pitch": 42, "duration": 10, "velocity": 92}, {"time": 22320, "pitch": 56, "duration": 10, "velocity": 64}, {"time": 22320, "pitch": 67, "duration": 10, "velocity": 92}, {"time": 22320, "pitch": 69, "duration": 10, "velocity": 50}, {"time": 22320, "pitch": 70, "duration": 10, "velocity": 78}, {"time": 22440, "pitch": 70, "duration": 10, "velocity": 36}, {"time": 22460, "pitch": 56, "duration": 10, "velocity": 36}, {"time": 22460, "pitch": 69, "duration": 10, "velocity": 36}, {"time": 22560, "pitch": 39, "duration": 10, "velocity": 120}, {"time": 22560, "pitch": 40, "duration": 10, "velocity": 106}, {"time": 22560, "pitch": 42, "duration": 10, "velocity": 92}, {"time": 22560, "pitch": 56, "duration": 10, "velocity": 50}, {"time": 22560, "pitch": 67, "duration": 10, "velocity": 92}, {"time": 22560, "pitch": 69, "duration": 10, "velocity": 64}, {"time": 22560, "pitch": 70, "duration": 10, "velocity": 78}, {"time": 22680, "pitch": 28, "duration": 10, "velocity": 64}, {"time": 22680, "pitch": 37, "duration": 10, "velocity": 106}, {"time": 22680, "pitch": 70, "duration": 10, "velocity": 36}, {"time": 22700, "pitch": 56, "duration": 10, "velocity": 36}, {"time": 22700, "pitch": 68, "duration": 10, "velocity": 64}, {"time": 22700, "pitch": 69, "duration": 10, "velocity": 36}, {"time": 22800, "pitch": 42, "duration": 10, "velocity": 64}, {"time": 22800, "pitch": 56, "duration": 10, "velocity": 22}, {"time": 22800, "pitch": 69, "duration": 10, "velocity": 50}, {"time": 22800, "pitch": 70, "duration": 10, "velocity": 78}, {"time": 22920, "pitch": 70, "duration": 10, "velocity": 36}, {"time": 22940, "pitch": 56, "duration": 10, "velocity": 22}, {"time": 22940, "pitch": 68, "duration": 10, "velocity": 92}, {"time": 22940, "pitch": 69, "duration": 10, "velocity": 36}, {"time": 23040, "pitch": 28, "duration": 10, "velocity": 64}, {"time": 23040, "pitch": 37, "duration": 10, "velocity": 106}, {"time": 23040, "pitch": 42, "duration": 10, "velocity": 92}, {"time": 23040, "pitch": 56, "duration": 10, "velocity": 64}, {"time": 23040, "pitch": 69, "duration": 10, "velocity": 64}, {"time": 23040, "pitch": 70, "duration": 10, "velocity": 78}, {"time": 23160, "pitch": 70, "duration": 10, "velocity": 36}, {"time": 23180, "pitch": 56, "duration": 10, "velocity": 22}, {"time": 23180, "pitch": 67, "duration": 10, "velocity": 92}, {"time": 23180, "pitch": 69, "duration": 10, "velocity": 36}, {"time": 23280, "pitch": 42, "duration": 10, "velocity": 64}, {"time": 23280, "pitch": 56, "duration": 10, "velocity": 22}, {"time": 23280, "pitch": 69, "duration": 10, "velocity": 50}, {"time": 23280, "pitch": 70, "duration": 10, "velocity": 78}, {"time": 23400, "pitch": 28, "duration": 10, "velocity": 64}, {"time": 23400, "pitch": 37, "duration": 10, "velocity": 106}, {"time": 23400, "pitch": 70, "duration": 10, "velocity": 36}, {"time": 23420, "pitch": 56, "duration": 10, "velocity": 64}, {"time": 23420, "pitch": 67, "duration": 10, "velocity": 64}, {"time": 23420, "pitch": 69, "duration": 10, "velocity": 36}, {"time": 23520, "pitch": 39, "duration": 10, "velocity": 120}, {"time": 23520, "pitch": 40, "duration": 10, "velocity": 106}, {"time": 23520, "pitch": 42, "duration": 10, "velocity": 92}, {"time": 23520, "pitch": 56, "duration": 10, "velocity": 22}, {"time": 23520, "pitch": 67, "duration": 10, "velocity": 92}, {"time": 23520, "pitch": 69, "duration": 10, "velocity": 64}, {"time": 23520, "pitch": 70, "duration": 10, "velocity": 78}, {"time": 23640, "pitch": 70, "duration": 10, "velocity": 36}, {"time": 23660, "pitch": 56, "duration": 10, "velocity": 22}, {"time": 23660, "pitch": 69, "duration": 10, "velocity": 36}, {"time": 23760, "pitch": 28, "duration": 10, "velocity": 64}, {"time": 23760, "pitch": 37, "duration": 10, "velocity": 106}, {"time": 23760, "pitch": 42, "duration": 10, "velocity": 64}, {"time": 23760, "pitch": 56, "duration": 10, "velocity": 36}, {"time": 23760, "pitch": 68, "duration": 10, "velocity": 78}, {"time": 23760, "pitch": 69, "duration": 10, "velocity": 22}, {"time": 23760, "pitch": 70, "duration": 10, "velocity": 78}, {"time": 23790, "pitch": 69, "duration": 10, "velocity": 36}, {"time": 23820, "pitch": 69, "duration": 10, "velocity": 36}, {"time": 23850, "pitch": 69, "duration": 10, "velocity": 50}, {"time": 23880, "pitch": 56, "duration": 10, "velocity": 22}, {"time": 23880, "pitch": 68, "duration": 10, "velocity": 92}, {"time": 23880, "pitch": 69, "duration": 10, "velocity": 50}, {"time": 23880, "pitch": 70, "duration": 10, "velocity": 36}, {"time": 23910, "pitch": 69, "duration": 10, "velocity": 64}, {"time": 23940, "pitch": 69, "duration": 10, "velocity": 64}, {"time": 23970, "pitch": 69, "duration": 10, "velocity": 64}, {"time": 24000, "pitch": 38, "duration": 10, "velocity": 50}, {"time": 24000, "pitch": 42, "duration": 10, "velocity": 64}, {"time": 24000, "pitch": 57, "duration": 10, "velocity": 92}, {"time": 24000, "pitch": 68, "duration": 10, "velocity": 92}, {"time": 24000, "pitch": 69, "duration": 10, "velocity": 64}, {"time": 24000, "pitch": 70, "duration": 10, "velocity": 78}, {"time": 24120, "pitch": 38, "duration": 10, "velocity": 22}, {"time": 24120, "pitch": 70, "duration": 10, "velocity": 36}, {"time": 24140, "pitch": 69, "duration": 10, "velocity": 36}, {"time": 24240, "pitch": 28, "duration": 10, "velocity": 64}, {"time": 24240, "pitch": 37, "duration": 10, "velocity": 106}, {"time": 24240, "pitch": 38, "duration": 10, "velocity": 78}, {"time": 24240, "pitch": 42, "duration": 10, "velocity": 92}, {"time": 24240, "pitch": 56, "duration": 10, "velocity": 64}, {"time": 24240, "pitch": 67, "duration": 10, "velocity": 92}, {"time": 24240, "pitch": 69, "duration": 10, "velocity": 50}, {"time": 24240, "pitch": 70, "duration": 10, "velocity": 78}, {"time": 24360, "pitch": 38, "duration": 10, "velocity": 22}, {"time": 24360, "pitch": 70, "duration": 10, "velocity": 36}, {"time": 24380, "pitch": 56, "duration": 10, "velocity": 36}, {"time": 24380, "pitch": 69, "duration": 10, "velocity": 36}, {"time": 24480, "pitch": 28, "duration": 10, "velocity": 64}, {"time": 24480, "pitch": 37, "duration": 10, "velocity": 106}, {"time": 24480, "pitch": 38, "duration": 10, "velocity": 50}, {"time": 24480, "pitch": 39, "duration": 10, "velocity": 120}, {"time": 24480, "pitch": 40, "duration": 10, "velocity": 106}, {"time": 24480, "pitch": 42, "duration": 10, "velocity": 92}, {"time": 24480, "pitch": 49, "duration": 10, "velocity": 92}, {"time": 24480, "pitch": 56, "duration": 10, "velocity": 50}, {"time": 24480, "pitch": 67, "duration": 10, "velocity": 92}, {"time": 24480, "pitch": 69, "duration": 10, "velocity": 64}, {"time": 24480, "pitch": 70, "duration": 10, "velocity": 78}, {"time": 24540, "pitch": 38, "duration": 10, "velocity": 36}, {"time": 24600, "pitch": 38, "duration": 10, "velocity": 36}, {"time": 24600, "pitch": 70, "duration": 10, "velocity": 36}, {"time": 24620, "pitch": 56, "duration": 10, "velocity": 36}, {"time": 24620, "pitch": 68, "duration": 10, "velocity": 64}, {"time": 24620, "pitch": 69, "duration": 10, "velocity": 36}, {"time": 24660, "pitch": 38, "duration": 10, "velocity": 36}, {"time": 24720, "pitch": 38, "duration": 10, "velocity": 22}, {"time": 24720, "pitch": 42, "duration": 10, "velocity": 64}, {"time": 24720, "pitch": 56, "duration": 10, "velocity": 22}, {"time": 24720, "pitch": 69, "duration": 10, "velocity": 50}, {"time": 24720, "pitch": 70, "duration": 10, "velocity": 78}, {"time": 24780, "pitch": 38, "duration": 10, "velocity": 36}, {"time": 24840, "pitch": 38, "duration": 10, "velocity": 22}, {"time": 24840, "pitch": 70, "duration": 10, "velocity": 36}, {"time": 24860, "pitch": 56, "duration": 10, "velocity": 22}, {"time": 24860, "pitch": 68, "duration": 10, "velocity": 92}, {"time": 24860, "pitch": 69, "duration": 10, "velocity": 36}, {"time": 24900, "pitch": 38, "duration": 10, "velocity": 22}, {"time": 24960, "pitch": 28, "duration": 10, "velocity": 64}, {"time": 24960, "pitch": 37, "duration": 10, "velocity": 106}, {"time": 24960, "pitch": 38, "duration": 10, "velocity": 36}, {"time": 24960, "pitch": 42, "duration": 10, "velocity": 92}, {"time": 24960, "pitch": 56, "duration": 10, "velocity": 64}, {"time": 24960, "pitch": 69, "duration": 10, "velocity": 64}, {"time": 24960, "pitch": 70, "duration": 10, "velocity": 78}, {"time": 25080, "pitch": 38, "duration": 10, "velocity": 22}, {"time": 25080, "pitch": 70, "duration": 10, "velocity": 36}, {"time": 25100, "pitch": 56, "duration": 10, "velocity": 22}, {"time": 25100, "pitch": 67, "duration": 10, "velocity": 92}, {"time": 25100, "pitch": 69, "duration": 10, "velocity": 36}, {"time": 25100, "pitch": 72, "duration": 210, "velocity": 78}, {"time": 25200, "pitch": 38, "duration": 10, "velocity": 78}, {"time": 25200, "pitch": 42, "duration": 10, "velocity": 64}, {"time": 25200, "pitch": 56, "duration": 10, "velocity": 22}, {"time": 25200, "pitch": 69, "duration": 10, "velocity": 50}, {"time": 25200, "pitch": 70, "duration": 10, "velocity": 78}, {"time": 25320, "pitch": 28, "duration": 10, "velocity": 64}, {"time": 25320, "pitch": 37, "duration": 10, "velocity": 106}, {"time": 25320, "pitch": 38, "duration": 10, "velocity": 36}, {"time": 25320, "pitch": 70, "duration": 10, "velocity": 36}, {"time": 25340, "pitch": 56, "duration": 10, "velocity": 64}, {"time": 25340, "pitch": 67, "duration": 10, "velocity": 64}, {"time": 25340, "pitch": 69, "duration": 10, "velocity": 36}, {"time": 25340, "pitch": 72, "duration": 100, "velocity": 64}, {"time": 25440, "pitch": 38, "duration": 10, "velocity": 50}, {"time": 25440, "pitch": 39, "duration": 10, "velocity": 120}, {"time": 25440, "pitch": 40, "duration": 10, "velocity": 106}, {"time": 25440, "pitch": 42, "duration": 10, "velocity": 92}, {"time": 25440, "pitch": 56, "duration": 10, "velocity": 22}, {"time": 25440, "pitch": 67, "duration": 10, "velocity": 92}, {"time": 25440, "pitch": 69, "duration": 10, "velocity": 64}, {"time": 25440, "pitch": 70, "duration": 10, "velocity": 78}, {"time": 25440, "pitch": 72, "duration": 220, "velocity": 64}, {"time": 25500, "pitch": 38, "duration": 10, "velocity": 36}, {"time": 25560, "pitch": 38, "duration": 10, "velocity": 36}, {"time": 25560, "pitch": 70, "duration": 10, "velocity": 36}, {"time": 25580, "pitch": 56, "duration": 10, "velocity": 22}, {"time": 25580, "pitch": 69, "duration": 10, "velocity": 36}, {"time": 25620, "pitch": 38, "duration": 10, "velocity": 36}, {"time": 25680, "pitch": 28, "duration": 10, "velocity": 64}, {"time": 25680, "pitch": 37, "duration": 10, "velocity": 106}, {"time": 25680, "pitch": 38, "duration": 10, "velocity": 22}, {"time": 25680, "pitch": 42, "duration": 10, "velocity": 64}, {"time": 25680, "pitch": 56, "duration": 10, "velocity": 36}, {"time": 25680, "pitch": 68, "duration": 10, "velocity": 78}, {"time": 25680, "pitch": 69, "duration": 10, "velocity": 50}, {"time": 25680, "pitch": 70, "duration": 10, "velocity": 78}, {"time": 25680, "pitch": 72, "duration": 100, "velocity": 64}, {"time": 25740, "pitch": 38, "duration": 10, "velocity": 36}, {"time": 25800, "pitch": 38, "duration": 10, "velocity": 22}, {"time": 25800, "pitch": 70, "duration": 10, "velocity": 36}, {"time": 25820, "pitch": 56, "duration": 10, "velocity": 22}, {"time": 25820, "pitch": 68, "duration": 10, "velocity": 92}, {"time": 25820, "pitch": 69, "duration": 10, "velocity": 36}, {"time": 25820, "pitch": 72, "duration": 100, "velocity": 64}, {"time": 25860, "pitch": 38, "duration": 10, "velocity": 22}, {"time": 25920, "pitch": 38, "duration": 10, "velocity": 50}, {"time": 25920, "pitch": 42, "duration": 10, "velocity": 64}, {"time": 25920, "pitch": 68, "duration": 10, "velocity": 92}, {"time": 25920, "pitch": 69, "duration": 10, "velocity": 64}, {"time": 25920, "pitch": 70, "duration": 10, "velocity": 78}, {"time": 25920, "pitch": 72, "duration": 720, "velocity": 78}, {"time": 26040, "pitch": 38, "duration": 10, "velocity": 22}, {"time": 26040, "pitch": 70, "duration": 10, "velocity": 36}, {"time": 26060, "pitch": 69, "duration": 10, "velocity": 36}, {"time": 26160, "pitch": 28, "duration": 10, "velocity": 64}, {"time": 26160, "pitch": 37, "duration": 10, "velocity": 106}, {"time": 26160, "pitch": 38, "duration": 10, "velocity": 78}, {"time": 26160, "pitch": 42, "duration": 10, "velocity": 92}, {"time": 26160, "pitch": 56, "duration": 10, "velocity": 64}, {"time": 26160, "pitch": 67, "duration": 10, "velocity": 92}, {"time": 26160, "pitch": 69, "duration": 10, "velocity": 50}, {"time": 26160, "pitch": 70, "duration": 10, "velocity": 78}, {"time": 26280, "pitch": 38, "duration": 10, "velocity": 22}, {"time": 26280, "pitch": 70, "duration": 10, "velocity": 36}, {"time": 26300, "pitch": 56, "duration": 10, "velocity": 36}, {"time": 26300, "pitch": 69, "duration": 10, "velocity": 36}, {"time": 26400, "pitch": 38, "duration": 10, "velocity": 50}, {"time": 26400, "pitch": 39, "duration": 10, "velocity": 120}, {"time": 26400, "pitch": 40, "duration": 10, "velocity": 106}, {"time": 26400, "pitch": 42, "duration": 10, "velocity": 92}, {"time": 26400, "pitch": 56, "duration": 10, "velocity": 50}, {"time": 26400, "pitch": 57, "duration": 10, "velocity": 92}, {"time": 26400, "pitch": 67, "duration": 10, "velocity": 92}, {"time": 26400, "pitch": 69, "duration": 10, "velocity": 64}, {"time": 26400, "pitch": 70, "duration": 10, "velocity": 78}, {"time": 26460, "pitch": 38, "duration": 10, "velocity": 36}, {"time": 26520, "pitch": 28, "duration": 10, "velocity": 64}, {"time": 26520, "pitch": 37, "duration": 10, "velocity": 106}, {"time": 26520, "pitch": 38, "duration": 10, "velocity": 36}, {"time": 26520, "pitch": 70, "duration": 10, "velocity": 36}, {"time": 26540, "pitch": 56, "duration": 10, "velocity": 36}, {"time": 26540, "pitch": 68, "duration": 10, "velocity": 64}, {"time": 26540, "pitch": 69, "duration": 10, "velocity": 36}, {"time": 26580, "pitch": 38, "duration": 10, "velocity": 36}, {"time": 26640, "pitch": 38, "duration": 10, "velocity": 22}, {"time": 26640, "pitch": 42, "duration": 10, "velocity": 64}, {"time": 26640, "pitch": 56, "duration": 10, "velocity": 22}, {"time": 26640, "pitch": 69, "duration": 10, "velocity": 50}, {"time": 26640, "pitch": 70, "duration": 10, "velocity": 78}, {"time": 26700, "pitch": 38, "duration": 10, "velocity": 36}, {"time": 26760, "pitch": 38, "duration": 10, "velocity": 22}, {"time": 26760, "pitch": 70, "duration": 10, "velocity": 36}, {"time": 26780, "pitch": 56, "duration": 10, "velocity": 22}, {"time": 26780, "pitch": 68, "duration": 10, "velocity": 92}, {"time": 26780, "pitch": 69, "duration": 10, "velocity": 36}, {"time": 26820, "pitch": 38, "duration": 10, "velocity": 22}, {"time": 26880, "pitch": 28, "duration": 10, "velocity": 64}, {"time": 26880, "pitch": 37, "duration": 10, "velocity": 106}, {"time": 26880, "pitch": 38, "duration": 10, "velocity": 36}, {"time": 26880, "pitch": 42, "duration": 10, "velocity": 92}, {"time": 26880, "pitch": 56, "duration": 10, "velocity": 64}, {"time": 26880, "pitch": 69, "duration": 10, "velocity": 64}, {"time": 26880, "pitch": 70, "duration": 10, "velocity": 78}, {"time": 27000, "pitch": 38, "duration": 10, "velocity": 22}, {"time": 27000, "pitch": 70, "duration": 10, "velocity": 36}, {"time": 27020, "pitch": 56, "duration": 10, "velocity": 22}, {"time": 27020, "pitch": 67, "duration": 10, "velocity": 92}, {"time": 27020, "pitch": 69, "duration": 10, "velocity": 36}, {"time": 27020, "pitch": 72, "duration": 80, "velocity": 78}, {"time": 27120, "pitch": 38, "duration": 10, "velocity": 78}, {"time": 27120, "pitch": 42, "duration": 10, "velocity": 64}, {"time": 27120, "pitch": 56, "duration": 10, "velocity": 22}, {"time": 27120, "pitch": 69, "duration": 10, "velocity": 50}, {"time": 27120, "pitch": 70, "duration": 10, "velocity": 78}, {"time": 27120, "pitch": 72, "duration": 90, "velocity": 78}, {"time": 27240, "pitch": 28, "duration": 10, "velocity": 64}, {"time": 27240, "pitch": 37, "duration": 10, "velocity": 106}, {"time": 27240, "pitch": 38, "duration": 10, "velocity": 36}, {"time": 27240, "pitch": 70, "duration": 10, "velocity": 36}, {"time": 27260, "pitch": 56, "duration": 10, "velocity": 64}, {"time": 27260, "pitch": 67, "duration": 10, "velocity": 64}, {"time": 27260, "pitch": 69, "duration": 10, "velocity": 36}, {"time": 27260, "pitch": 72, "duration": 90, "velocity": 78}, {"time": 27360, "pitch": 38, "duration": 10, "velocity": 50}, {"time": 27360, "pitch": 39, "duration": 10, "velocity": 120}, {"time": 27360, "pitch": 40, "duration": 10, "velocity": 106}, {"time": 27360, "pitch": 42, "duration": 10, "velocity": 92}, {"time": 27360, "pitch": 56, "duration": 10, "velocity": 22}, {"time": 27360, "pitch": 67, "duration": 10, "velocity": 92}, {"time": 27360, "pitch": 69, "duration": 10, "velocity": 64}, {"time": 27360, "pitch": 70, "duration": 10, "velocity": 78}, {"time": 27360, "pitch": 72, "duration": 230, "velocity": 78}, {"time": 27420, "pitch": 38, "duration": 10, "velocity": 36}, {"time": 27480, "pitch": 38, "duration": 10, "velocity": 36}, {"time": 27480, "pitch": 70, "duration": 10, "velocity": 36}, {"time": 27500, "pitch": 56, "duration": 10, "velocity": 22}, {"time": 27500, "pitch": 69, "duration": 10, "velocity": 36}, {"time": 27540, "pitch": 38, "duration": 10, "velocity": 36}, {"time": 27600, "pitch": 28, "duration": 10, "velocity": 64}, {"time": 27600, "pitch": 37, "duration": 10, "velocity": 106}, {"time": 27600, "pitch": 38, "duration": 10, "velocity": 22}, {"time": 27600, "pitch": 42, "duration": 10, "velocity": 64}, {"time": 27600, "pitch": 56, "duration": 10, "velocity": 36}, {"time": 27600, "pitch": 68, "duration": 10, "velocity": 78}, {"time": 27600, "pitch": 69, "duration": 10, "velocity": 22}, {"time": 27600, "pitch": 70, "duration": 10, "velocity": 78}, {"time": 27600, "pitch": 72, "duration": 100, "velocity": 78}, {"time": 27630, "pitch": 69, "duration": 10, "velocity": 36}, {"time": 27660, "pitch": 38, "duration": 10, "velocity": 36}, {"time": 27660, "pitch": 69, "duration": 10, "velocity": 36}, {"time": 27690, "pitch": 69, "duration": 10, "velocity": 50}, {"time": 27720, "pitch": 38, "duration": 10, "velocity": 22}, {"time": 27720, "pitch": 56, "duration": 10, "velocity": 22}, {"time": 27720, "pitch": 68, "duration": 10, "velocity": 92}, {"time": 27720, "pitch": 69, "duration": 10, "velocity": 50}, {"time": 27720, "pitch": 70, "duration": 10, "velocity": 36}, {"time": 27750, "pitch": 69, "duration": 10, "velocity": 64}, {"time": 27780, "pitch": 38, "duration": 10, "velocity": 22}, {"time": 27780, "pitch": 69, "duration": 10, "velocity": 64}, {"time": 27810, "pitch": 69, "duration": 10, "velocity": 64}, {"time": 27840, "pitch": 38, "duration": 10, "velocity": 50}, {"time": 27840, "pitch": 42, "duration": 10, "velocity": 64}, {"time": 27840, "pitch": 49, "duration": 10, "velocity": 92}, {"time": 27840, "pitch": 68, "duration": 10, "velocity": 92}, {"time": 27840, "pitch": 69, "duration": 10, "velocity": 64}, {"time": 27840, "pitch": 70, "duration": 10, "velocity": 78}, {"time": 27960, "pitch": 38, "duration": 10, "velocity": 22}, {"time": 27960, "pitch": 70, "duration": 10, "velocity": 36}, {"time": 27980, "pitch": 69, "duration": 10, "velocity": 36}, {"time": 28080, "pitch": 28, "duration": 10, "velocity": 64}, {"time": 28080, "pitch": 37, "duration": 10, "velocity": 106}, {"time": 28080, "pitch": 38, "duration": 10, "velocity": 78}, {"time": 28080, "pitch": 42, "duration": 10, "velocity": 92}, {"time": 28080, "pitch": 56, "duration": 10, "velocity": 64}, {"time": 28080, "pitch": 67, "duration": 10, "velocity": 92}, {"time": 28080, "pitch": 69, "duration": 10, "velocity": 50}, {"time": 28080, "pitch": 70, "duration": 10, "velocity": 78}, {"time": 28200, "pitch": 38, "duration": 10, "velocity": 22}, {"time": 28200, "pitch": 70, "duration": 10, "velocity": 36}, {"time": 28220, "pitch": 56, "duration": 10, "velocity": 36}, {"time": 28220, "pitch": 69, "duration": 10, "velocity": 36}, {"time": 28320, "pitch": 28, "duration": 10, "velocity": 64}, {"time": 28320, "pitch": 37, "duration": 10, "velocity": 106}, {"time": 28320, "pitch": 38, "duration": 10, "velocity": 50}, {"time": 28320, "pitch": 39, "duration": 10, "velocity": 120}, {"time": 28320, "pitch": 40, "duration": 10, "velocity": 106}, {"time": 28320, "pitch": 42, "duration": 10, "velocity": 92}, {"time": 28320, "pitch": 56, "duration": 10, "velocity": 50}, {"time": 28320, "pitch": 57, "duration": 10, "velocity": 92}, {"time": 28320, "pitch": 67, "duration": 10, "velocity": 92}, {"time": 28320, "pitch": 69, "duration": 10, "velocity": 64}, {"time": 28320, "pitch": 70, "duration": 10, "velocity": 78}, {"time": 28380, "pitch": 38, "duration": 10, "velocity": 36}, {"time": 28440, "pitch": 38, "duration": 10, "velocity": 36}, {"time": 28440, "pitch": 70, "duration": 10, "velocity": 36}, {"time": 28460, "pitch": 56, "duration": 10, "velocity": 36}, {"time": 28460, "pitch": 68, "duration": 10, "velocity": 64}, {"time": 28460, "pitch": 69, "duration": 10, "velocity": 36}, {"time": 28500, "pitch": 38, "duration": 10, "velocity": 36}, {"time": 28560, "pitch": 38, "duration": 10, "velocity": 22}, {"time": 28560, "pitch": 42, "duration": 10, "velocity": 64}, {"time": 28560, "pitch": 56, "duration": 10, "velocity": 22}, {"time": 28560, "pitch": 69, "duration": 10, "velocity": 50}, {"time": 28560, "pitch": 70, "duration": 10, "velocity": 78}, {"time": 28620, "pitch": 38, "duration": 10, "velocity": 36}, {"time": 28680, "pitch": 38, "duration": 10, "velocity": 22}, {"time": 28680, "pitch": 70, "duration": 10, "velocity": 36}, {"time": 28700, "pitch": 56, "duration": 10, "velocity": 22}, {"time": 28700, "pitch": 68, "duration": 10, "velocity": 92}, {"time": 28700, "pitch": 69, "duration": 10, "velocity": 36}, {"time": 28740, "pitch": 38, "duration": 10, "velocity": 22}, {"time": 28800, "pitch": 28, "duration": 10, "velocity": 64}, {"time": 28800, "pitch": 37, "duration": 10, "velocity": 106}, {"time": 28800, "pitch": 38, "duration": 10, "velocity": 36}, {"time": 28800, "pitch": 42, "duration": 10, "velocity": 92}, {"time": 28800, "pitch": 56, "duration": 10, "velocity": 64}, {"time": 28800, "pitch": 69, "duration": 10, "velocity": 64}, {"time": 28800, "pitch": 70, "duration": 10, "velocity": 78}, {"time": 28920, "pitch": 38, "duration": 10, "velocity": 22}, {"time": 28920, "pitch": 70, "duration": 10, "velocity": 36}, {"time": 28940, "pitch": 56, "duration": 10, "velocity": 22}, {"time": 28940, "pitch": 67, "duration": 10, "velocity": 92}, {"time": 28940, "pitch": 69, "duration": 10, "velocity": 36}, {"time": 28940, "pitch": 72, "duration": 210, "velocity": 78}, {"time": 29040, "pitch": 38, "duration": 10, "velocity": 78}, {"time": 29040, "pitch": 42, "duration": 10, "velocity": 64}, {"time": 29040, "pitch": 56, "duration": 10, "velocity": 22}, {"time": 29040, "pitch": 69, "duration": 10, "velocity": 50}, {"time": 29040, "pitch": 70, "duration": 10, "velocity": 78}, {"time": 29160, "pitch": 28, "duration": 10, "velocity": 64}, {"time": 29160, "pitch": 37, "duration": 10, "velocity": 106}, {"time": 29160, "pitch": 38, "duration": 10, "velocity": 36}, {"time": 29160, "pitch": 70, "duration": 10, "velocity": 36}, {"time": 29180, "pitch": 56, "duration": 10, "velocity": 64}, {"time": 29180, "pitch": 67, "duration": 10, "velocity": 64}, {"time": 29180, "pitch": 69, "duration": 10, "velocity": 36}, {"time": 29180, "pitch": 72, "duration": 90, "velocity": 64}, {"time": 29280, "pitch": 38, "duration": 10, "velocity": 50}, {"time": 29280, "pitch": 39, "duration": 10, "velocity": 120}, {"time": 29280, "pitch": 40, "duration": 10, "velocity": 106}, {"time": 29280, "pitch": 42, "duration": 10, "velocity": 92}, {"time": 29280, "pitch": 56, "duration": 10, "velocity": 22}, {"time": 29280, "pitch": 67, "duration": 10, "velocity": 92}, {"time": 29280, "pitch": 69, "duration": 10, "velocity": 64}, {"time": 29280, "pitch": 70, "duration": 10, "velocity": 78}, {"time": 29280, "pitch": 72, "duration": 240, "velocity": 78}, {"time": 29340, "pitch": 38, "duration": 10, "velocity": 36}, {"time": 29400, "pitch": 38, "duration": 10, "velocity": 36}, {"time": 29400, "pitch": 70, "duration": 10, "velocity": 36}, {"time": 29420, "pitch": 56, "duration": 10, "velocity": 22}, {"time": 29420, "pitch": 69, "duration": 10, "velocity": 36}, {"time": 29460, "pitch": 38, "duration": 10, "velocity": 36}, {"time": 29520, "pitch": 28, "duration": 10, "velocity": 64}, {"time": 29520, "pitch": 37, "duration": 10, "velocity": 106}, {"time": 29520, "pitch": 38, "duration": 10, "velocity": 22}, {"time": 29520, "pitch": 42, "duration": 10, "velocity": 64}, {"time": 29520, "pitch": 56, "duration": 10, "velocity": 36}, {"time": 29520, "pitch": 68, "duration": 10, "velocity": 78}, {"time": 29520, "pitch": 69, "duration": 10, "velocity": 50}, {"time": 29520, "pitch": 70, "duration": 10, "velocity": 78}, {"time": 29580, "pitch": 38, "duration": 10, "velocity": 36}, {"time": 29640, "pitch": 38, "duration": 10, "velocity": 22}, {"time": 29640, "pitch": 70, "duration": 10, "velocity": 36}, {"time": 29660, "pitch": 56, "duration": 10, "velocity": 22}, {"time": 29660, "pitch": 68, "duration": 10, "velocity": 92}, {"time": 29660, "pitch": 69, "duration": 10, "velocity": 36}, {"time": 29700, "pitch": 38, "duration": 10, "velocity": 22}, {"time": 29760, "pitch": 42, "duration": 10, "velocity": 64}, {"time": 29760, "pitch": 57, "duration": 10, "velocity": 92}, {"time": 29760, "pitch": 68, "duration": 10, "velocity": 92}, {"time": 29760, "pitch": 69, "duration": 10, "velocity": 64}, {"time": 29760, "pitch": 70, "duration": 10, "velocity": 78}, {"time": 29900, "pitch": 38, "duration": 10, "velocity": 36}, {"time": 29900, "pitch": 40, "duration": 10, "velocity": 64}, {"time": 29900, "pitch": 69, "duration": 10, "velocity": 36}, {"time": 29900, "pitch": 70, "duration": 10, "velocity": 36}, {"time": 29900, "pitch": 78, "duration": 10, "velocity": 50}, {"time": 30000, "pitch": 28, "duration": 10, "velocity": 64}, {"time": 30000, "pitch": 37, "duration": 10, "velocity": 106}, {"time": 30000, "pitch": 42, "duration": 10, "velocity": 92}, {"time": 30000, "pitch": 56, "duration": 10, "velocity": 64}, {"time": 30000, "pitch": 67, "duration": 10, "velocity": 92}, {"time": 30000, "pitch": 69, "duration": 10, "velocity": 50}, {"time": 30000, "pitch": 70, "duration": 10, "velocity": 78}, {"time": 30140, "pitch": 38, "duration": 10, "velocity": 64}, {"time": 30140, "pitch": 40, "duration": 10, "velocity": 78}, {"time": 30140, "pitch": 56, "duration": 10, "velocity": 36}, {"time": 30140, "pitch": 69, "duration": 10, "velocity": 36}, {"time": 30140, "pitch": 70, "duration": 10, "velocity": 36}, {"time": 30140, "pitch": 78, "duration": 10, "velocity": 50}, {"time": 30240, "pitch": 39, "duration": 10, "velocity": 120}, {"time": 30240, "pitch": 42, "duration": 10, "velocity": 92}, {"time": 30240, "pitch": 56, "duration": 10, "velocity": 50}, {"time": 30240, "pitch": 67, "duration": 10, "velocity": 92}, {"time": 30240, "pitch": 69, "duration": 10, "velocity": 64}, {"time": 30240, "pitch": 70, "duration": 10, "velocity": 78}, {"time": 30380, "pitch": 28, "duration": 10, "velocity": 64}, {"time": 30380, "pitch": 37, "duration": 10, "velocity": 106}, {"time": 30380, "pitch": 38, "duration": 10, "velocity": 78}, {"time": 30380, "pitch": 40, "duration": 10, "velocity": 106}, {"time": 30380, "pitch": 56, "duration": 10, "velocity": 36}, {"time": 30380, "pitch": 68, "duration": 10, "velocity": 64}, {"time": 30380, "pitch": 69, "duration": 10, "velocity": 36}, {"time": 30380, "pitch": 70, "duration": 10, "velocity": 36}, {"time": 30380, "pitch": 78, "duration": 10, "velocity": 50}, {"time": 30480, "pitch": 42, "duration": 10, "velocity": 64}, {"time": 30480, "pitch": 56, "duration": 10, "velocity": 22}, {"time": 30480, "pitch": 69, "duration": 10, "velocity": 50}, {"time": 30480, "pitch": 70, "duration": 10, "velocity": 78}, {"time": 30620, "pitch": 38, "duration": 10, "velocity": 64}, {"time": 30620, "pitch": 40, "duration": 10, "velocity": 64}, {"time": 30620, "pitch": 56, "duration": 10, "velocity": 22}, {"time": 30620, "pitch": 68, "duration": 10, "velocity": 92}, {"time": 30620, "pitch": 69, "duration": 10, "velocity": 36}, {"time": 30620, "pitch": 70, "duration": 10, "velocity": 36}, {"time": 30620, "pitch": 78, "duration": 10, "velocity": 50}, {"time": 30720, "pitch": 28, "duration": 10, "velocity": 64}, {"time": 30720, "pitch": 37, "duration": 10, "velocity": 106}, {"time": 30720, "pitch": 38, "duration": 10, "velocity": 64}, {"time": 30720, "pitch": 40, "duration": 10, "velocity": 106}, {"time": 30720, "pitch": 42, "duration": 10, "velocity": 92}, {"time": 30720, "pitch": 56, "duration": 10, "velocity": 64}, {"time": 30720, "pitch": 69, "duration": 10, "velocity": 64}, {"time": 30720, "pitch": 70, "duration": 10, "velocity": 78}, {"time": 30720, "pitch": 78, "duration": 10, "velocity": 50}, {"time": 30860, "pitch": 38, "duration": 10, "velocity": 78}, {"time": 30860, "pitch": 40, "duration": 10, "velocity": 120}, {"time": 30860, "pitch": 56, "duration": 10, "velocity": 22}, {"time": 30860, "pitch": 67, "duration": 10, "velocity": 92}, {"time": 30860, "pitch": 69, "duration": 10, "velocity": 36}, {"time": 30860, "pitch": 70, "duration": 10, "velocity": 36}, {"time": 30860, "pitch": 78, "duration": 10, "velocity": 50}, {"time": 30960, "pitch": 42, "duration": 10, "velocity": 64}, {"time": 30960, "pitch": 56, "duration": 10, "velocity": 22}, {"time": 30960, "pitch": 69, "duration": 10, "velocity": 50}, {"time": 30960, "pitch": 70, "duration": 10, "velocity": 78}, {"time": 31090, "pitch": 28, "duration": 10, "velocity": 64}, {"time": 31090, "pitch": 37, "duration": 10, "velocity": 106}, {"time": 31090, "pitch": 38, "duration": 10, "velocity": 64}, {"time": 31090, "pitch": 40, "duration": 10, "velocity": 106}, {"time": 31090, "pitch": 70, "duration": 10, "velocity": 36}, {"time": 31100, "pitch": 56, "duration": 10, "velocity": 64}, {"time": 31100, "pitch": 67, "duration": 10, "velocity": 64}, {"time": 31100, "pitch": 69, "duration": 10, "velocity": 36}, {"time": 31100, "pitch": 78, "duration": 10, "velocity": 50}, {"time": 31200, "pitch": 38, "duration": 10, "velocity": 78}, {"time": 31200, "pitch": 39, "duration": 10, "velocity": 120}, {"time": 31200, "pitch": 40, "duration": 10, "velocity": 120}, {"time": 31200, "pitch": 42, "duration": 10, "velocity": 92}, {"time": 31200, "pitch": 56, "duration": 10, "velocity": 22}, {"time": 31200, "pitch": 67, "duration": 10, "velocity": 92}, {"time": 31200, "pitch": 69, "duration": 10, "velocity": 64}, {"time": 31200, "pitch": 70, "duration": 10, "velocity": 78}, {"time": 31200, "pitch": 78, "duration": 10, "velocity": 50}, {"time": 31340, "pitch": 56, "duration": 10, "velocity": 22}, {"time": 31340, "pitch": 69, "duration": 10, "velocity": 36}, {"time": 31340, "pitch": 70, "duration": 10, "velocity": 36}, {"time": 31440, "pitch": 28, "duration": 10, "velocity": 64}, {"time": 31440, "pitch": 37, "duration": 10, "velocity": 106}, {"time": 31440, "pitch": 42, "duration": 10, "velocity": 64}, {"time": 31440, "pitch": 56, "duration": 10, "velocity": 36}, {"time": 31440, "pitch": 68, "duration": 10, "velocity": 78}, {"time": 31440, "pitch": 69, "duration": 10, "velocity": 22}, {"time": 31440, "pitch": 70, "duration": 10, "velocity": 78}, {"time": 31470, "pitch": 69, "duration": 10, "velocity": 36}, {"time": 31500, "pitch": 69, "duration": 10, "velocity": 36}, {"time": 31530, "pitch": 69, "duration": 10, "velocity": 50}, {"time": 31560, "pitch": 56, "duration": 10, "velocity": 22}, {"time": 31560, "pitch": 68, "duration": 10, "velocity": 92}, {"time": 31560, "pitch": 69, "duration": 10, "velocity": 50}, {"time": 31580, "pitch": 70, "duration": 10, "velocity": 36}, {"time": 31590, "pitch": 69, "duration": 10, "velocity": 64}, {"time": 31620, "pitch": 69, "duration": 10, "velocity": 64}, {"time": 31650, "pitch": 69, "duration": 10, "velocity": 64}, {"time": 31680, "pitch": 42, "duration": 10, "velocity": 64}, {"time": 31680, "pitch": 57, "duration": 10, "velocity": 78}, {"time": 31680, "pitch": 68, "duration": 10, "velocity": 92}, {"time": 31680, "pitch": 69, "duration": 10, "velocity": 64}, {"time": 31820, "pitch": 69, "duration": 10, "velocity": 36}, {"time": 31920, "pitch": 28, "duration": 10, "velocity": 64}, {"time": 31920, "pitch": 37, "duration": 10, "velocity": 106}, {"time": 31920, "pitch": 42, "duration": 10, "velocity": 92}, {"time": 31920, "pitch": 56, "duration": 10, "velocity": 64}, {"time": 31920, "pitch": 67, "duration": 10, "velocity": 92}, {"time": 31920, "pitch": 69, "duration": 10, "velocity": 50}, {"time": 32060, "pitch": 56, "duration": 10, "velocity": 36}, {"time": 32060, "pitch": 69, "duration": 10, "velocity": 36}, {"time": 32160, "pitch": 28, "duration": 10, "velocity": 64}, {"time": 32160, "pitch": 37, "duration": 10, "velocity": 106}, {"time": 32160, "pitch": 42, "duration": 10, "velocity": 92}, {"time": 32160, "pitch": 56, "duration": 10, "velocity": 50}, {"time": 32160, "pitch": 67, "duration": 10, "velocity": 92}, {"time": 32160, "pitch": 69, "duration": 10, "velocity": 64}, {"time": 32300, "pitch": 56, "duration": 10, "velocity": 36}, {"time": 32300, "pitch": 68, "duration": 10, "velocity": 64}, {"time": 32300, "pitch": 69, "duration": 10, "velocity": 36}, {"time": 32400, "pitch": 42, "duration": 10, "velocity": 64}, {"time": 32400, "pitch": 56, "duration": 10, "velocity": 22}, {"time": 32400, "pitch": 69, "duration": 10, "velocity": 50}, {"time": 32540, "pitch": 56, "duration": 10, "velocity": 22}, {"time": 32540, "pitch": 68, "duration": 10, "velocity": 92}, {"time": 32540, "pitch": 69, "duration": 10, "velocity": 36}, {"time": 32640, "pitch": 28, "duration": 10, "velocity": 64}, {"time": 32640, "pitch": 37, "duration": 10, "velocity": 106}, {"time": 32640, "pitch": 42, "duration": 10, "velocity": 92}, {"time": 32640, "pitch": 56, "duration": 10, "velocity": 64}, {"time": 32640, "pitch": 69, "duration": 10, "velocity": 64}, {"time": 32780, "pitch": 56, "duration": 10, "velocity": 22}, {"time": 32780, "pitch": 67, "duration": 10, "velocity": 92}, {"time": 32780, "pitch": 69, "duration": 10, "velocity": 36}, {"time": 32880, "pitch": 42, "duration": 10, "velocity": 64}, {"time": 32880, "pitch": 56, "duration": 10, "velocity": 22}, {"time": 32880, "pitch": 69, "duration": 10, "velocity": 50}, {"time": 33000, "pitch": 28, "duration": 10, "velocity": 64}, {"time": 33000, "pitch": 37, "duration": 10, "velocity": 106}, {"time": 33020, "pitch": 56, "duration": 10, "velocity": 64}, {"time": 33020, "pitch": 67, "duration": 10, "velocity": 64}, {"time": 33020, "pitch": 69, "duration": 10, "velocity": 36}, {"time": 33120, "pitch": 42, "duration": 10, "velocity": 92}, {"time": 33120, "pitch": 56, "duration": 10, "velocity": 22}, {"time": 33120, "pitch": 67, "duration": 10, "velocity": 92}, {"time": 33120, "pitch": 69, "duration": 10, "velocity": 64}, {"time": 33260, "pitch": 56, "duration": 10, "velocity": 22}, {"time": 33260, "pitch": 69, "duration": 10, "velocity": 36}, {"time": 33360, "pitch": 28, "duration": 10, "velocity": 64}, {"time": 33360, "pitch": 37, "duration": 10, "velocity": 106}, {"time": 33360, "pitch": 42, "duration": 10, "velocity": 64}, {"time": 33360, "pitch": 56, "duration": 10, "velocity": 36}, {"time": 33360, "pitch": 68, "duration": 10, "velocity": 78}, {"time": 33360, "pitch": 69, "duration": 10, "velocity": 50}, {"time": 33500, "pitch": 56, "duration": 10, "velocity": 22}, {"time": 33500, "pitch": 68, "duration": 10, "velocity": 92}, {"time": 33500, "pitch": 69, "duration": 10, "velocity": 36}, {"time": 33600, "pitch": 42, "duration": 10, "velocity": 64}, {"time": 33600, "pitch": 68, "duration": 10, "velocity": 92}, {"time": 33600, "pitch": 69, "duration": 10, "velocity": 64}, {"time": 33740, "pitch": 69, "duration": 10, "velocity": 36}, {"time": 33840, "pitch": 28, "duration": 10, "velocity": 64}, {"time": 33840, "pitch": 37, "duration": 10, "velocity": 106}, {"time": 33840, "pitch": 42, "duration": 10, "velocity": 92}, {"time": 33840, "pitch": 56, "duration": 10, "velocity": 64}, {"time": 33840, "pitch": 67, "duration": 10, "velocity": 92}, {"time": 33840, "pitch": 69, "duration": 10, "velocity": 50}, {"time": 33980, "pitch": 56, "duration": 10, "velocity": 36}, {"time": 33980, "pitch": 69, "duration": 10, "velocity": 36}, {"time": 34080, "pitch": 42, "duration": 10, "velocity": 92}, {"time": 34080, "pitch": 56, "duration": 10, "velocity": 50}, {"time": 34080, "pitch": 67, "duration": 10, "velocity": 92}, {"time": 34080, "pitch": 69, "duration": 10, "velocity": 64}, {"time": 34200, "pitch": 28, "duration": 10, "velocity": 64}, {"time": 34200, "pitch": 37, "duration": 10, "velocity": 106}, {"time": 34220, "pitch": 56, "duration": 10, "velocity": 36}, {"time": 34220, "pitch": 68, "duration": 10, "velocity": 64}, {"time": 34220, "pitch": 69, "duration": 10, "velocity": 36}, {"time": 34320, "pitch": 42, "duration": 10, "velocity": 64}, {"time": 34320, "pitch": 56, "duration": 10, "velocity": 22}, {"time": 34320, "pitch": 69, "duration": 10, "velocity": 50}, {"time": 34460, "pitch": 56, "duration": 10, "velocity": 22}, {"time": 34460, "pitch": 68, "duration": 10, "velocity": 92}, {"time": 34460, "pitch": 69, "duration": 10, "velocity": 36}, {"time": 34560, "pitch": 28, "duration": 10, "velocity": 64}, {"time": 34560, "pitch": 37, "duration": 10, "velocity": 106}, {"time": 34560, "pitch": 42, "duration": 10, "velocity": 92}, {"time": 34560, "pitch": 56, "duration": 10, "velocity": 64}, {"time": 34560, "pitch": 69, "duration": 10, "velocity": 64}, {"time": 34700, "pitch": 56, "duration": 10, "velocity": 22}, {"time": 34700, "pitch": 67, "duration": 10, "velocity": 92}, {"time": 34700, "pitch": 69, "duration": 10, "velocity": 36}, {"time": 34800, "pitch": 42, "duration": 10, "velocity": 64}, {"time": 34800, "pitch": 56, "duration": 10, "velocity": 22}, {"time": 34800, "pitch": 69, "duration": 10, "velocity": 50}, {"time": 34920, "pitch": 28, "duration": 10, "velocity": 64}, {"time": 34920, "pitch": 37, "duration": 10, "velocity": 106}, {"time": 34940, "pitch": 56, "duration": 10, "velocity": 64}, {"time": 34940, "pitch": 67, "duration": 10, "velocity": 64}, {"time": 34940, "pitch": 69, "duration": 10, "velocity": 36}, {"time": 35040, "pitch": 42, "duration": 10, "velocity": 92}, {"time": 35040, "pitch": 56, "duration": 10, "velocity": 22}, {"time": 35040, "pitch": 67, "duration": 10, "velocity": 92}, {"time": 35040, "pitch": 69, "duration": 10, "velocity": 64}, {"time": 35180, "pitch": 56, "duration": 10, "velocity": 22}, {"time": 35180, "pitch": 69, "duration": 10, "velocity": 36}, {"time": 35280, "pitch": 28, "duration": 10, "velocity": 64}, {"time": 35280, "pitch": 37, "duration": 10, "velocity": 106}, {"time": 35280, "pitch": 42, "duration": 10, "velocity": 64}, {"time": 35280, "pitch": 56, "duration": 10, "velocity": 36}, {"time": 35280, "pitch": 68, "duration": 10, "velocity": 78}, {"time": 35280, "pitch": 69, "duration": 10, "velocity": 22}, {"time": 35310, "pitch": 69, "duration": 10, "velocity": 36}, {"time": 35340, "pitch": 69, "duration": 10, "velocity": 36}, {"time": 35370, "pitch": 69, "duration": 10, "velocity": 50}, {"time": 35400, "pitch": 56, "duration": 10, "velocity": 22}, {"time": 35400, "pitch": 68, "duration": 10, "velocity": 92}, {"time": 35400, "pitch": 69, "duration": 10, "velocity": 50}, {"time": 35430, "pitch": 69, "duration": 10, "velocity": 64}, {"time": 35460, "pitch": 69, "duration": 10, "velocity": 64}, {"time": 35490, "pitch": 69, "duration": 10, "velocity": 64}, {"time": 35520, "pitch": 42, "duration": 10, "velocity": 64}, {"time": 35520, "pitch": 68, "duration": 10, "velocity": 92}, {"time": 35520, "pitch": 69, "duration": 10, "velocity": 64}, {"time": 35660, "pitch": 69, "duration": 10, "velocity": 36}, {"time": 35760, "pitch": 28, "duration": 10, "velocity": 64}, {"time": 35760, "pitch": 37, "duration": 10, "velocity": 106}, {"time": 35760, "pitch": 42, "duration": 10, "velocity": 92}, {"time": 35760, "pitch": 56, "duration": 10, "velocity": 64}, {"time": 35760, "pitch": 67, "duration": 10, "velocity": 92}, {"time": 35760, "pitch": 69, "duration": 10, "velocity": 50}, {"time": 35900, "pitch": 56, "duration": 10, "velocity": 36}, {"time": 35900, "pitch": 69, "duration": 10, "velocity": 36}, {"time": 36000, "pitch": 28, "duration": 10, "velocity": 64}, {"time": 36000, "pitch": 37, "duration": 10, "velocity": 106}, {"time": 36000, "pitch": 42, "duration": 10, "velocity": 92}, {"time": 36000, "pitch": 56, "duration": 10, "velocity": 50}, {"time": 36000, "pitch": 67, "duration": 10, "velocity": 92}, {"time": 36000, "pitch": 69, "duration": 10, "velocity": 64}, {"time": 36140, "pitch": 56, "duration": 10, "velocity": 36}, {"time": 36140, "pitch": 68, "duration": 10, "velocity": 64}, {"time": 36140, "pitch": 69, "duration": 10, "velocity": 36}, {"time": 36240, "pitch": 42, "duration": 10, "velocity": 64}, {"time": 36240, "pitch": 56, "duration": 10, "velocity": 22}, {"time": 36240, "pitch": 69, "duration": 10, "velocity": 50}, {"time": 36380, "pitch": 56, "duration": 10, "velocity": 22}, {"time": 36380, "pitch": 68, "duration": 10, "velocity": 92}, {"time": 36380, "pitch": 69, "duration": 10, "velocity": 36}, {"time": 36480, "pitch": 28, "duration": 10, "velocity": 64}, {"time": 36480, "pitch": 37, "duration": 10, "velocity": 106}, {"time": 36480, "pitch": 42, "duration": 10, "velocity": 92}, {"time": 36480, "pitch": 56, "duration": 10, "velocity": 64}, {"time": 36480, "pitch": 69, "duration": 10, "velocity": 64}, {"time": 36620, "pitch": 56, "duration": 10, "velocity": 22}, {"time": 36620, "pitch": 67, "duration": 10, "velocity": 92}, {"time": 36620, "pitch": 69, "duration": 10, "velocity": 36}, {"time": 36720, "pitch": 42, "duration": 10, "velocity": 64}, {"time": 36720, "pitch": 56, "duration": 10, "velocity": 22}, {"time": 36720, "pitch": 69, "duration": 10, "velocity": 50}, {"time": 36840, "pitch": 28, "duration": 10, "velocity": 64}, {"time": 36840, "pitch": 37, "duration": 10, "velocity": 106}, {"time": 36860, "pitch": 56, "duration": 10, "velocity": 64}, {"time": 36860, "pitch": 67, "duration": 10, "velocity": 64}, {"time": 36860, "pitch": 69, "duration": 10, "velocity": 36}, {"time": 36960, "pitch": 42, "duration": 10, "velocity": 92}, {"time": 36960, "pitch": 56, "duration": 10, "velocity": 22}, {"time": 36960, "pitch": 67, "duration": 10, "velocity": 92}, {"time": 36960, "pitch": 69, "duration": 10, "velocity": 64}, {"time": 37100, "pitch": 56, "duration": 10, "velocity": 22}, {"time": 37100, "pitch": 69, "duration": 10, "velocity": 36}, {"time": 37200, "pitch": 28, "duration": 10, "velocity": 64}, {"time": 37200, "pitch": 37, "duration": 10, "velocity": 106}, {"time": 37200, "pitch": 42, "duration": 10, "velocity": 64}, {"time": 37200, "pitch": 56, "duration": 10, "velocity": 36}, {"time": 37200, "pitch": 68, "duration": 10, "velocity": 78}, {"time": 37200, "pitch": 69, "duration": 10, "velocity": 50}, {"time": 37340, "pitch": 56, "duration": 10, "velocity": 22}, {"time": 37340, "pitch": 68, "duration": 10, "velocity": 92}, {"time": 37340, "pitch": 69, "duration": 10, "velocity": 36}, {"time": 37440, "pitch": 42, "duration": 10, "velocity": 64}, {"time": 37440, "pitch": 68, "duration": 10, "velocity": 92}, {"time": 37440, "pitch": 69, "duration": 10, "velocity": 64}, {"time": 37580, "pitch": 69, "duration": 10, "velocity": 36}, {"time": 37680, "pitch": 28, "duration": 10, "velocity": 64}, {"time": 37680, "pitch": 37, "duration": 10, "velocity": 106}, {"time": 37680, "pitch": 42, "duration": 10, "velocity": 92}, {"time": 37680, "pitch": 56, "duration": 10, "velocity": 64}, {"time": 37680, "pitch": 67, "duration": 10, "velocity": 92}, {"time": 37680, "pitch": 69, "duration": 10, "velocity": 50}, {"time": 37820, "pitch": 56, "duration": 10, "velocity": 36}, {"time": 37820, "pitch": 69, "duration": 10, "velocity": 36}, {"time": 37920, "pitch": 42, "duration": 10, "velocity": 92}, {"time": 37920, "pitch": 56, "duration": 10, "velocity": 50}, {"time": 37920, "pitch": 67, "duration": 10, "velocity": 92}, {"time": 37920, "pitch": 69, "duration": 10, "velocity": 64}, {"time": 38040, "pitch": 28, "duration": 10, "velocity": 64}, {"time": 38040, "pitch": 37, "duration": 10, "velocity": 106}, {"time": 38060, "pitch": 56, "duration": 10, "velocity": 36}, {"time": 38060, "pitch": 68, "duration": 10, "velocity": 64}, {"time": 38060, "pitch": 69, "duration": 10, "velocity": 36}, {"time": 38160, "pitch": 42, "duration": 10, "velocity": 64}, {"time": 38160, "pitch": 56, "duration": 10, "velocity": 22}, {"time": 38160, "pitch": 69, "duration": 10, "velocity": 50}, {"time": 38300, "pitch": 56, "duration": 10, "velocity": 22}, {"time": 38300, "pitch": 68, "duration": 10, "velocity": 92}, {"time": 38300, "pitch": 69, "duration": 10, "velocity": 36}, {"time": 38400, "pitch": 28, "duration": 10, "velocity": 64}, {"time": 38400, "pitch": 37, "duration": 10, "velocity": 106}, {"time": 38400, "pitch": 42, "duration": 10, "velocity": 92}, {"time": 38400, "pitch": 56, "duration": 10, "velocity": 64}, {"time": 38400, "pitch": 69, "duration": 10, "velocity": 64}, {"time": 38540, "pitch": 56, "duration": 10, "velocity": 22}, {"time": 38540, "pitch": 67, "duration": 10, "velocity": 92}, {"time": 38540, "pitch": 69, "duration": 10, "velocity": 36}, {"time": 38640, "pitch": 42, "duration": 10, "velocity": 64}, {"time": 38640, "pitch": 56, "duration": 10, "velocity": 22}, {"time": 38640, "pitch": 69, "duration": 10, "velocity": 50}, {"time": 38760, "pitch": 28, "duration": 10, "velocity": 64}, {"time": 38760, "pitch": 37, "duration": 10, "velocity": 106}, {"time": 38780, "pitch": 56, "duration": 10, "velocity": 64}, {"time": 38780, "pitch": 67, "duration": 10, "velocity": 64}, {"time": 38780, "pitch": 69, "duration": 10, "velocity": 36}, {"time": 38880, "pitch": 42, "duration": 10, "velocity": 92}, {"time": 38880, "pitch": 56, "duration": 10, "velocity": 22}, {"time": 38880, "pitch": 67, "duration": 10, "velocity": 92}, {"time": 38880, "pitch": 69, "duration": 10, "velocity": 64}, {"time": 39020, "pitch": 56, "duration": 10, "velocity": 22}, {"time": 39020, "pitch": 69, "duration": 10, "velocity": 36}, {"time": 39120, "pitch": 28, "duration": 10, "velocity": 64}, {"time": 39120, "pitch": 37, "duration": 10, "velocity": 106}, {"time": 39120, "pitch": 42, "duration": 10, "velocity": 64}, {"time": 39120, "pitch": 56, "duration": 10, "velocity": 36}, {"time": 39120, "pitch": 68, "duration": 10, "velocity": 78}, {"time": 39120, "pitch": 69, "duration": 10, "velocity": 22}, {"time": 39150, "pitch": 69, "duration": 10, "velocity": 36}, {"time": 39180, "pitch": 69, "duration": 10, "velocity": 36}, {"time": 39210, "pitch": 69, "duration": 10, "velocity": 50}, {"time": 39240, "pitch": 56, "duration": 10, "velocity": 22}, {"time": 39240, "pitch": 68, "duration": 10, "velocity": 92}, {"time": 39240, "pitch": 69, "duration": 10, "velocity": 50}, {"time": 39270, "pitch": 69, "duration": 10, "velocity": 64}, {"time": 39300, "pitch": 69, "duration": 10, "velocity": 64}, {"time": 39330, "pitch": 69, "duration": 10, "velocity": 64}, {"time": 39360, "pitch": 42, "duration": 10, "velocity": 64}, {"time": 39360, "pitch": 57, "duration": 10, "velocity": 78}, {"time": 39360, "pitch": 68, "duration": 10, "velocity": 92}, {"time": 39360, "pitch": 69, "duration": 10, "velocity": 64}, {"time": 39360, "pitch": 70, "duration": 10, "velocity": 78}, {"time": 39480, "pitch": 70, "duration": 10, "velocity": 36}, {"time": 39500, "pitch": 69, "duration": 10, "velocity": 36}, {"time": 39600, "pitch": 28, "duration": 10, "velocity": 64}, {"time": 39600, "pitch": 37, "duration": 10, "velocity": 106}, {"time": 39600, "pitch": 42, "duration": 10, "velocity": 92}, {"time": 39600, "pitch": 56, "duration": 10, "velocity": 64}, {"time": 39600, "pitch": 67, "duration": 10, "velocity": 92}, {"time": 39600, "pitch": 69, "duration": 10, "velocity": 50}, {"time": 39600, "pitch": 70, "duration": 10, "velocity": 78}, {"time": 39720, "pitch": 70, "duration": 10, "velocity": 36}, {"time": 39740, "pitch": 56, "duration": 10, "velocity": 36}, {"time": 39740, "pitch": 69, "duration": 10, "velocity": 36}, {"time": 39840, "pitch": 28, "duration": 10, "velocity": 64}, {"time": 39840, "pitch": 37, "duration": 10, "velocity": 106}, {"time": 39840, "pitch": 42, "duration": 10, "velocity": 92}, {"time": 39840, "pitch": 56, "duration": 10, "velocity": 50}, {"time": 39840, "pitch": 67, "duration": 10, "velocity": 92}, {"time": 39840, "pitch": 69, "duration": 10, "velocity": 64}, {"time": 39840, "pitch": 70, "duration": 10, "velocity": 78}, {"time": 39960, "pitch": 70, "duration": 10, "velocity": 36}, {"time": 39980, "pitch": 56, "duration": 10, "velocity": 36}, {"time": 39980, "pitch": 68, "duration": 10, "velocity": 64}, {"time": 39980, "pitch": 69, "duration": 10, "velocity": 36}, {"time": 40080, "pitch": 42, "duration": 10, "velocity": 64}, {"time": 40080, "pitch": 56, "duration": 10, "velocity": 22}, {"time": 40080, "pitch": 69, "duration": 10, "velocity": 50}, {"time": 40080, "pitch": 70, "duration": 10, "velocity": 78}, {"time": 40200, "pitch": 70, "duration": 10, "velocity": 36}, {"time": 40220, "pitch": 56, "duration": 10, "velocity": 22}, {"time": 40220, "pitch": 68, "duration": 10, "velocity": 92}, {"time": 40220, "pitch": 69, "duration": 10, "velocity": 36}, {"time": 40320, "pitch": 28, "duration": 10, "velocity": 64}, {"time": 40320, "pitch": 37, "duration": 10, "velocity": 106}, {"time": 40320, "pitch": 42, "duration": 10, "velocity": 92}, {"time": 40320, "pitch": 56, "duration": 10, "velocity": 64}, {"time": 40320, "pitch": 69, "duration": 10, "velocity": 64}, {"time": 40320, "pitch": 70, "duration": 10, "velocity": 78}, {"time": 40440, "pitch": 70, "duration": 10, "velocity": 36}, {"time": 40460, "pitch": 56, "duration": 10, "velocity": 22}, {"time": 40460, "pitch": 67, "duration": 10, "velocity": 92}, {"time": 40460, "pitch": 69, "duration": 10, "velocity": 36}, {"time": 40560, "pitch": 42, "duration": 10, "velocity": 64}, {"time": 40560, "pitch": 56, "duration": 10, "velocity": 22}, {"time": 40560, "pitch": 69, "duration": 10, "velocity": 50}, {"time": 40560, "pitch": 70, "duration": 10, "velocity": 78}, {"time": 40680, "pitch": 28, "duration": 10, "velocity": 64}, {"time": 40680, "pitch": 37, "duration": 10, "velocity": 106}, {"time": 40680, "pitch": 70, "duration": 10, "velocity": 36}, {"time": 40700, "pitch": 56, "duration": 10, "velocity": 64}, {"time": 40700, "pitch": 67, "duration": 10, "velocity": 64}, {"time": 40700, "pitch": 69, "duration": 10, "velocity": 36}, {"time": 40800, "pitch": 42, "duration": 10, "velocity": 92}, {"time": 40800, "pitch": 56, "duration": 10, "velocity": 22}, {"time": 40800, "pitch": 67, "duration": 10, "velocity": 92}, {"time": 40800, "pitch": 69, "duration": 10, "velocity": 64}, {"time": 40800, "pitch": 70, "duration": 10, "velocity": 78}, {"time": 40920, "pitch": 70, "duration": 10, "velocity": 36}, {"time": 40940, "pitch": 56, "duration": 10, "velocity": 22}, {"time": 40940, "pitch": 69, "duration": 10, "velocity": 36}, {"time": 41040, "pitch": 28, "duration": 10, "velocity": 64}, {"time": 41040, "pitch": 37, "duration": 10, "velocity": 106}, {"time": 41040, "pitch": 42, "duration": 10, "velocity": 64}, {"time": 41040, "pitch": 56, "duration": 10, "velocity": 36}, {"time": 41040, "pitch": 68, "duration": 10, "velocity": 78}, {"time": 41040, "pitch": 69, "duration": 10, "velocity": 50}, {"time": 41040, "pitch": 70, "duration": 10, "velocity": 78}, {"time": 41160, "pitch": 70, "duration": 10, "velocity": 36}, {"time": 41180, "pitch": 56, "duration": 10, "velocity": 22}, {"time": 41180, "pitch": 68, "duration": 10, "velocity": 92}, {"time": 41180, "pitch": 69, "duration": 10, "velocity": 36}, {"time": 41280, "pitch": 42, "duration": 10, "velocity": 64}, {"time": 41280, "pitch": 68, "duration": 10, "velocity": 92}, {"time": 41280, "pitch": 69, "duration": 10, "velocity": 64}, {"time": 41280, "pitch": 70, "duration": 10, "velocity": 78}, {"time": 41400, "pitch": 70, "duration": 10, "velocity": 36}, {"time": 41420, "pitch": 69, "duration": 10, "velocity": 36}, {"time": 41520, "pitch": 28, "duration": 10, "velocity": 64}, {"time": 41520, "pitch": 37, "duration": 10, "velocity": 106}, {"time": 41520, "pitch": 42, "duration": 10, "velocity": 92}, {"time": 41520, "pitch": 56, "duration": 10, "velocity": 64}, {"time": 41520, "pitch": 67, "duration": 10, "velocity": 92}, {"time": 41520, "pitch": 69, "duration": 10, "velocity": 50}, {"time": 41520, "pitch": 70, "duration": 10, "velocity": 78}, {"time": 41640, "pitch": 70, "duration": 10, "velocity": 36}, {"time": 41660, "pitch": 56, "duration": 10, "velocity": 36}, {"time": 41660, "pitch": 69, "duration": 10, "velocity": 36}, {"time": 41760, "pitch": 42, "duration": 10, "velocity": 92}, {"time": 41760, "pitch": 56, "duration": 10, "velocity": 50}, {"time": 41760, "pitch": 67, "duration": 10, "velocity": 92}, {"time": 41760, "pitch": 69, "duration": 10, "velocity": 64}, {"time": 41760, "pitch": 70, "duration": 10, "velocity": 78}, {"time": 41880, "pitch": 28, "duration": 10, "velocity": 64}, {"time": 41880, "pitch": 37, "duration": 10, "velocity": 106}, {"time": 41880, "pitch": 70, "duration": 10, "velocity": 36}, {"time": 41900, "pitch": 56, "duration": 10, "velocity": 36}, {"time": 41900, "pitch": 68, "duration": 10, "velocity": 64}, {"time": 41900, "pitch": 69, "duration": 10, "velocity": 36}, {"time": 42000, "pitch": 42, "duration": 10, "velocity": 64}, {"time": 42000, "pitch": 56, "duration": 10, "velocity": 22}, {"time": 42000, "pitch": 69, "duration": 10, "velocity": 50}, {"time": 42000, "pitch": 70, "duration": 10, "velocity": 78}, {"time": 42120, "pitch": 70, "duration": 10, "velocity": 36}, {"time": 42140, "pitch": 56, "duration": 10, "velocity": 22}, {"time": 42140, "pitch": 68, "duration": 10, "velocity": 92}, {"time": 42140, "pitch": 69, "duration": 10, "velocity": 36}, {"time": 42240, "pitch": 28, "duration": 10, "velocity": 64}, {"time": 42240, "pitch": 37, "duration": 10, "velocity": 106}, {"time": 42240, "pitch": 42, "duration": 10, "velocity": 92}, {"time": 42240, "pitch": 56, "duration": 10, "velocity": 64}, {"time": 42240, "pitch": 69, "duration": 10, "velocity": 64}, {"time": 42240, "pitch": 70, "duration": 10, "velocity": 78}, {"time": 42360, "pitch": 70, "duration": 10, "velocity": 36}, {"time": 42380, "pitch": 56, "duration": 10, "velocity": 22}, {"time": 42380, "pitch": 67, "duration": 10, "velocity": 92}, {"time": 42380, "pitch": 69, "duration": 10, "velocity": 36}, {"time": 42480, "pitch": 42, "duration": 10, "velocity": 64}, {"time": 42480, "pitch": 56, "duration": 10, "velocity": 22}, {"time": 42480, "pitch": 69, "duration": 10, "velocity": 50}, {"time": 42480, "pitch": 70, "duration": 10, "velocity": 78}, {"time": 42600, "pitch": 28, "duration": 10, "velocity": 64}, {"time": 42600, "pitch": 37, "duration": 10, "velocity": 106}, {"time": 42600, "pitch": 70, "duration": 10, "velocity": 36}, {"time": 42620, "pitch": 56, "duration": 10, "velocity": 64}, {"time": 42620, "pitch": 67, "duration": 10, "velocity": 64}, {"time": 42620, "pitch": 69, "duration": 10, "velocity": 36}, {"time": 42720, "pitch": 42, "duration": 10, "velocity": 92}, {"time": 42720, "pitch": 56, "duration": 10, "velocity": 22}, {"time": 42720, "pitch": 67, "duration": 10, "velocity": 92}, {"time": 42720, "pitch": 69, "duration": 10, "velocity": 64}, {"time": 42720, "pitch": 70, "duration": 10, "velocity": 78}, {"time": 42840, "pitch": 70, "duration": 10, "velocity": 36}, {"time": 42860, "pitch": 56, "duration": 10, "velocity": 22}, {"time": 42860, "pitch": 69, "duration": 10, "velocity": 36}, {"time": 42960, "pitch": 28, "duration": 10, "velocity": 64}, {"time": 42960, "pitch": 37, "duration": 10, "velocity": 106}, {"time": 42960, "pitch": 42, "duration": 10, "velocity": 64}, {"time": 42960, "pitch": 56, "duration": 10, "velocity": 36}, {"time": 42960, "pitch": 68, "duration": 10, "velocity": 78}, {"time": 42960, "pitch": 69, "duration": 10, "velocity": 22}, {"time": 42960, "pitch": 70, "duration": 10, "velocity": 78}, {"time": 42990, "pitch": 69, "duration": 10, "velocity": 36}, {"time": 43020, "pitch": 69, "duration": 10, "velocity": 36}, {"time": 43050, "pitch": 69, "duration": 10, "velocity": 50}, {"time": 43080, "pitch": 56, "duration": 10, "velocity": 22}, {"time": 43080, "pitch": 68, "duration": 10, "velocity": 92}, {"time": 43080, "pitch": 69, "duration": 10, "velocity": 50}, {"time": 43080, "pitch": 70, "duration": 10, "velocity": 36}, {"time": 43110, "pitch": 69, "duration": 10, "velocity": 64}, {"time": 43140, "pitch": 69, "duration": 10, "velocity": 64}, {"time": 43170, "pitch": 69, "duration": 10, "velocity": 64}, {"time": 43200, "pitch": 42, "duration": 10, "velocity": 64}, {"time": 43200, "pitch": 68, "duration": 10, "velocity": 92}, {"time": 43200, "pitch": 69, "duration": 10, "velocity": 64}, {"time": 43200, "pitch": 70, "duration": 10, "velocity": 78}, {"time": 43320, "pitch": 70, "duration": 10, "velocity": 36}, {"time": 43340, "pitch": 69, "duration": 10, "velocity": 36}, {"time": 43440, "pitch": 28, "duration": 10, "velocity": 64}, {"time": 43440, "pitch": 37, "duration": 10, "velocity": 106}, {"time": 43440, "pitch": 42, "duration": 10, "velocity": 92}, {"time": 43440, "pitch": 56, "duration": 10, "velocity": 64}, {"time": 43440, "pitch": 67, "duration": 10, "velocity": 92}, {"time": 43440, "pitch": 69, "duration": 10, "velocity": 50}, {"time": 43440, "pitch": 70, "duration": 10, "velocity": 78}, {"time": 43560, "pitch": 70, "duration": 10, "velocity": 36}, {"time": 43580, "pitch": 56, "duration": 10, "velocity": 36}, {"time": 43580, "pitch": 69, "duration": 10, "velocity": 36}, {"time": 43680, "pitch": 28, "duration": 10, "velocity": 64}, {"time": 43680, "pitch": 37, "duration": 10, "velocity": 106}, {"time": 43680, "pitch": 42, "duration": 10, "velocity": 92}, {"time": 43680, "pitch": 56, "duration": 10, "velocity": 50}, {"time": 43680, "pitch": 67, "duration": 10, "velocity": 92}, {"time": 43680, "pitch": 69, "duration": 10, "velocity": 64}, {"time": 43680, "pitch": 70, "duration": 10, "velocity": 78}, {"time": 43800, "pitch": 70, "duration": 10, "velocity": 36}, {"time": 43820, "pitch": 56, "duration": 10, "velocity": 36}, {"time": 43820, "pitch": 68, "duration": 10, "velocity": 64}, {"time": 43820, "pitch": 69, "duration": 10, "velocity": 36}, {"time": 43920, "pitch": 42, "duration": 10, "velocity": 64}, {"time": 43920, "pitch": 56, "duration": 10, "velocity": 22}, {"time": 43920, "pitch": 69, "duration": 10, "velocity": 50}, {"time": 43920, "pitch": 70, "duration": 10, "velocity": 78}, {"time": 44040, "pitch": 70, "duration": 10, "velocity": 36}, {"time": 44060, "pitch": 56, "duration": 10, "velocity": 22}, {"time": 44060, "pitch": 68, "duration": 10, "velocity": 92}, {"time": 44060, "pitch": 69, "duration": 10, "velocity": 36}, {"time": 44160, "pitch": 28, "duration": 10, "velocity": 64}, {"time": 44160, "pitch": 37, "duration": 10, "velocity": 106}, {"time": 44160, "pitch": 42, "duration": 10, "velocity": 92}, {"time": 44160, "pitch": 56, "duration": 10, "velocity": 64}, {"time": 44160, "pitch": 69, "duration": 10, "velocity": 64}, {"time": 44160, "pitch": 70, "duration": 10, "velocity": 78}, {"time": 44280, "pitch": 70, "duration": 10, "velocity": 36}, {"time": 44300, "pitch": 56, "duration": 10, "velocity": 22}, {"time": 44300, "pitch": 67, "duration": 10, "velocity": 92}, {"time": 44300, "pitch": 69, "duration": 10, "velocity": 36}, {"time": 44400, "pitch": 42, "duration": 10, "velocity": 64}, {"time": 44400, "pitch": 56, "duration": 10, "velocity": 22}, {"time": 44400, "pitch": 69, "duration": 10, "velocity": 50}, {"time": 44400, "pitch": 70, "duration": 10, "velocity": 78}, {"time": 44520, "pitch": 28, "duration": 10, "velocity": 64}, {"time": 44520, "pitch": 37, "duration": 10, "velocity": 106}, {"time": 44520, "pitch": 70, "duration": 10, "velocity": 36}, {"time": 44540, "pitch": 56, "duration": 10, "velocity": 64}, {"time": 44540, "pitch": 67, "duration": 10, "velocity": 64}, {"time": 44540, "pitch": 69, "duration": 10, "velocity": 36}, {"time": 44640, "pitch": 42, "duration": 10, "velocity": 92}, {"time": 44640, "pitch": 56, "duration": 10, "velocity": 22}, {"time": 44640, "pitch": 67, "duration": 10, "velocity": 92}, {"time": 44640, "pitch": 69, "duration": 10, "velocity": 64}, {"time": 44640, "pitch": 70, "duration": 10, "velocity": 78}, {"time": 44760, "pitch": 70, "duration": 10, "velocity": 36}, {"time": 44780, "pitch": 56, "duration": 10, "velocity": 22}, {"time": 44780, "pitch": 69, "duration": 10, "velocity": 36}, {"time": 44880, "pitch": 28, "duration": 10, "velocity": 64}, {"time": 44880, "pitch": 37, "duration": 10, "velocity": 106}, {"time": 44880, "pitch": 42, "duration": 10, "velocity": 64}, {"time": 44880, "pitch": 56, "duration": 10, "velocity": 36}, {"time": 44880, "pitch": 68, "duration": 10, "velocity": 78}, {"time": 44880, "pitch": 69, "duration": 10, "velocity": 50}, {"time": 44880, "pitch": 70, "duration": 10, "velocity": 78}, {"time": 45000, "pitch": 70, "duration": 10, "velocity": 36}, {"time": 45020, "pitch": 56, "duration": 10, "velocity": 22}, {"time": 45020, "pitch": 68, "duration": 10, "velocity": 92}, {"time": 45020, "pitch": 69, "duration": 10, "velocity": 36}, {"time": 45120, "pitch": 42, "duration": 10, "velocity": 64}, {"time": 45120, "pitch": 68, "duration": 10, "velocity": 92}, {"time": 45120, "pitch": 69, "duration": 10, "velocity": 64}, {"time": 45120, "pitch": 70, "duration": 10, "velocity": 78}, {"time": 45240, "pitch": 70, "duration": 10, "velocity": 36}, {"time": 45260, "pitch": 69, "duration": 10, "velocity": 36}, {"time": 45360, "pitch": 28, "duration": 10, "velocity": 64}, {"time": 45360, "pitch": 37, "duration": 10, "velocity": 106}, {"time": 45360, "pitch": 42, "duration": 10, "velocity": 92}, {"time": 45360, "pitch": 56, "duration": 10, "velocity": 64}, {"time": 45360, "pitch": 67, "duration": 10, "velocity": 92}, {"time": 45360, "pitch": 69, "duration": 10, "velocity": 50}, {"time": 45360, "pitch": 70, "duration": 10, "velocity": 78}, {"time": 45480, "pitch": 70, "duration": 10, "velocity": 36}, {"time": 45500, "pitch": 56, "duration": 10, "velocity": 36}, {"time": 45500, "pitch": 69, "duration": 10, "velocity": 36}, {"time": 45600, "pitch": 42, "duration": 10, "velocity": 92}, {"time": 45600, "pitch": 56, "duration": 10, "velocity": 50}, {"time": 45600, "pitch": 67, "duration": 10, "velocity": 92}, {"time": 45600, "pitch": 69, "duration": 10, "velocity": 64}, {"time": 45600, "pitch": 70, "duration": 10, "velocity": 78}, {"time": 45720, "pitch": 28, "duration": 10, "velocity": 64}, {"time": 45720, "pitch": 37, "duration": 10, "velocity": 106}, {"time": 45720, "pitch": 70, "duration": 10, "velocity": 36}, {"time": 45740, "pitch": 56, "duration": 10, "velocity": 36}, {"time": 45740, "pitch": 68, "duration": 10, "velocity": 64}, {"time": 45740, "pitch": 69, "duration": 10, "velocity": 36}, {"time": 45840, "pitch": 42, "duration": 10, "velocity": 64}, {"time": 45840, "pitch": 56, "duration": 10, "velocity": 22}, {"time": 45840, "pitch": 69, "duration": 10, "velocity": 50}, {"time": 45840, "pitch": 70, "duration": 10, "velocity": 78}, {"time": 45960, "pitch": 70, "duration": 10, "velocity": 36}, {"time": 45980, "pitch": 56, "duration": 10, "velocity": 22}, {"time": 45980, "pitch": 68, "duration": 10, "velocity": 92}, {"time": 45980, "pitch": 69, "duration": 10, "velocity": 36}, {"time": 46080, "pitch": 28, "duration": 10, "velocity": 64}, {"time": 46080, "pitch": 37, "duration": 10, "velocity": 106}, {"time": 46080, "pitch": 42, "duration": 10, "velocity": 92}, {"time": 46080, "pitch": 56, "duration": 10, "velocity": 64}, {"time": 46080, "pitch": 69, "duration": 10, "velocity": 64}, {"time": 46080, "pitch": 70, "duration": 10, "velocity": 78}, {"time": 46200, "pitch": 70, "duration": 10, "velocity": 36}, {"time": 46220, "pitch": 56, "duration": 10, "velocity": 22}, {"time": 46220, "pitch": 67, "duration": 10, "velocity": 92}, {"time": 46220, "pitch": 69, "duration": 10, "velocity": 36}, {"time": 46320, "pitch": 42, "duration": 10, "velocity": 64}, {"time": 46320, "pitch": 56, "duration": 10, "velocity": 22}, {"time": 46320, "pitch": 69, "duration": 10, "velocity": 50}, {"time": 46320, "pitch": 70, "duration": 10, "velocity": 78}, {"time": 46440, "pitch": 28, "duration": 10, "velocity": 64}, {"time": 46440, "pitch": 37, "duration": 10, "velocity": 106}, {"time": 46440, "pitch": 70, "duration": 10, "velocity": 36}, {"time": 46460, "pitch": 56, "duration": 10, "velocity": 64}, {"time": 46460, "pitch": 67, "duration": 10, "velocity": 64}, {"time": 46460, "pitch": 69, "duration": 10, "velocity": 36}, {"time": 46560, "pitch": 42, "duration": 10, "velocity": 92}, {"time": 46560, "pitch": 56, "duration": 10, "velocity": 22}, {"time": 46560, "pitch": 67, "duration": 10, "velocity": 92}, {"time": 46560, "pitch": 69, "duration": 10, "velocity": 64}, {"time": 46560, "pitch": 70, "duration": 10, "velocity": 78}, {"time": 46680, "pitch": 70, "duration": 10, "velocity": 36}, {"time": 46700, "pitch": 56, "duration": 10, "velocity": 22}, {"time": 46700, "pitch": 69, "duration": 10, "velocity": 36}, {"time": 46800, "pitch": 28, "duration": 10, "velocity": 64}, {"time": 46800, "pitch": 37, "duration": 10, "velocity": 106}, {"time": 46800, "pitch": 42, "duration": 10, "velocity": 64}, {"time": 46800, "pitch": 56, "duration": 10, "velocity": 36}, {"time": 46800, "pitch": 68, "duration": 10, "velocity": 78}, {"time": 46800, "pitch": 69, "duration": 10, "velocity": 22}, {"time": 46800, "pitch": 70, "duration": 10, "velocity": 78}, {"time": 46830, "pitch": 69, "duration": 10, "velocity": 36}, {"time": 46860, "pitch": 69, "duration": 10, "velocity": 36}, {"time": 46890, "pitch": 69, "duration": 10, "velocity": 50}, {"time": 46920, "pitch": 56, "duration": 10, "velocity": 22}, {"time": 46920, "pitch": 68, "duration": 10, "velocity": 92}, {"time": 46920, "pitch": 69, "duration": 10, "velocity": 50}, {"time": 46920, "pitch": 70, "duration": 10, "velocity": 36}, {"time": 46950, "pitch": 69, "duration": 10, "velocity": 64}, {"time": 46980, "pitch": 69, "duration": 10, "velocity": 64}, {"time": 47010, "pitch": 69, "duration": 10, "velocity": 64}, {"time": 47040, "pitch": 42, "duration": 10, "velocity": 64}, {"time": 47040, "pitch": 49, "duration": 10, "velocity": 92}, {"time": 47040, "pitch": 68, "duration": 10, "velocity": 92}, {"time": 47040, "pitch": 69, "duration": 10, "velocity": 64}, {"time": 47040, "pitch": 70, "duration": 10, "velocity": 78}, {"time": 47160, "pitch": 70, "duration": 10, "velocity": 36}, {"time": 47180, "pitch": 69, "duration": 10, "velocity": 36}, {"time": 47280, "pitch": 28, "duration": 10, "velocity": 64}, {"time": 47280, "pitch": 37, "duration": 10, "velocity": 106}, {"time": 47280, "pitch": 42, "duration": 10, "velocity": 92}, {"time": 47280, "pitch": 56, "duration": 10, "velocity": 64}, {"time": 47280, "pitch": 67, "duration": 10, "velocity": 92}, {"time": 47280, "pitch": 69, "duration": 10, "velocity": 50}, {"time": 47280, "pitch": 70, "duration": 10, "velocity": 78}, {"time": 47400, "pitch": 70, "duration": 10, "velocity": 36}, {"time": 47420, "pitch": 56, "duration": 10, "velocity": 36}, {"time": 47420, "pitch": 69, "duration": 10, "velocity": 36}, {"time": 47520, "pitch": 28, "duration": 10, "velocity": 64}, {"time": 47520, "pitch": 37, "duration": 10, "velocity": 106}, {"time": 47520, "pitch": 39, "duration": 10, "velocity": 120}, {"time": 47520, "pitch": 40, "duration": 10, "velocity": 92}, {"time": 47520, "pitch": 42, "duration": 10, "velocity": 92}, {"time": 47520, "pitch": 56, "duration": 10, "velocity": 50}, {"time": 47520, "pitch": 67, "duration": 10, "velocity": 92}, {"time": 47520, "pitch": 69, "duration": 10, "velocity": 64}, {"time": 47520, "pitch": 70, "duration": 10, "velocity": 78}, {"time": 47640, "pitch": 70, "duration": 10, "velocity": 36}, {"time": 47660, "pitch": 56, "duration": 10, "velocity": 36}, {"time": 47660, "pitch": 68, "duration": 10, "velocity": 64}, {"time": 47660, "pitch": 69, "duration": 10, "velocity": 36}, {"time": 47760, "pitch": 42, "duration": 10, "velocity": 64}, {"time": 47760, "pitch": 56, "duration": 10, "velocity": 22}, {"time": 47760, "pitch": 69, "duration": 10, "velocity": 50}, {"time": 47760, "pitch": 70, "duration": 10, "velocity": 78}, {"time": 47880, "pitch": 70, "duration": 10, "velocity": 36}, {"time": 47900, "pitch": 56, "duration": 10, "velocity": 22}, {"time": 47900, "pitch": 68, "duration": 10, "velocity": 92}, {"time": 47900, "pitch": 69, "duration": 10, "velocity": 36}, {"time": 48000, "pitch": 28, "duration": 10, "velocity": 64}, {"time": 48000, "pitch": 37, "duration": 10, "velocity": 106}, {"time": 48000, "pitch": 42, "duration": 10, "velocity": 92}, {"time": 48000, "pitch": 56, "duration": 10, "velocity": 64}, {"time": 48000, "pitch": 69, "duration": 10, "velocity": 64}, {"time": 48000, "pitch": 70, "duration": 10, "velocity": 78}, {"time": 48120, "pitch": 70, "duration": 10, "velocity": 36}, {"time": 48140, "pitch": 56, "duration": 10, "velocity": 22}, {"time": 48140, "pitch": 67, "duration": 10, "velocity": 92}, {"time": 48140, "pitch": 69, "duration": 10, "velocity": 36}, {"time": 48240, "pitch": 42, "duration": 10, "velocity": 64}, {"time": 48240, "pitch": 56, "duration": 10, "velocity": 22}, {"time": 48240, "pitch": 69, "duration": 10, "velocity": 50}, {"time": 48240, "pitch": 70, "duration": 10, "velocity": 78}, {"time": 48360, "pitch": 28, "duration": 10, "velocity": 64}, {"time": 48360, "pitch": 37, "duration": 10, "velocity": 106}, {"time": 48360, "pitch": 70, "duration": 10, "velocity": 36}, {"time": 48380, "pitch": 56, "duration": 10, "velocity": 64}, {"time": 48380, "pitch": 67, "duration": 10, "velocity": 64}, {"time": 48380, "pitch": 69, "duration": 10, "velocity": 36}, {"time": 48480, "pitch": 39, "duration": 10, "velocity": 120}, {"time": 48480, "pitch": 40, "duration": 10, "velocity": 92}, {"time": 48480, "pitch": 42, "duration": 10, "velocity": 92}, {"time": 48480, "pitch": 56, "duration": 10, "velocity": 22}, {"time": 48480, "pitch": 67, "duration": 10, "velocity": 92}, {"time": 48480, "pitch": 69, "duration": 10, "velocity": 64}, {"time": 48480, "pitch": 70, "duration": 10, "velocity": 78}, {"time": 48600, "pitch": 70, "duration": 10, "velocity": 36}, {"time": 48620, "pitch": 56, "duration": 10, "velocity": 22}, {"time": 48620, "pitch": 69, "duration": 10, "velocity": 36}, {"time": 48720, "pitch": 28, "duration": 10, "velocity": 64}, {"time": 48720, "pitch": 37, "duration": 10, "velocity": 106}, {"time": 48720, "pitch": 42, "duration": 10, "velocity": 64}, {"time": 48720, "pitch": 56, "duration": 10, "velocity": 36}, {"time": 48720, "pitch": 68, "duration": 10, "velocity": 78}, {"time": 48720, "pitch": 69, "duration": 10, "velocity": 50}, {"time": 48720, "pitch": 70, "duration": 10, "velocity": 78}, {"time": 48840, "pitch": 70, "duration": 10, "velocity": 36}, {"time": 48860, "pitch": 56, "duration": 10, "velocity": 22}, {"time": 48860, "pitch": 68, "duration": 10, "velocity": 92}, {"time": 48860, "pitch": 69, "duration": 10, "velocity": 36}, {"time": 48960, "pitch": 42, "duration": 10, "velocity": 64}, {"time": 48960, "pitch": 68, "duration": 10, "velocity": 92}, {"time": 48960, "pitch": 69, "duration": 10, "velocity": 64}, {"time": 48960, "pitch": 70, "duration": 10, "velocity": 78}, {"time": 49080, "pitch": 70, "duration": 10, "velocity": 36}, {"time": 49100, "pitch": 69, "duration": 10, "velocity": 36}, {"time": 49200, "pitch": 28, "duration": 10, "velocity": 64}, {"time": 49200, "pitch": 37, "duration": 10, "velocity": 106}, {"time": 49200, "pitch": 42, "duration": 10, "velocity": 92}, {"time": 49200, "pitch": 56, "duration": 10, "velocity": 64}, {"time": 49200, "pitch": 67, "duration": 10, "velocity": 92}, {"time": 49200, "pitch": 69, "duration": 10, "velocity": 50}, {"time": 49200, "pitch": 70, "duration": 10, "velocity": 78}, {"time": 49320, "pitch": 70, "duration": 10, "velocity": 36}, {"time": 49340, "pitch": 56, "duration": 10, "velocity": 36}, {"time": 49340, "pitch": 69, "duration": 10, "velocity": 36}, {"time": 49440, "pitch": 39, "duration": 10, "velocity": 120}, {"time": 49440, "pitch": 40, "duration": 10, "velocity": 92}, {"time": 49440, "pitch": 42, "duration": 10, "velocity": 92}, {"time": 49440, "pitch": 56, "duration": 10, "velocity": 50}, {"time": 49440, "pitch": 67, "duration": 10, "velocity": 92}, {"time": 49440, "pitch": 69, "duration": 10, "velocity": 64}, {"time": 49440, "pitch": 70, "duration": 10, "velocity": 78}, {"time": 49560, "pitch": 28, "duration": 10, "velocity": 64}, {"time": 49560, "pitch": 37, "duration": 10, "velocity": 106}, {"time": 49560, "pitch": 70, "duration": 10, "velocity": 36}, {"time": 49580, "pitch": 56, "duration": 10, "velocity": 36}, {"time": 49580, "pitch": 68, "duration": 10, "velocity": 64}, {"time": 49580, "pitch": 69, "duration": 10, "velocity": 36}, {"time": 49680, "pitch": 42, "duration": 10, "velocity": 64}, {"time": 49680, "pitch": 56, "duration": 10, "velocity": 22}, {"time": 49680, "pitch": 69, "duration": 10, "velocity": 50}, {"time": 49680, "pitch": 70, "duration": 10, "velocity": 78}, {"time": 49800, "pitch": 70, "duration": 10, "velocity": 36}, {"time": 49820, "pitch": 56, "duration": 10, "velocity": 22}, {"time": 49820, "pitch": 68, "duration": 10, "velocity": 92}, {"time": 49820, "pitch": 69, "duration": 10, "velocity": 36}, {"time": 49920, "pitch": 28, "duration": 10, "velocity": 64}, {"time": 49920, "pitch": 37, "duration": 10, "velocity": 106}, {"time": 49920, "pitch": 42, "duration": 10, "velocity": 92}, {"time": 49920, "pitch": 56, "duration": 10, "velocity": 64}, {"time": 49920, "pitch": 69, "duration": 10, "velocity": 64}, {"time": 49920, "pitch": 70, "duration": 10, "velocity": 78}, {"time": 50040, "pitch": 70, "duration": 10, "velocity": 36}, {"time": 50060, "pitch": 56, "duration": 10, "velocity": 22}, {"time": 50060, "pitch": 67, "duration": 10, "velocity": 92}, {"time": 50060, "pitch": 69, "duration": 10, "velocity": 36}, {"time": 50160, "pitch": 42, "duration": 10, "velocity": 64}, {"time": 50160, "pitch": 56, "duration": 10, "velocity": 22}, {"time": 50160, "pitch": 69, "duration": 10, "velocity": 50}, {"time": 50160, "pitch": 70, "duration": 10, "velocity": 78}, {"time": 50280, "pitch": 28, "duration": 10, "velocity": 64}, {"time": 50280, "pitch": 37, "duration": 10, "velocity": 106}, {"time": 50280, "pitch": 70, "duration": 10, "velocity": 36}, {"time": 50300, "pitch": 56, "duration": 10, "velocity": 64}, {"time": 50300, "pitch": 67, "duration": 10, "velocity": 64}, {"time": 50300, "pitch": 69, "duration": 10, "velocity": 36}, {"time": 50400, "pitch": 39, "duration": 10, "velocity": 120}, {"time": 50400, "pitch": 40, "duration": 10, "velocity": 92}, {"time": 50400, "pitch": 42, "duration": 10, "velocity": 92}, {"time": 50400, "pitch": 56, "duration": 10, "velocity": 22}, {"time": 50400, "pitch": 67, "duration": 10, "velocity": 92}, {"time": 50400, "pitch": 69, "duration": 10, "velocity": 64}, {"time": 50400, "pitch": 70, "duration": 10, "velocity": 78}, {"time": 50520, "pitch": 70, "duration": 10, "velocity": 36}, {"time": 50540, "pitch": 56, "duration": 10, "velocity": 22}, {"time": 50540, "pitch": 69, "duration": 10, "velocity": 36}, {"time": 50640, "pitch": 28, "duration": 10, "velocity": 64}, {"time": 50640, "pitch": 37, "duration": 10, "velocity": 106}, {"time": 50640, "pitch": 42, "duration": 10, "velocity": 64}, {"time": 50640, "pitch": 56, "duration": 10, "velocity": 36}, {"time": 50640, "pitch": 68, "duration": 10, "velocity": 78}, {"time": 50640, "pitch": 69, "duration": 10, "velocity": 22}, {"time": 50640, "pitch": 70, "duration": 10, "velocity": 78}, {"time": 50670, "pitch": 69, "duration": 10, "velocity": 36}, {"time": 50700, "pitch": 69, "duration": 10, "velocity": 36}, {"time": 50730, "pitch": 69, "duration": 10, "velocity": 50}, {"time": 50760, "pitch": 56, "duration": 10, "velocity": 22}, {"time": 50760, "pitch": 68, "duration": 10, "velocity": 92}, {"time": 50760, "pitch": 69, "duration": 10, "velocity": 50}, {"time": 50760, "pitch": 70, "duration": 10, "velocity": 36}, {"time": 50790, "pitch": 69, "duration": 10, "velocity": 64}, {"time": 50820, "pitch": 69, "duration": 10, "velocity": 64}, {"time": 50850, "pitch": 69, "duration": 10, "velocity": 64}, {"time": 50880, "pitch": 42, "duration": 10, "velocity": 64}, {"time": 50880, "pitch": 68, "duration": 10, "velocity": 92}, {"time": 50880, "pitch": 69, "duration": 10, "velocity": 64}, {"time": 50880, "pitch": 70, "duration": 10, "velocity": 78}, {"time": 51000, "pitch": 70, "duration": 10, "velocity": 36}, {"time": 51020, "pitch": 69, "duration": 10, "velocity": 36}, {"time": 51120, "pitch": 28, "duration": 10, "velocity": 64}, {"time": 51120, "pitch": 37, "duration": 10, "velocity": 106}, {"time": 51120, "pitch": 42, "duration": 10, "velocity": 92}, {"time": 51120, "pitch": 56, "duration": 10, "velocity": 64}, {"time": 51120, "pitch": 67, "duration": 10, "velocity": 92}, {"time": 51120, "pitch": 69, "duration": 10, "velocity": 50}, {"time": 51120, "pitch": 70, "duration": 10, "velocity": 78}, {"time": 51240, "pitch": 70, "duration": 10, "velocity": 36}, {"time": 51260, "pitch": 56, "duration": 10, "velocity": 36}, {"time": 51260, "pitch": 69, "duration": 10, "velocity": 36}, {"time": 51360, "pitch": 28, "duration": 10, "velocity": 64}, {"time": 51360, "pitch": 37, "duration": 10, "velocity": 106}, {"time": 51360, "pitch": 39, "duration": 10, "velocity": 120}, {"time": 51360, "pitch": 40, "duration": 10, "velocity": 92}, {"time": 51360, "pitch": 42, "duration": 10, "velocity": 92}, {"time": 51360, "pitch": 56, "duration": 10, "velocity": 50}, {"time": 51360, "pitch": 67, "duration": 10, "velocity": 92}, {"time": 51360, "pitch": 69, "duration": 10, "velocity": 64}, {"time": 51360, "pitch": 70, "duration": 10, "velocity": 78}, {"time": 51480, "pitch": 70, "duration": 10, "velocity": 36}, {"time": 51500, "pitch": 56, "duration": 10, "velocity": 36}, {"time": 51500, "pitch": 68, "duration": 10, "velocity": 64}, {"time": 51500, "pitch": 69, "duration": 10, "velocity": 36}, {"time": 51600, "pitch": 42, "duration": 10, "velocity": 64}, {"time": 51600, "pitch": 56, "duration": 10, "velocity": 22}, {"time": 51600, "pitch": 69, "duration": 10, "velocity": 50}, {"time": 51600, "pitch": 70, "duration": 10, "velocity": 78}, {"time": 51720, "pitch": 70, "duration": 10, "velocity": 36}, {"time": 51740, "pitch": 56, "duration": 10, "velocity": 22}, {"time": 51740, "pitch": 68, "duration": 10, "velocity": 92}, {"time": 51740, "pitch": 69, "duration": 10, "velocity": 36}, {"time": 51840, "pitch": 28, "duration": 10, "velocity": 64}, {"time": 51840, "pitch": 37, "duration": 10, "velocity": 106}, {"time": 51840, "pitch": 42, "duration": 10, "velocity": 92}, {"time": 51840, "pitch": 56, "duration": 10, "velocity": 64}, {"time": 51840, "pitch": 69, "duration": 10, "velocity": 64}, {"time": 51840, "pitch": 70, "duration": 10, "velocity": 78}, {"time": 51960, "pitch": 70, "duration": 10, "velocity": 36}, {"time": 51980, "pitch": 56, "duration": 10, "velocity": 22}, {"time": 51980, "pitch": 67, "duration": 10, "velocity": 92}, {"time": 51980, "pitch": 69, "duration": 10, "velocity": 36}, {"time": 52080, "pitch": 42, "duration": 10, "velocity": 64}, {"time": 52080, "pitch": 56, "duration": 10, "velocity": 22}, {"time": 52080, "pitch": 69, "duration": 10, "velocity": 50}, {"time": 52080, "pitch": 70, "duration": 10, "velocity": 78}, {"time": 52200, "pitch": 28, "duration": 10, "velocity": 64}, {"time": 52200, "pitch": 37, "duration": 10, "velocity": 106}, {"time": 52200, "pitch": 70, "duration": 10, "velocity": 36}, {"time": 52220, "pitch": 56, "duration": 10, "velocity": 64}, {"time": 52220, "pitch": 67, "duration": 10, "velocity": 64}, {"time": 52220, "pitch": 69, "duration": 10, "velocity": 36}, {"time": 52320, "pitch": 39, "duration": 10, "velocity": 120}, {"time": 52320, "pitch": 40, "duration": 10, "velocity": 92}, {"time": 52320, "pitch": 42, "duration": 10, "velocity": 92}, {"time": 52320, "pitch": 56, "duration": 10, "velocity": 22}, {"time": 52320, "pitch": 67, "duration": 10, "velocity": 92}, {"time": 52320, "pitch": 69, "duration": 10, "velocity": 64}, {"time": 52320, "pitch": 70, "duration": 10, "velocity": 78}, {"time": 52440, "pitch": 70, "duration": 10, "velocity": 36}, {"time": 52460, "pitch": 56, "duration": 10, "velocity": 22}, {"time": 52460, "pitch": 69, "duration": 10, "velocity": 36}, {"time": 52560, "pitch": 28, "duration": 10, "velocity": 64}, {"time": 52560, "pitch": 37, "duration": 10, "velocity": 106}, {"time": 52560, "pitch": 42, "duration": 10, "velocity": 64}, {"time": 52560, "pitch": 56, "duration": 10, "velocity": 36}, {"time": 52560, "pitch": 68, "duration": 10, "velocity": 78}, {"time": 52560, "pitch": 69, "duration": 10, "velocity": 50}, {"time": 52560, "pitch": 70, "duration": 10, "velocity": 78}, {"time": 52680, "pitch": 70, "duration": 10, "velocity": 36}, {"time": 52700, "pitch": 56, "duration": 10, "velocity": 22}, {"time": 52700, "pitch": 68, "duration": 10, "velocity": 92}, {"time": 52700, "pitch": 69, "duration": 10, "velocity": 36}, {"time": 52800, "pitch": 42, "duration": 10, "velocity": 64}, {"time": 52800, "pitch": 68, "duration": 10, "velocity": 92}, {"time": 52800, "pitch": 69, "duration": 10, "velocity": 64}, {"time": 52800, "pitch": 70, "duration": 10, "velocity": 78}, {"time": 52920, "pitch": 70, "duration": 10, "velocity": 36}, {"time": 52940, "pitch": 69, "duration": 10, "velocity": 36}, {"time": 53040, "pitch": 28, "duration": 10, "velocity": 64}, {"time": 53040, "pitch": 37, "duration": 10, "velocity": 106}, {"time": 53040, "pitch": 42, "duration": 10, "velocity": 92}, {"time": 53040, "pitch": 56, "duration": 10, "velocity": 64}, {"time": 53040, "pitch": 67, "duration": 10, "velocity": 92}, {"time": 53040, "pitch": 69, "duration": 10, "velocity": 50}, {"time": 53040, "pitch": 70, "duration": 10, "velocity": 78}, {"time": 53160, "pitch": 70, "duration": 10, "velocity": 36}, {"time": 53180, "pitch": 56, "duration": 10, "velocity": 36}, {"time": 53180, "pitch": 69, "duration": 10, "velocity": 36}, {"time": 53280, "pitch": 39, "duration": 10, "velocity": 120}, {"time": 53280, "pitch": 40, "duration": 10, "velocity": 92}, {"time": 53280, "pitch": 42, "duration": 10, "velocity": 92}, {"time": 53280, "pitch": 56, "duration": 10, "velocity": 50}, {"time": 53280, "pitch": 67, "duration": 10, "velocity": 92}, {"time": 53280, "pitch": 69, "duration": 10, "velocity": 64}, {"time": 53280, "pitch": 70, "duration": 10, "velocity": 78}, {"time": 53400, "pitch": 28, "duration": 10, "velocity": 64}, {"time": 53400, "pitch": 37, "duration": 10, "velocity": 106}, {"time": 53400, "pitch": 70, "duration": 10, "velocity": 36}, {"time": 53420, "pitch": 56, "duration": 10, "velocity": 36}, {"time": 53420, "pitch": 68, "duration": 10, "velocity": 64}, {"time": 53420, "pitch": 69, "duration": 10, "velocity": 36}, {"time": 53520, "pitch": 42, "duration": 10, "velocity": 64}, {"time": 53520, "pitch": 56, "duration": 10, "velocity": 22}, {"time": 53520, "pitch": 69, "duration": 10, "velocity": 50}, {"time": 53520, "pitch": 70, "duration": 10, "velocity": 78}, {"time": 53640, "pitch": 70, "duration": 10, "velocity": 36}, {"time": 53660, "pitch": 56, "duration": 10, "velocity": 22}, {"time": 53660, "pitch": 68, "duration": 10, "velocity": 92}, {"time": 53660, "pitch": 69, "duration": 10, "velocity": 36}, {"time": 53760, "pitch": 28, "duration": 10, "velocity": 64}, {"time": 53760, "pitch": 37, "duration": 10, "velocity": 106}, {"time": 53760, "pitch": 42, "duration": 10, "velocity": 92}, {"time": 53760, "pitch": 56, "duration": 10, "velocity": 64}, {"time": 53760, "pitch": 69, "duration": 10, "velocity": 64}, {"time": 53760, "pitch": 70, "duration": 10, "velocity": 78}, {"time": 53880, "pitch": 70, "duration": 10, "velocity": 36}, {"time": 53900, "pitch": 56, "duration": 10, "velocity": 22}, {"time": 53900, "pitch": 67, "duration": 10, "velocity": 92}, {"time": 53900, "pitch": 69, "duration": 10, "velocity": 36}, {"time": 54000, "pitch": 42, "duration": 10, "velocity": 64}, {"time": 54000, "pitch": 56, "duration": 10, "velocity": 22}, {"time": 54000, "pitch": 69, "duration": 10, "velocity": 50}, {"time": 54000, "pitch": 70, "duration": 10, "velocity": 78}, {"time": 54120, "pitch": 28, "duration": 10, "velocity": 64}, {"time": 54120, "pitch": 37, "duration": 10, "velocity": 106}, {"time": 54120, "pitch": 70, "duration": 10, "velocity": 36}, {"time": 54140, "pitch": 56, "duration": 10, "velocity": 64}, {"time": 54140, "pitch": 67, "duration": 10, "velocity": 64}, {"time": 54140, "pitch": 69, "duration": 10, "velocity": 36}, {"time": 54240, "pitch": 39, "duration": 10, "velocity": 120}, {"time": 54240, "pitch": 40, "duration": 10, "velocity": 92}, {"time": 54240, "pitch": 42, "duration": 10, "velocity": 92}, {"time": 54240, "pitch": 56, "duration": 10, "velocity": 22}, {"time": 54240, "pitch": 67, "duration": 10, "velocity": 92}, {"time": 54240, "pitch": 69, "duration": 10, "velocity": 64}, {"time": 54240, "pitch": 70, "duration": 10, "velocity": 78}, {"time": 54360, "pitch": 70, "duration": 10, "velocity": 36}, {"time": 54380, "pitch": 56, "duration": 10, "velocity": 22}, {"time": 54380, "pitch": 69, "duration": 10, "velocity": 36}, {"time": 54480, "pitch": 28, "duration": 10, "velocity": 64}, {"time": 54480, "pitch": 37, "duration": 10, "velocity": 106}, {"time": 54480, "pitch": 42, "duration": 10, "velocity": 64}, {"time": 54480, "pitch": 56, "duration": 10, "velocity": 36}, {"time": 54480, "pitch": 68, "duration": 10, "velocity": 78}, {"time": 54480, "pitch": 69, "duration": 10, "velocity": 22}, {"time": 54480, "pitch": 70, "duration": 10, "velocity": 78}, {"time": 54510, "pitch": 69, "duration": 10, "velocity": 36}, {"time": 54540, "pitch": 69, "duration": 10, "velocity": 36}, {"time": 54570, "pitch": 69, "duration": 10, "velocity": 50}, {"time": 54600, "pitch": 56, "duration": 10, "velocity": 22}, {"time": 54600, "pitch": 68, "duration": 10, "velocity": 92}, {"time": 54600, "pitch": 69, "duration": 10, "velocity": 50}, {"time": 54600, "pitch": 70, "duration": 10, "velocity": 36}, {"time": 54630, "pitch": 69, "duration": 10, "velocity": 64}, {"time": 54660, "pitch": 69, "duration": 10, "velocity": 64}, {"time": 54690, "pitch": 69, "duration": 10, "velocity": 64}, {"time": 54720, "pitch": 42, "duration": 10, "velocity": 64}, {"time": 54720, "pitch": 57, "duration": 10, "velocity": 92}, {"time": 54720, "pitch": 68, "duration": 10, "velocity": 92}, {"time": 54720, "pitch": 69, "duration": 10, "velocity": 64}, {"time": 54720, "pitch": 70, "duration": 10, "velocity": 78}, {"time": 54840, "pitch": 70, "duration": 10, "velocity": 36}, {"time": 54860, "pitch": 69, "duration": 10, "velocity": 36}, {"time": 54960, "pitch": 28, "duration": 10, "velocity": 64}, {"time": 54960, "pitch": 37, "duration": 10, "velocity": 106}, {"time": 54960, "pitch": 42, "duration": 10, "velocity": 92}, {"time": 54960, "pitch": 56, "duration": 10, "velocity": 64}, {"time": 54960, "pitch": 67, "duration": 10, "velocity": 92}, {"time": 54960, "pitch": 69, "duration": 10, "velocity": 50}, {"time": 54960, "pitch": 70, "duration": 10, "velocity": 78}, {"time": 55080, "pitch": 70, "duration": 10, "velocity": 36}, {"time": 55100, "pitch": 56, "duration": 10, "velocity": 36}, {"time": 55100, "pitch": 69, "duration": 10, "velocity": 36}, {"time": 55200, "pitch": 28, "duration": 10, "velocity": 64}, {"time": 55200, "pitch": 37, "duration": 10, "velocity": 106}, {"time": 55200, "pitch": 39, "duration": 10, "velocity": 120}, {"time": 55200, "pitch": 40, "duration": 10, "velocity": 92}, {"time": 55200, "pitch": 42, "duration": 10, "velocity": 92}, {"time": 55200, "pitch": 56, "duration": 10, "velocity": 50}, {"time": 55200, "pitch": 67, "duration": 10, "velocity": 92}, {"time": 55200, "pitch": 69, "duration": 10, "velocity": 64}, {"time": 55200, "pitch": 70, "duration": 10, "velocity": 78}, {"time": 55320, "pitch": 70, "duration": 10, "velocity": 36}, {"time": 55340, "pitch": 56, "duration": 10, "velocity": 36}, {"time": 55340, "pitch": 68, "duration": 10, "velocity": 64}, {"time": 55340, "pitch": 69, "duration": 10, "velocity": 36}, {"time": 55440, "pitch": 42, "duration": 10, "velocity": 64}, {"time": 55440, "pitch": 56, "duration": 10, "velocity": 22}, {"time": 55440, "pitch": 69, "duration": 10, "velocity": 50}, {"time": 55440, "pitch": 70, "duration": 10, "velocity": 78}, {"time": 55560, "pitch": 70, "duration": 10, "velocity": 36}, {"time": 55580, "pitch": 56, "duration": 10, "velocity": 22}, {"time": 55580, "pitch": 68, "duration": 10, "velocity": 92}, {"time": 55580, "pitch": 69, "duration": 10, "velocity": 36}, {"time": 55680, "pitch": 28, "duration": 10, "velocity": 64}, {"time": 55680, "pitch": 37, "duration": 10, "velocity": 106}, {"time": 55680, "pitch": 42, "duration": 10, "velocity": 92}, {"time": 55680, "pitch": 56, "duration": 10, "velocity": 64}, {"time": 55680, "pitch": 69, "duration": 10, "velocity": 64}, {"time": 55680, "pitch": 70, "duration": 10, "velocity": 78}, {"time": 55800, "pitch": 70, "duration": 10, "velocity": 36}, {"time": 55820, "pitch": 56, "duration": 10, "velocity": 22}, {"time": 55820, "pitch": 67, "duration": 10, "velocity": 92}, {"time": 55820, "pitch": 69, "duration": 10, "velocity": 36}, {"time": 55920, "pitch": 42, "duration": 10, "velocity": 64}, {"time": 55920, "pitch": 56, "duration": 10, "velocity": 22}, {"time": 55920, "pitch": 69, "duration": 10, "velocity": 50}, {"time": 55920, "pitch": 70, "duration": 10, "velocity": 78}, {"time": 56040, "pitch": 28, "duration": 10, "velocity": 64}, {"time": 56040, "pitch": 37, "duration": 10, "velocity": 106}, {"time": 56040, "pitch": 70, "duration": 10, "velocity": 36}, {"time": 56060, "pitch": 56, "duration": 10, "velocity": 64}, {"time": 56060, "pitch": 67, "duration": 10, "velocity": 64}, {"time": 56060, "pitch": 69, "duration": 10, "velocity": 36}, {"time": 56160, "pitch": 39, "duration": 10, "velocity": 120}, {"time": 56160, "pitch": 40, "duration": 10, "velocity": 92}, {"time": 56160, "pitch": 42, "duration": 10, "velocity": 92}, {"time": 56160, "pitch": 56, "duration": 10, "velocity": 22}, {"time": 56160, "pitch": 67, "duration": 10, "velocity": 92}, {"time": 56160, "pitch": 69, "duration": 10, "velocity": 64}, {"time": 56160, "pitch": 70, "duration": 10, "velocity": 78}, {"time": 56280, "pitch": 70, "duration": 10, "velocity": 36}, {"time": 56300, "pitch": 56, "duration": 10, "velocity": 22}, {"time": 56300, "pitch": 69, "duration": 10, "velocity": 36}, {"time": 56400, "pitch": 28, "duration": 10, "velocity": 64}, {"time": 56400, "pitch": 37, "duration": 10, "velocity": 106}, {"time": 56400, "pitch": 42, "duration": 10, "velocity": 64}, {"time": 56400, "pitch": 56, "duration": 10, "velocity": 36}, {"time": 56400, "pitch": 68, "duration": 10, "velocity": 78}, {"time": 56400, "pitch": 69, "duration": 10, "velocity": 50}, {"time": 56400, "pitch": 70, "duration": 10, "velocity": 78}, {"time": 56520, "pitch": 70, "duration": 10, "velocity": 36}, {"time": 56540, "pitch": 56, "duration": 10, "velocity": 22}, {"time": 56540, "pitch": 68, "duration": 10, "velocity": 92}, {"time": 56540, "pitch": 69, "duration": 10, "velocity": 36}, {"time": 56640, "pitch": 42, "duration": 10, "velocity": 64}, {"time": 56640, "pitch": 68, "duration": 10, "velocity": 92}, {"time": 56640, "pitch": 69, "duration": 10, "velocity": 64}, {"time": 56640, "pitch": 70, "duration": 10, "velocity": 78}, {"time": 56760, "pitch": 70, "duration": 10, "velocity": 36}, {"time": 56780, "pitch": 69, "duration": 10, "velocity": 36}, {"time": 56880, "pitch": 28, "duration": 10, "velocity": 64}, {"time": 56880, "pitch": 37, "duration": 10, "velocity": 106}, {"time": 56880, "pitch": 42, "duration": 10, "velocity": 92}, {"time": 56880, "pitch": 56, "duration": 10, "velocity": 64}, {"time": 56880, "pitch": 67, "duration": 10, "velocity": 92}, {"time": 56880, "pitch": 69, "duration": 10, "velocity": 50}, {"time": 56880, "pitch": 70, "duration": 10, "velocity": 78}, {"time": 57000, "pitch": 70, "duration": 10, "velocity": 36}, {"time": 57020, "pitch": 56, "duration": 10, "velocity": 36}, {"time": 57020, "pitch": 69, "duration": 10, "velocity": 36}, {"time": 57120, "pitch": 39, "duration": 10, "velocity": 120}, {"time": 57120, "pitch": 40, "duration": 10, "velocity": 92}, {"time": 57120, "pitch": 42, "duration": 10, "velocity": 92}, {"time": 57120, "pitch": 56, "duration": 10, "velocity": 50}, {"time": 57120, "pitch": 67, "duration": 10, "velocity": 92}, {"time": 57120, "pitch": 69, "duration": 10, "velocity": 64}, {"time": 57120, "pitch": 70, "duration": 10, "velocity": 78}, {"time": 57240, "pitch": 28, "duration": 10, "velocity": 64}, {"time": 57240, "pitch": 37, "duration": 10, "velocity": 106}, {"time": 57240, "pitch": 70, "duration": 10, "velocity": 36}, {"time": 57260, "pitch": 56, "duration": 10, "velocity": 36}, {"time": 57260, "pitch": 68, "duration": 10, "velocity": 64}, {"time": 57260, "pitch": 69, "duration": 10, "velocity": 36}, {"time": 57360, "pitch": 42, "duration": 10, "velocity": 64}, {"time": 57360, "pitch": 56, "duration": 10, "velocity": 22}, {"time": 57360, "pitch": 69, "duration": 10, "velocity": 50}, {"time": 57360, "pitch": 70, "duration": 10, "velocity": 78}, {"time": 57480, "pitch": 70, "duration": 10, "velocity": 36}, {"time": 57500, "pitch": 56, "duration": 10, "velocity": 22}, {"time": 57500, "pitch": 68, "duration": 10, "velocity": 92}, {"time": 57500, "pitch": 69, "duration": 10, "velocity": 36}, {"time": 57600, "pitch": 28, "duration": 10, "velocity": 64}, {"time": 57600, "pitch": 37, "duration": 10, "velocity": 106}, {"time": 57600, "pitch": 42, "duration": 10, "velocity": 92}, {"time": 57600, "pitch": 56, "duration": 10, "velocity": 64}, {"time": 57600, "pitch": 69, "duration": 10, "velocity": 64}, {"time": 57600, "pitch": 70, "duration": 10, "velocity": 78}, {"time": 57720, "pitch": 70, "duration": 10, "velocity": 36}, {"time": 57740, "pitch": 56, "duration": 10, "velocity": 22}, {"time": 57740, "pitch": 67, "duration": 10, "velocity": 92}, {"time": 57740, "pitch": 69, "duration": 10, "velocity": 36}, {"time": 57840, "pitch": 42, "duration": 10, "velocity": 64}, {"time": 57840, "pitch": 56, "duration": 10, "velocity": 22}, {"time": 57840, "pitch": 69, "duration": 10, "velocity": 50}, {"time": 57840, "pitch": 70, "duration": 10, "velocity": 78}, {"time": 57960, "pitch": 28, "duration": 10, "velocity": 64}, {"time": 57960, "pitch": 37, "duration": 10, "velocity": 106}, {"time": 57960, "pitch": 70, "duration": 10, "velocity": 36}, {"time": 57980, "pitch": 56, "duration": 10, "velocity": 64}, {"time": 57980, "pitch": 67, "duration": 10, "velocity": 64}, {"time": 57980, "pitch": 69, "duration": 10, "velocity": 36}, {"time": 58080, "pitch": 39, "duration": 10, "velocity": 120}, {"time": 58080, "pitch": 40, "duration": 10, "velocity": 92}, {"time": 58080, "pitch": 42, "duration": 10, "velocity": 92}, {"time": 58080, "pitch": 56, "duration": 10, "velocity": 22}, {"time": 58080, "pitch": 67, "duration": 10, "velocity": 92}, {"time": 58080, "pitch": 69, "duration": 10, "velocity": 64}, {"time": 58080, "pitch": 70, "duration": 10, "velocity": 78}, {"time": 58200, "pitch": 70, "duration": 10, "velocity": 36}, {"time": 58220, "pitch": 56, "duration": 10, "velocity": 22}, {"time": 58220, "pitch": 69, "duration": 10, "velocity": 36}, {"time": 58320, "pitch": 28, "duration": 10, "velocity": 64}, {"time": 58320, "pitch": 37, "duration": 10, "velocity": 106}, {"time": 58320, "pitch": 42, "duration": 10, "velocity": 64}, {"time": 58320, "pitch": 56, "duration": 10, "velocity": 36}, {"time": 58320, "pitch": 68, "duration": 10, "velocity": 78}, {"time": 58320, "pitch": 69, "duration": 10, "velocity": 22}, {"time": 58320, "pitch": 70, "duration": 10, "velocity": 78}, {"time": 58350, "pitch": 69, "duration": 10, "velocity": 36}, {"time": 58380, "pitch": 69, "duration": 10, "velocity": 36}, {"time": 58410, "pitch": 69, "duration": 10, "velocity": 50}, {"time": 58440, "pitch": 56, "duration": 10, "velocity": 22}, {"time": 58440, "pitch": 68, "duration": 10, "velocity": 92}, {"time": 58440, "pitch": 69, "duration": 10, "velocity": 50}, {"time": 58440, "pitch": 70, "duration": 10, "velocity": 36}, {"time": 58470, "pitch": 69, "duration": 10, "velocity": 64}, {"time": 58500, "pitch": 69, "duration": 10, "velocity": 64}, {"time": 58530, "pitch": 69, "duration": 10, "velocity": 64}, {"time": 58560, "pitch": 42, "duration": 10, "velocity": 92}, {"time": 58560, "pitch": 68, "duration": 10, "velocity": 92}, {"time": 58560, "pitch": 69, "duration": 10, "velocity": 64}, {"time": 58560, "pitch": 70, "duration": 10, "velocity": 78}, {"time": 58680, "pitch": 70, "duration": 10, "velocity": 36}, {"time": 58700, "pitch": 69, "duration": 10, "velocity": 36}, {"time": 58800, "pitch": 28, "duration": 10, "velocity": 64}, {"time": 58800, "pitch": 37, "duration": 10, "velocity": 106}, {"time": 58800, "pitch": 39, "duration": 10, "velocity": 106}, {"time": 58800, "pitch": 40, "duration": 10, "velocity": 64}, {"time": 58800, "pitch": 49, "duration": 10, "velocity": 78}, {"time": 58800, "pitch": 56, "duration": 10, "velocity": 64}, {"time": 58800, "pitch": 67, "duration": 10, "velocity": 92}, {"time": 58800, "pitch": 69, "duration": 10, "velocity": 50}, {"time": 58800, "pitch": 70, "duration": 10, "velocity": 78}, {"time": 58920, "pitch": 70, "duration": 10, "velocity": 36}, {"time": 58940, "pitch": 56, "duration": 10, "velocity": 36}, {"time": 58940, "pitch": 69, "duration": 10, "velocity": 36}, {"time": 59040, "pitch": 28, "duration": 10, "velocity": 64}, {"time": 59040, "pitch": 37, "duration": 10, "velocity": 106}, {"time": 59040, "pitch": 39, "duration": 10, "velocity": 120}, {"time": 59040, "pitch": 40, "duration": 10, "velocity": 92}, {"time": 59040, "pitch": 56, "duration": 10, "velocity": 50}, {"time": 59040, "pitch": 57, "duration": 10, "velocity": 92}, {"time": 59040, "pitch": 67, "duration": 10, "velocity": 92}, {"time": 59040, "pitch": 69, "duration": 10, "velocity": 64}, {"time": 59040, "pitch": 70, "duration": 10, "velocity": 78}, {"time": 59160, "pitch": 70, "duration": 10, "velocity": 36}, {"time": 59180, "pitch": 56, "duration": 10, "velocity": 36}, {"time": 59180, "pitch": 68, "duration": 10, "velocity": 64}, {"time": 59180, "pitch": 69, "duration": 10, "velocity": 36}, {"time": 59280, "pitch": 56, "duration": 10, "velocity": 22}, {"time": 59280, "pitch": 69, "duration": 10, "velocity": 50}, {"time": 59280, "pitch": 70, "duration": 10, "velocity": 78}, {"time": 59400, "pitch": 70, "duration": 10, "velocity": 36}, {"time": 59420, "pitch": 56, "duration": 10, "velocity": 22}, {"time": 59420, "pitch": 68, "duration": 10, "velocity": 92}, {"time": 59420, "pitch": 69, "duration": 10, "velocity": 36}, {"time": 59520, "pitch": 28, "duration": 10, "velocity": 64}, {"time": 59520, "pitch": 37, "duration": 10, "velocity": 78}, {"time": 59520, "pitch": 39, "duration": 10, "velocity": 106}, {"time": 59520, "pitch": 40, "duration": 10, "velocity": 64}, {"time": 59520, "pitch": 56, "duration": 10, "velocity": 64}, {"time": 59520, "pitch": 57, "duration": 10, "velocity": 92}, {"time": 59520, "pitch": 69, "duration": 10, "velocity": 64}, {"time": 59520, "pitch": 70, "duration": 10, "velocity": 78}, {"time": 59640, "pitch": 70, "duration": 10, "velocity": 36}, {"time": 59660, "pitch": 56, "duration": 10, "velocity": 22}, {"time": 59660, "pitch": 67, "duration": 10, "velocity": 92}, {"time": 59660, "pitch": 69, "duration": 10, "velocity": 36}, {"time": 59760, "pitch": 28, "duration": 10, "velocity": 64}, {"time": 59760, "pitch": 37, "duration": 10, "velocity": 106}, {"time": 59760, "pitch": 39, "duration": 10, "velocity": 120}, {"time": 59760, "pitch": 40, "duration": 10, "velocity": 92}, {"time": 59760, "pitch": 56, "duration": 10, "velocity": 22}, {"time": 59760, "pitch": 57, "duration": 10, "velocity": 92}, {"time": 59760, "pitch": 69, "duration": 10, "velocity": 50}, {"time": 59760, "pitch": 70, "duration": 10, "velocity": 78}, {"time": 59880, "pitch": 70, "duration": 10, "velocity": 36}, {"time": 59900, "pitch": 56, "duration": 10, "velocity": 64}, {"time": 59900, "pitch": 67, "duration": 10, "velocity": 64}, {"time": 59900, "pitch": 69, "duration": 10, "velocity": 36}, {"time": 60000, "pitch": 56, "duration": 10, "velocity": 22}, {"time": 60000, "pitch": 67, "duration": 10, "velocity": 92}, {"time": 60000, "pitch": 69, "duration": 10, "velocity": 64}, {"time": 60000, "pitch": 70, "duration": 10, "velocity": 78}, {"time": 60120, "pitch": 70, "duration": 10, "velocity": 36}, {"time": 60140, "pitch": 56, "duration": 10, "velocity": 22}, {"time": 60140, "pitch": 69, "duration": 10, "velocity": 36}, {"time": 60240, "pitch": 42, "duration": 10, "velocity": 92}, {"time": 60240, "pitch": 49, "duration": 10, "velocity": 92}, {"time": 60240, "pitch": 56, "duration": 10, "velocity": 36}, {"time": 60240, "pitch": 68, "duration": 10, "velocity": 78}, {"time": 60240, "pitch": 69, "duration": 10, "velocity": 50}, {"time": 60240, "pitch": 70, "duration": 10, "velocity": 78}, {"time": 60360, "pitch": 70, "duration": 10, "velocity": 36}, {"time": 60380, "pitch": 56, "duration": 10, "velocity": 22}, {"time": 60380, "pitch": 68, "duration": 10, "velocity": 92}, {"time": 60380, "pitch": 69, "duration": 10, "velocity": 36}, {"time": 60480, "pitch": 42, "duration": 10, "velocity": 64}, {"time": 60480, "pitch": 49, "duration": 10, "velocity": 92}, {"time": 60480, "pitch": 68, "duration": 10, "velocity": 92}, {"time": 60480, "pitch": 69, "duration": 10, "velocity": 64}, {"time": 60480, "pitch": 70, "duration": 10, "velocity": 78}, {"time": 60620, "pitch": 38, "duration": 10, "velocity": 36}, {"time": 60620, "pitch": 40, "duration": 10, "velocity": 64}, {"time": 60620, "pitch": 69, "duration": 10, "velocity": 36}, {"time": 60620, "pitch": 70, "duration": 10, "velocity": 36}, {"time": 60620, "pitch": 78, "duration": 10, "velocity": 50}, {"time": 60720, "pitch": 28, "duration": 10, "velocity": 64}, {"time": 60720, "pitch": 37, "duration": 10, "velocity": 106}, {"time": 60720, "pitch": 42, "duration": 10, "velocity": 92}, {"time": 60720, "pitch": 56, "duration": 10, "velocity": 64}, {"time": 60720, "pitch": 67, "duration": 10, "velocity": 92}, {"time": 60720, "pitch": 69, "duration": 10, "velocity": 50}, {"time": 60720, "pitch": 70, "duration": 10, "velocity": 78}, {"time": 60860, "pitch": 38, "duration": 10, "velocity": 64}, {"time": 60860, "pitch": 40, "duration": 10, "velocity": 78}, {"time": 60860, "pitch": 56, "duration": 10, "velocity": 36}, {"time": 60860, "pitch": 69, "duration": 10, "velocity": 36}, {"time": 60860, "pitch": 70, "duration": 10, "velocity": 36}, {"time": 60860, "pitch": 78, "duration": 10, "velocity": 50}, {"time": 60960, "pitch": 39, "duration": 10, "velocity": 120}, {"time": 60960, "pitch": 42, "duration": 10, "velocity": 92}, {"time": 60960, "pitch": 56, "duration": 10, "velocity": 50}, {"time": 60960, "pitch": 67, "duration": 10, "velocity": 92}, {"time": 60960, "pitch": 69, "duration": 10, "velocity": 64}, {"time": 60960, "pitch": 70, "duration": 10, "velocity": 78}, {"time": 61100, "pitch": 28, "duration": 10, "velocity": 64}, {"time": 61100, "pitch": 37, "duration": 10, "velocity": 106}, {"time": 61100, "pitch": 38, "duration": 10, "velocity": 78}, {"time": 61100, "pitch": 40, "duration": 10, "velocity": 106}, {"time": 61100, "pitch": 56, "duration": 10, "velocity": 36}, {"time": 61100, "pitch": 68, "duration": 10, "velocity": 64}, {"time": 61100, "pitch": 69, "duration": 10, "velocity": 36}, {"time": 61100, "pitch": 70, "duration": 10, "velocity": 36}, {"time": 61100, "pitch": 78, "duration": 10, "velocity": 50}, {"time": 61200, "pitch": 42, "duration": 10, "velocity": 64}, {"time": 61200, "pitch": 56, "duration": 10, "velocity": 22}, {"time": 61200, "pitch": 69, "duration": 10, "velocity": 50}, {"time": 61200, "pitch": 70, "duration": 10, "velocity": 78}, {"time": 61340, "pitch": 38, "duration": 10, "velocity": 64}, {"time": 61340, "pitch": 40, "duration": 10, "velocity": 64}, {"time": 61340, "pitch": 56, "duration": 10, "velocity": 22}, {"time": 61340, "pitch": 68, "duration": 10, "velocity": 92}, {"time": 61340, "pitch": 69, "duration": 10, "velocity": 36}, {"time": 61340, "pitch": 70, "duration": 10, "velocity": 36}, {"time": 61340, "pitch": 78, "duration": 10, "velocity": 50}, {"time": 61440, "pitch": 28, "duration": 10, "velocity": 64}, {"time": 61440, "pitch": 37, "duration": 10, "velocity": 106}, {"time": 61440, "pitch": 38, "duration": 10, "velocity": 64}, {"time": 61440, "pitch": 40, "duration": 10, "velocity": 106}, {"time": 61440, "pitch": 42, "duration": 10, "velocity": 92}, {"time": 61440, "pitch": 56, "duration": 10, "velocity": 64}, {"time": 61440, "pitch": 69, "duration": 10, "velocity": 64}, {"time": 61440, "pitch": 70, "duration": 10, "velocity": 78}, {"time": 61440, "pitch": 78, "duration": 10, "velocity": 50}, {"time": 61580, "pitch": 38, "duration": 10, "velocity": 78}, {"time": 61580, "pitch": 40, "duration": 10, "velocity": 120}, {"time": 61580, "pitch": 56, "duration": 10, "velocity": 22}, {"time": 61580, "pitch": 67, "duration": 10, "velocity": 92}, {"time": 61580, "pitch": 69, "duration": 10, "velocity": 36}, {"time": 61580, "pitch": 70, "duration": 10, "velocity": 36}, {"time": 61580, "pitch": 78, "duration": 10, "velocity": 50}, {"time": 61680, "pitch": 42, "duration": 10, "velocity": 64}, {"time": 61680, "pitch": 56, "duration": 10, "velocity": 22}, {"time": 61680, "pitch": 69, "duration": 10, "velocity": 50}, {"time": 61680, "pitch": 70, "duration": 10, "velocity": 78}, {"time": 61810, "pitch": 28, "duration": 10, "velocity": 64}, {"time": 61810, "pitch": 37, "duration": 10, "velocity": 106}, {"time": 61810, "pitch": 38, "duration": 10, "velocity": 64}, {"time": 61810, "pitch": 40, "duration": 10, "velocity": 106}, {"time": 61810, "pitch": 70, "duration": 10, "velocity": 36}, {"time": 61820, "pitch": 56, "duration": 10, "velocity": 64}, {"time": 61820, "pitch": 67, "duration": 10, "velocity": 64}, {"time": 61820, "pitch": 69, "duration": 10, "velocity": 36}, {"time": 61820, "pitch": 78, "duration": 10, "velocity": 50}, {"time": 61920, "pitch": 38, "duration": 10, "velocity": 78}, {"time": 61920, "pitch": 39, "duration": 10, "velocity": 120}, {"time": 61920, "pitch": 40, "duration": 10, "velocity": 120}, {"time": 61920, "pitch": 42, "duration": 10, "velocity": 92}, {"time": 61920, "pitch": 56, "duration": 10, "velocity": 22}, {"time": 61920, "pitch": 67, "duration": 10, "velocity": 92}, {"time": 61920, "pitch": 69, "duration": 10, "velocity": 64}, {"time": 61920, "pitch": 70, "duration": 10, "velocity": 78}, {"time": 61920, "pitch": 78, "duration": 10, "velocity": 50}, {"time": 62060, "pitch": 56, "duration": 10, "velocity": 22}, {"time": 62060, "pitch": 69, "duration": 10, "velocity": 36}, {"time": 62060, "pitch": 70, "duration": 10, "velocity": 36}, {"time": 62160, "pitch": 28, "duration": 10, "velocity": 64}, {"time": 62160, "pitch": 37, "duration": 10, "velocity": 106}, {"time": 62160, "pitch": 42, "duration": 10, "velocity": 64}, {"time": 62160, "pitch": 56, "duration": 10, "velocity": 36}, {"time": 62160, "pitch": 68, "duration": 10, "velocity": 78}, {"time": 62160, "pitch": 69, "duration": 10, "velocity": 22}, {"time": 62160, "pitch": 70, "duration": 10, "velocity": 78}, {"time": 62190, "pitch": 69, "duration": 10, "velocity": 36}, {"time": 62220, "pitch": 69, "duration": 10, "velocity": 36}, {"time": 62250, "pitch": 69, "duration": 10, "velocity": 50}, {"time": 62280, "pitch": 56, "duration": 10, "velocity": 22}, {"time": 62280, "pitch": 68, "duration": 10, "velocity": 92}, {"time": 62280, "pitch": 69, "duration": 10, "velocity": 50}, {"time": 62300, "pitch": 70, "duration": 10, "velocity": 36}, {"time": 62310, "pitch": 69, "duration": 10, "velocity": 64}, {"time": 62340, "pitch": 69, "duration": 10, "velocity": 64}, {"time": 62370, "pitch": 69, "duration": 10, "velocity": 64}, {"time": 62400, "pitch": 42, "duration": 10, "velocity": 64}, {"time": 62400, "pitch": 49, "duration": 10, "velocity": 92}, {"time": 62400, "pitch": 68, "duration": 10, "velocity": 92}, {"time": 62400, "pitch": 69, "duration": 10, "velocity": 64}, {"time": 62540, "pitch": 69, "duration": 10, "velocity": 36}, {"time": 62640, "pitch": 28, "duration": 10, "velocity": 64}, {"time": 62640, "pitch": 37, "duration": 10, "velocity": 106}, {"time": 62640, "pitch": 42, "duration": 10, "velocity": 92}, {"time": 62640, "pitch": 56, "duration": 10, "velocity": 64}, {"time": 62640, "pitch": 67, "duration": 10, "velocity": 92}, {"time": 62640, "pitch": 69, "duration": 10, "velocity": 50}, {"time": 62780, "pitch": 56, "duration": 10, "velocity": 36}, {"time": 62780, "pitch": 69, "duration": 10, "velocity": 36}, {"time": 62880, "pitch": 28, "duration": 10, "velocity": 64}, {"time": 62880, "pitch": 37, "duration": 10, "velocity": 106}, {"time": 62880, "pitch": 42, "duration": 10, "velocity": 92}, {"time": 62880, "pitch": 56, "duration": 10, "velocity": 50}, {"time": 62880, "pitch": 67, "duration": 10, "velocity": 92}, {"time": 62880, "pitch": 69, "duration": 10, "velocity": 64}, {"time": 63020, "pitch": 56, "duration": 10, "velocity": 36}, {"time": 63020, "pitch": 68, "duration": 10, "velocity": 64}, {"time": 63020, "pitch": 69, "duration": 10, "velocity": 36}, {"time": 63120, "pitch": 42, "duration": 10, "velocity": 64}, {"time": 63120, "pitch": 56, "duration": 10, "velocity": 22}, {"time": 63120, "pitch": 69, "duration": 10, "velocity": 50}, {"time": 63260, "pitch": 56, "duration": 10, "velocity": 22}, {"time": 63260, "pitch": 68, "duration": 10, "velocity": 92}, {"time": 63260, "pitch": 69, "duration": 10, "velocity": 36}, {"time": 63360, "pitch": 28, "duration": 10, "velocity": 64}, {"time": 63360, "pitch": 37, "duration": 10, "velocity": 106}, {"time": 63360, "pitch": 42, "duration": 10, "velocity": 92}, {"time": 63360, "pitch": 56, "duration": 10, "velocity": 64}, {"time": 63360, "pitch": 69, "duration": 10, "velocity": 64}, {"time": 63500, "pitch": 56, "duration": 10, "velocity": 22}, {"time": 63500, "pitch": 67, "duration": 10, "velocity": 92}, {"time": 63500, "pitch": 69, "duration": 10, "velocity": 36}, {"time": 63600, "pitch": 42, "duration": 10, "velocity": 64}, {"time": 63600, "pitch": 56, "duration": 10, "velocity": 22}, {"time": 63600, "pitch": 69, "duration": 10, "velocity": 50}, {"time": 63720, "pitch": 28, "duration": 10, "velocity": 64}, {"time": 63720, "pitch": 37, "duration": 10, "velocity": 106}, {"time": 63740, "pitch": 56, "duration": 10, "velocity": 64}, {"time": 63740, "pitch": 67, "duration": 10, "velocity": 64}, {"time": 63740, "pitch": 69, "duration": 10, "velocity": 36}, {"time": 63840, "pitch": 42, "duration": 10, "velocity": 92}, {"time": 63840, "pitch": 56, "duration": 10, "velocity": 22}, {"time": 63840, "pitch": 67, "duration": 10, "velocity": 92}, {"time": 63840, "pitch": 69, "duration": 10, "velocity": 64}, {"time": 63980, "pitch": 56, "duration": 10, "velocity": 22}, {"time": 63980, "pitch": 69, "duration": 10, "velocity": 36}, {"time": 64080, "pitch": 28, "duration": 10, "velocity": 64}, {"time": 64080, "pitch": 37, "duration": 10, "velocity": 106}, {"time": 64080, "pitch": 42, "duration": 10, "velocity": 64}, {"time": 64080, "pitch": 56, "duration": 10, "velocity": 36}, {"time": 64080, "pitch": 68, "duration": 10, "velocity": 78}, {"time": 64080, "pitch": 69, "duration": 10, "velocity": 50}, {"time": 64220, "pitch": 56, "duration": 10, "velocity": 22}, {"time": 64220, "pitch": 68, "duration": 10, "velocity": 92}, {"time": 64220, "pitch": 69, "duration": 10, "velocity": 36}, {"time": 64320, "pitch": 42, "duration": 10, "velocity": 64}, {"time": 64320, "pitch": 68, "duration": 10, "velocity": 92}, {"time": 64320, "pitch": 69, "duration": 10, "velocity": 64}, {"time": 64460, "pitch": 69, "duration": 10, "velocity": 36}, {"time": 64560, "pitch": 28, "duration": 10, "velocity": 64}, {"time": 64560, "pitch": 37, "duration": 10, "velocity": 106}, {"time": 64560, "pitch": 42, "duration": 10, "velocity": 92}, {"time": 64560, "pitch": 56, "duration": 10, "velocity": 64}, {"time": 64560, "pitch": 67, "duration": 10, "velocity": 92}, {"time": 64560, "pitch": 69, "duration": 10, "velocity": 50}, {"time": 64700, "pitch": 56, "duration": 10, "velocity": 36}, {"time": 64700, "pitch": 69, "duration": 10, "velocity": 36}, {"time": 64800, "pitch": 42, "duration": 10, "velocity": 92}, {"time": 64800, "pitch": 56, "duration": 10, "velocity": 50}, {"time": 64800, "pitch": 67, "duration": 10, "velocity": 92}, {"time": 64800, "pitch": 69, "duration": 10, "velocity": 64}, {"time": 64920, "pitch": 28, "duration": 10, "velocity": 64}, {"time": 64920, "pitch": 37, "duration": 10, "velocity": 106}, {"time": 64940, "pitch": 56, "duration": 10, "velocity": 36}, {"time": 64940, "pitch": 68, "duration": 10, "velocity": 64}, {"time": 64940, "pitch": 69, "duration": 10, "velocity": 36}, {"time": 65040, "pitch": 42, "duration": 10, "velocity": 64}, {"time": 65040, "pitch": 56, "duration": 10, "velocity": 22}, {"time": 65040, "pitch": 69, "duration": 10, "velocity": 50}, {"time": 65180, "pitch": 56, "duration": 10, "velocity": 22}, {"time": 65180, "pitch": 68, "duration": 10, "velocity": 92}, {"time": 65180, "pitch": 69, "duration": 10, "velocity": 36}, {"time": 65280, "pitch": 28, "duration": 10, "velocity": 64}, {"time": 65280, "pitch": 37, "duration": 10, "velocity": 106}, {"time": 65280, "pitch": 42, "duration": 10, "velocity": 92}, {"time": 65280, "pitch": 56, "duration": 10, "velocity": 64}, {"time": 65280, "pitch": 69, "duration": 10, "velocity": 64}, {"time": 65420, "pitch": 56, "duration": 10, "velocity": 22}, {"time": 65420, "pitch": 67, "duration": 10, "velocity": 92}, {"time": 65420, "pitch": 69, "duration": 10, "velocity": 36}, {"time": 65520, "pitch": 42, "duration": 10, "velocity": 64}, {"time": 65520, "pitch": 56, "duration": 10, "velocity": 22}, {"time": 65520, "pitch": 69, "duration": 10, "velocity": 50}, {"time": 65640, "pitch": 28, "duration": 10, "velocity": 64}, {"time": 65640, "pitch": 37, "duration": 10, "velocity": 106}, {"time": 65660, "pitch": 56, "duration": 10, "velocity": 64}, {"time": 65660, "pitch": 67, "duration": 10, "velocity": 64}, {"time": 65660, "pitch": 69, "duration": 10, "velocity": 36}, {"time": 65760, "pitch": 42, "duration": 10, "velocity": 92}, {"time": 65760, "pitch": 56, "duration": 10, "velocity": 22}, {"time": 65760, "pitch": 67, "duration": 10, "velocity": 92}, {"time": 65760, "pitch": 69, "duration": 10, "velocity": 64}, {"time": 65900, "pitch": 56, "duration": 10, "velocity": 22}, {"time": 65900, "pitch": 69, "duration": 10, "velocity": 36}, {"time": 66000, "pitch": 28, "duration": 10, "velocity": 64}, {"time": 66000, "pitch": 37, "duration": 10, "velocity": 106}, {"time": 66000, "pitch": 42, "duration": 10, "velocity": 64}, {"time": 66000, "pitch": 56, "duration": 10, "velocity": 36}, {"time": 66000, "pitch": 68, "duration": 10, "velocity": 78}, {"time": 66000, "pitch": 69, "duration": 10, "velocity": 22}, {"time": 66030, "pitch": 69, "duration": 10, "velocity": 36}, {"time": 66060, "pitch": 69, "duration": 10, "velocity": 36}, {"time": 66090, "pitch": 69, "duration": 10, "velocity": 50}, {"time": 66120, "pitch": 56, "duration": 10, "velocity": 22}, {"time": 66120, "pitch": 68, "duration": 10, "velocity": 92}, {"time": 66120, "pitch": 69, "duration": 10, "velocity": 50}, {"time": 66150, "pitch": 69, "duration": 10, "velocity": 64}, {"time": 66180, "pitch": 69, "duration": 10, "velocity": 64}, {"time": 66210, "pitch": 69, "duration": 10, "velocity": 64}, {"time": 66240, "pitch": 42, "duration": 10, "velocity": 64}, {"time": 66240, "pitch": 68, "duration": 10, "velocity": 92}, {"time": 66240, "pitch": 69, "duration": 10, "velocity": 64}, {"time": 66380, "pitch": 69, "duration": 10, "velocity": 36}, {"time": 66480, "pitch": 28, "duration": 10, "velocity": 64}, {"time": 66480, "pitch": 37, "duration": 10, "velocity": 106}, {"time": 66480, "pitch": 42, "duration": 10, "velocity": 92}, {"time": 66480, "pitch": 56, "duration": 10, "velocity": 64}, {"time": 66480, "pitch": 67, "duration": 10, "velocity": 92}, {"time": 66480, "pitch": 69, "duration": 10, "velocity": 50}, {"time": 66620, "pitch": 56, "duration": 10, "velocity": 36}, {"time": 66620, "pitch": 69, "duration": 10, "velocity": 36}, {"time": 66720, "pitch": 28, "duration": 10, "velocity": 64}, {"time": 66720, "pitch": 37, "duration": 10, "velocity": 106}, {"time": 66720, "pitch": 42, "duration": 10, "velocity": 92}, {"time": 66720, "pitch": 56, "duration": 10, "velocity": 50}, {"time": 66720, "pitch": 67, "duration": 10, "velocity": 92}, {"time": 66720, "pitch": 69, "duration": 10, "velocity": 64}, {"time": 66860, "pitch": 56, "duration": 10, "velocity": 36}, {"time": 66860, "pitch": 68, "duration": 10, "velocity": 64}, {"time": 66860, "pitch": 69, "duration": 10, "velocity": 36}, {"time": 66960, "pitch": 42, "duration": 10, "velocity": 64}, {"time": 66960, "pitch": 56, "duration": 10, "velocity": 22}, {"time": 66960, "pitch": 69, "duration": 10, "velocity": 50}, {"time": 67100, "pitch": 56, "duration": 10, "velocity": 22}, {"time": 67100, "pitch": 68, "duration": 10, "velocity": 92}, {"time": 67100, "pitch": 69, "duration": 10, "velocity": 36}, {"time": 67200, "pitch": 28, "duration": 10, "velocity": 64}, {"time": 67200, "pitch": 37, "duration": 10, "velocity": 106}, {"time": 67200, "pitch": 42, "duration": 10, "velocity": 92}, {"time": 67200, "pitch": 56, "duration": 10, "velocity": 64}, {"time": 67200, "pitch": 69, "duration": 10, "velocity": 64}, {"time": 67340, "pitch": 56, "duration": 10, "velocity": 22}, {"time": 67340, "pitch": 67, "duration": 10, "velocity": 92}, {"time": 67340, "pitch": 69, "duration": 10, "velocity": 36}, {"time": 67440, "pitch": 42, "duration": 10, "velocity": 64}, {"time": 67440, "pitch": 56, "duration": 10, "velocity": 22}, {"time": 67440, "pitch": 69, "duration": 10, "velocity": 50}, {"time": 67560, "pitch": 28, "duration": 10, "velocity": 64}, {"time": 67560, "pitch": 37, "duration": 10, "velocity": 106}, {"time": 67580, "pitch": 56, "duration": 10, "velocity": 64}, {"time": 67580, "pitch": 67, "duration": 10, "velocity": 64}, {"time": 67580, "pitch": 69, "duration": 10, "velocity": 36}, {"time": 67680, "pitch": 42, "duration": 10, "velocity": 92}, {"time": 67680, "pitch": 56, "duration": 10, "velocity": 22}, {"time": 67680, "pitch": 67, "duration": 10, "velocity": 92}, {"time": 67680, "pitch": 69, "duration": 10, "velocity": 64}, {"time": 67820, "pitch": 56, "duration": 10, "velocity": 22}, {"time": 67820, "pitch": 69, "duration": 10, "velocity": 36}, {"time": 67920, "pitch": 28, "duration": 10, "velocity": 64}, {"time": 67920, "pitch": 37, "duration": 10, "velocity": 106}, {"time": 67920, "pitch": 42, "duration": 10, "velocity": 64}, {"time": 67920, "pitch": 56, "duration": 10, "velocity": 36}, {"time": 67920, "pitch": 68, "duration": 10, "velocity": 78}, {"time": 67920, "pitch": 69, "duration": 10, "velocity": 50}, {"time": 68060, "pitch": 56, "duration": 10, "velocity": 22}, {"time": 68060, "pitch": 68, "duration": 10, "velocity": 92}, {"time": 68060, "pitch": 69, "duration": 10, "velocity": 36}, {"time": 68160, "pitch": 42, "duration": 10, "velocity": 64}, {"time": 68160, "pitch": 68, "duration": 10, "velocity": 92}, {"time": 68160, "pitch": 69, "duration": 10, "velocity": 64}, {"time": 68300, "pitch": 69, "duration": 10, "velocity": 36}, {"time": 68400, "pitch": 28, "duration": 10, "velocity": 64}, {"time": 68400, "pitch": 37, "duration": 10, "velocity": 106}, {"time": 68400, "pitch": 42, "duration": 10, "velocity": 92}, {"time": 68400, "pitch": 56, "duration": 10, "velocity": 64}, {"time": 68400, "pitch": 67, "duration": 10, "velocity": 92}, {"time": 68400, "pitch": 69, "duration": 10, "velocity": 50}, {"time": 68540, "pitch": 56, "duration": 10, "velocity": 36}, {"time": 68540, "pitch": 69, "duration": 10, "velocity": 36}, {"time": 68640, "pitch": 42, "duration": 10, "velocity": 92}, {"time": 68640, "pitch": 56, "duration": 10, "velocity": 50}, {"time": 68640, "pitch": 67, "duration": 10, "velocity": 92}, {"time": 68640, "pitch": 69, "duration": 10, "velocity": 64}, {"time": 68760, "pitch": 28, "duration": 10, "velocity": 64}, {"time": 68760, "pitch": 37, "duration": 10, "velocity": 106}, {"time": 68780, "pitch": 56, "duration": 10, "velocity": 36}, {"time": 68780, "pitch": 68, "duration": 10, "velocity": 64}, {"time": 68780, "pitch": 69, "duration": 10, "velocity": 36}, {"time": 68880, "pitch": 42, "duration": 10, "velocity": 64}, {"time": 68880, "pitch": 56, "duration": 10, "velocity": 22}, {"time": 68880, "pitch": 69, "duration": 10, "velocity": 50}, {"time": 69020, "pitch": 56, "duration": 10, "velocity": 22}, {"time": 69020, "pitch": 68, "duration": 10, "velocity": 92}, {"time": 69020, "pitch": 69, "duration": 10, "velocity": 36}, {"time": 69120, "pitch": 28, "duration": 10, "velocity": 64}, {"time": 69120, "pitch": 37, "duration": 10, "velocity": 106}, {"time": 69120, "pitch": 42, "duration": 10, "velocity": 92}, {"time": 69120, "pitch": 56, "duration": 10, "velocity": 64}, {"time": 69120, "pitch": 69, "duration": 10, "velocity": 64}, {"time": 69260, "pitch": 56, "duration": 10, "velocity": 22}, {"time": 69260, "pitch": 67, "duration": 10, "velocity": 92}, {"time": 69260, "pitch": 69, "duration": 10, "velocity": 36}, {"time": 69360, "pitch": 42, "duration": 10, "velocity": 64}, {"time": 69360, "pitch": 56, "duration": 10, "velocity": 22}, {"time": 69360, "pitch": 69, "duration": 10, "velocity": 50}, {"time": 69480, "pitch": 28, "duration": 10, "velocity": 64}, {"time": 69480, "pitch": 37, "duration": 10, "velocity": 106}, {"time": 69500, "pitch": 56, "duration": 10, "velocity": 64}, {"time": 69500, "pitch": 67, "duration": 10, "velocity": 64}, {"time": 69500, "pitch": 69, "duration": 10, "velocity": 36}, {"time": 69600, "pitch": 42, "duration": 10, "velocity": 92}, {"time": 69600, "pitch": 56, "duration": 10, "velocity": 22}, {"time": 69600, "pitch": 67, "duration": 10, "velocity": 92}, {"time": 69600, "pitch": 69, "duration": 10, "velocity": 64}, {"time": 69740, "pitch": 56, "duration": 10, "velocity": 22}, {"time": 69740, "pitch": 69, "duration": 10, "velocity": 36}, {"time": 69840, "pitch": 28, "duration": 10, "velocity": 64}, {"time": 69840, "pitch": 37, "duration": 10, "velocity": 106}, {"time": 69840, "pitch": 42, "duration": 10, "velocity": 64}, {"time": 69840, "pitch": 56, "duration": 10, "velocity": 36}, {"time": 69840, "pitch": 68, "duration": 10, "velocity": 78}, {"time": 69840, "pitch": 69, "duration": 10, "velocity": 22}, {"time": 69870, "pitch": 69, "duration": 10, "velocity": 36}, {"time": 69900, "pitch": 69, "duration": 10, "velocity": 36}, {"time": 69930, "pitch": 69, "duration": 10, "velocity": 50}, {"time": 69960, "pitch": 56, "duration": 10, "velocity": 22}, {"time": 69960, "pitch": 68, "duration": 10, "velocity": 92}, {"time": 69960, "pitch": 69, "duration": 10, "velocity": 50}, {"time": 69990, "pitch": 69, "duration": 10, "velocity": 64}, {"time": 70020, "pitch": 69, "duration": 10, "velocity": 64}, {"time": 70050, "pitch": 69, "duration": 10, "velocity": 64}, {"time": 70080, "pitch": 42, "duration": 10, "velocity": 64}, {"time": 70080, "pitch": 68, "duration": 10, "velocity": 92}, {"time": 70080, "pitch": 69, "duration": 10, "velocity": 64}, {"time": 70080, "pitch": 70, "duration": 10, "velocity": 78}, {"time": 70200, "pitch": 70, "duration": 10, "velocity": 36}, {"time": 70220, "pitch": 69, "duration": 10, "velocity": 36}, {"time": 70320, "pitch": 28, "duration": 10, "velocity": 64}, {"time": 70320, "pitch": 37, "duration": 10, "velocity": 106}, {"time": 70320, "pitch": 42, "duration": 10, "velocity": 92}, {"time": 70320, "pitch": 56, "duration": 10, "velocity": 64}, {"time": 70320, "pitch": 67, "duration": 10, "velocity": 92}, {"time": 70320, "pitch": 69, "duration": 10, "velocity": 50}, {"time": 70320, "pitch": 70, "duration": 10, "velocity": 78}, {"time": 70440, "pitch": 70, "duration": 10, "velocity": 36}, {"time": 70460, "pitch": 56, "duration": 10, "velocity": 36}, {"time": 70460, "pitch": 69, "duration": 10, "velocity": 36}, {"time": 70560, "pitch": 28, "duration": 10, "velocity": 64}, {"time": 70560, "pitch": 37, "duration": 10, "velocity": 106}, {"time": 70560, "pitch": 42, "duration": 10, "velocity": 92}, {"time": 70560, "pitch": 56, "duration": 10, "velocity": 50}, {"time": 70560, "pitch": 67, "duration": 10, "velocity": 92}, {"time": 70560, "pitch": 69, "duration": 10, "velocity": 64}, {"time": 70560, "pitch": 70, "duration": 10, "velocity": 78}, {"time": 70680, "pitch": 70, "duration": 10, "velocity": 36}, {"time": 70700, "pitch": 56, "duration": 10, "velocity": 36}, {"time": 70700, "pitch": 68, "duration": 10, "velocity": 64}, {"time": 70700, "pitch": 69, "duration": 10, "velocity": 36}, {"time": 70800, "pitch": 42, "duration": 10, "velocity": 64}, {"time": 70800, "pitch": 56, "duration": 10, "velocity": 22}, {"time": 70800, "pitch": 69, "duration": 10, "velocity": 50}, {"time": 70800, "pitch": 70, "duration": 10, "velocity": 78}, {"time": 70920, "pitch": 70, "duration": 10, "velocity": 36}, {"time": 70940, "pitch": 56, "duration": 10, "velocity": 22}, {"time": 70940, "pitch": 68, "duration": 10, "velocity": 92}, {"time": 70940, "pitch": 69, "duration": 10, "velocity": 36}, {"time": 71040, "pitch": 28, "duration": 10, "velocity": 64}, {"time": 71040, "pitch": 37, "duration": 10, "velocity": 106}, {"time": 71040, "pitch": 42, "duration": 10, "velocity": 92}, {"time": 71040, "pitch": 56, "duration": 10, "velocity": 64}, {"time": 71040, "pitch": 69, "duration": 10, "velocity": 64}, {"time": 71040, "pitch": 70, "duration": 10, "velocity": 78}, {"time": 71160, "pitch": 70, "duration": 10, "velocity": 36}, {"time": 71180, "pitch": 56, "duration": 10, "velocity": 22}, {"time": 71180, "pitch": 67, "duration": 10, "velocity": 92}, {"time": 71180, "pitch": 69, "duration": 10, "velocity": 36}, {"time": 71280, "pitch": 42, "duration": 10, "velocity": 64}, {"time": 71280, "pitch": 56, "duration": 10, "velocity": 22}, {"time": 71280, "pitch": 69, "duration": 10, "velocity": 50}, {"time": 71280, "pitch": 70, "duration": 10, "velocity": 78}, {"time": 71400, "pitch": 28, "duration": 10, "velocity": 64}, {"time": 71400, "pitch": 37, "duration": 10, "velocity": 106}, {"time": 71400, "pitch": 70, "duration": 10, "velocity": 36}, {"time": 71420, "pitch": 56, "duration": 10, "velocity": 64}, {"time": 71420, "pitch": 67, "duration": 10, "velocity": 64}, {"time": 71420, "pitch": 69, "duration": 10, "velocity": 36}, {"time": 71520, "pitch": 42, "duration": 10, "velocity": 92}, {"time": 71520, "pitch": 56, "duration": 10, "velocity": 22}, {"time": 71520, "pitch": 67, "duration": 10, "velocity": 92}, {"time": 71520, "pitch": 69, "duration": 10, "velocity": 64}, {"time": 71520, "pitch": 70, "duration": 10, "velocity": 78}, {"time": 71640, "pitch": 70, "duration": 10, "velocity": 36}, {"time": 71660, "pitch": 56, "duration": 10, "velocity": 22}, {"time": 71660, "pitch": 69, "duration": 10, "velocity": 36}, {"time": 71760, "pitch": 28, "duration": 10, "velocity": 64}, {"time": 71760, "pitch": 37, "duration": 10, "velocity": 106}, {"time": 71760, "pitch": 42, "duration": 10, "velocity": 64}, {"time": 71760, "pitch": 56, "duration": 10, "velocity": 36}, {"time": 71760, "pitch": 68, "duration": 10, "velocity": 78}, {"time": 71760, "pitch": 69, "duration": 10, "velocity": 50}, {"time": 71760, "pitch": 70, "duration": 10, "velocity": 78}, {"time": 71880, "pitch": 70, "duration": 10, "velocity": 36}, {"time": 71900, "pitch": 56, "duration": 10, "velocity": 22}, {"time": 71900, "pitch": 68, "duration": 10, "velocity": 92}, {"time": 71900, "pitch": 69, "duration": 10, "velocity": 36}, {"time": 72000, "pitch": 42, "duration": 10, "velocity": 64}, {"time": 72000, "pitch": 68, "duration": 10, "velocity": 92}, {"time": 72000, "pitch": 69, "duration": 10, "velocity": 64}, {"time": 72000, "pitch": 70, "duration": 10, "velocity": 78}, {"time": 72120, "pitch": 70, "duration": 10, "velocity": 36}, {"time": 72140, "pitch": 69, "duration": 10, "velocity": 36}, {"time": 72240, "pitch": 28, "duration": 10, "velocity": 64}, {"time": 72240, "pitch": 37, "duration": 10, "velocity": 106}, {"time": 72240, "pitch": 42, "duration": 10, "velocity": 92}, {"time": 72240, "pitch": 56, "duration": 10, "velocity": 64}, {"time": 72240, "pitch": 67, "duration": 10, "velocity": 92}, {"time": 72240, "pitch": 69, "duration": 10, "velocity": 50}, {"time": 72240, "pitch": 70, "duration": 10, "velocity": 78}, {"time": 72360, "pitch": 70, "duration": 10, "velocity": 36}, {"time": 72380, "pitch": 56, "duration": 10, "velocity": 36}, {"time": 72380, "pitch": 69, "duration": 10, "velocity": 36}, {"time": 72480, "pitch": 42, "duration": 10, "velocity": 92}, {"time": 72480, "pitch": 56, "duration": 10, "velocity": 50}, {"time": 72480, "pitch": 67, "duration": 10, "velocity": 92}, {"time": 72480, "pitch": 69, "duration": 10, "velocity": 64}, {"time": 72480, "pitch": 70, "duration": 10, "velocity": 78}, {"time": 72600, "pitch": 28, "duration": 10, "velocity": 64}, {"time": 72600, "pitch": 37, "duration": 10, "velocity": 106}, {"time": 72600, "pitch": 70, "duration": 10, "velocity": 36}, {"time": 72620, "pitch": 56, "duration": 10, "velocity": 36}, {"time": 72620, "pitch": 68, "duration": 10, "velocity": 64}, {"time": 72620, "pitch": 69, "duration": 10, "velocity": 36}, {"time": 72720, "pitch": 42, "duration": 10, "velocity": 64}, {"time": 72720, "pitch": 56, "duration": 10, "velocity": 22}, {"time": 72720, "pitch": 69, "duration": 10, "velocity": 50}, {"time": 72720, "pitch": 70, "duration": 10, "velocity": 78}, {"time": 72840, "pitch": 70, "duration": 10, "velocity": 36}, {"time": 72860, "pitch": 56, "duration": 10, "velocity": 22}, {"time": 72860, "pitch": 68, "duration": 10, "velocity": 92}, {"time": 72860, "pitch": 69, "duration": 10, "velocity": 36}, {"time": 72960, "pitch": 28, "duration": 10, "velocity": 64}, {"time": 72960, "pitch": 37, "duration": 10, "velocity": 106}, {"time": 72960, "pitch": 42, "duration": 10, "velocity": 92}, {"time": 72960, "pitch": 56, "duration": 10, "velocity": 64}, {"time": 72960, "pitch": 69, "duration": 10, "velocity": 64}, {"time": 72960, "pitch": 70, "duration": 10, "velocity": 78}, {"time": 73080, "pitch": 70, "duration": 10, "velocity": 36}, {"time": 73100, "pitch": 56, "duration": 10, "velocity": 22}, {"time": 73100, "pitch": 67, "duration": 10, "velocity": 92}, {"time": 73100, "pitch": 69, "duration": 10, "velocity": 36}, {"time": 73200, "pitch": 42, "duration": 10, "velocity": 64}, {"time": 73200, "pitch": 56, "duration": 10, "velocity": 22}, {"time": 73200, "pitch": 69, "duration": 10, "velocity": 50}, {"time": 73200, "pitch": 70, "duration": 10, "velocity": 78}, {"time": 73320, "pitch": 28, "duration": 10, "velocity": 64}, {"time": 73320, "pitch": 37, "duration": 10, "velocity": 106}, {"time": 73320, "pitch": 70, "duration": 10, "velocity": 36}, {"time": 73340, "pitch": 56, "duration": 10, "velocity": 64}, {"time": 73340, "pitch": 67, "duration": 10, "velocity": 64}, {"time": 73340, "pitch": 69, "duration": 10, "velocity": 36}, {"time": 73440, "pitch": 42, "duration": 10, "velocity": 92}, {"time": 73440, "pitch": 56, "duration": 10, "velocity": 22}, {"time": 73440, "pitch": 67, "duration": 10, "velocity": 92}, {"time": 73440, "pitch": 69, "duration": 10, "velocity": 64}, {"time": 73440, "pitch": 70, "duration": 10, "velocity": 78}, {"time": 73560, "pitch": 70, "duration": 10, "velocity": 36}, {"time": 73580, "pitch": 56, "duration": 10, "velocity": 22}, {"time": 73580, "pitch": 69, "duration": 10, "velocity": 36}, {"time": 73680, "pitch": 28, "duration": 10, "velocity": 64}, {"time": 73680, "pitch": 37, "duration": 10, "velocity": 106}, {"time": 73680, "pitch": 42, "duration": 10, "velocity": 64}, {"time": 73680, "pitch": 56, "duration": 10, "velocity": 36}, {"time": 73680, "pitch": 68, "duration": 10, "velocity": 78}, {"time": 73680, "pitch": 69, "duration": 10, "velocity": 22}, {"time": 73680, "pitch": 70, "duration": 10, "velocity": 78}, {"time": 73710, "pitch": 69, "duration": 10, "velocity": 36}, {"time": 73740, "pitch": 69, "duration": 10, "velocity": 36}, {"time": 73770, "pitch": 69, "duration": 10, "velocity": 50}, {"time": 73800, "pitch": 56, "duration": 10, "velocity": 22}, {"time": 73800, "pitch": 68, "duration": 10, "velocity": 92}, {"time": 73800, "pitch": 69, "duration": 10, "velocity": 50}, {"time": 73800, "pitch": 70, "duration": 10, "velocity": 36}, {"time": 73830, "pitch": 69, "duration": 10, "velocity": 64}, {"time": 73860, "pitch": 69, "duration": 10, "velocity": 64}, {"time": 73890, "pitch": 69, "duration": 10, "velocity": 64}, {"time": 73920, "pitch": 42, "duration": 10, "velocity": 64}, {"time": 73920, "pitch": 68, "duration": 10, "velocity": 92}, {"time": 73920, "pitch": 69, "duration": 10, "velocity": 64}, {"time": 73920, "pitch": 70, "duration": 10, "velocity": 78}, {"time": 74040, "pitch": 70, "duration": 10, "velocity": 36}, {"time": 74060, "pitch": 69, "duration": 10, "velocity": 36}, {"time": 74160, "pitch": 28, "duration": 10, "velocity": 64}, {"time": 74160, "pitch": 37, "duration": 10, "velocity": 106}, {"time": 74160, "pitch": 42, "duration": 10, "velocity": 92}, {"time": 74160, "pitch": 56, "duration": 10, "velocity": 64}, {"time": 74160, "pitch": 67, "duration": 10, "velocity": 92}, {"time": 74160, "pitch": 69, "duration": 10, "velocity": 50}, {"time": 74160, "pitch": 70, "duration": 10, "velocity": 78}, {"time": 74280, "pitch": 70, "duration": 10, "velocity": 36}, {"time": 74300, "pitch": 56, "duration": 10, "velocity": 36}, {"time": 74300, "pitch": 69, "duration": 10, "velocity": 36}, {"time": 74400, "pitch": 28, "duration": 10, "velocity": 64}, {"time": 74400, "pitch": 37, "duration": 10, "velocity": 106}, {"time": 74400, "pitch": 42, "duration": 10, "velocity": 92}, {"time": 74400, "pitch": 56, "duration": 10, "velocity": 50}, {"time": 74400, "pitch": 67, "duration": 10, "velocity": 92}, {"time": 74400, "pitch": 69, "duration": 10, "velocity": 64}, {"time": 74400, "pitch": 70, "duration": 10, "velocity": 78}, {"time": 74520, "pitch": 70, "duration": 10, "velocity": 36}, {"time": 74540, "pitch": 56, "duration": 10, "velocity": 36}, {"time": 74540, "pitch": 68, "duration": 10, "velocity": 64}, {"time": 74540, "pitch": 69, "duration": 10, "velocity": 36}, {"time": 74640, "pitch": 42, "duration": 10, "velocity": 64}, {"time": 74640, "pitch": 56, "duration": 10, "velocity": 22}, {"time": 74640, "pitch": 69, "duration": 10, "velocity": 50}, {"time": 74640, "pitch": 70, "duration": 10, "velocity": 78}, {"time": 74760, "pitch": 70, "duration": 10, "velocity": 36}, {"time": 74780, "pitch": 56, "duration": 10, "velocity": 22}, {"time": 74780, "pitch": 68, "duration": 10, "velocity": 92}, {"time": 74780, "pitch": 69, "duration": 10, "velocity": 36}, {"time": 74880, "pitch": 28, "duration": 10, "velocity": 64}, {"time": 74880, "pitch": 37, "duration": 10, "velocity": 106}, {"time": 74880, "pitch": 42, "duration": 10, "velocity": 92}, {"time": 74880, "pitch": 56, "duration": 10, "velocity": 64}, {"time": 74880, "pitch": 69, "duration": 10, "velocity": 64}, {"time": 74880, "pitch": 70, "duration": 10, "velocity": 78}, {"time": 75000, "pitch": 70, "duration": 10, "velocity": 36}, {"time": 75020, "pitch": 56, "duration": 10, "velocity": 22}, {"time": 75020, "pitch": 67, "duration": 10, "velocity": 92}, {"time": 75020, "pitch": 69, "duration": 10, "velocity": 36}, {"time": 75120, "pitch": 42, "duration": 10, "velocity": 64}, {"time": 75120, "pitch": 56, "duration": 10, "velocity": 22}, {"time": 75120, "pitch": 69, "duration": 10, "velocity": 50}, {"time": 75120, "pitch": 70, "duration": 10, "velocity": 78}, {"time": 75240, "pitch": 28, "duration": 10, "velocity": 64}, {"time": 75240, "pitch": 37, "duration": 10, "velocity": 106}, {"time": 75240, "pitch": 70, "duration": 10, "velocity": 36}, {"time": 75260, "pitch": 56, "duration": 10, "velocity": 64}, {"time": 75260, "pitch": 67, "duration": 10, "velocity": 64}, {"time": 75260, "pitch": 69, "duration": 10, "velocity": 36}, {"time": 75360, "pitch": 42, "duration": 10, "velocity": 92}, {"time": 75360, "pitch": 56, "duration": 10, "velocity": 22}, {"time": 75360, "pitch": 67, "duration": 10, "velocity": 92}, {"time": 75360, "pitch": 69, "duration": 10, "velocity": 64}, {"time": 75360, "pitch": 70, "duration": 10, "velocity": 78}, {"time": 75480, "pitch": 70, "duration": 10, "velocity": 36}, {"time": 75500, "pitch": 56, "duration": 10, "velocity": 22}, {"time": 75500, "pitch": 69, "duration": 10, "velocity": 36}, {"time": 75600, "pitch": 28, "duration": 10, "velocity": 64}, {"time": 75600, "pitch": 37, "duration": 10, "velocity": 106}, {"time": 75600, "pitch": 42, "duration": 10, "velocity": 64}, {"time": 75600, "pitch": 56, "duration": 10, "velocity": 36}, {"time": 75600, "pitch": 68, "duration": 10, "velocity": 78}, {"time": 75600, "pitch": 69, "duration": 10, "velocity": 50}, {"time": 75600, "pitch": 70, "duration": 10, "velocity": 78}, {"time": 75720, "pitch": 70, "duration": 10, "velocity": 36}, {"time": 75740, "pitch": 56, "duration": 10, "velocity": 22}, {"time": 75740, "pitch": 68, "duration": 10, "velocity": 92}, {"time": 75740, "pitch": 69, "duration": 10, "velocity": 36}, {"time": 75840, "pitch": 42, "duration": 10, "velocity": 64}, {"time": 75840, "pitch": 68, "duration": 10, "velocity": 92}, {"time": 75840, "pitch": 69, "duration": 10, "velocity": 64}, {"time": 75840, "pitch": 70, "duration": 10, "velocity": 78}, {"time": 75960, "pitch": 70, "duration": 10, "velocity": 36}, {"time": 75980, "pitch": 69, "duration": 10, "velocity": 36}, {"time": 76080, "pitch": 28, "duration": 10, "velocity": 64}, {"time": 76080, "pitch": 37, "duration": 10, "velocity": 106}, {"time": 76080, "pitch": 42, "duration": 10, "velocity": 92}, {"time": 76080, "pitch": 56, "duration": 10, "velocity": 64}, {"time": 76080, "pitch": 67, "duration": 10, "velocity": 92}, {"time": 76080, "pitch": 69, "duration": 10, "velocity": 50}, {"time": 76080, "pitch": 70, "duration": 10, "velocity": 78}, {"time": 76200, "pitch": 70, "duration": 10, "velocity": 36}, {"time": 76220, "pitch": 56, "duration": 10, "velocity": 36}, {"time": 76220, "pitch": 69, "duration": 10, "velocity": 36}, {"time": 76320, "pitch": 42, "duration": 10, "velocity": 92}, {"time": 76320, "pitch": 56, "duration": 10, "velocity": 50}, {"time": 76320, "pitch": 67, "duration": 10, "velocity": 92}, {"time": 76320, "pitch": 69, "duration": 10, "velocity": 64}, {"time": 76320, "pitch": 70, "duration": 10, "velocity": 78}, {"time": 76440, "pitch": 28, "duration": 10, "velocity": 64}, {"time": 76440, "pitch": 37, "duration": 10, "velocity": 106}, {"time": 76440, "pitch": 70, "duration": 10, "velocity": 36}, {"time": 76460, "pitch": 56, "duration": 10, "velocity": 36}, {"time": 76460, "pitch": 68, "duration": 10, "velocity": 64}, {"time": 76460, "pitch": 69, "duration": 10, "velocity": 36}, {"time": 76560, "pitch": 42, "duration": 10, "velocity": 64}, {"time": 76560, "pitch": 56, "duration": 10, "velocity": 22}, {"time": 76560, "pitch": 69, "duration": 10, "velocity": 50}, {"time": 76560, "pitch": 70, "duration": 10, "velocity": 78}, {"time": 76680, "pitch": 70, "duration": 10, "velocity": 36}, {"time": 76700, "pitch": 56, "duration": 10, "velocity": 22}, {"time": 76700, "pitch": 68, "duration": 10, "velocity": 92}, {"time": 76700, "pitch": 69, "duration": 10, "velocity": 36}, {"time": 76800, "pitch": 28, "duration": 10, "velocity": 64}, {"time": 76800, "pitch": 37, "duration": 10, "velocity": 106}, {"time": 76800, "pitch": 42, "duration": 10, "velocity": 92}, {"time": 76800, "pitch": 56, "duration": 10, "velocity": 64}, {"time": 76800, "pitch": 69, "duration": 10, "velocity": 64}, {"time": 76800, "pitch": 70, "duration": 10, "velocity": 78}, {"time": 76920, "pitch": 70, "duration": 10, "velocity": 36}, {"time": 76940, "pitch": 56, "duration": 10, "velocity": 22}, {"time": 76940, "pitch": 67, "duration": 10, "velocity": 92}, {"time": 76940, "pitch": 69, "duration": 10, "velocity": 36}, {"time": 77040, "pitch": 42, "duration": 10, "velocity": 64}, {"time": 77040, "pitch": 56, "duration": 10, "velocity": 22}, {"time": 77040, "pitch": 69, "duration": 10, "velocity": 50}, {"time": 77040, "pitch": 70, "duration": 10, "velocity": 78}, {"time": 77160, "pitch": 28, "duration": 10, "velocity": 64}, {"time": 77160, "pitch": 37, "duration": 10, "velocity": 106}, {"time": 77160, "pitch": 70, "duration": 10, "velocity": 36}, {"time": 77180, "pitch": 56, "duration": 10, "velocity": 64}, {"time": 77180, "pitch": 67, "duration": 10, "velocity": 64}, {"time": 77180, "pitch": 69, "duration": 10, "velocity": 36}, {"time": 77280, "pitch": 42, "duration": 10, "velocity": 92}, {"time": 77280, "pitch": 56, "duration": 10, "velocity": 22}, {"time": 77280, "pitch": 67, "duration": 10, "velocity": 92}, {"time": 77280, "pitch": 69, "duration": 10, "velocity": 64}, {"time": 77280, "pitch": 70, "duration": 10, "velocity": 78}, {"time": 77400, "pitch": 70, "duration": 10, "velocity": 36}, {"time": 77420, "pitch": 56, "duration": 10, "velocity": 22}, {"time": 77420, "pitch": 69, "duration": 10, "velocity": 36}, {"time": 77520, "pitch": 28, "duration": 10, "velocity": 64}, {"time": 77520, "pitch": 37, "duration": 10, "velocity": 106}, {"time": 77520, "pitch": 42, "duration": 10, "velocity": 64}, {"time": 77520, "pitch": 56, "duration": 10, "velocity": 36}, {"time": 77520, "pitch": 68, "duration": 10, "velocity": 78}, {"time": 77520, "pitch": 69, "duration": 10, "velocity": 22}, {"time": 77520, "pitch": 70, "duration": 10, "velocity": 78}, {"time": 77550, "pitch": 69, "duration": 10, "velocity": 36}, {"time": 77580, "pitch": 69, "duration": 10, "velocity": 36}, {"time": 77610, "pitch": 69, "duration": 10, "velocity": 50}, {"time": 77640, "pitch": 56, "duration": 10, "velocity": 22}, {"time": 77640, "pitch": 68, "duration": 10, "velocity": 92}, {"time": 77640, "pitch": 69, "duration": 10, "velocity": 50}, {"time": 77640, "pitch": 70, "duration": 10, "velocity": 36}, {"time": 77670, "pitch": 69, "duration": 10, "velocity": 64}, {"time": 77700, "pitch": 69, "duration": 10, "velocity": 64}, {"time": 77730, "pitch": 69, "duration": 10, "velocity": 64}, {"time": 77760, "pitch": 42, "duration": 10, "velocity": 64}, {"time": 77760, "pitch": 57, "duration": 10, "velocity": 92}, {"time": 77760, "pitch": 68, "duration": 10, "velocity": 92}, {"time": 77760, "pitch": 69, "duration": 10, "velocity": 64}, {"time": 77760, "pitch": 70, "duration": 10, "velocity": 78}, {"time": 77880, "pitch": 70, "duration": 10, "velocity": 36}, {"time": 77900, "pitch": 69, "duration": 10, "velocity": 36}, {"time": 78000, "pitch": 28, "duration": 10, "velocity": 64}, {"time": 78000, "pitch": 37, "duration": 10, "velocity": 106}, {"time": 78000, "pitch": 42, "duration": 10, "velocity": 92}, {"time": 78000, "pitch": 56, "duration": 10, "velocity": 64}, {"time": 78000, "pitch": 67, "duration": 10, "velocity": 92}, {"time": 78000, "pitch": 69, "duration": 10, "velocity": 50}, {"time": 78000, "pitch": 70, "duration": 10, "velocity": 78}, {"time": 78120, "pitch": 70, "duration": 10, "velocity": 36}, {"time": 78140, "pitch": 56, "duration": 10, "velocity": 36}, {"time": 78140, "pitch": 69, "duration": 10, "velocity": 36}, {"time": 78240, "pitch": 28, "duration": 10, "velocity": 64}, {"time": 78240, "pitch": 37, "duration": 10, "velocity": 106}, {"time": 78240, "pitch": 39, "duration": 10, "velocity": 120}, {"time": 78240, "pitch": 40, "duration": 10, "velocity": 92}, {"time": 78240, "pitch": 42, "duration": 10, "velocity": 92}, {"time": 78240, "pitch": 56, "duration": 10, "velocity": 50}, {"time": 78240, "pitch": 67, "duration": 10, "velocity": 92}, {"time": 78240, "pitch": 69, "duration": 10, "velocity": 64}, {"time": 78240, "pitch": 70, "duration": 10, "velocity": 78}, {"time": 78360, "pitch": 70, "duration": 10, "velocity": 36}, {"time": 78380, "pitch": 56, "duration": 10, "velocity": 36}, {"time": 78380, "pitch": 68, "duration": 10, "velocity": 64}, {"time": 78380, "pitch": 69, "duration": 10, "velocity": 36}, {"time": 78480, "pitch": 42, "duration": 10, "velocity": 64}, {"time": 78480, "pitch": 56, "duration": 10, "velocity": 22}, {"time": 78480, "pitch": 69, "duration": 10, "velocity": 50}, {"time": 78480, "pitch": 70, "duration": 10, "velocity": 78}, {"time": 78600, "pitch": 70, "duration": 10, "velocity": 36}, {"time": 78620, "pitch": 56, "duration": 10, "velocity": 22}, {"time": 78620, "pitch": 68, "duration": 10, "velocity": 92}, {"time": 78620, "pitch": 69, "duration": 10, "velocity": 36}, {"time": 78720, "pitch": 28, "duration": 10, "velocity": 64}, {"time": 78720, "pitch": 37, "duration": 10, "velocity": 106}, {"time": 78720, "pitch": 42, "duration": 10, "velocity": 92}, {"time": 78720, "pitch": 56, "duration": 10, "velocity": 64}, {"time": 78720, "pitch": 69, "duration": 10, "velocity": 64}, {"time": 78720, "pitch": 70, "duration": 10, "velocity": 78}, {"time": 78840, "pitch": 70, "duration": 10, "velocity": 36}, {"time": 78860, "pitch": 56, "duration": 10, "velocity": 22}, {"time": 78860, "pitch": 67, "duration": 10, "velocity": 92}, {"time": 78860, "pitch": 69, "duration": 10, "velocity": 36}, {"time": 78960, "pitch": 42, "duration": 10, "velocity": 64}, {"time": 78960, "pitch": 56, "duration": 10, "velocity": 22}, {"time": 78960, "pitch": 69, "duration": 10, "velocity": 50}, {"time": 78960, "pitch": 70, "duration": 10, "velocity": 78}, {"time": 79080, "pitch": 28, "duration": 10, "velocity": 64}, {"time": 79080, "pitch": 37, "duration": 10, "velocity": 106}, {"time": 79080, "pitch": 70, "duration": 10, "velocity": 36}, {"time": 79100, "pitch": 56, "duration": 10, "velocity": 64}, {"time": 79100, "pitch": 67, "duration": 10, "velocity": 64}, {"time": 79100, "pitch": 69, "duration": 10, "velocity": 36}, {"time": 79200, "pitch": 39, "duration": 10, "velocity": 120}, {"time": 79200, "pitch": 40, "duration": 10, "velocity": 92}, {"time": 79200, "pitch": 42, "duration": 10, "velocity": 92}, {"time": 79200, "pitch": 56, "duration": 10, "velocity": 22}, {"time": 79200, "pitch": 67, "duration": 10, "velocity": 92}, {"time": 79200, "pitch": 69, "duration": 10, "velocity": 64}, {"time": 79200, "pitch": 70, "duration": 10, "velocity": 78}, {"time": 79320, "pitch": 70, "duration": 10, "velocity": 36}, {"time": 79340, "pitch": 56, "duration": 10, "velocity": 22}, {"time": 79340, "pitch": 69, "duration": 10, "velocity": 36}, {"time": 79440, "pitch": 28, "duration": 10, "velocity": 64}, {"time": 79440, "pitch": 37, "duration": 10, "velocity": 106}, {"time": 79440, "pitch": 42, "duration": 10, "velocity": 64}, {"time": 79440, "pitch": 56, "duration": 10, "velocity": 36}, {"time": 79440, "pitch": 68, "duration": 10, "velocity": 78}, {"time": 79440, "pitch": 69, "duration": 10, "velocity": 50}, {"time": 79440, "pitch": 70, "duration": 10, "velocity": 78}, {"time": 79560, "pitch": 70, "duration": 10, "velocity": 36}, {"time": 79580, "pitch": 56, "duration": 10, "velocity": 22}, {"time": 79580, "pitch": 68, "duration": 10, "velocity": 92}, {"time": 79580, "pitch": 69, "duration": 10, "velocity": 36}, {"time": 79680, "pitch": 42, "duration": 10, "velocity": 64}, {"time": 79680, "pitch": 68, "duration": 10, "velocity": 92}, {"time": 79680, "pitch": 69, "duration": 10, "velocity": 64}, {"time": 79680, "pitch": 70, "duration": 10, "velocity": 78}, {"time": 79800, "pitch": 70, "duration": 10, "velocity": 36}, {"time": 79820, "pitch": 69, "duration": 10, "velocity": 36}, {"time": 79920, "pitch": 28, "duration": 10, "velocity": 64}, {"time": 79920, "pitch": 37, "duration": 10, "velocity": 106}, {"time": 79920, "pitch": 42, "duration": 10, "velocity": 92}, {"time": 79920, "pitch": 56, "duration": 10, "velocity": 64}, {"time": 79920, "pitch": 67, "duration": 10, "velocity": 92}, {"time": 79920, "pitch": 69, "duration": 10, "velocity": 50}, {"time": 79920, "pitch": 70, "duration": 10, "velocity": 78}, {"time": 80040, "pitch": 70, "duration": 10, "velocity": 36}, {"time": 80060, "pitch": 56, "duration": 10, "velocity": 36}, {"time": 80060, "pitch": 69, "duration": 10, "velocity": 36}, {"time": 80160, "pitch": 39, "duration": 10, "velocity": 120}, {"time": 80160, "pitch": 40, "duration": 10, "velocity": 92}, {"time": 80160, "pitch": 42, "duration": 10, "velocity": 92}, {"time": 80160, "pitch": 56, "duration": 10, "velocity": 50}, {"time": 80160, "pitch": 67, "duration": 10, "velocity": 92}, {"time": 80160, "pitch": 69, "duration": 10, "velocity": 64}, {"time": 80160, "pitch": 70, "duration": 10, "velocity": 78}, {"time": 80280, "pitch": 28, "duration": 10, "velocity": 64}, {"time": 80280, "pitch": 37, "duration": 10, "velocity": 106}, {"time": 80280, "pitch": 70, "duration": 10, "velocity": 36}, {"time": 80300, "pitch": 56, "duration": 10, "velocity": 36}, {"time": 80300, "pitch": 68, "duration": 10, "velocity": 64}, {"time": 80300, "pitch": 69, "duration": 10, "velocity": 36}, {"time": 80400, "pitch": 42, "duration": 10, "velocity": 64}, {"time": 80400, "pitch": 56, "duration": 10, "velocity": 22}, {"time": 80400, "pitch": 69, "duration": 10, "velocity": 50}, {"time": 80400, "pitch": 70, "duration": 10, "velocity": 78}, {"time": 80520, "pitch": 70, "duration": 10, "velocity": 36}, {"time": 80540, "pitch": 56, "duration": 10, "velocity": 22}, {"time": 80540, "pitch": 68, "duration": 10, "velocity": 92}, {"time": 80540, "pitch": 69, "duration": 10, "velocity": 36}, {"time": 80640, "pitch": 28, "duration": 10, "velocity": 64}, {"time": 80640, "pitch": 37, "duration": 10, "velocity": 106}, {"time": 80640, "pitch": 42, "duration": 10, "velocity": 92}, {"time": 80640, "pitch": 56, "duration": 10, "velocity": 64}, {"time": 80640, "pitch": 69, "duration": 10, "velocity": 64}, {"time": 80640, "pitch": 70, "duration": 10, "velocity": 78}, {"time": 80760, "pitch": 70, "duration": 10, "velocity": 36}, {"time": 80780, "pitch": 56, "duration": 10, "velocity": 22}, {"time": 80780, "pitch": 67, "duration": 10, "velocity": 92}, {"time": 80780, "pitch": 69, "duration": 10, "velocity": 36}, {"time": 80880, "pitch": 42, "duration": 10, "velocity": 64}, {"time": 80880, "pitch": 56, "duration": 10, "velocity": 22}, {"time": 80880, "pitch": 69, "duration": 10, "velocity": 50}, {"time": 80880, "pitch": 70, "duration": 10, "velocity": 78}, {"time": 81000, "pitch": 28, "duration": 10, "velocity": 64}, {"time": 81000, "pitch": 37, "duration": 10, "velocity": 106}, {"time": 81000, "pitch": 70, "duration": 10, "velocity": 36}, {"time": 81020, "pitch": 56, "duration": 10, "velocity": 64}, {"time": 81020, "pitch": 67, "duration": 10, "velocity": 64}, {"time": 81020, "pitch": 69, "duration": 10, "velocity": 36}, {"time": 81120, "pitch": 39, "duration": 10, "velocity": 120}, {"time": 81120, "pitch": 40, "duration": 10, "velocity": 92}, {"time": 81120, "pitch": 42, "duration": 10, "velocity": 92}, {"time": 81120, "pitch": 56, "duration": 10, "velocity": 22}, {"time": 81120, "pitch": 67, "duration": 10, "velocity": 92}, {"time": 81120, "pitch": 69, "duration": 10, "velocity": 64}, {"time": 81120, "pitch": 70, "duration": 10, "velocity": 78}, {"time": 81240, "pitch": 70, "duration": 10, "velocity": 36}, {"time": 81260, "pitch": 56, "duration": 10, "velocity": 22}, {"time": 81260, "pitch": 69, "duration": 10, "velocity": 36}, {"time": 81360, "pitch": 28, "duration": 10, "velocity": 64}, {"time": 81360, "pitch": 37, "duration": 10, "velocity": 106}, {"time": 81360, "pitch": 42, "duration": 10, "velocity": 64}, {"time": 81360, "pitch": 56, "duration": 10, "velocity": 36}, {"time": 81360, "pitch": 68, "duration": 10, "velocity": 78}, {"time": 81360, "pitch": 69, "duration": 10, "velocity": 22}, {"time": 81360, "pitch": 70, "duration": 10, "velocity": 78}, {"time": 81390, "pitch": 69, "duration": 10, "velocity": 36}, {"time": 81420, "pitch": 69, "duration": 10, "velocity": 36}, {"time": 81450, "pitch": 69, "duration": 10, "velocity": 50}, {"time": 81480, "pitch": 56, "duration": 10, "velocity": 22}, {"time": 81480, "pitch": 68, "duration": 10, "velocity": 92}, {"time": 81480, "pitch": 69, "duration": 10, "velocity": 50}, {"time": 81480, "pitch": 70, "duration": 10, "velocity": 36}, {"time": 81510, "pitch": 69, "duration": 10, "velocity": 64}, {"time": 81540, "pitch": 69, "duration": 10, "velocity": 64}, {"time": 81570, "pitch": 69, "duration": 10, "velocity": 64}, {"time": 81600, "pitch": 42, "duration": 10, "velocity": 64}, {"time": 81600, "pitch": 68, "duration": 10, "velocity": 92}, {"time": 81600, "pitch": 69, "duration": 10, "velocity": 64}, {"time": 81600, "pitch": 70, "duration": 10, "velocity": 78}, {"time": 81720, "pitch": 70, "duration": 10, "velocity": 36}, {"time": 81740, "pitch": 69, "duration": 10, "velocity": 36}, {"time": 81840, "pitch": 28, "duration": 10, "velocity": 64}, {"time": 81840, "pitch": 37, "duration": 10, "velocity": 106}, {"time": 81840, "pitch": 42, "duration": 10, "velocity": 92}, {"time": 81840, "pitch": 56, "duration": 10, "velocity": 64}, {"time": 81840, "pitch": 67, "duration": 10, "velocity": 92}, {"time": 81840, "pitch": 69, "duration": 10, "velocity": 50}, {"time": 81840, "pitch": 70, "duration": 10, "velocity": 78}, {"time": 81960, "pitch": 70, "duration": 10, "velocity": 36}, {"time": 81980, "pitch": 56, "duration": 10, "velocity": 36}, {"time": 81980, "pitch": 69, "duration": 10, "velocity": 36}, {"time": 82080, "pitch": 28, "duration": 10, "velocity": 64}, {"time": 82080, "pitch": 37, "duration": 10, "velocity": 106}, {"time": 82080, "pitch": 39, "duration": 10, "velocity": 120}, {"time": 82080, "pitch": 40, "duration": 10, "velocity": 92}, {"time": 82080, "pitch": 42, "duration": 10, "velocity": 92}, {"time": 82080, "pitch": 56, "duration": 10, "velocity": 50}, {"time": 82080, "pitch": 67, "duration": 10, "velocity": 92}, {"time": 82080, "pitch": 69, "duration": 10, "velocity": 64}, {"time": 82080, "pitch": 70, "duration": 10, "velocity": 78}, {"time": 82200, "pitch": 70, "duration": 10, "velocity": 36}, {"time": 82220, "pitch": 56, "duration": 10, "velocity": 36}, {"time": 82220, "pitch": 68, "duration": 10, "velocity": 64}, {"time": 82220, "pitch": 69, "duration": 10, "velocity": 36}, {"time": 82320, "pitch": 42, "duration": 10, "velocity": 64}, {"time": 82320, "pitch": 56, "duration": 10, "velocity": 22}, {"time": 82320, "pitch": 69, "duration": 10, "velocity": 50}, {"time": 82320, "pitch": 70, "duration": 10, "velocity": 78}, {"time": 82440, "pitch": 70, "duration": 10, "velocity": 36}, {"time": 82460, "pitch": 56, "duration": 10, "velocity": 22}, {"time": 82460, "pitch": 68, "duration": 10, "velocity": 92}, {"time": 82460, "pitch": 69, "duration": 10, "velocity": 36}, {"time": 82560, "pitch": 28, "duration": 10, "velocity": 64}, {"time": 82560, "pitch": 37, "duration": 10, "velocity": 106}, {"time": 82560, "pitch": 42, "duration": 10, "velocity": 92}, {"time": 82560, "pitch": 56, "duration": 10, "velocity": 64}, {"time": 82560, "pitch": 69, "duration": 10, "velocity": 64}, {"time": 82560, "pitch": 70, "duration": 10, "velocity": 78}, {"time": 82680, "pitch": 70, "duration": 10, "velocity": 36}, {"time": 82700, "pitch": 56, "duration": 10, "velocity": 22}, {"time": 82700, "pitch": 67, "duration": 10, "velocity": 92}, {"time": 82700, "pitch": 69, "duration": 10, "velocity": 36}, {"time": 82800, "pitch": 42, "duration": 10, "velocity": 64}, {"time": 82800, "pitch": 56, "duration": 10, "velocity": 22}, {"time": 82800, "pitch": 69, "duration": 10, "velocity": 50}, {"time": 82800, "pitch": 70, "duration": 10, "velocity": 78}, {"time": 82920, "pitch": 28, "duration": 10, "velocity": 64}, {"time": 82920, "pitch": 37, "duration": 10, "velocity": 106}, {"time": 82920, "pitch": 70, "duration": 10, "velocity": 36}, {"time": 82940, "pitch": 56, "duration": 10, "velocity": 64}, {"time": 82940, "pitch": 67, "duration": 10, "velocity": 64}, {"time": 82940, "pitch": 69, "duration": 10, "velocity": 36}, {"time": 83040, "pitch": 39, "duration": 10, "velocity": 120}, {"time": 83040, "pitch": 40, "duration": 10, "velocity": 92}, {"time": 83040, "pitch": 42, "duration": 10, "velocity": 92}, {"time": 83040, "pitch": 56, "duration": 10, "velocity": 22}, {"time": 83040, "pitch": 67, "duration": 10, "velocity": 92}, {"time": 83040, "pitch": 69, "duration": 10, "velocity": 64}, {"time": 83040, "pitch": 70, "duration": 10, "velocity": 78}, {"time": 83160, "pitch": 70, "duration": 10, "velocity": 36}, {"time": 83180, "pitch": 56, "duration": 10, "velocity": 22}, {"time": 83180, "pitch": 69, "duration": 10, "velocity": 36}, {"time": 83280, "pitch": 28, "duration": 10, "velocity": 64}, {"time": 83280, "pitch": 37, "duration": 10, "velocity": 106}, {"time": 83280, "pitch": 42, "duration": 10, "velocity": 64}, {"time": 83280, "pitch": 56, "duration": 10, "velocity": 36}, {"time": 83280, "pitch": 68, "duration": 10, "velocity": 78}, {"time": 83280, "pitch": 69, "duration": 10, "velocity": 50}, {"time": 83280, "pitch": 70, "duration": 10, "velocity": 78}, {"time": 83400, "pitch": 70, "duration": 10, "velocity": 36}, {"time": 83420, "pitch": 56, "duration": 10, "velocity": 22}, {"time": 83420, "pitch": 68, "duration": 10, "velocity": 92}, {"time": 83420, "pitch": 69, "duration": 10, "velocity": 36}, {"time": 83520, "pitch": 42, "duration": 10, "velocity": 64}, {"time": 83520, "pitch": 68, "duration": 10, "velocity": 92}, {"time": 83520, "pitch": 69, "duration": 10, "velocity": 64}, {"time": 83520, "pitch": 70, "duration": 10, "velocity": 78}, {"time": 83640, "pitch": 70, "duration": 10, "velocity": 36}, {"time": 83660, "pitch": 69, "duration": 10, "velocity": 36}, {"time": 83760, "pitch": 28, "duration": 10, "velocity": 64}, {"time": 83760, "pitch": 37, "duration": 10, "velocity": 106}, {"time": 83760, "pitch": 42, "duration": 10, "velocity": 92}, {"time": 83760, "pitch": 56, "duration": 10, "velocity": 64}, {"time": 83760, "pitch": 67, "duration": 10, "velocity": 92}, {"time": 83760, "pitch": 69, "duration": 10, "velocity": 50}, {"time": 83760, "pitch": 70, "duration": 10, "velocity": 78}, {"time": 83880, "pitch": 70, "duration": 10, "velocity": 36}, {"time": 83900, "pitch": 56, "duration": 10, "velocity": 36}, {"time": 83900, "pitch": 69, "duration": 10, "velocity": 36}, {"time": 84000, "pitch": 39, "duration": 10, "velocity": 120}, {"time": 84000, "pitch": 40, "duration": 10, "velocity": 92}, {"time": 84000, "pitch": 42, "duration": 10, "velocity": 92}, {"time": 84000, "pitch": 56, "duration": 10, "velocity": 50}, {"time": 84000, "pitch": 67, "duration": 10, "velocity": 92}, {"time": 84000, "pitch": 69, "duration": 10, "velocity": 64}, {"time": 84000, "pitch": 70, "duration": 10, "velocity": 78}, {"time": 84120, "pitch": 28, "duration": 10, "velocity": 64}, {"time": 84120, "pitch": 37, "duration": 10, "velocity": 106}, {"time": 84120, "pitch": 70, "duration": 10, "velocity": 36}, {"time": 84140, "pitch": 56, "duration": 10, "velocity": 36}, {"time": 84140, "pitch": 68, "duration": 10, "velocity": 64}, {"time": 84140, "pitch": 69, "duration": 10, "velocity": 36}, {"time": 84240, "pitch": 42, "duration": 10, "velocity": 64}, {"time": 84240, "pitch": 56, "duration": 10, "velocity": 22}, {"time": 84240, "pitch": 69, "duration": 10, "velocity": 50}, {"time": 84240, "pitch": 70, "duration": 10, "velocity": 78}, {"time": 84360, "pitch": 70, "duration": 10, "velocity": 36}, {"time": 84380, "pitch": 56, "duration": 10, "velocity": 22}, {"time": 84380, "pitch": 68, "duration": 10, "velocity": 92}, {"time": 84380, "pitch": 69, "duration": 10, "velocity": 36}, {"time": 84480, "pitch": 28, "duration": 10, "velocity": 64}, {"time": 84480, "pitch": 37, "duration": 10, "velocity": 106}, {"time": 84480, "pitch": 42, "duration": 10, "velocity": 92}, {"time": 84480, "pitch": 56, "duration": 10, "velocity": 64}, {"time": 84480, "pitch": 69, "duration": 10, "velocity": 64}, {"time": 84480, "pitch": 70, "duration": 10, "velocity": 78}, {"time": 84600, "pitch": 70, "duration": 10, "velocity": 36}, {"time": 84620, "pitch": 56, "duration": 10, "velocity": 22}, {"time": 84620, "pitch": 67, "duration": 10, "velocity": 92}, {"time": 84620, "pitch": 69, "duration": 10, "velocity": 36}, {"time": 84720, "pitch": 42, "duration": 10, "velocity": 64}, {"time": 84720, "pitch": 56, "duration": 10, "velocity": 22}, {"time": 84720, "pitch": 69, "duration": 10, "velocity": 50}, {"time": 84720, "pitch": 70, "duration": 10, "velocity": 78}, {"time": 84840, "pitch": 28, "duration": 10, "velocity": 64}, {"time": 84840, "pitch": 37, "duration": 10, "velocity": 106}, {"time": 84840, "pitch": 70, "duration": 10, "velocity": 36}, {"time": 84860, "pitch": 56, "duration": 10, "velocity": 64}, {"time": 84860, "pitch": 67, "duration": 10, "velocity": 64}, {"time": 84860, "pitch": 69, "duration": 10, "velocity": 36}, {"time": 84960, "pitch": 39, "duration": 10, "velocity": 120}, {"time": 84960, "pitch": 40, "duration": 10, "velocity": 92}, {"time": 84960, "pitch": 42, "duration": 10, "velocity": 92}, {"time": 84960, "pitch": 56, "duration": 10, "velocity": 22}, {"time": 84960, "pitch": 67, "duration": 10, "velocity": 92}, {"time": 84960, "pitch": 69, "duration": 10, "velocity": 64}, {"time": 84960, "pitch": 70, "duration": 10, "velocity": 78}, {"time": 85080, "pitch": 70, "duration": 10, "velocity": 36}, {"time": 85100, "pitch": 56, "duration": 10, "velocity": 22}, {"time": 85100, "pitch": 69, "duration": 10, "velocity": 36}, {"time": 85200, "pitch": 28, "duration": 10, "velocity": 64}, {"time": 85200, "pitch": 37, "duration": 10, "velocity": 106}, {"time": 85200, "pitch": 42, "duration": 10, "velocity": 64}, {"time": 85200, "pitch": 56, "duration": 10, "velocity": 36}, {"time": 85200, "pitch": 68, "duration": 10, "velocity": 78}, {"time": 85200, "pitch": 69, "duration": 10, "velocity": 22}, {"time": 85200, "pitch": 70, "duration": 10, "velocity": 78}, {"time": 85230, "pitch": 69, "duration": 10, "velocity": 36}, {"time": 85260, "pitch": 69, "duration": 10, "velocity": 36}, {"time": 85290, "pitch": 69, "duration": 10, "velocity": 50}, {"time": 85320, "pitch": 56, "duration": 10, "velocity": 22}, {"time": 85320, "pitch": 68, "duration": 10, "velocity": 92}, {"time": 85320, "pitch": 69, "duration": 10, "velocity": 50}, {"time": 85320, "pitch": 70, "duration": 10, "velocity": 36}, {"time": 85350, "pitch": 69, "duration": 10, "velocity": 64}, {"time": 85380, "pitch": 69, "duration": 10, "velocity": 64}, {"time": 85410, "pitch": 69, "duration": 10, "velocity": 64}, {"time": 85440, "pitch": 42, "duration": 10, "velocity": 64}, {"time": 85440, "pitch": 57, "duration": 10, "velocity": 92}, {"time": 85440, "pitch": 68, "duration": 10, "velocity": 92}, {"time": 85440, "pitch": 69, "duration": 10, "velocity": 64}, {"time": 85440, "pitch": 70, "duration": 10, "velocity": 78}, {"time": 85560, "pitch": 70, "duration": 10, "velocity": 36}, {"time": 85580, "pitch": 69, "duration": 10, "velocity": 36}, {"time": 85680, "pitch": 28, "duration": 10, "velocity": 64}, {"time": 85680, "pitch": 37, "duration": 10, "velocity": 106}, {"time": 85680, "pitch": 42, "duration": 10, "velocity": 92}, {"time": 85680, "pitch": 56, "duration": 10, "velocity": 64}, {"time": 85680, "pitch": 67, "duration": 10, "velocity": 92}, {"time": 85680, "pitch": 69, "duration": 10, "velocity": 50}, {"time": 85680, "pitch": 70, "duration": 10, "velocity": 78}, {"time": 85800, "pitch": 70, "duration": 10, "velocity": 36}, {"time": 85820, "pitch": 56, "duration": 10, "velocity": 36}, {"time": 85820, "pitch": 69, "duration": 10, "velocity": 36}, {"time": 85920, "pitch": 28, "duration": 10, "velocity": 64}, {"time": 85920, "pitch": 37, "duration": 10, "velocity": 106}, {"time": 85920, "pitch": 39, "duration": 10, "velocity": 120}, {"time": 85920, "pitch": 40, "duration": 10, "velocity": 92}, {"time": 85920, "pitch": 42, "duration": 10, "velocity": 92}, {"time": 85920, "pitch": 56, "duration": 10, "velocity": 50}, {"time": 85920, "pitch": 67, "duration": 10, "velocity": 92}, {"time": 85920, "pitch": 69, "duration": 10, "velocity": 64}, {"time": 85920, "pitch": 70, "duration": 10, "velocity": 78}, {"time": 86040, "pitch": 70, "duration": 10, "velocity": 36}, {"time": 86060, "pitch": 56, "duration": 10, "velocity": 36}, {"time": 86060, "pitch": 68, "duration": 10, "velocity": 64}, {"time": 86060, "pitch": 69, "duration": 10, "velocity": 36}, {"time": 86160, "pitch": 42, "duration": 10, "velocity": 64}, {"time": 86160, "pitch": 56, "duration": 10, "velocity": 22}, {"time": 86160, "pitch": 69, "duration": 10, "velocity": 50}, {"time": 86160, "pitch": 70, "duration": 10, "velocity": 78}, {"time": 86280, "pitch": 70, "duration": 10, "velocity": 36}, {"time": 86300, "pitch": 56, "duration": 10, "velocity": 22}, {"time": 86300, "pitch": 68, "duration": 10, "velocity": 92}, {"time": 86300, "pitch": 69, "duration": 10, "velocity": 36}, {"time": 86400, "pitch": 28, "duration": 10, "velocity": 64}, {"time": 86400, "pitch": 37, "duration": 10, "velocity": 106}, {"time": 86400, "pitch": 42, "duration": 10, "velocity": 92}, {"time": 86400, "pitch": 56, "duration": 10, "velocity": 64}, {"time": 86400, "pitch": 69, "duration": 10, "velocity": 64}, {"time": 86400, "pitch": 70, "duration": 10, "velocity": 78}, {"time": 86520, "pitch": 70, "duration": 10, "velocity": 36}, {"time": 86540, "pitch": 56, "duration": 10, "velocity": 22}, {"time": 86540, "pitch": 67, "duration": 10, "velocity": 92}, {"time": 86540, "pitch": 69, "duration": 10, "velocity": 36}, {"time": 86640, "pitch": 42, "duration": 10, "velocity": 64}, {"time": 86640, "pitch": 56, "duration": 10, "velocity": 22}, {"time": 86640, "pitch": 69, "duration": 10, "velocity": 50}, {"time": 86640, "pitch": 70, "duration": 10, "velocity": 78}, {"time": 86760, "pitch": 28, "duration": 10, "velocity": 64}, {"time": 86760, "pitch": 37, "duration": 10, "velocity": 106}, {"time": 86760, "pitch": 70, "duration": 10, "velocity": 36}, {"time": 86780, "pitch": 56, "duration": 10, "velocity": 64}, {"time": 86780, "pitch": 67, "duration": 10, "velocity": 64}, {"time": 86780, "pitch": 69, "duration": 10, "velocity": 36}, {"time": 86880, "pitch": 39, "duration": 10, "velocity": 120}, {"time": 86880, "pitch": 40, "duration": 10, "velocity": 92}, {"time": 86880, "pitch": 42, "duration": 10, "velocity": 92}, {"time": 86880, "pitch": 56, "duration": 10, "velocity": 22}, {"time": 86880, "pitch": 67, "duration": 10, "velocity": 92}, {"time": 86880, "pitch": 69, "duration": 10, "velocity": 64}, {"time": 86880, "pitch": 70, "duration": 10, "velocity": 78}, {"time": 87000, "pitch": 70, "duration": 10, "velocity": 36}, {"time": 87020, "pitch": 56, "duration": 10, "velocity": 22}, {"time": 87020, "pitch": 69, "duration": 10, "velocity": 36}, {"time": 87120, "pitch": 28, "duration": 10, "velocity": 64}, {"time": 87120, "pitch": 37, "duration": 10, "velocity": 106}, {"time": 87120, "pitch": 42, "duration": 10, "velocity": 64}, {"time": 87120, "pitch": 56, "duration": 10, "velocity": 36}, {"time": 87120, "pitch": 68, "duration": 10, "velocity": 78}, {"time": 87120, "pitch": 69, "duration": 10, "velocity": 50}, {"time": 87120, "pitch": 70, "duration": 10, "velocity": 78}, {"time": 87240, "pitch": 70, "duration": 10, "velocity": 36}, {"time": 87260, "pitch": 56, "duration": 10, "velocity": 22}, {"time": 87260, "pitch": 68, "duration": 10, "velocity": 92}, {"time": 87260, "pitch": 69, "duration": 10, "velocity": 36}, {"time": 87360, "pitch": 42, "duration": 10, "velocity": 64}, {"time": 87360, "pitch": 68, "duration": 10, "velocity": 92}, {"time": 87360, "pitch": 69, "duration": 10, "velocity": 64}, {"time": 87360, "pitch": 70, "duration": 10, "velocity": 78}, {"time": 87480, "pitch": 70, "duration": 10, "velocity": 36}, {"time": 87500, "pitch": 69, "duration": 10, "velocity": 36}, {"time": 87600, "pitch": 28, "duration": 10, "velocity": 64}, {"time": 87600, "pitch": 37, "duration": 10, "velocity": 106}, {"time": 87600, "pitch": 42, "duration": 10, "velocity": 92}, {"time": 87600, "pitch": 56, "duration": 10, "velocity": 64}, {"time": 87600, "pitch": 67, "duration": 10, "velocity": 92}, {"time": 87600, "pitch": 69, "duration": 10, "velocity": 50}, {"time": 87600, "pitch": 70, "duration": 10, "velocity": 78}, {"time": 87720, "pitch": 70, "duration": 10, "velocity": 36}, {"time": 87740, "pitch": 56, "duration": 10, "velocity": 36}, {"time": 87740, "pitch": 69, "duration": 10, "velocity": 36}, {"time": 87840, "pitch": 39, "duration": 10, "velocity": 120}, {"time": 87840, "pitch": 40, "duration": 10, "velocity": 92}, {"time": 87840, "pitch": 42, "duration": 10, "velocity": 92}, {"time": 87840, "pitch": 56, "duration": 10, "velocity": 50}, {"time": 87840, "pitch": 67, "duration": 10, "velocity": 92}, {"time": 87840, "pitch": 69, "duration": 10, "velocity": 64}, {"time": 87840, "pitch": 70, "duration": 10, "velocity": 78}, {"time": 87960, "pitch": 28, "duration": 10, "velocity": 64}, {"time": 87960, "pitch": 37, "duration": 10, "velocity": 106}, {"time": 87960, "pitch": 70, "duration": 10, "velocity": 36}, {"time": 87980, "pitch": 56, "duration": 10, "velocity": 36}, {"time": 87980, "pitch": 68, "duration": 10, "velocity": 64}, {"time": 87980, "pitch": 69, "duration": 10, "velocity": 36}, {"time": 88080, "pitch": 42, "duration": 10, "velocity": 64}, {"time": 88080, "pitch": 56, "duration": 10, "velocity": 22}, {"time": 88080, "pitch": 69, "duration": 10, "velocity": 50}, {"time": 88080, "pitch": 70, "duration": 10, "velocity": 78}, {"time": 88200, "pitch": 70, "duration": 10, "velocity": 36}, {"time": 88220, "pitch": 56, "duration": 10, "velocity": 22}, {"time": 88220, "pitch": 68, "duration": 10, "velocity": 92}, {"time": 88220, "pitch": 69, "duration": 10, "velocity": 36}, {"time": 88320, "pitch": 28, "duration": 10, "velocity": 64}, {"time": 88320, "pitch": 37, "duration": 10, "velocity": 106}, {"time": 88320, "pitch": 42, "duration": 10, "velocity": 92}, {"time": 88320, "pitch": 56, "duration": 10, "velocity": 64}, {"time": 88320, "pitch": 69, "duration": 10, "velocity": 64}, {"time": 88320, "pitch": 70, "duration": 10, "velocity": 78}, {"time": 88440, "pitch": 70, "duration": 10, "velocity": 36}, {"time": 88460, "pitch": 56, "duration": 10, "velocity": 22}, {"time": 88460, "pitch": 67, "duration": 10, "velocity": 92}, {"time": 88460, "pitch": 69, "duration": 10, "velocity": 36}, {"time": 88560, "pitch": 42, "duration": 10, "velocity": 64}, {"time": 88560, "pitch": 56, "duration": 10, "velocity": 22}, {"time": 88560, "pitch": 69, "duration": 10, "velocity": 50}, {"time": 88560, "pitch": 70, "duration": 10, "velocity": 78}, {"time": 88680, "pitch": 28, "duration": 10, "velocity": 64}, {"time": 88680, "pitch": 37, "duration": 10, "velocity": 106}, {"time": 88680, "pitch": 70, "duration": 10, "velocity": 36}, {"time": 88700, "pitch": 56, "duration": 10, "velocity": 64}, {"time": 88700, "pitch": 67, "duration": 10, "velocity": 64}, {"time": 88700, "pitch": 69, "duration": 10, "velocity": 36}, {"time": 88800, "pitch": 39, "duration": 10, "velocity": 120}, {"time": 88800, "pitch": 40, "duration": 10, "velocity": 92}, {"time": 88800, "pitch": 42, "duration": 10, "velocity": 92}, {"time": 88800, "pitch": 56, "duration": 10, "velocity": 22}, {"time": 88800, "pitch": 67, "duration": 10, "velocity": 92}, {"time": 88800, "pitch": 69, "duration": 10, "velocity": 64}, {"time": 88800, "pitch": 70, "duration": 10, "velocity": 78}, {"time": 88920, "pitch": 70, "duration": 10, "velocity": 36}, {"time": 88940, "pitch": 56, "duration": 10, "velocity": 22}, {"time": 88940, "pitch": 69, "duration": 10, "velocity": 36}, {"time": 89040, "pitch": 28, "duration": 10, "velocity": 64}, {"time": 89040, "pitch": 37, "duration": 10, "velocity": 106}, {"time": 89040, "pitch": 42, "duration": 10, "velocity": 64}, {"time": 89040, "pitch": 56, "duration": 10, "velocity": 36}, {"time": 89040, "pitch": 68, "duration": 10, "velocity": 78}, {"time": 89040, "pitch": 69, "duration": 10, "velocity": 22}, {"time": 89040, "pitch": 70, "duration": 10, "velocity": 78}, {"time": 89070, "pitch": 69, "duration": 10, "velocity": 36}, {"time": 89100, "pitch": 69, "duration": 10, "velocity": 36}, {"time": 89130, "pitch": 69, "duration": 10, "velocity": 50}, {"time": 89160, "pitch": 56, "duration": 10, "velocity": 22}, {"time": 89160, "pitch": 68, "duration": 10, "velocity": 92}, {"time": 89160, "pitch": 69, "duration": 10, "velocity": 50}, {"time": 89160, "pitch": 70, "duration": 10, "velocity": 36}, {"time": 89190, "pitch": 69, "duration": 10, "velocity": 64}, {"time": 89220, "pitch": 69, "duration": 10, "velocity": 64}, {"time": 89250, "pitch": 69, "duration": 10, "velocity": 64}, {"time": 89280, "pitch": 42, "duration": 10, "velocity": 92}, {"time": 89280, "pitch": 68, "duration": 10, "velocity": 92}, {"time": 89280, "pitch": 69, "duration": 10, "velocity": 64}, {"time": 89280, "pitch": 70, "duration": 10, "velocity": 78}, {"time": 89400, "pitch": 70, "duration": 10, "velocity": 36}, {"time": 89420, "pitch": 69, "duration": 10, "velocity": 36}, {"time": 89520, "pitch": 28, "duration": 10, "velocity": 64}, {"time": 89520, "pitch": 37, "duration": 10, "velocity": 106}, {"time": 89520, "pitch": 39, "duration": 10, "velocity": 106}, {"time": 89520, "pitch": 40, "duration": 10, "velocity": 64}, {"time": 89520, "pitch": 49, "duration": 10, "velocity": 78}, {"time": 89520, "pitch": 56, "duration": 10, "velocity": 64}, {"time": 89520, "pitch": 67, "duration": 10, "velocity": 92}, {"time": 89520, "pitch": 69, "duration": 10, "velocity": 50}, {"time": 89520, "pitch": 70, "duration": 10, "velocity": 78}, {"time": 89640, "pitch": 70, "duration": 10, "velocity": 36}, {"time": 89660, "pitch": 56, "duration": 10, "velocity": 36}, {"time": 89660, "pitch": 69, "duration": 10, "velocity": 36}, {"time": 89760, "pitch": 28, "duration": 10, "velocity": 64}, {"time": 89760, "pitch": 37, "duration": 10, "velocity": 106}, {"time": 89760, "pitch": 39, "duration": 10, "velocity": 120}, {"time": 89760, "pitch": 40, "duration": 10, "velocity": 92}, {"time": 89760, "pitch": 56, "duration": 10, "velocity": 50}, {"time": 89760, "pitch": 57, "duration": 10, "velocity": 92}, {"time": 89760, "pitch": 67, "duration": 10, "velocity": 92}, {"time": 89760, "pitch": 69, "duration": 10, "velocity": 64}, {"time": 89760, "pitch": 70, "duration": 10, "velocity": 78}, {"time": 89880, "pitch": 70, "duration": 10, "velocity": 36}, {"time": 89900, "pitch": 56, "duration": 10, "velocity": 36}, {"time": 89900, "pitch": 68, "duration": 10, "velocity": 64}, {"time": 89900, "pitch": 69, "duration": 10, "velocity": 36}, {"time": 90000, "pitch": 56, "duration": 10, "velocity": 22}, {"time": 90000, "pitch": 69, "duration": 10, "velocity": 50}, {"time": 90000, "pitch": 70, "duration": 10, "velocity": 78}, {"time": 90120, "pitch": 70, "duration": 10, "velocity": 36}, {"time": 90140, "pitch": 56, "duration": 10, "velocity": 22}, {"time": 90140, "pitch": 68, "duration": 10, "velocity": 92}, {"time": 90140, "pitch": 69, "duration": 10, "velocity": 36}, {"time": 90240, "pitch": 28, "duration": 10, "velocity": 64}, {"time": 90240, "pitch": 37, "duration": 10, "velocity": 78}, {"time": 90240, "pitch": 39, "duration": 10, "velocity": 106}, {"time": 90240, "pitch": 40, "duration": 10, "velocity": 64}, {"time": 90240, "pitch": 56, "duration": 10, "velocity": 64}, {"time": 90240, "pitch": 57, "duration": 10, "velocity": 92}, {"time": 90240, "pitch": 69, "duration": 10, "velocity": 64}, {"time": 90240, "pitch": 70, "duration": 10, "velocity": 78}, {"time": 90360, "pitch": 70, "duration": 10, "velocity": 36}, {"time": 90380, "pitch": 56, "duration": 10, "velocity": 22}, {"time": 90380, "pitch": 67, "duration": 10, "velocity": 92}, {"time": 90380, "pitch": 69, "duration": 10, "velocity": 36}, {"time": 90480, "pitch": 28, "duration": 10, "velocity": 64}, {"time": 90480, "pitch": 37, "duration": 10, "velocity": 106}, {"time": 90480, "pitch": 39, "duration": 10, "velocity": 120}, {"time": 90480, "pitch": 40, "duration": 10, "velocity": 92}, {"time": 90480, "pitch": 56, "duration": 10, "velocity": 22}, {"time": 90480, "pitch": 57, "duration": 10, "velocity": 92}, {"time": 90480, "pitch": 69, "duration": 10, "velocity": 50}, {"time": 90480, "pitch": 70, "duration": 10, "velocity": 78}, {"time": 90600, "pitch": 70, "duration": 10, "velocity": 36}, {"time": 90620, "pitch": 56, "duration": 10, "velocity": 64}, {"time": 90620, "pitch": 67, "duration": 10, "velocity": 64}, {"time": 90620, "pitch": 69, "duration": 10, "velocity": 36}, {"time": 90720, "pitch": 56, "duration": 10, "velocity": 22}, {"time": 90720, "pitch": 67, "duration": 10, "velocity": 92}, {"time": 90720, "pitch": 69, "duration": 10, "velocity": 64}, {"time": 90720, "pitch": 70, "duration": 10, "velocity": 78}, {"time": 90840, "pitch": 70, "duration": 10, "velocity": 36}, {"time": 90860, "pitch": 56, "duration": 10, "velocity": 22}, {"time": 90860, "pitch": 69, "duration": 10, "velocity": 36}, {"time": 90960, "pitch": 42, "duration": 10, "velocity": 92}, {"time": 90960, "pitch": 49, "duration": 10, "velocity": 92}, {"time": 90960, "pitch": 56, "duration": 10, "velocity": 36}, {"time": 90960, "pitch": 68, "duration": 10, "velocity": 78}, {"time": 90960, "pitch": 69, "duration": 10, "velocity": 50}, {"time": 90960, "pitch": 70, "duration": 10, "velocity": 78}, {"time": 91080, "pitch": 70, "duration": 10, "velocity": 36}, {"time": 91100, "pitch": 56, "duration": 10, "velocity": 22}, {"time": 91100, "pitch": 68, "duration": 10, "velocity": 92}, {"time": 91100, "pitch": 69, "duration": 10, "velocity": 36}, {"time": 91200, "pitch": 42, "duration": 10, "velocity": 64}, {"time": 91200, "pitch": 57, "duration": 10, "velocity": 92}, {"time": 91200, "pitch": 68, "duration": 10, "velocity": 92}, {"time": 91200, "pitch": 69, "duration": 10, "velocity": 64}, {"time": 91200, "pitch": 70, "duration": 10, "velocity": 78}, {"time": 91340, "pitch": 38, "duration": 10, "velocity": 36}, {"time": 91340, "pitch": 40, "duration": 10, "velocity": 64}, {"time": 91340, "pitch": 69, "duration": 10, "velocity": 36}, {"time": 91340, "pitch": 70, "duration": 10, "velocity": 36}, {"time": 91340, "pitch": 78, "duration": 10, "velocity": 50}, {"time": 91440, "pitch": 28, "duration": 10, "velocity": 64}, {"time": 91440, "pitch": 37, "duration": 10, "velocity": 106}, {"time": 91440, "pitch": 42, "duration": 10, "velocity": 92}, {"time": 91440, "pitch": 56, "duration": 10, "velocity": 64}, {"time": 91440, "pitch": 67, "duration": 10, "velocity": 92}, {"time": 91440, "pitch": 69, "duration": 10, "velocity": 50}, {"time": 91440, "pitch": 70, "duration": 10, "velocity": 78}, {"time": 91580, "pitch": 38, "duration": 10, "velocity": 64}, {"time": 91580, "pitch": 40, "duration": 10, "velocity": 78}, {"time": 91580, "pitch": 56, "duration": 10, "velocity": 36}, {"time": 91580, "pitch": 69, "duration": 10, "velocity": 36}, {"time": 91580, "pitch": 70, "duration": 10, "velocity": 36}, {"time": 91580, "pitch": 78, "duration": 10, "velocity": 50}, {"time": 91680, "pitch": 39, "duration": 10, "velocity": 120}, {"time": 91680, "pitch": 42, "duration": 10, "velocity": 92}, {"time": 91680, "pitch": 56, "duration": 10, "velocity": 50}, {"time": 91680, "pitch": 67, "duration": 10, "velocity": 92}, {"time": 91680, "pitch": 69, "duration": 10, "velocity": 64}, {"time": 91680, "pitch": 70, "duration": 10, "velocity": 78}, {"time": 91820, "pitch": 28, "duration": 10, "velocity": 64}, {"time": 91820, "pitch": 37, "duration": 10, "velocity": 106}, {"time": 91820, "pitch": 38, "duration": 10, "velocity": 78}, {"time": 91820, "pitch": 40, "duration": 10, "velocity": 106}, {"time": 91820, "pitch": 56, "duration": 10, "velocity": 36}, {"time": 91820, "pitch": 68, "duration": 10, "velocity": 64}, {"time": 91820, "pitch": 69, "duration": 10, "velocity": 36}, {"time": 91820, "pitch": 70, "duration": 10, "velocity": 36}, {"time": 91820, "pitch": 78, "duration": 10, "velocity": 50}, {"time": 91920, "pitch": 42, "duration": 10, "velocity": 64}, {"time": 91920, "pitch": 56, "duration": 10, "velocity": 22}, {"time": 91920, "pitch": 69, "duration": 10, "velocity": 50}, {"time": 91920, "pitch": 70, "duration": 10, "velocity": 78}, {"time": 92060, "pitch": 38, "duration": 10, "velocity": 64}, {"time": 92060, "pitch": 40, "duration": 10, "velocity": 64}, {"time": 92060, "pitch": 56, "duration": 10, "velocity": 22}, {"time": 92060, "pitch": 68, "duration": 10, "velocity": 92}, {"time": 92060, "pitch": 69, "duration": 10, "velocity": 36}, {"time": 92060, "pitch": 70, "duration": 10, "velocity": 36}, {"time": 92060, "pitch": 78, "duration": 10, "velocity": 50}, {"time": 92160, "pitch": 28, "duration": 10, "velocity": 64}, {"time": 92160, "pitch": 37, "duration": 10, "velocity": 106}, {"time": 92160, "pitch": 38, "duration": 10, "velocity": 64}, {"time": 92160, "pitch": 40, "duration": 10, "velocity": 106}, {"time": 92160, "pitch": 42, "duration": 10, "velocity": 92}, {"time": 92160, "pitch": 56, "duration": 10, "velocity": 64}, {"time": 92160, "pitch": 69, "duration": 10, "velocity": 64}, {"time": 92160, "pitch": 70, "duration": 10, "velocity": 78}, {"time": 92160, "pitch": 78, "duration": 10, "velocity": 50}, {"time": 92300, "pitch": 38, "duration": 10, "velocity": 78}, {"time": 92300, "pitch": 40, "duration": 10, "velocity": 120}, {"time": 92300, "pitch": 56, "duration": 10, "velocity": 22}, {"time": 92300, "pitch": 67, "duration": 10, "velocity": 92}, {"time": 92300, "pitch": 69, "duration": 10, "velocity": 36}, {"time": 92300, "pitch": 70, "duration": 10, "velocity": 36}, {"time": 92300, "pitch": 78, "duration": 10, "velocity": 50}, {"time": 92400, "pitch": 42, "duration": 10, "velocity": 64}, {"time": 92400, "pitch": 56, "duration": 10, "velocity": 22}, {"time": 92400, "pitch": 69, "duration": 10, "velocity": 50}, {"time": 92400, "pitch": 70, "duration": 10, "velocity": 78}, {"time": 92530, "pitch": 28, "duration": 10, "velocity": 64}, {"time": 92530, "pitch": 37, "duration": 10, "velocity": 106}, {"time": 92530, "pitch": 38, "duration": 10, "velocity": 64}, {"time": 92530, "pitch": 40, "duration": 10, "velocity": 106}, {"time": 92530, "pitch": 70, "duration": 10, "velocity": 36}, {"time": 92540, "pitch": 56, "duration": 10, "velocity": 64}, {"time": 92540, "pitch": 67, "duration": 10, "velocity": 64}, {"time": 92540, "pitch": 69, "duration": 10, "velocity": 36}, {"time": 92540, "pitch": 78, "duration": 10, "velocity": 50}, {"time": 92640, "pitch": 38, "duration": 10, "velocity": 78}, {"time": 92640, "pitch": 39, "duration": 10, "velocity": 120}, {"time": 92640, "pitch": 40, "duration": 10, "velocity": 120}, {"time": 92640, "pitch": 42, "duration": 10, "velocity": 92}, {"time": 92640, "pitch": 56, "duration": 10, "velocity": 22}, {"time": 92640, "pitch": 67, "duration": 10, "velocity": 92}, {"time": 92640, "pitch": 69, "duration": 10, "velocity": 64}, {"time": 92640, "pitch": 70, "duration": 10, "velocity": 78}, {"time": 92640, "pitch": 78, "duration": 10, "velocity": 50}, {"time": 92780, "pitch": 56, "duration": 10, "velocity": 22}, {"time": 92780, "pitch": 69, "duration": 10, "velocity": 36}, {"time": 92780, "pitch": 70, "duration": 10, "velocity": 36}, {"time": 92880, "pitch": 28, "duration": 10, "velocity": 64}, {"time": 92880, "pitch": 37, "duration": 10, "velocity": 106}, {"time": 92880, "pitch": 42, "duration": 10, "velocity": 64}, {"time": 92880, "pitch": 56, "duration": 10, "velocity": 36}, {"time": 92880, "pitch": 68, "duration": 10, "velocity": 78}, {"time": 92880, "pitch": 69, "duration": 10, "velocity": 22}, {"time": 92880, "pitch": 70, "duration": 10, "velocity": 78}, {"time": 92910, "pitch": 69, "duration": 10, "velocity": 36}, {"time": 92940, "pitch": 69, "duration": 10, "velocity": 36}, {"time": 92970, "pitch": 69, "duration": 10, "velocity": 50}, {"time": 93000, "pitch": 56, "duration": 10, "velocity": 22}, {"time": 93000, "pitch": 68, "duration": 10, "velocity": 92}, {"time": 93000, "pitch": 69, "duration": 10, "velocity": 50}, {"time": 93020, "pitch": 70, "duration": 10, "velocity": 36}, {"time": 93030, "pitch": 69, "duration": 10, "velocity": 64}, {"time": 93060, "pitch": 69, "duration": 10, "velocity": 64}, {"time": 93090, "pitch": 69, "duration": 10, "velocity": 64}, {"time": 93120, "pitch": 42, "duration": 10, "velocity": 64}, {"time": 93120, "pitch": 57, "duration": 10, "velocity": 92}, {"time": 93120, "pitch": 68, "duration": 10, "velocity": 92}, {"time": 93120, "pitch": 69, "duration": 10, "velocity": 64}, {"time": 93120, "pitch": 70, "duration": 10, "velocity": 78}, {"time": 93240, "pitch": 70, "duration": 10, "velocity": 36}, {"time": 93260, "pitch": 69, "duration": 10, "velocity": 36}, {"time": 93360, "pitch": 28, "duration": 10, "velocity": 64}, {"time": 93360, "pitch": 37, "duration": 10, "velocity": 106}, {"time": 93360, "pitch": 42, "duration": 10, "velocity": 92}, {"time": 93360, "pitch": 56, "duration": 10, "velocity": 64}, {"time": 93360, "pitch": 67, "duration": 10, "velocity": 92}, {"time": 93360, "pitch": 69, "duration": 10, "velocity": 50}, {"time": 93360, "pitch": 70, "duration": 10, "velocity": 78}, {"time": 93480, "pitch": 70, "duration": 10, "velocity": 36}, {"time": 93500, "pitch": 56, "duration": 10, "velocity": 36}, {"time": 93500, "pitch": 69, "duration": 10, "velocity": 36}, {"time": 93600, "pitch": 28, "duration": 10, "velocity": 64}, {"time": 93600, "pitch": 37, "duration": 10, "velocity": 106}, {"time": 93600, "pitch": 39, "duration": 10, "velocity": 120}, {"time": 93600, "pitch": 40, "duration": 10, "velocity": 106}, {"time": 93600, "pitch": 42, "duration": 10, "velocity": 92}, {"time": 93600, "pitch": 56, "duration": 10, "velocity": 50}, {"time": 93600, "pitch": 67, "duration": 10, "velocity": 92}, {"time": 93600, "pitch": 69, "duration": 10, "velocity": 64}, {"time": 93600, "pitch": 70, "duration": 10, "velocity": 78}, {"time": 93720, "pitch": 70, "duration": 10, "velocity": 36}, {"time": 93740, "pitch": 56, "duration": 10, "velocity": 36}, {"time": 93740, "pitch": 68, "duration": 10, "velocity": 64}, {"time": 93740, "pitch": 69, "duration": 10, "velocity": 36}, {"time": 93840, "pitch": 42, "duration": 10, "velocity": 64}, {"time": 93840, "pitch": 56, "duration": 10, "velocity": 22}, {"time": 93840, "pitch": 69, "duration": 10, "velocity": 50}, {"time": 93840, "pitch": 70, "duration": 10, "velocity": 78}, {"time": 93960, "pitch": 70, "duration": 10, "velocity": 36}, {"time": 93980, "pitch": 56, "duration": 10, "velocity": 22}, {"time": 93980, "pitch": 68, "duration": 10, "velocity": 92}, {"time": 93980, "pitch": 69, "duration": 10, "velocity": 36}, {"time": 94080, "pitch": 28, "duration": 10, "velocity": 64}, {"time": 94080, "pitch": 37, "duration": 10, "velocity": 106}, {"time": 94080, "pitch": 42, "duration": 10, "velocity": 92}, {"time": 94080, "pitch": 56, "duration": 10, "velocity": 64}, {"time": 94080, "pitch": 69, "duration": 10, "velocity": 64}, {"time": 94080, "pitch": 70, "duration": 10, "velocity": 78}, {"time": 94200, "pitch": 70, "duration": 10, "velocity": 36}, {"time": 94220, "pitch": 56, "duration": 10, "velocity": 22}, {"time": 94220, "pitch": 67, "duration": 10, "velocity": 92}, {"time": 94220, "pitch": 69, "duration": 10, "velocity": 36}, {"time": 94320, "pitch": 42, "duration": 10, "velocity": 64}, {"time": 94320, "pitch": 56, "duration": 10, "velocity": 22}, {"time": 94320, "pitch": 69, "duration": 10, "velocity": 50}, {"time": 94320, "pitch": 70, "duration": 10, "velocity": 78}, {"time": 94440, "pitch": 28, "duration": 10, "velocity": 64}, {"time": 94440, "pitch": 37, "duration": 10, "velocity": 106}, {"time": 94440, "pitch": 70, "duration": 10, "velocity": 36}, {"time": 94460, "pitch": 56, "duration": 10, "velocity": 64}, {"time": 94460, "pitch": 67, "duration": 10, "velocity": 64}, {"time": 94460, "pitch": 69, "duration": 10, "velocity": 36}, {"time": 94560, "pitch": 39, "duration": 10, "velocity": 120}, {"time": 94560, "pitch": 40, "duration": 10, "velocity": 106}, {"time": 94560, "pitch": 42, "duration": 10, "velocity": 92}, {"time": 94560, "pitch": 56, "duration": 10, "velocity": 22}, {"time": 94560, "pitch": 67, "duration": 10, "velocity": 92}, {"time": 94560, "pitch": 69, "duration": 10, "velocity": 64}, {"time": 94560, "pitch": 70, "duration": 10, "velocity": 78}, {"time": 94680, "pitch": 70, "duration": 10, "velocity": 36}, {"time": 94700, "pitch": 56, "duration": 10, "velocity": 22}, {"time": 94700, "pitch": 69, "duration": 10, "velocity": 36}, {"time": 94800, "pitch": 28, "duration": 10, "velocity": 64}, {"time": 94800, "pitch": 37, "duration": 10, "velocity": 106}, {"time": 94800, "pitch": 42, "duration": 10, "velocity": 64}, {"time": 94800, "pitch": 56, "duration": 10, "velocity": 36}, {"time": 94800, "pitch": 68, "duration": 10, "velocity": 78}, {"time": 94800, "pitch": 69, "duration": 10, "velocity": 50}, {"time": 94800, "pitch": 70, "duration": 10, "velocity": 78}, {"time": 94920, "pitch": 70, "duration": 10, "velocity": 36}, {"time": 94940, "pitch": 56, "duration": 10, "velocity": 22}, {"time": 94940, "pitch": 68, "duration": 10, "velocity": 92}, {"time": 94940, "pitch": 69, "duration": 10, "velocity": 36}, {"time": 95040, "pitch": 42, "duration": 10, "velocity": 64}, {"time": 95040, "pitch": 68, "duration": 10, "velocity": 92}, {"time": 95040, "pitch": 69, "duration": 10, "velocity": 64}, {"time": 95040, "pitch": 70, "duration": 10, "velocity": 78}, {"time": 95160, "pitch": 70, "duration": 10, "velocity": 36}, {"time": 95180, "pitch": 69, "duration": 10, "velocity": 36}, {"time": 95280, "pitch": 28, "duration": 10, "velocity": 64}, {"time": 95280, "pitch": 37, "duration": 10, "velocity": 106}, {"time": 95280, "pitch": 42, "duration": 10, "velocity": 92}, {"time": 95280, "pitch": 56, "duration": 10, "velocity": 64}, {"time": 95280, "pitch": 67, "duration": 10, "velocity": 92}, {"time": 95280, "pitch": 69, "duration": 10, "velocity": 50}, {"time": 95280, "pitch": 70, "duration": 10, "velocity": 78}, {"time": 95400, "pitch": 70, "duration": 10, "velocity": 36}, {"time": 95420, "pitch": 56, "duration": 10, "velocity": 36}, {"time": 95420, "pitch": 69, "duration": 10, "velocity": 36}, {"time": 95520, "pitch": 39, "duration": 10, "velocity": 120}, {"time": 95520, "pitch": 40, "duration": 10, "velocity": 106}, {"time": 95520, "pitch": 42, "duration": 10, "velocity": 92}, {"time": 95520, "pitch": 56, "duration": 10, "velocity": 50}, {"time": 95520, "pitch": 67, "duration": 10, "velocity": 92}, {"time": 95520, "pitch": 69, "duration": 10, "velocity": 64}, {"time": 95520, "pitch": 70, "duration": 10, "velocity": 78}, {"time": 95640, "pitch": 28, "duration": 10, "velocity": 64}, {"time": 95640, "pitch": 37, "duration": 10, "velocity": 106}, {"time": 95640, "pitch": 70, "duration": 10, "velocity": 36}, {"time": 95660, "pitch": 56, "duration": 10, "velocity": 36}, {"time": 95660, "pitch": 68, "duration": 10, "velocity": 64}, {"time": 95660, "pitch": 69, "duration": 10, "velocity": 36}, {"time": 95760, "pitch": 42, "duration": 10, "velocity": 64}, {"time": 95760, "pitch": 56, "duration": 10, "velocity": 22}, {"time": 95760, "pitch": 69, "duration": 10, "velocity": 50}, {"time": 95760, "pitch": 70, "duration": 10, "velocity": 78}, {"time": 95880, "pitch": 70, "duration": 10, "velocity": 36}, {"time": 95900, "pitch": 56, "duration": 10, "velocity": 22}, {"time": 95900, "pitch": 68, "duration": 10, "velocity": 92}, {"time": 95900, "pitch": 69, "duration": 10, "velocity": 36}, {"time": 96000, "pitch": 28, "duration": 10, "velocity": 64}, {"time": 96000, "pitch": 37, "duration": 10, "velocity": 106}, {"time": 96000, "pitch": 42, "duration": 10, "velocity": 92}, {"time": 96000, "pitch": 56, "duration": 10, "velocity": 64}, {"time": 96000, "pitch": 69, "duration": 10, "velocity": 64}, {"time": 96000, "pitch": 70, "duration": 10, "velocity": 78}, {"time": 96120, "pitch": 70, "duration": 10, "velocity": 36}, {"time": 96140, "pitch": 56, "duration": 10, "velocity": 22}, {"time": 96140, "pitch": 67, "duration": 10, "velocity": 92}, {"time": 96140, "pitch": 69, "duration": 10, "velocity": 36}, {"time": 96240, "pitch": 42, "duration": 10, "velocity": 64}, {"time": 96240, "pitch": 56, "duration": 10, "velocity": 22}, {"time": 96240, "pitch": 69, "duration": 10, "velocity": 50}, {"time": 96240, "pitch": 70, "duration": 10, "velocity": 78}, {"time": 96360, "pitch": 28, "duration": 10, "velocity": 64}, {"time": 96360, "pitch": 37, "duration": 10, "velocity": 106}, {"time": 96360, "pitch": 70, "duration": 10, "velocity": 36}, {"time": 96380, "pitch": 56, "duration": 10, "velocity": 64}, {"time": 96380, "pitch": 67, "duration": 10, "velocity": 64}, {"time": 96380, "pitch": 69, "duration": 10, "velocity": 36}, {"time": 96480, "pitch": 39, "duration": 10, "velocity": 120}, {"time": 96480, "pitch": 40, "duration": 10, "velocity": 106}, {"time": 96480, "pitch": 42, "duration": 10, "velocity": 92}, {"time": 96480, "pitch": 56, "duration": 10, "velocity": 22}, {"time": 96480, "pitch": 67, "duration": 10, "velocity": 92}, {"time": 96480, "pitch": 69, "duration": 10, "velocity": 64}, {"time": 96480, "pitch": 70, "duration": 10, "velocity": 78}, {"time": 96600, "pitch": 70, "duration": 10, "velocity": 36}, {"time": 96620, "pitch": 56, "duration": 10, "velocity": 22}, {"time": 96620, "pitch": 69, "duration": 10, "velocity": 36}, {"time": 96720, "pitch": 28, "duration": 10, "velocity": 64}, {"time": 96720, "pitch": 37, "duration": 10, "velocity": 106}, {"time": 96720, "pitch": 42, "duration": 10, "velocity": 64}, {"time": 96720, "pitch": 56, "duration": 10, "velocity": 36}, {"time": 96720, "pitch": 68, "duration": 10, "velocity": 78}, {"time": 96720, "pitch": 69, "duration": 10, "velocity": 22}, {"time": 96720, "pitch": 70, "duration": 10, "velocity": 78}, {"time": 96750, "pitch": 69, "duration": 10, "velocity": 36}, {"time": 96780, "pitch": 69, "duration": 10, "velocity": 36}, {"time": 96810, "pitch": 69, "duration": 10, "velocity": 50}, {"time": 96840, "pitch": 56, "duration": 10, "velocity": 22}, {"time": 96840, "pitch": 68, "duration": 10, "velocity": 92}, {"time": 96840, "pitch": 69, "duration": 10, "velocity": 50}, {"time": 96840, "pitch": 70, "duration": 10, "velocity": 36}, {"time": 96870, "pitch": 69, "duration": 10, "velocity": 64}, {"time": 96900, "pitch": 69, "duration": 10, "velocity": 64}, {"time": 96930, "pitch": 69, "duration": 10, "velocity": 64}, {"time": 96960, "pitch": 42, "duration": 10, "velocity": 64}, {"time": 96960, "pitch": 68, "duration": 10, "velocity": 92}, {"time": 96960, "pitch": 69, "duration": 10, "velocity": 64}, {"time": 96960, "pitch": 70, "duration": 10, "velocity": 78}, {"time": 97080, "pitch": 70, "duration": 10, "velocity": 36}, {"time": 97100, "pitch": 69, "duration": 10, "velocity": 36}, {"time": 97200, "pitch": 28, "duration": 10, "velocity": 64}, {"time": 97200, "pitch": 37, "duration": 10, "velocity": 106}, {"time": 97200, "pitch": 42, "duration": 10, "velocity": 92}, {"time": 97200, "pitch": 56, "duration": 10, "velocity": 64}, {"time": 97200, "pitch": 67, "duration": 10, "velocity": 92}, {"time": 97200, "pitch": 69, "duration": 10, "velocity": 50}, {"time": 97200, "pitch": 70, "duration": 10, "velocity": 78}, {"time": 97320, "pitch": 70, "duration": 10, "velocity": 36}, {"time": 97340, "pitch": 56, "duration": 10, "velocity": 36}, {"time": 97340, "pitch": 69, "duration": 10, "velocity": 36}, {"time": 97440, "pitch": 28, "duration": 10, "velocity": 64}, {"time": 97440, "pitch": 37, "duration": 10, "velocity": 106}, {"time": 97440, "pitch": 39, "duration": 10, "velocity": 120}, {"time": 97440, "pitch": 40, "duration": 10, "velocity": 106}, {"time": 97440, "pitch": 42, "duration": 10, "velocity": 92}, {"time": 97440, "pitch": 56, "duration": 10, "velocity": 50}, {"time": 97440, "pitch": 67, "duration": 10, "velocity": 92}, {"time": 97440, "pitch": 69, "duration": 10, "velocity": 64}, {"time": 97440, "pitch": 70, "duration": 10, "velocity": 78}, {"time": 97560, "pitch": 70, "duration": 10, "velocity": 36}, {"time": 97580, "pitch": 56, "duration": 10, "velocity": 36}, {"time": 97580, "pitch": 68, "duration": 10, "velocity": 64}, {"time": 97580, "pitch": 69, "duration": 10, "velocity": 36}, {"time": 97680, "pitch": 42, "duration": 10, "velocity": 64}, {"time": 97680, "pitch": 56, "duration": 10, "velocity": 22}, {"time": 97680, "pitch": 69, "duration": 10, "velocity": 50}, {"time": 97680, "pitch": 70, "duration": 10, "velocity": 78}, {"time": 97800, "pitch": 70, "duration": 10, "velocity": 36}, {"time": 97820, "pitch": 56, "duration": 10, "velocity": 22}, {"time": 97820, "pitch": 68, "duration": 10, "velocity": 92}, {"time": 97820, "pitch": 69, "duration": 10, "velocity": 36}, {"time": 97920, "pitch": 28, "duration": 10, "velocity": 64}, {"time": 97920, "pitch": 37, "duration": 10, "velocity": 106}, {"time": 97920, "pitch": 42, "duration": 10, "velocity": 92}, {"time": 97920, "pitch": 56, "duration": 10, "velocity": 64}, {"time": 97920, "pitch": 69, "duration": 10, "velocity": 64}, {"time": 97920, "pitch": 70, "duration": 10, "velocity": 78}, {"time": 98040, "pitch": 70, "duration": 10, "velocity": 36}, {"time": 98060, "pitch": 56, "duration": 10, "velocity": 22}, {"time": 98060, "pitch": 67, "duration": 10, "velocity": 92}, {"time": 98060, "pitch": 69, "duration": 10, "velocity": 36}, {"time": 98160, "pitch": 42, "duration": 10, "velocity": 64}, {"time": 98160, "pitch": 56, "duration": 10, "velocity": 22}, {"time": 98160, "pitch": 69, "duration": 10, "velocity": 50}, {"time": 98160, "pitch": 70, "duration": 10, "velocity": 78}, {"time": 98280, "pitch": 28, "duration": 10, "velocity": 64}, {"time": 98280, "pitch": 37, "duration": 10, "velocity": 106}, {"time": 98280, "pitch": 70, "duration": 10, "velocity": 36}, {"time": 98300, "pitch": 56, "duration": 10, "velocity": 64}, {"time": 98300, "pitch": 67, "duration": 10, "velocity": 64}, {"time": 98300, "pitch": 69, "duration": 10, "velocity": 36}, {"time": 98400, "pitch": 39, "duration": 10, "velocity": 120}, {"time": 98400, "pitch": 40, "duration": 10, "velocity": 106}, {"time": 98400, "pitch": 42, "duration": 10, "velocity": 92}, {"time": 98400, "pitch": 56, "duration": 10, "velocity": 22}, {"time": 98400, "pitch": 67, "duration": 10, "velocity": 92}, {"time": 98400, "pitch": 69, "duration": 10, "velocity": 64}, {"time": 98400, "pitch": 70, "duration": 10, "velocity": 78}, {"time": 98520, "pitch": 70, "duration": 10, "velocity": 36}, {"time": 98540, "pitch": 56, "duration": 10, "velocity": 22}, {"time": 98540, "pitch": 69, "duration": 10, "velocity": 36}, {"time": 98640, "pitch": 28, "duration": 10, "velocity": 64}, {"time": 98640, "pitch": 37, "duration": 10, "velocity": 106}, {"time": 98640, "pitch": 42, "duration": 10, "velocity": 64}, {"time": 98640, "pitch": 56, "duration": 10, "velocity": 36}, {"time": 98640, "pitch": 68, "duration": 10, "velocity": 78}, {"time": 98640, "pitch": 69, "duration": 10, "velocity": 50}, {"time": 98640, "pitch": 70, "duration": 10, "velocity": 78}, {"time": 98760, "pitch": 70, "duration": 10, "velocity": 36}, {"time": 98780, "pitch": 56, "duration": 10, "velocity": 22}, {"time": 98780, "pitch": 68, "duration": 10, "velocity": 92}, {"time": 98780, "pitch": 69, "duration": 10, "velocity": 36}, {"time": 98880, "pitch": 42, "duration": 10, "velocity": 64}, {"time": 98880, "pitch": 68, "duration": 10, "velocity": 92}, {"time": 98880, "pitch": 69, "duration": 10, "velocity": 64}, {"time": 98880, "pitch": 70, "duration": 10, "velocity": 78}, {"time": 99000, "pitch": 70, "duration": 10, "velocity": 36}, {"time": 99020, "pitch": 69, "duration": 10, "velocity": 36}, {"time": 99120, "pitch": 28, "duration": 10, "velocity": 64}, {"time": 99120, "pitch": 37, "duration": 10, "velocity": 106}, {"time": 99120, "pitch": 39, "duration": 10, "velocity": 120}, {"time": 99120, "pitch": 40, "duration": 10, "velocity": 92}, {"time": 99120, "pitch": 42, "duration": 10, "velocity": 92}, {"time": 99120, "pitch": 56, "duration": 10, "velocity": 64}, {"time": 99120, "pitch": 67, "duration": 10, "velocity": 92}, {"time": 99120, "pitch": 69, "duration": 10, "velocity": 50}, {"time": 99120, "pitch": 70, "duration": 10, "velocity": 78}, {"time": 99240, "pitch": 70, "duration": 10, "velocity": 36}, {"time": 99260, "pitch": 56, "duration": 10, "velocity": 36}, {"time": 99260, "pitch": 69, "duration": 10, "velocity": 36}, {"time": 99360, "pitch": 39, "duration": 10, "velocity": 120}, {"time": 99360, "pitch": 40, "duration": 10, "velocity": 106}, {"time": 99360, "pitch": 42, "duration": 10, "velocity": 92}, {"time": 99360, "pitch": 56, "duration": 10, "velocity": 50}, {"time": 99360, "pitch": 67, "duration": 10, "velocity": 92}, {"time": 99360, "pitch": 69, "duration": 10, "velocity": 64}, {"time": 99360, "pitch": 70, "duration": 10, "velocity": 78}, {"time": 99480, "pitch": 28, "duration": 10, "velocity": 64}, {"time": 99480, "pitch": 37, "duration": 10, "velocity": 106}, {"time": 99480, "pitch": 70, "duration": 10, "velocity": 36}, {"time": 99500, "pitch": 56, "duration": 10, "velocity": 36}, {"time": 99500, "pitch": 68, "duration": 10, "velocity": 64}, {"time": 99500, "pitch": 69, "duration": 10, "velocity": 36}, {"time": 99600, "pitch": 42, "duration": 10, "velocity": 64}, {"time": 99600, "pitch": 56, "duration": 10, "velocity": 22}, {"time": 99600, "pitch": 69, "duration": 10, "velocity": 50}, {"time": 99600, "pitch": 70, "duration": 10, "velocity": 78}, {"time": 99720, "pitch": 70, "duration": 10, "velocity": 36}, {"time": 99740, "pitch": 56, "duration": 10, "velocity": 22}, {"time": 99740, "pitch": 68, "duration": 10, "velocity": 92}, {"time": 99740, "pitch": 69, "duration": 10, "velocity": 36}, {"time": 99840, "pitch": 28, "duration": 10, "velocity": 64}, {"time": 99840, "pitch": 37, "duration": 10, "velocity": 106}, {"time": 99840, "pitch": 42, "duration": 10, "velocity": 92}, {"time": 99840, "pitch": 56, "duration": 10, "velocity": 64}, {"time": 99840, "pitch": 69, "duration": 10, "velocity": 64}, {"time": 99840, "pitch": 70, "duration": 10, "velocity": 78}, {"time": 99960, "pitch": 70, "duration": 10, "velocity": 36}, {"time": 99980, "pitch": 56, "duration": 10, "velocity": 22}, {"time": 99980, "pitch": 67, "duration": 10, "velocity": 92}, {"time": 99980, "pitch": 69, "duration": 10, "velocity": 36}, {"time": 100080, "pitch": 42, "duration": 10, "velocity": 64}, {"time": 100080, "pitch": 56, "duration": 10, "velocity": 22}, {"time": 100080, "pitch": 69, "duration": 10, "velocity": 50}, {"time": 100080, "pitch": 70, "duration": 10, "velocity": 78}, {"time": 100200, "pitch": 28, "duration": 10, "velocity": 64}, {"time": 100200, "pitch": 37, "duration": 10, "velocity": 106}, {"time": 100200, "pitch": 70, "duration": 10, "velocity": 36}, {"time": 100220, "pitch": 56, "duration": 10, "velocity": 64}, {"time": 100220, "pitch": 67, "duration": 10, "velocity": 64}, {"time": 100220, "pitch": 69, "duration": 10, "velocity": 36}, {"time": 100320, "pitch": 39, "duration": 10, "velocity": 120}, {"time": 100320, "pitch": 40, "duration": 10, "velocity": 106}, {"time": 100320, "pitch": 42, "duration": 10, "velocity": 92}, {"time": 100320, "pitch": 56, "duration": 10, "velocity": 22}, {"time": 100320, "pitch": 67, "duration": 10, "velocity": 92}, {"time": 100320, "pitch": 69, "duration": 10, "velocity": 64}, {"time": 100320, "pitch": 70, "duration": 10, "velocity": 78}, {"time": 100440, "pitch": 70, "duration": 10, "velocity": 36}, {"time": 100460, "pitch": 56, "duration": 10, "velocity": 22}, {"time": 100460, "pitch": 69, "duration": 10, "velocity": 36}, {"time": 100560, "pitch": 28, "duration": 10, "velocity": 64}, {"time": 100560, "pitch": 37, "duration": 10, "velocity": 106}, {"time": 100560, "pitch": 42, "duration": 10, "velocity": 64}, {"time": 100560, "pitch": 56, "duration": 10, "velocity": 36}, {"time": 100560, "pitch": 68, "duration": 10, "velocity": 78}, {"time": 100560, "pitch": 69, "duration": 10, "velocity": 22}, {"time": 100560, "pitch": 70, "duration": 10, "velocity": 78}, {"time": 100590, "pitch": 69, "duration": 10, "velocity": 36}, {"time": 100620, "pitch": 69, "duration": 10, "velocity": 36}, {"time": 100650, "pitch": 69, "duration": 10, "velocity": 50}, {"time": 100680, "pitch": 56, "duration": 10, "velocity": 22}, {"time": 100680, "pitch": 68, "duration": 10, "velocity": 92}, {"time": 100680, "pitch": 69, "duration": 10, "velocity": 50}, {"time": 100680, "pitch": 70, "duration": 10, "velocity": 36}, {"time": 100710, "pitch": 69, "duration": 10, "velocity": 64}, {"time": 100740, "pitch": 69, "duration": 10, "velocity": 64}, {"time": 100770, "pitch": 69, "duration": 10, "velocity": 64}, {"time": 100800, "pitch": 42, "duration": 10, "velocity": 64}, {"time": 100800, "pitch": 57, "duration": 10, "velocity": 92}, {"time": 100800, "pitch": 68, "duration": 10, "velocity": 92}, {"time": 100800, "pitch": 69, "duration": 10, "velocity": 64}, {"time": 100800, "pitch": 70, "duration": 10, "velocity": 78}, {"time": 100920, "pitch": 70, "duration": 10, "velocity": 36}, {"time": 100940, "pitch": 69, "duration": 10, "velocity": 36}, {"time": 101040, "pitch": 28, "duration": 10, "velocity": 64}, {"time": 101040, "pitch": 37, "duration": 10, "velocity": 106}, {"time": 101040, "pitch": 42, "duration": 10, "velocity": 92}, {"time": 101040, "pitch": 56, "duration": 10, "velocity": 64}, {"time": 101040, "pitch": 67, "duration": 10, "velocity": 92}, {"time": 101040, "pitch": 69, "duration": 10, "velocity": 50}, {"time": 101040, "pitch": 70, "duration": 10, "velocity": 78}, {"time": 101160, "pitch": 70, "duration": 10, "velocity": 36}, {"time": 101180, "pitch": 56, "duration": 10, "velocity": 36}, {"time": 101180, "pitch": 69, "duration": 10, "velocity": 36}, {"time": 101280, "pitch": 28, "duration": 10, "velocity": 64}, {"time": 101280, "pitch": 37, "duration": 10, "velocity": 106}, {"time": 101280, "pitch": 39, "duration": 10, "velocity": 120}, {"time": 101280, "pitch": 40, "duration": 10, "velocity": 106}, {"time": 101280, "pitch": 42, "duration": 10, "velocity": 92}, {"time": 101280, "pitch": 56, "duration": 10, "velocity": 50}, {"time": 101280, "pitch": 67, "duration": 10, "velocity": 92}, {"time": 101280, "pitch": 69, "duration": 10, "velocity": 64}, {"time": 101280, "pitch": 70, "duration": 10, "velocity": 78}, {"time": 101400, "pitch": 70, "duration": 10, "velocity": 36}, {"time": 101420, "pitch": 56, "duration": 10, "velocity": 36}, {"time": 101420, "pitch": 68, "duration": 10, "velocity": 64}, {"time": 101420, "pitch": 69, "duration": 10, "velocity": 36}, {"time": 101520, "pitch": 42, "duration": 10, "velocity": 64}, {"time": 101520, "pitch": 56, "duration": 10, "velocity": 22}, {"time": 101520, "pitch": 69, "duration": 10, "velocity": 50}, {"time": 101520, "pitch": 70, "duration": 10, "velocity": 78}, {"time": 101640, "pitch": 70, "duration": 10, "velocity": 36}, {"time": 101660, "pitch": 56, "duration": 10, "velocity": 22}, {"time": 101660, "pitch": 68, "duration": 10, "velocity": 92}, {"time": 101660, "pitch": 69, "duration": 10, "velocity": 36}, {"time": 101760, "pitch": 28, "duration": 10, "velocity": 64}, {"time": 101760, "pitch": 37, "duration": 10, "velocity": 106}, {"time": 101760, "pitch": 42, "duration": 10, "velocity": 92}, {"time": 101760, "pitch": 56, "duration": 10, "velocity": 64}, {"time": 101760, "pitch": 69, "duration": 10, "velocity": 64}, {"time": 101760, "pitch": 70, "duration": 10, "velocity": 78}, {"time": 101880, "pitch": 70, "duration": 10, "velocity": 36}, {"time": 101900, "pitch": 56, "duration": 10, "velocity": 22}, {"time": 101900, "pitch": 67, "duration": 10, "velocity": 92}, {"time": 101900, "pitch": 69, "duration": 10, "velocity": 36}, {"time": 102000, "pitch": 42, "duration": 10, "velocity": 64}, {"time": 102000, "pitch": 56, "duration": 10, "velocity": 22}, {"time": 102000, "pitch": 69, "duration": 10, "velocity": 50}, {"time": 102000, "pitch": 70, "duration": 10, "velocity": 78}, {"time": 102120, "pitch": 28, "duration": 10, "velocity": 64}, {"time": 102120, "pitch": 37, "duration": 10, "velocity": 106}, {"time": 102120, "pitch": 70, "duration": 10, "velocity": 36}, {"time": 102140, "pitch": 56, "duration": 10, "velocity": 64}, {"time": 102140, "pitch": 67, "duration": 10, "velocity": 64}, {"time": 102140, "pitch": 69, "duration": 10, "velocity": 36}, {"time": 102240, "pitch": 39, "duration": 10, "velocity": 120}, {"time": 102240, "pitch": 40, "duration": 10, "velocity": 106}, {"time": 102240, "pitch": 42, "duration": 10, "velocity": 92}, {"time": 102240, "pitch": 56, "duration": 10, "velocity": 22}, {"time": 102240, "pitch": 67, "duration": 10, "velocity": 92}, {"time": 102240, "pitch": 69, "duration": 10, "velocity": 64}, {"time": 102240, "pitch": 70, "duration": 10, "velocity": 78}, {"time": 102360, "pitch": 70, "duration": 10, "velocity": 36}, {"time": 102380, "pitch": 56, "duration": 10, "velocity": 22}, {"time": 102380, "pitch": 69, "duration": 10, "velocity": 36}, {"time": 102480, "pitch": 28, "duration": 10, "velocity": 64}, {"time": 102480, "pitch": 37, "duration": 10, "velocity": 106}, {"time": 102480, "pitch": 42, "duration": 10, "velocity": 64}, {"time": 102480, "pitch": 56, "duration": 10, "velocity": 36}, {"time": 102480, "pitch": 68, "duration": 10, "velocity": 78}, {"time": 102480, "pitch": 69, "duration": 10, "velocity": 50}, {"time": 102480, "pitch": 70, "duration": 10, "velocity": 78}, {"time": 102600, "pitch": 70, "duration": 10, "velocity": 36}, {"time": 102620, "pitch": 56, "duration": 10, "velocity": 22}, {"time": 102620, "pitch": 68, "duration": 10, "velocity": 92}, {"time": 102620, "pitch": 69, "duration": 10, "velocity": 36}, {"time": 102720, "pitch": 42, "duration": 10, "velocity": 64}, {"time": 102720, "pitch": 68, "duration": 10, "velocity": 92}, {"time": 102720, "pitch": 69, "duration": 10, "velocity": 64}, {"time": 102720, "pitch": 70, "duration": 10, "velocity": 78}, {"time": 102840, "pitch": 70, "duration": 10, "velocity": 36}, {"time": 102860, "pitch": 69, "duration": 10, "velocity": 36}, {"time": 102960, "pitch": 28, "duration": 10, "velocity": 64}, {"time": 102960, "pitch": 37, "duration": 10, "velocity": 106}, {"time": 102960, "pitch": 42, "duration": 10, "velocity": 92}, {"time": 102960, "pitch": 56, "duration": 10, "velocity": 64}, {"time": 102960, "pitch": 67, "duration": 10, "velocity": 92}, {"time": 102960, "pitch": 69, "duration": 10, "velocity": 50}, {"time": 102960, "pitch": 70, "duration": 10, "velocity": 78}, {"time": 103080, "pitch": 70, "duration": 10, "velocity": 36}, {"time": 103100, "pitch": 56, "duration": 10, "velocity": 36}, {"time": 103100, "pitch": 69, "duration": 10, "velocity": 36}, {"time": 103200, "pitch": 39, "duration": 10, "velocity": 120}, {"time": 103200, "pitch": 40, "duration": 10, "velocity": 106}, {"time": 103200, "pitch": 42, "duration": 10, "velocity": 92}, {"time": 103200, "pitch": 56, "duration": 10, "velocity": 50}, {"time": 103200, "pitch": 67, "duration": 10, "velocity": 92}, {"time": 103200, "pitch": 69, "duration": 10, "velocity": 64}, {"time": 103200, "pitch": 70, "duration": 10, "velocity": 78}, {"time": 103320, "pitch": 28, "duration": 10, "velocity": 64}, {"time": 103320, "pitch": 37, "duration": 10, "velocity": 106}, {"time": 103320, "pitch": 70, "duration": 10, "velocity": 36}, {"time": 103340, "pitch": 56, "duration": 10, "velocity": 36}, {"time": 103340, "pitch": 68, "duration": 10, "velocity": 64}, {"time": 103340, "pitch": 69, "duration": 10, "velocity": 36}, {"time": 103440, "pitch": 42, "duration": 10, "velocity": 64}, {"time": 103440, "pitch": 56, "duration": 10, "velocity": 22}, {"time": 103440, "pitch": 69, "duration": 10, "velocity": 50}, {"time": 103440, "pitch": 70, "duration": 10, "velocity": 78}, {"time": 103560, "pitch": 70, "duration": 10, "velocity": 36}, {"time": 103580, "pitch": 56, "duration": 10, "velocity": 22}, {"time": 103580, "pitch": 68, "duration": 10, "velocity": 92}, {"time": 103580, "pitch": 69, "duration": 10, "velocity": 36}, {"time": 103680, "pitch": 28, "duration": 10, "velocity": 64}, {"time": 103680, "pitch": 37, "duration": 10, "velocity": 106}, {"time": 103680, "pitch": 42, "duration": 10, "velocity": 92}, {"time": 103680, "pitch": 56, "duration": 10, "velocity": 64}, {"time": 103680, "pitch": 69, "duration": 10, "velocity": 64}, {"time": 103680, "pitch": 70, "duration": 10, "velocity": 78}, {"time": 103800, "pitch": 70, "duration": 10, "velocity": 36}, {"time": 103820, "pitch": 56, "duration": 10, "velocity": 22}, {"time": 103820, "pitch": 67, "duration": 10, "velocity": 92}, {"time": 103820, "pitch": 69, "duration": 10, "velocity": 36}, {"time": 103920, "pitch": 42, "duration": 10, "velocity": 64}, {"time": 103920, "pitch": 56, "duration": 10, "velocity": 22}, {"time": 103920, "pitch": 69, "duration": 10, "velocity": 50}, {"time": 103920, "pitch": 70, "duration": 10, "velocity": 78}, {"time": 104040, "pitch": 28, "duration": 10, "velocity": 64}, {"time": 104040, "pitch": 37, "duration": 10, "velocity": 106}, {"time": 104040, "pitch": 70, "duration": 10, "velocity": 36}, {"time": 104060, "pitch": 56, "duration": 10, "velocity": 64}, {"time": 104060, "pitch": 67, "duration": 10, "velocity": 64}, {"time": 104060, "pitch": 69, "duration": 10, "velocity": 36}, {"time": 104160, "pitch": 39, "duration": 10, "velocity": 120}, {"time": 104160, "pitch": 40, "duration": 10, "velocity": 106}, {"time": 104160, "pitch": 42, "duration": 10, "velocity": 92}, {"time": 104160, "pitch": 56, "duration": 10, "velocity": 22}, {"time": 104160, "pitch": 67, "duration": 10, "velocity": 92}, {"time": 104160, "pitch": 69, "duration": 10, "velocity": 64}, {"time": 104160, "pitch": 70, "duration": 10, "velocity": 78}, {"time": 104280, "pitch": 70, "duration": 10, "velocity": 36}, {"time": 104300, "pitch": 56, "duration": 10, "velocity": 22}, {"time": 104300, "pitch": 69, "duration": 10, "velocity": 36}, {"time": 104400, "pitch": 28, "duration": 10, "velocity": 64}, {"time": 104400, "pitch": 37, "duration": 10, "velocity": 106}, {"time": 104400, "pitch": 42, "duration": 10, "velocity": 64}, {"time": 104400, "pitch": 56, "duration": 10, "velocity": 36}, {"time": 104400, "pitch": 68, "duration": 10, "velocity": 78}, {"time": 104400, "pitch": 69, "duration": 10, "velocity": 22}, {"time": 104400, "pitch": 70, "duration": 10, "velocity": 78}, {"time": 104430, "pitch": 69, "duration": 10, "velocity": 36}, {"time": 104460, "pitch": 69, "duration": 10, "velocity": 36}, {"time": 104490, "pitch": 69, "duration": 10, "velocity": 50}, {"time": 104520, "pitch": 56, "duration": 10, "velocity": 22}, {"time": 104520, "pitch": 68, "duration": 10, "velocity": 92}, {"time": 104520, "pitch": 69, "duration": 10, "velocity": 50}, {"time": 104520, "pitch": 70, "duration": 10, "velocity": 36}, {"time": 104550, "pitch": 69, "duration": 10, "velocity": 64}, {"time": 104580, "pitch": 69, "duration": 10, "velocity": 64}, {"time": 104610, "pitch": 69, "duration": 10, "velocity": 64}, {"time": 104640, "pitch": 42, "duration": 10, "velocity": 64}, {"time": 104640, "pitch": 68, "duration": 10, "velocity": 92}, {"time": 104640, "pitch": 69, "duration": 10, "velocity": 64}, {"time": 104640, "pitch": 70, "duration": 10, "velocity": 78}, {"time": 104760, "pitch": 70, "duration": 10, "velocity": 36}, {"time": 104780, "pitch": 69, "duration": 10, "velocity": 36}, {"time": 104880, "pitch": 28, "duration": 10, "velocity": 64}, {"time": 104880, "pitch": 37, "duration": 10, "velocity": 106}, {"time": 104880, "pitch": 42, "duration": 10, "velocity": 92}, {"time": 104880, "pitch": 56, "duration": 10, "velocity": 64}, {"time": 104880, "pitch": 67, "duration": 10, "velocity": 92}, {"time": 104880, "pitch": 69, "duration": 10, "velocity": 50}, {"time": 104880, "pitch": 70, "duration": 10, "velocity": 78}, {"time": 105000, "pitch": 70, "duration": 10, "velocity": 36}, {"time": 105020, "pitch": 56, "duration": 10, "velocity": 36}, {"time": 105020, "pitch": 69, "duration": 10, "velocity": 36}, {"time": 105120, "pitch": 28, "duration": 10, "velocity": 64}, {"time": 105120, "pitch": 37, "duration": 10, "velocity": 106}, {"time": 105120, "pitch": 39, "duration": 10, "velocity": 120}, {"time": 105120, "pitch": 40, "duration": 10, "velocity": 106}, {"time": 105120, "pitch": 42, "duration": 10, "velocity": 92}, {"time": 105120, "pitch": 56, "duration": 10, "velocity": 50}, {"time": 105120, "pitch": 67, "duration": 10, "velocity": 92}, {"time": 105120, "pitch": 69, "duration": 10, "velocity": 64}, {"time": 105120, "pitch": 70, "duration": 10, "velocity": 78}, {"time": 105240, "pitch": 70, "duration": 10, "velocity": 36}, {"time": 105260, "pitch": 56, "duration": 10, "velocity": 36}, {"time": 105260, "pitch": 68, "duration": 10, "velocity": 64}, {"time": 105260, "pitch": 69, "duration": 10, "velocity": 36}, {"time": 105360, "pitch": 42, "duration": 10, "velocity": 64}, {"time": 105360, "pitch": 56, "duration": 10, "velocity": 22}, {"time": 105360, "pitch": 69, "duration": 10, "velocity": 50}, {"time": 105360, "pitch": 70, "duration": 10, "velocity": 78}, {"time": 105480, "pitch": 70, "duration": 10, "velocity": 36}, {"time": 105500, "pitch": 56, "duration": 10, "velocity": 22}, {"time": 105500, "pitch": 68, "duration": 10, "velocity": 92}, {"time": 105500, "pitch": 69, "duration": 10, "velocity": 36}, {"time": 105600, "pitch": 28, "duration": 10, "velocity": 64}, {"time": 105600, "pitch": 37, "duration": 10, "velocity": 106}, {"time": 105600, "pitch": 42, "duration": 10, "velocity": 92}, {"time": 105600, "pitch": 56, "duration": 10, "velocity": 64}, {"time": 105600, "pitch": 69, "duration": 10, "velocity": 64}, {"time": 105600, "pitch": 70, "duration": 10, "velocity": 78}, {"time": 105720, "pitch": 70, "duration": 10, "velocity": 36}, {"time": 105740, "pitch": 56, "duration": 10, "velocity": 22}, {"time": 105740, "pitch": 67, "duration": 10, "velocity": 92}, {"time": 105740, "pitch": 69, "duration": 10, "velocity": 36}, {"time": 105840, "pitch": 42, "duration": 10, "velocity": 64}, {"time": 105840, "pitch": 56, "duration": 10, "velocity": 22}, {"time": 105840, "pitch": 69, "duration": 10, "velocity": 50}, {"time": 105840, "pitch": 70, "duration": 10, "velocity": 78}, {"time": 105960, "pitch": 28, "duration": 10, "velocity": 64}, {"time": 105960, "pitch": 37, "duration": 10, "velocity": 106}, {"time": 105960, "pitch": 70, "duration": 10, "velocity": 36}, {"time": 105980, "pitch": 56, "duration": 10, "velocity": 64}, {"time": 105980, "pitch": 67, "duration": 10, "velocity": 64}, {"time": 105980, "pitch": 69, "duration": 10, "velocity": 36}, {"time": 106080, "pitch": 39, "duration": 10, "velocity": 120}, {"time": 106080, "pitch": 40, "duration": 10, "velocity": 106}, {"time": 106080, "pitch": 42, "duration": 10, "velocity": 92}, {"time": 106080, "pitch": 56, "duration": 10, "velocity": 22}, {"time": 106080, "pitch": 67, "duration": 10, "velocity": 92}, {"time": 106080, "pitch": 69, "duration": 10, "velocity": 64}, {"time": 106080, "pitch": 70, "duration": 10, "velocity": 78}, {"time": 106200, "pitch": 70, "duration": 10, "velocity": 36}, {"time": 106220, "pitch": 56, "duration": 10, "velocity": 22}, {"time": 106220, "pitch": 69, "duration": 10, "velocity": 36}, {"time": 106320, "pitch": 28, "duration": 10, "velocity": 64}, {"time": 106320, "pitch": 37, "duration": 10, "velocity": 106}, {"time": 106320, "pitch": 42, "duration": 10, "velocity": 64}, {"time": 106320, "pitch": 49, "duration": 10, "velocity": 78}, {"time": 106320, "pitch": 56, "duration": 10, "velocity": 36}, {"time": 106320, "pitch": 68, "duration": 10, "velocity": 78}, {"time": 106320, "pitch": 69, "duration": 10, "velocity": 50}, {"time": 106320, "pitch": 70, "duration": 10, "velocity": 78}, {"time": 106440, "pitch": 70, "duration": 10, "velocity": 36}, {"time": 106460, "pitch": 56, "duration": 10, "velocity": 22}, {"time": 106460, "pitch": 68, "duration": 10, "velocity": 92}, {"time": 106460, "pitch": 69, "duration": 10, "velocity": 36}, {"time": 106560, "pitch": 42, "duration": 10, "velocity": 64}, {"time": 106560, "pitch": 68, "duration": 10, "velocity": 92}, {"time": 106560, "pitch": 69, "duration": 10, "velocity": 64}, {"time": 106560, "pitch": 70, "duration": 10, "velocity": 78}, {"time": 106680, "pitch": 70, "duration": 10, "velocity": 36}, {"time": 106700, "pitch": 69, "duration": 10, "velocity": 36}, {"time": 106800, "pitch": 28, "duration": 10, "velocity": 64}, {"time": 106800, "pitch": 37, "duration": 10, "velocity": 106}, {"time": 106800, "pitch": 39, "duration": 10, "velocity": 120}, {"time": 106800, "pitch": 40, "duration": 10, "velocity": 92}, {"time": 106800, "pitch": 42, "duration": 10, "velocity": 92}, {"time": 106800, "pitch": 56, "duration": 10, "velocity": 64}, {"time": 106800, "pitch": 67, "duration": 10, "velocity": 92}, {"time": 106800, "pitch": 69, "duration": 10, "velocity": 50}, {"time": 106800, "pitch": 70, "duration": 10, "velocity": 78}, {"time": 106920, "pitch": 70, "duration": 10, "velocity": 36}, {"time": 106940, "pitch": 56, "duration": 10, "velocity": 36}, {"time": 106940, "pitch": 69, "duration": 10, "velocity": 36}, {"time": 107040, "pitch": 39, "duration": 10, "velocity": 120}, {"time": 107040, "pitch": 40, "duration": 10, "velocity": 106}, {"time": 107040, "pitch": 42, "duration": 10, "velocity": 92}, {"time": 107040, "pitch": 56, "duration": 10, "velocity": 50}, {"time": 107040, "pitch": 67, "duration": 10, "velocity": 92}, {"time": 107040, "pitch": 69, "duration": 10, "velocity": 64}, {"time": 107040, "pitch": 70, "duration": 10, "velocity": 78}, {"time": 107160, "pitch": 28, "duration": 10, "velocity": 64}, {"time": 107160, "pitch": 37, "duration": 10, "velocity": 106}, {"time": 107160, "pitch": 70, "duration": 10, "velocity": 36}, {"time": 107180, "pitch": 56, "duration": 10, "velocity": 36}, {"time": 107180, "pitch": 68, "duration": 10, "velocity": 64}, {"time": 107180, "pitch": 69, "duration": 10, "velocity": 36}, {"time": 107280, "pitch": 42, "duration": 10, "velocity": 64}, {"time": 107280, "pitch": 56, "duration": 10, "velocity": 22}, {"time": 107280, "pitch": 57, "duration": 10, "velocity": 92}, {"time": 107280, "pitch": 69, "duration": 10, "velocity": 50}, {"time": 107280, "pitch": 70, "duration": 10, "velocity": 78}, {"time": 107400, "pitch": 70, "duration": 10, "velocity": 36}, {"time": 107420, "pitch": 56, "duration": 10, "velocity": 22}, {"time": 107420, "pitch": 68, "duration": 10, "velocity": 92}, {"time": 107420, "pitch": 69, "duration": 10, "velocity": 36}, {"time": 107520, "pitch": 28, "duration": 10, "velocity": 64}, {"time": 107520, "pitch": 37, "duration": 10, "velocity": 106}, {"time": 107520, "pitch": 42, "duration": 10, "velocity": 92}, {"time": 107520, "pitch": 56, "duration": 10, "velocity": 64}, {"time": 107520, "pitch": 69, "duration": 10, "velocity": 64}, {"time": 107520, "pitch": 70, "duration": 10, "velocity": 78}, {"time": 107640, "pitch": 70, "duration": 10, "velocity": 36}, {"time": 107660, "pitch": 56, "duration": 10, "velocity": 22}, {"time": 107660, "pitch": 67, "duration": 10, "velocity": 92}, {"time": 107660, "pitch": 69, "duration": 10, "velocity": 36}, {"time": 107760, "pitch": 42, "duration": 10, "velocity": 64}, {"time": 107760, "pitch": 56, "duration": 10, "velocity": 22}, {"time": 107760, "pitch": 69, "duration": 10, "velocity": 50}, {"time": 107760, "pitch": 70, "duration": 10, "velocity": 78}, {"time": 107880, "pitch": 28, "duration": 10, "velocity": 64}, {"time": 107880, "pitch": 37, "duration": 10, "velocity": 106}, {"time": 107880, "pitch": 70, "duration": 10, "velocity": 36}, {"time": 107900, "pitch": 56, "duration": 10, "velocity": 64}, {"time": 107900, "pitch": 67, "duration": 10, "velocity": 64}, {"time": 107900, "pitch": 69, "duration": 10, "velocity": 36}, {"time": 108000, "pitch": 39, "duration": 10, "velocity": 120}, {"time": 108000, "pitch": 40, "duration": 10, "velocity": 106}, {"time": 108000, "pitch": 42, "duration": 10, "velocity": 92}, {"time": 108000, "pitch": 56, "duration": 10, "velocity": 22}, {"time": 108000, "pitch": 67, "duration": 10, "velocity": 92}, {"time": 108000, "pitch": 69, "duration": 10, "velocity": 64}, {"time": 108000, "pitch": 70, "duration": 10, "velocity": 78}, {"time": 108120, "pitch": 70, "duration": 10, "velocity": 36}, {"time": 108140, "pitch": 56, "duration": 10, "velocity": 22}, {"time": 108140, "pitch": 69, "duration": 10, "velocity": 36}, {"time": 108240, "pitch": 28, "duration": 10, "velocity": 64}, {"time": 108240, "pitch": 37, "duration": 10, "velocity": 106}, {"time": 108240, "pitch": 42, "duration": 10, "velocity": 64}, {"time": 108240, "pitch": 56, "duration": 10, "velocity": 36}, {"time": 108240, "pitch": 68, "duration": 10, "velocity": 78}, {"time": 108240, "pitch": 69, "duration": 10, "velocity": 22}, {"time": 108240, "pitch": 70, "duration": 10, "velocity": 78}, {"time": 108270, "pitch": 69, "duration": 10, "velocity": 36}, {"time": 108300, "pitch": 69, "duration": 10, "velocity": 36}, {"time": 108330, "pitch": 69, "duration": 10, "velocity": 50}, {"time": 108360, "pitch": 56, "duration": 10, "velocity": 22}, {"time": 108360, "pitch": 68, "duration": 10, "velocity": 92}, {"time": 108360, "pitch": 69, "duration": 10, "velocity": 50}, {"time": 108360, "pitch": 70, "duration": 10, "velocity": 36}, {"time": 108390, "pitch": 69, "duration": 10, "velocity": 64}, {"time": 108420, "pitch": 69, "duration": 10, "velocity": 64}, {"time": 108450, "pitch": 69, "duration": 10, "velocity": 64}, {"time": 108480, "pitch": 42, "duration": 10, "velocity": 64}, {"time": 108480, "pitch": 49, "duration": 10, "velocity": 78}, {"time": 108480, "pitch": 68, "duration": 10, "velocity": 92}, {"time": 108480, "pitch": 69, "duration": 10, "velocity": 64}, {"time": 108480, "pitch": 70, "duration": 10, "velocity": 78}, {"time": 108600, "pitch": 70, "duration": 10, "velocity": 36}, {"time": 108620, "pitch": 69, "duration": 10, "velocity": 36}, {"time": 108720, "pitch": 28, "duration": 10, "velocity": 64}, {"time": 108720, "pitch": 37, "duration": 10, "velocity": 106}, {"time": 108720, "pitch": 39, "duration": 10, "velocity": 120}, {"time": 108720, "pitch": 40, "duration": 10, "velocity": 92}, {"time": 108720, "pitch": 42, "duration": 10, "velocity": 92}, {"time": 108720, "pitch": 56, "duration": 10, "velocity": 64}, {"time": 108720, "pitch": 67, "duration": 10, "velocity": 92}, {"time": 108720, "pitch": 69, "duration": 10, "velocity": 50}, {"time": 108720, "pitch": 70, "duration": 10, "velocity": 78}, {"time": 108840, "pitch": 70, "duration": 10, "velocity": 36}, {"time": 108860, "pitch": 56, "duration": 10, "velocity": 36}, {"time": 108860, "pitch": 69, "duration": 10, "velocity": 36}, {"time": 108960, "pitch": 39, "duration": 10, "velocity": 120}, {"time": 108960, "pitch": 40, "duration": 10, "velocity": 106}, {"time": 108960, "pitch": 42, "duration": 10, "velocity": 92}, {"time": 108960, "pitch": 56, "duration": 10, "velocity": 50}, {"time": 108960, "pitch": 67, "duration": 10, "velocity": 92}, {"time": 108960, "pitch": 69, "duration": 10, "velocity": 64}, {"time": 108960, "pitch": 70, "duration": 10, "velocity": 78}, {"time": 109080, "pitch": 28, "duration": 10, "velocity": 64}, {"time": 109080, "pitch": 37, "duration": 10, "velocity": 106}, {"time": 109080, "pitch": 70, "duration": 10, "velocity": 36}, {"time": 109100, "pitch": 56, "duration": 10, "velocity": 36}, {"time": 109100, "pitch": 68, "duration": 10, "velocity": 64}, {"time": 109100, "pitch": 69, "duration": 10, "velocity": 36}, {"time": 109200, "pitch": 42, "duration": 10, "velocity": 64}, {"time": 109200, "pitch": 49, "duration": 10, "velocity": 92}, {"time": 109200, "pitch": 56, "duration": 10, "velocity": 22}, {"time": 109200, "pitch": 69, "duration": 10, "velocity": 50}, {"time": 109200, "pitch": 70, "duration": 10, "velocity": 78}, {"time": 109320, "pitch": 70, "duration": 10, "velocity": 36}, {"time": 109340, "pitch": 56, "duration": 10, "velocity": 22}, {"time": 109340, "pitch": 68, "duration": 10, "velocity": 92}, {"time": 109340, "pitch": 69, "duration": 10, "velocity": 36}, {"time": 109440, "pitch": 28, "duration": 10, "velocity": 64}, {"time": 109440, "pitch": 37, "duration": 10, "velocity": 106}, {"time": 109440, "pitch": 42, "duration": 10, "velocity": 92}, {"time": 109440, "pitch": 56, "duration": 10, "velocity": 64}, {"time": 109440, "pitch": 69, "duration": 10, "velocity": 64}, {"time": 109440, "pitch": 70, "duration": 10, "velocity": 78}, {"time": 109560, "pitch": 70, "duration": 10, "velocity": 36}, {"time": 109580, "pitch": 56, "duration": 10, "velocity": 22}, {"time": 109580, "pitch": 67, "duration": 10, "velocity": 92}, {"time": 109580, "pitch": 69, "duration": 10, "velocity": 36}, {"time": 109680, "pitch": 42, "duration": 10, "velocity": 64}, {"time": 109680, "pitch": 56, "duration": 10, "velocity": 22}, {"time": 109680, "pitch": 69, "duration": 10, "velocity": 50}, {"time": 109680, "pitch": 70, "duration": 10, "velocity": 78}, {"time": 109800, "pitch": 28, "duration": 10, "velocity": 64}, {"time": 109800, "pitch": 37, "duration": 10, "velocity": 106}, {"time": 109800, "pitch": 70, "duration": 10, "velocity": 36}, {"time": 109820, "pitch": 56, "duration": 10, "velocity": 64}, {"time": 109820, "pitch": 67, "duration": 10, "velocity": 64}, {"time": 109820, "pitch": 69, "duration": 10, "velocity": 36}, {"time": 109920, "pitch": 39, "duration": 10, "velocity": 120}, {"time": 109920, "pitch": 40, "duration": 10, "velocity": 106}, {"time": 109920, "pitch": 42, "duration": 10, "velocity": 92}, {"time": 109920, "pitch": 56, "duration": 10, "velocity": 22}, {"time": 109920, "pitch": 67, "duration": 10, "velocity": 92}, {"time": 109920, "pitch": 69, "duration": 10, "velocity": 64}, {"time": 109920, "pitch": 70, "duration": 10, "velocity": 78}, {"time": 110040, "pitch": 70, "duration": 10, "velocity": 36}, {"time": 110060, "pitch": 56, "duration": 10, "velocity": 22}, {"time": 110060, "pitch": 69, "duration": 10, "velocity": 36}, {"time": 110160, "pitch": 28, "duration": 10, "velocity": 64}, {"time": 110160, "pitch": 37, "duration": 10, "velocity": 106}, {"time": 110160, "pitch": 42, "duration": 10, "velocity": 64}, {"time": 110160, "pitch": 56, "duration": 10, "velocity": 36}, {"time": 110160, "pitch": 68, "duration": 10, "velocity": 78}, {"time": 110160, "pitch": 69, "duration": 10, "velocity": 22}, {"time": 110160, "pitch": 70, "duration": 10, "velocity": 78}, {"time": 110190, "pitch": 69, "duration": 10, "velocity": 36}, {"time": 110220, "pitch": 69, "duration": 10, "velocity": 36}, {"time": 110250, "pitch": 69, "duration": 10, "velocity": 50}, {"time": 110280, "pitch": 56, "duration": 10, "velocity": 22}, {"time": 110280, "pitch": 68, "duration": 10, "velocity": 92}, {"time": 110280, "pitch": 69, "duration": 10, "velocity": 50}, {"time": 110280, "pitch": 70, "duration": 10, "velocity": 36}, {"time": 110310, "pitch": 69, "duration": 10, "velocity": 64}, {"time": 110340, "pitch": 69, "duration": 10, "velocity": 64}, {"time": 110370, "pitch": 69, "duration": 10, "velocity": 64}, {"time": 110400, "pitch": 42, "duration": 10, "velocity": 64}, {"time": 110400, "pitch": 49, "duration": 10, "velocity": 92}, {"time": 110400, "pitch": 68, "duration": 10, "velocity": 92}, {"time": 110400, "pitch": 69, "duration": 10, "velocity": 64}, {"time": 110400, "pitch": 70, "duration": 10, "velocity": 78}, {"time": 110520, "pitch": 70, "duration": 10, "velocity": 36}, {"time": 110540, "pitch": 69, "duration": 10, "velocity": 36}, {"time": 110640, "pitch": 28, "duration": 10, "velocity": 64}, {"time": 110640, "pitch": 37, "duration": 10, "velocity": 106}, {"time": 110640, "pitch": 39, "duration": 10, "velocity": 120}, {"time": 110640, "pitch": 40, "duration": 10, "velocity": 92}, {"time": 110640, "pitch": 42, "duration": 10, "velocity": 92}, {"time": 110640, "pitch": 56, "duration": 10, "velocity": 64}, {"time": 110640, "pitch": 67, "duration": 10, "velocity": 92}, {"time": 110640, "pitch": 69, "duration": 10, "velocity": 50}, {"time": 110640, "pitch": 70, "duration": 10, "velocity": 78}, {"time": 110760, "pitch": 70, "duration": 10, "velocity": 36}, {"time": 110780, "pitch": 56, "duration": 10, "velocity": 36}, {"time": 110780, "pitch": 69, "duration": 10, "velocity": 36}, {"time": 110880, "pitch": 39, "duration": 10, "velocity": 120}, {"time": 110880, "pitch": 40, "duration": 10, "velocity": 106}, {"time": 110880, "pitch": 42, "duration": 10, "velocity": 92}, {"time": 110880, "pitch": 56, "duration": 10, "velocity": 50}, {"time": 110880, "pitch": 67, "duration": 10, "velocity": 92}, {"time": 110880, "pitch": 69, "duration": 10, "velocity": 64}, {"time": 110880, "pitch": 70, "duration": 10, "velocity": 78}, {"time": 111000, "pitch": 28, "duration": 10, "velocity": 64}, {"time": 111000, "pitch": 37, "duration": 10, "velocity": 106}, {"time": 111000, "pitch": 70, "duration": 10, "velocity": 36}, {"time": 111020, "pitch": 56, "duration": 10, "velocity": 36}, {"time": 111020, "pitch": 68, "duration": 10, "velocity": 64}, {"time": 111020, "pitch": 69, "duration": 10, "velocity": 36}, {"time": 111120, "pitch": 42, "duration": 10, "velocity": 64}, {"time": 111120, "pitch": 49, "duration": 10, "velocity": 92}, {"time": 111120, "pitch": 56, "duration": 10, "velocity": 22}, {"time": 111120, "pitch": 69, "duration": 10, "velocity": 50}, {"time": 111120, "pitch": 70, "duration": 10, "velocity": 78}, {"time": 111240, "pitch": 70, "duration": 10, "velocity": 36}, {"time": 111260, "pitch": 56, "duration": 10, "velocity": 22}, {"time": 111260, "pitch": 68, "duration": 10, "velocity": 92}, {"time": 111260, "pitch": 69, "duration": 10, "velocity": 36}, {"time": 111360, "pitch": 28, "duration": 10, "velocity": 64}, {"time": 111360, "pitch": 37, "duration": 10, "velocity": 106}, {"time": 111360, "pitch": 42, "duration": 10, "velocity": 92}, {"time": 111360, "pitch": 56, "duration": 10, "velocity": 64}, {"time": 111360, "pitch": 69, "duration": 10, "velocity": 64}, {"time": 111360, "pitch": 70, "duration": 10, "velocity": 78}, {"time": 111480, "pitch": 70, "duration": 10, "velocity": 36}, {"time": 111500, "pitch": 56, "duration": 10, "velocity": 22}, {"time": 111500, "pitch": 67, "duration": 10, "velocity": 92}, {"time": 111500, "pitch": 69, "duration": 10, "velocity": 36}, {"time": 111600, "pitch": 42, "duration": 10, "velocity": 64}, {"time": 111600, "pitch": 56, "duration": 10, "velocity": 22}, {"time": 111600, "pitch": 69, "duration": 10, "velocity": 50}, {"time": 111600, "pitch": 70, "duration": 10, "velocity": 78}, {"time": 111720, "pitch": 28, "duration": 10, "velocity": 64}, {"time": 111720, "pitch": 37, "duration": 10, "velocity": 106}, {"time": 111720, "pitch": 70, "duration": 10, "velocity": 36}, {"time": 111740, "pitch": 56, "duration": 10, "velocity": 64}, {"time": 111740, "pitch": 67, "duration": 10, "velocity": 64}, {"time": 111740, "pitch": 69, "duration": 10, "velocity": 36}, {"time": 111840, "pitch": 39, "duration": 10, "velocity": 120}, {"time": 111840, "pitch": 40, "duration": 10, "velocity": 106}, {"time": 111840, "pitch": 42, "duration": 10, "velocity": 92}, {"time": 111840, "pitch": 56, "duration": 10, "velocity": 22}, {"time": 111840, "pitch": 67, "duration": 10, "velocity": 92}, {"time": 111840, "pitch": 69, "duration": 10, "velocity": 64}, {"time": 111840, "pitch": 70, "duration": 10, "velocity": 78}, {"time": 111960, "pitch": 70, "duration": 10, "velocity": 36}, {"time": 111980, "pitch": 56, "duration": 10, "velocity": 22}, {"time": 111980, "pitch": 69, "duration": 10, "velocity": 36}, {"time": 112080, "pitch": 28, "duration": 10, "velocity": 64}, {"time": 112080, "pitch": 37, "duration": 10, "velocity": 106}, {"time": 112080, "pitch": 42, "duration": 10, "velocity": 64}, {"time": 112080, "pitch": 56, "duration": 10, "velocity": 36}, {"time": 112080, "pitch": 68, "duration": 10, "velocity": 78}, {"time": 112080, "pitch": 69, "duration": 10, "velocity": 22}, {"time": 112080, "pitch": 70, "duration": 10, "velocity": 78}, {"time": 112110, "pitch": 69, "duration": 10, "velocity": 36}, {"time": 112140, "pitch": 69, "duration": 10, "velocity": 36}, {"time": 112170, "pitch": 69, "duration": 10, "velocity": 50}, {"time": 112200, "pitch": 56, "duration": 10, "velocity": 22}, {"time": 112200, "pitch": 68, "duration": 10, "velocity": 92}, {"time": 112200, "pitch": 69, "duration": 10, "velocity": 50}, {"time": 112200, "pitch": 70, "duration": 10, "velocity": 36}, {"time": 112230, "pitch": 69, "duration": 10, "velocity": 64}, {"time": 112260, "pitch": 69, "duration": 10, "velocity": 64}, {"time": 112290, "pitch": 69, "duration": 10, "velocity": 64}, {"time": 112320, "pitch": 38, "duration": 10, "velocity": 50}, {"time": 112320, "pitch": 42, "duration": 10, "velocity": 64}, {"time": 112320, "pitch": 57, "duration": 10, "velocity": 92}, {"time": 112320, "pitch": 68, "duration": 10, "velocity": 92}, {"time": 112320, "pitch": 69, "duration": 10, "velocity": 64}, {"time": 112320, "pitch": 70, "duration": 10, "velocity": 78}, {"time": 112440, "pitch": 38, "duration": 10, "velocity": 22}, {"time": 112440, "pitch": 70, "duration": 10, "velocity": 36}, {"time": 112460, "pitch": 69, "duration": 10, "velocity": 36}, {"time": 112560, "pitch": 28, "duration": 10, "velocity": 64}, {"time": 112560, "pitch": 37, "duration": 10, "velocity": 106}, {"time": 112560, "pitch": 38, "duration": 10, "velocity": 78}, {"time": 112560, "pitch": 42, "duration": 10, "velocity": 92}, {"time": 112560, "pitch": 56, "duration": 10, "velocity": 64}, {"time": 112560, "pitch": 67, "duration": 10, "velocity": 92}, {"time": 112560, "pitch": 69, "duration": 10, "velocity": 50}, {"time": 112560, "pitch": 70, "duration": 10, "velocity": 78}, {"time": 112680, "pitch": 38, "duration": 10, "velocity": 22}, {"time": 112680, "pitch": 70, "duration": 10, "velocity": 36}, {"time": 112700, "pitch": 56, "duration": 10, "velocity": 36}, {"time": 112700, "pitch": 69, "duration": 10, "velocity": 36}, {"time": 112800, "pitch": 28, "duration": 10, "velocity": 64}, {"time": 112800, "pitch": 37, "duration": 10, "velocity": 106}, {"time": 112800, "pitch": 38, "duration": 10, "velocity": 50}, {"time": 112800, "pitch": 39, "duration": 10, "velocity": 120}, {"time": 112800, "pitch": 40, "duration": 10, "velocity": 106}, {"time": 112800, "pitch": 42, "duration": 10, "velocity": 92}, {"time": 112800, "pitch": 49, "duration": 10, "velocity": 92}, {"time": 112800, "pitch": 56, "duration": 10, "velocity": 50}, {"time": 112800, "pitch": 67, "duration": 10, "velocity": 92}, {"time": 112800, "pitch": 69, "duration": 10, "velocity": 64}, {"time": 112800, "pitch": 70, "duration": 10, "velocity": 78}, {"time": 112860, "pitch": 38, "duration": 10, "velocity": 36}, {"time": 112920, "pitch": 38, "duration": 10, "velocity": 36}, {"time": 112920, "pitch": 70, "duration": 10, "velocity": 36}, {"time": 112940, "pitch": 56, "duration": 10, "velocity": 36}, {"time": 112940, "pitch": 68, "duration": 10, "velocity": 64}, {"time": 112940, "pitch": 69, "duration": 10, "velocity": 36}, {"time": 112980, "pitch": 38, "duration": 10, "velocity": 36}, {"time": 113040, "pitch": 38, "duration": 10, "velocity": 22}, {"time": 113040, "pitch": 42, "duration": 10, "velocity": 64}, {"time": 113040, "pitch": 56, "duration": 10, "velocity": 22}, {"time": 113040, "pitch": 69, "duration": 10, "velocity": 50}, {"time": 113040, "pitch": 70, "duration": 10, "velocity": 78}, {"time": 113100, "pitch": 38, "duration": 10, "velocity": 36}, {"time": 113160, "pitch": 38, "duration": 10, "velocity": 22}, {"time": 113160, "pitch": 70, "duration": 10, "velocity": 36}, {"time": 113180, "pitch": 56, "duration": 10, "velocity": 22}, {"time": 113180, "pitch": 68, "duration": 10, "velocity": 92}, {"time": 113180, "pitch": 69, "duration": 10, "velocity": 36}, {"time": 113220, "pitch": 38, "duration": 10, "velocity": 22}, {"time": 113280, "pitch": 28, "duration": 10, "velocity": 64}, {"time": 113280, "pitch": 37, "duration": 10, "velocity": 106}, {"time": 113280, "pitch": 38, "duration": 10, "velocity": 36}, {"time": 113280, "pitch": 42, "duration": 10, "velocity": 92}, {"time": 113280, "pitch": 56, "duration": 10, "velocity": 64}, {"time": 113280, "pitch": 69, "duration": 10, "velocity": 64}, {"time": 113280, "pitch": 70, "duration": 10, "velocity": 78}, {"time": 113400, "pitch": 38, "duration": 10, "velocity": 22}, {"time": 113400, "pitch": 70, "duration": 10, "velocity": 36}, {"time": 113420, "pitch": 56, "duration": 10, "velocity": 22}, {"time": 113420, "pitch": 67, "duration": 10, "velocity": 92}, {"time": 113420, "pitch": 69, "duration": 10, "velocity": 36}, {"time": 113420, "pitch": 72, "duration": 220, "velocity": 80}, {"time": 113520, "pitch": 38, "duration": 10, "velocity": 78}, {"time": 113520, "pitch": 42, "duration": 10, "velocity": 64}, {"time": 113520, "pitch": 56, "duration": 10, "velocity": 22}, {"time": 113520, "pitch": 69, "duration": 10, "velocity": 50}, {"time": 113520, "pitch": 70, "duration": 10, "velocity": 78}, {"time": 113640, "pitch": 28, "duration": 10, "velocity": 64}, {"time": 113640, "pitch": 37, "duration": 10, "velocity": 106}, {"time": 113640, "pitch": 38, "duration": 10, "velocity": 36}, {"time": 113640, "pitch": 70, "duration": 10, "velocity": 36}, {"time": 113660, "pitch": 56, "duration": 10, "velocity": 64}, {"time": 113660, "pitch": 67, "duration": 10, "velocity": 64}, {"time": 113660, "pitch": 69, "duration": 10, "velocity": 36}, {"time": 113660, "pitch": 72, "duration": 90, "velocity": 80}, {"time": 113760, "pitch": 38, "duration": 10, "velocity": 50}, {"time": 113760, "pitch": 39, "duration": 10, "velocity": 120}, {"time": 113760, "pitch": 40, "duration": 10, "velocity": 106}, {"time": 113760, "pitch": 42, "duration": 10, "velocity": 92}, {"time": 113760, "pitch": 56, "duration": 10, "velocity": 22}, {"time": 113760, "pitch": 67, "duration": 10, "velocity": 92}, {"time": 113760, "pitch": 69, "duration": 10, "velocity": 64}, {"time": 113760, "pitch": 70, "duration": 10, "velocity": 78}, {"time": 113760, "pitch": 72, "duration": 300, "velocity": 80}, {"time": 113820, "pitch": 38, "duration": 10, "velocity": 36}, {"time": 113880, "pitch": 38, "duration": 10, "velocity": 36}, {"time": 113880, "pitch": 70, "duration": 10, "velocity": 36}, {"time": 113900, "pitch": 56, "duration": 10, "velocity": 22}, {"time": 113900, "pitch": 69, "duration": 10, "velocity": 36}, {"time": 113940, "pitch": 38, "duration": 10, "velocity": 36}, {"time": 114000, "pitch": 28, "duration": 10, "velocity": 64}, {"time": 114000, "pitch": 37, "duration": 10, "velocity": 106}, {"time": 114000, "pitch": 38, "duration": 10, "velocity": 22}, {"time": 114000, "pitch": 42, "duration": 10, "velocity": 64}, {"time": 114000, "pitch": 56, "duration": 10, "velocity": 36}, {"time": 114000, "pitch": 68, "duration": 10, "velocity": 78}, {"time": 114000, "pitch": 69, "duration": 10, "velocity": 22}, {"time": 114000, "pitch": 70, "duration": 10, "velocity": 78}, {"time": 114030, "pitch": 69, "duration": 10, "velocity": 36}, {"time": 114060, "pitch": 38, "duration": 10, "velocity": 36}, {"time": 114060, "pitch": 69, "duration": 10, "velocity": 36}, {"time": 114090, "pitch": 69, "duration": 10, "velocity": 50}, {"time": 114120, "pitch": 38, "duration": 10, "velocity": 22}, {"time": 114120, "pitch": 56, "duration": 10, "velocity": 22}, {"time": 114120, "pitch": 68, "duration": 10, "velocity": 92}, {"time": 114120, "pitch": 69, "duration": 10, "velocity": 50}, {"time": 114120, "pitch": 70, "duration": 10, "velocity": 36}, {"time": 114150, "pitch": 69, "duration": 10, "velocity": 64}, {"time": 114180, "pitch": 38, "duration": 10, "velocity": 22}, {"time": 114180, "pitch": 69, "duration": 10, "velocity": 64}, {"time": 114210, "pitch": 69, "duration": 10, "velocity": 64}, {"time": 114240, "pitch": 42, "duration": 10, "velocity": 64}, {"time": 114240, "pitch": 68, "duration": 10, "velocity": 92}, {"time": 114240, "pitch": 69, "duration": 10, "velocity": 64}, {"time": 114240, "pitch": 70, "duration": 10, "velocity": 78}, {"time": 114380, "pitch": 38, "duration": 10, "velocity": 36}, {"time": 114380, "pitch": 40, "duration": 10, "velocity": 64}, {"time": 114380, "pitch": 69, "duration": 10, "velocity": 36}, {"time": 114380, "pitch": 70, "duration": 10, "velocity": 36}, {"time": 114380, "pitch": 78, "duration": 10, "velocity": 50}, {"time": 114480, "pitch": 28, "duration": 10, "velocity": 64}, {"time": 114480, "pitch": 37, "duration": 10, "velocity": 106}, {"time": 114480, "pitch": 42, "duration": 10, "velocity": 92}, {"time": 114480, "pitch": 56, "duration": 10, "velocity": 64}, {"time": 114480, "pitch": 67, "duration": 10, "velocity": 92}, {"time": 114480, "pitch": 69, "duration": 10, "velocity": 50}, {"time": 114480, "pitch": 70, "duration": 10, "velocity": 78}, {"time": 114620, "pitch": 38, "duration": 10, "velocity": 64}, {"time": 114620, "pitch": 40, "duration": 10, "velocity": 78}, {"time": 114620, "pitch": 56, "duration": 10, "velocity": 36}, {"time": 114620, "pitch": 69, "duration": 10, "velocity": 36}, {"time": 114620, "pitch": 70, "duration": 10, "velocity": 36}, {"time": 114620, "pitch": 78, "duration": 10, "velocity": 50}, {"time": 114720, "pitch": 39, "duration": 10, "velocity": 120}, {"time": 114720, "pitch": 42, "duration": 10, "velocity": 92}, {"time": 114720, "pitch": 56, "duration": 10, "velocity": 50}, {"time": 114720, "pitch": 67, "duration": 10, "velocity": 92}, {"time": 114720, "pitch": 69, "duration": 10, "velocity": 64}, {"time": 114720, "pitch": 70, "duration": 10, "velocity": 78}, {"time": 114860, "pitch": 28, "duration": 10, "velocity": 64}, {"time": 114860, "pitch": 37, "duration": 10, "velocity": 106}, {"time": 114860, "pitch": 38, "duration": 10, "velocity": 78}, {"time": 114860, "pitch": 40, "duration": 10, "velocity": 106}, {"time": 114860, "pitch": 56, "duration": 10, "velocity": 36}, {"time": 114860, "pitch": 68, "duration": 10, "velocity": 64}, {"time": 114860, "pitch": 69, "duration": 10, "velocity": 36}, {"time": 114860, "pitch": 70, "duration": 10, "velocity": 36}, {"time": 114860, "pitch": 78, "duration": 10, "velocity": 50}, {"time": 114960, "pitch": 42, "duration": 10, "velocity": 64}, {"time": 114960, "pitch": 56, "duration": 10, "velocity": 22}, {"time": 114960, "pitch": 69, "duration": 10, "velocity": 50}, {"time": 114960, "pitch": 70, "duration": 10, "velocity": 78}, {"time": 115100, "pitch": 38, "duration": 10, "velocity": 64}, {"time": 115100, "pitch": 40, "duration": 10, "velocity": 64}, {"time": 115100, "pitch": 56, "duration": 10, "velocity": 22}, {"time": 115100, "pitch": 68, "duration": 10, "velocity": 92}, {"time": 115100, "pitch": 69, "duration": 10, "velocity": 36}, {"time": 115100, "pitch": 70, "duration": 10, "velocity": 36}, {"time": 115100, "pitch": 78, "duration": 10, "velocity": 50}, {"time": 115200, "pitch": 28, "duration": 10, "velocity": 64}, {"time": 115200, "pitch": 37, "duration": 10, "velocity": 106}, {"time": 115200, "pitch": 38, "duration": 10, "velocity": 64}, {"time": 115200, "pitch": 40, "duration": 10, "velocity": 106}, {"time": 115200, "pitch": 42, "duration": 10, "velocity": 92}, {"time": 115200, "pitch": 56, "duration": 10, "velocity": 64}, {"time": 115200, "pitch": 69, "duration": 10, "velocity": 64}, {"time": 115200, "pitch": 70, "duration": 10, "velocity": 78}, {"time": 115200, "pitch": 78, "duration": 10, "velocity": 50}, {"time": 115340, "pitch": 38, "duration": 10, "velocity": 78}, {"time": 115340, "pitch": 40, "duration": 10, "velocity": 120}, {"time": 115340, "pitch": 56, "duration": 10, "velocity": 22}, {"time": 115340, "pitch": 67, "duration": 10, "velocity": 92}, {"time": 115340, "pitch": 69, "duration": 10, "velocity": 36}, {"time": 115340, "pitch": 70, "duration": 10, "velocity": 36}, {"time": 115340, "pitch": 78, "duration": 10, "velocity": 50}, {"time": 115440, "pitch": 42, "duration": 10, "velocity": 64}, {"time": 115440, "pitch": 56, "duration": 10, "velocity": 22}, {"time": 115440, "pitch": 69, "duration": 10, "velocity": 50}, {"time": 115440, "pitch": 70, "duration": 10, "velocity": 78}, {"time": 115570, "pitch": 28, "duration": 10, "velocity": 64}, {"time": 115570, "pitch": 37, "duration": 10, "velocity": 106}, {"time": 115570, "pitch": 38, "duration": 10, "velocity": 64}, {"time": 115570, "pitch": 40, "duration": 10, "velocity": 106}, {"time": 115570, "pitch": 70, "duration": 10, "velocity": 36}, {"time": 115580, "pitch": 56, "duration": 10, "velocity": 64}, {"time": 115580, "pitch": 67, "duration": 10, "velocity": 64}, {"time": 115580, "pitch": 69, "duration": 10, "velocity": 36}, {"time": 115580, "pitch": 78, "duration": 10, "velocity": 50}, {"time": 115680, "pitch": 38, "duration": 10, "velocity": 78}, {"time": 115680, "pitch": 39, "duration": 10, "velocity": 120}, {"time": 115680, "pitch": 40, "duration": 10, "velocity": 120}, {"time": 115680, "pitch": 42, "duration": 10, "velocity": 92}, {"time": 115680, "pitch": 56, "duration": 10, "velocity": 22}, {"time": 115680, "pitch": 67, "duration": 10, "velocity": 92}, {"time": 115680, "pitch": 69, "duration": 10, "velocity": 64}, {"time": 115680, "pitch": 70, "duration": 10, "velocity": 78}, {"time": 115680, "pitch": 78, "duration": 10, "velocity": 50}, {"time": 115820, "pitch": 56, "duration": 10, "velocity": 22}, {"time": 115820, "pitch": 69, "duration": 10, "velocity": 36}, {"time": 115820, "pitch": 70, "duration": 10, "velocity": 36}, {"time": 115920, "pitch": 28, "duration": 10, "velocity": 64}, {"time": 115920, "pitch": 37, "duration": 10, "velocity": 106}, {"time": 115920, "pitch": 42, "duration": 10, "velocity": 64}, {"time": 115920, "pitch": 56, "duration": 10, "velocity": 36}, {"time": 115920, "pitch": 68, "duration": 10, "velocity": 78}, {"time": 115920, "pitch": 69, "duration": 10, "velocity": 22}, {"time": 115920, "pitch": 70, "duration": 10, "velocity": 78}, {"time": 115950, "pitch": 69, "duration": 10, "velocity": 36}, {"time": 115980, "pitch": 69, "duration": 10, "velocity": 36}, {"time": 116010, "pitch": 69, "duration": 10, "velocity": 50}, {"time": 116040, "pitch": 56, "duration": 10, "velocity": 22}, {"time": 116040, "pitch": 68, "duration": 10, "velocity": 92}, {"time": 116040, "pitch": 69, "duration": 10, "velocity": 50}, {"time": 116060, "pitch": 70, "duration": 10, "velocity": 36}, {"time": 116070, "pitch": 69, "duration": 10, "velocity": 64}, {"time": 116100, "pitch": 69, "duration": 10, "velocity": 64}, {"time": 116130, "pitch": 69, "duration": 10, "velocity": 64}, {"time": 116160, "pitch": 42, "duration": 10, "velocity": 64}, {"time": 116160, "pitch": 57, "duration": 10, "velocity": 92}, {"time": 116160, "pitch": 68, "duration": 10, "velocity": 92}, {"time": 116160, "pitch": 69, "duration": 10, "velocity": 64}, {"time": 116300, "pitch": 69, "duration": 10, "velocity": 36}, {"time": 116400, "pitch": 28, "duration": 10, "velocity": 64}, {"time": 116400, "pitch": 37, "duration": 10, "velocity": 106}, {"time": 116400, "pitch": 42, "duration": 10, "velocity": 92}, {"time": 116400, "pitch": 56, "duration": 10, "velocity": 64}, {"time": 116400, "pitch": 67, "duration": 10, "velocity": 92}, {"time": 116400, "pitch": 69, "duration": 10, "velocity": 50}, {"time": 116540, "pitch": 56, "duration": 10, "velocity": 36}, {"time": 116540, "pitch": 69, "duration": 10, "velocity": 36}, {"time": 116640, "pitch": 28, "duration": 10, "velocity": 64}, {"time": 116640, "pitch": 37, "duration": 10, "velocity": 106}, {"time": 116640, "pitch": 42, "duration": 10, "velocity": 92}, {"time": 116640, "pitch": 56, "duration": 10, "velocity": 50}, {"time": 116640, "pitch": 67, "duration": 10, "velocity": 92}, {"time": 116640, "pitch": 69, "duration": 10, "velocity": 64}, {"time": 116780, "pitch": 56, "duration": 10, "velocity": 36}, {"time": 116780, "pitch": 68, "duration": 10, "velocity": 64}, {"time": 116780, "pitch": 69, "duration": 10, "velocity": 36}, {"time": 116880, "pitch": 42, "duration": 10, "velocity": 64}, {"time": 116880, "pitch": 56, "duration": 10, "velocity": 22}, {"time": 116880, "pitch": 69, "duration": 10, "velocity": 50}, {"time": 117020, "pitch": 56, "duration": 10, "velocity": 22}, {"time": 117020, "pitch": 68, "duration": 10, "velocity": 92}, {"time": 117020, "pitch": 69, "duration": 10, "velocity": 36}, {"time": 117120, "pitch": 28, "duration": 10, "velocity": 64}, {"time": 117120, "pitch": 37, "duration": 10, "velocity": 106}, {"time": 117120, "pitch": 42, "duration": 10, "velocity": 92}, {"time": 117120, "pitch": 56, "duration": 10, "velocity": 64}, {"time": 117120, "pitch": 69, "duration": 10, "velocity": 64}, {"time": 117260, "pitch": 56, "duration": 10, "velocity": 22}, {"time": 117260, "pitch": 67, "duration": 10, "velocity": 92}, {"time": 117260, "pitch": 69, "duration": 10, "velocity": 36}, {"time": 117360, "pitch": 42, "duration": 10, "velocity": 64}, {"time": 117360, "pitch": 56, "duration": 10, "velocity": 22}, {"time": 117360, "pitch": 69, "duration": 10, "velocity": 50}, {"time": 117480, "pitch": 28, "duration": 10, "velocity": 64}, {"time": 117480, "pitch": 37, "duration": 10, "velocity": 106}, {"time": 117500, "pitch": 56, "duration": 10, "velocity": 64}, {"time": 117500, "pitch": 67, "duration": 10, "velocity": 64}, {"time": 117500, "pitch": 69, "duration": 10, "velocity": 36}, {"time": 117600, "pitch": 42, "duration": 10, "velocity": 92}, {"time": 117600, "pitch": 56, "duration": 10, "velocity": 22}, {"time": 117600, "pitch": 67, "duration": 10, "velocity": 92}, {"time": 117600, "pitch": 69, "duration": 10, "velocity": 64}, {"time": 117740, "pitch": 56, "duration": 10, "velocity": 22}, {"time": 117740, "pitch": 69, "duration": 10, "velocity": 36}, {"time": 117840, "pitch": 28, "duration": 10, "velocity": 64}, {"time": 117840, "pitch": 37, "duration": 10, "velocity": 106}, {"time": 117840, "pitch": 42, "duration": 10, "velocity": 64}, {"time": 117840, "pitch": 56, "duration": 10, "velocity": 36}, {"time": 117840, "pitch": 68, "duration": 10, "velocity": 78}, {"time": 117840, "pitch": 69, "duration": 10, "velocity": 50}, {"time": 117980, "pitch": 56, "duration": 10, "velocity": 22}, {"time": 117980, "pitch": 68, "duration": 10, "velocity": 92}, {"time": 117980, "pitch": 69, "duration": 10, "velocity": 36}, {"time": 118080, "pitch": 42, "duration": 10, "velocity": 64}, {"time": 118080, "pitch": 68, "duration": 10, "velocity": 92}, {"time": 118080, "pitch": 69, "duration": 10, "velocity": 64}, {"time": 118220, "pitch": 69, "duration": 10, "velocity": 36}, {"time": 118320, "pitch": 28, "duration": 10, "velocity": 64}, {"time": 118320, "pitch": 37, "duration": 10, "velocity": 106}, {"time": 118320, "pitch": 42, "duration": 10, "velocity": 92}, {"time": 118320, "pitch": 56, "duration": 10, "velocity": 64}, {"time": 118320, "pitch": 67, "duration": 10, "velocity": 92}, {"time": 118320, "pitch": 69, "duration": 10, "velocity": 50}, {"time": 118460, "pitch": 56, "duration": 10, "velocity": 36}, {"time": 118460, "pitch": 69, "duration": 10, "velocity": 36}, {"time": 118560, "pitch": 42, "duration": 10, "velocity": 92}, {"time": 118560, "pitch": 56, "duration": 10, "velocity": 50}, {"time": 118560, "pitch": 67, "duration": 10, "velocity": 92}, {"time": 118560, "pitch": 69, "duration": 10, "velocity": 64}, {"time": 118680, "pitch": 28, "duration": 10, "velocity": 64}, {"time": 118680, "pitch": 37, "duration": 10, "velocity": 106}, {"time": 118700, "pitch": 56, "duration": 10, "velocity": 36}, {"time": 118700, "pitch": 68, "duration": 10, "velocity": 64}, {"time": 118700, "pitch": 69, "duration": 10, "velocity": 36}, {"time": 118800, "pitch": 42, "duration": 10, "velocity": 64}, {"time": 118800, "pitch": 56, "duration": 10, "velocity": 22}, {"time": 118800, "pitch": 69, "duration": 10, "velocity": 50}, {"time": 118940, "pitch": 56, "duration": 10, "velocity": 22}, {"time": 118940, "pitch": 68, "duration": 10, "velocity": 92}, {"time": 118940, "pitch": 69, "duration": 10, "velocity": 36}, {"time": 119040, "pitch": 28, "duration": 10, "velocity": 64}, {"time": 119040, "pitch": 37, "duration": 10, "velocity": 106}, {"time": 119040, "pitch": 42, "duration": 10, "velocity": 92}, {"time": 119040, "pitch": 56, "duration": 10, "velocity": 64}, {"time": 119040, "pitch": 69, "duration": 10, "velocity": 64}, {"time": 119180, "pitch": 56, "duration": 10, "velocity": 22}, {"time": 119180, "pitch": 67, "duration": 10, "velocity": 92}, {"time": 119180, "pitch": 69, "duration": 10, "velocity": 36}, {"time": 119280, "pitch": 42, "duration": 10, "velocity": 64}, {"time": 119280, "pitch": 56, "duration": 10, "velocity": 22}, {"time": 119280, "pitch": 69, "duration": 10, "velocity": 50}, {"time": 119400, "pitch": 28, "duration": 10, "velocity": 64}, {"time": 119400, "pitch": 37, "duration": 10, "velocity": 106}, {"time": 119420, "pitch": 56, "duration": 10, "velocity": 64}, {"time": 119420, "pitch": 67, "duration": 10, "velocity": 64}, {"time": 119420, "pitch": 69, "duration": 10, "velocity": 36}, {"time": 119520, "pitch": 42, "duration": 10, "velocity": 92}, {"time": 119520, "pitch": 56, "duration": 10, "velocity": 22}, {"time": 119520, "pitch": 67, "duration": 10, "velocity": 92}, {"time": 119520, "pitch": 69, "duration": 10, "velocity": 64}, {"time": 119660, "pitch": 56, "duration": 10, "velocity": 22}, {"time": 119660, "pitch": 69, "duration": 10, "velocity": 36}, {"time": 119760, "pitch": 28, "duration": 10, "velocity": 64}, {"time": 119760, "pitch": 37, "duration": 10, "velocity": 106}, {"time": 119760, "pitch": 42, "duration": 10, "velocity": 64}, {"time": 119760, "pitch": 56, "duration": 10, "velocity": 36}, {"time": 119760, "pitch": 68, "duration": 10, "velocity": 78}, {"time": 119760, "pitch": 69, "duration": 10, "velocity": 22}, {"time": 119790, "pitch": 69, "duration": 10, "velocity": 36}, {"time": 119820, "pitch": 69, "duration": 10, "velocity": 36}, {"time": 119850, "pitch": 69, "duration": 10, "velocity": 50}, {"time": 119880, "pitch": 56, "duration": 10, "velocity": 22}, {"time": 119880, "pitch": 68, "duration": 10, "velocity": 92}, {"time": 119880, "pitch": 69, "duration": 10, "velocity": 50}, {"time": 119910, "pitch": 69, "duration": 10, "velocity": 64}, {"time": 119940, "pitch": 69, "duration": 10, "velocity": 64}, {"time": 119970, "pitch": 69, "duration": 10, "velocity": 64}, {"time": 120000, "pitch": 42, "duration": 10, "velocity": 64}, {"time": 120000, "pitch": 68, "duration": 10, "velocity": 92}, {"time": 120000, "pitch": 69, "duration": 10, "velocity": 64}, {"time": 120140, "pitch": 69, "duration": 10, "velocity": 36}, {"time": 120240, "pitch": 28, "duration": 10, "velocity": 64}, {"time": 120240, "pitch": 37, "duration": 10, "velocity": 106}, {"time": 120240, "pitch": 42, "duration": 10, "velocity": 92}, {"time": 120240, "pitch": 56, "duration": 10, "velocity": 64}, {"time": 120240, "pitch": 67, "duration": 10, "velocity": 92}, {"time": 120240, "pitch": 69, "duration": 10, "velocity": 50}, {"time": 120380, "pitch": 56, "duration": 10, "velocity": 36}, {"time": 120380, "pitch": 69, "duration": 10, "velocity": 36}, {"time": 120480, "pitch": 28, "duration": 10, "velocity": 64}, {"time": 120480, "pitch": 37, "duration": 10, "velocity": 106}, {"time": 120480, "pitch": 42, "duration": 10, "velocity": 92}, {"time": 120480, "pitch": 56, "duration": 10, "velocity": 50}, {"time": 120480, "pitch": 67, "duration": 10, "velocity": 92}, {"time": 120480, "pitch": 69, "duration": 10, "velocity": 64}, {"time": 120620, "pitch": 56, "duration": 10, "velocity": 36}, {"time": 120620, "pitch": 68, "duration": 10, "velocity": 64}, {"time": 120620, "pitch": 69, "duration": 10, "velocity": 36}, {"time": 120720, "pitch": 42, "duration": 10, "velocity": 64}, {"time": 120720, "pitch": 56, "duration": 10, "velocity": 22}, {"time": 120720, "pitch": 69, "duration": 10, "velocity": 50}, {"time": 120860, "pitch": 56, "duration": 10, "velocity": 22}, {"time": 120860, "pitch": 68, "duration": 10, "velocity": 92}, {"time": 120860, "pitch": 69, "duration": 10, "velocity": 36}, {"time": 120960, "pitch": 28, "duration": 10, "velocity": 64}, {"time": 120960, "pitch": 37, "duration": 10, "velocity": 106}, {"time": 120960, "pitch": 42, "duration": 10, "velocity": 92}, {"time": 120960, "pitch": 56, "duration": 10, "velocity": 64}, {"time": 120960, "pitch": 69, "duration": 10, "velocity": 64}, {"time": 121100, "pitch": 56, "duration": 10, "velocity": 22}, {"time": 121100, "pitch": 67, "duration": 10, "velocity": 92}, {"time": 121100, "pitch": 69, "duration": 10, "velocity": 36}, {"time": 121200, "pitch": 42, "duration": 10, "velocity": 64}, {"time": 121200, "pitch": 56, "duration": 10, "velocity": 22}, {"time": 121200, "pitch": 69, "duration": 10, "velocity": 50}, {"time": 121320, "pitch": 28, "duration": 10, "velocity": 64}, {"time": 121320, "pitch": 37, "duration": 10, "velocity": 106}, {"time": 121340, "pitch": 56, "duration": 10, "velocity": 64}, {"time": 121340, "pitch": 67, "duration": 10, "velocity": 64}, {"time": 121340, "pitch": 69, "duration": 10, "velocity": 36}, {"time": 121440, "pitch": 42, "duration": 10, "velocity": 92}, {"time": 121440, "pitch": 56, "duration": 10, "velocity": 22}, {"time": 121440, "pitch": 67, "duration": 10, "velocity": 92}, {"time": 121440, "pitch": 69, "duration": 10, "velocity": 64}, {"time": 121580, "pitch": 56, "duration": 10, "velocity": 22}, {"time": 121580, "pitch": 69, "duration": 10, "velocity": 36}, {"time": 121680, "pitch": 28, "duration": 10, "velocity": 64}, {"time": 121680, "pitch": 37, "duration": 10, "velocity": 106}, {"time": 121680, "pitch": 42, "duration": 10, "velocity": 64}, {"time": 121680, "pitch": 56, "duration": 10, "velocity": 36}, {"time": 121680, "pitch": 68, "duration": 10, "velocity": 78}, {"time": 121680, "pitch": 69, "duration": 10, "velocity": 50}, {"time": 121820, "pitch": 56, "duration": 10, "velocity": 22}, {"time": 121820, "pitch": 68, "duration": 10, "velocity": 92}, {"time": 121820, "pitch": 69, "duration": 10, "velocity": 36}, {"time": 121920, "pitch": 42, "duration": 10, "velocity": 64}, {"time": 121920, "pitch": 68, "duration": 10, "velocity": 92}, {"time": 121920, "pitch": 69, "duration": 10, "velocity": 64}, {"time": 122060, "pitch": 69, "duration": 10, "velocity": 36}, {"time": 122160, "pitch": 28, "duration": 10, "velocity": 64}, {"time": 122160, "pitch": 37, "duration": 10, "velocity": 106}, {"time": 122160, "pitch": 42, "duration": 10, "velocity": 92}, {"time": 122160, "pitch": 56, "duration": 10, "velocity": 64}, {"time": 122160, "pitch": 67, "duration": 10, "velocity": 92}, {"time": 122160, "pitch": 69, "duration": 10, "velocity": 50}, {"time": 122300, "pitch": 56, "duration": 10, "velocity": 36}, {"time": 122300, "pitch": 69, "duration": 10, "velocity": 36}, {"time": 122400, "pitch": 42, "duration": 10, "velocity": 92}, {"time": 122400, "pitch": 56, "duration": 10, "velocity": 50}, {"time": 122400, "pitch": 67, "duration": 10, "velocity": 92}, {"time": 122400, "pitch": 69, "duration": 10, "velocity": 64}, {"time": 122520, "pitch": 28, "duration": 10, "velocity": 64}, {"time": 122520, "pitch": 37, "duration": 10, "velocity": 106}, {"time": 122540, "pitch": 56, "duration": 10, "velocity": 36}, {"time": 122540, "pitch": 68, "duration": 10, "velocity": 64}, {"time": 122540, "pitch": 69, "duration": 10, "velocity": 36}, {"time": 122640, "pitch": 42, "duration": 10, "velocity": 64}, {"time": 122640, "pitch": 56, "duration": 10, "velocity": 22}, {"time": 122640, "pitch": 69, "duration": 10, "velocity": 50}, {"time": 122780, "pitch": 56, "duration": 10, "velocity": 22}, {"time": 122780, "pitch": 68, "duration": 10, "velocity": 92}, {"time": 122780, "pitch": 69, "duration": 10, "velocity": 36}, {"time": 122880, "pitch": 28, "duration": 10, "velocity": 64}, {"time": 122880, "pitch": 37, "duration": 10, "velocity": 106}, {"time": 122880, "pitch": 42, "duration": 10, "velocity": 92}, {"time": 122880, "pitch": 56, "duration": 10, "velocity": 64}, {"time": 122880, "pitch": 69, "duration": 10, "velocity": 64}, {"time": 123020, "pitch": 56, "duration": 10, "velocity": 22}, {"time": 123020, "pitch": 67, "duration": 10, "velocity": 92}, {"time": 123020, "pitch": 69, "duration": 10, "velocity": 36}, {"time": 123120, "pitch": 42, "duration": 10, "velocity": 64}, {"time": 123120, "pitch": 56, "duration": 10, "velocity": 22}, {"time": 123120, "pitch": 69, "duration": 10, "velocity": 50}, {"time": 123240, "pitch": 28, "duration": 10, "velocity": 64}, {"time": 123240, "pitch": 37, "duration": 10, "velocity": 106}, {"time": 123260, "pitch": 56, "duration": 10, "velocity": 64}, {"time": 123260, "pitch": 67, "duration": 10, "velocity": 64}, {"time": 123260, "pitch": 69, "duration": 10, "velocity": 36}, {"time": 123360, "pitch": 42, "duration": 10, "velocity": 92}, {"time": 123360, "pitch": 56, "duration": 10, "velocity": 22}, {"time": 123360, "pitch": 67, "duration": 10, "velocity": 92}, {"time": 123360, "pitch": 69, "duration": 10, "velocity": 64}, {"time": 123500, "pitch": 56, "duration": 10, "velocity": 22}, {"time": 123500, "pitch": 69, "duration": 10, "velocity": 36}, {"time": 123600, "pitch": 28, "duration": 10, "velocity": 64}, {"time": 123600, "pitch": 37, "duration": 10, "velocity": 106}, {"time": 123600, "pitch": 42, "duration": 10, "velocity": 64}, {"time": 123600, "pitch": 56, "duration": 10, "velocity": 36}, {"time": 123600, "pitch": 68, "duration": 10, "velocity": 78}, {"time": 123600, "pitch": 69, "duration": 10, "velocity": 22}, {"time": 123630, "pitch": 69, "duration": 10, "velocity": 36}, {"time": 123660, "pitch": 69, "duration": 10, "velocity": 36}, {"time": 123690, "pitch": 69, "duration": 10, "velocity": 50}, {"time": 123720, "pitch": 56, "duration": 10, "velocity": 22}, {"time": 123720, "pitch": 68, "duration": 10, "velocity": 92}, {"time": 123720, "pitch": 69, "duration": 10, "velocity": 50}, {"time": 123750, "pitch": 69, "duration": 10, "velocity": 64}, {"time": 123780, "pitch": 69, "duration": 10, "velocity": 64}, {"time": 123810, "pitch": 69, "duration": 10, "velocity": 64}, {"time": 123840, "pitch": 42, "duration": 10, "velocity": 64}, {"time": 123840, "pitch": 68, "duration": 10, "velocity": 92}, {"time": 123840, "pitch": 69, "duration": 10, "velocity": 64}, {"time": 123840, "pitch": 70, "duration": 10, "velocity": 78}, {"time": 123960, "pitch": 70, "duration": 10, "velocity": 36}, {"time": 123980, "pitch": 69, "duration": 10, "velocity": 36}, {"time": 124080, "pitch": 28, "duration": 10, "velocity": 64}, {"time": 124080, "pitch": 37, "duration": 10, "velocity": 106}, {"time": 124080, "pitch": 42, "duration": 10, "velocity": 92}, {"time": 124080, "pitch": 56, "duration": 10, "velocity": 64}, {"time": 124080, "pitch": 67, "duration": 10, "velocity": 92}, {"time": 124080, "pitch": 69, "duration": 10, "velocity": 50}, {"time": 124080, "pitch": 70, "duration": 10, "velocity": 78}, {"time": 124200, "pitch": 70, "duration": 10, "velocity": 36}, {"time": 124220, "pitch": 56, "duration": 10, "velocity": 36}, {"time": 124220, "pitch": 69, "duration": 10, "velocity": 36}, {"time": 124320, "pitch": 28, "duration": 10, "velocity": 64}, {"time": 124320, "pitch": 37, "duration": 10, "velocity": 106}, {"time": 124320, "pitch": 42, "duration": 10, "velocity": 92}, {"time": 124320, "pitch": 56, "duration": 10, "velocity": 50}, {"time": 124320, "pitch": 67, "duration": 10, "velocity": 92}, {"time": 124320, "pitch": 69, "duration": 10, "velocity": 64}, {"time": 124320, "pitch": 70, "duration": 10, "velocity": 78}, {"time": 124440, "pitch": 70, "duration": 10, "velocity": 36}, {"time": 124460, "pitch": 56, "duration": 10, "velocity": 36}, {"time": 124460, "pitch": 68, "duration": 10, "velocity": 64}, {"time": 124460, "pitch": 69, "duration": 10, "velocity": 36}, {"time": 124560, "pitch": 42, "duration": 10, "velocity": 64}, {"time": 124560, "pitch": 56, "duration": 10, "velocity": 22}, {"time": 124560, "pitch": 69, "duration": 10, "velocity": 50}, {"time": 124560, "pitch": 70, "duration": 10, "velocity": 78}, {"time": 124680, "pitch": 70, "duration": 10, "velocity": 36}, {"time": 124700, "pitch": 56, "duration": 10, "velocity": 22}, {"time": 124700, "pitch": 68, "duration": 10, "velocity": 92}, {"time": 124700, "pitch": 69, "duration": 10, "velocity": 36}, {"time": 124800, "pitch": 28, "duration": 10, "velocity": 64}, {"time": 124800, "pitch": 37, "duration": 10, "velocity": 106}, {"time": 124800, "pitch": 42, "duration": 10, "velocity": 92}, {"time": 124800, "pitch": 56, "duration": 10, "velocity": 64}, {"time": 124800, "pitch": 69, "duration": 10, "velocity": 64}, {"time": 124800, "pitch": 70, "duration": 10, "velocity": 78}, {"time": 124920, "pitch": 70, "duration": 10, "velocity": 36}, {"time": 124940, "pitch": 56, "duration": 10, "velocity": 22}, {"time": 124940, "pitch": 67, "duration": 10, "velocity": 92}, {"time": 124940, "pitch": 69, "duration": 10, "velocity": 36}, {"time": 125040, "pitch": 42, "duration": 10, "velocity": 64}, {"time": 125040, "pitch": 56, "duration": 10, "velocity": 22}, {"time": 125040, "pitch": 69, "duration": 10, "velocity": 50}, {"time": 125040, "pitch": 70, "duration": 10, "velocity": 78}, {"time": 125160, "pitch": 28, "duration": 10, "velocity": 64}, {"time": 125160, "pitch": 37, "duration": 10, "velocity": 106}, {"time": 125160, "pitch": 70, "duration": 10, "velocity": 36}, {"time": 125180, "pitch": 56, "duration": 10, "velocity": 64}, {"time": 125180, "pitch": 67, "duration": 10, "velocity": 64}, {"time": 125180, "pitch": 69, "duration": 10, "velocity": 36}, {"time": 125280, "pitch": 42, "duration": 10, "velocity": 92}, {"time": 125280, "pitch": 56, "duration": 10, "velocity": 22}, {"time": 125280, "pitch": 67, "duration": 10, "velocity": 92}, {"time": 125280, "pitch": 69, "duration": 10, "velocity": 64}, {"time": 125280, "pitch": 70, "duration": 10, "velocity": 78}, {"time": 125400, "pitch": 70, "duration": 10, "velocity": 36}, {"time": 125420, "pitch": 56, "duration": 10, "velocity": 22}, {"time": 125420, "pitch": 69, "duration": 10, "velocity": 36}, {"time": 125520, "pitch": 28, "duration": 10, "velocity": 64}, {"time": 125520, "pitch": 37, "duration": 10, "velocity": 106}, {"time": 125520, "pitch": 42, "duration": 10, "velocity": 64}, {"time": 125520, "pitch": 56, "duration": 10, "velocity": 36}, {"time": 125520, "pitch": 68, "duration": 10, "velocity": 78}, {"time": 125520, "pitch": 69, "duration": 10, "velocity": 50}, {"time": 125520, "pitch": 70, "duration": 10, "velocity": 78}, {"time": 125640, "pitch": 70, "duration": 10, "velocity": 36}, {"time": 125660, "pitch": 56, "duration": 10, "velocity": 22}, {"time": 125660, "pitch": 68, "duration": 10, "velocity": 92}, {"time": 125660, "pitch": 69, "duration": 10, "velocity": 36}, {"time": 125760, "pitch": 42, "duration": 10, "velocity": 64}, {"time": 125760, "pitch": 68, "duration": 10, "velocity": 92}, {"time": 125760, "pitch": 69, "duration": 10, "velocity": 64}, {"time": 125760, "pitch": 70, "duration": 10, "velocity": 78}, {"time": 125880, "pitch": 70, "duration": 10, "velocity": 36}, {"time": 125900, "pitch": 69, "duration": 10, "velocity": 36}, {"time": 126000, "pitch": 28, "duration": 10, "velocity": 64}, {"time": 126000, "pitch": 37, "duration": 10, "velocity": 106}, {"time": 126000, "pitch": 42, "duration": 10, "velocity": 92}, {"time": 126000, "pitch": 56, "duration": 10, "velocity": 64}, {"time": 126000, "pitch": 67, "duration": 10, "velocity": 92}, {"time": 126000, "pitch": 69, "duration": 10, "velocity": 50}, {"time": 126000, "pitch": 70, "duration": 10, "velocity": 78}, {"time": 126120, "pitch": 70, "duration": 10, "velocity": 36}, {"time": 126140, "pitch": 56, "duration": 10, "velocity": 36}, {"time": 126140, "pitch": 69, "duration": 10, "velocity": 36}, {"time": 126240, "pitch": 42, "duration": 10, "velocity": 92}, {"time": 126240, "pitch": 56, "duration": 10, "velocity": 50}, {"time": 126240, "pitch": 67, "duration": 10, "velocity": 92}, {"time": 126240, "pitch": 69, "duration": 10, "velocity": 64}, {"time": 126240, "pitch": 70, "duration": 10, "velocity": 78}, {"time": 126360, "pitch": 28, "duration": 10, "velocity": 64}, {"time": 126360, "pitch": 37, "duration": 10, "velocity": 106}, {"time": 126360, "pitch": 70, "duration": 10, "velocity": 36}, {"time": 126380, "pitch": 56, "duration": 10, "velocity": 36}, {"time": 126380, "pitch": 68, "duration": 10, "velocity": 64}, {"time": 126380, "pitch": 69, "duration": 10, "velocity": 36}, {"time": 126480, "pitch": 42, "duration": 10, "velocity": 64}, {"time": 126480, "pitch": 56, "duration": 10, "velocity": 22}, {"time": 126480, "pitch": 69, "duration": 10, "velocity": 50}, {"time": 126480, "pitch": 70, "duration": 10, "velocity": 78}, {"time": 126600, "pitch": 70, "duration": 10, "velocity": 36}, {"time": 126620, "pitch": 56, "duration": 10, "velocity": 22}, {"time": 126620, "pitch": 68, "duration": 10, "velocity": 92}, {"time": 126620, "pitch": 69, "duration": 10, "velocity": 36}, {"time": 126720, "pitch": 28, "duration": 10, "velocity": 64}, {"time": 126720, "pitch": 37, "duration": 10, "velocity": 106}, {"time": 126720, "pitch": 42, "duration": 10, "velocity": 92}, {"time": 126720, "pitch": 56, "duration": 10, "velocity": 64}, {"time": 126720, "pitch": 69, "duration": 10, "velocity": 64}, {"time": 126720, "pitch": 70, "duration": 10, "velocity": 78}, {"time": 126840, "pitch": 70, "duration": 10, "velocity": 36}, {"time": 126860, "pitch": 56, "duration": 10, "velocity": 22}, {"time": 126860, "pitch": 67, "duration": 10, "velocity": 92}, {"time": 126860, "pitch": 69, "duration": 10, "velocity": 36}, {"time": 126960, "pitch": 42, "duration": 10, "velocity": 64}, {"time": 126960, "pitch": 56, "duration": 10, "velocity": 22}, {"time": 126960, "pitch": 69, "duration": 10, "velocity": 50}, {"time": 126960, "pitch": 70, "duration": 10, "velocity": 78}, {"time": 127080, "pitch": 28, "duration": 10, "velocity": 64}, {"time": 127080, "pitch": 37, "duration": 10, "velocity": 106}, {"time": 127080, "pitch": 70, "duration": 10, "velocity": 36}, {"time": 127100, "pitch": 56, "duration": 10, "velocity": 64}, {"time": 127100, "pitch": 67, "duration": 10, "velocity": 64}, {"time": 127100, "pitch": 69, "duration": 10, "velocity": 36}, {"time": 127200, "pitch": 42, "duration": 10, "velocity": 92}, {"time": 127200, "pitch": 56, "duration": 10, "velocity": 22}, {"time": 127200, "pitch": 67, "duration": 10, "velocity": 92}, {"time": 127200, "pitch": 69, "duration": 10, "velocity": 64}, {"time": 127200, "pitch": 70, "duration": 10, "velocity": 78}, {"time": 127320, "pitch": 70, "duration": 10, "velocity": 36}, {"time": 127340, "pitch": 56, "duration": 10, "velocity": 22}, {"time": 127340, "pitch": 69, "duration": 10, "velocity": 36}, {"time": 127440, "pitch": 28, "duration": 10, "velocity": 64}, {"time": 127440, "pitch": 37, "duration": 10, "velocity": 106}, {"time": 127440, "pitch": 42, "duration": 10, "velocity": 64}, {"time": 127440, "pitch": 56, "duration": 10, "velocity": 36}, {"time": 127440, "pitch": 68, "duration": 10, "velocity": 78}, {"time": 127440, "pitch": 69, "duration": 10, "velocity": 22}, {"time": 127440, "pitch": 70, "duration": 10, "velocity": 78}, {"time": 127470, "pitch": 69, "duration": 10, "velocity": 36}, {"time": 127500, "pitch": 69, "duration": 10, "velocity": 36}, {"time": 127530, "pitch": 69, "duration": 10, "velocity": 50}, {"time": 127560, "pitch": 56, "duration": 10, "velocity": 22}, {"time": 127560, "pitch": 68, "duration": 10, "velocity": 92}, {"time": 127560, "pitch": 69, "duration": 10, "velocity": 50}, {"time": 127560, "pitch": 70, "duration": 10, "velocity": 36}, {"time": 127590, "pitch": 69, "duration": 10, "velocity": 64}, {"time": 127620, "pitch": 69, "duration": 10, "velocity": 64}, {"time": 127650, "pitch": 69, "duration": 10, "velocity": 64}, {"time": 127680, "pitch": 42, "duration": 10, "velocity": 64}, {"time": 127680, "pitch": 68, "duration": 10, "velocity": 92}, {"time": 127680, "pitch": 69, "duration": 10, "velocity": 64}, {"time": 127680, "pitch": 70, "duration": 10, "velocity": 78}, {"time": 127800, "pitch": 70, "duration": 10, "velocity": 36}, {"time": 127820, "pitch": 69, "duration": 10, "velocity": 36}, {"time": 127920, "pitch": 28, "duration": 10, "velocity": 64}, {"time": 127920, "pitch": 37, "duration": 10, "velocity": 106}, {"time": 127920, "pitch": 42, "duration": 10, "velocity": 92}, {"time": 127920, "pitch": 56, "duration": 10, "velocity": 64}, {"time": 127920, "pitch": 67, "duration": 10, "velocity": 92}, {"time": 127920, "pitch": 69, "duration": 10, "velocity": 50}, {"time": 127920, "pitch": 70, "duration": 10, "velocity": 78}, {"time": 128040, "pitch": 70, "duration": 10, "velocity": 36}, {"time": 128060, "pitch": 56, "duration": 10, "velocity": 36}, {"time": 128060, "pitch": 69, "duration": 10, "velocity": 36}, {"time": 128160, "pitch": 28, "duration": 10, "velocity": 64}, {"time": 128160, "pitch": 37, "duration": 10, "velocity": 106}, {"time": 128160, "pitch": 42, "duration": 10, "velocity": 92}, {"time": 128160, "pitch": 56, "duration": 10, "velocity": 50}, {"time": 128160, "pitch": 67, "duration": 10, "velocity": 92}, {"time": 128160, "pitch": 69, "duration": 10, "velocity": 64}, {"time": 128160, "pitch": 70, "duration": 10, "velocity": 78}, {"time": 128280, "pitch": 70, "duration": 10, "velocity": 36}, {"time": 128300, "pitch": 56, "duration": 10, "velocity": 36}, {"time": 128300, "pitch": 68, "duration": 10, "velocity": 64}, {"time": 128300, "pitch": 69, "duration": 10, "velocity": 36}, {"time": 128400, "pitch": 42, "duration": 10, "velocity": 64}, {"time": 128400, "pitch": 56, "duration": 10, "velocity": 22}, {"time": 128400, "pitch": 69, "duration": 10, "velocity": 50}, {"time": 128400, "pitch": 70, "duration": 10, "velocity": 78}, {"time": 128520, "pitch": 70, "duration": 10, "velocity": 36}, {"time": 128540, "pitch": 56, "duration": 10, "velocity": 22}, {"time": 128540, "pitch": 68, "duration": 10, "velocity": 92}, {"time": 128540, "pitch": 69, "duration": 10, "velocity": 36}, {"time": 128640, "pitch": 28, "duration": 10, "velocity": 64}, {"time": 128640, "pitch": 37, "duration": 10, "velocity": 106}, {"time": 128640, "pitch": 42, "duration": 10, "velocity": 92}, {"time": 128640, "pitch": 56, "duration": 10, "velocity": 64}, {"time": 128640, "pitch": 69, "duration": 10, "velocity": 64}, {"time": 128640, "pitch": 70, "duration": 10, "velocity": 78}, {"time": 128760, "pitch": 70, "duration": 10, "velocity": 36}, {"time": 128780, "pitch": 56, "duration": 10, "velocity": 22}, {"time": 128780, "pitch": 67, "duration": 10, "velocity": 92}, {"time": 128780, "pitch": 69, "duration": 10, "velocity": 36}, {"time": 128880, "pitch": 42, "duration": 10, "velocity": 64}, {"time": 128880, "pitch": 56, "duration": 10, "velocity": 22}, {"time": 128880, "pitch": 69, "duration": 10, "velocity": 50}, {"time": 128880, "pitch": 70, "duration": 10, "velocity": 78}, {"time": 129000, "pitch": 28, "duration": 10, "velocity": 64}, {"time": 129000, "pitch": 37, "duration": 10, "velocity": 106}, {"time": 129000, "pitch": 70, "duration": 10, "velocity": 36}, {"time": 129020, "pitch": 56, "duration": 10, "velocity": 64}, {"time": 129020, "pitch": 67, "duration": 10, "velocity": 64}, {"time": 129020, "pitch": 69, "duration": 10, "velocity": 36}, {"time": 129120, "pitch": 42, "duration": 10, "velocity": 92}, {"time": 129120, "pitch": 56, "duration": 10, "velocity": 22}, {"time": 129120, "pitch": 67, "duration": 10, "velocity": 92}, {"time": 129120, "pitch": 69, "duration": 10, "velocity": 64}, {"time": 129120, "pitch": 70, "duration": 10, "velocity": 78}, {"time": 129240, "pitch": 70, "duration": 10, "velocity": 36}, {"time": 129260, "pitch": 56, "duration": 10, "velocity": 22}, {"time": 129260, "pitch": 69, "duration": 10, "velocity": 36}, {"time": 129360, "pitch": 28, "duration": 10, "velocity": 64}, {"time": 129360, "pitch": 37, "duration": 10, "velocity": 106}, {"time": 129360, "pitch": 42, "duration": 10, "velocity": 64}, {"time": 129360, "pitch": 56, "duration": 10, "velocity": 36}, {"time": 129360, "pitch": 68, "duration": 10, "velocity": 78}, {"time": 129360, "pitch": 69, "duration": 10, "velocity": 50}, {"time": 129360, "pitch": 70, "duration": 10, "velocity": 78}, {"time": 129480, "pitch": 70, "duration": 10, "velocity": 36}, {"time": 129500, "pitch": 56, "duration": 10, "velocity": 22}, {"time": 129500, "pitch": 68, "duration": 10, "velocity": 92}, {"time": 129500, "pitch": 69, "duration": 10, "velocity": 36}, {"time": 129600, "pitch": 42, "duration": 10, "velocity": 64}, {"time": 129600, "pitch": 68, "duration": 10, "velocity": 92}, {"time": 129600, "pitch": 69, "duration": 10, "velocity": 64}, {"time": 129600, "pitch": 70, "duration": 10, "velocity": 78}, {"time": 129720, "pitch": 70, "duration": 10, "velocity": 36}, {"time": 129740, "pitch": 69, "duration": 10, "velocity": 36}, {"time": 129840, "pitch": 28, "duration": 10, "velocity": 64}, {"time": 129840, "pitch": 37, "duration": 10, "velocity": 106}, {"time": 129840, "pitch": 42, "duration": 10, "velocity": 92}, {"time": 129840, "pitch": 56, "duration": 10, "velocity": 64}, {"time": 129840, "pitch": 67, "duration": 10, "velocity": 92}, {"time": 129840, "pitch": 69, "duration": 10, "velocity": 50}, {"time": 129840, "pitch": 70, "duration": 10, "velocity": 78}, {"time": 129960, "pitch": 70, "duration": 10, "velocity": 36}, {"time": 129980, "pitch": 56, "duration": 10, "velocity": 36}, {"time": 129980, "pitch": 69, "duration": 10, "velocity": 36}, {"time": 130080, "pitch": 42, "duration": 10, "velocity": 92}, {"time": 130080, "pitch": 56, "duration": 10, "velocity": 50}, {"time": 130080, "pitch": 67, "duration": 10, "velocity": 92}, {"time": 130080, "pitch": 69, "duration": 10, "velocity": 64}, {"time": 130080, "pitch": 70, "duration": 10, "velocity": 78}, {"time": 130200, "pitch": 28, "duration": 10, "velocity": 64}, {"time": 130200, "pitch": 37, "duration": 10, "velocity": 106}, {"time": 130200, "pitch": 70, "duration": 10, "velocity": 36}, {"time": 130220, "pitch": 56, "duration": 10, "velocity": 36}, {"time": 130220, "pitch": 68, "duration": 10, "velocity": 64}, {"time": 130220, "pitch": 69, "duration": 10, "velocity": 36}, {"time": 130320, "pitch": 42, "duration": 10, "velocity": 64}, {"time": 130320, "pitch": 56, "duration": 10, "velocity": 22}, {"time": 130320, "pitch": 69, "duration": 10, "velocity": 50}, {"time": 130320, "pitch": 70, "duration": 10, "velocity": 78}, {"time": 130440, "pitch": 70, "duration": 10, "velocity": 36}, {"time": 130460, "pitch": 56, "duration": 10, "velocity": 22}, {"time": 130460, "pitch": 68, "duration": 10, "velocity": 92}, {"time": 130460, "pitch": 69, "duration": 10, "velocity": 36}, {"time": 130560, "pitch": 28, "duration": 10, "velocity": 64}, {"time": 130560, "pitch": 37, "duration": 10, "velocity": 106}, {"time": 130560, "pitch": 42, "duration": 10, "velocity": 92}, {"time": 130560, "pitch": 56, "duration": 10, "velocity": 64}, {"time": 130560, "pitch": 69, "duration": 10, "velocity": 64}, {"time": 130560, "pitch": 70, "duration": 10, "velocity": 78}, {"time": 130680, "pitch": 70, "duration": 10, "velocity": 36}, {"time": 130700, "pitch": 56, "duration": 10, "velocity": 22}, {"time": 130700, "pitch": 67, "duration": 10, "velocity": 92}, {"time": 130700, "pitch": 69, "duration": 10, "velocity": 36}, {"time": 130800, "pitch": 42, "duration": 10, "velocity": 64}, {"time": 130800, "pitch": 56, "duration": 10, "velocity": 22}, {"time": 130800, "pitch": 69, "duration": 10, "velocity": 50}, {"time": 130800, "pitch": 70, "duration": 10, "velocity": 78}, {"time": 130920, "pitch": 28, "duration": 10, "velocity": 64}, {"time": 130920, "pitch": 37, "duration": 10, "velocity": 106}, {"time": 130920, "pitch": 70, "duration": 10, "velocity": 36}, {"time": 130940, "pitch": 56, "duration": 10, "velocity": 64}, {"time": 130940, "pitch": 67, "duration": 10, "velocity": 64}, {"time": 130940, "pitch": 69, "duration": 10, "velocity": 36}, {"time": 131040, "pitch": 42, "duration": 10, "velocity": 92}, {"time": 131040, "pitch": 56, "duration": 10, "velocity": 22}, {"time": 131040, "pitch": 67, "duration": 10, "velocity": 92}, {"time": 131040, "pitch": 69, "duration": 10, "velocity": 64}, {"time": 131040, "pitch": 70, "duration": 10, "velocity": 78}, {"time": 131160, "pitch": 70, "duration": 10, "velocity": 36}, {"time": 131180, "pitch": 56, "duration": 10, "velocity": 22}, {"time": 131180, "pitch": 69, "duration": 10, "velocity": 36}, {"time": 131280, "pitch": 28, "duration": 10, "velocity": 64}, {"time": 131280, "pitch": 37, "duration": 10, "velocity": 106}, {"time": 131280, "pitch": 42, "duration": 10, "velocity": 64}, {"time": 131280, "pitch": 56, "duration": 10, "velocity": 36}, {"time": 131280, "pitch": 68, "duration": 10, "velocity": 78}, {"time": 131280, "pitch": 69, "duration": 10, "velocity": 22}, {"time": 131280, "pitch": 70, "duration": 10, "velocity": 78}, {"time": 131310, "pitch": 69, "duration": 10, "velocity": 36}, {"time": 131340, "pitch": 69, "duration": 10, "velocity": 36}, {"time": 131370, "pitch": 69, "duration": 10, "velocity": 50}, {"time": 131400, "pitch": 56, "duration": 10, "velocity": 22}, {"time": 131400, "pitch": 68, "duration": 10, "velocity": 92}, {"time": 131400, "pitch": 69, "duration": 10, "velocity": 50}, {"time": 131400, "pitch": 70, "duration": 10, "velocity": 36}, {"time": 131430, "pitch": 69, "duration": 10, "velocity": 64}, {"time": 131460, "pitch": 69, "duration": 10, "velocity": 64}, {"time": 131490, "pitch": 69, "duration": 10, "velocity": 64}, {"time": 131520, "pitch": 38, "duration": 10, "velocity": 50}, {"time": 131520, "pitch": 42, "duration": 10, "velocity": 64}, {"time": 131520, "pitch": 57, "duration": 10, "velocity": 78}, {"time": 131520, "pitch": 68, "duration": 10, "velocity": 92}, {"time": 131520, "pitch": 69, "duration": 10, "velocity": 64}, {"time": 131520, "pitch": 70, "duration": 10, "velocity": 78}, {"time": 131640, "pitch": 38, "duration": 10, "velocity": 22}, {"time": 131640, "pitch": 70, "duration": 10, "velocity": 36}, {"time": 131660, "pitch": 69, "duration": 10, "velocity": 36}, {"time": 131760, "pitch": 28, "duration": 10, "velocity": 64}, {"time": 131760, "pitch": 37, "duration": 10, "velocity": 106}, {"time": 131760, "pitch": 38, "duration": 10, "velocity": 78}, {"time": 131760, "pitch": 42, "duration": 10, "velocity": 92}, {"time": 131760, "pitch": 56, "duration": 10, "velocity": 64}, {"time": 131760, "pitch": 67, "duration": 10, "velocity": 92}, {"time": 131760, "pitch": 69, "duration": 10, "velocity": 50}, {"time": 131760, "pitch": 70, "duration": 10, "velocity": 78}, {"time": 131880, "pitch": 38, "duration": 10, "velocity": 22}, {"time": 131880, "pitch": 70, "duration": 10, "velocity": 36}, {"time": 131900, "pitch": 56, "duration": 10, "velocity": 36}, {"time": 131900, "pitch": 69, "duration": 10, "velocity": 36}, {"time": 132000, "pitch": 28, "duration": 10, "velocity": 64}, {"time": 132000, "pitch": 37, "duration": 10, "velocity": 106}, {"time": 132000, "pitch": 38, "duration": 10, "velocity": 50}, {"time": 132000, "pitch": 39, "duration": 10, "velocity": 120}, {"time": 132000, "pitch": 40, "duration": 10, "velocity": 106}, {"time": 132000, "pitch": 42, "duration": 10, "velocity": 92}, {"time": 132000, "pitch": 56, "duration": 10, "velocity": 50}, {"time": 132000, "pitch": 67, "duration": 10, "velocity": 92}, {"time": 132000, "pitch": 69, "duration": 10, "velocity": 64}, {"time": 132000, "pitch": 70, "duration": 10, "velocity": 78}, {"time": 132060, "pitch": 38, "duration": 10, "velocity": 36}, {"time": 132120, "pitch": 38, "duration": 10, "velocity": 36}, {"time": 132120, "pitch": 70, "duration": 10, "velocity": 36}, {"time": 132140, "pitch": 56, "duration": 10, "velocity": 36}, {"time": 132140, "pitch": 68, "duration": 10, "velocity": 64}, {"time": 132140, "pitch": 69, "duration": 10, "velocity": 36}, {"time": 132180, "pitch": 38, "duration": 10, "velocity": 36}, {"time": 132240, "pitch": 38, "duration": 10, "velocity": 22}, {"time": 132240, "pitch": 42, "duration": 10, "velocity": 64}, {"time": 132240, "pitch": 56, "duration": 10, "velocity": 22}, {"time": 132240, "pitch": 69, "duration": 10, "velocity": 50}, {"time": 132240, "pitch": 70, "duration": 10, "velocity": 78}, {"time": 132300, "pitch": 38, "duration": 10, "velocity": 36}, {"time": 132360, "pitch": 38, "duration": 10, "velocity": 22}, {"time": 132360, "pitch": 70, "duration": 10, "velocity": 36}, {"time": 132380, "pitch": 56, "duration": 10, "velocity": 22}, {"time": 132380, "pitch": 68, "duration": 10, "velocity": 92}, {"time": 132380, "pitch": 69, "duration": 10, "velocity": 36}, {"time": 132420, "pitch": 38, "duration": 10, "velocity": 22}, {"time": 132480, "pitch": 28, "duration": 10, "velocity": 64}, {"time": 132480, "pitch": 37, "duration": 10, "velocity": 106}, {"time": 132480, "pitch": 38, "duration": 10, "velocity": 36}, {"time": 132480, "pitch": 42, "duration": 10, "velocity": 92}, {"time": 132480, "pitch": 56, "duration": 10, "velocity": 64}, {"time": 132480, "pitch": 69, "duration": 10, "velocity": 64}, {"time": 132480, "pitch": 70, "duration": 10, "velocity": 78}, {"time": 132600, "pitch": 38, "duration": 10, "velocity": 22}, {"time": 132600, "pitch": 70, "duration": 10, "velocity": 36}, {"time": 132620, "pitch": 56, "duration": 10, "velocity": 22}, {"time": 132620, "pitch": 67, "duration": 10, "velocity": 92}, {"time": 132620, "pitch": 69, "duration": 10, "velocity": 36}, {"time": 132620, "pitch": 72, "duration": 210, "velocity": 78}, {"time": 132720, "pitch": 38, "duration": 10, "velocity": 78}, {"time": 132720, "pitch": 42, "duration": 10, "velocity": 64}, {"time": 132720, "pitch": 56, "duration": 10, "velocity": 22}, {"time": 132720, "pitch": 69, "duration": 10, "velocity": 50}, {"time": 132720, "pitch": 70, "duration": 10, "velocity": 78}, {"time": 132840, "pitch": 28, "duration": 10, "velocity": 64}, {"time": 132840, "pitch": 37, "duration": 10, "velocity": 106}, {"time": 132840, "pitch": 38, "duration": 10, "velocity": 36}, {"time": 132840, "pitch": 70, "duration": 10, "velocity": 36}, {"time": 132860, "pitch": 56, "duration": 10, "velocity": 64}, {"time": 132860, "pitch": 67, "duration": 10, "velocity": 64}, {"time": 132860, "pitch": 69, "duration": 10, "velocity": 36}, {"time": 132860, "pitch": 72, "duration": 100, "velocity": 64}, {"time": 132960, "pitch": 38, "duration": 10, "velocity": 50}, {"time": 132960, "pitch": 39, "duration": 10, "velocity": 120}, {"time": 132960, "pitch": 40, "duration": 10, "velocity": 106}, {"time": 132960, "pitch": 42, "duration": 10, "velocity": 92}, {"time": 132960, "pitch": 56, "duration": 10, "velocity": 22}, {"time": 132960, "pitch": 67, "duration": 10, "velocity": 92}, {"time": 132960, "pitch": 69, "duration": 10, "velocity": 64}, {"time": 132960, "pitch": 70, "duration": 10, "velocity": 78}, {"time": 132960, "pitch": 72, "duration": 220, "velocity": 64}, {"time": 133020, "pitch": 38, "duration": 10, "velocity": 36}, {"time": 133080, "pitch": 38, "duration": 10, "velocity": 36}, {"time": 133080, "pitch": 70, "duration": 10, "velocity": 36}, {"time": 133100, "pitch": 56, "duration": 10, "velocity": 22}, {"time": 133100, "pitch": 69, "duration": 10, "velocity": 36}, {"time": 133140, "pitch": 38, "duration": 10, "velocity": 36}, {"time": 133200, "pitch": 28, "duration": 10, "velocity": 64}, {"time": 133200, "pitch": 37, "duration": 10, "velocity": 106}, {"time": 133200, "pitch": 38, "duration": 10, "velocity": 22}, {"time": 133200, "pitch": 42, "duration": 10, "velocity": 64}, {"time": 133200, "pitch": 56, "duration": 10, "velocity": 36}, {"time": 133200, "pitch": 68, "duration": 10, "velocity": 78}, {"time": 133200, "pitch": 69, "duration": 10, "velocity": 50}, {"time": 133200, "pitch": 70, "duration": 10, "velocity": 78}, {"time": 133200, "pitch": 72, "duration": 100, "velocity": 64}, {"time": 133260, "pitch": 38, "duration": 10, "velocity": 36}, {"time": 133320, "pitch": 38, "duration": 10, "velocity": 22}, {"time": 133320, "pitch": 70, "duration": 10, "velocity": 36}, {"time": 133340, "pitch": 56, "duration": 10, "velocity": 22}, {"time": 133340, "pitch": 68, "duration": 10, "velocity": 92}, {"time": 133340, "pitch": 69, "duration": 10, "velocity": 36}, {"time": 133340, "pitch": 72, "duration": 100, "velocity": 64}, {"time": 133380, "pitch": 38, "duration": 10, "velocity": 22}, {"time": 133440, "pitch": 38, "duration": 10, "velocity": 50}, {"time": 133440, "pitch": 42, "duration": 10, "velocity": 64}, {"time": 133440, "pitch": 68, "duration": 10, "velocity": 92}, {"time": 133440, "pitch": 69, "duration": 10, "velocity": 64}, {"time": 133440, "pitch": 70, "duration": 10, "velocity": 78}, {"time": 133440, "pitch": 72, "duration": 720, "velocity": 78}, {"time": 133560, "pitch": 38, "duration": 10, "velocity": 22}, {"time": 133560, "pitch": 70, "duration": 10, "velocity": 36}, {"time": 133580, "pitch": 69, "duration": 10, "velocity": 36}, {"time": 133680, "pitch": 28, "duration": 10, "velocity": 64}, {"time": 133680, "pitch": 37, "duration": 10, "velocity": 106}, {"time": 133680, "pitch": 38, "duration": 10, "velocity": 78}, {"time": 133680, "pitch": 42, "duration": 10, "velocity": 92}, {"time": 133680, "pitch": 56, "duration": 10, "velocity": 64}, {"time": 133680, "pitch": 67, "duration": 10, "velocity": 92}, {"time": 133680, "pitch": 69, "duration": 10, "velocity": 50}, {"time": 133680, "pitch": 70, "duration": 10, "velocity": 78}, {"time": 133800, "pitch": 38, "duration": 10, "velocity": 22}, {"time": 133800, "pitch": 70, "duration": 10, "velocity": 36}, {"time": 133820, "pitch": 56, "duration": 10, "velocity": 36}, {"time": 133820, "pitch": 69, "duration": 10, "velocity": 36}, {"time": 133920, "pitch": 38, "duration": 10, "velocity": 50}, {"time": 133920, "pitch": 39, "duration": 10, "velocity": 120}, {"time": 133920, "pitch": 40, "duration": 10, "velocity": 106}, {"time": 133920, "pitch": 42, "duration": 10, "velocity": 92}, {"time": 133920, "pitch": 56, "duration": 10, "velocity": 50}, {"time": 133920, "pitch": 67, "duration": 10, "velocity": 92}, {"time": 133920, "pitch": 69, "duration": 10, "velocity": 64}, {"time": 133920, "pitch": 70, "duration": 10, "velocity": 78}, {"time": 133980, "pitch": 38, "duration": 10, "velocity": 36}, {"time": 134040, "pitch": 28, "duration": 10, "velocity": 64}, {"time": 134040, "pitch": 37, "duration": 10, "velocity": 106}, {"time": 134040, "pitch": 38, "duration": 10, "velocity": 36}, {"time": 134040, "pitch": 70, "duration": 10, "velocity": 36}, {"time": 134060, "pitch": 56, "duration": 10, "velocity": 36}, {"time": 134060, "pitch": 68, "duration": 10, "velocity": 64}, {"time": 134060, "pitch": 69, "duration": 10, "velocity": 36}, {"time": 134100, "pitch": 38, "duration": 10, "velocity": 36}, {"time": 134160, "pitch": 38, "duration": 10, "velocity": 22}, {"time": 134160, "pitch": 42, "duration": 10, "velocity": 64}, {"time": 134160, "pitch": 56, "duration": 10, "velocity": 22}, {"time": 134160, "pitch": 69, "duration": 10, "velocity": 50}, {"time": 134160, "pitch": 70, "duration": 10, "velocity": 78}, {"time": 134220, "pitch": 38, "duration": 10, "velocity": 36}, {"time": 134280, "pitch": 38, "duration": 10, "velocity": 22}, {"time": 134280, "pitch": 70, "duration": 10, "velocity": 36}, {"time": 134300, "pitch": 56, "duration": 10, "velocity": 22}, {"time": 134300, "pitch": 68, "duration": 10, "velocity": 92}, {"time": 134300, "pitch": 69, "duration": 10, "velocity": 36}, {"time": 134340, "pitch": 38, "duration": 10, "velocity": 22}, {"time": 134400, "pitch": 28, "duration": 10, "velocity": 64}, {"time": 134400, "pitch": 37, "duration": 10, "velocity": 106}, {"time": 134400, "pitch": 38, "duration": 10, "velocity": 36}, {"time": 134400, "pitch": 42, "duration": 10, "velocity": 92}, {"time": 134400, "pitch": 56, "duration": 10, "velocity": 64}, {"time": 134400, "pitch": 69, "duration": 10, "velocity": 64}, {"time": 134400, "pitch": 70, "duration": 10, "velocity": 78}, {"time": 134520, "pitch": 38, "duration": 10, "velocity": 22}, {"time": 134520, "pitch": 70, "duration": 10, "velocity": 36}, {"time": 134540, "pitch": 56, "duration": 10, "velocity": 22}, {"time": 134540, "pitch": 67, "duration": 10, "velocity": 92}, {"time": 134540, "pitch": 69, "duration": 10, "velocity": 36}, {"time": 134540, "pitch": 72, "duration": 80, "velocity": 78}, {"time": 134640, "pitch": 38, "duration": 10, "velocity": 78}, {"time": 134640, "pitch": 42, "duration": 10, "velocity": 64}, {"time": 134640, "pitch": 56, "duration": 10, "velocity": 22}, {"time": 134640, "pitch": 69, "duration": 10, "velocity": 50}, {"time": 134640, "pitch": 70, "duration": 10, "velocity": 78}, {"time": 134640, "pitch": 72, "duration": 90, "velocity": 78}, {"time": 134760, "pitch": 28, "duration": 10, "velocity": 64}, {"time": 134760, "pitch": 37, "duration": 10, "velocity": 106}, {"time": 134760, "pitch": 38, "duration": 10, "velocity": 36}, {"time": 134760, "pitch": 70, "duration": 10, "velocity": 36}, {"time": 134780, "pitch": 56, "duration": 10, "velocity": 64}, {"time": 134780, "pitch": 67, "duration": 10, "velocity": 64}, {"time": 134780, "pitch": 69, "duration": 10, "velocity": 36}, {"time": 134780, "pitch": 72, "duration": 90, "velocity": 78}, {"time": 134880, "pitch": 38, "duration": 10, "velocity": 50}, {"time": 134880, "pitch": 39, "duration": 10, "velocity": 120}, {"time": 134880, "pitch": 40, "duration": 10, "velocity": 106}, {"time": 134880, "pitch": 42, "duration": 10, "velocity": 92}, {"time": 134880, "pitch": 56, "duration": 10, "velocity": 22}, {"time": 134880, "pitch": 67, "duration": 10, "velocity": 92}, {"time": 134880, "pitch": 69, "duration": 10, "velocity": 64}, {"time": 134880, "pitch": 70, "duration": 10, "velocity": 78}, {"time": 134880, "pitch": 72, "duration": 230, "velocity": 78}, {"time": 134940, "pitch": 38, "duration": 10, "velocity": 36}, {"time": 135000, "pitch": 38, "duration": 10, "velocity": 36}, {"time": 135000, "pitch": 70, "duration": 10, "velocity": 36}, {"time": 135020, "pitch": 56, "duration": 10, "velocity": 22}, {"time": 135020, "pitch": 69, "duration": 10, "velocity": 36}, {"time": 135060, "pitch": 38, "duration": 10, "velocity": 36}, {"time": 135120, "pitch": 28, "duration": 10, "velocity": 64}, {"time": 135120, "pitch": 37, "duration": 10, "velocity": 106}, {"time": 135120, "pitch": 38, "duration": 10, "velocity": 22}, {"time": 135120, "pitch": 42, "duration": 10, "velocity": 64}, {"time": 135120, "pitch": 56, "duration": 10, "velocity": 36}, {"time": 135120, "pitch": 68, "duration": 10, "velocity": 78}, {"time": 135120, "pitch": 69, "duration": 10, "velocity": 22}, {"time": 135120, "pitch": 70, "duration": 10, "velocity": 78}, {"time": 135120, "pitch": 72, "duration": 100, "velocity": 78}, {"time": 135150, "pitch": 69, "duration": 10, "velocity": 36}, {"time": 135180, "pitch": 38, "duration": 10, "velocity": 36}, {"time": 135180, "pitch": 69, "duration": 10, "velocity": 36}, {"time": 135210, "pitch": 69, "duration": 10, "velocity": 50}, {"time": 135240, "pitch": 38, "duration": 10, "velocity": 22}, {"time": 135240, "pitch": 56, "duration": 10, "velocity": 22}, {"time": 135240, "pitch": 68, "duration": 10, "velocity": 92}, {"time": 135240, "pitch": 69, "duration": 10, "velocity": 50}, {"time": 135240, "pitch": 70, "duration": 10, "velocity": 36}, {"time": 135270, "pitch": 69, "duration": 10, "velocity": 64}, {"time": 135300, "pitch": 38, "duration": 10, "velocity": 22}, {"time": 135300, "pitch": 69, "duration": 10, "velocity": 64}, {"time": 135330, "pitch": 69, "duration": 10, "velocity": 64}, {"time": 135360, "pitch": 38, "duration": 10, "velocity": 50}, {"time": 135360, "pitch": 42, "duration": 10, "velocity": 64}, {"time": 135360, "pitch": 57, "duration": 10, "velocity": 78}, {"time": 135360, "pitch": 68, "duration": 10, "velocity": 92}, {"time": 135360, "pitch": 69, "duration": 10, "velocity": 64}, {"time": 135360, "pitch": 70, "duration": 10, "velocity": 78}, {"time": 135480, "pitch": 38, "duration": 10, "velocity": 22}, {"time": 135480, "pitch": 70, "duration": 10, "velocity": 36}, {"time": 135500, "pitch": 69, "duration": 10, "velocity": 36}, {"time": 135600, "pitch": 28, "duration": 10, "velocity": 64}, {"time": 135600, "pitch": 37, "duration": 10, "velocity": 106}, {"time": 135600, "pitch": 38, "duration": 10, "velocity": 78}, {"time": 135600, "pitch": 42, "duration": 10, "velocity": 92}, {"time": 135600, "pitch": 56, "duration": 10, "velocity": 64}, {"time": 135600, "pitch": 67, "duration": 10, "velocity": 92}, {"time": 135600, "pitch": 69, "duration": 10, "velocity": 50}, {"time": 135600, "pitch": 70, "duration": 10, "velocity": 78}, {"time": 135720, "pitch": 38, "duration": 10, "velocity": 22}, {"time": 135720, "pitch": 70, "duration": 10, "velocity": 36}, {"time": 135740, "pitch": 56, "duration": 10, "velocity": 36}, {"time": 135740, "pitch": 69, "duration": 10, "velocity": 36}, {"time": 135840, "pitch": 28, "duration": 10, "velocity": 64}, {"time": 135840, "pitch": 37, "duration": 10, "velocity": 106}, {"time": 135840, "pitch": 38, "duration": 10, "velocity": 50}, {"time": 135840, "pitch": 39, "duration": 10, "velocity": 120}, {"time": 135840, "pitch": 40, "duration": 10, "velocity": 106}, {"time": 135840, "pitch": 42, "duration": 10, "velocity": 92}, {"time": 135840, "pitch": 56, "duration": 10, "velocity": 50}, {"time": 135840, "pitch": 67, "duration": 10, "velocity": 92}, {"time": 135840, "pitch": 69, "duration": 10, "velocity": 64}, {"time": 135840, "pitch": 70, "duration": 10, "velocity": 78}, {"time": 135900, "pitch": 38, "duration": 10, "velocity": 36}, {"time": 135960, "pitch": 38, "duration": 10, "velocity": 36}, {"time": 135960, "pitch": 70, "duration": 10, "velocity": 36}, {"time": 135980, "pitch": 56, "duration": 10, "velocity": 36}, {"time": 135980, "pitch": 68, "duration": 10, "velocity": 64}, {"time": 135980, "pitch": 69, "duration": 10, "velocity": 36}, {"time": 136020, "pitch": 38, "duration": 10, "velocity": 36}, {"time": 136080, "pitch": 38, "duration": 10, "velocity": 22}, {"time": 136080, "pitch": 42, "duration": 10, "velocity": 64}, {"time": 136080, "pitch": 56, "duration": 10, "velocity": 22}, {"time": 136080, "pitch": 69, "duration": 10, "velocity": 50}, {"time": 136080, "pitch": 70, "duration": 10, "velocity": 78}, {"time": 136140, "pitch": 38, "duration": 10, "velocity": 36}, {"time": 136200, "pitch": 38, "duration": 10, "velocity": 22}, {"time": 136200, "pitch": 70, "duration": 10, "velocity": 36}, {"time": 136220, "pitch": 56, "duration": 10, "velocity": 22}, {"time": 136220, "pitch": 68, "duration": 10, "velocity": 92}, {"time": 136220, "pitch": 69, "duration": 10, "velocity": 36}, {"time": 136260, "pitch": 38, "duration": 10, "velocity": 22}, {"time": 136320, "pitch": 28, "duration": 10, "velocity": 64}, {"time": 136320, "pitch": 37, "duration": 10, "velocity": 106}, {"time": 136320, "pitch": 38, "duration": 10, "velocity": 36}, {"time": 136320, "pitch": 42, "duration": 10, "velocity": 92}, {"time": 136320, "pitch": 56, "duration": 10, "velocity": 64}, {"time": 136320, "pitch": 69, "duration": 10, "velocity": 64}, {"time": 136320, "pitch": 70, "duration": 10, "velocity": 78}, {"time": 136440, "pitch": 38, "duration": 10, "velocity": 22}, {"time": 136440, "pitch": 70, "duration": 10, "velocity": 36}, {"time": 136460, "pitch": 56, "duration": 10, "velocity": 22}, {"time": 136460, "pitch": 67, "duration": 10, "velocity": 92}, {"time": 136460, "pitch": 69, "duration": 10, "velocity": 36}, {"time": 136460, "pitch": 72, "duration": 210, "velocity": 78}, {"time": 136560, "pitch": 38, "duration": 10, "velocity": 78}, {"time": 136560, "pitch": 42, "duration": 10, "velocity": 64}, {"time": 136560, "pitch": 56, "duration": 10, "velocity": 22}, {"time": 136560, "pitch": 69, "duration": 10, "velocity": 50}, {"time": 136560, "pitch": 70, "duration": 10, "velocity": 78}, {"time": 136680, "pitch": 28, "duration": 10, "velocity": 64}, {"time": 136680, "pitch": 37, "duration": 10, "velocity": 106}, {"time": 136680, "pitch": 38, "duration": 10, "velocity": 36}, {"time": 136680, "pitch": 70, "duration": 10, "velocity": 36}, {"time": 136700, "pitch": 56, "duration": 10, "velocity": 64}, {"time": 136700, "pitch": 67, "duration": 10, "velocity": 64}, {"time": 136700, "pitch": 69, "duration": 10, "velocity": 36}, {"time": 136700, "pitch": 72, "duration": 100, "velocity": 64}, {"time": 136800, "pitch": 38, "duration": 10, "velocity": 50}, {"time": 136800, "pitch": 39, "duration": 10, "velocity": 120}, {"time": 136800, "pitch": 40, "duration": 10, "velocity": 106}, {"time": 136800, "pitch": 42, "duration": 10, "velocity": 92}, {"time": 136800, "pitch": 56, "duration": 10, "velocity": 22}, {"time": 136800, "pitch": 67, "duration": 10, "velocity": 92}, {"time": 136800, "pitch": 69, "duration": 10, "velocity": 64}, {"time": 136800, "pitch": 70, "duration": 10, "velocity": 78}, {"time": 136800, "pitch": 72, "duration": 220, "velocity": 64}, {"time": 136860, "pitch": 38, "duration": 10, "velocity": 36}, {"time": 136920, "pitch": 38, "duration": 10, "velocity": 36}, {"time": 136920, "pitch": 70, "duration": 10, "velocity": 36}, {"time": 136940, "pitch": 56, "duration": 10, "velocity": 22}, {"time": 136940, "pitch": 69, "duration": 10, "velocity": 36}, {"time": 136980, "pitch": 38, "duration": 10, "velocity": 36}, {"time": 137040, "pitch": 28, "duration": 10, "velocity": 64}, {"time": 137040, "pitch": 37, "duration": 10, "velocity": 106}, {"time": 137040, "pitch": 38, "duration": 10, "velocity": 22}, {"time": 137040, "pitch": 42, "duration": 10, "velocity": 64}, {"time": 137040, "pitch": 56, "duration": 10, "velocity": 36}, {"time": 137040, "pitch": 68, "duration": 10, "velocity": 78}, {"time": 137040, "pitch": 69, "duration": 10, "velocity": 50}, {"time": 137040, "pitch": 70, "duration": 10, "velocity": 78}, {"time": 137040, "pitch": 72, "duration": 100, "velocity": 64}, {"time": 137100, "pitch": 38, "duration": 10, "velocity": 36}, {"time": 137160, "pitch": 38, "duration": 10, "velocity": 22}, {"time": 137160, "pitch": 70, "duration": 10, "velocity": 36}, {"time": 137180, "pitch": 56, "duration": 10, "velocity": 22}, {"time": 137180, "pitch": 68, "duration": 10, "velocity": 92}, {"time": 137180, "pitch": 69, "duration": 10, "velocity": 36}, {"time": 137180, "pitch": 72, "duration": 100, "velocity": 64}, {"time": 137220, "pitch": 38, "duration": 10, "velocity": 22}, {"time": 137280, "pitch": 38, "duration": 10, "velocity": 50}, {"time": 137280, "pitch": 42, "duration": 10, "velocity": 64}, {"time": 137280, "pitch": 68, "duration": 10, "velocity": 92}, {"time": 137280, "pitch": 69, "duration": 10, "velocity": 64}, {"time": 137280, "pitch": 70, "duration": 10, "velocity": 78}, {"time": 137280, "pitch": 72, "duration": 720, "velocity": 78}, {"time": 137400, "pitch": 38, "duration": 10, "velocity": 22}, {"time": 137400, "pitch": 70, "duration": 10, "velocity": 36}, {"time": 137420, "pitch": 69, "duration": 10, "velocity": 36}, {"time": 137520, "pitch": 28, "duration": 10, "velocity": 64}, {"time": 137520, "pitch": 37, "duration": 10, "velocity": 106}, {"time": 137520, "pitch": 38, "duration": 10, "velocity": 78}, {"time": 137520, "pitch": 42, "duration": 10, "velocity": 92}, {"time": 137520, "pitch": 56, "duration": 10, "velocity": 64}, {"time": 137520, "pitch": 67, "duration": 10, "velocity": 92}, {"time": 137520, "pitch": 69, "duration": 10, "velocity": 50}, {"time": 137520, "pitch": 70, "duration": 10, "velocity": 78}, {"time": 137640, "pitch": 38, "duration": 10, "velocity": 22}, {"time": 137640, "pitch": 70, "duration": 10, "velocity": 36}, {"time": 137660, "pitch": 56, "duration": 10, "velocity": 36}, {"time": 137660, "pitch": 69, "duration": 10, "velocity": 36}, {"time": 137760, "pitch": 38, "duration": 10, "velocity": 50}, {"time": 137760, "pitch": 39, "duration": 10, "velocity": 120}, {"time": 137760, "pitch": 40, "duration": 10, "velocity": 106}, {"time": 137760, "pitch": 42, "duration": 10, "velocity": 92}, {"time": 137760, "pitch": 56, "duration": 10, "velocity": 50}, {"time": 137760, "pitch": 67, "duration": 10, "velocity": 92}, {"time": 137760, "pitch": 69, "duration": 10, "velocity": 64}, {"time": 137760, "pitch": 70, "duration": 10, "velocity": 78}, {"time": 137820, "pitch": 38, "duration": 10, "velocity": 36}, {"time": 137880, "pitch": 28, "duration": 10, "velocity": 64}, {"time": 137880, "pitch": 37, "duration": 10, "velocity": 106}, {"time": 137880, "pitch": 38, "duration": 10, "velocity": 36}, {"time": 137880, "pitch": 70, "duration": 10, "velocity": 36}, {"time": 137900, "pitch": 56, "duration": 10, "velocity": 36}, {"time": 137900, "pitch": 68, "duration": 10, "velocity": 64}, {"time": 137900, "pitch": 69, "duration": 10, "velocity": 36}, {"time": 137940, "pitch": 38, "duration": 10, "velocity": 36}, {"time": 138000, "pitch": 38, "duration": 10, "velocity": 22}, {"time": 138000, "pitch": 42, "duration": 10, "velocity": 64}, {"time": 138000, "pitch": 56, "duration": 10, "velocity": 22}, {"time": 138000, "pitch": 69, "duration": 10, "velocity": 50}, {"time": 138000, "pitch": 70, "duration": 10, "velocity": 78}, {"time": 138060, "pitch": 38, "duration": 10, "velocity": 36}, {"time": 138120, "pitch": 38, "duration": 10, "velocity": 22}, {"time": 138120, "pitch": 70, "duration": 10, "velocity": 36}, {"time": 138140, "pitch": 56, "duration": 10, "velocity": 22}, {"time": 138140, "pitch": 68, "duration": 10, "velocity": 92}, {"time": 138140, "pitch": 69, "duration": 10, "velocity": 36}, {"time": 138180, "pitch": 38, "duration": 10, "velocity": 22}, {"time": 138240, "pitch": 28, "duration": 10, "velocity": 64}, {"time": 138240, "pitch": 37, "duration": 10, "velocity": 106}, {"time": 138240, "pitch": 38, "duration": 10, "velocity": 36}, {"time": 138240, "pitch": 42, "duration": 10, "velocity": 92}, {"time": 138240, "pitch": 56, "duration": 10, "velocity": 64}, {"time": 138240, "pitch": 69, "duration": 10, "velocity": 64}, {"time": 138240, "pitch": 70, "duration": 10, "velocity": 78}, {"time": 138360, "pitch": 38, "duration": 10, "velocity": 22}, {"time": 138360, "pitch": 70, "duration": 10, "velocity": 36}, {"time": 138380, "pitch": 56, "duration": 10, "velocity": 22}, {"time": 138380, "pitch": 67, "duration": 10, "velocity": 92}, {"time": 138380, "pitch": 69, "duration": 10, "velocity": 36}, {"time": 138380, "pitch": 72, "duration": 80, "velocity": 78}, {"time": 138480, "pitch": 38, "duration": 10, "velocity": 78}, {"time": 138480, "pitch": 42, "duration": 10, "velocity": 64}, {"time": 138480, "pitch": 56, "duration": 10, "velocity": 22}, {"time": 138480, "pitch": 69, "duration": 10, "velocity": 50}, {"time": 138480, "pitch": 70, "duration": 10, "velocity": 78}, {"time": 138480, "pitch": 72, "duration": 90, "velocity": 78}, {"time": 138600, "pitch": 28, "duration": 10, "velocity": 64}, {"time": 138600, "pitch": 37, "duration": 10, "velocity": 106}, {"time": 138600, "pitch": 38, "duration": 10, "velocity": 36}, {"time": 138600, "pitch": 70, "duration": 10, "velocity": 36}, {"time": 138620, "pitch": 56, "duration": 10, "velocity": 64}, {"time": 138620, "pitch": 67, "duration": 10, "velocity": 64}, {"time": 138620, "pitch": 69, "duration": 10, "velocity": 36}, {"time": 138620, "pitch": 72, "duration": 90, "velocity": 78}, {"time": 138720, "pitch": 38, "duration": 10, "velocity": 50}, {"time": 138720, "pitch": 39, "duration": 10, "velocity": 120}, {"time": 138720, "pitch": 40, "duration": 10, "velocity": 106}, {"time": 138720, "pitch": 42, "duration": 10, "velocity": 92}, {"time": 138720, "pitch": 56, "duration": 10, "velocity": 22}, {"time": 138720, "pitch": 67, "duration": 10, "velocity": 92}, {"time": 138720, "pitch": 69, "duration": 10, "velocity": 64}, {"time": 138720, "pitch": 70, "duration": 10, "velocity": 78}, {"time": 138720, "pitch": 72, "duration": 230, "velocity": 78}, {"time": 138780, "pitch": 38, "duration": 10, "velocity": 36}, {"time": 138840, "pitch": 38, "duration": 10, "velocity": 36}, {"time": 138840, "pitch": 70, "duration": 10, "velocity": 36}, {"time": 138860, "pitch": 56, "duration": 10, "velocity": 22}, {"time": 138860, "pitch": 69, "duration": 10, "velocity": 36}, {"time": 138900, "pitch": 38, "duration": 10, "velocity": 36}, {"time": 138960, "pitch": 28, "duration": 10, "velocity": 64}, {"time": 138960, "pitch": 37, "duration": 10, "velocity": 106}, {"time": 138960, "pitch": 38, "duration": 10, "velocity": 22}, {"time": 138960, "pitch": 42, "duration": 10, "velocity": 64}, {"time": 138960, "pitch": 56, "duration": 10, "velocity": 36}, {"time": 138960, "pitch": 68, "duration": 10, "velocity": 78}, {"time": 138960, "pitch": 69, "duration": 10, "velocity": 22}, {"time": 138960, "pitch": 70, "duration": 10, "velocity": 78}, {"time": 138960, "pitch": 72, "duration": 100, "velocity": 78}, {"time": 138990, "pitch": 69, "duration": 10, "velocity": 36}, {"time": 139020, "pitch": 38, "duration": 10, "velocity": 36}, {"time": 139020, "pitch": 69, "duration": 10, "velocity": 36}, {"time": 139050, "pitch": 69, "duration": 10, "velocity": 50}, {"time": 139080, "pitch": 38, "duration": 10, "velocity": 22}, {"time": 139080, "pitch": 56, "duration": 10, "velocity": 22}, {"time": 139080, "pitch": 68, "duration": 10, "velocity": 92}, {"time": 139080, "pitch": 69, "duration": 10, "velocity": 50}, {"time": 139080, "pitch": 70, "duration": 10, "velocity": 36}, {"time": 139110, "pitch": 69, "duration": 10, "velocity": 64}, {"time": 139140, "pitch": 38, "duration": 10, "velocity": 22}, {"time": 139140, "pitch": 69, "duration": 10, "velocity": 64}, {"time": 139170, "pitch": 69, "duration": 10, "velocity": 64}, {"time": 139200, "pitch": 38, "duration": 10, "velocity": 50}, {"time": 139200, "pitch": 42, "duration": 10, "velocity": 64}, {"time": 139200, "pitch": 57, "duration": 10, "velocity": 92}, {"time": 139200, "pitch": 68, "duration": 10, "velocity": 92}, {"time": 139200, "pitch": 69, "duration": 10, "velocity": 64}, {"time": 139200, "pitch": 70, "duration": 10, "velocity": 78}, {"time": 139320, "pitch": 38, "duration": 10, "velocity": 22}, {"time": 139320, "pitch": 70, "duration": 10, "velocity": 36}, {"time": 139340, "pitch": 69, "duration": 10, "velocity": 36}, {"time": 139440, "pitch": 28, "duration": 10, "velocity": 64}, {"time": 139440, "pitch": 37, "duration": 10, "velocity": 106}, {"time": 139440, "pitch": 38, "duration": 10, "velocity": 78}, {"time": 139440, "pitch": 42, "duration": 10, "velocity": 92}, {"time": 139440, "pitch": 56, "duration": 10, "velocity": 64}, {"time": 139440, "pitch": 67, "duration": 10, "velocity": 92}, {"time": 139440, "pitch": 69, "duration": 10, "velocity": 50}, {"time": 139440, "pitch": 70, "duration": 10, "velocity": 78}, {"time": 139560, "pitch": 38, "duration": 10, "velocity": 22}, {"time": 139560, "pitch": 70, "duration": 10, "velocity": 36}, {"time": 139580, "pitch": 56, "duration": 10, "velocity": 36}, {"time": 139580, "pitch": 69, "duration": 10, "velocity": 36}, {"time": 139680, "pitch": 28, "duration": 10, "velocity": 64}, {"time": 139680, "pitch": 37, "duration": 10, "velocity": 106}, {"time": 139680, "pitch": 38, "duration": 10, "velocity": 50}, {"time": 139680, "pitch": 39, "duration": 10, "velocity": 120}, {"time": 139680, "pitch": 40, "duration": 10, "velocity": 106}, {"time": 139680, "pitch": 42, "duration": 10, "velocity": 92}, {"time": 139680, "pitch": 56, "duration": 10, "velocity": 50}, {"time": 139680, "pitch": 67, "duration": 10, "velocity": 92}, {"time": 139680, "pitch": 69, "duration": 10, "velocity": 64}, {"time": 139680, "pitch": 70, "duration": 10, "velocity": 78}, {"time": 139740, "pitch": 38, "duration": 10, "velocity": 36}, {"time": 139800, "pitch": 38, "duration": 10, "velocity": 36}, {"time": 139800, "pitch": 70, "duration": 10, "velocity": 36}, {"time": 139820, "pitch": 56, "duration": 10, "velocity": 36}, {"time": 139820, "pitch": 68, "duration": 10, "velocity": 64}, {"time": 139820, "pitch": 69, "duration": 10, "velocity": 36}, {"time": 139860, "pitch": 38, "duration": 10, "velocity": 36}, {"time": 139920, "pitch": 38, "duration": 10, "velocity": 22}, {"time": 139920, "pitch": 42, "duration": 10, "velocity": 64}, {"time": 139920, "pitch": 56, "duration": 10, "velocity": 22}, {"time": 139920, "pitch": 69, "duration": 10, "velocity": 50}, {"time": 139920, "pitch": 70, "duration": 10, "velocity": 78}, {"time": 139980, "pitch": 38, "duration": 10, "velocity": 36}, {"time": 140040, "pitch": 38, "duration": 10, "velocity": 22}, {"time": 140040, "pitch": 70, "duration": 10, "velocity": 36}, {"time": 140060, "pitch": 56, "duration": 10, "velocity": 22}, {"time": 140060, "pitch": 68, "duration": 10, "velocity": 92}, {"time": 140060, "pitch": 69, "duration": 10, "velocity": 36}, {"time": 140100, "pitch": 38, "duration": 10, "velocity": 22}, {"time": 140160, "pitch": 28, "duration": 10, "velocity": 64}, {"time": 140160, "pitch": 37, "duration": 10, "velocity": 106}, {"time": 140160, "pitch": 38, "duration": 10, "velocity": 36}, {"time": 140160, "pitch": 42, "duration": 10, "velocity": 92}, {"time": 140160, "pitch": 56, "duration": 10, "velocity": 64}, {"time": 140160, "pitch": 69, "duration": 10, "velocity": 64}, {"time": 140160, "pitch": 70, "duration": 10, "velocity": 78}, {"time": 140280, "pitch": 38, "duration": 10, "velocity": 22}, {"time": 140280, "pitch": 70, "duration": 10, "velocity": 36}, {"time": 140300, "pitch": 56, "duration": 10, "velocity": 22}, {"time": 140300, "pitch": 67, "duration": 10, "velocity": 92}, {"time": 140300, "pitch": 69, "duration": 10, "velocity": 36}, {"time": 140300, "pitch": 72, "duration": 210, "velocity": 78}, {"time": 140400, "pitch": 38, "duration": 10, "velocity": 78}, {"time": 140400, "pitch": 42, "duration": 10, "velocity": 64}, {"time": 140400, "pitch": 56, "duration": 10, "velocity": 22}, {"time": 140400, "pitch": 69, "duration": 10, "velocity": 50}, {"time": 140400, "pitch": 70, "duration": 10, "velocity": 78}, {"time": 140520, "pitch": 28, "duration": 10, "velocity": 64}, {"time": 140520, "pitch": 37, "duration": 10, "velocity": 106}, {"time": 140520, "pitch": 38, "duration": 10, "velocity": 36}, {"time": 140520, "pitch": 70, "duration": 10, "velocity": 36}, {"time": 140540, "pitch": 56, "duration": 10, "velocity": 64}, {"time": 140540, "pitch": 67, "duration": 10, "velocity": 64}, {"time": 140540, "pitch": 69, "duration": 10, "velocity": 36}, {"time": 140540, "pitch": 72, "duration": 100, "velocity": 64}, {"time": 140640, "pitch": 38, "duration": 10, "velocity": 50}, {"time": 140640, "pitch": 39, "duration": 10, "velocity": 120}, {"time": 140640, "pitch": 40, "duration": 10, "velocity": 106}, {"time": 140640, "pitch": 42, "duration": 10, "velocity": 92}, {"time": 140640, "pitch": 56, "duration": 10, "velocity": 22}, {"time": 140640, "pitch": 67, "duration": 10, "velocity": 92}, {"time": 140640, "pitch": 69, "duration": 10, "velocity": 64}, {"time": 140640, "pitch": 70, "duration": 10, "velocity": 78}, {"time": 140640, "pitch": 72, "duration": 220, "velocity": 64}, {"time": 140700, "pitch": 38, "duration": 10, "velocity": 36}, {"time": 140760, "pitch": 38, "duration": 10, "velocity": 36}, {"time": 140760, "pitch": 70, "duration": 10, "velocity": 36}, {"time": 140780, "pitch": 56, "duration": 10, "velocity": 22}, {"time": 140780, "pitch": 69, "duration": 10, "velocity": 36}, {"time": 140820, "pitch": 38, "duration": 10, "velocity": 36}, {"time": 140880, "pitch": 28, "duration": 10, "velocity": 64}, {"time": 140880, "pitch": 37, "duration": 10, "velocity": 106}, {"time": 140880, "pitch": 38, "duration": 10, "velocity": 22}, {"time": 140880, "pitch": 42, "duration": 10, "velocity": 64}, {"time": 140880, "pitch": 56, "duration": 10, "velocity": 36}, {"time": 140880, "pitch": 68, "duration": 10, "velocity": 78}, {"time": 140880, "pitch": 69, "duration": 10, "velocity": 50}, {"time": 140880, "pitch": 70, "duration": 10, "velocity": 78}, {"time": 140880, "pitch": 72, "duration": 100, "velocity": 64}, {"time": 140940, "pitch": 38, "duration": 10, "velocity": 36}, {"time": 141000, "pitch": 38, "duration": 10, "velocity": 22}, {"time": 141000, "pitch": 70, "duration": 10, "velocity": 36}, {"time": 141020, "pitch": 56, "duration": 10, "velocity": 22}, {"time": 141020, "pitch": 68, "duration": 10, "velocity": 92}, {"time": 141020, "pitch": 69, "duration": 10, "velocity": 36}, {"time": 141020, "pitch": 72, "duration": 100, "velocity": 64}, {"time": 141060, "pitch": 38, "duration": 10, "velocity": 22}, {"time": 141120, "pitch": 38, "duration": 10, "velocity": 50}, {"time": 141120, "pitch": 42, "duration": 10, "velocity": 64}, {"time": 141120, "pitch": 68, "duration": 10, "velocity": 92}, {"time": 141120, "pitch": 69, "duration": 10, "velocity": 64}, {"time": 141120, "pitch": 70, "duration": 10, "velocity": 78}, {"time": 141120, "pitch": 72, "duration": 720, "velocity": 78}, {"time": 141240, "pitch": 38, "duration": 10, "velocity": 22}, {"time": 141240, "pitch": 70, "duration": 10, "velocity": 36}, {"time": 141260, "pitch": 69, "duration": 10, "velocity": 36}, {"time": 141360, "pitch": 28, "duration": 10, "velocity": 64}, {"time": 141360, "pitch": 37, "duration": 10, "velocity": 106}, {"time": 141360, "pitch": 38, "duration": 10, "velocity": 78}, {"time": 141360, "pitch": 42, "duration": 10, "velocity": 92}, {"time": 141360, "pitch": 56, "duration": 10, "velocity": 64}, {"time": 141360, "pitch": 67, "duration": 10, "velocity": 92}, {"time": 141360, "pitch": 69, "duration": 10, "velocity": 50}, {"time": 141360, "pitch": 70, "duration": 10, "velocity": 78}, {"time": 141480, "pitch": 38, "duration": 10, "velocity": 22}, {"time": 141480, "pitch": 70, "duration": 10, "velocity": 36}, {"time": 141500, "pitch": 56, "duration": 10, "velocity": 36}, {"time": 141500, "pitch": 69, "duration": 10, "velocity": 36}, {"time": 141600, "pitch": 38, "duration": 10, "velocity": 50}, {"time": 141600, "pitch": 39, "duration": 10, "velocity": 120}, {"time": 141600, "pitch": 40, "duration": 10, "velocity": 106}, {"time": 141600, "pitch": 42, "duration": 10, "velocity": 92}, {"time": 141600, "pitch": 56, "duration": 10, "velocity": 50}, {"time": 141600, "pitch": 67, "duration": 10, "velocity": 92}, {"time": 141600, "pitch": 69, "duration": 10, "velocity": 64}, {"time": 141600, "pitch": 70, "duration": 10, "velocity": 78}, {"time": 141660, "pitch": 38, "duration": 10, "velocity": 36}, {"time": 141720, "pitch": 28, "duration": 10, "velocity": 64}, {"time": 141720, "pitch": 37, "duration": 10, "velocity": 106}, {"time": 141720, "pitch": 38, "duration": 10, "velocity": 36}, {"time": 141720, "pitch": 70, "duration": 10, "velocity": 36}, {"time": 141740, "pitch": 56, "duration": 10, "velocity": 36}, {"time": 141740, "pitch": 68, "duration": 10, "velocity": 64}, {"time": 141740, "pitch": 69, "duration": 10, "velocity": 36}, {"time": 141780, "pitch": 38, "duration": 10, "velocity": 36}, {"time": 141840, "pitch": 38, "duration": 10, "velocity": 22}, {"time": 141840, "pitch": 42, "duration": 10, "velocity": 64}, {"time": 141840, "pitch": 56, "duration": 10, "velocity": 22}, {"time": 141840, "pitch": 69, "duration": 10, "velocity": 50}, {"time": 141840, "pitch": 70, "duration": 10, "velocity": 78}, {"time": 141900, "pitch": 38, "duration": 10, "velocity": 36}, {"time": 141960, "pitch": 38, "duration": 10, "velocity": 22}, {"time": 141960, "pitch": 70, "duration": 10, "velocity": 36}, {"time": 141980, "pitch": 56, "duration": 10, "velocity": 22}, {"time": 141980, "pitch": 68, "duration": 10, "velocity": 92}, {"time": 141980, "pitch": 69, "duration": 10, "velocity": 36}, {"time": 142020, "pitch": 38, "duration": 10, "velocity": 22}, {"time": 142080, "pitch": 28, "duration": 10, "velocity": 64}, {"time": 142080, "pitch": 37, "duration": 10, "velocity": 106}, {"time": 142080, "pitch": 38, "duration": 10, "velocity": 36}, {"time": 142080, "pitch": 42, "duration": 10, "velocity": 92}, {"time": 142080, "pitch": 56, "duration": 10, "velocity": 64}, {"time": 142080, "pitch": 69, "duration": 10, "velocity": 64}, {"time": 142080, "pitch": 70, "duration": 10, "velocity": 78}, {"time": 142200, "pitch": 38, "duration": 10, "velocity": 22}, {"time": 142200, "pitch": 70, "duration": 10, "velocity": 36}, {"time": 142220, "pitch": 56, "duration": 10, "velocity": 22}, {"time": 142220, "pitch": 67, "duration": 10, "velocity": 92}, {"time": 142220, "pitch": 69, "duration": 10, "velocity": 36}, {"time": 142220, "pitch": 72, "duration": 80, "velocity": 78}, {"time": 142320, "pitch": 38, "duration": 10, "velocity": 78}, {"time": 142320, "pitch": 42, "duration": 10, "velocity": 64}, {"time": 142320, "pitch": 56, "duration": 10, "velocity": 22}, {"time": 142320, "pitch": 69, "duration": 10, "velocity": 50}, {"time": 142320, "pitch": 70, "duration": 10, "velocity": 78}, {"time": 142320, "pitch": 72, "duration": 90, "velocity": 78}, {"time": 142440, "pitch": 28, "duration": 10, "velocity": 64}, {"time": 142440, "pitch": 37, "duration": 10, "velocity": 106}, {"time": 142440, "pitch": 38, "duration": 10, "velocity": 36}, {"time": 142440, "pitch": 70, "duration": 10, "velocity": 36}, {"time": 142460, "pitch": 56, "duration": 10, "velocity": 64}, {"time": 142460, "pitch": 67, "duration": 10, "velocity": 64}, {"time": 142460, "pitch": 69, "duration": 10, "velocity": 36}, {"time": 142460, "pitch": 72, "duration": 90, "velocity": 78}, {"time": 142560, "pitch": 38, "duration": 10, "velocity": 50}, {"time": 142560, "pitch": 39, "duration": 10, "velocity": 120}, {"time": 142560, "pitch": 40, "duration": 10, "velocity": 106}, {"time": 142560, "pitch": 42, "duration": 10, "velocity": 92}, {"time": 142560, "pitch": 56, "duration": 10, "velocity": 22}, {"time": 142560, "pitch": 67, "duration": 10, "velocity": 92}, {"time": 142560, "pitch": 69, "duration": 10, "velocity": 64}, {"time": 142560, "pitch": 70, "duration": 10, "velocity": 78}, {"time": 142560, "pitch": 72, "duration": 230, "velocity": 78}, {"time": 142620, "pitch": 38, "duration": 10, "velocity": 36}, {"time": 142680, "pitch": 38, "duration": 10, "velocity": 36}, {"time": 142680, "pitch": 70, "duration": 10, "velocity": 36}, {"time": 142700, "pitch": 56, "duration": 10, "velocity": 22}, {"time": 142700, "pitch": 69, "duration": 10, "velocity": 36}, {"time": 142740, "pitch": 38, "duration": 10, "velocity": 36}, {"time": 142800, "pitch": 28, "duration": 10, "velocity": 64}, {"time": 142800, "pitch": 37, "duration": 10, "velocity": 106}, {"time": 142800, "pitch": 38, "duration": 10, "velocity": 22}, {"time": 142800, "pitch": 42, "duration": 10, "velocity": 64}, {"time": 142800, "pitch": 56, "duration": 10, "velocity": 36}, {"time": 142800, "pitch": 68, "duration": 10, "velocity": 78}, {"time": 142800, "pitch": 69, "duration": 10, "velocity": 22}, {"time": 142800, "pitch": 70, "duration": 10, "velocity": 78}, {"time": 142800, "pitch": 72, "duration": 100, "velocity": 78}, {"time": 142830, "pitch": 69, "duration": 10, "velocity": 36}, {"time": 142860, "pitch": 38, "duration": 10, "velocity": 36}, {"time": 142860, "pitch": 69, "duration": 10, "velocity": 36}, {"time": 142890, "pitch": 69, "duration": 10, "velocity": 50}, {"time": 142920, "pitch": 38, "duration": 10, "velocity": 22}, {"time": 142920, "pitch": 56, "duration": 10, "velocity": 22}, {"time": 142920, "pitch": 68, "duration": 10, "velocity": 92}, {"time": 142920, "pitch": 69, "duration": 10, "velocity": 50}, {"time": 142920, "pitch": 70, "duration": 10, "velocity": 36}, {"time": 142950, "pitch": 69, "duration": 10, "velocity": 64}, {"time": 142980, "pitch": 38, "duration": 10, "velocity": 22}, {"time": 142980, "pitch": 69, "duration": 10, "velocity": 64}, {"time": 143010, "pitch": 69, "duration": 10, "velocity": 64}, {"time": 143040, "pitch": 38, "duration": 10, "velocity": 50}, {"time": 143040, "pitch": 42, "duration": 10, "velocity": 64}, {"time": 143040, "pitch": 57, "duration": 10, "velocity": 78}, {"time": 143040, "pitch": 68, "duration": 10, "velocity": 92}, {"time": 143040, "pitch": 69, "duration": 10, "velocity": 64}, {"time": 143040, "pitch": 70, "duration": 10, "velocity": 78}, {"time": 143160, "pitch": 38, "duration": 10, "velocity": 22}, {"time": 143160, "pitch": 70, "duration": 10, "velocity": 36}, {"time": 143180, "pitch": 69, "duration": 10, "velocity": 36}, {"time": 143280, "pitch": 28, "duration": 10, "velocity": 64}, {"time": 143280, "pitch": 37, "duration": 10, "velocity": 106}, {"time": 143280, "pitch": 38, "duration": 10, "velocity": 78}, {"time": 143280, "pitch": 42, "duration": 10, "velocity": 92}, {"time": 143280, "pitch": 56, "duration": 10, "velocity": 64}, {"time": 143280, "pitch": 67, "duration": 10, "velocity": 92}, {"time": 143280, "pitch": 69, "duration": 10, "velocity": 50}, {"time": 143280, "pitch": 70, "duration": 10, "velocity": 78}, {"time": 143400, "pitch": 38, "duration": 10, "velocity": 22}, {"time": 143400, "pitch": 70, "duration": 10, "velocity": 36}, {"time": 143420, "pitch": 56, "duration": 10, "velocity": 36}, {"time": 143420, "pitch": 69, "duration": 10, "velocity": 36}, {"time": 143520, "pitch": 28, "duration": 10, "velocity": 64}, {"time": 143520, "pitch": 37, "duration": 10, "velocity": 106}, {"time": 143520, "pitch": 38, "duration": 10, "velocity": 50}, {"time": 143520, "pitch": 39, "duration": 10, "velocity": 120}, {"time": 143520, "pitch": 40, "duration": 10, "velocity": 106}, {"time": 143520, "pitch": 42, "duration": 10, "velocity": 92}, {"time": 143520, "pitch": 56, "duration": 10, "velocity": 50}, {"time": 143520, "pitch": 67, "duration": 10, "velocity": 92}, {"time": 143520, "pitch": 69, "duration": 10, "velocity": 64}, {"time": 143520, "pitch": 70, "duration": 10, "velocity": 78}, {"time": 143580, "pitch": 38, "duration": 10, "velocity": 36}, {"time": 143640, "pitch": 38, "duration": 10, "velocity": 36}, {"time": 143640, "pitch": 70, "duration": 10, "velocity": 36}, {"time": 143660, "pitch": 56, "duration": 10, "velocity": 36}, {"time": 143660, "pitch": 68, "duration": 10, "velocity": 64}, {"time": 143660, "pitch": 69, "duration": 10, "velocity": 36}, {"time": 143700, "pitch": 38, "duration": 10, "velocity": 36}, {"time": 143760, "pitch": 38, "duration": 10, "velocity": 22}, {"time": 143760, "pitch": 42, "duration": 10, "velocity": 64}, {"time": 143760, "pitch": 56, "duration": 10, "velocity": 22}, {"time": 143760, "pitch": 69, "duration": 10, "velocity": 50}, {"time": 143760, "pitch": 70, "duration": 10, "velocity": 78}, {"time": 143820, "pitch": 38, "duration": 10, "velocity": 36}, {"time": 143880, "pitch": 38, "duration": 10, "velocity": 22}, {"time": 143880, "pitch": 70, "duration": 10, "velocity": 36}, {"time": 143900, "pitch": 56, "duration": 10, "velocity": 22}, {"time": 143900, "pitch": 68, "duration": 10, "velocity": 92}, {"time": 143900, "pitch": 69, "duration": 10, "velocity": 36}, {"time": 143940, "pitch": 38, "duration": 10, "velocity": 22}, {"time": 144000, "pitch": 28, "duration": 10, "velocity": 64}, {"time": 144000, "pitch": 37, "duration": 10, "velocity": 106}, {"time": 144000, "pitch": 38, "duration": 10, "velocity": 36}, {"time": 144000, "pitch": 42, "duration": 10, "velocity": 92}, {"time": 144000, "pitch": 56, "duration": 10, "velocity": 64}, {"time": 144000, "pitch": 69, "duration": 10, "velocity": 64}, {"time": 144000, "pitch": 70, "duration": 10, "velocity": 78}, {"time": 144120, "pitch": 38, "duration": 10, "velocity": 22}, {"time": 144120, "pitch": 70, "duration": 10, "velocity": 36}, {"time": 144140, "pitch": 56, "duration": 10, "velocity": 22}, {"time": 144140, "pitch": 67, "duration": 10, "velocity": 92}, {"time": 144140, "pitch": 69, "duration": 10, "velocity": 36}, {"time": 144140, "pitch": 72, "duration": 210, "velocity": 78}, {"time": 144240, "pitch": 38, "duration": 10, "velocity": 78}, {"time": 144240, "pitch": 42, "duration": 10, "velocity": 64}, {"time": 144240, "pitch": 56, "duration": 10, "velocity": 22}, {"time": 144240, "pitch": 69, "duration": 10, "velocity": 50}, {"time": 144240, "pitch": 70, "duration": 10, "velocity": 78}, {"time": 144360, "pitch": 28, "duration": 10, "velocity": 64}, {"time": 144360, "pitch": 37, "duration": 10, "velocity": 106}, {"time": 144360, "pitch": 38, "duration": 10, "velocity": 36}, {"time": 144360, "pitch": 70, "duration": 10, "velocity": 36}, {"time": 144380, "pitch": 56, "duration": 10, "velocity": 64}, {"time": 144380, "pitch": 67, "duration": 10, "velocity": 64}, {"time": 144380, "pitch": 69, "duration": 10, "velocity": 36}, {"time": 144380, "pitch": 72, "duration": 100, "velocity": 64}, {"time": 144480, "pitch": 38, "duration": 10, "velocity": 50}, {"time": 144480, "pitch": 39, "duration": 10, "velocity": 120}, {"time": 144480, "pitch": 40, "duration": 10, "velocity": 106}, {"time": 144480, "pitch": 42, "duration": 10, "velocity": 92}, {"time": 144480, "pitch": 56, "duration": 10, "velocity": 22}, {"time": 144480, "pitch": 67, "duration": 10, "velocity": 92}, {"time": 144480, "pitch": 69, "duration": 10, "velocity": 64}, {"time": 144480, "pitch": 70, "duration": 10, "velocity": 78}, {"time": 144480, "pitch": 72, "duration": 220, "velocity": 64}, {"time": 144540, "pitch": 38, "duration": 10, "velocity": 36}, {"time": 144600, "pitch": 38, "duration": 10, "velocity": 36}, {"time": 144600, "pitch": 70, "duration": 10, "velocity": 36}, {"time": 144620, "pitch": 56, "duration": 10, "velocity": 22}, {"time": 144620, "pitch": 69, "duration": 10, "velocity": 36}, {"time": 144660, "pitch": 38, "duration": 10, "velocity": 36}, {"time": 144720, "pitch": 28, "duration": 10, "velocity": 64}, {"time": 144720, "pitch": 37, "duration": 10, "velocity": 106}, {"time": 144720, "pitch": 38, "duration": 10, "velocity": 22}, {"time": 144720, "pitch": 42, "duration": 10, "velocity": 64}, {"time": 144720, "pitch": 56, "duration": 10, "velocity": 36}, {"time": 144720, "pitch": 68, "duration": 10, "velocity": 78}, {"time": 144720, "pitch": 69, "duration": 10, "velocity": 50}, {"time": 144720, "pitch": 70, "duration": 10, "velocity": 78}, {"time": 144720, "pitch": 72, "duration": 100, "velocity": 64}, {"time": 144780, "pitch": 38, "duration": 10, "velocity": 36}, {"time": 144840, "pitch": 38, "duration": 10, "velocity": 22}, {"time": 144840, "pitch": 70, "duration": 10, "velocity": 36}, {"time": 144860, "pitch": 56, "duration": 10, "velocity": 22}, {"time": 144860, "pitch": 68, "duration": 10, "velocity": 92}, {"time": 144860, "pitch": 69, "duration": 10, "velocity": 36}, {"time": 144860, "pitch": 72, "duration": 100, "velocity": 64}, {"time": 144900, "pitch": 38, "duration": 10, "velocity": 22}, {"time": 144960, "pitch": 38, "duration": 10, "velocity": 50}, {"time": 144960, "pitch": 42, "duration": 10, "velocity": 64}, {"time": 144960, "pitch": 68, "duration": 10, "velocity": 92}, {"time": 144960, "pitch": 69, "duration": 10, "velocity": 64}, {"time": 144960, "pitch": 70, "duration": 10, "velocity": 78}, {"time": 144960, "pitch": 72, "duration": 720, "velocity": 78}, {"time": 145080, "pitch": 38, "duration": 10, "velocity": 22}, {"time": 145080, "pitch": 70, "duration": 10, "velocity": 36}, {"time": 145100, "pitch": 69, "duration": 10, "velocity": 36}, {"time": 145200, "pitch": 28, "duration": 10, "velocity": 64}, {"time": 145200, "pitch": 37, "duration": 10, "velocity": 106}, {"time": 145200, "pitch": 38, "duration": 10, "velocity": 78}, {"time": 145200, "pitch": 42, "duration": 10, "velocity": 92}, {"time": 145200, "pitch": 56, "duration": 10, "velocity": 64}, {"time": 145200, "pitch": 67, "duration": 10, "velocity": 92}, {"time": 145200, "pitch": 69, "duration": 10, "velocity": 50}, {"time": 145200, "pitch": 70, "duration": 10, "velocity": 78}, {"time": 145320, "pitch": 38, "duration": 10, "velocity": 22}, {"time": 145320, "pitch": 70, "duration": 10, "velocity": 36}, {"time": 145340, "pitch": 56, "duration": 10, "velocity": 36}, {"time": 145340, "pitch": 69, "duration": 10, "velocity": 36}, {"time": 145440, "pitch": 38, "duration": 10, "velocity": 50}, {"time": 145440, "pitch": 39, "duration": 10, "velocity": 120}, {"time": 145440, "pitch": 40, "duration": 10, "velocity": 106}, {"time": 145440, "pitch": 42, "duration": 10, "velocity": 92}, {"time": 145440, "pitch": 56, "duration": 10, "velocity": 50}, {"time": 145440, "pitch": 67, "duration": 10, "velocity": 92}, {"time": 145440, "pitch": 69, "duration": 10, "velocity": 64}, {"time": 145440, "pitch": 70, "duration": 10, "velocity": 78}, {"time": 145500, "pitch": 38, "duration": 10, "velocity": 36}, {"time": 145560, "pitch": 28, "duration": 10, "velocity": 64}, {"time": 145560, "pitch": 37, "duration": 10, "velocity": 106}, {"time": 145560, "pitch": 38, "duration": 10, "velocity": 36}, {"time": 145560, "pitch": 70, "duration": 10, "velocity": 36}, {"time": 145580, "pitch": 56, "duration": 10, "velocity": 36}, {"time": 145580, "pitch": 68, "duration": 10, "velocity": 64}, {"time": 145580, "pitch": 69, "duration": 10, "velocity": 36}, {"time": 145620, "pitch": 38, "duration": 10, "velocity": 36}, {"time": 145680, "pitch": 38, "duration": 10, "velocity": 22}, {"time": 145680, "pitch": 42, "duration": 10, "velocity": 64}, {"time": 145680, "pitch": 56, "duration": 10, "velocity": 22}, {"time": 145680, "pitch": 69, "duration": 10, "velocity": 50}, {"time": 145680, "pitch": 70, "duration": 10, "velocity": 78}, {"time": 145740, "pitch": 38, "duration": 10, "velocity": 36}, {"time": 145800, "pitch": 38, "duration": 10, "velocity": 22}, {"time": 145800, "pitch": 70, "duration": 10, "velocity": 36}, {"time": 145820, "pitch": 56, "duration": 10, "velocity": 22}, {"time": 145820, "pitch": 68, "duration": 10, "velocity": 92}, {"time": 145820, "pitch": 69, "duration": 10, "velocity": 36}, {"time": 145860, "pitch": 38, "duration": 10, "velocity": 22}, {"time": 145920, "pitch": 28, "duration": 10, "velocity": 64}, {"time": 145920, "pitch": 37, "duration": 10, "velocity": 106}, {"time": 145920, "pitch": 38, "duration": 10, "velocity": 36}, {"time": 145920, "pitch": 42, "duration": 10, "velocity": 92}, {"time": 145920, "pitch": 56, "duration": 10, "velocity": 64}, {"time": 145920, "pitch": 69, "duration": 10, "velocity": 64}, {"time": 145920, "pitch": 70, "duration": 10, "velocity": 78}, {"time": 146040, "pitch": 38, "duration": 10, "velocity": 22}, {"time": 146040, "pitch": 70, "duration": 10, "velocity": 36}, {"time": 146060, "pitch": 56, "duration": 10, "velocity": 22}, {"time": 146060, "pitch": 67, "duration": 10, "velocity": 92}, {"time": 146060, "pitch": 69, "duration": 10, "velocity": 36}, {"time": 146060, "pitch": 72, "duration": 80, "velocity": 78}, {"time": 146160, "pitch": 38, "duration": 10, "velocity": 78}, {"time": 146160, "pitch": 42, "duration": 10, "velocity": 64}, {"time": 146160, "pitch": 56, "duration": 10, "velocity": 22}, {"time": 146160, "pitch": 69, "duration": 10, "velocity": 50}, {"time": 146160, "pitch": 70, "duration": 10, "velocity": 78}, {"time": 146160, "pitch": 72, "duration": 90, "velocity": 78}, {"time": 146280, "pitch": 28, "duration": 10, "velocity": 64}, {"time": 146280, "pitch": 37, "duration": 10, "velocity": 106}, {"time": 146280, "pitch": 38, "duration": 10, "velocity": 36}, {"time": 146280, "pitch": 70, "duration": 10, "velocity": 36}, {"time": 146300, "pitch": 56, "duration": 10, "velocity": 64}, {"time": 146300, "pitch": 67, "duration": 10, "velocity": 64}, {"time": 146300, "pitch": 69, "duration": 10, "velocity": 36}, {"time": 146300, "pitch": 72, "duration": 90, "velocity": 78}, {"time": 146400, "pitch": 38, "duration": 10, "velocity": 50}, {"time": 146400, "pitch": 39, "duration": 10, "velocity": 120}, {"time": 146400, "pitch": 40, "duration": 10, "velocity": 106}, {"time": 146400, "pitch": 42, "duration": 10, "velocity": 92}, {"time": 146400, "pitch": 56, "duration": 10, "velocity": 22}, {"time": 146400, "pitch": 67, "duration": 10, "velocity": 92}, {"time": 146400, "pitch": 69, "duration": 10, "velocity": 64}, {"time": 146400, "pitch": 70, "duration": 10, "velocity": 78}, {"time": 146400, "pitch": 72, "duration": 230, "velocity": 78}, {"time": 146460, "pitch": 38, "duration": 10, "velocity": 36}, {"time": 146520, "pitch": 38, "duration": 10, "velocity": 36}, {"time": 146520, "pitch": 70, "duration": 10, "velocity": 36}, {"time": 146540, "pitch": 56, "duration": 10, "velocity": 22}, {"time": 146540, "pitch": 69, "duration": 10, "velocity": 36}, {"time": 146580, "pitch": 38, "duration": 10, "velocity": 36}, {"time": 146640, "pitch": 28, "duration": 10, "velocity": 64}, {"time": 146640, "pitch": 37, "duration": 10, "velocity": 106}, {"time": 146640, "pitch": 38, "duration": 10, "velocity": 22}, {"time": 146640, "pitch": 42, "duration": 10, "velocity": 64}, {"time": 146640, "pitch": 56, "duration": 10, "velocity": 36}, {"time": 146640, "pitch": 68, "duration": 10, "velocity": 78}, {"time": 146640, "pitch": 69, "duration": 10, "velocity": 22}, {"time": 146640, "pitch": 70, "duration": 10, "velocity": 78}, {"time": 146640, "pitch": 72, "duration": 100, "velocity": 78}, {"time": 146670, "pitch": 69, "duration": 10, "velocity": 36}, {"time": 146700, "pitch": 38, "duration": 10, "velocity": 36}, {"time": 146700, "pitch": 69, "duration": 10, "velocity": 36}, {"time": 146730, "pitch": 69, "duration": 10, "velocity": 50}, {"time": 146760, "pitch": 38, "duration": 10, "velocity": 22}, {"time": 146760, "pitch": 56, "duration": 10, "velocity": 22}, {"time": 146760, "pitch": 68, "duration": 10, "velocity": 92}, {"time": 146760, "pitch": 69, "duration": 10, "velocity": 50}, {"time": 146760, "pitch": 70, "duration": 10, "velocity": 36}, {"time": 146790, "pitch": 69, "duration": 10, "velocity": 64}, {"time": 146820, "pitch": 38, "duration": 10, "velocity": 22}, {"time": 146820, "pitch": 69, "duration": 10, "velocity": 64}, {"time": 146850, "pitch": 69, "duration": 10, "velocity": 64}, {"time": 146880, "pitch": 42, "duration": 10, "velocity": 64}, {"time": 146880, "pitch": 57, "duration": 10, "velocity": 92}, {"time": 146880, "pitch": 68, "duration": 10, "velocity": 92}, {"time": 146880, "pitch": 69, "duration": 10, "velocity": 64}, {"time": 146880, "pitch": 70, "duration": 10, "velocity": 78}, {"time": 147000, "pitch": 70, "duration": 10, "velocity": 36}, {"time": 147020, "pitch": 69, "duration": 10, "velocity": 36}, {"time": 147120, "pitch": 28, "duration": 10, "velocity": 64}, {"time": 147120, "pitch": 37, "duration": 10, "velocity": 106}, {"time": 147120, "pitch": 42, "duration": 10, "velocity": 92}, {"time": 147120, "pitch": 56, "duration": 10, "velocity": 64}, {"time": 147120, "pitch": 67, "duration": 10, "velocity": 92}, {"time": 147120, "pitch": 69, "duration": 10, "velocity": 50}, {"time": 147120, "pitch": 70, "duration": 10, "velocity": 78}, {"time": 147240, "pitch": 70, "duration": 10, "velocity": 36}, {"time": 147260, "pitch": 56, "duration": 10, "velocity": 36}, {"time": 147260, "pitch": 69, "duration": 10, "velocity": 36}, {"time": 147360, "pitch": 28, "duration": 10, "velocity": 64}, {"time": 147360, "pitch": 37, "duration": 10, "velocity": 106}, {"time": 147360, "pitch": 39, "duration": 10, "velocity": 120}, {"time": 147360, "pitch": 40, "duration": 10, "velocity": 92}, {"time": 147360, "pitch": 42, "duration": 10, "velocity": 92}, {"time": 147360, "pitch": 56, "duration": 10, "velocity": 50}, {"time": 147360, "pitch": 67, "duration": 10, "velocity": 92}, {"time": 147360, "pitch": 69, "duration": 10, "velocity": 64}, {"time": 147360, "pitch": 70, "duration": 10, "velocity": 78}, {"time": 147480, "pitch": 70, "duration": 10, "velocity": 36}, {"time": 147500, "pitch": 56, "duration": 10, "velocity": 36}, {"time": 147500, "pitch": 68, "duration": 10, "velocity": 64}, {"time": 147500, "pitch": 69, "duration": 10, "velocity": 36}, {"time": 147600, "pitch": 42, "duration": 10, "velocity": 64}, {"time": 147600, "pitch": 56, "duration": 10, "velocity": 22}, {"time": 147600, "pitch": 69, "duration": 10, "velocity": 50}, {"time": 147600, "pitch": 70, "duration": 10, "velocity": 78}, {"time": 147720, "pitch": 70, "duration": 10, "velocity": 36}, {"time": 147740, "pitch": 56, "duration": 10, "velocity": 22}, {"time": 147740, "pitch": 68, "duration": 10, "velocity": 92}, {"time": 147740, "pitch": 69, "duration": 10, "velocity": 36}, {"time": 147840, "pitch": 28, "duration": 10, "velocity": 64}, {"time": 147840, "pitch": 37, "duration": 10, "velocity": 106}, {"time": 147840, "pitch": 42, "duration": 10, "velocity": 92}, {"time": 147840, "pitch": 56, "duration": 10, "velocity": 64}, {"time": 147840, "pitch": 69, "duration": 10, "velocity": 64}, {"time": 147840, "pitch": 70, "duration": 10, "velocity": 78}, {"time": 147960, "pitch": 70, "duration": 10, "velocity": 36}, {"time": 147980, "pitch": 56, "duration": 10, "velocity": 22}, {"time": 147980, "pitch": 67, "duration": 10, "velocity": 92}, {"time": 147980, "pitch": 69, "duration": 10, "velocity": 36}, {"time": 148080, "pitch": 42, "duration": 10, "velocity": 64}, {"time": 148080, "pitch": 56, "duration": 10, "velocity": 22}, {"time": 148080, "pitch": 69, "duration": 10, "velocity": 50}, {"time": 148080, "pitch": 70, "duration": 10, "velocity": 78}, {"time": 148200, "pitch": 28, "duration": 10, "velocity": 64}, {"time": 148200, "pitch": 37, "duration": 10, "velocity": 106}, {"time": 148200, "pitch": 70, "duration": 10, "velocity": 36}, {"time": 148220, "pitch": 56, "duration": 10, "velocity": 64}, {"time": 148220, "pitch": 67, "duration": 10, "velocity": 64}, {"time": 148220, "pitch": 69, "duration": 10, "velocity": 36}, {"time": 148320, "pitch": 39, "duration": 10, "velocity": 120}, {"time": 148320, "pitch": 40, "duration": 10, "velocity": 92}, {"time": 148320, "pitch": 42, "duration": 10, "velocity": 92}, {"time": 148320, "pitch": 56, "duration": 10, "velocity": 22}, {"time": 148320, "pitch": 67, "duration": 10, "velocity": 92}, {"time": 148320, "pitch": 69, "duration": 10, "velocity": 64}, {"time": 148320, "pitch": 70, "duration": 10, "velocity": 78}, {"time": 148440, "pitch": 70, "duration": 10, "velocity": 36}, {"time": 148460, "pitch": 56, "duration": 10, "velocity": 22}, {"time": 148460, "pitch": 69, "duration": 10, "velocity": 36}, {"time": 148560, "pitch": 28, "duration": 10, "velocity": 64}, {"time": 148560, "pitch": 37, "duration": 10, "velocity": 106}, {"time": 148560, "pitch": 42, "duration": 10, "velocity": 64}, {"time": 148560, "pitch": 56, "duration": 10, "velocity": 36}, {"time": 148560, "pitch": 68, "duration": 10, "velocity": 78}, {"time": 148560, "pitch": 69, "duration": 10, "velocity": 50}, {"time": 148560, "pitch": 70, "duration": 10, "velocity": 78}, {"time": 148680, "pitch": 70, "duration": 10, "velocity": 36}, {"time": 148700, "pitch": 56, "duration": 10, "velocity": 22}, {"time": 148700, "pitch": 68, "duration": 10, "velocity": 92}, {"time": 148700, "pitch": 69, "duration": 10, "velocity": 36}, {"time": 148800, "pitch": 42, "duration": 10, "velocity": 64}, {"time": 148800, "pitch": 68, "duration": 10, "velocity": 92}, {"time": 148800, "pitch": 69, "duration": 10, "velocity": 64}, {"time": 148800, "pitch": 70, "duration": 10, "velocity": 78}, {"time": 148920, "pitch": 70, "duration": 10, "velocity": 36}, {"time": 148940, "pitch": 69, "duration": 10, "velocity": 36}, {"time": 149040, "pitch": 28, "duration": 10, "velocity": 64}, {"time": 149040, "pitch": 37, "duration": 10, "velocity": 106}, {"time": 149040, "pitch": 42, "duration": 10, "velocity": 92}, {"time": 149040, "pitch": 56, "duration": 10, "velocity": 64}, {"time": 149040, "pitch": 67, "duration": 10, "velocity": 92}, {"time": 149040, "pitch": 69, "duration": 10, "velocity": 50}, {"time": 149040, "pitch": 70, "duration": 10, "velocity": 78}, {"time": 149160, "pitch": 70, "duration": 10, "velocity": 36}, {"time": 149180, "pitch": 56, "duration": 10, "velocity": 36}, {"time": 149180, "pitch": 69, "duration": 10, "velocity": 36}, {"time": 149280, "pitch": 39, "duration": 10, "velocity": 120}, {"time": 149280, "pitch": 40, "duration": 10, "velocity": 92}, {"time": 149280, "pitch": 42, "duration": 10, "velocity": 92}, {"time": 149280, "pitch": 56, "duration": 10, "velocity": 50}, {"time": 149280, "pitch": 67, "duration": 10, "velocity": 92}, {"time": 149280, "pitch": 69, "duration": 10, "velocity": 64}, {"time": 149280, "pitch": 70, "duration": 10, "velocity": 78}, {"time": 149400, "pitch": 28, "duration": 10, "velocity": 64}, {"time": 149400, "pitch": 37, "duration": 10, "velocity": 106}, {"time": 149400, "pitch": 70, "duration": 10, "velocity": 36}, {"time": 149420, "pitch": 56, "duration": 10, "velocity": 36}, {"time": 149420, "pitch": 68, "duration": 10, "velocity": 64}, {"time": 149420, "pitch": 69, "duration": 10, "velocity": 36}, {"time": 149520, "pitch": 42, "duration": 10, "velocity": 64}, {"time": 149520, "pitch": 56, "duration": 10, "velocity": 22}, {"time": 149520, "pitch": 69, "duration": 10, "velocity": 50}, {"time": 149520, "pitch": 70, "duration": 10, "velocity": 78}, {"time": 149640, "pitch": 70, "duration": 10, "velocity": 36}, {"time": 149660, "pitch": 56, "duration": 10, "velocity": 22}, {"time": 149660, "pitch": 68, "duration": 10, "velocity": 92}, {"time": 149660, "pitch": 69, "duration": 10, "velocity": 36}, {"time": 149760, "pitch": 28, "duration": 10, "velocity": 64}, {"time": 149760, "pitch": 37, "duration": 10, "velocity": 106}, {"time": 149760, "pitch": 42, "duration": 10, "velocity": 92}, {"time": 149760, "pitch": 56, "duration": 10, "velocity": 64}, {"time": 149760, "pitch": 69, "duration": 10, "velocity": 64}, {"time": 149760, "pitch": 70, "duration": 10, "velocity": 78}, {"time": 149880, "pitch": 70, "duration": 10, "velocity": 36}, {"time": 149900, "pitch": 56, "duration": 10, "velocity": 22}, {"time": 149900, "pitch": 67, "duration": 10, "velocity": 92}, {"time": 149900, "pitch": 69, "duration": 10, "velocity": 36}, {"time": 150000, "pitch": 42, "duration": 10, "velocity": 64}, {"time": 150000, "pitch": 56, "duration": 10, "velocity": 22}, {"time": 150000, "pitch": 69, "duration": 10, "velocity": 50}, {"time": 150000, "pitch": 70, "duration": 10, "velocity": 78}, {"time": 150120, "pitch": 28, "duration": 10, "velocity": 64}, {"time": 150120, "pitch": 37, "duration": 10, "velocity": 106}, {"time": 150120, "pitch": 70, "duration": 10, "velocity": 36}, {"time": 150140, "pitch": 56, "duration": 10, "velocity": 64}, {"time": 150140, "pitch": 67, "duration": 10, "velocity": 64}, {"time": 150140, "pitch": 69, "duration": 10, "velocity": 36}, {"time": 150240, "pitch": 39, "duration": 10, "velocity": 120}, {"time": 150240, "pitch": 40, "duration": 10, "velocity": 92}, {"time": 150240, "pitch": 42, "duration": 10, "velocity": 92}, {"time": 150240, "pitch": 56, "duration": 10, "velocity": 22}, {"time": 150240, "pitch": 67, "duration": 10, "velocity": 92}, {"time": 150240, "pitch": 69, "duration": 10, "velocity": 64}, {"time": 150240, "pitch": 70, "duration": 10, "velocity": 78}, {"time": 150360, "pitch": 70, "duration": 10, "velocity": 36}, {"time": 150380, "pitch": 56, "duration": 10, "velocity": 22}, {"time": 150380, "pitch": 69, "duration": 10, "velocity": 36}, {"time": 150480, "pitch": 28, "duration": 10, "velocity": 64}, {"time": 150480, "pitch": 37, "duration": 10, "velocity": 106}, {"time": 150480, "pitch": 42, "duration": 10, "velocity": 64}, {"time": 150480, "pitch": 56, "duration": 10, "velocity": 36}, {"time": 150480, "pitch": 68, "duration": 10, "velocity": 78}, {"time": 150480, "pitch": 69, "duration": 10, "velocity": 22}, {"time": 150480, "pitch": 70, "duration": 10, "velocity": 78}, {"time": 150510, "pitch": 69, "duration": 10, "velocity": 36}, {"time": 150540, "pitch": 69, "duration": 10, "velocity": 36}, {"time": 150570, "pitch": 69, "duration": 10, "velocity": 50}, {"time": 150600, "pitch": 56, "duration": 10, "velocity": 22}, {"time": 150600, "pitch": 68, "duration": 10, "velocity": 92}, {"time": 150600, "pitch": 69, "duration": 10, "velocity": 50}, {"time": 150600, "pitch": 70, "duration": 10, "velocity": 36}, {"time": 150630, "pitch": 69, "duration": 10, "velocity": 64}, {"time": 150660, "pitch": 69, "duration": 10, "velocity": 64}, {"time": 150690, "pitch": 69, "duration": 10, "velocity": 64}, {"time": 150720, "pitch": 42, "duration": 10, "velocity": 64}, {"time": 150720, "pitch": 68, "duration": 10, "velocity": 92}, {"time": 150720, "pitch": 69, "duration": 10, "velocity": 64}, {"time": 150720, "pitch": 70, "duration": 10, "velocity": 78}, {"time": 150840, "pitch": 70, "duration": 10, "velocity": 36}, {"time": 150860, "pitch": 69, "duration": 10, "velocity": 36}, {"time": 150960, "pitch": 28, "duration": 10, "velocity": 64}, {"time": 150960, "pitch": 37, "duration": 10, "velocity": 106}, {"time": 150960, "pitch": 42, "duration": 10, "velocity": 92}, {"time": 150960, "pitch": 56, "duration": 10, "velocity": 64}, {"time": 150960, "pitch": 67, "duration": 10, "velocity": 92}, {"time": 150960, "pitch": 69, "duration": 10, "velocity": 50}, {"time": 150960, "pitch": 70, "duration": 10, "velocity": 78}, {"time": 151080, "pitch": 70, "duration": 10, "velocity": 36}, {"time": 151100, "pitch": 56, "duration": 10, "velocity": 36}, {"time": 151100, "pitch": 69, "duration": 10, "velocity": 36}, {"time": 151200, "pitch": 28, "duration": 10, "velocity": 64}, {"time": 151200, "pitch": 37, "duration": 10, "velocity": 106}, {"time": 151200, "pitch": 39, "duration": 10, "velocity": 120}, {"time": 151200, "pitch": 40, "duration": 10, "velocity": 92}, {"time": 151200, "pitch": 42, "duration": 10, "velocity": 92}, {"time": 151200, "pitch": 56, "duration": 10, "velocity": 50}, {"time": 151200, "pitch": 67, "duration": 10, "velocity": 92}, {"time": 151200, "pitch": 69, "duration": 10, "velocity": 64}, {"time": 151200, "pitch": 70, "duration": 10, "velocity": 78}, {"time": 151320, "pitch": 70, "duration": 10, "velocity": 36}, {"time": 151340, "pitch": 56, "duration": 10, "velocity": 36}, {"time": 151340, "pitch": 68, "duration": 10, "velocity": 64}, {"time": 151340, "pitch": 69, "duration": 10, "velocity": 36}, {"time": 151440, "pitch": 42, "duration": 10, "velocity": 64}, {"time": 151440, "pitch": 56, "duration": 10, "velocity": 22}, {"time": 151440, "pitch": 69, "duration": 10, "velocity": 50}, {"time": 151440, "pitch": 70, "duration": 10, "velocity": 78}, {"time": 151560, "pitch": 70, "duration": 10, "velocity": 36}, {"time": 151580, "pitch": 56, "duration": 10, "velocity": 22}, {"time": 151580, "pitch": 68, "duration": 10, "velocity": 92}, {"time": 151580, "pitch": 69, "duration": 10, "velocity": 36}, {"time": 151680, "pitch": 28, "duration": 10, "velocity": 64}, {"time": 151680, "pitch": 37, "duration": 10, "velocity": 106}, {"time": 151680, "pitch": 42, "duration": 10, "velocity": 92}, {"time": 151680, "pitch": 56, "duration": 10, "velocity": 64}, {"time": 151680, "pitch": 69, "duration": 10, "velocity": 64}, {"time": 151680, "pitch": 70, "duration": 10, "velocity": 78}, {"time": 151800, "pitch": 70, "duration": 10, "velocity": 36}, {"time": 151820, "pitch": 56, "duration": 10, "velocity": 22}, {"time": 151820, "pitch": 67, "duration": 10, "velocity": 92}, {"time": 151820, "pitch": 69, "duration": 10, "velocity": 36}, {"time": 151920, "pitch": 42, "duration": 10, "velocity": 64}, {"time": 151920, "pitch": 56, "duration": 10, "velocity": 22}, {"time": 151920, "pitch": 69, "duration": 10, "velocity": 50}, {"time": 151920, "pitch": 70, "duration": 10, "velocity": 78}, {"time": 152040, "pitch": 28, "duration": 10, "velocity": 64}, {"time": 152040, "pitch": 37, "duration": 10, "velocity": 106}, {"time": 152040, "pitch": 70, "duration": 10, "velocity": 36}, {"time": 152060, "pitch": 56, "duration": 10, "velocity": 64}, {"time": 152060, "pitch": 67, "duration": 10, "velocity": 64}, {"time": 152060, "pitch": 69, "duration": 10, "velocity": 36}, {"time": 152160, "pitch": 39, "duration": 10, "velocity": 120}, {"time": 152160, "pitch": 40, "duration": 10, "velocity": 92}, {"time": 152160, "pitch": 42, "duration": 10, "velocity": 92}, {"time": 152160, "pitch": 56, "duration": 10, "velocity": 22}, {"time": 152160, "pitch": 67, "duration": 10, "velocity": 92}, {"time": 152160, "pitch": 69, "duration": 10, "velocity": 64}, {"time": 152160, "pitch": 70, "duration": 10, "velocity": 78}, {"time": 152280, "pitch": 70, "duration": 10, "velocity": 36}, {"time": 152300, "pitch": 56, "duration": 10, "velocity": 22}, {"time": 152300, "pitch": 69, "duration": 10, "velocity": 36}, {"time": 152400, "pitch": 28, "duration": 10, "velocity": 64}, {"time": 152400, "pitch": 37, "duration": 10, "velocity": 106}, {"time": 152400, "pitch": 42, "duration": 10, "velocity": 64}, {"time": 152400, "pitch": 56, "duration": 10, "velocity": 36}, {"time": 152400, "pitch": 68, "duration": 10, "velocity": 78}, {"time": 152400, "pitch": 69, "duration": 10, "velocity": 50}, {"time": 152400, "pitch": 70, "duration": 10, "velocity": 78}, {"time": 152520, "pitch": 70, "duration": 10, "velocity": 36}, {"time": 152540, "pitch": 56, "duration": 10, "velocity": 22}, {"time": 152540, "pitch": 68, "duration": 10, "velocity": 92}, {"time": 152540, "pitch": 69, "duration": 10, "velocity": 36}, {"time": 152640, "pitch": 42, "duration": 10, "velocity": 64}, {"time": 152640, "pitch": 68, "duration": 10, "velocity": 92}, {"time": 152640, "pitch": 69, "duration": 10, "velocity": 64}, {"time": 152640, "pitch": 70, "duration": 10, "velocity": 78}, {"time": 152760, "pitch": 70, "duration": 10, "velocity": 36}, {"time": 152780, "pitch": 69, "duration": 10, "velocity": 36}, {"time": 152880, "pitch": 28, "duration": 10, "velocity": 64}, {"time": 152880, "pitch": 37, "duration": 10, "velocity": 106}, {"time": 152880, "pitch": 42, "duration": 10, "velocity": 92}, {"time": 152880, "pitch": 56, "duration": 10, "velocity": 64}, {"time": 152880, "pitch": 67, "duration": 10, "velocity": 92}, {"time": 152880, "pitch": 69, "duration": 10, "velocity": 50}, {"time": 152880, "pitch": 70, "duration": 10, "velocity": 78}, {"time": 153000, "pitch": 70, "duration": 10, "velocity": 36}, {"time": 153020, "pitch": 56, "duration": 10, "velocity": 36}, {"time": 153020, "pitch": 69, "duration": 10, "velocity": 36}, {"time": 153120, "pitch": 39, "duration": 10, "velocity": 120}, {"time": 153120, "pitch": 40, "duration": 10, "velocity": 92}, {"time": 153120, "pitch": 42, "duration": 10, "velocity": 92}, {"time": 153120, "pitch": 56, "duration": 10, "velocity": 50}, {"time": 153120, "pitch": 67, "duration": 10, "velocity": 92}, {"time": 153120, "pitch": 69, "duration": 10, "velocity": 64}, {"time": 153120, "pitch": 70, "duration": 10, "velocity": 78}, {"time": 153240, "pitch": 28, "duration": 10, "velocity": 64}, {"time": 153240, "pitch": 37, "duration": 10, "velocity": 106}, {"time": 153240, "pitch": 70, "duration": 10, "velocity": 36}, {"time": 153260, "pitch": 56, "duration": 10, "velocity": 36}, {"time": 153260, "pitch": 68, "duration": 10, "velocity": 64}, {"time": 153260, "pitch": 69, "duration": 10, "velocity": 36}, {"time": 153360, "pitch": 42, "duration": 10, "velocity": 64}, {"time": 153360, "pitch": 56, "duration": 10, "velocity": 22}, {"time": 153360, "pitch": 69, "duration": 10, "velocity": 50}, {"time": 153360, "pitch": 70, "duration": 10, "velocity": 78}, {"time": 153480, "pitch": 70, "duration": 10, "velocity": 36}, {"time": 153500, "pitch": 56, "duration": 10, "velocity": 22}, {"time": 153500, "pitch": 68, "duration": 10, "velocity": 92}, {"time": 153500, "pitch": 69, "duration": 10, "velocity": 36}, {"time": 153600, "pitch": 28, "duration": 10, "velocity": 64}, {"time": 153600, "pitch": 37, "duration": 10, "velocity": 106}, {"time": 153600, "pitch": 42, "duration": 10, "velocity": 92}, {"time": 153600, "pitch": 56, "duration": 10, "velocity": 64}, {"time": 153600, "pitch": 69, "duration": 10, "velocity": 64}, {"time": 153600, "pitch": 70, "duration": 10, "velocity": 78}, {"time": 153720, "pitch": 70, "duration": 10, "velocity": 36}, {"time": 153740, "pitch": 56, "duration": 10, "velocity": 22}, {"time": 153740, "pitch": 67, "duration": 10, "velocity": 92}, {"time": 153740, "pitch": 69, "duration": 10, "velocity": 36}, {"time": 153840, "pitch": 42, "duration": 10, "velocity": 64}, {"time": 153840, "pitch": 56, "duration": 10, "velocity": 22}, {"time": 153840, "pitch": 69, "duration": 10, "velocity": 50}, {"time": 153840, "pitch": 70, "duration": 10, "velocity": 78}, {"time": 153960, "pitch": 28, "duration": 10, "velocity": 64}, {"time": 153960, "pitch": 37, "duration": 10, "velocity": 106}, {"time": 153960, "pitch": 70, "duration": 10, "velocity": 36}, {"time": 153980, "pitch": 56, "duration": 10, "velocity": 64}, {"time": 153980, "pitch": 67, "duration": 10, "velocity": 64}, {"time": 153980, "pitch": 69, "duration": 10, "velocity": 36}, {"time": 154080, "pitch": 39, "duration": 10, "velocity": 120}, {"time": 154080, "pitch": 40, "duration": 10, "velocity": 92}, {"time": 154080, "pitch": 42, "duration": 10, "velocity": 92}, {"time": 154080, "pitch": 56, "duration": 10, "velocity": 22}, {"time": 154080, "pitch": 67, "duration": 10, "velocity": 92}, {"time": 154080, "pitch": 69, "duration": 10, "velocity": 64}, {"time": 154080, "pitch": 70, "duration": 10, "velocity": 78}, {"time": 154200, "pitch": 70, "duration": 10, "velocity": 36}, {"time": 154220, "pitch": 56, "duration": 10, "velocity": 22}, {"time": 154220, "pitch": 69, "duration": 10, "velocity": 36}, {"time": 154320, "pitch": 28, "duration": 10, "velocity": 64}, {"time": 154320, "pitch": 37, "duration": 10, "velocity": 106}, {"time": 154320, "pitch": 42, "duration": 10, "velocity": 64}, {"time": 154320, "pitch": 56, "duration": 10, "velocity": 36}, {"time": 154320, "pitch": 68, "duration": 10, "velocity": 78}, {"time": 154320, "pitch": 69, "duration": 10, "velocity": 22}, {"time": 154320, "pitch": 70, "duration": 10, "velocity": 78}, {"time": 154350, "pitch": 69, "duration": 10, "velocity": 36}, {"time": 154380, "pitch": 69, "duration": 10, "velocity": 36}, {"time": 154410, "pitch": 69, "duration": 10, "velocity": 50}, {"time": 154440, "pitch": 56, "duration": 10, "velocity": 22}, {"time": 154440, "pitch": 68, "duration": 10, "velocity": 92}, {"time": 154440, "pitch": 69, "duration": 10, "velocity": 50}, {"time": 154440, "pitch": 70, "duration": 10, "velocity": 36}, {"time": 154470, "pitch": 69, "duration": 10, "velocity": 64}, {"time": 154500, "pitch": 69, "duration": 10, "velocity": 64}, {"time": 154530, "pitch": 69, "duration": 10, "velocity": 64}, {"time": 154560, "pitch": 42, "duration": 10, "velocity": 64}, {"time": 154560, "pitch": 49, "duration": 10, "velocity": 78}, {"time": 154560, "pitch": 68, "duration": 10, "velocity": 92}, {"time": 154560, "pitch": 69, "duration": 10, "velocity": 64}, {"time": 154560, "pitch": 70, "duration": 10, "velocity": 78}, {"time": 154680, "pitch": 70, "duration": 10, "velocity": 36}, {"time": 154700, "pitch": 69, "duration": 10, "velocity": 36}, {"time": 154800, "pitch": 28, "duration": 10, "velocity": 64}, {"time": 154800, "pitch": 37, "duration": 10, "velocity": 106}, {"time": 154800, "pitch": 42, "duration": 10, "velocity": 92}, {"time": 154800, "pitch": 56, "duration": 10, "velocity": 64}, {"time": 154800, "pitch": 67, "duration": 10, "velocity": 92}, {"time": 154800, "pitch": 69, "duration": 10, "velocity": 50}, {"time": 154800, "pitch": 70, "duration": 10, "velocity": 78}, {"time": 154920, "pitch": 70, "duration": 10, "velocity": 36}, {"time": 154940, "pitch": 56, "duration": 10, "velocity": 36}, {"time": 154940, "pitch": 69, "duration": 10, "velocity": 36}, {"time": 155040, "pitch": 28, "duration": 10, "velocity": 64}, {"time": 155040, "pitch": 37, "duration": 10, "velocity": 106}, {"time": 155040, "pitch": 39, "duration": 10, "velocity": 120}, {"time": 155040, "pitch": 40, "duration": 10, "velocity": 92}, {"time": 155040, "pitch": 42, "duration": 10, "velocity": 92}, {"time": 155040, "pitch": 56, "duration": 10, "velocity": 50}, {"time": 155040, "pitch": 67, "duration": 10, "velocity": 92}, {"time": 155040, "pitch": 69, "duration": 10, "velocity": 64}, {"time": 155040, "pitch": 70, "duration": 10, "velocity": 78}, {"time": 155160, "pitch": 70, "duration": 10, "velocity": 36}, {"time": 155180, "pitch": 56, "duration": 10, "velocity": 36}, {"time": 155180, "pitch": 68, "duration": 10, "velocity": 64}, {"time": 155180, "pitch": 69, "duration": 10, "velocity": 36}, {"time": 155280, "pitch": 42, "duration": 10, "velocity": 64}, {"time": 155280, "pitch": 56, "duration": 10, "velocity": 22}, {"time": 155280, "pitch": 69, "duration": 10, "velocity": 50}, {"time": 155280, "pitch": 70, "duration": 10, "velocity": 78}, {"time": 155400, "pitch": 70, "duration": 10, "velocity": 36}, {"time": 155420, "pitch": 56, "duration": 10, "velocity": 22}, {"time": 155420, "pitch": 68, "duration": 10, "velocity": 92}, {"time": 155420, "pitch": 69, "duration": 10, "velocity": 36}, {"time": 155520, "pitch": 28, "duration": 10, "velocity": 64}, {"time": 155520, "pitch": 37, "duration": 10, "velocity": 106}, {"time": 155520, "pitch": 42, "duration": 10, "velocity": 92}, {"time": 155520, "pitch": 56, "duration": 10, "velocity": 64}, {"time": 155520, "pitch": 69, "duration": 10, "velocity": 64}, {"time": 155520, "pitch": 70, "duration": 10, "velocity": 78}, {"time": 155640, "pitch": 70, "duration": 10, "velocity": 36}, {"time": 155660, "pitch": 56, "duration": 10, "velocity": 22}, {"time": 155660, "pitch": 67, "duration": 10, "velocity": 92}, {"time": 155660, "pitch": 69, "duration": 10, "velocity": 36}, {"time": 155760, "pitch": 42, "duration": 10, "velocity": 64}, {"time": 155760, "pitch": 56, "duration": 10, "velocity": 22}, {"time": 155760, "pitch": 69, "duration": 10, "velocity": 50}, {"time": 155760, "pitch": 70, "duration": 10, "velocity": 78}, {"time": 155880, "pitch": 28, "duration": 10, "velocity": 64}, {"time": 155880, "pitch": 37, "duration": 10, "velocity": 106}, {"time": 155880, "pitch": 70, "duration": 10, "velocity": 36}, {"time": 155900, "pitch": 56, "duration": 10, "velocity": 64}, {"time": 155900, "pitch": 67, "duration": 10, "velocity": 64}, {"time": 155900, "pitch": 69, "duration": 10, "velocity": 36}, {"time": 156000, "pitch": 39, "duration": 10, "velocity": 120}, {"time": 156000, "pitch": 40, "duration": 10, "velocity": 92}, {"time": 156000, "pitch": 42, "duration": 10, "velocity": 92}, {"time": 156000, "pitch": 56, "duration": 10, "velocity": 22}, {"time": 156000, "pitch": 67, "duration": 10, "velocity": 92}, {"time": 156000, "pitch": 69, "duration": 10, "velocity": 64}, {"time": 156000, "pitch": 70, "duration": 10, "velocity": 78}, {"time": 156120, "pitch": 70, "duration": 10, "velocity": 36}, {"time": 156140, "pitch": 56, "duration": 10, "velocity": 22}, {"time": 156140, "pitch": 69, "duration": 10, "velocity": 36}, {"time": 156240, "pitch": 28, "duration": 10, "velocity": 64}, {"time": 156240, "pitch": 37, "duration": 10, "velocity": 106}, {"time": 156240, "pitch": 42, "duration": 10, "velocity": 64}, {"time": 156240, "pitch": 56, "duration": 10, "velocity": 36}, {"time": 156240, "pitch": 68, "duration": 10, "velocity": 78}, {"time": 156240, "pitch": 69, "duration": 10, "velocity": 50}, {"time": 156240, "pitch": 70, "duration": 10, "velocity": 78}, {"time": 156360, "pitch": 70, "duration": 10, "velocity": 36}, {"time": 156380, "pitch": 56, "duration": 10, "velocity": 22}, {"time": 156380, "pitch": 68, "duration": 10, "velocity": 92}, {"time": 156380, "pitch": 69, "duration": 10, "velocity": 36}, {"time": 156480, "pitch": 42, "duration": 10, "velocity": 64}, {"time": 156480, "pitch": 68, "duration": 10, "velocity": 92}, {"time": 156480, "pitch": 69, "duration": 10, "velocity": 64}, {"time": 156480, "pitch": 70, "duration": 10, "velocity": 78}, {"time": 156600, "pitch": 70, "duration": 10, "velocity": 36}, {"time": 156620, "pitch": 69, "duration": 10, "velocity": 36}, {"time": 156720, "pitch": 28, "duration": 10, "velocity": 64}, {"time": 156720, "pitch": 37, "duration": 10, "velocity": 106}, {"time": 156720, "pitch": 42, "duration": 10, "velocity": 92}, {"time": 156720, "pitch": 56, "duration": 10, "velocity": 64}, {"time": 156720, "pitch": 67, "duration": 10, "velocity": 92}, {"time": 156720, "pitch": 69, "duration": 10, "velocity": 50}, {"time": 156720, "pitch": 70, "duration": 10, "velocity": 78}, {"time": 156840, "pitch": 70, "duration": 10, "velocity": 36}, {"time": 156860, "pitch": 56, "duration": 10, "velocity": 36}, {"time": 156860, "pitch": 69, "duration": 10, "velocity": 36}, {"time": 156960, "pitch": 39, "duration": 10, "velocity": 120}, {"time": 156960, "pitch": 40, "duration": 10, "velocity": 92}, {"time": 156960, "pitch": 42, "duration": 10, "velocity": 92}, {"time": 156960, "pitch": 56, "duration": 10, "velocity": 50}, {"time": 156960, "pitch": 67, "duration": 10, "velocity": 92}, {"time": 156960, "pitch": 69, "duration": 10, "velocity": 64}, {"time": 156960, "pitch": 70, "duration": 10, "velocity": 78}, {"time": 157080, "pitch": 28, "duration": 10, "velocity": 64}, {"time": 157080, "pitch": 37, "duration": 10, "velocity": 106}, {"time": 157080, "pitch": 70, "duration": 10, "velocity": 36}, {"time": 157100, "pitch": 56, "duration": 10, "velocity": 36}, {"time": 157100, "pitch": 68, "duration": 10, "velocity": 64}, {"time": 157100, "pitch": 69, "duration": 10, "velocity": 36}, {"time": 157200, "pitch": 42, "duration": 10, "velocity": 64}, {"time": 157200, "pitch": 56, "duration": 10, "velocity": 22}, {"time": 157200, "pitch": 69, "duration": 10, "velocity": 50}, {"time": 157200, "pitch": 70, "duration": 10, "velocity": 78}, {"time": 157320, "pitch": 70, "duration": 10, "velocity": 36}, {"time": 157340, "pitch": 56, "duration": 10, "velocity": 22}, {"time": 157340, "pitch": 68, "duration": 10, "velocity": 92}, {"time": 157340, "pitch": 69, "duration": 10, "velocity": 36}, {"time": 157440, "pitch": 28, "duration": 10, "velocity": 64}, {"time": 157440, "pitch": 37, "duration": 10, "velocity": 106}, {"time": 157440, "pitch": 42, "duration": 10, "velocity": 92}, {"time": 157440, "pitch": 56, "duration": 10, "velocity": 64}, {"time": 157440, "pitch": 69, "duration": 10, "velocity": 64}, {"time": 157440, "pitch": 70, "duration": 10, "velocity": 78}, {"time": 157560, "pitch": 70, "duration": 10, "velocity": 36}, {"time": 157580, "pitch": 56, "duration": 10, "velocity": 22}, {"time": 157580, "pitch": 67, "duration": 10, "velocity": 92}, {"time": 157580, "pitch": 69, "duration": 10, "velocity": 36}, {"time": 157680, "pitch": 42, "duration": 10, "velocity": 64}, {"time": 157680, "pitch": 56, "duration": 10, "velocity": 22}, {"time": 157680, "pitch": 69, "duration": 10, "velocity": 50}, {"time": 157680, "pitch": 70, "duration": 10, "velocity": 78}, {"time": 157800, "pitch": 28, "duration": 10, "velocity": 64}, {"time": 157800, "pitch": 37, "duration": 10, "velocity": 106}, {"time": 157800, "pitch": 70, "duration": 10, "velocity": 36}, {"time": 157820, "pitch": 56, "duration": 10, "velocity": 64}, {"time": 157820, "pitch": 67, "duration": 10, "velocity": 64}, {"time": 157820, "pitch": 69, "duration": 10, "velocity": 36}, {"time": 157920, "pitch": 39, "duration": 10, "velocity": 120}, {"time": 157920, "pitch": 40, "duration": 10, "velocity": 92}, {"time": 157920, "pitch": 42, "duration": 10, "velocity": 92}, {"time": 157920, "pitch": 56, "duration": 10, "velocity": 22}, {"time": 157920, "pitch": 67, "duration": 10, "velocity": 92}, {"time": 157920, "pitch": 69, "duration": 10, "velocity": 64}, {"time": 157920, "pitch": 70, "duration": 10, "velocity": 78}, {"time": 158040, "pitch": 70, "duration": 10, "velocity": 36}, {"time": 158060, "pitch": 56, "duration": 10, "velocity": 22}, {"time": 158060, "pitch": 69, "duration": 10, "velocity": 36}, {"time": 158160, "pitch": 28, "duration": 10, "velocity": 64}, {"time": 158160, "pitch": 37, "duration": 10, "velocity": 106}, {"time": 158160, "pitch": 42, "duration": 10, "velocity": 64}, {"time": 158160, "pitch": 56, "duration": 10, "velocity": 36}, {"time": 158160, "pitch": 68, "duration": 10, "velocity": 78}, {"time": 158160, "pitch": 69, "duration": 10, "velocity": 22}, {"time": 158160, "pitch": 70, "duration": 10, "velocity": 78}, {"time": 158190, "pitch": 69, "duration": 10, "velocity": 36}, {"time": 158220, "pitch": 69, "duration": 10, "velocity": 36}, {"time": 158250, "pitch": 69, "duration": 10, "velocity": 50}, {"time": 158280, "pitch": 56, "duration": 10, "velocity": 22}, {"time": 158280, "pitch": 68, "duration": 10, "velocity": 92}, {"time": 158280, "pitch": 69, "duration": 10, "velocity": 50}, {"time": 158280, "pitch": 70, "duration": 10, "velocity": 36}, {"time": 158310, "pitch": 69, "duration": 10, "velocity": 64}, {"time": 158340, "pitch": 69, "duration": 10, "velocity": 64}, {"time": 158370, "pitch": 69, "duration": 10, "velocity": 64}, {"time": 158400, "pitch": 42, "duration": 10, "velocity": 92}, {"time": 158400, "pitch": 68, "duration": 10, "velocity": 92}, {"time": 158400, "pitch": 69, "duration": 10, "velocity": 64}, {"time": 158400, "pitch": 70, "duration": 10, "velocity": 78}, {"time": 158520, "pitch": 70, "duration": 10, "velocity": 36}, {"time": 158540, "pitch": 69, "duration": 10, "velocity": 36}, {"time": 158640, "pitch": 28, "duration": 10, "velocity": 64}, {"time": 158640, "pitch": 37, "duration": 10, "velocity": 106}, {"time": 158640, "pitch": 39, "duration": 10, "velocity": 106}, {"time": 158640, "pitch": 40, "duration": 10, "velocity": 64}, {"time": 158640, "pitch": 49, "duration": 10, "velocity": 78}, {"time": 158640, "pitch": 56, "duration": 10, "velocity": 64}, {"time": 158640, "pitch": 67, "duration": 10, "velocity": 92}, {"time": 158640, "pitch": 69, "duration": 10, "velocity": 50}, {"time": 158640, "pitch": 70, "duration": 10, "velocity": 78}, {"time": 158760, "pitch": 70, "duration": 10, "velocity": 36}, {"time": 158780, "pitch": 56, "duration": 10, "velocity": 36}, {"time": 158780, "pitch": 69, "duration": 10, "velocity": 36}, {"time": 158880, "pitch": 28, "duration": 10, "velocity": 64}, {"time": 158880, "pitch": 37, "duration": 10, "velocity": 106}, {"time": 158880, "pitch": 39, "duration": 10, "velocity": 120}, {"time": 158880, "pitch": 40, "duration": 10, "velocity": 92}, {"time": 158880, "pitch": 56, "duration": 10, "velocity": 50}, {"time": 158880, "pitch": 57, "duration": 10, "velocity": 92}, {"time": 158880, "pitch": 67, "duration": 10, "velocity": 92}, {"time": 158880, "pitch": 69, "duration": 10, "velocity": 64}, {"time": 158880, "pitch": 70, "duration": 10, "velocity": 78}, {"time": 159000, "pitch": 70, "duration": 10, "velocity": 36}, {"time": 159020, "pitch": 56, "duration": 10, "velocity": 36}, {"time": 159020, "pitch": 68, "duration": 10, "velocity": 64}, {"time": 159020, "pitch": 69, "duration": 10, "velocity": 36}, {"time": 159120, "pitch": 56, "duration": 10, "velocity": 22}, {"time": 159120, "pitch": 69, "duration": 10, "velocity": 50}, {"time": 159120, "pitch": 70, "duration": 10, "velocity": 78}, {"time": 159240, "pitch": 70, "duration": 10, "velocity": 36}, {"time": 159260, "pitch": 56, "duration": 10, "velocity": 22}, {"time": 159260, "pitch": 68, "duration": 10, "velocity": 92}, {"time": 159260, "pitch": 69, "duration": 10, "velocity": 36}, {"time": 159360, "pitch": 28, "duration": 10, "velocity": 64}, {"time": 159360, "pitch": 37, "duration": 10, "velocity": 78}, {"time": 159360, "pitch": 39, "duration": 10, "velocity": 106}, {"time": 159360, "pitch": 40, "duration": 10, "velocity": 64}, {"time": 159360, "pitch": 56, "duration": 10, "velocity": 64}, {"time": 159360, "pitch": 57, "duration": 10, "velocity": 92}, {"time": 159360, "pitch": 69, "duration": 10, "velocity": 64}, {"time": 159360, "pitch": 70, "duration": 10, "velocity": 78}, {"time": 159480, "pitch": 70, "duration": 10, "velocity": 36}, {"time": 159500, "pitch": 56, "duration": 10, "velocity": 22}, {"time": 159500, "pitch": 67, "duration": 10, "velocity": 92}, {"time": 159500, "pitch": 69, "duration": 10, "velocity": 36}, {"time": 159600, "pitch": 28, "duration": 10, "velocity": 64}, {"time": 159600, "pitch": 37, "duration": 10, "velocity": 106}, {"time": 159600, "pitch": 39, "duration": 10, "velocity": 120}, {"time": 159600, "pitch": 40, "duration": 10, "velocity": 92}, {"time": 159600, "pitch": 56, "duration": 10, "velocity": 22}, {"time": 159600, "pitch": 57, "duration": 10, "velocity": 92}, {"time": 159600, "pitch": 69, "duration": 10, "velocity": 50}, {"time": 159600, "pitch": 70, "duration": 10, "velocity": 78}, {"time": 159720, "pitch": 70, "duration": 10, "velocity": 36}, {"time": 159740, "pitch": 56, "duration": 10, "velocity": 64}, {"time": 159740, "pitch": 67, "duration": 10, "velocity": 64}, {"time": 159740, "pitch": 69, "duration": 10, "velocity": 36}, {"time": 159840, "pitch": 56, "duration": 10, "velocity": 22}, {"time": 159840, "pitch": 67, "duration": 10, "velocity": 92}, {"time": 159840, "pitch": 69, "duration": 10, "velocity": 64}, {"time": 159840, "pitch": 70, "duration": 10, "velocity": 78}, {"time": 159960, "pitch": 70, "duration": 10, "velocity": 36}, {"time": 159980, "pitch": 56, "duration": 10, "velocity": 22}, {"time": 159980, "pitch": 69, "duration": 10, "velocity": 36}, {"time": 160080, "pitch": 42, "duration": 10, "velocity": 92}, {"time": 160080, "pitch": 56, "duration": 10, "velocity": 36}, {"time": 160080, "pitch": 68, "duration": 10, "velocity": 78}, {"time": 160080, "pitch": 69, "duration": 10, "velocity": 50}, {"time": 160080, "pitch": 70, "duration": 10, "velocity": 78}, {"time": 160200, "pitch": 70, "duration": 10, "velocity": 36}, {"time": 160220, "pitch": 56, "duration": 10, "velocity": 22}, {"time": 160220, "pitch": 68, "duration": 10, "velocity": 92}, {"time": 160220, "pitch": 69, "duration": 10, "velocity": 36}, {"time": 160320, "pitch": 42, "duration": 10, "velocity": 92}, {"time": 160320, "pitch": 68, "duration": 10, "velocity": 92}, {"time": 160320, "pitch": 69, "duration": 10, "velocity": 64}, {"time": 160320, "pitch": 70, "duration": 10, "velocity": 78}, {"time": 160460, "pitch": 69, "duration": 10, "velocity": 36}, {"time": 160460, "pitch": 70, "duration": 10, "velocity": 36}, {"time": 160460, "pitch": 78, "duration": 10, "velocity": 50}, {"time": 160560, "pitch": 56, "duration": 10, "velocity": 64}, {"time": 160560, "pitch": 67, "duration": 10, "velocity": 92}, {"time": 160560, "pitch": 69, "duration": 10, "velocity": 50}, {"time": 160560, "pitch": 70, "duration": 10, "velocity": 78}, {"time": 160700, "pitch": 56, "duration": 10, "velocity": 36}, {"time": 160700, "pitch": 69, "duration": 10, "velocity": 36}, {"time": 160700, "pitch": 70, "duration": 10, "velocity": 36}, {"time": 160700, "pitch": 78, "duration": 10, "velocity": 50}, {"time": 160800, "pitch": 42, "duration": 10, "velocity": 92}, {"time": 160800, "pitch": 56, "duration": 10, "velocity": 50}, {"time": 160800, "pitch": 67, "duration": 10, "velocity": 92}, {"time": 160800, "pitch": 69, "duration": 10, "velocity": 64}, {"time": 160800, "pitch": 70, "duration": 10, "velocity": 78}, {"time": 160940, "pitch": 56, "duration": 10, "velocity": 36}, {"time": 160940, "pitch": 68, "duration": 10, "velocity": 64}, {"time": 160940, "pitch": 69, "duration": 10, "velocity": 36}, {"time": 160940, "pitch": 70, "duration": 10, "velocity": 36}, {"time": 160940, "pitch": 78, "duration": 10, "velocity": 50}, {"time": 161040, "pitch": 56, "duration": 10, "velocity": 22}, {"time": 161040, "pitch": 69, "duration": 10, "velocity": 50}, {"time": 161040, "pitch": 70, "duration": 10, "velocity": 78}, {"time": 161180, "pitch": 56, "duration": 10, "velocity": 22}, {"time": 161180, "pitch": 68, "duration": 10, "velocity": 92}, {"time": 161180, "pitch": 69, "duration": 10, "velocity": 36}, {"time": 161180, "pitch": 70, "duration": 10, "velocity": 36}, {"time": 161180, "pitch": 78, "duration": 10, "velocity": 50}, {"time": 161280, "pitch": 42, "duration": 10, "velocity": 92}, {"time": 161280, "pitch": 56, "duration": 10, "velocity": 64}, {"time": 161280, "pitch": 69, "duration": 10, "velocity": 64}, {"time": 161280, "pitch": 70, "duration": 10, "velocity": 78}, {"time": 161280, "pitch": 78, "duration": 10, "velocity": 50}, {"time": 161420, "pitch": 56, "duration": 10, "velocity": 22}, {"time": 161420, "pitch": 67, "duration": 10, "velocity": 92}, {"time": 161420, "pitch": 69, "duration": 10, "velocity": 36}, {"time": 161420, "pitch": 70, "duration": 10, "velocity": 36}, {"time": 161420, "pitch": 78, "duration": 10, "velocity": 50}, {"time": 161520, "pitch": 56, "duration": 10, "velocity": 22}, {"time": 161520, "pitch": 69, "duration": 10, "velocity": 50}, {"time": 161520, "pitch": 70, "duration": 10, "velocity": 78}, {"time": 161660, "pitch": 56, "duration": 10, "velocity": 64}, {"time": 161660, "pitch": 67, "duration": 10, "velocity": 64}, {"time": 161660, "pitch": 69, "duration": 10, "velocity": 36}, {"time": 161660, "pitch": 70, "duration": 10, "velocity": 36}, {"time": 161660, "pitch": 78, "duration": 10, "velocity": 50}, {"time": 161760, "pitch": 42, "duration": 10, "velocity": 92}, {"time": 161760, "pitch": 56, "duration": 10, "velocity": 22}, {"time": 161760, "pitch": 67, "duration": 10, "velocity": 92}, {"time": 161760, "pitch": 69, "duration": 10, "velocity": 64}, {"time": 161760, "pitch": 70, "duration": 10, "velocity": 78}, {"time": 161760, "pitch": 78, "duration": 10, "velocity": 50}, {"time": 161900, "pitch": 56, "duration": 10, "velocity": 22}, {"time": 161900, "pitch": 69, "duration": 10, "velocity": 36}, {"time": 161900, "pitch": 70, "duration": 10, "velocity": 36}, {"time": 162000, "pitch": 49, "duration": 10, "velocity": 92}, {"time": 162000, "pitch": 56, "duration": 10, "velocity": 36}, {"time": 162000, "pitch": 68, "duration": 10, "velocity": 78}, {"time": 162000, "pitch": 69, "duration": 10, "velocity": 22}, {"time": 162000, "pitch": 70, "duration": 10, "velocity": 78}, {"time": 162030, "pitch": 69, "duration": 10, "velocity": 36}, {"time": 162060, "pitch": 69, "duration": 10, "velocity": 36}, {"time": 162090, "pitch": 69, "duration": 10, "velocity": 50}, {"time": 162120, "pitch": 56, "duration": 10, "velocity": 22}, {"time": 162120, "pitch": 68, "duration": 10, "velocity": 92}, {"time": 162120, "pitch": 69, "duration": 10, "velocity": 50}, {"time": 162140, "pitch": 70, "duration": 10, "velocity": 36}, {"time": 162150, "pitch": 69, "duration": 10, "velocity": 64}, {"time": 162180, "pitch": 69, "duration": 10, "velocity": 64}, {"time": 162210, "pitch": 69, "duration": 10, "velocity": 64}, {"time": 162240, "pitch": 42, "duration": 10, "velocity": 92}, {"time": 162240, "pitch": 57, "duration": 10, "velocity": 92}, {"time": 162240, "pitch": 68, "duration": 10, "velocity": 92}, {"time": 162240, "pitch": 69, "duration": 10, "velocity": 64}, {"time": 162240, "pitch": 70, "duration": 10, "velocity": 78}, {"time": 162380, "pitch": 38, "duration": 10, "velocity": 36}, {"time": 162380, "pitch": 40, "duration": 10, "velocity": 64}, {"time": 162380, "pitch": 69, "duration": 10, "velocity": 36}, {"time": 162380, "pitch": 70, "duration": 10, "velocity": 36}, {"time": 162480, "pitch": 28, "duration": 10, "velocity": 64}, {"time": 162480, "pitch": 37, "duration": 10, "velocity": 106}, {"time": 162480, "pitch": 56, "duration": 10, "velocity": 64}, {"time": 162480, "pitch": 67, "duration": 10, "velocity": 92}, {"time": 162480, "pitch": 69, "duration": 10, "velocity": 50}, {"time": 162480, "pitch": 70, "duration": 10, "velocity": 78}, {"time": 162620, "pitch": 38, "duration": 10, "velocity": 64}, {"time": 162620, "pitch": 40, "duration": 10, "velocity": 78}, {"time": 162620, "pitch": 56, "duration": 10, "velocity": 36}, {"time": 162620, "pitch": 69, "duration": 10, "velocity": 36}, {"time": 162620, "pitch": 70, "duration": 10, "velocity": 36}, {"time": 162720, "pitch": 39, "duration": 10, "velocity": 120}, {"time": 162720, "pitch": 42, "duration": 10, "velocity": 92}, {"time": 162720, "pitch": 56, "duration": 10, "velocity": 50}, {"time": 162720, "pitch": 67, "duration": 10, "velocity": 92}, {"time": 162720, "pitch": 69, "duration": 10, "velocity": 64}, {"time": 162720, "pitch": 70, "duration": 10, "velocity": 78}, {"time": 162860, "pitch": 28, "duration": 10, "velocity": 64}, {"time": 162860, "pitch": 37, "duration": 10, "velocity": 106}, {"time": 162860, "pitch": 38, "duration": 10, "velocity": 78}, {"time": 162860, "pitch": 40, "duration": 10, "velocity": 106}, {"time": 162860, "pitch": 56, "duration": 10, "velocity": 36}, {"time": 162860, "pitch": 68, "duration": 10, "velocity": 64}, {"time": 162860, "pitch": 69, "duration": 10, "velocity": 36}, {"time": 162860, "pitch": 70, "duration": 10, "velocity": 36}, {"time": 162960, "pitch": 56, "duration": 10, "velocity": 22}, {"time": 162960, "pitch": 69, "duration": 10, "velocity": 50}, {"time": 162960, "pitch": 70, "duration": 10, "velocity": 78}, {"time": 163100, "pitch": 38, "duration": 10, "velocity": 64}, {"time": 163100, "pitch": 40, "duration": 10, "velocity": 64}, {"time": 163100, "pitch": 56, "duration": 10, "velocity": 22}, {"time": 163100, "pitch": 68, "duration": 10, "velocity": 92}, {"time": 163100, "pitch": 69, "duration": 10, "velocity": 36}, {"time": 163100, "pitch": 70, "duration": 10, "velocity": 36}, {"time": 163200, "pitch": 28, "duration": 10, "velocity": 64}, {"time": 163200, "pitch": 37, "duration": 10, "velocity": 106}, {"time": 163200, "pitch": 38, "duration": 10, "velocity": 64}, {"time": 163200, "pitch": 40, "duration": 10, "velocity": 106}, {"time": 163200, "pitch": 42, "duration": 10, "velocity": 92}, {"time": 163200, "pitch": 56, "duration": 10, "velocity": 64}, {"time": 163200, "pitch": 69, "duration": 10, "velocity": 64}, {"time": 163200, "pitch": 70, "duration": 10, "velocity": 78}, {"time": 163340, "pitch": 38, "duration": 10, "velocity": 78}, {"time": 163340, "pitch": 40, "duration": 10, "velocity": 120}, {"time": 163340, "pitch": 56, "duration": 10, "velocity": 22}, {"time": 163340, "pitch": 67, "duration": 10, "velocity": 92}, {"time": 163340, "pitch": 69, "duration": 10, "velocity": 36}, {"time": 163340, "pitch": 70, "duration": 10, "velocity": 36}, {"time": 163440, "pitch": 56, "duration": 10, "velocity": 22}, {"time": 163440, "pitch": 69, "duration": 10, "velocity": 50}, {"time": 163440, "pitch": 70, "duration": 10, "velocity": 78}, {"time": 163570, "pitch": 28, "duration": 10, "velocity": 64}, {"time": 163570, "pitch": 37, "duration": 10, "velocity": 106}, {"time": 163570, "pitch": 38, "duration": 10, "velocity": 64}, {"time": 163570, "pitch": 40, "duration": 10, "velocity": 106}, {"time": 163570, "pitch": 70, "duration": 10, "velocity": 36}, {"time": 163580, "pitch": 56, "duration": 10, "velocity": 64}, {"time": 163580, "pitch": 67, "duration": 10, "velocity": 64}, {"time": 163580, "pitch": 69, "duration": 10, "velocity": 36}, {"time": 163680, "pitch": 38, "duration": 10, "velocity": 78}, {"time": 163680, "pitch": 39, "duration": 10, "velocity": 120}, {"time": 163680, "pitch": 40, "duration": 10, "velocity": 120}, {"time": 163680, "pitch": 42, "duration": 10, "velocity": 92}, {"time": 163680, "pitch": 56, "duration": 10, "velocity": 22}, {"time": 163680, "pitch": 67, "duration": 10, "velocity": 92}, {"time": 163680, "pitch": 69, "duration": 10, "velocity": 64}, {"time": 163680, "pitch": 70, "duration": 10, "velocity": 78}, {"time": 163820, "pitch": 56, "duration": 10, "velocity": 22}, {"time": 163820, "pitch": 69, "duration": 10, "velocity": 36}, {"time": 163820, "pitch": 70, "duration": 10, "velocity": 36}, {"time": 163920, "pitch": 28, "duration": 10, "velocity": 64}, {"time": 163920, "pitch": 37, "duration": 10, "velocity": 106}, {"time": 163920, "pitch": 49, "duration": 10, "velocity": 92}, {"time": 163920, "pitch": 56, "duration": 10, "velocity": 36}, {"time": 163920, "pitch": 68, "duration": 10, "velocity": 78}, {"time": 163920, "pitch": 69, "duration": 10, "velocity": 50}, {"time": 163920, "pitch": 70, "duration": 10, "velocity": 78}, {"time": 164060, "pitch": 56, "duration": 10, "velocity": 22}, {"time": 164060, "pitch": 68, "duration": 10, "velocity": 92}, {"time": 164060, "pitch": 69, "duration": 10, "velocity": 36}, {"time": 164060, "pitch": 70, "duration": 10, "velocity": 36}, {"time": 164160, "pitch": 42, "duration": 10, "velocity": 92}, {"time": 164160, "pitch": 57, "duration": 10, "velocity": 92}, {"time": 164160, "pitch": 68, "duration": 10, "velocity": 92}, {"time": 164160, "pitch": 69, "duration": 10, "velocity": 64}, {"time": 164160, "pitch": 70, "duration": 10, "velocity": 78}, {"time": 164300, "pitch": 69, "duration": 10, "velocity": 36}, {"time": 164300, "pitch": 70, "duration": 10, "velocity": 36}, {"time": 164400, "pitch": 56, "duration": 10, "velocity": 64}, {"time": 164400, "pitch": 67, "duration": 10, "velocity": 92}, {"time": 164400, "pitch": 69, "duration": 10, "velocity": 50}, {"time": 164400, "pitch": 70, "duration": 10, "velocity": 78}, {"time": 164540, "pitch": 56, "duration": 10, "velocity": 36}, {"time": 164540, "pitch": 69, "duration": 10, "velocity": 36}, {"time": 164540, "pitch": 70, "duration": 10, "velocity": 36}, {"time": 164640, "pitch": 42, "duration": 10, "velocity": 92}, {"time": 164640, "pitch": 56, "duration": 10, "velocity": 50}, {"time": 164640, "pitch": 67, "duration": 10, "velocity": 92}, {"time": 164640, "pitch": 69, "duration": 10, "velocity": 64}, {"time": 164640, "pitch": 70, "duration": 10, "velocity": 78}, {"time": 164780, "pitch": 56, "duration": 10, "velocity": 36}, {"time": 164780, "pitch": 68, "duration": 10, "velocity": 64}, {"time": 164780, "pitch": 69, "duration": 10, "velocity": 36}, {"time": 164780, "pitch": 70, "duration": 10, "velocity": 36}, {"time": 164880, "pitch": 56, "duration": 10, "velocity": 22}, {"time": 164880, "pitch": 69, "duration": 10, "velocity": 50}, {"time": 164880, "pitch": 70, "duration": 10, "velocity": 78}, {"time": 165020, "pitch": 56, "duration": 10, "velocity": 22}, {"time": 165020, "pitch": 68, "duration": 10, "velocity": 92}, {"time": 165020, "pitch": 69, "duration": 10, "velocity": 36}, {"time": 165020, "pitch": 70, "duration": 10, "velocity": 36}, {"time": 165120, "pitch": 42, "duration": 10, "velocity": 92}, {"time": 165120, "pitch": 49, "duration": 10, "velocity": 92}, {"time": 165120, "pitch": 56, "duration": 10, "velocity": 64}, {"time": 165120, "pitch": 69, "duration": 10, "velocity": 64}, {"time": 165120, "pitch": 70, "duration": 10, "velocity": 78}, {"time": 165260, "pitch": 56, "duration": 10, "velocity": 22}, {"time": 165260, "pitch": 67, "duration": 10, "velocity": 92}, {"time": 165260, "pitch": 69, "duration": 10, "velocity": 36}, {"time": 165260, "pitch": 70, "duration": 10, "velocity": 36}, {"time": 165360, "pitch": 56, "duration": 10, "velocity": 22}, {"time": 165360, "pitch": 69, "duration": 10, "velocity": 50}, {"time": 165360, "pitch": 70, "duration": 10, "velocity": 78}, {"time": 165500, "pitch": 56, "duration": 10, "velocity": 64}, {"time": 165500, "pitch": 67, "duration": 10, "velocity": 64}, {"time": 165500, "pitch": 69, "duration": 10, "velocity": 36}, {"time": 165500, "pitch": 70, "duration": 10, "velocity": 36}, {"time": 165600, "pitch": 42, "duration": 10, "velocity": 92}, {"time": 165600, "pitch": 56, "duration": 10, "velocity": 22}, {"time": 165600, "pitch": 67, "duration": 10, "velocity": 92}, {"time": 165600, "pitch": 69, "duration": 10, "velocity": 64}, {"time": 165600, "pitch": 70, "duration": 10, "velocity": 78}, {"time": 165740, "pitch": 56, "duration": 10, "velocity": 22}, {"time": 165740, "pitch": 69, "duration": 10, "velocity": 36}, {"time": 165740, "pitch": 70, "duration": 10, "velocity": 36}, {"time": 165840, "pitch": 56, "duration": 10, "velocity": 36}, {"time": 165840, "pitch": 68, "duration": 10, "velocity": 78}, {"time": 165840, "pitch": 69, "duration": 10, "velocity": 22}, {"time": 165840, "pitch": 70, "duration": 10, "velocity": 78}, {"time": 165870, "pitch": 69, "duration": 10, "velocity": 36}, {"time": 165900, "pitch": 69, "duration": 10, "velocity": 36}, {"time": 165930, "pitch": 69, "duration": 10, "velocity": 50}, {"time": 165960, "pitch": 56, "duration": 10, "velocity": 22}, {"time": 165960, "pitch": 68, "duration": 10, "velocity": 92}, {"time": 165960, "pitch": 69, "duration": 10, "velocity": 50}, {"time": 165980, "pitch": 70, "duration": 10, "velocity": 36}, {"time": 165990, "pitch": 69, "duration": 10, "velocity": 64}, {"time": 166020, "pitch": 69, "duration": 10, "velocity": 64}, {"time": 166050, "pitch": 69, "duration": 10, "velocity": 64}, {"time": 166080, "pitch": 42, "duration": 10, "velocity": 92}, {"time": 166080, "pitch": 49, "duration": 10, "velocity": 92}, {"time": 166080, "pitch": 68, "duration": 10, "velocity": 92}, {"time": 166080, "pitch": 69, "duration": 10, "velocity": 64}, {"time": 166080, "pitch": 70, "duration": 10, "velocity": 78}, {"time": 166220, "pitch": 38, "duration": 10, "velocity": 36}, {"time": 166220, "pitch": 40, "duration": 10, "velocity": 64}, {"time": 166220, "pitch": 69, "duration": 10, "velocity": 36}, {"time": 166220, "pitch": 70, "duration": 10, "velocity": 36}, {"time": 166320, "pitch": 28, "duration": 10, "velocity": 64}, {"time": 166320, "pitch": 37, "duration": 10, "velocity": 106}, {"time": 166320, "pitch": 56, "duration": 10, "velocity": 64}, {"time": 166320, "pitch": 57, "duration": 10, "velocity": 92}, {"time": 166320, "pitch": 67, "duration": 10, "velocity": 92}, {"time": 166320, "pitch": 69, "duration": 10, "velocity": 50}, {"time": 166320, "pitch": 70, "duration": 10, "velocity": 78}, {"time": 166460, "pitch": 38, "duration": 10, "velocity": 64}, {"time": 166460, "pitch": 40, "duration": 10, "velocity": 78}, {"time": 166460, "pitch": 56, "duration": 10, "velocity": 36}, {"time": 166460, "pitch": 69, "duration": 10, "velocity": 36}, {"time": 166460, "pitch": 70, "duration": 10, "velocity": 36}, {"time": 166560, "pitch": 39, "duration": 10, "velocity": 120}, {"time": 166560, "pitch": 42, "duration": 10, "velocity": 92}, {"time": 166560, "pitch": 56, "duration": 10, "velocity": 50}, {"time": 166560, "pitch": 67, "duration": 10, "velocity": 92}, {"time": 166560, "pitch": 69, "duration": 10, "velocity": 64}, {"time": 166560, "pitch": 70, "duration": 10, "velocity": 78}, {"time": 166700, "pitch": 28, "duration": 10, "velocity": 64}, {"time": 166700, "pitch": 37, "duration": 10, "velocity": 106}, {"time": 166700, "pitch": 38, "duration": 10, "velocity": 78}, {"time": 166700, "pitch": 40, "duration": 10, "velocity": 106}, {"time": 166700, "pitch": 56, "duration": 10, "velocity": 36}, {"time": 166700, "pitch": 68, "duration": 10, "velocity": 64}, {"time": 166700, "pitch": 69, "duration": 10, "velocity": 36}, {"time": 166700, "pitch": 70, "duration": 10, "velocity": 36}, {"time": 166800, "pitch": 49, "duration": 10, "velocity": 92}, {"time": 166800, "pitch": 56, "duration": 10, "velocity": 22}, {"time": 166800, "pitch": 69, "duration": 10, "velocity": 50}, {"time": 166800, "pitch": 70, "duration": 10, "velocity": 78}, {"time": 166940, "pitch": 38, "duration": 10, "velocity": 64}, {"time": 166940, "pitch": 40, "duration": 10, "velocity": 64}, {"time": 166940, "pitch": 56, "duration": 10, "velocity": 22}, {"time": 166940, "pitch": 68, "duration": 10, "velocity": 92}, {"time": 166940, "pitch": 69, "duration": 10, "velocity": 36}, {"time": 166940, "pitch": 70, "duration": 10, "velocity": 36}, {"time": 167040, "pitch": 28, "duration": 10, "velocity": 64}, {"time": 167040, "pitch": 37, "duration": 10, "velocity": 106}, {"time": 167040, "pitch": 38, "duration": 10, "velocity": 64}, {"time": 167040, "pitch": 40, "duration": 10, "velocity": 106}, {"time": 167040, "pitch": 42, "duration": 10, "velocity": 92}, {"time": 167040, "pitch": 56, "duration": 10, "velocity": 64}, {"time": 167040, "pitch": 69, "duration": 10, "velocity": 64}, {"time": 167040, "pitch": 70, "duration": 10, "velocity": 78}, {"time": 167180, "pitch": 38, "duration": 10, "velocity": 78}, {"time": 167180, "pitch": 40, "duration": 10, "velocity": 120}, {"time": 167180, "pitch": 56, "duration": 10, "velocity": 22}, {"time": 167180, "pitch": 67, "duration": 10, "velocity": 92}, {"time": 167180, "pitch": 69, "duration": 10, "velocity": 36}, {"time": 167180, "pitch": 70, "duration": 10, "velocity": 36}, {"time": 167280, "pitch": 56, "duration": 10, "velocity": 22}, {"time": 167280, "pitch": 69, "duration": 10, "velocity": 50}, {"time": 167280, "pitch": 70, "duration": 10, "velocity": 78}, {"time": 167410, "pitch": 28, "duration": 10, "velocity": 64}, {"time": 167410, "pitch": 37, "duration": 10, "velocity": 106}, {"time": 167410, "pitch": 38, "duration": 10, "velocity": 64}, {"time": 167410, "pitch": 40, "duration": 10, "velocity": 106}, {"time": 167410, "pitch": 70, "duration": 10, "velocity": 36}, {"time": 167420, "pitch": 56, "duration": 10, "velocity": 64}, {"time": 167420, "pitch": 67, "duration": 10, "velocity": 64}, {"time": 167420, "pitch": 69, "duration": 10, "velocity": 36}, {"time": 167520, "pitch": 38, "duration": 10, "velocity": 78}, {"time": 167520, "pitch": 39, "duration": 10, "velocity": 120}, {"time": 167520, "pitch": 40, "duration": 10, "velocity": 120}, {"time": 167520, "pitch": 42, "duration": 10, "velocity": 92}, {"time": 167520, "pitch": 56, "duration": 10, "velocity": 22}, {"time": 167520, "pitch": 67, "duration": 10, "velocity": 92}, {"time": 167520, "pitch": 69, "duration": 10, "velocity": 64}, {"time": 167520, "pitch": 70, "duration": 10, "velocity": 78}, {"time": 167660, "pitch": 56, "duration": 10, "velocity": 22}, {"time": 167660, "pitch": 69, "duration": 10, "velocity": 36}, {"time": 167660, "pitch": 70, "duration": 10, "velocity": 36}, {"time": 167760, "pitch": 28, "duration": 10, "velocity": 64}, {"time": 167760, "pitch": 37, "duration": 10, "velocity": 106}, {"time": 167760, "pitch": 56, "duration": 10, "velocity": 36}, {"time": 167760, "pitch": 68, "duration": 10, "velocity": 78}, {"time": 167760, "pitch": 69, "duration": 10, "velocity": 22}, {"time": 167760, "pitch": 70, "duration": 10, "velocity": 78}, {"time": 167790, "pitch": 69, "duration": 10, "velocity": 36}, {"time": 167820, "pitch": 69, "duration": 10, "velocity": 36}, {"time": 167850, "pitch": 69, "duration": 10, "velocity": 50}, {"time": 167880, "pitch": 56, "duration": 10, "velocity": 22}, {"time": 167880, "pitch": 68, "duration": 10, "velocity": 92}, {"time": 167880, "pitch": 69, "duration": 10, "velocity": 50}, {"time": 167900, "pitch": 70, "duration": 10, "velocity": 36}, {"time": 167910, "pitch": 69, "duration": 10, "velocity": 64}, {"time": 167940, "pitch": 69, "duration": 10, "velocity": 64}, {"time": 167970, "pitch": 69, "duration": 10, "velocity": 64}, {"time": 168000, "pitch": 42, "duration": 10, "velocity": 64}, {"time": 168000, "pitch": 68, "duration": 10, "velocity": 92}, {"time": 168000, "pitch": 69, "duration": 10, "velocity": 64}, {"time": 168000, "pitch": 70, "duration": 10, "velocity": 78}, {"time": 168120, "pitch": 70, "duration": 10, "velocity": 36}, {"time": 168140, "pitch": 69, "duration": 10, "velocity": 36}, {"time": 168240, "pitch": 28, "duration": 10, "velocity": 64}, {"time": 168240, "pitch": 37, "duration": 10, "velocity": 106}, {"time": 168240, "pitch": 42, "duration": 10, "velocity": 92}, {"time": 168240, "pitch": 56, "duration": 10, "velocity": 64}, {"time": 168240, "pitch": 67, "duration": 10, "velocity": 92}, {"time": 168240, "pitch": 69, "duration": 10, "velocity": 50}, {"time": 168240, "pitch": 70, "duration": 10, "velocity": 78}, {"time": 168360, "pitch": 70, "duration": 10, "velocity": 36}, {"time": 168380, "pitch": 56, "duration": 10, "velocity": 36}, {"time": 168380, "pitch": 69, "duration": 10, "velocity": 36}, {"time": 168480, "pitch": 28, "duration": 10, "velocity": 64}, {"time": 168480, "pitch": 37, "duration": 10, "velocity": 106}, {"time": 168480, "pitch": 39, "duration": 10, "velocity": 120}, {"time": 168480, "pitch": 40, "duration": 10, "velocity": 106}, {"time": 168480, "pitch": 42, "duration": 10, "velocity": 92}, {"time": 168480, "pitch": 56, "duration": 10, "velocity": 50}, {"time": 168480, "pitch": 67, "duration": 10, "velocity": 92}, {"time": 168480, "pitch": 69, "duration": 10, "velocity": 64}, {"time": 168480, "pitch": 70, "duration": 10, "velocity": 78}, {"time": 168600, "pitch": 70, "duration": 10, "velocity": 36}, {"time": 168620, "pitch": 56, "duration": 10, "velocity": 36}, {"time": 168620, "pitch": 68, "duration": 10, "velocity": 64}, {"time": 168620, "pitch": 69, "duration": 10, "velocity": 36}, {"time": 168720, "pitch": 42, "duration": 10, "velocity": 64}, {"time": 168720, "pitch": 56, "duration": 10, "velocity": 22}, {"time": 168720, "pitch": 69, "duration": 10, "velocity": 50}, {"time": 168720, "pitch": 70, "duration": 10, "velocity": 78}, {"time": 168840, "pitch": 70, "duration": 10, "velocity": 36}, {"time": 168860, "pitch": 56, "duration": 10, "velocity": 22}, {"time": 168860, "pitch": 68, "duration": 10, "velocity": 92}, {"time": 168860, "pitch": 69, "duration": 10, "velocity": 36}, {"time": 168960, "pitch": 28, "duration": 10, "velocity": 64}, {"time": 168960, "pitch": 37, "duration": 10, "velocity": 106}, {"time": 168960, "pitch": 42, "duration": 10, "velocity": 92}, {"time": 168960, "pitch": 56, "duration": 10, "velocity": 64}, {"time": 168960, "pitch": 69, "duration": 10, "velocity": 64}, {"time": 168960, "pitch": 70, "duration": 10, "velocity": 78}, {"time": 169080, "pitch": 70, "duration": 10, "velocity": 36}, {"time": 169100, "pitch": 56, "duration": 10, "velocity": 22}, {"time": 169100, "pitch": 67, "duration": 10, "velocity": 92}, {"time": 169100, "pitch": 69, "duration": 10, "velocity": 36}, {"time": 169200, "pitch": 42, "duration": 10, "velocity": 64}, {"time": 169200, "pitch": 56, "duration": 10, "velocity": 22}, {"time": 169200, "pitch": 69, "duration": 10, "velocity": 50}, {"time": 169200, "pitch": 70, "duration": 10, "velocity": 78}, {"time": 169320, "pitch": 28, "duration": 10, "velocity": 64}, {"time": 169320, "pitch": 37, "duration": 10, "velocity": 106}, {"time": 169320, "pitch": 70, "duration": 10, "velocity": 36}, {"time": 169340, "pitch": 56, "duration": 10, "velocity": 64}, {"time": 169340, "pitch": 67, "duration": 10, "velocity": 64}, {"time": 169340, "pitch": 69, "duration": 10, "velocity": 36}, {"time": 169440, "pitch": 39, "duration": 10, "velocity": 120}, {"time": 169440, "pitch": 40, "duration": 10, "velocity": 106}, {"time": 169440, "pitch": 42, "duration": 10, "velocity": 92}, {"time": 169440, "pitch": 56, "duration": 10, "velocity": 22}, {"time": 169440, "pitch": 67, "duration": 10, "velocity": 92}, {"time": 169440, "pitch": 69, "duration": 10, "velocity": 64}, {"time": 169440, "pitch": 70, "duration": 10, "velocity": 78}, {"time": 169560, "pitch": 70, "duration": 10, "velocity": 36}, {"time": 169580, "pitch": 56, "duration": 10, "velocity": 22}, {"time": 169580, "pitch": 69, "duration": 10, "velocity": 36}, {"time": 169680, "pitch": 28, "duration": 10, "velocity": 64}, {"time": 169680, "pitch": 37, "duration": 10, "velocity": 106}, {"time": 169680, "pitch": 42, "duration": 10, "velocity": 64}, {"time": 169680, "pitch": 56, "duration": 10, "velocity": 36}, {"time": 169680, "pitch": 68, "duration": 10, "velocity": 78}, {"time": 169680, "pitch": 69, "duration": 10, "velocity": 50}, {"time": 169680, "pitch": 70, "duration": 10, "velocity": 78}, {"time": 169800, "pitch": 70, "duration": 10, "velocity": 36}, {"time": 169820, "pitch": 56, "duration": 10, "velocity": 22}, {"time": 169820, "pitch": 68, "duration": 10, "velocity": 92}, {"time": 169820, "pitch": 69, "duration": 10, "velocity": 36}, {"time": 169920, "pitch": 42, "duration": 10, "velocity": 64}, {"time": 169920, "pitch": 68, "duration": 10, "velocity": 92}, {"time": 169920, "pitch": 69, "duration": 10, "velocity": 64}, {"time": 169920, "pitch": 70, "duration": 10, "velocity": 78}, {"time": 170040, "pitch": 70, "duration": 10, "velocity": 36}, {"time": 170060, "pitch": 69, "duration": 10, "velocity": 36}, {"time": 170160, "pitch": 28, "duration": 10, "velocity": 64}, {"time": 170160, "pitch": 37, "duration": 10, "velocity": 106}, {"time": 170160, "pitch": 42, "duration": 10, "velocity": 92}, {"time": 170160, "pitch": 56, "duration": 10, "velocity": 64}, {"time": 170160, "pitch": 67, "duration": 10, "velocity": 92}, {"time": 170160, "pitch": 69, "duration": 10, "velocity": 50}, {"time": 170160, "pitch": 70, "duration": 10, "velocity": 78}, {"time": 170280, "pitch": 70, "duration": 10, "velocity": 36}, {"time": 170300, "pitch": 56, "duration": 10, "velocity": 36}, {"time": 170300, "pitch": 69, "duration": 10, "velocity": 36}, {"time": 170400, "pitch": 39, "duration": 10, "velocity": 120}, {"time": 170400, "pitch": 40, "duration": 10, "velocity": 106}, {"time": 170400, "pitch": 42, "duration": 10, "velocity": 92}, {"time": 170400, "pitch": 56, "duration": 10, "velocity": 50}, {"time": 170400, "pitch": 67, "duration": 10, "velocity": 92}, {"time": 170400, "pitch": 69, "duration": 10, "velocity": 64}, {"time": 170400, "pitch": 70, "duration": 10, "velocity": 78}, {"time": 170520, "pitch": 28, "duration": 10, "velocity": 64}, {"time": 170520, "pitch": 37, "duration": 10, "velocity": 106}, {"time": 170520, "pitch": 70, "duration": 10, "velocity": 36}, {"time": 170540, "pitch": 56, "duration": 10, "velocity": 36}, {"time": 170540, "pitch": 68, "duration": 10, "velocity": 64}, {"time": 170540, "pitch": 69, "duration": 10, "velocity": 36}, {"time": 170640, "pitch": 42, "duration": 10, "velocity": 64}, {"time": 170640, "pitch": 56, "duration": 10, "velocity": 22}, {"time": 170640, "pitch": 69, "duration": 10, "velocity": 50}, {"time": 170640, "pitch": 70, "duration": 10, "velocity": 78}, {"time": 170760, "pitch": 70, "duration": 10, "velocity": 36}, {"time": 170780, "pitch": 56, "duration": 10, "velocity": 22}, {"time": 170780, "pitch": 68, "duration": 10, "velocity": 92}, {"time": 170780, "pitch": 69, "duration": 10, "velocity": 36}, {"time": 170880, "pitch": 28, "duration": 10, "velocity": 64}, {"time": 170880, "pitch": 37, "duration": 10, "velocity": 106}, {"time": 170880, "pitch": 42, "duration": 10, "velocity": 92}, {"time": 170880, "pitch": 56, "duration": 10, "velocity": 64}, {"time": 170880, "pitch": 69, "duration": 10, "velocity": 64}, {"time": 170880, "pitch": 70, "duration": 10, "velocity": 78}, {"time": 171000, "pitch": 70, "duration": 10, "velocity": 36}, {"time": 171020, "pitch": 56, "duration": 10, "velocity": 22}, {"time": 171020, "pitch": 67, "duration": 10, "velocity": 92}, {"time": 171020, "pitch": 69, "duration": 10, "velocity": 36}, {"time": 171120, "pitch": 42, "duration": 10, "velocity": 64}, {"time": 171120, "pitch": 56, "duration": 10, "velocity": 22}, {"time": 171120, "pitch": 69, "duration": 10, "velocity": 50}, {"time": 171120, "pitch": 70, "duration": 10, "velocity": 78}, {"time": 171240, "pitch": 28, "duration": 10, "velocity": 64}, {"time": 171240, "pitch": 37, "duration": 10, "velocity": 106}, {"time": 171240, "pitch": 70, "duration": 10, "velocity": 36}, {"time": 171260, "pitch": 56, "duration": 10, "velocity": 64}, {"time": 171260, "pitch": 67, "duration": 10, "velocity": 64}, {"time": 171260, "pitch": 69, "duration": 10, "velocity": 36}, {"time": 171360, "pitch": 39, "duration": 10, "velocity": 120}, {"time": 171360, "pitch": 40, "duration": 10, "velocity": 106}, {"time": 171360, "pitch": 42, "duration": 10, "velocity": 92}, {"time": 171360, "pitch": 56, "duration": 10, "velocity": 22}, {"time": 171360, "pitch": 67, "duration": 10, "velocity": 92}, {"time": 171360, "pitch": 69, "duration": 10, "velocity": 64}, {"time": 171360, "pitch": 70, "duration": 10, "velocity": 78}, {"time": 171480, "pitch": 70, "duration": 10, "velocity": 36}, {"time": 171500, "pitch": 56, "duration": 10, "velocity": 22}, {"time": 171500, "pitch": 69, "duration": 10, "velocity": 36}, {"time": 171600, "pitch": 28, "duration": 10, "velocity": 64}, {"time": 171600, "pitch": 37, "duration": 10, "velocity": 106}, {"time": 171600, "pitch": 42, "duration": 10, "velocity": 64}, {"time": 171600, "pitch": 56, "duration": 10, "velocity": 36}, {"time": 171600, "pitch": 68, "duration": 10, "velocity": 78}, {"time": 171600, "pitch": 69, "duration": 10, "velocity": 22}, {"time": 171600, "pitch": 70, "duration": 10, "velocity": 78}, {"time": 171630, "pitch": 69, "duration": 10, "velocity": 36}, {"time": 171660, "pitch": 69, "duration": 10, "velocity": 36}, {"time": 171690, "pitch": 69, "duration": 10, "velocity": 50}, {"time": 171720, "pitch": 56, "duration": 10, "velocity": 22}, {"time": 171720, "pitch": 68, "duration": 10, "velocity": 92}, {"time": 171720, "pitch": 69, "duration": 10, "velocity": 50}, {"time": 171720, "pitch": 70, "duration": 10, "velocity": 36}, {"time": 171750, "pitch": 69, "duration": 10, "velocity": 64}, {"time": 171780, "pitch": 69, "duration": 10, "velocity": 64}, {"time": 171810, "pitch": 69, "duration": 10, "velocity": 64}, {"time": 171840, "pitch": 42, "duration": 10, "velocity": 64}, {"time": 171840, "pitch": 68, "duration": 10, "velocity": 92}, {"time": 171840, "pitch": 69, "duration": 10, "velocity": 64}, {"time": 171840, "pitch": 70, "duration": 10, "velocity": 78}, {"time": 171960, "pitch": 70, "duration": 10, "velocity": 36}, {"time": 171980, "pitch": 69, "duration": 10, "velocity": 36}, {"time": 172080, "pitch": 28, "duration": 10, "velocity": 64}, {"time": 172080, "pitch": 37, "duration": 10, "velocity": 106}, {"time": 172080, "pitch": 42, "duration": 10, "velocity": 92}, {"time": 172080, "pitch": 56, "duration": 10, "velocity": 64}, {"time": 172080, "pitch": 67, "duration": 10, "velocity": 92}, {"time": 172080, "pitch": 69, "duration": 10, "velocity": 50}, {"time": 172080, "pitch": 70, "duration": 10, "velocity": 78}, {"time": 172200, "pitch": 70, "duration": 10, "velocity": 36}, {"time": 172220, "pitch": 56, "duration": 10, "velocity": 36}, {"time": 172220, "pitch": 69, "duration": 10, "velocity": 36}, {"time": 172320, "pitch": 28, "duration": 10, "velocity": 64}, {"time": 172320, "pitch": 37, "duration": 10, "velocity": 106}, {"time": 172320, "pitch": 39, "duration": 10, "velocity": 120}, {"time": 172320, "pitch": 40, "duration": 10, "velocity": 106}, {"time": 172320, "pitch": 42, "duration": 10, "velocity": 92}, {"time": 172320, "pitch": 56, "duration": 10, "velocity": 50}, {"time": 172320, "pitch": 67, "duration": 10, "velocity": 92}, {"time": 172320, "pitch": 69, "duration": 10, "velocity": 64}, {"time": 172320, "pitch": 70, "duration": 10, "velocity": 78}, {"time": 172440, "pitch": 70, "duration": 10, "velocity": 36}, {"time": 172460, "pitch": 56, "duration": 10, "velocity": 36}, {"time": 172460, "pitch": 68, "duration": 10, "velocity": 64}, {"time": 172460, "pitch": 69, "duration": 10, "velocity": 36}, {"time": 172560, "pitch": 42, "duration": 10, "velocity": 64}, {"time": 172560, "pitch": 56, "duration": 10, "velocity": 22}, {"time": 172560, "pitch": 69, "duration": 10, "velocity": 50}, {"time": 172560, "pitch": 70, "duration": 10, "velocity": 78}, {"time": 172680, "pitch": 70, "duration": 10, "velocity": 36}, {"time": 172700, "pitch": 56, "duration": 10, "velocity": 22}, {"time": 172700, "pitch": 68, "duration": 10, "velocity": 92}, {"time": 172700, "pitch": 69, "duration": 10, "velocity": 36}, {"time": 172800, "pitch": 28, "duration": 10, "velocity": 64}, {"time": 172800, "pitch": 37, "duration": 10, "velocity": 106}, {"time": 172800, "pitch": 42, "duration": 10, "velocity": 92}, {"time": 172800, "pitch": 56, "duration": 10, "velocity": 64}, {"time": 172800, "pitch": 69, "duration": 10, "velocity": 64}, {"time": 172800, "pitch": 70, "duration": 10, "velocity": 78}, {"time": 172920, "pitch": 70, "duration": 10, "velocity": 36}, {"time": 172940, "pitch": 56, "duration": 10, "velocity": 22}, {"time": 172940, "pitch": 67, "duration": 10, "velocity": 92}, {"time": 172940, "pitch": 69, "duration": 10, "velocity": 36}, {"time": 173040, "pitch": 42, "duration": 10, "velocity": 64}, {"time": 173040, "pitch": 56, "duration": 10, "velocity": 22}, {"time": 173040, "pitch": 69, "duration": 10, "velocity": 50}, {"time": 173040, "pitch": 70, "duration": 10, "velocity": 78}, {"time": 173160, "pitch": 28, "duration": 10, "velocity": 64}, {"time": 173160, "pitch": 37, "duration": 10, "velocity": 106}, {"time": 173160, "pitch": 70, "duration": 10, "velocity": 36}, {"time": 173180, "pitch": 56, "duration": 10, "velocity": 64}, {"time": 173180, "pitch": 67, "duration": 10, "velocity": 64}, {"time": 173180, "pitch": 69, "duration": 10, "velocity": 36}, {"time": 173280, "pitch": 39, "duration": 10, "velocity": 120}, {"time": 173280, "pitch": 40, "duration": 10, "velocity": 106}, {"time": 173280, "pitch": 42, "duration": 10, "velocity": 92}, {"time": 173280, "pitch": 56, "duration": 10, "velocity": 22}, {"time": 173280, "pitch": 67, "duration": 10, "velocity": 92}, {"time": 173280, "pitch": 69, "duration": 10, "velocity": 64}, {"time": 173280, "pitch": 70, "duration": 10, "velocity": 78}, {"time": 173400, "pitch": 70, "duration": 10, "velocity": 36}, {"time": 173420, "pitch": 56, "duration": 10, "velocity": 22}, {"time": 173420, "pitch": 69, "duration": 10, "velocity": 36}, {"time": 173520, "pitch": 28, "duration": 10, "velocity": 64}, {"time": 173520, "pitch": 37, "duration": 10, "velocity": 106}, {"time": 173520, "pitch": 42, "duration": 10, "velocity": 64}, {"time": 173520, "pitch": 56, "duration": 10, "velocity": 36}, {"time": 173520, "pitch": 68, "duration": 10, "velocity": 78}, {"time": 173520, "pitch": 69, "duration": 10, "velocity": 50}, {"time": 173520, "pitch": 70, "duration": 10, "velocity": 78}, {"time": 173640, "pitch": 70, "duration": 10, "velocity": 36}, {"time": 173660, "pitch": 56, "duration": 10, "velocity": 22}, {"time": 173660, "pitch": 68, "duration": 10, "velocity": 92}, {"time": 173660, "pitch": 69, "duration": 10, "velocity": 36}, {"time": 173760, "pitch": 42, "duration": 10, "velocity": 64}, {"time": 173760, "pitch": 68, "duration": 10, "velocity": 92}, {"time": 173760, "pitch": 69, "duration": 10, "velocity": 64}, {"time": 173760, "pitch": 70, "duration": 10, "velocity": 78}, {"time": 173880, "pitch": 70, "duration": 10, "velocity": 36}, {"time": 173900, "pitch": 69, "duration": 10, "velocity": 36}, {"time": 174000, "pitch": 28, "duration": 10, "velocity": 64}, {"time": 174000, "pitch": 37, "duration": 10, "velocity": 106}, {"time": 174000, "pitch": 39, "duration": 10, "velocity": 120}, {"time": 174000, "pitch": 40, "duration": 10, "velocity": 92}, {"time": 174000, "pitch": 42, "duration": 10, "velocity": 92}, {"time": 174000, "pitch": 56, "duration": 10, "velocity": 64}, {"time": 174000, "pitch": 67, "duration": 10, "velocity": 92}, {"time": 174000, "pitch": 69, "duration": 10, "velocity": 50}, {"time": 174000, "pitch": 70, "duration": 10, "velocity": 78}, {"time": 174120, "pitch": 70, "duration": 10, "velocity": 36}, {"time": 174140, "pitch": 56, "duration": 10, "velocity": 36}, {"time": 174140, "pitch": 69, "duration": 10, "velocity": 36}, {"time": 174240, "pitch": 39, "duration": 10, "velocity": 120}, {"time": 174240, "pitch": 40, "duration": 10, "velocity": 106}, {"time": 174240, "pitch": 42, "duration": 10, "velocity": 92}, {"time": 174240, "pitch": 56, "duration": 10, "velocity": 50}, {"time": 174240, "pitch": 67, "duration": 10, "velocity": 92}, {"time": 174240, "pitch": 69, "duration": 10, "velocity": 64}, {"time": 174240, "pitch": 70, "duration": 10, "velocity": 78}, {"time": 174360, "pitch": 28, "duration": 10, "velocity": 64}, {"time": 174360, "pitch": 37, "duration": 10, "velocity": 106}, {"time": 174360, "pitch": 70, "duration": 10, "velocity": 36}, {"time": 174380, "pitch": 56, "duration": 10, "velocity": 36}, {"time": 174380, "pitch": 68, "duration": 10, "velocity": 64}, {"time": 174380, "pitch": 69, "duration": 10, "velocity": 36}, {"time": 174480, "pitch": 42, "duration": 10, "velocity": 64}, {"time": 174480, "pitch": 56, "duration": 10, "velocity": 22}, {"time": 174480, "pitch": 69, "duration": 10, "velocity": 50}, {"time": 174480, "pitch": 70, "duration": 10, "velocity": 78}, {"time": 174600, "pitch": 70, "duration": 10, "velocity": 36}, {"time": 174620, "pitch": 56, "duration": 10, "velocity": 22}, {"time": 174620, "pitch": 68, "duration": 10, "velocity": 92}, {"time": 174620, "pitch": 69, "duration": 10, "velocity": 36}, {"time": 174720, "pitch": 28, "duration": 10, "velocity": 64}, {"time": 174720, "pitch": 37, "duration": 10, "velocity": 106}, {"time": 174720, "pitch": 42, "duration": 10, "velocity": 92}, {"time": 174720, "pitch": 56, "duration": 10, "velocity": 64}, {"time": 174720, "pitch": 69, "duration": 10, "velocity": 64}, {"time": 174720, "pitch": 70, "duration": 10, "velocity": 78}, {"time": 174840, "pitch": 70, "duration": 10, "velocity": 36}, {"time": 174860, "pitch": 56, "duration": 10, "velocity": 22}, {"time": 174860, "pitch": 67, "duration": 10, "velocity": 92}, {"time": 174860, "pitch": 69, "duration": 10, "velocity": 36}, {"time": 174960, "pitch": 42, "duration": 10, "velocity": 64}, {"time": 174960, "pitch": 56, "duration": 10, "velocity": 22}, {"time": 174960, "pitch": 69, "duration": 10, "velocity": 50}, {"time": 174960, "pitch": 70, "duration": 10, "velocity": 78}, {"time": 175080, "pitch": 28, "duration": 10, "velocity": 64}, {"time": 175080, "pitch": 37, "duration": 10, "velocity": 106}, {"time": 175080, "pitch": 70, "duration": 10, "velocity": 36}, {"time": 175100, "pitch": 56, "duration": 10, "velocity": 64}, {"time": 175100, "pitch": 67, "duration": 10, "velocity": 64}, {"time": 175100, "pitch": 69, "duration": 10, "velocity": 36}, {"time": 175200, "pitch": 39, "duration": 10, "velocity": 120}, {"time": 175200, "pitch": 40, "duration": 10, "velocity": 106}, {"time": 175200, "pitch": 42, "duration": 10, "velocity": 92}, {"time": 175200, "pitch": 56, "duration": 10, "velocity": 22}, {"time": 175200, "pitch": 67, "duration": 10, "velocity": 92}, {"time": 175200, "pitch": 69, "duration": 10, "velocity": 64}, {"time": 175200, "pitch": 70, "duration": 10, "velocity": 78}, {"time": 175320, "pitch": 70, "duration": 10, "velocity": 36}, {"time": 175340, "pitch": 56, "duration": 10, "velocity": 22}, {"time": 175340, "pitch": 69, "duration": 10, "velocity": 36}, {"time": 175440, "pitch": 28, "duration": 10, "velocity": 64}, {"time": 175440, "pitch": 37, "duration": 10, "velocity": 106}, {"time": 175440, "pitch": 42, "duration": 10, "velocity": 64}, {"time": 175440, "pitch": 56, "duration": 10, "velocity": 36}, {"time": 175440, "pitch": 68, "duration": 10, "velocity": 78}, {"time": 175440, "pitch": 69, "duration": 10, "velocity": 22}, {"time": 175440, "pitch": 70, "duration": 10, "velocity": 78}, {"time": 175470, "pitch": 69, "duration": 10, "velocity": 36}, {"time": 175500, "pitch": 69, "duration": 10, "velocity": 36}, {"time": 175530, "pitch": 69, "duration": 10, "velocity": 50}, {"time": 175560, "pitch": 56, "duration": 10, "velocity": 22}, {"time": 175560, "pitch": 68, "duration": 10, "velocity": 92}, {"time": 175560, "pitch": 69, "duration": 10, "velocity": 50}, {"time": 175560, "pitch": 70, "duration": 10, "velocity": 36}, {"time": 175590, "pitch": 69, "duration": 10, "velocity": 64}, {"time": 175620, "pitch": 69, "duration": 10, "velocity": 64}, {"time": 175650, "pitch": 69, "duration": 10, "velocity": 64}, {"time": 175680, "pitch": 42, "duration": 10, "velocity": 64}, {"time": 175680, "pitch": 49, "duration": 10, "velocity": 92}, {"time": 175680, "pitch": 68, "duration": 10, "velocity": 92}, {"time": 175680, "pitch": 69, "duration": 10, "velocity": 64}, {"time": 175680, "pitch": 70, "duration": 10, "velocity": 78}, {"time": 175800, "pitch": 70, "duration": 10, "velocity": 36}, {"time": 175820, "pitch": 69, "duration": 10, "velocity": 36}, {"time": 175920, "pitch": 28, "duration": 10, "velocity": 64}, {"time": 175920, "pitch": 37, "duration": 10, "velocity": 106}, {"time": 175920, "pitch": 42, "duration": 10, "velocity": 92}, {"time": 175920, "pitch": 56, "duration": 10, "velocity": 64}, {"time": 175920, "pitch": 67, "duration": 10, "velocity": 92}, {"time": 175920, "pitch": 69, "duration": 10, "velocity": 50}, {"time": 175920, "pitch": 70, "duration": 10, "velocity": 78}, {"time": 176040, "pitch": 70, "duration": 10, "velocity": 36}, {"time": 176060, "pitch": 56, "duration": 10, "velocity": 36}, {"time": 176060, "pitch": 69, "duration": 10, "velocity": 36}, {"time": 176160, "pitch": 28, "duration": 10, "velocity": 64}, {"time": 176160, "pitch": 37, "duration": 10, "velocity": 106}, {"time": 176160, "pitch": 39, "duration": 10, "velocity": 120}, {"time": 176160, "pitch": 40, "duration": 10, "velocity": 106}, {"time": 176160, "pitch": 42, "duration": 10, "velocity": 92}, {"time": 176160, "pitch": 56, "duration": 10, "velocity": 50}, {"time": 176160, "pitch": 67, "duration": 10, "velocity": 92}, {"time": 176160, "pitch": 69, "duration": 10, "velocity": 64}, {"time": 176160, "pitch": 70, "duration": 10, "velocity": 78}, {"time": 176280, "pitch": 70, "duration": 10, "velocity": 36}, {"time": 176300, "pitch": 56, "duration": 10, "velocity": 36}, {"time": 176300, "pitch": 68, "duration": 10, "velocity": 64}, {"time": 176300, "pitch": 69, "duration": 10, "velocity": 36}, {"time": 176400, "pitch": 42, "duration": 10, "velocity": 64}, {"time": 176400, "pitch": 56, "duration": 10, "velocity": 22}, {"time": 176400, "pitch": 69, "duration": 10, "velocity": 50}, {"time": 176400, "pitch": 70, "duration": 10, "velocity": 78}, {"time": 176520, "pitch": 70, "duration": 10, "velocity": 36}, {"time": 176540, "pitch": 56, "duration": 10, "velocity": 22}, {"time": 176540, "pitch": 68, "duration": 10, "velocity": 92}, {"time": 176540, "pitch": 69, "duration": 10, "velocity": 36}, {"time": 176640, "pitch": 28, "duration": 10, "velocity": 64}, {"time": 176640, "pitch": 37, "duration": 10, "velocity": 106}, {"time": 176640, "pitch": 42, "duration": 10, "velocity": 92}, {"time": 176640, "pitch": 56, "duration": 10, "velocity": 64}, {"time": 176640, "pitch": 69, "duration": 10, "velocity": 64}, {"time": 176640, "pitch": 70, "duration": 10, "velocity": 78}, {"time": 176760, "pitch": 70, "duration": 10, "velocity": 36}, {"time": 176780, "pitch": 56, "duration": 10, "velocity": 22}, {"time": 176780, "pitch": 67, "duration": 10, "velocity": 92}, {"time": 176780, "pitch": 69, "duration": 10, "velocity": 36}, {"time": 176880, "pitch": 42, "duration": 10, "velocity": 64}, {"time": 176880, "pitch": 56, "duration": 10, "velocity": 22}, {"time": 176880, "pitch": 69, "duration": 10, "velocity": 50}, {"time": 176880, "pitch": 70, "duration": 10, "velocity": 78}, {"time": 177000, "pitch": 28, "duration": 10, "velocity": 64}, {"time": 177000, "pitch": 37, "duration": 10, "velocity": 106}, {"time": 177000, "pitch": 70, "duration": 10, "velocity": 36}, {"time": 177020, "pitch": 56, "duration": 10, "velocity": 64}, {"time": 177020, "pitch": 67, "duration": 10, "velocity": 64}, {"time": 177020, "pitch": 69, "duration": 10, "velocity": 36}, {"time": 177120, "pitch": 39, "duration": 10, "velocity": 120}, {"time": 177120, "pitch": 40, "duration": 10, "velocity": 106}, {"time": 177120, "pitch": 42, "duration": 10, "velocity": 92}, {"time": 177120, "pitch": 56, "duration": 10, "velocity": 22}, {"time": 177120, "pitch": 67, "duration": 10, "velocity": 92}, {"time": 177120, "pitch": 69, "duration": 10, "velocity": 64}, {"time": 177120, "pitch": 70, "duration": 10, "velocity": 78}, {"time": 177240, "pitch": 70, "duration": 10, "velocity": 36}, {"time": 177260, "pitch": 56, "duration": 10, "velocity": 22}, {"time": 177260, "pitch": 69, "duration": 10, "velocity": 36}, {"time": 177360, "pitch": 28, "duration": 10, "velocity": 64}, {"time": 177360, "pitch": 37, "duration": 10, "velocity": 106}, {"time": 177360, "pitch": 42, "duration": 10, "velocity": 64}, {"time": 177360, "pitch": 56, "duration": 10, "velocity": 36}, {"time": 177360, "pitch": 68, "duration": 10, "velocity": 78}, {"time": 177360, "pitch": 69, "duration": 10, "velocity": 50}, {"time": 177360, "pitch": 70, "duration": 10, "velocity": 78}, {"time": 177480, "pitch": 70, "duration": 10, "velocity": 36}, {"time": 177500, "pitch": 56, "duration": 10, "velocity": 22}, {"time": 177500, "pitch": 68, "duration": 10, "velocity": 92}, {"time": 177500, "pitch": 69, "duration": 10, "velocity": 36}, {"time": 177600, "pitch": 42, "duration": 10, "velocity": 64}, {"time": 177600, "pitch": 68, "duration": 10, "velocity": 92}, {"time": 177600, "pitch": 69, "duration": 10, "velocity": 64}, {"time": 177600, "pitch": 70, "duration": 10, "velocity": 78}, {"time": 177720, "pitch": 70, "duration": 10, "velocity": 36}, {"time": 177740, "pitch": 69, "duration": 10, "velocity": 36}, {"time": 177840, "pitch": 28, "duration": 10, "velocity": 64}, {"time": 177840, "pitch": 37, "duration": 10, "velocity": 106}, {"time": 177840, "pitch": 42, "duration": 10, "velocity": 92}, {"time": 177840, "pitch": 56, "duration": 10, "velocity": 64}, {"time": 177840, "pitch": 67, "duration": 10, "velocity": 92}, {"time": 177840, "pitch": 69, "duration": 10, "velocity": 50}, {"time": 177840, "pitch": 70, "duration": 10, "velocity": 78}, {"time": 177960, "pitch": 70, "duration": 10, "velocity": 36}, {"time": 177980, "pitch": 56, "duration": 10, "velocity": 36}, {"time": 177980, "pitch": 69, "duration": 10, "velocity": 36}, {"time": 178080, "pitch": 39, "duration": 10, "velocity": 120}, {"time": 178080, "pitch": 40, "duration": 10, "velocity": 106}, {"time": 178080, "pitch": 42, "duration": 10, "velocity": 92}, {"time": 178080, "pitch": 56, "duration": 10, "velocity": 50}, {"time": 178080, "pitch": 67, "duration": 10, "velocity": 92}, {"time": 178080, "pitch": 69, "duration": 10, "velocity": 64}, {"time": 178080, "pitch": 70, "duration": 10, "velocity": 78}, {"time": 178200, "pitch": 28, "duration": 10, "velocity": 64}, {"time": 178200, "pitch": 37, "duration": 10, "velocity": 106}, {"time": 178200, "pitch": 70, "duration": 10, "velocity": 36}, {"time": 178220, "pitch": 56, "duration": 10, "velocity": 36}, {"time": 178220, "pitch": 68, "duration": 10, "velocity": 64}, {"time": 178220, "pitch": 69, "duration": 10, "velocity": 36}, {"time": 178320, "pitch": 42, "duration": 10, "velocity": 64}, {"time": 178320, "pitch": 56, "duration": 10, "velocity": 22}, {"time": 178320, "pitch": 69, "duration": 10, "velocity": 50}, {"time": 178320, "pitch": 70, "duration": 10, "velocity": 78}, {"time": 178440, "pitch": 70, "duration": 10, "velocity": 36}, {"time": 178460, "pitch": 56, "duration": 10, "velocity": 22}, {"time": 178460, "pitch": 68, "duration": 10, "velocity": 92}, {"time": 178460, "pitch": 69, "duration": 10, "velocity": 36}, {"time": 178560, "pitch": 28, "duration": 10, "velocity": 64}, {"time": 178560, "pitch": 37, "duration": 10, "velocity": 106}, {"time": 178560, "pitch": 42, "duration": 10, "velocity": 92}, {"time": 178560, "pitch": 56, "duration": 10, "velocity": 64}, {"time": 178560, "pitch": 69, "duration": 10, "velocity": 64}, {"time": 178560, "pitch": 70, "duration": 10, "velocity": 78}, {"time": 178680, "pitch": 70, "duration": 10, "velocity": 36}, {"time": 178700, "pitch": 56, "duration": 10, "velocity": 22}, {"time": 178700, "pitch": 67, "duration": 10, "velocity": 92}, {"time": 178700, "pitch": 69, "duration": 10, "velocity": 36}, {"time": 178800, "pitch": 42, "duration": 10, "velocity": 64}, {"time": 178800, "pitch": 56, "duration": 10, "velocity": 22}, {"time": 178800, "pitch": 69, "duration": 10, "velocity": 50}, {"time": 178800, "pitch": 70, "duration": 10, "velocity": 78}, {"time": 178920, "pitch": 28, "duration": 10, "velocity": 64}, {"time": 178920, "pitch": 37, "duration": 10, "velocity": 106}, {"time": 178920, "pitch": 70, "duration": 10, "velocity": 36}, {"time": 178940, "pitch": 56, "duration": 10, "velocity": 64}, {"time": 178940, "pitch": 67, "duration": 10, "velocity": 64}, {"time": 178940, "pitch": 69, "duration": 10, "velocity": 36}, {"time": 179040, "pitch": 39, "duration": 10, "velocity": 120}, {"time": 179040, "pitch": 40, "duration": 10, "velocity": 106}, {"time": 179040, "pitch": 42, "duration": 10, "velocity": 92}, {"time": 179040, "pitch": 56, "duration": 10, "velocity": 22}, {"time": 179040, "pitch": 67, "duration": 10, "velocity": 92}, {"time": 179040, "pitch": 69, "duration": 10, "velocity": 64}, {"time": 179040, "pitch": 70, "duration": 10, "velocity": 78}, {"time": 179160, "pitch": 70, "duration": 10, "velocity": 36}, {"time": 179180, "pitch": 56, "duration": 10, "velocity": 22}, {"time": 179180, "pitch": 69, "duration": 10, "velocity": 36}, {"time": 179280, "pitch": 28, "duration": 10, "velocity": 64}, {"time": 179280, "pitch": 37, "duration": 10, "velocity": 106}, {"time": 179280, "pitch": 42, "duration": 10, "velocity": 64}, {"time": 179280, "pitch": 56, "duration": 10, "velocity": 36}, {"time": 179280, "pitch": 68, "duration": 10, "velocity": 78}, {"time": 179280, "pitch": 69, "duration": 10, "velocity": 22}, {"time": 179280, "pitch": 70, "duration": 10, "velocity": 78}, {"time": 179310, "pitch": 69, "duration": 10, "velocity": 36}, {"time": 179340, "pitch": 69, "duration": 10, "velocity": 36}, {"time": 179370, "pitch": 69, "duration": 10, "velocity": 50}, {"time": 179400, "pitch": 56, "duration": 10, "velocity": 22}, {"time": 179400, "pitch": 68, "duration": 10, "velocity": 92}, {"time": 179400, "pitch": 69, "duration": 10, "velocity": 50}, {"time": 179400, "pitch": 70, "duration": 10, "velocity": 36}, {"time": 179430, "pitch": 69, "duration": 10, "velocity": 64}, {"time": 179460, "pitch": 69, "duration": 10, "velocity": 64}, {"time": 179490, "pitch": 69, "duration": 10, "velocity": 64}, {"time": 179520, "pitch": 42, "duration": 10, "velocity": 64}, {"time": 179520, "pitch": 68, "duration": 10, "velocity": 92}, {"time": 179520, "pitch": 69, "duration": 10, "velocity": 64}, {"time": 179520, "pitch": 70, "duration": 10, "velocity": 78}, {"time": 179640, "pitch": 70, "duration": 10, "velocity": 36}, {"time": 179660, "pitch": 69, "duration": 10, "velocity": 36}, {"time": 179760, "pitch": 28, "duration": 10, "velocity": 64}, {"time": 179760, "pitch": 37, "duration": 10, "velocity": 106}, {"time": 179760, "pitch": 42, "duration": 10, "velocity": 92}, {"time": 179760, "pitch": 56, "duration": 10, "velocity": 64}, {"time": 179760, "pitch": 67, "duration": 10, "velocity": 92}, {"time": 179760, "pitch": 69, "duration": 10, "velocity": 50}, {"time": 179760, "pitch": 70, "duration": 10, "velocity": 78}, {"time": 179880, "pitch": 70, "duration": 10, "velocity": 36}, {"time": 179900, "pitch": 56, "duration": 10, "velocity": 36}, {"time": 179900, "pitch": 69, "duration": 10, "velocity": 36}, {"time": 180000, "pitch": 28, "duration": 10, "velocity": 64}, {"time": 180000, "pitch": 37, "duration": 10, "velocity": 106}, {"time": 180000, "pitch": 39, "duration": 10, "velocity": 120}, {"time": 180000, "pitch": 40, "duration": 10, "velocity": 106}, {"time": 180000, "pitch": 42, "duration": 10, "velocity": 92}, {"time": 180000, "pitch": 56, "duration": 10, "velocity": 50}, {"time": 180000, "pitch": 67, "duration": 10, "velocity": 92}, {"time": 180000, "pitch": 69, "duration": 10, "velocity": 64}, {"time": 180000, "pitch": 70, "duration": 10, "velocity": 78}, {"time": 180120, "pitch": 70, "duration": 10, "velocity": 36}, {"time": 180140, "pitch": 56, "duration": 10, "velocity": 36}, {"time": 180140, "pitch": 68, "duration": 10, "velocity": 64}, {"time": 180140, "pitch": 69, "duration": 10, "velocity": 36}, {"time": 180240, "pitch": 42, "duration": 10, "velocity": 64}, {"time": 180240, "pitch": 56, "duration": 10, "velocity": 22}, {"time": 180240, "pitch": 69, "duration": 10, "velocity": 50}, {"time": 180240, "pitch": 70, "duration": 10, "velocity": 78}, {"time": 180360, "pitch": 70, "duration": 10, "velocity": 36}, {"time": 180380, "pitch": 56, "duration": 10, "velocity": 22}, {"time": 180380, "pitch": 68, "duration": 10, "velocity": 92}, {"time": 180380, "pitch": 69, "duration": 10, "velocity": 36}, {"time": 180480, "pitch": 28, "duration": 10, "velocity": 64}, {"time": 180480, "pitch": 37, "duration": 10, "velocity": 106}, {"time": 180480, "pitch": 42, "duration": 10, "velocity": 92}, {"time": 180480, "pitch": 56, "duration": 10, "velocity": 64}, {"time": 180480, "pitch": 69, "duration": 10, "velocity": 64}, {"time": 180480, "pitch": 70, "duration": 10, "velocity": 78}, {"time": 180600, "pitch": 70, "duration": 10, "velocity": 36}, {"time": 180620, "pitch": 56, "duration": 10, "velocity": 22}, {"time": 180620, "pitch": 67, "duration": 10, "velocity": 92}, {"time": 180620, "pitch": 69, "duration": 10, "velocity": 36}, {"time": 180720, "pitch": 42, "duration": 10, "velocity": 64}, {"time": 180720, "pitch": 56, "duration": 10, "velocity": 22}, {"time": 180720, "pitch": 69, "duration": 10, "velocity": 50}, {"time": 180720, "pitch": 70, "duration": 10, "velocity": 78}, {"time": 180840, "pitch": 28, "duration": 10, "velocity": 64}, {"time": 180840, "pitch": 37, "duration": 10, "velocity": 106}, {"time": 180840, "pitch": 70, "duration": 10, "velocity": 36}, {"time": 180860, "pitch": 56, "duration": 10, "velocity": 64}, {"time": 180860, "pitch": 67, "duration": 10, "velocity": 64}, {"time": 180860, "pitch": 69, "duration": 10, "velocity": 36}, {"time": 180960, "pitch": 39, "duration": 10, "velocity": 120}, {"time": 180960, "pitch": 40, "duration": 10, "velocity": 106}, {"time": 180960, "pitch": 42, "duration": 10, "velocity": 92}, {"time": 180960, "pitch": 56, "duration": 10, "velocity": 22}, {"time": 180960, "pitch": 67, "duration": 10, "velocity": 92}, {"time": 180960, "pitch": 69, "duration": 10, "velocity": 64}, {"time": 180960, "pitch": 70, "duration": 10, "velocity": 78}, {"time": 181080, "pitch": 70, "duration": 10, "velocity": 36}, {"time": 181100, "pitch": 56, "duration": 10, "velocity": 22}, {"time": 181100, "pitch": 69, "duration": 10, "velocity": 36}, {"time": 181200, "pitch": 28, "duration": 10, "velocity": 64}, {"time": 181200, "pitch": 37, "duration": 10, "velocity": 106}, {"time": 181200, "pitch": 42, "duration": 10, "velocity": 64}, {"time": 181200, "pitch": 56, "duration": 10, "velocity": 36}, {"time": 181200, "pitch": 68, "duration": 10, "velocity": 78}, {"time": 181200, "pitch": 69, "duration": 10, "velocity": 50}, {"time": 181200, "pitch": 70, "duration": 10, "velocity": 78}, {"time": 181320, "pitch": 70, "duration": 10, "velocity": 36}, {"time": 181340, "pitch": 56, "duration": 10, "velocity": 22}, {"time": 181340, "pitch": 68, "duration": 10, "velocity": 92}, {"time": 181340, "pitch": 69, "duration": 10, "velocity": 36}, {"time": 181440, "pitch": 42, "duration": 10, "velocity": 64}, {"time": 181440, "pitch": 68, "duration": 10, "velocity": 92}, {"time": 181440, "pitch": 69, "duration": 10, "velocity": 64}, {"time": 181440, "pitch": 70, "duration": 10, "velocity": 78}, {"time": 181560, "pitch": 70, "duration": 10, "velocity": 36}, {"time": 181580, "pitch": 69, "duration": 10, "velocity": 36}, {"time": 181680, "pitch": 28, "duration": 10, "velocity": 64}, {"time": 181680, "pitch": 37, "duration": 10, "velocity": 106}, {"time": 181680, "pitch": 39, "duration": 10, "velocity": 120}, {"time": 181680, "pitch": 40, "duration": 10, "velocity": 92}, {"time": 181680, "pitch": 42, "duration": 10, "velocity": 92}, {"time": 181680, "pitch": 56, "duration": 10, "velocity": 64}, {"time": 181680, "pitch": 67, "duration": 10, "velocity": 92}, {"time": 181680, "pitch": 69, "duration": 10, "velocity": 50}, {"time": 181680, "pitch": 70, "duration": 10, "velocity": 78}, {"time": 181800, "pitch": 70, "duration": 10, "velocity": 36}, {"time": 181820, "pitch": 56, "duration": 10, "velocity": 36}, {"time": 181820, "pitch": 69, "duration": 10, "velocity": 36}, {"time": 181920, "pitch": 39, "duration": 10, "velocity": 120}, {"time": 181920, "pitch": 40, "duration": 10, "velocity": 106}, {"time": 181920, "pitch": 42, "duration": 10, "velocity": 92}, {"time": 181920, "pitch": 56, "duration": 10, "velocity": 50}, {"time": 181920, "pitch": 67, "duration": 10, "velocity": 92}, {"time": 181920, "pitch": 69, "duration": 10, "velocity": 64}, {"time": 181920, "pitch": 70, "duration": 10, "velocity": 78}, {"time": 182040, "pitch": 28, "duration": 10, "velocity": 64}, {"time": 182040, "pitch": 37, "duration": 10, "velocity": 106}, {"time": 182040, "pitch": 70, "duration": 10, "velocity": 36}, {"time": 182060, "pitch": 56, "duration": 10, "velocity": 36}, {"time": 182060, "pitch": 68, "duration": 10, "velocity": 64}, {"time": 182060, "pitch": 69, "duration": 10, "velocity": 36}, {"time": 182160, "pitch": 42, "duration": 10, "velocity": 64}, {"time": 182160, "pitch": 56, "duration": 10, "velocity": 22}, {"time": 182160, "pitch": 69, "duration": 10, "velocity": 50}, {"time": 182160, "pitch": 70, "duration": 10, "velocity": 78}, {"time": 182280, "pitch": 70, "duration": 10, "velocity": 36}, {"time": 182300, "pitch": 56, "duration": 10, "velocity": 22}, {"time": 182300, "pitch": 68, "duration": 10, "velocity": 92}, {"time": 182300, "pitch": 69, "duration": 10, "velocity": 36}, {"time": 182400, "pitch": 28, "duration": 10, "velocity": 64}, {"time": 182400, "pitch": 37, "duration": 10, "velocity": 106}, {"time": 182400, "pitch": 42, "duration": 10, "velocity": 92}, {"time": 182400, "pitch": 56, "duration": 10, "velocity": 64}, {"time": 182400, "pitch": 69, "duration": 10, "velocity": 64}, {"time": 182400, "pitch": 70, "duration": 10, "velocity": 78}, {"time": 182520, "pitch": 70, "duration": 10, "velocity": 36}, {"time": 182540, "pitch": 56, "duration": 10, "velocity": 22}, {"time": 182540, "pitch": 67, "duration": 10, "velocity": 92}, {"time": 182540, "pitch": 69, "duration": 10, "velocity": 36}, {"time": 182640, "pitch": 42, "duration": 10, "velocity": 64}, {"time": 182640, "pitch": 56, "duration": 10, "velocity": 22}, {"time": 182640, "pitch": 69, "duration": 10, "velocity": 50}, {"time": 182640, "pitch": 70, "duration": 10, "velocity": 78}, {"time": 182760, "pitch": 28, "duration": 10, "velocity": 64}, {"time": 182760, "pitch": 37, "duration": 10, "velocity": 106}, {"time": 182760, "pitch": 70, "duration": 10, "velocity": 36}, {"time": 182780, "pitch": 56, "duration": 10, "velocity": 64}, {"time": 182780, "pitch": 67, "duration": 10, "velocity": 64}, {"time": 182780, "pitch": 69, "duration": 10, "velocity": 36}, {"time": 182880, "pitch": 39, "duration": 10, "velocity": 120}, {"time": 182880, "pitch": 40, "duration": 10, "velocity": 106}, {"time": 182880, "pitch": 42, "duration": 10, "velocity": 92}, {"time": 182880, "pitch": 56, "duration": 10, "velocity": 22}, {"time": 182880, "pitch": 67, "duration": 10, "velocity": 92}, {"time": 182880, "pitch": 69, "duration": 10, "velocity": 64}, {"time": 182880, "pitch": 70, "duration": 10, "velocity": 78}, {"time": 183000, "pitch": 70, "duration": 10, "velocity": 36}, {"time": 183020, "pitch": 56, "duration": 10, "velocity": 22}, {"time": 183020, "pitch": 69, "duration": 10, "velocity": 36}, {"time": 183120, "pitch": 28, "duration": 10, "velocity": 64}, {"time": 183120, "pitch": 37, "duration": 10, "velocity": 106}, {"time": 183120, "pitch": 42, "duration": 10, "velocity": 64}, {"time": 183120, "pitch": 56, "duration": 10, "velocity": 36}, {"time": 183120, "pitch": 68, "duration": 10, "velocity": 78}, {"time": 183120, "pitch": 69, "duration": 10, "velocity": 22}, {"time": 183120, "pitch": 70, "duration": 10, "velocity": 78}, {"time": 183150, "pitch": 69, "duration": 10, "velocity": 36}, {"time": 183180, "pitch": 69, "duration": 10, "velocity": 36}, {"time": 183210, "pitch": 69, "duration": 10, "velocity": 50}, {"time": 183240, "pitch": 56, "duration": 10, "velocity": 22}, {"time": 183240, "pitch": 68, "duration": 10, "velocity": 92}, {"time": 183240, "pitch": 69, "duration": 10, "velocity": 50}, {"time": 183240, "pitch": 70, "duration": 10, "velocity": 36}, {"time": 183270, "pitch": 69, "duration": 10, "velocity": 64}, {"time": 183300, "pitch": 69, "duration": 10, "velocity": 64}, {"time": 183330, "pitch": 69, "duration": 10, "velocity": 64}, {"time": 183360, "pitch": 42, "duration": 10, "velocity": 64}, {"time": 183360, "pitch": 49, "duration": 10, "velocity": 92}, {"time": 183360, "pitch": 68, "duration": 10, "velocity": 92}, {"time": 183360, "pitch": 69, "duration": 10, "velocity": 64}, {"time": 183360, "pitch": 70, "duration": 10, "velocity": 78}, {"time": 183480, "pitch": 70, "duration": 10, "velocity": 36}, {"time": 183500, "pitch": 69, "duration": 10, "velocity": 36}, {"time": 183600, "pitch": 28, "duration": 10, "velocity": 64}, {"time": 183600, "pitch": 37, "duration": 10, "velocity": 106}, {"time": 183600, "pitch": 42, "duration": 10, "velocity": 92}, {"time": 183600, "pitch": 56, "duration": 10, "velocity": 64}, {"time": 183600, "pitch": 67, "duration": 10, "velocity": 92}, {"time": 183600, "pitch": 69, "duration": 10, "velocity": 50}, {"time": 183600, "pitch": 70, "duration": 10, "velocity": 78}, {"time": 183720, "pitch": 70, "duration": 10, "velocity": 36}, {"time": 183740, "pitch": 56, "duration": 10, "velocity": 36}, {"time": 183740, "pitch": 69, "duration": 10, "velocity": 36}, {"time": 183840, "pitch": 28, "duration": 10, "velocity": 64}, {"time": 183840, "pitch": 37, "duration": 10, "velocity": 106}, {"time": 183840, "pitch": 39, "duration": 10, "velocity": 120}, {"time": 183840, "pitch": 40, "duration": 10, "velocity": 106}, {"time": 183840, "pitch": 42, "duration": 10, "velocity": 92}, {"time": 183840, "pitch": 56, "duration": 10, "velocity": 50}, {"time": 183840, "pitch": 67, "duration": 10, "velocity": 92}, {"time": 183840, "pitch": 69, "duration": 10, "velocity": 64}, {"time": 183840, "pitch": 70, "duration": 10, "velocity": 78}, {"time": 183960, "pitch": 70, "duration": 10, "velocity": 36}, {"time": 183980, "pitch": 56, "duration": 10, "velocity": 36}, {"time": 183980, "pitch": 68, "duration": 10, "velocity": 64}, {"time": 183980, "pitch": 69, "duration": 10, "velocity": 36}, {"time": 184080, "pitch": 42, "duration": 10, "velocity": 64}, {"time": 184080, "pitch": 56, "duration": 10, "velocity": 22}, {"time": 184080, "pitch": 69, "duration": 10, "velocity": 50}, {"time": 184080, "pitch": 70, "duration": 10, "velocity": 78}, {"time": 184200, "pitch": 70, "duration": 10, "velocity": 36}, {"time": 184220, "pitch": 56, "duration": 10, "velocity": 22}, {"time": 184220, "pitch": 68, "duration": 10, "velocity": 92}, {"time": 184220, "pitch": 69, "duration": 10, "velocity": 36}, {"time": 184320, "pitch": 28, "duration": 10, "velocity": 64}, {"time": 184320, "pitch": 37, "duration": 10, "velocity": 106}, {"time": 184320, "pitch": 42, "duration": 10, "velocity": 92}, {"time": 184320, "pitch": 56, "duration": 10, "velocity": 64}, {"time": 184320, "pitch": 69, "duration": 10, "velocity": 64}, {"time": 184320, "pitch": 70, "duration": 10, "velocity": 78}, {"time": 184440, "pitch": 70, "duration": 10, "velocity": 36}, {"time": 184460, "pitch": 56, "duration": 10, "velocity": 22}, {"time": 184460, "pitch": 67, "duration": 10, "velocity": 92}, {"time": 184460, "pitch": 69, "duration": 10, "velocity": 36}, {"time": 184560, "pitch": 42, "duration": 10, "velocity": 64}, {"time": 184560, "pitch": 56, "duration": 10, "velocity": 22}, {"time": 184560, "pitch": 69, "duration": 10, "velocity": 50}, {"time": 184560, "pitch": 70, "duration": 10, "velocity": 78}, {"time": 184680, "pitch": 28, "duration": 10, "velocity": 64}, {"time": 184680, "pitch": 37, "duration": 10, "velocity": 106}, {"time": 184680, "pitch": 70, "duration": 10, "velocity": 36}, {"time": 184700, "pitch": 56, "duration": 10, "velocity": 64}, {"time": 184700, "pitch": 67, "duration": 10, "velocity": 64}, {"time": 184700, "pitch": 69, "duration": 10, "velocity": 36}, {"time": 184800, "pitch": 39, "duration": 10, "velocity": 120}, {"time": 184800, "pitch": 40, "duration": 10, "velocity": 106}, {"time": 184800, "pitch": 42, "duration": 10, "velocity": 92}, {"time": 184800, "pitch": 56, "duration": 10, "velocity": 22}, {"time": 184800, "pitch": 67, "duration": 10, "velocity": 92}, {"time": 184800, "pitch": 69, "duration": 10, "velocity": 64}, {"time": 184800, "pitch": 70, "duration": 10, "velocity": 78}, {"time": 184920, "pitch": 70, "duration": 10, "velocity": 36}, {"time": 184940, "pitch": 56, "duration": 10, "velocity": 22}, {"time": 184940, "pitch": 69, "duration": 10, "velocity": 36}, {"time": 185040, "pitch": 28, "duration": 10, "velocity": 64}, {"time": 185040, "pitch": 37, "duration": 10, "velocity": 106}, {"time": 185040, "pitch": 42, "duration": 10, "velocity": 64}, {"time": 185040, "pitch": 56, "duration": 10, "velocity": 36}, {"time": 185040, "pitch": 68, "duration": 10, "velocity": 78}, {"time": 185040, "pitch": 69, "duration": 10, "velocity": 50}, {"time": 185040, "pitch": 70, "duration": 10, "velocity": 78}, {"time": 185160, "pitch": 70, "duration": 10, "velocity": 36}, {"time": 185180, "pitch": 56, "duration": 10, "velocity": 22}, {"time": 185180, "pitch": 68, "duration": 10, "velocity": 92}, {"time": 185180, "pitch": 69, "duration": 10, "velocity": 36}, {"time": 185280, "pitch": 42, "duration": 10, "velocity": 64}, {"time": 185280, "pitch": 68, "duration": 10, "velocity": 92}, {"time": 185280, "pitch": 69, "duration": 10, "velocity": 64}, {"time": 185280, "pitch": 70, "duration": 10, "velocity": 78}, {"time": 185400, "pitch": 70, "duration": 10, "velocity": 36}, {"time": 185420, "pitch": 69, "duration": 10, "velocity": 36}, {"time": 185520, "pitch": 28, "duration": 10, "velocity": 64}, {"time": 185520, "pitch": 37, "duration": 10, "velocity": 106}, {"time": 185520, "pitch": 42, "duration": 10, "velocity": 92}, {"time": 185520, "pitch": 56, "duration": 10, "velocity": 64}, {"time": 185520, "pitch": 67, "duration": 10, "velocity": 92}, {"time": 185520, "pitch": 69, "duration": 10, "velocity": 50}, {"time": 185520, "pitch": 70, "duration": 10, "velocity": 78}, {"time": 185640, "pitch": 70, "duration": 10, "velocity": 36}, {"time": 185660, "pitch": 56, "duration": 10, "velocity": 36}, {"time": 185660, "pitch": 69, "duration": 10, "velocity": 36}, {"time": 185760, "pitch": 39, "duration": 10, "velocity": 120}, {"time": 185760, "pitch": 40, "duration": 10, "velocity": 106}, {"time": 185760, "pitch": 42, "duration": 10, "velocity": 92}, {"time": 185760, "pitch": 56, "duration": 10, "velocity": 50}, {"time": 185760, "pitch": 67, "duration": 10, "velocity": 92}, {"time": 185760, "pitch": 69, "duration": 10, "velocity": 64}, {"time": 185760, "pitch": 70, "duration": 10, "velocity": 78}, {"time": 185880, "pitch": 28, "duration": 10, "velocity": 64}, {"time": 185880, "pitch": 37, "duration": 10, "velocity": 106}, {"time": 185880, "pitch": 70, "duration": 10, "velocity": 36}, {"time": 185900, "pitch": 56, "duration": 10, "velocity": 36}, {"time": 185900, "pitch": 68, "duration": 10, "velocity": 64}, {"time": 185900, "pitch": 69, "duration": 10, "velocity": 36}, {"time": 186000, "pitch": 42, "duration": 10, "velocity": 64}, {"time": 186000, "pitch": 56, "duration": 10, "velocity": 22}, {"time": 186000, "pitch": 69, "duration": 10, "velocity": 50}, {"time": 186000, "pitch": 70, "duration": 10, "velocity": 78}, {"time": 186120, "pitch": 70, "duration": 10, "velocity": 36}, {"time": 186140, "pitch": 56, "duration": 10, "velocity": 22}, {"time": 186140, "pitch": 68, "duration": 10, "velocity": 92}, {"time": 186140, "pitch": 69, "duration": 10, "velocity": 36}, {"time": 186240, "pitch": 28, "duration": 10, "velocity": 64}, {"time": 186240, "pitch": 37, "duration": 10, "velocity": 106}, {"time": 186240, "pitch": 42, "duration": 10, "velocity": 92}, {"time": 186240, "pitch": 56, "duration": 10, "velocity": 64}, {"time": 186240, "pitch": 69, "duration": 10, "velocity": 64}, {"time": 186240, "pitch": 70, "duration": 10, "velocity": 78}, {"time": 186360, "pitch": 70, "duration": 10, "velocity": 36}, {"time": 186380, "pitch": 56, "duration": 10, "velocity": 22}, {"time": 186380, "pitch": 67, "duration": 10, "velocity": 92}, {"time": 186380, "pitch": 69, "duration": 10, "velocity": 36}, {"time": 186480, "pitch": 42, "duration": 10, "velocity": 64}, {"time": 186480, "pitch": 56, "duration": 10, "velocity": 22}, {"time": 186480, "pitch": 69, "duration": 10, "velocity": 50}, {"time": 186480, "pitch": 70, "duration": 10, "velocity": 78}, {"time": 186600, "pitch": 28, "duration": 10, "velocity": 64}, {"time": 186600, "pitch": 37, "duration": 10, "velocity": 106}, {"time": 186600, "pitch": 70, "duration": 10, "velocity": 36}, {"time": 186620, "pitch": 56, "duration": 10, "velocity": 64}, {"time": 186620, "pitch": 67, "duration": 10, "velocity": 64}, {"time": 186620, "pitch": 69, "duration": 10, "velocity": 36}, {"time": 186720, "pitch": 39, "duration": 10, "velocity": 120}, {"time": 186720, "pitch": 40, "duration": 10, "velocity": 106}, {"time": 186720, "pitch": 42, "duration": 10, "velocity": 92}, {"time": 186720, "pitch": 56, "duration": 10, "velocity": 22}, {"time": 186720, "pitch": 67, "duration": 10, "velocity": 92}, {"time": 186720, "pitch": 69, "duration": 10, "velocity": 64}, {"time": 186720, "pitch": 70, "duration": 10, "velocity": 78}, {"time": 186840, "pitch": 70, "duration": 10, "velocity": 36}, {"time": 186860, "pitch": 56, "duration": 10, "velocity": 22}, {"time": 186860, "pitch": 69, "duration": 10, "velocity": 36}, {"time": 186960, "pitch": 28, "duration": 10, "velocity": 64}, {"time": 186960, "pitch": 37, "duration": 10, "velocity": 106}, {"time": 186960, "pitch": 42, "duration": 10, "velocity": 64}, {"time": 186960, "pitch": 56, "duration": 10, "velocity": 36}, {"time": 186960, "pitch": 68, "duration": 10, "velocity": 78}, {"time": 186960, "pitch": 69, "duration": 10, "velocity": 22}, {"time": 186960, "pitch": 70, "duration": 10, "velocity": 78}, {"time": 186990, "pitch": 69, "duration": 10, "velocity": 36}, {"time": 187020, "pitch": 69, "duration": 10, "velocity": 36}, {"time": 187050, "pitch": 69, "duration": 10, "velocity": 50}, {"time": 187080, "pitch": 56, "duration": 10, "velocity": 22}, {"time": 187080, "pitch": 68, "duration": 10, "velocity": 92}, {"time": 187080, "pitch": 69, "duration": 10, "velocity": 50}, {"time": 187080, "pitch": 70, "duration": 10, "velocity": 36}, {"time": 187110, "pitch": 69, "duration": 10, "velocity": 64}, {"time": 187140, "pitch": 69, "duration": 10, "velocity": 64}, {"time": 187170, "pitch": 69, "duration": 10, "velocity": 64}, {"time": 187200, "pitch": 42, "duration": 10, "velocity": 64}, {"time": 187200, "pitch": 68, "duration": 10, "velocity": 92}, {"time": 187200, "pitch": 69, "duration": 10, "velocity": 64}, {"time": 187200, "pitch": 70, "duration": 10, "velocity": 78}, {"time": 187320, "pitch": 70, "duration": 10, "velocity": 36}, {"time": 187340, "pitch": 69, "duration": 10, "velocity": 36}, {"time": 187440, "pitch": 28, "duration": 10, "velocity": 64}, {"time": 187440, "pitch": 37, "duration": 10, "velocity": 106}, {"time": 187440, "pitch": 42, "duration": 10, "velocity": 92}, {"time": 187440, "pitch": 56, "duration": 10, "velocity": 64}, {"time": 187440, "pitch": 67, "duration": 10, "velocity": 92}, {"time": 187440, "pitch": 69, "duration": 10, "velocity": 50}, {"time": 187440, "pitch": 70, "duration": 10, "velocity": 78}, {"time": 187560, "pitch": 70, "duration": 10, "velocity": 36}, {"time": 187580, "pitch": 56, "duration": 10, "velocity": 36}, {"time": 187580, "pitch": 69, "duration": 10, "velocity": 36}, {"time": 187680, "pitch": 28, "duration": 10, "velocity": 64}, {"time": 187680, "pitch": 37, "duration": 10, "velocity": 106}, {"time": 187680, "pitch": 39, "duration": 10, "velocity": 120}, {"time": 187680, "pitch": 40, "duration": 10, "velocity": 106}, {"time": 187680, "pitch": 42, "duration": 10, "velocity": 92}, {"time": 187680, "pitch": 56, "duration": 10, "velocity": 50}, {"time": 187680, "pitch": 67, "duration": 10, "velocity": 92}, {"time": 187680, "pitch": 69, "duration": 10, "velocity": 64}, {"time": 187680, "pitch": 70, "duration": 10, "velocity": 78}, {"time": 187800, "pitch": 70, "duration": 10, "velocity": 36}, {"time": 187820, "pitch": 56, "duration": 10, "velocity": 36}, {"time": 187820, "pitch": 68, "duration": 10, "velocity": 64}, {"time": 187820, "pitch": 69, "duration": 10, "velocity": 36}, {"time": 187920, "pitch": 42, "duration": 10, "velocity": 64}, {"time": 187920, "pitch": 56, "duration": 10, "velocity": 22}, {"time": 187920, "pitch": 69, "duration": 10, "velocity": 50}, {"time": 187920, "pitch": 70, "duration": 10, "velocity": 78}, {"time": 188040, "pitch": 70, "duration": 10, "velocity": 36}, {"time": 188060, "pitch": 56, "duration": 10, "velocity": 22}, {"time": 188060, "pitch": 68, "duration": 10, "velocity": 92}, {"time": 188060, "pitch": 69, "duration": 10, "velocity": 36}, {"time": 188160, "pitch": 28, "duration": 10, "velocity": 64}, {"time": 188160, "pitch": 37, "duration": 10, "velocity": 106}, {"time": 188160, "pitch": 42, "duration": 10, "velocity": 92}, {"time": 188160, "pitch": 56, "duration": 10, "velocity": 64}, {"time": 188160, "pitch": 69, "duration": 10, "velocity": 64}, {"time": 188160, "pitch": 70, "duration": 10, "velocity": 78}, {"time": 188280, "pitch": 70, "duration": 10, "velocity": 36}, {"time": 188300, "pitch": 56, "duration": 10, "velocity": 22}, {"time": 188300, "pitch": 67, "duration": 10, "velocity": 92}, {"time": 188300, "pitch": 69, "duration": 10, "velocity": 36}, {"time": 188400, "pitch": 42, "duration": 10, "velocity": 64}, {"time": 188400, "pitch": 56, "duration": 10, "velocity": 22}, {"time": 188400, "pitch": 69, "duration": 10, "velocity": 50}, {"time": 188400, "pitch": 70, "duration": 10, "velocity": 78}, {"time": 188520, "pitch": 28, "duration": 10, "velocity": 64}, {"time": 188520, "pitch": 37, "duration": 10, "velocity": 106}, {"time": 188520, "pitch": 70, "duration": 10, "velocity": 36}, {"time": 188540, "pitch": 56, "duration": 10, "velocity": 64}, {"time": 188540, "pitch": 67, "duration": 10, "velocity": 64}, {"time": 188540, "pitch": 69, "duration": 10, "velocity": 36}, {"time": 188640, "pitch": 39, "duration": 10, "velocity": 120}, {"time": 188640, "pitch": 40, "duration": 10, "velocity": 106}, {"time": 188640, "pitch": 42, "duration": 10, "velocity": 92}, {"time": 188640, "pitch": 56, "duration": 10, "velocity": 22}, {"time": 188640, "pitch": 67, "duration": 10, "velocity": 92}, {"time": 188640, "pitch": 69, "duration": 10, "velocity": 64}, {"time": 188640, "pitch": 70, "duration": 10, "velocity": 78}, {"time": 188760, "pitch": 70, "duration": 10, "velocity": 36}, {"time": 188780, "pitch": 56, "duration": 10, "velocity": 22}, {"time": 188780, "pitch": 69, "duration": 10, "velocity": 36}, {"time": 188880, "pitch": 28, "duration": 10, "velocity": 64}, {"time": 188880, "pitch": 37, "duration": 10, "velocity": 106}, {"time": 188880, "pitch": 42, "duration": 10, "velocity": 64}, {"time": 188880, "pitch": 56, "duration": 10, "velocity": 36}, {"time": 188880, "pitch": 68, "duration": 10, "velocity": 78}, {"time": 188880, "pitch": 69, "duration": 10, "velocity": 50}, {"time": 188880, "pitch": 70, "duration": 10, "velocity": 78}, {"time": 189000, "pitch": 70, "duration": 10, "velocity": 36}, {"time": 189020, "pitch": 56, "duration": 10, "velocity": 22}, {"time": 189020, "pitch": 68, "duration": 10, "velocity": 92}, {"time": 189020, "pitch": 69, "duration": 10, "velocity": 36}, {"time": 189120, "pitch": 42, "duration": 10, "velocity": 64}, {"time": 189120, "pitch": 68, "duration": 10, "velocity": 92}, {"time": 189120, "pitch": 69, "duration": 10, "velocity": 64}, {"time": 189120, "pitch": 70, "duration": 10, "velocity": 78}, {"time": 189240, "pitch": 70, "duration": 10, "velocity": 36}, {"time": 189260, "pitch": 69, "duration": 10, "velocity": 36}, {"time": 189360, "pitch": 28, "duration": 10, "velocity": 64}, {"time": 189360, "pitch": 37, "duration": 10, "velocity": 106}, {"time": 189360, "pitch": 39, "duration": 10, "velocity": 120}, {"time": 189360, "pitch": 40, "duration": 10, "velocity": 92}, {"time": 189360, "pitch": 42, "duration": 10, "velocity": 92}, {"time": 189360, "pitch": 56, "duration": 10, "velocity": 64}, {"time": 189360, "pitch": 67, "duration": 10, "velocity": 92}, {"time": 189360, "pitch": 69, "duration": 10, "velocity": 50}, {"time": 189360, "pitch": 70, "duration": 10, "velocity": 78}, {"time": 189480, "pitch": 70, "duration": 10, "velocity": 36}, {"time": 189500, "pitch": 56, "duration": 10, "velocity": 36}, {"time": 189500, "pitch": 69, "duration": 10, "velocity": 36}, {"time": 189600, "pitch": 39, "duration": 10, "velocity": 120}, {"time": 189600, "pitch": 40, "duration": 10, "velocity": 106}, {"time": 189600, "pitch": 42, "duration": 10, "velocity": 92}, {"time": 189600, "pitch": 56, "duration": 10, "velocity": 50}, {"time": 189600, "pitch": 67, "duration": 10, "velocity": 92}, {"time": 189600, "pitch": 69, "duration": 10, "velocity": 64}, {"time": 189600, "pitch": 70, "duration": 10, "velocity": 78}, {"time": 189720, "pitch": 28, "duration": 10, "velocity": 64}, {"time": 189720, "pitch": 37, "duration": 10, "velocity": 106}, {"time": 189720, "pitch": 70, "duration": 10, "velocity": 36}, {"time": 189740, "pitch": 56, "duration": 10, "velocity": 36}, {"time": 189740, "pitch": 68, "duration": 10, "velocity": 64}, {"time": 189740, "pitch": 69, "duration": 10, "velocity": 36}, {"time": 189840, "pitch": 42, "duration": 10, "velocity": 64}, {"time": 189840, "pitch": 56, "duration": 10, "velocity": 22}, {"time": 189840, "pitch": 69, "duration": 10, "velocity": 50}, {"time": 189840, "pitch": 70, "duration": 10, "velocity": 78}, {"time": 189960, "pitch": 70, "duration": 10, "velocity": 36}, {"time": 189980, "pitch": 56, "duration": 10, "velocity": 22}, {"time": 189980, "pitch": 68, "duration": 10, "velocity": 92}, {"time": 189980, "pitch": 69, "duration": 10, "velocity": 36}, {"time": 190080, "pitch": 28, "duration": 10, "velocity": 64}, {"time": 190080, "pitch": 37, "duration": 10, "velocity": 106}, {"time": 190080, "pitch": 42, "duration": 10, "velocity": 92}, {"time": 190080, "pitch": 56, "duration": 10, "velocity": 64}, {"time": 190080, "pitch": 69, "duration": 10, "velocity": 64}, {"time": 190080, "pitch": 70, "duration": 10, "velocity": 78}, {"time": 190200, "pitch": 70, "duration": 10, "velocity": 36}, {"time": 190220, "pitch": 56, "duration": 10, "velocity": 22}, {"time": 190220, "pitch": 67, "duration": 10, "velocity": 92}, {"time": 190220, "pitch": 69, "duration": 10, "velocity": 36}, {"time": 190320, "pitch": 42, "duration": 10, "velocity": 64}, {"time": 190320, "pitch": 56, "duration": 10, "velocity": 22}, {"time": 190320, "pitch": 69, "duration": 10, "velocity": 50}, {"time": 190320, "pitch": 70, "duration": 10, "velocity": 78}, {"time": 190440, "pitch": 28, "duration": 10, "velocity": 64}, {"time": 190440, "pitch": 37, "duration": 10, "velocity": 106}, {"time": 190440, "pitch": 70, "duration": 10, "velocity": 36}, {"time": 190460, "pitch": 56, "duration": 10, "velocity": 64}, {"time": 190460, "pitch": 67, "duration": 10, "velocity": 64}, {"time": 190460, "pitch": 69, "duration": 10, "velocity": 36}, {"time": 190560, "pitch": 39, "duration": 10, "velocity": 120}, {"time": 190560, "pitch": 40, "duration": 10, "velocity": 106}, {"time": 190560, "pitch": 42, "duration": 10, "velocity": 92}, {"time": 190560, "pitch": 56, "duration": 10, "velocity": 22}, {"time": 190560, "pitch": 67, "duration": 10, "velocity": 92}, {"time": 190560, "pitch": 69, "duration": 10, "velocity": 64}, {"time": 190560, "pitch": 70, "duration": 10, "velocity": 78}, {"time": 190680, "pitch": 70, "duration": 10, "velocity": 36}, {"time": 190700, "pitch": 56, "duration": 10, "velocity": 22}, {"time": 190700, "pitch": 69, "duration": 10, "velocity": 36}, {"time": 190800, "pitch": 28, "duration": 10, "velocity": 64}, {"time": 190800, "pitch": 37, "duration": 10, "velocity": 106}, {"time": 190800, "pitch": 42, "duration": 10, "velocity": 64}, {"time": 190800, "pitch": 56, "duration": 10, "velocity": 36}, {"time": 190800, "pitch": 68, "duration": 10, "velocity": 78}, {"time": 190800, "pitch": 69, "duration": 10, "velocity": 22}, {"time": 190800, "pitch": 70, "duration": 10, "velocity": 78}, {"time": 190830, "pitch": 69, "duration": 10, "velocity": 36}, {"time": 190860, "pitch": 69, "duration": 10, "velocity": 36}, {"time": 190890, "pitch": 69, "duration": 10, "velocity": 50}, {"time": 190920, "pitch": 56, "duration": 10, "velocity": 22}, {"time": 190920, "pitch": 68, "duration": 10, "velocity": 92}, {"time": 190920, "pitch": 69, "duration": 10, "velocity": 50}, {"time": 190920, "pitch": 70, "duration": 10, "velocity": 36}, {"time": 190950, "pitch": 69, "duration": 10, "velocity": 64}, {"time": 190980, "pitch": 69, "duration": 10, "velocity": 64}, {"time": 191010, "pitch": 69, "duration": 10, "velocity": 64}, {"time": 191040, "pitch": 42, "duration": 10, "velocity": 64}, {"time": 191040, "pitch": 57, "duration": 10, "velocity": 92}, {"time": 191040, "pitch": 68, "duration": 10, "velocity": 92}, {"time": 191040, "pitch": 69, "duration": 10, "velocity": 64}, {"time": 191040, "pitch": 70, "duration": 10, "velocity": 78}, {"time": 191160, "pitch": 70, "duration": 10, "velocity": 36}, {"time": 191180, "pitch": 69, "duration": 10, "velocity": 36}, {"time": 191280, "pitch": 28, "duration": 10, "velocity": 64}, {"time": 191280, "pitch": 37, "duration": 10, "velocity": 106}, {"time": 191280, "pitch": 42, "duration": 10, "velocity": 92}, {"time": 191280, "pitch": 56, "duration": 10, "velocity": 64}, {"time": 191280, "pitch": 67, "duration": 10, "velocity": 92}, {"time": 191280, "pitch": 69, "duration": 10, "velocity": 50}, {"time": 191280, "pitch": 70, "duration": 10, "velocity": 78}, {"time": 191400, "pitch": 70, "duration": 10, "velocity": 36}, {"time": 191420, "pitch": 56, "duration": 10, "velocity": 36}, {"time": 191420, "pitch": 69, "duration": 10, "velocity": 36}, {"time": 191520, "pitch": 28, "duration": 10, "velocity": 64}, {"time": 191520, "pitch": 37, "duration": 10, "velocity": 106}, {"time": 191520, "pitch": 39, "duration": 10, "velocity": 120}, {"time": 191520, "pitch": 40, "duration": 10, "velocity": 106}, {"time": 191520, "pitch": 42, "duration": 10, "velocity": 92}, {"time": 191520, "pitch": 56, "duration": 10, "velocity": 50}, {"time": 191520, "pitch": 67, "duration": 10, "velocity": 92}, {"time": 191520, "pitch": 69, "duration": 10, "velocity": 64}, {"time": 191520, "pitch": 70, "duration": 10, "velocity": 78}, {"time": 191640, "pitch": 70, "duration": 10, "velocity": 36}, {"time": 191660, "pitch": 56, "duration": 10, "velocity": 36}, {"time": 191660, "pitch": 68, "duration": 10, "velocity": 64}, {"time": 191660, "pitch": 69, "duration": 10, "velocity": 36}, {"time": 191760, "pitch": 42, "duration": 10, "velocity": 64}, {"time": 191760, "pitch": 56, "duration": 10, "velocity": 22}, {"time": 191760, "pitch": 69, "duration": 10, "velocity": 50}, {"time": 191760, "pitch": 70, "duration": 10, "velocity": 78}, {"time": 191880, "pitch": 70, "duration": 10, "velocity": 36}, {"time": 191900, "pitch": 56, "duration": 10, "velocity": 22}, {"time": 191900, "pitch": 68, "duration": 10, "velocity": 92}, {"time": 191900, "pitch": 69, "duration": 10, "velocity": 36}, {"time": 192000, "pitch": 28, "duration": 10, "velocity": 64}, {"time": 192000, "pitch": 37, "duration": 10, "velocity": 106}, {"time": 192000, "pitch": 42, "duration": 10, "velocity": 92}, {"time": 192000, "pitch": 56, "duration": 10, "velocity": 64}, {"time": 192000, "pitch": 69, "duration": 10, "velocity": 64}, {"time": 192000, "pitch": 70, "duration": 10, "velocity": 78}, {"time": 192120, "pitch": 70, "duration": 10, "velocity": 36}, {"time": 192140, "pitch": 56, "duration": 10, "velocity": 22}, {"time": 192140, "pitch": 67, "duration": 10, "velocity": 92}, {"time": 192140, "pitch": 69, "duration": 10, "velocity": 36}, {"time": 192240, "pitch": 42, "duration": 10, "velocity": 64}, {"time": 192240, "pitch": 56, "duration": 10, "velocity": 22}, {"time": 192240, "pitch": 69, "duration": 10, "velocity": 50}, {"time": 192240, "pitch": 70, "duration": 10, "velocity": 78}, {"time": 192360, "pitch": 28, "duration": 10, "velocity": 64}, {"time": 192360, "pitch": 37, "duration": 10, "velocity": 106}, {"time": 192360, "pitch": 70, "duration": 10, "velocity": 36}, {"time": 192380, "pitch": 56, "duration": 10, "velocity": 64}, {"time": 192380, "pitch": 67, "duration": 10, "velocity": 64}, {"time": 192380, "pitch": 69, "duration": 10, "velocity": 36}, {"time": 192480, "pitch": 39, "duration": 10, "velocity": 120}, {"time": 192480, "pitch": 40, "duration": 10, "velocity": 106}, {"time": 192480, "pitch": 42, "duration": 10, "velocity": 92}, {"time": 192480, "pitch": 56, "duration": 10, "velocity": 22}, {"time": 192480, "pitch": 67, "duration": 10, "velocity": 92}, {"time": 192480, "pitch": 69, "duration": 10, "velocity": 64}, {"time": 192480, "pitch": 70, "duration": 10, "velocity": 78}, {"time": 192600, "pitch": 70, "duration": 10, "velocity": 36}, {"time": 192620, "pitch": 56, "duration": 10, "velocity": 22}, {"time": 192620, "pitch": 69, "duration": 10, "velocity": 36}, {"time": 192720, "pitch": 28, "duration": 10, "velocity": 64}, {"time": 192720, "pitch": 37, "duration": 10, "velocity": 106}, {"time": 192720, "pitch": 42, "duration": 10, "velocity": 64}, {"time": 192720, "pitch": 56, "duration": 10, "velocity": 36}, {"time": 192720, "pitch": 68, "duration": 10, "velocity": 78}, {"time": 192720, "pitch": 69, "duration": 10, "velocity": 50}, {"time": 192720, "pitch": 70, "duration": 10, "velocity": 78}, {"time": 192840, "pitch": 70, "duration": 10, "velocity": 36}, {"time": 192860, "pitch": 56, "duration": 10, "velocity": 22}, {"time": 192860, "pitch": 68, "duration": 10, "velocity": 92}, {"time": 192860, "pitch": 69, "duration": 10, "velocity": 36}, {"time": 192960, "pitch": 42, "duration": 10, "velocity": 64}, {"time": 192960, "pitch": 68, "duration": 10, "velocity": 92}, {"time": 192960, "pitch": 69, "duration": 10, "velocity": 64}, {"time": 192960, "pitch": 70, "duration": 10, "velocity": 78}, {"time": 193080, "pitch": 70, "duration": 10, "velocity": 36}, {"time": 193100, "pitch": 69, "duration": 10, "velocity": 36}, {"time": 193200, "pitch": 28, "duration": 10, "velocity": 64}, {"time": 193200, "pitch": 37, "duration": 10, "velocity": 106}, {"time": 193200, "pitch": 42, "duration": 10, "velocity": 92}, {"time": 193200, "pitch": 56, "duration": 10, "velocity": 64}, {"time": 193200, "pitch": 67, "duration": 10, "velocity": 92}, {"time": 193200, "pitch": 69, "duration": 10, "velocity": 50}, {"time": 193200, "pitch": 70, "duration": 10, "velocity": 78}, {"time": 193320, "pitch": 70, "duration": 10, "velocity": 36}, {"time": 193340, "pitch": 56, "duration": 10, "velocity": 36}, {"time": 193340, "pitch": 69, "duration": 10, "velocity": 36}, {"time": 193440, "pitch": 39, "duration": 10, "velocity": 120}, {"time": 193440, "pitch": 40, "duration": 10, "velocity": 106}, {"time": 193440, "pitch": 42, "duration": 10, "velocity": 92}, {"time": 193440, "pitch": 56, "duration": 10, "velocity": 50}, {"time": 193440, "pitch": 67, "duration": 10, "velocity": 92}, {"time": 193440, "pitch": 69, "duration": 10, "velocity": 64}, {"time": 193440, "pitch": 70, "duration": 10, "velocity": 78}, {"time": 193560, "pitch": 28, "duration": 10, "velocity": 64}, {"time": 193560, "pitch": 37, "duration": 10, "velocity": 106}, {"time": 193560, "pitch": 70, "duration": 10, "velocity": 36}, {"time": 193580, "pitch": 56, "duration": 10, "velocity": 36}, {"time": 193580, "pitch": 68, "duration": 10, "velocity": 64}, {"time": 193580, "pitch": 69, "duration": 10, "velocity": 36}, {"time": 193680, "pitch": 42, "duration": 10, "velocity": 64}, {"time": 193680, "pitch": 56, "duration": 10, "velocity": 22}, {"time": 193680, "pitch": 69, "duration": 10, "velocity": 50}, {"time": 193680, "pitch": 70, "duration": 10, "velocity": 78}, {"time": 193800, "pitch": 70, "duration": 10, "velocity": 36}, {"time": 193820, "pitch": 56, "duration": 10, "velocity": 22}, {"time": 193820, "pitch": 68, "duration": 10, "velocity": 92}, {"time": 193820, "pitch": 69, "duration": 10, "velocity": 36}, {"time": 193920, "pitch": 28, "duration": 10, "velocity": 64}, {"time": 193920, "pitch": 37, "duration": 10, "velocity": 106}, {"time": 193920, "pitch": 42, "duration": 10, "velocity": 92}, {"time": 193920, "pitch": 56, "duration": 10, "velocity": 64}, {"time": 193920, "pitch": 69, "duration": 10, "velocity": 64}, {"time": 193920, "pitch": 70, "duration": 10, "velocity": 78}, {"time": 194040, "pitch": 70, "duration": 10, "velocity": 36}, {"time": 194060, "pitch": 56, "duration": 10, "velocity": 22}, {"time": 194060, "pitch": 67, "duration": 10, "velocity": 92}, {"time": 194060, "pitch": 69, "duration": 10, "velocity": 36}, {"time": 194160, "pitch": 42, "duration": 10, "velocity": 64}, {"time": 194160, "pitch": 56, "duration": 10, "velocity": 22}, {"time": 194160, "pitch": 69, "duration": 10, "velocity": 50}, {"time": 194160, "pitch": 70, "duration": 10, "velocity": 78}, {"time": 194280, "pitch": 28, "duration": 10, "velocity": 64}, {"time": 194280, "pitch": 37, "duration": 10, "velocity": 106}, {"time": 194280, "pitch": 70, "duration": 10, "velocity": 36}, {"time": 194300, "pitch": 56, "duration": 10, "velocity": 64}, {"time": 194300, "pitch": 67, "duration": 10, "velocity": 64}, {"time": 194300, "pitch": 69, "duration": 10, "velocity": 36}, {"time": 194400, "pitch": 39, "duration": 10, "velocity": 120}, {"time": 194400, "pitch": 40, "duration": 10, "velocity": 106}, {"time": 194400, "pitch": 42, "duration": 10, "velocity": 92}, {"time": 194400, "pitch": 56, "duration": 10, "velocity": 22}, {"time": 194400, "pitch": 67, "duration": 10, "velocity": 92}, {"time": 194400, "pitch": 69, "duration": 10, "velocity": 64}, {"time": 194400, "pitch": 70, "duration": 10, "velocity": 78}, {"time": 194520, "pitch": 70, "duration": 10, "velocity": 36}, {"time": 194540, "pitch": 56, "duration": 10, "velocity": 22}, {"time": 194540, "pitch": 69, "duration": 10, "velocity": 36}, {"time": 194640, "pitch": 28, "duration": 10, "velocity": 64}, {"time": 194640, "pitch": 37, "duration": 10, "velocity": 106}, {"time": 194640, "pitch": 42, "duration": 10, "velocity": 64}, {"time": 194640, "pitch": 56, "duration": 10, "velocity": 36}, {"time": 194640, "pitch": 68, "duration": 10, "velocity": 78}, {"time": 194640, "pitch": 69, "duration": 10, "velocity": 22}, {"time": 194640, "pitch": 70, "duration": 10, "velocity": 78}, {"time": 194670, "pitch": 69, "duration": 10, "velocity": 36}, {"time": 194700, "pitch": 69, "duration": 10, "velocity": 36}, {"time": 194730, "pitch": 69, "duration": 10, "velocity": 50}, {"time": 194760, "pitch": 56, "duration": 10, "velocity": 22}, {"time": 194760, "pitch": 68, "duration": 10, "velocity": 92}, {"time": 194760, "pitch": 69, "duration": 10, "velocity": 50}, {"time": 194760, "pitch": 70, "duration": 10, "velocity": 36}, {"time": 194790, "pitch": 69, "duration": 10, "velocity": 64}, {"time": 194820, "pitch": 69, "duration": 10, "velocity": 64}, {"time": 194850, "pitch": 69, "duration": 10, "velocity": 64}, {"time": 194880, "pitch": 42, "duration": 10, "velocity": 64}, {"time": 194880, "pitch": 68, "duration": 10, "velocity": 92}, {"time": 194880, "pitch": 69, "duration": 10, "velocity": 64}, {"time": 194880, "pitch": 70, "duration": 10, "velocity": 78}, {"time": 195000, "pitch": 70, "duration": 10, "velocity": 36}, {"time": 195020, "pitch": 69, "duration": 10, "velocity": 36}, {"time": 195120, "pitch": 28, "duration": 10, "velocity": 64}, {"time": 195120, "pitch": 37, "duration": 10, "velocity": 106}, {"time": 195120, "pitch": 42, "duration": 10, "velocity": 92}, {"time": 195120, "pitch": 56, "duration": 10, "velocity": 64}, {"time": 195120, "pitch": 67, "duration": 10, "velocity": 92}, {"time": 195120, "pitch": 69, "duration": 10, "velocity": 50}, {"time": 195120, "pitch": 70, "duration": 10, "velocity": 78}, {"time": 195240, "pitch": 70, "duration": 10, "velocity": 36}, {"time": 195260, "pitch": 56, "duration": 10, "velocity": 36}, {"time": 195260, "pitch": 69, "duration": 10, "velocity": 36}, {"time": 195360, "pitch": 28, "duration": 10, "velocity": 64}, {"time": 195360, "pitch": 37, "duration": 10, "velocity": 106}, {"time": 195360, "pitch": 39, "duration": 10, "velocity": 120}, {"time": 195360, "pitch": 40, "duration": 10, "velocity": 106}, {"time": 195360, "pitch": 42, "duration": 10, "velocity": 92}, {"time": 195360, "pitch": 56, "duration": 10, "velocity": 50}, {"time": 195360, "pitch": 67, "duration": 10, "velocity": 92}, {"time": 195360, "pitch": 69, "duration": 10, "velocity": 64}, {"time": 195360, "pitch": 70, "duration": 10, "velocity": 78}, {"time": 195480, "pitch": 70, "duration": 10, "velocity": 36}, {"time": 195500, "pitch": 56, "duration": 10, "velocity": 36}, {"time": 195500, "pitch": 68, "duration": 10, "velocity": 64}, {"time": 195500, "pitch": 69, "duration": 10, "velocity": 36}, {"time": 195600, "pitch": 42, "duration": 10, "velocity": 64}, {"time": 195600, "pitch": 56, "duration": 10, "velocity": 22}, {"time": 195600, "pitch": 69, "duration": 10, "velocity": 50}, {"time": 195600, "pitch": 70, "duration": 10, "velocity": 78}, {"time": 195720, "pitch": 70, "duration": 10, "velocity": 36}, {"time": 195740, "pitch": 56, "duration": 10, "velocity": 22}, {"time": 195740, "pitch": 68, "duration": 10, "velocity": 92}, {"time": 195740, "pitch": 69, "duration": 10, "velocity": 36}, {"time": 195840, "pitch": 28, "duration": 10, "velocity": 64}, {"time": 195840, "pitch": 37, "duration": 10, "velocity": 106}, {"time": 195840, "pitch": 42, "duration": 10, "velocity": 92}, {"time": 195840, "pitch": 56, "duration": 10, "velocity": 64}, {"time": 195840, "pitch": 69, "duration": 10, "velocity": 64}, {"time": 195840, "pitch": 70, "duration": 10, "velocity": 78}, {"time": 195960, "pitch": 70, "duration": 10, "velocity": 36}, {"time": 195980, "pitch": 56, "duration": 10, "velocity": 22}, {"time": 195980, "pitch": 67, "duration": 10, "velocity": 92}, {"time": 195980, "pitch": 69, "duration": 10, "velocity": 36}, {"time": 196080, "pitch": 42, "duration": 10, "velocity": 64}, {"time": 196080, "pitch": 56, "duration": 10, "velocity": 22}, {"time": 196080, "pitch": 69, "duration": 10, "velocity": 50}, {"time": 196080, "pitch": 70, "duration": 10, "velocity": 78}, {"time": 196200, "pitch": 28, "duration": 10, "velocity": 64}, {"time": 196200, "pitch": 37, "duration": 10, "velocity": 106}, {"time": 196200, "pitch": 70, "duration": 10, "velocity": 36}, {"time": 196220, "pitch": 56, "duration": 10, "velocity": 64}, {"time": 196220, "pitch": 67, "duration": 10, "velocity": 64}, {"time": 196220, "pitch": 69, "duration": 10, "velocity": 36}, {"time": 196320, "pitch": 39, "duration": 10, "velocity": 120}, {"time": 196320, "pitch": 40, "duration": 10, "velocity": 106}, {"time": 196320, "pitch": 42, "duration": 10, "velocity": 92}, {"time": 196320, "pitch": 56, "duration": 10, "velocity": 22}, {"time": 196320, "pitch": 67, "duration": 10, "velocity": 92}, {"time": 196320, "pitch": 69, "duration": 10, "velocity": 64}, {"time": 196320, "pitch": 70, "duration": 10, "velocity": 78}, {"time": 196440, "pitch": 70, "duration": 10, "velocity": 36}, {"time": 196460, "pitch": 56, "duration": 10, "velocity": 22}, {"time": 196460, "pitch": 69, "duration": 10, "velocity": 36}, {"time": 196560, "pitch": 28, "duration": 10, "velocity": 64}, {"time": 196560, "pitch": 37, "duration": 10, "velocity": 106}, {"time": 196560, "pitch": 42, "duration": 10, "velocity": 64}, {"time": 196560, "pitch": 56, "duration": 10, "velocity": 36}, {"time": 196560, "pitch": 68, "duration": 10, "velocity": 78}, {"time": 196560, "pitch": 69, "duration": 10, "velocity": 50}, {"time": 196560, "pitch": 70, "duration": 10, "velocity": 78}, {"time": 196680, "pitch": 70, "duration": 10, "velocity": 36}, {"time": 196700, "pitch": 56, "duration": 10, "velocity": 22}, {"time": 196700, "pitch": 68, "duration": 10, "velocity": 92}, {"time": 196700, "pitch": 69, "duration": 10, "velocity": 36}, {"time": 196800, "pitch": 42, "duration": 10, "velocity": 64}, {"time": 196800, "pitch": 68, "duration": 10, "velocity": 92}, {"time": 196800, "pitch": 69, "duration": 10, "velocity": 64}, {"time": 196800, "pitch": 70, "duration": 10, "velocity": 78}, {"time": 196920, "pitch": 70, "duration": 10, "velocity": 36}, {"time": 196940, "pitch": 69, "duration": 10, "velocity": 36}, {"time": 197040, "pitch": 28, "duration": 10, "velocity": 64}, {"time": 197040, "pitch": 37, "duration": 10, "velocity": 106}, {"time": 197040, "pitch": 39, "duration": 10, "velocity": 120}, {"time": 197040, "pitch": 40, "duration": 10, "velocity": 92}, {"time": 197040, "pitch": 42, "duration": 10, "velocity": 92}, {"time": 197040, "pitch": 56, "duration": 10, "velocity": 64}, {"time": 197040, "pitch": 67, "duration": 10, "velocity": 92}, {"time": 197040, "pitch": 69, "duration": 10, "velocity": 50}, {"time": 197040, "pitch": 70, "duration": 10, "velocity": 78}, {"time": 197160, "pitch": 70, "duration": 10, "velocity": 36}, {"time": 197180, "pitch": 56, "duration": 10, "velocity": 36}, {"time": 197180, "pitch": 69, "duration": 10, "velocity": 36}, {"time": 197280, "pitch": 39, "duration": 10, "velocity": 120}, {"time": 197280, "pitch": 40, "duration": 10, "velocity": 106}, {"time": 197280, "pitch": 42, "duration": 10, "velocity": 92}, {"time": 197280, "pitch": 56, "duration": 10, "velocity": 50}, {"time": 197280, "pitch": 67, "duration": 10, "velocity": 92}, {"time": 197280, "pitch": 69, "duration": 10, "velocity": 64}, {"time": 197280, "pitch": 70, "duration": 10, "velocity": 78}, {"time": 197400, "pitch": 28, "duration": 10, "velocity": 64}, {"time": 197400, "pitch": 37, "duration": 10, "velocity": 106}, {"time": 197400, "pitch": 70, "duration": 10, "velocity": 36}, {"time": 197420, "pitch": 56, "duration": 10, "velocity": 36}, {"time": 197420, "pitch": 68, "duration": 10, "velocity": 64}, {"time": 197420, "pitch": 69, "duration": 10, "velocity": 36}, {"time": 197520, "pitch": 42, "duration": 10, "velocity": 64}, {"time": 197520, "pitch": 56, "duration": 10, "velocity": 22}, {"time": 197520, "pitch": 69, "duration": 10, "velocity": 50}, {"time": 197520, "pitch": 70, "duration": 10, "velocity": 78}, {"time": 197640, "pitch": 70, "duration": 10, "velocity": 36}, {"time": 197660, "pitch": 56, "duration": 10, "velocity": 22}, {"time": 197660, "pitch": 68, "duration": 10, "velocity": 92}, {"time": 197660, "pitch": 69, "duration": 10, "velocity": 36}, {"time": 197760, "pitch": 28, "duration": 10, "velocity": 64}, {"time": 197760, "pitch": 37, "duration": 10, "velocity": 106}, {"time": 197760, "pitch": 42, "duration": 10, "velocity": 92}, {"time": 197760, "pitch": 56, "duration": 10, "velocity": 64}, {"time": 197760, "pitch": 69, "duration": 10, "velocity": 64}, {"time": 197760, "pitch": 70, "duration": 10, "velocity": 78}, {"time": 197880, "pitch": 70, "duration": 10, "velocity": 36}, {"time": 197900, "pitch": 56, "duration": 10, "velocity": 22}, {"time": 197900, "pitch": 67, "duration": 10, "velocity": 92}, {"time": 197900, "pitch": 69, "duration": 10, "velocity": 36}, {"time": 198000, "pitch": 42, "duration": 10, "velocity": 64}, {"time": 198000, "pitch": 56, "duration": 10, "velocity": 22}, {"time": 198000, "pitch": 69, "duration": 10, "velocity": 50}, {"time": 198000, "pitch": 70, "duration": 10, "velocity": 78}, {"time": 198120, "pitch": 28, "duration": 10, "velocity": 64}, {"time": 198120, "pitch": 37, "duration": 10, "velocity": 106}, {"time": 198120, "pitch": 70, "duration": 10, "velocity": 36}, {"time": 198140, "pitch": 56, "duration": 10, "velocity": 64}, {"time": 198140, "pitch": 67, "duration": 10, "velocity": 64}, {"time": 198140, "pitch": 69, "duration": 10, "velocity": 36}, {"time": 198240, "pitch": 39, "duration": 10, "velocity": 120}, {"time": 198240, "pitch": 40, "duration": 10, "velocity": 106}, {"time": 198240, "pitch": 42, "duration": 10, "velocity": 92}, {"time": 198240, "pitch": 56, "duration": 10, "velocity": 22}, {"time": 198240, "pitch": 67, "duration": 10, "velocity": 92}, {"time": 198240, "pitch": 69, "duration": 10, "velocity": 64}, {"time": 198240, "pitch": 70, "duration": 10, "velocity": 78}, {"time": 198360, "pitch": 70, "duration": 10, "velocity": 36}, {"time": 198380, "pitch": 56, "duration": 10, "velocity": 22}, {"time": 198380, "pitch": 69, "duration": 10, "velocity": 36}, {"time": 198480, "pitch": 28, "duration": 10, "velocity": 64}, {"time": 198480, "pitch": 37, "duration": 10, "velocity": 106}, {"time": 198480, "pitch": 42, "duration": 10, "velocity": 64}, {"time": 198480, "pitch": 56, "duration": 10, "velocity": 36}, {"time": 198480, "pitch": 68, "duration": 10, "velocity": 78}, {"time": 198480, "pitch": 69, "duration": 10, "velocity": 22}, {"time": 198480, "pitch": 70, "duration": 10, "velocity": 78}, {"time": 198510, "pitch": 69, "duration": 10, "velocity": 36}, {"time": 198540, "pitch": 69, "duration": 10, "velocity": 36}, {"time": 198570, "pitch": 69, "duration": 10, "velocity": 50}, {"time": 198600, "pitch": 56, "duration": 10, "velocity": 22}, {"time": 198600, "pitch": 68, "duration": 10, "velocity": 92}, {"time": 198600, "pitch": 69, "duration": 10, "velocity": 50}, {"time": 198600, "pitch": 70, "duration": 10, "velocity": 36}, {"time": 198630, "pitch": 69, "duration": 10, "velocity": 64}, {"time": 198660, "pitch": 69, "duration": 10, "velocity": 64}, {"time": 198690, "pitch": 69, "duration": 10, "velocity": 64}, {"time": 198720, "pitch": 38, "duration": 10, "velocity": 50}, {"time": 198720, "pitch": 42, "duration": 10, "velocity": 64}, {"time": 198720, "pitch": 57, "duration": 10, "velocity": 92}, {"time": 198720, "pitch": 68, "duration": 10, "velocity": 92}, {"time": 198720, "pitch": 69, "duration": 10, "velocity": 64}, {"time": 198720, "pitch": 70, "duration": 10, "velocity": 78}, {"time": 198840, "pitch": 38, "duration": 10, "velocity": 22}, {"time": 198840, "pitch": 70, "duration": 10, "velocity": 36}, {"time": 198860, "pitch": 69, "duration": 10, "velocity": 36}, {"time": 198960, "pitch": 28, "duration": 10, "velocity": 64}, {"time": 198960, "pitch": 37, "duration": 10, "velocity": 106}, {"time": 198960, "pitch": 38, "duration": 10, "velocity": 78}, {"time": 198960, "pitch": 42, "duration": 10, "velocity": 92}, {"time": 198960, "pitch": 56, "duration": 10, "velocity": 64}, {"time": 198960, "pitch": 67, "duration": 10, "velocity": 92}, {"time": 198960, "pitch": 69, "duration": 10, "velocity": 50}, {"time": 198960, "pitch": 70, "duration": 10, "velocity": 78}, {"time": 199080, "pitch": 38, "duration": 10, "velocity": 22}, {"time": 199080, "pitch": 70, "duration": 10, "velocity": 36}, {"time": 199100, "pitch": 56, "duration": 10, "velocity": 36}, {"time": 199100, "pitch": 69, "duration": 10, "velocity": 36}, {"time": 199200, "pitch": 28, "duration": 10, "velocity": 64}, {"time": 199200, "pitch": 37, "duration": 10, "velocity": 106}, {"time": 199200, "pitch": 38, "duration": 10, "velocity": 50}, {"time": 199200, "pitch": 39, "duration": 10, "velocity": 120}, {"time": 199200, "pitch": 40, "duration": 10, "velocity": 106}, {"time": 199200, "pitch": 42, "duration": 10, "velocity": 92}, {"time": 199200, "pitch": 49, "duration": 10, "velocity": 92}, {"time": 199200, "pitch": 56, "duration": 10, "velocity": 50}, {"time": 199200, "pitch": 67, "duration": 10, "velocity": 92}, {"time": 199200, "pitch": 69, "duration": 10, "velocity": 64}, {"time": 199200, "pitch": 70, "duration": 10, "velocity": 78}, {"time": 199260, "pitch": 38, "duration": 10, "velocity": 36}, {"time": 199320, "pitch": 38, "duration": 10, "velocity": 36}, {"time": 199320, "pitch": 70, "duration": 10, "velocity": 36}, {"time": 199340, "pitch": 56, "duration": 10, "velocity": 36}, {"time": 199340, "pitch": 68, "duration": 10, "velocity": 64}, {"time": 199340, "pitch": 69, "duration": 10, "velocity": 36}, {"time": 199380, "pitch": 38, "duration": 10, "velocity": 36}, {"time": 199440, "pitch": 38, "duration": 10, "velocity": 22}, {"time": 199440, "pitch": 42, "duration": 10, "velocity": 64}, {"time": 199440, "pitch": 56, "duration": 10, "velocity": 22}, {"time": 199440, "pitch": 69, "duration": 10, "velocity": 50}, {"time": 199440, "pitch": 70, "duration": 10, "velocity": 78}, {"time": 199500, "pitch": 38, "duration": 10, "velocity": 36}, {"time": 199560, "pitch": 38, "duration": 10, "velocity": 22}, {"time": 199560, "pitch": 70, "duration": 10, "velocity": 36}, {"time": 199580, "pitch": 56, "duration": 10, "velocity": 22}, {"time": 199580, "pitch": 68, "duration": 10, "velocity": 92}, {"time": 199580, "pitch": 69, "duration": 10, "velocity": 36}, {"time": 199620, "pitch": 38, "duration": 10, "velocity": 22}, {"time": 199680, "pitch": 28, "duration": 10, "velocity": 64}, {"time": 199680, "pitch": 37, "duration": 10, "velocity": 106}, {"time": 199680, "pitch": 38, "duration": 10, "velocity": 36}, {"time": 199680, "pitch": 42, "duration": 10, "velocity": 92}, {"time": 199680, "pitch": 56, "duration": 10, "velocity": 64}, {"time": 199680, "pitch": 69, "duration": 10, "velocity": 64}, {"time": 199680, "pitch": 70, "duration": 10, "velocity": 78}, {"time": 199800, "pitch": 38, "duration": 10, "velocity": 22}, {"time": 199800, "pitch": 70, "duration": 10, "velocity": 36}, {"time": 199820, "pitch": 56, "duration": 10, "velocity": 22}, {"time": 199820, "pitch": 67, "duration": 10, "velocity": 92}, {"time": 199820, "pitch": 69, "duration": 10, "velocity": 36}, {"time": 199820, "pitch": 72, "duration": 210, "velocity": 78}, {"time": 199920, "pitch": 38, "duration": 10, "velocity": 78}, {"time": 199920, "pitch": 42, "duration": 10, "velocity": 64}, {"time": 199920, "pitch": 56, "duration": 10, "velocity": 22}, {"time": 199920, "pitch": 69, "duration": 10, "velocity": 50}, {"time": 199920, "pitch": 70, "duration": 10, "velocity": 78}, {"time": 200040, "pitch": 28, "duration": 10, "velocity": 64}, {"time": 200040, "pitch": 37, "duration": 10, "velocity": 106}, {"time": 200040, "pitch": 38, "duration": 10, "velocity": 36}, {"time": 200040, "pitch": 70, "duration": 10, "velocity": 36}, {"time": 200060, "pitch": 56, "duration": 10, "velocity": 64}, {"time": 200060, "pitch": 67, "duration": 10, "velocity": 64}, {"time": 200060, "pitch": 69, "duration": 10, "velocity": 36}, {"time": 200060, "pitch": 72, "duration": 100, "velocity": 64}, {"time": 200160, "pitch": 38, "duration": 10, "velocity": 50}, {"time": 200160, "pitch": 39, "duration": 10, "velocity": 120}, {"time": 200160, "pitch": 40, "duration": 10, "velocity": 106}, {"time": 200160, "pitch": 42, "duration": 10, "velocity": 92}, {"time": 200160, "pitch": 56, "duration": 10, "velocity": 22}, {"time": 200160, "pitch": 67, "duration": 10, "velocity": 92}, {"time": 200160, "pitch": 69, "duration": 10, "velocity": 64}, {"time": 200160, "pitch": 70, "duration": 10, "velocity": 78}, {"time": 200160, "pitch": 72, "duration": 220, "velocity": 64}, {"time": 200220, "pitch": 38, "duration": 10, "velocity": 36}, {"time": 200280, "pitch": 38, "duration": 10, "velocity": 36}, {"time": 200280, "pitch": 70, "duration": 10, "velocity": 36}, {"time": 200300, "pitch": 56, "duration": 10, "velocity": 22}, {"time": 200300, "pitch": 69, "duration": 10, "velocity": 36}, {"time": 200340, "pitch": 38, "duration": 10, "velocity": 36}, {"time": 200400, "pitch": 28, "duration": 10, "velocity": 64}, {"time": 200400, "pitch": 37, "duration": 10, "velocity": 106}, {"time": 200400, "pitch": 38, "duration": 10, "velocity": 22}, {"time": 200400, "pitch": 42, "duration": 10, "velocity": 64}, {"time": 200400, "pitch": 56, "duration": 10, "velocity": 36}, {"time": 200400, "pitch": 68, "duration": 10, "velocity": 78}, {"time": 200400, "pitch": 69, "duration": 10, "velocity": 50}, {"time": 200400, "pitch": 70, "duration": 10, "velocity": 78}, {"time": 200400, "pitch": 72, "duration": 100, "velocity": 64}, {"time": 200460, "pitch": 38, "duration": 10, "velocity": 36}, {"time": 200520, "pitch": 38, "duration": 10, "velocity": 22}, {"time": 200520, "pitch": 70, "duration": 10, "velocity": 36}, {"time": 200540, "pitch": 56, "duration": 10, "velocity": 22}, {"time": 200540, "pitch": 68, "duration": 10, "velocity": 92}, {"time": 200540, "pitch": 69, "duration": 10, "velocity": 36}, {"time": 200540, "pitch": 72, "duration": 100, "velocity": 64}, {"time": 200580, "pitch": 38, "duration": 10, "velocity": 22}, {"time": 200640, "pitch": 38, "duration": 10, "velocity": 50}, {"time": 200640, "pitch": 42, "duration": 10, "velocity": 64}, {"time": 200640, "pitch": 68, "duration": 10, "velocity": 92}, {"time": 200640, "pitch": 69, "duration": 10, "velocity": 64}, {"time": 200640, "pitch": 70, "duration": 10, "velocity": 78}, {"time": 200640, "pitch": 72, "duration": 720, "velocity": 78}, {"time": 200760, "pitch": 38, "duration": 10, "velocity": 22}, {"time": 200760, "pitch": 70, "duration": 10, "velocity": 36}, {"time": 200780, "pitch": 69, "duration": 10, "velocity": 36}, {"time": 200880, "pitch": 28, "duration": 10, "velocity": 64}, {"time": 200880, "pitch": 37, "duration": 10, "velocity": 106}, {"time": 200880, "pitch": 38, "duration": 10, "velocity": 78}, {"time": 200880, "pitch": 42, "duration": 10, "velocity": 92}, {"time": 200880, "pitch": 56, "duration": 10, "velocity": 64}, {"time": 200880, "pitch": 67, "duration": 10, "velocity": 92}, {"time": 200880, "pitch": 69, "duration": 10, "velocity": 50}, {"time": 200880, "pitch": 70, "duration": 10, "velocity": 78}, {"time": 201000, "pitch": 38, "duration": 10, "velocity": 22}, {"time": 201000, "pitch": 70, "duration": 10, "velocity": 36}, {"time": 201020, "pitch": 56, "duration": 10, "velocity": 36}, {"time": 201020, "pitch": 69, "duration": 10, "velocity": 36}, {"time": 201120, "pitch": 38, "duration": 10, "velocity": 50}, {"time": 201120, "pitch": 39, "duration": 10, "velocity": 120}, {"time": 201120, "pitch": 40, "duration": 10, "velocity": 106}, {"time": 201120, "pitch": 42, "duration": 10, "velocity": 92}, {"time": 201120, "pitch": 49, "duration": 10, "velocity": 78}, {"time": 201120, "pitch": 56, "duration": 10, "velocity": 50}, {"time": 201120, "pitch": 67, "duration": 10, "velocity": 92}, {"time": 201120, "pitch": 69, "duration": 10, "velocity": 64}, {"time": 201120, "pitch": 70, "duration": 10, "velocity": 78}, {"time": 201180, "pitch": 38, "duration": 10, "velocity": 36}, {"time": 201240, "pitch": 28, "duration": 10, "velocity": 64}, {"time": 201240, "pitch": 37, "duration": 10, "velocity": 106}, {"time": 201240, "pitch": 38, "duration": 10, "velocity": 36}, {"time": 201240, "pitch": 70, "duration": 10, "velocity": 36}, {"time": 201260, "pitch": 56, "duration": 10, "velocity": 36}, {"time": 201260, "pitch": 68, "duration": 10, "velocity": 64}, {"time": 201260, "pitch": 69, "duration": 10, "velocity": 36}, {"time": 201300, "pitch": 38, "duration": 10, "velocity": 36}, {"time": 201360, "pitch": 38, "duration": 10, "velocity": 22}, {"time": 201360, "pitch": 42, "duration": 10, "velocity": 64}, {"time": 201360, "pitch": 56, "duration": 10, "velocity": 22}, {"time": 201360, "pitch": 69, "duration": 10, "velocity": 50}, {"time": 201360, "pitch": 70, "duration": 10, "velocity": 78}, {"time": 201420, "pitch": 38, "duration": 10, "velocity": 36}, {"time": 201480, "pitch": 38, "duration": 10, "velocity": 22}, {"time": 201480, "pitch": 70, "duration": 10, "velocity": 36}, {"time": 201500, "pitch": 56, "duration": 10, "velocity": 22}, {"time": 201500, "pitch": 68, "duration": 10, "velocity": 92}, {"time": 201500, "pitch": 69, "duration": 10, "velocity": 36}, {"time": 201540, "pitch": 38, "duration": 10, "velocity": 22}, {"time": 201600, "pitch": 28, "duration": 10, "velocity": 64}, {"time": 201600, "pitch": 37, "duration": 10, "velocity": 106}, {"time": 201600, "pitch": 38, "duration": 10, "velocity": 36}, {"time": 201600, "pitch": 42, "duration": 10, "velocity": 92}, {"time": 201600, "pitch": 56, "duration": 10, "velocity": 64}, {"time": 201600, "pitch": 69, "duration": 10, "velocity": 64}, {"time": 201600, "pitch": 70, "duration": 10, "velocity": 78}, {"time": 201720, "pitch": 38, "duration": 10, "velocity": 22}, {"time": 201720, "pitch": 70, "duration": 10, "velocity": 36}, {"time": 201740, "pitch": 56, "duration": 10, "velocity": 22}, {"time": 201740, "pitch": 67, "duration": 10, "velocity": 92}, {"time": 201740, "pitch": 69, "duration": 10, "velocity": 36}, {"time": 201740, "pitch": 72, "duration": 80, "velocity": 78}, {"time": 201840, "pitch": 38, "duration": 10, "velocity": 78}, {"time": 201840, "pitch": 42, "duration": 10, "velocity": 64}, {"time": 201840, "pitch": 56, "duration": 10, "velocity": 22}, {"time": 201840, "pitch": 69, "duration": 10, "velocity": 50}, {"time": 201840, "pitch": 70, "duration": 10, "velocity": 78}, {"time": 201840, "pitch": 72, "duration": 90, "velocity": 78}, {"time": 201960, "pitch": 28, "duration": 10, "velocity": 64}, {"time": 201960, "pitch": 37, "duration": 10, "velocity": 106}, {"time": 201960, "pitch": 38, "duration": 10, "velocity": 36}, {"time": 201960, "pitch": 70, "duration": 10, "velocity": 36}, {"time": 201980, "pitch": 56, "duration": 10, "velocity": 64}, {"time": 201980, "pitch": 67, "duration": 10, "velocity": 64}, {"time": 201980, "pitch": 69, "duration": 10, "velocity": 36}, {"time": 201980, "pitch": 72, "duration": 90, "velocity": 78}, {"time": 202080, "pitch": 38, "duration": 10, "velocity": 50}, {"time": 202080, "pitch": 39, "duration": 10, "velocity": 120}, {"time": 202080, "pitch": 40, "duration": 10, "velocity": 106}, {"time": 202080, "pitch": 42, "duration": 10, "velocity": 92}, {"time": 202080, "pitch": 56, "duration": 10, "velocity": 22}, {"time": 202080, "pitch": 67, "duration": 10, "velocity": 92}, {"time": 202080, "pitch": 69, "duration": 10, "velocity": 64}, {"time": 202080, "pitch": 70, "duration": 10, "velocity": 78}, {"time": 202080, "pitch": 72, "duration": 230, "velocity": 78}, {"time": 202140, "pitch": 38, "duration": 10, "velocity": 36}, {"time": 202200, "pitch": 38, "duration": 10, "velocity": 36}, {"time": 202200, "pitch": 70, "duration": 10, "velocity": 36}, {"time": 202220, "pitch": 56, "duration": 10, "velocity": 22}, {"time": 202220, "pitch": 69, "duration": 10, "velocity": 36}, {"time": 202260, "pitch": 38, "duration": 10, "velocity": 36}, {"time": 202320, "pitch": 28, "duration": 10, "velocity": 64}, {"time": 202320, "pitch": 37, "duration": 10, "velocity": 106}, {"time": 202320, "pitch": 38, "duration": 10, "velocity": 22}, {"time": 202320, "pitch": 42, "duration": 10, "velocity": 64}, {"time": 202320, "pitch": 56, "duration": 10, "velocity": 36}, {"time": 202320, "pitch": 68, "duration": 10, "velocity": 78}, {"time": 202320, "pitch": 69, "duration": 10, "velocity": 22}, {"time": 202320, "pitch": 70, "duration": 10, "velocity": 78}, {"time": 202320, "pitch": 72, "duration": 100, "velocity": 78}, {"time": 202350, "pitch": 69, "duration": 10, "velocity": 36}, {"time": 202380, "pitch": 38, "duration": 10, "velocity": 36}, {"time": 202380, "pitch": 69, "duration": 10, "velocity": 36}, {"time": 202410, "pitch": 69, "duration": 10, "velocity": 50}, {"time": 202440, "pitch": 38, "duration": 10, "velocity": 22}, {"time": 202440, "pitch": 56, "duration": 10, "velocity": 22}, {"time": 202440, "pitch": 68, "duration": 10, "velocity": 92}, {"time": 202440, "pitch": 69, "duration": 10, "velocity": 50}, {"time": 202440, "pitch": 70, "duration": 10, "velocity": 36}, {"time": 202470, "pitch": 69, "duration": 10, "velocity": 64}, {"time": 202500, "pitch": 38, "duration": 10, "velocity": 22}, {"time": 202500, "pitch": 69, "duration": 10, "velocity": 64}, {"time": 202530, "pitch": 69, "duration": 10, "velocity": 64}, {"time": 202560, "pitch": 38, "duration": 10, "velocity": 50}, {"time": 202560, "pitch": 42, "duration": 10, "velocity": 64}, {"time": 202560, "pitch": 49, "duration": 10, "velocity": 78}, {"time": 202560, "pitch": 68, "duration": 10, "velocity": 92}, {"time": 202560, "pitch": 69, "duration": 10, "velocity": 64}, {"time": 202560, "pitch": 70, "duration": 10, "velocity": 78}, {"time": 202680, "pitch": 38, "duration": 10, "velocity": 22}, {"time": 202680, "pitch": 70, "duration": 10, "velocity": 36}, {"time": 202700, "pitch": 69, "duration": 10, "velocity": 36}, {"time": 202800, "pitch": 28, "duration": 10, "velocity": 64}, {"time": 202800, "pitch": 37, "duration": 10, "velocity": 106}, {"time": 202800, "pitch": 38, "duration": 10, "velocity": 78}, {"time": 202800, "pitch": 42, "duration": 10, "velocity": 92}, {"time": 202800, "pitch": 56, "duration": 10, "velocity": 64}, {"time": 202800, "pitch": 67, "duration": 10, "velocity": 92}, {"time": 202800, "pitch": 69, "duration": 10, "velocity": 50}, {"time": 202800, "pitch": 70, "duration": 10, "velocity": 78}, {"time": 202920, "pitch": 38, "duration": 10, "velocity": 22}, {"time": 202920, "pitch": 70, "duration": 10, "velocity": 36}, {"time": 202940, "pitch": 56, "duration": 10, "velocity": 36}, {"time": 202940, "pitch": 69, "duration": 10, "velocity": 36}, {"time": 203040, "pitch": 28, "duration": 10, "velocity": 64}, {"time": 203040, "pitch": 37, "duration": 10, "velocity": 106}, {"time": 203040, "pitch": 38, "duration": 10, "velocity": 50}, {"time": 203040, "pitch": 39, "duration": 10, "velocity": 120}, {"time": 203040, "pitch": 40, "duration": 10, "velocity": 106}, {"time": 203040, "pitch": 42, "duration": 10, "velocity": 92}, {"time": 203040, "pitch": 56, "duration": 10, "velocity": 50}, {"time": 203040, "pitch": 57, "duration": 10, "velocity": 78}, {"time": 203040, "pitch": 67, "duration": 10, "velocity": 92}, {"time": 203040, "pitch": 69, "duration": 10, "velocity": 64}, {"time": 203040, "pitch": 70, "duration": 10, "velocity": 78}, {"time": 203100, "pitch": 38, "duration": 10, "velocity": 36}, {"time": 203160, "pitch": 38, "duration": 10, "velocity": 36}, {"time": 203160, "pitch": 70, "duration": 10, "velocity": 36}, {"time": 203180, "pitch": 56, "duration": 10, "velocity": 36}, {"time": 203180, "pitch": 68, "duration": 10, "velocity": 64}, {"time": 203180, "pitch": 69, "duration": 10, "velocity": 36}, {"time": 203220, "pitch": 38, "duration": 10, "velocity": 36}, {"time": 203280, "pitch": 38, "duration": 10, "velocity": 22}, {"time": 203280, "pitch": 42, "duration": 10, "velocity": 64}, {"time": 203280, "pitch": 56, "duration": 10, "velocity": 22}, {"time": 203280, "pitch": 69, "duration": 10, "velocity": 50}, {"time": 203280, "pitch": 70, "duration": 10, "velocity": 78}, {"time": 203340, "pitch": 38, "duration": 10, "velocity": 36}, {"time": 203400, "pitch": 38, "duration": 10, "velocity": 22}, {"time": 203400, "pitch": 70, "duration": 10, "velocity": 36}, {"time": 203420, "pitch": 56, "duration": 10, "velocity": 22}, {"time": 203420, "pitch": 68, "duration": 10, "velocity": 92}, {"time": 203420, "pitch": 69, "duration": 10, "velocity": 36}, {"time": 203460, "pitch": 38, "duration": 10, "velocity": 22}, {"time": 203520, "pitch": 28, "duration": 10, "velocity": 64}, {"time": 203520, "pitch": 37, "duration": 10, "velocity": 106}, {"time": 203520, "pitch": 38, "duration": 10, "velocity": 36}, {"time": 203520, "pitch": 42, "duration": 10, "velocity": 92}, {"time": 203520, "pitch": 56, "duration": 10, "velocity": 64}, {"time": 203520, "pitch": 69, "duration": 10, "velocity": 64}, {"time": 203520, "pitch": 70, "duration": 10, "velocity": 78}, {"time": 203640, "pitch": 38, "duration": 10, "velocity": 22}, {"time": 203640, "pitch": 70, "duration": 10, "velocity": 36}, {"time": 203660, "pitch": 56, "duration": 10, "velocity": 22}, {"time": 203660, "pitch": 67, "duration": 10, "velocity": 92}, {"time": 203660, "pitch": 69, "duration": 10, "velocity": 36}, {"time": 203660, "pitch": 72, "duration": 210, "velocity": 78}, {"time": 203760, "pitch": 38, "duration": 10, "velocity": 78}, {"time": 203760, "pitch": 42, "duration": 10, "velocity": 64}, {"time": 203760, "pitch": 56, "duration": 10, "velocity": 22}, {"time": 203760, "pitch": 69, "duration": 10, "velocity": 50}, {"time": 203760, "pitch": 70, "duration": 10, "velocity": 78}, {"time": 203880, "pitch": 28, "duration": 10, "velocity": 64}, {"time": 203880, "pitch": 37, "duration": 10, "velocity": 106}, {"time": 203880, "pitch": 38, "duration": 10, "velocity": 36}, {"time": 203880, "pitch": 70, "duration": 10, "velocity": 36}, {"time": 203900, "pitch": 56, "duration": 10, "velocity": 64}, {"time": 203900, "pitch": 67, "duration": 10, "velocity": 64}, {"time": 203900, "pitch": 69, "duration": 10, "velocity": 36}, {"time": 203900, "pitch": 72, "duration": 90, "velocity": 64}, {"time": 204000, "pitch": 38, "duration": 10, "velocity": 50}, {"time": 204000, "pitch": 39, "duration": 10, "velocity": 120}, {"time": 204000, "pitch": 40, "duration": 10, "velocity": 106}, {"time": 204000, "pitch": 42, "duration": 10, "velocity": 92}, {"time": 204000, "pitch": 56, "duration": 10, "velocity": 22}, {"time": 204000, "pitch": 67, "duration": 10, "velocity": 92}, {"time": 204000, "pitch": 69, "duration": 10, "velocity": 64}, {"time": 204000, "pitch": 70, "duration": 10, "velocity": 78}, {"time": 204000, "pitch": 72, "duration": 240, "velocity": 78}, {"time": 204060, "pitch": 38, "duration": 10, "velocity": 36}, {"time": 204120, "pitch": 38, "duration": 10, "velocity": 36}, {"time": 204120, "pitch": 70, "duration": 10, "velocity": 36}, {"time": 204140, "pitch": 56, "duration": 10, "velocity": 22}, {"time": 204140, "pitch": 69, "duration": 10, "velocity": 36}, {"time": 204180, "pitch": 38, "duration": 10, "velocity": 36}, {"time": 204240, "pitch": 28, "duration": 10, "velocity": 64}, {"time": 204240, "pitch": 37, "duration": 10, "velocity": 106}, {"time": 204240, "pitch": 38, "duration": 10, "velocity": 22}, {"time": 204240, "pitch": 42, "duration": 10, "velocity": 64}, {"time": 204240, "pitch": 56, "duration": 10, "velocity": 36}, {"time": 204240, "pitch": 68, "duration": 10, "velocity": 78}, {"time": 204240, "pitch": 69, "duration": 10, "velocity": 50}, {"time": 204240, "pitch": 70, "duration": 10, "velocity": 78}, {"time": 204300, "pitch": 38, "duration": 10, "velocity": 36}, {"time": 204360, "pitch": 38, "duration": 10, "velocity": 22}, {"time": 204360, "pitch": 70, "duration": 10, "velocity": 36}, {"time": 204380, "pitch": 56, "duration": 10, "velocity": 22}, {"time": 204380, "pitch": 68, "duration": 10, "velocity": 92}, {"time": 204380, "pitch": 69, "duration": 10, "velocity": 36}, {"time": 204420, "pitch": 38, "duration": 10, "velocity": 22}, {"time": 204480, "pitch": 42, "duration": 10, "velocity": 64}, {"time": 204480, "pitch": 57, "duration": 10, "velocity": 92}, {"time": 204480, "pitch": 68, "duration": 10, "velocity": 92}, {"time": 204480, "pitch": 69, "duration": 10, "velocity": 64}, {"time": 204480, "pitch": 70, "duration": 10, "velocity": 78}, {"time": 204620, "pitch": 38, "duration": 10, "velocity": 36}, {"time": 204620, "pitch": 40, "duration": 10, "velocity": 64}, {"time": 204620, "pitch": 69, "duration": 10, "velocity": 36}, {"time": 204620, "pitch": 70, "duration": 10, "velocity": 36}, {"time": 204620, "pitch": 78, "duration": 10, "velocity": 50}, {"time": 204720, "pitch": 42, "duration": 10, "velocity": 92}, {"time": 204720, "pitch": 56, "duration": 10, "velocity": 64}, {"time": 204720, "pitch": 67, "duration": 10, "velocity": 92}, {"time": 204720, "pitch": 69, "duration": 10, "velocity": 50}, {"time": 204720, "pitch": 70, "duration": 10, "velocity": 78}, {"time": 204860, "pitch": 38, "duration": 10, "velocity": 64}, {"time": 204860, "pitch": 40, "duration": 10, "velocity": 78}, {"time": 204860, "pitch": 56, "duration": 10, "velocity": 36}, {"time": 204860, "pitch": 69, "duration": 10, "velocity": 36}, {"time": 204860, "pitch": 70, "duration": 10, "velocity": 36}, {"time": 204860, "pitch": 78, "duration": 10, "velocity": 50}, {"time": 204960, "pitch": 42, "duration": 10, "velocity": 92}, {"time": 204960, "pitch": 56, "duration": 10, "velocity": 50}, {"time": 204960, "pitch": 67, "duration": 10, "velocity": 92}, {"time": 204960, "pitch": 69, "duration": 10, "velocity": 64}, {"time": 204960, "pitch": 70, "duration": 10, "velocity": 78}, {"time": 205100, "pitch": 38, "duration": 10, "velocity": 78}, {"time": 205100, "pitch": 40, "duration": 10, "velocity": 106}, {"time": 205100, "pitch": 56, "duration": 10, "velocity": 36}, {"time": 205100, "pitch": 68, "duration": 10, "velocity": 64}, {"time": 205100, "pitch": 69, "duration": 10, "velocity": 36}, {"time": 205100, "pitch": 70, "duration": 10, "velocity": 36}, {"time": 205100, "pitch": 78, "duration": 10, "velocity": 50}, {"time": 205200, "pitch": 42, "duration": 10, "velocity": 64}, {"time": 205200, "pitch": 56, "duration": 10, "velocity": 22}, {"time": 205200, "pitch": 69, "duration": 10, "velocity": 50}, {"time": 205200, "pitch": 70, "duration": 10, "velocity": 78}, {"time": 205340, "pitch": 38, "duration": 10, "velocity": 64}, {"time": 205340, "pitch": 40, "duration": 10, "velocity": 64}, {"time": 205340, "pitch": 56, "duration": 10, "velocity": 22}, {"time": 205340, "pitch": 68, "duration": 10, "velocity": 92}, {"time": 205340, "pitch": 69, "duration": 10, "velocity": 36}, {"time": 205340, "pitch": 70, "duration": 10, "velocity": 36}, {"time": 205340, "pitch": 78, "duration": 10, "velocity": 50}, {"time": 205440, "pitch": 38, "duration": 10, "velocity": 64}, {"time": 205440, "pitch": 40, "duration": 10, "velocity": 106}, {"time": 205440, "pitch": 42, "duration": 10, "velocity": 92}, {"time": 205440, "pitch": 56, "duration": 10, "velocity": 64}, {"time": 205440, "pitch": 69, "duration": 10, "velocity": 64}, {"time": 205440, "pitch": 70, "duration": 10, "velocity": 78}, {"time": 205440, "pitch": 78, "duration": 10, "velocity": 50}, {"time": 205580, "pitch": 38, "duration": 10, "velocity": 78}, {"time": 205580, "pitch": 40, "duration": 10, "velocity": 120}, {"time": 205580, "pitch": 56, "duration": 10, "velocity": 22}, {"time": 205580, "pitch": 67, "duration": 10, "velocity": 92}, {"time": 205580, "pitch": 69, "duration": 10, "velocity": 36}, {"time": 205580, "pitch": 70, "duration": 10, "velocity": 36}, {"time": 205580, "pitch": 78, "duration": 10, "velocity": 50}, {"time": 205680, "pitch": 42, "duration": 10, "velocity": 64}, {"time": 205680, "pitch": 56, "duration": 10, "velocity": 22}, {"time": 205680, "pitch": 69, "duration": 10, "velocity": 50}, {"time": 205680, "pitch": 70, "duration": 10, "velocity": 78}, {"time": 205810, "pitch": 38, "duration": 10, "velocity": 64}, {"time": 205810, "pitch": 40, "duration": 10, "velocity": 106}, {"time": 205810, "pitch": 70, "duration": 10, "velocity": 36}, {"time": 205820, "pitch": 56, "duration": 10, "velocity": 64}, {"time": 205820, "pitch": 67, "duration": 10, "velocity": 64}, {"time": 205820, "pitch": 69, "duration": 10, "velocity": 36}, {"time": 205820, "pitch": 78, "duration": 10, "velocity": 50}, {"time": 205920, "pitch": 38, "duration": 10, "velocity": 78}, {"time": 205920, "pitch": 40, "duration": 10, "velocity": 120}, {"time": 205920, "pitch": 42, "duration": 10, "velocity": 92}, {"time": 205920, "pitch": 56, "duration": 10, "velocity": 22}, {"time": 205920, "pitch": 67, "duration": 10, "velocity": 92}, {"time": 205920, "pitch": 69, "duration": 10, "velocity": 64}, {"time": 205920, "pitch": 70, "duration": 10, "velocity": 78}, {"time": 205920, "pitch": 78, "duration": 10, "velocity": 50}, {"time": 206060, "pitch": 56, "duration": 10, "velocity": 22}, {"time": 206060, "pitch": 69, "duration": 10, "velocity": 36}, {"time": 206060, "pitch": 70, "duration": 10, "velocity": 36}, {"time": 206160, "pitch": 42, "duration": 10, "velocity": 64}, {"time": 206160, "pitch": 56, "duration": 10, "velocity": 36}, {"time": 206160, "pitch": 68, "duration": 10, "velocity": 78}, {"time": 206160, "pitch": 69, "duration": 10, "velocity": 22}, {"time": 206160, "pitch": 70, "duration": 10, "velocity": 78}, {"time": 206190, "pitch": 69, "duration": 10, "velocity": 36}, {"time": 206220, "pitch": 69, "duration": 10, "velocity": 36}, {"time": 206250, "pitch": 69, "duration": 10, "velocity": 50}, {"time": 206280, "pitch": 56, "duration": 10, "velocity": 22}, {"time": 206280, "pitch": 68, "duration": 10, "velocity": 92}, {"time": 206280, "pitch": 69, "duration": 10, "velocity": 50}, {"time": 206300, "pitch": 70, "duration": 10, "velocity": 36}, {"time": 206310, "pitch": 69, "duration": 10, "velocity": 64}, {"time": 206340, "pitch": 69, "duration": 10, "velocity": 64}, {"time": 206370, "pitch": 69, "duration": 10, "velocity": 64}, {"time": 206400, "pitch": 38, "duration": 10, "velocity": 50}, {"time": 206400, "pitch": 42, "duration": 10, "velocity": 64}, {"time": 206400, "pitch": 57, "duration": 10, "velocity": 92}, {"time": 206400, "pitch": 68, "duration": 10, "velocity": 92}, {"time": 206400, "pitch": 69, "duration": 10, "velocity": 64}, {"time": 206400, "pitch": 70, "duration": 10, "velocity": 78}, {"time": 206520, "pitch": 38, "duration": 10, "velocity": 22}, {"time": 206520, "pitch": 70, "duration": 10, "velocity": 36}, {"time": 206540, "pitch": 69, "duration": 10, "velocity": 36}, {"time": 206640, "pitch": 28, "duration": 10, "velocity": 64}, {"time": 206640, "pitch": 37, "duration": 10, "velocity": 106}, {"time": 206640, "pitch": 38, "duration": 10, "velocity": 78}, {"time": 206640, "pitch": 42, "duration": 10, "velocity": 92}, {"time": 206640, "pitch": 56, "duration": 10, "velocity": 64}, {"time": 206640, "pitch": 67, "duration": 10, "velocity": 92}, {"time": 206640, "pitch": 69, "duration": 10, "velocity": 50}, {"time": 206640, "pitch": 70, "duration": 10, "velocity": 78}, {"time": 206760, "pitch": 38, "duration": 10, "velocity": 22}, {"time": 206760, "pitch": 70, "duration": 10, "velocity": 36}, {"time": 206780, "pitch": 56, "duration": 10, "velocity": 36}, {"time": 206780, "pitch": 69, "duration": 10, "velocity": 36}, {"time": 206880, "pitch": 28, "duration": 10, "velocity": 64}, {"time": 206880, "pitch": 37, "duration": 10, "velocity": 106}, {"time": 206880, "pitch": 38, "duration": 10, "velocity": 50}, {"time": 206880, "pitch": 39, "duration": 10, "velocity": 120}, {"time": 206880, "pitch": 40, "duration": 10, "velocity": 106}, {"time": 206880, "pitch": 42, "duration": 10, "velocity": 92}, {"time": 206880, "pitch": 49, "duration": 10, "velocity": 92}, {"time": 206880, "pitch": 56, "duration": 10, "velocity": 50}, {"time": 206880, "pitch": 67, "duration": 10, "velocity": 92}, {"time": 206880, "pitch": 69, "duration": 10, "velocity": 64}, {"time": 206880, "pitch": 70, "duration": 10, "velocity": 78}, {"time": 206940, "pitch": 38, "duration": 10, "velocity": 36}, {"time": 207000, "pitch": 38, "duration": 10, "velocity": 36}, {"time": 207000, "pitch": 70, "duration": 10, "velocity": 36}, {"time": 207020, "pitch": 56, "duration": 10, "velocity": 36}, {"time": 207020, "pitch": 68, "duration": 10, "velocity": 64}, {"time": 207020, "pitch": 69, "duration": 10, "velocity": 36}, {"time": 207060, "pitch": 38, "duration": 10, "velocity": 36}, {"time": 207120, "pitch": 38, "duration": 10, "velocity": 22}, {"time": 207120, "pitch": 42, "duration": 10, "velocity": 64}, {"time": 207120, "pitch": 56, "duration": 10, "velocity": 22}, {"time": 207120, "pitch": 69, "duration": 10, "velocity": 50}, {"time": 207120, "pitch": 70, "duration": 10, "velocity": 78}, {"time": 207180, "pitch": 38, "duration": 10, "velocity": 36}, {"time": 207240, "pitch": 38, "duration": 10, "velocity": 22}, {"time": 207240, "pitch": 70, "duration": 10, "velocity": 36}, {"time": 207260, "pitch": 56, "duration": 10, "velocity": 22}, {"time": 207260, "pitch": 68, "duration": 10, "velocity": 92}, {"time": 207260, "pitch": 69, "duration": 10, "velocity": 36}, {"time": 207300, "pitch": 38, "duration": 10, "velocity": 22}, {"time": 207360, "pitch": 28, "duration": 10, "velocity": 64}, {"time": 207360, "pitch": 37, "duration": 10, "velocity": 106}, {"time": 207360, "pitch": 38, "duration": 10, "velocity": 36}, {"time": 207360, "pitch": 42, "duration": 10, "velocity": 92}, {"time": 207360, "pitch": 56, "duration": 10, "velocity": 64}, {"time": 207360, "pitch": 69, "duration": 10, "velocity": 64}, {"time": 207360, "pitch": 70, "duration": 10, "velocity": 78}, {"time": 207480, "pitch": 38, "duration": 10, "velocity": 22}, {"time": 207480, "pitch": 70, "duration": 10, "velocity": 36}, {"time": 207500, "pitch": 56, "duration": 10, "velocity": 22}, {"time": 207500, "pitch": 67, "duration": 10, "velocity": 92}, {"time": 207500, "pitch": 69, "duration": 10, "velocity": 36}, {"time": 207500, "pitch": 72, "duration": 210, "velocity": 78}, {"time": 207600, "pitch": 38, "duration": 10, "velocity": 78}, {"time": 207600, "pitch": 42, "duration": 10, "velocity": 64}, {"time": 207600, "pitch": 56, "duration": 10, "velocity": 22}, {"time": 207600, "pitch": 69, "duration": 10, "velocity": 50}, {"time": 207600, "pitch": 70, "duration": 10, "velocity": 78}, {"time": 207720, "pitch": 28, "duration": 10, "velocity": 64}, {"time": 207720, "pitch": 37, "duration": 10, "velocity": 106}, {"time": 207720, "pitch": 38, "duration": 10, "velocity": 36}, {"time": 207720, "pitch": 70, "duration": 10, "velocity": 36}, {"time": 207740, "pitch": 56, "duration": 10, "velocity": 64}, {"time": 207740, "pitch": 67, "duration": 10, "velocity": 64}, {"time": 207740, "pitch": 69, "duration": 10, "velocity": 36}, {"time": 207740, "pitch": 72, "duration": 100, "velocity": 64}, {"time": 207840, "pitch": 38, "duration": 10, "velocity": 50}, {"time": 207840, "pitch": 39, "duration": 10, "velocity": 120}, {"time": 207840, "pitch": 40, "duration": 10, "velocity": 106}, {"time": 207840, "pitch": 42, "duration": 10, "velocity": 92}, {"time": 207840, "pitch": 56, "duration": 10, "velocity": 22}, {"time": 207840, "pitch": 67, "duration": 10, "velocity": 92}, {"time": 207840, "pitch": 69, "duration": 10, "velocity": 64}, {"time": 207840, "pitch": 70, "duration": 10, "velocity": 78}, {"time": 207840, "pitch": 72, "duration": 220, "velocity": 64}, {"time": 207900, "pitch": 38, "duration": 10, "velocity": 36}, {"time": 207960, "pitch": 38, "duration": 10, "velocity": 36}, {"time": 207960, "pitch": 70, "duration": 10, "velocity": 36}, {"time": 207980, "pitch": 56, "duration": 10, "velocity": 22}, {"time": 207980, "pitch": 69, "duration": 10, "velocity": 36}, {"time": 208020, "pitch": 38, "duration": 10, "velocity": 36}, {"time": 208080, "pitch": 28, "duration": 10, "velocity": 64}, {"time": 208080, "pitch": 37, "duration": 10, "velocity": 106}, {"time": 208080, "pitch": 38, "duration": 10, "velocity": 22}, {"time": 208080, "pitch": 42, "duration": 10, "velocity": 64}, {"time": 208080, "pitch": 56, "duration": 10, "velocity": 36}, {"time": 208080, "pitch": 68, "duration": 10, "velocity": 78}, {"time": 208080, "pitch": 69, "duration": 10, "velocity": 50}, {"time": 208080, "pitch": 70, "duration": 10, "velocity": 78}, {"time": 208080, "pitch": 72, "duration": 100, "velocity": 64}, {"time": 208140, "pitch": 38, "duration": 10, "velocity": 36}, {"time": 208200, "pitch": 38, "duration": 10, "velocity": 22}, {"time": 208200, "pitch": 70, "duration": 10, "velocity": 36}, {"time": 208220, "pitch": 56, "duration": 10, "velocity": 22}, {"time": 208220, "pitch": 68, "duration": 10, "velocity": 92}, {"time": 208220, "pitch": 69, "duration": 10, "velocity": 36}, {"time": 208220, "pitch": 72, "duration": 100, "velocity": 64}, {"time": 208260, "pitch": 38, "duration": 10, "velocity": 22}, {"time": 208320, "pitch": 38, "duration": 10, "velocity": 50}, {"time": 208320, "pitch": 42, "duration": 10, "velocity": 64}, {"time": 208320, "pitch": 68, "duration": 10, "velocity": 92}, {"time": 208320, "pitch": 69, "duration": 10, "velocity": 64}, {"time": 208320, "pitch": 70, "duration": 10, "velocity": 78}, {"time": 208320, "pitch": 72, "duration": 720, "velocity": 78}, {"time": 208440, "pitch": 38, "duration": 10, "velocity": 22}, {"time": 208440, "pitch": 70, "duration": 10, "velocity": 36}, {"time": 208460, "pitch": 69, "duration": 10, "velocity": 36}, {"time": 208560, "pitch": 28, "duration": 10, "velocity": 64}, {"time": 208560, "pitch": 37, "duration": 10, "velocity": 106}, {"time": 208560, "pitch": 38, "duration": 10, "velocity": 78}, {"time": 208560, "pitch": 42, "duration": 10, "velocity": 92}, {"time": 208560, "pitch": 56, "duration": 10, "velocity": 64}, {"time": 208560, "pitch": 67, "duration": 10, "velocity": 92}, {"time": 208560, "pitch": 69, "duration": 10, "velocity": 50}, {"time": 208560, "pitch": 70, "duration": 10, "velocity": 78}, {"time": 208680, "pitch": 38, "duration": 10, "velocity": 22}, {"time": 208680, "pitch": 70, "duration": 10, "velocity": 36}, {"time": 208700, "pitch": 56, "duration": 10, "velocity": 36}, {"time": 208700, "pitch": 69, "duration": 10, "velocity": 36}, {"time": 208800, "pitch": 38, "duration": 10, "velocity": 50}, {"time": 208800, "pitch": 39, "duration": 10, "velocity": 120}, {"time": 208800, "pitch": 40, "duration": 10, "velocity": 106}, {"time": 208800, "pitch": 42, "duration": 10, "velocity": 92}, {"time": 208800, "pitch": 49, "duration": 10, "velocity": 78}, {"time": 208800, "pitch": 56, "duration": 10, "velocity": 50}, {"time": 208800, "pitch": 67, "duration": 10, "velocity": 92}, {"time": 208800, "pitch": 69, "duration": 10, "velocity": 64}, {"time": 208800, "pitch": 70, "duration": 10, "velocity": 78}, {"time": 208860, "pitch": 38, "duration": 10, "velocity": 36}, {"time": 208920, "pitch": 28, "duration": 10, "velocity": 64}, {"time": 208920, "pitch": 37, "duration": 10, "velocity": 106}, {"time": 208920, "pitch": 38, "duration": 10, "velocity": 36}, {"time": 208920, "pitch": 70, "duration": 10, "velocity": 36}, {"time": 208940, "pitch": 56, "duration": 10, "velocity": 36}, {"time": 208940, "pitch": 68, "duration": 10, "velocity": 64}, {"time": 208940, "pitch": 69, "duration": 10, "velocity": 36}, {"time": 208980, "pitch": 38, "duration": 10, "velocity": 36}, {"time": 209040, "pitch": 38, "duration": 10, "velocity": 22}, {"time": 209040, "pitch": 42, "duration": 10, "velocity": 64}, {"time": 209040, "pitch": 56, "duration": 10, "velocity": 22}, {"time": 209040, "pitch": 69, "duration": 10, "velocity": 50}, {"time": 209040, "pitch": 70, "duration": 10, "velocity": 78}, {"time": 209100, "pitch": 38, "duration": 10, "velocity": 36}, {"time": 209160, "pitch": 38, "duration": 10, "velocity": 22}, {"time": 209160, "pitch": 70, "duration": 10, "velocity": 36}, {"time": 209180, "pitch": 56, "duration": 10, "velocity": 22}, {"time": 209180, "pitch": 68, "duration": 10, "velocity": 92}, {"time": 209180, "pitch": 69, "duration": 10, "velocity": 36}, {"time": 209220, "pitch": 38, "duration": 10, "velocity": 22}, {"time": 209280, "pitch": 28, "duration": 10, "velocity": 64}, {"time": 209280, "pitch": 37, "duration": 10, "velocity": 106}, {"time": 209280, "pitch": 38, "duration": 10, "velocity": 36}, {"time": 209280, "pitch": 42, "duration": 10, "velocity": 92}, {"time": 209280, "pitch": 56, "duration": 10, "velocity": 64}, {"time": 209280, "pitch": 69, "duration": 10, "velocity": 64}, {"time": 209280, "pitch": 70, "duration": 10, "velocity": 78}, {"time": 209400, "pitch": 38, "duration": 10, "velocity": 22}, {"time": 209400, "pitch": 70, "duration": 10, "velocity": 36}, {"time": 209420, "pitch": 56, "duration": 10, "velocity": 22}, {"time": 209420, "pitch": 67, "duration": 10, "velocity": 92}, {"time": 209420, "pitch": 69, "duration": 10, "velocity": 36}, {"time": 209420, "pitch": 72, "duration": 80, "velocity": 78}, {"time": 209520, "pitch": 38, "duration": 10, "velocity": 78}, {"time": 209520, "pitch": 42, "duration": 10, "velocity": 64}, {"time": 209520, "pitch": 56, "duration": 10, "velocity": 22}, {"time": 209520, "pitch": 69, "duration": 10, "velocity": 50}, {"time": 209520, "pitch": 70, "duration": 10, "velocity": 78}, {"time": 209520, "pitch": 72, "duration": 90, "velocity": 78}, {"time": 209640, "pitch": 28, "duration": 10, "velocity": 64}, {"time": 209640, "pitch": 37, "duration": 10, "velocity": 106}, {"time": 209640, "pitch": 38, "duration": 10, "velocity": 36}, {"time": 209640, "pitch": 70, "duration": 10, "velocity": 36}, {"time": 209660, "pitch": 56, "duration": 10, "velocity": 64}, {"time": 209660, "pitch": 67, "duration": 10, "velocity": 64}, {"time": 209660, "pitch": 69, "duration": 10, "velocity": 36}, {"time": 209660, "pitch": 72, "duration": 90, "velocity": 78}, {"time": 209760, "pitch": 38, "duration": 10, "velocity": 50}, {"time": 209760, "pitch": 39, "duration": 10, "velocity": 120}, {"time": 209760, "pitch": 40, "duration": 10, "velocity": 106}, {"time": 209760, "pitch": 42, "duration": 10, "velocity": 92}, {"time": 209760, "pitch": 56, "duration": 10, "velocity": 22}, {"time": 209760, "pitch": 67, "duration": 10, "velocity": 92}, {"time": 209760, "pitch": 69, "duration": 10, "velocity": 64}, {"time": 209760, "pitch": 70, "duration": 10, "velocity": 78}, {"time": 209760, "pitch": 72, "duration": 230, "velocity": 78}, {"time": 209820, "pitch": 38, "duration": 10, "velocity": 36}, {"time": 209880, "pitch": 38, "duration": 10, "velocity": 36}, {"time": 209880, "pitch": 70, "duration": 10, "velocity": 36}, {"time": 209900, "pitch": 56, "duration": 10, "velocity": 22}, {"time": 209900, "pitch": 69, "duration": 10, "velocity": 36}, {"time": 209940, "pitch": 38, "duration": 10, "velocity": 36}, {"time": 210000, "pitch": 28, "duration": 10, "velocity": 64}, {"time": 210000, "pitch": 37, "duration": 10, "velocity": 106}, {"time": 210000, "pitch": 38, "duration": 10, "velocity": 22}, {"time": 210000, "pitch": 42, "duration": 10, "velocity": 64}, {"time": 210000, "pitch": 56, "duration": 10, "velocity": 36}, {"time": 210000, "pitch": 68, "duration": 10, "velocity": 78}, {"time": 210000, "pitch": 69, "duration": 10, "velocity": 22}, {"time": 210000, "pitch": 70, "duration": 10, "velocity": 78}, {"time": 210000, "pitch": 72, "duration": 100, "velocity": 78}, {"time": 210030, "pitch": 69, "duration": 10, "velocity": 36}, {"time": 210060, "pitch": 38, "duration": 10, "velocity": 36}, {"time": 210060, "pitch": 69, "duration": 10, "velocity": 36}, {"time": 210090, "pitch": 69, "duration": 10, "velocity": 50}, {"time": 210120, "pitch": 38, "duration": 10, "velocity": 22}, {"time": 210120, "pitch": 56, "duration": 10, "velocity": 22}, {"time": 210120, "pitch": 68, "duration": 10, "velocity": 92}, {"time": 210120, "pitch": 69, "duration": 10, "velocity": 50}, {"time": 210120, "pitch": 70, "duration": 10, "velocity": 36}, {"time": 210150, "pitch": 69, "duration": 10, "velocity": 64}, {"time": 210180, "pitch": 38, "duration": 10, "velocity": 22}, {"time": 210180, "pitch": 69, "duration": 10, "velocity": 64}, {"time": 210210, "pitch": 69, "duration": 10, "velocity": 64}, {"time": 210240, "pitch": 38, "duration": 10, "velocity": 50}, {"time": 210240, "pitch": 42, "duration": 10, "velocity": 64}, {"time": 210240, "pitch": 57, "duration": 10, "velocity": 92}, {"time": 210240, "pitch": 68, "duration": 10, "velocity": 92}, {"time": 210240, "pitch": 69, "duration": 10, "velocity": 64}, {"time": 210240, "pitch": 70, "duration": 10, "velocity": 78}, {"time": 210360, "pitch": 38, "duration": 10, "velocity": 22}, {"time": 210360, "pitch": 70, "duration": 10, "velocity": 36}, {"time": 210380, "pitch": 69, "duration": 10, "velocity": 36}, {"time": 210480, "pitch": 28, "duration": 10, "velocity": 64}, {"time": 210480, "pitch": 37, "duration": 10, "velocity": 106}, {"time": 210480, "pitch": 38, "duration": 10, "velocity": 78}, {"time": 210480, "pitch": 42, "duration": 10, "velocity": 92}, {"time": 210480, "pitch": 56, "duration": 10, "velocity": 64}, {"time": 210480, "pitch": 67, "duration": 10, "velocity": 92}, {"time": 210480, "pitch": 69, "duration": 10, "velocity": 50}, {"time": 210480, "pitch": 70, "duration": 10, "velocity": 78}, {"time": 210600, "pitch": 38, "duration": 10, "velocity": 22}, {"time": 210600, "pitch": 70, "duration": 10, "velocity": 36}, {"time": 210620, "pitch": 56, "duration": 10, "velocity": 36}, {"time": 210620, "pitch": 69, "duration": 10, "velocity": 36}, {"time": 210720, "pitch": 28, "duration": 10, "velocity": 64}, {"time": 210720, "pitch": 37, "duration": 10, "velocity": 106}, {"time": 210720, "pitch": 38, "duration": 10, "velocity": 50}, {"time": 210720, "pitch": 39, "duration": 10, "velocity": 120}, {"time": 210720, "pitch": 40, "duration": 10, "velocity": 106}, {"time": 210720, "pitch": 42, "duration": 10, "velocity": 92}, {"time": 210720, "pitch": 49, "duration": 10, "velocity": 92}, {"time": 210720, "pitch": 56, "duration": 10, "velocity": 50}, {"time": 210720, "pitch": 67, "duration": 10, "velocity": 92}, {"time": 210720, "pitch": 69, "duration": 10, "velocity": 64}, {"time": 210720, "pitch": 70, "duration": 10, "velocity": 78}, {"time": 210780, "pitch": 38, "duration": 10, "velocity": 36}, {"time": 210840, "pitch": 38, "duration": 10, "velocity": 36}, {"time": 210840, "pitch": 70, "duration": 10, "velocity": 36}, {"time": 210860, "pitch": 56, "duration": 10, "velocity": 36}, {"time": 210860, "pitch": 68, "duration": 10, "velocity": 64}, {"time": 210860, "pitch": 69, "duration": 10, "velocity": 36}, {"time": 210900, "pitch": 38, "duration": 10, "velocity": 36}, {"time": 210960, "pitch": 38, "duration": 10, "velocity": 22}, {"time": 210960, "pitch": 42, "duration": 10, "velocity": 64}, {"time": 210960, "pitch": 56, "duration": 10, "velocity": 22}, {"time": 210960, "pitch": 69, "duration": 10, "velocity": 50}, {"time": 210960, "pitch": 70, "duration": 10, "velocity": 78}, {"time": 211020, "pitch": 38, "duration": 10, "velocity": 36}, {"time": 211080, "pitch": 38, "duration": 10, "velocity": 22}, {"time": 211080, "pitch": 70, "duration": 10, "velocity": 36}, {"time": 211100, "pitch": 56, "duration": 10, "velocity": 22}, {"time": 211100, "pitch": 68, "duration": 10, "velocity": 92}, {"time": 211100, "pitch": 69, "duration": 10, "velocity": 36}, {"time": 211140, "pitch": 38, "duration": 10, "velocity": 22}, {"time": 211200, "pitch": 28, "duration": 10, "velocity": 64}, {"time": 211200, "pitch": 37, "duration": 10, "velocity": 106}, {"time": 211200, "pitch": 38, "duration": 10, "velocity": 36}, {"time": 211200, "pitch": 42, "duration": 10, "velocity": 92}, {"time": 211200, "pitch": 56, "duration": 10, "velocity": 64}, {"time": 211200, "pitch": 69, "duration": 10, "velocity": 64}, {"time": 211200, "pitch": 70, "duration": 10, "velocity": 78}, {"time": 211320, "pitch": 38, "duration": 10, "velocity": 22}, {"time": 211320, "pitch": 70, "duration": 10, "velocity": 36}, {"time": 211340, "pitch": 56, "duration": 10, "velocity": 22}, {"time": 211340, "pitch": 67, "duration": 10, "velocity": 92}, {"time": 211340, "pitch": 69, "duration": 10, "velocity": 36}, {"time": 211340, "pitch": 72, "duration": 210, "velocity": 78}, {"time": 211440, "pitch": 38, "duration": 10, "velocity": 78}, {"time": 211440, "pitch": 42, "duration": 10, "velocity": 64}, {"time": 211440, "pitch": 56, "duration": 10, "velocity": 22}, {"time": 211440, "pitch": 69, "duration": 10, "velocity": 50}, {"time": 211440, "pitch": 70, "duration": 10, "velocity": 78}, {"time": 211560, "pitch": 28, "duration": 10, "velocity": 64}, {"time": 211560, "pitch": 37, "duration": 10, "velocity": 106}, {"time": 211560, "pitch": 38, "duration": 10, "velocity": 36}, {"time": 211560, "pitch": 70, "duration": 10, "velocity": 36}, {"time": 211580, "pitch": 56, "duration": 10, "velocity": 64}, {"time": 211580, "pitch": 67, "duration": 10, "velocity": 64}, {"time": 211580, "pitch": 69, "duration": 10, "velocity": 36}, {"time": 211580, "pitch": 72, "duration": 90, "velocity": 64}, {"time": 211680, "pitch": 38, "duration": 10, "velocity": 50}, {"time": 211680, "pitch": 39, "duration": 10, "velocity": 120}, {"time": 211680, "pitch": 40, "duration": 10, "velocity": 106}, {"time": 211680, "pitch": 42, "duration": 10, "velocity": 92}, {"time": 211680, "pitch": 56, "duration": 10, "velocity": 22}, {"time": 211680, "pitch": 67, "duration": 10, "velocity": 92}, {"time": 211680, "pitch": 69, "duration": 10, "velocity": 64}, {"time": 211680, "pitch": 70, "duration": 10, "velocity": 78}, {"time": 211680, "pitch": 72, "duration": 240, "velocity": 78}, {"time": 211740, "pitch": 38, "duration": 10, "velocity": 36}, {"time": 211800, "pitch": 38, "duration": 10, "velocity": 36}, {"time": 211800, "pitch": 70, "duration": 10, "velocity": 36}, {"time": 211820, "pitch": 56, "duration": 10, "velocity": 22}, {"time": 211820, "pitch": 69, "duration": 10, "velocity": 36}, {"time": 211860, "pitch": 38, "duration": 10, "velocity": 36}, {"time": 211920, "pitch": 28, "duration": 10, "velocity": 64}, {"time": 211920, "pitch": 37, "duration": 10, "velocity": 106}, {"time": 211920, "pitch": 38, "duration": 10, "velocity": 22}, {"time": 211920, "pitch": 42, "duration": 10, "velocity": 64}, {"time": 211920, "pitch": 56, "duration": 10, "velocity": 36}, {"time": 211920, "pitch": 68, "duration": 10, "velocity": 78}, {"time": 211920, "pitch": 69, "duration": 10, "velocity": 50}, {"time": 211920, "pitch": 70, "duration": 10, "velocity": 78}, {"time": 211980, "pitch": 38, "duration": 10, "velocity": 36}, {"time": 212040, "pitch": 38, "duration": 10, "velocity": 22}, {"time": 212040, "pitch": 70, "duration": 10, "velocity": 36}, {"time": 212060, "pitch": 56, "duration": 10, "velocity": 22}, {"time": 212060, "pitch": 68, "duration": 10, "velocity": 92}, {"time": 212060, "pitch": 69, "duration": 10, "velocity": 36}, {"time": 212100, "pitch": 38, "duration": 10, "velocity": 22}, {"time": 212160, "pitch": 38, "duration": 10, "velocity": 50}, {"time": 212160, "pitch": 42, "duration": 10, "velocity": 64}, {"time": 212160, "pitch": 49, "duration": 10, "velocity": 78}, {"time": 212160, "pitch": 68, "duration": 10, "velocity": 92}, {"time": 212160, "pitch": 69, "duration": 10, "velocity": 64}, {"time": 212160, "pitch": 70, "duration": 10, "velocity": 78}, {"time": 212160, "pitch": 72, "duration": 720, "velocity": 78}, {"time": 212280, "pitch": 38, "duration": 10, "velocity": 22}, {"time": 212280, "pitch": 70, "duration": 10, "velocity": 36}, {"time": 212300, "pitch": 69, "duration": 10, "velocity": 36}, {"time": 212400, "pitch": 28, "duration": 10, "velocity": 64}, {"time": 212400, "pitch": 37, "duration": 10, "velocity": 106}, {"time": 212400, "pitch": 38, "duration": 10, "velocity": 78}, {"time": 212400, "pitch": 42, "duration": 10, "velocity": 92}, {"time": 212400, "pitch": 56, "duration": 10, "velocity": 64}, {"time": 212400, "pitch": 67, "duration": 10, "velocity": 92}, {"time": 212400, "pitch": 69, "duration": 10, "velocity": 50}, {"time": 212400, "pitch": 70, "duration": 10, "velocity": 78}, {"time": 212520, "pitch": 38, "duration": 10, "velocity": 22}, {"time": 212520, "pitch": 70, "duration": 10, "velocity": 36}, {"time": 212540, "pitch": 56, "duration": 10, "velocity": 36}, {"time": 212540, "pitch": 69, "duration": 10, "velocity": 36}, {"time": 212640, "pitch": 38, "duration": 10, "velocity": 50}, {"time": 212640, "pitch": 39, "duration": 10, "velocity": 120}, {"time": 212640, "pitch": 40, "duration": 10, "velocity": 106}, {"time": 212640, "pitch": 42, "duration": 10, "velocity": 92}, {"time": 212640, "pitch": 56, "duration": 10, "velocity": 50}, {"time": 212640, "pitch": 67, "duration": 10, "velocity": 92}, {"time": 212640, "pitch": 69, "duration": 10, "velocity": 64}, {"time": 212640, "pitch": 70, "duration": 10, "velocity": 78}, {"time": 212700, "pitch": 38, "duration": 10, "velocity": 36}, {"time": 212760, "pitch": 28, "duration": 10, "velocity": 64}, {"time": 212760, "pitch": 37, "duration": 10, "velocity": 106}, {"time": 212760, "pitch": 38, "duration": 10, "velocity": 36}, {"time": 212760, "pitch": 70, "duration": 10, "velocity": 36}, {"time": 212780, "pitch": 56, "duration": 10, "velocity": 36}, {"time": 212780, "pitch": 68, "duration": 10, "velocity": 64}, {"time": 212780, "pitch": 69, "duration": 10, "velocity": 36}, {"time": 212820, "pitch": 38, "duration": 10, "velocity": 36}, {"time": 212880, "pitch": 38, "duration": 10, "velocity": 22}, {"time": 212880, "pitch": 42, "duration": 10, "velocity": 64}, {"time": 212880, "pitch": 56, "duration": 10, "velocity": 22}, {"time": 212880, "pitch": 69, "duration": 10, "velocity": 50}, {"time": 212880, "pitch": 70, "duration": 10, "velocity": 78}, {"time": 212940, "pitch": 38, "duration": 10, "velocity": 36}, {"time": 213000, "pitch": 38, "duration": 10, "velocity": 22}, {"time": 213000, "pitch": 70, "duration": 10, "velocity": 36}, {"time": 213020, "pitch": 56, "duration": 10, "velocity": 22}, {"time": 213020, "pitch": 68, "duration": 10, "velocity": 92}, {"time": 213020, "pitch": 69, "duration": 10, "velocity": 36}, {"time": 213060, "pitch": 38, "duration": 10, "velocity": 22}, {"time": 213120, "pitch": 28, "duration": 10, "velocity": 64}, {"time": 213120, "pitch": 37, "duration": 10, "velocity": 106}, {"time": 213120, "pitch": 38, "duration": 10, "velocity": 36}, {"time": 213120, "pitch": 42, "duration": 10, "velocity": 92}, {"time": 213120, "pitch": 56, "duration": 10, "velocity": 64}, {"time": 213120, "pitch": 69, "duration": 10, "velocity": 64}, {"time": 213120, "pitch": 70, "duration": 10, "velocity": 78}, {"time": 213240, "pitch": 38, "duration": 10, "velocity": 22}, {"time": 213240, "pitch": 70, "duration": 10, "velocity": 36}, {"time": 213260, "pitch": 56, "duration": 10, "velocity": 22}, {"time": 213260, "pitch": 67, "duration": 10, "velocity": 92}, {"time": 213260, "pitch": 69, "duration": 10, "velocity": 36}, {"time": 213260, "pitch": 72, "duration": 80, "velocity": 78}, {"time": 213360, "pitch": 38, "duration": 10, "velocity": 78}, {"time": 213360, "pitch": 42, "duration": 10, "velocity": 64}, {"time": 213360, "pitch": 56, "duration": 10, "velocity": 22}, {"time": 213360, "pitch": 69, "duration": 10, "velocity": 50}, {"time": 213360, "pitch": 70, "duration": 10, "velocity": 78}, {"time": 213360, "pitch": 72, "duration": 90, "velocity": 78}, {"time": 213480, "pitch": 28, "duration": 10, "velocity": 64}, {"time": 213480, "pitch": 37, "duration": 10, "velocity": 106}, {"time": 213480, "pitch": 38, "duration": 10, "velocity": 36}, {"time": 213480, "pitch": 70, "duration": 10, "velocity": 36}, {"time": 213500, "pitch": 56, "duration": 10, "velocity": 64}, {"time": 213500, "pitch": 67, "duration": 10, "velocity": 64}, {"time": 213500, "pitch": 69, "duration": 10, "velocity": 36}, {"time": 213500, "pitch": 72, "duration": 90, "velocity": 78}, {"time": 213600, "pitch": 38, "duration": 10, "velocity": 50}, {"time": 213600, "pitch": 39, "duration": 10, "velocity": 120}, {"time": 213600, "pitch": 40, "duration": 10, "velocity": 106}, {"time": 213600, "pitch": 42, "duration": 10, "velocity": 92}, {"time": 213600, "pitch": 56, "duration": 10, "velocity": 22}, {"time": 213600, "pitch": 67, "duration": 10, "velocity": 92}, {"time": 213600, "pitch": 69, "duration": 10, "velocity": 64}, {"time": 213600, "pitch": 70, "duration": 10, "velocity": 78}, {"time": 213600, "pitch": 72, "duration": 230, "velocity": 78}, {"time": 213660, "pitch": 38, "duration": 10, "velocity": 36}, {"time": 213720, "pitch": 38, "duration": 10, "velocity": 36}, {"time": 213720, "pitch": 70, "duration": 10, "velocity": 36}, {"time": 213740, "pitch": 56, "duration": 10, "velocity": 22}, {"time": 213740, "pitch": 69, "duration": 10, "velocity": 36}, {"time": 213780, "pitch": 38, "duration": 10, "velocity": 36}, {"time": 213840, "pitch": 28, "duration": 10, "velocity": 64}, {"time": 213840, "pitch": 37, "duration": 10, "velocity": 106}, {"time": 213840, "pitch": 38, "duration": 10, "velocity": 22}, {"time": 213840, "pitch": 42, "duration": 10, "velocity": 64}, {"time": 213840, "pitch": 56, "duration": 10, "velocity": 36}, {"time": 213840, "pitch": 68, "duration": 10, "velocity": 78}, {"time": 213840, "pitch": 69, "duration": 10, "velocity": 22}, {"time": 213840, "pitch": 70, "duration": 10, "velocity": 78}, {"time": 213840, "pitch": 72, "duration": 100, "velocity": 78}, {"time": 213870, "pitch": 69, "duration": 10, "velocity": 36}, {"time": 213900, "pitch": 38, "duration": 10, "velocity": 36}, {"time": 213900, "pitch": 69, "duration": 10, "velocity": 36}, {"time": 213930, "pitch": 69, "duration": 10, "velocity": 50}, {"time": 213960, "pitch": 38, "duration": 10, "velocity": 22}, {"time": 213960, "pitch": 56, "duration": 10, "velocity": 22}, {"time": 213960, "pitch": 68, "duration": 10, "velocity": 92}, {"time": 213960, "pitch": 69, "duration": 10, "velocity": 50}, {"time": 213960, "pitch": 70, "duration": 10, "velocity": 36}, {"time": 213990, "pitch": 69, "duration": 10, "velocity": 64}, {"time": 214020, "pitch": 38, "duration": 10, "velocity": 22}, {"time": 214020, "pitch": 69, "duration": 10, "velocity": 64}, {"time": 214050, "pitch": 69, "duration": 10, "velocity": 64}, {"time": 214080, "pitch": 42, "duration": 10, "velocity": 64}, {"time": 214080, "pitch": 68, "duration": 10, "velocity": 92}, {"time": 214080, "pitch": 69, "duration": 10, "velocity": 64}, {"time": 214220, "pitch": 38, "duration": 10, "velocity": 36}, {"time": 214220, "pitch": 40, "duration": 10, "velocity": 64}, {"time": 214220, "pitch": 69, "duration": 10, "velocity": 36}, {"time": 214220, "pitch": 78, "duration": 10, "velocity": 50}, {"time": 214320, "pitch": 42, "duration": 10, "velocity": 92}, {"time": 214320, "pitch": 56, "duration": 10, "velocity": 64}, {"time": 214320, "pitch": 67, "duration": 10, "velocity": 92}, {"time": 214320, "pitch": 69, "duration": 10, "velocity": 50}, {"time": 214460, "pitch": 38, "duration": 10, "velocity": 64}, {"time": 214460, "pitch": 40, "duration": 10, "velocity": 78}, {"time": 214460, "pitch": 56, "duration": 10, "velocity": 36}, {"time": 214460, "pitch": 69, "duration": 10, "velocity": 36}, {"time": 214460, "pitch": 78, "duration": 10, "velocity": 50}, {"time": 214560, "pitch": 42, "duration": 10, "velocity": 92}, {"time": 214560, "pitch": 56, "duration": 10, "velocity": 50}, {"time": 214560, "pitch": 67, "duration": 10, "velocity": 92}, {"time": 214560, "pitch": 69, "duration": 10, "velocity": 64}, {"time": 214700, "pitch": 38, "duration": 10, "velocity": 78}, {"time": 214700, "pitch": 40, "duration": 10, "velocity": 106}, {"time": 214700, "pitch": 56, "duration": 10, "velocity": 36}, {"time": 214700, "pitch": 68, "duration": 10, "velocity": 64}, {"time": 214700, "pitch": 69, "duration": 10, "velocity": 36}, {"time": 214700, "pitch": 78, "duration": 10, "velocity": 50}, {"time": 214800, "pitch": 42, "duration": 10, "velocity": 64}, {"time": 214800, "pitch": 56, "duration": 10, "velocity": 22}, {"time": 214800, "pitch": 69, "duration": 10, "velocity": 50}, {"time": 214940, "pitch": 38, "duration": 10, "velocity": 64}, {"time": 214940, "pitch": 40, "duration": 10, "velocity": 64}, {"time": 214940, "pitch": 56, "duration": 10, "velocity": 22}, {"time": 214940, "pitch": 68, "duration": 10, "velocity": 92}, {"time": 214940, "pitch": 69, "duration": 10, "velocity": 36}, {"time": 214940, "pitch": 78, "duration": 10, "velocity": 50}, {"time": 215040, "pitch": 38, "duration": 10, "velocity": 64}, {"time": 215040, "pitch": 40, "duration": 10, "velocity": 106}, {"time": 215040, "pitch": 42, "duration": 10, "velocity": 92}, {"time": 215040, "pitch": 56, "duration": 10, "velocity": 64}, {"time": 215040, "pitch": 69, "duration": 10, "velocity": 64}, {"time": 215040, "pitch": 78, "duration": 10, "velocity": 50}, {"time": 215180, "pitch": 38, "duration": 10, "velocity": 78}, {"time": 215180, "pitch": 40, "duration": 10, "velocity": 120}, {"time": 215180, "pitch": 56, "duration": 10, "velocity": 22}, {"time": 215180, "pitch": 67, "duration": 10, "velocity": 92}, {"time": 215180, "pitch": 69, "duration": 10, "velocity": 36}, {"time": 215180, "pitch": 78, "duration": 10, "velocity": 50}, {"time": 215280, "pitch": 42, "duration": 10, "velocity": 64}, {"time": 215280, "pitch": 56, "duration": 10, "velocity": 22}, {"time": 215280, "pitch": 69, "duration": 10, "velocity": 50}, {"time": 215410, "pitch": 38, "duration": 10, "velocity": 64}, {"time": 215410, "pitch": 40, "duration": 10, "velocity": 106}, {"time": 215420, "pitch": 56, "duration": 10, "velocity": 64}, {"time": 215420, "pitch": 67, "duration": 10, "velocity": 64}, {"time": 215420, "pitch": 69, "duration": 10, "velocity": 36}, {"time": 215420, "pitch": 78, "duration": 10, "velocity": 50}, {"time": 215520, "pitch": 38, "duration": 10, "velocity": 78}, {"time": 215520, "pitch": 40, "duration": 10, "velocity": 120}, {"time": 215520, "pitch": 42, "duration": 10, "velocity": 92}, {"time": 215520, "pitch": 56, "duration": 10, "velocity": 22}, {"time": 215520, "pitch": 67, "duration": 10, "velocity": 92}, {"time": 215520, "pitch": 69, "duration": 10, "velocity": 64}, {"time": 215520, "pitch": 78, "duration": 10, "velocity": 50}, {"time": 215660, "pitch": 56, "duration": 10, "velocity": 22}, {"time": 215660, "pitch": 69, "duration": 10, "velocity": 36}, {"time": 215760, "pitch": 56, "duration": 10, "velocity": 36}, {"time": 215760, "pitch": 68, "duration": 10, "velocity": 78}, {"time": 952, "pitch": 35, "duration": 10, "velocity": 110}, {"time": 2880, "pitch": 35, "duration": 10, "velocity": 110}, {"time": 4800, "pitch": 35, "duration": 10, "velocity": 110}, {"time": 5760, "pitch": 35, "duration": 10, "velocity": 110}, {"time": 6720, "pitch": 35, "duration": 10, "velocity": 96}, {"time": 6960, "pitch": 35, "duration": 10, "velocity": 110}, {"time": 7440, "pitch": 35, "duration": 10, "velocity": 110}, {"time": 8640, "pitch": 35, "duration": 10, "velocity": 110}, {"time": 9480, "pitch": 35, "duration": 10, "velocity": 82}, {"time": 9840, "pitch": 35, "duration": 10, "velocity": 96}, {"time": 10560, "pitch": 35, "duration": 10, "velocity": 110}, {"time": 11400, "pitch": 35, "duration": 10, "velocity": 82}, {"time": 11760, "pitch": 35, "duration": 10, "velocity": 96}, {"time": 12480, "pitch": 35, "duration": 10, "velocity": 110}, {"time": 13320, "pitch": 35, "duration": 10, "velocity": 82}, {"time": 13680, "pitch": 35, "duration": 10, "velocity": 96}, {"time": 14160, "pitch": 35, "duration": 10, "velocity": 110}, {"time": 14640, "pitch": 35, "duration": 10, "velocity": 110}, {"time": 14880, "pitch": 35, "duration": 10, "velocity": 110}, {"time": 15120, "pitch": 35, "duration": 10, "velocity": 110}, {"time": 15840, "pitch": 35, "duration": 10, "velocity": 110}, {"time": 16320, "pitch": 35, "duration": 10, "velocity": 110}, {"time": 17160, "pitch": 35, "duration": 10, "velocity": 82}, {"time": 17520, "pitch": 35, "duration": 10, "velocity": 96}, {"time": 18240, "pitch": 35, "duration": 10, "velocity": 110}, {"time": 19080, "pitch": 35, "duration": 10, "velocity": 82}, {"time": 19440, "pitch": 35, "duration": 10, "velocity": 96}, {"time": 20160, "pitch": 35, "duration": 10, "velocity": 110}, {"time": 21000, "pitch": 35, "duration": 10, "velocity": 82}, {"time": 21360, "pitch": 35, "duration": 10, "velocity": 96}, {"time": 21840, "pitch": 35, "duration": 10, "velocity": 110}, {"time": 22320, "pitch": 35, "duration": 10, "velocity": 110}, {"time": 22560, "pitch": 35, "duration": 10, "velocity": 110}, {"time": 22800, "pitch": 35, "duration": 10, "velocity": 110}, {"time": 23520, "pitch": 35, "duration": 10, "velocity": 110}, {"time": 23760, "pitch": 35, "duration": 10, "velocity": 110}, {"time": 24000, "pitch": 35, "duration": 10, "velocity": 110}, {"time": 25920, "pitch": 35, "duration": 10, "velocity": 110}, {"time": 27840, "pitch": 35, "duration": 10, "velocity": 110}, {"time": 28680, "pitch": 35, "duration": 10, "velocity": 82}, {"time": 29040, "pitch": 35, "duration": 10, "velocity": 96}, {"time": 29520, "pitch": 35, "duration": 10, "velocity": 110}, {"time": 29760, "pitch": 35, "duration": 10, "velocity": 110}, {"time": 31680, "pitch": 35, "duration": 10, "velocity": 96}, {"time": 32160, "pitch": 35, "duration": 10, "velocity": 96}, {"time": 32640, "pitch": 35, "duration": 10, "velocity": 96}, {"time": 33120, "pitch": 35, "duration": 10, "velocity": 96}, {"time": 33600, "pitch": 35, "duration": 10, "velocity": 96}, {"time": 34080, "pitch": 35, "duration": 10, "velocity": 96}, {"time": 34560, "pitch": 35, "duration": 10, "velocity": 96}, {"time": 35040, "pitch": 35, "duration": 10, "velocity": 96}, {"time": 35520, "pitch": 35, "duration": 10, "velocity": 96}, {"time": 36000, "pitch": 35, "duration": 10, "velocity": 96}, {"time": 36480, "pitch": 35, "duration": 10, "velocity": 96}, {"time": 36960, "pitch": 35, "duration": 10, "velocity": 96}, {"time": 37440, "pitch": 35, "duration": 10, "velocity": 96}, {"time": 37920, "pitch": 35, "duration": 10, "velocity": 96}, {"time": 38400, "pitch": 35, "duration": 10, "velocity": 96}, {"time": 38880, "pitch": 35, "duration": 10, "velocity": 96}, {"time": 39360, "pitch": 35, "duration": 10, "velocity": 96}, {"time": 39840, "pitch": 35, "duration": 10, "velocity": 96}, {"time": 40320, "pitch": 35, "duration": 10, "velocity": 96}, {"time": 40800, "pitch": 35, "duration": 10, "velocity": 96}, {"time": 41280, "pitch": 35, "duration": 10, "velocity": 96}, {"time": 41760, "pitch": 35, "duration": 10, "velocity": 96}, {"time": 42240, "pitch": 35, "duration": 10, "velocity": 96}, {"time": 42720, "pitch": 35, "duration": 10, "velocity": 96}, {"time": 43200, "pitch": 35, "duration": 10, "velocity": 96}, {"time": 43680, "pitch": 35, "duration": 10, "velocity": 96}, {"time": 44160, "pitch": 35, "duration": 10, "velocity": 96}, {"time": 44640, "pitch": 35, "duration": 10, "velocity": 96}, {"time": 45120, "pitch": 35, "duration": 10, "velocity": 96}, {"time": 45600, "pitch": 35, "duration": 10, "velocity": 96}, {"time": 46080, "pitch": 35, "duration": 10, "velocity": 96}, {"time": 46320, "pitch": 35, "duration": 10, "velocity": 96}, {"time": 46560, "pitch": 35, "duration": 10, "velocity": 96}, {"time": 46800, "pitch": 35, "duration": 10, "velocity": 96}, {"time": 47040, "pitch": 35, "duration": 10, "velocity": 96}, {"time": 47880, "pitch": 35, "duration": 10, "velocity": 96}, {"time": 48240, "pitch": 35, "duration": 10, "velocity": 96}, {"time": 48960, "pitch": 35, "duration": 10, "velocity": 96}, {"time": 49800, "pitch": 35, "duration": 10, "velocity": 96}, {"time": 50160, "pitch": 35, "duration": 10, "velocity": 96}, {"time": 50880, "pitch": 35, "duration": 10, "velocity": 96}, {"time": 51720, "pitch": 35, "duration": 10, "velocity": 96}, {"time": 52080, "pitch": 35, "duration": 10, "velocity": 96}, {"time": 52680, "pitch": 35, "duration": 10, "velocity": 96}, {"time": 53160, "pitch": 35, "duration": 10, "velocity": 96}, {"time": 53520, "pitch": 35, "duration": 10, "velocity": 82}, {"time": 53760, "pitch": 35, "duration": 10, "velocity": 96}, {"time": 54480, "pitch": 35, "duration": 10, "velocity": 96}, {"time": 54720, "pitch": 35, "duration": 10, "velocity": 96}, {"time": 55560, "pitch": 35, "duration": 10, "velocity": 96}, {"time": 55920, "pitch": 35, "duration": 10, "velocity": 96}, {"time": 56640, "pitch": 35, "duration": 10, "velocity": 96}, {"time": 57480, "pitch": 35, "duration": 10, "velocity": 96}, {"time": 57840, "pitch": 35, "duration": 10, "velocity": 96}, {"time": 60240, "pitch": 35, "duration": 10, "velocity": 68}, {"time": 60480, "pitch": 35, "duration": 10, "velocity": 110}, {"time": 62400, "pitch": 35, "duration": 10, "velocity": 96}, {"time": 62880, "pitch": 35, "duration": 10, "velocity": 96}, {"time": 63360, "pitch": 35, "duration": 10, "velocity": 96}, {"time": 63840, "pitch": 35, "duration": 10, "velocity": 96}, {"time": 64320, "pitch": 35, "duration": 10, "velocity": 96}, {"time": 64800, "pitch": 35, "duration": 10, "velocity": 96}, {"time": 65280, "pitch": 35, "duration": 10, "velocity": 96}, {"time": 65760, "pitch": 35, "duration": 10, "velocity": 96}, {"time": 66240, "pitch": 35, "duration": 10, "velocity": 96}, {"time": 66720, "pitch": 35, "duration": 10, "velocity": 96}, {"time": 67200, "pitch": 35, "duration": 10, "velocity": 96}, {"time": 67680, "pitch": 35, "duration": 10, "velocity": 96}, {"time": 68160, "pitch": 35, "duration": 10, "velocity": 96}, {"time": 68640, "pitch": 35, "duration": 10, "velocity": 96}, {"time": 69120, "pitch": 35, "duration": 10, "velocity": 96}, {"time": 69600, "pitch": 35, "duration": 10, "velocity": 96}, {"time": 70080, "pitch": 35, "duration": 10, "velocity": 96}, {"time": 70560, "pitch": 35, "duration": 10, "velocity": 96}, {"time": 71040, "pitch": 35, "duration": 10, "velocity": 96}, {"time": 71520, "pitch": 35, "duration": 10, "velocity": 96}, {"time": 72000, "pitch": 35, "duration": 10, "velocity": 96}, {"time": 72480, "pitch": 35, "duration": 10, "velocity": 96}, {"time": 72960, "pitch": 35, "duration": 10, "velocity": 96}, {"time": 73440, "pitch": 35, "duration": 10, "velocity": 96}, {"time": 73920, "pitch": 35, "duration": 10, "velocity": 96}, {"time": 74400, "pitch": 35, "duration": 10, "velocity": 96}, {"time": 74880, "pitch": 35, "duration": 10, "velocity": 96}, {"time": 75360, "pitch": 35, "duration": 10, "velocity": 96}, {"time": 75840, "pitch": 35, "duration": 10, "velocity": 96}, {"time": 76320, "pitch": 35, "duration": 10, "velocity": 96}, {"time": 76800, "pitch": 35, "duration": 10, "velocity": 96}, {"time": 77040, "pitch": 35, "duration": 10, "velocity": 96}, {"time": 77280, "pitch": 35, "duration": 10, "velocity": 96}, {"time": 77520, "pitch": 35, "duration": 10, "velocity": 96}, {"time": 77760, "pitch": 35, "duration": 10, "velocity": 96}, {"time": 78600, "pitch": 35, "duration": 10, "velocity": 96}, {"time": 78960, "pitch": 35, "duration": 10, "velocity": 96}, {"time": 79680, "pitch": 35, "duration": 10, "velocity": 96}, {"time": 80520, "pitch": 35, "duration": 10, "velocity": 96}, {"time": 80880, "pitch": 35, "duration": 10, "velocity": 96}, {"time": 81600, "pitch": 35, "duration": 10, "velocity": 96}, {"time": 82440, "pitch": 35, "duration": 10, "velocity": 96}, {"time": 82800, "pitch": 35, "duration": 10, "velocity": 96}, {"time": 83400, "pitch": 35, "duration": 10, "velocity": 96}, {"time": 83880, "pitch": 35, "duration": 10, "velocity": 96}, {"time": 84240, "pitch": 35, "duration": 10, "velocity": 82}, {"time": 84480, "pitch": 35, "duration": 10, "velocity": 96}, {"time": 85200, "pitch": 35, "duration": 10, "velocity": 96}, {"time": 85440, "pitch": 35, "duration": 10, "velocity": 96}, {"time": 86280, "pitch": 35, "duration": 10, "velocity": 96}, {"time": 86640, "pitch": 35, "duration": 10, "velocity": 96}, {"time": 87360, "pitch": 35, "duration": 10, "velocity": 96}, {"time": 88200, "pitch": 35, "duration": 10, "velocity": 96}, {"time": 88560, "pitch": 35, "duration": 10, "velocity": 96}, {"time": 90960, "pitch": 35, "duration": 10, "velocity": 68}, {"time": 91200, "pitch": 35, "duration": 10, "velocity": 110}, {"time": 93120, "pitch": 35, "duration": 10, "velocity": 110}, {"time": 93960, "pitch": 35, "duration": 10, "velocity": 82}, {"time": 94320, "pitch": 35, "duration": 10, "velocity": 96}, {"time": 95040, "pitch": 35, "duration": 10, "velocity": 110}, {"time": 95880, "pitch": 35, "duration": 10, "velocity": 82}, {"time": 96240, "pitch": 35, "duration": 10, "velocity": 96}, {"time": 96960, "pitch": 35, "duration": 10, "velocity": 110}, {"time": 97800, "pitch": 35, "duration": 10, "velocity": 82}, {"time": 98160, "pitch": 35, "duration": 10, "velocity": 96}, {"time": 98640, "pitch": 35, "duration": 10, "velocity": 110}, {"time": 99120, "pitch": 35, "duration": 10, "velocity": 110}, {"time": 99360, "pitch": 35, "duration": 10, "velocity": 110}, {"time": 99600, "pitch": 35, "duration": 10, "velocity": 110}, {"time": 100320, "pitch": 35, "duration": 10, "velocity": 110}, {"time": 100800, "pitch": 35, "duration": 10, "velocity": 110}, {"time": 101640, "pitch": 35, "duration": 10, "velocity": 82}, {"time": 102000, "pitch": 35, "duration": 10, "velocity": 96}, {"time": 102720, "pitch": 35, "duration": 10, "velocity": 110}, {"time": 103560, "pitch": 35, "duration": 10, "velocity": 82}, {"time": 103920, "pitch": 35, "duration": 10, "velocity": 96}, {"time": 104640, "pitch": 35, "duration": 10, "velocity": 110}, {"time": 105480, "pitch": 35, "duration": 10, "velocity": 82}, {"time": 105840, "pitch": 35, "duration": 10, "velocity": 96}, {"time": 106320, "pitch": 35, "duration": 10, "velocity": 110}, {"time": 106560, "pitch": 35, "duration": 10, "velocity": 110}, {"time": 106800, "pitch": 35, "duration": 10, "velocity": 110}, {"time": 107040, "pitch": 35, "duration": 10, "velocity": 110}, {"time": 107280, "pitch": 35, "duration": 10, "velocity": 110}, {"time": 108000, "pitch": 35, "duration": 10, "velocity": 110}, {"time": 108480, "pitch": 35, "duration": 10, "velocity": 110}, {"time": 108720, "pitch": 35, "duration": 10, "velocity": 110}, {"time": 108960, "pitch": 35, "duration": 10, "velocity": 110}, {"time": 109200, "pitch": 35, "duration": 10, "velocity": 110}, {"time": 109920, "pitch": 35, "duration": 10, "velocity": 110}, {"time": 110160, "pitch": 35, "duration": 10, "velocity": 110}, {"time": 110400, "pitch": 35, "duration": 10, "velocity": 110}, {"time": 110640, "pitch": 35, "duration": 10, "velocity": 110}, {"time": 110880, "pitch": 35, "duration": 10, "velocity": 110}, {"time": 111120, "pitch": 35, "duration": 10, "velocity": 110}, {"time": 111840, "pitch": 35, "duration": 10, "velocity": 110}, {"time": 112320, "pitch": 35, "duration": 10, "velocity": 110}, {"time": 113760, "pitch": 35, "duration": 10, "velocity": 96}, {"time": 114000, "pitch": 35, "duration": 10, "velocity": 96}, {"time": 114240, "pitch": 35, "duration": 10, "velocity": 110}, {"time": 115920, "pitch": 35, "duration": 10, "velocity": 82}, {"time": 116160, "pitch": 35, "duration": 10, "velocity": 96}, {"time": 116640, "pitch": 35, "duration": 10, "velocity": 96}, {"time": 117120, "pitch": 35, "duration": 10, "velocity": 96}, {"time": 117600, "pitch": 35, "duration": 10, "velocity": 96}, {"time": 118080, "pitch": 35, "duration": 10, "velocity": 96}, {"time": 118560, "pitch": 35, "duration": 10, "velocity": 96}, {"time": 119040, "pitch": 35, "duration": 10, "velocity": 96}, {"time": 119520, "pitch": 35, "duration": 10, "velocity": 96}, {"time": 120000, "pitch": 35, "duration": 10, "velocity": 96}, {"time": 120480, "pitch": 35, "duration": 10, "velocity": 96}, {"time": 120960, "pitch": 35, "duration": 10, "velocity": 96}, {"time": 121440, "pitch": 35, "duration": 10, "velocity": 96}, {"time": 121920, "pitch": 35, "duration": 10, "velocity": 96}, {"time": 122400, "pitch": 35, "duration": 10, "velocity": 96}, {"time": 122880, "pitch": 35, "duration": 10, "velocity": 96}, {"time": 123360, "pitch": 35, "duration": 10, "velocity": 96}, {"time": 123840, "pitch": 35, "duration": 10, "velocity": 96}, {"time": 124320, "pitch": 35, "duration": 10, "velocity": 96}, {"time": 124800, "pitch": 35, "duration": 10, "velocity": 96}, {"time": 125280, "pitch": 35, "duration": 10, "velocity": 96}, {"time": 125760, "pitch": 35, "duration": 10, "velocity": 96}, {"time": 126240, "pitch": 35, "duration": 10, "velocity": 96}, {"time": 126720, "pitch": 35, "duration": 10, "velocity": 96}, {"time": 127200, "pitch": 35, "duration": 10, "velocity": 96}, {"time": 127680, "pitch": 35, "duration": 10, "velocity": 96}, {"time": 128160, "pitch": 35, "duration": 10, "velocity": 96}, {"time": 128640, "pitch": 35, "duration": 10, "velocity": 96}, {"time": 129120, "pitch": 35, "duration": 10, "velocity": 96}, {"time": 129600, "pitch": 35, "duration": 10, "velocity": 96}, {"time": 130080, "pitch": 35, "duration": 10, "velocity": 96}, {"time": 130560, "pitch": 35, "duration": 10, "velocity": 96}, {"time": 130800, "pitch": 35, "duration": 10, "velocity": 96}, {"time": 131040, "pitch": 35, "duration": 10, "velocity": 96}, {"time": 131280, "pitch": 35, "duration": 10, "velocity": 96}, {"time": 131520, "pitch": 35, "duration": 10, "velocity": 110}, {"time": 132000, "pitch": 35, "duration": 10, "velocity": 110}, {"time": 132480, "pitch": 35, "duration": 10, "velocity": 110}, {"time": 132960, "pitch": 35, "duration": 10, "velocity": 110}, {"time": 133440, "pitch": 35, "duration": 10, "velocity": 110}, {"time": 133920, "pitch": 35, "duration": 10, "velocity": 110}, {"time": 134400, "pitch": 35, "duration": 10, "velocity": 110}, {"time": 134880, "pitch": 35, "duration": 10, "velocity": 110}, {"time": 135360, "pitch": 35, "duration": 10, "velocity": 110}, {"time": 135840, "pitch": 35, "duration": 10, "velocity": 110}, {"time": 136320, "pitch": 35, "duration": 10, "velocity": 110}, {"time": 136800, "pitch": 35, "duration": 10, "velocity": 110}, {"time": 137280, "pitch": 35, "duration": 10, "velocity": 110}, {"time": 137760, "pitch": 35, "duration": 10, "velocity": 110}, {"time": 138240, "pitch": 35, "duration": 10, "velocity": 110}, {"time": 138720, "pitch": 35, "duration": 10, "velocity": 110}, {"time": 139200, "pitch": 35, "duration": 10, "velocity": 110}, {"time": 139680, "pitch": 35, "duration": 10, "velocity": 110}, {"time": 140160, "pitch": 35, "duration": 10, "velocity": 110}, {"time": 140640, "pitch": 35, "duration": 10, "velocity": 110}, {"time": 141120, "pitch": 35, "duration": 10, "velocity": 110}, {"time": 141600, "pitch": 35, "duration": 10, "velocity": 110}, {"time": 142080, "pitch": 35, "duration": 10, "velocity": 110}, {"time": 142560, "pitch": 35, "duration": 10, "velocity": 110}, {"time": 143040, "pitch": 35, "duration": 10, "velocity": 110}, {"time": 143520, "pitch": 35, "duration": 10, "velocity": 110}, {"time": 144000, "pitch": 35, "duration": 10, "velocity": 110}, {"time": 144480, "pitch": 35, "duration": 10, "velocity": 110}, {"time": 144960, "pitch": 35, "duration": 10, "velocity": 110}, {"time": 145440, "pitch": 35, "duration": 10, "velocity": 110}, {"time": 145920, "pitch": 35, "duration": 10, "velocity": 110}, {"time": 146160, "pitch": 35, "duration": 10, "velocity": 110}, {"time": 146400, "pitch": 35, "duration": 10, "velocity": 110}, {"time": 146640, "pitch": 35, "duration": 10, "velocity": 110}, {"time": 146880, "pitch": 35, "duration": 10, "velocity": 96}, {"time": 147720, "pitch": 35, "duration": 10, "velocity": 96}, {"time": 148080, "pitch": 35, "duration": 10, "velocity": 96}, {"time": 148800, "pitch": 35, "duration": 10, "velocity": 96}, {"time": 149640, "pitch": 35, "duration": 10, "velocity": 96}, {"time": 150000, "pitch": 35, "duration": 10, "velocity": 96}, {"time": 150720, "pitch": 35, "duration": 10, "velocity": 96}, {"time": 151560, "pitch": 35, "duration": 10, "velocity": 96}, {"time": 151920, "pitch": 35, "duration": 10, "velocity": 96}, {"time": 152520, "pitch": 35, "duration": 10, "velocity": 96}, {"time": 153000, "pitch": 35, "duration": 10, "velocity": 96}, {"time": 153360, "pitch": 35, "duration": 10, "velocity": 82}, {"time": 153600, "pitch": 35, "duration": 10, "velocity": 96}, {"time": 154320, "pitch": 35, "duration": 10, "velocity": 96}, {"time": 154560, "pitch": 35, "duration": 10, "velocity": 96}, {"time": 155400, "pitch": 35, "duration": 10, "velocity": 96}, {"time": 155760, "pitch": 35, "duration": 10, "velocity": 96}, {"time": 156480, "pitch": 35, "duration": 10, "velocity": 96}, {"time": 157320, "pitch": 35, "duration": 10, "velocity": 96}, {"time": 157680, "pitch": 35, "duration": 10, "velocity": 96}, {"time": 160320, "pitch": 35, "duration": 10, "velocity": 110}, {"time": 162000, "pitch": 35, "duration": 10, "velocity": 110}, {"time": 162240, "pitch": 35, "duration": 10, "velocity": 110}, {"time": 163920, "pitch": 35, "duration": 10, "velocity": 96}, {"time": 164160, "pitch": 35, "duration": 10, "velocity": 110}, {"time": 164640, "pitch": 35, "duration": 10, "velocity": 110}, {"time": 165120, "pitch": 35, "duration": 10, "velocity": 110}, {"time": 165600, "pitch": 35, "duration": 10, "velocity": 110}, {"time": 166080, "pitch": 35, "duration": 10, "velocity": 110}, {"time": 166320, "pitch": 35, "duration": 10, "velocity": 110}, {"time": 166800, "pitch": 35, "duration": 10, "velocity": 110}, {"time": 167520, "pitch": 35, "duration": 10, "velocity": 110}, {"time": 167760, "pitch": 35, "duration": 10, "velocity": 110}, {"time": 168000, "pitch": 35, "duration": 10, "velocity": 110}, {"time": 168840, "pitch": 35, "duration": 10, "velocity": 82}, {"time": 169200, "pitch": 35, "duration": 10, "velocity": 96}, {"time": 169920, "pitch": 35, "duration": 10, "velocity": 110}, {"time": 170760, "pitch": 35, "duration": 10, "velocity": 82}, {"time": 171120, "pitch": 35, "duration": 10, "velocity": 96}, {"time": 171840, "pitch": 35, "duration": 10, "velocity": 110}, {"time": 172680, "pitch": 35, "duration": 10, "velocity": 82}, {"time": 173040, "pitch": 35, "duration": 10, "velocity": 96}, {"time": 173520, "pitch": 35, "duration": 10, "velocity": 110}, {"time": 174000, "pitch": 35, "duration": 10, "velocity": 110}, {"time": 174240, "pitch": 35, "duration": 10, "velocity": 110}, {"time": 174480, "pitch": 35, "duration": 10, "velocity": 110}, {"time": 175200, "pitch": 35, "duration": 10, "velocity": 110}, {"time": 175680, "pitch": 35, "duration": 10, "velocity": 110}, {"time": 176520, "pitch": 35, "duration": 10, "velocity": 82}, {"time": 176880, "pitch": 35, "duration": 10, "velocity": 96}, {"time": 177600, "pitch": 35, "duration": 10, "velocity": 110}, {"time": 178440, "pitch": 35, "duration": 10, "velocity": 82}, {"time": 178800, "pitch": 35, "duration": 10, "velocity": 96}, {"time": 179520, "pitch": 35, "duration": 10, "velocity": 110}, {"time": 180360, "pitch": 35, "duration": 10, "velocity": 82}, {"time": 180720, "pitch": 35, "duration": 10, "velocity": 96}, {"time": 181200, "pitch": 35, "duration": 10, "velocity": 110}, {"time": 181680, "pitch": 35, "duration": 10, "velocity": 110}, {"time": 181920, "pitch": 35, "duration": 10, "velocity": 110}, {"time": 182160, "pitch": 35, "duration": 10, "velocity": 110}, {"time": 182880, "pitch": 35, "duration": 10, "velocity": 110}, {"time": 183120, "pitch": 35, "duration": 10, "velocity": 110}, {"time": 183360, "pitch": 35, "duration": 10, "velocity": 110}, {"time": 184200, "pitch": 35, "duration": 10, "velocity": 82}, {"time": 184560, "pitch": 35, "duration": 10, "velocity": 96}, {"time": 185280, "pitch": 35, "duration": 10, "velocity": 110}, {"time": 186120, "pitch": 35, "duration": 10, "velocity": 82}, {"time": 186480, "pitch": 35, "duration": 10, "velocity": 96}, {"time": 187200, "pitch": 35, "duration": 10, "velocity": 110}, {"time": 188040, "pitch": 35, "duration": 10, "velocity": 82}, {"time": 188400, "pitch": 35, "duration": 10, "velocity": 96}, {"time": 188880, "pitch": 35, "duration": 10, "velocity": 110}, {"time": 189360, "pitch": 35, "duration": 10, "velocity": 110}, {"time": 189600, "pitch": 35, "duration": 10, "velocity": 110}, {"time": 189840, "pitch": 35, "duration": 10, "velocity": 110}, {"time": 190560, "pitch": 35, "duration": 10, "velocity": 110}, {"time": 191040, "pitch": 35, "duration": 10, "velocity": 110}, {"time": 191880, "pitch": 35, "duration": 10, "velocity": 82}, {"time": 192240, "pitch": 35, "duration": 10, "velocity": 96}, {"time": 192960, "pitch": 35, "duration": 10, "velocity": 110}, {"time": 193800, "pitch": 35, "duration": 10, "velocity": 82}, {"time": 194160, "pitch": 35, "duration": 10, "velocity": 96}, {"time": 194880, "pitch": 35, "duration": 10, "velocity": 110}, {"time": 195720, "pitch": 35, "duration": 10, "velocity": 82}, {"time": 196080, "pitch": 35, "duration": 10, "velocity": 96}, {"time": 196560, "pitch": 35, "duration": 10, "velocity": 110}, {"time": 196800, "pitch": 35, "duration": 10, "velocity": 110}, {"time": 197040, "pitch": 35, "duration": 10, "velocity": 110}, {"time": 197280, "pitch": 35, "duration": 10, "velocity": 110}, {"time": 197520, "pitch": 35, "duration": 10, "velocity": 110}, {"time": 198240, "pitch": 35, "duration": 10, "velocity": 110}, {"time": 198720, "pitch": 35, "duration": 10, "velocity": 110}, {"time": 200640, "pitch": 35, "duration": 10, "velocity": 110}, {"time": 202560, "pitch": 35, "duration": 10, "velocity": 110}, {"time": 203400, "pitch": 35, "duration": 10, "velocity": 82}, {"time": 203760, "pitch": 35, "duration": 10, "velocity": 96}, {"time": 204240, "pitch": 35, "duration": 10, "velocity": 110}, {"time": 204480, "pitch": 35, "duration": 10, "velocity": 110}, {"time": 206400, "pitch": 35, "duration": 10, "velocity": 110}, {"time": 208320, "pitch": 35, "duration": 10, "velocity": 110}, {"time": 210240, "pitch": 35, "duration": 10, "velocity": 110}, {"time": 211080, "pitch": 35, "duration": 10, "velocity": 82}, {"time": 211440, "pitch": 35, "duration": 10, "velocity": 96}, {"time": 211920, "pitch": 35, "duration": 10, "velocity": 110}, {"time": 212160, "pitch": 35, "duration": 10, "velocity": 110}, {"time": 214080, "pitch": 35, "duration": 10, "velocity": 110}, {"time": 716, "pitch": 53, "duration": 10, "velocity": 110}, {"time": 1440, "pitch": 53, "duration": 240, "velocity": 80}, {"time": 2400, "pitch": 53, "duration": 240, "velocity": 80}, {"time": 3360, "pitch": 53, "duration": 240, "velocity": 80}, {"time": 4320, "pitch": 53, "duration": 240, "velocity": 80}, {"time": 5280, "pitch": 53, "duration": 240, "velocity": 80}, {"time": 6240, "pitch": 53, "duration": 240, "velocity": 80}, {"time": 7200, "pitch": 53, "duration": 240, "velocity": 80}, {"time": 8160, "pitch": 53, "duration": 240, "velocity": 80}, {"time": 8400, "pitch": 53, "duration": 240, "velocity": 110}, {"time": 9120, "pitch": 53, "duration": 240, "velocity": 50}, {"time": 10080, "pitch": 53, "duration": 240, "velocity": 50}, {"time": 11040, "pitch": 53, "duration": 240, "velocity": 50}, {"time": 12000, "pitch": 53, "duration": 240, "velocity": 50}, {"time": 12240, "pitch": 53, "duration": 240, "velocity": 110}, {"time": 12960, "pitch": 53, "duration": 240, "velocity": 50}, {"time": 13920, "pitch": 53, "duration": 240, "velocity": 50}, {"time": 14880, "pitch": 53, "duration": 240, "velocity": 50}, {"time": 15840, "pitch": 53, "duration": 240, "velocity": 50}, {"time": 16080, "pitch": 53, "duration": 240, "velocity": 110}, {"time": 16800, "pitch": 53, "duration": 240, "velocity": 50}, {"time": 17760, "pitch": 53, "duration": 240, "velocity": 50}, {"time": 18720, "pitch": 53, "duration": 240, "velocity": 50}, {"time": 19680, "pitch": 53, "duration": 240, "velocity": 50}, {"time": 19920, "pitch": 53, "duration": 240, "velocity": 110}, {"time": 20640, "pitch": 53, "duration": 240, "velocity": 50}, {"time": 21600, "pitch": 53, "duration": 240, "velocity": 50}, {"time": 22560, "pitch": 53, "duration": 240, "velocity": 50}, {"time": 23520, "pitch": 53, "duration": 240, "velocity": 50}, {"time": 23760, "pitch": 53, "duration": 240, "velocity": 110}, {"time": 24480, "pitch": 53, "duration": 240, "velocity": 80}, {"time": 25440, "pitch": 53, "duration": 240, "velocity": 80}, {"time": 26400, "pitch": 53, "duration": 240, "velocity": 80}, {"time": 27360, "pitch": 53, "duration": 240, "velocity": 80}, {"time": 27600, "pitch": 53, "duration": 240, "velocity": 110}, {"time": 28320, "pitch": 53, "duration": 240, "velocity": 80}, {"time": 29280, "pitch": 53, "duration": 240, "velocity": 80}, {"time": 30240, "pitch": 53, "duration": 240, "velocity": 80}, {"time": 31200, "pitch": 53, "duration": 240, "velocity": 80}, {"time": 31440, "pitch": 53, "duration": 240, "velocity": 110}, {"time": 32160, "pitch": 53, "duration": 240, "velocity": 50}, {"time": 33120, "pitch": 53, "duration": 240, "velocity": 50}, {"time": 34080, "pitch": 53, "duration": 240, "velocity": 50}, {"time": 35040, "pitch": 53, "duration": 240, "velocity": 50}, {"time": 36000, "pitch": 53, "duration": 240, "velocity": 50}, {"time": 36960, "pitch": 53, "duration": 240, "velocity": 50}, {"time": 37920, "pitch": 53, "duration": 240, "velocity": 50}, {"time": 38880, "pitch": 53, "duration": 240, "velocity": 50}, {"time": 39840, "pitch": 53, "duration": 240, "velocity": 50}, {"time": 40800, "pitch": 53, "duration": 240, "velocity": 50}, {"time": 41760, "pitch": 53, "duration": 240, "velocity": 50}, {"time": 42720, "pitch": 53, "duration": 240, "velocity": 50}, {"time": 43680, "pitch": 53, "duration": 240, "velocity": 50}, {"time": 44640, "pitch": 53, "duration": 240, "velocity": 50}, {"time": 45600, "pitch": 53, "duration": 240, "velocity": 50}, {"time": 46560, "pitch": 53, "duration": 240, "velocity": 50}, {"time": 47520, "pitch": 53, "duration": 240, "velocity": 50}, {"time": 48480, "pitch": 53, "duration": 240, "velocity": 50}, {"time": 49440, "pitch": 53, "duration": 240, "velocity": 50}, {"time": 50400, "pitch": 53, "duration": 240, "velocity": 50}, {"time": 51360, "pitch": 53, "duration": 240, "velocity": 50}, {"time": 52320, "pitch": 53, "duration": 240, "velocity": 50}, {"time": 53280, "pitch": 53, "duration": 240, "velocity": 50}, {"time": 54240, "pitch": 53, "duration": 240, "velocity": 50}, {"time": 55200, "pitch": 53, "duration": 240, "velocity": 50}, {"time": 56160, "pitch": 53, "duration": 240, "velocity": 50}, {"time": 57120, "pitch": 53, "duration": 240, "velocity": 50}, {"time": 58080, "pitch": 53, "duration": 240, "velocity": 50}, {"time": 58560, "pitch": 53, "duration": 240, "velocity": 110}, {"time": 59280, "pitch": 53, "duration": 240, "velocity": 110}, {"time": 60000, "pitch": 53, "duration": 240, "velocity": 50}, {"time": 60240, "pitch": 53, "duration": 240, "velocity": 110}, {"time": 60960, "pitch": 53, "duration": 240, "velocity": 50}, {"time": 61920, "pitch": 53, "duration": 240, "velocity": 50}, {"time": 62160, "pitch": 53, "duration": 240, "velocity": 110}, {"time": 62880, "pitch": 53, "duration": 240, "velocity": 50}, {"time": 63840, "pitch": 53, "duration": 240, "velocity": 50}, {"time": 64800, "pitch": 53, "duration": 240, "velocity": 50}, {"time": 65760, "pitch": 53, "duration": 240, "velocity": 50}, {"time": 66720, "pitch": 53, "duration": 240, "velocity": 50}, {"time": 67680, "pitch": 53, "duration": 240, "velocity": 50}, {"time": 68640, "pitch": 53, "duration": 240, "velocity": 50}, {"time": 69600, "pitch": 53, "duration": 240, "velocity": 50}, {"time": 70560, "pitch": 53, "duration": 240, "velocity": 50}, {"time": 71520, "pitch": 53, "duration": 240, "velocity": 50}, {"time": 72480, "pitch": 53, "duration": 240, "velocity": 50}, {"time": 73440, "pitch": 53, "duration": 240, "velocity": 50}, {"time": 74400, "pitch": 53, "duration": 240, "velocity": 50}, {"time": 75360, "pitch": 53, "duration": 240, "velocity": 50}, {"time": 76320, "pitch": 53, "duration": 240, "velocity": 50}, {"time": 77280, "pitch": 53, "duration": 240, "velocity": 50}, {"time": 78240, "pitch": 53, "duration": 240, "velocity": 50}, {"time": 79200, "pitch": 53, "duration": 240, "velocity": 50}, {"time": 80160, "pitch": 53, "duration": 240, "velocity": 50}, {"time": 81120, "pitch": 53, "duration": 240, "velocity": 50}, {"time": 82080, "pitch": 53, "duration": 240, "velocity": 50}, {"time": 83040, "pitch": 53, "duration": 240, "velocity": 50}, {"time": 84000, "pitch": 53, "duration": 240, "velocity": 50}, {"time": 84960, "pitch": 53, "duration": 240, "velocity": 50}, {"time": 85920, "pitch": 53, "duration": 240, "velocity": 50}, {"time": 86880, "pitch": 53, "duration": 240, "velocity": 50}, {"time": 87840, "pitch": 53, "duration": 240, "velocity": 50}, {"time": 88800, "pitch": 53, "duration": 240, "velocity": 50}, {"time": 89280, "pitch": 53, "duration": 240, "velocity": 110}, {"time": 90000, "pitch": 53, "duration": 240, "velocity": 110}, {"time": 90720, "pitch": 53, "duration": 240, "velocity": 50}, {"time": 90960, "pitch": 53, "duration": 240, "velocity": 110}, {"time": 91680, "pitch": 53, "duration": 240, "velocity": 50}, {"time": 92640, "pitch": 53, "duration": 240, "velocity": 50}, {"time": 92880, "pitch": 53, "duration": 240, "velocity": 110}, {"time": 93600, "pitch": 53, "duration": 240, "velocity": 50}, {"time": 94560, "pitch": 53, "duration": 240, "velocity": 50}, {"time": 95520, "pitch": 53, "duration": 240, "velocity": 50}, {"time": 96480, "pitch": 53, "duration": 240, "velocity": 50}, {"time": 96720, "pitch": 53, "duration": 240, "velocity": 110}, {"time": 97440, "pitch": 53, "duration": 240, "velocity": 50}, {"time": 98400, "pitch": 53, "duration": 240, "velocity": 50}, {"time": 99360, "pitch": 53, "duration": 240, "velocity": 50}, {"time": 100320, "pitch": 53, "duration": 240, "velocity": 50}, {"time": 100560, "pitch": 53, "duration": 240, "velocity": 110}, {"time": 101280, "pitch": 53, "duration": 240, "velocity": 50}, {"time": 102240, "pitch": 53, "duration": 240, "velocity": 50}, {"time": 103200, "pitch": 53, "duration": 240, "velocity": 50}, {"time": 104160, "pitch": 53, "duration": 240, "velocity": 50}, {"time": 104400, "pitch": 53, "duration": 240, "velocity": 110}, {"time": 105120, "pitch": 53, "duration": 240, "velocity": 50}, {"time": 106080, "pitch": 53, "duration": 240, "velocity": 50}, {"time": 107040, "pitch": 53, "duration": 240, "velocity": 50}, {"time": 108000, "pitch": 53, "duration": 240, "velocity": 50}, {"time": 108240, "pitch": 53, "duration": 240, "velocity": 110}, {"time": 108960, "pitch": 53, "duration": 240, "velocity": 50}, {"time": 109920, "pitch": 53, "duration": 240, "velocity": 50}, {"time": 110160, "pitch": 53, "duration": 240, "velocity": 110}, {"time": 111120, "pitch": 53, "duration": 240, "velocity": 80}, {"time": 111360, "pitch": 53, "duration": 240, "velocity": 100}, {"time": 111840, "pitch": 53, "duration": 240, "velocity": 70}, {"time": 112080, "pitch": 53, "duration": 240, "velocity": 80}, {"time": 112800, "pitch": 53, "duration": 240, "velocity": 80}, {"time": 113760, "pitch": 53, "duration": 240, "velocity": 80}, {"time": 114720, "pitch": 53, "duration": 240, "velocity": 80}, {"time": 115680, "pitch": 53, "duration": 240, "velocity": 110}, {"time": 115920, "pitch": 53, "duration": 240, "velocity": 110}, {"time": 116640, "pitch": 53, "duration": 240, "velocity": 50}, {"time": 117600, "pitch": 53, "duration": 240, "velocity": 50}, {"time": 118560, "pitch": 53, "duration": 240, "velocity": 50}, {"time": 119520, "pitch": 53, "duration": 240, "velocity": 50}, {"time": 120480, "pitch": 53, "duration": 240, "velocity": 50}, {"time": 121440, "pitch": 53, "duration": 240, "velocity": 50}, {"time": 122400, "pitch": 53, "duration": 240, "velocity": 50}, {"time": 123360, "pitch": 53, "duration": 240, "velocity": 50}, {"time": 124320, "pitch": 53, "duration": 240, "velocity": 50}, {"time": 125280, "pitch": 53, "duration": 240, "velocity": 50}, {"time": 126240, "pitch": 53, "duration": 240, "velocity": 50}, {"time": 127200, "pitch": 53, "duration": 240, "velocity": 50}, {"time": 128160, "pitch": 53, "duration": 240, "velocity": 50}, {"time": 129120, "pitch": 53, "duration": 240, "velocity": 50}, {"time": 130080, "pitch": 53, "duration": 240, "velocity": 50}, {"time": 131040, "pitch": 53, "duration": 240, "velocity": 50}, {"time": 132000, "pitch": 53, "duration": 240, "velocity": 80}, {"time": 132960, "pitch": 53, "duration": 240, "velocity": 80}, {"time": 133920, "pitch": 53, "duration": 240, "velocity": 80}, {"time": 134880, "pitch": 53, "duration": 240, "velocity": 80}, {"time": 135120, "pitch": 53, "duration": 240, "velocity": 110}, {"time": 135840, "pitch": 53, "duration": 240, "velocity": 80}, {"time": 136800, "pitch": 53, "duration": 240, "velocity": 80}, {"time": 137760, "pitch": 53, "duration": 240, "velocity": 80}, {"time": 138720, "pitch": 53, "duration": 240, "velocity": 80}, {"time": 138960, "pitch": 53, "duration": 240, "velocity": 110}, {"time": 139680, "pitch": 53, "duration": 240, "velocity": 80}, {"time": 140640, "pitch": 53, "duration": 240, "velocity": 80}, {"time": 141600, "pitch": 53, "duration": 240, "velocity": 80}, {"time": 142560, "pitch": 53, "duration": 240, "velocity": 80}, {"time": 142800, "pitch": 53, "duration": 240, "velocity": 110}, {"time": 143520, "pitch": 53, "duration": 240, "velocity": 80}, {"time": 144480, "pitch": 53, "duration": 240, "velocity": 80}, {"time": 145440, "pitch": 53, "duration": 240, "velocity": 80}, {"time": 146400, "pitch": 53, "duration": 240, "velocity": 80}, {"time": 146640, "pitch": 53, "duration": 240, "velocity": 110}, {"time": 147360, "pitch": 53, "duration": 240, "velocity": 50}, {"time": 148320, "pitch": 53, "duration": 240, "velocity": 50}, {"time": 149280, "pitch": 53, "duration": 240, "velocity": 50}, {"time": 150240, "pitch": 53, "duration": 240, "velocity": 50}, {"time": 151200, "pitch": 53, "duration": 240, "velocity": 50}, {"time": 152160, "pitch": 53, "duration": 240, "velocity": 50}, {"time": 153120, "pitch": 53, "duration": 240, "velocity": 50}, {"time": 154080, "pitch": 53, "duration": 240, "velocity": 50}, {"time": 155040, "pitch": 53, "duration": 240, "velocity": 50}, {"time": 156000, "pitch": 53, "duration": 240, "velocity": 50}, {"time": 156960, "pitch": 53, "duration": 240, "velocity": 50}, {"time": 157920, "pitch": 53, "duration": 240, "velocity": 50}, {"time": 158400, "pitch": 53, "duration": 240, "velocity": 110}, {"time": 159120, "pitch": 53, "duration": 240, "velocity": 110}, {"time": 159840, "pitch": 53, "duration": 240, "velocity": 50}, {"time": 160080, "pitch": 53, "duration": 240, "velocity": 110}, {"time": 160800, "pitch": 53, "duration": 240, "velocity": 50}, {"time": 161760, "pitch": 53, "duration": 240, "velocity": 50}, {"time": 162000, "pitch": 53, "duration": 240, "velocity": 110}, {"time": 162720, "pitch": 53, "duration": 240, "velocity": 50}, {"time": 163680, "pitch": 53, "duration": 240, "velocity": 50}, {"time": 164640, "pitch": 53, "duration": 240, "velocity": 50}, {"time": 165600, "pitch": 53, "duration": 240, "velocity": 50}, {"time": 165840, "pitch": 53, "duration": 240, "velocity": 110}, {"time": 166560, "pitch": 53, "duration": 240, "velocity": 50}, {"time": 167520, "pitch": 53, "duration": 240, "velocity": 50}, {"time": 167760, "pitch": 53, "duration": 240, "velocity": 110}, {"time": 168480, "pitch": 53, "duration": 240, "velocity": 50}, {"time": 169440, "pitch": 53, "duration": 240, "velocity": 50}, {"time": 170400, "pitch": 53, "duration": 240, "velocity": 50}, {"time": 171360, "pitch": 53, "duration": 240, "velocity": 50}, {"time": 171600, "pitch": 53, "duration": 240, "velocity": 110}, {"time": 172320, "pitch": 53, "duration": 240, "velocity": 50}, {"time": 173280, "pitch": 53, "duration": 240, "velocity": 50}, {"time": 174240, "pitch": 53, "duration": 240, "velocity": 50}, {"time": 175200, "pitch": 53, "duration": 240, "velocity": 50}, {"time": 175440, "pitch": 53, "duration": 240, "velocity": 110}, {"time": 176160, "pitch": 53, "duration": 240, "velocity": 50}, {"time": 177120, "pitch": 53, "duration": 240, "velocity": 50}, {"time": 178080, "pitch": 53, "duration": 240, "velocity": 50}, {"time": 179040, "pitch": 53, "duration": 240, "velocity": 50}, {"time": 179280, "pitch": 53, "duration": 240, "velocity": 110}, {"time": 180000, "pitch": 53, "duration": 240, "velocity": 50}, {"time": 180960, "pitch": 53, "duration": 240, "velocity": 50}, {"time": 181920, "pitch": 53, "duration": 240, "velocity": 50}, {"time": 182880, "pitch": 53, "duration": 240, "velocity": 50}, {"time": 183120, "pitch": 53, "duration": 240, "velocity": 110}, {"time": 183840, "pitch": 53, "duration": 240, "velocity": 50}, {"time": 184800, "pitch": 53, "duration": 240, "velocity": 50}, {"time": 185760, "pitch": 53, "duration": 240, "velocity": 50}, {"time": 186720, "pitch": 53, "duration": 240, "velocity": 50}, {"time": 186960, "pitch": 53, "duration": 240, "velocity": 120}, {"time": 187680, "pitch": 53, "duration": 240, "velocity": 50}, {"time": 188640, "pitch": 53, "duration": 240, "velocity": 50}, {"time": 189600, "pitch": 53, "duration": 240, "velocity": 50}, {"time": 190560, "pitch": 53, "duration": 240, "velocity": 50}, {"time": 190800, "pitch": 53, "duration": 240, "velocity": 110}, {"time": 191520, "pitch": 53, "duration": 240, "velocity": 50}, {"time": 192480, "pitch": 53, "duration": 240, "velocity": 50}, {"time": 193440, "pitch": 53, "duration": 240, "velocity": 50}, {"time": 194400, "pitch": 53, "duration": 240, "velocity": 50}, {"time": 194640, "pitch": 53, "duration": 240, "velocity": 110}, {"time": 195360, "pitch": 53, "duration": 240, "velocity": 50}, {"time": 196320, "pitch": 53, "duration": 240, "velocity": 50}, {"time": 197280, "pitch": 53, "duration": 240, "velocity": 50}, {"time": 198240, "pitch": 53, "duration": 240, "velocity": 50}, {"time": 198480, "pitch": 53, "duration": 240, "velocity": 110}, {"time": 199200, "pitch": 53, "duration": 240, "velocity": 80}, {"time": 200160, "pitch": 53, "duration": 240, "velocity": 80}, {"time": 201120, "pitch": 53, "duration": 240, "velocity": 80}, {"time": 202080, "pitch": 53, "duration": 240, "velocity": 80}, {"time": 202320, "pitch": 53, "duration": 240, "velocity": 110}, {"time": 203040, "pitch": 53, "duration": 240, "velocity": 80}, {"time": 204000, "pitch": 53, "duration": 240, "velocity": 80}, {"time": 204960, "pitch": 53, "duration": 240, "velocity": 80}, {"time": 205920, "pitch": 53, "duration": 240, "velocity": 80}, {"time": 206160, "pitch": 53, "duration": 240, "velocity": 110}, {"time": 206880, "pitch": 53, "duration": 240, "velocity": 80}, {"time": 207840, "pitch": 53, "duration": 240, "velocity": 80}, {"time": 208800, "pitch": 53, "duration": 240, "velocity": 80}, {"time": 209760, "pitch": 53, "duration": 240, "velocity": 80}, {"time": 210000, "pitch": 53, "duration": 240, "velocity": 110}, {"time": 210720, "pitch": 53, "duration": 240, "velocity": 80}, {"time": 211680, "pitch": 53, "duration": 240, "velocity": 80}, {"time": 212640, "pitch": 53, "duration": 240, "velocity": 80}, {"time": 213600, "pitch": 53, "duration": 240, "velocity": 80}, {"time": 213840, "pitch": 53, "duration": 240, "velocity": 110}, {"time": 214560, "pitch": 53, "duration": 240, "velocity": 80}, {"time": 215520, "pitch": 53, "duration": 240, "velocity": 80}, {"time": 215760, "pitch": 53, "duration": 240, "velocity": 110}, {"time": 1440, "pitch": 50, "duration": 10, "velocity": 106}, {"time": 2400, "pitch": 50, "duration": 10, "velocity": 106}, {"time": 3360, "pitch": 50, "duration": 10, "velocity": 106}, {"time": 4320, "pitch": 50, "duration": 10, "velocity": 106}, {"time": 5280, "pitch": 50, "duration": 10, "velocity": 106}, {"time": 6240, "pitch": 50, "duration": 10, "velocity": 106}, {"time": 7200, "pitch": 50, "duration": 10, "velocity": 106}, {"time": 8160, "pitch": 50, "duration": 10, "velocity": 106}, {"time": 8400, "pitch": 50, "duration": 10, "velocity": 78}, {"time": 9120, "pitch": 50, "duration": 10, "velocity": 106}, {"time": 10080, "pitch": 50, "duration": 10, "velocity": 106}, {"time": 11040, "pitch": 50, "duration": 10, "velocity": 106}, {"time": 12000, "pitch": 50, "duration": 10, "velocity": 106}, {"time": 12240, "pitch": 50, "duration": 10, "velocity": 78}, {"time": 12960, "pitch": 50, "duration": 10, "velocity": 106}, {"time": 13920, "pitch": 50, "duration": 10, "velocity": 106}, {"time": 14880, "pitch": 50, "duration": 10, "velocity": 106}, {"time": 15840, "pitch": 50, "duration": 10, "velocity": 106}, {"time": 16080, "pitch": 50, "duration": 10, "velocity": 78}, {"time": 16800, "pitch": 50, "duration": 10, "velocity": 106}, {"time": 17760, "pitch": 50, "duration": 10, "velocity": 106}, {"time": 18720, "pitch": 50, "duration": 10, "velocity": 106}, {"time": 19680, "pitch": 50, "duration": 10, "velocity": 106}, {"time": 19920, "pitch": 50, "duration": 10, "velocity": 78}, {"time": 20640, "pitch": 50, "duration": 10, "velocity": 106}, {"time": 21600, "pitch": 50, "duration": 10, "velocity": 106}, {"time": 22560, "pitch": 50, "duration": 10, "velocity": 106}, {"time": 23520, "pitch": 50, "duration": 10, "velocity": 106}, {"time": 23760, "pitch": 50, "duration": 10, "velocity": 78}, {"time": 24480, "pitch": 50, "duration": 10, "velocity": 106}, {"time": 25440, "pitch": 50, "duration": 10, "velocity": 106}, {"time": 26400, "pitch": 50, "duration": 10, "velocity": 106}, {"time": 27360, "pitch": 50, "duration": 10, "velocity": 106}, {"time": 27600, "pitch": 50, "duration": 10, "velocity": 78}, {"time": 28320, "pitch": 50, "duration": 10, "velocity": 106}, {"time": 29280, "pitch": 50, "duration": 10, "velocity": 106}, {"time": 30240, "pitch": 50, "duration": 10, "velocity": 106}, {"time": 31200, "pitch": 50, "duration": 10, "velocity": 106}, {"time": 31440, "pitch": 50, "duration": 10, "velocity": 78}, {"time": 32160, "pitch": 50, "duration": 10, "velocity": 106}, {"time": 33120, "pitch": 50, "duration": 10, "velocity": 106}, {"time": 34080, "pitch": 50, "duration": 10, "velocity": 106}, {"time": 35040, "pitch": 50, "duration": 10, "velocity": 106}, {"time": 35280, "pitch": 50, "duration": 10, "velocity": 78}, {"time": 36000, "pitch": 50, "duration": 10, "velocity": 106}, {"time": 36960, "pitch": 50, "duration": 10, "velocity": 106}, {"time": 37920, "pitch": 50, "duration": 10, "velocity": 106}, {"time": 38880, "pitch": 50, "duration": 10, "velocity": 106}, {"time": 39120, "pitch": 50, "duration": 10, "velocity": 78}, {"time": 39840, "pitch": 50, "duration": 10, "velocity": 106}, {"time": 40800, "pitch": 50, "duration": 10, "velocity": 106}, {"time": 41760, "pitch": 50, "duration": 10, "velocity": 106}, {"time": 42720, "pitch": 50, "duration": 10, "velocity": 106}, {"time": 42960, "pitch": 50, "duration": 10, "velocity": 78}, {"time": 43680, "pitch": 50, "duration": 10, "velocity": 106}, {"time": 44640, "pitch": 50, "duration": 10, "velocity": 106}, {"time": 45600, "pitch": 50, "duration": 10, "velocity": 106}, {"time": 46560, "pitch": 50, "duration": 10, "velocity": 106}, {"time": 46800, "pitch": 50, "duration": 10, "velocity": 78}, {"time": 47520, "pitch": 50, "duration": 10, "velocity": 106}, {"time": 48480, "pitch": 50, "duration": 10, "velocity": 106}, {"time": 49440, "pitch": 50, "duration": 10, "velocity": 106}, {"time": 50400, "pitch": 50, "duration": 10, "velocity": 106}, {"time": 50640, "pitch": 50, "duration": 10, "velocity": 78}, {"time": 51360, "pitch": 50, "duration": 10, "velocity": 106}, {"time": 52320, "pitch": 50, "duration": 10, "velocity": 106}, {"time": 53280, "pitch": 50, "duration": 10, "velocity": 106}, {"time": 54240, "pitch": 50, "duration": 10, "velocity": 106}, {"time": 54480, "pitch": 50, "duration": 10, "velocity": 78}, {"time": 55200, "pitch": 50, "duration": 10, "velocity": 106}, {"time": 56160, "pitch": 50, "duration": 10, "velocity": 106}, {"time": 57120, "pitch": 50, "duration": 10, "velocity": 106}, {"time": 58080, "pitch": 50, "duration": 10, "velocity": 106}, {"time": 58320, "pitch": 50, "duration": 10, "velocity": 78}, {"time": 58560, "pitch": 50, "duration": 10, "velocity": 106}, {"time": 59280, "pitch": 50, "duration": 10, "velocity": 106}, {"time": 60240, "pitch": 50, "duration": 10, "velocity": 106}, {"time": 60960, "pitch": 50, "duration": 10, "velocity": 106}, {"time": 61920, "pitch": 50, "duration": 10, "velocity": 106}, {"time": 62160, "pitch": 50, "duration": 10, "velocity": 106}, {"time": 62880, "pitch": 50, "duration": 10, "velocity": 106}, {"time": 63840, "pitch": 50, "duration": 10, "velocity": 106}, {"time": 64800, "pitch": 50, "duration": 10, "velocity": 106}, {"time": 65760, "pitch": 50, "duration": 10, "velocity": 106}, {"time": 66000, "pitch": 50, "duration": 10, "velocity": 78}, {"time": 66720, "pitch": 50, "duration": 10, "velocity": 106}, {"time": 67680, "pitch": 50, "duration": 10, "velocity": 106}, {"time": 68640, "pitch": 50, "duration": 10, "velocity": 106}, {"time": 69600, "pitch": 50, "duration": 10, "velocity": 106}, {"time": 69840, "pitch": 50, "duration": 10, "velocity": 78}, {"time": 70560, "pitch": 50, "duration": 10, "velocity": 106}, {"time": 71520, "pitch": 50, "duration": 10, "velocity": 106}, {"time": 72480, "pitch": 50, "duration": 10, "velocity": 106}, {"time": 73440, "pitch": 50, "duration": 10, "velocity": 106}, {"time": 73680, "pitch": 50, "duration": 10, "velocity": 78}, {"time": 74400, "pitch": 50, "duration": 10, "velocity": 106}, {"time": 75360, "pitch": 50, "duration": 10, "velocity": 106}, {"time": 76320, "pitch": 50, "duration": 10, "velocity": 106}, {"time": 77280, "pitch": 50, "duration": 10, "velocity": 106}, {"time": 77520, "pitch": 50, "duration": 10, "velocity": 78}, {"time": 78240, "pitch": 50, "duration": 10, "velocity": 106}, {"time": 79200, "pitch": 50, "duration": 10, "velocity": 106}, {"time": 80160, "pitch": 50, "duration": 10, "velocity": 106}, {"time": 81120, "pitch": 50, "duration": 10, "velocity": 106}, {"time": 81360, "pitch": 50, "duration": 10, "velocity": 78}, {"time": 82080, "pitch": 50, "duration": 10, "velocity": 106}, {"time": 83040, "pitch": 50, "duration": 10, "velocity": 106}, {"time": 84000, "pitch": 50, "duration": 10, "velocity": 106}, {"time": 84960, "pitch": 50, "duration": 10, "velocity": 106}, {"time": 85200, "pitch": 50, "duration": 10, "velocity": 78}, {"time": 85920, "pitch": 50, "duration": 10, "velocity": 106}, {"time": 86880, "pitch": 50, "duration": 10, "velocity": 106}, {"time": 87840, "pitch": 50, "duration": 10, "velocity": 106}, {"time": 88800, "pitch": 50, "duration": 10, "velocity": 106}, {"time": 89040, "pitch": 50, "duration": 10, "velocity": 78}, {"time": 89280, "pitch": 50, "duration": 10, "velocity": 106}, {"time": 90000, "pitch": 50, "duration": 10, "velocity": 106}, {"time": 90960, "pitch": 50, "duration": 10, "velocity": 106}, {"time": 91680, "pitch": 50, "duration": 10, "velocity": 106}, {"time": 92640, "pitch": 50, "duration": 10, "velocity": 106}, {"time": 92880, "pitch": 50, "duration": 10, "velocity": 78}, {"time": 93600, "pitch": 50, "duration": 10, "velocity": 106}, {"time": 94560, "pitch": 50, "duration": 10, "velocity": 106}, {"time": 95520, "pitch": 50, "duration": 10, "velocity": 106}, {"time": 96480, "pitch": 50, "duration": 10, "velocity": 106}, {"time": 96720, "pitch": 50, "duration": 10, "velocity": 78}, {"time": 97440, "pitch": 50, "duration": 10, "velocity": 106}, {"time": 98400, "pitch": 50, "duration": 10, "velocity": 106}, {"time": 99360, "pitch": 50, "duration": 10, "velocity": 106}, {"time": 100320, "pitch": 50, "duration": 10, "velocity": 106}, {"time": 100560, "pitch": 50, "duration": 10, "velocity": 78}, {"time": 101280, "pitch": 50, "duration": 10, "velocity": 106}, {"time": 102240, "pitch": 50, "duration": 10, "velocity": 106}, {"time": 103200, "pitch": 50, "duration": 10, "velocity": 106}, {"time": 104160, "pitch": 50, "duration": 10, "velocity": 106}, {"time": 104400, "pitch": 50, "duration": 10, "velocity": 78}, {"time": 105120, "pitch": 50, "duration": 10, "velocity": 106}, {"time": 106080, "pitch": 50, "duration": 10, "velocity": 106}, {"time": 107040, "pitch": 50, "duration": 10, "velocity": 106}, {"time": 108000, "pitch": 50, "duration": 10, "velocity": 106}, {"time": 108240, "pitch": 50, "duration": 10, "velocity": 78}, {"time": 108960, "pitch": 50, "duration": 10, "velocity": 106}, {"time": 109920, "pitch": 50, "duration": 10, "velocity": 106}, {"time": 110160, "pitch": 50, "duration": 10, "velocity": 78}, {"time": 110880, "pitch": 50, "duration": 10, "velocity": 106}, {"time": 111840, "pitch": 50, "duration": 10, "velocity": 106}, {"time": 112080, "pitch": 50, "duration": 10, "velocity": 78}, {"time": 112800, "pitch": 50, "duration": 10, "velocity": 106}, {"time": 113760, "pitch": 50, "duration": 10, "velocity": 106}, {"time": 114000, "pitch": 50, "duration": 10, "velocity": 78}, {"time": 114720, "pitch": 50, "duration": 10, "velocity": 106}, {"time": 115680, "pitch": 50, "duration": 10, "velocity": 106}, {"time": 115920, "pitch": 50, "duration": 10, "velocity": 78}, {"time": 116040, "pitch": 50, "duration": 10, "velocity": 92}, {"time": 116640, "pitch": 50, "duration": 10, "velocity": 106}, {"time": 117600, "pitch": 50, "duration": 10, "velocity": 106}, {"time": 118560, "pitch": 50, "duration": 10, "velocity": 106}, {"time": 119520, "pitch": 50, "duration": 10, "velocity": 106}, {"time": 119760, "pitch": 50, "duration": 10, "velocity": 78}, {"time": 120480, "pitch": 50, "duration": 10, "velocity": 106}, {"time": 121440, "pitch": 50, "duration": 10, "velocity": 106}, {"time": 122400, "pitch": 50, "duration": 10, "velocity": 106}, {"time": 123360, "pitch": 50, "duration": 10, "velocity": 106}, {"time": 123600, "pitch": 50, "duration": 10, "velocity": 78}, {"time": 124320, "pitch": 50, "duration": 10, "velocity": 106}, {"time": 125280, "pitch": 50, "duration": 10, "velocity": 106}, {"time": 126240, "pitch": 50, "duration": 10, "velocity": 106}, {"time": 127200, "pitch": 50, "duration": 10, "velocity": 106}, {"time": 127440, "pitch": 50, "duration": 10, "velocity": 78}, {"time": 128160, "pitch": 50, "duration": 10, "velocity": 106}, {"time": 129120, "pitch": 50, "duration": 10, "velocity": 106}, {"time": 130080, "pitch": 50, "duration": 10, "velocity": 106}, {"time": 131040, "pitch": 50, "duration": 10, "velocity": 106}, {"time": 131280, "pitch": 50, "duration": 10, "velocity": 78}, {"time": 132000, "pitch": 50, "duration": 10, "velocity": 106}, {"time": 132960, "pitch": 50, "duration": 10, "velocity": 106}, {"time": 133920, "pitch": 50, "duration": 10, "velocity": 106}, {"time": 134880, "pitch": 50, "duration": 10, "velocity": 106}, {"time": 135120, "pitch": 50, "duration": 10, "velocity": 78}, {"time": 135840, "pitch": 50, "duration": 10, "velocity": 106}, {"time": 136800, "pitch": 50, "duration": 10, "velocity": 106}, {"time": 137760, "pitch": 50, "duration": 10, "velocity": 106}, {"time": 138720, "pitch": 50, "duration": 10, "velocity": 106}, {"time": 138960, "pitch": 50, "duration": 10, "velocity": 78}, {"time": 139680, "pitch": 50, "duration": 10, "velocity": 106}, {"time": 140640, "pitch": 50, "duration": 10, "velocity": 106}, {"time": 141600, "pitch": 50, "duration": 10, "velocity": 106}, {"time": 142560, "pitch": 50, "duration": 10, "velocity": 106}, {"time": 142800, "pitch": 50, "duration": 10, "velocity": 78}, {"time": 143520, "pitch": 50, "duration": 10, "velocity": 106}, {"time": 144480, "pitch": 50, "duration": 10, "velocity": 106}, {"time": 145440, "pitch": 50, "duration": 10, "velocity": 106}, {"time": 146400, "pitch": 50, "duration": 10, "velocity": 106}, {"time": 146640, "pitch": 50, "duration": 10, "velocity": 78}, {"time": 147360, "pitch": 50, "duration": 10, "velocity": 106}, {"time": 148320, "pitch": 50, "duration": 10, "velocity": 106}, {"time": 149280, "pitch": 50, "duration": 10, "velocity": 106}, {"time": 150240, "pitch": 50, "duration": 10, "velocity": 106}, {"time": 150480, "pitch": 50, "duration": 10, "velocity": 78}, {"time": 151200, "pitch": 50, "duration": 10, "velocity": 106}, {"time": 152160, "pitch": 50, "duration": 10, "velocity": 106}, {"time": 153120, "pitch": 50, "duration": 10, "velocity": 106}, {"time": 154080, "pitch": 50, "duration": 10, "velocity": 106}, {"time": 154320, "pitch": 50, "duration": 10, "velocity": 78}, {"time": 155040, "pitch": 50, "duration": 10, "velocity": 106}, {"time": 156000, "pitch": 50, "duration": 10, "velocity": 106}, {"time": 156960, "pitch": 50, "duration": 10, "velocity": 106}, {"time": 157920, "pitch": 50, "duration": 10, "velocity": 106}, {"time": 158160, "pitch": 50, "duration": 10, "velocity": 78}, {"time": 158400, "pitch": 50, "duration": 10, "velocity": 106}, {"time": 159120, "pitch": 50, "duration": 10, "velocity": 106}, {"time": 160080, "pitch": 50, "duration": 10, "velocity": 106}, {"time": 160800, "pitch": 50, "duration": 10, "velocity": 106}, {"time": 161760, "pitch": 50, "duration": 10, "velocity": 106}, {"time": 162000, "pitch": 50, "duration": 10, "velocity": 106}, {"time": 162720, "pitch": 50, "duration": 10, "velocity": 106}, {"time": 163680, "pitch": 50, "duration": 10, "velocity": 106}, {"time": 164640, "pitch": 50, "duration": 10, "velocity": 106}, {"time": 165600, "pitch": 50, "duration": 10, "velocity": 106}, {"time": 165840, "pitch": 50, "duration": 10, "velocity": 106}, {"time": 166560, "pitch": 50, "duration": 10, "velocity": 106}, {"time": 167520, "pitch": 50, "duration": 10, "velocity": 106}, {"time": 167760, "pitch": 50, "duration": 10, "velocity": 106}, {"time": 168480, "pitch": 50, "duration": 10, "velocity": 106}, {"time": 169440, "pitch": 50, "duration": 10, "velocity": 106}, {"time": 170400, "pitch": 50, "duration": 10, "velocity": 106}, {"time": 171360, "pitch": 50, "duration": 10, "velocity": 106}, {"time": 171600, "pitch": 50, "duration": 10, "velocity": 78}, {"time": 172320, "pitch": 50, "duration": 10, "velocity": 106}, {"time": 173280, "pitch": 50, "duration": 10, "velocity": 106}, {"time": 174240, "pitch": 50, "duration": 10, "velocity": 106}, {"time": 175200, "pitch": 50, "duration": 10, "velocity": 106}, {"time": 175440, "pitch": 50, "duration": 10, "velocity": 78}, {"time": 176160, "pitch": 50, "duration": 10, "velocity": 106}, {"time": 177120, "pitch": 50, "duration": 10, "velocity": 106}, {"time": 178080, "pitch": 50, "duration": 10, "velocity": 106}, {"time": 179040, "pitch": 50, "duration": 10, "velocity": 106}, {"time": 179280, "pitch": 50, "duration": 10, "velocity": 78}, {"time": 180000, "pitch": 50, "duration": 10, "velocity": 106}, {"time": 180960, "pitch": 50, "duration": 10, "velocity": 106}, {"time": 181920, "pitch": 50, "duration": 10, "velocity": 106}, {"time": 182880, "pitch": 50, "duration": 10, "velocity": 106}, {"time": 183120, "pitch": 50, "duration": 10, "velocity": 78}, {"time": 183840, "pitch": 50, "duration": 10, "velocity": 106}, {"time": 184800, "pitch": 50, "duration": 10, "velocity": 106}, {"time": 185760, "pitch": 50, "duration": 10, "velocity": 106}, {"time": 186720, "pitch": 50, "duration": 10, "velocity": 106}, {"time": 186960, "pitch": 50, "duration": 10, "velocity": 78}, {"time": 187680, "pitch": 50, "duration": 10, "velocity": 106}, {"time": 188640, "pitch": 50, "duration": 10, "velocity": 106}, {"time": 189600, "pitch": 50, "duration": 10, "velocity": 106}, {"time": 190560, "pitch": 50, "duration": 10, "velocity": 106}, {"time": 190800, "pitch": 50, "duration": 10, "velocity": 78}, {"time": 191520, "pitch": 50, "duration": 10, "velocity": 106}, {"time": 192480, "pitch": 50, "duration": 10, "velocity": 106}, {"time": 193440, "pitch": 50, "duration": 10, "velocity": 106}, {"time": 194400, "pitch": 50, "duration": 10, "velocity": 106}, {"time": 194640, "pitch": 50, "duration": 10, "velocity": 78}, {"time": 195360, "pitch": 50, "duration": 10, "velocity": 106}, {"time": 196320, "pitch": 50, "duration": 10, "velocity": 106}, {"time": 197280, "pitch": 50, "duration": 10, "velocity": 106}, {"time": 198240, "pitch": 50, "duration": 10, "velocity": 106}, {"time": 198480, "pitch": 50, "duration": 10, "velocity": 78}, {"time": 199200, "pitch": 50, "duration": 10, "velocity": 106}, {"time": 200160, "pitch": 50, "duration": 10, "velocity": 106}, {"time": 201120, "pitch": 50, "duration": 10, "velocity": 106}, {"time": 202080, "pitch": 50, "duration": 10, "velocity": 106}, {"time": 202320, "pitch": 50, "duration": 10, "velocity": 78}, {"time": 203040, "pitch": 50, "duration": 10, "velocity": 106}, {"time": 204000, "pitch": 50, "duration": 10, "velocity": 106}, {"time": 204960, "pitch": 50, "duration": 10, "velocity": 106}, {"time": 205920, "pitch": 50, "duration": 10, "velocity": 106}, {"time": 206160, "pitch": 50, "duration": 10, "velocity": 78}, {"time": 206880, "pitch": 50, "duration": 10, "velocity": 106}, {"time": 207840, "pitch": 50, "duration": 10, "velocity": 106}, {"time": 208800, "pitch": 50, "duration": 10, "velocity": 106}, {"time": 209760, "pitch": 50, "duration": 10, "velocity": 106}, {"time": 210000, "pitch": 50, "duration": 10, "velocity": 78}, {"time": 210720, "pitch": 50, "duration": 10, "velocity": 106}, {"time": 211680, "pitch": 50, "duration": 10, "velocity": 106}, {"time": 212640, "pitch": 50, "duration": 10, "velocity": 106}, {"time": 213600, "pitch": 50, "duration": 10, "velocity": 106}, {"time": 213840, "pitch": 50, "duration": 10, "velocity": 78}, {"time": 214560, "pitch": 50, "duration": 10, "velocity": 106}, {"time": 215520, "pitch": 50, "duration": 10, "velocity": 106}, {"time": 215760, "pitch": 50, "duration": 10, "velocity": 78}]}]}