{"metadata": {"schema_version": "0.1", "title": "RWC-MDB-P-2001 No. 82: Once in a life time / Shinya Iguchi", "copyright": "RWC Music Database. Copyright (C) 2001 Real World Computing Partnership (contact: Masataka GOTO <m.goto@aist.go.jp>)", "source_filename": "RM-P082.SMF_SYNC.MID", "source_format": "midi"}, "resolution": 480, "tempos": [{"time": 0, "qpm": 40.54054054054054}, {"time": 480, "qpm": 88.23529411764706}, {"time": 1440, "qpm": 89.55223880597015}, {"time": 2400, "qpm": 88.23529411764706}, {"time": 3840, "qpm": 89.55223880597015}, {"time": 4320, "qpm": 88.23529411764706}, {"time": 16800, "qpm": 86.95652173913044}, {"time": 17280, "qpm": 88.23529411764706}, {"time": 20640, "qpm": 86.95652173913044}, {"time": 21120, "qpm": 88.23529411764706}, {"time": 21600, "qpm": 86.95652173913044}, {"time": 22080, "qpm": 88.23529411764706}, {"time": 27360, "qpm": 86.95652173913044}, {"time": 28800, "qpm": 88.23529411764706}, {"time": 31680, "qpm": 86.95652173913044}, {"time": 32640, "qpm": 88.23529411764706}, {"time": 33600, "qpm": 86.95652173913044}, {"time": 35520, "qpm": 88.23529411764706}, {"time": 40800, "qpm": 86.95652173913044}, {"time": 41760, "qpm": 88.23529411764706}, {"time": 58080, "qpm": 86.95652173913044}, {"time": 59040, "qpm": 88.23529411764706}, {"time": 60000, "qpm": 86.95652173913044}, {"time": 60480, "qpm": 88.23529411764706}, {"time": 63360, "qpm": 86.95652173913044}, {"time": 64320, "qpm": 88.23529411764706}, {"time": 65280, "qpm": 86.95652173913044}, {"time": 65760, "qpm": 88.23529411764706}, {"time": 70080, "qpm": 86.95652173913044}, {"time": 72960, "qpm": 88.23529411764706}, {"time": 73440, "qpm": 86.95652173913044}, {"time": 74400, "qpm": 88.23529411764706}, {"time": 75840, "qpm": 86.95652173913044}, {"time": 77280, "qpm": 88.23529411764706}, {"time": 77760, "qpm": 86.95652173913044}, {"time": 78240, "qpm": 88.23529411764706}, {"time": 78720, "qpm": 86.95652173913044}, {"time": 79200, "qpm": 88.23529411764706}, {"time": 94560, "qpm": 86.95652173913044}, {"time": 95040, "qpm": 88.23529411764706}, {"time": 101760, "qpm": 86.95652173913044}, {"time": 102240, "qpm": 88.23529411764706}, {"time": 102720, "qpm": 86.95652173913044}, {"time": 103200, "qpm": 88.23529411764706}, {"time": 107040, "qpm": 86.95652173913044}, {"time": 108000, "qpm": 88.23529411764706}, {"time": 111840, "qpm": 86.95652173913044}, {"time": 114240, "qpm": 88.23529411764706}, {"time": 120960, "qpm": 86.95652173913044}, {"time": 122880, "qpm": 88.23529411764706}, {"time": 128160, "qpm": 86.95652173913044}, {"time": 129120, "qpm": 88.23529411764706}, {"time": 130080, "qpm": 86.95652173913044}, {"time": 131040, "qpm": 88.23529411764706}, {"time": 131520, "qpm": 86.95652173913044}, {"time": 132000, "qpm": 88.23529411764706}, {"time": 140160, "qpm": 86.95652173913044}, {"time": 141120, "qpm": 88.23529411764706}, {"time": 145440, "qpm": 86.95652173913044}, {"time": 146880, "qpm": 88.23529411764706}, {"time": 147840, "qpm": 86.95652173913044}, {"time": 148320, "qpm": 88.23529411764706}, {"time": 151200, "qpm": 86.95652173913044}, {"time": 152160, "qpm": 88.23529411764706}, {"time": 163200, "qpm": 86.95652173913044}, {"time": 163680, "qpm": 88.23529411764706}, {"time": 171360, "qpm": 86.95652173913044}, {"time": 171840, "qpm": 88.23529411764706}, {"time": 174720, "qpm": 86.95652173913044}, {"time": 175200, "qpm": 88.23529411764706}, {"time": 181440, "qpm": 86.95652173913044}, {"time": 183360, "qpm": 88.23529411764706}, {"time": 187200, "qpm": 86.95652173913044}, {"time": 188640, "qpm": 88.23529411764706}, {"time": 189120, "qpm": 86.95652173913044}, {"time": 189600, "qpm": 88.23529411764706}, {"time": 190080, "qpm": 86.95652173913044}, {"time": 190560, "qpm": 88.23529411764706}, {"time": 197760, "qpm": 86.95652173913044}, {"time": 199200, "qpm": 88.23529411764706}, {"time": 199680, "qpm": 86.95652173913044}, {"time": 200160, "qpm": 88.23529411764706}, {"time": 204480, "qpm": 86.95652173913044}, {"time": 204960, "qpm": 88.23529411764706}, {"time": 205440, "qpm": 86.95652173913044}, {"time": 205920, "qpm": 88.23529411764706}, {"time": 206400, "qpm": 86.95652173913044}, {"time": 206880, "qpm": 88.23529411764706}, {"time": 215520, "qpm": 86.95652173913044}, {"time": 216960, "qpm": 88.23529411764706}, {"time": 220800, "qpm": 86.95652173913044}, {"time": 221280, "qpm": 88.23529411764706}], "key_signatures": [{"time": 19, "root": 2, "mode": "major"}], "time_signatures": [{"time": 0, "numerator": 1, "denominator": 4}, {"time": 480, "numerator": 4, "denominator": 4}], "tracks": [{"program": 0, "is_drum": false, "name": "Piano", "notes": [{"time": 477, "pitch": 47, "duration": 658, "velocity": 69}, {"time": 477, "pitch": 59, "duration": 658, "velocity": 73}, {"time": 477, "pitch": 62, "duration": 1524, "velocity": 71}, {"time": 477, "pitch": 66, "duration": 678, "velocity": 73}, {"time": 1185, "pitch": 43, "duration": 846, "velocity": 67}, {"time": 1185, "pitch": 55, "duration": 796, "velocity": 65}, {"time": 1185, "pitch": 59, "duration": 826, "velocity": 51}, {"time": 1185, "pitch": 67, "duration": 866, "velocity": 69}, {"time": 2379, "pitch": 50, "duration": 727, "velocity": 75}, {"time": 2379, "pitch": 57, "duration": 1538, "velocity": 63}, {"time": 2379, "pitch": 62, "duration": 383, "velocity": 57}, {"time": 2379, "pitch": 66, "duration": 374, "velocity": 67}, {"time": 3106, "pitch": 45, "duration": 863, "velocity": 71}, {"time": 3106, "pitch": 61, "duration": 750, "velocity": 73}, {"time": 3106, "pitch": 64, "duration": 760, "velocity": 65}, {"time": 4317, "pitch": 47, "duration": 445, "velocity": 62}, {"time": 4317, "pitch": 59, "duration": 1471, "velocity": 62}, {"time": 4317, "pitch": 62, "duration": 1622, "velocity": 57}, {"time": 4317, "pitch": 66, "duration": 415, "velocity": 63}, {"time": 5041, "pitch": 43, "duration": 827, "velocity": 69}, {"time": 5041, "pitch": 67, "duration": 767, "velocity": 73}, {"time": 6242, "pitch": 45, "duration": 1515, "velocity": 63}, {"time": 6242, "pitch": 57, "duration": 1525, "velocity": 60}, {"time": 6242, "pitch": 62, "duration": 732, "velocity": 52}, {"time": 6242, "pitch": 64, "duration": 1495, "velocity": 57}, {"time": 6242, "pitch": 69, "duration": 1525, "velocity": 53}, {"time": 7183, "pitch": 61, "duration": 534, "velocity": 85}, {"time": 8139, "pitch": 47, "duration": 373, "velocity": 59}, {"time": 8139, "pitch": 59, "duration": 405, "velocity": 60}, {"time": 8139, "pitch": 62, "duration": 415, "velocity": 65}, {"time": 8139, "pitch": 66, "duration": 405, "velocity": 62}, {"time": 8880, "pitch": 43, "duration": 630, "velocity": 65}, {"time": 8880, "pitch": 59, "duration": 521, "velocity": 62}, {"time": 8880, "pitch": 62, "duration": 531, "velocity": 56}, {"time": 8880, "pitch": 67, "duration": 521, "velocity": 69}, {"time": 10077, "pitch": 50, "duration": 394, "velocity": 65}, {"time": 10077, "pitch": 57, "duration": 404, "velocity": 48}, {"time": 10077, "pitch": 62, "duration": 384, "velocity": 48}, {"time": 10077, "pitch": 66, "duration": 394, "velocity": 65}, {"time": 10801, "pitch": 45, "duration": 912, "velocity": 57}, {"time": 10801, "pitch": 57, "duration": 814, "velocity": 59}, {"time": 10801, "pitch": 61, "duration": 775, "velocity": 71}, {"time": 10801, "pitch": 64, "duration": 766, "velocity": 57}, {"time": 11988, "pitch": 43, "duration": 379, "velocity": 71}, {"time": 11988, "pitch": 57, "duration": 379, "velocity": 52}, {"time": 11988, "pitch": 59, "duration": 368, "velocity": 63}, {"time": 11988, "pitch": 62, "duration": 368, "velocity": 42}, {"time": 15857, "pitch": 47, "duration": 495, "velocity": 53}, {"time": 15857, "pitch": 59, "duration": 1440, "velocity": 45}, {"time": 15857, "pitch": 62, "duration": 1460, "velocity": 51}, {"time": 15857, "pitch": 66, "duration": 495, "velocity": 53}, {"time": 16561, "pitch": 43, "duration": 706, "velocity": 47}, {"time": 16561, "pitch": 67, "duration": 736, "velocity": 55}, {"time": 17762, "pitch": 50, "duration": 418, "velocity": 39}, {"time": 17762, "pitch": 57, "duration": 1420, "velocity": 35}, {"time": 17762, "pitch": 62, "duration": 398, "velocity": 40}, {"time": 17762, "pitch": 66, "duration": 368, "velocity": 50}, {"time": 18478, "pitch": 45, "duration": 784, "velocity": 43}, {"time": 18478, "pitch": 61, "duration": 663, "velocity": 52}, {"time": 18478, "pitch": 64, "duration": 653, "velocity": 46}, {"time": 19679, "pitch": 47, "duration": 418, "velocity": 35}, {"time": 19679, "pitch": 59, "duration": 1440, "velocity": 38}, {"time": 19679, "pitch": 62, "duration": 1440, "velocity": 42}, {"time": 19679, "pitch": 66, "duration": 438, "velocity": 51}, {"time": 20399, "pitch": 43, "duration": 760, "velocity": 41}, {"time": 20399, "pitch": 67, "duration": 681, "velocity": 55}, {"time": 21597, "pitch": 45, "duration": 1511, "velocity": 39}, {"time": 21597, "pitch": 57, "duration": 1521, "velocity": 40}, {"time": 21597, "pitch": 62, "duration": 783, "velocity": 39}, {"time": 21597, "pitch": 64, "duration": 1480, "velocity": 46}, {"time": 22559, "pitch": 61, "duration": 508, "velocity": 38}, {"time": 23522, "pitch": 47, "duration": 438, "velocity": 36}, {"time": 23522, "pitch": 59, "duration": 1420, "velocity": 45}, {"time": 23522, "pitch": 62, "duration": 1420, "velocity": 48}, {"time": 23522, "pitch": 66, "duration": 457, "velocity": 53}, {"time": 24238, "pitch": 43, "duration": 623, "velocity": 47}, {"time": 24238, "pitch": 67, "duration": 693, "velocity": 48}, {"time": 25439, "pitch": 50, "duration": 398, "velocity": 42}, {"time": 25439, "pitch": 57, "duration": 408, "velocity": 43}, {"time": 25439, "pitch": 62, "duration": 378, "velocity": 47}, {"time": 25439, "pitch": 66, "duration": 378, "velocity": 53}, {"time": 26159, "pitch": 45, "duration": 750, "velocity": 34}, {"time": 26159, "pitch": 57, "duration": 710, "velocity": 41}, {"time": 26159, "pitch": 61, "duration": 700, "velocity": 52}, {"time": 26159, "pitch": 64, "duration": 690, "velocity": 44}, {"time": 27357, "pitch": 47, "duration": 394, "velocity": 36}, {"time": 27357, "pitch": 59, "duration": 1301, "velocity": 45}, {"time": 27357, "pitch": 62, "duration": 1330, "velocity": 47}, {"time": 27357, "pitch": 66, "duration": 414, "velocity": 55}, {"time": 28080, "pitch": 43, "duration": 558, "velocity": 36}, {"time": 28080, "pitch": 67, "duration": 568, "velocity": 52}, {"time": 29282, "pitch": 45, "duration": 1688, "velocity": 39}, {"time": 29282, "pitch": 57, "duration": 1589, "velocity": 36}, {"time": 29282, "pitch": 62, "duration": 656, "velocity": 43}, {"time": 29282, "pitch": 64, "duration": 1519, "velocity": 42}, {"time": 30237, "pitch": 61, "duration": 564, "velocity": 56}, {"time": 31199, "pitch": 43, "duration": 2059, "velocity": 40}, {"time": 31199, "pitch": 57, "duration": 1978, "velocity": 38}, {"time": 31199, "pitch": 59, "duration": 1938, "velocity": 47}, {"time": 31199, "pitch": 62, "duration": 1998, "velocity": 32}, {"time": 35041, "pitch": 47, "duration": 448, "velocity": 34}, {"time": 35041, "pitch": 59, "duration": 1350, "velocity": 36}, {"time": 35041, "pitch": 62, "duration": 1329, "velocity": 34}, {"time": 35041, "pitch": 66, "duration": 508, "velocity": 51}, {"time": 35758, "pitch": 43, "duration": 552, "velocity": 41}, {"time": 35758, "pitch": 67, "duration": 582, "velocity": 55}, {"time": 36959, "pitch": 50, "duration": 398, "velocity": 26}, {"time": 36959, "pitch": 57, "duration": 1390, "velocity": 34}, {"time": 36959, "pitch": 62, "duration": 348, "velocity": 32}, {"time": 36959, "pitch": 66, "duration": 318, "velocity": 47}, {"time": 37679, "pitch": 45, "duration": 611, "velocity": 44}, {"time": 37679, "pitch": 61, "duration": 660, "velocity": 47}, {"time": 37679, "pitch": 64, "duration": 640, "velocity": 37}, {"time": 38877, "pitch": 47, "duration": 444, "velocity": 25}, {"time": 38877, "pitch": 59, "duration": 1290, "velocity": 39}, {"time": 38877, "pitch": 62, "duration": 1310, "velocity": 41}, {"time": 38877, "pitch": 66, "duration": 504, "velocity": 48}, {"time": 39600, "pitch": 43, "duration": 567, "velocity": 41}, {"time": 39600, "pitch": 67, "duration": 567, "velocity": 53}, {"time": 40801, "pitch": 45, "duration": 1460, "velocity": 42}, {"time": 40801, "pitch": 57, "duration": 1470, "velocity": 36}, {"time": 40801, "pitch": 62, "duration": 786, "velocity": 41}, {"time": 40801, "pitch": 64, "duration": 1460, "velocity": 41}, {"time": 41756, "pitch": 61, "duration": 495, "velocity": 36}, {"time": 42719, "pitch": 47, "duration": 428, "velocity": 29}, {"time": 42719, "pitch": 59, "duration": 1470, "velocity": 42}, {"time": 42719, "pitch": 62, "duration": 1500, "velocity": 43}, {"time": 42719, "pitch": 66, "duration": 428, "velocity": 47}, {"time": 43439, "pitch": 43, "duration": 680, "velocity": 40}, {"time": 43439, "pitch": 67, "duration": 740, "velocity": 48}, {"time": 44644, "pitch": 50, "duration": 417, "velocity": 37}, {"time": 44644, "pitch": 57, "duration": 1459, "velocity": 34}, {"time": 44644, "pitch": 62, "duration": 398, "velocity": 41}, {"time": 44644, "pitch": 66, "duration": 368, "velocity": 55}, {"time": 45360, "pitch": 45, "duration": 724, "velocity": 37}, {"time": 45360, "pitch": 61, "duration": 713, "velocity": 55}, {"time": 45360, "pitch": 64, "duration": 724, "velocity": 45}, {"time": 46561, "pitch": 47, "duration": 408, "velocity": 26}, {"time": 46561, "pitch": 59, "duration": 1341, "velocity": 39}, {"time": 46561, "pitch": 62, "duration": 1311, "velocity": 45}, {"time": 46561, "pitch": 66, "duration": 468, "velocity": 52}, {"time": 47281, "pitch": 43, "duration": 650, "velocity": 41}, {"time": 47281, "pitch": 67, "duration": 561, "velocity": 51}, {"time": 48479, "pitch": 45, "duration": 1652, "velocity": 34}, {"time": 48479, "pitch": 57, "duration": 1621, "velocity": 39}, {"time": 48479, "pitch": 62, "duration": 892, "velocity": 38}, {"time": 48479, "pitch": 64, "duration": 1520, "velocity": 38}, {"time": 49441, "pitch": 61, "duration": 589, "velocity": 65}, {"time": 50403, "pitch": 43, "duration": 3527, "velocity": 56}, {"time": 50403, "pitch": 59, "duration": 1590, "velocity": 57}, {"time": 50403, "pitch": 62, "duration": 1510, "velocity": 56}, {"time": 50403, "pitch": 67, "duration": 1610, "velocity": 63}, {"time": 52321, "pitch": 31, "duration": 1559, "velocity": 46}, {"time": 52321, "pitch": 57, "duration": 1679, "velocity": 60}, {"time": 52321, "pitch": 61, "duration": 1629, "velocity": 62}, {"time": 52321, "pitch": 64, "duration": 1629, "velocity": 60}, {"time": 52321, "pitch": 69, "duration": 1669, "velocity": 56}, {"time": 54239, "pitch": 30, "duration": 494, "velocity": 55}, {"time": 54239, "pitch": 42, "duration": 474, "velocity": 43}, {"time": 54239, "pitch": 57, "duration": 614, "velocity": 62}, {"time": 54239, "pitch": 62, "duration": 544, "velocity": 69}, {"time": 54239, "pitch": 66, "duration": 574, "velocity": 65}, {"time": 54239, "pitch": 69, "duration": 604, "velocity": 56}, {"time": 55201, "pitch": 28, "duration": 468, "velocity": 50}, {"time": 55201, "pitch": 40, "duration": 669, "velocity": 43}, {"time": 55201, "pitch": 57, "duration": 639, "velocity": 60}, {"time": 55201, "pitch": 61, "duration": 629, "velocity": 65}, {"time": 55201, "pitch": 64, "duration": 619, "velocity": 65}, {"time": 55201, "pitch": 69, "duration": 700, "velocity": 59}, {"time": 56163, "pitch": 38, "duration": 1480, "velocity": 62}, {"time": 56163, "pitch": 59, "duration": 1639, "velocity": 57}, {"time": 56163, "pitch": 62, "duration": 1649, "velocity": 45}, {"time": 56163, "pitch": 67, "duration": 1649, "velocity": 56}, {"time": 56163, "pitch": 69, "duration": 1609, "velocity": 56}, {"time": 58081, "pitch": 31, "duration": 1589, "velocity": 57}, {"time": 58081, "pitch": 43, "duration": 1619, "velocity": 63}, {"time": 58081, "pitch": 59, "duration": 1619, "velocity": 75}, {"time": 58081, "pitch": 62, "duration": 1659, "velocity": 83}, {"time": 58081, "pitch": 67, "duration": 1639, "velocity": 79}, {"time": 59998, "pitch": 33, "duration": 1331, "velocity": 60}, {"time": 59998, "pitch": 45, "duration": 794, "velocity": 62}, {"time": 59998, "pitch": 57, "duration": 1521, "velocity": 73}, {"time": 59998, "pitch": 62, "duration": 764, "velocity": 73}, {"time": 59998, "pitch": 64, "duration": 1501, "velocity": 75}, {"time": 59998, "pitch": 69, "duration": 1683, "velocity": 60}, {"time": 60961, "pitch": 45, "duration": 388, "velocity": 71}, {"time": 60961, "pitch": 61, "duration": 487, "velocity": 89}, {"time": 61923, "pitch": 38, "duration": 428, "velocity": 53}, {"time": 61923, "pitch": 50, "duration": 428, "velocity": 60}, {"time": 61923, "pitch": 57, "duration": 458, "velocity": 67}, {"time": 61923, "pitch": 62, "duration": 478, "velocity": 81}, {"time": 61923, "pitch": 66, "duration": 438, "velocity": 85}, {"time": 61923, "pitch": 69, "duration": 9217, "velocity": 77}, {"time": 62640, "pitch": 43, "duration": 813, "velocity": 73}, {"time": 62640, "pitch": 59, "duration": 743, "velocity": 63}, {"time": 62640, "pitch": 62, "duration": 773, "velocity": 79}, {"time": 62640, "pitch": 67, "duration": 1719, "velocity": 71}, {"time": 63841, "pitch": 40, "duration": 477, "velocity": 53}, {"time": 63841, "pitch": 52, "duration": 477, "velocity": 56}, {"time": 63841, "pitch": 59, "duration": 447, "velocity": 73}, {"time": 63841, "pitch": 64, "duration": 558, "velocity": 65}, {"time": 64561, "pitch": 45, "duration": 799, "velocity": 67}, {"time": 64561, "pitch": 57, "duration": 859, "velocity": 75}, {"time": 64561, "pitch": 61, "duration": 799, "velocity": 81}, {"time": 64561, "pitch": 64, "duration": 819, "velocity": 77}, {"time": 65758, "pitch": 42, "duration": 465, "velocity": 81}, {"time": 65758, "pitch": 57, "duration": 505, "velocity": 71}, {"time": 65758, "pitch": 62, "duration": 495, "velocity": 75}, {"time": 65758, "pitch": 66, "duration": 485, "velocity": 81}, {"time": 66482, "pitch": 43, "duration": 938, "velocity": 63}, {"time": 66482, "pitch": 59, "duration": 868, "velocity": 62}, {"time": 66482, "pitch": 62, "duration": 918, "velocity": 79}, {"time": 66482, "pitch": 67, "duration": 938, "velocity": 65}, {"time": 67683, "pitch": 45, "duration": 1460, "velocity": 77}, {"time": 67683, "pitch": 57, "duration": 1470, "velocity": 73}, {"time": 67683, "pitch": 62, "duration": 706, "velocity": 71}, {"time": 67683, "pitch": 64, "duration": 1450, "velocity": 75}, {"time": 68638, "pitch": 61, "duration": 455, "velocity": 87}, {"time": 69601, "pitch": 42, "duration": 408, "velocity": 87}, {"time": 69601, "pitch": 57, "duration": 447, "velocity": 77}, {"time": 69601, "pitch": 62, "duration": 437, "velocity": 75}, {"time": 69601, "pitch": 66, "duration": 427, "velocity": 73}, {"time": 70321, "pitch": 43, "duration": 749, "velocity": 71}, {"time": 70321, "pitch": 59, "duration": 690, "velocity": 71}, {"time": 70321, "pitch": 62, "duration": 720, "velocity": 79}, {"time": 70321, "pitch": 67, "duration": 759, "velocity": 67}, {"time": 71518, "pitch": 33, "duration": 222, "velocity": 63}, {"time": 71518, "pitch": 45, "duration": 232, "velocity": 59}, {"time": 71518, "pitch": 57, "duration": 192, "velocity": 59}, {"time": 71518, "pitch": 61, "duration": 212, "velocity": 63}, {"time": 71518, "pitch": 64, "duration": 202, "velocity": 63}, {"time": 71518, "pitch": 69, "duration": 182, "velocity": 56}, {"time": 72242, "pitch": 34, "duration": 597, "velocity": 71}, {"time": 72242, "pitch": 46, "duration": 607, "velocity": 73}, {"time": 72242, "pitch": 58, "duration": 577, "velocity": 67}, {"time": 72242, "pitch": 61, "duration": 577, "velocity": 63}, {"time": 72242, "pitch": 64, "duration": 547, "velocity": 63}, {"time": 72242, "pitch": 70, "duration": 607, "velocity": 77}, {"time": 73443, "pitch": 35, "duration": 368, "velocity": 52}, {"time": 73443, "pitch": 47, "duration": 388, "velocity": 53}, {"time": 73443, "pitch": 59, "duration": 398, "velocity": 60}, {"time": 73443, "pitch": 62, "duration": 378, "velocity": 63}, {"time": 73443, "pitch": 66, "duration": 378, "velocity": 73}, {"time": 73443, "pitch": 71, "duration": 378, "velocity": 59}, {"time": 74159, "pitch": 43, "duration": 1162, "velocity": 69}, {"time": 74159, "pitch": 59, "duration": 923, "velocity": 71}, {"time": 74159, "pitch": 62, "duration": 1012, "velocity": 73}, {"time": 74159, "pitch": 67, "duration": 923, "velocity": 71}, {"time": 75360, "pitch": 45, "duration": 1639, "velocity": 65}, {"time": 75360, "pitch": 57, "duration": 1659, "velocity": 71}, {"time": 75360, "pitch": 62, "duration": 1659, "velocity": 73}, {"time": 75360, "pitch": 64, "duration": 1639, "velocity": 73}, {"time": 75360, "pitch": 69, "duration": 1699, "velocity": 60}, {"time": 77278, "pitch": 47, "duration": 434, "velocity": 77}, {"time": 77278, "pitch": 59, "duration": 1511, "velocity": 81}, {"time": 77278, "pitch": 62, "duration": 1541, "velocity": 75}, {"time": 77278, "pitch": 66, "duration": 404, "velocity": 75}, {"time": 78002, "pitch": 43, "duration": 537, "velocity": 60}, {"time": 78002, "pitch": 67, "duration": 837, "velocity": 71}, {"time": 79203, "pitch": 50, "duration": 477, "velocity": 63}, {"time": 79203, "pitch": 57, "duration": 627, "velocity": 67}, {"time": 79203, "pitch": 62, "duration": 467, "velocity": 62}, {"time": 79203, "pitch": 66, "duration": 497, "velocity": 71}, {"time": 79919, "pitch": 45, "duration": 1181, "velocity": 62}, {"time": 79919, "pitch": 57, "duration": 982, "velocity": 77}, {"time": 79919, "pitch": 61, "duration": 953, "velocity": 79}, {"time": 79919, "pitch": 64, "duration": 972, "velocity": 73}, {"time": 81120, "pitch": 47, "duration": 448, "velocity": 71}, {"time": 81120, "pitch": 59, "duration": 1570, "velocity": 69}, {"time": 81120, "pitch": 62, "duration": 458, "velocity": 71}, {"time": 81120, "pitch": 66, "duration": 428, "velocity": 71}, {"time": 81598, "pitch": 62, "duration": 1042, "velocity": 1}, {"time": 81840, "pitch": 43, "duration": 939, "velocity": 55}, {"time": 81840, "pitch": 67, "duration": 860, "velocity": 79}, {"time": 83038, "pitch": 45, "duration": 1561, "velocity": 57}, {"time": 83038, "pitch": 57, "duration": 1531, "velocity": 56}, {"time": 83038, "pitch": 62, "duration": 684, "velocity": 62}, {"time": 83038, "pitch": 64, "duration": 1510, "velocity": 60}, {"time": 83038, "pitch": 69, "duration": 1521, "velocity": 59}, {"time": 84000, "pitch": 61, "duration": 498, "velocity": 69}, {"time": 84963, "pitch": 47, "duration": 706, "velocity": 50}, {"time": 84963, "pitch": 59, "duration": 1678, "velocity": 52}, {"time": 84963, "pitch": 62, "duration": 1708, "velocity": 55}, {"time": 84963, "pitch": 66, "duration": 716, "velocity": 55}, {"time": 85679, "pitch": 43, "duration": 982, "velocity": 51}, {"time": 85679, "pitch": 67, "duration": 1012, "velocity": 60}, {"time": 86880, "pitch": 50, "duration": 378, "velocity": 57}, {"time": 86880, "pitch": 57, "duration": 1400, "velocity": 50}, {"time": 86880, "pitch": 62, "duration": 368, "velocity": 50}, {"time": 86880, "pitch": 66, "duration": 348, "velocity": 55}, {"time": 87600, "pitch": 45, "duration": 810, "velocity": 47}, {"time": 87600, "pitch": 61, "duration": 641, "velocity": 55}, {"time": 87600, "pitch": 64, "duration": 641, "velocity": 51}, {"time": 88798, "pitch": 47, "duration": 424, "velocity": 32}, {"time": 88798, "pitch": 59, "duration": 1510, "velocity": 36}, {"time": 88798, "pitch": 62, "duration": 1581, "velocity": 41}, {"time": 88798, "pitch": 66, "duration": 534, "velocity": 48}, {"time": 89521, "pitch": 43, "duration": 868, "velocity": 41}, {"time": 89521, "pitch": 67, "duration": 808, "velocity": 53}, {"time": 90722, "pitch": 45, "duration": 1540, "velocity": 46}, {"time": 90722, "pitch": 57, "duration": 1520, "velocity": 39}, {"time": 90722, "pitch": 62, "duration": 717, "velocity": 45}, {"time": 90722, "pitch": 64, "duration": 1520, "velocity": 32}, {"time": 90722, "pitch": 69, "duration": 1510, "velocity": 32}, {"time": 91678, "pitch": 61, "duration": 484, "velocity": 67}, {"time": 92640, "pitch": 47, "duration": 438, "velocity": 41}, {"time": 92640, "pitch": 59, "duration": 1510, "velocity": 39}, {"time": 92640, "pitch": 62, "duration": 1569, "velocity": 37}, {"time": 92640, "pitch": 66, "duration": 418, "velocity": 45}, {"time": 93360, "pitch": 43, "duration": 879, "velocity": 55}, {"time": 93360, "pitch": 67, "duration": 849, "velocity": 60}, {"time": 94558, "pitch": 50, "duration": 454, "velocity": 46}, {"time": 94558, "pitch": 57, "duration": 1621, "velocity": 45}, {"time": 94558, "pitch": 62, "duration": 424, "velocity": 40}, {"time": 94558, "pitch": 66, "duration": 383, "velocity": 56}, {"time": 95281, "pitch": 45, "duration": 1191, "velocity": 43}, {"time": 95281, "pitch": 61, "duration": 888, "velocity": 53}, {"time": 95281, "pitch": 64, "duration": 888, "velocity": 44}, {"time": 96482, "pitch": 47, "duration": 697, "velocity": 23}, {"time": 96482, "pitch": 59, "duration": 1580, "velocity": 38}, {"time": 96482, "pitch": 62, "duration": 1609, "velocity": 43}, {"time": 96482, "pitch": 66, "duration": 508, "velocity": 53}, {"time": 97199, "pitch": 43, "duration": 873, "velocity": 47}, {"time": 97199, "pitch": 67, "duration": 823, "velocity": 57}, {"time": 98400, "pitch": 45, "duration": 1649, "velocity": 44}, {"time": 98400, "pitch": 57, "duration": 1649, "velocity": 47}, {"time": 98400, "pitch": 62, "duration": 720, "velocity": 55}, {"time": 98400, "pitch": 64, "duration": 1629, "velocity": 41}, {"time": 98400, "pitch": 69, "duration": 1679, "velocity": 40}, {"time": 99362, "pitch": 61, "duration": 627, "velocity": 53}, {"time": 100317, "pitch": 43, "duration": 1642, "velocity": 60}, {"time": 100317, "pitch": 59, "duration": 1612, "velocity": 60}, {"time": 100317, "pitch": 62, "duration": 1572, "velocity": 71}, {"time": 100317, "pitch": 67, "duration": 1622, "velocity": 77}, {"time": 102242, "pitch": 43, "duration": 1619, "velocity": 62}, {"time": 102242, "pitch": 57, "duration": 1599, "velocity": 73}, {"time": 102242, "pitch": 61, "duration": 1500, "velocity": 85}, {"time": 102242, "pitch": 64, "duration": 1520, "velocity": 79}, {"time": 102242, "pitch": 69, "duration": 1560, "velocity": 62}, {"time": 104160, "pitch": 42, "duration": 679, "velocity": 83}, {"time": 104160, "pitch": 57, "duration": 720, "velocity": 71}, {"time": 104160, "pitch": 62, "duration": 679, "velocity": 71}, {"time": 104160, "pitch": 66, "duration": 699, "velocity": 73}, {"time": 104160, "pitch": 69, "duration": 750, "velocity": 55}, {"time": 105122, "pitch": 40, "duration": 756, "velocity": 56}, {"time": 105122, "pitch": 57, "duration": 677, "velocity": 73}, {"time": 105122, "pitch": 61, "duration": 667, "velocity": 83}, {"time": 105122, "pitch": 64, "duration": 667, "velocity": 75}, {"time": 105122, "pitch": 69, "duration": 736, "velocity": 65}, {"time": 106077, "pitch": 38, "duration": 1381, "velocity": 69}, {"time": 106077, "pitch": 59, "duration": 1673, "velocity": 63}, {"time": 106077, "pitch": 62, "duration": 1673, "velocity": 81}, {"time": 106077, "pitch": 67, "duration": 1683, "velocity": 81}, {"time": 108002, "pitch": 31, "duration": 498, "velocity": 81}, {"time": 108002, "pitch": 43, "duration": 498, "velocity": 67}, {"time": 108002, "pitch": 59, "duration": 1349, "velocity": 71}, {"time": 108002, "pitch": 62, "duration": 1379, "velocity": 79}, {"time": 108002, "pitch": 67, "duration": 1288, "velocity": 75}, {"time": 109920, "pitch": 33, "duration": 1370, "velocity": 79}, {"time": 109920, "pitch": 45, "duration": 1390, "velocity": 75}, {"time": 109920, "pitch": 57, "duration": 1549, "velocity": 71}, {"time": 109920, "pitch": 62, "duration": 780, "velocity": 83}, {"time": 109920, "pitch": 64, "duration": 1529, "velocity": 85}, {"time": 109920, "pitch": 69, "duration": 1758, "velocity": 79}, {"time": 110882, "pitch": 61, "duration": 468, "velocity": 95}, {"time": 111837, "pitch": 38, "duration": 364, "velocity": 77}, {"time": 111837, "pitch": 50, "duration": 434, "velocity": 75}, {"time": 111837, "pitch": 57, "duration": 475, "velocity": 71}, {"time": 111837, "pitch": 62, "duration": 495, "velocity": 81}, {"time": 111837, "pitch": 66, "duration": 475, "velocity": 85}, {"time": 111837, "pitch": 69, "duration": 9911, "velocity": 77}, {"time": 112561, "pitch": 43, "duration": 726, "velocity": 71}, {"time": 112561, "pitch": 55, "duration": 696, "velocity": 67}, {"time": 112561, "pitch": 59, "duration": 999, "velocity": 81}, {"time": 112561, "pitch": 62, "duration": 827, "velocity": 83}, {"time": 112561, "pitch": 67, "duration": 948, "velocity": 75}, {"time": 113762, "pitch": 40, "duration": 458, "velocity": 59}, {"time": 113762, "pitch": 52, "duration": 458, "velocity": 65}, {"time": 113762, "pitch": 59, "duration": 398, "velocity": 73}, {"time": 113762, "pitch": 64, "duration": 388, "velocity": 65}, {"time": 113762, "pitch": 67, "duration": 408, "velocity": 71}, {"time": 114478, "pitch": 45, "duration": 764, "velocity": 75}, {"time": 114478, "pitch": 57, "duration": 913, "velocity": 77}, {"time": 114478, "pitch": 61, "duration": 903, "velocity": 85}, {"time": 114478, "pitch": 64, "duration": 893, "velocity": 67}, {"time": 115679, "pitch": 42, "duration": 359, "velocity": 81}, {"time": 115679, "pitch": 57, "duration": 438, "velocity": 77}, {"time": 115679, "pitch": 62, "duration": 428, "velocity": 81}, {"time": 115679, "pitch": 66, "duration": 408, "velocity": 79}, {"time": 116399, "pitch": 43, "duration": 860, "velocity": 81}, {"time": 116399, "pitch": 59, "duration": 840, "velocity": 73}, {"time": 116399, "pitch": 62, "duration": 850, "velocity": 79}, {"time": 116399, "pitch": 67, "duration": 880, "velocity": 63}, {"time": 117597, "pitch": 45, "duration": 1642, "velocity": 69}, {"time": 117597, "pitch": 57, "duration": 1612, "velocity": 81}, {"time": 117597, "pitch": 62, "duration": 684, "velocity": 75}, {"time": 117597, "pitch": 64, "duration": 1531, "velocity": 81}, {"time": 118559, "pitch": 61, "duration": 528, "velocity": 89}, {"time": 119522, "pitch": 42, "duration": 438, "velocity": 96}, {"time": 119522, "pitch": 57, "duration": 487, "velocity": 77}, {"time": 119522, "pitch": 62, "duration": 467, "velocity": 79}, {"time": 119522, "pitch": 66, "duration": 487, "velocity": 79}, {"time": 120238, "pitch": 43, "duration": 923, "velocity": 81}, {"time": 120238, "pitch": 59, "duration": 863, "velocity": 71}, {"time": 120238, "pitch": 62, "duration": 863, "velocity": 81}, {"time": 120238, "pitch": 67, "duration": 933, "velocity": 69}, {"time": 121439, "pitch": 45, "duration": 339, "velocity": 73}, {"time": 121439, "pitch": 57, "duration": 319, "velocity": 79}, {"time": 121439, "pitch": 61, "duration": 309, "velocity": 85}, {"time": 121439, "pitch": 64, "duration": 319, "velocity": 77}, {"time": 122159, "pitch": 46, "duration": 1178, "velocity": 91}, {"time": 122159, "pitch": 58, "duration": 641, "velocity": 85}, {"time": 122159, "pitch": 61, "duration": 641, "velocity": 77}, {"time": 122159, "pitch": 64, "duration": 591, "velocity": 75}, {"time": 122159, "pitch": 70, "duration": 651, "velocity": 71}, {"time": 123357, "pitch": 47, "duration": 444, "velocity": 65}, {"time": 123357, "pitch": 59, "duration": 333, "velocity": 65}, {"time": 123357, "pitch": 62, "duration": 333, "velocity": 71}, {"time": 123357, "pitch": 66, "duration": 343, "velocity": 77}, {"time": 123357, "pitch": 71, "duration": 323, "velocity": 69}, {"time": 124080, "pitch": 43, "duration": 1161, "velocity": 62}, {"time": 124080, "pitch": 59, "duration": 798, "velocity": 63}, {"time": 124080, "pitch": 62, "duration": 899, "velocity": 73}, {"time": 124080, "pitch": 67, "duration": 838, "velocity": 75}, {"time": 125282, "pitch": 45, "duration": 1066, "velocity": 63}, {"time": 125282, "pitch": 57, "duration": 1288, "velocity": 59}, {"time": 125282, "pitch": 62, "duration": 1268, "velocity": 73}, {"time": 125282, "pitch": 64, "duration": 1278, "velocity": 71}, {"time": 125282, "pitch": 69, "duration": 1268, "velocity": 63}, {"time": 127199, "pitch": 43, "duration": 1480, "velocity": 36}, {"time": 127199, "pitch": 55, "duration": 1480, "velocity": 43}, {"time": 127199, "pitch": 59, "duration": 1450, "velocity": 44}, {"time": 127199, "pitch": 62, "duration": 1500, "velocity": 55}, {"time": 129117, "pitch": 42, "duration": 1460, "velocity": 63}, {"time": 129117, "pitch": 54, "duration": 1470, "velocity": 44}, {"time": 129117, "pitch": 57, "duration": 1480, "velocity": 46}, {"time": 129117, "pitch": 62, "duration": 1420, "velocity": 48}, {"time": 131041, "pitch": 43, "duration": 1440, "velocity": 38}, {"time": 131041, "pitch": 55, "duration": 1430, "velocity": 39}, {"time": 131041, "pitch": 59, "duration": 1460, "velocity": 50}, {"time": 131041, "pitch": 62, "duration": 1500, "velocity": 45}, {"time": 132959, "pitch": 42, "duration": 1490, "velocity": 57}, {"time": 132959, "pitch": 54, "duration": 1450, "velocity": 43}, {"time": 132959, "pitch": 57, "duration": 1520, "velocity": 50}, {"time": 132959, "pitch": 62, "duration": 1579, "velocity": 39}, {"time": 134877, "pitch": 40, "duration": 1420, "velocity": 65}, {"time": 134877, "pitch": 52, "duration": 1400, "velocity": 71}, {"time": 134877, "pitch": 55, "duration": 1420, "velocity": 75}, {"time": 134877, "pitch": 60, "duration": 1340, "velocity": 83}, {"time": 134877, "pitch": 64, "duration": 1410, "velocity": 81}, {"time": 134877, "pitch": 67, "duration": 3563, "velocity": 81}, {"time": 136801, "pitch": 38, "duration": 1629, "velocity": 55}, {"time": 136801, "pitch": 50, "duration": 1649, "velocity": 67}, {"time": 136801, "pitch": 55, "duration": 1679, "velocity": 83}, {"time": 136801, "pitch": 59, "duration": 1659, "velocity": 79}, {"time": 136801, "pitch": 62, "duration": 1659, "velocity": 73}, {"time": 138719, "pitch": 45, "duration": 3233, "velocity": 69}, {"time": 138719, "pitch": 55, "duration": 448, "velocity": 77}, {"time": 138719, "pitch": 59, "duration": 428, "velocity": 77}, {"time": 138719, "pitch": 62, "duration": 438, "velocity": 73}, {"time": 138719, "pitch": 67, "duration": 438, "velocity": 67}, {"time": 139681, "pitch": 57, "duration": 557, "velocity": 81}, {"time": 139681, "pitch": 61, "duration": 567, "velocity": 89}, {"time": 139681, "pitch": 64, "duration": 547, "velocity": 83}, {"time": 139681, "pitch": 69, "duration": 557, "velocity": 77}, {"time": 140636, "pitch": 59, "duration": 303, "velocity": 73}, {"time": 140636, "pitch": 62, "duration": 313, "velocity": 73}, {"time": 140636, "pitch": 67, "duration": 324, "velocity": 77}, {"time": 140636, "pitch": 71, "duration": 293, "velocity": 63}, {"time": 141599, "pitch": 61, "duration": 404, "velocity": 79}, {"time": 141599, "pitch": 64, "duration": 394, "velocity": 73}, {"time": 141599, "pitch": 69, "duration": 384, "velocity": 69}, {"time": 141599, "pitch": 73, "duration": 384, "velocity": 83}, {"time": 142561, "pitch": 50, "duration": 710, "velocity": 85}, {"time": 142561, "pitch": 57, "duration": 660, "velocity": 73}, {"time": 142561, "pitch": 62, "duration": 1918, "velocity": 75}, {"time": 142561, "pitch": 66, "duration": 720, "velocity": 81}, {"time": 143281, "pitch": 43, "duration": 1208, "velocity": 73}, {"time": 143281, "pitch": 59, "duration": 1098, "velocity": 79}, {"time": 143281, "pitch": 67, "duration": 1178, "velocity": 75}, {"time": 144479, "pitch": 52, "duration": 713, "velocity": 81}, {"time": 144479, "pitch": 59, "duration": 654, "velocity": 79}, {"time": 144479, "pitch": 64, "duration": 1824, "velocity": 67}, {"time": 144479, "pitch": 67, "duration": 654, "velocity": 53}, {"time": 145202, "pitch": 45, "duration": 1201, "velocity": 79}, {"time": 145202, "pitch": 57, "duration": 1840, "velocity": 69}, {"time": 145202, "pitch": 61, "duration": 1080, "velocity": 73}, {"time": 145202, "pitch": 69, "duration": 7177, "velocity": 67}, {"time": 146403, "pitch": 42, "duration": 680, "velocity": 81}, {"time": 146403, "pitch": 62, "duration": 650, "velocity": 81}, {"time": 146403, "pitch": 66, "duration": 629, "velocity": 75}, {"time": 147124, "pitch": 43, "duration": 1164, "velocity": 73}, {"time": 147124, "pitch": 59, "duration": 1064, "velocity": 77}, {"time": 147124, "pitch": 62, "duration": 1102, "velocity": 81}, {"time": 147124, "pitch": 67, "duration": 1113, "velocity": 77}, {"time": 148307, "pitch": 45, "duration": 1662, "velocity": 69}, {"time": 148307, "pitch": 57, "duration": 1642, "velocity": 79}, {"time": 148307, "pitch": 62, "duration": 889, "velocity": 79}, {"time": 148307, "pitch": 64, "duration": 1632, "velocity": 81}, {"time": 149276, "pitch": 61, "duration": 631, "velocity": 83}, {"time": 150246, "pitch": 42, "duration": 386, "velocity": 87}, {"time": 150246, "pitch": 57, "duration": 435, "velocity": 73}, {"time": 150246, "pitch": 62, "duration": 424, "velocity": 73}, {"time": 150246, "pitch": 66, "duration": 406, "velocity": 71}, {"time": 150951, "pitch": 43, "duration": 871, "velocity": 77}, {"time": 150951, "pitch": 59, "duration": 738, "velocity": 67}, {"time": 150951, "pitch": 62, "duration": 738, "velocity": 79}, {"time": 150951, "pitch": 67, "duration": 779, "velocity": 71}, {"time": 152170, "pitch": 45, "duration": 218, "velocity": 71}, {"time": 152170, "pitch": 57, "duration": 209, "velocity": 79}, {"time": 152170, "pitch": 61, "duration": 200, "velocity": 85}, {"time": 152170, "pitch": 64, "duration": 200, "velocity": 75}, {"time": 152866, "pitch": 46, "duration": 882, "velocity": 89}, {"time": 152866, "pitch": 58, "duration": 683, "velocity": 63}, {"time": 152866, "pitch": 61, "duration": 683, "velocity": 73}, {"time": 152866, "pitch": 64, "duration": 663, "velocity": 71}, {"time": 152866, "pitch": 70, "duration": 713, "velocity": 75}, {"time": 154067, "pitch": 47, "duration": 458, "velocity": 73}, {"time": 154067, "pitch": 59, "duration": 384, "velocity": 69}, {"time": 154067, "pitch": 62, "duration": 395, "velocity": 83}, {"time": 154067, "pitch": 66, "duration": 384, "velocity": 87}, {"time": 154067, "pitch": 71, "duration": 1474, "velocity": 79}, {"time": 154804, "pitch": 43, "duration": 858, "velocity": 73}, {"time": 154804, "pitch": 59, "duration": 707, "velocity": 75}, {"time": 154804, "pitch": 62, "duration": 737, "velocity": 85}, {"time": 154804, "pitch": 67, "duration": 737, "velocity": 77}, {"time": 156005, "pitch": 45, "duration": 1656, "velocity": 75}, {"time": 156005, "pitch": 57, "duration": 1615, "velocity": 67}, {"time": 156005, "pitch": 62, "duration": 677, "velocity": 77}, {"time": 156005, "pitch": 64, "duration": 1585, "velocity": 83}, {"time": 156005, "pitch": 69, "duration": 11826, "velocity": 79}, {"time": 156961, "pitch": 61, "duration": 578, "velocity": 89}, {"time": 157923, "pitch": 50, "duration": 458, "velocity": 85}, {"time": 157923, "pitch": 57, "duration": 448, "velocity": 79}, {"time": 157923, "pitch": 62, "duration": 438, "velocity": 85}, {"time": 157923, "pitch": 66, "duration": 438, "velocity": 85}, {"time": 158640, "pitch": 43, "duration": 962, "velocity": 79}, {"time": 158640, "pitch": 59, "duration": 952, "velocity": 77}, {"time": 158640, "pitch": 62, "duration": 942, "velocity": 83}, {"time": 158640, "pitch": 67, "duration": 942, "velocity": 71}, {"time": 159841, "pitch": 52, "duration": 487, "velocity": 73}, {"time": 159841, "pitch": 59, "duration": 378, "velocity": 71}, {"time": 159841, "pitch": 64, "duration": 368, "velocity": 67}, {"time": 159841, "pitch": 67, "duration": 388, "velocity": 65}, {"time": 160561, "pitch": 45, "duration": 919, "velocity": 71}, {"time": 160561, "pitch": 57, "duration": 929, "velocity": 73}, {"time": 160561, "pitch": 61, "duration": 899, "velocity": 83}, {"time": 160561, "pitch": 64, "duration": 899, "velocity": 73}, {"time": 161758, "pitch": 42, "duration": 465, "velocity": 85}, {"time": 161758, "pitch": 57, "duration": 485, "velocity": 73}, {"time": 161758, "pitch": 62, "duration": 485, "velocity": 77}, {"time": 161758, "pitch": 66, "duration": 475, "velocity": 73}, {"time": 162482, "pitch": 43, "duration": 908, "velocity": 73}, {"time": 162482, "pitch": 59, "duration": 878, "velocity": 62}, {"time": 162482, "pitch": 62, "duration": 928, "velocity": 77}, {"time": 162482, "pitch": 67, "duration": 928, "velocity": 67}, {"time": 163683, "pitch": 45, "duration": 1629, "velocity": 63}, {"time": 163683, "pitch": 57, "duration": 1659, "velocity": 77}, {"time": 163683, "pitch": 62, "duration": 647, "velocity": 77}, {"time": 163683, "pitch": 64, "duration": 1619, "velocity": 75}, {"time": 164638, "pitch": 61, "duration": 644, "velocity": 83}, {"time": 165601, "pitch": 42, "duration": 467, "velocity": 96}, {"time": 165601, "pitch": 57, "duration": 487, "velocity": 77}, {"time": 165601, "pitch": 62, "duration": 487, "velocity": 77}, {"time": 165601, "pitch": 66, "duration": 487, "velocity": 77}, {"time": 166321, "pitch": 43, "duration": 919, "velocity": 79}, {"time": 166321, "pitch": 59, "duration": 759, "velocity": 69}, {"time": 166321, "pitch": 62, "duration": 789, "velocity": 77}, {"time": 166321, "pitch": 67, "duration": 859, "velocity": 71}, {"time": 167518, "pitch": 45, "duration": 364, "velocity": 73}, {"time": 167518, "pitch": 57, "duration": 303, "velocity": 75}, {"time": 167518, "pitch": 61, "duration": 303, "velocity": 79}, {"time": 167518, "pitch": 64, "duration": 313, "velocity": 73}, {"time": 168242, "pitch": 46, "duration": 868, "velocity": 83}, {"time": 168242, "pitch": 58, "duration": 527, "velocity": 67}, {"time": 168242, "pitch": 61, "duration": 527, "velocity": 65}, {"time": 168242, "pitch": 64, "duration": 487, "velocity": 65}, {"time": 168242, "pitch": 70, "duration": 537, "velocity": 69}, {"time": 169443, "pitch": 47, "duration": 428, "velocity": 59}, {"time": 169443, "pitch": 59, "duration": 468, "velocity": 62}, {"time": 169443, "pitch": 62, "duration": 468, "velocity": 79}, {"time": 169443, "pitch": 66, "duration": 428, "velocity": 81}, {"time": 169443, "pitch": 71, "duration": 1288, "velocity": 73}, {"time": 170159, "pitch": 43, "duration": 943, "velocity": 69}, {"time": 170159, "pitch": 59, "duration": 502, "velocity": 65}, {"time": 170159, "pitch": 62, "duration": 582, "velocity": 77}, {"time": 170159, "pitch": 67, "duration": 572, "velocity": 62}, {"time": 171360, "pitch": 45, "duration": 1629, "velocity": 71}, {"time": 171360, "pitch": 57, "duration": 1600, "velocity": 59}, {"time": 171360, "pitch": 62, "duration": 710, "velocity": 73}, {"time": 171360, "pitch": 64, "duration": 1570, "velocity": 79}, {"time": 171360, "pitch": 69, "duration": 11809, "velocity": 67}, {"time": 172323, "pitch": 61, "duration": 577, "velocity": 87}, {"time": 173278, "pitch": 50, "duration": 465, "velocity": 79}, {"time": 173278, "pitch": 57, "duration": 485, "velocity": 79}, {"time": 173278, "pitch": 62, "duration": 475, "velocity": 79}, {"time": 173278, "pitch": 66, "duration": 495, "velocity": 81}, {"time": 174002, "pitch": 43, "duration": 888, "velocity": 73}, {"time": 174002, "pitch": 59, "duration": 817, "velocity": 60}, {"time": 174002, "pitch": 62, "duration": 908, "velocity": 75}, {"time": 174002, "pitch": 67, "duration": 948, "velocity": 62}, {"time": 175203, "pitch": 52, "duration": 457, "velocity": 79}, {"time": 175203, "pitch": 59, "duration": 438, "velocity": 71}, {"time": 175203, "pitch": 64, "duration": 447, "velocity": 71}, {"time": 175203, "pitch": 67, "duration": 457, "velocity": 69}, {"time": 175919, "pitch": 45, "duration": 953, "velocity": 65}, {"time": 175919, "pitch": 57, "duration": 953, "velocity": 73}, {"time": 175919, "pitch": 61, "duration": 933, "velocity": 81}, {"time": 175919, "pitch": 64, "duration": 933, "velocity": 73}, {"time": 177120, "pitch": 42, "duration": 438, "velocity": 83}, {"time": 177120, "pitch": 57, "duration": 498, "velocity": 69}, {"time": 177120, "pitch": 62, "duration": 488, "velocity": 73}, {"time": 177120, "pitch": 66, "duration": 498, "velocity": 73}, {"time": 177840, "pitch": 43, "duration": 872, "velocity": 73}, {"time": 177840, "pitch": 59, "duration": 791, "velocity": 67}, {"time": 177840, "pitch": 62, "duration": 811, "velocity": 75}, {"time": 177840, "pitch": 67, "duration": 842, "velocity": 67}, {"time": 179045, "pitch": 45, "duration": 1615, "velocity": 69}, {"time": 179045, "pitch": 57, "duration": 1655, "velocity": 73}, {"time": 179045, "pitch": 62, "duration": 690, "velocity": 77}, {"time": 179045, "pitch": 64, "duration": 1625, "velocity": 69}, {"time": 179993, "pitch": 61, "duration": 627, "velocity": 83}, {"time": 180949, "pitch": 42, "duration": 531, "velocity": 87}, {"time": 180949, "pitch": 57, "duration": 581, "velocity": 65}, {"time": 180949, "pitch": 62, "duration": 561, "velocity": 77}, {"time": 180949, "pitch": 66, "duration": 581, "velocity": 79}, {"time": 181679, "pitch": 43, "duration": 923, "velocity": 73}, {"time": 181679, "pitch": 59, "duration": 813, "velocity": 60}, {"time": 181679, "pitch": 62, "duration": 793, "velocity": 65}, {"time": 181679, "pitch": 67, "duration": 873, "velocity": 63}, {"time": 182880, "pitch": 45, "duration": 319, "velocity": 73}, {"time": 182880, "pitch": 57, "duration": 269, "velocity": 81}, {"time": 182880, "pitch": 61, "duration": 279, "velocity": 85}, {"time": 182880, "pitch": 64, "duration": 279, "velocity": 75}, {"time": 183600, "pitch": 46, "duration": 1178, "velocity": 89}, {"time": 183600, "pitch": 58, "duration": 760, "velocity": 75}, {"time": 183600, "pitch": 61, "duration": 760, "velocity": 73}, {"time": 183600, "pitch": 64, "duration": 740, "velocity": 67}, {"time": 183600, "pitch": 70, "duration": 770, "velocity": 71}, {"time": 184798, "pitch": 47, "duration": 414, "velocity": 63}, {"time": 184798, "pitch": 59, "duration": 384, "velocity": 75}, {"time": 184798, "pitch": 62, "duration": 363, "velocity": 79}, {"time": 184798, "pitch": 66, "duration": 333, "velocity": 81}, {"time": 184798, "pitch": 71, "duration": 1410, "velocity": 73}, {"time": 185521, "pitch": 43, "duration": 929, "velocity": 79}, {"time": 185521, "pitch": 59, "duration": 637, "velocity": 67}, {"time": 185521, "pitch": 62, "duration": 707, "velocity": 73}, {"time": 185521, "pitch": 67, "duration": 697, "velocity": 67}, {"time": 186722, "pitch": 45, "duration": 1410, "velocity": 73}, {"time": 186722, "pitch": 57, "duration": 1430, "velocity": 69}, {"time": 186722, "pitch": 62, "duration": 677, "velocity": 73}, {"time": 186722, "pitch": 64, "duration": 1410, "velocity": 75}, {"time": 186722, "pitch": 69, "duration": 1500, "velocity": 65}, {"time": 187678, "pitch": 61, "duration": 434, "velocity": 79}, {"time": 188640, "pitch": 47, "duration": 700, "velocity": 48}, {"time": 188640, "pitch": 59, "duration": 1768, "velocity": 42}, {"time": 188640, "pitch": 62, "duration": 2462, "velocity": 41}, {"time": 188640, "pitch": 66, "duration": 710, "velocity": 57}, {"time": 189360, "pitch": 43, "duration": 1188, "velocity": 50}, {"time": 189360, "pitch": 67, "duration": 1168, "velocity": 62}, {"time": 190558, "pitch": 50, "duration": 733, "velocity": 44}, {"time": 190558, "pitch": 57, "duration": 1914, "velocity": 39}, {"time": 190558, "pitch": 66, "duration": 733, "velocity": 55}, {"time": 191281, "pitch": 45, "duration": 1171, "velocity": 45}, {"time": 191281, "pitch": 61, "duration": 1181, "velocity": 51}, {"time": 191281, "pitch": 64, "duration": 1181, "velocity": 47}, {"time": 192482, "pitch": 47, "duration": 697, "velocity": 48}, {"time": 192482, "pitch": 59, "duration": 1769, "velocity": 42}, {"time": 192482, "pitch": 62, "duration": 2456, "velocity": 41}, {"time": 192482, "pitch": 66, "duration": 707, "velocity": 57}, {"time": 193199, "pitch": 43, "duration": 1191, "velocity": 50}, {"time": 193199, "pitch": 67, "duration": 1171, "velocity": 62}, {"time": 194400, "pitch": 50, "duration": 730, "velocity": 44}, {"time": 194400, "pitch": 57, "duration": 1907, "velocity": 39}, {"time": 194400, "pitch": 66, "duration": 730, "velocity": 55}, {"time": 195120, "pitch": 45, "duration": 1168, "velocity": 45}, {"time": 195120, "pitch": 61, "duration": 1178, "velocity": 51}, {"time": 195120, "pitch": 64, "duration": 1178, "velocity": 47}, {"time": 196317, "pitch": 47, "duration": 704, "velocity": 48}, {"time": 196317, "pitch": 59, "duration": 1774, "velocity": 42}, {"time": 196317, "pitch": 62, "duration": 2462, "velocity": 41}, {"time": 196317, "pitch": 66, "duration": 714, "velocity": 57}, {"time": 197041, "pitch": 43, "duration": 1191, "velocity": 50}, {"time": 197041, "pitch": 67, "duration": 1171, "velocity": 62}, {"time": 198242, "pitch": 50, "duration": 726, "velocity": 44}, {"time": 198242, "pitch": 57, "duration": 1908, "velocity": 39}, {"time": 198242, "pitch": 66, "duration": 726, "velocity": 55}, {"time": 198959, "pitch": 45, "duration": 1171, "velocity": 45}, {"time": 198959, "pitch": 61, "duration": 1181, "velocity": 51}, {"time": 198959, "pitch": 64, "duration": 1181, "velocity": 47}, {"time": 200160, "pitch": 47, "duration": 699, "velocity": 48}, {"time": 200160, "pitch": 59, "duration": 1768, "velocity": 42}, {"time": 200160, "pitch": 62, "duration": 2462, "velocity": 41}, {"time": 200160, "pitch": 66, "duration": 710, "velocity": 57}, {"time": 200880, "pitch": 43, "duration": 1187, "velocity": 50}, {"time": 200880, "pitch": 67, "duration": 1167, "velocity": 62}, {"time": 202077, "pitch": 50, "duration": 734, "velocity": 44}, {"time": 202077, "pitch": 57, "duration": 1915, "velocity": 39}, {"time": 202077, "pitch": 66, "duration": 734, "velocity": 55}, {"time": 202801, "pitch": 45, "duration": 1171, "velocity": 45}, {"time": 202801, "pitch": 61, "duration": 1181, "velocity": 51}, {"time": 202801, "pitch": 64, "duration": 1181, "velocity": 47}, {"time": 204002, "pitch": 47, "duration": 697, "velocity": 48}, {"time": 204002, "pitch": 59, "duration": 1768, "velocity": 42}, {"time": 204002, "pitch": 62, "duration": 2456, "velocity": 41}, {"time": 204002, "pitch": 66, "duration": 706, "velocity": 57}, {"time": 204718, "pitch": 43, "duration": 1192, "velocity": 50}, {"time": 204718, "pitch": 67, "duration": 1172, "velocity": 62}, {"time": 205920, "pitch": 50, "duration": 730, "velocity": 44}, {"time": 205920, "pitch": 57, "duration": 1907, "velocity": 39}, {"time": 205920, "pitch": 66, "duration": 730, "velocity": 55}, {"time": 206640, "pitch": 45, "duration": 1167, "velocity": 45}, {"time": 206640, "pitch": 61, "duration": 1177, "velocity": 51}, {"time": 206640, "pitch": 64, "duration": 1177, "velocity": 47}, {"time": 207837, "pitch": 47, "duration": 704, "velocity": 48}, {"time": 207837, "pitch": 59, "duration": 1773, "velocity": 42}, {"time": 207837, "pitch": 62, "duration": 2462, "velocity": 41}, {"time": 207837, "pitch": 66, "duration": 714, "velocity": 57}, {"time": 208561, "pitch": 43, "duration": 1191, "velocity": 50}, {"time": 208561, "pitch": 67, "duration": 1171, "velocity": 62}, {"time": 209762, "pitch": 50, "duration": 726, "velocity": 44}, {"time": 209762, "pitch": 57, "duration": 1907, "velocity": 39}, {"time": 209762, "pitch": 66, "duration": 726, "velocity": 55}, {"time": 210478, "pitch": 45, "duration": 1172, "velocity": 45}, {"time": 210478, "pitch": 61, "duration": 1182, "velocity": 51}, {"time": 210478, "pitch": 64, "duration": 1182, "velocity": 47}, {"time": 211679, "pitch": 47, "duration": 700, "velocity": 48}, {"time": 211679, "pitch": 59, "duration": 1769, "velocity": 42}, {"time": 211679, "pitch": 62, "duration": 2462, "velocity": 41}, {"time": 211679, "pitch": 66, "duration": 710, "velocity": 57}, {"time": 212399, "pitch": 43, "duration": 1188, "velocity": 50}, {"time": 212399, "pitch": 67, "duration": 1168, "velocity": 62}, {"time": 213597, "pitch": 50, "duration": 734, "velocity": 44}, {"time": 213597, "pitch": 57, "duration": 1915, "velocity": 39}, {"time": 213597, "pitch": 66, "duration": 734, "velocity": 55}, {"time": 214321, "pitch": 45, "duration": 1170, "velocity": 45}, {"time": 214321, "pitch": 61, "duration": 1181, "velocity": 51}, {"time": 214321, "pitch": 64, "duration": 1181, "velocity": 47}, {"time": 215522, "pitch": 47, "duration": 696, "velocity": 48}, {"time": 215522, "pitch": 59, "duration": 1768, "velocity": 42}, {"time": 215522, "pitch": 62, "duration": 2455, "velocity": 41}, {"time": 215522, "pitch": 66, "duration": 706, "velocity": 57}, {"time": 216238, "pitch": 43, "duration": 1191, "velocity": 50}, {"time": 216238, "pitch": 67, "duration": 1171, "velocity": 62}, {"time": 217439, "pitch": 50, "duration": 730, "velocity": 44}, {"time": 217439, "pitch": 57, "duration": 1908, "velocity": 39}, {"time": 217439, "pitch": 66, "duration": 730, "velocity": 55}, {"time": 218159, "pitch": 45, "duration": 1168, "velocity": 45}, {"time": 218159, "pitch": 61, "duration": 1178, "velocity": 51}, {"time": 218159, "pitch": 64, "duration": 1178, "velocity": 47}, {"time": 219357, "pitch": 47, "duration": 704, "velocity": 48}, {"time": 219357, "pitch": 59, "duration": 1773, "velocity": 42}, {"time": 219357, "pitch": 62, "duration": 2462, "velocity": 41}, {"time": 219357, "pitch": 66, "duration": 713, "velocity": 57}, {"time": 220080, "pitch": 43, "duration": 1191, "velocity": 50}, {"time": 220080, "pitch": 67, "duration": 1171, "velocity": 62}, {"time": 221282, "pitch": 50, "duration": 726, "velocity": 44}, {"time": 221282, "pitch": 57, "duration": 1907, "velocity": 39}, {"time": 221282, "pitch": 66, "duration": 726, "velocity": 55}, {"time": 221998, "pitch": 45, "duration": 1171, "velocity": 45}, {"time": 221998, "pitch": 61, "duration": 1181, "velocity": 51}, {"time": 221998, "pitch": 64, "duration": 1181, "velocity": 47}, {"time": 223199, "pitch": 47, "duration": 700, "velocity": 48}, {"time": 223199, "pitch": 59, "duration": 1768, "velocity": 42}, {"time": 223199, "pitch": 62, "duration": 2462, "velocity": 41}, {"time": 223199, "pitch": 66, "duration": 710, "velocity": 57}, {"time": 223919, "pitch": 43, "duration": 1188, "velocity": 50}, {"time": 223919, "pitch": 67, "duration": 1168, "velocity": 62}, {"time": 225117, "pitch": 50, "duration": 733, "velocity": 44}, {"time": 225117, "pitch": 57, "duration": 1900, "velocity": 39}, {"time": 225117, "pitch": 66, "duration": 733, "velocity": 55}, {"time": 225840, "pitch": 45, "duration": 1158, "velocity": 45}, {"time": 225840, "pitch": 61, "duration": 1168, "velocity": 51}, {"time": 225840, "pitch": 64, "duration": 1168, "velocity": 47}, {"time": 227027, "pitch": 47, "duration": 687, "velocity": 48}, {"time": 227027, "pitch": 59, "duration": 1736, "velocity": 42}, {"time": 227027, "pitch": 62, "duration": 2412, "velocity": 41}, {"time": 227027, "pitch": 66, "duration": 696, "velocity": 57}, {"time": 227733, "pitch": 43, "duration": 1167, "velocity": 50}, {"time": 227733, "pitch": 67, "duration": 1147, "velocity": 62}, {"time": 228910, "pitch": 50, "duration": 715, "velocity": 44}, {"time": 228910, "pitch": 57, "duration": 1872, "velocity": 39}, {"time": 228910, "pitch": 66, "duration": 715, "velocity": 55}, {"time": 229615, "pitch": 45, "duration": 1147, "velocity": 45}, {"time": 229615, "pitch": 61, "duration": 1157, "velocity": 51}, {"time": 229615, "pitch": 64, "duration": 1157, "velocity": 47}, {"time": 477, "pitch": 35, "duration": 668, "velocity": 110}, {"time": 1185, "pitch": 31, "duration": 1134, "velocity": 110}, {"time": 2379, "pitch": 38, "duration": 686, "velocity": 110}, {"time": 3106, "pitch": 33, "duration": 1150, "velocity": 110}, {"time": 4317, "pitch": 35, "duration": 684, "velocity": 110}, {"time": 5041, "pitch": 31, "duration": 1141, "velocity": 110}, {"time": 6242, "pitch": 33, "duration": 663, "velocity": 110}, {"time": 6945, "pitch": 33, "duration": 1135, "velocity": 110}, {"time": 8139, "pitch": 35, "duration": 700, "velocity": 110}, {"time": 8880, "pitch": 31, "duration": 1138, "velocity": 110}, {"time": 10077, "pitch": 38, "duration": 684, "velocity": 110}, {"time": 10801, "pitch": 33, "duration": 1128, "velocity": 110}, {"time": 11988, "pitch": 31, "duration": 691, "velocity": 110}, {"time": 12718, "pitch": 31, "duration": 1202, "velocity": 110}, {"time": 13920, "pitch": 43, "duration": 1918, "velocity": 100}, {"time": 15857, "pitch": 35, "duration": 664, "velocity": 110}, {"time": 16561, "pitch": 31, "duration": 1140, "velocity": 110}, {"time": 17762, "pitch": 38, "duration": 676, "velocity": 110}, {"time": 18478, "pitch": 33, "duration": 1142, "velocity": 110}, {"time": 19679, "pitch": 35, "duration": 680, "velocity": 110}, {"time": 20399, "pitch": 31, "duration": 1138, "velocity": 110}, {"time": 21597, "pitch": 33, "duration": 684, "velocity": 110}, {"time": 22321, "pitch": 33, "duration": 1140, "velocity": 110}, {"time": 23522, "pitch": 35, "duration": 676, "velocity": 110}, {"time": 24238, "pitch": 31, "duration": 1142, "velocity": 110}, {"time": 25439, "pitch": 38, "duration": 680, "velocity": 110}, {"time": 26159, "pitch": 33, "duration": 1138, "velocity": 110}, {"time": 27357, "pitch": 35, "duration": 684, "velocity": 110}, {"time": 28080, "pitch": 31, "duration": 1141, "velocity": 110}, {"time": 29282, "pitch": 33, "duration": 676, "velocity": 110}, {"time": 29998, "pitch": 33, "duration": 1141, "velocity": 110}, {"time": 31199, "pitch": 31, "duration": 680, "velocity": 110}, {"time": 31919, "pitch": 31, "duration": 1198, "velocity": 110}, {"time": 33117, "pitch": 43, "duration": 1904, "velocity": 100}, {"time": 35041, "pitch": 35, "duration": 677, "velocity": 110}, {"time": 35758, "pitch": 31, "duration": 1141, "velocity": 110}, {"time": 36959, "pitch": 38, "duration": 680, "velocity": 110}, {"time": 37679, "pitch": 33, "duration": 1138, "velocity": 110}, {"time": 38877, "pitch": 35, "duration": 683, "velocity": 110}, {"time": 39600, "pitch": 31, "duration": 1141, "velocity": 110}, {"time": 40801, "pitch": 33, "duration": 677, "velocity": 110}, {"time": 41518, "pitch": 33, "duration": 1141, "velocity": 110}, {"time": 42719, "pitch": 35, "duration": 679, "velocity": 110}, {"time": 43439, "pitch": 31, "duration": 1144, "velocity": 110}, {"time": 44644, "pitch": 38, "duration": 676, "velocity": 110}, {"time": 45360, "pitch": 33, "duration": 1141, "velocity": 110}, {"time": 46561, "pitch": 35, "duration": 680, "velocity": 110}, {"time": 47281, "pitch": 31, "duration": 1138, "velocity": 110}, {"time": 48479, "pitch": 33, "duration": 683, "velocity": 110}, {"time": 49202, "pitch": 33, "duration": 1141, "velocity": 110}, {"time": 50403, "pitch": 31, "duration": 677, "velocity": 110}, {"time": 51120, "pitch": 31, "duration": 942, "velocity": 110}, {"time": 52082, "pitch": 38, "duration": 239, "velocity": 105}, {"time": 52321, "pitch": 43, "duration": 720, "velocity": 110}, {"time": 53041, "pitch": 31, "duration": 461, "velocity": 110}, {"time": 53522, "pitch": 38, "duration": 239, "velocity": 105}, {"time": 53761, "pitch": 43, "duration": 458, "velocity": 110}, {"time": 54239, "pitch": 42, "duration": 942, "velocity": 110}, {"time": 55201, "pitch": 40, "duration": 942, "velocity": 110}, {"time": 56163, "pitch": 38, "duration": 677, "velocity": 110}, {"time": 56880, "pitch": 38, "duration": 962, "velocity": 110}, {"time": 57842, "pitch": 40, "duration": 119, "velocity": 110}, {"time": 57961, "pitch": 42, "duration": 120, "velocity": 105}, {"time": 58081, "pitch": 43, "duration": 679, "velocity": 110}, {"time": 58801, "pitch": 31, "duration": 1098, "velocity": 110}, {"time": 59998, "pitch": 33, "duration": 223, "velocity": 110}, {"time": 60241, "pitch": 33, "duration": 222, "velocity": 95}, {"time": 60483, "pitch": 33, "duration": 219, "velocity": 100}, {"time": 60722, "pitch": 33, "duration": 219, "velocity": 105}, {"time": 60961, "pitch": 33, "duration": 219, "velocity": 110}, {"time": 61200, "pitch": 33, "duration": 218, "velocity": 105}, {"time": 61438, "pitch": 33, "duration": 223, "velocity": 110}, {"time": 61681, "pitch": 33, "duration": 222, "velocity": 115}, {"time": 61923, "pitch": 38, "duration": 677, "velocity": 110}, {"time": 62640, "pitch": 31, "duration": 461, "velocity": 110}, {"time": 63121, "pitch": 31, "duration": 222, "velocity": 105}, {"time": 63363, "pitch": 31, "duration": 458, "velocity": 110}, {"time": 63841, "pitch": 28, "duration": 679, "velocity": 110}, {"time": 64561, "pitch": 33, "duration": 461, "velocity": 110}, {"time": 65042, "pitch": 33, "duration": 219, "velocity": 105}, {"time": 65281, "pitch": 33, "duration": 457, "velocity": 110}, {"time": 65758, "pitch": 30, "duration": 684, "velocity": 110}, {"time": 66482, "pitch": 31, "duration": 477, "velocity": 110}, {"time": 66959, "pitch": 30, "duration": 239, "velocity": 105}, {"time": 67198, "pitch": 31, "duration": 465, "velocity": 110}, {"time": 67683, "pitch": 33, "duration": 478, "velocity": 110}, {"time": 68161, "pitch": 28, "duration": 219, "velocity": 105}, {"time": 68399, "pitch": 33, "duration": 482, "velocity": 110}, {"time": 68881, "pitch": 28, "duration": 222, "velocity": 105}, {"time": 69123, "pitch": 33, "duration": 478, "velocity": 110}, {"time": 69601, "pitch": 30, "duration": 679, "velocity": 110}, {"time": 70321, "pitch": 31, "duration": 481, "velocity": 110}, {"time": 70802, "pitch": 30, "duration": 239, "velocity": 105}, {"time": 71041, "pitch": 31, "duration": 477, "velocity": 110}, {"time": 71518, "pitch": 33, "duration": 684, "velocity": 110}, {"time": 72242, "pitch": 34, "duration": 477, "velocity": 110}, {"time": 72719, "pitch": 34, "duration": 239, "velocity": 105}, {"time": 72958, "pitch": 34, "duration": 485, "velocity": 110}, {"time": 73443, "pitch": 35, "duration": 676, "velocity": 110}, {"time": 74159, "pitch": 31, "duration": 481, "velocity": 110}, {"time": 74640, "pitch": 30, "duration": 223, "velocity": 105}, {"time": 74883, "pitch": 31, "duration": 477, "velocity": 110}, {"time": 75360, "pitch": 33, "duration": 458, "velocity": 110}, {"time": 75838, "pitch": 40, "duration": 222, "velocity": 105}, {"time": 76080, "pitch": 45, "duration": 462, "velocity": 110}, {"time": 76562, "pitch": 40, "duration": 218, "velocity": 105}, {"time": 76800, "pitch": 45, "duration": 458, "velocity": 110}, {"time": 77278, "pitch": 35, "duration": 684, "velocity": 110}, {"time": 78002, "pitch": 31, "duration": 1140, "velocity": 110}, {"time": 79203, "pitch": 38, "duration": 676, "velocity": 110}, {"time": 79919, "pitch": 33, "duration": 1142, "velocity": 110}, {"time": 81120, "pitch": 35, "duration": 680, "velocity": 110}, {"time": 81840, "pitch": 31, "duration": 1138, "velocity": 110}, {"time": 83038, "pitch": 33, "duration": 684, "velocity": 110}, {"time": 83761, "pitch": 33, "duration": 1141, "velocity": 110}, {"time": 84963, "pitch": 35, "duration": 676, "velocity": 110}, {"time": 85679, "pitch": 31, "duration": 1141, "velocity": 110}, {"time": 86880, "pitch": 38, "duration": 680, "velocity": 110}, {"time": 87600, "pitch": 33, "duration": 1138, "velocity": 110}, {"time": 88798, "pitch": 35, "duration": 683, "velocity": 110}, {"time": 89521, "pitch": 31, "duration": 1141, "velocity": 110}, {"time": 90722, "pitch": 33, "duration": 677, "velocity": 110}, {"time": 91439, "pitch": 33, "duration": 1141, "velocity": 110}, {"time": 92640, "pitch": 35, "duration": 680, "velocity": 110}, {"time": 93360, "pitch": 31, "duration": 1138, "velocity": 110}, {"time": 94558, "pitch": 38, "duration": 683, "velocity": 110}, {"time": 95281, "pitch": 33, "duration": 1141, "velocity": 110}, {"time": 96482, "pitch": 35, "duration": 677, "velocity": 110}, {"time": 97199, "pitch": 31, "duration": 1141, "velocity": 110}, {"time": 98400, "pitch": 33, "duration": 679, "velocity": 110}, {"time": 99120, "pitch": 33, "duration": 1138, "velocity": 110}, {"time": 100317, "pitch": 31, "duration": 684, "velocity": 110}, {"time": 101041, "pitch": 31, "duration": 939, "velocity": 110}, {"time": 102000, "pitch": 38, "duration": 242, "velocity": 105}, {"time": 102242, "pitch": 43, "duration": 717, "velocity": 110}, {"time": 102959, "pitch": 31, "duration": 461, "velocity": 110}, {"time": 103440, "pitch": 38, "duration": 242, "velocity": 105}, {"time": 103682, "pitch": 43, "duration": 458, "velocity": 110}, {"time": 104160, "pitch": 42, "duration": 598, "velocity": 110}, {"time": 104880, "pitch": 42, "duration": 202, "velocity": 105}, {"time": 105122, "pitch": 40, "duration": 597, "velocity": 110}, {"time": 105838, "pitch": 40, "duration": 199, "velocity": 105}, {"time": 106077, "pitch": 38, "duration": 684, "velocity": 110}, {"time": 106801, "pitch": 38, "duration": 477, "velocity": 110}, {"time": 107278, "pitch": 33, "duration": 219, "velocity": 105}, {"time": 107517, "pitch": 38, "duration": 465, "velocity": 110}, {"time": 108002, "pitch": 31, "duration": 677, "velocity": 110}, {"time": 108718, "pitch": 31, "duration": 684, "velocity": 110}, {"time": 109442, "pitch": 31, "duration": 219, "velocity": 110}, {"time": 109681, "pitch": 31, "duration": 219, "velocity": 105}, {"time": 109920, "pitch": 33, "duration": 218, "velocity": 110}, {"time": 110158, "pitch": 33, "duration": 219, "velocity": 95}, {"time": 110397, "pitch": 33, "duration": 222, "velocity": 100}, {"time": 110640, "pitch": 33, "duration": 222, "velocity": 105}, {"time": 110882, "pitch": 33, "duration": 219, "velocity": 110}, {"time": 111121, "pitch": 33, "duration": 219, "velocity": 105}, {"time": 111360, "pitch": 33, "duration": 218, "velocity": 110}, {"time": 111598, "pitch": 33, "duration": 219, "velocity": 115}, {"time": 111837, "pitch": 38, "duration": 684, "velocity": 110}, {"time": 112561, "pitch": 31, "duration": 457, "velocity": 110}, {"time": 113038, "pitch": 31, "duration": 219, "velocity": 105}, {"time": 113277, "pitch": 31, "duration": 465, "velocity": 110}, {"time": 113762, "pitch": 28, "duration": 676, "velocity": 110}, {"time": 114478, "pitch": 33, "duration": 461, "velocity": 110}, {"time": 114959, "pitch": 28, "duration": 223, "velocity": 105}, {"time": 115202, "pitch": 33, "duration": 219, "velocity": 110}, {"time": 115441, "pitch": 31, "duration": 219, "velocity": 105}, {"time": 115679, "pitch": 30, "duration": 680, "velocity": 110}, {"time": 116399, "pitch": 31, "duration": 482, "velocity": 110}, {"time": 116881, "pitch": 30, "duration": 238, "velocity": 105}, {"time": 117119, "pitch": 31, "duration": 458, "velocity": 110}, {"time": 117597, "pitch": 33, "duration": 485, "velocity": 110}, {"time": 118082, "pitch": 40, "duration": 219, "velocity": 105}, {"time": 118321, "pitch": 45, "duration": 477, "velocity": 110}, {"time": 118798, "pitch": 40, "duration": 219, "velocity": 105}, {"time": 119037, "pitch": 45, "duration": 485, "velocity": 110}, {"time": 119522, "pitch": 30, "duration": 676, "velocity": 110}, {"time": 120238, "pitch": 31, "duration": 481, "velocity": 110}, {"time": 120719, "pitch": 30, "duration": 243, "velocity": 105}, {"time": 120962, "pitch": 31, "duration": 477, "velocity": 110}, {"time": 121439, "pitch": 33, "duration": 680, "velocity": 110}, {"time": 122159, "pitch": 34, "duration": 481, "velocity": 110}, {"time": 122640, "pitch": 29, "duration": 239, "velocity": 105}, {"time": 122879, "pitch": 34, "duration": 478, "velocity": 110}, {"time": 123357, "pitch": 35, "duration": 684, "velocity": 110}, {"time": 124080, "pitch": 31, "duration": 478, "velocity": 110}, {"time": 124558, "pitch": 30, "duration": 219, "velocity": 105}, {"time": 124797, "pitch": 31, "duration": 485, "velocity": 110}, {"time": 125282, "pitch": 33, "duration": 218, "velocity": 110}, {"time": 125520, "pitch": 33, "duration": 219, "velocity": 105}, {"time": 125759, "pitch": 40, "duration": 219, "velocity": 105}, {"time": 125998, "pitch": 45, "duration": 461, "velocity": 110}, {"time": 126479, "pitch": 40, "duration": 222, "velocity": 105}, {"time": 126722, "pitch": 45, "duration": 457, "velocity": 110}, {"time": 127199, "pitch": 43, "duration": 1898, "velocity": 100}, {"time": 129117, "pitch": 42, "duration": 1904, "velocity": 100}, {"time": 131041, "pitch": 43, "duration": 1898, "velocity": 100}, {"time": 132959, "pitch": 42, "duration": 1898, "velocity": 100}, {"time": 134877, "pitch": 40, "duration": 1420, "velocity": 110}, {"time": 136317, "pitch": 35, "duration": 242, "velocity": 110}, {"time": 136559, "pitch": 40, "duration": 242, "velocity": 110}, {"time": 136801, "pitch": 38, "duration": 1178, "velocity": 110}, {"time": 137999, "pitch": 33, "duration": 242, "velocity": 105}, {"time": 138241, "pitch": 38, "duration": 458, "velocity": 110}, {"time": 138719, "pitch": 33, "duration": 219, "velocity": 110}, {"time": 138958, "pitch": 33, "duration": 219, "velocity": 105}, {"time": 139196, "pitch": 33, "duration": 223, "velocity": 110}, {"time": 139439, "pitch": 40, "duration": 222, "velocity": 105}, {"time": 139681, "pitch": 45, "duration": 936, "velocity": 110}, {"time": 140636, "pitch": 33, "duration": 223, "velocity": 110}, {"time": 140879, "pitch": 33, "duration": 222, "velocity": 105}, {"time": 141121, "pitch": 33, "duration": 219, "velocity": 110}, {"time": 141360, "pitch": 40, "duration": 219, "velocity": 105}, {"time": 141599, "pitch": 45, "duration": 222, "velocity": 110}, {"time": 141841, "pitch": 45, "duration": 222, "velocity": 105}, {"time": 142084, "pitch": 45, "duration": 218, "velocity": 110}, {"time": 142322, "pitch": 45, "duration": 219, "velocity": 105}, {"time": 142561, "pitch": 38, "duration": 680, "velocity": 110}, {"time": 143281, "pitch": 31, "duration": 461, "velocity": 110}, {"time": 143762, "pitch": 31, "duration": 219, "velocity": 105}, {"time": 144001, "pitch": 31, "duration": 458, "velocity": 110}, {"time": 144479, "pitch": 28, "duration": 683, "velocity": 110}, {"time": 145202, "pitch": 33, "duration": 458, "velocity": 110}, {"time": 145680, "pitch": 28, "duration": 219, "velocity": 105}, {"time": 145919, "pitch": 33, "duration": 222, "velocity": 110}, {"time": 146162, "pitch": 31, "duration": 221, "velocity": 105}, {"time": 146403, "pitch": 30, "duration": 680, "velocity": 110}, {"time": 147124, "pitch": 31, "duration": 473, "velocity": 110}, {"time": 147597, "pitch": 30, "duration": 232, "velocity": 105}, {"time": 147829, "pitch": 31, "duration": 459, "velocity": 110}, {"time": 148307, "pitch": 33, "duration": 222, "velocity": 110}, {"time": 148549, "pitch": 40, "duration": 223, "velocity": 105}, {"time": 148792, "pitch": 47, "duration": 222, "velocity": 110}, {"time": 149034, "pitch": 45, "duration": 482, "velocity": 110}, {"time": 149516, "pitch": 40, "duration": 218, "velocity": 105}, {"time": 149754, "pitch": 45, "duration": 492, "velocity": 110}, {"time": 150246, "pitch": 30, "duration": 665, "velocity": 110}, {"time": 150951, "pitch": 31, "duration": 486, "velocity": 110}, {"time": 151437, "pitch": 30, "duration": 242, "velocity": 105}, {"time": 151679, "pitch": 31, "duration": 491, "velocity": 110}, {"time": 152170, "pitch": 33, "duration": 656, "velocity": 110}, {"time": 152866, "pitch": 34, "duration": 481, "velocity": 110}, {"time": 153347, "pitch": 29, "duration": 242, "velocity": 105}, {"time": 153589, "pitch": 34, "duration": 478, "velocity": 110}, {"time": 154067, "pitch": 35, "duration": 697, "velocity": 110}, {"time": 154804, "pitch": 31, "duration": 478, "velocity": 110}, {"time": 155282, "pitch": 30, "duration": 219, "velocity": 105}, {"time": 155521, "pitch": 31, "duration": 484, "velocity": 110}, {"time": 156005, "pitch": 33, "duration": 220, "velocity": 110}, {"time": 156244, "pitch": 33, "duration": 219, "velocity": 105}, {"time": 156483, "pitch": 40, "duration": 219, "velocity": 105}, {"time": 156722, "pitch": 45, "duration": 458, "velocity": 110}, {"time": 157200, "pitch": 40, "duration": 218, "velocity": 105}, {"time": 157438, "pitch": 45, "duration": 465, "velocity": 110}, {"time": 157923, "pitch": 38, "duration": 677, "velocity": 110}, {"time": 158640, "pitch": 31, "duration": 461, "velocity": 110}, {"time": 159121, "pitch": 31, "duration": 222, "velocity": 105}, {"time": 159363, "pitch": 31, "duration": 458, "velocity": 110}, {"time": 159841, "pitch": 28, "duration": 679, "velocity": 110}, {"time": 160561, "pitch": 33, "duration": 461, "velocity": 110}, {"time": 161042, "pitch": 28, "duration": 219, "velocity": 105}, {"time": 161281, "pitch": 33, "duration": 219, "velocity": 110}, {"time": 161519, "pitch": 31, "duration": 219, "velocity": 105}, {"time": 161758, "pitch": 30, "duration": 684, "velocity": 110}, {"time": 162482, "pitch": 31, "duration": 477, "velocity": 110}, {"time": 162959, "pitch": 30, "duration": 239, "velocity": 105}, {"time": 163198, "pitch": 31, "duration": 465, "velocity": 110}, {"time": 163683, "pitch": 33, "duration": 458, "velocity": 110}, {"time": 164161, "pitch": 40, "duration": 219, "velocity": 105}, {"time": 164399, "pitch": 45, "duration": 461, "velocity": 110}, {"time": 164881, "pitch": 40, "duration": 222, "velocity": 105}, {"time": 165123, "pitch": 45, "duration": 478, "velocity": 110}, {"time": 165601, "pitch": 30, "duration": 679, "velocity": 110}, {"time": 166321, "pitch": 31, "duration": 481, "velocity": 110}, {"time": 166802, "pitch": 30, "duration": 239, "velocity": 105}, {"time": 167041, "pitch": 31, "duration": 477, "velocity": 110}, {"time": 167518, "pitch": 33, "duration": 684, "velocity": 110}, {"time": 168242, "pitch": 34, "duration": 477, "velocity": 110}, {"time": 168719, "pitch": 29, "duration": 239, "velocity": 105}, {"time": 168958, "pitch": 34, "duration": 485, "velocity": 110}, {"time": 169443, "pitch": 35, "duration": 676, "velocity": 110}, {"time": 170159, "pitch": 31, "duration": 481, "velocity": 110}, {"time": 170640, "pitch": 30, "duration": 223, "velocity": 105}, {"time": 170883, "pitch": 31, "duration": 477, "velocity": 110}, {"time": 171360, "pitch": 33, "duration": 219, "velocity": 110}, {"time": 171599, "pitch": 40, "duration": 219, "velocity": 105}, {"time": 171838, "pitch": 45, "duration": 121, "velocity": 110}, {"time": 171959, "pitch": 40, "duration": 121, "velocity": 105}, {"time": 172080, "pitch": 45, "duration": 122, "velocity": 110}, {"time": 172202, "pitch": 47, "duration": 121, "velocity": 110}, {"time": 172323, "pitch": 45, "duration": 119, "velocity": 110}, {"time": 172442, "pitch": 40, "duration": 120, "velocity": 105}, {"time": 172562, "pitch": 33, "duration": 338, "velocity": 110}, {"time": 172920, "pitch": 33, "duration": 99, "velocity": 105}, {"time": 173039, "pitch": 33, "duration": 100, "velocity": 110}, {"time": 173159, "pitch": 33, "duration": 99, "velocity": 105}, {"time": 173278, "pitch": 38, "duration": 684, "velocity": 110}, {"time": 174002, "pitch": 31, "duration": 457, "velocity": 110}, {"time": 174479, "pitch": 31, "duration": 219, "velocity": 105}, {"time": 174718, "pitch": 31, "duration": 465, "velocity": 110}, {"time": 175203, "pitch": 28, "duration": 676, "velocity": 110}, {"time": 175919, "pitch": 33, "duration": 461, "velocity": 110}, {"time": 176400, "pitch": 28, "duration": 223, "velocity": 105}, {"time": 176643, "pitch": 33, "duration": 219, "velocity": 110}, {"time": 176881, "pitch": 31, "duration": 219, "velocity": 105}, {"time": 177120, "pitch": 30, "duration": 680, "velocity": 110}, {"time": 177840, "pitch": 31, "duration": 481, "velocity": 110}, {"time": 178321, "pitch": 30, "duration": 239, "velocity": 105}, {"time": 178560, "pitch": 31, "duration": 465, "velocity": 110}, {"time": 179045, "pitch": 33, "duration": 450, "velocity": 110}, {"time": 179516, "pitch": 40, "duration": 219, "velocity": 105}, {"time": 179754, "pitch": 45, "duration": 458, "velocity": 110}, {"time": 180232, "pitch": 40, "duration": 219, "velocity": 105}, {"time": 180471, "pitch": 33, "duration": 219, "velocity": 110}, {"time": 180710, "pitch": 31, "duration": 218, "velocity": 105}, {"time": 180949, "pitch": 30, "duration": 690, "velocity": 110}, {"time": 181679, "pitch": 31, "duration": 481, "velocity": 110}, {"time": 182160, "pitch": 30, "duration": 243, "velocity": 105}, {"time": 182403, "pitch": 31, "duration": 477, "velocity": 110}, {"time": 182880, "pitch": 33, "duration": 680, "velocity": 110}, {"time": 183600, "pitch": 34, "duration": 481, "velocity": 110}, {"time": 184081, "pitch": 31, "duration": 239, "velocity": 105}, {"time": 184320, "pitch": 37, "duration": 239, "velocity": 110}, {"time": 184559, "pitch": 36, "duration": 239, "velocity": 105}, {"time": 184798, "pitch": 35, "duration": 683, "velocity": 110}, {"time": 185521, "pitch": 31, "duration": 478, "velocity": 110}, {"time": 185999, "pitch": 30, "duration": 219, "velocity": 105}, {"time": 186238, "pitch": 31, "duration": 484, "velocity": 110}, {"time": 186722, "pitch": 33, "duration": 219, "velocity": 110}, {"time": 186961, "pitch": 33, "duration": 219, "velocity": 105}, {"time": 187200, "pitch": 33, "duration": 219, "velocity": 110}, {"time": 187439, "pitch": 40, "duration": 219, "velocity": 105}, {"time": 187678, "pitch": 45, "duration": 222, "velocity": 110}, {"time": 187920, "pitch": 40, "duration": 222, "velocity": 105}, {"time": 188162, "pitch": 45, "duration": 219, "velocity": 110}, {"time": 188401, "pitch": 40, "duration": 219, "velocity": 105}, {"time": 188640, "pitch": 35, "duration": 680, "velocity": 110}, {"time": 189360, "pitch": 31, "duration": 1138, "velocity": 110}, {"time": 190558, "pitch": 38, "duration": 683, "velocity": 110}, {"time": 191281, "pitch": 33, "duration": 1141, "velocity": 110}, {"time": 192482, "pitch": 35, "duration": 677, "velocity": 110}, {"time": 193199, "pitch": 31, "duration": 1141, "velocity": 110}, {"time": 194400, "pitch": 38, "duration": 679, "velocity": 110}, {"time": 195120, "pitch": 33, "duration": 1138, "velocity": 110}, {"time": 196317, "pitch": 35, "duration": 684, "velocity": 110}, {"time": 197041, "pitch": 31, "duration": 1141, "velocity": 110}, {"time": 198242, "pitch": 38, "duration": 677, "velocity": 110}, {"time": 198959, "pitch": 33, "duration": 1141, "velocity": 110}, {"time": 200160, "pitch": 35, "duration": 679, "velocity": 110}, {"time": 200880, "pitch": 31, "duration": 1138, "velocity": 110}, {"time": 202077, "pitch": 38, "duration": 684, "velocity": 110}, {"time": 202801, "pitch": 33, "duration": 1140, "velocity": 110}, {"time": 204002, "pitch": 35, "duration": 677, "velocity": 110}, {"time": 204718, "pitch": 31, "duration": 1142, "velocity": 110}, {"time": 205920, "pitch": 38, "duration": 679, "velocity": 110}, {"time": 206640, "pitch": 33, "duration": 1137, "velocity": 110}, {"time": 207837, "pitch": 35, "duration": 684, "velocity": 110}, {"time": 208561, "pitch": 31, "duration": 1140, "velocity": 110}, {"time": 209762, "pitch": 38, "duration": 676, "velocity": 110}, {"time": 210478, "pitch": 33, "duration": 1142, "velocity": 110}, {"time": 211679, "pitch": 35, "duration": 680, "velocity": 110}, {"time": 212399, "pitch": 31, "duration": 1138, "velocity": 110}, {"time": 213597, "pitch": 38, "duration": 684, "velocity": 110}, {"time": 214321, "pitch": 33, "duration": 1140, "velocity": 110}, {"time": 215522, "pitch": 35, "duration": 676, "velocity": 110}, {"time": 216238, "pitch": 31, "duration": 1142, "velocity": 110}, {"time": 217439, "pitch": 38, "duration": 680, "velocity": 110}, {"time": 218159, "pitch": 33, "duration": 1138, "velocity": 110}, {"time": 219357, "pitch": 35, "duration": 684, "velocity": 110}, {"time": 220080, "pitch": 31, "duration": 1141, "velocity": 110}, {"time": 221282, "pitch": 38, "duration": 676, "velocity": 110}, {"time": 221998, "pitch": 33, "duration": 1141, "velocity": 110}, {"time": 223199, "pitch": 35, "duration": 680, "velocity": 110}, {"time": 223919, "pitch": 31, "duration": 1138, "velocity": 110}, {"time": 225117, "pitch": 38, "duration": 683, "velocity": 110}, {"time": 225840, "pitch": 33, "duration": 1128, "velocity": 110}, {"time": 227027, "pitch": 35, "duration": 667, "velocity": 110}, {"time": 227733, "pitch": 31, "duration": 1118, "velocity": 110}, {"time": 228910, "pitch": 38, "duration": 666, "velocity": 110}, {"time": 229615, "pitch": 33, "duration": 1118, "velocity": 110}, {"time": 480, "pitch": 35, "duration": 317, "velocity": 111}, {"time": 480, "pitch": 47, "duration": 317, "velocity": 113}, {"time": 480, "pitch": 66, "duration": 346, "velocity": 125}, {"time": 487, "pitch": 59, "duration": 339, "velocity": 109}, {"time": 487, "pitch": 62, "duration": 339, "velocity": 119}, {"time": 1165, "pitch": 31, "duration": 418, "velocity": 113}, {"time": 1165, "pitch": 43, "duration": 437, "velocity": 107}, {"time": 1165, "pitch": 59, "duration": 488, "velocity": 107}, {"time": 1165, "pitch": 62, "duration": 527, "velocity": 117}, {"time": 1165, "pitch": 67, "duration": 527, "velocity": 115}, {"time": 2359, "pitch": 38, "duration": 353, "velocity": 99}, {"time": 2359, "pitch": 57, "duration": 343, "velocity": 101}, {"time": 2359, "pitch": 62, "duration": 343, "velocity": 99}, {"time": 2359, "pitch": 66, "duration": 332, "velocity": 107}, {"time": 2369, "pitch": 50, "duration": 404, "velocity": 97}, {"time": 3086, "pitch": 45, "duration": 791, "velocity": 113}, {"time": 3086, "pitch": 57, "duration": 770, "velocity": 95}, {"time": 3086, "pitch": 61, "duration": 780, "velocity": 115}, {"time": 3086, "pitch": 64, "duration": 760, "velocity": 113}, {"time": 4317, "pitch": 35, "duration": 324, "velocity": 111}, {"time": 4317, "pitch": 47, "duration": 314, "velocity": 101}, {"time": 4317, "pitch": 59, "duration": 354, "velocity": 105}, {"time": 4317, "pitch": 62, "duration": 354, "velocity": 109}, {"time": 4317, "pitch": 66, "duration": 374, "velocity": 119}, {"time": 5011, "pitch": 31, "duration": 817, "velocity": 105}, {"time": 5011, "pitch": 43, "duration": 837, "velocity": 101}, {"time": 5011, "pitch": 59, "duration": 746, "velocity": 107}, {"time": 5011, "pitch": 62, "duration": 847, "velocity": 115}, {"time": 5011, "pitch": 67, "duration": 797, "velocity": 115}, {"time": 6212, "pitch": 33, "duration": 1613, "velocity": 105}, {"time": 6212, "pitch": 45, "duration": 673, "velocity": 99}, {"time": 6212, "pitch": 57, "duration": 663, "velocity": 107}, {"time": 6212, "pitch": 62, "duration": 633, "velocity": 111}, {"time": 6212, "pitch": 64, "duration": 653, "velocity": 103}, {"time": 6212, "pitch": 69, "duration": 653, "velocity": 90}, {"time": 6222, "pitch": 67, "duration": 10, "velocity": 82}, {"time": 7163, "pitch": 45, "duration": 662, "velocity": 107}, {"time": 7163, "pitch": 57, "duration": 263, "velocity": 92}, {"time": 7163, "pitch": 61, "duration": 232, "velocity": 103}, {"time": 7163, "pitch": 64, "duration": 212, "velocity": 92}, {"time": 7658, "pitch": 57, "duration": 40, "velocity": 101}, {"time": 7658, "pitch": 61, "duration": 40, "velocity": 115}, {"time": 7658, "pitch": 69, "duration": 59, "velocity": 109}, {"time": 8129, "pitch": 35, "duration": 394, "velocity": 97}, {"time": 8129, "pitch": 47, "duration": 373, "velocity": 99}, {"time": 8129, "pitch": 59, "duration": 436, "velocity": 95}, {"time": 8129, "pitch": 62, "duration": 425, "velocity": 107}, {"time": 8129, "pitch": 66, "duration": 415, "velocity": 115}, {"time": 8859, "pitch": 31, "duration": 741, "velocity": 101}, {"time": 8859, "pitch": 43, "duration": 761, "velocity": 101}, {"time": 8859, "pitch": 59, "duration": 810, "velocity": 103}, {"time": 8859, "pitch": 62, "duration": 830, "velocity": 113}, {"time": 8859, "pitch": 67, "duration": 820, "velocity": 111}, {"time": 10067, "pitch": 38, "duration": 404, "velocity": 103}, {"time": 10067, "pitch": 50, "duration": 414, "velocity": 99}, {"time": 10067, "pitch": 66, "duration": 374, "velocity": 113}, {"time": 10077, "pitch": 57, "duration": 384, "velocity": 99}, {"time": 10077, "pitch": 62, "duration": 374, "velocity": 105}, {"time": 10771, "pitch": 45, "duration": 1178, "velocity": 99}, {"time": 10771, "pitch": 57, "duration": 338, "velocity": 97}, {"time": 10771, "pitch": 61, "duration": 328, "velocity": 115}, {"time": 10771, "pitch": 64, "duration": 289, "velocity": 105}, {"time": 11497, "pitch": 69, "duration": 60, "velocity": 105}, {"time": 11507, "pitch": 61, "duration": 30, "velocity": 111}, {"time": 11959, "pitch": 59, "duration": 213, "velocity": 89}, {"time": 11959, "pitch": 62, "duration": 234, "velocity": 97}, {"time": 11959, "pitch": 67, "duration": 244, "velocity": 99}, {"time": 11969, "pitch": 43, "duration": 2030, "velocity": 92}, {"time": 12699, "pitch": 67, "duration": 159, "velocity": 77}, {"time": 12927, "pitch": 69, "duration": 192, "velocity": 67}, {"time": 13179, "pitch": 74, "duration": 41, "velocity": 74}, {"time": 13412, "pitch": 79, "duration": 219, "velocity": 64}, {"time": 13671, "pitch": 81, "duration": 219, "velocity": 52}, {"time": 13910, "pitch": 86, "duration": 89, "velocity": 80}, {"time": 14387, "pitch": 81, "duration": 81, "velocity": 71}, {"time": 14852, "pitch": 79, "duration": 70, "velocity": 67}, {"time": 15340, "pitch": 74, "duration": 71, "velocity": 44}, {"time": 15838, "pitch": 71, "duration": 435, "velocity": 59}, {"time": 15838, "pitch": 74, "duration": 446, "velocity": 56}, {"time": 15838, "pitch": 78, "duration": 435, "velocity": 65}, {"time": 15848, "pitch": 59, "duration": 474, "velocity": 44}, {"time": 16501, "pitch": 71, "duration": 716, "velocity": 43}, {"time": 16521, "pitch": 74, "duration": 756, "velocity": 56}, {"time": 16531, "pitch": 55, "duration": 746, "velocity": 51}, {"time": 16581, "pitch": 79, "duration": 676, "velocity": 78}, {"time": 17681, "pitch": 62, "duration": 409, "velocity": 53}, {"time": 17681, "pitch": 74, "duration": 280, "velocity": 60}, {"time": 17701, "pitch": 69, "duration": 270, "velocity": 47}, {"time": 17742, "pitch": 78, "duration": 209, "velocity": 87}, {"time": 18429, "pitch": 69, "duration": 389, "velocity": 62}, {"time": 18438, "pitch": 57, "duration": 973, "velocity": 62}, {"time": 18438, "pitch": 73, "duration": 390, "velocity": 71}, {"time": 18438, "pitch": 76, "duration": 360, "velocity": 57}, {"time": 19202, "pitch": 73, "duration": 60, "velocity": 73}, {"time": 19669, "pitch": 66, "duration": 339, "velocity": 64}, {"time": 19669, "pitch": 69, "duration": 349, "velocity": 64}, {"time": 19669, "pitch": 74, "duration": 339, "velocity": 54}, {"time": 19679, "pitch": 59, "duration": 388, "velocity": 64}, {"time": 20399, "pitch": 55, "duration": 890, "velocity": 69}, {"time": 20399, "pitch": 67, "duration": 750, "velocity": 52}, {"time": 20399, "pitch": 69, "duration": 780, "velocity": 64}, {"time": 20399, "pitch": 71, "duration": 770, "velocity": 60}, {"time": 20399, "pitch": 74, "duration": 780, "velocity": 55}, {"time": 21587, "pitch": 64, "duration": 242, "velocity": 53}, {"time": 21587, "pitch": 69, "duration": 293, "velocity": 47}, {"time": 21597, "pitch": 57, "duration": 734, "velocity": 50}, {"time": 21597, "pitch": 74, "duration": 283, "velocity": 54}, {"time": 21607, "pitch": 76, "duration": 283, "velocity": 42}, {"time": 22589, "pitch": 57, "duration": 640, "velocity": 52}, {"time": 22589, "pitch": 73, "duration": 140, "velocity": 77}, {"time": 22599, "pitch": 69, "duration": 229, "velocity": 45}, {"time": 23027, "pitch": 81, "duration": 91, "velocity": 86}, {"time": 23047, "pitch": 73, "duration": 10, "velocity": 56}, {"time": 23512, "pitch": 71, "duration": 368, "velocity": 69}, {"time": 23512, "pitch": 74, "duration": 388, "velocity": 76}, {"time": 23512, "pitch": 78, "duration": 378, "velocity": 70}, {"time": 23532, "pitch": 59, "duration": 437, "velocity": 48}, {"time": 24218, "pitch": 55, "duration": 754, "velocity": 56}, {"time": 24218, "pitch": 71, "duration": 734, "velocity": 52}, {"time": 24218, "pitch": 74, "duration": 783, "velocity": 51}, {"time": 24218, "pitch": 79, "duration": 754, "velocity": 61}, {"time": 25419, "pitch": 62, "duration": 388, "velocity": 46}, {"time": 25419, "pitch": 69, "duration": 259, "velocity": 44}, {"time": 25419, "pitch": 74, "duration": 229, "velocity": 55}, {"time": 25419, "pitch": 78, "duration": 229, "velocity": 68}, {"time": 26089, "pitch": 71, "duration": 60, "velocity": 56}, {"time": 26099, "pitch": 69, "duration": 452, "velocity": 58}, {"time": 26109, "pitch": 57, "duration": 1208, "velocity": 51}, {"time": 26129, "pitch": 73, "duration": 432, "velocity": 85}, {"time": 26129, "pitch": 76, "duration": 452, "velocity": 49}, {"time": 26889, "pitch": 69, "duration": 90, "velocity": 71}, {"time": 27337, "pitch": 66, "duration": 333, "velocity": 58}, {"time": 27337, "pitch": 69, "duration": 353, "velocity": 62}, {"time": 27337, "pitch": 74, "duration": 343, "velocity": 46}, {"time": 27347, "pitch": 59, "duration": 414, "velocity": 46}, {"time": 28061, "pitch": 67, "duration": 867, "velocity": 57}, {"time": 28070, "pitch": 55, "duration": 949, "velocity": 61}, {"time": 28070, "pitch": 71, "duration": 888, "velocity": 65}, {"time": 28070, "pitch": 74, "duration": 878, "velocity": 54}, {"time": 29261, "pitch": 57, "duration": 677, "velocity": 64}, {"time": 29261, "pitch": 74, "duration": 359, "velocity": 66}, {"time": 29271, "pitch": 69, "duration": 508, "velocity": 67}, {"time": 29271, "pitch": 76, "duration": 379, "velocity": 50}, {"time": 29759, "pitch": 64, "duration": 139, "velocity": 60}, {"time": 30227, "pitch": 57, "duration": 932, "velocity": 53}, {"time": 30227, "pitch": 64, "duration": 212, "velocity": 57}, {"time": 30227, "pitch": 73, "duration": 212, "velocity": 71}, {"time": 30731, "pitch": 76, "duration": 70, "velocity": 66}, {"time": 30741, "pitch": 69, "duration": 50, "velocity": 60}, {"time": 31179, "pitch": 55, "duration": 3469, "velocity": 67}, {"time": 31179, "pitch": 69, "duration": 239, "velocity": 67}, {"time": 31179, "pitch": 74, "duration": 249, "velocity": 62}, {"time": 31189, "pitch": 67, "duration": 219, "velocity": 66}, {"time": 31919, "pitch": 67, "duration": 1951, "velocity": 52}, {"time": 32162, "pitch": 74, "duration": 238, "velocity": 64}, {"time": 32400, "pitch": 79, "duration": 239, "velocity": 87}, {"time": 32639, "pitch": 81, "duration": 219, "velocity": 75}, {"time": 32858, "pitch": 86, "duration": 229, "velocity": 82}, {"time": 33097, "pitch": 81, "duration": 90, "velocity": 71}, {"time": 33460, "pitch": 79, "duration": 51, "velocity": 68}, {"time": 33830, "pitch": 74, "duration": 50, "velocity": 66}, {"time": 34069, "pitch": 69, "duration": 90, "velocity": 53}, {"time": 34537, "pitch": 67, "duration": 111, "velocity": 52}, {"time": 35021, "pitch": 59, "duration": 478, "velocity": 53}, {"time": 35031, "pitch": 69, "duration": 309, "velocity": 52}, {"time": 35031, "pitch": 74, "duration": 319, "velocity": 54}, {"time": 35031, "pitch": 78, "duration": 339, "velocity": 63}, {"time": 35758, "pitch": 74, "duration": 733, "velocity": 54}, {"time": 35768, "pitch": 55, "duration": 703, "velocity": 49}, {"time": 35768, "pitch": 71, "duration": 693, "velocity": 48}, {"time": 35768, "pitch": 79, "duration": 703, "velocity": 46}, {"time": 36929, "pitch": 69, "duration": 239, "velocity": 47}, {"time": 36929, "pitch": 78, "duration": 219, "velocity": 65}, {"time": 36939, "pitch": 62, "duration": 398, "velocity": 44}, {"time": 36939, "pitch": 74, "duration": 219, "velocity": 50}, {"time": 37608, "pitch": 71, "duration": 51, "velocity": 41}, {"time": 37628, "pitch": 69, "duration": 463, "velocity": 56}, {"time": 37639, "pitch": 57, "duration": 1208, "velocity": 43}, {"time": 37649, "pitch": 73, "duration": 471, "velocity": 89}, {"time": 37659, "pitch": 76, "duration": 441, "velocity": 54}, {"time": 38389, "pitch": 69, "duration": 90, "velocity": 71}, {"time": 38857, "pitch": 59, "duration": 464, "velocity": 56}, {"time": 38857, "pitch": 66, "duration": 343, "velocity": 60}, {"time": 38857, "pitch": 69, "duration": 373, "velocity": 53}, {"time": 38857, "pitch": 74, "duration": 373, "velocity": 54}, {"time": 39580, "pitch": 69, "duration": 50, "velocity": 52}, {"time": 39590, "pitch": 55, "duration": 928, "velocity": 64}, {"time": 39590, "pitch": 67, "duration": 888, "velocity": 63}, {"time": 39590, "pitch": 71, "duration": 797, "velocity": 72}, {"time": 39600, "pitch": 74, "duration": 777, "velocity": 54}, {"time": 40791, "pitch": 57, "duration": 727, "velocity": 54}, {"time": 40791, "pitch": 69, "duration": 249, "velocity": 59}, {"time": 40791, "pitch": 76, "duration": 199, "velocity": 49}, {"time": 40801, "pitch": 74, "duration": 219, "velocity": 69}, {"time": 41040, "pitch": 64, "duration": 239, "velocity": 60}, {"time": 41279, "pitch": 69, "duration": 239, "velocity": 87}, {"time": 41518, "pitch": 74, "duration": 269, "velocity": 76}, {"time": 41767, "pitch": 73, "duration": 222, "velocity": 85}, {"time": 41777, "pitch": 57, "duration": 673, "velocity": 52}, {"time": 42009, "pitch": 69, "duration": 192, "velocity": 82}, {"time": 42251, "pitch": 73, "duration": 70, "velocity": 46}, {"time": 42251, "pitch": 81, "duration": 140, "velocity": 74}, {"time": 42699, "pitch": 74, "duration": 308, "velocity": 66}, {"time": 42709, "pitch": 71, "duration": 308, "velocity": 57}, {"time": 42709, "pitch": 78, "duration": 298, "velocity": 69}, {"time": 42719, "pitch": 59, "duration": 488, "velocity": 53}, {"time": 43368, "pitch": 71, "duration": 821, "velocity": 47}, {"time": 43398, "pitch": 55, "duration": 821, "velocity": 64}, {"time": 43398, "pitch": 74, "duration": 842, "velocity": 62}, {"time": 43449, "pitch": 79, "duration": 791, "velocity": 64}, {"time": 44553, "pitch": 69, "duration": 329, "velocity": 55}, {"time": 44573, "pitch": 62, "duration": 488, "velocity": 58}, {"time": 44583, "pitch": 74, "duration": 270, "velocity": 64}, {"time": 44644, "pitch": 78, "duration": 199, "velocity": 67}, {"time": 45290, "pitch": 71, "duration": 60, "velocity": 61}, {"time": 45310, "pitch": 57, "duration": 783, "velocity": 55}, {"time": 45310, "pitch": 69, "duration": 491, "velocity": 48}, {"time": 45340, "pitch": 73, "duration": 451, "velocity": 86}, {"time": 45340, "pitch": 76, "duration": 461, "velocity": 56}, {"time": 46073, "pitch": 69, "duration": 120, "velocity": 70}, {"time": 46312, "pitch": 57, "duration": 209, "velocity": 54}, {"time": 46531, "pitch": 59, "duration": 418, "velocity": 52}, {"time": 46531, "pitch": 66, "duration": 319, "velocity": 49}, {"time": 46531, "pitch": 69, "duration": 339, "velocity": 52}, {"time": 46541, "pitch": 74, "duration": 319, "velocity": 39}, {"time": 47251, "pitch": 62, "duration": 661, "velocity": 52}, {"time": 47261, "pitch": 67, "duration": 680, "velocity": 65}, {"time": 47261, "pitch": 69, "duration": 680, "velocity": 52}, {"time": 47271, "pitch": 55, "duration": 899, "velocity": 64}, {"time": 47271, "pitch": 71, "duration": 660, "velocity": 64}, {"time": 47271, "pitch": 74, "duration": 670, "velocity": 64}, {"time": 48439, "pitch": 69, "duration": 282, "velocity": 61}, {"time": 48439, "pitch": 74, "duration": 232, "velocity": 57}, {"time": 48439, "pitch": 76, "duration": 201, "velocity": 57}, {"time": 48449, "pitch": 57, "duration": 704, "velocity": 49}, {"time": 48691, "pitch": 64, "duration": 222, "velocity": 66}, {"time": 48933, "pitch": 69, "duration": 229, "velocity": 90}, {"time": 49162, "pitch": 74, "duration": 269, "velocity": 78}, {"time": 49421, "pitch": 57, "duration": 548, "velocity": 51}, {"time": 49431, "pitch": 69, "duration": 269, "velocity": 47}, {"time": 49431, "pitch": 73, "duration": 159, "velocity": 97}, {"time": 49899, "pitch": 81, "duration": 161, "velocity": 71}, {"time": 49909, "pitch": 73, "duration": 20, "velocity": 42}, {"time": 50181, "pitch": 57, "duration": 192, "velocity": 40}, {"time": 50373, "pitch": 74, "duration": 458, "velocity": 62}, {"time": 50383, "pitch": 55, "duration": 3597, "velocity": 66}, {"time": 50383, "pitch": 71, "duration": 448, "velocity": 66}, {"time": 50383, "pitch": 79, "duration": 458, "velocity": 60}, {"time": 51712, "pitch": 74, "duration": 131, "velocity": 43}, {"time": 51722, "pitch": 79, "duration": 111, "velocity": 55}, {"time": 51732, "pitch": 67, "duration": 221, "velocity": 40}, {"time": 51803, "pitch": 83, "duration": 80, "velocity": 83}, {"time": 52271, "pitch": 85, "duration": 349, "velocity": 73}, {"time": 52281, "pitch": 67, "duration": 1032, "velocity": 57}, {"time": 52281, "pitch": 76, "duration": 378, "velocity": 55}, {"time": 52281, "pitch": 81, "duration": 388, "velocity": 54}, {"time": 53031, "pitch": 76, "duration": 141, "velocity": 62}, {"time": 53263, "pitch": 81, "duration": 120, "velocity": 82}, {"time": 53482, "pitch": 67, "duration": 239, "velocity": 62}, {"time": 53741, "pitch": 76, "duration": 70, "velocity": 76}, {"time": 53950, "pitch": 67, "duration": 40, "velocity": 66}, {"time": 54209, "pitch": 54, "duration": 654, "velocity": 77}, {"time": 54209, "pitch": 74, "duration": 262, "velocity": 66}, {"time": 54219, "pitch": 66, "duration": 454, "velocity": 70}, {"time": 54219, "pitch": 78, "duration": 262, "velocity": 76}, {"time": 54219, "pitch": 81, "duration": 333, "velocity": 71}, {"time": 55161, "pitch": 52, "duration": 669, "velocity": 59}, {"time": 55171, "pitch": 69, "duration": 159, "velocity": 71}, {"time": 55171, "pitch": 76, "duration": 219, "velocity": 71}, {"time": 55181, "pitch": 64, "duration": 649, "velocity": 45}, {"time": 55181, "pitch": 73, "duration": 239, "velocity": 75}, {"time": 55430, "pitch": 69, "duration": 209, "velocity": 80}, {"time": 55669, "pitch": 73, "duration": 212, "velocity": 97}, {"time": 55891, "pitch": 76, "duration": 232, "velocity": 75}, {"time": 56113, "pitch": 74, "duration": 239, "velocity": 66}, {"time": 56123, "pitch": 50, "duration": 1359, "velocity": 53}, {"time": 56123, "pitch": 62, "duration": 697, "velocity": 45}, {"time": 56123, "pitch": 71, "duration": 229, "velocity": 62}, {"time": 56133, "pitch": 79, "duration": 219, "velocity": 69}, {"time": 56631, "pitch": 67, "duration": 179, "velocity": 48}, {"time": 56840, "pitch": 69, "duration": 239, "velocity": 62}, {"time": 57331, "pitch": 62, "duration": 212, "velocity": 43}, {"time": 57573, "pitch": 74, "duration": 199, "velocity": 58}, {"time": 58041, "pitch": 31, "duration": 1679, "velocity": 82}, {"time": 58071, "pitch": 43, "duration": 1629, "velocity": 95}, {"time": 58091, "pitch": 59, "duration": 1609, "velocity": 86}, {"time": 58091, "pitch": 62, "duration": 1609, "velocity": 85}, {"time": 58091, "pitch": 67, "duration": 1639, "velocity": 93}, {"time": 60231, "pitch": 33, "duration": 101, "velocity": 39}, {"time": 60231, "pitch": 45, "duration": 81, "velocity": 46}, {"time": 60231, "pitch": 55, "duration": 111, "velocity": 35}, {"time": 60231, "pitch": 59, "duration": 101, "velocity": 40}, {"time": 60231, "pitch": 62, "duration": 91, "velocity": 44}, {"time": 60241, "pitch": 64, "duration": 91, "velocity": 39}, {"time": 60473, "pitch": 55, "duration": 110, "velocity": 51}, {"time": 60473, "pitch": 59, "duration": 110, "velocity": 53}, {"time": 60473, "pitch": 62, "duration": 110, "velocity": 55}, {"time": 60483, "pitch": 33, "duration": 100, "velocity": 51}, {"time": 60483, "pitch": 45, "duration": 90, "velocity": 61}, {"time": 60483, "pitch": 64, "duration": 100, "velocity": 57}, {"time": 60702, "pitch": 55, "duration": 149, "velocity": 77}, {"time": 60702, "pitch": 59, "duration": 139, "velocity": 80}, {"time": 60712, "pitch": 33, "duration": 129, "velocity": 64}, {"time": 60712, "pitch": 62, "duration": 149, "velocity": 77}, {"time": 60712, "pitch": 64, "duration": 139, "velocity": 78}, {"time": 60722, "pitch": 45, "duration": 109, "velocity": 74}, {"time": 60951, "pitch": 33, "duration": 139, "velocity": 85}, {"time": 60951, "pitch": 45, "duration": 119, "velocity": 87}, {"time": 60951, "pitch": 55, "duration": 169, "velocity": 89}, {"time": 60951, "pitch": 59, "duration": 159, "velocity": 89}, {"time": 60951, "pitch": 62, "duration": 169, "velocity": 82}, {"time": 60951, "pitch": 64, "duration": 159, "velocity": 85}, {"time": 61190, "pitch": 33, "duration": 149, "velocity": 97}, {"time": 61190, "pitch": 62, "duration": 169, "velocity": 90}, {"time": 61190, "pitch": 64, "duration": 149, "velocity": 95}, {"time": 61200, "pitch": 45, "duration": 159, "velocity": 97}, {"time": 61200, "pitch": 55, "duration": 159, "velocity": 99}, {"time": 61200, "pitch": 59, "duration": 159, "velocity": 97}, {"time": 61438, "pitch": 33, "duration": 132, "velocity": 101}, {"time": 61438, "pitch": 45, "duration": 111, "velocity": 93}, {"time": 61438, "pitch": 55, "duration": 142, "velocity": 115}, {"time": 61438, "pitch": 59, "duration": 142, "velocity": 111}, {"time": 61438, "pitch": 62, "duration": 142, "velocity": 103}, {"time": 61438, "pitch": 64, "duration": 132, "velocity": 105}, {"time": 61671, "pitch": 33, "duration": 91, "velocity": 101}, {"time": 61681, "pitch": 55, "duration": 141, "velocity": 89}, {"time": 61681, "pitch": 59, "duration": 91, "velocity": 86}, {"time": 61681, "pitch": 62, "duration": 121, "velocity": 83}, {"time": 61681, "pitch": 64, "duration": 121, "velocity": 90}, {"time": 61701, "pitch": 45, "duration": 111, "velocity": 73}, {"time": 61873, "pitch": 38, "duration": 697, "velocity": 64}, {"time": 61903, "pitch": 50, "duration": 667, "velocity": 95}, {"time": 61903, "pitch": 57, "duration": 140, "velocity": 103}, {"time": 61903, "pitch": 62, "duration": 159, "velocity": 97}, {"time": 61903, "pitch": 63, "duration": 30, "velocity": 81}, {"time": 61903, "pitch": 66, "duration": 130, "velocity": 117}, {"time": 62152, "pitch": 57, "duration": 129, "velocity": 82}, {"time": 62152, "pitch": 62, "duration": 139, "velocity": 85}, {"time": 62152, "pitch": 66, "duration": 109, "velocity": 92}, {"time": 62371, "pitch": 62, "duration": 149, "velocity": 53}, {"time": 62371, "pitch": 66, "duration": 169, "velocity": 89}, {"time": 62381, "pitch": 57, "duration": 129, "velocity": 76}, {"time": 62600, "pitch": 43, "duration": 1211, "velocity": 111}, {"time": 62600, "pitch": 59, "duration": 159, "velocity": 107}, {"time": 62600, "pitch": 62, "duration": 169, "velocity": 107}, {"time": 62600, "pitch": 67, "duration": 169, "velocity": 101}, {"time": 62849, "pitch": 62, "duration": 140, "velocity": 76}, {"time": 62849, "pitch": 67, "duration": 130, "velocity": 71}, {"time": 62858, "pitch": 59, "duration": 131, "velocity": 71}, {"time": 63090, "pitch": 59, "duration": 132, "velocity": 77}, {"time": 63090, "pitch": 62, "duration": 142, "velocity": 66}, {"time": 63090, "pitch": 67, "duration": 142, "velocity": 78}, {"time": 63333, "pitch": 67, "duration": 150, "velocity": 87}, {"time": 63343, "pitch": 59, "duration": 140, "velocity": 90}, {"time": 63343, "pitch": 62, "duration": 140, "velocity": 89}, {"time": 63582, "pitch": 62, "duration": 119, "velocity": 78}, {"time": 63582, "pitch": 67, "duration": 119, "velocity": 69}, {"time": 63592, "pitch": 59, "duration": 109, "velocity": 78}, {"time": 63821, "pitch": 59, "duration": 159, "velocity": 101}, {"time": 63821, "pitch": 62, "duration": 149, "velocity": 103}, {"time": 63821, "pitch": 64, "duration": 149, "velocity": 105}, {"time": 63821, "pitch": 67, "duration": 149, "velocity": 103}, {"time": 63831, "pitch": 40, "duration": 720, "velocity": 97}, {"time": 64080, "pitch": 59, "duration": 149, "velocity": 86}, {"time": 64080, "pitch": 62, "duration": 149, "velocity": 81}, {"time": 64080, "pitch": 64, "duration": 129, "velocity": 74}, {"time": 64080, "pitch": 67, "duration": 139, "velocity": 74}, {"time": 64328, "pitch": 59, "duration": 112, "velocity": 82}, {"time": 64328, "pitch": 62, "duration": 71, "velocity": 69}, {"time": 64328, "pitch": 64, "duration": 132, "velocity": 76}, {"time": 64328, "pitch": 67, "duration": 81, "velocity": 77}, {"time": 64541, "pitch": 33, "duration": 978, "velocity": 92}, {"time": 64551, "pitch": 57, "duration": 161, "velocity": 107}, {"time": 64551, "pitch": 61, "duration": 171, "velocity": 109}, {"time": 64551, "pitch": 64, "duration": 161, "velocity": 103}, {"time": 64551, "pitch": 69, "duration": 161, "velocity": 101}, {"time": 64561, "pitch": 45, "duration": 978, "velocity": 95}, {"time": 64803, "pitch": 57, "duration": 149, "velocity": 76}, {"time": 64803, "pitch": 61, "duration": 149, "velocity": 85}, {"time": 64803, "pitch": 69, "duration": 149, "velocity": 71}, {"time": 64813, "pitch": 64, "duration": 139, "velocity": 81}, {"time": 65042, "pitch": 61, "duration": 139, "velocity": 83}, {"time": 65042, "pitch": 64, "duration": 139, "velocity": 82}, {"time": 65052, "pitch": 57, "duration": 129, "velocity": 85}, {"time": 65052, "pitch": 69, "duration": 129, "velocity": 78}, {"time": 65291, "pitch": 57, "duration": 129, "velocity": 92}, {"time": 65291, "pitch": 61, "duration": 129, "velocity": 97}, {"time": 65291, "pitch": 64, "duration": 129, "velocity": 89}, {"time": 65291, "pitch": 69, "duration": 139, "velocity": 90}, {"time": 65510, "pitch": 61, "duration": 129, "velocity": 80}, {"time": 65519, "pitch": 57, "duration": 140, "velocity": 78}, {"time": 65519, "pitch": 64, "duration": 140, "velocity": 69}, {"time": 65519, "pitch": 69, "duration": 170, "velocity": 62}, {"time": 65669, "pitch": 30, "duration": 713, "velocity": 90}, {"time": 65709, "pitch": 42, "duration": 703, "velocity": 87}, {"time": 65748, "pitch": 57, "duration": 131, "velocity": 111}, {"time": 65748, "pitch": 62, "duration": 142, "velocity": 107}, {"time": 65748, "pitch": 66, "duration": 142, "velocity": 113}, {"time": 65748, "pitch": 69, "duration": 142, "velocity": 97}, {"time": 65991, "pitch": 57, "duration": 141, "velocity": 80}, {"time": 65991, "pitch": 62, "duration": 161, "velocity": 78}, {"time": 65991, "pitch": 66, "duration": 141, "velocity": 82}, {"time": 66001, "pitch": 69, "duration": 131, "velocity": 82}, {"time": 66233, "pitch": 57, "duration": 149, "velocity": 87}, {"time": 66233, "pitch": 62, "duration": 179, "velocity": 80}, {"time": 66233, "pitch": 66, "duration": 189, "velocity": 92}, {"time": 66233, "pitch": 69, "duration": 129, "velocity": 82}, {"time": 66422, "pitch": 31, "duration": 1099, "velocity": 97}, {"time": 66432, "pitch": 32, "duration": 10, "velocity": 69}, {"time": 66432, "pitch": 43, "duration": 1150, "velocity": 81}, {"time": 66462, "pitch": 59, "duration": 169, "velocity": 117}, {"time": 66462, "pitch": 62, "duration": 179, "velocity": 111}, {"time": 66462, "pitch": 67, "duration": 179, "velocity": 105}, {"time": 66711, "pitch": 62, "duration": 139, "velocity": 78}, {"time": 66711, "pitch": 67, "duration": 139, "velocity": 82}, {"time": 66721, "pitch": 59, "duration": 139, "velocity": 76}, {"time": 66949, "pitch": 59, "duration": 130, "velocity": 76}, {"time": 66949, "pitch": 62, "duration": 140, "velocity": 76}, {"time": 66949, "pitch": 67, "duration": 140, "velocity": 85}, {"time": 67188, "pitch": 59, "duration": 121, "velocity": 93}, {"time": 67188, "pitch": 62, "duration": 142, "velocity": 95}, {"time": 67188, "pitch": 67, "duration": 142, "velocity": 97}, {"time": 67431, "pitch": 59, "duration": 141, "velocity": 86}, {"time": 67431, "pitch": 62, "duration": 191, "velocity": 81}, {"time": 67431, "pitch": 67, "duration": 131, "velocity": 81}, {"time": 67572, "pitch": 40, "duration": 71, "velocity": 40}, {"time": 67602, "pitch": 33, "duration": 1800, "velocity": 97}, {"time": 67643, "pitch": 45, "duration": 1769, "velocity": 99}, {"time": 67663, "pitch": 62, "duration": 149, "velocity": 101}, {"time": 67663, "pitch": 69, "duration": 149, "velocity": 95}, {"time": 67673, "pitch": 57, "duration": 129, "velocity": 105}, {"time": 67673, "pitch": 64, "duration": 149, "velocity": 105}, {"time": 67912, "pitch": 57, "duration": 149, "velocity": 86}, {"time": 67912, "pitch": 62, "duration": 139, "velocity": 85}, {"time": 67912, "pitch": 64, "duration": 139, "velocity": 82}, {"time": 67912, "pitch": 69, "duration": 139, "velocity": 81}, {"time": 68151, "pitch": 57, "duration": 149, "velocity": 89}, {"time": 68151, "pitch": 64, "duration": 139, "velocity": 87}, {"time": 68161, "pitch": 62, "duration": 139, "velocity": 90}, {"time": 68161, "pitch": 69, "duration": 129, "velocity": 89}, {"time": 68389, "pitch": 57, "duration": 160, "velocity": 95}, {"time": 68389, "pitch": 62, "duration": 130, "velocity": 93}, {"time": 68389, "pitch": 64, "duration": 150, "velocity": 86}, {"time": 68389, "pitch": 69, "duration": 140, "velocity": 85}, {"time": 68628, "pitch": 61, "duration": 162, "velocity": 117}, {"time": 68638, "pitch": 57, "duration": 162, "velocity": 111}, {"time": 68638, "pitch": 64, "duration": 162, "velocity": 101}, {"time": 68638, "pitch": 69, "duration": 162, "velocity": 99}, {"time": 68881, "pitch": 57, "duration": 141, "velocity": 76}, {"time": 68881, "pitch": 61, "duration": 141, "velocity": 71}, {"time": 68881, "pitch": 69, "duration": 151, "velocity": 70}, {"time": 68891, "pitch": 64, "duration": 131, "velocity": 72}, {"time": 69133, "pitch": 57, "duration": 139, "velocity": 97}, {"time": 69133, "pitch": 61, "duration": 139, "velocity": 105}, {"time": 69133, "pitch": 64, "duration": 129, "velocity": 95}, {"time": 69133, "pitch": 69, "duration": 149, "velocity": 92}, {"time": 69352, "pitch": 61, "duration": 169, "velocity": 92}, {"time": 69352, "pitch": 69, "duration": 159, "velocity": 71}, {"time": 69362, "pitch": 57, "duration": 159, "velocity": 85}, {"time": 69362, "pitch": 64, "duration": 159, "velocity": 78}, {"time": 69511, "pitch": 30, "duration": 698, "velocity": 113}, {"time": 69551, "pitch": 42, "duration": 699, "velocity": 105}, {"time": 69581, "pitch": 57, "duration": 139, "velocity": 109}, {"time": 69581, "pitch": 62, "duration": 139, "velocity": 111}, {"time": 69581, "pitch": 66, "duration": 139, "velocity": 111}, {"time": 69581, "pitch": 69, "duration": 149, "velocity": 90}, {"time": 69819, "pitch": 57, "duration": 150, "velocity": 80}, {"time": 69819, "pitch": 62, "duration": 160, "velocity": 78}, {"time": 69819, "pitch": 66, "duration": 120, "velocity": 92}, {"time": 69819, "pitch": 69, "duration": 150, "velocity": 73}, {"time": 70058, "pitch": 57, "duration": 151, "velocity": 90}, {"time": 70058, "pitch": 62, "duration": 192, "velocity": 81}, {"time": 70058, "pitch": 66, "duration": 182, "velocity": 93}, {"time": 70058, "pitch": 69, "duration": 141, "velocity": 75}, {"time": 70270, "pitch": 31, "duration": 1069, "velocity": 95}, {"time": 70280, "pitch": 43, "duration": 1109, "velocity": 90}, {"time": 70290, "pitch": 59, "duration": 162, "velocity": 111}, {"time": 70290, "pitch": 62, "duration": 172, "velocity": 103}, {"time": 70290, "pitch": 67, "duration": 182, "velocity": 105}, {"time": 70553, "pitch": 67, "duration": 139, "velocity": 95}, {"time": 70563, "pitch": 59, "duration": 129, "velocity": 89}, {"time": 70563, "pitch": 62, "duration": 129, "velocity": 90}, {"time": 70782, "pitch": 59, "duration": 129, "velocity": 89}, {"time": 70782, "pitch": 62, "duration": 129, "velocity": 90}, {"time": 70782, "pitch": 67, "duration": 139, "velocity": 99}, {"time": 71011, "pitch": 67, "duration": 139, "velocity": 103}, {"time": 71021, "pitch": 59, "duration": 129, "velocity": 105}, {"time": 71021, "pitch": 62, "duration": 129, "velocity": 105}, {"time": 71249, "pitch": 62, "duration": 110, "velocity": 85}, {"time": 71249, "pitch": 67, "duration": 199, "velocity": 81}, {"time": 71259, "pitch": 59, "duration": 150, "velocity": 86}, {"time": 71409, "pitch": 40, "duration": 10, "velocity": 58}, {"time": 71419, "pitch": 33, "duration": 594, "velocity": 103}, {"time": 71468, "pitch": 45, "duration": 615, "velocity": 86}, {"time": 71488, "pitch": 61, "duration": 161, "velocity": 115}, {"time": 71488, "pitch": 64, "duration": 182, "velocity": 111}, {"time": 71498, "pitch": 57, "duration": 141, "velocity": 117}, {"time": 71750, "pitch": 61, "duration": 122, "velocity": 87}, {"time": 71750, "pitch": 64, "duration": 112, "velocity": 83}, {"time": 71761, "pitch": 57, "duration": 121, "velocity": 78}, {"time": 71983, "pitch": 57, "duration": 60, "velocity": 86}, {"time": 71983, "pitch": 61, "duration": 100, "velocity": 101}, {"time": 71983, "pitch": 64, "duration": 149, "velocity": 95}, {"time": 72222, "pitch": 34, "duration": 1059, "velocity": 101}, {"time": 72222, "pitch": 58, "duration": 159, "velocity": 117}, {"time": 72222, "pitch": 61, "duration": 169, "velocity": 109}, {"time": 72222, "pitch": 64, "duration": 159, "velocity": 107}, {"time": 72222, "pitch": 66, "duration": 179, "velocity": 103}, {"time": 72232, "pitch": 46, "duration": 1110, "velocity": 113}, {"time": 72471, "pitch": 58, "duration": 129, "velocity": 75}, {"time": 72471, "pitch": 61, "duration": 129, "velocity": 85}, {"time": 72471, "pitch": 66, "duration": 109, "velocity": 85}, {"time": 72481, "pitch": 64, "duration": 109, "velocity": 76}, {"time": 72709, "pitch": 58, "duration": 130, "velocity": 89}, {"time": 72719, "pitch": 61, "duration": 110, "velocity": 89}, {"time": 72719, "pitch": 64, "duration": 110, "velocity": 82}, {"time": 72719, "pitch": 66, "duration": 120, "velocity": 87}, {"time": 72958, "pitch": 58, "duration": 121, "velocity": 105}, {"time": 72958, "pitch": 61, "duration": 152, "velocity": 103}, {"time": 72958, "pitch": 64, "duration": 121, "velocity": 97}, {"time": 72958, "pitch": 66, "duration": 121, "velocity": 97}, {"time": 73200, "pitch": 58, "duration": 122, "velocity": 82}, {"time": 73200, "pitch": 61, "duration": 142, "velocity": 87}, {"time": 73200, "pitch": 64, "duration": 162, "velocity": 83}, {"time": 73211, "pitch": 66, "duration": 131, "velocity": 81}, {"time": 73362, "pitch": 35, "duration": 728, "velocity": 86}, {"time": 73392, "pitch": 47, "duration": 727, "velocity": 90}, {"time": 73423, "pitch": 66, "duration": 169, "velocity": 105}, {"time": 73433, "pitch": 59, "duration": 139, "velocity": 115}, {"time": 73433, "pitch": 62, "duration": 149, "velocity": 109}, {"time": 73672, "pitch": 59, "duration": 109, "velocity": 83}, {"time": 73672, "pitch": 62, "duration": 129, "velocity": 85}, {"time": 73672, "pitch": 66, "duration": 129, "velocity": 95}, {"time": 73901, "pitch": 66, "duration": 149, "velocity": 97}, {"time": 73920, "pitch": 59, "duration": 100, "velocity": 85}, {"time": 73920, "pitch": 62, "duration": 130, "velocity": 86}, {"time": 74139, "pitch": 43, "duration": 1172, "velocity": 109}, {"time": 74139, "pitch": 59, "duration": 150, "velocity": 113}, {"time": 74139, "pitch": 62, "duration": 150, "velocity": 117}, {"time": 74139, "pitch": 67, "duration": 160, "velocity": 111}, {"time": 74378, "pitch": 59, "duration": 131, "velocity": 77}, {"time": 74378, "pitch": 62, "duration": 141, "velocity": 72}, {"time": 74378, "pitch": 67, "duration": 141, "velocity": 77}, {"time": 74610, "pitch": 67, "duration": 142, "velocity": 92}, {"time": 74620, "pitch": 59, "duration": 121, "velocity": 82}, {"time": 74620, "pitch": 62, "duration": 132, "velocity": 81}, {"time": 74863, "pitch": 62, "duration": 129, "velocity": 99}, {"time": 74863, "pitch": 67, "duration": 139, "velocity": 103}, {"time": 74873, "pitch": 59, "duration": 119, "velocity": 95}, {"time": 75092, "pitch": 62, "duration": 159, "velocity": 78}, {"time": 75092, "pitch": 67, "duration": 129, "velocity": 80}, {"time": 75102, "pitch": 59, "duration": 109, "velocity": 85}, {"time": 75321, "pitch": 45, "duration": 1678, "velocity": 101}, {"time": 75321, "pitch": 62, "duration": 149, "velocity": 105}, {"time": 75321, "pitch": 64, "duration": 139, "velocity": 113}, {"time": 75331, "pitch": 57, "duration": 149, "velocity": 113}, {"time": 75331, "pitch": 69, "duration": 139, "velocity": 113}, {"time": 75569, "pitch": 57, "duration": 140, "velocity": 80}, {"time": 75569, "pitch": 62, "duration": 140, "velocity": 77}, {"time": 75569, "pitch": 69, "duration": 140, "velocity": 75}, {"time": 75579, "pitch": 64, "duration": 140, "velocity": 74}, {"time": 75818, "pitch": 57, "duration": 151, "velocity": 89}, {"time": 75818, "pitch": 62, "duration": 141, "velocity": 87}, {"time": 75818, "pitch": 64, "duration": 141, "velocity": 83}, {"time": 75818, "pitch": 69, "duration": 141, "velocity": 82}, {"time": 76060, "pitch": 57, "duration": 152, "velocity": 90}, {"time": 76060, "pitch": 62, "duration": 142, "velocity": 89}, {"time": 76060, "pitch": 64, "duration": 142, "velocity": 87}, {"time": 76060, "pitch": 69, "duration": 142, "velocity": 86}, {"time": 76293, "pitch": 62, "duration": 139, "velocity": 95}, {"time": 76293, "pitch": 69, "duration": 139, "velocity": 90}, {"time": 76303, "pitch": 57, "duration": 139, "velocity": 97}, {"time": 76303, "pitch": 64, "duration": 139, "velocity": 92}, {"time": 76532, "pitch": 57, "duration": 139, "velocity": 92}, {"time": 76532, "pitch": 62, "duration": 129, "velocity": 85}, {"time": 76532, "pitch": 64, "duration": 139, "velocity": 82}, {"time": 76532, "pitch": 69, "duration": 139, "velocity": 87}, {"time": 76771, "pitch": 57, "duration": 119, "velocity": 103}, {"time": 76771, "pitch": 62, "duration": 119, "velocity": 99}, {"time": 76771, "pitch": 64, "duration": 119, "velocity": 105}, {"time": 76771, "pitch": 69, "duration": 129, "velocity": 89}, {"time": 76999, "pitch": 62, "duration": 179, "velocity": 93}, {"time": 76999, "pitch": 69, "duration": 170, "velocity": 86}, {"time": 77009, "pitch": 57, "duration": 150, "velocity": 101}, {"time": 77009, "pitch": 64, "duration": 169, "velocity": 93}, {"time": 77129, "pitch": 41, "duration": 40, "velocity": 89}, {"time": 77169, "pitch": 35, "duration": 614, "velocity": 89}, {"time": 77198, "pitch": 47, "duration": 555, "velocity": 97}, {"time": 77238, "pitch": 59, "duration": 151, "velocity": 115}, {"time": 77238, "pitch": 62, "duration": 161, "velocity": 113}, {"time": 77238, "pitch": 66, "duration": 161, "velocity": 117}, {"time": 77500, "pitch": 66, "duration": 121, "velocity": 90}, {"time": 77510, "pitch": 59, "duration": 111, "velocity": 87}, {"time": 77510, "pitch": 62, "duration": 132, "velocity": 90}, {"time": 77732, "pitch": 66, "duration": 190, "velocity": 97}, {"time": 77743, "pitch": 59, "duration": 149, "velocity": 92}, {"time": 77743, "pitch": 62, "duration": 179, "velocity": 93}, {"time": 77852, "pitch": 38, "duration": 40, "velocity": 48}, {"time": 77882, "pitch": 31, "duration": 1270, "velocity": 107}, {"time": 77912, "pitch": 43, "duration": 1240, "velocity": 85}, {"time": 77982, "pitch": 59, "duration": 149, "velocity": 115}, {"time": 77982, "pitch": 62, "duration": 169, "velocity": 111}, {"time": 77982, "pitch": 67, "duration": 149, "velocity": 105}, {"time": 78220, "pitch": 59, "duration": 150, "velocity": 81}, {"time": 78220, "pitch": 62, "duration": 150, "velocity": 83}, {"time": 78220, "pitch": 67, "duration": 140, "velocity": 87}, {"time": 78459, "pitch": 59, "duration": 140, "velocity": 87}, {"time": 78459, "pitch": 62, "duration": 140, "velocity": 83}, {"time": 78459, "pitch": 67, "duration": 150, "velocity": 89}, {"time": 78698, "pitch": 62, "duration": 141, "velocity": 93}, {"time": 78698, "pitch": 67, "duration": 151, "velocity": 97}, {"time": 78708, "pitch": 59, "duration": 121, "velocity": 92}, {"time": 78940, "pitch": 62, "duration": 162, "velocity": 81}, {"time": 78940, "pitch": 67, "duration": 152, "velocity": 86}, {"time": 78950, "pitch": 59, "duration": 121, "velocity": 92}, {"time": 79162, "pitch": 38, "duration": 717, "velocity": 117}, {"time": 79172, "pitch": 57, "duration": 170, "velocity": 111}, {"time": 79172, "pitch": 62, "duration": 190, "velocity": 103}, {"time": 79172, "pitch": 66, "duration": 170, "velocity": 113}, {"time": 79422, "pitch": 62, "duration": 159, "velocity": 83}, {"time": 79422, "pitch": 66, "duration": 159, "velocity": 95}, {"time": 79432, "pitch": 57, "duration": 129, "velocity": 81}, {"time": 79650, "pitch": 62, "duration": 100, "velocity": 78}, {"time": 79660, "pitch": 57, "duration": 120, "velocity": 86}, {"time": 79660, "pitch": 66, "duration": 160, "velocity": 92}, {"time": 79889, "pitch": 33, "duration": 1062, "velocity": 93}, {"time": 79899, "pitch": 45, "duration": 1102, "velocity": 95}, {"time": 79899, "pitch": 57, "duration": 120, "velocity": 115}, {"time": 79899, "pitch": 61, "duration": 159, "velocity": 107}, {"time": 79899, "pitch": 64, "duration": 140, "velocity": 105}, {"time": 80128, "pitch": 61, "duration": 171, "velocity": 89}, {"time": 80128, "pitch": 64, "duration": 101, "velocity": 89}, {"time": 80138, "pitch": 57, "duration": 121, "velocity": 76}, {"time": 80370, "pitch": 61, "duration": 162, "velocity": 82}, {"time": 80380, "pitch": 57, "duration": 142, "velocity": 86}, {"time": 80380, "pitch": 64, "duration": 131, "velocity": 92}, {"time": 80633, "pitch": 57, "duration": 129, "velocity": 92}, {"time": 80633, "pitch": 61, "duration": 169, "velocity": 92}, {"time": 80633, "pitch": 64, "duration": 129, "velocity": 99}, {"time": 80872, "pitch": 57, "duration": 129, "velocity": 97}, {"time": 80872, "pitch": 61, "duration": 129, "velocity": 97}, {"time": 80872, "pitch": 64, "duration": 189, "velocity": 93}, {"time": 80991, "pitch": 41, "duration": 60, "velocity": 92}, {"time": 81061, "pitch": 35, "duration": 557, "velocity": 65}, {"time": 81080, "pitch": 47, "duration": 548, "velocity": 101}, {"time": 81100, "pitch": 59, "duration": 170, "velocity": 115}, {"time": 81100, "pitch": 62, "duration": 189, "velocity": 111}, {"time": 81100, "pitch": 66, "duration": 160, "velocity": 103}, {"time": 81349, "pitch": 62, "duration": 139, "velocity": 74}, {"time": 81349, "pitch": 66, "duration": 149, "velocity": 95}, {"time": 81359, "pitch": 59, "duration": 119, "velocity": 83}, {"time": 81568, "pitch": 66, "duration": 191, "velocity": 99}, {"time": 81578, "pitch": 59, "duration": 141, "velocity": 97}, {"time": 81578, "pitch": 62, "duration": 171, "velocity": 90}, {"time": 81810, "pitch": 31, "duration": 1019, "velocity": 103}, {"time": 81810, "pitch": 43, "duration": 1049, "velocity": 105}, {"time": 81810, "pitch": 59, "duration": 151, "velocity": 111}, {"time": 81810, "pitch": 62, "duration": 172, "velocity": 109}, {"time": 81810, "pitch": 67, "duration": 162, "velocity": 103}, {"time": 82062, "pitch": 59, "duration": 130, "velocity": 77}, {"time": 82062, "pitch": 62, "duration": 130, "velocity": 76}, {"time": 82062, "pitch": 67, "duration": 130, "velocity": 80}, {"time": 82302, "pitch": 62, "duration": 139, "velocity": 72}, {"time": 82302, "pitch": 67, "duration": 139, "velocity": 81}, {"time": 82312, "pitch": 59, "duration": 129, "velocity": 83}, {"time": 82550, "pitch": 59, "duration": 130, "velocity": 87}, {"time": 82550, "pitch": 62, "duration": 130, "velocity": 89}, {"time": 82550, "pitch": 67, "duration": 150, "velocity": 95}, {"time": 82789, "pitch": 59, "duration": 100, "velocity": 87}, {"time": 82789, "pitch": 62, "duration": 149, "velocity": 89}, {"time": 82789, "pitch": 67, "duration": 149, "velocity": 89}, {"time": 83008, "pitch": 33, "duration": 1122, "velocity": 89}, {"time": 83008, "pitch": 45, "duration": 773, "velocity": 99}, {"time": 83008, "pitch": 57, "duration": 161, "velocity": 107}, {"time": 83008, "pitch": 62, "duration": 191, "velocity": 97}, {"time": 83008, "pitch": 64, "duration": 171, "velocity": 99}, {"time": 83260, "pitch": 57, "duration": 141, "velocity": 87}, {"time": 83260, "pitch": 62, "duration": 162, "velocity": 85}, {"time": 83260, "pitch": 64, "duration": 141, "velocity": 92}, {"time": 83502, "pitch": 62, "duration": 140, "velocity": 80}, {"time": 83513, "pitch": 57, "duration": 109, "velocity": 82}, {"time": 83513, "pitch": 64, "duration": 79, "velocity": 82}, {"time": 83732, "pitch": 62, "duration": 89, "velocity": 65}, {"time": 83742, "pitch": 57, "duration": 89, "velocity": 83}, {"time": 83742, "pitch": 64, "duration": 348, "velocity": 75}, {"time": 83980, "pitch": 45, "duration": 538, "velocity": 62}, {"time": 83980, "pitch": 57, "duration": 130, "velocity": 61}, {"time": 83980, "pitch": 61, "duration": 150, "velocity": 73}, {"time": 84229, "pitch": 69, "duration": 129, "velocity": 76}, {"time": 84882, "pitch": 71, "duration": 319, "velocity": 41}, {"time": 84892, "pitch": 74, "duration": 349, "velocity": 57}, {"time": 84912, "pitch": 59, "duration": 508, "velocity": 55}, {"time": 84932, "pitch": 78, "duration": 289, "velocity": 80}, {"time": 85659, "pitch": 55, "duration": 149, "velocity": 56}, {"time": 85659, "pitch": 74, "duration": 451, "velocity": 53}, {"time": 85669, "pitch": 71, "duration": 370, "velocity": 51}, {"time": 85669, "pitch": 79, "duration": 340, "velocity": 63}, {"time": 86850, "pitch": 62, "duration": 378, "velocity": 52}, {"time": 86860, "pitch": 69, "duration": 259, "velocity": 51}, {"time": 86860, "pitch": 74, "duration": 259, "velocity": 36}, {"time": 86860, "pitch": 78, "duration": 249, "velocity": 71}, {"time": 87489, "pitch": 71, "duration": 71, "velocity": 51}, {"time": 87519, "pitch": 57, "duration": 911, "velocity": 60}, {"time": 87529, "pitch": 69, "duration": 243, "velocity": 40}, {"time": 87550, "pitch": 73, "duration": 322, "velocity": 82}, {"time": 87580, "pitch": 76, "duration": 263, "velocity": 57}, {"time": 88310, "pitch": 81, "duration": 80, "velocity": 78}, {"time": 88788, "pitch": 59, "duration": 383, "velocity": 53}, {"time": 88788, "pitch": 74, "duration": 272, "velocity": 66}, {"time": 88788, "pitch": 78, "duration": 272, "velocity": 72}, {"time": 88798, "pitch": 71, "duration": 252, "velocity": 58}, {"time": 89481, "pitch": 74, "duration": 727, "velocity": 60}, {"time": 89491, "pitch": 55, "duration": 817, "velocity": 53}, {"time": 89491, "pitch": 71, "duration": 717, "velocity": 60}, {"time": 89491, "pitch": 79, "duration": 697, "velocity": 64}, {"time": 90692, "pitch": 57, "duration": 727, "velocity": 54}, {"time": 90692, "pitch": 69, "duration": 70, "velocity": 59}, {"time": 90692, "pitch": 74, "duration": 130, "velocity": 62}, {"time": 90702, "pitch": 76, "duration": 120, "velocity": 56}, {"time": 90951, "pitch": 64, "duration": 209, "velocity": 73}, {"time": 91200, "pitch": 69, "duration": 229, "velocity": 85}, {"time": 91429, "pitch": 74, "duration": 249, "velocity": 71}, {"time": 91678, "pitch": 57, "duration": 693, "velocity": 53}, {"time": 91688, "pitch": 69, "duration": 252, "velocity": 66}, {"time": 91688, "pitch": 73, "duration": 222, "velocity": 89}, {"time": 91940, "pitch": 76, "duration": 51, "velocity": 70}, {"time": 92162, "pitch": 81, "duration": 180, "velocity": 78}, {"time": 92630, "pitch": 74, "duration": 418, "velocity": 58}, {"time": 92630, "pitch": 78, "duration": 438, "velocity": 60}, {"time": 92640, "pitch": 59, "duration": 468, "velocity": 60}, {"time": 92640, "pitch": 71, "duration": 398, "velocity": 57}, {"time": 93279, "pitch": 71, "duration": 821, "velocity": 41}, {"time": 93299, "pitch": 55, "duration": 791, "velocity": 64}, {"time": 93320, "pitch": 74, "duration": 830, "velocity": 61}, {"time": 93370, "pitch": 79, "duration": 770, "velocity": 70}, {"time": 94538, "pitch": 69, "duration": 252, "velocity": 58}, {"time": 94548, "pitch": 62, "duration": 474, "velocity": 55}, {"time": 94548, "pitch": 78, "duration": 222, "velocity": 75}, {"time": 95231, "pitch": 71, "duration": 80, "velocity": 61}, {"time": 95251, "pitch": 69, "duration": 130, "velocity": 51}, {"time": 95261, "pitch": 57, "duration": 979, "velocity": 53}, {"time": 95301, "pitch": 73, "duration": 269, "velocity": 81}, {"time": 95301, "pitch": 76, "duration": 458, "velocity": 48}, {"time": 95769, "pitch": 71, "duration": 229, "velocity": 82}, {"time": 95988, "pitch": 69, "duration": 50, "velocity": 83}, {"time": 96230, "pitch": 67, "duration": 50, "velocity": 71}, {"time": 96462, "pitch": 66, "duration": 428, "velocity": 83}, {"time": 96472, "pitch": 69, "duration": 418, "velocity": 85}, {"time": 96472, "pitch": 74, "duration": 418, "velocity": 75}, {"time": 97199, "pitch": 55, "duration": 873, "velocity": 62}, {"time": 97199, "pitch": 62, "duration": 713, "velocity": 62}, {"time": 97199, "pitch": 67, "duration": 743, "velocity": 67}, {"time": 97199, "pitch": 69, "duration": 753, "velocity": 56}, {"time": 97209, "pitch": 71, "duration": 743, "velocity": 70}, {"time": 97209, "pitch": 74, "duration": 743, "velocity": 64}, {"time": 98380, "pitch": 57, "duration": 649, "velocity": 48}, {"time": 98380, "pitch": 74, "duration": 289, "velocity": 64}, {"time": 98380, "pitch": 76, "duration": 269, "velocity": 58}, {"time": 98390, "pitch": 69, "duration": 478, "velocity": 53}, {"time": 98848, "pitch": 64, "duration": 80, "velocity": 52}, {"time": 99332, "pitch": 73, "duration": 189, "velocity": 83}, {"time": 99342, "pitch": 57, "duration": 528, "velocity": 47}, {"time": 99342, "pitch": 69, "duration": 179, "velocity": 54}, {"time": 99840, "pitch": 69, "duration": 69, "velocity": 74}, {"time": 99840, "pitch": 76, "duration": 99, "velocity": 85}, {"time": 100089, "pitch": 57, "duration": 199, "velocity": 53}, {"time": 100298, "pitch": 71, "duration": 252, "velocity": 71}, {"time": 100298, "pitch": 74, "duration": 272, "velocity": 76}, {"time": 100307, "pitch": 55, "duration": 1683, "velocity": 66}, {"time": 100307, "pitch": 67, "duration": 212, "velocity": 72}, {"time": 101031, "pitch": 74, "duration": 229, "velocity": 66}, {"time": 101270, "pitch": 79, "duration": 249, "velocity": 73}, {"time": 101509, "pitch": 81, "duration": 149, "velocity": 80}, {"time": 101747, "pitch": 86, "duration": 142, "velocity": 72}, {"time": 102202, "pitch": 76, "duration": 329, "velocity": 58}, {"time": 102202, "pitch": 81, "duration": 368, "velocity": 69}, {"time": 102202, "pitch": 85, "duration": 319, "velocity": 76}, {"time": 102212, "pitch": 55, "duration": 1649, "velocity": 64}, {"time": 102212, "pitch": 67, "duration": 1410, "velocity": 50}, {"time": 102929, "pitch": 76, "duration": 219, "velocity": 55}, {"time": 103177, "pitch": 88, "duration": 121, "velocity": 59}, {"time": 103409, "pitch": 76, "duration": 51, "velocity": 50}, {"time": 103662, "pitch": 76, "duration": 50, "velocity": 64}, {"time": 103662, "pitch": 81, "duration": 40, "velocity": 73}, {"time": 103881, "pitch": 67, "duration": 229, "velocity": 50}, {"time": 104120, "pitch": 66, "duration": 669, "velocity": 85}, {"time": 104120, "pitch": 74, "duration": 169, "velocity": 74}, {"time": 104120, "pitch": 81, "duration": 179, "velocity": 67}, {"time": 104617, "pitch": 54, "duration": 172, "velocity": 27}, {"time": 105051, "pitch": 52, "duration": 787, "velocity": 39}, {"time": 105082, "pitch": 69, "duration": 130, "velocity": 67}, {"time": 105082, "pitch": 73, "duration": 259, "velocity": 72}, {"time": 105082, "pitch": 76, "duration": 229, "velocity": 66}, {"time": 105092, "pitch": 64, "duration": 577, "velocity": 77}, {"time": 105371, "pitch": 69, "duration": 50, "velocity": 52}, {"time": 105580, "pitch": 81, "duration": 159, "velocity": 87}, {"time": 105590, "pitch": 73, "duration": 139, "velocity": 74}, {"time": 105819, "pitch": 64, "duration": 59, "velocity": 67}, {"time": 106057, "pitch": 50, "duration": 121, "velocity": 71}, {"time": 106057, "pitch": 62, "duration": 101, "velocity": 66}, {"time": 106057, "pitch": 71, "duration": 222, "velocity": 62}, {"time": 106057, "pitch": 74, "duration": 303, "velocity": 66}, {"time": 106057, "pitch": 79, "duration": 293, "velocity": 72}, {"time": 106791, "pitch": 60, "duration": 10, "velocity": 58}, {"time": 106791, "pitch": 62, "duration": 219, "velocity": 64}, {"time": 107030, "pitch": 67, "duration": 238, "velocity": 89}, {"time": 107259, "pitch": 69, "duration": 228, "velocity": 72}, {"time": 107497, "pitch": 74, "duration": 192, "velocity": 75}, {"time": 107729, "pitch": 62, "duration": 71, "velocity": 43}, {"time": 107962, "pitch": 62, "duration": 1126, "velocity": 95}, {"time": 107962, "pitch": 67, "duration": 1116, "velocity": 95}, {"time": 107962, "pitch": 71, "duration": 1096, "velocity": 90}, {"time": 110129, "pitch": 62, "duration": 99, "velocity": 48}, {"time": 110138, "pitch": 59, "duration": 70, "velocity": 44}, {"time": 110158, "pitch": 55, "duration": 70, "velocity": 24}, {"time": 110377, "pitch": 55, "duration": 121, "velocity": 52}, {"time": 110377, "pitch": 59, "duration": 121, "velocity": 49}, {"time": 110377, "pitch": 62, "duration": 121, "velocity": 55}, {"time": 110387, "pitch": 64, "duration": 111, "velocity": 57}, {"time": 110619, "pitch": 55, "duration": 172, "velocity": 87}, {"time": 110619, "pitch": 59, "duration": 172, "velocity": 92}, {"time": 110619, "pitch": 62, "duration": 182, "velocity": 78}, {"time": 110619, "pitch": 64, "duration": 162, "velocity": 87}, {"time": 110872, "pitch": 55, "duration": 169, "velocity": 109}, {"time": 110872, "pitch": 59, "duration": 169, "velocity": 107}, {"time": 110872, "pitch": 62, "duration": 179, "velocity": 99}, {"time": 110872, "pitch": 64, "duration": 169, "velocity": 101}, {"time": 111121, "pitch": 55, "duration": 169, "velocity": 109}, {"time": 111121, "pitch": 59, "duration": 159, "velocity": 107}, {"time": 111121, "pitch": 62, "duration": 169, "velocity": 103}, {"time": 111121, "pitch": 64, "duration": 169, "velocity": 99}, {"time": 111360, "pitch": 55, "duration": 149, "velocity": 105}, {"time": 111360, "pitch": 59, "duration": 149, "velocity": 103}, {"time": 111360, "pitch": 62, "duration": 149, "velocity": 97}, {"time": 111360, "pitch": 64, "duration": 139, "velocity": 97}, {"time": 111588, "pitch": 55, "duration": 110, "velocity": 113}, {"time": 111588, "pitch": 59, "duration": 110, "velocity": 103}, {"time": 111588, "pitch": 62, "duration": 130, "velocity": 95}, {"time": 111588, "pitch": 64, "duration": 130, "velocity": 93}, {"time": 111708, "pitch": 45, "duration": 69, "velocity": 68}, {"time": 111748, "pitch": 38, "duration": 544, "velocity": 97}, {"time": 111777, "pitch": 50, "duration": 494, "velocity": 109}, {"time": 111807, "pitch": 57, "duration": 161, "velocity": 95}, {"time": 111817, "pitch": 62, "duration": 162, "velocity": 107}, {"time": 111817, "pitch": 66, "duration": 151, "velocity": 123}, {"time": 112069, "pitch": 57, "duration": 152, "velocity": 81}, {"time": 112069, "pitch": 62, "duration": 162, "velocity": 85}, {"time": 112069, "pitch": 66, "duration": 152, "velocity": 95}, {"time": 112302, "pitch": 57, "duration": 159, "velocity": 103}, {"time": 112302, "pitch": 62, "duration": 189, "velocity": 85}, {"time": 112302, "pitch": 66, "duration": 199, "velocity": 97}, {"time": 112431, "pitch": 38, "duration": 40, "velocity": 73}, {"time": 112451, "pitch": 31, "duration": 1109, "velocity": 101}, {"time": 112491, "pitch": 43, "duration": 1079, "velocity": 92}, {"time": 112531, "pitch": 67, "duration": 179, "velocity": 103}, {"time": 112541, "pitch": 59, "duration": 179, "velocity": 115}, {"time": 112541, "pitch": 62, "duration": 189, "velocity": 109}, {"time": 112790, "pitch": 59, "duration": 159, "velocity": 82}, {"time": 112790, "pitch": 62, "duration": 159, "velocity": 77}, {"time": 112790, "pitch": 67, "duration": 139, "velocity": 89}, {"time": 113028, "pitch": 62, "duration": 150, "velocity": 68}, {"time": 113038, "pitch": 59, "duration": 130, "velocity": 89}, {"time": 113038, "pitch": 67, "duration": 130, "velocity": 89}, {"time": 113247, "pitch": 59, "duration": 151, "velocity": 93}, {"time": 113247, "pitch": 62, "duration": 151, "velocity": 95}, {"time": 113247, "pitch": 67, "duration": 151, "velocity": 92}, {"time": 113499, "pitch": 62, "duration": 192, "velocity": 95}, {"time": 113499, "pitch": 67, "duration": 152, "velocity": 95}, {"time": 113509, "pitch": 59, "duration": 172, "velocity": 95}, {"time": 113681, "pitch": 28, "duration": 499, "velocity": 107}, {"time": 113711, "pitch": 40, "duration": 519, "velocity": 93}, {"time": 113742, "pitch": 59, "duration": 159, "velocity": 103}, {"time": 113742, "pitch": 62, "duration": 159, "velocity": 103}, {"time": 113742, "pitch": 64, "duration": 149, "velocity": 109}, {"time": 113742, "pitch": 67, "duration": 159, "velocity": 103}, {"time": 113991, "pitch": 59, "duration": 149, "velocity": 87}, {"time": 113991, "pitch": 62, "duration": 149, "velocity": 85}, {"time": 113991, "pitch": 64, "duration": 139, "velocity": 82}, {"time": 113991, "pitch": 67, "duration": 139, "velocity": 81}, {"time": 114220, "pitch": 62, "duration": 109, "velocity": 83}, {"time": 114220, "pitch": 67, "duration": 99, "velocity": 85}, {"time": 114230, "pitch": 59, "duration": 149, "velocity": 90}, {"time": 114230, "pitch": 64, "duration": 179, "velocity": 87}, {"time": 114349, "pitch": 40, "duration": 60, "velocity": 73}, {"time": 114389, "pitch": 33, "duration": 1042, "velocity": 90}, {"time": 114409, "pitch": 45, "duration": 1022, "velocity": 95}, {"time": 114468, "pitch": 57, "duration": 169, "velocity": 111}, {"time": 114468, "pitch": 61, "duration": 169, "velocity": 113}, {"time": 114468, "pitch": 64, "duration": 169, "velocity": 111}, {"time": 114468, "pitch": 69, "duration": 169, "velocity": 101}, {"time": 114707, "pitch": 57, "duration": 162, "velocity": 80}, {"time": 114707, "pitch": 61, "duration": 162, "velocity": 86}, {"time": 114707, "pitch": 64, "duration": 151, "velocity": 78}, {"time": 114707, "pitch": 69, "duration": 151, "velocity": 71}, {"time": 114959, "pitch": 61, "duration": 162, "velocity": 90}, {"time": 114970, "pitch": 57, "duration": 161, "velocity": 89}, {"time": 114970, "pitch": 64, "duration": 141, "velocity": 90}, {"time": 114970, "pitch": 69, "duration": 151, "velocity": 89}, {"time": 115212, "pitch": 57, "duration": 129, "velocity": 101}, {"time": 115212, "pitch": 61, "duration": 149, "velocity": 107}, {"time": 115212, "pitch": 64, "duration": 129, "velocity": 101}, {"time": 115212, "pitch": 69, "duration": 139, "velocity": 95}, {"time": 115431, "pitch": 61, "duration": 139, "velocity": 86}, {"time": 115431, "pitch": 69, "duration": 149, "velocity": 70}, {"time": 115441, "pitch": 57, "duration": 149, "velocity": 87}, {"time": 115441, "pitch": 64, "duration": 159, "velocity": 85}, {"time": 115570, "pitch": 30, "duration": 718, "velocity": 99}, {"time": 115610, "pitch": 42, "duration": 698, "velocity": 90}, {"time": 115660, "pitch": 57, "duration": 139, "velocity": 115}, {"time": 115660, "pitch": 62, "duration": 149, "velocity": 113}, {"time": 115660, "pitch": 66, "duration": 129, "velocity": 107}, {"time": 115660, "pitch": 69, "duration": 139, "velocity": 93}, {"time": 115888, "pitch": 57, "duration": 150, "velocity": 81}, {"time": 115898, "pitch": 62, "duration": 160, "velocity": 80}, {"time": 115898, "pitch": 66, "duration": 130, "velocity": 92}, {"time": 115898, "pitch": 69, "duration": 140, "velocity": 72}, {"time": 116137, "pitch": 57, "duration": 151, "velocity": 89}, {"time": 116137, "pitch": 62, "duration": 192, "velocity": 81}, {"time": 116137, "pitch": 66, "duration": 192, "velocity": 95}, {"time": 116147, "pitch": 69, "duration": 131, "velocity": 82}, {"time": 116319, "pitch": 38, "duration": 20, "velocity": 51}, {"time": 116339, "pitch": 31, "duration": 1049, "velocity": 97}, {"time": 116349, "pitch": 32, "duration": 10, "velocity": 78}, {"time": 116349, "pitch": 43, "duration": 1099, "velocity": 92}, {"time": 116369, "pitch": 59, "duration": 162, "velocity": 113}, {"time": 116369, "pitch": 62, "duration": 192, "velocity": 105}, {"time": 116369, "pitch": 67, "duration": 182, "velocity": 103}, {"time": 116622, "pitch": 59, "duration": 149, "velocity": 90}, {"time": 116622, "pitch": 62, "duration": 149, "velocity": 82}, {"time": 116622, "pitch": 67, "duration": 139, "velocity": 89}, {"time": 116861, "pitch": 59, "duration": 139, "velocity": 87}, {"time": 116861, "pitch": 62, "duration": 149, "velocity": 78}, {"time": 116861, "pitch": 67, "duration": 149, "velocity": 82}, {"time": 117090, "pitch": 59, "duration": 139, "velocity": 99}, {"time": 117090, "pitch": 67, "duration": 149, "velocity": 103}, {"time": 117099, "pitch": 62, "duration": 140, "velocity": 99}, {"time": 117328, "pitch": 62, "duration": 179, "velocity": 82}, {"time": 117328, "pitch": 67, "duration": 130, "velocity": 85}, {"time": 117338, "pitch": 59, "duration": 130, "velocity": 85}, {"time": 117448, "pitch": 40, "duration": 49, "velocity": 65}, {"time": 117497, "pitch": 33, "duration": 1762, "velocity": 86}, {"time": 117527, "pitch": 45, "duration": 1722, "velocity": 99}, {"time": 117567, "pitch": 62, "duration": 161, "velocity": 103}, {"time": 117577, "pitch": 57, "duration": 171, "velocity": 109}, {"time": 117577, "pitch": 64, "duration": 171, "velocity": 111}, {"time": 117577, "pitch": 69, "duration": 161, "velocity": 105}, {"time": 117829, "pitch": 57, "duration": 152, "velocity": 78}, {"time": 117829, "pitch": 62, "duration": 142, "velocity": 81}, {"time": 117829, "pitch": 64, "duration": 142, "velocity": 63}, {"time": 117829, "pitch": 69, "duration": 132, "velocity": 81}, {"time": 118051, "pitch": 57, "duration": 140, "velocity": 105}, {"time": 118051, "pitch": 62, "duration": 130, "velocity": 97}, {"time": 118051, "pitch": 64, "duration": 120, "velocity": 99}, {"time": 118051, "pitch": 69, "duration": 120, "velocity": 85}, {"time": 118291, "pitch": 57, "duration": 169, "velocity": 87}, {"time": 118291, "pitch": 62, "duration": 119, "velocity": 78}, {"time": 118291, "pitch": 64, "duration": 169, "velocity": 75}, {"time": 118291, "pitch": 69, "duration": 129, "velocity": 87}, {"time": 118539, "pitch": 57, "duration": 140, "velocity": 95}, {"time": 118539, "pitch": 61, "duration": 130, "velocity": 101}, {"time": 118539, "pitch": 64, "duration": 150, "velocity": 101}, {"time": 118539, "pitch": 69, "duration": 140, "velocity": 86}, {"time": 118778, "pitch": 57, "duration": 130, "velocity": 85}, {"time": 118778, "pitch": 61, "duration": 120, "velocity": 95}, {"time": 118778, "pitch": 64, "duration": 130, "velocity": 78}, {"time": 118778, "pitch": 69, "duration": 130, "velocity": 82}, {"time": 119017, "pitch": 57, "duration": 141, "velocity": 101}, {"time": 119017, "pitch": 61, "duration": 131, "velocity": 107}, {"time": 119017, "pitch": 64, "duration": 141, "velocity": 101}, {"time": 119017, "pitch": 69, "duration": 151, "velocity": 90}, {"time": 119259, "pitch": 57, "duration": 152, "velocity": 99}, {"time": 119259, "pitch": 61, "duration": 152, "velocity": 101}, {"time": 119259, "pitch": 64, "duration": 162, "velocity": 97}, {"time": 119259, "pitch": 69, "duration": 162, "velocity": 85}, {"time": 119390, "pitch": 30, "duration": 699, "velocity": 111}, {"time": 119431, "pitch": 42, "duration": 678, "velocity": 103}, {"time": 119502, "pitch": 57, "duration": 159, "velocity": 107}, {"time": 119502, "pitch": 62, "duration": 169, "velocity": 109}, {"time": 119502, "pitch": 66, "duration": 149, "velocity": 113}, {"time": 119502, "pitch": 69, "duration": 159, "velocity": 87}, {"time": 119761, "pitch": 57, "duration": 109, "velocity": 99}, {"time": 119761, "pitch": 62, "duration": 109, "velocity": 101}, {"time": 119761, "pitch": 69, "duration": 119, "velocity": 99}, {"time": 119770, "pitch": 66, "duration": 100, "velocity": 99}, {"time": 119989, "pitch": 57, "duration": 130, "velocity": 99}, {"time": 119989, "pitch": 62, "duration": 179, "velocity": 93}, {"time": 119989, "pitch": 66, "duration": 170, "velocity": 101}, {"time": 119989, "pitch": 69, "duration": 120, "velocity": 90}, {"time": 120119, "pitch": 38, "duration": 40, "velocity": 75}, {"time": 120149, "pitch": 31, "duration": 1101, "velocity": 95}, {"time": 120168, "pitch": 43, "duration": 1132, "velocity": 95}, {"time": 120218, "pitch": 59, "duration": 149, "velocity": 115}, {"time": 120218, "pitch": 62, "duration": 149, "velocity": 117}, {"time": 120218, "pitch": 67, "duration": 159, "velocity": 103}, {"time": 120457, "pitch": 67, "duration": 131, "velocity": 85}, {"time": 120467, "pitch": 59, "duration": 121, "velocity": 83}, {"time": 120467, "pitch": 62, "duration": 111, "velocity": 86}, {"time": 120699, "pitch": 59, "duration": 142, "velocity": 83}, {"time": 120699, "pitch": 62, "duration": 142, "velocity": 80}, {"time": 120699, "pitch": 67, "duration": 152, "velocity": 87}, {"time": 120942, "pitch": 59, "duration": 119, "velocity": 101}, {"time": 120942, "pitch": 62, "duration": 129, "velocity": 99}, {"time": 120942, "pitch": 67, "duration": 139, "velocity": 103}, {"time": 121171, "pitch": 62, "duration": 99, "velocity": 73}, {"time": 121171, "pitch": 67, "duration": 189, "velocity": 72}, {"time": 121181, "pitch": 59, "duration": 139, "velocity": 86}, {"time": 121290, "pitch": 40, "duration": 60, "velocity": 69}, {"time": 121340, "pitch": 33, "duration": 577, "velocity": 97}, {"time": 121380, "pitch": 45, "duration": 577, "velocity": 92}, {"time": 121409, "pitch": 57, "duration": 120, "velocity": 113}, {"time": 121409, "pitch": 61, "duration": 150, "velocity": 111}, {"time": 121409, "pitch": 64, "duration": 160, "velocity": 105}, {"time": 121648, "pitch": 61, "duration": 120, "velocity": 90}, {"time": 121658, "pitch": 57, "duration": 130, "velocity": 89}, {"time": 121658, "pitch": 64, "duration": 90, "velocity": 87}, {"time": 121897, "pitch": 57, "duration": 70, "velocity": 92}, {"time": 121897, "pitch": 61, "duration": 80, "velocity": 92}, {"time": 121907, "pitch": 64, "duration": 101, "velocity": 93}, {"time": 122129, "pitch": 34, "duration": 1079, "velocity": 105}, {"time": 122129, "pitch": 58, "duration": 151, "velocity": 115}, {"time": 122129, "pitch": 61, "duration": 141, "velocity": 109}, {"time": 122139, "pitch": 46, "duration": 1118, "velocity": 111}, {"time": 122139, "pitch": 64, "duration": 131, "velocity": 105}, {"time": 122139, "pitch": 66, "duration": 141, "velocity": 105}, {"time": 122381, "pitch": 58, "duration": 120, "velocity": 81}, {"time": 122381, "pitch": 61, "duration": 110, "velocity": 90}, {"time": 122381, "pitch": 64, "duration": 110, "velocity": 85}, {"time": 122381, "pitch": 66, "duration": 120, "velocity": 80}, {"time": 122621, "pitch": 58, "duration": 109, "velocity": 95}, {"time": 122621, "pitch": 61, "duration": 129, "velocity": 97}, {"time": 122621, "pitch": 64, "duration": 119, "velocity": 86}, {"time": 122621, "pitch": 66, "duration": 129, "velocity": 86}, {"time": 122859, "pitch": 58, "duration": 120, "velocity": 111}, {"time": 122869, "pitch": 61, "duration": 140, "velocity": 107}, {"time": 122869, "pitch": 64, "duration": 110, "velocity": 97}, {"time": 122869, "pitch": 66, "duration": 120, "velocity": 101}, {"time": 123108, "pitch": 58, "duration": 129, "velocity": 97}, {"time": 123108, "pitch": 61, "duration": 149, "velocity": 99}, {"time": 123118, "pitch": 64, "duration": 169, "velocity": 87}, {"time": 123118, "pitch": 66, "duration": 139, "velocity": 86}, {"time": 123247, "pitch": 42, "duration": 40, "velocity": 86}, {"time": 123287, "pitch": 35, "duration": 594, "velocity": 99}, {"time": 123307, "pitch": 47, "duration": 535, "velocity": 93}, {"time": 123347, "pitch": 59, "duration": 151, "velocity": 111}, {"time": 123347, "pitch": 62, "duration": 171, "velocity": 107}, {"time": 123347, "pitch": 66, "duration": 171, "velocity": 105}, {"time": 123589, "pitch": 66, "duration": 121, "velocity": 97}, {"time": 123599, "pitch": 59, "duration": 101, "velocity": 78}, {"time": 123599, "pitch": 62, "duration": 132, "velocity": 76}, {"time": 123821, "pitch": 66, "duration": 190, "velocity": 95}, {"time": 123832, "pitch": 59, "duration": 159, "velocity": 86}, {"time": 123832, "pitch": 62, "duration": 179, "velocity": 83}, {"time": 123991, "pitch": 31, "duration": 1068, "velocity": 103}, {"time": 124011, "pitch": 43, "duration": 1089, "velocity": 113}, {"time": 124070, "pitch": 59, "duration": 160, "velocity": 109}, {"time": 124070, "pitch": 62, "duration": 180, "velocity": 107}, {"time": 124070, "pitch": 67, "duration": 170, "velocity": 105}, {"time": 124299, "pitch": 59, "duration": 140, "velocity": 92}, {"time": 124299, "pitch": 62, "duration": 150, "velocity": 85}, {"time": 124299, "pitch": 67, "duration": 130, "velocity": 90}, {"time": 124538, "pitch": 59, "duration": 139, "velocity": 82}, {"time": 124538, "pitch": 62, "duration": 159, "velocity": 64}, {"time": 124538, "pitch": 67, "duration": 159, "velocity": 85}, {"time": 124787, "pitch": 59, "duration": 131, "velocity": 87}, {"time": 124787, "pitch": 62, "duration": 141, "velocity": 86}, {"time": 124787, "pitch": 67, "duration": 151, "velocity": 92}, {"time": 125009, "pitch": 59, "duration": 131, "velocity": 86}, {"time": 125009, "pitch": 67, "duration": 101, "velocity": 85}, {"time": 125019, "pitch": 62, "duration": 162, "velocity": 77}, {"time": 125100, "pitch": 40, "duration": 70, "velocity": 74}, {"time": 125160, "pitch": 33, "duration": 1269, "velocity": 86}, {"time": 125191, "pitch": 45, "duration": 807, "velocity": 107}, {"time": 125231, "pitch": 57, "duration": 150, "velocity": 107}, {"time": 125231, "pitch": 62, "duration": 150, "velocity": 95}, {"time": 125231, "pitch": 64, "duration": 150, "velocity": 99}, {"time": 125231, "pitch": 69, "duration": 140, "velocity": 97}, {"time": 125481, "pitch": 57, "duration": 159, "velocity": 81}, {"time": 125481, "pitch": 62, "duration": 149, "velocity": 87}, {"time": 125481, "pitch": 64, "duration": 149, "velocity": 86}, {"time": 125481, "pitch": 69, "duration": 139, "velocity": 82}, {"time": 125729, "pitch": 57, "duration": 140, "velocity": 85}, {"time": 125729, "pitch": 62, "duration": 140, "velocity": 83}, {"time": 125729, "pitch": 64, "duration": 140, "velocity": 81}, {"time": 125729, "pitch": 69, "duration": 130, "velocity": 85}, {"time": 125968, "pitch": 57, "duration": 149, "velocity": 90}, {"time": 125968, "pitch": 62, "duration": 110, "velocity": 86}, {"time": 125968, "pitch": 64, "duration": 139, "velocity": 83}, {"time": 125978, "pitch": 69, "duration": 139, "velocity": 83}, {"time": 126207, "pitch": 57, "duration": 232, "velocity": 71}, {"time": 126207, "pitch": 61, "duration": 232, "velocity": 92}, {"time": 126207, "pitch": 64, "duration": 201, "velocity": 64}, {"time": 126207, "pitch": 69, "duration": 191, "velocity": 71}, {"time": 126217, "pitch": 45, "duration": 414, "velocity": 53}, {"time": 126671, "pitch": 61, "duration": 51, "velocity": 18}, {"time": 126671, "pitch": 69, "duration": 80, "velocity": 64}, {"time": 126691, "pitch": 64, "duration": 31, "velocity": 55}, {"time": 127080, "pitch": 62, "duration": 547, "velocity": 54}, {"time": 127110, "pitch": 67, "duration": 477, "velocity": 61}, {"time": 127120, "pitch": 55, "duration": 1619, "velocity": 61}, {"time": 127149, "pitch": 69, "duration": 428, "velocity": 59}, {"time": 127179, "pitch": 71, "duration": 378, "velocity": 87}, {"time": 128111, "pitch": 74, "duration": 60, "velocity": 58}, {"time": 128609, "pitch": 81, "duration": 70, "velocity": 62}, {"time": 129047, "pitch": 74, "duration": 423, "velocity": 38}, {"time": 129067, "pitch": 69, "duration": 403, "velocity": 46}, {"time": 129067, "pitch": 78, "duration": 423, "velocity": 82}, {"time": 129077, "pitch": 54, "duration": 1241, "velocity": 64}, {"time": 129077, "pitch": 81, "duration": 413, "velocity": 40}, {"time": 129999, "pitch": 81, "duration": 70, "velocity": 53}, {"time": 130507, "pitch": 86, "duration": 80, "velocity": 58}, {"time": 130850, "pitch": 62, "duration": 30, "velocity": 41}, {"time": 130880, "pitch": 55, "duration": 828, "velocity": 71}, {"time": 130930, "pitch": 74, "duration": 181, "velocity": 43}, {"time": 130930, "pitch": 79, "duration": 171, "velocity": 53}, {"time": 130971, "pitch": 67, "duration": 1689, "velocity": 46}, {"time": 131001, "pitch": 81, "duration": 110, "velocity": 28}, {"time": 131031, "pitch": 83, "duration": 100, "velocity": 66}, {"time": 131509, "pitch": 86, "duration": 70, "velocity": 66}, {"time": 131997, "pitch": 93, "duration": 80, "velocity": 74}, {"time": 132481, "pitch": 91, "duration": 40, "velocity": 74}, {"time": 132949, "pitch": 90, "duration": 139, "velocity": 76}, {"time": 132959, "pitch": 66, "duration": 1032, "velocity": 66}, {"time": 132969, "pitch": 81, "duration": 139, "velocity": 59}, {"time": 133437, "pitch": 78, "duration": 60, "velocity": 62}, {"time": 133447, "pitch": 86, "duration": 40, "velocity": 49}, {"time": 133901, "pitch": 74, "duration": 60, "velocity": 66}, {"time": 133901, "pitch": 81, "duration": 50, "velocity": 72}, {"time": 134409, "pitch": 69, "duration": 50, "velocity": 66}, {"time": 134409, "pitch": 78, "duration": 40, "velocity": 85}, {"time": 134897, "pitch": 40, "duration": 1581, "velocity": 109}, {"time": 134897, "pitch": 52, "duration": 1581, "velocity": 111}, {"time": 134897, "pitch": 60, "duration": 1571, "velocity": 113}, {"time": 134897, "pitch": 62, "duration": 1611, "velocity": 117}, {"time": 134897, "pitch": 64, "duration": 1601, "velocity": 113}, {"time": 134897, "pitch": 67, "duration": 1621, "velocity": 119}, {"time": 136791, "pitch": 38, "duration": 1198, "velocity": 95}, {"time": 136791, "pitch": 59, "duration": 1369, "velocity": 105}, {"time": 136791, "pitch": 62, "duration": 1359, "velocity": 109}, {"time": 136801, "pitch": 50, "duration": 1168, "velocity": 105}, {"time": 136801, "pitch": 67, "duration": 1370, "velocity": 103}, {"time": 138699, "pitch": 33, "duration": 418, "velocity": 92}, {"time": 138699, "pitch": 45, "duration": 428, "velocity": 97}, {"time": 138699, "pitch": 55, "duration": 308, "velocity": 95}, {"time": 138699, "pitch": 59, "duration": 308, "velocity": 101}, {"time": 138699, "pitch": 67, "duration": 308, "velocity": 97}, {"time": 138709, "pitch": 62, "duration": 318, "velocity": 92}, {"time": 139409, "pitch": 33, "duration": 780, "velocity": 92}, {"time": 139409, "pitch": 45, "duration": 730, "velocity": 90}, {"time": 139409, "pitch": 57, "duration": 312, "velocity": 87}, {"time": 139409, "pitch": 61, "duration": 431, "velocity": 105}, {"time": 139409, "pitch": 64, "duration": 292, "velocity": 101}, {"time": 139880, "pitch": 57, "duration": 100, "velocity": 93}, {"time": 140129, "pitch": 57, "duration": 179, "velocity": 95}, {"time": 140129, "pitch": 61, "duration": 189, "velocity": 115}, {"time": 140129, "pitch": 69, "duration": 159, "velocity": 111}, {"time": 140388, "pitch": 45, "duration": 339, "velocity": 113}, {"time": 140607, "pitch": 33, "duration": 454, "velocity": 107}, {"time": 140607, "pitch": 59, "duration": 292, "velocity": 101}, {"time": 140607, "pitch": 62, "duration": 363, "velocity": 113}, {"time": 140607, "pitch": 67, "duration": 322, "velocity": 111}, {"time": 140848, "pitch": 45, "duration": 233, "velocity": 90}, {"time": 141310, "pitch": 33, "duration": 1002, "velocity": 87}, {"time": 141310, "pitch": 45, "duration": 110, "velocity": 101}, {"time": 141310, "pitch": 69, "duration": 753, "velocity": 99}, {"time": 141320, "pitch": 61, "duration": 693, "velocity": 109}, {"time": 141320, "pitch": 64, "duration": 693, "velocity": 107}, {"time": 141549, "pitch": 45, "duration": 50, "velocity": 74}, {"time": 141791, "pitch": 45, "duration": 50, "velocity": 86}, {"time": 142023, "pitch": 45, "duration": 50, "velocity": 93}, {"time": 142273, "pitch": 45, "duration": 29, "velocity": 70}, {"time": 142521, "pitch": 38, "duration": 150, "velocity": 113}, {"time": 142521, "pitch": 50, "duration": 169, "velocity": 115}, {"time": 142521, "pitch": 66, "duration": 150, "velocity": 117}, {"time": 142531, "pitch": 57, "duration": 150, "velocity": 113}, {"time": 142531, "pitch": 62, "duration": 150, "velocity": 113}, {"time": 142770, "pitch": 57, "duration": 119, "velocity": 80}, {"time": 142770, "pitch": 62, "duration": 149, "velocity": 78}, {"time": 142770, "pitch": 66, "duration": 119, "velocity": 93}, {"time": 143009, "pitch": 57, "duration": 121, "velocity": 82}, {"time": 143009, "pitch": 62, "duration": 151, "velocity": 44}, {"time": 143009, "pitch": 66, "duration": 151, "velocity": 92}, {"time": 143251, "pitch": 59, "duration": 151, "velocity": 113}, {"time": 143251, "pitch": 67, "duration": 161, "velocity": 117}, {"time": 143261, "pitch": 43, "duration": 1118, "velocity": 119}, {"time": 143261, "pitch": 62, "duration": 151, "velocity": 119}, {"time": 143513, "pitch": 59, "duration": 130, "velocity": 73}, {"time": 143513, "pitch": 62, "duration": 130, "velocity": 72}, {"time": 143513, "pitch": 67, "duration": 140, "velocity": 81}, {"time": 143742, "pitch": 62, "duration": 140, "velocity": 64}, {"time": 143742, "pitch": 67, "duration": 140, "velocity": 77}, {"time": 143752, "pitch": 59, "duration": 130, "velocity": 74}, {"time": 143981, "pitch": 62, "duration": 130, "velocity": 81}, {"time": 143981, "pitch": 67, "duration": 140, "velocity": 87}, {"time": 143991, "pitch": 59, "duration": 130, "velocity": 85}, {"time": 144220, "pitch": 62, "duration": 149, "velocity": 81}, {"time": 144220, "pitch": 67, "duration": 139, "velocity": 73}, {"time": 144230, "pitch": 59, "duration": 139, "velocity": 70}, {"time": 144369, "pitch": 47, "duration": 60, "velocity": 77}, {"time": 144409, "pitch": 40, "duration": 734, "velocity": 85}, {"time": 144439, "pitch": 52, "duration": 714, "velocity": 99}, {"time": 144469, "pitch": 59, "duration": 161, "velocity": 111}, {"time": 144469, "pitch": 62, "duration": 161, "velocity": 111}, {"time": 144469, "pitch": 64, "duration": 151, "velocity": 109}, {"time": 144469, "pitch": 67, "duration": 161, "velocity": 107}, {"time": 144711, "pitch": 62, "duration": 131, "velocity": 60}, {"time": 144721, "pitch": 59, "duration": 142, "velocity": 68}, {"time": 144721, "pitch": 64, "duration": 121, "velocity": 61}, {"time": 144721, "pitch": 67, "duration": 142, "velocity": 64}, {"time": 144953, "pitch": 59, "duration": 100, "velocity": 92}, {"time": 144953, "pitch": 62, "duration": 80, "velocity": 83}, {"time": 144953, "pitch": 64, "duration": 120, "velocity": 85}, {"time": 144953, "pitch": 67, "duration": 140, "velocity": 82}, {"time": 145172, "pitch": 57, "duration": 160, "velocity": 111}, {"time": 145172, "pitch": 61, "duration": 170, "velocity": 117}, {"time": 145172, "pitch": 64, "duration": 150, "velocity": 111}, {"time": 145182, "pitch": 45, "duration": 1201, "velocity": 111}, {"time": 145411, "pitch": 57, "duration": 159, "velocity": 89}, {"time": 145421, "pitch": 61, "duration": 149, "velocity": 95}, {"time": 145421, "pitch": 64, "duration": 159, "velocity": 70}, {"time": 145660, "pitch": 57, "duration": 149, "velocity": 83}, {"time": 145660, "pitch": 61, "duration": 149, "velocity": 95}, {"time": 145660, "pitch": 64, "duration": 159, "velocity": 75}, {"time": 145899, "pitch": 57, "duration": 141, "velocity": 90}, {"time": 145899, "pitch": 64, "duration": 141, "velocity": 87}, {"time": 145909, "pitch": 61, "duration": 151, "velocity": 97}, {"time": 146141, "pitch": 61, "duration": 131, "velocity": 99}, {"time": 146141, "pitch": 64, "duration": 111, "velocity": 82}, {"time": 146151, "pitch": 57, "duration": 162, "velocity": 85}, {"time": 146393, "pitch": 57, "duration": 140, "velocity": 107}, {"time": 146393, "pitch": 66, "duration": 160, "velocity": 115}, {"time": 146403, "pitch": 42, "duration": 680, "velocity": 121}, {"time": 146403, "pitch": 62, "duration": 171, "velocity": 109}, {"time": 146632, "pitch": 66, "duration": 140, "velocity": 92}, {"time": 146642, "pitch": 57, "duration": 130, "velocity": 77}, {"time": 146642, "pitch": 62, "duration": 149, "velocity": 78}, {"time": 146881, "pitch": 57, "duration": 111, "velocity": 86}, {"time": 146881, "pitch": 62, "duration": 141, "velocity": 69}, {"time": 146881, "pitch": 66, "duration": 151, "velocity": 97}, {"time": 147103, "pitch": 43, "duration": 1154, "velocity": 107}, {"time": 147103, "pitch": 59, "duration": 152, "velocity": 109}, {"time": 147103, "pitch": 62, "duration": 162, "velocity": 111}, {"time": 147103, "pitch": 67, "duration": 152, "velocity": 109}, {"time": 147336, "pitch": 62, "duration": 126, "velocity": 81}, {"time": 147336, "pitch": 67, "duration": 136, "velocity": 87}, {"time": 147346, "pitch": 59, "duration": 135, "velocity": 78}, {"time": 147569, "pitch": 59, "duration": 125, "velocity": 77}, {"time": 147569, "pitch": 62, "duration": 125, "velocity": 89}, {"time": 147569, "pitch": 67, "duration": 125, "velocity": 93}, {"time": 147800, "pitch": 59, "duration": 130, "velocity": 90}, {"time": 147800, "pitch": 62, "duration": 130, "velocity": 97}, {"time": 147800, "pitch": 67, "duration": 130, "velocity": 103}, {"time": 148038, "pitch": 62, "duration": 140, "velocity": 89}, {"time": 148048, "pitch": 59, "duration": 109, "velocity": 86}, {"time": 148048, "pitch": 67, "duration": 140, "velocity": 89}, {"time": 148278, "pitch": 45, "duration": 1691, "velocity": 101}, {"time": 148278, "pitch": 57, "duration": 149, "velocity": 111}, {"time": 148278, "pitch": 62, "duration": 149, "velocity": 107}, {"time": 148278, "pitch": 64, "duration": 139, "velocity": 111}, {"time": 148519, "pitch": 57, "duration": 141, "velocity": 87}, {"time": 148519, "pitch": 62, "duration": 131, "velocity": 99}, {"time": 148519, "pitch": 64, "duration": 131, "velocity": 90}, {"time": 148772, "pitch": 57, "duration": 131, "velocity": 95}, {"time": 148772, "pitch": 62, "duration": 131, "velocity": 105}, {"time": 148772, "pitch": 64, "duration": 131, "velocity": 103}, {"time": 149004, "pitch": 57, "duration": 131, "velocity": 92}, {"time": 149004, "pitch": 62, "duration": 131, "velocity": 97}, {"time": 149004, "pitch": 64, "duration": 141, "velocity": 92}, {"time": 149246, "pitch": 33, "duration": 723, "velocity": 97}, {"time": 149246, "pitch": 57, "duration": 140, "velocity": 103}, {"time": 149246, "pitch": 61, "duration": 150, "velocity": 117}, {"time": 149246, "pitch": 64, "duration": 160, "velocity": 113}, {"time": 149485, "pitch": 64, "duration": 140, "velocity": 87}, {"time": 149495, "pitch": 57, "duration": 110, "velocity": 77}, {"time": 149495, "pitch": 61, "duration": 120, "velocity": 97}, {"time": 149724, "pitch": 64, "duration": 132, "velocity": 99}, {"time": 149734, "pitch": 57, "duration": 122, "velocity": 101}, {"time": 149734, "pitch": 61, "duration": 132, "velocity": 111}, {"time": 149969, "pitch": 57, "duration": 133, "velocity": 93}, {"time": 149969, "pitch": 61, "duration": 164, "velocity": 101}, {"time": 149969, "pitch": 64, "duration": 143, "velocity": 93}, {"time": 150133, "pitch": 30, "duration": 657, "velocity": 115}, {"time": 150174, "pitch": 42, "duration": 667, "velocity": 105}, {"time": 150205, "pitch": 57, "duration": 148, "velocity": 99}, {"time": 150205, "pitch": 62, "duration": 148, "velocity": 103}, {"time": 150205, "pitch": 66, "duration": 155, "velocity": 121}, {"time": 150449, "pitch": 66, "duration": 107, "velocity": 92}, {"time": 150457, "pitch": 57, "duration": 117, "velocity": 83}, {"time": 150457, "pitch": 62, "duration": 136, "velocity": 82}, {"time": 150681, "pitch": 62, "duration": 180, "velocity": 87}, {"time": 150681, "pitch": 66, "duration": 190, "velocity": 97}, {"time": 150690, "pitch": 57, "duration": 151, "velocity": 95}, {"time": 150871, "pitch": 31, "duration": 1136, "velocity": 92}, {"time": 150880, "pitch": 32, "duration": 10, "velocity": 77}, {"time": 150890, "pitch": 43, "duration": 1169, "velocity": 89}, {"time": 150921, "pitch": 59, "duration": 161, "velocity": 121}, {"time": 150921, "pitch": 62, "duration": 171, "velocity": 121}, {"time": 150921, "pitch": 67, "duration": 161, "velocity": 107}, {"time": 151174, "pitch": 59, "duration": 141, "velocity": 87}, {"time": 151174, "pitch": 62, "duration": 131, "velocity": 86}, {"time": 151174, "pitch": 67, "duration": 131, "velocity": 93}, {"time": 151416, "pitch": 59, "duration": 141, "velocity": 81}, {"time": 151416, "pitch": 62, "duration": 141, "velocity": 86}, {"time": 151416, "pitch": 67, "duration": 151, "velocity": 95}, {"time": 151669, "pitch": 59, "duration": 122, "velocity": 92}, {"time": 151669, "pitch": 62, "duration": 133, "velocity": 97}, {"time": 151669, "pitch": 67, "duration": 133, "velocity": 95}, {"time": 151915, "pitch": 62, "duration": 133, "velocity": 86}, {"time": 151915, "pitch": 67, "duration": 153, "velocity": 89}, {"time": 151925, "pitch": 59, "duration": 134, "velocity": 89}, {"time": 152059, "pitch": 40, "duration": 40, "velocity": 64}, {"time": 152099, "pitch": 33, "duration": 617, "velocity": 101}, {"time": 152120, "pitch": 45, "duration": 616, "velocity": 113}, {"time": 152150, "pitch": 57, "duration": 171, "velocity": 109}, {"time": 152150, "pitch": 61, "duration": 171, "velocity": 117}, {"time": 152150, "pitch": 64, "duration": 163, "velocity": 117}, {"time": 152409, "pitch": 57, "duration": 133, "velocity": 82}, {"time": 152409, "pitch": 61, "duration": 112, "velocity": 83}, {"time": 152409, "pitch": 64, "duration": 142, "velocity": 85}, {"time": 152627, "pitch": 64, "duration": 70, "velocity": 81}, {"time": 152637, "pitch": 57, "duration": 89, "velocity": 92}, {"time": 152637, "pitch": 61, "duration": 119, "velocity": 103}, {"time": 152856, "pitch": 34, "duration": 1082, "velocity": 107}, {"time": 152856, "pitch": 46, "duration": 1111, "velocity": 107}, {"time": 152856, "pitch": 58, "duration": 139, "velocity": 115}, {"time": 152856, "pitch": 61, "duration": 159, "velocity": 111}, {"time": 152856, "pitch": 66, "duration": 139, "velocity": 107}, {"time": 152866, "pitch": 64, "duration": 139, "velocity": 103}, {"time": 153085, "pitch": 58, "duration": 131, "velocity": 82}, {"time": 153095, "pitch": 61, "duration": 121, "velocity": 89}, {"time": 153095, "pitch": 64, "duration": 121, "velocity": 81}, {"time": 153095, "pitch": 66, "duration": 141, "velocity": 83}, {"time": 153337, "pitch": 58, "duration": 111, "velocity": 95}, {"time": 153337, "pitch": 66, "duration": 121, "velocity": 90}, {"time": 153347, "pitch": 61, "duration": 111, "velocity": 93}, {"time": 153347, "pitch": 64, "duration": 111, "velocity": 93}, {"time": 153579, "pitch": 58, "duration": 120, "velocity": 103}, {"time": 153579, "pitch": 61, "duration": 150, "velocity": 109}, {"time": 153579, "pitch": 66, "duration": 130, "velocity": 99}, {"time": 153589, "pitch": 64, "duration": 110, "velocity": 97}, {"time": 153818, "pitch": 58, "duration": 139, "velocity": 101}, {"time": 153818, "pitch": 61, "duration": 139, "velocity": 103}, {"time": 153828, "pitch": 66, "duration": 149, "velocity": 95}, {"time": 153838, "pitch": 64, "duration": 149, "velocity": 97}, {"time": 153967, "pitch": 42, "duration": 10, "velocity": 52}, {"time": 154007, "pitch": 35, "duration": 718, "velocity": 101}, {"time": 154027, "pitch": 47, "duration": 717, "velocity": 90}, {"time": 154047, "pitch": 66, "duration": 185, "velocity": 111}, {"time": 154057, "pitch": 59, "duration": 155, "velocity": 115}, {"time": 154057, "pitch": 62, "duration": 165, "velocity": 113}, {"time": 154295, "pitch": 66, "duration": 104, "velocity": 95}, {"time": 154305, "pitch": 59, "duration": 104, "velocity": 86}, {"time": 154305, "pitch": 62, "duration": 125, "velocity": 83}, {"time": 154535, "pitch": 66, "duration": 150, "velocity": 97}, {"time": 154545, "pitch": 59, "duration": 110, "velocity": 93}, {"time": 154545, "pitch": 62, "duration": 120, "velocity": 93}, {"time": 154775, "pitch": 43, "duration": 1170, "velocity": 115}, {"time": 154775, "pitch": 59, "duration": 149, "velocity": 111}, {"time": 154775, "pitch": 62, "duration": 149, "velocity": 113}, {"time": 154775, "pitch": 67, "duration": 149, "velocity": 107}, {"time": 155004, "pitch": 59, "duration": 129, "velocity": 85}, {"time": 155004, "pitch": 62, "duration": 149, "velocity": 87}, {"time": 155004, "pitch": 67, "duration": 139, "velocity": 86}, {"time": 155232, "pitch": 62, "duration": 140, "velocity": 83}, {"time": 155232, "pitch": 67, "duration": 130, "velocity": 90}, {"time": 155242, "pitch": 59, "duration": 130, "velocity": 82}, {"time": 155481, "pitch": 67, "duration": 140, "velocity": 105}, {"time": 155491, "pitch": 59, "duration": 120, "velocity": 93}, {"time": 155491, "pitch": 62, "duration": 141, "velocity": 95}, {"time": 155733, "pitch": 62, "duration": 141, "velocity": 87}, {"time": 155733, "pitch": 67, "duration": 121, "velocity": 95}, {"time": 155743, "pitch": 59, "duration": 111, "velocity": 85}, {"time": 155976, "pitch": 45, "duration": 1876, "velocity": 117}, {"time": 155976, "pitch": 57, "duration": 159, "velocity": 115}, {"time": 155976, "pitch": 62, "duration": 159, "velocity": 113}, {"time": 155976, "pitch": 64, "duration": 149, "velocity": 115}, {"time": 155976, "pitch": 69, "duration": 139, "velocity": 109}, {"time": 156215, "pitch": 57, "duration": 149, "velocity": 77}, {"time": 156215, "pitch": 62, "duration": 139, "velocity": 81}, {"time": 156215, "pitch": 64, "duration": 139, "velocity": 68}, {"time": 156215, "pitch": 69, "duration": 129, "velocity": 71}, {"time": 156463, "pitch": 62, "duration": 120, "velocity": 99}, {"time": 156463, "pitch": 64, "duration": 120, "velocity": 99}, {"time": 156463, "pitch": 69, "duration": 120, "velocity": 101}, {"time": 156473, "pitch": 57, "duration": 130, "velocity": 93}, {"time": 156702, "pitch": 57, "duration": 129, "velocity": 101}, {"time": 156702, "pitch": 62, "duration": 119, "velocity": 105}, {"time": 156702, "pitch": 64, "duration": 129, "velocity": 105}, {"time": 156702, "pitch": 69, "duration": 119, "velocity": 95}, {"time": 156931, "pitch": 57, "duration": 139, "velocity": 111}, {"time": 156931, "pitch": 61, "duration": 139, "velocity": 119}, {"time": 156931, "pitch": 64, "duration": 129, "velocity": 111}, {"time": 156931, "pitch": 69, "duration": 129, "velocity": 93}, {"time": 156941, "pitch": 33, "duration": 922, "velocity": 105}, {"time": 157170, "pitch": 61, "duration": 129, "velocity": 92}, {"time": 157170, "pitch": 69, "duration": 139, "velocity": 83}, {"time": 157180, "pitch": 57, "duration": 119, "velocity": 80}, {"time": 157180, "pitch": 64, "duration": 109, "velocity": 85}, {"time": 157409, "pitch": 61, "duration": 110, "velocity": 103}, {"time": 157409, "pitch": 64, "duration": 110, "velocity": 99}, {"time": 157409, "pitch": 69, "duration": 130, "velocity": 90}, {"time": 157418, "pitch": 57, "duration": 121, "velocity": 97}, {"time": 157661, "pitch": 57, "duration": 111, "velocity": 101}, {"time": 157661, "pitch": 61, "duration": 111, "velocity": 107}, {"time": 157661, "pitch": 64, "duration": 111, "velocity": 90}, {"time": 157661, "pitch": 69, "duration": 121, "velocity": 92}, {"time": 157893, "pitch": 57, "duration": 140, "velocity": 111}, {"time": 157893, "pitch": 62, "duration": 160, "velocity": 115}, {"time": 157893, "pitch": 66, "duration": 140, "velocity": 115}, {"time": 157893, "pitch": 69, "duration": 150, "velocity": 105}, {"time": 157903, "pitch": 38, "duration": 677, "velocity": 111}, {"time": 158142, "pitch": 57, "duration": 110, "velocity": 87}, {"time": 158142, "pitch": 62, "duration": 110, "velocity": 87}, {"time": 158142, "pitch": 66, "duration": 100, "velocity": 90}, {"time": 158142, "pitch": 69, "duration": 100, "velocity": 76}, {"time": 158361, "pitch": 66, "duration": 129, "velocity": 92}, {"time": 158361, "pitch": 69, "duration": 99, "velocity": 82}, {"time": 158371, "pitch": 57, "duration": 109, "velocity": 95}, {"time": 158371, "pitch": 62, "duration": 129, "velocity": 89}, {"time": 158600, "pitch": 43, "duration": 1131, "velocity": 117}, {"time": 158610, "pitch": 59, "duration": 149, "velocity": 113}, {"time": 158610, "pitch": 62, "duration": 149, "velocity": 119}, {"time": 158610, "pitch": 67, "duration": 149, "velocity": 115}, {"time": 158858, "pitch": 59, "duration": 131, "velocity": 90}, {"time": 158858, "pitch": 62, "duration": 142, "velocity": 97}, {"time": 158858, "pitch": 67, "duration": 142, "velocity": 90}, {"time": 159090, "pitch": 62, "duration": 122, "velocity": 82}, {"time": 159101, "pitch": 59, "duration": 111, "velocity": 72}, {"time": 159101, "pitch": 67, "duration": 111, "velocity": 85}, {"time": 159343, "pitch": 59, "duration": 100, "velocity": 105}, {"time": 159343, "pitch": 62, "duration": 110, "velocity": 113}, {"time": 159343, "pitch": 67, "duration": 110, "velocity": 111}, {"time": 159582, "pitch": 67, "duration": 129, "velocity": 99}, {"time": 159592, "pitch": 59, "duration": 129, "velocity": 89}, {"time": 159592, "pitch": 62, "duration": 129, "velocity": 105}, {"time": 159721, "pitch": 47, "duration": 50, "velocity": 93}, {"time": 159761, "pitch": 40, "duration": 739, "velocity": 90}, {"time": 159801, "pitch": 52, "duration": 719, "velocity": 93}, {"time": 159821, "pitch": 59, "duration": 149, "velocity": 107}, {"time": 159821, "pitch": 62, "duration": 149, "velocity": 111}, {"time": 159821, "pitch": 67, "duration": 149, "velocity": 105}, {"time": 159831, "pitch": 64, "duration": 149, "velocity": 107}, {"time": 160070, "pitch": 64, "duration": 99, "velocity": 74}, {"time": 160070, "pitch": 67, "duration": 119, "velocity": 82}, {"time": 160080, "pitch": 59, "duration": 109, "velocity": 75}, {"time": 160080, "pitch": 62, "duration": 99, "velocity": 75}, {"time": 160308, "pitch": 62, "duration": 81, "velocity": 82}, {"time": 160308, "pitch": 64, "duration": 121, "velocity": 81}, {"time": 160308, "pitch": 67, "duration": 111, "velocity": 90}, {"time": 160318, "pitch": 59, "duration": 101, "velocity": 86}, {"time": 160541, "pitch": 57, "duration": 151, "velocity": 111}, {"time": 160541, "pitch": 61, "duration": 151, "velocity": 117}, {"time": 160541, "pitch": 64, "duration": 151, "velocity": 115}, {"time": 160541, "pitch": 69, "duration": 151, "velocity": 101}, {"time": 160551, "pitch": 45, "duration": 929, "velocity": 109}, {"time": 160793, "pitch": 57, "duration": 129, "velocity": 97}, {"time": 160793, "pitch": 61, "duration": 120, "velocity": 95}, {"time": 160793, "pitch": 64, "duration": 120, "velocity": 92}, {"time": 160793, "pitch": 69, "duration": 120, "velocity": 87}, {"time": 161032, "pitch": 61, "duration": 99, "velocity": 85}, {"time": 161032, "pitch": 64, "duration": 99, "velocity": 80}, {"time": 161032, "pitch": 69, "duration": 109, "velocity": 86}, {"time": 161042, "pitch": 57, "duration": 109, "velocity": 83}, {"time": 161271, "pitch": 57, "duration": 109, "velocity": 92}, {"time": 161271, "pitch": 61, "duration": 109, "velocity": 103}, {"time": 161271, "pitch": 64, "duration": 89, "velocity": 92}, {"time": 161271, "pitch": 69, "duration": 109, "velocity": 87}, {"time": 161510, "pitch": 43, "duration": 179, "velocity": 90}, {"time": 161510, "pitch": 57, "duration": 119, "velocity": 93}, {"time": 161510, "pitch": 61, "duration": 129, "velocity": 105}, {"time": 161510, "pitch": 64, "duration": 119, "velocity": 90}, {"time": 161510, "pitch": 69, "duration": 129, "velocity": 89}, {"time": 161738, "pitch": 42, "duration": 694, "velocity": 121}, {"time": 161748, "pitch": 57, "duration": 131, "velocity": 109}, {"time": 161748, "pitch": 62, "duration": 131, "velocity": 113}, {"time": 161748, "pitch": 66, "duration": 131, "velocity": 117}, {"time": 161748, "pitch": 69, "duration": 131, "velocity": 105}, {"time": 161991, "pitch": 57, "duration": 121, "velocity": 81}, {"time": 161991, "pitch": 62, "duration": 111, "velocity": 77}, {"time": 161991, "pitch": 66, "duration": 111, "velocity": 90}, {"time": 161991, "pitch": 69, "duration": 111, "velocity": 78}, {"time": 162223, "pitch": 57, "duration": 129, "velocity": 87}, {"time": 162223, "pitch": 62, "duration": 129, "velocity": 78}, {"time": 162223, "pitch": 66, "duration": 129, "velocity": 90}, {"time": 162223, "pitch": 69, "duration": 110, "velocity": 77}, {"time": 162452, "pitch": 43, "duration": 1181, "velocity": 113}, {"time": 162462, "pitch": 59, "duration": 129, "velocity": 107}, {"time": 162462, "pitch": 62, "duration": 129, "velocity": 113}, {"time": 162462, "pitch": 67, "duration": 139, "velocity": 113}, {"time": 162701, "pitch": 59, "duration": 109, "velocity": 82}, {"time": 162701, "pitch": 62, "duration": 119, "velocity": 86}, {"time": 162701, "pitch": 67, "duration": 119, "velocity": 95}, {"time": 162930, "pitch": 62, "duration": 109, "velocity": 80}, {"time": 162940, "pitch": 67, "duration": 119, "velocity": 83}, {"time": 162949, "pitch": 59, "duration": 90, "velocity": 62}, {"time": 163188, "pitch": 59, "duration": 111, "velocity": 86}, {"time": 163188, "pitch": 62, "duration": 101, "velocity": 103}, {"time": 163188, "pitch": 67, "duration": 111, "velocity": 107}, {"time": 163420, "pitch": 59, "duration": 101, "velocity": 85}, {"time": 163420, "pitch": 62, "duration": 122, "velocity": 86}, {"time": 163420, "pitch": 67, "duration": 101, "velocity": 92}, {"time": 163643, "pitch": 45, "duration": 1739, "velocity": 95}, {"time": 163653, "pitch": 57, "duration": 159, "velocity": 113}, {"time": 163653, "pitch": 62, "duration": 159, "velocity": 113}, {"time": 163653, "pitch": 64, "duration": 149, "velocity": 115}, {"time": 163653, "pitch": 69, "duration": 149, "velocity": 113}, {"time": 163912, "pitch": 57, "duration": 119, "velocity": 82}, {"time": 163912, "pitch": 62, "duration": 109, "velocity": 81}, {"time": 163912, "pitch": 64, "duration": 109, "velocity": 85}, {"time": 163912, "pitch": 69, "duration": 109, "velocity": 82}, {"time": 164151, "pitch": 57, "duration": 119, "velocity": 99}, {"time": 164151, "pitch": 62, "duration": 109, "velocity": 97}, {"time": 164151, "pitch": 64, "duration": 109, "velocity": 103}, {"time": 164151, "pitch": 69, "duration": 109, "velocity": 92}, {"time": 164380, "pitch": 57, "duration": 109, "velocity": 97}, {"time": 164380, "pitch": 62, "duration": 99, "velocity": 95}, {"time": 164380, "pitch": 64, "duration": 99, "velocity": 99}, {"time": 164380, "pitch": 69, "duration": 99, "velocity": 87}, {"time": 164618, "pitch": 33, "duration": 734, "velocity": 103}, {"time": 164618, "pitch": 57, "duration": 131, "velocity": 109}, {"time": 164618, "pitch": 61, "duration": 141, "velocity": 117}, {"time": 164618, "pitch": 64, "duration": 131, "velocity": 111}, {"time": 164618, "pitch": 69, "duration": 141, "velocity": 99}, {"time": 164860, "pitch": 57, "duration": 122, "velocity": 85}, {"time": 164860, "pitch": 61, "duration": 122, "velocity": 95}, {"time": 164860, "pitch": 64, "duration": 101, "velocity": 86}, {"time": 164860, "pitch": 69, "duration": 122, "velocity": 83}, {"time": 165103, "pitch": 57, "duration": 119, "velocity": 101}, {"time": 165103, "pitch": 61, "duration": 119, "velocity": 109}, {"time": 165103, "pitch": 69, "duration": 119, "velocity": 92}, {"time": 165113, "pitch": 64, "duration": 90, "velocity": 97}, {"time": 165342, "pitch": 57, "duration": 129, "velocity": 92}, {"time": 165342, "pitch": 61, "duration": 139, "velocity": 99}, {"time": 165342, "pitch": 64, "duration": 139, "velocity": 87}, {"time": 165342, "pitch": 69, "duration": 139, "velocity": 86}, {"time": 165491, "pitch": 30, "duration": 698, "velocity": 111}, {"time": 165551, "pitch": 42, "duration": 669, "velocity": 103}, {"time": 165581, "pitch": 57, "duration": 129, "velocity": 113}, {"time": 165581, "pitch": 66, "duration": 129, "velocity": 115}, {"time": 165581, "pitch": 69, "duration": 139, "velocity": 93}, {"time": 165591, "pitch": 62, "duration": 119, "velocity": 115}, {"time": 165810, "pitch": 57, "duration": 119, "velocity": 80}, {"time": 165819, "pitch": 62, "duration": 130, "velocity": 77}, {"time": 165819, "pitch": 66, "duration": 110, "velocity": 89}, {"time": 165819, "pitch": 69, "duration": 120, "velocity": 68}, {"time": 166058, "pitch": 57, "duration": 131, "velocity": 95}, {"time": 166058, "pitch": 62, "duration": 162, "velocity": 92}, {"time": 166058, "pitch": 66, "duration": 162, "velocity": 90}, {"time": 166058, "pitch": 69, "duration": 121, "velocity": 81}, {"time": 166220, "pitch": 38, "duration": 20, "velocity": 53}, {"time": 166240, "pitch": 31, "duration": 1079, "velocity": 99}, {"time": 166260, "pitch": 32, "duration": 10, "velocity": 71}, {"time": 166260, "pitch": 43, "duration": 1119, "velocity": 90}, {"time": 166290, "pitch": 59, "duration": 142, "velocity": 115}, {"time": 166290, "pitch": 62, "duration": 152, "velocity": 117}, {"time": 166290, "pitch": 67, "duration": 152, "velocity": 109}, {"time": 166533, "pitch": 59, "duration": 119, "velocity": 75}, {"time": 166533, "pitch": 62, "duration": 119, "velocity": 75}, {"time": 166533, "pitch": 67, "duration": 129, "velocity": 83}, {"time": 166762, "pitch": 62, "duration": 129, "velocity": 92}, {"time": 166762, "pitch": 67, "duration": 139, "velocity": 92}, {"time": 166772, "pitch": 59, "duration": 129, "velocity": 86}, {"time": 167021, "pitch": 59, "duration": 129, "velocity": 83}, {"time": 167021, "pitch": 62, "duration": 139, "velocity": 95}, {"time": 167021, "pitch": 67, "duration": 139, "velocity": 93}, {"time": 167259, "pitch": 67, "duration": 160, "velocity": 89}, {"time": 167269, "pitch": 59, "duration": 140, "velocity": 93}, {"time": 167269, "pitch": 62, "duration": 140, "velocity": 95}, {"time": 167389, "pitch": 40, "duration": 50, "velocity": 68}, {"time": 167419, "pitch": 33, "duration": 584, "velocity": 93}, {"time": 167458, "pitch": 45, "duration": 585, "velocity": 99}, {"time": 167498, "pitch": 57, "duration": 151, "velocity": 109}, {"time": 167498, "pitch": 61, "duration": 151, "velocity": 117}, {"time": 167498, "pitch": 64, "duration": 162, "velocity": 113}, {"time": 167740, "pitch": 64, "duration": 152, "velocity": 76}, {"time": 167750, "pitch": 57, "duration": 122, "velocity": 70}, {"time": 167750, "pitch": 61, "duration": 112, "velocity": 90}, {"time": 167973, "pitch": 64, "duration": 60, "velocity": 75}, {"time": 167983, "pitch": 57, "duration": 80, "velocity": 86}, {"time": 167993, "pitch": 61, "duration": 80, "velocity": 90}, {"time": 168212, "pitch": 34, "duration": 1089, "velocity": 111}, {"time": 168222, "pitch": 46, "duration": 1120, "velocity": 113}, {"time": 168222, "pitch": 58, "duration": 129, "velocity": 115}, {"time": 168222, "pitch": 61, "duration": 129, "velocity": 107}, {"time": 168222, "pitch": 64, "duration": 119, "velocity": 99}, {"time": 168222, "pitch": 66, "duration": 139, "velocity": 93}, {"time": 168461, "pitch": 58, "duration": 99, "velocity": 97}, {"time": 168461, "pitch": 61, "duration": 89, "velocity": 95}, {"time": 168461, "pitch": 64, "duration": 99, "velocity": 90}, {"time": 168461, "pitch": 66, "duration": 99, "velocity": 92}, {"time": 168709, "pitch": 58, "duration": 100, "velocity": 93}, {"time": 168709, "pitch": 61, "duration": 90, "velocity": 95}, {"time": 168709, "pitch": 64, "duration": 90, "velocity": 83}, {"time": 168709, "pitch": 66, "duration": 110, "velocity": 93}, {"time": 168948, "pitch": 58, "duration": 101, "velocity": 105}, {"time": 168948, "pitch": 61, "duration": 91, "velocity": 105}, {"time": 168948, "pitch": 64, "duration": 81, "velocity": 95}, {"time": 168948, "pitch": 66, "duration": 101, "velocity": 95}, {"time": 169190, "pitch": 58, "duration": 111, "velocity": 97}, {"time": 169190, "pitch": 61, "duration": 111, "velocity": 99}, {"time": 169200, "pitch": 64, "duration": 162, "velocity": 92}, {"time": 169200, "pitch": 66, "duration": 122, "velocity": 90}, {"time": 169312, "pitch": 42, "duration": 50, "velocity": 86}, {"time": 169372, "pitch": 35, "duration": 678, "velocity": 93}, {"time": 169382, "pitch": 47, "duration": 708, "velocity": 87}, {"time": 169423, "pitch": 66, "duration": 169, "velocity": 103}, {"time": 169433, "pitch": 59, "duration": 129, "velocity": 117}, {"time": 169433, "pitch": 62, "duration": 159, "velocity": 111}, {"time": 169662, "pitch": 66, "duration": 109, "velocity": 95}, {"time": 169672, "pitch": 59, "duration": 109, "velocity": 80}, {"time": 169672, "pitch": 62, "duration": 129, "velocity": 85}, {"time": 169901, "pitch": 66, "duration": 119, "velocity": 95}, {"time": 169911, "pitch": 59, "duration": 89, "velocity": 92}, {"time": 169911, "pitch": 62, "duration": 109, "velocity": 92}, {"time": 170119, "pitch": 43, "duration": 1172, "velocity": 115}, {"time": 170129, "pitch": 59, "duration": 150, "velocity": 115}, {"time": 170129, "pitch": 62, "duration": 160, "velocity": 119}, {"time": 170129, "pitch": 67, "duration": 150, "velocity": 119}, {"time": 170368, "pitch": 59, "duration": 111, "velocity": 76}, {"time": 170368, "pitch": 62, "duration": 131, "velocity": 80}, {"time": 170368, "pitch": 67, "duration": 131, "velocity": 83}, {"time": 170600, "pitch": 62, "duration": 131, "velocity": 81}, {"time": 170610, "pitch": 59, "duration": 121, "velocity": 75}, {"time": 170610, "pitch": 67, "duration": 131, "velocity": 81}, {"time": 170842, "pitch": 59, "duration": 110, "velocity": 90}, {"time": 170842, "pitch": 62, "duration": 130, "velocity": 93}, {"time": 170842, "pitch": 67, "duration": 130, "velocity": 103}, {"time": 171072, "pitch": 62, "duration": 159, "velocity": 87}, {"time": 171082, "pitch": 59, "duration": 109, "velocity": 85}, {"time": 171082, "pitch": 67, "duration": 129, "velocity": 89}, {"time": 171311, "pitch": 45, "duration": 1887, "velocity": 107}, {"time": 171311, "pitch": 57, "duration": 149, "velocity": 99}, {"time": 171311, "pitch": 62, "duration": 149, "velocity": 99}, {"time": 171311, "pitch": 64, "duration": 139, "velocity": 105}, {"time": 171311, "pitch": 69, "duration": 129, "velocity": 97}, {"time": 171549, "pitch": 57, "duration": 140, "velocity": 78}, {"time": 171549, "pitch": 64, "duration": 130, "velocity": 82}, {"time": 171559, "pitch": 62, "duration": 130, "velocity": 80}, {"time": 171559, "pitch": 69, "duration": 120, "velocity": 85}, {"time": 171808, "pitch": 57, "duration": 131, "velocity": 105}, {"time": 171808, "pitch": 62, "duration": 131, "velocity": 107}, {"time": 171808, "pitch": 64, "duration": 111, "velocity": 105}, {"time": 171808, "pitch": 69, "duration": 121, "velocity": 101}, {"time": 172040, "pitch": 57, "duration": 121, "velocity": 101}, {"time": 172040, "pitch": 62, "duration": 121, "velocity": 103}, {"time": 172040, "pitch": 64, "duration": 121, "velocity": 103}, {"time": 172040, "pitch": 69, "duration": 121, "velocity": 99}, {"time": 172282, "pitch": 33, "duration": 906, "velocity": 113}, {"time": 172282, "pitch": 57, "duration": 140, "velocity": 113}, {"time": 172282, "pitch": 61, "duration": 140, "velocity": 119}, {"time": 172282, "pitch": 64, "duration": 130, "velocity": 117}, {"time": 172282, "pitch": 69, "duration": 140, "velocity": 105}, {"time": 172522, "pitch": 57, "duration": 139, "velocity": 99}, {"time": 172522, "pitch": 61, "duration": 129, "velocity": 107}, {"time": 172522, "pitch": 69, "duration": 129, "velocity": 92}, {"time": 172532, "pitch": 64, "duration": 119, "velocity": 99}, {"time": 172771, "pitch": 57, "duration": 109, "velocity": 107}, {"time": 172771, "pitch": 61, "duration": 109, "velocity": 111}, {"time": 172771, "pitch": 64, "duration": 109, "velocity": 113}, {"time": 172771, "pitch": 69, "duration": 119, "velocity": 99}, {"time": 173009, "pitch": 57, "duration": 120, "velocity": 107}, {"time": 173009, "pitch": 61, "duration": 120, "velocity": 115}, {"time": 173009, "pitch": 64, "duration": 120, "velocity": 109}, {"time": 173009, "pitch": 69, "duration": 130, "velocity": 95}, {"time": 173238, "pitch": 38, "duration": 704, "velocity": 109}, {"time": 173238, "pitch": 57, "duration": 141, "velocity": 115}, {"time": 173238, "pitch": 62, "duration": 141, "velocity": 123}, {"time": 173238, "pitch": 66, "duration": 141, "velocity": 121}, {"time": 173238, "pitch": 69, "duration": 141, "velocity": 111}, {"time": 173470, "pitch": 57, "duration": 141, "velocity": 90}, {"time": 173470, "pitch": 62, "duration": 131, "velocity": 89}, {"time": 173470, "pitch": 66, "duration": 121, "velocity": 92}, {"time": 173470, "pitch": 69, "duration": 131, "velocity": 82}, {"time": 173722, "pitch": 57, "duration": 110, "velocity": 95}, {"time": 173722, "pitch": 62, "duration": 120, "velocity": 89}, {"time": 173722, "pitch": 66, "duration": 120, "velocity": 95}, {"time": 173722, "pitch": 69, "duration": 100, "velocity": 89}, {"time": 173962, "pitch": 43, "duration": 1109, "velocity": 123}, {"time": 173972, "pitch": 59, "duration": 139, "velocity": 115}, {"time": 173972, "pitch": 62, "duration": 149, "velocity": 123}, {"time": 173972, "pitch": 67, "duration": 149, "velocity": 117}, {"time": 174211, "pitch": 67, "duration": 109, "velocity": 86}, {"time": 174220, "pitch": 59, "duration": 100, "velocity": 77}, {"time": 174220, "pitch": 62, "duration": 100, "velocity": 86}, {"time": 174449, "pitch": 59, "duration": 90, "velocity": 82}, {"time": 174449, "pitch": 62, "duration": 90, "velocity": 95}, {"time": 174449, "pitch": 67, "duration": 100, "velocity": 90}, {"time": 174688, "pitch": 67, "duration": 121, "velocity": 111}, {"time": 174698, "pitch": 59, "duration": 111, "velocity": 105}, {"time": 174698, "pitch": 62, "duration": 111, "velocity": 113}, {"time": 174940, "pitch": 62, "duration": 111, "velocity": 99}, {"time": 174940, "pitch": 67, "duration": 111, "velocity": 90}, {"time": 174950, "pitch": 59, "duration": 111, "velocity": 83}, {"time": 175061, "pitch": 47, "duration": 61, "velocity": 89}, {"time": 175112, "pitch": 40, "duration": 737, "velocity": 87}, {"time": 175142, "pitch": 52, "duration": 717, "velocity": 97}, {"time": 175172, "pitch": 59, "duration": 130, "velocity": 113}, {"time": 175172, "pitch": 62, "duration": 140, "velocity": 119}, {"time": 175172, "pitch": 67, "duration": 130, "velocity": 113}, {"time": 175183, "pitch": 64, "duration": 139, "velocity": 113}, {"time": 175422, "pitch": 59, "duration": 109, "velocity": 76}, {"time": 175422, "pitch": 62, "duration": 99, "velocity": 77}, {"time": 175422, "pitch": 64, "duration": 99, "velocity": 78}, {"time": 175422, "pitch": 67, "duration": 109, "velocity": 80}, {"time": 175650, "pitch": 67, "duration": 130, "velocity": 86}, {"time": 175660, "pitch": 59, "duration": 110, "velocity": 83}, {"time": 175660, "pitch": 62, "duration": 90, "velocity": 76}, {"time": 175660, "pitch": 64, "duration": 90, "velocity": 73}, {"time": 175889, "pitch": 45, "duration": 953, "velocity": 107}, {"time": 175889, "pitch": 64, "duration": 150, "velocity": 115}, {"time": 175899, "pitch": 57, "duration": 140, "velocity": 101}, {"time": 175899, "pitch": 61, "duration": 149, "velocity": 119}, {"time": 176148, "pitch": 57, "duration": 101, "velocity": 87}, {"time": 176148, "pitch": 61, "duration": 101, "velocity": 93}, {"time": 176148, "pitch": 64, "duration": 111, "velocity": 85}, {"time": 176380, "pitch": 61, "duration": 101, "velocity": 95}, {"time": 176380, "pitch": 64, "duration": 111, "velocity": 93}, {"time": 176390, "pitch": 57, "duration": 101, "velocity": 82}, {"time": 176633, "pitch": 57, "duration": 89, "velocity": 93}, {"time": 176633, "pitch": 61, "duration": 99, "velocity": 111}, {"time": 176633, "pitch": 64, "duration": 109, "velocity": 99}, {"time": 176862, "pitch": 61, "duration": 139, "velocity": 107}, {"time": 176862, "pitch": 64, "duration": 129, "velocity": 97}, {"time": 176872, "pitch": 57, "duration": 119, "velocity": 92}, {"time": 176881, "pitch": 43, "duration": 190, "velocity": 105}, {"time": 177090, "pitch": 42, "duration": 710, "velocity": 125}, {"time": 177100, "pitch": 57, "duration": 130, "velocity": 101}, {"time": 177100, "pitch": 66, "duration": 140, "velocity": 119}, {"time": 177110, "pitch": 62, "duration": 120, "velocity": 109}, {"time": 177349, "pitch": 57, "duration": 110, "velocity": 74}, {"time": 177349, "pitch": 62, "duration": 100, "velocity": 76}, {"time": 177349, "pitch": 66, "duration": 110, "velocity": 87}, {"time": 177578, "pitch": 62, "duration": 101, "velocity": 86}, {"time": 177588, "pitch": 57, "duration": 81, "velocity": 99}, {"time": 177588, "pitch": 66, "duration": 111, "velocity": 95}, {"time": 177820, "pitch": 43, "duration": 1174, "velocity": 115}, {"time": 177820, "pitch": 59, "duration": 131, "velocity": 117}, {"time": 177820, "pitch": 62, "duration": 131, "velocity": 123}, {"time": 177820, "pitch": 67, "duration": 131, "velocity": 117}, {"time": 178073, "pitch": 59, "duration": 99, "velocity": 82}, {"time": 178073, "pitch": 62, "duration": 99, "velocity": 89}, {"time": 178073, "pitch": 67, "duration": 109, "velocity": 99}, {"time": 178312, "pitch": 59, "duration": 89, "velocity": 82}, {"time": 178312, "pitch": 62, "duration": 89, "velocity": 93}, {"time": 178312, "pitch": 67, "duration": 99, "velocity": 90}, {"time": 178550, "pitch": 59, "duration": 101, "velocity": 97}, {"time": 178550, "pitch": 62, "duration": 101, "velocity": 111}, {"time": 178550, "pitch": 67, "duration": 111, "velocity": 111}, {"time": 178772, "pitch": 62, "duration": 112, "velocity": 107}, {"time": 178772, "pitch": 67, "duration": 102, "velocity": 95}, {"time": 178782, "pitch": 59, "duration": 102, "velocity": 95}, {"time": 179005, "pitch": 45, "duration": 1665, "velocity": 107}, {"time": 179005, "pitch": 57, "duration": 129, "velocity": 113}, {"time": 179005, "pitch": 62, "duration": 129, "velocity": 117}, {"time": 179005, "pitch": 64, "duration": 129, "velocity": 109}, {"time": 179251, "pitch": 57, "duration": 117, "velocity": 95}, {"time": 179251, "pitch": 62, "duration": 107, "velocity": 101}, {"time": 179251, "pitch": 64, "duration": 107, "velocity": 95}, {"time": 179485, "pitch": 57, "duration": 110, "velocity": 103}, {"time": 179485, "pitch": 62, "duration": 100, "velocity": 107}, {"time": 179485, "pitch": 64, "duration": 100, "velocity": 105}, {"time": 179715, "pitch": 57, "duration": 119, "velocity": 97}, {"time": 179715, "pitch": 62, "duration": 109, "velocity": 97}, {"time": 179715, "pitch": 64, "duration": 109, "velocity": 93}, {"time": 179943, "pitch": 33, "duration": 717, "velocity": 97}, {"time": 179943, "pitch": 61, "duration": 130, "velocity": 119}, {"time": 179953, "pitch": 57, "duration": 110, "velocity": 103}, {"time": 179953, "pitch": 64, "duration": 130, "velocity": 109}, {"time": 180192, "pitch": 57, "duration": 110, "velocity": 90}, {"time": 180192, "pitch": 61, "duration": 110, "velocity": 109}, {"time": 180192, "pitch": 64, "duration": 110, "velocity": 99}, {"time": 180421, "pitch": 61, "duration": 119, "velocity": 117}, {"time": 180421, "pitch": 64, "duration": 119, "velocity": 105}, {"time": 180431, "pitch": 57, "duration": 109, "velocity": 103}, {"time": 180660, "pitch": 61, "duration": 159, "velocity": 113}, {"time": 180670, "pitch": 57, "duration": 129, "velocity": 93}, {"time": 180670, "pitch": 64, "duration": 139, "velocity": 101}, {"time": 180799, "pitch": 30, "duration": 761, "velocity": 89}, {"time": 180840, "pitch": 42, "duration": 749, "velocity": 111}, {"time": 180899, "pitch": 57, "duration": 131, "velocity": 107}, {"time": 180899, "pitch": 63, "duration": 69, "velocity": 113}, {"time": 180899, "pitch": 66, "duration": 152, "velocity": 123}, {"time": 180909, "pitch": 62, "duration": 121, "velocity": 105}, {"time": 181143, "pitch": 57, "duration": 143, "velocity": 83}, {"time": 181143, "pitch": 66, "duration": 123, "velocity": 92}, {"time": 181154, "pitch": 62, "duration": 143, "velocity": 82}, {"time": 181399, "pitch": 57, "duration": 131, "velocity": 109}, {"time": 181399, "pitch": 62, "duration": 171, "velocity": 101}, {"time": 181399, "pitch": 66, "duration": 180, "velocity": 101}, {"time": 181589, "pitch": 38, "duration": 20, "velocity": 52}, {"time": 181619, "pitch": 31, "duration": 1102, "velocity": 95}, {"time": 181629, "pitch": 32, "duration": 10, "velocity": 78}, {"time": 181639, "pitch": 43, "duration": 1132, "velocity": 97}, {"time": 181649, "pitch": 59, "duration": 139, "velocity": 113}, {"time": 181649, "pitch": 62, "duration": 149, "velocity": 111}, {"time": 181649, "pitch": 67, "duration": 129, "velocity": 107}, {"time": 181888, "pitch": 67, "duration": 121, "velocity": 101}, {"time": 181898, "pitch": 59, "duration": 121, "velocity": 101}, {"time": 181898, "pitch": 62, "duration": 131, "velocity": 103}, {"time": 182140, "pitch": 59, "duration": 121, "velocity": 76}, {"time": 182140, "pitch": 62, "duration": 121, "velocity": 89}, {"time": 182140, "pitch": 67, "duration": 121, "velocity": 90}, {"time": 182392, "pitch": 59, "duration": 110, "velocity": 103}, {"time": 182392, "pitch": 62, "duration": 120, "velocity": 111}, {"time": 182392, "pitch": 67, "duration": 120, "velocity": 103}, {"time": 182631, "pitch": 59, "duration": 140, "velocity": 92}, {"time": 182631, "pitch": 62, "duration": 140, "velocity": 103}, {"time": 182631, "pitch": 67, "duration": 150, "velocity": 95}, {"time": 182751, "pitch": 40, "duration": 50, "velocity": 77}, {"time": 182801, "pitch": 33, "duration": 577, "velocity": 109}, {"time": 182830, "pitch": 45, "duration": 568, "velocity": 90}, {"time": 182850, "pitch": 64, "duration": 140, "velocity": 97}, {"time": 182860, "pitch": 57, "duration": 120, "velocity": 113}, {"time": 182860, "pitch": 61, "duration": 130, "velocity": 111}, {"time": 183109, "pitch": 57, "duration": 119, "velocity": 86}, {"time": 183109, "pitch": 61, "duration": 109, "velocity": 97}, {"time": 183109, "pitch": 64, "duration": 119, "velocity": 89}, {"time": 183348, "pitch": 57, "duration": 101, "velocity": 93}, {"time": 183348, "pitch": 61, "duration": 101, "velocity": 101}, {"time": 183348, "pitch": 64, "duration": 111, "velocity": 97}, {"time": 183590, "pitch": 34, "duration": 1049, "velocity": 111}, {"time": 183590, "pitch": 46, "duration": 1098, "velocity": 121}, {"time": 183590, "pitch": 58, "duration": 121, "velocity": 115}, {"time": 183590, "pitch": 61, "duration": 141, "velocity": 107}, {"time": 183600, "pitch": 64, "duration": 131, "velocity": 101}, {"time": 183600, "pitch": 66, "duration": 152, "velocity": 97}, {"time": 183852, "pitch": 58, "duration": 120, "velocity": 93}, {"time": 183852, "pitch": 61, "duration": 140, "velocity": 97}, {"time": 183852, "pitch": 64, "duration": 120, "velocity": 90}, {"time": 183852, "pitch": 66, "duration": 140, "velocity": 92}, {"time": 184081, "pitch": 58, "duration": 100, "velocity": 97}, {"time": 184081, "pitch": 61, "duration": 100, "velocity": 92}, {"time": 184081, "pitch": 66, "duration": 120, "velocity": 90}, {"time": 184091, "pitch": 64, "duration": 90, "velocity": 89}, {"time": 184330, "pitch": 58, "duration": 110, "velocity": 107}, {"time": 184330, "pitch": 61, "duration": 119, "velocity": 105}, {"time": 184330, "pitch": 64, "duration": 100, "velocity": 95}, {"time": 184330, "pitch": 66, "duration": 110, "velocity": 95}, {"time": 184569, "pitch": 58, "duration": 119, "velocity": 97}, {"time": 184569, "pitch": 61, "duration": 139, "velocity": 105}, {"time": 184579, "pitch": 64, "duration": 129, "velocity": 92}, {"time": 184579, "pitch": 66, "duration": 119, "velocity": 89}, {"time": 184738, "pitch": 35, "duration": 664, "velocity": 103}, {"time": 184758, "pitch": 47, "duration": 714, "velocity": 85}, {"time": 184798, "pitch": 59, "duration": 131, "velocity": 117}, {"time": 184798, "pitch": 62, "duration": 131, "velocity": 111}, {"time": 184798, "pitch": 66, "duration": 131, "velocity": 103}, {"time": 185030, "pitch": 66, "duration": 111, "velocity": 95}, {"time": 185040, "pitch": 59, "duration": 111, "velocity": 90}, {"time": 185040, "pitch": 62, "duration": 121, "velocity": 85}, {"time": 185272, "pitch": 59, "duration": 90, "velocity": 93}, {"time": 185272, "pitch": 66, "duration": 130, "velocity": 99}, {"time": 185282, "pitch": 62, "duration": 110, "velocity": 95}, {"time": 185501, "pitch": 43, "duration": 1151, "velocity": 119}, {"time": 185501, "pitch": 59, "duration": 140, "velocity": 111}, {"time": 185501, "pitch": 62, "duration": 150, "velocity": 121}, {"time": 185501, "pitch": 67, "duration": 140, "velocity": 117}, {"time": 185740, "pitch": 67, "duration": 139, "velocity": 97}, {"time": 185750, "pitch": 59, "duration": 129, "velocity": 90}, {"time": 185750, "pitch": 62, "duration": 139, "velocity": 93}, {"time": 185999, "pitch": 59, "duration": 119, "velocity": 87}, {"time": 185999, "pitch": 62, "duration": 119, "velocity": 99}, {"time": 185999, "pitch": 67, "duration": 129, "velocity": 97}, {"time": 186218, "pitch": 62, "duration": 121, "velocity": 107}, {"time": 186218, "pitch": 67, "duration": 131, "velocity": 103}, {"time": 186228, "pitch": 59, "duration": 121, "velocity": 99}, {"time": 186460, "pitch": 59, "duration": 101, "velocity": 93}, {"time": 186460, "pitch": 62, "duration": 111, "velocity": 101}, {"time": 186460, "pitch": 67, "duration": 111, "velocity": 97}, {"time": 186682, "pitch": 45, "duration": 1510, "velocity": 117}, {"time": 186682, "pitch": 62, "duration": 140, "velocity": 113}, {"time": 186682, "pitch": 69, "duration": 150, "velocity": 111}, {"time": 186692, "pitch": 57, "duration": 140, "velocity": 111}, {"time": 186692, "pitch": 64, "duration": 140, "velocity": 115}, {"time": 186931, "pitch": 57, "duration": 140, "velocity": 87}, {"time": 186931, "pitch": 62, "duration": 120, "velocity": 85}, {"time": 186931, "pitch": 64, "duration": 120, "velocity": 76}, {"time": 186931, "pitch": 69, "duration": 120, "velocity": 80}, {"time": 187180, "pitch": 57, "duration": 120, "velocity": 97}, {"time": 187180, "pitch": 62, "duration": 110, "velocity": 101}, {"time": 187180, "pitch": 64, "duration": 100, "velocity": 97}, {"time": 187180, "pitch": 69, "duration": 110, "velocity": 95}, {"time": 187409, "pitch": 57, "duration": 119, "velocity": 85}, {"time": 187409, "pitch": 62, "duration": 80, "velocity": 86}, {"time": 187409, "pitch": 64, "duration": 99, "velocity": 85}, {"time": 187409, "pitch": 69, "duration": 99, "velocity": 75}, {"time": 187628, "pitch": 33, "duration": 221, "velocity": 80}, {"time": 187628, "pitch": 57, "duration": 161, "velocity": 92}, {"time": 187628, "pitch": 61, "duration": 201, "velocity": 99}, {"time": 187628, "pitch": 69, "duration": 201, "velocity": 90}, {"time": 187638, "pitch": 64, "duration": 171, "velocity": 75}, {"time": 188142, "pitch": 61, "duration": 50, "velocity": 71}, {"time": 188152, "pitch": 69, "duration": 60, "velocity": 77}, {"time": 188630, "pitch": 62, "duration": 408, "velocity": 75}, {"time": 188630, "pitch": 74, "duration": 408, "velocity": 76}, {"time": 188630, "pitch": 78, "duration": 408, "velocity": 85}, {"time": 188640, "pitch": 69, "duration": 358, "velocity": 71}, {"time": 189350, "pitch": 74, "duration": 849, "velocity": 73}, {"time": 189360, "pitch": 71, "duration": 750, "velocity": 70}, {"time": 189360, "pitch": 79, "duration": 800, "velocity": 77}, {"time": 189370, "pitch": 55, "duration": 849, "velocity": 68}, {"time": 190498, "pitch": 74, "duration": 302, "velocity": 66}, {"time": 190528, "pitch": 62, "duration": 504, "velocity": 38}, {"time": 190538, "pitch": 69, "duration": 292, "velocity": 30}, {"time": 190558, "pitch": 78, "duration": 222, "velocity": 83}, {"time": 191211, "pitch": 71, "duration": 40, "velocity": 37}, {"time": 191221, "pitch": 69, "duration": 807, "velocity": 51}, {"time": 191231, "pitch": 57, "duration": 989, "velocity": 51}, {"time": 191241, "pitch": 73, "duration": 787, "velocity": 83}, {"time": 191281, "pitch": 76, "duration": 737, "velocity": 35}, {"time": 192482, "pitch": 71, "duration": 329, "velocity": 58}, {"time": 192482, "pitch": 74, "duration": 349, "velocity": 55}, {"time": 192482, "pitch": 78, "duration": 319, "velocity": 73}, {"time": 192492, "pitch": 59, "duration": 428, "velocity": 60}, {"time": 193159, "pitch": 74, "duration": 823, "velocity": 56}, {"time": 193169, "pitch": 71, "duration": 743, "velocity": 46}, {"time": 193189, "pitch": 55, "duration": 773, "velocity": 37}, {"time": 193199, "pitch": 79, "duration": 783, "velocity": 64}, {"time": 194380, "pitch": 62, "duration": 558, "velocity": 47}, {"time": 194380, "pitch": 78, "duration": 249, "velocity": 66}, {"time": 194390, "pitch": 69, "duration": 80, "velocity": 39}, {"time": 194619, "pitch": 69, "duration": 189, "velocity": 48}, {"time": 194868, "pitch": 74, "duration": 50, "velocity": 68}, {"time": 195120, "pitch": 57, "duration": 939, "velocity": 58}, {"time": 195120, "pitch": 76, "duration": 172, "velocity": 60}, {"time": 195140, "pitch": 69, "duration": 202, "velocity": 55}, {"time": 195611, "pitch": 81, "duration": 90, "velocity": 64}, {"time": 196278, "pitch": 71, "duration": 413, "velocity": 51}, {"time": 196288, "pitch": 74, "duration": 454, "velocity": 62}, {"time": 196307, "pitch": 62, "duration": 455, "velocity": 45}, {"time": 196348, "pitch": 78, "duration": 384, "velocity": 92}, {"time": 196981, "pitch": 71, "duration": 797, "velocity": 23}, {"time": 197011, "pitch": 55, "duration": 888, "velocity": 56}, {"time": 197011, "pitch": 74, "duration": 827, "velocity": 58}, {"time": 197071, "pitch": 79, "duration": 737, "velocity": 54}, {"time": 198161, "pitch": 69, "duration": 300, "velocity": 51}, {"time": 198182, "pitch": 62, "duration": 528, "velocity": 43}, {"time": 198182, "pitch": 74, "duration": 269, "velocity": 66}, {"time": 198252, "pitch": 78, "duration": 189, "velocity": 77}, {"time": 198879, "pitch": 69, "duration": 308, "velocity": 39}, {"time": 198879, "pitch": 71, "duration": 70, "velocity": 60}, {"time": 198919, "pitch": 57, "duration": 952, "velocity": 37}, {"time": 198929, "pitch": 73, "duration": 79, "velocity": 82}, {"time": 198959, "pitch": 76, "duration": 169, "velocity": 43}, {"time": 199672, "pitch": 81, "duration": 70, "velocity": 73}, {"time": 200160, "pitch": 71, "duration": 308, "velocity": 55}, {"time": 200160, "pitch": 78, "duration": 378, "velocity": 70}, {"time": 200170, "pitch": 59, "duration": 487, "velocity": 52}, {"time": 200170, "pitch": 74, "duration": 378, "velocity": 60}, {"time": 200809, "pitch": 71, "duration": 821, "velocity": 37}, {"time": 200829, "pitch": 55, "duration": 801, "velocity": 41}, {"time": 200829, "pitch": 74, "duration": 850, "velocity": 69}, {"time": 200880, "pitch": 79, "duration": 759, "velocity": 64}, {"time": 202047, "pitch": 62, "duration": 565, "velocity": 47}, {"time": 202057, "pitch": 69, "duration": 152, "velocity": 50}, {"time": 202067, "pitch": 78, "duration": 222, "velocity": 66}, {"time": 202299, "pitch": 69, "duration": 202, "velocity": 60}, {"time": 202562, "pitch": 74, "duration": 40, "velocity": 72}, {"time": 202801, "pitch": 57, "duration": 928, "velocity": 58}, {"time": 202801, "pitch": 69, "duration": 209, "velocity": 54}, {"time": 202801, "pitch": 76, "duration": 199, "velocity": 66}, {"time": 203288, "pitch": 81, "duration": 120, "velocity": 64}, {"time": 203992, "pitch": 59, "duration": 478, "velocity": 46}, {"time": 203992, "pitch": 71, "duration": 309, "velocity": 59}, {"time": 203992, "pitch": 74, "duration": 368, "velocity": 64}, {"time": 203992, "pitch": 78, "duration": 338, "velocity": 69}, {"time": 204609, "pitch": 71, "duration": 843, "velocity": 47}, {"time": 204659, "pitch": 74, "duration": 833, "velocity": 47}, {"time": 204679, "pitch": 55, "duration": 843, "velocity": 28}, {"time": 204728, "pitch": 79, "duration": 724, "velocity": 64}, {"time": 205820, "pitch": 74, "duration": 129, "velocity": 50}, {"time": 205830, "pitch": 69, "duration": 289, "velocity": 45}, {"time": 205840, "pitch": 62, "duration": 547, "velocity": 34}, {"time": 205910, "pitch": 78, "duration": 219, "velocity": 85}, {"time": 206549, "pitch": 69, "duration": 403, "velocity": 37}, {"time": 206569, "pitch": 71, "duration": 71, "velocity": 63}, {"time": 206579, "pitch": 57, "duration": 1019, "velocity": 44}, {"time": 206609, "pitch": 73, "duration": 81, "velocity": 71}, {"time": 206650, "pitch": 76, "duration": 202, "velocity": 58}, {"time": 207141, "pitch": 81, "duration": 59, "velocity": 66}, {"time": 207568, "pitch": 76, "duration": 50, "velocity": 66}, {"time": 207797, "pitch": 76, "duration": 40, "velocity": 45}, {"time": 207807, "pitch": 74, "duration": 444, "velocity": 56}, {"time": 207827, "pitch": 71, "duration": 404, "velocity": 53}, {"time": 207847, "pitch": 59, "duration": 475, "velocity": 43}, {"time": 207847, "pitch": 78, "duration": 394, "velocity": 92}, {"time": 208521, "pitch": 71, "duration": 776, "velocity": 39}, {"time": 208521, "pitch": 74, "duration": 837, "velocity": 52}, {"time": 208541, "pitch": 55, "duration": 776, "velocity": 44}, {"time": 208571, "pitch": 79, "duration": 777, "velocity": 62}, {"time": 209721, "pitch": 62, "duration": 499, "velocity": 48}, {"time": 209721, "pitch": 74, "duration": 290, "velocity": 56}, {"time": 209732, "pitch": 69, "duration": 289, "velocity": 48}, {"time": 209732, "pitch": 78, "duration": 269, "velocity": 73}, {"time": 210429, "pitch": 71, "duration": 69, "velocity": 35}, {"time": 210458, "pitch": 57, "duration": 754, "velocity": 45}, {"time": 210468, "pitch": 69, "duration": 421, "velocity": 41}, {"time": 210468, "pitch": 73, "duration": 451, "velocity": 69}, {"time": 210478, "pitch": 76, "duration": 431, "velocity": 52}, {"time": 211202, "pitch": 69, "duration": 109, "velocity": 73}, {"time": 211451, "pitch": 57, "duration": 199, "velocity": 58}, {"time": 211669, "pitch": 66, "duration": 219, "velocity": 78}, {"time": 211679, "pitch": 59, "duration": 539, "velocity": 54}, {"time": 211679, "pitch": 74, "duration": 189, "velocity": 63}, {"time": 211888, "pitch": 73, "duration": 100, "velocity": 99}, {"time": 212157, "pitch": 69, "duration": 61, "velocity": 66}, {"time": 212359, "pitch": 69, "duration": 51, "velocity": 43}, {"time": 212369, "pitch": 67, "duration": 323, "velocity": 57}, {"time": 212389, "pitch": 55, "duration": 900, "velocity": 53}, {"time": 212399, "pitch": 71, "duration": 283, "velocity": 66}, {"time": 213109, "pitch": 79, "duration": 140, "velocity": 59}, {"time": 213527, "pitch": 74, "duration": 100, "velocity": 66}, {"time": 213557, "pitch": 62, "duration": 535, "velocity": 47}, {"time": 213577, "pitch": 69, "duration": 272, "velocity": 32}, {"time": 213607, "pitch": 78, "duration": 162, "velocity": 83}, {"time": 213839, "pitch": 76, "duration": 182, "velocity": 62}, {"time": 214051, "pitch": 74, "duration": 41, "velocity": 71}, {"time": 214281, "pitch": 69, "duration": 288, "velocity": 57}, {"time": 214281, "pitch": 76, "duration": 298, "velocity": 64}, {"time": 214291, "pitch": 57, "duration": 998, "velocity": 49}, {"time": 214798, "pitch": 81, "duration": 120, "velocity": 71}, {"time": 215269, "pitch": 76, "duration": 51, "velocity": 60}, {"time": 215471, "pitch": 76, "duration": 61, "velocity": 52}, {"time": 215522, "pitch": 71, "duration": 418, "velocity": 28}, {"time": 215522, "pitch": 74, "duration": 348, "velocity": 50}, {"time": 215532, "pitch": 59, "duration": 457, "velocity": 31}, {"time": 215532, "pitch": 78, "duration": 398, "velocity": 90}, {"time": 216218, "pitch": 55, "duration": 893, "velocity": 49}, {"time": 216218, "pitch": 74, "duration": 863, "velocity": 47}, {"time": 216228, "pitch": 71, "duration": 833, "velocity": 48}, {"time": 216238, "pitch": 79, "duration": 843, "velocity": 51}, {"time": 217350, "pitch": 69, "duration": 298, "velocity": 46}, {"time": 217380, "pitch": 62, "duration": 517, "velocity": 37}, {"time": 217380, "pitch": 74, "duration": 258, "velocity": 50}, {"time": 217439, "pitch": 78, "duration": 189, "velocity": 77}, {"time": 218099, "pitch": 69, "duration": 303, "velocity": 46}, {"time": 218099, "pitch": 71, "duration": 40, "velocity": 37}, {"time": 218129, "pitch": 73, "duration": 81, "velocity": 89}, {"time": 218139, "pitch": 57, "duration": 959, "velocity": 41}, {"time": 218159, "pitch": 76, "duration": 182, "velocity": 49}, {"time": 218650, "pitch": 81, "duration": 120, "velocity": 68}, {"time": 219297, "pitch": 71, "duration": 423, "velocity": 46}, {"time": 219317, "pitch": 74, "duration": 434, "velocity": 61}, {"time": 219327, "pitch": 59, "duration": 494, "velocity": 39}, {"time": 219347, "pitch": 78, "duration": 404, "velocity": 77}, {"time": 220031, "pitch": 71, "duration": 887, "velocity": 34}, {"time": 220051, "pitch": 74, "duration": 917, "velocity": 63}, {"time": 220061, "pitch": 55, "duration": 907, "velocity": 46}, {"time": 220090, "pitch": 79, "duration": 838, "velocity": 68}, {"time": 221181, "pitch": 74, "duration": 409, "velocity": 58}, {"time": 221211, "pitch": 62, "duration": 528, "velocity": 27}, {"time": 221211, "pitch": 69, "duration": 389, "velocity": 41}, {"time": 221231, "pitch": 76, "duration": 20, "velocity": 29}, {"time": 221271, "pitch": 78, "duration": 309, "velocity": 90}, {"time": 221948, "pitch": 71, "duration": 60, "velocity": 42}, {"time": 221958, "pitch": 69, "duration": 471, "velocity": 46}, {"time": 221978, "pitch": 73, "duration": 289, "velocity": 82}, {"time": 221988, "pitch": 57, "duration": 1191, "velocity": 38}, {"time": 222008, "pitch": 76, "duration": 229, "velocity": 51}, {"time": 222722, "pitch": 81, "duration": 139, "velocity": 75}, {"time": 223189, "pitch": 74, "duration": 408, "velocity": 58}, {"time": 223189, "pitch": 78, "duration": 378, "velocity": 68}, {"time": 223199, "pitch": 59, "duration": 458, "velocity": 45}, {"time": 223199, "pitch": 71, "duration": 368, "velocity": 56}, {"time": 223909, "pitch": 74, "duration": 919, "velocity": 64}, {"time": 223919, "pitch": 55, "duration": 869, "velocity": 53}, {"time": 223919, "pitch": 71, "duration": 869, "velocity": 58}, {"time": 223929, "pitch": 79, "duration": 879, "velocity": 58}, {"time": 225087, "pitch": 74, "duration": 333, "velocity": 63}, {"time": 225097, "pitch": 69, "duration": 343, "velocity": 57}, {"time": 225107, "pitch": 62, "duration": 474, "velocity": 47}, {"time": 225107, "pitch": 78, "duration": 292, "velocity": 74}, {"time": 225820, "pitch": 57, "duration": 717, "velocity": 53}, {"time": 225820, "pitch": 69, "duration": 388, "velocity": 52}, {"time": 225820, "pitch": 73, "duration": 448, "velocity": 72}, {"time": 225840, "pitch": 76, "duration": 398, "velocity": 53}, {"time": 226517, "pitch": 69, "duration": 118, "velocity": 93}, {"time": 226772, "pitch": 57, "duration": 216, "velocity": 65}, {"time": 226988, "pitch": 66, "duration": 441, "velocity": 75}, {"time": 226998, "pitch": 59, "duration": 490, "velocity": 46}, {"time": 226998, "pitch": 69, "duration": 421, "velocity": 66}, {"time": 226998, "pitch": 74, "duration": 451, "velocity": 49}, {"time": 227694, "pitch": 69, "duration": 29, "velocity": 40}, {"time": 227704, "pitch": 67, "duration": 284, "velocity": 34}, {"time": 227723, "pitch": 55, "duration": 1167, "velocity": 36}, {"time": 227733, "pitch": 71, "duration": 206, "velocity": 55}, {"time": 227743, "pitch": 74, "duration": 196, "velocity": 57}, {"time": 228410, "pitch": 79, "duration": 107, "velocity": 52}, {"time": 228880, "pitch": 74, "duration": 69, "velocity": 46}, {"time": 228900, "pitch": 62, "duration": 480, "velocity": 38}, {"time": 228919, "pitch": 69, "duration": 353, "velocity": 18}, {"time": 228939, "pitch": 78, "duration": 314, "velocity": 85}, {"time": 229596, "pitch": 57, "duration": 912, "velocity": 46}, {"time": 229596, "pitch": 69, "duration": 343, "velocity": 50}, {"time": 229596, "pitch": 76, "duration": 294, "velocity": 56}, {"time": 229606, "pitch": 73, "duration": 304, "velocity": 66}, {"time": 230302, "pitch": 81, "duration": 78, "velocity": 57}, {"time": 230782, "pitch": 74, "duration": 10, "velocity": 62}, {"time": 230782, "pitch": 78, "duration": 10, "velocity": 66}, {"time": 16322, "pitch": 71, "duration": 239, "velocity": 100}, {"time": 16561, "pitch": 74, "duration": 477, "velocity": 100}, {"time": 17038, "pitch": 69, "duration": 239, "velocity": 100}, {"time": 17277, "pitch": 69, "duration": 242, "velocity": 100}, {"time": 17519, "pitch": 69, "duration": 243, "velocity": 100}, {"time": 18001, "pitch": 69, "duration": 238, "velocity": 100}, {"time": 18239, "pitch": 69, "duration": 120, "velocity": 100}, {"time": 18359, "pitch": 66, "duration": 119, "velocity": 100}, {"time": 18478, "pitch": 71, "duration": 481, "velocity": 100}, {"time": 18959, "pitch": 69, "duration": 243, "velocity": 100}, {"time": 19918, "pitch": 71, "duration": 100, "velocity": 100}, {"time": 20038, "pitch": 71, "duration": 99, "velocity": 100}, {"time": 20157, "pitch": 71, "duration": 724, "velocity": 100}, {"time": 20881, "pitch": 69, "duration": 238, "velocity": 100}, {"time": 21119, "pitch": 69, "duration": 239, "velocity": 100}, {"time": 21358, "pitch": 69, "duration": 239, "velocity": 100}, {"time": 21597, "pitch": 69, "duration": 242, "velocity": 100}, {"time": 21839, "pitch": 66, "duration": 122, "velocity": 100}, {"time": 21961, "pitch": 64, "duration": 360, "velocity": 100}, {"time": 23999, "pitch": 71, "duration": 239, "velocity": 100}, {"time": 24238, "pitch": 74, "duration": 481, "velocity": 100}, {"time": 24719, "pitch": 69, "duration": 243, "velocity": 100}, {"time": 24962, "pitch": 69, "duration": 238, "velocity": 100}, {"time": 25200, "pitch": 69, "duration": 239, "velocity": 100}, {"time": 25439, "pitch": 69, "duration": 358, "velocity": 100}, {"time": 25797, "pitch": 69, "duration": 120, "velocity": 100}, {"time": 26038, "pitch": 66, "duration": 121, "velocity": 100}, {"time": 26159, "pitch": 71, "duration": 481, "velocity": 100}, {"time": 26640, "pitch": 69, "duration": 239, "velocity": 100}, {"time": 27842, "pitch": 71, "duration": 99, "velocity": 100}, {"time": 27961, "pitch": 71, "duration": 100, "velocity": 100}, {"time": 28080, "pitch": 71, "duration": 478, "velocity": 100}, {"time": 28558, "pitch": 69, "duration": 239, "velocity": 100}, {"time": 28797, "pitch": 69, "duration": 242, "velocity": 100}, {"time": 29039, "pitch": 69, "duration": 243, "velocity": 100}, {"time": 29282, "pitch": 69, "duration": 238, "velocity": 100}, {"time": 29520, "pitch": 66, "duration": 120, "velocity": 100}, {"time": 29640, "pitch": 64, "duration": 358, "velocity": 100}, {"time": 30237, "pitch": 66, "duration": 485, "velocity": 100}, {"time": 30722, "pitch": 64, "duration": 477, "velocity": 100}, {"time": 31199, "pitch": 62, "duration": 1918, "velocity": 100}, {"time": 35519, "pitch": 71, "duration": 239, "velocity": 100}, {"time": 35758, "pitch": 74, "duration": 481, "velocity": 100}, {"time": 36239, "pitch": 69, "duration": 242, "velocity": 100}, {"time": 36481, "pitch": 69, "duration": 239, "velocity": 100}, {"time": 36720, "pitch": 69, "duration": 239, "velocity": 100}, {"time": 37198, "pitch": 69, "duration": 239, "velocity": 100}, {"time": 37437, "pitch": 69, "duration": 121, "velocity": 100}, {"time": 37558, "pitch": 66, "duration": 121, "velocity": 100}, {"time": 37679, "pitch": 71, "duration": 481, "velocity": 100}, {"time": 38160, "pitch": 69, "duration": 239, "velocity": 100}, {"time": 39119, "pitch": 71, "duration": 101, "velocity": 100}, {"time": 39240, "pitch": 71, "duration": 101, "velocity": 100}, {"time": 39361, "pitch": 71, "duration": 717, "velocity": 100}, {"time": 40078, "pitch": 69, "duration": 239, "velocity": 100}, {"time": 40317, "pitch": 69, "duration": 242, "velocity": 100}, {"time": 40559, "pitch": 66, "duration": 242, "velocity": 100}, {"time": 40801, "pitch": 69, "duration": 239, "velocity": 100}, {"time": 41040, "pitch": 66, "duration": 119, "velocity": 100}, {"time": 41159, "pitch": 64, "duration": 359, "velocity": 100}, {"time": 43196, "pitch": 74, "duration": 122, "velocity": 100}, {"time": 43318, "pitch": 74, "duration": 121, "velocity": 100}, {"time": 43439, "pitch": 74, "duration": 481, "velocity": 100}, {"time": 43920, "pitch": 69, "duration": 239, "velocity": 100}, {"time": 44159, "pitch": 69, "duration": 242, "velocity": 100}, {"time": 44401, "pitch": 69, "duration": 243, "velocity": 100}, {"time": 44882, "pitch": 69, "duration": 239, "velocity": 100}, {"time": 45121, "pitch": 69, "duration": 120, "velocity": 100}, {"time": 45241, "pitch": 66, "duration": 119, "velocity": 100}, {"time": 45360, "pitch": 71, "duration": 481, "velocity": 100}, {"time": 45841, "pitch": 69, "duration": 243, "velocity": 100}, {"time": 47039, "pitch": 71, "duration": 222, "velocity": 100}, {"time": 47281, "pitch": 71, "duration": 481, "velocity": 100}, {"time": 47762, "pitch": 69, "duration": 239, "velocity": 100}, {"time": 48001, "pitch": 71, "duration": 239, "velocity": 100}, {"time": 48240, "pitch": 69, "duration": 239, "velocity": 100}, {"time": 48479, "pitch": 69, "duration": 121, "velocity": 100}, {"time": 48600, "pitch": 66, "duration": 121, "velocity": 100}, {"time": 48721, "pitch": 64, "duration": 720, "velocity": 100}, {"time": 51120, "pitch": 74, "duration": 119, "velocity": 100}, {"time": 51239, "pitch": 74, "duration": 120, "velocity": 100}, {"time": 51359, "pitch": 74, "duration": 242, "velocity": 100}, {"time": 51601, "pitch": 74, "duration": 242, "velocity": 100}, {"time": 51843, "pitch": 74, "duration": 239, "velocity": 100}, {"time": 52082, "pitch": 74, "duration": 239, "velocity": 100}, {"time": 52321, "pitch": 76, "duration": 239, "velocity": 100}, {"time": 52560, "pitch": 76, "duration": 239, "velocity": 100}, {"time": 52799, "pitch": 76, "duration": 121, "velocity": 100}, {"time": 52920, "pitch": 78, "duration": 121, "velocity": 100}, {"time": 53162, "pitch": 78, "duration": 1077, "velocity": 100}, {"time": 54239, "pitch": 78, "duration": 242, "velocity": 100}, {"time": 54481, "pitch": 79, "duration": 242, "velocity": 100}, {"time": 54723, "pitch": 81, "duration": 239, "velocity": 100}, {"time": 54962, "pitch": 81, "duration": 478, "velocity": 100}, {"time": 55440, "pitch": 79, "duration": 239, "velocity": 100}, {"time": 55679, "pitch": 78, "duration": 242, "velocity": 100}, {"time": 55921, "pitch": 78, "duration": 242, "velocity": 100}, {"time": 56163, "pitch": 78, "duration": 120, "velocity": 100}, {"time": 56402, "pitch": 76, "duration": 119, "velocity": 100}, {"time": 56521, "pitch": 74, "duration": 597, "velocity": 100}, {"time": 58320, "pitch": 79, "duration": 238, "velocity": 100}, {"time": 58558, "pitch": 79, "duration": 243, "velocity": 100}, {"time": 58801, "pitch": 79, "duration": 121, "velocity": 100}, {"time": 58922, "pitch": 79, "duration": 360, "velocity": 100}, {"time": 59282, "pitch": 78, "duration": 239, "velocity": 100}, {"time": 59521, "pitch": 74, "duration": 239, "velocity": 100}, {"time": 59760, "pitch": 74, "duration": 238, "velocity": 100}, {"time": 59998, "pitch": 74, "duration": 243, "velocity": 100}, {"time": 60241, "pitch": 76, "duration": 481, "velocity": 100}, {"time": 60722, "pitch": 76, "duration": 239, "velocity": 100}, {"time": 61438, "pitch": 74, "duration": 485, "velocity": 100}, {"time": 61923, "pitch": 81, "duration": 1198, "velocity": 100}, {"time": 63121, "pitch": 78, "duration": 242, "velocity": 100}, {"time": 63363, "pitch": 78, "duration": 239, "velocity": 100}, {"time": 63602, "pitch": 78, "duration": 239, "velocity": 100}, {"time": 63841, "pitch": 78, "duration": 239, "velocity": 100}, {"time": 64080, "pitch": 79, "duration": 119, "velocity": 100}, {"time": 64199, "pitch": 78, "duration": 362, "velocity": 100}, {"time": 64561, "pitch": 76, "duration": 1197, "velocity": 100}, {"time": 65758, "pitch": 81, "duration": 222, "velocity": 100}, {"time": 66001, "pitch": 81, "duration": 222, "velocity": 100}, {"time": 66243, "pitch": 81, "duration": 219, "velocity": 100}, {"time": 66482, "pitch": 81, "duration": 716, "velocity": 100}, {"time": 67198, "pitch": 78, "duration": 485, "velocity": 100}, {"time": 67683, "pitch": 78, "duration": 716, "velocity": 100}, {"time": 68399, "pitch": 76, "duration": 724, "velocity": 100}, {"time": 69362, "pitch": 74, "duration": 239, "velocity": 100}, {"time": 69601, "pitch": 81, "duration": 238, "velocity": 100}, {"time": 69839, "pitch": 78, "duration": 239, "velocity": 100}, {"time": 70078, "pitch": 74, "duration": 243, "velocity": 100}, {"time": 70321, "pitch": 78, "duration": 481, "velocity": 100}, {"time": 70802, "pitch": 76, "duration": 477, "velocity": 100}, {"time": 71279, "pitch": 74, "duration": 100, "velocity": 100}, {"time": 71399, "pitch": 74, "duration": 99, "velocity": 100}, {"time": 71518, "pitch": 78, "duration": 243, "velocity": 100}, {"time": 71761, "pitch": 79, "duration": 242, "velocity": 100}, {"time": 72003, "pitch": 81, "duration": 239, "velocity": 100}, {"time": 72242, "pitch": 78, "duration": 477, "velocity": 100}, {"time": 72719, "pitch": 76, "duration": 481, "velocity": 100}, {"time": 73200, "pitch": 69, "duration": 122, "velocity": 100}, {"time": 73443, "pitch": 74, "duration": 239, "velocity": 100}, {"time": 73682, "pitch": 76, "duration": 238, "velocity": 100}, {"time": 73920, "pitch": 78, "duration": 239, "velocity": 100}, {"time": 74159, "pitch": 81, "duration": 481, "velocity": 100}, {"time": 74640, "pitch": 78, "duration": 243, "velocity": 100}, {"time": 74883, "pitch": 74, "duration": 219, "velocity": 100}, {"time": 75122, "pitch": 74, "duration": 477, "velocity": 100}, {"time": 75599, "pitch": 76, "duration": 239, "velocity": 100}, {"time": 76323, "pitch": 78, "duration": 239, "velocity": 100}, {"time": 76562, "pitch": 76, "duration": 238, "velocity": 100}, {"time": 76800, "pitch": 74, "duration": 239, "velocity": 100}, {"time": 77039, "pitch": 74, "duration": 239, "velocity": 100}, {"time": 85440, "pitch": 71, "duration": 120, "velocity": 100}, {"time": 85560, "pitch": 74, "duration": 119, "velocity": 100}, {"time": 85679, "pitch": 74, "duration": 481, "velocity": 100}, {"time": 86160, "pitch": 69, "duration": 243, "velocity": 100}, {"time": 86403, "pitch": 69, "duration": 238, "velocity": 100}, {"time": 86641, "pitch": 69, "duration": 239, "velocity": 100}, {"time": 86880, "pitch": 69, "duration": 239, "velocity": 100}, {"time": 87119, "pitch": 69, "duration": 239, "velocity": 100}, {"time": 87358, "pitch": 66, "duration": 242, "velocity": 100}, {"time": 87600, "pitch": 71, "duration": 481, "velocity": 100}, {"time": 88081, "pitch": 69, "duration": 239, "velocity": 100}, {"time": 89040, "pitch": 71, "duration": 101, "velocity": 100}, {"time": 89161, "pitch": 71, "duration": 101, "velocity": 100}, {"time": 89282, "pitch": 71, "duration": 717, "velocity": 100}, {"time": 89999, "pitch": 69, "duration": 239, "velocity": 100}, {"time": 90238, "pitch": 69, "duration": 242, "velocity": 100}, {"time": 90480, "pitch": 69, "duration": 242, "velocity": 100}, {"time": 90722, "pitch": 69, "duration": 239, "velocity": 100}, {"time": 90961, "pitch": 66, "duration": 120, "velocity": 100}, {"time": 91081, "pitch": 64, "duration": 358, "velocity": 100}, {"time": 92879, "pitch": 74, "duration": 239, "velocity": 100}, {"time": 93118, "pitch": 74, "duration": 242, "velocity": 100}, {"time": 93360, "pitch": 74, "duration": 242, "velocity": 100}, {"time": 93602, "pitch": 74, "duration": 239, "velocity": 100}, {"time": 93841, "pitch": 69, "duration": 120, "velocity": 100}, {"time": 93961, "pitch": 69, "duration": 358, "velocity": 100}, {"time": 94319, "pitch": 69, "duration": 239, "velocity": 100}, {"time": 94558, "pitch": 69, "duration": 363, "velocity": 100}, {"time": 94921, "pitch": 69, "duration": 121, "velocity": 100}, {"time": 95162, "pitch": 66, "duration": 119, "velocity": 100}, {"time": 95281, "pitch": 71, "duration": 478, "velocity": 100}, {"time": 95759, "pitch": 69, "duration": 239, "velocity": 100}, {"time": 96960, "pitch": 71, "duration": 99, "velocity": 100}, {"time": 97079, "pitch": 71, "duration": 100, "velocity": 100}, {"time": 97199, "pitch": 71, "duration": 481, "velocity": 100}, {"time": 97680, "pitch": 69, "duration": 242, "velocity": 100}, {"time": 97922, "pitch": 69, "duration": 239, "velocity": 100}, {"time": 98161, "pitch": 69, "duration": 239, "velocity": 100}, {"time": 98400, "pitch": 69, "duration": 119, "velocity": 100}, {"time": 98519, "pitch": 66, "duration": 120, "velocity": 100}, {"time": 98639, "pitch": 64, "duration": 723, "velocity": 100}, {"time": 101041, "pitch": 74, "duration": 119, "velocity": 100}, {"time": 101160, "pitch": 74, "duration": 120, "velocity": 100}, {"time": 101280, "pitch": 74, "duration": 239, "velocity": 100}, {"time": 101519, "pitch": 74, "duration": 238, "velocity": 100}, {"time": 101757, "pitch": 74, "duration": 243, "velocity": 100}, {"time": 102000, "pitch": 74, "duration": 242, "velocity": 100}, {"time": 102242, "pitch": 76, "duration": 239, "velocity": 100}, {"time": 102481, "pitch": 76, "duration": 239, "velocity": 100}, {"time": 102720, "pitch": 76, "duration": 119, "velocity": 100}, {"time": 102839, "pitch": 78, "duration": 120, "velocity": 100}, {"time": 103078, "pitch": 78, "duration": 1082, "velocity": 100}, {"time": 104160, "pitch": 78, "duration": 239, "velocity": 100}, {"time": 104399, "pitch": 79, "duration": 238, "velocity": 100}, {"time": 104637, "pitch": 81, "duration": 243, "velocity": 100}, {"time": 104880, "pitch": 81, "duration": 481, "velocity": 100}, {"time": 105361, "pitch": 79, "duration": 239, "velocity": 100}, {"time": 105600, "pitch": 78, "duration": 238, "velocity": 100}, {"time": 105838, "pitch": 78, "duration": 239, "velocity": 100}, {"time": 106077, "pitch": 78, "duration": 121, "velocity": 100}, {"time": 106320, "pitch": 76, "duration": 121, "velocity": 100}, {"time": 106441, "pitch": 74, "duration": 599, "velocity": 100}, {"time": 108241, "pitch": 79, "duration": 239, "velocity": 100}, {"time": 108480, "pitch": 79, "duration": 238, "velocity": 100}, {"time": 108718, "pitch": 79, "duration": 120, "velocity": 100}, {"time": 108838, "pitch": 79, "duration": 362, "velocity": 100}, {"time": 109200, "pitch": 78, "duration": 242, "velocity": 100}, {"time": 109442, "pitch": 74, "duration": 239, "velocity": 100}, {"time": 109681, "pitch": 74, "duration": 239, "velocity": 100}, {"time": 109920, "pitch": 74, "duration": 238, "velocity": 100}, {"time": 110158, "pitch": 76, "duration": 482, "velocity": 100}, {"time": 110640, "pitch": 76, "duration": 242, "velocity": 100}, {"time": 111360, "pitch": 74, "duration": 477, "velocity": 100}, {"time": 111837, "pitch": 81, "duration": 1201, "velocity": 100}, {"time": 113038, "pitch": 78, "duration": 239, "velocity": 100}, {"time": 113277, "pitch": 78, "duration": 242, "velocity": 100}, {"time": 113519, "pitch": 78, "duration": 243, "velocity": 100}, {"time": 113762, "pitch": 78, "duration": 239, "velocity": 100}, {"time": 114001, "pitch": 79, "duration": 119, "velocity": 100}, {"time": 114120, "pitch": 78, "duration": 358, "velocity": 100}, {"time": 114478, "pitch": 76, "duration": 1201, "velocity": 100}, {"time": 115679, "pitch": 81, "duration": 219, "velocity": 100}, {"time": 115918, "pitch": 81, "duration": 219, "velocity": 100}, {"time": 116157, "pitch": 81, "duration": 222, "velocity": 100}, {"time": 116399, "pitch": 81, "duration": 720, "velocity": 100}, {"time": 117119, "pitch": 78, "duration": 478, "velocity": 100}, {"time": 117597, "pitch": 78, "duration": 724, "velocity": 100}, {"time": 118321, "pitch": 76, "duration": 716, "velocity": 100}, {"time": 119279, "pitch": 74, "duration": 243, "velocity": 100}, {"time": 119522, "pitch": 81, "duration": 239, "velocity": 100}, {"time": 119761, "pitch": 78, "duration": 238, "velocity": 100}, {"time": 119999, "pitch": 74, "duration": 239, "velocity": 100}, {"time": 120238, "pitch": 78, "duration": 481, "velocity": 100}, {"time": 120719, "pitch": 76, "duration": 481, "velocity": 100}, {"time": 121200, "pitch": 74, "duration": 100, "velocity": 100}, {"time": 121320, "pitch": 74, "duration": 99, "velocity": 100}, {"time": 121439, "pitch": 78, "duration": 239, "velocity": 100}, {"time": 121678, "pitch": 79, "duration": 239, "velocity": 100}, {"time": 121917, "pitch": 81, "duration": 242, "velocity": 100}, {"time": 122159, "pitch": 78, "duration": 481, "velocity": 100}, {"time": 122640, "pitch": 76, "duration": 478, "velocity": 100}, {"time": 123118, "pitch": 69, "duration": 119, "velocity": 100}, {"time": 123357, "pitch": 74, "duration": 242, "velocity": 100}, {"time": 123599, "pitch": 76, "duration": 243, "velocity": 100}, {"time": 123842, "pitch": 78, "duration": 238, "velocity": 100}, {"time": 124080, "pitch": 81, "duration": 478, "velocity": 100}, {"time": 124558, "pitch": 78, "duration": 239, "velocity": 100}, {"time": 124797, "pitch": 74, "duration": 222, "velocity": 100}, {"time": 125039, "pitch": 74, "duration": 481, "velocity": 100}, {"time": 125520, "pitch": 76, "duration": 239, "velocity": 100}, {"time": 126237, "pitch": 78, "duration": 242, "velocity": 100}, {"time": 126479, "pitch": 76, "duration": 243, "velocity": 100}, {"time": 126722, "pitch": 74, "duration": 238, "velocity": 100}, {"time": 126960, "pitch": 74, "duration": 239, "velocity": 100}, {"time": 128162, "pitch": 71, "duration": 238, "velocity": 100}, {"time": 128400, "pitch": 73, "duration": 239, "velocity": 100}, {"time": 128639, "pitch": 74, "duration": 239, "velocity": 100}, {"time": 130079, "pitch": 69, "duration": 239, "velocity": 100}, {"time": 130318, "pitch": 73, "duration": 239, "velocity": 100}, {"time": 130557, "pitch": 74, "duration": 242, "velocity": 100}, {"time": 131041, "pitch": 71, "duration": 160, "velocity": 100}, {"time": 131201, "pitch": 73, "duration": 159, "velocity": 100}, {"time": 131360, "pitch": 74, "duration": 159, "velocity": 100}, {"time": 131519, "pitch": 71, "duration": 159, "velocity": 100}, {"time": 131678, "pitch": 73, "duration": 159, "velocity": 100}, {"time": 131837, "pitch": 74, "duration": 160, "velocity": 100}, {"time": 131997, "pitch": 71, "duration": 161, "velocity": 100}, {"time": 132158, "pitch": 73, "duration": 162, "velocity": 100}, {"time": 132320, "pitch": 74, "duration": 161, "velocity": 100}, {"time": 132481, "pitch": 74, "duration": 1198, "velocity": 100}, {"time": 133679, "pitch": 76, "duration": 242, "velocity": 100}, {"time": 133921, "pitch": 76, "duration": 956, "velocity": 100}, {"time": 135119, "pitch": 79, "duration": 242, "velocity": 100}, {"time": 135361, "pitch": 79, "duration": 239, "velocity": 100}, {"time": 135600, "pitch": 79, "duration": 239, "velocity": 100}, {"time": 135839, "pitch": 79, "duration": 239, "velocity": 100}, {"time": 136078, "pitch": 78, "duration": 239, "velocity": 100}, {"time": 136317, "pitch": 74, "duration": 242, "velocity": 100}, {"time": 136559, "pitch": 74, "duration": 242, "velocity": 100}, {"time": 137040, "pitch": 79, "duration": 239, "velocity": 100}, {"time": 137279, "pitch": 79, "duration": 239, "velocity": 100}, {"time": 137518, "pitch": 79, "duration": 238, "velocity": 100}, {"time": 137756, "pitch": 79, "duration": 243, "velocity": 100}, {"time": 137999, "pitch": 78, "duration": 242, "velocity": 100}, {"time": 138241, "pitch": 74, "duration": 239, "velocity": 100}, {"time": 138480, "pitch": 74, "duration": 239, "velocity": 100}, {"time": 138719, "pitch": 74, "duration": 119, "velocity": 100}, {"time": 138958, "pitch": 74, "duration": 481, "velocity": 100}, {"time": 139439, "pitch": 76, "duration": 121, "velocity": 100}, {"time": 139681, "pitch": 76, "duration": 955, "velocity": 100}, {"time": 140636, "pitch": 79, "duration": 122, "velocity": 100}, {"time": 140879, "pitch": 79, "duration": 481, "velocity": 100}, {"time": 141360, "pitch": 81, "duration": 119, "velocity": 100}, {"time": 141599, "pitch": 81, "duration": 962, "velocity": 100}, {"time": 157438, "pitch": 74, "duration": 485, "velocity": 100}, {"time": 157923, "pitch": 81, "duration": 1198, "velocity": 100}, {"time": 159121, "pitch": 78, "duration": 242, "velocity": 100}, {"time": 159363, "pitch": 78, "duration": 239, "velocity": 100}, {"time": 159602, "pitch": 78, "duration": 239, "velocity": 100}, {"time": 159841, "pitch": 78, "duration": 239, "velocity": 100}, {"time": 160080, "pitch": 79, "duration": 119, "velocity": 100}, {"time": 160199, "pitch": 78, "duration": 362, "velocity": 100}, {"time": 160561, "pitch": 76, "duration": 1197, "velocity": 100}, {"time": 161758, "pitch": 81, "duration": 222, "velocity": 100}, {"time": 162001, "pitch": 81, "duration": 222, "velocity": 100}, {"time": 162243, "pitch": 81, "duration": 219, "velocity": 100}, {"time": 162482, "pitch": 81, "duration": 716, "velocity": 100}, {"time": 163198, "pitch": 78, "duration": 485, "velocity": 100}, {"time": 163683, "pitch": 78, "duration": 716, "velocity": 100}, {"time": 164399, "pitch": 76, "duration": 724, "velocity": 100}, {"time": 165362, "pitch": 74, "duration": 239, "velocity": 100}, {"time": 165601, "pitch": 81, "duration": 238, "velocity": 100}, {"time": 165839, "pitch": 78, "duration": 239, "velocity": 100}, {"time": 166078, "pitch": 74, "duration": 243, "velocity": 100}, {"time": 166321, "pitch": 78, "duration": 481, "velocity": 100}, {"time": 166802, "pitch": 76, "duration": 477, "velocity": 100}, {"time": 167279, "pitch": 74, "duration": 100, "velocity": 100}, {"time": 167399, "pitch": 74, "duration": 99, "velocity": 100}, {"time": 167518, "pitch": 78, "duration": 243, "velocity": 100}, {"time": 167761, "pitch": 79, "duration": 242, "velocity": 100}, {"time": 168003, "pitch": 81, "duration": 239, "velocity": 100}, {"time": 168242, "pitch": 78, "duration": 477, "velocity": 100}, {"time": 168719, "pitch": 76, "duration": 481, "velocity": 100}, {"time": 169200, "pitch": 69, "duration": 122, "velocity": 100}, {"time": 169443, "pitch": 74, "duration": 239, "velocity": 100}, {"time": 169682, "pitch": 76, "duration": 238, "velocity": 100}, {"time": 169920, "pitch": 78, "duration": 239, "velocity": 100}, {"time": 170159, "pitch": 81, "duration": 481, "velocity": 100}, {"time": 170640, "pitch": 78, "duration": 243, "velocity": 100}, {"time": 170883, "pitch": 74, "duration": 219, "velocity": 100}, {"time": 171122, "pitch": 74, "duration": 477, "velocity": 100}, {"time": 171599, "pitch": 76, "duration": 239, "velocity": 100}, {"time": 172800, "pitch": 74, "duration": 478, "velocity": 100}, {"time": 173278, "pitch": 81, "duration": 1201, "velocity": 100}, {"time": 174479, "pitch": 78, "duration": 239, "velocity": 100}, {"time": 174718, "pitch": 78, "duration": 242, "velocity": 100}, {"time": 174960, "pitch": 78, "duration": 243, "velocity": 100}, {"time": 175203, "pitch": 78, "duration": 239, "velocity": 100}, {"time": 175442, "pitch": 79, "duration": 119, "velocity": 100}, {"time": 175561, "pitch": 78, "duration": 358, "velocity": 100}, {"time": 175919, "pitch": 76, "duration": 1201, "velocity": 100}, {"time": 177120, "pitch": 81, "duration": 219, "velocity": 100}, {"time": 177359, "pitch": 81, "duration": 219, "velocity": 100}, {"time": 177598, "pitch": 81, "duration": 222, "velocity": 100}, {"time": 177840, "pitch": 83, "duration": 720, "velocity": 100}, {"time": 178560, "pitch": 78, "duration": 485, "velocity": 100}, {"time": 179045, "pitch": 78, "duration": 709, "velocity": 100}, {"time": 179754, "pitch": 76, "duration": 717, "velocity": 100}, {"time": 180710, "pitch": 74, "duration": 239, "velocity": 100}, {"time": 180949, "pitch": 81, "duration": 245, "velocity": 100}, {"time": 181194, "pitch": 78, "duration": 246, "velocity": 100}, {"time": 181440, "pitch": 74, "duration": 239, "velocity": 100}, {"time": 181679, "pitch": 78, "duration": 481, "velocity": 100}, {"time": 182160, "pitch": 76, "duration": 481, "velocity": 100}, {"time": 182641, "pitch": 74, "duration": 100, "velocity": 100}, {"time": 182761, "pitch": 74, "duration": 99, "velocity": 100}, {"time": 182880, "pitch": 78, "duration": 239, "velocity": 100}, {"time": 183119, "pitch": 79, "duration": 239, "velocity": 100}, {"time": 183358, "pitch": 81, "duration": 242, "velocity": 100}, {"time": 183600, "pitch": 78, "duration": 481, "velocity": 100}, {"time": 184081, "pitch": 76, "duration": 478, "velocity": 100}, {"time": 184559, "pitch": 69, "duration": 119, "velocity": 100}, {"time": 184798, "pitch": 74, "duration": 242, "velocity": 100}, {"time": 185040, "pitch": 76, "duration": 242, "velocity": 100}, {"time": 185282, "pitch": 78, "duration": 239, "velocity": 100}, {"time": 185521, "pitch": 81, "duration": 478, "velocity": 100}, {"time": 185999, "pitch": 78, "duration": 239, "velocity": 100}, {"time": 186238, "pitch": 74, "duration": 222, "velocity": 100}, {"time": 186480, "pitch": 74, "duration": 481, "velocity": 100}, {"time": 186961, "pitch": 76, "duration": 239, "velocity": 100}, {"time": 187678, "pitch": 78, "duration": 242, "velocity": 100}, {"time": 187920, "pitch": 76, "duration": 242, "velocity": 100}, {"time": 188162, "pitch": 74, "duration": 239, "velocity": 100}, {"time": 188401, "pitch": 74, "duration": 239, "velocity": 100}, {"time": 191520, "pitch": 78, "duration": 239, "velocity": 100}, {"time": 191759, "pitch": 78, "duration": 239, "velocity": 100}, {"time": 191998, "pitch": 78, "duration": 242, "velocity": 100}, {"time": 192240, "pitch": 78, "duration": 481, "velocity": 100}, {"time": 192721, "pitch": 71, "duration": 239, "velocity": 100}, {"time": 192960, "pitch": 74, "duration": 477, "velocity": 100}, {"time": 195601, "pitch": 78, "duration": 239, "velocity": 100}, {"time": 195840, "pitch": 76, "duration": 239, "velocity": 100}, {"time": 196079, "pitch": 74, "duration": 238, "velocity": 100}, {"time": 196317, "pitch": 74, "duration": 243, "velocity": 100}, {"time": 196560, "pitch": 71, "duration": 242, "velocity": 100}, {"time": 487, "pitch": 83, "duration": 499, "velocity": 85}, {"time": 487, "pitch": 86, "duration": 469, "velocity": 91}, {"time": 487, "pitch": 90, "duration": 499, "velocity": 96}, {"time": 1175, "pitch": 83, "duration": 1005, "velocity": 89}, {"time": 1175, "pitch": 86, "duration": 985, "velocity": 93}, {"time": 1175, "pitch": 91, "duration": 1025, "velocity": 93}, {"time": 2349, "pitch": 86, "duration": 525, "velocity": 85}, {"time": 2359, "pitch": 81, "duration": 535, "velocity": 79}, {"time": 2359, "pitch": 90, "duration": 525, "velocity": 89}, {"time": 3086, "pitch": 81, "duration": 1015, "velocity": 79}, {"time": 3086, "pitch": 85, "duration": 1026, "velocity": 95}, {"time": 3086, "pitch": 88, "duration": 1015, "velocity": 85}, {"time": 4297, "pitch": 81, "duration": 525, "velocity": 79}, {"time": 4297, "pitch": 86, "duration": 525, "velocity": 83}, {"time": 4297, "pitch": 90, "duration": 515, "velocity": 87}, {"time": 5011, "pitch": 83, "duration": 1019, "velocity": 85}, {"time": 5011, "pitch": 86, "duration": 1009, "velocity": 89}, {"time": 5011, "pitch": 91, "duration": 1039, "velocity": 89}, {"time": 6212, "pitch": 81, "duration": 1711, "velocity": 83}, {"time": 6212, "pitch": 86, "duration": 951, "velocity": 81}, {"time": 6222, "pitch": 88, "duration": 1711, "velocity": 85}, {"time": 7153, "pitch": 85, "duration": 780, "velocity": 93}, {"time": 8139, "pitch": 83, "duration": 529, "velocity": 83}, {"time": 8139, "pitch": 86, "duration": 529, "velocity": 83}, {"time": 8139, "pitch": 90, "duration": 529, "velocity": 95}, {"time": 8870, "pitch": 83, "duration": 988, "velocity": 85}, {"time": 8870, "pitch": 86, "duration": 988, "velocity": 93}, {"time": 8870, "pitch": 91, "duration": 1008, "velocity": 89}, {"time": 10057, "pitch": 81, "duration": 505, "velocity": 77}, {"time": 10057, "pitch": 86, "duration": 505, "velocity": 83}, {"time": 10057, "pitch": 90, "duration": 505, "velocity": 87}, {"time": 10781, "pitch": 81, "duration": 962, "velocity": 81}, {"time": 10781, "pitch": 85, "duration": 972, "velocity": 95}, {"time": 10781, "pitch": 88, "duration": 982, "velocity": 85}, {"time": 11959, "pitch": 79, "duration": 3361, "velocity": 83}, {"time": 11959, "pitch": 83, "duration": 3391, "velocity": 85}, {"time": 11959, "pitch": 86, "duration": 3351, "velocity": 83}, {"time": 60951, "pitch": 81, "duration": 249, "velocity": 85}, {"time": 61180, "pitch": 88, "duration": 238, "velocity": 83}, {"time": 61418, "pitch": 93, "duration": 253, "velocity": 87}, {"time": 61661, "pitch": 91, "duration": 222, "velocity": 77}, {"time": 61893, "pitch": 90, "duration": 478, "velocity": 95}, {"time": 68370, "pitch": 98, "duration": 258, "velocity": 87}, {"time": 68608, "pitch": 97, "duration": 222, "velocity": 95}, {"time": 68860, "pitch": 93, "duration": 233, "velocity": 87}, {"time": 69093, "pitch": 91, "duration": 229, "velocity": 83}, {"time": 69561, "pitch": 90, "duration": 467, "velocity": 75}, {"time": 69571, "pitch": 81, "duration": 487, "velocity": 73}, {"time": 69571, "pitch": 86, "duration": 467, "velocity": 71}, {"time": 70290, "pitch": 83, "duration": 959, "velocity": 77}, {"time": 70290, "pitch": 86, "duration": 950, "velocity": 79}, {"time": 70290, "pitch": 91, "duration": 989, "velocity": 79}, {"time": 71498, "pitch": 85, "duration": 475, "velocity": 89}, {"time": 71498, "pitch": 88, "duration": 454, "velocity": 79}, {"time": 71508, "pitch": 81, "duration": 455, "velocity": 69}, {"time": 72222, "pitch": 82, "duration": 968, "velocity": 81}, {"time": 72222, "pitch": 85, "duration": 1019, "velocity": 83}, {"time": 72222, "pitch": 90, "duration": 1029, "velocity": 85}, {"time": 73443, "pitch": 83, "duration": 497, "velocity": 71}, {"time": 73443, "pitch": 86, "duration": 497, "velocity": 79}, {"time": 73443, "pitch": 90, "duration": 487, "velocity": 91}, {"time": 74129, "pitch": 83, "duration": 963, "velocity": 81}, {"time": 74129, "pitch": 86, "duration": 963, "velocity": 85}, {"time": 74129, "pitch": 91, "duration": 993, "velocity": 81}, {"time": 75321, "pitch": 81, "duration": 1738, "velocity": 77}, {"time": 75321, "pitch": 86, "duration": 972, "velocity": 83}, {"time": 75321, "pitch": 88, "duration": 1738, "velocity": 81}, {"time": 76293, "pitch": 85, "duration": 776, "velocity": 53}, {"time": 77248, "pitch": 83, "duration": 545, "velocity": 77}, {"time": 77248, "pitch": 86, "duration": 535, "velocity": 83}, {"time": 77248, "pitch": 90, "duration": 545, "velocity": 85}, {"time": 77982, "pitch": 83, "duration": 1009, "velocity": 75}, {"time": 77982, "pitch": 86, "duration": 1009, "velocity": 83}, {"time": 77982, "pitch": 91, "duration": 1009, "velocity": 87}, {"time": 79183, "pitch": 81, "duration": 577, "velocity": 69}, {"time": 79183, "pitch": 86, "duration": 557, "velocity": 75}, {"time": 79183, "pitch": 90, "duration": 547, "velocity": 83}, {"time": 79899, "pitch": 85, "duration": 1022, "velocity": 85}, {"time": 79899, "pitch": 88, "duration": 1022, "velocity": 75}, {"time": 79909, "pitch": 81, "duration": 1022, "velocity": 65}, {"time": 81110, "pitch": 81, "duration": 508, "velocity": 71}, {"time": 81110, "pitch": 86, "duration": 498, "velocity": 73}, {"time": 81110, "pitch": 90, "duration": 498, "velocity": 81}, {"time": 81800, "pitch": 83, "duration": 999, "velocity": 73}, {"time": 81800, "pitch": 86, "duration": 1009, "velocity": 81}, {"time": 81810, "pitch": 91, "duration": 1009, "velocity": 79}, {"time": 83028, "pitch": 81, "duration": 1864, "velocity": 73}, {"time": 83028, "pitch": 86, "duration": 932, "velocity": 79}, {"time": 83028, "pitch": 88, "duration": 1864, "velocity": 77}, {"time": 83980, "pitch": 85, "duration": 922, "velocity": 25}, {"time": 110862, "pitch": 81, "duration": 199, "velocity": 87}, {"time": 111111, "pitch": 88, "duration": 179, "velocity": 87}, {"time": 111360, "pitch": 93, "duration": 129, "velocity": 91}, {"time": 111588, "pitch": 91, "duration": 140, "velocity": 87}, {"time": 111837, "pitch": 90, "duration": 475, "velocity": 95}, {"time": 118311, "pitch": 98, "duration": 159, "velocity": 71}, {"time": 118539, "pitch": 97, "duration": 150, "velocity": 73}, {"time": 118778, "pitch": 93, "duration": 110, "velocity": 67}, {"time": 119007, "pitch": 91, "duration": 192, "velocity": 85}, {"time": 119471, "pitch": 81, "duration": 479, "velocity": 73}, {"time": 119471, "pitch": 86, "duration": 479, "velocity": 71}, {"time": 119471, "pitch": 90, "duration": 479, "velocity": 85}, {"time": 120208, "pitch": 83, "duration": 953, "velocity": 69}, {"time": 120208, "pitch": 86, "duration": 953, "velocity": 79}, {"time": 120218, "pitch": 91, "duration": 982, "velocity": 79}, {"time": 121429, "pitch": 81, "duration": 468, "velocity": 71}, {"time": 121429, "pitch": 85, "duration": 488, "velocity": 75}, {"time": 121429, "pitch": 88, "duration": 458, "velocity": 65}, {"time": 122129, "pitch": 82, "duration": 969, "velocity": 81}, {"time": 122129, "pitch": 90, "duration": 979, "velocity": 71}, {"time": 122139, "pitch": 85, "duration": 979, "velocity": 81}, {"time": 123327, "pitch": 83, "duration": 505, "velocity": 65}, {"time": 123327, "pitch": 86, "duration": 515, "velocity": 71}, {"time": 123327, "pitch": 90, "duration": 515, "velocity": 69}, {"time": 124051, "pitch": 83, "duration": 938, "velocity": 62}, {"time": 124051, "pitch": 86, "duration": 978, "velocity": 69}, {"time": 124051, "pitch": 91, "duration": 1130, "velocity": 73}, {"time": 125221, "pitch": 81, "duration": 1640, "velocity": 57}, {"time": 125221, "pitch": 86, "duration": 936, "velocity": 62}, {"time": 125221, "pitch": 88, "duration": 1660, "velocity": 60}, {"time": 126167, "pitch": 85, "duration": 654, "velocity": 9}, {"time": 138709, "pitch": 79, "duration": 679, "velocity": 69}, {"time": 138709, "pitch": 83, "duration": 659, "velocity": 75}, {"time": 138709, "pitch": 86, "duration": 659, "velocity": 67}, {"time": 139661, "pitch": 81, "duration": 697, "velocity": 71}, {"time": 139661, "pitch": 85, "duration": 697, "velocity": 77}, {"time": 139661, "pitch": 88, "duration": 697, "velocity": 71}, {"time": 140597, "pitch": 86, "duration": 644, "velocity": 62}, {"time": 140607, "pitch": 83, "duration": 683, "velocity": 69}, {"time": 140607, "pitch": 91, "duration": 683, "velocity": 75}, {"time": 141549, "pitch": 93, "duration": 724, "velocity": 77}, {"time": 141559, "pitch": 85, "duration": 724, "velocity": 73}, {"time": 141559, "pitch": 88, "duration": 733, "velocity": 73}, {"time": 148983, "pitch": 98, "duration": 142, "velocity": 81}, {"time": 149226, "pitch": 97, "duration": 130, "velocity": 75}, {"time": 149465, "pitch": 93, "duration": 130, "velocity": 77}, {"time": 149714, "pitch": 91, "duration": 286, "velocity": 91}, {"time": 150226, "pitch": 90, "duration": 493, "velocity": 79}, {"time": 150921, "pitch": 91, "duration": 1199, "velocity": 77}, {"time": 152150, "pitch": 93, "duration": 676, "velocity": 73}, {"time": 152836, "pitch": 94, "duration": 733, "velocity": 83}, {"time": 153579, "pitch": 90, "duration": 448, "velocity": 81}, {"time": 154047, "pitch": 95, "duration": 707, "velocity": 75}, {"time": 154775, "pitch": 91, "duration": 1191, "velocity": 79}, {"time": 155976, "pitch": 93, "duration": 1917, "velocity": 65}, {"time": 164370, "pitch": 98, "duration": 139, "velocity": 85}, {"time": 164608, "pitch": 97, "duration": 101, "velocity": 85}, {"time": 164840, "pitch": 93, "duration": 132, "velocity": 79}, {"time": 165093, "pitch": 91, "duration": 458, "velocity": 87}, {"time": 165581, "pitch": 90, "duration": 689, "velocity": 81}, {"time": 166280, "pitch": 91, "duration": 1208, "velocity": 83}, {"time": 167498, "pitch": 93, "duration": 724, "velocity": 77}, {"time": 168212, "pitch": 94, "duration": 1191, "velocity": 91}, {"time": 169413, "pitch": 95, "duration": 716, "velocity": 83}, {"time": 170129, "pitch": 91, "duration": 1182, "velocity": 81}, {"time": 171311, "pitch": 93, "duration": 1897, "velocity": 77}, {"time": 179705, "pitch": 98, "duration": 209, "velocity": 83}, {"time": 179934, "pitch": 97, "duration": 218, "velocity": 89}, {"time": 180182, "pitch": 93, "duration": 229, "velocity": 89}, {"time": 180421, "pitch": 91, "duration": 219, "velocity": 89}, {"time": 180879, "pitch": 81, "duration": 561, "velocity": 81}, {"time": 180879, "pitch": 90, "duration": 540, "velocity": 67}, {"time": 180889, "pitch": 86, "duration": 541, "velocity": 71}, {"time": 181639, "pitch": 83, "duration": 963, "velocity": 75}, {"time": 181639, "pitch": 86, "duration": 963, "velocity": 79}, {"time": 181639, "pitch": 91, "duration": 1042, "velocity": 77}, {"time": 182860, "pitch": 85, "duration": 488, "velocity": 65}, {"time": 182870, "pitch": 81, "duration": 468, "velocity": 69}, {"time": 182870, "pitch": 88, "duration": 468, "velocity": 69}, {"time": 183590, "pitch": 82, "duration": 969, "velocity": 77}, {"time": 183590, "pitch": 85, "duration": 979, "velocity": 75}, {"time": 183590, "pitch": 90, "duration": 979, "velocity": 71}, {"time": 184778, "pitch": 90, "duration": 504, "velocity": 65}, {"time": 184788, "pitch": 83, "duration": 484, "velocity": 67}, {"time": 184788, "pitch": 86, "duration": 494, "velocity": 69}, {"time": 185491, "pitch": 86, "duration": 918, "velocity": 69}, {"time": 185491, "pitch": 91, "duration": 928, "velocity": 67}, {"time": 185501, "pitch": 83, "duration": 929, "velocity": 63}, {"time": 186692, "pitch": 81, "duration": 1868, "velocity": 57}, {"time": 186692, "pitch": 86, "duration": 916, "velocity": 51}, {"time": 186692, "pitch": 88, "duration": 1868, "velocity": 63}, {"time": 187628, "pitch": 85, "duration": 922, "velocity": 55}, {"time": 428, "pitch": 54, "duration": 17, "velocity": 115}, {"time": 445, "pitch": 56, "duration": 16, "velocity": 120}, {"time": 461, "pitch": 57, "duration": 16, "velocity": 115}, {"time": 477, "pitch": 59, "duration": 1663, "velocity": 120}, {"time": 2140, "pitch": 59, "duration": 119, "velocity": 120}, {"time": 2259, "pitch": 61, "duration": 120, "velocity": 115}, {"time": 2379, "pitch": 62, "duration": 606, "velocity": 120}, {"time": 3106, "pitch": 61, "duration": 883, "velocity": 120}, {"time": 4072, "pitch": 54, "duration": 81, "velocity": 115}, {"time": 4153, "pitch": 56, "duration": 82, "velocity": 120}, {"time": 4235, "pitch": 57, "duration": 82, "velocity": 115}, {"time": 4317, "pitch": 59, "duration": 1683, "velocity": 120}, {"time": 6000, "pitch": 62, "duration": 121, "velocity": 120}, {"time": 6121, "pitch": 64, "duration": 121, "velocity": 115}, {"time": 6242, "pitch": 66, "duration": 623, "velocity": 120}, {"time": 6945, "pitch": 64, "duration": 481, "velocity": 120}, {"time": 7426, "pitch": 66, "duration": 121, "velocity": 110}, {"time": 7786, "pitch": 54, "duration": 118, "velocity": 115}, {"time": 7904, "pitch": 56, "duration": 117, "velocity": 120}, {"time": 8021, "pitch": 57, "duration": 118, "velocity": 115}, {"time": 8139, "pitch": 59, "duration": 1699, "velocity": 120}, {"time": 9838, "pitch": 59, "duration": 120, "velocity": 120}, {"time": 9958, "pitch": 61, "duration": 119, "velocity": 115}, {"time": 10077, "pitch": 62, "duration": 604, "velocity": 120}, {"time": 10801, "pitch": 61, "duration": 1187, "velocity": 120}, {"time": 11988, "pitch": 59, "duration": 730, "velocity": 120}, {"time": 12718, "pitch": 69, "duration": 1202, "velocity": 120}, {"time": 13920, "pitch": 64, "duration": 238, "velocity": 120}, {"time": 14158, "pitch": 62, "duration": 360, "velocity": 110}, {"time": 14518, "pitch": 62, "duration": 122, "velocity": 110}, {"time": 14640, "pitch": 64, "duration": 1198, "velocity": 100}, {"time": 77039, "pitch": 71, "duration": 1921, "velocity": 120}, {"time": 78960, "pitch": 69, "duration": 482, "velocity": 120}, {"time": 79442, "pitch": 69, "duration": 119, "velocity": 110}, {"time": 79680, "pitch": 64, "duration": 720, "velocity": 120}, {"time": 80643, "pitch": 57, "duration": 119, "velocity": 110}, {"time": 80762, "pitch": 59, "duration": 358, "velocity": 110}, {"time": 81359, "pitch": 57, "duration": 119, "velocity": 110}, {"time": 81478, "pitch": 57, "duration": 362, "velocity": 120}, {"time": 81840, "pitch": 57, "duration": 121, "velocity": 110}, {"time": 82083, "pitch": 52, "duration": 716, "velocity": 120}, {"time": 127199, "pitch": 71, "duration": 1679, "velocity": 90}, {"time": 128878, "pitch": 69, "duration": 239, "velocity": 90}, {"time": 129238, "pitch": 69, "duration": 1783, "velocity": 90}, {"time": 142561, "pitch": 50, "duration": 478, "velocity": 110}, {"time": 143039, "pitch": 52, "duration": 121, "velocity": 120}, {"time": 143160, "pitch": 50, "duration": 121, "velocity": 100}, {"time": 143281, "pitch": 52, "duration": 121, "velocity": 120}, {"time": 143402, "pitch": 54, "duration": 122, "velocity": 100}, {"time": 143524, "pitch": 62, "duration": 716, "velocity": 120}, {"time": 144240, "pitch": 64, "duration": 119, "velocity": 120}, {"time": 144359, "pitch": 62, "duration": 120, "velocity": 120}, {"time": 144479, "pitch": 66, "duration": 121, "velocity": 115}, {"time": 144600, "pitch": 69, "duration": 121, "velocity": 120}, {"time": 144721, "pitch": 69, "duration": 121, "velocity": 120}, {"time": 144842, "pitch": 69, "duration": 121, "velocity": 120}, {"time": 144963, "pitch": 64, "duration": 239, "velocity": 120}, {"time": 145202, "pitch": 64, "duration": 478, "velocity": 120}, {"time": 145680, "pitch": 62, "duration": 119, "velocity": 120}, {"time": 145799, "pitch": 59, "duration": 120, "velocity": 115}, {"time": 145919, "pitch": 62, "duration": 363, "velocity": 120}, {"time": 146282, "pitch": 69, "duration": 101, "velocity": 120}, {"time": 146403, "pitch": 71, "duration": 721, "velocity": 120}, {"time": 147124, "pitch": 69, "duration": 120, "velocity": 120}, {"time": 147244, "pitch": 66, "duration": 122, "velocity": 115}, {"time": 147366, "pitch": 69, "duration": 115, "velocity": 120}, {"time": 147481, "pitch": 64, "duration": 707, "velocity": 115}, {"time": 148188, "pitch": 72, "duration": 119, "velocity": 120}, {"time": 148307, "pitch": 71, "duration": 120, "velocity": 120}, {"time": 148427, "pitch": 71, "duration": 244, "velocity": 120}, {"time": 148671, "pitch": 69, "duration": 121, "velocity": 120}, {"time": 148792, "pitch": 66, "duration": 121, "velocity": 120}, {"time": 148913, "pitch": 64, "duration": 363, "velocity": 120}, {"time": 149276, "pitch": 66, "duration": 120, "velocity": 120}, {"time": 149396, "pitch": 64, "duration": 120, "velocity": 120}, {"time": 149516, "pitch": 62, "duration": 119, "velocity": 115}, {"time": 149635, "pitch": 59, "duration": 119, "velocity": 120}, {"time": 149754, "pitch": 57, "duration": 123, "velocity": 115}, {"time": 149877, "pitch": 54, "duration": 123, "velocity": 115}, {"time": 150000, "pitch": 52, "duration": 246, "velocity": 110}, {"time": 150246, "pitch": 66, "duration": 347, "velocity": 120}, {"time": 150478, "pitch": 74, "duration": 115, "velocity": 110}, {"time": 150593, "pitch": 66, "duration": 358, "velocity": 120}, {"time": 150831, "pitch": 76, "duration": 120, "velocity": 110}, {"time": 150951, "pitch": 66, "duration": 364, "velocity": 120}, {"time": 151194, "pitch": 78, "duration": 121, "velocity": 110}, {"time": 151315, "pitch": 81, "duration": 122, "velocity": 110}, {"time": 151437, "pitch": 81, "duration": 733, "velocity": 120}, {"time": 152284, "pitch": 81, "duration": 114, "velocity": 120}, {"time": 152398, "pitch": 78, "duration": 114, "velocity": 120}, {"time": 152512, "pitch": 71, "duration": 115, "velocity": 120}, {"time": 152627, "pitch": 78, "duration": 119, "velocity": 120}, {"time": 152746, "pitch": 74, "duration": 120, "velocity": 120}, {"time": 152866, "pitch": 69, "duration": 238, "velocity": 120}, {"time": 153104, "pitch": 71, "duration": 364, "velocity": 120}, {"time": 153347, "pitch": 78, "duration": 121, "velocity": 110}, {"time": 153468, "pitch": 71, "duration": 360, "velocity": 120}, {"time": 153709, "pitch": 79, "duration": 119, "velocity": 110}, {"time": 153828, "pitch": 71, "duration": 239, "velocity": 120}, {"time": 153947, "pitch": 81, "duration": 120, "velocity": 110}, {"time": 154191, "pitch": 83, "duration": 374, "velocity": 120}, {"time": 154685, "pitch": 71, "duration": 119, "velocity": 115}, {"time": 154804, "pitch": 74, "duration": 120, "velocity": 120}, {"time": 154924, "pitch": 71, "duration": 119, "velocity": 115}, {"time": 155043, "pitch": 72, "duration": 841, "velocity": 120}, {"time": 155884, "pitch": 69, "duration": 121, "velocity": 115}, {"time": 156005, "pitch": 69, "duration": 239, "velocity": 120}, {"time": 156244, "pitch": 69, "duration": 478, "velocity": 115}, {"time": 156722, "pitch": 74, "duration": 119, "velocity": 120}, {"time": 156841, "pitch": 69, "duration": 120, "velocity": 115}, {"time": 156961, "pitch": 78, "duration": 358, "velocity": 120}, {"time": 157200, "pitch": 81, "duration": 119, "velocity": 115}, {"time": 157319, "pitch": 78, "duration": 362, "velocity": 120}, {"time": 157681, "pitch": 76, "duration": 242, "velocity": 115}, {"time": 157923, "pitch": 74, "duration": 1918, "velocity": 120}, {"time": 428, "pitch": 42, "duration": 17, "velocity": 115}, {"time": 445, "pitch": 44, "duration": 16, "velocity": 120}, {"time": 461, "pitch": 45, "duration": 16, "velocity": 115}, {"time": 477, "pitch": 47, "duration": 1663, "velocity": 120}, {"time": 2140, "pitch": 47, "duration": 119, "velocity": 120}, {"time": 2259, "pitch": 49, "duration": 120, "velocity": 115}, {"time": 2379, "pitch": 50, "duration": 606, "velocity": 120}, {"time": 3106, "pitch": 49, "duration": 883, "velocity": 120}, {"time": 4072, "pitch": 42, "duration": 81, "velocity": 115}, {"time": 4153, "pitch": 44, "duration": 82, "velocity": 120}, {"time": 4235, "pitch": 45, "duration": 82, "velocity": 115}, {"time": 4317, "pitch": 47, "duration": 1683, "velocity": 120}, {"time": 6000, "pitch": 50, "duration": 121, "velocity": 120}, {"time": 6121, "pitch": 52, "duration": 121, "velocity": 115}, {"time": 6242, "pitch": 54, "duration": 623, "velocity": 120}, {"time": 6945, "pitch": 52, "duration": 481, "velocity": 120}, {"time": 7426, "pitch": 54, "duration": 121, "velocity": 110}, {"time": 7786, "pitch": 42, "duration": 118, "velocity": 115}, {"time": 7904, "pitch": 44, "duration": 117, "velocity": 120}, {"time": 8021, "pitch": 45, "duration": 118, "velocity": 115}, {"time": 8139, "pitch": 47, "duration": 1699, "velocity": 120}, {"time": 9838, "pitch": 47, "duration": 120, "velocity": 120}, {"time": 9958, "pitch": 49, "duration": 119, "velocity": 115}, {"time": 10077, "pitch": 50, "duration": 604, "velocity": 120}, {"time": 10801, "pitch": 49, "duration": 1187, "velocity": 120}, {"time": 11988, "pitch": 47, "duration": 3850, "velocity": 120}, {"time": 477, "pitch": 50, "duration": 469, "velocity": 105}, {"time": 480, "pitch": 59, "duration": 476, "velocity": 110}, {"time": 487, "pitch": 62, "duration": 479, "velocity": 115}, {"time": 497, "pitch": 66, "duration": 479, "velocity": 120}, {"time": 946, "pitch": 50, "duration": 219, "velocity": 95}, {"time": 956, "pitch": 59, "duration": 209, "velocity": 100}, {"time": 966, "pitch": 62, "duration": 199, "velocity": 105}, {"time": 976, "pitch": 66, "duration": 189, "velocity": 110}, {"time": 1185, "pitch": 67, "duration": 746, "velocity": 120}, {"time": 1195, "pitch": 62, "duration": 726, "velocity": 115}, {"time": 1205, "pitch": 59, "duration": 706, "velocity": 110}, {"time": 1215, "pitch": 50, "duration": 686, "velocity": 105}, {"time": 1901, "pitch": 50, "duration": 458, "velocity": 95}, {"time": 1911, "pitch": 59, "duration": 448, "velocity": 100}, {"time": 1921, "pitch": 62, "duration": 438, "velocity": 105}, {"time": 1931, "pitch": 67, "duration": 428, "velocity": 110}, {"time": 2379, "pitch": 50, "duration": 484, "velocity": 105}, {"time": 2389, "pitch": 57, "duration": 485, "velocity": 110}, {"time": 2399, "pitch": 62, "duration": 485, "velocity": 115}, {"time": 2409, "pitch": 66, "duration": 485, "velocity": 120}, {"time": 2863, "pitch": 50, "duration": 223, "velocity": 95}, {"time": 2874, "pitch": 57, "duration": 212, "velocity": 100}, {"time": 2884, "pitch": 62, "duration": 202, "velocity": 105}, {"time": 2894, "pitch": 66, "duration": 192, "velocity": 110}, {"time": 3106, "pitch": 64, "duration": 750, "velocity": 120}, {"time": 3116, "pitch": 61, "duration": 730, "velocity": 115}, {"time": 3126, "pitch": 57, "duration": 710, "velocity": 110}, {"time": 3136, "pitch": 52, "duration": 690, "velocity": 105}, {"time": 3826, "pitch": 52, "duration": 471, "velocity": 95}, {"time": 3836, "pitch": 57, "duration": 461, "velocity": 100}, {"time": 3846, "pitch": 61, "duration": 451, "velocity": 105}, {"time": 3856, "pitch": 64, "duration": 441, "velocity": 110}, {"time": 4317, "pitch": 50, "duration": 485, "velocity": 105}, {"time": 4327, "pitch": 59, "duration": 485, "velocity": 110}, {"time": 4338, "pitch": 62, "duration": 484, "velocity": 115}, {"time": 4348, "pitch": 66, "duration": 484, "velocity": 120}, {"time": 4802, "pitch": 50, "duration": 219, "velocity": 95}, {"time": 4812, "pitch": 59, "duration": 209, "velocity": 100}, {"time": 4822, "pitch": 62, "duration": 199, "velocity": 105}, {"time": 4832, "pitch": 66, "duration": 189, "velocity": 110}, {"time": 5041, "pitch": 67, "duration": 747, "velocity": 120}, {"time": 5051, "pitch": 62, "duration": 727, "velocity": 115}, {"time": 5061, "pitch": 59, "duration": 706, "velocity": 110}, {"time": 5071, "pitch": 50, "duration": 686, "velocity": 105}, {"time": 5757, "pitch": 50, "duration": 465, "velocity": 95}, {"time": 5767, "pitch": 59, "duration": 455, "velocity": 100}, {"time": 5778, "pitch": 62, "duration": 444, "velocity": 105}, {"time": 5788, "pitch": 67, "duration": 434, "velocity": 110}, {"time": 6242, "pitch": 52, "duration": 464, "velocity": 105}, {"time": 6252, "pitch": 57, "duration": 464, "velocity": 110}, {"time": 6261, "pitch": 62, "duration": 465, "velocity": 115}, {"time": 6271, "pitch": 64, "duration": 465, "velocity": 120}, {"time": 6706, "pitch": 52, "duration": 219, "velocity": 95}, {"time": 6716, "pitch": 57, "duration": 209, "velocity": 100}, {"time": 6726, "pitch": 62, "duration": 199, "velocity": 105}, {"time": 6736, "pitch": 64, "duration": 189, "velocity": 110}, {"time": 6945, "pitch": 64, "duration": 753, "velocity": 120}, {"time": 6954, "pitch": 61, "duration": 734, "velocity": 115}, {"time": 6964, "pitch": 57, "duration": 714, "velocity": 110}, {"time": 6974, "pitch": 52, "duration": 694, "velocity": 105}, {"time": 7668, "pitch": 52, "duration": 451, "velocity": 95}, {"time": 7678, "pitch": 57, "duration": 441, "velocity": 100}, {"time": 7688, "pitch": 61, "duration": 431, "velocity": 105}, {"time": 7698, "pitch": 64, "duration": 421, "velocity": 110}, {"time": 8139, "pitch": 50, "duration": 498, "velocity": 105}, {"time": 8149, "pitch": 59, "duration": 498, "velocity": 110}, {"time": 8159, "pitch": 62, "duration": 498, "velocity": 115}, {"time": 8169, "pitch": 66, "duration": 499, "velocity": 120}, {"time": 8637, "pitch": 50, "duration": 222, "velocity": 95}, {"time": 8647, "pitch": 59, "duration": 212, "velocity": 100}, {"time": 8657, "pitch": 62, "duration": 202, "velocity": 105}, {"time": 8668, "pitch": 66, "duration": 191, "velocity": 110}, {"time": 8880, "pitch": 67, "duration": 750, "velocity": 120}, {"time": 8890, "pitch": 62, "duration": 730, "velocity": 115}, {"time": 8900, "pitch": 59, "duration": 710, "velocity": 110}, {"time": 8910, "pitch": 50, "duration": 690, "velocity": 105}, {"time": 9600, "pitch": 50, "duration": 457, "velocity": 95}, {"time": 9610, "pitch": 59, "duration": 447, "velocity": 100}, {"time": 9620, "pitch": 62, "duration": 437, "velocity": 105}, {"time": 9630, "pitch": 67, "duration": 427, "velocity": 110}, {"time": 10077, "pitch": 50, "duration": 485, "velocity": 105}, {"time": 10087, "pitch": 57, "duration": 485, "velocity": 110}, {"time": 10097, "pitch": 62, "duration": 485, "velocity": 115}, {"time": 10108, "pitch": 66, "duration": 484, "velocity": 120}, {"time": 10562, "pitch": 50, "duration": 219, "velocity": 95}, {"time": 10572, "pitch": 57, "duration": 209, "velocity": 100}, {"time": 10582, "pitch": 62, "duration": 199, "velocity": 105}, {"time": 10592, "pitch": 66, "duration": 189, "velocity": 110}, {"time": 10801, "pitch": 64, "duration": 746, "velocity": 120}, {"time": 10811, "pitch": 61, "duration": 726, "velocity": 115}, {"time": 10821, "pitch": 57, "duration": 706, "velocity": 110}, {"time": 10831, "pitch": 52, "duration": 686, "velocity": 105}, {"time": 11517, "pitch": 52, "duration": 452, "velocity": 95}, {"time": 11527, "pitch": 57, "duration": 442, "velocity": 100}, {"time": 11537, "pitch": 61, "duration": 432, "velocity": 105}, {"time": 11547, "pitch": 64, "duration": 422, "velocity": 110}, {"time": 11988, "pitch": 50, "duration": 3850, "velocity": 105}, {"time": 12008, "pitch": 59, "duration": 3830, "velocity": 110}, {"time": 12029, "pitch": 62, "duration": 3809, "velocity": 115}, {"time": 12049, "pitch": 67, "duration": 3789, "velocity": 120}, {"time": 50403, "pitch": 43, "duration": 1898, "velocity": 110}, {"time": 50642, "pitch": 59, "duration": 1659, "velocity": 125}, {"time": 50881, "pitch": 55, "duration": 1420, "velocity": 120}, {"time": 51120, "pitch": 67, "duration": 1181, "velocity": 110}, {"time": 52321, "pitch": 43, "duration": 1898, "velocity": 110}, {"time": 52560, "pitch": 61, "duration": 1659, "velocity": 125}, {"time": 52799, "pitch": 57, "duration": 1420, "velocity": 120}, {"time": 53041, "pitch": 64, "duration": 1178, "velocity": 110}, {"time": 54239, "pitch": 42, "duration": 962, "velocity": 110}, {"time": 55201, "pitch": 40, "duration": 962, "velocity": 110}, {"time": 56163, "pitch": 45, "duration": 1659, "velocity": 110}, {"time": 56183, "pitch": 50, "duration": 1639, "velocity": 115}, {"time": 56203, "pitch": 55, "duration": 1619, "velocity": 110}, {"time": 56223, "pitch": 59, "duration": 1599, "velocity": 105}, {"time": 56243, "pitch": 67, "duration": 1579, "velocity": 100}, {"time": 57842, "pitch": 40, "duration": 119, "velocity": 125}, {"time": 57961, "pitch": 42, "duration": 120, "velocity": 120}, {"time": 58081, "pitch": 43, "duration": 1898, "velocity": 120}, {"time": 58091, "pitch": 59, "duration": 1888, "velocity": 100}, {"time": 58101, "pitch": 62, "duration": 1878, "velocity": 105}, {"time": 58111, "pitch": 67, "duration": 1868, "velocity": 110}, {"time": 59998, "pitch": 45, "duration": 273, "velocity": 85}, {"time": 60009, "pitch": 57, "duration": 252, "velocity": 90}, {"time": 60019, "pitch": 61, "duration": 232, "velocity": 95}, {"time": 60029, "pitch": 64, "duration": 212, "velocity": 100}, {"time": 60241, "pitch": 64, "duration": 272, "velocity": 105}, {"time": 60251, "pitch": 61, "duration": 252, "velocity": 100}, {"time": 60261, "pitch": 57, "duration": 232, "velocity": 95}, {"time": 60271, "pitch": 45, "duration": 212, "velocity": 90}, {"time": 60483, "pitch": 45, "duration": 269, "velocity": 95}, {"time": 60493, "pitch": 57, "duration": 249, "velocity": 100}, {"time": 60503, "pitch": 61, "duration": 229, "velocity": 105}, {"time": 60513, "pitch": 64, "duration": 209, "velocity": 110}, {"time": 60722, "pitch": 64, "duration": 269, "velocity": 115}, {"time": 60732, "pitch": 61, "duration": 249, "velocity": 110}, {"time": 60742, "pitch": 57, "duration": 229, "velocity": 105}, {"time": 60752, "pitch": 45, "duration": 209, "velocity": 100}, {"time": 60961, "pitch": 45, "duration": 268, "velocity": 105}, {"time": 60971, "pitch": 57, "duration": 248, "velocity": 110}, {"time": 60981, "pitch": 61, "duration": 229, "velocity": 115}, {"time": 60991, "pitch": 64, "duration": 209, "velocity": 120}, {"time": 61200, "pitch": 64, "duration": 269, "velocity": 115}, {"time": 61210, "pitch": 61, "duration": 249, "velocity": 110}, {"time": 61219, "pitch": 57, "duration": 229, "velocity": 105}, {"time": 61229, "pitch": 45, "duration": 209, "velocity": 100}, {"time": 61438, "pitch": 45, "duration": 273, "velocity": 105}, {"time": 61448, "pitch": 57, "duration": 253, "velocity": 110}, {"time": 61459, "pitch": 61, "duration": 232, "velocity": 115}, {"time": 61469, "pitch": 64, "duration": 212, "velocity": 120}, {"time": 61681, "pitch": 64, "duration": 272, "velocity": 115}, {"time": 61691, "pitch": 61, "duration": 252, "velocity": 110}, {"time": 61701, "pitch": 57, "duration": 232, "velocity": 105}, {"time": 61711, "pitch": 45, "duration": 212, "velocity": 100}, {"time": 61923, "pitch": 50, "duration": 478, "velocity": 105}, {"time": 61933, "pitch": 57, "duration": 478, "velocity": 110}, {"time": 61943, "pitch": 62, "duration": 478, "velocity": 115}, {"time": 61953, "pitch": 66, "duration": 478, "velocity": 120}, {"time": 62401, "pitch": 50, "duration": 219, "velocity": 95}, {"time": 62411, "pitch": 57, "duration": 209, "velocity": 100}, {"time": 62421, "pitch": 62, "duration": 199, "velocity": 105}, {"time": 62431, "pitch": 66, "duration": 189, "velocity": 110}, {"time": 62640, "pitch": 67, "duration": 753, "velocity": 120}, {"time": 62650, "pitch": 62, "duration": 733, "velocity": 115}, {"time": 62659, "pitch": 59, "duration": 714, "velocity": 110}, {"time": 62669, "pitch": 50, "duration": 694, "velocity": 105}, {"time": 63363, "pitch": 50, "duration": 458, "velocity": 95}, {"time": 63373, "pitch": 59, "duration": 448, "velocity": 100}, {"time": 63383, "pitch": 62, "duration": 438, "velocity": 105}, {"time": 63393, "pitch": 67, "duration": 428, "velocity": 110}, {"time": 63841, "pitch": 52, "duration": 477, "velocity": 105}, {"time": 63851, "pitch": 55, "duration": 477, "velocity": 110}, {"time": 63861, "pitch": 59, "duration": 477, "velocity": 115}, {"time": 63871, "pitch": 64, "duration": 478, "velocity": 120}, {"time": 64318, "pitch": 52, "duration": 223, "velocity": 95}, {"time": 64328, "pitch": 55, "duration": 213, "velocity": 100}, {"time": 64338, "pitch": 59, "duration": 203, "velocity": 105}, {"time": 64349, "pitch": 64, "duration": 192, "velocity": 110}, {"time": 64561, "pitch": 64, "duration": 750, "velocity": 120}, {"time": 64571, "pitch": 61, "duration": 730, "velocity": 115}, {"time": 64581, "pitch": 57, "duration": 710, "velocity": 110}, {"time": 64591, "pitch": 52, "duration": 690, "velocity": 105}, {"time": 65281, "pitch": 52, "duration": 457, "velocity": 95}, {"time": 65291, "pitch": 57, "duration": 447, "velocity": 100}, {"time": 65301, "pitch": 61, "duration": 437, "velocity": 105}, {"time": 65311, "pitch": 64, "duration": 427, "velocity": 110}, {"time": 65758, "pitch": 50, "duration": 485, "velocity": 105}, {"time": 65768, "pitch": 57, "duration": 485, "velocity": 110}, {"time": 65778, "pitch": 62, "duration": 485, "velocity": 115}, {"time": 65789, "pitch": 66, "duration": 484, "velocity": 120}, {"time": 66243, "pitch": 50, "duration": 219, "velocity": 95}, {"time": 66253, "pitch": 57, "duration": 209, "velocity": 100}, {"time": 66263, "pitch": 62, "duration": 199, "velocity": 105}, {"time": 66273, "pitch": 66, "duration": 189, "velocity": 110}, {"time": 66482, "pitch": 67, "duration": 747, "velocity": 120}, {"time": 66492, "pitch": 62, "duration": 726, "velocity": 115}, {"time": 66502, "pitch": 59, "duration": 706, "velocity": 110}, {"time": 66512, "pitch": 50, "duration": 686, "velocity": 105}, {"time": 67198, "pitch": 50, "duration": 465, "velocity": 95}, {"time": 67208, "pitch": 59, "duration": 455, "velocity": 100}, {"time": 67218, "pitch": 62, "duration": 445, "velocity": 105}, {"time": 67229, "pitch": 67, "duration": 434, "velocity": 110}, {"time": 67683, "pitch": 52, "duration": 478, "velocity": 105}, {"time": 67693, "pitch": 57, "duration": 478, "velocity": 110}, {"time": 67703, "pitch": 62, "duration": 478, "velocity": 115}, {"time": 67713, "pitch": 64, "duration": 477, "velocity": 120}, {"time": 68161, "pitch": 52, "duration": 219, "velocity": 95}, {"time": 68171, "pitch": 57, "duration": 209, "velocity": 100}, {"time": 68181, "pitch": 62, "duration": 199, "velocity": 105}, {"time": 68190, "pitch": 64, "duration": 190, "velocity": 110}, {"time": 68399, "pitch": 64, "duration": 754, "velocity": 120}, {"time": 68409, "pitch": 61, "duration": 734, "velocity": 115}, {"time": 68419, "pitch": 57, "duration": 714, "velocity": 110}, {"time": 68429, "pitch": 52, "duration": 694, "velocity": 105}, {"time": 69123, "pitch": 52, "duration": 458, "velocity": 95}, {"time": 69133, "pitch": 57, "duration": 448, "velocity": 100}, {"time": 69143, "pitch": 61, "duration": 438, "velocity": 105}, {"time": 69153, "pitch": 64, "duration": 428, "velocity": 110}, {"time": 69601, "pitch": 50, "duration": 477, "velocity": 105}, {"time": 69611, "pitch": 57, "duration": 477, "velocity": 110}, {"time": 69620, "pitch": 62, "duration": 478, "velocity": 115}, {"time": 69630, "pitch": 66, "duration": 478, "velocity": 120}, {"time": 70078, "pitch": 50, "duration": 222, "velocity": 95}, {"time": 70088, "pitch": 57, "duration": 212, "velocity": 100}, {"time": 70098, "pitch": 62, "duration": 202, "velocity": 105}, {"time": 70108, "pitch": 66, "duration": 192, "velocity": 110}, {"time": 70321, "pitch": 67, "duration": 749, "velocity": 120}, {"time": 70331, "pitch": 62, "duration": 729, "velocity": 115}, {"time": 70341, "pitch": 59, "duration": 709, "velocity": 110}, {"time": 70351, "pitch": 50, "duration": 690, "velocity": 105}, {"time": 71041, "pitch": 50, "duration": 457, "velocity": 95}, {"time": 71050, "pitch": 59, "duration": 448, "velocity": 100}, {"time": 71060, "pitch": 62, "duration": 438, "velocity": 105}, {"time": 71070, "pitch": 67, "duration": 428, "velocity": 110}, {"time": 71518, "pitch": 52, "duration": 485, "velocity": 105}, {"time": 71528, "pitch": 57, "duration": 485, "velocity": 110}, {"time": 71538, "pitch": 61, "duration": 485, "velocity": 115}, {"time": 71548, "pitch": 64, "duration": 485, "velocity": 120}, {"time": 72003, "pitch": 52, "duration": 219, "velocity": 95}, {"time": 72013, "pitch": 57, "duration": 209, "velocity": 100}, {"time": 72023, "pitch": 61, "duration": 199, "velocity": 105}, {"time": 72033, "pitch": 64, "duration": 189, "velocity": 110}, {"time": 72242, "pitch": 64, "duration": 746, "velocity": 120}, {"time": 72252, "pitch": 61, "duration": 726, "velocity": 115}, {"time": 72262, "pitch": 58, "duration": 706, "velocity": 110}, {"time": 72272, "pitch": 52, "duration": 686, "velocity": 105}, {"time": 72958, "pitch": 52, "duration": 465, "velocity": 95}, {"time": 72968, "pitch": 58, "duration": 455, "velocity": 100}, {"time": 72978, "pitch": 61, "duration": 445, "velocity": 105}, {"time": 72988, "pitch": 64, "duration": 435, "velocity": 110}, {"time": 73443, "pitch": 50, "duration": 477, "velocity": 105}, {"time": 73453, "pitch": 59, "duration": 477, "velocity": 110}, {"time": 73463, "pitch": 62, "duration": 477, "velocity": 115}, {"time": 73473, "pitch": 66, "duration": 477, "velocity": 120}, {"time": 73920, "pitch": 50, "duration": 219, "velocity": 95}, {"time": 73930, "pitch": 59, "duration": 209, "velocity": 100}, {"time": 73940, "pitch": 62, "duration": 199, "velocity": 105}, {"time": 73950, "pitch": 66, "duration": 189, "velocity": 110}, {"time": 74159, "pitch": 67, "duration": 754, "velocity": 120}, {"time": 74169, "pitch": 62, "duration": 734, "velocity": 115}, {"time": 74179, "pitch": 59, "duration": 714, "velocity": 110}, {"time": 74189, "pitch": 50, "duration": 694, "velocity": 105}, {"time": 74883, "pitch": 50, "duration": 458, "velocity": 95}, {"time": 74893, "pitch": 59, "duration": 448, "velocity": 100}, {"time": 74903, "pitch": 62, "duration": 438, "velocity": 105}, {"time": 74913, "pitch": 67, "duration": 428, "velocity": 110}, {"time": 75360, "pitch": 50, "duration": 478, "velocity": 105}, {"time": 75370, "pitch": 57, "duration": 478, "velocity": 110}, {"time": 75380, "pitch": 62, "duration": 478, "velocity": 115}, {"time": 75390, "pitch": 64, "duration": 478, "velocity": 120}, {"time": 75838, "pitch": 50, "duration": 222, "velocity": 95}, {"time": 75848, "pitch": 57, "duration": 212, "velocity": 100}, {"time": 75858, "pitch": 62, "duration": 202, "velocity": 105}, {"time": 75868, "pitch": 64, "duration": 192, "velocity": 110}, {"time": 76080, "pitch": 64, "duration": 750, "velocity": 120}, {"time": 76091, "pitch": 62, "duration": 729, "velocity": 115}, {"time": 76101, "pitch": 57, "duration": 709, "velocity": 110}, {"time": 76111, "pitch": 52, "duration": 689, "velocity": 105}, {"time": 76800, "pitch": 52, "duration": 458, "velocity": 95}, {"time": 76810, "pitch": 57, "duration": 448, "velocity": 100}, {"time": 76820, "pitch": 62, "duration": 438, "velocity": 105}, {"time": 76830, "pitch": 64, "duration": 428, "velocity": 110}, {"time": 77278, "pitch": 50, "duration": 485, "velocity": 105}, {"time": 77288, "pitch": 59, "duration": 485, "velocity": 110}, {"time": 77298, "pitch": 62, "duration": 485, "velocity": 115}, {"time": 77308, "pitch": 66, "duration": 485, "velocity": 120}, {"time": 77763, "pitch": 50, "duration": 219, "velocity": 95}, {"time": 77773, "pitch": 59, "duration": 209, "velocity": 100}, {"time": 77783, "pitch": 62, "duration": 199, "velocity": 105}, {"time": 77793, "pitch": 66, "duration": 189, "velocity": 110}, {"time": 78002, "pitch": 67, "duration": 746, "velocity": 120}, {"time": 78012, "pitch": 62, "duration": 726, "velocity": 115}, {"time": 78021, "pitch": 59, "duration": 707, "velocity": 110}, {"time": 78031, "pitch": 50, "duration": 687, "velocity": 105}, {"time": 78718, "pitch": 50, "duration": 465, "velocity": 95}, {"time": 78728, "pitch": 59, "duration": 455, "velocity": 100}, {"time": 78738, "pitch": 62, "duration": 445, "velocity": 105}, {"time": 78748, "pitch": 67, "duration": 435, "velocity": 110}, {"time": 79203, "pitch": 50, "duration": 477, "velocity": 105}, {"time": 79213, "pitch": 57, "duration": 477, "velocity": 110}, {"time": 79223, "pitch": 62, "duration": 477, "velocity": 115}, {"time": 79233, "pitch": 66, "duration": 477, "velocity": 120}, {"time": 79680, "pitch": 50, "duration": 219, "velocity": 95}, {"time": 79690, "pitch": 57, "duration": 209, "velocity": 100}, {"time": 79700, "pitch": 62, "duration": 199, "velocity": 105}, {"time": 79710, "pitch": 66, "duration": 189, "velocity": 110}, {"time": 79919, "pitch": 64, "duration": 754, "velocity": 120}, {"time": 79929, "pitch": 61, "duration": 734, "velocity": 115}, {"time": 79939, "pitch": 57, "duration": 714, "velocity": 110}, {"time": 79949, "pitch": 52, "duration": 694, "velocity": 105}, {"time": 80643, "pitch": 52, "duration": 457, "velocity": 95}, {"time": 80653, "pitch": 57, "duration": 447, "velocity": 100}, {"time": 80663, "pitch": 61, "duration": 437, "velocity": 105}, {"time": 80673, "pitch": 64, "duration": 427, "velocity": 110}, {"time": 81120, "pitch": 50, "duration": 478, "velocity": 105}, {"time": 81130, "pitch": 59, "duration": 478, "velocity": 110}, {"time": 81140, "pitch": 62, "duration": 478, "velocity": 115}, {"time": 81150, "pitch": 66, "duration": 478, "velocity": 120}, {"time": 81598, "pitch": 50, "duration": 222, "velocity": 95}, {"time": 81608, "pitch": 59, "duration": 212, "velocity": 100}, {"time": 81618, "pitch": 62, "duration": 202, "velocity": 105}, {"time": 81628, "pitch": 66, "duration": 192, "velocity": 110}, {"time": 81840, "pitch": 67, "duration": 750, "velocity": 120}, {"time": 81850, "pitch": 62, "duration": 730, "velocity": 115}, {"time": 81860, "pitch": 59, "duration": 710, "velocity": 110}, {"time": 81871, "pitch": 50, "duration": 689, "velocity": 105}, {"time": 82560, "pitch": 50, "duration": 458, "velocity": 95}, {"time": 82570, "pitch": 59, "duration": 448, "velocity": 100}, {"time": 82580, "pitch": 62, "duration": 438, "velocity": 105}, {"time": 82590, "pitch": 67, "duration": 428, "velocity": 110}, {"time": 83038, "pitch": 52, "duration": 485, "velocity": 105}, {"time": 83048, "pitch": 57, "duration": 485, "velocity": 110}, {"time": 83058, "pitch": 62, "duration": 485, "velocity": 115}, {"time": 83068, "pitch": 64, "duration": 484, "velocity": 120}, {"time": 83523, "pitch": 52, "duration": 219, "velocity": 95}, {"time": 83533, "pitch": 57, "duration": 209, "velocity": 100}, {"time": 83543, "pitch": 62, "duration": 199, "velocity": 105}, {"time": 83552, "pitch": 64, "duration": 190, "velocity": 110}, {"time": 83761, "pitch": 64, "duration": 747, "velocity": 120}, {"time": 83771, "pitch": 61, "duration": 727, "velocity": 115}, {"time": 83781, "pitch": 57, "duration": 707, "velocity": 110}, {"time": 83791, "pitch": 52, "duration": 687, "velocity": 105}, {"time": 84478, "pitch": 52, "duration": 464, "velocity": 95}, {"time": 84488, "pitch": 57, "duration": 454, "velocity": 100}, {"time": 84498, "pitch": 61, "duration": 444, "velocity": 105}, {"time": 84508, "pitch": 64, "duration": 434, "velocity": 110}, {"time": 100317, "pitch": 43, "duration": 1905, "velocity": 110}, {"time": 100560, "pitch": 59, "duration": 1662, "velocity": 125}, {"time": 100802, "pitch": 55, "duration": 1420, "velocity": 120}, {"time": 101041, "pitch": 67, "duration": 1181, "velocity": 110}, {"time": 102242, "pitch": 43, "duration": 1898, "velocity": 110}, {"time": 102481, "pitch": 61, "duration": 1659, "velocity": 125}, {"time": 102720, "pitch": 57, "duration": 1420, "velocity": 120}, {"time": 102959, "pitch": 64, "duration": 1181, "velocity": 110}, {"time": 104160, "pitch": 42, "duration": 962, "velocity": 110}, {"time": 105122, "pitch": 40, "duration": 955, "velocity": 110}, {"time": 106077, "pitch": 45, "duration": 1662, "velocity": 110}, {"time": 106097, "pitch": 50, "duration": 1642, "velocity": 115}, {"time": 106118, "pitch": 55, "duration": 1621, "velocity": 110}, {"time": 106138, "pitch": 59, "duration": 1601, "velocity": 105}, {"time": 106158, "pitch": 67, "duration": 1581, "velocity": 100}, {"time": 107760, "pitch": 40, "duration": 121, "velocity": 125}, {"time": 107881, "pitch": 42, "duration": 121, "velocity": 120}, {"time": 108002, "pitch": 43, "duration": 1898, "velocity": 120}, {"time": 108012, "pitch": 59, "duration": 1888, "velocity": 100}, {"time": 108022, "pitch": 62, "duration": 1878, "velocity": 105}, {"time": 108032, "pitch": 67, "duration": 1868, "velocity": 110}, {"time": 109920, "pitch": 45, "duration": 268, "velocity": 85}, {"time": 109930, "pitch": 57, "duration": 248, "velocity": 90}, {"time": 109939, "pitch": 61, "duration": 229, "velocity": 95}, {"time": 109949, "pitch": 64, "duration": 209, "velocity": 100}, {"time": 110158, "pitch": 64, "duration": 269, "velocity": 105}, {"time": 110168, "pitch": 61, "duration": 249, "velocity": 100}, {"time": 110178, "pitch": 57, "duration": 229, "velocity": 95}, {"time": 110188, "pitch": 45, "duration": 209, "velocity": 90}, {"time": 110397, "pitch": 45, "duration": 273, "velocity": 95}, {"time": 110407, "pitch": 57, "duration": 253, "velocity": 100}, {"time": 110417, "pitch": 61, "duration": 233, "velocity": 105}, {"time": 110427, "pitch": 64, "duration": 213, "velocity": 110}, {"time": 110640, "pitch": 64, "duration": 272, "velocity": 115}, {"time": 110650, "pitch": 61, "duration": 252, "velocity": 110}, {"time": 110660, "pitch": 57, "duration": 232, "velocity": 105}, {"time": 110670, "pitch": 45, "duration": 212, "velocity": 100}, {"time": 110882, "pitch": 45, "duration": 269, "velocity": 105}, {"time": 110892, "pitch": 57, "duration": 249, "velocity": 110}, {"time": 110902, "pitch": 61, "duration": 229, "velocity": 115}, {"time": 110912, "pitch": 64, "duration": 209, "velocity": 120}, {"time": 111121, "pitch": 64, "duration": 268, "velocity": 115}, {"time": 111131, "pitch": 61, "duration": 248, "velocity": 110}, {"time": 111141, "pitch": 57, "duration": 228, "velocity": 105}, {"time": 111151, "pitch": 45, "duration": 209, "velocity": 100}, {"time": 111360, "pitch": 45, "duration": 268, "velocity": 105}, {"time": 111369, "pitch": 57, "duration": 249, "velocity": 110}, {"time": 111379, "pitch": 61, "duration": 229, "velocity": 115}, {"time": 111389, "pitch": 64, "duration": 209, "velocity": 120}, {"time": 111598, "pitch": 64, "duration": 269, "velocity": 115}, {"time": 111608, "pitch": 61, "duration": 249, "velocity": 110}, {"time": 111618, "pitch": 57, "duration": 229, "velocity": 105}, {"time": 111628, "pitch": 45, "duration": 209, "velocity": 100}, {"time": 111837, "pitch": 50, "duration": 485, "velocity": 105}, {"time": 111847, "pitch": 57, "duration": 485, "velocity": 110}, {"time": 111857, "pitch": 62, "duration": 485, "velocity": 115}, {"time": 111867, "pitch": 66, "duration": 485, "velocity": 120}, {"time": 112322, "pitch": 50, "duration": 219, "velocity": 95}, {"time": 112332, "pitch": 57, "duration": 209, "velocity": 100}, {"time": 112342, "pitch": 62, "duration": 199, "velocity": 105}, {"time": 112352, "pitch": 66, "duration": 189, "velocity": 110}, {"time": 112561, "pitch": 67, "duration": 746, "velocity": 120}, {"time": 112571, "pitch": 62, "duration": 726, "velocity": 115}, {"time": 112581, "pitch": 59, "duration": 706, "velocity": 110}, {"time": 112591, "pitch": 50, "duration": 686, "velocity": 105}, {"time": 113277, "pitch": 50, "duration": 465, "velocity": 95}, {"time": 113287, "pitch": 59, "duration": 455, "velocity": 100}, {"time": 113297, "pitch": 62, "duration": 445, "velocity": 105}, {"time": 113307, "pitch": 67, "duration": 435, "velocity": 110}, {"time": 113762, "pitch": 52, "duration": 477, "velocity": 105}, {"time": 113772, "pitch": 55, "duration": 477, "velocity": 110}, {"time": 113782, "pitch": 59, "duration": 477, "velocity": 115}, {"time": 113792, "pitch": 64, "duration": 477, "velocity": 120}, {"time": 114239, "pitch": 52, "duration": 219, "velocity": 95}, {"time": 114249, "pitch": 55, "duration": 209, "velocity": 100}, {"time": 114259, "pitch": 59, "duration": 199, "velocity": 105}, {"time": 114269, "pitch": 64, "duration": 189, "velocity": 110}, {"time": 114478, "pitch": 64, "duration": 754, "velocity": 120}, {"time": 114488, "pitch": 61, "duration": 734, "velocity": 115}, {"time": 114498, "pitch": 57, "duration": 714, "velocity": 110}, {"time": 114508, "pitch": 52, "duration": 694, "velocity": 105}, {"time": 115202, "pitch": 52, "duration": 458, "velocity": 95}, {"time": 115212, "pitch": 57, "duration": 448, "velocity": 100}, {"time": 115222, "pitch": 61, "duration": 438, "velocity": 105}, {"time": 115232, "pitch": 64, "duration": 428, "velocity": 110}, {"time": 115679, "pitch": 50, "duration": 478, "velocity": 105}, {"time": 115689, "pitch": 57, "duration": 478, "velocity": 110}, {"time": 115699, "pitch": 62, "duration": 478, "velocity": 115}, {"time": 115709, "pitch": 66, "duration": 478, "velocity": 120}, {"time": 116157, "pitch": 50, "duration": 222, "velocity": 95}, {"time": 116167, "pitch": 57, "duration": 212, "velocity": 100}, {"time": 116177, "pitch": 62, "duration": 202, "velocity": 105}, {"time": 116187, "pitch": 66, "duration": 192, "velocity": 110}, {"time": 116399, "pitch": 67, "duration": 750, "velocity": 120}, {"time": 116410, "pitch": 62, "duration": 729, "velocity": 115}, {"time": 116420, "pitch": 59, "duration": 709, "velocity": 110}, {"time": 116430, "pitch": 50, "duration": 689, "velocity": 105}, {"time": 117119, "pitch": 50, "duration": 458, "velocity": 95}, {"time": 117129, "pitch": 59, "duration": 448, "velocity": 100}, {"time": 117139, "pitch": 62, "duration": 438, "velocity": 105}, {"time": 117149, "pitch": 67, "duration": 428, "velocity": 110}, {"time": 117597, "pitch": 52, "duration": 485, "velocity": 105}, {"time": 117607, "pitch": 57, "duration": 485, "velocity": 110}, {"time": 117617, "pitch": 62, "duration": 485, "velocity": 115}, {"time": 117627, "pitch": 64, "duration": 485, "velocity": 120}, {"time": 118082, "pitch": 52, "duration": 219, "velocity": 95}, {"time": 118092, "pitch": 57, "duration": 209, "velocity": 100}, {"time": 118102, "pitch": 62, "duration": 199, "velocity": 105}, {"time": 118112, "pitch": 64, "duration": 189, "velocity": 110}, {"time": 118321, "pitch": 64, "duration": 746, "velocity": 120}, {"time": 118331, "pitch": 61, "duration": 726, "velocity": 115}, {"time": 118340, "pitch": 57, "duration": 707, "velocity": 110}, {"time": 118350, "pitch": 52, "duration": 687, "velocity": 105}, {"time": 119037, "pitch": 52, "duration": 465, "velocity": 95}, {"time": 119047, "pitch": 57, "duration": 455, "velocity": 100}, {"time": 119057, "pitch": 61, "duration": 445, "velocity": 105}, {"time": 119067, "pitch": 64, "duration": 435, "velocity": 110}, {"time": 119522, "pitch": 50, "duration": 477, "velocity": 105}, {"time": 119532, "pitch": 57, "duration": 477, "velocity": 110}, {"time": 119542, "pitch": 62, "duration": 477, "velocity": 115}, {"time": 119552, "pitch": 66, "duration": 477, "velocity": 120}, {"time": 119999, "pitch": 50, "duration": 219, "velocity": 95}, {"time": 120009, "pitch": 57, "duration": 209, "velocity": 100}, {"time": 120019, "pitch": 62, "duration": 199, "velocity": 105}, {"time": 120029, "pitch": 66, "duration": 189, "velocity": 110}, {"time": 120238, "pitch": 67, "duration": 754, "velocity": 120}, {"time": 120248, "pitch": 62, "duration": 734, "velocity": 115}, {"time": 120258, "pitch": 59, "duration": 714, "velocity": 110}, {"time": 120268, "pitch": 50, "duration": 694, "velocity": 105}, {"time": 120962, "pitch": 50, "duration": 457, "velocity": 95}, {"time": 120972, "pitch": 59, "duration": 447, "velocity": 100}, {"time": 120982, "pitch": 62, "duration": 437, "velocity": 105}, {"time": 120992, "pitch": 67, "duration": 427, "velocity": 110}, {"time": 121439, "pitch": 52, "duration": 478, "velocity": 105}, {"time": 121449, "pitch": 57, "duration": 478, "velocity": 110}, {"time": 121459, "pitch": 61, "duration": 478, "velocity": 115}, {"time": 121469, "pitch": 64, "duration": 478, "velocity": 120}, {"time": 121917, "pitch": 52, "duration": 222, "velocity": 95}, {"time": 121927, "pitch": 57, "duration": 212, "velocity": 100}, {"time": 121937, "pitch": 61, "duration": 202, "velocity": 105}, {"time": 121947, "pitch": 64, "duration": 192, "velocity": 110}, {"time": 122159, "pitch": 64, "duration": 750, "velocity": 120}, {"time": 122169, "pitch": 61, "duration": 730, "velocity": 115}, {"time": 122179, "pitch": 58, "duration": 710, "velocity": 110}, {"time": 122190, "pitch": 52, "duration": 689, "velocity": 105}, {"time": 122879, "pitch": 52, "duration": 458, "velocity": 95}, {"time": 122889, "pitch": 58, "duration": 448, "velocity": 100}, {"time": 122899, "pitch": 61, "duration": 438, "velocity": 105}, {"time": 122909, "pitch": 64, "duration": 428, "velocity": 110}, {"time": 123357, "pitch": 50, "duration": 485, "velocity": 105}, {"time": 123367, "pitch": 59, "duration": 485, "velocity": 110}, {"time": 123377, "pitch": 62, "duration": 485, "velocity": 115}, {"time": 123387, "pitch": 66, "duration": 484, "velocity": 120}, {"time": 123842, "pitch": 50, "duration": 219, "velocity": 95}, {"time": 123852, "pitch": 59, "duration": 209, "velocity": 100}, {"time": 123862, "pitch": 62, "duration": 199, "velocity": 105}, {"time": 123871, "pitch": 66, "duration": 190, "velocity": 110}, {"time": 124080, "pitch": 67, "duration": 747, "velocity": 120}, {"time": 124090, "pitch": 62, "duration": 727, "velocity": 115}, {"time": 124100, "pitch": 59, "duration": 707, "velocity": 110}, {"time": 124110, "pitch": 50, "duration": 687, "velocity": 105}, {"time": 124797, "pitch": 50, "duration": 464, "velocity": 95}, {"time": 124807, "pitch": 59, "duration": 454, "velocity": 100}, {"time": 124817, "pitch": 62, "duration": 444, "velocity": 105}, {"time": 124827, "pitch": 67, "duration": 434, "velocity": 110}, {"time": 125282, "pitch": 50, "duration": 1897, "velocity": 105}, {"time": 125292, "pitch": 57, "duration": 1887, "velocity": 110}, {"time": 125301, "pitch": 62, "duration": 1878, "velocity": 115}, {"time": 125311, "pitch": 64, "duration": 1868, "velocity": 120}, {"time": 134877, "pitch": 52, "duration": 1904, "velocity": 105}, {"time": 134887, "pitch": 55, "duration": 1894, "velocity": 110}, {"time": 134897, "pitch": 60, "duration": 1884, "velocity": 115}, {"time": 134907, "pitch": 64, "duration": 1874, "velocity": 120}, {"time": 136801, "pitch": 50, "duration": 1898, "velocity": 105}, {"time": 136811, "pitch": 57, "duration": 1888, "velocity": 110}, {"time": 136821, "pitch": 62, "duration": 1878, "velocity": 115}, {"time": 136831, "pitch": 67, "duration": 1868, "velocity": 120}, {"time": 138719, "pitch": 50, "duration": 477, "velocity": 95}, {"time": 138729, "pitch": 55, "duration": 478, "velocity": 100}, {"time": 138739, "pitch": 59, "duration": 478, "velocity": 105}, {"time": 138749, "pitch": 67, "duration": 478, "velocity": 110}, {"time": 139196, "pitch": 50, "duration": 223, "velocity": 90}, {"time": 139207, "pitch": 55, "duration": 212, "velocity": 95}, {"time": 139217, "pitch": 59, "duration": 202, "velocity": 100}, {"time": 139227, "pitch": 67, "duration": 192, "velocity": 105}, {"time": 139439, "pitch": 64, "duration": 750, "velocity": 110}, {"time": 139449, "pitch": 61, "duration": 730, "velocity": 105}, {"time": 139459, "pitch": 57, "duration": 710, "velocity": 100}, {"time": 139469, "pitch": 52, "duration": 690, "velocity": 95}, {"time": 140159, "pitch": 52, "duration": 268, "velocity": 95}, {"time": 140169, "pitch": 57, "duration": 249, "velocity": 100}, {"time": 140179, "pitch": 61, "duration": 229, "velocity": 105}, {"time": 140189, "pitch": 64, "duration": 209, "velocity": 110}, {"time": 140398, "pitch": 64, "duration": 219, "velocity": 105}, {"time": 140408, "pitch": 61, "duration": 209, "velocity": 100}, {"time": 140418, "pitch": 57, "duration": 199, "velocity": 95}, {"time": 140427, "pitch": 52, "duration": 190, "velocity": 90}, {"time": 140636, "pitch": 50, "duration": 485, "velocity": 95}, {"time": 140646, "pitch": 55, "duration": 485, "velocity": 100}, {"time": 140657, "pitch": 59, "duration": 484, "velocity": 105}, {"time": 140667, "pitch": 67, "duration": 484, "velocity": 110}, {"time": 141121, "pitch": 50, "duration": 219, "velocity": 90}, {"time": 141131, "pitch": 55, "duration": 209, "velocity": 95}, {"time": 141141, "pitch": 59, "duration": 199, "velocity": 100}, {"time": 141151, "pitch": 67, "duration": 189, "velocity": 105}, {"time": 141360, "pitch": 64, "duration": 753, "velocity": 110}, {"time": 141370, "pitch": 61, "duration": 733, "velocity": 105}, {"time": 141380, "pitch": 57, "duration": 713, "velocity": 100}, {"time": 141390, "pitch": 52, "duration": 694, "velocity": 95}, {"time": 142084, "pitch": 52, "duration": 268, "velocity": 95}, {"time": 142093, "pitch": 57, "duration": 249, "velocity": 100}, {"time": 142103, "pitch": 61, "duration": 229, "velocity": 105}, {"time": 142113, "pitch": 64, "duration": 209, "velocity": 110}, {"time": 142322, "pitch": 64, "duration": 219, "velocity": 105}, {"time": 142332, "pitch": 61, "duration": 209, "velocity": 100}, {"time": 142342, "pitch": 57, "duration": 199, "velocity": 95}, {"time": 142352, "pitch": 52, "duration": 189, "velocity": 90}, {"time": 142561, "pitch": 50, "duration": 478, "velocity": 105}, {"time": 142571, "pitch": 57, "duration": 478, "velocity": 110}, {"time": 142581, "pitch": 62, "duration": 478, "velocity": 115}, {"time": 142591, "pitch": 66, "duration": 478, "velocity": 120}, {"time": 143039, "pitch": 50, "duration": 222, "velocity": 95}, {"time": 143049, "pitch": 57, "duration": 212, "velocity": 100}, {"time": 143059, "pitch": 62, "duration": 202, "velocity": 105}, {"time": 143069, "pitch": 66, "duration": 192, "velocity": 110}, {"time": 143281, "pitch": 67, "duration": 750, "velocity": 120}, {"time": 143291, "pitch": 62, "duration": 730, "velocity": 115}, {"time": 143301, "pitch": 59, "duration": 710, "velocity": 110}, {"time": 143311, "pitch": 50, "duration": 690, "velocity": 105}, {"time": 144001, "pitch": 50, "duration": 458, "velocity": 95}, {"time": 144011, "pitch": 59, "duration": 448, "velocity": 100}, {"time": 144021, "pitch": 62, "duration": 438, "velocity": 105}, {"time": 144031, "pitch": 67, "duration": 428, "velocity": 110}, {"time": 144479, "pitch": 52, "duration": 484, "velocity": 105}, {"time": 144489, "pitch": 55, "duration": 484, "velocity": 110}, {"time": 144499, "pitch": 59, "duration": 484, "velocity": 115}, {"time": 144509, "pitch": 64, "duration": 484, "velocity": 120}, {"time": 144963, "pitch": 52, "duration": 219, "velocity": 95}, {"time": 144973, "pitch": 55, "duration": 209, "velocity": 100}, {"time": 144983, "pitch": 59, "duration": 199, "velocity": 105}, {"time": 144993, "pitch": 64, "duration": 189, "velocity": 110}, {"time": 145202, "pitch": 64, "duration": 747, "velocity": 120}, {"time": 145212, "pitch": 61, "duration": 727, "velocity": 115}, {"time": 145222, "pitch": 57, "duration": 707, "velocity": 110}, {"time": 145232, "pitch": 52, "duration": 687, "velocity": 105}, {"time": 145919, "pitch": 52, "duration": 464, "velocity": 95}, {"time": 145929, "pitch": 57, "duration": 454, "velocity": 100}, {"time": 145939, "pitch": 61, "duration": 444, "velocity": 105}, {"time": 145949, "pitch": 64, "duration": 434, "velocity": 110}, {"time": 146403, "pitch": 50, "duration": 478, "velocity": 105}, {"time": 146413, "pitch": 57, "duration": 478, "velocity": 110}, {"time": 146423, "pitch": 62, "duration": 478, "velocity": 115}, {"time": 146433, "pitch": 66, "duration": 478, "velocity": 120}, {"time": 146881, "pitch": 50, "duration": 222, "velocity": 95}, {"time": 146891, "pitch": 57, "duration": 212, "velocity": 100}, {"time": 146901, "pitch": 62, "duration": 202, "velocity": 105}, {"time": 146911, "pitch": 66, "duration": 192, "velocity": 110}, {"time": 147124, "pitch": 67, "duration": 736, "velocity": 120}, {"time": 147134, "pitch": 62, "duration": 715, "velocity": 115}, {"time": 147144, "pitch": 59, "duration": 695, "velocity": 110}, {"time": 147154, "pitch": 50, "duration": 675, "velocity": 105}, {"time": 147829, "pitch": 50, "duration": 459, "velocity": 95}, {"time": 147839, "pitch": 59, "duration": 449, "velocity": 100}, {"time": 147849, "pitch": 62, "duration": 439, "velocity": 105}, {"time": 147860, "pitch": 67, "duration": 428, "velocity": 110}, {"time": 148307, "pitch": 52, "duration": 485, "velocity": 105}, {"time": 148317, "pitch": 57, "duration": 485, "velocity": 110}, {"time": 148327, "pitch": 62, "duration": 485, "velocity": 115}, {"time": 148337, "pitch": 64, "duration": 485, "velocity": 120}, {"time": 148792, "pitch": 52, "duration": 222, "velocity": 95}, {"time": 148802, "pitch": 57, "duration": 212, "velocity": 100}, {"time": 148812, "pitch": 62, "duration": 202, "velocity": 105}, {"time": 148822, "pitch": 64, "duration": 192, "velocity": 110}, {"time": 149034, "pitch": 64, "duration": 751, "velocity": 120}, {"time": 149044, "pitch": 61, "duration": 730, "velocity": 115}, {"time": 149054, "pitch": 57, "duration": 710, "velocity": 110}, {"time": 149064, "pitch": 52, "duration": 690, "velocity": 105}, {"time": 149754, "pitch": 52, "duration": 472, "velocity": 95}, {"time": 149764, "pitch": 57, "duration": 462, "velocity": 100}, {"time": 149774, "pitch": 61, "duration": 452, "velocity": 105}, {"time": 149785, "pitch": 64, "duration": 441, "velocity": 110}, {"time": 150246, "pitch": 50, "duration": 463, "velocity": 105}, {"time": 150254, "pitch": 57, "duration": 465, "velocity": 110}, {"time": 150263, "pitch": 62, "duration": 466, "velocity": 115}, {"time": 150274, "pitch": 66, "duration": 465, "velocity": 120}, {"time": 150709, "pitch": 50, "duration": 222, "velocity": 95}, {"time": 150719, "pitch": 57, "duration": 212, "velocity": 100}, {"time": 150729, "pitch": 62, "duration": 202, "velocity": 105}, {"time": 150739, "pitch": 66, "duration": 192, "velocity": 110}, {"time": 150951, "pitch": 67, "duration": 758, "velocity": 120}, {"time": 150961, "pitch": 62, "duration": 739, "velocity": 115}, {"time": 150972, "pitch": 59, "duration": 717, "velocity": 110}, {"time": 150982, "pitch": 50, "duration": 697, "velocity": 105}, {"time": 151679, "pitch": 50, "duration": 471, "velocity": 95}, {"time": 151689, "pitch": 59, "duration": 461, "velocity": 100}, {"time": 151700, "pitch": 62, "duration": 450, "velocity": 105}, {"time": 151709, "pitch": 67, "duration": 441, "velocity": 110}, {"time": 152170, "pitch": 52, "duration": 457, "velocity": 105}, {"time": 152179, "pitch": 57, "duration": 458, "velocity": 110}, {"time": 152188, "pitch": 61, "duration": 459, "velocity": 115}, {"time": 152198, "pitch": 64, "duration": 459, "velocity": 120}, {"time": 152627, "pitch": 52, "duration": 219, "velocity": 95}, {"time": 152637, "pitch": 57, "duration": 209, "velocity": 100}, {"time": 152647, "pitch": 61, "duration": 199, "velocity": 105}, {"time": 152657, "pitch": 64, "duration": 189, "velocity": 110}, {"time": 152866, "pitch": 64, "duration": 753, "velocity": 120}, {"time": 152876, "pitch": 61, "duration": 733, "velocity": 115}, {"time": 152886, "pitch": 58, "duration": 713, "velocity": 110}, {"time": 152896, "pitch": 52, "duration": 693, "velocity": 105}, {"time": 153589, "pitch": 52, "duration": 458, "velocity": 95}, {"time": 153599, "pitch": 58, "duration": 448, "velocity": 100}, {"time": 153609, "pitch": 61, "duration": 438, "velocity": 105}, {"time": 153619, "pitch": 64, "duration": 428, "velocity": 110}, {"time": 154067, "pitch": 50, "duration": 498, "velocity": 105}, {"time": 154077, "pitch": 59, "duration": 499, "velocity": 110}, {"time": 154087, "pitch": 62, "duration": 499, "velocity": 115}, {"time": 154097, "pitch": 66, "duration": 499, "velocity": 120}, {"time": 154565, "pitch": 50, "duration": 220, "velocity": 95}, {"time": 154576, "pitch": 59, "duration": 209, "velocity": 100}, {"time": 154586, "pitch": 62, "duration": 199, "velocity": 105}, {"time": 154596, "pitch": 66, "duration": 189, "velocity": 110}, {"time": 154804, "pitch": 67, "duration": 747, "velocity": 120}, {"time": 154814, "pitch": 62, "duration": 727, "velocity": 115}, {"time": 154824, "pitch": 59, "duration": 707, "velocity": 110}, {"time": 154834, "pitch": 50, "duration": 687, "velocity": 105}, {"time": 155521, "pitch": 50, "duration": 465, "velocity": 95}, {"time": 155531, "pitch": 59, "duration": 455, "velocity": 100}, {"time": 155541, "pitch": 62, "duration": 445, "velocity": 105}, {"time": 155551, "pitch": 67, "duration": 435, "velocity": 110}, {"time": 156005, "pitch": 50, "duration": 478, "velocity": 105}, {"time": 156016, "pitch": 57, "duration": 477, "velocity": 110}, {"time": 156026, "pitch": 62, "duration": 477, "velocity": 115}, {"time": 156036, "pitch": 64, "duration": 477, "velocity": 120}, {"time": 156483, "pitch": 50, "duration": 219, "velocity": 95}, {"time": 156493, "pitch": 57, "duration": 209, "velocity": 100}, {"time": 156503, "pitch": 62, "duration": 199, "velocity": 105}, {"time": 156513, "pitch": 64, "duration": 189, "velocity": 110}, {"time": 156722, "pitch": 64, "duration": 747, "velocity": 120}, {"time": 156732, "pitch": 62, "duration": 727, "velocity": 115}, {"time": 156742, "pitch": 57, "duration": 706, "velocity": 110}, {"time": 156752, "pitch": 52, "duration": 686, "velocity": 105}, {"time": 157438, "pitch": 52, "duration": 465, "velocity": 95}, {"time": 157448, "pitch": 57, "duration": 455, "velocity": 100}, {"time": 157459, "pitch": 62, "duration": 444, "velocity": 105}, {"time": 157469, "pitch": 64, "duration": 434, "velocity": 110}, {"time": 157923, "pitch": 50, "duration": 478, "velocity": 105}, {"time": 157933, "pitch": 57, "duration": 478, "velocity": 110}, {"time": 157943, "pitch": 62, "duration": 478, "velocity": 115}, {"time": 157953, "pitch": 66, "duration": 478, "velocity": 120}, {"time": 158401, "pitch": 50, "duration": 219, "velocity": 95}, {"time": 158411, "pitch": 57, "duration": 209, "velocity": 100}, {"time": 158421, "pitch": 62, "duration": 199, "velocity": 105}, {"time": 158431, "pitch": 66, "duration": 189, "velocity": 110}, {"time": 158640, "pitch": 67, "duration": 753, "velocity": 120}, {"time": 158650, "pitch": 62, "duration": 733, "velocity": 115}, {"time": 158659, "pitch": 59, "duration": 714, "velocity": 110}, {"time": 158669, "pitch": 50, "duration": 694, "velocity": 105}, {"time": 159363, "pitch": 50, "duration": 458, "velocity": 95}, {"time": 159373, "pitch": 59, "duration": 448, "velocity": 100}, {"time": 159383, "pitch": 62, "duration": 438, "velocity": 105}, {"time": 159393, "pitch": 67, "duration": 428, "velocity": 110}, {"time": 159841, "pitch": 52, "duration": 477, "velocity": 105}, {"time": 159851, "pitch": 55, "duration": 477, "velocity": 110}, {"time": 159861, "pitch": 59, "duration": 477, "velocity": 115}, {"time": 159871, "pitch": 64, "duration": 478, "velocity": 120}, {"time": 160318, "pitch": 52, "duration": 223, "velocity": 95}, {"time": 160328, "pitch": 55, "duration": 213, "velocity": 100}, {"time": 160338, "pitch": 59, "duration": 203, "velocity": 105}, {"time": 160349, "pitch": 64, "duration": 192, "velocity": 110}, {"time": 160561, "pitch": 64, "duration": 750, "velocity": 120}, {"time": 160571, "pitch": 61, "duration": 730, "velocity": 115}, {"time": 160581, "pitch": 57, "duration": 710, "velocity": 110}, {"time": 160591, "pitch": 52, "duration": 690, "velocity": 105}, {"time": 161281, "pitch": 52, "duration": 457, "velocity": 95}, {"time": 161291, "pitch": 57, "duration": 447, "velocity": 100}, {"time": 161301, "pitch": 61, "duration": 437, "velocity": 105}, {"time": 161311, "pitch": 64, "duration": 427, "velocity": 110}, {"time": 161758, "pitch": 50, "duration": 485, "velocity": 105}, {"time": 161768, "pitch": 57, "duration": 485, "velocity": 110}, {"time": 161778, "pitch": 62, "duration": 485, "velocity": 115}, {"time": 161789, "pitch": 66, "duration": 484, "velocity": 120}, {"time": 162243, "pitch": 50, "duration": 219, "velocity": 95}, {"time": 162253, "pitch": 57, "duration": 209, "velocity": 100}, {"time": 162263, "pitch": 62, "duration": 199, "velocity": 105}, {"time": 162273, "pitch": 66, "duration": 189, "velocity": 110}, {"time": 162482, "pitch": 67, "duration": 747, "velocity": 120}, {"time": 162492, "pitch": 62, "duration": 726, "velocity": 115}, {"time": 162502, "pitch": 59, "duration": 706, "velocity": 110}, {"time": 162512, "pitch": 50, "duration": 686, "velocity": 105}, {"time": 163198, "pitch": 50, "duration": 465, "velocity": 95}, {"time": 163208, "pitch": 59, "duration": 455, "velocity": 100}, {"time": 163218, "pitch": 62, "duration": 445, "velocity": 105}, {"time": 163229, "pitch": 67, "duration": 434, "velocity": 110}, {"time": 163683, "pitch": 52, "duration": 478, "velocity": 105}, {"time": 163693, "pitch": 57, "duration": 478, "velocity": 110}, {"time": 163703, "pitch": 62, "duration": 478, "velocity": 115}, {"time": 163713, "pitch": 64, "duration": 477, "velocity": 120}, {"time": 164161, "pitch": 52, "duration": 219, "velocity": 95}, {"time": 164171, "pitch": 57, "duration": 209, "velocity": 100}, {"time": 164181, "pitch": 62, "duration": 199, "velocity": 105}, {"time": 164190, "pitch": 64, "duration": 190, "velocity": 110}, {"time": 164399, "pitch": 64, "duration": 754, "velocity": 120}, {"time": 164409, "pitch": 61, "duration": 734, "velocity": 115}, {"time": 164419, "pitch": 57, "duration": 714, "velocity": 110}, {"time": 164429, "pitch": 52, "duration": 694, "velocity": 105}, {"time": 165123, "pitch": 52, "duration": 458, "velocity": 95}, {"time": 165133, "pitch": 57, "duration": 448, "velocity": 100}, {"time": 165143, "pitch": 61, "duration": 438, "velocity": 105}, {"time": 165153, "pitch": 64, "duration": 428, "velocity": 110}, {"time": 165601, "pitch": 50, "duration": 477, "velocity": 105}, {"time": 165611, "pitch": 57, "duration": 477, "velocity": 110}, {"time": 165620, "pitch": 62, "duration": 478, "velocity": 115}, {"time": 165630, "pitch": 66, "duration": 478, "velocity": 120}, {"time": 166078, "pitch": 50, "duration": 222, "velocity": 95}, {"time": 166088, "pitch": 57, "duration": 212, "velocity": 100}, {"time": 166098, "pitch": 62, "duration": 202, "velocity": 105}, {"time": 166108, "pitch": 66, "duration": 192, "velocity": 110}, {"time": 166321, "pitch": 67, "duration": 749, "velocity": 120}, {"time": 166331, "pitch": 62, "duration": 729, "velocity": 115}, {"time": 166341, "pitch": 59, "duration": 709, "velocity": 110}, {"time": 166351, "pitch": 50, "duration": 690, "velocity": 105}, {"time": 167041, "pitch": 50, "duration": 457, "velocity": 95}, {"time": 167050, "pitch": 59, "duration": 448, "velocity": 100}, {"time": 167060, "pitch": 62, "duration": 438, "velocity": 105}, {"time": 167070, "pitch": 67, "duration": 428, "velocity": 110}, {"time": 167518, "pitch": 52, "duration": 485, "velocity": 105}, {"time": 167528, "pitch": 57, "duration": 485, "velocity": 110}, {"time": 167538, "pitch": 61, "duration": 485, "velocity": 115}, {"time": 167548, "pitch": 64, "duration": 485, "velocity": 120}, {"time": 168003, "pitch": 52, "duration": 219, "velocity": 95}, {"time": 168013, "pitch": 57, "duration": 209, "velocity": 100}, {"time": 168023, "pitch": 61, "duration": 199, "velocity": 105}, {"time": 168033, "pitch": 64, "duration": 189, "velocity": 110}, {"time": 168242, "pitch": 64, "duration": 746, "velocity": 120}, {"time": 168252, "pitch": 61, "duration": 726, "velocity": 115}, {"time": 168262, "pitch": 58, "duration": 706, "velocity": 110}, {"time": 168272, "pitch": 52, "duration": 686, "velocity": 105}, {"time": 168958, "pitch": 52, "duration": 465, "velocity": 95}, {"time": 168968, "pitch": 58, "duration": 455, "velocity": 100}, {"time": 168978, "pitch": 61, "duration": 445, "velocity": 105}, {"time": 168988, "pitch": 64, "duration": 435, "velocity": 110}, {"time": 169443, "pitch": 50, "duration": 477, "velocity": 105}, {"time": 169453, "pitch": 59, "duration": 477, "velocity": 110}, {"time": 169463, "pitch": 62, "duration": 477, "velocity": 115}, {"time": 169473, "pitch": 66, "duration": 477, "velocity": 120}, {"time": 169920, "pitch": 50, "duration": 219, "velocity": 95}, {"time": 169930, "pitch": 59, "duration": 209, "velocity": 100}, {"time": 169940, "pitch": 62, "duration": 199, "velocity": 105}, {"time": 169950, "pitch": 66, "duration": 189, "velocity": 110}, {"time": 170159, "pitch": 67, "duration": 754, "velocity": 120}, {"time": 170169, "pitch": 62, "duration": 734, "velocity": 115}, {"time": 170179, "pitch": 59, "duration": 714, "velocity": 110}, {"time": 170189, "pitch": 50, "duration": 694, "velocity": 105}, {"time": 170883, "pitch": 50, "duration": 458, "velocity": 95}, {"time": 170893, "pitch": 59, "duration": 448, "velocity": 100}, {"time": 170903, "pitch": 62, "duration": 438, "velocity": 105}, {"time": 170913, "pitch": 67, "duration": 428, "velocity": 110}, {"time": 171360, "pitch": 50, "duration": 478, "velocity": 105}, {"time": 171370, "pitch": 57, "duration": 478, "velocity": 110}, {"time": 171380, "pitch": 62, "duration": 478, "velocity": 115}, {"time": 171390, "pitch": 64, "duration": 478, "velocity": 120}, {"time": 171838, "pitch": 50, "duration": 222, "velocity": 95}, {"time": 171848, "pitch": 57, "duration": 212, "velocity": 100}, {"time": 171858, "pitch": 62, "duration": 202, "velocity": 105}, {"time": 171868, "pitch": 64, "duration": 192, "velocity": 110}, {"time": 172080, "pitch": 64, "duration": 750, "velocity": 120}, {"time": 172091, "pitch": 62, "duration": 729, "velocity": 115}, {"time": 172101, "pitch": 57, "duration": 709, "velocity": 110}, {"time": 172111, "pitch": 52, "duration": 689, "velocity": 105}, {"time": 172800, "pitch": 52, "duration": 458, "velocity": 95}, {"time": 172810, "pitch": 57, "duration": 448, "velocity": 100}, {"time": 172820, "pitch": 62, "duration": 438, "velocity": 105}, {"time": 172830, "pitch": 64, "duration": 428, "velocity": 110}, {"time": 173278, "pitch": 50, "duration": 485, "velocity": 105}, {"time": 173288, "pitch": 57, "duration": 485, "velocity": 110}, {"time": 173298, "pitch": 62, "duration": 485, "velocity": 115}, {"time": 173308, "pitch": 66, "duration": 485, "velocity": 120}, {"time": 173763, "pitch": 50, "duration": 219, "velocity": 95}, {"time": 173773, "pitch": 57, "duration": 209, "velocity": 100}, {"time": 173783, "pitch": 62, "duration": 199, "velocity": 105}, {"time": 173793, "pitch": 66, "duration": 189, "velocity": 110}, {"time": 174002, "pitch": 67, "duration": 746, "velocity": 120}, {"time": 174012, "pitch": 62, "duration": 726, "velocity": 115}, {"time": 174021, "pitch": 59, "duration": 707, "velocity": 110}, {"time": 174031, "pitch": 50, "duration": 687, "velocity": 105}, {"time": 174718, "pitch": 50, "duration": 465, "velocity": 95}, {"time": 174728, "pitch": 59, "duration": 455, "velocity": 100}, {"time": 174738, "pitch": 62, "duration": 445, "velocity": 105}, {"time": 174748, "pitch": 67, "duration": 435, "velocity": 110}, {"time": 175203, "pitch": 52, "duration": 477, "velocity": 105}, {"time": 175213, "pitch": 55, "duration": 477, "velocity": 110}, {"time": 175223, "pitch": 59, "duration": 477, "velocity": 115}, {"time": 175233, "pitch": 64, "duration": 477, "velocity": 120}, {"time": 175680, "pitch": 52, "duration": 219, "velocity": 95}, {"time": 175690, "pitch": 55, "duration": 209, "velocity": 100}, {"time": 175700, "pitch": 59, "duration": 199, "velocity": 105}, {"time": 175710, "pitch": 64, "duration": 189, "velocity": 110}, {"time": 175919, "pitch": 64, "duration": 754, "velocity": 120}, {"time": 175929, "pitch": 61, "duration": 734, "velocity": 115}, {"time": 175939, "pitch": 57, "duration": 714, "velocity": 110}, {"time": 175949, "pitch": 52, "duration": 694, "velocity": 105}, {"time": 176643, "pitch": 52, "duration": 457, "velocity": 95}, {"time": 176653, "pitch": 57, "duration": 447, "velocity": 100}, {"time": 176663, "pitch": 61, "duration": 437, "velocity": 105}, {"time": 176673, "pitch": 64, "duration": 427, "velocity": 110}, {"time": 177120, "pitch": 50, "duration": 478, "velocity": 105}, {"time": 177130, "pitch": 57, "duration": 478, "velocity": 110}, {"time": 177140, "pitch": 62, "duration": 478, "velocity": 115}, {"time": 177150, "pitch": 66, "duration": 478, "velocity": 120}, {"time": 177598, "pitch": 50, "duration": 222, "velocity": 95}, {"time": 177608, "pitch": 57, "duration": 212, "velocity": 100}, {"time": 177618, "pitch": 62, "duration": 202, "velocity": 105}, {"time": 177628, "pitch": 66, "duration": 192, "velocity": 110}, {"time": 177840, "pitch": 67, "duration": 750, "velocity": 120}, {"time": 177850, "pitch": 62, "duration": 730, "velocity": 115}, {"time": 177860, "pitch": 59, "duration": 710, "velocity": 110}, {"time": 177871, "pitch": 50, "duration": 689, "velocity": 105}, {"time": 178560, "pitch": 50, "duration": 465, "velocity": 95}, {"time": 178570, "pitch": 59, "duration": 455, "velocity": 100}, {"time": 178580, "pitch": 62, "duration": 445, "velocity": 105}, {"time": 178590, "pitch": 67, "duration": 435, "velocity": 110}, {"time": 179045, "pitch": 52, "duration": 471, "velocity": 105}, {"time": 179055, "pitch": 57, "duration": 471, "velocity": 110}, {"time": 179065, "pitch": 62, "duration": 471, "velocity": 115}, {"time": 179074, "pitch": 64, "duration": 471, "velocity": 120}, {"time": 179516, "pitch": 52, "duration": 219, "velocity": 95}, {"time": 179526, "pitch": 57, "duration": 209, "velocity": 100}, {"time": 179536, "pitch": 62, "duration": 199, "velocity": 105}, {"time": 179545, "pitch": 64, "duration": 190, "velocity": 110}, {"time": 179754, "pitch": 64, "duration": 747, "velocity": 120}, {"time": 179764, "pitch": 61, "duration": 727, "velocity": 115}, {"time": 179774, "pitch": 57, "duration": 707, "velocity": 110}, {"time": 179784, "pitch": 52, "duration": 687, "velocity": 105}, {"time": 180471, "pitch": 52, "duration": 457, "velocity": 95}, {"time": 180481, "pitch": 57, "duration": 447, "velocity": 100}, {"time": 180491, "pitch": 61, "duration": 437, "velocity": 105}, {"time": 180501, "pitch": 64, "duration": 427, "velocity": 110}, {"time": 180949, "pitch": 50, "duration": 491, "velocity": 105}, {"time": 180959, "pitch": 57, "duration": 491, "velocity": 110}, {"time": 180968, "pitch": 62, "duration": 492, "velocity": 115}, {"time": 180978, "pitch": 66, "duration": 492, "velocity": 120}, {"time": 181440, "pitch": 50, "duration": 219, "velocity": 95}, {"time": 181450, "pitch": 57, "duration": 209, "velocity": 100}, {"time": 181460, "pitch": 62, "duration": 199, "velocity": 105}, {"time": 181470, "pitch": 66, "duration": 189, "velocity": 110}, {"time": 181679, "pitch": 67, "duration": 753, "velocity": 120}, {"time": 181689, "pitch": 62, "duration": 733, "velocity": 115}, {"time": 181699, "pitch": 59, "duration": 713, "velocity": 110}, {"time": 181709, "pitch": 50, "duration": 694, "velocity": 105}, {"time": 182403, "pitch": 50, "duration": 457, "velocity": 95}, {"time": 182412, "pitch": 59, "duration": 448, "velocity": 100}, {"time": 182422, "pitch": 62, "duration": 438, "velocity": 105}, {"time": 182432, "pitch": 67, "duration": 428, "velocity": 110}, {"time": 182880, "pitch": 52, "duration": 478, "velocity": 105}, {"time": 182890, "pitch": 57, "duration": 478, "velocity": 110}, {"time": 182900, "pitch": 61, "duration": 478, "velocity": 115}, {"time": 182910, "pitch": 64, "duration": 478, "velocity": 120}, {"time": 183358, "pitch": 52, "duration": 222, "velocity": 95}, {"time": 183368, "pitch": 57, "duration": 212, "velocity": 100}, {"time": 183378, "pitch": 61, "duration": 202, "velocity": 105}, {"time": 183388, "pitch": 64, "duration": 192, "velocity": 110}, {"time": 183600, "pitch": 64, "duration": 750, "velocity": 120}, {"time": 183610, "pitch": 61, "duration": 730, "velocity": 115}, {"time": 183620, "pitch": 58, "duration": 710, "velocity": 110}, {"time": 183630, "pitch": 52, "duration": 690, "velocity": 105}, {"time": 184320, "pitch": 52, "duration": 458, "velocity": 95}, {"time": 184330, "pitch": 58, "duration": 448, "velocity": 100}, {"time": 184340, "pitch": 61, "duration": 438, "velocity": 105}, {"time": 184350, "pitch": 64, "duration": 428, "velocity": 110}, {"time": 184798, "pitch": 50, "duration": 484, "velocity": 105}, {"time": 184808, "pitch": 59, "duration": 484, "velocity": 110}, {"time": 184818, "pitch": 62, "duration": 484, "velocity": 115}, {"time": 184828, "pitch": 66, "duration": 484, "velocity": 120}, {"time": 185282, "pitch": 50, "duration": 219, "velocity": 95}, {"time": 185292, "pitch": 59, "duration": 209, "velocity": 100}, {"time": 185302, "pitch": 62, "duration": 199, "velocity": 105}, {"time": 185312, "pitch": 66, "duration": 189, "velocity": 110}, {"time": 185521, "pitch": 67, "duration": 747, "velocity": 120}, {"time": 185531, "pitch": 62, "duration": 727, "velocity": 115}, {"time": 185541, "pitch": 59, "duration": 707, "velocity": 110}, {"time": 185551, "pitch": 50, "duration": 687, "velocity": 105}, {"time": 186238, "pitch": 50, "duration": 464, "velocity": 95}, {"time": 186248, "pitch": 59, "duration": 454, "velocity": 100}, {"time": 186258, "pitch": 62, "duration": 444, "velocity": 105}, {"time": 186268, "pitch": 67, "duration": 434, "velocity": 110}, {"time": 186722, "pitch": 52, "duration": 478, "velocity": 105}, {"time": 186732, "pitch": 57, "duration": 478, "velocity": 110}, {"time": 186742, "pitch": 62, "duration": 478, "velocity": 115}, {"time": 186752, "pitch": 64, "duration": 478, "velocity": 120}, {"time": 187200, "pitch": 52, "duration": 219, "velocity": 95}, {"time": 187210, "pitch": 57, "duration": 209, "velocity": 100}, {"time": 187220, "pitch": 62, "duration": 199, "velocity": 105}, {"time": 187230, "pitch": 64, "duration": 189, "velocity": 110}, {"time": 187439, "pitch": 64, "duration": 753, "velocity": 120}, {"time": 187449, "pitch": 61, "duration": 733, "velocity": 115}, {"time": 187459, "pitch": 57, "duration": 713, "velocity": 110}, {"time": 187469, "pitch": 52, "duration": 693, "velocity": 105}, {"time": 188162, "pitch": 52, "duration": 458, "velocity": 95}, {"time": 188172, "pitch": 57, "duration": 448, "velocity": 100}, {"time": 188182, "pitch": 61, "duration": 438, "velocity": 105}, {"time": 188192, "pitch": 64, "duration": 428, "velocity": 110}, {"time": 477, "pitch": 50, "duration": 469, "velocity": 105}, {"time": 480, "pitch": 59, "duration": 476, "velocity": 110}, {"time": 487, "pitch": 62, "duration": 479, "velocity": 115}, {"time": 497, "pitch": 66, "duration": 479, "velocity": 120}, {"time": 946, "pitch": 50, "duration": 219, "velocity": 95}, {"time": 956, "pitch": 59, "duration": 209, "velocity": 100}, {"time": 966, "pitch": 62, "duration": 199, "velocity": 105}, {"time": 976, "pitch": 66, "duration": 189, "velocity": 110}, {"time": 1185, "pitch": 67, "duration": 746, "velocity": 120}, {"time": 1195, "pitch": 62, "duration": 726, "velocity": 115}, {"time": 1205, "pitch": 59, "duration": 706, "velocity": 110}, {"time": 1215, "pitch": 50, "duration": 686, "velocity": 105}, {"time": 1901, "pitch": 50, "duration": 458, "velocity": 95}, {"time": 1911, "pitch": 59, "duration": 448, "velocity": 100}, {"time": 1921, "pitch": 62, "duration": 438, "velocity": 105}, {"time": 1931, "pitch": 67, "duration": 428, "velocity": 110}, {"time": 2379, "pitch": 50, "duration": 484, "velocity": 105}, {"time": 2389, "pitch": 57, "duration": 485, "velocity": 110}, {"time": 2399, "pitch": 62, "duration": 485, "velocity": 115}, {"time": 2409, "pitch": 66, "duration": 485, "velocity": 120}, {"time": 2863, "pitch": 50, "duration": 223, "velocity": 95}, {"time": 2874, "pitch": 57, "duration": 212, "velocity": 100}, {"time": 2884, "pitch": 62, "duration": 202, "velocity": 105}, {"time": 2894, "pitch": 66, "duration": 192, "velocity": 110}, {"time": 3106, "pitch": 64, "duration": 750, "velocity": 120}, {"time": 3116, "pitch": 61, "duration": 730, "velocity": 115}, {"time": 3126, "pitch": 57, "duration": 710, "velocity": 110}, {"time": 3136, "pitch": 52, "duration": 690, "velocity": 105}, {"time": 3826, "pitch": 52, "duration": 471, "velocity": 95}, {"time": 3836, "pitch": 57, "duration": 461, "velocity": 100}, {"time": 3846, "pitch": 61, "duration": 451, "velocity": 105}, {"time": 3856, "pitch": 64, "duration": 441, "velocity": 110}, {"time": 4317, "pitch": 50, "duration": 485, "velocity": 105}, {"time": 4327, "pitch": 59, "duration": 485, "velocity": 110}, {"time": 4338, "pitch": 62, "duration": 484, "velocity": 115}, {"time": 4348, "pitch": 66, "duration": 484, "velocity": 120}, {"time": 4802, "pitch": 50, "duration": 219, "velocity": 95}, {"time": 4812, "pitch": 59, "duration": 209, "velocity": 100}, {"time": 4822, "pitch": 62, "duration": 199, "velocity": 105}, {"time": 4832, "pitch": 66, "duration": 189, "velocity": 110}, {"time": 5041, "pitch": 67, "duration": 747, "velocity": 120}, {"time": 5051, "pitch": 62, "duration": 727, "velocity": 115}, {"time": 5061, "pitch": 59, "duration": 706, "velocity": 110}, {"time": 5071, "pitch": 50, "duration": 686, "velocity": 105}, {"time": 5757, "pitch": 50, "duration": 465, "velocity": 95}, {"time": 5767, "pitch": 59, "duration": 455, "velocity": 100}, {"time": 5778, "pitch": 62, "duration": 444, "velocity": 105}, {"time": 5788, "pitch": 67, "duration": 434, "velocity": 110}, {"time": 6242, "pitch": 52, "duration": 464, "velocity": 105}, {"time": 6252, "pitch": 57, "duration": 464, "velocity": 110}, {"time": 6261, "pitch": 62, "duration": 465, "velocity": 115}, {"time": 6271, "pitch": 64, "duration": 465, "velocity": 120}, {"time": 6706, "pitch": 52, "duration": 219, "velocity": 95}, {"time": 6716, "pitch": 57, "duration": 209, "velocity": 100}, {"time": 6726, "pitch": 62, "duration": 199, "velocity": 105}, {"time": 6736, "pitch": 64, "duration": 189, "velocity": 110}, {"time": 6945, "pitch": 64, "duration": 753, "velocity": 120}, {"time": 6954, "pitch": 61, "duration": 734, "velocity": 115}, {"time": 6964, "pitch": 57, "duration": 714, "velocity": 110}, {"time": 6974, "pitch": 52, "duration": 694, "velocity": 105}, {"time": 7668, "pitch": 52, "duration": 451, "velocity": 95}, {"time": 7678, "pitch": 57, "duration": 441, "velocity": 100}, {"time": 7688, "pitch": 61, "duration": 431, "velocity": 105}, {"time": 7698, "pitch": 64, "duration": 421, "velocity": 110}, {"time": 8139, "pitch": 50, "duration": 498, "velocity": 105}, {"time": 8149, "pitch": 59, "duration": 498, "velocity": 110}, {"time": 8159, "pitch": 62, "duration": 498, "velocity": 115}, {"time": 8169, "pitch": 66, "duration": 499, "velocity": 120}, {"time": 8637, "pitch": 50, "duration": 222, "velocity": 95}, {"time": 8647, "pitch": 59, "duration": 212, "velocity": 100}, {"time": 8657, "pitch": 62, "duration": 202, "velocity": 105}, {"time": 8668, "pitch": 66, "duration": 191, "velocity": 110}, {"time": 8880, "pitch": 67, "duration": 750, "velocity": 120}, {"time": 8890, "pitch": 62, "duration": 730, "velocity": 115}, {"time": 8900, "pitch": 59, "duration": 710, "velocity": 110}, {"time": 8910, "pitch": 50, "duration": 690, "velocity": 105}, {"time": 9600, "pitch": 50, "duration": 457, "velocity": 95}, {"time": 9610, "pitch": 59, "duration": 447, "velocity": 100}, {"time": 9620, "pitch": 62, "duration": 437, "velocity": 105}, {"time": 9630, "pitch": 67, "duration": 427, "velocity": 110}, {"time": 10077, "pitch": 50, "duration": 485, "velocity": 105}, {"time": 10087, "pitch": 57, "duration": 485, "velocity": 110}, {"time": 10097, "pitch": 62, "duration": 485, "velocity": 115}, {"time": 10108, "pitch": 66, "duration": 484, "velocity": 120}, {"time": 10562, "pitch": 50, "duration": 219, "velocity": 95}, {"time": 10572, "pitch": 57, "duration": 209, "velocity": 100}, {"time": 10582, "pitch": 62, "duration": 199, "velocity": 105}, {"time": 10592, "pitch": 66, "duration": 189, "velocity": 110}, {"time": 10801, "pitch": 64, "duration": 746, "velocity": 120}, {"time": 10811, "pitch": 61, "duration": 726, "velocity": 115}, {"time": 10821, "pitch": 57, "duration": 706, "velocity": 110}, {"time": 10831, "pitch": 52, "duration": 686, "velocity": 105}, {"time": 11517, "pitch": 52, "duration": 452, "velocity": 95}, {"time": 11527, "pitch": 57, "duration": 442, "velocity": 100}, {"time": 11537, "pitch": 61, "duration": 432, "velocity": 105}, {"time": 11547, "pitch": 64, "duration": 422, "velocity": 110}, {"time": 11988, "pitch": 50, "duration": 3850, "velocity": 105}, {"time": 12008, "pitch": 59, "duration": 3830, "velocity": 110}, {"time": 12029, "pitch": 62, "duration": 3809, "velocity": 115}, {"time": 12049, "pitch": 67, "duration": 3789, "velocity": 120}, {"time": 50403, "pitch": 43, "duration": 1898, "velocity": 80}, {"time": 50642, "pitch": 59, "duration": 1659, "velocity": 95}, {"time": 50881, "pitch": 55, "duration": 1420, "velocity": 90}, {"time": 51120, "pitch": 67, "duration": 1181, "velocity": 80}, {"time": 52321, "pitch": 43, "duration": 1898, "velocity": 80}, {"time": 52560, "pitch": 61, "duration": 1659, "velocity": 95}, {"time": 52799, "pitch": 57, "duration": 1420, "velocity": 90}, {"time": 53041, "pitch": 64, "duration": 1178, "velocity": 80}, {"time": 54239, "pitch": 42, "duration": 962, "velocity": 110}, {"time": 55201, "pitch": 40, "duration": 962, "velocity": 110}, {"time": 56163, "pitch": 45, "duration": 1659, "velocity": 110}, {"time": 56183, "pitch": 50, "duration": 1639, "velocity": 115}, {"time": 56203, "pitch": 55, "duration": 1619, "velocity": 110}, {"time": 56223, "pitch": 59, "duration": 1599, "velocity": 105}, {"time": 56243, "pitch": 67, "duration": 1579, "velocity": 100}, {"time": 57842, "pitch": 40, "duration": 119, "velocity": 125}, {"time": 57961, "pitch": 42, "duration": 120, "velocity": 120}, {"time": 58081, "pitch": 43, "duration": 1898, "velocity": 120}, {"time": 58091, "pitch": 59, "duration": 1888, "velocity": 100}, {"time": 58101, "pitch": 62, "duration": 1878, "velocity": 105}, {"time": 58111, "pitch": 67, "duration": 1868, "velocity": 110}, {"time": 59998, "pitch": 45, "duration": 273, "velocity": 85}, {"time": 60009, "pitch": 57, "duration": 252, "velocity": 90}, {"time": 60019, "pitch": 61, "duration": 232, "velocity": 95}, {"time": 60029, "pitch": 64, "duration": 212, "velocity": 100}, {"time": 60241, "pitch": 64, "duration": 272, "velocity": 105}, {"time": 60251, "pitch": 61, "duration": 252, "velocity": 100}, {"time": 60261, "pitch": 57, "duration": 232, "velocity": 95}, {"time": 60271, "pitch": 45, "duration": 212, "velocity": 90}, {"time": 60483, "pitch": 45, "duration": 269, "velocity": 95}, {"time": 60493, "pitch": 57, "duration": 249, "velocity": 100}, {"time": 60503, "pitch": 61, "duration": 229, "velocity": 105}, {"time": 60513, "pitch": 64, "duration": 209, "velocity": 110}, {"time": 60722, "pitch": 64, "duration": 269, "velocity": 115}, {"time": 60732, "pitch": 61, "duration": 249, "velocity": 110}, {"time": 60742, "pitch": 57, "duration": 229, "velocity": 105}, {"time": 60752, "pitch": 45, "duration": 209, "velocity": 100}, {"time": 60961, "pitch": 45, "duration": 268, "velocity": 105}, {"time": 60971, "pitch": 57, "duration": 248, "velocity": 110}, {"time": 60981, "pitch": 61, "duration": 229, "velocity": 115}, {"time": 60991, "pitch": 64, "duration": 209, "velocity": 120}, {"time": 61200, "pitch": 64, "duration": 269, "velocity": 115}, {"time": 61210, "pitch": 61, "duration": 249, "velocity": 110}, {"time": 61219, "pitch": 57, "duration": 229, "velocity": 105}, {"time": 61229, "pitch": 45, "duration": 209, "velocity": 100}, {"time": 61438, "pitch": 45, "duration": 273, "velocity": 105}, {"time": 61448, "pitch": 57, "duration": 253, "velocity": 110}, {"time": 61459, "pitch": 61, "duration": 232, "velocity": 115}, {"time": 61469, "pitch": 64, "duration": 212, "velocity": 120}, {"time": 61681, "pitch": 64, "duration": 272, "velocity": 115}, {"time": 61691, "pitch": 61, "duration": 252, "velocity": 110}, {"time": 61701, "pitch": 57, "duration": 232, "velocity": 105}, {"time": 61711, "pitch": 45, "duration": 212, "velocity": 100}, {"time": 61923, "pitch": 50, "duration": 478, "velocity": 105}, {"time": 61933, "pitch": 57, "duration": 478, "velocity": 110}, {"time": 61943, "pitch": 62, "duration": 478, "velocity": 115}, {"time": 61953, "pitch": 66, "duration": 478, "velocity": 120}, {"time": 62401, "pitch": 50, "duration": 219, "velocity": 95}, {"time": 62411, "pitch": 57, "duration": 209, "velocity": 100}, {"time": 62421, "pitch": 62, "duration": 199, "velocity": 105}, {"time": 62431, "pitch": 66, "duration": 189, "velocity": 110}, {"time": 62640, "pitch": 67, "duration": 753, "velocity": 120}, {"time": 62650, "pitch": 62, "duration": 733, "velocity": 115}, {"time": 62659, "pitch": 59, "duration": 714, "velocity": 110}, {"time": 62669, "pitch": 50, "duration": 694, "velocity": 105}, {"time": 63363, "pitch": 50, "duration": 458, "velocity": 95}, {"time": 63373, "pitch": 59, "duration": 448, "velocity": 100}, {"time": 63383, "pitch": 62, "duration": 438, "velocity": 105}, {"time": 63393, "pitch": 67, "duration": 428, "velocity": 110}, {"time": 63841, "pitch": 52, "duration": 477, "velocity": 105}, {"time": 63851, "pitch": 55, "duration": 477, "velocity": 110}, {"time": 63861, "pitch": 59, "duration": 477, "velocity": 115}, {"time": 63871, "pitch": 64, "duration": 478, "velocity": 120}, {"time": 64318, "pitch": 52, "duration": 223, "velocity": 95}, {"time": 64328, "pitch": 55, "duration": 213, "velocity": 100}, {"time": 64338, "pitch": 59, "duration": 203, "velocity": 105}, {"time": 64349, "pitch": 64, "duration": 192, "velocity": 110}, {"time": 64561, "pitch": 64, "duration": 750, "velocity": 120}, {"time": 64571, "pitch": 61, "duration": 730, "velocity": 115}, {"time": 64581, "pitch": 57, "duration": 710, "velocity": 110}, {"time": 64591, "pitch": 52, "duration": 690, "velocity": 105}, {"time": 65281, "pitch": 52, "duration": 457, "velocity": 95}, {"time": 65291, "pitch": 57, "duration": 447, "velocity": 100}, {"time": 65301, "pitch": 61, "duration": 437, "velocity": 105}, {"time": 65311, "pitch": 64, "duration": 427, "velocity": 110}, {"time": 65758, "pitch": 50, "duration": 485, "velocity": 105}, {"time": 65768, "pitch": 57, "duration": 485, "velocity": 110}, {"time": 65778, "pitch": 62, "duration": 485, "velocity": 115}, {"time": 65789, "pitch": 66, "duration": 484, "velocity": 120}, {"time": 66243, "pitch": 50, "duration": 219, "velocity": 95}, {"time": 66253, "pitch": 57, "duration": 209, "velocity": 100}, {"time": 66263, "pitch": 62, "duration": 199, "velocity": 105}, {"time": 66273, "pitch": 66, "duration": 189, "velocity": 110}, {"time": 66482, "pitch": 67, "duration": 747, "velocity": 120}, {"time": 66492, "pitch": 62, "duration": 726, "velocity": 115}, {"time": 66502, "pitch": 59, "duration": 706, "velocity": 110}, {"time": 66512, "pitch": 50, "duration": 686, "velocity": 105}, {"time": 67198, "pitch": 50, "duration": 465, "velocity": 95}, {"time": 67208, "pitch": 59, "duration": 455, "velocity": 100}, {"time": 67218, "pitch": 62, "duration": 445, "velocity": 105}, {"time": 67229, "pitch": 67, "duration": 434, "velocity": 110}, {"time": 67683, "pitch": 52, "duration": 478, "velocity": 105}, {"time": 67693, "pitch": 57, "duration": 478, "velocity": 110}, {"time": 67703, "pitch": 62, "duration": 478, "velocity": 115}, {"time": 67713, "pitch": 64, "duration": 477, "velocity": 120}, {"time": 68161, "pitch": 52, "duration": 219, "velocity": 95}, {"time": 68171, "pitch": 57, "duration": 209, "velocity": 100}, {"time": 68181, "pitch": 62, "duration": 199, "velocity": 105}, {"time": 68190, "pitch": 64, "duration": 190, "velocity": 110}, {"time": 68399, "pitch": 64, "duration": 754, "velocity": 120}, {"time": 68409, "pitch": 61, "duration": 734, "velocity": 115}, {"time": 68419, "pitch": 57, "duration": 714, "velocity": 110}, {"time": 68429, "pitch": 52, "duration": 694, "velocity": 105}, {"time": 69123, "pitch": 52, "duration": 458, "velocity": 95}, {"time": 69133, "pitch": 57, "duration": 448, "velocity": 100}, {"time": 69143, "pitch": 61, "duration": 438, "velocity": 105}, {"time": 69153, "pitch": 64, "duration": 428, "velocity": 110}, {"time": 69601, "pitch": 50, "duration": 477, "velocity": 105}, {"time": 69611, "pitch": 57, "duration": 477, "velocity": 110}, {"time": 69620, "pitch": 62, "duration": 478, "velocity": 115}, {"time": 69630, "pitch": 66, "duration": 478, "velocity": 120}, {"time": 70078, "pitch": 50, "duration": 222, "velocity": 95}, {"time": 70088, "pitch": 57, "duration": 212, "velocity": 100}, {"time": 70098, "pitch": 62, "duration": 202, "velocity": 105}, {"time": 70108, "pitch": 66, "duration": 192, "velocity": 110}, {"time": 70321, "pitch": 67, "duration": 749, "velocity": 120}, {"time": 70331, "pitch": 62, "duration": 729, "velocity": 115}, {"time": 70341, "pitch": 59, "duration": 709, "velocity": 110}, {"time": 70351, "pitch": 50, "duration": 690, "velocity": 105}, {"time": 71041, "pitch": 50, "duration": 457, "velocity": 95}, {"time": 71050, "pitch": 59, "duration": 448, "velocity": 100}, {"time": 71060, "pitch": 62, "duration": 438, "velocity": 105}, {"time": 71070, "pitch": 67, "duration": 428, "velocity": 110}, {"time": 71518, "pitch": 52, "duration": 485, "velocity": 105}, {"time": 71528, "pitch": 57, "duration": 485, "velocity": 110}, {"time": 71538, "pitch": 61, "duration": 485, "velocity": 115}, {"time": 71548, "pitch": 64, "duration": 485, "velocity": 120}, {"time": 72003, "pitch": 52, "duration": 219, "velocity": 95}, {"time": 72013, "pitch": 57, "duration": 209, "velocity": 100}, {"time": 72023, "pitch": 61, "duration": 199, "velocity": 105}, {"time": 72033, "pitch": 64, "duration": 189, "velocity": 110}, {"time": 72242, "pitch": 64, "duration": 746, "velocity": 120}, {"time": 72252, "pitch": 61, "duration": 726, "velocity": 115}, {"time": 72262, "pitch": 58, "duration": 706, "velocity": 110}, {"time": 72272, "pitch": 52, "duration": 686, "velocity": 105}, {"time": 72958, "pitch": 52, "duration": 465, "velocity": 95}, {"time": 72968, "pitch": 58, "duration": 455, "velocity": 100}, {"time": 72978, "pitch": 61, "duration": 445, "velocity": 105}, {"time": 72988, "pitch": 64, "duration": 435, "velocity": 110}, {"time": 73443, "pitch": 50, "duration": 477, "velocity": 105}, {"time": 73453, "pitch": 59, "duration": 477, "velocity": 110}, {"time": 73463, "pitch": 62, "duration": 477, "velocity": 115}, {"time": 73473, "pitch": 66, "duration": 477, "velocity": 120}, {"time": 73920, "pitch": 50, "duration": 219, "velocity": 95}, {"time": 73930, "pitch": 59, "duration": 209, "velocity": 100}, {"time": 73940, "pitch": 62, "duration": 199, "velocity": 105}, {"time": 73950, "pitch": 66, "duration": 189, "velocity": 110}, {"time": 74159, "pitch": 67, "duration": 754, "velocity": 120}, {"time": 74169, "pitch": 62, "duration": 734, "velocity": 115}, {"time": 74179, "pitch": 59, "duration": 714, "velocity": 110}, {"time": 74189, "pitch": 50, "duration": 694, "velocity": 105}, {"time": 74883, "pitch": 50, "duration": 458, "velocity": 95}, {"time": 74893, "pitch": 59, "duration": 448, "velocity": 100}, {"time": 74903, "pitch": 62, "duration": 438, "velocity": 105}, {"time": 74913, "pitch": 67, "duration": 428, "velocity": 110}, {"time": 75360, "pitch": 50, "duration": 478, "velocity": 105}, {"time": 75370, "pitch": 57, "duration": 478, "velocity": 110}, {"time": 75380, "pitch": 62, "duration": 478, "velocity": 115}, {"time": 75390, "pitch": 64, "duration": 478, "velocity": 120}, {"time": 75838, "pitch": 50, "duration": 222, "velocity": 95}, {"time": 75848, "pitch": 57, "duration": 212, "velocity": 100}, {"time": 75858, "pitch": 62, "duration": 202, "velocity": 105}, {"time": 75868, "pitch": 64, "duration": 192, "velocity": 110}, {"time": 76080, "pitch": 64, "duration": 750, "velocity": 120}, {"time": 76091, "pitch": 62, "duration": 729, "velocity": 115}, {"time": 76101, "pitch": 57, "duration": 709, "velocity": 110}, {"time": 76111, "pitch": 52, "duration": 689, "velocity": 105}, {"time": 76800, "pitch": 52, "duration": 458, "velocity": 95}, {"time": 76810, "pitch": 57, "duration": 448, "velocity": 100}, {"time": 76820, "pitch": 62, "duration": 438, "velocity": 105}, {"time": 76830, "pitch": 64, "duration": 428, "velocity": 110}, {"time": 77278, "pitch": 50, "duration": 485, "velocity": 105}, {"time": 77288, "pitch": 59, "duration": 485, "velocity": 110}, {"time": 77298, "pitch": 62, "duration": 485, "velocity": 115}, {"time": 77308, "pitch": 66, "duration": 485, "velocity": 120}, {"time": 77763, "pitch": 50, "duration": 219, "velocity": 95}, {"time": 77773, "pitch": 59, "duration": 209, "velocity": 100}, {"time": 77783, "pitch": 62, "duration": 199, "velocity": 105}, {"time": 77793, "pitch": 66, "duration": 189, "velocity": 110}, {"time": 78002, "pitch": 67, "duration": 746, "velocity": 120}, {"time": 78012, "pitch": 62, "duration": 726, "velocity": 115}, {"time": 78021, "pitch": 59, "duration": 707, "velocity": 110}, {"time": 78031, "pitch": 50, "duration": 687, "velocity": 105}, {"time": 78718, "pitch": 50, "duration": 465, "velocity": 95}, {"time": 78728, "pitch": 59, "duration": 455, "velocity": 100}, {"time": 78738, "pitch": 62, "duration": 445, "velocity": 105}, {"time": 78748, "pitch": 67, "duration": 435, "velocity": 110}, {"time": 79203, "pitch": 50, "duration": 477, "velocity": 105}, {"time": 79213, "pitch": 57, "duration": 477, "velocity": 110}, {"time": 79223, "pitch": 62, "duration": 477, "velocity": 115}, {"time": 79233, "pitch": 66, "duration": 477, "velocity": 120}, {"time": 79680, "pitch": 50, "duration": 219, "velocity": 95}, {"time": 79690, "pitch": 57, "duration": 209, "velocity": 100}, {"time": 79700, "pitch": 62, "duration": 199, "velocity": 105}, {"time": 79710, "pitch": 66, "duration": 189, "velocity": 110}, {"time": 79919, "pitch": 64, "duration": 754, "velocity": 120}, {"time": 79929, "pitch": 61, "duration": 734, "velocity": 115}, {"time": 79939, "pitch": 57, "duration": 714, "velocity": 110}, {"time": 79949, "pitch": 52, "duration": 694, "velocity": 105}, {"time": 80643, "pitch": 52, "duration": 457, "velocity": 95}, {"time": 80653, "pitch": 57, "duration": 447, "velocity": 100}, {"time": 80663, "pitch": 61, "duration": 437, "velocity": 105}, {"time": 80673, "pitch": 64, "duration": 427, "velocity": 110}, {"time": 81120, "pitch": 50, "duration": 478, "velocity": 105}, {"time": 81130, "pitch": 59, "duration": 478, "velocity": 110}, {"time": 81140, "pitch": 62, "duration": 478, "velocity": 115}, {"time": 81150, "pitch": 66, "duration": 478, "velocity": 120}, {"time": 81598, "pitch": 50, "duration": 222, "velocity": 95}, {"time": 81608, "pitch": 59, "duration": 212, "velocity": 100}, {"time": 81618, "pitch": 62, "duration": 202, "velocity": 105}, {"time": 81628, "pitch": 66, "duration": 192, "velocity": 110}, {"time": 81840, "pitch": 67, "duration": 750, "velocity": 120}, {"time": 81850, "pitch": 62, "duration": 730, "velocity": 115}, {"time": 81860, "pitch": 59, "duration": 710, "velocity": 110}, {"time": 81871, "pitch": 50, "duration": 689, "velocity": 105}, {"time": 82560, "pitch": 50, "duration": 458, "velocity": 95}, {"time": 82570, "pitch": 59, "duration": 448, "velocity": 100}, {"time": 82580, "pitch": 62, "duration": 438, "velocity": 105}, {"time": 82590, "pitch": 67, "duration": 428, "velocity": 110}, {"time": 83038, "pitch": 52, "duration": 485, "velocity": 105}, {"time": 83048, "pitch": 57, "duration": 485, "velocity": 110}, {"time": 83058, "pitch": 62, "duration": 485, "velocity": 115}, {"time": 83068, "pitch": 64, "duration": 484, "velocity": 120}, {"time": 83523, "pitch": 52, "duration": 219, "velocity": 95}, {"time": 83533, "pitch": 57, "duration": 209, "velocity": 100}, {"time": 83543, "pitch": 62, "duration": 199, "velocity": 105}, {"time": 83552, "pitch": 64, "duration": 190, "velocity": 110}, {"time": 83761, "pitch": 64, "duration": 747, "velocity": 120}, {"time": 83771, "pitch": 61, "duration": 727, "velocity": 115}, {"time": 83781, "pitch": 57, "duration": 707, "velocity": 110}, {"time": 83791, "pitch": 52, "duration": 687, "velocity": 105}, {"time": 84478, "pitch": 52, "duration": 464, "velocity": 95}, {"time": 84488, "pitch": 57, "duration": 454, "velocity": 100}, {"time": 84498, "pitch": 61, "duration": 444, "velocity": 105}, {"time": 84508, "pitch": 64, "duration": 434, "velocity": 110}, {"time": 100317, "pitch": 43, "duration": 1905, "velocity": 80}, {"time": 100560, "pitch": 59, "duration": 1662, "velocity": 95}, {"time": 100802, "pitch": 55, "duration": 1420, "velocity": 90}, {"time": 101041, "pitch": 67, "duration": 1181, "velocity": 80}, {"time": 102242, "pitch": 43, "duration": 1898, "velocity": 80}, {"time": 102481, "pitch": 61, "duration": 1659, "velocity": 95}, {"time": 102720, "pitch": 57, "duration": 1420, "velocity": 90}, {"time": 102959, "pitch": 64, "duration": 1181, "velocity": 80}, {"time": 104160, "pitch": 42, "duration": 962, "velocity": 110}, {"time": 105122, "pitch": 40, "duration": 955, "velocity": 110}, {"time": 106077, "pitch": 45, "duration": 1662, "velocity": 110}, {"time": 106097, "pitch": 50, "duration": 1642, "velocity": 115}, {"time": 106118, "pitch": 55, "duration": 1621, "velocity": 110}, {"time": 106138, "pitch": 59, "duration": 1601, "velocity": 105}, {"time": 106158, "pitch": 67, "duration": 1581, "velocity": 100}, {"time": 107760, "pitch": 40, "duration": 121, "velocity": 125}, {"time": 107881, "pitch": 42, "duration": 121, "velocity": 120}, {"time": 108002, "pitch": 43, "duration": 1898, "velocity": 120}, {"time": 108012, "pitch": 59, "duration": 1888, "velocity": 100}, {"time": 108022, "pitch": 62, "duration": 1878, "velocity": 105}, {"time": 108032, "pitch": 67, "duration": 1868, "velocity": 110}, {"time": 109920, "pitch": 45, "duration": 268, "velocity": 85}, {"time": 109930, "pitch": 57, "duration": 248, "velocity": 90}, {"time": 109939, "pitch": 61, "duration": 229, "velocity": 95}, {"time": 109949, "pitch": 64, "duration": 209, "velocity": 100}, {"time": 110158, "pitch": 64, "duration": 269, "velocity": 105}, {"time": 110168, "pitch": 61, "duration": 249, "velocity": 100}, {"time": 110178, "pitch": 57, "duration": 229, "velocity": 95}, {"time": 110188, "pitch": 45, "duration": 209, "velocity": 90}, {"time": 110397, "pitch": 45, "duration": 273, "velocity": 95}, {"time": 110407, "pitch": 57, "duration": 253, "velocity": 100}, {"time": 110417, "pitch": 61, "duration": 233, "velocity": 105}, {"time": 110427, "pitch": 64, "duration": 213, "velocity": 110}, {"time": 110640, "pitch": 64, "duration": 272, "velocity": 115}, {"time": 110650, "pitch": 61, "duration": 252, "velocity": 110}, {"time": 110660, "pitch": 57, "duration": 232, "velocity": 105}, {"time": 110670, "pitch": 45, "duration": 212, "velocity": 100}, {"time": 110882, "pitch": 45, "duration": 269, "velocity": 105}, {"time": 110892, "pitch": 57, "duration": 249, "velocity": 110}, {"time": 110902, "pitch": 61, "duration": 229, "velocity": 115}, {"time": 110912, "pitch": 64, "duration": 209, "velocity": 120}, {"time": 111121, "pitch": 64, "duration": 268, "velocity": 115}, {"time": 111131, "pitch": 61, "duration": 248, "velocity": 110}, {"time": 111141, "pitch": 57, "duration": 228, "velocity": 105}, {"time": 111151, "pitch": 45, "duration": 209, "velocity": 100}, {"time": 111360, "pitch": 45, "duration": 268, "velocity": 105}, {"time": 111369, "pitch": 57, "duration": 249, "velocity": 110}, {"time": 111379, "pitch": 61, "duration": 229, "velocity": 115}, {"time": 111389, "pitch": 64, "duration": 209, "velocity": 120}, {"time": 111598, "pitch": 64, "duration": 269, "velocity": 115}, {"time": 111608, "pitch": 61, "duration": 249, "velocity": 110}, {"time": 111618, "pitch": 57, "duration": 229, "velocity": 105}, {"time": 111628, "pitch": 45, "duration": 209, "velocity": 100}, {"time": 111837, "pitch": 50, "duration": 485, "velocity": 105}, {"time": 111847, "pitch": 57, "duration": 485, "velocity": 110}, {"time": 111857, "pitch": 62, "duration": 485, "velocity": 115}, {"time": 111867, "pitch": 66, "duration": 485, "velocity": 120}, {"time": 112322, "pitch": 50, "duration": 219, "velocity": 95}, {"time": 112332, "pitch": 57, "duration": 209, "velocity": 100}, {"time": 112342, "pitch": 62, "duration": 199, "velocity": 105}, {"time": 112352, "pitch": 66, "duration": 189, "velocity": 110}, {"time": 112561, "pitch": 67, "duration": 746, "velocity": 120}, {"time": 112571, "pitch": 62, "duration": 726, "velocity": 115}, {"time": 112581, "pitch": 59, "duration": 706, "velocity": 110}, {"time": 112591, "pitch": 50, "duration": 686, "velocity": 105}, {"time": 113277, "pitch": 50, "duration": 465, "velocity": 95}, {"time": 113287, "pitch": 59, "duration": 455, "velocity": 100}, {"time": 113297, "pitch": 62, "duration": 445, "velocity": 105}, {"time": 113307, "pitch": 67, "duration": 435, "velocity": 110}, {"time": 113762, "pitch": 52, "duration": 477, "velocity": 105}, {"time": 113772, "pitch": 55, "duration": 477, "velocity": 110}, {"time": 113782, "pitch": 59, "duration": 477, "velocity": 115}, {"time": 113792, "pitch": 64, "duration": 477, "velocity": 120}, {"time": 114239, "pitch": 52, "duration": 219, "velocity": 95}, {"time": 114249, "pitch": 55, "duration": 209, "velocity": 100}, {"time": 114259, "pitch": 59, "duration": 199, "velocity": 105}, {"time": 114269, "pitch": 64, "duration": 189, "velocity": 110}, {"time": 114478, "pitch": 64, "duration": 754, "velocity": 120}, {"time": 114488, "pitch": 61, "duration": 734, "velocity": 115}, {"time": 114498, "pitch": 57, "duration": 714, "velocity": 110}, {"time": 114508, "pitch": 52, "duration": 694, "velocity": 105}, {"time": 115202, "pitch": 52, "duration": 458, "velocity": 95}, {"time": 115212, "pitch": 57, "duration": 448, "velocity": 100}, {"time": 115222, "pitch": 61, "duration": 438, "velocity": 105}, {"time": 115232, "pitch": 64, "duration": 428, "velocity": 110}, {"time": 115679, "pitch": 50, "duration": 478, "velocity": 105}, {"time": 115689, "pitch": 57, "duration": 478, "velocity": 110}, {"time": 115699, "pitch": 62, "duration": 478, "velocity": 115}, {"time": 115709, "pitch": 66, "duration": 478, "velocity": 120}, {"time": 116157, "pitch": 50, "duration": 222, "velocity": 95}, {"time": 116167, "pitch": 57, "duration": 212, "velocity": 100}, {"time": 116177, "pitch": 62, "duration": 202, "velocity": 105}, {"time": 116187, "pitch": 66, "duration": 192, "velocity": 110}, {"time": 116399, "pitch": 67, "duration": 750, "velocity": 120}, {"time": 116410, "pitch": 62, "duration": 729, "velocity": 115}, {"time": 116420, "pitch": 59, "duration": 709, "velocity": 110}, {"time": 116430, "pitch": 50, "duration": 689, "velocity": 105}, {"time": 117119, "pitch": 50, "duration": 458, "velocity": 95}, {"time": 117129, "pitch": 59, "duration": 448, "velocity": 100}, {"time": 117139, "pitch": 62, "duration": 438, "velocity": 105}, {"time": 117149, "pitch": 67, "duration": 428, "velocity": 110}, {"time": 117597, "pitch": 52, "duration": 485, "velocity": 105}, {"time": 117607, "pitch": 57, "duration": 485, "velocity": 110}, {"time": 117617, "pitch": 62, "duration": 485, "velocity": 115}, {"time": 117627, "pitch": 64, "duration": 485, "velocity": 120}, {"time": 118082, "pitch": 52, "duration": 219, "velocity": 95}, {"time": 118092, "pitch": 57, "duration": 209, "velocity": 100}, {"time": 118102, "pitch": 62, "duration": 199, "velocity": 105}, {"time": 118112, "pitch": 64, "duration": 189, "velocity": 110}, {"time": 118321, "pitch": 64, "duration": 746, "velocity": 120}, {"time": 118331, "pitch": 61, "duration": 726, "velocity": 115}, {"time": 118340, "pitch": 57, "duration": 707, "velocity": 110}, {"time": 118350, "pitch": 52, "duration": 687, "velocity": 105}, {"time": 119037, "pitch": 52, "duration": 465, "velocity": 95}, {"time": 119047, "pitch": 57, "duration": 455, "velocity": 100}, {"time": 119057, "pitch": 61, "duration": 445, "velocity": 105}, {"time": 119067, "pitch": 64, "duration": 435, "velocity": 110}, {"time": 119522, "pitch": 50, "duration": 477, "velocity": 105}, {"time": 119532, "pitch": 57, "duration": 477, "velocity": 110}, {"time": 119542, "pitch": 62, "duration": 477, "velocity": 115}, {"time": 119552, "pitch": 66, "duration": 477, "velocity": 120}, {"time": 119999, "pitch": 50, "duration": 219, "velocity": 95}, {"time": 120009, "pitch": 57, "duration": 209, "velocity": 100}, {"time": 120019, "pitch": 62, "duration": 199, "velocity": 105}, {"time": 120029, "pitch": 66, "duration": 189, "velocity": 110}, {"time": 120238, "pitch": 67, "duration": 754, "velocity": 120}, {"time": 120248, "pitch": 62, "duration": 734, "velocity": 115}, {"time": 120258, "pitch": 59, "duration": 714, "velocity": 110}, {"time": 120268, "pitch": 50, "duration": 694, "velocity": 105}, {"time": 120962, "pitch": 50, "duration": 457, "velocity": 95}, {"time": 120972, "pitch": 59, "duration": 447, "velocity": 100}, {"time": 120982, "pitch": 62, "duration": 437, "velocity": 105}, {"time": 120992, "pitch": 67, "duration": 427, "velocity": 110}, {"time": 121439, "pitch": 52, "duration": 478, "velocity": 105}, {"time": 121449, "pitch": 57, "duration": 478, "velocity": 110}, {"time": 121459, "pitch": 61, "duration": 478, "velocity": 115}, {"time": 121469, "pitch": 64, "duration": 478, "velocity": 120}, {"time": 121917, "pitch": 52, "duration": 222, "velocity": 95}, {"time": 121927, "pitch": 57, "duration": 212, "velocity": 100}, {"time": 121937, "pitch": 61, "duration": 202, "velocity": 105}, {"time": 121947, "pitch": 64, "duration": 192, "velocity": 110}, {"time": 122159, "pitch": 64, "duration": 750, "velocity": 120}, {"time": 122169, "pitch": 61, "duration": 730, "velocity": 115}, {"time": 122179, "pitch": 58, "duration": 710, "velocity": 110}, {"time": 122190, "pitch": 52, "duration": 689, "velocity": 105}, {"time": 122879, "pitch": 52, "duration": 458, "velocity": 95}, {"time": 122889, "pitch": 58, "duration": 448, "velocity": 100}, {"time": 122899, "pitch": 61, "duration": 438, "velocity": 105}, {"time": 122909, "pitch": 64, "duration": 428, "velocity": 110}, {"time": 123357, "pitch": 50, "duration": 485, "velocity": 105}, {"time": 123367, "pitch": 59, "duration": 485, "velocity": 110}, {"time": 123377, "pitch": 62, "duration": 485, "velocity": 115}, {"time": 123387, "pitch": 66, "duration": 484, "velocity": 120}, {"time": 123842, "pitch": 50, "duration": 219, "velocity": 95}, {"time": 123852, "pitch": 59, "duration": 209, "velocity": 100}, {"time": 123862, "pitch": 62, "duration": 199, "velocity": 105}, {"time": 123871, "pitch": 66, "duration": 190, "velocity": 110}, {"time": 124080, "pitch": 67, "duration": 747, "velocity": 120}, {"time": 124090, "pitch": 62, "duration": 727, "velocity": 115}, {"time": 124100, "pitch": 59, "duration": 707, "velocity": 110}, {"time": 124110, "pitch": 50, "duration": 687, "velocity": 105}, {"time": 124797, "pitch": 50, "duration": 464, "velocity": 95}, {"time": 124807, "pitch": 59, "duration": 454, "velocity": 100}, {"time": 124817, "pitch": 62, "duration": 444, "velocity": 105}, {"time": 124827, "pitch": 67, "duration": 434, "velocity": 110}, {"time": 125282, "pitch": 50, "duration": 1897, "velocity": 105}, {"time": 125292, "pitch": 57, "duration": 1887, "velocity": 110}, {"time": 125301, "pitch": 62, "duration": 1878, "velocity": 115}, {"time": 125311, "pitch": 64, "duration": 1868, "velocity": 120}, {"time": 134877, "pitch": 52, "duration": 1904, "velocity": 105}, {"time": 134887, "pitch": 55, "duration": 1894, "velocity": 110}, {"time": 134897, "pitch": 60, "duration": 1884, "velocity": 115}, {"time": 134907, "pitch": 64, "duration": 1874, "velocity": 120}, {"time": 136801, "pitch": 50, "duration": 1898, "velocity": 105}, {"time": 136811, "pitch": 57, "duration": 1888, "velocity": 110}, {"time": 136821, "pitch": 62, "duration": 1878, "velocity": 115}, {"time": 136831, "pitch": 67, "duration": 1868, "velocity": 120}, {"time": 138719, "pitch": 50, "duration": 477, "velocity": 95}, {"time": 138729, "pitch": 55, "duration": 478, "velocity": 100}, {"time": 138739, "pitch": 59, "duration": 478, "velocity": 105}, {"time": 138749, "pitch": 67, "duration": 478, "velocity": 110}, {"time": 139196, "pitch": 50, "duration": 223, "velocity": 90}, {"time": 139207, "pitch": 55, "duration": 212, "velocity": 95}, {"time": 139217, "pitch": 59, "duration": 202, "velocity": 100}, {"time": 139227, "pitch": 67, "duration": 192, "velocity": 105}, {"time": 139439, "pitch": 64, "duration": 750, "velocity": 110}, {"time": 139449, "pitch": 61, "duration": 730, "velocity": 105}, {"time": 139459, "pitch": 57, "duration": 710, "velocity": 100}, {"time": 139469, "pitch": 52, "duration": 690, "velocity": 95}, {"time": 140159, "pitch": 52, "duration": 268, "velocity": 95}, {"time": 140169, "pitch": 57, "duration": 249, "velocity": 100}, {"time": 140179, "pitch": 61, "duration": 229, "velocity": 105}, {"time": 140189, "pitch": 64, "duration": 209, "velocity": 110}, {"time": 140398, "pitch": 64, "duration": 219, "velocity": 105}, {"time": 140408, "pitch": 61, "duration": 209, "velocity": 100}, {"time": 140418, "pitch": 57, "duration": 199, "velocity": 95}, {"time": 140427, "pitch": 52, "duration": 190, "velocity": 90}, {"time": 140636, "pitch": 50, "duration": 485, "velocity": 95}, {"time": 140646, "pitch": 55, "duration": 485, "velocity": 100}, {"time": 140657, "pitch": 59, "duration": 484, "velocity": 105}, {"time": 140667, "pitch": 67, "duration": 484, "velocity": 110}, {"time": 141121, "pitch": 50, "duration": 219, "velocity": 90}, {"time": 141131, "pitch": 55, "duration": 209, "velocity": 95}, {"time": 141141, "pitch": 59, "duration": 199, "velocity": 100}, {"time": 141151, "pitch": 67, "duration": 189, "velocity": 105}, {"time": 141360, "pitch": 64, "duration": 753, "velocity": 110}, {"time": 141370, "pitch": 61, "duration": 733, "velocity": 105}, {"time": 141380, "pitch": 57, "duration": 713, "velocity": 100}, {"time": 141390, "pitch": 52, "duration": 694, "velocity": 95}, {"time": 142084, "pitch": 52, "duration": 268, "velocity": 95}, {"time": 142093, "pitch": 57, "duration": 249, "velocity": 100}, {"time": 142103, "pitch": 61, "duration": 229, "velocity": 105}, {"time": 142113, "pitch": 64, "duration": 209, "velocity": 110}, {"time": 142322, "pitch": 64, "duration": 219, "velocity": 105}, {"time": 142332, "pitch": 61, "duration": 209, "velocity": 100}, {"time": 142342, "pitch": 57, "duration": 199, "velocity": 95}, {"time": 142352, "pitch": 52, "duration": 189, "velocity": 90}, {"time": 142561, "pitch": 50, "duration": 478, "velocity": 105}, {"time": 142571, "pitch": 57, "duration": 478, "velocity": 110}, {"time": 142581, "pitch": 62, "duration": 478, "velocity": 115}, {"time": 142591, "pitch": 66, "duration": 478, "velocity": 120}, {"time": 143039, "pitch": 50, "duration": 222, "velocity": 95}, {"time": 143049, "pitch": 57, "duration": 212, "velocity": 100}, {"time": 143059, "pitch": 62, "duration": 202, "velocity": 105}, {"time": 143069, "pitch": 66, "duration": 192, "velocity": 110}, {"time": 143281, "pitch": 67, "duration": 750, "velocity": 120}, {"time": 143291, "pitch": 62, "duration": 730, "velocity": 115}, {"time": 143301, "pitch": 59, "duration": 710, "velocity": 110}, {"time": 143311, "pitch": 50, "duration": 690, "velocity": 105}, {"time": 144001, "pitch": 50, "duration": 458, "velocity": 95}, {"time": 144011, "pitch": 59, "duration": 448, "velocity": 100}, {"time": 144021, "pitch": 62, "duration": 438, "velocity": 105}, {"time": 144031, "pitch": 67, "duration": 428, "velocity": 110}, {"time": 144479, "pitch": 52, "duration": 484, "velocity": 105}, {"time": 144489, "pitch": 55, "duration": 484, "velocity": 110}, {"time": 144499, "pitch": 59, "duration": 484, "velocity": 115}, {"time": 144509, "pitch": 64, "duration": 484, "velocity": 120}, {"time": 144963, "pitch": 52, "duration": 219, "velocity": 95}, {"time": 144973, "pitch": 55, "duration": 209, "velocity": 100}, {"time": 144983, "pitch": 59, "duration": 199, "velocity": 105}, {"time": 144993, "pitch": 64, "duration": 189, "velocity": 110}, {"time": 145202, "pitch": 64, "duration": 747, "velocity": 120}, {"time": 145212, "pitch": 61, "duration": 727, "velocity": 115}, {"time": 145222, "pitch": 57, "duration": 707, "velocity": 110}, {"time": 145232, "pitch": 52, "duration": 687, "velocity": 105}, {"time": 145919, "pitch": 52, "duration": 464, "velocity": 95}, {"time": 145929, "pitch": 57, "duration": 454, "velocity": 100}, {"time": 145939, "pitch": 61, "duration": 444, "velocity": 105}, {"time": 145949, "pitch": 64, "duration": 434, "velocity": 110}, {"time": 146403, "pitch": 50, "duration": 478, "velocity": 105}, {"time": 146413, "pitch": 57, "duration": 478, "velocity": 110}, {"time": 146423, "pitch": 62, "duration": 478, "velocity": 115}, {"time": 146433, "pitch": 66, "duration": 478, "velocity": 120}, {"time": 146881, "pitch": 50, "duration": 222, "velocity": 95}, {"time": 146891, "pitch": 57, "duration": 212, "velocity": 100}, {"time": 146901, "pitch": 62, "duration": 202, "velocity": 105}, {"time": 146911, "pitch": 66, "duration": 192, "velocity": 110}, {"time": 147124, "pitch": 67, "duration": 736, "velocity": 120}, {"time": 147134, "pitch": 62, "duration": 715, "velocity": 115}, {"time": 147144, "pitch": 59, "duration": 695, "velocity": 110}, {"time": 147154, "pitch": 50, "duration": 675, "velocity": 105}, {"time": 147829, "pitch": 50, "duration": 459, "velocity": 95}, {"time": 147839, "pitch": 59, "duration": 449, "velocity": 100}, {"time": 147849, "pitch": 62, "duration": 439, "velocity": 105}, {"time": 147860, "pitch": 67, "duration": 428, "velocity": 110}, {"time": 148307, "pitch": 52, "duration": 485, "velocity": 105}, {"time": 148317, "pitch": 57, "duration": 485, "velocity": 110}, {"time": 148327, "pitch": 62, "duration": 485, "velocity": 115}, {"time": 148337, "pitch": 64, "duration": 485, "velocity": 120}, {"time": 148792, "pitch": 52, "duration": 222, "velocity": 95}, {"time": 148802, "pitch": 57, "duration": 212, "velocity": 100}, {"time": 148812, "pitch": 62, "duration": 202, "velocity": 105}, {"time": 148822, "pitch": 64, "duration": 192, "velocity": 110}, {"time": 149034, "pitch": 64, "duration": 751, "velocity": 120}, {"time": 149044, "pitch": 61, "duration": 730, "velocity": 115}, {"time": 149054, "pitch": 57, "duration": 710, "velocity": 110}, {"time": 149064, "pitch": 52, "duration": 690, "velocity": 105}, {"time": 149754, "pitch": 52, "duration": 472, "velocity": 95}, {"time": 149764, "pitch": 57, "duration": 462, "velocity": 100}, {"time": 149774, "pitch": 61, "duration": 452, "velocity": 105}, {"time": 149785, "pitch": 64, "duration": 441, "velocity": 110}, {"time": 150246, "pitch": 50, "duration": 463, "velocity": 105}, {"time": 150254, "pitch": 57, "duration": 465, "velocity": 110}, {"time": 150263, "pitch": 62, "duration": 466, "velocity": 115}, {"time": 150274, "pitch": 66, "duration": 465, "velocity": 120}, {"time": 150709, "pitch": 50, "duration": 222, "velocity": 95}, {"time": 150719, "pitch": 57, "duration": 212, "velocity": 100}, {"time": 150729, "pitch": 62, "duration": 202, "velocity": 105}, {"time": 150739, "pitch": 66, "duration": 192, "velocity": 110}, {"time": 150951, "pitch": 67, "duration": 758, "velocity": 120}, {"time": 150961, "pitch": 62, "duration": 739, "velocity": 115}, {"time": 150972, "pitch": 59, "duration": 717, "velocity": 110}, {"time": 150982, "pitch": 50, "duration": 697, "velocity": 105}, {"time": 151679, "pitch": 50, "duration": 471, "velocity": 95}, {"time": 151689, "pitch": 59, "duration": 461, "velocity": 100}, {"time": 151700, "pitch": 62, "duration": 450, "velocity": 105}, {"time": 151709, "pitch": 67, "duration": 441, "velocity": 110}, {"time": 152170, "pitch": 52, "duration": 457, "velocity": 105}, {"time": 152179, "pitch": 57, "duration": 458, "velocity": 110}, {"time": 152188, "pitch": 61, "duration": 459, "velocity": 115}, {"time": 152198, "pitch": 64, "duration": 459, "velocity": 120}, {"time": 152627, "pitch": 52, "duration": 219, "velocity": 95}, {"time": 152637, "pitch": 57, "duration": 209, "velocity": 100}, {"time": 152647, "pitch": 61, "duration": 199, "velocity": 105}, {"time": 152657, "pitch": 64, "duration": 189, "velocity": 110}, {"time": 152866, "pitch": 64, "duration": 753, "velocity": 120}, {"time": 152876, "pitch": 61, "duration": 733, "velocity": 115}, {"time": 152886, "pitch": 58, "duration": 713, "velocity": 110}, {"time": 152896, "pitch": 52, "duration": 693, "velocity": 105}, {"time": 153589, "pitch": 52, "duration": 458, "velocity": 95}, {"time": 153599, "pitch": 58, "duration": 448, "velocity": 100}, {"time": 153609, "pitch": 61, "duration": 438, "velocity": 105}, {"time": 153619, "pitch": 64, "duration": 428, "velocity": 110}, {"time": 154067, "pitch": 50, "duration": 498, "velocity": 105}, {"time": 154077, "pitch": 59, "duration": 499, "velocity": 110}, {"time": 154087, "pitch": 62, "duration": 499, "velocity": 115}, {"time": 154097, "pitch": 66, "duration": 499, "velocity": 120}, {"time": 154565, "pitch": 50, "duration": 220, "velocity": 95}, {"time": 154576, "pitch": 59, "duration": 209, "velocity": 100}, {"time": 154586, "pitch": 62, "duration": 199, "velocity": 105}, {"time": 154596, "pitch": 66, "duration": 189, "velocity": 110}, {"time": 154804, "pitch": 67, "duration": 747, "velocity": 120}, {"time": 154814, "pitch": 62, "duration": 727, "velocity": 115}, {"time": 154824, "pitch": 59, "duration": 707, "velocity": 110}, {"time": 154834, "pitch": 50, "duration": 687, "velocity": 105}, {"time": 155521, "pitch": 50, "duration": 465, "velocity": 95}, {"time": 155531, "pitch": 59, "duration": 455, "velocity": 100}, {"time": 155541, "pitch": 62, "duration": 445, "velocity": 105}, {"time": 155551, "pitch": 67, "duration": 435, "velocity": 110}, {"time": 156005, "pitch": 50, "duration": 478, "velocity": 105}, {"time": 156016, "pitch": 57, "duration": 477, "velocity": 110}, {"time": 156026, "pitch": 62, "duration": 477, "velocity": 115}, {"time": 156036, "pitch": 64, "duration": 477, "velocity": 120}, {"time": 156483, "pitch": 50, "duration": 219, "velocity": 95}, {"time": 156493, "pitch": 57, "duration": 209, "velocity": 100}, {"time": 156503, "pitch": 62, "duration": 199, "velocity": 105}, {"time": 156513, "pitch": 64, "duration": 189, "velocity": 110}, {"time": 156722, "pitch": 64, "duration": 747, "velocity": 120}, {"time": 156732, "pitch": 62, "duration": 727, "velocity": 115}, {"time": 156742, "pitch": 57, "duration": 706, "velocity": 110}, {"time": 156752, "pitch": 52, "duration": 686, "velocity": 105}, {"time": 157438, "pitch": 52, "duration": 465, "velocity": 95}, {"time": 157448, "pitch": 57, "duration": 455, "velocity": 100}, {"time": 157459, "pitch": 62, "duration": 444, "velocity": 105}, {"time": 157469, "pitch": 64, "duration": 434, "velocity": 110}, {"time": 157923, "pitch": 50, "duration": 478, "velocity": 105}, {"time": 157933, "pitch": 57, "duration": 478, "velocity": 110}, {"time": 157943, "pitch": 62, "duration": 478, "velocity": 115}, {"time": 157953, "pitch": 66, "duration": 478, "velocity": 120}, {"time": 158401, "pitch": 50, "duration": 219, "velocity": 95}, {"time": 158411, "pitch": 57, "duration": 209, "velocity": 100}, {"time": 158421, "pitch": 62, "duration": 199, "velocity": 105}, {"time": 158431, "pitch": 66, "duration": 189, "velocity": 110}, {"time": 158640, "pitch": 67, "duration": 753, "velocity": 120}, {"time": 158650, "pitch": 62, "duration": 733, "velocity": 115}, {"time": 158659, "pitch": 59, "duration": 714, "velocity": 110}, {"time": 158669, "pitch": 50, "duration": 694, "velocity": 105}, {"time": 159363, "pitch": 50, "duration": 458, "velocity": 95}, {"time": 159373, "pitch": 59, "duration": 448, "velocity": 100}, {"time": 159383, "pitch": 62, "duration": 438, "velocity": 105}, {"time": 159393, "pitch": 67, "duration": 428, "velocity": 110}, {"time": 159841, "pitch": 52, "duration": 477, "velocity": 105}, {"time": 159851, "pitch": 55, "duration": 477, "velocity": 110}, {"time": 159861, "pitch": 59, "duration": 477, "velocity": 115}, {"time": 159871, "pitch": 64, "duration": 478, "velocity": 120}, {"time": 160318, "pitch": 52, "duration": 223, "velocity": 95}, {"time": 160328, "pitch": 55, "duration": 213, "velocity": 100}, {"time": 160338, "pitch": 59, "duration": 203, "velocity": 105}, {"time": 160349, "pitch": 64, "duration": 192, "velocity": 110}, {"time": 160561, "pitch": 64, "duration": 750, "velocity": 120}, {"time": 160571, "pitch": 61, "duration": 730, "velocity": 115}, {"time": 160581, "pitch": 57, "duration": 710, "velocity": 110}, {"time": 160591, "pitch": 52, "duration": 690, "velocity": 105}, {"time": 161281, "pitch": 52, "duration": 457, "velocity": 95}, {"time": 161291, "pitch": 57, "duration": 447, "velocity": 100}, {"time": 161301, "pitch": 61, "duration": 437, "velocity": 105}, {"time": 161311, "pitch": 64, "duration": 427, "velocity": 110}, {"time": 161758, "pitch": 50, "duration": 485, "velocity": 105}, {"time": 161768, "pitch": 57, "duration": 485, "velocity": 110}, {"time": 161778, "pitch": 62, "duration": 485, "velocity": 115}, {"time": 161789, "pitch": 66, "duration": 484, "velocity": 120}, {"time": 162243, "pitch": 50, "duration": 219, "velocity": 95}, {"time": 162253, "pitch": 57, "duration": 209, "velocity": 100}, {"time": 162263, "pitch": 62, "duration": 199, "velocity": 105}, {"time": 162273, "pitch": 66, "duration": 189, "velocity": 110}, {"time": 162482, "pitch": 67, "duration": 747, "velocity": 120}, {"time": 162492, "pitch": 62, "duration": 726, "velocity": 115}, {"time": 162502, "pitch": 59, "duration": 706, "velocity": 110}, {"time": 162512, "pitch": 50, "duration": 686, "velocity": 105}, {"time": 163198, "pitch": 50, "duration": 465, "velocity": 95}, {"time": 163208, "pitch": 59, "duration": 455, "velocity": 100}, {"time": 163218, "pitch": 62, "duration": 445, "velocity": 105}, {"time": 163229, "pitch": 67, "duration": 434, "velocity": 110}, {"time": 163683, "pitch": 52, "duration": 478, "velocity": 105}, {"time": 163693, "pitch": 57, "duration": 478, "velocity": 110}, {"time": 163703, "pitch": 62, "duration": 478, "velocity": 115}, {"time": 163713, "pitch": 64, "duration": 477, "velocity": 120}, {"time": 164161, "pitch": 52, "duration": 219, "velocity": 95}, {"time": 164171, "pitch": 57, "duration": 209, "velocity": 100}, {"time": 164181, "pitch": 62, "duration": 199, "velocity": 105}, {"time": 164190, "pitch": 64, "duration": 190, "velocity": 110}, {"time": 164399, "pitch": 64, "duration": 754, "velocity": 120}, {"time": 164409, "pitch": 61, "duration": 734, "velocity": 115}, {"time": 164419, "pitch": 57, "duration": 714, "velocity": 110}, {"time": 164429, "pitch": 52, "duration": 694, "velocity": 105}, {"time": 165123, "pitch": 52, "duration": 458, "velocity": 95}, {"time": 165133, "pitch": 57, "duration": 448, "velocity": 100}, {"time": 165143, "pitch": 61, "duration": 438, "velocity": 105}, {"time": 165153, "pitch": 64, "duration": 428, "velocity": 110}, {"time": 165601, "pitch": 50, "duration": 477, "velocity": 105}, {"time": 165611, "pitch": 57, "duration": 477, "velocity": 110}, {"time": 165620, "pitch": 62, "duration": 478, "velocity": 115}, {"time": 165630, "pitch": 66, "duration": 478, "velocity": 120}, {"time": 166078, "pitch": 50, "duration": 222, "velocity": 95}, {"time": 166088, "pitch": 57, "duration": 212, "velocity": 100}, {"time": 166098, "pitch": 62, "duration": 202, "velocity": 105}, {"time": 166108, "pitch": 66, "duration": 192, "velocity": 110}, {"time": 166321, "pitch": 67, "duration": 749, "velocity": 120}, {"time": 166331, "pitch": 62, "duration": 729, "velocity": 115}, {"time": 166341, "pitch": 59, "duration": 709, "velocity": 110}, {"time": 166351, "pitch": 50, "duration": 690, "velocity": 105}, {"time": 167041, "pitch": 50, "duration": 457, "velocity": 95}, {"time": 167050, "pitch": 59, "duration": 448, "velocity": 100}, {"time": 167060, "pitch": 62, "duration": 438, "velocity": 105}, {"time": 167070, "pitch": 67, "duration": 428, "velocity": 110}, {"time": 167518, "pitch": 52, "duration": 485, "velocity": 105}, {"time": 167528, "pitch": 57, "duration": 485, "velocity": 110}, {"time": 167538, "pitch": 61, "duration": 485, "velocity": 115}, {"time": 167548, "pitch": 64, "duration": 485, "velocity": 120}, {"time": 168003, "pitch": 52, "duration": 219, "velocity": 95}, {"time": 168013, "pitch": 57, "duration": 209, "velocity": 100}, {"time": 168023, "pitch": 61, "duration": 199, "velocity": 105}, {"time": 168033, "pitch": 64, "duration": 189, "velocity": 110}, {"time": 168242, "pitch": 64, "duration": 746, "velocity": 120}, {"time": 168252, "pitch": 61, "duration": 726, "velocity": 115}, {"time": 168262, "pitch": 58, "duration": 706, "velocity": 110}, {"time": 168272, "pitch": 52, "duration": 686, "velocity": 105}, {"time": 168958, "pitch": 52, "duration": 465, "velocity": 95}, {"time": 168968, "pitch": 58, "duration": 455, "velocity": 100}, {"time": 168978, "pitch": 61, "duration": 445, "velocity": 105}, {"time": 168988, "pitch": 64, "duration": 435, "velocity": 110}, {"time": 169443, "pitch": 50, "duration": 477, "velocity": 105}, {"time": 169453, "pitch": 59, "duration": 477, "velocity": 110}, {"time": 169463, "pitch": 62, "duration": 477, "velocity": 115}, {"time": 169473, "pitch": 66, "duration": 477, "velocity": 120}, {"time": 169920, "pitch": 50, "duration": 219, "velocity": 95}, {"time": 169930, "pitch": 59, "duration": 209, "velocity": 100}, {"time": 169940, "pitch": 62, "duration": 199, "velocity": 105}, {"time": 169950, "pitch": 66, "duration": 189, "velocity": 110}, {"time": 170159, "pitch": 67, "duration": 754, "velocity": 120}, {"time": 170169, "pitch": 62, "duration": 734, "velocity": 115}, {"time": 170179, "pitch": 59, "duration": 714, "velocity": 110}, {"time": 170189, "pitch": 50, "duration": 694, "velocity": 105}, {"time": 170883, "pitch": 50, "duration": 458, "velocity": 95}, {"time": 170893, "pitch": 59, "duration": 448, "velocity": 100}, {"time": 170903, "pitch": 62, "duration": 438, "velocity": 105}, {"time": 170913, "pitch": 67, "duration": 428, "velocity": 110}, {"time": 171360, "pitch": 50, "duration": 478, "velocity": 105}, {"time": 171370, "pitch": 57, "duration": 478, "velocity": 110}, {"time": 171380, "pitch": 62, "duration": 478, "velocity": 115}, {"time": 171390, "pitch": 64, "duration": 478, "velocity": 120}, {"time": 171838, "pitch": 50, "duration": 222, "velocity": 95}, {"time": 171848, "pitch": 57, "duration": 212, "velocity": 100}, {"time": 171858, "pitch": 62, "duration": 202, "velocity": 105}, {"time": 171868, "pitch": 64, "duration": 192, "velocity": 110}, {"time": 172080, "pitch": 64, "duration": 750, "velocity": 120}, {"time": 172091, "pitch": 62, "duration": 729, "velocity": 115}, {"time": 172101, "pitch": 57, "duration": 709, "velocity": 110}, {"time": 172111, "pitch": 52, "duration": 689, "velocity": 105}, {"time": 172800, "pitch": 52, "duration": 458, "velocity": 95}, {"time": 172810, "pitch": 57, "duration": 448, "velocity": 100}, {"time": 172820, "pitch": 62, "duration": 438, "velocity": 105}, {"time": 172830, "pitch": 64, "duration": 428, "velocity": 110}, {"time": 173278, "pitch": 50, "duration": 485, "velocity": 105}, {"time": 173288, "pitch": 57, "duration": 485, "velocity": 110}, {"time": 173298, "pitch": 62, "duration": 485, "velocity": 115}, {"time": 173308, "pitch": 66, "duration": 485, "velocity": 120}, {"time": 173763, "pitch": 50, "duration": 219, "velocity": 95}, {"time": 173773, "pitch": 57, "duration": 209, "velocity": 100}, {"time": 173783, "pitch": 62, "duration": 199, "velocity": 105}, {"time": 173793, "pitch": 66, "duration": 189, "velocity": 110}, {"time": 174002, "pitch": 67, "duration": 746, "velocity": 120}, {"time": 174012, "pitch": 62, "duration": 726, "velocity": 115}, {"time": 174021, "pitch": 59, "duration": 707, "velocity": 110}, {"time": 174031, "pitch": 50, "duration": 687, "velocity": 105}, {"time": 174718, "pitch": 50, "duration": 465, "velocity": 95}, {"time": 174728, "pitch": 59, "duration": 455, "velocity": 100}, {"time": 174738, "pitch": 62, "duration": 445, "velocity": 105}, {"time": 174748, "pitch": 67, "duration": 435, "velocity": 110}, {"time": 175203, "pitch": 52, "duration": 477, "velocity": 105}, {"time": 175213, "pitch": 55, "duration": 477, "velocity": 110}, {"time": 175223, "pitch": 59, "duration": 477, "velocity": 115}, {"time": 175233, "pitch": 64, "duration": 477, "velocity": 120}, {"time": 175680, "pitch": 52, "duration": 219, "velocity": 95}, {"time": 175690, "pitch": 55, "duration": 209, "velocity": 100}, {"time": 175700, "pitch": 59, "duration": 199, "velocity": 105}, {"time": 175710, "pitch": 64, "duration": 189, "velocity": 110}, {"time": 175919, "pitch": 64, "duration": 754, "velocity": 120}, {"time": 175929, "pitch": 61, "duration": 734, "velocity": 115}, {"time": 175939, "pitch": 57, "duration": 714, "velocity": 110}, {"time": 175949, "pitch": 52, "duration": 694, "velocity": 105}, {"time": 176643, "pitch": 52, "duration": 457, "velocity": 95}, {"time": 176653, "pitch": 57, "duration": 447, "velocity": 100}, {"time": 176663, "pitch": 61, "duration": 437, "velocity": 105}, {"time": 176673, "pitch": 64, "duration": 427, "velocity": 110}, {"time": 177120, "pitch": 50, "duration": 478, "velocity": 105}, {"time": 177130, "pitch": 57, "duration": 478, "velocity": 110}, {"time": 177140, "pitch": 62, "duration": 478, "velocity": 115}, {"time": 177150, "pitch": 66, "duration": 478, "velocity": 120}, {"time": 177598, "pitch": 50, "duration": 222, "velocity": 95}, {"time": 177608, "pitch": 57, "duration": 212, "velocity": 100}, {"time": 177618, "pitch": 62, "duration": 202, "velocity": 105}, {"time": 177628, "pitch": 66, "duration": 192, "velocity": 110}, {"time": 177840, "pitch": 67, "duration": 750, "velocity": 120}, {"time": 177850, "pitch": 62, "duration": 730, "velocity": 115}, {"time": 177860, "pitch": 59, "duration": 710, "velocity": 110}, {"time": 177871, "pitch": 50, "duration": 689, "velocity": 105}, {"time": 178560, "pitch": 50, "duration": 465, "velocity": 95}, {"time": 178570, "pitch": 59, "duration": 455, "velocity": 100}, {"time": 178580, "pitch": 62, "duration": 445, "velocity": 105}, {"time": 178590, "pitch": 67, "duration": 435, "velocity": 110}, {"time": 179045, "pitch": 52, "duration": 471, "velocity": 105}, {"time": 179055, "pitch": 57, "duration": 471, "velocity": 110}, {"time": 179065, "pitch": 62, "duration": 471, "velocity": 115}, {"time": 179074, "pitch": 64, "duration": 471, "velocity": 120}, {"time": 179516, "pitch": 52, "duration": 219, "velocity": 95}, {"time": 179526, "pitch": 57, "duration": 209, "velocity": 100}, {"time": 179536, "pitch": 62, "duration": 199, "velocity": 105}, {"time": 179545, "pitch": 64, "duration": 190, "velocity": 110}, {"time": 179754, "pitch": 64, "duration": 747, "velocity": 120}, {"time": 179764, "pitch": 61, "duration": 727, "velocity": 115}, {"time": 179774, "pitch": 57, "duration": 707, "velocity": 110}, {"time": 179784, "pitch": 52, "duration": 687, "velocity": 105}, {"time": 180471, "pitch": 52, "duration": 457, "velocity": 95}, {"time": 180481, "pitch": 57, "duration": 447, "velocity": 100}, {"time": 180491, "pitch": 61, "duration": 437, "velocity": 105}, {"time": 180501, "pitch": 64, "duration": 427, "velocity": 110}, {"time": 180949, "pitch": 50, "duration": 491, "velocity": 105}, {"time": 180959, "pitch": 57, "duration": 491, "velocity": 110}, {"time": 180968, "pitch": 62, "duration": 492, "velocity": 115}, {"time": 180978, "pitch": 66, "duration": 492, "velocity": 120}, {"time": 181440, "pitch": 50, "duration": 219, "velocity": 95}, {"time": 181450, "pitch": 57, "duration": 209, "velocity": 100}, {"time": 181460, "pitch": 62, "duration": 199, "velocity": 105}, {"time": 181470, "pitch": 66, "duration": 189, "velocity": 110}, {"time": 181679, "pitch": 67, "duration": 753, "velocity": 120}, {"time": 181689, "pitch": 62, "duration": 733, "velocity": 115}, {"time": 181699, "pitch": 59, "duration": 713, "velocity": 110}, {"time": 181709, "pitch": 50, "duration": 694, "velocity": 105}, {"time": 182403, "pitch": 50, "duration": 457, "velocity": 95}, {"time": 182412, "pitch": 59, "duration": 448, "velocity": 100}, {"time": 182422, "pitch": 62, "duration": 438, "velocity": 105}, {"time": 182432, "pitch": 67, "duration": 428, "velocity": 110}, {"time": 182880, "pitch": 52, "duration": 478, "velocity": 105}, {"time": 182890, "pitch": 57, "duration": 478, "velocity": 110}, {"time": 182900, "pitch": 61, "duration": 478, "velocity": 115}, {"time": 182910, "pitch": 64, "duration": 478, "velocity": 120}, {"time": 183358, "pitch": 52, "duration": 222, "velocity": 95}, {"time": 183368, "pitch": 57, "duration": 212, "velocity": 100}, {"time": 183378, "pitch": 61, "duration": 202, "velocity": 105}, {"time": 183388, "pitch": 64, "duration": 192, "velocity": 110}, {"time": 183600, "pitch": 64, "duration": 750, "velocity": 120}, {"time": 183610, "pitch": 61, "duration": 730, "velocity": 115}, {"time": 183620, "pitch": 58, "duration": 710, "velocity": 110}, {"time": 183630, "pitch": 52, "duration": 690, "velocity": 105}, {"time": 184320, "pitch": 52, "duration": 458, "velocity": 95}, {"time": 184330, "pitch": 58, "duration": 448, "velocity": 100}, {"time": 184340, "pitch": 61, "duration": 438, "velocity": 105}, {"time": 184350, "pitch": 64, "duration": 428, "velocity": 110}, {"time": 184798, "pitch": 50, "duration": 484, "velocity": 105}, {"time": 184808, "pitch": 59, "duration": 484, "velocity": 110}, {"time": 184818, "pitch": 62, "duration": 484, "velocity": 115}, {"time": 184828, "pitch": 66, "duration": 484, "velocity": 120}, {"time": 185282, "pitch": 50, "duration": 219, "velocity": 95}, {"time": 185292, "pitch": 59, "duration": 209, "velocity": 100}, {"time": 185302, "pitch": 62, "duration": 199, "velocity": 105}, {"time": 185312, "pitch": 66, "duration": 189, "velocity": 110}, {"time": 185521, "pitch": 67, "duration": 747, "velocity": 120}, {"time": 185531, "pitch": 62, "duration": 727, "velocity": 115}, {"time": 185541, "pitch": 59, "duration": 707, "velocity": 110}, {"time": 185551, "pitch": 50, "duration": 687, "velocity": 105}, {"time": 186238, "pitch": 50, "duration": 464, "velocity": 95}, {"time": 186248, "pitch": 59, "duration": 454, "velocity": 100}, {"time": 186258, "pitch": 62, "duration": 444, "velocity": 105}, {"time": 186268, "pitch": 67, "duration": 434, "velocity": 110}, {"time": 186722, "pitch": 52, "duration": 478, "velocity": 105}, {"time": 186732, "pitch": 57, "duration": 478, "velocity": 110}, {"time": 186742, "pitch": 62, "duration": 478, "velocity": 115}, {"time": 186752, "pitch": 64, "duration": 478, "velocity": 120}, {"time": 187200, "pitch": 52, "duration": 219, "velocity": 95}, {"time": 187210, "pitch": 57, "duration": 209, "velocity": 100}, {"time": 187220, "pitch": 62, "duration": 199, "velocity": 105}, {"time": 187230, "pitch": 64, "duration": 189, "velocity": 110}, {"time": 187439, "pitch": 64, "duration": 753, "velocity": 120}, {"time": 187449, "pitch": 61, "duration": 733, "velocity": 115}, {"time": 187459, "pitch": 57, "duration": 713, "velocity": 110}, {"time": 187469, "pitch": 52, "duration": 693, "velocity": 105}, {"time": 188162, "pitch": 52, "duration": 458, "velocity": 95}, {"time": 188172, "pitch": 57, "duration": 448, "velocity": 100}, {"time": 188182, "pitch": 61, "duration": 438, "velocity": 105}, {"time": 188192, "pitch": 64, "duration": 428, "velocity": 110}, {"time": 477, "pitch": 36, "duration": 3, "velocity": 106}, {"time": 477, "pitch": 49, "duration": 3, "velocity": 92}, {"time": 707, "pitch": 42, "duration": 10, "velocity": 92}, {"time": 946, "pitch": 38, "duration": 10, "velocity": 106}, {"time": 946, "pitch": 46, "duration": 10, "velocity": 106}, {"time": 1185, "pitch": 36, "duration": 10, "velocity": 106}, {"time": 1185, "pitch": 44, "duration": 10, "velocity": 8}, {"time": 1185, "pitch": 49, "duration": 10, "velocity": 78}, {"time": 1423, "pitch": 42, "duration": 11, "velocity": 106}, {"time": 1662, "pitch": 36, "duration": 10, "velocity": 106}, {"time": 1662, "pitch": 42, "duration": 10, "velocity": 92}, {"time": 1901, "pitch": 38, "duration": 10, "velocity": 106}, {"time": 1901, "pitch": 44, "duration": 10, "velocity": 106}, {"time": 1901, "pitch": 54, "duration": 10, "velocity": 120}, {"time": 2140, "pitch": 42, "duration": 10, "velocity": 92}, {"time": 2379, "pitch": 36, "duration": 10, "velocity": 106}, {"time": 2379, "pitch": 49, "duration": 10, "velocity": 78}, {"time": 2621, "pitch": 42, "duration": 10, "velocity": 92}, {"time": 2863, "pitch": 38, "duration": 11, "velocity": 106}, {"time": 2863, "pitch": 46, "duration": 11, "velocity": 106}, {"time": 3106, "pitch": 36, "duration": 10, "velocity": 106}, {"time": 3106, "pitch": 44, "duration": 10, "velocity": 8}, {"time": 3106, "pitch": 49, "duration": 10, "velocity": 78}, {"time": 3348, "pitch": 42, "duration": 10, "velocity": 106}, {"time": 3587, "pitch": 36, "duration": 10, "velocity": 106}, {"time": 3587, "pitch": 42, "duration": 10, "velocity": 92}, {"time": 3826, "pitch": 38, "duration": 10, "velocity": 106}, {"time": 3826, "pitch": 44, "duration": 10, "velocity": 106}, {"time": 3826, "pitch": 54, "duration": 10, "velocity": 120}, {"time": 4072, "pitch": 42, "duration": 10, "velocity": 92}, {"time": 4317, "pitch": 36, "duration": 10, "velocity": 106}, {"time": 4317, "pitch": 49, "duration": 10, "velocity": 78}, {"time": 4560, "pitch": 42, "duration": 10, "velocity": 92}, {"time": 4802, "pitch": 38, "duration": 10, "velocity": 106}, {"time": 4802, "pitch": 46, "duration": 10, "velocity": 106}, {"time": 5041, "pitch": 36, "duration": 10, "velocity": 106}, {"time": 5041, "pitch": 44, "duration": 10, "velocity": 8}, {"time": 5041, "pitch": 49, "duration": 10, "velocity": 78}, {"time": 5280, "pitch": 42, "duration": 10, "velocity": 106}, {"time": 5519, "pitch": 36, "duration": 10, "velocity": 106}, {"time": 5519, "pitch": 42, "duration": 10, "velocity": 92}, {"time": 5757, "pitch": 38, "duration": 10, "velocity": 106}, {"time": 5757, "pitch": 44, "duration": 10, "velocity": 106}, {"time": 5757, "pitch": 54, "duration": 10, "velocity": 120}, {"time": 6000, "pitch": 42, "duration": 10, "velocity": 92}, {"time": 6242, "pitch": 36, "duration": 10, "velocity": 106}, {"time": 6242, "pitch": 49, "duration": 10, "velocity": 78}, {"time": 6474, "pitch": 42, "duration": 10, "velocity": 92}, {"time": 6706, "pitch": 38, "duration": 10, "velocity": 106}, {"time": 6706, "pitch": 46, "duration": 10, "velocity": 106}, {"time": 6945, "pitch": 36, "duration": 9, "velocity": 106}, {"time": 6945, "pitch": 44, "duration": 9, "velocity": 8}, {"time": 6945, "pitch": 49, "duration": 9, "velocity": 78}, {"time": 7183, "pitch": 42, "duration": 10, "velocity": 92}, {"time": 7426, "pitch": 36, "duration": 10, "velocity": 106}, {"time": 7426, "pitch": 46, "duration": 10, "velocity": 106}, {"time": 7668, "pitch": 38, "duration": 10, "velocity": 106}, {"time": 7668, "pitch": 54, "duration": 10, "velocity": 120}, {"time": 7786, "pitch": 38, "duration": 9, "velocity": 92}, {"time": 7904, "pitch": 41, "duration": 9, "velocity": 106}, {"time": 8139, "pitch": 36, "duration": 10, "velocity": 106}, {"time": 8139, "pitch": 49, "duration": 10, "velocity": 92}, {"time": 8388, "pitch": 42, "duration": 9, "velocity": 92}, {"time": 8637, "pitch": 38, "duration": 10, "velocity": 106}, {"time": 8637, "pitch": 46, "duration": 10, "velocity": 106}, {"time": 8880, "pitch": 36, "duration": 10, "velocity": 106}, {"time": 8880, "pitch": 44, "duration": 10, "velocity": 8}, {"time": 8880, "pitch": 49, "duration": 10, "velocity": 78}, {"time": 9122, "pitch": 42, "duration": 10, "velocity": 106}, {"time": 9361, "pitch": 36, "duration": 10, "velocity": 106}, {"time": 9361, "pitch": 42, "duration": 10, "velocity": 92}, {"time": 9600, "pitch": 38, "duration": 10, "velocity": 106}, {"time": 9600, "pitch": 44, "duration": 10, "velocity": 106}, {"time": 9600, "pitch": 54, "duration": 10, "velocity": 120}, {"time": 9838, "pitch": 42, "duration": 10, "velocity": 92}, {"time": 10077, "pitch": 36, "duration": 10, "velocity": 106}, {"time": 10077, "pitch": 49, "duration": 10, "velocity": 78}, {"time": 10320, "pitch": 42, "duration": 10, "velocity": 92}, {"time": 10562, "pitch": 38, "duration": 10, "velocity": 106}, {"time": 10562, "pitch": 46, "duration": 10, "velocity": 106}, {"time": 10801, "pitch": 36, "duration": 10, "velocity": 106}, {"time": 10801, "pitch": 44, "duration": 10, "velocity": 8}, {"time": 10801, "pitch": 49, "duration": 10, "velocity": 78}, {"time": 11040, "pitch": 42, "duration": 10, "velocity": 106}, {"time": 11278, "pitch": 36, "duration": 10, "velocity": 106}, {"time": 11278, "pitch": 42, "duration": 10, "velocity": 92}, {"time": 11517, "pitch": 38, "duration": 10, "velocity": 106}, {"time": 11517, "pitch": 44, "duration": 10, "velocity": 106}, {"time": 11517, "pitch": 54, "duration": 10, "velocity": 120}, {"time": 11753, "pitch": 38, "duration": 10, "velocity": 106}, {"time": 11753, "pitch": 42, "duration": 10, "velocity": 92}, {"time": 11871, "pitch": 38, "duration": 9, "velocity": 92}, {"time": 11988, "pitch": 36, "duration": 10, "velocity": 106}, {"time": 11988, "pitch": 49, "duration": 10, "velocity": 78}, {"time": 12234, "pitch": 42, "duration": 10, "velocity": 92}, {"time": 12480, "pitch": 38, "duration": 10, "velocity": 106}, {"time": 12480, "pitch": 46, "duration": 10, "velocity": 106}, {"time": 12718, "pitch": 36, "duration": 10, "velocity": 106}, {"time": 12718, "pitch": 42, "duration": 10, "velocity": 92}, {"time": 12957, "pitch": 42, "duration": 10, "velocity": 106}, {"time": 13200, "pitch": 36, "duration": 10, "velocity": 106}, {"time": 13200, "pitch": 42, "duration": 10, "velocity": 92}, {"time": 13442, "pitch": 38, "duration": 10, "velocity": 106}, {"time": 13442, "pitch": 44, "duration": 10, "velocity": 106}, {"time": 13442, "pitch": 54, "duration": 10, "velocity": 120}, {"time": 13681, "pitch": 42, "duration": 10, "velocity": 92}, {"time": 13920, "pitch": 36, "duration": 10, "velocity": 106}, {"time": 13920, "pitch": 42, "duration": 10, "velocity": 106}, {"time": 14158, "pitch": 42, "duration": 10, "velocity": 92}, {"time": 14397, "pitch": 38, "duration": 10, "velocity": 106}, {"time": 14397, "pitch": 46, "duration": 10, "velocity": 106}, {"time": 14882, "pitch": 38, "duration": 10, "velocity": 106}, {"time": 15240, "pitch": 48, "duration": 10, "velocity": 64}, {"time": 15360, "pitch": 45, "duration": 9, "velocity": 78}, {"time": 15609, "pitch": 41, "duration": 10, "velocity": 78}, {"time": 15857, "pitch": 36, "duration": 10, "velocity": 106}, {"time": 15857, "pitch": 51, "duration": 10, "velocity": 106}, {"time": 16090, "pitch": 42, "duration": 10, "velocity": 78}, {"time": 16322, "pitch": 37, "duration": 10, "velocity": 78}, {"time": 16322, "pitch": 42, "duration": 10, "velocity": 92}, {"time": 16561, "pitch": 36, "duration": 10, "velocity": 106}, {"time": 16561, "pitch": 42, "duration": 10, "velocity": 78}, {"time": 16799, "pitch": 42, "duration": 10, "velocity": 92}, {"time": 17038, "pitch": 42, "duration": 10, "velocity": 78}, {"time": 17277, "pitch": 37, "duration": 10, "velocity": 78}, {"time": 17277, "pitch": 42, "duration": 10, "velocity": 92}, {"time": 17519, "pitch": 42, "duration": 11, "velocity": 78}, {"time": 17762, "pitch": 36, "duration": 10, "velocity": 106}, {"time": 17762, "pitch": 42, "duration": 10, "velocity": 92}, {"time": 18001, "pitch": 42, "duration": 10, "velocity": 78}, {"time": 18239, "pitch": 37, "duration": 10, "velocity": 78}, {"time": 18239, "pitch": 42, "duration": 10, "velocity": 92}, {"time": 18478, "pitch": 36, "duration": 10, "velocity": 106}, {"time": 18478, "pitch": 42, "duration": 10, "velocity": 78}, {"time": 18717, "pitch": 42, "duration": 10, "velocity": 92}, {"time": 18959, "pitch": 42, "duration": 11, "velocity": 78}, {"time": 19202, "pitch": 37, "duration": 10, "velocity": 78}, {"time": 19202, "pitch": 42, "duration": 10, "velocity": 92}, {"time": 19441, "pitch": 42, "duration": 10, "velocity": 78}, {"time": 19679, "pitch": 36, "duration": 10, "velocity": 106}, {"time": 19679, "pitch": 42, "duration": 10, "velocity": 92}, {"time": 19918, "pitch": 42, "duration": 10, "velocity": 78}, {"time": 20157, "pitch": 37, "duration": 10, "velocity": 78}, {"time": 20157, "pitch": 42, "duration": 10, "velocity": 92}, {"time": 20399, "pitch": 36, "duration": 11, "velocity": 106}, {"time": 20399, "pitch": 42, "duration": 11, "velocity": 78}, {"time": 20642, "pitch": 42, "duration": 10, "velocity": 92}, {"time": 20881, "pitch": 42, "duration": 10, "velocity": 78}, {"time": 21119, "pitch": 37, "duration": 10, "velocity": 78}, {"time": 21119, "pitch": 42, "duration": 10, "velocity": 92}, {"time": 21358, "pitch": 42, "duration": 10, "velocity": 78}, {"time": 21597, "pitch": 36, "duration": 10, "velocity": 106}, {"time": 21597, "pitch": 42, "duration": 10, "velocity": 92}, {"time": 21839, "pitch": 42, "duration": 10, "velocity": 78}, {"time": 22082, "pitch": 37, "duration": 10, "velocity": 78}, {"time": 22082, "pitch": 42, "duration": 10, "velocity": 92}, {"time": 22321, "pitch": 36, "duration": 10, "velocity": 106}, {"time": 22321, "pitch": 42, "duration": 10, "velocity": 78}, {"time": 22559, "pitch": 42, "duration": 10, "velocity": 92}, {"time": 22798, "pitch": 42, "duration": 10, "velocity": 78}, {"time": 23037, "pitch": 37, "duration": 10, "velocity": 78}, {"time": 23037, "pitch": 42, "duration": 10, "velocity": 92}, {"time": 23279, "pitch": 42, "duration": 10, "velocity": 78}, {"time": 23522, "pitch": 36, "duration": 10, "velocity": 106}, {"time": 23522, "pitch": 42, "duration": 10, "velocity": 92}, {"time": 23761, "pitch": 42, "duration": 9, "velocity": 78}, {"time": 23999, "pitch": 37, "duration": 10, "velocity": 78}, {"time": 23999, "pitch": 42, "duration": 10, "velocity": 92}, {"time": 24238, "pitch": 36, "duration": 10, "velocity": 106}, {"time": 24238, "pitch": 42, "duration": 10, "velocity": 78}, {"time": 24477, "pitch": 42, "duration": 10, "velocity": 92}, {"time": 24719, "pitch": 42, "duration": 10, "velocity": 78}, {"time": 24962, "pitch": 37, "duration": 10, "velocity": 78}, {"time": 24962, "pitch": 42, "duration": 10, "velocity": 92}, {"time": 25200, "pitch": 42, "duration": 10, "velocity": 78}, {"time": 25439, "pitch": 36, "duration": 10, "velocity": 106}, {"time": 25439, "pitch": 42, "duration": 10, "velocity": 92}, {"time": 25678, "pitch": 42, "duration": 10, "velocity": 78}, {"time": 25917, "pitch": 37, "duration": 10, "velocity": 78}, {"time": 25917, "pitch": 42, "duration": 10, "velocity": 92}, {"time": 26159, "pitch": 36, "duration": 10, "velocity": 106}, {"time": 26159, "pitch": 42, "duration": 10, "velocity": 78}, {"time": 26402, "pitch": 42, "duration": 10, "velocity": 92}, {"time": 26640, "pitch": 42, "duration": 10, "velocity": 78}, {"time": 26879, "pitch": 37, "duration": 10, "velocity": 78}, {"time": 26879, "pitch": 42, "duration": 10, "velocity": 92}, {"time": 27118, "pitch": 42, "duration": 10, "velocity": 78}, {"time": 27357, "pitch": 36, "duration": 10, "velocity": 106}, {"time": 27357, "pitch": 42, "duration": 10, "velocity": 92}, {"time": 27599, "pitch": 42, "duration": 10, "velocity": 78}, {"time": 27842, "pitch": 37, "duration": 10, "velocity": 78}, {"time": 27842, "pitch": 42, "duration": 10, "velocity": 92}, {"time": 28080, "pitch": 36, "duration": 10, "velocity": 106}, {"time": 28080, "pitch": 42, "duration": 10, "velocity": 78}, {"time": 28319, "pitch": 42, "duration": 10, "velocity": 92}, {"time": 28558, "pitch": 42, "duration": 10, "velocity": 78}, {"time": 28797, "pitch": 37, "duration": 10, "velocity": 78}, {"time": 28797, "pitch": 42, "duration": 10, "velocity": 92}, {"time": 29039, "pitch": 42, "duration": 10, "velocity": 78}, {"time": 29282, "pitch": 36, "duration": 10, "velocity": 106}, {"time": 29282, "pitch": 42, "duration": 10, "velocity": 92}, {"time": 29520, "pitch": 42, "duration": 10, "velocity": 78}, {"time": 29759, "pitch": 37, "duration": 10, "velocity": 78}, {"time": 29759, "pitch": 42, "duration": 10, "velocity": 92}, {"time": 29998, "pitch": 36, "duration": 10, "velocity": 106}, {"time": 29998, "pitch": 42, "duration": 10, "velocity": 78}, {"time": 30237, "pitch": 42, "duration": 10, "velocity": 92}, {"time": 30479, "pitch": 42, "duration": 10, "velocity": 78}, {"time": 30722, "pitch": 37, "duration": 9, "velocity": 78}, {"time": 30722, "pitch": 42, "duration": 9, "velocity": 92}, {"time": 30960, "pitch": 42, "duration": 10, "velocity": 78}, {"time": 31199, "pitch": 36, "duration": 10, "velocity": 106}, {"time": 31199, "pitch": 42, "duration": 10, "velocity": 92}, {"time": 31438, "pitch": 42, "duration": 10, "velocity": 78}, {"time": 31677, "pitch": 37, "duration": 10, "velocity": 78}, {"time": 31677, "pitch": 42, "duration": 10, "velocity": 92}, {"time": 31919, "pitch": 36, "duration": 10, "velocity": 106}, {"time": 31919, "pitch": 42, "duration": 10, "velocity": 78}, {"time": 32162, "pitch": 42, "duration": 9, "velocity": 92}, {"time": 32400, "pitch": 42, "duration": 10, "velocity": 78}, {"time": 32639, "pitch": 37, "duration": 10, "velocity": 78}, {"time": 32639, "pitch": 42, "duration": 10, "velocity": 92}, {"time": 32878, "pitch": 42, "duration": 10, "velocity": 78}, {"time": 33117, "pitch": 36, "duration": 10, "velocity": 106}, {"time": 33117, "pitch": 42, "duration": 10, "velocity": 92}, {"time": 33359, "pitch": 42, "duration": 10, "velocity": 78}, {"time": 33601, "pitch": 37, "duration": 10, "velocity": 78}, {"time": 33601, "pitch": 42, "duration": 10, "velocity": 92}, {"time": 33840, "pitch": 36, "duration": 10, "velocity": 106}, {"time": 33840, "pitch": 42, "duration": 10, "velocity": 78}, {"time": 34079, "pitch": 42, "duration": 10, "velocity": 92}, {"time": 34318, "pitch": 42, "duration": 10, "velocity": 78}, {"time": 34557, "pitch": 37, "duration": 10, "velocity": 78}, {"time": 34557, "pitch": 42, "duration": 10, "velocity": 92}, {"time": 34799, "pitch": 42, "duration": 10, "velocity": 78}, {"time": 35041, "pitch": 36, "duration": 10, "velocity": 106}, {"time": 35041, "pitch": 49, "duration": 10, "velocity": 50}, {"time": 35280, "pitch": 42, "duration": 10, "velocity": 78}, {"time": 35519, "pitch": 37, "duration": 10, "velocity": 78}, {"time": 35519, "pitch": 42, "duration": 10, "velocity": 92}, {"time": 35758, "pitch": 36, "duration": 10, "velocity": 106}, {"time": 35758, "pitch": 42, "duration": 10, "velocity": 78}, {"time": 35997, "pitch": 42, "duration": 10, "velocity": 92}, {"time": 36239, "pitch": 42, "duration": 10, "velocity": 78}, {"time": 36481, "pitch": 37, "duration": 10, "velocity": 78}, {"time": 36481, "pitch": 42, "duration": 10, "velocity": 92}, {"time": 36720, "pitch": 42, "duration": 10, "velocity": 78}, {"time": 36959, "pitch": 36, "duration": 10, "velocity": 106}, {"time": 36959, "pitch": 42, "duration": 10, "velocity": 92}, {"time": 37198, "pitch": 42, "duration": 10, "velocity": 78}, {"time": 37437, "pitch": 37, "duration": 10, "velocity": 78}, {"time": 37437, "pitch": 42, "duration": 10, "velocity": 92}, {"time": 37679, "pitch": 36, "duration": 10, "velocity": 106}, {"time": 37679, "pitch": 42, "duration": 10, "velocity": 78}, {"time": 37921, "pitch": 42, "duration": 10, "velocity": 92}, {"time": 38160, "pitch": 42, "duration": 10, "velocity": 78}, {"time": 38399, "pitch": 37, "duration": 10, "velocity": 78}, {"time": 38399, "pitch": 42, "duration": 10, "velocity": 92}, {"time": 38638, "pitch": 42, "duration": 10, "velocity": 78}, {"time": 38877, "pitch": 36, "duration": 10, "velocity": 106}, {"time": 38877, "pitch": 42, "duration": 10, "velocity": 92}, {"time": 39119, "pitch": 42, "duration": 10, "velocity": 78}, {"time": 39361, "pitch": 37, "duration": 10, "velocity": 78}, {"time": 39361, "pitch": 42, "duration": 10, "velocity": 92}, {"time": 39600, "pitch": 36, "duration": 10, "velocity": 106}, {"time": 39600, "pitch": 42, "duration": 10, "velocity": 78}, {"time": 39839, "pitch": 42, "duration": 10, "velocity": 92}, {"time": 40078, "pitch": 42, "duration": 10, "velocity": 78}, {"time": 40317, "pitch": 37, "duration": 10, "velocity": 78}, {"time": 40317, "pitch": 42, "duration": 10, "velocity": 92}, {"time": 40559, "pitch": 42, "duration": 10, "velocity": 78}, {"time": 40801, "pitch": 36, "duration": 10, "velocity": 106}, {"time": 40801, "pitch": 42, "duration": 10, "velocity": 92}, {"time": 41040, "pitch": 42, "duration": 10, "velocity": 78}, {"time": 41279, "pitch": 37, "duration": 10, "velocity": 78}, {"time": 41279, "pitch": 42, "duration": 10, "velocity": 92}, {"time": 41518, "pitch": 36, "duration": 10, "velocity": 106}, {"time": 41518, "pitch": 42, "duration": 10, "velocity": 78}, {"time": 41756, "pitch": 42, "duration": 11, "velocity": 92}, {"time": 41999, "pitch": 42, "duration": 10, "velocity": 78}, {"time": 42241, "pitch": 37, "duration": 10, "velocity": 78}, {"time": 42241, "pitch": 42, "duration": 10, "velocity": 92}, {"time": 42480, "pitch": 42, "duration": 10, "velocity": 78}, {"time": 42719, "pitch": 36, "duration": 10, "velocity": 106}, {"time": 42719, "pitch": 42, "duration": 10, "velocity": 92}, {"time": 42958, "pitch": 42, "duration": 10, "velocity": 78}, {"time": 43196, "pitch": 37, "duration": 11, "velocity": 78}, {"time": 43196, "pitch": 42, "duration": 11, "velocity": 92}, {"time": 43439, "pitch": 36, "duration": 10, "velocity": 106}, {"time": 43439, "pitch": 42, "duration": 10, "velocity": 78}, {"time": 43681, "pitch": 42, "duration": 10, "velocity": 92}, {"time": 43920, "pitch": 42, "duration": 10, "velocity": 78}, {"time": 44159, "pitch": 37, "duration": 10, "velocity": 78}, {"time": 44159, "pitch": 42, "duration": 10, "velocity": 92}, {"time": 44401, "pitch": 42, "duration": 10, "velocity": 78}, {"time": 44644, "pitch": 36, "duration": 10, "velocity": 106}, {"time": 44644, "pitch": 42, "duration": 10, "velocity": 92}, {"time": 44882, "pitch": 42, "duration": 10, "velocity": 78}, {"time": 45121, "pitch": 37, "duration": 10, "velocity": 78}, {"time": 45121, "pitch": 42, "duration": 10, "velocity": 92}, {"time": 45360, "pitch": 36, "duration": 10, "velocity": 106}, {"time": 45360, "pitch": 42, "duration": 10, "velocity": 78}, {"time": 45599, "pitch": 42, "duration": 10, "velocity": 92}, {"time": 45841, "pitch": 42, "duration": 10, "velocity": 78}, {"time": 46084, "pitch": 37, "duration": 9, "velocity": 78}, {"time": 46084, "pitch": 42, "duration": 9, "velocity": 92}, {"time": 46322, "pitch": 42, "duration": 10, "velocity": 78}, {"time": 46561, "pitch": 36, "duration": 10, "velocity": 106}, {"time": 46561, "pitch": 42, "duration": 10, "velocity": 92}, {"time": 46800, "pitch": 42, "duration": 10, "velocity": 78}, {"time": 47039, "pitch": 37, "duration": 10, "velocity": 78}, {"time": 47039, "pitch": 42, "duration": 10, "velocity": 92}, {"time": 47281, "pitch": 36, "duration": 10, "velocity": 106}, {"time": 47281, "pitch": 42, "duration": 10, "velocity": 78}, {"time": 47524, "pitch": 42, "duration": 9, "velocity": 92}, {"time": 47762, "pitch": 42, "duration": 10, "velocity": 78}, {"time": 48001, "pitch": 37, "duration": 10, "velocity": 78}, {"time": 48001, "pitch": 42, "duration": 10, "velocity": 92}, {"time": 48240, "pitch": 42, "duration": 10, "velocity": 78}, {"time": 48479, "pitch": 36, "duration": 10, "velocity": 106}, {"time": 48479, "pitch": 42, "duration": 10, "velocity": 92}, {"time": 48721, "pitch": 42, "duration": 10, "velocity": 78}, {"time": 48963, "pitch": 37, "duration": 10, "velocity": 78}, {"time": 48963, "pitch": 42, "duration": 10, "velocity": 92}, {"time": 49202, "pitch": 36, "duration": 10, "velocity": 106}, {"time": 49202, "pitch": 42, "duration": 10, "velocity": 78}, {"time": 49441, "pitch": 42, "duration": 10, "velocity": 92}, {"time": 49680, "pitch": 42, "duration": 10, "velocity": 78}, {"time": 49919, "pitch": 38, "duration": 10, "velocity": 106}, {"time": 49919, "pitch": 42, "duration": 10, "velocity": 92}, {"time": 50161, "pitch": 36, "duration": 10, "velocity": 92}, {"time": 50161, "pitch": 42, "duration": 10, "velocity": 78}, {"time": 50403, "pitch": 36, "duration": 10, "velocity": 106}, {"time": 50403, "pitch": 49, "duration": 10, "velocity": 78}, {"time": 50642, "pitch": 42, "duration": 10, "velocity": 78}, {"time": 50881, "pitch": 38, "duration": 10, "velocity": 106}, {"time": 50881, "pitch": 42, "duration": 10, "velocity": 92}, {"time": 51120, "pitch": 36, "duration": 10, "velocity": 106}, {"time": 51120, "pitch": 42, "duration": 10, "velocity": 78}, {"time": 51359, "pitch": 42, "duration": 10, "velocity": 92}, {"time": 51601, "pitch": 42, "duration": 10, "velocity": 78}, {"time": 51843, "pitch": 38, "duration": 10, "velocity": 106}, {"time": 51843, "pitch": 42, "duration": 10, "velocity": 92}, {"time": 52082, "pitch": 42, "duration": 10, "velocity": 78}, {"time": 52321, "pitch": 36, "duration": 10, "velocity": 106}, {"time": 52321, "pitch": 42, "duration": 10, "velocity": 92}, {"time": 52560, "pitch": 42, "duration": 10, "velocity": 78}, {"time": 52799, "pitch": 38, "duration": 10, "velocity": 106}, {"time": 52799, "pitch": 42, "duration": 10, "velocity": 92}, {"time": 53041, "pitch": 36, "duration": 10, "velocity": 106}, {"time": 53041, "pitch": 42, "duration": 10, "velocity": 78}, {"time": 53283, "pitch": 42, "duration": 10, "velocity": 92}, {"time": 53522, "pitch": 42, "duration": 10, "velocity": 78}, {"time": 53761, "pitch": 38, "duration": 10, "velocity": 106}, {"time": 53761, "pitch": 42, "duration": 10, "velocity": 92}, {"time": 54000, "pitch": 42, "duration": 10, "velocity": 78}, {"time": 54239, "pitch": 36, "duration": 10, "velocity": 106}, {"time": 54239, "pitch": 49, "duration": 10, "velocity": 78}, {"time": 54481, "pitch": 42, "duration": 10, "velocity": 78}, {"time": 54723, "pitch": 38, "duration": 10, "velocity": 106}, {"time": 54723, "pitch": 42, "duration": 10, "velocity": 92}, {"time": 54962, "pitch": 42, "duration": 10, "velocity": 78}, {"time": 55201, "pitch": 36, "duration": 10, "velocity": 106}, {"time": 55201, "pitch": 49, "duration": 10, "velocity": 78}, {"time": 55440, "pitch": 42, "duration": 10, "velocity": 78}, {"time": 55679, "pitch": 38, "duration": 10, "velocity": 106}, {"time": 55679, "pitch": 42, "duration": 10, "velocity": 92}, {"time": 55921, "pitch": 42, "duration": 10, "velocity": 78}, {"time": 56163, "pitch": 36, "duration": 10, "velocity": 106}, {"time": 56163, "pitch": 49, "duration": 10, "velocity": 78}, {"time": 56402, "pitch": 42, "duration": 10, "velocity": 78}, {"time": 56641, "pitch": 38, "duration": 10, "velocity": 106}, {"time": 56641, "pitch": 42, "duration": 10, "velocity": 92}, {"time": 56880, "pitch": 36, "duration": 10, "velocity": 106}, {"time": 56880, "pitch": 42, "duration": 10, "velocity": 78}, {"time": 57118, "pitch": 36, "duration": 11, "velocity": 106}, {"time": 57118, "pitch": 42, "duration": 11, "velocity": 92}, {"time": 57361, "pitch": 36, "duration": 10, "velocity": 106}, {"time": 57361, "pitch": 46, "duration": 10, "velocity": 92}, {"time": 57603, "pitch": 38, "duration": 10, "velocity": 106}, {"time": 57603, "pitch": 46, "duration": 10, "velocity": 106}, {"time": 57842, "pitch": 38, "duration": 10, "velocity": 106}, {"time": 57961, "pitch": 38, "duration": 10, "velocity": 92}, {"time": 58081, "pitch": 36, "duration": 10, "velocity": 106}, {"time": 58081, "pitch": 49, "duration": 10, "velocity": 92}, {"time": 58320, "pitch": 46, "duration": 10, "velocity": 78}, {"time": 58558, "pitch": 38, "duration": 11, "velocity": 106}, {"time": 58558, "pitch": 46, "duration": 11, "velocity": 92}, {"time": 58801, "pitch": 36, "duration": 10, "velocity": 106}, {"time": 58801, "pitch": 46, "duration": 10, "velocity": 78}, {"time": 59043, "pitch": 46, "duration": 10, "velocity": 92}, {"time": 59282, "pitch": 46, "duration": 10, "velocity": 78}, {"time": 59521, "pitch": 38, "duration": 10, "velocity": 106}, {"time": 59521, "pitch": 46, "duration": 10, "velocity": 92}, {"time": 59760, "pitch": 46, "duration": 10, "velocity": 78}, {"time": 59998, "pitch": 36, "duration": 11, "velocity": 106}, {"time": 59998, "pitch": 46, "duration": 11, "velocity": 92}, {"time": 60241, "pitch": 38, "duration": 10, "velocity": 64}, {"time": 60241, "pitch": 41, "duration": 10, "velocity": 64}, {"time": 60483, "pitch": 36, "duration": 10, "velocity": 106}, {"time": 60483, "pitch": 38, "duration": 10, "velocity": 78}, {"time": 60483, "pitch": 41, "duration": 10, "velocity": 78}, {"time": 60722, "pitch": 38, "duration": 10, "velocity": 92}, {"time": 60722, "pitch": 41, "duration": 10, "velocity": 92}, {"time": 60961, "pitch": 36, "duration": 10, "velocity": 106}, {"time": 60961, "pitch": 38, "duration": 10, "velocity": 106}, {"time": 60961, "pitch": 41, "duration": 10, "velocity": 106}, {"time": 61200, "pitch": 38, "duration": 10, "velocity": 92}, {"time": 61200, "pitch": 41, "duration": 10, "velocity": 92}, {"time": 61438, "pitch": 36, "duration": 10, "velocity": 106}, {"time": 61438, "pitch": 38, "duration": 10, "velocity": 120}, {"time": 61560, "pitch": 38, "duration": 10, "velocity": 106}, {"time": 61681, "pitch": 38, "duration": 10, "velocity": 120}, {"time": 61802, "pitch": 38, "duration": 10, "velocity": 106}, {"time": 61923, "pitch": 36, "duration": 10, "velocity": 106}, {"time": 61923, "pitch": 49, "duration": 10, "velocity": 92}, {"time": 62162, "pitch": 42, "duration": 10, "velocity": 92}, {"time": 62401, "pitch": 38, "duration": 10, "velocity": 106}, {"time": 62401, "pitch": 46, "duration": 10, "velocity": 106}, {"time": 62640, "pitch": 36, "duration": 10, "velocity": 106}, {"time": 62640, "pitch": 44, "duration": 10, "velocity": 8}, {"time": 62640, "pitch": 49, "duration": 10, "velocity": 78}, {"time": 62878, "pitch": 42, "duration": 10, "velocity": 106}, {"time": 63121, "pitch": 36, "duration": 10, "velocity": 106}, {"time": 63121, "pitch": 42, "duration": 10, "velocity": 92}, {"time": 63363, "pitch": 38, "duration": 10, "velocity": 106}, {"time": 63363, "pitch": 44, "duration": 10, "velocity": 106}, {"time": 63363, "pitch": 54, "duration": 10, "velocity": 120}, {"time": 63602, "pitch": 42, "duration": 10, "velocity": 92}, {"time": 63841, "pitch": 36, "duration": 10, "velocity": 106}, {"time": 63841, "pitch": 49, "duration": 10, "velocity": 78}, {"time": 64080, "pitch": 42, "duration": 9, "velocity": 92}, {"time": 64318, "pitch": 38, "duration": 10, "velocity": 106}, {"time": 64318, "pitch": 46, "duration": 10, "velocity": 106}, {"time": 64561, "pitch": 36, "duration": 10, "velocity": 106}, {"time": 64561, "pitch": 44, "duration": 10, "velocity": 8}, {"time": 64561, "pitch": 49, "duration": 10, "velocity": 78}, {"time": 64803, "pitch": 42, "duration": 10, "velocity": 106}, {"time": 65042, "pitch": 36, "duration": 10, "velocity": 106}, {"time": 65042, "pitch": 42, "duration": 10, "velocity": 92}, {"time": 65281, "pitch": 38, "duration": 10, "velocity": 106}, {"time": 65281, "pitch": 44, "duration": 10, "velocity": 106}, {"time": 65281, "pitch": 54, "duration": 10, "velocity": 120}, {"time": 65519, "pitch": 42, "duration": 10, "velocity": 92}, {"time": 65758, "pitch": 36, "duration": 10, "velocity": 106}, {"time": 65758, "pitch": 49, "duration": 10, "velocity": 78}, {"time": 66001, "pitch": 42, "duration": 10, "velocity": 92}, {"time": 66243, "pitch": 38, "duration": 10, "velocity": 106}, {"time": 66243, "pitch": 46, "duration": 10, "velocity": 106}, {"time": 66482, "pitch": 36, "duration": 10, "velocity": 106}, {"time": 66482, "pitch": 44, "duration": 10, "velocity": 8}, {"time": 66482, "pitch": 49, "duration": 10, "velocity": 78}, {"time": 66721, "pitch": 42, "duration": 10, "velocity": 106}, {"time": 66959, "pitch": 36, "duration": 10, "velocity": 106}, {"time": 66959, "pitch": 42, "duration": 10, "velocity": 92}, {"time": 67198, "pitch": 38, "duration": 10, "velocity": 106}, {"time": 67198, "pitch": 44, "duration": 10, "velocity": 106}, {"time": 67198, "pitch": 54, "duration": 10, "velocity": 120}, {"time": 67441, "pitch": 42, "duration": 10, "velocity": 92}, {"time": 67683, "pitch": 36, "duration": 10, "velocity": 106}, {"time": 67683, "pitch": 49, "duration": 10, "velocity": 78}, {"time": 67922, "pitch": 42, "duration": 10, "velocity": 92}, {"time": 68161, "pitch": 38, "duration": 10, "velocity": 106}, {"time": 68161, "pitch": 46, "duration": 10, "velocity": 106}, {"time": 68399, "pitch": 36, "duration": 10, "velocity": 106}, {"time": 68399, "pitch": 44, "duration": 10, "velocity": 8}, {"time": 68399, "pitch": 49, "duration": 10, "velocity": 78}, {"time": 68638, "pitch": 38, "duration": 10, "velocity": 64}, {"time": 68759, "pitch": 38, "duration": 10, "velocity": 78}, {"time": 68881, "pitch": 38, "duration": 10, "velocity": 92}, {"time": 69002, "pitch": 38, "duration": 10, "velocity": 106}, {"time": 69123, "pitch": 48, "duration": 10, "velocity": 106}, {"time": 69123, "pitch": 54, "duration": 10, "velocity": 120}, {"time": 69242, "pitch": 48, "duration": 10, "velocity": 92}, {"time": 69362, "pitch": 45, "duration": 10, "velocity": 106}, {"time": 69601, "pitch": 36, "duration": 10, "velocity": 106}, {"time": 69601, "pitch": 49, "duration": 10, "velocity": 92}, {"time": 69839, "pitch": 42, "duration": 10, "velocity": 92}, {"time": 70078, "pitch": 38, "duration": 10, "velocity": 106}, {"time": 70078, "pitch": 46, "duration": 10, "velocity": 106}, {"time": 70321, "pitch": 36, "duration": 10, "velocity": 106}, {"time": 70321, "pitch": 44, "duration": 10, "velocity": 8}, {"time": 70321, "pitch": 49, "duration": 10, "velocity": 78}, {"time": 70563, "pitch": 42, "duration": 10, "velocity": 106}, {"time": 70802, "pitch": 36, "duration": 10, "velocity": 106}, {"time": 70802, "pitch": 42, "duration": 10, "velocity": 92}, {"time": 71041, "pitch": 38, "duration": 9, "velocity": 106}, {"time": 71041, "pitch": 44, "duration": 9, "velocity": 106}, {"time": 71041, "pitch": 54, "duration": 9, "velocity": 120}, {"time": 71279, "pitch": 42, "duration": 10, "velocity": 92}, {"time": 71518, "pitch": 36, "duration": 10, "velocity": 106}, {"time": 71518, "pitch": 49, "duration": 10, "velocity": 78}, {"time": 71761, "pitch": 42, "duration": 10, "velocity": 92}, {"time": 72003, "pitch": 38, "duration": 10, "velocity": 106}, {"time": 72003, "pitch": 46, "duration": 10, "velocity": 106}, {"time": 72242, "pitch": 36, "duration": 10, "velocity": 106}, {"time": 72242, "pitch": 44, "duration": 10, "velocity": 8}, {"time": 72242, "pitch": 49, "duration": 10, "velocity": 78}, {"time": 72481, "pitch": 42, "duration": 9, "velocity": 106}, {"time": 72719, "pitch": 36, "duration": 10, "velocity": 106}, {"time": 72719, "pitch": 42, "duration": 10, "velocity": 92}, {"time": 72958, "pitch": 38, "duration": 10, "velocity": 106}, {"time": 72958, "pitch": 44, "duration": 10, "velocity": 106}, {"time": 72958, "pitch": 54, "duration": 10, "velocity": 120}, {"time": 73200, "pitch": 42, "duration": 11, "velocity": 92}, {"time": 73443, "pitch": 36, "duration": 10, "velocity": 106}, {"time": 73443, "pitch": 49, "duration": 10, "velocity": 78}, {"time": 73682, "pitch": 42, "duration": 10, "velocity": 92}, {"time": 73920, "pitch": 38, "duration": 10, "velocity": 106}, {"time": 73920, "pitch": 46, "duration": 10, "velocity": 106}, {"time": 74159, "pitch": 36, "duration": 10, "velocity": 106}, {"time": 74159, "pitch": 44, "duration": 10, "velocity": 8}, {"time": 74159, "pitch": 49, "duration": 10, "velocity": 78}, {"time": 74398, "pitch": 42, "duration": 10, "velocity": 106}, {"time": 74640, "pitch": 36, "duration": 11, "velocity": 106}, {"time": 74640, "pitch": 42, "duration": 11, "velocity": 92}, {"time": 74883, "pitch": 38, "duration": 10, "velocity": 106}, {"time": 74883, "pitch": 44, "duration": 10, "velocity": 106}, {"time": 74883, "pitch": 54, "duration": 10, "velocity": 120}, {"time": 75122, "pitch": 42, "duration": 10, "velocity": 92}, {"time": 75360, "pitch": 36, "duration": 10, "velocity": 106}, {"time": 75360, "pitch": 49, "duration": 10, "velocity": 78}, {"time": 75599, "pitch": 42, "duration": 10, "velocity": 92}, {"time": 75838, "pitch": 38, "duration": 10, "velocity": 106}, {"time": 75838, "pitch": 46, "duration": 10, "velocity": 106}, {"time": 76080, "pitch": 36, "duration": 11, "velocity": 106}, {"time": 76080, "pitch": 44, "duration": 11, "velocity": 8}, {"time": 76323, "pitch": 38, "duration": 10, "velocity": 106}, {"time": 76562, "pitch": 38, "duration": 10, "velocity": 92}, {"time": 76800, "pitch": 38, "duration": 10, "velocity": 106}, {"time": 76800, "pitch": 54, "duration": 10, "velocity": 120}, {"time": 76920, "pitch": 38, "duration": 10, "velocity": 92}, {"time": 77039, "pitch": 38, "duration": 10, "velocity": 106}, {"time": 77278, "pitch": 36, "duration": 10, "velocity": 106}, {"time": 77278, "pitch": 49, "duration": 10, "velocity": 92}, {"time": 77520, "pitch": 51, "duration": 10, "velocity": 92}, {"time": 77763, "pitch": 38, "duration": 10, "velocity": 106}, {"time": 77763, "pitch": 51, "duration": 10, "velocity": 106}, {"time": 78002, "pitch": 36, "duration": 10, "velocity": 106}, {"time": 78002, "pitch": 51, "duration": 10, "velocity": 92}, {"time": 78240, "pitch": 51, "duration": 10, "velocity": 106}, {"time": 78479, "pitch": 36, "duration": 10, "velocity": 106}, {"time": 78479, "pitch": 51, "duration": 10, "velocity": 92}, {"time": 78718, "pitch": 38, "duration": 10, "velocity": 106}, {"time": 78718, "pitch": 51, "duration": 10, "velocity": 106}, {"time": 78718, "pitch": 54, "duration": 10, "velocity": 120}, {"time": 78960, "pitch": 51, "duration": 10, "velocity": 92}, {"time": 79203, "pitch": 36, "duration": 10, "velocity": 106}, {"time": 79203, "pitch": 51, "duration": 10, "velocity": 106}, {"time": 79442, "pitch": 51, "duration": 9, "velocity": 92}, {"time": 79680, "pitch": 38, "duration": 10, "velocity": 106}, {"time": 79680, "pitch": 51, "duration": 10, "velocity": 106}, {"time": 79919, "pitch": 36, "duration": 10, "velocity": 106}, {"time": 79919, "pitch": 51, "duration": 10, "velocity": 92}, {"time": 80158, "pitch": 51, "duration": 10, "velocity": 106}, {"time": 80400, "pitch": 36, "duration": 10, "velocity": 106}, {"time": 80400, "pitch": 51, "duration": 10, "velocity": 92}, {"time": 80522, "pitch": 36, "duration": 10, "velocity": 92}, {"time": 80643, "pitch": 38, "duration": 10, "velocity": 106}, {"time": 80643, "pitch": 51, "duration": 10, "velocity": 106}, {"time": 80643, "pitch": 54, "duration": 10, "velocity": 120}, {"time": 80881, "pitch": 51, "duration": 10, "velocity": 92}, {"time": 81120, "pitch": 36, "duration": 10, "velocity": 106}, {"time": 81120, "pitch": 51, "duration": 10, "velocity": 106}, {"time": 81359, "pitch": 51, "duration": 10, "velocity": 92}, {"time": 81598, "pitch": 38, "duration": 10, "velocity": 106}, {"time": 81598, "pitch": 51, "duration": 10, "velocity": 106}, {"time": 81840, "pitch": 36, "duration": 10, "velocity": 106}, {"time": 81840, "pitch": 51, "duration": 10, "velocity": 92}, {"time": 82083, "pitch": 51, "duration": 10, "velocity": 106}, {"time": 82321, "pitch": 36, "duration": 10, "velocity": 106}, {"time": 82321, "pitch": 51, "duration": 10, "velocity": 92}, {"time": 82560, "pitch": 38, "duration": 10, "velocity": 106}, {"time": 82560, "pitch": 51, "duration": 10, "velocity": 106}, {"time": 82560, "pitch": 54, "duration": 10, "velocity": 120}, {"time": 82799, "pitch": 51, "duration": 10, "velocity": 92}, {"time": 83038, "pitch": 36, "duration": 10, "velocity": 106}, {"time": 83038, "pitch": 51, "duration": 10, "velocity": 106}, {"time": 83280, "pitch": 51, "duration": 10, "velocity": 92}, {"time": 83523, "pitch": 38, "duration": 10, "velocity": 106}, {"time": 83523, "pitch": 51, "duration": 10, "velocity": 106}, {"time": 83761, "pitch": 36, "duration": 10, "velocity": 106}, {"time": 83761, "pitch": 51, "duration": 10, "velocity": 92}, {"time": 84000, "pitch": 36, "duration": 10, "velocity": 106}, {"time": 84000, "pitch": 46, "duration": 10, "velocity": 106}, {"time": 84239, "pitch": 38, "duration": 10, "velocity": 106}, {"time": 84358, "pitch": 38, "duration": 10, "velocity": 78}, {"time": 84478, "pitch": 45, "duration": 10, "velocity": 78}, {"time": 84599, "pitch": 45, "duration": 10, "velocity": 64}, {"time": 84720, "pitch": 41, "duration": 10, "velocity": 78}, {"time": 84841, "pitch": 41, "duration": 11, "velocity": 64}, {"time": 84963, "pitch": 36, "duration": 10, "velocity": 106}, {"time": 84963, "pitch": 51, "duration": 10, "velocity": 106}, {"time": 85201, "pitch": 42, "duration": 10, "velocity": 78}, {"time": 85440, "pitch": 37, "duration": 10, "velocity": 78}, {"time": 85440, "pitch": 42, "duration": 10, "velocity": 92}, {"time": 85679, "pitch": 36, "duration": 10, "velocity": 106}, {"time": 85679, "pitch": 42, "duration": 10, "velocity": 78}, {"time": 85918, "pitch": 42, "duration": 10, "velocity": 92}, {"time": 86160, "pitch": 42, "duration": 10, "velocity": 78}, {"time": 86403, "pitch": 37, "duration": 9, "velocity": 78}, {"time": 86403, "pitch": 42, "duration": 9, "velocity": 92}, {"time": 86641, "pitch": 42, "duration": 10, "velocity": 78}, {"time": 86880, "pitch": 36, "duration": 10, "velocity": 106}, {"time": 86880, "pitch": 42, "duration": 10, "velocity": 92}, {"time": 87119, "pitch": 42, "duration": 10, "velocity": 78}, {"time": 87358, "pitch": 37, "duration": 10, "velocity": 78}, {"time": 87358, "pitch": 42, "duration": 10, "velocity": 92}, {"time": 87600, "pitch": 36, "duration": 10, "velocity": 106}, {"time": 87600, "pitch": 42, "duration": 10, "velocity": 78}, {"time": 87843, "pitch": 42, "duration": 9, "velocity": 92}, {"time": 88081, "pitch": 42, "duration": 10, "velocity": 78}, {"time": 88320, "pitch": 37, "duration": 10, "velocity": 78}, {"time": 88320, "pitch": 42, "duration": 10, "velocity": 92}, {"time": 88559, "pitch": 42, "duration": 10, "velocity": 78}, {"time": 88798, "pitch": 36, "duration": 10, "velocity": 106}, {"time": 88798, "pitch": 42, "duration": 10, "velocity": 92}, {"time": 89040, "pitch": 42, "duration": 10, "velocity": 78}, {"time": 89282, "pitch": 37, "duration": 10, "velocity": 78}, {"time": 89282, "pitch": 42, "duration": 10, "velocity": 92}, {"time": 89521, "pitch": 36, "duration": 10, "velocity": 106}, {"time": 89521, "pitch": 42, "duration": 10, "velocity": 78}, {"time": 89760, "pitch": 42, "duration": 10, "velocity": 92}, {"time": 89999, "pitch": 42, "duration": 10, "velocity": 78}, {"time": 90238, "pitch": 37, "duration": 10, "velocity": 78}, {"time": 90238, "pitch": 42, "duration": 10, "velocity": 92}, {"time": 90480, "pitch": 42, "duration": 10, "velocity": 78}, {"time": 90722, "pitch": 36, "duration": 10, "velocity": 106}, {"time": 90722, "pitch": 42, "duration": 10, "velocity": 92}, {"time": 90961, "pitch": 42, "duration": 10, "velocity": 78}, {"time": 91200, "pitch": 37, "duration": 10, "velocity": 78}, {"time": 91200, "pitch": 42, "duration": 10, "velocity": 92}, {"time": 91439, "pitch": 36, "duration": 10, "velocity": 106}, {"time": 91439, "pitch": 42, "duration": 10, "velocity": 78}, {"time": 91678, "pitch": 42, "duration": 10, "velocity": 92}, {"time": 91920, "pitch": 42, "duration": 10, "velocity": 78}, {"time": 92162, "pitch": 37, "duration": 10, "velocity": 78}, {"time": 92162, "pitch": 42, "duration": 10, "velocity": 92}, {"time": 92401, "pitch": 42, "duration": 10, "velocity": 78}, {"time": 92640, "pitch": 36, "duration": 10, "velocity": 106}, {"time": 92640, "pitch": 42, "duration": 10, "velocity": 92}, {"time": 92879, "pitch": 42, "duration": 10, "velocity": 78}, {"time": 93118, "pitch": 37, "duration": 10, "velocity": 78}, {"time": 93118, "pitch": 42, "duration": 10, "velocity": 92}, {"time": 93360, "pitch": 36, "duration": 10, "velocity": 106}, {"time": 93360, "pitch": 42, "duration": 10, "velocity": 78}, {"time": 93602, "pitch": 42, "duration": 10, "velocity": 92}, {"time": 93841, "pitch": 42, "duration": 10, "velocity": 78}, {"time": 94080, "pitch": 37, "duration": 10, "velocity": 78}, {"time": 94080, "pitch": 42, "duration": 10, "velocity": 92}, {"time": 94319, "pitch": 42, "duration": 10, "velocity": 78}, {"time": 94558, "pitch": 36, "duration": 10, "velocity": 106}, {"time": 94558, "pitch": 42, "duration": 10, "velocity": 92}, {"time": 94800, "pitch": 42, "duration": 10, "velocity": 78}, {"time": 95042, "pitch": 37, "duration": 10, "velocity": 78}, {"time": 95042, "pitch": 42, "duration": 10, "velocity": 92}, {"time": 95281, "pitch": 36, "duration": 10, "velocity": 106}, {"time": 95281, "pitch": 42, "duration": 10, "velocity": 78}, {"time": 95520, "pitch": 42, "duration": 10, "velocity": 92}, {"time": 95759, "pitch": 42, "duration": 10, "velocity": 78}, {"time": 95998, "pitch": 37, "duration": 10, "velocity": 78}, {"time": 95998, "pitch": 42, "duration": 10, "velocity": 92}, {"time": 96240, "pitch": 42, "duration": 10, "velocity": 78}, {"time": 96482, "pitch": 36, "duration": 10, "velocity": 106}, {"time": 96482, "pitch": 42, "duration": 10, "velocity": 92}, {"time": 96721, "pitch": 42, "duration": 10, "velocity": 78}, {"time": 96960, "pitch": 37, "duration": 10, "velocity": 78}, {"time": 96960, "pitch": 42, "duration": 10, "velocity": 92}, {"time": 97199, "pitch": 36, "duration": 10, "velocity": 106}, {"time": 97199, "pitch": 42, "duration": 10, "velocity": 78}, {"time": 97437, "pitch": 42, "duration": 11, "velocity": 92}, {"time": 97680, "pitch": 42, "duration": 10, "velocity": 78}, {"time": 97922, "pitch": 37, "duration": 10, "velocity": 78}, {"time": 97922, "pitch": 42, "duration": 10, "velocity": 92}, {"time": 98161, "pitch": 42, "duration": 10, "velocity": 78}, {"time": 98400, "pitch": 36, "duration": 10, "velocity": 106}, {"time": 98400, "pitch": 42, "duration": 10, "velocity": 92}, {"time": 98639, "pitch": 42, "duration": 10, "velocity": 78}, {"time": 98877, "pitch": 37, "duration": 11, "velocity": 78}, {"time": 98877, "pitch": 42, "duration": 11, "velocity": 92}, {"time": 99120, "pitch": 36, "duration": 10, "velocity": 106}, {"time": 99120, "pitch": 42, "duration": 10, "velocity": 78}, {"time": 99362, "pitch": 42, "duration": 10, "velocity": 92}, {"time": 99601, "pitch": 42, "duration": 10, "velocity": 78}, {"time": 99720, "pitch": 45, "duration": 10, "velocity": 78}, {"time": 99840, "pitch": 48, "duration": 10, "velocity": 78}, {"time": 100079, "pitch": 41, "duration": 10, "velocity": 78}, {"time": 100317, "pitch": 36, "duration": 10, "velocity": 106}, {"time": 100317, "pitch": 49, "duration": 10, "velocity": 78}, {"time": 100560, "pitch": 42, "duration": 10, "velocity": 78}, {"time": 100802, "pitch": 38, "duration": 10, "velocity": 106}, {"time": 100802, "pitch": 42, "duration": 10, "velocity": 92}, {"time": 101041, "pitch": 36, "duration": 10, "velocity": 106}, {"time": 101041, "pitch": 42, "duration": 10, "velocity": 78}, {"time": 101280, "pitch": 42, "duration": 10, "velocity": 92}, {"time": 101519, "pitch": 42, "duration": 10, "velocity": 78}, {"time": 101757, "pitch": 38, "duration": 10, "velocity": 106}, {"time": 101757, "pitch": 42, "duration": 10, "velocity": 92}, {"time": 102000, "pitch": 42, "duration": 10, "velocity": 78}, {"time": 102242, "pitch": 36, "duration": 10, "velocity": 106}, {"time": 102242, "pitch": 42, "duration": 10, "velocity": 92}, {"time": 102481, "pitch": 42, "duration": 10, "velocity": 78}, {"time": 102720, "pitch": 38, "duration": 10, "velocity": 106}, {"time": 102720, "pitch": 42, "duration": 10, "velocity": 92}, {"time": 102959, "pitch": 36, "duration": 9, "velocity": 106}, {"time": 102959, "pitch": 42, "duration": 9, "velocity": 78}, {"time": 103197, "pitch": 42, "duration": 10, "velocity": 92}, {"time": 103440, "pitch": 42, "duration": 10, "velocity": 78}, {"time": 103682, "pitch": 38, "duration": 10, "velocity": 106}, {"time": 103682, "pitch": 42, "duration": 10, "velocity": 92}, {"time": 103921, "pitch": 42, "duration": 10, "velocity": 78}, {"time": 104160, "pitch": 36, "duration": 10, "velocity": 106}, {"time": 104160, "pitch": 49, "duration": 10, "velocity": 78}, {"time": 104399, "pitch": 42, "duration": 9, "velocity": 78}, {"time": 104637, "pitch": 38, "duration": 10, "velocity": 106}, {"time": 104637, "pitch": 42, "duration": 10, "velocity": 92}, {"time": 104880, "pitch": 42, "duration": 10, "velocity": 78}, {"time": 105122, "pitch": 36, "duration": 10, "velocity": 106}, {"time": 105122, "pitch": 49, "duration": 10, "velocity": 78}, {"time": 105361, "pitch": 42, "duration": 10, "velocity": 78}, {"time": 105600, "pitch": 38, "duration": 10, "velocity": 106}, {"time": 105600, "pitch": 42, "duration": 10, "velocity": 92}, {"time": 105838, "pitch": 42, "duration": 10, "velocity": 78}, {"time": 106077, "pitch": 36, "duration": 10, "velocity": 106}, {"time": 106077, "pitch": 49, "duration": 10, "velocity": 78}, {"time": 106320, "pitch": 42, "duration": 10, "velocity": 78}, {"time": 106562, "pitch": 38, "duration": 10, "velocity": 106}, {"time": 106562, "pitch": 42, "duration": 10, "velocity": 92}, {"time": 106801, "pitch": 36, "duration": 10, "velocity": 106}, {"time": 106801, "pitch": 42, "duration": 10, "velocity": 78}, {"time": 107040, "pitch": 36, "duration": 10, "velocity": 106}, {"time": 107040, "pitch": 42, "duration": 10, "velocity": 92}, {"time": 107278, "pitch": 36, "duration": 10, "velocity": 106}, {"time": 107278, "pitch": 46, "duration": 10, "velocity": 92}, {"time": 107517, "pitch": 38, "duration": 10, "velocity": 106}, {"time": 107517, "pitch": 46, "duration": 10, "velocity": 106}, {"time": 107760, "pitch": 38, "duration": 10, "velocity": 106}, {"time": 107881, "pitch": 38, "duration": 10, "velocity": 92}, {"time": 108002, "pitch": 36, "duration": 10, "velocity": 106}, {"time": 108002, "pitch": 49, "duration": 10, "velocity": 92}, {"time": 108241, "pitch": 46, "duration": 10, "velocity": 78}, {"time": 108480, "pitch": 38, "duration": 10, "velocity": 106}, {"time": 108480, "pitch": 46, "duration": 10, "velocity": 92}, {"time": 108718, "pitch": 36, "duration": 10, "velocity": 106}, {"time": 108718, "pitch": 46, "duration": 10, "velocity": 78}, {"time": 108957, "pitch": 46, "duration": 10, "velocity": 92}, {"time": 109200, "pitch": 36, "duration": 10, "velocity": 106}, {"time": 109200, "pitch": 46, "duration": 10, "velocity": 78}, {"time": 109442, "pitch": 38, "duration": 10, "velocity": 106}, {"time": 109442, "pitch": 46, "duration": 10, "velocity": 92}, {"time": 109681, "pitch": 46, "duration": 10, "velocity": 78}, {"time": 109920, "pitch": 38, "duration": 10, "velocity": 106}, {"time": 109920, "pitch": 46, "duration": 10, "velocity": 92}, {"time": 110158, "pitch": 36, "duration": 10, "velocity": 106}, {"time": 110158, "pitch": 46, "duration": 10, "velocity": 78}, {"time": 110397, "pitch": 38, "duration": 10, "velocity": 106}, {"time": 110397, "pitch": 49, "duration": 10, "velocity": 92}, {"time": 110640, "pitch": 38, "duration": 10, "velocity": 106}, {"time": 110640, "pitch": 41, "duration": 10, "velocity": 106}, {"time": 110882, "pitch": 36, "duration": 10, "velocity": 106}, {"time": 110882, "pitch": 38, "duration": 10, "velocity": 106}, {"time": 110882, "pitch": 41, "duration": 10, "velocity": 106}, {"time": 111121, "pitch": 45, "duration": 10, "velocity": 106}, {"time": 111240, "pitch": 45, "duration": 10, "velocity": 92}, {"time": 111360, "pitch": 36, "duration": 9, "velocity": 106}, {"time": 111360, "pitch": 48, "duration": 9, "velocity": 106}, {"time": 111479, "pitch": 48, "duration": 10, "velocity": 92}, {"time": 111598, "pitch": 41, "duration": 10, "velocity": 106}, {"time": 111718, "pitch": 41, "duration": 10, "velocity": 92}, {"time": 111837, "pitch": 36, "duration": 10, "velocity": 106}, {"time": 111837, "pitch": 49, "duration": 10, "velocity": 92}, {"time": 112080, "pitch": 42, "duration": 10, "velocity": 92}, {"time": 112322, "pitch": 38, "duration": 10, "velocity": 106}, {"time": 112322, "pitch": 46, "duration": 10, "velocity": 106}, {"time": 112561, "pitch": 36, "duration": 10, "velocity": 106}, {"time": 112561, "pitch": 44, "duration": 10, "velocity": 8}, {"time": 112561, "pitch": 49, "duration": 10, "velocity": 78}, {"time": 112799, "pitch": 42, "duration": 10, "velocity": 106}, {"time": 113038, "pitch": 36, "duration": 10, "velocity": 106}, {"time": 113038, "pitch": 42, "duration": 10, "velocity": 92}, {"time": 113277, "pitch": 38, "duration": 10, "velocity": 106}, {"time": 113277, "pitch": 44, "duration": 10, "velocity": 106}, {"time": 113277, "pitch": 54, "duration": 10, "velocity": 120}, {"time": 113519, "pitch": 42, "duration": 11, "velocity": 92}, {"time": 113762, "pitch": 36, "duration": 10, "velocity": 106}, {"time": 113762, "pitch": 49, "duration": 10, "velocity": 78}, {"time": 114001, "pitch": 42, "duration": 10, "velocity": 92}, {"time": 114239, "pitch": 38, "duration": 10, "velocity": 106}, {"time": 114239, "pitch": 46, "duration": 10, "velocity": 106}, {"time": 114478, "pitch": 36, "duration": 10, "velocity": 106}, {"time": 114478, "pitch": 44, "duration": 10, "velocity": 8}, {"time": 114478, "pitch": 49, "duration": 10, "velocity": 78}, {"time": 114717, "pitch": 42, "duration": 10, "velocity": 106}, {"time": 114959, "pitch": 36, "duration": 11, "velocity": 106}, {"time": 114959, "pitch": 42, "duration": 11, "velocity": 92}, {"time": 115202, "pitch": 38, "duration": 10, "velocity": 106}, {"time": 115202, "pitch": 44, "duration": 10, "velocity": 106}, {"time": 115202, "pitch": 54, "duration": 10, "velocity": 120}, {"time": 115441, "pitch": 42, "duration": 10, "velocity": 92}, {"time": 115679, "pitch": 36, "duration": 10, "velocity": 106}, {"time": 115679, "pitch": 49, "duration": 10, "velocity": 78}, {"time": 115918, "pitch": 42, "duration": 10, "velocity": 92}, {"time": 116157, "pitch": 38, "duration": 10, "velocity": 106}, {"time": 116157, "pitch": 46, "duration": 10, "velocity": 106}, {"time": 116399, "pitch": 36, "duration": 11, "velocity": 106}, {"time": 116399, "pitch": 44, "duration": 11, "velocity": 8}, {"time": 116399, "pitch": 49, "duration": 11, "velocity": 78}, {"time": 116642, "pitch": 42, "duration": 10, "velocity": 106}, {"time": 116881, "pitch": 36, "duration": 10, "velocity": 106}, {"time": 116881, "pitch": 42, "duration": 10, "velocity": 92}, {"time": 117119, "pitch": 38, "duration": 10, "velocity": 106}, {"time": 117119, "pitch": 44, "duration": 10, "velocity": 106}, {"time": 117119, "pitch": 54, "duration": 10, "velocity": 120}, {"time": 117358, "pitch": 42, "duration": 10, "velocity": 92}, {"time": 117597, "pitch": 36, "duration": 10, "velocity": 106}, {"time": 117597, "pitch": 49, "duration": 10, "velocity": 78}, {"time": 117839, "pitch": 36, "duration": 10, "velocity": 106}, {"time": 117839, "pitch": 42, "duration": 10, "velocity": 92}, {"time": 117961, "pitch": 36, "duration": 10, "velocity": 92}, {"time": 118082, "pitch": 38, "duration": 10, "velocity": 106}, {"time": 118082, "pitch": 46, "duration": 10, "velocity": 106}, {"time": 118321, "pitch": 36, "duration": 10, "velocity": 106}, {"time": 118321, "pitch": 44, "duration": 10, "velocity": 8}, {"time": 118321, "pitch": 49, "duration": 10, "velocity": 78}, {"time": 118559, "pitch": 38, "duration": 10, "velocity": 106}, {"time": 118559, "pitch": 42, "duration": 10, "velocity": 106}, {"time": 118798, "pitch": 45, "duration": 10, "velocity": 106}, {"time": 118918, "pitch": 45, "duration": 10, "velocity": 92}, {"time": 119037, "pitch": 36, "duration": 10, "velocity": 106}, {"time": 119037, "pitch": 48, "duration": 10, "velocity": 106}, {"time": 119037, "pitch": 54, "duration": 10, "velocity": 120}, {"time": 119158, "pitch": 48, "duration": 10, "velocity": 92}, {"time": 119279, "pitch": 41, "duration": 10, "velocity": 106}, {"time": 119522, "pitch": 36, "duration": 10, "velocity": 106}, {"time": 119522, "pitch": 49, "duration": 10, "velocity": 92}, {"time": 119761, "pitch": 42, "duration": 9, "velocity": 92}, {"time": 119999, "pitch": 38, "duration": 10, "velocity": 106}, {"time": 119999, "pitch": 46, "duration": 10, "velocity": 106}, {"time": 120238, "pitch": 36, "duration": 10, "velocity": 106}, {"time": 120238, "pitch": 44, "duration": 10, "velocity": 8}, {"time": 120238, "pitch": 49, "duration": 10, "velocity": 78}, {"time": 120477, "pitch": 42, "duration": 10, "velocity": 106}, {"time": 120719, "pitch": 36, "duration": 10, "velocity": 106}, {"time": 120719, "pitch": 42, "duration": 10, "velocity": 92}, {"time": 120962, "pitch": 38, "duration": 10, "velocity": 106}, {"time": 120962, "pitch": 44, "duration": 10, "velocity": 106}, {"time": 120962, "pitch": 54, "duration": 10, "velocity": 120}, {"time": 121200, "pitch": 42, "duration": 10, "velocity": 92}, {"time": 121439, "pitch": 36, "duration": 10, "velocity": 106}, {"time": 121439, "pitch": 49, "duration": 10, "velocity": 78}, {"time": 121678, "pitch": 42, "duration": 10, "velocity": 92}, {"time": 121917, "pitch": 38, "duration": 10, "velocity": 106}, {"time": 121917, "pitch": 46, "duration": 10, "velocity": 106}, {"time": 122159, "pitch": 36, "duration": 10, "velocity": 106}, {"time": 122159, "pitch": 44, "duration": 10, "velocity": 8}, {"time": 122159, "pitch": 49, "duration": 10, "velocity": 78}, {"time": 122402, "pitch": 42, "duration": 10, "velocity": 106}, {"time": 122640, "pitch": 36, "duration": 10, "velocity": 106}, {"time": 122640, "pitch": 42, "duration": 10, "velocity": 92}, {"time": 122879, "pitch": 38, "duration": 10, "velocity": 106}, {"time": 122879, "pitch": 44, "duration": 10, "velocity": 106}, {"time": 122879, "pitch": 54, "duration": 10, "velocity": 120}, {"time": 123118, "pitch": 42, "duration": 10, "velocity": 92}, {"time": 123357, "pitch": 36, "duration": 10, "velocity": 106}, {"time": 123357, "pitch": 49, "duration": 10, "velocity": 78}, {"time": 123599, "pitch": 42, "duration": 10, "velocity": 92}, {"time": 123842, "pitch": 38, "duration": 10, "velocity": 106}, {"time": 123842, "pitch": 46, "duration": 10, "velocity": 106}, {"time": 124080, "pitch": 36, "duration": 10, "velocity": 106}, {"time": 124080, "pitch": 44, "duration": 10, "velocity": 8}, {"time": 124080, "pitch": 49, "duration": 10, "velocity": 78}, {"time": 124319, "pitch": 42, "duration": 10, "velocity": 106}, {"time": 124558, "pitch": 36, "duration": 10, "velocity": 106}, {"time": 124558, "pitch": 42, "duration": 10, "velocity": 92}, {"time": 124797, "pitch": 38, "duration": 10, "velocity": 106}, {"time": 124797, "pitch": 44, "duration": 10, "velocity": 106}, {"time": 124797, "pitch": 54, "duration": 10, "velocity": 120}, {"time": 125039, "pitch": 42, "duration": 10, "velocity": 92}, {"time": 125282, "pitch": 36, "duration": 10, "velocity": 106}, {"time": 125282, "pitch": 49, "duration": 10, "velocity": 78}, {"time": 125520, "pitch": 42, "duration": 10, "velocity": 92}, {"time": 125759, "pitch": 38, "duration": 10, "velocity": 106}, {"time": 125759, "pitch": 46, "duration": 10, "velocity": 106}, {"time": 125998, "pitch": 36, "duration": 10, "velocity": 106}, {"time": 125998, "pitch": 44, "duration": 10, "velocity": 8}, {"time": 126237, "pitch": 38, "duration": 10, "velocity": 106}, {"time": 126479, "pitch": 45, "duration": 10, "velocity": 78}, {"time": 126600, "pitch": 45, "duration": 10, "velocity": 64}, {"time": 126722, "pitch": 48, "duration": 9, "velocity": 78}, {"time": 126841, "pitch": 45, "duration": 10, "velocity": 64}, {"time": 126960, "pitch": 41, "duration": 10, "velocity": 78}, {"time": 128878, "pitch": 51, "duration": 10, "velocity": 78}, {"time": 128997, "pitch": 51, "duration": 10, "velocity": 64}, {"time": 129117, "pitch": 51, "duration": 10, "velocity": 106}, {"time": 130318, "pitch": 51, "duration": 10, "velocity": 50}, {"time": 130437, "pitch": 51, "duration": 10, "velocity": 64}, {"time": 130557, "pitch": 51, "duration": 10, "velocity": 78}, {"time": 130678, "pitch": 51, "duration": 10, "velocity": 64}, {"time": 130799, "pitch": 51, "duration": 10, "velocity": 78}, {"time": 130920, "pitch": 51, "duration": 10, "velocity": 92}, {"time": 131041, "pitch": 51, "duration": 10, "velocity": 106}, {"time": 131997, "pitch": 51, "duration": 10, "velocity": 11}, {"time": 131997, "pitch": 57, "duration": 10, "velocity": 11}, {"time": 132077, "pitch": 51, "duration": 10, "velocity": 17}, {"time": 132077, "pitch": 57, "duration": 10, "velocity": 17}, {"time": 132158, "pitch": 51, "duration": 10, "velocity": 23}, {"time": 132158, "pitch": 57, "duration": 10, "velocity": 23}, {"time": 132239, "pitch": 51, "duration": 10, "velocity": 30}, {"time": 132239, "pitch": 57, "duration": 10, "velocity": 30}, {"time": 132320, "pitch": 51, "duration": 10, "velocity": 37}, {"time": 132320, "pitch": 57, "duration": 10, "velocity": 37}, {"time": 132401, "pitch": 51, "duration": 10, "velocity": 43}, {"time": 132401, "pitch": 57, "duration": 10, "velocity": 43}, {"time": 132481, "pitch": 51, "duration": 10, "velocity": 50}, {"time": 132481, "pitch": 57, "duration": 10, "velocity": 50}, {"time": 132561, "pitch": 51, "duration": 10, "velocity": 57}, {"time": 132561, "pitch": 57, "duration": 10, "velocity": 57}, {"time": 132641, "pitch": 51, "duration": 10, "velocity": 63}, {"time": 132641, "pitch": 57, "duration": 10, "velocity": 63}, {"time": 132720, "pitch": 51, "duration": 10, "velocity": 70}, {"time": 132720, "pitch": 57, "duration": 10, "velocity": 70}, {"time": 132800, "pitch": 51, "duration": 10, "velocity": 77}, {"time": 132800, "pitch": 57, "duration": 10, "velocity": 77}, {"time": 132879, "pitch": 51, "duration": 10, "velocity": 83}, {"time": 132879, "pitch": 57, "duration": 10, "velocity": 83}, {"time": 132959, "pitch": 51, "duration": 10, "velocity": 106}, {"time": 132959, "pitch": 57, "duration": 10, "velocity": 106}, {"time": 134877, "pitch": 36, "duration": 10, "velocity": 106}, {"time": 134877, "pitch": 49, "duration": 10, "velocity": 92}, {"time": 135119, "pitch": 42, "duration": 10, "velocity": 78}, {"time": 135361, "pitch": 38, "duration": 10, "velocity": 106}, {"time": 135361, "pitch": 46, "duration": 10, "velocity": 106}, {"time": 135600, "pitch": 42, "duration": 10, "velocity": 78}, {"time": 135839, "pitch": 36, "duration": 10, "velocity": 106}, {"time": 135839, "pitch": 42, "duration": 10, "velocity": 92}, {"time": 136078, "pitch": 36, "duration": 10, "velocity": 92}, {"time": 136078, "pitch": 42, "duration": 10, "velocity": 78}, {"time": 136317, "pitch": 38, "duration": 10, "velocity": 106}, {"time": 136317, "pitch": 46, "duration": 10, "velocity": 106}, {"time": 136317, "pitch": 54, "duration": 10, "velocity": 120}, {"time": 136559, "pitch": 42, "duration": 10, "velocity": 78}, {"time": 136801, "pitch": 36, "duration": 10, "velocity": 106}, {"time": 136801, "pitch": 42, "duration": 10, "velocity": 92}, {"time": 137040, "pitch": 42, "duration": 10, "velocity": 78}, {"time": 137279, "pitch": 38, "duration": 10, "velocity": 106}, {"time": 137279, "pitch": 46, "duration": 10, "velocity": 106}, {"time": 137518, "pitch": 42, "duration": 10, "velocity": 78}, {"time": 137756, "pitch": 36, "duration": 11, "velocity": 106}, {"time": 137756, "pitch": 42, "duration": 11, "velocity": 92}, {"time": 137999, "pitch": 36, "duration": 10, "velocity": 92}, {"time": 137999, "pitch": 42, "duration": 10, "velocity": 78}, {"time": 138241, "pitch": 38, "duration": 10, "velocity": 106}, {"time": 138241, "pitch": 46, "duration": 10, "velocity": 106}, {"time": 138241, "pitch": 54, "duration": 10, "velocity": 120}, {"time": 138480, "pitch": 42, "duration": 10, "velocity": 78}, {"time": 138719, "pitch": 36, "duration": 10, "velocity": 106}, {"time": 138719, "pitch": 42, "duration": 10, "velocity": 92}, {"time": 138958, "pitch": 42, "duration": 10, "velocity": 78}, {"time": 139196, "pitch": 38, "duration": 11, "velocity": 106}, {"time": 139196, "pitch": 46, "duration": 11, "velocity": 106}, {"time": 139439, "pitch": 42, "duration": 10, "velocity": 78}, {"time": 139681, "pitch": 36, "duration": 10, "velocity": 106}, {"time": 139681, "pitch": 42, "duration": 10, "velocity": 92}, {"time": 139920, "pitch": 36, "duration": 10, "velocity": 92}, {"time": 139920, "pitch": 42, "duration": 10, "velocity": 78}, {"time": 140159, "pitch": 38, "duration": 10, "velocity": 106}, {"time": 140159, "pitch": 46, "duration": 10, "velocity": 106}, {"time": 140159, "pitch": 54, "duration": 10, "velocity": 120}, {"time": 140398, "pitch": 36, "duration": 10, "velocity": 106}, {"time": 140398, "pitch": 42, "duration": 10, "velocity": 78}, {"time": 140636, "pitch": 38, "duration": 10, "velocity": 106}, {"time": 140636, "pitch": 46, "duration": 10, "velocity": 106}, {"time": 140879, "pitch": 36, "duration": 10, "velocity": 106}, {"time": 140879, "pitch": 42, "duration": 10, "velocity": 78}, {"time": 141121, "pitch": 38, "duration": 10, "velocity": 106}, {"time": 141121, "pitch": 46, "duration": 10, "velocity": 106}, {"time": 141360, "pitch": 42, "duration": 10, "velocity": 78}, {"time": 141599, "pitch": 36, "duration": 10, "velocity": 106}, {"time": 141599, "pitch": 38, "duration": 10, "velocity": 106}, {"time": 141841, "pitch": 38, "duration": 10, "velocity": 92}, {"time": 142084, "pitch": 38, "duration": 9, "velocity": 106}, {"time": 142084, "pitch": 54, "duration": 9, "velocity": 120}, {"time": 142203, "pitch": 38, "duration": 10, "velocity": 92}, {"time": 142322, "pitch": 38, "duration": 10, "velocity": 106}, {"time": 142442, "pitch": 38, "duration": 10, "velocity": 92}, {"time": 142561, "pitch": 36, "duration": 10, "velocity": 106}, {"time": 142561, "pitch": 49, "duration": 10, "velocity": 92}, {"time": 142800, "pitch": 51, "duration": 10, "velocity": 92}, {"time": 143039, "pitch": 38, "duration": 10, "velocity": 106}, {"time": 143039, "pitch": 51, "duration": 10, "velocity": 106}, {"time": 143039, "pitch": 54, "duration": 10, "velocity": 120}, {"time": 143281, "pitch": 36, "duration": 10, "velocity": 106}, {"time": 143281, "pitch": 57, "duration": 10, "velocity": 78}, {"time": 143524, "pitch": 51, "duration": 9, "velocity": 106}, {"time": 143762, "pitch": 36, "duration": 10, "velocity": 106}, {"time": 143762, "pitch": 51, "duration": 10, "velocity": 92}, {"time": 144001, "pitch": 38, "duration": 10, "velocity": 106}, {"time": 144001, "pitch": 51, "duration": 10, "velocity": 106}, {"time": 144001, "pitch": 54, "duration": 10, "velocity": 120}, {"time": 144240, "pitch": 51, "duration": 10, "velocity": 92}, {"time": 144479, "pitch": 36, "duration": 10, "velocity": 106}, {"time": 144479, "pitch": 49, "duration": 10, "velocity": 78}, {"time": 144721, "pitch": 51, "duration": 10, "velocity": 92}, {"time": 144963, "pitch": 38, "duration": 10, "velocity": 106}, {"time": 144963, "pitch": 51, "duration": 10, "velocity": 106}, {"time": 144963, "pitch": 54, "duration": 10, "velocity": 120}, {"time": 145202, "pitch": 36, "duration": 10, "velocity": 106}, {"time": 145202, "pitch": 57, "duration": 10, "velocity": 78}, {"time": 145441, "pitch": 51, "duration": 10, "velocity": 106}, {"time": 145680, "pitch": 36, "duration": 10, "velocity": 106}, {"time": 145680, "pitch": 51, "duration": 10, "velocity": 92}, {"time": 145919, "pitch": 38, "duration": 10, "velocity": 106}, {"time": 145919, "pitch": 51, "duration": 10, "velocity": 106}, {"time": 145919, "pitch": 54, "duration": 10, "velocity": 120}, {"time": 146162, "pitch": 51, "duration": 9, "velocity": 92}, {"time": 146403, "pitch": 36, "duration": 10, "velocity": 106}, {"time": 146403, "pitch": 49, "duration": 10, "velocity": 78}, {"time": 146642, "pitch": 51, "duration": 10, "velocity": 92}, {"time": 146881, "pitch": 38, "duration": 10, "velocity": 106}, {"time": 146881, "pitch": 51, "duration": 10, "velocity": 106}, {"time": 146881, "pitch": 54, "duration": 10, "velocity": 120}, {"time": 147124, "pitch": 36, "duration": 10, "velocity": 106}, {"time": 147124, "pitch": 57, "duration": 10, "velocity": 78}, {"time": 147366, "pitch": 51, "duration": 10, "velocity": 106}, {"time": 147597, "pitch": 36, "duration": 10, "velocity": 106}, {"time": 147597, "pitch": 51, "duration": 10, "velocity": 92}, {"time": 147829, "pitch": 38, "duration": 10, "velocity": 106}, {"time": 147829, "pitch": 51, "duration": 10, "velocity": 106}, {"time": 147829, "pitch": 54, "duration": 10, "velocity": 120}, {"time": 148069, "pitch": 51, "duration": 9, "velocity": 92}, {"time": 148307, "pitch": 36, "duration": 10, "velocity": 106}, {"time": 148307, "pitch": 49, "duration": 10, "velocity": 78}, {"time": 148549, "pitch": 51, "duration": 10, "velocity": 92}, {"time": 148792, "pitch": 38, "duration": 10, "velocity": 106}, {"time": 148792, "pitch": 51, "duration": 10, "velocity": 106}, {"time": 148792, "pitch": 54, "duration": 10, "velocity": 120}, {"time": 149034, "pitch": 36, "duration": 10, "velocity": 106}, {"time": 149034, "pitch": 57, "duration": 10, "velocity": 78}, {"time": 149276, "pitch": 38, "duration": 10, "velocity": 106}, {"time": 149396, "pitch": 38, "duration": 10, "velocity": 92}, {"time": 149516, "pitch": 36, "duration": 9, "velocity": 106}, {"time": 149754, "pitch": 38, "duration": 10, "velocity": 106}, {"time": 149754, "pitch": 54, "duration": 10, "velocity": 120}, {"time": 149877, "pitch": 38, "duration": 10, "velocity": 92}, {"time": 150000, "pitch": 36, "duration": 11, "velocity": 106}, {"time": 150122, "pitch": 38, "duration": 11, "velocity": 106}, {"time": 150246, "pitch": 36, "duration": 8, "velocity": 106}, {"time": 150246, "pitch": 49, "duration": 8, "velocity": 78}, {"time": 150478, "pitch": 51, "duration": 10, "velocity": 92}, {"time": 150709, "pitch": 38, "duration": 10, "velocity": 106}, {"time": 150709, "pitch": 51, "duration": 10, "velocity": 106}, {"time": 150709, "pitch": 54, "duration": 10, "velocity": 120}, {"time": 150951, "pitch": 36, "duration": 10, "velocity": 106}, {"time": 150951, "pitch": 57, "duration": 10, "velocity": 78}, {"time": 151194, "pitch": 51, "duration": 10, "velocity": 106}, {"time": 151437, "pitch": 36, "duration": 10, "velocity": 106}, {"time": 151437, "pitch": 51, "duration": 10, "velocity": 92}, {"time": 151679, "pitch": 38, "duration": 10, "velocity": 106}, {"time": 151679, "pitch": 51, "duration": 10, "velocity": 106}, {"time": 151679, "pitch": 54, "duration": 10, "velocity": 120}, {"time": 151925, "pitch": 51, "duration": 9, "velocity": 92}, {"time": 152170, "pitch": 36, "duration": 9, "velocity": 106}, {"time": 152170, "pitch": 49, "duration": 9, "velocity": 78}, {"time": 152398, "pitch": 51, "duration": 11, "velocity": 92}, {"time": 152627, "pitch": 38, "duration": 10, "velocity": 106}, {"time": 152627, "pitch": 51, "duration": 10, "velocity": 106}, {"time": 152627, "pitch": 54, "duration": 10, "velocity": 120}, {"time": 152866, "pitch": 36, "duration": 10, "velocity": 106}, {"time": 152866, "pitch": 57, "duration": 10, "velocity": 78}, {"time": 153104, "pitch": 51, "duration": 11, "velocity": 106}, {"time": 153226, "pitch": 38, "duration": 10, "velocity": 92}, {"time": 153347, "pitch": 36, "duration": 10, "velocity": 106}, {"time": 153347, "pitch": 51, "duration": 10, "velocity": 92}, {"time": 153589, "pitch": 38, "duration": 10, "velocity": 106}, {"time": 153589, "pitch": 51, "duration": 10, "velocity": 106}, {"time": 153589, "pitch": 54, "duration": 10, "velocity": 120}, {"time": 153828, "pitch": 51, "duration": 10, "velocity": 92}, {"time": 154067, "pitch": 36, "duration": 10, "velocity": 106}, {"time": 154067, "pitch": 49, "duration": 10, "velocity": 78}, {"time": 154316, "pitch": 51, "duration": 11, "velocity": 92}, {"time": 154565, "pitch": 38, "duration": 11, "velocity": 106}, {"time": 154565, "pitch": 51, "duration": 11, "velocity": 106}, {"time": 154565, "pitch": 54, "duration": 11, "velocity": 120}, {"time": 154804, "pitch": 36, "duration": 10, "velocity": 106}, {"time": 154804, "pitch": 57, "duration": 10, "velocity": 78}, {"time": 155043, "pitch": 51, "duration": 10, "velocity": 106}, {"time": 155282, "pitch": 36, "duration": 10, "velocity": 106}, {"time": 155282, "pitch": 51, "duration": 10, "velocity": 92}, {"time": 155521, "pitch": 38, "duration": 10, "velocity": 106}, {"time": 155521, "pitch": 51, "duration": 10, "velocity": 106}, {"time": 155521, "pitch": 54, "duration": 10, "velocity": 120}, {"time": 155764, "pitch": 51, "duration": 10, "velocity": 92}, {"time": 156005, "pitch": 36, "duration": 11, "velocity": 106}, {"time": 156005, "pitch": 49, "duration": 11, "velocity": 78}, {"time": 156244, "pitch": 51, "duration": 10, "velocity": 92}, {"time": 156483, "pitch": 38, "duration": 10, "velocity": 106}, {"time": 156483, "pitch": 51, "duration": 10, "velocity": 106}, {"time": 156483, "pitch": 54, "duration": 10, "velocity": 120}, {"time": 156722, "pitch": 36, "duration": 10, "velocity": 106}, {"time": 156722, "pitch": 57, "duration": 10, "velocity": 78}, {"time": 156961, "pitch": 38, "duration": 10, "velocity": 106}, {"time": 157200, "pitch": 36, "duration": 10, "velocity": 106}, {"time": 157200, "pitch": 38, "duration": 10, "velocity": 106}, {"time": 157319, "pitch": 38, "duration": 10, "velocity": 92}, {"time": 157438, "pitch": 38, "duration": 10, "velocity": 106}, {"time": 157438, "pitch": 54, "duration": 10, "velocity": 120}, {"time": 157560, "pitch": 38, "duration": 10, "velocity": 92}, {"time": 157681, "pitch": 38, "duration": 10, "velocity": 106}, {"time": 157802, "pitch": 38, "duration": 10, "velocity": 92}, {"time": 157923, "pitch": 36, "duration": 10, "velocity": 106}, {"time": 157923, "pitch": 49, "duration": 10, "velocity": 92}, {"time": 158162, "pitch": 42, "duration": 10, "velocity": 92}, {"time": 158401, "pitch": 38, "duration": 10, "velocity": 106}, {"time": 158401, "pitch": 46, "duration": 10, "velocity": 106}, {"time": 158640, "pitch": 36, "duration": 10, "velocity": 106}, {"time": 158640, "pitch": 44, "duration": 10, "velocity": 8}, {"time": 158640, "pitch": 49, "duration": 10, "velocity": 78}, {"time": 158878, "pitch": 42, "duration": 10, "velocity": 106}, {"time": 159121, "pitch": 36, "duration": 10, "velocity": 106}, {"time": 159121, "pitch": 42, "duration": 10, "velocity": 92}, {"time": 159363, "pitch": 38, "duration": 10, "velocity": 106}, {"time": 159363, "pitch": 44, "duration": 10, "velocity": 106}, {"time": 159363, "pitch": 54, "duration": 10, "velocity": 120}, {"time": 159602, "pitch": 42, "duration": 10, "velocity": 92}, {"time": 159841, "pitch": 36, "duration": 10, "velocity": 106}, {"time": 159841, "pitch": 49, "duration": 10, "velocity": 78}, {"time": 160080, "pitch": 42, "duration": 9, "velocity": 92}, {"time": 160318, "pitch": 38, "duration": 10, "velocity": 106}, {"time": 160318, "pitch": 46, "duration": 10, "velocity": 106}, {"time": 160561, "pitch": 36, "duration": 10, "velocity": 106}, {"time": 160561, "pitch": 44, "duration": 10, "velocity": 8}, {"time": 160561, "pitch": 49, "duration": 10, "velocity": 78}, {"time": 160803, "pitch": 42, "duration": 10, "velocity": 106}, {"time": 161042, "pitch": 36, "duration": 10, "velocity": 106}, {"time": 161042, "pitch": 42, "duration": 10, "velocity": 92}, {"time": 161281, "pitch": 38, "duration": 10, "velocity": 106}, {"time": 161281, "pitch": 44, "duration": 10, "velocity": 106}, {"time": 161281, "pitch": 54, "duration": 10, "velocity": 120}, {"time": 161519, "pitch": 42, "duration": 10, "velocity": 92}, {"time": 161758, "pitch": 36, "duration": 10, "velocity": 106}, {"time": 161758, "pitch": 49, "duration": 10, "velocity": 78}, {"time": 162001, "pitch": 42, "duration": 10, "velocity": 92}, {"time": 162243, "pitch": 38, "duration": 10, "velocity": 106}, {"time": 162243, "pitch": 46, "duration": 10, "velocity": 106}, {"time": 162482, "pitch": 36, "duration": 10, "velocity": 106}, {"time": 162482, "pitch": 44, "duration": 10, "velocity": 8}, {"time": 162482, "pitch": 49, "duration": 10, "velocity": 78}, {"time": 162721, "pitch": 42, "duration": 10, "velocity": 106}, {"time": 162959, "pitch": 36, "duration": 10, "velocity": 106}, {"time": 162959, "pitch": 42, "duration": 10, "velocity": 92}, {"time": 163198, "pitch": 38, "duration": 10, "velocity": 106}, {"time": 163198, "pitch": 44, "duration": 10, "velocity": 106}, {"time": 163198, "pitch": 54, "duration": 10, "velocity": 120}, {"time": 163441, "pitch": 42, "duration": 10, "velocity": 92}, {"time": 163683, "pitch": 36, "duration": 10, "velocity": 106}, {"time": 163683, "pitch": 49, "duration": 10, "velocity": 78}, {"time": 163922, "pitch": 42, "duration": 10, "velocity": 92}, {"time": 164161, "pitch": 38, "duration": 10, "velocity": 106}, {"time": 164161, "pitch": 46, "duration": 10, "velocity": 106}, {"time": 164399, "pitch": 36, "duration": 10, "velocity": 106}, {"time": 164399, "pitch": 44, "duration": 10, "velocity": 8}, {"time": 164399, "pitch": 49, "duration": 10, "velocity": 78}, {"time": 164638, "pitch": 42, "duration": 10, "velocity": 106}, {"time": 164881, "pitch": 36, "duration": 10, "velocity": 106}, {"time": 164881, "pitch": 42, "duration": 10, "velocity": 92}, {"time": 165123, "pitch": 38, "duration": 10, "velocity": 106}, {"time": 165123, "pitch": 54, "duration": 10, "velocity": 120}, {"time": 165362, "pitch": 38, "duration": 10, "velocity": 106}, {"time": 165481, "pitch": 38, "duration": 10, "velocity": 92}, {"time": 165601, "pitch": 36, "duration": 10, "velocity": 106}, {"time": 165601, "pitch": 49, "duration": 10, "velocity": 92}, {"time": 165839, "pitch": 42, "duration": 10, "velocity": 92}, {"time": 166078, "pitch": 38, "duration": 10, "velocity": 106}, {"time": 166078, "pitch": 46, "duration": 10, "velocity": 106}, {"time": 166321, "pitch": 36, "duration": 10, "velocity": 106}, {"time": 166321, "pitch": 44, "duration": 10, "velocity": 8}, {"time": 166321, "pitch": 49, "duration": 10, "velocity": 78}, {"time": 166563, "pitch": 42, "duration": 10, "velocity": 106}, {"time": 166802, "pitch": 36, "duration": 10, "velocity": 106}, {"time": 166802, "pitch": 42, "duration": 10, "velocity": 92}, {"time": 167041, "pitch": 38, "duration": 9, "velocity": 106}, {"time": 167041, "pitch": 44, "duration": 9, "velocity": 106}, {"time": 167041, "pitch": 54, "duration": 9, "velocity": 120}, {"time": 167279, "pitch": 42, "duration": 10, "velocity": 92}, {"time": 167518, "pitch": 36, "duration": 10, "velocity": 106}, {"time": 167518, "pitch": 49, "duration": 10, "velocity": 78}, {"time": 167761, "pitch": 42, "duration": 10, "velocity": 92}, {"time": 168003, "pitch": 38, "duration": 10, "velocity": 106}, {"time": 168003, "pitch": 46, "duration": 10, "velocity": 106}, {"time": 168242, "pitch": 36, "duration": 10, "velocity": 106}, {"time": 168242, "pitch": 44, "duration": 10, "velocity": 8}, {"time": 168242, "pitch": 49, "duration": 10, "velocity": 78}, {"time": 168481, "pitch": 42, "duration": 9, "velocity": 106}, {"time": 168719, "pitch": 36, "duration": 10, "velocity": 106}, {"time": 168719, "pitch": 42, "duration": 10, "velocity": 92}, {"time": 168958, "pitch": 38, "duration": 10, "velocity": 106}, {"time": 168958, "pitch": 44, "duration": 10, "velocity": 106}, {"time": 168958, "pitch": 54, "duration": 10, "velocity": 120}, {"time": 169200, "pitch": 42, "duration": 11, "velocity": 92}, {"time": 169443, "pitch": 36, "duration": 10, "velocity": 106}, {"time": 169443, "pitch": 49, "duration": 10, "velocity": 78}, {"time": 169682, "pitch": 42, "duration": 10, "velocity": 92}, {"time": 169920, "pitch": 38, "duration": 10, "velocity": 106}, {"time": 169920, "pitch": 46, "duration": 10, "velocity": 106}, {"time": 170159, "pitch": 36, "duration": 10, "velocity": 106}, {"time": 170159, "pitch": 44, "duration": 10, "velocity": 8}, {"time": 170159, "pitch": 49, "duration": 10, "velocity": 78}, {"time": 170398, "pitch": 42, "duration": 10, "velocity": 106}, {"time": 170640, "pitch": 36, "duration": 11, "velocity": 106}, {"time": 170640, "pitch": 42, "duration": 11, "velocity": 92}, {"time": 170883, "pitch": 38, "duration": 10, "velocity": 106}, {"time": 170883, "pitch": 44, "duration": 10, "velocity": 106}, {"time": 170883, "pitch": 54, "duration": 10, "velocity": 120}, {"time": 171122, "pitch": 42, "duration": 10, "velocity": 92}, {"time": 171360, "pitch": 36, "duration": 10, "velocity": 106}, {"time": 171360, "pitch": 49, "duration": 10, "velocity": 78}, {"time": 171599, "pitch": 42, "duration": 10, "velocity": 92}, {"time": 171838, "pitch": 38, "duration": 10, "velocity": 106}, {"time": 171838, "pitch": 46, "duration": 10, "velocity": 106}, {"time": 172080, "pitch": 36, "duration": 11, "velocity": 106}, {"time": 172080, "pitch": 44, "duration": 11, "velocity": 8}, {"time": 172080, "pitch": 49, "duration": 11, "velocity": 78}, {"time": 172323, "pitch": 38, "duration": 10, "velocity": 106}, {"time": 172562, "pitch": 38, "duration": 10, "velocity": 106}, {"time": 172681, "pitch": 38, "duration": 10, "velocity": 92}, {"time": 172800, "pitch": 38, "duration": 10, "velocity": 106}, {"time": 172920, "pitch": 38, "duration": 10, "velocity": 92}, {"time": 173039, "pitch": 38, "duration": 10, "velocity": 106}, {"time": 173159, "pitch": 38, "duration": 10, "velocity": 92}, {"time": 173278, "pitch": 36, "duration": 10, "velocity": 106}, {"time": 173278, "pitch": 49, "duration": 10, "velocity": 92}, {"time": 173520, "pitch": 42, "duration": 10, "velocity": 92}, {"time": 173763, "pitch": 38, "duration": 10, "velocity": 106}, {"time": 173763, "pitch": 46, "duration": 10, "velocity": 106}, {"time": 174002, "pitch": 36, "duration": 10, "velocity": 106}, {"time": 174002, "pitch": 44, "duration": 10, "velocity": 8}, {"time": 174002, "pitch": 49, "duration": 10, "velocity": 78}, {"time": 174240, "pitch": 42, "duration": 10, "velocity": 106}, {"time": 174479, "pitch": 36, "duration": 10, "velocity": 106}, {"time": 174479, "pitch": 42, "duration": 10, "velocity": 92}, {"time": 174718, "pitch": 38, "duration": 10, "velocity": 106}, {"time": 174718, "pitch": 44, "duration": 10, "velocity": 106}, {"time": 174718, "pitch": 54, "duration": 10, "velocity": 120}, {"time": 174960, "pitch": 42, "duration": 10, "velocity": 92}, {"time": 175203, "pitch": 36, "duration": 10, "velocity": 106}, {"time": 175203, "pitch": 49, "duration": 10, "velocity": 78}, {"time": 175442, "pitch": 42, "duration": 9, "velocity": 92}, {"time": 175680, "pitch": 38, "duration": 10, "velocity": 106}, {"time": 175680, "pitch": 46, "duration": 10, "velocity": 106}, {"time": 175919, "pitch": 36, "duration": 10, "velocity": 106}, {"time": 175919, "pitch": 44, "duration": 10, "velocity": 8}, {"time": 175919, "pitch": 49, "duration": 10, "velocity": 78}, {"time": 176158, "pitch": 42, "duration": 10, "velocity": 106}, {"time": 176400, "pitch": 36, "duration": 10, "velocity": 106}, {"time": 176400, "pitch": 42, "duration": 10, "velocity": 92}, {"time": 176643, "pitch": 38, "duration": 10, "velocity": 106}, {"time": 176643, "pitch": 44, "duration": 10, "velocity": 106}, {"time": 176643, "pitch": 54, "duration": 10, "velocity": 120}, {"time": 176881, "pitch": 42, "duration": 10, "velocity": 92}, {"time": 177120, "pitch": 36, "duration": 10, "velocity": 106}, {"time": 177120, "pitch": 49, "duration": 10, "velocity": 78}, {"time": 177359, "pitch": 42, "duration": 10, "velocity": 92}, {"time": 177598, "pitch": 38, "duration": 10, "velocity": 106}, {"time": 177598, "pitch": 46, "duration": 10, "velocity": 106}, {"time": 177840, "pitch": 36, "duration": 10, "velocity": 106}, {"time": 177840, "pitch": 44, "duration": 10, "velocity": 8}, {"time": 177840, "pitch": 49, "duration": 10, "velocity": 78}, {"time": 178083, "pitch": 42, "duration": 10, "velocity": 106}, {"time": 178321, "pitch": 36, "duration": 10, "velocity": 106}, {"time": 178321, "pitch": 42, "duration": 10, "velocity": 92}, {"time": 178560, "pitch": 38, "duration": 10, "velocity": 106}, {"time": 178560, "pitch": 44, "duration": 10, "velocity": 106}, {"time": 178560, "pitch": 54, "duration": 10, "velocity": 120}, {"time": 178803, "pitch": 42, "duration": 10, "velocity": 92}, {"time": 179045, "pitch": 36, "duration": 10, "velocity": 106}, {"time": 179045, "pitch": 49, "duration": 10, "velocity": 78}, {"time": 179279, "pitch": 36, "duration": 10, "velocity": 106}, {"time": 179279, "pitch": 42, "duration": 10, "velocity": 92}, {"time": 179398, "pitch": 36, "duration": 11, "velocity": 92}, {"time": 179516, "pitch": 38, "duration": 10, "velocity": 106}, {"time": 179516, "pitch": 46, "duration": 10, "velocity": 106}, {"time": 179754, "pitch": 36, "duration": 10, "velocity": 106}, {"time": 179754, "pitch": 44, "duration": 10, "velocity": 8}, {"time": 179754, "pitch": 49, "duration": 10, "velocity": 78}, {"time": 179993, "pitch": 42, "duration": 10, "velocity": 106}, {"time": 180113, "pitch": 38, "duration": 10, "velocity": 106}, {"time": 180232, "pitch": 36, "duration": 10, "velocity": 106}, {"time": 180471, "pitch": 38, "duration": 10, "velocity": 106}, {"time": 180471, "pitch": 54, "duration": 10, "velocity": 120}, {"time": 180590, "pitch": 38, "duration": 10, "velocity": 92}, {"time": 180710, "pitch": 45, "duration": 9, "velocity": 106}, {"time": 180949, "pitch": 36, "duration": 10, "velocity": 106}, {"time": 180949, "pitch": 49, "duration": 10, "velocity": 92}, {"time": 181194, "pitch": 42, "duration": 10, "velocity": 92}, {"time": 181440, "pitch": 38, "duration": 10, "velocity": 106}, {"time": 181440, "pitch": 46, "duration": 10, "velocity": 106}, {"time": 181679, "pitch": 36, "duration": 10, "velocity": 106}, {"time": 181679, "pitch": 44, "duration": 10, "velocity": 8}, {"time": 181679, "pitch": 49, "duration": 10, "velocity": 78}, {"time": 181918, "pitch": 42, "duration": 10, "velocity": 106}, {"time": 182160, "pitch": 36, "duration": 10, "velocity": 106}, {"time": 182160, "pitch": 42, "duration": 10, "velocity": 92}, {"time": 182403, "pitch": 38, "duration": 9, "velocity": 106}, {"time": 182403, "pitch": 44, "duration": 9, "velocity": 106}, {"time": 182403, "pitch": 54, "duration": 9, "velocity": 120}, {"time": 182641, "pitch": 42, "duration": 10, "velocity": 92}, {"time": 182880, "pitch": 36, "duration": 10, "velocity": 106}, {"time": 182880, "pitch": 49, "duration": 10, "velocity": 78}, {"time": 183119, "pitch": 42, "duration": 10, "velocity": 92}, {"time": 183358, "pitch": 38, "duration": 10, "velocity": 106}, {"time": 183358, "pitch": 46, "duration": 10, "velocity": 106}, {"time": 183600, "pitch": 36, "duration": 10, "velocity": 106}, {"time": 183600, "pitch": 44, "duration": 10, "velocity": 8}, {"time": 183600, "pitch": 49, "duration": 10, "velocity": 78}, {"time": 183843, "pitch": 42, "duration": 9, "velocity": 106}, {"time": 184081, "pitch": 36, "duration": 10, "velocity": 106}, {"time": 184081, "pitch": 42, "duration": 10, "velocity": 92}, {"time": 184320, "pitch": 38, "duration": 10, "velocity": 106}, {"time": 184320, "pitch": 44, "duration": 10, "velocity": 106}, {"time": 184320, "pitch": 54, "duration": 10, "velocity": 120}, {"time": 184559, "pitch": 42, "duration": 10, "velocity": 92}, {"time": 184798, "pitch": 36, "duration": 10, "velocity": 106}, {"time": 184798, "pitch": 49, "duration": 10, "velocity": 78}, {"time": 185040, "pitch": 42, "duration": 10, "velocity": 92}, {"time": 185282, "pitch": 38, "duration": 10, "velocity": 106}, {"time": 185282, "pitch": 46, "duration": 10, "velocity": 106}, {"time": 185521, "pitch": 36, "duration": 10, "velocity": 106}, {"time": 185521, "pitch": 44, "duration": 10, "velocity": 8}, {"time": 185521, "pitch": 49, "duration": 10, "velocity": 78}, {"time": 185760, "pitch": 42, "duration": 10, "velocity": 106}, {"time": 185999, "pitch": 36, "duration": 10, "velocity": 106}, {"time": 185999, "pitch": 42, "duration": 10, "velocity": 92}, {"time": 186238, "pitch": 38, "duration": 10, "velocity": 106}, {"time": 186238, "pitch": 44, "duration": 10, "velocity": 106}, {"time": 186238, "pitch": 54, "duration": 10, "velocity": 120}, {"time": 186480, "pitch": 42, "duration": 10, "velocity": 92}, {"time": 186722, "pitch": 36, "duration": 10, "velocity": 106}, {"time": 186722, "pitch": 49, "duration": 10, "velocity": 78}, {"time": 186961, "pitch": 38, "duration": 10, "velocity": 106}, {"time": 186961, "pitch": 42, "duration": 10, "velocity": 92}, {"time": 187200, "pitch": 36, "duration": 10, "velocity": 106}, {"time": 187200, "pitch": 46, "duration": 10, "velocity": 106}, {"time": 187319, "pitch": 36, "duration": 10, "velocity": 92}, {"time": 187439, "pitch": 38, "duration": 10, "velocity": 106}, {"time": 187439, "pitch": 44, "duration": 10, "velocity": 8}, {"time": 187678, "pitch": 38, "duration": 10, "velocity": 106}, {"time": 187799, "pitch": 38, "duration": 10, "velocity": 92}, {"time": 187920, "pitch": 48, "duration": 10, "velocity": 106}, {"time": 188041, "pitch": 48, "duration": 10, "velocity": 92}, {"time": 188162, "pitch": 45, "duration": 10, "velocity": 106}, {"time": 188282, "pitch": 45, "duration": 10, "velocity": 92}, {"time": 188401, "pitch": 41, "duration": 10, "velocity": 106}, {"time": 188640, "pitch": 36, "duration": 10, "velocity": 106}, {"time": 188640, "pitch": 57, "duration": 10, "velocity": 92}, {"time": 188879, "pitch": 42, "duration": 10, "velocity": 78}, {"time": 189118, "pitch": 37, "duration": 10, "velocity": 78}, {"time": 189118, "pitch": 42, "duration": 10, "velocity": 92}, {"time": 189360, "pitch": 36, "duration": 10, "velocity": 106}, {"time": 189360, "pitch": 42, "duration": 10, "velocity": 78}, {"time": 189602, "pitch": 42, "duration": 10, "velocity": 92}, {"time": 189841, "pitch": 42, "duration": 10, "velocity": 78}, {"time": 190080, "pitch": 37, "duration": 10, "velocity": 78}, {"time": 190080, "pitch": 42, "duration": 10, "velocity": 92}, {"time": 190319, "pitch": 42, "duration": 10, "velocity": 78}, {"time": 190558, "pitch": 36, "duration": 10, "velocity": 106}, {"time": 190558, "pitch": 42, "duration": 10, "velocity": 92}, {"time": 190800, "pitch": 42, "duration": 10, "velocity": 78}, {"time": 191042, "pitch": 37, "duration": 10, "velocity": 78}, {"time": 191042, "pitch": 42, "duration": 10, "velocity": 92}, {"time": 191281, "pitch": 36, "duration": 10, "velocity": 106}, {"time": 191281, "pitch": 42, "duration": 10, "velocity": 78}, {"time": 191520, "pitch": 42, "duration": 10, "velocity": 92}, {"time": 191759, "pitch": 42, "duration": 10, "velocity": 78}, {"time": 191998, "pitch": 37, "duration": 10, "velocity": 78}, {"time": 191998, "pitch": 42, "duration": 10, "velocity": 92}, {"time": 192240, "pitch": 42, "duration": 10, "velocity": 78}, {"time": 192482, "pitch": 36, "duration": 10, "velocity": 106}, {"time": 192482, "pitch": 42, "duration": 10, "velocity": 92}, {"time": 192721, "pitch": 42, "duration": 10, "velocity": 78}, {"time": 192960, "pitch": 37, "duration": 10, "velocity": 78}, {"time": 192960, "pitch": 42, "duration": 10, "velocity": 92}, {"time": 193199, "pitch": 36, "duration": 10, "velocity": 106}, {"time": 193199, "pitch": 42, "duration": 10, "velocity": 78}, {"time": 193437, "pitch": 42, "duration": 11, "velocity": 92}, {"time": 193680, "pitch": 42, "duration": 10, "velocity": 78}, {"time": 193922, "pitch": 37, "duration": 10, "velocity": 78}, {"time": 193922, "pitch": 42, "duration": 10, "velocity": 92}, {"time": 194161, "pitch": 42, "duration": 10, "velocity": 78}, {"time": 194400, "pitch": 36, "duration": 10, "velocity": 106}, {"time": 194400, "pitch": 42, "duration": 10, "velocity": 92}, {"time": 194639, "pitch": 42, "duration": 10, "velocity": 78}, {"time": 194877, "pitch": 37, "duration": 11, "velocity": 78}, {"time": 194877, "pitch": 42, "duration": 11, "velocity": 92}, {"time": 195120, "pitch": 36, "duration": 10, "velocity": 106}, {"time": 195120, "pitch": 42, "duration": 10, "velocity": 78}, {"time": 195362, "pitch": 42, "duration": 10, "velocity": 92}, {"time": 195601, "pitch": 42, "duration": 10, "velocity": 78}, {"time": 195840, "pitch": 37, "duration": 10, "velocity": 78}, {"time": 195840, "pitch": 42, "duration": 10, "velocity": 92}, {"time": 196079, "pitch": 42, "duration": 10, "velocity": 78}, {"time": 196317, "pitch": 36, "duration": 10, "velocity": 106}, {"time": 196317, "pitch": 42, "duration": 10, "velocity": 92}, {"time": 196560, "pitch": 42, "duration": 10, "velocity": 78}, {"time": 196802, "pitch": 37, "duration": 10, "velocity": 78}, {"time": 196802, "pitch": 42, "duration": 10, "velocity": 92}, {"time": 197041, "pitch": 36, "duration": 10, "velocity": 106}, {"time": 197041, "pitch": 42, "duration": 10, "velocity": 78}, {"time": 197280, "pitch": 42, "duration": 10, "velocity": 92}, {"time": 197519, "pitch": 42, "duration": 10, "velocity": 78}, {"time": 197757, "pitch": 37, "duration": 10, "velocity": 78}, {"time": 197757, "pitch": 42, "duration": 10, "velocity": 92}, {"time": 198000, "pitch": 42, "duration": 10, "velocity": 78}, {"time": 198242, "pitch": 36, "duration": 10, "velocity": 106}, {"time": 198242, "pitch": 42, "duration": 10, "velocity": 92}, {"time": 198481, "pitch": 42, "duration": 10, "velocity": 78}, {"time": 198720, "pitch": 37, "duration": 10, "velocity": 78}, {"time": 198720, "pitch": 42, "duration": 10, "velocity": 92}, {"time": 198959, "pitch": 36, "duration": 9, "velocity": 106}, {"time": 198959, "pitch": 42, "duration": 9, "velocity": 78}, {"time": 199197, "pitch": 42, "duration": 10, "velocity": 92}, {"time": 199440, "pitch": 42, "duration": 10, "velocity": 78}, {"time": 199682, "pitch": 37, "duration": 10, "velocity": 78}, {"time": 199682, "pitch": 42, "duration": 10, "velocity": 92}, {"time": 199921, "pitch": 42, "duration": 10, "velocity": 78}, {"time": 200160, "pitch": 36, "duration": 10, "velocity": 106}, {"time": 200160, "pitch": 42, "duration": 10, "velocity": 92}, {"time": 200399, "pitch": 42, "duration": 9, "velocity": 78}, {"time": 200637, "pitch": 37, "duration": 10, "velocity": 78}, {"time": 200637, "pitch": 42, "duration": 10, "velocity": 92}, {"time": 200880, "pitch": 36, "duration": 10, "velocity": 106}, {"time": 200880, "pitch": 42, "duration": 10, "velocity": 78}, {"time": 201122, "pitch": 42, "duration": 10, "velocity": 92}, {"time": 201361, "pitch": 42, "duration": 10, "velocity": 78}, {"time": 201600, "pitch": 37, "duration": 10, "velocity": 78}, {"time": 201600, "pitch": 42, "duration": 10, "velocity": 92}, {"time": 201838, "pitch": 42, "duration": 10, "velocity": 78}, {"time": 202077, "pitch": 36, "duration": 10, "velocity": 106}, {"time": 202077, "pitch": 42, "duration": 10, "velocity": 92}, {"time": 202320, "pitch": 42, "duration": 10, "velocity": 78}, {"time": 202562, "pitch": 37, "duration": 10, "velocity": 78}, {"time": 202562, "pitch": 42, "duration": 10, "velocity": 92}, {"time": 202801, "pitch": 36, "duration": 10, "velocity": 106}, {"time": 202801, "pitch": 42, "duration": 10, "velocity": 78}, {"time": 203040, "pitch": 42, "duration": 10, "velocity": 92}, {"time": 203278, "pitch": 42, "duration": 10, "velocity": 78}, {"time": 203458, "pitch": 40, "duration": 9, "velocity": 92}, {"time": 203517, "pitch": 40, "duration": 10, "velocity": 106}, {"time": 203517, "pitch": 42, "duration": 10, "velocity": 92}, {"time": 203760, "pitch": 42, "duration": 10, "velocity": 78}, {"time": 204002, "pitch": 36, "duration": 10, "velocity": 106}, {"time": 204002, "pitch": 42, "duration": 10, "velocity": 92}, {"time": 204241, "pitch": 42, "duration": 10, "velocity": 78}, {"time": 204480, "pitch": 37, "duration": 10, "velocity": 78}, {"time": 204480, "pitch": 42, "duration": 10, "velocity": 92}, {"time": 204718, "pitch": 36, "duration": 10, "velocity": 106}, {"time": 204718, "pitch": 42, "duration": 10, "velocity": 78}, {"time": 204957, "pitch": 42, "duration": 10, "velocity": 92}, {"time": 205200, "pitch": 42, "duration": 10, "velocity": 78}, {"time": 205442, "pitch": 37, "duration": 10, "velocity": 78}, {"time": 205442, "pitch": 42, "duration": 10, "velocity": 92}, {"time": 205681, "pitch": 42, "duration": 10, "velocity": 78}, {"time": 205920, "pitch": 36, "duration": 10, "velocity": 106}, {"time": 205920, "pitch": 42, "duration": 10, "velocity": 92}, {"time": 206158, "pitch": 42, "duration": 10, "velocity": 78}, {"time": 206397, "pitch": 37, "duration": 10, "velocity": 78}, {"time": 206397, "pitch": 42, "duration": 10, "velocity": 92}, {"time": 206640, "pitch": 36, "duration": 10, "velocity": 106}, {"time": 206640, "pitch": 42, "duration": 10, "velocity": 78}, {"time": 206882, "pitch": 42, "duration": 10, "velocity": 92}, {"time": 207121, "pitch": 42, "duration": 10, "velocity": 78}, {"time": 207360, "pitch": 40, "duration": 9, "velocity": 106}, {"time": 207360, "pitch": 42, "duration": 9, "velocity": 92}, {"time": 207598, "pitch": 42, "duration": 10, "velocity": 78}, {"time": 207837, "pitch": 36, "duration": 10, "velocity": 106}, {"time": 207837, "pitch": 42, "duration": 10, "velocity": 92}, {"time": 208080, "pitch": 42, "duration": 10, "velocity": 78}, {"time": 208322, "pitch": 37, "duration": 10, "velocity": 78}, {"time": 208322, "pitch": 42, "duration": 10, "velocity": 92}, {"time": 208561, "pitch": 36, "duration": 10, "velocity": 106}, {"time": 208561, "pitch": 42, "duration": 10, "velocity": 78}, {"time": 208799, "pitch": 42, "duration": 10, "velocity": 92}, {"time": 209038, "pitch": 42, "duration": 10, "velocity": 78}, {"time": 209277, "pitch": 37, "duration": 10, "velocity": 78}, {"time": 209277, "pitch": 42, "duration": 10, "velocity": 92}, {"time": 209519, "pitch": 42, "duration": 11, "velocity": 78}, {"time": 209762, "pitch": 36, "duration": 10, "velocity": 106}, {"time": 209762, "pitch": 42, "duration": 10, "velocity": 92}, {"time": 210001, "pitch": 42, "duration": 10, "velocity": 78}, {"time": 210239, "pitch": 37, "duration": 10, "velocity": 78}, {"time": 210239, "pitch": 42, "duration": 10, "velocity": 92}, {"time": 210478, "pitch": 36, "duration": 10, "velocity": 106}, {"time": 210478, "pitch": 42, "duration": 10, "velocity": 78}, {"time": 210717, "pitch": 42, "duration": 10, "velocity": 92}, {"time": 210838, "pitch": 40, "duration": 10, "velocity": 78}, {"time": 210959, "pitch": 40, "duration": 11, "velocity": 106}, {"time": 211202, "pitch": 42, "duration": 10, "velocity": 92}, {"time": 211441, "pitch": 41, "duration": 10, "velocity": 78}, {"time": 211679, "pitch": 36, "duration": 10, "velocity": 106}, {"time": 211679, "pitch": 42, "duration": 10, "velocity": 92}, {"time": 211918, "pitch": 42, "duration": 10, "velocity": 78}, {"time": 212157, "pitch": 37, "duration": 10, "velocity": 78}, {"time": 212157, "pitch": 42, "duration": 10, "velocity": 92}, {"time": 212399, "pitch": 36, "duration": 11, "velocity": 106}, {"time": 212399, "pitch": 42, "duration": 11, "velocity": 78}, {"time": 212642, "pitch": 42, "duration": 10, "velocity": 92}, {"time": 212881, "pitch": 42, "duration": 10, "velocity": 78}, {"time": 213119, "pitch": 37, "duration": 10, "velocity": 78}, {"time": 213119, "pitch": 42, "duration": 10, "velocity": 92}, {"time": 213358, "pitch": 42, "duration": 10, "velocity": 78}, {"time": 213597, "pitch": 36, "duration": 10, "velocity": 106}, {"time": 213597, "pitch": 42, "duration": 10, "velocity": 92}, {"time": 213839, "pitch": 42, "duration": 10, "velocity": 78}, {"time": 214082, "pitch": 37, "duration": 10, "velocity": 78}, {"time": 214082, "pitch": 42, "duration": 10, "velocity": 92}, {"time": 214321, "pitch": 36, "duration": 10, "velocity": 106}, {"time": 214321, "pitch": 42, "duration": 10, "velocity": 78}, {"time": 214559, "pitch": 42, "duration": 10, "velocity": 92}, {"time": 214798, "pitch": 37, "duration": 10, "velocity": 64}, {"time": 214798, "pitch": 42, "duration": 10, "velocity": 78}, {"time": 215037, "pitch": 37, "duration": 10, "velocity": 50}, {"time": 215037, "pitch": 42, "duration": 10, "velocity": 92}, {"time": 215158, "pitch": 37, "duration": 10, "velocity": 50}, {"time": 215279, "pitch": 42, "duration": 10, "velocity": 78}, {"time": 215401, "pitch": 37, "duration": 10, "velocity": 50}, {"time": 215522, "pitch": 36, "duration": 10, "velocity": 106}, {"time": 215522, "pitch": 42, "duration": 10, "velocity": 92}, {"time": 215761, "pitch": 42, "duration": 9, "velocity": 78}, {"time": 215999, "pitch": 37, "duration": 10, "velocity": 78}, {"time": 215999, "pitch": 42, "duration": 10, "velocity": 92}, {"time": 216238, "pitch": 36, "duration": 10, "velocity": 106}, {"time": 216238, "pitch": 42, "duration": 10, "velocity": 78}, {"time": 216477, "pitch": 42, "duration": 10, "velocity": 92}, {"time": 216719, "pitch": 46, "duration": 10, "velocity": 106}, {"time": 216962, "pitch": 37, "duration": 10, "velocity": 78}, {"time": 217200, "pitch": 42, "duration": 10, "velocity": 78}, {"time": 217439, "pitch": 36, "duration": 10, "velocity": 106}, {"time": 217439, "pitch": 42, "duration": 10, "velocity": 92}, {"time": 217678, "pitch": 42, "duration": 10, "velocity": 78}, {"time": 217917, "pitch": 37, "duration": 10, "velocity": 78}, {"time": 217917, "pitch": 42, "duration": 10, "velocity": 92}, {"time": 218159, "pitch": 36, "duration": 10, "velocity": 106}, {"time": 218159, "pitch": 42, "duration": 10, "velocity": 78}, {"time": 218402, "pitch": 42, "duration": 10, "velocity": 92}, {"time": 218640, "pitch": 40, "duration": 10, "velocity": 106}, {"time": 218640, "pitch": 42, "duration": 10, "velocity": 78}, {"time": 218879, "pitch": 41, "duration": 10, "velocity": 106}, {"time": 218879, "pitch": 42, "duration": 10, "velocity": 92}, {"time": 219118, "pitch": 42, "duration": 10, "velocity": 78}, {"time": 219357, "pitch": 36, "duration": 10, "velocity": 106}, {"time": 219357, "pitch": 49, "duration": 10, "velocity": 78}, {"time": 219599, "pitch": 42, "duration": 10, "velocity": 78}, {"time": 219842, "pitch": 38, "duration": 10, "velocity": 92}, {"time": 219842, "pitch": 42, "duration": 10, "velocity": 92}, {"time": 220080, "pitch": 36, "duration": 10, "velocity": 106}, {"time": 220080, "pitch": 42, "duration": 10, "velocity": 78}, {"time": 220319, "pitch": 42, "duration": 10, "velocity": 92}, {"time": 220558, "pitch": 42, "duration": 10, "velocity": 78}, {"time": 220797, "pitch": 38, "duration": 10, "velocity": 92}, {"time": 220797, "pitch": 42, "duration": 10, "velocity": 92}, {"time": 221039, "pitch": 42, "duration": 10, "velocity": 78}, {"time": 221282, "pitch": 36, "duration": 10, "velocity": 106}, {"time": 221282, "pitch": 42, "duration": 10, "velocity": 92}, {"time": 221520, "pitch": 42, "duration": 10, "velocity": 78}, {"time": 221759, "pitch": 38, "duration": 10, "velocity": 92}, {"time": 221759, "pitch": 42, "duration": 10, "velocity": 92}, {"time": 221998, "pitch": 36, "duration": 10, "velocity": 106}, {"time": 221998, "pitch": 42, "duration": 10, "velocity": 78}, {"time": 222237, "pitch": 42, "duration": 10, "velocity": 92}, {"time": 222479, "pitch": 42, "duration": 10, "velocity": 78}, {"time": 222722, "pitch": 41, "duration": 9, "velocity": 92}, {"time": 222722, "pitch": 42, "duration": 9, "velocity": 92}, {"time": 222960, "pitch": 42, "duration": 10, "velocity": 78}, {"time": 223199, "pitch": 36, "duration": 10, "velocity": 106}, {"time": 223199, "pitch": 42, "duration": 10, "velocity": 92}, {"time": 223438, "pitch": 42, "duration": 10, "velocity": 78}, {"time": 223677, "pitch": 38, "duration": 10, "velocity": 92}, {"time": 223677, "pitch": 42, "duration": 10, "velocity": 92}, {"time": 223919, "pitch": 36, "duration": 10, "velocity": 106}, {"time": 223919, "pitch": 42, "duration": 10, "velocity": 78}, {"time": 224162, "pitch": 42, "duration": 9, "velocity": 92}, {"time": 224400, "pitch": 42, "duration": 10, "velocity": 78}, {"time": 224520, "pitch": 38, "duration": 10, "velocity": 78}, {"time": 224639, "pitch": 41, "duration": 10, "velocity": 92}, {"time": 224639, "pitch": 42, "duration": 10, "velocity": 92}, {"time": 224878, "pitch": 42, "duration": 10, "velocity": 78}, {"time": 225117, "pitch": 36, "duration": 10, "velocity": 106}, {"time": 225117, "pitch": 42, "duration": 10, "velocity": 92}, {"time": 225359, "pitch": 42, "duration": 10, "velocity": 78}, {"time": 225601, "pitch": 38, "duration": 10, "velocity": 92}, {"time": 225601, "pitch": 49, "duration": 10, "velocity": 78}, {"time": 225840, "pitch": 36, "duration": 10, "velocity": 106}, {"time": 225840, "pitch": 42, "duration": 10, "velocity": 78}, {"time": 226079, "pitch": 42, "duration": 10, "velocity": 92}, {"time": 226318, "pitch": 38, "duration": 10, "velocity": 92}, {"time": 226318, "pitch": 42, "duration": 10, "velocity": 78}, {"time": 226557, "pitch": 38, "duration": 10, "velocity": 92}, {"time": 226557, "pitch": 42, "duration": 10, "velocity": 92}, {"time": 226792, "pitch": 38, "duration": 10, "velocity": 92}, {"time": 226792, "pitch": 42, "duration": 10, "velocity": 78}, {"time": 227027, "pitch": 36, "duration": 10, "velocity": 106}, {"time": 227027, "pitch": 42, "duration": 10, "velocity": 92}, {"time": 227263, "pitch": 42, "duration": 9, "velocity": 78}, {"time": 227498, "pitch": 38, "duration": 10, "velocity": 92}, {"time": 227498, "pitch": 42, "duration": 10, "velocity": 92}, {"time": 227733, "pitch": 36, "duration": 10, "velocity": 106}, {"time": 227733, "pitch": 42, "duration": 10, "velocity": 78}, {"time": 227968, "pitch": 42, "duration": 10, "velocity": 92}, {"time": 228204, "pitch": 42, "duration": 10, "velocity": 78}, {"time": 228439, "pitch": 41, "duration": 10, "velocity": 92}, {"time": 228439, "pitch": 42, "duration": 10, "velocity": 92}, {"time": 228674, "pitch": 42, "duration": 10, "velocity": 78}, {"time": 228910, "pitch": 36, "duration": 9, "velocity": 106}, {"time": 228910, "pitch": 42, "duration": 9, "velocity": 92}, {"time": 229145, "pitch": 42, "duration": 10, "velocity": 78}, {"time": 229380, "pitch": 38, "duration": 10, "velocity": 92}, {"time": 229380, "pitch": 42, "duration": 10, "velocity": 92}, {"time": 229615, "pitch": 36, "duration": 10, "velocity": 106}, {"time": 229615, "pitch": 42, "duration": 10, "velocity": 78}, {"time": 229851, "pitch": 42, "duration": 10, "velocity": 92}, {"time": 230086, "pitch": 42, "duration": 10, "velocity": 78}, {"time": 230321, "pitch": 38, "duration": 10, "velocity": 92}, {"time": 230321, "pitch": 42, "duration": 10, "velocity": 92}, {"time": 230557, "pitch": 42, "duration": 9, "velocity": 78}, {"time": 477, "pitch": 69, "duration": 41, "velocity": 74}, {"time": 588, "pitch": 82, "duration": 48, "velocity": 40}, {"time": 707, "pitch": 69, "duration": 50, "velocity": 71}, {"time": 826, "pitch": 82, "duration": 60, "velocity": 40}, {"time": 946, "pitch": 69, "duration": 60, "velocity": 74}, {"time": 1065, "pitch": 82, "duration": 60, "velocity": 40}, {"time": 1185, "pitch": 69, "duration": 59, "velocity": 66}, {"time": 1304, "pitch": 82, "duration": 60, "velocity": 40}, {"time": 1423, "pitch": 69, "duration": 60, "velocity": 75}, {"time": 1543, "pitch": 82, "duration": 59, "velocity": 40}, {"time": 1662, "pitch": 69, "duration": 59, "velocity": 74}, {"time": 1782, "pitch": 82, "duration": 70, "velocity": 40}, {"time": 1901, "pitch": 69, "duration": 60, "velocity": 72}, {"time": 2021, "pitch": 82, "duration": 49, "velocity": 40}, {"time": 2140, "pitch": 69, "duration": 60, "velocity": 64}, {"time": 2259, "pitch": 82, "duration": 50, "velocity": 40}, {"time": 2379, "pitch": 69, "duration": 61, "velocity": 71}, {"time": 2499, "pitch": 82, "duration": 61, "velocity": 40}, {"time": 2621, "pitch": 69, "duration": 70, "velocity": 61}, {"time": 2742, "pitch": 82, "duration": 61, "velocity": 40}, {"time": 2863, "pitch": 69, "duration": 71, "velocity": 69}, {"time": 2985, "pitch": 82, "duration": 60, "velocity": 40}, {"time": 3106, "pitch": 69, "duration": 71, "velocity": 69}, {"time": 3227, "pitch": 82, "duration": 61, "velocity": 40}, {"time": 3348, "pitch": 69, "duration": 60, "velocity": 72}, {"time": 3468, "pitch": 82, "duration": 59, "velocity": 40}, {"time": 3587, "pitch": 69, "duration": 60, "velocity": 67}, {"time": 3706, "pitch": 82, "duration": 60, "velocity": 40}, {"time": 3826, "pitch": 69, "duration": 61, "velocity": 72}, {"time": 3948, "pitch": 82, "duration": 72, "velocity": 40}, {"time": 4072, "pitch": 69, "duration": 60, "velocity": 72}, {"time": 4194, "pitch": 82, "duration": 62, "velocity": 40}, {"time": 4317, "pitch": 69, "duration": 51, "velocity": 74}, {"time": 4439, "pitch": 82, "duration": 50, "velocity": 40}, {"time": 4560, "pitch": 69, "duration": 50, "velocity": 71}, {"time": 4681, "pitch": 82, "duration": 61, "velocity": 40}, {"time": 4802, "pitch": 69, "duration": 60, "velocity": 74}, {"time": 4922, "pitch": 82, "duration": 59, "velocity": 40}, {"time": 5041, "pitch": 69, "duration": 60, "velocity": 66}, {"time": 5160, "pitch": 82, "duration": 60, "velocity": 40}, {"time": 5280, "pitch": 69, "duration": 59, "velocity": 75}, {"time": 5399, "pitch": 82, "duration": 60, "velocity": 40}, {"time": 5519, "pitch": 69, "duration": 59, "velocity": 74}, {"time": 5638, "pitch": 82, "duration": 70, "velocity": 40}, {"time": 5757, "pitch": 69, "duration": 61, "velocity": 72}, {"time": 5879, "pitch": 82, "duration": 50, "velocity": 40}, {"time": 6000, "pitch": 69, "duration": 60, "velocity": 64}, {"time": 6121, "pitch": 82, "duration": 50, "velocity": 40}, {"time": 6242, "pitch": 69, "duration": 58, "velocity": 71}, {"time": 6359, "pitch": 82, "duration": 57, "velocity": 40}, {"time": 6474, "pitch": 69, "duration": 68, "velocity": 61}, {"time": 6590, "pitch": 82, "duration": 58, "velocity": 40}, {"time": 6706, "pitch": 69, "duration": 69, "velocity": 69}, {"time": 6825, "pitch": 82, "duration": 60, "velocity": 40}, {"time": 6945, "pitch": 69, "duration": 69, "velocity": 69}, {"time": 7064, "pitch": 82, "duration": 60, "velocity": 40}, {"time": 7183, "pitch": 69, "duration": 61, "velocity": 72}, {"time": 7305, "pitch": 82, "duration": 60, "velocity": 40}, {"time": 7426, "pitch": 69, "duration": 60, "velocity": 67}, {"time": 7547, "pitch": 82, "duration": 61, "velocity": 40}, {"time": 7668, "pitch": 69, "duration": 59, "velocity": 72}, {"time": 7786, "pitch": 82, "duration": 68, "velocity": 40}, {"time": 7904, "pitch": 69, "duration": 59, "velocity": 72}, {"time": 8021, "pitch": 82, "duration": 59, "velocity": 40}, {"time": 8139, "pitch": 69, "duration": 50, "velocity": 74}, {"time": 8262, "pitch": 82, "duration": 53, "velocity": 40}, {"time": 8388, "pitch": 69, "duration": 51, "velocity": 71}, {"time": 8512, "pitch": 82, "duration": 63, "velocity": 40}, {"time": 8637, "pitch": 69, "duration": 61, "velocity": 74}, {"time": 8758, "pitch": 82, "duration": 61, "velocity": 40}, {"time": 8880, "pitch": 69, "duration": 60, "velocity": 66}, {"time": 9001, "pitch": 82, "duration": 61, "velocity": 40}, {"time": 9122, "pitch": 69, "duration": 60, "velocity": 75}, {"time": 9241, "pitch": 82, "duration": 60, "velocity": 40}, {"time": 9361, "pitch": 69, "duration": 60, "velocity": 74}, {"time": 9480, "pitch": 82, "duration": 70, "velocity": 40}, {"time": 9600, "pitch": 69, "duration": 59, "velocity": 72}, {"time": 9719, "pitch": 82, "duration": 50, "velocity": 40}, {"time": 9838, "pitch": 69, "duration": 60, "velocity": 64}, {"time": 9958, "pitch": 82, "duration": 50, "velocity": 40}, {"time": 10077, "pitch": 69, "duration": 61, "velocity": 71}, {"time": 10198, "pitch": 82, "duration": 61, "velocity": 40}, {"time": 10320, "pitch": 69, "duration": 70, "velocity": 61}, {"time": 10441, "pitch": 82, "duration": 60, "velocity": 40}, {"time": 10562, "pitch": 69, "duration": 70, "velocity": 69}, {"time": 10681, "pitch": 82, "duration": 60, "velocity": 40}, {"time": 10801, "pitch": 69, "duration": 69, "velocity": 69}, {"time": 10920, "pitch": 82, "duration": 60, "velocity": 40}, {"time": 11040, "pitch": 69, "duration": 59, "velocity": 72}, {"time": 11159, "pitch": 82, "duration": 60, "velocity": 40}, {"time": 11278, "pitch": 69, "duration": 60, "velocity": 67}, {"time": 11398, "pitch": 82, "duration": 60, "velocity": 40}, {"time": 11517, "pitch": 69, "duration": 59, "velocity": 72}, {"time": 11635, "pitch": 82, "duration": 69, "velocity": 40}, {"time": 11753, "pitch": 69, "duration": 58, "velocity": 72}, {"time": 11871, "pitch": 82, "duration": 58, "velocity": 40}, {"time": 11988, "pitch": 69, "duration": 51, "velocity": 74}, {"time": 12110, "pitch": 82, "duration": 52, "velocity": 40}, {"time": 12234, "pitch": 69, "duration": 51, "velocity": 71}, {"time": 12356, "pitch": 82, "duration": 62, "velocity": 40}, {"time": 12480, "pitch": 69, "duration": 59, "velocity": 74}, {"time": 12599, "pitch": 82, "duration": 60, "velocity": 40}, {"time": 12718, "pitch": 69, "duration": 60, "velocity": 66}, {"time": 12838, "pitch": 82, "duration": 60, "velocity": 40}, {"time": 12957, "pitch": 69, "duration": 61, "velocity": 75}, {"time": 13078, "pitch": 82, "duration": 61, "velocity": 40}, {"time": 13200, "pitch": 69, "duration": 60, "velocity": 74}, {"time": 13321, "pitch": 82, "duration": 70, "velocity": 40}, {"time": 13442, "pitch": 69, "duration": 60, "velocity": 72}, {"time": 13561, "pitch": 82, "duration": 50, "velocity": 40}, {"time": 13681, "pitch": 69, "duration": 59, "velocity": 64}, {"time": 13800, "pitch": 82, "duration": 50, "velocity": 40}, {"time": 13920, "pitch": 69, "duration": 59, "velocity": 71}, {"time": 14039, "pitch": 82, "duration": 60, "velocity": 40}, {"time": 14158, "pitch": 69, "duration": 70, "velocity": 61}, {"time": 14278, "pitch": 82, "duration": 59, "velocity": 40}, {"time": 14397, "pitch": 69, "duration": 71, "velocity": 69}, {"time": 14518, "pitch": 82, "duration": 61, "velocity": 40}, {"time": 14640, "pitch": 69, "duration": 70, "velocity": 69}, {"time": 14761, "pitch": 82, "duration": 60, "velocity": 40}, {"time": 14882, "pitch": 69, "duration": 60, "velocity": 72}, {"time": 15001, "pitch": 82, "duration": 60, "velocity": 40}, {"time": 15121, "pitch": 69, "duration": 59, "velocity": 67}, {"time": 15240, "pitch": 82, "duration": 60, "velocity": 40}, {"time": 15360, "pitch": 69, "duration": 62, "velocity": 72}, {"time": 15484, "pitch": 82, "duration": 74, "velocity": 40}, {"time": 15609, "pitch": 69, "duration": 63, "velocity": 72}, {"time": 15735, "pitch": 82, "duration": 61, "velocity": 40}, {"time": 15857, "pitch": 69, "duration": 49, "velocity": 74}, {"time": 15973, "pitch": 82, "duration": 49, "velocity": 40}, {"time": 16090, "pitch": 69, "duration": 48, "velocity": 71}, {"time": 16206, "pitch": 82, "duration": 57, "velocity": 40}, {"time": 16322, "pitch": 69, "duration": 60, "velocity": 74}, {"time": 16441, "pitch": 82, "duration": 60, "velocity": 40}, {"time": 16561, "pitch": 69, "duration": 59, "velocity": 66}, {"time": 16680, "pitch": 82, "duration": 60, "velocity": 40}, {"time": 16799, "pitch": 69, "duration": 60, "velocity": 75}, {"time": 16919, "pitch": 82, "duration": 60, "velocity": 40}, {"time": 17038, "pitch": 69, "duration": 60, "velocity": 74}, {"time": 17158, "pitch": 82, "duration": 69, "velocity": 40}, {"time": 17277, "pitch": 69, "duration": 61, "velocity": 72}, {"time": 17398, "pitch": 82, "duration": 51, "velocity": 40}, {"time": 17519, "pitch": 69, "duration": 61, "velocity": 64}, {"time": 17641, "pitch": 82, "duration": 50, "velocity": 40}, {"time": 17762, "pitch": 69, "duration": 60, "velocity": 71}, {"time": 17881, "pitch": 82, "duration": 60, "velocity": 40}, {"time": 18001, "pitch": 69, "duration": 69, "velocity": 61}, {"time": 18120, "pitch": 82, "duration": 60, "velocity": 40}, {"time": 18239, "pitch": 69, "duration": 70, "velocity": 69}, {"time": 18359, "pitch": 82, "duration": 60, "velocity": 40}, {"time": 18478, "pitch": 69, "duration": 70, "velocity": 69}, {"time": 18598, "pitch": 82, "duration": 59, "velocity": 40}, {"time": 18717, "pitch": 69, "duration": 61, "velocity": 72}, {"time": 18838, "pitch": 82, "duration": 61, "velocity": 40}, {"time": 18959, "pitch": 69, "duration": 61, "velocity": 67}, {"time": 19081, "pitch": 82, "duration": 60, "velocity": 40}, {"time": 19202, "pitch": 69, "duration": 60, "velocity": 72}, {"time": 19321, "pitch": 82, "duration": 70, "velocity": 40}, {"time": 19441, "pitch": 69, "duration": 59, "velocity": 72}, {"time": 19560, "pitch": 82, "duration": 60, "velocity": 40}, {"time": 19679, "pitch": 69, "duration": 50, "velocity": 74}, {"time": 19799, "pitch": 82, "duration": 50, "velocity": 40}, {"time": 19918, "pitch": 69, "duration": 50, "velocity": 71}, {"time": 20038, "pitch": 82, "duration": 59, "velocity": 40}, {"time": 20157, "pitch": 69, "duration": 61, "velocity": 74}, {"time": 20278, "pitch": 82, "duration": 61, "velocity": 40}, {"time": 20399, "pitch": 69, "duration": 61, "velocity": 66}, {"time": 20521, "pitch": 82, "duration": 60, "velocity": 40}, {"time": 20642, "pitch": 69, "duration": 59, "velocity": 75}, {"time": 20761, "pitch": 82, "duration": 60, "velocity": 40}, {"time": 20881, "pitch": 69, "duration": 59, "velocity": 74}, {"time": 21000, "pitch": 82, "duration": 70, "velocity": 40}, {"time": 21119, "pitch": 69, "duration": 60, "velocity": 72}, {"time": 21239, "pitch": 82, "duration": 50, "velocity": 40}, {"time": 21358, "pitch": 69, "duration": 60, "velocity": 64}, {"time": 21478, "pitch": 82, "duration": 49, "velocity": 40}, {"time": 21597, "pitch": 69, "duration": 61, "velocity": 71}, {"time": 21718, "pitch": 82, "duration": 61, "velocity": 40}, {"time": 21839, "pitch": 69, "duration": 71, "velocity": 61}, {"time": 21961, "pitch": 82, "duration": 60, "velocity": 40}, {"time": 22082, "pitch": 69, "duration": 69, "velocity": 69}, {"time": 22201, "pitch": 82, "duration": 60, "velocity": 40}, {"time": 22321, "pitch": 69, "duration": 69, "velocity": 69}, {"time": 22440, "pitch": 82, "duration": 60, "velocity": 40}, {"time": 22559, "pitch": 69, "duration": 60, "velocity": 72}, {"time": 22679, "pitch": 82, "duration": 59, "velocity": 40}, {"time": 22798, "pitch": 69, "duration": 60, "velocity": 67}, {"time": 22918, "pitch": 82, "duration": 59, "velocity": 40}, {"time": 23037, "pitch": 69, "duration": 61, "velocity": 72}, {"time": 23158, "pitch": 82, "duration": 71, "velocity": 40}, {"time": 23279, "pitch": 69, "duration": 61, "velocity": 72}, {"time": 23401, "pitch": 82, "duration": 60, "velocity": 40}, {"time": 23522, "pitch": 69, "duration": 49, "velocity": 74}, {"time": 23641, "pitch": 82, "duration": 50, "velocity": 40}, {"time": 23761, "pitch": 69, "duration": 49, "velocity": 71}, {"time": 23880, "pitch": 82, "duration": 60, "velocity": 40}, {"time": 23999, "pitch": 69, "duration": 60, "velocity": 74}, {"time": 24119, "pitch": 82, "duration": 59, "velocity": 40}, {"time": 24238, "pitch": 69, "duration": 60, "velocity": 66}, {"time": 24358, "pitch": 82, "duration": 59, "velocity": 40}, {"time": 24477, "pitch": 69, "duration": 60, "velocity": 75}, {"time": 24598, "pitch": 82, "duration": 61, "velocity": 40}, {"time": 24719, "pitch": 69, "duration": 61, "velocity": 74}, {"time": 24841, "pitch": 82, "duration": 70, "velocity": 40}, {"time": 24962, "pitch": 69, "duration": 59, "velocity": 72}, {"time": 25081, "pitch": 82, "duration": 50, "velocity": 40}, {"time": 25200, "pitch": 69, "duration": 60, "velocity": 64}, {"time": 25320, "pitch": 82, "duration": 50, "velocity": 40}, {"time": 25439, "pitch": 69, "duration": 60, "velocity": 71}, {"time": 25559, "pitch": 82, "duration": 59, "velocity": 40}, {"time": 25678, "pitch": 69, "duration": 70, "velocity": 61}, {"time": 25797, "pitch": 82, "duration": 60, "velocity": 40}, {"time": 25917, "pitch": 69, "duration": 71, "velocity": 69}, {"time": 26038, "pitch": 82, "duration": 61, "velocity": 40}, {"time": 26159, "pitch": 69, "duration": 71, "velocity": 69}, {"time": 26280, "pitch": 82, "duration": 61, "velocity": 40}, {"time": 26402, "pitch": 69, "duration": 59, "velocity": 72}, {"time": 26521, "pitch": 82, "duration": 60, "velocity": 40}, {"time": 26640, "pitch": 69, "duration": 60, "velocity": 67}, {"time": 26760, "pitch": 82, "duration": 60, "velocity": 40}, {"time": 26879, "pitch": 69, "duration": 60, "velocity": 72}, {"time": 26999, "pitch": 82, "duration": 69, "velocity": 40}, {"time": 27118, "pitch": 69, "duration": 60, "velocity": 72}, {"time": 27237, "pitch": 82, "duration": 60, "velocity": 40}, {"time": 27357, "pitch": 69, "duration": 50, "velocity": 74}, {"time": 27478, "pitch": 82, "duration": 51, "velocity": 40}, {"time": 27599, "pitch": 69, "duration": 51, "velocity": 71}, {"time": 27720, "pitch": 82, "duration": 61, "velocity": 40}, {"time": 27842, "pitch": 69, "duration": 59, "velocity": 74}, {"time": 27961, "pitch": 82, "duration": 60, "velocity": 40}, {"time": 28080, "pitch": 69, "duration": 60, "velocity": 66}, {"time": 28200, "pitch": 82, "duration": 60, "velocity": 40}, {"time": 28319, "pitch": 69, "duration": 60, "velocity": 75}, {"time": 28439, "pitch": 82, "duration": 59, "velocity": 40}, {"time": 28558, "pitch": 69, "duration": 60, "velocity": 74}, {"time": 28677, "pitch": 82, "duration": 70, "velocity": 40}, {"time": 28797, "pitch": 69, "duration": 60, "velocity": 72}, {"time": 28918, "pitch": 82, "duration": 50, "velocity": 40}, {"time": 29039, "pitch": 69, "duration": 61, "velocity": 64}, {"time": 29160, "pitch": 82, "duration": 51, "velocity": 40}, {"time": 29282, "pitch": 69, "duration": 59, "velocity": 71}, {"time": 29401, "pitch": 82, "duration": 60, "velocity": 40}, {"time": 29520, "pitch": 69, "duration": 70, "velocity": 61}, {"time": 29640, "pitch": 82, "duration": 59, "velocity": 40}, {"time": 29759, "pitch": 69, "duration": 70, "velocity": 69}, {"time": 29879, "pitch": 82, "duration": 59, "velocity": 40}, {"time": 29998, "pitch": 69, "duration": 70, "velocity": 69}, {"time": 30117, "pitch": 82, "duration": 60, "velocity": 40}, {"time": 30237, "pitch": 69, "duration": 60, "velocity": 72}, {"time": 30358, "pitch": 82, "duration": 61, "velocity": 40}, {"time": 30479, "pitch": 69, "duration": 61, "velocity": 67}, {"time": 30600, "pitch": 82, "duration": 61, "velocity": 40}, {"time": 30722, "pitch": 69, "duration": 59, "velocity": 72}, {"time": 30841, "pitch": 82, "duration": 70, "velocity": 40}, {"time": 30960, "pitch": 69, "duration": 60, "velocity": 72}, {"time": 31080, "pitch": 82, "duration": 59, "velocity": 40}, {"time": 31199, "pitch": 69, "duration": 50, "velocity": 74}, {"time": 31319, "pitch": 82, "duration": 49, "velocity": 40}, {"time": 31438, "pitch": 69, "duration": 50, "velocity": 71}, {"time": 31557, "pitch": 82, "duration": 60, "velocity": 40}, {"time": 31677, "pitch": 69, "duration": 60, "velocity": 74}, {"time": 31798, "pitch": 82, "duration": 61, "velocity": 40}, {"time": 31919, "pitch": 69, "duration": 61, "velocity": 66}, {"time": 32040, "pitch": 82, "duration": 61, "velocity": 40}, {"time": 32162, "pitch": 69, "duration": 59, "velocity": 75}, {"time": 32281, "pitch": 82, "duration": 60, "velocity": 40}, {"time": 32400, "pitch": 69, "duration": 60, "velocity": 74}, {"time": 32520, "pitch": 82, "duration": 69, "velocity": 40}, {"time": 32639, "pitch": 69, "duration": 60, "velocity": 72}, {"time": 32759, "pitch": 82, "duration": 49, "velocity": 40}, {"time": 32878, "pitch": 69, "duration": 60, "velocity": 64}, {"time": 32997, "pitch": 82, "duration": 50, "velocity": 40}, {"time": 33117, "pitch": 69, "duration": 60, "velocity": 71}, {"time": 33238, "pitch": 82, "duration": 60, "velocity": 40}, {"time": 33359, "pitch": 69, "duration": 71, "velocity": 61}, {"time": 33480, "pitch": 82, "duration": 61, "velocity": 40}, {"time": 33601, "pitch": 69, "duration": 70, "velocity": 69}, {"time": 33721, "pitch": 82, "duration": 60, "velocity": 40}, {"time": 33840, "pitch": 69, "duration": 70, "velocity": 69}, {"time": 33960, "pitch": 82, "duration": 59, "velocity": 40}, {"time": 34079, "pitch": 69, "duration": 60, "velocity": 72}, {"time": 34198, "pitch": 82, "duration": 60, "velocity": 40}, {"time": 34318, "pitch": 69, "duration": 60, "velocity": 67}, {"time": 34437, "pitch": 82, "duration": 60, "velocity": 40}, {"time": 34557, "pitch": 69, "duration": 60, "velocity": 72}, {"time": 34678, "pitch": 82, "duration": 71, "velocity": 40}, {"time": 34799, "pitch": 69, "duration": 61, "velocity": 72}, {"time": 34920, "pitch": 82, "duration": 61, "velocity": 40}, {"time": 35041, "pitch": 69, "duration": 50, "velocity": 74}, {"time": 35161, "pitch": 82, "duration": 50, "velocity": 40}, {"time": 35280, "pitch": 69, "duration": 50, "velocity": 71}, {"time": 35400, "pitch": 82, "duration": 59, "velocity": 40}, {"time": 35519, "pitch": 69, "duration": 60, "velocity": 74}, {"time": 35638, "pitch": 82, "duration": 60, "velocity": 40}, {"time": 35758, "pitch": 69, "duration": 60, "velocity": 66}, {"time": 35877, "pitch": 82, "duration": 60, "velocity": 40}, {"time": 35997, "pitch": 69, "duration": 60, "velocity": 75}, {"time": 36118, "pitch": 82, "duration": 60, "velocity": 40}, {"time": 36239, "pitch": 69, "duration": 61, "velocity": 74}, {"time": 36360, "pitch": 82, "duration": 71, "velocity": 40}, {"time": 36481, "pitch": 69, "duration": 60, "velocity": 72}, {"time": 36601, "pitch": 82, "duration": 50, "velocity": 40}, {"time": 36720, "pitch": 69, "duration": 60, "velocity": 64}, {"time": 36840, "pitch": 82, "duration": 49, "velocity": 40}, {"time": 36959, "pitch": 69, "duration": 60, "velocity": 71}, {"time": 37078, "pitch": 82, "duration": 60, "velocity": 40}, {"time": 37198, "pitch": 69, "duration": 69, "velocity": 61}, {"time": 37317, "pitch": 82, "duration": 60, "velocity": 40}, {"time": 37437, "pitch": 69, "duration": 70, "velocity": 69}, {"time": 37558, "pitch": 82, "duration": 60, "velocity": 40}, {"time": 37679, "pitch": 69, "duration": 71, "velocity": 69}, {"time": 37800, "pitch": 82, "duration": 61, "velocity": 40}, {"time": 37921, "pitch": 69, "duration": 60, "velocity": 72}, {"time": 38041, "pitch": 82, "duration": 59, "velocity": 40}, {"time": 38160, "pitch": 69, "duration": 60, "velocity": 67}, {"time": 38280, "pitch": 82, "duration": 59, "velocity": 40}, {"time": 38399, "pitch": 69, "duration": 60, "velocity": 72}, {"time": 38518, "pitch": 82, "duration": 70, "velocity": 40}, {"time": 38638, "pitch": 69, "duration": 59, "velocity": 72}, {"time": 38757, "pitch": 82, "duration": 60, "velocity": 40}, {"time": 38877, "pitch": 69, "duration": 50, "velocity": 74}, {"time": 38998, "pitch": 82, "duration": 50, "velocity": 40}, {"time": 39119, "pitch": 69, "duration": 50, "velocity": 71}, {"time": 39240, "pitch": 82, "duration": 61, "velocity": 40}, {"time": 39361, "pitch": 69, "duration": 60, "velocity": 74}, {"time": 39481, "pitch": 82, "duration": 59, "velocity": 40}, {"time": 39600, "pitch": 69, "duration": 60, "velocity": 66}, {"time": 39720, "pitch": 82, "duration": 59, "velocity": 40}, {"time": 39839, "pitch": 69, "duration": 60, "velocity": 75}, {"time": 39958, "pitch": 82, "duration": 60, "velocity": 40}, {"time": 40078, "pitch": 69, "duration": 59, "velocity": 74}, {"time": 40197, "pitch": 82, "duration": 70, "velocity": 40}, {"time": 40317, "pitch": 69, "duration": 60, "velocity": 72}, {"time": 40438, "pitch": 82, "duration": 50, "velocity": 40}, {"time": 40559, "pitch": 69, "duration": 60, "velocity": 64}, {"time": 40680, "pitch": 82, "duration": 51, "velocity": 40}, {"time": 40801, "pitch": 69, "duration": 60, "velocity": 71}, {"time": 40921, "pitch": 82, "duration": 59, "velocity": 40}, {"time": 41040, "pitch": 69, "duration": 70, "velocity": 61}, {"time": 41159, "pitch": 82, "duration": 60, "velocity": 40}, {"time": 41279, "pitch": 69, "duration": 70, "velocity": 69}, {"time": 41398, "pitch": 82, "duration": 60, "velocity": 40}, {"time": 41518, "pitch": 69, "duration": 69, "velocity": 69}, {"time": 41637, "pitch": 82, "duration": 60, "velocity": 40}, {"time": 41756, "pitch": 69, "duration": 61, "velocity": 72}, {"time": 41878, "pitch": 82, "duration": 60, "velocity": 40}, {"time": 41999, "pitch": 69, "duration": 60, "velocity": 67}, {"time": 42120, "pitch": 82, "duration": 61, "velocity": 40}, {"time": 42241, "pitch": 69, "duration": 60, "velocity": 72}, {"time": 42361, "pitch": 82, "duration": 69, "velocity": 40}, {"time": 42480, "pitch": 69, "duration": 60, "velocity": 72}, {"time": 42599, "pitch": 82, "duration": 60, "velocity": 40}, {"time": 42719, "pitch": 69, "duration": 50, "velocity": 74}, {"time": 42838, "pitch": 82, "duration": 50, "velocity": 40}, {"time": 42958, "pitch": 69, "duration": 49, "velocity": 71}, {"time": 43077, "pitch": 82, "duration": 60, "velocity": 40}, {"time": 43196, "pitch": 69, "duration": 61, "velocity": 74}, {"time": 43318, "pitch": 82, "duration": 60, "velocity": 40}, {"time": 43439, "pitch": 69, "duration": 60, "velocity": 66}, {"time": 43560, "pitch": 82, "duration": 61, "velocity": 40}, {"time": 43681, "pitch": 69, "duration": 60, "velocity": 75}, {"time": 43801, "pitch": 82, "duration": 59, "velocity": 40}, {"time": 43920, "pitch": 69, "duration": 60, "velocity": 74}, {"time": 44039, "pitch": 82, "duration": 70, "velocity": 40}, {"time": 44159, "pitch": 69, "duration": 60, "velocity": 72}, {"time": 44280, "pitch": 82, "duration": 51, "velocity": 40}, {"time": 44401, "pitch": 69, "duration": 61, "velocity": 64}, {"time": 44522, "pitch": 82, "duration": 51, "velocity": 40}, {"time": 44644, "pitch": 69, "duration": 59, "velocity": 71}, {"time": 44763, "pitch": 82, "duration": 60, "velocity": 40}, {"time": 44882, "pitch": 69, "duration": 70, "velocity": 61}, {"time": 45002, "pitch": 82, "duration": 59, "velocity": 40}, {"time": 45121, "pitch": 69, "duration": 70, "velocity": 69}, {"time": 45241, "pitch": 82, "duration": 59, "velocity": 40}, {"time": 45360, "pitch": 69, "duration": 70, "velocity": 69}, {"time": 45479, "pitch": 82, "duration": 60, "velocity": 40}, {"time": 45599, "pitch": 69, "duration": 60, "velocity": 72}, {"time": 45720, "pitch": 82, "duration": 61, "velocity": 40}, {"time": 45841, "pitch": 69, "duration": 61, "velocity": 67}, {"time": 45962, "pitch": 82, "duration": 61, "velocity": 40}, {"time": 46084, "pitch": 69, "duration": 59, "velocity": 72}, {"time": 46203, "pitch": 82, "duration": 70, "velocity": 40}, {"time": 46322, "pitch": 69, "duration": 60, "velocity": 72}, {"time": 46442, "pitch": 82, "duration": 59, "velocity": 40}, {"time": 46561, "pitch": 69, "duration": 50, "velocity": 74}, {"time": 46681, "pitch": 82, "duration": 49, "velocity": 40}, {"time": 46800, "pitch": 69, "duration": 50, "velocity": 71}, {"time": 46919, "pitch": 82, "duration": 60, "velocity": 40}, {"time": 47039, "pitch": 69, "duration": 60, "velocity": 74}, {"time": 47160, "pitch": 82, "duration": 61, "velocity": 40}, {"time": 47281, "pitch": 69, "duration": 61, "velocity": 66}, {"time": 47402, "pitch": 82, "duration": 61, "velocity": 40}, {"time": 47524, "pitch": 69, "duration": 59, "velocity": 75}, {"time": 47643, "pitch": 82, "duration": 60, "velocity": 40}, {"time": 47762, "pitch": 69, "duration": 60, "velocity": 74}, {"time": 47882, "pitch": 82, "duration": 69, "velocity": 40}, {"time": 48001, "pitch": 69, "duration": 60, "velocity": 72}, {"time": 48121, "pitch": 82, "duration": 49, "velocity": 40}, {"time": 48240, "pitch": 69, "duration": 60, "velocity": 64}, {"time": 48359, "pitch": 82, "duration": 50, "velocity": 40}, {"time": 48479, "pitch": 69, "duration": 60, "velocity": 71}, {"time": 48600, "pitch": 82, "duration": 61, "velocity": 40}, {"time": 48721, "pitch": 69, "duration": 71, "velocity": 61}, {"time": 48842, "pitch": 82, "duration": 61, "velocity": 40}, {"time": 48963, "pitch": 69, "duration": 70, "velocity": 69}, {"time": 49083, "pitch": 82, "duration": 60, "velocity": 40}, {"time": 49202, "pitch": 69, "duration": 70, "velocity": 69}, {"time": 49322, "pitch": 82, "duration": 59, "velocity": 40}, {"time": 49441, "pitch": 69, "duration": 60, "velocity": 72}, {"time": 49560, "pitch": 82, "duration": 60, "velocity": 40}, {"time": 49680, "pitch": 69, "duration": 60, "velocity": 67}, {"time": 49799, "pitch": 82, "duration": 60, "velocity": 40}, {"time": 49919, "pitch": 69, "duration": 60, "velocity": 72}, {"time": 50040, "pitch": 82, "duration": 71, "velocity": 40}, {"time": 50161, "pitch": 69, "duration": 61, "velocity": 72}, {"time": 50282, "pitch": 82, "duration": 61, "velocity": 40}, {"time": 50403, "pitch": 69, "duration": 50, "velocity": 74}, {"time": 50523, "pitch": 82, "duration": 50, "velocity": 40}, {"time": 50642, "pitch": 69, "duration": 50, "velocity": 71}, {"time": 50762, "pitch": 82, "duration": 59, "velocity": 40}, {"time": 50881, "pitch": 69, "duration": 60, "velocity": 74}, {"time": 51000, "pitch": 82, "duration": 60, "velocity": 40}, {"time": 51120, "pitch": 69, "duration": 60, "velocity": 66}, {"time": 51239, "pitch": 82, "duration": 60, "velocity": 40}, {"time": 51359, "pitch": 69, "duration": 60, "velocity": 75}, {"time": 51480, "pitch": 82, "duration": 60, "velocity": 40}, {"time": 51601, "pitch": 69, "duration": 61, "velocity": 74}, {"time": 51722, "pitch": 82, "duration": 71, "velocity": 40}, {"time": 51843, "pitch": 69, "duration": 60, "velocity": 72}, {"time": 51963, "pitch": 82, "duration": 50, "velocity": 40}, {"time": 52082, "pitch": 69, "duration": 60, "velocity": 64}, {"time": 52202, "pitch": 82, "duration": 49, "velocity": 40}, {"time": 52321, "pitch": 69, "duration": 60, "velocity": 71}, {"time": 52440, "pitch": 82, "duration": 60, "velocity": 40}, {"time": 52560, "pitch": 69, "duration": 69, "velocity": 61}, {"time": 52679, "pitch": 82, "duration": 60, "velocity": 40}, {"time": 52799, "pitch": 69, "duration": 70, "velocity": 69}, {"time": 52920, "pitch": 82, "duration": 60, "velocity": 40}, {"time": 53041, "pitch": 69, "duration": 71, "velocity": 69}, {"time": 53162, "pitch": 82, "duration": 61, "velocity": 40}, {"time": 53283, "pitch": 69, "duration": 60, "velocity": 72}, {"time": 53403, "pitch": 82, "duration": 59, "velocity": 40}, {"time": 53522, "pitch": 69, "duration": 60, "velocity": 67}, {"time": 53642, "pitch": 82, "duration": 59, "velocity": 40}, {"time": 53761, "pitch": 69, "duration": 60, "velocity": 72}, {"time": 53880, "pitch": 82, "duration": 70, "velocity": 40}, {"time": 54000, "pitch": 69, "duration": 59, "velocity": 72}, {"time": 54119, "pitch": 82, "duration": 60, "velocity": 40}, {"time": 54239, "pitch": 69, "duration": 50, "velocity": 74}, {"time": 54360, "pitch": 82, "duration": 50, "velocity": 40}, {"time": 54481, "pitch": 69, "duration": 50, "velocity": 71}, {"time": 54602, "pitch": 82, "duration": 61, "velocity": 40}, {"time": 54723, "pitch": 69, "duration": 60, "velocity": 74}, {"time": 54843, "pitch": 82, "duration": 59, "velocity": 40}, {"time": 54962, "pitch": 69, "duration": 60, "velocity": 66}, {"time": 55082, "pitch": 82, "duration": 59, "velocity": 40}, {"time": 55201, "pitch": 69, "duration": 60, "velocity": 75}, {"time": 55320, "pitch": 82, "duration": 60, "velocity": 40}, {"time": 55440, "pitch": 69, "duration": 59, "velocity": 74}, {"time": 55559, "pitch": 82, "duration": 70, "velocity": 40}, {"time": 55679, "pitch": 69, "duration": 60, "velocity": 72}, {"time": 55800, "pitch": 82, "duration": 50, "velocity": 40}, {"time": 55921, "pitch": 69, "duration": 61, "velocity": 64}, {"time": 56042, "pitch": 82, "duration": 51, "velocity": 40}, {"time": 56163, "pitch": 69, "duration": 60, "velocity": 71}, {"time": 56283, "pitch": 82, "duration": 59, "velocity": 40}, {"time": 56402, "pitch": 69, "duration": 70, "velocity": 61}, {"time": 56521, "pitch": 82, "duration": 60, "velocity": 40}, {"time": 56641, "pitch": 69, "duration": 70, "velocity": 69}, {"time": 56760, "pitch": 82, "duration": 60, "velocity": 40}, {"time": 56880, "pitch": 69, "duration": 69, "velocity": 69}, {"time": 56999, "pitch": 82, "duration": 60, "velocity": 40}, {"time": 57118, "pitch": 69, "duration": 61, "velocity": 72}, {"time": 57240, "pitch": 82, "duration": 60, "velocity": 40}, {"time": 57361, "pitch": 69, "duration": 60, "velocity": 67}, {"time": 57482, "pitch": 82, "duration": 61, "velocity": 40}, {"time": 57603, "pitch": 69, "duration": 60, "velocity": 72}, {"time": 57723, "pitch": 82, "duration": 69, "velocity": 40}, {"time": 57842, "pitch": 69, "duration": 60, "velocity": 72}, {"time": 57961, "pitch": 82, "duration": 60, "velocity": 40}, {"time": 58081, "pitch": 69, "duration": 50, "velocity": 74}, {"time": 58200, "pitch": 82, "duration": 50, "velocity": 40}, {"time": 58320, "pitch": 69, "duration": 49, "velocity": 71}, {"time": 58439, "pitch": 82, "duration": 60, "velocity": 40}, {"time": 58558, "pitch": 69, "duration": 61, "velocity": 74}, {"time": 58680, "pitch": 82, "duration": 60, "velocity": 40}, {"time": 58801, "pitch": 69, "duration": 60, "velocity": 66}, {"time": 58922, "pitch": 82, "duration": 61, "velocity": 40}, {"time": 59043, "pitch": 69, "duration": 60, "velocity": 75}, {"time": 59163, "pitch": 82, "duration": 59, "velocity": 40}, {"time": 59282, "pitch": 69, "duration": 60, "velocity": 74}, {"time": 59401, "pitch": 82, "duration": 70, "velocity": 40}, {"time": 59521, "pitch": 69, "duration": 60, "velocity": 72}, {"time": 59640, "pitch": 82, "duration": 50, "velocity": 40}, {"time": 59760, "pitch": 69, "duration": 59, "velocity": 64}, {"time": 59879, "pitch": 82, "duration": 50, "velocity": 40}, {"time": 59998, "pitch": 69, "duration": 61, "velocity": 71}, {"time": 60120, "pitch": 82, "duration": 60, "velocity": 40}, {"time": 60241, "pitch": 69, "duration": 71, "velocity": 61}, {"time": 60362, "pitch": 82, "duration": 61, "velocity": 40}, {"time": 60483, "pitch": 69, "duration": 70, "velocity": 69}, {"time": 60603, "pitch": 82, "duration": 59, "velocity": 40}, {"time": 60722, "pitch": 69, "duration": 70, "velocity": 69}, {"time": 60841, "pitch": 82, "duration": 60, "velocity": 40}, {"time": 60961, "pitch": 69, "duration": 59, "velocity": 72}, {"time": 61080, "pitch": 82, "duration": 60, "velocity": 40}, {"time": 61200, "pitch": 69, "duration": 59, "velocity": 67}, {"time": 61319, "pitch": 82, "duration": 60, "velocity": 40}, {"time": 61438, "pitch": 69, "duration": 61, "velocity": 72}, {"time": 61560, "pitch": 82, "duration": 70, "velocity": 40}, {"time": 61681, "pitch": 69, "duration": 60, "velocity": 72}, {"time": 61802, "pitch": 82, "duration": 61, "velocity": 40}, {"time": 61923, "pitch": 69, "duration": 50, "velocity": 74}, {"time": 62043, "pitch": 82, "duration": 49, "velocity": 40}, {"time": 62162, "pitch": 69, "duration": 50, "velocity": 71}, {"time": 62281, "pitch": 82, "duration": 60, "velocity": 40}, {"time": 62401, "pitch": 69, "duration": 59, "velocity": 74}, {"time": 62520, "pitch": 82, "duration": 60, "velocity": 40}, {"time": 62640, "pitch": 69, "duration": 59, "velocity": 66}, {"time": 62759, "pitch": 82, "duration": 60, "velocity": 40}, {"time": 62878, "pitch": 69, "duration": 61, "velocity": 75}, {"time": 63000, "pitch": 82, "duration": 60, "velocity": 40}, {"time": 63121, "pitch": 69, "duration": 60, "velocity": 74}, {"time": 63242, "pitch": 82, "duration": 71, "velocity": 40}, {"time": 63363, "pitch": 69, "duration": 60, "velocity": 72}, {"time": 63483, "pitch": 82, "duration": 49, "velocity": 40}, {"time": 63602, "pitch": 69, "duration": 60, "velocity": 64}, {"time": 63721, "pitch": 82, "duration": 50, "velocity": 40}, {"time": 63841, "pitch": 69, "duration": 59, "velocity": 71}, {"time": 63960, "pitch": 82, "duration": 60, "velocity": 40}, {"time": 64080, "pitch": 69, "duration": 69, "velocity": 61}, {"time": 64199, "pitch": 82, "duration": 60, "velocity": 40}, {"time": 64318, "pitch": 69, "duration": 71, "velocity": 69}, {"time": 64440, "pitch": 82, "duration": 60, "velocity": 40}, {"time": 64561, "pitch": 69, "duration": 70, "velocity": 69}, {"time": 64682, "pitch": 82, "duration": 61, "velocity": 40}, {"time": 64803, "pitch": 69, "duration": 60, "velocity": 72}, {"time": 64922, "pitch": 82, "duration": 60, "velocity": 40}, {"time": 65042, "pitch": 69, "duration": 60, "velocity": 67}, {"time": 65161, "pitch": 82, "duration": 60, "velocity": 40}, {"time": 65281, "pitch": 69, "duration": 59, "velocity": 72}, {"time": 65400, "pitch": 82, "duration": 70, "velocity": 40}, {"time": 65519, "pitch": 69, "duration": 60, "velocity": 72}, {"time": 65639, "pitch": 82, "duration": 60, "velocity": 40}, {"time": 65758, "pitch": 69, "duration": 51, "velocity": 74}, {"time": 65879, "pitch": 82, "duration": 51, "velocity": 40}, {"time": 66001, "pitch": 69, "duration": 50, "velocity": 71}, {"time": 66122, "pitch": 82, "duration": 60, "velocity": 40}, {"time": 66243, "pitch": 69, "duration": 60, "velocity": 74}, {"time": 66362, "pitch": 82, "duration": 60, "velocity": 40}, {"time": 66482, "pitch": 69, "duration": 60, "velocity": 66}, {"time": 66601, "pitch": 82, "duration": 60, "velocity": 40}, {"time": 66721, "pitch": 69, "duration": 59, "velocity": 75}, {"time": 66840, "pitch": 82, "duration": 60, "velocity": 40}, {"time": 66959, "pitch": 69, "duration": 60, "velocity": 74}, {"time": 67079, "pitch": 82, "duration": 69, "velocity": 40}, {"time": 67198, "pitch": 69, "duration": 61, "velocity": 72}, {"time": 67319, "pitch": 82, "duration": 51, "velocity": 40}, {"time": 67441, "pitch": 69, "duration": 60, "velocity": 64}, {"time": 67562, "pitch": 82, "duration": 50, "velocity": 40}, {"time": 67683, "pitch": 69, "duration": 60, "velocity": 71}, {"time": 67802, "pitch": 82, "duration": 60, "velocity": 40}, {"time": 67922, "pitch": 69, "duration": 69, "velocity": 61}, {"time": 68041, "pitch": 82, "duration": 60, "velocity": 40}, {"time": 68161, "pitch": 69, "duration": 69, "velocity": 69}, {"time": 68280, "pitch": 82, "duration": 60, "velocity": 40}, {"time": 68399, "pitch": 69, "duration": 70, "velocity": 69}, {"time": 68519, "pitch": 82, "duration": 60, "velocity": 40}, {"time": 68638, "pitch": 69, "duration": 61, "velocity": 72}, {"time": 68759, "pitch": 82, "duration": 61, "velocity": 40}, {"time": 68881, "pitch": 69, "duration": 60, "velocity": 67}, {"time": 69002, "pitch": 82, "duration": 60, "velocity": 40}, {"time": 69123, "pitch": 69, "duration": 60, "velocity": 72}, {"time": 69242, "pitch": 82, "duration": 70, "velocity": 40}, {"time": 69362, "pitch": 69, "duration": 59, "velocity": 72}, {"time": 69481, "pitch": 82, "duration": 60, "velocity": 40}, {"time": 69601, "pitch": 69, "duration": 49, "velocity": 74}, {"time": 69720, "pitch": 82, "duration": 50, "velocity": 40}, {"time": 69839, "pitch": 69, "duration": 50, "velocity": 71}, {"time": 69959, "pitch": 82, "duration": 59, "velocity": 40}, {"time": 70078, "pitch": 69, "duration": 61, "velocity": 74}, {"time": 70199, "pitch": 82, "duration": 61, "velocity": 40}, {"time": 70321, "pitch": 69, "duration": 60, "velocity": 66}, {"time": 70442, "pitch": 82, "duration": 60, "velocity": 40}, {"time": 70563, "pitch": 69, "duration": 60, "velocity": 75}, {"time": 70682, "pitch": 82, "duration": 60, "velocity": 40}, {"time": 70802, "pitch": 69, "duration": 59, "velocity": 74}, {"time": 70921, "pitch": 82, "duration": 70, "velocity": 40}, {"time": 71041, "pitch": 69, "duration": 59, "velocity": 72}, {"time": 71160, "pitch": 82, "duration": 50, "velocity": 40}, {"time": 71279, "pitch": 69, "duration": 60, "velocity": 64}, {"time": 71399, "pitch": 82, "duration": 49, "velocity": 40}, {"time": 71518, "pitch": 69, "duration": 61, "velocity": 71}, {"time": 71639, "pitch": 82, "duration": 61, "velocity": 40}, {"time": 71761, "pitch": 69, "duration": 70, "velocity": 61}, {"time": 71882, "pitch": 82, "duration": 60, "velocity": 40}, {"time": 72003, "pitch": 69, "duration": 70, "velocity": 69}, {"time": 72122, "pitch": 82, "duration": 60, "velocity": 40}, {"time": 72242, "pitch": 69, "duration": 69, "velocity": 69}, {"time": 72361, "pitch": 82, "duration": 60, "velocity": 40}, {"time": 72481, "pitch": 69, "duration": 59, "velocity": 72}, {"time": 72600, "pitch": 82, "duration": 60, "velocity": 40}, {"time": 72719, "pitch": 69, "duration": 60, "velocity": 67}, {"time": 72839, "pitch": 82, "duration": 59, "velocity": 40}, {"time": 72958, "pitch": 69, "duration": 61, "velocity": 72}, {"time": 73079, "pitch": 82, "duration": 71, "velocity": 40}, {"time": 73200, "pitch": 69, "duration": 61, "velocity": 72}, {"time": 73322, "pitch": 82, "duration": 60, "velocity": 40}, {"time": 73443, "pitch": 69, "duration": 50, "velocity": 74}, {"time": 73562, "pitch": 82, "duration": 50, "velocity": 40}, {"time": 73682, "pitch": 69, "duration": 49, "velocity": 71}, {"time": 73801, "pitch": 82, "duration": 60, "velocity": 40}, {"time": 73920, "pitch": 69, "duration": 60, "velocity": 74}, {"time": 74040, "pitch": 82, "duration": 60, "velocity": 40}, {"time": 74159, "pitch": 69, "duration": 60, "velocity": 66}, {"time": 74279, "pitch": 82, "duration": 59, "velocity": 40}, {"time": 74398, "pitch": 69, "duration": 61, "velocity": 75}, {"time": 74519, "pitch": 82, "duration": 61, "velocity": 40}, {"time": 74640, "pitch": 69, "duration": 61, "velocity": 74}, {"time": 74762, "pitch": 82, "duration": 70, "velocity": 40}, {"time": 74883, "pitch": 69, "duration": 60, "velocity": 72}, {"time": 75002, "pitch": 82, "duration": 50, "velocity": 40}, {"time": 75122, "pitch": 69, "duration": 59, "velocity": 64}, {"time": 75241, "pitch": 82, "duration": 50, "velocity": 40}, {"time": 75360, "pitch": 69, "duration": 60, "velocity": 71}, {"time": 75480, "pitch": 82, "duration": 60, "velocity": 40}, {"time": 75599, "pitch": 69, "duration": 70, "velocity": 61}, {"time": 75719, "pitch": 82, "duration": 59, "velocity": 40}, {"time": 75838, "pitch": 69, "duration": 71, "velocity": 69}, {"time": 75959, "pitch": 82, "duration": 61, "velocity": 40}, {"time": 76080, "pitch": 69, "duration": 71, "velocity": 69}, {"time": 76202, "pitch": 82, "duration": 60, "velocity": 40}, {"time": 76323, "pitch": 69, "duration": 59, "velocity": 72}, {"time": 76442, "pitch": 82, "duration": 60, "velocity": 40}, {"time": 76562, "pitch": 69, "duration": 59, "velocity": 67}, {"time": 76681, "pitch": 82, "duration": 60, "velocity": 40}, {"time": 76800, "pitch": 69, "duration": 60, "velocity": 72}, {"time": 76920, "pitch": 82, "duration": 69, "velocity": 40}, {"time": 77039, "pitch": 69, "duration": 60, "velocity": 72}, {"time": 77159, "pitch": 82, "duration": 59, "velocity": 40}, {"time": 77278, "pitch": 69, "duration": 50, "velocity": 74}, {"time": 77399, "pitch": 82, "duration": 51, "velocity": 40}, {"time": 77520, "pitch": 69, "duration": 51, "velocity": 71}, {"time": 77642, "pitch": 82, "duration": 60, "velocity": 40}, {"time": 77763, "pitch": 69, "duration": 59, "velocity": 74}, {"time": 77882, "pitch": 82, "duration": 60, "velocity": 40}, {"time": 78002, "pitch": 69, "duration": 59, "velocity": 66}, {"time": 78121, "pitch": 82, "duration": 60, "velocity": 40}, {"time": 78240, "pitch": 69, "duration": 60, "velocity": 75}, {"time": 78360, "pitch": 82, "duration": 59, "velocity": 40}, {"time": 78479, "pitch": 69, "duration": 60, "velocity": 74}, {"time": 78599, "pitch": 82, "duration": 69, "velocity": 40}, {"time": 78718, "pitch": 69, "duration": 61, "velocity": 72}, {"time": 78839, "pitch": 82, "duration": 51, "velocity": 40}, {"time": 78960, "pitch": 69, "duration": 61, "velocity": 64}, {"time": 79082, "pitch": 82, "duration": 50, "velocity": 40}, {"time": 79203, "pitch": 69, "duration": 59, "velocity": 71}, {"time": 79322, "pitch": 82, "duration": 60, "velocity": 40}, {"time": 79442, "pitch": 69, "duration": 69, "velocity": 61}, {"time": 79561, "pitch": 82, "duration": 60, "velocity": 40}, {"time": 79680, "pitch": 69, "duration": 70, "velocity": 69}, {"time": 79800, "pitch": 82, "duration": 59, "velocity": 40}, {"time": 79919, "pitch": 69, "duration": 70, "velocity": 69}, {"time": 80039, "pitch": 82, "duration": 59, "velocity": 40}, {"time": 80158, "pitch": 69, "duration": 60, "velocity": 72}, {"time": 80279, "pitch": 82, "duration": 61, "velocity": 40}, {"time": 80400, "pitch": 69, "duration": 61, "velocity": 67}, {"time": 80522, "pitch": 82, "duration": 60, "velocity": 40}, {"time": 80643, "pitch": 69, "duration": 59, "velocity": 72}, {"time": 80762, "pitch": 82, "duration": 70, "velocity": 40}, {"time": 80881, "pitch": 69, "duration": 60, "velocity": 72}, {"time": 81001, "pitch": 82, "duration": 60, "velocity": 40}, {"time": 81120, "pitch": 69, "duration": 50, "velocity": 74}, {"time": 81240, "pitch": 82, "duration": 49, "velocity": 40}, {"time": 81359, "pitch": 69, "duration": 50, "velocity": 71}, {"time": 81478, "pitch": 82, "duration": 60, "velocity": 40}, {"time": 81598, "pitch": 69, "duration": 60, "velocity": 74}, {"time": 81719, "pitch": 82, "duration": 61, "velocity": 40}, {"time": 81840, "pitch": 69, "duration": 61, "velocity": 66}, {"time": 81961, "pitch": 82, "duration": 61, "velocity": 40}, {"time": 82083, "pitch": 69, "duration": 59, "velocity": 75}, {"time": 82202, "pitch": 82, "duration": 60, "velocity": 40}, {"time": 82321, "pitch": 69, "duration": 60, "velocity": 74}, {"time": 82441, "pitch": 82, "duration": 70, "velocity": 40}, {"time": 82560, "pitch": 69, "duration": 60, "velocity": 72}, {"time": 82680, "pitch": 82, "duration": 49, "velocity": 40}, {"time": 82799, "pitch": 69, "duration": 60, "velocity": 64}, {"time": 82918, "pitch": 82, "duration": 50, "velocity": 40}, {"time": 83038, "pitch": 69, "duration": 60, "velocity": 71}, {"time": 83159, "pitch": 82, "duration": 61, "velocity": 40}, {"time": 83280, "pitch": 69, "duration": 71, "velocity": 61}, {"time": 83401, "pitch": 82, "duration": 61, "velocity": 40}, {"time": 83523, "pitch": 69, "duration": 69, "velocity": 69}, {"time": 83642, "pitch": 82, "duration": 60, "velocity": 40}, {"time": 83761, "pitch": 69, "duration": 70, "velocity": 69}, {"time": 83881, "pitch": 82, "duration": 60, "velocity": 40}, {"time": 84000, "pitch": 69, "duration": 60, "velocity": 72}, {"time": 84120, "pitch": 82, "duration": 59, "velocity": 40}, {"time": 84239, "pitch": 69, "duration": 60, "velocity": 67}, {"time": 84358, "pitch": 82, "duration": 60, "velocity": 40}, {"time": 84478, "pitch": 69, "duration": 60, "velocity": 72}, {"time": 84599, "pitch": 82, "duration": 71, "velocity": 40}, {"time": 84720, "pitch": 69, "duration": 61, "velocity": 72}, {"time": 84841, "pitch": 82, "duration": 61, "velocity": 40}, {"time": 84963, "pitch": 69, "duration": 49, "velocity": 74}, {"time": 85082, "pitch": 82, "duration": 50, "velocity": 40}, {"time": 85201, "pitch": 69, "duration": 50, "velocity": 71}, {"time": 85321, "pitch": 82, "duration": 59, "velocity": 40}, {"time": 85440, "pitch": 69, "duration": 60, "velocity": 74}, {"time": 85560, "pitch": 82, "duration": 59, "velocity": 40}, {"time": 85679, "pitch": 69, "duration": 60, "velocity": 66}, {"time": 85798, "pitch": 82, "duration": 60, "velocity": 40}, {"time": 85918, "pitch": 69, "duration": 60, "velocity": 75}, {"time": 86039, "pitch": 82, "duration": 61, "velocity": 40}, {"time": 86160, "pitch": 69, "duration": 61, "velocity": 74}, {"time": 86281, "pitch": 82, "duration": 71, "velocity": 40}, {"time": 86403, "pitch": 69, "duration": 59, "velocity": 72}, {"time": 86522, "pitch": 82, "duration": 50, "velocity": 40}, {"time": 86641, "pitch": 69, "duration": 60, "velocity": 64}, {"time": 86761, "pitch": 82, "duration": 49, "velocity": 40}, {"time": 86880, "pitch": 69, "duration": 60, "velocity": 71}, {"time": 87000, "pitch": 82, "duration": 59, "velocity": 40}, {"time": 87119, "pitch": 69, "duration": 70, "velocity": 61}, {"time": 87238, "pitch": 82, "duration": 60, "velocity": 40}, {"time": 87358, "pitch": 69, "duration": 70, "velocity": 69}, {"time": 87479, "pitch": 82, "duration": 61, "velocity": 40}, {"time": 87600, "pitch": 69, "duration": 71, "velocity": 69}, {"time": 87721, "pitch": 82, "duration": 61, "velocity": 40}, {"time": 87843, "pitch": 69, "duration": 59, "velocity": 72}, {"time": 87962, "pitch": 82, "duration": 60, "velocity": 40}, {"time": 88081, "pitch": 69, "duration": 60, "velocity": 67}, {"time": 88201, "pitch": 82, "duration": 59, "velocity": 40}, {"time": 88320, "pitch": 69, "duration": 60, "velocity": 72}, {"time": 88440, "pitch": 82, "duration": 69, "velocity": 40}, {"time": 88559, "pitch": 69, "duration": 60, "velocity": 72}, {"time": 88678, "pitch": 82, "duration": 60, "velocity": 40}, {"time": 88798, "pitch": 69, "duration": 50, "velocity": 74}, {"time": 88919, "pitch": 82, "duration": 50, "velocity": 40}, {"time": 89040, "pitch": 69, "duration": 51, "velocity": 71}, {"time": 89161, "pitch": 82, "duration": 61, "velocity": 40}, {"time": 89282, "pitch": 69, "duration": 60, "velocity": 74}, {"time": 89402, "pitch": 82, "duration": 60, "velocity": 40}, {"time": 89521, "pitch": 69, "duration": 60, "velocity": 66}, {"time": 89641, "pitch": 82, "duration": 59, "velocity": 40}, {"time": 89760, "pitch": 69, "duration": 60, "velocity": 75}, {"time": 89879, "pitch": 82, "duration": 60, "velocity": 40}, {"time": 89999, "pitch": 69, "duration": 60, "velocity": 74}, {"time": 90118, "pitch": 82, "duration": 70, "velocity": 40}, {"time": 90238, "pitch": 69, "duration": 60, "velocity": 72}, {"time": 90359, "pitch": 82, "duration": 50, "velocity": 40}, {"time": 90480, "pitch": 69, "duration": 61, "velocity": 64}, {"time": 90601, "pitch": 82, "duration": 51, "velocity": 40}, {"time": 90722, "pitch": 69, "duration": 60, "velocity": 71}, {"time": 90842, "pitch": 82, "duration": 60, "velocity": 40}, {"time": 90961, "pitch": 69, "duration": 70, "velocity": 61}, {"time": 91081, "pitch": 82, "duration": 59, "velocity": 40}, {"time": 91200, "pitch": 69, "duration": 70, "velocity": 69}, {"time": 91319, "pitch": 82, "duration": 60, "velocity": 40}, {"time": 91439, "pitch": 69, "duration": 69, "velocity": 69}, {"time": 91558, "pitch": 82, "duration": 60, "velocity": 40}, {"time": 91678, "pitch": 69, "duration": 60, "velocity": 72}, {"time": 91799, "pitch": 82, "duration": 60, "velocity": 40}, {"time": 91920, "pitch": 69, "duration": 61, "velocity": 67}, {"time": 92041, "pitch": 82, "duration": 61, "velocity": 40}, {"time": 92162, "pitch": 69, "duration": 60, "velocity": 72}, {"time": 92282, "pitch": 82, "duration": 69, "velocity": 40}, {"time": 92401, "pitch": 69, "duration": 60, "velocity": 72}, {"time": 92521, "pitch": 82, "duration": 59, "velocity": 40}, {"time": 92640, "pitch": 69, "duration": 50, "velocity": 74}, {"time": 92759, "pitch": 82, "duration": 50, "velocity": 40}, {"time": 92879, "pitch": 69, "duration": 50, "velocity": 71}, {"time": 92998, "pitch": 82, "duration": 60, "velocity": 40}, {"time": 93118, "pitch": 69, "duration": 60, "velocity": 74}, {"time": 93239, "pitch": 82, "duration": 60, "velocity": 40}, {"time": 93360, "pitch": 69, "duration": 61, "velocity": 66}, {"time": 93481, "pitch": 82, "duration": 61, "velocity": 40}, {"time": 93602, "pitch": 69, "duration": 60, "velocity": 75}, {"time": 93722, "pitch": 82, "duration": 59, "velocity": 40}, {"time": 93841, "pitch": 69, "duration": 60, "velocity": 74}, {"time": 93961, "pitch": 82, "duration": 69, "velocity": 40}, {"time": 94080, "pitch": 69, "duration": 60, "velocity": 72}, {"time": 94199, "pitch": 82, "duration": 50, "velocity": 40}, {"time": 94319, "pitch": 69, "duration": 59, "velocity": 64}, {"time": 94438, "pitch": 82, "duration": 50, "velocity": 40}, {"time": 94558, "pitch": 69, "duration": 60, "velocity": 71}, {"time": 94679, "pitch": 82, "duration": 60, "velocity": 40}, {"time": 94800, "pitch": 69, "duration": 71, "velocity": 61}, {"time": 94921, "pitch": 82, "duration": 61, "velocity": 40}, {"time": 95042, "pitch": 69, "duration": 70, "velocity": 69}, {"time": 95162, "pitch": 82, "duration": 59, "velocity": 40}, {"time": 95281, "pitch": 69, "duration": 70, "velocity": 69}, {"time": 95401, "pitch": 82, "duration": 59, "velocity": 40}, {"time": 95520, "pitch": 69, "duration": 60, "velocity": 72}, {"time": 95639, "pitch": 82, "duration": 60, "velocity": 40}, {"time": 95759, "pitch": 69, "duration": 59, "velocity": 67}, {"time": 95878, "pitch": 82, "duration": 60, "velocity": 40}, {"time": 95998, "pitch": 69, "duration": 60, "velocity": 72}, {"time": 96119, "pitch": 82, "duration": 70, "velocity": 40}, {"time": 96240, "pitch": 69, "duration": 61, "velocity": 72}, {"time": 96361, "pitch": 82, "duration": 61, "velocity": 40}, {"time": 96482, "pitch": 69, "duration": 50, "velocity": 74}, {"time": 96602, "pitch": 82, "duration": 49, "velocity": 40}, {"time": 96721, "pitch": 69, "duration": 50, "velocity": 71}, {"time": 96840, "pitch": 82, "duration": 60, "velocity": 40}, {"time": 96960, "pitch": 69, "duration": 60, "velocity": 74}, {"time": 97079, "pitch": 82, "duration": 60, "velocity": 40}, {"time": 97199, "pitch": 69, "duration": 59, "velocity": 66}, {"time": 97318, "pitch": 82, "duration": 60, "velocity": 40}, {"time": 97437, "pitch": 69, "duration": 61, "velocity": 75}, {"time": 97559, "pitch": 82, "duration": 60, "velocity": 40}, {"time": 97680, "pitch": 69, "duration": 60, "velocity": 74}, {"time": 97801, "pitch": 82, "duration": 71, "velocity": 40}, {"time": 97922, "pitch": 69, "duration": 60, "velocity": 72}, {"time": 98042, "pitch": 82, "duration": 49, "velocity": 40}, {"time": 98161, "pitch": 69, "duration": 60, "velocity": 64}, {"time": 98280, "pitch": 82, "duration": 50, "velocity": 40}, {"time": 98400, "pitch": 69, "duration": 60, "velocity": 71}, {"time": 98519, "pitch": 82, "duration": 60, "velocity": 40}, {"time": 98639, "pitch": 69, "duration": 69, "velocity": 61}, {"time": 98758, "pitch": 82, "duration": 60, "velocity": 40}, {"time": 98877, "pitch": 69, "duration": 71, "velocity": 69}, {"time": 98999, "pitch": 82, "duration": 60, "velocity": 40}, {"time": 99120, "pitch": 69, "duration": 71, "velocity": 69}, {"time": 99241, "pitch": 82, "duration": 61, "velocity": 40}, {"time": 99362, "pitch": 69, "duration": 60, "velocity": 72}, {"time": 99482, "pitch": 82, "duration": 59, "velocity": 40}, {"time": 99601, "pitch": 69, "duration": 60, "velocity": 67}, {"time": 99720, "pitch": 82, "duration": 60, "velocity": 40}, {"time": 99840, "pitch": 69, "duration": 60, "velocity": 72}, {"time": 99959, "pitch": 82, "duration": 70, "velocity": 40}, {"time": 100079, "pitch": 69, "duration": 59, "velocity": 72}, {"time": 100198, "pitch": 82, "duration": 60, "velocity": 40}, {"time": 100317, "pitch": 69, "duration": 51, "velocity": 74}, {"time": 100439, "pitch": 82, "duration": 50, "velocity": 40}, {"time": 100560, "pitch": 69, "duration": 50, "velocity": 71}, {"time": 100681, "pitch": 82, "duration": 61, "velocity": 40}, {"time": 100802, "pitch": 69, "duration": 60, "velocity": 74}, {"time": 100922, "pitch": 82, "duration": 59, "velocity": 40}, {"time": 101041, "pitch": 69, "duration": 60, "velocity": 66}, {"time": 101160, "pitch": 82, "duration": 60, "velocity": 40}, {"time": 101280, "pitch": 69, "duration": 59, "velocity": 75}, {"time": 101399, "pitch": 82, "duration": 60, "velocity": 40}, {"time": 101519, "pitch": 69, "duration": 59, "velocity": 74}, {"time": 101638, "pitch": 82, "duration": 70, "velocity": 40}, {"time": 101757, "pitch": 69, "duration": 61, "velocity": 72}, {"time": 101879, "pitch": 82, "duration": 50, "velocity": 40}, {"time": 102000, "pitch": 69, "duration": 60, "velocity": 64}, {"time": 102121, "pitch": 82, "duration": 50, "velocity": 40}, {"time": 102242, "pitch": 69, "duration": 60, "velocity": 71}, {"time": 102362, "pitch": 82, "duration": 59, "velocity": 40}, {"time": 102481, "pitch": 69, "duration": 70, "velocity": 61}, {"time": 102600, "pitch": 82, "duration": 60, "velocity": 40}, {"time": 102720, "pitch": 69, "duration": 69, "velocity": 69}, {"time": 102839, "pitch": 82, "duration": 60, "velocity": 40}, {"time": 102959, "pitch": 69, "duration": 69, "velocity": 69}, {"time": 103078, "pitch": 82, "duration": 60, "velocity": 40}, {"time": 103197, "pitch": 69, "duration": 61, "velocity": 72}, {"time": 103319, "pitch": 82, "duration": 60, "velocity": 40}, {"time": 103440, "pitch": 69, "duration": 60, "velocity": 67}, {"time": 103561, "pitch": 82, "duration": 61, "velocity": 40}, {"time": 103682, "pitch": 69, "duration": 60, "velocity": 72}, {"time": 103802, "pitch": 82, "duration": 69, "velocity": 40}, {"time": 103921, "pitch": 69, "duration": 60, "velocity": 72}, {"time": 104040, "pitch": 82, "duration": 60, "velocity": 40}, {"time": 104160, "pitch": 69, "duration": 49, "velocity": 74}, {"time": 104279, "pitch": 82, "duration": 50, "velocity": 40}, {"time": 104399, "pitch": 69, "duration": 49, "velocity": 71}, {"time": 104518, "pitch": 82, "duration": 60, "velocity": 40}, {"time": 104637, "pitch": 69, "duration": 61, "velocity": 74}, {"time": 104758, "pitch": 82, "duration": 61, "velocity": 40}, {"time": 104880, "pitch": 69, "duration": 60, "velocity": 66}, {"time": 105001, "pitch": 82, "duration": 61, "velocity": 40}, {"time": 105122, "pitch": 69, "duration": 60, "velocity": 75}, {"time": 105241, "pitch": 82, "duration": 60, "velocity": 40}, {"time": 105361, "pitch": 69, "duration": 60, "velocity": 74}, {"time": 105480, "pitch": 82, "duration": 70, "velocity": 40}, {"time": 105600, "pitch": 69, "duration": 59, "velocity": 72}, {"time": 105719, "pitch": 82, "duration": 50, "velocity": 40}, {"time": 105838, "pitch": 69, "duration": 60, "velocity": 64}, {"time": 105958, "pitch": 82, "duration": 50, "velocity": 40}, {"time": 106077, "pitch": 69, "duration": 61, "velocity": 71}, {"time": 106198, "pitch": 82, "duration": 61, "velocity": 40}, {"time": 106320, "pitch": 69, "duration": 70, "velocity": 61}, {"time": 106441, "pitch": 82, "duration": 60, "velocity": 40}, {"time": 106562, "pitch": 69, "duration": 70, "velocity": 69}, {"time": 106681, "pitch": 82, "duration": 60, "velocity": 40}, {"time": 106801, "pitch": 69, "duration": 69, "velocity": 69}, {"time": 106920, "pitch": 82, "duration": 60, "velocity": 40}, {"time": 107040, "pitch": 69, "duration": 59, "velocity": 72}, {"time": 107159, "pitch": 82, "duration": 60, "velocity": 40}, {"time": 107278, "pitch": 69, "duration": 60, "velocity": 67}, {"time": 107398, "pitch": 82, "duration": 60, "velocity": 40}, {"time": 107517, "pitch": 69, "duration": 61, "velocity": 72}, {"time": 107638, "pitch": 82, "duration": 71, "velocity": 40}, {"time": 107760, "pitch": 69, "duration": 60, "velocity": 72}, {"time": 107881, "pitch": 82, "duration": 60, "velocity": 40}, {"time": 108002, "pitch": 69, "duration": 50, "velocity": 74}, {"time": 108121, "pitch": 82, "duration": 50, "velocity": 40}, {"time": 108241, "pitch": 69, "duration": 50, "velocity": 71}, {"time": 108360, "pitch": 82, "duration": 60, "velocity": 40}, {"time": 108480, "pitch": 69, "duration": 59, "velocity": 74}, {"time": 108599, "pitch": 82, "duration": 60, "velocity": 40}, {"time": 108718, "pitch": 69, "duration": 60, "velocity": 66}, {"time": 108838, "pitch": 82, "duration": 60, "velocity": 40}, {"time": 108957, "pitch": 69, "duration": 61, "velocity": 75}, {"time": 109078, "pitch": 82, "duration": 61, "velocity": 40}, {"time": 109200, "pitch": 69, "duration": 60, "velocity": 74}, {"time": 109321, "pitch": 82, "duration": 70, "velocity": 40}, {"time": 109442, "pitch": 69, "duration": 60, "velocity": 72}, {"time": 109561, "pitch": 82, "duration": 50, "velocity": 40}, {"time": 109681, "pitch": 69, "duration": 59, "velocity": 64}, {"time": 109800, "pitch": 82, "duration": 50, "velocity": 40}, {"time": 109920, "pitch": 69, "duration": 59, "velocity": 71}, {"time": 110039, "pitch": 82, "duration": 60, "velocity": 40}, {"time": 110158, "pitch": 69, "duration": 70, "velocity": 61}, {"time": 110278, "pitch": 82, "duration": 59, "velocity": 40}, {"time": 110397, "pitch": 69, "duration": 71, "velocity": 69}, {"time": 110518, "pitch": 82, "duration": 61, "velocity": 40}, {"time": 110640, "pitch": 69, "duration": 70, "velocity": 69}, {"time": 110761, "pitch": 82, "duration": 60, "velocity": 40}, {"time": 110882, "pitch": 69, "duration": 60, "velocity": 72}, {"time": 111001, "pitch": 82, "duration": 60, "velocity": 40}, {"time": 111121, "pitch": 69, "duration": 59, "velocity": 67}, {"time": 111240, "pitch": 82, "duration": 60, "velocity": 40}, {"time": 111360, "pitch": 69, "duration": 59, "velocity": 72}, {"time": 111479, "pitch": 82, "duration": 70, "velocity": 40}, {"time": 111598, "pitch": 69, "duration": 60, "velocity": 72}, {"time": 111718, "pitch": 82, "duration": 59, "velocity": 40}, {"time": 111837, "pitch": 69, "duration": 51, "velocity": 74}, {"time": 111958, "pitch": 82, "duration": 51, "velocity": 40}, {"time": 112080, "pitch": 69, "duration": 50, "velocity": 71}, {"time": 112201, "pitch": 82, "duration": 60, "velocity": 40}, {"time": 112322, "pitch": 69, "duration": 60, "velocity": 74}, {"time": 112441, "pitch": 82, "duration": 60, "velocity": 40}, {"time": 112561, "pitch": 69, "duration": 59, "velocity": 66}, {"time": 112680, "pitch": 82, "duration": 60, "velocity": 40}, {"time": 112799, "pitch": 69, "duration": 60, "velocity": 75}, {"time": 112919, "pitch": 82, "duration": 60, "velocity": 40}, {"time": 113038, "pitch": 69, "duration": 60, "velocity": 74}, {"time": 113158, "pitch": 82, "duration": 69, "velocity": 40}, {"time": 113277, "pitch": 69, "duration": 61, "velocity": 72}, {"time": 113398, "pitch": 82, "duration": 51, "velocity": 40}, {"time": 113519, "pitch": 69, "duration": 61, "velocity": 64}, {"time": 113641, "pitch": 82, "duration": 50, "velocity": 40}, {"time": 113762, "pitch": 69, "duration": 60, "velocity": 71}, {"time": 113881, "pitch": 82, "duration": 60, "velocity": 40}, {"time": 114001, "pitch": 69, "duration": 69, "velocity": 61}, {"time": 114120, "pitch": 82, "duration": 60, "velocity": 40}, {"time": 114239, "pitch": 69, "duration": 70, "velocity": 69}, {"time": 114359, "pitch": 82, "duration": 60, "velocity": 40}, {"time": 114478, "pitch": 69, "duration": 70, "velocity": 69}, {"time": 114598, "pitch": 82, "duration": 59, "velocity": 40}, {"time": 114717, "pitch": 69, "duration": 61, "velocity": 72}, {"time": 114838, "pitch": 82, "duration": 61, "velocity": 40}, {"time": 114959, "pitch": 69, "duration": 61, "velocity": 67}, {"time": 115081, "pitch": 82, "duration": 60, "velocity": 40}, {"time": 115202, "pitch": 69, "duration": 60, "velocity": 72}, {"time": 115321, "pitch": 82, "duration": 70, "velocity": 40}, {"time": 115441, "pitch": 69, "duration": 59, "velocity": 72}, {"time": 115560, "pitch": 82, "duration": 60, "velocity": 40}, {"time": 115679, "pitch": 69, "duration": 50, "velocity": 74}, {"time": 115799, "pitch": 82, "duration": 50, "velocity": 40}, {"time": 115918, "pitch": 69, "duration": 50, "velocity": 71}, {"time": 116038, "pitch": 82, "duration": 59, "velocity": 40}, {"time": 116157, "pitch": 69, "duration": 61, "velocity": 74}, {"time": 116278, "pitch": 82, "duration": 61, "velocity": 40}, {"time": 116399, "pitch": 69, "duration": 61, "velocity": 66}, {"time": 116521, "pitch": 82, "duration": 60, "velocity": 40}, {"time": 116642, "pitch": 69, "duration": 59, "velocity": 75}, {"time": 116761, "pitch": 82, "duration": 60, "velocity": 40}, {"time": 116881, "pitch": 69, "duration": 59, "velocity": 74}, {"time": 117000, "pitch": 82, "duration": 70, "velocity": 40}, {"time": 117119, "pitch": 69, "duration": 60, "velocity": 72}, {"time": 117239, "pitch": 82, "duration": 50, "velocity": 40}, {"time": 117358, "pitch": 69, "duration": 60, "velocity": 64}, {"time": 117478, "pitch": 82, "duration": 49, "velocity": 40}, {"time": 117597, "pitch": 69, "duration": 61, "velocity": 71}, {"time": 117718, "pitch": 82, "duration": 61, "velocity": 40}, {"time": 117839, "pitch": 69, "duration": 71, "velocity": 61}, {"time": 117961, "pitch": 82, "duration": 60, "velocity": 40}, {"time": 118082, "pitch": 69, "duration": 69, "velocity": 69}, {"time": 118201, "pitch": 82, "duration": 60, "velocity": 40}, {"time": 118321, "pitch": 69, "duration": 69, "velocity": 69}, {"time": 118440, "pitch": 82, "duration": 60, "velocity": 40}, {"time": 118559, "pitch": 69, "duration": 60, "velocity": 72}, {"time": 118679, "pitch": 82, "duration": 59, "velocity": 40}, {"time": 118798, "pitch": 69, "duration": 60, "velocity": 67}, {"time": 118918, "pitch": 82, "duration": 59, "velocity": 40}, {"time": 119037, "pitch": 69, "duration": 61, "velocity": 72}, {"time": 119158, "pitch": 82, "duration": 71, "velocity": 40}, {"time": 119279, "pitch": 69, "duration": 61, "velocity": 72}, {"time": 119401, "pitch": 82, "duration": 60, "velocity": 40}, {"time": 119522, "pitch": 69, "duration": 49, "velocity": 74}, {"time": 119641, "pitch": 82, "duration": 50, "velocity": 40}, {"time": 119761, "pitch": 69, "duration": 49, "velocity": 71}, {"time": 119880, "pitch": 82, "duration": 60, "velocity": 40}, {"time": 119999, "pitch": 69, "duration": 60, "velocity": 74}, {"time": 120119, "pitch": 82, "duration": 59, "velocity": 40}, {"time": 120238, "pitch": 69, "duration": 60, "velocity": 66}, {"time": 120358, "pitch": 82, "duration": 59, "velocity": 40}, {"time": 120477, "pitch": 69, "duration": 60, "velocity": 75}, {"time": 120598, "pitch": 82, "duration": 61, "velocity": 40}, {"time": 120719, "pitch": 69, "duration": 61, "velocity": 74}, {"time": 120841, "pitch": 82, "duration": 70, "velocity": 40}, {"time": 120962, "pitch": 69, "duration": 59, "velocity": 72}, {"time": 121081, "pitch": 82, "duration": 50, "velocity": 40}, {"time": 121200, "pitch": 69, "duration": 60, "velocity": 64}, {"time": 121320, "pitch": 82, "duration": 50, "velocity": 40}, {"time": 121439, "pitch": 69, "duration": 60, "velocity": 71}, {"time": 121559, "pitch": 82, "duration": 59, "velocity": 40}, {"time": 121678, "pitch": 69, "duration": 70, "velocity": 61}, {"time": 121797, "pitch": 82, "duration": 60, "velocity": 40}, {"time": 121917, "pitch": 69, "duration": 71, "velocity": 69}, {"time": 122038, "pitch": 82, "duration": 61, "velocity": 40}, {"time": 122159, "pitch": 69, "duration": 71, "velocity": 69}, {"time": 122280, "pitch": 82, "duration": 61, "velocity": 40}, {"time": 122402, "pitch": 69, "duration": 59, "velocity": 72}, {"time": 122521, "pitch": 82, "duration": 60, "velocity": 40}, {"time": 122640, "pitch": 69, "duration": 60, "velocity": 67}, {"time": 122760, "pitch": 82, "duration": 60, "velocity": 40}, {"time": 122879, "pitch": 69, "duration": 60, "velocity": 72}, {"time": 122999, "pitch": 82, "duration": 69, "velocity": 40}, {"time": 123118, "pitch": 69, "duration": 60, "velocity": 72}, {"time": 123237, "pitch": 82, "duration": 60, "velocity": 40}, {"time": 123357, "pitch": 69, "duration": 50, "velocity": 74}, {"time": 123478, "pitch": 82, "duration": 51, "velocity": 40}, {"time": 123599, "pitch": 69, "duration": 51, "velocity": 71}, {"time": 123720, "pitch": 82, "duration": 61, "velocity": 40}, {"time": 123842, "pitch": 69, "duration": 59, "velocity": 74}, {"time": 123961, "pitch": 82, "duration": 60, "velocity": 40}, {"time": 124080, "pitch": 69, "duration": 60, "velocity": 66}, {"time": 124200, "pitch": 82, "duration": 60, "velocity": 40}, {"time": 124319, "pitch": 69, "duration": 60, "velocity": 75}, {"time": 124439, "pitch": 82, "duration": 59, "velocity": 40}, {"time": 124558, "pitch": 69, "duration": 60, "velocity": 74}, {"time": 124677, "pitch": 82, "duration": 70, "velocity": 40}, {"time": 124797, "pitch": 69, "duration": 60, "velocity": 72}, {"time": 124918, "pitch": 82, "duration": 50, "velocity": 40}, {"time": 125039, "pitch": 69, "duration": 61, "velocity": 64}, {"time": 125160, "pitch": 82, "duration": 51, "velocity": 40}, {"time": 125282, "pitch": 69, "duration": 59, "velocity": 71}, {"time": 125401, "pitch": 82, "duration": 60, "velocity": 40}, {"time": 125520, "pitch": 69, "duration": 70, "velocity": 61}, {"time": 125640, "pitch": 82, "duration": 59, "velocity": 40}, {"time": 125759, "pitch": 69, "duration": 70, "velocity": 69}, {"time": 125879, "pitch": 82, "duration": 59, "velocity": 40}, {"time": 125998, "pitch": 69, "duration": 70, "velocity": 69}, {"time": 126117, "pitch": 82, "duration": 60, "velocity": 40}, {"time": 126237, "pitch": 69, "duration": 60, "velocity": 72}, {"time": 126358, "pitch": 82, "duration": 61, "velocity": 40}, {"time": 126479, "pitch": 69, "duration": 61, "velocity": 67}, {"time": 126600, "pitch": 82, "duration": 61, "velocity": 40}, {"time": 126722, "pitch": 69, "duration": 59, "velocity": 72}, {"time": 126841, "pitch": 82, "duration": 70, "velocity": 40}, {"time": 126960, "pitch": 69, "duration": 60, "velocity": 72}, {"time": 127080, "pitch": 82, "duration": 59, "velocity": 40}, {"time": 127199, "pitch": 69, "duration": 50, "velocity": 74}, {"time": 127319, "pitch": 82, "duration": 49, "velocity": 40}, {"time": 127438, "pitch": 69, "duration": 50, "velocity": 71}, {"time": 127557, "pitch": 82, "duration": 60, "velocity": 40}, {"time": 127677, "pitch": 69, "duration": 60, "velocity": 74}, {"time": 127798, "pitch": 82, "duration": 61, "velocity": 40}, {"time": 127919, "pitch": 69, "duration": 61, "velocity": 66}, {"time": 128040, "pitch": 82, "duration": 61, "velocity": 40}, {"time": 128162, "pitch": 69, "duration": 59, "velocity": 75}, {"time": 128281, "pitch": 82, "duration": 60, "velocity": 40}, {"time": 128400, "pitch": 69, "duration": 60, "velocity": 74}, {"time": 128520, "pitch": 82, "duration": 69, "velocity": 40}, {"time": 128639, "pitch": 69, "duration": 60, "velocity": 72}, {"time": 128759, "pitch": 82, "duration": 49, "velocity": 40}, {"time": 128878, "pitch": 69, "duration": 60, "velocity": 64}, {"time": 128997, "pitch": 82, "duration": 50, "velocity": 40}, {"time": 129117, "pitch": 69, "duration": 60, "velocity": 71}, {"time": 129238, "pitch": 82, "duration": 60, "velocity": 40}, {"time": 129359, "pitch": 69, "duration": 71, "velocity": 61}, {"time": 129480, "pitch": 82, "duration": 61, "velocity": 40}, {"time": 129601, "pitch": 69, "duration": 70, "velocity": 69}, {"time": 129721, "pitch": 82, "duration": 60, "velocity": 40}, {"time": 129840, "pitch": 69, "duration": 70, "velocity": 69}, {"time": 129960, "pitch": 82, "duration": 59, "velocity": 40}, {"time": 130079, "pitch": 69, "duration": 60, "velocity": 72}, {"time": 130198, "pitch": 82, "duration": 60, "velocity": 40}, {"time": 130318, "pitch": 69, "duration": 60, "velocity": 67}, {"time": 130437, "pitch": 82, "duration": 60, "velocity": 40}, {"time": 130557, "pitch": 69, "duration": 60, "velocity": 72}, {"time": 130678, "pitch": 82, "duration": 71, "velocity": 40}, {"time": 130799, "pitch": 69, "duration": 61, "velocity": 72}, {"time": 130920, "pitch": 82, "duration": 61, "velocity": 40}, {"time": 131041, "pitch": 69, "duration": 50, "velocity": 74}, {"time": 131161, "pitch": 82, "duration": 50, "velocity": 40}, {"time": 131280, "pitch": 69, "duration": 50, "velocity": 71}, {"time": 131400, "pitch": 82, "duration": 59, "velocity": 40}, {"time": 131519, "pitch": 69, "duration": 60, "velocity": 74}, {"time": 131638, "pitch": 82, "duration": 60, "velocity": 40}, {"time": 131758, "pitch": 69, "duration": 60, "velocity": 66}, {"time": 131877, "pitch": 82, "duration": 60, "velocity": 40}, {"time": 131997, "pitch": 69, "duration": 60, "velocity": 75}, {"time": 132118, "pitch": 82, "duration": 60, "velocity": 40}, {"time": 132239, "pitch": 69, "duration": 61, "velocity": 74}, {"time": 132360, "pitch": 82, "duration": 71, "velocity": 40}, {"time": 132481, "pitch": 69, "duration": 60, "velocity": 72}, {"time": 132601, "pitch": 82, "duration": 50, "velocity": 40}, {"time": 132720, "pitch": 69, "duration": 60, "velocity": 64}, {"time": 132840, "pitch": 82, "duration": 49, "velocity": 40}, {"time": 132959, "pitch": 69, "duration": 60, "velocity": 71}, {"time": 133078, "pitch": 82, "duration": 60, "velocity": 40}, {"time": 133198, "pitch": 69, "duration": 69, "velocity": 61}, {"time": 133317, "pitch": 82, "duration": 60, "velocity": 40}, {"time": 133437, "pitch": 69, "duration": 70, "velocity": 69}, {"time": 133558, "pitch": 82, "duration": 60, "velocity": 40}, {"time": 133679, "pitch": 69, "duration": 71, "velocity": 69}, {"time": 133800, "pitch": 82, "duration": 61, "velocity": 40}, {"time": 133921, "pitch": 69, "duration": 60, "velocity": 72}, {"time": 134041, "pitch": 82, "duration": 59, "velocity": 40}, {"time": 134160, "pitch": 69, "duration": 60, "velocity": 67}, {"time": 134280, "pitch": 82, "duration": 59, "velocity": 40}, {"time": 134399, "pitch": 69, "duration": 60, "velocity": 72}, {"time": 134518, "pitch": 82, "duration": 70, "velocity": 40}, {"time": 134638, "pitch": 69, "duration": 59, "velocity": 72}, {"time": 134757, "pitch": 82, "duration": 60, "velocity": 40}, {"time": 134877, "pitch": 69, "duration": 50, "velocity": 74}, {"time": 134998, "pitch": 82, "duration": 50, "velocity": 40}, {"time": 135119, "pitch": 69, "duration": 50, "velocity": 71}, {"time": 135240, "pitch": 82, "duration": 61, "velocity": 40}, {"time": 135361, "pitch": 69, "duration": 60, "velocity": 74}, {"time": 135481, "pitch": 82, "duration": 59, "velocity": 40}, {"time": 135600, "pitch": 69, "duration": 60, "velocity": 66}, {"time": 135720, "pitch": 82, "duration": 59, "velocity": 40}, {"time": 135839, "pitch": 69, "duration": 60, "velocity": 75}, {"time": 135958, "pitch": 82, "duration": 60, "velocity": 40}, {"time": 136078, "pitch": 69, "duration": 59, "velocity": 74}, {"time": 136197, "pitch": 82, "duration": 70, "velocity": 40}, {"time": 136317, "pitch": 69, "duration": 60, "velocity": 72}, {"time": 136438, "pitch": 82, "duration": 50, "velocity": 40}, {"time": 136559, "pitch": 69, "duration": 60, "velocity": 64}, {"time": 136680, "pitch": 82, "duration": 51, "velocity": 40}, {"time": 136801, "pitch": 69, "duration": 60, "velocity": 71}, {"time": 136921, "pitch": 82, "duration": 59, "velocity": 40}, {"time": 137040, "pitch": 69, "duration": 70, "velocity": 61}, {"time": 137159, "pitch": 82, "duration": 60, "velocity": 40}, {"time": 137279, "pitch": 69, "duration": 70, "velocity": 69}, {"time": 137398, "pitch": 82, "duration": 60, "velocity": 40}, {"time": 137518, "pitch": 69, "duration": 69, "velocity": 69}, {"time": 137637, "pitch": 82, "duration": 60, "velocity": 40}, {"time": 137756, "pitch": 69, "duration": 61, "velocity": 72}, {"time": 137878, "pitch": 82, "duration": 60, "velocity": 40}, {"time": 137999, "pitch": 69, "duration": 60, "velocity": 67}, {"time": 138120, "pitch": 82, "duration": 61, "velocity": 40}, {"time": 138241, "pitch": 69, "duration": 60, "velocity": 72}, {"time": 138361, "pitch": 82, "duration": 69, "velocity": 40}, {"time": 138480, "pitch": 69, "duration": 60, "velocity": 72}, {"time": 138599, "pitch": 82, "duration": 60, "velocity": 40}, {"time": 138719, "pitch": 69, "duration": 50, "velocity": 74}, {"time": 138838, "pitch": 82, "duration": 50, "velocity": 40}, {"time": 138958, "pitch": 69, "duration": 49, "velocity": 71}, {"time": 139077, "pitch": 82, "duration": 60, "velocity": 40}, {"time": 139196, "pitch": 69, "duration": 61, "velocity": 74}, {"time": 139318, "pitch": 82, "duration": 60, "velocity": 40}, {"time": 139439, "pitch": 69, "duration": 60, "velocity": 66}, {"time": 139560, "pitch": 82, "duration": 61, "velocity": 40}, {"time": 139681, "pitch": 69, "duration": 60, "velocity": 75}, {"time": 139801, "pitch": 82, "duration": 59, "velocity": 40}, {"time": 139920, "pitch": 69, "duration": 60, "velocity": 74}, {"time": 140039, "pitch": 82, "duration": 70, "velocity": 40}, {"time": 140159, "pitch": 69, "duration": 60, "velocity": 72}, {"time": 140278, "pitch": 82, "duration": 50, "velocity": 40}, {"time": 140398, "pitch": 69, "duration": 59, "velocity": 64}, {"time": 140517, "pitch": 82, "duration": 50, "velocity": 40}, {"time": 140636, "pitch": 69, "duration": 61, "velocity": 71}, {"time": 140758, "pitch": 82, "duration": 60, "velocity": 40}, {"time": 140879, "pitch": 69, "duration": 70, "velocity": 61}, {"time": 141000, "pitch": 82, "duration": 61, "velocity": 40}, {"time": 141121, "pitch": 69, "duration": 70, "velocity": 69}, {"time": 141241, "pitch": 82, "duration": 59, "velocity": 40}, {"time": 141360, "pitch": 69, "duration": 70, "velocity": 69}, {"time": 141479, "pitch": 82, "duration": 60, "velocity": 40}, {"time": 141599, "pitch": 69, "duration": 60, "velocity": 72}, {"time": 141720, "pitch": 82, "duration": 61, "velocity": 40}, {"time": 141841, "pitch": 69, "duration": 61, "velocity": 67}, {"time": 141962, "pitch": 82, "duration": 61, "velocity": 40}, {"time": 142084, "pitch": 69, "duration": 59, "velocity": 72}, {"time": 142203, "pitch": 82, "duration": 70, "velocity": 40}, {"time": 142322, "pitch": 69, "duration": 60, "velocity": 72}, {"time": 142442, "pitch": 82, "duration": 59, "velocity": 40}, {"time": 142561, "pitch": 69, "duration": 50, "velocity": 74}, {"time": 142681, "pitch": 82, "duration": 49, "velocity": 40}, {"time": 142800, "pitch": 69, "duration": 50, "velocity": 71}, {"time": 142919, "pitch": 82, "duration": 60, "velocity": 40}, {"time": 143039, "pitch": 69, "duration": 60, "velocity": 74}, {"time": 143160, "pitch": 82, "duration": 61, "velocity": 40}, {"time": 143281, "pitch": 69, "duration": 61, "velocity": 66}, {"time": 143402, "pitch": 82, "duration": 61, "velocity": 40}, {"time": 143524, "pitch": 69, "duration": 59, "velocity": 75}, {"time": 143643, "pitch": 82, "duration": 60, "velocity": 40}, {"time": 143762, "pitch": 69, "duration": 60, "velocity": 74}, {"time": 143882, "pitch": 82, "duration": 69, "velocity": 40}, {"time": 144001, "pitch": 69, "duration": 60, "velocity": 72}, {"time": 144121, "pitch": 82, "duration": 49, "velocity": 40}, {"time": 144240, "pitch": 69, "duration": 60, "velocity": 64}, {"time": 144359, "pitch": 82, "duration": 50, "velocity": 40}, {"time": 144479, "pitch": 69, "duration": 60, "velocity": 71}, {"time": 144600, "pitch": 82, "duration": 61, "velocity": 40}, {"time": 144721, "pitch": 69, "duration": 71, "velocity": 61}, {"time": 144842, "pitch": 82, "duration": 61, "velocity": 40}, {"time": 144963, "pitch": 69, "duration": 70, "velocity": 69}, {"time": 145083, "pitch": 82, "duration": 60, "velocity": 40}, {"time": 145202, "pitch": 69, "duration": 70, "velocity": 69}, {"time": 145322, "pitch": 82, "duration": 59, "velocity": 40}, {"time": 145441, "pitch": 69, "duration": 60, "velocity": 72}, {"time": 145560, "pitch": 82, "duration": 60, "velocity": 40}, {"time": 145680, "pitch": 69, "duration": 60, "velocity": 67}, {"time": 145799, "pitch": 82, "duration": 60, "velocity": 40}, {"time": 145919, "pitch": 69, "duration": 60, "velocity": 72}, {"time": 146040, "pitch": 82, "duration": 71, "velocity": 40}, {"time": 146162, "pitch": 69, "duration": 60, "velocity": 72}, {"time": 146282, "pitch": 82, "duration": 61, "velocity": 40}, {"time": 146403, "pitch": 69, "duration": 50, "velocity": 74}, {"time": 146523, "pitch": 82, "duration": 51, "velocity": 40}, {"time": 146642, "pitch": 69, "duration": 50, "velocity": 71}, {"time": 146762, "pitch": 82, "duration": 59, "velocity": 40}, {"time": 146881, "pitch": 69, "duration": 61, "velocity": 74}, {"time": 147002, "pitch": 82, "duration": 61, "velocity": 40}, {"time": 147124, "pitch": 69, "duration": 60, "velocity": 66}, {"time": 147244, "pitch": 82, "duration": 61, "velocity": 40}, {"time": 147366, "pitch": 69, "duration": 57, "velocity": 75}, {"time": 147481, "pitch": 82, "duration": 58, "velocity": 40}, {"time": 147597, "pitch": 69, "duration": 59, "velocity": 74}, {"time": 147714, "pitch": 82, "duration": 68, "velocity": 40}, {"time": 147829, "pitch": 69, "duration": 59, "velocity": 72}, {"time": 147948, "pitch": 82, "duration": 52, "velocity": 40}, {"time": 148069, "pitch": 69, "duration": 59, "velocity": 64}, {"time": 148188, "pitch": 82, "duration": 49, "velocity": 40}, {"time": 148307, "pitch": 69, "duration": 61, "velocity": 71}, {"time": 148427, "pitch": 82, "duration": 62, "velocity": 40}, {"time": 148549, "pitch": 69, "duration": 71, "velocity": 61}, {"time": 148671, "pitch": 82, "duration": 61, "velocity": 40}, {"time": 148792, "pitch": 69, "duration": 70, "velocity": 69}, {"time": 148913, "pitch": 82, "duration": 60, "velocity": 40}, {"time": 149034, "pitch": 69, "duration": 71, "velocity": 69}, {"time": 149155, "pitch": 82, "duration": 61, "velocity": 40}, {"time": 149276, "pitch": 69, "duration": 60, "velocity": 72}, {"time": 149396, "pitch": 82, "duration": 59, "velocity": 40}, {"time": 149516, "pitch": 69, "duration": 59, "velocity": 67}, {"time": 149635, "pitch": 82, "duration": 59, "velocity": 40}, {"time": 149754, "pitch": 69, "duration": 62, "velocity": 72}, {"time": 149877, "pitch": 82, "duration": 72, "velocity": 40}, {"time": 150000, "pitch": 69, "duration": 61, "velocity": 72}, {"time": 150122, "pitch": 82, "duration": 62, "velocity": 40}, {"time": 150246, "pitch": 69, "duration": 46, "velocity": 74}, {"time": 150360, "pitch": 82, "duration": 50, "velocity": 40}, {"time": 150478, "pitch": 69, "duration": 46, "velocity": 71}, {"time": 150593, "pitch": 82, "duration": 59, "velocity": 40}, {"time": 150709, "pitch": 69, "duration": 61, "velocity": 74}, {"time": 150831, "pitch": 82, "duration": 59, "velocity": 40}, {"time": 150951, "pitch": 69, "duration": 61, "velocity": 66}, {"time": 151073, "pitch": 82, "duration": 60, "velocity": 40}, {"time": 151194, "pitch": 69, "duration": 61, "velocity": 75}, {"time": 151315, "pitch": 82, "duration": 61, "velocity": 40}, {"time": 151437, "pitch": 69, "duration": 59, "velocity": 74}, {"time": 151557, "pitch": 82, "duration": 71, "velocity": 40}, {"time": 151679, "pitch": 69, "duration": 61, "velocity": 72}, {"time": 151802, "pitch": 82, "duration": 51, "velocity": 40}, {"time": 151925, "pitch": 69, "duration": 63, "velocity": 64}, {"time": 152048, "pitch": 82, "duration": 51, "velocity": 40}, {"time": 152170, "pitch": 69, "duration": 57, "velocity": 71}, {"time": 152284, "pitch": 82, "duration": 58, "velocity": 40}, {"time": 152398, "pitch": 69, "duration": 67, "velocity": 61}, {"time": 152512, "pitch": 82, "duration": 58, "velocity": 40}, {"time": 152627, "pitch": 69, "duration": 70, "velocity": 69}, {"time": 152746, "pitch": 82, "duration": 60, "velocity": 40}, {"time": 152866, "pitch": 69, "duration": 69, "velocity": 69}, {"time": 152985, "pitch": 82, "duration": 60, "velocity": 40}, {"time": 153104, "pitch": 69, "duration": 61, "velocity": 72}, {"time": 153226, "pitch": 82, "duration": 60, "velocity": 40}, {"time": 153347, "pitch": 69, "duration": 60, "velocity": 67}, {"time": 153468, "pitch": 82, "duration": 61, "velocity": 40}, {"time": 153589, "pitch": 69, "duration": 60, "velocity": 72}, {"time": 153709, "pitch": 82, "duration": 69, "velocity": 40}, {"time": 153828, "pitch": 69, "duration": 60, "velocity": 72}, {"time": 153947, "pitch": 82, "duration": 60, "velocity": 40}, {"time": 154067, "pitch": 69, "duration": 52, "velocity": 74}, {"time": 154191, "pitch": 82, "duration": 52, "velocity": 40}, {"time": 154316, "pitch": 69, "duration": 51, "velocity": 71}, {"time": 154440, "pitch": 82, "duration": 63, "velocity": 40}, {"time": 154565, "pitch": 69, "duration": 60, "velocity": 74}, {"time": 154685, "pitch": 82, "duration": 59, "velocity": 40}, {"time": 154804, "pitch": 69, "duration": 60, "velocity": 66}, {"time": 154924, "pitch": 82, "duration": 60, "velocity": 40}, {"time": 155043, "pitch": 69, "duration": 60, "velocity": 75}, {"time": 155163, "pitch": 82, "duration": 59, "velocity": 40}, {"time": 155282, "pitch": 69, "duration": 60, "velocity": 74}, {"time": 155401, "pitch": 82, "duration": 70, "velocity": 40}, {"time": 155521, "pitch": 69, "duration": 61, "velocity": 72}, {"time": 155642, "pitch": 82, "duration": 51, "velocity": 40}, {"time": 155764, "pitch": 69, "duration": 59, "velocity": 64}, {"time": 155884, "pitch": 82, "duration": 51, "velocity": 40}, {"time": 156005, "pitch": 69, "duration": 60, "velocity": 71}, {"time": 156125, "pitch": 82, "duration": 59, "velocity": 40}, {"time": 156244, "pitch": 69, "duration": 70, "velocity": 61}, {"time": 156364, "pitch": 82, "duration": 60, "velocity": 40}, {"time": 156483, "pitch": 69, "duration": 70, "velocity": 69}, {"time": 156603, "pitch": 82, "duration": 59, "velocity": 40}, {"time": 156722, "pitch": 69, "duration": 70, "velocity": 69}, {"time": 156841, "pitch": 82, "duration": 60, "velocity": 40}, {"time": 156961, "pitch": 69, "duration": 59, "velocity": 72}, {"time": 157080, "pitch": 82, "duration": 60, "velocity": 40}, {"time": 157200, "pitch": 69, "duration": 59, "velocity": 67}, {"time": 157319, "pitch": 82, "duration": 60, "velocity": 40}, {"time": 157438, "pitch": 69, "duration": 61, "velocity": 72}, {"time": 157560, "pitch": 82, "duration": 70, "velocity": 40}, {"time": 157681, "pitch": 69, "duration": 60, "velocity": 72}, {"time": 157802, "pitch": 82, "duration": 61, "velocity": 40}, {"time": 157923, "pitch": 69, "duration": 50, "velocity": 74}, {"time": 158043, "pitch": 82, "duration": 49, "velocity": 40}, {"time": 158162, "pitch": 69, "duration": 50, "velocity": 71}, {"time": 158281, "pitch": 82, "duration": 60, "velocity": 40}, {"time": 158401, "pitch": 69, "duration": 59, "velocity": 74}, {"time": 158520, "pitch": 82, "duration": 60, "velocity": 40}, {"time": 158640, "pitch": 69, "duration": 59, "velocity": 66}, {"time": 158759, "pitch": 82, "duration": 60, "velocity": 40}, {"time": 158878, "pitch": 69, "duration": 61, "velocity": 75}, {"time": 159000, "pitch": 82, "duration": 60, "velocity": 40}, {"time": 159121, "pitch": 69, "duration": 60, "velocity": 74}, {"time": 159242, "pitch": 82, "duration": 71, "velocity": 40}, {"time": 159363, "pitch": 69, "duration": 60, "velocity": 72}, {"time": 159483, "pitch": 82, "duration": 49, "velocity": 40}, {"time": 159602, "pitch": 69, "duration": 60, "velocity": 64}, {"time": 159721, "pitch": 82, "duration": 50, "velocity": 40}, {"time": 159841, "pitch": 69, "duration": 59, "velocity": 71}, {"time": 159960, "pitch": 82, "duration": 60, "velocity": 40}, {"time": 160080, "pitch": 69, "duration": 69, "velocity": 61}, {"time": 160199, "pitch": 82, "duration": 60, "velocity": 40}, {"time": 160318, "pitch": 69, "duration": 71, "velocity": 69}, {"time": 160440, "pitch": 82, "duration": 60, "velocity": 40}, {"time": 160561, "pitch": 69, "duration": 70, "velocity": 69}, {"time": 160682, "pitch": 82, "duration": 61, "velocity": 40}, {"time": 160803, "pitch": 69, "duration": 60, "velocity": 72}, {"time": 160922, "pitch": 82, "duration": 60, "velocity": 40}, {"time": 161042, "pitch": 69, "duration": 60, "velocity": 67}, {"time": 161161, "pitch": 82, "duration": 60, "velocity": 40}, {"time": 161281, "pitch": 69, "duration": 59, "velocity": 72}, {"time": 161400, "pitch": 82, "duration": 70, "velocity": 40}, {"time": 161519, "pitch": 69, "duration": 60, "velocity": 72}, {"time": 161639, "pitch": 82, "duration": 60, "velocity": 40}, {"time": 161758, "pitch": 69, "duration": 51, "velocity": 74}, {"time": 161879, "pitch": 82, "duration": 51, "velocity": 40}, {"time": 162001, "pitch": 69, "duration": 50, "velocity": 71}, {"time": 162122, "pitch": 82, "duration": 60, "velocity": 40}, {"time": 162243, "pitch": 69, "duration": 60, "velocity": 74}, {"time": 162362, "pitch": 82, "duration": 60, "velocity": 40}, {"time": 162482, "pitch": 69, "duration": 60, "velocity": 66}, {"time": 162601, "pitch": 82, "duration": 60, "velocity": 40}, {"time": 162721, "pitch": 69, "duration": 59, "velocity": 75}, {"time": 162840, "pitch": 82, "duration": 60, "velocity": 40}, {"time": 162959, "pitch": 69, "duration": 60, "velocity": 74}, {"time": 163079, "pitch": 82, "duration": 69, "velocity": 40}, {"time": 163198, "pitch": 69, "duration": 61, "velocity": 72}, {"time": 163319, "pitch": 82, "duration": 51, "velocity": 40}, {"time": 163441, "pitch": 69, "duration": 60, "velocity": 64}, {"time": 163562, "pitch": 82, "duration": 50, "velocity": 40}, {"time": 163683, "pitch": 69, "duration": 60, "velocity": 71}, {"time": 163802, "pitch": 82, "duration": 60, "velocity": 40}, {"time": 163922, "pitch": 69, "duration": 69, "velocity": 61}, {"time": 164041, "pitch": 82, "duration": 60, "velocity": 40}, {"time": 164161, "pitch": 69, "duration": 69, "velocity": 69}, {"time": 164280, "pitch": 82, "duration": 60, "velocity": 40}, {"time": 164399, "pitch": 69, "duration": 70, "velocity": 69}, {"time": 164519, "pitch": 82, "duration": 60, "velocity": 40}, {"time": 164638, "pitch": 69, "duration": 61, "velocity": 72}, {"time": 164759, "pitch": 82, "duration": 61, "velocity": 40}, {"time": 164881, "pitch": 69, "duration": 60, "velocity": 67}, {"time": 165002, "pitch": 82, "duration": 60, "velocity": 40}, {"time": 165123, "pitch": 69, "duration": 60, "velocity": 72}, {"time": 165242, "pitch": 82, "duration": 70, "velocity": 40}, {"time": 165362, "pitch": 69, "duration": 59, "velocity": 72}, {"time": 165481, "pitch": 82, "duration": 60, "velocity": 40}, {"time": 165601, "pitch": 69, "duration": 49, "velocity": 74}, {"time": 165720, "pitch": 82, "duration": 50, "velocity": 40}, {"time": 165839, "pitch": 69, "duration": 50, "velocity": 71}, {"time": 165959, "pitch": 82, "duration": 59, "velocity": 40}, {"time": 166078, "pitch": 69, "duration": 61, "velocity": 74}, {"time": 166199, "pitch": 82, "duration": 61, "velocity": 40}, {"time": 166321, "pitch": 69, "duration": 60, "velocity": 66}, {"time": 166442, "pitch": 82, "duration": 60, "velocity": 40}, {"time": 166563, "pitch": 69, "duration": 60, "velocity": 75}, {"time": 166682, "pitch": 82, "duration": 60, "velocity": 40}, {"time": 166802, "pitch": 69, "duration": 59, "velocity": 74}, {"time": 166921, "pitch": 82, "duration": 70, "velocity": 40}, {"time": 167041, "pitch": 69, "duration": 59, "velocity": 72}, {"time": 167160, "pitch": 82, "duration": 50, "velocity": 40}, {"time": 167279, "pitch": 69, "duration": 60, "velocity": 64}, {"time": 167399, "pitch": 82, "duration": 49, "velocity": 40}, {"time": 167518, "pitch": 69, "duration": 61, "velocity": 71}, {"time": 167639, "pitch": 82, "duration": 61, "velocity": 40}, {"time": 167761, "pitch": 69, "duration": 70, "velocity": 61}, {"time": 167882, "pitch": 82, "duration": 60, "velocity": 40}, {"time": 168003, "pitch": 69, "duration": 70, "velocity": 69}, {"time": 168122, "pitch": 82, "duration": 60, "velocity": 40}, {"time": 168242, "pitch": 69, "duration": 69, "velocity": 69}, {"time": 168361, "pitch": 82, "duration": 60, "velocity": 40}, {"time": 168481, "pitch": 69, "duration": 59, "velocity": 72}, {"time": 168600, "pitch": 82, "duration": 60, "velocity": 40}, {"time": 168719, "pitch": 69, "duration": 60, "velocity": 67}, {"time": 168839, "pitch": 82, "duration": 59, "velocity": 40}, {"time": 168958, "pitch": 69, "duration": 61, "velocity": 72}, {"time": 169079, "pitch": 82, "duration": 71, "velocity": 40}, {"time": 169200, "pitch": 69, "duration": 61, "velocity": 72}, {"time": 169322, "pitch": 82, "duration": 60, "velocity": 40}, {"time": 169443, "pitch": 69, "duration": 50, "velocity": 74}, {"time": 169562, "pitch": 82, "duration": 50, "velocity": 40}, {"time": 169682, "pitch": 69, "duration": 49, "velocity": 71}, {"time": 169801, "pitch": 82, "duration": 60, "velocity": 40}, {"time": 169920, "pitch": 69, "duration": 60, "velocity": 74}, {"time": 170040, "pitch": 82, "duration": 60, "velocity": 40}, {"time": 170159, "pitch": 69, "duration": 60, "velocity": 66}, {"time": 170279, "pitch": 82, "duration": 59, "velocity": 40}, {"time": 170398, "pitch": 69, "duration": 61, "velocity": 75}, {"time": 170519, "pitch": 82, "duration": 61, "velocity": 40}, {"time": 170640, "pitch": 69, "duration": 61, "velocity": 74}, {"time": 170762, "pitch": 82, "duration": 70, "velocity": 40}, {"time": 170883, "pitch": 69, "duration": 60, "velocity": 72}, {"time": 171002, "pitch": 82, "duration": 50, "velocity": 40}, {"time": 171122, "pitch": 69, "duration": 59, "velocity": 64}, {"time": 171241, "pitch": 82, "duration": 50, "velocity": 40}, {"time": 171360, "pitch": 69, "duration": 60, "velocity": 71}, {"time": 171480, "pitch": 82, "duration": 60, "velocity": 40}, {"time": 171599, "pitch": 69, "duration": 70, "velocity": 61}, {"time": 171719, "pitch": 82, "duration": 59, "velocity": 40}, {"time": 171838, "pitch": 69, "duration": 71, "velocity": 69}, {"time": 171959, "pitch": 82, "duration": 61, "velocity": 40}, {"time": 172080, "pitch": 69, "duration": 71, "velocity": 69}, {"time": 172202, "pitch": 82, "duration": 60, "velocity": 40}, {"time": 172323, "pitch": 69, "duration": 59, "velocity": 72}, {"time": 172442, "pitch": 82, "duration": 60, "velocity": 40}, {"time": 172562, "pitch": 69, "duration": 59, "velocity": 67}, {"time": 172681, "pitch": 82, "duration": 60, "velocity": 40}, {"time": 172800, "pitch": 69, "duration": 60, "velocity": 72}, {"time": 172920, "pitch": 82, "duration": 69, "velocity": 40}, {"time": 173039, "pitch": 69, "duration": 60, "velocity": 72}, {"time": 173159, "pitch": 82, "duration": 59, "velocity": 40}, {"time": 173278, "pitch": 69, "duration": 50, "velocity": 74}, {"time": 173399, "pitch": 82, "duration": 51, "velocity": 40}, {"time": 173520, "pitch": 69, "duration": 51, "velocity": 71}, {"time": 173642, "pitch": 82, "duration": 60, "velocity": 40}, {"time": 173763, "pitch": 69, "duration": 59, "velocity": 74}, {"time": 173882, "pitch": 82, "duration": 60, "velocity": 40}, {"time": 174002, "pitch": 69, "duration": 59, "velocity": 66}, {"time": 174121, "pitch": 82, "duration": 60, "velocity": 40}, {"time": 174240, "pitch": 69, "duration": 60, "velocity": 75}, {"time": 174360, "pitch": 82, "duration": 59, "velocity": 40}, {"time": 174479, "pitch": 69, "duration": 60, "velocity": 74}, {"time": 174599, "pitch": 82, "duration": 69, "velocity": 40}, {"time": 174718, "pitch": 69, "duration": 61, "velocity": 72}, {"time": 174839, "pitch": 82, "duration": 51, "velocity": 40}, {"time": 174960, "pitch": 69, "duration": 61, "velocity": 64}, {"time": 175082, "pitch": 82, "duration": 50, "velocity": 40}, {"time": 175203, "pitch": 69, "duration": 59, "velocity": 71}, {"time": 175322, "pitch": 82, "duration": 60, "velocity": 40}, {"time": 175442, "pitch": 69, "duration": 69, "velocity": 61}, {"time": 175561, "pitch": 82, "duration": 60, "velocity": 40}, {"time": 175680, "pitch": 69, "duration": 70, "velocity": 69}, {"time": 175800, "pitch": 82, "duration": 59, "velocity": 40}, {"time": 175919, "pitch": 69, "duration": 70, "velocity": 69}, {"time": 176039, "pitch": 82, "duration": 59, "velocity": 40}, {"time": 176158, "pitch": 69, "duration": 60, "velocity": 72}, {"time": 176279, "pitch": 82, "duration": 61, "velocity": 40}, {"time": 176400, "pitch": 69, "duration": 61, "velocity": 67}, {"time": 176522, "pitch": 82, "duration": 60, "velocity": 40}, {"time": 176643, "pitch": 69, "duration": 59, "velocity": 72}, {"time": 176762, "pitch": 82, "duration": 70, "velocity": 40}, {"time": 176881, "pitch": 69, "duration": 60, "velocity": 72}, {"time": 177001, "pitch": 82, "duration": 60, "velocity": 40}, {"time": 177120, "pitch": 69, "duration": 50, "velocity": 74}, {"time": 177240, "pitch": 82, "duration": 49, "velocity": 40}, {"time": 177359, "pitch": 69, "duration": 50, "velocity": 71}, {"time": 177478, "pitch": 82, "duration": 60, "velocity": 40}, {"time": 177598, "pitch": 69, "duration": 60, "velocity": 74}, {"time": 177719, "pitch": 82, "duration": 61, "velocity": 40}, {"time": 177840, "pitch": 69, "duration": 61, "velocity": 66}, {"time": 177961, "pitch": 82, "duration": 61, "velocity": 40}, {"time": 178083, "pitch": 69, "duration": 59, "velocity": 75}, {"time": 178202, "pitch": 82, "duration": 60, "velocity": 40}, {"time": 178321, "pitch": 69, "duration": 60, "velocity": 74}, {"time": 178441, "pitch": 82, "duration": 70, "velocity": 40}, {"time": 178560, "pitch": 69, "duration": 61, "velocity": 72}, {"time": 178682, "pitch": 82, "duration": 50, "velocity": 40}, {"time": 178803, "pitch": 69, "duration": 60, "velocity": 64}, {"time": 178923, "pitch": 82, "duration": 51, "velocity": 40}, {"time": 179045, "pitch": 69, "duration": 58, "velocity": 71}, {"time": 179162, "pitch": 82, "duration": 59, "velocity": 40}, {"time": 179279, "pitch": 69, "duration": 69, "velocity": 61}, {"time": 179398, "pitch": 82, "duration": 59, "velocity": 40}, {"time": 179516, "pitch": 69, "duration": 69, "velocity": 69}, {"time": 179635, "pitch": 82, "duration": 60, "velocity": 40}, {"time": 179754, "pitch": 69, "duration": 70, "velocity": 69}, {"time": 179874, "pitch": 82, "duration": 60, "velocity": 40}, {"time": 179993, "pitch": 69, "duration": 60, "velocity": 72}, {"time": 180113, "pitch": 82, "duration": 59, "velocity": 40}, {"time": 180232, "pitch": 69, "duration": 60, "velocity": 67}, {"time": 180351, "pitch": 82, "duration": 60, "velocity": 40}, {"time": 180471, "pitch": 69, "duration": 59, "velocity": 72}, {"time": 180590, "pitch": 82, "duration": 70, "velocity": 40}, {"time": 180710, "pitch": 69, "duration": 60, "velocity": 72}, {"time": 180829, "pitch": 82, "duration": 60, "velocity": 40}, {"time": 180949, "pitch": 69, "duration": 50, "velocity": 74}, {"time": 181071, "pitch": 82, "duration": 52, "velocity": 40}, {"time": 181194, "pitch": 69, "duration": 51, "velocity": 71}, {"time": 181317, "pitch": 82, "duration": 61, "velocity": 40}, {"time": 181440, "pitch": 69, "duration": 60, "velocity": 74}, {"time": 181560, "pitch": 82, "duration": 59, "velocity": 40}, {"time": 181679, "pitch": 69, "duration": 60, "velocity": 66}, {"time": 181798, "pitch": 82, "duration": 60, "velocity": 40}, {"time": 181918, "pitch": 69, "duration": 60, "velocity": 75}, {"time": 182039, "pitch": 82, "duration": 61, "velocity": 40}, {"time": 182160, "pitch": 69, "duration": 61, "velocity": 74}, {"time": 182281, "pitch": 82, "duration": 71, "velocity": 40}, {"time": 182403, "pitch": 69, "duration": 59, "velocity": 72}, {"time": 182522, "pitch": 82, "duration": 50, "velocity": 40}, {"time": 182641, "pitch": 69, "duration": 60, "velocity": 64}, {"time": 182761, "pitch": 82, "duration": 49, "velocity": 40}, {"time": 182880, "pitch": 69, "duration": 60, "velocity": 71}, {"time": 183000, "pitch": 82, "duration": 59, "velocity": 40}, {"time": 183119, "pitch": 69, "duration": 70, "velocity": 61}, {"time": 183238, "pitch": 82, "duration": 60, "velocity": 40}, {"time": 183358, "pitch": 69, "duration": 70, "velocity": 69}, {"time": 183479, "pitch": 82, "duration": 61, "velocity": 40}, {"time": 183600, "pitch": 69, "duration": 71, "velocity": 69}, {"time": 183721, "pitch": 82, "duration": 61, "velocity": 40}, {"time": 183843, "pitch": 69, "duration": 59, "velocity": 72}, {"time": 183962, "pitch": 82, "duration": 60, "velocity": 40}, {"time": 184081, "pitch": 69, "duration": 60, "velocity": 67}, {"time": 184201, "pitch": 82, "duration": 59, "velocity": 40}, {"time": 184320, "pitch": 69, "duration": 60, "velocity": 72}, {"time": 184440, "pitch": 82, "duration": 69, "velocity": 40}, {"time": 184559, "pitch": 69, "duration": 60, "velocity": 72}, {"time": 184678, "pitch": 82, "duration": 60, "velocity": 40}, {"time": 184798, "pitch": 69, "duration": 50, "velocity": 74}, {"time": 184919, "pitch": 82, "duration": 50, "velocity": 40}, {"time": 185040, "pitch": 69, "duration": 51, "velocity": 71}, {"time": 185161, "pitch": 82, "duration": 61, "velocity": 40}, {"time": 185282, "pitch": 69, "duration": 60, "velocity": 74}, {"time": 185402, "pitch": 82, "duration": 60, "velocity": 40}, {"time": 185521, "pitch": 69, "duration": 60, "velocity": 66}, {"time": 185641, "pitch": 82, "duration": 59, "velocity": 40}, {"time": 185760, "pitch": 69, "duration": 60, "velocity": 75}, {"time": 185879, "pitch": 82, "duration": 60, "velocity": 40}, {"time": 185999, "pitch": 69, "duration": 60, "velocity": 74}, {"time": 186118, "pitch": 82, "duration": 70, "velocity": 40}, {"time": 186238, "pitch": 69, "duration": 60, "velocity": 72}, {"time": 186359, "pitch": 82, "duration": 50, "velocity": 40}, {"time": 186480, "pitch": 69, "duration": 61, "velocity": 64}, {"time": 186601, "pitch": 82, "duration": 51, "velocity": 40}, {"time": 186722, "pitch": 69, "duration": 60, "velocity": 71}, {"time": 186842, "pitch": 82, "duration": 60, "velocity": 40}, {"time": 186961, "pitch": 69, "duration": 70, "velocity": 61}, {"time": 187081, "pitch": 82, "duration": 59, "velocity": 40}, {"time": 187200, "pitch": 69, "duration": 70, "velocity": 69}, {"time": 187319, "pitch": 82, "duration": 60, "velocity": 40}, {"time": 187439, "pitch": 69, "duration": 69, "velocity": 69}, {"time": 187558, "pitch": 82, "duration": 60, "velocity": 40}, {"time": 187678, "pitch": 69, "duration": 60, "velocity": 72}, {"time": 187799, "pitch": 82, "duration": 60, "velocity": 40}, {"time": 187920, "pitch": 69, "duration": 61, "velocity": 67}, {"time": 188041, "pitch": 82, "duration": 61, "velocity": 40}, {"time": 188162, "pitch": 69, "duration": 60, "velocity": 72}, {"time": 188282, "pitch": 82, "duration": 69, "velocity": 40}, {"time": 188401, "pitch": 69, "duration": 60, "velocity": 72}, {"time": 188521, "pitch": 82, "duration": 59, "velocity": 40}, {"time": 188640, "pitch": 69, "duration": 50, "velocity": 74}, {"time": 188759, "pitch": 82, "duration": 50, "velocity": 40}, {"time": 188879, "pitch": 69, "duration": 50, "velocity": 71}, {"time": 188998, "pitch": 82, "duration": 60, "velocity": 40}, {"time": 189118, "pitch": 69, "duration": 60, "velocity": 74}, {"time": 189239, "pitch": 82, "duration": 60, "velocity": 40}, {"time": 189360, "pitch": 69, "duration": 61, "velocity": 66}, {"time": 189481, "pitch": 82, "duration": 61, "velocity": 40}, {"time": 189602, "pitch": 69, "duration": 60, "velocity": 75}, {"time": 189722, "pitch": 82, "duration": 59, "velocity": 40}, {"time": 189841, "pitch": 69, "duration": 60, "velocity": 74}, {"time": 189961, "pitch": 82, "duration": 69, "velocity": 40}, {"time": 190080, "pitch": 69, "duration": 60, "velocity": 72}, {"time": 190199, "pitch": 82, "duration": 50, "velocity": 40}, {"time": 190319, "pitch": 69, "duration": 59, "velocity": 64}, {"time": 190438, "pitch": 82, "duration": 50, "velocity": 40}, {"time": 190558, "pitch": 69, "duration": 60, "velocity": 71}, {"time": 190679, "pitch": 82, "duration": 60, "velocity": 40}, {"time": 190800, "pitch": 69, "duration": 71, "velocity": 61}, {"time": 190921, "pitch": 82, "duration": 61, "velocity": 40}, {"time": 191042, "pitch": 69, "duration": 70, "velocity": 69}, {"time": 191162, "pitch": 82, "duration": 59, "velocity": 40}, {"time": 191281, "pitch": 69, "duration": 70, "velocity": 69}, {"time": 191401, "pitch": 82, "duration": 59, "velocity": 40}, {"time": 191520, "pitch": 69, "duration": 60, "velocity": 72}, {"time": 191639, "pitch": 82, "duration": 60, "velocity": 40}, {"time": 191759, "pitch": 69, "duration": 59, "velocity": 67}, {"time": 191878, "pitch": 82, "duration": 60, "velocity": 40}, {"time": 191998, "pitch": 69, "duration": 60, "velocity": 72}, {"time": 192119, "pitch": 82, "duration": 70, "velocity": 40}, {"time": 192240, "pitch": 69, "duration": 61, "velocity": 72}, {"time": 192361, "pitch": 82, "duration": 61, "velocity": 40}, {"time": 192482, "pitch": 69, "duration": 50, "velocity": 74}, {"time": 192602, "pitch": 82, "duration": 49, "velocity": 40}, {"time": 192721, "pitch": 69, "duration": 50, "velocity": 71}, {"time": 192840, "pitch": 82, "duration": 60, "velocity": 40}, {"time": 192960, "pitch": 69, "duration": 60, "velocity": 74}, {"time": 193079, "pitch": 82, "duration": 60, "velocity": 40}, {"time": 193199, "pitch": 69, "duration": 59, "velocity": 66}, {"time": 193318, "pitch": 82, "duration": 60, "velocity": 40}, {"time": 193437, "pitch": 69, "duration": 61, "velocity": 75}, {"time": 193559, "pitch": 82, "duration": 60, "velocity": 40}, {"time": 193680, "pitch": 69, "duration": 60, "velocity": 74}, {"time": 193801, "pitch": 82, "duration": 71, "velocity": 40}, {"time": 193922, "pitch": 69, "duration": 60, "velocity": 72}, {"time": 194042, "pitch": 82, "duration": 49, "velocity": 40}, {"time": 194161, "pitch": 69, "duration": 60, "velocity": 64}, {"time": 194280, "pitch": 82, "duration": 50, "velocity": 40}, {"time": 194400, "pitch": 69, "duration": 60, "velocity": 71}, {"time": 194519, "pitch": 82, "duration": 60, "velocity": 40}, {"time": 194639, "pitch": 69, "duration": 69, "velocity": 61}, {"time": 194758, "pitch": 82, "duration": 60, "velocity": 40}, {"time": 194877, "pitch": 69, "duration": 71, "velocity": 69}, {"time": 194999, "pitch": 82, "duration": 60, "velocity": 40}, {"time": 195120, "pitch": 69, "duration": 71, "velocity": 69}, {"time": 195241, "pitch": 82, "duration": 61, "velocity": 40}, {"time": 195362, "pitch": 69, "duration": 60, "velocity": 72}, {"time": 195482, "pitch": 82, "duration": 59, "velocity": 40}, {"time": 195601, "pitch": 69, "duration": 60, "velocity": 67}, {"time": 195720, "pitch": 82, "duration": 60, "velocity": 40}, {"time": 195840, "pitch": 69, "duration": 60, "velocity": 72}, {"time": 195959, "pitch": 82, "duration": 70, "velocity": 40}, {"time": 196079, "pitch": 69, "duration": 59, "velocity": 72}, {"time": 196198, "pitch": 82, "duration": 60, "velocity": 40}, {"time": 196317, "pitch": 69, "duration": 51, "velocity": 74}, {"time": 196439, "pitch": 82, "duration": 50, "velocity": 40}, {"time": 196560, "pitch": 69, "duration": 50, "velocity": 71}, {"time": 196681, "pitch": 82, "duration": 61, "velocity": 40}, {"time": 196802, "pitch": 69, "duration": 60, "velocity": 74}, {"time": 196922, "pitch": 82, "duration": 59, "velocity": 40}, {"time": 197041, "pitch": 69, "duration": 60, "velocity": 66}, {"time": 197160, "pitch": 82, "duration": 60, "velocity": 40}, {"time": 197280, "pitch": 69, "duration": 59, "velocity": 75}, {"time": 197399, "pitch": 82, "duration": 60, "velocity": 40}, {"time": 197519, "pitch": 69, "duration": 59, "velocity": 74}, {"time": 197638, "pitch": 82, "duration": 70, "velocity": 40}, {"time": 197757, "pitch": 69, "duration": 61, "velocity": 72}, {"time": 197879, "pitch": 82, "duration": 50, "velocity": 40}, {"time": 198000, "pitch": 69, "duration": 60, "velocity": 64}, {"time": 198121, "pitch": 82, "duration": 50, "velocity": 40}, {"time": 198242, "pitch": 69, "duration": 60, "velocity": 71}, {"time": 198362, "pitch": 82, "duration": 59, "velocity": 40}, {"time": 198481, "pitch": 69, "duration": 70, "velocity": 61}, {"time": 198600, "pitch": 82, "duration": 60, "velocity": 40}, {"time": 198720, "pitch": 69, "duration": 69, "velocity": 69}, {"time": 198839, "pitch": 82, "duration": 60, "velocity": 40}, {"time": 198959, "pitch": 69, "duration": 69, "velocity": 69}, {"time": 199078, "pitch": 82, "duration": 60, "velocity": 40}, {"time": 199197, "pitch": 69, "duration": 61, "velocity": 72}, {"time": 199319, "pitch": 82, "duration": 60, "velocity": 40}, {"time": 199440, "pitch": 69, "duration": 60, "velocity": 67}, {"time": 199561, "pitch": 82, "duration": 61, "velocity": 40}, {"time": 199682, "pitch": 69, "duration": 60, "velocity": 72}, {"time": 199802, "pitch": 82, "duration": 69, "velocity": 40}, {"time": 199921, "pitch": 69, "duration": 60, "velocity": 72}, {"time": 200040, "pitch": 82, "duration": 60, "velocity": 40}, {"time": 200160, "pitch": 69, "duration": 49, "velocity": 74}, {"time": 200279, "pitch": 82, "duration": 50, "velocity": 40}, {"time": 200399, "pitch": 69, "duration": 49, "velocity": 71}, {"time": 200518, "pitch": 82, "duration": 60, "velocity": 40}, {"time": 200637, "pitch": 69, "duration": 61, "velocity": 74}, {"time": 200758, "pitch": 82, "duration": 61, "velocity": 40}, {"time": 200880, "pitch": 69, "duration": 60, "velocity": 66}, {"time": 201001, "pitch": 82, "duration": 61, "velocity": 40}, {"time": 201122, "pitch": 69, "duration": 60, "velocity": 75}, {"time": 201241, "pitch": 82, "duration": 60, "velocity": 40}, {"time": 201361, "pitch": 69, "duration": 60, "velocity": 74}, {"time": 201480, "pitch": 82, "duration": 70, "velocity": 40}, {"time": 201600, "pitch": 69, "duration": 59, "velocity": 72}, {"time": 201719, "pitch": 82, "duration": 50, "velocity": 40}, {"time": 201838, "pitch": 69, "duration": 60, "velocity": 64}, {"time": 201958, "pitch": 82, "duration": 50, "velocity": 40}, {"time": 202077, "pitch": 69, "duration": 61, "velocity": 71}, {"time": 202198, "pitch": 82, "duration": 61, "velocity": 40}, {"time": 202320, "pitch": 69, "duration": 70, "velocity": 61}, {"time": 202441, "pitch": 82, "duration": 60, "velocity": 40}, {"time": 202562, "pitch": 69, "duration": 70, "velocity": 69}, {"time": 202681, "pitch": 82, "duration": 60, "velocity": 40}, {"time": 202801, "pitch": 69, "duration": 69, "velocity": 69}, {"time": 202920, "pitch": 82, "duration": 60, "velocity": 40}, {"time": 203040, "pitch": 69, "duration": 59, "velocity": 72}, {"time": 203159, "pitch": 82, "duration": 60, "velocity": 40}, {"time": 203278, "pitch": 69, "duration": 60, "velocity": 67}, {"time": 203398, "pitch": 82, "duration": 60, "velocity": 40}, {"time": 203517, "pitch": 69, "duration": 61, "velocity": 72}, {"time": 203638, "pitch": 82, "duration": 71, "velocity": 40}, {"time": 203760, "pitch": 69, "duration": 60, "velocity": 72}, {"time": 203881, "pitch": 82, "duration": 60, "velocity": 40}, {"time": 204002, "pitch": 69, "duration": 50, "velocity": 74}, {"time": 204121, "pitch": 82, "duration": 50, "velocity": 40}, {"time": 204241, "pitch": 69, "duration": 50, "velocity": 71}, {"time": 204360, "pitch": 82, "duration": 60, "velocity": 40}, {"time": 204480, "pitch": 69, "duration": 59, "velocity": 74}, {"time": 204599, "pitch": 82, "duration": 60, "velocity": 40}, {"time": 204718, "pitch": 69, "duration": 60, "velocity": 66}, {"time": 204838, "pitch": 82, "duration": 60, "velocity": 40}, {"time": 204957, "pitch": 69, "duration": 61, "velocity": 75}, {"time": 205078, "pitch": 82, "duration": 61, "velocity": 40}, {"time": 205200, "pitch": 69, "duration": 60, "velocity": 74}, {"time": 205321, "pitch": 82, "duration": 70, "velocity": 40}, {"time": 205442, "pitch": 69, "duration": 60, "velocity": 72}, {"time": 205561, "pitch": 82, "duration": 50, "velocity": 40}, {"time": 205681, "pitch": 69, "duration": 59, "velocity": 64}, {"time": 205800, "pitch": 82, "duration": 50, "velocity": 40}, {"time": 205920, "pitch": 69, "duration": 59, "velocity": 71}, {"time": 206039, "pitch": 82, "duration": 60, "velocity": 40}, {"time": 206158, "pitch": 69, "duration": 70, "velocity": 61}, {"time": 206278, "pitch": 82, "duration": 59, "velocity": 40}, {"time": 206397, "pitch": 69, "duration": 71, "velocity": 69}, {"time": 206518, "pitch": 82, "duration": 61, "velocity": 40}, {"time": 206640, "pitch": 69, "duration": 70, "velocity": 69}, {"time": 206761, "pitch": 82, "duration": 60, "velocity": 40}, {"time": 206882, "pitch": 69, "duration": 60, "velocity": 72}, {"time": 207001, "pitch": 82, "duration": 60, "velocity": 40}, {"time": 207121, "pitch": 69, "duration": 59, "velocity": 67}, {"time": 207240, "pitch": 82, "duration": 60, "velocity": 40}, {"time": 207360, "pitch": 69, "duration": 59, "velocity": 72}, {"time": 207479, "pitch": 82, "duration": 70, "velocity": 40}, {"time": 207598, "pitch": 69, "duration": 60, "velocity": 72}, {"time": 207718, "pitch": 82, "duration": 59, "velocity": 40}, {"time": 207837, "pitch": 69, "duration": 51, "velocity": 74}, {"time": 207958, "pitch": 82, "duration": 51, "velocity": 40}, {"time": 208080, "pitch": 69, "duration": 50, "velocity": 71}, {"time": 208201, "pitch": 82, "duration": 60, "velocity": 40}, {"time": 208322, "pitch": 69, "duration": 60, "velocity": 74}, {"time": 208441, "pitch": 82, "duration": 60, "velocity": 40}, {"time": 208561, "pitch": 69, "duration": 59, "velocity": 66}, {"time": 208680, "pitch": 82, "duration": 60, "velocity": 40}, {"time": 208799, "pitch": 69, "duration": 60, "velocity": 75}, {"time": 208919, "pitch": 82, "duration": 60, "velocity": 40}, {"time": 209038, "pitch": 69, "duration": 60, "velocity": 74}, {"time": 209158, "pitch": 82, "duration": 69, "velocity": 40}, {"time": 209277, "pitch": 69, "duration": 61, "velocity": 72}, {"time": 209398, "pitch": 82, "duration": 51, "velocity": 40}, {"time": 209519, "pitch": 69, "duration": 61, "velocity": 64}, {"time": 209641, "pitch": 82, "duration": 50, "velocity": 40}, {"time": 209762, "pitch": 69, "duration": 60, "velocity": 71}, {"time": 209881, "pitch": 82, "duration": 60, "velocity": 40}, {"time": 210001, "pitch": 69, "duration": 69, "velocity": 61}, {"time": 210120, "pitch": 82, "duration": 60, "velocity": 40}, {"time": 210239, "pitch": 69, "duration": 70, "velocity": 69}, {"time": 210359, "pitch": 82, "duration": 60, "velocity": 40}, {"time": 210478, "pitch": 69, "duration": 70, "velocity": 69}, {"time": 210598, "pitch": 82, "duration": 59, "velocity": 40}, {"time": 210717, "pitch": 69, "duration": 61, "velocity": 72}, {"time": 210838, "pitch": 82, "duration": 61, "velocity": 40}, {"time": 210959, "pitch": 69, "duration": 61, "velocity": 67}, {"time": 211081, "pitch": 82, "duration": 60, "velocity": 40}, {"time": 211202, "pitch": 69, "duration": 60, "velocity": 72}, {"time": 211321, "pitch": 82, "duration": 70, "velocity": 40}, {"time": 211441, "pitch": 69, "duration": 59, "velocity": 72}, {"time": 211560, "pitch": 82, "duration": 60, "velocity": 40}, {"time": 211679, "pitch": 69, "duration": 50, "velocity": 74}, {"time": 211799, "pitch": 82, "duration": 50, "velocity": 40}, {"time": 211918, "pitch": 69, "duration": 50, "velocity": 71}, {"time": 212038, "pitch": 82, "duration": 59, "velocity": 40}, {"time": 212157, "pitch": 69, "duration": 61, "velocity": 74}, {"time": 212278, "pitch": 82, "duration": 61, "velocity": 40}, {"time": 212399, "pitch": 69, "duration": 61, "velocity": 66}, {"time": 212521, "pitch": 82, "duration": 60, "velocity": 40}, {"time": 212642, "pitch": 69, "duration": 59, "velocity": 75}, {"time": 212761, "pitch": 82, "duration": 60, "velocity": 40}, {"time": 212881, "pitch": 69, "duration": 59, "velocity": 74}, {"time": 213000, "pitch": 82, "duration": 70, "velocity": 40}, {"time": 213119, "pitch": 69, "duration": 60, "velocity": 72}, {"time": 213239, "pitch": 82, "duration": 50, "velocity": 40}, {"time": 213358, "pitch": 69, "duration": 60, "velocity": 64}, {"time": 213478, "pitch": 82, "duration": 49, "velocity": 40}, {"time": 213597, "pitch": 69, "duration": 61, "velocity": 71}, {"time": 213718, "pitch": 82, "duration": 61, "velocity": 40}, {"time": 213839, "pitch": 69, "duration": 71, "velocity": 61}, {"time": 213961, "pitch": 82, "duration": 60, "velocity": 40}, {"time": 214082, "pitch": 69, "duration": 69, "velocity": 69}, {"time": 214201, "pitch": 82, "duration": 60, "velocity": 40}, {"time": 214321, "pitch": 69, "duration": 69, "velocity": 69}, {"time": 214440, "pitch": 82, "duration": 60, "velocity": 40}, {"time": 214559, "pitch": 69, "duration": 60, "velocity": 72}, {"time": 214679, "pitch": 82, "duration": 59, "velocity": 40}, {"time": 214798, "pitch": 69, "duration": 60, "velocity": 67}, {"time": 214918, "pitch": 82, "duration": 59, "velocity": 40}, {"time": 215037, "pitch": 69, "duration": 61, "velocity": 72}, {"time": 215158, "pitch": 82, "duration": 71, "velocity": 40}, {"time": 215279, "pitch": 69, "duration": 61, "velocity": 72}, {"time": 215401, "pitch": 82, "duration": 60, "velocity": 40}, {"time": 215522, "pitch": 69, "duration": 49, "velocity": 74}, {"time": 215641, "pitch": 82, "duration": 50, "velocity": 40}, {"time": 215761, "pitch": 69, "duration": 49, "velocity": 71}, {"time": 215880, "pitch": 82, "duration": 60, "velocity": 40}, {"time": 215999, "pitch": 69, "duration": 60, "velocity": 74}, {"time": 216119, "pitch": 82, "duration": 59, "velocity": 40}, {"time": 216238, "pitch": 69, "duration": 60, "velocity": 66}, {"time": 216358, "pitch": 82, "duration": 59, "velocity": 40}, {"time": 216477, "pitch": 69, "duration": 60, "velocity": 75}, {"time": 216598, "pitch": 82, "duration": 61, "velocity": 40}, {"time": 216719, "pitch": 69, "duration": 61, "velocity": 74}, {"time": 216841, "pitch": 82, "duration": 70, "velocity": 40}, {"time": 216962, "pitch": 69, "duration": 59, "velocity": 72}, {"time": 217081, "pitch": 82, "duration": 50, "velocity": 40}, {"time": 217200, "pitch": 69, "duration": 60, "velocity": 64}, {"time": 217320, "pitch": 82, "duration": 50, "velocity": 40}, {"time": 217439, "pitch": 69, "duration": 60, "velocity": 71}, {"time": 217559, "pitch": 82, "duration": 59, "velocity": 40}, {"time": 217678, "pitch": 69, "duration": 70, "velocity": 61}, {"time": 217797, "pitch": 82, "duration": 60, "velocity": 40}, {"time": 217917, "pitch": 69, "duration": 71, "velocity": 69}, {"time": 218038, "pitch": 82, "duration": 61, "velocity": 40}, {"time": 218159, "pitch": 69, "duration": 71, "velocity": 69}, {"time": 218280, "pitch": 82, "duration": 61, "velocity": 40}, {"time": 218402, "pitch": 69, "duration": 59, "velocity": 72}, {"time": 218521, "pitch": 82, "duration": 60, "velocity": 40}, {"time": 218640, "pitch": 69, "duration": 60, "velocity": 67}, {"time": 218760, "pitch": 82, "duration": 60, "velocity": 40}, {"time": 218879, "pitch": 69, "duration": 60, "velocity": 72}, {"time": 218999, "pitch": 82, "duration": 69, "velocity": 40}, {"time": 219118, "pitch": 69, "duration": 60, "velocity": 72}, {"time": 219237, "pitch": 82, "duration": 60, "velocity": 40}, {"time": 219357, "pitch": 69, "duration": 50, "velocity": 74}, {"time": 219478, "pitch": 82, "duration": 51, "velocity": 40}, {"time": 219599, "pitch": 69, "duration": 51, "velocity": 71}, {"time": 219720, "pitch": 82, "duration": 61, "velocity": 40}, {"time": 219842, "pitch": 69, "duration": 59, "velocity": 74}, {"time": 219961, "pitch": 82, "duration": 60, "velocity": 40}, {"time": 220080, "pitch": 69, "duration": 60, "velocity": 66}, {"time": 220200, "pitch": 82, "duration": 60, "velocity": 40}, {"time": 220319, "pitch": 69, "duration": 60, "velocity": 75}, {"time": 220439, "pitch": 82, "duration": 59, "velocity": 40}, {"time": 220558, "pitch": 69, "duration": 60, "velocity": 74}, {"time": 220677, "pitch": 82, "duration": 70, "velocity": 40}, {"time": 220797, "pitch": 69, "duration": 60, "velocity": 72}, {"time": 220918, "pitch": 82, "duration": 50, "velocity": 40}, {"time": 221039, "pitch": 69, "duration": 61, "velocity": 64}, {"time": 221160, "pitch": 82, "duration": 51, "velocity": 40}, {"time": 221282, "pitch": 69, "duration": 59, "velocity": 71}, {"time": 221401, "pitch": 82, "duration": 60, "velocity": 40}, {"time": 221520, "pitch": 69, "duration": 70, "velocity": 61}, {"time": 221640, "pitch": 82, "duration": 59, "velocity": 40}, {"time": 221759, "pitch": 69, "duration": 70, "velocity": 69}, {"time": 221879, "pitch": 82, "duration": 59, "velocity": 40}, {"time": 221998, "pitch": 69, "duration": 70, "velocity": 69}, {"time": 222117, "pitch": 82, "duration": 60, "velocity": 40}, {"time": 222237, "pitch": 69, "duration": 60, "velocity": 72}, {"time": 222358, "pitch": 82, "duration": 61, "velocity": 40}, {"time": 222479, "pitch": 69, "duration": 61, "velocity": 67}, {"time": 222600, "pitch": 82, "duration": 61, "velocity": 40}, {"time": 222722, "pitch": 69, "duration": 59, "velocity": 72}, {"time": 222841, "pitch": 82, "duration": 70, "velocity": 40}, {"time": 222960, "pitch": 69, "duration": 60, "velocity": 72}, {"time": 223080, "pitch": 82, "duration": 59, "velocity": 40}, {"time": 223199, "pitch": 69, "duration": 50, "velocity": 74}, {"time": 223319, "pitch": 82, "duration": 49, "velocity": 40}, {"time": 223438, "pitch": 69, "duration": 50, "velocity": 71}, {"time": 223557, "pitch": 82, "duration": 60, "velocity": 40}, {"time": 223677, "pitch": 69, "duration": 60, "velocity": 74}, {"time": 223798, "pitch": 82, "duration": 61, "velocity": 40}, {"time": 223919, "pitch": 69, "duration": 61, "velocity": 66}, {"time": 224040, "pitch": 82, "duration": 61, "velocity": 40}, {"time": 224162, "pitch": 69, "duration": 59, "velocity": 75}, {"time": 224281, "pitch": 82, "duration": 60, "velocity": 40}, {"time": 224400, "pitch": 69, "duration": 60, "velocity": 74}, {"time": 224520, "pitch": 82, "duration": 69, "velocity": 40}, {"time": 224639, "pitch": 69, "duration": 60, "velocity": 72}, {"time": 224759, "pitch": 82, "duration": 49, "velocity": 40}, {"time": 224878, "pitch": 69, "duration": 60, "velocity": 64}, {"time": 224997, "pitch": 82, "duration": 50, "velocity": 40}, {"time": 225117, "pitch": 69, "duration": 60, "velocity": 71}, {"time": 225238, "pitch": 82, "duration": 60, "velocity": 40}, {"time": 225359, "pitch": 69, "duration": 71, "velocity": 61}, {"time": 225480, "pitch": 82, "duration": 61, "velocity": 40}, {"time": 225601, "pitch": 69, "duration": 70, "velocity": 69}, {"time": 225721, "pitch": 82, "duration": 60, "velocity": 40}, {"time": 225840, "pitch": 69, "duration": 70, "velocity": 69}, {"time": 225960, "pitch": 82, "duration": 59, "velocity": 40}, {"time": 226079, "pitch": 69, "duration": 60, "velocity": 72}, {"time": 226198, "pitch": 82, "duration": 60, "velocity": 40}, {"time": 226318, "pitch": 69, "duration": 60, "velocity": 67}, {"time": 226437, "pitch": 82, "duration": 60, "velocity": 40}, {"time": 226557, "pitch": 69, "duration": 59, "velocity": 72}, {"time": 226674, "pitch": 82, "duration": 69, "velocity": 40}, {"time": 226792, "pitch": 69, "duration": 59, "velocity": 72}, {"time": 226910, "pitch": 82, "duration": 58, "velocity": 40}, {"time": 227027, "pitch": 69, "duration": 49, "velocity": 74}, {"time": 227145, "pitch": 82, "duration": 49, "velocity": 40}, {"time": 227263, "pitch": 69, "duration": 49, "velocity": 71}, {"time": 227380, "pitch": 82, "duration": 59, "velocity": 40}, {"time": 227498, "pitch": 69, "duration": 59, "velocity": 74}, {"time": 227616, "pitch": 82, "duration": 58, "velocity": 40}, {"time": 227733, "pitch": 69, "duration": 59, "velocity": 66}, {"time": 227851, "pitch": 82, "duration": 59, "velocity": 40}, {"time": 227968, "pitch": 69, "duration": 59, "velocity": 75}, {"time": 228086, "pitch": 82, "duration": 59, "velocity": 40}, {"time": 228204, "pitch": 69, "duration": 59, "velocity": 74}, {"time": 228321, "pitch": 82, "duration": 69, "velocity": 40}, {"time": 228439, "pitch": 69, "duration": 59, "velocity": 72}, {"time": 228557, "pitch": 82, "duration": 49, "velocity": 40}, {"time": 228674, "pitch": 69, "duration": 59, "velocity": 64}, {"time": 228792, "pitch": 82, "duration": 49, "velocity": 40}, {"time": 228910, "pitch": 69, "duration": 58, "velocity": 71}, {"time": 229027, "pitch": 82, "duration": 59, "velocity": 40}, {"time": 229145, "pitch": 69, "duration": 69, "velocity": 61}, {"time": 229263, "pitch": 82, "duration": 58, "velocity": 40}, {"time": 229380, "pitch": 69, "duration": 69, "velocity": 69}, {"time": 229498, "pitch": 82, "duration": 59, "velocity": 40}, {"time": 229615, "pitch": 69, "duration": 69, "velocity": 69}, {"time": 229733, "pitch": 82, "duration": 59, "velocity": 40}, {"time": 229851, "pitch": 69, "duration": 59, "velocity": 72}, {"time": 229968, "pitch": 82, "duration": 59, "velocity": 40}, {"time": 230086, "pitch": 69, "duration": 59, "velocity": 67}, {"time": 230204, "pitch": 82, "duration": 59, "velocity": 40}, {"time": 230321, "pitch": 69, "duration": 59, "velocity": 72}, {"time": 230439, "pitch": 82, "duration": 69, "velocity": 40}, {"time": 230557, "pitch": 69, "duration": 58, "velocity": 72}, {"time": 230674, "pitch": 82, "duration": 59, "velocity": 40}, {"time": 15857, "pitch": 47, "duration": 233, "velocity": 90}, {"time": 16090, "pitch": 59, "duration": 19, "velocity": 85}, {"time": 16322, "pitch": 59, "duration": 60, "velocity": 90}, {"time": 16332, "pitch": 62, "duration": 50, "velocity": 95}, {"time": 16342, "pitch": 66, "duration": 40, "velocity": 100}, {"time": 17038, "pitch": 47, "duration": 239, "velocity": 90}, {"time": 17277, "pitch": 59, "duration": 61, "velocity": 90}, {"time": 17287, "pitch": 62, "duration": 51, "velocity": 95}, {"time": 17297, "pitch": 67, "duration": 41, "velocity": 100}, {"time": 17762, "pitch": 45, "duration": 1898, "velocity": 90}, {"time": 18001, "pitch": 57, "duration": 358, "velocity": 95}, {"time": 18120, "pitch": 62, "duration": 358, "velocity": 100}, {"time": 18359, "pitch": 57, "duration": 1301, "velocity": 95}, {"time": 18478, "pitch": 61, "duration": 481, "velocity": 90}, {"time": 18959, "pitch": 61, "duration": 122, "velocity": 90}, {"time": 19081, "pitch": 62, "duration": 121, "velocity": 95}, {"time": 19202, "pitch": 64, "duration": 458, "velocity": 100}, {"time": 19679, "pitch": 47, "duration": 20, "velocity": 90}, {"time": 19918, "pitch": 59, "duration": 20, "velocity": 85}, {"time": 20157, "pitch": 59, "duration": 61, "velocity": 90}, {"time": 20167, "pitch": 62, "duration": 51, "velocity": 95}, {"time": 20177, "pitch": 66, "duration": 41, "velocity": 100}, {"time": 20881, "pitch": 47, "duration": 159, "velocity": 90}, {"time": 21119, "pitch": 59, "duration": 60, "velocity": 90}, {"time": 21129, "pitch": 62, "duration": 50, "velocity": 95}, {"time": 21139, "pitch": 67, "duration": 40, "velocity": 100}, {"time": 21597, "pitch": 45, "duration": 1905, "velocity": 90}, {"time": 21839, "pitch": 57, "duration": 362, "velocity": 95}, {"time": 21961, "pitch": 62, "duration": 360, "velocity": 100}, {"time": 22201, "pitch": 57, "duration": 1301, "velocity": 95}, {"time": 22321, "pitch": 61, "duration": 477, "velocity": 90}, {"time": 22798, "pitch": 61, "duration": 120, "velocity": 90}, {"time": 22918, "pitch": 62, "duration": 119, "velocity": 95}, {"time": 23037, "pitch": 64, "duration": 465, "velocity": 100}, {"time": 23522, "pitch": 47, "duration": 20, "velocity": 90}, {"time": 23761, "pitch": 59, "duration": 19, "velocity": 85}, {"time": 23999, "pitch": 59, "duration": 60, "velocity": 90}, {"time": 24009, "pitch": 62, "duration": 50, "velocity": 95}, {"time": 24019, "pitch": 66, "duration": 40, "velocity": 100}, {"time": 24719, "pitch": 47, "duration": 162, "velocity": 90}, {"time": 24962, "pitch": 59, "duration": 59, "velocity": 90}, {"time": 24972, "pitch": 62, "duration": 49, "velocity": 95}, {"time": 24982, "pitch": 67, "duration": 39, "velocity": 100}, {"time": 25439, "pitch": 45, "duration": 1898, "velocity": 90}, {"time": 25678, "pitch": 57, "duration": 360, "velocity": 95}, {"time": 25797, "pitch": 62, "duration": 362, "velocity": 100}, {"time": 26038, "pitch": 57, "duration": 1299, "velocity": 95}, {"time": 26159, "pitch": 61, "duration": 481, "velocity": 90}, {"time": 26640, "pitch": 61, "duration": 120, "velocity": 90}, {"time": 26760, "pitch": 62, "duration": 119, "velocity": 95}, {"time": 26879, "pitch": 64, "duration": 458, "velocity": 100}, {"time": 27357, "pitch": 47, "duration": 20, "velocity": 90}, {"time": 27599, "pitch": 59, "duration": 20, "velocity": 85}, {"time": 27842, "pitch": 59, "duration": 59, "velocity": 90}, {"time": 27852, "pitch": 62, "duration": 49, "velocity": 95}, {"time": 27862, "pitch": 66, "duration": 39, "velocity": 100}, {"time": 28558, "pitch": 47, "duration": 159, "velocity": 90}, {"time": 28797, "pitch": 59, "duration": 60, "velocity": 90}, {"time": 28807, "pitch": 62, "duration": 50, "velocity": 95}, {"time": 28817, "pitch": 67, "duration": 40, "velocity": 100}, {"time": 29282, "pitch": 45, "duration": 1897, "velocity": 90}, {"time": 29520, "pitch": 57, "duration": 359, "velocity": 95}, {"time": 29640, "pitch": 62, "duration": 358, "velocity": 100}, {"time": 29879, "pitch": 57, "duration": 1300, "velocity": 95}, {"time": 29998, "pitch": 61, "duration": 481, "velocity": 90}, {"time": 30479, "pitch": 61, "duration": 121, "velocity": 90}, {"time": 30600, "pitch": 62, "duration": 122, "velocity": 95}, {"time": 30722, "pitch": 64, "duration": 457, "velocity": 100}, {"time": 31199, "pitch": 55, "duration": 3822, "velocity": 80}, {"time": 31438, "pitch": 62, "duration": 3583, "velocity": 90}, {"time": 31677, "pitch": 59, "duration": 3344, "velocity": 85}, {"time": 31919, "pitch": 64, "duration": 3102, "velocity": 80}, {"time": 35041, "pitch": 47, "duration": 239, "velocity": 90}, {"time": 35280, "pitch": 59, "duration": 20, "velocity": 85}, {"time": 35519, "pitch": 59, "duration": 60, "velocity": 90}, {"time": 35529, "pitch": 62, "duration": 50, "velocity": 95}, {"time": 35539, "pitch": 66, "duration": 40, "velocity": 100}, {"time": 36239, "pitch": 47, "duration": 242, "velocity": 90}, {"time": 36481, "pitch": 59, "duration": 60, "velocity": 90}, {"time": 36491, "pitch": 62, "duration": 50, "velocity": 95}, {"time": 36501, "pitch": 67, "duration": 40, "velocity": 100}, {"time": 36959, "pitch": 45, "duration": 1898, "velocity": 90}, {"time": 37198, "pitch": 57, "duration": 360, "velocity": 95}, {"time": 37317, "pitch": 62, "duration": 362, "velocity": 100}, {"time": 37558, "pitch": 57, "duration": 1299, "velocity": 95}, {"time": 37679, "pitch": 61, "duration": 481, "velocity": 90}, {"time": 38160, "pitch": 61, "duration": 120, "velocity": 90}, {"time": 38280, "pitch": 62, "duration": 119, "velocity": 95}, {"time": 38399, "pitch": 64, "duration": 458, "velocity": 100}, {"time": 38877, "pitch": 47, "duration": 20, "velocity": 90}, {"time": 39119, "pitch": 59, "duration": 20, "velocity": 85}, {"time": 39361, "pitch": 59, "duration": 60, "velocity": 90}, {"time": 39371, "pitch": 62, "duration": 50, "velocity": 95}, {"time": 39381, "pitch": 66, "duration": 40, "velocity": 100}, {"time": 40078, "pitch": 47, "duration": 159, "velocity": 90}, {"time": 40317, "pitch": 59, "duration": 60, "velocity": 90}, {"time": 40327, "pitch": 62, "duration": 50, "velocity": 95}, {"time": 40337, "pitch": 67, "duration": 40, "velocity": 100}, {"time": 40801, "pitch": 45, "duration": 1898, "velocity": 90}, {"time": 41040, "pitch": 57, "duration": 358, "velocity": 95}, {"time": 41159, "pitch": 62, "duration": 359, "velocity": 100}, {"time": 41398, "pitch": 57, "duration": 1301, "velocity": 95}, {"time": 41518, "pitch": 61, "duration": 481, "velocity": 90}, {"time": 41999, "pitch": 61, "duration": 121, "velocity": 90}, {"time": 42120, "pitch": 62, "duration": 121, "velocity": 95}, {"time": 42241, "pitch": 64, "duration": 458, "velocity": 100}, {"time": 42719, "pitch": 47, "duration": 20, "velocity": 90}, {"time": 42958, "pitch": 59, "duration": 20, "velocity": 85}, {"time": 43196, "pitch": 59, "duration": 61, "velocity": 90}, {"time": 43207, "pitch": 62, "duration": 50, "velocity": 95}, {"time": 43217, "pitch": 66, "duration": 40, "velocity": 100}, {"time": 43920, "pitch": 47, "duration": 159, "velocity": 90}, {"time": 44159, "pitch": 59, "duration": 60, "velocity": 90}, {"time": 44169, "pitch": 62, "duration": 50, "velocity": 95}, {"time": 44179, "pitch": 67, "duration": 40, "velocity": 100}, {"time": 44644, "pitch": 45, "duration": 1897, "velocity": 90}, {"time": 44882, "pitch": 57, "duration": 359, "velocity": 95}, {"time": 45002, "pitch": 62, "duration": 358, "velocity": 100}, {"time": 45241, "pitch": 57, "duration": 1300, "velocity": 95}, {"time": 45360, "pitch": 61, "duration": 481, "velocity": 90}, {"time": 45841, "pitch": 61, "duration": 121, "velocity": 90}, {"time": 45962, "pitch": 62, "duration": 122, "velocity": 95}, {"time": 46084, "pitch": 64, "duration": 457, "velocity": 100}, {"time": 46561, "pitch": 47, "duration": 20, "velocity": 90}, {"time": 46800, "pitch": 59, "duration": 20, "velocity": 85}, {"time": 47039, "pitch": 59, "duration": 60, "velocity": 90}, {"time": 47049, "pitch": 62, "duration": 50, "velocity": 95}, {"time": 47059, "pitch": 66, "duration": 40, "velocity": 100}, {"time": 47762, "pitch": 47, "duration": 160, "velocity": 90}, {"time": 48001, "pitch": 59, "duration": 60, "velocity": 90}, {"time": 48011, "pitch": 62, "duration": 50, "velocity": 95}, {"time": 48021, "pitch": 67, "duration": 40, "velocity": 100}, {"time": 48479, "pitch": 45, "duration": 1904, "velocity": 90}, {"time": 48721, "pitch": 57, "duration": 362, "velocity": 95}, {"time": 48842, "pitch": 62, "duration": 360, "velocity": 100}, {"time": 49083, "pitch": 57, "duration": 1300, "velocity": 95}, {"time": 49202, "pitch": 61, "duration": 478, "velocity": 90}, {"time": 49680, "pitch": 61, "duration": 119, "velocity": 90}, {"time": 49799, "pitch": 62, "duration": 120, "velocity": 95}, {"time": 49919, "pitch": 64, "duration": 464, "velocity": 100}, {"time": 84963, "pitch": 47, "duration": 238, "velocity": 90}, {"time": 85201, "pitch": 59, "duration": 20, "velocity": 85}, {"time": 85440, "pitch": 59, "duration": 60, "velocity": 90}, {"time": 85450, "pitch": 62, "duration": 50, "velocity": 95}, {"time": 85460, "pitch": 66, "duration": 40, "velocity": 100}, {"time": 86160, "pitch": 47, "duration": 243, "velocity": 90}, {"time": 86403, "pitch": 59, "duration": 59, "velocity": 90}, {"time": 86412, "pitch": 62, "duration": 50, "velocity": 95}, {"time": 86422, "pitch": 67, "duration": 40, "velocity": 100}, {"time": 86880, "pitch": 45, "duration": 1898, "velocity": 90}, {"time": 87119, "pitch": 57, "duration": 360, "velocity": 95}, {"time": 87238, "pitch": 62, "duration": 362, "velocity": 100}, {"time": 87479, "pitch": 57, "duration": 1299, "velocity": 95}, {"time": 87600, "pitch": 61, "duration": 481, "velocity": 90}, {"time": 88081, "pitch": 61, "duration": 120, "velocity": 90}, {"time": 88201, "pitch": 62, "duration": 119, "velocity": 95}, {"time": 88320, "pitch": 64, "duration": 458, "velocity": 100}, {"time": 88798, "pitch": 47, "duration": 20, "velocity": 90}, {"time": 89040, "pitch": 59, "duration": 20, "velocity": 85}, {"time": 89282, "pitch": 59, "duration": 60, "velocity": 90}, {"time": 89292, "pitch": 62, "duration": 50, "velocity": 95}, {"time": 89302, "pitch": 66, "duration": 40, "velocity": 100}, {"time": 89999, "pitch": 47, "duration": 159, "velocity": 90}, {"time": 90238, "pitch": 59, "duration": 60, "velocity": 90}, {"time": 90248, "pitch": 62, "duration": 50, "velocity": 95}, {"time": 90258, "pitch": 67, "duration": 40, "velocity": 100}, {"time": 90722, "pitch": 45, "duration": 1898, "velocity": 90}, {"time": 90961, "pitch": 57, "duration": 358, "velocity": 95}, {"time": 91081, "pitch": 62, "duration": 358, "velocity": 100}, {"time": 91319, "pitch": 57, "duration": 1301, "velocity": 95}, {"time": 91439, "pitch": 61, "duration": 481, "velocity": 90}, {"time": 91920, "pitch": 61, "duration": 121, "velocity": 90}, {"time": 92041, "pitch": 62, "duration": 121, "velocity": 95}, {"time": 92162, "pitch": 64, "duration": 458, "velocity": 100}, {"time": 92640, "pitch": 47, "duration": 20, "velocity": 90}, {"time": 92879, "pitch": 59, "duration": 20, "velocity": 85}, {"time": 93118, "pitch": 59, "duration": 60, "velocity": 90}, {"time": 93128, "pitch": 62, "duration": 50, "velocity": 95}, {"time": 93138, "pitch": 66, "duration": 40, "velocity": 100}, {"time": 93841, "pitch": 47, "duration": 159, "velocity": 90}, {"time": 94080, "pitch": 59, "duration": 60, "velocity": 90}, {"time": 94090, "pitch": 62, "duration": 50, "velocity": 95}, {"time": 94100, "pitch": 67, "duration": 40, "velocity": 100}, {"time": 94558, "pitch": 45, "duration": 1904, "velocity": 90}, {"time": 94800, "pitch": 57, "duration": 362, "velocity": 95}, {"time": 94921, "pitch": 62, "duration": 360, "velocity": 100}, {"time": 95162, "pitch": 57, "duration": 1300, "velocity": 95}, {"time": 95281, "pitch": 61, "duration": 478, "velocity": 90}, {"time": 95759, "pitch": 61, "duration": 119, "velocity": 90}, {"time": 95878, "pitch": 62, "duration": 120, "velocity": 95}, {"time": 95998, "pitch": 64, "duration": 464, "velocity": 100}, {"time": 96482, "pitch": 47, "duration": 20, "velocity": 90}, {"time": 96721, "pitch": 59, "duration": 20, "velocity": 85}, {"time": 96960, "pitch": 59, "duration": 60, "velocity": 90}, {"time": 96970, "pitch": 62, "duration": 50, "velocity": 95}, {"time": 96980, "pitch": 66, "duration": 40, "velocity": 100}, {"time": 97680, "pitch": 47, "duration": 161, "velocity": 90}, {"time": 97922, "pitch": 59, "duration": 60, "velocity": 90}, {"time": 97932, "pitch": 62, "duration": 50, "velocity": 95}, {"time": 97942, "pitch": 67, "duration": 40, "velocity": 100}, {"time": 98400, "pitch": 45, "duration": 1898, "velocity": 90}, {"time": 98639, "pitch": 57, "duration": 360, "velocity": 95}, {"time": 98758, "pitch": 62, "duration": 362, "velocity": 100}, {"time": 98999, "pitch": 57, "duration": 1299, "velocity": 95}, {"time": 99120, "pitch": 61, "duration": 481, "velocity": 90}, {"time": 99601, "pitch": 61, "duration": 119, "velocity": 90}, {"time": 99720, "pitch": 62, "duration": 120, "velocity": 95}, {"time": 99840, "pitch": 64, "duration": 458, "velocity": 100}, {"time": 188640, "pitch": 47, "duration": 239, "velocity": 90}, {"time": 188879, "pitch": 59, "duration": 20, "velocity": 85}, {"time": 189118, "pitch": 62, "duration": 50, "velocity": 95}, {"time": 189128, "pitch": 66, "duration": 40, "velocity": 100}, {"time": 189841, "pitch": 47, "duration": 239, "velocity": 90}, {"time": 190080, "pitch": 62, "duration": 50, "velocity": 95}, {"time": 190090, "pitch": 67, "duration": 40, "velocity": 100}, {"time": 190558, "pitch": 50, "duration": 242, "velocity": 100}, {"time": 190800, "pitch": 50, "duration": 121, "velocity": 100}, {"time": 190921, "pitch": 59, "duration": 51, "velocity": 105}, {"time": 190931, "pitch": 62, "duration": 41, "velocity": 110}, {"time": 191162, "pitch": 50, "duration": 119, "velocity": 100}, {"time": 191281, "pitch": 57, "duration": 478, "velocity": 95}, {"time": 191291, "pitch": 61, "duration": 468, "velocity": 100}, {"time": 191759, "pitch": 61, "duration": 119, "velocity": 90}, {"time": 191878, "pitch": 62, "duration": 120, "velocity": 80}, {"time": 191998, "pitch": 64, "duration": 484, "velocity": 85}, {"time": 192482, "pitch": 47, "duration": 239, "velocity": 90}, {"time": 192721, "pitch": 59, "duration": 20, "velocity": 85}, {"time": 192960, "pitch": 62, "duration": 50, "velocity": 95}, {"time": 192970, "pitch": 66, "duration": 40, "velocity": 100}, {"time": 193680, "pitch": 47, "duration": 242, "velocity": 90}, {"time": 193922, "pitch": 62, "duration": 50, "velocity": 95}, {"time": 193932, "pitch": 67, "duration": 40, "velocity": 100}, {"time": 194400, "pitch": 50, "duration": 239, "velocity": 100}, {"time": 194639, "pitch": 50, "duration": 119, "velocity": 100}, {"time": 194758, "pitch": 59, "duration": 50, "velocity": 105}, {"time": 194768, "pitch": 62, "duration": 40, "velocity": 110}, {"time": 194999, "pitch": 50, "duration": 121, "velocity": 100}, {"time": 195120, "pitch": 57, "duration": 481, "velocity": 95}, {"time": 195130, "pitch": 61, "duration": 471, "velocity": 100}, {"time": 195601, "pitch": 61, "duration": 119, "velocity": 90}, {"time": 195720, "pitch": 62, "duration": 120, "velocity": 80}, {"time": 195840, "pitch": 64, "duration": 477, "velocity": 85}, {"time": 196317, "pitch": 47, "duration": 243, "velocity": 90}, {"time": 196560, "pitch": 59, "duration": 20, "velocity": 85}, {"time": 196802, "pitch": 62, "duration": 50, "velocity": 95}, {"time": 196812, "pitch": 66, "duration": 40, "velocity": 100}, {"time": 197519, "pitch": 47, "duration": 238, "velocity": 90}, {"time": 197757, "pitch": 62, "duration": 51, "velocity": 95}, {"time": 197767, "pitch": 67, "duration": 41, "velocity": 100}, {"time": 198242, "pitch": 50, "duration": 239, "velocity": 100}, {"time": 198481, "pitch": 50, "duration": 119, "velocity": 100}, {"time": 198600, "pitch": 59, "duration": 50, "velocity": 105}, {"time": 198610, "pitch": 62, "duration": 40, "velocity": 110}, {"time": 198839, "pitch": 50, "duration": 120, "velocity": 100}, {"time": 198959, "pitch": 57, "duration": 481, "velocity": 95}, {"time": 198968, "pitch": 61, "duration": 472, "velocity": 100}, {"time": 199440, "pitch": 61, "duration": 121, "velocity": 90}, {"time": 199561, "pitch": 62, "duration": 121, "velocity": 80}, {"time": 199682, "pitch": 64, "duration": 478, "velocity": 85}, {"time": 200160, "pitch": 47, "duration": 239, "velocity": 90}, {"time": 200399, "pitch": 59, "duration": 19, "velocity": 85}, {"time": 200637, "pitch": 62, "duration": 51, "velocity": 95}, {"time": 200647, "pitch": 66, "duration": 41, "velocity": 100}, {"time": 201361, "pitch": 47, "duration": 239, "velocity": 90}, {"time": 201600, "pitch": 62, "duration": 49, "velocity": 95}, {"time": 201610, "pitch": 67, "duration": 39, "velocity": 100}, {"time": 202077, "pitch": 50, "duration": 243, "velocity": 100}, {"time": 202320, "pitch": 50, "duration": 121, "velocity": 100}, {"time": 202441, "pitch": 59, "duration": 50, "velocity": 105}, {"time": 202451, "pitch": 62, "duration": 40, "velocity": 110}, {"time": 202681, "pitch": 50, "duration": 120, "velocity": 100}, {"time": 202801, "pitch": 57, "duration": 477, "velocity": 95}, {"time": 202811, "pitch": 61, "duration": 467, "velocity": 100}, {"time": 203278, "pitch": 61, "duration": 120, "velocity": 90}, {"time": 203398, "pitch": 62, "duration": 119, "velocity": 80}, {"time": 203517, "pitch": 64, "duration": 485, "velocity": 85}, {"time": 204002, "pitch": 47, "duration": 239, "velocity": 90}, {"time": 204241, "pitch": 59, "duration": 20, "velocity": 85}, {"time": 204480, "pitch": 62, "duration": 49, "velocity": 95}, {"time": 204490, "pitch": 66, "duration": 39, "velocity": 100}, {"time": 205200, "pitch": 47, "duration": 242, "velocity": 90}, {"time": 205442, "pitch": 62, "duration": 50, "velocity": 95}, {"time": 205452, "pitch": 67, "duration": 40, "velocity": 100}, {"time": 205920, "pitch": 50, "duration": 238, "velocity": 100}, {"time": 206158, "pitch": 50, "duration": 120, "velocity": 100}, {"time": 206278, "pitch": 59, "duration": 50, "velocity": 105}, {"time": 206288, "pitch": 62, "duration": 40, "velocity": 110}, {"time": 206518, "pitch": 50, "duration": 122, "velocity": 100}, {"time": 206640, "pitch": 57, "duration": 481, "velocity": 95}, {"time": 206650, "pitch": 61, "duration": 471, "velocity": 100}, {"time": 207121, "pitch": 61, "duration": 119, "velocity": 90}, {"time": 207240, "pitch": 62, "duration": 120, "velocity": 80}, {"time": 207360, "pitch": 64, "duration": 477, "velocity": 85}, {"time": 207837, "pitch": 47, "duration": 243, "velocity": 90}, {"time": 208080, "pitch": 59, "duration": 20, "velocity": 85}, {"time": 208322, "pitch": 62, "duration": 50, "velocity": 95}, {"time": 208332, "pitch": 66, "duration": 40, "velocity": 100}, {"time": 209038, "pitch": 47, "duration": 239, "velocity": 90}, {"time": 209277, "pitch": 62, "duration": 51, "velocity": 95}, {"time": 209287, "pitch": 67, "duration": 41, "velocity": 100}, {"time": 209762, "pitch": 50, "duration": 239, "velocity": 100}, {"time": 210001, "pitch": 50, "duration": 119, "velocity": 100}, {"time": 210120, "pitch": 59, "duration": 50, "velocity": 105}, {"time": 210130, "pitch": 62, "duration": 40, "velocity": 110}, {"time": 210359, "pitch": 50, "duration": 119, "velocity": 100}, {"time": 210478, "pitch": 57, "duration": 481, "velocity": 95}, {"time": 210488, "pitch": 61, "duration": 471, "velocity": 100}, {"time": 210959, "pitch": 61, "duration": 122, "velocity": 90}, {"time": 211081, "pitch": 62, "duration": 121, "velocity": 80}, {"time": 211202, "pitch": 64, "duration": 477, "velocity": 85}, {"time": 211679, "pitch": 47, "duration": 239, "velocity": 90}, {"time": 211918, "pitch": 59, "duration": 20, "velocity": 85}, {"time": 212157, "pitch": 62, "duration": 50, "velocity": 95}, {"time": 212167, "pitch": 66, "duration": 40, "velocity": 100}, {"time": 212881, "pitch": 47, "duration": 238, "velocity": 90}, {"time": 213119, "pitch": 62, "duration": 50, "velocity": 95}, {"time": 213129, "pitch": 67, "duration": 40, "velocity": 100}, {"time": 213597, "pitch": 50, "duration": 242, "velocity": 100}, {"time": 213839, "pitch": 50, "duration": 122, "velocity": 100}, {"time": 213961, "pitch": 59, "duration": 50, "velocity": 105}, {"time": 213971, "pitch": 62, "duration": 40, "velocity": 110}, {"time": 214201, "pitch": 50, "duration": 120, "velocity": 100}, {"time": 214321, "pitch": 57, "duration": 477, "velocity": 95}, {"time": 214331, "pitch": 61, "duration": 467, "velocity": 100}, {"time": 214798, "pitch": 61, "duration": 120, "velocity": 90}, {"time": 214918, "pitch": 62, "duration": 119, "velocity": 80}, {"time": 215037, "pitch": 64, "duration": 485, "velocity": 85}, {"time": 215522, "pitch": 47, "duration": 239, "velocity": 90}, {"time": 215761, "pitch": 59, "duration": 19, "velocity": 85}, {"time": 215999, "pitch": 62, "duration": 50, "velocity": 95}, {"time": 216009, "pitch": 66, "duration": 40, "velocity": 100}, {"time": 216719, "pitch": 47, "duration": 243, "velocity": 90}, {"time": 216962, "pitch": 62, "duration": 49, "velocity": 95}, {"time": 216972, "pitch": 67, "duration": 39, "velocity": 100}, {"time": 217439, "pitch": 50, "duration": 239, "velocity": 100}, {"time": 217678, "pitch": 50, "duration": 119, "velocity": 100}, {"time": 217797, "pitch": 59, "duration": 50, "velocity": 105}, {"time": 217807, "pitch": 62, "duration": 40, "velocity": 110}, {"time": 218038, "pitch": 50, "duration": 121, "velocity": 100}, {"time": 218159, "pitch": 57, "duration": 481, "velocity": 95}, {"time": 218169, "pitch": 61, "duration": 471, "velocity": 100}, {"time": 218640, "pitch": 61, "duration": 120, "velocity": 90}, {"time": 218760, "pitch": 62, "duration": 119, "velocity": 80}, {"time": 218879, "pitch": 64, "duration": 478, "velocity": 85}, {"time": 219357, "pitch": 47, "duration": 242, "velocity": 90}, {"time": 219599, "pitch": 59, "duration": 20, "velocity": 85}, {"time": 219842, "pitch": 62, "duration": 49, "velocity": 95}, {"time": 219852, "pitch": 66, "duration": 39, "velocity": 100}, {"time": 220558, "pitch": 47, "duration": 239, "velocity": 90}, {"time": 220797, "pitch": 62, "duration": 50, "velocity": 95}, {"time": 220807, "pitch": 67, "duration": 40, "velocity": 100}, {"time": 221282, "pitch": 50, "duration": 238, "velocity": 100}, {"time": 221520, "pitch": 50, "duration": 120, "velocity": 100}, {"time": 221640, "pitch": 59, "duration": 50, "velocity": 105}, {"time": 221650, "pitch": 62, "duration": 40, "velocity": 110}, {"time": 221879, "pitch": 50, "duration": 119, "velocity": 100}, {"time": 221998, "pitch": 57, "duration": 481, "velocity": 95}, {"time": 222008, "pitch": 61, "duration": 471, "velocity": 100}, {"time": 222479, "pitch": 61, "duration": 121, "velocity": 90}, {"time": 222600, "pitch": 62, "duration": 122, "velocity": 80}, {"time": 222722, "pitch": 64, "duration": 477, "velocity": 85}, {"time": 223199, "pitch": 47, "duration": 239, "velocity": 90}, {"time": 223438, "pitch": 59, "duration": 20, "velocity": 85}, {"time": 223677, "pitch": 62, "duration": 50, "velocity": 95}, {"time": 223687, "pitch": 66, "duration": 40, "velocity": 100}, {"time": 224400, "pitch": 47, "duration": 239, "velocity": 90}, {"time": 224639, "pitch": 62, "duration": 50, "velocity": 95}, {"time": 224649, "pitch": 67, "duration": 40, "velocity": 100}, {"time": 225117, "pitch": 50, "duration": 242, "velocity": 100}, {"time": 225359, "pitch": 50, "duration": 121, "velocity": 100}, {"time": 225480, "pitch": 59, "duration": 51, "velocity": 105}, {"time": 225490, "pitch": 62, "duration": 41, "velocity": 110}, {"time": 225721, "pitch": 50, "duration": 119, "velocity": 100}, {"time": 225840, "pitch": 57, "duration": 478, "velocity": 95}, {"time": 225850, "pitch": 61, "duration": 468, "velocity": 100}, {"time": 226318, "pitch": 61, "duration": 119, "velocity": 90}, {"time": 226437, "pitch": 62, "duration": 120, "velocity": 80}, {"time": 226557, "pitch": 64, "duration": 470, "velocity": 85}, {"time": 227027, "pitch": 47, "duration": 236, "velocity": 90}, {"time": 227263, "pitch": 59, "duration": 19, "velocity": 85}, {"time": 227498, "pitch": 62, "duration": 49, "velocity": 95}, {"time": 227508, "pitch": 66, "duration": 39, "velocity": 100}, {"time": 228204, "pitch": 47, "duration": 235, "velocity": 90}, {"time": 228439, "pitch": 62, "duration": 49, "velocity": 95}, {"time": 228449, "pitch": 67, "duration": 39, "velocity": 100}, {"time": 228910, "pitch": 50, "duration": 235, "velocity": 100}, {"time": 229145, "pitch": 50, "duration": 118, "velocity": 100}, {"time": 229263, "pitch": 59, "duration": 49, "velocity": 105}, {"time": 229272, "pitch": 62, "duration": 40, "velocity": 110}, {"time": 229498, "pitch": 50, "duration": 117, "velocity": 100}, {"time": 229615, "pitch": 57, "duration": 471, "velocity": 95}, {"time": 229625, "pitch": 61, "duration": 461, "velocity": 100}, {"time": 230086, "pitch": 61, "duration": 118, "velocity": 90}, {"time": 230204, "pitch": 62, "duration": 117, "velocity": 80}, {"time": 230321, "pitch": 64, "duration": 471, "velocity": 85}, {"time": 83401, "pitch": 50, "duration": 122, "velocity": 100}, {"time": 83523, "pitch": 54, "duration": 159, "velocity": 100}, {"time": 84000, "pitch": 50, "duration": 239, "velocity": 100}, {"time": 84478, "pitch": 47, "duration": 424, "velocity": 100}, {"time": 91920, "pitch": 69, "duration": 121, "velocity": 100}, {"time": 92041, "pitch": 64, "duration": 599, "velocity": 100}, {"time": 99840, "pitch": 54, "duration": 239, "velocity": 110}, {"time": 100079, "pitch": 59, "duration": 238, "velocity": 110}, {"time": 100317, "pitch": 62, "duration": 1925, "velocity": 100}, {"time": 102242, "pitch": 64, "duration": 1918, "velocity": 90}, {"time": 188640, "pitch": 71, "duration": 1918, "velocity": 120}, {"time": 191759, "pitch": 69, "duration": 481, "velocity": 110}, {"time": 192240, "pitch": 71, "duration": 121, "velocity": 105}, {"time": 192602, "pitch": 64, "duration": 1559, "velocity": 110}, {"time": 194161, "pitch": 62, "duration": 119, "velocity": 110}, {"time": 194280, "pitch": 64, "duration": 120, "velocity": 100}, {"time": 194400, "pitch": 66, "duration": 119, "velocity": 100}, {"time": 195120, "pitch": 64, "duration": 121, "velocity": 105}, {"time": 195241, "pitch": 62, "duration": 121, "velocity": 100}, {"time": 195362, "pitch": 64, "duration": 936, "velocity": 100}, {"time": 197519, "pitch": 57, "duration": 59, "velocity": 90}, {"time": 197638, "pitch": 59, "duration": 60, "velocity": 85}, {"time": 197757, "pitch": 62, "duration": 61, "velocity": 90}, {"time": 198000, "pitch": 64, "duration": 60, "velocity": 85}, {"time": 198242, "pitch": 66, "duration": 60, "velocity": 85}, {"time": 198481, "pitch": 62, "duration": 60, "velocity": 85}, {"time": 198720, "pitch": 64, "duration": 59, "velocity": 85}, {"time": 199440, "pitch": 57, "duration": 60, "velocity": 85}, {"time": 199682, "pitch": 69, "duration": 120, "velocity": 85}, {"time": 199802, "pitch": 71, "duration": 59, "velocity": 85}, {"time": 200160, "pitch": 52, "duration": 239, "velocity": 110}, {"time": 200399, "pitch": 50, "duration": 238, "velocity": 105}, {"time": 200637, "pitch": 47, "duration": 61, "velocity": 100}, {"time": 200880, "pitch": 47, "duration": 1157, "velocity": 105}, {"time": 203278, "pitch": 57, "duration": 239, "velocity": 110}, {"time": 203517, "pitch": 62, "duration": 121, "velocity": 105}, {"time": 203760, "pitch": 59, "duration": 720, "velocity": 110}, {"time": 205200, "pitch": 57, "duration": 361, "velocity": 110}, {"time": 205442, "pitch": 62, "duration": 119, "velocity": 105}, {"time": 205681, "pitch": 59, "duration": 716, "velocity": 110}, {"time": 207121, "pitch": 52, "duration": 716, "velocity": 110}, {"time": 208080, "pitch": 66, "duration": 1439, "velocity": 110}, {"time": 209519, "pitch": 64, "duration": 243, "velocity": 120}, {"time": 209762, "pitch": 69, "duration": 119, "velocity": 120}, {"time": 210001, "pitch": 69, "duration": 119, "velocity": 120}, {"time": 210120, "pitch": 66, "duration": 119, "velocity": 115}, {"time": 210239, "pitch": 69, "duration": 1440, "velocity": 120}, {"time": 212399, "pitch": 78, "duration": 1198, "velocity": 120}, {"time": 213597, "pitch": 74, "duration": 121, "velocity": 110}, {"time": 213718, "pitch": 76, "duration": 243, "velocity": 105}, {"time": 214082, "pitch": 69, "duration": 119, "velocity": 110}, {"time": 214321, "pitch": 69, "duration": 1160, "velocity": 105}, {"time": 216119, "pitch": 66, "duration": 119, "velocity": 100}, {"time": 216238, "pitch": 71, "duration": 239, "velocity": 110}, {"time": 216477, "pitch": 69, "duration": 485, "velocity": 105}, {"time": 216962, "pitch": 71, "duration": 79, "velocity": 110}, {"time": 217200, "pitch": 64, "duration": 239, "velocity": 100}, {"time": 217439, "pitch": 62, "duration": 120, "velocity": 95}, {"time": 217559, "pitch": 62, "duration": 479, "velocity": 90}, {"time": 218159, "pitch": 64, "duration": 121, "velocity": 90}, {"time": 218280, "pitch": 62, "duration": 122, "velocity": 90}, {"time": 218402, "pitch": 64, "duration": 119, "velocity": 90}, {"time": 218521, "pitch": 66, "duration": 119, "velocity": 95}, {"time": 218640, "pitch": 69, "duration": 120, "velocity": 100}, {"time": 218760, "pitch": 71, "duration": 119, "velocity": 105}, {"time": 218879, "pitch": 74, "duration": 120, "velocity": 110}, {"time": 218999, "pitch": 76, "duration": 119, "velocity": 105}, {"time": 219118, "pitch": 78, "duration": 239, "velocity": 110}, {"time": 219357, "pitch": 78, "duration": 363, "velocity": 120}, {"time": 219599, "pitch": 81, "duration": 121, "velocity": 115}, {"time": 219720, "pitch": 78, "duration": 1440, "velocity": 110}, {"time": 221160, "pitch": 79, "duration": 81, "velocity": 100}, {"time": 221282, "pitch": 76, "duration": 358, "velocity": 110}, {"time": 221640, "pitch": 74, "duration": 119, "velocity": 100}, {"time": 221759, "pitch": 76, "duration": 478, "velocity": 110}, {"time": 222237, "pitch": 74, "duration": 60, "velocity": 100}, {"time": 223080, "pitch": 83, "duration": 119, "velocity": 110}, {"time": 223199, "pitch": 83, "duration": 1918, "velocity": 110}, {"time": 225359, "pitch": 83, "duration": 61, "velocity": 110}, {"time": 225601, "pitch": 76, "duration": 1426, "velocity": 100}, {"time": 227027, "pitch": 78, "duration": 118, "velocity": 100}, {"time": 227145, "pitch": 74, "duration": 118, "velocity": 95}, {"time": 227380, "pitch": 71, "duration": 1059, "velocity": 90}, {"time": 134399, "pitch": 72, "duration": 478, "velocity": 120}, {"time": 142084, "pitch": 36, "duration": 477, "velocity": 120}]}]}